0, 0, Header, 1, 14, 96
1, 0, Start_track
1, 0, Time_signature, 3, 2, 96, 8
1, 0, Tempo, 461538
1, 96, Tempo, 428571
1, 14112, Time_signature, 2, 2, 96, 8
1, 14208, Tempo, 500000
1, 17280, Tempo, 500000
1, 26784, Time_signature, 3, 2, 96, 8
1, 26880, Tempo, 428571
1, 26880, End_track
2, 0, Start_track
2, 0, Title_t, "Corno I"
2, 0, Control_c, 0, 0, 0
2, 0, Program_c, 0, 60
2, 0, Time_signature, 3, 2, 96, 8
2, 0, Tempo, 461538
2, 96, Tempo, 428571
2, 96, Note_on_c, 0, 53, 127
2, 180, Note_off_c, 0, 53, 0
2, 192, Note_on_c, 0, 53, 127
2, 234, Note_off_c, 0, 53, 0
2, 240, Note_on_c, 0, 53, 127
2, 282, Note_off_c, 0, 53, 0
2, 288, Note_on_c, 0, 53, 127
2, 330, Note_off_c, 0, 53, 0
2, 336, Note_on_c, 0, 53, 127
2, 378, Note_off_c, 0, 53, 0
2, 384, Note_on_c, 0, 53, 127
2, 468, Note_off_c, 0, 53, 0
2, 672, Note_on_c, 0, 53, 127
2, 756, Note_off_c, 0, 53, 0
2, 768, Note_on_c, 0, 53, 127
2, 810, Note_off_c, 0, 53, 0
2, 816, Note_on_c, 0, 53, 127
2, 858, Note_off_c, 0, 53, 0
2, 864, Note_on_c, 0, 53, 127
2, 906, Note_off_c, 0, 53, 0
2, 912, Note_on_c, 0, 53, 127
2, 954, Note_off_c, 0, 53, 0
2, 960, Note_on_c, 0, 53, 127
2, 1044, Note_off_c, 0, 53, 0
2, 1248, Note_on_c, 0, 60, 127
2, 1332, Note_off_c, 0, 60, 0
2, 1344, Note_on_c, 0, 60, 127
2, 1386, Note_off_c, 0, 60, 0
2, 1392, Note_on_c, 0, 60, 127
2, 1434, Note_off_c, 0, 60, 0
2, 1440, Note_on_c, 0, 60, 127
2, 1482, Note_off_c, 0, 60, 0
2, 1488, Note_on_c, 0, 60, 127
2, 1530, Note_off_c, 0, 60, 0
2, 1536, Note_on_c, 0, 60, 127
2, 1620, Note_off_c, 0, 60, 0
2, 1824, Note_on_c, 0, 60, 127
2, 1908, Note_off_c, 0, 60, 0
2, 1920, Note_on_c, 0, 60, 127
2, 1962, Note_off_c, 0, 60, 0
2, 1968, Note_on_c, 0, 60, 127
2, 2010, Note_off_c, 0, 60, 0
2, 2016, Note_on_c, 0, 60, 127
2, 2058, Note_off_c, 0, 60, 0
2, 2064, Note_on_c, 0, 60, 127
2, 2106, Note_off_c, 0, 60, 0
2, 2112, Note_on_c, 0, 60, 127
2, 2196, Note_off_c, 0, 60, 0
2, 2400, Note_on_c, 0, 67, 127
2, 2484, Note_off_c, 0, 67, 0
2, 2496, Note_on_c, 0, 67, 127
2, 2538, Note_off_c, 0, 67, 0
2, 2544, Note_on_c, 0, 67, 127
2, 2586, Note_off_c, 0, 67, 0
2, 2592, Note_on_c, 0, 67, 127
2, 2634, Note_off_c, 0, 67, 0
2, 2640, Note_on_c, 0, 67, 127
2, 2682, Note_off_c, 0, 67, 0
2, 2688, Note_on_c, 0, 67, 127
2, 2772, Note_off_c, 0, 67, 0
2, 2976, Note_on_c, 0, 72, 127
2, 3018, Note_off_c, 0, 72, 0
2, 3024, Note_on_c, 0, 71, 127
2, 3066, Note_off_c, 0, 71, 0
2, 3072, Note_on_c, 0, 71, 127
2, 3204, Note_off_c, 0, 71, 0
2, 3216, Note_on_c, 0, 72, 127
2, 3258, Note_off_c, 0, 72, 0
2, 3264, Note_on_c, 0, 72, 127
2, 3540, Note_off_c, 0, 72, 0
2, 3552, Note_on_c, 0, 53, 127
2, 3636, Note_off_c, 0, 53, 0
2, 3648, Note_on_c, 0, 53, 127
2, 3690, Note_off_c, 0, 53, 0
2, 3696, Note_on_c, 0, 53, 127
2, 3738, Note_off_c, 0, 53, 0
2, 3744, Note_on_c, 0, 53, 127
2, 3786, Note_off_c, 0, 53, 0
2, 3792, Note_on_c, 0, 53, 127
2, 3834, Note_off_c, 0, 53, 0
2, 3840, Note_on_c, 0, 53, 127
2, 3924, Note_off_c, 0, 53, 0
2, 4128, Note_on_c, 0, 53, 127
2, 4212, Note_off_c, 0, 53, 0
2, 4224, Note_on_c, 0, 53, 127
2, 4266, Note_off_c, 0, 53, 0
2, 4272, Note_on_c, 0, 53, 127
2, 4314, Note_off_c, 0, 53, 0
2, 4320, Note_on_c, 0, 53, 127
2, 4362, Note_off_c, 0, 53, 0
2, 4368, Note_on_c, 0, 53, 127
2, 4410, Note_off_c, 0, 53, 0
2, 4416, Note_on_c, 0, 53, 127
2, 4500, Note_off_c, 0, 53, 0
2, 4704, Note_on_c, 0, 60, 127
2, 4788, Note_off_c, 0, 60, 0
2, 4800, Note_on_c, 0, 60, 127
2, 4842, Note_off_c, 0, 60, 0
2, 4848, Note_on_c, 0, 60, 127
2, 4890, Note_off_c, 0, 60, 0
2, 4896, Note_on_c, 0, 60, 127
2, 4938, Note_off_c, 0, 60, 0
2, 4944, Note_on_c, 0, 60, 127
2, 4986, Note_off_c, 0, 60, 0
2, 4992, Note_on_c, 0, 60, 127
2, 5076, Note_off_c, 0, 60, 0
2, 5280, Note_on_c, 0, 60, 127
2, 5364, Note_off_c, 0, 60, 0
2, 5376, Note_on_c, 0, 60, 127
2, 5418, Note_off_c, 0, 60, 0
2, 5424, Note_on_c, 0, 60, 127
2, 5466, Note_off_c, 0, 60, 0
2, 5472, Note_on_c, 0, 60, 127
2, 5514, Note_off_c, 0, 60, 0
2, 5520, Note_on_c, 0, 60, 127
2, 5562, Note_off_c, 0, 60, 0
2, 5568, Note_on_c, 0, 60, 127
2, 5652, Note_off_c, 0, 60, 0
2, 5856, Note_on_c, 0, 67, 127
2, 5940, Note_off_c, 0, 67, 0
2, 5952, Note_on_c, 0, 67, 127
2, 5994, Note_off_c, 0, 67, 0
2, 6000, Note_on_c, 0, 67, 127
2, 6042, Note_off_c, 0, 67, 0
2, 6048, Note_on_c, 0, 67, 127
2, 6090, Note_off_c, 0, 67, 0
2, 6096, Note_on_c, 0, 67, 127
2, 6138, Note_off_c, 0, 67, 0
2, 6144, Note_on_c, 0, 67, 127
2, 6228, Note_off_c, 0, 67, 0
2, 6432, Note_on_c, 0, 72, 127
2, 6474, Note_off_c, 0, 72, 0
2, 6480, Note_on_c, 0, 71, 127
2, 6522, Note_off_c, 0, 71, 0
2, 6528, Note_on_c, 0, 71, 127
2, 6660, Note_off_c, 0, 71, 0
2, 6672, Note_on_c, 0, 72, 127
2, 6714, Note_off_c, 0, 72, 0
2, 6720, Note_on_c, 0, 72, 127
2, 6996, Note_off_c, 0, 72, 0
2, 7008, Note_on_c, 0, 60, 127
2, 7092, Note_off_c, 0, 60, 0
2, 7104, Note_on_c, 0, 60, 127
2, 7146, Note_off_c, 0, 60, 0
2, 7152, Note_on_c, 0, 60, 127
2, 7194, Note_off_c, 0, 60, 0
2, 7200, Note_on_c, 0, 60, 127
2, 7242, Note_off_c, 0, 60, 0
2, 7248, Note_on_c, 0, 60, 127
2, 7290, Note_off_c, 0, 60, 0
2, 7296, Note_on_c, 0, 60, 127
2, 7380, Note_off_c, 0, 60, 0
2, 7584, Note_on_c, 0, 60, 127
2, 7668, Note_off_c, 0, 60, 0
2, 7680, Note_on_c, 0, 60, 127
2, 7722, Note_off_c, 0, 60, 0
2, 7728, Note_on_c, 0, 60, 127
2, 7770, Note_off_c, 0, 60, 0
2, 7776, Note_on_c, 0, 60, 127
2, 7818, Note_off_c, 0, 60, 0
2, 7824, Note_on_c, 0, 60, 127
2, 7866, Note_off_c, 0, 60, 0
2, 7872, Note_on_c, 0, 60, 127
2, 7956, Note_off_c, 0, 60, 0
2, 8160, Note_on_c, 0, 67, 127
2, 8244, Note_off_c, 0, 67, 0
2, 8256, Note_on_c, 0, 67, 127
2, 8298, Note_off_c, 0, 67, 0
2, 8304, Note_on_c, 0, 67, 127
2, 8346, Note_off_c, 0, 67, 0
2, 8352, Note_on_c, 0, 67, 127
2, 8394, Note_off_c, 0, 67, 0
2, 8400, Note_on_c, 0, 67, 127
2, 8442, Note_off_c, 0, 67, 0
2, 8448, Note_on_c, 0, 67, 127
2, 8532, Note_off_c, 0, 67, 0
2, 8736, Note_on_c, 0, 67, 127
2, 8820, Note_off_c, 0, 67, 0
2, 8832, Note_on_c, 0, 67, 127
2, 8874, Note_off_c, 0, 67, 0
2, 8880, Note_on_c, 0, 67, 127
2, 8922, Note_off_c, 0, 67, 0
2, 8928, Note_on_c, 0, 67, 127
2, 8970, Note_off_c, 0, 67, 0
2, 8976, Note_on_c, 0, 67, 127
2, 9018, Note_off_c, 0, 67, 0
2, 9024, Note_on_c, 0, 67, 127
2, 9108, Note_off_c, 0, 67, 0
2, 9312, Note_on_c, 0, 72, 127
2, 9396, Note_off_c, 0, 72, 0
2, 9408, Note_on_c, 0, 72, 127
2, 9450, Note_off_c, 0, 72, 0
2, 9456, Note_on_c, 0, 72, 127
2, 9498, Note_off_c, 0, 72, 0
2, 9504, Note_on_c, 0, 72, 127
2, 9546, Note_off_c, 0, 72, 0
2, 9552, Note_on_c, 0, 72, 127
2, 9594, Note_off_c, 0, 72, 0
2, 9600, Note_on_c, 0, 72, 127
2, 9780, Note_off_c, 0, 72, 0
2, 9792, Note_on_c, 0, 70, 127
2, 9876, Note_off_c, 0, 70, 0
2, 9888, Note_on_c, 0, 69, 127
2, 9972, Note_off_c, 0, 69, 0
2, 9984, Note_on_c, 0, 70, 127
2, 10026, Note_off_c, 0, 70, 0
2, 10032, Note_on_c, 0, 69, 127
2, 10074, Note_off_c, 0, 69, 0
2, 10080, Note_on_c, 0, 67, 127
2, 10122, Note_off_c, 0, 67, 0
2, 10128, Note_on_c, 0, 69, 127
2, 10170, Note_off_c, 0, 69, 0
2, 10176, Note_on_c, 0, 65, 127
2, 10452, Note_off_c, 0, 65, 0
2, 10464, Note_on_c, 0, 60, 127
2, 10548, Note_off_c, 0, 60, 0
2, 10560, Note_on_c, 0, 60, 127
2, 10602, Note_off_c, 0, 60, 0
2, 10608, Note_on_c, 0, 60, 127
2, 10650, Note_off_c, 0, 60, 0
2, 10656, Note_on_c, 0, 60, 127
2, 10698, Note_off_c, 0, 60, 0
2, 10704, Note_on_c, 0, 60, 127
2, 10746, Note_off_c, 0, 60, 0
2, 10752, Note_on_c, 0, 60, 127
2, 10836, Note_off_c, 0, 60, 0
2, 11040, Note_on_c, 0, 60, 127
2, 11124, Note_off_c, 0, 60, 0
2, 11136, Note_on_c, 0, 60, 127
2, 11178, Note_off_c, 0, 60, 0
2, 11184, Note_on_c, 0, 60, 127
2, 11226, Note_off_c, 0, 60, 0
2, 11232, Note_on_c, 0, 60, 127
2, 11274, Note_off_c, 0, 60, 0
2, 11280, Note_on_c, 0, 60, 127
2, 11322, Note_off_c, 0, 60, 0
2, 11328, Note_on_c, 0, 60, 127
2, 11412, Note_off_c, 0, 60, 0
2, 11616, Note_on_c, 0, 67, 127
2, 11700, Note_off_c, 0, 67, 0
2, 11712, Note_on_c, 0, 67, 127
2, 11754, Note_off_c, 0, 67, 0
2, 11760, Note_on_c, 0, 67, 127
2, 11802, Note_off_c, 0, 67, 0
2, 11808, Note_on_c, 0, 67, 127
2, 11850, Note_off_c, 0, 67, 0
2, 11856, Note_on_c, 0, 67, 127
2, 11898, Note_off_c, 0, 67, 0
2, 11904, Note_on_c, 0, 67, 127
2, 11988, Note_off_c, 0, 67, 0
2, 12192, Note_on_c, 0, 67, 127
2, 12276, Note_off_c, 0, 67, 0
2, 12288, Note_on_c, 0, 67, 127
2, 12330, Note_off_c, 0, 67, 0
2, 12336, Note_on_c, 0, 67, 127
2, 12378, Note_off_c, 0, 67, 0
2, 12384, Note_on_c, 0, 67, 127
2, 12426, Note_off_c, 0, 67, 0
2, 12432, Note_on_c, 0, 67, 127
2, 12474, Note_off_c, 0, 67, 0
2, 12480, Note_on_c, 0, 67, 127
2, 12564, Note_off_c, 0, 67, 0
2, 12768, Note_on_c, 0, 72, 127
2, 12852, Note_off_c, 0, 72, 0
2, 12864, Note_on_c, 0, 72, 127
2, 12906, Note_off_c, 0, 72, 0
2, 12912, Note_on_c, 0, 72, 127
2, 12954, Note_off_c, 0, 72, 0
2, 12960, Note_on_c, 0, 72, 127
2, 13002, Note_off_c, 0, 72, 0
2, 13008, Note_on_c, 0, 72, 127
2, 13050, Note_off_c, 0, 72, 0
2, 13056, Note_on_c, 0, 72, 127
2, 13236, Note_off_c, 0, 72, 0
2, 13248, Note_on_c, 0, 70, 127
2, 13332, Note_off_c, 0, 70, 0
2, 13344, Note_on_c, 0, 69, 127
2, 13428, Note_off_c, 0, 69, 0
2, 13440, Note_on_c, 0, 70, 127
2, 13482, Note_off_c, 0, 70, 0
2, 13488, Note_on_c, 0, 69, 127
2, 13530, Note_off_c, 0, 69, 0
2, 13536, Note_on_c, 0, 67, 127
2, 13578, Note_off_c, 0, 67, 0
2, 13584, Note_on_c, 0, 69, 127
2, 13626, Note_off_c, 0, 69, 0
2, 13632, Note_on_c, 0, 65, 127
2, 13908, Note_off_c, 0, 65, 0
2, 14112, Time_signature, 2, 2, 96, 8
2, 14208, Tempo, 500000
2, 14208, Note_on_c, 0, 72, 127
2, 14292, Note_off_c, 0, 72, 0
2, 14304, Note_on_c, 0, 74, 127
2, 14346, Note_off_c, 0, 74, 0
2, 14352, Note_on_c, 0, 72, 127
2, 14394, Note_off_c, 0, 72, 0
2, 14400, Note_on_c, 0, 70, 127
2, 14442, Note_off_c, 0, 70, 0
2, 14448, Note_on_c, 0, 69, 127
2, 14490, Note_off_c, 0, 69, 0
2, 14496, Note_on_c, 0, 70, 127
2, 14538, Note_off_c, 0, 70, 0
2, 14544, Note_on_c, 0, 67, 127
2, 14586, Note_off_c, 0, 67, 0
2, 14592, Note_on_c, 0, 69, 127
2, 14676, Note_off_c, 0, 69, 0
2, 14688, Note_on_c, 0, 72, 127
2, 14772, Note_off_c, 0, 72, 0
2, 14784, Note_on_c, 0, 70, 127
2, 14826, Note_off_c, 0, 70, 0
2, 14832, Note_on_c, 0, 69, 127
2, 14874, Note_off_c, 0, 69, 0
2, 14880, Note_on_c, 0, 70, 127
2, 14922, Note_off_c, 0, 70, 0
2, 14928, Note_on_c, 0, 67, 127
2, 14970, Note_off_c, 0, 67, 0
2, 14976, Note_on_c, 0, 69, 127
2, 15018, Note_off_c, 0, 69, 0
2, 15024, Note_on_c, 0, 65, 127
2, 15066, Note_off_c, 0, 65, 0
2, 15072, Note_on_c, 0, 72, 127
2, 15156, Note_off_c, 0, 72, 0
2, 15168, Note_on_c, 0, 69, 127
2, 15210, Note_off_c, 0, 69, 0
2, 15216, Note_on_c, 0, 65, 127
2, 15258, Note_off_c, 0, 65, 0
2, 15264, Note_on_c, 0, 77, 127
2, 15348, Note_off_c, 0, 77, 0
2, 15360, Note_on_c, 0, 69, 127
2, 15402, Note_off_c, 0, 69, 0
2, 15408, Note_on_c, 0, 67, 127
2, 15429, Note_off_c, 0, 67, 0
2, 15432, Note_on_c, 0, 69, 127
2, 15453, Note_off_c, 0, 69, 0
2, 15456, Note_on_c, 0, 70, 127
2, 15498, Note_off_c, 0, 70, 0
2, 15504, Note_on_c, 0, 69, 127
2, 15546, Note_off_c, 0, 69, 0
2, 15552, Note_on_c, 0, 67, 127
2, 15573, Note_off_c, 0, 67, 0
2, 15576, Note_on_c, 0, 65, 127
2, 15597, Note_off_c, 0, 65, 0
2, 15600, Note_on_c, 0, 67, 127
2, 15621, Note_off_c, 0, 67, 0
2, 15624, Note_on_c, 0, 69, 127
2, 15645, Note_off_c, 0, 69, 0
2, 15648, Note_on_c, 0, 67, 127
2, 15669, Note_off_c, 0, 67, 0
2, 15672, Note_on_c, 0, 69, 127
2, 15693, Note_off_c, 0, 69, 0
2, 15696, Note_on_c, 0, 70, 127
2, 15717, Note_off_c, 0, 70, 0
2, 15720, Note_on_c, 0, 67, 127
2, 15741, Note_off_c, 0, 67, 0
2, 15744, Note_on_c, 0, 72, 127
2, 15828, Note_off_c, 0, 72, 0
2, 15840, Note_on_c, 0, 74, 127
2, 15882, Note_off_c, 0, 74, 0
2, 15888, Note_on_c, 0, 72, 127
2, 15930, Note_off_c, 0, 72, 0
2, 15936, Note_on_c, 0, 70, 127
2, 15978, Note_off_c, 0, 70, 0
2, 15984, Note_on_c, 0, 69, 127
2, 16026, Note_off_c, 0, 69, 0
2, 16032, Note_on_c, 0, 70, 127
2, 16074, Note_off_c, 0, 70, 0
2, 16080, Note_on_c, 0, 67, 127
2, 16122, Note_off_c, 0, 67, 0
2, 16128, Note_on_c, 0, 69, 127
2, 16212, Note_off_c, 0, 69, 0
2, 16224, Note_on_c, 0, 72, 127
2, 16308, Note_off_c, 0, 72, 0
2, 16320, Note_on_c, 0, 70, 127
2, 16362, Note_off_c, 0, 70, 0
2, 16368, Note_on_c, 0, 69, 127
2, 16410, Note_off_c, 0, 69, 0
2, 16416, Note_on_c, 0, 70, 127
2, 16458, Note_off_c, 0, 70, 0
2, 16464, Note_on_c, 0, 67, 127
2, 16506, Note_off_c, 0, 67, 0
2, 16512, Note_on_c, 0, 69, 127
2, 16554, Note_off_c, 0, 69, 0
2, 16560, Note_on_c, 0, 65, 127
2, 16602, Note_off_c, 0, 65, 0
2, 16608, Note_on_c, 0, 72, 127
2, 16692, Note_off_c, 0, 72, 0
2, 16704, Note_on_c, 0, 69, 127
2, 16746, Note_off_c, 0, 69, 0
2, 16752, Note_on_c, 0, 65, 127
2, 16794, Note_off_c, 0, 65, 0
2, 16800, Note_on_c, 0, 77, 127
2, 16884, Note_off_c, 0, 77, 0
2, 16896, Note_on_c, 0, 69, 127
2, 16938, Note_off_c, 0, 69, 0
2, 16944, Note_on_c, 0, 67, 127
2, 16965, Note_off_c, 0, 67, 0
2, 16968, Note_on_c, 0, 69, 127
2, 16989, Note_off_c, 0, 69, 0
2, 16992, Note_on_c, 0, 70, 127
2, 17013, Note_off_c, 0, 70, 0
2, 17016, Note_on_c, 0, 69, 127
2, 17037, Note_off_c, 0, 69, 0
2, 17040, Note_on_c, 0, 70, 127
2, 17061, Note_off_c, 0, 70, 0
2, 17064, Note_on_c, 0, 69, 127
2, 17085, Note_off_c, 0, 69, 0
2, 17088, Note_on_c, 0, 67, 127
2, 17268, Note_off_c, 0, 67, 0
2, 17280, Tempo, 500000
2, 17280, Note_on_c, 0, 72, 127
2, 17364, Note_off_c, 0, 72, 0
2, 17376, Note_on_c, 0, 74, 127
2, 17418, Note_off_c, 0, 74, 0
2, 17424, Note_on_c, 0, 72, 127
2, 17466, Note_off_c, 0, 72, 0
2, 17472, Note_on_c, 0, 70, 127
2, 17514, Note_off_c, 0, 70, 0
2, 17520, Note_on_c, 0, 69, 127
2, 17562, Note_off_c, 0, 69, 0
2, 17568, Note_on_c, 0, 70, 127
2, 17610, Note_off_c, 0, 70, 0
2, 17616, Note_on_c, 0, 67, 127
2, 17658, Note_off_c, 0, 67, 0
2, 17664, Note_on_c, 0, 69, 127
2, 17748, Note_off_c, 0, 69, 0
2, 17760, Note_on_c, 0, 72, 127
2, 17844, Note_off_c, 0, 72, 0
2, 17856, Note_on_c, 0, 70, 127
2, 17898, Note_off_c, 0, 70, 0
2, 17904, Note_on_c, 0, 69, 127
2, 17946, Note_off_c, 0, 69, 0
2, 17952, Note_on_c, 0, 70, 127
2, 17994, Note_off_c, 0, 70, 0
2, 18000, Note_on_c, 0, 67, 127
2, 18042, Note_off_c, 0, 67, 0
2, 18048, Note_on_c, 0, 69, 127
2, 18090, Note_off_c, 0, 69, 0
2, 18096, Note_on_c, 0, 65, 127
2, 18138, Note_off_c, 0, 65, 0
2, 18144, Note_on_c, 0, 72, 127
2, 18228, Note_off_c, 0, 72, 0
2, 18240, Note_on_c, 0, 69, 127
2, 18282, Note_off_c, 0, 69, 0
2, 18288, Note_on_c, 0, 65, 127
2, 18330, Note_off_c, 0, 65, 0
2, 18336, Note_on_c, 0, 77, 127
2, 18420, Note_off_c, 0, 77, 0
2, 18432, Note_on_c, 0, 69, 127
2, 18474, Note_off_c, 0, 69, 0
2, 18480, Note_on_c, 0, 67, 127
2, 18501, Note_off_c, 0, 67, 0
2, 18504, Note_on_c, 0, 69, 127
2, 18525, Note_off_c, 0, 69, 0
2, 18528, Note_on_c, 0, 70, 127
2, 18570, Note_off_c, 0, 70, 0
2, 18576, Note_on_c, 0, 69, 127
2, 18618, Note_off_c, 0, 69, 0
2, 18624, Note_on_c, 0, 67, 127
2, 18645, Note_off_c, 0, 67, 0
2, 18648, Note_on_c, 0, 65, 127
2, 18669, Note_off_c, 0, 65, 0
2, 18672, Note_on_c, 0, 67, 127
2, 18693, Note_off_c, 0, 67, 0
2, 18696, Note_on_c, 0, 69, 127
2, 18717, Note_off_c, 0, 69, 0
2, 18720, Note_on_c, 0, 67, 127
2, 18741, Note_off_c, 0, 67, 0
2, 18744, Note_on_c, 0, 69, 127
2, 18765, Note_off_c, 0, 69, 0
2, 18768, Note_on_c, 0, 70, 127
2, 18789, Note_off_c, 0, 70, 0
2, 18792, Note_on_c, 0, 67, 127
2, 18813, Note_off_c, 0, 67, 0
2, 18816, Note_on_c, 0, 72, 127
2, 18900, Note_off_c, 0, 72, 0
2, 18912, Note_on_c, 0, 74, 127
2, 18954, Note_off_c, 0, 74, 0
2, 18960, Note_on_c, 0, 72, 127
2, 19002, Note_off_c, 0, 72, 0
2, 19008, Note_on_c, 0, 70, 127
2, 19050, Note_off_c, 0, 70, 0
2, 19056, Note_on_c, 0, 69, 127
2, 19098, Note_off_c, 0, 69, 0
2, 19104, Note_on_c, 0, 70, 127
2, 19146, Note_off_c, 0, 70, 0
2, 19152, Note_on_c, 0, 67, 127
2, 19194, Note_off_c, 0, 67, 0
2, 19200, Note_on_c, 0, 69, 127
2, 19284, Note_off_c, 0, 69, 0
2, 19296, Note_on_c, 0, 72, 127
2, 19380, Note_off_c, 0, 72, 0
2, 19392, Note_on_c, 0, 70, 127
2, 19434, Note_off_c, 0, 70, 0
2, 19440, Note_on_c, 0, 69, 127
2, 19482, Note_off_c, 0, 69, 0
2, 19488, Note_on_c, 0, 70, 127
2, 19530, Note_off_c, 0, 70, 0
2, 19536, Note_on_c, 0, 67, 127
2, 19578, Note_off_c, 0, 67, 0
2, 19584, Note_on_c, 0, 69, 127
2, 19626, Note_off_c, 0, 69, 0
2, 19632, Note_on_c, 0, 65, 127
2, 19674, Note_off_c, 0, 65, 0
2, 19680, Note_on_c, 0, 72, 127
2, 19764, Note_off_c, 0, 72, 0
2, 19776, Note_on_c, 0, 69, 127
2, 19818, Note_off_c, 0, 69, 0
2, 19824, Note_on_c, 0, 65, 127
2, 19866, Note_off_c, 0, 65, 0
2, 19872, Note_on_c, 0, 77, 127
2, 19956, Note_off_c, 0, 77, 0
2, 19968, Note_on_c, 0, 69, 127
2, 20010, Note_off_c, 0, 69, 0
2, 20016, Note_on_c, 0, 67, 127
2, 20037, Note_off_c, 0, 67, 0
2, 20040, Note_on_c, 0, 69, 127
2, 20061, Note_off_c, 0, 69, 0
2, 20064, Note_on_c, 0, 70, 127
2, 20085, Note_off_c, 0, 70, 0
2, 20088, Note_on_c, 0, 69, 127
2, 20109, Note_off_c, 0, 69, 0
2, 20112, Note_on_c, 0, 70, 127
2, 20133, Note_off_c, 0, 70, 0
2, 20136, Note_on_c, 0, 69, 127
2, 20157, Note_off_c, 0, 69, 0
2, 20160, Note_on_c, 0, 67, 127
2, 20340, Note_off_c, 0, 67, 0
2, 20352, Note_on_c, 0, 67, 127
2, 20436, Note_off_c, 0, 67, 0
2, 20448, Note_on_c, 0, 65, 127
2, 20490, Note_off_c, 0, 65, 0
2, 20496, Note_on_c, 0, 67, 127
2, 20538, Note_off_c, 0, 67, 0
2, 20544, Note_on_c, 0, 69, 127
2, 20586, Note_off_c, 0, 69, 0
2, 20592, Note_on_c, 0, 67, 127
2, 20634, Note_off_c, 0, 67, 0
2, 20640, Note_on_c, 0, 69, 127
2, 20682, Note_off_c, 0, 69, 0
2, 20688, Note_on_c, 0, 65, 127
2, 20730, Note_off_c, 0, 65, 0
2, 20736, Note_on_c, 0, 67, 127
2, 20820, Note_off_c, 0, 67, 0
2, 20832, Note_on_c, 0, 70, 127
2, 20916, Note_off_c, 0, 70, 0
2, 20928, Note_on_c, 0, 69, 127
2, 20970, Note_off_c, 0, 69, 0
2, 20976, Note_on_c, 0, 67, 127
2, 21018, Note_off_c, 0, 67, 0
2, 21024, Note_on_c, 0, 69, 127
2, 21066, Note_off_c, 0, 69, 0
2, 21072, Note_on_c, 0, 65, 127
2, 21114, Note_off_c, 0, 65, 0
2, 21120, Note_on_c, 0, 67, 127
2, 21162, Note_off_c, 0, 67, 0
2, 21168, Note_on_c, 0, 60, 127
2, 21210, Note_off_c, 0, 60, 0
2, 21216, Note_on_c, 0, 70, 127
2, 21300, Note_off_c, 0, 70, 0
2, 21312, Note_on_c, 0, 69, 127
2, 21354, Note_off_c, 0, 69, 0
2, 21360, Note_on_c, 0, 65, 127
2, 21402, Note_off_c, 0, 65, 0
2, 21408, Note_on_c, 0, 72, 127
2, 21450, Note_off_c, 0, 72, 0
2, 21456, Note_on_c, 0, 70, 127
2, 21477, Note_off_c, 0, 70, 0
2, 21480, Note_on_c, 0, 72, 127
2, 21501, Note_off_c, 0, 72, 0
2, 21504, Note_on_c, 0, 74, 127
2, 21546, Note_off_c, 0, 74, 0
2, 21552, Note_on_c, 0, 72, 127
2, 21594, Note_off_c, 0, 72, 0
2, 21600, Note_on_c, 0, 70, 127
2, 21642, Note_off_c, 0, 70, 0
2, 21648, Note_on_c, 0, 69, 127
2, 21690, Note_off_c, 0, 69, 0
2, 21696, Note_on_c, 0, 67, 127
2, 21717, Note_off_c, 0, 67, 0
2, 21720, Note_on_c, 0, 65, 127
2, 21741, Note_off_c, 0, 65, 0
2, 21744, Note_on_c, 0, 67, 127
2, 21765, Note_off_c, 0, 67, 0
2, 21768, Note_on_c, 0, 69, 127
2, 21789, Note_off_c, 0, 69, 0
2, 21792, Note_on_c, 0, 67, 127
2, 21813, Note_off_c, 0, 67, 0
2, 21816, Note_on_c, 0, 69, 127
2, 21837, Note_off_c, 0, 69, 0
2, 21840, Note_on_c, 0, 70, 127
2, 21861, Note_off_c, 0, 70, 0
2, 21864, Note_on_c, 0, 69, 127
2, 21885, Note_off_c, 0, 69, 0
2, 21888, Note_on_c, 0, 67, 127
2, 21972, Note_off_c, 0, 67, 0
2, 21984, Note_on_c, 0, 65, 127
2, 22026, Note_off_c, 0, 65, 0
2, 22032, Note_on_c, 0, 67, 127
2, 22074, Note_off_c, 0, 67, 0
2, 22080, Note_on_c, 0, 69, 127
2, 22122, Note_off_c, 0, 69, 0
2, 22128, Note_on_c, 0, 67, 127
2, 22170, Note_off_c, 0, 67, 0
2, 22176, Note_on_c, 0, 69, 127
2, 22218, Note_off_c, 0, 69, 0
2, 22224, Note_on_c, 0, 65, 127
2, 22266, Note_off_c, 0, 65, 0
2, 22272, Note_on_c, 0, 67, 127
2, 22356, Note_off_c, 0, 67, 0
2, 22368, Note_on_c, 0, 70, 127
2, 22452, Note_off_c, 0, 70, 0
2, 22464, Note_on_c, 0, 69, 127
2, 22506, Note_off_c, 0, 69, 0
2, 22512, Note_on_c, 0, 67, 127
2, 22554, Note_off_c, 0, 67, 0
2, 22560, Note_on_c, 0, 69, 127
2, 22602, Note_off_c, 0, 69, 0
2, 22608, Note_on_c, 0, 65, 127
2, 22650, Note_off_c, 0, 65, 0
2, 22656, Note_on_c, 0, 67, 127
2, 22698, Note_off_c, 0, 67, 0
2, 22704, Note_on_c, 0, 60, 127
2, 22746, Note_off_c, 0, 60, 0
2, 22752, Note_on_c, 0, 70, 127
2, 22836, Note_off_c, 0, 70, 0
2, 22848, Note_on_c, 0, 69, 127
2, 22890, Note_off_c, 0, 69, 0
2, 22896, Note_on_c, 0, 65, 127
2, 22938, Note_off_c, 0, 65, 0
2, 22944, Note_on_c, 0, 77, 127
2, 22986, Note_off_c, 0, 77, 0
2, 22992, Note_on_c, 0, 72, 127
2, 23034, Note_off_c, 0, 72, 0
2, 23040, Note_on_c, 0, 69, 127
2, 23061, Note_off_c, 0, 69, 0
2, 23064, Note_on_c, 0, 67, 127
2, 23085, Note_off_c, 0, 67, 0
2, 23088, Note_on_c, 0, 69, 127
2, 23109, Note_off_c, 0, 69, 0
2, 23112, Note_on_c, 0, 65, 127
2, 23133, Note_off_c, 0, 65, 0
2, 23136, Note_on_c, 0, 67, 127
2, 23157, Note_off_c, 0, 67, 0
2, 23160, Note_on_c, 0, 65, 127
2, 23181, Note_off_c, 0, 65, 0
2, 23184, Note_on_c, 0, 67, 127
2, 23205, Note_off_c, 0, 67, 0
2, 23208, Note_on_c, 0, 69, 127
2, 23229, Note_off_c, 0, 69, 0
2, 23232, Note_on_c, 0, 65, 127
2, 23412, Note_off_c, 0, 65, 0
2, 23424, Note_on_c, 0, 67, 127
2, 23508, Note_off_c, 0, 67, 0
2, 23520, Note_on_c, 0, 65, 127
2, 23562, Note_off_c, 0, 65, 0
2, 23568, Note_on_c, 0, 67, 127
2, 23610, Note_off_c, 0, 67, 0
2, 23616, Note_on_c, 0, 69, 127
2, 23658, Note_off_c, 0, 69, 0
2, 23664, Note_on_c, 0, 67, 127
2, 23706, Note_off_c, 0, 67, 0
2, 23712, Note_on_c, 0, 69, 127
2, 23754, Note_off_c, 0, 69, 0
2, 23760, Note_on_c, 0, 65, 127
2, 23802, Note_off_c, 0, 65, 0
2, 23808, Note_on_c, 0, 67, 127
2, 23892, Note_off_c, 0, 67, 0
2, 23904, Note_on_c, 0, 70, 127
2, 23988, Note_off_c, 0, 70, 0
2, 24000, Note_on_c, 0, 69, 127
2, 24042, Note_off_c, 0, 69, 0
2, 24048, Note_on_c, 0, 67, 127
2, 24090, Note_off_c, 0, 67, 0
2, 24096, Note_on_c, 0, 69, 127
2, 24138, Note_off_c, 0, 69, 0
2, 24144, Note_on_c, 0, 65, 127
2, 24186, Note_off_c, 0, 65, 0
2, 24192, Note_on_c, 0, 67, 127
2, 24234, Note_off_c, 0, 67, 0
2, 24240, Note_on_c, 0, 60, 127
2, 24282, Note_off_c, 0, 60, 0
2, 24288, Note_on_c, 0, 70, 127
2, 24372, Note_off_c, 0, 70, 0
2, 24384, Note_on_c, 0, 69, 127
2, 24426, Note_off_c, 0, 69, 0
2, 24432, Note_on_c, 0, 65, 127
2, 24474, Note_off_c, 0, 65, 0
2, 24480, Note_on_c, 0, 72, 127
2, 24522, Note_off_c, 0, 72, 0
2, 24528, Note_on_c, 0, 70, 127
2, 24549, Note_off_c, 0, 70, 0
2, 24552, Note_on_c, 0, 72, 127
2, 24573, Note_off_c, 0, 72, 0
2, 24576, Note_on_c, 0, 74, 127
2, 24618, Note_off_c, 0, 74, 0
2, 24624, Note_on_c, 0, 72, 127
2, 24666, Note_off_c, 0, 72, 0
2, 24672, Note_on_c, 0, 70, 127
2, 24714, Note_off_c, 0, 70, 0
2, 24720, Note_on_c, 0, 69, 127
2, 24762, Note_off_c, 0, 69, 0
2, 24768, Note_on_c, 0, 67, 127
2, 24789, Note_off_c, 0, 67, 0
2, 24792, Note_on_c, 0, 65, 127
2, 24813, Note_off_c, 0, 65, 0
2, 24816, Note_on_c, 0, 67, 127
2, 24837, Note_off_c, 0, 67, 0
2, 24840, Note_on_c, 0, 69, 127
2, 24861, Note_off_c, 0, 69, 0
2, 24864, Note_on_c, 0, 67, 127
2, 24885, Note_off_c, 0, 67, 0
2, 24888, Note_on_c, 0, 69, 127
2, 24909, Note_off_c, 0, 69, 0
2, 24912, Note_on_c, 0, 70, 127
2, 24933, Note_off_c, 0, 70, 0
2, 24936, Note_on_c, 0, 69, 127
2, 24957, Note_off_c, 0, 69, 0
2, 24960, Note_on_c, 0, 67, 127
2, 25044, Note_off_c, 0, 67, 0
2, 25056, Note_on_c, 0, 65, 127
2, 25098, Note_off_c, 0, 65, 0
2, 25104, Note_on_c, 0, 67, 127
2, 25146, Note_off_c, 0, 67, 0
2, 25152, Note_on_c, 0, 69, 127
2, 25194, Note_off_c, 0, 69, 0
2, 25200, Note_on_c, 0, 67, 127
2, 25242, Note_off_c, 0, 67, 0
2, 25248, Note_on_c, 0, 69, 127
2, 25290, Note_off_c, 0, 69, 0
2, 25296, Note_on_c, 0, 65, 127
2, 25338, Note_off_c, 0, 65, 0
2, 25344, Note_on_c, 0, 67, 127
2, 25428, Note_off_c, 0, 67, 0
2, 25440, Note_on_c, 0, 70, 127
2, 25524, Note_off_c, 0, 70, 0
2, 25536, Note_on_c, 0, 69, 127
2, 25578, Note_off_c, 0, 69, 0
2, 25584, Note_on_c, 0, 67, 127
2, 25626, Note_off_c, 0, 67, 0
2, 25632, Note_on_c, 0, 69, 127
2, 25674, Note_off_c, 0, 69, 0
2, 25680, Note_on_c, 0, 65, 127
2, 25722, Note_off_c, 0, 65, 0
2, 25728, Note_on_c, 0, 67, 127
2, 25770, Note_off_c, 0, 67, 0
2, 25776, Note_on_c, 0, 60, 127
2, 25818, Note_off_c, 0, 60, 0
2, 25824, Note_on_c, 0, 70, 127
2, 25908, Note_off_c, 0, 70, 0
2, 25920, Note_on_c, 0, 69, 127
2, 25962, Note_off_c, 0, 69, 0
2, 25968, Note_on_c, 0, 65, 127
2, 26010, Note_off_c, 0, 65, 0
2, 26016, Note_on_c, 0, 77, 127
2, 26058, Note_off_c, 0, 77, 0
2, 26064, Note_on_c, 0, 72, 127
2, 26106, Note_off_c, 0, 72, 0
2, 26112, Note_on_c, 0, 69, 127
2, 26133, Note_off_c, 0, 69, 0
2, 26136, Note_on_c, 0, 67, 127
2, 26157, Note_off_c, 0, 67, 0
2, 26160, Note_on_c, 0, 69, 127
2, 26181, Note_off_c, 0, 69, 0
2, 26184, Note_on_c, 0, 65, 127
2, 26205, Note_off_c, 0, 65, 0
2, 26208, Note_on_c, 0, 67, 127
2, 26229, Note_off_c, 0, 67, 0
2, 26232, Note_on_c, 0, 65, 127
2, 26253, Note_off_c, 0, 65, 0
2, 26256, Note_on_c, 0, 67, 127
2, 26277, Note_off_c, 0, 67, 0
2, 26280, Note_on_c, 0, 69, 127
2, 26301, Note_off_c, 0, 69, 0
2, 26304, Note_on_c, 0, 65, 127
2, 26484, Note_off_c, 0, 65, 0
2, 26784, Time_signature, 3, 2, 96, 8
2, 26880, Tempo, 428571
2, 26880, Note_on_c, 0, 53, 127
2, 26964, Note_off_c, 0, 53, 0
2, 26976, Note_on_c, 0, 53, 127
2, 27018, Note_off_c, 0, 53, 0
2, 27024, Note_on_c, 0, 53, 127
2, 27066, Note_off_c, 0, 53, 0
2, 27072, Note_on_c, 0, 53, 127
2, 27114, Note_off_c, 0, 53, 0
2, 27120, Note_on_c, 0, 53, 127
2, 27162, Note_off_c, 0, 53, 0
2, 27168, Note_on_c, 0, 53, 127
2, 27252, Note_off_c, 0, 53, 0
2, 27456, Note_on_c, 0, 53, 127
2, 27540, Note_off_c, 0, 53, 0
2, 27552, Note_on_c, 0, 53, 127
2, 27594, Note_off_c, 0, 53, 0
2, 27600, Note_on_c, 0, 53, 127
2, 27642, Note_off_c, 0, 53, 0
2, 27648, Note_on_c, 0, 53, 127
2, 27690, Note_off_c, 0, 53, 0
2, 27696, Note_on_c, 0, 53, 127
2, 27738, Note_off_c, 0, 53, 0
2, 27744, Note_on_c, 0, 53, 127
2, 27828, Note_off_c, 0, 53, 0
2, 28032, Note_on_c, 0, 60, 127
2, 28116, Note_off_c, 0, 60, 0
2, 28128, Note_on_c, 0, 60, 127
2, 28170, Note_off_c, 0, 60, 0
2, 28176, Note_on_c, 0, 60, 127
2, 28218, Note_off_c, 0, 60, 0
2, 28224, Note_on_c, 0, 60, 127
2, 28266, Note_off_c, 0, 60, 0
2, 28272, Note_on_c, 0, 60, 127
2, 28314, Note_off_c, 0, 60, 0
2, 28320, Note_on_c, 0, 60, 127
2, 28404, Note_off_c, 0, 60, 0
2, 28608, Note_on_c, 0, 60, 127
2, 28692, Note_off_c, 0, 60, 0
2, 28704, Note_on_c, 0, 60, 127
2, 28746, Note_off_c, 0, 60, 0
2, 28752, Note_on_c, 0, 60, 127
2, 28794, Note_off_c, 0, 60, 0
2, 28800, Note_on_c, 0, 60, 127
2, 28842, Note_off_c, 0, 60, 0
2, 28848, Note_on_c, 0, 60, 127
2, 28890, Note_off_c, 0, 60, 0
2, 28896, Note_on_c, 0, 60, 127
2, 28980, Note_off_c, 0, 60, 0
2, 29184, Note_on_c, 0, 67, 127
2, 29268, Note_off_c, 0, 67, 0
2, 29280, Note_on_c, 0, 67, 127
2, 29322, Note_off_c, 0, 67, 0
2, 29328, Note_on_c, 0, 67, 127
2, 29370, Note_off_c, 0, 67, 0
2, 29376, Note_on_c, 0, 67, 127
2, 29418, Note_off_c, 0, 67, 0
2, 29424, Note_on_c, 0, 67, 127
2, 29466, Note_off_c, 0, 67, 0
2, 29472, Note_on_c, 0, 67, 127
2, 29556, Note_off_c, 0, 67, 0
2, 29760, Note_on_c, 0, 72, 127
2, 29802, Note_off_c, 0, 72, 0
2, 29808, Note_on_c, 0, 71, 127
2, 29850, Note_off_c, 0, 71, 0
2, 29856, Note_on_c, 0, 71, 127
2, 29988, Note_off_c, 0, 71, 0
2, 30000, Note_on_c, 0, 72, 127
2, 30042, Note_off_c, 0, 72, 0
2, 30048, Note_on_c, 0, 72, 127
2, 30324, Note_off_c, 0, 72, 0
2, 30336, Note_on_c, 0, 53, 127
2, 30420, Note_off_c, 0, 53, 0
2, 30432, Note_on_c, 0, 53, 127
2, 30474, Note_off_c, 0, 53, 0
2, 30480, Note_on_c, 0, 53, 127
2, 30522, Note_off_c, 0, 53, 0
2, 30528, Note_on_c, 0, 53, 127
2, 30570, Note_off_c, 0, 53, 0
2, 30576, Note_on_c, 0, 53, 127
2, 30618, Note_off_c, 0, 53, 0
2, 30624, Note_on_c, 0, 53, 127
2, 30708, Note_off_c, 0, 53, 0
2, 30912, Note_on_c, 0, 53, 127
2, 30996, Note_off_c, 0, 53, 0
2, 31008, Note_on_c, 0, 53, 127
2, 31050, Note_off_c, 0, 53, 0
2, 31056, Note_on_c, 0, 53, 127
2, 31098, Note_off_c, 0, 53, 0
2, 31104, Note_on_c, 0, 53, 127
2, 31146, Note_off_c, 0, 53, 0
2, 31152, Note_on_c, 0, 53, 127
2, 31194, Note_off_c, 0, 53, 0
2, 31200, Note_on_c, 0, 53, 127
2, 31284, Note_off_c, 0, 53, 0
2, 31488, Note_on_c, 0, 60, 127
2, 31572, Note_off_c, 0, 60, 0
2, 31584, Note_on_c, 0, 60, 127
2, 31626, Note_off_c, 0, 60, 0
2, 31632, Note_on_c, 0, 60, 127
2, 31674, Note_off_c, 0, 60, 0
2, 31680, Note_on_c, 0, 60, 127
2, 31722, Note_off_c, 0, 60, 0
2, 31728, Note_on_c, 0, 60, 127
2, 31770, Note_off_c, 0, 60, 0
2, 31776, Note_on_c, 0, 60, 127
2, 31860, Note_off_c, 0, 60, 0
2, 32064, Note_on_c, 0, 60, 127
2, 32148, Note_off_c, 0, 60, 0
2, 32160, Note_on_c, 0, 60, 127
2, 32202, Note_off_c, 0, 60, 0
2, 32208, Note_on_c, 0, 60, 127
2, 32250, Note_off_c, 0, 60, 0
2, 32256, Note_on_c, 0, 60, 127
2, 32298, Note_off_c, 0, 60, 0
2, 32304, Note_on_c, 0, 60, 127
2, 32346, Note_off_c, 0, 60, 0
2, 32352, Note_on_c, 0, 60, 127
2, 32436, Note_off_c, 0, 60, 0
2, 32640, Note_on_c, 0, 67, 127
2, 32724, Note_off_c, 0, 67, 0
2, 32736, Note_on_c, 0, 67, 127
2, 32778, Note_off_c, 0, 67, 0
2, 32784, Note_on_c, 0, 67, 127
2, 32826, Note_off_c, 0, 67, 0
2, 32832, Note_on_c, 0, 67, 127
2, 32874, Note_off_c, 0, 67, 0
2, 32880, Note_on_c, 0, 67, 127
2, 32922, Note_off_c, 0, 67, 0
2, 32928, Note_on_c, 0, 67, 127
2, 33012, Note_off_c, 0, 67, 0
2, 33216, Note_on_c, 0, 72, 127
2, 33258, Note_off_c, 0, 72, 0
2, 33264, Note_on_c, 0, 71, 127
2, 33306, Note_off_c, 0, 71, 0
2, 33312, Note_on_c, 0, 71, 127
2, 33444, Note_off_c, 0, 71, 0
2, 33456, Note_on_c, 0, 72, 127
2, 33498, Note_off_c, 0, 72, 0
2, 33504, Note_on_c, 0, 72, 127
2, 33780, Note_off_c, 0, 72, 0
2, 33792, Note_on_c, 0, 60, 127
2, 33876, Note_off_c, 0, 60, 0
2, 33888, Note_on_c, 0, 60, 127
2, 33930, Note_off_c, 0, 60, 0
2, 33936, Note_on_c, 0, 60, 127
2, 33978, Note_off_c, 0, 60, 0
2, 33984, Note_on_c, 0, 60, 127
2, 34026, Note_off_c, 0, 60, 0
2, 34032, Note_on_c, 0, 60, 127
2, 34074, Note_off_c, 0, 60, 0
2, 34080, Note_on_c, 0, 60, 127
2, 34164, Note_off_c, 0, 60, 0
2, 34368, Note_on_c, 0, 60, 127
2, 34452, Note_off_c, 0, 60, 0
2, 34464, Note_on_c, 0, 60, 127
2, 34506, Note_off_c, 0, 60, 0
2, 34512, Note_on_c, 0, 60, 127
2, 34554, Note_off_c, 0, 60, 0
2, 34560, Note_on_c, 0, 60, 127
2, 34602, Note_off_c, 0, 60, 0
2, 34608, Note_on_c, 0, 60, 127
2, 34650, Note_off_c, 0, 60, 0
2, 34656, Note_on_c, 0, 60, 127
2, 34740, Note_off_c, 0, 60, 0
2, 34944, Note_on_c, 0, 67, 127
2, 35028, Note_off_c, 0, 67, 0
2, 35040, Note_on_c, 0, 67, 127
2, 35082, Note_off_c, 0, 67, 0
2, 35088, Note_on_c, 0, 67, 127
2, 35130, Note_off_c, 0, 67, 0
2, 35136, Note_on_c, 0, 67, 127
2, 35178, Note_off_c, 0, 67, 0
2, 35184, Note_on_c, 0, 67, 127
2, 35226, Note_off_c, 0, 67, 0
2, 35232, Note_on_c, 0, 67, 127
2, 35316, Note_off_c, 0, 67, 0
2, 35520, Note_on_c, 0, 67, 127
2, 35604, Note_off_c, 0, 67, 0
2, 35616, Note_on_c, 0, 67, 127
2, 35658, Note_off_c, 0, 67, 0
2, 35664, Note_on_c, 0, 67, 127
2, 35706, Note_off_c, 0, 67, 0
2, 35712, Note_on_c, 0, 67, 127
2, 35754, Note_off_c, 0, 67, 0
2, 35760, Note_on_c, 0, 67, 127
2, 35802, Note_off_c, 0, 67, 0
2, 35808, Note_on_c, 0, 67, 127
2, 35892, Note_off_c, 0, 67, 0
2, 36096, Note_on_c, 0, 72, 127
2, 36180, Note_off_c, 0, 72, 0
2, 36192, Note_on_c, 0, 72, 127
2, 36234, Note_off_c, 0, 72, 0
2, 36240, Note_on_c, 0, 72, 127
2, 36282, Note_off_c, 0, 72, 0
2, 36288, Note_on_c, 0, 72, 127
2, 36330, Note_off_c, 0, 72, 0
2, 36336, Note_on_c, 0, 72, 127
2, 36378, Note_off_c, 0, 72, 0
2, 36384, Note_on_c, 0, 72, 127
2, 36564, Note_off_c, 0, 72, 0
2, 36576, Note_on_c, 0, 70, 127
2, 36660, Note_off_c, 0, 70, 0
2, 36672, Note_on_c, 0, 69, 127
2, 36756, Note_off_c, 0, 69, 0
2, 36768, Note_on_c, 0, 70, 127
2, 36810, Note_off_c, 0, 70, 0
2, 36816, Note_on_c, 0, 69, 127
2, 36858, Note_off_c, 0, 69, 0
2, 36864, Note_on_c, 0, 67, 127
2, 36906, Note_off_c, 0, 67, 0
2, 36912, Note_on_c, 0, 69, 127
2, 36954, Note_off_c, 0, 69, 0
2, 36960, Note_on_c, 0, 65, 127
2, 37236, Note_off_c, 0, 65, 0
2, 37248, Note_on_c, 0, 60, 127
2, 37332, Note_off_c, 0, 60, 0
2, 37344, Note_on_c, 0, 60, 127
2, 37386, Note_off_c, 0, 60, 0
2, 37392, Note_on_c, 0, 60, 127
2, 37434, Note_off_c, 0, 60, 0
2, 37440, Note_on_c, 0, 60, 127
2, 37482, Note_off_c, 0, 60, 0
2, 37488, Note_on_c, 0, 60, 127
2, 37530, Note_off_c, 0, 60, 0
2, 37536, Note_on_c, 0, 60, 127
2, 37620, Note_off_c, 0, 60, 0
2, 37824, Note_on_c, 0, 60, 127
2, 37908, Note_off_c, 0, 60, 0
2, 37920, Note_on_c, 0, 60, 127
2, 37962, Note_off_c, 0, 60, 0
2, 37968, Note_on_c, 0, 60, 127
2, 38010, Note_off_c, 0, 60, 0
2, 38016, Note_on_c, 0, 60, 127
2, 38058, Note_off_c, 0, 60, 0
2, 38064, Note_on_c, 0, 60, 127
2, 38106, Note_off_c, 0, 60, 0
2, 38112, Note_on_c, 0, 60, 127
2, 38196, Note_off_c, 0, 60, 0
2, 38400, Note_on_c, 0, 67, 127
2, 38484, Note_off_c, 0, 67, 0
2, 38496, Note_on_c, 0, 67, 127
2, 38538, Note_off_c, 0, 67, 0
2, 38544, Note_on_c, 0, 67, 127
2, 38586, Note_off_c, 0, 67, 0
2, 38592, Note_on_c, 0, 67, 127
2, 38634, Note_off_c, 0, 67, 0
2, 38640, Note_on_c, 0, 67, 127
2, 38682, Note_off_c, 0, 67, 0
2, 38688, Note_on_c, 0, 67, 127
2, 38772, Note_off_c, 0, 67, 0
2, 38976, Note_on_c, 0, 67, 127
2, 39060, Note_off_c, 0, 67, 0
2, 39072, Note_on_c, 0, 67, 127
2, 39114, Note_off_c, 0, 67, 0
2, 39120, Note_on_c, 0, 67, 127
2, 39162, Note_off_c, 0, 67, 0
2, 39168, Note_on_c, 0, 67, 127
2, 39210, Note_off_c, 0, 67, 0
2, 39216, Note_on_c, 0, 67, 127
2, 39258, Note_off_c, 0, 67, 0
2, 39264, Note_on_c, 0, 67, 127
2, 39348, Note_off_c, 0, 67, 0
2, 39552, Note_on_c, 0, 72, 127
2, 39636, Note_off_c, 0, 72, 0
2, 39648, Note_on_c, 0, 72, 127
2, 39690, Note_off_c, 0, 72, 0
2, 39696, Note_on_c, 0, 72, 127
2, 39738, Note_off_c, 0, 72, 0
2, 39744, Note_on_c, 0, 72, 127
2, 39786, Note_off_c, 0, 72, 0
2, 39792, Note_on_c, 0, 72, 127
2, 39834, Note_off_c, 0, 72, 0
2, 39840, Note_on_c, 0, 72, 127
2, 40020, Note_off_c, 0, 72, 0
2, 40032, Note_on_c, 0, 70, 127
2, 40116, Note_off_c, 0, 70, 0
2, 40128, Note_on_c, 0, 69, 127
2, 40212, Note_off_c, 0, 69, 0
2, 40224, Note_on_c, 0, 70, 127
2, 40266, Note_off_c, 0, 70, 0
2, 40272, Note_on_c, 0, 69, 127
2, 40314, Note_off_c, 0, 69, 0
2, 40320, Note_on_c, 0, 67, 127
2, 40362, Note_off_c, 0, 67, 0
2, 40368, Note_on_c, 0, 69, 127
2, 40410, Note_off_c, 0, 69, 0
2, 40416, Note_on_c, 0, 65, 127
2, 40692, Note_off_c, 0, 65, 0
2, 40692, End_track
3, 0, Start_track
3, 0, Title_t, "Corno II"
3, 0, Control_c, 1, 0, 0
3, 0, Program_c, 1, 60
3, 0, Time_signature, 3, 2, 96, 8
3, 0, Tempo, 461538
3, 96, Tempo, 428571
3, 384, Note_on_c, 1, 53, 127
3, 468, Note_off_c, 1, 53, 0
3, 480, Note_on_c, 1, 53, 127
3, 522, Note_off_c, 1, 53, 0
3, 528, Note_on_c, 1, 53, 127
3, 570, Note_off_c, 1, 53, 0
3, 576, Note_on_c, 1, 53, 127
3, 618, Note_off_c, 1, 53, 0
3, 624, Note_on_c, 1, 53, 127
3, 666, Note_off_c, 1, 53, 0
3, 672, Note_on_c, 1, 53, 127
3, 756, Note_off_c, 1, 53, 0
3, 960, Note_on_c, 1, 53, 127
3, 1044, Note_off_c, 1, 53, 0
3, 1056, Note_on_c, 1, 53, 127
3, 1098, Note_off_c, 1, 53, 0
3, 1104, Note_on_c, 1, 53, 127
3, 1146, Note_off_c, 1, 53, 0
3, 1152, Note_on_c, 1, 53, 127
3, 1194, Note_off_c, 1, 53, 0
3, 1200, Note_on_c, 1, 53, 127
3, 1242, Note_off_c, 1, 53, 0
3, 1248, Note_on_c, 1, 60, 127
3, 1332, Note_off_c, 1, 60, 0
3, 1536, Note_on_c, 1, 60, 127
3, 1620, Note_off_c, 1, 60, 0
3, 1632, Note_on_c, 1, 60, 127
3, 1674, Note_off_c, 1, 60, 0
3, 1680, Note_on_c, 1, 60, 127
3, 1722, Note_off_c, 1, 60, 0
3, 1728, Note_on_c, 1, 60, 127
3, 1770, Note_off_c, 1, 60, 0
3, 1776, Note_on_c, 1, 60, 127
3, 1818, Note_off_c, 1, 60, 0
3, 1824, Note_on_c, 1, 60, 127
3, 1908, Note_off_c, 1, 60, 0
3, 2112, Note_on_c, 1, 60, 127
3, 2196, Note_off_c, 1, 60, 0
3, 2208, Note_on_c, 1, 60, 127
3, 2250, Note_off_c, 1, 60, 0
3, 2256, Note_on_c, 1, 60, 127
3, 2298, Note_off_c, 1, 60, 0
3, 2304, Note_on_c, 1, 60, 127
3, 2346, Note_off_c, 1, 60, 0
3, 2352, Note_on_c, 1, 60, 127
3, 2394, Note_off_c, 1, 60, 0
3, 2400, Note_on_c, 1, 67, 127
3, 2484, Note_off_c, 1, 67, 0
3, 2688, Note_on_c, 1, 67, 127
3, 2772, Note_off_c, 1, 67, 0
3, 2784, Note_on_c, 1, 67, 127
3, 2826, Note_off_c, 1, 67, 0
3, 2832, Note_on_c, 1, 67, 127
3, 2874, Note_off_c, 1, 67, 0
3, 2880, Note_on_c, 1, 67, 127
3, 2922, Note_off_c, 1, 67, 0
3, 2928, Note_on_c, 1, 67, 127
3, 2970, Note_off_c, 1, 67, 0
3, 2976, Note_on_c, 1, 69, 127
3, 3060, Note_off_c, 1, 69, 0
3, 3072, Note_on_c, 1, 67, 127
3, 3114, Note_off_c, 1, 67, 0
3, 3120, Note_on_c, 1, 67, 127
3, 3162, Note_off_c, 1, 67, 0
3, 3168, Note_on_c, 1, 67, 127
3, 3210, Note_off_c, 1, 67, 0
3, 3216, Note_on_c, 1, 67, 127
3, 3258, Note_off_c, 1, 67, 0
3, 3264, Note_on_c, 1, 67, 127
3, 3540, Note_off_c, 1, 67, 0
3, 3840, Note_on_c, 1, 53, 127
3, 3924, Note_off_c, 1, 53, 0
3, 3936, Note_on_c, 1, 53, 127
3, 3978, Note_off_c, 1, 53, 0
3, 3984, Note_on_c, 1, 53, 127
3, 4026, Note_off_c, 1, 53, 0
3, 4032, Note_on_c, 1, 53, 127
3, 4074, Note_off_c, 1, 53, 0
3, 4080, Note_on_c, 1, 53, 127
3, 4122, Note_off_c, 1, 53, 0
3, 4128, Note_on_c, 1, 53, 127
3, 4212, Note_off_c, 1, 53, 0
3, 4416, Note_on_c, 1, 53, 127
3, 4500, Note_off_c, 1, 53, 0
3, 4512, Note_on_c, 1, 53, 127
3, 4554, Note_off_c, 1, 53, 0
3, 4560, Note_on_c, 1, 53, 127
3, 4602, Note_off_c, 1, 53, 0
3, 4608, Note_on_c, 1, 53, 127
3, 4650, Note_off_c, 1, 53, 0
3, 4656, Note_on_c, 1, 53, 127
3, 4698, Note_off_c, 1, 53, 0
3, 4704, Note_on_c, 1, 60, 127
3, 4788, Note_off_c, 1, 60, 0
3, 4992, Note_on_c, 1, 60, 127
3, 5076, Note_off_c, 1, 60, 0
3, 5088, Note_on_c, 1, 60, 127
3, 5130, Note_off_c, 1, 60, 0
3, 5136, Note_on_c, 1, 60, 127
3, 5178, Note_off_c, 1, 60, 0
3, 5184, Note_on_c, 1, 60, 127
3, 5226, Note_off_c, 1, 60, 0
3, 5232, Note_on_c, 1, 60, 127
3, 5274, Note_off_c, 1, 60, 0
3, 5280, Note_on_c, 1, 60, 127
3, 5364, Note_off_c, 1, 60, 0
3, 5568, Note_on_c, 1, 60, 127
3, 5652, Note_off_c, 1, 60, 0
3, 5664, Note_on_c, 1, 60, 127
3, 5706, Note_off_c, 1, 60, 0
3, 5712, Note_on_c, 1, 60, 127
3, 5754, Note_off_c, 1, 60, 0
3, 5760, Note_on_c, 1, 60, 127
3, 5802, Note_off_c, 1, 60, 0
3, 5808, Note_on_c, 1, 60, 127
3, 5850, Note_off_c, 1, 60, 0
3, 5856, Note_on_c, 1, 67, 127
3, 5940, Note_off_c, 1, 67, 0
3, 6144, Note_on_c, 1, 67, 127
3, 6228, Note_off_c, 1, 67, 0
3, 6240, Note_on_c, 1, 67, 127
3, 6282, Note_off_c, 1, 67, 0
3, 6288, Note_on_c, 1, 67, 127
3, 6330, Note_off_c, 1, 67, 0
3, 6336, Note_on_c, 1, 67, 127
3, 6378, Note_off_c, 1, 67, 0
3, 6384, Note_on_c, 1, 67, 127
3, 6426, Note_off_c, 1, 67, 0
3, 6432, Note_on_c, 1, 69, 127
3, 6516, Note_off_c, 1, 69, 0
3, 6528, Note_on_c, 1, 67, 127
3, 6570, Note_off_c, 1, 67, 0
3, 6576, Note_on_c, 1, 67, 127
3, 6618, Note_off_c, 1, 67, 0
3, 6624, Note_on_c, 1, 67, 127
3, 6666, Note_off_c, 1, 67, 0
3, 6672, Note_on_c, 1, 67, 127
3, 6714, Note_off_c, 1, 67, 0
3, 6720, Note_on_c, 1, 67, 127
3, 6996, Note_off_c, 1, 67, 0
3, 7296, Note_on_c, 1, 60, 127
3, 7380, Note_off_c, 1, 60, 0
3, 7392, Note_on_c, 1, 60, 127
3, 7434, Note_off_c, 1, 60, 0
3, 7440, Note_on_c, 1, 60, 127
3, 7482, Note_off_c, 1, 60, 0
3, 7488, Note_on_c, 1, 60, 127
3, 7530, Note_off_c, 1, 60, 0
3, 7536, Note_on_c, 1, 60, 127
3, 7578, Note_off_c, 1, 60, 0
3, 7584, Note_on_c, 1, 60, 127
3, 7668, Note_off_c, 1, 60, 0
3, 7872, Note_on_c, 1, 60, 127
3, 7956, Note_off_c, 1, 60, 0
3, 7968, Note_on_c, 1, 60, 127
3, 8010, Note_off_c, 1, 60, 0
3, 8016, Note_on_c, 1, 60, 127
3, 8058, Note_off_c, 1, 60, 0
3, 8064, Note_on_c, 1, 60, 127
3, 8106, Note_off_c, 1, 60, 0
3, 8112, Note_on_c, 1, 60, 127
3, 8154, Note_off_c, 1, 60, 0
3, 8160, Note_on_c, 1, 67, 127
3, 8244, Note_off_c, 1, 67, 0
3, 8448, Note_on_c, 1, 67, 127
3, 8532, Note_off_c, 1, 67, 0
3, 8544, Note_on_c, 1, 67, 127
3, 8586, Note_off_c, 1, 67, 0
3, 8592, Note_on_c, 1, 67, 127
3, 8634, Note_off_c, 1, 67, 0
3, 8640, Note_on_c, 1, 67, 127
3, 8682, Note_off_c, 1, 67, 0
3, 8688, Note_on_c, 1, 67, 127
3, 8730, Note_off_c, 1, 67, 0
3, 8736, Note_on_c, 1, 67, 127
3, 8820, Note_off_c, 1, 67, 0
3, 9024, Note_on_c, 1, 67, 127
3, 9108, Note_off_c, 1, 67, 0
3, 9120, Note_on_c, 1, 67, 127
3, 9162, Note_off_c, 1, 67, 0
3, 9168, Note_on_c, 1, 67, 127
3, 9210, Note_off_c, 1, 67, 0
3, 9216, Note_on_c, 1, 67, 127
3, 9258, Note_off_c, 1, 67, 0
3, 9264, Note_on_c, 1, 67, 127
3, 9306, Note_off_c, 1, 67, 0
3, 9312, Note_on_c, 1, 67, 127
3, 9396, Note_off_c, 1, 67, 0
3, 9600, Note_on_c, 1, 67, 127
3, 9684, Note_off_c, 1, 67, 0
3, 9696, Note_on_c, 1, 60, 127
3, 9738, Note_off_c, 1, 60, 0
3, 9744, Note_on_c, 1, 60, 127
3, 9786, Note_off_c, 1, 60, 0
3, 9792, Note_on_c, 1, 60, 127
3, 9834, Note_off_c, 1, 60, 0
3, 9840, Note_on_c, 1, 60, 127
3, 9882, Note_off_c, 1, 60, 0
3, 9888, Note_on_c, 1, 65, 127
3, 9972, Note_off_c, 1, 65, 0
3, 9984, Note_on_c, 1, 60, 127
3, 10026, Note_off_c, 1, 60, 0
3, 10032, Note_on_c, 1, 60, 127
3, 10074, Note_off_c, 1, 60, 0
3, 10080, Note_on_c, 1, 60, 127
3, 10122, Note_off_c, 1, 60, 0
3, 10128, Note_on_c, 1, 60, 127
3, 10170, Note_off_c, 1, 60, 0
3, 10176, Note_on_c, 1, 57, 127
3, 10452, Note_off_c, 1, 57, 0
3, 10752, Note_on_c, 1, 60, 127
3, 10836, Note_off_c, 1, 60, 0
3, 10848, Note_on_c, 1, 60, 127
3, 10890, Note_off_c, 1, 60, 0
3, 10896, Note_on_c, 1, 60, 127
3, 10938, Note_off_c, 1, 60, 0
3, 10944, Note_on_c, 1, 60, 127
3, 10986, Note_off_c, 1, 60, 0
3, 10992, Note_on_c, 1, 60, 127
3, 11034, Note_off_c, 1, 60, 0
3, 11040, Note_on_c, 1, 60, 127
3, 11124, Note_off_c, 1, 60, 0
3, 11328, Note_on_c, 1, 60, 127
3, 11412, Note_off_c, 1, 60, 0
3, 11424, Note_on_c, 1, 60, 127
3, 11466, Note_off_c, 1, 60, 0
3, 11472, Note_on_c, 1, 60, 127
3, 11514, Note_off_c, 1, 60, 0
3, 11520, Note_on_c, 1, 60, 127
3, 11562, Note_off_c, 1, 60, 0
3, 11568, Note_on_c, 1, 60, 127
3, 11610, Note_off_c, 1, 60, 0
3, 11616, Note_on_c, 1, 67, 127
3, 11700, Note_off_c, 1, 67, 0
3, 11904, Note_on_c, 1, 67, 127
3, 11988, Note_off_c, 1, 67, 0
3, 12000, Note_on_c, 1, 67, 127
3, 12042, Note_off_c, 1, 67, 0
3, 12048, Note_on_c, 1, 67, 127
3, 12090, Note_off_c, 1, 67, 0
3, 12096, Note_on_c, 1, 67, 127
3, 12138, Note_off_c, 1, 67, 0
3, 12144, Note_on_c, 1, 67, 127
3, 12186, Note_off_c, 1, 67, 0
3, 12192, Note_on_c, 1, 67, 127
3, 12276, Note_off_c, 1, 67, 0
3, 12480, Note_on_c, 1, 67, 127
3, 12564, Note_off_c, 1, 67, 0
3, 12576, Note_on_c, 1, 67, 127
3, 12618, Note_off_c, 1, 67, 0
3, 12624, Note_on_c, 1, 67, 127
3, 12666, Note_off_c, 1, 67, 0
3, 12672, Note_on_c, 1, 67, 127
3, 12714, Note_off_c, 1, 67, 0
3, 12720, Note_on_c, 1, 67, 127
3, 12762, Note_off_c, 1, 67, 0
3, 12768, Note_on_c, 1, 67, 127
3, 12852, Note_off_c, 1, 67, 0
3, 13056, Note_on_c, 1, 67, 127
3, 13140, Note_off_c, 1, 67, 0
3, 13152, Note_on_c, 1, 60, 127
3, 13194, Note_off_c, 1, 60, 0
3, 13200, Note_on_c, 1, 60, 127
3, 13242, Note_off_c, 1, 60, 0
3, 13248, Note_on_c, 1, 60, 127
3, 13290, Note_off_c, 1, 60, 0
3, 13296, Note_on_c, 1, 60, 127
3, 13338, Note_off_c, 1, 60, 0
3, 13344, Note_on_c, 1, 65, 127
3, 13428, Note_off_c, 1, 65, 0
3, 13440, Note_on_c, 1, 60, 127
3, 13482, Note_off_c, 1, 60, 0
3, 13488, Note_on_c, 1, 60, 127
3, 13530, Note_off_c, 1, 60, 0
3, 13536, Note_on_c, 1, 60, 127
3, 13578, Note_off_c, 1, 60, 0
3, 13584, Note_on_c, 1, 60, 127
3, 13626, Note_off_c, 1, 60, 0
3, 13632, Note_on_c, 1, 57, 127
3, 13908, Note_off_c, 1, 57, 0
3, 14112, Time_signature, 2, 2, 96, 8
3, 14208, Tempo, 500000
3, 14208, Note_on_c, 1, 69, 127
3, 14292, Note_off_c, 1, 69, 0
3, 14304, Note_on_c, 1, 70, 127
3, 14346, Note_off_c, 1, 70, 0
3, 14352, Note_on_c, 1, 69, 127
3, 14394, Note_off_c, 1, 69, 0
3, 14400, Note_on_c, 1, 67, 127
3, 14442, Note_off_c, 1, 67, 0
3, 14448, Note_on_c, 1, 65, 127
3, 14490, Note_off_c, 1, 65, 0
3, 14496, Note_on_c, 1, 67, 127
3, 14538, Note_off_c, 1, 67, 0
3, 14544, Note_on_c, 1, 60, 127
3, 14586, Note_off_c, 1, 60, 0
3, 14592, Note_on_c, 1, 65, 127
3, 14676, Note_off_c, 1, 65, 0
3, 14688, Note_on_c, 1, 69, 127
3, 14772, Note_off_c, 1, 69, 0
3, 14784, Note_on_c, 1, 67, 127
3, 14826, Note_off_c, 1, 67, 0
3, 14832, Note_on_c, 1, 65, 127
3, 14874, Note_off_c, 1, 65, 0
3, 14880, Note_on_c, 1, 67, 127
3, 14922, Note_off_c, 1, 67, 0
3, 14928, Note_on_c, 1, 60, 127
3, 14970, Note_off_c, 1, 60, 0
3, 14976, Note_on_c, 1, 65, 127
3, 15060, Note_off_c, 1, 65, 0
3, 15072, Note_on_c, 1, 69, 127
3, 15114, Note_off_c, 1, 69, 0
3, 15120, Note_on_c, 1, 65, 127
3, 15162, Note_off_c, 1, 65, 0
3, 15168, Note_on_c, 1, 72, 127
3, 15252, Note_off_c, 1, 72, 0
3, 15264, Note_on_c, 1, 69, 127
3, 15306, Note_off_c, 1, 69, 0
3, 15312, Note_on_c, 1, 65, 127
3, 15354, Note_off_c, 1, 65, 0
3, 15360, Note_on_c, 1, 60, 127
3, 15381, Note_off_c, 1, 60, 0
3, 15384, Note_on_c, 1, 57, 127
3, 15405, Note_off_c, 1, 57, 0
3, 15408, Note_on_c, 1, 60, 127
3, 15429, Note_off_c, 1, 60, 0
3, 15432, Note_on_c, 1, 65, 127
3, 15453, Note_off_c, 1, 65, 0
3, 15456, Note_on_c, 1, 67, 127
3, 15498, Note_off_c, 1, 67, 0
3, 15504, Note_on_c, 1, 65, 127
3, 15546, Note_off_c, 1, 65, 0
3, 15552, Note_on_c, 1, 60, 127
3, 15594, Note_off_c, 1, 60, 0
3, 15600, Note_on_c, 1, 60, 127
3, 15621, Note_off_c, 1, 60, 0
3, 15624, Note_on_c, 1, 60, 127
3, 15645, Note_off_c, 1, 60, 0
3, 15648, Note_on_c, 1, 60, 127
3, 15690, Note_off_c, 1, 60, 0
3, 15696, Note_on_c, 1, 67, 127
3, 15738, Note_off_c, 1, 67, 0
3, 15744, Note_on_c, 1, 69, 127
3, 15828, Note_off_c, 1, 69, 0
3, 15840, Note_on_c, 1, 70, 127
3, 15882, Note_off_c, 1, 70, 0
3, 15888, Note_on_c, 1, 69, 127
3, 15930, Note_off_c, 1, 69, 0
3, 15936, Note_on_c, 1, 67, 127
3, 15978, Note_off_c, 1, 67, 0
3, 15984, Note_on_c, 1, 65, 127
3, 16026, Note_off_c, 1, 65, 0
3, 16032, Note_on_c, 1, 67, 127
3, 16074, Note_off_c, 1, 67, 0
3, 16080, Note_on_c, 1, 60, 127
3, 16122, Note_off_c, 1, 60, 0
3, 16128, Note_on_c, 1, 65, 127
3, 16212, Note_off_c, 1, 65, 0
3, 16224, Note_on_c, 1, 69, 127
3, 16308, Note_off_c, 1, 69, 0
3, 16320, Note_on_c, 1, 67, 127
3, 16362, Note_off_c, 1, 67, 0
3, 16368, Note_on_c, 1, 65, 127
3, 16410, Note_off_c, 1, 65, 0
3, 16416, Note_on_c, 1, 67, 127
3, 16458, Note_off_c, 1, 67, 0
3, 16464, Note_on_c, 1, 60, 127
3, 16506, Note_off_c, 1, 60, 0
3, 16512, Note_on_c, 1, 65, 127
3, 16596, Note_off_c, 1, 65, 0
3, 16608, Note_on_c, 1, 69, 127
3, 16650, Note_off_c, 1, 69, 0
3, 16656, Note_on_c, 1, 65, 127
3, 16698, Note_off_c, 1, 65, 0
3, 16704, Note_on_c, 1, 72, 127
3, 16788, Note_off_c, 1, 72, 0
3, 16800, Note_on_c, 1, 69, 127
3, 16842, Note_off_c, 1, 69, 0
3, 16848, Note_on_c, 1, 65, 127
3, 16890, Note_off_c, 1, 65, 0
3, 16896, Note_on_c, 1, 60, 127
3, 16917, Note_off_c, 1, 60, 0
3, 16920, Note_on_c, 1, 57, 127
3, 16941, Note_off_c, 1, 57, 0
3, 16944, Note_on_c, 1, 60, 127
3, 16965, Note_off_c, 1, 60, 0
3, 16968, Note_on_c, 1, 65, 127
3, 16989, Note_off_c, 1, 65, 0
3, 16992, Note_on_c, 1, 67, 127
3, 17013, Note_off_c, 1, 67, 0
3, 17016, Note_on_c, 1, 65, 127
3, 17037, Note_off_c, 1, 65, 0
3, 17040, Note_on_c, 1, 67, 127
3, 17061, Note_off_c, 1, 67, 0
3, 17064, Note_on_c, 1, 65, 127
3, 17085, Note_off_c, 1, 65, 0
3, 17088, Note_on_c, 1, 60, 127
3, 17268, Note_off_c, 1, 60, 0
3, 17280, Tempo, 500000
3, 17280, Note_on_c, 1, 69, 127
3, 17364, Note_off_c, 1, 69, 0
3, 17376, Note_on_c, 1, 70, 127
3, 17418, Note_off_c, 1, 70, 0
3, 17424, Note_on_c, 1, 69, 127
3, 17466, Note_off_c, 1, 69, 0
3, 17472, Note_on_c, 1, 67, 127
3, 17514, Note_off_c, 1, 67, 0
3, 17520, Note_on_c, 1, 65, 127
3, 17562, Note_off_c, 1, 65, 0
3, 17568, Note_on_c, 1, 67, 127
3, 17610, Note_off_c, 1, 67, 0
3, 17616, Note_on_c, 1, 60, 127
3, 17658, Note_off_c, 1, 60, 0
3, 17664, Note_on_c, 1, 65, 127
3, 17748, Note_off_c, 1, 65, 0
3, 17760, Note_on_c, 1, 69, 127
3, 17844, Note_off_c, 1, 69, 0
3, 17856, Note_on_c, 1, 67, 127
3, 17898, Note_off_c, 1, 67, 0
3, 17904, Note_on_c, 1, 65, 127
3, 17946, Note_off_c, 1, 65, 0
3, 17952, Note_on_c, 1, 67, 127
3, 17994, Note_off_c, 1, 67, 0
3, 18000, Note_on_c, 1, 60, 127
3, 18042, Note_off_c, 1, 60, 0
3, 18048, Note_on_c, 1, 65, 127
3, 18132, Note_off_c, 1, 65, 0
3, 18144, Note_on_c, 1, 69, 127
3, 18186, Note_off_c, 1, 69, 0
3, 18192, Note_on_c, 1, 65, 127
3, 18234, Note_off_c, 1, 65, 0
3, 18240, Note_on_c, 1, 72, 127
3, 18324, Note_off_c, 1, 72, 0
3, 18336, Note_on_c, 1, 69, 127
3, 18378, Note_off_c, 1, 69, 0
3, 18384, Note_on_c, 1, 65, 127
3, 18426, Note_off_c, 1, 65, 0
3, 18432, Note_on_c, 1, 60, 127
3, 18453, Note_off_c, 1, 60, 0
3, 18456, Note_on_c, 1, 57, 127
3, 18477, Note_off_c, 1, 57, 0
3, 18480, Note_on_c, 1, 60, 127
3, 18501, Note_off_c, 1, 60, 0
3, 18504, Note_on_c, 1, 65, 127
3, 18525, Note_off_c, 1, 65, 0
3, 18528, Note_on_c, 1, 67, 127
3, 18570, Note_off_c, 1, 67, 0
3, 18576, Note_on_c, 1, 65, 127
3, 18618, Note_off_c, 1, 65, 0
3, 18624, Note_on_c, 1, 60, 127
3, 18666, Note_off_c, 1, 60, 0
3, 18672, Note_on_c, 1, 60, 127
3, 18693, Note_off_c, 1, 60, 0
3, 18696, Note_on_c, 1, 60, 127
3, 18717, Note_off_c, 1, 60, 0
3, 18720, Note_on_c, 1, 60, 127
3, 18762, Note_off_c, 1, 60, 0
3, 18768, Note_on_c, 1, 67, 127
3, 18810, Note_off_c, 1, 67, 0
3, 18816, Note_on_c, 1, 69, 127
3, 18900, Note_off_c, 1, 69, 0
3, 18912, Note_on_c, 1, 70, 127
3, 18954, Note_off_c, 1, 70, 0
3, 18960, Note_on_c, 1, 69, 127
3, 19002, Note_off_c, 1, 69, 0
3, 19008, Note_on_c, 1, 67, 127
3, 19050, Note_off_c, 1, 67, 0
3, 19056, Note_on_c, 1, 65, 127
3, 19098, Note_off_c, 1, 65, 0
3, 19104, Note_on_c, 1, 67, 127
3, 19146, Note_off_c, 1, 67, 0
3, 19152, Note_on_c, 1, 60, 127
3, 19194, Note_off_c, 1, 60, 0
3, 19200, Note_on_c, 1, 65, 127
3, 19284, Note_off_c, 1, 65, 0
3, 19296, Note_on_c, 1, 69, 127
3, 19380, Note_off_c, 1, 69, 0
3, 19392, Note_on_c, 1, 67, 127
3, 19434, Note_off_c, 1, 67, 0
3, 19440, Note_on_c, 1, 65, 127
3, 19482, Note_off_c, 1, 65, 0
3, 19488, Note_on_c, 1, 67, 127
3, 19530, Note_off_c, 1, 67, 0
3, 19536, Note_on_c, 1, 60, 127
3, 19578, Note_off_c, 1, 60, 0
3, 19584, Note_on_c, 1, 65, 127
3, 19668, Note_off_c, 1, 65, 0
3, 19680, Note_on_c, 1, 69, 127
3, 19722, Note_off_c, 1, 69, 0
3, 19728, Note_on_c, 1, 65, 127
3, 19770, Note_off_c, 1, 65, 0
3, 19776, Note_on_c, 1, 72, 127
3, 19860, Note_off_c, 1, 72, 0
3, 19872, Note_on_c, 1, 69, 127
3, 19914, Note_off_c, 1, 69, 0
3, 19920, Note_on_c, 1, 65, 127
3, 19962, Note_off_c, 1, 65, 0
3, 19968, Note_on_c, 1, 60, 127
3, 19989, Note_off_c, 1, 60, 0
3, 19992, Note_on_c, 1, 57, 127
3, 20013, Note_off_c, 1, 57, 0
3, 20016, Note_on_c, 1, 60, 127
3, 20037, Note_off_c, 1, 60, 0
3, 20040, Note_on_c, 1, 65, 127
3, 20061, Note_off_c, 1, 65, 0
3, 20064, Note_on_c, 1, 67, 127
3, 20085, Note_off_c, 1, 67, 0
3, 20088, Note_on_c, 1, 65, 127
3, 20109, Note_off_c, 1, 65, 0
3, 20112, Note_on_c, 1, 67, 127
3, 20133, Note_off_c, 1, 67, 0
3, 20136, Note_on_c, 1, 65, 127
3, 20157, Note_off_c, 1, 65, 0
3, 20160, Note_on_c, 1, 60, 127
3, 20340, Note_off_c, 1, 60, 0
3, 20352, Note_on_c, 1, 60, 127
3, 20436, Note_off_c, 1, 60, 0
3, 20448, Note_on_c, 1, 57, 127
3, 20490, Note_off_c, 1, 57, 0
3, 20496, Note_on_c, 1, 60, 127
3, 20538, Note_off_c, 1, 60, 0
3, 20544, Note_on_c, 1, 65, 127
3, 20586, Note_off_c, 1, 65, 0
3, 20592, Note_on_c, 1, 60, 127
3, 20634, Note_off_c, 1, 60, 0
3, 20640, Note_on_c, 1, 65, 127
3, 20682, Note_off_c, 1, 65, 0
3, 20688, Note_on_c, 1, 57, 127
3, 20730, Note_off_c, 1, 57, 0
3, 20736, Note_on_c, 1, 60, 127
3, 20820, Note_off_c, 1, 60, 0
3, 20832, Note_on_c, 1, 67, 127
3, 20916, Note_off_c, 1, 67, 0
3, 20928, Note_on_c, 1, 65, 127
3, 20970, Note_off_c, 1, 65, 0
3, 20976, Note_on_c, 1, 60, 127
3, 21018, Note_off_c, 1, 60, 0
3, 21024, Note_on_c, 1, 65, 127
3, 21066, Note_off_c, 1, 65, 0
3, 21072, Note_on_c, 1, 57, 127
3, 21114, Note_off_c, 1, 57, 0
3, 21120, Note_on_c, 1, 60, 127
3, 21204, Note_off_c, 1, 60, 0
3, 21216, Note_on_c, 1, 67, 127
3, 21258, Note_off_c, 1, 67, 0
3, 21264, Note_on_c, 1, 60, 127
3, 21306, Note_off_c, 1, 60, 0
3, 21312, Note_on_c, 1, 72, 127
3, 21396, Note_off_c, 1, 72, 0
3, 21408, Note_on_c, 1, 69, 127
3, 21450, Note_off_c, 1, 69, 0
3, 21456, Note_on_c, 1, 65, 127
3, 21498, Note_off_c, 1, 65, 0
3, 21504, Note_on_c, 1, 70, 127
3, 21546, Note_off_c, 1, 70, 0
3, 21552, Note_on_c, 1, 69, 127
3, 21594, Note_off_c, 1, 69, 0
3, 21600, Note_on_c, 1, 67, 127
3, 21642, Note_off_c, 1, 67, 0
3, 21648, Note_on_c, 1, 65, 127
3, 21690, Note_off_c, 1, 65, 0
3, 21696, Note_on_c, 1, 60, 127
3, 21738, Note_off_c, 1, 60, 0
3, 21744, Note_on_c, 1, 60, 127
3, 21765, Note_off_c, 1, 60, 0
3, 21768, Note_on_c, 1, 60, 127
3, 21789, Note_off_c, 1, 60, 0
3, 21792, Note_on_c, 1, 60, 127
3, 21834, Note_off_c, 1, 60, 0
3, 21840, Note_on_c, 1, 67, 127
3, 21882, Note_off_c, 1, 67, 0
3, 21888, Note_on_c, 1, 60, 127
3, 21972, Note_off_c, 1, 60, 0
3, 21984, Note_on_c, 1, 57, 127
3, 22026, Note_off_c, 1, 57, 0
3, 22032, Note_on_c, 1, 60, 127
3, 22074, Note_off_c, 1, 60, 0
3, 22080, Note_on_c, 1, 65, 127
3, 22122, Note_off_c, 1, 65, 0
3, 22128, Note_on_c, 1, 60, 127
3, 22170, Note_off_c, 1, 60, 0
3, 22176, Note_on_c, 1, 65, 127
3, 22218, Note_off_c, 1, 65, 0
3, 22224, Note_on_c, 1, 57, 127
3, 22266, Note_off_c, 1, 57, 0
3, 22272, Note_on_c, 1, 60, 127
3, 22356, Note_off_c, 1, 60, 0
3, 22368, Note_on_c, 1, 67, 127
3, 22452, Note_off_c, 1, 67, 0
3, 22464, Note_on_c, 1, 65, 127
3, 22506, Note_off_c, 1, 65, 0
3, 22512, Note_on_c, 1, 60, 127
3, 22554, Note_off_c, 1, 60, 0
3, 22560, Note_on_c, 1, 65, 127
3, 22602, Note_off_c, 1, 65, 0
3, 22608, Note_on_c, 1, 57, 127
3, 22650, Note_off_c, 1, 57, 0
3, 22656, Note_on_c, 1, 60, 127
3, 22740, Note_off_c, 1, 60, 0
3, 22752, Note_on_c, 1, 67, 127
3, 22794, Note_off_c, 1, 67, 0
3, 22800, Note_on_c, 1, 60, 127
3, 22842, Note_off_c, 1, 60, 0
3, 22848, Note_on_c, 1, 72, 127
3, 22932, Note_off_c, 1, 72, 0
3, 22944, Note_on_c, 1, 69, 127
3, 22986, Note_off_c, 1, 69, 0
3, 22992, Note_on_c, 1, 65, 127
3, 23034, Note_off_c, 1, 65, 0
3, 23040, Note_on_c, 1, 60, 127
3, 23082, Note_off_c, 1, 60, 0
3, 23088, Note_on_c, 1, 53, 127
3, 23130, Note_off_c, 1, 53, 0
3, 23136, Note_on_c, 1, 57, 127
3, 23178, Note_off_c, 1, 57, 0
3, 23184, Note_on_c, 1, 60, 127
3, 23226, Note_off_c, 1, 60, 0
3, 23232, Note_on_c, 1, 57, 127
3, 23412, Note_off_c, 1, 57, 0
3, 23424, Note_on_c, 1, 60, 127
3, 23508, Note_off_c, 1, 60, 0
3, 23520, Note_on_c, 1, 57, 127
3, 23562, Note_off_c, 1, 57, 0
3, 23568, Note_on_c, 1, 60, 127
3, 23610, Note_off_c, 1, 60, 0
3, 23616, Note_on_c, 1, 65, 127
3, 23658, Note_off_c, 1, 65, 0
3, 23664, Note_on_c, 1, 60, 127
3, 23706, Note_off_c, 1, 60, 0
3, 23712, Note_on_c, 1, 65, 127
3, 23754, Note_off_c, 1, 65, 0
3, 23760, Note_on_c, 1, 57, 127
3, 23802, Note_off_c, 1, 57, 0
3, 23808, Note_on_c, 1, 60, 127
3, 23892, Note_off_c, 1, 60, 0
3, 23904, Note_on_c, 1, 67, 127
3, 23988, Note_off_c, 1, 67, 0
3, 24000, Note_on_c, 1, 65, 127
3, 24042, Note_off_c, 1, 65, 0
3, 24048, Note_on_c, 1, 60, 127
3, 24090, Note_off_c, 1, 60, 0
3, 24096, Note_on_c, 1, 65, 127
3, 24138, Note_off_c, 1, 65, 0
3, 24144, Note_on_c, 1, 57, 127
3, 24186, Note_off_c, 1, 57, 0
3, 24192, Note_on_c, 1, 60, 127
3, 24276, Note_off_c, 1, 60, 0
3, 24288, Note_on_c, 1, 67, 127
3, 24330, Note_off_c, 1, 67, 0
3, 24336, Note_on_c, 1, 60, 127
3, 24378, Note_off_c, 1, 60, 0
3, 24384, Note_on_c, 1, 72, 127
3, 24468, Note_off_c, 1, 72, 0
3, 24480, Note_on_c, 1, 69, 127
3, 24522, Note_off_c, 1, 69, 0
3, 24528, Note_on_c, 1, 65, 127
3, 24570, Note_off_c, 1, 65, 0
3, 24576, Note_on_c, 1, 70, 127
3, 24618, Note_off_c, 1, 70, 0
3, 24624, Note_on_c, 1, 69, 127
3, 24666, Note_off_c, 1, 69, 0
3, 24672, Note_on_c, 1, 67, 127
3, 24714, Note_off_c, 1, 67, 0
3, 24720, Note_on_c, 1, 65, 127
3, 24762, Note_off_c, 1, 65, 0
3, 24768, Note_on_c, 1, 60, 127
3, 24810, Note_off_c, 1, 60, 0
3, 24816, Note_on_c, 1, 60, 127
3, 24837, Note_off_c, 1, 60, 0
3, 24840, Note_on_c, 1, 60, 127
3, 24861, Note_off_c, 1, 60, 0
3, 24864, Note_on_c, 1, 60, 127
3, 24906, Note_off_c, 1, 60, 0
3, 24912, Note_on_c, 1, 67, 127
3, 24954, Note_off_c, 1, 67, 0
3, 24960, Note_on_c, 1, 60, 127
3, 25044, Note_off_c, 1, 60, 0
3, 25056, Note_on_c, 1, 57, 127
3, 25098, Note_off_c, 1, 57, 0
3, 25104, Note_on_c, 1, 60, 127
3, 25146, Note_off_c, 1, 60, 0
3, 25152, Note_on_c, 1, 65, 127
3, 25194, Note_off_c, 1, 65, 0
3, 25200, Note_on_c, 1, 60, 127
3, 25242, Note_off_c, 1, 60, 0
3, 25248, Note_on_c, 1, 65, 127
3, 25290, Note_off_c, 1, 65, 0
3, 25296, Note_on_c, 1, 57, 127
3, 25338, Note_off_c, 1, 57, 0
3, 25344, Note_on_c, 1, 60, 127
3, 25428, Note_off_c, 1, 60, 0
3, 25440, Note_on_c, 1, 67, 127
3, 25524, Note_off_c, 1, 67, 0
3, 25536, Note_on_c, 1, 65, 127
3, 25578, Note_off_c, 1, 65, 0
3, 25584, Note_on_c, 1, 60, 127
3, 25626, Note_off_c, 1, 60, 0
3, 25632, Note_on_c, 1, 65, 127
3, 25674, Note_off_c, 1, 65, 0
3, 25680, Note_on_c, 1, 57, 127
3, 25722, Note_off_c, 1, 57, 0
3, 25728, Note_on_c, 1, 60, 127
3, 25812, Note_off_c, 1, 60, 0
3, 25824, Note_on_c, 1, 67, 127
3, 25866, Note_off_c, 1, 67, 0
3, 25872, Note_on_c, 1, 60, 127
3, 25914, Note_off_c, 1, 60, 0
3, 25920, Note_on_c, 1, 72, 127
3, 26004, Note_off_c, 1, 72, 0
3, 26016, Note_on_c, 1, 69, 127
3, 26058, Note_off_c, 1, 69, 0
3, 26064, Note_on_c, 1, 65, 127
3, 26106, Note_off_c, 1, 65, 0
3, 26112, Note_on_c, 1, 60, 127
3, 26154, Note_off_c, 1, 60, 0
3, 26160, Note_on_c, 1, 53, 127
3, 26202, Note_off_c, 1, 53, 0
3, 26208, Note_on_c, 1, 57, 127
3, 26250, Note_off_c, 1, 57, 0
3, 26256, Note_on_c, 1, 60, 127
3, 26298, Note_off_c, 1, 60, 0
3, 26304, Note_on_c, 1, 57, 127
3, 26484, Note_off_c, 1, 57, 0
3, 26784, Time_signature, 3, 2, 96, 8
3, 26880, Tempo, 428571
3, 27168, Note_on_c, 1, 53, 127
3, 27252, Note_off_c, 1, 53, 0
3, 27264, Note_on_c, 1, 53, 127
3, 27306, Note_off_c, 1, 53, 0
3, 27312, Note_on_c, 1, 53, 127
3, 27354, Note_off_c, 1, 53, 0
3, 27360, Note_on_c, 1, 53, 127
3, 27402, Note_off_c, 1, 53, 0
3, 27408, Note_on_c, 1, 53, 127
3, 27450, Note_off_c, 1, 53, 0
3, 27456, Note_on_c, 1, 53, 127
3, 27540, Note_off_c, 1, 53, 0
3, 27744, Note_on_c, 1, 53, 127
3, 27828, Note_off_c, 1, 53, 0
3, 27840, Note_on_c, 1, 53, 127
3, 27882, Note_off_c, 1, 53, 0
3, 27888, Note_on_c, 1, 53, 127
3, 27930, Note_off_c, 1, 53, 0
3, 27936, Note_on_c, 1, 53, 127
3, 27978, Note_off_c, 1, 53, 0
3, 27984, Note_on_c, 1, 53, 127
3, 28026, Note_off_c, 1, 53, 0
3, 28032, Note_on_c, 1, 60, 127
3, 28116, Note_off_c, 1, 60, 0
3, 28320, Note_on_c, 1, 60, 127
3, 28404, Note_off_c, 1, 60, 0
3, 28416, Note_on_c, 1, 60, 127
3, 28458, Note_off_c, 1, 60, 0
3, 28464, Note_on_c, 1, 60, 127
3, 28506, Note_off_c, 1, 60, 0
3, 28512, Note_on_c, 1, 60, 127
3, 28554, Note_off_c, 1, 60, 0
3, 28560, Note_on_c, 1, 60, 127
3, 28602, Note_off_c, 1, 60, 0
3, 28608, Note_on_c, 1, 60, 127
3, 28692, Note_off_c, 1, 60, 0
3, 28896, Note_on_c, 1, 60, 127
3, 28980, Note_off_c, 1, 60, 0
3, 28992, Note_on_c, 1, 60, 127
3, 29034, Note_off_c, 1, 60, 0
3, 29040, Note_on_c, 1, 60, 127
3, 29082, Note_off_c, 1, 60, 0
3, 29088, Note_on_c, 1, 60, 127
3, 29130, Note_off_c, 1, 60, 0
3, 29136, Note_on_c, 1, 60, 127
3, 29178, Note_off_c, 1, 60, 0
3, 29184, Note_on_c, 1, 67, 127
3, 29268, Note_off_c, 1, 67, 0
3, 29472, Note_on_c, 1, 67, 127
3, 29556, Note_off_c, 1, 67, 0
3, 29568, Note_on_c, 1, 67, 127
3, 29610, Note_off_c, 1, 67, 0
3, 29616, Note_on_c, 1, 67, 127
3, 29658, Note_off_c, 1, 67, 0
3, 29664, Note_on_c, 1, 67, 127
3, 29706, Note_off_c, 1, 67, 0
3, 29712, Note_on_c, 1, 67, 127
3, 29754, Note_off_c, 1, 67, 0
3, 29760, Note_on_c, 1, 69, 127
3, 29844, Note_off_c, 1, 69, 0
3, 29856, Note_on_c, 1, 67, 127
3, 29898, Note_off_c, 1, 67, 0
3, 29904, Note_on_c, 1, 67, 127
3, 29946, Note_off_c, 1, 67, 0
3, 29952, Note_on_c, 1, 67, 127
3, 29994, Note_off_c, 1, 67, 0
3, 30000, Note_on_c, 1, 67, 127
3, 30042, Note_off_c, 1, 67, 0
3, 30048, Note_on_c, 1, 67, 127
3, 30324, Note_off_c, 1, 67, 0
3, 30624, Note_on_c, 1, 53, 127
3, 30708, Note_off_c, 1, 53, 0
3, 30720, Note_on_c, 1, 53, 127
3, 30762, Note_off_c, 1, 53, 0
3, 30768, Note_on_c, 1, 53, 127
3, 30810, Note_off_c, 1, 53, 0
3, 30816, Note_on_c, 1, 53, 127
3, 30858, Note_off_c, 1, 53, 0
3, 30864, Note_on_c, 1, 53, 127
3, 30906, Note_off_c, 1, 53, 0
3, 30912, Note_on_c, 1, 53, 127
3, 30996, Note_off_c, 1, 53, 0
3, 31200, Note_on_c, 1, 53, 127
3, 31284, Note_off_c, 1, 53, 0
3, 31296, Note_on_c, 1, 53, 127
3, 31338, Note_off_c, 1, 53, 0
3, 31344, Note_on_c, 1, 53, 127
3, 31386, Note_off_c, 1, 53, 0
3, 31392, Note_on_c, 1, 53, 127
3, 31434, Note_off_c, 1, 53, 0
3, 31440, Note_on_c, 1, 53, 127
3, 31482, Note_off_c, 1, 53, 0
3, 31488, Note_on_c, 1, 60, 127
3, 31572, Note_off_c, 1, 60, 0
3, 31776, Note_on_c, 1, 60, 127
3, 31860, Note_off_c, 1, 60, 0
3, 31872, Note_on_c, 1, 60, 127
3, 31914, Note_off_c, 1, 60, 0
3, 31920, Note_on_c, 1, 60, 127
3, 31962, Note_off_c, 1, 60, 0
3, 31968, Note_on_c, 1, 60, 127
3, 32010, Note_off_c, 1, 60, 0
3, 32016, Note_on_c, 1, 60, 127
3, 32058, Note_off_c, 1, 60, 0
3, 32064, Note_on_c, 1, 60, 127
3, 32148, Note_off_c, 1, 60, 0
3, 32352, Note_on_c, 1, 60, 127
3, 32436, Note_off_c, 1, 60, 0
3, 32448, Note_on_c, 1, 60, 127
3, 32490, Note_off_c, 1, 60, 0
3, 32496, Note_on_c, 1, 60, 127
3, 32538, Note_off_c, 1, 60, 0
3, 32544, Note_on_c, 1, 60, 127
3, 32586, Note_off_c, 1, 60, 0
3, 32592, Note_on_c, 1, 60, 127
3, 32634, Note_off_c, 1, 60, 0
3, 32640, Note_on_c, 1, 67, 127
3, 32724, Note_off_c, 1, 67, 0
3, 32928, Note_on_c, 1, 67, 127
3, 33012, Note_off_c, 1, 67, 0
3, 33024, Note_on_c, 1, 67, 127
3, 33066, Note_off_c, 1, 67, 0
3, 33072, Note_on_c, 1, 67, 127
3, 33114, Note_off_c, 1, 67, 0
3, 33120, Note_on_c, 1, 67, 127
3, 33162, Note_off_c, 1, 67, 0
3, 33168, Note_on_c, 1, 67, 127
3, 33210, Note_off_c, 1, 67, 0
3, 33216, Note_on_c, 1, 69, 127
3, 33300, Note_off_c, 1, 69, 0
3, 33312, Note_on_c, 1, 67, 127
3, 33354, Note_off_c, 1, 67, 0
3, 33360, Note_on_c, 1, 67, 127
3, 33402, Note_off_c, 1, 67, 0
3, 33408, Note_on_c, 1, 67, 127
3, 33450, Note_off_c, 1, 67, 0
3, 33456, Note_on_c, 1, 67, 127
3, 33498, Note_off_c, 1, 67, 0
3, 33504, Note_on_c, 1, 67, 127
3, 33780, Note_off_c, 1, 67, 0
3, 34080, Note_on_c, 1, 60, 127
3, 34164, Note_off_c, 1, 60, 0
3, 34176, Note_on_c, 1, 60, 127
3, 34218, Note_off_c, 1, 60, 0
3, 34224, Note_on_c, 1, 60, 127
3, 34266, Note_off_c, 1, 60, 0
3, 34272, Note_on_c, 1, 60, 127
3, 34314, Note_off_c, 1, 60, 0
3, 34320, Note_on_c, 1, 60, 127
3, 34362, Note_off_c, 1, 60, 0
3, 34368, Note_on_c, 1, 60, 127
3, 34452, Note_off_c, 1, 60, 0
3, 34656, Note_on_c, 1, 60, 127
3, 34740, Note_off_c, 1, 60, 0
3, 34752, Note_on_c, 1, 60, 127
3, 34794, Note_off_c, 1, 60, 0
3, 34800, Note_on_c, 1, 60, 127
3, 34842, Note_off_c, 1, 60, 0
3, 34848, Note_on_c, 1, 60, 127
3, 34890, Note_off_c, 1, 60, 0
3, 34896, Note_on_c, 1, 60, 127
3, 34938, Note_off_c, 1, 60, 0
3, 34944, Note_on_c, 1, 67, 127
3, 35028, Note_off_c, 1, 67, 0
3, 35232, Note_on_c, 1, 67, 127
3, 35316, Note_off_c, 1, 67, 0
3, 35328, Note_on_c, 1, 67, 127
3, 35370, Note_off_c, 1, 67, 0
3, 35376, Note_on_c, 1, 67, 127
3, 35418, Note_off_c, 1, 67, 0
3, 35424, Note_on_c, 1, 67, 127
3, 35466, Note_off_c, 1, 67, 0
3, 35472, Note_on_c, 1, 67, 127
3, 35514, Note_off_c, 1, 67, 0
3, 35520, Note_on_c, 1, 67, 127
3, 35604, Note_off_c, 1, 67, 0
3, 35808, Note_on_c, 1, 67, 127
3, 35892, Note_off_c, 1, 67, 0
3, 35904, Note_on_c, 1, 67, 127
3, 35946, Note_off_c, 1, 67, 0
3, 35952, Note_on_c, 1, 67, 127
3, 35994, Note_off_c, 1, 67, 0
3, 36000, Note_on_c, 1, 67, 127
3, 36042, Note_off_c, 1, 67, 0
3, 36048, Note_on_c, 1, 67, 127
3, 36090, Note_off_c, 1, 67, 0
3, 36096, Note_on_c, 1, 67, 127
3, 36180, Note_off_c, 1, 67, 0
3, 36384, Note_on_c, 1, 67, 127
3, 36468, Note_off_c, 1, 67, 0
3, 36480, Note_on_c, 1, 60, 127
3, 36522, Note_off_c, 1, 60, 0
3, 36528, Note_on_c, 1, 60, 127
3, 36570, Note_off_c, 1, 60, 0
3, 36576, Note_on_c, 1, 60, 127
3, 36618, Note_off_c, 1, 60, 0
3, 36624, Note_on_c, 1, 60, 127
3, 36666, Note_off_c, 1, 60, 0
3, 36672, Note_on_c, 1, 65, 127
3, 36756, Note_off_c, 1, 65, 0
3, 36768, Note_on_c, 1, 60, 127
3, 36810, Note_off_c, 1, 60, 0
3, 36816, Note_on_c, 1, 60, 127
3, 36858, Note_off_c, 1, 60, 0
3, 36864, Note_on_c, 1, 60, 127
3, 36906, Note_off_c, 1, 60, 0
3, 36912, Note_on_c, 1, 60, 127
3, 36954, Note_off_c, 1, 60, 0
3, 36960, Note_on_c, 1, 57, 127
3, 37236, Note_off_c, 1, 57, 0
3, 37536, Note_on_c, 1, 60, 127
3, 37620, Note_off_c, 1, 60, 0
3, 37632, Note_on_c, 1, 60, 127
3, 37674, Note_off_c, 1, 60, 0
3, 37680, Note_on_c, 1, 60, 127
3, 37722, Note_off_c, 1, 60, 0
3, 37728, Note_on_c, 1, 60, 127
3, 37770, Note_off_c, 1, 60, 0
3, 37776, Note_on_c, 1, 60, 127
3, 37818, Note_off_c, 1, 60, 0
3, 37824, Note_on_c, 1, 60, 127
3, 37908, Note_off_c, 1, 60, 0
3, 38112, Note_on_c, 1, 60, 127
3, 38196, Note_off_c, 1, 60, 0
3, 38208, Note_on_c, 1, 60, 127
3, 38250, Note_off_c, 1, 60, 0
3, 38256, Note_on_c, 1, 60, 127
3, 38298, Note_off_c, 1, 60, 0
3, 38304, Note_on_c, 1, 60, 127
3, 38346, Note_off_c, 1, 60, 0
3, 38352, Note_on_c, 1, 60, 127
3, 38394, Note_off_c, 1, 60, 0
3, 38400, Note_on_c, 1, 67, 127
3, 38484, Note_off_c, 1, 67, 0
3, 38688, Note_on_c, 1, 67, 127
3, 38772, Note_off_c, 1, 67, 0
3, 38784, Note_on_c, 1, 67, 127
3, 38826, Note_off_c, 1, 67, 0
3, 38832, Note_on_c, 1, 67, 127
3, 38874, Note_off_c, 1, 67, 0
3, 38880, Note_on_c, 1, 67, 127
3, 38922, Note_off_c, 1, 67, 0
3, 38928, Note_on_c, 1, 67, 127
3, 38970, Note_off_c, 1, 67, 0
3, 38976, Note_on_c, 1, 67, 127
3, 39060, Note_off_c, 1, 67, 0
3, 39264, Note_on_c, 1, 67, 127
3, 39348, Note_off_c, 1, 67, 0
3, 39360, Note_on_c, 1, 67, 127
3, 39402, Note_off_c, 1, 67, 0
3, 39408, Note_on_c, 1, 67, 127
3, 39450, Note_off_c, 1, 67, 0
3, 39456, Note_on_c, 1, 67, 127
3, 39498, Note_off_c, 1, 67, 0
3, 39504, Note_on_c, 1, 67, 127
3, 39546, Note_off_c, 1, 67, 0
3, 39552, Note_on_c, 1, 67, 127
3, 39636, Note_off_c, 1, 67, 0
3, 39840, Note_on_c, 1, 67, 127
3, 39924, Note_off_c, 1, 67, 0
3, 39936, Note_on_c, 1, 60, 127
3, 39978, Note_off_c, 1, 60, 0
3, 39984, Note_on_c, 1, 60, 127
3, 40026, Note_off_c, 1, 60, 0
3, 40032, Note_on_c, 1, 60, 127
3, 40074, Note_off_c, 1, 60, 0
3, 40080, Note_on_c, 1, 60, 127
3, 40122, Note_off_c, 1, 60, 0
3, 40128, Note_on_c, 1, 65, 127
3, 40212, Note_off_c, 1, 65, 0
3, 40224, Note_on_c, 1, 60, 127
3, 40266, Note_off_c, 1, 60, 0
3, 40272, Note_on_c, 1, 60, 127
3, 40314, Note_off_c, 1, 60, 0
3, 40320, Note_on_c, 1, 60, 127
3, 40362, Note_off_c, 1, 60, 0
3, 40368, Note_on_c, 1, 60, 127
3, 40410, Note_off_c, 1, 60, 0
3, 40416, Note_on_c, 1, 57, 127
3, 40692, Note_off_c, 1, 57, 0
3, 40692, End_track
4, 0, Start_track
4, 0, Title_t, "Oboe I (Sequenced by:)"
4, 0, Control_c, 2, 0, 0
4, 0, Program_c, 2, 68
4, 0, Time_signature, 3, 2, 96, 8
4, 0, Tempo, 461538
4, 96, Tempo, 428571
4, 96, Note_on_c, 2, 72, 62
4, 180, Note_off_c, 2, 72, 0
4, 192, Note_on_c, 2, 75, 62
4, 276, Note_off_c, 2, 75, 0
4, 288, Note_on_c, 2, 74, 62
4, 372, Note_off_c, 2, 74, 0
4, 384, Note_on_c, 2, 72, 62
4, 468, Note_off_c, 2, 72, 0
4, 480, Note_on_c, 2, 70, 62
4, 522, Note_off_c, 2, 70, 0
4, 528, Note_on_c, 2, 69, 62
4, 570, Note_off_c, 2, 69, 0
4, 576, Note_on_c, 2, 70, 62
4, 660, Note_off_c, 2, 70, 0
4, 672, Note_on_c, 2, 72, 62
4, 756, Note_off_c, 2, 72, 0
4, 768, Note_on_c, 2, 75, 62
4, 852, Note_off_c, 2, 75, 0
4, 864, Note_on_c, 2, 74, 62
4, 948, Note_off_c, 2, 74, 0
4, 960, Note_on_c, 2, 74, 62
4, 970, Note_off_c, 2, 74, 0
4, 972, Note_on_c, 2, 72, 62
4, 982, Note_off_c, 2, 72, 0
4, 984, Note_on_c, 2, 74, 62
4, 994, Note_off_c, 2, 74, 0
4, 996, Note_on_c, 2, 72, 62
4, 1006, Note_off_c, 2, 72, 0
4, 1008, Note_on_c, 2, 74, 62
4, 1018, Note_off_c, 2, 74, 0
4, 1020, Note_on_c, 2, 72, 62
4, 1030, Note_off_c, 2, 72, 0
4, 1032, Note_on_c, 2, 74, 62
4, 1042, Note_off_c, 2, 74, 0
4, 1044, Note_on_c, 2, 72, 62
4, 1054, Note_off_c, 2, 72, 0
4, 1056, Note_on_c, 2, 74, 62
4, 1066, Note_off_c, 2, 74, 0
4, 1068, Note_on_c, 2, 72, 62
4, 1078, Note_off_c, 2, 72, 0
4, 1080, Note_on_c, 2, 74, 62
4, 1090, Note_off_c, 2, 74, 0
4, 1092, Note_on_c, 2, 72, 62
4, 1102, Note_off_c, 2, 72, 0
4, 1104, Note_on_c, 2, 74, 62
4, 1114, Note_off_c, 2, 74, 0
4, 1116, Note_on_c, 2, 72, 62
4, 1126, Note_off_c, 2, 72, 0
4, 1128, Note_on_c, 2, 74, 62
4, 1138, Note_off_c, 2, 74, 0
4, 1140, Note_on_c, 2, 72, 62
4, 1150, Note_off_c, 2, 72, 0
4, 1152, Note_on_c, 2, 77, 62
4, 1236, Note_off_c, 2, 77, 0
4, 1248, Note_on_c, 2, 70, 62
4, 1332, Note_off_c, 2, 70, 0
4, 1344, Note_on_c, 2, 67, 62
4, 1428, Note_off_c, 2, 67, 0
4, 1440, Note_on_c, 2, 69, 62
4, 1524, Note_off_c, 2, 69, 0
4, 1536, Note_on_c, 2, 70, 62
4, 1620, Note_off_c, 2, 70, 0
4, 1632, Note_on_c, 2, 74, 62
4, 1812, Note_off_c, 2, 74, 0
4, 1824, Note_on_c, 2, 70, 62
4, 1908, Note_off_c, 2, 70, 0
4, 1920, Note_on_c, 2, 69, 62
4, 1962, Note_off_c, 2, 69, 0
4, 1968, Note_on_c, 2, 67, 62
4, 2010, Note_off_c, 2, 67, 0
4, 2016, Note_on_c, 2, 72, 62
4, 2100, Note_off_c, 2, 72, 0
4, 2112, Note_on_c, 2, 69, 62
4, 2292, Note_off_c, 2, 69, 0
4, 2304, Note_on_c, 2, 67, 62
4, 2388, Note_off_c, 2, 67, 0
4, 2400, Note_on_c, 2, 71, 62
4, 2442, Note_off_c, 2, 71, 0
4, 2448, Note_on_c, 2, 72, 62
4, 2490, Note_off_c, 2, 72, 0
4, 2496, Note_on_c, 2, 74, 62
4, 2506, Note_off_c, 2, 74, 0
4, 2508, Note_on_c, 2, 72, 62
4, 2518, Note_off_c, 2, 72, 0
4, 2520, Note_on_c, 2, 74, 62
4, 2530, Note_off_c, 2, 74, 0
4, 2532, Note_on_c, 2, 72, 62
4, 2542, Note_off_c, 2, 72, 0
4, 2544, Note_on_c, 2, 74, 62
4, 2554, Note_off_c, 2, 74, 0
4, 2556, Note_on_c, 2, 72, 62
4, 2566, Note_off_c, 2, 72, 0
4, 2568, Note_on_c, 2, 74, 62
4, 2578, Note_off_c, 2, 74, 0
4, 2580, Note_on_c, 2, 72, 62
4, 2590, Note_off_c, 2, 72, 0
4, 2592, Note_on_c, 2, 74, 62
4, 2602, Note_off_c, 2, 74, 0
4, 2604, Note_on_c, 2, 72, 62
4, 2614, Note_off_c, 2, 72, 0
4, 2616, Note_on_c, 2, 74, 62
4, 2626, Note_off_c, 2, 74, 0
4, 2628, Note_on_c, 2, 72, 62
4, 2638, Note_off_c, 2, 72, 0
4, 2640, Note_on_c, 2, 71, 62
4, 2661, Note_off_c, 2, 71, 0
4, 2664, Note_on_c, 2, 72, 62
4, 2685, Note_off_c, 2, 72, 0
4, 2688, Note_on_c, 2, 74, 62
4, 2772, Note_off_c, 2, 74, 0
4, 2784, Note_on_c, 2, 72, 62
4, 2826, Note_off_c, 2, 72, 0
4, 2832, Note_on_c, 2, 71, 62
4, 2874, Note_off_c, 2, 71, 0
4, 2880, Note_on_c, 2, 72, 62
4, 2964, Note_off_c, 2, 72, 0
4, 2976, Note_on_c, 2, 77, 62
4, 3018, Note_off_c, 2, 77, 0
4, 3024, Note_on_c, 2, 79, 62
4, 3066, Note_off_c, 2, 79, 0
4, 3072, Note_on_c, 2, 74, 62
4, 3204, Note_off_c, 2, 74, 0
4, 3216, Note_on_c, 2, 72, 62
4, 3258, Note_off_c, 2, 72, 0
4, 3264, Note_on_c, 2, 72, 62
4, 3540, Note_off_c, 2, 72, 0
4, 3552, Note_on_c, 2, 72, 62
4, 3636, Note_off_c, 2, 72, 0
4, 3648, Note_on_c, 2, 75, 62
4, 3732, Note_off_c, 2, 75, 0
4, 3744, Note_on_c, 2, 74, 62
4, 3828, Note_off_c, 2, 74, 0
4, 3840, Note_on_c, 2, 72, 62
4, 3924, Note_off_c, 2, 72, 0
4, 3936, Note_on_c, 2, 70, 62
4, 3978, Note_off_c, 2, 70, 0
4, 3984, Note_on_c, 2, 69, 62
4, 4026, Note_off_c, 2, 69, 0
4, 4032, Note_on_c, 2, 70, 62
4, 4116, Note_off_c, 2, 70, 0
4, 4128, Note_on_c, 2, 72, 62
4, 4212, Note_off_c, 2, 72, 0
4, 4224, Note_on_c, 2, 75, 62
4, 4308, Note_off_c, 2, 75, 0
4, 4320, Note_on_c, 2, 74, 62
4, 4404, Note_off_c, 2, 74, 0
4, 4416, Note_on_c, 2, 74, 62
4, 4426, Note_off_c, 2, 74, 0
4, 4428, Note_on_c, 2, 72, 62
4, 4438, Note_off_c, 2, 72, 0
4, 4440, Note_on_c, 2, 74, 62
4, 4450, Note_off_c, 2, 74, 0
4, 4452, Note_on_c, 2, 72, 62
4, 4462, Note_off_c, 2, 72, 0
4, 4464, Note_on_c, 2, 74, 62
4, 4474, Note_off_c, 2, 74, 0
4, 4476, Note_on_c, 2, 72, 62
4, 4486, Note_off_c, 2, 72, 0
4, 4488, Note_on_c, 2, 74, 62
4, 4498, Note_off_c, 2, 74, 0
4, 4500, Note_on_c, 2, 72, 62
4, 4510, Note_off_c, 2, 72, 0
4, 4512, Note_on_c, 2, 74, 62
4, 4522, Note_off_c, 2, 74, 0
4, 4524, Note_on_c, 2, 72, 62
4, 4534, Note_off_c, 2, 72, 0
4, 4536, Note_on_c, 2, 74, 62
4, 4546, Note_off_c, 2, 74, 0
4, 4548, Note_on_c, 2, 72, 62
4, 4558, Note_off_c, 2, 72, 0
4, 4560, Note_on_c, 2, 74, 62
4, 4570, Note_off_c, 2, 74, 0
4, 4572, Note_on_c, 2, 72, 62
4, 4582, Note_off_c, 2, 72, 0
4, 4584, Note_on_c, 2, 74, 62
4, 4594, Note_off_c, 2, 74, 0
4, 4596, Note_on_c, 2, 72, 62
4, 4606, Note_off_c, 2, 72, 0
4, 4608, Note_on_c, 2, 77, 62
4, 4692, Note_off_c, 2, 77, 0
4, 4704, Note_on_c, 2, 70, 62
4, 4788, Note_off_c, 2, 70, 0
4, 4800, Note_on_c, 2, 67, 62
4, 4884, Note_off_c, 2, 67, 0
4, 4896, Note_on_c, 2, 69, 62
4, 4980, Note_off_c, 2, 69, 0
4, 4992, Note_on_c, 2, 70, 62
4, 5076, Note_off_c, 2, 70, 0
4, 5088, Note_on_c, 2, 74, 62
4, 5268, Note_off_c, 2, 74, 0
4, 5280, Note_on_c, 2, 70, 62
4, 5364, Note_off_c, 2, 70, 0
4, 5376, Note_on_c, 2, 69, 62
4, 5418, Note_off_c, 2, 69, 0
4, 5424, Note_on_c, 2, 67, 62
4, 5466, Note_off_c, 2, 67, 0
4, 5472, Note_on_c, 2, 72, 62
4, 5556, Note_off_c, 2, 72, 0
4, 5568, Note_on_c, 2, 69, 62
4, 5748, Note_off_c, 2, 69, 0
4, 5760, Note_on_c, 2, 67, 62
4, 5844, Note_off_c, 2, 67, 0
4, 5856, Note_on_c, 2, 71, 62
4, 5898, Note_off_c, 2, 71, 0
4, 5904, Note_on_c, 2, 72, 62
4, 5946, Note_off_c, 2, 72, 0
4, 5952, Note_on_c, 2, 74, 62
4, 5962, Note_off_c, 2, 74, 0
4, 5964, Note_on_c, 2, 72, 62
4, 5974, Note_off_c, 2, 72, 0
4, 5976, Note_on_c, 2, 74, 62
4, 5986, Note_off_c, 2, 74, 0
4, 5988, Note_on_c, 2, 72, 62
4, 5998, Note_off_c, 2, 72, 0
4, 6000, Note_on_c, 2, 74, 62
4, 6010, Note_off_c, 2, 74, 0
4, 6012, Note_on_c, 2, 72, 62
4, 6022, Note_off_c, 2, 72, 0
4, 6024, Note_on_c, 2, 74, 62
4, 6034, Note_off_c, 2, 74, 0
4, 6036, Note_on_c, 2, 72, 62
4, 6046, Note_off_c, 2, 72, 0
4, 6048, Note_on_c, 2, 74, 62
4, 6058, Note_off_c, 2, 74, 0
4, 6060, Note_on_c, 2, 72, 62
4, 6070, Note_off_c, 2, 72, 0
4, 6072, Note_on_c, 2, 74, 62
4, 6082, Note_off_c, 2, 74, 0
4, 6084, Note_on_c, 2, 72, 62
4, 6094, Note_off_c, 2, 72, 0
4, 6096, Note_on_c, 2, 71, 62
4, 6117, Note_off_c, 2, 71, 0
4, 6120, Note_on_c, 2, 72, 62
4, 6141, Note_off_c, 2, 72, 0
4, 6144, Note_on_c, 2, 74, 62
4, 6228, Note_off_c, 2, 74, 0
4, 6240, Note_on_c, 2, 72, 62
4, 6282, Note_off_c, 2, 72, 0
4, 6288, Note_on_c, 2, 71, 62
4, 6330, Note_off_c, 2, 71, 0
4, 6336, Note_on_c, 2, 72, 62
4, 6420, Note_off_c, 2, 72, 0
4, 6432, Note_on_c, 2, 77, 62
4, 6474, Note_off_c, 2, 77, 0
4, 6480, Note_on_c, 2, 79, 62
4, 6522, Note_off_c, 2, 79, 0
4, 6528, Note_on_c, 2, 74, 62
4, 6660, Note_off_c, 2, 74, 0
4, 6672, Note_on_c, 2, 72, 62
4, 6714, Note_off_c, 2, 72, 0
4, 6720, Note_on_c, 2, 72, 62
4, 6996, Note_off_c, 2, 72, 0
4, 7008, Note_on_c, 2, 79, 62
4, 7092, Note_off_c, 2, 79, 0
4, 7104, Note_on_c, 2, 82, 62
4, 7188, Note_off_c, 2, 82, 0
4, 7200, Note_on_c, 2, 81, 62
4, 7284, Note_off_c, 2, 81, 0
4, 7296, Note_on_c, 2, 79, 62
4, 7380, Note_off_c, 2, 79, 0
4, 7392, Note_on_c, 2, 77, 62
4, 7434, Note_off_c, 2, 77, 0
4, 7440, Note_on_c, 2, 76, 62
4, 7482, Note_off_c, 2, 76, 0
4, 7488, Note_on_c, 2, 77, 62
4, 7572, Note_off_c, 2, 77, 0
4, 7584, Note_on_c, 2, 79, 62
4, 7668, Note_off_c, 2, 79, 0
4, 7680, Note_on_c, 2, 82, 62
4, 7764, Note_off_c, 2, 82, 0
4, 7776, Note_on_c, 2, 81, 62
4, 7860, Note_off_c, 2, 81, 0
4, 7872, Note_on_c, 2, 81, 62
4, 7882, Note_off_c, 2, 81, 0
4, 7884, Note_on_c, 2, 79, 62
4, 7894, Note_off_c, 2, 79, 0
4, 7896, Note_on_c, 2, 81, 62
4, 7906, Note_off_c, 2, 81, 0
4, 7908, Note_on_c, 2, 79, 62
4, 7918, Note_off_c, 2, 79, 0
4, 7920, Note_on_c, 2, 81, 62
4, 7930, Note_off_c, 2, 81, 0
4, 7932, Note_on_c, 2, 79, 62
4, 7942, Note_off_c, 2, 79, 0
4, 7944, Note_on_c, 2, 81, 62
4, 7954, Note_off_c, 2, 81, 0
4, 7956, Note_on_c, 2, 79, 62
4, 7966, Note_off_c, 2, 79, 0
4, 7968, Note_on_c, 2, 81, 62
4, 7978, Note_off_c, 2, 81, 0
4, 7980, Note_on_c, 2, 79, 62
4, 7990, Note_off_c, 2, 79, 0
4, 7992, Note_on_c, 2, 81, 62
4, 8002, Note_off_c, 2, 81, 0
4, 8004, Note_on_c, 2, 79, 62
4, 8014, Note_off_c, 2, 79, 0
4, 8016, Note_on_c, 2, 81, 62
4, 8026, Note_off_c, 2, 81, 0
4, 8028, Note_on_c, 2, 79, 62
4, 8038, Note_off_c, 2, 79, 0
4, 8040, Note_on_c, 2, 81, 62
4, 8050, Note_off_c, 2, 81, 0
4, 8052, Note_on_c, 2, 79, 62
4, 8062, Note_off_c, 2, 79, 0
4, 8064, Note_on_c, 2, 84, 62
4, 8148, Note_off_c, 2, 84, 0
4, 8160, Note_on_c, 2, 77, 62
4, 8244, Note_off_c, 2, 77, 0
4, 8256, Note_on_c, 2, 74, 62
4, 8340, Note_off_c, 2, 74, 0
4, 8352, Note_on_c, 2, 76, 62
4, 8436, Note_off_c, 2, 76, 0
4, 8448, Note_on_c, 2, 77, 62
4, 8532, Note_off_c, 2, 77, 0
4, 8544, Note_on_c, 2, 81, 62
4, 8724, Note_off_c, 2, 81, 0
4, 8736, Note_on_c, 2, 77, 62
4, 8820, Note_off_c, 2, 77, 0
4, 8832, Note_on_c, 2, 76, 62
4, 8874, Note_off_c, 2, 76, 0
4, 8880, Note_on_c, 2, 74, 62
4, 8922, Note_off_c, 2, 74, 0
4, 8928, Note_on_c, 2, 79, 62
4, 9012, Note_off_c, 2, 79, 0
4, 9024, Note_on_c, 2, 76, 62
4, 9156, Note_off_c, 2, 76, 0
4, 9168, Note_on_c, 2, 77, 62
4, 9210, Note_off_c, 2, 77, 0
4, 9216, Note_on_c, 2, 79, 62
4, 9226, Note_off_c, 2, 79, 0
4, 9228, Note_on_c, 2, 77, 62
4, 9238, Note_off_c, 2, 77, 0
4, 9240, Note_on_c, 2, 79, 62
4, 9250, Note_off_c, 2, 79, 0
4, 9252, Note_on_c, 2, 77, 62
4, 9262, Note_off_c, 2, 77, 0
4, 9264, Note_on_c, 2, 79, 62
4, 9274, Note_off_c, 2, 79, 0
4, 9276, Note_on_c, 2, 77, 62
4, 9286, Note_off_c, 2, 77, 0
4, 9288, Note_on_c, 2, 76, 62
4, 9298, Note_off_c, 2, 76, 0
4, 9300, Note_on_c, 2, 77, 62
4, 9310, Note_off_c, 2, 77, 0
4, 9312, Note_on_c, 2, 79, 62
4, 9354, Note_off_c, 2, 79, 0
4, 9360, Note_on_c, 2, 81, 62
4, 9402, Note_off_c, 2, 81, 0
4, 9408, Note_on_c, 2, 82, 62
4, 9418, Note_off_c, 2, 82, 0
4, 9420, Note_on_c, 2, 81, 62
4, 9430, Note_off_c, 2, 81, 0
4, 9432, Note_on_c, 2, 82, 62
4, 9442, Note_off_c, 2, 82, 0
4, 9444, Note_on_c, 2, 81, 62
4, 9454, Note_off_c, 2, 81, 0
4, 9456, Note_on_c, 2, 82, 62
4, 9466, Note_off_c, 2, 82, 0
4, 9468, Note_on_c, 2, 81, 62
4, 9478, Note_off_c, 2, 81, 0
4, 9480, Note_on_c, 2, 82, 62
4, 9490, Note_off_c, 2, 82, 0
4, 9492, Note_on_c, 2, 81, 62
4, 9502, Note_off_c, 2, 81, 0
4, 9504, Note_on_c, 2, 82, 62
4, 9514, Note_off_c, 2, 82, 0
4, 9516, Note_on_c, 2, 81, 62
4, 9526, Note_off_c, 2, 81, 0
4, 9528, Note_on_c, 2, 82, 62
4, 9538, Note_off_c, 2, 82, 0
4, 9540, Note_on_c, 2, 81, 62
4, 9550, Note_off_c, 2, 81, 0
4, 9552, Note_on_c, 2, 79, 62
4, 9573, Note_off_c, 2, 79, 0
4, 9576, Note_on_c, 2, 81, 62
4, 9597, Note_off_c, 2, 81, 0
4, 9600, Note_on_c, 2, 82, 62
4, 9684, Note_off_c, 2, 82, 0
4, 9696, Note_on_c, 2, 81, 62
4, 9738, Note_off_c, 2, 81, 0
4, 9744, Note_on_c, 2, 79, 62
4, 9786, Note_off_c, 2, 79, 0
4, 9792, Note_on_c, 2, 84, 62
4, 9876, Note_off_c, 2, 84, 0
4, 9888, Note_on_c, 2, 77, 62
4, 9930, Note_off_c, 2, 77, 0
4, 9936, Note_on_c, 2, 79, 62
4, 9978, Note_off_c, 2, 79, 0
4, 9984, Note_on_c, 2, 76, 62
4, 10116, Note_off_c, 2, 76, 0
4, 10128, Note_on_c, 2, 77, 62
4, 10170, Note_off_c, 2, 77, 0
4, 10176, Note_on_c, 2, 77, 62
4, 10452, Note_off_c, 2, 77, 0
4, 10464, Note_on_c, 2, 79, 62
4, 10548, Note_off_c, 2, 79, 0
4, 10560, Note_on_c, 2, 82, 62
4, 10644, Note_off_c, 2, 82, 0
4, 10656, Note_on_c, 2, 81, 62
4, 10740, Note_off_c, 2, 81, 0
4, 10752, Note_on_c, 2, 79, 62
4, 10836, Note_off_c, 2, 79, 0
4, 10848, Note_on_c, 2, 77, 62
4, 10890, Note_off_c, 2, 77, 0
4, 10896, Note_on_c, 2, 76, 62
4, 10938, Note_off_c, 2, 76, 0
4, 10944, Note_on_c, 2, 77, 62
4, 11028, Note_off_c, 2, 77, 0
4, 11040, Note_on_c, 2, 79, 62
4, 11124, Note_off_c, 2, 79, 0
4, 11136, Note_on_c, 2, 82, 62
4, 11220, Note_off_c, 2, 82, 0
4, 11232, Note_on_c, 2, 81, 62
4, 11316, Note_off_c, 2, 81, 0
4, 11328, Note_on_c, 2, 81, 62
4, 11338, Note_off_c, 2, 81, 0
4, 11340, Note_on_c, 2, 79, 62
4, 11350, Note_off_c, 2, 79, 0
4, 11352, Note_on_c, 2, 81, 62
4, 11362, Note_off_c, 2, 81, 0
4, 11364, Note_on_c, 2, 79, 62
4, 11374, Note_off_c, 2, 79, 0
4, 11376, Note_on_c, 2, 81, 62
4, 11386, Note_off_c, 2, 81, 0
4, 11388, Note_on_c, 2, 79, 62
4, 11398, Note_off_c, 2, 79, 0
4, 11400, Note_on_c, 2, 81, 62
4, 11410, Note_off_c, 2, 81, 0
4, 11412, Note_on_c, 2, 79, 62
4, 11422, Note_off_c, 2, 79, 0
4, 11424, Note_on_c, 2, 81, 62
4, 11434, Note_off_c, 2, 81, 0
4, 11436, Note_on_c, 2, 79, 62
4, 11446, Note_off_c, 2, 79, 0
4, 11448, Note_on_c, 2, 81, 62
4, 11458, Note_off_c, 2, 81, 0
4, 11460, Note_on_c, 2, 79, 62
4, 11470, Note_off_c, 2, 79, 0
4, 11472, Note_on_c, 2, 81, 62
4, 11482, Note_off_c, 2, 81, 0
4, 11484, Note_on_c, 2, 79, 62
4, 11494, Note_off_c, 2, 79, 0
4, 11496, Note_on_c, 2, 81, 62
4, 11506, Note_off_c, 2, 81, 0
4, 11508, Note_on_c, 2, 79, 62
4, 11518, Note_off_c, 2, 79, 0
4, 11520, Note_on_c, 2, 84, 62
4, 11604, Note_off_c, 2, 84, 0
4, 11616, Note_on_c, 2, 77, 62
4, 11700, Note_off_c, 2, 77, 0
4, 11712, Note_on_c, 2, 74, 62
4, 11796, Note_off_c, 2, 74, 0
4, 11808, Note_on_c, 2, 76, 62
4, 11892, Note_off_c, 2, 76, 0
4, 11904, Note_on_c, 2, 77, 62
4, 11988, Note_off_c, 2, 77, 0
4, 12000, Note_on_c, 2, 81, 62
4, 12180, Note_off_c, 2, 81, 0
4, 12192, Note_on_c, 2, 77, 62
4, 12276, Note_off_c, 2, 77, 0
4, 12288, Note_on_c, 2, 76, 62
4, 12330, Note_off_c, 2, 76, 0
4, 12336, Note_on_c, 2, 74, 62
4, 12378, Note_off_c, 2, 74, 0
4, 12384, Note_on_c, 2, 79, 62
4, 12468, Note_off_c, 2, 79, 0
4, 12480, Note_on_c, 2, 76, 62
4, 12612, Note_off_c, 2, 76, 0
4, 12624, Note_on_c, 2, 77, 62
4, 12666, Note_off_c, 2, 77, 0
4, 12672, Note_on_c, 2, 79, 62
4, 12682, Note_off_c, 2, 79, 0
4, 12684, Note_on_c, 2, 77, 62
4, 12694, Note_off_c, 2, 77, 0
4, 12696, Note_on_c, 2, 79, 62
4, 12706, Note_off_c, 2, 79, 0
4, 12708, Note_on_c, 2, 77, 62
4, 12718, Note_off_c, 2, 77, 0
4, 12720, Note_on_c, 2, 79, 62
4, 12730, Note_off_c, 2, 79, 0
4, 12732, Note_on_c, 2, 77, 62
4, 12742, Note_off_c, 2, 77, 0
4, 12744, Note_on_c, 2, 76, 62
4, 12754, Note_off_c, 2, 76, 0
4, 12756, Note_on_c, 2, 77, 62
4, 12766, Note_off_c, 2, 77, 0
4, 12768, Note_on_c, 2, 79, 62
4, 12810, Note_off_c, 2, 79, 0
4, 12816, Note_on_c, 2, 81, 62
4, 12858, Note_off_c, 2, 81, 0
4, 12864, Note_on_c, 2, 82, 62
4, 12874, Note_off_c, 2, 82, 0
4, 12876, Note_on_c, 2, 81, 62
4, 12886, Note_off_c, 2, 81, 0
4, 12888, Note_on_c, 2, 82, 62
4, 12898, Note_off_c, 2, 82, 0
4, 12900, Note_on_c, 2, 81, 62
4, 12910, Note_off_c, 2, 81, 0
4, 12912, Note_on_c, 2, 82, 62
4, 12922, Note_off_c, 2, 82, 0
4, 12924, Note_on_c, 2, 81, 62
4, 12934, Note_off_c, 2, 81, 0
4, 12936, Note_on_c, 2, 82, 62
4, 12946, Note_off_c, 2, 82, 0
4, 12948, Note_on_c, 2, 81, 62
4, 12958, Note_off_c, 2, 81, 0
4, 12960, Note_on_c, 2, 82, 62
4, 12970, Note_off_c, 2, 82, 0
4, 12972, Note_on_c, 2, 81, 62
4, 12982, Note_off_c, 2, 81, 0
4, 12984, Note_on_c, 2, 82, 62
4, 12994, Note_off_c, 2, 82, 0
4, 12996, Note_on_c, 2, 81, 62
4, 13006, Note_off_c, 2, 81, 0
4, 13008, Note_on_c, 2, 79, 62
4, 13029, Note_off_c, 2, 79, 0
4, 13032, Note_on_c, 2, 81, 62
4, 13053, Note_off_c, 2, 81, 0
4, 13056, Note_on_c, 2, 82, 62
4, 13140, Note_off_c, 2, 82, 0
4, 13152, Note_on_c, 2, 81, 62
4, 13194, Note_off_c, 2, 81, 0
4, 13200, Note_on_c, 2, 79, 62
4, 13242, Note_off_c, 2, 79, 0
4, 13248, Note_on_c, 2, 84, 62
4, 13332, Note_off_c, 2, 84, 0
4, 13344, Note_on_c, 2, 77, 62
4, 13386, Note_off_c, 2, 77, 0
4, 13392, Note_on_c, 2, 79, 62
4, 13434, Note_off_c, 2, 79, 0
4, 13440, Note_on_c, 2, 76, 62
4, 13572, Note_off_c, 2, 76, 0
4, 13584, Note_on_c, 2, 77, 62
4, 13626, Note_off_c, 2, 77, 0
4, 13632, Note_on_c, 2, 77, 62
4, 13908, Note_off_c, 2, 77, 0
4, 14112, Time_signature, 2, 2, 96, 8
4, 14208, Tempo, 500000
4, 14208, Note_on_c, 2, 65, 96
4, 14250, Note_off_c, 2, 65, 0
4, 14256, Note_on_c, 2, 64, 96
4, 14298, Note_off_c, 2, 64, 0
4, 14304, Note_on_c, 2, 62, 96
4, 14346, Note_off_c, 2, 62, 0
4, 14352, Note_on_c, 2, 65, 96
4, 14394, Note_off_c, 2, 65, 0
4, 14400, Note_on_c, 2, 67, 96
4, 14484, Note_off_c, 2, 67, 0
4, 14496, Note_on_c, 2, 60, 96
4, 14538, Note_off_c, 2, 60, 0
4, 14544, Note_on_c, 2, 64, 96
4, 14586, Note_off_c, 2, 64, 0
4, 14592, Note_on_c, 2, 65, 96
4, 14634, Note_off_c, 2, 65, 0
4, 14640, Note_on_c, 2, 69, 96
4, 14682, Note_off_c, 2, 69, 0
4, 14688, Note_on_c, 2, 65, 96
4, 14730, Note_off_c, 2, 65, 0
4, 14736, Note_on_c, 2, 69, 96
4, 14778, Note_off_c, 2, 69, 0
4, 14784, Note_on_c, 2, 72, 96
4, 14868, Note_off_c, 2, 72, 0
4, 14880, Note_on_c, 2, 60, 96
4, 14922, Note_off_c, 2, 60, 0
4, 14928, Note_on_c, 2, 64, 96
4, 14970, Note_off_c, 2, 64, 0
4, 14976, Note_on_c, 2, 65, 96
4, 15018, Note_off_c, 2, 65, 0
4, 15024, Note_on_c, 2, 69, 96
4, 15066, Note_off_c, 2, 69, 0
4, 15072, Note_on_c, 2, 65, 96
4, 15114, Note_off_c, 2, 65, 0
4, 15120, Note_on_c, 2, 69, 96
4, 15162, Note_off_c, 2, 69, 0
4, 15168, Note_on_c, 2, 65, 96
4, 15210, Note_off_c, 2, 65, 0
4, 15216, Note_on_c, 2, 69, 96
4, 15258, Note_off_c, 2, 69, 0
4, 15264, Note_on_c, 2, 65, 96
4, 15306, Note_off_c, 2, 65, 0
4, 15312, Note_on_c, 2, 69, 96
4, 15354, Note_off_c, 2, 69, 0
4, 15360, Note_on_c, 2, 65, 96
4, 15402, Note_off_c, 2, 65, 0
4, 15408, Note_on_c, 2, 69, 96
4, 15450, Note_off_c, 2, 69, 0
4, 15456, Note_on_c, 2, 72, 96
4, 15498, Note_off_c, 2, 72, 0
4, 15504, Note_on_c, 2, 77, 96
4, 15546, Note_off_c, 2, 77, 0
4, 15552, Note_on_c, 2, 76, 96
4, 15573, Note_off_c, 2, 76, 0
4, 15576, Note_on_c, 2, 74, 96
4, 15597, Note_off_c, 2, 74, 0
4, 15600, Note_on_c, 2, 76, 96
4, 15621, Note_off_c, 2, 76, 0
4, 15624, Note_on_c, 2, 77, 96
4, 15645, Note_off_c, 2, 77, 0
4, 15648, Note_on_c, 2, 76, 96
4, 15690, Note_off_c, 2, 76, 0
4, 15696, Note_on_c, 2, 72, 96
4, 15738, Note_off_c, 2, 72, 0
4, 15744, Note_on_c, 2, 65, 96
4, 15786, Note_off_c, 2, 65, 0
4, 15792, Note_on_c, 2, 64, 96
4, 15834, Note_off_c, 2, 64, 0
4, 15840, Note_on_c, 2, 62, 96
4, 15882, Note_off_c, 2, 62, 0
4, 15888, Note_on_c, 2, 65, 96
4, 15930, Note_off_c, 2, 65, 0
4, 15936, Note_on_c, 2, 67, 96
4, 16020, Note_off_c, 2, 67, 0
4, 16032, Note_on_c, 2, 60, 96
4, 16074, Note_off_c, 2, 60, 0
4, 16080, Note_on_c, 2, 64, 96
4, 16122, Note_off_c, 2, 64, 0
4, 16128, Note_on_c, 2, 65, 96
4, 16170, Note_off_c, 2, 65, 0
4, 16176, Note_on_c, 2, 69, 96
4, 16218, Note_off_c, 2, 69, 0
4, 16224, Note_on_c, 2, 65, 96
4, 16266, Note_off_c, 2, 65, 0
4, 16272, Note_on_c, 2, 69, 96
4, 16314, Note_off_c, 2, 69, 0
4, 16320, Note_on_c, 2, 72, 96
4, 16404, Note_off_c, 2, 72, 0
4, 16416, Note_on_c, 2, 60, 96
4, 16458, Note_off_c, 2, 60, 0
4, 16464, Note_on_c, 2, 64, 96
4, 16506, Note_off_c, 2, 64, 0
4, 16512, Note_on_c, 2, 65, 96
4, 16554, Note_off_c, 2, 65, 0
4, 16560, Note_on_c, 2, 69, 96
4, 16602, Note_off_c, 2, 69, 0
4, 16608, Note_on_c, 2, 65, 96
4, 16650, Note_off_c, 2, 65, 0
4, 16656, Note_on_c, 2, 69, 96
4, 16698, Note_off_c, 2, 69, 0
4, 16704, Note_on_c, 2, 65, 96
4, 16746, Note_off_c, 2, 65, 0
4, 16752, Note_on_c, 2, 69, 96
4, 16794, Note_off_c, 2, 69, 0
4, 16800, Note_on_c, 2, 65, 96
4, 16842, Note_off_c, 2, 65, 0
4, 16848, Note_on_c, 2, 69, 96
4, 16890, Note_off_c, 2, 69, 0
4, 16896, Note_on_c, 2, 65, 96
4, 16938, Note_off_c, 2, 65, 0
4, 16944, Note_on_c, 2, 69, 96
4, 16986, Note_off_c, 2, 69, 0
4, 16992, Note_on_c, 2, 72, 96
4, 17034, Note_off_c, 2, 72, 0
4, 17040, Note_on_c, 2, 77, 96
4, 17082, Note_off_c, 2, 77, 0
4, 17088, Note_on_c, 2, 76, 96
4, 17268, Note_off_c, 2, 76, 0
4, 17280, Tempo, 500000
4, 17280, Note_on_c, 2, 65, 96
4, 17322, Note_off_c, 2, 65, 0
4, 17328, Note_on_c, 2, 64, 96
4, 17370, Note_off_c, 2, 64, 0
4, 17376, Note_on_c, 2, 62, 96
4, 17418, Note_off_c, 2, 62, 0
4, 17424, Note_on_c, 2, 65, 96
4, 17466, Note_off_c, 2, 65, 0
4, 17472, Note_on_c, 2, 67, 96
4, 17556, Note_off_c, 2, 67, 0
4, 17568, Note_on_c, 2, 60, 96
4, 17610, Note_off_c, 2, 60, 0
4, 17616, Note_on_c, 2, 64, 96
4, 17658, Note_off_c, 2, 64, 0
4, 17664, Note_on_c, 2, 65, 96
4, 17706, Note_off_c, 2, 65, 0
4, 17712, Note_on_c, 2, 69, 96
4, 17754, Note_off_c, 2, 69, 0
4, 17760, Note_on_c, 2, 65, 96
4, 17802, Note_off_c, 2, 65, 0
4, 17808, Note_on_c, 2, 69, 96
4, 17850, Note_off_c, 2, 69, 0
4, 17856, Note_on_c, 2, 72, 96
4, 17940, Note_off_c, 2, 72, 0
4, 17952, Note_on_c, 2, 60, 96
4, 17994, Note_off_c, 2, 60, 0
4, 18000, Note_on_c, 2, 64, 96
4, 18042, Note_off_c, 2, 64, 0
4, 18048, Note_on_c, 2, 65, 96
4, 18090, Note_off_c, 2, 65, 0
4, 18096, Note_on_c, 2, 69, 96
4, 18138, Note_off_c, 2, 69, 0
4, 18144, Note_on_c, 2, 65, 96
4, 18186, Note_off_c, 2, 65, 0
4, 18192, Note_on_c, 2, 69, 96
4, 18234, Note_off_c, 2, 69, 0
4, 18240, Note_on_c, 2, 65, 96
4, 18282, Note_off_c, 2, 65, 0
4, 18288, Note_on_c, 2, 69, 96
4, 18330, Note_off_c, 2, 69, 0
4, 18336, Note_on_c, 2, 65, 96
4, 18378, Note_off_c, 2, 65, 0
4, 18384, Note_on_c, 2, 69, 96
4, 18426, Note_off_c, 2, 69, 0
4, 18432, Note_on_c, 2, 65, 96
4, 18474, Note_off_c, 2, 65, 0
4, 18480, Note_on_c, 2, 69, 96
4, 18522, Note_off_c, 2, 69, 0
4, 18528, Note_on_c, 2, 72, 96
4, 18570, Note_off_c, 2, 72, 0
4, 18576, Note_on_c, 2, 77, 96
4, 18618, Note_off_c, 2, 77, 0
4, 18624, Note_on_c, 2, 76, 96
4, 18645, Note_off_c, 2, 76, 0
4, 18648, Note_on_c, 2, 74, 96
4, 18669, Note_off_c, 2, 74, 0
4, 18672, Note_on_c, 2, 76, 96
4, 18693, Note_off_c, 2, 76, 0
4, 18696, Note_on_c, 2, 77, 96
4, 18717, Note_off_c, 2, 77, 0
4, 18720, Note_on_c, 2, 76, 96
4, 18762, Note_off_c, 2, 76, 0
4, 18768, Note_on_c, 2, 72, 96
4, 18810, Note_off_c, 2, 72, 0
4, 18816, Note_on_c, 2, 65, 96
4, 18858, Note_off_c, 2, 65, 0
4, 18864, Note_on_c, 2, 64, 96
4, 18906, Note_off_c, 2, 64, 0
4, 18912, Note_on_c, 2, 62, 96
4, 18954, Note_off_c, 2, 62, 0
4, 18960, Note_on_c, 2, 65, 96
4, 19002, Note_off_c, 2, 65, 0
4, 19008, Note_on_c, 2, 67, 96
4, 19092, Note_off_c, 2, 67, 0
4, 19104, Note_on_c, 2, 60, 96
4, 19146, Note_off_c, 2, 60, 0
4, 19152, Note_on_c, 2, 64, 96
4, 19194, Note_off_c, 2, 64, 0
4, 19200, Note_on_c, 2, 65, 96
4, 19242, Note_off_c, 2, 65, 0
4, 19248, Note_on_c, 2, 69, 96
4, 19290, Note_off_c, 2, 69, 0
4, 19296, Note_on_c, 2, 65, 96
4, 19338, Note_off_c, 2, 65, 0
4, 19344, Note_on_c, 2, 69, 96
4, 19386, Note_off_c, 2, 69, 0
4, 19392, Note_on_c, 2, 72, 96
4, 19476, Note_off_c, 2, 72, 0
4, 19488, Note_on_c, 2, 60, 96
4, 19530, Note_off_c, 2, 60, 0
4, 19536, Note_on_c, 2, 64, 96
4, 19578, Note_off_c, 2, 64, 0
4, 19584, Note_on_c, 2, 65, 96
4, 19626, Note_off_c, 2, 65, 0
4, 19632, Note_on_c, 2, 69, 96
4, 19674, Note_off_c, 2, 69, 0
4, 19680, Note_on_c, 2, 65, 96
4, 19722, Note_off_c, 2, 65, 0
4, 19728, Note_on_c, 2, 69, 96
4, 19770, Note_off_c, 2, 69, 0
4, 19776, Note_on_c, 2, 65, 96
4, 19818, Note_off_c, 2, 65, 0
4, 19824, Note_on_c, 2, 69, 96
4, 19866, Note_off_c, 2, 69, 0
4, 19872, Note_on_c, 2, 65, 96
4, 19914, Note_off_c, 2, 65, 0
4, 19920, Note_on_c, 2, 69, 96
4, 19962, Note_off_c, 2, 69, 0
4, 19968, Note_on_c, 2, 65, 96
4, 20010, Note_off_c, 2, 65, 0
4, 20016, Note_on_c, 2, 69, 96
4, 20058, Note_off_c, 2, 69, 0
4, 20064, Note_on_c, 2, 72, 96
4, 20106, Note_off_c, 2, 72, 0
4, 20112, Note_on_c, 2, 77, 96
4, 20154, Note_off_c, 2, 77, 0
4, 20160, Note_on_c, 2, 76, 96
4, 20340, Note_off_c, 2, 76, 0
4, 20352, Note_on_c, 2, 64, 96
4, 20394, Note_off_c, 2, 64, 0
4, 20400, Note_on_c, 2, 72, 96
4, 20442, Note_off_c, 2, 72, 0
4, 20448, Note_on_c, 2, 60, 96
4, 20490, Note_off_c, 2, 60, 0
4, 20496, Note_on_c, 2, 72, 96
4, 20538, Note_off_c, 2, 72, 0
4, 20544, Note_on_c, 2, 65, 96
4, 20586, Note_off_c, 2, 65, 0
4, 20592, Note_on_c, 2, 72, 96
4, 20634, Note_off_c, 2, 72, 0
4, 20640, Note_on_c, 2, 60, 96
4, 20682, Note_off_c, 2, 60, 0
4, 20688, Note_on_c, 2, 72, 96
4, 20730, Note_off_c, 2, 72, 0
4, 20736, Note_on_c, 2, 64, 96
4, 20778, Note_off_c, 2, 64, 0
4, 20784, Note_on_c, 2, 72, 96
4, 20826, Note_off_c, 2, 72, 0
4, 20832, Note_on_c, 2, 60, 96
4, 20874, Note_off_c, 2, 60, 0
4, 20880, Note_on_c, 2, 72, 96
4, 20922, Note_off_c, 2, 72, 0
4, 20928, Note_on_c, 2, 65, 96
4, 20970, Note_off_c, 2, 65, 0
4, 20976, Note_on_c, 2, 72, 96
4, 21018, Note_off_c, 2, 72, 0
4, 21024, Note_on_c, 2, 60, 96
4, 21066, Note_off_c, 2, 60, 0
4, 21072, Note_on_c, 2, 72, 96
4, 21114, Note_off_c, 2, 72, 0
4, 21120, Note_on_c, 2, 64, 96
4, 21162, Note_off_c, 2, 64, 0
4, 21168, Note_on_c, 2, 67, 96
4, 21210, Note_off_c, 2, 67, 0
4, 21216, Note_on_c, 2, 64, 96
4, 21258, Note_off_c, 2, 64, 0
4, 21264, Note_on_c, 2, 67, 96
4, 21306, Note_off_c, 2, 67, 0
4, 21312, Note_on_c, 2, 65, 96
4, 21354, Note_off_c, 2, 65, 0
4, 21360, Note_on_c, 2, 69, 96
4, 21402, Note_off_c, 2, 69, 0
4, 21408, Note_on_c, 2, 65, 96
4, 21450, Note_off_c, 2, 65, 0
4, 21456, Note_on_c, 2, 69, 96
4, 21498, Note_off_c, 2, 69, 0
4, 21504, Note_on_c, 2, 70, 96
4, 21525, Note_off_c, 2, 70, 0
4, 21528, Note_on_c, 2, 69, 96
4, 21549, Note_off_c, 2, 69, 0
4, 21552, Note_on_c, 2, 70, 96
4, 21573, Note_off_c, 2, 70, 0
4, 21576, Note_on_c, 2, 72, 96
4, 21597, Note_off_c, 2, 72, 0
4, 21600, Note_on_c, 2, 74, 96
4, 21621, Note_off_c, 2, 74, 0
4, 21624, Note_on_c, 2, 76, 96
4, 21645, Note_off_c, 2, 76, 0
4, 21648, Note_on_c, 2, 77, 96
4, 21669, Note_off_c, 2, 77, 0
4, 21672, Note_on_c, 2, 74, 96
4, 21693, Note_off_c, 2, 74, 0
4, 21696, Note_on_c, 2, 76, 96
4, 21717, Note_off_c, 2, 76, 0
4, 21720, Note_on_c, 2, 74, 96
4, 21741, Note_off_c, 2, 74, 0
4, 21744, Note_on_c, 2, 76, 96
4, 21765, Note_off_c, 2, 76, 0
4, 21768, Note_on_c, 2, 77, 96
4, 21789, Note_off_c, 2, 77, 0
4, 21792, Note_on_c, 2, 76, 96
4, 21813, Note_off_c, 2, 76, 0
4, 21816, Note_on_c, 2, 77, 96
4, 21837, Note_off_c, 2, 77, 0
4, 21840, Note_on_c, 2, 79, 96
4, 21861, Note_off_c, 2, 79, 0
4, 21864, Note_on_c, 2, 77, 96
4, 21885, Note_off_c, 2, 77, 0
4, 21888, Note_on_c, 2, 76, 96
4, 21930, Note_off_c, 2, 76, 0
4, 21936, Note_on_c, 2, 72, 96
4, 21978, Note_off_c, 2, 72, 0
4, 21984, Note_on_c, 2, 60, 96
4, 22026, Note_off_c, 2, 60, 0
4, 22032, Note_on_c, 2, 72, 96
4, 22074, Note_off_c, 2, 72, 0
4, 22080, Note_on_c, 2, 65, 96
4, 22122, Note_off_c, 2, 65, 0
4, 22128, Note_on_c, 2, 72, 96
4, 22170, Note_off_c, 2, 72, 0
4, 22176, Note_on_c, 2, 60, 96
4, 22218, Note_off_c, 2, 60, 0
4, 22224, Note_on_c, 2, 72, 96
4, 22266, Note_off_c, 2, 72, 0
4, 22272, Note_on_c, 2, 64, 96
4, 22314, Note_off_c, 2, 64, 0
4, 22320, Note_on_c, 2, 72, 96
4, 22362, Note_off_c, 2, 72, 0
4, 22368, Note_on_c, 2, 60, 96
4, 22410, Note_off_c, 2, 60, 0
4, 22416, Note_on_c, 2, 72, 96
4, 22458, Note_off_c, 2, 72, 0
4, 22464, Note_on_c, 2, 65, 96
4, 22506, Note_off_c, 2, 65, 0
4, 22512, Note_on_c, 2, 72, 96
4, 22554, Note_off_c, 2, 72, 0
4, 22560, Note_on_c, 2, 60, 96
4, 22602, Note_off_c, 2, 60, 0
4, 22608, Note_on_c, 2, 72, 96
4, 22650, Note_off_c, 2, 72, 0
4, 22656, Note_on_c, 2, 64, 96
4, 22698, Note_off_c, 2, 64, 0
4, 22704, Note_on_c, 2, 67, 96
4, 22746, Note_off_c, 2, 67, 0
4, 22752, Note_on_c, 2, 64, 96
4, 22794, Note_off_c, 2, 64, 0
4, 22800, Note_on_c, 2, 67, 96
4, 22842, Note_off_c, 2, 67, 0
4, 22848, Note_on_c, 2, 65, 96
4, 22890, Note_off_c, 2, 65, 0
4, 22896, Note_on_c, 2, 69, 96
4, 22938, Note_off_c, 2, 69, 0
4, 22944, Note_on_c, 2, 65, 96
4, 22986, Note_off_c, 2, 65, 0
4, 22992, Note_on_c, 2, 69, 96
4, 23034, Note_off_c, 2, 69, 0
4, 23040, Note_on_c, 2, 65, 96
4, 23082, Note_off_c, 2, 65, 0
4, 23088, Note_on_c, 2, 77, 96
4, 23130, Note_off_c, 2, 77, 0
4, 23136, Note_on_c, 2, 77, 96
4, 23146, Note_off_c, 2, 77, 0
4, 23148, Note_on_c, 2, 76, 96
4, 23158, Note_off_c, 2, 76, 0
4, 23160, Note_on_c, 2, 77, 96
4, 23170, Note_off_c, 2, 77, 0
4, 23172, Note_on_c, 2, 76, 96
4, 23182, Note_off_c, 2, 76, 0
4, 23184, Note_on_c, 2, 74, 96
4, 23205, Note_off_c, 2, 74, 0
4, 23208, Note_on_c, 2, 76, 96
4, 23229, Note_off_c, 2, 76, 0
4, 23232, Note_on_c, 2, 77, 96
4, 23412, Note_off_c, 2, 77, 0
4, 23424, Note_on_c, 2, 64, 96
4, 23466, Note_off_c, 2, 64, 0
4, 23472, Note_on_c, 2, 72, 96
4, 23514, Note_off_c, 2, 72, 0
4, 23520, Note_on_c, 2, 60, 96
4, 23562, Note_off_c, 2, 60, 0
4, 23568, Note_on_c, 2, 72, 96
4, 23610, Note_off_c, 2, 72, 0
4, 23616, Note_on_c, 2, 65, 96
4, 23658, Note_off_c, 2, 65, 0
4, 23664, Note_on_c, 2, 72, 96
4, 23706, Note_off_c, 2, 72, 0
4, 23712, Note_on_c, 2, 60, 96
4, 23754, Note_off_c, 2, 60, 0
4, 23760, Note_on_c, 2, 72, 96
4, 23802, Note_off_c, 2, 72, 0
4, 23808, Note_on_c, 2, 64, 96
4, 23850, Note_off_c, 2, 64, 0
4, 23856, Note_on_c, 2, 72, 96
4, 23898, Note_off_c, 2, 72, 0
4, 23904, Note_on_c, 2, 60, 96
4, 23946, Note_off_c, 2, 60, 0
4, 23952, Note_on_c, 2, 72, 96
4, 23994, Note_off_c, 2, 72, 0
4, 24000, Note_on_c, 2, 65, 96
4, 24042, Note_off_c, 2, 65, 0
4, 24048, Note_on_c, 2, 72, 96
4, 24090, Note_off_c, 2, 72, 0
4, 24096, Note_on_c, 2, 60, 96
4, 24138, Note_off_c, 2, 60, 0
4, 24144, Note_on_c, 2, 72, 96
4, 24186, Note_off_c, 2, 72, 0
4, 24192, Note_on_c, 2, 64, 96
4, 24234, Note_off_c, 2, 64, 0
4, 24240, Note_on_c, 2, 67, 96
4, 24282, Note_off_c, 2, 67, 0
4, 24288, Note_on_c, 2, 64, 96
4, 24330, Note_off_c, 2, 64, 0
4, 24336, Note_on_c, 2, 67, 96
4, 24378, Note_off_c, 2, 67, 0
4, 24384, Note_on_c, 2, 65, 96
4, 24426, Note_off_c, 2, 65, 0
4, 24432, Note_on_c, 2, 69, 96
4, 24474, Note_off_c, 2, 69, 0
4, 24480, Note_on_c, 2, 65, 96
4, 24522, Note_off_c, 2, 65, 0
4, 24528, Note_on_c, 2, 69, 96
4, 24570, Note_off_c, 2, 69, 0
4, 24576, Note_on_c, 2, 70, 96
4, 24597, Note_off_c, 2, 70, 0
4, 24600, Note_on_c, 2, 69, 96
4, 24621, Note_off_c, 2, 69, 0
4, 24624, Note_on_c, 2, 70, 96
4, 24645, Note_off_c, 2, 70, 0
4, 24648, Note_on_c, 2, 72, 96
4, 24669, Note_off_c, 2, 72, 0
4, 24672, Note_on_c, 2, 74, 96
4, 24693, Note_off_c, 2, 74, 0
4, 24696, Note_on_c, 2, 76, 96
4, 24717, Note_off_c, 2, 76, 0
4, 24720, Note_on_c, 2, 77, 96
4, 24741, Note_off_c, 2, 77, 0
4, 24744, Note_on_c, 2, 74, 96
4, 24765, Note_off_c, 2, 74, 0
4, 24768, Note_on_c, 2, 76, 96
4, 24789, Note_off_c, 2, 76, 0
4, 24792, Note_on_c, 2, 74, 96
4, 24813, Note_off_c, 2, 74, 0
4, 24816, Note_on_c, 2, 76, 96
4, 24837, Note_off_c, 2, 76, 0
4, 24840, Note_on_c, 2, 77, 96
4, 24861, Note_off_c, 2, 77, 0
4, 24864, Note_on_c, 2, 76, 96
4, 24885, Note_off_c, 2, 76, 0
4, 24888, Note_on_c, 2, 77, 96
4, 24909, Note_off_c, 2, 77, 0
4, 24912, Note_on_c, 2, 79, 96
4, 24933, Note_off_c, 2, 79, 0
4, 24936, Note_on_c, 2, 77, 96
4, 24957, Note_off_c, 2, 77, 0
4, 24960, Note_on_c, 2, 76, 96
4, 25002, Note_off_c, 2, 76, 0
4, 25008, Note_on_c, 2, 72, 96
4, 25050, Note_off_c, 2, 72, 0
4, 25056, Note_on_c, 2, 60, 96
4, 25098, Note_off_c, 2, 60, 0
4, 25104, Note_on_c, 2, 72, 96
4, 25146, Note_off_c, 2, 72, 0
4, 25152, Note_on_c, 2, 65, 96
4, 25194, Note_off_c, 2, 65, 0
4, 25200, Note_on_c, 2, 72, 96
4, 25242, Note_off_c, 2, 72, 0
4, 25248, Note_on_c, 2, 60, 96
4, 25290, Note_off_c, 2, 60, 0
4, 25296, Note_on_c, 2, 72, 96
4, 25338, Note_off_c, 2, 72, 0
4, 25344, Note_on_c, 2, 64, 96
4, 25386, Note_off_c, 2, 64, 0
4, 25392, Note_on_c, 2, 72, 96
4, 25434, Note_off_c, 2, 72, 0
4, 25440, Note_on_c, 2, 60, 96
4, 25482, Note_off_c, 2, 60, 0
4, 25488, Note_on_c, 2, 72, 96
4, 25530, Note_off_c, 2, 72, 0
4, 25536, Note_on_c, 2, 65, 96
4, 25578, Note_off_c, 2, 65, 0
4, 25584, Note_on_c, 2, 72, 96
4, 25626, Note_off_c, 2, 72, 0
4, 25632, Note_on_c, 2, 60, 96
4, 25674, Note_off_c, 2, 60, 0
4, 25680, Note_on_c, 2, 72, 96
4, 25722, Note_off_c, 2, 72, 0
4, 25728, Note_on_c, 2, 64, 96
4, 25770, Note_off_c, 2, 64, 0
4, 25776, Note_on_c, 2, 67, 96
4, 25818, Note_off_c, 2, 67, 0
4, 25824, Note_on_c, 2, 64, 96
4, 25866, Note_off_c, 2, 64, 0
4, 25872, Note_on_c, 2, 67, 96
4, 25914, Note_off_c, 2, 67, 0
4, 25920, Note_on_c, 2, 65, 96
4, 25962, Note_off_c, 2, 65, 0
4, 25968, Note_on_c, 2, 69, 96
4, 26010, Note_off_c, 2, 69, 0
4, 26016, Note_on_c, 2, 65, 96
4, 26058, Note_off_c, 2, 65, 0
4, 26064, Note_on_c, 2, 69, 96
4, 26106, Note_off_c, 2, 69, 0
4, 26112, Note_on_c, 2, 65, 96
4, 26154, Note_off_c, 2, 65, 0
4, 26160, Note_on_c, 2, 77, 96
4, 26202, Note_off_c, 2, 77, 0
4, 26208, Note_on_c, 2, 77, 96
4, 26218, Note_off_c, 2, 77, 0
4, 26220, Note_on_c, 2, 76, 96
4, 26230, Note_off_c, 2, 76, 0
4, 26232, Note_on_c, 2, 77, 96
4, 26242, Note_off_c, 2, 77, 0
4, 26244, Note_on_c, 2, 76, 96
4, 26254, Note_off_c, 2, 76, 0
4, 26256, Note_on_c, 2, 74, 96
4, 26277, Note_off_c, 2, 74, 0
4, 26280, Note_on_c, 2, 76, 96
4, 26301, Note_off_c, 2, 76, 0
4, 26304, Note_on_c, 2, 77, 96
4, 26484, Note_off_c, 2, 77, 0
4, 26784, Time_signature, 3, 2, 96, 8
4, 26880, Tempo, 428571
4, 26880, Note_on_c, 2, 72, 62
4, 26964, Note_off_c, 2, 72, 0
4, 26976, Note_on_c, 2, 75, 62
4, 27060, Note_off_c, 2, 75, 0
4, 27072, Note_on_c, 2, 74, 62
4, 27156, Note_off_c, 2, 74, 0
4, 27168, Note_on_c, 2, 72, 62
4, 27252, Note_off_c, 2, 72, 0
4, 27264, Note_on_c, 2, 70, 62
4, 27306, Note_off_c, 2, 70, 0
4, 27312, Note_on_c, 2, 69, 62
4, 27354, Note_off_c, 2, 69, 0
4, 27360, Note_on_c, 2, 70, 62
4, 27444, Note_off_c, 2, 70, 0
4, 27456, Note_on_c, 2, 72, 62
4, 27540, Note_off_c, 2, 72, 0
4, 27552, Note_on_c, 2, 75, 62
4, 27636, Note_off_c, 2, 75, 0
4, 27648, Note_on_c, 2, 74, 62
4, 27732, Note_off_c, 2, 74, 0
4, 27744, Note_on_c, 2, 74, 62
4, 27754, Note_off_c, 2, 74, 0
4, 27756, Note_on_c, 2, 72, 62
4, 27766, Note_off_c, 2, 72, 0
4, 27768, Note_on_c, 2, 74, 62
4, 27778, Note_off_c, 2, 74, 0
4, 27780, Note_on_c, 2, 72, 62
4, 27790, Note_off_c, 2, 72, 0
4, 27792, Note_on_c, 2, 74, 62
4, 27802, Note_off_c, 2, 74, 0
4, 27804, Note_on_c, 2, 72, 62
4, 27814, Note_off_c, 2, 72, 0
4, 27816, Note_on_c, 2, 74, 62
4, 27826, Note_off_c, 2, 74, 0
4, 27828, Note_on_c, 2, 72, 62
4, 27838, Note_off_c, 2, 72, 0
4, 27840, Note_on_c, 2, 74, 62
4, 27850, Note_off_c, 2, 74, 0
4, 27852, Note_on_c, 2, 72, 62
4, 27862, Note_off_c, 2, 72, 0
4, 27864, Note_on_c, 2, 74, 62
4, 27874, Note_off_c, 2, 74, 0
4, 27876, Note_on_c, 2, 72, 62
4, 27886, Note_off_c, 2, 72, 0
4, 27888, Note_on_c, 2, 74, 62
4, 27898, Note_off_c, 2, 74, 0
4, 27900, Note_on_c, 2, 72, 62
4, 27910, Note_off_c, 2, 72, 0
4, 27912, Note_on_c, 2, 74, 62
4, 27922, Note_off_c, 2, 74, 0
4, 27924, Note_on_c, 2, 72, 62
4, 27934, Note_off_c, 2, 72, 0
4, 27936, Note_on_c, 2, 77, 62
4, 28020, Note_off_c, 2, 77, 0
4, 28032, Note_on_c, 2, 70, 62
4, 28116, Note_off_c, 2, 70, 0
4, 28128, Note_on_c, 2, 67, 62
4, 28212, Note_off_c, 2, 67, 0
4, 28224, Note_on_c, 2, 69, 62
4, 28308, Note_off_c, 2, 69, 0
4, 28320, Note_on_c, 2, 70, 62
4, 28404, Note_off_c, 2, 70, 0
4, 28416, Note_on_c, 2, 74, 62
4, 28596, Note_off_c, 2, 74, 0
4, 28608, Note_on_c, 2, 70, 62
4, 28692, Note_off_c, 2, 70, 0
4, 28704, Note_on_c, 2, 69, 62
4, 28746, Note_off_c, 2, 69, 0
4, 28752, Note_on_c, 2, 67, 62
4, 28794, Note_off_c, 2, 67, 0
4, 28800, Note_on_c, 2, 72, 62
4, 28884, Note_off_c, 2, 72, 0
4, 28896, Note_on_c, 2, 69, 62
4, 29076, Note_off_c, 2, 69, 0
4, 29088, Note_on_c, 2, 67, 62
4, 29172, Note_off_c, 2, 67, 0
4, 29184, Note_on_c, 2, 71, 62
4, 29226, Note_off_c, 2, 71, 0
4, 29232, Note_on_c, 2, 72, 62
4, 29274, Note_off_c, 2, 72, 0
4, 29280, Note_on_c, 2, 74, 62
4, 29290, Note_off_c, 2, 74, 0
4, 29292, Note_on_c, 2, 72, 62
4, 29302, Note_off_c, 2, 72, 0
4, 29304, Note_on_c, 2, 74, 62
4, 29314, Note_off_c, 2, 74, 0
4, 29316, Note_on_c, 2, 72, 62
4, 29326, Note_off_c, 2, 72, 0
4, 29328, Note_on_c, 2, 74, 62
4, 29338, Note_off_c, 2, 74, 0
4, 29340, Note_on_c, 2, 72, 62
4, 29350, Note_off_c, 2, 72, 0
4, 29352, Note_on_c, 2, 74, 62
4, 29362, Note_off_c, 2, 74, 0
4, 29364, Note_on_c, 2, 72, 62
4, 29374, Note_off_c, 2, 72, 0
4, 29376, Note_on_c, 2, 74, 62
4, 29386, Note_off_c, 2, 74, 0
4, 29388, Note_on_c, 2, 72, 62
4, 29398, Note_off_c, 2, 72, 0
4, 29400, Note_on_c, 2, 74, 62
4, 29410, Note_off_c, 2, 74, 0
4, 29412, Note_on_c, 2, 72, 62
4, 29422, Note_off_c, 2, 72, 0
4, 29424, Note_on_c, 2, 71, 62
4, 29445, Note_off_c, 2, 71, 0
4, 29448, Note_on_c, 2, 72, 62
4, 29469, Note_off_c, 2, 72, 0
4, 29472, Note_on_c, 2, 74, 62
4, 29556, Note_off_c, 2, 74, 0
4, 29568, Note_on_c, 2, 72, 62
4, 29610, Note_off_c, 2, 72, 0
4, 29616, Note_on_c, 2, 71, 62
4, 29658, Note_off_c, 2, 71, 0
4, 29664, Note_on_c, 2, 72, 62
4, 29748, Note_off_c, 2, 72, 0
4, 29760, Note_on_c, 2, 77, 62
4, 29802, Note_off_c, 2, 77, 0
4, 29808, Note_on_c, 2, 79, 62
4, 29850, Note_off_c, 2, 79, 0
4, 29856, Note_on_c, 2, 74, 62
4, 29988, Note_off_c, 2, 74, 0
4, 30000, Note_on_c, 2, 72, 62
4, 30042, Note_off_c, 2, 72, 0
4, 30048, Note_on_c, 2, 72, 62
4, 30324, Note_off_c, 2, 72, 0
4, 30336, Note_on_c, 2, 72, 62
4, 30420, Note_off_c, 2, 72, 0
4, 30432, Note_on_c, 2, 75, 62
4, 30516, Note_off_c, 2, 75, 0
4, 30528, Note_on_c, 2, 74, 62
4, 30612, Note_off_c, 2, 74, 0
4, 30624, Note_on_c, 2, 72, 62
4, 30708, Note_off_c, 2, 72, 0
4, 30720, Note_on_c, 2, 70, 62
4, 30762, Note_off_c, 2, 70, 0
4, 30768, Note_on_c, 2, 69, 62
4, 30810, Note_off_c, 2, 69, 0
4, 30816, Note_on_c, 2, 70, 62
4, 30900, Note_off_c, 2, 70, 0
4, 30912, Note_on_c, 2, 72, 62
4, 30996, Note_off_c, 2, 72, 0
4, 31008, Note_on_c, 2, 75, 62
4, 31092, Note_off_c, 2, 75, 0
4, 31104, Note_on_c, 2, 74, 62
4, 31188, Note_off_c, 2, 74, 0
4, 31200, Note_on_c, 2, 74, 62
4, 31210, Note_off_c, 2, 74, 0
4, 31212, Note_on_c, 2, 72, 62
4, 31222, Note_off_c, 2, 72, 0
4, 31224, Note_on_c, 2, 74, 62
4, 31234, Note_off_c, 2, 74, 0
4, 31236, Note_on_c, 2, 72, 62
4, 31246, Note_off_c, 2, 72, 0
4, 31248, Note_on_c, 2, 74, 62
4, 31258, Note_off_c, 2, 74, 0
4, 31260, Note_on_c, 2, 72, 62
4, 31270, Note_off_c, 2, 72, 0
4, 31272, Note_on_c, 2, 74, 62
4, 31282, Note_off_c, 2, 74, 0
4, 31284, Note_on_c, 2, 72, 62
4, 31294, Note_off_c, 2, 72, 0
4, 31296, Note_on_c, 2, 74, 62
4, 31306, Note_off_c, 2, 74, 0
4, 31308, Note_on_c, 2, 72, 62
4, 31318, Note_off_c, 2, 72, 0
4, 31320, Note_on_c, 2, 74, 62
4, 31330, Note_off_c, 2, 74, 0
4, 31332, Note_on_c, 2, 72, 62
4, 31342, Note_off_c, 2, 72, 0
4, 31344, Note_on_c, 2, 74, 62
4, 31354, Note_off_c, 2, 74, 0
4, 31356, Note_on_c, 2, 72, 62
4, 31366, Note_off_c, 2, 72, 0
4, 31368, Note_on_c, 2, 74, 62
4, 31378, Note_off_c, 2, 74, 0
4, 31380, Note_on_c, 2, 72, 62
4, 31390, Note_off_c, 2, 72, 0
4, 31392, Note_on_c, 2, 77, 62
4, 31476, Note_off_c, 2, 77, 0
4, 31488, Note_on_c, 2, 70, 62
4, 31572, Note_off_c, 2, 70, 0
4, 31584, Note_on_c, 2, 67, 62
4, 31668, Note_off_c, 2, 67, 0
4, 31680, Note_on_c, 2, 69, 62
4, 31764, Note_off_c, 2, 69, 0
4, 31776, Note_on_c, 2, 70, 62
4, 31860, Note_off_c, 2, 70, 0
4, 31872, Note_on_c, 2, 74, 62
4, 32052, Note_off_c, 2, 74, 0
4, 32064, Note_on_c, 2, 70, 62
4, 32148, Note_off_c, 2, 70, 0
4, 32160, Note_on_c, 2, 69, 62
4, 32202, Note_off_c, 2, 69, 0
4, 32208, Note_on_c, 2, 67, 62
4, 32250, Note_off_c, 2, 67, 0
4, 32256, Note_on_c, 2, 72, 62
4, 32340, Note_off_c, 2, 72, 0
4, 32352, Note_on_c, 2, 69, 62
4, 32532, Note_off_c, 2, 69, 0
4, 32544, Note_on_c, 2, 67, 62
4, 32628, Note_off_c, 2, 67, 0
4, 32640, Note_on_c, 2, 71, 62
4, 32682, Note_off_c, 2, 71, 0
4, 32688, Note_on_c, 2, 72, 62
4, 32730, Note_off_c, 2, 72, 0
4, 32736, Note_on_c, 2, 74, 62
4, 32746, Note_off_c, 2, 74, 0
4, 32748, Note_on_c, 2, 72, 62
4, 32758, Note_off_c, 2, 72, 0
4, 32760, Note_on_c, 2, 74, 62
4, 32770, Note_off_c, 2, 74, 0
4, 32772, Note_on_c, 2, 72, 62
4, 32782, Note_off_c, 2, 72, 0
4, 32784, Note_on_c, 2, 74, 62
4, 32794, Note_off_c, 2, 74, 0
4, 32796, Note_on_c, 2, 72, 62
4, 32806, Note_off_c, 2, 72, 0
4, 32808, Note_on_c, 2, 74, 62
4, 32818, Note_off_c, 2, 74, 0
4, 32820, Note_on_c, 2, 72, 62
4, 32830, Note_off_c, 2, 72, 0
4, 32832, Note_on_c, 2, 74, 62
4, 32842, Note_off_c, 2, 74, 0
4, 32844, Note_on_c, 2, 72, 62
4, 32854, Note_off_c, 2, 72, 0
4, 32856, Note_on_c, 2, 74, 62
4, 32866, Note_off_c, 2, 74, 0
4, 32868, Note_on_c, 2, 72, 62
4, 32878, Note_off_c, 2, 72, 0
4, 32880, Note_on_c, 2, 71, 62
4, 32901, Note_off_c, 2, 71, 0
4, 32904, Note_on_c, 2, 72, 62
4, 32925, Note_off_c, 2, 72, 0
4, 32928, Note_on_c, 2, 74, 62
4, 33012, Note_off_c, 2, 74, 0
4, 33024, Note_on_c, 2, 72, 62
4, 33066, Note_off_c, 2, 72, 0
4, 33072, Note_on_c, 2, 71, 62
4, 33114, Note_off_c, 2, 71, 0
4, 33120, Note_on_c, 2, 72, 62
4, 33204, Note_off_c, 2, 72, 0
4, 33216, Note_on_c, 2, 77, 62
4, 33258, Note_off_c, 2, 77, 0
4, 33264, Note_on_c, 2, 79, 62
4, 33306, Note_off_c, 2, 79, 0
4, 33312, Note_on_c, 2, 74, 62
4, 33444, Note_off_c, 2, 74, 0
4, 33456, Note_on_c, 2, 72, 62
4, 33498, Note_off_c, 2, 72, 0
4, 33504, Note_on_c, 2, 72, 62
4, 33780, Note_off_c, 2, 72, 0
4, 33792, Note_on_c, 2, 79, 62
4, 33876, Note_off_c, 2, 79, 0
4, 33888, Note_on_c, 2, 82, 62
4, 33972, Note_off_c, 2, 82, 0
4, 33984, Note_on_c, 2, 81, 62
4, 34068, Note_off_c, 2, 81, 0
4, 34080, Note_on_c, 2, 79, 62
4, 34164, Note_off_c, 2, 79, 0
4, 34176, Note_on_c, 2, 77, 62
4, 34218, Note_off_c, 2, 77, 0
4, 34224, Note_on_c, 2, 76, 62
4, 34266, Note_off_c, 2, 76, 0
4, 34272, Note_on_c, 2, 77, 62
4, 34356, Note_off_c, 2, 77, 0
4, 34368, Note_on_c, 2, 79, 62
4, 34452, Note_off_c, 2, 79, 0
4, 34464, Note_on_c, 2, 82, 62
4, 34548, Note_off_c, 2, 82, 0
4, 34560, Note_on_c, 2, 81, 62
4, 34644, Note_off_c, 2, 81, 0
4, 34656, Note_on_c, 2, 81, 62
4, 34666, Note_off_c, 2, 81, 0
4, 34668, Note_on_c, 2, 79, 62
4, 34678, Note_off_c, 2, 79, 0
4, 34680, Note_on_c, 2, 81, 62
4, 34690, Note_off_c, 2, 81, 0
4, 34692, Note_on_c, 2, 79, 62
4, 34702, Note_off_c, 2, 79, 0
4, 34704, Note_on_c, 2, 81, 62
4, 34714, Note_off_c, 2, 81, 0
4, 34716, Note_on_c, 2, 79, 62
4, 34726, Note_off_c, 2, 79, 0
4, 34728, Note_on_c, 2, 81, 62
4, 34738, Note_off_c, 2, 81, 0
4, 34740, Note_on_c, 2, 79, 62
4, 34750, Note_off_c, 2, 79, 0
4, 34752, Note_on_c, 2, 81, 62
4, 34762, Note_off_c, 2, 81, 0
4, 34764, Note_on_c, 2, 79, 62
4, 34774, Note_off_c, 2, 79, 0
4, 34776, Note_on_c, 2, 81, 62
4, 34786, Note_off_c, 2, 81, 0
4, 34788, Note_on_c, 2, 79, 62
4, 34798, Note_off_c, 2, 79, 0
4, 34800, Note_on_c, 2, 81, 62
4, 34810, Note_off_c, 2, 81, 0
4, 34812, Note_on_c, 2, 79, 62
4, 34822, Note_off_c, 2, 79, 0
4, 34824, Note_on_c, 2, 81, 62
4, 34834, Note_off_c, 2, 81, 0
4, 34836, Note_on_c, 2, 79, 62
4, 34846, Note_off_c, 2, 79, 0
4, 34848, Note_on_c, 2, 84, 62
4, 34932, Note_off_c, 2, 84, 0
4, 34944, Note_on_c, 2, 77, 62
4, 35028, Note_off_c, 2, 77, 0
4, 35040, Note_on_c, 2, 74, 62
4, 35124, Note_off_c, 2, 74, 0
4, 35136, Note_on_c, 2, 76, 62
4, 35220, Note_off_c, 2, 76, 0
4, 35232, Note_on_c, 2, 77, 62
4, 35316, Note_off_c, 2, 77, 0
4, 35328, Note_on_c, 2, 81, 62
4, 35508, Note_off_c, 2, 81, 0
4, 35520, Note_on_c, 2, 77, 62
4, 35604, Note_off_c, 2, 77, 0
4, 35616, Note_on_c, 2, 76, 62
4, 35658, Note_off_c, 2, 76, 0
4, 35664, Note_on_c, 2, 74, 62
4, 35706, Note_off_c, 2, 74, 0
4, 35712, Note_on_c, 2, 79, 62
4, 35796, Note_off_c, 2, 79, 0
4, 35808, Note_on_c, 2, 76, 62
4, 35940, Note_off_c, 2, 76, 0
4, 35952, Note_on_c, 2, 77, 62
4, 35994, Note_off_c, 2, 77, 0
4, 36000, Note_on_c, 2, 79, 62
4, 36010, Note_off_c, 2, 79, 0
4, 36012, Note_on_c, 2, 77, 62
4, 36022, Note_off_c, 2, 77, 0
4, 36024, Note_on_c, 2, 79, 62
4, 36034, Note_off_c, 2, 79, 0
4, 36036, Note_on_c, 2, 77, 62
4, 36046, Note_off_c, 2, 77, 0
4, 36048, Note_on_c, 2, 79, 62
4, 36058, Note_off_c, 2, 79, 0
4, 36060, Note_on_c, 2, 77, 62
4, 36070, Note_off_c, 2, 77, 0
4, 36072, Note_on_c, 2, 76, 62
4, 36082, Note_off_c, 2, 76, 0
4, 36084, Note_on_c, 2, 77, 62
4, 36094, Note_off_c, 2, 77, 0
4, 36096, Note_on_c, 2, 79, 62
4, 36138, Note_off_c, 2, 79, 0
4, 36144, Note_on_c, 2, 81, 62
4, 36186, Note_off_c, 2, 81, 0
4, 36192, Note_on_c, 2, 82, 62
4, 36202, Note_off_c, 2, 82, 0
4, 36204, Note_on_c, 2, 81, 62
4, 36214, Note_off_c, 2, 81, 0
4, 36216, Note_on_c, 2, 82, 62
4, 36226, Note_off_c, 2, 82, 0
4, 36228, Note_on_c, 2, 81, 62
4, 36238, Note_off_c, 2, 81, 0
4, 36240, Note_on_c, 2, 82, 62
4, 36250, Note_off_c, 2, 82, 0
4, 36252, Note_on_c, 2, 81, 62
4, 36262, Note_off_c, 2, 81, 0
4, 36264, Note_on_c, 2, 82, 62
4, 36274, Note_off_c, 2, 82, 0
4, 36276, Note_on_c, 2, 81, 62
4, 36286, Note_off_c, 2, 81, 0
4, 36288, Note_on_c, 2, 82, 62
4, 36298, Note_off_c, 2, 82, 0
4, 36300, Note_on_c, 2, 81, 62
4, 36310, Note_off_c, 2, 81, 0
4, 36312, Note_on_c, 2, 82, 62
4, 36322, Note_off_c, 2, 82, 0
4, 36324, Note_on_c, 2, 81, 62
4, 36334, Note_off_c, 2, 81, 0
4, 36336, Note_on_c, 2, 79, 62
4, 36357, Note_off_c, 2, 79, 0
4, 36360, Note_on_c, 2, 81, 62
4, 36381, Note_off_c, 2, 81, 0
4, 36384, Note_on_c, 2, 82, 62
4, 36468, Note_off_c, 2, 82, 0
4, 36480, Note_on_c, 2, 81, 62
4, 36522, Note_off_c, 2, 81, 0
4, 36528, Note_on_c, 2, 79, 62
4, 36570, Note_off_c, 2, 79, 0
4, 36576, Note_on_c, 2, 84, 62
4, 36660, Note_off_c, 2, 84, 0
4, 36672, Note_on_c, 2, 77, 62
4, 36714, Note_off_c, 2, 77, 0
4, 36720, Note_on_c, 2, 79, 62
4, 36762, Note_off_c, 2, 79, 0
4, 36768, Note_on_c, 2, 76, 62
4, 36900, Note_off_c, 2, 76, 0
4, 36912, Note_on_c, 2, 77, 62
4, 36954, Note_off_c, 2, 77, 0
4, 36960, Note_on_c, 2, 77, 62
4, 37236, Note_off_c, 2, 77, 0
4, 37248, Note_on_c, 2, 79, 62
4, 37332, Note_off_c, 2, 79, 0
4, 37344, Note_on_c, 2, 82, 62
4, 37428, Note_off_c, 2, 82, 0
4, 37440, Note_on_c, 2, 81, 62
4, 37524, Note_off_c, 2, 81, 0
4, 37536, Note_on_c, 2, 79, 62
4, 37620, Note_off_c, 2, 79, 0
4, 37632, Note_on_c, 2, 77, 62
4, 37674, Note_off_c, 2, 77, 0
4, 37680, Note_on_c, 2, 76, 62
4, 37722, Note_off_c, 2, 76, 0
4, 37728, Note_on_c, 2, 77, 62
4, 37812, Note_off_c, 2, 77, 0
4, 37824, Note_on_c, 2, 79, 62
4, 37908, Note_off_c, 2, 79, 0
4, 37920, Note_on_c, 2, 82, 62
4, 38004, Note_off_c, 2, 82, 0
4, 38016, Note_on_c, 2, 81, 62
4, 38100, Note_off_c, 2, 81, 0
4, 38112, Note_on_c, 2, 81, 62
4, 38122, Note_off_c, 2, 81, 0
4, 38124, Note_on_c, 2, 79, 62
4, 38134, Note_off_c, 2, 79, 0
4, 38136, Note_on_c, 2, 81, 62
4, 38146, Note_off_c, 2, 81, 0
4, 38148, Note_on_c, 2, 79, 62
4, 38158, Note_off_c, 2, 79, 0
4, 38160, Note_on_c, 2, 81, 62
4, 38170, Note_off_c, 2, 81, 0
4, 38172, Note_on_c, 2, 79, 62
4, 38182, Note_off_c, 2, 79, 0
4, 38184, Note_on_c, 2, 81, 62
4, 38194, Note_off_c, 2, 81, 0
4, 38196, Note_on_c, 2, 79, 62
4, 38206, Note_off_c, 2, 79, 0
4, 38208, Note_on_c, 2, 81, 62
4, 38218, Note_off_c, 2, 81, 0
4, 38220, Note_on_c, 2, 79, 62
4, 38230, Note_off_c, 2, 79, 0
4, 38232, Note_on_c, 2, 81, 62
4, 38242, Note_off_c, 2, 81, 0
4, 38244, Note_on_c, 2, 79, 62
4, 38254, Note_off_c, 2, 79, 0
4, 38256, Note_on_c, 2, 81, 62
4, 38266, Note_off_c, 2, 81, 0
4, 38268, Note_on_c, 2, 79, 62
4, 38278, Note_off_c, 2, 79, 0
4, 38280, Note_on_c, 2, 81, 62
4, 38290, Note_off_c, 2, 81, 0
4, 38292, Note_on_c, 2, 79, 62
4, 38302, Note_off_c, 2, 79, 0
4, 38304, Note_on_c, 2, 84, 62
4, 38388, Note_off_c, 2, 84, 0
4, 38400, Note_on_c, 2, 77, 62
4, 38484, Note_off_c, 2, 77, 0
4, 38496, Note_on_c, 2, 74, 62
4, 38580, Note_off_c, 2, 74, 0
4, 38592, Note_on_c, 2, 76, 62
4, 38676, Note_off_c, 2, 76, 0
4, 38688, Note_on_c, 2, 77, 62
4, 38772, Note_off_c, 2, 77, 0
4, 38784, Note_on_c, 2, 81, 62
4, 38964, Note_off_c, 2, 81, 0
4, 38976, Note_on_c, 2, 77, 62
4, 39060, Note_off_c, 2, 77, 0
4, 39072, Note_on_c, 2, 76, 62
4, 39114, Note_off_c, 2, 76, 0
4, 39120, Note_on_c, 2, 74, 62
4, 39162, Note_off_c, 2, 74, 0
4, 39168, Note_on_c, 2, 79, 62
4, 39252, Note_off_c, 2, 79, 0
4, 39264, Note_on_c, 2, 76, 62
4, 39396, Note_off_c, 2, 76, 0
4, 39408, Note_on_c, 2, 77, 62
4, 39450, Note_off_c, 2, 77, 0
4, 39456, Note_on_c, 2, 79, 62
4, 39466, Note_off_c, 2, 79, 0
4, 39468, Note_on_c, 2, 77, 62
4, 39478, Note_off_c, 2, 77, 0
4, 39480, Note_on_c, 2, 79, 62
4, 39490, Note_off_c, 2, 79, 0
4, 39492, Note_on_c, 2, 77, 62
4, 39502, Note_off_c, 2, 77, 0
4, 39504, Note_on_c, 2, 79, 62
4, 39514, Note_off_c, 2, 79, 0
4, 39516, Note_on_c, 2, 77, 62
4, 39526, Note_off_c, 2, 77, 0
4, 39528, Note_on_c, 2, 76, 62
4, 39538, Note_off_c, 2, 76, 0
4, 39540, Note_on_c, 2, 77, 62
4, 39550, Note_off_c, 2, 77, 0
4, 39552, Note_on_c, 2, 79, 62
4, 39594, Note_off_c, 2, 79, 0
4, 39600, Note_on_c, 2, 81, 62
4, 39642, Note_off_c, 2, 81, 0
4, 39648, Note_on_c, 2, 82, 62
4, 39658, Note_off_c, 2, 82, 0
4, 39660, Note_on_c, 2, 81, 62
4, 39670, Note_off_c, 2, 81, 0
4, 39672, Note_on_c, 2, 82, 62
4, 39682, Note_off_c, 2, 82, 0
4, 39684, Note_on_c, 2, 81, 62
4, 39694, Note_off_c, 2, 81, 0
4, 39696, Note_on_c, 2, 82, 62
4, 39706, Note_off_c, 2, 82, 0
4, 39708, Note_on_c, 2, 81, 62
4, 39718, Note_off_c, 2, 81, 0
4, 39720, Note_on_c, 2, 82, 62
4, 39730, Note_off_c, 2, 82, 0
4, 39732, Note_on_c, 2, 81, 62
4, 39742, Note_off_c, 2, 81, 0
4, 39744, Note_on_c, 2, 82, 62
4, 39754, Note_off_c, 2, 82, 0
4, 39756, Note_on_c, 2, 81, 62
4, 39766, Note_off_c, 2, 81, 0
4, 39768, Note_on_c, 2, 82, 62
4, 39778, Note_off_c, 2, 82, 0
4, 39780, Note_on_c, 2, 81, 62
4, 39790, Note_off_c, 2, 81, 0
4, 39792, Note_on_c, 2, 79, 62
4, 39813, Note_off_c, 2, 79, 0
4, 39816, Note_on_c, 2, 81, 62
4, 39837, Note_off_c, 2, 81, 0
4, 39840, Note_on_c, 2, 82, 62
4, 39924, Note_off_c, 2, 82, 0
4, 39936, Note_on_c, 2, 81, 62
4, 39978, Note_off_c, 2, 81, 0
4, 39984, Note_on_c, 2, 79, 62
4, 40026, Note_off_c, 2, 79, 0
4, 40032, Note_on_c, 2, 84, 62
4, 40116, Note_off_c, 2, 84, 0
4, 40128, Note_on_c, 2, 77, 62
4, 40170, Note_off_c, 2, 77, 0
4, 40176, Note_on_c, 2, 79, 62
4, 40218, Note_off_c, 2, 79, 0
4, 40224, Note_on_c, 2, 76, 62
4, 40356, Note_off_c, 2, 76, 0
4, 40368, Note_on_c, 2, 77, 62
4, 40410, Note_off_c, 2, 77, 0
4, 40416, Note_on_c, 2, 77, 62
4, 40692, Note_off_c, 2, 77, 0
4, 40692, End_track
5, 0, Start_track
5, 0, Title_t, "Oboe II (D H Goforth)"
5, 0, Control_c, 3, 0, 0
5, 0, Program_c, 3, 68
5, 0, Time_signature, 3, 2, 96, 8
5, 0, Tempo, 461538
5, 96, Tempo, 428571
5, 96, Note_on_c, 3, 69, 62
5, 180, Note_off_c, 3, 69, 0
5, 192, Note_on_c, 3, 72, 62
5, 276, Note_off_c, 3, 72, 0
5, 288, Note_on_c, 3, 70, 62
5, 372, Note_off_c, 3, 70, 0
5, 384, Note_on_c, 3, 69, 62
5, 468, Note_off_c, 3, 69, 0
5, 480, Note_on_c, 3, 65, 62
5, 564, Note_off_c, 3, 65, 0
5, 576, Note_on_c, 3, 65, 62
5, 660, Note_off_c, 3, 65, 0
5, 672, Note_on_c, 3, 69, 62
5, 756, Note_off_c, 3, 69, 0
5, 768, Note_on_c, 3, 72, 62
5, 852, Note_off_c, 3, 72, 0
5, 864, Note_on_c, 3, 70, 62
5, 948, Note_off_c, 3, 70, 0
5, 960, Note_on_c, 3, 72, 62
5, 1044, Note_off_c, 3, 72, 0
5, 1056, Note_on_c, 3, 70, 62
5, 1140, Note_off_c, 3, 70, 0
5, 1152, Note_on_c, 3, 69, 62
5, 1236, Note_off_c, 3, 69, 0
5, 1248, Note_on_c, 3, 67, 62
5, 1428, Note_off_c, 3, 67, 0
5, 1440, Note_on_c, 3, 65, 62
5, 1524, Note_off_c, 3, 65, 0
5, 1536, Note_on_c, 3, 64, 62
5, 1578, Note_off_c, 3, 64, 0
5, 1584, Note_on_c, 3, 65, 62
5, 1626, Note_off_c, 3, 65, 0
5, 1632, Note_on_c, 3, 67, 62
5, 1642, Note_off_c, 3, 67, 0
5, 1644, Note_on_c, 3, 65, 62
5, 1654, Note_off_c, 3, 65, 0
5, 1656, Note_on_c, 3, 67, 62
5, 1666, Note_off_c, 3, 67, 0
5, 1668, Note_on_c, 3, 65, 62
5, 1678, Note_off_c, 3, 65, 0
5, 1680, Note_on_c, 3, 67, 62
5, 1690, Note_off_c, 3, 67, 0
5, 1692, Note_on_c, 3, 65, 62
5, 1702, Note_off_c, 3, 65, 0
5, 1704, Note_on_c, 3, 67, 62
5, 1714, Note_off_c, 3, 67, 0
5, 1716, Note_on_c, 3, 65, 62
5, 1726, Note_off_c, 3, 65, 0
5, 1728, Note_on_c, 3, 67, 62
5, 1738, Note_off_c, 3, 67, 0
5, 1740, Note_on_c, 3, 65, 62
5, 1750, Note_off_c, 3, 65, 0
5, 1752, Note_on_c, 3, 67, 62
5, 1762, Note_off_c, 3, 67, 0
5, 1764, Note_on_c, 3, 65, 62
5, 1774, Note_off_c, 3, 65, 0
5, 1776, Note_on_c, 3, 64, 62
5, 1797, Note_off_c, 3, 64, 0
5, 1800, Note_on_c, 3, 65, 62
5, 1821, Note_off_c, 3, 65, 0
5, 1824, Note_on_c, 3, 67, 62
5, 1908, Note_off_c, 3, 67, 0
5, 1920, Note_on_c, 3, 65, 62
5, 2004, Note_off_c, 3, 65, 0
5, 2016, Note_on_c, 3, 64, 62
5, 2100, Note_off_c, 3, 64, 0
5, 2112, Note_on_c, 3, 65, 62
5, 2292, Note_off_c, 3, 65, 0
5, 2304, Note_on_c, 3, 67, 62
5, 2388, Note_off_c, 3, 67, 0
5, 2400, Note_on_c, 3, 65, 62
5, 2484, Note_off_c, 3, 65, 0
5, 2496, Note_on_c, 3, 67, 62
5, 2676, Note_off_c, 3, 67, 0
5, 2688, Note_on_c, 3, 67, 62
5, 2868, Note_off_c, 3, 67, 0
5, 2880, Note_on_c, 3, 67, 62
5, 2964, Note_off_c, 3, 67, 0
5, 2976, Note_on_c, 3, 69, 62
5, 3018, Note_off_c, 3, 69, 0
5, 3024, Note_on_c, 3, 71, 62
5, 3066, Note_off_c, 3, 71, 0
5, 3072, Note_on_c, 3, 72, 62
5, 3082, Note_off_c, 3, 72, 0
5, 3084, Note_on_c, 3, 71, 62
5, 3094, Note_off_c, 3, 71, 0
5, 3096, Note_on_c, 3, 72, 62
5, 3106, Note_off_c, 3, 72, 0
5, 3108, Note_on_c, 3, 71, 62
5, 3118, Note_off_c, 3, 71, 0
5, 3120, Note_on_c, 3, 72, 62
5, 3130, Note_off_c, 3, 72, 0
5, 3132, Note_on_c, 3, 71, 62
5, 3142, Note_off_c, 3, 71, 0
5, 3144, Note_on_c, 3, 72, 62
5, 3154, Note_off_c, 3, 72, 0
5, 3156, Note_on_c, 3, 71, 62
5, 3166, Note_off_c, 3, 71, 0
5, 3168, Note_on_c, 3, 72, 62
5, 3178, Note_off_c, 3, 72, 0
5, 3180, Note_on_c, 3, 71, 62
5, 3190, Note_off_c, 3, 71, 0
5, 3192, Note_on_c, 3, 72, 62
5, 3202, Note_off_c, 3, 72, 0
5, 3204, Note_on_c, 3, 71, 62
5, 3214, Note_off_c, 3, 71, 0
5, 3216, Note_on_c, 3, 67, 62
5, 3258, Note_off_c, 3, 67, 0
5, 3264, Note_on_c, 3, 67, 62
5, 3540, Note_off_c, 3, 67, 0
5, 3552, Note_on_c, 3, 69, 62
5, 3636, Note_off_c, 3, 69, 0
5, 3648, Note_on_c, 3, 72, 62
5, 3732, Note_off_c, 3, 72, 0
5, 3744, Note_on_c, 3, 70, 62
5, 3828, Note_off_c, 3, 70, 0
5, 3840, Note_on_c, 3, 69, 62
5, 3924, Note_off_c, 3, 69, 0
5, 3936, Note_on_c, 3, 65, 62
5, 4020, Note_off_c, 3, 65, 0
5, 4032, Note_on_c, 3, 65, 62
5, 4116, Note_off_c, 3, 65, 0
5, 4128, Note_on_c, 3, 69, 62
5, 4212, Note_off_c, 3, 69, 0
5, 4224, Note_on_c, 3, 72, 62
5, 4308, Note_off_c, 3, 72, 0
5, 4320, Note_on_c, 3, 70, 62
5, 4404, Note_off_c, 3, 70, 0
5, 4416, Note_on_c, 3, 72, 62
5, 4500, Note_off_c, 3, 72, 0
5, 4512, Note_on_c, 3, 70, 62
5, 4596, Note_off_c, 3, 70, 0
5, 4608, Note_on_c, 3, 69, 62
5, 4692, Note_off_c, 3, 69, 0
5, 4704, Note_on_c, 3, 67, 62
5, 4884, Note_off_c, 3, 67, 0
5, 4896, Note_on_c, 3, 65, 62
5, 4980, Note_off_c, 3, 65, 0
5, 4992, Note_on_c, 3, 64, 62
5, 5034, Note_off_c, 3, 64, 0
5, 5040, Note_on_c, 3, 65, 62
5, 5082, Note_off_c, 3, 65, 0
5, 5088, Note_on_c, 3, 67, 62
5, 5098, Note_off_c, 3, 67, 0
5, 5100, Note_on_c, 3, 65, 62
5, 5110, Note_off_c, 3, 65, 0
5, 5112, Note_on_c, 3, 67, 62
5, 5122, Note_off_c, 3, 67, 0
5, 5124, Note_on_c, 3, 65, 62
5, 5134, Note_off_c, 3, 65, 0
5, 5136, Note_on_c, 3, 67, 62
5, 5146, Note_off_c, 3, 67, 0
5, 5148, Note_on_c, 3, 65, 62
5, 5158, Note_off_c, 3, 65, 0
5, 5160, Note_on_c, 3, 67, 62
5, 5170, Note_off_c, 3, 67, 0
5, 5172, Note_on_c, 3, 65, 62
5, 5182, Note_off_c, 3, 65, 0
5, 5184, Note_on_c, 3, 67, 62
5, 5194, Note_off_c, 3, 67, 0
5, 5196, Note_on_c, 3, 65, 62
5, 5206, Note_off_c, 3, 65, 0
5, 5208, Note_on_c, 3, 67, 62
5, 5218, Note_off_c, 3, 67, 0
5, 5220, Note_on_c, 3, 65, 62
5, 5230, Note_off_c, 3, 65, 0
5, 5232, Note_on_c, 3, 64, 62
5, 5253, Note_off_c, 3, 64, 0
5, 5256, Note_on_c, 3, 65, 62
5, 5277, Note_off_c, 3, 65, 0
5, 5280, Note_on_c, 3, 67, 62
5, 5364, Note_off_c, 3, 67, 0
5, 5376, Note_on_c, 3, 65, 62
5, 5460, Note_off_c, 3, 65, 0
5, 5472, Note_on_c, 3, 64, 62
5, 5556, Note_off_c, 3, 64, 0
5, 5568, Note_on_c, 3, 65, 62
5, 5748, Note_off_c, 3, 65, 0
5, 5760, Note_on_c, 3, 67, 62
5, 5844, Note_off_c, 3, 67, 0
5, 5856, Note_on_c, 3, 65, 62
5, 5940, Note_off_c, 3, 65, 0
5, 5952, Note_on_c, 3, 67, 62
5, 6132, Note_off_c, 3, 67, 0
5, 6144, Note_on_c, 3, 67, 62
5, 6324, Note_off_c, 3, 67, 0
5, 6336, Note_on_c, 3, 67, 62
5, 6420, Note_off_c, 3, 67, 0
5, 6432, Note_on_c, 3, 69, 62
5, 6474, Note_off_c, 3, 69, 0
5, 6480, Note_on_c, 3, 71, 62
5, 6522, Note_off_c, 3, 71, 0
5, 6528, Note_on_c, 3, 72, 62
5, 6538, Note_off_c, 3, 72, 0
5, 6540, Note_on_c, 3, 71, 62
5, 6550, Note_off_c, 3, 71, 0
5, 6552, Note_on_c, 3, 72, 62
5, 6562, Note_off_c, 3, 72, 0
5, 6564, Note_on_c, 3, 71, 62
5, 6574, Note_off_c, 3, 71, 0
5, 6576, Note_on_c, 3, 72, 62
5, 6586, Note_off_c, 3, 72, 0
5, 6588, Note_on_c, 3, 71, 62
5, 6598, Note_off_c, 3, 71, 0
5, 6600, Note_on_c, 3, 72, 62
5, 6610, Note_off_c, 3, 72, 0
5, 6612, Note_on_c, 3, 71, 62
5, 6622, Note_off_c, 3, 71, 0
5, 6624, Note_on_c, 3, 72, 62
5, 6634, Note_off_c, 3, 72, 0
5, 6636, Note_on_c, 3, 71, 62
5, 6646, Note_off_c, 3, 71, 0
5, 6648, Note_on_c, 3, 72, 62
5, 6658, Note_off_c, 3, 72, 0
5, 6660, Note_on_c, 3, 71, 62
5, 6670, Note_off_c, 3, 71, 0
5, 6672, Note_on_c, 3, 67, 62
5, 6714, Note_off_c, 3, 67, 0
5, 6720, Note_on_c, 3, 67, 62
5, 6996, Note_off_c, 3, 67, 0
5, 7008, Note_on_c, 3, 72, 62
5, 7092, Note_off_c, 3, 72, 0
5, 7104, Note_on_c, 3, 79, 62
5, 7188, Note_off_c, 3, 79, 0
5, 7200, Note_on_c, 3, 77, 62
5, 7284, Note_off_c, 3, 77, 0
5, 7296, Note_on_c, 3, 76, 62
5, 7380, Note_off_c, 3, 76, 0
5, 7392, Note_on_c, 3, 72, 62
5, 7476, Note_off_c, 3, 72, 0
5, 7488, Note_on_c, 3, 72, 62
5, 7572, Note_off_c, 3, 72, 0
5, 7584, Note_on_c, 3, 76, 62
5, 7668, Note_off_c, 3, 76, 0
5, 7680, Note_on_c, 3, 79, 62
5, 7764, Note_off_c, 3, 79, 0
5, 7776, Note_on_c, 3, 77, 62
5, 7860, Note_off_c, 3, 77, 0
5, 7872, Note_on_c, 3, 79, 62
5, 7956, Note_off_c, 3, 79, 0
5, 7968, Note_on_c, 3, 77, 62
5, 8052, Note_off_c, 3, 77, 0
5, 8064, Note_on_c, 3, 76, 62
5, 8148, Note_off_c, 3, 76, 0
5, 8160, Note_on_c, 3, 74, 62
5, 8340, Note_off_c, 3, 74, 0
5, 8352, Note_on_c, 3, 72, 62
5, 8436, Note_off_c, 3, 72, 0
5, 8448, Note_on_c, 3, 71, 62
5, 8490, Note_off_c, 3, 71, 0
5, 8496, Note_on_c, 3, 72, 62
5, 8538, Note_off_c, 3, 72, 0
5, 8544, Note_on_c, 3, 74, 62
5, 8554, Note_off_c, 3, 74, 0
5, 8556, Note_on_c, 3, 72, 62
5, 8566, Note_off_c, 3, 72, 0
5, 8568, Note_on_c, 3, 74, 62
5, 8578, Note_off_c, 3, 74, 0
5, 8580, Note_on_c, 3, 72, 62
5, 8590, Note_off_c, 3, 72, 0
5, 8592, Note_on_c, 3, 74, 62
5, 8602, Note_off_c, 3, 74, 0
5, 8604, Note_on_c, 3, 72, 62
5, 8614, Note_off_c, 3, 72, 0
5, 8616, Note_on_c, 3, 74, 62
5, 8626, Note_off_c, 3, 74, 0
5, 8628, Note_on_c, 3, 72, 62
5, 8638, Note_off_c, 3, 72, 0
5, 8640, Note_on_c, 3, 74, 62
5, 8650, Note_off_c, 3, 74, 0
5, 8652, Note_on_c, 3, 72, 62
5, 8662, Note_off_c, 3, 72, 0
5, 8664, Note_on_c, 3, 74, 62
5, 8674, Note_off_c, 3, 74, 0
5, 8676, Note_on_c, 3, 72, 62
5, 8686, Note_off_c, 3, 72, 0
5, 8688, Note_on_c, 3, 71, 62
5, 8709, Note_off_c, 3, 71, 0
5, 8712, Note_on_c, 3, 72, 62
5, 8733, Note_off_c, 3, 72, 0
5, 8736, Note_on_c, 3, 74, 62
5, 8820, Note_off_c, 3, 74, 0
5, 8832, Note_on_c, 3, 72, 62
5, 8916, Note_off_c, 3, 72, 0
5, 8928, Note_on_c, 3, 71, 62
5, 9012, Note_off_c, 3, 71, 0
5, 9024, Note_on_c, 3, 72, 62
5, 9300, Note_off_c, 3, 72, 0
5, 9312, Note_on_c, 3, 72, 62
5, 9492, Note_off_c, 3, 72, 0
5, 9504, Note_on_c, 3, 77, 62
5, 9588, Note_off_c, 3, 77, 0
5, 9600, Note_on_c, 3, 76, 62
5, 9684, Note_off_c, 3, 76, 0
5, 9696, Note_on_c, 3, 79, 62
5, 9706, Note_off_c, 3, 79, 0
5, 9708, Note_on_c, 3, 77, 62
5, 9718, Note_off_c, 3, 77, 0
5, 9720, Note_on_c, 3, 79, 62
5, 9730, Note_off_c, 3, 79, 0
5, 9732, Note_on_c, 3, 77, 62
5, 9742, Note_off_c, 3, 77, 0
5, 9744, Note_on_c, 3, 79, 62
5, 9754, Note_off_c, 3, 79, 0
5, 9756, Note_on_c, 3, 77, 62
5, 9766, Note_off_c, 3, 77, 0
5, 9768, Note_on_c, 3, 79, 62
5, 9778, Note_off_c, 3, 79, 0
5, 9780, Note_on_c, 3, 77, 62
5, 9790, Note_off_c, 3, 77, 0
5, 9792, Note_on_c, 3, 79, 62
5, 9876, Note_off_c, 3, 79, 0
5, 9888, Note_on_c, 3, 74, 62
5, 9972, Note_off_c, 3, 74, 0
5, 9984, Note_on_c, 3, 74, 62
5, 9994, Note_off_c, 3, 74, 0
5, 9996, Note_on_c, 3, 72, 62
5, 10006, Note_off_c, 3, 72, 0
5, 10008, Note_on_c, 3, 74, 62
5, 10018, Note_off_c, 3, 74, 0
5, 10020, Note_on_c, 3, 72, 62
5, 10030, Note_off_c, 3, 72, 0
5, 10032, Note_on_c, 3, 74, 62
5, 10042, Note_off_c, 3, 74, 0
5, 10044, Note_on_c, 3, 72, 62
5, 10054, Note_off_c, 3, 72, 0
5, 10056, Note_on_c, 3, 74, 62
5, 10066, Note_off_c, 3, 74, 0
5, 10068, Note_on_c, 3, 72, 62
5, 10078, Note_off_c, 3, 72, 0
5, 10080, Note_on_c, 3, 74, 62
5, 10090, Note_off_c, 3, 74, 0
5, 10092, Note_on_c, 3, 72, 62
5, 10102, Note_off_c, 3, 72, 0
5, 10104, Note_on_c, 3, 74, 62
5, 10114, Note_off_c, 3, 74, 0
5, 10116, Note_on_c, 3, 72, 62
5, 10126, Note_off_c, 3, 72, 0
5, 10128, Note_on_c, 3, 72, 62
5, 10170, Note_off_c, 3, 72, 0
5, 10176, Note_on_c, 3, 72, 62
5, 10452, Note_off_c, 3, 72, 0
5, 10464, Note_on_c, 3, 72, 62
5, 10548, Note_off_c, 3, 72, 0
5, 10560, Note_on_c, 3, 79, 62
5, 10644, Note_off_c, 3, 79, 0
5, 10656, Note_on_c, 3, 77, 62
5, 10740, Note_off_c, 3, 77, 0
5, 10752, Note_on_c, 3, 76, 62
5, 10836, Note_off_c, 3, 76, 0
5, 10848, Note_on_c, 3, 72, 62
5, 10932, Note_off_c, 3, 72, 0
5, 10944, Note_on_c, 3, 72, 62
5, 11028, Note_off_c, 3, 72, 0
5, 11040, Note_on_c, 3, 76, 62
5, 11124, Note_off_c, 3, 76, 0
5, 11136, Note_on_c, 3, 79, 62
5, 11220, Note_off_c, 3, 79, 0
5, 11232, Note_on_c, 3, 77, 62
5, 11316, Note_off_c, 3, 77, 0
5, 11328, Note_on_c, 3, 79, 62
5, 11412, Note_off_c, 3, 79, 0
5, 11424, Note_on_c, 3, 77, 62
5, 11508, Note_off_c, 3, 77, 0
5, 11520, Note_on_c, 3, 76, 62
5, 11604, Note_off_c, 3, 76, 0
5, 11616, Note_on_c, 3, 74, 62
5, 11796, Note_off_c, 3, 74, 0
5, 11808, Note_on_c, 3, 72, 62
5, 11892, Note_off_c, 3, 72, 0
5, 11904, Note_on_c, 3, 71, 62
5, 11946, Note_off_c, 3, 71, 0
5, 11952, Note_on_c, 3, 72, 62
5, 11994, Note_off_c, 3, 72, 0
5, 12000, Note_on_c, 3, 74, 62
5, 12010, Note_off_c, 3, 74, 0
5, 12012, Note_on_c, 3, 72, 62
5, 12022, Note_off_c, 3, 72, 0
5, 12024, Note_on_c, 3, 74, 62
5, 12034, Note_off_c, 3, 74, 0
5, 12036, Note_on_c, 3, 72, 62
5, 12046, Note_off_c, 3, 72, 0
5, 12048, Note_on_c, 3, 74, 62
5, 12058, Note_off_c, 3, 74, 0
5, 12060, Note_on_c, 3, 72, 62
5, 12070, Note_off_c, 3, 72, 0
5, 12072, Note_on_c, 3, 74, 62
5, 12082, Note_off_c, 3, 74, 0
5, 12084, Note_on_c, 3, 72, 62
5, 12094, Note_off_c, 3, 72, 0
5, 12096, Note_on_c, 3, 74, 62
5, 12106, Note_off_c, 3, 74, 0
5, 12108, Note_on_c, 3, 72, 62
5, 12118, Note_off_c, 3, 72, 0
5, 12120, Note_on_c, 3, 74, 62
5, 12130, Note_off_c, 3, 74, 0
5, 12132, Note_on_c, 3, 72, 62
5, 12142, Note_off_c, 3, 72, 0
5, 12144, Note_on_c, 3, 71, 62
5, 12165, Note_off_c, 3, 71, 0
5, 12168, Note_on_c, 3, 72, 62
5, 12189, Note_off_c, 3, 72, 0
5, 12192, Note_on_c, 3, 74, 62
5, 12276, Note_off_c, 3, 74, 0
5, 12288, Note_on_c, 3, 72, 62
5, 12372, Note_off_c, 3, 72, 0
5, 12384, Note_on_c, 3, 71, 62
5, 12468, Note_off_c, 3, 71, 0
5, 12480, Note_on_c, 3, 72, 62
5, 12756, Note_off_c, 3, 72, 0
5, 12768, Note_on_c, 3, 72, 62
5, 12948, Note_off_c, 3, 72, 0
5, 12960, Note_on_c, 3, 77, 62
5, 13044, Note_off_c, 3, 77, 0
5, 13056, Note_on_c, 3, 76, 62
5, 13140, Note_off_c, 3, 76, 0
5, 13152, Note_on_c, 3, 79, 62
5, 13162, Note_off_c, 3, 79, 0
5, 13164, Note_on_c, 3, 77, 62
5, 13174, Note_off_c, 3, 77, 0
5, 13176, Note_on_c, 3, 79, 62
5, 13186, Note_off_c, 3, 79, 0
5, 13188, Note_on_c, 3, 77, 62
5, 13198, Note_off_c, 3, 77, 0
5, 13200, Note_on_c, 3, 79, 62
5, 13210, Note_off_c, 3, 79, 0
5, 13212, Note_on_c, 3, 77, 62
5, 13222, Note_off_c, 3, 77, 0
5, 13224, Note_on_c, 3, 79, 62
5, 13234, Note_off_c, 3, 79, 0
5, 13236, Note_on_c, 3, 77, 62
5, 13246, Note_off_c, 3, 77, 0
5, 13248, Note_on_c, 3, 79, 62
5, 13332, Note_off_c, 3, 79, 0
5, 13344, Note_on_c, 3, 74, 62
5, 13428, Note_off_c, 3, 74, 0
5, 13440, Note_on_c, 3, 74, 62
5, 13450, Note_off_c, 3, 74, 0
5, 13452, Note_on_c, 3, 72, 62
5, 13462, Note_off_c, 3, 72, 0
5, 13464, Note_on_c, 3, 74, 62
5, 13474, Note_off_c, 3, 74, 0
5, 13476, Note_on_c, 3, 72, 62
5, 13486, Note_off_c, 3, 72, 0
5, 13488, Note_on_c, 3, 74, 62
5, 13498, Note_off_c, 3, 74, 0
5, 13500, Note_on_c, 3, 72, 62
5, 13510, Note_off_c, 3, 72, 0
5, 13512, Note_on_c, 3, 74, 62
5, 13522, Note_off_c, 3, 74, 0
5, 13524, Note_on_c, 3, 72, 62
5, 13534, Note_off_c, 3, 72, 0
5, 13536, Note_on_c, 3, 74, 62
5, 13546, Note_off_c, 3, 74, 0
5, 13548, Note_on_c, 3, 72, 62
5, 13558, Note_off_c, 3, 72, 0
5, 13560, Note_on_c, 3, 74, 62
5, 13570, Note_off_c, 3, 74, 0
5, 13572, Note_on_c, 3, 72, 62
5, 13582, Note_off_c, 3, 72, 0
5, 13584, Note_on_c, 3, 72, 62
5, 13626, Note_off_c, 3, 72, 0
5, 13632, Note_on_c, 3, 72, 62
5, 13908, Note_off_c, 3, 72, 0
5, 14112, Time_signature, 2, 2, 96, 8
5, 14208, Tempo, 500000
5, 14208, Note_on_c, 3, 65, 96
5, 14250, Note_off_c, 3, 65, 0
5, 14256, Note_on_c, 3, 64, 96
5, 14298, Note_off_c, 3, 64, 0
5, 14304, Note_on_c, 3, 62, 96
5, 14346, Note_off_c, 3, 62, 0
5, 14352, Note_on_c, 3, 65, 96
5, 14394, Note_off_c, 3, 65, 0
5, 14400, Note_on_c, 3, 67, 96
5, 14484, Note_off_c, 3, 67, 0
5, 14496, Note_on_c, 3, 60, 96
5, 14538, Note_off_c, 3, 60, 0
5, 14544, Note_on_c, 3, 64, 96
5, 14586, Note_off_c, 3, 64, 0
5, 14592, Note_on_c, 3, 65, 96
5, 14634, Note_off_c, 3, 65, 0
5, 14640, Note_on_c, 3, 69, 96
5, 14682, Note_off_c, 3, 69, 0
5, 14688, Note_on_c, 3, 65, 96
5, 14730, Note_off_c, 3, 65, 0
5, 14736, Note_on_c, 3, 69, 96
5, 14778, Note_off_c, 3, 69, 0
5, 14784, Note_on_c, 3, 72, 96
5, 14868, Note_off_c, 3, 72, 0
5, 14880, Note_on_c, 3, 60, 96
5, 14922, Note_off_c, 3, 60, 0
5, 14928, Note_on_c, 3, 64, 96
5, 14970, Note_off_c, 3, 64, 0
5, 14976, Note_on_c, 3, 65, 96
5, 15018, Note_off_c, 3, 65, 0
5, 15024, Note_on_c, 3, 69, 96
5, 15066, Note_off_c, 3, 69, 0
5, 15072, Note_on_c, 3, 65, 96
5, 15114, Note_off_c, 3, 65, 0
5, 15120, Note_on_c, 3, 69, 96
5, 15162, Note_off_c, 3, 69, 0
5, 15168, Note_on_c, 3, 65, 96
5, 15210, Note_off_c, 3, 65, 0
5, 15216, Note_on_c, 3, 69, 96
5, 15258, Note_off_c, 3, 69, 0
5, 15264, Note_on_c, 3, 65, 96
5, 15306, Note_off_c, 3, 65, 0
5, 15312, Note_on_c, 3, 69, 96
5, 15354, Note_off_c, 3, 69, 0
5, 15360, Note_on_c, 3, 65, 96
5, 15402, Note_off_c, 3, 65, 0
5, 15408, Note_on_c, 3, 69, 96
5, 15450, Note_off_c, 3, 69, 0
5, 15456, Note_on_c, 3, 72, 96
5, 15498, Note_off_c, 3, 72, 0
5, 15504, Note_on_c, 3, 77, 96
5, 15546, Note_off_c, 3, 77, 0
5, 15552, Note_on_c, 3, 76, 96
5, 15573, Note_off_c, 3, 76, 0
5, 15576, Note_on_c, 3, 74, 96
5, 15597, Note_off_c, 3, 74, 0
5, 15600, Note_on_c, 3, 76, 96
5, 15621, Note_off_c, 3, 76, 0
5, 15624, Note_on_c, 3, 77, 96
5, 15645, Note_off_c, 3, 77, 0
5, 15648, Note_on_c, 3, 76, 96
5, 15690, Note_off_c, 3, 76, 0
5, 15696, Note_on_c, 3, 72, 96
5, 15738, Note_off_c, 3, 72, 0
5, 15744, Note_on_c, 3, 65, 96
5, 15786, Note_off_c, 3, 65, 0
5, 15792, Note_on_c, 3, 64, 96
5, 15834, Note_off_c, 3, 64, 0
5, 15840, Note_on_c, 3, 62, 96
5, 15882, Note_off_c, 3, 62, 0
5, 15888, Note_on_c, 3, 65, 96
5, 15930, Note_off_c, 3, 65, 0
5, 15936, Note_on_c, 3, 67, 96
5, 16020, Note_off_c, 3, 67, 0
5, 16032, Note_on_c, 3, 60, 96
5, 16074, Note_off_c, 3, 60, 0
5, 16080, Note_on_c, 3, 64, 96
5, 16122, Note_off_c, 3, 64, 0
5, 16128, Note_on_c, 3, 65, 96
5, 16170, Note_off_c, 3, 65, 0
5, 16176, Note_on_c, 3, 69, 96
5, 16218, Note_off_c, 3, 69, 0
5, 16224, Note_on_c, 3, 65, 96
5, 16266, Note_off_c, 3, 65, 0
5, 16272, Note_on_c, 3, 69, 96
5, 16314, Note_off_c, 3, 69, 0
5, 16320, Note_on_c, 3, 72, 96
5, 16404, Note_off_c, 3, 72, 0
5, 16416, Note_on_c, 3, 60, 96
5, 16458, Note_off_c, 3, 60, 0
5, 16464, Note_on_c, 3, 64, 96
5, 16506, Note_off_c, 3, 64, 0
5, 16512, Note_on_c, 3, 65, 96
5, 16554, Note_off_c, 3, 65, 0
5, 16560, Note_on_c, 3, 69, 96
5, 16602, Note_off_c, 3, 69, 0
5, 16608, Note_on_c, 3, 65, 96
5, 16650, Note_off_c, 3, 65, 0
5, 16656, Note_on_c, 3, 69, 96
5, 16698, Note_off_c, 3, 69, 0
5, 16704, Note_on_c, 3, 65, 96
5, 16746, Note_off_c, 3, 65, 0
5, 16752, Note_on_c, 3, 69, 96
5, 16794, Note_off_c, 3, 69, 0
5, 16800, Note_on_c, 3, 65, 96
5, 16842, Note_off_c, 3, 65, 0
5, 16848, Note_on_c, 3, 69, 96
5, 16890, Note_off_c, 3, 69, 0
5, 16896, Note_on_c, 3, 65, 96
5, 16938, Note_off_c, 3, 65, 0
5, 16944, Note_on_c, 3, 69, 96
5, 16986, Note_off_c, 3, 69, 0
5, 16992, Note_on_c, 3, 72, 96
5, 17034, Note_off_c, 3, 72, 0
5, 17040, Note_on_c, 3, 77, 96
5, 17082, Note_off_c, 3, 77, 0
5, 17088, Note_on_c, 3, 76, 96
5, 17268, Note_off_c, 3, 76, 0
5, 17280, Tempo, 500000
5, 17280, Note_on_c, 3, 65, 96
5, 17322, Note_off_c, 3, 65, 0
5, 17328, Note_on_c, 3, 64, 96
5, 17370, Note_off_c, 3, 64, 0
5, 17376, Note_on_c, 3, 62, 96
5, 17418, Note_off_c, 3, 62, 0
5, 17424, Note_on_c, 3, 65, 96
5, 17466, Note_off_c, 3, 65, 0
5, 17472, Note_on_c, 3, 67, 96
5, 17556, Note_off_c, 3, 67, 0
5, 17568, Note_on_c, 3, 60, 96
5, 17610, Note_off_c, 3, 60, 0
5, 17616, Note_on_c, 3, 64, 96
5, 17658, Note_off_c, 3, 64, 0
5, 17664, Note_on_c, 3, 65, 96
5, 17706, Note_off_c, 3, 65, 0
5, 17712, Note_on_c, 3, 69, 96
5, 17754, Note_off_c, 3, 69, 0
5, 17760, Note_on_c, 3, 65, 96
5, 17802, Note_off_c, 3, 65, 0
5, 17808, Note_on_c, 3, 69, 96
5, 17850, Note_off_c, 3, 69, 0
5, 17856, Note_on_c, 3, 72, 96
5, 17940, Note_off_c, 3, 72, 0
5, 17952, Note_on_c, 3, 60, 96
5, 17994, Note_off_c, 3, 60, 0
5, 18000, Note_on_c, 3, 64, 96
5, 18042, Note_off_c, 3, 64, 0
5, 18048, Note_on_c, 3, 65, 96
5, 18090, Note_off_c, 3, 65, 0
5, 18096, Note_on_c, 3, 69, 96
5, 18138, Note_off_c, 3, 69, 0
5, 18144, Note_on_c, 3, 65, 96
5, 18186, Note_off_c, 3, 65, 0
5, 18192, Note_on_c, 3, 69, 96
5, 18234, Note_off_c, 3, 69, 0
5, 18240, Note_on_c, 3, 65, 96
5, 18282, Note_off_c, 3, 65, 0
5, 18288, Note_on_c, 3, 69, 96
5, 18330, Note_off_c, 3, 69, 0
5, 18336, Note_on_c, 3, 65, 96
5, 18378, Note_off_c, 3, 65, 0
5, 18384, Note_on_c, 3, 69, 96
5, 18426, Note_off_c, 3, 69, 0
5, 18432, Note_on_c, 3, 65, 96
5, 18474, Note_off_c, 3, 65, 0
5, 18480, Note_on_c, 3, 69, 96
5, 18522, Note_off_c, 3, 69, 0
5, 18528, Note_on_c, 3, 72, 96
5, 18570, Note_off_c, 3, 72, 0
5, 18576, Note_on_c, 3, 77, 96
5, 18618, Note_off_c, 3, 77, 0
5, 18624, Note_on_c, 3, 76, 96
5, 18645, Note_off_c, 3, 76, 0
5, 18648, Note_on_c, 3, 74, 96
5, 18669, Note_off_c, 3, 74, 0
5, 18672, Note_on_c, 3, 76, 96
5, 18693, Note_off_c, 3, 76, 0
5, 18696, Note_on_c, 3, 77, 96
5, 18717, Note_off_c, 3, 77, 0
5, 18720, Note_on_c, 3, 76, 96
5, 18762, Note_off_c, 3, 76, 0
5, 18768, Note_on_c, 3, 72, 96
5, 18810, Note_off_c, 3, 72, 0
5, 18816, Note_on_c, 3, 65, 96
5, 18858, Note_off_c, 3, 65, 0
5, 18864, Note_on_c, 3, 64, 96
5, 18906, Note_off_c, 3, 64, 0
5, 18912, Note_on_c, 3, 62, 96
5, 18954, Note_off_c, 3, 62, 0
5, 18960, Note_on_c, 3, 65, 96
5, 19002, Note_off_c, 3, 65, 0
5, 19008, Note_on_c, 3, 67, 96
5, 19092, Note_off_c, 3, 67, 0
5, 19104, Note_on_c, 3, 60, 96
5, 19146, Note_off_c, 3, 60, 0
5, 19152, Note_on_c, 3, 64, 96
5, 19194, Note_off_c, 3, 64, 0
5, 19200, Note_on_c, 3, 65, 96
5, 19242, Note_off_c, 3, 65, 0
5, 19248, Note_on_c, 3, 69, 96
5, 19290, Note_off_c, 3, 69, 0
5, 19296, Note_on_c, 3, 65, 96
5, 19338, Note_off_c, 3, 65, 0
5, 19344, Note_on_c, 3, 69, 96
5, 19386, Note_off_c, 3, 69, 0
5, 19392, Note_on_c, 3, 72, 96
5, 19476, Note_off_c, 3, 72, 0
5, 19488, Note_on_c, 3, 60, 96
5, 19530, Note_off_c, 3, 60, 0
5, 19536, Note_on_c, 3, 64, 96
5, 19578, Note_off_c, 3, 64, 0
5, 19584, Note_on_c, 3, 65, 96
5, 19626, Note_off_c, 3, 65, 0
5, 19632, Note_on_c, 3, 69, 96
5, 19674, Note_off_c, 3, 69, 0
5, 19680, Note_on_c, 3, 65, 96
5, 19722, Note_off_c, 3, 65, 0
5, 19728, Note_on_c, 3, 69, 96
5, 19770, Note_off_c, 3, 69, 0
5, 19776, Note_on_c, 3, 65, 96
5, 19818, Note_off_c, 3, 65, 0
5, 19824, Note_on_c, 3, 69, 96
5, 19866, Note_off_c, 3, 69, 0
5, 19872, Note_on_c, 3, 65, 96
5, 19914, Note_off_c, 3, 65, 0
5, 19920, Note_on_c, 3, 69, 96
5, 19962, Note_off_c, 3, 69, 0
5, 19968, Note_on_c, 3, 65, 96
5, 20010, Note_off_c, 3, 65, 0
5, 20016, Note_on_c, 3, 69, 96
5, 20058, Note_off_c, 3, 69, 0
5, 20064, Note_on_c, 3, 72, 96
5, 20106, Note_off_c, 3, 72, 0
5, 20112, Note_on_c, 3, 77, 96
5, 20154, Note_off_c, 3, 77, 0
5, 20160, Note_on_c, 3, 76, 96
5, 20340, Note_off_c, 3, 76, 0
5, 20352, Note_on_c, 3, 64, 96
5, 20394, Note_off_c, 3, 64, 0
5, 20400, Note_on_c, 3, 72, 96
5, 20442, Note_off_c, 3, 72, 0
5, 20448, Note_on_c, 3, 60, 96
5, 20490, Note_off_c, 3, 60, 0
5, 20496, Note_on_c, 3, 72, 96
5, 20538, Note_off_c, 3, 72, 0
5, 20544, Note_on_c, 3, 65, 96
5, 20586, Note_off_c, 3, 65, 0
5, 20592, Note_on_c, 3, 72, 96
5, 20634, Note_off_c, 3, 72, 0
5, 20640, Note_on_c, 3, 60, 96
5, 20682, Note_off_c, 3, 60, 0
5, 20688, Note_on_c, 3, 72, 96
5, 20730, Note_off_c, 3, 72, 0
5, 20736, Note_on_c, 3, 64, 96
5, 20778, Note_off_c, 3, 64, 0
5, 20784, Note_on_c, 3, 72, 96
5, 20826, Note_off_c, 3, 72, 0
5, 20832, Note_on_c, 3, 60, 96
5, 20874, Note_off_c, 3, 60, 0
5, 20880, Note_on_c, 3, 72, 96
5, 20922, Note_off_c, 3, 72, 0
5, 20928, Note_on_c, 3, 65, 96
5, 20970, Note_off_c, 3, 65, 0
5, 20976, Note_on_c, 3, 72, 96
5, 21018, Note_off_c, 3, 72, 0
5, 21024, Note_on_c, 3, 60, 96
5, 21066, Note_off_c, 3, 60, 0
5, 21072, Note_on_c, 3, 72, 96
5, 21114, Note_off_c, 3, 72, 0
5, 21120, Note_on_c, 3, 64, 96
5, 21162, Note_off_c, 3, 64, 0
5, 21168, Note_on_c, 3, 67, 96
5, 21210, Note_off_c, 3, 67, 0
5, 21216, Note_on_c, 3, 64, 96
5, 21258, Note_off_c, 3, 64, 0
5, 21264, Note_on_c, 3, 67, 96
5, 21306, Note_off_c, 3, 67, 0
5, 21312, Note_on_c, 3, 65, 96
5, 21354, Note_off_c, 3, 65, 0
5, 21360, Note_on_c, 3, 69, 96
5, 21402, Note_off_c, 3, 69, 0
5, 21408, Note_on_c, 3, 65, 96
5, 21450, Note_off_c, 3, 65, 0
5, 21456, Note_on_c, 3, 69, 96
5, 21498, Note_off_c, 3, 69, 0
5, 21504, Note_on_c, 3, 70, 96
5, 21525, Note_off_c, 3, 70, 0
5, 21528, Note_on_c, 3, 69, 96
5, 21549, Note_off_c, 3, 69, 0
5, 21552, Note_on_c, 3, 70, 96
5, 21573, Note_off_c, 3, 70, 0
5, 21576, Note_on_c, 3, 72, 96
5, 21597, Note_off_c, 3, 72, 0
5, 21600, Note_on_c, 3, 74, 96
5, 21621, Note_off_c, 3, 74, 0
5, 21624, Note_on_c, 3, 76, 96
5, 21645, Note_off_c, 3, 76, 0
5, 21648, Note_on_c, 3, 77, 96
5, 21669, Note_off_c, 3, 77, 0
5, 21672, Note_on_c, 3, 74, 96
5, 21693, Note_off_c, 3, 74, 0
5, 21696, Note_on_c, 3, 76, 96
5, 21717, Note_off_c, 3, 76, 0
5, 21720, Note_on_c, 3, 74, 96
5, 21741, Note_off_c, 3, 74, 0
5, 21744, Note_on_c, 3, 76, 96
5, 21765, Note_off_c, 3, 76, 0
5, 21768, Note_on_c, 3, 77, 96
5, 21789, Note_off_c, 3, 77, 0
5, 21792, Note_on_c, 3, 76, 96
5, 21813, Note_off_c, 3, 76, 0
5, 21816, Note_on_c, 3, 77, 96
5, 21837, Note_off_c, 3, 77, 0
5, 21840, Note_on_c, 3, 79, 96
5, 21861, Note_off_c, 3, 79, 0
5, 21864, Note_on_c, 3, 77, 96
5, 21885, Note_off_c, 3, 77, 0
5, 21888, Note_on_c, 3, 76, 96
5, 21930, Note_off_c, 3, 76, 0
5, 21936, Note_on_c, 3, 72, 96
5, 21978, Note_off_c, 3, 72, 0
5, 21984, Note_on_c, 3, 60, 96
5, 22026, Note_off_c, 3, 60, 0
5, 22032, Note_on_c, 3, 72, 96
5, 22074, Note_off_c, 3, 72, 0
5, 22080, Note_on_c, 3, 65, 96
5, 22122, Note_off_c, 3, 65, 0
5, 22128, Note_on_c, 3, 72, 96
5, 22170, Note_off_c, 3, 72, 0
5, 22176, Note_on_c, 3, 60, 96
5, 22218, Note_off_c, 3, 60, 0
5, 22224, Note_on_c, 3, 72, 96
5, 22266, Note_off_c, 3, 72, 0
5, 22272, Note_on_c, 3, 64, 96
5, 22314, Note_off_c, 3, 64, 0
5, 22320, Note_on_c, 3, 72, 96
5, 22362, Note_off_c, 3, 72, 0
5, 22368, Note_on_c, 3, 60, 96
5, 22410, Note_off_c, 3, 60, 0
5, 22416, Note_on_c, 3, 72, 96
5, 22458, Note_off_c, 3, 72, 0
5, 22464, Note_on_c, 3, 65, 96
5, 22506, Note_off_c, 3, 65, 0
5, 22512, Note_on_c, 3, 72, 96
5, 22554, Note_off_c, 3, 72, 0
5, 22560, Note_on_c, 3, 60, 96
5, 22602, Note_off_c, 3, 60, 0
5, 22608, Note_on_c, 3, 72, 96
5, 22650, Note_off_c, 3, 72, 0
5, 22656, Note_on_c, 3, 64, 96
5, 22698, Note_off_c, 3, 64, 0
5, 22704, Note_on_c, 3, 67, 96
5, 22746, Note_off_c, 3, 67, 0
5, 22752, Note_on_c, 3, 64, 96
5, 22794, Note_off_c, 3, 64, 0
5, 22800, Note_on_c, 3, 67, 96
5, 22842, Note_off_c, 3, 67, 0
5, 22848, Note_on_c, 3, 65, 96
5, 22890, Note_off_c, 3, 65, 0
5, 22896, Note_on_c, 3, 69, 96
5, 22938, Note_off_c, 3, 69, 0
5, 22944, Note_on_c, 3, 65, 96
5, 22986, Note_off_c, 3, 65, 0
5, 22992, Note_on_c, 3, 69, 96
5, 23034, Note_off_c, 3, 69, 0
5, 23040, Note_on_c, 3, 65, 96
5, 23082, Note_off_c, 3, 65, 0
5, 23088, Note_on_c, 3, 77, 96
5, 23130, Note_off_c, 3, 77, 0
5, 23136, Note_on_c, 3, 77, 96
5, 23146, Note_off_c, 3, 77, 0
5, 23148, Note_on_c, 3, 76, 96
5, 23158, Note_off_c, 3, 76, 0
5, 23160, Note_on_c, 3, 77, 96
5, 23170, Note_off_c, 3, 77, 0
5, 23172, Note_on_c, 3, 76, 96
5, 23182, Note_off_c, 3, 76, 0
5, 23184, Note_on_c, 3, 74, 96
5, 23205, Note_off_c, 3, 74, 0
5, 23208, Note_on_c, 3, 76, 96
5, 23229, Note_off_c, 3, 76, 0
5, 23232, Note_on_c, 3, 77, 96
5, 23412, Note_off_c, 3, 77, 0
5, 23424, Note_on_c, 3, 64, 96
5, 23466, Note_off_c, 3, 64, 0
5, 23472, Note_on_c, 3, 72, 96
5, 23514, Note_off_c, 3, 72, 0
5, 23520, Note_on_c, 3, 60, 96
5, 23562, Note_off_c, 3, 60, 0
5, 23568, Note_on_c, 3, 72, 96
5, 23610, Note_off_c, 3, 72, 0
5, 23616, Note_on_c, 3, 65, 96
5, 23658, Note_off_c, 3, 65, 0
5, 23664, Note_on_c, 3, 72, 96
5, 23706, Note_off_c, 3, 72, 0
5, 23712, Note_on_c, 3, 60, 96
5, 23754, Note_off_c, 3, 60, 0
5, 23760, Note_on_c, 3, 72, 96
5, 23802, Note_off_c, 3, 72, 0
5, 23808, Note_on_c, 3, 64, 96
5, 23850, Note_off_c, 3, 64, 0
5, 23856, Note_on_c, 3, 72, 96
5, 23898, Note_off_c, 3, 72, 0
5, 23904, Note_on_c, 3, 60, 96
5, 23946, Note_off_c, 3, 60, 0
5, 23952, Note_on_c, 3, 72, 96
5, 23994, Note_off_c, 3, 72, 0
5, 24000, Note_on_c, 3, 65, 96
5, 24042, Note_off_c, 3, 65, 0
5, 24048, Note_on_c, 3, 72, 96
5, 24090, Note_off_c, 3, 72, 0
5, 24096, Note_on_c, 3, 60, 96
5, 24138, Note_off_c, 3, 60, 0
5, 24144, Note_on_c, 3, 72, 96
5, 24186, Note_off_c, 3, 72, 0
5, 24192, Note_on_c, 3, 64, 96
5, 24234, Note_off_c, 3, 64, 0
5, 24240, Note_on_c, 3, 67, 96
5, 24282, Note_off_c, 3, 67, 0
5, 24288, Note_on_c, 3, 64, 96
5, 24330, Note_off_c, 3, 64, 0
5, 24336, Note_on_c, 3, 67, 96
5, 24378, Note_off_c, 3, 67, 0
5, 24384, Note_on_c, 3, 65, 96
5, 24426, Note_off_c, 3, 65, 0
5, 24432, Note_on_c, 3, 69, 96
5, 24474, Note_off_c, 3, 69, 0
5, 24480, Note_on_c, 3, 65, 96
5, 24522, Note_off_c, 3, 65, 0
5, 24528, Note_on_c, 3, 69, 96
5, 24570, Note_off_c, 3, 69, 0
5, 24576, Note_on_c, 3, 70, 96
5, 24597, Note_off_c, 3, 70, 0
5, 24600, Note_on_c, 3, 69, 96
5, 24621, Note_off_c, 3, 69, 0
5, 24624, Note_on_c, 3, 70, 96
5, 24645, Note_off_c, 3, 70, 0
5, 24648, Note_on_c, 3, 72, 96
5, 24669, Note_off_c, 3, 72, 0
5, 24672, Note_on_c, 3, 74, 96
5, 24693, Note_off_c, 3, 74, 0
5, 24696, Note_on_c, 3, 76, 96
5, 24717, Note_off_c, 3, 76, 0
5, 24720, Note_on_c, 3, 77, 96
5, 24741, Note_off_c, 3, 77, 0
5, 24744, Note_on_c, 3, 74, 96
5, 24765, Note_off_c, 3, 74, 0
5, 24768, Note_on_c, 3, 76, 96
5, 24789, Note_off_c, 3, 76, 0
5, 24792, Note_on_c, 3, 74, 96
5, 24813, Note_off_c, 3, 74, 0
5, 24816, Note_on_c, 3, 76, 96
5, 24837, Note_off_c, 3, 76, 0
5, 24840, Note_on_c, 3, 77, 96
5, 24861, Note_off_c, 3, 77, 0
5, 24864, Note_on_c, 3, 76, 96
5, 24885, Note_off_c, 3, 76, 0
5, 24888, Note_on_c, 3, 77, 96
5, 24909, Note_off_c, 3, 77, 0
5, 24912, Note_on_c, 3, 79, 96
5, 24933, Note_off_c, 3, 79, 0
5, 24936, Note_on_c, 3, 77, 96
5, 24957, Note_off_c, 3, 77, 0
5, 24960, Note_on_c, 3, 76, 96
5, 25002, Note_off_c, 3, 76, 0
5, 25008, Note_on_c, 3, 72, 96
5, 25050, Note_off_c, 3, 72, 0
5, 25056, Note_on_c, 3, 60, 96
5, 25098, Note_off_c, 3, 60, 0
5, 25104, Note_on_c, 3, 72, 96
5, 25146, Note_off_c, 3, 72, 0
5, 25152, Note_on_c, 3, 65, 96
5, 25194, Note_off_c, 3, 65, 0
5, 25200, Note_on_c, 3, 72, 96
5, 25242, Note_off_c, 3, 72, 0
5, 25248, Note_on_c, 3, 60, 96
5, 25290, Note_off_c, 3, 60, 0
5, 25296, Note_on_c, 3, 72, 96
5, 25338, Note_off_c, 3, 72, 0
5, 25344, Note_on_c, 3, 64, 96
5, 25386, Note_off_c, 3, 64, 0
5, 25392, Note_on_c, 3, 72, 96
5, 25434, Note_off_c, 3, 72, 0
5, 25440, Note_on_c, 3, 60, 96
5, 25482, Note_off_c, 3, 60, 0
5, 25488, Note_on_c, 3, 72, 96
5, 25530, Note_off_c, 3, 72, 0
5, 25536, Note_on_c, 3, 65, 96
5, 25578, Note_off_c, 3, 65, 0
5, 25584, Note_on_c, 3, 72, 96
5, 25626, Note_off_c, 3, 72, 0
5, 25632, Note_on_c, 3, 60, 96
5, 25674, Note_off_c, 3, 60, 0
5, 25680, Note_on_c, 3, 72, 96
5, 25722, Note_off_c, 3, 72, 0
5, 25728, Note_on_c, 3, 64, 96
5, 25770, Note_off_c, 3, 64, 0
5, 25776, Note_on_c, 3, 67, 96
5, 25818, Note_off_c, 3, 67, 0
5, 25824, Note_on_c, 3, 64, 96
5, 25866, Note_off_c, 3, 64, 0
5, 25872, Note_on_c, 3, 67, 96
5, 25914, Note_off_c, 3, 67, 0
5, 25920, Note_on_c, 3, 65, 96
5, 25962, Note_off_c, 3, 65, 0
5, 25968, Note_on_c, 3, 69, 96
5, 26010, Note_off_c, 3, 69, 0
5, 26016, Note_on_c, 3, 65, 96
5, 26058, Note_off_c, 3, 65, 0
5, 26064, Note_on_c, 3, 69, 96
5, 26106, Note_off_c, 3, 69, 0
5, 26112, Note_on_c, 3, 65, 96
5, 26154, Note_off_c, 3, 65, 0
5, 26160, Note_on_c, 3, 77, 96
5, 26202, Note_off_c, 3, 77, 0
5, 26208, Note_on_c, 3, 77, 96
5, 26218, Note_off_c, 3, 77, 0
5, 26220, Note_on_c, 3, 76, 96
5, 26230, Note_off_c, 3, 76, 0
5, 26232, Note_on_c, 3, 77, 96
5, 26242, Note_off_c, 3, 77, 0
5, 26244, Note_on_c, 3, 76, 96
5, 26254, Note_off_c, 3, 76, 0
5, 26256, Note_on_c, 3, 74, 96
5, 26277, Note_off_c, 3, 74, 0
5, 26280, Note_on_c, 3, 76, 96
5, 26301, Note_off_c, 3, 76, 0
5, 26304, Note_on_c, 3, 77, 96
5, 26484, Note_off_c, 3, 77, 0
5, 26784, Time_signature, 3, 2, 96, 8
5, 26880, Tempo, 428571
5, 26880, Note_on_c, 3, 69, 62
5, 26964, Note_off_c, 3, 69, 0
5, 26976, Note_on_c, 3, 72, 62
5, 27060, Note_off_c, 3, 72, 0
5, 27072, Note_on_c, 3, 70, 62
5, 27156, Note_off_c, 3, 70, 0
5, 27168, Note_on_c, 3, 69, 62
5, 27252, Note_off_c, 3, 69, 0
5, 27264, Note_on_c, 3, 65, 62
5, 27348, Note_off_c, 3, 65, 0
5, 27360, Note_on_c, 3, 65, 62
5, 27444, Note_off_c, 3, 65, 0
5, 27456, Note_on_c, 3, 69, 62
5, 27540, Note_off_c, 3, 69, 0
5, 27552, Note_on_c, 3, 72, 62
5, 27636, Note_off_c, 3, 72, 0
5, 27648, Note_on_c, 3, 70, 62
5, 27732, Note_off_c, 3, 70, 0
5, 27744, Note_on_c, 3, 72, 62
5, 27828, Note_off_c, 3, 72, 0
5, 27840, Note_on_c, 3, 70, 62
5, 27924, Note_off_c, 3, 70, 0
5, 27936, Note_on_c, 3, 69, 62
5, 28020, Note_off_c, 3, 69, 0
5, 28032, Note_on_c, 3, 67, 62
5, 28212, Note_off_c, 3, 67, 0
5, 28224, Note_on_c, 3, 65, 62
5, 28308, Note_off_c, 3, 65, 0
5, 28320, Note_on_c, 3, 64, 62
5, 28362, Note_off_c, 3, 64, 0
5, 28368, Note_on_c, 3, 65, 62
5, 28410, Note_off_c, 3, 65, 0
5, 28416, Note_on_c, 3, 67, 62
5, 28426, Note_off_c, 3, 67, 0
5, 28428, Note_on_c, 3, 65, 62
5, 28438, Note_off_c, 3, 65, 0
5, 28440, Note_on_c, 3, 67, 62
5, 28450, Note_off_c, 3, 67, 0
5, 28452, Note_on_c, 3, 65, 62
5, 28462, Note_off_c, 3, 65, 0
5, 28464, Note_on_c, 3, 67, 62
5, 28474, Note_off_c, 3, 67, 0
5, 28476, Note_on_c, 3, 65, 62
5, 28486, Note_off_c, 3, 65, 0
5, 28488, Note_on_c, 3, 67, 62
5, 28498, Note_off_c, 3, 67, 0
5, 28500, Note_on_c, 3, 65, 62
5, 28510, Note_off_c, 3, 65, 0
5, 28512, Note_on_c, 3, 67, 62
5, 28522, Note_off_c, 3, 67, 0
5, 28524, Note_on_c, 3, 65, 62
5, 28534, Note_off_c, 3, 65, 0
5, 28536, Note_on_c, 3, 67, 62
5, 28546, Note_off_c, 3, 67, 0
5, 28548, Note_on_c, 3, 65, 62
5, 28558, Note_off_c, 3, 65, 0
5, 28560, Note_on_c, 3, 64, 62
5, 28581, Note_off_c, 3, 64, 0
5, 28584, Note_on_c, 3, 65, 62
5, 28605, Note_off_c, 3, 65, 0
5, 28608, Note_on_c, 3, 67, 62
5, 28692, Note_off_c, 3, 67, 0
5, 28704, Note_on_c, 3, 65, 62
5, 28788, Note_off_c, 3, 65, 0
5, 28800, Note_on_c, 3, 64, 62
5, 28884, Note_off_c, 3, 64, 0
5, 28896, Note_on_c, 3, 65, 62
5, 29076, Note_off_c, 3, 65, 0
5, 29088, Note_on_c, 3, 67, 62
5, 29172, Note_off_c, 3, 67, 0
5, 29184, Note_on_c, 3, 65, 62
5, 29268, Note_off_c, 3, 65, 0
5, 29280, Note_on_c, 3, 67, 62
5, 29460, Note_off_c, 3, 67, 0
5, 29472, Note_on_c, 3, 67, 62
5, 29652, Note_off_c, 3, 67, 0
5, 29664, Note_on_c, 3, 67, 62
5, 29748, Note_off_c, 3, 67, 0
5, 29760, Note_on_c, 3, 69, 62
5, 29802, Note_off_c, 3, 69, 0
5, 29808, Note_on_c, 3, 71, 62
5, 29850, Note_off_c, 3, 71, 0
5, 29856, Note_on_c, 3, 72, 62
5, 29866, Note_off_c, 3, 72, 0
5, 29868, Note_on_c, 3, 71, 62
5, 29878, Note_off_c, 3, 71, 0
5, 29880, Note_on_c, 3, 72, 62
5, 29890, Note_off_c, 3, 72, 0
5, 29892, Note_on_c, 3, 71, 62
5, 29902, Note_off_c, 3, 71, 0
5, 29904, Note_on_c, 3, 72, 62
5, 29914, Note_off_c, 3, 72, 0
5, 29916, Note_on_c, 3, 71, 62
5, 29926, Note_off_c, 3, 71, 0
5, 29928, Note_on_c, 3, 72, 62
5, 29938, Note_off_c, 3, 72, 0
5, 29940, Note_on_c, 3, 71, 62
5, 29950, Note_off_c, 3, 71, 0
5, 29952, Note_on_c, 3, 72, 62
5, 29962, Note_off_c, 3, 72, 0
5, 29964, Note_on_c, 3, 71, 62
5, 29974, Note_off_c, 3, 71, 0
5, 29976, Note_on_c, 3, 72, 62
5, 29986, Note_off_c, 3, 72, 0
5, 29988, Note_on_c, 3, 71, 62
5, 29998, Note_off_c, 3, 71, 0
5, 30000, Note_on_c, 3, 67, 62
5, 30042, Note_off_c, 3, 67, 0
5, 30048, Note_on_c, 3, 67, 62
5, 30324, Note_off_c, 3, 67, 0
5, 30336, Note_on_c, 3, 69, 62
5, 30420, Note_off_c, 3, 69, 0
5, 30432, Note_on_c, 3, 72, 62
5, 30516, Note_off_c, 3, 72, 0
5, 30528, Note_on_c, 3, 70, 62
5, 30612, Note_off_c, 3, 70, 0
5, 30624, Note_on_c, 3, 69, 62
5, 30708, Note_off_c, 3, 69, 0
5, 30720, Note_on_c, 3, 65, 62
5, 30804, Note_off_c, 3, 65, 0
5, 30816, Note_on_c, 3, 65, 62
5, 30900, Note_off_c, 3, 65, 0
5, 30912, Note_on_c, 3, 69, 62
5, 30996, Note_off_c, 3, 69, 0
5, 31008, Note_on_c, 3, 72, 62
5, 31092, Note_off_c, 3, 72, 0
5, 31104, Note_on_c, 3, 70, 62
5, 31188, Note_off_c, 3, 70, 0
5, 31200, Note_on_c, 3, 72, 62
5, 31284, Note_off_c, 3, 72, 0
5, 31296, Note_on_c, 3, 70, 62
5, 31380, Note_off_c, 3, 70, 0
5, 31392, Note_on_c, 3, 69, 62
5, 31476, Note_off_c, 3, 69, 0
5, 31488, Note_on_c, 3, 67, 62
5, 31668, Note_off_c, 3, 67, 0
5, 31680, Note_on_c, 3, 65, 62
5, 31764, Note_off_c, 3, 65, 0
5, 31776, Note_on_c, 3, 64, 62
5, 31818, Note_off_c, 3, 64, 0
5, 31824, Note_on_c, 3, 65, 62
5, 31866, Note_off_c, 3, 65, 0
5, 31872, Note_on_c, 3, 67, 62
5, 31882, Note_off_c, 3, 67, 0
5, 31884, Note_on_c, 3, 65, 62
5, 31894, Note_off_c, 3, 65, 0
5, 31896, Note_on_c, 3, 67, 62
5, 31906, Note_off_c, 3, 67, 0
5, 31908, Note_on_c, 3, 65, 62
5, 31918, Note_off_c, 3, 65, 0
5, 31920, Note_on_c, 3, 67, 62
5, 31930, Note_off_c, 3, 67, 0
5, 31932, Note_on_c, 3, 65, 62
5, 31942, Note_off_c, 3, 65, 0
5, 31944, Note_on_c, 3, 67, 62
5, 31954, Note_off_c, 3, 67, 0
5, 31956, Note_on_c, 3, 65, 62
5, 31966, Note_off_c, 3, 65, 0
5, 31968, Note_on_c, 3, 67, 62
5, 31978, Note_off_c, 3, 67, 0
5, 31980, Note_on_c, 3, 65, 62
5, 31990, Note_off_c, 3, 65, 0
5, 31992, Note_on_c, 3, 67, 62
5, 32002, Note_off_c, 3, 67, 0
5, 32004, Note_on_c, 3, 65, 62
5, 32014, Note_off_c, 3, 65, 0
5, 32016, Note_on_c, 3, 64, 62
5, 32037, Note_off_c, 3, 64, 0
5, 32040, Note_on_c, 3, 65, 62
5, 32061, Note_off_c, 3, 65, 0
5, 32064, Note_on_c, 3, 67, 62
5, 32148, Note_off_c, 3, 67, 0
5, 32160, Note_on_c, 3, 65, 62
5, 32244, Note_off_c, 3, 65, 0
5, 32256, Note_on_c, 3, 64, 62
5, 32340, Note_off_c, 3, 64, 0
5, 32352, Note_on_c, 3, 65, 62
5, 32532, Note_off_c, 3, 65, 0
5, 32544, Note_on_c, 3, 67, 62
5, 32628, Note_off_c, 3, 67, 0
5, 32640, Note_on_c, 3, 65, 62
5, 32724, Note_off_c, 3, 65, 0
5, 32736, Note_on_c, 3, 67, 62
5, 32916, Note_off_c, 3, 67, 0
5, 32928, Note_on_c, 3, 67, 62
5, 33108, Note_off_c, 3, 67, 0
5, 33120, Note_on_c, 3, 67, 62
5, 33204, Note_off_c, 3, 67, 0
5, 33216, Note_on_c, 3, 69, 62
5, 33258, Note_off_c, 3, 69, 0
5, 33264, Note_on_c, 3, 71, 62
5, 33306, Note_off_c, 3, 71, 0
5, 33312, Note_on_c, 3, 72, 62
5, 33322, Note_off_c, 3, 72, 0
5, 33324, Note_on_c, 3, 71, 62
5, 33334, Note_off_c, 3, 71, 0
5, 33336, Note_on_c, 3, 72, 62
5, 33346, Note_off_c, 3, 72, 0
5, 33348, Note_on_c, 3, 71, 62
5, 33358, Note_off_c, 3, 71, 0
5, 33360, Note_on_c, 3, 72, 62
5, 33370, Note_off_c, 3, 72, 0
5, 33372, Note_on_c, 3, 71, 62
5, 33382, Note_off_c, 3, 71, 0
5, 33384, Note_on_c, 3, 72, 62
5, 33394, Note_off_c, 3, 72, 0
5, 33396, Note_on_c, 3, 71, 62
5, 33406, Note_off_c, 3, 71, 0
5, 33408, Note_on_c, 3, 72, 62
5, 33418, Note_off_c, 3, 72, 0
5, 33420, Note_on_c, 3, 71, 62
5, 33430, Note_off_c, 3, 71, 0
5, 33432, Note_on_c, 3, 72, 62
5, 33442, Note_off_c, 3, 72, 0
5, 33444, Note_on_c, 3, 71, 62
5, 33454, Note_off_c, 3, 71, 0
5, 33456, Note_on_c, 3, 67, 62
5, 33498, Note_off_c, 3, 67, 0
5, 33504, Note_on_c, 3, 67, 62
5, 33780, Note_off_c, 3, 67, 0
5, 33792, Note_on_c, 3, 72, 62
5, 33876, Note_off_c, 3, 72, 0
5, 33888, Note_on_c, 3, 79, 62
5, 33972, Note_off_c, 3, 79, 0
5, 33984, Note_on_c, 3, 77, 62
5, 34068, Note_off_c, 3, 77, 0
5, 34080, Note_on_c, 3, 76, 62
5, 34164, Note_off_c, 3, 76, 0
5, 34176, Note_on_c, 3, 72, 62
5, 34260, Note_off_c, 3, 72, 0
5, 34272, Note_on_c, 3, 72, 62
5, 34356, Note_off_c, 3, 72, 0
5, 34368, Note_on_c, 3, 76, 62
5, 34452, Note_off_c, 3, 76, 0
5, 34464, Note_on_c, 3, 79, 62
5, 34548, Note_off_c, 3, 79, 0
5, 34560, Note_on_c, 3, 77, 62
5, 34644, Note_off_c, 3, 77, 0
5, 34656, Note_on_c, 3, 79, 62
5, 34740, Note_off_c, 3, 79, 0
5, 34752, Note_on_c, 3, 77, 62
5, 34836, Note_off_c, 3, 77, 0
5, 34848, Note_on_c, 3, 76, 62
5, 34932, Note_off_c, 3, 76, 0
5, 34944, Note_on_c, 3, 74, 62
5, 35124, Note_off_c, 3, 74, 0
5, 35136, Note_on_c, 3, 72, 62
5, 35220, Note_off_c, 3, 72, 0
5, 35232, Note_on_c, 3, 71, 62
5, 35274, Note_off_c, 3, 71, 0
5, 35280, Note_on_c, 3, 72, 62
5, 35322, Note_off_c, 3, 72, 0
5, 35328, Note_on_c, 3, 74, 62
5, 35338, Note_off_c, 3, 74, 0
5, 35340, Note_on_c, 3, 72, 62
5, 35350, Note_off_c, 3, 72, 0
5, 35352, Note_on_c, 3, 74, 62
5, 35362, Note_off_c, 3, 74, 0
5, 35364, Note_on_c, 3, 72, 62
5, 35374, Note_off_c, 3, 72, 0
5, 35376, Note_on_c, 3, 74, 62
5, 35386, Note_off_c, 3, 74, 0
5, 35388, Note_on_c, 3, 72, 62
5, 35398, Note_off_c, 3, 72, 0
5, 35400, Note_on_c, 3, 74, 62
5, 35410, Note_off_c, 3, 74, 0
5, 35412, Note_on_c, 3, 72, 62
5, 35422, Note_off_c, 3, 72, 0
5, 35424, Note_on_c, 3, 74, 62
5, 35434, Note_off_c, 3, 74, 0
5, 35436, Note_on_c, 3, 72, 62
5, 35446, Note_off_c, 3, 72, 0
5, 35448, Note_on_c, 3, 74, 62
5, 35458, Note_off_c, 3, 74, 0
5, 35460, Note_on_c, 3, 72, 62
5, 35470, Note_off_c, 3, 72, 0
5, 35472, Note_on_c, 3, 71, 62
5, 35493, Note_off_c, 3, 71, 0
5, 35496, Note_on_c, 3, 72, 62
5, 35517, Note_off_c, 3, 72, 0
5, 35520, Note_on_c, 3, 74, 62
5, 35604, Note_off_c, 3, 74, 0
5, 35616, Note_on_c, 3, 72, 62
5, 35700, Note_off_c, 3, 72, 0
5, 35712, Note_on_c, 3, 71, 62
5, 35796, Note_off_c, 3, 71, 0
5, 35808, Note_on_c, 3, 72, 62
5, 36084, Note_off_c, 3, 72, 0
5, 36096, Note_on_c, 3, 72, 62
5, 36276, Note_off_c, 3, 72, 0
5, 36288, Note_on_c, 3, 77, 62
5, 36372, Note_off_c, 3, 77, 0
5, 36384, Note_on_c, 3, 76, 62
5, 36468, Note_off_c, 3, 76, 0
5, 36480, Note_on_c, 3, 79, 62
5, 36490, Note_off_c, 3, 79, 0
5, 36492, Note_on_c, 3, 77, 62
5, 36502, Note_off_c, 3, 77, 0
5, 36504, Note_on_c, 3, 79, 62
5, 36514, Note_off_c, 3, 79, 0
5, 36516, Note_on_c, 3, 77, 62
5, 36526, Note_off_c, 3, 77, 0
5, 36528, Note_on_c, 3, 79, 62
5, 36538, Note_off_c, 3, 79, 0
5, 36540, Note_on_c, 3, 77, 62
5, 36550, Note_off_c, 3, 77, 0
5, 36552, Note_on_c, 3, 79, 62
5, 36562, Note_off_c, 3, 79, 0
5, 36564, Note_on_c, 3, 77, 62
5, 36574, Note_off_c, 3, 77, 0
5, 36576, Note_on_c, 3, 79, 62
5, 36660, Note_off_c, 3, 79, 0
5, 36672, Note_on_c, 3, 74, 62
5, 36756, Note_off_c, 3, 74, 0
5, 36768, Note_on_c, 3, 74, 62
5, 36778, Note_off_c, 3, 74, 0
5, 36780, Note_on_c, 3, 72, 62
5, 36790, Note_off_c, 3, 72, 0
5, 36792, Note_on_c, 3, 74, 62
5, 36802, Note_off_c, 3, 74, 0
5, 36804, Note_on_c, 3, 72, 62
5, 36814, Note_off_c, 3, 72, 0
5, 36816, Note_on_c, 3, 74, 62
5, 36826, Note_off_c, 3, 74, 0
5, 36828, Note_on_c, 3, 72, 62
5, 36838, Note_off_c, 3, 72, 0
5, 36840, Note_on_c, 3, 74, 62
5, 36850, Note_off_c, 3, 74, 0
5, 36852, Note_on_c, 3, 72, 62
5, 36862, Note_off_c, 3, 72, 0
5, 36864, Note_on_c, 3, 74, 62
5, 36874, Note_off_c, 3, 74, 0
5, 36876, Note_on_c, 3, 72, 62
5, 36886, Note_off_c, 3, 72, 0
5, 36888, Note_on_c, 3, 74, 62
5, 36898, Note_off_c, 3, 74, 0
5, 36900, Note_on_c, 3, 72, 62
5, 36910, Note_off_c, 3, 72, 0
5, 36912, Note_on_c, 3, 72, 62
5, 36954, Note_off_c, 3, 72, 0
5, 36960, Note_on_c, 3, 72, 62
5, 37236, Note_off_c, 3, 72, 0
5, 37248, Note_on_c, 3, 72, 62
5, 37332, Note_off_c, 3, 72, 0
5, 37344, Note_on_c, 3, 79, 62
5, 37428, Note_off_c, 3, 79, 0
5, 37440, Note_on_c, 3, 77, 62
5, 37524, Note_off_c, 3, 77, 0
5, 37536, Note_on_c, 3, 76, 62
5, 37620, Note_off_c, 3, 76, 0
5, 37632, Note_on_c, 3, 72, 62
5, 37716, Note_off_c, 3, 72, 0
5, 37728, Note_on_c, 3, 72, 62
5, 37812, Note_off_c, 3, 72, 0
5, 37824, Note_on_c, 3, 76, 62
5, 37908, Note_off_c, 3, 76, 0
5, 37920, Note_on_c, 3, 79, 62
5, 38004, Note_off_c, 3, 79, 0
5, 38016, Note_on_c, 3, 77, 62
5, 38100, Note_off_c, 3, 77, 0
5, 38112, Note_on_c, 3, 79, 62
5, 38196, Note_off_c, 3, 79, 0
5, 38208, Note_on_c, 3, 77, 62
5, 38292, Note_off_c, 3, 77, 0
5, 38304, Note_on_c, 3, 76, 62
5, 38388, Note_off_c, 3, 76, 0
5, 38400, Note_on_c, 3, 74, 62
5, 38580, Note_off_c, 3, 74, 0
5, 38592, Note_on_c, 3, 72, 62
5, 38676, Note_off_c, 3, 72, 0
5, 38688, Note_on_c, 3, 71, 62
5, 38730, Note_off_c, 3, 71, 0
5, 38736, Note_on_c, 3, 72, 62
5, 38778, Note_off_c, 3, 72, 0
5, 38784, Note_on_c, 3, 74, 62
5, 38794, Note_off_c, 3, 74, 0
5, 38796, Note_on_c, 3, 72, 62
5, 38806, Note_off_c, 3, 72, 0
5, 38808, Note_on_c, 3, 74, 62
5, 38818, Note_off_c, 3, 74, 0
5, 38820, Note_on_c, 3, 72, 62
5, 38830, Note_off_c, 3, 72, 0
5, 38832, Note_on_c, 3, 74, 62
5, 38842, Note_off_c, 3, 74, 0
5, 38844, Note_on_c, 3, 72, 62
5, 38854, Note_off_c, 3, 72, 0
5, 38856, Note_on_c, 3, 74, 62
5, 38866, Note_off_c, 3, 74, 0
5, 38868, Note_on_c, 3, 72, 62
5, 38878, Note_off_c, 3, 72, 0
5, 38880, Note_on_c, 3, 74, 62
5, 38890, Note_off_c, 3, 74, 0
5, 38892, Note_on_c, 3, 72, 62
5, 38902, Note_off_c, 3, 72, 0
5, 38904, Note_on_c, 3, 74, 62
5, 38914, Note_off_c, 3, 74, 0
5, 38916, Note_on_c, 3, 72, 62
5, 38926, Note_off_c, 3, 72, 0
5, 38928, Note_on_c, 3, 71, 62
5, 38949, Note_off_c, 3, 71, 0
5, 38952, Note_on_c, 3, 72, 62
5, 38973, Note_off_c, 3, 72, 0
5, 38976, Note_on_c, 3, 74, 62
5, 39060, Note_off_c, 3, 74, 0
5, 39072, Note_on_c, 3, 72, 62
5, 39156, Note_off_c, 3, 72, 0
5, 39168, Note_on_c, 3, 71, 62
5, 39252, Note_off_c, 3, 71, 0
5, 39264, Note_on_c, 3, 72, 62
5, 39540, Note_off_c, 3, 72, 0
5, 39552, Note_on_c, 3, 72, 62
5, 39732, Note_off_c, 3, 72, 0
5, 39744, Note_on_c, 3, 77, 62
5, 39828, Note_off_c, 3, 77, 0
5, 39840, Note_on_c, 3, 76, 62
5, 39924, Note_off_c, 3, 76, 0
5, 39936, Note_on_c, 3, 79, 62
5, 39946, Note_off_c, 3, 79, 0
5, 39948, Note_on_c, 3, 77, 62
5, 39958, Note_off_c, 3, 77, 0
5, 39960, Note_on_c, 3, 79, 62
5, 39970, Note_off_c, 3, 79, 0
5, 39972, Note_on_c, 3, 77, 62
5, 39982, Note_off_c, 3, 77, 0
5, 39984, Note_on_c, 3, 79, 62
5, 39994, Note_off_c, 3, 79, 0
5, 39996, Note_on_c, 3, 77, 62
5, 40006, Note_off_c, 3, 77, 0
5, 40008, Note_on_c, 3, 79, 62
5, 40018, Note_off_c, 3, 79, 0
5, 40020, Note_on_c, 3, 77, 62
5, 40030, Note_off_c, 3, 77, 0
5, 40032, Note_on_c, 3, 79, 62
5, 40116, Note_off_c, 3, 79, 0
5, 40128, Note_on_c, 3, 74, 62
5, 40212, Note_off_c, 3, 74, 0
5, 40224, Note_on_c, 3, 74, 62
5, 40234, Note_off_c, 3, 74, 0
5, 40236, Note_on_c, 3, 72, 62
5, 40246, Note_off_c, 3, 72, 0
5, 40248, Note_on_c, 3, 74, 62
5, 40258, Note_off_c, 3, 74, 0
5, 40260, Note_on_c, 3, 72, 62
5, 40270, Note_off_c, 3, 72, 0
5, 40272, Note_on_c, 3, 74, 62
5, 40282, Note_off_c, 3, 74, 0
5, 40284, Note_on_c, 3, 72, 62
5, 40294, Note_off_c, 3, 72, 0
5, 40296, Note_on_c, 3, 74, 62
5, 40306, Note_off_c, 3, 74, 0
5, 40308, Note_on_c, 3, 72, 62
5, 40318, Note_off_c, 3, 72, 0
5, 40320, Note_on_c, 3, 74, 62
5, 40330, Note_off_c, 3, 74, 0
5, 40332, Note_on_c, 3, 72, 62
5, 40342, Note_off_c, 3, 72, 0
5, 40344, Note_on_c, 3, 74, 62
5, 40354, Note_off_c, 3, 74, 0
5, 40356, Note_on_c, 3, 72, 62
5, 40366, Note_off_c, 3, 72, 0
5, 40368, Note_on_c, 3, 72, 62
5, 40410, Note_off_c, 3, 72, 0
5, 40416, Note_on_c, 3, 72, 62
5, 40692, Note_off_c, 3, 72, 0
5, 40692, End_track
6, 0, Start_track
6, 0, Title_t, "dgo4th@earthlink.net"
6, 0, Control_c, 4, 0, 0
6, 0, Program_c, 4, 68
6, 0, Time_signature, 3, 2, 96, 8
6, 0, Tempo, 461538
6, 96, Tempo, 428571
6, 96, Note_on_c, 4, 65, 62
6, 276, Note_off_c, 4, 65, 0
6, 288, Note_on_c, 4, 65, 62
6, 372, Note_off_c, 4, 65, 0
6, 384, Note_on_c, 4, 63, 62
6, 468, Note_off_c, 4, 63, 0
6, 480, Note_on_c, 4, 62, 62
6, 522, Note_off_c, 4, 62, 0
6, 528, Note_on_c, 4, 60, 62
6, 570, Note_off_c, 4, 60, 0
6, 576, Note_on_c, 4, 62, 62
6, 660, Note_off_c, 4, 62, 0
6, 672, Note_on_c, 4, 63, 62
6, 756, Note_off_c, 4, 63, 0
6, 768, Note_on_c, 4, 60, 62
6, 852, Note_off_c, 4, 60, 0
6, 864, Note_on_c, 4, 65, 62
6, 948, Note_off_c, 4, 65, 0
6, 960, Note_on_c, 4, 65, 62
6, 1140, Note_off_c, 4, 65, 0
6, 1152, Note_on_c, 4, 60, 62
6, 1236, Note_off_c, 4, 60, 0
6, 1248, Note_on_c, 4, 60, 62
6, 1428, Note_off_c, 4, 60, 0
6, 1440, Note_on_c, 4, 60, 62
6, 1524, Note_off_c, 4, 60, 0
6, 1536, Note_on_c, 4, 64, 62
6, 1620, Note_off_c, 4, 64, 0
6, 1632, Note_on_c, 4, 69, 62
6, 1674, Note_off_c, 4, 69, 0
6, 1680, Note_on_c, 4, 67, 62
6, 1722, Note_off_c, 4, 67, 0
6, 1728, Note_on_c, 4, 69, 62
6, 1812, Note_off_c, 4, 69, 0
6, 1824, Note_on_c, 4, 67, 62
6, 1908, Note_off_c, 4, 67, 0
6, 1920, Note_on_c, 4, 60, 62
6, 2004, Note_off_c, 4, 60, 0
6, 2016, Note_on_c, 4, 60, 62
6, 2100, Note_off_c, 4, 60, 0
6, 2112, Note_on_c, 4, 60, 62
6, 2292, Note_off_c, 4, 60, 0
6, 2304, Note_on_c, 4, 60, 62
6, 2388, Note_off_c, 4, 60, 0
6, 2400, Note_on_c, 4, 62, 62
6, 2484, Note_off_c, 4, 62, 0
6, 2496, Note_on_c, 4, 60, 62
6, 2538, Note_off_c, 4, 60, 0
6, 2544, Note_on_c, 4, 62, 62
6, 2586, Note_off_c, 4, 62, 0
6, 2592, Note_on_c, 4, 64, 62
6, 2676, Note_off_c, 4, 64, 0
6, 2688, Note_on_c, 4, 62, 62
6, 2868, Note_off_c, 4, 62, 0
6, 2880, Note_on_c, 4, 64, 62
6, 2964, Note_off_c, 4, 64, 0
6, 2976, Note_on_c, 4, 60, 62
6, 3060, Note_off_c, 4, 60, 0
6, 3072, Note_on_c, 4, 67, 62
6, 3156, Note_off_c, 4, 67, 0
6, 3168, Note_on_c, 4, 65, 62
6, 3252, Note_off_c, 4, 65, 0
6, 3264, Note_on_c, 4, 64, 62
6, 3540, Note_off_c, 4, 64, 0
6, 3552, Note_on_c, 4, 65, 62
6, 3732, Note_off_c, 4, 65, 0
6, 3744, Note_on_c, 4, 65, 62
6, 3828, Note_off_c, 4, 65, 0
6, 3840, Note_on_c, 4, 63, 62
6, 3924, Note_off_c, 4, 63, 0
6, 3936, Note_on_c, 4, 62, 62
6, 3978, Note_off_c, 4, 62, 0
6, 3984, Note_on_c, 4, 60, 62
6, 4026, Note_off_c, 4, 60, 0
6, 4032, Note_on_c, 4, 62, 62
6, 4116, Note_off_c, 4, 62, 0
6, 4128, Note_on_c, 4, 63, 62
6, 4212, Note_off_c, 4, 63, 0
6, 4224, Note_on_c, 4, 60, 62
6, 4308, Note_off_c, 4, 60, 0
6, 4320, Note_on_c, 4, 65, 62
6, 4404, Note_off_c, 4, 65, 0
6, 4416, Note_on_c, 4, 65, 62
6, 4596, Note_off_c, 4, 65, 0
6, 4608, Note_on_c, 4, 60, 62
6, 4692, Note_off_c, 4, 60, 0
6, 4704, Note_on_c, 4, 60, 62
6, 4884, Note_off_c, 4, 60, 0
6, 4896, Note_on_c, 4, 60, 62
6, 4980, Note_off_c, 4, 60, 0
6, 4992, Note_on_c, 4, 64, 62
6, 5076, Note_off_c, 4, 64, 0
6, 5088, Note_on_c, 4, 69, 62
6, 5130, Note_off_c, 4, 69, 0
6, 5136, Note_on_c, 4, 67, 62
6, 5178, Note_off_c, 4, 67, 0
6, 5184, Note_on_c, 4, 69, 62
6, 5268, Note_off_c, 4, 69, 0
6, 5280, Note_on_c, 4, 67, 62
6, 5364, Note_off_c, 4, 67, 0
6, 5376, Note_on_c, 4, 60, 62
6, 5460, Note_off_c, 4, 60, 0
6, 5472, Note_on_c, 4, 60, 62
6, 5556, Note_off_c, 4, 60, 0
6, 5568, Note_on_c, 4, 60, 62
6, 5748, Note_off_c, 4, 60, 0
6, 5760, Note_on_c, 4, 60, 62
6, 5844, Note_off_c, 4, 60, 0
6, 5856, Note_on_c, 4, 62, 62
6, 5940, Note_off_c, 4, 62, 0
6, 5952, Note_on_c, 4, 60, 62
6, 5994, Note_off_c, 4, 60, 0
6, 6000, Note_on_c, 4, 62, 62
6, 6042, Note_off_c, 4, 62, 0
6, 6048, Note_on_c, 4, 64, 62
6, 6132, Note_off_c, 4, 64, 0
6, 6144, Note_on_c, 4, 62, 62
6, 6324, Note_off_c, 4, 62, 0
6, 6336, Note_on_c, 4, 64, 62
6, 6420, Note_off_c, 4, 64, 0
6, 6432, Note_on_c, 4, 60, 62
6, 6516, Note_off_c, 4, 60, 0
6, 6528, Note_on_c, 4, 67, 62
6, 6612, Note_off_c, 4, 67, 0
6, 6624, Note_on_c, 4, 65, 62
6, 6708, Note_off_c, 4, 65, 0
6, 6720, Note_on_c, 4, 64, 62
6, 6996, Note_off_c, 4, 64, 0
6, 7008, Note_on_c, 4, 67, 62
6, 7188, Note_off_c, 4, 67, 0
6, 7200, Note_on_c, 4, 72, 62
6, 7284, Note_off_c, 4, 72, 0
6, 7296, Note_on_c, 4, 70, 62
6, 7380, Note_off_c, 4, 70, 0
6, 7392, Note_on_c, 4, 69, 62
6, 7434, Note_off_c, 4, 69, 0
6, 7440, Note_on_c, 4, 67, 62
6, 7482, Note_off_c, 4, 67, 0
6, 7488, Note_on_c, 4, 69, 62
6, 7572, Note_off_c, 4, 69, 0
6, 7584, Note_on_c, 4, 70, 62
6, 7668, Note_off_c, 4, 70, 0
6, 7680, Note_on_c, 4, 67, 62
6, 7764, Note_off_c, 4, 67, 0
6, 7776, Note_on_c, 4, 72, 62
6, 7860, Note_off_c, 4, 72, 0
6, 7872, Note_on_c, 4, 72, 62
6, 8052, Note_off_c, 4, 72, 0
6, 8064, Note_on_c, 4, 67, 62
6, 8148, Note_off_c, 4, 67, 0
6, 8160, Note_on_c, 4, 67, 62
6, 8340, Note_off_c, 4, 67, 0
6, 8352, Note_on_c, 4, 67, 62
6, 8436, Note_off_c, 4, 67, 0
6, 8448, Note_on_c, 4, 62, 62
6, 8532, Note_off_c, 4, 62, 0
6, 8544, Note_on_c, 4, 64, 62
6, 8628, Note_off_c, 4, 64, 0
6, 8640, Note_on_c, 4, 60, 62
6, 8724, Note_off_c, 4, 60, 0
6, 8736, Note_on_c, 4, 67, 62
6, 8916, Note_off_c, 4, 67, 0
6, 8928, Note_on_c, 4, 67, 62
6, 9012, Note_off_c, 4, 67, 0
6, 9024, Note_on_c, 4, 67, 62
6, 9300, Note_off_c, 4, 67, 0
6, 9312, Note_on_c, 4, 67, 62
6, 9396, Note_off_c, 4, 67, 0
6, 9408, Note_on_c, 4, 67, 62
6, 9418, Note_off_c, 4, 67, 0
6, 9420, Note_on_c, 4, 65, 62
6, 9430, Note_off_c, 4, 65, 0
6, 9432, Note_on_c, 4, 67, 62
6, 9442, Note_off_c, 4, 67, 0
6, 9444, Note_on_c, 4, 65, 62
6, 9454, Note_off_c, 4, 65, 0
6, 9456, Note_on_c, 4, 67, 62
6, 9466, Note_off_c, 4, 67, 0
6, 9468, Note_on_c, 4, 65, 62
6, 9478, Note_off_c, 4, 65, 0
6, 9480, Note_on_c, 4, 67, 62
6, 9490, Note_off_c, 4, 67, 0
6, 9492, Note_on_c, 4, 65, 62
6, 9502, Note_off_c, 4, 65, 0
6, 9504, Note_on_c, 4, 67, 62
6, 9514, Note_off_c, 4, 67, 0
6, 9516, Note_on_c, 4, 65, 62
6, 9526, Note_off_c, 4, 65, 0
6, 9528, Note_on_c, 4, 67, 62
6, 9538, Note_off_c, 4, 67, 0
6, 9540, Note_on_c, 4, 65, 62
6, 9550, Note_off_c, 4, 65, 0
6, 9552, Note_on_c, 4, 64, 62
6, 9573, Note_off_c, 4, 64, 0
6, 9576, Note_on_c, 4, 65, 62
6, 9597, Note_off_c, 4, 65, 0
6, 9600, Note_on_c, 4, 67, 62
6, 9684, Note_off_c, 4, 67, 0
6, 9696, Note_on_c, 4, 72, 62
6, 9780, Note_off_c, 4, 72, 0
6, 9792, Note_on_c, 4, 64, 62
6, 9876, Note_off_c, 4, 64, 0
6, 9888, Note_on_c, 4, 69, 62
6, 9930, Note_off_c, 4, 69, 0
6, 9936, Note_on_c, 4, 70, 62
6, 9978, Note_off_c, 4, 70, 0
6, 9984, Note_on_c, 4, 67, 62
6, 10116, Note_off_c, 4, 67, 0
6, 10128, Note_on_c, 4, 69, 62
6, 10170, Note_off_c, 4, 69, 0
6, 10176, Note_on_c, 4, 69, 62
6, 10452, Note_off_c, 4, 69, 0
6, 10464, Note_on_c, 4, 67, 62
6, 10644, Note_off_c, 4, 67, 0
6, 10656, Note_on_c, 4, 72, 62
6, 10740, Note_off_c, 4, 72, 0
6, 10752, Note_on_c, 4, 70, 62
6, 10836, Note_off_c, 4, 70, 0
6, 10848, Note_on_c, 4, 69, 62
6, 10890, Note_off_c, 4, 69, 0
6, 10896, Note_on_c, 4, 67, 62
6, 10938, Note_off_c, 4, 67, 0
6, 10944, Note_on_c, 4, 69, 62
6, 11028, Note_off_c, 4, 69, 0
6, 11040, Note_on_c, 4, 70, 62
6, 11124, Note_off_c, 4, 70, 0
6, 11136, Note_on_c, 4, 67, 62
6, 11220, Note_off_c, 4, 67, 0
6, 11232, Note_on_c, 4, 72, 62
6, 11316, Note_off_c, 4, 72, 0
6, 11328, Note_on_c, 4, 72, 62
6, 11508, Note_off_c, 4, 72, 0
6, 11520, Note_on_c, 4, 67, 62
6, 11604, Note_off_c, 4, 67, 0
6, 11616, Note_on_c, 4, 67, 62
6, 11796, Note_off_c, 4, 67, 0
6, 11808, Note_on_c, 4, 67, 62
6, 11892, Note_off_c, 4, 67, 0
6, 11904, Note_on_c, 4, 62, 62
6, 11988, Note_off_c, 4, 62, 0
6, 12000, Note_on_c, 4, 64, 62
6, 12084, Note_off_c, 4, 64, 0
6, 12096, Note_on_c, 4, 60, 62
6, 12180, Note_off_c, 4, 60, 0
6, 12192, Note_on_c, 4, 67, 62
6, 12372, Note_off_c, 4, 67, 0
6, 12384, Note_on_c, 4, 67, 62
6, 12468, Note_off_c, 4, 67, 0
6, 12480, Note_on_c, 4, 67, 62
6, 12756, Note_off_c, 4, 67, 0
6, 12768, Note_on_c, 4, 67, 62
6, 12852, Note_off_c, 4, 67, 0
6, 12864, Note_on_c, 4, 67, 62
6, 12874, Note_off_c, 4, 67, 0
6, 12876, Note_on_c, 4, 65, 62
6, 12886, Note_off_c, 4, 65, 0
6, 12888, Note_on_c, 4, 67, 62
6, 12898, Note_off_c, 4, 67, 0
6, 12900, Note_on_c, 4, 65, 62
6, 12910, Note_off_c, 4, 65, 0
6, 12912, Note_on_c, 4, 67, 62
6, 12922, Note_off_c, 4, 67, 0
6, 12924, Note_on_c, 4, 65, 62
6, 12934, Note_off_c, 4, 65, 0
6, 12936, Note_on_c, 4, 67, 62
6, 12946, Note_off_c, 4, 67, 0
6, 12948, Note_on_c, 4, 65, 62
6, 12958, Note_off_c, 4, 65, 0
6, 12960, Note_on_c, 4, 67, 62
6, 12970, Note_off_c, 4, 67, 0
6, 12972, Note_on_c, 4, 65, 62
6, 12982, Note_off_c, 4, 65, 0
6, 12984, Note_on_c, 4, 67, 62
6, 12994, Note_off_c, 4, 67, 0
6, 12996, Note_on_c, 4, 65, 62
6, 13006, Note_off_c, 4, 65, 0
6, 13008, Note_on_c, 4, 64, 62
6, 13029, Note_off_c, 4, 64, 0
6, 13032, Note_on_c, 4, 65, 62
6, 13053, Note_off_c, 4, 65, 0
6, 13056, Note_on_c, 4, 67, 62
6, 13140, Note_off_c, 4, 67, 0
6, 13152, Note_on_c, 4, 72, 62
6, 13236, Note_off_c, 4, 72, 0
6, 13248, Note_on_c, 4, 64, 62
6, 13332, Note_off_c, 4, 64, 0
6, 13344, Note_on_c, 4, 69, 62
6, 13386, Note_off_c, 4, 69, 0
6, 13392, Note_on_c, 4, 70, 62
6, 13434, Note_off_c, 4, 70, 0
6, 13440, Note_on_c, 4, 67, 62
6, 13572, Note_off_c, 4, 67, 0
6, 13584, Note_on_c, 4, 69, 62
6, 13626, Note_off_c, 4, 69, 0
6, 13632, Note_on_c, 4, 69, 62
6, 13908, Note_off_c, 4, 69, 0
6, 14112, Time_signature, 2, 2, 96, 8
6, 14208, Tempo, 500000
6, 14208, Note_on_c, 4, 65, 96
6, 14250, Note_off_c, 4, 65, 0
6, 14256, Note_on_c, 4, 64, 96
6, 14298, Note_off_c, 4, 64, 0
6, 14304, Note_on_c, 4, 62, 96
6, 14346, Note_off_c, 4, 62, 0
6, 14352, Note_on_c, 4, 65, 96
6, 14394, Note_off_c, 4, 65, 0
6, 14400, Note_on_c, 4, 67, 96
6, 14484, Note_off_c, 4, 67, 0
6, 14496, Note_on_c, 4, 60, 96
6, 14538, Note_off_c, 4, 60, 0
6, 14544, Note_on_c, 4, 64, 96
6, 14586, Note_off_c, 4, 64, 0
6, 14592, Note_on_c, 4, 65, 96
6, 14634, Note_off_c, 4, 65, 0
6, 14640, Note_on_c, 4, 69, 96
6, 14682, Note_off_c, 4, 69, 0
6, 14688, Note_on_c, 4, 65, 96
6, 14730, Note_off_c, 4, 65, 0
6, 14736, Note_on_c, 4, 69, 96
6, 14778, Note_off_c, 4, 69, 0
6, 14784, Note_on_c, 4, 72, 96
6, 14868, Note_off_c, 4, 72, 0
6, 14880, Note_on_c, 4, 60, 96
6, 14922, Note_off_c, 4, 60, 0
6, 14928, Note_on_c, 4, 64, 96
6, 14970, Note_off_c, 4, 64, 0
6, 14976, Note_on_c, 4, 65, 96
6, 15018, Note_off_c, 4, 65, 0
6, 15024, Note_on_c, 4, 69, 96
6, 15066, Note_off_c, 4, 69, 0
6, 15072, Note_on_c, 4, 65, 96
6, 15114, Note_off_c, 4, 65, 0
6, 15120, Note_on_c, 4, 69, 96
6, 15162, Note_off_c, 4, 69, 0
6, 15168, Note_on_c, 4, 65, 96
6, 15210, Note_off_c, 4, 65, 0
6, 15216, Note_on_c, 4, 69, 96
6, 15258, Note_off_c, 4, 69, 0
6, 15264, Note_on_c, 4, 65, 96
6, 15306, Note_off_c, 4, 65, 0
6, 15312, Note_on_c, 4, 69, 96
6, 15354, Note_off_c, 4, 69, 0
6, 15360, Note_on_c, 4, 65, 96
6, 15402, Note_off_c, 4, 65, 0
6, 15408, Note_on_c, 4, 69, 96
6, 15450, Note_off_c, 4, 69, 0
6, 15456, Note_on_c, 4, 72, 96
6, 15498, Note_off_c, 4, 72, 0
6, 15504, Note_on_c, 4, 77, 96
6, 15546, Note_off_c, 4, 77, 0
6, 15552, Note_on_c, 4, 76, 96
6, 15573, Note_off_c, 4, 76, 0
6, 15576, Note_on_c, 4, 74, 96
6, 15597, Note_off_c, 4, 74, 0
6, 15600, Note_on_c, 4, 76, 96
6, 15621, Note_off_c, 4, 76, 0
6, 15624, Note_on_c, 4, 77, 96
6, 15645, Note_off_c, 4, 77, 0
6, 15648, Note_on_c, 4, 76, 96
6, 15690, Note_off_c, 4, 76, 0
6, 15696, Note_on_c, 4, 72, 96
6, 15738, Note_off_c, 4, 72, 0
6, 15744, Note_on_c, 4, 65, 96
6, 15786, Note_off_c, 4, 65, 0
6, 15792, Note_on_c, 4, 64, 96
6, 15834, Note_off_c, 4, 64, 0
6, 15840, Note_on_c, 4, 62, 96
6, 15882, Note_off_c, 4, 62, 0
6, 15888, Note_on_c, 4, 65, 96
6, 15930, Note_off_c, 4, 65, 0
6, 15936, Note_on_c, 4, 67, 96
6, 16020, Note_off_c, 4, 67, 0
6, 16032, Note_on_c, 4, 60, 96
6, 16074, Note_off_c, 4, 60, 0
6, 16080, Note_on_c, 4, 64, 96
6, 16122, Note_off_c, 4, 64, 0
6, 16128, Note_on_c, 4, 65, 96
6, 16170, Note_off_c, 4, 65, 0
6, 16176, Note_on_c, 4, 69, 96
6, 16218, Note_off_c, 4, 69, 0
6, 16224, Note_on_c, 4, 65, 96
6, 16266, Note_off_c, 4, 65, 0
6, 16272, Note_on_c, 4, 69, 96
6, 16314, Note_off_c, 4, 69, 0
6, 16320, Note_on_c, 4, 72, 96
6, 16404, Note_off_c, 4, 72, 0
6, 16416, Note_on_c, 4, 60, 96
6, 16458, Note_off_c, 4, 60, 0
6, 16464, Note_on_c, 4, 64, 96
6, 16506, Note_off_c, 4, 64, 0
6, 16512, Note_on_c, 4, 65, 96
6, 16554, Note_off_c, 4, 65, 0
6, 16560, Note_on_c, 4, 69, 96
6, 16602, Note_off_c, 4, 69, 0
6, 16608, Note_on_c, 4, 65, 96
6, 16650, Note_off_c, 4, 65, 0
6, 16656, Note_on_c, 4, 69, 96
6, 16698, Note_off_c, 4, 69, 0
6, 16704, Note_on_c, 4, 65, 96
6, 16746, Note_off_c, 4, 65, 0
6, 16752, Note_on_c, 4, 69, 96
6, 16794, Note_off_c, 4, 69, 0
6, 16800, Note_on_c, 4, 65, 96
6, 16842, Note_off_c, 4, 65, 0
6, 16848, Note_on_c, 4, 69, 96
6, 16890, Note_off_c, 4, 69, 0
6, 16896, Note_on_c, 4, 65, 96
6, 16938, Note_off_c, 4, 65, 0
6, 16944, Note_on_c, 4, 69, 96
6, 16986, Note_off_c, 4, 69, 0
6, 16992, Note_on_c, 4, 72, 96
6, 17034, Note_off_c, 4, 72, 0
6, 17040, Note_on_c, 4, 77, 96
6, 17082, Note_off_c, 4, 77, 0
6, 17088, Note_on_c, 4, 76, 96
6, 17268, Note_off_c, 4, 76, 0
6, 17280, Tempo, 500000
6, 17280, Note_on_c, 4, 65, 96
6, 17322, Note_off_c, 4, 65, 0
6, 17328, Note_on_c, 4, 64, 96
6, 17370, Note_off_c, 4, 64, 0
6, 17376, Note_on_c, 4, 62, 96
6, 17418, Note_off_c, 4, 62, 0
6, 17424, Note_on_c, 4, 65, 96
6, 17466, Note_off_c, 4, 65, 0
6, 17472, Note_on_c, 4, 67, 96
6, 17556, Note_off_c, 4, 67, 0
6, 17568, Note_on_c, 4, 60, 96
6, 17610, Note_off_c, 4, 60, 0
6, 17616, Note_on_c, 4, 64, 96
6, 17658, Note_off_c, 4, 64, 0
6, 17664, Note_on_c, 4, 65, 96
6, 17706, Note_off_c, 4, 65, 0
6, 17712, Note_on_c, 4, 69, 96
6, 17754, Note_off_c, 4, 69, 0
6, 17760, Note_on_c, 4, 65, 96
6, 17802, Note_off_c, 4, 65, 0
6, 17808, Note_on_c, 4, 69, 96
6, 17850, Note_off_c, 4, 69, 0
6, 17856, Note_on_c, 4, 72, 96
6, 17940, Note_off_c, 4, 72, 0
6, 17952, Note_on_c, 4, 60, 96
6, 17994, Note_off_c, 4, 60, 0
6, 18000, Note_on_c, 4, 64, 96
6, 18042, Note_off_c, 4, 64, 0
6, 18048, Note_on_c, 4, 65, 96
6, 18090, Note_off_c, 4, 65, 0
6, 18096, Note_on_c, 4, 69, 96
6, 18138, Note_off_c, 4, 69, 0
6, 18144, Note_on_c, 4, 65, 96
6, 18186, Note_off_c, 4, 65, 0
6, 18192, Note_on_c, 4, 69, 96
6, 18234, Note_off_c, 4, 69, 0
6, 18240, Note_on_c, 4, 65, 96
6, 18282, Note_off_c, 4, 65, 0
6, 18288, Note_on_c, 4, 69, 96
6, 18330, Note_off_c, 4, 69, 0
6, 18336, Note_on_c, 4, 65, 96
6, 18378, Note_off_c, 4, 65, 0
6, 18384, Note_on_c, 4, 69, 96
6, 18426, Note_off_c, 4, 69, 0
6, 18432, Note_on_c, 4, 65, 96
6, 18474, Note_off_c, 4, 65, 0
6, 18480, Note_on_c, 4, 69, 96
6, 18522, Note_off_c, 4, 69, 0
6, 18528, Note_on_c, 4, 72, 96
6, 18570, Note_off_c, 4, 72, 0
6, 18576, Note_on_c, 4, 77, 96
6, 18618, Note_off_c, 4, 77, 0
6, 18624, Note_on_c, 4, 76, 96
6, 18645, Note_off_c, 4, 76, 0
6, 18648, Note_on_c, 4, 74, 96
6, 18669, Note_off_c, 4, 74, 0
6, 18672, Note_on_c, 4, 76, 96
6, 18693, Note_off_c, 4, 76, 0
6, 18696, Note_on_c, 4, 77, 96
6, 18717, Note_off_c, 4, 77, 0
6, 18720, Note_on_c, 4, 76, 96
6, 18762, Note_off_c, 4, 76, 0
6, 18768, Note_on_c, 4, 72, 96
6, 18810, Note_off_c, 4, 72, 0
6, 18816, Note_on_c, 4, 65, 96
6, 18858, Note_off_c, 4, 65, 0
6, 18864, Note_on_c, 4, 64, 96
6, 18906, Note_off_c, 4, 64, 0
6, 18912, Note_on_c, 4, 62, 96
6, 18954, Note_off_c, 4, 62, 0
6, 18960, Note_on_c, 4, 65, 96
6, 19002, Note_off_c, 4, 65, 0
6, 19008, Note_on_c, 4, 67, 96
6, 19092, Note_off_c, 4, 67, 0
6, 19104, Note_on_c, 4, 60, 96
6, 19146, Note_off_c, 4, 60, 0
6, 19152, Note_on_c, 4, 64, 96
6, 19194, Note_off_c, 4, 64, 0
6, 19200, Note_on_c, 4, 65, 96
6, 19242, Note_off_c, 4, 65, 0
6, 19248, Note_on_c, 4, 69, 96
6, 19290, Note_off_c, 4, 69, 0
6, 19296, Note_on_c, 4, 65, 96
6, 19338, Note_off_c, 4, 65, 0
6, 19344, Note_on_c, 4, 69, 96
6, 19386, Note_off_c, 4, 69, 0
6, 19392, Note_on_c, 4, 72, 96
6, 19476, Note_off_c, 4, 72, 0
6, 19488, Note_on_c, 4, 60, 96
6, 19530, Note_off_c, 4, 60, 0
6, 19536, Note_on_c, 4, 64, 96
6, 19578, Note_off_c, 4, 64, 0
6, 19584, Note_on_c, 4, 65, 96
6, 19626, Note_off_c, 4, 65, 0
6, 19632, Note_on_c, 4, 69, 96
6, 19674, Note_off_c, 4, 69, 0
6, 19680, Note_on_c, 4, 65, 96
6, 19722, Note_off_c, 4, 65, 0
6, 19728, Note_on_c, 4, 69, 96
6, 19770, Note_off_c, 4, 69, 0
6, 19776, Note_on_c, 4, 65, 96
6, 19818, Note_off_c, 4, 65, 0
6, 19824, Note_on_c, 4, 69, 96
6, 19866, Note_off_c, 4, 69, 0
6, 19872, Note_on_c, 4, 65, 96
6, 19914, Note_off_c, 4, 65, 0
6, 19920, Note_on_c, 4, 69, 96
6, 19962, Note_off_c, 4, 69, 0
6, 19968, Note_on_c, 4, 65, 96
6, 20010, Note_off_c, 4, 65, 0
6, 20016, Note_on_c, 4, 69, 96
6, 20058, Note_off_c, 4, 69, 0
6, 20064, Note_on_c, 4, 72, 96
6, 20106, Note_off_c, 4, 72, 0
6, 20112, Note_on_c, 4, 77, 96
6, 20154, Note_off_c, 4, 77, 0
6, 20160, Note_on_c, 4, 76, 96
6, 20340, Note_off_c, 4, 76, 0
6, 20352, Note_on_c, 4, 64, 96
6, 20394, Note_off_c, 4, 64, 0
6, 20400, Note_on_c, 4, 72, 96
6, 20442, Note_off_c, 4, 72, 0
6, 20448, Note_on_c, 4, 60, 96
6, 20490, Note_off_c, 4, 60, 0
6, 20496, Note_on_c, 4, 72, 96
6, 20538, Note_off_c, 4, 72, 0
6, 20544, Note_on_c, 4, 65, 96
6, 20586, Note_off_c, 4, 65, 0
6, 20592, Note_on_c, 4, 72, 96
6, 20634, Note_off_c, 4, 72, 0
6, 20640, Note_on_c, 4, 60, 96
6, 20682, Note_off_c, 4, 60, 0
6, 20688, Note_on_c, 4, 72, 96
6, 20730, Note_off_c, 4, 72, 0
6, 20736, Note_on_c, 4, 64, 96
6, 20778, Note_off_c, 4, 64, 0
6, 20784, Note_on_c, 4, 72, 96
6, 20826, Note_off_c, 4, 72, 0
6, 20832, Note_on_c, 4, 60, 96
6, 20874, Note_off_c, 4, 60, 0
6, 20880, Note_on_c, 4, 72, 96
6, 20922, Note_off_c, 4, 72, 0
6, 20928, Note_on_c, 4, 65, 96
6, 20970, Note_off_c, 4, 65, 0
6, 20976, Note_on_c, 4, 72, 96
6, 21018, Note_off_c, 4, 72, 0
6, 21024, Note_on_c, 4, 60, 96
6, 21066, Note_off_c, 4, 60, 0
6, 21072, Note_on_c, 4, 72, 96
6, 21114, Note_off_c, 4, 72, 0
6, 21120, Note_on_c, 4, 64, 96
6, 21162, Note_off_c, 4, 64, 0
6, 21168, Note_on_c, 4, 67, 96
6, 21210, Note_off_c, 4, 67, 0
6, 21216, Note_on_c, 4, 64, 96
6, 21258, Note_off_c, 4, 64, 0
6, 21264, Note_on_c, 4, 67, 96
6, 21306, Note_off_c, 4, 67, 0
6, 21312, Note_on_c, 4, 65, 96
6, 21354, Note_off_c, 4, 65, 0
6, 21360, Note_on_c, 4, 69, 96
6, 21402, Note_off_c, 4, 69, 0
6, 21408, Note_on_c, 4, 65, 96
6, 21450, Note_off_c, 4, 65, 0
6, 21456, Note_on_c, 4, 69, 96
6, 21498, Note_off_c, 4, 69, 0
6, 21504, Note_on_c, 4, 70, 96
6, 21525, Note_off_c, 4, 70, 0
6, 21528, Note_on_c, 4, 69, 96
6, 21549, Note_off_c, 4, 69, 0
6, 21552, Note_on_c, 4, 70, 96
6, 21573, Note_off_c, 4, 70, 0
6, 21576, Note_on_c, 4, 72, 96
6, 21597, Note_off_c, 4, 72, 0
6, 21600, Note_on_c, 4, 74, 96
6, 21621, Note_off_c, 4, 74, 0
6, 21624, Note_on_c, 4, 76, 96
6, 21645, Note_off_c, 4, 76, 0
6, 21648, Note_on_c, 4, 77, 96
6, 21669, Note_off_c, 4, 77, 0
6, 21672, Note_on_c, 4, 74, 96
6, 21693, Note_off_c, 4, 74, 0
6, 21696, Note_on_c, 4, 76, 96
6, 21717, Note_off_c, 4, 76, 0
6, 21720, Note_on_c, 4, 74, 96
6, 21741, Note_off_c, 4, 74, 0
6, 21744, Note_on_c, 4, 76, 96
6, 21765, Note_off_c, 4, 76, 0
6, 21768, Note_on_c, 4, 77, 96
6, 21789, Note_off_c, 4, 77, 0
6, 21792, Note_on_c, 4, 76, 96
6, 21813, Note_off_c, 4, 76, 0
6, 21816, Note_on_c, 4, 77, 96
6, 21837, Note_off_c, 4, 77, 0
6, 21840, Note_on_c, 4, 79, 96
6, 21861, Note_off_c, 4, 79, 0
6, 21864, Note_on_c, 4, 77, 96
6, 21885, Note_off_c, 4, 77, 0
6, 21888, Note_on_c, 4, 76, 96
6, 21930, Note_off_c, 4, 76, 0
6, 21936, Note_on_c, 4, 72, 96
6, 21978, Note_off_c, 4, 72, 0
6, 21984, Note_on_c, 4, 60, 96
6, 22026, Note_off_c, 4, 60, 0
6, 22032, Note_on_c, 4, 72, 96
6, 22074, Note_off_c, 4, 72, 0
6, 22080, Note_on_c, 4, 65, 96
6, 22122, Note_off_c, 4, 65, 0
6, 22128, Note_on_c, 4, 72, 96
6, 22170, Note_off_c, 4, 72, 0
6, 22176, Note_on_c, 4, 60, 96
6, 22218, Note_off_c, 4, 60, 0
6, 22224, Note_on_c, 4, 72, 96
6, 22266, Note_off_c, 4, 72, 0
6, 22272, Note_on_c, 4, 64, 96
6, 22314, Note_off_c, 4, 64, 0
6, 22320, Note_on_c, 4, 72, 96
6, 22362, Note_off_c, 4, 72, 0
6, 22368, Note_on_c, 4, 60, 96
6, 22410, Note_off_c, 4, 60, 0
6, 22416, Note_on_c, 4, 72, 96
6, 22458, Note_off_c, 4, 72, 0
6, 22464, Note_on_c, 4, 65, 96
6, 22506, Note_off_c, 4, 65, 0
6, 22512, Note_on_c, 4, 72, 96
6, 22554, Note_off_c, 4, 72, 0
6, 22560, Note_on_c, 4, 60, 96
6, 22602, Note_off_c, 4, 60, 0
6, 22608, Note_on_c, 4, 72, 96
6, 22650, Note_off_c, 4, 72, 0
6, 22656, Note_on_c, 4, 64, 96
6, 22698, Note_off_c, 4, 64, 0
6, 22704, Note_on_c, 4, 67, 96
6, 22746, Note_off_c, 4, 67, 0
6, 22752, Note_on_c, 4, 64, 96
6, 22794, Note_off_c, 4, 64, 0
6, 22800, Note_on_c, 4, 67, 96
6, 22842, Note_off_c, 4, 67, 0
6, 22848, Note_on_c, 4, 65, 96
6, 22890, Note_off_c, 4, 65, 0
6, 22896, Note_on_c, 4, 69, 96
6, 22938, Note_off_c, 4, 69, 0
6, 22944, Note_on_c, 4, 65, 96
6, 22986, Note_off_c, 4, 65, 0
6, 22992, Note_on_c, 4, 69, 96
6, 23034, Note_off_c, 4, 69, 0
6, 23040, Note_on_c, 4, 65, 96
6, 23082, Note_off_c, 4, 65, 0
6, 23088, Note_on_c, 4, 77, 96
6, 23130, Note_off_c, 4, 77, 0
6, 23136, Note_on_c, 4, 77, 96
6, 23146, Note_off_c, 4, 77, 0
6, 23148, Note_on_c, 4, 76, 96
6, 23158, Note_off_c, 4, 76, 0
6, 23160, Note_on_c, 4, 77, 96
6, 23170, Note_off_c, 4, 77, 0
6, 23172, Note_on_c, 4, 76, 96
6, 23182, Note_off_c, 4, 76, 0
6, 23184, Note_on_c, 4, 74, 96
6, 23205, Note_off_c, 4, 74, 0
6, 23208, Note_on_c, 4, 76, 96
6, 23229, Note_off_c, 4, 76, 0
6, 23232, Note_on_c, 4, 77, 96
6, 23412, Note_off_c, 4, 77, 0
6, 23424, Note_on_c, 4, 64, 96
6, 23466, Note_off_c, 4, 64, 0
6, 23472, Note_on_c, 4, 72, 96
6, 23514, Note_off_c, 4, 72, 0
6, 23520, Note_on_c, 4, 60, 96
6, 23562, Note_off_c, 4, 60, 0
6, 23568, Note_on_c, 4, 72, 96
6, 23610, Note_off_c, 4, 72, 0
6, 23616, Note_on_c, 4, 65, 96
6, 23658, Note_off_c, 4, 65, 0
6, 23664, Note_on_c, 4, 72, 96
6, 23706, Note_off_c, 4, 72, 0
6, 23712, Note_on_c, 4, 60, 96
6, 23754, Note_off_c, 4, 60, 0
6, 23760, Note_on_c, 4, 72, 96
6, 23802, Note_off_c, 4, 72, 0
6, 23808, Note_on_c, 4, 64, 96
6, 23850, Note_off_c, 4, 64, 0
6, 23856, Note_on_c, 4, 72, 96
6, 23898, Note_off_c, 4, 72, 0
6, 23904, Note_on_c, 4, 60, 96
6, 23946, Note_off_c, 4, 60, 0
6, 23952, Note_on_c, 4, 72, 96
6, 23994, Note_off_c, 4, 72, 0
6, 24000, Note_on_c, 4, 65, 96
6, 24042, Note_off_c, 4, 65, 0
6, 24048, Note_on_c, 4, 72, 96
6, 24090, Note_off_c, 4, 72, 0
6, 24096, Note_on_c, 4, 60, 96
6, 24138, Note_off_c, 4, 60, 0
6, 24144, Note_on_c, 4, 72, 96
6, 24186, Note_off_c, 4, 72, 0
6, 24192, Note_on_c, 4, 64, 96
6, 24234, Note_off_c, 4, 64, 0
6, 24240, Note_on_c, 4, 67, 96
6, 24282, Note_off_c, 4, 67, 0
6, 24288, Note_on_c, 4, 64, 96
6, 24330, Note_off_c, 4, 64, 0
6, 24336, Note_on_c, 4, 67, 96
6, 24378, Note_off_c, 4, 67, 0
6, 24384, Note_on_c, 4, 65, 96
6, 24426, Note_off_c, 4, 65, 0
6, 24432, Note_on_c, 4, 69, 96
6, 24474, Note_off_c, 4, 69, 0
6, 24480, Note_on_c, 4, 65, 96
6, 24522, Note_off_c, 4, 65, 0
6, 24528, Note_on_c, 4, 69, 96
6, 24570, Note_off_c, 4, 69, 0
6, 24576, Note_on_c, 4, 70, 96
6, 24597, Note_off_c, 4, 70, 0
6, 24600, Note_on_c, 4, 69, 96
6, 24621, Note_off_c, 4, 69, 0
6, 24624, Note_on_c, 4, 70, 96
6, 24645, Note_off_c, 4, 70, 0
6, 24648, Note_on_c, 4, 72, 96
6, 24669, Note_off_c, 4, 72, 0
6, 24672, Note_on_c, 4, 74, 96
6, 24693, Note_off_c, 4, 74, 0
6, 24696, Note_on_c, 4, 76, 96
6, 24717, Note_off_c, 4, 76, 0
6, 24720, Note_on_c, 4, 77, 96
6, 24741, Note_off_c, 4, 77, 0
6, 24744, Note_on_c, 4, 74, 96
6, 24765, Note_off_c, 4, 74, 0
6, 24768, Note_on_c, 4, 76, 96
6, 24789, Note_off_c, 4, 76, 0
6, 24792, Note_on_c, 4, 74, 96
6, 24813, Note_off_c, 4, 74, 0
6, 24816, Note_on_c, 4, 76, 96
6, 24837, Note_off_c, 4, 76, 0
6, 24840, Note_on_c, 4, 77, 96
6, 24861, Note_off_c, 4, 77, 0
6, 24864, Note_on_c, 4, 76, 96
6, 24885, Note_off_c, 4, 76, 0
6, 24888, Note_on_c, 4, 77, 96
6, 24909, Note_off_c, 4, 77, 0
6, 24912, Note_on_c, 4, 79, 96
6, 24933, Note_off_c, 4, 79, 0
6, 24936, Note_on_c, 4, 77, 96
6, 24957, Note_off_c, 4, 77, 0
6, 24960, Note_on_c, 4, 76, 96
6, 25002, Note_off_c, 4, 76, 0
6, 25008, Note_on_c, 4, 72, 96
6, 25050, Note_off_c, 4, 72, 0
6, 25056, Note_on_c, 4, 60, 96
6, 25098, Note_off_c, 4, 60, 0
6, 25104, Note_on_c, 4, 72, 96
6, 25146, Note_off_c, 4, 72, 0
6, 25152, Note_on_c, 4, 65, 96
6, 25194, Note_off_c, 4, 65, 0
6, 25200, Note_on_c, 4, 72, 96
6, 25242, Note_off_c, 4, 72, 0
6, 25248, Note_on_c, 4, 60, 96
6, 25290, Note_off_c, 4, 60, 0
6, 25296, Note_on_c, 4, 72, 96
6, 25338, Note_off_c, 4, 72, 0
6, 25344, Note_on_c, 4, 64, 96
6, 25386, Note_off_c, 4, 64, 0
6, 25392, Note_on_c, 4, 72, 96
6, 25434, Note_off_c, 4, 72, 0
6, 25440, Note_on_c, 4, 60, 96
6, 25482, Note_off_c, 4, 60, 0
6, 25488, Note_on_c, 4, 72, 96
6, 25530, Note_off_c, 4, 72, 0
6, 25536, Note_on_c, 4, 65, 96
6, 25578, Note_off_c, 4, 65, 0
6, 25584, Note_on_c, 4, 72, 96
6, 25626, Note_off_c, 4, 72, 0
6, 25632, Note_on_c, 4, 60, 96
6, 25674, Note_off_c, 4, 60, 0
6, 25680, Note_on_c, 4, 72, 96
6, 25722, Note_off_c, 4, 72, 0
6, 25728, Note_on_c, 4, 64, 96
6, 25770, Note_off_c, 4, 64, 0
6, 25776, Note_on_c, 4, 67, 96
6, 25818, Note_off_c, 4, 67, 0
6, 25824, Note_on_c, 4, 64, 96
6, 25866, Note_off_c, 4, 64, 0
6, 25872, Note_on_c, 4, 67, 96
6, 25914, Note_off_c, 4, 67, 0
6, 25920, Note_on_c, 4, 65, 96
6, 25962, Note_off_c, 4, 65, 0
6, 25968, Note_on_c, 4, 69, 96
6, 26010, Note_off_c, 4, 69, 0
6, 26016, Note_on_c, 4, 65, 96
6, 26058, Note_off_c, 4, 65, 0
6, 26064, Note_on_c, 4, 69, 96
6, 26106, Note_off_c, 4, 69, 0
6, 26112, Note_on_c, 4, 65, 96
6, 26154, Note_off_c, 4, 65, 0
6, 26160, Note_on_c, 4, 77, 96
6, 26202, Note_off_c, 4, 77, 0
6, 26208, Note_on_c, 4, 77, 96
6, 26218, Note_off_c, 4, 77, 0
6, 26220, Note_on_c, 4, 76, 96
6, 26230, Note_off_c, 4, 76, 0
6, 26232, Note_on_c, 4, 77, 96
6, 26242, Note_off_c, 4, 77, 0
6, 26244, Note_on_c, 4, 76, 96
6, 26254, Note_off_c, 4, 76, 0
6, 26256, Note_on_c, 4, 74, 96
6, 26277, Note_off_c, 4, 74, 0
6, 26280, Note_on_c, 4, 76, 96
6, 26301, Note_off_c, 4, 76, 0
6, 26304, Note_on_c, 4, 77, 96
6, 26484, Note_off_c, 4, 77, 0
6, 26784, Time_signature, 3, 2, 96, 8
6, 26880, Tempo, 428571
6, 26880, Note_on_c, 4, 65, 62
6, 27060, Note_off_c, 4, 65, 0
6, 27072, Note_on_c, 4, 65, 62
6, 27156, Note_off_c, 4, 65, 0
6, 27168, Note_on_c, 4, 63, 62
6, 27252, Note_off_c, 4, 63, 0
6, 27264, Note_on_c, 4, 62, 62
6, 27306, Note_off_c, 4, 62, 0
6, 27312, Note_on_c, 4, 60, 62
6, 27354, Note_off_c, 4, 60, 0
6, 27360, Note_on_c, 4, 62, 62
6, 27444, Note_off_c, 4, 62, 0
6, 27456, Note_on_c, 4, 63, 62
6, 27540, Note_off_c, 4, 63, 0
6, 27552, Note_on_c, 4, 60, 62
6, 27636, Note_off_c, 4, 60, 0
6, 27648, Note_on_c, 4, 65, 62
6, 27732, Note_off_c, 4, 65, 0
6, 27744, Note_on_c, 4, 65, 62
6, 27924, Note_off_c, 4, 65, 0
6, 27936, Note_on_c, 4, 60, 62
6, 28020, Note_off_c, 4, 60, 0
6, 28032, Note_on_c, 4, 60, 62
6, 28212, Note_off_c, 4, 60, 0
6, 28224, Note_on_c, 4, 60, 62
6, 28308, Note_off_c, 4, 60, 0
6, 28320, Note_on_c, 4, 64, 62
6, 28404, Note_off_c, 4, 64, 0
6, 28416, Note_on_c, 4, 69, 62
6, 28458, Note_off_c, 4, 69, 0
6, 28464, Note_on_c, 4, 67, 62
6, 28506, Note_off_c, 4, 67, 0
6, 28512, Note_on_c, 4, 69, 62
6, 28596, Note_off_c, 4, 69, 0
6, 28608, Note_on_c, 4, 67, 62
6, 28692, Note_off_c, 4, 67, 0
6, 28704, Note_on_c, 4, 60, 62
6, 28788, Note_off_c, 4, 60, 0
6, 28800, Note_on_c, 4, 60, 62
6, 28884, Note_off_c, 4, 60, 0
6, 28896, Note_on_c, 4, 60, 62
6, 29076, Note_off_c, 4, 60, 0
6, 29088, Note_on_c, 4, 60, 62
6, 29172, Note_off_c, 4, 60, 0
6, 29184, Note_on_c, 4, 62, 62
6, 29268, Note_off_c, 4, 62, 0
6, 29280, Note_on_c, 4, 60, 62
6, 29322, Note_off_c, 4, 60, 0
6, 29328, Note_on_c, 4, 62, 62
6, 29370, Note_off_c, 4, 62, 0
6, 29376, Note_on_c, 4, 64, 62
6, 29460, Note_off_c, 4, 64, 0
6, 29472, Note_on_c, 4, 62, 62
6, 29652, Note_off_c, 4, 62, 0
6, 29664, Note_on_c, 4, 64, 62
6, 29748, Note_off_c, 4, 64, 0
6, 29760, Note_on_c, 4, 60, 62
6, 29844, Note_off_c, 4, 60, 0
6, 29856, Note_on_c, 4, 67, 62
6, 29940, Note_off_c, 4, 67, 0
6, 29952, Note_on_c, 4, 65, 62
6, 30036, Note_off_c, 4, 65, 0
6, 30048, Note_on_c, 4, 64, 62
6, 30324, Note_off_c, 4, 64, 0
6, 30336, Note_on_c, 4, 65, 62
6, 30516, Note_off_c, 4, 65, 0
6, 30528, Note_on_c, 4, 65, 62
6, 30612, Note_off_c, 4, 65, 0
6, 30624, Note_on_c, 4, 63, 62
6, 30708, Note_off_c, 4, 63, 0
6, 30720, Note_on_c, 4, 62, 62
6, 30762, Note_off_c, 4, 62, 0
6, 30768, Note_on_c, 4, 60, 62
6, 30810, Note_off_c, 4, 60, 0
6, 30816, Note_on_c, 4, 62, 62
6, 30900, Note_off_c, 4, 62, 0
6, 30912, Note_on_c, 4, 63, 62
6, 30996, Note_off_c, 4, 63, 0
6, 31008, Note_on_c, 4, 60, 62
6, 31092, Note_off_c, 4, 60, 0
6, 31104, Note_on_c, 4, 65, 62
6, 31188, Note_off_c, 4, 65, 0
6, 31200, Note_on_c, 4, 65, 62
6, 31380, Note_off_c, 4, 65, 0
6, 31392, Note_on_c, 4, 60, 62
6, 31476, Note_off_c, 4, 60, 0
6, 31488, Note_on_c, 4, 60, 62
6, 31668, Note_off_c, 4, 60, 0
6, 31680, Note_on_c, 4, 60, 62
6, 31764, Note_off_c, 4, 60, 0
6, 31776, Note_on_c, 4, 64, 62
6, 31860, Note_off_c, 4, 64, 0
6, 31872, Note_on_c, 4, 69, 62
6, 31914, Note_off_c, 4, 69, 0
6, 31920, Note_on_c, 4, 67, 62
6, 31962, Note_off_c, 4, 67, 0
6, 31968, Note_on_c, 4, 69, 62
6, 32052, Note_off_c, 4, 69, 0
6, 32064, Note_on_c, 4, 67, 62
6, 32148, Note_off_c, 4, 67, 0
6, 32160, Note_on_c, 4, 60, 62
6, 32244, Note_off_c, 4, 60, 0
6, 32256, Note_on_c, 4, 60, 62
6, 32340, Note_off_c, 4, 60, 0
6, 32352, Note_on_c, 4, 60, 62
6, 32532, Note_off_c, 4, 60, 0
6, 32544, Note_on_c, 4, 60, 62
6, 32628, Note_off_c, 4, 60, 0
6, 32640, Note_on_c, 4, 62, 62
6, 32724, Note_off_c, 4, 62, 0
6, 32736, Note_on_c, 4, 60, 62
6, 32778, Note_off_c, 4, 60, 0
6, 32784, Note_on_c, 4, 62, 62
6, 32826, Note_off_c, 4, 62, 0
6, 32832, Note_on_c, 4, 64, 62
6, 32916, Note_off_c, 4, 64, 0
6, 32928, Note_on_c, 4, 62, 62
6, 33108, Note_off_c, 4, 62, 0
6, 33120, Note_on_c, 4, 64, 62
6, 33204, Note_off_c, 4, 64, 0
6, 33216, Note_on_c, 4, 60, 62
6, 33300, Note_off_c, 4, 60, 0
6, 33312, Note_on_c, 4, 67, 62
6, 33396, Note_off_c, 4, 67, 0
6, 33408, Note_on_c, 4, 65, 62
6, 33492, Note_off_c, 4, 65, 0
6, 33504, Note_on_c, 4, 64, 62
6, 33780, Note_off_c, 4, 64, 0
6, 33792, Note_on_c, 4, 67, 62
6, 33972, Note_off_c, 4, 67, 0
6, 33984, Note_on_c, 4, 72, 62
6, 34068, Note_off_c, 4, 72, 0
6, 34080, Note_on_c, 4, 70, 62
6, 34164, Note_off_c, 4, 70, 0
6, 34176, Note_on_c, 4, 69, 62
6, 34218, Note_off_c, 4, 69, 0
6, 34224, Note_on_c, 4, 67, 62
6, 34266, Note_off_c, 4, 67, 0
6, 34272, Note_on_c, 4, 69, 62
6, 34356, Note_off_c, 4, 69, 0
6, 34368, Note_on_c, 4, 70, 62
6, 34452, Note_off_c, 4, 70, 0
6, 34464, Note_on_c, 4, 67, 62
6, 34548, Note_off_c, 4, 67, 0
6, 34560, Note_on_c, 4, 72, 62
6, 34644, Note_off_c, 4, 72, 0
6, 34656, Note_on_c, 4, 72, 62
6, 34836, Note_off_c, 4, 72, 0
6, 34848, Note_on_c, 4, 67, 62
6, 34932, Note_off_c, 4, 67, 0
6, 34944, Note_on_c, 4, 67, 62
6, 35124, Note_off_c, 4, 67, 0
6, 35136, Note_on_c, 4, 67, 62
6, 35220, Note_off_c, 4, 67, 0
6, 35232, Note_on_c, 4, 62, 62
6, 35316, Note_off_c, 4, 62, 0
6, 35328, Note_on_c, 4, 64, 62
6, 35412, Note_off_c, 4, 64, 0
6, 35424, Note_on_c, 4, 60, 62
6, 35508, Note_off_c, 4, 60, 0
6, 35520, Note_on_c, 4, 67, 62
6, 35700, Note_off_c, 4, 67, 0
6, 35712, Note_on_c, 4, 67, 62
6, 35796, Note_off_c, 4, 67, 0
6, 35808, Note_on_c, 4, 67, 62
6, 36084, Note_off_c, 4, 67, 0
6, 36096, Note_on_c, 4, 67, 62
6, 36180, Note_off_c, 4, 67, 0
6, 36192, Note_on_c, 4, 67, 62
6, 36202, Note_off_c, 4, 67, 0
6, 36204, Note_on_c, 4, 65, 62
6, 36214, Note_off_c, 4, 65, 0
6, 36216, Note_on_c, 4, 67, 62
6, 36226, Note_off_c, 4, 67, 0
6, 36228, Note_on_c, 4, 65, 62
6, 36238, Note_off_c, 4, 65, 0
6, 36240, Note_on_c, 4, 67, 62
6, 36250, Note_off_c, 4, 67, 0
6, 36252, Note_on_c, 4, 65, 62
6, 36262, Note_off_c, 4, 65, 0
6, 36264, Note_on_c, 4, 67, 62
6, 36274, Note_off_c, 4, 67, 0
6, 36276, Note_on_c, 4, 65, 62
6, 36286, Note_off_c, 4, 65, 0
6, 36288, Note_on_c, 4, 67, 62
6, 36298, Note_off_c, 4, 67, 0
6, 36300, Note_on_c, 4, 65, 62
6, 36310, Note_off_c, 4, 65, 0
6, 36312, Note_on_c, 4, 67, 62
6, 36322, Note_off_c, 4, 67, 0
6, 36324, Note_on_c, 4, 65, 62
6, 36334, Note_off_c, 4, 65, 0
6, 36336, Note_on_c, 4, 64, 62
6, 36357, Note_off_c, 4, 64, 0
6, 36360, Note_on_c, 4, 65, 62
6, 36381, Note_off_c, 4, 65, 0
6, 36384, Note_on_c, 4, 67, 62
6, 36468, Note_off_c, 4, 67, 0
6, 36480, Note_on_c, 4, 72, 62
6, 36564, Note_off_c, 4, 72, 0
6, 36576, Note_on_c, 4, 64, 62
6, 36660, Note_off_c, 4, 64, 0
6, 36672, Note_on_c, 4, 69, 62
6, 36714, Note_off_c, 4, 69, 0
6, 36720, Note_on_c, 4, 70, 62
6, 36762, Note_off_c, 4, 70, 0
6, 36768, Note_on_c, 4, 67, 62
6, 36900, Note_off_c, 4, 67, 0
6, 36912, Note_on_c, 4, 69, 62
6, 36954, Note_off_c, 4, 69, 0
6, 36960, Note_on_c, 4, 69, 62
6, 37236, Note_off_c, 4, 69, 0
6, 37248, Note_on_c, 4, 67, 62
6, 37428, Note_off_c, 4, 67, 0
6, 37440, Note_on_c, 4, 72, 62
6, 37524, Note_off_c, 4, 72, 0
6, 37536, Note_on_c, 4, 70, 62
6, 37620, Note_off_c, 4, 70, 0
6, 37632, Note_on_c, 4, 69, 62
6, 37674, Note_off_c, 4, 69, 0
6, 37680, Note_on_c, 4, 67, 62
6, 37722, Note_off_c, 4, 67, 0
6, 37728, Note_on_c, 4, 69, 62
6, 37812, Note_off_c, 4, 69, 0
6, 37824, Note_on_c, 4, 70, 62
6, 37908, Note_off_c, 4, 70, 0
6, 37920, Note_on_c, 4, 67, 62
6, 38004, Note_off_c, 4, 67, 0
6, 38016, Note_on_c, 4, 72, 62
6, 38100, Note_off_c, 4, 72, 0
6, 38112, Note_on_c, 4, 72, 62
6, 38292, Note_off_c, 4, 72, 0
6, 38304, Note_on_c, 4, 67, 62
6, 38388, Note_off_c, 4, 67, 0
6, 38400, Note_on_c, 4, 67, 62
6, 38580, Note_off_c, 4, 67, 0
6, 38592, Note_on_c, 4, 67, 62
6, 38676, Note_off_c, 4, 67, 0
6, 38688, Note_on_c, 4, 62, 62
6, 38772, Note_off_c, 4, 62, 0
6, 38784, Note_on_c, 4, 64, 62
6, 38868, Note_off_c, 4, 64, 0
6, 38880, Note_on_c, 4, 60, 62
6, 38964, Note_off_c, 4, 60, 0
6, 38976, Note_on_c, 4, 67, 62
6, 39156, Note_off_c, 4, 67, 0
6, 39168, Note_on_c, 4, 67, 62
6, 39252, Note_off_c, 4, 67, 0
6, 39264, Note_on_c, 4, 67, 62
6, 39540, Note_off_c, 4, 67, 0
6, 39552, Note_on_c, 4, 67, 62
6, 39636, Note_off_c, 4, 67, 0
6, 39648, Note_on_c, 4, 67, 62
6, 39658, Note_off_c, 4, 67, 0
6, 39660, Note_on_c, 4, 65, 62
6, 39670, Note_off_c, 4, 65, 0
6, 39672, Note_on_c, 4, 67, 62
6, 39682, Note_off_c, 4, 67, 0
6, 39684, Note_on_c, 4, 65, 62
6, 39694, Note_off_c, 4, 65, 0
6, 39696, Note_on_c, 4, 67, 62
6, 39706, Note_off_c, 4, 67, 0
6, 39708, Note_on_c, 4, 65, 62
6, 39718, Note_off_c, 4, 65, 0
6, 39720, Note_on_c, 4, 67, 62
6, 39730, Note_off_c, 4, 67, 0
6, 39732, Note_on_c, 4, 65, 62
6, 39742, Note_off_c, 4, 65, 0
6, 39744, Note_on_c, 4, 67, 62
6, 39754, Note_off_c, 4, 67, 0
6, 39756, Note_on_c, 4, 65, 62
6, 39766, Note_off_c, 4, 65, 0
6, 39768, Note_on_c, 4, 67, 62
6, 39778, Note_off_c, 4, 67, 0
6, 39780, Note_on_c, 4, 65, 62
6, 39790, Note_off_c, 4, 65, 0
6, 39792, Note_on_c, 4, 64, 62
6, 39813, Note_off_c, 4, 64, 0
6, 39816, Note_on_c, 4, 65, 62
6, 39837, Note_off_c, 4, 65, 0
6, 39840, Note_on_c, 4, 67, 62
6, 39924, Note_off_c, 4, 67, 0
6, 39936, Note_on_c, 4, 72, 62
6, 40020, Note_off_c, 4, 72, 0
6, 40032, Note_on_c, 4, 64, 62
6, 40116, Note_off_c, 4, 64, 0
6, 40128, Note_on_c, 4, 69, 62
6, 40170, Note_off_c, 4, 69, 0
6, 40176, Note_on_c, 4, 70, 62
6, 40218, Note_off_c, 4, 70, 0
6, 40224, Note_on_c, 4, 67, 62
6, 40356, Note_off_c, 4, 67, 0
6, 40368, Note_on_c, 4, 69, 62
6, 40410, Note_off_c, 4, 69, 0
6, 40416, Note_on_c, 4, 69, 62
6, 40692, Note_off_c, 4, 69, 0
6, 40692, End_track
7, 0, Start_track
7, 0, Title_t, "Fagotto"
7, 0, Control_c, 5, 0, 0
7, 0, Program_c, 5, 70
7, 0, Time_signature, 3, 2, 96, 8
7, 0, Tempo, 461538
7, 96, Tempo, 428571
7, 96, Note_on_c, 5, 57, 49
7, 276, Note_off_c, 5, 57, 0
7, 288, Note_on_c, 5, 58, 49
7, 372, Note_off_c, 5, 58, 0
7, 384, Note_on_c, 5, 60, 49
7, 468, Note_off_c, 5, 60, 0
7, 480, Note_on_c, 5, 63, 49
7, 564, Note_off_c, 5, 63, 0
7, 576, Note_on_c, 5, 62, 49
7, 660, Note_off_c, 5, 62, 0
7, 672, Note_on_c, 5, 60, 49
7, 756, Note_off_c, 5, 60, 0
7, 768, Note_on_c, 5, 58, 49
7, 810, Note_off_c, 5, 58, 0
7, 816, Note_on_c, 5, 57, 49
7, 858, Note_off_c, 5, 57, 0
7, 864, Note_on_c, 5, 58, 49
7, 948, Note_off_c, 5, 58, 0
7, 960, Note_on_c, 5, 57, 49
7, 1044, Note_off_c, 5, 57, 0
7, 1056, Note_on_c, 5, 58, 49
7, 1098, Note_off_c, 5, 58, 0
7, 1104, Note_on_c, 5, 57, 49
7, 1146, Note_off_c, 5, 57, 0
7, 1152, Note_on_c, 5, 55, 49
7, 1194, Note_off_c, 5, 55, 0
7, 1200, Note_on_c, 5, 53, 49
7, 1242, Note_off_c, 5, 53, 0
7, 1248, Note_on_c, 5, 52, 49
7, 1428, Note_off_c, 5, 52, 0
7, 1440, Note_on_c, 5, 53, 49
7, 1524, Note_off_c, 5, 53, 0
7, 1536, Note_on_c, 5, 55, 49
7, 1620, Note_off_c, 5, 55, 0
7, 1632, Note_on_c, 5, 53, 49
7, 1674, Note_off_c, 5, 53, 0
7, 1680, Note_on_c, 5, 52, 49
7, 1722, Note_off_c, 5, 52, 0
7, 1728, Note_on_c, 5, 53, 49
7, 1812, Note_off_c, 5, 53, 0
7, 1824, Note_on_c, 5, 52, 49
7, 1908, Note_off_c, 5, 52, 0
7, 1920, Note_on_c, 5, 53, 49
7, 1962, Note_off_c, 5, 53, 0
7, 1968, Note_on_c, 5, 52, 49
7, 2010, Note_off_c, 5, 52, 0
7, 2016, Note_on_c, 5, 50, 49
7, 2058, Note_off_c, 5, 50, 0
7, 2064, Note_on_c, 5, 48, 49
7, 2106, Note_off_c, 5, 48, 0
7, 2112, Note_on_c, 5, 53, 49
7, 2196, Note_off_c, 5, 53, 0
7, 2208, Note_on_c, 5, 52, 49
7, 2250, Note_off_c, 5, 52, 0
7, 2256, Note_on_c, 5, 50, 49
7, 2298, Note_off_c, 5, 50, 0
7, 2304, Note_on_c, 5, 52, 49
7, 2388, Note_off_c, 5, 52, 0
7, 2400, Note_on_c, 5, 50, 49
7, 2484, Note_off_c, 5, 50, 0
7, 2496, Note_on_c, 5, 52, 49
7, 2580, Note_off_c, 5, 52, 0
7, 2592, Note_on_c, 5, 48, 49
7, 2676, Note_off_c, 5, 48, 0
7, 2688, Note_on_c, 5, 47, 49
7, 2772, Note_off_c, 5, 47, 0
7, 2784, Note_on_c, 5, 45, 49
7, 2826, Note_off_c, 5, 45, 0
7, 2832, Note_on_c, 5, 43, 49
7, 2874, Note_off_c, 5, 43, 0
7, 2880, Note_on_c, 5, 41, 49
7, 2922, Note_off_c, 5, 41, 0
7, 2928, Note_on_c, 5, 40, 49
7, 2970, Note_off_c, 5, 40, 0
7, 2976, Note_on_c, 5, 45, 49
7, 3018, Note_off_c, 5, 45, 0
7, 3024, Note_on_c, 5, 41, 49
7, 3066, Note_off_c, 5, 41, 0
7, 3072, Note_on_c, 5, 43, 49
7, 3156, Note_off_c, 5, 43, 0
7, 3168, Note_on_c, 5, 43, 49
7, 3252, Note_off_c, 5, 43, 0
7, 3264, Note_on_c, 5, 36, 49
7, 3348, Note_off_c, 5, 36, 0
7, 3360, Note_on_c, 5, 48, 49
7, 3402, Note_off_c, 5, 48, 0
7, 3408, Note_on_c, 5, 46, 49
7, 3450, Note_off_c, 5, 46, 0
7, 3456, Note_on_c, 5, 45, 49
7, 3498, Note_off_c, 5, 45, 0
7, 3504, Note_on_c, 5, 43, 49
7, 3546, Note_off_c, 5, 43, 0
7, 3552, Note_on_c, 5, 41, 49
7, 3636, Note_off_c, 5, 41, 0
7, 3648, Note_on_c, 5, 57, 49
7, 3732, Note_off_c, 5, 57, 0
7, 3744, Note_on_c, 5, 58, 49
7, 3828, Note_off_c, 5, 58, 0
7, 3840, Note_on_c, 5, 60, 49
7, 3924, Note_off_c, 5, 60, 0
7, 3936, Note_on_c, 5, 63, 49
7, 4020, Note_off_c, 5, 63, 0
7, 4032, Note_on_c, 5, 62, 49
7, 4116, Note_off_c, 5, 62, 0
7, 4128, Note_on_c, 5, 60, 49
7, 4212, Note_off_c, 5, 60, 0
7, 4224, Note_on_c, 5, 58, 49
7, 4266, Note_off_c, 5, 58, 0
7, 4272, Note_on_c, 5, 57, 49
7, 4314, Note_off_c, 5, 57, 0
7, 4320, Note_on_c, 5, 58, 49
7, 4404, Note_off_c, 5, 58, 0
7, 4416, Note_on_c, 5, 57, 49
7, 4500, Note_off_c, 5, 57, 0
7, 4512, Note_on_c, 5, 58, 49
7, 4554, Note_off_c, 5, 58, 0
7, 4560, Note_on_c, 5, 57, 49
7, 4602, Note_off_c, 5, 57, 0
7, 4608, Note_on_c, 5, 55, 49
7, 4650, Note_off_c, 5, 55, 0
7, 4656, Note_on_c, 5, 53, 49
7, 4698, Note_off_c, 5, 53, 0
7, 4704, Note_on_c, 5, 52, 49
7, 4884, Note_off_c, 5, 52, 0
7, 4896, Note_on_c, 5, 53, 49
7, 4980, Note_off_c, 5, 53, 0
7, 4992, Note_on_c, 5, 55, 49
7, 5076, Note_off_c, 5, 55, 0
7, 5088, Note_on_c, 5, 53, 49
7, 5130, Note_off_c, 5, 53, 0
7, 5136, Note_on_c, 5, 52, 49
7, 5178, Note_off_c, 5, 52, 0
7, 5184, Note_on_c, 5, 53, 49
7, 5268, Note_off_c, 5, 53, 0
7, 5280, Note_on_c, 5, 52, 49
7, 5364, Note_off_c, 5, 52, 0
7, 5376, Note_on_c, 5, 53, 49
7, 5418, Note_off_c, 5, 53, 0
7, 5424, Note_on_c, 5, 52, 49
7, 5466, Note_off_c, 5, 52, 0
7, 5472, Note_on_c, 5, 50, 49
7, 5514, Note_off_c, 5, 50, 0
7, 5520, Note_on_c, 5, 48, 49
7, 5562, Note_off_c, 5, 48, 0
7, 5568, Note_on_c, 5, 53, 49
7, 5652, Note_off_c, 5, 53, 0
7, 5664, Note_on_c, 5, 52, 49
7, 5706, Note_off_c, 5, 52, 0
7, 5712, Note_on_c, 5, 50, 49
7, 5754, Note_off_c, 5, 50, 0
7, 5760, Note_on_c, 5, 52, 49
7, 5844, Note_off_c, 5, 52, 0
7, 5856, Note_on_c, 5, 50, 49
7, 5940, Note_off_c, 5, 50, 0
7, 5952, Note_on_c, 5, 52, 49
7, 6036, Note_off_c, 5, 52, 0
7, 6048, Note_on_c, 5, 48, 49
7, 6132, Note_off_c, 5, 48, 0
7, 6144, Note_on_c, 5, 47, 49
7, 6228, Note_off_c, 5, 47, 0
7, 6240, Note_on_c, 5, 45, 49
7, 6282, Note_off_c, 5, 45, 0
7, 6288, Note_on_c, 5, 43, 49
7, 6330, Note_off_c, 5, 43, 0
7, 6336, Note_on_c, 5, 41, 49
7, 6378, Note_off_c, 5, 41, 0
7, 6384, Note_on_c, 5, 40, 49
7, 6426, Note_off_c, 5, 40, 0
7, 6432, Note_on_c, 5, 45, 49
7, 6474, Note_off_c, 5, 45, 0
7, 6480, Note_on_c, 5, 41, 49
7, 6522, Note_off_c, 5, 41, 0
7, 6528, Note_on_c, 5, 43, 49
7, 6612, Note_off_c, 5, 43, 0
7, 6624, Note_on_c, 5, 43, 49
7, 6708, Note_off_c, 5, 43, 0
7, 6720, Note_on_c, 5, 36, 49
7, 6804, Note_off_c, 5, 36, 0
7, 6816, Note_on_c, 5, 48, 49
7, 6900, Note_off_c, 5, 48, 0
7, 6912, Note_on_c, 5, 50, 49
7, 6996, Note_off_c, 5, 50, 0
7, 7008, Note_on_c, 5, 52, 49
7, 7188, Note_off_c, 5, 52, 0
7, 7200, Note_on_c, 5, 53, 49
7, 7284, Note_off_c, 5, 53, 0
7, 7296, Note_on_c, 5, 55, 49
7, 7380, Note_off_c, 5, 55, 0
7, 7392, Note_on_c, 5, 58, 49
7, 7476, Note_off_c, 5, 58, 0
7, 7488, Note_on_c, 5, 57, 49
7, 7572, Note_off_c, 5, 57, 0
7, 7584, Note_on_c, 5, 55, 49
7, 7668, Note_off_c, 5, 55, 0
7, 7680, Note_on_c, 5, 53, 49
7, 7722, Note_off_c, 5, 53, 0
7, 7728, Note_on_c, 5, 52, 49
7, 7770, Note_off_c, 5, 52, 0
7, 7776, Note_on_c, 5, 53, 49
7, 7860, Note_off_c, 5, 53, 0
7, 7872, Note_on_c, 5, 52, 49
7, 7956, Note_off_c, 5, 52, 0
7, 7968, Note_on_c, 5, 53, 49
7, 8010, Note_off_c, 5, 53, 0
7, 8016, Note_on_c, 5, 52, 49
7, 8058, Note_off_c, 5, 52, 0
7, 8064, Note_on_c, 5, 50, 49
7, 8106, Note_off_c, 5, 50, 0
7, 8112, Note_on_c, 5, 48, 49
7, 8154, Note_off_c, 5, 48, 0
7, 8160, Note_on_c, 5, 48, 49
7, 8181, Note_off_c, 5, 48, 0
7, 8184, Note_on_c, 5, 47, 49
7, 8205, Note_off_c, 5, 47, 0
7, 8208, Note_on_c, 5, 48, 49
7, 8229, Note_off_c, 5, 48, 0
7, 8232, Note_on_c, 5, 47, 49
7, 8253, Note_off_c, 5, 47, 0
7, 8256, Note_on_c, 5, 48, 49
7, 8277, Note_off_c, 5, 48, 0
7, 8280, Note_on_c, 5, 47, 49
7, 8301, Note_off_c, 5, 47, 0
7, 8304, Note_on_c, 5, 48, 49
7, 8325, Note_off_c, 5, 48, 0
7, 8328, Note_on_c, 5, 47, 49
7, 8349, Note_off_c, 5, 47, 0
7, 8352, Note_on_c, 5, 48, 49
7, 8436, Note_off_c, 5, 48, 0
7, 8448, Note_on_c, 5, 50, 49
7, 8532, Note_off_c, 5, 50, 0
7, 8544, Note_on_c, 5, 48, 49
7, 8586, Note_off_c, 5, 48, 0
7, 8592, Note_on_c, 5, 47, 49
7, 8634, Note_off_c, 5, 47, 0
7, 8640, Note_on_c, 5, 48, 49
7, 8724, Note_off_c, 5, 48, 0
7, 8736, Note_on_c, 5, 47, 49
7, 8820, Note_off_c, 5, 47, 0
7, 8832, Note_on_c, 5, 48, 49
7, 8874, Note_off_c, 5, 48, 0
7, 8880, Note_on_c, 5, 47, 49
7, 8922, Note_off_c, 5, 47, 0
7, 8928, Note_on_c, 5, 45, 49
7, 8970, Note_off_c, 5, 45, 0
7, 8976, Note_on_c, 5, 43, 49
7, 9018, Note_off_c, 5, 43, 0
7, 9024, Note_on_c, 5, 48, 49
7, 9108, Note_off_c, 5, 48, 0
7, 9120, Note_on_c, 5, 46, 49
7, 9162, Note_off_c, 5, 46, 0
7, 9168, Note_on_c, 5, 45, 49
7, 9210, Note_off_c, 5, 45, 0
7, 9216, Note_on_c, 5, 43, 49
7, 9258, Note_off_c, 5, 43, 0
7, 9264, Note_on_c, 5, 41, 49
7, 9306, Note_off_c, 5, 41, 0
7, 9312, Note_on_c, 5, 40, 49
7, 9396, Note_off_c, 5, 40, 0
7, 9408, Note_on_c, 5, 41, 49
7, 9450, Note_off_c, 5, 41, 0
7, 9456, Note_on_c, 5, 40, 49
7, 9498, Note_off_c, 5, 40, 0
7, 9504, Note_on_c, 5, 38, 49
7, 9546, Note_off_c, 5, 38, 0
7, 9552, Note_on_c, 5, 40, 49
7, 9594, Note_off_c, 5, 40, 0
7, 9600, Note_on_c, 5, 36, 49
7, 9684, Note_off_c, 5, 36, 0
7, 9696, Note_on_c, 5, 48, 49
7, 9738, Note_off_c, 5, 48, 0
7, 9744, Note_on_c, 5, 50, 49
7, 9786, Note_off_c, 5, 50, 0
7, 9792, Note_on_c, 5, 52, 49
7, 9834, Note_off_c, 5, 52, 0
7, 9840, Note_on_c, 5, 48, 49
7, 9882, Note_off_c, 5, 48, 0
7, 9888, Note_on_c, 5, 50, 49
7, 9930, Note_off_c, 5, 50, 0
7, 9936, Note_on_c, 5, 46, 49
7, 9978, Note_off_c, 5, 46, 0
7, 9984, Note_on_c, 5, 48, 49
7, 10068, Note_off_c, 5, 48, 0
7, 10080, Note_on_c, 5, 36, 49
7, 10164, Note_off_c, 5, 36, 0
7, 10176, Note_on_c, 5, 41, 49
7, 10218, Note_off_c, 5, 41, 0
7, 10224, Note_on_c, 5, 43, 49
7, 10266, Note_off_c, 5, 43, 0
7, 10272, Note_on_c, 5, 45, 49
7, 10314, Note_off_c, 5, 45, 0
7, 10320, Note_on_c, 5, 46, 49
7, 10362, Note_off_c, 5, 46, 0
7, 10368, Note_on_c, 5, 48, 49
7, 10410, Note_off_c, 5, 48, 0
7, 10416, Note_on_c, 5, 50, 49
7, 10458, Note_off_c, 5, 50, 0
7, 10464, Note_on_c, 5, 52, 49
7, 10644, Note_off_c, 5, 52, 0
7, 10656, Note_on_c, 5, 53, 49
7, 10740, Note_off_c, 5, 53, 0
7, 10752, Note_on_c, 5, 55, 49
7, 10836, Note_off_c, 5, 55, 0
7, 10848, Note_on_c, 5, 58, 49
7, 10932, Note_off_c, 5, 58, 0
7, 10944, Note_on_c, 5, 57, 49
7, 11028, Note_off_c, 5, 57, 0
7, 11040, Note_on_c, 5, 55, 49
7, 11124, Note_off_c, 5, 55, 0
7, 11136, Note_on_c, 5, 53, 49
7, 11178, Note_off_c, 5, 53, 0
7, 11184, Note_on_c, 5, 52, 49
7, 11226, Note_off_c, 5, 52, 0
7, 11232, Note_on_c, 5, 53, 49
7, 11316, Note_off_c, 5, 53, 0
7, 11328, Note_on_c, 5, 52, 49
7, 11412, Note_off_c, 5, 52, 0
7, 11424, Note_on_c, 5, 53, 49
7, 11466, Note_off_c, 5, 53, 0
7, 11472, Note_on_c, 5, 52, 49
7, 11514, Note_off_c, 5, 52, 0
7, 11520, Note_on_c, 5, 50, 49
7, 11562, Note_off_c, 5, 50, 0
7, 11568, Note_on_c, 5, 48, 49
7, 11610, Note_off_c, 5, 48, 0
7, 11616, Note_on_c, 5, 48, 49
7, 11637, Note_off_c, 5, 48, 0
7, 11640, Note_on_c, 5, 47, 49
7, 11661, Note_off_c, 5, 47, 0
7, 11664, Note_on_c, 5, 48, 49
7, 11685, Note_off_c, 5, 48, 0
7, 11688, Note_on_c, 5, 47, 49
7, 11709, Note_off_c, 5, 47, 0
7, 11712, Note_on_c, 5, 48, 49
7, 11733, Note_off_c, 5, 48, 0
7, 11736, Note_on_c, 5, 47, 49
7, 11757, Note_off_c, 5, 47, 0
7, 11760, Note_on_c, 5, 48, 49
7, 11781, Note_off_c, 5, 48, 0
7, 11784, Note_on_c, 5, 47, 49
7, 11805, Note_off_c, 5, 47, 0
7, 11808, Note_on_c, 5, 48, 49
7, 11892, Note_off_c, 5, 48, 0
7, 11904, Note_on_c, 5, 50, 49
7, 11988, Note_off_c, 5, 50, 0
7, 12000, Note_on_c, 5, 48, 49
7, 12042, Note_off_c, 5, 48, 0
7, 12048, Note_on_c, 5, 47, 49
7, 12090, Note_off_c, 5, 47, 0
7, 12096, Note_on_c, 5, 48, 49
7, 12180, Note_off_c, 5, 48, 0
7, 12192, Note_on_c, 5, 47, 49
7, 12276, Note_off_c, 5, 47, 0
7, 12288, Note_on_c, 5, 48, 49
7, 12330, Note_off_c, 5, 48, 0
7, 12336, Note_on_c, 5, 47, 49
7, 12378, Note_off_c, 5, 47, 0
7, 12384, Note_on_c, 5, 45, 49
7, 12426, Note_off_c, 5, 45, 0
7, 12432, Note_on_c, 5, 43, 49
7, 12474, Note_off_c, 5, 43, 0
7, 12480, Note_on_c, 5, 48, 49
7, 12564, Note_off_c, 5, 48, 0
7, 12576, Note_on_c, 5, 46, 49
7, 12618, Note_off_c, 5, 46, 0
7, 12624, Note_on_c, 5, 45, 49
7, 12666, Note_off_c, 5, 45, 0
7, 12672, Note_on_c, 5, 43, 49
7, 12714, Note_off_c, 5, 43, 0
7, 12720, Note_on_c, 5, 41, 49
7, 12762, Note_off_c, 5, 41, 0
7, 12768, Note_on_c, 5, 40, 49
7, 12852, Note_off_c, 5, 40, 0
7, 12864, Note_on_c, 5, 41, 49
7, 12906, Note_off_c, 5, 41, 0
7, 12912, Note_on_c, 5, 40, 49
7, 12954, Note_off_c, 5, 40, 0
7, 12960, Note_on_c, 5, 38, 49
7, 13002, Note_off_c, 5, 38, 0
7, 13008, Note_on_c, 5, 40, 49
7, 13050, Note_off_c, 5, 40, 0
7, 13056, Note_on_c, 5, 36, 49
7, 13140, Note_off_c, 5, 36, 0
7, 13152, Note_on_c, 5, 48, 49
7, 13194, Note_off_c, 5, 48, 0
7, 13200, Note_on_c, 5, 50, 49
7, 13242, Note_off_c, 5, 50, 0
7, 13248, Note_on_c, 5, 52, 49
7, 13290, Note_off_c, 5, 52, 0
7, 13296, Note_on_c, 5, 48, 49
7, 13338, Note_off_c, 5, 48, 0
7, 13344, Note_on_c, 5, 50, 49
7, 13386, Note_off_c, 5, 50, 0
7, 13392, Note_on_c, 5, 46, 49
7, 13434, Note_off_c, 5, 46, 0
7, 13440, Note_on_c, 5, 48, 49
7, 13524, Note_off_c, 5, 48, 0
7, 13536, Note_on_c, 5, 36, 49
7, 13620, Note_off_c, 5, 36, 0
7, 13632, Note_on_c, 5, 41, 49
7, 13908, Note_off_c, 5, 41, 0
7, 14112, Time_signature, 2, 2, 96, 8
7, 14208, Tempo, 500000
7, 17280, Tempo, 500000
7, 26784, Time_signature, 3, 2, 96, 8
7, 26880, Tempo, 428571
7, 26880, Note_on_c, 5, 57, 49
7, 27060, Note_off_c, 5, 57, 0
7, 27072, Note_on_c, 5, 58, 49
7, 27156, Note_off_c, 5, 58, 0
7, 27168, Note_on_c, 5, 60, 49
7, 27252, Note_off_c, 5, 60, 0
7, 27264, Note_on_c, 5, 63, 49
7, 27348, Note_off_c, 5, 63, 0
7, 27360, Note_on_c, 5, 62, 49
7, 27444, Note_off_c, 5, 62, 0
7, 27456, Note_on_c, 5, 60, 49
7, 27540, Note_off_c, 5, 60, 0
7, 27552, Note_on_c, 5, 58, 49
7, 27594, Note_off_c, 5, 58, 0
7, 27600, Note_on_c, 5, 57, 49
7, 27642, Note_off_c, 5, 57, 0
7, 27648, Note_on_c, 5, 58, 49
7, 27732, Note_off_c, 5, 58, 0
7, 27744, Note_on_c, 5, 57, 49
7, 27828, Note_off_c, 5, 57, 0
7, 27840, Note_on_c, 5, 58, 49
7, 27882, Note_off_c, 5, 58, 0
7, 27888, Note_on_c, 5, 57, 49
7, 27930, Note_off_c, 5, 57, 0
7, 27936, Note_on_c, 5, 55, 49
7, 27978, Note_off_c, 5, 55, 0
7, 27984, Note_on_c, 5, 53, 49
7, 28026, Note_off_c, 5, 53, 0
7, 28032, Note_on_c, 5, 52, 49
7, 28212, Note_off_c, 5, 52, 0
7, 28224, Note_on_c, 5, 53, 49
7, 28308, Note_off_c, 5, 53, 0
7, 28320, Note_on_c, 5, 55, 49
7, 28404, Note_off_c, 5, 55, 0
7, 28416, Note_on_c, 5, 53, 49
7, 28458, Note_off_c, 5, 53, 0
7, 28464, Note_on_c, 5, 52, 49
7, 28506, Note_off_c, 5, 52, 0
7, 28512, Note_on_c, 5, 53, 49
7, 28596, Note_off_c, 5, 53, 0
7, 28608, Note_on_c, 5, 52, 49
7, 28692, Note_off_c, 5, 52, 0
7, 28704, Note_on_c, 5, 53, 49
7, 28746, Note_off_c, 5, 53, 0
7, 28752, Note_on_c, 5, 52, 49
7, 28794, Note_off_c, 5, 52, 0
7, 28800, Note_on_c, 5, 50, 49
7, 28842, Note_off_c, 5, 50, 0
7, 28848, Note_on_c, 5, 48, 49
7, 28890, Note_off_c, 5, 48, 0
7, 28896, Note_on_c, 5, 53, 49
7, 28980, Note_off_c, 5, 53, 0
7, 28992, Note_on_c, 5, 52, 49
7, 29034, Note_off_c, 5, 52, 0
7, 29040, Note_on_c, 5, 50, 49
7, 29082, Note_off_c, 5, 50, 0
7, 29088, Note_on_c, 5, 52, 49
7, 29172, Note_off_c, 5, 52, 0
7, 29184, Note_on_c, 5, 50, 49
7, 29268, Note_off_c, 5, 50, 0
7, 29280, Note_on_c, 5, 52, 49
7, 29364, Note_off_c, 5, 52, 0
7, 29376, Note_on_c, 5, 48, 49
7, 29460, Note_off_c, 5, 48, 0
7, 29472, Note_on_c, 5, 47, 49
7, 29556, Note_off_c, 5, 47, 0
7, 29568, Note_on_c, 5, 45, 49
7, 29610, Note_off_c, 5, 45, 0
7, 29616, Note_on_c, 5, 43, 49
7, 29658, Note_off_c, 5, 43, 0
7, 29664, Note_on_c, 5, 41, 49
7, 29706, Note_off_c, 5, 41, 0
7, 29712, Note_on_c, 5, 40, 49
7, 29754, Note_off_c, 5, 40, 0
7, 29760, Note_on_c, 5, 45, 49
7, 29802, Note_off_c, 5, 45, 0
7, 29808, Note_on_c, 5, 41, 49
7, 29850, Note_off_c, 5, 41, 0
7, 29856, Note_on_c, 5, 43, 49
7, 29940, Note_off_c, 5, 43, 0
7, 29952, Note_on_c, 5, 43, 49
7, 30036, Note_off_c, 5, 43, 0
7, 30048, Note_on_c, 5, 36, 49
7, 30132, Note_off_c, 5, 36, 0
7, 30144, Note_on_c, 5, 48, 49
7, 30186, Note_off_c, 5, 48, 0
7, 30192, Note_on_c, 5, 46, 49
7, 30234, Note_off_c, 5, 46, 0
7, 30240, Note_on_c, 5, 45, 49
7, 30282, Note_off_c, 5, 45, 0
7, 30288, Note_on_c, 5, 43, 49
7, 30330, Note_off_c, 5, 43, 0
7, 30336, Note_on_c, 5, 41, 49
7, 30420, Note_off_c, 5, 41, 0
7, 30432, Note_on_c, 5, 57, 49
7, 30516, Note_off_c, 5, 57, 0
7, 30528, Note_on_c, 5, 58, 49
7, 30612, Note_off_c, 5, 58, 0
7, 30624, Note_on_c, 5, 60, 49
7, 30708, Note_off_c, 5, 60, 0
7, 30720, Note_on_c, 5, 63, 49
7, 30804, Note_off_c, 5, 63, 0
7, 30816, Note_on_c, 5, 62, 49
7, 30900, Note_off_c, 5, 62, 0
7, 30912, Note_on_c, 5, 60, 49
7, 30996, Note_off_c, 5, 60, 0
7, 31008, Note_on_c, 5, 58, 49
7, 31050, Note_off_c, 5, 58, 0
7, 31056, Note_on_c, 5, 57, 49
7, 31098, Note_off_c, 5, 57, 0
7, 31104, Note_on_c, 5, 58, 49
7, 31188, Note_off_c, 5, 58, 0
7, 31200, Note_on_c, 5, 57, 49
7, 31284, Note_off_c, 5, 57, 0
7, 31296, Note_on_c, 5, 58, 49
7, 31338, Note_off_c, 5, 58, 0
7, 31344, Note_on_c, 5, 57, 49
7, 31386, Note_off_c, 5, 57, 0
7, 31392, Note_on_c, 5, 55, 49
7, 31434, Note_off_c, 5, 55, 0
7, 31440, Note_on_c, 5, 53, 49
7, 31482, Note_off_c, 5, 53, 0
7, 31488, Note_on_c, 5, 52, 49
7, 31668, Note_off_c, 5, 52, 0
7, 31680, Note_on_c, 5, 53, 49
7, 31764, Note_off_c, 5, 53, 0
7, 31776, Note_on_c, 5, 55, 49
7, 31860, Note_off_c, 5, 55, 0
7, 31872, Note_on_c, 5, 53, 49
7, 31914, Note_off_c, 5, 53, 0
7, 31920, Note_on_c, 5, 52, 49
7, 31962, Note_off_c, 5, 52, 0
7, 31968, Note_on_c, 5, 53, 49
7, 32052, Note_off_c, 5, 53, 0
7, 32064, Note_on_c, 5, 52, 49
7, 32148, Note_off_c, 5, 52, 0
7, 32160, Note_on_c, 5, 53, 49
7, 32202, Note_off_c, 5, 53, 0
7, 32208, Note_on_c, 5, 52, 49
7, 32250, Note_off_c, 5, 52, 0
7, 32256, Note_on_c, 5, 50, 49
7, 32298, Note_off_c, 5, 50, 0
7, 32304, Note_on_c, 5, 48, 49
7, 32346, Note_off_c, 5, 48, 0
7, 32352, Note_on_c, 5, 53, 49
7, 32436, Note_off_c, 5, 53, 0
7, 32448, Note_on_c, 5, 52, 49
7, 32490, Note_off_c, 5, 52, 0
7, 32496, Note_on_c, 5, 50, 49
7, 32538, Note_off_c, 5, 50, 0
7, 32544, Note_on_c, 5, 52, 49
7, 32628, Note_off_c, 5, 52, 0
7, 32640, Note_on_c, 5, 50, 49
7, 32724, Note_off_c, 5, 50, 0
7, 32736, Note_on_c, 5, 52, 49
7, 32820, Note_off_c, 5, 52, 0
7, 32832, Note_on_c, 5, 48, 49
7, 32916, Note_off_c, 5, 48, 0
7, 32928, Note_on_c, 5, 47, 49
7, 33012, Note_off_c, 5, 47, 0
7, 33024, Note_on_c, 5, 45, 49
7, 33066, Note_off_c, 5, 45, 0
7, 33072, Note_on_c, 5, 43, 49
7, 33114, Note_off_c, 5, 43, 0
7, 33120, Note_on_c, 5, 41, 49
7, 33162, Note_off_c, 5, 41, 0
7, 33168, Note_on_c, 5, 40, 49
7, 33210, Note_off_c, 5, 40, 0
7, 33216, Note_on_c, 5, 45, 49
7, 33258, Note_off_c, 5, 45, 0
7, 33264, Note_on_c, 5, 41, 49
7, 33306, Note_off_c, 5, 41, 0
7, 33312, Note_on_c, 5, 43, 49
7, 33396, Note_off_c, 5, 43, 0
7, 33408, Note_on_c, 5, 43, 49
7, 33492, Note_off_c, 5, 43, 0
7, 33504, Note_on_c, 5, 36, 49
7, 33588, Note_off_c, 5, 36, 0
7, 33600, Note_on_c, 5, 48, 49
7, 33684, Note_off_c, 5, 48, 0
7, 33696, Note_on_c, 5, 50, 49
7, 33780, Note_off_c, 5, 50, 0
7, 33792, Note_on_c, 5, 52, 49
7, 33972, Note_off_c, 5, 52, 0
7, 33984, Note_on_c, 5, 53, 49
7, 34068, Note_off_c, 5, 53, 0
7, 34080, Note_on_c, 5, 55, 49
7, 34164, Note_off_c, 5, 55, 0
7, 34176, Note_on_c, 5, 58, 49
7, 34260, Note_off_c, 5, 58, 0
7, 34272, Note_on_c, 5, 57, 49
7, 34356, Note_off_c, 5, 57, 0
7, 34368, Note_on_c, 5, 55, 49
7, 34452, Note_off_c, 5, 55, 0
7, 34464, Note_on_c, 5, 53, 49
7, 34506, Note_off_c, 5, 53, 0
7, 34512, Note_on_c, 5, 52, 49
7, 34554, Note_off_c, 5, 52, 0
7, 34560, Note_on_c, 5, 53, 49
7, 34644, Note_off_c, 5, 53, 0
7, 34656, Note_on_c, 5, 52, 49
7, 34740, Note_off_c, 5, 52, 0
7, 34752, Note_on_c, 5, 53, 49
7, 34794, Note_off_c, 5, 53, 0
7, 34800, Note_on_c, 5, 52, 49
7, 34842, Note_off_c, 5, 52, 0
7, 34848, Note_on_c, 5, 50, 49
7, 34890, Note_off_c, 5, 50, 0
7, 34896, Note_on_c, 5, 48, 49
7, 34938, Note_off_c, 5, 48, 0
7, 34944, Note_on_c, 5, 48, 49
7, 34965, Note_off_c, 5, 48, 0
7, 34968, Note_on_c, 5, 47, 49
7, 34989, Note_off_c, 5, 47, 0
7, 34992, Note_on_c, 5, 48, 49
7, 35013, Note_off_c, 5, 48, 0
7, 35016, Note_on_c, 5, 47, 49
7, 35037, Note_off_c, 5, 47, 0
7, 35040, Note_on_c, 5, 48, 49
7, 35061, Note_off_c, 5, 48, 0
7, 35064, Note_on_c, 5, 47, 49
7, 35085, Note_off_c, 5, 47, 0
7, 35088, Note_on_c, 5, 48, 49
7, 35109, Note_off_c, 5, 48, 0
7, 35112, Note_on_c, 5, 47, 49
7, 35133, Note_off_c, 5, 47, 0
7, 35136, Note_on_c, 5, 48, 49
7, 35220, Note_off_c, 5, 48, 0
7, 35232, Note_on_c, 5, 50, 49
7, 35316, Note_off_c, 5, 50, 0
7, 35328, Note_on_c, 5, 48, 49
7, 35370, Note_off_c, 5, 48, 0
7, 35376, Note_on_c, 5, 47, 49
7, 35418, Note_off_c, 5, 47, 0
7, 35424, Note_on_c, 5, 48, 49
7, 35508, Note_off_c, 5, 48, 0
7, 35520, Note_on_c, 5, 47, 49
7, 35604, Note_off_c, 5, 47, 0
7, 35616, Note_on_c, 5, 48, 49
7, 35658, Note_off_c, 5, 48, 0
7, 35664, Note_on_c, 5, 47, 49
7, 35706, Note_off_c, 5, 47, 0
7, 35712, Note_on_c, 5, 45, 49
7, 35754, Note_off_c, 5, 45, 0
7, 35760, Note_on_c, 5, 43, 49
7, 35802, Note_off_c, 5, 43, 0
7, 35808, Note_on_c, 5, 48, 49
7, 35892, Note_off_c, 5, 48, 0
7, 35904, Note_on_c, 5, 46, 49
7, 35946, Note_off_c, 5, 46, 0
7, 35952, Note_on_c, 5, 45, 49
7, 35994, Note_off_c, 5, 45, 0
7, 36000, Note_on_c, 5, 43, 49
7, 36042, Note_off_c, 5, 43, 0
7, 36048, Note_on_c, 5, 41, 49
7, 36090, Note_off_c, 5, 41, 0
7, 36096, Note_on_c, 5, 40, 49
7, 36180, Note_off_c, 5, 40, 0
7, 36192, Note_on_c, 5, 41, 49
7, 36234, Note_off_c, 5, 41, 0
7, 36240, Note_on_c, 5, 40, 49
7, 36282, Note_off_c, 5, 40, 0
7, 36288, Note_on_c, 5, 38, 49
7, 36330, Note_off_c, 5, 38, 0
7, 36336, Note_on_c, 5, 40, 49
7, 36378, Note_off_c, 5, 40, 0
7, 36384, Note_on_c, 5, 36, 49
7, 36468, Note_off_c, 5, 36, 0
7, 36480, Note_on_c, 5, 48, 49
7, 36522, Note_off_c, 5, 48, 0
7, 36528, Note_on_c, 5, 50, 49
7, 36570, Note_off_c, 5, 50, 0
7, 36576, Note_on_c, 5, 52, 49
7, 36618, Note_off_c, 5, 52, 0
7, 36624, Note_on_c, 5, 48, 49
7, 36666, Note_off_c, 5, 48, 0
7, 36672, Note_on_c, 5, 50, 49
7, 36714, Note_off_c, 5, 50, 0
7, 36720, Note_on_c, 5, 46, 49
7, 36762, Note_off_c, 5, 46, 0
7, 36768, Note_on_c, 5, 48, 49
7, 36852, Note_off_c, 5, 48, 0
7, 36864, Note_on_c, 5, 36, 49
7, 36948, Note_off_c, 5, 36, 0
7, 36960, Note_on_c, 5, 41, 49
7, 37002, Note_off_c, 5, 41, 0
7, 37008, Note_on_c, 5, 43, 49
7, 37050, Note_off_c, 5, 43, 0
7, 37056, Note_on_c, 5, 45, 49
7, 37098, Note_off_c, 5, 45, 0
7, 37104, Note_on_c, 5, 46, 49
7, 37146, Note_off_c, 5, 46, 0
7, 37152, Note_on_c, 5, 48, 49
7, 37194, Note_off_c, 5, 48, 0
7, 37200, Note_on_c, 5, 50, 49
7, 37242, Note_off_c, 5, 50, 0
7, 37248, Note_on_c, 5, 52, 49
7, 37428, Note_off_c, 5, 52, 0
7, 37440, Note_on_c, 5, 53, 49
7, 37524, Note_off_c, 5, 53, 0
7, 37536, Note_on_c, 5, 55, 49
7, 37620, Note_off_c, 5, 55, 0
7, 37632, Note_on_c, 5, 58, 49
7, 37716, Note_off_c, 5, 58, 0
7, 37728, Note_on_c, 5, 57, 49
7, 37812, Note_off_c, 5, 57, 0
7, 37824, Note_on_c, 5, 55, 49
7, 37908, Note_off_c, 5, 55, 0
7, 37920, Note_on_c, 5, 53, 49
7, 37962, Note_off_c, 5, 53, 0
7, 37968, Note_on_c, 5, 52, 49
7, 38010, Note_off_c, 5, 52, 0
7, 38016, Note_on_c, 5, 53, 49
7, 38100, Note_off_c, 5, 53, 0
7, 38112, Note_on_c, 5, 52, 49
7, 38196, Note_off_c, 5, 52, 0
7, 38208, Note_on_c, 5, 53, 49
7, 38250, Note_off_c, 5, 53, 0
7, 38256, Note_on_c, 5, 52, 49
7, 38298, Note_off_c, 5, 52, 0
7, 38304, Note_on_c, 5, 50, 49
7, 38346, Note_off_c, 5, 50, 0
7, 38352, Note_on_c, 5, 48, 49
7, 38394, Note_off_c, 5, 48, 0
7, 38400, Note_on_c, 5, 48, 49
7, 38421, Note_off_c, 5, 48, 0
7, 38424, Note_on_c, 5, 47, 49
7, 38445, Note_off_c, 5, 47, 0
7, 38448, Note_on_c, 5, 48, 49
7, 38469, Note_off_c, 5, 48, 0
7, 38472, Note_on_c, 5, 47, 49
7, 38493, Note_off_c, 5, 47, 0
7, 38496, Note_on_c, 5, 48, 49
7, 38517, Note_off_c, 5, 48, 0
7, 38520, Note_on_c, 5, 47, 49
7, 38541, Note_off_c, 5, 47, 0
7, 38544, Note_on_c, 5, 48, 49
7, 38565, Note_off_c, 5, 48, 0
7, 38568, Note_on_c, 5, 47, 49
7, 38589, Note_off_c, 5, 47, 0
7, 38592, Note_on_c, 5, 48, 49
7, 38676, Note_off_c, 5, 48, 0
7, 38688, Note_on_c, 5, 50, 49
7, 38772, Note_off_c, 5, 50, 0
7, 38784, Note_on_c, 5, 48, 49
7, 38826, Note_off_c, 5, 48, 0
7, 38832, Note_on_c, 5, 47, 49
7, 38874, Note_off_c, 5, 47, 0
7, 38880, Note_on_c, 5, 48, 49
7, 38964, Note_off_c, 5, 48, 0
7, 38976, Note_on_c, 5, 47, 49
7, 39060, Note_off_c, 5, 47, 0
7, 39072, Note_on_c, 5, 48, 49
7, 39114, Note_off_c, 5, 48, 0
7, 39120, Note_on_c, 5, 47, 49
7, 39162, Note_off_c, 5, 47, 0
7, 39168, Note_on_c, 5, 45, 49
7, 39210, Note_off_c, 5, 45, 0
7, 39216, Note_on_c, 5, 43, 49
7, 39258, Note_off_c, 5, 43, 0
7, 39264, Note_on_c, 5, 48, 49
7, 39348, Note_off_c, 5, 48, 0
7, 39360, Note_on_c, 5, 46, 49
7, 39402, Note_off_c, 5, 46, 0
7, 39408, Note_on_c, 5, 45, 49
7, 39450, Note_off_c, 5, 45, 0
7, 39456, Note_on_c, 5, 43, 49
7, 39498, Note_off_c, 5, 43, 0
7, 39504, Note_on_c, 5, 41, 49
7, 39546, Note_off_c, 5, 41, 0
7, 39552, Note_on_c, 5, 40, 49
7, 39636, Note_off_c, 5, 40, 0
7, 39648, Note_on_c, 5, 41, 49
7, 39690, Note_off_c, 5, 41, 0
7, 39696, Note_on_c, 5, 40, 49
7, 39738, Note_off_c, 5, 40, 0
7, 39744, Note_on_c, 5, 38, 49
7, 39786, Note_off_c, 5, 38, 0
7, 39792, Note_on_c, 5, 40, 49
7, 39834, Note_off_c, 5, 40, 0
7, 39840, Note_on_c, 5, 36, 49
7, 39924, Note_off_c, 5, 36, 0
7, 39936, Note_on_c, 5, 48, 49
7, 39978, Note_off_c, 5, 48, 0
7, 39984, Note_on_c, 5, 50, 49
7, 40026, Note_off_c, 5, 50, 0
7, 40032, Note_on_c, 5, 52, 49
7, 40074, Note_off_c, 5, 52, 0
7, 40080, Note_on_c, 5, 48, 49
7, 40122, Note_off_c, 5, 48, 0
7, 40128, Note_on_c, 5, 50, 49
7, 40170, Note_off_c, 5, 50, 0
7, 40176, Note_on_c, 5, 46, 49
7, 40218, Note_off_c, 5, 46, 0
7, 40224, Note_on_c, 5, 48, 49
7, 40308, Note_off_c, 5, 48, 0
7, 40320, Note_on_c, 5, 36, 49
7, 40404, Note_off_c, 5, 36, 0
7, 40416, Note_on_c, 5, 41, 49
7, 40692, Note_off_c, 5, 41, 0
7, 40692, End_track
8, 0, Start_track
8, 0, Title_t, "Violino piccolo"
8, 0, Control_c, 6, 0, 0
8, 0, Program_c, 6, 40
8, 0, Time_signature, 3, 2, 96, 8
8, 0, Tempo, 461538
8, 96, Tempo, 428571
8, 96, Note_on_c, 6, 72, 75
8, 180, Note_off_c, 6, 72, 0
8, 192, Note_on_c, 6, 75, 75
8, 276, Note_off_c, 6, 75, 0
8, 288, Note_on_c, 6, 74, 75
8, 372, Note_off_c, 6, 74, 0
8, 384, Note_on_c, 6, 72, 75
8, 468, Note_off_c, 6, 72, 0
8, 480, Note_on_c, 6, 70, 75
8, 522, Note_off_c, 6, 70, 0
8, 528, Note_on_c, 6, 69, 75
8, 570, Note_off_c, 6, 69, 0
8, 576, Note_on_c, 6, 70, 75
8, 660, Note_off_c, 6, 70, 0
8, 672, Note_on_c, 6, 72, 75
8, 756, Note_off_c, 6, 72, 0
8, 768, Note_on_c, 6, 75, 75
8, 852, Note_off_c, 6, 75, 0
8, 864, Note_on_c, 6, 74, 75
8, 948, Note_off_c, 6, 74, 0
8, 960, Note_on_c, 6, 74, 75
8, 970, Note_off_c, 6, 74, 0
8, 972, Note_on_c, 6, 72, 75
8, 982, Note_off_c, 6, 72, 0
8, 984, Note_on_c, 6, 74, 75
8, 994, Note_off_c, 6, 74, 0
8, 996, Note_on_c, 6, 72, 75
8, 1006, Note_off_c, 6, 72, 0
8, 1008, Note_on_c, 6, 74, 75
8, 1018, Note_off_c, 6, 74, 0
8, 1020, Note_on_c, 6, 72, 75
8, 1030, Note_off_c, 6, 72, 0
8, 1032, Note_on_c, 6, 74, 75
8, 1042, Note_off_c, 6, 74, 0
8, 1044, Note_on_c, 6, 72, 75
8, 1054, Note_off_c, 6, 72, 0
8, 1056, Note_on_c, 6, 74, 75
8, 1066, Note_off_c, 6, 74, 0
8, 1068, Note_on_c, 6, 72, 75
8, 1078, Note_off_c, 6, 72, 0
8, 1080, Note_on_c, 6, 74, 75
8, 1090, Note_off_c, 6, 74, 0
8, 1092, Note_on_c, 6, 72, 75
8, 1102, Note_off_c, 6, 72, 0
8, 1104, Note_on_c, 6, 74, 75
8, 1114, Note_off_c, 6, 74, 0
8, 1116, Note_on_c, 6, 72, 75
8, 1126, Note_off_c, 6, 72, 0
8, 1128, Note_on_c, 6, 74, 75
8, 1138, Note_off_c, 6, 74, 0
8, 1140, Note_on_c, 6, 72, 75
8, 1150, Note_off_c, 6, 72, 0
8, 1152, Note_on_c, 6, 77, 75
8, 1236, Note_off_c, 6, 77, 0
8, 1248, Note_on_c, 6, 70, 75
8, 1332, Note_off_c, 6, 70, 0
8, 1344, Note_on_c, 6, 67, 75
8, 1428, Note_off_c, 6, 67, 0
8, 1440, Note_on_c, 6, 69, 75
8, 1524, Note_off_c, 6, 69, 0
8, 1536, Note_on_c, 6, 70, 75
8, 1620, Note_off_c, 6, 70, 0
8, 1632, Note_on_c, 6, 74, 75
8, 1812, Note_off_c, 6, 74, 0
8, 1824, Note_on_c, 6, 72, 75
8, 1834, Note_off_c, 6, 72, 0
8, 1836, Note_on_c, 6, 70, 75
8, 1846, Note_off_c, 6, 70, 0
8, 1848, Note_on_c, 6, 72, 75
8, 1858, Note_off_c, 6, 72, 0
8, 1860, Note_on_c, 6, 70, 75
8, 1870, Note_off_c, 6, 70, 0
8, 1872, Note_on_c, 6, 72, 75
8, 1882, Note_off_c, 6, 72, 0
8, 1884, Note_on_c, 6, 70, 75
8, 1894, Note_off_c, 6, 70, 0
8, 1896, Note_on_c, 6, 72, 75
8, 1906, Note_off_c, 6, 72, 0
8, 1908, Note_on_c, 6, 70, 75
8, 1918, Note_off_c, 6, 70, 0
8, 1920, Note_on_c, 6, 69, 75
8, 1962, Note_off_c, 6, 69, 0
8, 1968, Note_on_c, 6, 67, 75
8, 2010, Note_off_c, 6, 67, 0
8, 2016, Note_on_c, 6, 72, 75
8, 2100, Note_off_c, 6, 72, 0
8, 2112, Note_on_c, 6, 70, 75
8, 2122, Note_off_c, 6, 70, 0
8, 2124, Note_on_c, 6, 69, 75
8, 2134, Note_off_c, 6, 69, 0
8, 2136, Note_on_c, 6, 70, 75
8, 2146, Note_off_c, 6, 70, 0
8, 2148, Note_on_c, 6, 69, 75
8, 2158, Note_off_c, 6, 69, 0
8, 2160, Note_on_c, 6, 70, 75
8, 2170, Note_off_c, 6, 70, 0
8, 2172, Note_on_c, 6, 69, 75
8, 2182, Note_off_c, 6, 69, 0
8, 2184, Note_on_c, 6, 70, 75
8, 2194, Note_off_c, 6, 70, 0
8, 2196, Note_on_c, 6, 69, 75
8, 2206, Note_off_c, 6, 69, 0
8, 2208, Note_on_c, 6, 70, 75
8, 2218, Note_off_c, 6, 70, 0
8, 2220, Note_on_c, 6, 69, 75
8, 2230, Note_off_c, 6, 69, 0
8, 2232, Note_on_c, 6, 70, 75
8, 2242, Note_off_c, 6, 70, 0
8, 2244, Note_on_c, 6, 69, 75
8, 2254, Note_off_c, 6, 69, 0
8, 2256, Note_on_c, 6, 70, 75
8, 2266, Note_off_c, 6, 70, 0
8, 2268, Note_on_c, 6, 69, 75
8, 2278, Note_off_c, 6, 69, 0
8, 2280, Note_on_c, 6, 70, 75
8, 2290, Note_off_c, 6, 70, 0
8, 2292, Note_on_c, 6, 69, 75
8, 2302, Note_off_c, 6, 69, 0
8, 2304, Note_on_c, 6, 67, 75
8, 2388, Note_off_c, 6, 67, 0
8, 2400, Note_on_c, 6, 71, 75
8, 2442, Note_off_c, 6, 71, 0
8, 2448, Note_on_c, 6, 72, 75
8, 2490, Note_off_c, 6, 72, 0
8, 2496, Note_on_c, 6, 74, 75
8, 2506, Note_off_c, 6, 74, 0
8, 2508, Note_on_c, 6, 72, 75
8, 2518, Note_off_c, 6, 72, 0
8, 2520, Note_on_c, 6, 74, 75
8, 2530, Note_off_c, 6, 74, 0
8, 2532, Note_on_c, 6, 72, 75
8, 2542, Note_off_c, 6, 72, 0
8, 2544, Note_on_c, 6, 74, 75
8, 2554, Note_off_c, 6, 74, 0
8, 2556, Note_on_c, 6, 72, 75
8, 2566, Note_off_c, 6, 72, 0
8, 2568, Note_on_c, 6, 74, 75
8, 2578, Note_off_c, 6, 74, 0
8, 2580, Note_on_c, 6, 72, 75
8, 2590, Note_off_c, 6, 72, 0
8, 2592, Note_on_c, 6, 74, 75
8, 2602, Note_off_c, 6, 74, 0
8, 2604, Note_on_c, 6, 72, 75
8, 2614, Note_off_c, 6, 72, 0
8, 2616, Note_on_c, 6, 74, 75
8, 2626, Note_off_c, 6, 74, 0
8, 2628, Note_on_c, 6, 72, 75
8, 2638, Note_off_c, 6, 72, 0
8, 2640, Note_on_c, 6, 71, 75
8, 2661, Note_off_c, 6, 71, 0
8, 2664, Note_on_c, 6, 72, 75
8, 2685, Note_off_c, 6, 72, 0
8, 2688, Note_on_c, 6, 74, 75
8, 2772, Note_off_c, 6, 74, 0
8, 2784, Note_on_c, 6, 72, 75
8, 2826, Note_off_c, 6, 72, 0
8, 2832, Note_on_c, 6, 71, 75
8, 2874, Note_off_c, 6, 71, 0
8, 2880, Note_on_c, 6, 72, 75
8, 2964, Note_off_c, 6, 72, 0
8, 2976, Note_on_c, 6, 77, 75
8, 3018, Note_off_c, 6, 77, 0
8, 3024, Note_on_c, 6, 79, 75
8, 3066, Note_off_c, 6, 79, 0
8, 3072, Note_on_c, 6, 74, 75
8, 3204, Note_off_c, 6, 74, 0
8, 3216, Note_on_c, 6, 72, 75
8, 3258, Note_off_c, 6, 72, 0
8, 3264, Note_on_c, 6, 72, 75
8, 3540, Note_off_c, 6, 72, 0
8, 3552, Note_on_c, 6, 72, 75
8, 3636, Note_off_c, 6, 72, 0
8, 3648, Note_on_c, 6, 75, 75
8, 3732, Note_off_c, 6, 75, 0
8, 3744, Note_on_c, 6, 74, 75
8, 3828, Note_off_c, 6, 74, 0
8, 3840, Note_on_c, 6, 72, 75
8, 3924, Note_off_c, 6, 72, 0
8, 3936, Note_on_c, 6, 70, 75
8, 3978, Note_off_c, 6, 70, 0
8, 3984, Note_on_c, 6, 69, 75
8, 4026, Note_off_c, 6, 69, 0
8, 4032, Note_on_c, 6, 70, 75
8, 4116, Note_off_c, 6, 70, 0
8, 4128, Note_on_c, 6, 72, 75
8, 4212, Note_off_c, 6, 72, 0
8, 4224, Note_on_c, 6, 75, 75
8, 4308, Note_off_c, 6, 75, 0
8, 4320, Note_on_c, 6, 74, 75
8, 4404, Note_off_c, 6, 74, 0
8, 4416, Note_on_c, 6, 74, 75
8, 4426, Note_off_c, 6, 74, 0
8, 4428, Note_on_c, 6, 72, 75
8, 4438, Note_off_c, 6, 72, 0
8, 4440, Note_on_c, 6, 74, 75
8, 4450, Note_off_c, 6, 74, 0
8, 4452, Note_on_c, 6, 72, 75
8, 4462, Note_off_c, 6, 72, 0
8, 4464, Note_on_c, 6, 74, 75
8, 4474, Note_off_c, 6, 74, 0
8, 4476, Note_on_c, 6, 72, 75
8, 4486, Note_off_c, 6, 72, 0
8, 4488, Note_on_c, 6, 74, 75
8, 4498, Note_off_c, 6, 74, 0
8, 4500, Note_on_c, 6, 72, 75
8, 4510, Note_off_c, 6, 72, 0
8, 4512, Note_on_c, 6, 74, 75
8, 4522, Note_off_c, 6, 74, 0
8, 4524, Note_on_c, 6, 72, 75
8, 4534, Note_off_c, 6, 72, 0
8, 4536, Note_on_c, 6, 74, 75
8, 4546, Note_off_c, 6, 74, 0
8, 4548, Note_on_c, 6, 72, 75
8, 4558, Note_off_c, 6, 72, 0
8, 4560, Note_on_c, 6, 74, 75
8, 4570, Note_off_c, 6, 74, 0
8, 4572, Note_on_c, 6, 72, 75
8, 4582, Note_off_c, 6, 72, 0
8, 4584, Note_on_c, 6, 74, 75
8, 4594, Note_off_c, 6, 74, 0
8, 4596, Note_on_c, 6, 72, 75
8, 4606, Note_off_c, 6, 72, 0
8, 4608, Note_on_c, 6, 77, 75
8, 4692, Note_off_c, 6, 77, 0
8, 4704, Note_on_c, 6, 70, 75
8, 4788, Note_off_c, 6, 70, 0
8, 4800, Note_on_c, 6, 67, 75
8, 4884, Note_off_c, 6, 67, 0
8, 4896, Note_on_c, 6, 69, 75
8, 4980, Note_off_c, 6, 69, 0
8, 4992, Note_on_c, 6, 70, 75
8, 5076, Note_off_c, 6, 70, 0
8, 5088, Note_on_c, 6, 74, 75
8, 5268, Note_off_c, 6, 74, 0
8, 5280, Note_on_c, 6, 72, 75
8, 5290, Note_off_c, 6, 72, 0
8, 5292, Note_on_c, 6, 70, 75
8, 5302, Note_off_c, 6, 70, 0
8, 5304, Note_on_c, 6, 72, 75
8, 5314, Note_off_c, 6, 72, 0
8, 5316, Note_on_c, 6, 70, 75
8, 5326, Note_off_c, 6, 70, 0
8, 5328, Note_on_c, 6, 72, 75
8, 5338, Note_off_c, 6, 72, 0
8, 5340, Note_on_c, 6, 70, 75
8, 5350, Note_off_c, 6, 70, 0
8, 5352, Note_on_c, 6, 72, 75
8, 5362, Note_off_c, 6, 72, 0
8, 5364, Note_on_c, 6, 70, 75
8, 5374, Note_off_c, 6, 70, 0
8, 5376, Note_on_c, 6, 69, 75
8, 5418, Note_off_c, 6, 69, 0
8, 5424, Note_on_c, 6, 67, 75
8, 5466, Note_off_c, 6, 67, 0
8, 5472, Note_on_c, 6, 72, 75
8, 5556, Note_off_c, 6, 72, 0
8, 5568, Note_on_c, 6, 70, 75
8, 5578, Note_off_c, 6, 70, 0
8, 5580, Note_on_c, 6, 69, 75
8, 5590, Note_off_c, 6, 69, 0
8, 5592, Note_on_c, 6, 70, 75
8, 5602, Note_off_c, 6, 70, 0
8, 5604, Note_on_c, 6, 69, 75
8, 5614, Note_off_c, 6, 69, 0
8, 5616, Note_on_c, 6, 70, 75
8, 5626, Note_off_c, 6, 70, 0
8, 5628, Note_on_c, 6, 69, 75
8, 5638, Note_off_c, 6, 69, 0
8, 5640, Note_on_c, 6, 70, 75
8, 5650, Note_off_c, 6, 70, 0
8, 5652, Note_on_c, 6, 69, 75
8, 5662, Note_off_c, 6, 69, 0
8, 5664, Note_on_c, 6, 70, 75
8, 5674, Note_off_c, 6, 70, 0
8, 5676, Note_on_c, 6, 69, 75
8, 5686, Note_off_c, 6, 69, 0
8, 5688, Note_on_c, 6, 70, 75
8, 5698, Note_off_c, 6, 70, 0
8, 5700, Note_on_c, 6, 69, 75
8, 5710, Note_off_c, 6, 69, 0
8, 5712, Note_on_c, 6, 70, 75
8, 5722, Note_off_c, 6, 70, 0
8, 5724, Note_on_c, 6, 69, 75
8, 5734, Note_off_c, 6, 69, 0
8, 5736, Note_on_c, 6, 70, 75
8, 5746, Note_off_c, 6, 70, 0
8, 5748, Note_on_c, 6, 69, 75
8, 5758, Note_off_c, 6, 69, 0
8, 5760, Note_on_c, 6, 67, 75
8, 5844, Note_off_c, 6, 67, 0
8, 5856, Note_on_c, 6, 71, 75
8, 5898, Note_off_c, 6, 71, 0
8, 5904, Note_on_c, 6, 72, 75
8, 5946, Note_off_c, 6, 72, 0
8, 5952, Note_on_c, 6, 74, 75
8, 5962, Note_off_c, 6, 74, 0
8, 5964, Note_on_c, 6, 72, 75
8, 5974, Note_off_c, 6, 72, 0
8, 5976, Note_on_c, 6, 74, 75
8, 5986, Note_off_c, 6, 74, 0
8, 5988, Note_on_c, 6, 72, 75
8, 5998, Note_off_c, 6, 72, 0
8, 6000, Note_on_c, 6, 74, 75
8, 6010, Note_off_c, 6, 74, 0
8, 6012, Note_on_c, 6, 72, 75
8, 6022, Note_off_c, 6, 72, 0
8, 6024, Note_on_c, 6, 74, 75
8, 6034, Note_off_c, 6, 74, 0
8, 6036, Note_on_c, 6, 72, 75
8, 6046, Note_off_c, 6, 72, 0
8, 6048, Note_on_c, 6, 74, 75
8, 6058, Note_off_c, 6, 74, 0
8, 6060, Note_on_c, 6, 72, 75
8, 6070, Note_off_c, 6, 72, 0
8, 6072, Note_on_c, 6, 74, 75
8, 6082, Note_off_c, 6, 74, 0
8, 6084, Note_on_c, 6, 72, 75
8, 6094, Note_off_c, 6, 72, 0
8, 6096, Note_on_c, 6, 71, 75
8, 6117, Note_off_c, 6, 71, 0
8, 6120, Note_on_c, 6, 72, 75
8, 6141, Note_off_c, 6, 72, 0
8, 6144, Note_on_c, 6, 74, 75
8, 6228, Note_off_c, 6, 74, 0
8, 6240, Note_on_c, 6, 72, 75
8, 6282, Note_off_c, 6, 72, 0
8, 6288, Note_on_c, 6, 71, 75
8, 6330, Note_off_c, 6, 71, 0
8, 6336, Note_on_c, 6, 72, 75
8, 6420, Note_off_c, 6, 72, 0
8, 6432, Note_on_c, 6, 77, 75
8, 6474, Note_off_c, 6, 77, 0
8, 6480, Note_on_c, 6, 79, 75
8, 6522, Note_off_c, 6, 79, 0
8, 6528, Note_on_c, 6, 74, 75
8, 6660, Note_off_c, 6, 74, 0
8, 6672, Note_on_c, 6, 72, 75
8, 6714, Note_off_c, 6, 72, 0
8, 6720, Note_on_c, 6, 72, 75
8, 6996, Note_off_c, 6, 72, 0
8, 7008, Note_on_c, 6, 79, 75
8, 7092, Note_off_c, 6, 79, 0
8, 7104, Note_on_c, 6, 82, 75
8, 7188, Note_off_c, 6, 82, 0
8, 7200, Note_on_c, 6, 81, 75
8, 7284, Note_off_c, 6, 81, 0
8, 7296, Note_on_c, 6, 81, 75
8, 7306, Note_off_c, 6, 81, 0
8, 7308, Note_on_c, 6, 79, 75
8, 7318, Note_off_c, 6, 79, 0
8, 7320, Note_on_c, 6, 81, 75
8, 7330, Note_off_c, 6, 81, 0
8, 7332, Note_on_c, 6, 79, 75
8, 7342, Note_off_c, 6, 79, 0
8, 7344, Note_on_c, 6, 81, 75
8, 7354, Note_off_c, 6, 81, 0
8, 7356, Note_on_c, 6, 79, 75
8, 7366, Note_off_c, 6, 79, 0
8, 7368, Note_on_c, 6, 81, 75
8, 7378, Note_off_c, 6, 81, 0
8, 7380, Note_on_c, 6, 79, 75
8, 7390, Note_off_c, 6, 79, 0
8, 7392, Note_on_c, 6, 77, 75
8, 7434, Note_off_c, 6, 77, 0
8, 7440, Note_on_c, 6, 76, 75
8, 7482, Note_off_c, 6, 76, 0
8, 7488, Note_on_c, 6, 77, 75
8, 7572, Note_off_c, 6, 77, 0
8, 7584, Note_on_c, 6, 79, 75
8, 7668, Note_off_c, 6, 79, 0
8, 7680, Note_on_c, 6, 82, 75
8, 7764, Note_off_c, 6, 82, 0
8, 7776, Note_on_c, 6, 81, 75
8, 7860, Note_off_c, 6, 81, 0
8, 7872, Note_on_c, 6, 81, 75
8, 7882, Note_off_c, 6, 81, 0
8, 7884, Note_on_c, 6, 79, 75
8, 7894, Note_off_c, 6, 79, 0
8, 7896, Note_on_c, 6, 81, 75
8, 7906, Note_off_c, 6, 81, 0
8, 7908, Note_on_c, 6, 79, 75
8, 7918, Note_off_c, 6, 79, 0
8, 7920, Note_on_c, 6, 81, 75
8, 7930, Note_off_c, 6, 81, 0
8, 7932, Note_on_c, 6, 79, 75
8, 7942, Note_off_c, 6, 79, 0
8, 7944, Note_on_c, 6, 81, 75
8, 7954, Note_off_c, 6, 81, 0
8, 7956, Note_on_c, 6, 79, 75
8, 7966, Note_off_c, 6, 79, 0
8, 7968, Note_on_c, 6, 81, 75
8, 7978, Note_off_c, 6, 81, 0
8, 7980, Note_on_c, 6, 79, 75
8, 7990, Note_off_c, 6, 79, 0
8, 7992, Note_on_c, 6, 81, 75
8, 8002, Note_off_c, 6, 81, 0
8, 8004, Note_on_c, 6, 79, 75
8, 8014, Note_off_c, 6, 79, 0
8, 8016, Note_on_c, 6, 81, 75
8, 8026, Note_off_c, 6, 81, 0
8, 8028, Note_on_c, 6, 79, 75
8, 8038, Note_off_c, 6, 79, 0
8, 8040, Note_on_c, 6, 81, 75
8, 8050, Note_off_c, 6, 81, 0
8, 8052, Note_on_c, 6, 79, 75
8, 8062, Note_off_c, 6, 79, 0
8, 8064, Note_on_c, 6, 84, 75
8, 8148, Note_off_c, 6, 84, 0
8, 8160, Note_on_c, 6, 77, 75
8, 8244, Note_off_c, 6, 77, 0
8, 8256, Note_on_c, 6, 74, 75
8, 8340, Note_off_c, 6, 74, 0
8, 8352, Note_on_c, 6, 76, 75
8, 8436, Note_off_c, 6, 76, 0
8, 8448, Note_on_c, 6, 77, 75
8, 8532, Note_off_c, 6, 77, 0
8, 8544, Note_on_c, 6, 81, 75
8, 8724, Note_off_c, 6, 81, 0
8, 8736, Note_on_c, 6, 77, 75
8, 8820, Note_off_c, 6, 77, 0
8, 8832, Note_on_c, 6, 76, 75
8, 8874, Note_off_c, 6, 76, 0
8, 8880, Note_on_c, 6, 74, 75
8, 8922, Note_off_c, 6, 74, 0
8, 8928, Note_on_c, 6, 79, 75
8, 9012, Note_off_c, 6, 79, 0
8, 9024, Note_on_c, 6, 76, 75
8, 9156, Note_off_c, 6, 76, 0
8, 9168, Note_on_c, 6, 77, 75
8, 9210, Note_off_c, 6, 77, 0
8, 9216, Note_on_c, 6, 79, 75
8, 9226, Note_off_c, 6, 79, 0
8, 9228, Note_on_c, 6, 77, 75
8, 9238, Note_off_c, 6, 77, 0
8, 9240, Note_on_c, 6, 79, 75
8, 9250, Note_off_c, 6, 79, 0
8, 9252, Note_on_c, 6, 77, 75
8, 9262, Note_off_c, 6, 77, 0
8, 9264, Note_on_c, 6, 79, 75
8, 9274, Note_off_c, 6, 79, 0
8, 9276, Note_on_c, 6, 77, 75
8, 9286, Note_off_c, 6, 77, 0
8, 9288, Note_on_c, 6, 76, 75
8, 9298, Note_off_c, 6, 76, 0
8, 9300, Note_on_c, 6, 77, 75
8, 9310, Note_off_c, 6, 77, 0
8, 9312, Note_on_c, 6, 79, 75
8, 9354, Note_off_c, 6, 79, 0
8, 9360, Note_on_c, 6, 81, 75
8, 9402, Note_off_c, 6, 81, 0
8, 9408, Note_on_c, 6, 82, 75
8, 9418, Note_off_c, 6, 82, 0
8, 9420, Note_on_c, 6, 81, 75
8, 9430, Note_off_c, 6, 81, 0
8, 9432, Note_on_c, 6, 82, 75
8, 9442, Note_off_c, 6, 82, 0
8, 9444, Note_on_c, 6, 81, 75
8, 9454, Note_off_c, 6, 81, 0
8, 9456, Note_on_c, 6, 82, 75
8, 9466, Note_off_c, 6, 82, 0
8, 9468, Note_on_c, 6, 81, 75
8, 9478, Note_off_c, 6, 81, 0
8, 9480, Note_on_c, 6, 82, 75
8, 9490, Note_off_c, 6, 82, 0
8, 9492, Note_on_c, 6, 81, 75
8, 9502, Note_off_c, 6, 81, 0
8, 9504, Note_on_c, 6, 82, 75
8, 9514, Note_off_c, 6, 82, 0
8, 9516, Note_on_c, 6, 81, 75
8, 9526, Note_off_c, 6, 81, 0
8, 9528, Note_on_c, 6, 82, 75
8, 9538, Note_off_c, 6, 82, 0
8, 9540, Note_on_c, 6, 81, 75
8, 9550, Note_off_c, 6, 81, 0
8, 9552, Note_on_c, 6, 79, 75
8, 9573, Note_off_c, 6, 79, 0
8, 9576, Note_on_c, 6, 81, 75
8, 9597, Note_off_c, 6, 81, 0
8, 9600, Note_on_c, 6, 82, 75
8, 9684, Note_off_c, 6, 82, 0
8, 9696, Note_on_c, 6, 81, 75
8, 9738, Note_off_c, 6, 81, 0
8, 9744, Note_on_c, 6, 79, 75
8, 9786, Note_off_c, 6, 79, 0
8, 9792, Note_on_c, 6, 84, 75
8, 9876, Note_off_c, 6, 84, 0
8, 9888, Note_on_c, 6, 77, 75
8, 9930, Note_off_c, 6, 77, 0
8, 9936, Note_on_c, 6, 79, 75
8, 9978, Note_off_c, 6, 79, 0
8, 9984, Note_on_c, 6, 76, 75
8, 10116, Note_off_c, 6, 76, 0
8, 10128, Note_on_c, 6, 77, 75
8, 10170, Note_off_c, 6, 77, 0
8, 10176, Note_on_c, 6, 77, 75
8, 10452, Note_off_c, 6, 77, 0
8, 10464, Note_on_c, 6, 79, 75
8, 10548, Note_off_c, 6, 79, 0
8, 10560, Note_on_c, 6, 82, 75
8, 10644, Note_off_c, 6, 82, 0
8, 10656, Note_on_c, 6, 81, 75
8, 10740, Note_off_c, 6, 81, 0
8, 10752, Note_on_c, 6, 81, 75
8, 10762, Note_off_c, 6, 81, 0
8, 10764, Note_on_c, 6, 79, 75
8, 10774, Note_off_c, 6, 79, 0
8, 10776, Note_on_c, 6, 81, 75
8, 10786, Note_off_c, 6, 81, 0
8, 10788, Note_on_c, 6, 79, 75
8, 10798, Note_off_c, 6, 79, 0
8, 10800, Note_on_c, 6, 81, 75
8, 10810, Note_off_c, 6, 81, 0
8, 10812, Note_on_c, 6, 79, 75
8, 10822, Note_off_c, 6, 79, 0
8, 10824, Note_on_c, 6, 81, 75
8, 10834, Note_off_c, 6, 81, 0
8, 10836, Note_on_c, 6, 79, 75
8, 10846, Note_off_c, 6, 79, 0
8, 10848, Note_on_c, 6, 77, 75
8, 10890, Note_off_c, 6, 77, 0
8, 10896, Note_on_c, 6, 76, 75
8, 10938, Note_off_c, 6, 76, 0
8, 10944, Note_on_c, 6, 77, 75
8, 11028, Note_off_c, 6, 77, 0
8, 11040, Note_on_c, 6, 79, 75
8, 11124, Note_off_c, 6, 79, 0
8, 11136, Note_on_c, 6, 82, 75
8, 11220, Note_off_c, 6, 82, 0
8, 11232, Note_on_c, 6, 81, 75
8, 11316, Note_off_c, 6, 81, 0
8, 11328, Note_on_c, 6, 81, 75
8, 11338, Note_off_c, 6, 81, 0
8, 11340, Note_on_c, 6, 79, 75
8, 11350, Note_off_c, 6, 79, 0
8, 11352, Note_on_c, 6, 81, 75
8, 11362, Note_off_c, 6, 81, 0
8, 11364, Note_on_c, 6, 79, 75
8, 11374, Note_off_c, 6, 79, 0
8, 11376, Note_on_c, 6, 81, 75
8, 11386, Note_off_c, 6, 81, 0
8, 11388, Note_on_c, 6, 79, 75
8, 11398, Note_off_c, 6, 79, 0
8, 11400, Note_on_c, 6, 81, 75
8, 11410, Note_off_c, 6, 81, 0
8, 11412, Note_on_c, 6, 79, 75
8, 11422, Note_off_c, 6, 79, 0
8, 11424, Note_on_c, 6, 81, 75
8, 11434, Note_off_c, 6, 81, 0
8, 11436, Note_on_c, 6, 79, 75
8, 11446, Note_off_c, 6, 79, 0
8, 11448, Note_on_c, 6, 81, 75
8, 11458, Note_off_c, 6, 81, 0
8, 11460, Note_on_c, 6, 79, 75
8, 11470, Note_off_c, 6, 79, 0
8, 11472, Note_on_c, 6, 81, 75
8, 11482, Note_off_c, 6, 81, 0
8, 11484, Note_on_c, 6, 79, 75
8, 11494, Note_off_c, 6, 79, 0
8, 11496, Note_on_c, 6, 81, 75
8, 11506, Note_off_c, 6, 81, 0
8, 11508, Note_on_c, 6, 79, 75
8, 11518, Note_off_c, 6, 79, 0
8, 11520, Note_on_c, 6, 84, 75
8, 11604, Note_off_c, 6, 84, 0
8, 11616, Note_on_c, 6, 77, 75
8, 11700, Note_off_c, 6, 77, 0
8, 11712, Note_on_c, 6, 74, 75
8, 11796, Note_off_c, 6, 74, 0
8, 11808, Note_on_c, 6, 76, 75
8, 11892, Note_off_c, 6, 76, 0
8, 11904, Note_on_c, 6, 77, 75
8, 11988, Note_off_c, 6, 77, 0
8, 12000, Note_on_c, 6, 81, 75
8, 12180, Note_off_c, 6, 81, 0
8, 12192, Note_on_c, 6, 77, 75
8, 12276, Note_off_c, 6, 77, 0
8, 12288, Note_on_c, 6, 76, 75
8, 12330, Note_off_c, 6, 76, 0
8, 12336, Note_on_c, 6, 74, 75
8, 12378, Note_off_c, 6, 74, 0
8, 12384, Note_on_c, 6, 79, 75
8, 12468, Note_off_c, 6, 79, 0
8, 12480, Note_on_c, 6, 76, 75
8, 12612, Note_off_c, 6, 76, 0
8, 12624, Note_on_c, 6, 77, 75
8, 12666, Note_off_c, 6, 77, 0
8, 12672, Note_on_c, 6, 79, 75
8, 12682, Note_off_c, 6, 79, 0
8, 12684, Note_on_c, 6, 77, 75
8, 12694, Note_off_c, 6, 77, 0
8, 12696, Note_on_c, 6, 79, 75
8, 12706, Note_off_c, 6, 79, 0
8, 12708, Note_on_c, 6, 77, 75
8, 12718, Note_off_c, 6, 77, 0
8, 12720, Note_on_c, 6, 79, 75
8, 12730, Note_off_c, 6, 79, 0
8, 12732, Note_on_c, 6, 77, 75
8, 12742, Note_off_c, 6, 77, 0
8, 12744, Note_on_c, 6, 76, 75
8, 12754, Note_off_c, 6, 76, 0
8, 12756, Note_on_c, 6, 77, 75
8, 12766, Note_off_c, 6, 77, 0
8, 12768, Note_on_c, 6, 79, 75
8, 12810, Note_off_c, 6, 79, 0
8, 12816, Note_on_c, 6, 81, 75
8, 12858, Note_off_c, 6, 81, 0
8, 12864, Note_on_c, 6, 82, 75
8, 12874, Note_off_c, 6, 82, 0
8, 12876, Note_on_c, 6, 81, 75
8, 12886, Note_off_c, 6, 81, 0
8, 12888, Note_on_c, 6, 82, 75
8, 12898, Note_off_c, 6, 82, 0
8, 12900, Note_on_c, 6, 81, 75
8, 12910, Note_off_c, 6, 81, 0
8, 12912, Note_on_c, 6, 82, 75
8, 12922, Note_off_c, 6, 82, 0
8, 12924, Note_on_c, 6, 81, 75
8, 12934, Note_off_c, 6, 81, 0
8, 12936, Note_on_c, 6, 82, 75
8, 12946, Note_off_c, 6, 82, 0
8, 12948, Note_on_c, 6, 81, 75
8, 12958, Note_off_c, 6, 81, 0
8, 12960, Note_on_c, 6, 82, 75
8, 12970, Note_off_c, 6, 82, 0
8, 12972, Note_on_c, 6, 81, 75
8, 12982, Note_off_c, 6, 81, 0
8, 12984, Note_on_c, 6, 82, 75
8, 12994, Note_off_c, 6, 82, 0
8, 12996, Note_on_c, 6, 81, 75
8, 13006, Note_off_c, 6, 81, 0
8, 13008, Note_on_c, 6, 79, 75
8, 13029, Note_off_c, 6, 79, 0
8, 13032, Note_on_c, 6, 81, 75
8, 13053, Note_off_c, 6, 81, 0
8, 13056, Note_on_c, 6, 82, 75
8, 13140, Note_off_c, 6, 82, 0
8, 13152, Note_on_c, 6, 81, 75
8, 13194, Note_off_c, 6, 81, 0
8, 13200, Note_on_c, 6, 79, 75
8, 13242, Note_off_c, 6, 79, 0
8, 13248, Note_on_c, 6, 84, 75
8, 13332, Note_off_c, 6, 84, 0
8, 13344, Note_on_c, 6, 77, 75
8, 13386, Note_off_c, 6, 77, 0
8, 13392, Note_on_c, 6, 79, 75
8, 13434, Note_off_c, 6, 79, 0
8, 13440, Note_on_c, 6, 76, 75
8, 13572, Note_off_c, 6, 76, 0
8, 13584, Note_on_c, 6, 77, 75
8, 13626, Note_off_c, 6, 77, 0
8, 13632, Note_on_c, 6, 77, 75
8, 13908, Note_off_c, 6, 77, 0
8, 14112, Time_signature, 2, 2, 96, 8
8, 14208, Tempo, 500000
8, 17280, Tempo, 500000
8, 26784, Time_signature, 3, 2, 96, 8
8, 26880, Tempo, 428571
8, 26880, Note_on_c, 6, 72, 75
8, 26964, Note_off_c, 6, 72, 0
8, 26976, Note_on_c, 6, 75, 75
8, 27060, Note_off_c, 6, 75, 0
8, 27072, Note_on_c, 6, 74, 75
8, 27156, Note_off_c, 6, 74, 0
8, 27168, Note_on_c, 6, 72, 75
8, 27252, Note_off_c, 6, 72, 0
8, 27264, Note_on_c, 6, 70, 75
8, 27306, Note_off_c, 6, 70, 0
8, 27312, Note_on_c, 6, 69, 75
8, 27354, Note_off_c, 6, 69, 0
8, 27360, Note_on_c, 6, 70, 75
8, 27444, Note_off_c, 6, 70, 0
8, 27456, Note_on_c, 6, 72, 75
8, 27540, Note_off_c, 6, 72, 0
8, 27552, Note_on_c, 6, 75, 75
8, 27636, Note_off_c, 6, 75, 0
8, 27648, Note_on_c, 6, 74, 75
8, 27732, Note_off_c, 6, 74, 0
8, 27744, Note_on_c, 6, 74, 75
8, 27754, Note_off_c, 6, 74, 0
8, 27756, Note_on_c, 6, 72, 75
8, 27766, Note_off_c, 6, 72, 0
8, 27768, Note_on_c, 6, 74, 75
8, 27778, Note_off_c, 6, 74, 0
8, 27780, Note_on_c, 6, 72, 75
8, 27790, Note_off_c, 6, 72, 0
8, 27792, Note_on_c, 6, 74, 75
8, 27802, Note_off_c, 6, 74, 0
8, 27804, Note_on_c, 6, 72, 75
8, 27814, Note_off_c, 6, 72, 0
8, 27816, Note_on_c, 6, 74, 75
8, 27826, Note_off_c, 6, 74, 0
8, 27828, Note_on_c, 6, 72, 75
8, 27838, Note_off_c, 6, 72, 0
8, 27840, Note_on_c, 6, 74, 75
8, 27850, Note_off_c, 6, 74, 0
8, 27852, Note_on_c, 6, 72, 75
8, 27862, Note_off_c, 6, 72, 0
8, 27864, Note_on_c, 6, 74, 75
8, 27874, Note_off_c, 6, 74, 0
8, 27876, Note_on_c, 6, 72, 75
8, 27886, Note_off_c, 6, 72, 0
8, 27888, Note_on_c, 6, 74, 75
8, 27898, Note_off_c, 6, 74, 0
8, 27900, Note_on_c, 6, 72, 75
8, 27910, Note_off_c, 6, 72, 0
8, 27912, Note_on_c, 6, 74, 75
8, 27922, Note_off_c, 6, 74, 0
8, 27924, Note_on_c, 6, 72, 75
8, 27934, Note_off_c, 6, 72, 0
8, 27936, Note_on_c, 6, 77, 75
8, 28020, Note_off_c, 6, 77, 0
8, 28032, Note_on_c, 6, 70, 75
8, 28116, Note_off_c, 6, 70, 0
8, 28128, Note_on_c, 6, 67, 75
8, 28212, Note_off_c, 6, 67, 0
8, 28224, Note_on_c, 6, 69, 75
8, 28308, Note_off_c, 6, 69, 0
8, 28320, Note_on_c, 6, 70, 75
8, 28404, Note_off_c, 6, 70, 0
8, 28416, Note_on_c, 6, 74, 75
8, 28596, Note_off_c, 6, 74, 0
8, 28608, Note_on_c, 6, 72, 75
8, 28618, Note_off_c, 6, 72, 0
8, 28620, Note_on_c, 6, 70, 75
8, 28630, Note_off_c, 6, 70, 0
8, 28632, Note_on_c, 6, 72, 75
8, 28642, Note_off_c, 6, 72, 0
8, 28644, Note_on_c, 6, 70, 75
8, 28654, Note_off_c, 6, 70, 0
8, 28656, Note_on_c, 6, 72, 75
8, 28666, Note_off_c, 6, 72, 0
8, 28668, Note_on_c, 6, 70, 75
8, 28678, Note_off_c, 6, 70, 0
8, 28680, Note_on_c, 6, 72, 75
8, 28690, Note_off_c, 6, 72, 0
8, 28692, Note_on_c, 6, 70, 75
8, 28702, Note_off_c, 6, 70, 0
8, 28704, Note_on_c, 6, 69, 75
8, 28746, Note_off_c, 6, 69, 0
8, 28752, Note_on_c, 6, 67, 75
8, 28794, Note_off_c, 6, 67, 0
8, 28800, Note_on_c, 6, 72, 75
8, 28884, Note_off_c, 6, 72, 0
8, 28896, Note_on_c, 6, 70, 75
8, 28906, Note_off_c, 6, 70, 0
8, 28908, Note_on_c, 6, 69, 75
8, 28918, Note_off_c, 6, 69, 0
8, 28920, Note_on_c, 6, 70, 75
8, 28930, Note_off_c, 6, 70, 0
8, 28932, Note_on_c, 6, 69, 75
8, 28942, Note_off_c, 6, 69, 0
8, 28944, Note_on_c, 6, 70, 75
8, 28954, Note_off_c, 6, 70, 0
8, 28956, Note_on_c, 6, 69, 75
8, 28966, Note_off_c, 6, 69, 0
8, 28968, Note_on_c, 6, 70, 75
8, 28978, Note_off_c, 6, 70, 0
8, 28980, Note_on_c, 6, 69, 75
8, 28990, Note_off_c, 6, 69, 0
8, 28992, Note_on_c, 6, 70, 75
8, 29002, Note_off_c, 6, 70, 0
8, 29004, Note_on_c, 6, 69, 75
8, 29014, Note_off_c, 6, 69, 0
8, 29016, Note_on_c, 6, 70, 75
8, 29026, Note_off_c, 6, 70, 0
8, 29028, Note_on_c, 6, 69, 75
8, 29038, Note_off_c, 6, 69, 0
8, 29040, Note_on_c, 6, 70, 75
8, 29050, Note_off_c, 6, 70, 0
8, 29052, Note_on_c, 6, 69, 75
8, 29062, Note_off_c, 6, 69, 0
8, 29064, Note_on_c, 6, 70, 75
8, 29074, Note_off_c, 6, 70, 0
8, 29076, Note_on_c, 6, 69, 75
8, 29086, Note_off_c, 6, 69, 0
8, 29088, Note_on_c, 6, 67, 75
8, 29172, Note_off_c, 6, 67, 0
8, 29184, Note_on_c, 6, 71, 75
8, 29226, Note_off_c, 6, 71, 0
8, 29232, Note_on_c, 6, 72, 75
8, 29274, Note_off_c, 6, 72, 0
8, 29280, Note_on_c, 6, 74, 75
8, 29290, Note_off_c, 6, 74, 0
8, 29292, Note_on_c, 6, 72, 75
8, 29302, Note_off_c, 6, 72, 0
8, 29304, Note_on_c, 6, 74, 75
8, 29314, Note_off_c, 6, 74, 0
8, 29316, Note_on_c, 6, 72, 75
8, 29326, Note_off_c, 6, 72, 0
8, 29328, Note_on_c, 6, 74, 75
8, 29338, Note_off_c, 6, 74, 0
8, 29340, Note_on_c, 6, 72, 75
8, 29350, Note_off_c, 6, 72, 0
8, 29352, Note_on_c, 6, 74, 75
8, 29362, Note_off_c, 6, 74, 0
8, 29364, Note_on_c, 6, 72, 75
8, 29374, Note_off_c, 6, 72, 0
8, 29376, Note_on_c, 6, 74, 75
8, 29386, Note_off_c, 6, 74, 0
8, 29388, Note_on_c, 6, 72, 75
8, 29398, Note_off_c, 6, 72, 0
8, 29400, Note_on_c, 6, 74, 75
8, 29410, Note_off_c, 6, 74, 0
8, 29412, Note_on_c, 6, 72, 75
8, 29422, Note_off_c, 6, 72, 0
8, 29424, Note_on_c, 6, 71, 75
8, 29445, Note_off_c, 6, 71, 0
8, 29448, Note_on_c, 6, 72, 75
8, 29469, Note_off_c, 6, 72, 0
8, 29472, Note_on_c, 6, 74, 75
8, 29556, Note_off_c, 6, 74, 0
8, 29568, Note_on_c, 6, 72, 75
8, 29610, Note_off_c, 6, 72, 0
8, 29616, Note_on_c, 6, 71, 75
8, 29658, Note_off_c, 6, 71, 0
8, 29664, Note_on_c, 6, 72, 75
8, 29748, Note_off_c, 6, 72, 0
8, 29760, Note_on_c, 6, 77, 75
8, 29802, Note_off_c, 6, 77, 0
8, 29808, Note_on_c, 6, 79, 75
8, 29850, Note_off_c, 6, 79, 0
8, 29856, Note_on_c, 6, 74, 75
8, 29988, Note_off_c, 6, 74, 0
8, 30000, Note_on_c, 6, 72, 75
8, 30042, Note_off_c, 6, 72, 0
8, 30048, Note_on_c, 6, 72, 75
8, 30324, Note_off_c, 6, 72, 0
8, 30336, Note_on_c, 6, 72, 75
8, 30420, Note_off_c, 6, 72, 0
8, 30432, Note_on_c, 6, 75, 75
8, 30516, Note_off_c, 6, 75, 0
8, 30528, Note_on_c, 6, 74, 75
8, 30612, Note_off_c, 6, 74, 0
8, 30624, Note_on_c, 6, 72, 75
8, 30708, Note_off_c, 6, 72, 0
8, 30720, Note_on_c, 6, 70, 75
8, 30762, Note_off_c, 6, 70, 0
8, 30768, Note_on_c, 6, 69, 75
8, 30810, Note_off_c, 6, 69, 0
8, 30816, Note_on_c, 6, 70, 75
8, 30900, Note_off_c, 6, 70, 0
8, 30912, Note_on_c, 6, 72, 75
8, 30996, Note_off_c, 6, 72, 0
8, 31008, Note_on_c, 6, 75, 75
8, 31092, Note_off_c, 6, 75, 0
8, 31104, Note_on_c, 6, 74, 75
8, 31188, Note_off_c, 6, 74, 0
8, 31200, Note_on_c, 6, 74, 75
8, 31210, Note_off_c, 6, 74, 0
8, 31212, Note_on_c, 6, 72, 75
8, 31222, Note_off_c, 6, 72, 0
8, 31224, Note_on_c, 6, 74, 75
8, 31234, Note_off_c, 6, 74, 0
8, 31236, Note_on_c, 6, 72, 75
8, 31246, Note_off_c, 6, 72, 0
8, 31248, Note_on_c, 6, 74, 75
8, 31258, Note_off_c, 6, 74, 0
8, 31260, Note_on_c, 6, 72, 75
8, 31270, Note_off_c, 6, 72, 0
8, 31272, Note_on_c, 6, 74, 75
8, 31282, Note_off_c, 6, 74, 0
8, 31284, Note_on_c, 6, 72, 75
8, 31294, Note_off_c, 6, 72, 0
8, 31296, Note_on_c, 6, 74, 75
8, 31306, Note_off_c, 6, 74, 0
8, 31308, Note_on_c, 6, 72, 75
8, 31318, Note_off_c, 6, 72, 0
8, 31320, Note_on_c, 6, 74, 75
8, 31330, Note_off_c, 6, 74, 0
8, 31332, Note_on_c, 6, 72, 75
8, 31342, Note_off_c, 6, 72, 0
8, 31344, Note_on_c, 6, 74, 75
8, 31354, Note_off_c, 6, 74, 0
8, 31356, Note_on_c, 6, 72, 75
8, 31366, Note_off_c, 6, 72, 0
8, 31368, Note_on_c, 6, 74, 75
8, 31378, Note_off_c, 6, 74, 0
8, 31380, Note_on_c, 6, 72, 75
8, 31390, Note_off_c, 6, 72, 0
8, 31392, Note_on_c, 6, 77, 75
8, 31476, Note_off_c, 6, 77, 0
8, 31488, Note_on_c, 6, 70, 75
8, 31572, Note_off_c, 6, 70, 0
8, 31584, Note_on_c, 6, 67, 75
8, 31668, Note_off_c, 6, 67, 0
8, 31680, Note_on_c, 6, 69, 75
8, 31764, Note_off_c, 6, 69, 0
8, 31776, Note_on_c, 6, 70, 75
8, 31860, Note_off_c, 6, 70, 0
8, 31872, Note_on_c, 6, 74, 75
8, 32052, Note_off_c, 6, 74, 0
8, 32064, Note_on_c, 6, 72, 75
8, 32074, Note_off_c, 6, 72, 0
8, 32076, Note_on_c, 6, 70, 75
8, 32086, Note_off_c, 6, 70, 0
8, 32088, Note_on_c, 6, 72, 75
8, 32098, Note_off_c, 6, 72, 0
8, 32100, Note_on_c, 6, 70, 75
8, 32110, Note_off_c, 6, 70, 0
8, 32112, Note_on_c, 6, 72, 75
8, 32122, Note_off_c, 6, 72, 0
8, 32124, Note_on_c, 6, 70, 75
8, 32134, Note_off_c, 6, 70, 0
8, 32136, Note_on_c, 6, 72, 75
8, 32146, Note_off_c, 6, 72, 0
8, 32148, Note_on_c, 6, 70, 75
8, 32158, Note_off_c, 6, 70, 0
8, 32160, Note_on_c, 6, 69, 75
8, 32202, Note_off_c, 6, 69, 0
8, 32208, Note_on_c, 6, 67, 75
8, 32250, Note_off_c, 6, 67, 0
8, 32256, Note_on_c, 6, 72, 75
8, 32340, Note_off_c, 6, 72, 0
8, 32352, Note_on_c, 6, 70, 75
8, 32362, Note_off_c, 6, 70, 0
8, 32364, Note_on_c, 6, 69, 75
8, 32374, Note_off_c, 6, 69, 0
8, 32376, Note_on_c, 6, 70, 75
8, 32386, Note_off_c, 6, 70, 0
8, 32388, Note_on_c, 6, 69, 75
8, 32398, Note_off_c, 6, 69, 0
8, 32400, Note_on_c, 6, 70, 75
8, 32410, Note_off_c, 6, 70, 0
8, 32412, Note_on_c, 6, 69, 75
8, 32422, Note_off_c, 6, 69, 0
8, 32424, Note_on_c, 6, 70, 75
8, 32434, Note_off_c, 6, 70, 0
8, 32436, Note_on_c, 6, 69, 75
8, 32446, Note_off_c, 6, 69, 0
8, 32448, Note_on_c, 6, 70, 75
8, 32458, Note_off_c, 6, 70, 0
8, 32460, Note_on_c, 6, 69, 75
8, 32470, Note_off_c, 6, 69, 0
8, 32472, Note_on_c, 6, 70, 75
8, 32482, Note_off_c, 6, 70, 0
8, 32484, Note_on_c, 6, 69, 75
8, 32494, Note_off_c, 6, 69, 0
8, 32496, Note_on_c, 6, 70, 75
8, 32506, Note_off_c, 6, 70, 0
8, 32508, Note_on_c, 6, 69, 75
8, 32518, Note_off_c, 6, 69, 0
8, 32520, Note_on_c, 6, 70, 75
8, 32530, Note_off_c, 6, 70, 0
8, 32532, Note_on_c, 6, 69, 75
8, 32542, Note_off_c, 6, 69, 0
8, 32544, Note_on_c, 6, 67, 75
8, 32628, Note_off_c, 6, 67, 0
8, 32640, Note_on_c, 6, 71, 75
8, 32682, Note_off_c, 6, 71, 0
8, 32688, Note_on_c, 6, 72, 75
8, 32730, Note_off_c, 6, 72, 0
8, 32736, Note_on_c, 6, 74, 75
8, 32746, Note_off_c, 6, 74, 0
8, 32748, Note_on_c, 6, 72, 75
8, 32758, Note_off_c, 6, 72, 0
8, 32760, Note_on_c, 6, 74, 75
8, 32770, Note_off_c, 6, 74, 0
8, 32772, Note_on_c, 6, 72, 75
8, 32782, Note_off_c, 6, 72, 0
8, 32784, Note_on_c, 6, 74, 75
8, 32794, Note_off_c, 6, 74, 0
8, 32796, Note_on_c, 6, 72, 75
8, 32806, Note_off_c, 6, 72, 0
8, 32808, Note_on_c, 6, 74, 75
8, 32818, Note_off_c, 6, 74, 0
8, 32820, Note_on_c, 6, 72, 75
8, 32830, Note_off_c, 6, 72, 0
8, 32832, Note_on_c, 6, 74, 75
8, 32842, Note_off_c, 6, 74, 0
8, 32844, Note_on_c, 6, 72, 75
8, 32854, Note_off_c, 6, 72, 0
8, 32856, Note_on_c, 6, 74, 75
8, 32866, Note_off_c, 6, 74, 0
8, 32868, Note_on_c, 6, 72, 75
8, 32878, Note_off_c, 6, 72, 0
8, 32880, Note_on_c, 6, 71, 75
8, 32901, Note_off_c, 6, 71, 0
8, 32904, Note_on_c, 6, 72, 75
8, 32925, Note_off_c, 6, 72, 0
8, 32928, Note_on_c, 6, 74, 75
8, 33012, Note_off_c, 6, 74, 0
8, 33024, Note_on_c, 6, 72, 75
8, 33066, Note_off_c, 6, 72, 0
8, 33072, Note_on_c, 6, 71, 75
8, 33114, Note_off_c, 6, 71, 0
8, 33120, Note_on_c, 6, 72, 75
8, 33204, Note_off_c, 6, 72, 0
8, 33216, Note_on_c, 6, 77, 75
8, 33258, Note_off_c, 6, 77, 0
8, 33264, Note_on_c, 6, 79, 75
8, 33306, Note_off_c, 6, 79, 0
8, 33312, Note_on_c, 6, 74, 75
8, 33444, Note_off_c, 6, 74, 0
8, 33456, Note_on_c, 6, 72, 75
8, 33498, Note_off_c, 6, 72, 0
8, 33504, Note_on_c, 6, 72, 75
8, 33780, Note_off_c, 6, 72, 0
8, 33792, Note_on_c, 6, 79, 75
8, 33876, Note_off_c, 6, 79, 0
8, 33888, Note_on_c, 6, 82, 75
8, 33972, Note_off_c, 6, 82, 0
8, 33984, Note_on_c, 6, 81, 75
8, 34068, Note_off_c, 6, 81, 0
8, 34080, Note_on_c, 6, 81, 75
8, 34090, Note_off_c, 6, 81, 0
8, 34092, Note_on_c, 6, 79, 75
8, 34102, Note_off_c, 6, 79, 0
8, 34104, Note_on_c, 6, 81, 75
8, 34114, Note_off_c, 6, 81, 0
8, 34116, Note_on_c, 6, 79, 75
8, 34126, Note_off_c, 6, 79, 0
8, 34128, Note_on_c, 6, 81, 75
8, 34138, Note_off_c, 6, 81, 0
8, 34140, Note_on_c, 6, 79, 75
8, 34150, Note_off_c, 6, 79, 0
8, 34152, Note_on_c, 6, 81, 75
8, 34162, Note_off_c, 6, 81, 0
8, 34164, Note_on_c, 6, 79, 75
8, 34174, Note_off_c, 6, 79, 0
8, 34176, Note_on_c, 6, 77, 75
8, 34218, Note_off_c, 6, 77, 0
8, 34224, Note_on_c, 6, 76, 75
8, 34266, Note_off_c, 6, 76, 0
8, 34272, Note_on_c, 6, 77, 75
8, 34356, Note_off_c, 6, 77, 0
8, 34368, Note_on_c, 6, 79, 75
8, 34452, Note_off_c, 6, 79, 0
8, 34464, Note_on_c, 6, 82, 75
8, 34548, Note_off_c, 6, 82, 0
8, 34560, Note_on_c, 6, 81, 75
8, 34644, Note_off_c, 6, 81, 0
8, 34656, Note_on_c, 6, 81, 75
8, 34666, Note_off_c, 6, 81, 0
8, 34668, Note_on_c, 6, 79, 75
8, 34678, Note_off_c, 6, 79, 0
8, 34680, Note_on_c, 6, 81, 75
8, 34690, Note_off_c, 6, 81, 0
8, 34692, Note_on_c, 6, 79, 75
8, 34702, Note_off_c, 6, 79, 0
8, 34704, Note_on_c, 6, 81, 75
8, 34714, Note_off_c, 6, 81, 0
8, 34716, Note_on_c, 6, 79, 75
8, 34726, Note_off_c, 6, 79, 0
8, 34728, Note_on_c, 6, 81, 75
8, 34738, Note_off_c, 6, 81, 0
8, 34740, Note_on_c, 6, 79, 75
8, 34750, Note_off_c, 6, 79, 0
8, 34752, Note_on_c, 6, 81, 75
8, 34762, Note_off_c, 6, 81, 0
8, 34764, Note_on_c, 6, 79, 75
8, 34774, Note_off_c, 6, 79, 0
8, 34776, Note_on_c, 6, 81, 75
8, 34786, Note_off_c, 6, 81, 0
8, 34788, Note_on_c, 6, 79, 75
8, 34798, Note_off_c, 6, 79, 0
8, 34800, Note_on_c, 6, 81, 75
8, 34810, Note_off_c, 6, 81, 0
8, 34812, Note_on_c, 6, 79, 75
8, 34822, Note_off_c, 6, 79, 0
8, 34824, Note_on_c, 6, 81, 75
8, 34834, Note_off_c, 6, 81, 0
8, 34836, Note_on_c, 6, 79, 75
8, 34846, Note_off_c, 6, 79, 0
8, 34848, Note_on_c, 6, 84, 75
8, 34932, Note_off_c, 6, 84, 0
8, 34944, Note_on_c, 6, 77, 75
8, 35028, Note_off_c, 6, 77, 0
8, 35040, Note_on_c, 6, 74, 75
8, 35124, Note_off_c, 6, 74, 0
8, 35136, Note_on_c, 6, 76, 75
8, 35220, Note_off_c, 6, 76, 0
8, 35232, Note_on_c, 6, 77, 75
8, 35316, Note_off_c, 6, 77, 0
8, 35328, Note_on_c, 6, 81, 75
8, 35508, Note_off_c, 6, 81, 0
8, 35520, Note_on_c, 6, 77, 75
8, 35604, Note_off_c, 6, 77, 0
8, 35616, Note_on_c, 6, 76, 75
8, 35658, Note_off_c, 6, 76, 0
8, 35664, Note_on_c, 6, 74, 75
8, 35706, Note_off_c, 6, 74, 0
8, 35712, Note_on_c, 6, 79, 75
8, 35796, Note_off_c, 6, 79, 0
8, 35808, Note_on_c, 6, 76, 75
8, 35940, Note_off_c, 6, 76, 0
8, 35952, Note_on_c, 6, 77, 75
8, 35994, Note_off_c, 6, 77, 0
8, 36000, Note_on_c, 6, 79, 75
8, 36010, Note_off_c, 6, 79, 0
8, 36012, Note_on_c, 6, 77, 75
8, 36022, Note_off_c, 6, 77, 0
8, 36024, Note_on_c, 6, 79, 75
8, 36034, Note_off_c, 6, 79, 0
8, 36036, Note_on_c, 6, 77, 75
8, 36046, Note_off_c, 6, 77, 0
8, 36048, Note_on_c, 6, 79, 75
8, 36058, Note_off_c, 6, 79, 0
8, 36060, Note_on_c, 6, 77, 75
8, 36070, Note_off_c, 6, 77, 0
8, 36072, Note_on_c, 6, 76, 75
8, 36082, Note_off_c, 6, 76, 0
8, 36084, Note_on_c, 6, 77, 75
8, 36094, Note_off_c, 6, 77, 0
8, 36096, Note_on_c, 6, 79, 75
8, 36138, Note_off_c, 6, 79, 0
8, 36144, Note_on_c, 6, 81, 75
8, 36186, Note_off_c, 6, 81, 0
8, 36192, Note_on_c, 6, 82, 75
8, 36202, Note_off_c, 6, 82, 0
8, 36204, Note_on_c, 6, 81, 75
8, 36214, Note_off_c, 6, 81, 0
8, 36216, Note_on_c, 6, 82, 75
8, 36226, Note_off_c, 6, 82, 0
8, 36228, Note_on_c, 6, 81, 75
8, 36238, Note_off_c, 6, 81, 0
8, 36240, Note_on_c, 6, 82, 75
8, 36250, Note_off_c, 6, 82, 0
8, 36252, Note_on_c, 6, 81, 75
8, 36262, Note_off_c, 6, 81, 0
8, 36264, Note_on_c, 6, 82, 75
8, 36274, Note_off_c, 6, 82, 0
8, 36276, Note_on_c, 6, 81, 75
8, 36286, Note_off_c, 6, 81, 0
8, 36288, Note_on_c, 6, 82, 75
8, 36298, Note_off_c, 6, 82, 0
8, 36300, Note_on_c, 6, 81, 75
8, 36310, Note_off_c, 6, 81, 0
8, 36312, Note_on_c, 6, 82, 75
8, 36322, Note_off_c, 6, 82, 0
8, 36324, Note_on_c, 6, 81, 75
8, 36334, Note_off_c, 6, 81, 0
8, 36336, Note_on_c, 6, 79, 75
8, 36357, Note_off_c, 6, 79, 0
8, 36360, Note_on_c, 6, 81, 75
8, 36381, Note_off_c, 6, 81, 0
8, 36384, Note_on_c, 6, 82, 75
8, 36468, Note_off_c, 6, 82, 0
8, 36480, Note_on_c, 6, 81, 75
8, 36522, Note_off_c, 6, 81, 0
8, 36528, Note_on_c, 6, 79, 75
8, 36570, Note_off_c, 6, 79, 0
8, 36576, Note_on_c, 6, 84, 75
8, 36660, Note_off_c, 6, 84, 0
8, 36672, Note_on_c, 6, 77, 75
8, 36714, Note_off_c, 6, 77, 0
8, 36720, Note_on_c, 6, 79, 75
8, 36762, Note_off_c, 6, 79, 0
8, 36768, Note_on_c, 6, 76, 75
8, 36900, Note_off_c, 6, 76, 0
8, 36912, Note_on_c, 6, 77, 75
8, 36954, Note_off_c, 6, 77, 0
8, 36960, Note_on_c, 6, 77, 75
8, 37236, Note_off_c, 6, 77, 0
8, 37248, Note_on_c, 6, 79, 75
8, 37332, Note_off_c, 6, 79, 0
8, 37344, Note_on_c, 6, 82, 75
8, 37428, Note_off_c, 6, 82, 0
8, 37440, Note_on_c, 6, 81, 75
8, 37524, Note_off_c, 6, 81, 0
8, 37536, Note_on_c, 6, 81, 75
8, 37546, Note_off_c, 6, 81, 0
8, 37548, Note_on_c, 6, 79, 75
8, 37558, Note_off_c, 6, 79, 0
8, 37560, Note_on_c, 6, 81, 75
8, 37570, Note_off_c, 6, 81, 0
8, 37572, Note_on_c, 6, 79, 75
8, 37582, Note_off_c, 6, 79, 0
8, 37584, Note_on_c, 6, 81, 75
8, 37594, Note_off_c, 6, 81, 0
8, 37596, Note_on_c, 6, 79, 75
8, 37606, Note_off_c, 6, 79, 0
8, 37608, Note_on_c, 6, 81, 75
8, 37618, Note_off_c, 6, 81, 0
8, 37620, Note_on_c, 6, 79, 75
8, 37630, Note_off_c, 6, 79, 0
8, 37632, Note_on_c, 6, 77, 75
8, 37674, Note_off_c, 6, 77, 0
8, 37680, Note_on_c, 6, 76, 75
8, 37722, Note_off_c, 6, 76, 0
8, 37728, Note_on_c, 6, 77, 75
8, 37812, Note_off_c, 6, 77, 0
8, 37824, Note_on_c, 6, 79, 75
8, 37908, Note_off_c, 6, 79, 0
8, 37920, Note_on_c, 6, 82, 75
8, 38004, Note_off_c, 6, 82, 0
8, 38016, Note_on_c, 6, 81, 75
8, 38100, Note_off_c, 6, 81, 0
8, 38112, Note_on_c, 6, 81, 75
8, 38122, Note_off_c, 6, 81, 0
8, 38124, Note_on_c, 6, 79, 75
8, 38134, Note_off_c, 6, 79, 0
8, 38136, Note_on_c, 6, 81, 75
8, 38146, Note_off_c, 6, 81, 0
8, 38148, Note_on_c, 6, 79, 75
8, 38158, Note_off_c, 6, 79, 0
8, 38160, Note_on_c, 6, 81, 75
8, 38170, Note_off_c, 6, 81, 0
8, 38172, Note_on_c, 6, 79, 75
8, 38182, Note_off_c, 6, 79, 0
8, 38184, Note_on_c, 6, 81, 75
8, 38194, Note_off_c, 6, 81, 0
8, 38196, Note_on_c, 6, 79, 75
8, 38206, Note_off_c, 6, 79, 0
8, 38208, Note_on_c, 6, 81, 75
8, 38218, Note_off_c, 6, 81, 0
8, 38220, Note_on_c, 6, 79, 75
8, 38230, Note_off_c, 6, 79, 0
8, 38232, Note_on_c, 6, 81, 75
8, 38242, Note_off_c, 6, 81, 0
8, 38244, Note_on_c, 6, 79, 75
8, 38254, Note_off_c, 6, 79, 0
8, 38256, Note_on_c, 6, 81, 75
8, 38266, Note_off_c, 6, 81, 0
8, 38268, Note_on_c, 6, 79, 75
8, 38278, Note_off_c, 6, 79, 0
8, 38280, Note_on_c, 6, 81, 75
8, 38290, Note_off_c, 6, 81, 0
8, 38292, Note_on_c, 6, 79, 75
8, 38302, Note_off_c, 6, 79, 0
8, 38304, Note_on_c, 6, 84, 75
8, 38388, Note_off_c, 6, 84, 0
8, 38400, Note_on_c, 6, 77, 75
8, 38484, Note_off_c, 6, 77, 0
8, 38496, Note_on_c, 6, 74, 75
8, 38580, Note_off_c, 6, 74, 0
8, 38592, Note_on_c, 6, 76, 75
8, 38676, Note_off_c, 6, 76, 0
8, 38688, Note_on_c, 6, 77, 75
8, 38772, Note_off_c, 6, 77, 0
8, 38784, Note_on_c, 6, 81, 75
8, 38964, Note_off_c, 6, 81, 0
8, 38976, Note_on_c, 6, 77, 75
8, 39060, Note_off_c, 6, 77, 0
8, 39072, Note_on_c, 6, 76, 75
8, 39114, Note_off_c, 6, 76, 0
8, 39120, Note_on_c, 6, 74, 75
8, 39162, Note_off_c, 6, 74, 0
8, 39168, Note_on_c, 6, 79, 75
8, 39252, Note_off_c, 6, 79, 0
8, 39264, Note_on_c, 6, 76, 75
8, 39396, Note_off_c, 6, 76, 0
8, 39408, Note_on_c, 6, 77, 75
8, 39450, Note_off_c, 6, 77, 0
8, 39456, Note_on_c, 6, 79, 75
8, 39466, Note_off_c, 6, 79, 0
8, 39468, Note_on_c, 6, 77, 75
8, 39478, Note_off_c, 6, 77, 0
8, 39480, Note_on_c, 6, 79, 75
8, 39490, Note_off_c, 6, 79, 0
8, 39492, Note_on_c, 6, 77, 75
8, 39502, Note_off_c, 6, 77, 0
8, 39504, Note_on_c, 6, 79, 75
8, 39514, Note_off_c, 6, 79, 0
8, 39516, Note_on_c, 6, 77, 75
8, 39526, Note_off_c, 6, 77, 0
8, 39528, Note_on_c, 6, 76, 75
8, 39538, Note_off_c, 6, 76, 0
8, 39540, Note_on_c, 6, 77, 75
8, 39550, Note_off_c, 6, 77, 0
8, 39552, Note_on_c, 6, 79, 75
8, 39594, Note_off_c, 6, 79, 0
8, 39600, Note_on_c, 6, 81, 75
8, 39642, Note_off_c, 6, 81, 0
8, 39648, Note_on_c, 6, 82, 75
8, 39658, Note_off_c, 6, 82, 0
8, 39660, Note_on_c, 6, 81, 75
8, 39670, Note_off_c, 6, 81, 0
8, 39672, Note_on_c, 6, 82, 75
8, 39682, Note_off_c, 6, 82, 0
8, 39684, Note_on_c, 6, 81, 75
8, 39694, Note_off_c, 6, 81, 0
8, 39696, Note_on_c, 6, 82, 75
8, 39706, Note_off_c, 6, 82, 0
8, 39708, Note_on_c, 6, 81, 75
8, 39718, Note_off_c, 6, 81, 0
8, 39720, Note_on_c, 6, 82, 75
8, 39730, Note_off_c, 6, 82, 0
8, 39732, Note_on_c, 6, 81, 75
8, 39742, Note_off_c, 6, 81, 0
8, 39744, Note_on_c, 6, 82, 75
8, 39754, Note_off_c, 6, 82, 0
8, 39756, Note_on_c, 6, 81, 75
8, 39766, Note_off_c, 6, 81, 0
8, 39768, Note_on_c, 6, 82, 75
8, 39778, Note_off_c, 6, 82, 0
8, 39780, Note_on_c, 6, 81, 75
8, 39790, Note_off_c, 6, 81, 0
8, 39792, Note_on_c, 6, 79, 75
8, 39813, Note_off_c, 6, 79, 0
8, 39816, Note_on_c, 6, 81, 75
8, 39837, Note_off_c, 6, 81, 0
8, 39840, Note_on_c, 6, 82, 75
8, 39924, Note_off_c, 6, 82, 0
8, 39936, Note_on_c, 6, 81, 75
8, 39978, Note_off_c, 6, 81, 0
8, 39984, Note_on_c, 6, 79, 75
8, 40026, Note_off_c, 6, 79, 0
8, 40032, Note_on_c, 6, 84, 75
8, 40116, Note_off_c, 6, 84, 0
8, 40128, Note_on_c, 6, 77, 75
8, 40170, Note_off_c, 6, 77, 0
8, 40176, Note_on_c, 6, 79, 75
8, 40218, Note_off_c, 6, 79, 0
8, 40224, Note_on_c, 6, 76, 75
8, 40356, Note_off_c, 6, 76, 0
8, 40368, Note_on_c, 6, 77, 75
8, 40410, Note_off_c, 6, 77, 0
8, 40416, Note_on_c, 6, 77, 75
8, 40692, Note_off_c, 6, 77, 0
8, 40692, End_track
9, 0, Start_track
9, 0, Title_t, "Violin I"
9, 0, Control_c, 7, 0, 0
9, 0, Program_c, 7, 40
9, 0, Time_signature, 3, 2, 96, 8
9, 0, Tempo, 461538
9, 96, Tempo, 428571
9, 96, Note_on_c, 7, 72, 75
9, 180, Note_off_c, 7, 72, 0
9, 192, Note_on_c, 7, 75, 75
9, 276, Note_off_c, 7, 75, 0
9, 288, Note_on_c, 7, 74, 75
9, 372, Note_off_c, 7, 74, 0
9, 384, Note_on_c, 7, 72, 75
9, 468, Note_off_c, 7, 72, 0
9, 480, Note_on_c, 7, 70, 75
9, 522, Note_off_c, 7, 70, 0
9, 528, Note_on_c, 7, 69, 75
9, 570, Note_off_c, 7, 69, 0
9, 576, Note_on_c, 7, 70, 75
9, 660, Note_off_c, 7, 70, 0
9, 672, Note_on_c, 7, 72, 75
9, 756, Note_off_c, 7, 72, 0
9, 768, Note_on_c, 7, 75, 75
9, 852, Note_off_c, 7, 75, 0
9, 864, Note_on_c, 7, 74, 75
9, 948, Note_off_c, 7, 74, 0
9, 960, Note_on_c, 7, 74, 75
9, 970, Note_off_c, 7, 74, 0
9, 972, Note_on_c, 7, 72, 75
9, 982, Note_off_c, 7, 72, 0
9, 984, Note_on_c, 7, 74, 75
9, 994, Note_off_c, 7, 74, 0
9, 996, Note_on_c, 7, 72, 75
9, 1006, Note_off_c, 7, 72, 0
9, 1008, Note_on_c, 7, 74, 75
9, 1018, Note_off_c, 7, 74, 0
9, 1020, Note_on_c, 7, 72, 75
9, 1030, Note_off_c, 7, 72, 0
9, 1032, Note_on_c, 7, 74, 75
9, 1042, Note_off_c, 7, 74, 0
9, 1044, Note_on_c, 7, 72, 75
9, 1054, Note_off_c, 7, 72, 0
9, 1056, Note_on_c, 7, 74, 75
9, 1066, Note_off_c, 7, 74, 0
9, 1068, Note_on_c, 7, 72, 75
9, 1078, Note_off_c, 7, 72, 0
9, 1080, Note_on_c, 7, 74, 75
9, 1090, Note_off_c, 7, 74, 0
9, 1092, Note_on_c, 7, 72, 75
9, 1102, Note_off_c, 7, 72, 0
9, 1104, Note_on_c, 7, 74, 75
9, 1114, Note_off_c, 7, 74, 0
9, 1116, Note_on_c, 7, 72, 75
9, 1126, Note_off_c, 7, 72, 0
9, 1128, Note_on_c, 7, 74, 75
9, 1138, Note_off_c, 7, 74, 0
9, 1140, Note_on_c, 7, 72, 75
9, 1150, Note_off_c, 7, 72, 0
9, 1152, Note_on_c, 7, 77, 75
9, 1236, Note_off_c, 7, 77, 0
9, 1248, Note_on_c, 7, 70, 75
9, 1332, Note_off_c, 7, 70, 0
9, 1344, Note_on_c, 7, 67, 75
9, 1428, Note_off_c, 7, 67, 0
9, 1440, Note_on_c, 7, 69, 75
9, 1524, Note_off_c, 7, 69, 0
9, 1536, Note_on_c, 7, 70, 75
9, 1620, Note_off_c, 7, 70, 0
9, 1632, Note_on_c, 7, 74, 75
9, 1812, Note_off_c, 7, 74, 0
9, 1824, Note_on_c, 7, 72, 75
9, 1834, Note_off_c, 7, 72, 0
9, 1836, Note_on_c, 7, 70, 75
9, 1846, Note_off_c, 7, 70, 0
9, 1848, Note_on_c, 7, 72, 75
9, 1858, Note_off_c, 7, 72, 0
9, 1860, Note_on_c, 7, 70, 75
9, 1870, Note_off_c, 7, 70, 0
9, 1872, Note_on_c, 7, 72, 75
9, 1882, Note_off_c, 7, 72, 0
9, 1884, Note_on_c, 7, 70, 75
9, 1894, Note_off_c, 7, 70, 0
9, 1896, Note_on_c, 7, 72, 75
9, 1906, Note_off_c, 7, 72, 0
9, 1908, Note_on_c, 7, 70, 75
9, 1918, Note_off_c, 7, 70, 0
9, 1920, Note_on_c, 7, 69, 75
9, 1962, Note_off_c, 7, 69, 0
9, 1968, Note_on_c, 7, 67, 75
9, 2010, Note_off_c, 7, 67, 0
9, 2016, Note_on_c, 7, 72, 75
9, 2100, Note_off_c, 7, 72, 0
9, 2112, Note_on_c, 7, 70, 75
9, 2122, Note_off_c, 7, 70, 0
9, 2124, Note_on_c, 7, 69, 75
9, 2134, Note_off_c, 7, 69, 0
9, 2136, Note_on_c, 7, 70, 75
9, 2146, Note_off_c, 7, 70, 0
9, 2148, Note_on_c, 7, 69, 75
9, 2158, Note_off_c, 7, 69, 0
9, 2160, Note_on_c, 7, 70, 75
9, 2170, Note_off_c, 7, 70, 0
9, 2172, Note_on_c, 7, 69, 75
9, 2182, Note_off_c, 7, 69, 0
9, 2184, Note_on_c, 7, 70, 75
9, 2194, Note_off_c, 7, 70, 0
9, 2196, Note_on_c, 7, 69, 75
9, 2206, Note_off_c, 7, 69, 0
9, 2208, Note_on_c, 7, 70, 75
9, 2218, Note_off_c, 7, 70, 0
9, 2220, Note_on_c, 7, 69, 75
9, 2230, Note_off_c, 7, 69, 0
9, 2232, Note_on_c, 7, 70, 75
9, 2242, Note_off_c, 7, 70, 0
9, 2244, Note_on_c, 7, 69, 75
9, 2254, Note_off_c, 7, 69, 0
9, 2256, Note_on_c, 7, 70, 75
9, 2266, Note_off_c, 7, 70, 0
9, 2268, Note_on_c, 7, 69, 75
9, 2278, Note_off_c, 7, 69, 0
9, 2280, Note_on_c, 7, 70, 75
9, 2290, Note_off_c, 7, 70, 0
9, 2292, Note_on_c, 7, 69, 75
9, 2302, Note_off_c, 7, 69, 0
9, 2304, Note_on_c, 7, 67, 75
9, 2388, Note_off_c, 7, 67, 0
9, 2400, Note_on_c, 7, 71, 75
9, 2442, Note_off_c, 7, 71, 0
9, 2448, Note_on_c, 7, 72, 75
9, 2490, Note_off_c, 7, 72, 0
9, 2496, Note_on_c, 7, 74, 75
9, 2506, Note_off_c, 7, 74, 0
9, 2508, Note_on_c, 7, 72, 75
9, 2518, Note_off_c, 7, 72, 0
9, 2520, Note_on_c, 7, 74, 75
9, 2530, Note_off_c, 7, 74, 0
9, 2532, Note_on_c, 7, 72, 75
9, 2542, Note_off_c, 7, 72, 0
9, 2544, Note_on_c, 7, 74, 75
9, 2554, Note_off_c, 7, 74, 0
9, 2556, Note_on_c, 7, 72, 75
9, 2566, Note_off_c, 7, 72, 0
9, 2568, Note_on_c, 7, 74, 75
9, 2578, Note_off_c, 7, 74, 0
9, 2580, Note_on_c, 7, 72, 75
9, 2590, Note_off_c, 7, 72, 0
9, 2592, Note_on_c, 7, 74, 75
9, 2602, Note_off_c, 7, 74, 0
9, 2604, Note_on_c, 7, 72, 75
9, 2614, Note_off_c, 7, 72, 0
9, 2616, Note_on_c, 7, 74, 75
9, 2626, Note_off_c, 7, 74, 0
9, 2628, Note_on_c, 7, 72, 75
9, 2638, Note_off_c, 7, 72, 0
9, 2640, Note_on_c, 7, 71, 75
9, 2661, Note_off_c, 7, 71, 0
9, 2664, Note_on_c, 7, 72, 75
9, 2685, Note_off_c, 7, 72, 0
9, 2688, Note_on_c, 7, 74, 75
9, 2772, Note_off_c, 7, 74, 0
9, 2784, Note_on_c, 7, 72, 75
9, 2826, Note_off_c, 7, 72, 0
9, 2832, Note_on_c, 7, 71, 75
9, 2874, Note_off_c, 7, 71, 0
9, 2880, Note_on_c, 7, 72, 75
9, 2964, Note_off_c, 7, 72, 0
9, 2976, Note_on_c, 7, 77, 75
9, 3018, Note_off_c, 7, 77, 0
9, 3024, Note_on_c, 7, 79, 75
9, 3066, Note_off_c, 7, 79, 0
9, 3072, Note_on_c, 7, 74, 75
9, 3204, Note_off_c, 7, 74, 0
9, 3216, Note_on_c, 7, 72, 75
9, 3258, Note_off_c, 7, 72, 0
9, 3264, Note_on_c, 7, 72, 75
9, 3540, Note_off_c, 7, 72, 0
9, 3552, Note_on_c, 7, 72, 75
9, 3636, Note_off_c, 7, 72, 0
9, 3648, Note_on_c, 7, 75, 75
9, 3732, Note_off_c, 7, 75, 0
9, 3744, Note_on_c, 7, 74, 75
9, 3828, Note_off_c, 7, 74, 0
9, 3840, Note_on_c, 7, 72, 75
9, 3924, Note_off_c, 7, 72, 0
9, 3936, Note_on_c, 7, 70, 75
9, 3978, Note_off_c, 7, 70, 0
9, 3984, Note_on_c, 7, 69, 75
9, 4026, Note_off_c, 7, 69, 0
9, 4032, Note_on_c, 7, 70, 75
9, 4116, Note_off_c, 7, 70, 0
9, 4128, Note_on_c, 7, 72, 75
9, 4212, Note_off_c, 7, 72, 0
9, 4224, Note_on_c, 7, 75, 75
9, 4308, Note_off_c, 7, 75, 0
9, 4320, Note_on_c, 7, 74, 75
9, 4404, Note_off_c, 7, 74, 0
9, 4416, Note_on_c, 7, 74, 75
9, 4426, Note_off_c, 7, 74, 0
9, 4428, Note_on_c, 7, 72, 75
9, 4438, Note_off_c, 7, 72, 0
9, 4440, Note_on_c, 7, 74, 75
9, 4450, Note_off_c, 7, 74, 0
9, 4452, Note_on_c, 7, 72, 75
9, 4462, Note_off_c, 7, 72, 0
9, 4464, Note_on_c, 7, 74, 75
9, 4474, Note_off_c, 7, 74, 0
9, 4476, Note_on_c, 7, 72, 75
9, 4486, Note_off_c, 7, 72, 0
9, 4488, Note_on_c, 7, 74, 75
9, 4498, Note_off_c, 7, 74, 0
9, 4500, Note_on_c, 7, 72, 75
9, 4510, Note_off_c, 7, 72, 0
9, 4512, Note_on_c, 7, 74, 75
9, 4522, Note_off_c, 7, 74, 0
9, 4524, Note_on_c, 7, 72, 75
9, 4534, Note_off_c, 7, 72, 0
9, 4536, Note_on_c, 7, 74, 75
9, 4546, Note_off_c, 7, 74, 0
9, 4548, Note_on_c, 7, 72, 75
9, 4558, Note_off_c, 7, 72, 0
9, 4560, Note_on_c, 7, 74, 75
9, 4570, Note_off_c, 7, 74, 0
9, 4572, Note_on_c, 7, 72, 75
9, 4582, Note_off_c, 7, 72, 0
9, 4584, Note_on_c, 7, 74, 75
9, 4594, Note_off_c, 7, 74, 0
9, 4596, Note_on_c, 7, 72, 75
9, 4606, Note_off_c, 7, 72, 0
9, 4608, Note_on_c, 7, 77, 75
9, 4692, Note_off_c, 7, 77, 0
9, 4704, Note_on_c, 7, 70, 75
9, 4788, Note_off_c, 7, 70, 0
9, 4800, Note_on_c, 7, 67, 75
9, 4884, Note_off_c, 7, 67, 0
9, 4896, Note_on_c, 7, 69, 75
9, 4980, Note_off_c, 7, 69, 0
9, 4992, Note_on_c, 7, 70, 75
9, 5076, Note_off_c, 7, 70, 0
9, 5088, Note_on_c, 7, 74, 75
9, 5268, Note_off_c, 7, 74, 0
9, 5280, Note_on_c, 7, 72, 75
9, 5290, Note_off_c, 7, 72, 0
9, 5292, Note_on_c, 7, 70, 75
9, 5302, Note_off_c, 7, 70, 0
9, 5304, Note_on_c, 7, 72, 75
9, 5314, Note_off_c, 7, 72, 0
9, 5316, Note_on_c, 7, 70, 75
9, 5326, Note_off_c, 7, 70, 0
9, 5328, Note_on_c, 7, 72, 75
9, 5338, Note_off_c, 7, 72, 0
9, 5340, Note_on_c, 7, 70, 75
9, 5350, Note_off_c, 7, 70, 0
9, 5352, Note_on_c, 7, 72, 75
9, 5362, Note_off_c, 7, 72, 0
9, 5364, Note_on_c, 7, 70, 75
9, 5374, Note_off_c, 7, 70, 0
9, 5376, Note_on_c, 7, 69, 75
9, 5418, Note_off_c, 7, 69, 0
9, 5424, Note_on_c, 7, 67, 75
9, 5466, Note_off_c, 7, 67, 0
9, 5472, Note_on_c, 7, 72, 75
9, 5556, Note_off_c, 7, 72, 0
9, 5568, Note_on_c, 7, 70, 75
9, 5578, Note_off_c, 7, 70, 0
9, 5580, Note_on_c, 7, 69, 75
9, 5590, Note_off_c, 7, 69, 0
9, 5592, Note_on_c, 7, 70, 75
9, 5602, Note_off_c, 7, 70, 0
9, 5604, Note_on_c, 7, 69, 75
9, 5614, Note_off_c, 7, 69, 0
9, 5616, Note_on_c, 7, 70, 75
9, 5626, Note_off_c, 7, 70, 0
9, 5628, Note_on_c, 7, 69, 75
9, 5638, Note_off_c, 7, 69, 0
9, 5640, Note_on_c, 7, 70, 75
9, 5650, Note_off_c, 7, 70, 0
9, 5652, Note_on_c, 7, 69, 75
9, 5662, Note_off_c, 7, 69, 0
9, 5664, Note_on_c, 7, 70, 75
9, 5674, Note_off_c, 7, 70, 0
9, 5676, Note_on_c, 7, 69, 75
9, 5686, Note_off_c, 7, 69, 0
9, 5688, Note_on_c, 7, 70, 75
9, 5698, Note_off_c, 7, 70, 0
9, 5700, Note_on_c, 7, 69, 75
9, 5710, Note_off_c, 7, 69, 0
9, 5712, Note_on_c, 7, 70, 75
9, 5722, Note_off_c, 7, 70, 0
9, 5724, Note_on_c, 7, 69, 75
9, 5734, Note_off_c, 7, 69, 0
9, 5736, Note_on_c, 7, 70, 75
9, 5746, Note_off_c, 7, 70, 0
9, 5748, Note_on_c, 7, 69, 75
9, 5758, Note_off_c, 7, 69, 0
9, 5760, Note_on_c, 7, 67, 75
9, 5844, Note_off_c, 7, 67, 0
9, 5856, Note_on_c, 7, 71, 75
9, 5898, Note_off_c, 7, 71, 0
9, 5904, Note_on_c, 7, 72, 75
9, 5946, Note_off_c, 7, 72, 0
9, 5952, Note_on_c, 7, 74, 75
9, 5962, Note_off_c, 7, 74, 0
9, 5964, Note_on_c, 7, 72, 75
9, 5974, Note_off_c, 7, 72, 0
9, 5976, Note_on_c, 7, 74, 75
9, 5986, Note_off_c, 7, 74, 0
9, 5988, Note_on_c, 7, 72, 75
9, 5998, Note_off_c, 7, 72, 0
9, 6000, Note_on_c, 7, 74, 75
9, 6010, Note_off_c, 7, 74, 0
9, 6012, Note_on_c, 7, 72, 75
9, 6022, Note_off_c, 7, 72, 0
9, 6024, Note_on_c, 7, 74, 75
9, 6034, Note_off_c, 7, 74, 0
9, 6036, Note_on_c, 7, 72, 75
9, 6046, Note_off_c, 7, 72, 0
9, 6048, Note_on_c, 7, 74, 75
9, 6058, Note_off_c, 7, 74, 0
9, 6060, Note_on_c, 7, 72, 75
9, 6070, Note_off_c, 7, 72, 0
9, 6072, Note_on_c, 7, 74, 75
9, 6082, Note_off_c, 7, 74, 0
9, 6084, Note_on_c, 7, 72, 75
9, 6094, Note_off_c, 7, 72, 0
9, 6096, Note_on_c, 7, 71, 75
9, 6117, Note_off_c, 7, 71, 0
9, 6120, Note_on_c, 7, 72, 75
9, 6141, Note_off_c, 7, 72, 0
9, 6144, Note_on_c, 7, 74, 75
9, 6228, Note_off_c, 7, 74, 0
9, 6240, Note_on_c, 7, 72, 75
9, 6282, Note_off_c, 7, 72, 0
9, 6288, Note_on_c, 7, 71, 75
9, 6330, Note_off_c, 7, 71, 0
9, 6336, Note_on_c, 7, 72, 75
9, 6420, Note_off_c, 7, 72, 0
9, 6432, Note_on_c, 7, 77, 75
9, 6474, Note_off_c, 7, 77, 0
9, 6480, Note_on_c, 7, 79, 75
9, 6522, Note_off_c, 7, 79, 0
9, 6528, Note_on_c, 7, 74, 75
9, 6660, Note_off_c, 7, 74, 0
9, 6672, Note_on_c, 7, 72, 75
9, 6714, Note_off_c, 7, 72, 0
9, 6720, Note_on_c, 7, 72, 75
9, 6996, Note_off_c, 7, 72, 0
9, 7008, Note_on_c, 7, 79, 75
9, 7092, Note_off_c, 7, 79, 0
9, 7104, Note_on_c, 7, 82, 75
9, 7188, Note_off_c, 7, 82, 0
9, 7200, Note_on_c, 7, 81, 75
9, 7284, Note_off_c, 7, 81, 0
9, 7296, Note_on_c, 7, 79, 75
9, 7380, Note_off_c, 7, 79, 0
9, 7392, Note_on_c, 7, 77, 75
9, 7434, Note_off_c, 7, 77, 0
9, 7440, Note_on_c, 7, 76, 75
9, 7482, Note_off_c, 7, 76, 0
9, 7488, Note_on_c, 7, 77, 75
9, 7572, Note_off_c, 7, 77, 0
9, 7584, Note_on_c, 7, 79, 75
9, 7668, Note_off_c, 7, 79, 0
9, 7680, Note_on_c, 7, 82, 75
9, 7764, Note_off_c, 7, 82, 0
9, 7776, Note_on_c, 7, 81, 75
9, 7860, Note_off_c, 7, 81, 0
9, 7872, Note_on_c, 7, 81, 75
9, 7882, Note_off_c, 7, 81, 0
9, 7884, Note_on_c, 7, 79, 75
9, 7894, Note_off_c, 7, 79, 0
9, 7896, Note_on_c, 7, 81, 75
9, 7906, Note_off_c, 7, 81, 0
9, 7908, Note_on_c, 7, 79, 75
9, 7918, Note_off_c, 7, 79, 0
9, 7920, Note_on_c, 7, 81, 75
9, 7930, Note_off_c, 7, 81, 0
9, 7932, Note_on_c, 7, 79, 75
9, 7942, Note_off_c, 7, 79, 0
9, 7944, Note_on_c, 7, 81, 75
9, 7954, Note_off_c, 7, 81, 0
9, 7956, Note_on_c, 7, 79, 75
9, 7966, Note_off_c, 7, 79, 0
9, 7968, Note_on_c, 7, 81, 75
9, 7978, Note_off_c, 7, 81, 0
9, 7980, Note_on_c, 7, 79, 75
9, 7990, Note_off_c, 7, 79, 0
9, 7992, Note_on_c, 7, 81, 75
9, 8002, Note_off_c, 7, 81, 0
9, 8004, Note_on_c, 7, 79, 75
9, 8014, Note_off_c, 7, 79, 0
9, 8016, Note_on_c, 7, 81, 75
9, 8026, Note_off_c, 7, 81, 0
9, 8028, Note_on_c, 7, 79, 75
9, 8038, Note_off_c, 7, 79, 0
9, 8040, Note_on_c, 7, 81, 75
9, 8050, Note_off_c, 7, 81, 0
9, 8052, Note_on_c, 7, 79, 75
9, 8062, Note_off_c, 7, 79, 0
9, 8064, Note_on_c, 7, 84, 75
9, 8148, Note_off_c, 7, 84, 0
9, 8160, Note_on_c, 7, 77, 75
9, 8244, Note_off_c, 7, 77, 0
9, 8256, Note_on_c, 7, 74, 75
9, 8340, Note_off_c, 7, 74, 0
9, 8352, Note_on_c, 7, 76, 75
9, 8436, Note_off_c, 7, 76, 0
9, 8448, Note_on_c, 7, 77, 75
9, 8532, Note_off_c, 7, 77, 0
9, 8544, Note_on_c, 7, 81, 75
9, 8724, Note_off_c, 7, 81, 0
9, 8736, Note_on_c, 7, 77, 75
9, 8820, Note_off_c, 7, 77, 0
9, 8832, Note_on_c, 7, 76, 75
9, 8874, Note_off_c, 7, 76, 0
9, 8880, Note_on_c, 7, 74, 75
9, 8922, Note_off_c, 7, 74, 0
9, 8928, Note_on_c, 7, 79, 75
9, 9012, Note_off_c, 7, 79, 0
9, 9024, Note_on_c, 7, 76, 75
9, 9156, Note_off_c, 7, 76, 0
9, 9168, Note_on_c, 7, 77, 75
9, 9210, Note_off_c, 7, 77, 0
9, 9216, Note_on_c, 7, 79, 75
9, 9226, Note_off_c, 7, 79, 0
9, 9228, Note_on_c, 7, 77, 75
9, 9238, Note_off_c, 7, 77, 0
9, 9240, Note_on_c, 7, 79, 75
9, 9250, Note_off_c, 7, 79, 0
9, 9252, Note_on_c, 7, 77, 75
9, 9262, Note_off_c, 7, 77, 0
9, 9264, Note_on_c, 7, 79, 75
9, 9274, Note_off_c, 7, 79, 0
9, 9276, Note_on_c, 7, 77, 75
9, 9286, Note_off_c, 7, 77, 0
9, 9288, Note_on_c, 7, 76, 75
9, 9298, Note_off_c, 7, 76, 0
9, 9300, Note_on_c, 7, 77, 75
9, 9310, Note_off_c, 7, 77, 0
9, 9312, Note_on_c, 7, 79, 75
9, 9354, Note_off_c, 7, 79, 0
9, 9360, Note_on_c, 7, 81, 75
9, 9402, Note_off_c, 7, 81, 0
9, 9408, Note_on_c, 7, 82, 75
9, 9418, Note_off_c, 7, 82, 0
9, 9420, Note_on_c, 7, 81, 75
9, 9430, Note_off_c, 7, 81, 0
9, 9432, Note_on_c, 7, 82, 75
9, 9442, Note_off_c, 7, 82, 0
9, 9444, Note_on_c, 7, 81, 75
9, 9454, Note_off_c, 7, 81, 0
9, 9456, Note_on_c, 7, 82, 75
9, 9466, Note_off_c, 7, 82, 0
9, 9468, Note_on_c, 7, 81, 75
9, 9478, Note_off_c, 7, 81, 0
9, 9480, Note_on_c, 7, 82, 75
9, 9490, Note_off_c, 7, 82, 0
9, 9492, Note_on_c, 7, 81, 75
9, 9502, Note_off_c, 7, 81, 0
9, 9504, Note_on_c, 7, 82, 75
9, 9514, Note_off_c, 7, 82, 0
9, 9516, Note_on_c, 7, 81, 75
9, 9526, Note_off_c, 7, 81, 0
9, 9528, Note_on_c, 7, 82, 75
9, 9538, Note_off_c, 7, 82, 0
9, 9540, Note_on_c, 7, 81, 75
9, 9550, Note_off_c, 7, 81, 0
9, 9552, Note_on_c, 7, 79, 75
9, 9573, Note_off_c, 7, 79, 0
9, 9576, Note_on_c, 7, 81, 75
9, 9597, Note_off_c, 7, 81, 0
9, 9600, Note_on_c, 7, 82, 75
9, 9684, Note_off_c, 7, 82, 0
9, 9696, Note_on_c, 7, 81, 75
9, 9738, Note_off_c, 7, 81, 0
9, 9744, Note_on_c, 7, 79, 75
9, 9786, Note_off_c, 7, 79, 0
9, 9792, Note_on_c, 7, 84, 75
9, 9876, Note_off_c, 7, 84, 0
9, 9888, Note_on_c, 7, 77, 75
9, 9930, Note_off_c, 7, 77, 0
9, 9936, Note_on_c, 7, 79, 75
9, 9978, Note_off_c, 7, 79, 0
9, 9984, Note_on_c, 7, 76, 75
9, 10116, Note_off_c, 7, 76, 0
9, 10128, Note_on_c, 7, 77, 75
9, 10170, Note_off_c, 7, 77, 0
9, 10176, Note_on_c, 7, 77, 75
9, 10452, Note_off_c, 7, 77, 0
9, 10464, Note_on_c, 7, 79, 75
9, 10548, Note_off_c, 7, 79, 0
9, 10560, Note_on_c, 7, 82, 75
9, 10644, Note_off_c, 7, 82, 0
9, 10656, Note_on_c, 7, 81, 75
9, 10740, Note_off_c, 7, 81, 0
9, 10752, Note_on_c, 7, 79, 75
9, 10836, Note_off_c, 7, 79, 0
9, 10848, Note_on_c, 7, 77, 75
9, 10890, Note_off_c, 7, 77, 0
9, 10896, Note_on_c, 7, 76, 75
9, 10938, Note_off_c, 7, 76, 0
9, 10944, Note_on_c, 7, 77, 75
9, 11028, Note_off_c, 7, 77, 0
9, 11040, Note_on_c, 7, 79, 75
9, 11124, Note_off_c, 7, 79, 0
9, 11136, Note_on_c, 7, 82, 75
9, 11220, Note_off_c, 7, 82, 0
9, 11232, Note_on_c, 7, 81, 75
9, 11316, Note_off_c, 7, 81, 0
9, 11328, Note_on_c, 7, 81, 75
9, 11338, Note_off_c, 7, 81, 0
9, 11340, Note_on_c, 7, 79, 75
9, 11350, Note_off_c, 7, 79, 0
9, 11352, Note_on_c, 7, 81, 75
9, 11362, Note_off_c, 7, 81, 0
9, 11364, Note_on_c, 7, 79, 75
9, 11374, Note_off_c, 7, 79, 0
9, 11376, Note_on_c, 7, 81, 75
9, 11386, Note_off_c, 7, 81, 0
9, 11388, Note_on_c, 7, 79, 75
9, 11398, Note_off_c, 7, 79, 0
9, 11400, Note_on_c, 7, 81, 75
9, 11410, Note_off_c, 7, 81, 0
9, 11412, Note_on_c, 7, 79, 75
9, 11422, Note_off_c, 7, 79, 0
9, 11424, Note_on_c, 7, 81, 75
9, 11434, Note_off_c, 7, 81, 0
9, 11436, Note_on_c, 7, 79, 75
9, 11446, Note_off_c, 7, 79, 0
9, 11448, Note_on_c, 7, 81, 75
9, 11458, Note_off_c, 7, 81, 0
9, 11460, Note_on_c, 7, 79, 75
9, 11470, Note_off_c, 7, 79, 0
9, 11472, Note_on_c, 7, 81, 75
9, 11482, Note_off_c, 7, 81, 0
9, 11484, Note_on_c, 7, 79, 75
9, 11494, Note_off_c, 7, 79, 0
9, 11496, Note_on_c, 7, 81, 75
9, 11506, Note_off_c, 7, 81, 0
9, 11508, Note_on_c, 7, 79, 75
9, 11518, Note_off_c, 7, 79, 0
9, 11520, Note_on_c, 7, 84, 75
9, 11604, Note_off_c, 7, 84, 0
9, 11616, Note_on_c, 7, 77, 75
9, 11700, Note_off_c, 7, 77, 0
9, 11712, Note_on_c, 7, 74, 75
9, 11796, Note_off_c, 7, 74, 0
9, 11808, Note_on_c, 7, 76, 75
9, 11892, Note_off_c, 7, 76, 0
9, 11904, Note_on_c, 7, 77, 75
9, 11988, Note_off_c, 7, 77, 0
9, 12000, Note_on_c, 7, 81, 75
9, 12180, Note_off_c, 7, 81, 0
9, 12192, Note_on_c, 7, 77, 75
9, 12276, Note_off_c, 7, 77, 0
9, 12288, Note_on_c, 7, 76, 75
9, 12330, Note_off_c, 7, 76, 0
9, 12336, Note_on_c, 7, 74, 75
9, 12378, Note_off_c, 7, 74, 0
9, 12384, Note_on_c, 7, 79, 75
9, 12468, Note_off_c, 7, 79, 0
9, 12480, Note_on_c, 7, 76, 75
9, 12612, Note_off_c, 7, 76, 0
9, 12624, Note_on_c, 7, 77, 75
9, 12666, Note_off_c, 7, 77, 0
9, 12672, Note_on_c, 7, 79, 75
9, 12682, Note_off_c, 7, 79, 0
9, 12684, Note_on_c, 7, 77, 75
9, 12694, Note_off_c, 7, 77, 0
9, 12696, Note_on_c, 7, 79, 75
9, 12706, Note_off_c, 7, 79, 0
9, 12708, Note_on_c, 7, 77, 75
9, 12718, Note_off_c, 7, 77, 0
9, 12720, Note_on_c, 7, 79, 75
9, 12730, Note_off_c, 7, 79, 0
9, 12732, Note_on_c, 7, 77, 75
9, 12742, Note_off_c, 7, 77, 0
9, 12744, Note_on_c, 7, 76, 75
9, 12754, Note_off_c, 7, 76, 0
9, 12756, Note_on_c, 7, 77, 75
9, 12766, Note_off_c, 7, 77, 0
9, 12768, Note_on_c, 7, 79, 75
9, 12810, Note_off_c, 7, 79, 0
9, 12816, Note_on_c, 7, 81, 75
9, 12858, Note_off_c, 7, 81, 0
9, 12864, Note_on_c, 7, 82, 75
9, 12874, Note_off_c, 7, 82, 0
9, 12876, Note_on_c, 7, 81, 75
9, 12886, Note_off_c, 7, 81, 0
9, 12888, Note_on_c, 7, 82, 75
9, 12898, Note_off_c, 7, 82, 0
9, 12900, Note_on_c, 7, 81, 75
9, 12910, Note_off_c, 7, 81, 0
9, 12912, Note_on_c, 7, 82, 75
9, 12922, Note_off_c, 7, 82, 0
9, 12924, Note_on_c, 7, 81, 75
9, 12934, Note_off_c, 7, 81, 0
9, 12936, Note_on_c, 7, 82, 75
9, 12946, Note_off_c, 7, 82, 0
9, 12948, Note_on_c, 7, 81, 75
9, 12958, Note_off_c, 7, 81, 0
9, 12960, Note_on_c, 7, 82, 75
9, 12970, Note_off_c, 7, 82, 0
9, 12972, Note_on_c, 7, 81, 75
9, 12982, Note_off_c, 7, 81, 0
9, 12984, Note_on_c, 7, 82, 75
9, 12994, Note_off_c, 7, 82, 0
9, 12996, Note_on_c, 7, 81, 75
9, 13006, Note_off_c, 7, 81, 0
9, 13008, Note_on_c, 7, 79, 75
9, 13029, Note_off_c, 7, 79, 0
9, 13032, Note_on_c, 7, 81, 75
9, 13053, Note_off_c, 7, 81, 0
9, 13056, Note_on_c, 7, 82, 75
9, 13140, Note_off_c, 7, 82, 0
9, 13152, Note_on_c, 7, 81, 75
9, 13194, Note_off_c, 7, 81, 0
9, 13200, Note_on_c, 7, 79, 75
9, 13242, Note_off_c, 7, 79, 0
9, 13248, Note_on_c, 7, 84, 75
9, 13332, Note_off_c, 7, 84, 0
9, 13344, Note_on_c, 7, 77, 75
9, 13386, Note_off_c, 7, 77, 0
9, 13392, Note_on_c, 7, 79, 75
9, 13434, Note_off_c, 7, 79, 0
9, 13440, Note_on_c, 7, 76, 75
9, 13572, Note_off_c, 7, 76, 0
9, 13584, Note_on_c, 7, 77, 75
9, 13626, Note_off_c, 7, 77, 0
9, 13632, Note_on_c, 7, 77, 75
9, 13908, Note_off_c, 7, 77, 0
9, 14112, Time_signature, 2, 2, 96, 8
9, 14208, Tempo, 500000
9, 17280, Tempo, 500000
9, 26784, Time_signature, 3, 2, 96, 8
9, 26880, Tempo, 428571
9, 26880, Note_on_c, 7, 72, 75
9, 26964, Note_off_c, 7, 72, 0
9, 26976, Note_on_c, 7, 75, 75
9, 27060, Note_off_c, 7, 75, 0
9, 27072, Note_on_c, 7, 74, 75
9, 27156, Note_off_c, 7, 74, 0
9, 27168, Note_on_c, 7, 72, 75
9, 27252, Note_off_c, 7, 72, 0
9, 27264, Note_on_c, 7, 70, 75
9, 27306, Note_off_c, 7, 70, 0
9, 27312, Note_on_c, 7, 69, 75
9, 27354, Note_off_c, 7, 69, 0
9, 27360, Note_on_c, 7, 70, 75
9, 27444, Note_off_c, 7, 70, 0
9, 27456, Note_on_c, 7, 72, 75
9, 27540, Note_off_c, 7, 72, 0
9, 27552, Note_on_c, 7, 75, 75
9, 27636, Note_off_c, 7, 75, 0
9, 27648, Note_on_c, 7, 74, 75
9, 27732, Note_off_c, 7, 74, 0
9, 27744, Note_on_c, 7, 74, 75
9, 27754, Note_off_c, 7, 74, 0
9, 27756, Note_on_c, 7, 72, 75
9, 27766, Note_off_c, 7, 72, 0
9, 27768, Note_on_c, 7, 74, 75
9, 27778, Note_off_c, 7, 74, 0
9, 27780, Note_on_c, 7, 72, 75
9, 27790, Note_off_c, 7, 72, 0
9, 27792, Note_on_c, 7, 74, 75
9, 27802, Note_off_c, 7, 74, 0
9, 27804, Note_on_c, 7, 72, 75
9, 27814, Note_off_c, 7, 72, 0
9, 27816, Note_on_c, 7, 74, 75
9, 27826, Note_off_c, 7, 74, 0
9, 27828, Note_on_c, 7, 72, 75
9, 27838, Note_off_c, 7, 72, 0
9, 27840, Note_on_c, 7, 74, 75
9, 27850, Note_off_c, 7, 74, 0
9, 27852, Note_on_c, 7, 72, 75
9, 27862, Note_off_c, 7, 72, 0
9, 27864, Note_on_c, 7, 74, 75
9, 27874, Note_off_c, 7, 74, 0
9, 27876, Note_on_c, 7, 72, 75
9, 27886, Note_off_c, 7, 72, 0
9, 27888, Note_on_c, 7, 74, 75
9, 27898, Note_off_c, 7, 74, 0
9, 27900, Note_on_c, 7, 72, 75
9, 27910, Note_off_c, 7, 72, 0
9, 27912, Note_on_c, 7, 74, 75
9, 27922, Note_off_c, 7, 74, 0
9, 27924, Note_on_c, 7, 72, 75
9, 27934, Note_off_c, 7, 72, 0
9, 27936, Note_on_c, 7, 77, 75
9, 28020, Note_off_c, 7, 77, 0
9, 28032, Note_on_c, 7, 70, 75
9, 28116, Note_off_c, 7, 70, 0
9, 28128, Note_on_c, 7, 67, 75
9, 28212, Note_off_c, 7, 67, 0
9, 28224, Note_on_c, 7, 69, 75
9, 28308, Note_off_c, 7, 69, 0
9, 28320, Note_on_c, 7, 70, 75
9, 28404, Note_off_c, 7, 70, 0
9, 28416, Note_on_c, 7, 74, 75
9, 28596, Note_off_c, 7, 74, 0
9, 28608, Note_on_c, 7, 72, 75
9, 28618, Note_off_c, 7, 72, 0
9, 28620, Note_on_c, 7, 70, 75
9, 28630, Note_off_c, 7, 70, 0
9, 28632, Note_on_c, 7, 72, 75
9, 28642, Note_off_c, 7, 72, 0
9, 28644, Note_on_c, 7, 70, 75
9, 28654, Note_off_c, 7, 70, 0
9, 28656, Note_on_c, 7, 72, 75
9, 28666, Note_off_c, 7, 72, 0
9, 28668, Note_on_c, 7, 70, 75
9, 28678, Note_off_c, 7, 70, 0
9, 28680, Note_on_c, 7, 72, 75
9, 28690, Note_off_c, 7, 72, 0
9, 28692, Note_on_c, 7, 70, 75
9, 28702, Note_off_c, 7, 70, 0
9, 28704, Note_on_c, 7, 69, 75
9, 28746, Note_off_c, 7, 69, 0
9, 28752, Note_on_c, 7, 67, 75
9, 28794, Note_off_c, 7, 67, 0
9, 28800, Note_on_c, 7, 72, 75
9, 28884, Note_off_c, 7, 72, 0
9, 28896, Note_on_c, 7, 70, 75
9, 28906, Note_off_c, 7, 70, 0
9, 28908, Note_on_c, 7, 69, 75
9, 28918, Note_off_c, 7, 69, 0
9, 28920, Note_on_c, 7, 70, 75
9, 28930, Note_off_c, 7, 70, 0
9, 28932, Note_on_c, 7, 69, 75
9, 28942, Note_off_c, 7, 69, 0
9, 28944, Note_on_c, 7, 70, 75
9, 28954, Note_off_c, 7, 70, 0
9, 28956, Note_on_c, 7, 69, 75
9, 28966, Note_off_c, 7, 69, 0
9, 28968, Note_on_c, 7, 70, 75
9, 28978, Note_off_c, 7, 70, 0
9, 28980, Note_on_c, 7, 69, 75
9, 28990, Note_off_c, 7, 69, 0
9, 28992, Note_on_c, 7, 70, 75
9, 29002, Note_off_c, 7, 70, 0
9, 29004, Note_on_c, 7, 69, 75
9, 29014, Note_off_c, 7, 69, 0
9, 29016, Note_on_c, 7, 70, 75
9, 29026, Note_off_c, 7, 70, 0
9, 29028, Note_on_c, 7, 69, 75
9, 29038, Note_off_c, 7, 69, 0
9, 29040, Note_on_c, 7, 70, 75
9, 29050, Note_off_c, 7, 70, 0
9, 29052, Note_on_c, 7, 69, 75
9, 29062, Note_off_c, 7, 69, 0
9, 29064, Note_on_c, 7, 70, 75
9, 29074, Note_off_c, 7, 70, 0
9, 29076, Note_on_c, 7, 69, 75
9, 29086, Note_off_c, 7, 69, 0
9, 29088, Note_on_c, 7, 67, 75
9, 29172, Note_off_c, 7, 67, 0
9, 29184, Note_on_c, 7, 71, 75
9, 29226, Note_off_c, 7, 71, 0
9, 29232, Note_on_c, 7, 72, 75
9, 29274, Note_off_c, 7, 72, 0
9, 29280, Note_on_c, 7, 74, 75
9, 29290, Note_off_c, 7, 74, 0
9, 29292, Note_on_c, 7, 72, 75
9, 29302, Note_off_c, 7, 72, 0
9, 29304, Note_on_c, 7, 74, 75
9, 29314, Note_off_c, 7, 74, 0
9, 29316, Note_on_c, 7, 72, 75
9, 29326, Note_off_c, 7, 72, 0
9, 29328, Note_on_c, 7, 74, 75
9, 29338, Note_off_c, 7, 74, 0
9, 29340, Note_on_c, 7, 72, 75
9, 29350, Note_off_c, 7, 72, 0
9, 29352, Note_on_c, 7, 74, 75
9, 29362, Note_off_c, 7, 74, 0
9, 29364, Note_on_c, 7, 72, 75
9, 29374, Note_off_c, 7, 72, 0
9, 29376, Note_on_c, 7, 74, 75
9, 29386, Note_off_c, 7, 74, 0
9, 29388, Note_on_c, 7, 72, 75
9, 29398, Note_off_c, 7, 72, 0
9, 29400, Note_on_c, 7, 74, 75
9, 29410, Note_off_c, 7, 74, 0
9, 29412, Note_on_c, 7, 72, 75
9, 29422, Note_off_c, 7, 72, 0
9, 29424, Note_on_c, 7, 71, 75
9, 29445, Note_off_c, 7, 71, 0
9, 29448, Note_on_c, 7, 72, 75
9, 29469, Note_off_c, 7, 72, 0
9, 29472, Note_on_c, 7, 74, 75
9, 29556, Note_off_c, 7, 74, 0
9, 29568, Note_on_c, 7, 72, 75
9, 29610, Note_off_c, 7, 72, 0
9, 29616, Note_on_c, 7, 71, 75
9, 29658, Note_off_c, 7, 71, 0
9, 29664, Note_on_c, 7, 72, 75
9, 29748, Note_off_c, 7, 72, 0
9, 29760, Note_on_c, 7, 77, 75
9, 29802, Note_off_c, 7, 77, 0
9, 29808, Note_on_c, 7, 79, 75
9, 29850, Note_off_c, 7, 79, 0
9, 29856, Note_on_c, 7, 74, 75
9, 29988, Note_off_c, 7, 74, 0
9, 30000, Note_on_c, 7, 72, 75
9, 30042, Note_off_c, 7, 72, 0
9, 30048, Note_on_c, 7, 72, 75
9, 30324, Note_off_c, 7, 72, 0
9, 30336, Note_on_c, 7, 72, 75
9, 30420, Note_off_c, 7, 72, 0
9, 30432, Note_on_c, 7, 75, 75
9, 30516, Note_off_c, 7, 75, 0
9, 30528, Note_on_c, 7, 74, 75
9, 30612, Note_off_c, 7, 74, 0
9, 30624, Note_on_c, 7, 72, 75
9, 30708, Note_off_c, 7, 72, 0
9, 30720, Note_on_c, 7, 70, 75
9, 30762, Note_off_c, 7, 70, 0
9, 30768, Note_on_c, 7, 69, 75
9, 30810, Note_off_c, 7, 69, 0
9, 30816, Note_on_c, 7, 70, 75
9, 30900, Note_off_c, 7, 70, 0
9, 30912, Note_on_c, 7, 72, 75
9, 30996, Note_off_c, 7, 72, 0
9, 31008, Note_on_c, 7, 75, 75
9, 31092, Note_off_c, 7, 75, 0
9, 31104, Note_on_c, 7, 74, 75
9, 31188, Note_off_c, 7, 74, 0
9, 31200, Note_on_c, 7, 74, 75
9, 31210, Note_off_c, 7, 74, 0
9, 31212, Note_on_c, 7, 72, 75
9, 31222, Note_off_c, 7, 72, 0
9, 31224, Note_on_c, 7, 74, 75
9, 31234, Note_off_c, 7, 74, 0
9, 31236, Note_on_c, 7, 72, 75
9, 31246, Note_off_c, 7, 72, 0
9, 31248, Note_on_c, 7, 74, 75
9, 31258, Note_off_c, 7, 74, 0
9, 31260, Note_on_c, 7, 72, 75
9, 31270, Note_off_c, 7, 72, 0
9, 31272, Note_on_c, 7, 74, 75
9, 31282, Note_off_c, 7, 74, 0
9, 31284, Note_on_c, 7, 72, 75
9, 31294, Note_off_c, 7, 72, 0
9, 31296, Note_on_c, 7, 74, 75
9, 31306, Note_off_c, 7, 74, 0
9, 31308, Note_on_c, 7, 72, 75
9, 31318, Note_off_c, 7, 72, 0
9, 31320, Note_on_c, 7, 74, 75
9, 31330, Note_off_c, 7, 74, 0
9, 31332, Note_on_c, 7, 72, 75
9, 31342, Note_off_c, 7, 72, 0
9, 31344, Note_on_c, 7, 74, 75
9, 31354, Note_off_c, 7, 74, 0
9, 31356, Note_on_c, 7, 72, 75
9, 31366, Note_off_c, 7, 72, 0
9, 31368, Note_on_c, 7, 74, 75
9, 31378, Note_off_c, 7, 74, 0
9, 31380, Note_on_c, 7, 72, 75
9, 31390, Note_off_c, 7, 72, 0
9, 31392, Note_on_c, 7, 77, 75
9, 31476, Note_off_c, 7, 77, 0
9, 31488, Note_on_c, 7, 70, 75
9, 31572, Note_off_c, 7, 70, 0
9, 31584, Note_on_c, 7, 67, 75
9, 31668, Note_off_c, 7, 67, 0
9, 31680, Note_on_c, 7, 69, 75
9, 31764, Note_off_c, 7, 69, 0
9, 31776, Note_on_c, 7, 70, 75
9, 31860, Note_off_c, 7, 70, 0
9, 31872, Note_on_c, 7, 74, 75
9, 32052, Note_off_c, 7, 74, 0
9, 32064, Note_on_c, 7, 72, 75
9, 32074, Note_off_c, 7, 72, 0
9, 32076, Note_on_c, 7, 70, 75
9, 32086, Note_off_c, 7, 70, 0
9, 32088, Note_on_c, 7, 72, 75
9, 32098, Note_off_c, 7, 72, 0
9, 32100, Note_on_c, 7, 70, 75
9, 32110, Note_off_c, 7, 70, 0
9, 32112, Note_on_c, 7, 72, 75
9, 32122, Note_off_c, 7, 72, 0
9, 32124, Note_on_c, 7, 70, 75
9, 32134, Note_off_c, 7, 70, 0
9, 32136, Note_on_c, 7, 72, 75
9, 32146, Note_off_c, 7, 72, 0
9, 32148, Note_on_c, 7, 70, 75
9, 32158, Note_off_c, 7, 70, 0
9, 32160, Note_on_c, 7, 69, 75
9, 32202, Note_off_c, 7, 69, 0
9, 32208, Note_on_c, 7, 67, 75
9, 32250, Note_off_c, 7, 67, 0
9, 32256, Note_on_c, 7, 72, 75
9, 32340, Note_off_c, 7, 72, 0
9, 32352, Note_on_c, 7, 70, 75
9, 32362, Note_off_c, 7, 70, 0
9, 32364, Note_on_c, 7, 69, 75
9, 32374, Note_off_c, 7, 69, 0
9, 32376, Note_on_c, 7, 70, 75
9, 32386, Note_off_c, 7, 70, 0
9, 32388, Note_on_c, 7, 69, 75
9, 32398, Note_off_c, 7, 69, 0
9, 32400, Note_on_c, 7, 70, 75
9, 32410, Note_off_c, 7, 70, 0
9, 32412, Note_on_c, 7, 69, 75
9, 32422, Note_off_c, 7, 69, 0
9, 32424, Note_on_c, 7, 70, 75
9, 32434, Note_off_c, 7, 70, 0
9, 32436, Note_on_c, 7, 69, 75
9, 32446, Note_off_c, 7, 69, 0
9, 32448, Note_on_c, 7, 70, 75
9, 32458, Note_off_c, 7, 70, 0
9, 32460, Note_on_c, 7, 69, 75
9, 32470, Note_off_c, 7, 69, 0
9, 32472, Note_on_c, 7, 70, 75
9, 32482, Note_off_c, 7, 70, 0
9, 32484, Note_on_c, 7, 69, 75
9, 32494, Note_off_c, 7, 69, 0
9, 32496, Note_on_c, 7, 70, 75
9, 32506, Note_off_c, 7, 70, 0
9, 32508, Note_on_c, 7, 69, 75
9, 32518, Note_off_c, 7, 69, 0
9, 32520, Note_on_c, 7, 70, 75
9, 32530, Note_off_c, 7, 70, 0
9, 32532, Note_on_c, 7, 69, 75
9, 32542, Note_off_c, 7, 69, 0
9, 32544, Note_on_c, 7, 67, 75
9, 32628, Note_off_c, 7, 67, 0
9, 32640, Note_on_c, 7, 71, 75
9, 32682, Note_off_c, 7, 71, 0
9, 32688, Note_on_c, 7, 72, 75
9, 32730, Note_off_c, 7, 72, 0
9, 32736, Note_on_c, 7, 74, 75
9, 32746, Note_off_c, 7, 74, 0
9, 32748, Note_on_c, 7, 72, 75
9, 32758, Note_off_c, 7, 72, 0
9, 32760, Note_on_c, 7, 74, 75
9, 32770, Note_off_c, 7, 74, 0
9, 32772, Note_on_c, 7, 72, 75
9, 32782, Note_off_c, 7, 72, 0
9, 32784, Note_on_c, 7, 74, 75
9, 32794, Note_off_c, 7, 74, 0
9, 32796, Note_on_c, 7, 72, 75
9, 32806, Note_off_c, 7, 72, 0
9, 32808, Note_on_c, 7, 74, 75
9, 32818, Note_off_c, 7, 74, 0
9, 32820, Note_on_c, 7, 72, 75
9, 32830, Note_off_c, 7, 72, 0
9, 32832, Note_on_c, 7, 74, 75
9, 32842, Note_off_c, 7, 74, 0
9, 32844, Note_on_c, 7, 72, 75
9, 32854, Note_off_c, 7, 72, 0
9, 32856, Note_on_c, 7, 74, 75
9, 32866, Note_off_c, 7, 74, 0
9, 32868, Note_on_c, 7, 72, 75
9, 32878, Note_off_c, 7, 72, 0
9, 32880, Note_on_c, 7, 71, 75
9, 32901, Note_off_c, 7, 71, 0
9, 32904, Note_on_c, 7, 72, 75
9, 32925, Note_off_c, 7, 72, 0
9, 32928, Note_on_c, 7, 74, 75
9, 33012, Note_off_c, 7, 74, 0
9, 33024, Note_on_c, 7, 72, 75
9, 33066, Note_off_c, 7, 72, 0
9, 33072, Note_on_c, 7, 71, 75
9, 33114, Note_off_c, 7, 71, 0
9, 33120, Note_on_c, 7, 72, 75
9, 33204, Note_off_c, 7, 72, 0
9, 33216, Note_on_c, 7, 77, 75
9, 33258, Note_off_c, 7, 77, 0
9, 33264, Note_on_c, 7, 79, 75
9, 33306, Note_off_c, 7, 79, 0
9, 33312, Note_on_c, 7, 74, 75
9, 33444, Note_off_c, 7, 74, 0
9, 33456, Note_on_c, 7, 72, 75
9, 33498, Note_off_c, 7, 72, 0
9, 33504, Note_on_c, 7, 72, 75
9, 33780, Note_off_c, 7, 72, 0
9, 33792, Note_on_c, 7, 79, 75
9, 33876, Note_off_c, 7, 79, 0
9, 33888, Note_on_c, 7, 82, 75
9, 33972, Note_off_c, 7, 82, 0
9, 33984, Note_on_c, 7, 81, 75
9, 34068, Note_off_c, 7, 81, 0
9, 34080, Note_on_c, 7, 79, 75
9, 34164, Note_off_c, 7, 79, 0
9, 34176, Note_on_c, 7, 77, 75
9, 34218, Note_off_c, 7, 77, 0
9, 34224, Note_on_c, 7, 76, 75
9, 34266, Note_off_c, 7, 76, 0
9, 34272, Note_on_c, 7, 77, 75
9, 34356, Note_off_c, 7, 77, 0
9, 34368, Note_on_c, 7, 79, 75
9, 34452, Note_off_c, 7, 79, 0
9, 34464, Note_on_c, 7, 82, 75
9, 34548, Note_off_c, 7, 82, 0
9, 34560, Note_on_c, 7, 81, 75
9, 34644, Note_off_c, 7, 81, 0
9, 34656, Note_on_c, 7, 81, 75
9, 34666, Note_off_c, 7, 81, 0
9, 34668, Note_on_c, 7, 79, 75
9, 34678, Note_off_c, 7, 79, 0
9, 34680, Note_on_c, 7, 81, 75
9, 34690, Note_off_c, 7, 81, 0
9, 34692, Note_on_c, 7, 79, 75
9, 34702, Note_off_c, 7, 79, 0
9, 34704, Note_on_c, 7, 81, 75
9, 34714, Note_off_c, 7, 81, 0
9, 34716, Note_on_c, 7, 79, 75
9, 34726, Note_off_c, 7, 79, 0
9, 34728, Note_on_c, 7, 81, 75
9, 34738, Note_off_c, 7, 81, 0
9, 34740, Note_on_c, 7, 79, 75
9, 34750, Note_off_c, 7, 79, 0
9, 34752, Note_on_c, 7, 81, 75
9, 34762, Note_off_c, 7, 81, 0
9, 34764, Note_on_c, 7, 79, 75
9, 34774, Note_off_c, 7, 79, 0
9, 34776, Note_on_c, 7, 81, 75
9, 34786, Note_off_c, 7, 81, 0
9, 34788, Note_on_c, 7, 79, 75
9, 34798, Note_off_c, 7, 79, 0
9, 34800, Note_on_c, 7, 81, 75
9, 34810, Note_off_c, 7, 81, 0
9, 34812, Note_on_c, 7, 79, 75
9, 34822, Note_off_c, 7, 79, 0
9, 34824, Note_on_c, 7, 81, 75
9, 34834, Note_off_c, 7, 81, 0
9, 34836, Note_on_c, 7, 79, 75
9, 34846, Note_off_c, 7, 79, 0
9, 34848, Note_on_c, 7, 84, 75
9, 34932, Note_off_c, 7, 84, 0
9, 34944, Note_on_c, 7, 77, 75
9, 35028, Note_off_c, 7, 77, 0
9, 35040, Note_on_c, 7, 74, 75
9, 35124, Note_off_c, 7, 74, 0
9, 35136, Note_on_c, 7, 76, 75
9, 35220, Note_off_c, 7, 76, 0
9, 35232, Note_on_c, 7, 77, 75
9, 35316, Note_off_c, 7, 77, 0
9, 35328, Note_on_c, 7, 81, 75
9, 35508, Note_off_c, 7, 81, 0
9, 35520, Note_on_c, 7, 77, 75
9, 35604, Note_off_c, 7, 77, 0
9, 35616, Note_on_c, 7, 76, 75
9, 35658, Note_off_c, 7, 76, 0
9, 35664, Note_on_c, 7, 74, 75
9, 35706, Note_off_c, 7, 74, 0
9, 35712, Note_on_c, 7, 79, 75
9, 35796, Note_off_c, 7, 79, 0
9, 35808, Note_on_c, 7, 76, 75
9, 35940, Note_off_c, 7, 76, 0
9, 35952, Note_on_c, 7, 77, 75
9, 35994, Note_off_c, 7, 77, 0
9, 36000, Note_on_c, 7, 79, 75
9, 36010, Note_off_c, 7, 79, 0
9, 36012, Note_on_c, 7, 77, 75
9, 36022, Note_off_c, 7, 77, 0
9, 36024, Note_on_c, 7, 79, 75
9, 36034, Note_off_c, 7, 79, 0
9, 36036, Note_on_c, 7, 77, 75
9, 36046, Note_off_c, 7, 77, 0
9, 36048, Note_on_c, 7, 79, 75
9, 36058, Note_off_c, 7, 79, 0
9, 36060, Note_on_c, 7, 77, 75
9, 36070, Note_off_c, 7, 77, 0
9, 36072, Note_on_c, 7, 76, 75
9, 36082, Note_off_c, 7, 76, 0
9, 36084, Note_on_c, 7, 77, 75
9, 36094, Note_off_c, 7, 77, 0
9, 36096, Note_on_c, 7, 79, 75
9, 36138, Note_off_c, 7, 79, 0
9, 36144, Note_on_c, 7, 81, 75
9, 36186, Note_off_c, 7, 81, 0
9, 36192, Note_on_c, 7, 82, 75
9, 36202, Note_off_c, 7, 82, 0
9, 36204, Note_on_c, 7, 81, 75
9, 36214, Note_off_c, 7, 81, 0
9, 36216, Note_on_c, 7, 82, 75
9, 36226, Note_off_c, 7, 82, 0
9, 36228, Note_on_c, 7, 81, 75
9, 36238, Note_off_c, 7, 81, 0
9, 36240, Note_on_c, 7, 82, 75
9, 36250, Note_off_c, 7, 82, 0
9, 36252, Note_on_c, 7, 81, 75
9, 36262, Note_off_c, 7, 81, 0
9, 36264, Note_on_c, 7, 82, 75
9, 36274, Note_off_c, 7, 82, 0
9, 36276, Note_on_c, 7, 81, 75
9, 36286, Note_off_c, 7, 81, 0
9, 36288, Note_on_c, 7, 82, 75
9, 36298, Note_off_c, 7, 82, 0
9, 36300, Note_on_c, 7, 81, 75
9, 36310, Note_off_c, 7, 81, 0
9, 36312, Note_on_c, 7, 82, 75
9, 36322, Note_off_c, 7, 82, 0
9, 36324, Note_on_c, 7, 81, 75
9, 36334, Note_off_c, 7, 81, 0
9, 36336, Note_on_c, 7, 79, 75
9, 36357, Note_off_c, 7, 79, 0
9, 36360, Note_on_c, 7, 81, 75
9, 36381, Note_off_c, 7, 81, 0
9, 36384, Note_on_c, 7, 82, 75
9, 36468, Note_off_c, 7, 82, 0
9, 36480, Note_on_c, 7, 81, 75
9, 36522, Note_off_c, 7, 81, 0
9, 36528, Note_on_c, 7, 79, 75
9, 36570, Note_off_c, 7, 79, 0
9, 36576, Note_on_c, 7, 84, 75
9, 36660, Note_off_c, 7, 84, 0
9, 36672, Note_on_c, 7, 77, 75
9, 36714, Note_off_c, 7, 77, 0
9, 36720, Note_on_c, 7, 79, 75
9, 36762, Note_off_c, 7, 79, 0
9, 36768, Note_on_c, 7, 76, 75
9, 36900, Note_off_c, 7, 76, 0
9, 36912, Note_on_c, 7, 77, 75
9, 36954, Note_off_c, 7, 77, 0
9, 36960, Note_on_c, 7, 77, 75
9, 37236, Note_off_c, 7, 77, 0
9, 37248, Note_on_c, 7, 79, 75
9, 37332, Note_off_c, 7, 79, 0
9, 37344, Note_on_c, 7, 82, 75
9, 37428, Note_off_c, 7, 82, 0
9, 37440, Note_on_c, 7, 81, 75
9, 37524, Note_off_c, 7, 81, 0
9, 37536, Note_on_c, 7, 79, 75
9, 37620, Note_off_c, 7, 79, 0
9, 37632, Note_on_c, 7, 77, 75
9, 37674, Note_off_c, 7, 77, 0
9, 37680, Note_on_c, 7, 76, 75
9, 37722, Note_off_c, 7, 76, 0
9, 37728, Note_on_c, 7, 77, 75
9, 37812, Note_off_c, 7, 77, 0
9, 37824, Note_on_c, 7, 79, 75
9, 37908, Note_off_c, 7, 79, 0
9, 37920, Note_on_c, 7, 82, 75
9, 38004, Note_off_c, 7, 82, 0
9, 38016, Note_on_c, 7, 81, 75
9, 38100, Note_off_c, 7, 81, 0
9, 38112, Note_on_c, 7, 81, 75
9, 38122, Note_off_c, 7, 81, 0
9, 38124, Note_on_c, 7, 79, 75
9, 38134, Note_off_c, 7, 79, 0
9, 38136, Note_on_c, 7, 81, 75
9, 38146, Note_off_c, 7, 81, 0
9, 38148, Note_on_c, 7, 79, 75
9, 38158, Note_off_c, 7, 79, 0
9, 38160, Note_on_c, 7, 81, 75
9, 38170, Note_off_c, 7, 81, 0
9, 38172, Note_on_c, 7, 79, 75
9, 38182, Note_off_c, 7, 79, 0
9, 38184, Note_on_c, 7, 81, 75
9, 38194, Note_off_c, 7, 81, 0
9, 38196, Note_on_c, 7, 79, 75
9, 38206, Note_off_c, 7, 79, 0
9, 38208, Note_on_c, 7, 81, 75
9, 38218, Note_off_c, 7, 81, 0
9, 38220, Note_on_c, 7, 79, 75
9, 38230, Note_off_c, 7, 79, 0
9, 38232, Note_on_c, 7, 81, 75
9, 38242, Note_off_c, 7, 81, 0
9, 38244, Note_on_c, 7, 79, 75
9, 38254, Note_off_c, 7, 79, 0
9, 38256, Note_on_c, 7, 81, 75
9, 38266, Note_off_c, 7, 81, 0
9, 38268, Note_on_c, 7, 79, 75
9, 38278, Note_off_c, 7, 79, 0
9, 38280, Note_on_c, 7, 81, 75
9, 38290, Note_off_c, 7, 81, 0
9, 38292, Note_on_c, 7, 79, 75
9, 38302, Note_off_c, 7, 79, 0
9, 38304, Note_on_c, 7, 84, 75
9, 38388, Note_off_c, 7, 84, 0
9, 38400, Note_on_c, 7, 77, 75
9, 38484, Note_off_c, 7, 77, 0
9, 38496, Note_on_c, 7, 74, 75
9, 38580, Note_off_c, 7, 74, 0
9, 38592, Note_on_c, 7, 76, 75
9, 38676, Note_off_c, 7, 76, 0
9, 38688, Note_on_c, 7, 77, 75
9, 38772, Note_off_c, 7, 77, 0
9, 38784, Note_on_c, 7, 81, 75
9, 38964, Note_off_c, 7, 81, 0
9, 38976, Note_on_c, 7, 77, 75
9, 39060, Note_off_c, 7, 77, 0
9, 39072, Note_on_c, 7, 76, 75
9, 39114, Note_off_c, 7, 76, 0
9, 39120, Note_on_c, 7, 74, 75
9, 39162, Note_off_c, 7, 74, 0
9, 39168, Note_on_c, 7, 79, 75
9, 39252, Note_off_c, 7, 79, 0
9, 39264, Note_on_c, 7, 76, 75
9, 39396, Note_off_c, 7, 76, 0
9, 39408, Note_on_c, 7, 77, 75
9, 39450, Note_off_c, 7, 77, 0
9, 39456, Note_on_c, 7, 79, 75
9, 39466, Note_off_c, 7, 79, 0
9, 39468, Note_on_c, 7, 77, 75
9, 39478, Note_off_c, 7, 77, 0
9, 39480, Note_on_c, 7, 79, 75
9, 39490, Note_off_c, 7, 79, 0
9, 39492, Note_on_c, 7, 77, 75
9, 39502, Note_off_c, 7, 77, 0
9, 39504, Note_on_c, 7, 79, 75
9, 39514, Note_off_c, 7, 79, 0
9, 39516, Note_on_c, 7, 77, 75
9, 39526, Note_off_c, 7, 77, 0
9, 39528, Note_on_c, 7, 76, 75
9, 39538, Note_off_c, 7, 76, 0
9, 39540, Note_on_c, 7, 77, 75
9, 39550, Note_off_c, 7, 77, 0
9, 39552, Note_on_c, 7, 79, 75
9, 39594, Note_off_c, 7, 79, 0
9, 39600, Note_on_c, 7, 81, 75
9, 39642, Note_off_c, 7, 81, 0
9, 39648, Note_on_c, 7, 82, 75
9, 39658, Note_off_c, 7, 82, 0
9, 39660, Note_on_c, 7, 81, 75
9, 39670, Note_off_c, 7, 81, 0
9, 39672, Note_on_c, 7, 82, 75
9, 39682, Note_off_c, 7, 82, 0
9, 39684, Note_on_c, 7, 81, 75
9, 39694, Note_off_c, 7, 81, 0
9, 39696, Note_on_c, 7, 82, 75
9, 39706, Note_off_c, 7, 82, 0
9, 39708, Note_on_c, 7, 81, 75
9, 39718, Note_off_c, 7, 81, 0
9, 39720, Note_on_c, 7, 82, 75
9, 39730, Note_off_c, 7, 82, 0
9, 39732, Note_on_c, 7, 81, 75
9, 39742, Note_off_c, 7, 81, 0
9, 39744, Note_on_c, 7, 82, 75
9, 39754, Note_off_c, 7, 82, 0
9, 39756, Note_on_c, 7, 81, 75
9, 39766, Note_off_c, 7, 81, 0
9, 39768, Note_on_c, 7, 82, 75
9, 39778, Note_off_c, 7, 82, 0
9, 39780, Note_on_c, 7, 81, 75
9, 39790, Note_off_c, 7, 81, 0
9, 39792, Note_on_c, 7, 79, 75
9, 39813, Note_off_c, 7, 79, 0
9, 39816, Note_on_c, 7, 81, 75
9, 39837, Note_off_c, 7, 81, 0
9, 39840, Note_on_c, 7, 82, 75
9, 39924, Note_off_c, 7, 82, 0
9, 39936, Note_on_c, 7, 81, 75
9, 39978, Note_off_c, 7, 81, 0
9, 39984, Note_on_c, 7, 79, 75
9, 40026, Note_off_c, 7, 79, 0
9, 40032, Note_on_c, 7, 84, 75
9, 40116, Note_off_c, 7, 84, 0
9, 40128, Note_on_c, 7, 77, 75
9, 40170, Note_off_c, 7, 77, 0
9, 40176, Note_on_c, 7, 79, 75
9, 40218, Note_off_c, 7, 79, 0
9, 40224, Note_on_c, 7, 76, 75
9, 40356, Note_off_c, 7, 76, 0
9, 40368, Note_on_c, 7, 77, 75
9, 40410, Note_off_c, 7, 77, 0
9, 40416, Note_on_c, 7, 77, 75
9, 40692, Note_off_c, 7, 77, 0
9, 40692, End_track
10, 0, Start_track
10, 0, Title_t, "Violin II"
10, 0, Control_c, 8, 0, 0
10, 0, Program_c, 8, 40
10, 0, Time_signature, 3, 2, 96, 8
10, 0, Tempo, 461538
10, 96, Tempo, 428571
10, 96, Note_on_c, 8, 69, 75
10, 180, Note_off_c, 8, 69, 0
10, 192, Note_on_c, 8, 72, 75
10, 276, Note_off_c, 8, 72, 0
10, 288, Note_on_c, 8, 70, 75
10, 372, Note_off_c, 8, 70, 0
10, 384, Note_on_c, 8, 69, 75
10, 468, Note_off_c, 8, 69, 0
10, 480, Note_on_c, 8, 65, 75
10, 564, Note_off_c, 8, 65, 0
10, 576, Note_on_c, 8, 65, 75
10, 660, Note_off_c, 8, 65, 0
10, 672, Note_on_c, 8, 69, 75
10, 756, Note_off_c, 8, 69, 0
10, 768, Note_on_c, 8, 72, 75
10, 852, Note_off_c, 8, 72, 0
10, 864, Note_on_c, 8, 70, 75
10, 948, Note_off_c, 8, 70, 0
10, 960, Note_on_c, 8, 72, 75
10, 1044, Note_off_c, 8, 72, 0
10, 1056, Note_on_c, 8, 70, 75
10, 1140, Note_off_c, 8, 70, 0
10, 1152, Note_on_c, 8, 69, 75
10, 1236, Note_off_c, 8, 69, 0
10, 1248, Note_on_c, 8, 67, 75
10, 1428, Note_off_c, 8, 67, 0
10, 1440, Note_on_c, 8, 65, 75
10, 1524, Note_off_c, 8, 65, 0
10, 1536, Note_on_c, 8, 64, 75
10, 1578, Note_off_c, 8, 64, 0
10, 1584, Note_on_c, 8, 65, 75
10, 1626, Note_off_c, 8, 65, 0
10, 1632, Note_on_c, 8, 67, 75
10, 1642, Note_off_c, 8, 67, 0
10, 1644, Note_on_c, 8, 65, 75
10, 1654, Note_off_c, 8, 65, 0
10, 1656, Note_on_c, 8, 67, 75
10, 1666, Note_off_c, 8, 67, 0
10, 1668, Note_on_c, 8, 65, 75
10, 1678, Note_off_c, 8, 65, 0
10, 1680, Note_on_c, 8, 67, 75
10, 1690, Note_off_c, 8, 67, 0
10, 1692, Note_on_c, 8, 65, 75
10, 1702, Note_off_c, 8, 65, 0
10, 1704, Note_on_c, 8, 67, 75
10, 1714, Note_off_c, 8, 67, 0
10, 1716, Note_on_c, 8, 65, 75
10, 1726, Note_off_c, 8, 65, 0
10, 1728, Note_on_c, 8, 67, 75
10, 1738, Note_off_c, 8, 67, 0
10, 1740, Note_on_c, 8, 65, 75
10, 1750, Note_off_c, 8, 65, 0
10, 1752, Note_on_c, 8, 67, 75
10, 1762, Note_off_c, 8, 67, 0
10, 1764, Note_on_c, 8, 65, 75
10, 1774, Note_off_c, 8, 65, 0
10, 1776, Note_on_c, 8, 64, 75
10, 1797, Note_off_c, 8, 64, 0
10, 1800, Note_on_c, 8, 65, 75
10, 1821, Note_off_c, 8, 65, 0
10, 1824, Note_on_c, 8, 67, 75
10, 1908, Note_off_c, 8, 67, 0
10, 1920, Note_on_c, 8, 65, 75
10, 2004, Note_off_c, 8, 65, 0
10, 2016, Note_on_c, 8, 64, 75
10, 2100, Note_off_c, 8, 64, 0
10, 2112, Note_on_c, 8, 65, 75
10, 2292, Note_off_c, 8, 65, 0
10, 2304, Note_on_c, 8, 67, 75
10, 2388, Note_off_c, 8, 67, 0
10, 2400, Note_on_c, 8, 65, 75
10, 2484, Note_off_c, 8, 65, 0
10, 2496, Note_on_c, 8, 67, 75
10, 2676, Note_off_c, 8, 67, 0
10, 2688, Note_on_c, 8, 67, 75
10, 2868, Note_off_c, 8, 67, 0
10, 2880, Note_on_c, 8, 67, 75
10, 2964, Note_off_c, 8, 67, 0
10, 2976, Note_on_c, 8, 69, 75
10, 3018, Note_off_c, 8, 69, 0
10, 3024, Note_on_c, 8, 71, 75
10, 3066, Note_off_c, 8, 71, 0
10, 3072, Note_on_c, 8, 71, 75
10, 3204, Note_off_c, 8, 71, 0
10, 3216, Note_on_c, 8, 67, 75
10, 3258, Note_off_c, 8, 67, 0
10, 3264, Note_on_c, 8, 67, 75
10, 3540, Note_off_c, 8, 67, 0
10, 3552, Note_on_c, 8, 69, 75
10, 3636, Note_off_c, 8, 69, 0
10, 3648, Note_on_c, 8, 72, 75
10, 3732, Note_off_c, 8, 72, 0
10, 3744, Note_on_c, 8, 70, 75
10, 3828, Note_off_c, 8, 70, 0
10, 3840, Note_on_c, 8, 69, 75
10, 3924, Note_off_c, 8, 69, 0
10, 3936, Note_on_c, 8, 65, 75
10, 4020, Note_off_c, 8, 65, 0
10, 4032, Note_on_c, 8, 65, 75
10, 4116, Note_off_c, 8, 65, 0
10, 4128, Note_on_c, 8, 69, 75
10, 4212, Note_off_c, 8, 69, 0
10, 4224, Note_on_c, 8, 72, 75
10, 4308, Note_off_c, 8, 72, 0
10, 4320, Note_on_c, 8, 70, 75
10, 4404, Note_off_c, 8, 70, 0
10, 4416, Note_on_c, 8, 72, 75
10, 4500, Note_off_c, 8, 72, 0
10, 4512, Note_on_c, 8, 70, 75
10, 4596, Note_off_c, 8, 70, 0
10, 4608, Note_on_c, 8, 69, 75
10, 4692, Note_off_c, 8, 69, 0
10, 4704, Note_on_c, 8, 67, 75
10, 4884, Note_off_c, 8, 67, 0
10, 4896, Note_on_c, 8, 65, 75
10, 4980, Note_off_c, 8, 65, 0
10, 4992, Note_on_c, 8, 64, 75
10, 5034, Note_off_c, 8, 64, 0
10, 5040, Note_on_c, 8, 65, 75
10, 5082, Note_off_c, 8, 65, 0
10, 5088, Note_on_c, 8, 67, 75
10, 5098, Note_off_c, 8, 67, 0
10, 5100, Note_on_c, 8, 65, 75
10, 5110, Note_off_c, 8, 65, 0
10, 5112, Note_on_c, 8, 67, 75
10, 5122, Note_off_c, 8, 67, 0
10, 5124, Note_on_c, 8, 65, 75
10, 5134, Note_off_c, 8, 65, 0
10, 5136, Note_on_c, 8, 67, 75
10, 5146, Note_off_c, 8, 67, 0
10, 5148, Note_on_c, 8, 65, 75
10, 5158, Note_off_c, 8, 65, 0
10, 5160, Note_on_c, 8, 67, 75
10, 5170, Note_off_c, 8, 67, 0
10, 5172, Note_on_c, 8, 65, 75
10, 5182, Note_off_c, 8, 65, 0
10, 5184, Note_on_c, 8, 67, 75
10, 5194, Note_off_c, 8, 67, 0
10, 5196, Note_on_c, 8, 65, 75
10, 5206, Note_off_c, 8, 65, 0
10, 5208, Note_on_c, 8, 67, 75
10, 5218, Note_off_c, 8, 67, 0
10, 5220, Note_on_c, 8, 65, 75
10, 5230, Note_off_c, 8, 65, 0
10, 5232, Note_on_c, 8, 64, 75
10, 5253, Note_off_c, 8, 64, 0
10, 5256, Note_on_c, 8, 65, 75
10, 5277, Note_off_c, 8, 65, 0
10, 5280, Note_on_c, 8, 67, 75
10, 5364, Note_off_c, 8, 67, 0
10, 5376, Note_on_c, 8, 65, 75
10, 5460, Note_off_c, 8, 65, 0
10, 5472, Note_on_c, 8, 64, 75
10, 5556, Note_off_c, 8, 64, 0
10, 5568, Note_on_c, 8, 65, 75
10, 5748, Note_off_c, 8, 65, 0
10, 5760, Note_on_c, 8, 67, 75
10, 5844, Note_off_c, 8, 67, 0
10, 5856, Note_on_c, 8, 65, 75
10, 5940, Note_off_c, 8, 65, 0
10, 5952, Note_on_c, 8, 67, 75
10, 6132, Note_off_c, 8, 67, 0
10, 6144, Note_on_c, 8, 67, 75
10, 6324, Note_off_c, 8, 67, 0
10, 6336, Note_on_c, 8, 67, 75
10, 6420, Note_off_c, 8, 67, 0
10, 6432, Note_on_c, 8, 69, 75
10, 6474, Note_off_c, 8, 69, 0
10, 6480, Note_on_c, 8, 71, 75
10, 6522, Note_off_c, 8, 71, 0
10, 6528, Note_on_c, 8, 71, 75
10, 6660, Note_off_c, 8, 71, 0
10, 6672, Note_on_c, 8, 67, 75
10, 6714, Note_off_c, 8, 67, 0
10, 6720, Note_on_c, 8, 67, 75
10, 6996, Note_off_c, 8, 67, 0
10, 7008, Note_on_c, 8, 72, 75
10, 7092, Note_off_c, 8, 72, 0
10, 7104, Note_on_c, 8, 79, 75
10, 7188, Note_off_c, 8, 79, 0
10, 7200, Note_on_c, 8, 77, 75
10, 7284, Note_off_c, 8, 77, 0
10, 7296, Note_on_c, 8, 76, 75
10, 7380, Note_off_c, 8, 76, 0
10, 7392, Note_on_c, 8, 72, 75
10, 7476, Note_off_c, 8, 72, 0
10, 7488, Note_on_c, 8, 72, 75
10, 7572, Note_off_c, 8, 72, 0
10, 7584, Note_on_c, 8, 76, 75
10, 7668, Note_off_c, 8, 76, 0
10, 7680, Note_on_c, 8, 79, 75
10, 7764, Note_off_c, 8, 79, 0
10, 7776, Note_on_c, 8, 77, 75
10, 7860, Note_off_c, 8, 77, 0
10, 7872, Note_on_c, 8, 79, 75
10, 7956, Note_off_c, 8, 79, 0
10, 7968, Note_on_c, 8, 77, 75
10, 8052, Note_off_c, 8, 77, 0
10, 8064, Note_on_c, 8, 76, 75
10, 8148, Note_off_c, 8, 76, 0
10, 8160, Note_on_c, 8, 74, 75
10, 8340, Note_off_c, 8, 74, 0
10, 8352, Note_on_c, 8, 72, 75
10, 8436, Note_off_c, 8, 72, 0
10, 8448, Note_on_c, 8, 71, 75
10, 8490, Note_off_c, 8, 71, 0
10, 8496, Note_on_c, 8, 72, 75
10, 8538, Note_off_c, 8, 72, 0
10, 8544, Note_on_c, 8, 74, 75
10, 8554, Note_off_c, 8, 74, 0
10, 8556, Note_on_c, 8, 72, 75
10, 8566, Note_off_c, 8, 72, 0
10, 8568, Note_on_c, 8, 74, 75
10, 8578, Note_off_c, 8, 74, 0
10, 8580, Note_on_c, 8, 72, 75
10, 8590, Note_off_c, 8, 72, 0
10, 8592, Note_on_c, 8, 74, 75
10, 8602, Note_off_c, 8, 74, 0
10, 8604, Note_on_c, 8, 72, 75
10, 8614, Note_off_c, 8, 72, 0
10, 8616, Note_on_c, 8, 74, 75
10, 8626, Note_off_c, 8, 74, 0
10, 8628, Note_on_c, 8, 72, 75
10, 8638, Note_off_c, 8, 72, 0
10, 8640, Note_on_c, 8, 74, 75
10, 8650, Note_off_c, 8, 74, 0
10, 8652, Note_on_c, 8, 72, 75
10, 8662, Note_off_c, 8, 72, 0
10, 8664, Note_on_c, 8, 74, 75
10, 8674, Note_off_c, 8, 74, 0
10, 8676, Note_on_c, 8, 72, 75
10, 8686, Note_off_c, 8, 72, 0
10, 8688, Note_on_c, 8, 71, 75
10, 8709, Note_off_c, 8, 71, 0
10, 8712, Note_on_c, 8, 72, 75
10, 8733, Note_off_c, 8, 72, 0
10, 8736, Note_on_c, 8, 74, 75
10, 8820, Note_off_c, 8, 74, 0
10, 8832, Note_on_c, 8, 72, 75
10, 8916, Note_off_c, 8, 72, 0
10, 8928, Note_on_c, 8, 71, 75
10, 9012, Note_off_c, 8, 71, 0
10, 9024, Note_on_c, 8, 72, 75
10, 9300, Note_off_c, 8, 72, 0
10, 9312, Note_on_c, 8, 72, 75
10, 9492, Note_off_c, 8, 72, 0
10, 9504, Note_on_c, 8, 77, 75
10, 9588, Note_off_c, 8, 77, 0
10, 9600, Note_on_c, 8, 76, 75
10, 9684, Note_off_c, 8, 76, 0
10, 9696, Note_on_c, 8, 77, 75
10, 9780, Note_off_c, 8, 77, 0
10, 9792, Note_on_c, 8, 79, 75
10, 9876, Note_off_c, 8, 79, 0
10, 9888, Note_on_c, 8, 74, 75
10, 9972, Note_off_c, 8, 74, 0
10, 9984, Note_on_c, 8, 74, 75
10, 9994, Note_off_c, 8, 74, 0
10, 9996, Note_on_c, 8, 72, 75
10, 10006, Note_off_c, 8, 72, 0
10, 10008, Note_on_c, 8, 74, 75
10, 10018, Note_off_c, 8, 74, 0
10, 10020, Note_on_c, 8, 72, 75
10, 10030, Note_off_c, 8, 72, 0
10, 10032, Note_on_c, 8, 74, 75
10, 10042, Note_off_c, 8, 74, 0
10, 10044, Note_on_c, 8, 72, 75
10, 10054, Note_off_c, 8, 72, 0
10, 10056, Note_on_c, 8, 74, 75
10, 10066, Note_off_c, 8, 74, 0
10, 10068, Note_on_c, 8, 72, 75
10, 10078, Note_off_c, 8, 72, 0
10, 10080, Note_on_c, 8, 74, 75
10, 10090, Note_off_c, 8, 74, 0
10, 10092, Note_on_c, 8, 72, 75
10, 10102, Note_off_c, 8, 72, 0
10, 10104, Note_on_c, 8, 74, 75
10, 10114, Note_off_c, 8, 74, 0
10, 10116, Note_on_c, 8, 72, 75
10, 10126, Note_off_c, 8, 72, 0
10, 10128, Note_on_c, 8, 72, 75
10, 10170, Note_off_c, 8, 72, 0
10, 10176, Note_on_c, 8, 72, 75
10, 10356, Note_off_c, 8, 72, 0
10, 10464, Note_on_c, 8, 72, 75
10, 10548, Note_off_c, 8, 72, 0
10, 10560, Note_on_c, 8, 79, 75
10, 10644, Note_off_c, 8, 79, 0
10, 10656, Note_on_c, 8, 77, 75
10, 10740, Note_off_c, 8, 77, 0
10, 10752, Note_on_c, 8, 76, 75
10, 10836, Note_off_c, 8, 76, 0
10, 10848, Note_on_c, 8, 72, 75
10, 10932, Note_off_c, 8, 72, 0
10, 10944, Note_on_c, 8, 72, 75
10, 11028, Note_off_c, 8, 72, 0
10, 11040, Note_on_c, 8, 76, 75
10, 11124, Note_off_c, 8, 76, 0
10, 11136, Note_on_c, 8, 79, 75
10, 11220, Note_off_c, 8, 79, 0
10, 11232, Note_on_c, 8, 77, 75
10, 11316, Note_off_c, 8, 77, 0
10, 11328, Note_on_c, 8, 79, 75
10, 11412, Note_off_c, 8, 79, 0
10, 11424, Note_on_c, 8, 77, 75
10, 11508, Note_off_c, 8, 77, 0
10, 11520, Note_on_c, 8, 76, 75
10, 11604, Note_off_c, 8, 76, 0
10, 11616, Note_on_c, 8, 74, 75
10, 11796, Note_off_c, 8, 74, 0
10, 11808, Note_on_c, 8, 72, 75
10, 11892, Note_off_c, 8, 72, 0
10, 11904, Note_on_c, 8, 71, 75
10, 11946, Note_off_c, 8, 71, 0
10, 11952, Note_on_c, 8, 72, 75
10, 11994, Note_off_c, 8, 72, 0
10, 12000, Note_on_c, 8, 74, 75
10, 12010, Note_off_c, 8, 74, 0
10, 12012, Note_on_c, 8, 72, 75
10, 12022, Note_off_c, 8, 72, 0
10, 12024, Note_on_c, 8, 74, 75
10, 12034, Note_off_c, 8, 74, 0
10, 12036, Note_on_c, 8, 72, 75
10, 12046, Note_off_c, 8, 72, 0
10, 12048, Note_on_c, 8, 74, 75
10, 12058, Note_off_c, 8, 74, 0
10, 12060, Note_on_c, 8, 72, 75
10, 12070, Note_off_c, 8, 72, 0
10, 12072, Note_on_c, 8, 74, 75
10, 12082, Note_off_c, 8, 74, 0
10, 12084, Note_on_c, 8, 72, 75
10, 12094, Note_off_c, 8, 72, 0
10, 12096, Note_on_c, 8, 74, 75
10, 12106, Note_off_c, 8, 74, 0
10, 12108, Note_on_c, 8, 72, 75
10, 12118, Note_off_c, 8, 72, 0
10, 12120, Note_on_c, 8, 74, 75
10, 12130, Note_off_c, 8, 74, 0
10, 12132, Note_on_c, 8, 72, 75
10, 12142, Note_off_c, 8, 72, 0
10, 12144, Note_on_c, 8, 71, 75
10, 12165, Note_off_c, 8, 71, 0
10, 12168, Note_on_c, 8, 72, 75
10, 12189, Note_off_c, 8, 72, 0
10, 12192, Note_on_c, 8, 74, 75
10, 12276, Note_off_c, 8, 74, 0
10, 12288, Note_on_c, 8, 72, 75
10, 12372, Note_off_c, 8, 72, 0
10, 12384, Note_on_c, 8, 71, 75
10, 12468, Note_off_c, 8, 71, 0
10, 12480, Note_on_c, 8, 72, 75
10, 12756, Note_off_c, 8, 72, 0
10, 12768, Note_on_c, 8, 72, 75
10, 12948, Note_off_c, 8, 72, 0
10, 12960, Note_on_c, 8, 77, 75
10, 13044, Note_off_c, 8, 77, 0
10, 13056, Note_on_c, 8, 76, 75
10, 13140, Note_off_c, 8, 76, 0
10, 13152, Note_on_c, 8, 77, 75
10, 13236, Note_off_c, 8, 77, 0
10, 13248, Note_on_c, 8, 79, 75
10, 13332, Note_off_c, 8, 79, 0
10, 13344, Note_on_c, 8, 74, 75
10, 13428, Note_off_c, 8, 74, 0
10, 13440, Note_on_c, 8, 74, 75
10, 13450, Note_off_c, 8, 74, 0
10, 13452, Note_on_c, 8, 72, 75
10, 13462, Note_off_c, 8, 72, 0
10, 13464, Note_on_c, 8, 74, 75
10, 13474, Note_off_c, 8, 74, 0
10, 13476, Note_on_c, 8, 72, 75
10, 13486, Note_off_c, 8, 72, 0
10, 13488, Note_on_c, 8, 74, 75
10, 13498, Note_off_c, 8, 74, 0
10, 13500, Note_on_c, 8, 72, 75
10, 13510, Note_off_c, 8, 72, 0
10, 13512, Note_on_c, 8, 74, 75
10, 13522, Note_off_c, 8, 74, 0
10, 13524, Note_on_c, 8, 72, 75
10, 13534, Note_off_c, 8, 72, 0
10, 13536, Note_on_c, 8, 74, 75
10, 13546, Note_off_c, 8, 74, 0
10, 13548, Note_on_c, 8, 72, 75
10, 13558, Note_off_c, 8, 72, 0
10, 13560, Note_on_c, 8, 74, 75
10, 13570, Note_off_c, 8, 74, 0
10, 13572, Note_on_c, 8, 72, 75
10, 13582, Note_off_c, 8, 72, 0
10, 13584, Note_on_c, 8, 72, 75
10, 13626, Note_off_c, 8, 72, 0
10, 13632, Note_on_c, 8, 72, 75
10, 13812, Note_off_c, 8, 72, 0
10, 14112, Time_signature, 2, 2, 96, 8
10, 14208, Tempo, 500000
10, 17280, Tempo, 500000
10, 26784, Time_signature, 3, 2, 96, 8
10, 26880, Tempo, 428571
10, 26880, Note_on_c, 8, 69, 75
10, 26964, Note_off_c, 8, 69, 0
10, 26976, Note_on_c, 8, 72, 75
10, 27060, Note_off_c, 8, 72, 0
10, 27072, Note_on_c, 8, 70, 75
10, 27156, Note_off_c, 8, 70, 0
10, 27168, Note_on_c, 8, 69, 75
10, 27252, Note_off_c, 8, 69, 0
10, 27264, Note_on_c, 8, 65, 75
10, 27348, Note_off_c, 8, 65, 0
10, 27360, Note_on_c, 8, 65, 75
10, 27444, Note_off_c, 8, 65, 0
10, 27456, Note_on_c, 8, 69, 75
10, 27540, Note_off_c, 8, 69, 0
10, 27552, Note_on_c, 8, 72, 75
10, 27636, Note_off_c, 8, 72, 0
10, 27648, Note_on_c, 8, 70, 75
10, 27732, Note_off_c, 8, 70, 0
10, 27744, Note_on_c, 8, 72, 75
10, 27828, Note_off_c, 8, 72, 0
10, 27840, Note_on_c, 8, 70, 75
10, 27924, Note_off_c, 8, 70, 0
10, 27936, Note_on_c, 8, 69, 75
10, 28020, Note_off_c, 8, 69, 0
10, 28032, Note_on_c, 8, 67, 75
10, 28212, Note_off_c, 8, 67, 0
10, 28224, Note_on_c, 8, 65, 75
10, 28308, Note_off_c, 8, 65, 0
10, 28320, Note_on_c, 8, 64, 75
10, 28362, Note_off_c, 8, 64, 0
10, 28368, Note_on_c, 8, 65, 75
10, 28410, Note_off_c, 8, 65, 0
10, 28416, Note_on_c, 8, 67, 75
10, 28426, Note_off_c, 8, 67, 0
10, 28428, Note_on_c, 8, 65, 75
10, 28438, Note_off_c, 8, 65, 0
10, 28440, Note_on_c, 8, 67, 75
10, 28450, Note_off_c, 8, 67, 0
10, 28452, Note_on_c, 8, 65, 75
10, 28462, Note_off_c, 8, 65, 0
10, 28464, Note_on_c, 8, 67, 75
10, 28474, Note_off_c, 8, 67, 0
10, 28476, Note_on_c, 8, 65, 75
10, 28486, Note_off_c, 8, 65, 0
10, 28488, Note_on_c, 8, 67, 75
10, 28498, Note_off_c, 8, 67, 0
10, 28500, Note_on_c, 8, 65, 75
10, 28510, Note_off_c, 8, 65, 0
10, 28512, Note_on_c, 8, 67, 75
10, 28522, Note_off_c, 8, 67, 0
10, 28524, Note_on_c, 8, 65, 75
10, 28534, Note_off_c, 8, 65, 0
10, 28536, Note_on_c, 8, 67, 75
10, 28546, Note_off_c, 8, 67, 0
10, 28548, Note_on_c, 8, 65, 75
10, 28558, Note_off_c, 8, 65, 0
10, 28560, Note_on_c, 8, 64, 75
10, 28581, Note_off_c, 8, 64, 0
10, 28584, Note_on_c, 8, 65, 75
10, 28605, Note_off_c, 8, 65, 0
10, 28608, Note_on_c, 8, 67, 75
10, 28692, Note_off_c, 8, 67, 0
10, 28704, Note_on_c, 8, 65, 75
10, 28788, Note_off_c, 8, 65, 0
10, 28800, Note_on_c, 8, 64, 75
10, 28884, Note_off_c, 8, 64, 0
10, 28896, Note_on_c, 8, 65, 75
10, 29076, Note_off_c, 8, 65, 0
10, 29088, Note_on_c, 8, 67, 75
10, 29172, Note_off_c, 8, 67, 0
10, 29184, Note_on_c, 8, 65, 75
10, 29268, Note_off_c, 8, 65, 0
10, 29280, Note_on_c, 8, 67, 75
10, 29460, Note_off_c, 8, 67, 0
10, 29472, Note_on_c, 8, 67, 75
10, 29652, Note_off_c, 8, 67, 0
10, 29664, Note_on_c, 8, 67, 75
10, 29748, Note_off_c, 8, 67, 0
10, 29760, Note_on_c, 8, 69, 75
10, 29802, Note_off_c, 8, 69, 0
10, 29808, Note_on_c, 8, 71, 75
10, 29850, Note_off_c, 8, 71, 0
10, 29856, Note_on_c, 8, 71, 75
10, 29988, Note_off_c, 8, 71, 0
10, 30000, Note_on_c, 8, 67, 75
10, 30042, Note_off_c, 8, 67, 0
10, 30048, Note_on_c, 8, 67, 75
10, 30324, Note_off_c, 8, 67, 0
10, 30336, Note_on_c, 8, 69, 75
10, 30420, Note_off_c, 8, 69, 0
10, 30432, Note_on_c, 8, 72, 75
10, 30516, Note_off_c, 8, 72, 0
10, 30528, Note_on_c, 8, 70, 75
10, 30612, Note_off_c, 8, 70, 0
10, 30624, Note_on_c, 8, 69, 75
10, 30708, Note_off_c, 8, 69, 0
10, 30720, Note_on_c, 8, 65, 75
10, 30804, Note_off_c, 8, 65, 0
10, 30816, Note_on_c, 8, 65, 75
10, 30900, Note_off_c, 8, 65, 0
10, 30912, Note_on_c, 8, 69, 75
10, 30996, Note_off_c, 8, 69, 0
10, 31008, Note_on_c, 8, 72, 75
10, 31092, Note_off_c, 8, 72, 0
10, 31104, Note_on_c, 8, 70, 75
10, 31188, Note_off_c, 8, 70, 0
10, 31200, Note_on_c, 8, 72, 75
10, 31284, Note_off_c, 8, 72, 0
10, 31296, Note_on_c, 8, 70, 75
10, 31380, Note_off_c, 8, 70, 0
10, 31392, Note_on_c, 8, 69, 75
10, 31476, Note_off_c, 8, 69, 0
10, 31488, Note_on_c, 8, 67, 75
10, 31668, Note_off_c, 8, 67, 0
10, 31680, Note_on_c, 8, 65, 75
10, 31764, Note_off_c, 8, 65, 0
10, 31776, Note_on_c, 8, 64, 75
10, 31818, Note_off_c, 8, 64, 0
10, 31824, Note_on_c, 8, 65, 75
10, 31866, Note_off_c, 8, 65, 0
10, 31872, Note_on_c, 8, 67, 75
10, 31882, Note_off_c, 8, 67, 0
10, 31884, Note_on_c, 8, 65, 75
10, 31894, Note_off_c, 8, 65, 0
10, 31896, Note_on_c, 8, 67, 75
10, 31906, Note_off_c, 8, 67, 0
10, 31908, Note_on_c, 8, 65, 75
10, 31918, Note_off_c, 8, 65, 0
10, 31920, Note_on_c, 8, 67, 75
10, 31930, Note_off_c, 8, 67, 0
10, 31932, Note_on_c, 8, 65, 75
10, 31942, Note_off_c, 8, 65, 0
10, 31944, Note_on_c, 8, 67, 75
10, 31954, Note_off_c, 8, 67, 0
10, 31956, Note_on_c, 8, 65, 75
10, 31966, Note_off_c, 8, 65, 0
10, 31968, Note_on_c, 8, 67, 75
10, 31978, Note_off_c, 8, 67, 0
10, 31980, Note_on_c, 8, 65, 75
10, 31990, Note_off_c, 8, 65, 0
10, 31992, Note_on_c, 8, 67, 75
10, 32002, Note_off_c, 8, 67, 0
10, 32004, Note_on_c, 8, 65, 75
10, 32014, Note_off_c, 8, 65, 0
10, 32016, Note_on_c, 8, 64, 75
10, 32037, Note_off_c, 8, 64, 0
10, 32040, Note_on_c, 8, 65, 75
10, 32061, Note_off_c, 8, 65, 0
10, 32064, Note_on_c, 8, 67, 75
10, 32148, Note_off_c, 8, 67, 0
10, 32160, Note_on_c, 8, 65, 75
10, 32244, Note_off_c, 8, 65, 0
10, 32256, Note_on_c, 8, 64, 75
10, 32340, Note_off_c, 8, 64, 0
10, 32352, Note_on_c, 8, 65, 75
10, 32532, Note_off_c, 8, 65, 0
10, 32544, Note_on_c, 8, 67, 75
10, 32628, Note_off_c, 8, 67, 0
10, 32640, Note_on_c, 8, 65, 75
10, 32724, Note_off_c, 8, 65, 0
10, 32736, Note_on_c, 8, 67, 75
10, 32916, Note_off_c, 8, 67, 0
10, 32928, Note_on_c, 8, 67, 75
10, 33108, Note_off_c, 8, 67, 0
10, 33120, Note_on_c, 8, 67, 75
10, 33204, Note_off_c, 8, 67, 0
10, 33216, Note_on_c, 8, 69, 75
10, 33258, Note_off_c, 8, 69, 0
10, 33264, Note_on_c, 8, 71, 75
10, 33306, Note_off_c, 8, 71, 0
10, 33312, Note_on_c, 8, 71, 75
10, 33444, Note_off_c, 8, 71, 0
10, 33456, Note_on_c, 8, 67, 75
10, 33498, Note_off_c, 8, 67, 0
10, 33504, Note_on_c, 8, 67, 75
10, 33780, Note_off_c, 8, 67, 0
10, 33792, Note_on_c, 8, 72, 75
10, 33876, Note_off_c, 8, 72, 0
10, 33888, Note_on_c, 8, 79, 75
10, 33972, Note_off_c, 8, 79, 0
10, 33984, Note_on_c, 8, 77, 75
10, 34068, Note_off_c, 8, 77, 0
10, 34080, Note_on_c, 8, 76, 75
10, 34164, Note_off_c, 8, 76, 0
10, 34176, Note_on_c, 8, 72, 75
10, 34260, Note_off_c, 8, 72, 0
10, 34272, Note_on_c, 8, 72, 75
10, 34356, Note_off_c, 8, 72, 0
10, 34368, Note_on_c, 8, 76, 75
10, 34452, Note_off_c, 8, 76, 0
10, 34464, Note_on_c, 8, 79, 75
10, 34548, Note_off_c, 8, 79, 0
10, 34560, Note_on_c, 8, 77, 75
10, 34644, Note_off_c, 8, 77, 0
10, 34656, Note_on_c, 8, 79, 75
10, 34740, Note_off_c, 8, 79, 0
10, 34752, Note_on_c, 8, 77, 75
10, 34836, Note_off_c, 8, 77, 0
10, 34848, Note_on_c, 8, 76, 75
10, 34932, Note_off_c, 8, 76, 0
10, 34944, Note_on_c, 8, 74, 75
10, 35124, Note_off_c, 8, 74, 0
10, 35136, Note_on_c, 8, 72, 75
10, 35220, Note_off_c, 8, 72, 0
10, 35232, Note_on_c, 8, 71, 75
10, 35274, Note_off_c, 8, 71, 0
10, 35280, Note_on_c, 8, 72, 75
10, 35322, Note_off_c, 8, 72, 0
10, 35328, Note_on_c, 8, 74, 75
10, 35338, Note_off_c, 8, 74, 0
10, 35340, Note_on_c, 8, 72, 75
10, 35350, Note_off_c, 8, 72, 0
10, 35352, Note_on_c, 8, 74, 75
10, 35362, Note_off_c, 8, 74, 0
10, 35364, Note_on_c, 8, 72, 75
10, 35374, Note_off_c, 8, 72, 0
10, 35376, Note_on_c, 8, 74, 75
10, 35386, Note_off_c, 8, 74, 0
10, 35388, Note_on_c, 8, 72, 75
10, 35398, Note_off_c, 8, 72, 0
10, 35400, Note_on_c, 8, 74, 75
10, 35410, Note_off_c, 8, 74, 0
10, 35412, Note_on_c, 8, 72, 75
10, 35422, Note_off_c, 8, 72, 0
10, 35424, Note_on_c, 8, 74, 75
10, 35434, Note_off_c, 8, 74, 0
10, 35436, Note_on_c, 8, 72, 75
10, 35446, Note_off_c, 8, 72, 0
10, 35448, Note_on_c, 8, 74, 75
10, 35458, Note_off_c, 8, 74, 0
10, 35460, Note_on_c, 8, 72, 75
10, 35470, Note_off_c, 8, 72, 0
10, 35472, Note_on_c, 8, 71, 75
10, 35493, Note_off_c, 8, 71, 0
10, 35496, Note_on_c, 8, 72, 75
10, 35517, Note_off_c, 8, 72, 0
10, 35520, Note_on_c, 8, 74, 75
10, 35604, Note_off_c, 8, 74, 0
10, 35616, Note_on_c, 8, 72, 75
10, 35700, Note_off_c, 8, 72, 0
10, 35712, Note_on_c, 8, 71, 75
10, 35796, Note_off_c, 8, 71, 0
10, 35808, Note_on_c, 8, 72, 75
10, 36084, Note_off_c, 8, 72, 0
10, 36096, Note_on_c, 8, 72, 75
10, 36276, Note_off_c, 8, 72, 0
10, 36288, Note_on_c, 8, 77, 75
10, 36372, Note_off_c, 8, 77, 0
10, 36384, Note_on_c, 8, 76, 75
10, 36468, Note_off_c, 8, 76, 0
10, 36480, Note_on_c, 8, 77, 75
10, 36564, Note_off_c, 8, 77, 0
10, 36576, Note_on_c, 8, 79, 75
10, 36660, Note_off_c, 8, 79, 0
10, 36672, Note_on_c, 8, 74, 75
10, 36756, Note_off_c, 8, 74, 0
10, 36768, Note_on_c, 8, 74, 75
10, 36778, Note_off_c, 8, 74, 0
10, 36780, Note_on_c, 8, 72, 75
10, 36790, Note_off_c, 8, 72, 0
10, 36792, Note_on_c, 8, 74, 75
10, 36802, Note_off_c, 8, 74, 0
10, 36804, Note_on_c, 8, 72, 75
10, 36814, Note_off_c, 8, 72, 0
10, 36816, Note_on_c, 8, 74, 75
10, 36826, Note_off_c, 8, 74, 0
10, 36828, Note_on_c, 8, 72, 75
10, 36838, Note_off_c, 8, 72, 0
10, 36840, Note_on_c, 8, 74, 75
10, 36850, Note_off_c, 8, 74, 0
10, 36852, Note_on_c, 8, 72, 75
10, 36862, Note_off_c, 8, 72, 0
10, 36864, Note_on_c, 8, 74, 75
10, 36874, Note_off_c, 8, 74, 0
10, 36876, Note_on_c, 8, 72, 75
10, 36886, Note_off_c, 8, 72, 0
10, 36888, Note_on_c, 8, 74, 75
10, 36898, Note_off_c, 8, 74, 0
10, 36900, Note_on_c, 8, 72, 75
10, 36910, Note_off_c, 8, 72, 0
10, 36912, Note_on_c, 8, 72, 75
10, 36954, Note_off_c, 8, 72, 0
10, 36960, Note_on_c, 8, 72, 75
10, 37140, Note_off_c, 8, 72, 0
10, 37248, Note_on_c, 8, 72, 75
10, 37332, Note_off_c, 8, 72, 0
10, 37344, Note_on_c, 8, 79, 75
10, 37428, Note_off_c, 8, 79, 0
10, 37440, Note_on_c, 8, 77, 75
10, 37524, Note_off_c, 8, 77, 0
10, 37536, Note_on_c, 8, 76, 75
10, 37620, Note_off_c, 8, 76, 0
10, 37632, Note_on_c, 8, 72, 75
10, 37716, Note_off_c, 8, 72, 0
10, 37728, Note_on_c, 8, 72, 75
10, 37812, Note_off_c, 8, 72, 0
10, 37824, Note_on_c, 8, 76, 75
10, 37908, Note_off_c, 8, 76, 0
10, 37920, Note_on_c, 8, 79, 75
10, 38004, Note_off_c, 8, 79, 0
10, 38016, Note_on_c, 8, 77, 75
10, 38100, Note_off_c, 8, 77, 0
10, 38112, Note_on_c, 8, 79, 75
10, 38196, Note_off_c, 8, 79, 0
10, 38208, Note_on_c, 8, 77, 75
10, 38292, Note_off_c, 8, 77, 0
10, 38304, Note_on_c, 8, 76, 75
10, 38388, Note_off_c, 8, 76, 0
10, 38400, Note_on_c, 8, 74, 75
10, 38580, Note_off_c, 8, 74, 0
10, 38592, Note_on_c, 8, 72, 75
10, 38676, Note_off_c, 8, 72, 0
10, 38688, Note_on_c, 8, 71, 75
10, 38730, Note_off_c, 8, 71, 0
10, 38736, Note_on_c, 8, 72, 75
10, 38778, Note_off_c, 8, 72, 0
10, 38784, Note_on_c, 8, 74, 75
10, 38794, Note_off_c, 8, 74, 0
10, 38796, Note_on_c, 8, 72, 75
10, 38806, Note_off_c, 8, 72, 0
10, 38808, Note_on_c, 8, 74, 75
10, 38818, Note_off_c, 8, 74, 0
10, 38820, Note_on_c, 8, 72, 75
10, 38830, Note_off_c, 8, 72, 0
10, 38832, Note_on_c, 8, 74, 75
10, 38842, Note_off_c, 8, 74, 0
10, 38844, Note_on_c, 8, 72, 75
10, 38854, Note_off_c, 8, 72, 0
10, 38856, Note_on_c, 8, 74, 75
10, 38866, Note_off_c, 8, 74, 0
10, 38868, Note_on_c, 8, 72, 75
10, 38878, Note_off_c, 8, 72, 0
10, 38880, Note_on_c, 8, 74, 75
10, 38890, Note_off_c, 8, 74, 0
10, 38892, Note_on_c, 8, 72, 75
10, 38902, Note_off_c, 8, 72, 0
10, 38904, Note_on_c, 8, 74, 75
10, 38914, Note_off_c, 8, 74, 0
10, 38916, Note_on_c, 8, 72, 75
10, 38926, Note_off_c, 8, 72, 0
10, 38928, Note_on_c, 8, 71, 75
10, 38949, Note_off_c, 8, 71, 0
10, 38952, Note_on_c, 8, 72, 75
10, 38973, Note_off_c, 8, 72, 0
10, 38976, Note_on_c, 8, 74, 75
10, 39060, Note_off_c, 8, 74, 0
10, 39072, Note_on_c, 8, 72, 75
10, 39156, Note_off_c, 8, 72, 0
10, 39168, Note_on_c, 8, 71, 75
10, 39252, Note_off_c, 8, 71, 0
10, 39264, Note_on_c, 8, 72, 75
10, 39540, Note_off_c, 8, 72, 0
10, 39552, Note_on_c, 8, 72, 75
10, 39732, Note_off_c, 8, 72, 0
10, 39744, Note_on_c, 8, 77, 75
10, 39828, Note_off_c, 8, 77, 0
10, 39840, Note_on_c, 8, 76, 75
10, 39924, Note_off_c, 8, 76, 0
10, 39936, Note_on_c, 8, 77, 75
10, 40020, Note_off_c, 8, 77, 0
10, 40032, Note_on_c, 8, 79, 75
10, 40116, Note_off_c, 8, 79, 0
10, 40128, Note_on_c, 8, 74, 75
10, 40212, Note_off_c, 8, 74, 0
10, 40224, Note_on_c, 8, 74, 75
10, 40234, Note_off_c, 8, 74, 0
10, 40236, Note_on_c, 8, 72, 75
10, 40246, Note_off_c, 8, 72, 0
10, 40248, Note_on_c, 8, 74, 75
10, 40258, Note_off_c, 8, 74, 0
10, 40260, Note_on_c, 8, 72, 75
10, 40270, Note_off_c, 8, 72, 0
10, 40272, Note_on_c, 8, 74, 75
10, 40282, Note_off_c, 8, 74, 0
10, 40284, Note_on_c, 8, 72, 75
10, 40294, Note_off_c, 8, 72, 0
10, 40296, Note_on_c, 8, 74, 75
10, 40306, Note_off_c, 8, 74, 0
10, 40308, Note_on_c, 8, 72, 75
10, 40318, Note_off_c, 8, 72, 0
10, 40320, Note_on_c, 8, 74, 75
10, 40330, Note_off_c, 8, 74, 0
10, 40332, Note_on_c, 8, 72, 75
10, 40342, Note_off_c, 8, 72, 0
10, 40344, Note_on_c, 8, 74, 75
10, 40354, Note_off_c, 8, 74, 0
10, 40356, Note_on_c, 8, 72, 75
10, 40366, Note_off_c, 8, 72, 0
10, 40368, Note_on_c, 8, 72, 75
10, 40410, Note_off_c, 8, 72, 0
10, 40416, Note_on_c, 8, 72, 75
10, 40596, Note_off_c, 8, 72, 0
10, 40596, End_track
11, 0, Start_track
11, 0, Title_t, "Viola"
11, 0, Control_c, 10, 0, 0
11, 0, Program_c, 10, 41
11, 0, Time_signature, 3, 2, 96, 8
11, 0, Tempo, 461538
11, 96, Tempo, 428571
11, 96, Note_on_c, 10, 65, 75
11, 276, Note_off_c, 10, 65, 0
11, 288, Note_on_c, 10, 65, 75
11, 372, Note_off_c, 10, 65, 0
11, 384, Note_on_c, 10, 65, 75
11, 394, Note_off_c, 10, 65, 0
11, 396, Note_on_c, 10, 63, 75
11, 406, Note_off_c, 10, 63, 0
11, 408, Note_on_c, 10, 65, 75
11, 418, Note_off_c, 10, 65, 0
11, 420, Note_on_c, 10, 63, 75
11, 430, Note_off_c, 10, 63, 0
11, 432, Note_on_c, 10, 65, 75
11, 442, Note_off_c, 10, 65, 0
11, 444, Note_on_c, 10, 63, 75
11, 454, Note_off_c, 10, 63, 0
11, 456, Note_on_c, 10, 65, 75
11, 466, Note_off_c, 10, 65, 0
11, 468, Note_on_c, 10, 63, 75
11, 478, Note_off_c, 10, 63, 0
11, 480, Note_on_c, 10, 62, 75
11, 522, Note_off_c, 10, 62, 0
11, 528, Note_on_c, 10, 60, 75
11, 570, Note_off_c, 10, 60, 0
11, 576, Note_on_c, 10, 62, 75
11, 660, Note_off_c, 10, 62, 0
11, 672, Note_on_c, 10, 63, 75
11, 756, Note_off_c, 10, 63, 0
11, 768, Note_on_c, 10, 60, 75
11, 852, Note_off_c, 10, 60, 0
11, 864, Note_on_c, 10, 65, 75
11, 948, Note_off_c, 10, 65, 0
11, 960, Note_on_c, 10, 65, 75
11, 1140, Note_off_c, 10, 65, 0
11, 1152, Note_on_c, 10, 60, 75
11, 1236, Note_off_c, 10, 60, 0
11, 1248, Note_on_c, 10, 60, 75
11, 1428, Note_off_c, 10, 60, 0
11, 1440, Note_on_c, 10, 60, 75
11, 1524, Note_off_c, 10, 60, 0
11, 1536, Note_on_c, 10, 55, 75
11, 1620, Note_off_c, 10, 55, 0
11, 1632, Note_on_c, 10, 57, 75
11, 1716, Note_off_c, 10, 57, 0
11, 1728, Note_on_c, 10, 53, 75
11, 1812, Note_off_c, 10, 53, 0
11, 1824, Note_on_c, 10, 60, 75
11, 2004, Note_off_c, 10, 60, 0
11, 2016, Note_on_c, 10, 60, 75
11, 2100, Note_off_c, 10, 60, 0
11, 2112, Note_on_c, 10, 60, 75
11, 2292, Note_off_c, 10, 60, 0
11, 2304, Note_on_c, 10, 60, 75
11, 2388, Note_off_c, 10, 60, 0
11, 2400, Note_on_c, 10, 64, 75
11, 2410, Note_off_c, 10, 64, 0
11, 2412, Note_on_c, 10, 62, 75
11, 2422, Note_off_c, 10, 62, 0
11, 2424, Note_on_c, 10, 64, 75
11, 2434, Note_off_c, 10, 64, 0
11, 2436, Note_on_c, 10, 62, 75
11, 2446, Note_off_c, 10, 62, 0
11, 2448, Note_on_c, 10, 64, 75
11, 2458, Note_off_c, 10, 64, 0
11, 2460, Note_on_c, 10, 62, 75
11, 2470, Note_off_c, 10, 62, 0
11, 2472, Note_on_c, 10, 64, 75
11, 2482, Note_off_c, 10, 64, 0
11, 2484, Note_on_c, 10, 62, 75
11, 2494, Note_off_c, 10, 62, 0
11, 2496, Note_on_c, 10, 60, 75
11, 2538, Note_off_c, 10, 60, 0
11, 2544, Note_on_c, 10, 62, 75
11, 2586, Note_off_c, 10, 62, 0
11, 2592, Note_on_c, 10, 64, 75
11, 2676, Note_off_c, 10, 64, 0
11, 2688, Note_on_c, 10, 62, 75
11, 2868, Note_off_c, 10, 62, 0
11, 2880, Note_on_c, 10, 64, 75
11, 2964, Note_off_c, 10, 64, 0
11, 2976, Note_on_c, 10, 60, 75
11, 3060, Note_off_c, 10, 60, 0
11, 3072, Note_on_c, 10, 67, 75
11, 3156, Note_off_c, 10, 67, 0
11, 3168, Note_on_c, 10, 65, 75
11, 3252, Note_off_c, 10, 65, 0
11, 3264, Note_on_c, 10, 64, 75
11, 3540, Note_off_c, 10, 64, 0
11, 3552, Note_on_c, 10, 65, 75
11, 3732, Note_off_c, 10, 65, 0
11, 3744, Note_on_c, 10, 65, 75
11, 3828, Note_off_c, 10, 65, 0
11, 3840, Note_on_c, 10, 65, 75
11, 3850, Note_off_c, 10, 65, 0
11, 3852, Note_on_c, 10, 63, 75
11, 3862, Note_off_c, 10, 63, 0
11, 3864, Note_on_c, 10, 65, 75
11, 3874, Note_off_c, 10, 65, 0
11, 3876, Note_on_c, 10, 63, 75
11, 3886, Note_off_c, 10, 63, 0
11, 3888, Note_on_c, 10, 65, 75
11, 3898, Note_off_c, 10, 65, 0
11, 3900, Note_on_c, 10, 63, 75
11, 3910, Note_off_c, 10, 63, 0
11, 3912, Note_on_c, 10, 65, 75
11, 3922, Note_off_c, 10, 65, 0
11, 3924, Note_on_c, 10, 63, 75
11, 3934, Note_off_c, 10, 63, 0
11, 3936, Note_on_c, 10, 62, 75
11, 3978, Note_off_c, 10, 62, 0
11, 3984, Note_on_c, 10, 60, 75
11, 4026, Note_off_c, 10, 60, 0
11, 4032, Note_on_c, 10, 62, 75
11, 4116, Note_off_c, 10, 62, 0
11, 4128, Note_on_c, 10, 63, 75
11, 4212, Note_off_c, 10, 63, 0
11, 4224, Note_on_c, 10, 60, 75
11, 4308, Note_off_c, 10, 60, 0
11, 4320, Note_on_c, 10, 65, 75
11, 4404, Note_off_c, 10, 65, 0
11, 4416, Note_on_c, 10, 65, 75
11, 4596, Note_off_c, 10, 65, 0
11, 4608, Note_on_c, 10, 60, 75
11, 4692, Note_off_c, 10, 60, 0
11, 4704, Note_on_c, 10, 60, 75
11, 4884, Note_off_c, 10, 60, 0
11, 4896, Note_on_c, 10, 60, 75
11, 4980, Note_off_c, 10, 60, 0
11, 4992, Note_on_c, 10, 55, 75
11, 5076, Note_off_c, 10, 55, 0
11, 5088, Note_on_c, 10, 57, 75
11, 5172, Note_off_c, 10, 57, 0
11, 5184, Note_on_c, 10, 53, 75
11, 5268, Note_off_c, 10, 53, 0
11, 5280, Note_on_c, 10, 60, 75
11, 5460, Note_off_c, 10, 60, 0
11, 5472, Note_on_c, 10, 60, 75
11, 5556, Note_off_c, 10, 60, 0
11, 5568, Note_on_c, 10, 60, 75
11, 5748, Note_off_c, 10, 60, 0
11, 5760, Note_on_c, 10, 60, 75
11, 5844, Note_off_c, 10, 60, 0
11, 5856, Note_on_c, 10, 64, 75
11, 5866, Note_off_c, 10, 64, 0
11, 5868, Note_on_c, 10, 62, 75
11, 5878, Note_off_c, 10, 62, 0
11, 5880, Note_on_c, 10, 64, 75
11, 5890, Note_off_c, 10, 64, 0
11, 5892, Note_on_c, 10, 62, 75
11, 5902, Note_off_c, 10, 62, 0
11, 5904, Note_on_c, 10, 64, 75
11, 5914, Note_off_c, 10, 64, 0
11, 5916, Note_on_c, 10, 62, 75
11, 5926, Note_off_c, 10, 62, 0
11, 5928, Note_on_c, 10, 64, 75
11, 5938, Note_off_c, 10, 64, 0
11, 5940, Note_on_c, 10, 62, 75
11, 5950, Note_off_c, 10, 62, 0
11, 5952, Note_on_c, 10, 60, 75
11, 5994, Note_off_c, 10, 60, 0
11, 6000, Note_on_c, 10, 62, 75
11, 6042, Note_off_c, 10, 62, 0
11, 6048, Note_on_c, 10, 64, 75
11, 6132, Note_off_c, 10, 64, 0
11, 6144, Note_on_c, 10, 62, 75
11, 6324, Note_off_c, 10, 62, 0
11, 6336, Note_on_c, 10, 64, 75
11, 6420, Note_off_c, 10, 64, 0
11, 6432, Note_on_c, 10, 60, 75
11, 6516, Note_off_c, 10, 60, 0
11, 6528, Note_on_c, 10, 67, 75
11, 6612, Note_off_c, 10, 67, 0
11, 6624, Note_on_c, 10, 65, 75
11, 6708, Note_off_c, 10, 65, 0
11, 6720, Note_on_c, 10, 64, 75
11, 6996, Note_off_c, 10, 64, 0
11, 7008, Note_on_c, 10, 67, 75
11, 7188, Note_off_c, 10, 67, 0
11, 7200, Note_on_c, 10, 72, 75
11, 7284, Note_off_c, 10, 72, 0
11, 7296, Note_on_c, 10, 72, 75
11, 7306, Note_off_c, 10, 72, 0
11, 7308, Note_on_c, 10, 70, 75
11, 7318, Note_off_c, 10, 70, 0
11, 7320, Note_on_c, 10, 72, 75
11, 7330, Note_off_c, 10, 72, 0
11, 7332, Note_on_c, 10, 70, 75
11, 7342, Note_off_c, 10, 70, 0
11, 7344, Note_on_c, 10, 72, 75
11, 7354, Note_off_c, 10, 72, 0
11, 7356, Note_on_c, 10, 70, 75
11, 7366, Note_off_c, 10, 70, 0
11, 7368, Note_on_c, 10, 72, 75
11, 7378, Note_off_c, 10, 72, 0
11, 7380, Note_on_c, 10, 70, 75
11, 7390, Note_off_c, 10, 70, 0
11, 7392, Note_on_c, 10, 69, 75
11, 7434, Note_off_c, 10, 69, 0
11, 7440, Note_on_c, 10, 67, 75
11, 7482, Note_off_c, 10, 67, 0
11, 7488, Note_on_c, 10, 69, 75
11, 7572, Note_off_c, 10, 69, 0
11, 7584, Note_on_c, 10, 70, 75
11, 7668, Note_off_c, 10, 70, 0
11, 7680, Note_on_c, 10, 67, 75
11, 7764, Note_off_c, 10, 67, 0
11, 7776, Note_on_c, 10, 72, 75
11, 7860, Note_off_c, 10, 72, 0
11, 7872, Note_on_c, 10, 72, 75
11, 8052, Note_off_c, 10, 72, 0
11, 8064, Note_on_c, 10, 67, 75
11, 8148, Note_off_c, 10, 67, 0
11, 8160, Note_on_c, 10, 67, 75
11, 8340, Note_off_c, 10, 67, 0
11, 8352, Note_on_c, 10, 67, 75
11, 8436, Note_off_c, 10, 67, 0
11, 8448, Note_on_c, 10, 62, 75
11, 8532, Note_off_c, 10, 62, 0
11, 8544, Note_on_c, 10, 64, 75
11, 8628, Note_off_c, 10, 64, 0
11, 8640, Note_on_c, 10, 60, 75
11, 8724, Note_off_c, 10, 60, 0
11, 8736, Note_on_c, 10, 67, 75
11, 8916, Note_off_c, 10, 67, 0
11, 8928, Note_on_c, 10, 67, 75
11, 9012, Note_off_c, 10, 67, 0
11, 9024, Note_on_c, 10, 67, 75
11, 9300, Note_off_c, 10, 67, 0
11, 9312, Note_on_c, 10, 67, 75
11, 9354, Note_off_c, 10, 67, 0
11, 9360, Note_on_c, 10, 65, 75
11, 9402, Note_off_c, 10, 65, 0
11, 9408, Note_on_c, 10, 67, 75
11, 9418, Note_off_c, 10, 67, 0
11, 9420, Note_on_c, 10, 65, 75
11, 9430, Note_off_c, 10, 65, 0
11, 9432, Note_on_c, 10, 67, 75
11, 9442, Note_off_c, 10, 67, 0
11, 9444, Note_on_c, 10, 65, 75
11, 9454, Note_off_c, 10, 65, 0
11, 9456, Note_on_c, 10, 67, 75
11, 9466, Note_off_c, 10, 67, 0
11, 9468, Note_on_c, 10, 65, 75
11, 9478, Note_off_c, 10, 65, 0
11, 9480, Note_on_c, 10, 67, 75
11, 9490, Note_off_c, 10, 67, 0
11, 9492, Note_on_c, 10, 65, 75
11, 9502, Note_off_c, 10, 65, 0
11, 9504, Note_on_c, 10, 67, 75
11, 9514, Note_off_c, 10, 67, 0
11, 9516, Note_on_c, 10, 65, 75
11, 9526, Note_off_c, 10, 65, 0
11, 9528, Note_on_c, 10, 67, 75
11, 9538, Note_off_c, 10, 67, 0
11, 9540, Note_on_c, 10, 65, 75
11, 9550, Note_off_c, 10, 65, 0
11, 9552, Note_on_c, 10, 64, 75
11, 9573, Note_off_c, 10, 64, 0
11, 9576, Note_on_c, 10, 65, 75
11, 9597, Note_off_c, 10, 65, 0
11, 9600, Note_on_c, 10, 67, 75
11, 9684, Note_off_c, 10, 67, 0
11, 9696, Note_on_c, 10, 72, 75
11, 9780, Note_off_c, 10, 72, 0
11, 9792, Note_on_c, 10, 64, 75
11, 9876, Note_off_c, 10, 64, 0
11, 9888, Note_on_c, 10, 69, 75
11, 9930, Note_off_c, 10, 69, 0
11, 9936, Note_on_c, 10, 70, 75
11, 9978, Note_off_c, 10, 70, 0
11, 9984, Note_on_c, 10, 67, 75
11, 9994, Note_off_c, 10, 67, 0
11, 9996, Note_on_c, 10, 65, 75
11, 10006, Note_off_c, 10, 65, 0
11, 10008, Note_on_c, 10, 67, 75
11, 10018, Note_off_c, 10, 67, 0
11, 10020, Note_on_c, 10, 65, 75
11, 10030, Note_off_c, 10, 65, 0
11, 10032, Note_on_c, 10, 67, 75
11, 10042, Note_off_c, 10, 67, 0
11, 10044, Note_on_c, 10, 65, 75
11, 10054, Note_off_c, 10, 65, 0
11, 10056, Note_on_c, 10, 67, 75
11, 10066, Note_off_c, 10, 67, 0
11, 10068, Note_on_c, 10, 65, 75
11, 10078, Note_off_c, 10, 65, 0
11, 10080, Note_on_c, 10, 67, 75
11, 10090, Note_off_c, 10, 67, 0
11, 10092, Note_on_c, 10, 65, 75
11, 10102, Note_off_c, 10, 65, 0
11, 10104, Note_on_c, 10, 67, 75
11, 10114, Note_off_c, 10, 67, 0
11, 10116, Note_on_c, 10, 65, 75
11, 10126, Note_off_c, 10, 65, 0
11, 10128, Note_on_c, 10, 69, 75
11, 10170, Note_off_c, 10, 69, 0
11, 10176, Note_on_c, 10, 69, 75
11, 10452, Note_off_c, 10, 69, 0
11, 10464, Note_on_c, 10, 67, 75
11, 10644, Note_off_c, 10, 67, 0
11, 10656, Note_on_c, 10, 72, 75
11, 10740, Note_off_c, 10, 72, 0
11, 10752, Note_on_c, 10, 72, 75
11, 10762, Note_off_c, 10, 72, 0
11, 10764, Note_on_c, 10, 70, 75
11, 10774, Note_off_c, 10, 70, 0
11, 10776, Note_on_c, 10, 72, 75
11, 10786, Note_off_c, 10, 72, 0
11, 10788, Note_on_c, 10, 70, 75
11, 10798, Note_off_c, 10, 70, 0
11, 10800, Note_on_c, 10, 72, 75
11, 10810, Note_off_c, 10, 72, 0
11, 10812, Note_on_c, 10, 70, 75
11, 10822, Note_off_c, 10, 70, 0
11, 10824, Note_on_c, 10, 72, 75
11, 10834, Note_off_c, 10, 72, 0
11, 10836, Note_on_c, 10, 70, 75
11, 10846, Note_off_c, 10, 70, 0
11, 10848, Note_on_c, 10, 69, 75
11, 10890, Note_off_c, 10, 69, 0
11, 10896, Note_on_c, 10, 67, 75
11, 10938, Note_off_c, 10, 67, 0
11, 10944, Note_on_c, 10, 69, 75
11, 11028, Note_off_c, 10, 69, 0
11, 11040, Note_on_c, 10, 70, 75
11, 11124, Note_off_c, 10, 70, 0
11, 11136, Note_on_c, 10, 67, 75
11, 11220, Note_off_c, 10, 67, 0
11, 11232, Note_on_c, 10, 72, 75
11, 11316, Note_off_c, 10, 72, 0
11, 11328, Note_on_c, 10, 72, 75
11, 11508, Note_off_c, 10, 72, 0
11, 11520, Note_on_c, 10, 67, 75
11, 11604, Note_off_c, 10, 67, 0
11, 11616, Note_on_c, 10, 67, 75
11, 11796, Note_off_c, 10, 67, 0
11, 11808, Note_on_c, 10, 67, 75
11, 11892, Note_off_c, 10, 67, 0
11, 11904, Note_on_c, 10, 62, 75
11, 11988, Note_off_c, 10, 62, 0
11, 12000, Note_on_c, 10, 64, 75
11, 12084, Note_off_c, 10, 64, 0
11, 12096, Note_on_c, 10, 60, 75
11, 12180, Note_off_c, 10, 60, 0
11, 12192, Note_on_c, 10, 67, 75
11, 12372, Note_off_c, 10, 67, 0
11, 12384, Note_on_c, 10, 67, 75
11, 12468, Note_off_c, 10, 67, 0
11, 12480, Note_on_c, 10, 67, 75
11, 12756, Note_off_c, 10, 67, 0
11, 12768, Note_on_c, 10, 67, 75
11, 12810, Note_off_c, 10, 67, 0
11, 12816, Note_on_c, 10, 65, 75
11, 12858, Note_off_c, 10, 65, 0
11, 12864, Note_on_c, 10, 67, 75
11, 12874, Note_off_c, 10, 67, 0
11, 12876, Note_on_c, 10, 65, 75
11, 12886, Note_off_c, 10, 65, 0
11, 12888, Note_on_c, 10, 67, 75
11, 12898, Note_off_c, 10, 67, 0
11, 12900, Note_on_c, 10, 65, 75
11, 12910, Note_off_c, 10, 65, 0
11, 12912, Note_on_c, 10, 67, 75
11, 12922, Note_off_c, 10, 67, 0
11, 12924, Note_on_c, 10, 65, 75
11, 12934, Note_off_c, 10, 65, 0
11, 12936, Note_on_c, 10, 67, 75
11, 12946, Note_off_c, 10, 67, 0
11, 12948, Note_on_c, 10, 65, 75
11, 12958, Note_off_c, 10, 65, 0
11, 12960, Note_on_c, 10, 67, 75
11, 12970, Note_off_c, 10, 67, 0
11, 12972, Note_on_c, 10, 65, 75
11, 12982, Note_off_c, 10, 65, 0
11, 12984, Note_on_c, 10, 67, 75
11, 12994, Note_off_c, 10, 67, 0
11, 12996, Note_on_c, 10, 65, 75
11, 13006, Note_off_c, 10, 65, 0
11, 13008, Note_on_c, 10, 64, 75
11, 13029, Note_off_c, 10, 64, 0
11, 13032, Note_on_c, 10, 65, 75
11, 13053, Note_off_c, 10, 65, 0
11, 13056, Note_on_c, 10, 67, 75
11, 13140, Note_off_c, 10, 67, 0
11, 13152, Note_on_c, 10, 72, 75
11, 13236, Note_off_c, 10, 72, 0
11, 13248, Note_on_c, 10, 64, 75
11, 13332, Note_off_c, 10, 64, 0
11, 13344, Note_on_c, 10, 69, 75
11, 13386, Note_off_c, 10, 69, 0
11, 13392, Note_on_c, 10, 70, 75
11, 13434, Note_off_c, 10, 70, 0
11, 13440, Note_on_c, 10, 67, 75
11, 13450, Note_off_c, 10, 67, 0
11, 13452, Note_on_c, 10, 65, 75
11, 13462, Note_off_c, 10, 65, 0
11, 13464, Note_on_c, 10, 67, 75
11, 13474, Note_off_c, 10, 67, 0
11, 13476, Note_on_c, 10, 65, 75
11, 13486, Note_off_c, 10, 65, 0
11, 13488, Note_on_c, 10, 67, 75
11, 13498, Note_off_c, 10, 67, 0
11, 13500, Note_on_c, 10, 65, 75
11, 13510, Note_off_c, 10, 65, 0
11, 13512, Note_on_c, 10, 67, 75
11, 13522, Note_off_c, 10, 67, 0
11, 13524, Note_on_c, 10, 65, 75
11, 13534, Note_off_c, 10, 65, 0
11, 13536, Note_on_c, 10, 67, 75
11, 13546, Note_off_c, 10, 67, 0
11, 13548, Note_on_c, 10, 65, 75
11, 13558, Note_off_c, 10, 65, 0
11, 13560, Note_on_c, 10, 67, 75
11, 13570, Note_off_c, 10, 67, 0
11, 13572, Note_on_c, 10, 65, 75
11, 13582, Note_off_c, 10, 65, 0
11, 13584, Note_on_c, 10, 69, 75
11, 13626, Note_off_c, 10, 69, 0
11, 13632, Note_on_c, 10, 69, 75
11, 13908, Note_off_c, 10, 69, 0
11, 14112, Time_signature, 2, 2, 96, 8
11, 14208, Tempo, 500000
11, 17280, Tempo, 500000
11, 26784, Time_signature, 3, 2, 96, 8
11, 26880, Tempo, 428571
11, 26880, Note_on_c, 10, 65, 75
11, 27060, Note_off_c, 10, 65, 0
11, 27072, Note_on_c, 10, 65, 75
11, 27156, Note_off_c, 10, 65, 0
11, 27168, Note_on_c, 10, 65, 75
11, 27178, Note_off_c, 10, 65, 0
11, 27180, Note_on_c, 10, 63, 75
11, 27190, Note_off_c, 10, 63, 0
11, 27192, Note_on_c, 10, 65, 75
11, 27202, Note_off_c, 10, 65, 0
11, 27204, Note_on_c, 10, 63, 75
11, 27214, Note_off_c, 10, 63, 0
11, 27216, Note_on_c, 10, 65, 75
11, 27226, Note_off_c, 10, 65, 0
11, 27228, Note_on_c, 10, 63, 75
11, 27238, Note_off_c, 10, 63, 0
11, 27240, Note_on_c, 10, 65, 75
11, 27250, Note_off_c, 10, 65, 0
11, 27252, Note_on_c, 10, 63, 75
11, 27262, Note_off_c, 10, 63, 0
11, 27264, Note_on_c, 10, 62, 75
11, 27306, Note_off_c, 10, 62, 0
11, 27312, Note_on_c, 10, 60, 75
11, 27354, Note_off_c, 10, 60, 0
11, 27360, Note_on_c, 10, 62, 75
11, 27444, Note_off_c, 10, 62, 0
11, 27456, Note_on_c, 10, 63, 75
11, 27540, Note_off_c, 10, 63, 0
11, 27552, Note_on_c, 10, 60, 75
11, 27636, Note_off_c, 10, 60, 0
11, 27648, Note_on_c, 10, 65, 75
11, 27732, Note_off_c, 10, 65, 0
11, 27744, Note_on_c, 10, 65, 75
11, 27924, Note_off_c, 10, 65, 0
11, 27936, Note_on_c, 10, 60, 75
11, 28020, Note_off_c, 10, 60, 0
11, 28032, Note_on_c, 10, 60, 75
11, 28212, Note_off_c, 10, 60, 0
11, 28224, Note_on_c, 10, 60, 75
11, 28308, Note_off_c, 10, 60, 0
11, 28320, Note_on_c, 10, 55, 75
11, 28404, Note_off_c, 10, 55, 0
11, 28416, Note_on_c, 10, 57, 75
11, 28500, Note_off_c, 10, 57, 0
11, 28512, Note_on_c, 10, 53, 75
11, 28596, Note_off_c, 10, 53, 0
11, 28608, Note_on_c, 10, 60, 75
11, 28788, Note_off_c, 10, 60, 0
11, 28800, Note_on_c, 10, 60, 75
11, 28884, Note_off_c, 10, 60, 0
11, 28896, Note_on_c, 10, 60, 75
11, 29076, Note_off_c, 10, 60, 0
11, 29088, Note_on_c, 10, 60, 75
11, 29172, Note_off_c, 10, 60, 0
11, 29184, Note_on_c, 10, 64, 75
11, 29194, Note_off_c, 10, 64, 0
11, 29196, Note_on_c, 10, 62, 75
11, 29206, Note_off_c, 10, 62, 0
11, 29208, Note_on_c, 10, 64, 75
11, 29218, Note_off_c, 10, 64, 0
11, 29220, Note_on_c, 10, 62, 75
11, 29230, Note_off_c, 10, 62, 0
11, 29232, Note_on_c, 10, 64, 75
11, 29242, Note_off_c, 10, 64, 0
11, 29244, Note_on_c, 10, 62, 75
11, 29254, Note_off_c, 10, 62, 0
11, 29256, Note_on_c, 10, 64, 75
11, 29266, Note_off_c, 10, 64, 0
11, 29268, Note_on_c, 10, 62, 75
11, 29278, Note_off_c, 10, 62, 0
11, 29280, Note_on_c, 10, 60, 75
11, 29322, Note_off_c, 10, 60, 0
11, 29328, Note_on_c, 10, 62, 75
11, 29370, Note_off_c, 10, 62, 0
11, 29376, Note_on_c, 10, 64, 75
11, 29460, Note_off_c, 10, 64, 0
11, 29472, Note_on_c, 10, 62, 75
11, 29652, Note_off_c, 10, 62, 0
11, 29664, Note_on_c, 10, 64, 75
11, 29748, Note_off_c, 10, 64, 0
11, 29760, Note_on_c, 10, 60, 75
11, 29844, Note_off_c, 10, 60, 0
11, 29856, Note_on_c, 10, 67, 75
11, 29940, Note_off_c, 10, 67, 0
11, 29952, Note_on_c, 10, 65, 75
11, 30036, Note_off_c, 10, 65, 0
11, 30048, Note_on_c, 10, 64, 75
11, 30324, Note_off_c, 10, 64, 0
11, 30336, Note_on_c, 10, 65, 75
11, 30516, Note_off_c, 10, 65, 0
11, 30528, Note_on_c, 10, 65, 75
11, 30612, Note_off_c, 10, 65, 0
11, 30624, Note_on_c, 10, 65, 75
11, 30634, Note_off_c, 10, 65, 0
11, 30636, Note_on_c, 10, 63, 75
11, 30646, Note_off_c, 10, 63, 0
11, 30648, Note_on_c, 10, 65, 75
11, 30658, Note_off_c, 10, 65, 0
11, 30660, Note_on_c, 10, 63, 75
11, 30670, Note_off_c, 10, 63, 0
11, 30672, Note_on_c, 10, 65, 75
11, 30682, Note_off_c, 10, 65, 0
11, 30684, Note_on_c, 10, 63, 75
11, 30694, Note_off_c, 10, 63, 0
11, 30696, Note_on_c, 10, 65, 75
11, 30706, Note_off_c, 10, 65, 0
11, 30708, Note_on_c, 10, 63, 75
11, 30718, Note_off_c, 10, 63, 0
11, 30720, Note_on_c, 10, 62, 75
11, 30762, Note_off_c, 10, 62, 0
11, 30768, Note_on_c, 10, 60, 75
11, 30810, Note_off_c, 10, 60, 0
11, 30816, Note_on_c, 10, 62, 75
11, 30900, Note_off_c, 10, 62, 0
11, 30912, Note_on_c, 10, 63, 75
11, 30996, Note_off_c, 10, 63, 0
11, 31008, Note_on_c, 10, 60, 75
11, 31092, Note_off_c, 10, 60, 0
11, 31104, Note_on_c, 10, 65, 75
11, 31188, Note_off_c, 10, 65, 0
11, 31200, Note_on_c, 10, 65, 75
11, 31380, Note_off_c, 10, 65, 0
11, 31392, Note_on_c, 10, 60, 75
11, 31476, Note_off_c, 10, 60, 0
11, 31488, Note_on_c, 10, 60, 75
11, 31668, Note_off_c, 10, 60, 0
11, 31680, Note_on_c, 10, 60, 75
11, 31764, Note_off_c, 10, 60, 0
11, 31776, Note_on_c, 10, 55, 75
11, 31860, Note_off_c, 10, 55, 0
11, 31872, Note_on_c, 10, 57, 75
11, 31956, Note_off_c, 10, 57, 0
11, 31968, Note_on_c, 10, 53, 75
11, 32052, Note_off_c, 10, 53, 0
11, 32064, Note_on_c, 10, 60, 75
11, 32244, Note_off_c, 10, 60, 0
11, 32256, Note_on_c, 10, 60, 75
11, 32340, Note_off_c, 10, 60, 0
11, 32352, Note_on_c, 10, 60, 75
11, 32532, Note_off_c, 10, 60, 0
11, 32544, Note_on_c, 10, 60, 75
11, 32628, Note_off_c, 10, 60, 0
11, 32640, Note_on_c, 10, 64, 75
11, 32650, Note_off_c, 10, 64, 0
11, 32652, Note_on_c, 10, 62, 75
11, 32662, Note_off_c, 10, 62, 0
11, 32664, Note_on_c, 10, 64, 75
11, 32674, Note_off_c, 10, 64, 0
11, 32676, Note_on_c, 10, 62, 75
11, 32686, Note_off_c, 10, 62, 0
11, 32688, Note_on_c, 10, 64, 75
11, 32698, Note_off_c, 10, 64, 0
11, 32700, Note_on_c, 10, 62, 75
11, 32710, Note_off_c, 10, 62, 0
11, 32712, Note_on_c, 10, 64, 75
11, 32722, Note_off_c, 10, 64, 0
11, 32724, Note_on_c, 10, 62, 75
11, 32734, Note_off_c, 10, 62, 0
11, 32736, Note_on_c, 10, 60, 75
11, 32778, Note_off_c, 10, 60, 0
11, 32784, Note_on_c, 10, 62, 75
11, 32826, Note_off_c, 10, 62, 0
11, 32832, Note_on_c, 10, 64, 75
11, 32916, Note_off_c, 10, 64, 0
11, 32928, Note_on_c, 10, 62, 75
11, 33108, Note_off_c, 10, 62, 0
11, 33120, Note_on_c, 10, 64, 75
11, 33204, Note_off_c, 10, 64, 0
11, 33216, Note_on_c, 10, 60, 75
11, 33300, Note_off_c, 10, 60, 0
11, 33312, Note_on_c, 10, 67, 75
11, 33396, Note_off_c, 10, 67, 0
11, 33408, Note_on_c, 10, 65, 75
11, 33492, Note_off_c, 10, 65, 0
11, 33504, Note_on_c, 10, 64, 75
11, 33780, Note_off_c, 10, 64, 0
11, 33792, Note_on_c, 10, 67, 75
11, 33972, Note_off_c, 10, 67, 0
11, 33984, Note_on_c, 10, 72, 75
11, 34068, Note_off_c, 10, 72, 0
11, 34080, Note_on_c, 10, 72, 75
11, 34090, Note_off_c, 10, 72, 0
11, 34092, Note_on_c, 10, 70, 75
11, 34102, Note_off_c, 10, 70, 0
11, 34104, Note_on_c, 10, 72, 75
11, 34114, Note_off_c, 10, 72, 0
11, 34116, Note_on_c, 10, 70, 75
11, 34126, Note_off_c, 10, 70, 0
11, 34128, Note_on_c, 10, 72, 75
11, 34138, Note_off_c, 10, 72, 0
11, 34140, Note_on_c, 10, 70, 75
11, 34150, Note_off_c, 10, 70, 0
11, 34152, Note_on_c, 10, 72, 75
11, 34162, Note_off_c, 10, 72, 0
11, 34164, Note_on_c, 10, 70, 75
11, 34174, Note_off_c, 10, 70, 0
11, 34176, Note_on_c, 10, 69, 75
11, 34218, Note_off_c, 10, 69, 0
11, 34224, Note_on_c, 10, 67, 75
11, 34266, Note_off_c, 10, 67, 0
11, 34272, Note_on_c, 10, 69, 75
11, 34356, Note_off_c, 10, 69, 0
11, 34368, Note_on_c, 10, 70, 75
11, 34452, Note_off_c, 10, 70, 0
11, 34464, Note_on_c, 10, 67, 75
11, 34548, Note_off_c, 10, 67, 0
11, 34560, Note_on_c, 10, 72, 75
11, 34644, Note_off_c, 10, 72, 0
11, 34656, Note_on_c, 10, 72, 75
11, 34836, Note_off_c, 10, 72, 0
11, 34848, Note_on_c, 10, 67, 75
11, 34932, Note_off_c, 10, 67, 0
11, 34944, Note_on_c, 10, 67, 75
11, 35124, Note_off_c, 10, 67, 0
11, 35136, Note_on_c, 10, 67, 75
11, 35220, Note_off_c, 10, 67, 0
11, 35232, Note_on_c, 10, 62, 75
11, 35316, Note_off_c, 10, 62, 0
11, 35328, Note_on_c, 10, 64, 75
11, 35412, Note_off_c, 10, 64, 0
11, 35424, Note_on_c, 10, 60, 75
11, 35508, Note_off_c, 10, 60, 0
11, 35520, Note_on_c, 10, 67, 75
11, 35700, Note_off_c, 10, 67, 0
11, 35712, Note_on_c, 10, 67, 75
11, 35796, Note_off_c, 10, 67, 0
11, 35808, Note_on_c, 10, 67, 75
11, 36084, Note_off_c, 10, 67, 0
11, 36096, Note_on_c, 10, 67, 75
11, 36138, Note_off_c, 10, 67, 0
11, 36144, Note_on_c, 10, 65, 75
11, 36186, Note_off_c, 10, 65, 0
11, 36192, Note_on_c, 10, 67, 75
11, 36202, Note_off_c, 10, 67, 0
11, 36204, Note_on_c, 10, 65, 75
11, 36214, Note_off_c, 10, 65, 0
11, 36216, Note_on_c, 10, 67, 75
11, 36226, Note_off_c, 10, 67, 0
11, 36228, Note_on_c, 10, 65, 75
11, 36238, Note_off_c, 10, 65, 0
11, 36240, Note_on_c, 10, 67, 75
11, 36250, Note_off_c, 10, 67, 0
11, 36252, Note_on_c, 10, 65, 75
11, 36262, Note_off_c, 10, 65, 0
11, 36264, Note_on_c, 10, 67, 75
11, 36274, Note_off_c, 10, 67, 0
11, 36276, Note_on_c, 10, 65, 75
11, 36286, Note_off_c, 10, 65, 0
11, 36288, Note_on_c, 10, 67, 75
11, 36298, Note_off_c, 10, 67, 0
11, 36300, Note_on_c, 10, 65, 75
11, 36310, Note_off_c, 10, 65, 0
11, 36312, Note_on_c, 10, 67, 75
11, 36322, Note_off_c, 10, 67, 0
11, 36324, Note_on_c, 10, 65, 75
11, 36334, Note_off_c, 10, 65, 0
11, 36336, Note_on_c, 10, 64, 75
11, 36357, Note_off_c, 10, 64, 0
11, 36360, Note_on_c, 10, 65, 75
11, 36381, Note_off_c, 10, 65, 0
11, 36384, Note_on_c, 10, 67, 75
11, 36468, Note_off_c, 10, 67, 0
11, 36480, Note_on_c, 10, 72, 75
11, 36564, Note_off_c, 10, 72, 0
11, 36576, Note_on_c, 10, 64, 75
11, 36660, Note_off_c, 10, 64, 0
11, 36672, Note_on_c, 10, 69, 75
11, 36714, Note_off_c, 10, 69, 0
11, 36720, Note_on_c, 10, 70, 75
11, 36762, Note_off_c, 10, 70, 0
11, 36768, Note_on_c, 10, 67, 75
11, 36778, Note_off_c, 10, 67, 0
11, 36780, Note_on_c, 10, 65, 75
11, 36790, Note_off_c, 10, 65, 0
11, 36792, Note_on_c, 10, 67, 75
11, 36802, Note_off_c, 10, 67, 0
11, 36804, Note_on_c, 10, 65, 75
11, 36814, Note_off_c, 10, 65, 0
11, 36816, Note_on_c, 10, 67, 75
11, 36826, Note_off_c, 10, 67, 0
11, 36828, Note_on_c, 10, 65, 75
11, 36838, Note_off_c, 10, 65, 0
11, 36840, Note_on_c, 10, 67, 75
11, 36850, Note_off_c, 10, 67, 0
11, 36852, Note_on_c, 10, 65, 75
11, 36862, Note_off_c, 10, 65, 0
11, 36864, Note_on_c, 10, 67, 75
11, 36874, Note_off_c, 10, 67, 0
11, 36876, Note_on_c, 10, 65, 75
11, 36886, Note_off_c, 10, 65, 0
11, 36888, Note_on_c, 10, 67, 75
11, 36898, Note_off_c, 10, 67, 0
11, 36900, Note_on_c, 10, 65, 75
11, 36910, Note_off_c, 10, 65, 0
11, 36912, Note_on_c, 10, 69, 75
11, 36954, Note_off_c, 10, 69, 0
11, 36960, Note_on_c, 10, 69, 75
11, 37236, Note_off_c, 10, 69, 0
11, 37248, Note_on_c, 10, 67, 75
11, 37428, Note_off_c, 10, 67, 0
11, 37440, Note_on_c, 10, 72, 75
11, 37524, Note_off_c, 10, 72, 0
11, 37536, Note_on_c, 10, 72, 75
11, 37546, Note_off_c, 10, 72, 0
11, 37548, Note_on_c, 10, 70, 75
11, 37558, Note_off_c, 10, 70, 0
11, 37560, Note_on_c, 10, 72, 75
11, 37570, Note_off_c, 10, 72, 0
11, 37572, Note_on_c, 10, 70, 75
11, 37582, Note_off_c, 10, 70, 0
11, 37584, Note_on_c, 10, 72, 75
11, 37594, Note_off_c, 10, 72, 0
11, 37596, Note_on_c, 10, 70, 75
11, 37606, Note_off_c, 10, 70, 0
11, 37608, Note_on_c, 10, 72, 75
11, 37618, Note_off_c, 10, 72, 0
11, 37620, Note_on_c, 10, 70, 75
11, 37630, Note_off_c, 10, 70, 0
11, 37632, Note_on_c, 10, 69, 75
11, 37674, Note_off_c, 10, 69, 0
11, 37680, Note_on_c, 10, 67, 75
11, 37722, Note_off_c, 10, 67, 0
11, 37728, Note_on_c, 10, 69, 75
11, 37812, Note_off_c, 10, 69, 0
11, 37824, Note_on_c, 10, 70, 75
11, 37908, Note_off_c, 10, 70, 0
11, 37920, Note_on_c, 10, 67, 75
11, 38004, Note_off_c, 10, 67, 0
11, 38016, Note_on_c, 10, 72, 75
11, 38100, Note_off_c, 10, 72, 0
11, 38112, Note_on_c, 10, 72, 75
11, 38292, Note_off_c, 10, 72, 0
11, 38304, Note_on_c, 10, 67, 75
11, 38388, Note_off_c, 10, 67, 0
11, 38400, Note_on_c, 10, 67, 75
11, 38580, Note_off_c, 10, 67, 0
11, 38592, Note_on_c, 10, 67, 75
11, 38676, Note_off_c, 10, 67, 0
11, 38688, Note_on_c, 10, 62, 75
11, 38772, Note_off_c, 10, 62, 0
11, 38784, Note_on_c, 10, 64, 75
11, 38868, Note_off_c, 10, 64, 0
11, 38880, Note_on_c, 10, 60, 75
11, 38964, Note_off_c, 10, 60, 0
11, 38976, Note_on_c, 10, 67, 75
11, 39156, Note_off_c, 10, 67, 0
11, 39168, Note_on_c, 10, 67, 75
11, 39252, Note_off_c, 10, 67, 0
11, 39264, Note_on_c, 10, 67, 75
11, 39540, Note_off_c, 10, 67, 0
11, 39552, Note_on_c, 10, 67, 75
11, 39594, Note_off_c, 10, 67, 0
11, 39600, Note_on_c, 10, 65, 75
11, 39642, Note_off_c, 10, 65, 0
11, 39648, Note_on_c, 10, 67, 75
11, 39658, Note_off_c, 10, 67, 0
11, 39660, Note_on_c, 10, 65, 75
11, 39670, Note_off_c, 10, 65, 0
11, 39672, Note_on_c, 10, 67, 75
11, 39682, Note_off_c, 10, 67, 0
11, 39684, Note_on_c, 10, 65, 75
11, 39694, Note_off_c, 10, 65, 0
11, 39696, Note_on_c, 10, 67, 75
11, 39706, Note_off_c, 10, 67, 0
11, 39708, Note_on_c, 10, 65, 75
11, 39718, Note_off_c, 10, 65, 0
11, 39720, Note_on_c, 10, 67, 75
11, 39730, Note_off_c, 10, 67, 0
11, 39732, Note_on_c, 10, 65, 75
11, 39742, Note_off_c, 10, 65, 0
11, 39744, Note_on_c, 10, 67, 75
11, 39754, Note_off_c, 10, 67, 0
11, 39756, Note_on_c, 10, 65, 75
11, 39766, Note_off_c, 10, 65, 0
11, 39768, Note_on_c, 10, 67, 75
11, 39778, Note_off_c, 10, 67, 0
11, 39780, Note_on_c, 10, 65, 75
11, 39790, Note_off_c, 10, 65, 0
11, 39792, Note_on_c, 10, 64, 75
11, 39813, Note_off_c, 10, 64, 0
11, 39816, Note_on_c, 10, 65, 75
11, 39837, Note_off_c, 10, 65, 0
11, 39840, Note_on_c, 10, 67, 75
11, 39924, Note_off_c, 10, 67, 0
11, 39936, Note_on_c, 10, 72, 75
11, 40020, Note_off_c, 10, 72, 0
11, 40032, Note_on_c, 10, 64, 75
11, 40116, Note_off_c, 10, 64, 0
11, 40128, Note_on_c, 10, 69, 75
11, 40170, Note_off_c, 10, 69, 0
11, 40176, Note_on_c, 10, 70, 75
11, 40218, Note_off_c, 10, 70, 0
11, 40224, Note_on_c, 10, 67, 75
11, 40234, Note_off_c, 10, 67, 0
11, 40236, Note_on_c, 10, 65, 75
11, 40246, Note_off_c, 10, 65, 0
11, 40248, Note_on_c, 10, 67, 75
11, 40258, Note_off_c, 10, 67, 0
11, 40260, Note_on_c, 10, 65, 75
11, 40270, Note_off_c, 10, 65, 0
11, 40272, Note_on_c, 10, 67, 75
11, 40282, Note_off_c, 10, 67, 0
11, 40284, Note_on_c, 10, 65, 75
11, 40294, Note_off_c, 10, 65, 0
11, 40296, Note_on_c, 10, 67, 75
11, 40306, Note_off_c, 10, 67, 0
11, 40308, Note_on_c, 10, 65, 75
11, 40318, Note_off_c, 10, 65, 0
11, 40320, Note_on_c, 10, 67, 75
11, 40330, Note_off_c, 10, 67, 0
11, 40332, Note_on_c, 10, 65, 75
11, 40342, Note_off_c, 10, 65, 0
11, 40344, Note_on_c, 10, 67, 75
11, 40354, Note_off_c, 10, 67, 0
11, 40356, Note_on_c, 10, 65, 75
11, 40366, Note_off_c, 10, 65, 0
11, 40368, Note_on_c, 10, 69, 75
11, 40410, Note_off_c, 10, 69, 0
11, 40416, Note_on_c, 10, 69, 75
11, 40692, Note_off_c, 10, 69, 0
11, 40692, End_track
12, 0, Start_track
12, 0, Title_t, "Cello"
12, 0, Control_c, 11, 0, 0
12, 0, Program_c, 11, 42
12, 0, Time_signature, 3, 2, 96, 8
12, 0, Tempo, 461538
12, 96, Tempo, 428571
12, 96, Note_on_c, 11, 57, 98
12, 276, Note_off_c, 11, 57, 0
12, 288, Note_on_c, 11, 58, 98
12, 372, Note_off_c, 11, 58, 0
12, 384, Note_on_c, 11, 60, 98
12, 468, Note_off_c, 11, 60, 0
12, 480, Note_on_c, 11, 63, 98
12, 564, Note_off_c, 11, 63, 0
12, 576, Note_on_c, 11, 62, 98
12, 660, Note_off_c, 11, 62, 0
12, 672, Note_on_c, 11, 60, 98
12, 756, Note_off_c, 11, 60, 0
12, 768, Note_on_c, 11, 58, 98
12, 810, Note_off_c, 11, 58, 0
12, 816, Note_on_c, 11, 57, 98
12, 858, Note_off_c, 11, 57, 0
12, 864, Note_on_c, 11, 58, 98
12, 948, Note_off_c, 11, 58, 0
12, 960, Note_on_c, 11, 57, 98
12, 1044, Note_off_c, 11, 57, 0
12, 1056, Note_on_c, 11, 58, 98
12, 1098, Note_off_c, 11, 58, 0
12, 1104, Note_on_c, 11, 57, 98
12, 1146, Note_off_c, 11, 57, 0
12, 1152, Note_on_c, 11, 55, 98
12, 1194, Note_off_c, 11, 55, 0
12, 1200, Note_on_c, 11, 53, 98
12, 1242, Note_off_c, 11, 53, 0
12, 1248, Note_on_c, 11, 53, 98
12, 1258, Note_off_c, 11, 53, 0
12, 1260, Note_on_c, 11, 52, 98
12, 1270, Note_off_c, 11, 52, 0
12, 1272, Note_on_c, 11, 53, 98
12, 1282, Note_off_c, 11, 53, 0
12, 1284, Note_on_c, 11, 52, 98
12, 1294, Note_off_c, 11, 52, 0
12, 1296, Note_on_c, 11, 53, 98
12, 1306, Note_off_c, 11, 53, 0
12, 1308, Note_on_c, 11, 52, 98
12, 1318, Note_off_c, 11, 52, 0
12, 1320, Note_on_c, 11, 53, 98
12, 1330, Note_off_c, 11, 53, 0
12, 1332, Note_on_c, 11, 52, 98
12, 1342, Note_off_c, 11, 52, 0
12, 1344, Note_on_c, 11, 53, 98
12, 1354, Note_off_c, 11, 53, 0
12, 1356, Note_on_c, 11, 52, 98
12, 1366, Note_off_c, 11, 52, 0
12, 1368, Note_on_c, 11, 53, 98
12, 1378, Note_off_c, 11, 53, 0
12, 1380, Note_on_c, 11, 52, 98
12, 1390, Note_off_c, 11, 52, 0
12, 1392, Note_on_c, 11, 53, 98
12, 1402, Note_off_c, 11, 53, 0
12, 1404, Note_on_c, 11, 52, 98
12, 1414, Note_off_c, 11, 52, 0
12, 1416, Note_on_c, 11, 53, 98
12, 1426, Note_off_c, 11, 53, 0
12, 1428, Note_on_c, 11, 52, 98
12, 1438, Note_off_c, 11, 52, 0
12, 1440, Note_on_c, 11, 53, 98
12, 1524, Note_off_c, 11, 53, 0
12, 1536, Note_on_c, 11, 55, 98
12, 1620, Note_off_c, 11, 55, 0
12, 1632, Note_on_c, 11, 53, 98
12, 1674, Note_off_c, 11, 53, 0
12, 1680, Note_on_c, 11, 52, 98
12, 1722, Note_off_c, 11, 52, 0
12, 1728, Note_on_c, 11, 53, 98
12, 1812, Note_off_c, 11, 53, 0
12, 1824, Note_on_c, 11, 52, 98
12, 1908, Note_off_c, 11, 52, 0
12, 1920, Note_on_c, 11, 53, 98
12, 1962, Note_off_c, 11, 53, 0
12, 1968, Note_on_c, 11, 52, 98
12, 2010, Note_off_c, 11, 52, 0
12, 2016, Note_on_c, 11, 50, 98
12, 2058, Note_off_c, 11, 50, 0
12, 2064, Note_on_c, 11, 48, 98
12, 2106, Note_off_c, 11, 48, 0
12, 2112, Note_on_c, 11, 53, 98
12, 2196, Note_off_c, 11, 53, 0
12, 2208, Note_on_c, 11, 52, 98
12, 2250, Note_off_c, 11, 52, 0
12, 2256, Note_on_c, 11, 50, 98
12, 2298, Note_off_c, 11, 50, 0
12, 2304, Note_on_c, 11, 52, 98
12, 2388, Note_off_c, 11, 52, 0
12, 2400, Note_on_c, 11, 50, 98
12, 2484, Note_off_c, 11, 50, 0
12, 2496, Note_on_c, 11, 52, 98
12, 2580, Note_off_c, 11, 52, 0
12, 2592, Note_on_c, 11, 48, 98
12, 2676, Note_off_c, 11, 48, 0
12, 2688, Note_on_c, 11, 47, 98
12, 2772, Note_off_c, 11, 47, 0
12, 2784, Note_on_c, 11, 45, 98
12, 2826, Note_off_c, 11, 45, 0
12, 2832, Note_on_c, 11, 43, 98
12, 2874, Note_off_c, 11, 43, 0
12, 2880, Note_on_c, 11, 41, 98
12, 2922, Note_off_c, 11, 41, 0
12, 2928, Note_on_c, 11, 40, 98
12, 2970, Note_off_c, 11, 40, 0
12, 2976, Note_on_c, 11, 45, 98
12, 3018, Note_off_c, 11, 45, 0
12, 3024, Note_on_c, 11, 41, 98
12, 3066, Note_off_c, 11, 41, 0
12, 3072, Note_on_c, 11, 43, 98
12, 3156, Note_off_c, 11, 43, 0
12, 3168, Note_on_c, 11, 43, 98
12, 3252, Note_off_c, 11, 43, 0
12, 3264, Note_on_c, 11, 36, 98
12, 3348, Note_off_c, 11, 36, 0
12, 3360, Note_on_c, 11, 48, 98
12, 3402, Note_off_c, 11, 48, 0
12, 3408, Note_on_c, 11, 46, 98
12, 3450, Note_off_c, 11, 46, 0
12, 3456, Note_on_c, 11, 45, 98
12, 3498, Note_off_c, 11, 45, 0
12, 3504, Note_on_c, 11, 43, 98
12, 3546, Note_off_c, 11, 43, 0
12, 3552, Note_on_c, 11, 41, 98
12, 3636, Note_off_c, 11, 41, 0
12, 3648, Note_on_c, 11, 57, 98
12, 3732, Note_off_c, 11, 57, 0
12, 3744, Note_on_c, 11, 58, 98
12, 3828, Note_off_c, 11, 58, 0
12, 3840, Note_on_c, 11, 60, 98
12, 3924, Note_off_c, 11, 60, 0
12, 3936, Note_on_c, 11, 63, 98
12, 4020, Note_off_c, 11, 63, 0
12, 4032, Note_on_c, 11, 62, 98
12, 4116, Note_off_c, 11, 62, 0
12, 4128, Note_on_c, 11, 60, 98
12, 4212, Note_off_c, 11, 60, 0
12, 4224, Note_on_c, 11, 58, 98
12, 4266, Note_off_c, 11, 58, 0
12, 4272, Note_on_c, 11, 57, 98
12, 4314, Note_off_c, 11, 57, 0
12, 4320, Note_on_c, 11, 58, 98
12, 4404, Note_off_c, 11, 58, 0
12, 4416, Note_on_c, 11, 57, 98
12, 4500, Note_off_c, 11, 57, 0
12, 4512, Note_on_c, 11, 58, 98
12, 4554, Note_off_c, 11, 58, 0
12, 4560, Note_on_c, 11, 57, 98
12, 4602, Note_off_c, 11, 57, 0
12, 4608, Note_on_c, 11, 55, 98
12, 4650, Note_off_c, 11, 55, 0
12, 4656, Note_on_c, 11, 53, 98
12, 4698, Note_off_c, 11, 53, 0
12, 4704, Note_on_c, 11, 53, 98
12, 4714, Note_off_c, 11, 53, 0
12, 4716, Note_on_c, 11, 52, 98
12, 4726, Note_off_c, 11, 52, 0
12, 4728, Note_on_c, 11, 53, 98
12, 4738, Note_off_c, 11, 53, 0
12, 4740, Note_on_c, 11, 52, 98
12, 4750, Note_off_c, 11, 52, 0
12, 4752, Note_on_c, 11, 53, 98
12, 4762, Note_off_c, 11, 53, 0
12, 4764, Note_on_c, 11, 52, 98
12, 4774, Note_off_c, 11, 52, 0
12, 4776, Note_on_c, 11, 53, 98
12, 4786, Note_off_c, 11, 53, 0
12, 4788, Note_on_c, 11, 52, 98
12, 4798, Note_off_c, 11, 52, 0
12, 4800, Note_on_c, 11, 53, 98
12, 4810, Note_off_c, 11, 53, 0
12, 4812, Note_on_c, 11, 52, 98
12, 4822, Note_off_c, 11, 52, 0
12, 4824, Note_on_c, 11, 53, 98
12, 4834, Note_off_c, 11, 53, 0
12, 4836, Note_on_c, 11, 52, 98
12, 4846, Note_off_c, 11, 52, 0
12, 4848, Note_on_c, 11, 53, 98
12, 4858, Note_off_c, 11, 53, 0
12, 4860, Note_on_c, 11, 52, 98
12, 4870, Note_off_c, 11, 52, 0
12, 4872, Note_on_c, 11, 53, 98
12, 4882, Note_off_c, 11, 53, 0
12, 4884, Note_on_c, 11, 52, 98
12, 4894, Note_off_c, 11, 52, 0
12, 4896, Note_on_c, 11, 53, 98
12, 4980, Note_off_c, 11, 53, 0
12, 4992, Note_on_c, 11, 55, 98
12, 5076, Note_off_c, 11, 55, 0
12, 5088, Note_on_c, 11, 53, 98
12, 5130, Note_off_c, 11, 53, 0
12, 5136, Note_on_c, 11, 52, 98
12, 5178, Note_off_c, 11, 52, 0
12, 5184, Note_on_c, 11, 53, 98
12, 5268, Note_off_c, 11, 53, 0
12, 5280, Note_on_c, 11, 52, 98
12, 5364, Note_off_c, 11, 52, 0
12, 5376, Note_on_c, 11, 53, 98
12, 5418, Note_off_c, 11, 53, 0
12, 5424, Note_on_c, 11, 52, 98
12, 5466, Note_off_c, 11, 52, 0
12, 5472, Note_on_c, 11, 50, 98
12, 5514, Note_off_c, 11, 50, 0
12, 5520, Note_on_c, 11, 48, 98
12, 5562, Note_off_c, 11, 48, 0
12, 5568, Note_on_c, 11, 53, 98
12, 5652, Note_off_c, 11, 53, 0
12, 5664, Note_on_c, 11, 52, 98
12, 5706, Note_off_c, 11, 52, 0
12, 5712, Note_on_c, 11, 50, 98
12, 5754, Note_off_c, 11, 50, 0
12, 5760, Note_on_c, 11, 52, 98
12, 5844, Note_off_c, 11, 52, 0
12, 5856, Note_on_c, 11, 50, 98
12, 5940, Note_off_c, 11, 50, 0
12, 5952, Note_on_c, 11, 52, 98
12, 6036, Note_off_c, 11, 52, 0
12, 6048, Note_on_c, 11, 48, 98
12, 6132, Note_off_c, 11, 48, 0
12, 6144, Note_on_c, 11, 47, 98
12, 6228, Note_off_c, 11, 47, 0
12, 6240, Note_on_c, 11, 45, 98
12, 6282, Note_off_c, 11, 45, 0
12, 6288, Note_on_c, 11, 43, 98
12, 6330, Note_off_c, 11, 43, 0
12, 6336, Note_on_c, 11, 41, 98
12, 6378, Note_off_c, 11, 41, 0
12, 6384, Note_on_c, 11, 40, 98
12, 6426, Note_off_c, 11, 40, 0
12, 6432, Note_on_c, 11, 45, 98
12, 6474, Note_off_c, 11, 45, 0
12, 6480, Note_on_c, 11, 41, 98
12, 6522, Note_off_c, 11, 41, 0
12, 6528, Note_on_c, 11, 43, 98
12, 6612, Note_off_c, 11, 43, 0
12, 6624, Note_on_c, 11, 43, 98
12, 6708, Note_off_c, 11, 43, 0
12, 6720, Note_on_c, 11, 36, 98
12, 6804, Note_off_c, 11, 36, 0
12, 6816, Note_on_c, 11, 48, 98
12, 6900, Note_off_c, 11, 48, 0
12, 6912, Note_on_c, 11, 50, 98
12, 6996, Note_off_c, 11, 50, 0
12, 7008, Note_on_c, 11, 52, 98
12, 7188, Note_off_c, 11, 52, 0
12, 7200, Note_on_c, 11, 53, 98
12, 7284, Note_off_c, 11, 53, 0
12, 7296, Note_on_c, 11, 55, 98
12, 7380, Note_off_c, 11, 55, 0
12, 7392, Note_on_c, 11, 58, 98
12, 7476, Note_off_c, 11, 58, 0
12, 7488, Note_on_c, 11, 57, 98
12, 7572, Note_off_c, 11, 57, 0
12, 7584, Note_on_c, 11, 55, 98
12, 7668, Note_off_c, 11, 55, 0
12, 7680, Note_on_c, 11, 53, 98
12, 7722, Note_off_c, 11, 53, 0
12, 7728, Note_on_c, 11, 52, 98
12, 7770, Note_off_c, 11, 52, 0
12, 7776, Note_on_c, 11, 53, 98
12, 7860, Note_off_c, 11, 53, 0
12, 7872, Note_on_c, 11, 52, 98
12, 7956, Note_off_c, 11, 52, 0
12, 7968, Note_on_c, 11, 53, 98
12, 8010, Note_off_c, 11, 53, 0
12, 8016, Note_on_c, 11, 52, 98
12, 8058, Note_off_c, 11, 52, 0
12, 8064, Note_on_c, 11, 50, 98
12, 8106, Note_off_c, 11, 50, 0
12, 8112, Note_on_c, 11, 48, 98
12, 8154, Note_off_c, 11, 48, 0
12, 8160, Note_on_c, 11, 48, 98
12, 8170, Note_off_c, 11, 48, 0
12, 8172, Note_on_c, 11, 47, 98
12, 8182, Note_off_c, 11, 47, 0
12, 8184, Note_on_c, 11, 48, 98
12, 8194, Note_off_c, 11, 48, 0
12, 8196, Note_on_c, 11, 47, 98
12, 8206, Note_off_c, 11, 47, 0
12, 8208, Note_on_c, 11, 48, 98
12, 8218, Note_off_c, 11, 48, 0
12, 8220, Note_on_c, 11, 47, 98
12, 8230, Note_off_c, 11, 47, 0
12, 8232, Note_on_c, 11, 48, 98
12, 8242, Note_off_c, 11, 48, 0
12, 8244, Note_on_c, 11, 47, 98
12, 8254, Note_off_c, 11, 47, 0
12, 8256, Note_on_c, 11, 48, 98
12, 8266, Note_off_c, 11, 48, 0
12, 8268, Note_on_c, 11, 47, 98
12, 8278, Note_off_c, 11, 47, 0
12, 8280, Note_on_c, 11, 48, 98
12, 8290, Note_off_c, 11, 48, 0
12, 8292, Note_on_c, 11, 47, 98
12, 8302, Note_off_c, 11, 47, 0
12, 8304, Note_on_c, 11, 48, 98
12, 8314, Note_off_c, 11, 48, 0
12, 8316, Note_on_c, 11, 47, 98
12, 8326, Note_off_c, 11, 47, 0
12, 8328, Note_on_c, 11, 48, 98
12, 8338, Note_off_c, 11, 48, 0
12, 8340, Note_on_c, 11, 47, 98
12, 8350, Note_off_c, 11, 47, 0
12, 8352, Note_on_c, 11, 48, 98
12, 8436, Note_off_c, 11, 48, 0
12, 8448, Note_on_c, 11, 50, 98
12, 8532, Note_off_c, 11, 50, 0
12, 8544, Note_on_c, 11, 48, 98
12, 8586, Note_off_c, 11, 48, 0
12, 8592, Note_on_c, 11, 47, 98
12, 8634, Note_off_c, 11, 47, 0
12, 8640, Note_on_c, 11, 48, 98
12, 8724, Note_off_c, 11, 48, 0
12, 8736, Note_on_c, 11, 47, 98
12, 8820, Note_off_c, 11, 47, 0
12, 8832, Note_on_c, 11, 48, 98
12, 8874, Note_off_c, 11, 48, 0
12, 8880, Note_on_c, 11, 47, 98
12, 8922, Note_off_c, 11, 47, 0
12, 8928, Note_on_c, 11, 45, 98
12, 8970, Note_off_c, 11, 45, 0
12, 8976, Note_on_c, 11, 43, 98
12, 9018, Note_off_c, 11, 43, 0
12, 9024, Note_on_c, 11, 48, 98
12, 9108, Note_off_c, 11, 48, 0
12, 9120, Note_on_c, 11, 46, 98
12, 9162, Note_off_c, 11, 46, 0
12, 9168, Note_on_c, 11, 45, 98
12, 9210, Note_off_c, 11, 45, 0
12, 9216, Note_on_c, 11, 43, 98
12, 9258, Note_off_c, 11, 43, 0
12, 9264, Note_on_c, 11, 41, 98
12, 9306, Note_off_c, 11, 41, 0
12, 9312, Note_on_c, 11, 40, 98
12, 9396, Note_off_c, 11, 40, 0
12, 9408, Note_on_c, 11, 41, 98
12, 9450, Note_off_c, 11, 41, 0
12, 9456, Note_on_c, 11, 40, 98
12, 9498, Note_off_c, 11, 40, 0
12, 9504, Note_on_c, 11, 38, 98
12, 9546, Note_off_c, 11, 38, 0
12, 9552, Note_on_c, 11, 40, 98
12, 9594, Note_off_c, 11, 40, 0
12, 9600, Note_on_c, 11, 36, 98
12, 9684, Note_off_c, 11, 36, 0
12, 9696, Note_on_c, 11, 48, 98
12, 9738, Note_off_c, 11, 48, 0
12, 9744, Note_on_c, 11, 50, 98
12, 9786, Note_off_c, 11, 50, 0
12, 9792, Note_on_c, 11, 52, 98
12, 9834, Note_off_c, 11, 52, 0
12, 9840, Note_on_c, 11, 48, 98
12, 9882, Note_off_c, 11, 48, 0
12, 9888, Note_on_c, 11, 50, 98
12, 9930, Note_off_c, 11, 50, 0
12, 9936, Note_on_c, 11, 46, 98
12, 9978, Note_off_c, 11, 46, 0
12, 9984, Note_on_c, 11, 48, 98
12, 10068, Note_off_c, 11, 48, 0
12, 10080, Note_on_c, 11, 36, 98
12, 10164, Note_off_c, 11, 36, 0
12, 10176, Note_on_c, 11, 41, 98
12, 10218, Note_off_c, 11, 41, 0
12, 10224, Note_on_c, 11, 43, 98
12, 10266, Note_off_c, 11, 43, 0
12, 10272, Note_on_c, 11, 45, 98
12, 10314, Note_off_c, 11, 45, 0
12, 10320, Note_on_c, 11, 46, 98
12, 10362, Note_off_c, 11, 46, 0
12, 10368, Note_on_c, 11, 48, 98
12, 10410, Note_off_c, 11, 48, 0
12, 10416, Note_on_c, 11, 50, 98
12, 10458, Note_off_c, 11, 50, 0
12, 10464, Note_on_c, 11, 52, 98
12, 10644, Note_off_c, 11, 52, 0
12, 10656, Note_on_c, 11, 53, 98
12, 10740, Note_off_c, 11, 53, 0
12, 10752, Note_on_c, 11, 55, 98
12, 10836, Note_off_c, 11, 55, 0
12, 10848, Note_on_c, 11, 58, 98
12, 10932, Note_off_c, 11, 58, 0
12, 10944, Note_on_c, 11, 57, 98
12, 11028, Note_off_c, 11, 57, 0
12, 11040, Note_on_c, 11, 55, 98
12, 11124, Note_off_c, 11, 55, 0
12, 11136, Note_on_c, 11, 53, 98
12, 11178, Note_off_c, 11, 53, 0
12, 11184, Note_on_c, 11, 52, 98
12, 11226, Note_off_c, 11, 52, 0
12, 11232, Note_on_c, 11, 53, 98
12, 11316, Note_off_c, 11, 53, 0
12, 11328, Note_on_c, 11, 52, 98
12, 11412, Note_off_c, 11, 52, 0
12, 11424, Note_on_c, 11, 53, 98
12, 11466, Note_off_c, 11, 53, 0
12, 11472, Note_on_c, 11, 52, 98
12, 11514, Note_off_c, 11, 52, 0
12, 11520, Note_on_c, 11, 50, 98
12, 11562, Note_off_c, 11, 50, 0
12, 11568, Note_on_c, 11, 48, 98
12, 11610, Note_off_c, 11, 48, 0
12, 11616, Note_on_c, 11, 48, 98
12, 11626, Note_off_c, 11, 48, 0
12, 11628, Note_on_c, 11, 47, 98
12, 11638, Note_off_c, 11, 47, 0
12, 11640, Note_on_c, 11, 48, 98
12, 11650, Note_off_c, 11, 48, 0
12, 11652, Note_on_c, 11, 47, 98
12, 11662, Note_off_c, 11, 47, 0
12, 11664, Note_on_c, 11, 48, 98
12, 11674, Note_off_c, 11, 48, 0
12, 11676, Note_on_c, 11, 47, 98
12, 11686, Note_off_c, 11, 47, 0
12, 11688, Note_on_c, 11, 48, 98
12, 11698, Note_off_c, 11, 48, 0
12, 11700, Note_on_c, 11, 47, 98
12, 11710, Note_off_c, 11, 47, 0
12, 11712, Note_on_c, 11, 48, 98
12, 11722, Note_off_c, 11, 48, 0
12, 11724, Note_on_c, 11, 47, 98
12, 11734, Note_off_c, 11, 47, 0
12, 11736, Note_on_c, 11, 48, 98
12, 11746, Note_off_c, 11, 48, 0
12, 11748, Note_on_c, 11, 47, 98
12, 11758, Note_off_c, 11, 47, 0
12, 11760, Note_on_c, 11, 48, 98
12, 11770, Note_off_c, 11, 48, 0
12, 11772, Note_on_c, 11, 47, 98
12, 11782, Note_off_c, 11, 47, 0
12, 11784, Note_on_c, 11, 48, 98
12, 11794, Note_off_c, 11, 48, 0
12, 11796, Note_on_c, 11, 47, 98
12, 11806, Note_off_c, 11, 47, 0
12, 11808, Note_on_c, 11, 48, 98
12, 11892, Note_off_c, 11, 48, 0
12, 11904, Note_on_c, 11, 50, 98
12, 11988, Note_off_c, 11, 50, 0
12, 12000, Note_on_c, 11, 48, 98
12, 12042, Note_off_c, 11, 48, 0
12, 12048, Note_on_c, 11, 47, 98
12, 12090, Note_off_c, 11, 47, 0
12, 12096, Note_on_c, 11, 48, 98
12, 12180, Note_off_c, 11, 48, 0
12, 12192, Note_on_c, 11, 47, 98
12, 12276, Note_off_c, 11, 47, 0
12, 12288, Note_on_c, 11, 48, 98
12, 12330, Note_off_c, 11, 48, 0
12, 12336, Note_on_c, 11, 47, 98
12, 12378, Note_off_c, 11, 47, 0
12, 12384, Note_on_c, 11, 45, 98
12, 12426, Note_off_c, 11, 45, 0
12, 12432, Note_on_c, 11, 43, 98
12, 12474, Note_off_c, 11, 43, 0
12, 12480, Note_on_c, 11, 48, 98
12, 12564, Note_off_c, 11, 48, 0
12, 12576, Note_on_c, 11, 46, 98
12, 12618, Note_off_c, 11, 46, 0
12, 12624, Note_on_c, 11, 45, 98
12, 12666, Note_off_c, 11, 45, 0
12, 12672, Note_on_c, 11, 43, 98
12, 12714, Note_off_c, 11, 43, 0
12, 12720, Note_on_c, 11, 41, 98
12, 12762, Note_off_c, 11, 41, 0
12, 12768, Note_on_c, 11, 40, 98
12, 12852, Note_off_c, 11, 40, 0
12, 12864, Note_on_c, 11, 41, 98
12, 12906, Note_off_c, 11, 41, 0
12, 12912, Note_on_c, 11, 40, 98
12, 12954, Note_off_c, 11, 40, 0
12, 12960, Note_on_c, 11, 38, 98
12, 13002, Note_off_c, 11, 38, 0
12, 13008, Note_on_c, 11, 40, 98
12, 13050, Note_off_c, 11, 40, 0
12, 13056, Note_on_c, 11, 36, 98
12, 13140, Note_off_c, 11, 36, 0
12, 13152, Note_on_c, 11, 48, 98
12, 13194, Note_off_c, 11, 48, 0
12, 13200, Note_on_c, 11, 50, 98
12, 13242, Note_off_c, 11, 50, 0
12, 13248, Note_on_c, 11, 52, 98
12, 13290, Note_off_c, 11, 52, 0
12, 13296, Note_on_c, 11, 48, 98
12, 13338, Note_off_c, 11, 48, 0
12, 13344, Note_on_c, 11, 50, 98
12, 13386, Note_off_c, 11, 50, 0
12, 13392, Note_on_c, 11, 46, 98
12, 13434, Note_off_c, 11, 46, 0
12, 13440, Note_on_c, 11, 48, 98
12, 13524, Note_off_c, 11, 48, 0
12, 13536, Note_on_c, 11, 36, 98
12, 13620, Note_off_c, 11, 36, 0
12, 13632, Note_on_c, 11, 41, 98
12, 13908, Note_off_c, 11, 41, 0
12, 14112, Time_signature, 2, 2, 96, 8
12, 14208, Tempo, 500000
12, 17280, Tempo, 500000
12, 26784, Time_signature, 3, 2, 96, 8
12, 26880, Tempo, 428571
12, 26880, Note_on_c, 11, 57, 98
12, 27060, Note_off_c, 11, 57, 0
12, 27072, Note_on_c, 11, 58, 98
12, 27156, Note_off_c, 11, 58, 0
12, 27168, Note_on_c, 11, 60, 98
12, 27252, Note_off_c, 11, 60, 0
12, 27264, Note_on_c, 11, 63, 98
12, 27348, Note_off_c, 11, 63, 0
12, 27360, Note_on_c, 11, 62, 98
12, 27444, Note_off_c, 11, 62, 0
12, 27456, Note_on_c, 11, 60, 98
12, 27540, Note_off_c, 11, 60, 0
12, 27552, Note_on_c, 11, 58, 98
12, 27594, Note_off_c, 11, 58, 0
12, 27600, Note_on_c, 11, 57, 98
12, 27642, Note_off_c, 11, 57, 0
12, 27648, Note_on_c, 11, 58, 98
12, 27732, Note_off_c, 11, 58, 0
12, 27744, Note_on_c, 11, 57, 98
12, 27828, Note_off_c, 11, 57, 0
12, 27840, Note_on_c, 11, 58, 98
12, 27882, Note_off_c, 11, 58, 0
12, 27888, Note_on_c, 11, 57, 98
12, 27930, Note_off_c, 11, 57, 0
12, 27936, Note_on_c, 11, 55, 98
12, 27978, Note_off_c, 11, 55, 0
12, 27984, Note_on_c, 11, 53, 98
12, 28026, Note_off_c, 11, 53, 0
12, 28032, Note_on_c, 11, 53, 98
12, 28042, Note_off_c, 11, 53, 0
12, 28044, Note_on_c, 11, 52, 98
12, 28054, Note_off_c, 11, 52, 0
12, 28056, Note_on_c, 11, 53, 98
12, 28066, Note_off_c, 11, 53, 0
12, 28068, Note_on_c, 11, 52, 98
12, 28078, Note_off_c, 11, 52, 0
12, 28080, Note_on_c, 11, 53, 98
12, 28090, Note_off_c, 11, 53, 0
12, 28092, Note_on_c, 11, 52, 98
12, 28102, Note_off_c, 11, 52, 0
12, 28104, Note_on_c, 11, 53, 98
12, 28114, Note_off_c, 11, 53, 0
12, 28116, Note_on_c, 11, 52, 98
12, 28126, Note_off_c, 11, 52, 0
12, 28128, Note_on_c, 11, 53, 98
12, 28138, Note_off_c, 11, 53, 0
12, 28140, Note_on_c, 11, 52, 98
12, 28150, Note_off_c, 11, 52, 0
12, 28152, Note_on_c, 11, 53, 98
12, 28162, Note_off_c, 11, 53, 0
12, 28164, Note_on_c, 11, 52, 98
12, 28174, Note_off_c, 11, 52, 0
12, 28176, Note_on_c, 11, 53, 98
12, 28186, Note_off_c, 11, 53, 0
12, 28188, Note_on_c, 11, 52, 98
12, 28198, Note_off_c, 11, 52, 0
12, 28200, Note_on_c, 11, 53, 98
12, 28210, Note_off_c, 11, 53, 0
12, 28212, Note_on_c, 11, 52, 98
12, 28222, Note_off_c, 11, 52, 0
12, 28224, Note_on_c, 11, 53, 98
12, 28308, Note_off_c, 11, 53, 0
12, 28320, Note_on_c, 11, 55, 98
12, 28404, Note_off_c, 11, 55, 0
12, 28416, Note_on_c, 11, 53, 98
12, 28458, Note_off_c, 11, 53, 0
12, 28464, Note_on_c, 11, 52, 98
12, 28506, Note_off_c, 11, 52, 0
12, 28512, Note_on_c, 11, 53, 98
12, 28596, Note_off_c, 11, 53, 0
12, 28608, Note_on_c, 11, 52, 98
12, 28692, Note_off_c, 11, 52, 0
12, 28704, Note_on_c, 11, 53, 98
12, 28746, Note_off_c, 11, 53, 0
12, 28752, Note_on_c, 11, 52, 98
12, 28794, Note_off_c, 11, 52, 0
12, 28800, Note_on_c, 11, 50, 98
12, 28842, Note_off_c, 11, 50, 0
12, 28848, Note_on_c, 11, 48, 98
12, 28890, Note_off_c, 11, 48, 0
12, 28896, Note_on_c, 11, 53, 98
12, 28980, Note_off_c, 11, 53, 0
12, 28992, Note_on_c, 11, 52, 98
12, 29034, Note_off_c, 11, 52, 0
12, 29040, Note_on_c, 11, 50, 98
12, 29082, Note_off_c, 11, 50, 0
12, 29088, Note_on_c, 11, 52, 98
12, 29172, Note_off_c, 11, 52, 0
12, 29184, Note_on_c, 11, 50, 98
12, 29268, Note_off_c, 11, 50, 0
12, 29280, Note_on_c, 11, 52, 98
12, 29364, Note_off_c, 11, 52, 0
12, 29376, Note_on_c, 11, 48, 98
12, 29460, Note_off_c, 11, 48, 0
12, 29472, Note_on_c, 11, 47, 98
12, 29556, Note_off_c, 11, 47, 0
12, 29568, Note_on_c, 11, 45, 98
12, 29610, Note_off_c, 11, 45, 0
12, 29616, Note_on_c, 11, 43, 98
12, 29658, Note_off_c, 11, 43, 0
12, 29664, Note_on_c, 11, 41, 98
12, 29706, Note_off_c, 11, 41, 0
12, 29712, Note_on_c, 11, 40, 98
12, 29754, Note_off_c, 11, 40, 0
12, 29760, Note_on_c, 11, 45, 98
12, 29802, Note_off_c, 11, 45, 0
12, 29808, Note_on_c, 11, 41, 98
12, 29850, Note_off_c, 11, 41, 0
12, 29856, Note_on_c, 11, 43, 98
12, 29940, Note_off_c, 11, 43, 0
12, 29952, Note_on_c, 11, 43, 98
12, 30036, Note_off_c, 11, 43, 0
12, 30048, Note_on_c, 11, 36, 98
12, 30132, Note_off_c, 11, 36, 0
12, 30144, Note_on_c, 11, 48, 98
12, 30186, Note_off_c, 11, 48, 0
12, 30192, Note_on_c, 11, 46, 98
12, 30234, Note_off_c, 11, 46, 0
12, 30240, Note_on_c, 11, 45, 98
12, 30282, Note_off_c, 11, 45, 0
12, 30288, Note_on_c, 11, 43, 98
12, 30330, Note_off_c, 11, 43, 0
12, 30336, Note_on_c, 11, 41, 98
12, 30420, Note_off_c, 11, 41, 0
12, 30432, Note_on_c, 11, 57, 98
12, 30516, Note_off_c, 11, 57, 0
12, 30528, Note_on_c, 11, 58, 98
12, 30612, Note_off_c, 11, 58, 0
12, 30624, Note_on_c, 11, 60, 98
12, 30708, Note_off_c, 11, 60, 0
12, 30720, Note_on_c, 11, 63, 98
12, 30804, Note_off_c, 11, 63, 0
12, 30816, Note_on_c, 11, 62, 98
12, 30900, Note_off_c, 11, 62, 0
12, 30912, Note_on_c, 11, 60, 98
12, 30996, Note_off_c, 11, 60, 0
12, 31008, Note_on_c, 11, 58, 98
12, 31050, Note_off_c, 11, 58, 0
12, 31056, Note_on_c, 11, 57, 98
12, 31098, Note_off_c, 11, 57, 0
12, 31104, Note_on_c, 11, 58, 98
12, 31188, Note_off_c, 11, 58, 0
12, 31200, Note_on_c, 11, 57, 98
12, 31284, Note_off_c, 11, 57, 0
12, 31296, Note_on_c, 11, 58, 98
12, 31338, Note_off_c, 11, 58, 0
12, 31344, Note_on_c, 11, 57, 98
12, 31386, Note_off_c, 11, 57, 0
12, 31392, Note_on_c, 11, 55, 98
12, 31434, Note_off_c, 11, 55, 0
12, 31440, Note_on_c, 11, 53, 98
12, 31482, Note_off_c, 11, 53, 0
12, 31488, Note_on_c, 11, 53, 98
12, 31498, Note_off_c, 11, 53, 0
12, 31500, Note_on_c, 11, 52, 98
12, 31510, Note_off_c, 11, 52, 0
12, 31512, Note_on_c, 11, 53, 98
12, 31522, Note_off_c, 11, 53, 0
12, 31524, Note_on_c, 11, 52, 98
12, 31534, Note_off_c, 11, 52, 0
12, 31536, Note_on_c, 11, 53, 98
12, 31546, Note_off_c, 11, 53, 0
12, 31548, Note_on_c, 11, 52, 98
12, 31558, Note_off_c, 11, 52, 0
12, 31560, Note_on_c, 11, 53, 98
12, 31570, Note_off_c, 11, 53, 0
12, 31572, Note_on_c, 11, 52, 98
12, 31582, Note_off_c, 11, 52, 0
12, 31584, Note_on_c, 11, 53, 98
12, 31594, Note_off_c, 11, 53, 0
12, 31596, Note_on_c, 11, 52, 98
12, 31606, Note_off_c, 11, 52, 0
12, 31608, Note_on_c, 11, 53, 98
12, 31618, Note_off_c, 11, 53, 0
12, 31620, Note_on_c, 11, 52, 98
12, 31630, Note_off_c, 11, 52, 0
12, 31632, Note_on_c, 11, 53, 98
12, 31642, Note_off_c, 11, 53, 0
12, 31644, Note_on_c, 11, 52, 98
12, 31654, Note_off_c, 11, 52, 0
12, 31656, Note_on_c, 11, 53, 98
12, 31666, Note_off_c, 11, 53, 0
12, 31668, Note_on_c, 11, 52, 98
12, 31678, Note_off_c, 11, 52, 0
12, 31680, Note_on_c, 11, 53, 98
12, 31764, Note_off_c, 11, 53, 0
12, 31776, Note_on_c, 11, 55, 98
12, 31860, Note_off_c, 11, 55, 0
12, 31872, Note_on_c, 11, 53, 98
12, 31914, Note_off_c, 11, 53, 0
12, 31920, Note_on_c, 11, 52, 98
12, 31962, Note_off_c, 11, 52, 0
12, 31968, Note_on_c, 11, 53, 98
12, 32052, Note_off_c, 11, 53, 0
12, 32064, Note_on_c, 11, 52, 98
12, 32148, Note_off_c, 11, 52, 0
12, 32160, Note_on_c, 11, 53, 98
12, 32202, Note_off_c, 11, 53, 0
12, 32208, Note_on_c, 11, 52, 98
12, 32250, Note_off_c, 11, 52, 0
12, 32256, Note_on_c, 11, 50, 98
12, 32298, Note_off_c, 11, 50, 0
12, 32304, Note_on_c, 11, 48, 98
12, 32346, Note_off_c, 11, 48, 0
12, 32352, Note_on_c, 11, 53, 98
12, 32436, Note_off_c, 11, 53, 0
12, 32448, Note_on_c, 11, 52, 98
12, 32490, Note_off_c, 11, 52, 0
12, 32496, Note_on_c, 11, 50, 98
12, 32538, Note_off_c, 11, 50, 0
12, 32544, Note_on_c, 11, 52, 98
12, 32628, Note_off_c, 11, 52, 0
12, 32640, Note_on_c, 11, 50, 98
12, 32724, Note_off_c, 11, 50, 0
12, 32736, Note_on_c, 11, 52, 98
12, 32820, Note_off_c, 11, 52, 0
12, 32832, Note_on_c, 11, 48, 98
12, 32916, Note_off_c, 11, 48, 0
12, 32928, Note_on_c, 11, 47, 98
12, 33012, Note_off_c, 11, 47, 0
12, 33024, Note_on_c, 11, 45, 98
12, 33066, Note_off_c, 11, 45, 0
12, 33072, Note_on_c, 11, 43, 98
12, 33114, Note_off_c, 11, 43, 0
12, 33120, Note_on_c, 11, 41, 98
12, 33162, Note_off_c, 11, 41, 0
12, 33168, Note_on_c, 11, 40, 98
12, 33210, Note_off_c, 11, 40, 0
12, 33216, Note_on_c, 11, 45, 98
12, 33258, Note_off_c, 11, 45, 0
12, 33264, Note_on_c, 11, 41, 98
12, 33306, Note_off_c, 11, 41, 0
12, 33312, Note_on_c, 11, 43, 98
12, 33396, Note_off_c, 11, 43, 0
12, 33408, Note_on_c, 11, 43, 98
12, 33492, Note_off_c, 11, 43, 0
12, 33504, Note_on_c, 11, 36, 98
12, 33588, Note_off_c, 11, 36, 0
12, 33600, Note_on_c, 11, 48, 98
12, 33684, Note_off_c, 11, 48, 0
12, 33696, Note_on_c, 11, 50, 98
12, 33780, Note_off_c, 11, 50, 0
12, 33792, Note_on_c, 11, 52, 98
12, 33972, Note_off_c, 11, 52, 0
12, 33984, Note_on_c, 11, 53, 98
12, 34068, Note_off_c, 11, 53, 0
12, 34080, Note_on_c, 11, 55, 98
12, 34164, Note_off_c, 11, 55, 0
12, 34176, Note_on_c, 11, 58, 98
12, 34260, Note_off_c, 11, 58, 0
12, 34272, Note_on_c, 11, 57, 98
12, 34356, Note_off_c, 11, 57, 0
12, 34368, Note_on_c, 11, 55, 98
12, 34452, Note_off_c, 11, 55, 0
12, 34464, Note_on_c, 11, 53, 98
12, 34506, Note_off_c, 11, 53, 0
12, 34512, Note_on_c, 11, 52, 98
12, 34554, Note_off_c, 11, 52, 0
12, 34560, Note_on_c, 11, 53, 98
12, 34644, Note_off_c, 11, 53, 0
12, 34656, Note_on_c, 11, 52, 98
12, 34740, Note_off_c, 11, 52, 0
12, 34752, Note_on_c, 11, 53, 98
12, 34794, Note_off_c, 11, 53, 0
12, 34800, Note_on_c, 11, 52, 98
12, 34842, Note_off_c, 11, 52, 0
12, 34848, Note_on_c, 11, 50, 98
12, 34890, Note_off_c, 11, 50, 0
12, 34896, Note_on_c, 11, 48, 98
12, 34938, Note_off_c, 11, 48, 0
12, 34944, Note_on_c, 11, 48, 98
12, 34954, Note_off_c, 11, 48, 0
12, 34956, Note_on_c, 11, 47, 98
12, 34966, Note_off_c, 11, 47, 0
12, 34968, Note_on_c, 11, 48, 98
12, 34978, Note_off_c, 11, 48, 0
12, 34980, Note_on_c, 11, 47, 98
12, 34990, Note_off_c, 11, 47, 0
12, 34992, Note_on_c, 11, 48, 98
12, 35002, Note_off_c, 11, 48, 0
12, 35004, Note_on_c, 11, 47, 98
12, 35014, Note_off_c, 11, 47, 0
12, 35016, Note_on_c, 11, 48, 98
12, 35026, Note_off_c, 11, 48, 0
12, 35028, Note_on_c, 11, 47, 98
12, 35038, Note_off_c, 11, 47, 0
12, 35040, Note_on_c, 11, 48, 98
12, 35050, Note_off_c, 11, 48, 0
12, 35052, Note_on_c, 11, 47, 98
12, 35062, Note_off_c, 11, 47, 0
12, 35064, Note_on_c, 11, 48, 98
12, 35074, Note_off_c, 11, 48, 0
12, 35076, Note_on_c, 11, 47, 98
12, 35086, Note_off_c, 11, 47, 0
12, 35088, Note_on_c, 11, 48, 98
12, 35098, Note_off_c, 11, 48, 0
12, 35100, Note_on_c, 11, 47, 98
12, 35110, Note_off_c, 11, 47, 0
12, 35112, Note_on_c, 11, 48, 98
12, 35122, Note_off_c, 11, 48, 0
12, 35124, Note_on_c, 11, 47, 98
12, 35134, Note_off_c, 11, 47, 0
12, 35136, Note_on_c, 11, 48, 98
12, 35220, Note_off_c, 11, 48, 0
12, 35232, Note_on_c, 11, 50, 98
12, 35316, Note_off_c, 11, 50, 0
12, 35328, Note_on_c, 11, 48, 98
12, 35370, Note_off_c, 11, 48, 0
12, 35376, Note_on_c, 11, 47, 98
12, 35418, Note_off_c, 11, 47, 0
12, 35424, Note_on_c, 11, 48, 98
12, 35508, Note_off_c, 11, 48, 0
12, 35520, Note_on_c, 11, 47, 98
12, 35604, Note_off_c, 11, 47, 0
12, 35616, Note_on_c, 11, 48, 98
12, 35658, Note_off_c, 11, 48, 0
12, 35664, Note_on_c, 11, 47, 98
12, 35706, Note_off_c, 11, 47, 0
12, 35712, Note_on_c, 11, 45, 98
12, 35754, Note_off_c, 11, 45, 0
12, 35760, Note_on_c, 11, 43, 98
12, 35802, Note_off_c, 11, 43, 0
12, 35808, Note_on_c, 11, 48, 98
12, 35892, Note_off_c, 11, 48, 0
12, 35904, Note_on_c, 11, 46, 98
12, 35946, Note_off_c, 11, 46, 0
12, 35952, Note_on_c, 11, 45, 98
12, 35994, Note_off_c, 11, 45, 0
12, 36000, Note_on_c, 11, 43, 98
12, 36042, Note_off_c, 11, 43, 0
12, 36048, Note_on_c, 11, 41, 98
12, 36090, Note_off_c, 11, 41, 0
12, 36096, Note_on_c, 11, 40, 98
12, 36180, Note_off_c, 11, 40, 0
12, 36192, Note_on_c, 11, 41, 98
12, 36234, Note_off_c, 11, 41, 0
12, 36240, Note_on_c, 11, 40, 98
12, 36282, Note_off_c, 11, 40, 0
12, 36288, Note_on_c, 11, 38, 98
12, 36330, Note_off_c, 11, 38, 0
12, 36336, Note_on_c, 11, 40, 98
12, 36378, Note_off_c, 11, 40, 0
12, 36384, Note_on_c, 11, 36, 98
12, 36468, Note_off_c, 11, 36, 0
12, 36480, Note_on_c, 11, 48, 98
12, 36522, Note_off_c, 11, 48, 0
12, 36528, Note_on_c, 11, 50, 98
12, 36570, Note_off_c, 11, 50, 0
12, 36576, Note_on_c, 11, 52, 98
12, 36618, Note_off_c, 11, 52, 0
12, 36624, Note_on_c, 11, 48, 98
12, 36666, Note_off_c, 11, 48, 0
12, 36672, Note_on_c, 11, 50, 98
12, 36714, Note_off_c, 11, 50, 0
12, 36720, Note_on_c, 11, 46, 98
12, 36762, Note_off_c, 11, 46, 0
12, 36768, Note_on_c, 11, 48, 98
12, 36852, Note_off_c, 11, 48, 0
12, 36864, Note_on_c, 11, 36, 98
12, 36948, Note_off_c, 11, 36, 0
12, 36960, Note_on_c, 11, 41, 98
12, 37002, Note_off_c, 11, 41, 0
12, 37008, Note_on_c, 11, 43, 98
12, 37050, Note_off_c, 11, 43, 0
12, 37056, Note_on_c, 11, 45, 98
12, 37098, Note_off_c, 11, 45, 0
12, 37104, Note_on_c, 11, 46, 98
12, 37146, Note_off_c, 11, 46, 0
12, 37152, Note_on_c, 11, 48, 98
12, 37194, Note_off_c, 11, 48, 0
12, 37200, Note_on_c, 11, 50, 98
12, 37242, Note_off_c, 11, 50, 0
12, 37248, Note_on_c, 11, 52, 98
12, 37428, Note_off_c, 11, 52, 0
12, 37440, Note_on_c, 11, 53, 98
12, 37524, Note_off_c, 11, 53, 0
12, 37536, Note_on_c, 11, 55, 98
12, 37620, Note_off_c, 11, 55, 0
12, 37632, Note_on_c, 11, 58, 98
12, 37716, Note_off_c, 11, 58, 0
12, 37728, Note_on_c, 11, 57, 98
12, 37812, Note_off_c, 11, 57, 0
12, 37824, Note_on_c, 11, 55, 98
12, 37908, Note_off_c, 11, 55, 0
12, 37920, Note_on_c, 11, 53, 98
12, 37962, Note_off_c, 11, 53, 0
12, 37968, Note_on_c, 11, 52, 98
12, 38010, Note_off_c, 11, 52, 0
12, 38016, Note_on_c, 11, 53, 98
12, 38100, Note_off_c, 11, 53, 0
12, 38112, Note_on_c, 11, 52, 98
12, 38196, Note_off_c, 11, 52, 0
12, 38208, Note_on_c, 11, 53, 98
12, 38250, Note_off_c, 11, 53, 0
12, 38256, Note_on_c, 11, 52, 98
12, 38298, Note_off_c, 11, 52, 0
12, 38304, Note_on_c, 11, 50, 98
12, 38346, Note_off_c, 11, 50, 0
12, 38352, Note_on_c, 11, 48, 98
12, 38394, Note_off_c, 11, 48, 0
12, 38400, Note_on_c, 11, 48, 98
12, 38410, Note_off_c, 11, 48, 0
12, 38412, Note_on_c, 11, 47, 98
12, 38422, Note_off_c, 11, 47, 0
12, 38424, Note_on_c, 11, 48, 98
12, 38434, Note_off_c, 11, 48, 0
12, 38436, Note_on_c, 11, 47, 98
12, 38446, Note_off_c, 11, 47, 0
12, 38448, Note_on_c, 11, 48, 98
12, 38458, Note_off_c, 11, 48, 0
12, 38460, Note_on_c, 11, 47, 98
12, 38470, Note_off_c, 11, 47, 0
12, 38472, Note_on_c, 11, 48, 98
12, 38482, Note_off_c, 11, 48, 0
12, 38484, Note_on_c, 11, 47, 98
12, 38494, Note_off_c, 11, 47, 0
12, 38496, Note_on_c, 11, 48, 98
12, 38506, Note_off_c, 11, 48, 0
12, 38508, Note_on_c, 11, 47, 98
12, 38518, Note_off_c, 11, 47, 0
12, 38520, Note_on_c, 11, 48, 98
12, 38530, Note_off_c, 11, 48, 0
12, 38532, Note_on_c, 11, 47, 98
12, 38542, Note_off_c, 11, 47, 0
12, 38544, Note_on_c, 11, 48, 98
12, 38554, Note_off_c, 11, 48, 0
12, 38556, Note_on_c, 11, 47, 98
12, 38566, Note_off_c, 11, 47, 0
12, 38568, Note_on_c, 11, 48, 98
12, 38578, Note_off_c, 11, 48, 0
12, 38580, Note_on_c, 11, 47, 98
12, 38590, Note_off_c, 11, 47, 0
12, 38592, Note_on_c, 11, 48, 98
12, 38676, Note_off_c, 11, 48, 0
12, 38688, Note_on_c, 11, 50, 98
12, 38772, Note_off_c, 11, 50, 0
12, 38784, Note_on_c, 11, 48, 98
12, 38826, Note_off_c, 11, 48, 0
12, 38832, Note_on_c, 11, 47, 98
12, 38874, Note_off_c, 11, 47, 0
12, 38880, Note_on_c, 11, 48, 98
12, 38964, Note_off_c, 11, 48, 0
12, 38976, Note_on_c, 11, 47, 98
12, 39060, Note_off_c, 11, 47, 0
12, 39072, Note_on_c, 11, 48, 98
12, 39114, Note_off_c, 11, 48, 0
12, 39120, Note_on_c, 11, 47, 98
12, 39162, Note_off_c, 11, 47, 0
12, 39168, Note_on_c, 11, 45, 98
12, 39210, Note_off_c, 11, 45, 0
12, 39216, Note_on_c, 11, 43, 98
12, 39258, Note_off_c, 11, 43, 0
12, 39264, Note_on_c, 11, 48, 98
12, 39348, Note_off_c, 11, 48, 0
12, 39360, Note_on_c, 11, 46, 98
12, 39402, Note_off_c, 11, 46, 0
12, 39408, Note_on_c, 11, 45, 98
12, 39450, Note_off_c, 11, 45, 0
12, 39456, Note_on_c, 11, 43, 98
12, 39498, Note_off_c, 11, 43, 0
12, 39504, Note_on_c, 11, 41, 98
12, 39546, Note_off_c, 11, 41, 0
12, 39552, Note_on_c, 11, 40, 98
12, 39636, Note_off_c, 11, 40, 0
12, 39648, Note_on_c, 11, 41, 98
12, 39690, Note_off_c, 11, 41, 0
12, 39696, Note_on_c, 11, 40, 98
12, 39738, Note_off_c, 11, 40, 0
12, 39744, Note_on_c, 11, 38, 98
12, 39786, Note_off_c, 11, 38, 0
12, 39792, Note_on_c, 11, 40, 98
12, 39834, Note_off_c, 11, 40, 0
12, 39840, Note_on_c, 11, 36, 98
12, 39924, Note_off_c, 11, 36, 0
12, 39936, Note_on_c, 11, 48, 98
12, 39978, Note_off_c, 11, 48, 0
12, 39984, Note_on_c, 11, 50, 98
12, 40026, Note_off_c, 11, 50, 0
12, 40032, Note_on_c, 11, 52, 98
12, 40074, Note_off_c, 11, 52, 0
12, 40080, Note_on_c, 11, 48, 98
12, 40122, Note_off_c, 11, 48, 0
12, 40128, Note_on_c, 11, 50, 98
12, 40170, Note_off_c, 11, 50, 0
12, 40176, Note_on_c, 11, 46, 98
12, 40218, Note_off_c, 11, 46, 0
12, 40224, Note_on_c, 11, 48, 98
12, 40308, Note_off_c, 11, 48, 0
12, 40320, Note_on_c, 11, 36, 98
12, 40404, Note_off_c, 11, 36, 0
12, 40416, Note_on_c, 11, 41, 98
12, 40692, Note_off_c, 11, 41, 0
12, 40692, End_track
13, 0, Start_track
13, 0, Title_t, "Contrabass"
13, 0, Control_c, 12, 0, 0
13, 0, Program_c, 12, 43
13, 0, Time_signature, 3, 2, 96, 8
13, 0, Tempo, 461538
13, 96, Tempo, 428571
13, 96, Note_on_c, 12, 45, 98
13, 276, Note_off_c, 12, 45, 0
13, 288, Note_on_c, 12, 46, 98
13, 372, Note_off_c, 12, 46, 0
13, 384, Note_on_c, 12, 48, 98
13, 468, Note_off_c, 12, 48, 0
13, 480, Note_on_c, 12, 51, 98
13, 564, Note_off_c, 12, 51, 0
13, 576, Note_on_c, 12, 50, 98
13, 660, Note_off_c, 12, 50, 0
13, 672, Note_on_c, 12, 48, 98
13, 756, Note_off_c, 12, 48, 0
13, 768, Note_on_c, 12, 46, 98
13, 810, Note_off_c, 12, 46, 0
13, 816, Note_on_c, 12, 45, 98
13, 858, Note_off_c, 12, 45, 0
13, 864, Note_on_c, 12, 46, 98
13, 948, Note_off_c, 12, 46, 0
13, 960, Note_on_c, 12, 45, 98
13, 1044, Note_off_c, 12, 45, 0
13, 1056, Note_on_c, 12, 46, 98
13, 1098, Note_off_c, 12, 46, 0
13, 1104, Note_on_c, 12, 45, 98
13, 1146, Note_off_c, 12, 45, 0
13, 1152, Note_on_c, 12, 43, 98
13, 1194, Note_off_c, 12, 43, 0
13, 1200, Note_on_c, 12, 41, 98
13, 1242, Note_off_c, 12, 41, 0
13, 1248, Note_on_c, 12, 41, 98
13, 1258, Note_off_c, 12, 41, 0
13, 1260, Note_on_c, 12, 40, 98
13, 1270, Note_off_c, 12, 40, 0
13, 1272, Note_on_c, 12, 41, 98
13, 1282, Note_off_c, 12, 41, 0
13, 1284, Note_on_c, 12, 40, 98
13, 1294, Note_off_c, 12, 40, 0
13, 1296, Note_on_c, 12, 41, 98
13, 1306, Note_off_c, 12, 41, 0
13, 1308, Note_on_c, 12, 40, 98
13, 1318, Note_off_c, 12, 40, 0
13, 1320, Note_on_c, 12, 41, 98
13, 1330, Note_off_c, 12, 41, 0
13, 1332, Note_on_c, 12, 40, 98
13, 1342, Note_off_c, 12, 40, 0
13, 1344, Note_on_c, 12, 41, 98
13, 1354, Note_off_c, 12, 41, 0
13, 1356, Note_on_c, 12, 40, 98
13, 1366, Note_off_c, 12, 40, 0
13, 1368, Note_on_c, 12, 41, 98
13, 1378, Note_off_c, 12, 41, 0
13, 1380, Note_on_c, 12, 40, 98
13, 1390, Note_off_c, 12, 40, 0
13, 1392, Note_on_c, 12, 41, 98
13, 1402, Note_off_c, 12, 41, 0
13, 1404, Note_on_c, 12, 40, 98
13, 1414, Note_off_c, 12, 40, 0
13, 1416, Note_on_c, 12, 41, 98
13, 1426, Note_off_c, 12, 41, 0
13, 1428, Note_on_c, 12, 40, 98
13, 1438, Note_off_c, 12, 40, 0
13, 1440, Note_on_c, 12, 41, 98
13, 1524, Note_off_c, 12, 41, 0
13, 1536, Note_on_c, 12, 43, 98
13, 1620, Note_off_c, 12, 43, 0
13, 1632, Note_on_c, 12, 41, 98
13, 1674, Note_off_c, 12, 41, 0
13, 1680, Note_on_c, 12, 40, 98
13, 1722, Note_off_c, 12, 40, 0
13, 1728, Note_on_c, 12, 41, 98
13, 1812, Note_off_c, 12, 41, 0
13, 1824, Note_on_c, 12, 40, 98
13, 1908, Note_off_c, 12, 40, 0
13, 1920, Note_on_c, 12, 41, 98
13, 1962, Note_off_c, 12, 41, 0
13, 1968, Note_on_c, 12, 40, 98
13, 2010, Note_off_c, 12, 40, 0
13, 2016, Note_on_c, 12, 38, 98
13, 2058, Note_off_c, 12, 38, 0
13, 2064, Note_on_c, 12, 36, 98
13, 2106, Note_off_c, 12, 36, 0
13, 2112, Note_on_c, 12, 41, 98
13, 2196, Note_off_c, 12, 41, 0
13, 2208, Note_on_c, 12, 40, 98
13, 2250, Note_off_c, 12, 40, 0
13, 2256, Note_on_c, 12, 38, 98
13, 2298, Note_off_c, 12, 38, 0
13, 2304, Note_on_c, 12, 40, 98
13, 2388, Note_off_c, 12, 40, 0
13, 2400, Note_on_c, 12, 38, 98
13, 2484, Note_off_c, 12, 38, 0
13, 2496, Note_on_c, 12, 40, 98
13, 2580, Note_off_c, 12, 40, 0
13, 2592, Note_on_c, 12, 36, 98
13, 2676, Note_off_c, 12, 36, 0
13, 2688, Note_on_c, 12, 35, 98
13, 2772, Note_off_c, 12, 35, 0
13, 2784, Note_on_c, 12, 33, 98
13, 2826, Note_off_c, 12, 33, 0
13, 2832, Note_on_c, 12, 31, 98
13, 2874, Note_off_c, 12, 31, 0
13, 2880, Note_on_c, 12, 29, 98
13, 2922, Note_off_c, 12, 29, 0
13, 2928, Note_on_c, 12, 28, 98
13, 2970, Note_off_c, 12, 28, 0
13, 2976, Note_on_c, 12, 33, 98
13, 3018, Note_off_c, 12, 33, 0
13, 3024, Note_on_c, 12, 29, 98
13, 3066, Note_off_c, 12, 29, 0
13, 3072, Note_on_c, 12, 31, 98
13, 3156, Note_off_c, 12, 31, 0
13, 3168, Note_on_c, 12, 31, 98
13, 3252, Note_off_c, 12, 31, 0
13, 3264, Note_on_c, 12, 24, 98
13, 3348, Note_off_c, 12, 24, 0
13, 3360, Note_on_c, 12, 36, 98
13, 3402, Note_off_c, 12, 36, 0
13, 3408, Note_on_c, 12, 34, 98
13, 3450, Note_off_c, 12, 34, 0
13, 3456, Note_on_c, 12, 33, 98
13, 3498, Note_off_c, 12, 33, 0
13, 3504, Note_on_c, 12, 31, 98
13, 3546, Note_off_c, 12, 31, 0
13, 3552, Note_on_c, 12, 29, 98
13, 3636, Note_off_c, 12, 29, 0
13, 3648, Note_on_c, 12, 45, 98
13, 3732, Note_off_c, 12, 45, 0
13, 3744, Note_on_c, 12, 46, 98
13, 3828, Note_off_c, 12, 46, 0
13, 3840, Note_on_c, 12, 48, 98
13, 3924, Note_off_c, 12, 48, 0
13, 3936, Note_on_c, 12, 51, 98
13, 4020, Note_off_c, 12, 51, 0
13, 4032, Note_on_c, 12, 50, 98
13, 4116, Note_off_c, 12, 50, 0
13, 4128, Note_on_c, 12, 48, 98
13, 4212, Note_off_c, 12, 48, 0
13, 4224, Note_on_c, 12, 46, 98
13, 4266, Note_off_c, 12, 46, 0
13, 4272, Note_on_c, 12, 45, 98
13, 4314, Note_off_c, 12, 45, 0
13, 4320, Note_on_c, 12, 46, 98
13, 4404, Note_off_c, 12, 46, 0
13, 4416, Note_on_c, 12, 45, 98
13, 4500, Note_off_c, 12, 45, 0
13, 4512, Note_on_c, 12, 46, 98
13, 4554, Note_off_c, 12, 46, 0
13, 4560, Note_on_c, 12, 45, 98
13, 4602, Note_off_c, 12, 45, 0
13, 4608, Note_on_c, 12, 43, 98
13, 4650, Note_off_c, 12, 43, 0
13, 4656, Note_on_c, 12, 41, 98
13, 4698, Note_off_c, 12, 41, 0
13, 4704, Note_on_c, 12, 41, 98
13, 4714, Note_off_c, 12, 41, 0
13, 4716, Note_on_c, 12, 40, 98
13, 4726, Note_off_c, 12, 40, 0
13, 4728, Note_on_c, 12, 41, 98
13, 4738, Note_off_c, 12, 41, 0
13, 4740, Note_on_c, 12, 40, 98
13, 4750, Note_off_c, 12, 40, 0
13, 4752, Note_on_c, 12, 41, 98
13, 4762, Note_off_c, 12, 41, 0
13, 4764, Note_on_c, 12, 40, 98
13, 4774, Note_off_c, 12, 40, 0
13, 4776, Note_on_c, 12, 41, 98
13, 4786, Note_off_c, 12, 41, 0
13, 4788, Note_on_c, 12, 40, 98
13, 4798, Note_off_c, 12, 40, 0
13, 4800, Note_on_c, 12, 41, 98
13, 4810, Note_off_c, 12, 41, 0
13, 4812, Note_on_c, 12, 40, 98
13, 4822, Note_off_c, 12, 40, 0
13, 4824, Note_on_c, 12, 41, 98
13, 4834, Note_off_c, 12, 41, 0
13, 4836, Note_on_c, 12, 40, 98
13, 4846, Note_off_c, 12, 40, 0
13, 4848, Note_on_c, 12, 41, 98
13, 4858, Note_off_c, 12, 41, 0
13, 4860, Note_on_c, 12, 40, 98
13, 4870, Note_off_c, 12, 40, 0
13, 4872, Note_on_c, 12, 41, 98
13, 4882, Note_off_c, 12, 41, 0
13, 4884, Note_on_c, 12, 40, 98
13, 4894, Note_off_c, 12, 40, 0
13, 4896, Note_on_c, 12, 41, 98
13, 4980, Note_off_c, 12, 41, 0
13, 4992, Note_on_c, 12, 43, 98
13, 5076, Note_off_c, 12, 43, 0
13, 5088, Note_on_c, 12, 41, 98
13, 5130, Note_off_c, 12, 41, 0
13, 5136, Note_on_c, 12, 40, 98
13, 5178, Note_off_c, 12, 40, 0
13, 5184, Note_on_c, 12, 41, 98
13, 5268, Note_off_c, 12, 41, 0
13, 5280, Note_on_c, 12, 40, 98
13, 5364, Note_off_c, 12, 40, 0
13, 5376, Note_on_c, 12, 41, 98
13, 5418, Note_off_c, 12, 41, 0
13, 5424, Note_on_c, 12, 40, 98
13, 5466, Note_off_c, 12, 40, 0
13, 5472, Note_on_c, 12, 38, 98
13, 5514, Note_off_c, 12, 38, 0
13, 5520, Note_on_c, 12, 36, 98
13, 5562, Note_off_c, 12, 36, 0
13, 5568, Note_on_c, 12, 41, 98
13, 5652, Note_off_c, 12, 41, 0
13, 5664, Note_on_c, 12, 40, 98
13, 5706, Note_off_c, 12, 40, 0
13, 5712, Note_on_c, 12, 38, 98
13, 5754, Note_off_c, 12, 38, 0
13, 5760, Note_on_c, 12, 40, 98
13, 5844, Note_off_c, 12, 40, 0
13, 5856, Note_on_c, 12, 38, 98
13, 5940, Note_off_c, 12, 38, 0
13, 5952, Note_on_c, 12, 40, 98
13, 6036, Note_off_c, 12, 40, 0
13, 6048, Note_on_c, 12, 36, 98
13, 6132, Note_off_c, 12, 36, 0
13, 6144, Note_on_c, 12, 35, 98
13, 6228, Note_off_c, 12, 35, 0
13, 6240, Note_on_c, 12, 33, 98
13, 6282, Note_off_c, 12, 33, 0
13, 6288, Note_on_c, 12, 31, 98
13, 6330, Note_off_c, 12, 31, 0
13, 6336, Note_on_c, 12, 29, 98
13, 6378, Note_off_c, 12, 29, 0
13, 6384, Note_on_c, 12, 28, 98
13, 6426, Note_off_c, 12, 28, 0
13, 6432, Note_on_c, 12, 33, 98
13, 6474, Note_off_c, 12, 33, 0
13, 6480, Note_on_c, 12, 29, 98
13, 6522, Note_off_c, 12, 29, 0
13, 6528, Note_on_c, 12, 31, 98
13, 6612, Note_off_c, 12, 31, 0
13, 6624, Note_on_c, 12, 31, 98
13, 6708, Note_off_c, 12, 31, 0
13, 6720, Note_on_c, 12, 24, 98
13, 6804, Note_off_c, 12, 24, 0
13, 6816, Note_on_c, 12, 36, 98
13, 6900, Note_off_c, 12, 36, 0
13, 6912, Note_on_c, 12, 38, 98
13, 6996, Note_off_c, 12, 38, 0
13, 7008, Note_on_c, 12, 40, 98
13, 7188, Note_off_c, 12, 40, 0
13, 7200, Note_on_c, 12, 41, 98
13, 7284, Note_off_c, 12, 41, 0
13, 7296, Note_on_c, 12, 43, 98
13, 7380, Note_off_c, 12, 43, 0
13, 7392, Note_on_c, 12, 46, 98
13, 7476, Note_off_c, 12, 46, 0
13, 7488, Note_on_c, 12, 45, 98
13, 7572, Note_off_c, 12, 45, 0
13, 7584, Note_on_c, 12, 43, 98
13, 7668, Note_off_c, 12, 43, 0
13, 7680, Note_on_c, 12, 41, 98
13, 7722, Note_off_c, 12, 41, 0
13, 7728, Note_on_c, 12, 40, 98
13, 7770, Note_off_c, 12, 40, 0
13, 7776, Note_on_c, 12, 41, 98
13, 7860, Note_off_c, 12, 41, 0
13, 7872, Note_on_c, 12, 40, 98
13, 7956, Note_off_c, 12, 40, 0
13, 7968, Note_on_c, 12, 41, 98
13, 8010, Note_off_c, 12, 41, 0
13, 8016, Note_on_c, 12, 40, 98
13, 8058, Note_off_c, 12, 40, 0
13, 8064, Note_on_c, 12, 38, 98
13, 8106, Note_off_c, 12, 38, 0
13, 8112, Note_on_c, 12, 36, 98
13, 8154, Note_off_c, 12, 36, 0
13, 8160, Note_on_c, 12, 36, 98
13, 8170, Note_off_c, 12, 36, 0
13, 8172, Note_on_c, 12, 35, 98
13, 8182, Note_off_c, 12, 35, 0
13, 8184, Note_on_c, 12, 36, 98
13, 8194, Note_off_c, 12, 36, 0
13, 8196, Note_on_c, 12, 35, 98
13, 8206, Note_off_c, 12, 35, 0
13, 8208, Note_on_c, 12, 36, 98
13, 8218, Note_off_c, 12, 36, 0
13, 8220, Note_on_c, 12, 35, 98
13, 8230, Note_off_c, 12, 35, 0
13, 8232, Note_on_c, 12, 36, 98
13, 8242, Note_off_c, 12, 36, 0
13, 8244, Note_on_c, 12, 35, 98
13, 8254, Note_off_c, 12, 35, 0
13, 8256, Note_on_c, 12, 36, 98
13, 8266, Note_off_c, 12, 36, 0
13, 8268, Note_on_c, 12, 35, 98
13, 8278, Note_off_c, 12, 35, 0
13, 8280, Note_on_c, 12, 36, 98
13, 8290, Note_off_c, 12, 36, 0
13, 8292, Note_on_c, 12, 35, 98
13, 8302, Note_off_c, 12, 35, 0
13, 8304, Note_on_c, 12, 36, 98
13, 8314, Note_off_c, 12, 36, 0
13, 8316, Note_on_c, 12, 35, 98
13, 8326, Note_off_c, 12, 35, 0
13, 8328, Note_on_c, 12, 36, 98
13, 8338, Note_off_c, 12, 36, 0
13, 8340, Note_on_c, 12, 35, 98
13, 8350, Note_off_c, 12, 35, 0
13, 8352, Note_on_c, 12, 36, 98
13, 8436, Note_off_c, 12, 36, 0
13, 8448, Note_on_c, 12, 38, 98
13, 8532, Note_off_c, 12, 38, 0
13, 8544, Note_on_c, 12, 36, 98
13, 8586, Note_off_c, 12, 36, 0
13, 8592, Note_on_c, 12, 35, 98
13, 8634, Note_off_c, 12, 35, 0
13, 8640, Note_on_c, 12, 36, 98
13, 8724, Note_off_c, 12, 36, 0
13, 8736, Note_on_c, 12, 35, 98
13, 8820, Note_off_c, 12, 35, 0
13, 8832, Note_on_c, 12, 36, 98
13, 8874, Note_off_c, 12, 36, 0
13, 8880, Note_on_c, 12, 35, 98
13, 8922, Note_off_c, 12, 35, 0
13, 8928, Note_on_c, 12, 33, 98
13, 8970, Note_off_c, 12, 33, 0
13, 8976, Note_on_c, 12, 31, 98
13, 9018, Note_off_c, 12, 31, 0
13, 9024, Note_on_c, 12, 36, 98
13, 9108, Note_off_c, 12, 36, 0
13, 9120, Note_on_c, 12, 34, 98
13, 9162, Note_off_c, 12, 34, 0
13, 9168, Note_on_c, 12, 33, 98
13, 9210, Note_off_c, 12, 33, 0
13, 9216, Note_on_c, 12, 31, 98
13, 9258, Note_off_c, 12, 31, 0
13, 9264, Note_on_c, 12, 29, 98
13, 9306, Note_off_c, 12, 29, 0
13, 9312, Note_on_c, 12, 28, 98
13, 9396, Note_off_c, 12, 28, 0
13, 9408, Note_on_c, 12, 29, 98
13, 9450, Note_off_c, 12, 29, 0
13, 9456, Note_on_c, 12, 28, 98
13, 9498, Note_off_c, 12, 28, 0
13, 9504, Note_on_c, 12, 26, 98
13, 9546, Note_off_c, 12, 26, 0
13, 9552, Note_on_c, 12, 28, 98
13, 9594, Note_off_c, 12, 28, 0
13, 9600, Note_on_c, 12, 24, 98
13, 9684, Note_off_c, 12, 24, 0
13, 9696, Note_on_c, 12, 36, 98
13, 9738, Note_off_c, 12, 36, 0
13, 9744, Note_on_c, 12, 38, 98
13, 9786, Note_off_c, 12, 38, 0
13, 9792, Note_on_c, 12, 40, 98
13, 9834, Note_off_c, 12, 40, 0
13, 9840, Note_on_c, 12, 36, 98
13, 9882, Note_off_c, 12, 36, 0
13, 9888, Note_on_c, 12, 38, 98
13, 9930, Note_off_c, 12, 38, 0
13, 9936, Note_on_c, 12, 34, 98
13, 9978, Note_off_c, 12, 34, 0
13, 9984, Note_on_c, 12, 36, 98
13, 10068, Note_off_c, 12, 36, 0
13, 10080, Note_on_c, 12, 24, 98
13, 10164, Note_off_c, 12, 24, 0
13, 10176, Note_on_c, 12, 29, 98
13, 10218, Note_off_c, 12, 29, 0
13, 10224, Note_on_c, 12, 31, 98
13, 10266, Note_off_c, 12, 31, 0
13, 10272, Note_on_c, 12, 33, 98
13, 10314, Note_off_c, 12, 33, 0
13, 10320, Note_on_c, 12, 34, 98
13, 10362, Note_off_c, 12, 34, 0
13, 10368, Note_on_c, 12, 36, 98
13, 10410, Note_off_c, 12, 36, 0
13, 10416, Note_on_c, 12, 38, 98
13, 10458, Note_off_c, 12, 38, 0
13, 10464, Note_on_c, 12, 40, 98
13, 10644, Note_off_c, 12, 40, 0
13, 10656, Note_on_c, 12, 41, 98
13, 10740, Note_off_c, 12, 41, 0
13, 10752, Note_on_c, 12, 43, 98
13, 10836, Note_off_c, 12, 43, 0
13, 10848, Note_on_c, 12, 46, 98
13, 10932, Note_off_c, 12, 46, 0
13, 10944, Note_on_c, 12, 45, 98
13, 11028, Note_off_c, 12, 45, 0
13, 11040, Note_on_c, 12, 43, 98
13, 11124, Note_off_c, 12, 43, 0
13, 11136, Note_on_c, 12, 41, 98
13, 11178, Note_off_c, 12, 41, 0
13, 11184, Note_on_c, 12, 40, 98
13, 11226, Note_off_c, 12, 40, 0
13, 11232, Note_on_c, 12, 41, 98
13, 11316, Note_off_c, 12, 41, 0
13, 11328, Note_on_c, 12, 40, 98
13, 11412, Note_off_c, 12, 40, 0
13, 11424, Note_on_c, 12, 41, 98
13, 11466, Note_off_c, 12, 41, 0
13, 11472, Note_on_c, 12, 40, 98
13, 11514, Note_off_c, 12, 40, 0
13, 11520, Note_on_c, 12, 38, 98
13, 11562, Note_off_c, 12, 38, 0
13, 11568, Note_on_c, 12, 36, 98
13, 11610, Note_off_c, 12, 36, 0
13, 11616, Note_on_c, 12, 36, 98
13, 11626, Note_off_c, 12, 36, 0
13, 11628, Note_on_c, 12, 35, 98
13, 11638, Note_off_c, 12, 35, 0
13, 11640, Note_on_c, 12, 36, 98
13, 11650, Note_off_c, 12, 36, 0
13, 11652, Note_on_c, 12, 35, 98
13, 11662, Note_off_c, 12, 35, 0
13, 11664, Note_on_c, 12, 36, 98
13, 11674, Note_off_c, 12, 36, 0
13, 11676, Note_on_c, 12, 35, 98
13, 11686, Note_off_c, 12, 35, 0
13, 11688, Note_on_c, 12, 36, 98
13, 11698, Note_off_c, 12, 36, 0
13, 11700, Note_on_c, 12, 35, 98
13, 11710, Note_off_c, 12, 35, 0
13, 11712, Note_on_c, 12, 36, 98
13, 11722, Note_off_c, 12, 36, 0
13, 11724, Note_on_c, 12, 35, 98
13, 11734, Note_off_c, 12, 35, 0
13, 11736, Note_on_c, 12, 36, 98
13, 11746, Note_off_c, 12, 36, 0
13, 11748, Note_on_c, 12, 35, 98
13, 11758, Note_off_c, 12, 35, 0
13, 11760, Note_on_c, 12, 36, 98
13, 11770, Note_off_c, 12, 36, 0
13, 11772, Note_on_c, 12, 35, 98
13, 11782, Note_off_c, 12, 35, 0
13, 11784, Note_on_c, 12, 36, 98
13, 11794, Note_off_c, 12, 36, 0
13, 11796, Note_on_c, 12, 35, 98
13, 11806, Note_off_c, 12, 35, 0
13, 11808, Note_on_c, 12, 36, 98
13, 11892, Note_off_c, 12, 36, 0
13, 11904, Note_on_c, 12, 38, 98
13, 11988, Note_off_c, 12, 38, 0
13, 12000, Note_on_c, 12, 36, 98
13, 12042, Note_off_c, 12, 36, 0
13, 12048, Note_on_c, 12, 35, 98
13, 12090, Note_off_c, 12, 35, 0
13, 12096, Note_on_c, 12, 36, 98
13, 12180, Note_off_c, 12, 36, 0
13, 12192, Note_on_c, 12, 35, 98
13, 12276, Note_off_c, 12, 35, 0
13, 12288, Note_on_c, 12, 36, 98
13, 12330, Note_off_c, 12, 36, 0
13, 12336, Note_on_c, 12, 35, 98
13, 12378, Note_off_c, 12, 35, 0
13, 12384, Note_on_c, 12, 33, 98
13, 12426, Note_off_c, 12, 33, 0
13, 12432, Note_on_c, 12, 31, 98
13, 12474, Note_off_c, 12, 31, 0
13, 12480, Note_on_c, 12, 36, 98
13, 12564, Note_off_c, 12, 36, 0
13, 12576, Note_on_c, 12, 34, 98
13, 12618, Note_off_c, 12, 34, 0
13, 12624, Note_on_c, 12, 33, 98
13, 12666, Note_off_c, 12, 33, 0
13, 12672, Note_on_c, 12, 31, 98
13, 12714, Note_off_c, 12, 31, 0
13, 12720, Note_on_c, 12, 29, 98
13, 12762, Note_off_c, 12, 29, 0
13, 12768, Note_on_c, 12, 28, 98
13, 12852, Note_off_c, 12, 28, 0
13, 12864, Note_on_c, 12, 29, 98
13, 12906, Note_off_c, 12, 29, 0
13, 12912, Note_on_c, 12, 28, 98
13, 12954, Note_off_c, 12, 28, 0
13, 12960, Note_on_c, 12, 26, 98
13, 13002, Note_off_c, 12, 26, 0
13, 13008, Note_on_c, 12, 28, 98
13, 13050, Note_off_c, 12, 28, 0
13, 13056, Note_on_c, 12, 24, 98
13, 13140, Note_off_c, 12, 24, 0
13, 13152, Note_on_c, 12, 36, 98
13, 13194, Note_off_c, 12, 36, 0
13, 13200, Note_on_c, 12, 38, 98
13, 13242, Note_off_c, 12, 38, 0
13, 13248, Note_on_c, 12, 40, 98
13, 13290, Note_off_c, 12, 40, 0
13, 13296, Note_on_c, 12, 36, 98
13, 13338, Note_off_c, 12, 36, 0
13, 13344, Note_on_c, 12, 38, 98
13, 13386, Note_off_c, 12, 38, 0
13, 13392, Note_on_c, 12, 34, 98
13, 13434, Note_off_c, 12, 34, 0
13, 13440, Note_on_c, 12, 36, 98
13, 13524, Note_off_c, 12, 36, 0
13, 13536, Note_on_c, 12, 24, 98
13, 13620, Note_off_c, 12, 24, 0
13, 13632, Note_on_c, 12, 29, 98
13, 13908, Note_off_c, 12, 29, 0
13, 14112, Time_signature, 2, 2, 96, 8
13, 14208, Tempo, 500000
13, 17280, Tempo, 500000
13, 26784, Time_signature, 3, 2, 96, 8
13, 26880, Tempo, 428571
13, 26880, Note_on_c, 12, 45, 98
13, 27060, Note_off_c, 12, 45, 0
13, 27072, Note_on_c, 12, 46, 98
13, 27156, Note_off_c, 12, 46, 0
13, 27168, Note_on_c, 12, 48, 98
13, 27252, Note_off_c, 12, 48, 0
13, 27264, Note_on_c, 12, 51, 98
13, 27348, Note_off_c, 12, 51, 0
13, 27360, Note_on_c, 12, 50, 98
13, 27444, Note_off_c, 12, 50, 0
13, 27456, Note_on_c, 12, 48, 98
13, 27540, Note_off_c, 12, 48, 0
13, 27552, Note_on_c, 12, 46, 98
13, 27594, Note_off_c, 12, 46, 0
13, 27600, Note_on_c, 12, 45, 98
13, 27642, Note_off_c, 12, 45, 0
13, 27648, Note_on_c, 12, 46, 98
13, 27732, Note_off_c, 12, 46, 0
13, 27744, Note_on_c, 12, 45, 98
13, 27828, Note_off_c, 12, 45, 0
13, 27840, Note_on_c, 12, 46, 98
13, 27882, Note_off_c, 12, 46, 0
13, 27888, Note_on_c, 12, 45, 98
13, 27930, Note_off_c, 12, 45, 0
13, 27936, Note_on_c, 12, 43, 98
13, 27978, Note_off_c, 12, 43, 0
13, 27984, Note_on_c, 12, 41, 98
13, 28026, Note_off_c, 12, 41, 0
13, 28032, Note_on_c, 12, 41, 98
13, 28042, Note_off_c, 12, 41, 0
13, 28044, Note_on_c, 12, 40, 98
13, 28054, Note_off_c, 12, 40, 0
13, 28056, Note_on_c, 12, 41, 98
13, 28066, Note_off_c, 12, 41, 0
13, 28068, Note_on_c, 12, 40, 98
13, 28078, Note_off_c, 12, 40, 0
13, 28080, Note_on_c, 12, 41, 98
13, 28090, Note_off_c, 12, 41, 0
13, 28092, Note_on_c, 12, 40, 98
13, 28102, Note_off_c, 12, 40, 0
13, 28104, Note_on_c, 12, 41, 98
13, 28114, Note_off_c, 12, 41, 0
13, 28116, Note_on_c, 12, 40, 98
13, 28126, Note_off_c, 12, 40, 0
13, 28128, Note_on_c, 12, 41, 98
13, 28138, Note_off_c, 12, 41, 0
13, 28140, Note_on_c, 12, 40, 98
13, 28150, Note_off_c, 12, 40, 0
13, 28152, Note_on_c, 12, 41, 98
13, 28162, Note_off_c, 12, 41, 0
13, 28164, Note_on_c, 12, 40, 98
13, 28174, Note_off_c, 12, 40, 0
13, 28176, Note_on_c, 12, 41, 98
13, 28186, Note_off_c, 12, 41, 0
13, 28188, Note_on_c, 12, 40, 98
13, 28198, Note_off_c, 12, 40, 0
13, 28200, Note_on_c, 12, 41, 98
13, 28210, Note_off_c, 12, 41, 0
13, 28212, Note_on_c, 12, 40, 98
13, 28222, Note_off_c, 12, 40, 0
13, 28224, Note_on_c, 12, 41, 98
13, 28308, Note_off_c, 12, 41, 0
13, 28320, Note_on_c, 12, 43, 98
13, 28404, Note_off_c, 12, 43, 0
13, 28416, Note_on_c, 12, 41, 98
13, 28458, Note_off_c, 12, 41, 0
13, 28464, Note_on_c, 12, 40, 98
13, 28506, Note_off_c, 12, 40, 0
13, 28512, Note_on_c, 12, 41, 98
13, 28596, Note_off_c, 12, 41, 0
13, 28608, Note_on_c, 12, 40, 98
13, 28692, Note_off_c, 12, 40, 0
13, 28704, Note_on_c, 12, 41, 98
13, 28746, Note_off_c, 12, 41, 0
13, 28752, Note_on_c, 12, 40, 98
13, 28794, Note_off_c, 12, 40, 0
13, 28800, Note_on_c, 12, 38, 98
13, 28842, Note_off_c, 12, 38, 0
13, 28848, Note_on_c, 12, 36, 98
13, 28890, Note_off_c, 12, 36, 0
13, 28896, Note_on_c, 12, 41, 98
13, 28980, Note_off_c, 12, 41, 0
13, 28992, Note_on_c, 12, 40, 98
13, 29034, Note_off_c, 12, 40, 0
13, 29040, Note_on_c, 12, 38, 98
13, 29082, Note_off_c, 12, 38, 0
13, 29088, Note_on_c, 12, 40, 98
13, 29172, Note_off_c, 12, 40, 0
13, 29184, Note_on_c, 12, 38, 98
13, 29268, Note_off_c, 12, 38, 0
13, 29280, Note_on_c, 12, 40, 98
13, 29364, Note_off_c, 12, 40, 0
13, 29376, Note_on_c, 12, 36, 98
13, 29460, Note_off_c, 12, 36, 0
13, 29472, Note_on_c, 12, 35, 98
13, 29556, Note_off_c, 12, 35, 0
13, 29568, Note_on_c, 12, 33, 98
13, 29610, Note_off_c, 12, 33, 0
13, 29616, Note_on_c, 12, 31, 98
13, 29658, Note_off_c, 12, 31, 0
13, 29664, Note_on_c, 12, 29, 98
13, 29706, Note_off_c, 12, 29, 0
13, 29712, Note_on_c, 12, 28, 98
13, 29754, Note_off_c, 12, 28, 0
13, 29760, Note_on_c, 12, 33, 98
13, 29802, Note_off_c, 12, 33, 0
13, 29808, Note_on_c, 12, 29, 98
13, 29850, Note_off_c, 12, 29, 0
13, 29856, Note_on_c, 12, 31, 98
13, 29940, Note_off_c, 12, 31, 0
13, 29952, Note_on_c, 12, 31, 98
13, 30036, Note_off_c, 12, 31, 0
13, 30048, Note_on_c, 12, 24, 98
13, 30132, Note_off_c, 12, 24, 0
13, 30144, Note_on_c, 12, 36, 98
13, 30186, Note_off_c, 12, 36, 0
13, 30192, Note_on_c, 12, 34, 98
13, 30234, Note_off_c, 12, 34, 0
13, 30240, Note_on_c, 12, 33, 98
13, 30282, Note_off_c, 12, 33, 0
13, 30288, Note_on_c, 12, 31, 98
13, 30330, Note_off_c, 12, 31, 0
13, 30336, Note_on_c, 12, 29, 98
13, 30420, Note_off_c, 12, 29, 0
13, 30432, Note_on_c, 12, 45, 98
13, 30516, Note_off_c, 12, 45, 0
13, 30528, Note_on_c, 12, 46, 98
13, 30612, Note_off_c, 12, 46, 0
13, 30624, Note_on_c, 12, 48, 98
13, 30708, Note_off_c, 12, 48, 0
13, 30720, Note_on_c, 12, 51, 98
13, 30804, Note_off_c, 12, 51, 0
13, 30816, Note_on_c, 12, 50, 98
13, 30900, Note_off_c, 12, 50, 0
13, 30912, Note_on_c, 12, 48, 98
13, 30996, Note_off_c, 12, 48, 0
13, 31008, Note_on_c, 12, 46, 98
13, 31050, Note_off_c, 12, 46, 0
13, 31056, Note_on_c, 12, 45, 98
13, 31098, Note_off_c, 12, 45, 0
13, 31104, Note_on_c, 12, 46, 98
13, 31188, Note_off_c, 12, 46, 0
13, 31200, Note_on_c, 12, 45, 98
13, 31284, Note_off_c, 12, 45, 0
13, 31296, Note_on_c, 12, 46, 98
13, 31338, Note_off_c, 12, 46, 0
13, 31344, Note_on_c, 12, 45, 98
13, 31386, Note_off_c, 12, 45, 0
13, 31392, Note_on_c, 12, 43, 98
13, 31434, Note_off_c, 12, 43, 0
13, 31440, Note_on_c, 12, 41, 98
13, 31482, Note_off_c, 12, 41, 0
13, 31488, Note_on_c, 12, 41, 98
13, 31498, Note_off_c, 12, 41, 0
13, 31500, Note_on_c, 12, 40, 98
13, 31510, Note_off_c, 12, 40, 0
13, 31512, Note_on_c, 12, 41, 98
13, 31522, Note_off_c, 12, 41, 0
13, 31524, Note_on_c, 12, 40, 98
13, 31534, Note_off_c, 12, 40, 0
13, 31536, Note_on_c, 12, 41, 98
13, 31546, Note_off_c, 12, 41, 0
13, 31548, Note_on_c, 12, 40, 98
13, 31558, Note_off_c, 12, 40, 0
13, 31560, Note_on_c, 12, 41, 98
13, 31570, Note_off_c, 12, 41, 0
13, 31572, Note_on_c, 12, 40, 98
13, 31582, Note_off_c, 12, 40, 0
13, 31584, Note_on_c, 12, 41, 98
13, 31594, Note_off_c, 12, 41, 0
13, 31596, Note_on_c, 12, 40, 98
13, 31606, Note_off_c, 12, 40, 0
13, 31608, Note_on_c, 12, 41, 98
13, 31618, Note_off_c, 12, 41, 0
13, 31620, Note_on_c, 12, 40, 98
13, 31630, Note_off_c, 12, 40, 0
13, 31632, Note_on_c, 12, 41, 98
13, 31642, Note_off_c, 12, 41, 0
13, 31644, Note_on_c, 12, 40, 98
13, 31654, Note_off_c, 12, 40, 0
13, 31656, Note_on_c, 12, 41, 98
13, 31666, Note_off_c, 12, 41, 0
13, 31668, Note_on_c, 12, 40, 98
13, 31678, Note_off_c, 12, 40, 0
13, 31680, Note_on_c, 12, 41, 98
13, 31764, Note_off_c, 12, 41, 0
13, 31776, Note_on_c, 12, 43, 98
13, 31860, Note_off_c, 12, 43, 0
13, 31872, Note_on_c, 12, 41, 98
13, 31914, Note_off_c, 12, 41, 0
13, 31920, Note_on_c, 12, 40, 98
13, 31962, Note_off_c, 12, 40, 0
13, 31968, Note_on_c, 12, 41, 98
13, 32052, Note_off_c, 12, 41, 0
13, 32064, Note_on_c, 12, 40, 98
13, 32148, Note_off_c, 12, 40, 0
13, 32160, Note_on_c, 12, 41, 98
13, 32202, Note_off_c, 12, 41, 0
13, 32208, Note_on_c, 12, 40, 98
13, 32250, Note_off_c, 12, 40, 0
13, 32256, Note_on_c, 12, 38, 98
13, 32298, Note_off_c, 12, 38, 0
13, 32304, Note_on_c, 12, 36, 98
13, 32346, Note_off_c, 12, 36, 0
13, 32352, Note_on_c, 12, 41, 98
13, 32436, Note_off_c, 12, 41, 0
13, 32448, Note_on_c, 12, 40, 98
13, 32490, Note_off_c, 12, 40, 0
13, 32496, Note_on_c, 12, 38, 98
13, 32538, Note_off_c, 12, 38, 0
13, 32544, Note_on_c, 12, 40, 98
13, 32628, Note_off_c, 12, 40, 0
13, 32640, Note_on_c, 12, 38, 98
13, 32724, Note_off_c, 12, 38, 0
13, 32736, Note_on_c, 12, 40, 98
13, 32820, Note_off_c, 12, 40, 0
13, 32832, Note_on_c, 12, 36, 98
13, 32916, Note_off_c, 12, 36, 0
13, 32928, Note_on_c, 12, 35, 98
13, 33012, Note_off_c, 12, 35, 0
13, 33024, Note_on_c, 12, 33, 98
13, 33066, Note_off_c, 12, 33, 0
13, 33072, Note_on_c, 12, 31, 98
13, 33114, Note_off_c, 12, 31, 0
13, 33120, Note_on_c, 12, 29, 98
13, 33162, Note_off_c, 12, 29, 0
13, 33168, Note_on_c, 12, 28, 98
13, 33210, Note_off_c, 12, 28, 0
13, 33216, Note_on_c, 12, 33, 98
13, 33258, Note_off_c, 12, 33, 0
13, 33264, Note_on_c, 12, 29, 98
13, 33306, Note_off_c, 12, 29, 0
13, 33312, Note_on_c, 12, 31, 98
13, 33396, Note_off_c, 12, 31, 0
13, 33408, Note_on_c, 12, 31, 98
13, 33492, Note_off_c, 12, 31, 0
13, 33504, Note_on_c, 12, 24, 98
13, 33588, Note_off_c, 12, 24, 0
13, 33600, Note_on_c, 12, 36, 98
13, 33684, Note_off_c, 12, 36, 0
13, 33696, Note_on_c, 12, 38, 98
13, 33780, Note_off_c, 12, 38, 0
13, 33792, Note_on_c, 12, 40, 98
13, 33972, Note_off_c, 12, 40, 0
13, 33984, Note_on_c, 12, 41, 98
13, 34068, Note_off_c, 12, 41, 0
13, 34080, Note_on_c, 12, 43, 98
13, 34164, Note_off_c, 12, 43, 0
13, 34176, Note_on_c, 12, 46, 98
13, 34260, Note_off_c, 12, 46, 0
13, 34272, Note_on_c, 12, 45, 98
13, 34356, Note_off_c, 12, 45, 0
13, 34368, Note_on_c, 12, 43, 98
13, 34452, Note_off_c, 12, 43, 0
13, 34464, Note_on_c, 12, 41, 98
13, 34506, Note_off_c, 12, 41, 0
13, 34512, Note_on_c, 12, 40, 98
13, 34554, Note_off_c, 12, 40, 0
13, 34560, Note_on_c, 12, 41, 98
13, 34644, Note_off_c, 12, 41, 0
13, 34656, Note_on_c, 12, 40, 98
13, 34740, Note_off_c, 12, 40, 0
13, 34752, Note_on_c, 12, 41, 98
13, 34794, Note_off_c, 12, 41, 0
13, 34800, Note_on_c, 12, 40, 98
13, 34842, Note_off_c, 12, 40, 0
13, 34848, Note_on_c, 12, 38, 98
13, 34890, Note_off_c, 12, 38, 0
13, 34896, Note_on_c, 12, 36, 98
13, 34938, Note_off_c, 12, 36, 0
13, 34944, Note_on_c, 12, 36, 98
13, 34954, Note_off_c, 12, 36, 0
13, 34956, Note_on_c, 12, 35, 98
13, 34966, Note_off_c, 12, 35, 0
13, 34968, Note_on_c, 12, 36, 98
13, 34978, Note_off_c, 12, 36, 0
13, 34980, Note_on_c, 12, 35, 98
13, 34990, Note_off_c, 12, 35, 0
13, 34992, Note_on_c, 12, 36, 98
13, 35002, Note_off_c, 12, 36, 0
13, 35004, Note_on_c, 12, 35, 98
13, 35014, Note_off_c, 12, 35, 0
13, 35016, Note_on_c, 12, 36, 98
13, 35026, Note_off_c, 12, 36, 0
13, 35028, Note_on_c, 12, 35, 98
13, 35038, Note_off_c, 12, 35, 0
13, 35040, Note_on_c, 12, 36, 98
13, 35050, Note_off_c, 12, 36, 0
13, 35052, Note_on_c, 12, 35, 98
13, 35062, Note_off_c, 12, 35, 0
13, 35064, Note_on_c, 12, 36, 98
13, 35074, Note_off_c, 12, 36, 0
13, 35076, Note_on_c, 12, 35, 98
13, 35086, Note_off_c, 12, 35, 0
13, 35088, Note_on_c, 12, 36, 98
13, 35098, Note_off_c, 12, 36, 0
13, 35100, Note_on_c, 12, 35, 98
13, 35110, Note_off_c, 12, 35, 0
13, 35112, Note_on_c, 12, 36, 98
13, 35122, Note_off_c, 12, 36, 0
13, 35124, Note_on_c, 12, 35, 98
13, 35134, Note_off_c, 12, 35, 0
13, 35136, Note_on_c, 12, 36, 98
13, 35220, Note_off_c, 12, 36, 0
13, 35232, Note_on_c, 12, 38, 98
13, 35316, Note_off_c, 12, 38, 0
13, 35328, Note_on_c, 12, 36, 98
13, 35370, Note_off_c, 12, 36, 0
13, 35376, Note_on_c, 12, 35, 98
13, 35418, Note_off_c, 12, 35, 0
13, 35424, Note_on_c, 12, 36, 98
13, 35508, Note_off_c, 12, 36, 0
13, 35520, Note_on_c, 12, 35, 98
13, 35604, Note_off_c, 12, 35, 0
13, 35616, Note_on_c, 12, 36, 98
13, 35658, Note_off_c, 12, 36, 0
13, 35664, Note_on_c, 12, 35, 98
13, 35706, Note_off_c, 12, 35, 0
13, 35712, Note_on_c, 12, 33, 98
13, 35754, Note_off_c, 12, 33, 0
13, 35760, Note_on_c, 12, 31, 98
13, 35802, Note_off_c, 12, 31, 0
13, 35808, Note_on_c, 12, 36, 98
13, 35892, Note_off_c, 12, 36, 0
13, 35904, Note_on_c, 12, 34, 98
13, 35946, Note_off_c, 12, 34, 0
13, 35952, Note_on_c, 12, 33, 98
13, 35994, Note_off_c, 12, 33, 0
13, 36000, Note_on_c, 12, 31, 98
13, 36042, Note_off_c, 12, 31, 0
13, 36048, Note_on_c, 12, 29, 98
13, 36090, Note_off_c, 12, 29, 0
13, 36096, Note_on_c, 12, 28, 98
13, 36180, Note_off_c, 12, 28, 0
13, 36192, Note_on_c, 12, 29, 98
13, 36234, Note_off_c, 12, 29, 0
13, 36240, Note_on_c, 12, 28, 98
13, 36282, Note_off_c, 12, 28, 0
13, 36288, Note_on_c, 12, 26, 98
13, 36330, Note_off_c, 12, 26, 0
13, 36336, Note_on_c, 12, 28, 98
13, 36378, Note_off_c, 12, 28, 0
13, 36384, Note_on_c, 12, 24, 98
13, 36468, Note_off_c, 12, 24, 0
13, 36480, Note_on_c, 12, 36, 98
13, 36522, Note_off_c, 12, 36, 0
13, 36528, Note_on_c, 12, 38, 98
13, 36570, Note_off_c, 12, 38, 0
13, 36576, Note_on_c, 12, 40, 98
13, 36618, Note_off_c, 12, 40, 0
13, 36624, Note_on_c, 12, 36, 98
13, 36666, Note_off_c, 12, 36, 0
13, 36672, Note_on_c, 12, 38, 98
13, 36714, Note_off_c, 12, 38, 0
13, 36720, Note_on_c, 12, 34, 98
13, 36762, Note_off_c, 12, 34, 0
13, 36768, Note_on_c, 12, 36, 98
13, 36852, Note_off_c, 12, 36, 0
13, 36864, Note_on_c, 12, 24, 98
13, 36948, Note_off_c, 12, 24, 0
13, 36960, Note_on_c, 12, 29, 98
13, 37002, Note_off_c, 12, 29, 0
13, 37008, Note_on_c, 12, 31, 98
13, 37050, Note_off_c, 12, 31, 0
13, 37056, Note_on_c, 12, 33, 98
13, 37098, Note_off_c, 12, 33, 0
13, 37104, Note_on_c, 12, 34, 98
13, 37146, Note_off_c, 12, 34, 0
13, 37152, Note_on_c, 12, 36, 98
13, 37194, Note_off_c, 12, 36, 0
13, 37200, Note_on_c, 12, 38, 98
13, 37242, Note_off_c, 12, 38, 0
13, 37248, Note_on_c, 12, 40, 98
13, 37428, Note_off_c, 12, 40, 0
13, 37440, Note_on_c, 12, 41, 98
13, 37524, Note_off_c, 12, 41, 0
13, 37536, Note_on_c, 12, 43, 98
13, 37620, Note_off_c, 12, 43, 0
13, 37632, Note_on_c, 12, 46, 98
13, 37716, Note_off_c, 12, 46, 0
13, 37728, Note_on_c, 12, 45, 98
13, 37812, Note_off_c, 12, 45, 0
13, 37824, Note_on_c, 12, 43, 98
13, 37908, Note_off_c, 12, 43, 0
13, 37920, Note_on_c, 12, 41, 98
13, 37962, Note_off_c, 12, 41, 0
13, 37968, Note_on_c, 12, 40, 98
13, 38010, Note_off_c, 12, 40, 0
13, 38016, Note_on_c, 12, 41, 98
13, 38100, Note_off_c, 12, 41, 0
13, 38112, Note_on_c, 12, 40, 98
13, 38196, Note_off_c, 12, 40, 0
13, 38208, Note_on_c, 12, 41, 98
13, 38250, Note_off_c, 12, 41, 0
13, 38256, Note_on_c, 12, 40, 98
13, 38298, Note_off_c, 12, 40, 0
13, 38304, Note_on_c, 12, 38, 98
13, 38346, Note_off_c, 12, 38, 0
13, 38352, Note_on_c, 12, 36, 98
13, 38394, Note_off_c, 12, 36, 0
13, 38400, Note_on_c, 12, 36, 98
13, 38410, Note_off_c, 12, 36, 0
13, 38412, Note_on_c, 12, 35, 98
13, 38422, Note_off_c, 12, 35, 0
13, 38424, Note_on_c, 12, 36, 98
13, 38434, Note_off_c, 12, 36, 0
13, 38436, Note_on_c, 12, 35, 98
13, 38446, Note_off_c, 12, 35, 0
13, 38448, Note_on_c, 12, 36, 98
13, 38458, Note_off_c, 12, 36, 0
13, 38460, Note_on_c, 12, 35, 98
13, 38470, Note_off_c, 12, 35, 0
13, 38472, Note_on_c, 12, 36, 98
13, 38482, Note_off_c, 12, 36, 0
13, 38484, Note_on_c, 12, 35, 98
13, 38494, Note_off_c, 12, 35, 0
13, 38496, Note_on_c, 12, 36, 98
13, 38506, Note_off_c, 12, 36, 0
13, 38508, Note_on_c, 12, 35, 98
13, 38518, Note_off_c, 12, 35, 0
13, 38520, Note_on_c, 12, 36, 98
13, 38530, Note_off_c, 12, 36, 0
13, 38532, Note_on_c, 12, 35, 98
13, 38542, Note_off_c, 12, 35, 0
13, 38544, Note_on_c, 12, 36, 98
13, 38554, Note_off_c, 12, 36, 0
13, 38556, Note_on_c, 12, 35, 98
13, 38566, Note_off_c, 12, 35, 0
13, 38568, Note_on_c, 12, 36, 98
13, 38578, Note_off_c, 12, 36, 0
13, 38580, Note_on_c, 12, 35, 98
13, 38590, Note_off_c, 12, 35, 0
13, 38592, Note_on_c, 12, 36, 98
13, 38676, Note_off_c, 12, 36, 0
13, 38688, Note_on_c, 12, 38, 98
13, 38772, Note_off_c, 12, 38, 0
13, 38784, Note_on_c, 12, 36, 98
13, 38826, Note_off_c, 12, 36, 0
13, 38832, Note_on_c, 12, 35, 98
13, 38874, Note_off_c, 12, 35, 0
13, 38880, Note_on_c, 12, 36, 98
13, 38964, Note_off_c, 12, 36, 0
13, 38976, Note_on_c, 12, 35, 98
13, 39060, Note_off_c, 12, 35, 0
13, 39072, Note_on_c, 12, 36, 98
13, 39114, Note_off_c, 12, 36, 0
13, 39120, Note_on_c, 12, 35, 98
13, 39162, Note_off_c, 12, 35, 0
13, 39168, Note_on_c, 12, 33, 98
13, 39210, Note_off_c, 12, 33, 0
13, 39216, Note_on_c, 12, 31, 98
13, 39258, Note_off_c, 12, 31, 0
13, 39264, Note_on_c, 12, 36, 98
13, 39348, Note_off_c, 12, 36, 0
13, 39360, Note_on_c, 12, 34, 98
13, 39402, Note_off_c, 12, 34, 0
13, 39408, Note_on_c, 12, 33, 98
13, 39450, Note_off_c, 12, 33, 0
13, 39456, Note_on_c, 12, 31, 98
13, 39498, Note_off_c, 12, 31, 0
13, 39504, Note_on_c, 12, 29, 98
13, 39546, Note_off_c, 12, 29, 0
13, 39552, Note_on_c, 12, 28, 98
13, 39636, Note_off_c, 12, 28, 0
13, 39648, Note_on_c, 12, 29, 98
13, 39690, Note_off_c, 12, 29, 0
13, 39696, Note_on_c, 12, 28, 98
13, 39738, Note_off_c, 12, 28, 0
13, 39744, Note_on_c, 12, 26, 98
13, 39786, Note_off_c, 12, 26, 0
13, 39792, Note_on_c, 12, 28, 98
13, 39834, Note_off_c, 12, 28, 0
13, 39840, Note_on_c, 12, 24, 98
13, 39924, Note_off_c, 12, 24, 0
13, 39936, Note_on_c, 12, 36, 98
13, 39978, Note_off_c, 12, 36, 0
13, 39984, Note_on_c, 12, 38, 98
13, 40026, Note_off_c, 12, 38, 0
13, 40032, Note_on_c, 12, 40, 98
13, 40074, Note_off_c, 12, 40, 0
13, 40080, Note_on_c, 12, 36, 98
13, 40122, Note_off_c, 12, 36, 0
13, 40128, Note_on_c, 12, 38, 98
13, 40170, Note_off_c, 12, 38, 0
13, 40176, Note_on_c, 12, 34, 98
13, 40218, Note_off_c, 12, 34, 0
13, 40224, Note_on_c, 12, 36, 98
13, 40308, Note_off_c, 12, 36, 0
13, 40320, Note_on_c, 12, 24, 98
13, 40404, Note_off_c, 12, 24, 0
13, 40416, Note_on_c, 12, 29, 98
13, 40692, Note_off_c, 12, 29, 0
13, 40692, End_track
14, 0, Start_track
14, 0, Title_t, "Continuo"
14, 0, Control_c, 13, 0, 0
14, 0, Program_c, 13, 6
14, 0, Time_signature, 3, 2, 96, 8
14, 0, Tempo, 461538
14, 96, Tempo, 428571
14, 96, Note_on_c, 13, 65, 96
14, 96, Note_on_c, 13, 72, 96
14, 96, Note_on_c, 13, 57, 96
14, 180, Note_off_c, 13, 65, 0
14, 180, Note_off_c, 13, 72, 0
14, 192, Note_on_c, 13, 63, 96
14, 192, Note_on_c, 13, 72, 96
14, 276, Note_off_c, 13, 57, 0
14, 276, Note_off_c, 13, 63, 0
14, 276, Note_off_c, 13, 72, 0
14, 288, Note_on_c, 13, 65, 96
14, 288, Note_on_c, 13, 74, 96
14, 288, Note_on_c, 13, 58, 96
14, 372, Note_off_c, 13, 65, 0
14, 372, Note_off_c, 13, 74, 0
14, 372, Note_off_c, 13, 58, 0
14, 384, Note_on_c, 13, 69, 96
14, 384, Note_on_c, 13, 75, 96
14, 384, Note_on_c, 13, 60, 96
14, 468, Note_off_c, 13, 69, 0
14, 468, Note_off_c, 13, 75, 0
14, 468, Note_off_c, 13, 60, 0
14, 480, Note_on_c, 13, 70, 96
14, 480, Note_on_c, 13, 75, 96
14, 480, Note_on_c, 13, 63, 96
14, 564, Note_off_c, 13, 70, 0
14, 564, Note_off_c, 13, 75, 0
14, 564, Note_off_c, 13, 63, 0
14, 576, Note_on_c, 13, 62, 96
14, 576, Note_on_c, 13, 70, 96
14, 576, Note_on_c, 13, 62, 96
14, 660, Note_off_c, 13, 62, 0
14, 660, Note_off_c, 13, 70, 0
14, 660, Note_off_c, 13, 62, 0
14, 672, Note_on_c, 13, 69, 96
14, 672, Note_on_c, 13, 75, 96
14, 672, Note_on_c, 13, 60, 96
14, 756, Note_off_c, 13, 69, 0
14, 756, Note_off_c, 13, 75, 0
14, 756, Note_off_c, 13, 60, 0
14, 768, Note_on_c, 13, 63, 96
14, 768, Note_on_c, 13, 72, 96
14, 768, Note_on_c, 13, 58, 96
14, 810, Note_off_c, 13, 58, 0
14, 816, Note_on_c, 13, 57, 96
14, 852, Note_off_c, 13, 63, 0
14, 852, Note_off_c, 13, 72, 0
14, 858, Note_off_c, 13, 57, 0
14, 864, Note_on_c, 13, 65, 96
14, 864, Note_on_c, 13, 74, 96
14, 864, Note_on_c, 13, 58, 96
14, 948, Note_off_c, 13, 65, 0
14, 948, Note_off_c, 13, 74, 0
14, 948, Note_off_c, 13, 58, 0
14, 960, Note_on_c, 13, 65, 96
14, 960, Note_on_c, 13, 72, 96
14, 960, Note_on_c, 13, 57, 96
14, 1044, Note_off_c, 13, 65, 0
14, 1044, Note_off_c, 13, 72, 0
14, 1044, Note_off_c, 13, 57, 0
14, 1056, Note_on_c, 13, 65, 96
14, 1056, Note_on_c, 13, 70, 96
14, 1056, Note_on_c, 13, 58, 96
14, 1098, Note_off_c, 13, 58, 0
14, 1104, Note_on_c, 13, 57, 96
14, 1140, Note_off_c, 13, 65, 0
14, 1140, Note_off_c, 13, 70, 0
14, 1146, Note_off_c, 13, 57, 0
14, 1152, Note_on_c, 13, 60, 96
14, 1152, Note_on_c, 13, 69, 96
14, 1152, Note_on_c, 13, 55, 96
14, 1194, Note_off_c, 13, 55, 0
14, 1200, Note_on_c, 13, 53, 96
14, 1236, Note_off_c, 13, 60, 0
14, 1236, Note_off_c, 13, 69, 0
14, 1242, Note_off_c, 13, 53, 0
14, 1248, Note_on_c, 13, 67, 96
14, 1248, Note_on_c, 13, 72, 96
14, 1248, Note_on_c, 13, 53, 96
14, 1258, Note_off_c, 13, 53, 0
14, 1260, Note_on_c, 13, 52, 96
14, 1270, Note_off_c, 13, 52, 0
14, 1272, Note_on_c, 13, 53, 96
14, 1282, Note_off_c, 13, 53, 0
14, 1284, Note_on_c, 13, 52, 96
14, 1294, Note_off_c, 13, 52, 0
14, 1296, Note_on_c, 13, 53, 96
14, 1306, Note_off_c, 13, 53, 0
14, 1308, Note_on_c, 13, 52, 96
14, 1318, Note_off_c, 13, 52, 0
14, 1320, Note_on_c, 13, 53, 96
14, 1330, Note_off_c, 13, 53, 0
14, 1332, Note_off_c, 13, 67, 0
14, 1332, Note_off_c, 13, 72, 0
14, 1332, Note_on_c, 13, 52, 96
14, 1342, Note_off_c, 13, 52, 0
14, 1344, Note_on_c, 13, 60, 96
14, 1344, Note_on_c, 13, 67, 96
14, 1344, Note_on_c, 13, 53, 96
14, 1354, Note_off_c, 13, 53, 0
14, 1356, Note_on_c, 13, 52, 96
14, 1366, Note_off_c, 13, 52, 0
14, 1368, Note_on_c, 13, 53, 96
14, 1378, Note_off_c, 13, 53, 0
14, 1380, Note_on_c, 13, 52, 96
14, 1390, Note_off_c, 13, 52, 0
14, 1392, Note_on_c, 13, 53, 96
14, 1402, Note_off_c, 13, 53, 0
14, 1404, Note_on_c, 13, 52, 96
14, 1414, Note_off_c, 13, 52, 0
14, 1416, Note_on_c, 13, 53, 96
14, 1426, Note_off_c, 13, 53, 0
14, 1428, Note_off_c, 13, 60, 0
14, 1428, Note_off_c, 13, 67, 0
14, 1428, Note_on_c, 13, 52, 96
14, 1438, Note_off_c, 13, 52, 0
14, 1440, Note_on_c, 13, 60, 96
14, 1440, Note_on_c, 13, 69, 96
14, 1440, Note_on_c, 13, 53, 96
14, 1524, Note_off_c, 13, 60, 0
14, 1524, Note_off_c, 13, 69, 0
14, 1524, Note_off_c, 13, 53, 0
14, 1536, Note_on_c, 13, 64, 96
14, 1536, Note_on_c, 13, 70, 96
14, 1536, Note_on_c, 13, 55, 96
14, 1620, Note_off_c, 13, 64, 0
14, 1620, Note_off_c, 13, 70, 0
14, 1620, Note_off_c, 13, 55, 0
14, 1632, Note_on_c, 13, 62, 96
14, 1632, Note_on_c, 13, 69, 96
14, 1632, Note_on_c, 13, 53, 96
14, 1674, Note_off_c, 13, 53, 0
14, 1680, Note_on_c, 13, 52, 96
14, 1716, Note_off_c, 13, 62, 0
14, 1716, Note_off_c, 13, 69, 0
14, 1722, Note_off_c, 13, 52, 0
14, 1728, Note_on_c, 13, 69, 96
14, 1728, Note_on_c, 13, 74, 96
14, 1728, Note_on_c, 13, 53, 96
14, 1812, Note_off_c, 13, 69, 0
14, 1812, Note_off_c, 13, 74, 0
14, 1812, Note_off_c, 13, 53, 0
14, 1824, Note_on_c, 13, 67, 96
14, 1824, Note_on_c, 13, 72, 96
14, 1824, Note_on_c, 13, 52, 96
14, 1908, Note_off_c, 13, 67, 0
14, 1908, Note_off_c, 13, 72, 0
14, 1908, Note_off_c, 13, 52, 0
14, 1920, Note_on_c, 13, 60, 96
14, 1920, Note_on_c, 13, 69, 96
14, 1920, Note_on_c, 13, 53, 96
14, 1962, Note_off_c, 13, 53, 0
14, 1968, Note_on_c, 13, 52, 96
14, 2004, Note_off_c, 13, 60, 0
14, 2004, Note_off_c, 13, 69, 0
14, 2010, Note_off_c, 13, 52, 0
14, 2016, Note_on_c, 13, 64, 96
14, 2016, Note_on_c, 13, 72, 96
14, 2016, Note_on_c, 13, 50, 96
14, 2058, Note_off_c, 13, 50, 0
14, 2064, Note_on_c, 13, 48, 96
14, 2100, Note_off_c, 13, 64, 0
14, 2100, Note_off_c, 13, 72, 0
14, 2106, Note_off_c, 13, 48, 0
14, 2112, Note_on_c, 13, 60, 96
14, 2112, Note_on_c, 13, 69, 96
14, 2112, Note_on_c, 13, 53, 96
14, 2196, Note_off_c, 13, 60, 0
14, 2196, Note_off_c, 13, 69, 0
14, 2196, Note_off_c, 13, 53, 0
14, 2208, Note_on_c, 13, 69, 96
14, 2208, Note_on_c, 13, 72, 96
14, 2208, Note_on_c, 13, 52, 96
14, 2250, Note_off_c, 13, 52, 0
14, 2256, Note_on_c, 13, 50, 96
14, 2292, Note_off_c, 13, 69, 0
14, 2292, Note_off_c, 13, 72, 0
14, 2298, Note_off_c, 13, 50, 0
14, 2304, Note_on_c, 13, 67, 96
14, 2304, Note_on_c, 13, 72, 96
14, 2304, Note_on_c, 13, 52, 96
14, 2388, Note_off_c, 13, 67, 0
14, 2388, Note_off_c, 13, 72, 0
14, 2388, Note_off_c, 13, 52, 0
14, 2400, Note_on_c, 13, 65, 96
14, 2400, Note_on_c, 13, 71, 96
14, 2400, Note_on_c, 13, 50, 96
14, 2484, Note_off_c, 13, 65, 0
14, 2484, Note_off_c, 13, 71, 0
14, 2484, Note_off_c, 13, 50, 0
14, 2496, Note_on_c, 13, 67, 96
14, 2496, Note_on_c, 13, 72, 96
14, 2496, Note_on_c, 13, 52, 96
14, 2580, Note_off_c, 13, 67, 0
14, 2580, Note_off_c, 13, 72, 0
14, 2580, Note_off_c, 13, 52, 0
14, 2592, Note_on_c, 13, 67, 96
14, 2592, Note_on_c, 13, 76, 96
14, 2592, Note_on_c, 13, 48, 96
14, 2676, Note_off_c, 13, 67, 0
14, 2676, Note_off_c, 13, 76, 0
14, 2676, Note_off_c, 13, 48, 0
14, 2688, Note_on_c, 13, 67, 96
14, 2688, Note_on_c, 13, 74, 96
14, 2688, Note_on_c, 13, 47, 96
14, 2772, Note_off_c, 13, 67, 0
14, 2772, Note_off_c, 13, 74, 0
14, 2772, Note_off_c, 13, 47, 0
14, 2784, Note_on_c, 13, 67, 96
14, 2784, Note_on_c, 13, 72, 96
14, 2784, Note_on_c, 13, 45, 96
14, 2826, Note_off_c, 13, 45, 0
14, 2832, Note_on_c, 13, 43, 96
14, 2868, Note_off_c, 13, 67, 0
14, 2868, Note_off_c, 13, 72, 0
14, 2874, Note_off_c, 13, 43, 0
14, 2880, Note_on_c, 13, 67, 96
14, 2880, Note_on_c, 13, 72, 96
14, 2880, Note_on_c, 13, 41, 96
14, 2922, Note_off_c, 13, 41, 0
14, 2928, Note_on_c, 13, 40, 96
14, 2964, Note_off_c, 13, 67, 0
14, 2964, Note_off_c, 13, 72, 0
14, 2970, Note_off_c, 13, 40, 0
14, 2976, Note_on_c, 13, 65, 96
14, 2976, Note_on_c, 13, 72, 96
14, 2976, Note_on_c, 13, 45, 96
14, 3018, Note_off_c, 13, 45, 0
14, 3024, Note_on_c, 13, 41, 96
14, 3060, Note_off_c, 13, 65, 0
14, 3060, Note_off_c, 13, 72, 0
14, 3066, Note_off_c, 13, 41, 0
14, 3072, Note_on_c, 13, 62, 96
14, 3072, Note_on_c, 13, 70, 96
14, 3072, Note_on_c, 13, 43, 96
14, 3156, Note_off_c, 13, 62, 0
14, 3156, Note_off_c, 13, 70, 0
14, 3156, Note_off_c, 13, 43, 0
14, 3168, Note_on_c, 13, 65, 96
14, 3168, Note_on_c, 13, 70, 96
14, 3168, Note_on_c, 13, 43, 96
14, 3252, Note_off_c, 13, 65, 0
14, 3252, Note_off_c, 13, 70, 0
14, 3252, Note_off_c, 13, 43, 0
14, 3264, Note_on_c, 13, 67, 96
14, 3264, Note_on_c, 13, 76, 96
14, 3264, Note_on_c, 13, 36, 96
14, 3348, Note_off_c, 13, 67, 0
14, 3348, Note_off_c, 13, 76, 0
14, 3348, Note_off_c, 13, 36, 0
14, 3360, Note_on_c, 13, 60, 96
14, 3360, Note_on_c, 13, 48, 96
14, 3402, Note_off_c, 13, 60, 0
14, 3402, Note_off_c, 13, 48, 0
14, 3408, Note_on_c, 13, 58, 96
14, 3408, Note_on_c, 13, 46, 96
14, 3450, Note_off_c, 13, 58, 0
14, 3450, Note_off_c, 13, 46, 0
14, 3456, Note_on_c, 13, 57, 96
14, 3456, Note_on_c, 13, 45, 96
14, 3498, Note_off_c, 13, 57, 0
14, 3498, Note_off_c, 13, 45, 0
14, 3504, Note_on_c, 13, 55, 96
14, 3504, Note_on_c, 13, 43, 96
14, 3546, Note_off_c, 13, 55, 0
14, 3546, Note_off_c, 13, 43, 0
14, 3552, Note_on_c, 13, 60, 96
14, 3552, Note_on_c, 13, 69, 96
14, 3552, Note_on_c, 13, 41, 96
14, 3636, Note_off_c, 13, 60, 0
14, 3636, Note_off_c, 13, 69, 0
14, 3636, Note_off_c, 13, 41, 0
14, 3648, Note_on_c, 13, 63, 96
14, 3648, Note_on_c, 13, 72, 96
14, 3648, Note_on_c, 13, 57, 96
14, 3732, Note_off_c, 13, 63, 0
14, 3732, Note_off_c, 13, 72, 0
14, 3732, Note_off_c, 13, 57, 0
14, 3744, Note_on_c, 13, 65, 96
14, 3744, Note_on_c, 13, 74, 96
14, 3744, Note_on_c, 13, 58, 96
14, 3828, Note_off_c, 13, 65, 0
14, 3828, Note_off_c, 13, 74, 0
14, 3828, Note_off_c, 13, 58, 0
14, 3840, Note_on_c, 13, 69, 96
14, 3840, Note_on_c, 13, 75, 96
14, 3840, Note_on_c, 13, 60, 96
14, 3924, Note_off_c, 13, 69, 0
14, 3924, Note_off_c, 13, 75, 0
14, 3924, Note_off_c, 13, 60, 0
14, 3936, Note_on_c, 13, 70, 96
14, 3936, Note_on_c, 13, 75, 96
14, 3936, Note_on_c, 13, 63, 96
14, 4020, Note_off_c, 13, 70, 0
14, 4020, Note_off_c, 13, 75, 0
14, 4020, Note_off_c, 13, 63, 0
14, 4032, Note_on_c, 13, 62, 96
14, 4032, Note_on_c, 13, 70, 96
14, 4032, Note_on_c, 13, 62, 96
14, 4116, Note_off_c, 13, 62, 0
14, 4116, Note_off_c, 13, 70, 0
14, 4116, Note_off_c, 13, 62, 0
14, 4128, Note_on_c, 13, 69, 96
14, 4128, Note_on_c, 13, 75, 96
14, 4128, Note_on_c, 13, 60, 96
14, 4212, Note_off_c, 13, 69, 0
14, 4212, Note_off_c, 13, 75, 0
14, 4212, Note_off_c, 13, 60, 0
14, 4224, Note_on_c, 13, 63, 96
14, 4224, Note_on_c, 13, 72, 96
14, 4224, Note_on_c, 13, 58, 96
14, 4266, Note_off_c, 13, 58, 0
14, 4272, Note_on_c, 13, 57, 96
14, 4308, Note_off_c, 13, 63, 0
14, 4308, Note_off_c, 13, 72, 0
14, 4314, Note_off_c, 13, 57, 0
14, 4320, Note_on_c, 13, 65, 96
14, 4320, Note_on_c, 13, 74, 96
14, 4320, Note_on_c, 13, 58, 96
14, 4404, Note_off_c, 13, 65, 0
14, 4404, Note_off_c, 13, 74, 0
14, 4404, Note_off_c, 13, 58, 0
14, 4416, Note_on_c, 13, 65, 96
14, 4416, Note_on_c, 13, 72, 96
14, 4416, Note_on_c, 13, 57, 96
14, 4500, Note_off_c, 13, 65, 0
14, 4500, Note_off_c, 13, 72, 0
14, 4500, Note_off_c, 13, 57, 0
14, 4512, Note_on_c, 13, 65, 96
14, 4512, Note_on_c, 13, 70, 96
14, 4512, Note_on_c, 13, 58, 96
14, 4554, Note_off_c, 13, 58, 0
14, 4560, Note_on_c, 13, 57, 96
14, 4596, Note_off_c, 13, 65, 0
14, 4596, Note_off_c, 13, 70, 0
14, 4602, Note_off_c, 13, 57, 0
14, 4608, Note_on_c, 13, 60, 96
14, 4608, Note_on_c, 13, 69, 96
14, 4608, Note_on_c, 13, 55, 96
14, 4650, Note_off_c, 13, 55, 0
14, 4656, Note_on_c, 13, 53, 96
14, 4692, Note_off_c, 13, 60, 0
14, 4692, Note_off_c, 13, 69, 0
14, 4698, Note_off_c, 13, 53, 0
14, 4704, Note_on_c, 13, 67, 96
14, 4704, Note_on_c, 13, 72, 96
14, 4704, Note_on_c, 13, 53, 96
14, 4714, Note_off_c, 13, 53, 0
14, 4716, Note_on_c, 13, 52, 96
14, 4726, Note_off_c, 13, 52, 0
14, 4728, Note_on_c, 13, 53, 96
14, 4738, Note_off_c, 13, 53, 0
14, 4740, Note_on_c, 13, 52, 96
14, 4750, Note_off_c, 13, 52, 0
14, 4752, Note_on_c, 13, 53, 96
14, 4762, Note_off_c, 13, 53, 0
14, 4764, Note_on_c, 13, 52, 96
14, 4774, Note_off_c, 13, 52, 0
14, 4776, Note_on_c, 13, 53, 96
14, 4786, Note_off_c, 13, 53, 0
14, 4788, Note_off_c, 13, 67, 0
14, 4788, Note_off_c, 13, 72, 0
14, 4788, Note_on_c, 13, 52, 96
14, 4798, Note_off_c, 13, 52, 0
14, 4800, Note_on_c, 13, 60, 96
14, 4800, Note_on_c, 13, 67, 96
14, 4800, Note_on_c, 13, 53, 96
14, 4810, Note_off_c, 13, 53, 0
14, 4812, Note_on_c, 13, 52, 96
14, 4822, Note_off_c, 13, 52, 0
14, 4824, Note_on_c, 13, 53, 96
14, 4834, Note_off_c, 13, 53, 0
14, 4836, Note_on_c, 13, 52, 96
14, 4846, Note_off_c, 13, 52, 0
14, 4848, Note_on_c, 13, 53, 96
14, 4858, Note_off_c, 13, 53, 0
14, 4860, Note_on_c, 13, 52, 96
14, 4870, Note_off_c, 13, 52, 0
14, 4872, Note_on_c, 13, 53, 96
14, 4882, Note_off_c, 13, 53, 0
14, 4884, Note_off_c, 13, 60, 0
14, 4884, Note_off_c, 13, 67, 0
14, 4884, Note_on_c, 13, 52, 96
14, 4894, Note_off_c, 13, 52, 0
14, 4896, Note_on_c, 13, 60, 96
14, 4896, Note_on_c, 13, 69, 96
14, 4896, Note_on_c, 13, 53, 96
14, 4980, Note_off_c, 13, 60, 0
14, 4980, Note_off_c, 13, 69, 0
14, 4980, Note_off_c, 13, 53, 0
14, 4992, Note_on_c, 13, 64, 96
14, 4992, Note_on_c, 13, 70, 96
14, 4992, Note_on_c, 13, 55, 96
14, 5076, Note_off_c, 13, 64, 0
14, 5076, Note_off_c, 13, 70, 0
14, 5076, Note_off_c, 13, 55, 0
14, 5088, Note_on_c, 13, 62, 96
14, 5088, Note_on_c, 13, 69, 96
14, 5088, Note_on_c, 13, 53, 96
14, 5130, Note_off_c, 13, 53, 0
14, 5136, Note_on_c, 13, 52, 96
14, 5172, Note_off_c, 13, 62, 0
14, 5172, Note_off_c, 13, 69, 0
14, 5178, Note_off_c, 13, 52, 0
14, 5184, Note_on_c, 13, 69, 96
14, 5184, Note_on_c, 13, 74, 96
14, 5184, Note_on_c, 13, 53, 96
14, 5268, Note_off_c, 13, 69, 0
14, 5268, Note_off_c, 13, 74, 0
14, 5268, Note_off_c, 13, 53, 0
14, 5280, Note_on_c, 13, 67, 96
14, 5280, Note_on_c, 13, 72, 96
14, 5280, Note_on_c, 13, 52, 96
14, 5364, Note_off_c, 13, 67, 0
14, 5364, Note_off_c, 13, 72, 0
14, 5364, Note_off_c, 13, 52, 0
14, 5376, Note_on_c, 13, 60, 96
14, 5376, Note_on_c, 13, 69, 96
14, 5376, Note_on_c, 13, 53, 96
14, 5418, Note_off_c, 13, 53, 0
14, 5424, Note_on_c, 13, 52, 96
14, 5460, Note_off_c, 13, 60, 0
14, 5460, Note_off_c, 13, 69, 0
14, 5466, Note_off_c, 13, 52, 0
14, 5472, Note_on_c, 13, 64, 96
14, 5472, Note_on_c, 13, 72, 96
14, 5472, Note_on_c, 13, 50, 96
14, 5514, Note_off_c, 13, 50, 0
14, 5520, Note_on_c, 13, 48, 96
14, 5556, Note_off_c, 13, 64, 0
14, 5556, Note_off_c, 13, 72, 0
14, 5562, Note_off_c, 13, 48, 0
14, 5568, Note_on_c, 13, 60, 96
14, 5568, Note_on_c, 13, 69, 96
14, 5568, Note_on_c, 13, 53, 96
14, 5652, Note_off_c, 13, 60, 0
14, 5652, Note_off_c, 13, 69, 0
14, 5652, Note_off_c, 13, 53, 0
14, 5664, Note_on_c, 13, 69, 96
14, 5664, Note_on_c, 13, 72, 96
14, 5664, Note_on_c, 13, 52, 96
14, 5706, Note_off_c, 13, 52, 0
14, 5712, Note_on_c, 13, 50, 96
14, 5748, Note_off_c, 13, 69, 0
14, 5748, Note_off_c, 13, 72, 0
14, 5754, Note_off_c, 13, 50, 0
14, 5760, Note_on_c, 13, 67, 96
14, 5760, Note_on_c, 13, 72, 96
14, 5760, Note_on_c, 13, 52, 96
14, 5844, Note_off_c, 13, 67, 0
14, 5844, Note_off_c, 13, 72, 0
14, 5844, Note_off_c, 13, 52, 0
14, 5856, Note_on_c, 13, 65, 96
14, 5856, Note_on_c, 13, 71, 96
14, 5856, Note_on_c, 13, 50, 96
14, 5940, Note_off_c, 13, 65, 0
14, 5940, Note_off_c, 13, 71, 0
14, 5940, Note_off_c, 13, 50, 0
14, 5952, Note_on_c, 13, 67, 96
14, 5952, Note_on_c, 13, 72, 96
14, 5952, Note_on_c, 13, 52, 96
14, 6036, Note_off_c, 13, 67, 0
14, 6036, Note_off_c, 13, 72, 0
14, 6036, Note_off_c, 13, 52, 0
14, 6048, Note_on_c, 13, 67, 96
14, 6048, Note_on_c, 13, 76, 96
14, 6048, Note_on_c, 13, 48, 96
14, 6132, Note_off_c, 13, 67, 0
14, 6132, Note_off_c, 13, 76, 0
14, 6132, Note_off_c, 13, 48, 0
14, 6144, Note_on_c, 13, 67, 96
14, 6144, Note_on_c, 13, 74, 96
14, 6144, Note_on_c, 13, 47, 96
14, 6228, Note_off_c, 13, 67, 0
14, 6228, Note_off_c, 13, 74, 0
14, 6228, Note_off_c, 13, 47, 0
14, 6240, Note_on_c, 13, 67, 96
14, 6240, Note_on_c, 13, 72, 96
14, 6240, Note_on_c, 13, 45, 96
14, 6282, Note_off_c, 13, 45, 0
14, 6288, Note_on_c, 13, 43, 96
14, 6324, Note_off_c, 13, 67, 0
14, 6324, Note_off_c, 13, 72, 0
14, 6330, Note_off_c, 13, 43, 0
14, 6336, Note_on_c, 13, 67, 96
14, 6336, Note_on_c, 13, 72, 96
14, 6336, Note_on_c, 13, 41, 96
14, 6378, Note_off_c, 13, 41, 0
14, 6384, Note_on_c, 13, 40, 96
14, 6420, Note_off_c, 13, 67, 0
14, 6420, Note_off_c, 13, 72, 0
14, 6426, Note_off_c, 13, 40, 0
14, 6432, Note_on_c, 13, 65, 96
14, 6432, Note_on_c, 13, 72, 96
14, 6432, Note_on_c, 13, 45, 96
14, 6474, Note_off_c, 13, 45, 0
14, 6480, Note_on_c, 13, 41, 96
14, 6516, Note_off_c, 13, 65, 0
14, 6516, Note_off_c, 13, 72, 0
14, 6522, Note_off_c, 13, 41, 0
14, 6528, Note_on_c, 13, 62, 96
14, 6528, Note_on_c, 13, 70, 96
14, 6528, Note_on_c, 13, 43, 96
14, 6612, Note_off_c, 13, 62, 0
14, 6612, Note_off_c, 13, 70, 0
14, 6612, Note_off_c, 13, 43, 0
14, 6624, Note_on_c, 13, 65, 96
14, 6624, Note_on_c, 13, 70, 96
14, 6624, Note_on_c, 13, 43, 96
14, 6708, Note_off_c, 13, 65, 0
14, 6708, Note_off_c, 13, 70, 0
14, 6708, Note_off_c, 13, 43, 0
14, 6720, Note_on_c, 13, 67, 96
14, 6720, Note_on_c, 13, 76, 96
14, 6720, Note_on_c, 13, 36, 96
14, 6804, Note_off_c, 13, 36, 0
14, 6816, Note_on_c, 13, 48, 96
14, 6900, Note_off_c, 13, 48, 0
14, 6912, Note_on_c, 13, 50, 96
14, 6996, Note_off_c, 13, 67, 0
14, 6996, Note_off_c, 13, 76, 0
14, 6996, Note_off_c, 13, 50, 0
14, 7008, Note_on_c, 13, 67, 96
14, 7008, Note_on_c, 13, 72, 96
14, 7008, Note_on_c, 13, 52, 96
14, 7092, Note_off_c, 13, 67, 0
14, 7092, Note_off_c, 13, 72, 0
14, 7104, Note_on_c, 13, 67, 96
14, 7104, Note_on_c, 13, 70, 96
14, 7188, Note_off_c, 13, 52, 0
14, 7188, Note_off_c, 13, 67, 0
14, 7188, Note_off_c, 13, 70, 0
14, 7200, Note_on_c, 13, 60, 96
14, 7200, Note_on_c, 13, 69, 96
14, 7200, Note_on_c, 13, 53, 96
14, 7284, Note_off_c, 13, 60, 0
14, 7284, Note_off_c, 13, 69, 0
14, 7284, Note_off_c, 13, 53, 0
14, 7296, Note_on_c, 13, 64, 96
14, 7296, Note_on_c, 13, 70, 96
14, 7296, Note_on_c, 13, 55, 96
14, 7380, Note_off_c, 13, 64, 0
14, 7380, Note_off_c, 13, 70, 0
14, 7380, Note_off_c, 13, 55, 0
14, 7392, Note_on_c, 13, 64, 96
14, 7392, Note_on_c, 13, 72, 96
14, 7392, Note_on_c, 13, 58, 96
14, 7476, Note_off_c, 13, 64, 0
14, 7476, Note_off_c, 13, 72, 0
14, 7476, Note_off_c, 13, 58, 0
14, 7488, Note_on_c, 13, 65, 96
14, 7488, Note_on_c, 13, 72, 96
14, 7488, Note_on_c, 13, 57, 96
14, 7572, Note_off_c, 13, 65, 0
14, 7572, Note_off_c, 13, 72, 0
14, 7572, Note_off_c, 13, 57, 0
14, 7584, Note_on_c, 13, 64, 96
14, 7584, Note_on_c, 13, 70, 96
14, 7584, Note_on_c, 13, 55, 96
14, 7668, Note_off_c, 13, 64, 0
14, 7668, Note_off_c, 13, 70, 0
14, 7668, Note_off_c, 13, 55, 0
14, 7680, Note_on_c, 13, 62, 96
14, 7680, Note_on_c, 13, 70, 96
14, 7680, Note_on_c, 13, 53, 96
14, 7722, Note_off_c, 13, 53, 0
14, 7728, Note_on_c, 13, 52, 96
14, 7764, Note_off_c, 13, 62, 0
14, 7764, Note_off_c, 13, 70, 0
14, 7770, Note_off_c, 13, 52, 0
14, 7776, Note_on_c, 13, 60, 96
14, 7776, Note_on_c, 13, 69, 96
14, 7776, Note_on_c, 13, 53, 96
14, 7860, Note_off_c, 13, 60, 0
14, 7860, Note_off_c, 13, 69, 0
14, 7860, Note_off_c, 13, 53, 0
14, 7872, Note_on_c, 13, 60, 96
14, 7872, Note_on_c, 13, 67, 96
14, 7872, Note_on_c, 13, 52, 96
14, 7956, Note_off_c, 13, 60, 0
14, 7956, Note_off_c, 13, 67, 0
14, 7956, Note_off_c, 13, 52, 0
14, 7968, Note_on_c, 13, 65, 96
14, 7968, Note_on_c, 13, 72, 96
14, 7968, Note_on_c, 13, 53, 96
14, 8010, Note_off_c, 13, 53, 0
14, 8016, Note_on_c, 13, 52, 96
14, 8052, Note_off_c, 13, 65, 0
14, 8052, Note_off_c, 13, 72, 0
14, 8058, Note_off_c, 13, 52, 0
14, 8064, Note_on_c, 13, 67, 96
14, 8064, Note_on_c, 13, 76, 96
14, 8064, Note_on_c, 13, 50, 96
14, 8106, Note_off_c, 13, 50, 0
14, 8112, Note_on_c, 13, 48, 96
14, 8148, Note_off_c, 13, 67, 0
14, 8148, Note_off_c, 13, 76, 0
14, 8154, Note_off_c, 13, 48, 0
14, 8160, Note_on_c, 13, 67, 96
14, 8160, Note_on_c, 13, 74, 96
14, 8160, Note_on_c, 13, 48, 96
14, 8170, Note_off_c, 13, 48, 0
14, 8172, Note_on_c, 13, 47, 96
14, 8182, Note_off_c, 13, 47, 0
14, 8184, Note_on_c, 13, 48, 96
14, 8194, Note_off_c, 13, 48, 0
14, 8196, Note_on_c, 13, 47, 96
14, 8206, Note_off_c, 13, 47, 0
14, 8208, Note_on_c, 13, 48, 96
14, 8218, Note_off_c, 13, 48, 0
14, 8220, Note_on_c, 13, 47, 96
14, 8230, Note_off_c, 13, 47, 0
14, 8232, Note_on_c, 13, 48, 96
14, 8242, Note_off_c, 13, 48, 0
14, 8244, Note_off_c, 13, 67, 0
14, 8244, Note_off_c, 13, 74, 0
14, 8244, Note_on_c, 13, 47, 96
14, 8254, Note_off_c, 13, 47, 0
14, 8256, Note_on_c, 13, 62, 96
14, 8256, Note_on_c, 13, 71, 96
14, 8256, Note_on_c, 13, 48, 96
14, 8266, Note_off_c, 13, 48, 0
14, 8268, Note_on_c, 13, 47, 96
14, 8278, Note_off_c, 13, 47, 0
14, 8280, Note_on_c, 13, 48, 96
14, 8290, Note_off_c, 13, 48, 0
14, 8292, Note_on_c, 13, 47, 96
14, 8302, Note_off_c, 13, 47, 0
14, 8304, Note_on_c, 13, 48, 96
14, 8314, Note_off_c, 13, 48, 0
14, 8316, Note_on_c, 13, 47, 96
14, 8326, Note_off_c, 13, 47, 0
14, 8328, Note_on_c, 13, 48, 96
14, 8338, Note_off_c, 13, 48, 0
14, 8340, Note_off_c, 13, 62, 0
14, 8340, Note_off_c, 13, 71, 0
14, 8340, Note_on_c, 13, 47, 96
14, 8350, Note_off_c, 13, 47, 0
14, 8352, Note_on_c, 13, 67, 96
14, 8352, Note_on_c, 13, 76, 96
14, 8352, Note_on_c, 13, 48, 96
14, 8436, Note_off_c, 13, 67, 0
14, 8436, Note_off_c, 13, 76, 0
14, 8436, Note_off_c, 13, 48, 0
14, 8448, Note_on_c, 13, 71, 96
14, 8448, Note_on_c, 13, 77, 96
14, 8448, Note_on_c, 13, 50, 96
14, 8532, Note_off_c, 13, 71, 0
14, 8532, Note_off_c, 13, 77, 0
14, 8532, Note_off_c, 13, 50, 0
14, 8544, Note_on_c, 13, 69, 96
14, 8544, Note_on_c, 13, 76, 96
14, 8544, Note_on_c, 13, 48, 96
14, 8586, Note_off_c, 13, 48, 0
14, 8592, Note_on_c, 13, 47, 96
14, 8628, Note_off_c, 13, 69, 0
14, 8628, Note_off_c, 13, 76, 0
14, 8634, Note_off_c, 13, 47, 0
14, 8640, Note_on_c, 13, 69, 96
14, 8640, Note_on_c, 13, 72, 96
14, 8640, Note_on_c, 13, 48, 96
14, 8724, Note_off_c, 13, 69, 0
14, 8724, Note_off_c, 13, 72, 0
14, 8724, Note_off_c, 13, 48, 0
14, 8736, Note_on_c, 13, 67, 96
14, 8736, Note_on_c, 13, 74, 96
14, 8736, Note_on_c, 13, 47, 96
14, 8820, Note_off_c, 13, 67, 0
14, 8820, Note_off_c, 13, 74, 0
14, 8820, Note_off_c, 13, 47, 0
14, 8832, Note_on_c, 13, 67, 96
14, 8832, Note_on_c, 13, 76, 96
14, 8832, Note_on_c, 13, 48, 96
14, 8874, Note_off_c, 13, 48, 0
14, 8880, Note_on_c, 13, 47, 96
14, 8916, Note_off_c, 13, 67, 0
14, 8916, Note_off_c, 13, 76, 0
14, 8922, Note_off_c, 13, 47, 0
14, 8928, Note_on_c, 13, 62, 96
14, 8928, Note_on_c, 13, 71, 96
14, 8928, Note_on_c, 13, 45, 96
14, 8970, Note_off_c, 13, 45, 0
14, 8976, Note_on_c, 13, 43, 96
14, 9012, Note_off_c, 13, 62, 0
14, 9012, Note_off_c, 13, 71, 0
14, 9018, Note_off_c, 13, 43, 0
14, 9024, Note_on_c, 13, 67, 96
14, 9024, Note_on_c, 13, 76, 96
14, 9024, Note_on_c, 13, 48, 96
14, 9108, Note_off_c, 13, 67, 0
14, 9108, Note_off_c, 13, 76, 0
14, 9108, Note_off_c, 13, 48, 0
14, 9120, Note_on_c, 13, 65, 96
14, 9120, Note_on_c, 13, 74, 96
14, 9120, Note_on_c, 13, 46, 96
14, 9162, Note_off_c, 13, 46, 0
14, 9168, Note_on_c, 13, 45, 96
14, 9204, Note_off_c, 13, 65, 0
14, 9204, Note_off_c, 13, 74, 0
14, 9210, Note_off_c, 13, 45, 0
14, 9216, Note_on_c, 13, 65, 96
14, 9216, Note_on_c, 13, 74, 96
14, 9216, Note_on_c, 13, 43, 96
14, 9258, Note_off_c, 13, 43, 0
14, 9264, Note_on_c, 13, 41, 96
14, 9300, Note_off_c, 13, 65, 0
14, 9300, Note_off_c, 13, 74, 0
14, 9306, Note_off_c, 13, 41, 0
14, 9312, Note_on_c, 13, 67, 96
14, 9312, Note_on_c, 13, 72, 96
14, 9312, Note_on_c, 13, 40, 96
14, 9396, Note_off_c, 13, 67, 0
14, 9396, Note_off_c, 13, 72, 0
14, 9396, Note_off_c, 13, 40, 0
14, 9408, Note_on_c, 13, 60, 96
14, 9408, Note_on_c, 13, 69, 96
14, 9408, Note_on_c, 13, 41, 96
14, 9450, Note_off_c, 13, 41, 0
14, 9456, Note_on_c, 13, 40, 96
14, 9492, Note_off_c, 13, 60, 0
14, 9492, Note_off_c, 13, 69, 0
14, 9498, Note_off_c, 13, 40, 0
14, 9504, Note_on_c, 13, 69, 96
14, 9504, Note_on_c, 13, 77, 96
14, 9504, Note_on_c, 13, 38, 96
14, 9546, Note_off_c, 13, 38, 0
14, 9552, Note_on_c, 13, 40, 96
14, 9588, Note_off_c, 13, 69, 0
14, 9588, Note_off_c, 13, 77, 0
14, 9594, Note_off_c, 13, 40, 0
14, 9600, Note_on_c, 13, 67, 96
14, 9600, Note_on_c, 13, 76, 96
14, 9600, Note_on_c, 13, 36, 96
14, 9684, Note_off_c, 13, 67, 0
14, 9684, Note_off_c, 13, 76, 0
14, 9684, Note_off_c, 13, 36, 0
14, 9696, Note_on_c, 13, 69, 96
14, 9696, Note_on_c, 13, 77, 96
14, 9696, Note_on_c, 13, 48, 96
14, 9738, Note_off_c, 13, 48, 0
14, 9744, Note_on_c, 13, 50, 96
14, 9780, Note_off_c, 13, 69, 0
14, 9780, Note_off_c, 13, 77, 0
14, 9786, Note_off_c, 13, 50, 0
14, 9792, Note_on_c, 13, 72, 96
14, 9792, Note_on_c, 13, 79, 96
14, 9792, Note_on_c, 13, 52, 96
14, 9834, Note_off_c, 13, 52, 0
14, 9840, Note_on_c, 13, 48, 96
14, 9876, Note_off_c, 13, 72, 0
14, 9876, Note_off_c, 13, 79, 0
14, 9882, Note_off_c, 13, 48, 0
14, 9888, Note_on_c, 13, 69, 96
14, 9888, Note_on_c, 13, 77, 96
14, 9888, Note_on_c, 13, 50, 96
14, 9930, Note_off_c, 13, 50, 0
14, 9936, Note_on_c, 13, 46, 96
14, 9972, Note_off_c, 13, 69, 0
14, 9972, Note_off_c, 13, 77, 0
14, 9978, Note_off_c, 13, 46, 0
14, 9984, Note_on_c, 13, 67, 96
14, 9984, Note_on_c, 13, 76, 96
14, 9984, Note_on_c, 13, 48, 96
14, 10068, Note_off_c, 13, 67, 0
14, 10068, Note_off_c, 13, 76, 0
14, 10068, Note_off_c, 13, 48, 0
14, 10080, Note_on_c, 13, 64, 96
14, 10080, Note_on_c, 13, 67, 96
14, 10080, Note_on_c, 13, 36, 96
14, 10164, Note_off_c, 13, 64, 0
14, 10164, Note_off_c, 13, 67, 0
14, 10164, Note_off_c, 13, 36, 0
14, 10176, Note_on_c, 13, 60, 96
14, 10176, Note_on_c, 13, 69, 96
14, 10176, Note_on_c, 13, 41, 96
14, 10218, Note_off_c, 13, 41, 0
14, 10224, Note_on_c, 13, 43, 96
14, 10266, Note_off_c, 13, 43, 0
14, 10272, Note_on_c, 13, 45, 96
14, 10314, Note_off_c, 13, 45, 0
14, 10320, Note_on_c, 13, 46, 96
14, 10362, Note_off_c, 13, 46, 0
14, 10368, Note_on_c, 13, 48, 96
14, 10410, Note_off_c, 13, 48, 0
14, 10416, Note_on_c, 13, 50, 96
14, 10452, Note_off_c, 13, 60, 0
14, 10452, Note_off_c, 13, 69, 0
14, 10458, Note_off_c, 13, 50, 0
14, 10464, Note_on_c, 13, 67, 96
14, 10464, Note_on_c, 13, 72, 96
14, 10464, Note_on_c, 13, 52, 96
14, 10548, Note_off_c, 13, 67, 0
14, 10548, Note_off_c, 13, 72, 0
14, 10560, Note_on_c, 13, 67, 96
14, 10560, Note_on_c, 13, 70, 96
14, 10644, Note_off_c, 13, 52, 0
14, 10644, Note_off_c, 13, 67, 0
14, 10644, Note_off_c, 13, 70, 0
14, 10656, Note_on_c, 13, 60, 96
14, 10656, Note_on_c, 13, 69, 96
14, 10656, Note_on_c, 13, 53, 96
14, 10740, Note_off_c, 13, 60, 0
14, 10740, Note_off_c, 13, 69, 0
14, 10740, Note_off_c, 13, 53, 0
14, 10752, Note_on_c, 13, 64, 96
14, 10752, Note_on_c, 13, 70, 96
14, 10752, Note_on_c, 13, 55, 96
14, 10836, Note_off_c, 13, 64, 0
14, 10836, Note_off_c, 13, 70, 0
14, 10836, Note_off_c, 13, 55, 0
14, 10848, Note_on_c, 13, 64, 96
14, 10848, Note_on_c, 13, 72, 96
14, 10848, Note_on_c, 13, 58, 96
14, 10932, Note_off_c, 13, 64, 0
14, 10932, Note_off_c, 13, 72, 0
14, 10932, Note_off_c, 13, 58, 0
14, 10944, Note_on_c, 13, 65, 96
14, 10944, Note_on_c, 13, 72, 96
14, 10944, Note_on_c, 13, 57, 96
14, 11028, Note_off_c, 13, 65, 0
14, 11028, Note_off_c, 13, 72, 0
14, 11028, Note_off_c, 13, 57, 0
14, 11040, Note_on_c, 13, 64, 96
14, 11040, Note_on_c, 13, 70, 96
14, 11040, Note_on_c, 13, 55, 96
14, 11124, Note_off_c, 13, 64, 0
14, 11124, Note_off_c, 13, 70, 0
14, 11124, Note_off_c, 13, 55, 0
14, 11136, Note_on_c, 13, 62, 96
14, 11136, Note_on_c, 13, 70, 96
14, 11136, Note_on_c, 13, 53, 96
14, 11178, Note_off_c, 13, 53, 0
14, 11184, Note_on_c, 13, 52, 96
14, 11220, Note_off_c, 13, 62, 0
14, 11220, Note_off_c, 13, 70, 0
14, 11226, Note_off_c, 13, 52, 0
14, 11232, Note_on_c, 13, 60, 96
14, 11232, Note_on_c, 13, 69, 96
14, 11232, Note_on_c, 13, 53, 96
14, 11316, Note_off_c, 13, 60, 0
14, 11316, Note_off_c, 13, 69, 0
14, 11316, Note_off_c, 13, 53, 0
14, 11328, Note_on_c, 13, 60, 96
14, 11328, Note_on_c, 13, 67, 96
14, 11328, Note_on_c, 13, 52, 96
14, 11412, Note_off_c, 13, 60, 0
14, 11412, Note_off_c, 13, 67, 0
14, 11412, Note_off_c, 13, 52, 0
14, 11424, Note_on_c, 13, 65, 96
14, 11424, Note_on_c, 13, 72, 96
14, 11424, Note_on_c, 13, 53, 96
14, 11466, Note_off_c, 13, 53, 0
14, 11472, Note_on_c, 13, 52, 96
14, 11508, Note_off_c, 13, 65, 0
14, 11508, Note_off_c, 13, 72, 0
14, 11514, Note_off_c, 13, 52, 0
14, 11520, Note_on_c, 13, 67, 96
14, 11520, Note_on_c, 13, 76, 96
14, 11520, Note_on_c, 13, 50, 96
14, 11562, Note_off_c, 13, 50, 0
14, 11568, Note_on_c, 13, 48, 96
14, 11604, Note_off_c, 13, 67, 0
14, 11604, Note_off_c, 13, 76, 0
14, 11610, Note_off_c, 13, 48, 0
14, 11616, Note_on_c, 13, 67, 96
14, 11616, Note_on_c, 13, 74, 96
14, 11616, Note_on_c, 13, 48, 96
14, 11626, Note_off_c, 13, 48, 0
14, 11628, Note_on_c, 13, 47, 96
14, 11638, Note_off_c, 13, 47, 0
14, 11640, Note_on_c, 13, 48, 96
14, 11650, Note_off_c, 13, 48, 0
14, 11652, Note_on_c, 13, 47, 96
14, 11662, Note_off_c, 13, 47, 0
14, 11664, Note_on_c, 13, 48, 96
14, 11674, Note_off_c, 13, 48, 0
14, 11676, Note_on_c, 13, 47, 96
14, 11686, Note_off_c, 13, 47, 0
14, 11688, Note_on_c, 13, 48, 96
14, 11698, Note_off_c, 13, 48, 0
14, 11700, Note_off_c, 13, 67, 0
14, 11700, Note_off_c, 13, 74, 0
14, 11700, Note_on_c, 13, 47, 96
14, 11710, Note_off_c, 13, 47, 0
14, 11712, Note_on_c, 13, 62, 96
14, 11712, Note_on_c, 13, 71, 96
14, 11712, Note_on_c, 13, 48, 96
14, 11722, Note_off_c, 13, 48, 0
14, 11724, Note_on_c, 13, 47, 96
14, 11734, Note_off_c, 13, 47, 0
14, 11736, Note_on_c, 13, 48, 96
14, 11746, Note_off_c, 13, 48, 0
14, 11748, Note_on_c, 13, 47, 96
14, 11758, Note_off_c, 13, 47, 0
14, 11760, Note_on_c, 13, 48, 96
14, 11770, Note_off_c, 13, 48, 0
14, 11772, Note_on_c, 13, 47, 96
14, 11782, Note_off_c, 13, 47, 0
14, 11784, Note_on_c, 13, 48, 96
14, 11794, Note_off_c, 13, 48, 0
14, 11796, Note_off_c, 13, 62, 0
14, 11796, Note_off_c, 13, 71, 0
14, 11796, Note_on_c, 13, 47, 96
14, 11806, Note_off_c, 13, 47, 0
14, 11808, Note_on_c, 13, 67, 96
14, 11808, Note_on_c, 13, 76, 96
14, 11808, Note_on_c, 13, 48, 96
14, 11892, Note_off_c, 13, 67, 0
14, 11892, Note_off_c, 13, 76, 0
14, 11892, Note_off_c, 13, 48, 0
14, 11904, Note_on_c, 13, 71, 96
14, 11904, Note_on_c, 13, 77, 96
14, 11904, Note_on_c, 13, 50, 96
14, 11988, Note_off_c, 13, 71, 0
14, 11988, Note_off_c, 13, 77, 0
14, 11988, Note_off_c, 13, 50, 0
14, 12000, Note_on_c, 13, 69, 96
14, 12000, Note_on_c, 13, 76, 96
14, 12000, Note_on_c, 13, 48, 96
14, 12042, Note_off_c, 13, 48, 0
14, 12048, Note_on_c, 13, 47, 96
14, 12084, Note_off_c, 13, 69, 0
14, 12084, Note_off_c, 13, 76, 0
14, 12090, Note_off_c, 13, 47, 0
14, 12096, Note_on_c, 13, 69, 96
14, 12096, Note_on_c, 13, 72, 96
14, 12096, Note_on_c, 13, 48, 96
14, 12180, Note_off_c, 13, 69, 0
14, 12180, Note_off_c, 13, 72, 0
14, 12180, Note_off_c, 13, 48, 0
14, 12192, Note_on_c, 13, 67, 96
14, 12192, Note_on_c, 13, 74, 96
14, 12192, Note_on_c, 13, 47, 96
14, 12276, Note_off_c, 13, 67, 0
14, 12276, Note_off_c, 13, 74, 0
14, 12276, Note_off_c, 13, 47, 0
14, 12288, Note_on_c, 13, 67, 96
14, 12288, Note_on_c, 13, 76, 96
14, 12288, Note_on_c, 13, 48, 96
14, 12330, Note_off_c, 13, 48, 0
14, 12336, Note_on_c, 13, 47, 96
14, 12372, Note_off_c, 13, 67, 0
14, 12372, Note_off_c, 13, 76, 0
14, 12378, Note_off_c, 13, 47, 0
14, 12384, Note_on_c, 13, 62, 96
14, 12384, Note_on_c, 13, 71, 96
14, 12384, Note_on_c, 13, 45, 96
14, 12426, Note_off_c, 13, 45, 0
14, 12432, Note_on_c, 13, 43, 96
14, 12468, Note_off_c, 13, 62, 0
14, 12468, Note_off_c, 13, 71, 0
14, 12474, Note_off_c, 13, 43, 0
14, 12480, Note_on_c, 13, 67, 96
14, 12480, Note_on_c, 13, 76, 96
14, 12480, Note_on_c, 13, 48, 96
14, 12564, Note_off_c, 13, 67, 0
14, 12564, Note_off_c, 13, 76, 0
14, 12564, Note_off_c, 13, 48, 0
14, 12576, Note_on_c, 13, 65, 96
14, 12576, Note_on_c, 13, 74, 96
14, 12576, Note_on_c, 13, 46, 96
14, 12618, Note_off_c, 13, 46, 0
14, 12624, Note_on_c, 13, 45, 96
14, 12660, Note_off_c, 13, 65, 0
14, 12660, Note_off_c, 13, 74, 0
14, 12666, Note_off_c, 13, 45, 0
14, 12672, Note_on_c, 13, 65, 96
14, 12672, Note_on_c, 13, 74, 96
14, 12672, Note_on_c, 13, 43, 96
14, 12714, Note_off_c, 13, 43, 0
14, 12720, Note_on_c, 13, 41, 96
14, 12756, Note_off_c, 13, 65, 0
14, 12756, Note_off_c, 13, 74, 0
14, 12762, Note_off_c, 13, 41, 0
14, 12768, Note_on_c, 13, 67, 96
14, 12768, Note_on_c, 13, 72, 96
14, 12768, Note_on_c, 13, 40, 96
14, 12852, Note_off_c, 13, 67, 0
14, 12852, Note_off_c, 13, 72, 0
14, 12852, Note_off_c, 13, 40, 0
14, 12864, Note_on_c, 13, 60, 96
14, 12864, Note_on_c, 13, 69, 96
14, 12864, Note_on_c, 13, 41, 96
14, 12906, Note_off_c, 13, 41, 0
14, 12912, Note_on_c, 13, 40, 96
14, 12948, Note_off_c, 13, 60, 0
14, 12948, Note_off_c, 13, 69, 0
14, 12954, Note_off_c, 13, 40, 0
14, 12960, Note_on_c, 13, 69, 96
14, 12960, Note_on_c, 13, 77, 96
14, 12960, Note_on_c, 13, 38, 96
14, 13002, Note_off_c, 13, 38, 0
14, 13008, Note_on_c, 13, 40, 96
14, 13044, Note_off_c, 13, 69, 0
14, 13044, Note_off_c, 13, 77, 0
14, 13050, Note_off_c, 13, 40, 0
14, 13056, Note_on_c, 13, 67, 96
14, 13056, Note_on_c, 13, 76, 96
14, 13056, Note_on_c, 13, 36, 96
14, 13140, Note_off_c, 13, 67, 0
14, 13140, Note_off_c, 13, 76, 0
14, 13140, Note_off_c, 13, 36, 0
14, 13152, Note_on_c, 13, 69, 96
14, 13152, Note_on_c, 13, 77, 96
14, 13152, Note_on_c, 13, 48, 96
14, 13194, Note_off_c, 13, 48, 0
14, 13200, Note_on_c, 13, 50, 96
14, 13236, Note_off_c, 13, 69, 0
14, 13236, Note_off_c, 13, 77, 0
14, 13242, Note_off_c, 13, 50, 0
14, 13248, Note_on_c, 13, 72, 96
14, 13248, Note_on_c, 13, 79, 96
14, 13248, Note_on_c, 13, 52, 96
14, 13290, Note_off_c, 13, 52, 0
14, 13296, Note_on_c, 13, 48, 96
14, 13332, Note_off_c, 13, 72, 0
14, 13332, Note_off_c, 13, 79, 0
14, 13338, Note_off_c, 13, 48, 0
14, 13344, Note_on_c, 13, 69, 96
14, 13344, Note_on_c, 13, 77, 96
14, 13344, Note_on_c, 13, 50, 96
14, 13386, Note_off_c, 13, 50, 0
14, 13392, Note_on_c, 13, 46, 96
14, 13428, Note_off_c, 13, 69, 0
14, 13428, Note_off_c, 13, 77, 0
14, 13434, Note_off_c, 13, 46, 0
14, 13440, Note_on_c, 13, 67, 96
14, 13440, Note_on_c, 13, 76, 96
14, 13440, Note_on_c, 13, 48, 96
14, 13524, Note_off_c, 13, 67, 0
14, 13524, Note_off_c, 13, 76, 0
14, 13524, Note_off_c, 13, 48, 0
14, 13536, Note_on_c, 13, 64, 96
14, 13536, Note_on_c, 13, 67, 96
14, 13536, Note_on_c, 13, 36, 96
14, 13620, Note_off_c, 13, 64, 0
14, 13620, Note_off_c, 13, 67, 0
14, 13620, Note_off_c, 13, 36, 0
14, 13632, Note_on_c, 13, 60, 96
14, 13632, Note_on_c, 13, 69, 96
14, 13632, Note_on_c, 13, 41, 96
14, 13908, Note_off_c, 13, 41, 0
14, 13908, Note_off_c, 13, 60, 0
14, 13908, Note_off_c, 13, 69, 0
14, 14112, Time_signature, 2, 2, 96, 8
14, 14208, Tempo, 500000
14, 17280, Tempo, 500000
14, 26784, Time_signature, 3, 2, 96, 8
14, 26880, Tempo, 428571
14, 26880, Note_on_c, 13, 65, 96
14, 26880, Note_on_c, 13, 72, 96
14, 26880, Note_on_c, 13, 57, 96
14, 26964, Note_off_c, 13, 65, 0
14, 26964, Note_off_c, 13, 72, 0
14, 26976, Note_on_c, 13, 63, 96
14, 26976, Note_on_c, 13, 72, 96
14, 27060, Note_off_c, 13, 57, 0
14, 27060, Note_off_c, 13, 63, 0
14, 27060, Note_off_c, 13, 72, 0
14, 27072, Note_on_c, 13, 65, 96
14, 27072, Note_on_c, 13, 74, 96
14, 27072, Note_on_c, 13, 58, 96
14, 27156, Note_off_c, 13, 65, 0
14, 27156, Note_off_c, 13, 74, 0
14, 27156, Note_off_c, 13, 58, 0
14, 27168, Note_on_c, 13, 69, 96
14, 27168, Note_on_c, 13, 75, 96
14, 27168, Note_on_c, 13, 60, 96
14, 27252, Note_off_c, 13, 69, 0
14, 27252, Note_off_c, 13, 75, 0
14, 27252, Note_off_c, 13, 60, 0
14, 27264, Note_on_c, 13, 70, 96
14, 27264, Note_on_c, 13, 75, 96
14, 27264, Note_on_c, 13, 63, 96
14, 27348, Note_off_c, 13, 70, 0
14, 27348, Note_off_c, 13, 75, 0
14, 27348, Note_off_c, 13, 63, 0
14, 27360, Note_on_c, 13, 62, 96
14, 27360, Note_on_c, 13, 70, 96
14, 27360, Note_on_c, 13, 62, 96
14, 27444, Note_off_c, 13, 62, 0
14, 27444, Note_off_c, 13, 70, 0
14, 27444, Note_off_c, 13, 62, 0
14, 27456, Note_on_c, 13, 69, 96
14, 27456, Note_on_c, 13, 75, 96
14, 27456, Note_on_c, 13, 60, 96
14, 27540, Note_off_c, 13, 69, 0
14, 27540, Note_off_c, 13, 75, 0
14, 27540, Note_off_c, 13, 60, 0
14, 27552, Note_on_c, 13, 63, 96
14, 27552, Note_on_c, 13, 72, 96
14, 27552, Note_on_c, 13, 58, 96
14, 27594, Note_off_c, 13, 58, 0
14, 27600, Note_on_c, 13, 57, 96
14, 27636, Note_off_c, 13, 63, 0
14, 27636, Note_off_c, 13, 72, 0
14, 27642, Note_off_c, 13, 57, 0
14, 27648, Note_on_c, 13, 65, 96
14, 27648, Note_on_c, 13, 74, 96
14, 27648, Note_on_c, 13, 58, 96
14, 27732, Note_off_c, 13, 65, 0
14, 27732, Note_off_c, 13, 74, 0
14, 27732, Note_off_c, 13, 58, 0
14, 27744, Note_on_c, 13, 65, 96
14, 27744, Note_on_c, 13, 72, 96
14, 27744, Note_on_c, 13, 57, 96
14, 27828, Note_off_c, 13, 65, 0
14, 27828, Note_off_c, 13, 72, 0
14, 27828, Note_off_c, 13, 57, 0
14, 27840, Note_on_c, 13, 65, 96
14, 27840, Note_on_c, 13, 70, 96
14, 27840, Note_on_c, 13, 58, 96
14, 27882, Note_off_c, 13, 58, 0
14, 27888, Note_on_c, 13, 57, 96
14, 27924, Note_off_c, 13, 65, 0
14, 27924, Note_off_c, 13, 70, 0
14, 27930, Note_off_c, 13, 57, 0
14, 27936, Note_on_c, 13, 60, 96
14, 27936, Note_on_c, 13, 69, 96
14, 27936, Note_on_c, 13, 55, 96
14, 27978, Note_off_c, 13, 55, 0
14, 27984, Note_on_c, 13, 53, 96
14, 28020, Note_off_c, 13, 60, 0
14, 28020, Note_off_c, 13, 69, 0
14, 28026, Note_off_c, 13, 53, 0
14, 28032, Note_on_c, 13, 67, 96
14, 28032, Note_on_c, 13, 72, 96
14, 28032, Note_on_c, 13, 53, 96
14, 28042, Note_off_c, 13, 53, 0
14, 28044, Note_on_c, 13, 52, 96
14, 28054, Note_off_c, 13, 52, 0
14, 28056, Note_on_c, 13, 53, 96
14, 28066, Note_off_c, 13, 53, 0
14, 28068, Note_on_c, 13, 52, 96
14, 28078, Note_off_c, 13, 52, 0
14, 28080, Note_on_c, 13, 53, 96
14, 28090, Note_off_c, 13, 53, 0
14, 28092, Note_on_c, 13, 52, 96
14, 28102, Note_off_c, 13, 52, 0
14, 28104, Note_on_c, 13, 53, 96
14, 28114, Note_off_c, 13, 53, 0
14, 28116, Note_off_c, 13, 67, 0
14, 28116, Note_off_c, 13, 72, 0
14, 28116, Note_on_c, 13, 52, 96
14, 28126, Note_off_c, 13, 52, 0
14, 28128, Note_on_c, 13, 60, 96
14, 28128, Note_on_c, 13, 67, 96
14, 28128, Note_on_c, 13, 53, 96
14, 28138, Note_off_c, 13, 53, 0
14, 28140, Note_on_c, 13, 52, 96
14, 28150, Note_off_c, 13, 52, 0
14, 28152, Note_on_c, 13, 53, 96
14, 28162, Note_off_c, 13, 53, 0
14, 28164, Note_on_c, 13, 52, 96
14, 28174, Note_off_c, 13, 52, 0
14, 28176, Note_on_c, 13, 53, 96
14, 28186, Note_off_c, 13, 53, 0
14, 28188, Note_on_c, 13, 52, 96
14, 28198, Note_off_c, 13, 52, 0
14, 28200, Note_on_c, 13, 53, 96
14, 28210, Note_off_c, 13, 53, 0
14, 28212, Note_off_c, 13, 60, 0
14, 28212, Note_off_c, 13, 67, 0
14, 28212, Note_on_c, 13, 52, 96
14, 28222, Note_off_c, 13, 52, 0
14, 28224, Note_on_c, 13, 60, 96
14, 28224, Note_on_c, 13, 69, 96
14, 28224, Note_on_c, 13, 53, 96
14, 28308, Note_off_c, 13, 60, 0
14, 28308, Note_off_c, 13, 69, 0
14, 28308, Note_off_c, 13, 53, 0
14, 28320, Note_on_c, 13, 64, 96
14, 28320, Note_on_c, 13, 70, 96
14, 28320, Note_on_c, 13, 55, 96
14, 28404, Note_off_c, 13, 64, 0
14, 28404, Note_off_c, 13, 70, 0
14, 28404, Note_off_c, 13, 55, 0
14, 28416, Note_on_c, 13, 62, 96
14, 28416, Note_on_c, 13, 69, 96
14, 28416, Note_on_c, 13, 53, 96
14, 28458, Note_off_c, 13, 53, 0
14, 28464, Note_on_c, 13, 52, 96
14, 28500, Note_off_c, 13, 62, 0
14, 28500, Note_off_c, 13, 69, 0
14, 28506, Note_off_c, 13, 52, 0
14, 28512, Note_on_c, 13, 69, 96
14, 28512, Note_on_c, 13, 74, 96
14, 28512, Note_on_c, 13, 53, 96
14, 28596, Note_off_c, 13, 69, 0
14, 28596, Note_off_c, 13, 74, 0
14, 28596, Note_off_c, 13, 53, 0
14, 28608, Note_on_c, 13, 67, 96
14, 28608, Note_on_c, 13, 72, 96
14, 28608, Note_on_c, 13, 52, 96
14, 28692, Note_off_c, 13, 67, 0
14, 28692, Note_off_c, 13, 72, 0
14, 28692, Note_off_c, 13, 52, 0
14, 28704, Note_on_c, 13, 60, 96
14, 28704, Note_on_c, 13, 69, 96
14, 28704, Note_on_c, 13, 53, 96
14, 28746, Note_off_c, 13, 53, 0
14, 28752, Note_on_c, 13, 52, 96
14, 28788, Note_off_c, 13, 60, 0
14, 28788, Note_off_c, 13, 69, 0
14, 28794, Note_off_c, 13, 52, 0
14, 28800, Note_on_c, 13, 64, 96
14, 28800, Note_on_c, 13, 72, 96
14, 28800, Note_on_c, 13, 50, 96
14, 28842, Note_off_c, 13, 50, 0
14, 28848, Note_on_c, 13, 48, 96
14, 28884, Note_off_c, 13, 64, 0
14, 28884, Note_off_c, 13, 72, 0
14, 28890, Note_off_c, 13, 48, 0
14, 28896, Note_on_c, 13, 60, 96
14, 28896, Note_on_c, 13, 69, 96
14, 28896, Note_on_c, 13, 53, 96
14, 28980, Note_off_c, 13, 60, 0
14, 28980, Note_off_c, 13, 69, 0
14, 28980, Note_off_c, 13, 53, 0
14, 28992, Note_on_c, 13, 69, 96
14, 28992, Note_on_c, 13, 72, 96
14, 28992, Note_on_c, 13, 52, 96
14, 29034, Note_off_c, 13, 52, 0
14, 29040, Note_on_c, 13, 50, 96
14, 29076, Note_off_c, 13, 69, 0
14, 29076, Note_off_c, 13, 72, 0
14, 29082, Note_off_c, 13, 50, 0
14, 29088, Note_on_c, 13, 67, 96
14, 29088, Note_on_c, 13, 72, 96
14, 29088, Note_on_c, 13, 52, 96
14, 29172, Note_off_c, 13, 67, 0
14, 29172, Note_off_c, 13, 72, 0
14, 29172, Note_off_c, 13, 52, 0
14, 29184, Note_on_c, 13, 65, 96
14, 29184, Note_on_c, 13, 71, 96
14, 29184, Note_on_c, 13, 50, 96
14, 29268, Note_off_c, 13, 65, 0
14, 29268, Note_off_c, 13, 71, 0
14, 29268, Note_off_c, 13, 50, 0
14, 29280, Note_on_c, 13, 67, 96
14, 29280, Note_on_c, 13, 72, 96
14, 29280, Note_on_c, 13, 52, 96
14, 29364, Note_off_c, 13, 67, 0
14, 29364, Note_off_c, 13, 72, 0
14, 29364, Note_off_c, 13, 52, 0
14, 29376, Note_on_c, 13, 67, 96
14, 29376, Note_on_c, 13, 76, 96
14, 29376, Note_on_c, 13, 48, 96
14, 29460, Note_off_c, 13, 67, 0
14, 29460, Note_off_c, 13, 76, 0
14, 29460, Note_off_c, 13, 48, 0
14, 29472, Note_on_c, 13, 67, 96
14, 29472, Note_on_c, 13, 74, 96
14, 29472, Note_on_c, 13, 47, 96
14, 29556, Note_off_c, 13, 67, 0
14, 29556, Note_off_c, 13, 74, 0
14, 29556, Note_off_c, 13, 47, 0
14, 29568, Note_on_c, 13, 67, 96
14, 29568, Note_on_c, 13, 72, 96
14, 29568, Note_on_c, 13, 45, 96
14, 29610, Note_off_c, 13, 45, 0
14, 29616, Note_on_c, 13, 43, 96
14, 29652, Note_off_c, 13, 67, 0
14, 29652, Note_off_c, 13, 72, 0
14, 29658, Note_off_c, 13, 43, 0
14, 29664, Note_on_c, 13, 67, 96
14, 29664, Note_on_c, 13, 72, 96
14, 29664, Note_on_c, 13, 41, 96
14, 29706, Note_off_c, 13, 41, 0
14, 29712, Note_on_c, 13, 40, 96
14, 29748, Note_off_c, 13, 67, 0
14, 29748, Note_off_c, 13, 72, 0
14, 29754, Note_off_c, 13, 40, 0
14, 29760, Note_on_c, 13, 65, 96
14, 29760, Note_on_c, 13, 72, 96
14, 29760, Note_on_c, 13, 45, 96
14, 29802, Note_off_c, 13, 45, 0
14, 29808, Note_on_c, 13, 41, 96
14, 29844, Note_off_c, 13, 65, 0
14, 29844, Note_off_c, 13, 72, 0
14, 29850, Note_off_c, 13, 41, 0
14, 29856, Note_on_c, 13, 62, 96
14, 29856, Note_on_c, 13, 70, 96
14, 29856, Note_on_c, 13, 43, 96
14, 29940, Note_off_c, 13, 62, 0
14, 29940, Note_off_c, 13, 70, 0
14, 29940, Note_off_c, 13, 43, 0
14, 29952, Note_on_c, 13, 65, 96
14, 29952, Note_on_c, 13, 70, 96
14, 29952, Note_on_c, 13, 43, 96
14, 30036, Note_off_c, 13, 65, 0
14, 30036, Note_off_c, 13, 70, 0
14, 30036, Note_off_c, 13, 43, 0
14, 30048, Note_on_c, 13, 67, 96
14, 30048, Note_on_c, 13, 76, 96
14, 30048, Note_on_c, 13, 36, 96
14, 30132, Note_off_c, 13, 67, 0
14, 30132, Note_off_c, 13, 76, 0
14, 30132, Note_off_c, 13, 36, 0
14, 30144, Note_on_c, 13, 60, 96
14, 30144, Note_on_c, 13, 48, 96
14, 30186, Note_off_c, 13, 60, 0
14, 30186, Note_off_c, 13, 48, 0
14, 30192, Note_on_c, 13, 58, 96
14, 30192, Note_on_c, 13, 46, 96
14, 30234, Note_off_c, 13, 58, 0
14, 30234, Note_off_c, 13, 46, 0
14, 30240, Note_on_c, 13, 57, 96
14, 30240, Note_on_c, 13, 45, 96
14, 30282, Note_off_c, 13, 57, 0
14, 30282, Note_off_c, 13, 45, 0
14, 30288, Note_on_c, 13, 55, 96
14, 30288, Note_on_c, 13, 43, 96
14, 30330, Note_off_c, 13, 55, 0
14, 30330, Note_off_c, 13, 43, 0
14, 30336, Note_on_c, 13, 60, 96
14, 30336, Note_on_c, 13, 69, 96
14, 30336, Note_on_c, 13, 41, 96
14, 30420, Note_off_c, 13, 60, 0
14, 30420, Note_off_c, 13, 69, 0
14, 30420, Note_off_c, 13, 41, 0
14, 30432, Note_on_c, 13, 63, 96
14, 30432, Note_on_c, 13, 72, 96
14, 30432, Note_on_c, 13, 57, 96
14, 30516, Note_off_c, 13, 63, 0
14, 30516, Note_off_c, 13, 72, 0
14, 30516, Note_off_c, 13, 57, 0
14, 30528, Note_on_c, 13, 65, 96
14, 30528, Note_on_c, 13, 74, 96
14, 30528, Note_on_c, 13, 58, 96
14, 30612, Note_off_c, 13, 65, 0
14, 30612, Note_off_c, 13, 74, 0
14, 30612, Note_off_c, 13, 58, 0
14, 30624, Note_on_c, 13, 69, 96
14, 30624, Note_on_c, 13, 75, 96
14, 30624, Note_on_c, 13, 60, 96
14, 30708, Note_off_c, 13, 69, 0
14, 30708, Note_off_c, 13, 75, 0
14, 30708, Note_off_c, 13, 60, 0
14, 30720, Note_on_c, 13, 70, 96
14, 30720, Note_on_c, 13, 75, 96
14, 30720, Note_on_c, 13, 63, 96
14, 30804, Note_off_c, 13, 70, 0
14, 30804, Note_off_c, 13, 75, 0
14, 30804, Note_off_c, 13, 63, 0
14, 30816, Note_on_c, 13, 62, 96
14, 30816, Note_on_c, 13, 70, 96
14, 30816, Note_on_c, 13, 62, 96
14, 30900, Note_off_c, 13, 62, 0
14, 30900, Note_off_c, 13, 70, 0
14, 30900, Note_off_c, 13, 62, 0
14, 30912, Note_on_c, 13, 69, 96
14, 30912, Note_on_c, 13, 75, 96
14, 30912, Note_on_c, 13, 60, 96
14, 30996, Note_off_c, 13, 69, 0
14, 30996, Note_off_c, 13, 75, 0
14, 30996, Note_off_c, 13, 60, 0
14, 31008, Note_on_c, 13, 63, 96
14, 31008, Note_on_c, 13, 72, 96
14, 31008, Note_on_c, 13, 58, 96
14, 31050, Note_off_c, 13, 58, 0
14, 31056, Note_on_c, 13, 57, 96
14, 31092, Note_off_c, 13, 63, 0
14, 31092, Note_off_c, 13, 72, 0
14, 31098, Note_off_c, 13, 57, 0
14, 31104, Note_on_c, 13, 65, 96
14, 31104, Note_on_c, 13, 74, 96
14, 31104, Note_on_c, 13, 58, 96
14, 31188, Note_off_c, 13, 65, 0
14, 31188, Note_off_c, 13, 74, 0
14, 31188, Note_off_c, 13, 58, 0
14, 31200, Note_on_c, 13, 65, 96
14, 31200, Note_on_c, 13, 72, 96
14, 31200, Note_on_c, 13, 57, 96
14, 31284, Note_off_c, 13, 65, 0
14, 31284, Note_off_c, 13, 72, 0
14, 31284, Note_off_c, 13, 57, 0
14, 31296, Note_on_c, 13, 65, 96
14, 31296, Note_on_c, 13, 70, 96
14, 31296, Note_on_c, 13, 58, 96
14, 31338, Note_off_c, 13, 58, 0
14, 31344, Note_on_c, 13, 57, 96
14, 31380, Note_off_c, 13, 65, 0
14, 31380, Note_off_c, 13, 70, 0
14, 31386, Note_off_c, 13, 57, 0
14, 31392, Note_on_c, 13, 60, 96
14, 31392, Note_on_c, 13, 69, 96
14, 31392, Note_on_c, 13, 55, 96
14, 31434, Note_off_c, 13, 55, 0
14, 31440, Note_on_c, 13, 53, 96
14, 31476, Note_off_c, 13, 60, 0
14, 31476, Note_off_c, 13, 69, 0
14, 31482, Note_off_c, 13, 53, 0
14, 31488, Note_on_c, 13, 67, 96
14, 31488, Note_on_c, 13, 72, 96
14, 31488, Note_on_c, 13, 53, 96
14, 31498, Note_off_c, 13, 53, 0
14, 31500, Note_on_c, 13, 52, 96
14, 31510, Note_off_c, 13, 52, 0
14, 31512, Note_on_c, 13, 53, 96
14, 31522, Note_off_c, 13, 53, 0
14, 31524, Note_on_c, 13, 52, 96
14, 31534, Note_off_c, 13, 52, 0
14, 31536, Note_on_c, 13, 53, 96
14, 31546, Note_off_c, 13, 53, 0
14, 31548, Note_on_c, 13, 52, 96
14, 31558, Note_off_c, 13, 52, 0
14, 31560, Note_on_c, 13, 53, 96
14, 31570, Note_off_c, 13, 53, 0
14, 31572, Note_off_c, 13, 67, 0
14, 31572, Note_off_c, 13, 72, 0
14, 31572, Note_on_c, 13, 52, 96
14, 31582, Note_off_c, 13, 52, 0
14, 31584, Note_on_c, 13, 60, 96
14, 31584, Note_on_c, 13, 67, 96
14, 31584, Note_on_c, 13, 53, 96
14, 31594, Note_off_c, 13, 53, 0
14, 31596, Note_on_c, 13, 52, 96
14, 31606, Note_off_c, 13, 52, 0
14, 31608, Note_on_c, 13, 53, 96
14, 31618, Note_off_c, 13, 53, 0
14, 31620, Note_on_c, 13, 52, 96
14, 31630, Note_off_c, 13, 52, 0
14, 31632, Note_on_c, 13, 53, 96
14, 31642, Note_off_c, 13, 53, 0
14, 31644, Note_on_c, 13, 52, 96
14, 31654, Note_off_c, 13, 52, 0
14, 31656, Note_on_c, 13, 53, 96
14, 31666, Note_off_c, 13, 53, 0
14, 31668, Note_off_c, 13, 60, 0
14, 31668, Note_off_c, 13, 67, 0
14, 31668, Note_on_c, 13, 52, 96
14, 31678, Note_off_c, 13, 52, 0
14, 31680, Note_on_c, 13, 60, 96
14, 31680, Note_on_c, 13, 69, 96
14, 31680, Note_on_c, 13, 53, 96
14, 31764, Note_off_c, 13, 60, 0
14, 31764, Note_off_c, 13, 69, 0
14, 31764, Note_off_c, 13, 53, 0
14, 31776, Note_on_c, 13, 64, 96
14, 31776, Note_on_c, 13, 70, 96
14, 31776, Note_on_c, 13, 55, 96
14, 31860, Note_off_c, 13, 64, 0
14, 31860, Note_off_c, 13, 70, 0
14, 31860, Note_off_c, 13, 55, 0
14, 31872, Note_on_c, 13, 62, 96
14, 31872, Note_on_c, 13, 69, 96
14, 31872, Note_on_c, 13, 53, 96
14, 31914, Note_off_c, 13, 53, 0
14, 31920, Note_on_c, 13, 52, 96
14, 31956, Note_off_c, 13, 62, 0
14, 31956, Note_off_c, 13, 69, 0
14, 31962, Note_off_c, 13, 52, 0
14, 31968, Note_on_c, 13, 69, 96
14, 31968, Note_on_c, 13, 74, 96
14, 31968, Note_on_c, 13, 53, 96
14, 32052, Note_off_c, 13, 69, 0
14, 32052, Note_off_c, 13, 74, 0
14, 32052, Note_off_c, 13, 53, 0
14, 32064, Note_on_c, 13, 67, 96
14, 32064, Note_on_c, 13, 72, 96
14, 32064, Note_on_c, 13, 52, 96
14, 32148, Note_off_c, 13, 67, 0
14, 32148, Note_off_c, 13, 72, 0
14, 32148, Note_off_c, 13, 52, 0
14, 32160, Note_on_c, 13, 60, 96
14, 32160, Note_on_c, 13, 69, 96
14, 32160, Note_on_c, 13, 53, 96
14, 32202, Note_off_c, 13, 53, 0
14, 32208, Note_on_c, 13, 52, 96
14, 32244, Note_off_c, 13, 60, 0
14, 32244, Note_off_c, 13, 69, 0
14, 32250, Note_off_c, 13, 52, 0
14, 32256, Note_on_c, 13, 64, 96
14, 32256, Note_on_c, 13, 72, 96
14, 32256, Note_on_c, 13, 50, 96
14, 32298, Note_off_c, 13, 50, 0
14, 32304, Note_on_c, 13, 48, 96
14, 32340, Note_off_c, 13, 64, 0
14, 32340, Note_off_c, 13, 72, 0
14, 32346, Note_off_c, 13, 48, 0
14, 32352, Note_on_c, 13, 60, 96
14, 32352, Note_on_c, 13, 69, 96
14, 32352, Note_on_c, 13, 53, 96
14, 32436, Note_off_c, 13, 60, 0
14, 32436, Note_off_c, 13, 69, 0
14, 32436, Note_off_c, 13, 53, 0
14, 32448, Note_on_c, 13, 69, 96
14, 32448, Note_on_c, 13, 72, 96
14, 32448, Note_on_c, 13, 52, 96
14, 32490, Note_off_c, 13, 52, 0
14, 32496, Note_on_c, 13, 50, 96
14, 32532, Note_off_c, 13, 69, 0
14, 32532, Note_off_c, 13, 72, 0
14, 32538, Note_off_c, 13, 50, 0
14, 32544, Note_on_c, 13, 67, 96
14, 32544, Note_on_c, 13, 72, 96
14, 32544, Note_on_c, 13, 52, 96
14, 32628, Note_off_c, 13, 67, 0
14, 32628, Note_off_c, 13, 72, 0
14, 32628, Note_off_c, 13, 52, 0
14, 32640, Note_on_c, 13, 65, 96
14, 32640, Note_on_c, 13, 71, 96
14, 32640, Note_on_c, 13, 50, 96
14, 32724, Note_off_c, 13, 65, 0
14, 32724, Note_off_c, 13, 71, 0
14, 32724, Note_off_c, 13, 50, 0
14, 32736, Note_on_c, 13, 67, 96
14, 32736, Note_on_c, 13, 72, 96
14, 32736, Note_on_c, 13, 52, 96
14, 32820, Note_off_c, 13, 67, 0
14, 32820, Note_off_c, 13, 72, 0
14, 32820, Note_off_c, 13, 52, 0
14, 32832, Note_on_c, 13, 67, 96
14, 32832, Note_on_c, 13, 76, 96
14, 32832, Note_on_c, 13, 48, 96
14, 32916, Note_off_c, 13, 67, 0
14, 32916, Note_off_c, 13, 76, 0
14, 32916, Note_off_c, 13, 48, 0
14, 32928, Note_on_c, 13, 67, 96
14, 32928, Note_on_c, 13, 74, 96
14, 32928, Note_on_c, 13, 47, 96
14, 33012, Note_off_c, 13, 67, 0
14, 33012, Note_off_c, 13, 74, 0
14, 33012, Note_off_c, 13, 47, 0
14, 33024, Note_on_c, 13, 67, 96
14, 33024, Note_on_c, 13, 72, 96
14, 33024, Note_on_c, 13, 45, 96
14, 33066, Note_off_c, 13, 45, 0
14, 33072, Note_on_c, 13, 43, 96
14, 33108, Note_off_c, 13, 67, 0
14, 33108, Note_off_c, 13, 72, 0
14, 33114, Note_off_c, 13, 43, 0
14, 33120, Note_on_c, 13, 67, 96
14, 33120, Note_on_c, 13, 72, 96
14, 33120, Note_on_c, 13, 41, 96
14, 33162, Note_off_c, 13, 41, 0
14, 33168, Note_on_c, 13, 40, 96
14, 33204, Note_off_c, 13, 67, 0
14, 33204, Note_off_c, 13, 72, 0
14, 33210, Note_off_c, 13, 40, 0
14, 33216, Note_on_c, 13, 65, 96
14, 33216, Note_on_c, 13, 72, 96
14, 33216, Note_on_c, 13, 45, 96
14, 33258, Note_off_c, 13, 45, 0
14, 33264, Note_on_c, 13, 41, 96
14, 33300, Note_off_c, 13, 65, 0
14, 33300, Note_off_c, 13, 72, 0
14, 33306, Note_off_c, 13, 41, 0
14, 33312, Note_on_c, 13, 62, 96
14, 33312, Note_on_c, 13, 70, 96
14, 33312, Note_on_c, 13, 43, 96
14, 33396, Note_off_c, 13, 62, 0
14, 33396, Note_off_c, 13, 70, 0
14, 33396, Note_off_c, 13, 43, 0
14, 33408, Note_on_c, 13, 65, 96
14, 33408, Note_on_c, 13, 70, 96
14, 33408, Note_on_c, 13, 43, 96
14, 33492, Note_off_c, 13, 65, 0
14, 33492, Note_off_c, 13, 70, 0
14, 33492, Note_off_c, 13, 43, 0
14, 33504, Note_on_c, 13, 67, 96
14, 33504, Note_on_c, 13, 76, 96
14, 33504, Note_on_c, 13, 36, 96
14, 33588, Note_off_c, 13, 36, 0
14, 33600, Note_on_c, 13, 48, 96
14, 33684, Note_off_c, 13, 48, 0
14, 33696, Note_on_c, 13, 50, 96
14, 33780, Note_off_c, 13, 67, 0
14, 33780, Note_off_c, 13, 76, 0
14, 33780, Note_off_c, 13, 50, 0
14, 33792, Note_on_c, 13, 67, 96
14, 33792, Note_on_c, 13, 72, 96
14, 33792, Note_on_c, 13, 52, 96
14, 33876, Note_off_c, 13, 67, 0
14, 33876, Note_off_c, 13, 72, 0
14, 33888, Note_on_c, 13, 67, 96
14, 33888, Note_on_c, 13, 70, 96
14, 33972, Note_off_c, 13, 52, 0
14, 33972, Note_off_c, 13, 67, 0
14, 33972, Note_off_c, 13, 70, 0
14, 33984, Note_on_c, 13, 60, 96
14, 33984, Note_on_c, 13, 69, 96
14, 33984, Note_on_c, 13, 53, 96
14, 34068, Note_off_c, 13, 60, 0
14, 34068, Note_off_c, 13, 69, 0
14, 34068, Note_off_c, 13, 53, 0
14, 34080, Note_on_c, 13, 64, 96
14, 34080, Note_on_c, 13, 70, 96
14, 34080, Note_on_c, 13, 55, 96
14, 34164, Note_off_c, 13, 64, 0
14, 34164, Note_off_c, 13, 70, 0
14, 34164, Note_off_c, 13, 55, 0
14, 34176, Note_on_c, 13, 64, 96
14, 34176, Note_on_c, 13, 72, 96
14, 34176, Note_on_c, 13, 58, 96
14, 34260, Note_off_c, 13, 64, 0
14, 34260, Note_off_c, 13, 72, 0
14, 34260, Note_off_c, 13, 58, 0
14, 34272, Note_on_c, 13, 65, 96
14, 34272, Note_on_c, 13, 72, 96
14, 34272, Note_on_c, 13, 57, 96
14, 34356, Note_off_c, 13, 65, 0
14, 34356, Note_off_c, 13, 72, 0
14, 34356, Note_off_c, 13, 57, 0
14, 34368, Note_on_c, 13, 64, 96
14, 34368, Note_on_c, 13, 70, 96
14, 34368, Note_on_c, 13, 55, 96
14, 34452, Note_off_c, 13, 64, 0
14, 34452, Note_off_c, 13, 70, 0
14, 34452, Note_off_c, 13, 55, 0
14, 34464, Note_on_c, 13, 62, 96
14, 34464, Note_on_c, 13, 70, 96
14, 34464, Note_on_c, 13, 53, 96
14, 34506, Note_off_c, 13, 53, 0
14, 34512, Note_on_c, 13, 52, 96
14, 34548, Note_off_c, 13, 62, 0
14, 34548, Note_off_c, 13, 70, 0
14, 34554, Note_off_c, 13, 52, 0
14, 34560, Note_on_c, 13, 60, 96
14, 34560, Note_on_c, 13, 69, 96
14, 34560, Note_on_c, 13, 53, 96
14, 34644, Note_off_c, 13, 60, 0
14, 34644, Note_off_c, 13, 69, 0
14, 34644, Note_off_c, 13, 53, 0
14, 34656, Note_on_c, 13, 60, 96
14, 34656, Note_on_c, 13, 67, 96
14, 34656, Note_on_c, 13, 52, 96
14, 34740, Note_off_c, 13, 60, 0
14, 34740, Note_off_c, 13, 67, 0
14, 34740, Note_off_c, 13, 52, 0
14, 34752, Note_on_c, 13, 65, 96
14, 34752, Note_on_c, 13, 72, 96
14, 34752, Note_on_c, 13, 53, 96
14, 34794, Note_off_c, 13, 53, 0
14, 34800, Note_on_c, 13, 52, 96
14, 34836, Note_off_c, 13, 65, 0
14, 34836, Note_off_c, 13, 72, 0
14, 34842, Note_off_c, 13, 52, 0
14, 34848, Note_on_c, 13, 67, 96
14, 34848, Note_on_c, 13, 76, 96
14, 34848, Note_on_c, 13, 50, 96
14, 34890, Note_off_c, 13, 50, 0
14, 34896, Note_on_c, 13, 48, 96
14, 34932, Note_off_c, 13, 67, 0
14, 34932, Note_off_c, 13, 76, 0
14, 34938, Note_off_c, 13, 48, 0
14, 34944, Note_on_c, 13, 67, 96
14, 34944, Note_on_c, 13, 74, 96
14, 34944, Note_on_c, 13, 48, 96
14, 34954, Note_off_c, 13, 48, 0
14, 34956, Note_on_c, 13, 47, 96
14, 34966, Note_off_c, 13, 47, 0
14, 34968, Note_on_c, 13, 48, 96
14, 34978, Note_off_c, 13, 48, 0
14, 34980, Note_on_c, 13, 47, 96
14, 34990, Note_off_c, 13, 47, 0
14, 34992, Note_on_c, 13, 48, 96
14, 35002, Note_off_c, 13, 48, 0
14, 35004, Note_on_c, 13, 47, 96
14, 35014, Note_off_c, 13, 47, 0
14, 35016, Note_on_c, 13, 48, 96
14, 35026, Note_off_c, 13, 48, 0
14, 35028, Note_off_c, 13, 67, 0
14, 35028, Note_off_c, 13, 74, 0
14, 35028, Note_on_c, 13, 47, 96
14, 35038, Note_off_c, 13, 47, 0
14, 35040, Note_on_c, 13, 62, 96
14, 35040, Note_on_c, 13, 71, 96
14, 35040, Note_on_c, 13, 48, 96
14, 35050, Note_off_c, 13, 48, 0
14, 35052, Note_on_c, 13, 47, 96
14, 35062, Note_off_c, 13, 47, 0
14, 35064, Note_on_c, 13, 48, 96
14, 35074, Note_off_c, 13, 48, 0
14, 35076, Note_on_c, 13, 47, 96
14, 35086, Note_off_c, 13, 47, 0
14, 35088, Note_on_c, 13, 48, 96
14, 35098, Note_off_c, 13, 48, 0
14, 35100, Note_on_c, 13, 47, 96
14, 35110, Note_off_c, 13, 47, 0
14, 35112, Note_on_c, 13, 48, 96
14, 35122, Note_off_c, 13, 48, 0
14, 35124, Note_off_c, 13, 62, 0
14, 35124, Note_off_c, 13, 71, 0
14, 35124, Note_on_c, 13, 47, 96
14, 35134, Note_off_c, 13, 47, 0
14, 35136, Note_on_c, 13, 67, 96
14, 35136, Note_on_c, 13, 76, 96
14, 35136, Note_on_c, 13, 48, 96
14, 35220, Note_off_c, 13, 67, 0
14, 35220, Note_off_c, 13, 76, 0
14, 35220, Note_off_c, 13, 48, 0
14, 35232, Note_on_c, 13, 71, 96
14, 35232, Note_on_c, 13, 77, 96
14, 35232, Note_on_c, 13, 50, 96
14, 35316, Note_off_c, 13, 71, 0
14, 35316, Note_off_c, 13, 77, 0
14, 35316, Note_off_c, 13, 50, 0
14, 35328, Note_on_c, 13, 69, 96
14, 35328, Note_on_c, 13, 76, 96
14, 35328, Note_on_c, 13, 48, 96
14, 35370, Note_off_c, 13, 48, 0
14, 35376, Note_on_c, 13, 47, 96
14, 35412, Note_off_c, 13, 69, 0
14, 35412, Note_off_c, 13, 76, 0
14, 35418, Note_off_c, 13, 47, 0
14, 35424, Note_on_c, 13, 69, 96
14, 35424, Note_on_c, 13, 72, 96
14, 35424, Note_on_c, 13, 48, 96
14, 35508, Note_off_c, 13, 69, 0
14, 35508, Note_off_c, 13, 72, 0
14, 35508, Note_off_c, 13, 48, 0
14, 35520, Note_on_c, 13, 67, 96
14, 35520, Note_on_c, 13, 74, 96
14, 35520, Note_on_c, 13, 47, 96
14, 35604, Note_off_c, 13, 67, 0
14, 35604, Note_off_c, 13, 74, 0
14, 35604, Note_off_c, 13, 47, 0
14, 35616, Note_on_c, 13, 67, 96
14, 35616, Note_on_c, 13, 76, 96
14, 35616, Note_on_c, 13, 48, 96
14, 35658, Note_off_c, 13, 48, 0
14, 35664, Note_on_c, 13, 47, 96
14, 35700, Note_off_c, 13, 67, 0
14, 35700, Note_off_c, 13, 76, 0
14, 35706, Note_off_c, 13, 47, 0
14, 35712, Note_on_c, 13, 62, 96
14, 35712, Note_on_c, 13, 71, 96
14, 35712, Note_on_c, 13, 45, 96
14, 35754, Note_off_c, 13, 45, 0
14, 35760, Note_on_c, 13, 43, 96
14, 35796, Note_off_c, 13, 62, 0
14, 35796, Note_off_c, 13, 71, 0
14, 35802, Note_off_c, 13, 43, 0
14, 35808, Note_on_c, 13, 67, 96
14, 35808, Note_on_c, 13, 76, 96
14, 35808, Note_on_c, 13, 48, 96
14, 35892, Note_off_c, 13, 67, 0
14, 35892, Note_off_c, 13, 76, 0
14, 35892, Note_off_c, 13, 48, 0
14, 35904, Note_on_c, 13, 65, 96
14, 35904, Note_on_c, 13, 74, 96
14, 35904, Note_on_c, 13, 46, 96
14, 35946, Note_off_c, 13, 46, 0
14, 35952, Note_on_c, 13, 45, 96
14, 35988, Note_off_c, 13, 65, 0
14, 35988, Note_off_c, 13, 74, 0
14, 35994, Note_off_c, 13, 45, 0
14, 36000, Note_on_c, 13, 65, 96
14, 36000, Note_on_c, 13, 74, 96
14, 36000, Note_on_c, 13, 43, 96
14, 36042, Note_off_c, 13, 43, 0
14, 36048, Note_on_c, 13, 41, 96
14, 36084, Note_off_c, 13, 65, 0
14, 36084, Note_off_c, 13, 74, 0
14, 36090, Note_off_c, 13, 41, 0
14, 36096, Note_on_c, 13, 67, 96
14, 36096, Note_on_c, 13, 72, 96
14, 36096, Note_on_c, 13, 40, 96
14, 36180, Note_off_c, 13, 67, 0
14, 36180, Note_off_c, 13, 72, 0
14, 36180, Note_off_c, 13, 40, 0
14, 36192, Note_on_c, 13, 60, 96
14, 36192, Note_on_c, 13, 69, 96
14, 36192, Note_on_c, 13, 41, 96
14, 36234, Note_off_c, 13, 41, 0
14, 36240, Note_on_c, 13, 40, 96
14, 36276, Note_off_c, 13, 60, 0
14, 36276, Note_off_c, 13, 69, 0
14, 36282, Note_off_c, 13, 40, 0
14, 36288, Note_on_c, 13, 69, 96
14, 36288, Note_on_c, 13, 77, 96
14, 36288, Note_on_c, 13, 38, 96
14, 36330, Note_off_c, 13, 38, 0
14, 36336, Note_on_c, 13, 40, 96
14, 36372, Note_off_c, 13, 69, 0
14, 36372, Note_off_c, 13, 77, 0
14, 36378, Note_off_c, 13, 40, 0
14, 36384, Note_on_c, 13, 67, 96
14, 36384, Note_on_c, 13, 76, 96
14, 36384, Note_on_c, 13, 36, 96
14, 36468, Note_off_c, 13, 67, 0
14, 36468, Note_off_c, 13, 76, 0
14, 36468, Note_off_c, 13, 36, 0
14, 36480, Note_on_c, 13, 69, 96
14, 36480, Note_on_c, 13, 77, 96
14, 36480, Note_on_c, 13, 48, 96
14, 36522, Note_off_c, 13, 48, 0
14, 36528, Note_on_c, 13, 50, 96
14, 36564, Note_off_c, 13, 69, 0
14, 36564, Note_off_c, 13, 77, 0
14, 36570, Note_off_c, 13, 50, 0
14, 36576, Note_on_c, 13, 72, 96
14, 36576, Note_on_c, 13, 79, 96
14, 36576, Note_on_c, 13, 52, 96
14, 36618, Note_off_c, 13, 52, 0
14, 36624, Note_on_c, 13, 48, 96
14, 36660, Note_off_c, 13, 72, 0
14, 36660, Note_off_c, 13, 79, 0
14, 36666, Note_off_c, 13, 48, 0
14, 36672, Note_on_c, 13, 69, 96
14, 36672, Note_on_c, 13, 77, 96
14, 36672, Note_on_c, 13, 50, 96
14, 36714, Note_off_c, 13, 50, 0
14, 36720, Note_on_c, 13, 46, 96
14, 36756, Note_off_c, 13, 69, 0
14, 36756, Note_off_c, 13, 77, 0
14, 36762, Note_off_c, 13, 46, 0
14, 36768, Note_on_c, 13, 67, 96
14, 36768, Note_on_c, 13, 76, 96
14, 36768, Note_on_c, 13, 48, 96
14, 36852, Note_off_c, 13, 67, 0
14, 36852, Note_off_c, 13, 76, 0
14, 36852, Note_off_c, 13, 48, 0
14, 36864, Note_on_c, 13, 64, 96
14, 36864, Note_on_c, 13, 67, 96
14, 36864, Note_on_c, 13, 36, 96
14, 36948, Note_off_c, 13, 64, 0
14, 36948, Note_off_c, 13, 67, 0
14, 36948, Note_off_c, 13, 36, 0
14, 36960, Note_on_c, 13, 60, 96
14, 36960, Note_on_c, 13, 69, 96
14, 36960, Note_on_c, 13, 41, 96
14, 37002, Note_off_c, 13, 41, 0
14, 37008, Note_on_c, 13, 43, 96
14, 37050, Note_off_c, 13, 43, 0
14, 37056, Note_on_c, 13, 45, 96
14, 37098, Note_off_c, 13, 45, 0
14, 37104, Note_on_c, 13, 46, 96
14, 37146, Note_off_c, 13, 46, 0
14, 37152, Note_on_c, 13, 48, 96
14, 37194, Note_off_c, 13, 48, 0
14, 37200, Note_on_c, 13, 50, 96
14, 37236, Note_off_c, 13, 60, 0
14, 37236, Note_off_c, 13, 69, 0
14, 37242, Note_off_c, 13, 50, 0
14, 37248, Note_on_c, 13, 67, 96
14, 37248, Note_on_c, 13, 72, 96
14, 37248, Note_on_c, 13, 52, 96
14, 37332, Note_off_c, 13, 67, 0
14, 37332, Note_off_c, 13, 72, 0
14, 37344, Note_on_c, 13, 67, 96
14, 37344, Note_on_c, 13, 70, 96
14, 37428, Note_off_c, 13, 52, 0
14, 37428, Note_off_c, 13, 67, 0
14, 37428, Note_off_c, 13, 70, 0
14, 37440, Note_on_c, 13, 60, 96
14, 37440, Note_on_c, 13, 69, 96
14, 37440, Note_on_c, 13, 53, 96
14, 37524, Note_off_c, 13, 60, 0
14, 37524, Note_off_c, 13, 69, 0
14, 37524, Note_off_c, 13, 53, 0
14, 37536, Note_on_c, 13, 64, 96
14, 37536, Note_on_c, 13, 70, 96
14, 37536, Note_on_c, 13, 55, 96
14, 37620, Note_off_c, 13, 64, 0
14, 37620, Note_off_c, 13, 70, 0
14, 37620, Note_off_c, 13, 55, 0
14, 37632, Note_on_c, 13, 64, 96
14, 37632, Note_on_c, 13, 72, 96
14, 37632, Note_on_c, 13, 58, 96
14, 37716, Note_off_c, 13, 64, 0
14, 37716, Note_off_c, 13, 72, 0
14, 37716, Note_off_c, 13, 58, 0
14, 37728, Note_on_c, 13, 65, 96
14, 37728, Note_on_c, 13, 72, 96
14, 37728, Note_on_c, 13, 57, 96
14, 37812, Note_off_c, 13, 65, 0
14, 37812, Note_off_c, 13, 72, 0
14, 37812, Note_off_c, 13, 57, 0
14, 37824, Note_on_c, 13, 64, 96
14, 37824, Note_on_c, 13, 70, 96
14, 37824, Note_on_c, 13, 55, 96
14, 37908, Note_off_c, 13, 64, 0
14, 37908, Note_off_c, 13, 70, 0
14, 37908, Note_off_c, 13, 55, 0
14, 37920, Note_on_c, 13, 62, 96
14, 37920, Note_on_c, 13, 70, 96
14, 37920, Note_on_c, 13, 53, 96
14, 37962, Note_off_c, 13, 53, 0
14, 37968, Note_on_c, 13, 52, 96
14, 38004, Note_off_c, 13, 62, 0
14, 38004, Note_off_c, 13, 70, 0
14, 38010, Note_off_c, 13, 52, 0
14, 38016, Note_on_c, 13, 60, 96
14, 38016, Note_on_c, 13, 69, 96
14, 38016, Note_on_c, 13, 53, 96
14, 38100, Note_off_c, 13, 60, 0
14, 38100, Note_off_c, 13, 69, 0
14, 38100, Note_off_c, 13, 53, 0
14, 38112, Note_on_c, 13, 60, 96
14, 38112, Note_on_c, 13, 67, 96
14, 38112, Note_on_c, 13, 52, 96
14, 38196, Note_off_c, 13, 60, 0
14, 38196, Note_off_c, 13, 67, 0
14, 38196, Note_off_c, 13, 52, 0
14, 38208, Note_on_c, 13, 65, 96
14, 38208, Note_on_c, 13, 72, 96
14, 38208, Note_on_c, 13, 53, 96
14, 38250, Note_off_c, 13, 53, 0
14, 38256, Note_on_c, 13, 52, 96
14, 38292, Note_off_c, 13, 65, 0
14, 38292, Note_off_c, 13, 72, 0
14, 38298, Note_off_c, 13, 52, 0
14, 38304, Note_on_c, 13, 67, 96
14, 38304, Note_on_c, 13, 76, 96
14, 38304, Note_on_c, 13, 50, 96
14, 38346, Note_off_c, 13, 50, 0
14, 38352, Note_on_c, 13, 48, 96
14, 38388, Note_off_c, 13, 67, 0
14, 38388, Note_off_c, 13, 76, 0
14, 38394, Note_off_c, 13, 48, 0
14, 38400, Note_on_c, 13, 67, 96
14, 38400, Note_on_c, 13, 74, 96
14, 38400, Note_on_c, 13, 48, 96
14, 38410, Note_off_c, 13, 48, 0
14, 38412, Note_on_c, 13, 47, 96
14, 38422, Note_off_c, 13, 47, 0
14, 38424, Note_on_c, 13, 48, 96
14, 38434, Note_off_c, 13, 48, 0
14, 38436, Note_on_c, 13, 47, 96
14, 38446, Note_off_c, 13, 47, 0
14, 38448, Note_on_c, 13, 48, 96
14, 38458, Note_off_c, 13, 48, 0
14, 38460, Note_on_c, 13, 47, 96
14, 38470, Note_off_c, 13, 47, 0
14, 38472, Note_on_c, 13, 48, 96
14, 38482, Note_off_c, 13, 48, 0
14, 38484, Note_off_c, 13, 67, 0
14, 38484, Note_off_c, 13, 74, 0
14, 38484, Note_on_c, 13, 47, 96
14, 38494, Note_off_c, 13, 47, 0
14, 38496, Note_on_c, 13, 62, 96
14, 38496, Note_on_c, 13, 71, 96
14, 38496, Note_on_c, 13, 48, 96
14, 38506, Note_off_c, 13, 48, 0
14, 38508, Note_on_c, 13, 47, 96
14, 38518, Note_off_c, 13, 47, 0
14, 38520, Note_on_c, 13, 48, 96
14, 38530, Note_off_c, 13, 48, 0
14, 38532, Note_on_c, 13, 47, 96
14, 38542, Note_off_c, 13, 47, 0
14, 38544, Note_on_c, 13, 48, 96
14, 38554, Note_off_c, 13, 48, 0
14, 38556, Note_on_c, 13, 47, 96
14, 38566, Note_off_c, 13, 47, 0
14, 38568, Note_on_c, 13, 48, 96
14, 38578, Note_off_c, 13, 48, 0
14, 38580, Note_off_c, 13, 62, 0
14, 38580, Note_off_c, 13, 71, 0
14, 38580, Note_on_c, 13, 47, 96
14, 38590, Note_off_c, 13, 47, 0
14, 38592, Note_on_c, 13, 67, 96
14, 38592, Note_on_c, 13, 76, 96
14, 38592, Note_on_c, 13, 48, 96
14, 38676, Note_off_c, 13, 67, 0
14, 38676, Note_off_c, 13, 76, 0
14, 38676, Note_off_c, 13, 48, 0
14, 38688, Note_on_c, 13, 71, 96
14, 38688, Note_on_c, 13, 77, 96
14, 38688, Note_on_c, 13, 50, 96
14, 38772, Note_off_c, 13, 71, 0
14, 38772, Note_off_c, 13, 77, 0
14, 38772, Note_off_c, 13, 50, 0
14, 38784, Note_on_c, 13, 69, 96
14, 38784, Note_on_c, 13, 76, 96
14, 38784, Note_on_c, 13, 48, 96
14, 38826, Note_off_c, 13, 48, 0
14, 38832, Note_on_c, 13, 47, 96
14, 38868, Note_off_c, 13, 69, 0
14, 38868, Note_off_c, 13, 76, 0
14, 38874, Note_off_c, 13, 47, 0
14, 38880, Note_on_c, 13, 69, 96
14, 38880, Note_on_c, 13, 72, 96
14, 38880, Note_on_c, 13, 48, 96
14, 38964, Note_off_c, 13, 69, 0
14, 38964, Note_off_c, 13, 72, 0
14, 38964, Note_off_c, 13, 48, 0
14, 38976, Note_on_c, 13, 67, 96
14, 38976, Note_on_c, 13, 74, 96
14, 38976, Note_on_c, 13, 47, 96
14, 39060, Note_off_c, 13, 67, 0
14, 39060, Note_off_c, 13, 74, 0
14, 39060, Note_off_c, 13, 47, 0
14, 39072, Note_on_c, 13, 67, 96
14, 39072, Note_on_c, 13, 76, 96
14, 39072, Note_on_c, 13, 48, 96
14, 39114, Note_off_c, 13, 48, 0
14, 39120, Note_on_c, 13, 47, 96
14, 39156, Note_off_c, 13, 67, 0
14, 39156, Note_off_c, 13, 76, 0
14, 39162, Note_off_c, 13, 47, 0
14, 39168, Note_on_c, 13, 62, 96
14, 39168, Note_on_c, 13, 71, 96
14, 39168, Note_on_c, 13, 45, 96
14, 39210, Note_off_c, 13, 45, 0
14, 39216, Note_on_c, 13, 43, 96
14, 39252, Note_off_c, 13, 62, 0
14, 39252, Note_off_c, 13, 71, 0
14, 39258, Note_off_c, 13, 43, 0
14, 39264, Note_on_c, 13, 67, 96
14, 39264, Note_on_c, 13, 76, 96
14, 39264, Note_on_c, 13, 48, 96
14, 39348, Note_off_c, 13, 67, 0
14, 39348, Note_off_c, 13, 76, 0
14, 39348, Note_off_c, 13, 48, 0
14, 39360, Note_on_c, 13, 65, 96
14, 39360, Note_on_c, 13, 74, 96
14, 39360, Note_on_c, 13, 46, 96
14, 39402, Note_off_c, 13, 46, 0
14, 39408, Note_on_c, 13, 45, 96
14, 39444, Note_off_c, 13, 65, 0
14, 39444, Note_off_c, 13, 74, 0
14, 39450, Note_off_c, 13, 45, 0
14, 39456, Note_on_c, 13, 65, 96
14, 39456, Note_on_c, 13, 74, 96
14, 39456, Note_on_c, 13, 43, 96
14, 39498, Note_off_c, 13, 43, 0
14, 39504, Note_on_c, 13, 41, 96
14, 39540, Note_off_c, 13, 65, 0
14, 39540, Note_off_c, 13, 74, 0
14, 39546, Note_off_c, 13, 41, 0
14, 39552, Note_on_c, 13, 67, 96
14, 39552, Note_on_c, 13, 72, 96
14, 39552, Note_on_c, 13, 40, 96
14, 39636, Note_off_c, 13, 67, 0
14, 39636, Note_off_c, 13, 72, 0
14, 39636, Note_off_c, 13, 40, 0
14, 39648, Note_on_c, 13, 60, 96
14, 39648, Note_on_c, 13, 69, 96
14, 39648, Note_on_c, 13, 41, 96
14, 39690, Note_off_c, 13, 41, 0
14, 39696, Note_on_c, 13, 40, 96
14, 39732, Note_off_c, 13, 60, 0
14, 39732, Note_off_c, 13, 69, 0
14, 39738, Note_off_c, 13, 40, 0
14, 39744, Note_on_c, 13, 69, 96
14, 39744, Note_on_c, 13, 77, 96
14, 39744, Note_on_c, 13, 38, 96
14, 39786, Note_off_c, 13, 38, 0
14, 39792, Note_on_c, 13, 40, 96
14, 39828, Note_off_c, 13, 69, 0
14, 39828, Note_off_c, 13, 77, 0
14, 39834, Note_off_c, 13, 40, 0
14, 39840, Note_on_c, 13, 67, 96
14, 39840, Note_on_c, 13, 76, 96
14, 39840, Note_on_c, 13, 36, 96
14, 39924, Note_off_c, 13, 67, 0
14, 39924, Note_off_c, 13, 76, 0
14, 39924, Note_off_c, 13, 36, 0
14, 39936, Note_on_c, 13, 69, 96
14, 39936, Note_on_c, 13, 77, 96
14, 39936, Note_on_c, 13, 48, 96
14, 39978, Note_off_c, 13, 48, 0
14, 39984, Note_on_c, 13, 50, 96
14, 40020, Note_off_c, 13, 69, 0
14, 40020, Note_off_c, 13, 77, 0
14, 40026, Note_off_c, 13, 50, 0
14, 40032, Note_on_c, 13, 72, 96
14, 40032, Note_on_c, 13, 79, 96
14, 40032, Note_on_c, 13, 52, 96
14, 40074, Note_off_c, 13, 52, 0
14, 40080, Note_on_c, 13, 48, 96
14, 40116, Note_off_c, 13, 72, 0
14, 40116, Note_off_c, 13, 79, 0
14, 40122, Note_off_c, 13, 48, 0
14, 40128, Note_on_c, 13, 69, 96
14, 40128, Note_on_c, 13, 77, 96
14, 40128, Note_on_c, 13, 50, 96
14, 40170, Note_off_c, 13, 50, 0
14, 40176, Note_on_c, 13, 46, 96
14, 40212, Note_off_c, 13, 69, 0
14, 40212, Note_off_c, 13, 77, 0
14, 40218, Note_off_c, 13, 46, 0
14, 40224, Note_on_c, 13, 67, 96
14, 40224, Note_on_c, 13, 76, 96
14, 40224, Note_on_c, 13, 48, 96
14, 40308, Note_off_c, 13, 67, 0
14, 40308, Note_off_c, 13, 76, 0
14, 40308, Note_off_c, 13, 48, 0
14, 40320, Note_on_c, 13, 64, 96
14, 40320, Note_on_c, 13, 67, 96
14, 40320, Note_on_c, 13, 36, 96
14, 40404, Note_off_c, 13, 64, 0
14, 40404, Note_off_c, 13, 67, 0
14, 40404, Note_off_c, 13, 36, 0
14, 40416, Note_on_c, 13, 60, 96
14, 40416, Note_on_c, 13, 69, 96
14, 40416, Note_on_c, 13, 41, 96
14, 40692, Note_off_c, 13, 41, 0
14, 40692, Note_off_c, 13, 60, 0
14, 40692, Note_off_c, 13, 69, 0
14, 40692, End_track
0, 0, End_of_file
