0, 0, Header, 1, 14, 96
1, 0, Start_track
1, 0, Time_signature, 3, 2, 96, 8
1, 0, Tempo, 1000000
1, 96, Tempo, 428571
1, 14208, Tempo, 500000
1, 16512, Tempo, 500000
1, 30624, Tempo, 428571
1, 44736, Tempo, 1000000
1, 44736, End_track
2, 0, Start_track
2, 0, Title_t, "Corno I"
2, 0, Control_c, 0, 0, 0
2, 0, Program_c, 0, 60
2, 0, Time_signature, 3, 2, 96, 8
2, 0, Tempo, 1000000
2, 96, Tempo, 428571
2, 96, Note_on_c, 0, 53, 127
2, 180, Note_off_c, 0, 53, 0
2, 192, Note_on_c, 0, 53, 127
2, 234, Note_off_c, 0, 53, 0
2, 240, Note_on_c, 0, 53, 127
2, 282, Note_off_c, 0, 53, 0
2, 288, Note_on_c, 0, 53, 127
2, 330, Note_off_c, 0, 53, 0
2, 336, Note_on_c, 0, 53, 127
2, 378, Note_off_c, 0, 53, 0
2, 384, Note_on_c, 0, 53, 127
2, 468, Note_off_c, 0, 53, 0
2, 672, Note_on_c, 0, 53, 127
2, 756, Note_off_c, 0, 53, 0
2, 768, Note_on_c, 0, 53, 127
2, 810, Note_off_c, 0, 53, 0
2, 816, Note_on_c, 0, 53, 127
2, 858, Note_off_c, 0, 53, 0
2, 864, Note_on_c, 0, 53, 127
2, 906, Note_off_c, 0, 53, 0
2, 912, Note_on_c, 0, 53, 127
2, 954, Note_off_c, 0, 53, 0
2, 960, Note_on_c, 0, 53, 127
2, 1044, Note_off_c, 0, 53, 0
2, 1248, Note_on_c, 0, 60, 127
2, 1332, Note_off_c, 0, 60, 0
2, 1344, Note_on_c, 0, 60, 127
2, 1386, Note_off_c, 0, 60, 0
2, 1392, Note_on_c, 0, 60, 127
2, 1434, Note_off_c, 0, 60, 0
2, 1440, Note_on_c, 0, 60, 127
2, 1482, Note_off_c, 0, 60, 0
2, 1488, Note_on_c, 0, 60, 127
2, 1530, Note_off_c, 0, 60, 0
2, 1536, Note_on_c, 0, 60, 127
2, 1620, Note_off_c, 0, 60, 0
2, 1824, Note_on_c, 0, 60, 127
2, 1908, Note_off_c, 0, 60, 0
2, 1920, Note_on_c, 0, 60, 127
2, 1962, Note_off_c, 0, 60, 0
2, 1968, Note_on_c, 0, 60, 127
2, 2010, Note_off_c, 0, 60, 0
2, 2016, Note_on_c, 0, 60, 127
2, 2058, Note_off_c, 0, 60, 0
2, 2064, Note_on_c, 0, 60, 127
2, 2106, Note_off_c, 0, 60, 0
2, 2112, Note_on_c, 0, 60, 127
2, 2196, Note_off_c, 0, 60, 0
2, 2400, Note_on_c, 0, 67, 127
2, 2484, Note_off_c, 0, 67, 0
2, 2496, Note_on_c, 0, 67, 127
2, 2538, Note_off_c, 0, 67, 0
2, 2544, Note_on_c, 0, 67, 127
2, 2586, Note_off_c, 0, 67, 0
2, 2592, Note_on_c, 0, 67, 127
2, 2634, Note_off_c, 0, 67, 0
2, 2640, Note_on_c, 0, 67, 127
2, 2682, Note_off_c, 0, 67, 0
2, 2688, Note_on_c, 0, 67, 127
2, 2772, Note_off_c, 0, 67, 0
2, 2976, Note_on_c, 0, 72, 127
2, 3018, Note_off_c, 0, 72, 0
2, 3024, Note_on_c, 0, 71, 127
2, 3066, Note_off_c, 0, 71, 0
2, 3072, Note_on_c, 0, 71, 127
2, 3204, Note_off_c, 0, 71, 0
2, 3216, Note_on_c, 0, 72, 127
2, 3258, Note_off_c, 0, 72, 0
2, 3264, Note_on_c, 0, 72, 127
2, 3540, Note_off_c, 0, 72, 0
2, 3552, Note_on_c, 0, 53, 127
2, 3636, Note_off_c, 0, 53, 0
2, 3648, Note_on_c, 0, 53, 127
2, 3690, Note_off_c, 0, 53, 0
2, 3696, Note_on_c, 0, 53, 127
2, 3738, Note_off_c, 0, 53, 0
2, 3744, Note_on_c, 0, 53, 127
2, 3786, Note_off_c, 0, 53, 0
2, 3792, Note_on_c, 0, 53, 127
2, 3834, Note_off_c, 0, 53, 0
2, 3840, Note_on_c, 0, 53, 127
2, 3924, Note_off_c, 0, 53, 0
2, 4128, Note_on_c, 0, 53, 127
2, 4212, Note_off_c, 0, 53, 0
2, 4224, Note_on_c, 0, 53, 127
2, 4266, Note_off_c, 0, 53, 0
2, 4272, Note_on_c, 0, 53, 127
2, 4314, Note_off_c, 0, 53, 0
2, 4320, Note_on_c, 0, 53, 127
2, 4362, Note_off_c, 0, 53, 0
2, 4368, Note_on_c, 0, 53, 127
2, 4410, Note_off_c, 0, 53, 0
2, 4416, Note_on_c, 0, 53, 127
2, 4500, Note_off_c, 0, 53, 0
2, 4704, Note_on_c, 0, 60, 127
2, 4788, Note_off_c, 0, 60, 0
2, 4800, Note_on_c, 0, 60, 127
2, 4842, Note_off_c, 0, 60, 0
2, 4848, Note_on_c, 0, 60, 127
2, 4890, Note_off_c, 0, 60, 0
2, 4896, Note_on_c, 0, 60, 127
2, 4938, Note_off_c, 0, 60, 0
2, 4944, Note_on_c, 0, 60, 127
2, 4986, Note_off_c, 0, 60, 0
2, 4992, Note_on_c, 0, 60, 127
2, 5076, Note_off_c, 0, 60, 0
2, 5280, Note_on_c, 0, 60, 127
2, 5364, Note_off_c, 0, 60, 0
2, 5376, Note_on_c, 0, 60, 127
2, 5418, Note_off_c, 0, 60, 0
2, 5424, Note_on_c, 0, 60, 127
2, 5466, Note_off_c, 0, 60, 0
2, 5472, Note_on_c, 0, 60, 127
2, 5514, Note_off_c, 0, 60, 0
2, 5520, Note_on_c, 0, 60, 127
2, 5562, Note_off_c, 0, 60, 0
2, 5568, Note_on_c, 0, 60, 127
2, 5652, Note_off_c, 0, 60, 0
2, 5856, Note_on_c, 0, 67, 127
2, 5940, Note_off_c, 0, 67, 0
2, 5952, Note_on_c, 0, 67, 127
2, 5994, Note_off_c, 0, 67, 0
2, 6000, Note_on_c, 0, 67, 127
2, 6042, Note_off_c, 0, 67, 0
2, 6048, Note_on_c, 0, 67, 127
2, 6090, Note_off_c, 0, 67, 0
2, 6096, Note_on_c, 0, 67, 127
2, 6138, Note_off_c, 0, 67, 0
2, 6144, Note_on_c, 0, 67, 127
2, 6228, Note_off_c, 0, 67, 0
2, 6432, Note_on_c, 0, 72, 127
2, 6474, Note_off_c, 0, 72, 0
2, 6480, Note_on_c, 0, 71, 127
2, 6522, Note_off_c, 0, 71, 0
2, 6528, Note_on_c, 0, 71, 127
2, 6660, Note_off_c, 0, 71, 0
2, 6672, Note_on_c, 0, 72, 127
2, 6714, Note_off_c, 0, 72, 0
2, 6720, Note_on_c, 0, 72, 127
2, 6996, Note_off_c, 0, 72, 0
2, 7008, Note_on_c, 0, 60, 127
2, 7092, Note_off_c, 0, 60, 0
2, 7104, Note_on_c, 0, 60, 127
2, 7146, Note_off_c, 0, 60, 0
2, 7152, Note_on_c, 0, 60, 127
2, 7194, Note_off_c, 0, 60, 0
2, 7200, Note_on_c, 0, 60, 127
2, 7242, Note_off_c, 0, 60, 0
2, 7248, Note_on_c, 0, 60, 127
2, 7290, Note_off_c, 0, 60, 0
2, 7296, Note_on_c, 0, 60, 127
2, 7380, Note_off_c, 0, 60, 0
2, 7584, Note_on_c, 0, 60, 127
2, 7668, Note_off_c, 0, 60, 0
2, 7680, Note_on_c, 0, 60, 127
2, 7722, Note_off_c, 0, 60, 0
2, 7728, Note_on_c, 0, 60, 127
2, 7770, Note_off_c, 0, 60, 0
2, 7776, Note_on_c, 0, 60, 127
2, 7818, Note_off_c, 0, 60, 0
2, 7824, Note_on_c, 0, 60, 127
2, 7866, Note_off_c, 0, 60, 0
2, 7872, Note_on_c, 0, 60, 127
2, 7956, Note_off_c, 0, 60, 0
2, 8160, Note_on_c, 0, 67, 127
2, 8244, Note_off_c, 0, 67, 0
2, 8256, Note_on_c, 0, 67, 127
2, 8298, Note_off_c, 0, 67, 0
2, 8304, Note_on_c, 0, 67, 127
2, 8346, Note_off_c, 0, 67, 0
2, 8352, Note_on_c, 0, 67, 127
2, 8394, Note_off_c, 0, 67, 0
2, 8400, Note_on_c, 0, 67, 127
2, 8442, Note_off_c, 0, 67, 0
2, 8448, Note_on_c, 0, 67, 127
2, 8532, Note_off_c, 0, 67, 0
2, 8736, Note_on_c, 0, 67, 127
2, 8820, Note_off_c, 0, 67, 0
2, 8832, Note_on_c, 0, 67, 127
2, 8874, Note_off_c, 0, 67, 0
2, 8880, Note_on_c, 0, 67, 127
2, 8922, Note_off_c, 0, 67, 0
2, 8928, Note_on_c, 0, 67, 127
2, 8970, Note_off_c, 0, 67, 0
2, 8976, Note_on_c, 0, 67, 127
2, 9018, Note_off_c, 0, 67, 0
2, 9024, Note_on_c, 0, 67, 127
2, 9108, Note_off_c, 0, 67, 0
2, 9312, Note_on_c, 0, 72, 127
2, 9396, Note_off_c, 0, 72, 0
2, 9408, Note_on_c, 0, 72, 127
2, 9450, Note_off_c, 0, 72, 0
2, 9456, Note_on_c, 0, 72, 127
2, 9498, Note_off_c, 0, 72, 0
2, 9504, Note_on_c, 0, 72, 127
2, 9546, Note_off_c, 0, 72, 0
2, 9552, Note_on_c, 0, 72, 127
2, 9594, Note_off_c, 0, 72, 0
2, 9600, Note_on_c, 0, 72, 127
2, 9780, Note_off_c, 0, 72, 0
2, 9792, Note_on_c, 0, 70, 127
2, 9876, Note_off_c, 0, 70, 0
2, 9888, Note_on_c, 0, 69, 127
2, 9972, Note_off_c, 0, 69, 0
2, 9984, Note_on_c, 0, 70, 127
2, 10026, Note_off_c, 0, 70, 0
2, 10032, Note_on_c, 0, 69, 127
2, 10074, Note_off_c, 0, 69, 0
2, 10080, Note_on_c, 0, 67, 127
2, 10122, Note_off_c, 0, 67, 0
2, 10128, Note_on_c, 0, 69, 127
2, 10170, Note_off_c, 0, 69, 0
2, 10176, Note_on_c, 0, 65, 127
2, 10452, Note_off_c, 0, 65, 0
2, 10464, Note_on_c, 0, 60, 127
2, 10548, Note_off_c, 0, 60, 0
2, 10560, Note_on_c, 0, 60, 127
2, 10602, Note_off_c, 0, 60, 0
2, 10608, Note_on_c, 0, 60, 127
2, 10650, Note_off_c, 0, 60, 0
2, 10656, Note_on_c, 0, 60, 127
2, 10698, Note_off_c, 0, 60, 0
2, 10704, Note_on_c, 0, 60, 127
2, 10746, Note_off_c, 0, 60, 0
2, 10752, Note_on_c, 0, 60, 127
2, 10836, Note_off_c, 0, 60, 0
2, 11040, Note_on_c, 0, 60, 127
2, 11124, Note_off_c, 0, 60, 0
2, 11136, Note_on_c, 0, 60, 127
2, 11178, Note_off_c, 0, 60, 0
2, 11184, Note_on_c, 0, 60, 127
2, 11226, Note_off_c, 0, 60, 0
2, 11232, Note_on_c, 0, 60, 127
2, 11274, Note_off_c, 0, 60, 0
2, 11280, Note_on_c, 0, 60, 127
2, 11322, Note_off_c, 0, 60, 0
2, 11328, Note_on_c, 0, 60, 127
2, 11412, Note_off_c, 0, 60, 0
2, 11616, Note_on_c, 0, 67, 127
2, 11700, Note_off_c, 0, 67, 0
2, 11712, Note_on_c, 0, 67, 127
2, 11754, Note_off_c, 0, 67, 0
2, 11760, Note_on_c, 0, 67, 127
2, 11802, Note_off_c, 0, 67, 0
2, 11808, Note_on_c, 0, 67, 127
2, 11850, Note_off_c, 0, 67, 0
2, 11856, Note_on_c, 0, 67, 127
2, 11898, Note_off_c, 0, 67, 0
2, 11904, Note_on_c, 0, 67, 127
2, 11988, Note_off_c, 0, 67, 0
2, 12192, Note_on_c, 0, 67, 127
2, 12276, Note_off_c, 0, 67, 0
2, 12288, Note_on_c, 0, 67, 127
2, 12330, Note_off_c, 0, 67, 0
2, 12336, Note_on_c, 0, 67, 127
2, 12378, Note_off_c, 0, 67, 0
2, 12384, Note_on_c, 0, 67, 127
2, 12426, Note_off_c, 0, 67, 0
2, 12432, Note_on_c, 0, 67, 127
2, 12474, Note_off_c, 0, 67, 0
2, 12480, Note_on_c, 0, 67, 127
2, 12564, Note_off_c, 0, 67, 0
2, 12768, Note_on_c, 0, 72, 127
2, 12852, Note_off_c, 0, 72, 0
2, 12864, Note_on_c, 0, 72, 127
2, 12906, Note_off_c, 0, 72, 0
2, 12912, Note_on_c, 0, 72, 127
2, 12954, Note_off_c, 0, 72, 0
2, 12960, Note_on_c, 0, 72, 127
2, 13002, Note_off_c, 0, 72, 0
2, 13008, Note_on_c, 0, 72, 127
2, 13050, Note_off_c, 0, 72, 0
2, 13056, Note_on_c, 0, 72, 127
2, 13236, Note_off_c, 0, 72, 0
2, 13248, Note_on_c, 0, 70, 127
2, 13332, Note_off_c, 0, 70, 0
2, 13344, Note_on_c, 0, 69, 127
2, 13428, Note_off_c, 0, 69, 0
2, 13440, Note_on_c, 0, 70, 127
2, 13482, Note_off_c, 0, 70, 0
2, 13488, Note_on_c, 0, 69, 127
2, 13530, Note_off_c, 0, 69, 0
2, 13536, Note_on_c, 0, 67, 127
2, 13578, Note_off_c, 0, 67, 0
2, 13584, Note_on_c, 0, 69, 127
2, 13626, Note_off_c, 0, 69, 0
2, 13632, Note_on_c, 0, 65, 127
2, 13908, Note_off_c, 0, 65, 0
2, 14208, Tempo, 500000
2, 16512, Tempo, 500000
2, 30624, Tempo, 428571
2, 30624, Note_on_c, 0, 53, 127
2, 30708, Note_off_c, 0, 53, 0
2, 30720, Note_on_c, 0, 53, 127
2, 30762, Note_off_c, 0, 53, 0
2, 30768, Note_on_c, 0, 53, 127
2, 30810, Note_off_c, 0, 53, 0
2, 30816, Note_on_c, 0, 53, 127
2, 30858, Note_off_c, 0, 53, 0
2, 30864, Note_on_c, 0, 53, 127
2, 30906, Note_off_c, 0, 53, 0
2, 30912, Note_on_c, 0, 53, 127
2, 30996, Note_off_c, 0, 53, 0
2, 31200, Note_on_c, 0, 53, 127
2, 31284, Note_off_c, 0, 53, 0
2, 31296, Note_on_c, 0, 53, 127
2, 31338, Note_off_c, 0, 53, 0
2, 31344, Note_on_c, 0, 53, 127
2, 31386, Note_off_c, 0, 53, 0
2, 31392, Note_on_c, 0, 53, 127
2, 31434, Note_off_c, 0, 53, 0
2, 31440, Note_on_c, 0, 53, 127
2, 31482, Note_off_c, 0, 53, 0
2, 31488, Note_on_c, 0, 53, 127
2, 31572, Note_off_c, 0, 53, 0
2, 31776, Note_on_c, 0, 60, 127
2, 31860, Note_off_c, 0, 60, 0
2, 31872, Note_on_c, 0, 60, 127
2, 31914, Note_off_c, 0, 60, 0
2, 31920, Note_on_c, 0, 60, 127
2, 31962, Note_off_c, 0, 60, 0
2, 31968, Note_on_c, 0, 60, 127
2, 32010, Note_off_c, 0, 60, 0
2, 32016, Note_on_c, 0, 60, 127
2, 32058, Note_off_c, 0, 60, 0
2, 32064, Note_on_c, 0, 60, 127
2, 32148, Note_off_c, 0, 60, 0
2, 32352, Note_on_c, 0, 60, 127
2, 32436, Note_off_c, 0, 60, 0
2, 32448, Note_on_c, 0, 60, 127
2, 32490, Note_off_c, 0, 60, 0
2, 32496, Note_on_c, 0, 60, 127
2, 32538, Note_off_c, 0, 60, 0
2, 32544, Note_on_c, 0, 60, 127
2, 32586, Note_off_c, 0, 60, 0
2, 32592, Note_on_c, 0, 60, 127
2, 32634, Note_off_c, 0, 60, 0
2, 32640, Note_on_c, 0, 60, 127
2, 32724, Note_off_c, 0, 60, 0
2, 32928, Note_on_c, 0, 67, 127
2, 33012, Note_off_c, 0, 67, 0
2, 33024, Note_on_c, 0, 67, 127
2, 33066, Note_off_c, 0, 67, 0
2, 33072, Note_on_c, 0, 67, 127
2, 33114, Note_off_c, 0, 67, 0
2, 33120, Note_on_c, 0, 67, 127
2, 33162, Note_off_c, 0, 67, 0
2, 33168, Note_on_c, 0, 67, 127
2, 33210, Note_off_c, 0, 67, 0
2, 33216, Note_on_c, 0, 67, 127
2, 33300, Note_off_c, 0, 67, 0
2, 33504, Note_on_c, 0, 72, 127
2, 33546, Note_off_c, 0, 72, 0
2, 33552, Note_on_c, 0, 71, 127
2, 33594, Note_off_c, 0, 71, 0
2, 33600, Note_on_c, 0, 71, 127
2, 33732, Note_off_c, 0, 71, 0
2, 33744, Note_on_c, 0, 72, 127
2, 33786, Note_off_c, 0, 72, 0
2, 33792, Note_on_c, 0, 72, 127
2, 34068, Note_off_c, 0, 72, 0
2, 34080, Note_on_c, 0, 53, 127
2, 34164, Note_off_c, 0, 53, 0
2, 34176, Note_on_c, 0, 53, 127
2, 34218, Note_off_c, 0, 53, 0
2, 34224, Note_on_c, 0, 53, 127
2, 34266, Note_off_c, 0, 53, 0
2, 34272, Note_on_c, 0, 53, 127
2, 34314, Note_off_c, 0, 53, 0
2, 34320, Note_on_c, 0, 53, 127
2, 34362, Note_off_c, 0, 53, 0
2, 34368, Note_on_c, 0, 53, 127
2, 34452, Note_off_c, 0, 53, 0
2, 34656, Note_on_c, 0, 53, 127
2, 34740, Note_off_c, 0, 53, 0
2, 34752, Note_on_c, 0, 53, 127
2, 34794, Note_off_c, 0, 53, 0
2, 34800, Note_on_c, 0, 53, 127
2, 34842, Note_off_c, 0, 53, 0
2, 34848, Note_on_c, 0, 53, 127
2, 34890, Note_off_c, 0, 53, 0
2, 34896, Note_on_c, 0, 53, 127
2, 34938, Note_off_c, 0, 53, 0
2, 34944, Note_on_c, 0, 53, 127
2, 35028, Note_off_c, 0, 53, 0
2, 35232, Note_on_c, 0, 60, 127
2, 35316, Note_off_c, 0, 60, 0
2, 35328, Note_on_c, 0, 60, 127
2, 35370, Note_off_c, 0, 60, 0
2, 35376, Note_on_c, 0, 60, 127
2, 35418, Note_off_c, 0, 60, 0
2, 35424, Note_on_c, 0, 60, 127
2, 35466, Note_off_c, 0, 60, 0
2, 35472, Note_on_c, 0, 60, 127
2, 35514, Note_off_c, 0, 60, 0
2, 35520, Note_on_c, 0, 60, 127
2, 35604, Note_off_c, 0, 60, 0
2, 35808, Note_on_c, 0, 60, 127
2, 35892, Note_off_c, 0, 60, 0
2, 35904, Note_on_c, 0, 60, 127
2, 35946, Note_off_c, 0, 60, 0
2, 35952, Note_on_c, 0, 60, 127
2, 35994, Note_off_c, 0, 60, 0
2, 36000, Note_on_c, 0, 60, 127
2, 36042, Note_off_c, 0, 60, 0
2, 36048, Note_on_c, 0, 60, 127
2, 36090, Note_off_c, 0, 60, 0
2, 36096, Note_on_c, 0, 60, 127
2, 36180, Note_off_c, 0, 60, 0
2, 36384, Note_on_c, 0, 67, 127
2, 36468, Note_off_c, 0, 67, 0
2, 36480, Note_on_c, 0, 67, 127
2, 36522, Note_off_c, 0, 67, 0
2, 36528, Note_on_c, 0, 67, 127
2, 36570, Note_off_c, 0, 67, 0
2, 36576, Note_on_c, 0, 67, 127
2, 36618, Note_off_c, 0, 67, 0
2, 36624, Note_on_c, 0, 67, 127
2, 36666, Note_off_c, 0, 67, 0
2, 36672, Note_on_c, 0, 67, 127
2, 36756, Note_off_c, 0, 67, 0
2, 36960, Note_on_c, 0, 72, 127
2, 37002, Note_off_c, 0, 72, 0
2, 37008, Note_on_c, 0, 71, 127
2, 37050, Note_off_c, 0, 71, 0
2, 37056, Note_on_c, 0, 71, 127
2, 37188, Note_off_c, 0, 71, 0
2, 37200, Note_on_c, 0, 72, 127
2, 37242, Note_off_c, 0, 72, 0
2, 37248, Note_on_c, 0, 72, 127
2, 37524, Note_off_c, 0, 72, 0
2, 37536, Note_on_c, 0, 60, 127
2, 37620, Note_off_c, 0, 60, 0
2, 37632, Note_on_c, 0, 60, 127
2, 37674, Note_off_c, 0, 60, 0
2, 37680, Note_on_c, 0, 60, 127
2, 37722, Note_off_c, 0, 60, 0
2, 37728, Note_on_c, 0, 60, 127
2, 37770, Note_off_c, 0, 60, 0
2, 37776, Note_on_c, 0, 60, 127
2, 37818, Note_off_c, 0, 60, 0
2, 37824, Note_on_c, 0, 60, 127
2, 37908, Note_off_c, 0, 60, 0
2, 38112, Note_on_c, 0, 60, 127
2, 38196, Note_off_c, 0, 60, 0
2, 38208, Note_on_c, 0, 60, 127
2, 38250, Note_off_c, 0, 60, 0
2, 38256, Note_on_c, 0, 60, 127
2, 38298, Note_off_c, 0, 60, 0
2, 38304, Note_on_c, 0, 60, 127
2, 38346, Note_off_c, 0, 60, 0
2, 38352, Note_on_c, 0, 60, 127
2, 38394, Note_off_c, 0, 60, 0
2, 38400, Note_on_c, 0, 60, 127
2, 38484, Note_off_c, 0, 60, 0
2, 38688, Note_on_c, 0, 67, 127
2, 38772, Note_off_c, 0, 67, 0
2, 38784, Note_on_c, 0, 67, 127
2, 38826, Note_off_c, 0, 67, 0
2, 38832, Note_on_c, 0, 67, 127
2, 38874, Note_off_c, 0, 67, 0
2, 38880, Note_on_c, 0, 67, 127
2, 38922, Note_off_c, 0, 67, 0
2, 38928, Note_on_c, 0, 67, 127
2, 38970, Note_off_c, 0, 67, 0
2, 38976, Note_on_c, 0, 67, 127
2, 39060, Note_off_c, 0, 67, 0
2, 39264, Note_on_c, 0, 67, 127
2, 39348, Note_off_c, 0, 67, 0
2, 39360, Note_on_c, 0, 67, 127
2, 39402, Note_off_c, 0, 67, 0
2, 39408, Note_on_c, 0, 67, 127
2, 39450, Note_off_c, 0, 67, 0
2, 39456, Note_on_c, 0, 67, 127
2, 39498, Note_off_c, 0, 67, 0
2, 39504, Note_on_c, 0, 67, 127
2, 39546, Note_off_c, 0, 67, 0
2, 39552, Note_on_c, 0, 67, 127
2, 39636, Note_off_c, 0, 67, 0
2, 39840, Note_on_c, 0, 72, 127
2, 39924, Note_off_c, 0, 72, 0
2, 39936, Note_on_c, 0, 72, 127
2, 39978, Note_off_c, 0, 72, 0
2, 39984, Note_on_c, 0, 72, 127
2, 40026, Note_off_c, 0, 72, 0
2, 40032, Note_on_c, 0, 72, 127
2, 40074, Note_off_c, 0, 72, 0
2, 40080, Note_on_c, 0, 72, 127
2, 40122, Note_off_c, 0, 72, 0
2, 40128, Note_on_c, 0, 72, 127
2, 40308, Note_off_c, 0, 72, 0
2, 40320, Note_on_c, 0, 70, 127
2, 40404, Note_off_c, 0, 70, 0
2, 40416, Note_on_c, 0, 69, 127
2, 40500, Note_off_c, 0, 69, 0
2, 40512, Note_on_c, 0, 70, 127
2, 40554, Note_off_c, 0, 70, 0
2, 40560, Note_on_c, 0, 69, 127
2, 40602, Note_off_c, 0, 69, 0
2, 40608, Note_on_c, 0, 67, 127
2, 40650, Note_off_c, 0, 67, 0
2, 40656, Note_on_c, 0, 69, 127
2, 40698, Note_off_c, 0, 69, 0
2, 40704, Note_on_c, 0, 65, 127
2, 40980, Note_off_c, 0, 65, 0
2, 40992, Note_on_c, 0, 60, 127
2, 41076, Note_off_c, 0, 60, 0
2, 41088, Note_on_c, 0, 60, 127
2, 41130, Note_off_c, 0, 60, 0
2, 41136, Note_on_c, 0, 60, 127
2, 41178, Note_off_c, 0, 60, 0
2, 41184, Note_on_c, 0, 60, 127
2, 41226, Note_off_c, 0, 60, 0
2, 41232, Note_on_c, 0, 60, 127
2, 41274, Note_off_c, 0, 60, 0
2, 41280, Note_on_c, 0, 60, 127
2, 41364, Note_off_c, 0, 60, 0
2, 41568, Note_on_c, 0, 60, 127
2, 41652, Note_off_c, 0, 60, 0
2, 41664, Note_on_c, 0, 60, 127
2, 41706, Note_off_c, 0, 60, 0
2, 41712, Note_on_c, 0, 60, 127
2, 41754, Note_off_c, 0, 60, 0
2, 41760, Note_on_c, 0, 60, 127
2, 41802, Note_off_c, 0, 60, 0
2, 41808, Note_on_c, 0, 60, 127
2, 41850, Note_off_c, 0, 60, 0
2, 41856, Note_on_c, 0, 60, 127
2, 41940, Note_off_c, 0, 60, 0
2, 42144, Note_on_c, 0, 67, 127
2, 42228, Note_off_c, 0, 67, 0
2, 42240, Note_on_c, 0, 67, 127
2, 42282, Note_off_c, 0, 67, 0
2, 42288, Note_on_c, 0, 67, 127
2, 42330, Note_off_c, 0, 67, 0
2, 42336, Note_on_c, 0, 67, 127
2, 42378, Note_off_c, 0, 67, 0
2, 42384, Note_on_c, 0, 67, 127
2, 42426, Note_off_c, 0, 67, 0
2, 42432, Note_on_c, 0, 67, 127
2, 42516, Note_off_c, 0, 67, 0
2, 42720, Note_on_c, 0, 67, 127
2, 42804, Note_off_c, 0, 67, 0
2, 42816, Note_on_c, 0, 67, 127
2, 42858, Note_off_c, 0, 67, 0
2, 42864, Note_on_c, 0, 67, 127
2, 42906, Note_off_c, 0, 67, 0
2, 42912, Note_on_c, 0, 67, 127
2, 42954, Note_off_c, 0, 67, 0
2, 42960, Note_on_c, 0, 67, 127
2, 43002, Note_off_c, 0, 67, 0
2, 43008, Note_on_c, 0, 67, 127
2, 43092, Note_off_c, 0, 67, 0
2, 43296, Note_on_c, 0, 72, 127
2, 43380, Note_off_c, 0, 72, 0
2, 43392, Note_on_c, 0, 72, 127
2, 43434, Note_off_c, 0, 72, 0
2, 43440, Note_on_c, 0, 72, 127
2, 43482, Note_off_c, 0, 72, 0
2, 43488, Note_on_c, 0, 72, 127
2, 43530, Note_off_c, 0, 72, 0
2, 43536, Note_on_c, 0, 72, 127
2, 43578, Note_off_c, 0, 72, 0
2, 43584, Note_on_c, 0, 72, 127
2, 43764, Note_off_c, 0, 72, 0
2, 43776, Note_on_c, 0, 70, 127
2, 43860, Note_off_c, 0, 70, 0
2, 43872, Note_on_c, 0, 69, 127
2, 43956, Note_off_c, 0, 69, 0
2, 43968, Note_on_c, 0, 70, 127
2, 44010, Note_off_c, 0, 70, 0
2, 44016, Note_on_c, 0, 69, 127
2, 44058, Note_off_c, 0, 69, 0
2, 44064, Note_on_c, 0, 67, 127
2, 44106, Note_off_c, 0, 67, 0
2, 44112, Note_on_c, 0, 69, 127
2, 44154, Note_off_c, 0, 69, 0
2, 44160, Note_on_c, 0, 65, 127
2, 44436, Note_off_c, 0, 65, 0
2, 44736, Tempo, 1000000
2, 44736, End_track
3, 0, Start_track
3, 0, Title_t, "Corno II"
3, 0, Control_c, 1, 0, 0
3, 0, Program_c, 1, 60
3, 0, Time_signature, 3, 2, 96, 8
3, 0, Tempo, 1000000
3, 96, Tempo, 428571
3, 384, Note_on_c, 1, 53, 127
3, 468, Note_off_c, 1, 53, 0
3, 480, Note_on_c, 1, 53, 127
3, 522, Note_off_c, 1, 53, 0
3, 528, Note_on_c, 1, 53, 127
3, 570, Note_off_c, 1, 53, 0
3, 576, Note_on_c, 1, 53, 127
3, 618, Note_off_c, 1, 53, 0
3, 624, Note_on_c, 1, 53, 127
3, 666, Note_off_c, 1, 53, 0
3, 672, Note_on_c, 1, 53, 127
3, 756, Note_off_c, 1, 53, 0
3, 960, Note_on_c, 1, 53, 127
3, 1044, Note_off_c, 1, 53, 0
3, 1056, Note_on_c, 1, 53, 127
3, 1098, Note_off_c, 1, 53, 0
3, 1104, Note_on_c, 1, 53, 127
3, 1146, Note_off_c, 1, 53, 0
3, 1152, Note_on_c, 1, 53, 127
3, 1194, Note_off_c, 1, 53, 0
3, 1200, Note_on_c, 1, 53, 127
3, 1242, Note_off_c, 1, 53, 0
3, 1248, Note_on_c, 1, 60, 127
3, 1332, Note_off_c, 1, 60, 0
3, 1536, Note_on_c, 1, 60, 127
3, 1620, Note_off_c, 1, 60, 0
3, 1632, Note_on_c, 1, 60, 127
3, 1674, Note_off_c, 1, 60, 0
3, 1680, Note_on_c, 1, 60, 127
3, 1722, Note_off_c, 1, 60, 0
3, 1728, Note_on_c, 1, 60, 127
3, 1770, Note_off_c, 1, 60, 0
3, 1776, Note_on_c, 1, 60, 127
3, 1818, Note_off_c, 1, 60, 0
3, 1824, Note_on_c, 1, 60, 127
3, 1908, Note_off_c, 1, 60, 0
3, 2112, Note_on_c, 1, 60, 127
3, 2196, Note_off_c, 1, 60, 0
3, 2208, Note_on_c, 1, 60, 127
3, 2250, Note_off_c, 1, 60, 0
3, 2256, Note_on_c, 1, 60, 127
3, 2298, Note_off_c, 1, 60, 0
3, 2304, Note_on_c, 1, 60, 127
3, 2346, Note_off_c, 1, 60, 0
3, 2352, Note_on_c, 1, 60, 127
3, 2394, Note_off_c, 1, 60, 0
3, 2400, Note_on_c, 1, 67, 127
3, 2484, Note_off_c, 1, 67, 0
3, 2688, Note_on_c, 1, 67, 127
3, 2772, Note_off_c, 1, 67, 0
3, 2784, Note_on_c, 1, 67, 127
3, 2826, Note_off_c, 1, 67, 0
3, 2832, Note_on_c, 1, 67, 127
3, 2874, Note_off_c, 1, 67, 0
3, 2880, Note_on_c, 1, 67, 127
3, 2922, Note_off_c, 1, 67, 0
3, 2928, Note_on_c, 1, 67, 127
3, 2970, Note_off_c, 1, 67, 0
3, 2976, Note_on_c, 1, 69, 127
3, 3060, Note_off_c, 1, 69, 0
3, 3072, Note_on_c, 1, 67, 127
3, 3114, Note_off_c, 1, 67, 0
3, 3120, Note_on_c, 1, 67, 127
3, 3162, Note_off_c, 1, 67, 0
3, 3168, Note_on_c, 1, 67, 127
3, 3210, Note_off_c, 1, 67, 0
3, 3216, Note_on_c, 1, 67, 127
3, 3258, Note_off_c, 1, 67, 0
3, 3264, Note_on_c, 1, 67, 127
3, 3540, Note_off_c, 1, 67, 0
3, 3840, Note_on_c, 1, 53, 127
3, 3924, Note_off_c, 1, 53, 0
3, 3936, Note_on_c, 1, 53, 127
3, 3978, Note_off_c, 1, 53, 0
3, 3984, Note_on_c, 1, 53, 127
3, 4026, Note_off_c, 1, 53, 0
3, 4032, Note_on_c, 1, 53, 127
3, 4074, Note_off_c, 1, 53, 0
3, 4080, Note_on_c, 1, 53, 127
3, 4122, Note_off_c, 1, 53, 0
3, 4128, Note_on_c, 1, 53, 127
3, 4212, Note_off_c, 1, 53, 0
3, 4416, Note_on_c, 1, 53, 127
3, 4500, Note_off_c, 1, 53, 0
3, 4512, Note_on_c, 1, 53, 127
3, 4554, Note_off_c, 1, 53, 0
3, 4560, Note_on_c, 1, 53, 127
3, 4602, Note_off_c, 1, 53, 0
3, 4608, Note_on_c, 1, 53, 127
3, 4650, Note_off_c, 1, 53, 0
3, 4656, Note_on_c, 1, 53, 127
3, 4698, Note_off_c, 1, 53, 0
3, 4704, Note_on_c, 1, 60, 127
3, 4788, Note_off_c, 1, 60, 0
3, 4992, Note_on_c, 1, 60, 127
3, 5076, Note_off_c, 1, 60, 0
3, 5088, Note_on_c, 1, 60, 127
3, 5130, Note_off_c, 1, 60, 0
3, 5136, Note_on_c, 1, 60, 127
3, 5178, Note_off_c, 1, 60, 0
3, 5184, Note_on_c, 1, 60, 127
3, 5226, Note_off_c, 1, 60, 0
3, 5232, Note_on_c, 1, 60, 127
3, 5274, Note_off_c, 1, 60, 0
3, 5280, Note_on_c, 1, 60, 127
3, 5364, Note_off_c, 1, 60, 0
3, 5568, Note_on_c, 1, 60, 127
3, 5652, Note_off_c, 1, 60, 0
3, 5664, Note_on_c, 1, 60, 127
3, 5706, Note_off_c, 1, 60, 0
3, 5712, Note_on_c, 1, 60, 127
3, 5754, Note_off_c, 1, 60, 0
3, 5760, Note_on_c, 1, 60, 127
3, 5802, Note_off_c, 1, 60, 0
3, 5808, Note_on_c, 1, 60, 127
3, 5850, Note_off_c, 1, 60, 0
3, 5856, Note_on_c, 1, 67, 127
3, 5940, Note_off_c, 1, 67, 0
3, 6144, Note_on_c, 1, 67, 127
3, 6228, Note_off_c, 1, 67, 0
3, 6240, Note_on_c, 1, 67, 127
3, 6282, Note_off_c, 1, 67, 0
3, 6288, Note_on_c, 1, 67, 127
3, 6330, Note_off_c, 1, 67, 0
3, 6336, Note_on_c, 1, 67, 127
3, 6378, Note_off_c, 1, 67, 0
3, 6384, Note_on_c, 1, 67, 127
3, 6426, Note_off_c, 1, 67, 0
3, 6432, Note_on_c, 1, 69, 127
3, 6516, Note_off_c, 1, 69, 0
3, 6528, Note_on_c, 1, 67, 127
3, 6570, Note_off_c, 1, 67, 0
3, 6576, Note_on_c, 1, 67, 127
3, 6618, Note_off_c, 1, 67, 0
3, 6624, Note_on_c, 1, 67, 127
3, 6666, Note_off_c, 1, 67, 0
3, 6672, Note_on_c, 1, 67, 127
3, 6714, Note_off_c, 1, 67, 0
3, 6720, Note_on_c, 1, 67, 127
3, 6996, Note_off_c, 1, 67, 0
3, 7296, Note_on_c, 1, 60, 127
3, 7380, Note_off_c, 1, 60, 0
3, 7392, Note_on_c, 1, 60, 127
3, 7434, Note_off_c, 1, 60, 0
3, 7440, Note_on_c, 1, 60, 127
3, 7482, Note_off_c, 1, 60, 0
3, 7488, Note_on_c, 1, 60, 127
3, 7530, Note_off_c, 1, 60, 0
3, 7536, Note_on_c, 1, 60, 127
3, 7578, Note_off_c, 1, 60, 0
3, 7584, Note_on_c, 1, 60, 127
3, 7668, Note_off_c, 1, 60, 0
3, 7872, Note_on_c, 1, 60, 127
3, 7956, Note_off_c, 1, 60, 0
3, 7968, Note_on_c, 1, 60, 127
3, 8010, Note_off_c, 1, 60, 0
3, 8016, Note_on_c, 1, 60, 127
3, 8058, Note_off_c, 1, 60, 0
3, 8064, Note_on_c, 1, 60, 127
3, 8106, Note_off_c, 1, 60, 0
3, 8112, Note_on_c, 1, 60, 127
3, 8154, Note_off_c, 1, 60, 0
3, 8160, Note_on_c, 1, 67, 127
3, 8244, Note_off_c, 1, 67, 0
3, 8448, Note_on_c, 1, 67, 127
3, 8532, Note_off_c, 1, 67, 0
3, 8544, Note_on_c, 1, 67, 127
3, 8586, Note_off_c, 1, 67, 0
3, 8592, Note_on_c, 1, 67, 127
3, 8634, Note_off_c, 1, 67, 0
3, 8640, Note_on_c, 1, 67, 127
3, 8682, Note_off_c, 1, 67, 0
3, 8688, Note_on_c, 1, 67, 127
3, 8730, Note_off_c, 1, 67, 0
3, 8736, Note_on_c, 1, 67, 127
3, 8820, Note_off_c, 1, 67, 0
3, 9024, Note_on_c, 1, 67, 127
3, 9108, Note_off_c, 1, 67, 0
3, 9120, Note_on_c, 1, 67, 127
3, 9162, Note_off_c, 1, 67, 0
3, 9168, Note_on_c, 1, 67, 127
3, 9210, Note_off_c, 1, 67, 0
3, 9216, Note_on_c, 1, 67, 127
3, 9258, Note_off_c, 1, 67, 0
3, 9264, Note_on_c, 1, 67, 127
3, 9306, Note_off_c, 1, 67, 0
3, 9312, Note_on_c, 1, 67, 127
3, 9396, Note_off_c, 1, 67, 0
3, 9600, Note_on_c, 1, 67, 127
3, 9684, Note_off_c, 1, 67, 0
3, 9696, Note_on_c, 1, 60, 127
3, 9738, Note_off_c, 1, 60, 0
3, 9744, Note_on_c, 1, 60, 127
3, 9786, Note_off_c, 1, 60, 0
3, 9792, Note_on_c, 1, 60, 127
3, 9834, Note_off_c, 1, 60, 0
3, 9840, Note_on_c, 1, 60, 127
3, 9882, Note_off_c, 1, 60, 0
3, 9888, Note_on_c, 1, 65, 127
3, 9972, Note_off_c, 1, 65, 0
3, 9984, Note_on_c, 1, 60, 127
3, 10026, Note_off_c, 1, 60, 0
3, 10032, Note_on_c, 1, 60, 127
3, 10074, Note_off_c, 1, 60, 0
3, 10080, Note_on_c, 1, 60, 127
3, 10122, Note_off_c, 1, 60, 0
3, 10128, Note_on_c, 1, 60, 127
3, 10170, Note_off_c, 1, 60, 0
3, 10176, Note_on_c, 1, 57, 127
3, 10452, Note_off_c, 1, 57, 0
3, 10752, Note_on_c, 1, 60, 127
3, 10836, Note_off_c, 1, 60, 0
3, 10848, Note_on_c, 1, 60, 127
3, 10890, Note_off_c, 1, 60, 0
3, 10896, Note_on_c, 1, 60, 127
3, 10938, Note_off_c, 1, 60, 0
3, 10944, Note_on_c, 1, 60, 127
3, 10986, Note_off_c, 1, 60, 0
3, 10992, Note_on_c, 1, 60, 127
3, 11034, Note_off_c, 1, 60, 0
3, 11040, Note_on_c, 1, 60, 127
3, 11124, Note_off_c, 1, 60, 0
3, 11328, Note_on_c, 1, 60, 127
3, 11412, Note_off_c, 1, 60, 0
3, 11424, Note_on_c, 1, 60, 127
3, 11466, Note_off_c, 1, 60, 0
3, 11472, Note_on_c, 1, 60, 127
3, 11514, Note_off_c, 1, 60, 0
3, 11520, Note_on_c, 1, 60, 127
3, 11562, Note_off_c, 1, 60, 0
3, 11568, Note_on_c, 1, 60, 127
3, 11610, Note_off_c, 1, 60, 0
3, 11616, Note_on_c, 1, 67, 127
3, 11700, Note_off_c, 1, 67, 0
3, 11904, Note_on_c, 1, 67, 127
3, 11988, Note_off_c, 1, 67, 0
3, 12000, Note_on_c, 1, 67, 127
3, 12042, Note_off_c, 1, 67, 0
3, 12048, Note_on_c, 1, 67, 127
3, 12090, Note_off_c, 1, 67, 0
3, 12096, Note_on_c, 1, 67, 127
3, 12138, Note_off_c, 1, 67, 0
3, 12144, Note_on_c, 1, 67, 127
3, 12186, Note_off_c, 1, 67, 0
3, 12192, Note_on_c, 1, 67, 127
3, 12276, Note_off_c, 1, 67, 0
3, 12480, Note_on_c, 1, 67, 127
3, 12564, Note_off_c, 1, 67, 0
3, 12576, Note_on_c, 1, 67, 127
3, 12618, Note_off_c, 1, 67, 0
3, 12624, Note_on_c, 1, 67, 127
3, 12666, Note_off_c, 1, 67, 0
3, 12672, Note_on_c, 1, 67, 127
3, 12714, Note_off_c, 1, 67, 0
3, 12720, Note_on_c, 1, 67, 127
3, 12762, Note_off_c, 1, 67, 0
3, 12768, Note_on_c, 1, 67, 127
3, 12852, Note_off_c, 1, 67, 0
3, 13056, Note_on_c, 1, 67, 127
3, 13140, Note_off_c, 1, 67, 0
3, 13152, Note_on_c, 1, 60, 127
3, 13194, Note_off_c, 1, 60, 0
3, 13200, Note_on_c, 1, 60, 127
3, 13242, Note_off_c, 1, 60, 0
3, 13248, Note_on_c, 1, 60, 127
3, 13290, Note_off_c, 1, 60, 0
3, 13296, Note_on_c, 1, 60, 127
3, 13338, Note_off_c, 1, 60, 0
3, 13344, Note_on_c, 1, 65, 127
3, 13428, Note_off_c, 1, 65, 0
3, 13440, Note_on_c, 1, 60, 127
3, 13482, Note_off_c, 1, 60, 0
3, 13488, Note_on_c, 1, 60, 127
3, 13530, Note_off_c, 1, 60, 0
3, 13536, Note_on_c, 1, 60, 127
3, 13578, Note_off_c, 1, 60, 0
3, 13584, Note_on_c, 1, 60, 127
3, 13626, Note_off_c, 1, 60, 0
3, 13632, Note_on_c, 1, 57, 127
3, 13908, Note_off_c, 1, 57, 0
3, 14208, Tempo, 500000
3, 16512, Tempo, 500000
3, 30624, Tempo, 428571
3, 30912, Note_on_c, 1, 53, 127
3, 30996, Note_off_c, 1, 53, 0
3, 31008, Note_on_c, 1, 53, 127
3, 31050, Note_off_c, 1, 53, 0
3, 31056, Note_on_c, 1, 53, 127
3, 31098, Note_off_c, 1, 53, 0
3, 31104, Note_on_c, 1, 53, 127
3, 31146, Note_off_c, 1, 53, 0
3, 31152, Note_on_c, 1, 53, 127
3, 31194, Note_off_c, 1, 53, 0
3, 31200, Note_on_c, 1, 53, 127
3, 31284, Note_off_c, 1, 53, 0
3, 31488, Note_on_c, 1, 53, 127
3, 31572, Note_off_c, 1, 53, 0
3, 31584, Note_on_c, 1, 53, 127
3, 31626, Note_off_c, 1, 53, 0
3, 31632, Note_on_c, 1, 53, 127
3, 31674, Note_off_c, 1, 53, 0
3, 31680, Note_on_c, 1, 53, 127
3, 31722, Note_off_c, 1, 53, 0
3, 31728, Note_on_c, 1, 53, 127
3, 31770, Note_off_c, 1, 53, 0
3, 31776, Note_on_c, 1, 60, 127
3, 31860, Note_off_c, 1, 60, 0
3, 32064, Note_on_c, 1, 60, 127
3, 32148, Note_off_c, 1, 60, 0
3, 32160, Note_on_c, 1, 60, 127
3, 32202, Note_off_c, 1, 60, 0
3, 32208, Note_on_c, 1, 60, 127
3, 32250, Note_off_c, 1, 60, 0
3, 32256, Note_on_c, 1, 60, 127
3, 32298, Note_off_c, 1, 60, 0
3, 32304, Note_on_c, 1, 60, 127
3, 32346, Note_off_c, 1, 60, 0
3, 32352, Note_on_c, 1, 60, 127
3, 32436, Note_off_c, 1, 60, 0
3, 32640, Note_on_c, 1, 60, 127
3, 32724, Note_off_c, 1, 60, 0
3, 32736, Note_on_c, 1, 60, 127
3, 32778, Note_off_c, 1, 60, 0
3, 32784, Note_on_c, 1, 60, 127
3, 32826, Note_off_c, 1, 60, 0
3, 32832, Note_on_c, 1, 60, 127
3, 32874, Note_off_c, 1, 60, 0
3, 32880, Note_on_c, 1, 60, 127
3, 32922, Note_off_c, 1, 60, 0
3, 32928, Note_on_c, 1, 67, 127
3, 33012, Note_off_c, 1, 67, 0
3, 33216, Note_on_c, 1, 67, 127
3, 33300, Note_off_c, 1, 67, 0
3, 33312, Note_on_c, 1, 67, 127
3, 33354, Note_off_c, 1, 67, 0
3, 33360, Note_on_c, 1, 67, 127
3, 33402, Note_off_c, 1, 67, 0
3, 33408, Note_on_c, 1, 67, 127
3, 33450, Note_off_c, 1, 67, 0
3, 33456, Note_on_c, 1, 67, 127
3, 33498, Note_off_c, 1, 67, 0
3, 33504, Note_on_c, 1, 69, 127
3, 33588, Note_off_c, 1, 69, 0
3, 33600, Note_on_c, 1, 67, 127
3, 33642, Note_off_c, 1, 67, 0
3, 33648, Note_on_c, 1, 67, 127
3, 33690, Note_off_c, 1, 67, 0
3, 33696, Note_on_c, 1, 67, 127
3, 33738, Note_off_c, 1, 67, 0
3, 33744, Note_on_c, 1, 67, 127
3, 33786, Note_off_c, 1, 67, 0
3, 33792, Note_on_c, 1, 67, 127
3, 34068, Note_off_c, 1, 67, 0
3, 34368, Note_on_c, 1, 53, 127
3, 34452, Note_off_c, 1, 53, 0
3, 34464, Note_on_c, 1, 53, 127
3, 34506, Note_off_c, 1, 53, 0
3, 34512, Note_on_c, 1, 53, 127
3, 34554, Note_off_c, 1, 53, 0
3, 34560, Note_on_c, 1, 53, 127
3, 34602, Note_off_c, 1, 53, 0
3, 34608, Note_on_c, 1, 53, 127
3, 34650, Note_off_c, 1, 53, 0
3, 34656, Note_on_c, 1, 53, 127
3, 34740, Note_off_c, 1, 53, 0
3, 34944, Note_on_c, 1, 53, 127
3, 35028, Note_off_c, 1, 53, 0
3, 35040, Note_on_c, 1, 53, 127
3, 35082, Note_off_c, 1, 53, 0
3, 35088, Note_on_c, 1, 53, 127
3, 35130, Note_off_c, 1, 53, 0
3, 35136, Note_on_c, 1, 53, 127
3, 35178, Note_off_c, 1, 53, 0
3, 35184, Note_on_c, 1, 53, 127
3, 35226, Note_off_c, 1, 53, 0
3, 35232, Note_on_c, 1, 60, 127
3, 35316, Note_off_c, 1, 60, 0
3, 35520, Note_on_c, 1, 60, 127
3, 35604, Note_off_c, 1, 60, 0
3, 35616, Note_on_c, 1, 60, 127
3, 35658, Note_off_c, 1, 60, 0
3, 35664, Note_on_c, 1, 60, 127
3, 35706, Note_off_c, 1, 60, 0
3, 35712, Note_on_c, 1, 60, 127
3, 35754, Note_off_c, 1, 60, 0
3, 35760, Note_on_c, 1, 60, 127
3, 35802, Note_off_c, 1, 60, 0
3, 35808, Note_on_c, 1, 60, 127
3, 35892, Note_off_c, 1, 60, 0
3, 36096, Note_on_c, 1, 60, 127
3, 36180, Note_off_c, 1, 60, 0
3, 36192, Note_on_c, 1, 60, 127
3, 36234, Note_off_c, 1, 60, 0
3, 36240, Note_on_c, 1, 60, 127
3, 36282, Note_off_c, 1, 60, 0
3, 36288, Note_on_c, 1, 60, 127
3, 36330, Note_off_c, 1, 60, 0
3, 36336, Note_on_c, 1, 60, 127
3, 36378, Note_off_c, 1, 60, 0
3, 36384, Note_on_c, 1, 67, 127
3, 36468, Note_off_c, 1, 67, 0
3, 36672, Note_on_c, 1, 67, 127
3, 36756, Note_off_c, 1, 67, 0
3, 36768, Note_on_c, 1, 67, 127
3, 36810, Note_off_c, 1, 67, 0
3, 36816, Note_on_c, 1, 67, 127
3, 36858, Note_off_c, 1, 67, 0
3, 36864, Note_on_c, 1, 67, 127
3, 36906, Note_off_c, 1, 67, 0
3, 36912, Note_on_c, 1, 67, 127
3, 36954, Note_off_c, 1, 67, 0
3, 36960, Note_on_c, 1, 69, 127
3, 37044, Note_off_c, 1, 69, 0
3, 37056, Note_on_c, 1, 67, 127
3, 37098, Note_off_c, 1, 67, 0
3, 37104, Note_on_c, 1, 67, 127
3, 37146, Note_off_c, 1, 67, 0
3, 37152, Note_on_c, 1, 67, 127
3, 37194, Note_off_c, 1, 67, 0
3, 37200, Note_on_c, 1, 67, 127
3, 37242, Note_off_c, 1, 67, 0
3, 37248, Note_on_c, 1, 67, 127
3, 37524, Note_off_c, 1, 67, 0
3, 37824, Note_on_c, 1, 60, 127
3, 37908, Note_off_c, 1, 60, 0
3, 37920, Note_on_c, 1, 60, 127
3, 37962, Note_off_c, 1, 60, 0
3, 37968, Note_on_c, 1, 60, 127
3, 38010, Note_off_c, 1, 60, 0
3, 38016, Note_on_c, 1, 60, 127
3, 38058, Note_off_c, 1, 60, 0
3, 38064, Note_on_c, 1, 60, 127
3, 38106, Note_off_c, 1, 60, 0
3, 38112, Note_on_c, 1, 60, 127
3, 38196, Note_off_c, 1, 60, 0
3, 38400, Note_on_c, 1, 60, 127
3, 38484, Note_off_c, 1, 60, 0
3, 38496, Note_on_c, 1, 60, 127
3, 38538, Note_off_c, 1, 60, 0
3, 38544, Note_on_c, 1, 60, 127
3, 38586, Note_off_c, 1, 60, 0
3, 38592, Note_on_c, 1, 60, 127
3, 38634, Note_off_c, 1, 60, 0
3, 38640, Note_on_c, 1, 60, 127
3, 38682, Note_off_c, 1, 60, 0
3, 38688, Note_on_c, 1, 67, 127
3, 38772, Note_off_c, 1, 67, 0
3, 38976, Note_on_c, 1, 67, 127
3, 39060, Note_off_c, 1, 67, 0
3, 39072, Note_on_c, 1, 67, 127
3, 39114, Note_off_c, 1, 67, 0
3, 39120, Note_on_c, 1, 67, 127
3, 39162, Note_off_c, 1, 67, 0
3, 39168, Note_on_c, 1, 67, 127
3, 39210, Note_off_c, 1, 67, 0
3, 39216, Note_on_c, 1, 67, 127
3, 39258, Note_off_c, 1, 67, 0
3, 39264, Note_on_c, 1, 67, 127
3, 39348, Note_off_c, 1, 67, 0
3, 39552, Note_on_c, 1, 67, 127
3, 39636, Note_off_c, 1, 67, 0
3, 39648, Note_on_c, 1, 67, 127
3, 39690, Note_off_c, 1, 67, 0
3, 39696, Note_on_c, 1, 67, 127
3, 39738, Note_off_c, 1, 67, 0
3, 39744, Note_on_c, 1, 67, 127
3, 39786, Note_off_c, 1, 67, 0
3, 39792, Note_on_c, 1, 67, 127
3, 39834, Note_off_c, 1, 67, 0
3, 39840, Note_on_c, 1, 67, 127
3, 39924, Note_off_c, 1, 67, 0
3, 40128, Note_on_c, 1, 67, 127
3, 40212, Note_off_c, 1, 67, 0
3, 40224, Note_on_c, 1, 60, 127
3, 40266, Note_off_c, 1, 60, 0
3, 40272, Note_on_c, 1, 60, 127
3, 40314, Note_off_c, 1, 60, 0
3, 40320, Note_on_c, 1, 60, 127
3, 40362, Note_off_c, 1, 60, 0
3, 40368, Note_on_c, 1, 60, 127
3, 40410, Note_off_c, 1, 60, 0
3, 40416, Note_on_c, 1, 65, 127
3, 40500, Note_off_c, 1, 65, 0
3, 40512, Note_on_c, 1, 60, 127
3, 40554, Note_off_c, 1, 60, 0
3, 40560, Note_on_c, 1, 60, 127
3, 40602, Note_off_c, 1, 60, 0
3, 40608, Note_on_c, 1, 60, 127
3, 40650, Note_off_c, 1, 60, 0
3, 40656, Note_on_c, 1, 60, 127
3, 40698, Note_off_c, 1, 60, 0
3, 40704, Note_on_c, 1, 57, 127
3, 40980, Note_off_c, 1, 57, 0
3, 41280, Note_on_c, 1, 60, 127
3, 41364, Note_off_c, 1, 60, 0
3, 41376, Note_on_c, 1, 60, 127
3, 41418, Note_off_c, 1, 60, 0
3, 41424, Note_on_c, 1, 60, 127
3, 41466, Note_off_c, 1, 60, 0
3, 41472, Note_on_c, 1, 60, 127
3, 41514, Note_off_c, 1, 60, 0
3, 41520, Note_on_c, 1, 60, 127
3, 41562, Note_off_c, 1, 60, 0
3, 41568, Note_on_c, 1, 60, 127
3, 41652, Note_off_c, 1, 60, 0
3, 41856, Note_on_c, 1, 60, 127
3, 41940, Note_off_c, 1, 60, 0
3, 41952, Note_on_c, 1, 60, 127
3, 41994, Note_off_c, 1, 60, 0
3, 42000, Note_on_c, 1, 60, 127
3, 42042, Note_off_c, 1, 60, 0
3, 42048, Note_on_c, 1, 60, 127
3, 42090, Note_off_c, 1, 60, 0
3, 42096, Note_on_c, 1, 60, 127
3, 42138, Note_off_c, 1, 60, 0
3, 42144, Note_on_c, 1, 67, 127
3, 42228, Note_off_c, 1, 67, 0
3, 42432, Note_on_c, 1, 67, 127
3, 42516, Note_off_c, 1, 67, 0
3, 42528, Note_on_c, 1, 67, 127
3, 42570, Note_off_c, 1, 67, 0
3, 42576, Note_on_c, 1, 67, 127
3, 42618, Note_off_c, 1, 67, 0
3, 42624, Note_on_c, 1, 67, 127
3, 42666, Note_off_c, 1, 67, 0
3, 42672, Note_on_c, 1, 67, 127
3, 42714, Note_off_c, 1, 67, 0
3, 42720, Note_on_c, 1, 67, 127
3, 42804, Note_off_c, 1, 67, 0
3, 43008, Note_on_c, 1, 67, 127
3, 43092, Note_off_c, 1, 67, 0
3, 43104, Note_on_c, 1, 67, 127
3, 43146, Note_off_c, 1, 67, 0
3, 43152, Note_on_c, 1, 67, 127
3, 43194, Note_off_c, 1, 67, 0
3, 43200, Note_on_c, 1, 67, 127
3, 43242, Note_off_c, 1, 67, 0
3, 43248, Note_on_c, 1, 67, 127
3, 43290, Note_off_c, 1, 67, 0
3, 43296, Note_on_c, 1, 67, 127
3, 43380, Note_off_c, 1, 67, 0
3, 43584, Note_on_c, 1, 67, 127
3, 43668, Note_off_c, 1, 67, 0
3, 43680, Note_on_c, 1, 60, 127
3, 43722, Note_off_c, 1, 60, 0
3, 43728, Note_on_c, 1, 60, 127
3, 43770, Note_off_c, 1, 60, 0
3, 43776, Note_on_c, 1, 60, 127
3, 43818, Note_off_c, 1, 60, 0
3, 43824, Note_on_c, 1, 60, 127
3, 43866, Note_off_c, 1, 60, 0
3, 43872, Note_on_c, 1, 65, 127
3, 43956, Note_off_c, 1, 65, 0
3, 43968, Note_on_c, 1, 60, 127
3, 44010, Note_off_c, 1, 60, 0
3, 44016, Note_on_c, 1, 60, 127
3, 44058, Note_off_c, 1, 60, 0
3, 44064, Note_on_c, 1, 60, 127
3, 44106, Note_off_c, 1, 60, 0
3, 44112, Note_on_c, 1, 60, 127
3, 44154, Note_off_c, 1, 60, 0
3, 44160, Note_on_c, 1, 57, 127
3, 44436, Note_off_c, 1, 57, 0
3, 44736, Tempo, 1000000
3, 44736, End_track
4, 0, Start_track
4, 0, Title_t, "Oboe I (Sequenced by:)"
4, 0, Control_c, 2, 0, 0
4, 0, Program_c, 2, 68
4, 0, Time_signature, 3, 2, 96, 8
4, 0, Tempo, 1000000
4, 96, Tempo, 428571
4, 96, Note_on_c, 2, 72, 62
4, 180, Note_off_c, 2, 72, 0
4, 192, Note_on_c, 2, 75, 62
4, 276, Note_off_c, 2, 75, 0
4, 288, Note_on_c, 2, 74, 62
4, 372, Note_off_c, 2, 74, 0
4, 384, Note_on_c, 2, 72, 62
4, 468, Note_off_c, 2, 72, 0
4, 480, Note_on_c, 2, 70, 62
4, 522, Note_off_c, 2, 70, 0
4, 528, Note_on_c, 2, 69, 62
4, 570, Note_off_c, 2, 69, 0
4, 576, Note_on_c, 2, 70, 62
4, 660, Note_off_c, 2, 70, 0
4, 672, Note_on_c, 2, 72, 62
4, 756, Note_off_c, 2, 72, 0
4, 768, Note_on_c, 2, 75, 62
4, 852, Note_off_c, 2, 75, 0
4, 864, Note_on_c, 2, 74, 62
4, 948, Note_off_c, 2, 74, 0
4, 960, Note_on_c, 2, 74, 62
4, 970, Note_off_c, 2, 74, 0
4, 972, Note_on_c, 2, 72, 62
4, 982, Note_off_c, 2, 72, 0
4, 984, Note_on_c, 2, 74, 62
4, 994, Note_off_c, 2, 74, 0
4, 996, Note_on_c, 2, 72, 62
4, 1006, Note_off_c, 2, 72, 0
4, 1008, Note_on_c, 2, 74, 62
4, 1018, Note_off_c, 2, 74, 0
4, 1020, Note_on_c, 2, 72, 62
4, 1030, Note_off_c, 2, 72, 0
4, 1032, Note_on_c, 2, 74, 62
4, 1042, Note_off_c, 2, 74, 0
4, 1044, Note_on_c, 2, 72, 62
4, 1054, Note_off_c, 2, 72, 0
4, 1056, Note_on_c, 2, 74, 62
4, 1066, Note_off_c, 2, 74, 0
4, 1068, Note_on_c, 2, 72, 62
4, 1078, Note_off_c, 2, 72, 0
4, 1080, Note_on_c, 2, 74, 62
4, 1090, Note_off_c, 2, 74, 0
4, 1092, Note_on_c, 2, 72, 62
4, 1102, Note_off_c, 2, 72, 0
4, 1104, Note_on_c, 2, 74, 62
4, 1114, Note_off_c, 2, 74, 0
4, 1116, Note_on_c, 2, 72, 62
4, 1126, Note_off_c, 2, 72, 0
4, 1128, Note_on_c, 2, 74, 62
4, 1138, Note_off_c, 2, 74, 0
4, 1140, Note_on_c, 2, 72, 62
4, 1150, Note_off_c, 2, 72, 0
4, 1152, Note_on_c, 2, 77, 62
4, 1236, Note_off_c, 2, 77, 0
4, 1248, Note_on_c, 2, 70, 62
4, 1332, Note_off_c, 2, 70, 0
4, 1344, Note_on_c, 2, 67, 62
4, 1428, Note_off_c, 2, 67, 0
4, 1440, Note_on_c, 2, 69, 62
4, 1524, Note_off_c, 2, 69, 0
4, 1536, Note_on_c, 2, 70, 62
4, 1620, Note_off_c, 2, 70, 0
4, 1632, Note_on_c, 2, 74, 62
4, 1812, Note_off_c, 2, 74, 0
4, 1824, Note_on_c, 2, 70, 62
4, 1908, Note_off_c, 2, 70, 0
4, 1920, Note_on_c, 2, 69, 62
4, 1962, Note_off_c, 2, 69, 0
4, 1968, Note_on_c, 2, 67, 62
4, 2010, Note_off_c, 2, 67, 0
4, 2016, Note_on_c, 2, 72, 62
4, 2100, Note_off_c, 2, 72, 0
4, 2112, Note_on_c, 2, 69, 62
4, 2292, Note_off_c, 2, 69, 0
4, 2304, Note_on_c, 2, 67, 62
4, 2388, Note_off_c, 2, 67, 0
4, 2400, Note_on_c, 2, 71, 62
4, 2442, Note_off_c, 2, 71, 0
4, 2448, Note_on_c, 2, 72, 62
4, 2490, Note_off_c, 2, 72, 0
4, 2496, Note_on_c, 2, 74, 62
4, 2506, Note_off_c, 2, 74, 0
4, 2508, Note_on_c, 2, 72, 62
4, 2518, Note_off_c, 2, 72, 0
4, 2520, Note_on_c, 2, 74, 62
4, 2530, Note_off_c, 2, 74, 0
4, 2532, Note_on_c, 2, 72, 62
4, 2542, Note_off_c, 2, 72, 0
4, 2544, Note_on_c, 2, 74, 62
4, 2554, Note_off_c, 2, 74, 0
4, 2556, Note_on_c, 2, 72, 62
4, 2566, Note_off_c, 2, 72, 0
4, 2568, Note_on_c, 2, 74, 62
4, 2578, Note_off_c, 2, 74, 0
4, 2580, Note_on_c, 2, 72, 62
4, 2590, Note_off_c, 2, 72, 0
4, 2592, Note_on_c, 2, 74, 62
4, 2602, Note_off_c, 2, 74, 0
4, 2604, Note_on_c, 2, 72, 62
4, 2614, Note_off_c, 2, 72, 0
4, 2616, Note_on_c, 2, 74, 62
4, 2626, Note_off_c, 2, 74, 0
4, 2628, Note_on_c, 2, 72, 62
4, 2638, Note_off_c, 2, 72, 0
4, 2640, Note_on_c, 2, 71, 62
4, 2661, Note_off_c, 2, 71, 0
4, 2664, Note_on_c, 2, 72, 62
4, 2685, Note_off_c, 2, 72, 0
4, 2688, Note_on_c, 2, 74, 62
4, 2772, Note_off_c, 2, 74, 0
4, 2784, Note_on_c, 2, 72, 62
4, 2826, Note_off_c, 2, 72, 0
4, 2832, Note_on_c, 2, 71, 62
4, 2874, Note_off_c, 2, 71, 0
4, 2880, Note_on_c, 2, 72, 62
4, 2964, Note_off_c, 2, 72, 0
4, 2976, Note_on_c, 2, 77, 62
4, 3018, Note_off_c, 2, 77, 0
4, 3024, Note_on_c, 2, 79, 62
4, 3066, Note_off_c, 2, 79, 0
4, 3072, Note_on_c, 2, 74, 62
4, 3204, Note_off_c, 2, 74, 0
4, 3216, Note_on_c, 2, 72, 62
4, 3258, Note_off_c, 2, 72, 0
4, 3264, Note_on_c, 2, 72, 62
4, 3540, Note_off_c, 2, 72, 0
4, 3552, Note_on_c, 2, 72, 62
4, 3636, Note_off_c, 2, 72, 0
4, 3648, Note_on_c, 2, 75, 62
4, 3732, Note_off_c, 2, 75, 0
4, 3744, Note_on_c, 2, 74, 62
4, 3828, Note_off_c, 2, 74, 0
4, 3840, Note_on_c, 2, 72, 62
4, 3924, Note_off_c, 2, 72, 0
4, 3936, Note_on_c, 2, 70, 62
4, 3978, Note_off_c, 2, 70, 0
4, 3984, Note_on_c, 2, 69, 62
4, 4026, Note_off_c, 2, 69, 0
4, 4032, Note_on_c, 2, 70, 62
4, 4116, Note_off_c, 2, 70, 0
4, 4128, Note_on_c, 2, 72, 62
4, 4212, Note_off_c, 2, 72, 0
4, 4224, Note_on_c, 2, 75, 62
4, 4308, Note_off_c, 2, 75, 0
4, 4320, Note_on_c, 2, 74, 62
4, 4404, Note_off_c, 2, 74, 0
4, 4416, Note_on_c, 2, 74, 62
4, 4426, Note_off_c, 2, 74, 0
4, 4428, Note_on_c, 2, 72, 62
4, 4438, Note_off_c, 2, 72, 0
4, 4440, Note_on_c, 2, 74, 62
4, 4450, Note_off_c, 2, 74, 0
4, 4452, Note_on_c, 2, 72, 62
4, 4462, Note_off_c, 2, 72, 0
4, 4464, Note_on_c, 2, 74, 62
4, 4474, Note_off_c, 2, 74, 0
4, 4476, Note_on_c, 2, 72, 62
4, 4486, Note_off_c, 2, 72, 0
4, 4488, Note_on_c, 2, 74, 62
4, 4498, Note_off_c, 2, 74, 0
4, 4500, Note_on_c, 2, 72, 62
4, 4510, Note_off_c, 2, 72, 0
4, 4512, Note_on_c, 2, 74, 62
4, 4522, Note_off_c, 2, 74, 0
4, 4524, Note_on_c, 2, 72, 62
4, 4534, Note_off_c, 2, 72, 0
4, 4536, Note_on_c, 2, 74, 62
4, 4546, Note_off_c, 2, 74, 0
4, 4548, Note_on_c, 2, 72, 62
4, 4558, Note_off_c, 2, 72, 0
4, 4560, Note_on_c, 2, 74, 62
4, 4570, Note_off_c, 2, 74, 0
4, 4572, Note_on_c, 2, 72, 62
4, 4582, Note_off_c, 2, 72, 0
4, 4584, Note_on_c, 2, 74, 62
4, 4594, Note_off_c, 2, 74, 0
4, 4596, Note_on_c, 2, 72, 62
4, 4606, Note_off_c, 2, 72, 0
4, 4608, Note_on_c, 2, 77, 62
4, 4692, Note_off_c, 2, 77, 0
4, 4704, Note_on_c, 2, 70, 62
4, 4788, Note_off_c, 2, 70, 0
4, 4800, Note_on_c, 2, 67, 62
4, 4884, Note_off_c, 2, 67, 0
4, 4896, Note_on_c, 2, 69, 62
4, 4980, Note_off_c, 2, 69, 0
4, 4992, Note_on_c, 2, 70, 62
4, 5076, Note_off_c, 2, 70, 0
4, 5088, Note_on_c, 2, 74, 62
4, 5268, Note_off_c, 2, 74, 0
4, 5280, Note_on_c, 2, 70, 62
4, 5364, Note_off_c, 2, 70, 0
4, 5376, Note_on_c, 2, 69, 62
4, 5418, Note_off_c, 2, 69, 0
4, 5424, Note_on_c, 2, 67, 62
4, 5466, Note_off_c, 2, 67, 0
4, 5472, Note_on_c, 2, 72, 62
4, 5556, Note_off_c, 2, 72, 0
4, 5568, Note_on_c, 2, 69, 62
4, 5748, Note_off_c, 2, 69, 0
4, 5760, Note_on_c, 2, 67, 62
4, 5844, Note_off_c, 2, 67, 0
4, 5856, Note_on_c, 2, 71, 62
4, 5898, Note_off_c, 2, 71, 0
4, 5904, Note_on_c, 2, 72, 62
4, 5946, Note_off_c, 2, 72, 0
4, 5952, Note_on_c, 2, 74, 62
4, 5962, Note_off_c, 2, 74, 0
4, 5964, Note_on_c, 2, 72, 62
4, 5974, Note_off_c, 2, 72, 0
4, 5976, Note_on_c, 2, 74, 62
4, 5986, Note_off_c, 2, 74, 0
4, 5988, Note_on_c, 2, 72, 62
4, 5998, Note_off_c, 2, 72, 0
4, 6000, Note_on_c, 2, 74, 62
4, 6010, Note_off_c, 2, 74, 0
4, 6012, Note_on_c, 2, 72, 62
4, 6022, Note_off_c, 2, 72, 0
4, 6024, Note_on_c, 2, 74, 62
4, 6034, Note_off_c, 2, 74, 0
4, 6036, Note_on_c, 2, 72, 62
4, 6046, Note_off_c, 2, 72, 0
4, 6048, Note_on_c, 2, 74, 62
4, 6058, Note_off_c, 2, 74, 0
4, 6060, Note_on_c, 2, 72, 62
4, 6070, Note_off_c, 2, 72, 0
4, 6072, Note_on_c, 2, 74, 62
4, 6082, Note_off_c, 2, 74, 0
4, 6084, Note_on_c, 2, 72, 62
4, 6094, Note_off_c, 2, 72, 0
4, 6096, Note_on_c, 2, 71, 62
4, 6117, Note_off_c, 2, 71, 0
4, 6120, Note_on_c, 2, 72, 62
4, 6141, Note_off_c, 2, 72, 0
4, 6144, Note_on_c, 2, 74, 62
4, 6228, Note_off_c, 2, 74, 0
4, 6240, Note_on_c, 2, 72, 62
4, 6282, Note_off_c, 2, 72, 0
4, 6288, Note_on_c, 2, 71, 62
4, 6330, Note_off_c, 2, 71, 0
4, 6336, Note_on_c, 2, 72, 62
4, 6420, Note_off_c, 2, 72, 0
4, 6432, Note_on_c, 2, 77, 62
4, 6474, Note_off_c, 2, 77, 0
4, 6480, Note_on_c, 2, 79, 62
4, 6522, Note_off_c, 2, 79, 0
4, 6528, Note_on_c, 2, 74, 62
4, 6660, Note_off_c, 2, 74, 0
4, 6672, Note_on_c, 2, 72, 62
4, 6714, Note_off_c, 2, 72, 0
4, 6720, Note_on_c, 2, 72, 62
4, 6996, Note_off_c, 2, 72, 0
4, 7008, Note_on_c, 2, 79, 62
4, 7092, Note_off_c, 2, 79, 0
4, 7104, Note_on_c, 2, 82, 62
4, 7188, Note_off_c, 2, 82, 0
4, 7200, Note_on_c, 2, 81, 62
4, 7284, Note_off_c, 2, 81, 0
4, 7296, Note_on_c, 2, 79, 62
4, 7380, Note_off_c, 2, 79, 0
4, 7392, Note_on_c, 2, 77, 62
4, 7434, Note_off_c, 2, 77, 0
4, 7440, Note_on_c, 2, 76, 62
4, 7482, Note_off_c, 2, 76, 0
4, 7488, Note_on_c, 2, 77, 62
4, 7572, Note_off_c, 2, 77, 0
4, 7584, Note_on_c, 2, 79, 62
4, 7668, Note_off_c, 2, 79, 0
4, 7680, Note_on_c, 2, 82, 62
4, 7764, Note_off_c, 2, 82, 0
4, 7776, Note_on_c, 2, 81, 62
4, 7860, Note_off_c, 2, 81, 0
4, 7872, Note_on_c, 2, 81, 62
4, 7882, Note_off_c, 2, 81, 0
4, 7884, Note_on_c, 2, 79, 62
4, 7894, Note_off_c, 2, 79, 0
4, 7896, Note_on_c, 2, 81, 62
4, 7906, Note_off_c, 2, 81, 0
4, 7908, Note_on_c, 2, 79, 62
4, 7918, Note_off_c, 2, 79, 0
4, 7920, Note_on_c, 2, 81, 62
4, 7930, Note_off_c, 2, 81, 0
4, 7932, Note_on_c, 2, 79, 62
4, 7942, Note_off_c, 2, 79, 0
4, 7944, Note_on_c, 2, 81, 62
4, 7954, Note_off_c, 2, 81, 0
4, 7956, Note_on_c, 2, 79, 62
4, 7966, Note_off_c, 2, 79, 0
4, 7968, Note_on_c, 2, 81, 62
4, 7978, Note_off_c, 2, 81, 0
4, 7980, Note_on_c, 2, 79, 62
4, 7990, Note_off_c, 2, 79, 0
4, 7992, Note_on_c, 2, 81, 62
4, 8002, Note_off_c, 2, 81, 0
4, 8004, Note_on_c, 2, 79, 62
4, 8014, Note_off_c, 2, 79, 0
4, 8016, Note_on_c, 2, 81, 62
4, 8026, Note_off_c, 2, 81, 0
4, 8028, Note_on_c, 2, 79, 62
4, 8038, Note_off_c, 2, 79, 0
4, 8040, Note_on_c, 2, 81, 62
4, 8050, Note_off_c, 2, 81, 0
4, 8052, Note_on_c, 2, 79, 62
4, 8062, Note_off_c, 2, 79, 0
4, 8064, Note_on_c, 2, 84, 62
4, 8148, Note_off_c, 2, 84, 0
4, 8160, Note_on_c, 2, 77, 62
4, 8244, Note_off_c, 2, 77, 0
4, 8256, Note_on_c, 2, 74, 62
4, 8340, Note_off_c, 2, 74, 0
4, 8352, Note_on_c, 2, 76, 62
4, 8436, Note_off_c, 2, 76, 0
4, 8448, Note_on_c, 2, 77, 62
4, 8532, Note_off_c, 2, 77, 0
4, 8544, Note_on_c, 2, 81, 62
4, 8724, Note_off_c, 2, 81, 0
4, 8736, Note_on_c, 2, 77, 62
4, 8820, Note_off_c, 2, 77, 0
4, 8832, Note_on_c, 2, 76, 62
4, 8874, Note_off_c, 2, 76, 0
4, 8880, Note_on_c, 2, 74, 62
4, 8922, Note_off_c, 2, 74, 0
4, 8928, Note_on_c, 2, 79, 62
4, 9012, Note_off_c, 2, 79, 0
4, 9024, Note_on_c, 2, 76, 62
4, 9156, Note_off_c, 2, 76, 0
4, 9168, Note_on_c, 2, 77, 62
4, 9210, Note_off_c, 2, 77, 0
4, 9216, Note_on_c, 2, 79, 62
4, 9226, Note_off_c, 2, 79, 0
4, 9228, Note_on_c, 2, 77, 62
4, 9238, Note_off_c, 2, 77, 0
4, 9240, Note_on_c, 2, 79, 62
4, 9250, Note_off_c, 2, 79, 0
4, 9252, Note_on_c, 2, 77, 62
4, 9262, Note_off_c, 2, 77, 0
4, 9264, Note_on_c, 2, 79, 62
4, 9274, Note_off_c, 2, 79, 0
4, 9276, Note_on_c, 2, 77, 62
4, 9286, Note_off_c, 2, 77, 0
4, 9288, Note_on_c, 2, 76, 62
4, 9298, Note_off_c, 2, 76, 0
4, 9300, Note_on_c, 2, 77, 62
4, 9310, Note_off_c, 2, 77, 0
4, 9312, Note_on_c, 2, 79, 62
4, 9354, Note_off_c, 2, 79, 0
4, 9360, Note_on_c, 2, 81, 62
4, 9402, Note_off_c, 2, 81, 0
4, 9408, Note_on_c, 2, 82, 62
4, 9418, Note_off_c, 2, 82, 0
4, 9420, Note_on_c, 2, 81, 62
4, 9430, Note_off_c, 2, 81, 0
4, 9432, Note_on_c, 2, 82, 62
4, 9442, Note_off_c, 2, 82, 0
4, 9444, Note_on_c, 2, 81, 62
4, 9454, Note_off_c, 2, 81, 0
4, 9456, Note_on_c, 2, 82, 62
4, 9466, Note_off_c, 2, 82, 0
4, 9468, Note_on_c, 2, 81, 62
4, 9478, Note_off_c, 2, 81, 0
4, 9480, Note_on_c, 2, 82, 62
4, 9490, Note_off_c, 2, 82, 0
4, 9492, Note_on_c, 2, 81, 62
4, 9502, Note_off_c, 2, 81, 0
4, 9504, Note_on_c, 2, 82, 62
4, 9514, Note_off_c, 2, 82, 0
4, 9516, Note_on_c, 2, 81, 62
4, 9526, Note_off_c, 2, 81, 0
4, 9528, Note_on_c, 2, 82, 62
4, 9538, Note_off_c, 2, 82, 0
4, 9540, Note_on_c, 2, 81, 62
4, 9550, Note_off_c, 2, 81, 0
4, 9552, Note_on_c, 2, 79, 62
4, 9573, Note_off_c, 2, 79, 0
4, 9576, Note_on_c, 2, 81, 62
4, 9597, Note_off_c, 2, 81, 0
4, 9600, Note_on_c, 2, 82, 62
4, 9684, Note_off_c, 2, 82, 0
4, 9696, Note_on_c, 2, 81, 62
4, 9738, Note_off_c, 2, 81, 0
4, 9744, Note_on_c, 2, 79, 62
4, 9786, Note_off_c, 2, 79, 0
4, 9792, Note_on_c, 2, 84, 62
4, 9876, Note_off_c, 2, 84, 0
4, 9888, Note_on_c, 2, 77, 62
4, 9930, Note_off_c, 2, 77, 0
4, 9936, Note_on_c, 2, 79, 62
4, 9978, Note_off_c, 2, 79, 0
4, 9984, Note_on_c, 2, 76, 62
4, 10116, Note_off_c, 2, 76, 0
4, 10128, Note_on_c, 2, 77, 62
4, 10170, Note_off_c, 2, 77, 0
4, 10176, Note_on_c, 2, 77, 62
4, 10452, Note_off_c, 2, 77, 0
4, 10464, Note_on_c, 2, 79, 62
4, 10548, Note_off_c, 2, 79, 0
4, 10560, Note_on_c, 2, 82, 62
4, 10644, Note_off_c, 2, 82, 0
4, 10656, Note_on_c, 2, 81, 62
4, 10740, Note_off_c, 2, 81, 0
4, 10752, Note_on_c, 2, 79, 62
4, 10836, Note_off_c, 2, 79, 0
4, 10848, Note_on_c, 2, 77, 62
4, 10890, Note_off_c, 2, 77, 0
4, 10896, Note_on_c, 2, 76, 62
4, 10938, Note_off_c, 2, 76, 0
4, 10944, Note_on_c, 2, 77, 62
4, 11028, Note_off_c, 2, 77, 0
4, 11040, Note_on_c, 2, 79, 62
4, 11124, Note_off_c, 2, 79, 0
4, 11136, Note_on_c, 2, 82, 62
4, 11220, Note_off_c, 2, 82, 0
4, 11232, Note_on_c, 2, 81, 62
4, 11316, Note_off_c, 2, 81, 0
4, 11328, Note_on_c, 2, 81, 62
4, 11338, Note_off_c, 2, 81, 0
4, 11340, Note_on_c, 2, 79, 62
4, 11350, Note_off_c, 2, 79, 0
4, 11352, Note_on_c, 2, 81, 62
4, 11362, Note_off_c, 2, 81, 0
4, 11364, Note_on_c, 2, 79, 62
4, 11374, Note_off_c, 2, 79, 0
4, 11376, Note_on_c, 2, 81, 62
4, 11386, Note_off_c, 2, 81, 0
4, 11388, Note_on_c, 2, 79, 62
4, 11398, Note_off_c, 2, 79, 0
4, 11400, Note_on_c, 2, 81, 62
4, 11410, Note_off_c, 2, 81, 0
4, 11412, Note_on_c, 2, 79, 62
4, 11422, Note_off_c, 2, 79, 0
4, 11424, Note_on_c, 2, 81, 62
4, 11434, Note_off_c, 2, 81, 0
4, 11436, Note_on_c, 2, 79, 62
4, 11446, Note_off_c, 2, 79, 0
4, 11448, Note_on_c, 2, 81, 62
4, 11458, Note_off_c, 2, 81, 0
4, 11460, Note_on_c, 2, 79, 62
4, 11470, Note_off_c, 2, 79, 0
4, 11472, Note_on_c, 2, 81, 62
4, 11482, Note_off_c, 2, 81, 0
4, 11484, Note_on_c, 2, 79, 62
4, 11494, Note_off_c, 2, 79, 0
4, 11496, Note_on_c, 2, 81, 62
4, 11506, Note_off_c, 2, 81, 0
4, 11508, Note_on_c, 2, 79, 62
4, 11518, Note_off_c, 2, 79, 0
4, 11520, Note_on_c, 2, 84, 62
4, 11604, Note_off_c, 2, 84, 0
4, 11616, Note_on_c, 2, 77, 62
4, 11700, Note_off_c, 2, 77, 0
4, 11712, Note_on_c, 2, 74, 62
4, 11796, Note_off_c, 2, 74, 0
4, 11808, Note_on_c, 2, 76, 62
4, 11892, Note_off_c, 2, 76, 0
4, 11904, Note_on_c, 2, 77, 62
4, 11988, Note_off_c, 2, 77, 0
4, 12000, Note_on_c, 2, 81, 62
4, 12180, Note_off_c, 2, 81, 0
4, 12192, Note_on_c, 2, 77, 62
4, 12276, Note_off_c, 2, 77, 0
4, 12288, Note_on_c, 2, 76, 62
4, 12330, Note_off_c, 2, 76, 0
4, 12336, Note_on_c, 2, 74, 62
4, 12378, Note_off_c, 2, 74, 0
4, 12384, Note_on_c, 2, 79, 62
4, 12468, Note_off_c, 2, 79, 0
4, 12480, Note_on_c, 2, 76, 62
4, 12612, Note_off_c, 2, 76, 0
4, 12624, Note_on_c, 2, 77, 62
4, 12666, Note_off_c, 2, 77, 0
4, 12672, Note_on_c, 2, 79, 62
4, 12682, Note_off_c, 2, 79, 0
4, 12684, Note_on_c, 2, 77, 62
4, 12694, Note_off_c, 2, 77, 0
4, 12696, Note_on_c, 2, 79, 62
4, 12706, Note_off_c, 2, 79, 0
4, 12708, Note_on_c, 2, 77, 62
4, 12718, Note_off_c, 2, 77, 0
4, 12720, Note_on_c, 2, 79, 62
4, 12730, Note_off_c, 2, 79, 0
4, 12732, Note_on_c, 2, 77, 62
4, 12742, Note_off_c, 2, 77, 0
4, 12744, Note_on_c, 2, 76, 62
4, 12754, Note_off_c, 2, 76, 0
4, 12756, Note_on_c, 2, 77, 62
4, 12766, Note_off_c, 2, 77, 0
4, 12768, Note_on_c, 2, 79, 62
4, 12810, Note_off_c, 2, 79, 0
4, 12816, Note_on_c, 2, 81, 62
4, 12858, Note_off_c, 2, 81, 0
4, 12864, Note_on_c, 2, 82, 62
4, 12874, Note_off_c, 2, 82, 0
4, 12876, Note_on_c, 2, 81, 62
4, 12886, Note_off_c, 2, 81, 0
4, 12888, Note_on_c, 2, 82, 62
4, 12898, Note_off_c, 2, 82, 0
4, 12900, Note_on_c, 2, 81, 62
4, 12910, Note_off_c, 2, 81, 0
4, 12912, Note_on_c, 2, 82, 62
4, 12922, Note_off_c, 2, 82, 0
4, 12924, Note_on_c, 2, 81, 62
4, 12934, Note_off_c, 2, 81, 0
4, 12936, Note_on_c, 2, 82, 62
4, 12946, Note_off_c, 2, 82, 0
4, 12948, Note_on_c, 2, 81, 62
4, 12958, Note_off_c, 2, 81, 0
4, 12960, Note_on_c, 2, 82, 62
4, 12970, Note_off_c, 2, 82, 0
4, 12972, Note_on_c, 2, 81, 62
4, 12982, Note_off_c, 2, 81, 0
4, 12984, Note_on_c, 2, 82, 62
4, 12994, Note_off_c, 2, 82, 0
4, 12996, Note_on_c, 2, 81, 62
4, 13006, Note_off_c, 2, 81, 0
4, 13008, Note_on_c, 2, 79, 62
4, 13029, Note_off_c, 2, 79, 0
4, 13032, Note_on_c, 2, 81, 62
4, 13053, Note_off_c, 2, 81, 0
4, 13056, Note_on_c, 2, 82, 62
4, 13140, Note_off_c, 2, 82, 0
4, 13152, Note_on_c, 2, 81, 62
4, 13194, Note_off_c, 2, 81, 0
4, 13200, Note_on_c, 2, 79, 62
4, 13242, Note_off_c, 2, 79, 0
4, 13248, Note_on_c, 2, 84, 62
4, 13332, Note_off_c, 2, 84, 0
4, 13344, Note_on_c, 2, 77, 62
4, 13386, Note_off_c, 2, 77, 0
4, 13392, Note_on_c, 2, 79, 62
4, 13434, Note_off_c, 2, 79, 0
4, 13440, Note_on_c, 2, 76, 62
4, 13572, Note_off_c, 2, 76, 0
4, 13584, Note_on_c, 2, 77, 62
4, 13626, Note_off_c, 2, 77, 0
4, 13632, Note_on_c, 2, 77, 62
4, 13908, Note_off_c, 2, 77, 0
4, 14208, Tempo, 500000
4, 14208, Note_on_c, 2, 77, 96
4, 14388, Note_off_c, 2, 77, 0
4, 14400, Note_on_c, 2, 79, 96
4, 14484, Note_off_c, 2, 79, 0
4, 14496, Note_on_c, 2, 76, 96
4, 14676, Note_off_c, 2, 76, 0
4, 14688, Note_on_c, 2, 77, 96
4, 14772, Note_off_c, 2, 77, 0
4, 14784, Note_on_c, 2, 74, 96
4, 14868, Note_off_c, 2, 74, 0
4, 14880, Note_on_c, 2, 82, 96
4, 15060, Note_off_c, 2, 82, 0
4, 15072, Note_on_c, 2, 81, 96
4, 15082, Note_off_c, 2, 81, 0
4, 15084, Note_on_c, 2, 79, 96
4, 15094, Note_off_c, 2, 79, 0
4, 15096, Note_on_c, 2, 81, 96
4, 15106, Note_off_c, 2, 81, 0
4, 15108, Note_on_c, 2, 79, 96
4, 15118, Note_off_c, 2, 79, 0
4, 15120, Note_on_c, 2, 81, 96
4, 15130, Note_off_c, 2, 81, 0
4, 15132, Note_on_c, 2, 79, 96
4, 15142, Note_off_c, 2, 79, 0
4, 15144, Note_on_c, 2, 81, 96
4, 15154, Note_off_c, 2, 81, 0
4, 15156, Note_on_c, 2, 79, 96
4, 15166, Note_off_c, 2, 79, 0
4, 15168, Note_on_c, 2, 81, 96
4, 15178, Note_off_c, 2, 81, 0
4, 15180, Note_on_c, 2, 79, 96
4, 15190, Note_off_c, 2, 79, 0
4, 15192, Note_on_c, 2, 81, 96
4, 15202, Note_off_c, 2, 81, 0
4, 15204, Note_on_c, 2, 79, 96
4, 15214, Note_off_c, 2, 79, 0
4, 15216, Note_on_c, 2, 77, 96
4, 15237, Note_off_c, 2, 77, 0
4, 15240, Note_on_c, 2, 79, 96
4, 15261, Note_off_c, 2, 79, 0
4, 15264, Note_on_c, 2, 81, 96
4, 15348, Note_off_c, 2, 81, 0
4, 15360, Note_on_c, 2, 74, 96
4, 15540, Note_off_c, 2, 74, 0
4, 15552, Note_on_c, 2, 76, 96
4, 15636, Note_off_c, 2, 76, 0
4, 15648, Note_on_c, 2, 73, 96
4, 15732, Note_off_c, 2, 73, 0
4, 15744, Note_on_c, 2, 71, 96
4, 15786, Note_off_c, 2, 71, 0
4, 15792, Note_on_c, 2, 69, 96
4, 15834, Note_off_c, 2, 69, 0
4, 15840, Note_on_c, 2, 74, 96
4, 15924, Note_off_c, 2, 74, 0
4, 15936, Note_on_c, 2, 76, 96
4, 15978, Note_off_c, 2, 76, 0
4, 15984, Note_on_c, 2, 77, 96
4, 16026, Note_off_c, 2, 77, 0
4, 16032, Note_on_c, 2, 79, 96
4, 16042, Note_off_c, 2, 79, 0
4, 16044, Note_on_c, 2, 77, 96
4, 16054, Note_off_c, 2, 77, 0
4, 16056, Note_on_c, 2, 79, 96
4, 16066, Note_off_c, 2, 79, 0
4, 16068, Note_on_c, 2, 77, 96
4, 16078, Note_off_c, 2, 77, 0
4, 16080, Note_on_c, 2, 79, 96
4, 16090, Note_off_c, 2, 79, 0
4, 16092, Note_on_c, 2, 77, 96
4, 16102, Note_off_c, 2, 77, 0
4, 16104, Note_on_c, 2, 79, 96
4, 16114, Note_off_c, 2, 79, 0
4, 16116, Note_on_c, 2, 77, 96
4, 16126, Note_off_c, 2, 77, 0
4, 16128, Note_on_c, 2, 79, 96
4, 16138, Note_off_c, 2, 79, 0
4, 16140, Note_on_c, 2, 77, 96
4, 16150, Note_off_c, 2, 77, 0
4, 16152, Note_on_c, 2, 79, 96
4, 16162, Note_off_c, 2, 79, 0
4, 16164, Note_on_c, 2, 77, 96
4, 16174, Note_off_c, 2, 77, 0
4, 16176, Note_on_c, 2, 76, 96
4, 16218, Note_off_c, 2, 76, 0
4, 16224, Note_on_c, 2, 76, 96
4, 16500, Note_off_c, 2, 76, 0
4, 16512, Tempo, 500000
4, 16512, Note_on_c, 2, 77, 96
4, 16692, Note_off_c, 2, 77, 0
4, 16704, Note_on_c, 2, 79, 96
4, 16788, Note_off_c, 2, 79, 0
4, 16800, Note_on_c, 2, 76, 96
4, 16980, Note_off_c, 2, 76, 0
4, 16992, Note_on_c, 2, 77, 96
4, 17076, Note_off_c, 2, 77, 0
4, 17088, Note_on_c, 2, 74, 96
4, 17172, Note_off_c, 2, 74, 0
4, 17184, Note_on_c, 2, 82, 96
4, 17364, Note_off_c, 2, 82, 0
4, 17376, Note_on_c, 2, 81, 96
4, 17386, Note_off_c, 2, 81, 0
4, 17388, Note_on_c, 2, 79, 96
4, 17398, Note_off_c, 2, 79, 0
4, 17400, Note_on_c, 2, 81, 96
4, 17410, Note_off_c, 2, 81, 0
4, 17412, Note_on_c, 2, 79, 96
4, 17422, Note_off_c, 2, 79, 0
4, 17424, Note_on_c, 2, 81, 96
4, 17434, Note_off_c, 2, 81, 0
4, 17436, Note_on_c, 2, 79, 96
4, 17446, Note_off_c, 2, 79, 0
4, 17448, Note_on_c, 2, 81, 96
4, 17458, Note_off_c, 2, 81, 0
4, 17460, Note_on_c, 2, 79, 96
4, 17470, Note_off_c, 2, 79, 0
4, 17472, Note_on_c, 2, 81, 96
4, 17482, Note_off_c, 2, 81, 0
4, 17484, Note_on_c, 2, 79, 96
4, 17494, Note_off_c, 2, 79, 0
4, 17496, Note_on_c, 2, 81, 96
4, 17506, Note_off_c, 2, 81, 0
4, 17508, Note_on_c, 2, 79, 96
4, 17518, Note_off_c, 2, 79, 0
4, 17520, Note_on_c, 2, 77, 96
4, 17541, Note_off_c, 2, 77, 0
4, 17544, Note_on_c, 2, 79, 96
4, 17565, Note_off_c, 2, 79, 0
4, 17568, Note_on_c, 2, 81, 96
4, 17652, Note_off_c, 2, 81, 0
4, 17664, Note_on_c, 2, 74, 96
4, 17844, Note_off_c, 2, 74, 0
4, 17856, Note_on_c, 2, 76, 96
4, 17940, Note_off_c, 2, 76, 0
4, 17952, Note_on_c, 2, 73, 96
4, 18036, Note_off_c, 2, 73, 0
4, 18048, Note_on_c, 2, 71, 96
4, 18090, Note_off_c, 2, 71, 0
4, 18096, Note_on_c, 2, 69, 96
4, 18138, Note_off_c, 2, 69, 0
4, 18144, Note_on_c, 2, 74, 96
4, 18228, Note_off_c, 2, 74, 0
4, 18240, Note_on_c, 2, 76, 96
4, 18282, Note_off_c, 2, 76, 0
4, 18288, Note_on_c, 2, 77, 96
4, 18330, Note_off_c, 2, 77, 0
4, 18336, Note_on_c, 2, 79, 96
4, 18346, Note_off_c, 2, 79, 0
4, 18348, Note_on_c, 2, 77, 96
4, 18358, Note_off_c, 2, 77, 0
4, 18360, Note_on_c, 2, 79, 96
4, 18370, Note_off_c, 2, 79, 0
4, 18372, Note_on_c, 2, 77, 96
4, 18382, Note_off_c, 2, 77, 0
4, 18384, Note_on_c, 2, 79, 96
4, 18394, Note_off_c, 2, 79, 0
4, 18396, Note_on_c, 2, 77, 96
4, 18406, Note_off_c, 2, 77, 0
4, 18408, Note_on_c, 2, 79, 96
4, 18418, Note_off_c, 2, 79, 0
4, 18420, Note_on_c, 2, 77, 96
4, 18430, Note_off_c, 2, 77, 0
4, 18432, Note_on_c, 2, 79, 96
4, 18442, Note_off_c, 2, 79, 0
4, 18444, Note_on_c, 2, 77, 96
4, 18454, Note_off_c, 2, 77, 0
4, 18456, Note_on_c, 2, 79, 96
4, 18466, Note_off_c, 2, 79, 0
4, 18468, Note_on_c, 2, 77, 96
4, 18478, Note_off_c, 2, 77, 0
4, 18480, Note_on_c, 2, 76, 96
4, 18522, Note_off_c, 2, 76, 0
4, 18528, Note_on_c, 2, 76, 96
4, 18804, Note_off_c, 2, 76, 0
4, 18816, Note_on_c, 2, 76, 96
4, 18996, Note_off_c, 2, 76, 0
4, 19008, Note_on_c, 2, 77, 96
4, 19092, Note_off_c, 2, 77, 0
4, 19104, Note_on_c, 2, 79, 96
4, 19284, Note_off_c, 2, 79, 0
4, 19296, Note_on_c, 2, 76, 96
4, 19380, Note_off_c, 2, 76, 0
4, 19392, Note_on_c, 2, 77, 96
4, 19476, Note_off_c, 2, 77, 0
4, 19488, Note_on_c, 2, 74, 96
4, 19530, Note_off_c, 2, 74, 0
4, 19536, Note_on_c, 2, 76, 96
4, 19546, Note_off_c, 2, 76, 0
4, 19548, Note_on_c, 2, 74, 96
4, 19558, Note_off_c, 2, 74, 0
4, 19560, Note_on_c, 2, 76, 96
4, 19570, Note_off_c, 2, 76, 0
4, 19572, Note_on_c, 2, 74, 96
4, 19582, Note_off_c, 2, 74, 0
4, 19584, Note_on_c, 2, 79, 96
4, 19668, Note_off_c, 2, 79, 0
4, 19680, Note_on_c, 2, 77, 96
4, 19722, Note_off_c, 2, 77, 0
4, 19728, Note_on_c, 2, 76, 96
4, 19770, Note_off_c, 2, 76, 0
4, 19776, Note_on_c, 2, 74, 96
4, 19818, Note_off_c, 2, 74, 0
4, 19824, Note_on_c, 2, 76, 96
4, 19866, Note_off_c, 2, 76, 0
4, 19872, Note_on_c, 2, 72, 96
4, 19914, Note_off_c, 2, 72, 0
4, 19920, Note_on_c, 2, 74, 96
4, 19962, Note_off_c, 2, 74, 0
4, 19968, Note_on_c, 2, 76, 96
4, 20010, Note_off_c, 2, 76, 0
4, 20016, Note_on_c, 2, 78, 96
4, 20058, Note_off_c, 2, 78, 0
4, 20064, Note_on_c, 2, 79, 96
4, 20074, Note_off_c, 2, 79, 0
4, 20076, Note_on_c, 2, 78, 96
4, 20086, Note_off_c, 2, 78, 0
4, 20088, Note_on_c, 2, 79, 96
4, 20098, Note_off_c, 2, 79, 0
4, 20100, Note_on_c, 2, 78, 96
4, 20110, Note_off_c, 2, 78, 0
4, 20112, Note_on_c, 2, 79, 96
4, 20122, Note_off_c, 2, 79, 0
4, 20124, Note_on_c, 2, 78, 96
4, 20134, Note_off_c, 2, 78, 0
4, 20136, Note_on_c, 2, 79, 96
4, 20146, Note_off_c, 2, 79, 0
4, 20148, Note_on_c, 2, 78, 96
4, 20158, Note_off_c, 2, 78, 0
4, 20160, Note_on_c, 2, 79, 96
4, 20170, Note_off_c, 2, 79, 0
4, 20172, Note_on_c, 2, 78, 96
4, 20182, Note_off_c, 2, 78, 0
4, 20184, Note_on_c, 2, 79, 96
4, 20194, Note_off_c, 2, 79, 0
4, 20196, Note_on_c, 2, 78, 96
4, 20206, Note_off_c, 2, 78, 0
4, 20208, Note_on_c, 2, 76, 96
4, 20229, Note_off_c, 2, 76, 0
4, 20232, Note_on_c, 2, 78, 96
4, 20253, Note_off_c, 2, 78, 0
4, 20256, Note_on_c, 2, 79, 96
4, 20298, Note_off_c, 2, 79, 0
4, 20304, Note_on_c, 2, 81, 96
4, 20346, Note_off_c, 2, 81, 0
4, 20352, Note_on_c, 2, 82, 96
4, 20362, Note_off_c, 2, 82, 0
4, 20364, Note_on_c, 2, 81, 96
4, 20374, Note_off_c, 2, 81, 0
4, 20376, Note_on_c, 2, 82, 96
4, 20386, Note_off_c, 2, 82, 0
4, 20388, Note_on_c, 2, 81, 96
4, 20398, Note_off_c, 2, 81, 0
4, 20400, Note_on_c, 2, 82, 96
4, 20410, Note_off_c, 2, 82, 0
4, 20412, Note_on_c, 2, 81, 96
4, 20422, Note_off_c, 2, 81, 0
4, 20424, Note_on_c, 2, 82, 96
4, 20434, Note_off_c, 2, 82, 0
4, 20436, Note_on_c, 2, 81, 96
4, 20446, Note_off_c, 2, 81, 0
4, 20448, Note_on_c, 2, 82, 96
4, 20458, Note_off_c, 2, 82, 0
4, 20460, Note_on_c, 2, 81, 96
4, 20470, Note_off_c, 2, 81, 0
4, 20472, Note_on_c, 2, 82, 96
4, 20482, Note_off_c, 2, 82, 0
4, 20484, Note_on_c, 2, 81, 96
4, 20494, Note_off_c, 2, 81, 0
4, 20496, Note_on_c, 2, 79, 96
4, 20517, Note_off_c, 2, 79, 0
4, 20520, Note_on_c, 2, 81, 96
4, 20541, Note_off_c, 2, 81, 0
4, 20544, Note_on_c, 2, 82, 96
4, 20628, Note_off_c, 2, 82, 0
4, 20640, Note_on_c, 2, 79, 96
4, 20724, Note_off_c, 2, 79, 0
4, 20736, Note_on_c, 2, 78, 96
4, 20820, Note_off_c, 2, 78, 0
4, 20832, Note_on_c, 2, 79, 96
4, 21108, Note_off_c, 2, 79, 0
4, 21120, Note_on_c, 2, 82, 96
4, 21396, Note_off_c, 2, 82, 0
4, 21408, Note_on_c, 2, 81, 96
4, 21972, Note_off_c, 2, 81, 0
4, 21984, Note_on_c, 2, 81, 96
4, 21994, Note_off_c, 2, 81, 0
4, 21996, Note_on_c, 2, 79, 96
4, 22006, Note_off_c, 2, 79, 0
4, 22008, Note_on_c, 2, 81, 96
4, 22018, Note_off_c, 2, 81, 0
4, 22020, Note_on_c, 2, 79, 96
4, 22030, Note_off_c, 2, 79, 0
4, 22032, Note_on_c, 2, 81, 96
4, 22042, Note_off_c, 2, 81, 0
4, 22044, Note_on_c, 2, 79, 96
4, 22054, Note_off_c, 2, 79, 0
4, 22056, Note_on_c, 2, 81, 96
4, 22066, Note_off_c, 2, 81, 0
4, 22068, Note_on_c, 2, 79, 96
4, 22078, Note_off_c, 2, 79, 0
4, 22080, Note_on_c, 2, 81, 96
4, 22090, Note_off_c, 2, 81, 0
4, 22092, Note_on_c, 2, 79, 96
4, 22102, Note_off_c, 2, 79, 0
4, 22104, Note_on_c, 2, 81, 96
4, 22114, Note_off_c, 2, 81, 0
4, 22116, Note_on_c, 2, 79, 96
4, 22126, Note_off_c, 2, 79, 0
4, 22128, Note_on_c, 2, 77, 96
4, 22149, Note_off_c, 2, 77, 0
4, 22152, Note_on_c, 2, 79, 96
4, 22173, Note_off_c, 2, 79, 0
4, 22176, Note_on_c, 2, 81, 96
4, 22260, Note_off_c, 2, 81, 0
4, 22272, Note_on_c, 2, 77, 96
4, 22452, Note_off_c, 2, 77, 0
4, 22464, Note_on_c, 2, 79, 96
4, 22548, Note_off_c, 2, 79, 0
4, 22560, Note_on_c, 2, 76, 96
4, 22740, Note_off_c, 2, 76, 0
4, 22752, Note_on_c, 2, 77, 96
4, 22836, Note_off_c, 2, 77, 0
4, 22848, Note_on_c, 2, 74, 96
4, 22932, Note_off_c, 2, 74, 0
4, 22944, Note_on_c, 2, 82, 96
4, 23124, Note_off_c, 2, 82, 0
4, 23136, Note_on_c, 2, 81, 96
4, 23146, Note_off_c, 2, 81, 0
4, 23148, Note_on_c, 2, 79, 96
4, 23158, Note_off_c, 2, 79, 0
4, 23160, Note_on_c, 2, 81, 96
4, 23170, Note_off_c, 2, 81, 0
4, 23172, Note_on_c, 2, 79, 96
4, 23182, Note_off_c, 2, 79, 0
4, 23184, Note_on_c, 2, 81, 96
4, 23194, Note_off_c, 2, 81, 0
4, 23196, Note_on_c, 2, 79, 96
4, 23206, Note_off_c, 2, 79, 0
4, 23208, Note_on_c, 2, 81, 96
4, 23218, Note_off_c, 2, 81, 0
4, 23220, Note_on_c, 2, 79, 96
4, 23230, Note_off_c, 2, 79, 0
4, 23232, Note_on_c, 2, 81, 96
4, 23242, Note_off_c, 2, 81, 0
4, 23244, Note_on_c, 2, 79, 96
4, 23254, Note_off_c, 2, 79, 0
4, 23256, Note_on_c, 2, 81, 96
4, 23266, Note_off_c, 2, 81, 0
4, 23268, Note_on_c, 2, 79, 96
4, 23278, Note_off_c, 2, 79, 0
4, 23280, Note_on_c, 2, 77, 96
4, 23301, Note_off_c, 2, 77, 0
4, 23304, Note_on_c, 2, 79, 96
4, 23325, Note_off_c, 2, 79, 0
4, 23328, Note_on_c, 2, 81, 96
4, 23412, Note_off_c, 2, 81, 0
4, 23424, Note_on_c, 2, 74, 96
4, 23604, Note_off_c, 2, 74, 0
4, 23616, Note_on_c, 2, 76, 96
4, 23700, Note_off_c, 2, 76, 0
4, 23712, Note_on_c, 2, 73, 96
4, 23754, Note_off_c, 2, 73, 0
4, 23760, Note_on_c, 2, 76, 96
4, 23802, Note_off_c, 2, 76, 0
4, 23808, Note_on_c, 2, 79, 96
4, 23940, Note_off_c, 2, 79, 0
4, 23952, Note_on_c, 2, 81, 96
4, 23994, Note_off_c, 2, 81, 0
4, 24000, Note_on_c, 2, 79, 96
4, 24042, Note_off_c, 2, 79, 0
4, 24048, Note_on_c, 2, 77, 96
4, 24090, Note_off_c, 2, 77, 0
4, 24096, Note_on_c, 2, 76, 96
4, 24138, Note_off_c, 2, 76, 0
4, 24144, Note_on_c, 2, 74, 96
4, 24186, Note_off_c, 2, 74, 0
4, 24192, Note_on_c, 2, 76, 96
4, 24234, Note_off_c, 2, 76, 0
4, 24240, Note_on_c, 2, 73, 96
4, 24282, Note_off_c, 2, 73, 0
4, 24288, Note_on_c, 2, 74, 96
4, 24564, Note_off_c, 2, 74, 0
4, 24576, Note_on_c, 2, 76, 96
4, 24756, Note_off_c, 2, 76, 0
4, 24768, Note_on_c, 2, 77, 96
4, 24852, Note_off_c, 2, 77, 0
4, 24864, Note_on_c, 2, 79, 96
4, 25044, Note_off_c, 2, 79, 0
4, 25056, Note_on_c, 2, 76, 96
4, 25140, Note_off_c, 2, 76, 0
4, 25152, Note_on_c, 2, 77, 96
4, 25236, Note_off_c, 2, 77, 0
4, 25248, Note_on_c, 2, 74, 96
4, 25290, Note_off_c, 2, 74, 0
4, 25296, Note_on_c, 2, 76, 96
4, 25306, Note_off_c, 2, 76, 0
4, 25308, Note_on_c, 2, 74, 96
4, 25318, Note_off_c, 2, 74, 0
4, 25320, Note_on_c, 2, 76, 96
4, 25330, Note_off_c, 2, 76, 0
4, 25332, Note_on_c, 2, 74, 96
4, 25342, Note_off_c, 2, 74, 0
4, 25344, Note_on_c, 2, 79, 96
4, 25428, Note_off_c, 2, 79, 0
4, 25440, Note_on_c, 2, 77, 96
4, 25482, Note_off_c, 2, 77, 0
4, 25488, Note_on_c, 2, 76, 96
4, 25530, Note_off_c, 2, 76, 0
4, 25536, Note_on_c, 2, 74, 96
4, 25578, Note_off_c, 2, 74, 0
4, 25584, Note_on_c, 2, 76, 96
4, 25626, Note_off_c, 2, 76, 0
4, 25632, Note_on_c, 2, 72, 96
4, 25674, Note_off_c, 2, 72, 0
4, 25680, Note_on_c, 2, 74, 96
4, 25722, Note_off_c, 2, 74, 0
4, 25728, Note_on_c, 2, 76, 96
4, 25770, Note_off_c, 2, 76, 0
4, 25776, Note_on_c, 2, 78, 96
4, 25818, Note_off_c, 2, 78, 0
4, 25824, Note_on_c, 2, 79, 96
4, 25834, Note_off_c, 2, 79, 0
4, 25836, Note_on_c, 2, 78, 96
4, 25846, Note_off_c, 2, 78, 0
4, 25848, Note_on_c, 2, 79, 96
4, 25858, Note_off_c, 2, 79, 0
4, 25860, Note_on_c, 2, 78, 96
4, 25870, Note_off_c, 2, 78, 0
4, 25872, Note_on_c, 2, 79, 96
4, 25882, Note_off_c, 2, 79, 0
4, 25884, Note_on_c, 2, 78, 96
4, 25894, Note_off_c, 2, 78, 0
4, 25896, Note_on_c, 2, 79, 96
4, 25906, Note_off_c, 2, 79, 0
4, 25908, Note_on_c, 2, 78, 96
4, 25918, Note_off_c, 2, 78, 0
4, 25920, Note_on_c, 2, 79, 96
4, 25930, Note_off_c, 2, 79, 0
4, 25932, Note_on_c, 2, 78, 96
4, 25942, Note_off_c, 2, 78, 0
4, 25944, Note_on_c, 2, 79, 96
4, 25954, Note_off_c, 2, 79, 0
4, 25956, Note_on_c, 2, 78, 96
4, 25966, Note_off_c, 2, 78, 0
4, 25968, Note_on_c, 2, 76, 96
4, 25989, Note_off_c, 2, 76, 0
4, 25992, Note_on_c, 2, 78, 96
4, 26013, Note_off_c, 2, 78, 0
4, 26016, Note_on_c, 2, 79, 96
4, 26058, Note_off_c, 2, 79, 0
4, 26064, Note_on_c, 2, 81, 96
4, 26106, Note_off_c, 2, 81, 0
4, 26112, Note_on_c, 2, 82, 96
4, 26122, Note_off_c, 2, 82, 0
4, 26124, Note_on_c, 2, 81, 96
4, 26134, Note_off_c, 2, 81, 0
4, 26136, Note_on_c, 2, 82, 96
4, 26146, Note_off_c, 2, 82, 0
4, 26148, Note_on_c, 2, 81, 96
4, 26158, Note_off_c, 2, 81, 0
4, 26160, Note_on_c, 2, 82, 96
4, 26170, Note_off_c, 2, 82, 0
4, 26172, Note_on_c, 2, 81, 96
4, 26182, Note_off_c, 2, 81, 0
4, 26184, Note_on_c, 2, 82, 96
4, 26194, Note_off_c, 2, 82, 0
4, 26196, Note_on_c, 2, 81, 96
4, 26206, Note_off_c, 2, 81, 0
4, 26208, Note_on_c, 2, 82, 96
4, 26218, Note_off_c, 2, 82, 0
4, 26220, Note_on_c, 2, 81, 96
4, 26230, Note_off_c, 2, 81, 0
4, 26232, Note_on_c, 2, 82, 96
4, 26242, Note_off_c, 2, 82, 0
4, 26244, Note_on_c, 2, 81, 96
4, 26254, Note_off_c, 2, 81, 0
4, 26256, Note_on_c, 2, 79, 96
4, 26277, Note_off_c, 2, 79, 0
4, 26280, Note_on_c, 2, 81, 96
4, 26301, Note_off_c, 2, 81, 0
4, 26304, Note_on_c, 2, 82, 96
4, 26388, Note_off_c, 2, 82, 0
4, 26400, Note_on_c, 2, 79, 96
4, 26484, Note_off_c, 2, 79, 0
4, 26496, Note_on_c, 2, 78, 96
4, 26580, Note_off_c, 2, 78, 0
4, 26592, Note_on_c, 2, 79, 96
4, 26868, Note_off_c, 2, 79, 0
4, 26880, Note_on_c, 2, 82, 96
4, 27156, Note_off_c, 2, 82, 0
4, 27168, Note_on_c, 2, 81, 96
4, 27732, Note_off_c, 2, 81, 0
4, 27744, Note_on_c, 2, 81, 96
4, 27754, Note_off_c, 2, 81, 0
4, 27756, Note_on_c, 2, 79, 96
4, 27766, Note_off_c, 2, 79, 0
4, 27768, Note_on_c, 2, 81, 96
4, 27778, Note_off_c, 2, 81, 0
4, 27780, Note_on_c, 2, 79, 96
4, 27790, Note_off_c, 2, 79, 0
4, 27792, Note_on_c, 2, 81, 96
4, 27802, Note_off_c, 2, 81, 0
4, 27804, Note_on_c, 2, 79, 96
4, 27814, Note_off_c, 2, 79, 0
4, 27816, Note_on_c, 2, 81, 96
4, 27826, Note_off_c, 2, 81, 0
4, 27828, Note_on_c, 2, 79, 96
4, 27838, Note_off_c, 2, 79, 0
4, 27840, Note_on_c, 2, 81, 96
4, 27850, Note_off_c, 2, 81, 0
4, 27852, Note_on_c, 2, 79, 96
4, 27862, Note_off_c, 2, 79, 0
4, 27864, Note_on_c, 2, 81, 96
4, 27874, Note_off_c, 2, 81, 0
4, 27876, Note_on_c, 2, 79, 96
4, 27886, Note_off_c, 2, 79, 0
4, 27888, Note_on_c, 2, 77, 96
4, 27909, Note_off_c, 2, 77, 0
4, 27912, Note_on_c, 2, 79, 96
4, 27933, Note_off_c, 2, 79, 0
4, 27936, Note_on_c, 2, 81, 96
4, 28020, Note_off_c, 2, 81, 0
4, 28032, Note_on_c, 2, 77, 96
4, 28212, Note_off_c, 2, 77, 0
4, 28224, Note_on_c, 2, 79, 96
4, 28308, Note_off_c, 2, 79, 0
4, 28320, Note_on_c, 2, 76, 96
4, 28500, Note_off_c, 2, 76, 0
4, 28512, Note_on_c, 2, 77, 96
4, 28596, Note_off_c, 2, 77, 0
4, 28608, Note_on_c, 2, 74, 96
4, 28692, Note_off_c, 2, 74, 0
4, 28704, Note_on_c, 2, 82, 96
4, 28884, Note_off_c, 2, 82, 0
4, 28896, Note_on_c, 2, 81, 96
4, 28906, Note_off_c, 2, 81, 0
4, 28908, Note_on_c, 2, 79, 96
4, 28918, Note_off_c, 2, 79, 0
4, 28920, Note_on_c, 2, 81, 96
4, 28930, Note_off_c, 2, 81, 0
4, 28932, Note_on_c, 2, 79, 96
4, 28942, Note_off_c, 2, 79, 0
4, 28944, Note_on_c, 2, 81, 96
4, 28954, Note_off_c, 2, 81, 0
4, 28956, Note_on_c, 2, 79, 96
4, 28966, Note_off_c, 2, 79, 0
4, 28968, Note_on_c, 2, 81, 96
4, 28978, Note_off_c, 2, 81, 0
4, 28980, Note_on_c, 2, 79, 96
4, 28990, Note_off_c, 2, 79, 0
4, 28992, Note_on_c, 2, 81, 96
4, 29002, Note_off_c, 2, 81, 0
4, 29004, Note_on_c, 2, 79, 96
4, 29014, Note_off_c, 2, 79, 0
4, 29016, Note_on_c, 2, 81, 96
4, 29026, Note_off_c, 2, 81, 0
4, 29028, Note_on_c, 2, 79, 96
4, 29038, Note_off_c, 2, 79, 0
4, 29040, Note_on_c, 2, 77, 96
4, 29061, Note_off_c, 2, 77, 0
4, 29064, Note_on_c, 2, 79, 96
4, 29085, Note_off_c, 2, 79, 0
4, 29088, Note_on_c, 2, 81, 96
4, 29172, Note_off_c, 2, 81, 0
4, 29184, Note_on_c, 2, 74, 96
4, 29364, Note_off_c, 2, 74, 0
4, 29376, Note_on_c, 2, 76, 96
4, 29460, Note_off_c, 2, 76, 0
4, 29472, Note_on_c, 2, 73, 96
4, 29514, Note_off_c, 2, 73, 0
4, 29520, Note_on_c, 2, 76, 96
4, 29562, Note_off_c, 2, 76, 0
4, 29568, Note_on_c, 2, 79, 96
4, 29700, Note_off_c, 2, 79, 0
4, 29712, Note_on_c, 2, 81, 96
4, 29754, Note_off_c, 2, 81, 0
4, 29760, Note_on_c, 2, 79, 96
4, 29802, Note_off_c, 2, 79, 0
4, 29808, Note_on_c, 2, 77, 96
4, 29850, Note_off_c, 2, 77, 0
4, 29856, Note_on_c, 2, 76, 96
4, 29898, Note_off_c, 2, 76, 0
4, 29904, Note_on_c, 2, 74, 96
4, 29946, Note_off_c, 2, 74, 0
4, 29952, Note_on_c, 2, 76, 96
4, 29994, Note_off_c, 2, 76, 0
4, 30000, Note_on_c, 2, 73, 96
4, 30042, Note_off_c, 2, 73, 0
4, 30048, Note_on_c, 2, 74, 96
4, 30324, Note_off_c, 2, 74, 0
4, 30624, Tempo, 428571
4, 30624, Note_on_c, 2, 72, 62
4, 30708, Note_off_c, 2, 72, 0
4, 30720, Note_on_c, 2, 75, 62
4, 30804, Note_off_c, 2, 75, 0
4, 30816, Note_on_c, 2, 74, 62
4, 30900, Note_off_c, 2, 74, 0
4, 30912, Note_on_c, 2, 72, 62
4, 30996, Note_off_c, 2, 72, 0
4, 31008, Note_on_c, 2, 70, 62
4, 31050, Note_off_c, 2, 70, 0
4, 31056, Note_on_c, 2, 69, 62
4, 31098, Note_off_c, 2, 69, 0
4, 31104, Note_on_c, 2, 70, 62
4, 31188, Note_off_c, 2, 70, 0
4, 31200, Note_on_c, 2, 72, 62
4, 31284, Note_off_c, 2, 72, 0
4, 31296, Note_on_c, 2, 75, 62
4, 31380, Note_off_c, 2, 75, 0
4, 31392, Note_on_c, 2, 74, 62
4, 31476, Note_off_c, 2, 74, 0
4, 31488, Note_on_c, 2, 74, 62
4, 31498, Note_off_c, 2, 74, 0
4, 31500, Note_on_c, 2, 72, 62
4, 31510, Note_off_c, 2, 72, 0
4, 31512, Note_on_c, 2, 74, 62
4, 31522, Note_off_c, 2, 74, 0
4, 31524, Note_on_c, 2, 72, 62
4, 31534, Note_off_c, 2, 72, 0
4, 31536, Note_on_c, 2, 74, 62
4, 31546, Note_off_c, 2, 74, 0
4, 31548, Note_on_c, 2, 72, 62
4, 31558, Note_off_c, 2, 72, 0
4, 31560, Note_on_c, 2, 74, 62
4, 31570, Note_off_c, 2, 74, 0
4, 31572, Note_on_c, 2, 72, 62
4, 31582, Note_off_c, 2, 72, 0
4, 31584, Note_on_c, 2, 74, 62
4, 31594, Note_off_c, 2, 74, 0
4, 31596, Note_on_c, 2, 72, 62
4, 31606, Note_off_c, 2, 72, 0
4, 31608, Note_on_c, 2, 74, 62
4, 31618, Note_off_c, 2, 74, 0
4, 31620, Note_on_c, 2, 72, 62
4, 31630, Note_off_c, 2, 72, 0
4, 31632, Note_on_c, 2, 74, 62
4, 31642, Note_off_c, 2, 74, 0
4, 31644, Note_on_c, 2, 72, 62
4, 31654, Note_off_c, 2, 72, 0
4, 31656, Note_on_c, 2, 74, 62
4, 31666, Note_off_c, 2, 74, 0
4, 31668, Note_on_c, 2, 72, 62
4, 31678, Note_off_c, 2, 72, 0
4, 31680, Note_on_c, 2, 77, 62
4, 31764, Note_off_c, 2, 77, 0
4, 31776, Note_on_c, 2, 70, 62
4, 31860, Note_off_c, 2, 70, 0
4, 31872, Note_on_c, 2, 67, 62
4, 31956, Note_off_c, 2, 67, 0
4, 31968, Note_on_c, 2, 69, 62
4, 32052, Note_off_c, 2, 69, 0
4, 32064, Note_on_c, 2, 70, 62
4, 32148, Note_off_c, 2, 70, 0
4, 32160, Note_on_c, 2, 74, 62
4, 32340, Note_off_c, 2, 74, 0
4, 32352, Note_on_c, 2, 70, 62
4, 32436, Note_off_c, 2, 70, 0
4, 32448, Note_on_c, 2, 69, 62
4, 32490, Note_off_c, 2, 69, 0
4, 32496, Note_on_c, 2, 67, 62
4, 32538, Note_off_c, 2, 67, 0
4, 32544, Note_on_c, 2, 72, 62
4, 32628, Note_off_c, 2, 72, 0
4, 32640, Note_on_c, 2, 69, 62
4, 32820, Note_off_c, 2, 69, 0
4, 32832, Note_on_c, 2, 67, 62
4, 32916, Note_off_c, 2, 67, 0
4, 32928, Note_on_c, 2, 71, 62
4, 32970, Note_off_c, 2, 71, 0
4, 32976, Note_on_c, 2, 72, 62
4, 33018, Note_off_c, 2, 72, 0
4, 33024, Note_on_c, 2, 74, 62
4, 33034, Note_off_c, 2, 74, 0
4, 33036, Note_on_c, 2, 72, 62
4, 33046, Note_off_c, 2, 72, 0
4, 33048, Note_on_c, 2, 74, 62
4, 33058, Note_off_c, 2, 74, 0
4, 33060, Note_on_c, 2, 72, 62
4, 33070, Note_off_c, 2, 72, 0
4, 33072, Note_on_c, 2, 74, 62
4, 33082, Note_off_c, 2, 74, 0
4, 33084, Note_on_c, 2, 72, 62
4, 33094, Note_off_c, 2, 72, 0
4, 33096, Note_on_c, 2, 74, 62
4, 33106, Note_off_c, 2, 74, 0
4, 33108, Note_on_c, 2, 72, 62
4, 33118, Note_off_c, 2, 72, 0
4, 33120, Note_on_c, 2, 74, 62
4, 33130, Note_off_c, 2, 74, 0
4, 33132, Note_on_c, 2, 72, 62
4, 33142, Note_off_c, 2, 72, 0
4, 33144, Note_on_c, 2, 74, 62
4, 33154, Note_off_c, 2, 74, 0
4, 33156, Note_on_c, 2, 72, 62
4, 33166, Note_off_c, 2, 72, 0
4, 33168, Note_on_c, 2, 71, 62
4, 33189, Note_off_c, 2, 71, 0
4, 33192, Note_on_c, 2, 72, 62
4, 33213, Note_off_c, 2, 72, 0
4, 33216, Note_on_c, 2, 74, 62
4, 33300, Note_off_c, 2, 74, 0
4, 33312, Note_on_c, 2, 72, 62
4, 33354, Note_off_c, 2, 72, 0
4, 33360, Note_on_c, 2, 71, 62
4, 33402, Note_off_c, 2, 71, 0
4, 33408, Note_on_c, 2, 72, 62
4, 33492, Note_off_c, 2, 72, 0
4, 33504, Note_on_c, 2, 77, 62
4, 33546, Note_off_c, 2, 77, 0
4, 33552, Note_on_c, 2, 79, 62
4, 33594, Note_off_c, 2, 79, 0
4, 33600, Note_on_c, 2, 74, 62
4, 33732, Note_off_c, 2, 74, 0
4, 33744, Note_on_c, 2, 72, 62
4, 33786, Note_off_c, 2, 72, 0
4, 33792, Note_on_c, 2, 72, 62
4, 34068, Note_off_c, 2, 72, 0
4, 34080, Note_on_c, 2, 72, 62
4, 34164, Note_off_c, 2, 72, 0
4, 34176, Note_on_c, 2, 75, 62
4, 34260, Note_off_c, 2, 75, 0
4, 34272, Note_on_c, 2, 74, 62
4, 34356, Note_off_c, 2, 74, 0
4, 34368, Note_on_c, 2, 72, 62
4, 34452, Note_off_c, 2, 72, 0
4, 34464, Note_on_c, 2, 70, 62
4, 34506, Note_off_c, 2, 70, 0
4, 34512, Note_on_c, 2, 69, 62
4, 34554, Note_off_c, 2, 69, 0
4, 34560, Note_on_c, 2, 70, 62
4, 34644, Note_off_c, 2, 70, 0
4, 34656, Note_on_c, 2, 72, 62
4, 34740, Note_off_c, 2, 72, 0
4, 34752, Note_on_c, 2, 75, 62
4, 34836, Note_off_c, 2, 75, 0
4, 34848, Note_on_c, 2, 74, 62
4, 34932, Note_off_c, 2, 74, 0
4, 34944, Note_on_c, 2, 74, 62
4, 34954, Note_off_c, 2, 74, 0
4, 34956, Note_on_c, 2, 72, 62
4, 34966, Note_off_c, 2, 72, 0
4, 34968, Note_on_c, 2, 74, 62
4, 34978, Note_off_c, 2, 74, 0
4, 34980, Note_on_c, 2, 72, 62
4, 34990, Note_off_c, 2, 72, 0
4, 34992, Note_on_c, 2, 74, 62
4, 35002, Note_off_c, 2, 74, 0
4, 35004, Note_on_c, 2, 72, 62
4, 35014, Note_off_c, 2, 72, 0
4, 35016, Note_on_c, 2, 74, 62
4, 35026, Note_off_c, 2, 74, 0
4, 35028, Note_on_c, 2, 72, 62
4, 35038, Note_off_c, 2, 72, 0
4, 35040, Note_on_c, 2, 74, 62
4, 35050, Note_off_c, 2, 74, 0
4, 35052, Note_on_c, 2, 72, 62
4, 35062, Note_off_c, 2, 72, 0
4, 35064, Note_on_c, 2, 74, 62
4, 35074, Note_off_c, 2, 74, 0
4, 35076, Note_on_c, 2, 72, 62
4, 35086, Note_off_c, 2, 72, 0
4, 35088, Note_on_c, 2, 74, 62
4, 35098, Note_off_c, 2, 74, 0
4, 35100, Note_on_c, 2, 72, 62
4, 35110, Note_off_c, 2, 72, 0
4, 35112, Note_on_c, 2, 74, 62
4, 35122, Note_off_c, 2, 74, 0
4, 35124, Note_on_c, 2, 72, 62
4, 35134, Note_off_c, 2, 72, 0
4, 35136, Note_on_c, 2, 77, 62
4, 35220, Note_off_c, 2, 77, 0
4, 35232, Note_on_c, 2, 70, 62
4, 35316, Note_off_c, 2, 70, 0
4, 35328, Note_on_c, 2, 67, 62
4, 35412, Note_off_c, 2, 67, 0
4, 35424, Note_on_c, 2, 69, 62
4, 35508, Note_off_c, 2, 69, 0
4, 35520, Note_on_c, 2, 70, 62
4, 35604, Note_off_c, 2, 70, 0
4, 35616, Note_on_c, 2, 74, 62
4, 35796, Note_off_c, 2, 74, 0
4, 35808, Note_on_c, 2, 70, 62
4, 35892, Note_off_c, 2, 70, 0
4, 35904, Note_on_c, 2, 69, 62
4, 35946, Note_off_c, 2, 69, 0
4, 35952, Note_on_c, 2, 67, 62
4, 35994, Note_off_c, 2, 67, 0
4, 36000, Note_on_c, 2, 72, 62
4, 36084, Note_off_c, 2, 72, 0
4, 36096, Note_on_c, 2, 69, 62
4, 36276, Note_off_c, 2, 69, 0
4, 36288, Note_on_c, 2, 67, 62
4, 36372, Note_off_c, 2, 67, 0
4, 36384, Note_on_c, 2, 71, 62
4, 36426, Note_off_c, 2, 71, 0
4, 36432, Note_on_c, 2, 72, 62
4, 36474, Note_off_c, 2, 72, 0
4, 36480, Note_on_c, 2, 74, 62
4, 36490, Note_off_c, 2, 74, 0
4, 36492, Note_on_c, 2, 72, 62
4, 36502, Note_off_c, 2, 72, 0
4, 36504, Note_on_c, 2, 74, 62
4, 36514, Note_off_c, 2, 74, 0
4, 36516, Note_on_c, 2, 72, 62
4, 36526, Note_off_c, 2, 72, 0
4, 36528, Note_on_c, 2, 74, 62
4, 36538, Note_off_c, 2, 74, 0
4, 36540, Note_on_c, 2, 72, 62
4, 36550, Note_off_c, 2, 72, 0
4, 36552, Note_on_c, 2, 74, 62
4, 36562, Note_off_c, 2, 74, 0
4, 36564, Note_on_c, 2, 72, 62
4, 36574, Note_off_c, 2, 72, 0
4, 36576, Note_on_c, 2, 74, 62
4, 36586, Note_off_c, 2, 74, 0
4, 36588, Note_on_c, 2, 72, 62
4, 36598, Note_off_c, 2, 72, 0
4, 36600, Note_on_c, 2, 74, 62
4, 36610, Note_off_c, 2, 74, 0
4, 36612, Note_on_c, 2, 72, 62
4, 36622, Note_off_c, 2, 72, 0
4, 36624, Note_on_c, 2, 71, 62
4, 36645, Note_off_c, 2, 71, 0
4, 36648, Note_on_c, 2, 72, 62
4, 36669, Note_off_c, 2, 72, 0
4, 36672, Note_on_c, 2, 74, 62
4, 36756, Note_off_c, 2, 74, 0
4, 36768, Note_on_c, 2, 72, 62
4, 36810, Note_off_c, 2, 72, 0
4, 36816, Note_on_c, 2, 71, 62
4, 36858, Note_off_c, 2, 71, 0
4, 36864, Note_on_c, 2, 72, 62
4, 36948, Note_off_c, 2, 72, 0
4, 36960, Note_on_c, 2, 77, 62
4, 37002, Note_off_c, 2, 77, 0
4, 37008, Note_on_c, 2, 79, 62
4, 37050, Note_off_c, 2, 79, 0
4, 37056, Note_on_c, 2, 74, 62
4, 37188, Note_off_c, 2, 74, 0
4, 37200, Note_on_c, 2, 72, 62
4, 37242, Note_off_c, 2, 72, 0
4, 37248, Note_on_c, 2, 72, 62
4, 37524, Note_off_c, 2, 72, 0
4, 37536, Note_on_c, 2, 79, 62
4, 37620, Note_off_c, 2, 79, 0
4, 37632, Note_on_c, 2, 82, 62
4, 37716, Note_off_c, 2, 82, 0
4, 37728, Note_on_c, 2, 81, 62
4, 37812, Note_off_c, 2, 81, 0
4, 37824, Note_on_c, 2, 79, 62
4, 37908, Note_off_c, 2, 79, 0
4, 37920, Note_on_c, 2, 77, 62
4, 37962, Note_off_c, 2, 77, 0
4, 37968, Note_on_c, 2, 76, 62
4, 38010, Note_off_c, 2, 76, 0
4, 38016, Note_on_c, 2, 77, 62
4, 38100, Note_off_c, 2, 77, 0
4, 38112, Note_on_c, 2, 79, 62
4, 38196, Note_off_c, 2, 79, 0
4, 38208, Note_on_c, 2, 82, 62
4, 38292, Note_off_c, 2, 82, 0
4, 38304, Note_on_c, 2, 81, 62
4, 38388, Note_off_c, 2, 81, 0
4, 38400, Note_on_c, 2, 81, 62
4, 38410, Note_off_c, 2, 81, 0
4, 38412, Note_on_c, 2, 79, 62
4, 38422, Note_off_c, 2, 79, 0
4, 38424, Note_on_c, 2, 81, 62
4, 38434, Note_off_c, 2, 81, 0
4, 38436, Note_on_c, 2, 79, 62
4, 38446, Note_off_c, 2, 79, 0
4, 38448, Note_on_c, 2, 81, 62
4, 38458, Note_off_c, 2, 81, 0
4, 38460, Note_on_c, 2, 79, 62
4, 38470, Note_off_c, 2, 79, 0
4, 38472, Note_on_c, 2, 81, 62
4, 38482, Note_off_c, 2, 81, 0
4, 38484, Note_on_c, 2, 79, 62
4, 38494, Note_off_c, 2, 79, 0
4, 38496, Note_on_c, 2, 81, 62
4, 38506, Note_off_c, 2, 81, 0
4, 38508, Note_on_c, 2, 79, 62
4, 38518, Note_off_c, 2, 79, 0
4, 38520, Note_on_c, 2, 81, 62
4, 38530, Note_off_c, 2, 81, 0
4, 38532, Note_on_c, 2, 79, 62
4, 38542, Note_off_c, 2, 79, 0
4, 38544, Note_on_c, 2, 81, 62
4, 38554, Note_off_c, 2, 81, 0
4, 38556, Note_on_c, 2, 79, 62
4, 38566, Note_off_c, 2, 79, 0
4, 38568, Note_on_c, 2, 81, 62
4, 38578, Note_off_c, 2, 81, 0
4, 38580, Note_on_c, 2, 79, 62
4, 38590, Note_off_c, 2, 79, 0
4, 38592, Note_on_c, 2, 84, 62
4, 38676, Note_off_c, 2, 84, 0
4, 38688, Note_on_c, 2, 77, 62
4, 38772, Note_off_c, 2, 77, 0
4, 38784, Note_on_c, 2, 74, 62
4, 38868, Note_off_c, 2, 74, 0
4, 38880, Note_on_c, 2, 76, 62
4, 38964, Note_off_c, 2, 76, 0
4, 38976, Note_on_c, 2, 77, 62
4, 39060, Note_off_c, 2, 77, 0
4, 39072, Note_on_c, 2, 81, 62
4, 39252, Note_off_c, 2, 81, 0
4, 39264, Note_on_c, 2, 77, 62
4, 39348, Note_off_c, 2, 77, 0
4, 39360, Note_on_c, 2, 76, 62
4, 39402, Note_off_c, 2, 76, 0
4, 39408, Note_on_c, 2, 74, 62
4, 39450, Note_off_c, 2, 74, 0
4, 39456, Note_on_c, 2, 79, 62
4, 39540, Note_off_c, 2, 79, 0
4, 39552, Note_on_c, 2, 76, 62
4, 39684, Note_off_c, 2, 76, 0
4, 39696, Note_on_c, 2, 77, 62
4, 39738, Note_off_c, 2, 77, 0
4, 39744, Note_on_c, 2, 79, 62
4, 39754, Note_off_c, 2, 79, 0
4, 39756, Note_on_c, 2, 77, 62
4, 39766, Note_off_c, 2, 77, 0
4, 39768, Note_on_c, 2, 79, 62
4, 39778, Note_off_c, 2, 79, 0
4, 39780, Note_on_c, 2, 77, 62
4, 39790, Note_off_c, 2, 77, 0
4, 39792, Note_on_c, 2, 79, 62
4, 39802, Note_off_c, 2, 79, 0
4, 39804, Note_on_c, 2, 77, 62
4, 39814, Note_off_c, 2, 77, 0
4, 39816, Note_on_c, 2, 76, 62
4, 39826, Note_off_c, 2, 76, 0
4, 39828, Note_on_c, 2, 77, 62
4, 39838, Note_off_c, 2, 77, 0
4, 39840, Note_on_c, 2, 79, 62
4, 39882, Note_off_c, 2, 79, 0
4, 39888, Note_on_c, 2, 81, 62
4, 39930, Note_off_c, 2, 81, 0
4, 39936, Note_on_c, 2, 82, 62
4, 39946, Note_off_c, 2, 82, 0
4, 39948, Note_on_c, 2, 81, 62
4, 39958, Note_off_c, 2, 81, 0
4, 39960, Note_on_c, 2, 82, 62
4, 39970, Note_off_c, 2, 82, 0
4, 39972, Note_on_c, 2, 81, 62
4, 39982, Note_off_c, 2, 81, 0
4, 39984, Note_on_c, 2, 82, 62
4, 39994, Note_off_c, 2, 82, 0
4, 39996, Note_on_c, 2, 81, 62
4, 40006, Note_off_c, 2, 81, 0
4, 40008, Note_on_c, 2, 82, 62
4, 40018, Note_off_c, 2, 82, 0
4, 40020, Note_on_c, 2, 81, 62
4, 40030, Note_off_c, 2, 81, 0
4, 40032, Note_on_c, 2, 82, 62
4, 40042, Note_off_c, 2, 82, 0
4, 40044, Note_on_c, 2, 81, 62
4, 40054, Note_off_c, 2, 81, 0
4, 40056, Note_on_c, 2, 82, 62
4, 40066, Note_off_c, 2, 82, 0
4, 40068, Note_on_c, 2, 81, 62
4, 40078, Note_off_c, 2, 81, 0
4, 40080, Note_on_c, 2, 79, 62
4, 40101, Note_off_c, 2, 79, 0
4, 40104, Note_on_c, 2, 81, 62
4, 40125, Note_off_c, 2, 81, 0
4, 40128, Note_on_c, 2, 82, 62
4, 40212, Note_off_c, 2, 82, 0
4, 40224, Note_on_c, 2, 81, 62
4, 40266, Note_off_c, 2, 81, 0
4, 40272, Note_on_c, 2, 79, 62
4, 40314, Note_off_c, 2, 79, 0
4, 40320, Note_on_c, 2, 84, 62
4, 40404, Note_off_c, 2, 84, 0
4, 40416, Note_on_c, 2, 77, 62
4, 40458, Note_off_c, 2, 77, 0
4, 40464, Note_on_c, 2, 79, 62
4, 40506, Note_off_c, 2, 79, 0
4, 40512, Note_on_c, 2, 76, 62
4, 40644, Note_off_c, 2, 76, 0
4, 40656, Note_on_c, 2, 77, 62
4, 40698, Note_off_c, 2, 77, 0
4, 40704, Note_on_c, 2, 77, 62
4, 40980, Note_off_c, 2, 77, 0
4, 40992, Note_on_c, 2, 79, 62
4, 41076, Note_off_c, 2, 79, 0
4, 41088, Note_on_c, 2, 82, 62
4, 41172, Note_off_c, 2, 82, 0
4, 41184, Note_on_c, 2, 81, 62
4, 41268, Note_off_c, 2, 81, 0
4, 41280, Note_on_c, 2, 79, 62
4, 41364, Note_off_c, 2, 79, 0
4, 41376, Note_on_c, 2, 77, 62
4, 41418, Note_off_c, 2, 77, 0
4, 41424, Note_on_c, 2, 76, 62
4, 41466, Note_off_c, 2, 76, 0
4, 41472, Note_on_c, 2, 77, 62
4, 41556, Note_off_c, 2, 77, 0
4, 41568, Note_on_c, 2, 79, 62
4, 41652, Note_off_c, 2, 79, 0
4, 41664, Note_on_c, 2, 82, 62
4, 41748, Note_off_c, 2, 82, 0
4, 41760, Note_on_c, 2, 81, 62
4, 41844, Note_off_c, 2, 81, 0
4, 41856, Note_on_c, 2, 81, 62
4, 41866, Note_off_c, 2, 81, 0
4, 41868, Note_on_c, 2, 79, 62
4, 41878, Note_off_c, 2, 79, 0
4, 41880, Note_on_c, 2, 81, 62
4, 41890, Note_off_c, 2, 81, 0
4, 41892, Note_on_c, 2, 79, 62
4, 41902, Note_off_c, 2, 79, 0
4, 41904, Note_on_c, 2, 81, 62
4, 41914, Note_off_c, 2, 81, 0
4, 41916, Note_on_c, 2, 79, 62
4, 41926, Note_off_c, 2, 79, 0
4, 41928, Note_on_c, 2, 81, 62
4, 41938, Note_off_c, 2, 81, 0
4, 41940, Note_on_c, 2, 79, 62
4, 41950, Note_off_c, 2, 79, 0
4, 41952, Note_on_c, 2, 81, 62
4, 41962, Note_off_c, 2, 81, 0
4, 41964, Note_on_c, 2, 79, 62
4, 41974, Note_off_c, 2, 79, 0
4, 41976, Note_on_c, 2, 81, 62
4, 41986, Note_off_c, 2, 81, 0
4, 41988, Note_on_c, 2, 79, 62
4, 41998, Note_off_c, 2, 79, 0
4, 42000, Note_on_c, 2, 81, 62
4, 42010, Note_off_c, 2, 81, 0
4, 42012, Note_on_c, 2, 79, 62
4, 42022, Note_off_c, 2, 79, 0
4, 42024, Note_on_c, 2, 81, 62
4, 42034, Note_off_c, 2, 81, 0
4, 42036, Note_on_c, 2, 79, 62
4, 42046, Note_off_c, 2, 79, 0
4, 42048, Note_on_c, 2, 84, 62
4, 42132, Note_off_c, 2, 84, 0
4, 42144, Note_on_c, 2, 77, 62
4, 42228, Note_off_c, 2, 77, 0
4, 42240, Note_on_c, 2, 74, 62
4, 42324, Note_off_c, 2, 74, 0
4, 42336, Note_on_c, 2, 76, 62
4, 42420, Note_off_c, 2, 76, 0
4, 42432, Note_on_c, 2, 77, 62
4, 42516, Note_off_c, 2, 77, 0
4, 42528, Note_on_c, 2, 81, 62
4, 42708, Note_off_c, 2, 81, 0
4, 42720, Note_on_c, 2, 77, 62
4, 42804, Note_off_c, 2, 77, 0
4, 42816, Note_on_c, 2, 76, 62
4, 42858, Note_off_c, 2, 76, 0
4, 42864, Note_on_c, 2, 74, 62
4, 42906, Note_off_c, 2, 74, 0
4, 42912, Note_on_c, 2, 79, 62
4, 42996, Note_off_c, 2, 79, 0
4, 43008, Note_on_c, 2, 76, 62
4, 43140, Note_off_c, 2, 76, 0
4, 43152, Note_on_c, 2, 77, 62
4, 43194, Note_off_c, 2, 77, 0
4, 43200, Note_on_c, 2, 79, 62
4, 43210, Note_off_c, 2, 79, 0
4, 43212, Note_on_c, 2, 77, 62
4, 43222, Note_off_c, 2, 77, 0
4, 43224, Note_on_c, 2, 79, 62
4, 43234, Note_off_c, 2, 79, 0
4, 43236, Note_on_c, 2, 77, 62
4, 43246, Note_off_c, 2, 77, 0
4, 43248, Note_on_c, 2, 79, 62
4, 43258, Note_off_c, 2, 79, 0
4, 43260, Note_on_c, 2, 77, 62
4, 43270, Note_off_c, 2, 77, 0
4, 43272, Note_on_c, 2, 76, 62
4, 43282, Note_off_c, 2, 76, 0
4, 43284, Note_on_c, 2, 77, 62
4, 43294, Note_off_c, 2, 77, 0
4, 43296, Note_on_c, 2, 79, 62
4, 43338, Note_off_c, 2, 79, 0
4, 43344, Note_on_c, 2, 81, 62
4, 43386, Note_off_c, 2, 81, 0
4, 43392, Note_on_c, 2, 82, 62
4, 43402, Note_off_c, 2, 82, 0
4, 43404, Note_on_c, 2, 81, 62
4, 43414, Note_off_c, 2, 81, 0
4, 43416, Note_on_c, 2, 82, 62
4, 43426, Note_off_c, 2, 82, 0
4, 43428, Note_on_c, 2, 81, 62
4, 43438, Note_off_c, 2, 81, 0
4, 43440, Note_on_c, 2, 82, 62
4, 43450, Note_off_c, 2, 82, 0
4, 43452, Note_on_c, 2, 81, 62
4, 43462, Note_off_c, 2, 81, 0
4, 43464, Note_on_c, 2, 82, 62
4, 43474, Note_off_c, 2, 82, 0
4, 43476, Note_on_c, 2, 81, 62
4, 43486, Note_off_c, 2, 81, 0
4, 43488, Note_on_c, 2, 82, 62
4, 43498, Note_off_c, 2, 82, 0
4, 43500, Note_on_c, 2, 81, 62
4, 43510, Note_off_c, 2, 81, 0
4, 43512, Note_on_c, 2, 82, 62
4, 43522, Note_off_c, 2, 82, 0
4, 43524, Note_on_c, 2, 81, 62
4, 43534, Note_off_c, 2, 81, 0
4, 43536, Note_on_c, 2, 79, 62
4, 43557, Note_off_c, 2, 79, 0
4, 43560, Note_on_c, 2, 81, 62
4, 43581, Note_off_c, 2, 81, 0
4, 43584, Note_on_c, 2, 82, 62
4, 43668, Note_off_c, 2, 82, 0
4, 43680, Note_on_c, 2, 81, 62
4, 43722, Note_off_c, 2, 81, 0
4, 43728, Note_on_c, 2, 79, 62
4, 43770, Note_off_c, 2, 79, 0
4, 43776, Note_on_c, 2, 84, 62
4, 43860, Note_off_c, 2, 84, 0
4, 43872, Note_on_c, 2, 77, 62
4, 43914, Note_off_c, 2, 77, 0
4, 43920, Note_on_c, 2, 79, 62
4, 43962, Note_off_c, 2, 79, 0
4, 43968, Note_on_c, 2, 76, 62
4, 44100, Note_off_c, 2, 76, 0
4, 44112, Note_on_c, 2, 77, 62
4, 44154, Note_off_c, 2, 77, 0
4, 44160, Note_on_c, 2, 77, 62
4, 44436, Note_off_c, 2, 77, 0
4, 44736, Tempo, 1000000
4, 44736, End_track
5, 0, Start_track
5, 0, Title_t, "Oboe II (D H Goforth)"
5, 0, Control_c, 3, 0, 0
5, 0, Program_c, 3, 68
5, 0, Time_signature, 3, 2, 96, 8
5, 0, Tempo, 1000000
5, 96, Tempo, 428571
5, 96, Note_on_c, 3, 69, 62
5, 180, Note_off_c, 3, 69, 0
5, 192, Note_on_c, 3, 72, 62
5, 276, Note_off_c, 3, 72, 0
5, 288, Note_on_c, 3, 70, 62
5, 372, Note_off_c, 3, 70, 0
5, 384, Note_on_c, 3, 69, 62
5, 468, Note_off_c, 3, 69, 0
5, 480, Note_on_c, 3, 65, 62
5, 564, Note_off_c, 3, 65, 0
5, 576, Note_on_c, 3, 65, 62
5, 660, Note_off_c, 3, 65, 0
5, 672, Note_on_c, 3, 69, 62
5, 756, Note_off_c, 3, 69, 0
5, 768, Note_on_c, 3, 72, 62
5, 852, Note_off_c, 3, 72, 0
5, 864, Note_on_c, 3, 70, 62
5, 948, Note_off_c, 3, 70, 0
5, 960, Note_on_c, 3, 72, 62
5, 1044, Note_off_c, 3, 72, 0
5, 1056, Note_on_c, 3, 70, 62
5, 1140, Note_off_c, 3, 70, 0
5, 1152, Note_on_c, 3, 69, 62
5, 1236, Note_off_c, 3, 69, 0
5, 1248, Note_on_c, 3, 67, 62
5, 1428, Note_off_c, 3, 67, 0
5, 1440, Note_on_c, 3, 65, 62
5, 1524, Note_off_c, 3, 65, 0
5, 1536, Note_on_c, 3, 64, 62
5, 1578, Note_off_c, 3, 64, 0
5, 1584, Note_on_c, 3, 65, 62
5, 1626, Note_off_c, 3, 65, 0
5, 1632, Note_on_c, 3, 67, 62
5, 1642, Note_off_c, 3, 67, 0
5, 1644, Note_on_c, 3, 65, 62
5, 1654, Note_off_c, 3, 65, 0
5, 1656, Note_on_c, 3, 67, 62
5, 1666, Note_off_c, 3, 67, 0
5, 1668, Note_on_c, 3, 65, 62
5, 1678, Note_off_c, 3, 65, 0
5, 1680, Note_on_c, 3, 67, 62
5, 1690, Note_off_c, 3, 67, 0
5, 1692, Note_on_c, 3, 65, 62
5, 1702, Note_off_c, 3, 65, 0
5, 1704, Note_on_c, 3, 67, 62
5, 1714, Note_off_c, 3, 67, 0
5, 1716, Note_on_c, 3, 65, 62
5, 1726, Note_off_c, 3, 65, 0
5, 1728, Note_on_c, 3, 67, 62
5, 1738, Note_off_c, 3, 67, 0
5, 1740, Note_on_c, 3, 65, 62
5, 1750, Note_off_c, 3, 65, 0
5, 1752, Note_on_c, 3, 67, 62
5, 1762, Note_off_c, 3, 67, 0
5, 1764, Note_on_c, 3, 65, 62
5, 1774, Note_off_c, 3, 65, 0
5, 1776, Note_on_c, 3, 64, 62
5, 1797, Note_off_c, 3, 64, 0
5, 1800, Note_on_c, 3, 65, 62
5, 1821, Note_off_c, 3, 65, 0
5, 1824, Note_on_c, 3, 67, 62
5, 1908, Note_off_c, 3, 67, 0
5, 1920, Note_on_c, 3, 65, 62
5, 2004, Note_off_c, 3, 65, 0
5, 2016, Note_on_c, 3, 64, 62
5, 2100, Note_off_c, 3, 64, 0
5, 2112, Note_on_c, 3, 65, 62
5, 2292, Note_off_c, 3, 65, 0
5, 2304, Note_on_c, 3, 67, 62
5, 2388, Note_off_c, 3, 67, 0
5, 2400, Note_on_c, 3, 65, 62
5, 2484, Note_off_c, 3, 65, 0
5, 2496, Note_on_c, 3, 67, 62
5, 2676, Note_off_c, 3, 67, 0
5, 2688, Note_on_c, 3, 67, 62
5, 2868, Note_off_c, 3, 67, 0
5, 2880, Note_on_c, 3, 67, 62
5, 2964, Note_off_c, 3, 67, 0
5, 2976, Note_on_c, 3, 69, 62
5, 3018, Note_off_c, 3, 69, 0
5, 3024, Note_on_c, 3, 71, 62
5, 3066, Note_off_c, 3, 71, 0
5, 3072, Note_on_c, 3, 72, 62
5, 3082, Note_off_c, 3, 72, 0
5, 3084, Note_on_c, 3, 71, 62
5, 3094, Note_off_c, 3, 71, 0
5, 3096, Note_on_c, 3, 72, 62
5, 3106, Note_off_c, 3, 72, 0
5, 3108, Note_on_c, 3, 71, 62
5, 3118, Note_off_c, 3, 71, 0
5, 3120, Note_on_c, 3, 72, 62
5, 3130, Note_off_c, 3, 72, 0
5, 3132, Note_on_c, 3, 71, 62
5, 3142, Note_off_c, 3, 71, 0
5, 3144, Note_on_c, 3, 72, 62
5, 3154, Note_off_c, 3, 72, 0
5, 3156, Note_on_c, 3, 71, 62
5, 3166, Note_off_c, 3, 71, 0
5, 3168, Note_on_c, 3, 72, 62
5, 3178, Note_off_c, 3, 72, 0
5, 3180, Note_on_c, 3, 71, 62
5, 3190, Note_off_c, 3, 71, 0
5, 3192, Note_on_c, 3, 72, 62
5, 3202, Note_off_c, 3, 72, 0
5, 3204, Note_on_c, 3, 71, 62
5, 3214, Note_off_c, 3, 71, 0
5, 3216, Note_on_c, 3, 67, 62
5, 3258, Note_off_c, 3, 67, 0
5, 3264, Note_on_c, 3, 67, 62
5, 3540, Note_off_c, 3, 67, 0
5, 3552, Note_on_c, 3, 69, 62
5, 3636, Note_off_c, 3, 69, 0
5, 3648, Note_on_c, 3, 72, 62
5, 3732, Note_off_c, 3, 72, 0
5, 3744, Note_on_c, 3, 70, 62
5, 3828, Note_off_c, 3, 70, 0
5, 3840, Note_on_c, 3, 69, 62
5, 3924, Note_off_c, 3, 69, 0
5, 3936, Note_on_c, 3, 65, 62
5, 4020, Note_off_c, 3, 65, 0
5, 4032, Note_on_c, 3, 65, 62
5, 4116, Note_off_c, 3, 65, 0
5, 4128, Note_on_c, 3, 69, 62
5, 4212, Note_off_c, 3, 69, 0
5, 4224, Note_on_c, 3, 72, 62
5, 4308, Note_off_c, 3, 72, 0
5, 4320, Note_on_c, 3, 70, 62
5, 4404, Note_off_c, 3, 70, 0
5, 4416, Note_on_c, 3, 72, 62
5, 4500, Note_off_c, 3, 72, 0
5, 4512, Note_on_c, 3, 70, 62
5, 4596, Note_off_c, 3, 70, 0
5, 4608, Note_on_c, 3, 69, 62
5, 4692, Note_off_c, 3, 69, 0
5, 4704, Note_on_c, 3, 67, 62
5, 4884, Note_off_c, 3, 67, 0
5, 4896, Note_on_c, 3, 65, 62
5, 4980, Note_off_c, 3, 65, 0
5, 4992, Note_on_c, 3, 64, 62
5, 5034, Note_off_c, 3, 64, 0
5, 5040, Note_on_c, 3, 65, 62
5, 5082, Note_off_c, 3, 65, 0
5, 5088, Note_on_c, 3, 67, 62
5, 5098, Note_off_c, 3, 67, 0
5, 5100, Note_on_c, 3, 65, 62
5, 5110, Note_off_c, 3, 65, 0
5, 5112, Note_on_c, 3, 67, 62
5, 5122, Note_off_c, 3, 67, 0
5, 5124, Note_on_c, 3, 65, 62
5, 5134, Note_off_c, 3, 65, 0
5, 5136, Note_on_c, 3, 67, 62
5, 5146, Note_off_c, 3, 67, 0
5, 5148, Note_on_c, 3, 65, 62
5, 5158, Note_off_c, 3, 65, 0
5, 5160, Note_on_c, 3, 67, 62
5, 5170, Note_off_c, 3, 67, 0
5, 5172, Note_on_c, 3, 65, 62
5, 5182, Note_off_c, 3, 65, 0
5, 5184, Note_on_c, 3, 67, 62
5, 5194, Note_off_c, 3, 67, 0
5, 5196, Note_on_c, 3, 65, 62
5, 5206, Note_off_c, 3, 65, 0
5, 5208, Note_on_c, 3, 67, 62
5, 5218, Note_off_c, 3, 67, 0
5, 5220, Note_on_c, 3, 65, 62
5, 5230, Note_off_c, 3, 65, 0
5, 5232, Note_on_c, 3, 64, 62
5, 5253, Note_off_c, 3, 64, 0
5, 5256, Note_on_c, 3, 65, 62
5, 5277, Note_off_c, 3, 65, 0
5, 5280, Note_on_c, 3, 67, 62
5, 5364, Note_off_c, 3, 67, 0
5, 5376, Note_on_c, 3, 65, 62
5, 5460, Note_off_c, 3, 65, 0
5, 5472, Note_on_c, 3, 64, 62
5, 5556, Note_off_c, 3, 64, 0
5, 5568, Note_on_c, 3, 65, 62
5, 5748, Note_off_c, 3, 65, 0
5, 5760, Note_on_c, 3, 67, 62
5, 5844, Note_off_c, 3, 67, 0
5, 5856, Note_on_c, 3, 65, 62
5, 5940, Note_off_c, 3, 65, 0
5, 5952, Note_on_c, 3, 67, 62
5, 6132, Note_off_c, 3, 67, 0
5, 6144, Note_on_c, 3, 67, 62
5, 6324, Note_off_c, 3, 67, 0
5, 6336, Note_on_c, 3, 67, 62
5, 6420, Note_off_c, 3, 67, 0
5, 6432, Note_on_c, 3, 69, 62
5, 6474, Note_off_c, 3, 69, 0
5, 6480, Note_on_c, 3, 71, 62
5, 6522, Note_off_c, 3, 71, 0
5, 6528, Note_on_c, 3, 72, 62
5, 6538, Note_off_c, 3, 72, 0
5, 6540, Note_on_c, 3, 71, 62
5, 6550, Note_off_c, 3, 71, 0
5, 6552, Note_on_c, 3, 72, 62
5, 6562, Note_off_c, 3, 72, 0
5, 6564, Note_on_c, 3, 71, 62
5, 6574, Note_off_c, 3, 71, 0
5, 6576, Note_on_c, 3, 72, 62
5, 6586, Note_off_c, 3, 72, 0
5, 6588, Note_on_c, 3, 71, 62
5, 6598, Note_off_c, 3, 71, 0
5, 6600, Note_on_c, 3, 72, 62
5, 6610, Note_off_c, 3, 72, 0
5, 6612, Note_on_c, 3, 71, 62
5, 6622, Note_off_c, 3, 71, 0
5, 6624, Note_on_c, 3, 72, 62
5, 6634, Note_off_c, 3, 72, 0
5, 6636, Note_on_c, 3, 71, 62
5, 6646, Note_off_c, 3, 71, 0
5, 6648, Note_on_c, 3, 72, 62
5, 6658, Note_off_c, 3, 72, 0
5, 6660, Note_on_c, 3, 71, 62
5, 6670, Note_off_c, 3, 71, 0
5, 6672, Note_on_c, 3, 67, 62
5, 6714, Note_off_c, 3, 67, 0
5, 6720, Note_on_c, 3, 67, 62
5, 6996, Note_off_c, 3, 67, 0
5, 7008, Note_on_c, 3, 72, 62
5, 7092, Note_off_c, 3, 72, 0
5, 7104, Note_on_c, 3, 79, 62
5, 7188, Note_off_c, 3, 79, 0
5, 7200, Note_on_c, 3, 77, 62
5, 7284, Note_off_c, 3, 77, 0
5, 7296, Note_on_c, 3, 76, 62
5, 7380, Note_off_c, 3, 76, 0
5, 7392, Note_on_c, 3, 72, 62
5, 7476, Note_off_c, 3, 72, 0
5, 7488, Note_on_c, 3, 72, 62
5, 7572, Note_off_c, 3, 72, 0
5, 7584, Note_on_c, 3, 76, 62
5, 7668, Note_off_c, 3, 76, 0
5, 7680, Note_on_c, 3, 79, 62
5, 7764, Note_off_c, 3, 79, 0
5, 7776, Note_on_c, 3, 77, 62
5, 7860, Note_off_c, 3, 77, 0
5, 7872, Note_on_c, 3, 79, 62
5, 7956, Note_off_c, 3, 79, 0
5, 7968, Note_on_c, 3, 77, 62
5, 8052, Note_off_c, 3, 77, 0
5, 8064, Note_on_c, 3, 76, 62
5, 8148, Note_off_c, 3, 76, 0
5, 8160, Note_on_c, 3, 74, 62
5, 8340, Note_off_c, 3, 74, 0
5, 8352, Note_on_c, 3, 72, 62
5, 8436, Note_off_c, 3, 72, 0
5, 8448, Note_on_c, 3, 71, 62
5, 8490, Note_off_c, 3, 71, 0
5, 8496, Note_on_c, 3, 72, 62
5, 8538, Note_off_c, 3, 72, 0
5, 8544, Note_on_c, 3, 74, 62
5, 8554, Note_off_c, 3, 74, 0
5, 8556, Note_on_c, 3, 72, 62
5, 8566, Note_off_c, 3, 72, 0
5, 8568, Note_on_c, 3, 74, 62
5, 8578, Note_off_c, 3, 74, 0
5, 8580, Note_on_c, 3, 72, 62
5, 8590, Note_off_c, 3, 72, 0
5, 8592, Note_on_c, 3, 74, 62
5, 8602, Note_off_c, 3, 74, 0
5, 8604, Note_on_c, 3, 72, 62
5, 8614, Note_off_c, 3, 72, 0
5, 8616, Note_on_c, 3, 74, 62
5, 8626, Note_off_c, 3, 74, 0
5, 8628, Note_on_c, 3, 72, 62
5, 8638, Note_off_c, 3, 72, 0
5, 8640, Note_on_c, 3, 74, 62
5, 8650, Note_off_c, 3, 74, 0
5, 8652, Note_on_c, 3, 72, 62
5, 8662, Note_off_c, 3, 72, 0
5, 8664, Note_on_c, 3, 74, 62
5, 8674, Note_off_c, 3, 74, 0
5, 8676, Note_on_c, 3, 72, 62
5, 8686, Note_off_c, 3, 72, 0
5, 8688, Note_on_c, 3, 71, 62
5, 8709, Note_off_c, 3, 71, 0
5, 8712, Note_on_c, 3, 72, 62
5, 8733, Note_off_c, 3, 72, 0
5, 8736, Note_on_c, 3, 74, 62
5, 8820, Note_off_c, 3, 74, 0
5, 8832, Note_on_c, 3, 72, 62
5, 8916, Note_off_c, 3, 72, 0
5, 8928, Note_on_c, 3, 71, 62
5, 9012, Note_off_c, 3, 71, 0
5, 9024, Note_on_c, 3, 72, 62
5, 9300, Note_off_c, 3, 72, 0
5, 9312, Note_on_c, 3, 72, 62
5, 9492, Note_off_c, 3, 72, 0
5, 9504, Note_on_c, 3, 77, 62
5, 9588, Note_off_c, 3, 77, 0
5, 9600, Note_on_c, 3, 76, 62
5, 9684, Note_off_c, 3, 76, 0
5, 9696, Note_on_c, 3, 79, 62
5, 9706, Note_off_c, 3, 79, 0
5, 9708, Note_on_c, 3, 77, 62
5, 9718, Note_off_c, 3, 77, 0
5, 9720, Note_on_c, 3, 79, 62
5, 9730, Note_off_c, 3, 79, 0
5, 9732, Note_on_c, 3, 77, 62
5, 9742, Note_off_c, 3, 77, 0
5, 9744, Note_on_c, 3, 79, 62
5, 9754, Note_off_c, 3, 79, 0
5, 9756, Note_on_c, 3, 77, 62
5, 9766, Note_off_c, 3, 77, 0
5, 9768, Note_on_c, 3, 79, 62
5, 9778, Note_off_c, 3, 79, 0
5, 9780, Note_on_c, 3, 77, 62
5, 9790, Note_off_c, 3, 77, 0
5, 9792, Note_on_c, 3, 79, 62
5, 9876, Note_off_c, 3, 79, 0
5, 9888, Note_on_c, 3, 74, 62
5, 9972, Note_off_c, 3, 74, 0
5, 9984, Note_on_c, 3, 74, 62
5, 9994, Note_off_c, 3, 74, 0
5, 9996, Note_on_c, 3, 72, 62
5, 10006, Note_off_c, 3, 72, 0
5, 10008, Note_on_c, 3, 74, 62
5, 10018, Note_off_c, 3, 74, 0
5, 10020, Note_on_c, 3, 72, 62
5, 10030, Note_off_c, 3, 72, 0
5, 10032, Note_on_c, 3, 74, 62
5, 10042, Note_off_c, 3, 74, 0
5, 10044, Note_on_c, 3, 72, 62
5, 10054, Note_off_c, 3, 72, 0
5, 10056, Note_on_c, 3, 74, 62
5, 10066, Note_off_c, 3, 74, 0
5, 10068, Note_on_c, 3, 72, 62
5, 10078, Note_off_c, 3, 72, 0
5, 10080, Note_on_c, 3, 74, 62
5, 10090, Note_off_c, 3, 74, 0
5, 10092, Note_on_c, 3, 72, 62
5, 10102, Note_off_c, 3, 72, 0
5, 10104, Note_on_c, 3, 74, 62
5, 10114, Note_off_c, 3, 74, 0
5, 10116, Note_on_c, 3, 72, 62
5, 10126, Note_off_c, 3, 72, 0
5, 10128, Note_on_c, 3, 72, 62
5, 10170, Note_off_c, 3, 72, 0
5, 10176, Note_on_c, 3, 72, 62
5, 10452, Note_off_c, 3, 72, 0
5, 10464, Note_on_c, 3, 72, 62
5, 10548, Note_off_c, 3, 72, 0
5, 10560, Note_on_c, 3, 79, 62
5, 10644, Note_off_c, 3, 79, 0
5, 10656, Note_on_c, 3, 77, 62
5, 10740, Note_off_c, 3, 77, 0
5, 10752, Note_on_c, 3, 76, 62
5, 10836, Note_off_c, 3, 76, 0
5, 10848, Note_on_c, 3, 72, 62
5, 10932, Note_off_c, 3, 72, 0
5, 10944, Note_on_c, 3, 72, 62
5, 11028, Note_off_c, 3, 72, 0
5, 11040, Note_on_c, 3, 76, 62
5, 11124, Note_off_c, 3, 76, 0
5, 11136, Note_on_c, 3, 79, 62
5, 11220, Note_off_c, 3, 79, 0
5, 11232, Note_on_c, 3, 77, 62
5, 11316, Note_off_c, 3, 77, 0
5, 11328, Note_on_c, 3, 79, 62
5, 11412, Note_off_c, 3, 79, 0
5, 11424, Note_on_c, 3, 77, 62
5, 11508, Note_off_c, 3, 77, 0
5, 11520, Note_on_c, 3, 76, 62
5, 11604, Note_off_c, 3, 76, 0
5, 11616, Note_on_c, 3, 74, 62
5, 11796, Note_off_c, 3, 74, 0
5, 11808, Note_on_c, 3, 72, 62
5, 11892, Note_off_c, 3, 72, 0
5, 11904, Note_on_c, 3, 71, 62
5, 11946, Note_off_c, 3, 71, 0
5, 11952, Note_on_c, 3, 72, 62
5, 11994, Note_off_c, 3, 72, 0
5, 12000, Note_on_c, 3, 74, 62
5, 12010, Note_off_c, 3, 74, 0
5, 12012, Note_on_c, 3, 72, 62
5, 12022, Note_off_c, 3, 72, 0
5, 12024, Note_on_c, 3, 74, 62
5, 12034, Note_off_c, 3, 74, 0
5, 12036, Note_on_c, 3, 72, 62
5, 12046, Note_off_c, 3, 72, 0
5, 12048, Note_on_c, 3, 74, 62
5, 12058, Note_off_c, 3, 74, 0
5, 12060, Note_on_c, 3, 72, 62
5, 12070, Note_off_c, 3, 72, 0
5, 12072, Note_on_c, 3, 74, 62
5, 12082, Note_off_c, 3, 74, 0
5, 12084, Note_on_c, 3, 72, 62
5, 12094, Note_off_c, 3, 72, 0
5, 12096, Note_on_c, 3, 74, 62
5, 12106, Note_off_c, 3, 74, 0
5, 12108, Note_on_c, 3, 72, 62
5, 12118, Note_off_c, 3, 72, 0
5, 12120, Note_on_c, 3, 74, 62
5, 12130, Note_off_c, 3, 74, 0
5, 12132, Note_on_c, 3, 72, 62
5, 12142, Note_off_c, 3, 72, 0
5, 12144, Note_on_c, 3, 71, 62
5, 12165, Note_off_c, 3, 71, 0
5, 12168, Note_on_c, 3, 72, 62
5, 12189, Note_off_c, 3, 72, 0
5, 12192, Note_on_c, 3, 74, 62
5, 12276, Note_off_c, 3, 74, 0
5, 12288, Note_on_c, 3, 72, 62
5, 12372, Note_off_c, 3, 72, 0
5, 12384, Note_on_c, 3, 71, 62
5, 12468, Note_off_c, 3, 71, 0
5, 12480, Note_on_c, 3, 72, 62
5, 12756, Note_off_c, 3, 72, 0
5, 12768, Note_on_c, 3, 72, 62
5, 12948, Note_off_c, 3, 72, 0
5, 12960, Note_on_c, 3, 77, 62
5, 13044, Note_off_c, 3, 77, 0
5, 13056, Note_on_c, 3, 76, 62
5, 13140, Note_off_c, 3, 76, 0
5, 13152, Note_on_c, 3, 79, 62
5, 13162, Note_off_c, 3, 79, 0
5, 13164, Note_on_c, 3, 77, 62
5, 13174, Note_off_c, 3, 77, 0
5, 13176, Note_on_c, 3, 79, 62
5, 13186, Note_off_c, 3, 79, 0
5, 13188, Note_on_c, 3, 77, 62
5, 13198, Note_off_c, 3, 77, 0
5, 13200, Note_on_c, 3, 79, 62
5, 13210, Note_off_c, 3, 79, 0
5, 13212, Note_on_c, 3, 77, 62
5, 13222, Note_off_c, 3, 77, 0
5, 13224, Note_on_c, 3, 79, 62
5, 13234, Note_off_c, 3, 79, 0
5, 13236, Note_on_c, 3, 77, 62
5, 13246, Note_off_c, 3, 77, 0
5, 13248, Note_on_c, 3, 79, 62
5, 13332, Note_off_c, 3, 79, 0
5, 13344, Note_on_c, 3, 74, 62
5, 13428, Note_off_c, 3, 74, 0
5, 13440, Note_on_c, 3, 74, 62
5, 13450, Note_off_c, 3, 74, 0
5, 13452, Note_on_c, 3, 72, 62
5, 13462, Note_off_c, 3, 72, 0
5, 13464, Note_on_c, 3, 74, 62
5, 13474, Note_off_c, 3, 74, 0
5, 13476, Note_on_c, 3, 72, 62
5, 13486, Note_off_c, 3, 72, 0
5, 13488, Note_on_c, 3, 74, 62
5, 13498, Note_off_c, 3, 74, 0
5, 13500, Note_on_c, 3, 72, 62
5, 13510, Note_off_c, 3, 72, 0
5, 13512, Note_on_c, 3, 74, 62
5, 13522, Note_off_c, 3, 74, 0
5, 13524, Note_on_c, 3, 72, 62
5, 13534, Note_off_c, 3, 72, 0
5, 13536, Note_on_c, 3, 74, 62
5, 13546, Note_off_c, 3, 74, 0
5, 13548, Note_on_c, 3, 72, 62
5, 13558, Note_off_c, 3, 72, 0
5, 13560, Note_on_c, 3, 74, 62
5, 13570, Note_off_c, 3, 74, 0
5, 13572, Note_on_c, 3, 72, 62
5, 13582, Note_off_c, 3, 72, 0
5, 13584, Note_on_c, 3, 72, 62
5, 13626, Note_off_c, 3, 72, 0
5, 13632, Note_on_c, 3, 72, 62
5, 13908, Note_off_c, 3, 72, 0
5, 14208, Tempo, 500000
5, 14208, Note_on_c, 3, 69, 96
5, 14388, Note_off_c, 3, 69, 0
5, 14400, Note_on_c, 3, 70, 96
5, 14484, Note_off_c, 3, 70, 0
5, 14496, Note_on_c, 3, 67, 96
5, 14676, Note_off_c, 3, 67, 0
5, 14688, Note_on_c, 3, 69, 96
5, 14772, Note_off_c, 3, 69, 0
5, 14784, Note_on_c, 3, 65, 96
5, 14868, Note_off_c, 3, 65, 0
5, 14880, Note_on_c, 3, 74, 96
5, 15060, Note_off_c, 3, 74, 0
5, 15072, Note_on_c, 3, 77, 96
5, 15082, Note_off_c, 3, 77, 0
5, 15084, Note_on_c, 3, 76, 96
5, 15094, Note_off_c, 3, 76, 0
5, 15096, Note_on_c, 3, 77, 96
5, 15106, Note_off_c, 3, 77, 0
5, 15108, Note_on_c, 3, 76, 96
5, 15118, Note_off_c, 3, 76, 0
5, 15120, Note_on_c, 3, 77, 96
5, 15130, Note_off_c, 3, 77, 0
5, 15132, Note_on_c, 3, 76, 96
5, 15142, Note_off_c, 3, 76, 0
5, 15144, Note_on_c, 3, 77, 96
5, 15154, Note_off_c, 3, 77, 0
5, 15156, Note_on_c, 3, 76, 96
5, 15166, Note_off_c, 3, 76, 0
5, 15168, Note_on_c, 3, 77, 96
5, 15178, Note_off_c, 3, 77, 0
5, 15180, Note_on_c, 3, 76, 96
5, 15190, Note_off_c, 3, 76, 0
5, 15192, Note_on_c, 3, 77, 96
5, 15202, Note_off_c, 3, 77, 0
5, 15204, Note_on_c, 3, 76, 96
5, 15214, Note_off_c, 3, 76, 0
5, 15216, Note_on_c, 3, 74, 96
5, 15237, Note_off_c, 3, 74, 0
5, 15240, Note_on_c, 3, 76, 96
5, 15261, Note_off_c, 3, 76, 0
5, 15264, Note_on_c, 3, 77, 96
5, 15348, Note_off_c, 3, 77, 0
5, 15360, Note_on_c, 3, 65, 96
5, 15540, Note_off_c, 3, 65, 0
5, 15552, Note_on_c, 3, 67, 96
5, 15636, Note_off_c, 3, 67, 0
5, 15648, Note_on_c, 3, 64, 96
5, 15828, Note_off_c, 3, 64, 0
5, 15840, Note_on_c, 3, 69, 96
5, 15882, Note_off_c, 3, 69, 0
5, 15888, Note_on_c, 3, 71, 96
5, 15930, Note_off_c, 3, 71, 0
5, 15936, Note_on_c, 3, 73, 96
5, 15978, Note_off_c, 3, 73, 0
5, 15984, Note_on_c, 3, 74, 96
5, 16026, Note_off_c, 3, 74, 0
5, 16032, Note_on_c, 3, 76, 96
5, 16042, Note_off_c, 3, 76, 0
5, 16044, Note_on_c, 3, 74, 96
5, 16054, Note_off_c, 3, 74, 0
5, 16056, Note_on_c, 3, 76, 96
5, 16066, Note_off_c, 3, 76, 0
5, 16068, Note_on_c, 3, 74, 96
5, 16078, Note_off_c, 3, 74, 0
5, 16080, Note_on_c, 3, 76, 96
5, 16090, Note_off_c, 3, 76, 0
5, 16092, Note_on_c, 3, 74, 96
5, 16102, Note_off_c, 3, 74, 0
5, 16104, Note_on_c, 3, 76, 96
5, 16114, Note_off_c, 3, 76, 0
5, 16116, Note_on_c, 3, 74, 96
5, 16126, Note_off_c, 3, 74, 0
5, 16128, Note_on_c, 3, 76, 96
5, 16138, Note_off_c, 3, 76, 0
5, 16140, Note_on_c, 3, 74, 96
5, 16150, Note_off_c, 3, 74, 0
5, 16152, Note_on_c, 3, 76, 96
5, 16162, Note_off_c, 3, 76, 0
5, 16164, Note_on_c, 3, 74, 96
5, 16174, Note_off_c, 3, 74, 0
5, 16176, Note_on_c, 3, 73, 96
5, 16218, Note_off_c, 3, 73, 0
5, 16224, Note_on_c, 3, 73, 96
5, 16500, Note_off_c, 3, 73, 0
5, 16512, Tempo, 500000
5, 16512, Note_on_c, 3, 69, 96
5, 16692, Note_off_c, 3, 69, 0
5, 16704, Note_on_c, 3, 70, 96
5, 16788, Note_off_c, 3, 70, 0
5, 16800, Note_on_c, 3, 67, 96
5, 16980, Note_off_c, 3, 67, 0
5, 16992, Note_on_c, 3, 69, 96
5, 17076, Note_off_c, 3, 69, 0
5, 17088, Note_on_c, 3, 65, 96
5, 17172, Note_off_c, 3, 65, 0
5, 17184, Note_on_c, 3, 74, 96
5, 17364, Note_off_c, 3, 74, 0
5, 17376, Note_on_c, 3, 77, 96
5, 17386, Note_off_c, 3, 77, 0
5, 17388, Note_on_c, 3, 76, 96
5, 17398, Note_off_c, 3, 76, 0
5, 17400, Note_on_c, 3, 77, 96
5, 17410, Note_off_c, 3, 77, 0
5, 17412, Note_on_c, 3, 76, 96
5, 17422, Note_off_c, 3, 76, 0
5, 17424, Note_on_c, 3, 77, 96
5, 17434, Note_off_c, 3, 77, 0
5, 17436, Note_on_c, 3, 76, 96
5, 17446, Note_off_c, 3, 76, 0
5, 17448, Note_on_c, 3, 77, 96
5, 17458, Note_off_c, 3, 77, 0
5, 17460, Note_on_c, 3, 76, 96
5, 17470, Note_off_c, 3, 76, 0
5, 17472, Note_on_c, 3, 77, 96
5, 17482, Note_off_c, 3, 77, 0
5, 17484, Note_on_c, 3, 76, 96
5, 17494, Note_off_c, 3, 76, 0
5, 17496, Note_on_c, 3, 77, 96
5, 17506, Note_off_c, 3, 77, 0
5, 17508, Note_on_c, 3, 76, 96
5, 17518, Note_off_c, 3, 76, 0
5, 17520, Note_on_c, 3, 74, 96
5, 17541, Note_off_c, 3, 74, 0
5, 17544, Note_on_c, 3, 76, 96
5, 17565, Note_off_c, 3, 76, 0
5, 17568, Note_on_c, 3, 77, 96
5, 17652, Note_off_c, 3, 77, 0
5, 17664, Note_on_c, 3, 65, 96
5, 17844, Note_off_c, 3, 65, 0
5, 17856, Note_on_c, 3, 67, 96
5, 17940, Note_off_c, 3, 67, 0
5, 17952, Note_on_c, 3, 64, 96
5, 18132, Note_off_c, 3, 64, 0
5, 18144, Note_on_c, 3, 69, 96
5, 18186, Note_off_c, 3, 69, 0
5, 18192, Note_on_c, 3, 71, 96
5, 18234, Note_off_c, 3, 71, 0
5, 18240, Note_on_c, 3, 73, 96
5, 18282, Note_off_c, 3, 73, 0
5, 18288, Note_on_c, 3, 74, 96
5, 18330, Note_off_c, 3, 74, 0
5, 18336, Note_on_c, 3, 76, 96
5, 18346, Note_off_c, 3, 76, 0
5, 18348, Note_on_c, 3, 74, 96
5, 18358, Note_off_c, 3, 74, 0
5, 18360, Note_on_c, 3, 76, 96
5, 18370, Note_off_c, 3, 76, 0
5, 18372, Note_on_c, 3, 74, 96
5, 18382, Note_off_c, 3, 74, 0
5, 18384, Note_on_c, 3, 76, 96
5, 18394, Note_off_c, 3, 76, 0
5, 18396, Note_on_c, 3, 74, 96
5, 18406, Note_off_c, 3, 74, 0
5, 18408, Note_on_c, 3, 76, 96
5, 18418, Note_off_c, 3, 76, 0
5, 18420, Note_on_c, 3, 74, 96
5, 18430, Note_off_c, 3, 74, 0
5, 18432, Note_on_c, 3, 76, 96
5, 18442, Note_off_c, 3, 76, 0
5, 18444, Note_on_c, 3, 74, 96
5, 18454, Note_off_c, 3, 74, 0
5, 18456, Note_on_c, 3, 76, 96
5, 18466, Note_off_c, 3, 76, 0
5, 18468, Note_on_c, 3, 74, 96
5, 18478, Note_off_c, 3, 74, 0
5, 18480, Note_on_c, 3, 73, 96
5, 18522, Note_off_c, 3, 73, 0
5, 18528, Note_on_c, 3, 73, 96
5, 18804, Note_off_c, 3, 73, 0
5, 18816, Note_on_c, 3, 73, 96
5, 18996, Note_off_c, 3, 73, 0
5, 19008, Note_on_c, 3, 74, 96
5, 19092, Note_off_c, 3, 74, 0
5, 19104, Note_on_c, 3, 76, 96
5, 19188, Note_off_c, 3, 76, 0
5, 19200, Note_on_c, 3, 72, 96
5, 19476, Note_off_c, 3, 72, 0
5, 19488, Note_on_c, 3, 72, 96
5, 19498, Note_off_c, 3, 72, 0
5, 19500, Note_on_c, 3, 71, 96
5, 19510, Note_off_c, 3, 71, 0
5, 19512, Note_on_c, 3, 72, 96
5, 19522, Note_off_c, 3, 72, 0
5, 19524, Note_on_c, 3, 71, 96
5, 19534, Note_off_c, 3, 71, 0
5, 19536, Note_on_c, 3, 72, 96
5, 19546, Note_off_c, 3, 72, 0
5, 19548, Note_on_c, 3, 71, 96
5, 19558, Note_off_c, 3, 71, 0
5, 19560, Note_on_c, 3, 72, 96
5, 19570, Note_off_c, 3, 72, 0
5, 19572, Note_on_c, 3, 71, 96
5, 19582, Note_off_c, 3, 71, 0
5, 19584, Note_on_c, 3, 72, 96
5, 19594, Note_off_c, 3, 72, 0
5, 19596, Note_on_c, 3, 71, 96
5, 19606, Note_off_c, 3, 71, 0
5, 19608, Note_on_c, 3, 72, 96
5, 19618, Note_off_c, 3, 72, 0
5, 19620, Note_on_c, 3, 71, 96
5, 19630, Note_off_c, 3, 71, 0
5, 19632, Note_on_c, 3, 69, 96
5, 19653, Note_off_c, 3, 69, 0
5, 19656, Note_on_c, 3, 71, 96
5, 19677, Note_off_c, 3, 71, 0
5, 19680, Note_on_c, 3, 72, 96
5, 19764, Note_off_c, 3, 72, 0
5, 19776, Note_on_c, 3, 67, 96
5, 19860, Note_off_c, 3, 67, 0
5, 19872, Note_on_c, 3, 64, 96
5, 19914, Note_off_c, 3, 64, 0
5, 19920, Note_on_c, 3, 65, 96
5, 19962, Note_off_c, 3, 65, 0
5, 19968, Note_on_c, 3, 67, 96
5, 20010, Note_off_c, 3, 67, 0
5, 20016, Note_on_c, 3, 69, 96
5, 20058, Note_off_c, 3, 69, 0
5, 20064, Note_on_c, 3, 70, 96
5, 20074, Note_off_c, 3, 70, 0
5, 20076, Note_on_c, 3, 69, 96
5, 20086, Note_off_c, 3, 69, 0
5, 20088, Note_on_c, 3, 70, 96
5, 20098, Note_off_c, 3, 70, 0
5, 20100, Note_on_c, 3, 69, 96
5, 20110, Note_off_c, 3, 69, 0
5, 20112, Note_on_c, 3, 70, 96
5, 20122, Note_off_c, 3, 70, 0
5, 20124, Note_on_c, 3, 69, 96
5, 20134, Note_off_c, 3, 69, 0
5, 20136, Note_on_c, 3, 70, 96
5, 20146, Note_off_c, 3, 70, 0
5, 20148, Note_on_c, 3, 69, 96
5, 20158, Note_off_c, 3, 69, 0
5, 20160, Note_on_c, 3, 70, 96
5, 20170, Note_off_c, 3, 70, 0
5, 20172, Note_on_c, 3, 69, 96
5, 20182, Note_off_c, 3, 69, 0
5, 20184, Note_on_c, 3, 70, 96
5, 20194, Note_off_c, 3, 70, 0
5, 20196, Note_on_c, 3, 69, 96
5, 20206, Note_off_c, 3, 69, 0
5, 20208, Note_on_c, 3, 67, 96
5, 20229, Note_off_c, 3, 67, 0
5, 20232, Note_on_c, 3, 69, 96
5, 20253, Note_off_c, 3, 69, 0
5, 20256, Note_on_c, 3, 70, 96
5, 20298, Note_off_c, 3, 70, 0
5, 20304, Note_on_c, 3, 72, 96
5, 20346, Note_off_c, 3, 72, 0
5, 20352, Note_on_c, 3, 74, 96
5, 20362, Note_off_c, 3, 74, 0
5, 20364, Note_on_c, 3, 72, 96
5, 20374, Note_off_c, 3, 72, 0
5, 20376, Note_on_c, 3, 74, 96
5, 20386, Note_off_c, 3, 74, 0
5, 20388, Note_on_c, 3, 72, 96
5, 20398, Note_off_c, 3, 72, 0
5, 20400, Note_on_c, 3, 74, 96
5, 20410, Note_off_c, 3, 74, 0
5, 20412, Note_on_c, 3, 72, 96
5, 20422, Note_off_c, 3, 72, 0
5, 20424, Note_on_c, 3, 74, 96
5, 20434, Note_off_c, 3, 74, 0
5, 20436, Note_on_c, 3, 72, 96
5, 20446, Note_off_c, 3, 72, 0
5, 20448, Note_on_c, 3, 74, 96
5, 20458, Note_off_c, 3, 74, 0
5, 20460, Note_on_c, 3, 72, 96
5, 20470, Note_off_c, 3, 72, 0
5, 20472, Note_on_c, 3, 74, 96
5, 20482, Note_off_c, 3, 74, 0
5, 20484, Note_on_c, 3, 72, 96
5, 20494, Note_off_c, 3, 72, 0
5, 20496, Note_on_c, 3, 70, 96
5, 20517, Note_off_c, 3, 70, 0
5, 20520, Note_on_c, 3, 72, 96
5, 20541, Note_off_c, 3, 72, 0
5, 20544, Note_on_c, 3, 74, 96
5, 20628, Note_off_c, 3, 74, 0
5, 20640, Note_on_c, 3, 70, 96
5, 20724, Note_off_c, 3, 70, 0
5, 20736, Note_on_c, 3, 69, 96
5, 20820, Note_off_c, 3, 69, 0
5, 20832, Note_on_c, 3, 70, 96
5, 21108, Note_off_c, 3, 70, 0
5, 21120, Note_on_c, 3, 79, 96
5, 21684, Note_off_c, 3, 79, 0
5, 21696, Note_on_c, 3, 77, 96
5, 22068, Note_off_c, 3, 77, 0
5, 22080, Note_on_c, 3, 76, 96
5, 22122, Note_off_c, 3, 76, 0
5, 22128, Note_on_c, 3, 74, 96
5, 22170, Note_off_c, 3, 74, 0
5, 22176, Note_on_c, 3, 76, 96
5, 22260, Note_off_c, 3, 76, 0
5, 22272, Note_on_c, 3, 69, 96
5, 22452, Note_off_c, 3, 69, 0
5, 22464, Note_on_c, 3, 70, 96
5, 22548, Note_off_c, 3, 70, 0
5, 22560, Note_on_c, 3, 67, 96
5, 22740, Note_off_c, 3, 67, 0
5, 22752, Note_on_c, 3, 69, 96
5, 22836, Note_off_c, 3, 69, 0
5, 22848, Note_on_c, 3, 65, 96
5, 22932, Note_off_c, 3, 65, 0
5, 22944, Note_on_c, 3, 74, 96
5, 23124, Note_off_c, 3, 74, 0
5, 23136, Note_on_c, 3, 77, 96
5, 23146, Note_off_c, 3, 77, 0
5, 23148, Note_on_c, 3, 76, 96
5, 23158, Note_off_c, 3, 76, 0
5, 23160, Note_on_c, 3, 77, 96
5, 23170, Note_off_c, 3, 77, 0
5, 23172, Note_on_c, 3, 76, 96
5, 23182, Note_off_c, 3, 76, 0
5, 23184, Note_on_c, 3, 77, 96
5, 23194, Note_off_c, 3, 77, 0
5, 23196, Note_on_c, 3, 76, 96
5, 23206, Note_off_c, 3, 76, 0
5, 23208, Note_on_c, 3, 77, 96
5, 23218, Note_off_c, 3, 77, 0
5, 23220, Note_on_c, 3, 76, 96
5, 23230, Note_off_c, 3, 76, 0
5, 23232, Note_on_c, 3, 77, 96
5, 23242, Note_off_c, 3, 77, 0
5, 23244, Note_on_c, 3, 76, 96
5, 23254, Note_off_c, 3, 76, 0
5, 23256, Note_on_c, 3, 77, 96
5, 23266, Note_off_c, 3, 77, 0
5, 23268, Note_on_c, 3, 74, 96
5, 23289, Note_off_c, 3, 74, 0
5, 23292, Note_on_c, 3, 76, 96
5, 23313, Note_off_c, 3, 76, 0
5, 23316, Note_on_c, 3, 77, 96
5, 23400, Note_off_c, 3, 77, 0
5, 23424, Note_on_c, 3, 65, 96
5, 23604, Note_off_c, 3, 65, 0
5, 23616, Note_on_c, 3, 67, 96
5, 23700, Note_off_c, 3, 67, 0
5, 23712, Note_on_c, 3, 64, 96
5, 23892, Note_off_c, 3, 64, 0
5, 23904, Note_on_c, 3, 74, 96
5, 23914, Note_off_c, 3, 74, 0
5, 23916, Note_on_c, 3, 73, 96
5, 23926, Note_off_c, 3, 73, 0
5, 23928, Note_on_c, 3, 74, 96
5, 23938, Note_off_c, 3, 74, 0
5, 23940, Note_on_c, 3, 73, 96
5, 23950, Note_off_c, 3, 73, 0
5, 23952, Note_on_c, 3, 74, 96
5, 23962, Note_off_c, 3, 74, 0
5, 23964, Note_on_c, 3, 73, 96
5, 23974, Note_off_c, 3, 73, 0
5, 23976, Note_on_c, 3, 74, 96
5, 23986, Note_off_c, 3, 74, 0
5, 23988, Note_on_c, 3, 73, 96
5, 23998, Note_off_c, 3, 73, 0
5, 24000, Note_on_c, 3, 74, 96
5, 24042, Note_off_c, 3, 74, 0
5, 24048, Note_on_c, 3, 69, 96
5, 24090, Note_off_c, 3, 69, 0
5, 24096, Note_on_c, 3, 67, 96
5, 24138, Note_off_c, 3, 67, 0
5, 24144, Note_on_c, 3, 65, 96
5, 24186, Note_off_c, 3, 65, 0
5, 24192, Note_on_c, 3, 67, 96
5, 24234, Note_off_c, 3, 67, 0
5, 24240, Note_on_c, 3, 64, 96
5, 24282, Note_off_c, 3, 64, 0
5, 24288, Note_on_c, 3, 65, 96
5, 24564, Note_off_c, 3, 65, 0
5, 24576, Note_on_c, 3, 73, 96
5, 24756, Note_off_c, 3, 73, 0
5, 24768, Note_on_c, 3, 74, 96
5, 24852, Note_off_c, 3, 74, 0
5, 24864, Note_on_c, 3, 76, 96
5, 24948, Note_off_c, 3, 76, 0
5, 24960, Note_on_c, 3, 72, 96
5, 25236, Note_off_c, 3, 72, 0
5, 25248, Note_on_c, 3, 72, 96
5, 25258, Note_off_c, 3, 72, 0
5, 25260, Note_on_c, 3, 71, 96
5, 25270, Note_off_c, 3, 71, 0
5, 25272, Note_on_c, 3, 72, 96
5, 25282, Note_off_c, 3, 72, 0
5, 25284, Note_on_c, 3, 71, 96
5, 25294, Note_off_c, 3, 71, 0
5, 25296, Note_on_c, 3, 72, 96
5, 25306, Note_off_c, 3, 72, 0
5, 25308, Note_on_c, 3, 71, 96
5, 25318, Note_off_c, 3, 71, 0
5, 25320, Note_on_c, 3, 72, 96
5, 25330, Note_off_c, 3, 72, 0
5, 25332, Note_on_c, 3, 71, 96
5, 25342, Note_off_c, 3, 71, 0
5, 25344, Note_on_c, 3, 72, 96
5, 25354, Note_off_c, 3, 72, 0
5, 25356, Note_on_c, 3, 71, 96
5, 25366, Note_off_c, 3, 71, 0
5, 25368, Note_on_c, 3, 72, 96
5, 25378, Note_off_c, 3, 72, 0
5, 25380, Note_on_c, 3, 71, 96
5, 25390, Note_off_c, 3, 71, 0
5, 25392, Note_on_c, 3, 69, 96
5, 25413, Note_off_c, 3, 69, 0
5, 25416, Note_on_c, 3, 71, 96
5, 25437, Note_off_c, 3, 71, 0
5, 25440, Note_on_c, 3, 72, 96
5, 25524, Note_off_c, 3, 72, 0
5, 25536, Note_on_c, 3, 67, 96
5, 25620, Note_off_c, 3, 67, 0
5, 25632, Note_on_c, 3, 64, 96
5, 25674, Note_off_c, 3, 64, 0
5, 25680, Note_on_c, 3, 65, 96
5, 25722, Note_off_c, 3, 65, 0
5, 25728, Note_on_c, 3, 67, 96
5, 25770, Note_off_c, 3, 67, 0
5, 25776, Note_on_c, 3, 69, 96
5, 25818, Note_off_c, 3, 69, 0
5, 25824, Note_on_c, 3, 70, 96
5, 25834, Note_off_c, 3, 70, 0
5, 25836, Note_on_c, 3, 69, 96
5, 25846, Note_off_c, 3, 69, 0
5, 25848, Note_on_c, 3, 70, 96
5, 25858, Note_off_c, 3, 70, 0
5, 25860, Note_on_c, 3, 69, 96
5, 25870, Note_off_c, 3, 69, 0
5, 25872, Note_on_c, 3, 70, 96
5, 25882, Note_off_c, 3, 70, 0
5, 25884, Note_on_c, 3, 69, 96
5, 25894, Note_off_c, 3, 69, 0
5, 25896, Note_on_c, 3, 70, 96
5, 25906, Note_off_c, 3, 70, 0
5, 25908, Note_on_c, 3, 69, 96
5, 25918, Note_off_c, 3, 69, 0
5, 25920, Note_on_c, 3, 70, 96
5, 25930, Note_off_c, 3, 70, 0
5, 25932, Note_on_c, 3, 69, 96
5, 25942, Note_off_c, 3, 69, 0
5, 25944, Note_on_c, 3, 70, 96
5, 25954, Note_off_c, 3, 70, 0
5, 25956, Note_on_c, 3, 69, 96
5, 25966, Note_off_c, 3, 69, 0
5, 25968, Note_on_c, 3, 67, 96
5, 25989, Note_off_c, 3, 67, 0
5, 25992, Note_on_c, 3, 69, 96
5, 26013, Note_off_c, 3, 69, 0
5, 26016, Note_on_c, 3, 70, 96
5, 26058, Note_off_c, 3, 70, 0
5, 26064, Note_on_c, 3, 72, 96
5, 26106, Note_off_c, 3, 72, 0
5, 26112, Note_on_c, 3, 74, 96
5, 26122, Note_off_c, 3, 74, 0
5, 26124, Note_on_c, 3, 72, 96
5, 26134, Note_off_c, 3, 72, 0
5, 26136, Note_on_c, 3, 74, 96
5, 26146, Note_off_c, 3, 74, 0
5, 26148, Note_on_c, 3, 72, 96
5, 26158, Note_off_c, 3, 72, 0
5, 26160, Note_on_c, 3, 74, 96
5, 26170, Note_off_c, 3, 74, 0
5, 26172, Note_on_c, 3, 72, 96
5, 26182, Note_off_c, 3, 72, 0
5, 26184, Note_on_c, 3, 74, 96
5, 26194, Note_off_c, 3, 74, 0
5, 26196, Note_on_c, 3, 72, 96
5, 26206, Note_off_c, 3, 72, 0
5, 26208, Note_on_c, 3, 74, 96
5, 26218, Note_off_c, 3, 74, 0
5, 26220, Note_on_c, 3, 72, 96
5, 26230, Note_off_c, 3, 72, 0
5, 26232, Note_on_c, 3, 74, 96
5, 26242, Note_off_c, 3, 74, 0
5, 26244, Note_on_c, 3, 72, 96
5, 26254, Note_off_c, 3, 72, 0
5, 26256, Note_on_c, 3, 70, 96
5, 26277, Note_off_c, 3, 70, 0
5, 26280, Note_on_c, 3, 72, 96
5, 26301, Note_off_c, 3, 72, 0
5, 26304, Note_on_c, 3, 74, 96
5, 26388, Note_off_c, 3, 74, 0
5, 26400, Note_on_c, 3, 70, 96
5, 26484, Note_off_c, 3, 70, 0
5, 26496, Note_on_c, 3, 69, 96
5, 26580, Note_off_c, 3, 69, 0
5, 26592, Note_on_c, 3, 70, 96
5, 26868, Note_off_c, 3, 70, 0
5, 26880, Note_on_c, 3, 79, 96
5, 27444, Note_off_c, 3, 79, 0
5, 27456, Note_on_c, 3, 77, 96
5, 27828, Note_off_c, 3, 77, 0
5, 27840, Note_on_c, 3, 76, 96
5, 27882, Note_off_c, 3, 76, 0
5, 27888, Note_on_c, 3, 74, 96
5, 27930, Note_off_c, 3, 74, 0
5, 27936, Note_on_c, 3, 76, 96
5, 28020, Note_off_c, 3, 76, 0
5, 28032, Note_on_c, 3, 69, 96
5, 28212, Note_off_c, 3, 69, 0
5, 28224, Note_on_c, 3, 70, 96
5, 28308, Note_off_c, 3, 70, 0
5, 28320, Note_on_c, 3, 67, 96
5, 28500, Note_off_c, 3, 67, 0
5, 28512, Note_on_c, 3, 69, 96
5, 28596, Note_off_c, 3, 69, 0
5, 28608, Note_on_c, 3, 65, 96
5, 28692, Note_off_c, 3, 65, 0
5, 28704, Note_on_c, 3, 74, 96
5, 28884, Note_off_c, 3, 74, 0
5, 28896, Note_on_c, 3, 77, 96
5, 28906, Note_off_c, 3, 77, 0
5, 28908, Note_on_c, 3, 76, 96
5, 28918, Note_off_c, 3, 76, 0
5, 28920, Note_on_c, 3, 77, 96
5, 28930, Note_off_c, 3, 77, 0
5, 28932, Note_on_c, 3, 76, 96
5, 28942, Note_off_c, 3, 76, 0
5, 28944, Note_on_c, 3, 77, 96
5, 28954, Note_off_c, 3, 77, 0
5, 28956, Note_on_c, 3, 76, 96
5, 28966, Note_off_c, 3, 76, 0
5, 28968, Note_on_c, 3, 77, 96
5, 28978, Note_off_c, 3, 77, 0
5, 28980, Note_on_c, 3, 76, 96
5, 28990, Note_off_c, 3, 76, 0
5, 28992, Note_on_c, 3, 77, 96
5, 29002, Note_off_c, 3, 77, 0
5, 29004, Note_on_c, 3, 76, 96
5, 29014, Note_off_c, 3, 76, 0
5, 29016, Note_on_c, 3, 77, 96
5, 29026, Note_off_c, 3, 77, 0
5, 29028, Note_on_c, 3, 74, 96
5, 29049, Note_off_c, 3, 74, 0
5, 29052, Note_on_c, 3, 76, 96
5, 29073, Note_off_c, 3, 76, 0
5, 29076, Note_on_c, 3, 77, 96
5, 29160, Note_off_c, 3, 77, 0
5, 29184, Note_on_c, 3, 65, 96
5, 29364, Note_off_c, 3, 65, 0
5, 29376, Note_on_c, 3, 67, 96
5, 29460, Note_off_c, 3, 67, 0
5, 29472, Note_on_c, 3, 64, 96
5, 29652, Note_off_c, 3, 64, 0
5, 29664, Note_on_c, 3, 74, 96
5, 29674, Note_off_c, 3, 74, 0
5, 29676, Note_on_c, 3, 73, 96
5, 29686, Note_off_c, 3, 73, 0
5, 29688, Note_on_c, 3, 74, 96
5, 29698, Note_off_c, 3, 74, 0
5, 29700, Note_on_c, 3, 73, 96
5, 29710, Note_off_c, 3, 73, 0
5, 29712, Note_on_c, 3, 74, 96
5, 29722, Note_off_c, 3, 74, 0
5, 29724, Note_on_c, 3, 73, 96
5, 29734, Note_off_c, 3, 73, 0
5, 29736, Note_on_c, 3, 74, 96
5, 29746, Note_off_c, 3, 74, 0
5, 29748, Note_on_c, 3, 73, 96
5, 29758, Note_off_c, 3, 73, 0
5, 29760, Note_on_c, 3, 74, 96
5, 29802, Note_off_c, 3, 74, 0
5, 29808, Note_on_c, 3, 69, 96
5, 29850, Note_off_c, 3, 69, 0
5, 29856, Note_on_c, 3, 67, 96
5, 29898, Note_off_c, 3, 67, 0
5, 29904, Note_on_c, 3, 65, 96
5, 29946, Note_off_c, 3, 65, 0
5, 29952, Note_on_c, 3, 67, 96
5, 29994, Note_off_c, 3, 67, 0
5, 30000, Note_on_c, 3, 64, 96
5, 30042, Note_off_c, 3, 64, 0
5, 30048, Note_on_c, 3, 65, 96
5, 30324, Note_off_c, 3, 65, 0
5, 30624, Tempo, 428571
5, 30624, Note_on_c, 3, 69, 62
5, 30708, Note_off_c, 3, 69, 0
5, 30720, Note_on_c, 3, 72, 62
5, 30804, Note_off_c, 3, 72, 0
5, 30816, Note_on_c, 3, 70, 62
5, 30900, Note_off_c, 3, 70, 0
5, 30912, Note_on_c, 3, 69, 62
5, 30996, Note_off_c, 3, 69, 0
5, 31008, Note_on_c, 3, 65, 62
5, 31092, Note_off_c, 3, 65, 0
5, 31104, Note_on_c, 3, 65, 62
5, 31188, Note_off_c, 3, 65, 0
5, 31200, Note_on_c, 3, 69, 62
5, 31284, Note_off_c, 3, 69, 0
5, 31296, Note_on_c, 3, 72, 62
5, 31380, Note_off_c, 3, 72, 0
5, 31392, Note_on_c, 3, 70, 62
5, 31476, Note_off_c, 3, 70, 0
5, 31488, Note_on_c, 3, 72, 62
5, 31572, Note_off_c, 3, 72, 0
5, 31584, Note_on_c, 3, 70, 62
5, 31668, Note_off_c, 3, 70, 0
5, 31680, Note_on_c, 3, 69, 62
5, 31764, Note_off_c, 3, 69, 0
5, 31776, Note_on_c, 3, 67, 62
5, 31956, Note_off_c, 3, 67, 0
5, 31968, Note_on_c, 3, 65, 62
5, 32052, Note_off_c, 3, 65, 0
5, 32064, Note_on_c, 3, 64, 62
5, 32106, Note_off_c, 3, 64, 0
5, 32112, Note_on_c, 3, 65, 62
5, 32154, Note_off_c, 3, 65, 0
5, 32160, Note_on_c, 3, 67, 62
5, 32170, Note_off_c, 3, 67, 0
5, 32172, Note_on_c, 3, 65, 62
5, 32182, Note_off_c, 3, 65, 0
5, 32184, Note_on_c, 3, 67, 62
5, 32194, Note_off_c, 3, 67, 0
5, 32196, Note_on_c, 3, 65, 62
5, 32206, Note_off_c, 3, 65, 0
5, 32208, Note_on_c, 3, 67, 62
5, 32218, Note_off_c, 3, 67, 0
5, 32220, Note_on_c, 3, 65, 62
5, 32230, Note_off_c, 3, 65, 0
5, 32232, Note_on_c, 3, 67, 62
5, 32242, Note_off_c, 3, 67, 0
5, 32244, Note_on_c, 3, 65, 62
5, 32254, Note_off_c, 3, 65, 0
5, 32256, Note_on_c, 3, 67, 62
5, 32266, Note_off_c, 3, 67, 0
5, 32268, Note_on_c, 3, 65, 62
5, 32278, Note_off_c, 3, 65, 0
5, 32280, Note_on_c, 3, 67, 62
5, 32290, Note_off_c, 3, 67, 0
5, 32292, Note_on_c, 3, 65, 62
5, 32302, Note_off_c, 3, 65, 0
5, 32304, Note_on_c, 3, 64, 62
5, 32325, Note_off_c, 3, 64, 0
5, 32328, Note_on_c, 3, 65, 62
5, 32349, Note_off_c, 3, 65, 0
5, 32352, Note_on_c, 3, 67, 62
5, 32436, Note_off_c, 3, 67, 0
5, 32448, Note_on_c, 3, 65, 62
5, 32532, Note_off_c, 3, 65, 0
5, 32544, Note_on_c, 3, 64, 62
5, 32628, Note_off_c, 3, 64, 0
5, 32640, Note_on_c, 3, 65, 62
5, 32820, Note_off_c, 3, 65, 0
5, 32832, Note_on_c, 3, 67, 62
5, 32916, Note_off_c, 3, 67, 0
5, 32928, Note_on_c, 3, 65, 62
5, 33012, Note_off_c, 3, 65, 0
5, 33024, Note_on_c, 3, 67, 62
5, 33204, Note_off_c, 3, 67, 0
5, 33216, Note_on_c, 3, 67, 62
5, 33396, Note_off_c, 3, 67, 0
5, 33408, Note_on_c, 3, 67, 62
5, 33492, Note_off_c, 3, 67, 0
5, 33504, Note_on_c, 3, 69, 62
5, 33546, Note_off_c, 3, 69, 0
5, 33552, Note_on_c, 3, 71, 62
5, 33594, Note_off_c, 3, 71, 0
5, 33600, Note_on_c, 3, 72, 62
5, 33610, Note_off_c, 3, 72, 0
5, 33612, Note_on_c, 3, 71, 62
5, 33622, Note_off_c, 3, 71, 0
5, 33624, Note_on_c, 3, 72, 62
5, 33634, Note_off_c, 3, 72, 0
5, 33636, Note_on_c, 3, 71, 62
5, 33646, Note_off_c, 3, 71, 0
5, 33648, Note_on_c, 3, 72, 62
5, 33658, Note_off_c, 3, 72, 0
5, 33660, Note_on_c, 3, 71, 62
5, 33670, Note_off_c, 3, 71, 0
5, 33672, Note_on_c, 3, 72, 62
5, 33682, Note_off_c, 3, 72, 0
5, 33684, Note_on_c, 3, 71, 62
5, 33694, Note_off_c, 3, 71, 0
5, 33696, Note_on_c, 3, 72, 62
5, 33706, Note_off_c, 3, 72, 0
5, 33708, Note_on_c, 3, 71, 62
5, 33718, Note_off_c, 3, 71, 0
5, 33720, Note_on_c, 3, 72, 62
5, 33730, Note_off_c, 3, 72, 0
5, 33732, Note_on_c, 3, 71, 62
5, 33742, Note_off_c, 3, 71, 0
5, 33744, Note_on_c, 3, 67, 62
5, 33786, Note_off_c, 3, 67, 0
5, 33792, Note_on_c, 3, 67, 62
5, 34068, Note_off_c, 3, 67, 0
5, 34080, Note_on_c, 3, 69, 62
5, 34164, Note_off_c, 3, 69, 0
5, 34176, Note_on_c, 3, 72, 62
5, 34260, Note_off_c, 3, 72, 0
5, 34272, Note_on_c, 3, 70, 62
5, 34356, Note_off_c, 3, 70, 0
5, 34368, Note_on_c, 3, 69, 62
5, 34452, Note_off_c, 3, 69, 0
5, 34464, Note_on_c, 3, 65, 62
5, 34548, Note_off_c, 3, 65, 0
5, 34560, Note_on_c, 3, 65, 62
5, 34644, Note_off_c, 3, 65, 0
5, 34656, Note_on_c, 3, 69, 62
5, 34740, Note_off_c, 3, 69, 0
5, 34752, Note_on_c, 3, 72, 62
5, 34836, Note_off_c, 3, 72, 0
5, 34848, Note_on_c, 3, 70, 62
5, 34932, Note_off_c, 3, 70, 0
5, 34944, Note_on_c, 3, 72, 62
5, 35028, Note_off_c, 3, 72, 0
5, 35040, Note_on_c, 3, 70, 62
5, 35124, Note_off_c, 3, 70, 0
5, 35136, Note_on_c, 3, 69, 62
5, 35220, Note_off_c, 3, 69, 0
5, 35232, Note_on_c, 3, 67, 62
5, 35412, Note_off_c, 3, 67, 0
5, 35424, Note_on_c, 3, 65, 62
5, 35508, Note_off_c, 3, 65, 0
5, 35520, Note_on_c, 3, 64, 62
5, 35562, Note_off_c, 3, 64, 0
5, 35568, Note_on_c, 3, 65, 62
5, 35610, Note_off_c, 3, 65, 0
5, 35616, Note_on_c, 3, 67, 62
5, 35626, Note_off_c, 3, 67, 0
5, 35628, Note_on_c, 3, 65, 62
5, 35638, Note_off_c, 3, 65, 0
5, 35640, Note_on_c, 3, 67, 62
5, 35650, Note_off_c, 3, 67, 0
5, 35652, Note_on_c, 3, 65, 62
5, 35662, Note_off_c, 3, 65, 0
5, 35664, Note_on_c, 3, 67, 62
5, 35674, Note_off_c, 3, 67, 0
5, 35676, Note_on_c, 3, 65, 62
5, 35686, Note_off_c, 3, 65, 0
5, 35688, Note_on_c, 3, 67, 62
5, 35698, Note_off_c, 3, 67, 0
5, 35700, Note_on_c, 3, 65, 62
5, 35710, Note_off_c, 3, 65, 0
5, 35712, Note_on_c, 3, 67, 62
5, 35722, Note_off_c, 3, 67, 0
5, 35724, Note_on_c, 3, 65, 62
5, 35734, Note_off_c, 3, 65, 0
5, 35736, Note_on_c, 3, 67, 62
5, 35746, Note_off_c, 3, 67, 0
5, 35748, Note_on_c, 3, 65, 62
5, 35758, Note_off_c, 3, 65, 0
5, 35760, Note_on_c, 3, 64, 62
5, 35781, Note_off_c, 3, 64, 0
5, 35784, Note_on_c, 3, 65, 62
5, 35805, Note_off_c, 3, 65, 0
5, 35808, Note_on_c, 3, 67, 62
5, 35892, Note_off_c, 3, 67, 0
5, 35904, Note_on_c, 3, 65, 62
5, 35988, Note_off_c, 3, 65, 0
5, 36000, Note_on_c, 3, 64, 62
5, 36084, Note_off_c, 3, 64, 0
5, 36096, Note_on_c, 3, 65, 62
5, 36276, Note_off_c, 3, 65, 0
5, 36288, Note_on_c, 3, 67, 62
5, 36372, Note_off_c, 3, 67, 0
5, 36384, Note_on_c, 3, 65, 62
5, 36468, Note_off_c, 3, 65, 0
5, 36480, Note_on_c, 3, 67, 62
5, 36660, Note_off_c, 3, 67, 0
5, 36672, Note_on_c, 3, 67, 62
5, 36852, Note_off_c, 3, 67, 0
5, 36864, Note_on_c, 3, 67, 62
5, 36948, Note_off_c, 3, 67, 0
5, 36960, Note_on_c, 3, 69, 62
5, 37002, Note_off_c, 3, 69, 0
5, 37008, Note_on_c, 3, 71, 62
5, 37050, Note_off_c, 3, 71, 0
5, 37056, Note_on_c, 3, 72, 62
5, 37066, Note_off_c, 3, 72, 0
5, 37068, Note_on_c, 3, 71, 62
5, 37078, Note_off_c, 3, 71, 0
5, 37080, Note_on_c, 3, 72, 62
5, 37090, Note_off_c, 3, 72, 0
5, 37092, Note_on_c, 3, 71, 62
5, 37102, Note_off_c, 3, 71, 0
5, 37104, Note_on_c, 3, 72, 62
5, 37114, Note_off_c, 3, 72, 0
5, 37116, Note_on_c, 3, 71, 62
5, 37126, Note_off_c, 3, 71, 0
5, 37128, Note_on_c, 3, 72, 62
5, 37138, Note_off_c, 3, 72, 0
5, 37140, Note_on_c, 3, 71, 62
5, 37150, Note_off_c, 3, 71, 0
5, 37152, Note_on_c, 3, 72, 62
5, 37162, Note_off_c, 3, 72, 0
5, 37164, Note_on_c, 3, 71, 62
5, 37174, Note_off_c, 3, 71, 0
5, 37176, Note_on_c, 3, 72, 62
5, 37186, Note_off_c, 3, 72, 0
5, 37188, Note_on_c, 3, 71, 62
5, 37198, Note_off_c, 3, 71, 0
5, 37200, Note_on_c, 3, 67, 62
5, 37242, Note_off_c, 3, 67, 0
5, 37248, Note_on_c, 3, 67, 62
5, 37524, Note_off_c, 3, 67, 0
5, 37536, Note_on_c, 3, 72, 62
5, 37620, Note_off_c, 3, 72, 0
5, 37632, Note_on_c, 3, 79, 62
5, 37716, Note_off_c, 3, 79, 0
5, 37728, Note_on_c, 3, 77, 62
5, 37812, Note_off_c, 3, 77, 0
5, 37824, Note_on_c, 3, 76, 62
5, 37908, Note_off_c, 3, 76, 0
5, 37920, Note_on_c, 3, 72, 62
5, 38004, Note_off_c, 3, 72, 0
5, 38016, Note_on_c, 3, 72, 62
5, 38100, Note_off_c, 3, 72, 0
5, 38112, Note_on_c, 3, 76, 62
5, 38196, Note_off_c, 3, 76, 0
5, 38208, Note_on_c, 3, 79, 62
5, 38292, Note_off_c, 3, 79, 0
5, 38304, Note_on_c, 3, 77, 62
5, 38388, Note_off_c, 3, 77, 0
5, 38400, Note_on_c, 3, 79, 62
5, 38484, Note_off_c, 3, 79, 0
5, 38496, Note_on_c, 3, 77, 62
5, 38580, Note_off_c, 3, 77, 0
5, 38592, Note_on_c, 3, 76, 62
5, 38676, Note_off_c, 3, 76, 0
5, 38688, Note_on_c, 3, 74, 62
5, 38868, Note_off_c, 3, 74, 0
5, 38880, Note_on_c, 3, 72, 62
5, 38964, Note_off_c, 3, 72, 0
5, 38976, Note_on_c, 3, 71, 62
5, 39018, Note_off_c, 3, 71, 0
5, 39024, Note_on_c, 3, 72, 62
5, 39066, Note_off_c, 3, 72, 0
5, 39072, Note_on_c, 3, 74, 62
5, 39082, Note_off_c, 3, 74, 0
5, 39084, Note_on_c, 3, 72, 62
5, 39094, Note_off_c, 3, 72, 0
5, 39096, Note_on_c, 3, 74, 62
5, 39106, Note_off_c, 3, 74, 0
5, 39108, Note_on_c, 3, 72, 62
5, 39118, Note_off_c, 3, 72, 0
5, 39120, Note_on_c, 3, 74, 62
5, 39130, Note_off_c, 3, 74, 0
5, 39132, Note_on_c, 3, 72, 62
5, 39142, Note_off_c, 3, 72, 0
5, 39144, Note_on_c, 3, 74, 62
5, 39154, Note_off_c, 3, 74, 0
5, 39156, Note_on_c, 3, 72, 62
5, 39166, Note_off_c, 3, 72, 0
5, 39168, Note_on_c, 3, 74, 62
5, 39178, Note_off_c, 3, 74, 0
5, 39180, Note_on_c, 3, 72, 62
5, 39190, Note_off_c, 3, 72, 0
5, 39192, Note_on_c, 3, 74, 62
5, 39202, Note_off_c, 3, 74, 0
5, 39204, Note_on_c, 3, 72, 62
5, 39214, Note_off_c, 3, 72, 0
5, 39216, Note_on_c, 3, 71, 62
5, 39237, Note_off_c, 3, 71, 0
5, 39240, Note_on_c, 3, 72, 62
5, 39261, Note_off_c, 3, 72, 0
5, 39264, Note_on_c, 3, 74, 62
5, 39348, Note_off_c, 3, 74, 0
5, 39360, Note_on_c, 3, 72, 62
5, 39444, Note_off_c, 3, 72, 0
5, 39456, Note_on_c, 3, 71, 62
5, 39540, Note_off_c, 3, 71, 0
5, 39552, Note_on_c, 3, 72, 62
5, 39828, Note_off_c, 3, 72, 0
5, 39840, Note_on_c, 3, 72, 62
5, 40020, Note_off_c, 3, 72, 0
5, 40032, Note_on_c, 3, 77, 62
5, 40116, Note_off_c, 3, 77, 0
5, 40128, Note_on_c, 3, 76, 62
5, 40212, Note_off_c, 3, 76, 0
5, 40224, Note_on_c, 3, 79, 62
5, 40234, Note_off_c, 3, 79, 0
5, 40236, Note_on_c, 3, 77, 62
5, 40246, Note_off_c, 3, 77, 0
5, 40248, Note_on_c, 3, 79, 62
5, 40258, Note_off_c, 3, 79, 0
5, 40260, Note_on_c, 3, 77, 62
5, 40270, Note_off_c, 3, 77, 0
5, 40272, Note_on_c, 3, 79, 62
5, 40282, Note_off_c, 3, 79, 0
5, 40284, Note_on_c, 3, 77, 62
5, 40294, Note_off_c, 3, 77, 0
5, 40296, Note_on_c, 3, 79, 62
5, 40306, Note_off_c, 3, 79, 0
5, 40308, Note_on_c, 3, 77, 62
5, 40318, Note_off_c, 3, 77, 0
5, 40320, Note_on_c, 3, 79, 62
5, 40404, Note_off_c, 3, 79, 0
5, 40416, Note_on_c, 3, 74, 62
5, 40500, Note_off_c, 3, 74, 0
5, 40512, Note_on_c, 3, 74, 62
5, 40522, Note_off_c, 3, 74, 0
5, 40524, Note_on_c, 3, 72, 62
5, 40534, Note_off_c, 3, 72, 0
5, 40536, Note_on_c, 3, 74, 62
5, 40546, Note_off_c, 3, 74, 0
5, 40548, Note_on_c, 3, 72, 62
5, 40558, Note_off_c, 3, 72, 0
5, 40560, Note_on_c, 3, 74, 62
5, 40570, Note_off_c, 3, 74, 0
5, 40572, Note_on_c, 3, 72, 62
5, 40582, Note_off_c, 3, 72, 0
5, 40584, Note_on_c, 3, 74, 62
5, 40594, Note_off_c, 3, 74, 0
5, 40596, Note_on_c, 3, 72, 62
5, 40606, Note_off_c, 3, 72, 0
5, 40608, Note_on_c, 3, 74, 62
5, 40618, Note_off_c, 3, 74, 0
5, 40620, Note_on_c, 3, 72, 62
5, 40630, Note_off_c, 3, 72, 0
5, 40632, Note_on_c, 3, 74, 62
5, 40642, Note_off_c, 3, 74, 0
5, 40644, Note_on_c, 3, 72, 62
5, 40654, Note_off_c, 3, 72, 0
5, 40656, Note_on_c, 3, 72, 62
5, 40698, Note_off_c, 3, 72, 0
5, 40704, Note_on_c, 3, 72, 62
5, 40980, Note_off_c, 3, 72, 0
5, 40992, Note_on_c, 3, 72, 62
5, 41076, Note_off_c, 3, 72, 0
5, 41088, Note_on_c, 3, 79, 62
5, 41172, Note_off_c, 3, 79, 0
5, 41184, Note_on_c, 3, 77, 62
5, 41268, Note_off_c, 3, 77, 0
5, 41280, Note_on_c, 3, 76, 62
5, 41364, Note_off_c, 3, 76, 0
5, 41376, Note_on_c, 3, 72, 62
5, 41460, Note_off_c, 3, 72, 0
5, 41472, Note_on_c, 3, 72, 62
5, 41556, Note_off_c, 3, 72, 0
5, 41568, Note_on_c, 3, 76, 62
5, 41652, Note_off_c, 3, 76, 0
5, 41664, Note_on_c, 3, 79, 62
5, 41748, Note_off_c, 3, 79, 0
5, 41760, Note_on_c, 3, 77, 62
5, 41844, Note_off_c, 3, 77, 0
5, 41856, Note_on_c, 3, 79, 62
5, 41940, Note_off_c, 3, 79, 0
5, 41952, Note_on_c, 3, 77, 62
5, 42036, Note_off_c, 3, 77, 0
5, 42048, Note_on_c, 3, 76, 62
5, 42132, Note_off_c, 3, 76, 0
5, 42144, Note_on_c, 3, 74, 62
5, 42324, Note_off_c, 3, 74, 0
5, 42336, Note_on_c, 3, 72, 62
5, 42420, Note_off_c, 3, 72, 0
5, 42432, Note_on_c, 3, 71, 62
5, 42474, Note_off_c, 3, 71, 0
5, 42480, Note_on_c, 3, 72, 62
5, 42522, Note_off_c, 3, 72, 0
5, 42528, Note_on_c, 3, 74, 62
5, 42538, Note_off_c, 3, 74, 0
5, 42540, Note_on_c, 3, 72, 62
5, 42550, Note_off_c, 3, 72, 0
5, 42552, Note_on_c, 3, 74, 62
5, 42562, Note_off_c, 3, 74, 0
5, 42564, Note_on_c, 3, 72, 62
5, 42574, Note_off_c, 3, 72, 0
5, 42576, Note_on_c, 3, 74, 62
5, 42586, Note_off_c, 3, 74, 0
5, 42588, Note_on_c, 3, 72, 62
5, 42598, Note_off_c, 3, 72, 0
5, 42600, Note_on_c, 3, 74, 62
5, 42610, Note_off_c, 3, 74, 0
5, 42612, Note_on_c, 3, 72, 62
5, 42622, Note_off_c, 3, 72, 0
5, 42624, Note_on_c, 3, 74, 62
5, 42634, Note_off_c, 3, 74, 0
5, 42636, Note_on_c, 3, 72, 62
5, 42646, Note_off_c, 3, 72, 0
5, 42648, Note_on_c, 3, 74, 62
5, 42658, Note_off_c, 3, 74, 0
5, 42660, Note_on_c, 3, 72, 62
5, 42670, Note_off_c, 3, 72, 0
5, 42672, Note_on_c, 3, 71, 62
5, 42693, Note_off_c, 3, 71, 0
5, 42696, Note_on_c, 3, 72, 62
5, 42717, Note_off_c, 3, 72, 0
5, 42720, Note_on_c, 3, 74, 62
5, 42804, Note_off_c, 3, 74, 0
5, 42816, Note_on_c, 3, 72, 62
5, 42900, Note_off_c, 3, 72, 0
5, 42912, Note_on_c, 3, 71, 62
5, 42996, Note_off_c, 3, 71, 0
5, 43008, Note_on_c, 3, 72, 62
5, 43284, Note_off_c, 3, 72, 0
5, 43296, Note_on_c, 3, 72, 62
5, 43476, Note_off_c, 3, 72, 0
5, 43488, Note_on_c, 3, 77, 62
5, 43572, Note_off_c, 3, 77, 0
5, 43584, Note_on_c, 3, 76, 62
5, 43668, Note_off_c, 3, 76, 0
5, 43680, Note_on_c, 3, 79, 62
5, 43690, Note_off_c, 3, 79, 0
5, 43692, Note_on_c, 3, 77, 62
5, 43702, Note_off_c, 3, 77, 0
5, 43704, Note_on_c, 3, 79, 62
5, 43714, Note_off_c, 3, 79, 0
5, 43716, Note_on_c, 3, 77, 62
5, 43726, Note_off_c, 3, 77, 0
5, 43728, Note_on_c, 3, 79, 62
5, 43738, Note_off_c, 3, 79, 0
5, 43740, Note_on_c, 3, 77, 62
5, 43750, Note_off_c, 3, 77, 0
5, 43752, Note_on_c, 3, 79, 62
5, 43762, Note_off_c, 3, 79, 0
5, 43764, Note_on_c, 3, 77, 62
5, 43774, Note_off_c, 3, 77, 0
5, 43776, Note_on_c, 3, 79, 62
5, 43860, Note_off_c, 3, 79, 0
5, 43872, Note_on_c, 3, 74, 62
5, 43956, Note_off_c, 3, 74, 0
5, 43968, Note_on_c, 3, 74, 62
5, 43978, Note_off_c, 3, 74, 0
5, 43980, Note_on_c, 3, 72, 62
5, 43990, Note_off_c, 3, 72, 0
5, 43992, Note_on_c, 3, 74, 62
5, 44002, Note_off_c, 3, 74, 0
5, 44004, Note_on_c, 3, 72, 62
5, 44014, Note_off_c, 3, 72, 0
5, 44016, Note_on_c, 3, 74, 62
5, 44026, Note_off_c, 3, 74, 0
5, 44028, Note_on_c, 3, 72, 62
5, 44038, Note_off_c, 3, 72, 0
5, 44040, Note_on_c, 3, 74, 62
5, 44050, Note_off_c, 3, 74, 0
5, 44052, Note_on_c, 3, 72, 62
5, 44062, Note_off_c, 3, 72, 0
5, 44064, Note_on_c, 3, 74, 62
5, 44074, Note_off_c, 3, 74, 0
5, 44076, Note_on_c, 3, 72, 62
5, 44086, Note_off_c, 3, 72, 0
5, 44088, Note_on_c, 3, 74, 62
5, 44098, Note_off_c, 3, 74, 0
5, 44100, Note_on_c, 3, 72, 62
5, 44110, Note_off_c, 3, 72, 0
5, 44112, Note_on_c, 3, 72, 62
5, 44154, Note_off_c, 3, 72, 0
5, 44160, Note_on_c, 3, 72, 62
5, 44436, Note_off_c, 3, 72, 0
5, 44736, Tempo, 1000000
5, 44736, End_track
6, 0, Start_track
6, 0, Title_t, "dgo4th@earthlink.net"
6, 0, Control_c, 4, 0, 0
6, 0, Program_c, 4, 68
6, 0, Time_signature, 3, 2, 96, 8
6, 0, Tempo, 1000000
6, 96, Tempo, 428571
6, 96, Note_on_c, 4, 65, 62
6, 276, Note_off_c, 4, 65, 0
6, 288, Note_on_c, 4, 65, 62
6, 372, Note_off_c, 4, 65, 0
6, 384, Note_on_c, 4, 63, 62
6, 468, Note_off_c, 4, 63, 0
6, 480, Note_on_c, 4, 62, 62
6, 522, Note_off_c, 4, 62, 0
6, 528, Note_on_c, 4, 60, 62
6, 570, Note_off_c, 4, 60, 0
6, 576, Note_on_c, 4, 62, 62
6, 660, Note_off_c, 4, 62, 0
6, 672, Note_on_c, 4, 63, 62
6, 756, Note_off_c, 4, 63, 0
6, 768, Note_on_c, 4, 60, 62
6, 852, Note_off_c, 4, 60, 0
6, 864, Note_on_c, 4, 65, 62
6, 948, Note_off_c, 4, 65, 0
6, 960, Note_on_c, 4, 65, 62
6, 1140, Note_off_c, 4, 65, 0
6, 1152, Note_on_c, 4, 60, 62
6, 1236, Note_off_c, 4, 60, 0
6, 1248, Note_on_c, 4, 60, 62
6, 1428, Note_off_c, 4, 60, 0
6, 1440, Note_on_c, 4, 60, 62
6, 1524, Note_off_c, 4, 60, 0
6, 1536, Note_on_c, 4, 64, 62
6, 1620, Note_off_c, 4, 64, 0
6, 1632, Note_on_c, 4, 69, 62
6, 1674, Note_off_c, 4, 69, 0
6, 1680, Note_on_c, 4, 67, 62
6, 1722, Note_off_c, 4, 67, 0
6, 1728, Note_on_c, 4, 69, 62
6, 1812, Note_off_c, 4, 69, 0
6, 1824, Note_on_c, 4, 67, 62
6, 1908, Note_off_c, 4, 67, 0
6, 1920, Note_on_c, 4, 60, 62
6, 2004, Note_off_c, 4, 60, 0
6, 2016, Note_on_c, 4, 60, 62
6, 2100, Note_off_c, 4, 60, 0
6, 2112, Note_on_c, 4, 60, 62
6, 2292, Note_off_c, 4, 60, 0
6, 2304, Note_on_c, 4, 60, 62
6, 2388, Note_off_c, 4, 60, 0
6, 2400, Note_on_c, 4, 62, 62
6, 2484, Note_off_c, 4, 62, 0
6, 2496, Note_on_c, 4, 60, 62
6, 2538, Note_off_c, 4, 60, 0
6, 2544, Note_on_c, 4, 62, 62
6, 2586, Note_off_c, 4, 62, 0
6, 2592, Note_on_c, 4, 64, 62
6, 2676, Note_off_c, 4, 64, 0
6, 2688, Note_on_c, 4, 62, 62
6, 2868, Note_off_c, 4, 62, 0
6, 2880, Note_on_c, 4, 64, 62
6, 2964, Note_off_c, 4, 64, 0
6, 2976, Note_on_c, 4, 60, 62
6, 3060, Note_off_c, 4, 60, 0
6, 3072, Note_on_c, 4, 67, 62
6, 3156, Note_off_c, 4, 67, 0
6, 3168, Note_on_c, 4, 65, 62
6, 3252, Note_off_c, 4, 65, 0
6, 3264, Note_on_c, 4, 64, 62
6, 3540, Note_off_c, 4, 64, 0
6, 3552, Note_on_c, 4, 65, 62
6, 3732, Note_off_c, 4, 65, 0
6, 3744, Note_on_c, 4, 65, 62
6, 3828, Note_off_c, 4, 65, 0
6, 3840, Note_on_c, 4, 63, 62
6, 3924, Note_off_c, 4, 63, 0
6, 3936, Note_on_c, 4, 62, 62
6, 3978, Note_off_c, 4, 62, 0
6, 3984, Note_on_c, 4, 60, 62
6, 4026, Note_off_c, 4, 60, 0
6, 4032, Note_on_c, 4, 62, 62
6, 4116, Note_off_c, 4, 62, 0
6, 4128, Note_on_c, 4, 63, 62
6, 4212, Note_off_c, 4, 63, 0
6, 4224, Note_on_c, 4, 60, 62
6, 4308, Note_off_c, 4, 60, 0
6, 4320, Note_on_c, 4, 65, 62
6, 4404, Note_off_c, 4, 65, 0
6, 4416, Note_on_c, 4, 65, 62
6, 4596, Note_off_c, 4, 65, 0
6, 4608, Note_on_c, 4, 60, 62
6, 4692, Note_off_c, 4, 60, 0
6, 4704, Note_on_c, 4, 60, 62
6, 4884, Note_off_c, 4, 60, 0
6, 4896, Note_on_c, 4, 60, 62
6, 4980, Note_off_c, 4, 60, 0
6, 4992, Note_on_c, 4, 64, 62
6, 5076, Note_off_c, 4, 64, 0
6, 5088, Note_on_c, 4, 69, 62
6, 5130, Note_off_c, 4, 69, 0
6, 5136, Note_on_c, 4, 67, 62
6, 5178, Note_off_c, 4, 67, 0
6, 5184, Note_on_c, 4, 69, 62
6, 5268, Note_off_c, 4, 69, 0
6, 5280, Note_on_c, 4, 67, 62
6, 5364, Note_off_c, 4, 67, 0
6, 5376, Note_on_c, 4, 60, 62
6, 5460, Note_off_c, 4, 60, 0
6, 5472, Note_on_c, 4, 60, 62
6, 5556, Note_off_c, 4, 60, 0
6, 5568, Note_on_c, 4, 60, 62
6, 5748, Note_off_c, 4, 60, 0
6, 5760, Note_on_c, 4, 60, 62
6, 5844, Note_off_c, 4, 60, 0
6, 5856, Note_on_c, 4, 62, 62
6, 5940, Note_off_c, 4, 62, 0
6, 5952, Note_on_c, 4, 60, 62
6, 5994, Note_off_c, 4, 60, 0
6, 6000, Note_on_c, 4, 62, 62
6, 6042, Note_off_c, 4, 62, 0
6, 6048, Note_on_c, 4, 64, 62
6, 6132, Note_off_c, 4, 64, 0
6, 6144, Note_on_c, 4, 62, 62
6, 6324, Note_off_c, 4, 62, 0
6, 6336, Note_on_c, 4, 64, 62
6, 6420, Note_off_c, 4, 64, 0
6, 6432, Note_on_c, 4, 60, 62
6, 6516, Note_off_c, 4, 60, 0
6, 6528, Note_on_c, 4, 67, 62
6, 6612, Note_off_c, 4, 67, 0
6, 6624, Note_on_c, 4, 65, 62
6, 6708, Note_off_c, 4, 65, 0
6, 6720, Note_on_c, 4, 64, 62
6, 6996, Note_off_c, 4, 64, 0
6, 7008, Note_on_c, 4, 67, 62
6, 7188, Note_off_c, 4, 67, 0
6, 7200, Note_on_c, 4, 72, 62
6, 7284, Note_off_c, 4, 72, 0
6, 7296, Note_on_c, 4, 70, 62
6, 7380, Note_off_c, 4, 70, 0
6, 7392, Note_on_c, 4, 69, 62
6, 7434, Note_off_c, 4, 69, 0
6, 7440, Note_on_c, 4, 67, 62
6, 7482, Note_off_c, 4, 67, 0
6, 7488, Note_on_c, 4, 69, 62
6, 7572, Note_off_c, 4, 69, 0
6, 7584, Note_on_c, 4, 70, 62
6, 7668, Note_off_c, 4, 70, 0
6, 7680, Note_on_c, 4, 67, 62
6, 7764, Note_off_c, 4, 67, 0
6, 7776, Note_on_c, 4, 72, 62
6, 7860, Note_off_c, 4, 72, 0
6, 7872, Note_on_c, 4, 72, 62
6, 8052, Note_off_c, 4, 72, 0
6, 8064, Note_on_c, 4, 67, 62
6, 8148, Note_off_c, 4, 67, 0
6, 8160, Note_on_c, 4, 67, 62
6, 8340, Note_off_c, 4, 67, 0
6, 8352, Note_on_c, 4, 67, 62
6, 8436, Note_off_c, 4, 67, 0
6, 8448, Note_on_c, 4, 62, 62
6, 8532, Note_off_c, 4, 62, 0
6, 8544, Note_on_c, 4, 64, 62
6, 8628, Note_off_c, 4, 64, 0
6, 8640, Note_on_c, 4, 60, 62
6, 8724, Note_off_c, 4, 60, 0
6, 8736, Note_on_c, 4, 67, 62
6, 8916, Note_off_c, 4, 67, 0
6, 8928, Note_on_c, 4, 67, 62
6, 9012, Note_off_c, 4, 67, 0
6, 9024, Note_on_c, 4, 67, 62
6, 9300, Note_off_c, 4, 67, 0
6, 9312, Note_on_c, 4, 67, 62
6, 9396, Note_off_c, 4, 67, 0
6, 9408, Note_on_c, 4, 67, 62
6, 9418, Note_off_c, 4, 67, 0
6, 9420, Note_on_c, 4, 65, 62
6, 9430, Note_off_c, 4, 65, 0
6, 9432, Note_on_c, 4, 67, 62
6, 9442, Note_off_c, 4, 67, 0
6, 9444, Note_on_c, 4, 65, 62
6, 9454, Note_off_c, 4, 65, 0
6, 9456, Note_on_c, 4, 67, 62
6, 9466, Note_off_c, 4, 67, 0
6, 9468, Note_on_c, 4, 65, 62
6, 9478, Note_off_c, 4, 65, 0
6, 9480, Note_on_c, 4, 67, 62
6, 9490, Note_off_c, 4, 67, 0
6, 9492, Note_on_c, 4, 65, 62
6, 9502, Note_off_c, 4, 65, 0
6, 9504, Note_on_c, 4, 67, 62
6, 9514, Note_off_c, 4, 67, 0
6, 9516, Note_on_c, 4, 65, 62
6, 9526, Note_off_c, 4, 65, 0
6, 9528, Note_on_c, 4, 67, 62
6, 9538, Note_off_c, 4, 67, 0
6, 9540, Note_on_c, 4, 65, 62
6, 9550, Note_off_c, 4, 65, 0
6, 9552, Note_on_c, 4, 64, 62
6, 9573, Note_off_c, 4, 64, 0
6, 9576, Note_on_c, 4, 65, 62
6, 9597, Note_off_c, 4, 65, 0
6, 9600, Note_on_c, 4, 67, 62
6, 9684, Note_off_c, 4, 67, 0
6, 9696, Note_on_c, 4, 72, 62
6, 9780, Note_off_c, 4, 72, 0
6, 9792, Note_on_c, 4, 64, 62
6, 9876, Note_off_c, 4, 64, 0
6, 9888, Note_on_c, 4, 69, 62
6, 9930, Note_off_c, 4, 69, 0
6, 9936, Note_on_c, 4, 70, 62
6, 9978, Note_off_c, 4, 70, 0
6, 9984, Note_on_c, 4, 67, 62
6, 10116, Note_off_c, 4, 67, 0
6, 10128, Note_on_c, 4, 69, 62
6, 10170, Note_off_c, 4, 69, 0
6, 10176, Note_on_c, 4, 69, 62
6, 10452, Note_off_c, 4, 69, 0
6, 10464, Note_on_c, 4, 67, 62
6, 10644, Note_off_c, 4, 67, 0
6, 10656, Note_on_c, 4, 72, 62
6, 10740, Note_off_c, 4, 72, 0
6, 10752, Note_on_c, 4, 70, 62
6, 10836, Note_off_c, 4, 70, 0
6, 10848, Note_on_c, 4, 69, 62
6, 10890, Note_off_c, 4, 69, 0
6, 10896, Note_on_c, 4, 67, 62
6, 10938, Note_off_c, 4, 67, 0
6, 10944, Note_on_c, 4, 69, 62
6, 11028, Note_off_c, 4, 69, 0
6, 11040, Note_on_c, 4, 70, 62
6, 11124, Note_off_c, 4, 70, 0
6, 11136, Note_on_c, 4, 67, 62
6, 11220, Note_off_c, 4, 67, 0
6, 11232, Note_on_c, 4, 72, 62
6, 11316, Note_off_c, 4, 72, 0
6, 11328, Note_on_c, 4, 72, 62
6, 11508, Note_off_c, 4, 72, 0
6, 11520, Note_on_c, 4, 67, 62
6, 11604, Note_off_c, 4, 67, 0
6, 11616, Note_on_c, 4, 67, 62
6, 11796, Note_off_c, 4, 67, 0
6, 11808, Note_on_c, 4, 67, 62
6, 11892, Note_off_c, 4, 67, 0
6, 11904, Note_on_c, 4, 62, 62
6, 11988, Note_off_c, 4, 62, 0
6, 12000, Note_on_c, 4, 64, 62
6, 12084, Note_off_c, 4, 64, 0
6, 12096, Note_on_c, 4, 60, 62
6, 12180, Note_off_c, 4, 60, 0
6, 12192, Note_on_c, 4, 67, 62
6, 12372, Note_off_c, 4, 67, 0
6, 12384, Note_on_c, 4, 67, 62
6, 12468, Note_off_c, 4, 67, 0
6, 12480, Note_on_c, 4, 67, 62
6, 12756, Note_off_c, 4, 67, 0
6, 12768, Note_on_c, 4, 67, 62
6, 12852, Note_off_c, 4, 67, 0
6, 12864, Note_on_c, 4, 67, 62
6, 12874, Note_off_c, 4, 67, 0
6, 12876, Note_on_c, 4, 65, 62
6, 12886, Note_off_c, 4, 65, 0
6, 12888, Note_on_c, 4, 67, 62
6, 12898, Note_off_c, 4, 67, 0
6, 12900, Note_on_c, 4, 65, 62
6, 12910, Note_off_c, 4, 65, 0
6, 12912, Note_on_c, 4, 67, 62
6, 12922, Note_off_c, 4, 67, 0
6, 12924, Note_on_c, 4, 65, 62
6, 12934, Note_off_c, 4, 65, 0
6, 12936, Note_on_c, 4, 67, 62
6, 12946, Note_off_c, 4, 67, 0
6, 12948, Note_on_c, 4, 65, 62
6, 12958, Note_off_c, 4, 65, 0
6, 12960, Note_on_c, 4, 67, 62
6, 12970, Note_off_c, 4, 67, 0
6, 12972, Note_on_c, 4, 65, 62
6, 12982, Note_off_c, 4, 65, 0
6, 12984, Note_on_c, 4, 67, 62
6, 12994, Note_off_c, 4, 67, 0
6, 12996, Note_on_c, 4, 65, 62
6, 13006, Note_off_c, 4, 65, 0
6, 13008, Note_on_c, 4, 64, 62
6, 13029, Note_off_c, 4, 64, 0
6, 13032, Note_on_c, 4, 65, 62
6, 13053, Note_off_c, 4, 65, 0
6, 13056, Note_on_c, 4, 67, 62
6, 13140, Note_off_c, 4, 67, 0
6, 13152, Note_on_c, 4, 72, 62
6, 13236, Note_off_c, 4, 72, 0
6, 13248, Note_on_c, 4, 64, 62
6, 13332, Note_off_c, 4, 64, 0
6, 13344, Note_on_c, 4, 69, 62
6, 13386, Note_off_c, 4, 69, 0
6, 13392, Note_on_c, 4, 70, 62
6, 13434, Note_off_c, 4, 70, 0
6, 13440, Note_on_c, 4, 67, 62
6, 13572, Note_off_c, 4, 67, 0
6, 13584, Note_on_c, 4, 69, 62
6, 13626, Note_off_c, 4, 69, 0
6, 13632, Note_on_c, 4, 69, 62
6, 13908, Note_off_c, 4, 69, 0
6, 14208, Tempo, 500000
6, 16512, Tempo, 500000
6, 30624, Tempo, 428571
6, 30624, Note_on_c, 4, 65, 62
6, 30804, Note_off_c, 4, 65, 0
6, 30816, Note_on_c, 4, 65, 62
6, 30900, Note_off_c, 4, 65, 0
6, 30912, Note_on_c, 4, 63, 62
6, 30996, Note_off_c, 4, 63, 0
6, 31008, Note_on_c, 4, 62, 62
6, 31050, Note_off_c, 4, 62, 0
6, 31056, Note_on_c, 4, 60, 62
6, 31098, Note_off_c, 4, 60, 0
6, 31104, Note_on_c, 4, 62, 62
6, 31188, Note_off_c, 4, 62, 0
6, 31200, Note_on_c, 4, 63, 62
6, 31284, Note_off_c, 4, 63, 0
6, 31296, Note_on_c, 4, 60, 62
6, 31380, Note_off_c, 4, 60, 0
6, 31392, Note_on_c, 4, 65, 62
6, 31476, Note_off_c, 4, 65, 0
6, 31488, Note_on_c, 4, 65, 62
6, 31668, Note_off_c, 4, 65, 0
6, 31680, Note_on_c, 4, 60, 62
6, 31764, Note_off_c, 4, 60, 0
6, 31776, Note_on_c, 4, 60, 62
6, 31956, Note_off_c, 4, 60, 0
6, 31968, Note_on_c, 4, 60, 62
6, 32052, Note_off_c, 4, 60, 0
6, 32064, Note_on_c, 4, 64, 62
6, 32148, Note_off_c, 4, 64, 0
6, 32160, Note_on_c, 4, 69, 62
6, 32202, Note_off_c, 4, 69, 0
6, 32208, Note_on_c, 4, 67, 62
6, 32250, Note_off_c, 4, 67, 0
6, 32256, Note_on_c, 4, 69, 62
6, 32340, Note_off_c, 4, 69, 0
6, 32352, Note_on_c, 4, 67, 62
6, 32436, Note_off_c, 4, 67, 0
6, 32448, Note_on_c, 4, 60, 62
6, 32532, Note_off_c, 4, 60, 0
6, 32544, Note_on_c, 4, 60, 62
6, 32628, Note_off_c, 4, 60, 0
6, 32640, Note_on_c, 4, 60, 62
6, 32820, Note_off_c, 4, 60, 0
6, 32832, Note_on_c, 4, 60, 62
6, 32916, Note_off_c, 4, 60, 0
6, 32928, Note_on_c, 4, 62, 62
6, 33012, Note_off_c, 4, 62, 0
6, 33024, Note_on_c, 4, 60, 62
6, 33066, Note_off_c, 4, 60, 0
6, 33072, Note_on_c, 4, 62, 62
6, 33114, Note_off_c, 4, 62, 0
6, 33120, Note_on_c, 4, 64, 62
6, 33204, Note_off_c, 4, 64, 0
6, 33216, Note_on_c, 4, 62, 62
6, 33396, Note_off_c, 4, 62, 0
6, 33408, Note_on_c, 4, 64, 62
6, 33492, Note_off_c, 4, 64, 0
6, 33504, Note_on_c, 4, 60, 62
6, 33588, Note_off_c, 4, 60, 0
6, 33600, Note_on_c, 4, 67, 62
6, 33684, Note_off_c, 4, 67, 0
6, 33696, Note_on_c, 4, 65, 62
6, 33780, Note_off_c, 4, 65, 0
6, 33792, Note_on_c, 4, 64, 62
6, 34068, Note_off_c, 4, 64, 0
6, 34080, Note_on_c, 4, 65, 62
6, 34260, Note_off_c, 4, 65, 0
6, 34272, Note_on_c, 4, 65, 62
6, 34356, Note_off_c, 4, 65, 0
6, 34368, Note_on_c, 4, 63, 62
6, 34452, Note_off_c, 4, 63, 0
6, 34464, Note_on_c, 4, 62, 62
6, 34506, Note_off_c, 4, 62, 0
6, 34512, Note_on_c, 4, 60, 62
6, 34554, Note_off_c, 4, 60, 0
6, 34560, Note_on_c, 4, 62, 62
6, 34644, Note_off_c, 4, 62, 0
6, 34656, Note_on_c, 4, 63, 62
6, 34740, Note_off_c, 4, 63, 0
6, 34752, Note_on_c, 4, 60, 62
6, 34836, Note_off_c, 4, 60, 0
6, 34848, Note_on_c, 4, 65, 62
6, 34932, Note_off_c, 4, 65, 0
6, 34944, Note_on_c, 4, 65, 62
6, 35124, Note_off_c, 4, 65, 0
6, 35136, Note_on_c, 4, 60, 62
6, 35220, Note_off_c, 4, 60, 0
6, 35232, Note_on_c, 4, 60, 62
6, 35412, Note_off_c, 4, 60, 0
6, 35424, Note_on_c, 4, 60, 62
6, 35508, Note_off_c, 4, 60, 0
6, 35520, Note_on_c, 4, 64, 62
6, 35604, Note_off_c, 4, 64, 0
6, 35616, Note_on_c, 4, 69, 62
6, 35658, Note_off_c, 4, 69, 0
6, 35664, Note_on_c, 4, 67, 62
6, 35706, Note_off_c, 4, 67, 0
6, 35712, Note_on_c, 4, 69, 62
6, 35796, Note_off_c, 4, 69, 0
6, 35808, Note_on_c, 4, 67, 62
6, 35892, Note_off_c, 4, 67, 0
6, 35904, Note_on_c, 4, 60, 62
6, 35988, Note_off_c, 4, 60, 0
6, 36000, Note_on_c, 4, 60, 62
6, 36084, Note_off_c, 4, 60, 0
6, 36096, Note_on_c, 4, 60, 62
6, 36276, Note_off_c, 4, 60, 0
6, 36288, Note_on_c, 4, 60, 62
6, 36372, Note_off_c, 4, 60, 0
6, 36384, Note_on_c, 4, 62, 62
6, 36468, Note_off_c, 4, 62, 0
6, 36480, Note_on_c, 4, 60, 62
6, 36522, Note_off_c, 4, 60, 0
6, 36528, Note_on_c, 4, 62, 62
6, 36570, Note_off_c, 4, 62, 0
6, 36576, Note_on_c, 4, 64, 62
6, 36660, Note_off_c, 4, 64, 0
6, 36672, Note_on_c, 4, 62, 62
6, 36852, Note_off_c, 4, 62, 0
6, 36864, Note_on_c, 4, 64, 62
6, 36948, Note_off_c, 4, 64, 0
6, 36960, Note_on_c, 4, 60, 62
6, 37044, Note_off_c, 4, 60, 0
6, 37056, Note_on_c, 4, 67, 62
6, 37140, Note_off_c, 4, 67, 0
6, 37152, Note_on_c, 4, 65, 62
6, 37236, Note_off_c, 4, 65, 0
6, 37248, Note_on_c, 4, 64, 62
6, 37524, Note_off_c, 4, 64, 0
6, 37536, Note_on_c, 4, 67, 62
6, 37716, Note_off_c, 4, 67, 0
6, 37728, Note_on_c, 4, 72, 62
6, 37812, Note_off_c, 4, 72, 0
6, 37824, Note_on_c, 4, 70, 62
6, 37908, Note_off_c, 4, 70, 0
6, 37920, Note_on_c, 4, 69, 62
6, 37962, Note_off_c, 4, 69, 0
6, 37968, Note_on_c, 4, 67, 62
6, 38010, Note_off_c, 4, 67, 0
6, 38016, Note_on_c, 4, 69, 62
6, 38100, Note_off_c, 4, 69, 0
6, 38112, Note_on_c, 4, 70, 62
6, 38196, Note_off_c, 4, 70, 0
6, 38208, Note_on_c, 4, 67, 62
6, 38292, Note_off_c, 4, 67, 0
6, 38304, Note_on_c, 4, 72, 62
6, 38388, Note_off_c, 4, 72, 0
6, 38400, Note_on_c, 4, 72, 62
6, 38580, Note_off_c, 4, 72, 0
6, 38592, Note_on_c, 4, 67, 62
6, 38676, Note_off_c, 4, 67, 0
6, 38688, Note_on_c, 4, 67, 62
6, 38868, Note_off_c, 4, 67, 0
6, 38880, Note_on_c, 4, 67, 62
6, 38964, Note_off_c, 4, 67, 0
6, 38976, Note_on_c, 4, 62, 62
6, 39060, Note_off_c, 4, 62, 0
6, 39072, Note_on_c, 4, 64, 62
6, 39156, Note_off_c, 4, 64, 0
6, 39168, Note_on_c, 4, 60, 62
6, 39252, Note_off_c, 4, 60, 0
6, 39264, Note_on_c, 4, 67, 62
6, 39444, Note_off_c, 4, 67, 0
6, 39456, Note_on_c, 4, 67, 62
6, 39540, Note_off_c, 4, 67, 0
6, 39552, Note_on_c, 4, 67, 62
6, 39828, Note_off_c, 4, 67, 0
6, 39840, Note_on_c, 4, 67, 62
6, 39924, Note_off_c, 4, 67, 0
6, 39936, Note_on_c, 4, 67, 62
6, 39946, Note_off_c, 4, 67, 0
6, 39948, Note_on_c, 4, 65, 62
6, 39958, Note_off_c, 4, 65, 0
6, 39960, Note_on_c, 4, 67, 62
6, 39970, Note_off_c, 4, 67, 0
6, 39972, Note_on_c, 4, 65, 62
6, 39982, Note_off_c, 4, 65, 0
6, 39984, Note_on_c, 4, 67, 62
6, 39994, Note_off_c, 4, 67, 0
6, 39996, Note_on_c, 4, 65, 62
6, 40006, Note_off_c, 4, 65, 0
6, 40008, Note_on_c, 4, 67, 62
6, 40018, Note_off_c, 4, 67, 0
6, 40020, Note_on_c, 4, 65, 62
6, 40030, Note_off_c, 4, 65, 0
6, 40032, Note_on_c, 4, 67, 62
6, 40042, Note_off_c, 4, 67, 0
6, 40044, Note_on_c, 4, 65, 62
6, 40054, Note_off_c, 4, 65, 0
6, 40056, Note_on_c, 4, 67, 62
6, 40066, Note_off_c, 4, 67, 0
6, 40068, Note_on_c, 4, 65, 62
6, 40078, Note_off_c, 4, 65, 0
6, 40080, Note_on_c, 4, 64, 62
6, 40101, Note_off_c, 4, 64, 0
6, 40104, Note_on_c, 4, 65, 62
6, 40125, Note_off_c, 4, 65, 0
6, 40128, Note_on_c, 4, 67, 62
6, 40212, Note_off_c, 4, 67, 0
6, 40224, Note_on_c, 4, 72, 62
6, 40308, Note_off_c, 4, 72, 0
6, 40320, Note_on_c, 4, 64, 62
6, 40404, Note_off_c, 4, 64, 0
6, 40416, Note_on_c, 4, 69, 62
6, 40458, Note_off_c, 4, 69, 0
6, 40464, Note_on_c, 4, 70, 62
6, 40506, Note_off_c, 4, 70, 0
6, 40512, Note_on_c, 4, 67, 62
6, 40644, Note_off_c, 4, 67, 0
6, 40656, Note_on_c, 4, 69, 62
6, 40698, Note_off_c, 4, 69, 0
6, 40704, Note_on_c, 4, 69, 62
6, 40980, Note_off_c, 4, 69, 0
6, 40992, Note_on_c, 4, 67, 62
6, 41172, Note_off_c, 4, 67, 0
6, 41184, Note_on_c, 4, 72, 62
6, 41268, Note_off_c, 4, 72, 0
6, 41280, Note_on_c, 4, 70, 62
6, 41364, Note_off_c, 4, 70, 0
6, 41376, Note_on_c, 4, 69, 62
6, 41418, Note_off_c, 4, 69, 0
6, 41424, Note_on_c, 4, 67, 62
6, 41466, Note_off_c, 4, 67, 0
6, 41472, Note_on_c, 4, 69, 62
6, 41556, Note_off_c, 4, 69, 0
6, 41568, Note_on_c, 4, 70, 62
6, 41652, Note_off_c, 4, 70, 0
6, 41664, Note_on_c, 4, 67, 62
6, 41748, Note_off_c, 4, 67, 0
6, 41760, Note_on_c, 4, 72, 62
6, 41844, Note_off_c, 4, 72, 0
6, 41856, Note_on_c, 4, 72, 62
6, 42036, Note_off_c, 4, 72, 0
6, 42048, Note_on_c, 4, 67, 62
6, 42132, Note_off_c, 4, 67, 0
6, 42144, Note_on_c, 4, 67, 62
6, 42324, Note_off_c, 4, 67, 0
6, 42336, Note_on_c, 4, 67, 62
6, 42420, Note_off_c, 4, 67, 0
6, 42432, Note_on_c, 4, 62, 62
6, 42516, Note_off_c, 4, 62, 0
6, 42528, Note_on_c, 4, 64, 62
6, 42612, Note_off_c, 4, 64, 0
6, 42624, Note_on_c, 4, 60, 62
6, 42708, Note_off_c, 4, 60, 0
6, 42720, Note_on_c, 4, 67, 62
6, 42900, Note_off_c, 4, 67, 0
6, 42912, Note_on_c, 4, 67, 62
6, 42996, Note_off_c, 4, 67, 0
6, 43008, Note_on_c, 4, 67, 62
6, 43284, Note_off_c, 4, 67, 0
6, 43296, Note_on_c, 4, 67, 62
6, 43380, Note_off_c, 4, 67, 0
6, 43392, Note_on_c, 4, 67, 62
6, 43402, Note_off_c, 4, 67, 0
6, 43404, Note_on_c, 4, 65, 62
6, 43414, Note_off_c, 4, 65, 0
6, 43416, Note_on_c, 4, 67, 62
6, 43426, Note_off_c, 4, 67, 0
6, 43428, Note_on_c, 4, 65, 62
6, 43438, Note_off_c, 4, 65, 0
6, 43440, Note_on_c, 4, 67, 62
6, 43450, Note_off_c, 4, 67, 0
6, 43452, Note_on_c, 4, 65, 62
6, 43462, Note_off_c, 4, 65, 0
6, 43464, Note_on_c, 4, 67, 62
6, 43474, Note_off_c, 4, 67, 0
6, 43476, Note_on_c, 4, 65, 62
6, 43486, Note_off_c, 4, 65, 0
6, 43488, Note_on_c, 4, 67, 62
6, 43498, Note_off_c, 4, 67, 0
6, 43500, Note_on_c, 4, 65, 62
6, 43510, Note_off_c, 4, 65, 0
6, 43512, Note_on_c, 4, 67, 62
6, 43522, Note_off_c, 4, 67, 0
6, 43524, Note_on_c, 4, 65, 62
6, 43534, Note_off_c, 4, 65, 0
6, 43536, Note_on_c, 4, 64, 62
6, 43557, Note_off_c, 4, 64, 0
6, 43560, Note_on_c, 4, 65, 62
6, 43581, Note_off_c, 4, 65, 0
6, 43584, Note_on_c, 4, 67, 62
6, 43668, Note_off_c, 4, 67, 0
6, 43680, Note_on_c, 4, 72, 62
6, 43764, Note_off_c, 4, 72, 0
6, 43776, Note_on_c, 4, 64, 62
6, 43860, Note_off_c, 4, 64, 0
6, 43872, Note_on_c, 4, 69, 62
6, 43914, Note_off_c, 4, 69, 0
6, 43920, Note_on_c, 4, 70, 62
6, 43962, Note_off_c, 4, 70, 0
6, 43968, Note_on_c, 4, 67, 62
6, 44100, Note_off_c, 4, 67, 0
6, 44112, Note_on_c, 4, 69, 62
6, 44154, Note_off_c, 4, 69, 0
6, 44160, Note_on_c, 4, 69, 62
6, 44436, Note_off_c, 4, 69, 0
6, 44736, Tempo, 1000000
6, 44736, End_track
7, 0, Start_track
7, 0, Title_t, "Fagotto"
7, 0, Control_c, 5, 0, 0
7, 0, Program_c, 5, 70
7, 0, Time_signature, 3, 2, 96, 8
7, 0, Tempo, 1000000
7, 96, Tempo, 428571
7, 96, Note_on_c, 5, 57, 49
7, 276, Note_off_c, 5, 57, 0
7, 288, Note_on_c, 5, 58, 49
7, 372, Note_off_c, 5, 58, 0
7, 384, Note_on_c, 5, 60, 49
7, 468, Note_off_c, 5, 60, 0
7, 480, Note_on_c, 5, 63, 49
7, 564, Note_off_c, 5, 63, 0
7, 576, Note_on_c, 5, 62, 49
7, 660, Note_off_c, 5, 62, 0
7, 672, Note_on_c, 5, 60, 49
7, 756, Note_off_c, 5, 60, 0
7, 768, Note_on_c, 5, 58, 49
7, 810, Note_off_c, 5, 58, 0
7, 816, Note_on_c, 5, 57, 49
7, 858, Note_off_c, 5, 57, 0
7, 864, Note_on_c, 5, 58, 49
7, 948, Note_off_c, 5, 58, 0
7, 960, Note_on_c, 5, 57, 49
7, 1044, Note_off_c, 5, 57, 0
7, 1056, Note_on_c, 5, 58, 49
7, 1098, Note_off_c, 5, 58, 0
7, 1104, Note_on_c, 5, 57, 49
7, 1146, Note_off_c, 5, 57, 0
7, 1152, Note_on_c, 5, 55, 49
7, 1194, Note_off_c, 5, 55, 0
7, 1200, Note_on_c, 5, 53, 49
7, 1242, Note_off_c, 5, 53, 0
7, 1248, Note_on_c, 5, 52, 49
7, 1428, Note_off_c, 5, 52, 0
7, 1440, Note_on_c, 5, 53, 49
7, 1524, Note_off_c, 5, 53, 0
7, 1536, Note_on_c, 5, 55, 49
7, 1620, Note_off_c, 5, 55, 0
7, 1632, Note_on_c, 5, 53, 49
7, 1674, Note_off_c, 5, 53, 0
7, 1680, Note_on_c, 5, 52, 49
7, 1722, Note_off_c, 5, 52, 0
7, 1728, Note_on_c, 5, 53, 49
7, 1812, Note_off_c, 5, 53, 0
7, 1824, Note_on_c, 5, 52, 49
7, 1908, Note_off_c, 5, 52, 0
7, 1920, Note_on_c, 5, 53, 49
7, 1962, Note_off_c, 5, 53, 0
7, 1968, Note_on_c, 5, 52, 49
7, 2010, Note_off_c, 5, 52, 0
7, 2016, Note_on_c, 5, 50, 49
7, 2058, Note_off_c, 5, 50, 0
7, 2064, Note_on_c, 5, 48, 49
7, 2106, Note_off_c, 5, 48, 0
7, 2112, Note_on_c, 5, 53, 49
7, 2196, Note_off_c, 5, 53, 0
7, 2208, Note_on_c, 5, 52, 49
7, 2250, Note_off_c, 5, 52, 0
7, 2256, Note_on_c, 5, 50, 49
7, 2298, Note_off_c, 5, 50, 0
7, 2304, Note_on_c, 5, 52, 49
7, 2388, Note_off_c, 5, 52, 0
7, 2400, Note_on_c, 5, 50, 49
7, 2484, Note_off_c, 5, 50, 0
7, 2496, Note_on_c, 5, 52, 49
7, 2580, Note_off_c, 5, 52, 0
7, 2592, Note_on_c, 5, 48, 49
7, 2676, Note_off_c, 5, 48, 0
7, 2688, Note_on_c, 5, 47, 49
7, 2772, Note_off_c, 5, 47, 0
7, 2784, Note_on_c, 5, 45, 49
7, 2826, Note_off_c, 5, 45, 0
7, 2832, Note_on_c, 5, 43, 49
7, 2874, Note_off_c, 5, 43, 0
7, 2880, Note_on_c, 5, 41, 49
7, 2922, Note_off_c, 5, 41, 0
7, 2928, Note_on_c, 5, 40, 49
7, 2970, Note_off_c, 5, 40, 0
7, 2976, Note_on_c, 5, 45, 49
7, 3018, Note_off_c, 5, 45, 0
7, 3024, Note_on_c, 5, 41, 49
7, 3066, Note_off_c, 5, 41, 0
7, 3072, Note_on_c, 5, 43, 49
7, 3156, Note_off_c, 5, 43, 0
7, 3168, Note_on_c, 5, 43, 49
7, 3252, Note_off_c, 5, 43, 0
7, 3264, Note_on_c, 5, 36, 49
7, 3348, Note_off_c, 5, 36, 0
7, 3360, Note_on_c, 5, 48, 49
7, 3402, Note_off_c, 5, 48, 0
7, 3408, Note_on_c, 5, 46, 49
7, 3450, Note_off_c, 5, 46, 0
7, 3456, Note_on_c, 5, 45, 49
7, 3498, Note_off_c, 5, 45, 0
7, 3504, Note_on_c, 5, 43, 49
7, 3546, Note_off_c, 5, 43, 0
7, 3552, Note_on_c, 5, 41, 49
7, 3636, Note_off_c, 5, 41, 0
7, 3648, Note_on_c, 5, 57, 49
7, 3732, Note_off_c, 5, 57, 0
7, 3744, Note_on_c, 5, 58, 49
7, 3828, Note_off_c, 5, 58, 0
7, 3840, Note_on_c, 5, 60, 49
7, 3924, Note_off_c, 5, 60, 0
7, 3936, Note_on_c, 5, 63, 49
7, 4020, Note_off_c, 5, 63, 0
7, 4032, Note_on_c, 5, 62, 49
7, 4116, Note_off_c, 5, 62, 0
7, 4128, Note_on_c, 5, 60, 49
7, 4212, Note_off_c, 5, 60, 0
7, 4224, Note_on_c, 5, 58, 49
7, 4266, Note_off_c, 5, 58, 0
7, 4272, Note_on_c, 5, 57, 49
7, 4314, Note_off_c, 5, 57, 0
7, 4320, Note_on_c, 5, 58, 49
7, 4404, Note_off_c, 5, 58, 0
7, 4416, Note_on_c, 5, 57, 49
7, 4500, Note_off_c, 5, 57, 0
7, 4512, Note_on_c, 5, 58, 49
7, 4554, Note_off_c, 5, 58, 0
7, 4560, Note_on_c, 5, 57, 49
7, 4602, Note_off_c, 5, 57, 0
7, 4608, Note_on_c, 5, 55, 49
7, 4650, Note_off_c, 5, 55, 0
7, 4656, Note_on_c, 5, 53, 49
7, 4698, Note_off_c, 5, 53, 0
7, 4704, Note_on_c, 5, 52, 49
7, 4884, Note_off_c, 5, 52, 0
7, 4896, Note_on_c, 5, 53, 49
7, 4980, Note_off_c, 5, 53, 0
7, 4992, Note_on_c, 5, 55, 49
7, 5076, Note_off_c, 5, 55, 0
7, 5088, Note_on_c, 5, 53, 49
7, 5130, Note_off_c, 5, 53, 0
7, 5136, Note_on_c, 5, 52, 49
7, 5178, Note_off_c, 5, 52, 0
7, 5184, Note_on_c, 5, 53, 49
7, 5268, Note_off_c, 5, 53, 0
7, 5280, Note_on_c, 5, 52, 49
7, 5364, Note_off_c, 5, 52, 0
7, 5376, Note_on_c, 5, 53, 49
7, 5418, Note_off_c, 5, 53, 0
7, 5424, Note_on_c, 5, 52, 49
7, 5466, Note_off_c, 5, 52, 0
7, 5472, Note_on_c, 5, 50, 49
7, 5514, Note_off_c, 5, 50, 0
7, 5520, Note_on_c, 5, 48, 49
7, 5562, Note_off_c, 5, 48, 0
7, 5568, Note_on_c, 5, 53, 49
7, 5652, Note_off_c, 5, 53, 0
7, 5664, Note_on_c, 5, 52, 49
7, 5706, Note_off_c, 5, 52, 0
7, 5712, Note_on_c, 5, 50, 49
7, 5754, Note_off_c, 5, 50, 0
7, 5760, Note_on_c, 5, 52, 49
7, 5844, Note_off_c, 5, 52, 0
7, 5856, Note_on_c, 5, 50, 49
7, 5940, Note_off_c, 5, 50, 0
7, 5952, Note_on_c, 5, 52, 49
7, 6036, Note_off_c, 5, 52, 0
7, 6048, Note_on_c, 5, 48, 49
7, 6132, Note_off_c, 5, 48, 0
7, 6144, Note_on_c, 5, 47, 49
7, 6228, Note_off_c, 5, 47, 0
7, 6240, Note_on_c, 5, 45, 49
7, 6282, Note_off_c, 5, 45, 0
7, 6288, Note_on_c, 5, 43, 49
7, 6330, Note_off_c, 5, 43, 0
7, 6336, Note_on_c, 5, 41, 49
7, 6378, Note_off_c, 5, 41, 0
7, 6384, Note_on_c, 5, 40, 49
7, 6426, Note_off_c, 5, 40, 0
7, 6432, Note_on_c, 5, 45, 49
7, 6474, Note_off_c, 5, 45, 0
7, 6480, Note_on_c, 5, 41, 49
7, 6522, Note_off_c, 5, 41, 0
7, 6528, Note_on_c, 5, 43, 49
7, 6612, Note_off_c, 5, 43, 0
7, 6624, Note_on_c, 5, 43, 49
7, 6708, Note_off_c, 5, 43, 0
7, 6720, Note_on_c, 5, 36, 49
7, 6804, Note_off_c, 5, 36, 0
7, 6816, Note_on_c, 5, 48, 49
7, 6900, Note_off_c, 5, 48, 0
7, 6912, Note_on_c, 5, 50, 49
7, 6996, Note_off_c, 5, 50, 0
7, 7008, Note_on_c, 5, 52, 49
7, 7188, Note_off_c, 5, 52, 0
7, 7200, Note_on_c, 5, 53, 49
7, 7284, Note_off_c, 5, 53, 0
7, 7296, Note_on_c, 5, 55, 49
7, 7380, Note_off_c, 5, 55, 0
7, 7392, Note_on_c, 5, 58, 49
7, 7476, Note_off_c, 5, 58, 0
7, 7488, Note_on_c, 5, 57, 49
7, 7572, Note_off_c, 5, 57, 0
7, 7584, Note_on_c, 5, 55, 49
7, 7668, Note_off_c, 5, 55, 0
7, 7680, Note_on_c, 5, 53, 49
7, 7722, Note_off_c, 5, 53, 0
7, 7728, Note_on_c, 5, 52, 49
7, 7770, Note_off_c, 5, 52, 0
7, 7776, Note_on_c, 5, 53, 49
7, 7860, Note_off_c, 5, 53, 0
7, 7872, Note_on_c, 5, 52, 49
7, 7956, Note_off_c, 5, 52, 0
7, 7968, Note_on_c, 5, 53, 49
7, 8010, Note_off_c, 5, 53, 0
7, 8016, Note_on_c, 5, 52, 49
7, 8058, Note_off_c, 5, 52, 0
7, 8064, Note_on_c, 5, 50, 49
7, 8106, Note_off_c, 5, 50, 0
7, 8112, Note_on_c, 5, 48, 49
7, 8154, Note_off_c, 5, 48, 0
7, 8160, Note_on_c, 5, 48, 49
7, 8181, Note_off_c, 5, 48, 0
7, 8184, Note_on_c, 5, 47, 49
7, 8205, Note_off_c, 5, 47, 0
7, 8208, Note_on_c, 5, 48, 49
7, 8229, Note_off_c, 5, 48, 0
7, 8232, Note_on_c, 5, 47, 49
7, 8253, Note_off_c, 5, 47, 0
7, 8256, Note_on_c, 5, 48, 49
7, 8277, Note_off_c, 5, 48, 0
7, 8280, Note_on_c, 5, 47, 49
7, 8301, Note_off_c, 5, 47, 0
7, 8304, Note_on_c, 5, 48, 49
7, 8325, Note_off_c, 5, 48, 0
7, 8328, Note_on_c, 5, 47, 49
7, 8349, Note_off_c, 5, 47, 0
7, 8352, Note_on_c, 5, 48, 49
7, 8436, Note_off_c, 5, 48, 0
7, 8448, Note_on_c, 5, 50, 49
7, 8532, Note_off_c, 5, 50, 0
7, 8544, Note_on_c, 5, 48, 49
7, 8586, Note_off_c, 5, 48, 0
7, 8592, Note_on_c, 5, 47, 49
7, 8634, Note_off_c, 5, 47, 0
7, 8640, Note_on_c, 5, 48, 49
7, 8724, Note_off_c, 5, 48, 0
7, 8736, Note_on_c, 5, 47, 49
7, 8820, Note_off_c, 5, 47, 0
7, 8832, Note_on_c, 5, 48, 49
7, 8874, Note_off_c, 5, 48, 0
7, 8880, Note_on_c, 5, 47, 49
7, 8922, Note_off_c, 5, 47, 0
7, 8928, Note_on_c, 5, 45, 49
7, 8970, Note_off_c, 5, 45, 0
7, 8976, Note_on_c, 5, 43, 49
7, 9018, Note_off_c, 5, 43, 0
7, 9024, Note_on_c, 5, 48, 49
7, 9108, Note_off_c, 5, 48, 0
7, 9120, Note_on_c, 5, 46, 49
7, 9162, Note_off_c, 5, 46, 0
7, 9168, Note_on_c, 5, 45, 49
7, 9210, Note_off_c, 5, 45, 0
7, 9216, Note_on_c, 5, 43, 49
7, 9258, Note_off_c, 5, 43, 0
7, 9264, Note_on_c, 5, 41, 49
7, 9306, Note_off_c, 5, 41, 0
7, 9312, Note_on_c, 5, 40, 49
7, 9396, Note_off_c, 5, 40, 0
7, 9408, Note_on_c, 5, 41, 49
7, 9450, Note_off_c, 5, 41, 0
7, 9456, Note_on_c, 5, 40, 49
7, 9498, Note_off_c, 5, 40, 0
7, 9504, Note_on_c, 5, 38, 49
7, 9546, Note_off_c, 5, 38, 0
7, 9552, Note_on_c, 5, 40, 49
7, 9594, Note_off_c, 5, 40, 0
7, 9600, Note_on_c, 5, 36, 49
7, 9684, Note_off_c, 5, 36, 0
7, 9696, Note_on_c, 5, 48, 49
7, 9738, Note_off_c, 5, 48, 0
7, 9744, Note_on_c, 5, 50, 49
7, 9786, Note_off_c, 5, 50, 0
7, 9792, Note_on_c, 5, 52, 49
7, 9834, Note_off_c, 5, 52, 0
7, 9840, Note_on_c, 5, 48, 49
7, 9882, Note_off_c, 5, 48, 0
7, 9888, Note_on_c, 5, 50, 49
7, 9930, Note_off_c, 5, 50, 0
7, 9936, Note_on_c, 5, 46, 49
7, 9978, Note_off_c, 5, 46, 0
7, 9984, Note_on_c, 5, 48, 49
7, 10068, Note_off_c, 5, 48, 0
7, 10080, Note_on_c, 5, 36, 49
7, 10164, Note_off_c, 5, 36, 0
7, 10176, Note_on_c, 5, 41, 49
7, 10218, Note_off_c, 5, 41, 0
7, 10224, Note_on_c, 5, 43, 49
7, 10266, Note_off_c, 5, 43, 0
7, 10272, Note_on_c, 5, 45, 49
7, 10314, Note_off_c, 5, 45, 0
7, 10320, Note_on_c, 5, 46, 49
7, 10362, Note_off_c, 5, 46, 0
7, 10368, Note_on_c, 5, 48, 49
7, 10410, Note_off_c, 5, 48, 0
7, 10416, Note_on_c, 5, 50, 49
7, 10458, Note_off_c, 5, 50, 0
7, 10464, Note_on_c, 5, 52, 49
7, 10644, Note_off_c, 5, 52, 0
7, 10656, Note_on_c, 5, 53, 49
7, 10740, Note_off_c, 5, 53, 0
7, 10752, Note_on_c, 5, 55, 49
7, 10836, Note_off_c, 5, 55, 0
7, 10848, Note_on_c, 5, 58, 49
7, 10932, Note_off_c, 5, 58, 0
7, 10944, Note_on_c, 5, 57, 49
7, 11028, Note_off_c, 5, 57, 0
7, 11040, Note_on_c, 5, 55, 49
7, 11124, Note_off_c, 5, 55, 0
7, 11136, Note_on_c, 5, 53, 49
7, 11178, Note_off_c, 5, 53, 0
7, 11184, Note_on_c, 5, 52, 49
7, 11226, Note_off_c, 5, 52, 0
7, 11232, Note_on_c, 5, 53, 49
7, 11316, Note_off_c, 5, 53, 0
7, 11328, Note_on_c, 5, 52, 49
7, 11412, Note_off_c, 5, 52, 0
7, 11424, Note_on_c, 5, 53, 49
7, 11466, Note_off_c, 5, 53, 0
7, 11472, Note_on_c, 5, 52, 49
7, 11514, Note_off_c, 5, 52, 0
7, 11520, Note_on_c, 5, 50, 49
7, 11562, Note_off_c, 5, 50, 0
7, 11568, Note_on_c, 5, 48, 49
7, 11610, Note_off_c, 5, 48, 0
7, 11616, Note_on_c, 5, 48, 49
7, 11637, Note_off_c, 5, 48, 0
7, 11640, Note_on_c, 5, 47, 49
7, 11661, Note_off_c, 5, 47, 0
7, 11664, Note_on_c, 5, 48, 49
7, 11685, Note_off_c, 5, 48, 0
7, 11688, Note_on_c, 5, 47, 49
7, 11709, Note_off_c, 5, 47, 0
7, 11712, Note_on_c, 5, 48, 49
7, 11733, Note_off_c, 5, 48, 0
7, 11736, Note_on_c, 5, 47, 49
7, 11757, Note_off_c, 5, 47, 0
7, 11760, Note_on_c, 5, 48, 49
7, 11781, Note_off_c, 5, 48, 0
7, 11784, Note_on_c, 5, 47, 49
7, 11805, Note_off_c, 5, 47, 0
7, 11808, Note_on_c, 5, 48, 49
7, 11892, Note_off_c, 5, 48, 0
7, 11904, Note_on_c, 5, 50, 49
7, 11988, Note_off_c, 5, 50, 0
7, 12000, Note_on_c, 5, 48, 49
7, 12042, Note_off_c, 5, 48, 0
7, 12048, Note_on_c, 5, 47, 49
7, 12090, Note_off_c, 5, 47, 0
7, 12096, Note_on_c, 5, 48, 49
7, 12180, Note_off_c, 5, 48, 0
7, 12192, Note_on_c, 5, 47, 49
7, 12276, Note_off_c, 5, 47, 0
7, 12288, Note_on_c, 5, 48, 49
7, 12330, Note_off_c, 5, 48, 0
7, 12336, Note_on_c, 5, 47, 49
7, 12378, Note_off_c, 5, 47, 0
7, 12384, Note_on_c, 5, 45, 49
7, 12426, Note_off_c, 5, 45, 0
7, 12432, Note_on_c, 5, 43, 49
7, 12474, Note_off_c, 5, 43, 0
7, 12480, Note_on_c, 5, 48, 49
7, 12564, Note_off_c, 5, 48, 0
7, 12576, Note_on_c, 5, 46, 49
7, 12618, Note_off_c, 5, 46, 0
7, 12624, Note_on_c, 5, 45, 49
7, 12666, Note_off_c, 5, 45, 0
7, 12672, Note_on_c, 5, 43, 49
7, 12714, Note_off_c, 5, 43, 0
7, 12720, Note_on_c, 5, 41, 49
7, 12762, Note_off_c, 5, 41, 0
7, 12768, Note_on_c, 5, 40, 49
7, 12852, Note_off_c, 5, 40, 0
7, 12864, Note_on_c, 5, 41, 49
7, 12906, Note_off_c, 5, 41, 0
7, 12912, Note_on_c, 5, 40, 49
7, 12954, Note_off_c, 5, 40, 0
7, 12960, Note_on_c, 5, 38, 49
7, 13002, Note_off_c, 5, 38, 0
7, 13008, Note_on_c, 5, 40, 49
7, 13050, Note_off_c, 5, 40, 0
7, 13056, Note_on_c, 5, 36, 49
7, 13140, Note_off_c, 5, 36, 0
7, 13152, Note_on_c, 5, 48, 49
7, 13194, Note_off_c, 5, 48, 0
7, 13200, Note_on_c, 5, 50, 49
7, 13242, Note_off_c, 5, 50, 0
7, 13248, Note_on_c, 5, 52, 49
7, 13290, Note_off_c, 5, 52, 0
7, 13296, Note_on_c, 5, 48, 49
7, 13338, Note_off_c, 5, 48, 0
7, 13344, Note_on_c, 5, 50, 49
7, 13386, Note_off_c, 5, 50, 0
7, 13392, Note_on_c, 5, 46, 49
7, 13434, Note_off_c, 5, 46, 0
7, 13440, Note_on_c, 5, 48, 49
7, 13524, Note_off_c, 5, 48, 0
7, 13536, Note_on_c, 5, 36, 49
7, 13620, Note_off_c, 5, 36, 0
7, 13632, Note_on_c, 5, 41, 49
7, 13908, Note_off_c, 5, 41, 0
7, 14208, Tempo, 500000
7, 14208, Note_on_c, 5, 62, 62
7, 14292, Note_off_c, 5, 62, 0
7, 14304, Note_on_c, 5, 60, 62
7, 14388, Note_off_c, 5, 60, 0
7, 14400, Note_on_c, 5, 58, 62
7, 14484, Note_off_c, 5, 58, 0
7, 14496, Note_on_c, 5, 60, 62
7, 14580, Note_off_c, 5, 60, 0
7, 14592, Note_on_c, 5, 58, 62
7, 14676, Note_off_c, 5, 58, 0
7, 14688, Note_on_c, 5, 57, 62
7, 14772, Note_off_c, 5, 57, 0
7, 14784, Note_on_c, 5, 58, 62
7, 14868, Note_off_c, 5, 58, 0
7, 14880, Note_on_c, 5, 57, 62
7, 14964, Note_off_c, 5, 57, 0
7, 14976, Note_on_c, 5, 55, 62
7, 15060, Note_off_c, 5, 55, 0
7, 15072, Note_on_c, 5, 60, 62
7, 15156, Note_off_c, 5, 60, 0
7, 15168, Note_on_c, 5, 48, 62
7, 15252, Note_off_c, 5, 48, 0
7, 15264, Note_on_c, 5, 53, 62
7, 15348, Note_off_c, 5, 53, 0
7, 15360, Note_on_c, 5, 58, 62
7, 15444, Note_off_c, 5, 58, 0
7, 15456, Note_on_c, 5, 57, 62
7, 15540, Note_off_c, 5, 57, 0
7, 15552, Note_on_c, 5, 55, 62
7, 15636, Note_off_c, 5, 55, 0
7, 15648, Note_on_c, 5, 57, 62
7, 15732, Note_off_c, 5, 57, 0
7, 15744, Note_on_c, 5, 55, 62
7, 15828, Note_off_c, 5, 55, 0
7, 15840, Note_on_c, 5, 53, 62
7, 15924, Note_off_c, 5, 53, 0
7, 15936, Note_on_c, 5, 52, 62
7, 16020, Note_off_c, 5, 52, 0
7, 16032, Note_on_c, 5, 50, 62
7, 16116, Note_off_c, 5, 50, 0
7, 16128, Note_on_c, 5, 38, 62
7, 16212, Note_off_c, 5, 38, 0
7, 16224, Note_on_c, 5, 45, 62
7, 16308, Note_off_c, 5, 45, 0
7, 16320, Note_on_c, 5, 57, 62
7, 16362, Note_off_c, 5, 57, 0
7, 16368, Note_on_c, 5, 59, 62
7, 16410, Note_off_c, 5, 59, 0
7, 16416, Note_on_c, 5, 61, 62
7, 16458, Note_off_c, 5, 61, 0
7, 16464, Note_on_c, 5, 57, 62
7, 16506, Note_off_c, 5, 57, 0
7, 16512, Tempo, 500000
7, 16512, Note_on_c, 5, 62, 62
7, 16596, Note_off_c, 5, 62, 0
7, 16608, Note_on_c, 5, 60, 62
7, 16692, Note_off_c, 5, 60, 0
7, 16704, Note_on_c, 5, 58, 62
7, 16788, Note_off_c, 5, 58, 0
7, 16800, Note_on_c, 5, 60, 62
7, 16884, Note_off_c, 5, 60, 0
7, 16896, Note_on_c, 5, 58, 62
7, 16980, Note_off_c, 5, 58, 0
7, 16992, Note_on_c, 5, 57, 62
7, 17076, Note_off_c, 5, 57, 0
7, 17088, Note_on_c, 5, 58, 62
7, 17172, Note_off_c, 5, 58, 0
7, 17184, Note_on_c, 5, 57, 62
7, 17268, Note_off_c, 5, 57, 0
7, 17280, Note_on_c, 5, 55, 62
7, 17364, Note_off_c, 5, 55, 0
7, 17376, Note_on_c, 5, 60, 62
7, 17460, Note_off_c, 5, 60, 0
7, 17472, Note_on_c, 5, 48, 62
7, 17556, Note_off_c, 5, 48, 0
7, 17568, Note_on_c, 5, 53, 62
7, 17652, Note_off_c, 5, 53, 0
7, 17664, Note_on_c, 5, 58, 62
7, 17748, Note_off_c, 5, 58, 0
7, 17760, Note_on_c, 5, 57, 62
7, 17844, Note_off_c, 5, 57, 0
7, 17856, Note_on_c, 5, 55, 62
7, 17940, Note_off_c, 5, 55, 0
7, 17952, Note_on_c, 5, 57, 62
7, 18036, Note_off_c, 5, 57, 0
7, 18048, Note_on_c, 5, 55, 62
7, 18132, Note_off_c, 5, 55, 0
7, 18144, Note_on_c, 5, 53, 62
7, 18228, Note_off_c, 5, 53, 0
7, 18240, Note_on_c, 5, 52, 62
7, 18324, Note_off_c, 5, 52, 0
7, 18336, Note_on_c, 5, 50, 62
7, 18420, Note_off_c, 5, 50, 0
7, 18432, Note_on_c, 5, 38, 62
7, 18516, Note_off_c, 5, 38, 0
7, 18528, Note_on_c, 5, 45, 62
7, 18612, Note_off_c, 5, 45, 0
7, 18624, Note_on_c, 5, 49, 62
7, 18708, Note_off_c, 5, 49, 0
7, 18720, Note_on_c, 5, 52, 62
7, 18804, Note_off_c, 5, 52, 0
7, 18816, Note_on_c, 5, 57, 62
7, 18900, Note_off_c, 5, 57, 0
7, 18912, Note_on_c, 5, 55, 62
7, 18996, Note_off_c, 5, 55, 0
7, 19008, Note_on_c, 5, 53, 62
7, 19092, Note_off_c, 5, 53, 0
7, 19104, Note_on_c, 5, 52, 62
7, 19188, Note_off_c, 5, 52, 0
7, 19200, Note_on_c, 5, 57, 62
7, 19284, Note_off_c, 5, 57, 0
7, 19296, Note_on_c, 5, 45, 62
7, 19380, Note_off_c, 5, 45, 0
7, 19392, Note_on_c, 5, 50, 62
7, 19476, Note_off_c, 5, 50, 0
7, 19488, Note_on_c, 5, 55, 62
7, 19572, Note_off_c, 5, 55, 0
7, 19584, Note_on_c, 5, 43, 62
7, 19668, Note_off_c, 5, 43, 0
7, 19680, Note_on_c, 5, 48, 62
7, 20244, Note_off_c, 5, 48, 0
7, 20256, Note_on_c, 5, 46, 62
7, 20340, Note_off_c, 5, 46, 0
7, 20352, Note_on_c, 5, 58, 62
7, 20436, Note_off_c, 5, 58, 0
7, 20448, Note_on_c, 5, 57, 62
7, 20532, Note_off_c, 5, 57, 0
7, 20544, Note_on_c, 5, 55, 62
7, 20628, Note_off_c, 5, 55, 0
7, 20640, Note_on_c, 5, 48, 62
7, 20724, Note_off_c, 5, 48, 0
7, 20736, Note_on_c, 5, 50, 62
7, 20820, Note_off_c, 5, 50, 0
7, 20832, Note_on_c, 5, 43, 62
7, 20916, Note_off_c, 5, 43, 0
7, 20928, Note_on_c, 5, 55, 62
7, 21012, Note_off_c, 5, 55, 0
7, 21024, Note_on_c, 5, 53, 62
7, 21108, Note_off_c, 5, 53, 0
7, 21120, Note_on_c, 5, 52, 62
7, 21204, Note_off_c, 5, 52, 0
7, 21216, Note_on_c, 5, 50, 62
7, 21300, Note_off_c, 5, 50, 0
7, 21312, Note_on_c, 5, 48, 62
7, 21396, Note_off_c, 5, 48, 0
7, 21408, Note_on_c, 5, 41, 62
7, 21492, Note_off_c, 5, 41, 0
7, 21504, Note_on_c, 5, 53, 62
7, 21588, Note_off_c, 5, 53, 0
7, 21600, Note_on_c, 5, 52, 62
7, 21684, Note_off_c, 5, 52, 0
7, 21696, Note_on_c, 5, 50, 62
7, 21780, Note_off_c, 5, 50, 0
7, 21792, Note_on_c, 5, 48, 62
7, 21876, Note_off_c, 5, 48, 0
7, 21888, Note_on_c, 5, 47, 62
7, 21972, Note_off_c, 5, 47, 0
7, 21984, Note_on_c, 5, 52, 62
7, 22068, Note_off_c, 5, 52, 0
7, 22080, Note_on_c, 5, 50, 62
7, 22164, Note_off_c, 5, 50, 0
7, 22176, Note_on_c, 5, 49, 62
7, 22260, Note_off_c, 5, 49, 0
7, 22272, Note_on_c, 5, 50, 62
7, 22356, Note_off_c, 5, 50, 0
7, 22368, Note_on_c, 5, 48, 62
7, 22452, Note_off_c, 5, 48, 0
7, 22464, Note_on_c, 5, 46, 62
7, 22548, Note_off_c, 5, 46, 0
7, 22560, Note_on_c, 5, 48, 62
7, 22644, Note_off_c, 5, 48, 0
7, 22656, Note_on_c, 5, 46, 62
7, 22740, Note_off_c, 5, 46, 0
7, 22752, Note_on_c, 5, 45, 62
7, 22836, Note_off_c, 5, 45, 0
7, 22848, Note_on_c, 5, 46, 62
7, 22932, Note_off_c, 5, 46, 0
7, 22944, Note_on_c, 5, 45, 62
7, 23028, Note_off_c, 5, 45, 0
7, 23040, Note_on_c, 5, 43, 62
7, 23124, Note_off_c, 5, 43, 0
7, 23136, Note_on_c, 5, 48, 62
7, 23220, Note_off_c, 5, 48, 0
7, 23232, Note_on_c, 5, 36, 62
7, 23316, Note_off_c, 5, 36, 0
7, 23328, Note_on_c, 5, 41, 62
7, 23412, Note_off_c, 5, 41, 0
7, 23424, Note_on_c, 5, 46, 62
7, 23508, Note_off_c, 5, 46, 0
7, 23520, Note_on_c, 5, 45, 62
7, 23604, Note_off_c, 5, 45, 0
7, 23616, Note_on_c, 5, 43, 62
7, 23700, Note_off_c, 5, 43, 0
7, 23712, Note_on_c, 5, 45, 62
7, 23796, Note_off_c, 5, 45, 0
7, 23808, Note_on_c, 5, 49, 62
7, 23892, Note_off_c, 5, 49, 0
7, 23904, Note_on_c, 5, 45, 62
7, 23988, Note_off_c, 5, 45, 0
7, 24000, Note_on_c, 5, 50, 62
7, 24084, Note_off_c, 5, 50, 0
7, 24096, Note_on_c, 5, 57, 62
7, 24180, Note_off_c, 5, 57, 0
7, 24192, Note_on_c, 5, 45, 62
7, 24276, Note_off_c, 5, 45, 0
7, 24288, Note_on_c, 5, 38, 62
7, 24372, Note_off_c, 5, 38, 0
7, 24384, Note_on_c, 5, 50, 62
7, 24426, Note_off_c, 5, 50, 0
7, 24432, Note_on_c, 5, 52, 62
7, 24474, Note_off_c, 5, 52, 0
7, 24480, Note_on_c, 5, 53, 62
7, 24522, Note_off_c, 5, 53, 0
7, 24528, Note_on_c, 5, 50, 62
7, 24570, Note_off_c, 5, 50, 0
7, 24576, Note_on_c, 5, 57, 62
7, 24660, Note_off_c, 5, 57, 0
7, 24672, Note_on_c, 5, 55, 62
7, 24756, Note_off_c, 5, 55, 0
7, 24768, Note_on_c, 5, 53, 62
7, 24852, Note_off_c, 5, 53, 0
7, 24864, Note_on_c, 5, 52, 62
7, 24948, Note_off_c, 5, 52, 0
7, 24960, Note_on_c, 5, 57, 62
7, 25044, Note_off_c, 5, 57, 0
7, 25056, Note_on_c, 5, 45, 62
7, 25140, Note_off_c, 5, 45, 0
7, 25152, Note_on_c, 5, 50, 62
7, 25236, Note_off_c, 5, 50, 0
7, 25248, Note_on_c, 5, 55, 62
7, 25332, Note_off_c, 5, 55, 0
7, 25344, Note_on_c, 5, 43, 62
7, 25428, Note_off_c, 5, 43, 0
7, 25440, Note_on_c, 5, 48, 62
7, 26004, Note_off_c, 5, 48, 0
7, 26016, Note_on_c, 5, 46, 62
7, 26100, Note_off_c, 5, 46, 0
7, 26112, Note_on_c, 5, 58, 62
7, 26196, Note_off_c, 5, 58, 0
7, 26208, Note_on_c, 5, 57, 62
7, 26292, Note_off_c, 5, 57, 0
7, 26304, Note_on_c, 5, 55, 62
7, 26388, Note_off_c, 5, 55, 0
7, 26400, Note_on_c, 5, 48, 62
7, 26484, Note_off_c, 5, 48, 0
7, 26496, Note_on_c, 5, 50, 62
7, 26580, Note_off_c, 5, 50, 0
7, 26592, Note_on_c, 5, 43, 62
7, 26676, Note_off_c, 5, 43, 0
7, 26688, Note_on_c, 5, 55, 62
7, 26772, Note_off_c, 5, 55, 0
7, 26784, Note_on_c, 5, 53, 62
7, 26868, Note_off_c, 5, 53, 0
7, 26880, Note_on_c, 5, 52, 62
7, 26964, Note_off_c, 5, 52, 0
7, 26976, Note_on_c, 5, 50, 62
7, 27060, Note_off_c, 5, 50, 0
7, 27072, Note_on_c, 5, 48, 62
7, 27156, Note_off_c, 5, 48, 0
7, 27168, Note_on_c, 5, 41, 62
7, 27252, Note_off_c, 5, 41, 0
7, 27264, Note_on_c, 5, 53, 62
7, 27348, Note_off_c, 5, 53, 0
7, 27360, Note_on_c, 5, 52, 62
7, 27444, Note_off_c, 5, 52, 0
7, 27456, Note_on_c, 5, 50, 62
7, 27540, Note_off_c, 5, 50, 0
7, 27552, Note_on_c, 5, 48, 62
7, 27636, Note_off_c, 5, 48, 0
7, 27648, Note_on_c, 5, 47, 62
7, 27732, Note_off_c, 5, 47, 0
7, 27744, Note_on_c, 5, 52, 62
7, 27828, Note_off_c, 5, 52, 0
7, 27840, Note_on_c, 5, 50, 62
7, 27924, Note_off_c, 5, 50, 0
7, 27936, Note_on_c, 5, 49, 62
7, 28020, Note_off_c, 5, 49, 0
7, 28032, Note_on_c, 5, 50, 62
7, 28116, Note_off_c, 5, 50, 0
7, 28128, Note_on_c, 5, 48, 62
7, 28212, Note_off_c, 5, 48, 0
7, 28224, Note_on_c, 5, 46, 62
7, 28308, Note_off_c, 5, 46, 0
7, 28320, Note_on_c, 5, 48, 62
7, 28404, Note_off_c, 5, 48, 0
7, 28416, Note_on_c, 5, 46, 62
7, 28500, Note_off_c, 5, 46, 0
7, 28512, Note_on_c, 5, 45, 62
7, 28596, Note_off_c, 5, 45, 0
7, 28608, Note_on_c, 5, 46, 62
7, 28692, Note_off_c, 5, 46, 0
7, 28704, Note_on_c, 5, 45, 62
7, 28788, Note_off_c, 5, 45, 0
7, 28800, Note_on_c, 5, 43, 62
7, 28884, Note_off_c, 5, 43, 0
7, 28896, Note_on_c, 5, 48, 62
7, 28980, Note_off_c, 5, 48, 0
7, 28992, Note_on_c, 5, 36, 62
7, 29076, Note_off_c, 5, 36, 0
7, 29088, Note_on_c, 5, 41, 62
7, 29172, Note_off_c, 5, 41, 0
7, 29184, Note_on_c, 5, 46, 62
7, 29268, Note_off_c, 5, 46, 0
7, 29280, Note_on_c, 5, 45, 62
7, 29364, Note_off_c, 5, 45, 0
7, 29376, Note_on_c, 5, 43, 62
7, 29460, Note_off_c, 5, 43, 0
7, 29472, Note_on_c, 5, 45, 62
7, 29556, Note_off_c, 5, 45, 0
7, 29568, Note_on_c, 5, 49, 62
7, 29652, Note_off_c, 5, 49, 0
7, 29664, Note_on_c, 5, 45, 62
7, 29748, Note_off_c, 5, 45, 0
7, 29760, Note_on_c, 5, 50, 62
7, 29844, Note_off_c, 5, 50, 0
7, 29856, Note_on_c, 5, 57, 62
7, 29940, Note_off_c, 5, 57, 0
7, 29952, Note_on_c, 5, 45, 62
7, 30036, Note_off_c, 5, 45, 0
7, 30048, Note_on_c, 5, 38, 62
7, 30324, Note_off_c, 5, 38, 0
7, 30624, Tempo, 428571
7, 30624, Note_on_c, 5, 57, 49
7, 30804, Note_off_c, 5, 57, 0
7, 30816, Note_on_c, 5, 58, 49
7, 30900, Note_off_c, 5, 58, 0
7, 30912, Note_on_c, 5, 60, 49
7, 30996, Note_off_c, 5, 60, 0
7, 31008, Note_on_c, 5, 63, 49
7, 31092, Note_off_c, 5, 63, 0
7, 31104, Note_on_c, 5, 62, 49
7, 31188, Note_off_c, 5, 62, 0
7, 31200, Note_on_c, 5, 60, 49
7, 31284, Note_off_c, 5, 60, 0
7, 31296, Note_on_c, 5, 58, 49
7, 31338, Note_off_c, 5, 58, 0
7, 31344, Note_on_c, 5, 57, 49
7, 31386, Note_off_c, 5, 57, 0
7, 31392, Note_on_c, 5, 58, 49
7, 31476, Note_off_c, 5, 58, 0
7, 31488, Note_on_c, 5, 57, 49
7, 31572, Note_off_c, 5, 57, 0
7, 31584, Note_on_c, 5, 58, 49
7, 31626, Note_off_c, 5, 58, 0
7, 31632, Note_on_c, 5, 57, 49
7, 31674, Note_off_c, 5, 57, 0
7, 31680, Note_on_c, 5, 55, 49
7, 31722, Note_off_c, 5, 55, 0
7, 31728, Note_on_c, 5, 53, 49
7, 31770, Note_off_c, 5, 53, 0
7, 31776, Note_on_c, 5, 52, 49
7, 31956, Note_off_c, 5, 52, 0
7, 31968, Note_on_c, 5, 53, 49
7, 32052, Note_off_c, 5, 53, 0
7, 32064, Note_on_c, 5, 55, 49
7, 32148, Note_off_c, 5, 55, 0
7, 32160, Note_on_c, 5, 53, 49
7, 32202, Note_off_c, 5, 53, 0
7, 32208, Note_on_c, 5, 52, 49
7, 32250, Note_off_c, 5, 52, 0
7, 32256, Note_on_c, 5, 53, 49
7, 32340, Note_off_c, 5, 53, 0
7, 32352, Note_on_c, 5, 52, 49
7, 32436, Note_off_c, 5, 52, 0
7, 32448, Note_on_c, 5, 53, 49
7, 32490, Note_off_c, 5, 53, 0
7, 32496, Note_on_c, 5, 52, 49
7, 32538, Note_off_c, 5, 52, 0
7, 32544, Note_on_c, 5, 50, 49
7, 32586, Note_off_c, 5, 50, 0
7, 32592, Note_on_c, 5, 48, 49
7, 32634, Note_off_c, 5, 48, 0
7, 32640, Note_on_c, 5, 53, 49
7, 32724, Note_off_c, 5, 53, 0
7, 32736, Note_on_c, 5, 52, 49
7, 32778, Note_off_c, 5, 52, 0
7, 32784, Note_on_c, 5, 50, 49
7, 32826, Note_off_c, 5, 50, 0
7, 32832, Note_on_c, 5, 52, 49
7, 32916, Note_off_c, 5, 52, 0
7, 32928, Note_on_c, 5, 50, 49
7, 33012, Note_off_c, 5, 50, 0
7, 33024, Note_on_c, 5, 52, 49
7, 33108, Note_off_c, 5, 52, 0
7, 33120, Note_on_c, 5, 48, 49
7, 33204, Note_off_c, 5, 48, 0
7, 33216, Note_on_c, 5, 47, 49
7, 33300, Note_off_c, 5, 47, 0
7, 33312, Note_on_c, 5, 45, 49
7, 33354, Note_off_c, 5, 45, 0
7, 33360, Note_on_c, 5, 43, 49
7, 33402, Note_off_c, 5, 43, 0
7, 33408, Note_on_c, 5, 41, 49
7, 33450, Note_off_c, 5, 41, 0
7, 33456, Note_on_c, 5, 40, 49
7, 33498, Note_off_c, 5, 40, 0
7, 33504, Note_on_c, 5, 45, 49
7, 33546, Note_off_c, 5, 45, 0
7, 33552, Note_on_c, 5, 41, 49
7, 33594, Note_off_c, 5, 41, 0
7, 33600, Note_on_c, 5, 43, 49
7, 33684, Note_off_c, 5, 43, 0
7, 33696, Note_on_c, 5, 43, 49
7, 33780, Note_off_c, 5, 43, 0
7, 33792, Note_on_c, 5, 36, 49
7, 33876, Note_off_c, 5, 36, 0
7, 33888, Note_on_c, 5, 48, 49
7, 33930, Note_off_c, 5, 48, 0
7, 33936, Note_on_c, 5, 46, 49
7, 33978, Note_off_c, 5, 46, 0
7, 33984, Note_on_c, 5, 45, 49
7, 34026, Note_off_c, 5, 45, 0
7, 34032, Note_on_c, 5, 43, 49
7, 34074, Note_off_c, 5, 43, 0
7, 34080, Note_on_c, 5, 41, 49
7, 34164, Note_off_c, 5, 41, 0
7, 34176, Note_on_c, 5, 57, 49
7, 34260, Note_off_c, 5, 57, 0
7, 34272, Note_on_c, 5, 58, 49
7, 34356, Note_off_c, 5, 58, 0
7, 34368, Note_on_c, 5, 60, 49
7, 34452, Note_off_c, 5, 60, 0
7, 34464, Note_on_c, 5, 63, 49
7, 34548, Note_off_c, 5, 63, 0
7, 34560, Note_on_c, 5, 62, 49
7, 34644, Note_off_c, 5, 62, 0
7, 34656, Note_on_c, 5, 60, 49
7, 34740, Note_off_c, 5, 60, 0
7, 34752, Note_on_c, 5, 58, 49
7, 34794, Note_off_c, 5, 58, 0
7, 34800, Note_on_c, 5, 57, 49
7, 34842, Note_off_c, 5, 57, 0
7, 34848, Note_on_c, 5, 58, 49
7, 34932, Note_off_c, 5, 58, 0
7, 34944, Note_on_c, 5, 57, 49
7, 35028, Note_off_c, 5, 57, 0
7, 35040, Note_on_c, 5, 58, 49
7, 35082, Note_off_c, 5, 58, 0
7, 35088, Note_on_c, 5, 57, 49
7, 35130, Note_off_c, 5, 57, 0
7, 35136, Note_on_c, 5, 55, 49
7, 35178, Note_off_c, 5, 55, 0
7, 35184, Note_on_c, 5, 53, 49
7, 35226, Note_off_c, 5, 53, 0
7, 35232, Note_on_c, 5, 52, 49
7, 35412, Note_off_c, 5, 52, 0
7, 35424, Note_on_c, 5, 53, 49
7, 35508, Note_off_c, 5, 53, 0
7, 35520, Note_on_c, 5, 55, 49
7, 35604, Note_off_c, 5, 55, 0
7, 35616, Note_on_c, 5, 53, 49
7, 35658, Note_off_c, 5, 53, 0
7, 35664, Note_on_c, 5, 52, 49
7, 35706, Note_off_c, 5, 52, 0
7, 35712, Note_on_c, 5, 53, 49
7, 35796, Note_off_c, 5, 53, 0
7, 35808, Note_on_c, 5, 52, 49
7, 35892, Note_off_c, 5, 52, 0
7, 35904, Note_on_c, 5, 53, 49
7, 35946, Note_off_c, 5, 53, 0
7, 35952, Note_on_c, 5, 52, 49
7, 35994, Note_off_c, 5, 52, 0
7, 36000, Note_on_c, 5, 50, 49
7, 36042, Note_off_c, 5, 50, 0
7, 36048, Note_on_c, 5, 48, 49
7, 36090, Note_off_c, 5, 48, 0
7, 36096, Note_on_c, 5, 53, 49
7, 36180, Note_off_c, 5, 53, 0
7, 36192, Note_on_c, 5, 52, 49
7, 36234, Note_off_c, 5, 52, 0
7, 36240, Note_on_c, 5, 50, 49
7, 36282, Note_off_c, 5, 50, 0
7, 36288, Note_on_c, 5, 52, 49
7, 36372, Note_off_c, 5, 52, 0
7, 36384, Note_on_c, 5, 50, 49
7, 36468, Note_off_c, 5, 50, 0
7, 36480, Note_on_c, 5, 52, 49
7, 36564, Note_off_c, 5, 52, 0
7, 36576, Note_on_c, 5, 48, 49
7, 36660, Note_off_c, 5, 48, 0
7, 36672, Note_on_c, 5, 47, 49
7, 36756, Note_off_c, 5, 47, 0
7, 36768, Note_on_c, 5, 45, 49
7, 36810, Note_off_c, 5, 45, 0
7, 36816, Note_on_c, 5, 43, 49
7, 36858, Note_off_c, 5, 43, 0
7, 36864, Note_on_c, 5, 41, 49
7, 36906, Note_off_c, 5, 41, 0
7, 36912, Note_on_c, 5, 40, 49
7, 36954, Note_off_c, 5, 40, 0
7, 36960, Note_on_c, 5, 45, 49
7, 37002, Note_off_c, 5, 45, 0
7, 37008, Note_on_c, 5, 41, 49
7, 37050, Note_off_c, 5, 41, 0
7, 37056, Note_on_c, 5, 43, 49
7, 37140, Note_off_c, 5, 43, 0
7, 37152, Note_on_c, 5, 43, 49
7, 37236, Note_off_c, 5, 43, 0
7, 37248, Note_on_c, 5, 36, 49
7, 37332, Note_off_c, 5, 36, 0
7, 37344, Note_on_c, 5, 48, 49
7, 37428, Note_off_c, 5, 48, 0
7, 37440, Note_on_c, 5, 50, 49
7, 37524, Note_off_c, 5, 50, 0
7, 37536, Note_on_c, 5, 52, 49
7, 37716, Note_off_c, 5, 52, 0
7, 37728, Note_on_c, 5, 53, 49
7, 37812, Note_off_c, 5, 53, 0
7, 37824, Note_on_c, 5, 55, 49
7, 37908, Note_off_c, 5, 55, 0
7, 37920, Note_on_c, 5, 58, 49
7, 38004, Note_off_c, 5, 58, 0
7, 38016, Note_on_c, 5, 57, 49
7, 38100, Note_off_c, 5, 57, 0
7, 38112, Note_on_c, 5, 55, 49
7, 38196, Note_off_c, 5, 55, 0
7, 38208, Note_on_c, 5, 53, 49
7, 38250, Note_off_c, 5, 53, 0
7, 38256, Note_on_c, 5, 52, 49
7, 38298, Note_off_c, 5, 52, 0
7, 38304, Note_on_c, 5, 53, 49
7, 38388, Note_off_c, 5, 53, 0
7, 38400, Note_on_c, 5, 52, 49
7, 38484, Note_off_c, 5, 52, 0
7, 38496, Note_on_c, 5, 53, 49
7, 38538, Note_off_c, 5, 53, 0
7, 38544, Note_on_c, 5, 52, 49
7, 38586, Note_off_c, 5, 52, 0
7, 38592, Note_on_c, 5, 50, 49
7, 38634, Note_off_c, 5, 50, 0
7, 38640, Note_on_c, 5, 48, 49
7, 38682, Note_off_c, 5, 48, 0
7, 38688, Note_on_c, 5, 48, 49
7, 38709, Note_off_c, 5, 48, 0
7, 38712, Note_on_c, 5, 47, 49
7, 38733, Note_off_c, 5, 47, 0
7, 38736, Note_on_c, 5, 48, 49
7, 38757, Note_off_c, 5, 48, 0
7, 38760, Note_on_c, 5, 47, 49
7, 38781, Note_off_c, 5, 47, 0
7, 38784, Note_on_c, 5, 48, 49
7, 38805, Note_off_c, 5, 48, 0
7, 38808, Note_on_c, 5, 47, 49
7, 38829, Note_off_c, 5, 47, 0
7, 38832, Note_on_c, 5, 48, 49
7, 38853, Note_off_c, 5, 48, 0
7, 38856, Note_on_c, 5, 47, 49
7, 38877, Note_off_c, 5, 47, 0
7, 38880, Note_on_c, 5, 48, 49
7, 38964, Note_off_c, 5, 48, 0
7, 38976, Note_on_c, 5, 50, 49
7, 39060, Note_off_c, 5, 50, 0
7, 39072, Note_on_c, 5, 48, 49
7, 39114, Note_off_c, 5, 48, 0
7, 39120, Note_on_c, 5, 47, 49
7, 39162, Note_off_c, 5, 47, 0
7, 39168, Note_on_c, 5, 48, 49
7, 39252, Note_off_c, 5, 48, 0
7, 39264, Note_on_c, 5, 47, 49
7, 39348, Note_off_c, 5, 47, 0
7, 39360, Note_on_c, 5, 48, 49
7, 39402, Note_off_c, 5, 48, 0
7, 39408, Note_on_c, 5, 47, 49
7, 39450, Note_off_c, 5, 47, 0
7, 39456, Note_on_c, 5, 45, 49
7, 39498, Note_off_c, 5, 45, 0
7, 39504, Note_on_c, 5, 43, 49
7, 39546, Note_off_c, 5, 43, 0
7, 39552, Note_on_c, 5, 48, 49
7, 39636, Note_off_c, 5, 48, 0
7, 39648, Note_on_c, 5, 46, 49
7, 39690, Note_off_c, 5, 46, 0
7, 39696, Note_on_c, 5, 45, 49
7, 39738, Note_off_c, 5, 45, 0
7, 39744, Note_on_c, 5, 43, 49
7, 39786, Note_off_c, 5, 43, 0
7, 39792, Note_on_c, 5, 41, 49
7, 39834, Note_off_c, 5, 41, 0
7, 39840, Note_on_c, 5, 40, 49
7, 39924, Note_off_c, 5, 40, 0
7, 39936, Note_on_c, 5, 41, 49
7, 39978, Note_off_c, 5, 41, 0
7, 39984, Note_on_c, 5, 40, 49
7, 40026, Note_off_c, 5, 40, 0
7, 40032, Note_on_c, 5, 38, 49
7, 40074, Note_off_c, 5, 38, 0
7, 40080, Note_on_c, 5, 40, 49
7, 40122, Note_off_c, 5, 40, 0
7, 40128, Note_on_c, 5, 36, 49
7, 40212, Note_off_c, 5, 36, 0
7, 40224, Note_on_c, 5, 48, 49
7, 40266, Note_off_c, 5, 48, 0
7, 40272, Note_on_c, 5, 50, 49
7, 40314, Note_off_c, 5, 50, 0
7, 40320, Note_on_c, 5, 52, 49
7, 40362, Note_off_c, 5, 52, 0
7, 40368, Note_on_c, 5, 48, 49
7, 40410, Note_off_c, 5, 48, 0
7, 40416, Note_on_c, 5, 50, 49
7, 40458, Note_off_c, 5, 50, 0
7, 40464, Note_on_c, 5, 46, 49
7, 40506, Note_off_c, 5, 46, 0
7, 40512, Note_on_c, 5, 48, 49
7, 40596, Note_off_c, 5, 48, 0
7, 40608, Note_on_c, 5, 36, 49
7, 40692, Note_off_c, 5, 36, 0
7, 40704, Note_on_c, 5, 41, 49
7, 40746, Note_off_c, 5, 41, 0
7, 40752, Note_on_c, 5, 43, 49
7, 40794, Note_off_c, 5, 43, 0
7, 40800, Note_on_c, 5, 45, 49
7, 40842, Note_off_c, 5, 45, 0
7, 40848, Note_on_c, 5, 46, 49
7, 40890, Note_off_c, 5, 46, 0
7, 40896, Note_on_c, 5, 48, 49
7, 40938, Note_off_c, 5, 48, 0
7, 40944, Note_on_c, 5, 50, 49
7, 40986, Note_off_c, 5, 50, 0
7, 40992, Note_on_c, 5, 52, 49
7, 41172, Note_off_c, 5, 52, 0
7, 41184, Note_on_c, 5, 53, 49
7, 41268, Note_off_c, 5, 53, 0
7, 41280, Note_on_c, 5, 55, 49
7, 41364, Note_off_c, 5, 55, 0
7, 41376, Note_on_c, 5, 58, 49
7, 41460, Note_off_c, 5, 58, 0
7, 41472, Note_on_c, 5, 57, 49
7, 41556, Note_off_c, 5, 57, 0
7, 41568, Note_on_c, 5, 55, 49
7, 41652, Note_off_c, 5, 55, 0
7, 41664, Note_on_c, 5, 53, 49
7, 41706, Note_off_c, 5, 53, 0
7, 41712, Note_on_c, 5, 52, 49
7, 41754, Note_off_c, 5, 52, 0
7, 41760, Note_on_c, 5, 53, 49
7, 41844, Note_off_c, 5, 53, 0
7, 41856, Note_on_c, 5, 52, 49
7, 41940, Note_off_c, 5, 52, 0
7, 41952, Note_on_c, 5, 53, 49
7, 41994, Note_off_c, 5, 53, 0
7, 42000, Note_on_c, 5, 52, 49
7, 42042, Note_off_c, 5, 52, 0
7, 42048, Note_on_c, 5, 50, 49
7, 42090, Note_off_c, 5, 50, 0
7, 42096, Note_on_c, 5, 48, 49
7, 42138, Note_off_c, 5, 48, 0
7, 42144, Note_on_c, 5, 48, 49
7, 42165, Note_off_c, 5, 48, 0
7, 42168, Note_on_c, 5, 47, 49
7, 42189, Note_off_c, 5, 47, 0
7, 42192, Note_on_c, 5, 48, 49
7, 42213, Note_off_c, 5, 48, 0
7, 42216, Note_on_c, 5, 47, 49
7, 42237, Note_off_c, 5, 47, 0
7, 42240, Note_on_c, 5, 48, 49
7, 42261, Note_off_c, 5, 48, 0
7, 42264, Note_on_c, 5, 47, 49
7, 42285, Note_off_c, 5, 47, 0
7, 42288, Note_on_c, 5, 48, 49
7, 42309, Note_off_c, 5, 48, 0
7, 42312, Note_on_c, 5, 47, 49
7, 42333, Note_off_c, 5, 47, 0
7, 42336, Note_on_c, 5, 48, 49
7, 42420, Note_off_c, 5, 48, 0
7, 42432, Note_on_c, 5, 50, 49
7, 42516, Note_off_c, 5, 50, 0
7, 42528, Note_on_c, 5, 48, 49
7, 42570, Note_off_c, 5, 48, 0
7, 42576, Note_on_c, 5, 47, 49
7, 42618, Note_off_c, 5, 47, 0
7, 42624, Note_on_c, 5, 48, 49
7, 42708, Note_off_c, 5, 48, 0
7, 42720, Note_on_c, 5, 47, 49
7, 42804, Note_off_c, 5, 47, 0
7, 42816, Note_on_c, 5, 48, 49
7, 42858, Note_off_c, 5, 48, 0
7, 42864, Note_on_c, 5, 47, 49
7, 42906, Note_off_c, 5, 47, 0
7, 42912, Note_on_c, 5, 45, 49
7, 42954, Note_off_c, 5, 45, 0
7, 42960, Note_on_c, 5, 43, 49
7, 43002, Note_off_c, 5, 43, 0
7, 43008, Note_on_c, 5, 48, 49
7, 43092, Note_off_c, 5, 48, 0
7, 43104, Note_on_c, 5, 46, 49
7, 43146, Note_off_c, 5, 46, 0
7, 43152, Note_on_c, 5, 45, 49
7, 43194, Note_off_c, 5, 45, 0
7, 43200, Note_on_c, 5, 43, 49
7, 43242, Note_off_c, 5, 43, 0
7, 43248, Note_on_c, 5, 41, 49
7, 43290, Note_off_c, 5, 41, 0
7, 43296, Note_on_c, 5, 40, 49
7, 43380, Note_off_c, 5, 40, 0
7, 43392, Note_on_c, 5, 41, 49
7, 43434, Note_off_c, 5, 41, 0
7, 43440, Note_on_c, 5, 40, 49
7, 43482, Note_off_c, 5, 40, 0
7, 43488, Note_on_c, 5, 38, 49
7, 43530, Note_off_c, 5, 38, 0
7, 43536, Note_on_c, 5, 40, 49
7, 43578, Note_off_c, 5, 40, 0
7, 43584, Note_on_c, 5, 36, 49
7, 43668, Note_off_c, 5, 36, 0
7, 43680, Note_on_c, 5, 48, 49
7, 43722, Note_off_c, 5, 48, 0
7, 43728, Note_on_c, 5, 50, 49
7, 43770, Note_off_c, 5, 50, 0
7, 43776, Note_on_c, 5, 52, 49
7, 43818, Note_off_c, 5, 52, 0
7, 43824, Note_on_c, 5, 48, 49
7, 43866, Note_off_c, 5, 48, 0
7, 43872, Note_on_c, 5, 50, 49
7, 43914, Note_off_c, 5, 50, 0
7, 43920, Note_on_c, 5, 46, 49
7, 43962, Note_off_c, 5, 46, 0
7, 43968, Note_on_c, 5, 48, 49
7, 44052, Note_off_c, 5, 48, 0
7, 44064, Note_on_c, 5, 36, 49
7, 44148, Note_off_c, 5, 36, 0
7, 44160, Note_on_c, 5, 41, 49
7, 44436, Note_off_c, 5, 41, 0
7, 44736, Tempo, 1000000
7, 44736, End_track
8, 0, Start_track
8, 0, Title_t, "Violino piccolo"
8, 0, Control_c, 6, 0, 0
8, 0, Program_c, 6, 40
8, 0, Time_signature, 3, 2, 96, 8
8, 0, Tempo, 1000000
8, 96, Tempo, 428571
8, 96, Note_on_c, 6, 72, 75
8, 180, Note_off_c, 6, 72, 0
8, 192, Note_on_c, 6, 75, 75
8, 276, Note_off_c, 6, 75, 0
8, 288, Note_on_c, 6, 74, 75
8, 372, Note_off_c, 6, 74, 0
8, 384, Note_on_c, 6, 72, 75
8, 468, Note_off_c, 6, 72, 0
8, 480, Note_on_c, 6, 70, 75
8, 522, Note_off_c, 6, 70, 0
8, 528, Note_on_c, 6, 69, 75
8, 570, Note_off_c, 6, 69, 0
8, 576, Note_on_c, 6, 70, 75
8, 660, Note_off_c, 6, 70, 0
8, 672, Note_on_c, 6, 72, 75
8, 756, Note_off_c, 6, 72, 0
8, 768, Note_on_c, 6, 75, 75
8, 852, Note_off_c, 6, 75, 0
8, 864, Note_on_c, 6, 74, 75
8, 948, Note_off_c, 6, 74, 0
8, 960, Note_on_c, 6, 74, 75
8, 970, Note_off_c, 6, 74, 0
8, 972, Note_on_c, 6, 72, 75
8, 982, Note_off_c, 6, 72, 0
8, 984, Note_on_c, 6, 74, 75
8, 994, Note_off_c, 6, 74, 0
8, 996, Note_on_c, 6, 72, 75
8, 1006, Note_off_c, 6, 72, 0
8, 1008, Note_on_c, 6, 74, 75
8, 1018, Note_off_c, 6, 74, 0
8, 1020, Note_on_c, 6, 72, 75
8, 1030, Note_off_c, 6, 72, 0
8, 1032, Note_on_c, 6, 74, 75
8, 1042, Note_off_c, 6, 74, 0
8, 1044, Note_on_c, 6, 72, 75
8, 1054, Note_off_c, 6, 72, 0
8, 1056, Note_on_c, 6, 74, 75
8, 1066, Note_off_c, 6, 74, 0
8, 1068, Note_on_c, 6, 72, 75
8, 1078, Note_off_c, 6, 72, 0
8, 1080, Note_on_c, 6, 74, 75
8, 1090, Note_off_c, 6, 74, 0
8, 1092, Note_on_c, 6, 72, 75
8, 1102, Note_off_c, 6, 72, 0
8, 1104, Note_on_c, 6, 74, 75
8, 1114, Note_off_c, 6, 74, 0
8, 1116, Note_on_c, 6, 72, 75
8, 1126, Note_off_c, 6, 72, 0
8, 1128, Note_on_c, 6, 74, 75
8, 1138, Note_off_c, 6, 74, 0
8, 1140, Note_on_c, 6, 72, 75
8, 1150, Note_off_c, 6, 72, 0
8, 1152, Note_on_c, 6, 77, 75
8, 1236, Note_off_c, 6, 77, 0
8, 1248, Note_on_c, 6, 70, 75
8, 1332, Note_off_c, 6, 70, 0
8, 1344, Note_on_c, 6, 67, 75
8, 1428, Note_off_c, 6, 67, 0
8, 1440, Note_on_c, 6, 69, 75
8, 1524, Note_off_c, 6, 69, 0
8, 1536, Note_on_c, 6, 70, 75
8, 1620, Note_off_c, 6, 70, 0
8, 1632, Note_on_c, 6, 74, 75
8, 1812, Note_off_c, 6, 74, 0
8, 1824, Note_on_c, 6, 72, 75
8, 1834, Note_off_c, 6, 72, 0
8, 1836, Note_on_c, 6, 70, 75
8, 1846, Note_off_c, 6, 70, 0
8, 1848, Note_on_c, 6, 72, 75
8, 1858, Note_off_c, 6, 72, 0
8, 1860, Note_on_c, 6, 70, 75
8, 1870, Note_off_c, 6, 70, 0
8, 1872, Note_on_c, 6, 72, 75
8, 1882, Note_off_c, 6, 72, 0
8, 1884, Note_on_c, 6, 70, 75
8, 1894, Note_off_c, 6, 70, 0
8, 1896, Note_on_c, 6, 72, 75
8, 1906, Note_off_c, 6, 72, 0
8, 1908, Note_on_c, 6, 70, 75
8, 1918, Note_off_c, 6, 70, 0
8, 1920, Note_on_c, 6, 69, 75
8, 1962, Note_off_c, 6, 69, 0
8, 1968, Note_on_c, 6, 67, 75
8, 2010, Note_off_c, 6, 67, 0
8, 2016, Note_on_c, 6, 72, 75
8, 2100, Note_off_c, 6, 72, 0
8, 2112, Note_on_c, 6, 70, 75
8, 2122, Note_off_c, 6, 70, 0
8, 2124, Note_on_c, 6, 69, 75
8, 2134, Note_off_c, 6, 69, 0
8, 2136, Note_on_c, 6, 70, 75
8, 2146, Note_off_c, 6, 70, 0
8, 2148, Note_on_c, 6, 69, 75
8, 2158, Note_off_c, 6, 69, 0
8, 2160, Note_on_c, 6, 70, 75
8, 2170, Note_off_c, 6, 70, 0
8, 2172, Note_on_c, 6, 69, 75
8, 2182, Note_off_c, 6, 69, 0
8, 2184, Note_on_c, 6, 70, 75
8, 2194, Note_off_c, 6, 70, 0
8, 2196, Note_on_c, 6, 69, 75
8, 2206, Note_off_c, 6, 69, 0
8, 2208, Note_on_c, 6, 70, 75
8, 2218, Note_off_c, 6, 70, 0
8, 2220, Note_on_c, 6, 69, 75
8, 2230, Note_off_c, 6, 69, 0
8, 2232, Note_on_c, 6, 70, 75
8, 2242, Note_off_c, 6, 70, 0
8, 2244, Note_on_c, 6, 69, 75
8, 2254, Note_off_c, 6, 69, 0
8, 2256, Note_on_c, 6, 70, 75
8, 2266, Note_off_c, 6, 70, 0
8, 2268, Note_on_c, 6, 69, 75
8, 2278, Note_off_c, 6, 69, 0
8, 2280, Note_on_c, 6, 70, 75
8, 2290, Note_off_c, 6, 70, 0
8, 2292, Note_on_c, 6, 69, 75
8, 2302, Note_off_c, 6, 69, 0
8, 2304, Note_on_c, 6, 67, 75
8, 2388, Note_off_c, 6, 67, 0
8, 2400, Note_on_c, 6, 71, 75
8, 2442, Note_off_c, 6, 71, 0
8, 2448, Note_on_c, 6, 72, 75
8, 2490, Note_off_c, 6, 72, 0
8, 2496, Note_on_c, 6, 74, 75
8, 2506, Note_off_c, 6, 74, 0
8, 2508, Note_on_c, 6, 72, 75
8, 2518, Note_off_c, 6, 72, 0
8, 2520, Note_on_c, 6, 74, 75
8, 2530, Note_off_c, 6, 74, 0
8, 2532, Note_on_c, 6, 72, 75
8, 2542, Note_off_c, 6, 72, 0
8, 2544, Note_on_c, 6, 74, 75
8, 2554, Note_off_c, 6, 74, 0
8, 2556, Note_on_c, 6, 72, 75
8, 2566, Note_off_c, 6, 72, 0
8, 2568, Note_on_c, 6, 74, 75
8, 2578, Note_off_c, 6, 74, 0
8, 2580, Note_on_c, 6, 72, 75
8, 2590, Note_off_c, 6, 72, 0
8, 2592, Note_on_c, 6, 74, 75
8, 2602, Note_off_c, 6, 74, 0
8, 2604, Note_on_c, 6, 72, 75
8, 2614, Note_off_c, 6, 72, 0
8, 2616, Note_on_c, 6, 74, 75
8, 2626, Note_off_c, 6, 74, 0
8, 2628, Note_on_c, 6, 72, 75
8, 2638, Note_off_c, 6, 72, 0
8, 2640, Note_on_c, 6, 71, 75
8, 2661, Note_off_c, 6, 71, 0
8, 2664, Note_on_c, 6, 72, 75
8, 2685, Note_off_c, 6, 72, 0
8, 2688, Note_on_c, 6, 74, 75
8, 2772, Note_off_c, 6, 74, 0
8, 2784, Note_on_c, 6, 72, 75
8, 2826, Note_off_c, 6, 72, 0
8, 2832, Note_on_c, 6, 71, 75
8, 2874, Note_off_c, 6, 71, 0
8, 2880, Note_on_c, 6, 72, 75
8, 2964, Note_off_c, 6, 72, 0
8, 2976, Note_on_c, 6, 77, 75
8, 3018, Note_off_c, 6, 77, 0
8, 3024, Note_on_c, 6, 79, 75
8, 3066, Note_off_c, 6, 79, 0
8, 3072, Note_on_c, 6, 74, 75
8, 3204, Note_off_c, 6, 74, 0
8, 3216, Note_on_c, 6, 72, 75
8, 3258, Note_off_c, 6, 72, 0
8, 3264, Note_on_c, 6, 72, 75
8, 3540, Note_off_c, 6, 72, 0
8, 3552, Note_on_c, 6, 72, 75
8, 3636, Note_off_c, 6, 72, 0
8, 3648, Note_on_c, 6, 75, 75
8, 3732, Note_off_c, 6, 75, 0
8, 3744, Note_on_c, 6, 74, 75
8, 3828, Note_off_c, 6, 74, 0
8, 3840, Note_on_c, 6, 72, 75
8, 3924, Note_off_c, 6, 72, 0
8, 3936, Note_on_c, 6, 70, 75
8, 3978, Note_off_c, 6, 70, 0
8, 3984, Note_on_c, 6, 69, 75
8, 4026, Note_off_c, 6, 69, 0
8, 4032, Note_on_c, 6, 70, 75
8, 4116, Note_off_c, 6, 70, 0
8, 4128, Note_on_c, 6, 72, 75
8, 4212, Note_off_c, 6, 72, 0
8, 4224, Note_on_c, 6, 75, 75
8, 4308, Note_off_c, 6, 75, 0
8, 4320, Note_on_c, 6, 74, 75
8, 4404, Note_off_c, 6, 74, 0
8, 4416, Note_on_c, 6, 74, 75
8, 4426, Note_off_c, 6, 74, 0
8, 4428, Note_on_c, 6, 72, 75
8, 4438, Note_off_c, 6, 72, 0
8, 4440, Note_on_c, 6, 74, 75
8, 4450, Note_off_c, 6, 74, 0
8, 4452, Note_on_c, 6, 72, 75
8, 4462, Note_off_c, 6, 72, 0
8, 4464, Note_on_c, 6, 74, 75
8, 4474, Note_off_c, 6, 74, 0
8, 4476, Note_on_c, 6, 72, 75
8, 4486, Note_off_c, 6, 72, 0
8, 4488, Note_on_c, 6, 74, 75
8, 4498, Note_off_c, 6, 74, 0
8, 4500, Note_on_c, 6, 72, 75
8, 4510, Note_off_c, 6, 72, 0
8, 4512, Note_on_c, 6, 74, 75
8, 4522, Note_off_c, 6, 74, 0
8, 4524, Note_on_c, 6, 72, 75
8, 4534, Note_off_c, 6, 72, 0
8, 4536, Note_on_c, 6, 74, 75
8, 4546, Note_off_c, 6, 74, 0
8, 4548, Note_on_c, 6, 72, 75
8, 4558, Note_off_c, 6, 72, 0
8, 4560, Note_on_c, 6, 74, 75
8, 4570, Note_off_c, 6, 74, 0
8, 4572, Note_on_c, 6, 72, 75
8, 4582, Note_off_c, 6, 72, 0
8, 4584, Note_on_c, 6, 74, 75
8, 4594, Note_off_c, 6, 74, 0
8, 4596, Note_on_c, 6, 72, 75
8, 4606, Note_off_c, 6, 72, 0
8, 4608, Note_on_c, 6, 77, 75
8, 4692, Note_off_c, 6, 77, 0
8, 4704, Note_on_c, 6, 70, 75
8, 4788, Note_off_c, 6, 70, 0
8, 4800, Note_on_c, 6, 67, 75
8, 4884, Note_off_c, 6, 67, 0
8, 4896, Note_on_c, 6, 69, 75
8, 4980, Note_off_c, 6, 69, 0
8, 4992, Note_on_c, 6, 70, 75
8, 5076, Note_off_c, 6, 70, 0
8, 5088, Note_on_c, 6, 74, 75
8, 5268, Note_off_c, 6, 74, 0
8, 5280, Note_on_c, 6, 72, 75
8, 5290, Note_off_c, 6, 72, 0
8, 5292, Note_on_c, 6, 70, 75
8, 5302, Note_off_c, 6, 70, 0
8, 5304, Note_on_c, 6, 72, 75
8, 5314, Note_off_c, 6, 72, 0
8, 5316, Note_on_c, 6, 70, 75
8, 5326, Note_off_c, 6, 70, 0
8, 5328, Note_on_c, 6, 72, 75
8, 5338, Note_off_c, 6, 72, 0
8, 5340, Note_on_c, 6, 70, 75
8, 5350, Note_off_c, 6, 70, 0
8, 5352, Note_on_c, 6, 72, 75
8, 5362, Note_off_c, 6, 72, 0
8, 5364, Note_on_c, 6, 70, 75
8, 5374, Note_off_c, 6, 70, 0
8, 5376, Note_on_c, 6, 69, 75
8, 5418, Note_off_c, 6, 69, 0
8, 5424, Note_on_c, 6, 67, 75
8, 5466, Note_off_c, 6, 67, 0
8, 5472, Note_on_c, 6, 72, 75
8, 5556, Note_off_c, 6, 72, 0
8, 5568, Note_on_c, 6, 70, 75
8, 5578, Note_off_c, 6, 70, 0
8, 5580, Note_on_c, 6, 69, 75
8, 5590, Note_off_c, 6, 69, 0
8, 5592, Note_on_c, 6, 70, 75
8, 5602, Note_off_c, 6, 70, 0
8, 5604, Note_on_c, 6, 69, 75
8, 5614, Note_off_c, 6, 69, 0
8, 5616, Note_on_c, 6, 70, 75
8, 5626, Note_off_c, 6, 70, 0
8, 5628, Note_on_c, 6, 69, 75
8, 5638, Note_off_c, 6, 69, 0
8, 5640, Note_on_c, 6, 70, 75
8, 5650, Note_off_c, 6, 70, 0
8, 5652, Note_on_c, 6, 69, 75
8, 5662, Note_off_c, 6, 69, 0
8, 5664, Note_on_c, 6, 70, 75
8, 5674, Note_off_c, 6, 70, 0
8, 5676, Note_on_c, 6, 69, 75
8, 5686, Note_off_c, 6, 69, 0
8, 5688, Note_on_c, 6, 70, 75
8, 5698, Note_off_c, 6, 70, 0
8, 5700, Note_on_c, 6, 69, 75
8, 5710, Note_off_c, 6, 69, 0
8, 5712, Note_on_c, 6, 70, 75
8, 5722, Note_off_c, 6, 70, 0
8, 5724, Note_on_c, 6, 69, 75
8, 5734, Note_off_c, 6, 69, 0
8, 5736, Note_on_c, 6, 70, 75
8, 5746, Note_off_c, 6, 70, 0
8, 5748, Note_on_c, 6, 69, 75
8, 5758, Note_off_c, 6, 69, 0
8, 5760, Note_on_c, 6, 67, 75
8, 5844, Note_off_c, 6, 67, 0
8, 5856, Note_on_c, 6, 71, 75
8, 5898, Note_off_c, 6, 71, 0
8, 5904, Note_on_c, 6, 72, 75
8, 5946, Note_off_c, 6, 72, 0
8, 5952, Note_on_c, 6, 74, 75
8, 5962, Note_off_c, 6, 74, 0
8, 5964, Note_on_c, 6, 72, 75
8, 5974, Note_off_c, 6, 72, 0
8, 5976, Note_on_c, 6, 74, 75
8, 5986, Note_off_c, 6, 74, 0
8, 5988, Note_on_c, 6, 72, 75
8, 5998, Note_off_c, 6, 72, 0
8, 6000, Note_on_c, 6, 74, 75
8, 6010, Note_off_c, 6, 74, 0
8, 6012, Note_on_c, 6, 72, 75
8, 6022, Note_off_c, 6, 72, 0
8, 6024, Note_on_c, 6, 74, 75
8, 6034, Note_off_c, 6, 74, 0
8, 6036, Note_on_c, 6, 72, 75
8, 6046, Note_off_c, 6, 72, 0
8, 6048, Note_on_c, 6, 74, 75
8, 6058, Note_off_c, 6, 74, 0
8, 6060, Note_on_c, 6, 72, 75
8, 6070, Note_off_c, 6, 72, 0
8, 6072, Note_on_c, 6, 74, 75
8, 6082, Note_off_c, 6, 74, 0
8, 6084, Note_on_c, 6, 72, 75
8, 6094, Note_off_c, 6, 72, 0
8, 6096, Note_on_c, 6, 71, 75
8, 6117, Note_off_c, 6, 71, 0
8, 6120, Note_on_c, 6, 72, 75
8, 6141, Note_off_c, 6, 72, 0
8, 6144, Note_on_c, 6, 74, 75
8, 6228, Note_off_c, 6, 74, 0
8, 6240, Note_on_c, 6, 72, 75
8, 6282, Note_off_c, 6, 72, 0
8, 6288, Note_on_c, 6, 71, 75
8, 6330, Note_off_c, 6, 71, 0
8, 6336, Note_on_c, 6, 72, 75
8, 6420, Note_off_c, 6, 72, 0
8, 6432, Note_on_c, 6, 77, 75
8, 6474, Note_off_c, 6, 77, 0
8, 6480, Note_on_c, 6, 79, 75
8, 6522, Note_off_c, 6, 79, 0
8, 6528, Note_on_c, 6, 74, 75
8, 6660, Note_off_c, 6, 74, 0
8, 6672, Note_on_c, 6, 72, 75
8, 6714, Note_off_c, 6, 72, 0
8, 6720, Note_on_c, 6, 72, 75
8, 6996, Note_off_c, 6, 72, 0
8, 7008, Note_on_c, 6, 79, 75
8, 7092, Note_off_c, 6, 79, 0
8, 7104, Note_on_c, 6, 82, 75
8, 7188, Note_off_c, 6, 82, 0
8, 7200, Note_on_c, 6, 81, 75
8, 7284, Note_off_c, 6, 81, 0
8, 7296, Note_on_c, 6, 81, 75
8, 7306, Note_off_c, 6, 81, 0
8, 7308, Note_on_c, 6, 79, 75
8, 7318, Note_off_c, 6, 79, 0
8, 7320, Note_on_c, 6, 81, 75
8, 7330, Note_off_c, 6, 81, 0
8, 7332, Note_on_c, 6, 79, 75
8, 7342, Note_off_c, 6, 79, 0
8, 7344, Note_on_c, 6, 81, 75
8, 7354, Note_off_c, 6, 81, 0
8, 7356, Note_on_c, 6, 79, 75
8, 7366, Note_off_c, 6, 79, 0
8, 7368, Note_on_c, 6, 81, 75
8, 7378, Note_off_c, 6, 81, 0
8, 7380, Note_on_c, 6, 79, 75
8, 7390, Note_off_c, 6, 79, 0
8, 7392, Note_on_c, 6, 77, 75
8, 7434, Note_off_c, 6, 77, 0
8, 7440, Note_on_c, 6, 76, 75
8, 7482, Note_off_c, 6, 76, 0
8, 7488, Note_on_c, 6, 77, 75
8, 7572, Note_off_c, 6, 77, 0
8, 7584, Note_on_c, 6, 79, 75
8, 7668, Note_off_c, 6, 79, 0
8, 7680, Note_on_c, 6, 82, 75
8, 7764, Note_off_c, 6, 82, 0
8, 7776, Note_on_c, 6, 81, 75
8, 7860, Note_off_c, 6, 81, 0
8, 7872, Note_on_c, 6, 81, 75
8, 7882, Note_off_c, 6, 81, 0
8, 7884, Note_on_c, 6, 79, 75
8, 7894, Note_off_c, 6, 79, 0
8, 7896, Note_on_c, 6, 81, 75
8, 7906, Note_off_c, 6, 81, 0
8, 7908, Note_on_c, 6, 79, 75
8, 7918, Note_off_c, 6, 79, 0
8, 7920, Note_on_c, 6, 81, 75
8, 7930, Note_off_c, 6, 81, 0
8, 7932, Note_on_c, 6, 79, 75
8, 7942, Note_off_c, 6, 79, 0
8, 7944, Note_on_c, 6, 81, 75
8, 7954, Note_off_c, 6, 81, 0
8, 7956, Note_on_c, 6, 79, 75
8, 7966, Note_off_c, 6, 79, 0
8, 7968, Note_on_c, 6, 81, 75
8, 7978, Note_off_c, 6, 81, 0
8, 7980, Note_on_c, 6, 79, 75
8, 7990, Note_off_c, 6, 79, 0
8, 7992, Note_on_c, 6, 81, 75
8, 8002, Note_off_c, 6, 81, 0
8, 8004, Note_on_c, 6, 79, 75
8, 8014, Note_off_c, 6, 79, 0
8, 8016, Note_on_c, 6, 81, 75
8, 8026, Note_off_c, 6, 81, 0
8, 8028, Note_on_c, 6, 79, 75
8, 8038, Note_off_c, 6, 79, 0
8, 8040, Note_on_c, 6, 81, 75
8, 8050, Note_off_c, 6, 81, 0
8, 8052, Note_on_c, 6, 79, 75
8, 8062, Note_off_c, 6, 79, 0
8, 8064, Note_on_c, 6, 84, 75
8, 8148, Note_off_c, 6, 84, 0
8, 8160, Note_on_c, 6, 77, 75
8, 8244, Note_off_c, 6, 77, 0
8, 8256, Note_on_c, 6, 74, 75
8, 8340, Note_off_c, 6, 74, 0
8, 8352, Note_on_c, 6, 76, 75
8, 8436, Note_off_c, 6, 76, 0
8, 8448, Note_on_c, 6, 77, 75
8, 8532, Note_off_c, 6, 77, 0
8, 8544, Note_on_c, 6, 81, 75
8, 8724, Note_off_c, 6, 81, 0
8, 8736, Note_on_c, 6, 77, 75
8, 8820, Note_off_c, 6, 77, 0
8, 8832, Note_on_c, 6, 76, 75
8, 8874, Note_off_c, 6, 76, 0
8, 8880, Note_on_c, 6, 74, 75
8, 8922, Note_off_c, 6, 74, 0
8, 8928, Note_on_c, 6, 79, 75
8, 9012, Note_off_c, 6, 79, 0
8, 9024, Note_on_c, 6, 76, 75
8, 9156, Note_off_c, 6, 76, 0
8, 9168, Note_on_c, 6, 77, 75
8, 9210, Note_off_c, 6, 77, 0
8, 9216, Note_on_c, 6, 79, 75
8, 9226, Note_off_c, 6, 79, 0
8, 9228, Note_on_c, 6, 77, 75
8, 9238, Note_off_c, 6, 77, 0
8, 9240, Note_on_c, 6, 79, 75
8, 9250, Note_off_c, 6, 79, 0
8, 9252, Note_on_c, 6, 77, 75
8, 9262, Note_off_c, 6, 77, 0
8, 9264, Note_on_c, 6, 79, 75
8, 9274, Note_off_c, 6, 79, 0
8, 9276, Note_on_c, 6, 77, 75
8, 9286, Note_off_c, 6, 77, 0
8, 9288, Note_on_c, 6, 76, 75
8, 9298, Note_off_c, 6, 76, 0
8, 9300, Note_on_c, 6, 77, 75
8, 9310, Note_off_c, 6, 77, 0
8, 9312, Note_on_c, 6, 79, 75
8, 9354, Note_off_c, 6, 79, 0
8, 9360, Note_on_c, 6, 81, 75
8, 9402, Note_off_c, 6, 81, 0
8, 9408, Note_on_c, 6, 82, 75
8, 9418, Note_off_c, 6, 82, 0
8, 9420, Note_on_c, 6, 81, 75
8, 9430, Note_off_c, 6, 81, 0
8, 9432, Note_on_c, 6, 82, 75
8, 9442, Note_off_c, 6, 82, 0
8, 9444, Note_on_c, 6, 81, 75
8, 9454, Note_off_c, 6, 81, 0
8, 9456, Note_on_c, 6, 82, 75
8, 9466, Note_off_c, 6, 82, 0
8, 9468, Note_on_c, 6, 81, 75
8, 9478, Note_off_c, 6, 81, 0
8, 9480, Note_on_c, 6, 82, 75
8, 9490, Note_off_c, 6, 82, 0
8, 9492, Note_on_c, 6, 81, 75
8, 9502, Note_off_c, 6, 81, 0
8, 9504, Note_on_c, 6, 82, 75
8, 9514, Note_off_c, 6, 82, 0
8, 9516, Note_on_c, 6, 81, 75
8, 9526, Note_off_c, 6, 81, 0
8, 9528, Note_on_c, 6, 82, 75
8, 9538, Note_off_c, 6, 82, 0
8, 9540, Note_on_c, 6, 81, 75
8, 9550, Note_off_c, 6, 81, 0
8, 9552, Note_on_c, 6, 79, 75
8, 9573, Note_off_c, 6, 79, 0
8, 9576, Note_on_c, 6, 81, 75
8, 9597, Note_off_c, 6, 81, 0
8, 9600, Note_on_c, 6, 82, 75
8, 9684, Note_off_c, 6, 82, 0
8, 9696, Note_on_c, 6, 81, 75
8, 9738, Note_off_c, 6, 81, 0
8, 9744, Note_on_c, 6, 79, 75
8, 9786, Note_off_c, 6, 79, 0
8, 9792, Note_on_c, 6, 84, 75
8, 9876, Note_off_c, 6, 84, 0
8, 9888, Note_on_c, 6, 77, 75
8, 9930, Note_off_c, 6, 77, 0
8, 9936, Note_on_c, 6, 79, 75
8, 9978, Note_off_c, 6, 79, 0
8, 9984, Note_on_c, 6, 76, 75
8, 10116, Note_off_c, 6, 76, 0
8, 10128, Note_on_c, 6, 77, 75
8, 10170, Note_off_c, 6, 77, 0
8, 10176, Note_on_c, 6, 77, 75
8, 10452, Note_off_c, 6, 77, 0
8, 10464, Note_on_c, 6, 79, 75
8, 10548, Note_off_c, 6, 79, 0
8, 10560, Note_on_c, 6, 82, 75
8, 10644, Note_off_c, 6, 82, 0
8, 10656, Note_on_c, 6, 81, 75
8, 10740, Note_off_c, 6, 81, 0
8, 10752, Note_on_c, 6, 81, 75
8, 10762, Note_off_c, 6, 81, 0
8, 10764, Note_on_c, 6, 79, 75
8, 10774, Note_off_c, 6, 79, 0
8, 10776, Note_on_c, 6, 81, 75
8, 10786, Note_off_c, 6, 81, 0
8, 10788, Note_on_c, 6, 79, 75
8, 10798, Note_off_c, 6, 79, 0
8, 10800, Note_on_c, 6, 81, 75
8, 10810, Note_off_c, 6, 81, 0
8, 10812, Note_on_c, 6, 79, 75
8, 10822, Note_off_c, 6, 79, 0
8, 10824, Note_on_c, 6, 81, 75
8, 10834, Note_off_c, 6, 81, 0
8, 10836, Note_on_c, 6, 79, 75
8, 10846, Note_off_c, 6, 79, 0
8, 10848, Note_on_c, 6, 77, 75
8, 10890, Note_off_c, 6, 77, 0
8, 10896, Note_on_c, 6, 76, 75
8, 10938, Note_off_c, 6, 76, 0
8, 10944, Note_on_c, 6, 77, 75
8, 11028, Note_off_c, 6, 77, 0
8, 11040, Note_on_c, 6, 79, 75
8, 11124, Note_off_c, 6, 79, 0
8, 11136, Note_on_c, 6, 82, 75
8, 11220, Note_off_c, 6, 82, 0
8, 11232, Note_on_c, 6, 81, 75
8, 11316, Note_off_c, 6, 81, 0
8, 11328, Note_on_c, 6, 81, 75
8, 11338, Note_off_c, 6, 81, 0
8, 11340, Note_on_c, 6, 79, 75
8, 11350, Note_off_c, 6, 79, 0
8, 11352, Note_on_c, 6, 81, 75
8, 11362, Note_off_c, 6, 81, 0
8, 11364, Note_on_c, 6, 79, 75
8, 11374, Note_off_c, 6, 79, 0
8, 11376, Note_on_c, 6, 81, 75
8, 11386, Note_off_c, 6, 81, 0
8, 11388, Note_on_c, 6, 79, 75
8, 11398, Note_off_c, 6, 79, 0
8, 11400, Note_on_c, 6, 81, 75
8, 11410, Note_off_c, 6, 81, 0
8, 11412, Note_on_c, 6, 79, 75
8, 11422, Note_off_c, 6, 79, 0
8, 11424, Note_on_c, 6, 81, 75
8, 11434, Note_off_c, 6, 81, 0
8, 11436, Note_on_c, 6, 79, 75
8, 11446, Note_off_c, 6, 79, 0
8, 11448, Note_on_c, 6, 81, 75
8, 11458, Note_off_c, 6, 81, 0
8, 11460, Note_on_c, 6, 79, 75
8, 11470, Note_off_c, 6, 79, 0
8, 11472, Note_on_c, 6, 81, 75
8, 11482, Note_off_c, 6, 81, 0
8, 11484, Note_on_c, 6, 79, 75
8, 11494, Note_off_c, 6, 79, 0
8, 11496, Note_on_c, 6, 81, 75
8, 11506, Note_off_c, 6, 81, 0
8, 11508, Note_on_c, 6, 79, 75
8, 11518, Note_off_c, 6, 79, 0
8, 11520, Note_on_c, 6, 84, 75
8, 11604, Note_off_c, 6, 84, 0
8, 11616, Note_on_c, 6, 77, 75
8, 11700, Note_off_c, 6, 77, 0
8, 11712, Note_on_c, 6, 74, 75
8, 11796, Note_off_c, 6, 74, 0
8, 11808, Note_on_c, 6, 76, 75
8, 11892, Note_off_c, 6, 76, 0
8, 11904, Note_on_c, 6, 77, 75
8, 11988, Note_off_c, 6, 77, 0
8, 12000, Note_on_c, 6, 81, 75
8, 12180, Note_off_c, 6, 81, 0
8, 12192, Note_on_c, 6, 77, 75
8, 12276, Note_off_c, 6, 77, 0
8, 12288, Note_on_c, 6, 76, 75
8, 12330, Note_off_c, 6, 76, 0
8, 12336, Note_on_c, 6, 74, 75
8, 12378, Note_off_c, 6, 74, 0
8, 12384, Note_on_c, 6, 79, 75
8, 12468, Note_off_c, 6, 79, 0
8, 12480, Note_on_c, 6, 76, 75
8, 12612, Note_off_c, 6, 76, 0
8, 12624, Note_on_c, 6, 77, 75
8, 12666, Note_off_c, 6, 77, 0
8, 12672, Note_on_c, 6, 79, 75
8, 12682, Note_off_c, 6, 79, 0
8, 12684, Note_on_c, 6, 77, 75
8, 12694, Note_off_c, 6, 77, 0
8, 12696, Note_on_c, 6, 79, 75
8, 12706, Note_off_c, 6, 79, 0
8, 12708, Note_on_c, 6, 77, 75
8, 12718, Note_off_c, 6, 77, 0
8, 12720, Note_on_c, 6, 79, 75
8, 12730, Note_off_c, 6, 79, 0
8, 12732, Note_on_c, 6, 77, 75
8, 12742, Note_off_c, 6, 77, 0
8, 12744, Note_on_c, 6, 76, 75
8, 12754, Note_off_c, 6, 76, 0
8, 12756, Note_on_c, 6, 77, 75
8, 12766, Note_off_c, 6, 77, 0
8, 12768, Note_on_c, 6, 79, 75
8, 12810, Note_off_c, 6, 79, 0
8, 12816, Note_on_c, 6, 81, 75
8, 12858, Note_off_c, 6, 81, 0
8, 12864, Note_on_c, 6, 82, 75
8, 12874, Note_off_c, 6, 82, 0
8, 12876, Note_on_c, 6, 81, 75
8, 12886, Note_off_c, 6, 81, 0
8, 12888, Note_on_c, 6, 82, 75
8, 12898, Note_off_c, 6, 82, 0
8, 12900, Note_on_c, 6, 81, 75
8, 12910, Note_off_c, 6, 81, 0
8, 12912, Note_on_c, 6, 82, 75
8, 12922, Note_off_c, 6, 82, 0
8, 12924, Note_on_c, 6, 81, 75
8, 12934, Note_off_c, 6, 81, 0
8, 12936, Note_on_c, 6, 82, 75
8, 12946, Note_off_c, 6, 82, 0
8, 12948, Note_on_c, 6, 81, 75
8, 12958, Note_off_c, 6, 81, 0
8, 12960, Note_on_c, 6, 82, 75
8, 12970, Note_off_c, 6, 82, 0
8, 12972, Note_on_c, 6, 81, 75
8, 12982, Note_off_c, 6, 81, 0
8, 12984, Note_on_c, 6, 82, 75
8, 12994, Note_off_c, 6, 82, 0
8, 12996, Note_on_c, 6, 81, 75
8, 13006, Note_off_c, 6, 81, 0
8, 13008, Note_on_c, 6, 79, 75
8, 13029, Note_off_c, 6, 79, 0
8, 13032, Note_on_c, 6, 81, 75
8, 13053, Note_off_c, 6, 81, 0
8, 13056, Note_on_c, 6, 82, 75
8, 13140, Note_off_c, 6, 82, 0
8, 13152, Note_on_c, 6, 81, 75
8, 13194, Note_off_c, 6, 81, 0
8, 13200, Note_on_c, 6, 79, 75
8, 13242, Note_off_c, 6, 79, 0
8, 13248, Note_on_c, 6, 84, 75
8, 13332, Note_off_c, 6, 84, 0
8, 13344, Note_on_c, 6, 77, 75
8, 13386, Note_off_c, 6, 77, 0
8, 13392, Note_on_c, 6, 79, 75
8, 13434, Note_off_c, 6, 79, 0
8, 13440, Note_on_c, 6, 76, 75
8, 13572, Note_off_c, 6, 76, 0
8, 13584, Note_on_c, 6, 77, 75
8, 13626, Note_off_c, 6, 77, 0
8, 13632, Note_on_c, 6, 77, 75
8, 13908, Note_off_c, 6, 77, 0
8, 14208, Tempo, 500000
8, 16512, Tempo, 500000
8, 30624, Tempo, 428571
8, 30624, Note_on_c, 6, 72, 75
8, 30708, Note_off_c, 6, 72, 0
8, 30720, Note_on_c, 6, 75, 75
8, 30804, Note_off_c, 6, 75, 0
8, 30816, Note_on_c, 6, 74, 75
8, 30900, Note_off_c, 6, 74, 0
8, 30912, Note_on_c, 6, 72, 75
8, 30996, Note_off_c, 6, 72, 0
8, 31008, Note_on_c, 6, 70, 75
8, 31050, Note_off_c, 6, 70, 0
8, 31056, Note_on_c, 6, 69, 75
8, 31098, Note_off_c, 6, 69, 0
8, 31104, Note_on_c, 6, 70, 75
8, 31188, Note_off_c, 6, 70, 0
8, 31200, Note_on_c, 6, 72, 75
8, 31284, Note_off_c, 6, 72, 0
8, 31296, Note_on_c, 6, 75, 75
8, 31380, Note_off_c, 6, 75, 0
8, 31392, Note_on_c, 6, 74, 75
8, 31476, Note_off_c, 6, 74, 0
8, 31488, Note_on_c, 6, 74, 75
8, 31498, Note_off_c, 6, 74, 0
8, 31500, Note_on_c, 6, 72, 75
8, 31510, Note_off_c, 6, 72, 0
8, 31512, Note_on_c, 6, 74, 75
8, 31522, Note_off_c, 6, 74, 0
8, 31524, Note_on_c, 6, 72, 75
8, 31534, Note_off_c, 6, 72, 0
8, 31536, Note_on_c, 6, 74, 75
8, 31546, Note_off_c, 6, 74, 0
8, 31548, Note_on_c, 6, 72, 75
8, 31558, Note_off_c, 6, 72, 0
8, 31560, Note_on_c, 6, 74, 75
8, 31570, Note_off_c, 6, 74, 0
8, 31572, Note_on_c, 6, 72, 75
8, 31582, Note_off_c, 6, 72, 0
8, 31584, Note_on_c, 6, 74, 75
8, 31594, Note_off_c, 6, 74, 0
8, 31596, Note_on_c, 6, 72, 75
8, 31606, Note_off_c, 6, 72, 0
8, 31608, Note_on_c, 6, 74, 75
8, 31618, Note_off_c, 6, 74, 0
8, 31620, Note_on_c, 6, 72, 75
8, 31630, Note_off_c, 6, 72, 0
8, 31632, Note_on_c, 6, 74, 75
8, 31642, Note_off_c, 6, 74, 0
8, 31644, Note_on_c, 6, 72, 75
8, 31654, Note_off_c, 6, 72, 0
8, 31656, Note_on_c, 6, 74, 75
8, 31666, Note_off_c, 6, 74, 0
8, 31668, Note_on_c, 6, 72, 75
8, 31678, Note_off_c, 6, 72, 0
8, 31680, Note_on_c, 6, 77, 75
8, 31764, Note_off_c, 6, 77, 0
8, 31776, Note_on_c, 6, 70, 75
8, 31860, Note_off_c, 6, 70, 0
8, 31872, Note_on_c, 6, 67, 75
8, 31956, Note_off_c, 6, 67, 0
8, 31968, Note_on_c, 6, 69, 75
8, 32052, Note_off_c, 6, 69, 0
8, 32064, Note_on_c, 6, 70, 75
8, 32148, Note_off_c, 6, 70, 0
8, 32160, Note_on_c, 6, 74, 75
8, 32340, Note_off_c, 6, 74, 0
8, 32352, Note_on_c, 6, 72, 75
8, 32362, Note_off_c, 6, 72, 0
8, 32364, Note_on_c, 6, 70, 75
8, 32374, Note_off_c, 6, 70, 0
8, 32376, Note_on_c, 6, 72, 75
8, 32386, Note_off_c, 6, 72, 0
8, 32388, Note_on_c, 6, 70, 75
8, 32398, Note_off_c, 6, 70, 0
8, 32400, Note_on_c, 6, 72, 75
8, 32410, Note_off_c, 6, 72, 0
8, 32412, Note_on_c, 6, 70, 75
8, 32422, Note_off_c, 6, 70, 0
8, 32424, Note_on_c, 6, 72, 75
8, 32434, Note_off_c, 6, 72, 0
8, 32436, Note_on_c, 6, 70, 75
8, 32446, Note_off_c, 6, 70, 0
8, 32448, Note_on_c, 6, 69, 75
8, 32490, Note_off_c, 6, 69, 0
8, 32496, Note_on_c, 6, 67, 75
8, 32538, Note_off_c, 6, 67, 0
8, 32544, Note_on_c, 6, 72, 75
8, 32628, Note_off_c, 6, 72, 0
8, 32640, Note_on_c, 6, 70, 75
8, 32650, Note_off_c, 6, 70, 0
8, 32652, Note_on_c, 6, 69, 75
8, 32662, Note_off_c, 6, 69, 0
8, 32664, Note_on_c, 6, 70, 75
8, 32674, Note_off_c, 6, 70, 0
8, 32676, Note_on_c, 6, 69, 75
8, 32686, Note_off_c, 6, 69, 0
8, 32688, Note_on_c, 6, 70, 75
8, 32698, Note_off_c, 6, 70, 0
8, 32700, Note_on_c, 6, 69, 75
8, 32710, Note_off_c, 6, 69, 0
8, 32712, Note_on_c, 6, 70, 75
8, 32722, Note_off_c, 6, 70, 0
8, 32724, Note_on_c, 6, 69, 75
8, 32734, Note_off_c, 6, 69, 0
8, 32736, Note_on_c, 6, 70, 75
8, 32746, Note_off_c, 6, 70, 0
8, 32748, Note_on_c, 6, 69, 75
8, 32758, Note_off_c, 6, 69, 0
8, 32760, Note_on_c, 6, 70, 75
8, 32770, Note_off_c, 6, 70, 0
8, 32772, Note_on_c, 6, 69, 75
8, 32782, Note_off_c, 6, 69, 0
8, 32784, Note_on_c, 6, 70, 75
8, 32794, Note_off_c, 6, 70, 0
8, 32796, Note_on_c, 6, 69, 75
8, 32806, Note_off_c, 6, 69, 0
8, 32808, Note_on_c, 6, 70, 75
8, 32818, Note_off_c, 6, 70, 0
8, 32820, Note_on_c, 6, 69, 75
8, 32830, Note_off_c, 6, 69, 0
8, 32832, Note_on_c, 6, 67, 75
8, 32916, Note_off_c, 6, 67, 0
8, 32928, Note_on_c, 6, 71, 75
8, 32970, Note_off_c, 6, 71, 0
8, 32976, Note_on_c, 6, 72, 75
8, 33018, Note_off_c, 6, 72, 0
8, 33024, Note_on_c, 6, 74, 75
8, 33034, Note_off_c, 6, 74, 0
8, 33036, Note_on_c, 6, 72, 75
8, 33046, Note_off_c, 6, 72, 0
8, 33048, Note_on_c, 6, 74, 75
8, 33058, Note_off_c, 6, 74, 0
8, 33060, Note_on_c, 6, 72, 75
8, 33070, Note_off_c, 6, 72, 0
8, 33072, Note_on_c, 6, 74, 75
8, 33082, Note_off_c, 6, 74, 0
8, 33084, Note_on_c, 6, 72, 75
8, 33094, Note_off_c, 6, 72, 0
8, 33096, Note_on_c, 6, 74, 75
8, 33106, Note_off_c, 6, 74, 0
8, 33108, Note_on_c, 6, 72, 75
8, 33118, Note_off_c, 6, 72, 0
8, 33120, Note_on_c, 6, 74, 75
8, 33130, Note_off_c, 6, 74, 0
8, 33132, Note_on_c, 6, 72, 75
8, 33142, Note_off_c, 6, 72, 0
8, 33144, Note_on_c, 6, 74, 75
8, 33154, Note_off_c, 6, 74, 0
8, 33156, Note_on_c, 6, 72, 75
8, 33166, Note_off_c, 6, 72, 0
8, 33168, Note_on_c, 6, 71, 75
8, 33189, Note_off_c, 6, 71, 0
8, 33192, Note_on_c, 6, 72, 75
8, 33213, Note_off_c, 6, 72, 0
8, 33216, Note_on_c, 6, 74, 75
8, 33300, Note_off_c, 6, 74, 0
8, 33312, Note_on_c, 6, 72, 75
8, 33354, Note_off_c, 6, 72, 0
8, 33360, Note_on_c, 6, 71, 75
8, 33402, Note_off_c, 6, 71, 0
8, 33408, Note_on_c, 6, 72, 75
8, 33492, Note_off_c, 6, 72, 0
8, 33504, Note_on_c, 6, 77, 75
8, 33546, Note_off_c, 6, 77, 0
8, 33552, Note_on_c, 6, 79, 75
8, 33594, Note_off_c, 6, 79, 0
8, 33600, Note_on_c, 6, 74, 75
8, 33732, Note_off_c, 6, 74, 0
8, 33744, Note_on_c, 6, 72, 75
8, 33786, Note_off_c, 6, 72, 0
8, 33792, Note_on_c, 6, 72, 75
8, 34068, Note_off_c, 6, 72, 0
8, 34080, Note_on_c, 6, 72, 75
8, 34164, Note_off_c, 6, 72, 0
8, 34176, Note_on_c, 6, 75, 75
8, 34260, Note_off_c, 6, 75, 0
8, 34272, Note_on_c, 6, 74, 75
8, 34356, Note_off_c, 6, 74, 0
8, 34368, Note_on_c, 6, 72, 75
8, 34452, Note_off_c, 6, 72, 0
8, 34464, Note_on_c, 6, 70, 75
8, 34506, Note_off_c, 6, 70, 0
8, 34512, Note_on_c, 6, 69, 75
8, 34554, Note_off_c, 6, 69, 0
8, 34560, Note_on_c, 6, 70, 75
8, 34644, Note_off_c, 6, 70, 0
8, 34656, Note_on_c, 6, 72, 75
8, 34740, Note_off_c, 6, 72, 0
8, 34752, Note_on_c, 6, 75, 75
8, 34836, Note_off_c, 6, 75, 0
8, 34848, Note_on_c, 6, 74, 75
8, 34932, Note_off_c, 6, 74, 0
8, 34944, Note_on_c, 6, 74, 75
8, 34954, Note_off_c, 6, 74, 0
8, 34956, Note_on_c, 6, 72, 75
8, 34966, Note_off_c, 6, 72, 0
8, 34968, Note_on_c, 6, 74, 75
8, 34978, Note_off_c, 6, 74, 0
8, 34980, Note_on_c, 6, 72, 75
8, 34990, Note_off_c, 6, 72, 0
8, 34992, Note_on_c, 6, 74, 75
8, 35002, Note_off_c, 6, 74, 0
8, 35004, Note_on_c, 6, 72, 75
8, 35014, Note_off_c, 6, 72, 0
8, 35016, Note_on_c, 6, 74, 75
8, 35026, Note_off_c, 6, 74, 0
8, 35028, Note_on_c, 6, 72, 75
8, 35038, Note_off_c, 6, 72, 0
8, 35040, Note_on_c, 6, 74, 75
8, 35050, Note_off_c, 6, 74, 0
8, 35052, Note_on_c, 6, 72, 75
8, 35062, Note_off_c, 6, 72, 0
8, 35064, Note_on_c, 6, 74, 75
8, 35074, Note_off_c, 6, 74, 0
8, 35076, Note_on_c, 6, 72, 75
8, 35086, Note_off_c, 6, 72, 0
8, 35088, Note_on_c, 6, 74, 75
8, 35098, Note_off_c, 6, 74, 0
8, 35100, Note_on_c, 6, 72, 75
8, 35110, Note_off_c, 6, 72, 0
8, 35112, Note_on_c, 6, 74, 75
8, 35122, Note_off_c, 6, 74, 0
8, 35124, Note_on_c, 6, 72, 75
8, 35134, Note_off_c, 6, 72, 0
8, 35136, Note_on_c, 6, 77, 75
8, 35220, Note_off_c, 6, 77, 0
8, 35232, Note_on_c, 6, 70, 75
8, 35316, Note_off_c, 6, 70, 0
8, 35328, Note_on_c, 6, 67, 75
8, 35412, Note_off_c, 6, 67, 0
8, 35424, Note_on_c, 6, 69, 75
8, 35508, Note_off_c, 6, 69, 0
8, 35520, Note_on_c, 6, 70, 75
8, 35604, Note_off_c, 6, 70, 0
8, 35616, Note_on_c, 6, 74, 75
8, 35796, Note_off_c, 6, 74, 0
8, 35808, Note_on_c, 6, 72, 75
8, 35818, Note_off_c, 6, 72, 0
8, 35820, Note_on_c, 6, 70, 75
8, 35830, Note_off_c, 6, 70, 0
8, 35832, Note_on_c, 6, 72, 75
8, 35842, Note_off_c, 6, 72, 0
8, 35844, Note_on_c, 6, 70, 75
8, 35854, Note_off_c, 6, 70, 0
8, 35856, Note_on_c, 6, 72, 75
8, 35866, Note_off_c, 6, 72, 0
8, 35868, Note_on_c, 6, 70, 75
8, 35878, Note_off_c, 6, 70, 0
8, 35880, Note_on_c, 6, 72, 75
8, 35890, Note_off_c, 6, 72, 0
8, 35892, Note_on_c, 6, 70, 75
8, 35902, Note_off_c, 6, 70, 0
8, 35904, Note_on_c, 6, 69, 75
8, 35946, Note_off_c, 6, 69, 0
8, 35952, Note_on_c, 6, 67, 75
8, 35994, Note_off_c, 6, 67, 0
8, 36000, Note_on_c, 6, 72, 75
8, 36084, Note_off_c, 6, 72, 0
8, 36096, Note_on_c, 6, 70, 75
8, 36106, Note_off_c, 6, 70, 0
8, 36108, Note_on_c, 6, 69, 75
8, 36118, Note_off_c, 6, 69, 0
8, 36120, Note_on_c, 6, 70, 75
8, 36130, Note_off_c, 6, 70, 0
8, 36132, Note_on_c, 6, 69, 75
8, 36142, Note_off_c, 6, 69, 0
8, 36144, Note_on_c, 6, 70, 75
8, 36154, Note_off_c, 6, 70, 0
8, 36156, Note_on_c, 6, 69, 75
8, 36166, Note_off_c, 6, 69, 0
8, 36168, Note_on_c, 6, 70, 75
8, 36178, Note_off_c, 6, 70, 0
8, 36180, Note_on_c, 6, 69, 75
8, 36190, Note_off_c, 6, 69, 0
8, 36192, Note_on_c, 6, 70, 75
8, 36202, Note_off_c, 6, 70, 0
8, 36204, Note_on_c, 6, 69, 75
8, 36214, Note_off_c, 6, 69, 0
8, 36216, Note_on_c, 6, 70, 75
8, 36226, Note_off_c, 6, 70, 0
8, 36228, Note_on_c, 6, 69, 75
8, 36238, Note_off_c, 6, 69, 0
8, 36240, Note_on_c, 6, 70, 75
8, 36250, Note_off_c, 6, 70, 0
8, 36252, Note_on_c, 6, 69, 75
8, 36262, Note_off_c, 6, 69, 0
8, 36264, Note_on_c, 6, 70, 75
8, 36274, Note_off_c, 6, 70, 0
8, 36276, Note_on_c, 6, 69, 75
8, 36286, Note_off_c, 6, 69, 0
8, 36288, Note_on_c, 6, 67, 75
8, 36372, Note_off_c, 6, 67, 0
8, 36384, Note_on_c, 6, 71, 75
8, 36426, Note_off_c, 6, 71, 0
8, 36432, Note_on_c, 6, 72, 75
8, 36474, Note_off_c, 6, 72, 0
8, 36480, Note_on_c, 6, 74, 75
8, 36490, Note_off_c, 6, 74, 0
8, 36492, Note_on_c, 6, 72, 75
8, 36502, Note_off_c, 6, 72, 0
8, 36504, Note_on_c, 6, 74, 75
8, 36514, Note_off_c, 6, 74, 0
8, 36516, Note_on_c, 6, 72, 75
8, 36526, Note_off_c, 6, 72, 0
8, 36528, Note_on_c, 6, 74, 75
8, 36538, Note_off_c, 6, 74, 0
8, 36540, Note_on_c, 6, 72, 75
8, 36550, Note_off_c, 6, 72, 0
8, 36552, Note_on_c, 6, 74, 75
8, 36562, Note_off_c, 6, 74, 0
8, 36564, Note_on_c, 6, 72, 75
8, 36574, Note_off_c, 6, 72, 0
8, 36576, Note_on_c, 6, 74, 75
8, 36586, Note_off_c, 6, 74, 0
8, 36588, Note_on_c, 6, 72, 75
8, 36598, Note_off_c, 6, 72, 0
8, 36600, Note_on_c, 6, 74, 75
8, 36610, Note_off_c, 6, 74, 0
8, 36612, Note_on_c, 6, 72, 75
8, 36622, Note_off_c, 6, 72, 0
8, 36624, Note_on_c, 6, 71, 75
8, 36645, Note_off_c, 6, 71, 0
8, 36648, Note_on_c, 6, 72, 75
8, 36669, Note_off_c, 6, 72, 0
8, 36672, Note_on_c, 6, 74, 75
8, 36756, Note_off_c, 6, 74, 0
8, 36768, Note_on_c, 6, 72, 75
8, 36810, Note_off_c, 6, 72, 0
8, 36816, Note_on_c, 6, 71, 75
8, 36858, Note_off_c, 6, 71, 0
8, 36864, Note_on_c, 6, 72, 75
8, 36948, Note_off_c, 6, 72, 0
8, 36960, Note_on_c, 6, 77, 75
8, 37002, Note_off_c, 6, 77, 0
8, 37008, Note_on_c, 6, 79, 75
8, 37050, Note_off_c, 6, 79, 0
8, 37056, Note_on_c, 6, 74, 75
8, 37188, Note_off_c, 6, 74, 0
8, 37200, Note_on_c, 6, 72, 75
8, 37242, Note_off_c, 6, 72, 0
8, 37248, Note_on_c, 6, 72, 75
8, 37524, Note_off_c, 6, 72, 0
8, 37536, Note_on_c, 6, 79, 75
8, 37620, Note_off_c, 6, 79, 0
8, 37632, Note_on_c, 6, 82, 75
8, 37716, Note_off_c, 6, 82, 0
8, 37728, Note_on_c, 6, 81, 75
8, 37812, Note_off_c, 6, 81, 0
8, 37824, Note_on_c, 6, 81, 75
8, 37834, Note_off_c, 6, 81, 0
8, 37836, Note_on_c, 6, 79, 75
8, 37846, Note_off_c, 6, 79, 0
8, 37848, Note_on_c, 6, 81, 75
8, 37858, Note_off_c, 6, 81, 0
8, 37860, Note_on_c, 6, 79, 75
8, 37870, Note_off_c, 6, 79, 0
8, 37872, Note_on_c, 6, 81, 75
8, 37882, Note_off_c, 6, 81, 0
8, 37884, Note_on_c, 6, 79, 75
8, 37894, Note_off_c, 6, 79, 0
8, 37896, Note_on_c, 6, 81, 75
8, 37906, Note_off_c, 6, 81, 0
8, 37908, Note_on_c, 6, 79, 75
8, 37918, Note_off_c, 6, 79, 0
8, 37920, Note_on_c, 6, 77, 75
8, 37962, Note_off_c, 6, 77, 0
8, 37968, Note_on_c, 6, 76, 75
8, 38010, Note_off_c, 6, 76, 0
8, 38016, Note_on_c, 6, 77, 75
8, 38100, Note_off_c, 6, 77, 0
8, 38112, Note_on_c, 6, 79, 75
8, 38196, Note_off_c, 6, 79, 0
8, 38208, Note_on_c, 6, 82, 75
8, 38292, Note_off_c, 6, 82, 0
8, 38304, Note_on_c, 6, 81, 75
8, 38388, Note_off_c, 6, 81, 0
8, 38400, Note_on_c, 6, 81, 75
8, 38410, Note_off_c, 6, 81, 0
8, 38412, Note_on_c, 6, 79, 75
8, 38422, Note_off_c, 6, 79, 0
8, 38424, Note_on_c, 6, 81, 75
8, 38434, Note_off_c, 6, 81, 0
8, 38436, Note_on_c, 6, 79, 75
8, 38446, Note_off_c, 6, 79, 0
8, 38448, Note_on_c, 6, 81, 75
8, 38458, Note_off_c, 6, 81, 0
8, 38460, Note_on_c, 6, 79, 75
8, 38470, Note_off_c, 6, 79, 0
8, 38472, Note_on_c, 6, 81, 75
8, 38482, Note_off_c, 6, 81, 0
8, 38484, Note_on_c, 6, 79, 75
8, 38494, Note_off_c, 6, 79, 0
8, 38496, Note_on_c, 6, 81, 75
8, 38506, Note_off_c, 6, 81, 0
8, 38508, Note_on_c, 6, 79, 75
8, 38518, Note_off_c, 6, 79, 0
8, 38520, Note_on_c, 6, 81, 75
8, 38530, Note_off_c, 6, 81, 0
8, 38532, Note_on_c, 6, 79, 75
8, 38542, Note_off_c, 6, 79, 0
8, 38544, Note_on_c, 6, 81, 75
8, 38554, Note_off_c, 6, 81, 0
8, 38556, Note_on_c, 6, 79, 75
8, 38566, Note_off_c, 6, 79, 0
8, 38568, Note_on_c, 6, 81, 75
8, 38578, Note_off_c, 6, 81, 0
8, 38580, Note_on_c, 6, 79, 75
8, 38590, Note_off_c, 6, 79, 0
8, 38592, Note_on_c, 6, 84, 75
8, 38676, Note_off_c, 6, 84, 0
8, 38688, Note_on_c, 6, 77, 75
8, 38772, Note_off_c, 6, 77, 0
8, 38784, Note_on_c, 6, 74, 75
8, 38868, Note_off_c, 6, 74, 0
8, 38880, Note_on_c, 6, 76, 75
8, 38964, Note_off_c, 6, 76, 0
8, 38976, Note_on_c, 6, 77, 75
8, 39060, Note_off_c, 6, 77, 0
8, 39072, Note_on_c, 6, 81, 75
8, 39252, Note_off_c, 6, 81, 0
8, 39264, Note_on_c, 6, 77, 75
8, 39348, Note_off_c, 6, 77, 0
8, 39360, Note_on_c, 6, 76, 75
8, 39402, Note_off_c, 6, 76, 0
8, 39408, Note_on_c, 6, 74, 75
8, 39450, Note_off_c, 6, 74, 0
8, 39456, Note_on_c, 6, 79, 75
8, 39540, Note_off_c, 6, 79, 0
8, 39552, Note_on_c, 6, 76, 75
8, 39684, Note_off_c, 6, 76, 0
8, 39696, Note_on_c, 6, 77, 75
8, 39738, Note_off_c, 6, 77, 0
8, 39744, Note_on_c, 6, 79, 75
8, 39754, Note_off_c, 6, 79, 0
8, 39756, Note_on_c, 6, 77, 75
8, 39766, Note_off_c, 6, 77, 0
8, 39768, Note_on_c, 6, 79, 75
8, 39778, Note_off_c, 6, 79, 0
8, 39780, Note_on_c, 6, 77, 75
8, 39790, Note_off_c, 6, 77, 0
8, 39792, Note_on_c, 6, 79, 75
8, 39802, Note_off_c, 6, 79, 0
8, 39804, Note_on_c, 6, 77, 75
8, 39814, Note_off_c, 6, 77, 0
8, 39816, Note_on_c, 6, 76, 75
8, 39826, Note_off_c, 6, 76, 0
8, 39828, Note_on_c, 6, 77, 75
8, 39838, Note_off_c, 6, 77, 0
8, 39840, Note_on_c, 6, 79, 75
8, 39882, Note_off_c, 6, 79, 0
8, 39888, Note_on_c, 6, 81, 75
8, 39930, Note_off_c, 6, 81, 0
8, 39936, Note_on_c, 6, 82, 75
8, 39946, Note_off_c, 6, 82, 0
8, 39948, Note_on_c, 6, 81, 75
8, 39958, Note_off_c, 6, 81, 0
8, 39960, Note_on_c, 6, 82, 75
8, 39970, Note_off_c, 6, 82, 0
8, 39972, Note_on_c, 6, 81, 75
8, 39982, Note_off_c, 6, 81, 0
8, 39984, Note_on_c, 6, 82, 75
8, 39994, Note_off_c, 6, 82, 0
8, 39996, Note_on_c, 6, 81, 75
8, 40006, Note_off_c, 6, 81, 0
8, 40008, Note_on_c, 6, 82, 75
8, 40018, Note_off_c, 6, 82, 0
8, 40020, Note_on_c, 6, 81, 75
8, 40030, Note_off_c, 6, 81, 0
8, 40032, Note_on_c, 6, 82, 75
8, 40042, Note_off_c, 6, 82, 0
8, 40044, Note_on_c, 6, 81, 75
8, 40054, Note_off_c, 6, 81, 0
8, 40056, Note_on_c, 6, 82, 75
8, 40066, Note_off_c, 6, 82, 0
8, 40068, Note_on_c, 6, 81, 75
8, 40078, Note_off_c, 6, 81, 0
8, 40080, Note_on_c, 6, 79, 75
8, 40101, Note_off_c, 6, 79, 0
8, 40104, Note_on_c, 6, 81, 75
8, 40125, Note_off_c, 6, 81, 0
8, 40128, Note_on_c, 6, 82, 75
8, 40212, Note_off_c, 6, 82, 0
8, 40224, Note_on_c, 6, 81, 75
8, 40266, Note_off_c, 6, 81, 0
8, 40272, Note_on_c, 6, 79, 75
8, 40314, Note_off_c, 6, 79, 0
8, 40320, Note_on_c, 6, 84, 75
8, 40404, Note_off_c, 6, 84, 0
8, 40416, Note_on_c, 6, 77, 75
8, 40458, Note_off_c, 6, 77, 0
8, 40464, Note_on_c, 6, 79, 75
8, 40506, Note_off_c, 6, 79, 0
8, 40512, Note_on_c, 6, 76, 75
8, 40644, Note_off_c, 6, 76, 0
8, 40656, Note_on_c, 6, 77, 75
8, 40698, Note_off_c, 6, 77, 0
8, 40704, Note_on_c, 6, 77, 75
8, 40980, Note_off_c, 6, 77, 0
8, 40992, Note_on_c, 6, 79, 75
8, 41076, Note_off_c, 6, 79, 0
8, 41088, Note_on_c, 6, 82, 75
8, 41172, Note_off_c, 6, 82, 0
8, 41184, Note_on_c, 6, 81, 75
8, 41268, Note_off_c, 6, 81, 0
8, 41280, Note_on_c, 6, 81, 75
8, 41290, Note_off_c, 6, 81, 0
8, 41292, Note_on_c, 6, 79, 75
8, 41302, Note_off_c, 6, 79, 0
8, 41304, Note_on_c, 6, 81, 75
8, 41314, Note_off_c, 6, 81, 0
8, 41316, Note_on_c, 6, 79, 75
8, 41326, Note_off_c, 6, 79, 0
8, 41328, Note_on_c, 6, 81, 75
8, 41338, Note_off_c, 6, 81, 0
8, 41340, Note_on_c, 6, 79, 75
8, 41350, Note_off_c, 6, 79, 0
8, 41352, Note_on_c, 6, 81, 75
8, 41362, Note_off_c, 6, 81, 0
8, 41364, Note_on_c, 6, 79, 75
8, 41374, Note_off_c, 6, 79, 0
8, 41376, Note_on_c, 6, 77, 75
8, 41418, Note_off_c, 6, 77, 0
8, 41424, Note_on_c, 6, 76, 75
8, 41466, Note_off_c, 6, 76, 0
8, 41472, Note_on_c, 6, 77, 75
8, 41556, Note_off_c, 6, 77, 0
8, 41568, Note_on_c, 6, 79, 75
8, 41652, Note_off_c, 6, 79, 0
8, 41664, Note_on_c, 6, 82, 75
8, 41748, Note_off_c, 6, 82, 0
8, 41760, Note_on_c, 6, 81, 75
8, 41844, Note_off_c, 6, 81, 0
8, 41856, Note_on_c, 6, 81, 75
8, 41866, Note_off_c, 6, 81, 0
8, 41868, Note_on_c, 6, 79, 75
8, 41878, Note_off_c, 6, 79, 0
8, 41880, Note_on_c, 6, 81, 75
8, 41890, Note_off_c, 6, 81, 0
8, 41892, Note_on_c, 6, 79, 75
8, 41902, Note_off_c, 6, 79, 0
8, 41904, Note_on_c, 6, 81, 75
8, 41914, Note_off_c, 6, 81, 0
8, 41916, Note_on_c, 6, 79, 75
8, 41926, Note_off_c, 6, 79, 0
8, 41928, Note_on_c, 6, 81, 75
8, 41938, Note_off_c, 6, 81, 0
8, 41940, Note_on_c, 6, 79, 75
8, 41950, Note_off_c, 6, 79, 0
8, 41952, Note_on_c, 6, 81, 75
8, 41962, Note_off_c, 6, 81, 0
8, 41964, Note_on_c, 6, 79, 75
8, 41974, Note_off_c, 6, 79, 0
8, 41976, Note_on_c, 6, 81, 75
8, 41986, Note_off_c, 6, 81, 0
8, 41988, Note_on_c, 6, 79, 75
8, 41998, Note_off_c, 6, 79, 0
8, 42000, Note_on_c, 6, 81, 75
8, 42010, Note_off_c, 6, 81, 0
8, 42012, Note_on_c, 6, 79, 75
8, 42022, Note_off_c, 6, 79, 0
8, 42024, Note_on_c, 6, 81, 75
8, 42034, Note_off_c, 6, 81, 0
8, 42036, Note_on_c, 6, 79, 75
8, 42046, Note_off_c, 6, 79, 0
8, 42048, Note_on_c, 6, 84, 75
8, 42132, Note_off_c, 6, 84, 0
8, 42144, Note_on_c, 6, 77, 75
8, 42228, Note_off_c, 6, 77, 0
8, 42240, Note_on_c, 6, 74, 75
8, 42324, Note_off_c, 6, 74, 0
8, 42336, Note_on_c, 6, 76, 75
8, 42420, Note_off_c, 6, 76, 0
8, 42432, Note_on_c, 6, 77, 75
8, 42516, Note_off_c, 6, 77, 0
8, 42528, Note_on_c, 6, 81, 75
8, 42708, Note_off_c, 6, 81, 0
8, 42720, Note_on_c, 6, 77, 75
8, 42804, Note_off_c, 6, 77, 0
8, 42816, Note_on_c, 6, 76, 75
8, 42858, Note_off_c, 6, 76, 0
8, 42864, Note_on_c, 6, 74, 75
8, 42906, Note_off_c, 6, 74, 0
8, 42912, Note_on_c, 6, 79, 75
8, 42996, Note_off_c, 6, 79, 0
8, 43008, Note_on_c, 6, 76, 75
8, 43140, Note_off_c, 6, 76, 0
8, 43152, Note_on_c, 6, 77, 75
8, 43194, Note_off_c, 6, 77, 0
8, 43200, Note_on_c, 6, 79, 75
8, 43210, Note_off_c, 6, 79, 0
8, 43212, Note_on_c, 6, 77, 75
8, 43222, Note_off_c, 6, 77, 0
8, 43224, Note_on_c, 6, 79, 75
8, 43234, Note_off_c, 6, 79, 0
8, 43236, Note_on_c, 6, 77, 75
8, 43246, Note_off_c, 6, 77, 0
8, 43248, Note_on_c, 6, 79, 75
8, 43258, Note_off_c, 6, 79, 0
8, 43260, Note_on_c, 6, 77, 75
8, 43270, Note_off_c, 6, 77, 0
8, 43272, Note_on_c, 6, 76, 75
8, 43282, Note_off_c, 6, 76, 0
8, 43284, Note_on_c, 6, 77, 75
8, 43294, Note_off_c, 6, 77, 0
8, 43296, Note_on_c, 6, 79, 75
8, 43338, Note_off_c, 6, 79, 0
8, 43344, Note_on_c, 6, 81, 75
8, 43386, Note_off_c, 6, 81, 0
8, 43392, Note_on_c, 6, 82, 75
8, 43402, Note_off_c, 6, 82, 0
8, 43404, Note_on_c, 6, 81, 75
8, 43414, Note_off_c, 6, 81, 0
8, 43416, Note_on_c, 6, 82, 75
8, 43426, Note_off_c, 6, 82, 0
8, 43428, Note_on_c, 6, 81, 75
8, 43438, Note_off_c, 6, 81, 0
8, 43440, Note_on_c, 6, 82, 75
8, 43450, Note_off_c, 6, 82, 0
8, 43452, Note_on_c, 6, 81, 75
8, 43462, Note_off_c, 6, 81, 0
8, 43464, Note_on_c, 6, 82, 75
8, 43474, Note_off_c, 6, 82, 0
8, 43476, Note_on_c, 6, 81, 75
8, 43486, Note_off_c, 6, 81, 0
8, 43488, Note_on_c, 6, 82, 75
8, 43498, Note_off_c, 6, 82, 0
8, 43500, Note_on_c, 6, 81, 75
8, 43510, Note_off_c, 6, 81, 0
8, 43512, Note_on_c, 6, 82, 75
8, 43522, Note_off_c, 6, 82, 0
8, 43524, Note_on_c, 6, 81, 75
8, 43534, Note_off_c, 6, 81, 0
8, 43536, Note_on_c, 6, 79, 75
8, 43557, Note_off_c, 6, 79, 0
8, 43560, Note_on_c, 6, 81, 75
8, 43581, Note_off_c, 6, 81, 0
8, 43584, Note_on_c, 6, 82, 75
8, 43668, Note_off_c, 6, 82, 0
8, 43680, Note_on_c, 6, 81, 75
8, 43722, Note_off_c, 6, 81, 0
8, 43728, Note_on_c, 6, 79, 75
8, 43770, Note_off_c, 6, 79, 0
8, 43776, Note_on_c, 6, 84, 75
8, 43860, Note_off_c, 6, 84, 0
8, 43872, Note_on_c, 6, 77, 75
8, 43914, Note_off_c, 6, 77, 0
8, 43920, Note_on_c, 6, 79, 75
8, 43962, Note_off_c, 6, 79, 0
8, 43968, Note_on_c, 6, 76, 75
8, 44100, Note_off_c, 6, 76, 0
8, 44112, Note_on_c, 6, 77, 75
8, 44154, Note_off_c, 6, 77, 0
8, 44160, Note_on_c, 6, 77, 75
8, 44436, Note_off_c, 6, 77, 0
8, 44736, Tempo, 1000000
8, 44736, End_track
9, 0, Start_track
9, 0, Title_t, "Violin I"
9, 0, Control_c, 7, 0, 0
9, 0, Program_c, 7, 40
9, 0, Time_signature, 3, 2, 96, 8
9, 0, Tempo, 1000000
9, 96, Tempo, 428571
9, 96, Note_on_c, 7, 72, 75
9, 180, Note_off_c, 7, 72, 0
9, 192, Note_on_c, 7, 75, 75
9, 276, Note_off_c, 7, 75, 0
9, 288, Note_on_c, 7, 74, 75
9, 372, Note_off_c, 7, 74, 0
9, 384, Note_on_c, 7, 72, 75
9, 468, Note_off_c, 7, 72, 0
9, 480, Note_on_c, 7, 70, 75
9, 522, Note_off_c, 7, 70, 0
9, 528, Note_on_c, 7, 69, 75
9, 570, Note_off_c, 7, 69, 0
9, 576, Note_on_c, 7, 70, 75
9, 660, Note_off_c, 7, 70, 0
9, 672, Note_on_c, 7, 72, 75
9, 756, Note_off_c, 7, 72, 0
9, 768, Note_on_c, 7, 75, 75
9, 852, Note_off_c, 7, 75, 0
9, 864, Note_on_c, 7, 74, 75
9, 948, Note_off_c, 7, 74, 0
9, 960, Note_on_c, 7, 74, 75
9, 970, Note_off_c, 7, 74, 0
9, 972, Note_on_c, 7, 72, 75
9, 982, Note_off_c, 7, 72, 0
9, 984, Note_on_c, 7, 74, 75
9, 994, Note_off_c, 7, 74, 0
9, 996, Note_on_c, 7, 72, 75
9, 1006, Note_off_c, 7, 72, 0
9, 1008, Note_on_c, 7, 74, 75
9, 1018, Note_off_c, 7, 74, 0
9, 1020, Note_on_c, 7, 72, 75
9, 1030, Note_off_c, 7, 72, 0
9, 1032, Note_on_c, 7, 74, 75
9, 1042, Note_off_c, 7, 74, 0
9, 1044, Note_on_c, 7, 72, 75
9, 1054, Note_off_c, 7, 72, 0
9, 1056, Note_on_c, 7, 74, 75
9, 1066, Note_off_c, 7, 74, 0
9, 1068, Note_on_c, 7, 72, 75
9, 1078, Note_off_c, 7, 72, 0
9, 1080, Note_on_c, 7, 74, 75
9, 1090, Note_off_c, 7, 74, 0
9, 1092, Note_on_c, 7, 72, 75
9, 1102, Note_off_c, 7, 72, 0
9, 1104, Note_on_c, 7, 74, 75
9, 1114, Note_off_c, 7, 74, 0
9, 1116, Note_on_c, 7, 72, 75
9, 1126, Note_off_c, 7, 72, 0
9, 1128, Note_on_c, 7, 74, 75
9, 1138, Note_off_c, 7, 74, 0
9, 1140, Note_on_c, 7, 72, 75
9, 1150, Note_off_c, 7, 72, 0
9, 1152, Note_on_c, 7, 77, 75
9, 1236, Note_off_c, 7, 77, 0
9, 1248, Note_on_c, 7, 70, 75
9, 1332, Note_off_c, 7, 70, 0
9, 1344, Note_on_c, 7, 67, 75
9, 1428, Note_off_c, 7, 67, 0
9, 1440, Note_on_c, 7, 69, 75
9, 1524, Note_off_c, 7, 69, 0
9, 1536, Note_on_c, 7, 70, 75
9, 1620, Note_off_c, 7, 70, 0
9, 1632, Note_on_c, 7, 74, 75
9, 1812, Note_off_c, 7, 74, 0
9, 1824, Note_on_c, 7, 72, 75
9, 1834, Note_off_c, 7, 72, 0
9, 1836, Note_on_c, 7, 70, 75
9, 1846, Note_off_c, 7, 70, 0
9, 1848, Note_on_c, 7, 72, 75
9, 1858, Note_off_c, 7, 72, 0
9, 1860, Note_on_c, 7, 70, 75
9, 1870, Note_off_c, 7, 70, 0
9, 1872, Note_on_c, 7, 72, 75
9, 1882, Note_off_c, 7, 72, 0
9, 1884, Note_on_c, 7, 70, 75
9, 1894, Note_off_c, 7, 70, 0
9, 1896, Note_on_c, 7, 72, 75
9, 1906, Note_off_c, 7, 72, 0
9, 1908, Note_on_c, 7, 70, 75
9, 1918, Note_off_c, 7, 70, 0
9, 1920, Note_on_c, 7, 69, 75
9, 1962, Note_off_c, 7, 69, 0
9, 1968, Note_on_c, 7, 67, 75
9, 2010, Note_off_c, 7, 67, 0
9, 2016, Note_on_c, 7, 72, 75
9, 2100, Note_off_c, 7, 72, 0
9, 2112, Note_on_c, 7, 70, 75
9, 2122, Note_off_c, 7, 70, 0
9, 2124, Note_on_c, 7, 69, 75
9, 2134, Note_off_c, 7, 69, 0
9, 2136, Note_on_c, 7, 70, 75
9, 2146, Note_off_c, 7, 70, 0
9, 2148, Note_on_c, 7, 69, 75
9, 2158, Note_off_c, 7, 69, 0
9, 2160, Note_on_c, 7, 70, 75
9, 2170, Note_off_c, 7, 70, 0
9, 2172, Note_on_c, 7, 69, 75
9, 2182, Note_off_c, 7, 69, 0
9, 2184, Note_on_c, 7, 70, 75
9, 2194, Note_off_c, 7, 70, 0
9, 2196, Note_on_c, 7, 69, 75
9, 2206, Note_off_c, 7, 69, 0
9, 2208, Note_on_c, 7, 70, 75
9, 2218, Note_off_c, 7, 70, 0
9, 2220, Note_on_c, 7, 69, 75
9, 2230, Note_off_c, 7, 69, 0
9, 2232, Note_on_c, 7, 70, 75
9, 2242, Note_off_c, 7, 70, 0
9, 2244, Note_on_c, 7, 69, 75
9, 2254, Note_off_c, 7, 69, 0
9, 2256, Note_on_c, 7, 70, 75
9, 2266, Note_off_c, 7, 70, 0
9, 2268, Note_on_c, 7, 69, 75
9, 2278, Note_off_c, 7, 69, 0
9, 2280, Note_on_c, 7, 70, 75
9, 2290, Note_off_c, 7, 70, 0
9, 2292, Note_on_c, 7, 69, 75
9, 2302, Note_off_c, 7, 69, 0
9, 2304, Note_on_c, 7, 67, 75
9, 2388, Note_off_c, 7, 67, 0
9, 2400, Note_on_c, 7, 71, 75
9, 2442, Note_off_c, 7, 71, 0
9, 2448, Note_on_c, 7, 72, 75
9, 2490, Note_off_c, 7, 72, 0
9, 2496, Note_on_c, 7, 74, 75
9, 2506, Note_off_c, 7, 74, 0
9, 2508, Note_on_c, 7, 72, 75
9, 2518, Note_off_c, 7, 72, 0
9, 2520, Note_on_c, 7, 74, 75
9, 2530, Note_off_c, 7, 74, 0
9, 2532, Note_on_c, 7, 72, 75
9, 2542, Note_off_c, 7, 72, 0
9, 2544, Note_on_c, 7, 74, 75
9, 2554, Note_off_c, 7, 74, 0
9, 2556, Note_on_c, 7, 72, 75
9, 2566, Note_off_c, 7, 72, 0
9, 2568, Note_on_c, 7, 74, 75
9, 2578, Note_off_c, 7, 74, 0
9, 2580, Note_on_c, 7, 72, 75
9, 2590, Note_off_c, 7, 72, 0
9, 2592, Note_on_c, 7, 74, 75
9, 2602, Note_off_c, 7, 74, 0
9, 2604, Note_on_c, 7, 72, 75
9, 2614, Note_off_c, 7, 72, 0
9, 2616, Note_on_c, 7, 74, 75
9, 2626, Note_off_c, 7, 74, 0
9, 2628, Note_on_c, 7, 72, 75
9, 2638, Note_off_c, 7, 72, 0
9, 2640, Note_on_c, 7, 71, 75
9, 2661, Note_off_c, 7, 71, 0
9, 2664, Note_on_c, 7, 72, 75
9, 2685, Note_off_c, 7, 72, 0
9, 2688, Note_on_c, 7, 74, 75
9, 2772, Note_off_c, 7, 74, 0
9, 2784, Note_on_c, 7, 72, 75
9, 2826, Note_off_c, 7, 72, 0
9, 2832, Note_on_c, 7, 71, 75
9, 2874, Note_off_c, 7, 71, 0
9, 2880, Note_on_c, 7, 72, 75
9, 2964, Note_off_c, 7, 72, 0
9, 2976, Note_on_c, 7, 77, 75
9, 3018, Note_off_c, 7, 77, 0
9, 3024, Note_on_c, 7, 79, 75
9, 3066, Note_off_c, 7, 79, 0
9, 3072, Note_on_c, 7, 74, 75
9, 3204, Note_off_c, 7, 74, 0
9, 3216, Note_on_c, 7, 72, 75
9, 3258, Note_off_c, 7, 72, 0
9, 3264, Note_on_c, 7, 72, 75
9, 3540, Note_off_c, 7, 72, 0
9, 3552, Note_on_c, 7, 72, 75
9, 3636, Note_off_c, 7, 72, 0
9, 3648, Note_on_c, 7, 75, 75
9, 3732, Note_off_c, 7, 75, 0
9, 3744, Note_on_c, 7, 74, 75
9, 3828, Note_off_c, 7, 74, 0
9, 3840, Note_on_c, 7, 72, 75
9, 3924, Note_off_c, 7, 72, 0
9, 3936, Note_on_c, 7, 70, 75
9, 3978, Note_off_c, 7, 70, 0
9, 3984, Note_on_c, 7, 69, 75
9, 4026, Note_off_c, 7, 69, 0
9, 4032, Note_on_c, 7, 70, 75
9, 4116, Note_off_c, 7, 70, 0
9, 4128, Note_on_c, 7, 72, 75
9, 4212, Note_off_c, 7, 72, 0
9, 4224, Note_on_c, 7, 75, 75
9, 4308, Note_off_c, 7, 75, 0
9, 4320, Note_on_c, 7, 74, 75
9, 4404, Note_off_c, 7, 74, 0
9, 4416, Note_on_c, 7, 74, 75
9, 4426, Note_off_c, 7, 74, 0
9, 4428, Note_on_c, 7, 72, 75
9, 4438, Note_off_c, 7, 72, 0
9, 4440, Note_on_c, 7, 74, 75
9, 4450, Note_off_c, 7, 74, 0
9, 4452, Note_on_c, 7, 72, 75
9, 4462, Note_off_c, 7, 72, 0
9, 4464, Note_on_c, 7, 74, 75
9, 4474, Note_off_c, 7, 74, 0
9, 4476, Note_on_c, 7, 72, 75
9, 4486, Note_off_c, 7, 72, 0
9, 4488, Note_on_c, 7, 74, 75
9, 4498, Note_off_c, 7, 74, 0
9, 4500, Note_on_c, 7, 72, 75
9, 4510, Note_off_c, 7, 72, 0
9, 4512, Note_on_c, 7, 74, 75
9, 4522, Note_off_c, 7, 74, 0
9, 4524, Note_on_c, 7, 72, 75
9, 4534, Note_off_c, 7, 72, 0
9, 4536, Note_on_c, 7, 74, 75
9, 4546, Note_off_c, 7, 74, 0
9, 4548, Note_on_c, 7, 72, 75
9, 4558, Note_off_c, 7, 72, 0
9, 4560, Note_on_c, 7, 74, 75
9, 4570, Note_off_c, 7, 74, 0
9, 4572, Note_on_c, 7, 72, 75
9, 4582, Note_off_c, 7, 72, 0
9, 4584, Note_on_c, 7, 74, 75
9, 4594, Note_off_c, 7, 74, 0
9, 4596, Note_on_c, 7, 72, 75
9, 4606, Note_off_c, 7, 72, 0
9, 4608, Note_on_c, 7, 77, 75
9, 4692, Note_off_c, 7, 77, 0
9, 4704, Note_on_c, 7, 70, 75
9, 4788, Note_off_c, 7, 70, 0
9, 4800, Note_on_c, 7, 67, 75
9, 4884, Note_off_c, 7, 67, 0
9, 4896, Note_on_c, 7, 69, 75
9, 4980, Note_off_c, 7, 69, 0
9, 4992, Note_on_c, 7, 70, 75
9, 5076, Note_off_c, 7, 70, 0
9, 5088, Note_on_c, 7, 74, 75
9, 5268, Note_off_c, 7, 74, 0
9, 5280, Note_on_c, 7, 72, 75
9, 5290, Note_off_c, 7, 72, 0
9, 5292, Note_on_c, 7, 70, 75
9, 5302, Note_off_c, 7, 70, 0
9, 5304, Note_on_c, 7, 72, 75
9, 5314, Note_off_c, 7, 72, 0
9, 5316, Note_on_c, 7, 70, 75
9, 5326, Note_off_c, 7, 70, 0
9, 5328, Note_on_c, 7, 72, 75
9, 5338, Note_off_c, 7, 72, 0
9, 5340, Note_on_c, 7, 70, 75
9, 5350, Note_off_c, 7, 70, 0
9, 5352, Note_on_c, 7, 72, 75
9, 5362, Note_off_c, 7, 72, 0
9, 5364, Note_on_c, 7, 70, 75
9, 5374, Note_off_c, 7, 70, 0
9, 5376, Note_on_c, 7, 69, 75
9, 5418, Note_off_c, 7, 69, 0
9, 5424, Note_on_c, 7, 67, 75
9, 5466, Note_off_c, 7, 67, 0
9, 5472, Note_on_c, 7, 72, 75
9, 5556, Note_off_c, 7, 72, 0
9, 5568, Note_on_c, 7, 70, 75
9, 5578, Note_off_c, 7, 70, 0
9, 5580, Note_on_c, 7, 69, 75
9, 5590, Note_off_c, 7, 69, 0
9, 5592, Note_on_c, 7, 70, 75
9, 5602, Note_off_c, 7, 70, 0
9, 5604, Note_on_c, 7, 69, 75
9, 5614, Note_off_c, 7, 69, 0
9, 5616, Note_on_c, 7, 70, 75
9, 5626, Note_off_c, 7, 70, 0
9, 5628, Note_on_c, 7, 69, 75
9, 5638, Note_off_c, 7, 69, 0
9, 5640, Note_on_c, 7, 70, 75
9, 5650, Note_off_c, 7, 70, 0
9, 5652, Note_on_c, 7, 69, 75
9, 5662, Note_off_c, 7, 69, 0
9, 5664, Note_on_c, 7, 70, 75
9, 5674, Note_off_c, 7, 70, 0
9, 5676, Note_on_c, 7, 69, 75
9, 5686, Note_off_c, 7, 69, 0
9, 5688, Note_on_c, 7, 70, 75
9, 5698, Note_off_c, 7, 70, 0
9, 5700, Note_on_c, 7, 69, 75
9, 5710, Note_off_c, 7, 69, 0
9, 5712, Note_on_c, 7, 70, 75
9, 5722, Note_off_c, 7, 70, 0
9, 5724, Note_on_c, 7, 69, 75
9, 5734, Note_off_c, 7, 69, 0
9, 5736, Note_on_c, 7, 70, 75
9, 5746, Note_off_c, 7, 70, 0
9, 5748, Note_on_c, 7, 69, 75
9, 5758, Note_off_c, 7, 69, 0
9, 5760, Note_on_c, 7, 67, 75
9, 5844, Note_off_c, 7, 67, 0
9, 5856, Note_on_c, 7, 71, 75
9, 5898, Note_off_c, 7, 71, 0
9, 5904, Note_on_c, 7, 72, 75
9, 5946, Note_off_c, 7, 72, 0
9, 5952, Note_on_c, 7, 74, 75
9, 5962, Note_off_c, 7, 74, 0
9, 5964, Note_on_c, 7, 72, 75
9, 5974, Note_off_c, 7, 72, 0
9, 5976, Note_on_c, 7, 74, 75
9, 5986, Note_off_c, 7, 74, 0
9, 5988, Note_on_c, 7, 72, 75
9, 5998, Note_off_c, 7, 72, 0
9, 6000, Note_on_c, 7, 74, 75
9, 6010, Note_off_c, 7, 74, 0
9, 6012, Note_on_c, 7, 72, 75
9, 6022, Note_off_c, 7, 72, 0
9, 6024, Note_on_c, 7, 74, 75
9, 6034, Note_off_c, 7, 74, 0
9, 6036, Note_on_c, 7, 72, 75
9, 6046, Note_off_c, 7, 72, 0
9, 6048, Note_on_c, 7, 74, 75
9, 6058, Note_off_c, 7, 74, 0
9, 6060, Note_on_c, 7, 72, 75
9, 6070, Note_off_c, 7, 72, 0
9, 6072, Note_on_c, 7, 74, 75
9, 6082, Note_off_c, 7, 74, 0
9, 6084, Note_on_c, 7, 72, 75
9, 6094, Note_off_c, 7, 72, 0
9, 6096, Note_on_c, 7, 71, 75
9, 6117, Note_off_c, 7, 71, 0
9, 6120, Note_on_c, 7, 72, 75
9, 6141, Note_off_c, 7, 72, 0
9, 6144, Note_on_c, 7, 74, 75
9, 6228, Note_off_c, 7, 74, 0
9, 6240, Note_on_c, 7, 72, 75
9, 6282, Note_off_c, 7, 72, 0
9, 6288, Note_on_c, 7, 71, 75
9, 6330, Note_off_c, 7, 71, 0
9, 6336, Note_on_c, 7, 72, 75
9, 6420, Note_off_c, 7, 72, 0
9, 6432, Note_on_c, 7, 77, 75
9, 6474, Note_off_c, 7, 77, 0
9, 6480, Note_on_c, 7, 79, 75
9, 6522, Note_off_c, 7, 79, 0
9, 6528, Note_on_c, 7, 74, 75
9, 6660, Note_off_c, 7, 74, 0
9, 6672, Note_on_c, 7, 72, 75
9, 6714, Note_off_c, 7, 72, 0
9, 6720, Note_on_c, 7, 72, 75
9, 6996, Note_off_c, 7, 72, 0
9, 7008, Note_on_c, 7, 79, 75
9, 7092, Note_off_c, 7, 79, 0
9, 7104, Note_on_c, 7, 82, 75
9, 7188, Note_off_c, 7, 82, 0
9, 7200, Note_on_c, 7, 81, 75
9, 7284, Note_off_c, 7, 81, 0
9, 7296, Note_on_c, 7, 79, 75
9, 7380, Note_off_c, 7, 79, 0
9, 7392, Note_on_c, 7, 77, 75
9, 7434, Note_off_c, 7, 77, 0
9, 7440, Note_on_c, 7, 76, 75
9, 7482, Note_off_c, 7, 76, 0
9, 7488, Note_on_c, 7, 77, 75
9, 7572, Note_off_c, 7, 77, 0
9, 7584, Note_on_c, 7, 79, 75
9, 7668, Note_off_c, 7, 79, 0
9, 7680, Note_on_c, 7, 82, 75
9, 7764, Note_off_c, 7, 82, 0
9, 7776, Note_on_c, 7, 81, 75
9, 7860, Note_off_c, 7, 81, 0
9, 7872, Note_on_c, 7, 81, 75
9, 7882, Note_off_c, 7, 81, 0
9, 7884, Note_on_c, 7, 79, 75
9, 7894, Note_off_c, 7, 79, 0
9, 7896, Note_on_c, 7, 81, 75
9, 7906, Note_off_c, 7, 81, 0
9, 7908, Note_on_c, 7, 79, 75
9, 7918, Note_off_c, 7, 79, 0
9, 7920, Note_on_c, 7, 81, 75
9, 7930, Note_off_c, 7, 81, 0
9, 7932, Note_on_c, 7, 79, 75
9, 7942, Note_off_c, 7, 79, 0
9, 7944, Note_on_c, 7, 81, 75
9, 7954, Note_off_c, 7, 81, 0
9, 7956, Note_on_c, 7, 79, 75
9, 7966, Note_off_c, 7, 79, 0
9, 7968, Note_on_c, 7, 81, 75
9, 7978, Note_off_c, 7, 81, 0
9, 7980, Note_on_c, 7, 79, 75
9, 7990, Note_off_c, 7, 79, 0
9, 7992, Note_on_c, 7, 81, 75
9, 8002, Note_off_c, 7, 81, 0
9, 8004, Note_on_c, 7, 79, 75
9, 8014, Note_off_c, 7, 79, 0
9, 8016, Note_on_c, 7, 81, 75
9, 8026, Note_off_c, 7, 81, 0
9, 8028, Note_on_c, 7, 79, 75
9, 8038, Note_off_c, 7, 79, 0
9, 8040, Note_on_c, 7, 81, 75
9, 8050, Note_off_c, 7, 81, 0
9, 8052, Note_on_c, 7, 79, 75
9, 8062, Note_off_c, 7, 79, 0
9, 8064, Note_on_c, 7, 84, 75
9, 8148, Note_off_c, 7, 84, 0
9, 8160, Note_on_c, 7, 77, 75
9, 8244, Note_off_c, 7, 77, 0
9, 8256, Note_on_c, 7, 74, 75
9, 8340, Note_off_c, 7, 74, 0
9, 8352, Note_on_c, 7, 76, 75
9, 8436, Note_off_c, 7, 76, 0
9, 8448, Note_on_c, 7, 77, 75
9, 8532, Note_off_c, 7, 77, 0
9, 8544, Note_on_c, 7, 81, 75
9, 8724, Note_off_c, 7, 81, 0
9, 8736, Note_on_c, 7, 77, 75
9, 8820, Note_off_c, 7, 77, 0
9, 8832, Note_on_c, 7, 76, 75
9, 8874, Note_off_c, 7, 76, 0
9, 8880, Note_on_c, 7, 74, 75
9, 8922, Note_off_c, 7, 74, 0
9, 8928, Note_on_c, 7, 79, 75
9, 9012, Note_off_c, 7, 79, 0
9, 9024, Note_on_c, 7, 76, 75
9, 9156, Note_off_c, 7, 76, 0
9, 9168, Note_on_c, 7, 77, 75
9, 9210, Note_off_c, 7, 77, 0
9, 9216, Note_on_c, 7, 79, 75
9, 9226, Note_off_c, 7, 79, 0
9, 9228, Note_on_c, 7, 77, 75
9, 9238, Note_off_c, 7, 77, 0
9, 9240, Note_on_c, 7, 79, 75
9, 9250, Note_off_c, 7, 79, 0
9, 9252, Note_on_c, 7, 77, 75
9, 9262, Note_off_c, 7, 77, 0
9, 9264, Note_on_c, 7, 79, 75
9, 9274, Note_off_c, 7, 79, 0
9, 9276, Note_on_c, 7, 77, 75
9, 9286, Note_off_c, 7, 77, 0
9, 9288, Note_on_c, 7, 76, 75
9, 9298, Note_off_c, 7, 76, 0
9, 9300, Note_on_c, 7, 77, 75
9, 9310, Note_off_c, 7, 77, 0
9, 9312, Note_on_c, 7, 79, 75
9, 9354, Note_off_c, 7, 79, 0
9, 9360, Note_on_c, 7, 81, 75
9, 9402, Note_off_c, 7, 81, 0
9, 9408, Note_on_c, 7, 82, 75
9, 9418, Note_off_c, 7, 82, 0
9, 9420, Note_on_c, 7, 81, 75
9, 9430, Note_off_c, 7, 81, 0
9, 9432, Note_on_c, 7, 82, 75
9, 9442, Note_off_c, 7, 82, 0
9, 9444, Note_on_c, 7, 81, 75
9, 9454, Note_off_c, 7, 81, 0
9, 9456, Note_on_c, 7, 82, 75
9, 9466, Note_off_c, 7, 82, 0
9, 9468, Note_on_c, 7, 81, 75
9, 9478, Note_off_c, 7, 81, 0
9, 9480, Note_on_c, 7, 82, 75
9, 9490, Note_off_c, 7, 82, 0
9, 9492, Note_on_c, 7, 81, 75
9, 9502, Note_off_c, 7, 81, 0
9, 9504, Note_on_c, 7, 82, 75
9, 9514, Note_off_c, 7, 82, 0
9, 9516, Note_on_c, 7, 81, 75
9, 9526, Note_off_c, 7, 81, 0
9, 9528, Note_on_c, 7, 82, 75
9, 9538, Note_off_c, 7, 82, 0
9, 9540, Note_on_c, 7, 81, 75
9, 9550, Note_off_c, 7, 81, 0
9, 9552, Note_on_c, 7, 79, 75
9, 9573, Note_off_c, 7, 79, 0
9, 9576, Note_on_c, 7, 81, 75
9, 9597, Note_off_c, 7, 81, 0
9, 9600, Note_on_c, 7, 82, 75
9, 9684, Note_off_c, 7, 82, 0
9, 9696, Note_on_c, 7, 81, 75
9, 9738, Note_off_c, 7, 81, 0
9, 9744, Note_on_c, 7, 79, 75
9, 9786, Note_off_c, 7, 79, 0
9, 9792, Note_on_c, 7, 84, 75
9, 9876, Note_off_c, 7, 84, 0
9, 9888, Note_on_c, 7, 77, 75
9, 9930, Note_off_c, 7, 77, 0
9, 9936, Note_on_c, 7, 79, 75
9, 9978, Note_off_c, 7, 79, 0
9, 9984, Note_on_c, 7, 76, 75
9, 10116, Note_off_c, 7, 76, 0
9, 10128, Note_on_c, 7, 77, 75
9, 10170, Note_off_c, 7, 77, 0
9, 10176, Note_on_c, 7, 77, 75
9, 10452, Note_off_c, 7, 77, 0
9, 10464, Note_on_c, 7, 79, 75
9, 10548, Note_off_c, 7, 79, 0
9, 10560, Note_on_c, 7, 82, 75
9, 10644, Note_off_c, 7, 82, 0
9, 10656, Note_on_c, 7, 81, 75
9, 10740, Note_off_c, 7, 81, 0
9, 10752, Note_on_c, 7, 79, 75
9, 10836, Note_off_c, 7, 79, 0
9, 10848, Note_on_c, 7, 77, 75
9, 10890, Note_off_c, 7, 77, 0
9, 10896, Note_on_c, 7, 76, 75
9, 10938, Note_off_c, 7, 76, 0
9, 10944, Note_on_c, 7, 77, 75
9, 11028, Note_off_c, 7, 77, 0
9, 11040, Note_on_c, 7, 79, 75
9, 11124, Note_off_c, 7, 79, 0
9, 11136, Note_on_c, 7, 82, 75
9, 11220, Note_off_c, 7, 82, 0
9, 11232, Note_on_c, 7, 81, 75
9, 11316, Note_off_c, 7, 81, 0
9, 11328, Note_on_c, 7, 81, 75
9, 11338, Note_off_c, 7, 81, 0
9, 11340, Note_on_c, 7, 79, 75
9, 11350, Note_off_c, 7, 79, 0
9, 11352, Note_on_c, 7, 81, 75
9, 11362, Note_off_c, 7, 81, 0
9, 11364, Note_on_c, 7, 79, 75
9, 11374, Note_off_c, 7, 79, 0
9, 11376, Note_on_c, 7, 81, 75
9, 11386, Note_off_c, 7, 81, 0
9, 11388, Note_on_c, 7, 79, 75
9, 11398, Note_off_c, 7, 79, 0
9, 11400, Note_on_c, 7, 81, 75
9, 11410, Note_off_c, 7, 81, 0
9, 11412, Note_on_c, 7, 79, 75
9, 11422, Note_off_c, 7, 79, 0
9, 11424, Note_on_c, 7, 81, 75
9, 11434, Note_off_c, 7, 81, 0
9, 11436, Note_on_c, 7, 79, 75
9, 11446, Note_off_c, 7, 79, 0
9, 11448, Note_on_c, 7, 81, 75
9, 11458, Note_off_c, 7, 81, 0
9, 11460, Note_on_c, 7, 79, 75
9, 11470, Note_off_c, 7, 79, 0
9, 11472, Note_on_c, 7, 81, 75
9, 11482, Note_off_c, 7, 81, 0
9, 11484, Note_on_c, 7, 79, 75
9, 11494, Note_off_c, 7, 79, 0
9, 11496, Note_on_c, 7, 81, 75
9, 11506, Note_off_c, 7, 81, 0
9, 11508, Note_on_c, 7, 79, 75
9, 11518, Note_off_c, 7, 79, 0
9, 11520, Note_on_c, 7, 84, 75
9, 11604, Note_off_c, 7, 84, 0
9, 11616, Note_on_c, 7, 77, 75
9, 11700, Note_off_c, 7, 77, 0
9, 11712, Note_on_c, 7, 74, 75
9, 11796, Note_off_c, 7, 74, 0
9, 11808, Note_on_c, 7, 76, 75
9, 11892, Note_off_c, 7, 76, 0
9, 11904, Note_on_c, 7, 77, 75
9, 11988, Note_off_c, 7, 77, 0
9, 12000, Note_on_c, 7, 81, 75
9, 12180, Note_off_c, 7, 81, 0
9, 12192, Note_on_c, 7, 77, 75
9, 12276, Note_off_c, 7, 77, 0
9, 12288, Note_on_c, 7, 76, 75
9, 12330, Note_off_c, 7, 76, 0
9, 12336, Note_on_c, 7, 74, 75
9, 12378, Note_off_c, 7, 74, 0
9, 12384, Note_on_c, 7, 79, 75
9, 12468, Note_off_c, 7, 79, 0
9, 12480, Note_on_c, 7, 76, 75
9, 12612, Note_off_c, 7, 76, 0
9, 12624, Note_on_c, 7, 77, 75
9, 12666, Note_off_c, 7, 77, 0
9, 12672, Note_on_c, 7, 79, 75
9, 12682, Note_off_c, 7, 79, 0
9, 12684, Note_on_c, 7, 77, 75
9, 12694, Note_off_c, 7, 77, 0
9, 12696, Note_on_c, 7, 79, 75
9, 12706, Note_off_c, 7, 79, 0
9, 12708, Note_on_c, 7, 77, 75
9, 12718, Note_off_c, 7, 77, 0
9, 12720, Note_on_c, 7, 79, 75
9, 12730, Note_off_c, 7, 79, 0
9, 12732, Note_on_c, 7, 77, 75
9, 12742, Note_off_c, 7, 77, 0
9, 12744, Note_on_c, 7, 76, 75
9, 12754, Note_off_c, 7, 76, 0
9, 12756, Note_on_c, 7, 77, 75
9, 12766, Note_off_c, 7, 77, 0
9, 12768, Note_on_c, 7, 79, 75
9, 12810, Note_off_c, 7, 79, 0
9, 12816, Note_on_c, 7, 81, 75
9, 12858, Note_off_c, 7, 81, 0
9, 12864, Note_on_c, 7, 82, 75
9, 12874, Note_off_c, 7, 82, 0
9, 12876, Note_on_c, 7, 81, 75
9, 12886, Note_off_c, 7, 81, 0
9, 12888, Note_on_c, 7, 82, 75
9, 12898, Note_off_c, 7, 82, 0
9, 12900, Note_on_c, 7, 81, 75
9, 12910, Note_off_c, 7, 81, 0
9, 12912, Note_on_c, 7, 82, 75
9, 12922, Note_off_c, 7, 82, 0
9, 12924, Note_on_c, 7, 81, 75
9, 12934, Note_off_c, 7, 81, 0
9, 12936, Note_on_c, 7, 82, 75
9, 12946, Note_off_c, 7, 82, 0
9, 12948, Note_on_c, 7, 81, 75
9, 12958, Note_off_c, 7, 81, 0
9, 12960, Note_on_c, 7, 82, 75
9, 12970, Note_off_c, 7, 82, 0
9, 12972, Note_on_c, 7, 81, 75
9, 12982, Note_off_c, 7, 81, 0
9, 12984, Note_on_c, 7, 82, 75
9, 12994, Note_off_c, 7, 82, 0
9, 12996, Note_on_c, 7, 81, 75
9, 13006, Note_off_c, 7, 81, 0
9, 13008, Note_on_c, 7, 79, 75
9, 13029, Note_off_c, 7, 79, 0
9, 13032, Note_on_c, 7, 81, 75
9, 13053, Note_off_c, 7, 81, 0
9, 13056, Note_on_c, 7, 82, 75
9, 13140, Note_off_c, 7, 82, 0
9, 13152, Note_on_c, 7, 81, 75
9, 13194, Note_off_c, 7, 81, 0
9, 13200, Note_on_c, 7, 79, 75
9, 13242, Note_off_c, 7, 79, 0
9, 13248, Note_on_c, 7, 84, 75
9, 13332, Note_off_c, 7, 84, 0
9, 13344, Note_on_c, 7, 77, 75
9, 13386, Note_off_c, 7, 77, 0
9, 13392, Note_on_c, 7, 79, 75
9, 13434, Note_off_c, 7, 79, 0
9, 13440, Note_on_c, 7, 76, 75
9, 13572, Note_off_c, 7, 76, 0
9, 13584, Note_on_c, 7, 77, 75
9, 13626, Note_off_c, 7, 77, 0
9, 13632, Note_on_c, 7, 77, 75
9, 13908, Note_off_c, 7, 77, 0
9, 14208, Tempo, 500000
9, 16512, Tempo, 500000
9, 30624, Tempo, 428571
9, 30624, Note_on_c, 7, 72, 75
9, 30708, Note_off_c, 7, 72, 0
9, 30720, Note_on_c, 7, 75, 75
9, 30804, Note_off_c, 7, 75, 0
9, 30816, Note_on_c, 7, 74, 75
9, 30900, Note_off_c, 7, 74, 0
9, 30912, Note_on_c, 7, 72, 75
9, 30996, Note_off_c, 7, 72, 0
9, 31008, Note_on_c, 7, 70, 75
9, 31050, Note_off_c, 7, 70, 0
9, 31056, Note_on_c, 7, 69, 75
9, 31098, Note_off_c, 7, 69, 0
9, 31104, Note_on_c, 7, 70, 75
9, 31188, Note_off_c, 7, 70, 0
9, 31200, Note_on_c, 7, 72, 75
9, 31284, Note_off_c, 7, 72, 0
9, 31296, Note_on_c, 7, 75, 75
9, 31380, Note_off_c, 7, 75, 0
9, 31392, Note_on_c, 7, 74, 75
9, 31476, Note_off_c, 7, 74, 0
9, 31488, Note_on_c, 7, 74, 75
9, 31498, Note_off_c, 7, 74, 0
9, 31500, Note_on_c, 7, 72, 75
9, 31510, Note_off_c, 7, 72, 0
9, 31512, Note_on_c, 7, 74, 75
9, 31522, Note_off_c, 7, 74, 0
9, 31524, Note_on_c, 7, 72, 75
9, 31534, Note_off_c, 7, 72, 0
9, 31536, Note_on_c, 7, 74, 75
9, 31546, Note_off_c, 7, 74, 0
9, 31548, Note_on_c, 7, 72, 75
9, 31558, Note_off_c, 7, 72, 0
9, 31560, Note_on_c, 7, 74, 75
9, 31570, Note_off_c, 7, 74, 0
9, 31572, Note_on_c, 7, 72, 75
9, 31582, Note_off_c, 7, 72, 0
9, 31584, Note_on_c, 7, 74, 75
9, 31594, Note_off_c, 7, 74, 0
9, 31596, Note_on_c, 7, 72, 75
9, 31606, Note_off_c, 7, 72, 0
9, 31608, Note_on_c, 7, 74, 75
9, 31618, Note_off_c, 7, 74, 0
9, 31620, Note_on_c, 7, 72, 75
9, 31630, Note_off_c, 7, 72, 0
9, 31632, Note_on_c, 7, 74, 75
9, 31642, Note_off_c, 7, 74, 0
9, 31644, Note_on_c, 7, 72, 75
9, 31654, Note_off_c, 7, 72, 0
9, 31656, Note_on_c, 7, 74, 75
9, 31666, Note_off_c, 7, 74, 0
9, 31668, Note_on_c, 7, 72, 75
9, 31678, Note_off_c, 7, 72, 0
9, 31680, Note_on_c, 7, 77, 75
9, 31764, Note_off_c, 7, 77, 0
9, 31776, Note_on_c, 7, 70, 75
9, 31860, Note_off_c, 7, 70, 0
9, 31872, Note_on_c, 7, 67, 75
9, 31956, Note_off_c, 7, 67, 0
9, 31968, Note_on_c, 7, 69, 75
9, 32052, Note_off_c, 7, 69, 0
9, 32064, Note_on_c, 7, 70, 75
9, 32148, Note_off_c, 7, 70, 0
9, 32160, Note_on_c, 7, 74, 75
9, 32340, Note_off_c, 7, 74, 0
9, 32352, Note_on_c, 7, 72, 75
9, 32362, Note_off_c, 7, 72, 0
9, 32364, Note_on_c, 7, 70, 75
9, 32374, Note_off_c, 7, 70, 0
9, 32376, Note_on_c, 7, 72, 75
9, 32386, Note_off_c, 7, 72, 0
9, 32388, Note_on_c, 7, 70, 75
9, 32398, Note_off_c, 7, 70, 0
9, 32400, Note_on_c, 7, 72, 75
9, 32410, Note_off_c, 7, 72, 0
9, 32412, Note_on_c, 7, 70, 75
9, 32422, Note_off_c, 7, 70, 0
9, 32424, Note_on_c, 7, 72, 75
9, 32434, Note_off_c, 7, 72, 0
9, 32436, Note_on_c, 7, 70, 75
9, 32446, Note_off_c, 7, 70, 0
9, 32448, Note_on_c, 7, 69, 75
9, 32490, Note_off_c, 7, 69, 0
9, 32496, Note_on_c, 7, 67, 75
9, 32538, Note_off_c, 7, 67, 0
9, 32544, Note_on_c, 7, 72, 75
9, 32628, Note_off_c, 7, 72, 0
9, 32640, Note_on_c, 7, 70, 75
9, 32650, Note_off_c, 7, 70, 0
9, 32652, Note_on_c, 7, 69, 75
9, 32662, Note_off_c, 7, 69, 0
9, 32664, Note_on_c, 7, 70, 75
9, 32674, Note_off_c, 7, 70, 0
9, 32676, Note_on_c, 7, 69, 75
9, 32686, Note_off_c, 7, 69, 0
9, 32688, Note_on_c, 7, 70, 75
9, 32698, Note_off_c, 7, 70, 0
9, 32700, Note_on_c, 7, 69, 75
9, 32710, Note_off_c, 7, 69, 0
9, 32712, Note_on_c, 7, 70, 75
9, 32722, Note_off_c, 7, 70, 0
9, 32724, Note_on_c, 7, 69, 75
9, 32734, Note_off_c, 7, 69, 0
9, 32736, Note_on_c, 7, 70, 75
9, 32746, Note_off_c, 7, 70, 0
9, 32748, Note_on_c, 7, 69, 75
9, 32758, Note_off_c, 7, 69, 0
9, 32760, Note_on_c, 7, 70, 75
9, 32770, Note_off_c, 7, 70, 0
9, 32772, Note_on_c, 7, 69, 75
9, 32782, Note_off_c, 7, 69, 0
9, 32784, Note_on_c, 7, 70, 75
9, 32794, Note_off_c, 7, 70, 0
9, 32796, Note_on_c, 7, 69, 75
9, 32806, Note_off_c, 7, 69, 0
9, 32808, Note_on_c, 7, 70, 75
9, 32818, Note_off_c, 7, 70, 0
9, 32820, Note_on_c, 7, 69, 75
9, 32830, Note_off_c, 7, 69, 0
9, 32832, Note_on_c, 7, 67, 75
9, 32916, Note_off_c, 7, 67, 0
9, 32928, Note_on_c, 7, 71, 75
9, 32970, Note_off_c, 7, 71, 0
9, 32976, Note_on_c, 7, 72, 75
9, 33018, Note_off_c, 7, 72, 0
9, 33024, Note_on_c, 7, 74, 75
9, 33034, Note_off_c, 7, 74, 0
9, 33036, Note_on_c, 7, 72, 75
9, 33046, Note_off_c, 7, 72, 0
9, 33048, Note_on_c, 7, 74, 75
9, 33058, Note_off_c, 7, 74, 0
9, 33060, Note_on_c, 7, 72, 75
9, 33070, Note_off_c, 7, 72, 0
9, 33072, Note_on_c, 7, 74, 75
9, 33082, Note_off_c, 7, 74, 0
9, 33084, Note_on_c, 7, 72, 75
9, 33094, Note_off_c, 7, 72, 0
9, 33096, Note_on_c, 7, 74, 75
9, 33106, Note_off_c, 7, 74, 0
9, 33108, Note_on_c, 7, 72, 75
9, 33118, Note_off_c, 7, 72, 0
9, 33120, Note_on_c, 7, 74, 75
9, 33130, Note_off_c, 7, 74, 0
9, 33132, Note_on_c, 7, 72, 75
9, 33142, Note_off_c, 7, 72, 0
9, 33144, Note_on_c, 7, 74, 75
9, 33154, Note_off_c, 7, 74, 0
9, 33156, Note_on_c, 7, 72, 75
9, 33166, Note_off_c, 7, 72, 0
9, 33168, Note_on_c, 7, 71, 75
9, 33189, Note_off_c, 7, 71, 0
9, 33192, Note_on_c, 7, 72, 75
9, 33213, Note_off_c, 7, 72, 0
9, 33216, Note_on_c, 7, 74, 75
9, 33300, Note_off_c, 7, 74, 0
9, 33312, Note_on_c, 7, 72, 75
9, 33354, Note_off_c, 7, 72, 0
9, 33360, Note_on_c, 7, 71, 75
9, 33402, Note_off_c, 7, 71, 0
9, 33408, Note_on_c, 7, 72, 75
9, 33492, Note_off_c, 7, 72, 0
9, 33504, Note_on_c, 7, 77, 75
9, 33546, Note_off_c, 7, 77, 0
9, 33552, Note_on_c, 7, 79, 75
9, 33594, Note_off_c, 7, 79, 0
9, 33600, Note_on_c, 7, 74, 75
9, 33732, Note_off_c, 7, 74, 0
9, 33744, Note_on_c, 7, 72, 75
9, 33786, Note_off_c, 7, 72, 0
9, 33792, Note_on_c, 7, 72, 75
9, 34068, Note_off_c, 7, 72, 0
9, 34080, Note_on_c, 7, 72, 75
9, 34164, Note_off_c, 7, 72, 0
9, 34176, Note_on_c, 7, 75, 75
9, 34260, Note_off_c, 7, 75, 0
9, 34272, Note_on_c, 7, 74, 75
9, 34356, Note_off_c, 7, 74, 0
9, 34368, Note_on_c, 7, 72, 75
9, 34452, Note_off_c, 7, 72, 0
9, 34464, Note_on_c, 7, 70, 75
9, 34506, Note_off_c, 7, 70, 0
9, 34512, Note_on_c, 7, 69, 75
9, 34554, Note_off_c, 7, 69, 0
9, 34560, Note_on_c, 7, 70, 75
9, 34644, Note_off_c, 7, 70, 0
9, 34656, Note_on_c, 7, 72, 75
9, 34740, Note_off_c, 7, 72, 0
9, 34752, Note_on_c, 7, 75, 75
9, 34836, Note_off_c, 7, 75, 0
9, 34848, Note_on_c, 7, 74, 75
9, 34932, Note_off_c, 7, 74, 0
9, 34944, Note_on_c, 7, 74, 75
9, 34954, Note_off_c, 7, 74, 0
9, 34956, Note_on_c, 7, 72, 75
9, 34966, Note_off_c, 7, 72, 0
9, 34968, Note_on_c, 7, 74, 75
9, 34978, Note_off_c, 7, 74, 0
9, 34980, Note_on_c, 7, 72, 75
9, 34990, Note_off_c, 7, 72, 0
9, 34992, Note_on_c, 7, 74, 75
9, 35002, Note_off_c, 7, 74, 0
9, 35004, Note_on_c, 7, 72, 75
9, 35014, Note_off_c, 7, 72, 0
9, 35016, Note_on_c, 7, 74, 75
9, 35026, Note_off_c, 7, 74, 0
9, 35028, Note_on_c, 7, 72, 75
9, 35038, Note_off_c, 7, 72, 0
9, 35040, Note_on_c, 7, 74, 75
9, 35050, Note_off_c, 7, 74, 0
9, 35052, Note_on_c, 7, 72, 75
9, 35062, Note_off_c, 7, 72, 0
9, 35064, Note_on_c, 7, 74, 75
9, 35074, Note_off_c, 7, 74, 0
9, 35076, Note_on_c, 7, 72, 75
9, 35086, Note_off_c, 7, 72, 0
9, 35088, Note_on_c, 7, 74, 75
9, 35098, Note_off_c, 7, 74, 0
9, 35100, Note_on_c, 7, 72, 75
9, 35110, Note_off_c, 7, 72, 0
9, 35112, Note_on_c, 7, 74, 75
9, 35122, Note_off_c, 7, 74, 0
9, 35124, Note_on_c, 7, 72, 75
9, 35134, Note_off_c, 7, 72, 0
9, 35136, Note_on_c, 7, 77, 75
9, 35220, Note_off_c, 7, 77, 0
9, 35232, Note_on_c, 7, 70, 75
9, 35316, Note_off_c, 7, 70, 0
9, 35328, Note_on_c, 7, 67, 75
9, 35412, Note_off_c, 7, 67, 0
9, 35424, Note_on_c, 7, 69, 75
9, 35508, Note_off_c, 7, 69, 0
9, 35520, Note_on_c, 7, 70, 75
9, 35604, Note_off_c, 7, 70, 0
9, 35616, Note_on_c, 7, 74, 75
9, 35796, Note_off_c, 7, 74, 0
9, 35808, Note_on_c, 7, 72, 75
9, 35818, Note_off_c, 7, 72, 0
9, 35820, Note_on_c, 7, 70, 75
9, 35830, Note_off_c, 7, 70, 0
9, 35832, Note_on_c, 7, 72, 75
9, 35842, Note_off_c, 7, 72, 0
9, 35844, Note_on_c, 7, 70, 75
9, 35854, Note_off_c, 7, 70, 0
9, 35856, Note_on_c, 7, 72, 75
9, 35866, Note_off_c, 7, 72, 0
9, 35868, Note_on_c, 7, 70, 75
9, 35878, Note_off_c, 7, 70, 0
9, 35880, Note_on_c, 7, 72, 75
9, 35890, Note_off_c, 7, 72, 0
9, 35892, Note_on_c, 7, 70, 75
9, 35902, Note_off_c, 7, 70, 0
9, 35904, Note_on_c, 7, 69, 75
9, 35946, Note_off_c, 7, 69, 0
9, 35952, Note_on_c, 7, 67, 75
9, 35994, Note_off_c, 7, 67, 0
9, 36000, Note_on_c, 7, 72, 75
9, 36084, Note_off_c, 7, 72, 0
9, 36096, Note_on_c, 7, 70, 75
9, 36106, Note_off_c, 7, 70, 0
9, 36108, Note_on_c, 7, 69, 75
9, 36118, Note_off_c, 7, 69, 0
9, 36120, Note_on_c, 7, 70, 75
9, 36130, Note_off_c, 7, 70, 0
9, 36132, Note_on_c, 7, 69, 75
9, 36142, Note_off_c, 7, 69, 0
9, 36144, Note_on_c, 7, 70, 75
9, 36154, Note_off_c, 7, 70, 0
9, 36156, Note_on_c, 7, 69, 75
9, 36166, Note_off_c, 7, 69, 0
9, 36168, Note_on_c, 7, 70, 75
9, 36178, Note_off_c, 7, 70, 0
9, 36180, Note_on_c, 7, 69, 75
9, 36190, Note_off_c, 7, 69, 0
9, 36192, Note_on_c, 7, 70, 75
9, 36202, Note_off_c, 7, 70, 0
9, 36204, Note_on_c, 7, 69, 75
9, 36214, Note_off_c, 7, 69, 0
9, 36216, Note_on_c, 7, 70, 75
9, 36226, Note_off_c, 7, 70, 0
9, 36228, Note_on_c, 7, 69, 75
9, 36238, Note_off_c, 7, 69, 0
9, 36240, Note_on_c, 7, 70, 75
9, 36250, Note_off_c, 7, 70, 0
9, 36252, Note_on_c, 7, 69, 75
9, 36262, Note_off_c, 7, 69, 0
9, 36264, Note_on_c, 7, 70, 75
9, 36274, Note_off_c, 7, 70, 0
9, 36276, Note_on_c, 7, 69, 75
9, 36286, Note_off_c, 7, 69, 0
9, 36288, Note_on_c, 7, 67, 75
9, 36372, Note_off_c, 7, 67, 0
9, 36384, Note_on_c, 7, 71, 75
9, 36426, Note_off_c, 7, 71, 0
9, 36432, Note_on_c, 7, 72, 75
9, 36474, Note_off_c, 7, 72, 0
9, 36480, Note_on_c, 7, 74, 75
9, 36490, Note_off_c, 7, 74, 0
9, 36492, Note_on_c, 7, 72, 75
9, 36502, Note_off_c, 7, 72, 0
9, 36504, Note_on_c, 7, 74, 75
9, 36514, Note_off_c, 7, 74, 0
9, 36516, Note_on_c, 7, 72, 75
9, 36526, Note_off_c, 7, 72, 0
9, 36528, Note_on_c, 7, 74, 75
9, 36538, Note_off_c, 7, 74, 0
9, 36540, Note_on_c, 7, 72, 75
9, 36550, Note_off_c, 7, 72, 0
9, 36552, Note_on_c, 7, 74, 75
9, 36562, Note_off_c, 7, 74, 0
9, 36564, Note_on_c, 7, 72, 75
9, 36574, Note_off_c, 7, 72, 0
9, 36576, Note_on_c, 7, 74, 75
9, 36586, Note_off_c, 7, 74, 0
9, 36588, Note_on_c, 7, 72, 75
9, 36598, Note_off_c, 7, 72, 0
9, 36600, Note_on_c, 7, 74, 75
9, 36610, Note_off_c, 7, 74, 0
9, 36612, Note_on_c, 7, 72, 75
9, 36622, Note_off_c, 7, 72, 0
9, 36624, Note_on_c, 7, 71, 75
9, 36645, Note_off_c, 7, 71, 0
9, 36648, Note_on_c, 7, 72, 75
9, 36669, Note_off_c, 7, 72, 0
9, 36672, Note_on_c, 7, 74, 75
9, 36756, Note_off_c, 7, 74, 0
9, 36768, Note_on_c, 7, 72, 75
9, 36810, Note_off_c, 7, 72, 0
9, 36816, Note_on_c, 7, 71, 75
9, 36858, Note_off_c, 7, 71, 0
9, 36864, Note_on_c, 7, 72, 75
9, 36948, Note_off_c, 7, 72, 0
9, 36960, Note_on_c, 7, 77, 75
9, 37002, Note_off_c, 7, 77, 0
9, 37008, Note_on_c, 7, 79, 75
9, 37050, Note_off_c, 7, 79, 0
9, 37056, Note_on_c, 7, 74, 75
9, 37188, Note_off_c, 7, 74, 0
9, 37200, Note_on_c, 7, 72, 75
9, 37242, Note_off_c, 7, 72, 0
9, 37248, Note_on_c, 7, 72, 75
9, 37524, Note_off_c, 7, 72, 0
9, 37536, Note_on_c, 7, 79, 75
9, 37620, Note_off_c, 7, 79, 0
9, 37632, Note_on_c, 7, 82, 75
9, 37716, Note_off_c, 7, 82, 0
9, 37728, Note_on_c, 7, 81, 75
9, 37812, Note_off_c, 7, 81, 0
9, 37824, Note_on_c, 7, 79, 75
9, 37908, Note_off_c, 7, 79, 0
9, 37920, Note_on_c, 7, 77, 75
9, 37962, Note_off_c, 7, 77, 0
9, 37968, Note_on_c, 7, 76, 75
9, 38010, Note_off_c, 7, 76, 0
9, 38016, Note_on_c, 7, 77, 75
9, 38100, Note_off_c, 7, 77, 0
9, 38112, Note_on_c, 7, 79, 75
9, 38196, Note_off_c, 7, 79, 0
9, 38208, Note_on_c, 7, 82, 75
9, 38292, Note_off_c, 7, 82, 0
9, 38304, Note_on_c, 7, 81, 75
9, 38388, Note_off_c, 7, 81, 0
9, 38400, Note_on_c, 7, 81, 75
9, 38410, Note_off_c, 7, 81, 0
9, 38412, Note_on_c, 7, 79, 75
9, 38422, Note_off_c, 7, 79, 0
9, 38424, Note_on_c, 7, 81, 75
9, 38434, Note_off_c, 7, 81, 0
9, 38436, Note_on_c, 7, 79, 75
9, 38446, Note_off_c, 7, 79, 0
9, 38448, Note_on_c, 7, 81, 75
9, 38458, Note_off_c, 7, 81, 0
9, 38460, Note_on_c, 7, 79, 75
9, 38470, Note_off_c, 7, 79, 0
9, 38472, Note_on_c, 7, 81, 75
9, 38482, Note_off_c, 7, 81, 0
9, 38484, Note_on_c, 7, 79, 75
9, 38494, Note_off_c, 7, 79, 0
9, 38496, Note_on_c, 7, 81, 75
9, 38506, Note_off_c, 7, 81, 0
9, 38508, Note_on_c, 7, 79, 75
9, 38518, Note_off_c, 7, 79, 0
9, 38520, Note_on_c, 7, 81, 75
9, 38530, Note_off_c, 7, 81, 0
9, 38532, Note_on_c, 7, 79, 75
9, 38542, Note_off_c, 7, 79, 0
9, 38544, Note_on_c, 7, 81, 75
9, 38554, Note_off_c, 7, 81, 0
9, 38556, Note_on_c, 7, 79, 75
9, 38566, Note_off_c, 7, 79, 0
9, 38568, Note_on_c, 7, 81, 75
9, 38578, Note_off_c, 7, 81, 0
9, 38580, Note_on_c, 7, 79, 75
9, 38590, Note_off_c, 7, 79, 0
9, 38592, Note_on_c, 7, 84, 75
9, 38676, Note_off_c, 7, 84, 0
9, 38688, Note_on_c, 7, 77, 75
9, 38772, Note_off_c, 7, 77, 0
9, 38784, Note_on_c, 7, 74, 75
9, 38868, Note_off_c, 7, 74, 0
9, 38880, Note_on_c, 7, 76, 75
9, 38964, Note_off_c, 7, 76, 0
9, 38976, Note_on_c, 7, 77, 75
9, 39060, Note_off_c, 7, 77, 0
9, 39072, Note_on_c, 7, 81, 75
9, 39252, Note_off_c, 7, 81, 0
9, 39264, Note_on_c, 7, 77, 75
9, 39348, Note_off_c, 7, 77, 0
9, 39360, Note_on_c, 7, 76, 75
9, 39402, Note_off_c, 7, 76, 0
9, 39408, Note_on_c, 7, 74, 75
9, 39450, Note_off_c, 7, 74, 0
9, 39456, Note_on_c, 7, 79, 75
9, 39540, Note_off_c, 7, 79, 0
9, 39552, Note_on_c, 7, 76, 75
9, 39684, Note_off_c, 7, 76, 0
9, 39696, Note_on_c, 7, 77, 75
9, 39738, Note_off_c, 7, 77, 0
9, 39744, Note_on_c, 7, 79, 75
9, 39754, Note_off_c, 7, 79, 0
9, 39756, Note_on_c, 7, 77, 75
9, 39766, Note_off_c, 7, 77, 0
9, 39768, Note_on_c, 7, 79, 75
9, 39778, Note_off_c, 7, 79, 0
9, 39780, Note_on_c, 7, 77, 75
9, 39790, Note_off_c, 7, 77, 0
9, 39792, Note_on_c, 7, 79, 75
9, 39802, Note_off_c, 7, 79, 0
9, 39804, Note_on_c, 7, 77, 75
9, 39814, Note_off_c, 7, 77, 0
9, 39816, Note_on_c, 7, 76, 75
9, 39826, Note_off_c, 7, 76, 0
9, 39828, Note_on_c, 7, 77, 75
9, 39838, Note_off_c, 7, 77, 0
9, 39840, Note_on_c, 7, 79, 75
9, 39882, Note_off_c, 7, 79, 0
9, 39888, Note_on_c, 7, 81, 75
9, 39930, Note_off_c, 7, 81, 0
9, 39936, Note_on_c, 7, 82, 75
9, 39946, Note_off_c, 7, 82, 0
9, 39948, Note_on_c, 7, 81, 75
9, 39958, Note_off_c, 7, 81, 0
9, 39960, Note_on_c, 7, 82, 75
9, 39970, Note_off_c, 7, 82, 0
9, 39972, Note_on_c, 7, 81, 75
9, 39982, Note_off_c, 7, 81, 0
9, 39984, Note_on_c, 7, 82, 75
9, 39994, Note_off_c, 7, 82, 0
9, 39996, Note_on_c, 7, 81, 75
9, 40006, Note_off_c, 7, 81, 0
9, 40008, Note_on_c, 7, 82, 75
9, 40018, Note_off_c, 7, 82, 0
9, 40020, Note_on_c, 7, 81, 75
9, 40030, Note_off_c, 7, 81, 0
9, 40032, Note_on_c, 7, 82, 75
9, 40042, Note_off_c, 7, 82, 0
9, 40044, Note_on_c, 7, 81, 75
9, 40054, Note_off_c, 7, 81, 0
9, 40056, Note_on_c, 7, 82, 75
9, 40066, Note_off_c, 7, 82, 0
9, 40068, Note_on_c, 7, 81, 75
9, 40078, Note_off_c, 7, 81, 0
9, 40080, Note_on_c, 7, 79, 75
9, 40101, Note_off_c, 7, 79, 0
9, 40104, Note_on_c, 7, 81, 75
9, 40125, Note_off_c, 7, 81, 0
9, 40128, Note_on_c, 7, 82, 75
9, 40212, Note_off_c, 7, 82, 0
9, 40224, Note_on_c, 7, 81, 75
9, 40266, Note_off_c, 7, 81, 0
9, 40272, Note_on_c, 7, 79, 75
9, 40314, Note_off_c, 7, 79, 0
9, 40320, Note_on_c, 7, 84, 75
9, 40404, Note_off_c, 7, 84, 0
9, 40416, Note_on_c, 7, 77, 75
9, 40458, Note_off_c, 7, 77, 0
9, 40464, Note_on_c, 7, 79, 75
9, 40506, Note_off_c, 7, 79, 0
9, 40512, Note_on_c, 7, 76, 75
9, 40644, Note_off_c, 7, 76, 0
9, 40656, Note_on_c, 7, 77, 75
9, 40698, Note_off_c, 7, 77, 0
9, 40704, Note_on_c, 7, 77, 75
9, 40980, Note_off_c, 7, 77, 0
9, 40992, Note_on_c, 7, 79, 75
9, 41076, Note_off_c, 7, 79, 0
9, 41088, Note_on_c, 7, 82, 75
9, 41172, Note_off_c, 7, 82, 0
9, 41184, Note_on_c, 7, 81, 75
9, 41268, Note_off_c, 7, 81, 0
9, 41280, Note_on_c, 7, 79, 75
9, 41364, Note_off_c, 7, 79, 0
9, 41376, Note_on_c, 7, 77, 75
9, 41418, Note_off_c, 7, 77, 0
9, 41424, Note_on_c, 7, 76, 75
9, 41466, Note_off_c, 7, 76, 0
9, 41472, Note_on_c, 7, 77, 75
9, 41556, Note_off_c, 7, 77, 0
9, 41568, Note_on_c, 7, 79, 75
9, 41652, Note_off_c, 7, 79, 0
9, 41664, Note_on_c, 7, 82, 75
9, 41748, Note_off_c, 7, 82, 0
9, 41760, Note_on_c, 7, 81, 75
9, 41844, Note_off_c, 7, 81, 0
9, 41856, Note_on_c, 7, 81, 75
9, 41866, Note_off_c, 7, 81, 0
9, 41868, Note_on_c, 7, 79, 75
9, 41878, Note_off_c, 7, 79, 0
9, 41880, Note_on_c, 7, 81, 75
9, 41890, Note_off_c, 7, 81, 0
9, 41892, Note_on_c, 7, 79, 75
9, 41902, Note_off_c, 7, 79, 0
9, 41904, Note_on_c, 7, 81, 75
9, 41914, Note_off_c, 7, 81, 0
9, 41916, Note_on_c, 7, 79, 75
9, 41926, Note_off_c, 7, 79, 0
9, 41928, Note_on_c, 7, 81, 75
9, 41938, Note_off_c, 7, 81, 0
9, 41940, Note_on_c, 7, 79, 75
9, 41950, Note_off_c, 7, 79, 0
9, 41952, Note_on_c, 7, 81, 75
9, 41962, Note_off_c, 7, 81, 0
9, 41964, Note_on_c, 7, 79, 75
9, 41974, Note_off_c, 7, 79, 0
9, 41976, Note_on_c, 7, 81, 75
9, 41986, Note_off_c, 7, 81, 0
9, 41988, Note_on_c, 7, 79, 75
9, 41998, Note_off_c, 7, 79, 0
9, 42000, Note_on_c, 7, 81, 75
9, 42010, Note_off_c, 7, 81, 0
9, 42012, Note_on_c, 7, 79, 75
9, 42022, Note_off_c, 7, 79, 0
9, 42024, Note_on_c, 7, 81, 75
9, 42034, Note_off_c, 7, 81, 0
9, 42036, Note_on_c, 7, 79, 75
9, 42046, Note_off_c, 7, 79, 0
9, 42048, Note_on_c, 7, 84, 75
9, 42132, Note_off_c, 7, 84, 0
9, 42144, Note_on_c, 7, 77, 75
9, 42228, Note_off_c, 7, 77, 0
9, 42240, Note_on_c, 7, 74, 75
9, 42324, Note_off_c, 7, 74, 0
9, 42336, Note_on_c, 7, 76, 75
9, 42420, Note_off_c, 7, 76, 0
9, 42432, Note_on_c, 7, 77, 75
9, 42516, Note_off_c, 7, 77, 0
9, 42528, Note_on_c, 7, 81, 75
9, 42708, Note_off_c, 7, 81, 0
9, 42720, Note_on_c, 7, 77, 75
9, 42804, Note_off_c, 7, 77, 0
9, 42816, Note_on_c, 7, 76, 75
9, 42858, Note_off_c, 7, 76, 0
9, 42864, Note_on_c, 7, 74, 75
9, 42906, Note_off_c, 7, 74, 0
9, 42912, Note_on_c, 7, 79, 75
9, 42996, Note_off_c, 7, 79, 0
9, 43008, Note_on_c, 7, 76, 75
9, 43140, Note_off_c, 7, 76, 0
9, 43152, Note_on_c, 7, 77, 75
9, 43194, Note_off_c, 7, 77, 0
9, 43200, Note_on_c, 7, 79, 75
9, 43210, Note_off_c, 7, 79, 0
9, 43212, Note_on_c, 7, 77, 75
9, 43222, Note_off_c, 7, 77, 0
9, 43224, Note_on_c, 7, 79, 75
9, 43234, Note_off_c, 7, 79, 0
9, 43236, Note_on_c, 7, 77, 75
9, 43246, Note_off_c, 7, 77, 0
9, 43248, Note_on_c, 7, 79, 75
9, 43258, Note_off_c, 7, 79, 0
9, 43260, Note_on_c, 7, 77, 75
9, 43270, Note_off_c, 7, 77, 0
9, 43272, Note_on_c, 7, 76, 75
9, 43282, Note_off_c, 7, 76, 0
9, 43284, Note_on_c, 7, 77, 75
9, 43294, Note_off_c, 7, 77, 0
9, 43296, Note_on_c, 7, 79, 75
9, 43338, Note_off_c, 7, 79, 0
9, 43344, Note_on_c, 7, 81, 75
9, 43386, Note_off_c, 7, 81, 0
9, 43392, Note_on_c, 7, 82, 75
9, 43402, Note_off_c, 7, 82, 0
9, 43404, Note_on_c, 7, 81, 75
9, 43414, Note_off_c, 7, 81, 0
9, 43416, Note_on_c, 7, 82, 75
9, 43426, Note_off_c, 7, 82, 0
9, 43428, Note_on_c, 7, 81, 75
9, 43438, Note_off_c, 7, 81, 0
9, 43440, Note_on_c, 7, 82, 75
9, 43450, Note_off_c, 7, 82, 0
9, 43452, Note_on_c, 7, 81, 75
9, 43462, Note_off_c, 7, 81, 0
9, 43464, Note_on_c, 7, 82, 75
9, 43474, Note_off_c, 7, 82, 0
9, 43476, Note_on_c, 7, 81, 75
9, 43486, Note_off_c, 7, 81, 0
9, 43488, Note_on_c, 7, 82, 75
9, 43498, Note_off_c, 7, 82, 0
9, 43500, Note_on_c, 7, 81, 75
9, 43510, Note_off_c, 7, 81, 0
9, 43512, Note_on_c, 7, 82, 75
9, 43522, Note_off_c, 7, 82, 0
9, 43524, Note_on_c, 7, 81, 75
9, 43534, Note_off_c, 7, 81, 0
9, 43536, Note_on_c, 7, 79, 75
9, 43557, Note_off_c, 7, 79, 0
9, 43560, Note_on_c, 7, 81, 75
9, 43581, Note_off_c, 7, 81, 0
9, 43584, Note_on_c, 7, 82, 75
9, 43668, Note_off_c, 7, 82, 0
9, 43680, Note_on_c, 7, 81, 75
9, 43722, Note_off_c, 7, 81, 0
9, 43728, Note_on_c, 7, 79, 75
9, 43770, Note_off_c, 7, 79, 0
9, 43776, Note_on_c, 7, 84, 75
9, 43860, Note_off_c, 7, 84, 0
9, 43872, Note_on_c, 7, 77, 75
9, 43914, Note_off_c, 7, 77, 0
9, 43920, Note_on_c, 7, 79, 75
9, 43962, Note_off_c, 7, 79, 0
9, 43968, Note_on_c, 7, 76, 75
9, 44100, Note_off_c, 7, 76, 0
9, 44112, Note_on_c, 7, 77, 75
9, 44154, Note_off_c, 7, 77, 0
9, 44160, Note_on_c, 7, 77, 75
9, 44436, Note_off_c, 7, 77, 0
9, 44736, Tempo, 1000000
9, 44832, Note_on_c, 7, 60, 75
9, 44874, Note_off_c, 7, 60, 0
9, 44880, Note_on_c, 7, 65, 75
9, 44901, Note_off_c, 7, 65, 0
9, 44904, Note_on_c, 7, 69, 75
9, 44925, Note_off_c, 7, 69, 0
9, 44928, Note_on_c, 7, 67, 75
9, 44949, Note_off_c, 7, 67, 0
9, 44952, Note_on_c, 7, 64, 75
9, 44973, Note_off_c, 7, 64, 0
9, 44976, Note_on_c, 7, 65, 75
9, 44997, Note_off_c, 7, 65, 0
9, 45000, Note_on_c, 7, 60, 75
9, 45021, Note_off_c, 7, 60, 0
9, 45024, Note_on_c, 7, 67, 75
9, 45045, Note_off_c, 7, 67, 0
9, 45048, Note_on_c, 7, 70, 75
9, 45069, Note_off_c, 7, 70, 0
9, 45072, Note_on_c, 7, 69, 75
9, 45093, Note_off_c, 7, 69, 0
9, 45096, Note_on_c, 7, 65, 75
9, 45117, Note_off_c, 7, 65, 0
9, 45120, Note_on_c, 7, 67, 75
9, 45141, Note_off_c, 7, 67, 0
9, 45144, Note_on_c, 7, 60, 75
9, 45165, Note_off_c, 7, 60, 0
9, 45168, Note_on_c, 7, 69, 75
9, 45189, Note_off_c, 7, 69, 0
9, 45192, Note_on_c, 7, 72, 75
9, 45213, Note_off_c, 7, 72, 0
9, 45216, Note_on_c, 7, 70, 75
9, 45237, Note_off_c, 7, 70, 0
9, 45240, Note_on_c, 7, 67, 75
9, 45261, Note_off_c, 7, 67, 0
9, 45264, Note_on_c, 7, 69, 75
9, 45285, Note_off_c, 7, 69, 0
9, 45288, Note_on_c, 7, 65, 75
9, 45309, Note_off_c, 7, 65, 0
9, 45312, Note_on_c, 7, 70, 75
9, 45354, Note_off_c, 7, 70, 0
9, 45360, Note_on_c, 7, 70, 75
9, 45423, Note_off_c, 7, 70, 0
9, 45432, Note_on_c, 7, 67, 75
9, 45453, Note_off_c, 7, 67, 0
9, 45456, Note_on_c, 7, 69, 75
9, 45477, Note_off_c, 7, 69, 0
9, 45480, Note_on_c, 7, 65, 75
9, 45501, Note_off_c, 7, 65, 0
9, 45504, Note_on_c, 7, 72, 75
9, 45567, Note_off_c, 7, 72, 0
9, 45576, Note_on_c, 7, 67, 75
9, 45597, Note_off_c, 7, 67, 0
9, 45600, Note_on_c, 7, 69, 75
9, 45621, Note_off_c, 7, 69, 0
9, 45624, Note_on_c, 7, 65, 75
9, 45645, Note_off_c, 7, 65, 0
9, 45648, Note_on_c, 7, 67, 75
9, 45711, Note_off_c, 7, 67, 0
9, 45720, Note_on_c, 7, 64, 75
9, 45741, Note_off_c, 7, 64, 0
9, 45744, Note_on_c, 7, 65, 75
9, 45765, Note_off_c, 7, 65, 0
9, 45768, Note_on_c, 7, 60, 75
9, 45789, Note_off_c, 7, 60, 0
9, 45792, Note_on_c, 7, 70, 75
9, 45813, Note_off_c, 7, 70, 0
9, 45816, Note_on_c, 7, 67, 75
9, 45837, Note_off_c, 7, 67, 0
9, 45840, Note_on_c, 7, 69, 75
9, 45861, Note_off_c, 7, 69, 0
9, 45864, Note_on_c, 7, 65, 75
9, 45885, Note_off_c, 7, 65, 0
9, 45888, Note_on_c, 7, 67, 75
9, 45930, Note_off_c, 7, 67, 0
9, 45936, Note_on_c, 7, 65, 75
9, 45957, Note_off_c, 7, 65, 0
9, 45960, Note_on_c, 7, 64, 75
9, 45981, Note_off_c, 7, 64, 0
9, 45984, Note_on_c, 7, 62, 75
9, 46005, Note_off_c, 7, 62, 0
9, 46008, Note_on_c, 7, 60, 75
9, 46029, Note_off_c, 7, 60, 0
9, 46032, Note_on_c, 7, 65, 75
9, 46053, Note_off_c, 7, 65, 0
9, 46056, Note_on_c, 7, 69, 75
9, 46077, Note_off_c, 7, 69, 0
9, 46080, Note_on_c, 7, 67, 75
9, 46101, Note_off_c, 7, 67, 0
9, 46104, Note_on_c, 7, 64, 75
9, 46125, Note_off_c, 7, 64, 0
9, 46128, Note_on_c, 7, 65, 75
9, 46149, Note_off_c, 7, 65, 0
9, 46152, Note_on_c, 7, 60, 75
9, 46173, Note_off_c, 7, 60, 0
9, 46176, Note_on_c, 7, 67, 75
9, 46197, Note_off_c, 7, 67, 0
9, 46200, Note_on_c, 7, 70, 75
9, 46221, Note_off_c, 7, 70, 0
9, 46224, Note_on_c, 7, 69, 75
9, 46245, Note_off_c, 7, 69, 0
9, 46248, Note_on_c, 7, 65, 75
9, 46269, Note_off_c, 7, 65, 0
9, 46272, Note_on_c, 7, 67, 75
9, 46293, Note_off_c, 7, 67, 0
9, 46296, Note_on_c, 7, 60, 75
9, 46317, Note_off_c, 7, 60, 0
9, 46320, Note_on_c, 7, 69, 75
9, 46341, Note_off_c, 7, 69, 0
9, 46344, Note_on_c, 7, 72, 75
9, 46365, Note_off_c, 7, 72, 0
9, 46368, Note_on_c, 7, 70, 75
9, 46389, Note_off_c, 7, 70, 0
9, 46392, Note_on_c, 7, 67, 75
9, 46413, Note_off_c, 7, 67, 0
9, 46416, Note_on_c, 7, 69, 75
9, 46437, Note_off_c, 7, 69, 0
9, 46440, Note_on_c, 7, 65, 75
9, 46461, Note_off_c, 7, 65, 0
9, 46464, Note_on_c, 7, 71, 75
9, 46506, Note_off_c, 7, 71, 0
9, 46512, Note_on_c, 7, 71, 75
9, 46575, Note_off_c, 7, 71, 0
9, 46584, Note_on_c, 7, 67, 75
9, 46605, Note_off_c, 7, 67, 0
9, 46608, Note_on_c, 7, 74, 75
9, 46629, Note_off_c, 7, 74, 0
9, 46632, Note_on_c, 7, 71, 75
9, 46653, Note_off_c, 7, 71, 0
9, 46656, Note_on_c, 7, 77, 75
9, 46677, Note_off_c, 7, 77, 0
9, 46680, Note_on_c, 7, 74, 75
9, 46701, Note_off_c, 7, 74, 0
9, 46704, Note_on_c, 7, 76, 75
9, 46725, Note_off_c, 7, 76, 0
9, 46728, Note_on_c, 7, 72, 75
9, 46749, Note_off_c, 7, 72, 0
9, 46752, Note_on_c, 7, 74, 75
9, 46773, Note_off_c, 7, 74, 0
9, 46776, Note_on_c, 7, 71, 75
9, 46797, Note_off_c, 7, 71, 0
9, 46800, Note_on_c, 7, 72, 75
9, 46821, Note_off_c, 7, 72, 0
9, 46824, Note_on_c, 7, 69, 75
9, 46845, Note_off_c, 7, 69, 0
9, 46848, Note_on_c, 7, 71, 75
9, 46869, Note_off_c, 7, 71, 0
9, 46872, Note_on_c, 7, 67, 75
9, 46893, Note_off_c, 7, 67, 0
9, 46896, Note_on_c, 7, 79, 75
9, 46938, Note_off_c, 7, 79, 0
9, 46944, Note_on_c, 7, 77, 75
9, 46965, Note_off_c, 7, 77, 0
9, 46968, Note_on_c, 7, 76, 75
9, 46989, Note_off_c, 7, 76, 0
9, 46992, Note_on_c, 7, 74, 75
9, 47013, Note_off_c, 7, 74, 0
9, 47016, Note_on_c, 7, 72, 75
9, 47037, Note_off_c, 7, 72, 0
9, 47040, Note_on_c, 7, 74, 75
9, 47061, Note_off_c, 7, 74, 0
9, 47064, Note_on_c, 7, 71, 75
9, 47085, Note_off_c, 7, 71, 0
9, 47088, Note_on_c, 7, 72, 75
9, 47119, Note_off_c, 7, 72, 0
9, 47136, Note_on_c, 7, 60, 75
9, 47178, Note_off_c, 7, 60, 0
9, 47184, Note_on_c, 7, 65, 75
9, 47205, Note_off_c, 7, 65, 0
9, 47208, Note_on_c, 7, 69, 75
9, 47229, Note_off_c, 7, 69, 0
9, 47232, Note_on_c, 7, 67, 75
9, 47253, Note_off_c, 7, 67, 0
9, 47256, Note_on_c, 7, 64, 75
9, 47277, Note_off_c, 7, 64, 0
9, 47280, Note_on_c, 7, 65, 75
9, 47301, Note_off_c, 7, 65, 0
9, 47304, Note_on_c, 7, 60, 75
9, 47325, Note_off_c, 7, 60, 0
9, 47328, Note_on_c, 7, 67, 75
9, 47349, Note_off_c, 7, 67, 0
9, 47352, Note_on_c, 7, 70, 75
9, 47373, Note_off_c, 7, 70, 0
9, 47376, Note_on_c, 7, 69, 75
9, 47397, Note_off_c, 7, 69, 0
9, 47400, Note_on_c, 7, 65, 75
9, 47421, Note_off_c, 7, 65, 0
9, 47424, Note_on_c, 7, 67, 75
9, 47445, Note_off_c, 7, 67, 0
9, 47448, Note_on_c, 7, 60, 75
9, 47469, Note_off_c, 7, 60, 0
9, 47472, Note_on_c, 7, 69, 75
9, 47493, Note_off_c, 7, 69, 0
9, 47496, Note_on_c, 7, 72, 75
9, 47517, Note_off_c, 7, 72, 0
9, 47520, Note_on_c, 7, 70, 75
9, 47541, Note_off_c, 7, 70, 0
9, 47544, Note_on_c, 7, 67, 75
9, 47565, Note_off_c, 7, 67, 0
9, 47568, Note_on_c, 7, 69, 75
9, 47589, Note_off_c, 7, 69, 0
9, 47592, Note_on_c, 7, 65, 75
9, 47613, Note_off_c, 7, 65, 0
9, 47616, Note_on_c, 7, 70, 75
9, 47658, Note_off_c, 7, 70, 0
9, 47664, Note_on_c, 7, 70, 75
9, 47727, Note_off_c, 7, 70, 0
9, 47736, Note_on_c, 7, 67, 75
9, 47757, Note_off_c, 7, 67, 0
9, 47760, Note_on_c, 7, 69, 75
9, 47781, Note_off_c, 7, 69, 0
9, 47784, Note_on_c, 7, 65, 75
9, 47805, Note_off_c, 7, 65, 0
9, 47808, Note_on_c, 7, 72, 75
9, 47871, Note_off_c, 7, 72, 0
9, 47880, Note_on_c, 7, 67, 75
9, 47901, Note_off_c, 7, 67, 0
9, 47904, Note_on_c, 7, 69, 75
9, 47925, Note_off_c, 7, 69, 0
9, 47928, Note_on_c, 7, 65, 75
9, 47949, Note_off_c, 7, 65, 0
9, 47952, Note_on_c, 7, 67, 75
9, 48015, Note_off_c, 7, 67, 0
9, 48024, Note_on_c, 7, 64, 75
9, 48045, Note_off_c, 7, 64, 0
9, 48048, Note_on_c, 7, 65, 75
9, 48069, Note_off_c, 7, 65, 0
9, 48072, Note_on_c, 7, 60, 75
9, 48093, Note_off_c, 7, 60, 0
9, 48096, Note_on_c, 7, 70, 75
9, 48117, Note_off_c, 7, 70, 0
9, 48120, Note_on_c, 7, 67, 75
9, 48141, Note_off_c, 7, 67, 0
9, 48144, Note_on_c, 7, 69, 75
9, 48165, Note_off_c, 7, 69, 0
9, 48168, Note_on_c, 7, 65, 75
9, 48189, Note_off_c, 7, 65, 0
9, 48192, Note_on_c, 7, 67, 75
9, 48234, Note_off_c, 7, 67, 0
9, 48240, Note_on_c, 7, 65, 75
9, 48261, Note_off_c, 7, 65, 0
9, 48264, Note_on_c, 7, 64, 75
9, 48285, Note_off_c, 7, 64, 0
9, 48288, Note_on_c, 7, 62, 75
9, 48309, Note_off_c, 7, 62, 0
9, 48312, Note_on_c, 7, 60, 75
9, 48333, Note_off_c, 7, 60, 0
9, 48336, Note_on_c, 7, 65, 75
9, 48357, Note_off_c, 7, 65, 0
9, 48360, Note_on_c, 7, 69, 75
9, 48381, Note_off_c, 7, 69, 0
9, 48384, Note_on_c, 7, 67, 75
9, 48405, Note_off_c, 7, 67, 0
9, 48408, Note_on_c, 7, 64, 75
9, 48429, Note_off_c, 7, 64, 0
9, 48432, Note_on_c, 7, 65, 75
9, 48453, Note_off_c, 7, 65, 0
9, 48456, Note_on_c, 7, 60, 75
9, 48477, Note_off_c, 7, 60, 0
9, 48480, Note_on_c, 7, 67, 75
9, 48501, Note_off_c, 7, 67, 0
9, 48504, Note_on_c, 7, 70, 75
9, 48525, Note_off_c, 7, 70, 0
9, 48528, Note_on_c, 7, 69, 75
9, 48549, Note_off_c, 7, 69, 0
9, 48552, Note_on_c, 7, 65, 75
9, 48573, Note_off_c, 7, 65, 0
9, 48576, Note_on_c, 7, 67, 75
9, 48597, Note_off_c, 7, 67, 0
9, 48600, Note_on_c, 7, 60, 75
9, 48621, Note_off_c, 7, 60, 0
9, 48624, Note_on_c, 7, 69, 75
9, 48645, Note_off_c, 7, 69, 0
9, 48648, Note_on_c, 7, 72, 75
9, 48669, Note_off_c, 7, 72, 0
9, 48672, Note_on_c, 7, 70, 75
9, 48693, Note_off_c, 7, 70, 0
9, 48696, Note_on_c, 7, 67, 75
9, 48717, Note_off_c, 7, 67, 0
9, 48720, Note_on_c, 7, 69, 75
9, 48741, Note_off_c, 7, 69, 0
9, 48744, Note_on_c, 7, 65, 75
9, 48765, Note_off_c, 7, 65, 0
9, 48768, Note_on_c, 7, 71, 75
9, 48810, Note_off_c, 7, 71, 0
9, 48816, Note_on_c, 7, 71, 75
9, 48879, Note_off_c, 7, 71, 0
9, 48888, Note_on_c, 7, 67, 75
9, 48909, Note_off_c, 7, 67, 0
9, 48912, Note_on_c, 7, 74, 75
9, 48933, Note_off_c, 7, 74, 0
9, 48936, Note_on_c, 7, 71, 75
9, 48957, Note_off_c, 7, 71, 0
9, 48960, Note_on_c, 7, 77, 75
9, 48981, Note_off_c, 7, 77, 0
9, 48984, Note_on_c, 7, 74, 75
9, 49005, Note_off_c, 7, 74, 0
9, 49008, Note_on_c, 7, 76, 75
9, 49029, Note_off_c, 7, 76, 0
9, 49032, Note_on_c, 7, 72, 75
9, 49053, Note_off_c, 7, 72, 0
9, 49056, Note_on_c, 7, 74, 75
9, 49077, Note_off_c, 7, 74, 0
9, 49080, Note_on_c, 7, 71, 75
9, 49101, Note_off_c, 7, 71, 0
9, 49104, Note_on_c, 7, 72, 75
9, 49125, Note_off_c, 7, 72, 0
9, 49128, Note_on_c, 7, 69, 75
9, 49149, Note_off_c, 7, 69, 0
9, 49152, Note_on_c, 7, 71, 75
9, 49173, Note_off_c, 7, 71, 0
9, 49176, Note_on_c, 7, 67, 75
9, 49197, Note_off_c, 7, 67, 0
9, 49200, Note_on_c, 7, 79, 75
9, 49242, Note_off_c, 7, 79, 0
9, 49248, Note_on_c, 7, 77, 75
9, 49269, Note_off_c, 7, 77, 0
9, 49272, Note_on_c, 7, 76, 75
9, 49293, Note_off_c, 7, 76, 0
9, 49296, Note_on_c, 7, 74, 75
9, 49317, Note_off_c, 7, 74, 0
9, 49320, Note_on_c, 7, 72, 75
9, 49341, Note_off_c, 7, 72, 0
9, 49344, Note_on_c, 7, 74, 75
9, 49365, Note_off_c, 7, 74, 0
9, 49368, Note_on_c, 7, 71, 75
9, 49389, Note_off_c, 7, 71, 0
9, 49392, Note_on_c, 7, 72, 75
9, 49423, Note_off_c, 7, 72, 0
9, 49440, Note_on_c, 7, 67, 75
9, 49482, Note_off_c, 7, 67, 0
9, 49488, Note_on_c, 7, 72, 75
9, 49509, Note_off_c, 7, 72, 0
9, 49512, Note_on_c, 7, 76, 75
9, 49533, Note_off_c, 7, 76, 0
9, 49536, Note_on_c, 7, 74, 75
9, 49557, Note_off_c, 7, 74, 0
9, 49560, Note_on_c, 7, 71, 75
9, 49581, Note_off_c, 7, 71, 0
9, 49584, Note_on_c, 7, 72, 75
9, 49605, Note_off_c, 7, 72, 0
9, 49608, Note_on_c, 7, 67, 75
9, 49629, Note_off_c, 7, 67, 0
9, 49632, Note_on_c, 7, 74, 75
9, 49653, Note_off_c, 7, 74, 0
9, 49656, Note_on_c, 7, 77, 75
9, 49677, Note_off_c, 7, 77, 0
9, 49680, Note_on_c, 7, 76, 75
9, 49701, Note_off_c, 7, 76, 0
9, 49704, Note_on_c, 7, 72, 75
9, 49725, Note_off_c, 7, 72, 0
9, 49728, Note_on_c, 7, 74, 75
9, 49749, Note_off_c, 7, 74, 0
9, 49752, Note_on_c, 7, 67, 75
9, 49773, Note_off_c, 7, 67, 0
9, 49776, Note_on_c, 7, 76, 75
9, 49797, Note_off_c, 7, 76, 0
9, 49800, Note_on_c, 7, 79, 75
9, 49821, Note_off_c, 7, 79, 0
9, 49824, Note_on_c, 7, 77, 75
9, 49845, Note_off_c, 7, 77, 0
9, 49848, Note_on_c, 7, 74, 75
9, 49869, Note_off_c, 7, 74, 0
9, 49872, Note_on_c, 7, 76, 75
9, 49893, Note_off_c, 7, 76, 0
9, 49896, Note_on_c, 7, 67, 75
9, 49917, Note_off_c, 7, 67, 0
9, 49920, Note_on_c, 7, 82, 75
9, 49962, Note_off_c, 7, 82, 0
9, 49968, Note_on_c, 7, 82, 75
9, 50031, Note_off_c, 7, 82, 0
9, 50040, Note_on_c, 7, 81, 75
9, 50061, Note_off_c, 7, 81, 0
9, 50064, Note_on_c, 7, 79, 75
9, 50085, Note_off_c, 7, 79, 0
9, 50088, Note_on_c, 7, 76, 75
9, 50109, Note_off_c, 7, 76, 0
9, 50112, Note_on_c, 7, 77, 75
9, 50133, Note_off_c, 7, 77, 0
9, 50136, Note_on_c, 7, 74, 75
9, 50157, Note_off_c, 7, 74, 0
9, 50160, Note_on_c, 7, 73, 75
9, 50181, Note_off_c, 7, 73, 0
9, 50184, Note_on_c, 7, 69, 75
9, 50205, Note_off_c, 7, 69, 0
9, 50208, Note_on_c, 7, 70, 75
9, 50229, Note_off_c, 7, 70, 0
9, 50232, Note_on_c, 7, 67, 75
9, 50253, Note_off_c, 7, 67, 0
9, 50256, Note_on_c, 7, 69, 75
9, 50277, Note_off_c, 7, 69, 0
9, 50280, Note_on_c, 7, 65, 75
9, 50301, Note_off_c, 7, 65, 0
9, 50304, Note_on_c, 7, 64, 75
9, 50325, Note_off_c, 7, 64, 0
9, 50328, Note_on_c, 7, 67, 75
9, 50349, Note_off_c, 7, 67, 0
9, 50352, Note_on_c, 7, 65, 75
9, 50373, Note_off_c, 7, 65, 0
9, 50376, Note_on_c, 7, 70, 75
9, 50397, Note_off_c, 7, 70, 0
9, 50400, Note_on_c, 7, 69, 75
9, 50421, Note_off_c, 7, 69, 0
9, 50424, Note_on_c, 7, 74, 75
9, 50445, Note_off_c, 7, 74, 0
9, 50448, Note_on_c, 7, 73, 75
9, 50469, Note_off_c, 7, 73, 0
9, 50472, Note_on_c, 7, 77, 75
9, 50493, Note_off_c, 7, 77, 0
9, 50496, Note_on_c, 7, 76, 75
9, 50517, Note_off_c, 7, 76, 0
9, 50520, Note_on_c, 7, 73, 75
9, 50541, Note_off_c, 7, 73, 0
9, 50544, Note_on_c, 7, 74, 75
9, 50607, Note_off_c, 7, 74, 0
9, 50616, Note_on_c, 7, 77, 75
9, 50637, Note_off_c, 7, 77, 0
9, 50640, Note_on_c, 7, 77, 127
9, 50661, Note_off_c, 7, 77, 0
9, 50664, Note_on_c, 7, 75, 127
9, 50674, Note_off_c, 7, 75, 0
9, 50676, Note_on_c, 7, 74, 127
9, 50686, Note_off_c, 7, 74, 0
9, 50688, Note_on_c, 7, 75, 127
9, 50709, Note_off_c, 7, 75, 0
9, 50712, Note_on_c, 7, 74, 127
9, 50722, Note_off_c, 7, 74, 0
9, 50724, Note_on_c, 7, 72, 127
9, 50734, Note_off_c, 7, 72, 0
9, 50736, Note_on_c, 7, 74, 127
9, 50757, Note_off_c, 7, 74, 0
9, 50760, Note_on_c, 7, 72, 127
9, 50770, Note_off_c, 7, 72, 0
9, 50772, Note_on_c, 7, 70, 127
9, 50782, Note_off_c, 7, 70, 0
9, 50784, Note_on_c, 7, 72, 127
9, 50805, Note_off_c, 7, 72, 0
9, 50808, Note_on_c, 7, 74, 127
9, 50818, Note_off_c, 7, 74, 0
9, 50820, Note_on_c, 7, 75, 127
9, 50830, Note_off_c, 7, 75, 0
9, 50832, Note_on_c, 7, 74, 127
9, 50853, Note_off_c, 7, 74, 0
9, 50856, Note_on_c, 7, 72, 127
9, 50866, Note_off_c, 7, 72, 0
9, 50868, Note_on_c, 7, 70, 127
9, 50878, Note_off_c, 7, 70, 0
9, 50880, Note_on_c, 7, 72, 127
9, 50901, Note_off_c, 7, 72, 0
9, 50904, Note_on_c, 7, 70, 127
9, 50914, Note_off_c, 7, 70, 0
9, 50916, Note_on_c, 7, 69, 127
9, 50926, Note_off_c, 7, 69, 0
9, 50928, Note_on_c, 7, 70, 127
9, 50949, Note_off_c, 7, 70, 0
9, 50952, Note_on_c, 7, 69, 127
9, 50962, Note_off_c, 7, 69, 0
9, 50964, Note_on_c, 7, 67, 127
9, 50974, Note_off_c, 7, 67, 0
9, 50976, Note_on_c, 7, 69, 127
9, 50997, Note_off_c, 7, 69, 0
9, 51000, Note_on_c, 7, 70, 127
9, 51010, Note_off_c, 7, 70, 0
9, 51012, Note_on_c, 7, 72, 127
9, 51022, Note_off_c, 7, 72, 0
9, 51024, Note_on_c, 7, 70, 127
9, 51045, Note_off_c, 7, 70, 0
9, 51048, Note_on_c, 7, 69, 127
9, 51058, Note_off_c, 7, 69, 0
9, 51060, Note_on_c, 7, 67, 127
9, 51070, Note_off_c, 7, 67, 0
9, 51072, Note_on_c, 7, 69, 127
9, 51093, Note_off_c, 7, 69, 0
9, 51096, Note_on_c, 7, 67, 127
9, 51106, Note_off_c, 7, 67, 0
9, 51108, Note_on_c, 7, 65, 127
9, 51118, Note_off_c, 7, 65, 0
9, 51120, Note_on_c, 7, 64, 127
9, 51141, Note_off_c, 7, 64, 0
9, 51144, Note_on_c, 7, 65, 127
9, 51154, Note_off_c, 7, 65, 0
9, 51156, Note_on_c, 7, 67, 127
9, 51166, Note_off_c, 7, 67, 0
9, 51168, Note_on_c, 7, 60, 127
9, 51189, Note_off_c, 7, 60, 0
9, 51192, Note_on_c, 7, 58, 127
9, 51213, Note_off_c, 7, 58, 0
9, 51216, Note_on_c, 7, 57, 75
9, 51237, Note_off_c, 7, 57, 0
9, 51240, Note_on_c, 7, 60, 75
9, 51261, Note_off_c, 7, 60, 0
9, 51264, Note_on_c, 7, 58, 75
9, 51285, Note_off_c, 7, 58, 0
9, 51288, Note_on_c, 7, 55, 75
9, 51309, Note_off_c, 7, 55, 0
9, 51312, Note_on_c, 7, 57, 75
9, 51333, Note_off_c, 7, 57, 0
9, 51336, Note_on_c, 7, 60, 75
9, 51357, Note_off_c, 7, 60, 0
9, 51360, Note_on_c, 7, 65, 75
9, 51381, Note_off_c, 7, 65, 0
9, 51384, Note_on_c, 7, 69, 75
9, 51405, Note_off_c, 7, 69, 0
9, 51408, Note_on_c, 7, 67, 75
9, 51429, Note_off_c, 7, 67, 0
9, 51432, Note_on_c, 7, 64, 75
9, 51453, Note_off_c, 7, 64, 0
9, 51456, Note_on_c, 7, 65, 75
9, 51477, Note_off_c, 7, 65, 0
9, 51480, Note_on_c, 7, 69, 75
9, 51501, Note_off_c, 7, 69, 0
9, 51504, Note_on_c, 7, 72, 75
9, 51546, Note_off_c, 7, 72, 0
9, 51552, Note_on_c, 7, 70, 75
9, 51573, Note_off_c, 7, 70, 0
9, 51576, Note_on_c, 7, 69, 75
9, 51597, Note_off_c, 7, 69, 0
9, 51600, Note_on_c, 7, 67, 75
9, 51621, Note_off_c, 7, 67, 0
9, 51624, Note_on_c, 7, 65, 75
9, 51645, Note_off_c, 7, 65, 0
9, 51648, Note_on_c, 7, 67, 75
9, 51669, Note_off_c, 7, 67, 0
9, 51672, Note_on_c, 7, 64, 75
9, 51693, Note_off_c, 7, 64, 0
9, 51696, Note_on_c, 7, 65, 75
9, 51727, Note_off_c, 7, 65, 0
9, 51744, Note_on_c, 7, 67, 75
9, 51786, Note_off_c, 7, 67, 0
9, 51792, Note_on_c, 7, 72, 75
9, 51813, Note_off_c, 7, 72, 0
9, 51816, Note_on_c, 7, 76, 75
9, 51837, Note_off_c, 7, 76, 0
9, 51840, Note_on_c, 7, 74, 75
9, 51861, Note_off_c, 7, 74, 0
9, 51864, Note_on_c, 7, 71, 75
9, 51885, Note_off_c, 7, 71, 0
9, 51888, Note_on_c, 7, 72, 75
9, 51909, Note_off_c, 7, 72, 0
9, 51912, Note_on_c, 7, 67, 75
9, 51933, Note_off_c, 7, 67, 0
9, 51936, Note_on_c, 7, 74, 75
9, 51957, Note_off_c, 7, 74, 0
9, 51960, Note_on_c, 7, 77, 75
9, 51981, Note_off_c, 7, 77, 0
9, 51984, Note_on_c, 7, 76, 75
9, 52005, Note_off_c, 7, 76, 0
9, 52008, Note_on_c, 7, 72, 75
9, 52029, Note_off_c, 7, 72, 0
9, 52032, Note_on_c, 7, 74, 75
9, 52053, Note_off_c, 7, 74, 0
9, 52056, Note_on_c, 7, 67, 75
9, 52077, Note_off_c, 7, 67, 0
9, 52080, Note_on_c, 7, 76, 75
9, 52101, Note_off_c, 7, 76, 0
9, 52104, Note_on_c, 7, 79, 75
9, 52125, Note_off_c, 7, 79, 0
9, 52128, Note_on_c, 7, 77, 75
9, 52149, Note_off_c, 7, 77, 0
9, 52152, Note_on_c, 7, 74, 75
9, 52173, Note_off_c, 7, 74, 0
9, 52176, Note_on_c, 7, 76, 75
9, 52197, Note_off_c, 7, 76, 0
9, 52200, Note_on_c, 7, 67, 75
9, 52221, Note_off_c, 7, 67, 0
9, 52224, Note_on_c, 7, 82, 75
9, 52266, Note_off_c, 7, 82, 0
9, 52272, Note_on_c, 7, 82, 75
9, 52335, Note_off_c, 7, 82, 0
9, 52344, Note_on_c, 7, 81, 75
9, 52365, Note_off_c, 7, 81, 0
9, 52368, Note_on_c, 7, 79, 75
9, 52389, Note_off_c, 7, 79, 0
9, 52392, Note_on_c, 7, 76, 75
9, 52413, Note_off_c, 7, 76, 0
9, 52416, Note_on_c, 7, 77, 75
9, 52437, Note_off_c, 7, 77, 0
9, 52440, Note_on_c, 7, 74, 75
9, 52461, Note_off_c, 7, 74, 0
9, 52464, Note_on_c, 7, 73, 75
9, 52485, Note_off_c, 7, 73, 0
9, 52488, Note_on_c, 7, 69, 75
9, 52509, Note_off_c, 7, 69, 0
9, 52512, Note_on_c, 7, 70, 75
9, 52533, Note_off_c, 7, 70, 0
9, 52536, Note_on_c, 7, 67, 75
9, 52557, Note_off_c, 7, 67, 0
9, 52560, Note_on_c, 7, 69, 75
9, 52581, Note_off_c, 7, 69, 0
9, 52584, Note_on_c, 7, 65, 75
9, 52605, Note_off_c, 7, 65, 0
9, 52608, Note_on_c, 7, 64, 75
9, 52629, Note_off_c, 7, 64, 0
9, 52632, Note_on_c, 7, 67, 75
9, 52653, Note_off_c, 7, 67, 0
9, 52656, Note_on_c, 7, 65, 75
9, 52677, Note_off_c, 7, 65, 0
9, 52680, Note_on_c, 7, 70, 75
9, 52701, Note_off_c, 7, 70, 0
9, 52704, Note_on_c, 7, 69, 75
9, 52725, Note_off_c, 7, 69, 0
9, 52728, Note_on_c, 7, 74, 75
9, 52749, Note_off_c, 7, 74, 0
9, 52752, Note_on_c, 7, 73, 75
9, 52773, Note_off_c, 7, 73, 0
9, 52776, Note_on_c, 7, 77, 75
9, 52797, Note_off_c, 7, 77, 0
9, 52800, Note_on_c, 7, 76, 75
9, 52821, Note_off_c, 7, 76, 0
9, 52824, Note_on_c, 7, 73, 75
9, 52845, Note_off_c, 7, 73, 0
9, 52848, Note_on_c, 7, 74, 75
9, 52911, Note_off_c, 7, 74, 0
9, 52920, Note_on_c, 7, 77, 75
9, 52941, Note_off_c, 7, 77, 0
9, 52944, Note_on_c, 7, 77, 127
9, 52965, Note_off_c, 7, 77, 0
9, 52968, Note_on_c, 7, 75, 127
9, 52978, Note_off_c, 7, 75, 0
9, 52980, Note_on_c, 7, 74, 127
9, 52990, Note_off_c, 7, 74, 0
9, 52992, Note_on_c, 7, 75, 127
9, 53013, Note_off_c, 7, 75, 0
9, 53016, Note_on_c, 7, 74, 127
9, 53026, Note_off_c, 7, 74, 0
9, 53028, Note_on_c, 7, 72, 127
9, 53038, Note_off_c, 7, 72, 0
9, 53040, Note_on_c, 7, 74, 127
9, 53061, Note_off_c, 7, 74, 0
9, 53064, Note_on_c, 7, 72, 127
9, 53074, Note_off_c, 7, 72, 0
9, 53076, Note_on_c, 7, 70, 127
9, 53086, Note_off_c, 7, 70, 0
9, 53088, Note_on_c, 7, 72, 127
9, 53109, Note_off_c, 7, 72, 0
9, 53112, Note_on_c, 7, 74, 127
9, 53122, Note_off_c, 7, 74, 0
9, 53124, Note_on_c, 7, 75, 127
9, 53134, Note_off_c, 7, 75, 0
9, 53136, Note_on_c, 7, 74, 127
9, 53157, Note_off_c, 7, 74, 0
9, 53160, Note_on_c, 7, 72, 127
9, 53170, Note_off_c, 7, 72, 0
9, 53172, Note_on_c, 7, 70, 127
9, 53182, Note_off_c, 7, 70, 0
9, 53184, Note_on_c, 7, 72, 127
9, 53205, Note_off_c, 7, 72, 0
9, 53208, Note_on_c, 7, 70, 127
9, 53218, Note_off_c, 7, 70, 0
9, 53220, Note_on_c, 7, 69, 127
9, 53230, Note_off_c, 7, 69, 0
9, 53232, Note_on_c, 7, 70, 127
9, 53253, Note_off_c, 7, 70, 0
9, 53256, Note_on_c, 7, 69, 127
9, 53266, Note_off_c, 7, 69, 0
9, 53268, Note_on_c, 7, 67, 127
9, 53278, Note_off_c, 7, 67, 0
9, 53280, Note_on_c, 7, 69, 127
9, 53301, Note_off_c, 7, 69, 0
9, 53304, Note_on_c, 7, 70, 127
9, 53314, Note_off_c, 7, 70, 0
9, 53316, Note_on_c, 7, 72, 127
9, 53326, Note_off_c, 7, 72, 0
9, 53328, Note_on_c, 7, 70, 127
9, 53349, Note_off_c, 7, 70, 0
9, 53352, Note_on_c, 7, 69, 127
9, 53362, Note_off_c, 7, 69, 0
9, 53364, Note_on_c, 7, 67, 127
9, 53374, Note_off_c, 7, 67, 0
9, 53376, Note_on_c, 7, 69, 127
9, 53397, Note_off_c, 7, 69, 0
9, 53400, Note_on_c, 7, 67, 127
9, 53410, Note_off_c, 7, 67, 0
9, 53412, Note_on_c, 7, 65, 127
9, 53422, Note_off_c, 7, 65, 0
9, 53424, Note_on_c, 7, 64, 127
9, 53445, Note_off_c, 7, 64, 0
9, 53448, Note_on_c, 7, 65, 127
9, 53458, Note_off_c, 7, 65, 0
9, 53460, Note_on_c, 7, 67, 127
9, 53470, Note_off_c, 7, 67, 0
9, 53472, Note_on_c, 7, 60, 127
9, 53493, Note_off_c, 7, 60, 0
9, 53496, Note_on_c, 7, 58, 127
9, 53517, Note_off_c, 7, 58, 0
9, 53520, Note_on_c, 7, 57, 75
9, 53541, Note_off_c, 7, 57, 0
9, 53544, Note_on_c, 7, 60, 75
9, 53565, Note_off_c, 7, 60, 0
9, 53568, Note_on_c, 7, 58, 75
9, 53589, Note_off_c, 7, 58, 0
9, 53592, Note_on_c, 7, 55, 75
9, 53613, Note_off_c, 7, 55, 0
9, 53616, Note_on_c, 7, 57, 75
9, 53637, Note_off_c, 7, 57, 0
9, 53640, Note_on_c, 7, 60, 75
9, 53661, Note_off_c, 7, 60, 0
9, 53664, Note_on_c, 7, 65, 75
9, 53685, Note_off_c, 7, 65, 0
9, 53688, Note_on_c, 7, 69, 75
9, 53709, Note_off_c, 7, 69, 0
9, 53712, Note_on_c, 7, 67, 75
9, 53733, Note_off_c, 7, 67, 0
9, 53736, Note_on_c, 7, 64, 75
9, 53757, Note_off_c, 7, 64, 0
9, 53760, Note_on_c, 7, 65, 75
9, 53781, Note_off_c, 7, 65, 0
9, 53784, Note_on_c, 7, 69, 75
9, 53805, Note_off_c, 7, 69, 0
9, 53808, Note_on_c, 7, 72, 75
9, 53850, Note_off_c, 7, 72, 0
9, 53856, Note_on_c, 7, 70, 75
9, 53877, Note_off_c, 7, 70, 0
9, 53880, Note_on_c, 7, 69, 75
9, 53901, Note_off_c, 7, 69, 0
9, 53904, Note_on_c, 7, 67, 75
9, 53925, Note_off_c, 7, 67, 0
9, 53928, Note_on_c, 7, 65, 75
9, 53949, Note_off_c, 7, 65, 0
9, 53952, Note_on_c, 7, 67, 75
9, 53973, Note_off_c, 7, 67, 0
9, 53976, Note_on_c, 7, 64, 75
9, 53985, Note_off_c, 7, 64, 0
9, 54000, Note_on_c, 7, 65, 75
9, 54084, Note_off_c, 7, 65, 0
9, 54084, End_track
10, 0, Start_track
10, 0, Title_t, "Violin II"
10, 0, Control_c, 8, 0, 0
10, 0, Program_c, 8, 40
10, 0, Time_signature, 3, 2, 96, 8
10, 0, Tempo, 1000000
10, 96, Tempo, 428571
10, 96, Note_on_c, 8, 69, 75
10, 180, Note_off_c, 8, 69, 0
10, 192, Note_on_c, 8, 72, 75
10, 276, Note_off_c, 8, 72, 0
10, 288, Note_on_c, 8, 70, 75
10, 372, Note_off_c, 8, 70, 0
10, 384, Note_on_c, 8, 69, 75
10, 468, Note_off_c, 8, 69, 0
10, 480, Note_on_c, 8, 65, 75
10, 564, Note_off_c, 8, 65, 0
10, 576, Note_on_c, 8, 65, 75
10, 660, Note_off_c, 8, 65, 0
10, 672, Note_on_c, 8, 69, 75
10, 756, Note_off_c, 8, 69, 0
10, 768, Note_on_c, 8, 72, 75
10, 852, Note_off_c, 8, 72, 0
10, 864, Note_on_c, 8, 70, 75
10, 948, Note_off_c, 8, 70, 0
10, 960, Note_on_c, 8, 72, 75
10, 1044, Note_off_c, 8, 72, 0
10, 1056, Note_on_c, 8, 70, 75
10, 1140, Note_off_c, 8, 70, 0
10, 1152, Note_on_c, 8, 69, 75
10, 1236, Note_off_c, 8, 69, 0
10, 1248, Note_on_c, 8, 67, 75
10, 1428, Note_off_c, 8, 67, 0
10, 1440, Note_on_c, 8, 65, 75
10, 1524, Note_off_c, 8, 65, 0
10, 1536, Note_on_c, 8, 64, 75
10, 1578, Note_off_c, 8, 64, 0
10, 1584, Note_on_c, 8, 65, 75
10, 1626, Note_off_c, 8, 65, 0
10, 1632, Note_on_c, 8, 67, 75
10, 1642, Note_off_c, 8, 67, 0
10, 1644, Note_on_c, 8, 65, 75
10, 1654, Note_off_c, 8, 65, 0
10, 1656, Note_on_c, 8, 67, 75
10, 1666, Note_off_c, 8, 67, 0
10, 1668, Note_on_c, 8, 65, 75
10, 1678, Note_off_c, 8, 65, 0
10, 1680, Note_on_c, 8, 67, 75
10, 1690, Note_off_c, 8, 67, 0
10, 1692, Note_on_c, 8, 65, 75
10, 1702, Note_off_c, 8, 65, 0
10, 1704, Note_on_c, 8, 67, 75
10, 1714, Note_off_c, 8, 67, 0
10, 1716, Note_on_c, 8, 65, 75
10, 1726, Note_off_c, 8, 65, 0
10, 1728, Note_on_c, 8, 67, 75
10, 1738, Note_off_c, 8, 67, 0
10, 1740, Note_on_c, 8, 65, 75
10, 1750, Note_off_c, 8, 65, 0
10, 1752, Note_on_c, 8, 67, 75
10, 1762, Note_off_c, 8, 67, 0
10, 1764, Note_on_c, 8, 65, 75
10, 1774, Note_off_c, 8, 65, 0
10, 1776, Note_on_c, 8, 64, 75
10, 1797, Note_off_c, 8, 64, 0
10, 1800, Note_on_c, 8, 65, 75
10, 1821, Note_off_c, 8, 65, 0
10, 1824, Note_on_c, 8, 67, 75
10, 1908, Note_off_c, 8, 67, 0
10, 1920, Note_on_c, 8, 65, 75
10, 2004, Note_off_c, 8, 65, 0
10, 2016, Note_on_c, 8, 64, 75
10, 2100, Note_off_c, 8, 64, 0
10, 2112, Note_on_c, 8, 65, 75
10, 2292, Note_off_c, 8, 65, 0
10, 2304, Note_on_c, 8, 67, 75
10, 2388, Note_off_c, 8, 67, 0
10, 2400, Note_on_c, 8, 65, 75
10, 2484, Note_off_c, 8, 65, 0
10, 2496, Note_on_c, 8, 67, 75
10, 2676, Note_off_c, 8, 67, 0
10, 2688, Note_on_c, 8, 67, 75
10, 2868, Note_off_c, 8, 67, 0
10, 2880, Note_on_c, 8, 67, 75
10, 2964, Note_off_c, 8, 67, 0
10, 2976, Note_on_c, 8, 69, 75
10, 3018, Note_off_c, 8, 69, 0
10, 3024, Note_on_c, 8, 71, 75
10, 3066, Note_off_c, 8, 71, 0
10, 3072, Note_on_c, 8, 71, 75
10, 3204, Note_off_c, 8, 71, 0
10, 3216, Note_on_c, 8, 67, 75
10, 3258, Note_off_c, 8, 67, 0
10, 3264, Note_on_c, 8, 67, 75
10, 3540, Note_off_c, 8, 67, 0
10, 3552, Note_on_c, 8, 69, 75
10, 3636, Note_off_c, 8, 69, 0
10, 3648, Note_on_c, 8, 72, 75
10, 3732, Note_off_c, 8, 72, 0
10, 3744, Note_on_c, 8, 70, 75
10, 3828, Note_off_c, 8, 70, 0
10, 3840, Note_on_c, 8, 69, 75
10, 3924, Note_off_c, 8, 69, 0
10, 3936, Note_on_c, 8, 65, 75
10, 4020, Note_off_c, 8, 65, 0
10, 4032, Note_on_c, 8, 65, 75
10, 4116, Note_off_c, 8, 65, 0
10, 4128, Note_on_c, 8, 69, 75
10, 4212, Note_off_c, 8, 69, 0
10, 4224, Note_on_c, 8, 72, 75
10, 4308, Note_off_c, 8, 72, 0
10, 4320, Note_on_c, 8, 70, 75
10, 4404, Note_off_c, 8, 70, 0
10, 4416, Note_on_c, 8, 72, 75
10, 4500, Note_off_c, 8, 72, 0
10, 4512, Note_on_c, 8, 70, 75
10, 4596, Note_off_c, 8, 70, 0
10, 4608, Note_on_c, 8, 69, 75
10, 4692, Note_off_c, 8, 69, 0
10, 4704, Note_on_c, 8, 67, 75
10, 4884, Note_off_c, 8, 67, 0
10, 4896, Note_on_c, 8, 65, 75
10, 4980, Note_off_c, 8, 65, 0
10, 4992, Note_on_c, 8, 64, 75
10, 5034, Note_off_c, 8, 64, 0
10, 5040, Note_on_c, 8, 65, 75
10, 5082, Note_off_c, 8, 65, 0
10, 5088, Note_on_c, 8, 67, 75
10, 5098, Note_off_c, 8, 67, 0
10, 5100, Note_on_c, 8, 65, 75
10, 5110, Note_off_c, 8, 65, 0
10, 5112, Note_on_c, 8, 67, 75
10, 5122, Note_off_c, 8, 67, 0
10, 5124, Note_on_c, 8, 65, 75
10, 5134, Note_off_c, 8, 65, 0
10, 5136, Note_on_c, 8, 67, 75
10, 5146, Note_off_c, 8, 67, 0
10, 5148, Note_on_c, 8, 65, 75
10, 5158, Note_off_c, 8, 65, 0
10, 5160, Note_on_c, 8, 67, 75
10, 5170, Note_off_c, 8, 67, 0
10, 5172, Note_on_c, 8, 65, 75
10, 5182, Note_off_c, 8, 65, 0
10, 5184, Note_on_c, 8, 67, 75
10, 5194, Note_off_c, 8, 67, 0
10, 5196, Note_on_c, 8, 65, 75
10, 5206, Note_off_c, 8, 65, 0
10, 5208, Note_on_c, 8, 67, 75
10, 5218, Note_off_c, 8, 67, 0
10, 5220, Note_on_c, 8, 65, 75
10, 5230, Note_off_c, 8, 65, 0
10, 5232, Note_on_c, 8, 64, 75
10, 5253, Note_off_c, 8, 64, 0
10, 5256, Note_on_c, 8, 65, 75
10, 5277, Note_off_c, 8, 65, 0
10, 5280, Note_on_c, 8, 67, 75
10, 5364, Note_off_c, 8, 67, 0
10, 5376, Note_on_c, 8, 65, 75
10, 5460, Note_off_c, 8, 65, 0
10, 5472, Note_on_c, 8, 64, 75
10, 5556, Note_off_c, 8, 64, 0
10, 5568, Note_on_c, 8, 65, 75
10, 5748, Note_off_c, 8, 65, 0
10, 5760, Note_on_c, 8, 67, 75
10, 5844, Note_off_c, 8, 67, 0
10, 5856, Note_on_c, 8, 65, 75
10, 5940, Note_off_c, 8, 65, 0
10, 5952, Note_on_c, 8, 67, 75
10, 6132, Note_off_c, 8, 67, 0
10, 6144, Note_on_c, 8, 67, 75
10, 6324, Note_off_c, 8, 67, 0
10, 6336, Note_on_c, 8, 67, 75
10, 6420, Note_off_c, 8, 67, 0
10, 6432, Note_on_c, 8, 69, 75
10, 6474, Note_off_c, 8, 69, 0
10, 6480, Note_on_c, 8, 71, 75
10, 6522, Note_off_c, 8, 71, 0
10, 6528, Note_on_c, 8, 71, 75
10, 6660, Note_off_c, 8, 71, 0
10, 6672, Note_on_c, 8, 67, 75
10, 6714, Note_off_c, 8, 67, 0
10, 6720, Note_on_c, 8, 67, 75
10, 6996, Note_off_c, 8, 67, 0
10, 7008, Note_on_c, 8, 72, 75
10, 7092, Note_off_c, 8, 72, 0
10, 7104, Note_on_c, 8, 79, 75
10, 7188, Note_off_c, 8, 79, 0
10, 7200, Note_on_c, 8, 77, 75
10, 7284, Note_off_c, 8, 77, 0
10, 7296, Note_on_c, 8, 76, 75
10, 7380, Note_off_c, 8, 76, 0
10, 7392, Note_on_c, 8, 72, 75
10, 7476, Note_off_c, 8, 72, 0
10, 7488, Note_on_c, 8, 72, 75
10, 7572, Note_off_c, 8, 72, 0
10, 7584, Note_on_c, 8, 76, 75
10, 7668, Note_off_c, 8, 76, 0
10, 7680, Note_on_c, 8, 79, 75
10, 7764, Note_off_c, 8, 79, 0
10, 7776, Note_on_c, 8, 77, 75
10, 7860, Note_off_c, 8, 77, 0
10, 7872, Note_on_c, 8, 79, 75
10, 7956, Note_off_c, 8, 79, 0
10, 7968, Note_on_c, 8, 77, 75
10, 8052, Note_off_c, 8, 77, 0
10, 8064, Note_on_c, 8, 76, 75
10, 8148, Note_off_c, 8, 76, 0
10, 8160, Note_on_c, 8, 74, 75
10, 8340, Note_off_c, 8, 74, 0
10, 8352, Note_on_c, 8, 72, 75
10, 8436, Note_off_c, 8, 72, 0
10, 8448, Note_on_c, 8, 71, 75
10, 8490, Note_off_c, 8, 71, 0
10, 8496, Note_on_c, 8, 72, 75
10, 8538, Note_off_c, 8, 72, 0
10, 8544, Note_on_c, 8, 74, 75
10, 8554, Note_off_c, 8, 74, 0
10, 8556, Note_on_c, 8, 72, 75
10, 8566, Note_off_c, 8, 72, 0
10, 8568, Note_on_c, 8, 74, 75
10, 8578, Note_off_c, 8, 74, 0
10, 8580, Note_on_c, 8, 72, 75
10, 8590, Note_off_c, 8, 72, 0
10, 8592, Note_on_c, 8, 74, 75
10, 8602, Note_off_c, 8, 74, 0
10, 8604, Note_on_c, 8, 72, 75
10, 8614, Note_off_c, 8, 72, 0
10, 8616, Note_on_c, 8, 74, 75
10, 8626, Note_off_c, 8, 74, 0
10, 8628, Note_on_c, 8, 72, 75
10, 8638, Note_off_c, 8, 72, 0
10, 8640, Note_on_c, 8, 74, 75
10, 8650, Note_off_c, 8, 74, 0
10, 8652, Note_on_c, 8, 72, 75
10, 8662, Note_off_c, 8, 72, 0
10, 8664, Note_on_c, 8, 74, 75
10, 8674, Note_off_c, 8, 74, 0
10, 8676, Note_on_c, 8, 72, 75
10, 8686, Note_off_c, 8, 72, 0
10, 8688, Note_on_c, 8, 71, 75
10, 8709, Note_off_c, 8, 71, 0
10, 8712, Note_on_c, 8, 72, 75
10, 8733, Note_off_c, 8, 72, 0
10, 8736, Note_on_c, 8, 74, 75
10, 8820, Note_off_c, 8, 74, 0
10, 8832, Note_on_c, 8, 72, 75
10, 8916, Note_off_c, 8, 72, 0
10, 8928, Note_on_c, 8, 71, 75
10, 9012, Note_off_c, 8, 71, 0
10, 9024, Note_on_c, 8, 72, 75
10, 9300, Note_off_c, 8, 72, 0
10, 9312, Note_on_c, 8, 72, 75
10, 9492, Note_off_c, 8, 72, 0
10, 9504, Note_on_c, 8, 77, 75
10, 9588, Note_off_c, 8, 77, 0
10, 9600, Note_on_c, 8, 76, 75
10, 9684, Note_off_c, 8, 76, 0
10, 9696, Note_on_c, 8, 77, 75
10, 9780, Note_off_c, 8, 77, 0
10, 9792, Note_on_c, 8, 79, 75
10, 9876, Note_off_c, 8, 79, 0
10, 9888, Note_on_c, 8, 74, 75
10, 9972, Note_off_c, 8, 74, 0
10, 9984, Note_on_c, 8, 74, 75
10, 9994, Note_off_c, 8, 74, 0
10, 9996, Note_on_c, 8, 72, 75
10, 10006, Note_off_c, 8, 72, 0
10, 10008, Note_on_c, 8, 74, 75
10, 10018, Note_off_c, 8, 74, 0
10, 10020, Note_on_c, 8, 72, 75
10, 10030, Note_off_c, 8, 72, 0
10, 10032, Note_on_c, 8, 74, 75
10, 10042, Note_off_c, 8, 74, 0
10, 10044, Note_on_c, 8, 72, 75
10, 10054, Note_off_c, 8, 72, 0
10, 10056, Note_on_c, 8, 74, 75
10, 10066, Note_off_c, 8, 74, 0
10, 10068, Note_on_c, 8, 72, 75
10, 10078, Note_off_c, 8, 72, 0
10, 10080, Note_on_c, 8, 74, 75
10, 10090, Note_off_c, 8, 74, 0
10, 10092, Note_on_c, 8, 72, 75
10, 10102, Note_off_c, 8, 72, 0
10, 10104, Note_on_c, 8, 74, 75
10, 10114, Note_off_c, 8, 74, 0
10, 10116, Note_on_c, 8, 72, 75
10, 10126, Note_off_c, 8, 72, 0
10, 10128, Note_on_c, 8, 72, 75
10, 10170, Note_off_c, 8, 72, 0
10, 10176, Note_on_c, 8, 72, 75
10, 10356, Note_off_c, 8, 72, 0
10, 10464, Note_on_c, 8, 72, 75
10, 10548, Note_off_c, 8, 72, 0
10, 10560, Note_on_c, 8, 79, 75
10, 10644, Note_off_c, 8, 79, 0
10, 10656, Note_on_c, 8, 77, 75
10, 10740, Note_off_c, 8, 77, 0
10, 10752, Note_on_c, 8, 76, 75
10, 10836, Note_off_c, 8, 76, 0
10, 10848, Note_on_c, 8, 72, 75
10, 10932, Note_off_c, 8, 72, 0
10, 10944, Note_on_c, 8, 72, 75
10, 11028, Note_off_c, 8, 72, 0
10, 11040, Note_on_c, 8, 76, 75
10, 11124, Note_off_c, 8, 76, 0
10, 11136, Note_on_c, 8, 79, 75
10, 11220, Note_off_c, 8, 79, 0
10, 11232, Note_on_c, 8, 77, 75
10, 11316, Note_off_c, 8, 77, 0
10, 11328, Note_on_c, 8, 79, 75
10, 11412, Note_off_c, 8, 79, 0
10, 11424, Note_on_c, 8, 77, 75
10, 11508, Note_off_c, 8, 77, 0
10, 11520, Note_on_c, 8, 76, 75
10, 11604, Note_off_c, 8, 76, 0
10, 11616, Note_on_c, 8, 74, 75
10, 11796, Note_off_c, 8, 74, 0
10, 11808, Note_on_c, 8, 72, 75
10, 11892, Note_off_c, 8, 72, 0
10, 11904, Note_on_c, 8, 71, 75
10, 11946, Note_off_c, 8, 71, 0
10, 11952, Note_on_c, 8, 72, 75
10, 11994, Note_off_c, 8, 72, 0
10, 12000, Note_on_c, 8, 74, 75
10, 12010, Note_off_c, 8, 74, 0
10, 12012, Note_on_c, 8, 72, 75
10, 12022, Note_off_c, 8, 72, 0
10, 12024, Note_on_c, 8, 74, 75
10, 12034, Note_off_c, 8, 74, 0
10, 12036, Note_on_c, 8, 72, 75
10, 12046, Note_off_c, 8, 72, 0
10, 12048, Note_on_c, 8, 74, 75
10, 12058, Note_off_c, 8, 74, 0
10, 12060, Note_on_c, 8, 72, 75
10, 12070, Note_off_c, 8, 72, 0
10, 12072, Note_on_c, 8, 74, 75
10, 12082, Note_off_c, 8, 74, 0
10, 12084, Note_on_c, 8, 72, 75
10, 12094, Note_off_c, 8, 72, 0
10, 12096, Note_on_c, 8, 74, 75
10, 12106, Note_off_c, 8, 74, 0
10, 12108, Note_on_c, 8, 72, 75
10, 12118, Note_off_c, 8, 72, 0
10, 12120, Note_on_c, 8, 74, 75
10, 12130, Note_off_c, 8, 74, 0
10, 12132, Note_on_c, 8, 72, 75
10, 12142, Note_off_c, 8, 72, 0
10, 12144, Note_on_c, 8, 71, 75
10, 12165, Note_off_c, 8, 71, 0
10, 12168, Note_on_c, 8, 72, 75
10, 12189, Note_off_c, 8, 72, 0
10, 12192, Note_on_c, 8, 74, 75
10, 12276, Note_off_c, 8, 74, 0
10, 12288, Note_on_c, 8, 72, 75
10, 12372, Note_off_c, 8, 72, 0
10, 12384, Note_on_c, 8, 71, 75
10, 12468, Note_off_c, 8, 71, 0
10, 12480, Note_on_c, 8, 72, 75
10, 12756, Note_off_c, 8, 72, 0
10, 12768, Note_on_c, 8, 72, 75
10, 12948, Note_off_c, 8, 72, 0
10, 12960, Note_on_c, 8, 77, 75
10, 13044, Note_off_c, 8, 77, 0
10, 13056, Note_on_c, 8, 76, 75
10, 13140, Note_off_c, 8, 76, 0
10, 13152, Note_on_c, 8, 77, 75
10, 13236, Note_off_c, 8, 77, 0
10, 13248, Note_on_c, 8, 79, 75
10, 13332, Note_off_c, 8, 79, 0
10, 13344, Note_on_c, 8, 74, 75
10, 13428, Note_off_c, 8, 74, 0
10, 13440, Note_on_c, 8, 74, 75
10, 13450, Note_off_c, 8, 74, 0
10, 13452, Note_on_c, 8, 72, 75
10, 13462, Note_off_c, 8, 72, 0
10, 13464, Note_on_c, 8, 74, 75
10, 13474, Note_off_c, 8, 74, 0
10, 13476, Note_on_c, 8, 72, 75
10, 13486, Note_off_c, 8, 72, 0
10, 13488, Note_on_c, 8, 74, 75
10, 13498, Note_off_c, 8, 74, 0
10, 13500, Note_on_c, 8, 72, 75
10, 13510, Note_off_c, 8, 72, 0
10, 13512, Note_on_c, 8, 74, 75
10, 13522, Note_off_c, 8, 74, 0
10, 13524, Note_on_c, 8, 72, 75
10, 13534, Note_off_c, 8, 72, 0
10, 13536, Note_on_c, 8, 74, 75
10, 13546, Note_off_c, 8, 74, 0
10, 13548, Note_on_c, 8, 72, 75
10, 13558, Note_off_c, 8, 72, 0
10, 13560, Note_on_c, 8, 74, 75
10, 13570, Note_off_c, 8, 74, 0
10, 13572, Note_on_c, 8, 72, 75
10, 13582, Note_off_c, 8, 72, 0
10, 13584, Note_on_c, 8, 72, 75
10, 13626, Note_off_c, 8, 72, 0
10, 13632, Note_on_c, 8, 72, 75
10, 13812, Note_off_c, 8, 72, 0
10, 14208, Tempo, 500000
10, 16512, Tempo, 500000
10, 30624, Tempo, 428571
10, 30624, Note_on_c, 8, 69, 75
10, 30708, Note_off_c, 8, 69, 0
10, 30720, Note_on_c, 8, 72, 75
10, 30804, Note_off_c, 8, 72, 0
10, 30816, Note_on_c, 8, 70, 75
10, 30900, Note_off_c, 8, 70, 0
10, 30912, Note_on_c, 8, 69, 75
10, 30996, Note_off_c, 8, 69, 0
10, 31008, Note_on_c, 8, 65, 75
10, 31092, Note_off_c, 8, 65, 0
10, 31104, Note_on_c, 8, 65, 75
10, 31188, Note_off_c, 8, 65, 0
10, 31200, Note_on_c, 8, 69, 75
10, 31284, Note_off_c, 8, 69, 0
10, 31296, Note_on_c, 8, 72, 75
10, 31380, Note_off_c, 8, 72, 0
10, 31392, Note_on_c, 8, 70, 75
10, 31476, Note_off_c, 8, 70, 0
10, 31488, Note_on_c, 8, 72, 75
10, 31572, Note_off_c, 8, 72, 0
10, 31584, Note_on_c, 8, 70, 75
10, 31668, Note_off_c, 8, 70, 0
10, 31680, Note_on_c, 8, 69, 75
10, 31764, Note_off_c, 8, 69, 0
10, 31776, Note_on_c, 8, 67, 75
10, 31956, Note_off_c, 8, 67, 0
10, 31968, Note_on_c, 8, 65, 75
10, 32052, Note_off_c, 8, 65, 0
10, 32064, Note_on_c, 8, 64, 75
10, 32106, Note_off_c, 8, 64, 0
10, 32112, Note_on_c, 8, 65, 75
10, 32154, Note_off_c, 8, 65, 0
10, 32160, Note_on_c, 8, 67, 75
10, 32170, Note_off_c, 8, 67, 0
10, 32172, Note_on_c, 8, 65, 75
10, 32182, Note_off_c, 8, 65, 0
10, 32184, Note_on_c, 8, 67, 75
10, 32194, Note_off_c, 8, 67, 0
10, 32196, Note_on_c, 8, 65, 75
10, 32206, Note_off_c, 8, 65, 0
10, 32208, Note_on_c, 8, 67, 75
10, 32218, Note_off_c, 8, 67, 0
10, 32220, Note_on_c, 8, 65, 75
10, 32230, Note_off_c, 8, 65, 0
10, 32232, Note_on_c, 8, 67, 75
10, 32242, Note_off_c, 8, 67, 0
10, 32244, Note_on_c, 8, 65, 75
10, 32254, Note_off_c, 8, 65, 0
10, 32256, Note_on_c, 8, 67, 75
10, 32266, Note_off_c, 8, 67, 0
10, 32268, Note_on_c, 8, 65, 75
10, 32278, Note_off_c, 8, 65, 0
10, 32280, Note_on_c, 8, 67, 75
10, 32290, Note_off_c, 8, 67, 0
10, 32292, Note_on_c, 8, 65, 75
10, 32302, Note_off_c, 8, 65, 0
10, 32304, Note_on_c, 8, 64, 75
10, 32325, Note_off_c, 8, 64, 0
10, 32328, Note_on_c, 8, 65, 75
10, 32349, Note_off_c, 8, 65, 0
10, 32352, Note_on_c, 8, 67, 75
10, 32436, Note_off_c, 8, 67, 0
10, 32448, Note_on_c, 8, 65, 75
10, 32532, Note_off_c, 8, 65, 0
10, 32544, Note_on_c, 8, 64, 75
10, 32628, Note_off_c, 8, 64, 0
10, 32640, Note_on_c, 8, 65, 75
10, 32820, Note_off_c, 8, 65, 0
10, 32832, Note_on_c, 8, 67, 75
10, 32916, Note_off_c, 8, 67, 0
10, 32928, Note_on_c, 8, 65, 75
10, 33012, Note_off_c, 8, 65, 0
10, 33024, Note_on_c, 8, 67, 75
10, 33204, Note_off_c, 8, 67, 0
10, 33216, Note_on_c, 8, 67, 75
10, 33396, Note_off_c, 8, 67, 0
10, 33408, Note_on_c, 8, 67, 75
10, 33492, Note_off_c, 8, 67, 0
10, 33504, Note_on_c, 8, 69, 75
10, 33546, Note_off_c, 8, 69, 0
10, 33552, Note_on_c, 8, 71, 75
10, 33594, Note_off_c, 8, 71, 0
10, 33600, Note_on_c, 8, 71, 75
10, 33732, Note_off_c, 8, 71, 0
10, 33744, Note_on_c, 8, 67, 75
10, 33786, Note_off_c, 8, 67, 0
10, 33792, Note_on_c, 8, 67, 75
10, 34068, Note_off_c, 8, 67, 0
10, 34080, Note_on_c, 8, 69, 75
10, 34164, Note_off_c, 8, 69, 0
10, 34176, Note_on_c, 8, 72, 75
10, 34260, Note_off_c, 8, 72, 0
10, 34272, Note_on_c, 8, 70, 75
10, 34356, Note_off_c, 8, 70, 0
10, 34368, Note_on_c, 8, 69, 75
10, 34452, Note_off_c, 8, 69, 0
10, 34464, Note_on_c, 8, 65, 75
10, 34548, Note_off_c, 8, 65, 0
10, 34560, Note_on_c, 8, 65, 75
10, 34644, Note_off_c, 8, 65, 0
10, 34656, Note_on_c, 8, 69, 75
10, 34740, Note_off_c, 8, 69, 0
10, 34752, Note_on_c, 8, 72, 75
10, 34836, Note_off_c, 8, 72, 0
10, 34848, Note_on_c, 8, 70, 75
10, 34932, Note_off_c, 8, 70, 0
10, 34944, Note_on_c, 8, 72, 75
10, 35028, Note_off_c, 8, 72, 0
10, 35040, Note_on_c, 8, 70, 75
10, 35124, Note_off_c, 8, 70, 0
10, 35136, Note_on_c, 8, 69, 75
10, 35220, Note_off_c, 8, 69, 0
10, 35232, Note_on_c, 8, 67, 75
10, 35412, Note_off_c, 8, 67, 0
10, 35424, Note_on_c, 8, 65, 75
10, 35508, Note_off_c, 8, 65, 0
10, 35520, Note_on_c, 8, 64, 75
10, 35562, Note_off_c, 8, 64, 0
10, 35568, Note_on_c, 8, 65, 75
10, 35610, Note_off_c, 8, 65, 0
10, 35616, Note_on_c, 8, 67, 75
10, 35626, Note_off_c, 8, 67, 0
10, 35628, Note_on_c, 8, 65, 75
10, 35638, Note_off_c, 8, 65, 0
10, 35640, Note_on_c, 8, 67, 75
10, 35650, Note_off_c, 8, 67, 0
10, 35652, Note_on_c, 8, 65, 75
10, 35662, Note_off_c, 8, 65, 0
10, 35664, Note_on_c, 8, 67, 75
10, 35674, Note_off_c, 8, 67, 0
10, 35676, Note_on_c, 8, 65, 75
10, 35686, Note_off_c, 8, 65, 0
10, 35688, Note_on_c, 8, 67, 75
10, 35698, Note_off_c, 8, 67, 0
10, 35700, Note_on_c, 8, 65, 75
10, 35710, Note_off_c, 8, 65, 0
10, 35712, Note_on_c, 8, 67, 75
10, 35722, Note_off_c, 8, 67, 0
10, 35724, Note_on_c, 8, 65, 75
10, 35734, Note_off_c, 8, 65, 0
10, 35736, Note_on_c, 8, 67, 75
10, 35746, Note_off_c, 8, 67, 0
10, 35748, Note_on_c, 8, 65, 75
10, 35758, Note_off_c, 8, 65, 0
10, 35760, Note_on_c, 8, 64, 75
10, 35781, Note_off_c, 8, 64, 0
10, 35784, Note_on_c, 8, 65, 75
10, 35805, Note_off_c, 8, 65, 0
10, 35808, Note_on_c, 8, 67, 75
10, 35892, Note_off_c, 8, 67, 0
10, 35904, Note_on_c, 8, 65, 75
10, 35988, Note_off_c, 8, 65, 0
10, 36000, Note_on_c, 8, 64, 75
10, 36084, Note_off_c, 8, 64, 0
10, 36096, Note_on_c, 8, 65, 75
10, 36276, Note_off_c, 8, 65, 0
10, 36288, Note_on_c, 8, 67, 75
10, 36372, Note_off_c, 8, 67, 0
10, 36384, Note_on_c, 8, 65, 75
10, 36468, Note_off_c, 8, 65, 0
10, 36480, Note_on_c, 8, 67, 75
10, 36660, Note_off_c, 8, 67, 0
10, 36672, Note_on_c, 8, 67, 75
10, 36852, Note_off_c, 8, 67, 0
10, 36864, Note_on_c, 8, 67, 75
10, 36948, Note_off_c, 8, 67, 0
10, 36960, Note_on_c, 8, 69, 75
10, 37002, Note_off_c, 8, 69, 0
10, 37008, Note_on_c, 8, 71, 75
10, 37050, Note_off_c, 8, 71, 0
10, 37056, Note_on_c, 8, 71, 75
10, 37188, Note_off_c, 8, 71, 0
10, 37200, Note_on_c, 8, 67, 75
10, 37242, Note_off_c, 8, 67, 0
10, 37248, Note_on_c, 8, 67, 75
10, 37524, Note_off_c, 8, 67, 0
10, 37536, Note_on_c, 8, 72, 75
10, 37620, Note_off_c, 8, 72, 0
10, 37632, Note_on_c, 8, 79, 75
10, 37716, Note_off_c, 8, 79, 0
10, 37728, Note_on_c, 8, 77, 75
10, 37812, Note_off_c, 8, 77, 0
10, 37824, Note_on_c, 8, 76, 75
10, 37908, Note_off_c, 8, 76, 0
10, 37920, Note_on_c, 8, 72, 75
10, 38004, Note_off_c, 8, 72, 0
10, 38016, Note_on_c, 8, 72, 75
10, 38100, Note_off_c, 8, 72, 0
10, 38112, Note_on_c, 8, 76, 75
10, 38196, Note_off_c, 8, 76, 0
10, 38208, Note_on_c, 8, 79, 75
10, 38292, Note_off_c, 8, 79, 0
10, 38304, Note_on_c, 8, 77, 75
10, 38388, Note_off_c, 8, 77, 0
10, 38400, Note_on_c, 8, 79, 75
10, 38484, Note_off_c, 8, 79, 0
10, 38496, Note_on_c, 8, 77, 75
10, 38580, Note_off_c, 8, 77, 0
10, 38592, Note_on_c, 8, 76, 75
10, 38676, Note_off_c, 8, 76, 0
10, 38688, Note_on_c, 8, 74, 75
10, 38868, Note_off_c, 8, 74, 0
10, 38880, Note_on_c, 8, 72, 75
10, 38964, Note_off_c, 8, 72, 0
10, 38976, Note_on_c, 8, 71, 75
10, 39018, Note_off_c, 8, 71, 0
10, 39024, Note_on_c, 8, 72, 75
10, 39066, Note_off_c, 8, 72, 0
10, 39072, Note_on_c, 8, 74, 75
10, 39082, Note_off_c, 8, 74, 0
10, 39084, Note_on_c, 8, 72, 75
10, 39094, Note_off_c, 8, 72, 0
10, 39096, Note_on_c, 8, 74, 75
10, 39106, Note_off_c, 8, 74, 0
10, 39108, Note_on_c, 8, 72, 75
10, 39118, Note_off_c, 8, 72, 0
10, 39120, Note_on_c, 8, 74, 75
10, 39130, Note_off_c, 8, 74, 0
10, 39132, Note_on_c, 8, 72, 75
10, 39142, Note_off_c, 8, 72, 0
10, 39144, Note_on_c, 8, 74, 75
10, 39154, Note_off_c, 8, 74, 0
10, 39156, Note_on_c, 8, 72, 75
10, 39166, Note_off_c, 8, 72, 0
10, 39168, Note_on_c, 8, 74, 75
10, 39178, Note_off_c, 8, 74, 0
10, 39180, Note_on_c, 8, 72, 75
10, 39190, Note_off_c, 8, 72, 0
10, 39192, Note_on_c, 8, 74, 75
10, 39202, Note_off_c, 8, 74, 0
10, 39204, Note_on_c, 8, 72, 75
10, 39214, Note_off_c, 8, 72, 0
10, 39216, Note_on_c, 8, 71, 75
10, 39237, Note_off_c, 8, 71, 0
10, 39240, Note_on_c, 8, 72, 75
10, 39261, Note_off_c, 8, 72, 0
10, 39264, Note_on_c, 8, 74, 75
10, 39348, Note_off_c, 8, 74, 0
10, 39360, Note_on_c, 8, 72, 75
10, 39444, Note_off_c, 8, 72, 0
10, 39456, Note_on_c, 8, 71, 75
10, 39540, Note_off_c, 8, 71, 0
10, 39552, Note_on_c, 8, 72, 75
10, 39828, Note_off_c, 8, 72, 0
10, 39840, Note_on_c, 8, 72, 75
10, 40020, Note_off_c, 8, 72, 0
10, 40032, Note_on_c, 8, 77, 75
10, 40116, Note_off_c, 8, 77, 0
10, 40128, Note_on_c, 8, 76, 75
10, 40212, Note_off_c, 8, 76, 0
10, 40224, Note_on_c, 8, 77, 75
10, 40308, Note_off_c, 8, 77, 0
10, 40320, Note_on_c, 8, 79, 75
10, 40404, Note_off_c, 8, 79, 0
10, 40416, Note_on_c, 8, 74, 75
10, 40500, Note_off_c, 8, 74, 0
10, 40512, Note_on_c, 8, 74, 75
10, 40522, Note_off_c, 8, 74, 0
10, 40524, Note_on_c, 8, 72, 75
10, 40534, Note_off_c, 8, 72, 0
10, 40536, Note_on_c, 8, 74, 75
10, 40546, Note_off_c, 8, 74, 0
10, 40548, Note_on_c, 8, 72, 75
10, 40558, Note_off_c, 8, 72, 0
10, 40560, Note_on_c, 8, 74, 75
10, 40570, Note_off_c, 8, 74, 0
10, 40572, Note_on_c, 8, 72, 75
10, 40582, Note_off_c, 8, 72, 0
10, 40584, Note_on_c, 8, 74, 75
10, 40594, Note_off_c, 8, 74, 0
10, 40596, Note_on_c, 8, 72, 75
10, 40606, Note_off_c, 8, 72, 0
10, 40608, Note_on_c, 8, 74, 75
10, 40618, Note_off_c, 8, 74, 0
10, 40620, Note_on_c, 8, 72, 75
10, 40630, Note_off_c, 8, 72, 0
10, 40632, Note_on_c, 8, 74, 75
10, 40642, Note_off_c, 8, 74, 0
10, 40644, Note_on_c, 8, 72, 75
10, 40654, Note_off_c, 8, 72, 0
10, 40656, Note_on_c, 8, 72, 75
10, 40698, Note_off_c, 8, 72, 0
10, 40704, Note_on_c, 8, 72, 75
10, 40884, Note_off_c, 8, 72, 0
10, 40992, Note_on_c, 8, 72, 75
10, 41076, Note_off_c, 8, 72, 0
10, 41088, Note_on_c, 8, 79, 75
10, 41172, Note_off_c, 8, 79, 0
10, 41184, Note_on_c, 8, 77, 75
10, 41268, Note_off_c, 8, 77, 0
10, 41280, Note_on_c, 8, 76, 75
10, 41364, Note_off_c, 8, 76, 0
10, 41376, Note_on_c, 8, 72, 75
10, 41460, Note_off_c, 8, 72, 0
10, 41472, Note_on_c, 8, 72, 75
10, 41556, Note_off_c, 8, 72, 0
10, 41568, Note_on_c, 8, 76, 75
10, 41652, Note_off_c, 8, 76, 0
10, 41664, Note_on_c, 8, 79, 75
10, 41748, Note_off_c, 8, 79, 0
10, 41760, Note_on_c, 8, 77, 75
10, 41844, Note_off_c, 8, 77, 0
10, 41856, Note_on_c, 8, 79, 75
10, 41940, Note_off_c, 8, 79, 0
10, 41952, Note_on_c, 8, 77, 75
10, 42036, Note_off_c, 8, 77, 0
10, 42048, Note_on_c, 8, 76, 75
10, 42132, Note_off_c, 8, 76, 0
10, 42144, Note_on_c, 8, 74, 75
10, 42324, Note_off_c, 8, 74, 0
10, 42336, Note_on_c, 8, 72, 75
10, 42420, Note_off_c, 8, 72, 0
10, 42432, Note_on_c, 8, 71, 75
10, 42474, Note_off_c, 8, 71, 0
10, 42480, Note_on_c, 8, 72, 75
10, 42522, Note_off_c, 8, 72, 0
10, 42528, Note_on_c, 8, 74, 75
10, 42538, Note_off_c, 8, 74, 0
10, 42540, Note_on_c, 8, 72, 75
10, 42550, Note_off_c, 8, 72, 0
10, 42552, Note_on_c, 8, 74, 75
10, 42562, Note_off_c, 8, 74, 0
10, 42564, Note_on_c, 8, 72, 75
10, 42574, Note_off_c, 8, 72, 0
10, 42576, Note_on_c, 8, 74, 75
10, 42586, Note_off_c, 8, 74, 0
10, 42588, Note_on_c, 8, 72, 75
10, 42598, Note_off_c, 8, 72, 0
10, 42600, Note_on_c, 8, 74, 75
10, 42610, Note_off_c, 8, 74, 0
10, 42612, Note_on_c, 8, 72, 75
10, 42622, Note_off_c, 8, 72, 0
10, 42624, Note_on_c, 8, 74, 75
10, 42634, Note_off_c, 8, 74, 0
10, 42636, Note_on_c, 8, 72, 75
10, 42646, Note_off_c, 8, 72, 0
10, 42648, Note_on_c, 8, 74, 75
10, 42658, Note_off_c, 8, 74, 0
10, 42660, Note_on_c, 8, 72, 75
10, 42670, Note_off_c, 8, 72, 0
10, 42672, Note_on_c, 8, 71, 75
10, 42693, Note_off_c, 8, 71, 0
10, 42696, Note_on_c, 8, 72, 75
10, 42717, Note_off_c, 8, 72, 0
10, 42720, Note_on_c, 8, 74, 75
10, 42804, Note_off_c, 8, 74, 0
10, 42816, Note_on_c, 8, 72, 75
10, 42900, Note_off_c, 8, 72, 0
10, 42912, Note_on_c, 8, 71, 75
10, 42996, Note_off_c, 8, 71, 0
10, 43008, Note_on_c, 8, 72, 75
10, 43284, Note_off_c, 8, 72, 0
10, 43296, Note_on_c, 8, 72, 75
10, 43476, Note_off_c, 8, 72, 0
10, 43488, Note_on_c, 8, 77, 75
10, 43572, Note_off_c, 8, 77, 0
10, 43584, Note_on_c, 8, 76, 75
10, 43668, Note_off_c, 8, 76, 0
10, 43680, Note_on_c, 8, 77, 75
10, 43764, Note_off_c, 8, 77, 0
10, 43776, Note_on_c, 8, 79, 75
10, 43860, Note_off_c, 8, 79, 0
10, 43872, Note_on_c, 8, 74, 75
10, 43956, Note_off_c, 8, 74, 0
10, 43968, Note_on_c, 8, 74, 75
10, 43978, Note_off_c, 8, 74, 0
10, 43980, Note_on_c, 8, 72, 75
10, 43990, Note_off_c, 8, 72, 0
10, 43992, Note_on_c, 8, 74, 75
10, 44002, Note_off_c, 8, 74, 0
10, 44004, Note_on_c, 8, 72, 75
10, 44014, Note_off_c, 8, 72, 0
10, 44016, Note_on_c, 8, 74, 75
10, 44026, Note_off_c, 8, 74, 0
10, 44028, Note_on_c, 8, 72, 75
10, 44038, Note_off_c, 8, 72, 0
10, 44040, Note_on_c, 8, 74, 75
10, 44050, Note_off_c, 8, 74, 0
10, 44052, Note_on_c, 8, 72, 75
10, 44062, Note_off_c, 8, 72, 0
10, 44064, Note_on_c, 8, 74, 75
10, 44074, Note_off_c, 8, 74, 0
10, 44076, Note_on_c, 8, 72, 75
10, 44086, Note_off_c, 8, 72, 0
10, 44088, Note_on_c, 8, 74, 75
10, 44098, Note_off_c, 8, 74, 0
10, 44100, Note_on_c, 8, 72, 75
10, 44110, Note_off_c, 8, 72, 0
10, 44112, Note_on_c, 8, 72, 75
10, 44154, Note_off_c, 8, 72, 0
10, 44160, Note_on_c, 8, 72, 75
10, 44340, Note_off_c, 8, 72, 0
10, 44736, Tempo, 1000000
10, 44832, Note_on_c, 8, 57, 75
10, 44874, Note_off_c, 8, 57, 0
10, 44880, Note_on_c, 8, 60, 75
10, 44922, Note_off_c, 8, 60, 0
10, 44928, Note_on_c, 8, 64, 75
10, 44970, Note_off_c, 8, 64, 0
10, 44976, Note_on_c, 8, 60, 75
10, 45018, Note_off_c, 8, 60, 0
10, 45024, Note_on_c, 8, 64, 75
10, 45066, Note_off_c, 8, 64, 0
10, 45072, Note_on_c, 8, 65, 75
10, 45114, Note_off_c, 8, 65, 0
10, 45120, Note_on_c, 8, 64, 75
10, 45162, Note_off_c, 8, 64, 0
10, 45168, Note_on_c, 8, 65, 75
10, 45210, Note_off_c, 8, 65, 0
10, 45216, Note_on_c, 8, 67, 75
10, 45258, Note_off_c, 8, 67, 0
10, 45264, Note_on_c, 8, 65, 75
10, 45306, Note_off_c, 8, 65, 0
10, 45312, Note_on_c, 8, 67, 75
10, 45354, Note_off_c, 8, 67, 0
10, 45360, Note_on_c, 8, 67, 75
10, 45402, Note_off_c, 8, 67, 0
10, 45408, Note_on_c, 8, 67, 75
10, 45450, Note_off_c, 8, 67, 0
10, 45456, Note_on_c, 8, 65, 75
10, 45498, Note_off_c, 8, 65, 0
10, 45504, Note_on_c, 8, 65, 75
10, 45546, Note_off_c, 8, 65, 0
10, 45552, Note_on_c, 8, 64, 75
10, 45594, Note_off_c, 8, 64, 0
10, 45600, Note_on_c, 8, 65, 75
10, 45642, Note_off_c, 8, 65, 0
10, 45648, Note_on_c, 8, 64, 75
10, 45690, Note_off_c, 8, 64, 0
10, 45696, Note_on_c, 8, 58, 75
10, 45738, Note_off_c, 8, 58, 0
10, 45744, Note_on_c, 8, 60, 75
10, 45786, Note_off_c, 8, 60, 0
10, 45792, Note_on_c, 8, 60, 75
10, 45834, Note_off_c, 8, 60, 0
10, 45840, Note_on_c, 8, 60, 75
10, 45882, Note_off_c, 8, 60, 0
10, 45888, Note_on_c, 8, 60, 75
10, 45930, Note_off_c, 8, 60, 0
10, 45936, Note_on_c, 8, 59, 75
10, 45978, Note_off_c, 8, 59, 0
10, 45984, Note_on_c, 8, 60, 75
10, 46026, Note_off_c, 8, 60, 0
10, 46032, Note_on_c, 8, 60, 75
10, 46074, Note_off_c, 8, 60, 0
10, 46080, Note_on_c, 8, 64, 75
10, 46122, Note_off_c, 8, 64, 0
10, 46128, Note_on_c, 8, 60, 75
10, 46170, Note_off_c, 8, 60, 0
10, 46176, Note_on_c, 8, 64, 75
10, 46218, Note_off_c, 8, 64, 0
10, 46224, Note_on_c, 8, 65, 75
10, 46266, Note_off_c, 8, 65, 0
10, 46272, Note_on_c, 8, 64, 75
10, 46314, Note_off_c, 8, 64, 0
10, 46320, Note_on_c, 8, 65, 75
10, 46362, Note_off_c, 8, 65, 0
10, 46368, Note_on_c, 8, 67, 75
10, 46410, Note_off_c, 8, 67, 0
10, 46416, Note_on_c, 8, 65, 75
10, 46458, Note_off_c, 8, 65, 0
10, 46464, Note_on_c, 8, 67, 75
10, 46506, Note_off_c, 8, 67, 0
10, 46512, Note_on_c, 8, 67, 75
10, 46554, Note_off_c, 8, 67, 0
10, 46560, Note_on_c, 8, 67, 75
10, 46602, Note_off_c, 8, 67, 0
10, 46608, Note_on_c, 8, 71, 75
10, 46650, Note_off_c, 8, 71, 0
10, 46656, Note_on_c, 8, 71, 75
10, 46698, Note_off_c, 8, 71, 0
10, 46704, Note_on_c, 8, 72, 75
10, 46746, Note_off_c, 8, 72, 0
10, 46752, Note_on_c, 8, 71, 75
10, 46794, Note_off_c, 8, 71, 0
10, 46800, Note_on_c, 8, 69, 75
10, 46842, Note_off_c, 8, 69, 0
10, 46848, Note_on_c, 8, 67, 75
10, 46890, Note_off_c, 8, 67, 0
10, 46896, Note_on_c, 8, 67, 75
10, 46938, Note_off_c, 8, 67, 0
10, 46944, Note_on_c, 8, 69, 75
10, 46965, Note_off_c, 8, 69, 0
10, 46968, Note_on_c, 8, 67, 75
10, 46989, Note_off_c, 8, 67, 0
10, 46992, Note_on_c, 8, 65, 75
10, 47013, Note_off_c, 8, 65, 0
10, 47016, Note_on_c, 8, 64, 75
10, 47037, Note_off_c, 8, 64, 0
10, 47040, Note_on_c, 8, 65, 75
10, 47061, Note_off_c, 8, 65, 0
10, 47064, Note_on_c, 8, 62, 75
10, 47085, Note_off_c, 8, 62, 0
10, 47088, Note_on_c, 8, 64, 75
10, 47119, Note_off_c, 8, 64, 0
10, 47136, Note_on_c, 8, 57, 75
10, 47178, Note_off_c, 8, 57, 0
10, 47184, Note_on_c, 8, 60, 75
10, 47226, Note_off_c, 8, 60, 0
10, 47232, Note_on_c, 8, 64, 75
10, 47274, Note_off_c, 8, 64, 0
10, 47280, Note_on_c, 8, 60, 75
10, 47322, Note_off_c, 8, 60, 0
10, 47328, Note_on_c, 8, 64, 75
10, 47370, Note_off_c, 8, 64, 0
10, 47376, Note_on_c, 8, 65, 75
10, 47418, Note_off_c, 8, 65, 0
10, 47424, Note_on_c, 8, 64, 75
10, 47466, Note_off_c, 8, 64, 0
10, 47472, Note_on_c, 8, 65, 75
10, 47514, Note_off_c, 8, 65, 0
10, 47520, Note_on_c, 8, 67, 75
10, 47562, Note_off_c, 8, 67, 0
10, 47568, Note_on_c, 8, 65, 75
10, 47610, Note_off_c, 8, 65, 0
10, 47616, Note_on_c, 8, 67, 75
10, 47658, Note_off_c, 8, 67, 0
10, 47664, Note_on_c, 8, 67, 75
10, 47706, Note_off_c, 8, 67, 0
10, 47712, Note_on_c, 8, 67, 75
10, 47754, Note_off_c, 8, 67, 0
10, 47760, Note_on_c, 8, 65, 75
10, 47802, Note_off_c, 8, 65, 0
10, 47808, Note_on_c, 8, 65, 75
10, 47850, Note_off_c, 8, 65, 0
10, 47856, Note_on_c, 8, 64, 75
10, 47898, Note_off_c, 8, 64, 0
10, 47904, Note_on_c, 8, 65, 75
10, 47946, Note_off_c, 8, 65, 0
10, 47952, Note_on_c, 8, 64, 75
10, 47994, Note_off_c, 8, 64, 0
10, 48000, Note_on_c, 8, 58, 75
10, 48042, Note_off_c, 8, 58, 0
10, 48048, Note_on_c, 8, 60, 75
10, 48090, Note_off_c, 8, 60, 0
10, 48096, Note_on_c, 8, 60, 75
10, 48138, Note_off_c, 8, 60, 0
10, 48144, Note_on_c, 8, 60, 75
10, 48186, Note_off_c, 8, 60, 0
10, 48192, Note_on_c, 8, 60, 75
10, 48234, Note_off_c, 8, 60, 0
10, 48240, Note_on_c, 8, 59, 75
10, 48282, Note_off_c, 8, 59, 0
10, 48288, Note_on_c, 8, 60, 75
10, 48330, Note_off_c, 8, 60, 0
10, 48336, Note_on_c, 8, 60, 75
10, 48378, Note_off_c, 8, 60, 0
10, 48384, Note_on_c, 8, 64, 75
10, 48426, Note_off_c, 8, 64, 0
10, 48432, Note_on_c, 8, 60, 75
10, 48474, Note_off_c, 8, 60, 0
10, 48480, Note_on_c, 8, 64, 75
10, 48522, Note_off_c, 8, 64, 0
10, 48528, Note_on_c, 8, 65, 75
10, 48570, Note_off_c, 8, 65, 0
10, 48576, Note_on_c, 8, 64, 75
10, 48618, Note_off_c, 8, 64, 0
10, 48624, Note_on_c, 8, 65, 75
10, 48666, Note_off_c, 8, 65, 0
10, 48672, Note_on_c, 8, 67, 75
10, 48714, Note_off_c, 8, 67, 0
10, 48720, Note_on_c, 8, 65, 75
10, 48762, Note_off_c, 8, 65, 0
10, 48768, Note_on_c, 8, 67, 75
10, 48810, Note_off_c, 8, 67, 0
10, 48816, Note_on_c, 8, 67, 75
10, 48858, Note_off_c, 8, 67, 0
10, 48864, Note_on_c, 8, 67, 75
10, 48906, Note_off_c, 8, 67, 0
10, 48912, Note_on_c, 8, 71, 75
10, 48954, Note_off_c, 8, 71, 0
10, 48960, Note_on_c, 8, 71, 75
10, 49002, Note_off_c, 8, 71, 0
10, 49008, Note_on_c, 8, 72, 75
10, 49050, Note_off_c, 8, 72, 0
10, 49056, Note_on_c, 8, 71, 75
10, 49098, Note_off_c, 8, 71, 0
10, 49104, Note_on_c, 8, 69, 75
10, 49146, Note_off_c, 8, 69, 0
10, 49152, Note_on_c, 8, 67, 75
10, 49194, Note_off_c, 8, 67, 0
10, 49200, Note_on_c, 8, 67, 75
10, 49242, Note_off_c, 8, 67, 0
10, 49248, Note_on_c, 8, 69, 75
10, 49269, Note_off_c, 8, 69, 0
10, 49272, Note_on_c, 8, 67, 75
10, 49293, Note_off_c, 8, 67, 0
10, 49296, Note_on_c, 8, 65, 75
10, 49317, Note_off_c, 8, 65, 0
10, 49320, Note_on_c, 8, 64, 75
10, 49341, Note_off_c, 8, 64, 0
10, 49344, Note_on_c, 8, 65, 75
10, 49365, Note_off_c, 8, 65, 0
10, 49368, Note_on_c, 8, 62, 75
10, 49389, Note_off_c, 8, 62, 0
10, 49392, Note_on_c, 8, 64, 75
10, 49423, Note_off_c, 8, 64, 0
10, 49440, Note_on_c, 8, 64, 75
10, 49482, Note_off_c, 8, 64, 0
10, 49488, Note_on_c, 8, 67, 75
10, 49530, Note_off_c, 8, 67, 0
10, 49536, Note_on_c, 8, 71, 75
10, 49578, Note_off_c, 8, 71, 0
10, 49584, Note_on_c, 8, 67, 75
10, 49626, Note_off_c, 8, 67, 0
10, 49632, Note_on_c, 8, 71, 75
10, 49674, Note_off_c, 8, 71, 0
10, 49680, Note_on_c, 8, 72, 75
10, 49722, Note_off_c, 8, 72, 0
10, 49728, Note_on_c, 8, 71, 75
10, 49770, Note_off_c, 8, 71, 0
10, 49776, Note_on_c, 8, 72, 75
10, 49818, Note_off_c, 8, 72, 0
10, 49824, Note_on_c, 8, 74, 75
10, 49866, Note_off_c, 8, 74, 0
10, 49872, Note_on_c, 8, 72, 75
10, 49914, Note_off_c, 8, 72, 0
10, 49920, Note_on_c, 8, 76, 75
10, 49962, Note_off_c, 8, 76, 0
10, 49968, Note_on_c, 8, 76, 75
10, 50010, Note_off_c, 8, 76, 0
10, 50016, Note_on_c, 8, 74, 75
10, 50058, Note_off_c, 8, 74, 0
10, 50064, Note_on_c, 8, 73, 75
10, 50106, Note_off_c, 8, 73, 0
10, 50112, Note_on_c, 8, 74, 75
10, 50154, Note_off_c, 8, 74, 0
10, 50160, Note_on_c, 8, 69, 75
10, 50202, Note_off_c, 8, 69, 0
10, 50208, Note_on_c, 8, 67, 75
10, 50250, Note_off_c, 8, 67, 0
10, 50256, Note_on_c, 8, 65, 75
10, 50298, Note_off_c, 8, 65, 0
10, 50304, Note_on_c, 8, 61, 75
10, 50346, Note_off_c, 8, 61, 0
10, 50352, Note_on_c, 8, 62, 75
10, 50394, Note_off_c, 8, 62, 0
10, 50400, Note_on_c, 8, 62, 75
10, 50421, Note_off_c, 8, 62, 0
10, 50424, Note_on_c, 8, 65, 75
10, 50445, Note_off_c, 8, 65, 0
10, 50448, Note_on_c, 8, 64, 75
10, 50469, Note_off_c, 8, 64, 0
10, 50472, Note_on_c, 8, 69, 75
10, 50493, Note_off_c, 8, 69, 0
10, 50496, Note_on_c, 8, 67, 75
10, 50517, Note_off_c, 8, 67, 0
10, 50520, Note_on_c, 8, 64, 75
10, 50541, Note_off_c, 8, 64, 0
10, 50544, Note_on_c, 8, 65, 75
10, 50586, Note_off_c, 8, 65, 0
10, 50592, Note_on_c, 8, 65, 75
10, 50634, Note_off_c, 8, 65, 0
10, 50640, Note_on_c, 8, 70, 127
10, 50659, Note_off_c, 8, 70, 0
10, 50688, Note_on_c, 8, 69, 127
10, 50707, Note_off_c, 8, 69, 0
10, 50736, Note_on_c, 8, 67, 127
10, 50755, Note_off_c, 8, 67, 0
10, 50784, Note_on_c, 8, 69, 127
10, 50803, Note_off_c, 8, 69, 0
10, 50832, Note_on_c, 8, 70, 127
10, 50851, Note_off_c, 8, 70, 0
10, 50880, Note_on_c, 8, 69, 127
10, 50899, Note_off_c, 8, 69, 0
10, 50928, Note_on_c, 8, 67, 127
10, 50947, Note_off_c, 8, 67, 0
10, 50976, Note_on_c, 8, 65, 127
10, 50995, Note_off_c, 8, 65, 0
10, 51024, Note_on_c, 8, 67, 127
10, 51043, Note_off_c, 8, 67, 0
10, 51072, Note_on_c, 8, 62, 127
10, 51091, Note_off_c, 8, 62, 0
10, 51120, Note_on_c, 8, 55, 127
10, 51139, Note_off_c, 8, 55, 0
10, 51168, Note_on_c, 8, 55, 127
10, 51187, Note_off_c, 8, 55, 0
10, 51216, Note_on_c, 8, 57, 75
10, 51235, Note_off_c, 8, 57, 0
10, 51360, Note_on_c, 8, 57, 75
10, 51381, Note_off_c, 8, 57, 0
10, 51384, Note_on_c, 8, 62, 75
10, 51405, Note_off_c, 8, 62, 0
10, 51408, Note_on_c, 8, 58, 75
10, 51429, Note_off_c, 8, 58, 0
10, 51432, Note_on_c, 8, 55, 75
10, 51453, Note_off_c, 8, 55, 0
10, 51456, Note_on_c, 8, 57, 75
10, 51477, Note_off_c, 8, 57, 0
10, 51480, Note_on_c, 8, 62, 75
10, 51501, Note_off_c, 8, 62, 0
10, 51504, Note_on_c, 8, 60, 75
10, 51546, Note_off_c, 8, 60, 0
10, 51552, Note_on_c, 8, 62, 75
10, 51573, Note_off_c, 8, 62, 0
10, 51576, Note_on_c, 8, 60, 75
10, 51597, Note_off_c, 8, 60, 0
10, 51600, Note_on_c, 8, 58, 75
10, 51621, Note_off_c, 8, 58, 0
10, 51624, Note_on_c, 8, 57, 75
10, 51645, Note_off_c, 8, 57, 0
10, 51648, Note_on_c, 8, 58, 75
10, 51669, Note_off_c, 8, 58, 0
10, 51672, Note_on_c, 8, 55, 75
10, 51693, Note_off_c, 8, 55, 0
10, 51696, Note_on_c, 8, 57, 75
10, 51727, Note_off_c, 8, 57, 0
10, 51744, Note_on_c, 8, 64, 75
10, 51786, Note_off_c, 8, 64, 0
10, 51792, Note_on_c, 8, 67, 75
10, 51834, Note_off_c, 8, 67, 0
10, 51840, Note_on_c, 8, 71, 75
10, 51882, Note_off_c, 8, 71, 0
10, 51888, Note_on_c, 8, 67, 75
10, 51930, Note_off_c, 8, 67, 0
10, 51936, Note_on_c, 8, 71, 75
10, 51978, Note_off_c, 8, 71, 0
10, 51984, Note_on_c, 8, 72, 75
10, 52026, Note_off_c, 8, 72, 0
10, 52032, Note_on_c, 8, 71, 75
10, 52074, Note_off_c, 8, 71, 0
10, 52080, Note_on_c, 8, 72, 75
10, 52122, Note_off_c, 8, 72, 0
10, 52128, Note_on_c, 8, 74, 75
10, 52170, Note_off_c, 8, 74, 0
10, 52176, Note_on_c, 8, 72, 75
10, 52218, Note_off_c, 8, 72, 0
10, 52224, Note_on_c, 8, 76, 75
10, 52266, Note_off_c, 8, 76, 0
10, 52272, Note_on_c, 8, 76, 75
10, 52314, Note_off_c, 8, 76, 0
10, 52320, Note_on_c, 8, 74, 75
10, 52362, Note_off_c, 8, 74, 0
10, 52368, Note_on_c, 8, 73, 75
10, 52410, Note_off_c, 8, 73, 0
10, 52416, Note_on_c, 8, 74, 75
10, 52458, Note_off_c, 8, 74, 0
10, 52464, Note_on_c, 8, 69, 75
10, 52506, Note_off_c, 8, 69, 0
10, 52512, Note_on_c, 8, 67, 75
10, 52554, Note_off_c, 8, 67, 0
10, 52560, Note_on_c, 8, 65, 75
10, 52602, Note_off_c, 8, 65, 0
10, 52608, Note_on_c, 8, 61, 75
10, 52650, Note_off_c, 8, 61, 0
10, 52656, Note_on_c, 8, 62, 75
10, 52698, Note_off_c, 8, 62, 0
10, 52704, Note_on_c, 8, 62, 75
10, 52725, Note_off_c, 8, 62, 0
10, 52728, Note_on_c, 8, 65, 75
10, 52749, Note_off_c, 8, 65, 0
10, 52752, Note_on_c, 8, 64, 75
10, 52773, Note_off_c, 8, 64, 0
10, 52776, Note_on_c, 8, 69, 75
10, 52797, Note_off_c, 8, 69, 0
10, 52800, Note_on_c, 8, 67, 75
10, 52821, Note_off_c, 8, 67, 0
10, 52824, Note_on_c, 8, 64, 75
10, 52845, Note_off_c, 8, 64, 0
10, 52848, Note_on_c, 8, 65, 75
10, 52890, Note_off_c, 8, 65, 0
10, 52896, Note_on_c, 8, 65, 75
10, 52938, Note_off_c, 8, 65, 0
10, 52944, Note_on_c, 8, 70, 127
10, 52963, Note_off_c, 8, 70, 0
10, 52992, Note_on_c, 8, 69, 127
10, 53011, Note_off_c, 8, 69, 0
10, 53040, Note_on_c, 8, 67, 127
10, 53059, Note_off_c, 8, 67, 0
10, 53088, Note_on_c, 8, 69, 127
10, 53107, Note_off_c, 8, 69, 0
10, 53136, Note_on_c, 8, 70, 127
10, 53155, Note_off_c, 8, 70, 0
10, 53184, Note_on_c, 8, 69, 127
10, 53203, Note_off_c, 8, 69, 0
10, 53232, Note_on_c, 8, 67, 127
10, 53251, Note_off_c, 8, 67, 0
10, 53280, Note_on_c, 8, 65, 127
10, 53299, Note_off_c, 8, 65, 0
10, 53328, Note_on_c, 8, 67, 127
10, 53347, Note_off_c, 8, 67, 0
10, 53376, Note_on_c, 8, 62, 127
10, 53395, Note_off_c, 8, 62, 0
10, 53424, Note_on_c, 8, 55, 127
10, 53443, Note_off_c, 8, 55, 0
10, 53472, Note_on_c, 8, 55, 127
10, 53491, Note_off_c, 8, 55, 0
10, 53520, Note_on_c, 8, 57, 75
10, 53539, Note_off_c, 8, 57, 0
10, 53664, Note_on_c, 8, 57, 75
10, 53685, Note_off_c, 8, 57, 0
10, 53688, Note_on_c, 8, 62, 75
10, 53709, Note_off_c, 8, 62, 0
10, 53712, Note_on_c, 8, 58, 75
10, 53733, Note_off_c, 8, 58, 0
10, 53736, Note_on_c, 8, 55, 75
10, 53757, Note_off_c, 8, 55, 0
10, 53760, Note_on_c, 8, 57, 75
10, 53781, Note_off_c, 8, 57, 0
10, 53784, Note_on_c, 8, 62, 75
10, 53805, Note_off_c, 8, 62, 0
10, 53808, Note_on_c, 8, 60, 75
10, 53850, Note_off_c, 8, 60, 0
10, 53856, Note_on_c, 8, 62, 75
10, 53877, Note_off_c, 8, 62, 0
10, 53880, Note_on_c, 8, 60, 75
10, 53901, Note_off_c, 8, 60, 0
10, 53904, Note_on_c, 8, 58, 75
10, 53925, Note_off_c, 8, 58, 0
10, 53928, Note_on_c, 8, 57, 75
10, 53949, Note_off_c, 8, 57, 0
10, 53952, Note_on_c, 8, 58, 75
10, 53973, Note_off_c, 8, 58, 0
10, 53976, Note_on_c, 8, 55, 75
10, 53985, Note_off_c, 8, 55, 0
10, 54000, Note_on_c, 8, 57, 75
10, 54084, Note_off_c, 8, 57, 0
10, 54084, End_track
11, 0, Start_track
11, 0, Title_t, "Cello"
11, 0, Control_c, 11, 0, 0
11, 0, Program_c, 11, 42
11, 0, Time_signature, 3, 2, 96, 8
11, 0, Tempo, 1000000
11, 96, Tempo, 428571
11, 96, Note_on_c, 11, 57, 49
11, 276, Note_off_c, 11, 57, 0
11, 288, Note_on_c, 11, 58, 49
11, 372, Note_off_c, 11, 58, 0
11, 384, Note_on_c, 11, 60, 49
11, 468, Note_off_c, 11, 60, 0
11, 480, Note_on_c, 11, 63, 49
11, 564, Note_off_c, 11, 63, 0
11, 576, Note_on_c, 11, 62, 49
11, 660, Note_off_c, 11, 62, 0
11, 672, Note_on_c, 11, 60, 49
11, 756, Note_off_c, 11, 60, 0
11, 768, Note_on_c, 11, 58, 49
11, 810, Note_off_c, 11, 58, 0
11, 816, Note_on_c, 11, 57, 49
11, 858, Note_off_c, 11, 57, 0
11, 864, Note_on_c, 11, 58, 49
11, 948, Note_off_c, 11, 58, 0
11, 960, Note_on_c, 11, 57, 49
11, 1044, Note_off_c, 11, 57, 0
11, 1056, Note_on_c, 11, 58, 49
11, 1098, Note_off_c, 11, 58, 0
11, 1104, Note_on_c, 11, 57, 49
11, 1146, Note_off_c, 11, 57, 0
11, 1152, Note_on_c, 11, 55, 49
11, 1194, Note_off_c, 11, 55, 0
11, 1200, Note_on_c, 11, 53, 49
11, 1242, Note_off_c, 11, 53, 0
11, 1248, Note_on_c, 11, 53, 49
11, 1258, Note_off_c, 11, 53, 0
11, 1260, Note_on_c, 11, 52, 49
11, 1270, Note_off_c, 11, 52, 0
11, 1272, Note_on_c, 11, 53, 49
11, 1282, Note_off_c, 11, 53, 0
11, 1284, Note_on_c, 11, 52, 49
11, 1294, Note_off_c, 11, 52, 0
11, 1296, Note_on_c, 11, 53, 49
11, 1306, Note_off_c, 11, 53, 0
11, 1308, Note_on_c, 11, 52, 49
11, 1318, Note_off_c, 11, 52, 0
11, 1320, Note_on_c, 11, 53, 49
11, 1330, Note_off_c, 11, 53, 0
11, 1332, Note_on_c, 11, 52, 49
11, 1342, Note_off_c, 11, 52, 0
11, 1344, Note_on_c, 11, 53, 49
11, 1354, Note_off_c, 11, 53, 0
11, 1356, Note_on_c, 11, 52, 49
11, 1366, Note_off_c, 11, 52, 0
11, 1368, Note_on_c, 11, 53, 49
11, 1378, Note_off_c, 11, 53, 0
11, 1380, Note_on_c, 11, 52, 49
11, 1390, Note_off_c, 11, 52, 0
11, 1392, Note_on_c, 11, 53, 49
11, 1402, Note_off_c, 11, 53, 0
11, 1404, Note_on_c, 11, 52, 49
11, 1414, Note_off_c, 11, 52, 0
11, 1416, Note_on_c, 11, 53, 49
11, 1426, Note_off_c, 11, 53, 0
11, 1428, Note_on_c, 11, 52, 49
11, 1438, Note_off_c, 11, 52, 0
11, 1440, Note_on_c, 11, 53, 49
11, 1524, Note_off_c, 11, 53, 0
11, 1536, Note_on_c, 11, 55, 49
11, 1620, Note_off_c, 11, 55, 0
11, 1632, Note_on_c, 11, 53, 49
11, 1674, Note_off_c, 11, 53, 0
11, 1680, Note_on_c, 11, 52, 49
11, 1722, Note_off_c, 11, 52, 0
11, 1728, Note_on_c, 11, 53, 49
11, 1812, Note_off_c, 11, 53, 0
11, 1824, Note_on_c, 11, 52, 49
11, 1908, Note_off_c, 11, 52, 0
11, 1920, Note_on_c, 11, 53, 49
11, 1962, Note_off_c, 11, 53, 0
11, 1968, Note_on_c, 11, 52, 49
11, 2010, Note_off_c, 11, 52, 0
11, 2016, Note_on_c, 11, 50, 49
11, 2058, Note_off_c, 11, 50, 0
11, 2064, Note_on_c, 11, 48, 49
11, 2106, Note_off_c, 11, 48, 0
11, 2112, Note_on_c, 11, 53, 49
11, 2196, Note_off_c, 11, 53, 0
11, 2208, Note_on_c, 11, 52, 49
11, 2250, Note_off_c, 11, 52, 0
11, 2256, Note_on_c, 11, 50, 49
11, 2298, Note_off_c, 11, 50, 0
11, 2304, Note_on_c, 11, 52, 49
11, 2388, Note_off_c, 11, 52, 0
11, 2400, Note_on_c, 11, 50, 49
11, 2484, Note_off_c, 11, 50, 0
11, 2496, Note_on_c, 11, 52, 49
11, 2580, Note_off_c, 11, 52, 0
11, 2592, Note_on_c, 11, 48, 49
11, 2676, Note_off_c, 11, 48, 0
11, 2688, Note_on_c, 11, 47, 49
11, 2772, Note_off_c, 11, 47, 0
11, 2784, Note_on_c, 11, 45, 49
11, 2826, Note_off_c, 11, 45, 0
11, 2832, Note_on_c, 11, 43, 49
11, 2874, Note_off_c, 11, 43, 0
11, 2880, Note_on_c, 11, 41, 49
11, 2922, Note_off_c, 11, 41, 0
11, 2928, Note_on_c, 11, 40, 49
11, 2970, Note_off_c, 11, 40, 0
11, 2976, Note_on_c, 11, 45, 49
11, 3018, Note_off_c, 11, 45, 0
11, 3024, Note_on_c, 11, 41, 49
11, 3066, Note_off_c, 11, 41, 0
11, 3072, Note_on_c, 11, 43, 49
11, 3156, Note_off_c, 11, 43, 0
11, 3168, Note_on_c, 11, 43, 49
11, 3252, Note_off_c, 11, 43, 0
11, 3264, Note_on_c, 11, 36, 49
11, 3348, Note_off_c, 11, 36, 0
11, 3360, Note_on_c, 11, 48, 49
11, 3402, Note_off_c, 11, 48, 0
11, 3408, Note_on_c, 11, 46, 49
11, 3450, Note_off_c, 11, 46, 0
11, 3456, Note_on_c, 11, 45, 49
11, 3498, Note_off_c, 11, 45, 0
11, 3504, Note_on_c, 11, 43, 49
11, 3546, Note_off_c, 11, 43, 0
11, 3552, Note_on_c, 11, 41, 49
11, 3636, Note_off_c, 11, 41, 0
11, 3648, Note_on_c, 11, 57, 49
11, 3732, Note_off_c, 11, 57, 0
11, 3744, Note_on_c, 11, 58, 49
11, 3828, Note_off_c, 11, 58, 0
11, 3840, Note_on_c, 11, 60, 49
11, 3924, Note_off_c, 11, 60, 0
11, 3936, Note_on_c, 11, 63, 49
11, 4020, Note_off_c, 11, 63, 0
11, 4032, Note_on_c, 11, 62, 49
11, 4116, Note_off_c, 11, 62, 0
11, 4128, Note_on_c, 11, 60, 49
11, 4212, Note_off_c, 11, 60, 0
11, 4224, Note_on_c, 11, 58, 49
11, 4266, Note_off_c, 11, 58, 0
11, 4272, Note_on_c, 11, 57, 49
11, 4314, Note_off_c, 11, 57, 0
11, 4320, Note_on_c, 11, 58, 49
11, 4404, Note_off_c, 11, 58, 0
11, 4416, Note_on_c, 11, 57, 49
11, 4500, Note_off_c, 11, 57, 0
11, 4512, Note_on_c, 11, 58, 49
11, 4554, Note_off_c, 11, 58, 0
11, 4560, Note_on_c, 11, 57, 49
11, 4602, Note_off_c, 11, 57, 0
11, 4608, Note_on_c, 11, 55, 49
11, 4650, Note_off_c, 11, 55, 0
11, 4656, Note_on_c, 11, 53, 49
11, 4698, Note_off_c, 11, 53, 0
11, 4704, Note_on_c, 11, 53, 49
11, 4714, Note_off_c, 11, 53, 0
11, 4716, Note_on_c, 11, 52, 49
11, 4726, Note_off_c, 11, 52, 0
11, 4728, Note_on_c, 11, 53, 49
11, 4738, Note_off_c, 11, 53, 0
11, 4740, Note_on_c, 11, 52, 49
11, 4750, Note_off_c, 11, 52, 0
11, 4752, Note_on_c, 11, 53, 49
11, 4762, Note_off_c, 11, 53, 0
11, 4764, Note_on_c, 11, 52, 49
11, 4774, Note_off_c, 11, 52, 0
11, 4776, Note_on_c, 11, 53, 49
11, 4786, Note_off_c, 11, 53, 0
11, 4788, Note_on_c, 11, 52, 49
11, 4798, Note_off_c, 11, 52, 0
11, 4800, Note_on_c, 11, 53, 49
11, 4810, Note_off_c, 11, 53, 0
11, 4812, Note_on_c, 11, 52, 49
11, 4822, Note_off_c, 11, 52, 0
11, 4824, Note_on_c, 11, 53, 49
11, 4834, Note_off_c, 11, 53, 0
11, 4836, Note_on_c, 11, 52, 49
11, 4846, Note_off_c, 11, 52, 0
11, 4848, Note_on_c, 11, 53, 49
11, 4858, Note_off_c, 11, 53, 0
11, 4860, Note_on_c, 11, 52, 49
11, 4870, Note_off_c, 11, 52, 0
11, 4872, Note_on_c, 11, 53, 49
11, 4882, Note_off_c, 11, 53, 0
11, 4884, Note_on_c, 11, 52, 49
11, 4894, Note_off_c, 11, 52, 0
11, 4896, Note_on_c, 11, 53, 49
11, 4980, Note_off_c, 11, 53, 0
11, 4992, Note_on_c, 11, 55, 49
11, 5076, Note_off_c, 11, 55, 0
11, 5088, Note_on_c, 11, 53, 49
11, 5130, Note_off_c, 11, 53, 0
11, 5136, Note_on_c, 11, 52, 49
11, 5178, Note_off_c, 11, 52, 0
11, 5184, Note_on_c, 11, 53, 49
11, 5268, Note_off_c, 11, 53, 0
11, 5280, Note_on_c, 11, 52, 49
11, 5364, Note_off_c, 11, 52, 0
11, 5376, Note_on_c, 11, 53, 49
11, 5418, Note_off_c, 11, 53, 0
11, 5424, Note_on_c, 11, 52, 49
11, 5466, Note_off_c, 11, 52, 0
11, 5472, Note_on_c, 11, 50, 49
11, 5514, Note_off_c, 11, 50, 0
11, 5520, Note_on_c, 11, 48, 49
11, 5562, Note_off_c, 11, 48, 0
11, 5568, Note_on_c, 11, 53, 49
11, 5652, Note_off_c, 11, 53, 0
11, 5664, Note_on_c, 11, 52, 49
11, 5706, Note_off_c, 11, 52, 0
11, 5712, Note_on_c, 11, 50, 49
11, 5754, Note_off_c, 11, 50, 0
11, 5760, Note_on_c, 11, 52, 49
11, 5844, Note_off_c, 11, 52, 0
11, 5856, Note_on_c, 11, 50, 49
11, 5940, Note_off_c, 11, 50, 0
11, 5952, Note_on_c, 11, 52, 49
11, 6036, Note_off_c, 11, 52, 0
11, 6048, Note_on_c, 11, 48, 49
11, 6132, Note_off_c, 11, 48, 0
11, 6144, Note_on_c, 11, 47, 49
11, 6228, Note_off_c, 11, 47, 0
11, 6240, Note_on_c, 11, 45, 49
11, 6282, Note_off_c, 11, 45, 0
11, 6288, Note_on_c, 11, 43, 49
11, 6330, Note_off_c, 11, 43, 0
11, 6336, Note_on_c, 11, 41, 49
11, 6378, Note_off_c, 11, 41, 0
11, 6384, Note_on_c, 11, 40, 49
11, 6426, Note_off_c, 11, 40, 0
11, 6432, Note_on_c, 11, 45, 49
11, 6474, Note_off_c, 11, 45, 0
11, 6480, Note_on_c, 11, 41, 49
11, 6522, Note_off_c, 11, 41, 0
11, 6528, Note_on_c, 11, 43, 49
11, 6612, Note_off_c, 11, 43, 0
11, 6624, Note_on_c, 11, 43, 49
11, 6708, Note_off_c, 11, 43, 0
11, 6720, Note_on_c, 11, 36, 49
11, 6804, Note_off_c, 11, 36, 0
11, 6816, Note_on_c, 11, 48, 49
11, 6900, Note_off_c, 11, 48, 0
11, 6912, Note_on_c, 11, 50, 49
11, 6996, Note_off_c, 11, 50, 0
11, 7008, Note_on_c, 11, 52, 49
11, 7188, Note_off_c, 11, 52, 0
11, 7200, Note_on_c, 11, 53, 49
11, 7284, Note_off_c, 11, 53, 0
11, 7296, Note_on_c, 11, 55, 49
11, 7380, Note_off_c, 11, 55, 0
11, 7392, Note_on_c, 11, 58, 49
11, 7476, Note_off_c, 11, 58, 0
11, 7488, Note_on_c, 11, 57, 49
11, 7572, Note_off_c, 11, 57, 0
11, 7584, Note_on_c, 11, 55, 49
11, 7668, Note_off_c, 11, 55, 0
11, 7680, Note_on_c, 11, 53, 49
11, 7722, Note_off_c, 11, 53, 0
11, 7728, Note_on_c, 11, 52, 49
11, 7770, Note_off_c, 11, 52, 0
11, 7776, Note_on_c, 11, 53, 49
11, 7860, Note_off_c, 11, 53, 0
11, 7872, Note_on_c, 11, 52, 49
11, 7956, Note_off_c, 11, 52, 0
11, 7968, Note_on_c, 11, 53, 49
11, 8010, Note_off_c, 11, 53, 0
11, 8016, Note_on_c, 11, 52, 49
11, 8058, Note_off_c, 11, 52, 0
11, 8064, Note_on_c, 11, 50, 49
11, 8106, Note_off_c, 11, 50, 0
11, 8112, Note_on_c, 11, 48, 49
11, 8154, Note_off_c, 11, 48, 0
11, 8160, Note_on_c, 11, 48, 49
11, 8170, Note_off_c, 11, 48, 0
11, 8172, Note_on_c, 11, 47, 49
11, 8182, Note_off_c, 11, 47, 0
11, 8184, Note_on_c, 11, 48, 49
11, 8194, Note_off_c, 11, 48, 0
11, 8196, Note_on_c, 11, 47, 49
11, 8206, Note_off_c, 11, 47, 0
11, 8208, Note_on_c, 11, 48, 49
11, 8218, Note_off_c, 11, 48, 0
11, 8220, Note_on_c, 11, 47, 49
11, 8230, Note_off_c, 11, 47, 0
11, 8232, Note_on_c, 11, 48, 49
11, 8242, Note_off_c, 11, 48, 0
11, 8244, Note_on_c, 11, 47, 49
11, 8254, Note_off_c, 11, 47, 0
11, 8256, Note_on_c, 11, 48, 49
11, 8266, Note_off_c, 11, 48, 0
11, 8268, Note_on_c, 11, 47, 49
11, 8278, Note_off_c, 11, 47, 0
11, 8280, Note_on_c, 11, 48, 49
11, 8290, Note_off_c, 11, 48, 0
11, 8292, Note_on_c, 11, 47, 49
11, 8302, Note_off_c, 11, 47, 0
11, 8304, Note_on_c, 11, 48, 49
11, 8314, Note_off_c, 11, 48, 0
11, 8316, Note_on_c, 11, 47, 49
11, 8326, Note_off_c, 11, 47, 0
11, 8328, Note_on_c, 11, 48, 49
11, 8338, Note_off_c, 11, 48, 0
11, 8340, Note_on_c, 11, 47, 49
11, 8350, Note_off_c, 11, 47, 0
11, 8352, Note_on_c, 11, 48, 49
11, 8436, Note_off_c, 11, 48, 0
11, 8448, Note_on_c, 11, 50, 49
11, 8532, Note_off_c, 11, 50, 0
11, 8544, Note_on_c, 11, 48, 49
11, 8586, Note_off_c, 11, 48, 0
11, 8592, Note_on_c, 11, 47, 49
11, 8634, Note_off_c, 11, 47, 0
11, 8640, Note_on_c, 11, 48, 49
11, 8724, Note_off_c, 11, 48, 0
11, 8736, Note_on_c, 11, 47, 49
11, 8820, Note_off_c, 11, 47, 0
11, 8832, Note_on_c, 11, 48, 49
11, 8874, Note_off_c, 11, 48, 0
11, 8880, Note_on_c, 11, 47, 49
11, 8922, Note_off_c, 11, 47, 0
11, 8928, Note_on_c, 11, 45, 49
11, 8970, Note_off_c, 11, 45, 0
11, 8976, Note_on_c, 11, 43, 49
11, 9018, Note_off_c, 11, 43, 0
11, 9024, Note_on_c, 11, 48, 49
11, 9108, Note_off_c, 11, 48, 0
11, 9120, Note_on_c, 11, 46, 49
11, 9162, Note_off_c, 11, 46, 0
11, 9168, Note_on_c, 11, 45, 49
11, 9210, Note_off_c, 11, 45, 0
11, 9216, Note_on_c, 11, 43, 49
11, 9258, Note_off_c, 11, 43, 0
11, 9264, Note_on_c, 11, 41, 49
11, 9306, Note_off_c, 11, 41, 0
11, 9312, Note_on_c, 11, 40, 49
11, 9396, Note_off_c, 11, 40, 0
11, 9408, Note_on_c, 11, 41, 49
11, 9450, Note_off_c, 11, 41, 0
11, 9456, Note_on_c, 11, 40, 49
11, 9498, Note_off_c, 11, 40, 0
11, 9504, Note_on_c, 11, 38, 49
11, 9546, Note_off_c, 11, 38, 0
11, 9552, Note_on_c, 11, 40, 49
11, 9594, Note_off_c, 11, 40, 0
11, 9600, Note_on_c, 11, 36, 49
11, 9684, Note_off_c, 11, 36, 0
11, 9696, Note_on_c, 11, 48, 49
11, 9738, Note_off_c, 11, 48, 0
11, 9744, Note_on_c, 11, 50, 49
11, 9786, Note_off_c, 11, 50, 0
11, 9792, Note_on_c, 11, 52, 49
11, 9834, Note_off_c, 11, 52, 0
11, 9840, Note_on_c, 11, 48, 49
11, 9882, Note_off_c, 11, 48, 0
11, 9888, Note_on_c, 11, 50, 49
11, 9930, Note_off_c, 11, 50, 0
11, 9936, Note_on_c, 11, 46, 49
11, 9978, Note_off_c, 11, 46, 0
11, 9984, Note_on_c, 11, 48, 49
11, 10068, Note_off_c, 11, 48, 0
11, 10080, Note_on_c, 11, 36, 49
11, 10164, Note_off_c, 11, 36, 0
11, 10176, Note_on_c, 11, 41, 49
11, 10218, Note_off_c, 11, 41, 0
11, 10224, Note_on_c, 11, 43, 49
11, 10266, Note_off_c, 11, 43, 0
11, 10272, Note_on_c, 11, 45, 49
11, 10314, Note_off_c, 11, 45, 0
11, 10320, Note_on_c, 11, 46, 49
11, 10362, Note_off_c, 11, 46, 0
11, 10368, Note_on_c, 11, 48, 49
11, 10410, Note_off_c, 11, 48, 0
11, 10416, Note_on_c, 11, 50, 49
11, 10458, Note_off_c, 11, 50, 0
11, 10464, Note_on_c, 11, 52, 49
11, 10644, Note_off_c, 11, 52, 0
11, 10656, Note_on_c, 11, 53, 49
11, 10740, Note_off_c, 11, 53, 0
11, 10752, Note_on_c, 11, 55, 49
11, 10836, Note_off_c, 11, 55, 0
11, 10848, Note_on_c, 11, 58, 49
11, 10932, Note_off_c, 11, 58, 0
11, 10944, Note_on_c, 11, 57, 49
11, 11028, Note_off_c, 11, 57, 0
11, 11040, Note_on_c, 11, 55, 49
11, 11124, Note_off_c, 11, 55, 0
11, 11136, Note_on_c, 11, 53, 49
11, 11178, Note_off_c, 11, 53, 0
11, 11184, Note_on_c, 11, 52, 49
11, 11226, Note_off_c, 11, 52, 0
11, 11232, Note_on_c, 11, 53, 49
11, 11316, Note_off_c, 11, 53, 0
11, 11328, Note_on_c, 11, 52, 49
11, 11412, Note_off_c, 11, 52, 0
11, 11424, Note_on_c, 11, 53, 49
11, 11466, Note_off_c, 11, 53, 0
11, 11472, Note_on_c, 11, 52, 49
11, 11514, Note_off_c, 11, 52, 0
11, 11520, Note_on_c, 11, 50, 49
11, 11562, Note_off_c, 11, 50, 0
11, 11568, Note_on_c, 11, 48, 49
11, 11610, Note_off_c, 11, 48, 0
11, 11616, Note_on_c, 11, 48, 49
11, 11626, Note_off_c, 11, 48, 0
11, 11628, Note_on_c, 11, 47, 49
11, 11638, Note_off_c, 11, 47, 0
11, 11640, Note_on_c, 11, 48, 49
11, 11650, Note_off_c, 11, 48, 0
11, 11652, Note_on_c, 11, 47, 49
11, 11662, Note_off_c, 11, 47, 0
11, 11664, Note_on_c, 11, 48, 49
11, 11674, Note_off_c, 11, 48, 0
11, 11676, Note_on_c, 11, 47, 49
11, 11686, Note_off_c, 11, 47, 0
11, 11688, Note_on_c, 11, 48, 49
11, 11698, Note_off_c, 11, 48, 0
11, 11700, Note_on_c, 11, 47, 49
11, 11710, Note_off_c, 11, 47, 0
11, 11712, Note_on_c, 11, 48, 49
11, 11722, Note_off_c, 11, 48, 0
11, 11724, Note_on_c, 11, 47, 49
11, 11734, Note_off_c, 11, 47, 0
11, 11736, Note_on_c, 11, 48, 49
11, 11746, Note_off_c, 11, 48, 0
11, 11748, Note_on_c, 11, 47, 49
11, 11758, Note_off_c, 11, 47, 0
11, 11760, Note_on_c, 11, 48, 49
11, 11770, Note_off_c, 11, 48, 0
11, 11772, Note_on_c, 11, 47, 49
11, 11782, Note_off_c, 11, 47, 0
11, 11784, Note_on_c, 11, 48, 49
11, 11794, Note_off_c, 11, 48, 0
11, 11796, Note_on_c, 11, 47, 49
11, 11806, Note_off_c, 11, 47, 0
11, 11808, Note_on_c, 11, 48, 49
11, 11892, Note_off_c, 11, 48, 0
11, 11904, Note_on_c, 11, 50, 49
11, 11988, Note_off_c, 11, 50, 0
11, 12000, Note_on_c, 11, 48, 49
11, 12042, Note_off_c, 11, 48, 0
11, 12048, Note_on_c, 11, 47, 49
11, 12090, Note_off_c, 11, 47, 0
11, 12096, Note_on_c, 11, 48, 49
11, 12180, Note_off_c, 11, 48, 0
11, 12192, Note_on_c, 11, 47, 49
11, 12276, Note_off_c, 11, 47, 0
11, 12288, Note_on_c, 11, 48, 49
11, 12330, Note_off_c, 11, 48, 0
11, 12336, Note_on_c, 11, 47, 49
11, 12378, Note_off_c, 11, 47, 0
11, 12384, Note_on_c, 11, 45, 49
11, 12426, Note_off_c, 11, 45, 0
11, 12432, Note_on_c, 11, 43, 49
11, 12474, Note_off_c, 11, 43, 0
11, 12480, Note_on_c, 11, 48, 49
11, 12564, Note_off_c, 11, 48, 0
11, 12576, Note_on_c, 11, 46, 49
11, 12618, Note_off_c, 11, 46, 0
11, 12624, Note_on_c, 11, 45, 49
11, 12666, Note_off_c, 11, 45, 0
11, 12672, Note_on_c, 11, 43, 49
11, 12714, Note_off_c, 11, 43, 0
11, 12720, Note_on_c, 11, 41, 49
11, 12762, Note_off_c, 11, 41, 0
11, 12768, Note_on_c, 11, 40, 49
11, 12852, Note_off_c, 11, 40, 0
11, 12864, Note_on_c, 11, 41, 49
11, 12906, Note_off_c, 11, 41, 0
11, 12912, Note_on_c, 11, 40, 49
11, 12954, Note_off_c, 11, 40, 0
11, 12960, Note_on_c, 11, 38, 49
11, 13002, Note_off_c, 11, 38, 0
11, 13008, Note_on_c, 11, 40, 49
11, 13050, Note_off_c, 11, 40, 0
11, 13056, Note_on_c, 11, 36, 49
11, 13140, Note_off_c, 11, 36, 0
11, 13152, Note_on_c, 11, 48, 49
11, 13194, Note_off_c, 11, 48, 0
11, 13200, Note_on_c, 11, 50, 49
11, 13242, Note_off_c, 11, 50, 0
11, 13248, Note_on_c, 11, 52, 49
11, 13290, Note_off_c, 11, 52, 0
11, 13296, Note_on_c, 11, 48, 49
11, 13338, Note_off_c, 11, 48, 0
11, 13344, Note_on_c, 11, 50, 49
11, 13386, Note_off_c, 11, 50, 0
11, 13392, Note_on_c, 11, 46, 49
11, 13434, Note_off_c, 11, 46, 0
11, 13440, Note_on_c, 11, 48, 49
11, 13524, Note_off_c, 11, 48, 0
11, 13536, Note_on_c, 11, 36, 49
11, 13620, Note_off_c, 11, 36, 0
11, 13632, Note_on_c, 11, 41, 49
11, 13908, Note_off_c, 11, 41, 0
11, 14208, Tempo, 500000
11, 16512, Tempo, 500000
11, 30624, Tempo, 428571
11, 30624, Note_on_c, 11, 57, 49
11, 30804, Note_off_c, 11, 57, 0
11, 30816, Note_on_c, 11, 58, 49
11, 30900, Note_off_c, 11, 58, 0
11, 30912, Note_on_c, 11, 60, 49
11, 30996, Note_off_c, 11, 60, 0
11, 31008, Note_on_c, 11, 63, 49
11, 31092, Note_off_c, 11, 63, 0
11, 31104, Note_on_c, 11, 62, 49
11, 31188, Note_off_c, 11, 62, 0
11, 31200, Note_on_c, 11, 60, 49
11, 31284, Note_off_c, 11, 60, 0
11, 31296, Note_on_c, 11, 58, 49
11, 31338, Note_off_c, 11, 58, 0
11, 31344, Note_on_c, 11, 57, 49
11, 31386, Note_off_c, 11, 57, 0
11, 31392, Note_on_c, 11, 58, 49
11, 31476, Note_off_c, 11, 58, 0
11, 31488, Note_on_c, 11, 57, 49
11, 31572, Note_off_c, 11, 57, 0
11, 31584, Note_on_c, 11, 58, 49
11, 31626, Note_off_c, 11, 58, 0
11, 31632, Note_on_c, 11, 57, 49
11, 31674, Note_off_c, 11, 57, 0
11, 31680, Note_on_c, 11, 55, 49
11, 31722, Note_off_c, 11, 55, 0
11, 31728, Note_on_c, 11, 53, 49
11, 31770, Note_off_c, 11, 53, 0
11, 31776, Note_on_c, 11, 53, 49
11, 31786, Note_off_c, 11, 53, 0
11, 31788, Note_on_c, 11, 52, 49
11, 31798, Note_off_c, 11, 52, 0
11, 31800, Note_on_c, 11, 53, 49
11, 31810, Note_off_c, 11, 53, 0
11, 31812, Note_on_c, 11, 52, 49
11, 31822, Note_off_c, 11, 52, 0
11, 31824, Note_on_c, 11, 53, 49
11, 31834, Note_off_c, 11, 53, 0
11, 31836, Note_on_c, 11, 52, 49
11, 31846, Note_off_c, 11, 52, 0
11, 31848, Note_on_c, 11, 53, 49
11, 31858, Note_off_c, 11, 53, 0
11, 31860, Note_on_c, 11, 52, 49
11, 31870, Note_off_c, 11, 52, 0
11, 31872, Note_on_c, 11, 53, 49
11, 31882, Note_off_c, 11, 53, 0
11, 31884, Note_on_c, 11, 52, 49
11, 31894, Note_off_c, 11, 52, 0
11, 31896, Note_on_c, 11, 53, 49
11, 31906, Note_off_c, 11, 53, 0
11, 31908, Note_on_c, 11, 52, 49
11, 31918, Note_off_c, 11, 52, 0
11, 31920, Note_on_c, 11, 53, 49
11, 31930, Note_off_c, 11, 53, 0
11, 31932, Note_on_c, 11, 52, 49
11, 31942, Note_off_c, 11, 52, 0
11, 31944, Note_on_c, 11, 53, 49
11, 31954, Note_off_c, 11, 53, 0
11, 31956, Note_on_c, 11, 52, 49
11, 31966, Note_off_c, 11, 52, 0
11, 31968, Note_on_c, 11, 53, 49
11, 32052, Note_off_c, 11, 53, 0
11, 32064, Note_on_c, 11, 55, 49
11, 32148, Note_off_c, 11, 55, 0
11, 32160, Note_on_c, 11, 53, 49
11, 32202, Note_off_c, 11, 53, 0
11, 32208, Note_on_c, 11, 52, 49
11, 32250, Note_off_c, 11, 52, 0
11, 32256, Note_on_c, 11, 53, 49
11, 32340, Note_off_c, 11, 53, 0
11, 32352, Note_on_c, 11, 52, 49
11, 32436, Note_off_c, 11, 52, 0
11, 32448, Note_on_c, 11, 53, 49
11, 32490, Note_off_c, 11, 53, 0
11, 32496, Note_on_c, 11, 52, 49
11, 32538, Note_off_c, 11, 52, 0
11, 32544, Note_on_c, 11, 50, 49
11, 32586, Note_off_c, 11, 50, 0
11, 32592, Note_on_c, 11, 48, 49
11, 32634, Note_off_c, 11, 48, 0
11, 32640, Note_on_c, 11, 53, 49
11, 32724, Note_off_c, 11, 53, 0
11, 32736, Note_on_c, 11, 52, 49
11, 32778, Note_off_c, 11, 52, 0
11, 32784, Note_on_c, 11, 50, 49
11, 32826, Note_off_c, 11, 50, 0
11, 32832, Note_on_c, 11, 52, 49
11, 32916, Note_off_c, 11, 52, 0
11, 32928, Note_on_c, 11, 50, 49
11, 33012, Note_off_c, 11, 50, 0
11, 33024, Note_on_c, 11, 52, 49
11, 33108, Note_off_c, 11, 52, 0
11, 33120, Note_on_c, 11, 48, 49
11, 33204, Note_off_c, 11, 48, 0
11, 33216, Note_on_c, 11, 47, 49
11, 33300, Note_off_c, 11, 47, 0
11, 33312, Note_on_c, 11, 45, 49
11, 33354, Note_off_c, 11, 45, 0
11, 33360, Note_on_c, 11, 43, 49
11, 33402, Note_off_c, 11, 43, 0
11, 33408, Note_on_c, 11, 41, 49
11, 33450, Note_off_c, 11, 41, 0
11, 33456, Note_on_c, 11, 40, 49
11, 33498, Note_off_c, 11, 40, 0
11, 33504, Note_on_c, 11, 45, 49
11, 33546, Note_off_c, 11, 45, 0
11, 33552, Note_on_c, 11, 41, 49
11, 33594, Note_off_c, 11, 41, 0
11, 33600, Note_on_c, 11, 43, 49
11, 33684, Note_off_c, 11, 43, 0
11, 33696, Note_on_c, 11, 43, 49
11, 33780, Note_off_c, 11, 43, 0
11, 33792, Note_on_c, 11, 36, 49
11, 33876, Note_off_c, 11, 36, 0
11, 33888, Note_on_c, 11, 48, 49
11, 33930, Note_off_c, 11, 48, 0
11, 33936, Note_on_c, 11, 46, 49
11, 33978, Note_off_c, 11, 46, 0
11, 33984, Note_on_c, 11, 45, 49
11, 34026, Note_off_c, 11, 45, 0
11, 34032, Note_on_c, 11, 43, 49
11, 34074, Note_off_c, 11, 43, 0
11, 34080, Note_on_c, 11, 41, 49
11, 34164, Note_off_c, 11, 41, 0
11, 34176, Note_on_c, 11, 57, 49
11, 34260, Note_off_c, 11, 57, 0
11, 34272, Note_on_c, 11, 58, 49
11, 34356, Note_off_c, 11, 58, 0
11, 34368, Note_on_c, 11, 60, 49
11, 34452, Note_off_c, 11, 60, 0
11, 34464, Note_on_c, 11, 63, 49
11, 34548, Note_off_c, 11, 63, 0
11, 34560, Note_on_c, 11, 62, 49
11, 34644, Note_off_c, 11, 62, 0
11, 34656, Note_on_c, 11, 60, 49
11, 34740, Note_off_c, 11, 60, 0
11, 34752, Note_on_c, 11, 58, 49
11, 34794, Note_off_c, 11, 58, 0
11, 34800, Note_on_c, 11, 57, 49
11, 34842, Note_off_c, 11, 57, 0
11, 34848, Note_on_c, 11, 58, 49
11, 34932, Note_off_c, 11, 58, 0
11, 34944, Note_on_c, 11, 57, 49
11, 35028, Note_off_c, 11, 57, 0
11, 35040, Note_on_c, 11, 58, 49
11, 35082, Note_off_c, 11, 58, 0
11, 35088, Note_on_c, 11, 57, 49
11, 35130, Note_off_c, 11, 57, 0
11, 35136, Note_on_c, 11, 55, 49
11, 35178, Note_off_c, 11, 55, 0
11, 35184, Note_on_c, 11, 53, 49
11, 35226, Note_off_c, 11, 53, 0
11, 35232, Note_on_c, 11, 53, 49
11, 35242, Note_off_c, 11, 53, 0
11, 35244, Note_on_c, 11, 52, 49
11, 35254, Note_off_c, 11, 52, 0
11, 35256, Note_on_c, 11, 53, 49
11, 35266, Note_off_c, 11, 53, 0
11, 35268, Note_on_c, 11, 52, 49
11, 35278, Note_off_c, 11, 52, 0
11, 35280, Note_on_c, 11, 53, 49
11, 35290, Note_off_c, 11, 53, 0
11, 35292, Note_on_c, 11, 52, 49
11, 35302, Note_off_c, 11, 52, 0
11, 35304, Note_on_c, 11, 53, 49
11, 35314, Note_off_c, 11, 53, 0
11, 35316, Note_on_c, 11, 52, 49
11, 35326, Note_off_c, 11, 52, 0
11, 35328, Note_on_c, 11, 53, 49
11, 35338, Note_off_c, 11, 53, 0
11, 35340, Note_on_c, 11, 52, 49
11, 35350, Note_off_c, 11, 52, 0
11, 35352, Note_on_c, 11, 53, 49
11, 35362, Note_off_c, 11, 53, 0
11, 35364, Note_on_c, 11, 52, 49
11, 35374, Note_off_c, 11, 52, 0
11, 35376, Note_on_c, 11, 53, 49
11, 35386, Note_off_c, 11, 53, 0
11, 35388, Note_on_c, 11, 52, 49
11, 35398, Note_off_c, 11, 52, 0
11, 35400, Note_on_c, 11, 53, 49
11, 35410, Note_off_c, 11, 53, 0
11, 35412, Note_on_c, 11, 52, 49
11, 35422, Note_off_c, 11, 52, 0
11, 35424, Note_on_c, 11, 53, 49
11, 35508, Note_off_c, 11, 53, 0
11, 35520, Note_on_c, 11, 55, 49
11, 35604, Note_off_c, 11, 55, 0
11, 35616, Note_on_c, 11, 53, 49
11, 35658, Note_off_c, 11, 53, 0
11, 35664, Note_on_c, 11, 52, 49
11, 35706, Note_off_c, 11, 52, 0
11, 35712, Note_on_c, 11, 53, 49
11, 35796, Note_off_c, 11, 53, 0
11, 35808, Note_on_c, 11, 52, 49
11, 35892, Note_off_c, 11, 52, 0
11, 35904, Note_on_c, 11, 53, 49
11, 35946, Note_off_c, 11, 53, 0
11, 35952, Note_on_c, 11, 52, 49
11, 35994, Note_off_c, 11, 52, 0
11, 36000, Note_on_c, 11, 50, 49
11, 36042, Note_off_c, 11, 50, 0
11, 36048, Note_on_c, 11, 48, 49
11, 36090, Note_off_c, 11, 48, 0
11, 36096, Note_on_c, 11, 53, 49
11, 36180, Note_off_c, 11, 53, 0
11, 36192, Note_on_c, 11, 52, 49
11, 36234, Note_off_c, 11, 52, 0
11, 36240, Note_on_c, 11, 50, 49
11, 36282, Note_off_c, 11, 50, 0
11, 36288, Note_on_c, 11, 52, 49
11, 36372, Note_off_c, 11, 52, 0
11, 36384, Note_on_c, 11, 50, 49
11, 36468, Note_off_c, 11, 50, 0
11, 36480, Note_on_c, 11, 52, 49
11, 36564, Note_off_c, 11, 52, 0
11, 36576, Note_on_c, 11, 48, 49
11, 36660, Note_off_c, 11, 48, 0
11, 36672, Note_on_c, 11, 47, 49
11, 36756, Note_off_c, 11, 47, 0
11, 36768, Note_on_c, 11, 45, 49
11, 36810, Note_off_c, 11, 45, 0
11, 36816, Note_on_c, 11, 43, 49
11, 36858, Note_off_c, 11, 43, 0
11, 36864, Note_on_c, 11, 41, 49
11, 36906, Note_off_c, 11, 41, 0
11, 36912, Note_on_c, 11, 40, 49
11, 36954, Note_off_c, 11, 40, 0
11, 36960, Note_on_c, 11, 45, 49
11, 37002, Note_off_c, 11, 45, 0
11, 37008, Note_on_c, 11, 41, 49
11, 37050, Note_off_c, 11, 41, 0
11, 37056, Note_on_c, 11, 43, 49
11, 37140, Note_off_c, 11, 43, 0
11, 37152, Note_on_c, 11, 43, 49
11, 37236, Note_off_c, 11, 43, 0
11, 37248, Note_on_c, 11, 36, 49
11, 37332, Note_off_c, 11, 36, 0
11, 37344, Note_on_c, 11, 48, 49
11, 37428, Note_off_c, 11, 48, 0
11, 37440, Note_on_c, 11, 50, 49
11, 37524, Note_off_c, 11, 50, 0
11, 37536, Note_on_c, 11, 52, 49
11, 37716, Note_off_c, 11, 52, 0
11, 37728, Note_on_c, 11, 53, 49
11, 37812, Note_off_c, 11, 53, 0
11, 37824, Note_on_c, 11, 55, 49
11, 37908, Note_off_c, 11, 55, 0
11, 37920, Note_on_c, 11, 58, 49
11, 38004, Note_off_c, 11, 58, 0
11, 38016, Note_on_c, 11, 57, 49
11, 38100, Note_off_c, 11, 57, 0
11, 38112, Note_on_c, 11, 55, 49
11, 38196, Note_off_c, 11, 55, 0
11, 38208, Note_on_c, 11, 53, 49
11, 38250, Note_off_c, 11, 53, 0
11, 38256, Note_on_c, 11, 52, 49
11, 38298, Note_off_c, 11, 52, 0
11, 38304, Note_on_c, 11, 53, 49
11, 38388, Note_off_c, 11, 53, 0
11, 38400, Note_on_c, 11, 52, 49
11, 38484, Note_off_c, 11, 52, 0
11, 38496, Note_on_c, 11, 53, 49
11, 38538, Note_off_c, 11, 53, 0
11, 38544, Note_on_c, 11, 52, 49
11, 38586, Note_off_c, 11, 52, 0
11, 38592, Note_on_c, 11, 50, 49
11, 38634, Note_off_c, 11, 50, 0
11, 38640, Note_on_c, 11, 48, 49
11, 38682, Note_off_c, 11, 48, 0
11, 38688, Note_on_c, 11, 48, 49
11, 38698, Note_off_c, 11, 48, 0
11, 38700, Note_on_c, 11, 47, 49
11, 38710, Note_off_c, 11, 47, 0
11, 38712, Note_on_c, 11, 48, 49
11, 38722, Note_off_c, 11, 48, 0
11, 38724, Note_on_c, 11, 47, 49
11, 38734, Note_off_c, 11, 47, 0
11, 38736, Note_on_c, 11, 48, 49
11, 38746, Note_off_c, 11, 48, 0
11, 38748, Note_on_c, 11, 47, 49
11, 38758, Note_off_c, 11, 47, 0
11, 38760, Note_on_c, 11, 48, 49
11, 38770, Note_off_c, 11, 48, 0
11, 38772, Note_on_c, 11, 47, 49
11, 38782, Note_off_c, 11, 47, 0
11, 38784, Note_on_c, 11, 48, 49
11, 38794, Note_off_c, 11, 48, 0
11, 38796, Note_on_c, 11, 47, 49
11, 38806, Note_off_c, 11, 47, 0
11, 38808, Note_on_c, 11, 48, 49
11, 38818, Note_off_c, 11, 48, 0
11, 38820, Note_on_c, 11, 47, 49
11, 38830, Note_off_c, 11, 47, 0
11, 38832, Note_on_c, 11, 48, 49
11, 38842, Note_off_c, 11, 48, 0
11, 38844, Note_on_c, 11, 47, 49
11, 38854, Note_off_c, 11, 47, 0
11, 38856, Note_on_c, 11, 48, 49
11, 38866, Note_off_c, 11, 48, 0
11, 38868, Note_on_c, 11, 47, 49
11, 38878, Note_off_c, 11, 47, 0
11, 38880, Note_on_c, 11, 48, 49
11, 38964, Note_off_c, 11, 48, 0
11, 38976, Note_on_c, 11, 50, 49
11, 39060, Note_off_c, 11, 50, 0
11, 39072, Note_on_c, 11, 48, 49
11, 39114, Note_off_c, 11, 48, 0
11, 39120, Note_on_c, 11, 47, 49
11, 39162, Note_off_c, 11, 47, 0
11, 39168, Note_on_c, 11, 48, 49
11, 39252, Note_off_c, 11, 48, 0
11, 39264, Note_on_c, 11, 47, 49
11, 39348, Note_off_c, 11, 47, 0
11, 39360, Note_on_c, 11, 48, 49
11, 39402, Note_off_c, 11, 48, 0
11, 39408, Note_on_c, 11, 47, 49
11, 39450, Note_off_c, 11, 47, 0
11, 39456, Note_on_c, 11, 45, 49
11, 39498, Note_off_c, 11, 45, 0
11, 39504, Note_on_c, 11, 43, 49
11, 39546, Note_off_c, 11, 43, 0
11, 39552, Note_on_c, 11, 48, 49
11, 39636, Note_off_c, 11, 48, 0
11, 39648, Note_on_c, 11, 46, 49
11, 39690, Note_off_c, 11, 46, 0
11, 39696, Note_on_c, 11, 45, 49
11, 39738, Note_off_c, 11, 45, 0
11, 39744, Note_on_c, 11, 43, 49
11, 39786, Note_off_c, 11, 43, 0
11, 39792, Note_on_c, 11, 41, 49
11, 39834, Note_off_c, 11, 41, 0
11, 39840, Note_on_c, 11, 40, 49
11, 39924, Note_off_c, 11, 40, 0
11, 39936, Note_on_c, 11, 41, 49
11, 39978, Note_off_c, 11, 41, 0
11, 39984, Note_on_c, 11, 40, 49
11, 40026, Note_off_c, 11, 40, 0
11, 40032, Note_on_c, 11, 38, 49
11, 40074, Note_off_c, 11, 38, 0
11, 40080, Note_on_c, 11, 40, 49
11, 40122, Note_off_c, 11, 40, 0
11, 40128, Note_on_c, 11, 36, 49
11, 40212, Note_off_c, 11, 36, 0
11, 40224, Note_on_c, 11, 48, 49
11, 40266, Note_off_c, 11, 48, 0
11, 40272, Note_on_c, 11, 50, 49
11, 40314, Note_off_c, 11, 50, 0
11, 40320, Note_on_c, 11, 52, 49
11, 40362, Note_off_c, 11, 52, 0
11, 40368, Note_on_c, 11, 48, 49
11, 40410, Note_off_c, 11, 48, 0
11, 40416, Note_on_c, 11, 50, 49
11, 40458, Note_off_c, 11, 50, 0
11, 40464, Note_on_c, 11, 46, 49
11, 40506, Note_off_c, 11, 46, 0
11, 40512, Note_on_c, 11, 48, 49
11, 40596, Note_off_c, 11, 48, 0
11, 40608, Note_on_c, 11, 36, 49
11, 40692, Note_off_c, 11, 36, 0
11, 40704, Note_on_c, 11, 41, 49
11, 40746, Note_off_c, 11, 41, 0
11, 40752, Note_on_c, 11, 43, 49
11, 40794, Note_off_c, 11, 43, 0
11, 40800, Note_on_c, 11, 45, 49
11, 40842, Note_off_c, 11, 45, 0
11, 40848, Note_on_c, 11, 46, 49
11, 40890, Note_off_c, 11, 46, 0
11, 40896, Note_on_c, 11, 48, 49
11, 40938, Note_off_c, 11, 48, 0
11, 40944, Note_on_c, 11, 50, 49
11, 40986, Note_off_c, 11, 50, 0
11, 40992, Note_on_c, 11, 52, 49
11, 41172, Note_off_c, 11, 52, 0
11, 41184, Note_on_c, 11, 53, 49
11, 41268, Note_off_c, 11, 53, 0
11, 41280, Note_on_c, 11, 55, 49
11, 41364, Note_off_c, 11, 55, 0
11, 41376, Note_on_c, 11, 58, 49
11, 41460, Note_off_c, 11, 58, 0
11, 41472, Note_on_c, 11, 57, 49
11, 41556, Note_off_c, 11, 57, 0
11, 41568, Note_on_c, 11, 55, 49
11, 41652, Note_off_c, 11, 55, 0
11, 41664, Note_on_c, 11, 53, 49
11, 41706, Note_off_c, 11, 53, 0
11, 41712, Note_on_c, 11, 52, 49
11, 41754, Note_off_c, 11, 52, 0
11, 41760, Note_on_c, 11, 53, 49
11, 41844, Note_off_c, 11, 53, 0
11, 41856, Note_on_c, 11, 52, 49
11, 41940, Note_off_c, 11, 52, 0
11, 41952, Note_on_c, 11, 53, 49
11, 41994, Note_off_c, 11, 53, 0
11, 42000, Note_on_c, 11, 52, 49
11, 42042, Note_off_c, 11, 52, 0
11, 42048, Note_on_c, 11, 50, 49
11, 42090, Note_off_c, 11, 50, 0
11, 42096, Note_on_c, 11, 48, 49
11, 42138, Note_off_c, 11, 48, 0
11, 42144, Note_on_c, 11, 48, 49
11, 42154, Note_off_c, 11, 48, 0
11, 42156, Note_on_c, 11, 47, 49
11, 42166, Note_off_c, 11, 47, 0
11, 42168, Note_on_c, 11, 48, 49
11, 42178, Note_off_c, 11, 48, 0
11, 42180, Note_on_c, 11, 47, 49
11, 42190, Note_off_c, 11, 47, 0
11, 42192, Note_on_c, 11, 48, 49
11, 42202, Note_off_c, 11, 48, 0
11, 42204, Note_on_c, 11, 47, 49
11, 42214, Note_off_c, 11, 47, 0
11, 42216, Note_on_c, 11, 48, 49
11, 42226, Note_off_c, 11, 48, 0
11, 42228, Note_on_c, 11, 47, 49
11, 42238, Note_off_c, 11, 47, 0
11, 42240, Note_on_c, 11, 48, 49
11, 42250, Note_off_c, 11, 48, 0
11, 42252, Note_on_c, 11, 47, 49
11, 42262, Note_off_c, 11, 47, 0
11, 42264, Note_on_c, 11, 48, 49
11, 42274, Note_off_c, 11, 48, 0
11, 42276, Note_on_c, 11, 47, 49
11, 42286, Note_off_c, 11, 47, 0
11, 42288, Note_on_c, 11, 48, 49
11, 42298, Note_off_c, 11, 48, 0
11, 42300, Note_on_c, 11, 47, 49
11, 42310, Note_off_c, 11, 47, 0
11, 42312, Note_on_c, 11, 48, 49
11, 42322, Note_off_c, 11, 48, 0
11, 42324, Note_on_c, 11, 47, 49
11, 42334, Note_off_c, 11, 47, 0
11, 42336, Note_on_c, 11, 48, 49
11, 42420, Note_off_c, 11, 48, 0
11, 42432, Note_on_c, 11, 50, 49
11, 42516, Note_off_c, 11, 50, 0
11, 42528, Note_on_c, 11, 48, 49
11, 42570, Note_off_c, 11, 48, 0
11, 42576, Note_on_c, 11, 47, 49
11, 42618, Note_off_c, 11, 47, 0
11, 42624, Note_on_c, 11, 48, 49
11, 42708, Note_off_c, 11, 48, 0
11, 42720, Note_on_c, 11, 47, 49
11, 42804, Note_off_c, 11, 47, 0
11, 42816, Note_on_c, 11, 48, 49
11, 42858, Note_off_c, 11, 48, 0
11, 42864, Note_on_c, 11, 47, 49
11, 42906, Note_off_c, 11, 47, 0
11, 42912, Note_on_c, 11, 45, 49
11, 42954, Note_off_c, 11, 45, 0
11, 42960, Note_on_c, 11, 43, 49
11, 43002, Note_off_c, 11, 43, 0
11, 43008, Note_on_c, 11, 48, 49
11, 43092, Note_off_c, 11, 48, 0
11, 43104, Note_on_c, 11, 46, 49
11, 43146, Note_off_c, 11, 46, 0
11, 43152, Note_on_c, 11, 45, 49
11, 43194, Note_off_c, 11, 45, 0
11, 43200, Note_on_c, 11, 43, 49
11, 43242, Note_off_c, 11, 43, 0
11, 43248, Note_on_c, 11, 41, 49
11, 43290, Note_off_c, 11, 41, 0
11, 43296, Note_on_c, 11, 40, 49
11, 43380, Note_off_c, 11, 40, 0
11, 43392, Note_on_c, 11, 41, 49
11, 43434, Note_off_c, 11, 41, 0
11, 43440, Note_on_c, 11, 40, 49
11, 43482, Note_off_c, 11, 40, 0
11, 43488, Note_on_c, 11, 38, 49
11, 43530, Note_off_c, 11, 38, 0
11, 43536, Note_on_c, 11, 40, 49
11, 43578, Note_off_c, 11, 40, 0
11, 43584, Note_on_c, 11, 36, 49
11, 43668, Note_off_c, 11, 36, 0
11, 43680, Note_on_c, 11, 48, 49
11, 43722, Note_off_c, 11, 48, 0
11, 43728, Note_on_c, 11, 50, 49
11, 43770, Note_off_c, 11, 50, 0
11, 43776, Note_on_c, 11, 52, 49
11, 43818, Note_off_c, 11, 52, 0
11, 43824, Note_on_c, 11, 48, 49
11, 43866, Note_off_c, 11, 48, 0
11, 43872, Note_on_c, 11, 50, 49
11, 43914, Note_off_c, 11, 50, 0
11, 43920, Note_on_c, 11, 46, 49
11, 43962, Note_off_c, 11, 46, 0
11, 43968, Note_on_c, 11, 48, 49
11, 44052, Note_off_c, 11, 48, 0
11, 44064, Note_on_c, 11, 36, 49
11, 44148, Note_off_c, 11, 36, 0
11, 44160, Note_on_c, 11, 41, 49
11, 44436, Note_off_c, 11, 41, 0
11, 44736, Tempo, 1000000
11, 44736, End_track
12, 0, Start_track
12, 0, Title_t, "Contrabass"
12, 0, Control_c, 12, 0, 0
12, 0, Program_c, 12, 43
12, 0, Time_signature, 3, 2, 96, 8
12, 0, Tempo, 1000000
12, 96, Tempo, 428571
12, 96, Note_on_c, 12, 45, 49
12, 276, Note_off_c, 12, 45, 0
12, 288, Note_on_c, 12, 46, 49
12, 372, Note_off_c, 12, 46, 0
12, 384, Note_on_c, 12, 48, 49
12, 468, Note_off_c, 12, 48, 0
12, 480, Note_on_c, 12, 51, 49
12, 564, Note_off_c, 12, 51, 0
12, 576, Note_on_c, 12, 50, 49
12, 660, Note_off_c, 12, 50, 0
12, 672, Note_on_c, 12, 48, 49
12, 756, Note_off_c, 12, 48, 0
12, 768, Note_on_c, 12, 46, 49
12, 810, Note_off_c, 12, 46, 0
12, 816, Note_on_c, 12, 45, 49
12, 858, Note_off_c, 12, 45, 0
12, 864, Note_on_c, 12, 46, 49
12, 948, Note_off_c, 12, 46, 0
12, 960, Note_on_c, 12, 45, 49
12, 1044, Note_off_c, 12, 45, 0
12, 1056, Note_on_c, 12, 46, 49
12, 1098, Note_off_c, 12, 46, 0
12, 1104, Note_on_c, 12, 45, 49
12, 1146, Note_off_c, 12, 45, 0
12, 1152, Note_on_c, 12, 43, 49
12, 1194, Note_off_c, 12, 43, 0
12, 1200, Note_on_c, 12, 41, 49
12, 1242, Note_off_c, 12, 41, 0
12, 1248, Note_on_c, 12, 41, 49
12, 1258, Note_off_c, 12, 41, 0
12, 1260, Note_on_c, 12, 40, 49
12, 1270, Note_off_c, 12, 40, 0
12, 1272, Note_on_c, 12, 41, 49
12, 1282, Note_off_c, 12, 41, 0
12, 1284, Note_on_c, 12, 40, 49
12, 1294, Note_off_c, 12, 40, 0
12, 1296, Note_on_c, 12, 41, 49
12, 1306, Note_off_c, 12, 41, 0
12, 1308, Note_on_c, 12, 40, 49
12, 1318, Note_off_c, 12, 40, 0
12, 1320, Note_on_c, 12, 41, 49
12, 1330, Note_off_c, 12, 41, 0
12, 1332, Note_on_c, 12, 40, 49
12, 1342, Note_off_c, 12, 40, 0
12, 1344, Note_on_c, 12, 41, 49
12, 1354, Note_off_c, 12, 41, 0
12, 1356, Note_on_c, 12, 40, 49
12, 1366, Note_off_c, 12, 40, 0
12, 1368, Note_on_c, 12, 41, 49
12, 1378, Note_off_c, 12, 41, 0
12, 1380, Note_on_c, 12, 40, 49
12, 1390, Note_off_c, 12, 40, 0
12, 1392, Note_on_c, 12, 41, 49
12, 1402, Note_off_c, 12, 41, 0
12, 1404, Note_on_c, 12, 40, 49
12, 1414, Note_off_c, 12, 40, 0
12, 1416, Note_on_c, 12, 41, 49
12, 1426, Note_off_c, 12, 41, 0
12, 1428, Note_on_c, 12, 40, 49
12, 1438, Note_off_c, 12, 40, 0
12, 1440, Note_on_c, 12, 41, 49
12, 1524, Note_off_c, 12, 41, 0
12, 1536, Note_on_c, 12, 43, 49
12, 1620, Note_off_c, 12, 43, 0
12, 1632, Note_on_c, 12, 41, 49
12, 1674, Note_off_c, 12, 41, 0
12, 1680, Note_on_c, 12, 40, 49
12, 1722, Note_off_c, 12, 40, 0
12, 1728, Note_on_c, 12, 41, 49
12, 1812, Note_off_c, 12, 41, 0
12, 1824, Note_on_c, 12, 40, 49
12, 1908, Note_off_c, 12, 40, 0
12, 1920, Note_on_c, 12, 41, 49
12, 1962, Note_off_c, 12, 41, 0
12, 1968, Note_on_c, 12, 40, 49
12, 2010, Note_off_c, 12, 40, 0
12, 2016, Note_on_c, 12, 38, 49
12, 2058, Note_off_c, 12, 38, 0
12, 2064, Note_on_c, 12, 36, 49
12, 2106, Note_off_c, 12, 36, 0
12, 2112, Note_on_c, 12, 41, 49
12, 2196, Note_off_c, 12, 41, 0
12, 2208, Note_on_c, 12, 40, 49
12, 2250, Note_off_c, 12, 40, 0
12, 2256, Note_on_c, 12, 38, 49
12, 2298, Note_off_c, 12, 38, 0
12, 2304, Note_on_c, 12, 40, 49
12, 2388, Note_off_c, 12, 40, 0
12, 2400, Note_on_c, 12, 38, 49
12, 2484, Note_off_c, 12, 38, 0
12, 2496, Note_on_c, 12, 40, 49
12, 2580, Note_off_c, 12, 40, 0
12, 2592, Note_on_c, 12, 36, 49
12, 2676, Note_off_c, 12, 36, 0
12, 2688, Note_on_c, 12, 35, 49
12, 2772, Note_off_c, 12, 35, 0
12, 2784, Note_on_c, 12, 33, 49
12, 2826, Note_off_c, 12, 33, 0
12, 2832, Note_on_c, 12, 31, 49
12, 2874, Note_off_c, 12, 31, 0
12, 2880, Note_on_c, 12, 29, 49
12, 2922, Note_off_c, 12, 29, 0
12, 2928, Note_on_c, 12, 28, 49
12, 2970, Note_off_c, 12, 28, 0
12, 2976, Note_on_c, 12, 33, 49
12, 3018, Note_off_c, 12, 33, 0
12, 3024, Note_on_c, 12, 29, 49
12, 3066, Note_off_c, 12, 29, 0
12, 3072, Note_on_c, 12, 31, 49
12, 3156, Note_off_c, 12, 31, 0
12, 3168, Note_on_c, 12, 31, 49
12, 3252, Note_off_c, 12, 31, 0
12, 3264, Note_on_c, 12, 24, 49
12, 3348, Note_off_c, 12, 24, 0
12, 3360, Note_on_c, 12, 36, 49
12, 3402, Note_off_c, 12, 36, 0
12, 3408, Note_on_c, 12, 34, 49
12, 3450, Note_off_c, 12, 34, 0
12, 3456, Note_on_c, 12, 33, 49
12, 3498, Note_off_c, 12, 33, 0
12, 3504, Note_on_c, 12, 31, 49
12, 3546, Note_off_c, 12, 31, 0
12, 3552, Note_on_c, 12, 29, 49
12, 3636, Note_off_c, 12, 29, 0
12, 3648, Note_on_c, 12, 45, 49
12, 3732, Note_off_c, 12, 45, 0
12, 3744, Note_on_c, 12, 46, 49
12, 3828, Note_off_c, 12, 46, 0
12, 3840, Note_on_c, 12, 48, 49
12, 3924, Note_off_c, 12, 48, 0
12, 3936, Note_on_c, 12, 51, 49
12, 4020, Note_off_c, 12, 51, 0
12, 4032, Note_on_c, 12, 50, 49
12, 4116, Note_off_c, 12, 50, 0
12, 4128, Note_on_c, 12, 48, 49
12, 4212, Note_off_c, 12, 48, 0
12, 4224, Note_on_c, 12, 46, 49
12, 4266, Note_off_c, 12, 46, 0
12, 4272, Note_on_c, 12, 45, 49
12, 4314, Note_off_c, 12, 45, 0
12, 4320, Note_on_c, 12, 46, 49
12, 4404, Note_off_c, 12, 46, 0
12, 4416, Note_on_c, 12, 45, 49
12, 4500, Note_off_c, 12, 45, 0
12, 4512, Note_on_c, 12, 46, 49
12, 4554, Note_off_c, 12, 46, 0
12, 4560, Note_on_c, 12, 45, 49
12, 4602, Note_off_c, 12, 45, 0
12, 4608, Note_on_c, 12, 43, 49
12, 4650, Note_off_c, 12, 43, 0
12, 4656, Note_on_c, 12, 41, 49
12, 4698, Note_off_c, 12, 41, 0
12, 4704, Note_on_c, 12, 41, 49
12, 4714, Note_off_c, 12, 41, 0
12, 4716, Note_on_c, 12, 40, 49
12, 4726, Note_off_c, 12, 40, 0
12, 4728, Note_on_c, 12, 41, 49
12, 4738, Note_off_c, 12, 41, 0
12, 4740, Note_on_c, 12, 40, 49
12, 4750, Note_off_c, 12, 40, 0
12, 4752, Note_on_c, 12, 41, 49
12, 4762, Note_off_c, 12, 41, 0
12, 4764, Note_on_c, 12, 40, 49
12, 4774, Note_off_c, 12, 40, 0
12, 4776, Note_on_c, 12, 41, 49
12, 4786, Note_off_c, 12, 41, 0
12, 4788, Note_on_c, 12, 40, 49
12, 4798, Note_off_c, 12, 40, 0
12, 4800, Note_on_c, 12, 41, 49
12, 4810, Note_off_c, 12, 41, 0
12, 4812, Note_on_c, 12, 40, 49
12, 4822, Note_off_c, 12, 40, 0
12, 4824, Note_on_c, 12, 41, 49
12, 4834, Note_off_c, 12, 41, 0
12, 4836, Note_on_c, 12, 40, 49
12, 4846, Note_off_c, 12, 40, 0
12, 4848, Note_on_c, 12, 41, 49
12, 4858, Note_off_c, 12, 41, 0
12, 4860, Note_on_c, 12, 40, 49
12, 4870, Note_off_c, 12, 40, 0
12, 4872, Note_on_c, 12, 41, 49
12, 4882, Note_off_c, 12, 41, 0
12, 4884, Note_on_c, 12, 40, 49
12, 4894, Note_off_c, 12, 40, 0
12, 4896, Note_on_c, 12, 41, 49
12, 4980, Note_off_c, 12, 41, 0
12, 4992, Note_on_c, 12, 43, 49
12, 5076, Note_off_c, 12, 43, 0
12, 5088, Note_on_c, 12, 41, 49
12, 5130, Note_off_c, 12, 41, 0
12, 5136, Note_on_c, 12, 40, 49
12, 5178, Note_off_c, 12, 40, 0
12, 5184, Note_on_c, 12, 41, 49
12, 5268, Note_off_c, 12, 41, 0
12, 5280, Note_on_c, 12, 40, 49
12, 5364, Note_off_c, 12, 40, 0
12, 5376, Note_on_c, 12, 41, 49
12, 5418, Note_off_c, 12, 41, 0
12, 5424, Note_on_c, 12, 40, 49
12, 5466, Note_off_c, 12, 40, 0
12, 5472, Note_on_c, 12, 38, 49
12, 5514, Note_off_c, 12, 38, 0
12, 5520, Note_on_c, 12, 36, 49
12, 5562, Note_off_c, 12, 36, 0
12, 5568, Note_on_c, 12, 41, 49
12, 5652, Note_off_c, 12, 41, 0
12, 5664, Note_on_c, 12, 40, 49
12, 5706, Note_off_c, 12, 40, 0
12, 5712, Note_on_c, 12, 38, 49
12, 5754, Note_off_c, 12, 38, 0
12, 5760, Note_on_c, 12, 40, 49
12, 5844, Note_off_c, 12, 40, 0
12, 5856, Note_on_c, 12, 38, 49
12, 5940, Note_off_c, 12, 38, 0
12, 5952, Note_on_c, 12, 40, 49
12, 6036, Note_off_c, 12, 40, 0
12, 6048, Note_on_c, 12, 36, 49
12, 6132, Note_off_c, 12, 36, 0
12, 6144, Note_on_c, 12, 35, 49
12, 6228, Note_off_c, 12, 35, 0
12, 6240, Note_on_c, 12, 33, 49
12, 6282, Note_off_c, 12, 33, 0
12, 6288, Note_on_c, 12, 31, 49
12, 6330, Note_off_c, 12, 31, 0
12, 6336, Note_on_c, 12, 29, 49
12, 6378, Note_off_c, 12, 29, 0
12, 6384, Note_on_c, 12, 28, 49
12, 6426, Note_off_c, 12, 28, 0
12, 6432, Note_on_c, 12, 33, 49
12, 6474, Note_off_c, 12, 33, 0
12, 6480, Note_on_c, 12, 29, 49
12, 6522, Note_off_c, 12, 29, 0
12, 6528, Note_on_c, 12, 31, 49
12, 6612, Note_off_c, 12, 31, 0
12, 6624, Note_on_c, 12, 31, 49
12, 6708, Note_off_c, 12, 31, 0
12, 6720, Note_on_c, 12, 24, 49
12, 6804, Note_off_c, 12, 24, 0
12, 6816, Note_on_c, 12, 36, 49
12, 6900, Note_off_c, 12, 36, 0
12, 6912, Note_on_c, 12, 38, 49
12, 6996, Note_off_c, 12, 38, 0
12, 7008, Note_on_c, 12, 40, 49
12, 7188, Note_off_c, 12, 40, 0
12, 7200, Note_on_c, 12, 41, 49
12, 7284, Note_off_c, 12, 41, 0
12, 7296, Note_on_c, 12, 43, 49
12, 7380, Note_off_c, 12, 43, 0
12, 7392, Note_on_c, 12, 46, 49
12, 7476, Note_off_c, 12, 46, 0
12, 7488, Note_on_c, 12, 45, 49
12, 7572, Note_off_c, 12, 45, 0
12, 7584, Note_on_c, 12, 43, 49
12, 7668, Note_off_c, 12, 43, 0
12, 7680, Note_on_c, 12, 41, 49
12, 7722, Note_off_c, 12, 41, 0
12, 7728, Note_on_c, 12, 40, 49
12, 7770, Note_off_c, 12, 40, 0
12, 7776, Note_on_c, 12, 41, 49
12, 7860, Note_off_c, 12, 41, 0
12, 7872, Note_on_c, 12, 40, 49
12, 7956, Note_off_c, 12, 40, 0
12, 7968, Note_on_c, 12, 41, 49
12, 8010, Note_off_c, 12, 41, 0
12, 8016, Note_on_c, 12, 40, 49
12, 8058, Note_off_c, 12, 40, 0
12, 8064, Note_on_c, 12, 38, 49
12, 8106, Note_off_c, 12, 38, 0
12, 8112, Note_on_c, 12, 36, 49
12, 8154, Note_off_c, 12, 36, 0
12, 8160, Note_on_c, 12, 36, 49
12, 8170, Note_off_c, 12, 36, 0
12, 8172, Note_on_c, 12, 35, 49
12, 8182, Note_off_c, 12, 35, 0
12, 8184, Note_on_c, 12, 36, 49
12, 8194, Note_off_c, 12, 36, 0
12, 8196, Note_on_c, 12, 35, 49
12, 8206, Note_off_c, 12, 35, 0
12, 8208, Note_on_c, 12, 36, 49
12, 8218, Note_off_c, 12, 36, 0
12, 8220, Note_on_c, 12, 35, 49
12, 8230, Note_off_c, 12, 35, 0
12, 8232, Note_on_c, 12, 36, 49
12, 8242, Note_off_c, 12, 36, 0
12, 8244, Note_on_c, 12, 35, 49
12, 8254, Note_off_c, 12, 35, 0
12, 8256, Note_on_c, 12, 36, 49
12, 8266, Note_off_c, 12, 36, 0
12, 8268, Note_on_c, 12, 35, 49
12, 8278, Note_off_c, 12, 35, 0
12, 8280, Note_on_c, 12, 36, 49
12, 8290, Note_off_c, 12, 36, 0
12, 8292, Note_on_c, 12, 35, 49
12, 8302, Note_off_c, 12, 35, 0
12, 8304, Note_on_c, 12, 36, 49
12, 8314, Note_off_c, 12, 36, 0
12, 8316, Note_on_c, 12, 35, 49
12, 8326, Note_off_c, 12, 35, 0
12, 8328, Note_on_c, 12, 36, 49
12, 8338, Note_off_c, 12, 36, 0
12, 8340, Note_on_c, 12, 35, 49
12, 8350, Note_off_c, 12, 35, 0
12, 8352, Note_on_c, 12, 36, 49
12, 8436, Note_off_c, 12, 36, 0
12, 8448, Note_on_c, 12, 38, 49
12, 8532, Note_off_c, 12, 38, 0
12, 8544, Note_on_c, 12, 36, 49
12, 8586, Note_off_c, 12, 36, 0
12, 8592, Note_on_c, 12, 35, 49
12, 8634, Note_off_c, 12, 35, 0
12, 8640, Note_on_c, 12, 36, 49
12, 8724, Note_off_c, 12, 36, 0
12, 8736, Note_on_c, 12, 35, 49
12, 8820, Note_off_c, 12, 35, 0
12, 8832, Note_on_c, 12, 36, 49
12, 8874, Note_off_c, 12, 36, 0
12, 8880, Note_on_c, 12, 35, 49
12, 8922, Note_off_c, 12, 35, 0
12, 8928, Note_on_c, 12, 33, 49
12, 8970, Note_off_c, 12, 33, 0
12, 8976, Note_on_c, 12, 31, 49
12, 9018, Note_off_c, 12, 31, 0
12, 9024, Note_on_c, 12, 36, 49
12, 9108, Note_off_c, 12, 36, 0
12, 9120, Note_on_c, 12, 34, 49
12, 9162, Note_off_c, 12, 34, 0
12, 9168, Note_on_c, 12, 33, 49
12, 9210, Note_off_c, 12, 33, 0
12, 9216, Note_on_c, 12, 31, 49
12, 9258, Note_off_c, 12, 31, 0
12, 9264, Note_on_c, 12, 29, 49
12, 9306, Note_off_c, 12, 29, 0
12, 9312, Note_on_c, 12, 28, 49
12, 9396, Note_off_c, 12, 28, 0
12, 9408, Note_on_c, 12, 29, 49
12, 9450, Note_off_c, 12, 29, 0
12, 9456, Note_on_c, 12, 28, 49
12, 9498, Note_off_c, 12, 28, 0
12, 9504, Note_on_c, 12, 26, 49
12, 9546, Note_off_c, 12, 26, 0
12, 9552, Note_on_c, 12, 28, 49
12, 9594, Note_off_c, 12, 28, 0
12, 9600, Note_on_c, 12, 24, 49
12, 9684, Note_off_c, 12, 24, 0
12, 9696, Note_on_c, 12, 36, 49
12, 9738, Note_off_c, 12, 36, 0
12, 9744, Note_on_c, 12, 38, 49
12, 9786, Note_off_c, 12, 38, 0
12, 9792, Note_on_c, 12, 40, 49
12, 9834, Note_off_c, 12, 40, 0
12, 9840, Note_on_c, 12, 36, 49
12, 9882, Note_off_c, 12, 36, 0
12, 9888, Note_on_c, 12, 38, 49
12, 9930, Note_off_c, 12, 38, 0
12, 9936, Note_on_c, 12, 34, 49
12, 9978, Note_off_c, 12, 34, 0
12, 9984, Note_on_c, 12, 36, 49
12, 10068, Note_off_c, 12, 36, 0
12, 10080, Note_on_c, 12, 24, 49
12, 10164, Note_off_c, 12, 24, 0
12, 10176, Note_on_c, 12, 29, 49
12, 10218, Note_off_c, 12, 29, 0
12, 10224, Note_on_c, 12, 31, 49
12, 10266, Note_off_c, 12, 31, 0
12, 10272, Note_on_c, 12, 33, 49
12, 10314, Note_off_c, 12, 33, 0
12, 10320, Note_on_c, 12, 34, 49
12, 10362, Note_off_c, 12, 34, 0
12, 10368, Note_on_c, 12, 36, 49
12, 10410, Note_off_c, 12, 36, 0
12, 10416, Note_on_c, 12, 38, 49
12, 10458, Note_off_c, 12, 38, 0
12, 10464, Note_on_c, 12, 40, 49
12, 10644, Note_off_c, 12, 40, 0
12, 10656, Note_on_c, 12, 41, 49
12, 10740, Note_off_c, 12, 41, 0
12, 10752, Note_on_c, 12, 43, 49
12, 10836, Note_off_c, 12, 43, 0
12, 10848, Note_on_c, 12, 46, 49
12, 10932, Note_off_c, 12, 46, 0
12, 10944, Note_on_c, 12, 45, 49
12, 11028, Note_off_c, 12, 45, 0
12, 11040, Note_on_c, 12, 43, 49
12, 11124, Note_off_c, 12, 43, 0
12, 11136, Note_on_c, 12, 41, 49
12, 11178, Note_off_c, 12, 41, 0
12, 11184, Note_on_c, 12, 40, 49
12, 11226, Note_off_c, 12, 40, 0
12, 11232, Note_on_c, 12, 41, 49
12, 11316, Note_off_c, 12, 41, 0
12, 11328, Note_on_c, 12, 40, 49
12, 11412, Note_off_c, 12, 40, 0
12, 11424, Note_on_c, 12, 41, 49
12, 11466, Note_off_c, 12, 41, 0
12, 11472, Note_on_c, 12, 40, 49
12, 11514, Note_off_c, 12, 40, 0
12, 11520, Note_on_c, 12, 38, 49
12, 11562, Note_off_c, 12, 38, 0
12, 11568, Note_on_c, 12, 36, 49
12, 11610, Note_off_c, 12, 36, 0
12, 11616, Note_on_c, 12, 36, 49
12, 11626, Note_off_c, 12, 36, 0
12, 11628, Note_on_c, 12, 35, 49
12, 11638, Note_off_c, 12, 35, 0
12, 11640, Note_on_c, 12, 36, 49
12, 11650, Note_off_c, 12, 36, 0
12, 11652, Note_on_c, 12, 35, 49
12, 11662, Note_off_c, 12, 35, 0
12, 11664, Note_on_c, 12, 36, 49
12, 11674, Note_off_c, 12, 36, 0
12, 11676, Note_on_c, 12, 35, 49
12, 11686, Note_off_c, 12, 35, 0
12, 11688, Note_on_c, 12, 36, 49
12, 11698, Note_off_c, 12, 36, 0
12, 11700, Note_on_c, 12, 35, 49
12, 11710, Note_off_c, 12, 35, 0
12, 11712, Note_on_c, 12, 36, 49
12, 11722, Note_off_c, 12, 36, 0
12, 11724, Note_on_c, 12, 35, 49
12, 11734, Note_off_c, 12, 35, 0
12, 11736, Note_on_c, 12, 36, 49
12, 11746, Note_off_c, 12, 36, 0
12, 11748, Note_on_c, 12, 35, 49
12, 11758, Note_off_c, 12, 35, 0
12, 11760, Note_on_c, 12, 36, 49
12, 11770, Note_off_c, 12, 36, 0
12, 11772, Note_on_c, 12, 35, 49
12, 11782, Note_off_c, 12, 35, 0
12, 11784, Note_on_c, 12, 36, 49
12, 11794, Note_off_c, 12, 36, 0
12, 11796, Note_on_c, 12, 35, 49
12, 11806, Note_off_c, 12, 35, 0
12, 11808, Note_on_c, 12, 36, 49
12, 11892, Note_off_c, 12, 36, 0
12, 11904, Note_on_c, 12, 38, 49
12, 11988, Note_off_c, 12, 38, 0
12, 12000, Note_on_c, 12, 36, 49
12, 12042, Note_off_c, 12, 36, 0
12, 12048, Note_on_c, 12, 35, 49
12, 12090, Note_off_c, 12, 35, 0
12, 12096, Note_on_c, 12, 36, 49
12, 12180, Note_off_c, 12, 36, 0
12, 12192, Note_on_c, 12, 35, 49
12, 12276, Note_off_c, 12, 35, 0
12, 12288, Note_on_c, 12, 36, 49
12, 12330, Note_off_c, 12, 36, 0
12, 12336, Note_on_c, 12, 35, 49
12, 12378, Note_off_c, 12, 35, 0
12, 12384, Note_on_c, 12, 33, 49
12, 12426, Note_off_c, 12, 33, 0
12, 12432, Note_on_c, 12, 31, 49
12, 12474, Note_off_c, 12, 31, 0
12, 12480, Note_on_c, 12, 36, 49
12, 12564, Note_off_c, 12, 36, 0
12, 12576, Note_on_c, 12, 34, 49
12, 12618, Note_off_c, 12, 34, 0
12, 12624, Note_on_c, 12, 33, 49
12, 12666, Note_off_c, 12, 33, 0
12, 12672, Note_on_c, 12, 31, 49
12, 12714, Note_off_c, 12, 31, 0
12, 12720, Note_on_c, 12, 29, 49
12, 12762, Note_off_c, 12, 29, 0
12, 12768, Note_on_c, 12, 28, 49
12, 12852, Note_off_c, 12, 28, 0
12, 12864, Note_on_c, 12, 29, 49
12, 12906, Note_off_c, 12, 29, 0
12, 12912, Note_on_c, 12, 28, 49
12, 12954, Note_off_c, 12, 28, 0
12, 12960, Note_on_c, 12, 26, 49
12, 13002, Note_off_c, 12, 26, 0
12, 13008, Note_on_c, 12, 28, 49
12, 13050, Note_off_c, 12, 28, 0
12, 13056, Note_on_c, 12, 24, 49
12, 13140, Note_off_c, 12, 24, 0
12, 13152, Note_on_c, 12, 36, 49
12, 13194, Note_off_c, 12, 36, 0
12, 13200, Note_on_c, 12, 38, 49
12, 13242, Note_off_c, 12, 38, 0
12, 13248, Note_on_c, 12, 40, 49
12, 13290, Note_off_c, 12, 40, 0
12, 13296, Note_on_c, 12, 36, 49
12, 13338, Note_off_c, 12, 36, 0
12, 13344, Note_on_c, 12, 38, 49
12, 13386, Note_off_c, 12, 38, 0
12, 13392, Note_on_c, 12, 34, 49
12, 13434, Note_off_c, 12, 34, 0
12, 13440, Note_on_c, 12, 36, 49
12, 13524, Note_off_c, 12, 36, 0
12, 13536, Note_on_c, 12, 24, 49
12, 13620, Note_off_c, 12, 24, 0
12, 13632, Note_on_c, 12, 29, 49
12, 13908, Note_off_c, 12, 29, 0
12, 14208, Tempo, 500000
12, 16512, Tempo, 500000
12, 30624, Tempo, 428571
12, 30624, Note_on_c, 12, 45, 49
12, 30804, Note_off_c, 12, 45, 0
12, 30816, Note_on_c, 12, 46, 49
12, 30900, Note_off_c, 12, 46, 0
12, 30912, Note_on_c, 12, 48, 49
12, 30996, Note_off_c, 12, 48, 0
12, 31008, Note_on_c, 12, 51, 49
12, 31092, Note_off_c, 12, 51, 0
12, 31104, Note_on_c, 12, 50, 49
12, 31188, Note_off_c, 12, 50, 0
12, 31200, Note_on_c, 12, 48, 49
12, 31284, Note_off_c, 12, 48, 0
12, 31296, Note_on_c, 12, 46, 49
12, 31338, Note_off_c, 12, 46, 0
12, 31344, Note_on_c, 12, 45, 49
12, 31386, Note_off_c, 12, 45, 0
12, 31392, Note_on_c, 12, 46, 49
12, 31476, Note_off_c, 12, 46, 0
12, 31488, Note_on_c, 12, 45, 49
12, 31572, Note_off_c, 12, 45, 0
12, 31584, Note_on_c, 12, 46, 49
12, 31626, Note_off_c, 12, 46, 0
12, 31632, Note_on_c, 12, 45, 49
12, 31674, Note_off_c, 12, 45, 0
12, 31680, Note_on_c, 12, 43, 49
12, 31722, Note_off_c, 12, 43, 0
12, 31728, Note_on_c, 12, 41, 49
12, 31770, Note_off_c, 12, 41, 0
12, 31776, Note_on_c, 12, 41, 49
12, 31786, Note_off_c, 12, 41, 0
12, 31788, Note_on_c, 12, 40, 49
12, 31798, Note_off_c, 12, 40, 0
12, 31800, Note_on_c, 12, 41, 49
12, 31810, Note_off_c, 12, 41, 0
12, 31812, Note_on_c, 12, 40, 49
12, 31822, Note_off_c, 12, 40, 0
12, 31824, Note_on_c, 12, 41, 49
12, 31834, Note_off_c, 12, 41, 0
12, 31836, Note_on_c, 12, 40, 49
12, 31846, Note_off_c, 12, 40, 0
12, 31848, Note_on_c, 12, 41, 49
12, 31858, Note_off_c, 12, 41, 0
12, 31860, Note_on_c, 12, 40, 49
12, 31870, Note_off_c, 12, 40, 0
12, 31872, Note_on_c, 12, 41, 49
12, 31882, Note_off_c, 12, 41, 0
12, 31884, Note_on_c, 12, 40, 49
12, 31894, Note_off_c, 12, 40, 0
12, 31896, Note_on_c, 12, 41, 49
12, 31906, Note_off_c, 12, 41, 0
12, 31908, Note_on_c, 12, 40, 49
12, 31918, Note_off_c, 12, 40, 0
12, 31920, Note_on_c, 12, 41, 49
12, 31930, Note_off_c, 12, 41, 0
12, 31932, Note_on_c, 12, 40, 49
12, 31942, Note_off_c, 12, 40, 0
12, 31944, Note_on_c, 12, 41, 49
12, 31954, Note_off_c, 12, 41, 0
12, 31956, Note_on_c, 12, 40, 49
12, 31966, Note_off_c, 12, 40, 0
12, 31968, Note_on_c, 12, 41, 49
12, 32052, Note_off_c, 12, 41, 0
12, 32064, Note_on_c, 12, 43, 49
12, 32148, Note_off_c, 12, 43, 0
12, 32160, Note_on_c, 12, 41, 49
12, 32202, Note_off_c, 12, 41, 0
12, 32208, Note_on_c, 12, 40, 49
12, 32250, Note_off_c, 12, 40, 0
12, 32256, Note_on_c, 12, 41, 49
12, 32340, Note_off_c, 12, 41, 0
12, 32352, Note_on_c, 12, 40, 49
12, 32436, Note_off_c, 12, 40, 0
12, 32448, Note_on_c, 12, 41, 49
12, 32490, Note_off_c, 12, 41, 0
12, 32496, Note_on_c, 12, 40, 49
12, 32538, Note_off_c, 12, 40, 0
12, 32544, Note_on_c, 12, 38, 49
12, 32586, Note_off_c, 12, 38, 0
12, 32592, Note_on_c, 12, 36, 49
12, 32634, Note_off_c, 12, 36, 0
12, 32640, Note_on_c, 12, 41, 49
12, 32724, Note_off_c, 12, 41, 0
12, 32736, Note_on_c, 12, 40, 49
12, 32778, Note_off_c, 12, 40, 0
12, 32784, Note_on_c, 12, 38, 49
12, 32826, Note_off_c, 12, 38, 0
12, 32832, Note_on_c, 12, 40, 49
12, 32916, Note_off_c, 12, 40, 0
12, 32928, Note_on_c, 12, 38, 49
12, 33012, Note_off_c, 12, 38, 0
12, 33024, Note_on_c, 12, 40, 49
12, 33108, Note_off_c, 12, 40, 0
12, 33120, Note_on_c, 12, 36, 49
12, 33204, Note_off_c, 12, 36, 0
12, 33216, Note_on_c, 12, 35, 49
12, 33300, Note_off_c, 12, 35, 0
12, 33312, Note_on_c, 12, 33, 49
12, 33354, Note_off_c, 12, 33, 0
12, 33360, Note_on_c, 12, 31, 49
12, 33402, Note_off_c, 12, 31, 0
12, 33408, Note_on_c, 12, 29, 49
12, 33450, Note_off_c, 12, 29, 0
12, 33456, Note_on_c, 12, 28, 49
12, 33498, Note_off_c, 12, 28, 0
12, 33504, Note_on_c, 12, 33, 49
12, 33546, Note_off_c, 12, 33, 0
12, 33552, Note_on_c, 12, 29, 49
12, 33594, Note_off_c, 12, 29, 0
12, 33600, Note_on_c, 12, 31, 49
12, 33684, Note_off_c, 12, 31, 0
12, 33696, Note_on_c, 12, 31, 49
12, 33780, Note_off_c, 12, 31, 0
12, 33792, Note_on_c, 12, 24, 49
12, 33876, Note_off_c, 12, 24, 0
12, 33888, Note_on_c, 12, 36, 49
12, 33930, Note_off_c, 12, 36, 0
12, 33936, Note_on_c, 12, 34, 49
12, 33978, Note_off_c, 12, 34, 0
12, 33984, Note_on_c, 12, 33, 49
12, 34026, Note_off_c, 12, 33, 0
12, 34032, Note_on_c, 12, 31, 49
12, 34074, Note_off_c, 12, 31, 0
12, 34080, Note_on_c, 12, 29, 49
12, 34164, Note_off_c, 12, 29, 0
12, 34176, Note_on_c, 12, 45, 49
12, 34260, Note_off_c, 12, 45, 0
12, 34272, Note_on_c, 12, 46, 49
12, 34356, Note_off_c, 12, 46, 0
12, 34368, Note_on_c, 12, 48, 49
12, 34452, Note_off_c, 12, 48, 0
12, 34464, Note_on_c, 12, 51, 49
12, 34548, Note_off_c, 12, 51, 0
12, 34560, Note_on_c, 12, 50, 49
12, 34644, Note_off_c, 12, 50, 0
12, 34656, Note_on_c, 12, 48, 49
12, 34740, Note_off_c, 12, 48, 0
12, 34752, Note_on_c, 12, 46, 49
12, 34794, Note_off_c, 12, 46, 0
12, 34800, Note_on_c, 12, 45, 49
12, 34842, Note_off_c, 12, 45, 0
12, 34848, Note_on_c, 12, 46, 49
12, 34932, Note_off_c, 12, 46, 0
12, 34944, Note_on_c, 12, 45, 49
12, 35028, Note_off_c, 12, 45, 0
12, 35040, Note_on_c, 12, 46, 49
12, 35082, Note_off_c, 12, 46, 0
12, 35088, Note_on_c, 12, 45, 49
12, 35130, Note_off_c, 12, 45, 0
12, 35136, Note_on_c, 12, 43, 49
12, 35178, Note_off_c, 12, 43, 0
12, 35184, Note_on_c, 12, 41, 49
12, 35226, Note_off_c, 12, 41, 0
12, 35232, Note_on_c, 12, 41, 49
12, 35242, Note_off_c, 12, 41, 0
12, 35244, Note_on_c, 12, 40, 49
12, 35254, Note_off_c, 12, 40, 0
12, 35256, Note_on_c, 12, 41, 49
12, 35266, Note_off_c, 12, 41, 0
12, 35268, Note_on_c, 12, 40, 49
12, 35278, Note_off_c, 12, 40, 0
12, 35280, Note_on_c, 12, 41, 49
12, 35290, Note_off_c, 12, 41, 0
12, 35292, Note_on_c, 12, 40, 49
12, 35302, Note_off_c, 12, 40, 0
12, 35304, Note_on_c, 12, 41, 49
12, 35314, Note_off_c, 12, 41, 0
12, 35316, Note_on_c, 12, 40, 49
12, 35326, Note_off_c, 12, 40, 0
12, 35328, Note_on_c, 12, 41, 49
12, 35338, Note_off_c, 12, 41, 0
12, 35340, Note_on_c, 12, 40, 49
12, 35350, Note_off_c, 12, 40, 0
12, 35352, Note_on_c, 12, 41, 49
12, 35362, Note_off_c, 12, 41, 0
12, 35364, Note_on_c, 12, 40, 49
12, 35374, Note_off_c, 12, 40, 0
12, 35376, Note_on_c, 12, 41, 49
12, 35386, Note_off_c, 12, 41, 0
12, 35388, Note_on_c, 12, 40, 49
12, 35398, Note_off_c, 12, 40, 0
12, 35400, Note_on_c, 12, 41, 49
12, 35410, Note_off_c, 12, 41, 0
12, 35412, Note_on_c, 12, 40, 49
12, 35422, Note_off_c, 12, 40, 0
12, 35424, Note_on_c, 12, 41, 49
12, 35508, Note_off_c, 12, 41, 0
12, 35520, Note_on_c, 12, 43, 49
12, 35604, Note_off_c, 12, 43, 0
12, 35616, Note_on_c, 12, 41, 49
12, 35658, Note_off_c, 12, 41, 0
12, 35664, Note_on_c, 12, 40, 49
12, 35706, Note_off_c, 12, 40, 0
12, 35712, Note_on_c, 12, 41, 49
12, 35796, Note_off_c, 12, 41, 0
12, 35808, Note_on_c, 12, 40, 49
12, 35892, Note_off_c, 12, 40, 0
12, 35904, Note_on_c, 12, 41, 49
12, 35946, Note_off_c, 12, 41, 0
12, 35952, Note_on_c, 12, 40, 49
12, 35994, Note_off_c, 12, 40, 0
12, 36000, Note_on_c, 12, 38, 49
12, 36042, Note_off_c, 12, 38, 0
12, 36048, Note_on_c, 12, 36, 49
12, 36090, Note_off_c, 12, 36, 0
12, 36096, Note_on_c, 12, 41, 49
12, 36180, Note_off_c, 12, 41, 0
12, 36192, Note_on_c, 12, 40, 49
12, 36234, Note_off_c, 12, 40, 0
12, 36240, Note_on_c, 12, 38, 49
12, 36282, Note_off_c, 12, 38, 0
12, 36288, Note_on_c, 12, 40, 49
12, 36372, Note_off_c, 12, 40, 0
12, 36384, Note_on_c, 12, 38, 49
12, 36468, Note_off_c, 12, 38, 0
12, 36480, Note_on_c, 12, 40, 49
12, 36564, Note_off_c, 12, 40, 0
12, 36576, Note_on_c, 12, 36, 49
12, 36660, Note_off_c, 12, 36, 0
12, 36672, Note_on_c, 12, 35, 49
12, 36756, Note_off_c, 12, 35, 0
12, 36768, Note_on_c, 12, 33, 49
12, 36810, Note_off_c, 12, 33, 0
12, 36816, Note_on_c, 12, 31, 49
12, 36858, Note_off_c, 12, 31, 0
12, 36864, Note_on_c, 12, 29, 49
12, 36906, Note_off_c, 12, 29, 0
12, 36912, Note_on_c, 12, 28, 49
12, 36954, Note_off_c, 12, 28, 0
12, 36960, Note_on_c, 12, 33, 49
12, 37002, Note_off_c, 12, 33, 0
12, 37008, Note_on_c, 12, 29, 49
12, 37050, Note_off_c, 12, 29, 0
12, 37056, Note_on_c, 12, 31, 49
12, 37140, Note_off_c, 12, 31, 0
12, 37152, Note_on_c, 12, 31, 49
12, 37236, Note_off_c, 12, 31, 0
12, 37248, Note_on_c, 12, 24, 49
12, 37332, Note_off_c, 12, 24, 0
12, 37344, Note_on_c, 12, 36, 49
12, 37428, Note_off_c, 12, 36, 0
12, 37440, Note_on_c, 12, 38, 49
12, 37524, Note_off_c, 12, 38, 0
12, 37536, Note_on_c, 12, 40, 49
12, 37716, Note_off_c, 12, 40, 0
12, 37728, Note_on_c, 12, 41, 49
12, 37812, Note_off_c, 12, 41, 0
12, 37824, Note_on_c, 12, 43, 49
12, 37908, Note_off_c, 12, 43, 0
12, 37920, Note_on_c, 12, 46, 49
12, 38004, Note_off_c, 12, 46, 0
12, 38016, Note_on_c, 12, 45, 49
12, 38100, Note_off_c, 12, 45, 0
12, 38112, Note_on_c, 12, 43, 49
12, 38196, Note_off_c, 12, 43, 0
12, 38208, Note_on_c, 12, 41, 49
12, 38250, Note_off_c, 12, 41, 0
12, 38256, Note_on_c, 12, 40, 49
12, 38298, Note_off_c, 12, 40, 0
12, 38304, Note_on_c, 12, 41, 49
12, 38388, Note_off_c, 12, 41, 0
12, 38400, Note_on_c, 12, 40, 49
12, 38484, Note_off_c, 12, 40, 0
12, 38496, Note_on_c, 12, 41, 49
12, 38538, Note_off_c, 12, 41, 0
12, 38544, Note_on_c, 12, 40, 49
12, 38586, Note_off_c, 12, 40, 0
12, 38592, Note_on_c, 12, 38, 49
12, 38634, Note_off_c, 12, 38, 0
12, 38640, Note_on_c, 12, 36, 49
12, 38682, Note_off_c, 12, 36, 0
12, 38688, Note_on_c, 12, 36, 49
12, 38698, Note_off_c, 12, 36, 0
12, 38700, Note_on_c, 12, 35, 49
12, 38710, Note_off_c, 12, 35, 0
12, 38712, Note_on_c, 12, 36, 49
12, 38722, Note_off_c, 12, 36, 0
12, 38724, Note_on_c, 12, 35, 49
12, 38734, Note_off_c, 12, 35, 0
12, 38736, Note_on_c, 12, 36, 49
12, 38746, Note_off_c, 12, 36, 0
12, 38748, Note_on_c, 12, 35, 49
12, 38758, Note_off_c, 12, 35, 0
12, 38760, Note_on_c, 12, 36, 49
12, 38770, Note_off_c, 12, 36, 0
12, 38772, Note_on_c, 12, 35, 49
12, 38782, Note_off_c, 12, 35, 0
12, 38784, Note_on_c, 12, 36, 49
12, 38794, Note_off_c, 12, 36, 0
12, 38796, Note_on_c, 12, 35, 49
12, 38806, Note_off_c, 12, 35, 0
12, 38808, Note_on_c, 12, 36, 49
12, 38818, Note_off_c, 12, 36, 0
12, 38820, Note_on_c, 12, 35, 49
12, 38830, Note_off_c, 12, 35, 0
12, 38832, Note_on_c, 12, 36, 49
12, 38842, Note_off_c, 12, 36, 0
12, 38844, Note_on_c, 12, 35, 49
12, 38854, Note_off_c, 12, 35, 0
12, 38856, Note_on_c, 12, 36, 49
12, 38866, Note_off_c, 12, 36, 0
12, 38868, Note_on_c, 12, 35, 49
12, 38878, Note_off_c, 12, 35, 0
12, 38880, Note_on_c, 12, 36, 49
12, 38964, Note_off_c, 12, 36, 0
12, 38976, Note_on_c, 12, 38, 49
12, 39060, Note_off_c, 12, 38, 0
12, 39072, Note_on_c, 12, 36, 49
12, 39114, Note_off_c, 12, 36, 0
12, 39120, Note_on_c, 12, 35, 49
12, 39162, Note_off_c, 12, 35, 0
12, 39168, Note_on_c, 12, 36, 49
12, 39252, Note_off_c, 12, 36, 0
12, 39264, Note_on_c, 12, 35, 49
12, 39348, Note_off_c, 12, 35, 0
12, 39360, Note_on_c, 12, 36, 49
12, 39402, Note_off_c, 12, 36, 0
12, 39408, Note_on_c, 12, 35, 49
12, 39450, Note_off_c, 12, 35, 0
12, 39456, Note_on_c, 12, 33, 49
12, 39498, Note_off_c, 12, 33, 0
12, 39504, Note_on_c, 12, 31, 49
12, 39546, Note_off_c, 12, 31, 0
12, 39552, Note_on_c, 12, 36, 49
12, 39636, Note_off_c, 12, 36, 0
12, 39648, Note_on_c, 12, 34, 49
12, 39690, Note_off_c, 12, 34, 0
12, 39696, Note_on_c, 12, 33, 49
12, 39738, Note_off_c, 12, 33, 0
12, 39744, Note_on_c, 12, 31, 49
12, 39786, Note_off_c, 12, 31, 0
12, 39792, Note_on_c, 12, 29, 49
12, 39834, Note_off_c, 12, 29, 0
12, 39840, Note_on_c, 12, 28, 49
12, 39924, Note_off_c, 12, 28, 0
12, 39936, Note_on_c, 12, 29, 49
12, 39978, Note_off_c, 12, 29, 0
12, 39984, Note_on_c, 12, 28, 49
12, 40026, Note_off_c, 12, 28, 0
12, 40032, Note_on_c, 12, 26, 49
12, 40074, Note_off_c, 12, 26, 0
12, 40080, Note_on_c, 12, 28, 49
12, 40122, Note_off_c, 12, 28, 0
12, 40128, Note_on_c, 12, 24, 49
12, 40212, Note_off_c, 12, 24, 0
12, 40224, Note_on_c, 12, 36, 49
12, 40266, Note_off_c, 12, 36, 0
12, 40272, Note_on_c, 12, 38, 49
12, 40314, Note_off_c, 12, 38, 0
12, 40320, Note_on_c, 12, 40, 49
12, 40362, Note_off_c, 12, 40, 0
12, 40368, Note_on_c, 12, 36, 49
12, 40410, Note_off_c, 12, 36, 0
12, 40416, Note_on_c, 12, 38, 49
12, 40458, Note_off_c, 12, 38, 0
12, 40464, Note_on_c, 12, 34, 49
12, 40506, Note_off_c, 12, 34, 0
12, 40512, Note_on_c, 12, 36, 49
12, 40596, Note_off_c, 12, 36, 0
12, 40608, Note_on_c, 12, 24, 49
12, 40692, Note_off_c, 12, 24, 0
12, 40704, Note_on_c, 12, 29, 49
12, 40746, Note_off_c, 12, 29, 0
12, 40752, Note_on_c, 12, 31, 49
12, 40794, Note_off_c, 12, 31, 0
12, 40800, Note_on_c, 12, 33, 49
12, 40842, Note_off_c, 12, 33, 0
12, 40848, Note_on_c, 12, 34, 49
12, 40890, Note_off_c, 12, 34, 0
12, 40896, Note_on_c, 12, 36, 49
12, 40938, Note_off_c, 12, 36, 0
12, 40944, Note_on_c, 12, 38, 49
12, 40986, Note_off_c, 12, 38, 0
12, 40992, Note_on_c, 12, 40, 49
12, 41172, Note_off_c, 12, 40, 0
12, 41184, Note_on_c, 12, 41, 49
12, 41268, Note_off_c, 12, 41, 0
12, 41280, Note_on_c, 12, 43, 49
12, 41364, Note_off_c, 12, 43, 0
12, 41376, Note_on_c, 12, 46, 49
12, 41460, Note_off_c, 12, 46, 0
12, 41472, Note_on_c, 12, 45, 49
12, 41556, Note_off_c, 12, 45, 0
12, 41568, Note_on_c, 12, 43, 49
12, 41652, Note_off_c, 12, 43, 0
12, 41664, Note_on_c, 12, 41, 49
12, 41706, Note_off_c, 12, 41, 0
12, 41712, Note_on_c, 12, 40, 49
12, 41754, Note_off_c, 12, 40, 0
12, 41760, Note_on_c, 12, 41, 49
12, 41844, Note_off_c, 12, 41, 0
12, 41856, Note_on_c, 12, 40, 49
12, 41940, Note_off_c, 12, 40, 0
12, 41952, Note_on_c, 12, 41, 49
12, 41994, Note_off_c, 12, 41, 0
12, 42000, Note_on_c, 12, 40, 49
12, 42042, Note_off_c, 12, 40, 0
12, 42048, Note_on_c, 12, 38, 49
12, 42090, Note_off_c, 12, 38, 0
12, 42096, Note_on_c, 12, 36, 49
12, 42138, Note_off_c, 12, 36, 0
12, 42144, Note_on_c, 12, 36, 49
12, 42154, Note_off_c, 12, 36, 0
12, 42156, Note_on_c, 12, 35, 49
12, 42166, Note_off_c, 12, 35, 0
12, 42168, Note_on_c, 12, 36, 49
12, 42178, Note_off_c, 12, 36, 0
12, 42180, Note_on_c, 12, 35, 49
12, 42190, Note_off_c, 12, 35, 0
12, 42192, Note_on_c, 12, 36, 49
12, 42202, Note_off_c, 12, 36, 0
12, 42204, Note_on_c, 12, 35, 49
12, 42214, Note_off_c, 12, 35, 0
12, 42216, Note_on_c, 12, 36, 49
12, 42226, Note_off_c, 12, 36, 0
12, 42228, Note_on_c, 12, 35, 49
12, 42238, Note_off_c, 12, 35, 0
12, 42240, Note_on_c, 12, 36, 49
12, 42250, Note_off_c, 12, 36, 0
12, 42252, Note_on_c, 12, 35, 49
12, 42262, Note_off_c, 12, 35, 0
12, 42264, Note_on_c, 12, 36, 49
12, 42274, Note_off_c, 12, 36, 0
12, 42276, Note_on_c, 12, 35, 49
12, 42286, Note_off_c, 12, 35, 0
12, 42288, Note_on_c, 12, 36, 49
12, 42298, Note_off_c, 12, 36, 0
12, 42300, Note_on_c, 12, 35, 49
12, 42310, Note_off_c, 12, 35, 0
12, 42312, Note_on_c, 12, 36, 49
12, 42322, Note_off_c, 12, 36, 0
12, 42324, Note_on_c, 12, 35, 49
12, 42334, Note_off_c, 12, 35, 0
12, 42336, Note_on_c, 12, 36, 49
12, 42420, Note_off_c, 12, 36, 0
12, 42432, Note_on_c, 12, 38, 49
12, 42516, Note_off_c, 12, 38, 0
12, 42528, Note_on_c, 12, 36, 49
12, 42570, Note_off_c, 12, 36, 0
12, 42576, Note_on_c, 12, 35, 49
12, 42618, Note_off_c, 12, 35, 0
12, 42624, Note_on_c, 12, 36, 49
12, 42708, Note_off_c, 12, 36, 0
12, 42720, Note_on_c, 12, 35, 49
12, 42804, Note_off_c, 12, 35, 0
12, 42816, Note_on_c, 12, 36, 49
12, 42858, Note_off_c, 12, 36, 0
12, 42864, Note_on_c, 12, 35, 49
12, 42906, Note_off_c, 12, 35, 0
12, 42912, Note_on_c, 12, 33, 49
12, 42954, Note_off_c, 12, 33, 0
12, 42960, Note_on_c, 12, 31, 49
12, 43002, Note_off_c, 12, 31, 0
12, 43008, Note_on_c, 12, 36, 49
12, 43092, Note_off_c, 12, 36, 0
12, 43104, Note_on_c, 12, 34, 49
12, 43146, Note_off_c, 12, 34, 0
12, 43152, Note_on_c, 12, 33, 49
12, 43194, Note_off_c, 12, 33, 0
12, 43200, Note_on_c, 12, 31, 49
12, 43242, Note_off_c, 12, 31, 0
12, 43248, Note_on_c, 12, 29, 49
12, 43290, Note_off_c, 12, 29, 0
12, 43296, Note_on_c, 12, 28, 49
12, 43380, Note_off_c, 12, 28, 0
12, 43392, Note_on_c, 12, 29, 49
12, 43434, Note_off_c, 12, 29, 0
12, 43440, Note_on_c, 12, 28, 49
12, 43482, Note_off_c, 12, 28, 0
12, 43488, Note_on_c, 12, 26, 49
12, 43530, Note_off_c, 12, 26, 0
12, 43536, Note_on_c, 12, 28, 49
12, 43578, Note_off_c, 12, 28, 0
12, 43584, Note_on_c, 12, 24, 49
12, 43668, Note_off_c, 12, 24, 0
12, 43680, Note_on_c, 12, 36, 49
12, 43722, Note_off_c, 12, 36, 0
12, 43728, Note_on_c, 12, 38, 49
12, 43770, Note_off_c, 12, 38, 0
12, 43776, Note_on_c, 12, 40, 49
12, 43818, Note_off_c, 12, 40, 0
12, 43824, Note_on_c, 12, 36, 49
12, 43866, Note_off_c, 12, 36, 0
12, 43872, Note_on_c, 12, 38, 49
12, 43914, Note_off_c, 12, 38, 0
12, 43920, Note_on_c, 12, 34, 49
12, 43962, Note_off_c, 12, 34, 0
12, 43968, Note_on_c, 12, 36, 49
12, 44052, Note_off_c, 12, 36, 0
12, 44064, Note_on_c, 12, 24, 49
12, 44148, Note_off_c, 12, 24, 0
12, 44160, Note_on_c, 12, 29, 49
12, 44436, Note_off_c, 12, 29, 0
12, 44736, Tempo, 1000000
12, 44736, End_track
13, 0, Start_track
13, 0, Title_t, "Continuo"
13, 0, Control_c, 13, 0, 0
13, 0, Program_c, 13, 6
13, 0, Time_signature, 3, 2, 96, 8
13, 0, Tempo, 1000000
13, 96, Tempo, 428571
13, 96, Note_on_c, 13, 65, 96
13, 96, Note_on_c, 13, 72, 96
13, 96, Note_on_c, 13, 57, 96
13, 180, Note_off_c, 13, 65, 0
13, 180, Note_off_c, 13, 72, 0
13, 192, Note_on_c, 13, 63, 96
13, 192, Note_on_c, 13, 72, 96
13, 276, Note_off_c, 13, 57, 0
13, 276, Note_off_c, 13, 63, 0
13, 276, Note_off_c, 13, 72, 0
13, 288, Note_on_c, 13, 65, 96
13, 288, Note_on_c, 13, 74, 96
13, 288, Note_on_c, 13, 58, 96
13, 372, Note_off_c, 13, 65, 0
13, 372, Note_off_c, 13, 74, 0
13, 372, Note_off_c, 13, 58, 0
13, 384, Note_on_c, 13, 69, 96
13, 384, Note_on_c, 13, 75, 96
13, 384, Note_on_c, 13, 60, 96
13, 468, Note_off_c, 13, 69, 0
13, 468, Note_off_c, 13, 75, 0
13, 468, Note_off_c, 13, 60, 0
13, 480, Note_on_c, 13, 70, 96
13, 480, Note_on_c, 13, 75, 96
13, 480, Note_on_c, 13, 63, 96
13, 564, Note_off_c, 13, 70, 0
13, 564, Note_off_c, 13, 75, 0
13, 564, Note_off_c, 13, 63, 0
13, 576, Note_on_c, 13, 62, 96
13, 576, Note_on_c, 13, 70, 96
13, 576, Note_on_c, 13, 62, 96
13, 660, Note_off_c, 13, 62, 0
13, 660, Note_off_c, 13, 70, 0
13, 660, Note_off_c, 13, 62, 0
13, 672, Note_on_c, 13, 69, 96
13, 672, Note_on_c, 13, 75, 96
13, 672, Note_on_c, 13, 60, 96
13, 756, Note_off_c, 13, 69, 0
13, 756, Note_off_c, 13, 75, 0
13, 756, Note_off_c, 13, 60, 0
13, 768, Note_on_c, 13, 63, 96
13, 768, Note_on_c, 13, 72, 96
13, 768, Note_on_c, 13, 58, 96
13, 810, Note_off_c, 13, 58, 0
13, 816, Note_on_c, 13, 57, 96
13, 852, Note_off_c, 13, 63, 0
13, 852, Note_off_c, 13, 72, 0
13, 858, Note_off_c, 13, 57, 0
13, 864, Note_on_c, 13, 65, 96
13, 864, Note_on_c, 13, 74, 96
13, 864, Note_on_c, 13, 58, 96
13, 948, Note_off_c, 13, 65, 0
13, 948, Note_off_c, 13, 74, 0
13, 948, Note_off_c, 13, 58, 0
13, 960, Note_on_c, 13, 65, 96
13, 960, Note_on_c, 13, 72, 96
13, 960, Note_on_c, 13, 57, 96
13, 1044, Note_off_c, 13, 65, 0
13, 1044, Note_off_c, 13, 72, 0
13, 1044, Note_off_c, 13, 57, 0
13, 1056, Note_on_c, 13, 65, 96
13, 1056, Note_on_c, 13, 70, 96
13, 1056, Note_on_c, 13, 58, 96
13, 1098, Note_off_c, 13, 58, 0
13, 1104, Note_on_c, 13, 57, 96
13, 1140, Note_off_c, 13, 65, 0
13, 1140, Note_off_c, 13, 70, 0
13, 1146, Note_off_c, 13, 57, 0
13, 1152, Note_on_c, 13, 60, 96
13, 1152, Note_on_c, 13, 69, 96
13, 1152, Note_on_c, 13, 55, 96
13, 1194, Note_off_c, 13, 55, 0
13, 1200, Note_on_c, 13, 53, 96
13, 1236, Note_off_c, 13, 60, 0
13, 1236, Note_off_c, 13, 69, 0
13, 1242, Note_off_c, 13, 53, 0
13, 1248, Note_on_c, 13, 67, 96
13, 1248, Note_on_c, 13, 72, 96
13, 1248, Note_on_c, 13, 53, 96
13, 1258, Note_off_c, 13, 53, 0
13, 1260, Note_on_c, 13, 52, 96
13, 1270, Note_off_c, 13, 52, 0
13, 1272, Note_on_c, 13, 53, 96
13, 1282, Note_off_c, 13, 53, 0
13, 1284, Note_on_c, 13, 52, 96
13, 1294, Note_off_c, 13, 52, 0
13, 1296, Note_on_c, 13, 53, 96
13, 1306, Note_off_c, 13, 53, 0
13, 1308, Note_on_c, 13, 52, 96
13, 1318, Note_off_c, 13, 52, 0
13, 1320, Note_on_c, 13, 53, 96
13, 1330, Note_off_c, 13, 53, 0
13, 1332, Note_off_c, 13, 67, 0
13, 1332, Note_off_c, 13, 72, 0
13, 1332, Note_on_c, 13, 52, 96
13, 1342, Note_off_c, 13, 52, 0
13, 1344, Note_on_c, 13, 60, 96
13, 1344, Note_on_c, 13, 67, 96
13, 1344, Note_on_c, 13, 53, 96
13, 1354, Note_off_c, 13, 53, 0
13, 1356, Note_on_c, 13, 52, 96
13, 1366, Note_off_c, 13, 52, 0
13, 1368, Note_on_c, 13, 53, 96
13, 1378, Note_off_c, 13, 53, 0
13, 1380, Note_on_c, 13, 52, 96
13, 1390, Note_off_c, 13, 52, 0
13, 1392, Note_on_c, 13, 53, 96
13, 1402, Note_off_c, 13, 53, 0
13, 1404, Note_on_c, 13, 52, 96
13, 1414, Note_off_c, 13, 52, 0
13, 1416, Note_on_c, 13, 53, 96
13, 1426, Note_off_c, 13, 53, 0
13, 1428, Note_off_c, 13, 60, 0
13, 1428, Note_off_c, 13, 67, 0
13, 1428, Note_on_c, 13, 52, 96
13, 1438, Note_off_c, 13, 52, 0
13, 1440, Note_on_c, 13, 60, 96
13, 1440, Note_on_c, 13, 69, 96
13, 1440, Note_on_c, 13, 53, 96
13, 1524, Note_off_c, 13, 60, 0
13, 1524, Note_off_c, 13, 69, 0
13, 1524, Note_off_c, 13, 53, 0
13, 1536, Note_on_c, 13, 64, 96
13, 1536, Note_on_c, 13, 70, 96
13, 1536, Note_on_c, 13, 55, 96
13, 1620, Note_off_c, 13, 64, 0
13, 1620, Note_off_c, 13, 70, 0
13, 1620, Note_off_c, 13, 55, 0
13, 1632, Note_on_c, 13, 62, 96
13, 1632, Note_on_c, 13, 69, 96
13, 1632, Note_on_c, 13, 53, 96
13, 1674, Note_off_c, 13, 53, 0
13, 1680, Note_on_c, 13, 52, 96
13, 1716, Note_off_c, 13, 62, 0
13, 1716, Note_off_c, 13, 69, 0
13, 1722, Note_off_c, 13, 52, 0
13, 1728, Note_on_c, 13, 69, 96
13, 1728, Note_on_c, 13, 74, 96
13, 1728, Note_on_c, 13, 53, 96
13, 1812, Note_off_c, 13, 69, 0
13, 1812, Note_off_c, 13, 74, 0
13, 1812, Note_off_c, 13, 53, 0
13, 1824, Note_on_c, 13, 67, 96
13, 1824, Note_on_c, 13, 72, 96
13, 1824, Note_on_c, 13, 52, 96
13, 1908, Note_off_c, 13, 67, 0
13, 1908, Note_off_c, 13, 72, 0
13, 1908, Note_off_c, 13, 52, 0
13, 1920, Note_on_c, 13, 60, 96
13, 1920, Note_on_c, 13, 69, 96
13, 1920, Note_on_c, 13, 53, 96
13, 1962, Note_off_c, 13, 53, 0
13, 1968, Note_on_c, 13, 52, 96
13, 2004, Note_off_c, 13, 60, 0
13, 2004, Note_off_c, 13, 69, 0
13, 2010, Note_off_c, 13, 52, 0
13, 2016, Note_on_c, 13, 64, 96
13, 2016, Note_on_c, 13, 72, 96
13, 2016, Note_on_c, 13, 50, 96
13, 2058, Note_off_c, 13, 50, 0
13, 2064, Note_on_c, 13, 48, 96
13, 2100, Note_off_c, 13, 64, 0
13, 2100, Note_off_c, 13, 72, 0
13, 2106, Note_off_c, 13, 48, 0
13, 2112, Note_on_c, 13, 60, 96
13, 2112, Note_on_c, 13, 69, 96
13, 2112, Note_on_c, 13, 53, 96
13, 2196, Note_off_c, 13, 60, 0
13, 2196, Note_off_c, 13, 69, 0
13, 2196, Note_off_c, 13, 53, 0
13, 2208, Note_on_c, 13, 69, 96
13, 2208, Note_on_c, 13, 72, 96
13, 2208, Note_on_c, 13, 52, 96
13, 2250, Note_off_c, 13, 52, 0
13, 2256, Note_on_c, 13, 50, 96
13, 2292, Note_off_c, 13, 69, 0
13, 2292, Note_off_c, 13, 72, 0
13, 2298, Note_off_c, 13, 50, 0
13, 2304, Note_on_c, 13, 67, 96
13, 2304, Note_on_c, 13, 72, 96
13, 2304, Note_on_c, 13, 52, 96
13, 2388, Note_off_c, 13, 67, 0
13, 2388, Note_off_c, 13, 72, 0
13, 2388, Note_off_c, 13, 52, 0
13, 2400, Note_on_c, 13, 65, 96
13, 2400, Note_on_c, 13, 71, 96
13, 2400, Note_on_c, 13, 50, 96
13, 2484, Note_off_c, 13, 65, 0
13, 2484, Note_off_c, 13, 71, 0
13, 2484, Note_off_c, 13, 50, 0
13, 2496, Note_on_c, 13, 67, 96
13, 2496, Note_on_c, 13, 72, 96
13, 2496, Note_on_c, 13, 52, 96
13, 2580, Note_off_c, 13, 67, 0
13, 2580, Note_off_c, 13, 72, 0
13, 2580, Note_off_c, 13, 52, 0
13, 2592, Note_on_c, 13, 67, 96
13, 2592, Note_on_c, 13, 76, 96
13, 2592, Note_on_c, 13, 48, 96
13, 2676, Note_off_c, 13, 67, 0
13, 2676, Note_off_c, 13, 76, 0
13, 2676, Note_off_c, 13, 48, 0
13, 2688, Note_on_c, 13, 67, 96
13, 2688, Note_on_c, 13, 74, 96
13, 2688, Note_on_c, 13, 47, 96
13, 2772, Note_off_c, 13, 67, 0
13, 2772, Note_off_c, 13, 74, 0
13, 2772, Note_off_c, 13, 47, 0
13, 2784, Note_on_c, 13, 67, 96
13, 2784, Note_on_c, 13, 72, 96
13, 2784, Note_on_c, 13, 45, 96
13, 2826, Note_off_c, 13, 45, 0
13, 2832, Note_on_c, 13, 43, 96
13, 2868, Note_off_c, 13, 67, 0
13, 2868, Note_off_c, 13, 72, 0
13, 2874, Note_off_c, 13, 43, 0
13, 2880, Note_on_c, 13, 67, 96
13, 2880, Note_on_c, 13, 72, 96
13, 2880, Note_on_c, 13, 41, 96
13, 2922, Note_off_c, 13, 41, 0
13, 2928, Note_on_c, 13, 40, 96
13, 2964, Note_off_c, 13, 67, 0
13, 2964, Note_off_c, 13, 72, 0
13, 2970, Note_off_c, 13, 40, 0
13, 2976, Note_on_c, 13, 65, 96
13, 2976, Note_on_c, 13, 72, 96
13, 2976, Note_on_c, 13, 45, 96
13, 3018, Note_off_c, 13, 45, 0
13, 3024, Note_on_c, 13, 41, 96
13, 3060, Note_off_c, 13, 65, 0
13, 3060, Note_off_c, 13, 72, 0
13, 3066, Note_off_c, 13, 41, 0
13, 3072, Note_on_c, 13, 62, 96
13, 3072, Note_on_c, 13, 70, 96
13, 3072, Note_on_c, 13, 43, 96
13, 3156, Note_off_c, 13, 62, 0
13, 3156, Note_off_c, 13, 70, 0
13, 3156, Note_off_c, 13, 43, 0
13, 3168, Note_on_c, 13, 65, 96
13, 3168, Note_on_c, 13, 70, 96
13, 3168, Note_on_c, 13, 43, 96
13, 3252, Note_off_c, 13, 65, 0
13, 3252, Note_off_c, 13, 70, 0
13, 3252, Note_off_c, 13, 43, 0
13, 3264, Note_on_c, 13, 67, 96
13, 3264, Note_on_c, 13, 76, 96
13, 3264, Note_on_c, 13, 36, 96
13, 3348, Note_off_c, 13, 67, 0
13, 3348, Note_off_c, 13, 76, 0
13, 3348, Note_off_c, 13, 36, 0
13, 3360, Note_on_c, 13, 60, 96
13, 3360, Note_on_c, 13, 48, 96
13, 3402, Note_off_c, 13, 60, 0
13, 3402, Note_off_c, 13, 48, 0
13, 3408, Note_on_c, 13, 58, 96
13, 3408, Note_on_c, 13, 46, 96
13, 3450, Note_off_c, 13, 58, 0
13, 3450, Note_off_c, 13, 46, 0
13, 3456, Note_on_c, 13, 57, 96
13, 3456, Note_on_c, 13, 45, 96
13, 3498, Note_off_c, 13, 57, 0
13, 3498, Note_off_c, 13, 45, 0
13, 3504, Note_on_c, 13, 55, 96
13, 3504, Note_on_c, 13, 43, 96
13, 3546, Note_off_c, 13, 55, 0
13, 3546, Note_off_c, 13, 43, 0
13, 3552, Note_on_c, 13, 60, 96
13, 3552, Note_on_c, 13, 69, 96
13, 3552, Note_on_c, 13, 41, 96
13, 3636, Note_off_c, 13, 60, 0
13, 3636, Note_off_c, 13, 69, 0
13, 3636, Note_off_c, 13, 41, 0
13, 3648, Note_on_c, 13, 63, 96
13, 3648, Note_on_c, 13, 72, 96
13, 3648, Note_on_c, 13, 57, 96
13, 3732, Note_off_c, 13, 63, 0
13, 3732, Note_off_c, 13, 72, 0
13, 3732, Note_off_c, 13, 57, 0
13, 3744, Note_on_c, 13, 65, 96
13, 3744, Note_on_c, 13, 74, 96
13, 3744, Note_on_c, 13, 58, 96
13, 3828, Note_off_c, 13, 65, 0
13, 3828, Note_off_c, 13, 74, 0
13, 3828, Note_off_c, 13, 58, 0
13, 3840, Note_on_c, 13, 69, 96
13, 3840, Note_on_c, 13, 75, 96
13, 3840, Note_on_c, 13, 60, 96
13, 3924, Note_off_c, 13, 69, 0
13, 3924, Note_off_c, 13, 75, 0
13, 3924, Note_off_c, 13, 60, 0
13, 3936, Note_on_c, 13, 70, 96
13, 3936, Note_on_c, 13, 75, 96
13, 3936, Note_on_c, 13, 63, 96
13, 4020, Note_off_c, 13, 70, 0
13, 4020, Note_off_c, 13, 75, 0
13, 4020, Note_off_c, 13, 63, 0
13, 4032, Note_on_c, 13, 62, 96
13, 4032, Note_on_c, 13, 70, 96
13, 4032, Note_on_c, 13, 62, 96
13, 4116, Note_off_c, 13, 62, 0
13, 4116, Note_off_c, 13, 70, 0
13, 4116, Note_off_c, 13, 62, 0
13, 4128, Note_on_c, 13, 69, 96
13, 4128, Note_on_c, 13, 75, 96
13, 4128, Note_on_c, 13, 60, 96
13, 4212, Note_off_c, 13, 69, 0
13, 4212, Note_off_c, 13, 75, 0
13, 4212, Note_off_c, 13, 60, 0
13, 4224, Note_on_c, 13, 63, 96
13, 4224, Note_on_c, 13, 72, 96
13, 4224, Note_on_c, 13, 58, 96
13, 4266, Note_off_c, 13, 58, 0
13, 4272, Note_on_c, 13, 57, 96
13, 4308, Note_off_c, 13, 63, 0
13, 4308, Note_off_c, 13, 72, 0
13, 4314, Note_off_c, 13, 57, 0
13, 4320, Note_on_c, 13, 65, 96
13, 4320, Note_on_c, 13, 74, 96
13, 4320, Note_on_c, 13, 58, 96
13, 4404, Note_off_c, 13, 65, 0
13, 4404, Note_off_c, 13, 74, 0
13, 4404, Note_off_c, 13, 58, 0
13, 4416, Note_on_c, 13, 65, 96
13, 4416, Note_on_c, 13, 72, 96
13, 4416, Note_on_c, 13, 57, 96
13, 4500, Note_off_c, 13, 65, 0
13, 4500, Note_off_c, 13, 72, 0
13, 4500, Note_off_c, 13, 57, 0
13, 4512, Note_on_c, 13, 65, 96
13, 4512, Note_on_c, 13, 70, 96
13, 4512, Note_on_c, 13, 58, 96
13, 4554, Note_off_c, 13, 58, 0
13, 4560, Note_on_c, 13, 57, 96
13, 4596, Note_off_c, 13, 65, 0
13, 4596, Note_off_c, 13, 70, 0
13, 4602, Note_off_c, 13, 57, 0
13, 4608, Note_on_c, 13, 60, 96
13, 4608, Note_on_c, 13, 69, 96
13, 4608, Note_on_c, 13, 55, 96
13, 4650, Note_off_c, 13, 55, 0
13, 4656, Note_on_c, 13, 53, 96
13, 4692, Note_off_c, 13, 60, 0
13, 4692, Note_off_c, 13, 69, 0
13, 4698, Note_off_c, 13, 53, 0
13, 4704, Note_on_c, 13, 67, 96
13, 4704, Note_on_c, 13, 72, 96
13, 4704, Note_on_c, 13, 53, 96
13, 4714, Note_off_c, 13, 53, 0
13, 4716, Note_on_c, 13, 52, 96
13, 4726, Note_off_c, 13, 52, 0
13, 4728, Note_on_c, 13, 53, 96
13, 4738, Note_off_c, 13, 53, 0
13, 4740, Note_on_c, 13, 52, 96
13, 4750, Note_off_c, 13, 52, 0
13, 4752, Note_on_c, 13, 53, 96
13, 4762, Note_off_c, 13, 53, 0
13, 4764, Note_on_c, 13, 52, 96
13, 4774, Note_off_c, 13, 52, 0
13, 4776, Note_on_c, 13, 53, 96
13, 4786, Note_off_c, 13, 53, 0
13, 4788, Note_off_c, 13, 67, 0
13, 4788, Note_off_c, 13, 72, 0
13, 4788, Note_on_c, 13, 52, 96
13, 4798, Note_off_c, 13, 52, 0
13, 4800, Note_on_c, 13, 60, 96
13, 4800, Note_on_c, 13, 67, 96
13, 4800, Note_on_c, 13, 53, 96
13, 4810, Note_off_c, 13, 53, 0
13, 4812, Note_on_c, 13, 52, 96
13, 4822, Note_off_c, 13, 52, 0
13, 4824, Note_on_c, 13, 53, 96
13, 4834, Note_off_c, 13, 53, 0
13, 4836, Note_on_c, 13, 52, 96
13, 4846, Note_off_c, 13, 52, 0
13, 4848, Note_on_c, 13, 53, 96
13, 4858, Note_off_c, 13, 53, 0
13, 4860, Note_on_c, 13, 52, 96
13, 4870, Note_off_c, 13, 52, 0
13, 4872, Note_on_c, 13, 53, 96
13, 4882, Note_off_c, 13, 53, 0
13, 4884, Note_off_c, 13, 60, 0
13, 4884, Note_off_c, 13, 67, 0
13, 4884, Note_on_c, 13, 52, 96
13, 4894, Note_off_c, 13, 52, 0
13, 4896, Note_on_c, 13, 60, 96
13, 4896, Note_on_c, 13, 69, 96
13, 4896, Note_on_c, 13, 53, 96
13, 4980, Note_off_c, 13, 60, 0
13, 4980, Note_off_c, 13, 69, 0
13, 4980, Note_off_c, 13, 53, 0
13, 4992, Note_on_c, 13, 64, 96
13, 4992, Note_on_c, 13, 70, 96
13, 4992, Note_on_c, 13, 55, 96
13, 5076, Note_off_c, 13, 64, 0
13, 5076, Note_off_c, 13, 70, 0
13, 5076, Note_off_c, 13, 55, 0
13, 5088, Note_on_c, 13, 62, 96
13, 5088, Note_on_c, 13, 69, 96
13, 5088, Note_on_c, 13, 53, 96
13, 5130, Note_off_c, 13, 53, 0
13, 5136, Note_on_c, 13, 52, 96
13, 5172, Note_off_c, 13, 62, 0
13, 5172, Note_off_c, 13, 69, 0
13, 5178, Note_off_c, 13, 52, 0
13, 5184, Note_on_c, 13, 69, 96
13, 5184, Note_on_c, 13, 74, 96
13, 5184, Note_on_c, 13, 53, 96
13, 5268, Note_off_c, 13, 69, 0
13, 5268, Note_off_c, 13, 74, 0
13, 5268, Note_off_c, 13, 53, 0
13, 5280, Note_on_c, 13, 67, 96
13, 5280, Note_on_c, 13, 72, 96
13, 5280, Note_on_c, 13, 52, 96
13, 5364, Note_off_c, 13, 67, 0
13, 5364, Note_off_c, 13, 72, 0
13, 5364, Note_off_c, 13, 52, 0
13, 5376, Note_on_c, 13, 60, 96
13, 5376, Note_on_c, 13, 69, 96
13, 5376, Note_on_c, 13, 53, 96
13, 5418, Note_off_c, 13, 53, 0
13, 5424, Note_on_c, 13, 52, 96
13, 5460, Note_off_c, 13, 60, 0
13, 5460, Note_off_c, 13, 69, 0
13, 5466, Note_off_c, 13, 52, 0
13, 5472, Note_on_c, 13, 64, 96
13, 5472, Note_on_c, 13, 72, 96
13, 5472, Note_on_c, 13, 50, 96
13, 5514, Note_off_c, 13, 50, 0
13, 5520, Note_on_c, 13, 48, 96
13, 5556, Note_off_c, 13, 64, 0
13, 5556, Note_off_c, 13, 72, 0
13, 5562, Note_off_c, 13, 48, 0
13, 5568, Note_on_c, 13, 60, 96
13, 5568, Note_on_c, 13, 69, 96
13, 5568, Note_on_c, 13, 53, 96
13, 5652, Note_off_c, 13, 60, 0
13, 5652, Note_off_c, 13, 69, 0
13, 5652, Note_off_c, 13, 53, 0
13, 5664, Note_on_c, 13, 69, 96
13, 5664, Note_on_c, 13, 72, 96
13, 5664, Note_on_c, 13, 52, 96
13, 5706, Note_off_c, 13, 52, 0
13, 5712, Note_on_c, 13, 50, 96
13, 5748, Note_off_c, 13, 69, 0
13, 5748, Note_off_c, 13, 72, 0
13, 5754, Note_off_c, 13, 50, 0
13, 5760, Note_on_c, 13, 67, 96
13, 5760, Note_on_c, 13, 72, 96
13, 5760, Note_on_c, 13, 52, 96
13, 5844, Note_off_c, 13, 67, 0
13, 5844, Note_off_c, 13, 72, 0
13, 5844, Note_off_c, 13, 52, 0
13, 5856, Note_on_c, 13, 65, 96
13, 5856, Note_on_c, 13, 71, 96
13, 5856, Note_on_c, 13, 50, 96
13, 5940, Note_off_c, 13, 65, 0
13, 5940, Note_off_c, 13, 71, 0
13, 5940, Note_off_c, 13, 50, 0
13, 5952, Note_on_c, 13, 67, 96
13, 5952, Note_on_c, 13, 72, 96
13, 5952, Note_on_c, 13, 52, 96
13, 6036, Note_off_c, 13, 67, 0
13, 6036, Note_off_c, 13, 72, 0
13, 6036, Note_off_c, 13, 52, 0
13, 6048, Note_on_c, 13, 67, 96
13, 6048, Note_on_c, 13, 76, 96
13, 6048, Note_on_c, 13, 48, 96
13, 6132, Note_off_c, 13, 67, 0
13, 6132, Note_off_c, 13, 76, 0
13, 6132, Note_off_c, 13, 48, 0
13, 6144, Note_on_c, 13, 67, 96
13, 6144, Note_on_c, 13, 74, 96
13, 6144, Note_on_c, 13, 47, 96
13, 6228, Note_off_c, 13, 67, 0
13, 6228, Note_off_c, 13, 74, 0
13, 6228, Note_off_c, 13, 47, 0
13, 6240, Note_on_c, 13, 67, 96
13, 6240, Note_on_c, 13, 72, 96
13, 6240, Note_on_c, 13, 45, 96
13, 6282, Note_off_c, 13, 45, 0
13, 6288, Note_on_c, 13, 43, 96
13, 6324, Note_off_c, 13, 67, 0
13, 6324, Note_off_c, 13, 72, 0
13, 6330, Note_off_c, 13, 43, 0
13, 6336, Note_on_c, 13, 67, 96
13, 6336, Note_on_c, 13, 72, 96
13, 6336, Note_on_c, 13, 41, 96
13, 6378, Note_off_c, 13, 41, 0
13, 6384, Note_on_c, 13, 40, 96
13, 6420, Note_off_c, 13, 67, 0
13, 6420, Note_off_c, 13, 72, 0
13, 6426, Note_off_c, 13, 40, 0
13, 6432, Note_on_c, 13, 65, 96
13, 6432, Note_on_c, 13, 72, 96
13, 6432, Note_on_c, 13, 45, 96
13, 6474, Note_off_c, 13, 45, 0
13, 6480, Note_on_c, 13, 41, 96
13, 6516, Note_off_c, 13, 65, 0
13, 6516, Note_off_c, 13, 72, 0
13, 6522, Note_off_c, 13, 41, 0
13, 6528, Note_on_c, 13, 62, 96
13, 6528, Note_on_c, 13, 70, 96
13, 6528, Note_on_c, 13, 43, 96
13, 6612, Note_off_c, 13, 62, 0
13, 6612, Note_off_c, 13, 70, 0
13, 6612, Note_off_c, 13, 43, 0
13, 6624, Note_on_c, 13, 65, 96
13, 6624, Note_on_c, 13, 70, 96
13, 6624, Note_on_c, 13, 43, 96
13, 6708, Note_off_c, 13, 65, 0
13, 6708, Note_off_c, 13, 70, 0
13, 6708, Note_off_c, 13, 43, 0
13, 6720, Note_on_c, 13, 67, 96
13, 6720, Note_on_c, 13, 76, 96
13, 6720, Note_on_c, 13, 36, 96
13, 6804, Note_off_c, 13, 36, 0
13, 6816, Note_on_c, 13, 48, 96
13, 6900, Note_off_c, 13, 48, 0
13, 6912, Note_on_c, 13, 50, 96
13, 6996, Note_off_c, 13, 67, 0
13, 6996, Note_off_c, 13, 76, 0
13, 6996, Note_off_c, 13, 50, 0
13, 7008, Note_on_c, 13, 67, 96
13, 7008, Note_on_c, 13, 72, 96
13, 7008, Note_on_c, 13, 52, 96
13, 7092, Note_off_c, 13, 67, 0
13, 7092, Note_off_c, 13, 72, 0
13, 7104, Note_on_c, 13, 67, 96
13, 7104, Note_on_c, 13, 70, 96
13, 7188, Note_off_c, 13, 52, 0
13, 7188, Note_off_c, 13, 67, 0
13, 7188, Note_off_c, 13, 70, 0
13, 7200, Note_on_c, 13, 60, 96
13, 7200, Note_on_c, 13, 69, 96
13, 7200, Note_on_c, 13, 53, 96
13, 7284, Note_off_c, 13, 60, 0
13, 7284, Note_off_c, 13, 69, 0
13, 7284, Note_off_c, 13, 53, 0
13, 7296, Note_on_c, 13, 64, 96
13, 7296, Note_on_c, 13, 70, 96
13, 7296, Note_on_c, 13, 55, 96
13, 7380, Note_off_c, 13, 64, 0
13, 7380, Note_off_c, 13, 70, 0
13, 7380, Note_off_c, 13, 55, 0
13, 7392, Note_on_c, 13, 64, 96
13, 7392, Note_on_c, 13, 72, 96
13, 7392, Note_on_c, 13, 58, 96
13, 7476, Note_off_c, 13, 64, 0
13, 7476, Note_off_c, 13, 72, 0
13, 7476, Note_off_c, 13, 58, 0
13, 7488, Note_on_c, 13, 65, 96
13, 7488, Note_on_c, 13, 72, 96
13, 7488, Note_on_c, 13, 57, 96
13, 7572, Note_off_c, 13, 65, 0
13, 7572, Note_off_c, 13, 72, 0
13, 7572, Note_off_c, 13, 57, 0
13, 7584, Note_on_c, 13, 64, 96
13, 7584, Note_on_c, 13, 70, 96
13, 7584, Note_on_c, 13, 55, 96
13, 7668, Note_off_c, 13, 64, 0
13, 7668, Note_off_c, 13, 70, 0
13, 7668, Note_off_c, 13, 55, 0
13, 7680, Note_on_c, 13, 62, 96
13, 7680, Note_on_c, 13, 70, 96
13, 7680, Note_on_c, 13, 53, 96
13, 7722, Note_off_c, 13, 53, 0
13, 7728, Note_on_c, 13, 52, 96
13, 7764, Note_off_c, 13, 62, 0
13, 7764, Note_off_c, 13, 70, 0
13, 7770, Note_off_c, 13, 52, 0
13, 7776, Note_on_c, 13, 60, 96
13, 7776, Note_on_c, 13, 69, 96
13, 7776, Note_on_c, 13, 53, 96
13, 7860, Note_off_c, 13, 60, 0
13, 7860, Note_off_c, 13, 69, 0
13, 7860, Note_off_c, 13, 53, 0
13, 7872, Note_on_c, 13, 60, 96
13, 7872, Note_on_c, 13, 67, 96
13, 7872, Note_on_c, 13, 52, 96
13, 7956, Note_off_c, 13, 60, 0
13, 7956, Note_off_c, 13, 67, 0
13, 7956, Note_off_c, 13, 52, 0
13, 7968, Note_on_c, 13, 65, 96
13, 7968, Note_on_c, 13, 72, 96
13, 7968, Note_on_c, 13, 53, 96
13, 8010, Note_off_c, 13, 53, 0
13, 8016, Note_on_c, 13, 52, 96
13, 8052, Note_off_c, 13, 65, 0
13, 8052, Note_off_c, 13, 72, 0
13, 8058, Note_off_c, 13, 52, 0
13, 8064, Note_on_c, 13, 67, 96
13, 8064, Note_on_c, 13, 76, 96
13, 8064, Note_on_c, 13, 50, 96
13, 8106, Note_off_c, 13, 50, 0
13, 8112, Note_on_c, 13, 48, 96
13, 8148, Note_off_c, 13, 67, 0
13, 8148, Note_off_c, 13, 76, 0
13, 8154, Note_off_c, 13, 48, 0
13, 8160, Note_on_c, 13, 67, 96
13, 8160, Note_on_c, 13, 74, 96
13, 8160, Note_on_c, 13, 48, 96
13, 8170, Note_off_c, 13, 48, 0
13, 8172, Note_on_c, 13, 47, 96
13, 8182, Note_off_c, 13, 47, 0
13, 8184, Note_on_c, 13, 48, 96
13, 8194, Note_off_c, 13, 48, 0
13, 8196, Note_on_c, 13, 47, 96
13, 8206, Note_off_c, 13, 47, 0
13, 8208, Note_on_c, 13, 48, 96
13, 8218, Note_off_c, 13, 48, 0
13, 8220, Note_on_c, 13, 47, 96
13, 8230, Note_off_c, 13, 47, 0
13, 8232, Note_on_c, 13, 48, 96
13, 8242, Note_off_c, 13, 48, 0
13, 8244, Note_off_c, 13, 67, 0
13, 8244, Note_off_c, 13, 74, 0
13, 8244, Note_on_c, 13, 47, 96
13, 8254, Note_off_c, 13, 47, 0
13, 8256, Note_on_c, 13, 62, 96
13, 8256, Note_on_c, 13, 71, 96
13, 8256, Note_on_c, 13, 48, 96
13, 8266, Note_off_c, 13, 48, 0
13, 8268, Note_on_c, 13, 47, 96
13, 8278, Note_off_c, 13, 47, 0
13, 8280, Note_on_c, 13, 48, 96
13, 8290, Note_off_c, 13, 48, 0
13, 8292, Note_on_c, 13, 47, 96
13, 8302, Note_off_c, 13, 47, 0
13, 8304, Note_on_c, 13, 48, 96
13, 8314, Note_off_c, 13, 48, 0
13, 8316, Note_on_c, 13, 47, 96
13, 8326, Note_off_c, 13, 47, 0
13, 8328, Note_on_c, 13, 48, 96
13, 8338, Note_off_c, 13, 48, 0
13, 8340, Note_off_c, 13, 62, 0
13, 8340, Note_off_c, 13, 71, 0
13, 8340, Note_on_c, 13, 47, 96
13, 8350, Note_off_c, 13, 47, 0
13, 8352, Note_on_c, 13, 67, 96
13, 8352, Note_on_c, 13, 76, 96
13, 8352, Note_on_c, 13, 48, 96
13, 8436, Note_off_c, 13, 67, 0
13, 8436, Note_off_c, 13, 76, 0
13, 8436, Note_off_c, 13, 48, 0
13, 8448, Note_on_c, 13, 71, 96
13, 8448, Note_on_c, 13, 77, 96
13, 8448, Note_on_c, 13, 50, 96
13, 8532, Note_off_c, 13, 71, 0
13, 8532, Note_off_c, 13, 77, 0
13, 8532, Note_off_c, 13, 50, 0
13, 8544, Note_on_c, 13, 69, 96
13, 8544, Note_on_c, 13, 76, 96
13, 8544, Note_on_c, 13, 48, 96
13, 8586, Note_off_c, 13, 48, 0
13, 8592, Note_on_c, 13, 47, 96
13, 8628, Note_off_c, 13, 69, 0
13, 8628, Note_off_c, 13, 76, 0
13, 8634, Note_off_c, 13, 47, 0
13, 8640, Note_on_c, 13, 69, 96
13, 8640, Note_on_c, 13, 72, 96
13, 8640, Note_on_c, 13, 48, 96
13, 8724, Note_off_c, 13, 69, 0
13, 8724, Note_off_c, 13, 72, 0
13, 8724, Note_off_c, 13, 48, 0
13, 8736, Note_on_c, 13, 67, 96
13, 8736, Note_on_c, 13, 74, 96
13, 8736, Note_on_c, 13, 47, 96
13, 8820, Note_off_c, 13, 67, 0
13, 8820, Note_off_c, 13, 74, 0
13, 8820, Note_off_c, 13, 47, 0
13, 8832, Note_on_c, 13, 67, 96
13, 8832, Note_on_c, 13, 76, 96
13, 8832, Note_on_c, 13, 48, 96
13, 8874, Note_off_c, 13, 48, 0
13, 8880, Note_on_c, 13, 47, 96
13, 8916, Note_off_c, 13, 67, 0
13, 8916, Note_off_c, 13, 76, 0
13, 8922, Note_off_c, 13, 47, 0
13, 8928, Note_on_c, 13, 62, 96
13, 8928, Note_on_c, 13, 71, 96
13, 8928, Note_on_c, 13, 45, 96
13, 8970, Note_off_c, 13, 45, 0
13, 8976, Note_on_c, 13, 43, 96
13, 9012, Note_off_c, 13, 62, 0
13, 9012, Note_off_c, 13, 71, 0
13, 9018, Note_off_c, 13, 43, 0
13, 9024, Note_on_c, 13, 67, 96
13, 9024, Note_on_c, 13, 76, 96
13, 9024, Note_on_c, 13, 48, 96
13, 9108, Note_off_c, 13, 67, 0
13, 9108, Note_off_c, 13, 76, 0
13, 9108, Note_off_c, 13, 48, 0
13, 9120, Note_on_c, 13, 65, 96
13, 9120, Note_on_c, 13, 74, 96
13, 9120, Note_on_c, 13, 46, 96
13, 9162, Note_off_c, 13, 46, 0
13, 9168, Note_on_c, 13, 45, 96
13, 9204, Note_off_c, 13, 65, 0
13, 9204, Note_off_c, 13, 74, 0
13, 9210, Note_off_c, 13, 45, 0
13, 9216, Note_on_c, 13, 65, 96
13, 9216, Note_on_c, 13, 74, 96
13, 9216, Note_on_c, 13, 43, 96
13, 9258, Note_off_c, 13, 43, 0
13, 9264, Note_on_c, 13, 41, 96
13, 9300, Note_off_c, 13, 65, 0
13, 9300, Note_off_c, 13, 74, 0
13, 9306, Note_off_c, 13, 41, 0
13, 9312, Note_on_c, 13, 67, 96
13, 9312, Note_on_c, 13, 72, 96
13, 9312, Note_on_c, 13, 40, 96
13, 9396, Note_off_c, 13, 67, 0
13, 9396, Note_off_c, 13, 72, 0
13, 9396, Note_off_c, 13, 40, 0
13, 9408, Note_on_c, 13, 60, 96
13, 9408, Note_on_c, 13, 69, 96
13, 9408, Note_on_c, 13, 41, 96
13, 9450, Note_off_c, 13, 41, 0
13, 9456, Note_on_c, 13, 40, 96
13, 9492, Note_off_c, 13, 60, 0
13, 9492, Note_off_c, 13, 69, 0
13, 9498, Note_off_c, 13, 40, 0
13, 9504, Note_on_c, 13, 69, 96
13, 9504, Note_on_c, 13, 77, 96
13, 9504, Note_on_c, 13, 38, 96
13, 9546, Note_off_c, 13, 38, 0
13, 9552, Note_on_c, 13, 40, 96
13, 9588, Note_off_c, 13, 69, 0
13, 9588, Note_off_c, 13, 77, 0
13, 9594, Note_off_c, 13, 40, 0
13, 9600, Note_on_c, 13, 67, 96
13, 9600, Note_on_c, 13, 76, 96
13, 9600, Note_on_c, 13, 36, 96
13, 9684, Note_off_c, 13, 67, 0
13, 9684, Note_off_c, 13, 76, 0
13, 9684, Note_off_c, 13, 36, 0
13, 9696, Note_on_c, 13, 69, 96
13, 9696, Note_on_c, 13, 77, 96
13, 9696, Note_on_c, 13, 48, 96
13, 9738, Note_off_c, 13, 48, 0
13, 9744, Note_on_c, 13, 50, 96
13, 9780, Note_off_c, 13, 69, 0
13, 9780, Note_off_c, 13, 77, 0
13, 9786, Note_off_c, 13, 50, 0
13, 9792, Note_on_c, 13, 72, 96
13, 9792, Note_on_c, 13, 79, 96
13, 9792, Note_on_c, 13, 52, 96
13, 9834, Note_off_c, 13, 52, 0
13, 9840, Note_on_c, 13, 48, 96
13, 9876, Note_off_c, 13, 72, 0
13, 9876, Note_off_c, 13, 79, 0
13, 9882, Note_off_c, 13, 48, 0
13, 9888, Note_on_c, 13, 69, 96
13, 9888, Note_on_c, 13, 77, 96
13, 9888, Note_on_c, 13, 50, 96
13, 9930, Note_off_c, 13, 50, 0
13, 9936, Note_on_c, 13, 46, 96
13, 9972, Note_off_c, 13, 69, 0
13, 9972, Note_off_c, 13, 77, 0
13, 9978, Note_off_c, 13, 46, 0
13, 9984, Note_on_c, 13, 67, 96
13, 9984, Note_on_c, 13, 76, 96
13, 9984, Note_on_c, 13, 48, 96
13, 10068, Note_off_c, 13, 67, 0
13, 10068, Note_off_c, 13, 76, 0
13, 10068, Note_off_c, 13, 48, 0
13, 10080, Note_on_c, 13, 64, 96
13, 10080, Note_on_c, 13, 67, 96
13, 10080, Note_on_c, 13, 36, 96
13, 10164, Note_off_c, 13, 64, 0
13, 10164, Note_off_c, 13, 67, 0
13, 10164, Note_off_c, 13, 36, 0
13, 10176, Note_on_c, 13, 60, 96
13, 10176, Note_on_c, 13, 69, 96
13, 10176, Note_on_c, 13, 41, 96
13, 10218, Note_off_c, 13, 41, 0
13, 10224, Note_on_c, 13, 43, 96
13, 10266, Note_off_c, 13, 43, 0
13, 10272, Note_on_c, 13, 45, 96
13, 10314, Note_off_c, 13, 45, 0
13, 10320, Note_on_c, 13, 46, 96
13, 10362, Note_off_c, 13, 46, 0
13, 10368, Note_on_c, 13, 48, 96
13, 10410, Note_off_c, 13, 48, 0
13, 10416, Note_on_c, 13, 50, 96
13, 10452, Note_off_c, 13, 60, 0
13, 10452, Note_off_c, 13, 69, 0
13, 10458, Note_off_c, 13, 50, 0
13, 10464, Note_on_c, 13, 67, 96
13, 10464, Note_on_c, 13, 72, 96
13, 10464, Note_on_c, 13, 52, 96
13, 10548, Note_off_c, 13, 67, 0
13, 10548, Note_off_c, 13, 72, 0
13, 10560, Note_on_c, 13, 67, 96
13, 10560, Note_on_c, 13, 70, 96
13, 10644, Note_off_c, 13, 52, 0
13, 10644, Note_off_c, 13, 67, 0
13, 10644, Note_off_c, 13, 70, 0
13, 10656, Note_on_c, 13, 60, 96
13, 10656, Note_on_c, 13, 69, 96
13, 10656, Note_on_c, 13, 53, 96
13, 10740, Note_off_c, 13, 60, 0
13, 10740, Note_off_c, 13, 69, 0
13, 10740, Note_off_c, 13, 53, 0
13, 10752, Note_on_c, 13, 64, 96
13, 10752, Note_on_c, 13, 70, 96
13, 10752, Note_on_c, 13, 55, 96
13, 10836, Note_off_c, 13, 64, 0
13, 10836, Note_off_c, 13, 70, 0
13, 10836, Note_off_c, 13, 55, 0
13, 10848, Note_on_c, 13, 64, 96
13, 10848, Note_on_c, 13, 72, 96
13, 10848, Note_on_c, 13, 58, 96
13, 10932, Note_off_c, 13, 64, 0
13, 10932, Note_off_c, 13, 72, 0
13, 10932, Note_off_c, 13, 58, 0
13, 10944, Note_on_c, 13, 65, 96
13, 10944, Note_on_c, 13, 72, 96
13, 10944, Note_on_c, 13, 57, 96
13, 11028, Note_off_c, 13, 65, 0
13, 11028, Note_off_c, 13, 72, 0
13, 11028, Note_off_c, 13, 57, 0
13, 11040, Note_on_c, 13, 64, 96
13, 11040, Note_on_c, 13, 70, 96
13, 11040, Note_on_c, 13, 55, 96
13, 11124, Note_off_c, 13, 64, 0
13, 11124, Note_off_c, 13, 70, 0
13, 11124, Note_off_c, 13, 55, 0
13, 11136, Note_on_c, 13, 62, 96
13, 11136, Note_on_c, 13, 70, 96
13, 11136, Note_on_c, 13, 53, 96
13, 11178, Note_off_c, 13, 53, 0
13, 11184, Note_on_c, 13, 52, 96
13, 11220, Note_off_c, 13, 62, 0
13, 11220, Note_off_c, 13, 70, 0
13, 11226, Note_off_c, 13, 52, 0
13, 11232, Note_on_c, 13, 60, 96
13, 11232, Note_on_c, 13, 69, 96
13, 11232, Note_on_c, 13, 53, 96
13, 11316, Note_off_c, 13, 60, 0
13, 11316, Note_off_c, 13, 69, 0
13, 11316, Note_off_c, 13, 53, 0
13, 11328, Note_on_c, 13, 60, 96
13, 11328, Note_on_c, 13, 67, 96
13, 11328, Note_on_c, 13, 52, 96
13, 11412, Note_off_c, 13, 60, 0
13, 11412, Note_off_c, 13, 67, 0
13, 11412, Note_off_c, 13, 52, 0
13, 11424, Note_on_c, 13, 65, 96
13, 11424, Note_on_c, 13, 72, 96
13, 11424, Note_on_c, 13, 53, 96
13, 11466, Note_off_c, 13, 53, 0
13, 11472, Note_on_c, 13, 52, 96
13, 11508, Note_off_c, 13, 65, 0
13, 11508, Note_off_c, 13, 72, 0
13, 11514, Note_off_c, 13, 52, 0
13, 11520, Note_on_c, 13, 67, 96
13, 11520, Note_on_c, 13, 76, 96
13, 11520, Note_on_c, 13, 50, 96
13, 11562, Note_off_c, 13, 50, 0
13, 11568, Note_on_c, 13, 48, 96
13, 11604, Note_off_c, 13, 67, 0
13, 11604, Note_off_c, 13, 76, 0
13, 11610, Note_off_c, 13, 48, 0
13, 11616, Note_on_c, 13, 67, 96
13, 11616, Note_on_c, 13, 74, 96
13, 11616, Note_on_c, 13, 48, 96
13, 11626, Note_off_c, 13, 48, 0
13, 11628, Note_on_c, 13, 47, 96
13, 11638, Note_off_c, 13, 47, 0
13, 11640, Note_on_c, 13, 48, 96
13, 11650, Note_off_c, 13, 48, 0
13, 11652, Note_on_c, 13, 47, 96
13, 11662, Note_off_c, 13, 47, 0
13, 11664, Note_on_c, 13, 48, 96
13, 11674, Note_off_c, 13, 48, 0
13, 11676, Note_on_c, 13, 47, 96
13, 11686, Note_off_c, 13, 47, 0
13, 11688, Note_on_c, 13, 48, 96
13, 11698, Note_off_c, 13, 48, 0
13, 11700, Note_off_c, 13, 67, 0
13, 11700, Note_off_c, 13, 74, 0
13, 11700, Note_on_c, 13, 47, 96
13, 11710, Note_off_c, 13, 47, 0
13, 11712, Note_on_c, 13, 62, 96
13, 11712, Note_on_c, 13, 71, 96
13, 11712, Note_on_c, 13, 48, 96
13, 11722, Note_off_c, 13, 48, 0
13, 11724, Note_on_c, 13, 47, 96
13, 11734, Note_off_c, 13, 47, 0
13, 11736, Note_on_c, 13, 48, 96
13, 11746, Note_off_c, 13, 48, 0
13, 11748, Note_on_c, 13, 47, 96
13, 11758, Note_off_c, 13, 47, 0
13, 11760, Note_on_c, 13, 48, 96
13, 11770, Note_off_c, 13, 48, 0
13, 11772, Note_on_c, 13, 47, 96
13, 11782, Note_off_c, 13, 47, 0
13, 11784, Note_on_c, 13, 48, 96
13, 11794, Note_off_c, 13, 48, 0
13, 11796, Note_off_c, 13, 62, 0
13, 11796, Note_off_c, 13, 71, 0
13, 11796, Note_on_c, 13, 47, 96
13, 11806, Note_off_c, 13, 47, 0
13, 11808, Note_on_c, 13, 67, 96
13, 11808, Note_on_c, 13, 76, 96
13, 11808, Note_on_c, 13, 48, 96
13, 11892, Note_off_c, 13, 67, 0
13, 11892, Note_off_c, 13, 76, 0
13, 11892, Note_off_c, 13, 48, 0
13, 11904, Note_on_c, 13, 71, 96
13, 11904, Note_on_c, 13, 77, 96
13, 11904, Note_on_c, 13, 50, 96
13, 11988, Note_off_c, 13, 71, 0
13, 11988, Note_off_c, 13, 77, 0
13, 11988, Note_off_c, 13, 50, 0
13, 12000, Note_on_c, 13, 69, 96
13, 12000, Note_on_c, 13, 76, 96
13, 12000, Note_on_c, 13, 48, 96
13, 12042, Note_off_c, 13, 48, 0
13, 12048, Note_on_c, 13, 47, 96
13, 12084, Note_off_c, 13, 69, 0
13, 12084, Note_off_c, 13, 76, 0
13, 12090, Note_off_c, 13, 47, 0
13, 12096, Note_on_c, 13, 69, 96
13, 12096, Note_on_c, 13, 72, 96
13, 12096, Note_on_c, 13, 48, 96
13, 12180, Note_off_c, 13, 69, 0
13, 12180, Note_off_c, 13, 72, 0
13, 12180, Note_off_c, 13, 48, 0
13, 12192, Note_on_c, 13, 67, 96
13, 12192, Note_on_c, 13, 74, 96
13, 12192, Note_on_c, 13, 47, 96
13, 12276, Note_off_c, 13, 67, 0
13, 12276, Note_off_c, 13, 74, 0
13, 12276, Note_off_c, 13, 47, 0
13, 12288, Note_on_c, 13, 67, 96
13, 12288, Note_on_c, 13, 76, 96
13, 12288, Note_on_c, 13, 48, 96
13, 12330, Note_off_c, 13, 48, 0
13, 12336, Note_on_c, 13, 47, 96
13, 12372, Note_off_c, 13, 67, 0
13, 12372, Note_off_c, 13, 76, 0
13, 12378, Note_off_c, 13, 47, 0
13, 12384, Note_on_c, 13, 62, 96
13, 12384, Note_on_c, 13, 71, 96
13, 12384, Note_on_c, 13, 45, 96
13, 12426, Note_off_c, 13, 45, 0
13, 12432, Note_on_c, 13, 43, 96
13, 12468, Note_off_c, 13, 62, 0
13, 12468, Note_off_c, 13, 71, 0
13, 12474, Note_off_c, 13, 43, 0
13, 12480, Note_on_c, 13, 67, 96
13, 12480, Note_on_c, 13, 76, 96
13, 12480, Note_on_c, 13, 48, 96
13, 12564, Note_off_c, 13, 67, 0
13, 12564, Note_off_c, 13, 76, 0
13, 12564, Note_off_c, 13, 48, 0
13, 12576, Note_on_c, 13, 65, 96
13, 12576, Note_on_c, 13, 74, 96
13, 12576, Note_on_c, 13, 46, 96
13, 12618, Note_off_c, 13, 46, 0
13, 12624, Note_on_c, 13, 45, 96
13, 12660, Note_off_c, 13, 65, 0
13, 12660, Note_off_c, 13, 74, 0
13, 12666, Note_off_c, 13, 45, 0
13, 12672, Note_on_c, 13, 65, 96
13, 12672, Note_on_c, 13, 74, 96
13, 12672, Note_on_c, 13, 43, 96
13, 12714, Note_off_c, 13, 43, 0
13, 12720, Note_on_c, 13, 41, 96
13, 12756, Note_off_c, 13, 65, 0
13, 12756, Note_off_c, 13, 74, 0
13, 12762, Note_off_c, 13, 41, 0
13, 12768, Note_on_c, 13, 67, 96
13, 12768, Note_on_c, 13, 72, 96
13, 12768, Note_on_c, 13, 40, 96
13, 12852, Note_off_c, 13, 67, 0
13, 12852, Note_off_c, 13, 72, 0
13, 12852, Note_off_c, 13, 40, 0
13, 12864, Note_on_c, 13, 60, 96
13, 12864, Note_on_c, 13, 69, 96
13, 12864, Note_on_c, 13, 41, 96
13, 12906, Note_off_c, 13, 41, 0
13, 12912, Note_on_c, 13, 40, 96
13, 12948, Note_off_c, 13, 60, 0
13, 12948, Note_off_c, 13, 69, 0
13, 12954, Note_off_c, 13, 40, 0
13, 12960, Note_on_c, 13, 69, 96
13, 12960, Note_on_c, 13, 77, 96
13, 12960, Note_on_c, 13, 38, 96
13, 13002, Note_off_c, 13, 38, 0
13, 13008, Note_on_c, 13, 40, 96
13, 13044, Note_off_c, 13, 69, 0
13, 13044, Note_off_c, 13, 77, 0
13, 13050, Note_off_c, 13, 40, 0
13, 13056, Note_on_c, 13, 67, 96
13, 13056, Note_on_c, 13, 76, 96
13, 13056, Note_on_c, 13, 36, 96
13, 13140, Note_off_c, 13, 67, 0
13, 13140, Note_off_c, 13, 76, 0
13, 13140, Note_off_c, 13, 36, 0
13, 13152, Note_on_c, 13, 69, 96
13, 13152, Note_on_c, 13, 77, 96
13, 13152, Note_on_c, 13, 48, 96
13, 13194, Note_off_c, 13, 48, 0
13, 13200, Note_on_c, 13, 50, 96
13, 13236, Note_off_c, 13, 69, 0
13, 13236, Note_off_c, 13, 77, 0
13, 13242, Note_off_c, 13, 50, 0
13, 13248, Note_on_c, 13, 72, 96
13, 13248, Note_on_c, 13, 79, 96
13, 13248, Note_on_c, 13, 52, 96
13, 13290, Note_off_c, 13, 52, 0
13, 13296, Note_on_c, 13, 48, 96
13, 13332, Note_off_c, 13, 72, 0
13, 13332, Note_off_c, 13, 79, 0
13, 13338, Note_off_c, 13, 48, 0
13, 13344, Note_on_c, 13, 69, 96
13, 13344, Note_on_c, 13, 77, 96
13, 13344, Note_on_c, 13, 50, 96
13, 13386, Note_off_c, 13, 50, 0
13, 13392, Note_on_c, 13, 46, 96
13, 13428, Note_off_c, 13, 69, 0
13, 13428, Note_off_c, 13, 77, 0
13, 13434, Note_off_c, 13, 46, 0
13, 13440, Note_on_c, 13, 67, 96
13, 13440, Note_on_c, 13, 76, 96
13, 13440, Note_on_c, 13, 48, 96
13, 13524, Note_off_c, 13, 67, 0
13, 13524, Note_off_c, 13, 76, 0
13, 13524, Note_off_c, 13, 48, 0
13, 13536, Note_on_c, 13, 64, 96
13, 13536, Note_on_c, 13, 67, 96
13, 13536, Note_on_c, 13, 36, 96
13, 13620, Note_off_c, 13, 64, 0
13, 13620, Note_off_c, 13, 67, 0
13, 13620, Note_off_c, 13, 36, 0
13, 13632, Note_on_c, 13, 60, 96
13, 13632, Note_on_c, 13, 69, 96
13, 13632, Note_on_c, 13, 41, 96
13, 13908, Note_off_c, 13, 41, 0
13, 13908, Note_off_c, 13, 60, 0
13, 13908, Note_off_c, 13, 69, 0
13, 14208, Tempo, 500000
13, 16512, Tempo, 500000
13, 30624, Tempo, 428571
13, 30624, Note_on_c, 13, 65, 96
13, 30624, Note_on_c, 13, 72, 96
13, 30624, Note_on_c, 13, 57, 96
13, 30708, Note_off_c, 13, 65, 0
13, 30708, Note_off_c, 13, 72, 0
13, 30720, Note_on_c, 13, 63, 96
13, 30720, Note_on_c, 13, 72, 96
13, 30804, Note_off_c, 13, 57, 0
13, 30804, Note_off_c, 13, 63, 0
13, 30804, Note_off_c, 13, 72, 0
13, 30816, Note_on_c, 13, 65, 96
13, 30816, Note_on_c, 13, 74, 96
13, 30816, Note_on_c, 13, 58, 96
13, 30900, Note_off_c, 13, 65, 0
13, 30900, Note_off_c, 13, 74, 0
13, 30900, Note_off_c, 13, 58, 0
13, 30912, Note_on_c, 13, 69, 96
13, 30912, Note_on_c, 13, 75, 96
13, 30912, Note_on_c, 13, 60, 96
13, 30996, Note_off_c, 13, 69, 0
13, 30996, Note_off_c, 13, 75, 0
13, 30996, Note_off_c, 13, 60, 0
13, 31008, Note_on_c, 13, 70, 96
13, 31008, Note_on_c, 13, 75, 96
13, 31008, Note_on_c, 13, 63, 96
13, 31092, Note_off_c, 13, 70, 0
13, 31092, Note_off_c, 13, 75, 0
13, 31092, Note_off_c, 13, 63, 0
13, 31104, Note_on_c, 13, 62, 96
13, 31104, Note_on_c, 13, 70, 96
13, 31104, Note_on_c, 13, 62, 96
13, 31188, Note_off_c, 13, 62, 0
13, 31188, Note_off_c, 13, 70, 0
13, 31188, Note_off_c, 13, 62, 0
13, 31200, Note_on_c, 13, 69, 96
13, 31200, Note_on_c, 13, 75, 96
13, 31200, Note_on_c, 13, 60, 96
13, 31284, Note_off_c, 13, 69, 0
13, 31284, Note_off_c, 13, 75, 0
13, 31284, Note_off_c, 13, 60, 0
13, 31296, Note_on_c, 13, 63, 96
13, 31296, Note_on_c, 13, 72, 96
13, 31296, Note_on_c, 13, 58, 96
13, 31338, Note_off_c, 13, 58, 0
13, 31344, Note_on_c, 13, 57, 96
13, 31380, Note_off_c, 13, 63, 0
13, 31380, Note_off_c, 13, 72, 0
13, 31386, Note_off_c, 13, 57, 0
13, 31392, Note_on_c, 13, 65, 96
13, 31392, Note_on_c, 13, 74, 96
13, 31392, Note_on_c, 13, 58, 96
13, 31476, Note_off_c, 13, 65, 0
13, 31476, Note_off_c, 13, 74, 0
13, 31476, Note_off_c, 13, 58, 0
13, 31488, Note_on_c, 13, 65, 96
13, 31488, Note_on_c, 13, 72, 96
13, 31488, Note_on_c, 13, 57, 96
13, 31572, Note_off_c, 13, 65, 0
13, 31572, Note_off_c, 13, 72, 0
13, 31572, Note_off_c, 13, 57, 0
13, 31584, Note_on_c, 13, 65, 96
13, 31584, Note_on_c, 13, 70, 96
13, 31584, Note_on_c, 13, 58, 96
13, 31626, Note_off_c, 13, 58, 0
13, 31632, Note_on_c, 13, 57, 96
13, 31668, Note_off_c, 13, 65, 0
13, 31668, Note_off_c, 13, 70, 0
13, 31674, Note_off_c, 13, 57, 0
13, 31680, Note_on_c, 13, 60, 96
13, 31680, Note_on_c, 13, 69, 96
13, 31680, Note_on_c, 13, 55, 96
13, 31722, Note_off_c, 13, 55, 0
13, 31728, Note_on_c, 13, 53, 96
13, 31764, Note_off_c, 13, 60, 0
13, 31764, Note_off_c, 13, 69, 0
13, 31770, Note_off_c, 13, 53, 0
13, 31776, Note_on_c, 13, 67, 96
13, 31776, Note_on_c, 13, 72, 96
13, 31776, Note_on_c, 13, 53, 96
13, 31786, Note_off_c, 13, 53, 0
13, 31788, Note_on_c, 13, 52, 96
13, 31798, Note_off_c, 13, 52, 0
13, 31800, Note_on_c, 13, 53, 96
13, 31810, Note_off_c, 13, 53, 0
13, 31812, Note_on_c, 13, 52, 96
13, 31822, Note_off_c, 13, 52, 0
13, 31824, Note_on_c, 13, 53, 96
13, 31834, Note_off_c, 13, 53, 0
13, 31836, Note_on_c, 13, 52, 96
13, 31846, Note_off_c, 13, 52, 0
13, 31848, Note_on_c, 13, 53, 96
13, 31858, Note_off_c, 13, 53, 0
13, 31860, Note_off_c, 13, 67, 0
13, 31860, Note_off_c, 13, 72, 0
13, 31860, Note_on_c, 13, 52, 96
13, 31870, Note_off_c, 13, 52, 0
13, 31872, Note_on_c, 13, 60, 96
13, 31872, Note_on_c, 13, 67, 96
13, 31872, Note_on_c, 13, 53, 96
13, 31882, Note_off_c, 13, 53, 0
13, 31884, Note_on_c, 13, 52, 96
13, 31894, Note_off_c, 13, 52, 0
13, 31896, Note_on_c, 13, 53, 96
13, 31906, Note_off_c, 13, 53, 0
13, 31908, Note_on_c, 13, 52, 96
13, 31918, Note_off_c, 13, 52, 0
13, 31920, Note_on_c, 13, 53, 96
13, 31930, Note_off_c, 13, 53, 0
13, 31932, Note_on_c, 13, 52, 96
13, 31942, Note_off_c, 13, 52, 0
13, 31944, Note_on_c, 13, 53, 96
13, 31954, Note_off_c, 13, 53, 0
13, 31956, Note_off_c, 13, 60, 0
13, 31956, Note_off_c, 13, 67, 0
13, 31956, Note_on_c, 13, 52, 96
13, 31966, Note_off_c, 13, 52, 0
13, 31968, Note_on_c, 13, 60, 96
13, 31968, Note_on_c, 13, 69, 96
13, 31968, Note_on_c, 13, 53, 96
13, 32052, Note_off_c, 13, 60, 0
13, 32052, Note_off_c, 13, 69, 0
13, 32052, Note_off_c, 13, 53, 0
13, 32064, Note_on_c, 13, 64, 96
13, 32064, Note_on_c, 13, 70, 96
13, 32064, Note_on_c, 13, 55, 96
13, 32148, Note_off_c, 13, 64, 0
13, 32148, Note_off_c, 13, 70, 0
13, 32148, Note_off_c, 13, 55, 0
13, 32160, Note_on_c, 13, 62, 96
13, 32160, Note_on_c, 13, 69, 96
13, 32160, Note_on_c, 13, 53, 96
13, 32202, Note_off_c, 13, 53, 0
13, 32208, Note_on_c, 13, 52, 96
13, 32244, Note_off_c, 13, 62, 0
13, 32244, Note_off_c, 13, 69, 0
13, 32250, Note_off_c, 13, 52, 0
13, 32256, Note_on_c, 13, 69, 96
13, 32256, Note_on_c, 13, 74, 96
13, 32256, Note_on_c, 13, 53, 96
13, 32340, Note_off_c, 13, 69, 0
13, 32340, Note_off_c, 13, 74, 0
13, 32340, Note_off_c, 13, 53, 0
13, 32352, Note_on_c, 13, 67, 96
13, 32352, Note_on_c, 13, 72, 96
13, 32352, Note_on_c, 13, 52, 96
13, 32436, Note_off_c, 13, 67, 0
13, 32436, Note_off_c, 13, 72, 0
13, 32436, Note_off_c, 13, 52, 0
13, 32448, Note_on_c, 13, 60, 96
13, 32448, Note_on_c, 13, 69, 96
13, 32448, Note_on_c, 13, 53, 96
13, 32490, Note_off_c, 13, 53, 0
13, 32496, Note_on_c, 13, 52, 96
13, 32532, Note_off_c, 13, 60, 0
13, 32532, Note_off_c, 13, 69, 0
13, 32538, Note_off_c, 13, 52, 0
13, 32544, Note_on_c, 13, 64, 96
13, 32544, Note_on_c, 13, 72, 96
13, 32544, Note_on_c, 13, 50, 96
13, 32586, Note_off_c, 13, 50, 0
13, 32592, Note_on_c, 13, 48, 96
13, 32628, Note_off_c, 13, 64, 0
13, 32628, Note_off_c, 13, 72, 0
13, 32634, Note_off_c, 13, 48, 0
13, 32640, Note_on_c, 13, 60, 96
13, 32640, Note_on_c, 13, 69, 96
13, 32640, Note_on_c, 13, 53, 96
13, 32724, Note_off_c, 13, 60, 0
13, 32724, Note_off_c, 13, 69, 0
13, 32724, Note_off_c, 13, 53, 0
13, 32736, Note_on_c, 13, 69, 96
13, 32736, Note_on_c, 13, 72, 96
13, 32736, Note_on_c, 13, 52, 96
13, 32778, Note_off_c, 13, 52, 0
13, 32784, Note_on_c, 13, 50, 96
13, 32820, Note_off_c, 13, 69, 0
13, 32820, Note_off_c, 13, 72, 0
13, 32826, Note_off_c, 13, 50, 0
13, 32832, Note_on_c, 13, 67, 96
13, 32832, Note_on_c, 13, 72, 96
13, 32832, Note_on_c, 13, 52, 96
13, 32916, Note_off_c, 13, 67, 0
13, 32916, Note_off_c, 13, 72, 0
13, 32916, Note_off_c, 13, 52, 0
13, 32928, Note_on_c, 13, 65, 96
13, 32928, Note_on_c, 13, 71, 96
13, 32928, Note_on_c, 13, 50, 96
13, 33012, Note_off_c, 13, 65, 0
13, 33012, Note_off_c, 13, 71, 0
13, 33012, Note_off_c, 13, 50, 0
13, 33024, Note_on_c, 13, 67, 96
13, 33024, Note_on_c, 13, 72, 96
13, 33024, Note_on_c, 13, 52, 96
13, 33108, Note_off_c, 13, 67, 0
13, 33108, Note_off_c, 13, 72, 0
13, 33108, Note_off_c, 13, 52, 0
13, 33120, Note_on_c, 13, 67, 96
13, 33120, Note_on_c, 13, 76, 96
13, 33120, Note_on_c, 13, 48, 96
13, 33204, Note_off_c, 13, 67, 0
13, 33204, Note_off_c, 13, 76, 0
13, 33204, Note_off_c, 13, 48, 0
13, 33216, Note_on_c, 13, 67, 96
13, 33216, Note_on_c, 13, 74, 96
13, 33216, Note_on_c, 13, 47, 96
13, 33300, Note_off_c, 13, 67, 0
13, 33300, Note_off_c, 13, 74, 0
13, 33300, Note_off_c, 13, 47, 0
13, 33312, Note_on_c, 13, 67, 96
13, 33312, Note_on_c, 13, 72, 96
13, 33312, Note_on_c, 13, 45, 96
13, 33354, Note_off_c, 13, 45, 0
13, 33360, Note_on_c, 13, 43, 96
13, 33396, Note_off_c, 13, 67, 0
13, 33396, Note_off_c, 13, 72, 0
13, 33402, Note_off_c, 13, 43, 0
13, 33408, Note_on_c, 13, 67, 96
13, 33408, Note_on_c, 13, 72, 96
13, 33408, Note_on_c, 13, 41, 96
13, 33450, Note_off_c, 13, 41, 0
13, 33456, Note_on_c, 13, 40, 96
13, 33492, Note_off_c, 13, 67, 0
13, 33492, Note_off_c, 13, 72, 0
13, 33498, Note_off_c, 13, 40, 0
13, 33504, Note_on_c, 13, 65, 96
13, 33504, Note_on_c, 13, 72, 96
13, 33504, Note_on_c, 13, 45, 96
13, 33546, Note_off_c, 13, 45, 0
13, 33552, Note_on_c, 13, 41, 96
13, 33588, Note_off_c, 13, 65, 0
13, 33588, Note_off_c, 13, 72, 0
13, 33594, Note_off_c, 13, 41, 0
13, 33600, Note_on_c, 13, 62, 96
13, 33600, Note_on_c, 13, 70, 96
13, 33600, Note_on_c, 13, 43, 96
13, 33684, Note_off_c, 13, 62, 0
13, 33684, Note_off_c, 13, 70, 0
13, 33684, Note_off_c, 13, 43, 0
13, 33696, Note_on_c, 13, 65, 96
13, 33696, Note_on_c, 13, 70, 96
13, 33696, Note_on_c, 13, 43, 96
13, 33780, Note_off_c, 13, 65, 0
13, 33780, Note_off_c, 13, 70, 0
13, 33780, Note_off_c, 13, 43, 0
13, 33792, Note_on_c, 13, 67, 96
13, 33792, Note_on_c, 13, 76, 96
13, 33792, Note_on_c, 13, 36, 96
13, 33876, Note_off_c, 13, 67, 0
13, 33876, Note_off_c, 13, 76, 0
13, 33876, Note_off_c, 13, 36, 0
13, 33888, Note_on_c, 13, 60, 96
13, 33888, Note_on_c, 13, 48, 96
13, 33930, Note_off_c, 13, 60, 0
13, 33930, Note_off_c, 13, 48, 0
13, 33936, Note_on_c, 13, 58, 96
13, 33936, Note_on_c, 13, 46, 96
13, 33978, Note_off_c, 13, 58, 0
13, 33978, Note_off_c, 13, 46, 0
13, 33984, Note_on_c, 13, 57, 96
13, 33984, Note_on_c, 13, 45, 96
13, 34026, Note_off_c, 13, 57, 0
13, 34026, Note_off_c, 13, 45, 0
13, 34032, Note_on_c, 13, 55, 96
13, 34032, Note_on_c, 13, 43, 96
13, 34074, Note_off_c, 13, 55, 0
13, 34074, Note_off_c, 13, 43, 0
13, 34080, Note_on_c, 13, 60, 96
13, 34080, Note_on_c, 13, 69, 96
13, 34080, Note_on_c, 13, 41, 96
13, 34164, Note_off_c, 13, 60, 0
13, 34164, Note_off_c, 13, 69, 0
13, 34164, Note_off_c, 13, 41, 0
13, 34176, Note_on_c, 13, 63, 96
13, 34176, Note_on_c, 13, 72, 96
13, 34176, Note_on_c, 13, 57, 96
13, 34260, Note_off_c, 13, 63, 0
13, 34260, Note_off_c, 13, 72, 0
13, 34260, Note_off_c, 13, 57, 0
13, 34272, Note_on_c, 13, 65, 96
13, 34272, Note_on_c, 13, 74, 96
13, 34272, Note_on_c, 13, 58, 96
13, 34356, Note_off_c, 13, 65, 0
13, 34356, Note_off_c, 13, 74, 0
13, 34356, Note_off_c, 13, 58, 0
13, 34368, Note_on_c, 13, 69, 96
13, 34368, Note_on_c, 13, 75, 96
13, 34368, Note_on_c, 13, 60, 96
13, 34452, Note_off_c, 13, 69, 0
13, 34452, Note_off_c, 13, 75, 0
13, 34452, Note_off_c, 13, 60, 0
13, 34464, Note_on_c, 13, 70, 96
13, 34464, Note_on_c, 13, 75, 96
13, 34464, Note_on_c, 13, 63, 96
13, 34548, Note_off_c, 13, 70, 0
13, 34548, Note_off_c, 13, 75, 0
13, 34548, Note_off_c, 13, 63, 0
13, 34560, Note_on_c, 13, 62, 96
13, 34560, Note_on_c, 13, 70, 96
13, 34560, Note_on_c, 13, 62, 96
13, 34644, Note_off_c, 13, 62, 0
13, 34644, Note_off_c, 13, 70, 0
13, 34644, Note_off_c, 13, 62, 0
13, 34656, Note_on_c, 13, 69, 96
13, 34656, Note_on_c, 13, 75, 96
13, 34656, Note_on_c, 13, 60, 96
13, 34740, Note_off_c, 13, 69, 0
13, 34740, Note_off_c, 13, 75, 0
13, 34740, Note_off_c, 13, 60, 0
13, 34752, Note_on_c, 13, 63, 96
13, 34752, Note_on_c, 13, 72, 96
13, 34752, Note_on_c, 13, 58, 96
13, 34794, Note_off_c, 13, 58, 0
13, 34800, Note_on_c, 13, 57, 96
13, 34836, Note_off_c, 13, 63, 0
13, 34836, Note_off_c, 13, 72, 0
13, 34842, Note_off_c, 13, 57, 0
13, 34848, Note_on_c, 13, 65, 96
13, 34848, Note_on_c, 13, 74, 96
13, 34848, Note_on_c, 13, 58, 96
13, 34932, Note_off_c, 13, 65, 0
13, 34932, Note_off_c, 13, 74, 0
13, 34932, Note_off_c, 13, 58, 0
13, 34944, Note_on_c, 13, 65, 96
13, 34944, Note_on_c, 13, 72, 96
13, 34944, Note_on_c, 13, 57, 96
13, 35028, Note_off_c, 13, 65, 0
13, 35028, Note_off_c, 13, 72, 0
13, 35028, Note_off_c, 13, 57, 0
13, 35040, Note_on_c, 13, 65, 96
13, 35040, Note_on_c, 13, 70, 96
13, 35040, Note_on_c, 13, 58, 96
13, 35082, Note_off_c, 13, 58, 0
13, 35088, Note_on_c, 13, 57, 96
13, 35124, Note_off_c, 13, 65, 0
13, 35124, Note_off_c, 13, 70, 0
13, 35130, Note_off_c, 13, 57, 0
13, 35136, Note_on_c, 13, 60, 96
13, 35136, Note_on_c, 13, 69, 96
13, 35136, Note_on_c, 13, 55, 96
13, 35178, Note_off_c, 13, 55, 0
13, 35184, Note_on_c, 13, 53, 96
13, 35220, Note_off_c, 13, 60, 0
13, 35220, Note_off_c, 13, 69, 0
13, 35226, Note_off_c, 13, 53, 0
13, 35232, Note_on_c, 13, 67, 96
13, 35232, Note_on_c, 13, 72, 96
13, 35232, Note_on_c, 13, 53, 96
13, 35242, Note_off_c, 13, 53, 0
13, 35244, Note_on_c, 13, 52, 96
13, 35254, Note_off_c, 13, 52, 0
13, 35256, Note_on_c, 13, 53, 96
13, 35266, Note_off_c, 13, 53, 0
13, 35268, Note_on_c, 13, 52, 96
13, 35278, Note_off_c, 13, 52, 0
13, 35280, Note_on_c, 13, 53, 96
13, 35290, Note_off_c, 13, 53, 0
13, 35292, Note_on_c, 13, 52, 96
13, 35302, Note_off_c, 13, 52, 0
13, 35304, Note_on_c, 13, 53, 96
13, 35314, Note_off_c, 13, 53, 0
13, 35316, Note_off_c, 13, 67, 0
13, 35316, Note_off_c, 13, 72, 0
13, 35316, Note_on_c, 13, 52, 96
13, 35326, Note_off_c, 13, 52, 0
13, 35328, Note_on_c, 13, 60, 96
13, 35328, Note_on_c, 13, 67, 96
13, 35328, Note_on_c, 13, 53, 96
13, 35338, Note_off_c, 13, 53, 0
13, 35340, Note_on_c, 13, 52, 96
13, 35350, Note_off_c, 13, 52, 0
13, 35352, Note_on_c, 13, 53, 96
13, 35362, Note_off_c, 13, 53, 0
13, 35364, Note_on_c, 13, 52, 96
13, 35374, Note_off_c, 13, 52, 0
13, 35376, Note_on_c, 13, 53, 96
13, 35386, Note_off_c, 13, 53, 0
13, 35388, Note_on_c, 13, 52, 96
13, 35398, Note_off_c, 13, 52, 0
13, 35400, Note_on_c, 13, 53, 96
13, 35410, Note_off_c, 13, 53, 0
13, 35412, Note_off_c, 13, 60, 0
13, 35412, Note_off_c, 13, 67, 0
13, 35412, Note_on_c, 13, 52, 96
13, 35422, Note_off_c, 13, 52, 0
13, 35424, Note_on_c, 13, 60, 96
13, 35424, Note_on_c, 13, 69, 96
13, 35424, Note_on_c, 13, 53, 96
13, 35508, Note_off_c, 13, 60, 0
13, 35508, Note_off_c, 13, 69, 0
13, 35508, Note_off_c, 13, 53, 0
13, 35520, Note_on_c, 13, 64, 96
13, 35520, Note_on_c, 13, 70, 96
13, 35520, Note_on_c, 13, 55, 96
13, 35604, Note_off_c, 13, 64, 0
13, 35604, Note_off_c, 13, 70, 0
13, 35604, Note_off_c, 13, 55, 0
13, 35616, Note_on_c, 13, 62, 96
13, 35616, Note_on_c, 13, 69, 96
13, 35616, Note_on_c, 13, 53, 96
13, 35658, Note_off_c, 13, 53, 0
13, 35664, Note_on_c, 13, 52, 96
13, 35700, Note_off_c, 13, 62, 0
13, 35700, Note_off_c, 13, 69, 0
13, 35706, Note_off_c, 13, 52, 0
13, 35712, Note_on_c, 13, 69, 96
13, 35712, Note_on_c, 13, 74, 96
13, 35712, Note_on_c, 13, 53, 96
13, 35796, Note_off_c, 13, 69, 0
13, 35796, Note_off_c, 13, 74, 0
13, 35796, Note_off_c, 13, 53, 0
13, 35808, Note_on_c, 13, 67, 96
13, 35808, Note_on_c, 13, 72, 96
13, 35808, Note_on_c, 13, 52, 96
13, 35892, Note_off_c, 13, 67, 0
13, 35892, Note_off_c, 13, 72, 0
13, 35892, Note_off_c, 13, 52, 0
13, 35904, Note_on_c, 13, 60, 96
13, 35904, Note_on_c, 13, 69, 96
13, 35904, Note_on_c, 13, 53, 96
13, 35946, Note_off_c, 13, 53, 0
13, 35952, Note_on_c, 13, 52, 96
13, 35988, Note_off_c, 13, 60, 0
13, 35988, Note_off_c, 13, 69, 0
13, 35994, Note_off_c, 13, 52, 0
13, 36000, Note_on_c, 13, 64, 96
13, 36000, Note_on_c, 13, 72, 96
13, 36000, Note_on_c, 13, 50, 96
13, 36042, Note_off_c, 13, 50, 0
13, 36048, Note_on_c, 13, 48, 96
13, 36084, Note_off_c, 13, 64, 0
13, 36084, Note_off_c, 13, 72, 0
13, 36090, Note_off_c, 13, 48, 0
13, 36096, Note_on_c, 13, 60, 96
13, 36096, Note_on_c, 13, 69, 96
13, 36096, Note_on_c, 13, 53, 96
13, 36180, Note_off_c, 13, 60, 0
13, 36180, Note_off_c, 13, 69, 0
13, 36180, Note_off_c, 13, 53, 0
13, 36192, Note_on_c, 13, 69, 96
13, 36192, Note_on_c, 13, 72, 96
13, 36192, Note_on_c, 13, 52, 96
13, 36234, Note_off_c, 13, 52, 0
13, 36240, Note_on_c, 13, 50, 96
13, 36276, Note_off_c, 13, 69, 0
13, 36276, Note_off_c, 13, 72, 0
13, 36282, Note_off_c, 13, 50, 0
13, 36288, Note_on_c, 13, 67, 96
13, 36288, Note_on_c, 13, 72, 96
13, 36288, Note_on_c, 13, 52, 96
13, 36372, Note_off_c, 13, 67, 0
13, 36372, Note_off_c, 13, 72, 0
13, 36372, Note_off_c, 13, 52, 0
13, 36384, Note_on_c, 13, 65, 96
13, 36384, Note_on_c, 13, 71, 96
13, 36384, Note_on_c, 13, 50, 96
13, 36468, Note_off_c, 13, 65, 0
13, 36468, Note_off_c, 13, 71, 0
13, 36468, Note_off_c, 13, 50, 0
13, 36480, Note_on_c, 13, 67, 96
13, 36480, Note_on_c, 13, 72, 96
13, 36480, Note_on_c, 13, 52, 96
13, 36564, Note_off_c, 13, 67, 0
13, 36564, Note_off_c, 13, 72, 0
13, 36564, Note_off_c, 13, 52, 0
13, 36576, Note_on_c, 13, 67, 96
13, 36576, Note_on_c, 13, 76, 96
13, 36576, Note_on_c, 13, 48, 96
13, 36660, Note_off_c, 13, 67, 0
13, 36660, Note_off_c, 13, 76, 0
13, 36660, Note_off_c, 13, 48, 0
13, 36672, Note_on_c, 13, 67, 96
13, 36672, Note_on_c, 13, 74, 96
13, 36672, Note_on_c, 13, 47, 96
13, 36756, Note_off_c, 13, 67, 0
13, 36756, Note_off_c, 13, 74, 0
13, 36756, Note_off_c, 13, 47, 0
13, 36768, Note_on_c, 13, 67, 96
13, 36768, Note_on_c, 13, 72, 96
13, 36768, Note_on_c, 13, 45, 96
13, 36810, Note_off_c, 13, 45, 0
13, 36816, Note_on_c, 13, 43, 96
13, 36852, Note_off_c, 13, 67, 0
13, 36852, Note_off_c, 13, 72, 0
13, 36858, Note_off_c, 13, 43, 0
13, 36864, Note_on_c, 13, 67, 96
13, 36864, Note_on_c, 13, 72, 96
13, 36864, Note_on_c, 13, 41, 96
13, 36906, Note_off_c, 13, 41, 0
13, 36912, Note_on_c, 13, 40, 96
13, 36948, Note_off_c, 13, 67, 0
13, 36948, Note_off_c, 13, 72, 0
13, 36954, Note_off_c, 13, 40, 0
13, 36960, Note_on_c, 13, 65, 96
13, 36960, Note_on_c, 13, 72, 96
13, 36960, Note_on_c, 13, 45, 96
13, 37002, Note_off_c, 13, 45, 0
13, 37008, Note_on_c, 13, 41, 96
13, 37044, Note_off_c, 13, 65, 0
13, 37044, Note_off_c, 13, 72, 0
13, 37050, Note_off_c, 13, 41, 0
13, 37056, Note_on_c, 13, 62, 96
13, 37056, Note_on_c, 13, 70, 96
13, 37056, Note_on_c, 13, 43, 96
13, 37140, Note_off_c, 13, 62, 0
13, 37140, Note_off_c, 13, 70, 0
13, 37140, Note_off_c, 13, 43, 0
13, 37152, Note_on_c, 13, 65, 96
13, 37152, Note_on_c, 13, 70, 96
13, 37152, Note_on_c, 13, 43, 96
13, 37236, Note_off_c, 13, 65, 0
13, 37236, Note_off_c, 13, 70, 0
13, 37236, Note_off_c, 13, 43, 0
13, 37248, Note_on_c, 13, 67, 96
13, 37248, Note_on_c, 13, 76, 96
13, 37248, Note_on_c, 13, 36, 96
13, 37332, Note_off_c, 13, 36, 0
13, 37344, Note_on_c, 13, 48, 96
13, 37428, Note_off_c, 13, 48, 0
13, 37440, Note_on_c, 13, 50, 96
13, 37524, Note_off_c, 13, 67, 0
13, 37524, Note_off_c, 13, 76, 0
13, 37524, Note_off_c, 13, 50, 0
13, 37536, Note_on_c, 13, 67, 96
13, 37536, Note_on_c, 13, 72, 96
13, 37536, Note_on_c, 13, 52, 96
13, 37620, Note_off_c, 13, 67, 0
13, 37620, Note_off_c, 13, 72, 0
13, 37632, Note_on_c, 13, 67, 96
13, 37632, Note_on_c, 13, 70, 96
13, 37716, Note_off_c, 13, 52, 0
13, 37716, Note_off_c, 13, 67, 0
13, 37716, Note_off_c, 13, 70, 0
13, 37728, Note_on_c, 13, 60, 96
13, 37728, Note_on_c, 13, 69, 96
13, 37728, Note_on_c, 13, 53, 96
13, 37812, Note_off_c, 13, 60, 0
13, 37812, Note_off_c, 13, 69, 0
13, 37812, Note_off_c, 13, 53, 0
13, 37824, Note_on_c, 13, 64, 96
13, 37824, Note_on_c, 13, 70, 96
13, 37824, Note_on_c, 13, 55, 96
13, 37908, Note_off_c, 13, 64, 0
13, 37908, Note_off_c, 13, 70, 0
13, 37908, Note_off_c, 13, 55, 0
13, 37920, Note_on_c, 13, 64, 96
13, 37920, Note_on_c, 13, 72, 96
13, 37920, Note_on_c, 13, 58, 96
13, 38004, Note_off_c, 13, 64, 0
13, 38004, Note_off_c, 13, 72, 0
13, 38004, Note_off_c, 13, 58, 0
13, 38016, Note_on_c, 13, 65, 96
13, 38016, Note_on_c, 13, 72, 96
13, 38016, Note_on_c, 13, 57, 96
13, 38100, Note_off_c, 13, 65, 0
13, 38100, Note_off_c, 13, 72, 0
13, 38100, Note_off_c, 13, 57, 0
13, 38112, Note_on_c, 13, 64, 96
13, 38112, Note_on_c, 13, 70, 96
13, 38112, Note_on_c, 13, 55, 96
13, 38196, Note_off_c, 13, 64, 0
13, 38196, Note_off_c, 13, 70, 0
13, 38196, Note_off_c, 13, 55, 0
13, 38208, Note_on_c, 13, 62, 96
13, 38208, Note_on_c, 13, 70, 96
13, 38208, Note_on_c, 13, 53, 96
13, 38250, Note_off_c, 13, 53, 0
13, 38256, Note_on_c, 13, 52, 96
13, 38292, Note_off_c, 13, 62, 0
13, 38292, Note_off_c, 13, 70, 0
13, 38298, Note_off_c, 13, 52, 0
13, 38304, Note_on_c, 13, 60, 96
13, 38304, Note_on_c, 13, 69, 96
13, 38304, Note_on_c, 13, 53, 96
13, 38388, Note_off_c, 13, 60, 0
13, 38388, Note_off_c, 13, 69, 0
13, 38388, Note_off_c, 13, 53, 0
13, 38400, Note_on_c, 13, 60, 96
13, 38400, Note_on_c, 13, 67, 96
13, 38400, Note_on_c, 13, 52, 96
13, 38484, Note_off_c, 13, 60, 0
13, 38484, Note_off_c, 13, 67, 0
13, 38484, Note_off_c, 13, 52, 0
13, 38496, Note_on_c, 13, 65, 96
13, 38496, Note_on_c, 13, 72, 96
13, 38496, Note_on_c, 13, 53, 96
13, 38538, Note_off_c, 13, 53, 0
13, 38544, Note_on_c, 13, 52, 96
13, 38580, Note_off_c, 13, 65, 0
13, 38580, Note_off_c, 13, 72, 0
13, 38586, Note_off_c, 13, 52, 0
13, 38592, Note_on_c, 13, 67, 96
13, 38592, Note_on_c, 13, 76, 96
13, 38592, Note_on_c, 13, 50, 96
13, 38634, Note_off_c, 13, 50, 0
13, 38640, Note_on_c, 13, 48, 96
13, 38676, Note_off_c, 13, 67, 0
13, 38676, Note_off_c, 13, 76, 0
13, 38682, Note_off_c, 13, 48, 0
13, 38688, Note_on_c, 13, 67, 96
13, 38688, Note_on_c, 13, 74, 96
13, 38688, Note_on_c, 13, 48, 96
13, 38698, Note_off_c, 13, 48, 0
13, 38700, Note_on_c, 13, 47, 96
13, 38710, Note_off_c, 13, 47, 0
13, 38712, Note_on_c, 13, 48, 96
13, 38722, Note_off_c, 13, 48, 0
13, 38724, Note_on_c, 13, 47, 96
13, 38734, Note_off_c, 13, 47, 0
13, 38736, Note_on_c, 13, 48, 96
13, 38746, Note_off_c, 13, 48, 0
13, 38748, Note_on_c, 13, 47, 96
13, 38758, Note_off_c, 13, 47, 0
13, 38760, Note_on_c, 13, 48, 96
13, 38770, Note_off_c, 13, 48, 0
13, 38772, Note_off_c, 13, 67, 0
13, 38772, Note_off_c, 13, 74, 0
13, 38772, Note_on_c, 13, 47, 96
13, 38782, Note_off_c, 13, 47, 0
13, 38784, Note_on_c, 13, 62, 96
13, 38784, Note_on_c, 13, 71, 96
13, 38784, Note_on_c, 13, 48, 96
13, 38794, Note_off_c, 13, 48, 0
13, 38796, Note_on_c, 13, 47, 96
13, 38806, Note_off_c, 13, 47, 0
13, 38808, Note_on_c, 13, 48, 96
13, 38818, Note_off_c, 13, 48, 0
13, 38820, Note_on_c, 13, 47, 96
13, 38830, Note_off_c, 13, 47, 0
13, 38832, Note_on_c, 13, 48, 96
13, 38842, Note_off_c, 13, 48, 0
13, 38844, Note_on_c, 13, 47, 96
13, 38854, Note_off_c, 13, 47, 0
13, 38856, Note_on_c, 13, 48, 96
13, 38866, Note_off_c, 13, 48, 0
13, 38868, Note_off_c, 13, 62, 0
13, 38868, Note_off_c, 13, 71, 0
13, 38868, Note_on_c, 13, 47, 96
13, 38878, Note_off_c, 13, 47, 0
13, 38880, Note_on_c, 13, 67, 96
13, 38880, Note_on_c, 13, 76, 96
13, 38880, Note_on_c, 13, 48, 96
13, 38964, Note_off_c, 13, 67, 0
13, 38964, Note_off_c, 13, 76, 0
13, 38964, Note_off_c, 13, 48, 0
13, 38976, Note_on_c, 13, 71, 96
13, 38976, Note_on_c, 13, 77, 96
13, 38976, Note_on_c, 13, 50, 96
13, 39060, Note_off_c, 13, 71, 0
13, 39060, Note_off_c, 13, 77, 0
13, 39060, Note_off_c, 13, 50, 0
13, 39072, Note_on_c, 13, 69, 96
13, 39072, Note_on_c, 13, 76, 96
13, 39072, Note_on_c, 13, 48, 96
13, 39114, Note_off_c, 13, 48, 0
13, 39120, Note_on_c, 13, 47, 96
13, 39156, Note_off_c, 13, 69, 0
13, 39156, Note_off_c, 13, 76, 0
13, 39162, Note_off_c, 13, 47, 0
13, 39168, Note_on_c, 13, 69, 96
13, 39168, Note_on_c, 13, 72, 96
13, 39168, Note_on_c, 13, 48, 96
13, 39252, Note_off_c, 13, 69, 0
13, 39252, Note_off_c, 13, 72, 0
13, 39252, Note_off_c, 13, 48, 0
13, 39264, Note_on_c, 13, 67, 96
13, 39264, Note_on_c, 13, 74, 96
13, 39264, Note_on_c, 13, 47, 96
13, 39348, Note_off_c, 13, 67, 0
13, 39348, Note_off_c, 13, 74, 0
13, 39348, Note_off_c, 13, 47, 0
13, 39360, Note_on_c, 13, 67, 96
13, 39360, Note_on_c, 13, 76, 96
13, 39360, Note_on_c, 13, 48, 96
13, 39402, Note_off_c, 13, 48, 0
13, 39408, Note_on_c, 13, 47, 96
13, 39444, Note_off_c, 13, 67, 0
13, 39444, Note_off_c, 13, 76, 0
13, 39450, Note_off_c, 13, 47, 0
13, 39456, Note_on_c, 13, 62, 96
13, 39456, Note_on_c, 13, 71, 96
13, 39456, Note_on_c, 13, 45, 96
13, 39498, Note_off_c, 13, 45, 0
13, 39504, Note_on_c, 13, 43, 96
13, 39540, Note_off_c, 13, 62, 0
13, 39540, Note_off_c, 13, 71, 0
13, 39546, Note_off_c, 13, 43, 0
13, 39552, Note_on_c, 13, 67, 96
13, 39552, Note_on_c, 13, 76, 96
13, 39552, Note_on_c, 13, 48, 96
13, 39636, Note_off_c, 13, 67, 0
13, 39636, Note_off_c, 13, 76, 0
13, 39636, Note_off_c, 13, 48, 0
13, 39648, Note_on_c, 13, 65, 96
13, 39648, Note_on_c, 13, 74, 96
13, 39648, Note_on_c, 13, 46, 96
13, 39690, Note_off_c, 13, 46, 0
13, 39696, Note_on_c, 13, 45, 96
13, 39732, Note_off_c, 13, 65, 0
13, 39732, Note_off_c, 13, 74, 0
13, 39738, Note_off_c, 13, 45, 0
13, 39744, Note_on_c, 13, 65, 96
13, 39744, Note_on_c, 13, 74, 96
13, 39744, Note_on_c, 13, 43, 96
13, 39786, Note_off_c, 13, 43, 0
13, 39792, Note_on_c, 13, 41, 96
13, 39828, Note_off_c, 13, 65, 0
13, 39828, Note_off_c, 13, 74, 0
13, 39834, Note_off_c, 13, 41, 0
13, 39840, Note_on_c, 13, 67, 96
13, 39840, Note_on_c, 13, 72, 96
13, 39840, Note_on_c, 13, 40, 96
13, 39924, Note_off_c, 13, 67, 0
13, 39924, Note_off_c, 13, 72, 0
13, 39924, Note_off_c, 13, 40, 0
13, 39936, Note_on_c, 13, 60, 96
13, 39936, Note_on_c, 13, 69, 96
13, 39936, Note_on_c, 13, 41, 96
13, 39978, Note_off_c, 13, 41, 0
13, 39984, Note_on_c, 13, 40, 96
13, 40020, Note_off_c, 13, 60, 0
13, 40020, Note_off_c, 13, 69, 0
13, 40026, Note_off_c, 13, 40, 0
13, 40032, Note_on_c, 13, 69, 96
13, 40032, Note_on_c, 13, 77, 96
13, 40032, Note_on_c, 13, 38, 96
13, 40074, Note_off_c, 13, 38, 0
13, 40080, Note_on_c, 13, 40, 96
13, 40116, Note_off_c, 13, 69, 0
13, 40116, Note_off_c, 13, 77, 0
13, 40122, Note_off_c, 13, 40, 0
13, 40128, Note_on_c, 13, 67, 96
13, 40128, Note_on_c, 13, 76, 96
13, 40128, Note_on_c, 13, 36, 96
13, 40212, Note_off_c, 13, 67, 0
13, 40212, Note_off_c, 13, 76, 0
13, 40212, Note_off_c, 13, 36, 0
13, 40224, Note_on_c, 13, 69, 96
13, 40224, Note_on_c, 13, 77, 96
13, 40224, Note_on_c, 13, 48, 96
13, 40266, Note_off_c, 13, 48, 0
13, 40272, Note_on_c, 13, 50, 96
13, 40308, Note_off_c, 13, 69, 0
13, 40308, Note_off_c, 13, 77, 0
13, 40314, Note_off_c, 13, 50, 0
13, 40320, Note_on_c, 13, 72, 96
13, 40320, Note_on_c, 13, 79, 96
13, 40320, Note_on_c, 13, 52, 96
13, 40362, Note_off_c, 13, 52, 0
13, 40368, Note_on_c, 13, 48, 96
13, 40404, Note_off_c, 13, 72, 0
13, 40404, Note_off_c, 13, 79, 0
13, 40410, Note_off_c, 13, 48, 0
13, 40416, Note_on_c, 13, 69, 96
13, 40416, Note_on_c, 13, 77, 96
13, 40416, Note_on_c, 13, 50, 96
13, 40458, Note_off_c, 13, 50, 0
13, 40464, Note_on_c, 13, 46, 96
13, 40500, Note_off_c, 13, 69, 0
13, 40500, Note_off_c, 13, 77, 0
13, 40506, Note_off_c, 13, 46, 0
13, 40512, Note_on_c, 13, 67, 96
13, 40512, Note_on_c, 13, 76, 96
13, 40512, Note_on_c, 13, 48, 96
13, 40596, Note_off_c, 13, 67, 0
13, 40596, Note_off_c, 13, 76, 0
13, 40596, Note_off_c, 13, 48, 0
13, 40608, Note_on_c, 13, 64, 96
13, 40608, Note_on_c, 13, 67, 96
13, 40608, Note_on_c, 13, 36, 96
13, 40692, Note_off_c, 13, 64, 0
13, 40692, Note_off_c, 13, 67, 0
13, 40692, Note_off_c, 13, 36, 0
13, 40704, Note_on_c, 13, 60, 96
13, 40704, Note_on_c, 13, 69, 96
13, 40704, Note_on_c, 13, 41, 96
13, 40746, Note_off_c, 13, 41, 0
13, 40752, Note_on_c, 13, 43, 96
13, 40794, Note_off_c, 13, 43, 0
13, 40800, Note_on_c, 13, 45, 96
13, 40842, Note_off_c, 13, 45, 0
13, 40848, Note_on_c, 13, 46, 96
13, 40890, Note_off_c, 13, 46, 0
13, 40896, Note_on_c, 13, 48, 96
13, 40938, Note_off_c, 13, 48, 0
13, 40944, Note_on_c, 13, 50, 96
13, 40980, Note_off_c, 13, 60, 0
13, 40980, Note_off_c, 13, 69, 0
13, 40986, Note_off_c, 13, 50, 0
13, 40992, Note_on_c, 13, 67, 96
13, 40992, Note_on_c, 13, 72, 96
13, 40992, Note_on_c, 13, 52, 96
13, 41076, Note_off_c, 13, 67, 0
13, 41076, Note_off_c, 13, 72, 0
13, 41088, Note_on_c, 13, 67, 96
13, 41088, Note_on_c, 13, 70, 96
13, 41172, Note_off_c, 13, 52, 0
13, 41172, Note_off_c, 13, 67, 0
13, 41172, Note_off_c, 13, 70, 0
13, 41184, Note_on_c, 13, 60, 96
13, 41184, Note_on_c, 13, 69, 96
13, 41184, Note_on_c, 13, 53, 96
13, 41268, Note_off_c, 13, 60, 0
13, 41268, Note_off_c, 13, 69, 0
13, 41268, Note_off_c, 13, 53, 0
13, 41280, Note_on_c, 13, 64, 96
13, 41280, Note_on_c, 13, 70, 96
13, 41280, Note_on_c, 13, 55, 96
13, 41364, Note_off_c, 13, 64, 0
13, 41364, Note_off_c, 13, 70, 0
13, 41364, Note_off_c, 13, 55, 0
13, 41376, Note_on_c, 13, 64, 96
13, 41376, Note_on_c, 13, 72, 96
13, 41376, Note_on_c, 13, 58, 96
13, 41460, Note_off_c, 13, 64, 0
13, 41460, Note_off_c, 13, 72, 0
13, 41460, Note_off_c, 13, 58, 0
13, 41472, Note_on_c, 13, 65, 96
13, 41472, Note_on_c, 13, 72, 96
13, 41472, Note_on_c, 13, 57, 96
13, 41556, Note_off_c, 13, 65, 0
13, 41556, Note_off_c, 13, 72, 0
13, 41556, Note_off_c, 13, 57, 0
13, 41568, Note_on_c, 13, 64, 96
13, 41568, Note_on_c, 13, 70, 96
13, 41568, Note_on_c, 13, 55, 96
13, 41652, Note_off_c, 13, 64, 0
13, 41652, Note_off_c, 13, 70, 0
13, 41652, Note_off_c, 13, 55, 0
13, 41664, Note_on_c, 13, 62, 96
13, 41664, Note_on_c, 13, 70, 96
13, 41664, Note_on_c, 13, 53, 96
13, 41706, Note_off_c, 13, 53, 0
13, 41712, Note_on_c, 13, 52, 96
13, 41748, Note_off_c, 13, 62, 0
13, 41748, Note_off_c, 13, 70, 0
13, 41754, Note_off_c, 13, 52, 0
13, 41760, Note_on_c, 13, 60, 96
13, 41760, Note_on_c, 13, 69, 96
13, 41760, Note_on_c, 13, 53, 96
13, 41844, Note_off_c, 13, 60, 0
13, 41844, Note_off_c, 13, 69, 0
13, 41844, Note_off_c, 13, 53, 0
13, 41856, Note_on_c, 13, 60, 96
13, 41856, Note_on_c, 13, 67, 96
13, 41856, Note_on_c, 13, 52, 96
13, 41940, Note_off_c, 13, 60, 0
13, 41940, Note_off_c, 13, 67, 0
13, 41940, Note_off_c, 13, 52, 0
13, 41952, Note_on_c, 13, 65, 96
13, 41952, Note_on_c, 13, 72, 96
13, 41952, Note_on_c, 13, 53, 96
13, 41994, Note_off_c, 13, 53, 0
13, 42000, Note_on_c, 13, 52, 96
13, 42036, Note_off_c, 13, 65, 0
13, 42036, Note_off_c, 13, 72, 0
13, 42042, Note_off_c, 13, 52, 0
13, 42048, Note_on_c, 13, 67, 96
13, 42048, Note_on_c, 13, 76, 96
13, 42048, Note_on_c, 13, 50, 96
13, 42090, Note_off_c, 13, 50, 0
13, 42096, Note_on_c, 13, 48, 96
13, 42132, Note_off_c, 13, 67, 0
13, 42132, Note_off_c, 13, 76, 0
13, 42138, Note_off_c, 13, 48, 0
13, 42144, Note_on_c, 13, 67, 96
13, 42144, Note_on_c, 13, 74, 96
13, 42144, Note_on_c, 13, 48, 96
13, 42154, Note_off_c, 13, 48, 0
13, 42156, Note_on_c, 13, 47, 96
13, 42166, Note_off_c, 13, 47, 0
13, 42168, Note_on_c, 13, 48, 96
13, 42178, Note_off_c, 13, 48, 0
13, 42180, Note_on_c, 13, 47, 96
13, 42190, Note_off_c, 13, 47, 0
13, 42192, Note_on_c, 13, 48, 96
13, 42202, Note_off_c, 13, 48, 0
13, 42204, Note_on_c, 13, 47, 96
13, 42214, Note_off_c, 13, 47, 0
13, 42216, Note_on_c, 13, 48, 96
13, 42226, Note_off_c, 13, 48, 0
13, 42228, Note_off_c, 13, 67, 0
13, 42228, Note_off_c, 13, 74, 0
13, 42228, Note_on_c, 13, 47, 96
13, 42238, Note_off_c, 13, 47, 0
13, 42240, Note_on_c, 13, 62, 96
13, 42240, Note_on_c, 13, 71, 96
13, 42240, Note_on_c, 13, 48, 96
13, 42250, Note_off_c, 13, 48, 0
13, 42252, Note_on_c, 13, 47, 96
13, 42262, Note_off_c, 13, 47, 0
13, 42264, Note_on_c, 13, 48, 96
13, 42274, Note_off_c, 13, 48, 0
13, 42276, Note_on_c, 13, 47, 96
13, 42286, Note_off_c, 13, 47, 0
13, 42288, Note_on_c, 13, 48, 96
13, 42298, Note_off_c, 13, 48, 0
13, 42300, Note_on_c, 13, 47, 96
13, 42310, Note_off_c, 13, 47, 0
13, 42312, Note_on_c, 13, 48, 96
13, 42322, Note_off_c, 13, 48, 0
13, 42324, Note_off_c, 13, 62, 0
13, 42324, Note_off_c, 13, 71, 0
13, 42324, Note_on_c, 13, 47, 96
13, 42334, Note_off_c, 13, 47, 0
13, 42336, Note_on_c, 13, 67, 96
13, 42336, Note_on_c, 13, 76, 96
13, 42336, Note_on_c, 13, 48, 96
13, 42420, Note_off_c, 13, 67, 0
13, 42420, Note_off_c, 13, 76, 0
13, 42420, Note_off_c, 13, 48, 0
13, 42432, Note_on_c, 13, 71, 96
13, 42432, Note_on_c, 13, 77, 96
13, 42432, Note_on_c, 13, 50, 96
13, 42516, Note_off_c, 13, 71, 0
13, 42516, Note_off_c, 13, 77, 0
13, 42516, Note_off_c, 13, 50, 0
13, 42528, Note_on_c, 13, 69, 96
13, 42528, Note_on_c, 13, 76, 96
13, 42528, Note_on_c, 13, 48, 96
13, 42570, Note_off_c, 13, 48, 0
13, 42576, Note_on_c, 13, 47, 96
13, 42612, Note_off_c, 13, 69, 0
13, 42612, Note_off_c, 13, 76, 0
13, 42618, Note_off_c, 13, 47, 0
13, 42624, Note_on_c, 13, 69, 96
13, 42624, Note_on_c, 13, 72, 96
13, 42624, Note_on_c, 13, 48, 96
13, 42708, Note_off_c, 13, 69, 0
13, 42708, Note_off_c, 13, 72, 0
13, 42708, Note_off_c, 13, 48, 0
13, 42720, Note_on_c, 13, 67, 96
13, 42720, Note_on_c, 13, 74, 96
13, 42720, Note_on_c, 13, 47, 96
13, 42804, Note_off_c, 13, 67, 0
13, 42804, Note_off_c, 13, 74, 0
13, 42804, Note_off_c, 13, 47, 0
13, 42816, Note_on_c, 13, 67, 96
13, 42816, Note_on_c, 13, 76, 96
13, 42816, Note_on_c, 13, 48, 96
13, 42858, Note_off_c, 13, 48, 0
13, 42864, Note_on_c, 13, 47, 96
13, 42900, Note_off_c, 13, 67, 0
13, 42900, Note_off_c, 13, 76, 0
13, 42906, Note_off_c, 13, 47, 0
13, 42912, Note_on_c, 13, 62, 96
13, 42912, Note_on_c, 13, 71, 96
13, 42912, Note_on_c, 13, 45, 96
13, 42954, Note_off_c, 13, 45, 0
13, 42960, Note_on_c, 13, 43, 96
13, 42996, Note_off_c, 13, 62, 0
13, 42996, Note_off_c, 13, 71, 0
13, 43002, Note_off_c, 13, 43, 0
13, 43008, Note_on_c, 13, 67, 96
13, 43008, Note_on_c, 13, 76, 96
13, 43008, Note_on_c, 13, 48, 96
13, 43092, Note_off_c, 13, 67, 0
13, 43092, Note_off_c, 13, 76, 0
13, 43092, Note_off_c, 13, 48, 0
13, 43104, Note_on_c, 13, 65, 96
13, 43104, Note_on_c, 13, 74, 96
13, 43104, Note_on_c, 13, 46, 96
13, 43146, Note_off_c, 13, 46, 0
13, 43152, Note_on_c, 13, 45, 96
13, 43188, Note_off_c, 13, 65, 0
13, 43188, Note_off_c, 13, 74, 0
13, 43194, Note_off_c, 13, 45, 0
13, 43200, Note_on_c, 13, 65, 96
13, 43200, Note_on_c, 13, 74, 96
13, 43200, Note_on_c, 13, 43, 96
13, 43242, Note_off_c, 13, 43, 0
13, 43248, Note_on_c, 13, 41, 96
13, 43284, Note_off_c, 13, 65, 0
13, 43284, Note_off_c, 13, 74, 0
13, 43290, Note_off_c, 13, 41, 0
13, 43296, Note_on_c, 13, 67, 96
13, 43296, Note_on_c, 13, 72, 96
13, 43296, Note_on_c, 13, 40, 96
13, 43380, Note_off_c, 13, 67, 0
13, 43380, Note_off_c, 13, 72, 0
13, 43380, Note_off_c, 13, 40, 0
13, 43392, Note_on_c, 13, 60, 96
13, 43392, Note_on_c, 13, 69, 96
13, 43392, Note_on_c, 13, 41, 96
13, 43434, Note_off_c, 13, 41, 0
13, 43440, Note_on_c, 13, 40, 96
13, 43476, Note_off_c, 13, 60, 0
13, 43476, Note_off_c, 13, 69, 0
13, 43482, Note_off_c, 13, 40, 0
13, 43488, Note_on_c, 13, 69, 96
13, 43488, Note_on_c, 13, 77, 96
13, 43488, Note_on_c, 13, 38, 96
13, 43530, Note_off_c, 13, 38, 0
13, 43536, Note_on_c, 13, 40, 96
13, 43572, Note_off_c, 13, 69, 0
13, 43572, Note_off_c, 13, 77, 0
13, 43578, Note_off_c, 13, 40, 0
13, 43584, Note_on_c, 13, 67, 96
13, 43584, Note_on_c, 13, 76, 96
13, 43584, Note_on_c, 13, 36, 96
13, 43668, Note_off_c, 13, 67, 0
13, 43668, Note_off_c, 13, 76, 0
13, 43668, Note_off_c, 13, 36, 0
13, 43680, Note_on_c, 13, 69, 96
13, 43680, Note_on_c, 13, 77, 96
13, 43680, Note_on_c, 13, 48, 96
13, 43722, Note_off_c, 13, 48, 0
13, 43728, Note_on_c, 13, 50, 96
13, 43764, Note_off_c, 13, 69, 0
13, 43764, Note_off_c, 13, 77, 0
13, 43770, Note_off_c, 13, 50, 0
13, 43776, Note_on_c, 13, 72, 96
13, 43776, Note_on_c, 13, 79, 96
13, 43776, Note_on_c, 13, 52, 96
13, 43818, Note_off_c, 13, 52, 0
13, 43824, Note_on_c, 13, 48, 96
13, 43860, Note_off_c, 13, 72, 0
13, 43860, Note_off_c, 13, 79, 0
13, 43866, Note_off_c, 13, 48, 0
13, 43872, Note_on_c, 13, 69, 96
13, 43872, Note_on_c, 13, 77, 96
13, 43872, Note_on_c, 13, 50, 96
13, 43914, Note_off_c, 13, 50, 0
13, 43920, Note_on_c, 13, 46, 96
13, 43956, Note_off_c, 13, 69, 0
13, 43956, Note_off_c, 13, 77, 0
13, 43962, Note_off_c, 13, 46, 0
13, 43968, Note_on_c, 13, 67, 96
13, 43968, Note_on_c, 13, 76, 96
13, 43968, Note_on_c, 13, 48, 96
13, 44052, Note_off_c, 13, 67, 0
13, 44052, Note_off_c, 13, 76, 0
13, 44052, Note_off_c, 13, 48, 0
13, 44064, Note_on_c, 13, 64, 96
13, 44064, Note_on_c, 13, 67, 96
13, 44064, Note_on_c, 13, 36, 96
13, 44148, Note_off_c, 13, 64, 0
13, 44148, Note_off_c, 13, 67, 0
13, 44148, Note_off_c, 13, 36, 0
13, 44160, Note_on_c, 13, 60, 96
13, 44160, Note_on_c, 13, 69, 96
13, 44160, Note_on_c, 13, 41, 96
13, 44436, Note_off_c, 13, 41, 0
13, 44436, Note_off_c, 13, 60, 0
13, 44436, Note_off_c, 13, 69, 0
13, 44736, Tempo, 1000000
13, 44832, Note_on_c, 13, 60, 127
13, 44832, Note_on_c, 13, 69, 127
13, 44832, Note_on_c, 13, 41, 127
13, 44874, Note_off_c, 13, 60, 0
13, 44874, Note_off_c, 13, 69, 0
13, 44874, Note_off_c, 13, 41, 0
13, 44880, Note_on_c, 13, 60, 127
13, 44880, Note_on_c, 13, 69, 127
13, 44880, Note_on_c, 13, 41, 127
13, 44922, Note_off_c, 13, 60, 0
13, 44922, Note_off_c, 13, 69, 0
13, 44922, Note_off_c, 13, 41, 0
13, 44928, Note_on_c, 13, 58, 127
13, 44928, Note_on_c, 13, 67, 127
13, 44928, Note_on_c, 13, 41, 127
13, 44970, Note_off_c, 13, 58, 0
13, 44970, Note_off_c, 13, 67, 0
13, 44970, Note_off_c, 13, 41, 0
13, 44976, Note_on_c, 13, 60, 127
13, 44976, Note_on_c, 13, 69, 127
13, 44976, Note_on_c, 13, 41, 127
13, 45018, Note_off_c, 13, 60, 0
13, 45018, Note_off_c, 13, 69, 0
13, 45018, Note_off_c, 13, 41, 0
13, 45024, Note_on_c, 13, 58, 127
13, 45024, Note_on_c, 13, 67, 127
13, 45024, Note_on_c, 13, 41, 127
13, 45066, Note_off_c, 13, 58, 0
13, 45066, Note_off_c, 13, 67, 0
13, 45066, Note_off_c, 13, 41, 0
13, 45072, Note_on_c, 13, 60, 127
13, 45072, Note_on_c, 13, 69, 127
13, 45072, Note_on_c, 13, 41, 127
13, 45114, Note_off_c, 13, 60, 0
13, 45114, Note_off_c, 13, 69, 0
13, 45114, Note_off_c, 13, 41, 0
13, 45120, Note_on_c, 13, 58, 127
13, 45120, Note_on_c, 13, 67, 127
13, 45120, Note_on_c, 13, 41, 127
13, 45162, Note_off_c, 13, 58, 0
13, 45162, Note_off_c, 13, 67, 0
13, 45162, Note_off_c, 13, 41, 0
13, 45168, Note_on_c, 13, 60, 127
13, 45168, Note_on_c, 13, 69, 127
13, 45168, Note_on_c, 13, 41, 127
13, 45210, Note_off_c, 13, 60, 0
13, 45210, Note_off_c, 13, 69, 0
13, 45210, Note_off_c, 13, 41, 0
13, 45216, Note_on_c, 13, 58, 127
13, 45216, Note_on_c, 13, 67, 127
13, 45216, Note_on_c, 13, 41, 127
13, 45258, Note_off_c, 13, 58, 0
13, 45258, Note_off_c, 13, 67, 0
13, 45258, Note_off_c, 13, 41, 0
13, 45264, Note_on_c, 13, 60, 127
13, 45264, Note_on_c, 13, 67, 127
13, 45264, Note_on_c, 13, 41, 127
13, 45306, Note_off_c, 13, 60, 0
13, 45306, Note_off_c, 13, 67, 0
13, 45306, Note_off_c, 13, 41, 0
13, 45312, Note_on_c, 13, 58, 127
13, 45312, Note_on_c, 13, 67, 127
13, 45312, Note_on_c, 13, 41, 127
13, 45354, Note_off_c, 13, 58, 0
13, 45354, Note_off_c, 13, 67, 0
13, 45354, Note_off_c, 13, 41, 0
13, 45360, Note_on_c, 13, 58, 127
13, 45360, Note_on_c, 13, 67, 127
13, 45360, Note_on_c, 13, 41, 127
13, 45402, Note_off_c, 13, 58, 0
13, 45402, Note_off_c, 13, 67, 0
13, 45402, Note_off_c, 13, 41, 0
13, 45408, Note_on_c, 13, 58, 127
13, 45408, Note_on_c, 13, 67, 127
13, 45408, Note_on_c, 13, 41, 127
13, 45450, Note_off_c, 13, 58, 0
13, 45450, Note_off_c, 13, 67, 0
13, 45450, Note_off_c, 13, 41, 0
13, 45456, Note_on_c, 13, 60, 127
13, 45456, Note_on_c, 13, 69, 127
13, 45456, Note_on_c, 13, 41, 127
13, 45498, Note_off_c, 13, 60, 0
13, 45498, Note_off_c, 13, 69, 0
13, 45498, Note_off_c, 13, 41, 0
13, 45504, Note_on_c, 13, 60, 127
13, 45504, Note_on_c, 13, 69, 127
13, 45504, Note_on_c, 13, 41, 127
13, 45546, Note_off_c, 13, 60, 0
13, 45546, Note_off_c, 13, 69, 0
13, 45546, Note_off_c, 13, 41, 0
13, 45552, Note_on_c, 13, 58, 127
13, 45552, Note_on_c, 13, 67, 127
13, 45552, Note_on_c, 13, 41, 127
13, 45594, Note_off_c, 13, 58, 0
13, 45594, Note_off_c, 13, 67, 0
13, 45594, Note_off_c, 13, 41, 0
13, 45600, Note_on_c, 13, 60, 127
13, 45600, Note_on_c, 13, 69, 127
13, 45600, Note_on_c, 13, 41, 127
13, 45642, Note_off_c, 13, 60, 0
13, 45642, Note_off_c, 13, 69, 0
13, 45642, Note_off_c, 13, 41, 0
13, 45648, Note_on_c, 13, 58, 127
13, 45648, Note_on_c, 13, 67, 127
13, 45648, Note_on_c, 13, 41, 127
13, 45690, Note_off_c, 13, 58, 0
13, 45690, Note_off_c, 13, 67, 0
13, 45690, Note_off_c, 13, 41, 0
13, 45696, Note_on_c, 13, 58, 127
13, 45696, Note_on_c, 13, 67, 127
13, 45696, Note_on_c, 13, 41, 127
13, 45738, Note_off_c, 13, 58, 0
13, 45738, Note_off_c, 13, 67, 0
13, 45738, Note_off_c, 13, 41, 0
13, 45744, Note_on_c, 13, 60, 127
13, 45744, Note_on_c, 13, 69, 127
13, 45744, Note_on_c, 13, 41, 127
13, 45786, Note_off_c, 13, 60, 0
13, 45786, Note_off_c, 13, 69, 0
13, 45786, Note_off_c, 13, 41, 0
13, 45792, Note_on_c, 13, 67, 127
13, 45792, Note_on_c, 13, 76, 127
13, 45792, Note_on_c, 13, 40, 127
13, 45834, Note_off_c, 13, 67, 0
13, 45834, Note_off_c, 13, 76, 0
13, 45834, Note_off_c, 13, 40, 0
13, 45840, Note_on_c, 13, 60, 127
13, 45840, Note_on_c, 13, 69, 127
13, 45840, Note_on_c, 13, 41, 127
13, 45882, Note_off_c, 13, 60, 0
13, 45882, Note_off_c, 13, 69, 0
13, 45882, Note_off_c, 13, 41, 0
13, 45888, Note_on_c, 13, 67, 127
13, 45888, Note_on_c, 13, 76, 127
13, 45888, Note_on_c, 13, 36, 127
13, 45930, Note_off_c, 13, 67, 0
13, 45930, Note_off_c, 13, 76, 0
13, 45930, Note_off_c, 13, 36, 0
13, 45936, Note_on_c, 13, 65, 127
13, 45936, Note_on_c, 13, 71, 127
13, 45936, Note_on_c, 13, 38, 127
13, 45978, Note_off_c, 13, 65, 0
13, 45978, Note_off_c, 13, 71, 0
13, 45978, Note_off_c, 13, 38, 0
13, 45984, Note_on_c, 13, 60, 127
13, 45984, Note_on_c, 13, 67, 127
13, 45984, Note_on_c, 13, 40, 127
13, 46026, Note_off_c, 13, 60, 0
13, 46026, Note_off_c, 13, 67, 0
13, 46026, Note_off_c, 13, 40, 0
13, 46032, Note_on_c, 13, 60, 127
13, 46032, Note_on_c, 13, 69, 127
13, 46032, Note_on_c, 13, 41, 127
13, 46074, Note_off_c, 13, 60, 0
13, 46074, Note_off_c, 13, 69, 0
13, 46074, Note_off_c, 13, 41, 0
13, 46080, Note_on_c, 13, 58, 127
13, 46080, Note_on_c, 13, 67, 127
13, 46080, Note_on_c, 13, 41, 127
13, 46122, Note_off_c, 13, 58, 0
13, 46122, Note_off_c, 13, 67, 0
13, 46122, Note_off_c, 13, 41, 0
13, 46128, Note_on_c, 13, 60, 127
13, 46128, Note_on_c, 13, 69, 127
13, 46128, Note_on_c, 13, 41, 127
13, 46170, Note_off_c, 13, 60, 0
13, 46170, Note_off_c, 13, 69, 0
13, 46170, Note_off_c, 13, 41, 0
13, 46176, Note_on_c, 13, 58, 127
13, 46176, Note_on_c, 13, 67, 127
13, 46176, Note_on_c, 13, 41, 127
13, 46218, Note_off_c, 13, 58, 0
13, 46218, Note_off_c, 13, 67, 0
13, 46218, Note_off_c, 13, 41, 0
13, 46224, Note_on_c, 13, 60, 127
13, 46224, Note_on_c, 13, 69, 127
13, 46224, Note_on_c, 13, 41, 127
13, 46266, Note_off_c, 13, 60, 0
13, 46266, Note_off_c, 13, 69, 0
13, 46266, Note_off_c, 13, 41, 0
13, 46272, Note_on_c, 13, 58, 127
13, 46272, Note_on_c, 13, 67, 127
13, 46272, Note_on_c, 13, 41, 127
13, 46314, Note_off_c, 13, 58, 0
13, 46314, Note_off_c, 13, 67, 0
13, 46314, Note_off_c, 13, 41, 0
13, 46320, Note_on_c, 13, 60, 127
13, 46320, Note_on_c, 13, 69, 127
13, 46320, Note_on_c, 13, 41, 127
13, 46362, Note_off_c, 13, 60, 0
13, 46362, Note_off_c, 13, 69, 0
13, 46362, Note_off_c, 13, 41, 0
13, 46368, Note_on_c, 13, 58, 127
13, 46368, Note_on_c, 13, 67, 127
13, 46368, Note_on_c, 13, 41, 127
13, 46410, Note_off_c, 13, 58, 0
13, 46410, Note_off_c, 13, 67, 0
13, 46410, Note_off_c, 13, 41, 0
13, 46416, Note_on_c, 13, 60, 127
13, 46416, Note_on_c, 13, 69, 127
13, 46416, Note_on_c, 13, 41, 127
13, 46458, Note_off_c, 13, 60, 0
13, 46458, Note_off_c, 13, 69, 0
13, 46458, Note_off_c, 13, 41, 0
13, 46464, Note_on_c, 13, 62, 127
13, 46464, Note_on_c, 13, 71, 127
13, 46464, Note_on_c, 13, 41, 127
13, 46506, Note_off_c, 13, 62, 0
13, 46506, Note_off_c, 13, 71, 0
13, 46506, Note_off_c, 13, 41, 0
13, 46512, Note_on_c, 13, 62, 127
13, 46512, Note_on_c, 13, 71, 127
13, 46512, Note_on_c, 13, 41, 127
13, 46554, Note_off_c, 13, 62, 0
13, 46554, Note_off_c, 13, 71, 0
13, 46554, Note_off_c, 13, 41, 0
13, 46560, Note_on_c, 13, 62, 127
13, 46560, Note_on_c, 13, 71, 127
13, 46560, Note_on_c, 13, 41, 127
13, 46602, Note_off_c, 13, 62, 0
13, 46602, Note_off_c, 13, 71, 0
13, 46602, Note_off_c, 13, 41, 0
13, 46608, Note_on_c, 13, 62, 127
13, 46608, Note_on_c, 13, 71, 127
13, 46608, Note_on_c, 13, 41, 127
13, 46650, Note_off_c, 13, 62, 0
13, 46650, Note_off_c, 13, 71, 0
13, 46650, Note_off_c, 13, 41, 0
13, 46656, Note_on_c, 13, 62, 127
13, 46656, Note_on_c, 13, 71, 127
13, 46656, Note_on_c, 13, 41, 127
13, 46698, Note_off_c, 13, 62, 0
13, 46698, Note_off_c, 13, 71, 0
13, 46698, Note_off_c, 13, 41, 0
13, 46704, Note_on_c, 13, 60, 127
13, 46704, Note_on_c, 13, 67, 127
13, 46704, Note_on_c, 13, 41, 127
13, 46746, Note_off_c, 13, 60, 0
13, 46746, Note_off_c, 13, 67, 0
13, 46746, Note_off_c, 13, 41, 0
13, 46752, Note_on_c, 13, 59, 127
13, 46752, Note_on_c, 13, 67, 127
13, 46752, Note_on_c, 13, 41, 127
13, 46794, Note_off_c, 13, 59, 0
13, 46794, Note_off_c, 13, 67, 0
13, 46794, Note_off_c, 13, 41, 0
13, 46800, Note_on_c, 13, 60, 127
13, 46800, Note_on_c, 13, 69, 127
13, 46800, Note_on_c, 13, 41, 127
13, 46842, Note_off_c, 13, 60, 0
13, 46842, Note_off_c, 13, 69, 0
13, 46842, Note_off_c, 13, 41, 0
13, 46848, Note_on_c, 13, 62, 127
13, 46848, Note_on_c, 13, 67, 127
13, 46848, Note_on_c, 13, 41, 127
13, 46890, Note_off_c, 13, 62, 0
13, 46890, Note_off_c, 13, 67, 0
13, 46890, Note_off_c, 13, 41, 0
13, 46896, Note_on_c, 13, 60, 127
13, 46896, Note_on_c, 13, 67, 127
13, 46896, Note_on_c, 13, 40, 127
13, 46938, Note_off_c, 13, 60, 0
13, 46938, Note_off_c, 13, 67, 0
13, 46938, Note_off_c, 13, 40, 0
13, 46944, Note_on_c, 13, 60, 127
13, 46944, Note_on_c, 13, 69, 127
13, 46944, Note_on_c, 13, 41, 127
13, 46986, Note_off_c, 13, 60, 0
13, 46986, Note_off_c, 13, 69, 0
13, 46986, Note_off_c, 13, 41, 0
13, 46992, Note_on_c, 13, 62, 127
13, 46992, Note_on_c, 13, 71, 127
13, 46992, Note_on_c, 13, 43, 127
13, 47034, Note_off_c, 13, 62, 0
13, 47034, Note_off_c, 13, 71, 0
13, 47034, Note_off_c, 13, 43, 0
13, 47040, Note_on_c, 13, 62, 127
13, 47040, Note_on_c, 13, 67, 127
13, 47040, Note_on_c, 13, 36, 127
13, 47082, Note_off_c, 13, 62, 0
13, 47082, Note_off_c, 13, 67, 0
13, 47082, Note_off_c, 13, 36, 0
13, 47088, Note_on_c, 13, 60, 127
13, 47088, Note_on_c, 13, 67, 127
13, 47088, Note_on_c, 13, 48, 127
13, 47109, Note_off_c, 13, 48, 0
13, 47112, Note_on_c, 13, 46, 127
13, 47119, Note_off_c, 13, 60, 0
13, 47119, Note_off_c, 13, 67, 0
13, 47133, Note_off_c, 13, 46, 0
13, 47136, Note_on_c, 13, 65, 127
13, 47136, Note_on_c, 13, 72, 127
13, 47136, Note_on_c, 13, 45, 127
13, 47157, Note_off_c, 13, 45, 0
13, 47160, Note_on_c, 13, 43, 127
13, 47178, Note_off_c, 13, 65, 0
13, 47178, Note_off_c, 13, 72, 0
13, 47181, Note_off_c, 13, 43, 0
13, 47184, Note_on_c, 13, 60, 127
13, 47184, Note_on_c, 13, 69, 127
13, 47184, Note_on_c, 13, 41, 127
13, 47226, Note_off_c, 13, 60, 0
13, 47226, Note_off_c, 13, 69, 0
13, 47226, Note_off_c, 13, 41, 0
13, 47232, Note_on_c, 13, 58, 127
13, 47232, Note_on_c, 13, 67, 127
13, 47232, Note_on_c, 13, 41, 127
13, 47274, Note_off_c, 13, 58, 0
13, 47274, Note_off_c, 13, 67, 0
13, 47274, Note_off_c, 13, 41, 0
13, 47280, Note_on_c, 13, 60, 127
13, 47280, Note_on_c, 13, 69, 127
13, 47280, Note_on_c, 13, 41, 127
13, 47322, Note_off_c, 13, 60, 0
13, 47322, Note_off_c, 13, 69, 0
13, 47322, Note_off_c, 13, 41, 0
13, 47328, Note_on_c, 13, 58, 127
13, 47328, Note_on_c, 13, 67, 127
13, 47328, Note_on_c, 13, 41, 127
13, 47370, Note_off_c, 13, 58, 0
13, 47370, Note_off_c, 13, 67, 0
13, 47370, Note_off_c, 13, 41, 0
13, 47376, Note_on_c, 13, 60, 127
13, 47376, Note_on_c, 13, 69, 127
13, 47376, Note_on_c, 13, 41, 127
13, 47418, Note_off_c, 13, 60, 0
13, 47418, Note_off_c, 13, 69, 0
13, 47418, Note_off_c, 13, 41, 0
13, 47424, Note_on_c, 13, 58, 127
13, 47424, Note_on_c, 13, 67, 127
13, 47424, Note_on_c, 13, 41, 127
13, 47466, Note_off_c, 13, 58, 0
13, 47466, Note_off_c, 13, 67, 0
13, 47466, Note_off_c, 13, 41, 0
13, 47472, Note_on_c, 13, 60, 127
13, 47472, Note_on_c, 13, 69, 127
13, 47472, Note_on_c, 13, 41, 127
13, 47514, Note_off_c, 13, 60, 0
13, 47514, Note_off_c, 13, 69, 0
13, 47514, Note_off_c, 13, 41, 0
13, 47520, Note_on_c, 13, 58, 127
13, 47520, Note_on_c, 13, 67, 127
13, 47520, Note_on_c, 13, 41, 127
13, 47562, Note_off_c, 13, 58, 0
13, 47562, Note_off_c, 13, 67, 0
13, 47562, Note_off_c, 13, 41, 0
13, 47568, Note_on_c, 13, 60, 127
13, 47568, Note_on_c, 13, 67, 127
13, 47568, Note_on_c, 13, 41, 127
13, 47610, Note_off_c, 13, 60, 0
13, 47610, Note_off_c, 13, 67, 0
13, 47610, Note_off_c, 13, 41, 0
13, 47616, Note_on_c, 13, 58, 127
13, 47616, Note_on_c, 13, 67, 127
13, 47616, Note_on_c, 13, 41, 127
13, 47658, Note_off_c, 13, 58, 0
13, 47658, Note_off_c, 13, 67, 0
13, 47658, Note_off_c, 13, 41, 0
13, 47664, Note_on_c, 13, 58, 127
13, 47664, Note_on_c, 13, 67, 127
13, 47664, Note_on_c, 13, 41, 127
13, 47706, Note_off_c, 13, 58, 0
13, 47706, Note_off_c, 13, 67, 0
13, 47706, Note_off_c, 13, 41, 0
13, 47712, Note_on_c, 13, 58, 127
13, 47712, Note_on_c, 13, 67, 127
13, 47712, Note_on_c, 13, 41, 127
13, 47754, Note_off_c, 13, 58, 0
13, 47754, Note_off_c, 13, 67, 0
13, 47754, Note_off_c, 13, 41, 0
13, 47760, Note_on_c, 13, 60, 127
13, 47760, Note_on_c, 13, 69, 127
13, 47760, Note_on_c, 13, 41, 127
13, 47802, Note_off_c, 13, 60, 0
13, 47802, Note_off_c, 13, 69, 0
13, 47802, Note_off_c, 13, 41, 0
13, 47808, Note_on_c, 13, 60, 127
13, 47808, Note_on_c, 13, 69, 127
13, 47808, Note_on_c, 13, 41, 127
13, 47850, Note_off_c, 13, 60, 0
13, 47850, Note_off_c, 13, 69, 0
13, 47850, Note_off_c, 13, 41, 0
13, 47856, Note_on_c, 13, 58, 127
13, 47856, Note_on_c, 13, 67, 127
13, 47856, Note_on_c, 13, 41, 127
13, 47898, Note_off_c, 13, 58, 0
13, 47898, Note_off_c, 13, 67, 0
13, 47898, Note_off_c, 13, 41, 0
13, 47904, Note_on_c, 13, 60, 127
13, 47904, Note_on_c, 13, 69, 127
13, 47904, Note_on_c, 13, 41, 127
13, 47946, Note_off_c, 13, 60, 0
13, 47946, Note_off_c, 13, 69, 0
13, 47946, Note_off_c, 13, 41, 0
13, 47952, Note_on_c, 13, 58, 127
13, 47952, Note_on_c, 13, 67, 127
13, 47952, Note_on_c, 13, 41, 127
13, 47994, Note_off_c, 13, 58, 0
13, 47994, Note_off_c, 13, 67, 0
13, 47994, Note_off_c, 13, 41, 0
13, 48000, Note_on_c, 13, 58, 127
13, 48000, Note_on_c, 13, 67, 127
13, 48000, Note_on_c, 13, 41, 127
13, 48042, Note_off_c, 13, 58, 0
13, 48042, Note_off_c, 13, 67, 0
13, 48042, Note_off_c, 13, 41, 0
13, 48048, Note_on_c, 13, 60, 127
13, 48048, Note_on_c, 13, 69, 127
13, 48048, Note_on_c, 13, 41, 127
13, 48090, Note_off_c, 13, 60, 0
13, 48090, Note_off_c, 13, 69, 0
13, 48090, Note_off_c, 13, 41, 0
13, 48096, Note_on_c, 13, 67, 127
13, 48096, Note_on_c, 13, 76, 127
13, 48096, Note_on_c, 13, 40, 127
13, 48138, Note_off_c, 13, 67, 0
13, 48138, Note_off_c, 13, 76, 0
13, 48138, Note_off_c, 13, 40, 0
13, 48144, Note_on_c, 13, 60, 127
13, 48144, Note_on_c, 13, 69, 127
13, 48144, Note_on_c, 13, 41, 127
13, 48186, Note_off_c, 13, 60, 0
13, 48186, Note_off_c, 13, 69, 0
13, 48186, Note_off_c, 13, 41, 0
13, 48192, Note_on_c, 13, 67, 127
13, 48192, Note_on_c, 13, 76, 127
13, 48192, Note_on_c, 13, 36, 127
13, 48234, Note_off_c, 13, 67, 0
13, 48234, Note_off_c, 13, 76, 0
13, 48234, Note_off_c, 13, 36, 0
13, 48240, Note_on_c, 13, 65, 127
13, 48240, Note_on_c, 13, 71, 127
13, 48240, Note_on_c, 13, 38, 127
13, 48282, Note_off_c, 13, 65, 0
13, 48282, Note_off_c, 13, 71, 0
13, 48282, Note_off_c, 13, 38, 0
13, 48288, Note_on_c, 13, 60, 127
13, 48288, Note_on_c, 13, 67, 127
13, 48288, Note_on_c, 13, 40, 127
13, 48330, Note_off_c, 13, 60, 0
13, 48330, Note_off_c, 13, 67, 0
13, 48330, Note_off_c, 13, 40, 0
13, 48336, Note_on_c, 13, 60, 127
13, 48336, Note_on_c, 13, 69, 127
13, 48336, Note_on_c, 13, 41, 127
13, 48378, Note_off_c, 13, 60, 0
13, 48378, Note_off_c, 13, 69, 0
13, 48378, Note_off_c, 13, 41, 0
13, 48384, Note_on_c, 13, 58, 127
13, 48384, Note_on_c, 13, 67, 127
13, 48384, Note_on_c, 13, 41, 127
13, 48426, Note_off_c, 13, 58, 0
13, 48426, Note_off_c, 13, 67, 0
13, 48426, Note_off_c, 13, 41, 0
13, 48432, Note_on_c, 13, 60, 127
13, 48432, Note_on_c, 13, 69, 127
13, 48432, Note_on_c, 13, 41, 127
13, 48474, Note_off_c, 13, 60, 0
13, 48474, Note_off_c, 13, 69, 0
13, 48474, Note_off_c, 13, 41, 0
13, 48480, Note_on_c, 13, 58, 127
13, 48480, Note_on_c, 13, 67, 127
13, 48480, Note_on_c, 13, 41, 127
13, 48522, Note_off_c, 13, 58, 0
13, 48522, Note_off_c, 13, 67, 0
13, 48522, Note_off_c, 13, 41, 0
13, 48528, Note_on_c, 13, 60, 127
13, 48528, Note_on_c, 13, 69, 127
13, 48528, Note_on_c, 13, 41, 127
13, 48570, Note_off_c, 13, 60, 0
13, 48570, Note_off_c, 13, 69, 0
13, 48570, Note_off_c, 13, 41, 0
13, 48576, Note_on_c, 13, 58, 127
13, 48576, Note_on_c, 13, 67, 127
13, 48576, Note_on_c, 13, 41, 127
13, 48618, Note_off_c, 13, 58, 0
13, 48618, Note_off_c, 13, 67, 0
13, 48618, Note_off_c, 13, 41, 0
13, 48624, Note_on_c, 13, 60, 127
13, 48624, Note_on_c, 13, 69, 127
13, 48624, Note_on_c, 13, 41, 127
13, 48666, Note_off_c, 13, 60, 0
13, 48666, Note_off_c, 13, 69, 0
13, 48666, Note_off_c, 13, 41, 0
13, 48672, Note_on_c, 13, 58, 127
13, 48672, Note_on_c, 13, 67, 127
13, 48672, Note_on_c, 13, 41, 127
13, 48714, Note_off_c, 13, 58, 0
13, 48714, Note_off_c, 13, 67, 0
13, 48714, Note_off_c, 13, 41, 0
13, 48720, Note_on_c, 13, 60, 127
13, 48720, Note_on_c, 13, 69, 127
13, 48720, Note_on_c, 13, 41, 127
13, 48762, Note_off_c, 13, 60, 0
13, 48762, Note_off_c, 13, 69, 0
13, 48762, Note_off_c, 13, 41, 0
13, 48768, Note_on_c, 13, 62, 127
13, 48768, Note_on_c, 13, 71, 127
13, 48768, Note_on_c, 13, 41, 127
13, 48810, Note_off_c, 13, 62, 0
13, 48810, Note_off_c, 13, 71, 0
13, 48810, Note_off_c, 13, 41, 0
13, 48816, Note_on_c, 13, 62, 127
13, 48816, Note_on_c, 13, 71, 127
13, 48816, Note_on_c, 13, 41, 127
13, 48858, Note_off_c, 13, 62, 0
13, 48858, Note_off_c, 13, 71, 0
13, 48858, Note_off_c, 13, 41, 0
13, 48864, Note_on_c, 13, 62, 127
13, 48864, Note_on_c, 13, 71, 127
13, 48864, Note_on_c, 13, 41, 127
13, 48906, Note_off_c, 13, 62, 0
13, 48906, Note_off_c, 13, 71, 0
13, 48906, Note_off_c, 13, 41, 0
13, 48912, Note_on_c, 13, 62, 127
13, 48912, Note_on_c, 13, 71, 127
13, 48912, Note_on_c, 13, 41, 127
13, 48954, Note_off_c, 13, 62, 0
13, 48954, Note_off_c, 13, 71, 0
13, 48954, Note_off_c, 13, 41, 0
13, 48960, Note_on_c, 13, 62, 127
13, 48960, Note_on_c, 13, 71, 127
13, 48960, Note_on_c, 13, 41, 127
13, 49002, Note_off_c, 13, 62, 0
13, 49002, Note_off_c, 13, 71, 0
13, 49002, Note_off_c, 13, 41, 0
13, 49008, Note_on_c, 13, 60, 127
13, 49008, Note_on_c, 13, 67, 127
13, 49008, Note_on_c, 13, 41, 127
13, 49050, Note_off_c, 13, 60, 0
13, 49050, Note_off_c, 13, 67, 0
13, 49050, Note_off_c, 13, 41, 0
13, 49056, Note_on_c, 13, 59, 127
13, 49056, Note_on_c, 13, 67, 127
13, 49056, Note_on_c, 13, 41, 127
13, 49098, Note_off_c, 13, 59, 0
13, 49098, Note_off_c, 13, 67, 0
13, 49098, Note_off_c, 13, 41, 0
13, 49104, Note_on_c, 13, 60, 127
13, 49104, Note_on_c, 13, 69, 127
13, 49104, Note_on_c, 13, 41, 127
13, 49146, Note_off_c, 13, 60, 0
13, 49146, Note_off_c, 13, 69, 0
13, 49146, Note_off_c, 13, 41, 0
13, 49152, Note_on_c, 13, 62, 127
13, 49152, Note_on_c, 13, 67, 127
13, 49152, Note_on_c, 13, 41, 127
13, 49194, Note_off_c, 13, 62, 0
13, 49194, Note_off_c, 13, 67, 0
13, 49194, Note_off_c, 13, 41, 0
13, 49200, Note_on_c, 13, 60, 127
13, 49200, Note_on_c, 13, 67, 127
13, 49200, Note_on_c, 13, 40, 127
13, 49242, Note_off_c, 13, 60, 0
13, 49242, Note_off_c, 13, 67, 0
13, 49242, Note_off_c, 13, 40, 0
13, 49248, Note_on_c, 13, 60, 127
13, 49248, Note_on_c, 13, 69, 127
13, 49248, Note_on_c, 13, 41, 127
13, 49290, Note_off_c, 13, 60, 0
13, 49290, Note_off_c, 13, 69, 0
13, 49290, Note_off_c, 13, 41, 0
13, 49296, Note_on_c, 13, 62, 127
13, 49296, Note_on_c, 13, 71, 127
13, 49296, Note_on_c, 13, 43, 127
13, 49338, Note_off_c, 13, 62, 0
13, 49338, Note_off_c, 13, 71, 0
13, 49338, Note_off_c, 13, 43, 0
13, 49344, Note_on_c, 13, 62, 127
13, 49344, Note_on_c, 13, 67, 127
13, 49344, Note_on_c, 13, 36, 127
13, 49386, Note_off_c, 13, 62, 0
13, 49386, Note_off_c, 13, 67, 0
13, 49386, Note_off_c, 13, 36, 0
13, 49392, Note_on_c, 13, 67, 127
13, 49392, Note_on_c, 13, 76, 127
13, 49392, Note_on_c, 13, 36, 127
13, 49423, Note_off_c, 13, 67, 0
13, 49423, Note_off_c, 13, 76, 0
13, 49434, Note_off_c, 13, 36, 0
13, 49440, Note_on_c, 13, 67, 127
13, 49440, Note_on_c, 13, 76, 127
13, 49446, Note_on_c, 13, 48, 127
13, 49482, Note_off_c, 13, 67, 0
13, 49482, Note_off_c, 13, 76, 0
13, 49488, Note_off_c, 13, 48, 0
13, 49488, Note_on_c, 13, 67, 127
13, 49488, Note_on_c, 13, 76, 127
13, 49488, Note_on_c, 13, 48, 127
13, 49530, Note_off_c, 13, 67, 0
13, 49530, Note_off_c, 13, 76, 0
13, 49530, Note_off_c, 13, 48, 0
13, 49536, Note_on_c, 13, 65, 127
13, 49536, Note_on_c, 13, 74, 127
13, 49536, Note_on_c, 13, 48, 127
13, 49578, Note_off_c, 13, 65, 0
13, 49578, Note_off_c, 13, 74, 0
13, 49578, Note_off_c, 13, 48, 0
13, 49584, Note_on_c, 13, 67, 127
13, 49584, Note_on_c, 13, 76, 127
13, 49584, Note_on_c, 13, 48, 127
13, 49626, Note_off_c, 13, 67, 0
13, 49626, Note_off_c, 13, 76, 0
13, 49626, Note_off_c, 13, 48, 0
13, 49632, Note_on_c, 13, 65, 127
13, 49632, Note_on_c, 13, 74, 127
13, 49632, Note_on_c, 13, 48, 127
13, 49674, Note_off_c, 13, 65, 0
13, 49674, Note_off_c, 13, 74, 0
13, 49674, Note_off_c, 13, 48, 0
13, 49680, Note_on_c, 13, 67, 127
13, 49680, Note_on_c, 13, 76, 127
13, 49680, Note_on_c, 13, 48, 127
13, 49722, Note_off_c, 13, 67, 0
13, 49722, Note_off_c, 13, 76, 0
13, 49722, Note_off_c, 13, 48, 0
13, 49728, Note_on_c, 13, 65, 127
13, 49728, Note_on_c, 13, 74, 127
13, 49728, Note_on_c, 13, 48, 127
13, 49770, Note_off_c, 13, 65, 0
13, 49770, Note_off_c, 13, 74, 0
13, 49770, Note_off_c, 13, 48, 0
13, 49776, Note_on_c, 13, 67, 127
13, 49776, Note_on_c, 13, 76, 127
13, 49776, Note_on_c, 13, 48, 127
13, 49818, Note_off_c, 13, 67, 0
13, 49818, Note_off_c, 13, 76, 0
13, 49818, Note_off_c, 13, 48, 0
13, 49824, Note_on_c, 13, 65, 127
13, 49824, Note_on_c, 13, 74, 127
13, 49824, Note_on_c, 13, 48, 127
13, 49866, Note_off_c, 13, 65, 0
13, 49866, Note_off_c, 13, 74, 0
13, 49866, Note_off_c, 13, 48, 0
13, 49872, Note_on_c, 13, 67, 127
13, 49872, Note_on_c, 13, 76, 127
13, 49872, Note_on_c, 13, 48, 127
13, 49914, Note_off_c, 13, 67, 0
13, 49914, Note_off_c, 13, 76, 0
13, 49914, Note_off_c, 13, 48, 0
13, 49920, Note_on_c, 13, 67, 127
13, 49920, Note_on_c, 13, 76, 127
13, 49920, Note_on_c, 13, 49, 127
13, 49962, Note_off_c, 13, 67, 0
13, 49962, Note_off_c, 13, 76, 0
13, 49962, Note_off_c, 13, 49, 0
13, 49968, Note_on_c, 13, 67, 127
13, 49968, Note_on_c, 13, 76, 127
13, 49968, Note_on_c, 13, 49, 127
13, 50010, Note_off_c, 13, 67, 0
13, 50010, Note_off_c, 13, 76, 0
13, 50010, Note_off_c, 13, 49, 0
13, 50016, Note_on_c, 13, 67, 127
13, 50016, Note_on_c, 13, 74, 127
13, 50016, Note_on_c, 13, 52, 127
13, 50058, Note_off_c, 13, 67, 0
13, 50058, Note_off_c, 13, 74, 0
13, 50058, Note_off_c, 13, 52, 0
13, 50064, Note_on_c, 13, 67, 127
13, 50064, Note_on_c, 13, 76, 127
13, 50064, Note_on_c, 13, 45, 127
13, 50106, Note_off_c, 13, 67, 0
13, 50106, Note_off_c, 13, 76, 0
13, 50106, Note_off_c, 13, 45, 0
13, 50112, Note_on_c, 13, 65, 127
13, 50112, Note_on_c, 13, 74, 127
13, 50112, Note_on_c, 13, 45, 127
13, 50154, Note_off_c, 13, 65, 0
13, 50154, Note_off_c, 13, 74, 0
13, 50154, Note_off_c, 13, 45, 0
13, 50160, Note_on_c, 13, 64, 127
13, 50160, Note_on_c, 13, 73, 127
13, 50160, Note_on_c, 13, 45, 127
13, 50202, Note_off_c, 13, 64, 0
13, 50202, Note_off_c, 13, 73, 0
13, 50202, Note_off_c, 13, 45, 0
13, 50208, Note_on_c, 13, 67, 127
13, 50208, Note_on_c, 13, 73, 127
13, 50208, Note_on_c, 13, 45, 127
13, 50250, Note_off_c, 13, 67, 0
13, 50250, Note_off_c, 13, 73, 0
13, 50250, Note_off_c, 13, 45, 0
13, 50256, Note_on_c, 13, 65, 127
13, 50256, Note_on_c, 13, 73, 127
13, 50256, Note_on_c, 13, 45, 127
13, 50298, Note_off_c, 13, 65, 0
13, 50298, Note_off_c, 13, 73, 0
13, 50298, Note_off_c, 13, 45, 0
13, 50304, Note_on_c, 13, 64, 127
13, 50304, Note_on_c, 13, 73, 127
13, 50304, Note_on_c, 13, 45, 127
13, 50346, Note_off_c, 13, 64, 0
13, 50346, Note_off_c, 13, 73, 0
13, 50346, Note_off_c, 13, 45, 0
13, 50352, Note_on_c, 13, 69, 127
13, 50352, Note_on_c, 13, 77, 127
13, 50352, Note_on_c, 13, 50, 127
13, 50394, Note_off_c, 13, 69, 0
13, 50394, Note_off_c, 13, 77, 0
13, 50394, Note_off_c, 13, 50, 0
13, 50400, Note_on_c, 13, 69, 127
13, 50400, Note_on_c, 13, 74, 127
13, 50400, Note_on_c, 13, 41, 127
13, 50442, Note_off_c, 13, 69, 0
13, 50442, Note_off_c, 13, 74, 0
13, 50442, Note_off_c, 13, 41, 0
13, 50448, Note_on_c, 13, 64, 127
13, 50448, Note_on_c, 13, 73, 127
13, 50448, Note_on_c, 13, 45, 127
13, 50490, Note_off_c, 13, 64, 0
13, 50490, Note_off_c, 13, 73, 0
13, 50490, Note_off_c, 13, 45, 0
13, 50496, Note_on_c, 13, 69, 127
13, 50496, Note_on_c, 13, 76, 127
13, 50496, Note_on_c, 13, 38, 127
13, 50538, Note_off_c, 13, 69, 0
13, 50538, Note_off_c, 13, 76, 0
13, 50538, Note_off_c, 13, 38, 0
13, 50544, Note_on_c, 13, 69, 127
13, 50544, Note_on_c, 13, 77, 127
13, 50544, Note_on_c, 13, 50, 127
13, 50586, Note_off_c, 13, 69, 0
13, 50586, Note_off_c, 13, 77, 0
13, 50586, Note_off_c, 13, 50, 0
13, 50592, Note_on_c, 13, 65, 127
13, 50592, Note_on_c, 13, 72, 127
13, 50592, Note_on_c, 13, 48, 127
13, 50634, Note_off_c, 13, 65, 0
13, 50634, Note_off_c, 13, 72, 0
13, 50634, Note_off_c, 13, 48, 0
13, 50640, Note_on_c, 13, 62, 127
13, 50640, Note_on_c, 13, 70, 127
13, 50640, Note_on_c, 13, 46, 127
13, 50659, Note_off_c, 13, 62, 0
13, 50659, Note_off_c, 13, 70, 0
13, 50659, Note_off_c, 13, 46, 0
13, 50688, Note_on_c, 13, 60, 127
13, 50688, Note_on_c, 13, 69, 127
13, 50688, Note_on_c, 13, 46, 127
13, 50707, Note_off_c, 13, 60, 0
13, 50707, Note_off_c, 13, 69, 0
13, 50707, Note_off_c, 13, 46, 0
13, 50736, Note_on_c, 13, 58, 127
13, 50736, Note_on_c, 13, 67, 127
13, 50736, Note_on_c, 13, 46, 127
13, 50755, Note_off_c, 13, 58, 0
13, 50755, Note_off_c, 13, 67, 0
13, 50755, Note_off_c, 13, 46, 0
13, 50784, Note_on_c, 13, 63, 127
13, 50784, Note_on_c, 13, 69, 127
13, 50784, Note_on_c, 13, 46, 127
13, 50803, Note_off_c, 13, 63, 0
13, 50803, Note_off_c, 13, 69, 0
13, 50803, Note_off_c, 13, 46, 0
13, 50832, Note_on_c, 13, 65, 127
13, 50832, Note_on_c, 13, 70, 127
13, 50832, Note_on_c, 13, 46, 127
13, 50851, Note_off_c, 13, 65, 0
13, 50851, Note_off_c, 13, 70, 0
13, 50851, Note_off_c, 13, 46, 0
13, 50880, Note_on_c, 13, 63, 127
13, 50880, Note_on_c, 13, 69, 127
13, 50880, Note_on_c, 13, 46, 127
13, 50899, Note_off_c, 13, 63, 0
13, 50899, Note_off_c, 13, 69, 0
13, 50899, Note_off_c, 13, 46, 0
13, 50928, Note_on_c, 13, 67, 127
13, 50928, Note_on_c, 13, 74, 127
13, 50928, Note_on_c, 13, 46, 127
13, 50947, Note_off_c, 13, 67, 0
13, 50947, Note_off_c, 13, 74, 0
13, 50947, Note_off_c, 13, 46, 0
13, 50976, Note_on_c, 13, 65, 127
13, 50976, Note_on_c, 13, 74, 127
13, 50976, Note_on_c, 13, 46, 127
13, 50995, Note_off_c, 13, 65, 0
13, 50995, Note_off_c, 13, 74, 0
13, 50995, Note_off_c, 13, 46, 0
13, 51024, Note_on_c, 13, 67, 127
13, 51024, Note_on_c, 13, 76, 127
13, 51024, Note_on_c, 13, 46, 127
13, 51043, Note_off_c, 13, 67, 0
13, 51043, Note_off_c, 13, 76, 0
13, 51043, Note_off_c, 13, 46, 0
13, 51072, Note_on_c, 13, 65, 127
13, 51072, Note_on_c, 13, 74, 127
13, 51072, Note_on_c, 13, 47, 127
13, 51091, Note_off_c, 13, 65, 0
13, 51091, Note_off_c, 13, 74, 0
13, 51114, Note_off_c, 13, 47, 0
13, 51120, Note_on_c, 13, 67, 127
13, 51120, Note_on_c, 13, 72, 127
13, 51120, Note_on_c, 13, 48, 127
13, 51139, Note_off_c, 13, 67, 0
13, 51139, Note_off_c, 13, 72, 0
13, 51141, Note_off_c, 13, 48, 0
13, 51144, Note_on_c, 13, 50, 127
13, 51165, Note_off_c, 13, 50, 0
13, 51168, Note_on_c, 13, 67, 127
13, 51168, Note_on_c, 13, 69, 127
13, 51168, Note_on_c, 13, 52, 127
13, 51187, Note_off_c, 13, 67, 0
13, 51187, Note_off_c, 13, 69, 0
13, 51189, Note_off_c, 13, 52, 0
13, 51192, Note_on_c, 13, 48, 127
13, 51213, Note_off_c, 13, 48, 0
13, 51216, Note_on_c, 13, 65, 127
13, 51216, Note_on_c, 13, 72, 127
13, 51216, Note_on_c, 13, 53, 127
13, 51258, Note_off_c, 13, 65, 0
13, 51258, Note_off_c, 13, 72, 0
13, 51258, Note_off_c, 13, 53, 0
13, 51264, Note_on_c, 13, 58, 127
13, 51264, Note_on_c, 13, 67, 127
13, 51264, Note_on_c, 13, 53, 127
13, 51306, Note_off_c, 13, 58, 0
13, 51306, Note_off_c, 13, 67, 0
13, 51306, Note_off_c, 13, 53, 0
13, 51312, Note_on_c, 13, 57, 127
13, 51312, Note_on_c, 13, 65, 127
13, 51312, Note_on_c, 13, 53, 127
13, 51354, Note_off_c, 13, 57, 0
13, 51354, Note_off_c, 13, 65, 0
13, 51354, Note_off_c, 13, 53, 0
13, 51360, Note_on_c, 13, 65, 127
13, 51360, Note_on_c, 13, 74, 127
13, 51360, Note_on_c, 13, 50, 127
13, 51402, Note_off_c, 13, 65, 0
13, 51402, Note_off_c, 13, 74, 0
13, 51402, Note_off_c, 13, 50, 0
13, 51408, Note_on_c, 13, 67, 127
13, 51408, Note_on_c, 13, 73, 127
13, 51408, Note_on_c, 13, 50, 127
13, 51450, Note_off_c, 13, 67, 0
13, 51450, Note_off_c, 13, 73, 0
13, 51450, Note_off_c, 13, 50, 0
13, 51456, Note_on_c, 13, 69, 127
13, 51456, Note_on_c, 13, 77, 127
13, 51456, Note_on_c, 13, 50, 127
13, 51498, Note_off_c, 13, 69, 0
13, 51498, Note_off_c, 13, 77, 0
13, 51498, Note_off_c, 13, 50, 0
13, 51504, Note_on_c, 13, 65, 127
13, 51504, Note_on_c, 13, 72, 127
13, 51504, Note_on_c, 13, 45, 127
13, 51546, Note_off_c, 13, 65, 0
13, 51546, Note_off_c, 13, 72, 0
13, 51546, Note_off_c, 13, 45, 0
13, 51552, Note_on_c, 13, 65, 127
13, 51552, Note_on_c, 13, 74, 127
13, 51552, Note_on_c, 13, 46, 127
13, 51594, Note_off_c, 13, 65, 0
13, 51594, Note_off_c, 13, 74, 0
13, 51594, Note_off_c, 13, 46, 0
13, 51600, Note_on_c, 13, 67, 127
13, 51600, Note_on_c, 13, 76, 127
13, 51600, Note_on_c, 13, 48, 127
13, 51642, Note_off_c, 13, 67, 0
13, 51642, Note_off_c, 13, 76, 0
13, 51642, Note_off_c, 13, 48, 0
13, 51648, Note_on_c, 13, 67, 127
13, 51648, Note_on_c, 13, 72, 127
13, 51648, Note_on_c, 13, 41, 127
13, 51669, Note_off_c, 13, 41, 0
13, 51672, Note_on_c, 13, 57, 127
13, 51690, Note_off_c, 13, 67, 0
13, 51690, Note_off_c, 13, 72, 0
13, 51693, Note_off_c, 13, 57, 0
13, 51696, Note_on_c, 13, 65, 127
13, 51696, Note_on_c, 13, 72, 127
13, 51696, Note_on_c, 13, 55, 127
13, 51717, Note_off_c, 13, 55, 0
13, 51720, Note_on_c, 13, 53, 127
13, 51727, Note_off_c, 13, 65, 0
13, 51727, Note_off_c, 13, 72, 0
13, 51741, Note_off_c, 13, 53, 0
13, 51744, Note_on_c, 13, 67, 127
13, 51744, Note_on_c, 13, 72, 127
13, 51744, Note_on_c, 13, 52, 127
13, 51765, Note_off_c, 13, 52, 0
13, 51768, Note_on_c, 13, 50, 127
13, 51786, Note_off_c, 13, 67, 0
13, 51786, Note_off_c, 13, 72, 0
13, 51789, Note_off_c, 13, 50, 0
13, 51792, Note_on_c, 13, 67, 127
13, 51792, Note_on_c, 13, 76, 127
13, 51792, Note_on_c, 13, 48, 127
13, 51834, Note_off_c, 13, 67, 0
13, 51834, Note_off_c, 13, 76, 0
13, 51834, Note_off_c, 13, 48, 0
13, 51840, Note_on_c, 13, 65, 127
13, 51840, Note_on_c, 13, 74, 127
13, 51840, Note_on_c, 13, 48, 127
13, 51882, Note_off_c, 13, 65, 0
13, 51882, Note_off_c, 13, 74, 0
13, 51882, Note_off_c, 13, 48, 0
13, 51888, Note_on_c, 13, 67, 127
13, 51888, Note_on_c, 13, 76, 127
13, 51888, Note_on_c, 13, 48, 127
13, 51930, Note_off_c, 13, 67, 0
13, 51930, Note_off_c, 13, 76, 0
13, 51930, Note_off_c, 13, 48, 0
13, 51936, Note_on_c, 13, 65, 127
13, 51936, Note_on_c, 13, 74, 127
13, 51936, Note_on_c, 13, 48, 127
13, 51978, Note_off_c, 13, 65, 0
13, 51978, Note_off_c, 13, 74, 0
13, 51978, Note_off_c, 13, 48, 0
13, 51984, Note_on_c, 13, 67, 127
13, 51984, Note_on_c, 13, 76, 127
13, 51984, Note_on_c, 13, 48, 127
13, 52026, Note_off_c, 13, 67, 0
13, 52026, Note_off_c, 13, 76, 0
13, 52026, Note_off_c, 13, 48, 0
13, 52032, Note_on_c, 13, 65, 127
13, 52032, Note_on_c, 13, 74, 127
13, 52032, Note_on_c, 13, 48, 127
13, 52074, Note_off_c, 13, 65, 0
13, 52074, Note_off_c, 13, 74, 0
13, 52074, Note_off_c, 13, 48, 0
13, 52080, Note_on_c, 13, 67, 127
13, 52080, Note_on_c, 13, 76, 127
13, 52080, Note_on_c, 13, 48, 127
13, 52122, Note_off_c, 13, 67, 0
13, 52122, Note_off_c, 13, 76, 0
13, 52122, Note_off_c, 13, 48, 0
13, 52128, Note_on_c, 13, 65, 127
13, 52128, Note_on_c, 13, 74, 127
13, 52128, Note_on_c, 13, 48, 127
13, 52170, Note_off_c, 13, 65, 0
13, 52170, Note_off_c, 13, 74, 0
13, 52170, Note_off_c, 13, 48, 0
13, 52176, Note_on_c, 13, 67, 127
13, 52176, Note_on_c, 13, 76, 127
13, 52176, Note_on_c, 13, 48, 127
13, 52218, Note_off_c, 13, 67, 0
13, 52218, Note_off_c, 13, 76, 0
13, 52218, Note_off_c, 13, 48, 0
13, 52224, Note_on_c, 13, 67, 127
13, 52224, Note_on_c, 13, 76, 127
13, 52224, Note_on_c, 13, 49, 127
13, 52266, Note_off_c, 13, 67, 0
13, 52266, Note_off_c, 13, 76, 0
13, 52266, Note_off_c, 13, 49, 0
13, 52272, Note_on_c, 13, 67, 127
13, 52272, Note_on_c, 13, 76, 127
13, 52272, Note_on_c, 13, 49, 127
13, 52314, Note_off_c, 13, 67, 0
13, 52314, Note_off_c, 13, 76, 0
13, 52314, Note_off_c, 13, 49, 0
13, 52320, Note_on_c, 13, 67, 127
13, 52320, Note_on_c, 13, 74, 127
13, 52320, Note_on_c, 13, 52, 127
13, 52362, Note_off_c, 13, 67, 0
13, 52362, Note_off_c, 13, 74, 0
13, 52362, Note_off_c, 13, 52, 0
13, 52368, Note_on_c, 13, 67, 127
13, 52368, Note_on_c, 13, 76, 127
13, 52368, Note_on_c, 13, 45, 127
13, 52410, Note_off_c, 13, 67, 0
13, 52410, Note_off_c, 13, 76, 0
13, 52410, Note_off_c, 13, 45, 0
13, 52416, Note_on_c, 13, 65, 127
13, 52416, Note_on_c, 13, 74, 127
13, 52416, Note_on_c, 13, 45, 127
13, 52458, Note_off_c, 13, 65, 0
13, 52458, Note_off_c, 13, 74, 0
13, 52458, Note_off_c, 13, 45, 0
13, 52464, Note_on_c, 13, 64, 127
13, 52464, Note_on_c, 13, 73, 127
13, 52464, Note_on_c, 13, 45, 127
13, 52506, Note_off_c, 13, 64, 0
13, 52506, Note_off_c, 13, 73, 0
13, 52506, Note_off_c, 13, 45, 0
13, 52512, Note_on_c, 13, 67, 127
13, 52512, Note_on_c, 13, 73, 127
13, 52512, Note_on_c, 13, 45, 127
13, 52554, Note_off_c, 13, 67, 0
13, 52554, Note_off_c, 13, 73, 0
13, 52554, Note_off_c, 13, 45, 0
13, 52560, Note_on_c, 13, 65, 127
13, 52560, Note_on_c, 13, 73, 127
13, 52560, Note_on_c, 13, 45, 127
13, 52602, Note_off_c, 13, 65, 0
13, 52602, Note_off_c, 13, 73, 0
13, 52602, Note_off_c, 13, 45, 0
13, 52608, Note_on_c, 13, 64, 127
13, 52608, Note_on_c, 13, 73, 127
13, 52608, Note_on_c, 13, 45, 127
13, 52650, Note_off_c, 13, 64, 0
13, 52650, Note_off_c, 13, 73, 0
13, 52650, Note_off_c, 13, 45, 0
13, 52656, Note_on_c, 13, 69, 127
13, 52656, Note_on_c, 13, 77, 127
13, 52656, Note_on_c, 13, 50, 127
13, 52698, Note_off_c, 13, 69, 0
13, 52698, Note_off_c, 13, 77, 0
13, 52698, Note_off_c, 13, 50, 0
13, 52704, Note_on_c, 13, 69, 127
13, 52704, Note_on_c, 13, 74, 127
13, 52704, Note_on_c, 13, 41, 127
13, 52746, Note_off_c, 13, 69, 0
13, 52746, Note_off_c, 13, 74, 0
13, 52746, Note_off_c, 13, 41, 0
13, 52752, Note_on_c, 13, 64, 127
13, 52752, Note_on_c, 13, 73, 127
13, 52752, Note_on_c, 13, 45, 127
13, 52794, Note_off_c, 13, 64, 0
13, 52794, Note_off_c, 13, 73, 0
13, 52794, Note_off_c, 13, 45, 0
13, 52800, Note_on_c, 13, 69, 127
13, 52800, Note_on_c, 13, 76, 127
13, 52800, Note_on_c, 13, 38, 127
13, 52842, Note_off_c, 13, 69, 0
13, 52842, Note_off_c, 13, 76, 0
13, 52842, Note_off_c, 13, 38, 0
13, 52848, Note_on_c, 13, 69, 127
13, 52848, Note_on_c, 13, 77, 127
13, 52848, Note_on_c, 13, 50, 127
13, 52890, Note_off_c, 13, 69, 0
13, 52890, Note_off_c, 13, 77, 0
13, 52890, Note_off_c, 13, 50, 0
13, 52896, Note_on_c, 13, 65, 127
13, 52896, Note_on_c, 13, 72, 127
13, 52896, Note_on_c, 13, 48, 127
13, 52938, Note_off_c, 13, 65, 0
13, 52938, Note_off_c, 13, 72, 0
13, 52938, Note_off_c, 13, 48, 0
13, 52944, Note_on_c, 13, 62, 127
13, 52944, Note_on_c, 13, 70, 127
13, 52944, Note_on_c, 13, 46, 127
13, 52963, Note_off_c, 13, 62, 0
13, 52963, Note_off_c, 13, 70, 0
13, 52963, Note_off_c, 13, 46, 0
13, 52992, Note_on_c, 13, 60, 127
13, 52992, Note_on_c, 13, 69, 127
13, 52992, Note_on_c, 13, 46, 127
13, 53011, Note_off_c, 13, 60, 0
13, 53011, Note_off_c, 13, 69, 0
13, 53011, Note_off_c, 13, 46, 0
13, 53040, Note_on_c, 13, 58, 127
13, 53040, Note_on_c, 13, 67, 127
13, 53040, Note_on_c, 13, 46, 127
13, 53059, Note_off_c, 13, 58, 0
13, 53059, Note_off_c, 13, 67, 0
13, 53059, Note_off_c, 13, 46, 0
13, 53088, Note_on_c, 13, 63, 127
13, 53088, Note_on_c, 13, 69, 127
13, 53088, Note_on_c, 13, 46, 127
13, 53107, Note_off_c, 13, 63, 0
13, 53107, Note_off_c, 13, 69, 0
13, 53107, Note_off_c, 13, 46, 0
13, 53136, Note_on_c, 13, 65, 127
13, 53136, Note_on_c, 13, 70, 127
13, 53136, Note_on_c, 13, 46, 127
13, 53155, Note_off_c, 13, 65, 0
13, 53155, Note_off_c, 13, 70, 0
13, 53155, Note_off_c, 13, 46, 0
13, 53184, Note_on_c, 13, 63, 127
13, 53184, Note_on_c, 13, 69, 127
13, 53184, Note_on_c, 13, 46, 127
13, 53203, Note_off_c, 13, 63, 0
13, 53203, Note_off_c, 13, 69, 0
13, 53203, Note_off_c, 13, 46, 0
13, 53232, Note_on_c, 13, 67, 127
13, 53232, Note_on_c, 13, 74, 127
13, 53232, Note_on_c, 13, 46, 127
13, 53251, Note_off_c, 13, 67, 0
13, 53251, Note_off_c, 13, 74, 0
13, 53251, Note_off_c, 13, 46, 0
13, 53280, Note_on_c, 13, 65, 127
13, 53280, Note_on_c, 13, 74, 127
13, 53280, Note_on_c, 13, 46, 127
13, 53299, Note_off_c, 13, 65, 0
13, 53299, Note_off_c, 13, 74, 0
13, 53299, Note_off_c, 13, 46, 0
13, 53328, Note_on_c, 13, 67, 127
13, 53328, Note_on_c, 13, 76, 127
13, 53328, Note_on_c, 13, 46, 127
13, 53347, Note_off_c, 13, 67, 0
13, 53347, Note_off_c, 13, 76, 0
13, 53347, Note_off_c, 13, 46, 0
13, 53376, Note_on_c, 13, 65, 127
13, 53376, Note_on_c, 13, 74, 127
13, 53376, Note_on_c, 13, 47, 127
13, 53395, Note_off_c, 13, 65, 0
13, 53395, Note_off_c, 13, 74, 0
13, 53418, Note_off_c, 13, 47, 0
13, 53424, Note_on_c, 13, 67, 127
13, 53424, Note_on_c, 13, 72, 127
13, 53424, Note_on_c, 13, 48, 127
13, 53443, Note_off_c, 13, 67, 0
13, 53443, Note_off_c, 13, 72, 0
13, 53445, Note_off_c, 13, 48, 0
13, 53448, Note_on_c, 13, 50, 127
13, 53469, Note_off_c, 13, 50, 0
13, 53472, Note_on_c, 13, 67, 127
13, 53472, Note_on_c, 13, 69, 127
13, 53472, Note_on_c, 13, 52, 127
13, 53491, Note_off_c, 13, 67, 0
13, 53491, Note_off_c, 13, 69, 0
13, 53493, Note_off_c, 13, 52, 0
13, 53496, Note_on_c, 13, 48, 127
13, 53517, Note_off_c, 13, 48, 0
13, 53520, Note_on_c, 13, 65, 127
13, 53520, Note_on_c, 13, 72, 127
13, 53520, Note_on_c, 13, 53, 127
13, 53562, Note_off_c, 13, 65, 0
13, 53562, Note_off_c, 13, 72, 0
13, 53562, Note_off_c, 13, 53, 0
13, 53568, Note_on_c, 13, 58, 127
13, 53568, Note_on_c, 13, 67, 127
13, 53568, Note_on_c, 13, 53, 127
13, 53610, Note_off_c, 13, 58, 0
13, 53610, Note_off_c, 13, 67, 0
13, 53610, Note_off_c, 13, 53, 0
13, 53616, Note_on_c, 13, 57, 127
13, 53616, Note_on_c, 13, 65, 127
13, 53616, Note_on_c, 13, 53, 127
13, 53658, Note_off_c, 13, 57, 0
13, 53658, Note_off_c, 13, 65, 0
13, 53658, Note_off_c, 13, 53, 0
13, 53664, Note_on_c, 13, 65, 127
13, 53664, Note_on_c, 13, 74, 127
13, 53664, Note_on_c, 13, 50, 127
13, 53706, Note_off_c, 13, 65, 0
13, 53706, Note_off_c, 13, 74, 0
13, 53706, Note_off_c, 13, 50, 0
13, 53712, Note_on_c, 13, 67, 127
13, 53712, Note_on_c, 13, 73, 127
13, 53712, Note_on_c, 13, 50, 127
13, 53754, Note_off_c, 13, 67, 0
13, 53754, Note_off_c, 13, 73, 0
13, 53754, Note_off_c, 13, 50, 0
13, 53760, Note_on_c, 13, 69, 127
13, 53760, Note_on_c, 13, 77, 127
13, 53760, Note_on_c, 13, 50, 127
13, 53802, Note_off_c, 13, 69, 0
13, 53802, Note_off_c, 13, 77, 0
13, 53802, Note_off_c, 13, 50, 0
13, 53808, Note_on_c, 13, 65, 127
13, 53808, Note_on_c, 13, 72, 127
13, 53808, Note_on_c, 13, 45, 127
13, 53850, Note_off_c, 13, 65, 0
13, 53850, Note_off_c, 13, 72, 0
13, 53850, Note_off_c, 13, 45, 0
13, 53856, Note_on_c, 13, 65, 127
13, 53856, Note_on_c, 13, 74, 127
13, 53856, Note_on_c, 13, 46, 127
13, 53898, Note_off_c, 13, 65, 0
13, 53898, Note_off_c, 13, 74, 0
13, 53898, Note_off_c, 13, 46, 0
13, 53904, Note_on_c, 13, 67, 127
13, 53904, Note_on_c, 13, 76, 127
13, 53904, Note_on_c, 13, 48, 127
13, 53946, Note_off_c, 13, 67, 0
13, 53946, Note_off_c, 13, 76, 0
13, 53946, Note_off_c, 13, 48, 0
13, 53952, Note_on_c, 13, 67, 127
13, 53952, Note_on_c, 13, 72, 127
13, 53952, Note_on_c, 13, 41, 127
13, 53971, Note_off_c, 13, 67, 0
13, 53971, Note_off_c, 13, 72, 0
13, 53971, Note_off_c, 13, 41, 0
13, 54000, Note_on_c, 13, 65, 127
13, 54000, Note_on_c, 13, 72, 127
13, 54000, Note_on_c, 13, 41, 127
13, 54084, Note_off_c, 13, 65, 0
13, 54084, Note_off_c, 13, 72, 0
13, 54084, Note_off_c, 13, 41, 0
13, 54084, End_track
14, 0, Start_track
14, 0, Title_t, "Viola"
14, 0, Control_c, 14, 0, 0
14, 0, Program_c, 14, 41
14, 0, Time_signature, 3, 2, 96, 8
14, 0, Tempo, 1000000
14, 96, Tempo, 428571
14, 96, Note_on_c, 14, 65, 75
14, 276, Note_off_c, 14, 65, 0
14, 288, Note_on_c, 14, 65, 75
14, 372, Note_off_c, 14, 65, 0
14, 384, Note_on_c, 14, 65, 75
14, 394, Note_off_c, 14, 65, 0
14, 396, Note_on_c, 14, 63, 75
14, 406, Note_off_c, 14, 63, 0
14, 408, Note_on_c, 14, 65, 75
14, 418, Note_off_c, 14, 65, 0
14, 420, Note_on_c, 14, 63, 75
14, 430, Note_off_c, 14, 63, 0
14, 432, Note_on_c, 14, 65, 75
14, 442, Note_off_c, 14, 65, 0
14, 444, Note_on_c, 14, 63, 75
14, 454, Note_off_c, 14, 63, 0
14, 456, Note_on_c, 14, 65, 75
14, 466, Note_off_c, 14, 65, 0
14, 468, Note_on_c, 14, 63, 75
14, 478, Note_off_c, 14, 63, 0
14, 480, Note_on_c, 14, 62, 75
14, 522, Note_off_c, 14, 62, 0
14, 528, Note_on_c, 14, 60, 75
14, 570, Note_off_c, 14, 60, 0
14, 576, Note_on_c, 14, 62, 75
14, 660, Note_off_c, 14, 62, 0
14, 672, Note_on_c, 14, 63, 75
14, 756, Note_off_c, 14, 63, 0
14, 768, Note_on_c, 14, 60, 75
14, 852, Note_off_c, 14, 60, 0
14, 864, Note_on_c, 14, 65, 75
14, 948, Note_off_c, 14, 65, 0
14, 960, Note_on_c, 14, 65, 75
14, 1140, Note_off_c, 14, 65, 0
14, 1152, Note_on_c, 14, 60, 75
14, 1236, Note_off_c, 14, 60, 0
14, 1248, Note_on_c, 14, 60, 75
14, 1428, Note_off_c, 14, 60, 0
14, 1440, Note_on_c, 14, 60, 75
14, 1524, Note_off_c, 14, 60, 0
14, 1536, Note_on_c, 14, 55, 75
14, 1620, Note_off_c, 14, 55, 0
14, 1632, Note_on_c, 14, 57, 75
14, 1716, Note_off_c, 14, 57, 0
14, 1728, Note_on_c, 14, 53, 75
14, 1812, Note_off_c, 14, 53, 0
14, 1824, Note_on_c, 14, 60, 75
14, 2004, Note_off_c, 14, 60, 0
14, 2016, Note_on_c, 14, 60, 75
14, 2100, Note_off_c, 14, 60, 0
14, 2112, Note_on_c, 14, 60, 75
14, 2292, Note_off_c, 14, 60, 0
14, 2304, Note_on_c, 14, 60, 75
14, 2388, Note_off_c, 14, 60, 0
14, 2400, Note_on_c, 14, 64, 75
14, 2410, Note_off_c, 14, 64, 0
14, 2412, Note_on_c, 14, 62, 75
14, 2422, Note_off_c, 14, 62, 0
14, 2424, Note_on_c, 14, 64, 75
14, 2434, Note_off_c, 14, 64, 0
14, 2436, Note_on_c, 14, 62, 75
14, 2446, Note_off_c, 14, 62, 0
14, 2448, Note_on_c, 14, 64, 75
14, 2458, Note_off_c, 14, 64, 0
14, 2460, Note_on_c, 14, 62, 75
14, 2470, Note_off_c, 14, 62, 0
14, 2472, Note_on_c, 14, 64, 75
14, 2482, Note_off_c, 14, 64, 0
14, 2484, Note_on_c, 14, 62, 75
14, 2494, Note_off_c, 14, 62, 0
14, 2496, Note_on_c, 14, 60, 75
14, 2538, Note_off_c, 14, 60, 0
14, 2544, Note_on_c, 14, 62, 75
14, 2586, Note_off_c, 14, 62, 0
14, 2592, Note_on_c, 14, 64, 75
14, 2676, Note_off_c, 14, 64, 0
14, 2688, Note_on_c, 14, 62, 75
14, 2868, Note_off_c, 14, 62, 0
14, 2880, Note_on_c, 14, 64, 75
14, 2964, Note_off_c, 14, 64, 0
14, 2976, Note_on_c, 14, 60, 75
14, 3060, Note_off_c, 14, 60, 0
14, 3072, Note_on_c, 14, 67, 75
14, 3156, Note_off_c, 14, 67, 0
14, 3168, Note_on_c, 14, 65, 75
14, 3252, Note_off_c, 14, 65, 0
14, 3264, Note_on_c, 14, 64, 75
14, 3540, Note_off_c, 14, 64, 0
14, 3552, Note_on_c, 14, 65, 75
14, 3732, Note_off_c, 14, 65, 0
14, 3744, Note_on_c, 14, 65, 75
14, 3828, Note_off_c, 14, 65, 0
14, 3840, Note_on_c, 14, 65, 75
14, 3850, Note_off_c, 14, 65, 0
14, 3852, Note_on_c, 14, 63, 75
14, 3862, Note_off_c, 14, 63, 0
14, 3864, Note_on_c, 14, 65, 75
14, 3874, Note_off_c, 14, 65, 0
14, 3876, Note_on_c, 14, 63, 75
14, 3886, Note_off_c, 14, 63, 0
14, 3888, Note_on_c, 14, 65, 75
14, 3898, Note_off_c, 14, 65, 0
14, 3900, Note_on_c, 14, 63, 75
14, 3910, Note_off_c, 14, 63, 0
14, 3912, Note_on_c, 14, 65, 75
14, 3922, Note_off_c, 14, 65, 0
14, 3924, Note_on_c, 14, 63, 75
14, 3934, Note_off_c, 14, 63, 0
14, 3936, Note_on_c, 14, 62, 75
14, 3978, Note_off_c, 14, 62, 0
14, 3984, Note_on_c, 14, 60, 75
14, 4026, Note_off_c, 14, 60, 0
14, 4032, Note_on_c, 14, 62, 75
14, 4116, Note_off_c, 14, 62, 0
14, 4128, Note_on_c, 14, 63, 75
14, 4212, Note_off_c, 14, 63, 0
14, 4224, Note_on_c, 14, 60, 75
14, 4308, Note_off_c, 14, 60, 0
14, 4320, Note_on_c, 14, 65, 75
14, 4404, Note_off_c, 14, 65, 0
14, 4416, Note_on_c, 14, 65, 75
14, 4596, Note_off_c, 14, 65, 0
14, 4608, Note_on_c, 14, 60, 75
14, 4692, Note_off_c, 14, 60, 0
14, 4704, Note_on_c, 14, 60, 75
14, 4884, Note_off_c, 14, 60, 0
14, 4896, Note_on_c, 14, 60, 75
14, 4980, Note_off_c, 14, 60, 0
14, 4992, Note_on_c, 14, 55, 75
14, 5076, Note_off_c, 14, 55, 0
14, 5088, Note_on_c, 14, 57, 75
14, 5172, Note_off_c, 14, 57, 0
14, 5184, Note_on_c, 14, 53, 75
14, 5268, Note_off_c, 14, 53, 0
14, 5280, Note_on_c, 14, 60, 75
14, 5460, Note_off_c, 14, 60, 0
14, 5472, Note_on_c, 14, 60, 75
14, 5556, Note_off_c, 14, 60, 0
14, 5568, Note_on_c, 14, 60, 75
14, 5748, Note_off_c, 14, 60, 0
14, 5760, Note_on_c, 14, 60, 75
14, 5844, Note_off_c, 14, 60, 0
14, 5856, Note_on_c, 14, 64, 75
14, 5866, Note_off_c, 14, 64, 0
14, 5868, Note_on_c, 14, 62, 75
14, 5878, Note_off_c, 14, 62, 0
14, 5880, Note_on_c, 14, 64, 75
14, 5890, Note_off_c, 14, 64, 0
14, 5892, Note_on_c, 14, 62, 75
14, 5902, Note_off_c, 14, 62, 0
14, 5904, Note_on_c, 14, 64, 75
14, 5914, Note_off_c, 14, 64, 0
14, 5916, Note_on_c, 14, 62, 75
14, 5926, Note_off_c, 14, 62, 0
14, 5928, Note_on_c, 14, 64, 75
14, 5938, Note_off_c, 14, 64, 0
14, 5940, Note_on_c, 14, 62, 75
14, 5950, Note_off_c, 14, 62, 0
14, 5952, Note_on_c, 14, 60, 75
14, 5994, Note_off_c, 14, 60, 0
14, 6000, Note_on_c, 14, 62, 75
14, 6042, Note_off_c, 14, 62, 0
14, 6048, Note_on_c, 14, 64, 75
14, 6132, Note_off_c, 14, 64, 0
14, 6144, Note_on_c, 14, 62, 75
14, 6324, Note_off_c, 14, 62, 0
14, 6336, Note_on_c, 14, 64, 75
14, 6420, Note_off_c, 14, 64, 0
14, 6432, Note_on_c, 14, 60, 75
14, 6516, Note_off_c, 14, 60, 0
14, 6528, Note_on_c, 14, 67, 75
14, 6612, Note_off_c, 14, 67, 0
14, 6624, Note_on_c, 14, 65, 75
14, 6708, Note_off_c, 14, 65, 0
14, 6720, Note_on_c, 14, 64, 75
14, 6996, Note_off_c, 14, 64, 0
14, 7008, Note_on_c, 14, 67, 75
14, 7188, Note_off_c, 14, 67, 0
14, 7200, Note_on_c, 14, 72, 75
14, 7284, Note_off_c, 14, 72, 0
14, 7296, Note_on_c, 14, 72, 75
14, 7306, Note_off_c, 14, 72, 0
14, 7308, Note_on_c, 14, 70, 75
14, 7318, Note_off_c, 14, 70, 0
14, 7320, Note_on_c, 14, 72, 75
14, 7330, Note_off_c, 14, 72, 0
14, 7332, Note_on_c, 14, 70, 75
14, 7342, Note_off_c, 14, 70, 0
14, 7344, Note_on_c, 14, 72, 75
14, 7354, Note_off_c, 14, 72, 0
14, 7356, Note_on_c, 14, 70, 75
14, 7366, Note_off_c, 14, 70, 0
14, 7368, Note_on_c, 14, 72, 75
14, 7378, Note_off_c, 14, 72, 0
14, 7380, Note_on_c, 14, 70, 75
14, 7390, Note_off_c, 14, 70, 0
14, 7392, Note_on_c, 14, 69, 75
14, 7434, Note_off_c, 14, 69, 0
14, 7440, Note_on_c, 14, 67, 75
14, 7482, Note_off_c, 14, 67, 0
14, 7488, Note_on_c, 14, 69, 75
14, 7572, Note_off_c, 14, 69, 0
14, 7584, Note_on_c, 14, 70, 75
14, 7668, Note_off_c, 14, 70, 0
14, 7680, Note_on_c, 14, 67, 75
14, 7764, Note_off_c, 14, 67, 0
14, 7776, Note_on_c, 14, 72, 75
14, 7860, Note_off_c, 14, 72, 0
14, 7872, Note_on_c, 14, 72, 75
14, 8052, Note_off_c, 14, 72, 0
14, 8064, Note_on_c, 14, 67, 75
14, 8148, Note_off_c, 14, 67, 0
14, 8160, Note_on_c, 14, 67, 75
14, 8340, Note_off_c, 14, 67, 0
14, 8352, Note_on_c, 14, 67, 75
14, 8436, Note_off_c, 14, 67, 0
14, 8448, Note_on_c, 14, 62, 75
14, 8532, Note_off_c, 14, 62, 0
14, 8544, Note_on_c, 14, 64, 75
14, 8628, Note_off_c, 14, 64, 0
14, 8640, Note_on_c, 14, 60, 75
14, 8724, Note_off_c, 14, 60, 0
14, 8736, Note_on_c, 14, 67, 75
14, 8916, Note_off_c, 14, 67, 0
14, 8928, Note_on_c, 14, 67, 75
14, 9012, Note_off_c, 14, 67, 0
14, 9024, Note_on_c, 14, 67, 75
14, 9300, Note_off_c, 14, 67, 0
14, 9312, Note_on_c, 14, 67, 75
14, 9354, Note_off_c, 14, 67, 0
14, 9360, Note_on_c, 14, 65, 75
14, 9402, Note_off_c, 14, 65, 0
14, 9408, Note_on_c, 14, 67, 75
14, 9418, Note_off_c, 14, 67, 0
14, 9420, Note_on_c, 14, 65, 75
14, 9430, Note_off_c, 14, 65, 0
14, 9432, Note_on_c, 14, 67, 75
14, 9442, Note_off_c, 14, 67, 0
14, 9444, Note_on_c, 14, 65, 75
14, 9454, Note_off_c, 14, 65, 0
14, 9456, Note_on_c, 14, 67, 75
14, 9466, Note_off_c, 14, 67, 0
14, 9468, Note_on_c, 14, 65, 75
14, 9478, Note_off_c, 14, 65, 0
14, 9480, Note_on_c, 14, 67, 75
14, 9490, Note_off_c, 14, 67, 0
14, 9492, Note_on_c, 14, 65, 75
14, 9502, Note_off_c, 14, 65, 0
14, 9504, Note_on_c, 14, 67, 75
14, 9514, Note_off_c, 14, 67, 0
14, 9516, Note_on_c, 14, 65, 75
14, 9526, Note_off_c, 14, 65, 0
14, 9528, Note_on_c, 14, 67, 75
14, 9538, Note_off_c, 14, 67, 0
14, 9540, Note_on_c, 14, 65, 75
14, 9550, Note_off_c, 14, 65, 0
14, 9552, Note_on_c, 14, 64, 75
14, 9573, Note_off_c, 14, 64, 0
14, 9576, Note_on_c, 14, 65, 75
14, 9597, Note_off_c, 14, 65, 0
14, 9600, Note_on_c, 14, 67, 75
14, 9684, Note_off_c, 14, 67, 0
14, 9696, Note_on_c, 14, 72, 75
14, 9780, Note_off_c, 14, 72, 0
14, 9792, Note_on_c, 14, 64, 75
14, 9876, Note_off_c, 14, 64, 0
14, 9888, Note_on_c, 14, 69, 75
14, 9930, Note_off_c, 14, 69, 0
14, 9936, Note_on_c, 14, 70, 75
14, 9978, Note_off_c, 14, 70, 0
14, 9984, Note_on_c, 14, 67, 75
14, 9994, Note_off_c, 14, 67, 0
14, 9996, Note_on_c, 14, 65, 75
14, 10006, Note_off_c, 14, 65, 0
14, 10008, Note_on_c, 14, 67, 75
14, 10018, Note_off_c, 14, 67, 0
14, 10020, Note_on_c, 14, 65, 75
14, 10030, Note_off_c, 14, 65, 0
14, 10032, Note_on_c, 14, 67, 75
14, 10042, Note_off_c, 14, 67, 0
14, 10044, Note_on_c, 14, 65, 75
14, 10054, Note_off_c, 14, 65, 0
14, 10056, Note_on_c, 14, 67, 75
14, 10066, Note_off_c, 14, 67, 0
14, 10068, Note_on_c, 14, 65, 75
14, 10078, Note_off_c, 14, 65, 0
14, 10080, Note_on_c, 14, 67, 75
14, 10090, Note_off_c, 14, 67, 0
14, 10092, Note_on_c, 14, 65, 75
14, 10102, Note_off_c, 14, 65, 0
14, 10104, Note_on_c, 14, 67, 75
14, 10114, Note_off_c, 14, 67, 0
14, 10116, Note_on_c, 14, 65, 75
14, 10126, Note_off_c, 14, 65, 0
14, 10128, Note_on_c, 14, 69, 75
14, 10170, Note_off_c, 14, 69, 0
14, 10176, Note_on_c, 14, 69, 75
14, 10452, Note_off_c, 14, 69, 0
14, 10464, Note_on_c, 14, 67, 75
14, 10644, Note_off_c, 14, 67, 0
14, 10656, Note_on_c, 14, 72, 75
14, 10740, Note_off_c, 14, 72, 0
14, 10752, Note_on_c, 14, 72, 75
14, 10762, Note_off_c, 14, 72, 0
14, 10764, Note_on_c, 14, 70, 75
14, 10774, Note_off_c, 14, 70, 0
14, 10776, Note_on_c, 14, 72, 75
14, 10786, Note_off_c, 14, 72, 0
14, 10788, Note_on_c, 14, 70, 75
14, 10798, Note_off_c, 14, 70, 0
14, 10800, Note_on_c, 14, 72, 75
14, 10810, Note_off_c, 14, 72, 0
14, 10812, Note_on_c, 14, 70, 75
14, 10822, Note_off_c, 14, 70, 0
14, 10824, Note_on_c, 14, 72, 75
14, 10834, Note_off_c, 14, 72, 0
14, 10836, Note_on_c, 14, 70, 75
14, 10846, Note_off_c, 14, 70, 0
14, 10848, Note_on_c, 14, 69, 75
14, 10890, Note_off_c, 14, 69, 0
14, 10896, Note_on_c, 14, 67, 75
14, 10938, Note_off_c, 14, 67, 0
14, 10944, Note_on_c, 14, 69, 75
14, 11028, Note_off_c, 14, 69, 0
14, 11040, Note_on_c, 14, 70, 75
14, 11124, Note_off_c, 14, 70, 0
14, 11136, Note_on_c, 14, 67, 75
14, 11220, Note_off_c, 14, 67, 0
14, 11232, Note_on_c, 14, 72, 75
14, 11316, Note_off_c, 14, 72, 0
14, 11328, Note_on_c, 14, 72, 75
14, 11508, Note_off_c, 14, 72, 0
14, 11520, Note_on_c, 14, 67, 75
14, 11604, Note_off_c, 14, 67, 0
14, 11616, Note_on_c, 14, 67, 75
14, 11796, Note_off_c, 14, 67, 0
14, 11808, Note_on_c, 14, 67, 75
14, 11892, Note_off_c, 14, 67, 0
14, 11904, Note_on_c, 14, 62, 75
14, 11988, Note_off_c, 14, 62, 0
14, 12000, Note_on_c, 14, 64, 75
14, 12084, Note_off_c, 14, 64, 0
14, 12096, Note_on_c, 14, 60, 75
14, 12180, Note_off_c, 14, 60, 0
14, 12192, Note_on_c, 14, 67, 75
14, 12372, Note_off_c, 14, 67, 0
14, 12384, Note_on_c, 14, 67, 75
14, 12468, Note_off_c, 14, 67, 0
14, 12480, Note_on_c, 14, 67, 75
14, 12756, Note_off_c, 14, 67, 0
14, 12768, Note_on_c, 14, 67, 75
14, 12810, Note_off_c, 14, 67, 0
14, 12816, Note_on_c, 14, 65, 75
14, 12858, Note_off_c, 14, 65, 0
14, 12864, Note_on_c, 14, 67, 75
14, 12874, Note_off_c, 14, 67, 0
14, 12876, Note_on_c, 14, 65, 75
14, 12886, Note_off_c, 14, 65, 0
14, 12888, Note_on_c, 14, 67, 75
14, 12898, Note_off_c, 14, 67, 0
14, 12900, Note_on_c, 14, 65, 75
14, 12910, Note_off_c, 14, 65, 0
14, 12912, Note_on_c, 14, 67, 75
14, 12922, Note_off_c, 14, 67, 0
14, 12924, Note_on_c, 14, 65, 75
14, 12934, Note_off_c, 14, 65, 0
14, 12936, Note_on_c, 14, 67, 75
14, 12946, Note_off_c, 14, 67, 0
14, 12948, Note_on_c, 14, 65, 75
14, 12958, Note_off_c, 14, 65, 0
14, 12960, Note_on_c, 14, 67, 75
14, 12970, Note_off_c, 14, 67, 0
14, 12972, Note_on_c, 14, 65, 75
14, 12982, Note_off_c, 14, 65, 0
14, 12984, Note_on_c, 14, 67, 75
14, 12994, Note_off_c, 14, 67, 0
14, 12996, Note_on_c, 14, 65, 75
14, 13006, Note_off_c, 14, 65, 0
14, 13008, Note_on_c, 14, 64, 75
14, 13029, Note_off_c, 14, 64, 0
14, 13032, Note_on_c, 14, 65, 75
14, 13053, Note_off_c, 14, 65, 0
14, 13056, Note_on_c, 14, 67, 75
14, 13140, Note_off_c, 14, 67, 0
14, 13152, Note_on_c, 14, 72, 75
14, 13236, Note_off_c, 14, 72, 0
14, 13248, Note_on_c, 14, 64, 75
14, 13332, Note_off_c, 14, 64, 0
14, 13344, Note_on_c, 14, 69, 75
14, 13386, Note_off_c, 14, 69, 0
14, 13392, Note_on_c, 14, 70, 75
14, 13434, Note_off_c, 14, 70, 0
14, 13440, Note_on_c, 14, 67, 75
14, 13450, Note_off_c, 14, 67, 0
14, 13452, Note_on_c, 14, 65, 75
14, 13462, Note_off_c, 14, 65, 0
14, 13464, Note_on_c, 14, 67, 75
14, 13474, Note_off_c, 14, 67, 0
14, 13476, Note_on_c, 14, 65, 75
14, 13486, Note_off_c, 14, 65, 0
14, 13488, Note_on_c, 14, 67, 75
14, 13498, Note_off_c, 14, 67, 0
14, 13500, Note_on_c, 14, 65, 75
14, 13510, Note_off_c, 14, 65, 0
14, 13512, Note_on_c, 14, 67, 75
14, 13522, Note_off_c, 14, 67, 0
14, 13524, Note_on_c, 14, 65, 75
14, 13534, Note_off_c, 14, 65, 0
14, 13536, Note_on_c, 14, 67, 75
14, 13546, Note_off_c, 14, 67, 0
14, 13548, Note_on_c, 14, 65, 75
14, 13558, Note_off_c, 14, 65, 0
14, 13560, Note_on_c, 14, 67, 75
14, 13570, Note_off_c, 14, 67, 0
14, 13572, Note_on_c, 14, 65, 75
14, 13582, Note_off_c, 14, 65, 0
14, 13584, Note_on_c, 14, 69, 75
14, 13626, Note_off_c, 14, 69, 0
14, 13632, Note_on_c, 14, 69, 75
14, 13908, Note_off_c, 14, 69, 0
14, 14208, Tempo, 500000
14, 16512, Tempo, 500000
14, 30624, Tempo, 428571
14, 30624, Note_on_c, 14, 65, 75
14, 30804, Note_off_c, 14, 65, 0
14, 30816, Note_on_c, 14, 65, 75
14, 30900, Note_off_c, 14, 65, 0
14, 30912, Note_on_c, 14, 65, 75
14, 30922, Note_off_c, 14, 65, 0
14, 30924, Note_on_c, 14, 63, 75
14, 30934, Note_off_c, 14, 63, 0
14, 30936, Note_on_c, 14, 65, 75
14, 30946, Note_off_c, 14, 65, 0
14, 30948, Note_on_c, 14, 63, 75
14, 30958, Note_off_c, 14, 63, 0
14, 30960, Note_on_c, 14, 65, 75
14, 30970, Note_off_c, 14, 65, 0
14, 30972, Note_on_c, 14, 63, 75
14, 30982, Note_off_c, 14, 63, 0
14, 30984, Note_on_c, 14, 65, 75
14, 30994, Note_off_c, 14, 65, 0
14, 30996, Note_on_c, 14, 63, 75
14, 31006, Note_off_c, 14, 63, 0
14, 31008, Note_on_c, 14, 62, 75
14, 31050, Note_off_c, 14, 62, 0
14, 31056, Note_on_c, 14, 60, 75
14, 31098, Note_off_c, 14, 60, 0
14, 31104, Note_on_c, 14, 62, 75
14, 31188, Note_off_c, 14, 62, 0
14, 31200, Note_on_c, 14, 63, 75
14, 31284, Note_off_c, 14, 63, 0
14, 31296, Note_on_c, 14, 60, 75
14, 31380, Note_off_c, 14, 60, 0
14, 31392, Note_on_c, 14, 65, 75
14, 31476, Note_off_c, 14, 65, 0
14, 31488, Note_on_c, 14, 65, 75
14, 31668, Note_off_c, 14, 65, 0
14, 31680, Note_on_c, 14, 60, 75
14, 31764, Note_off_c, 14, 60, 0
14, 31776, Note_on_c, 14, 60, 75
14, 31956, Note_off_c, 14, 60, 0
14, 31968, Note_on_c, 14, 60, 75
14, 32052, Note_off_c, 14, 60, 0
14, 32064, Note_on_c, 14, 55, 75
14, 32148, Note_off_c, 14, 55, 0
14, 32160, Note_on_c, 14, 57, 75
14, 32244, Note_off_c, 14, 57, 0
14, 32256, Note_on_c, 14, 53, 75
14, 32340, Note_off_c, 14, 53, 0
14, 32352, Note_on_c, 14, 60, 75
14, 32532, Note_off_c, 14, 60, 0
14, 32544, Note_on_c, 14, 60, 75
14, 32628, Note_off_c, 14, 60, 0
14, 32640, Note_on_c, 14, 60, 75
14, 32820, Note_off_c, 14, 60, 0
14, 32832, Note_on_c, 14, 60, 75
14, 32916, Note_off_c, 14, 60, 0
14, 32928, Note_on_c, 14, 64, 75
14, 32938, Note_off_c, 14, 64, 0
14, 32940, Note_on_c, 14, 62, 75
14, 32950, Note_off_c, 14, 62, 0
14, 32952, Note_on_c, 14, 64, 75
14, 32962, Note_off_c, 14, 64, 0
14, 32964, Note_on_c, 14, 62, 75
14, 32974, Note_off_c, 14, 62, 0
14, 32976, Note_on_c, 14, 64, 75
14, 32986, Note_off_c, 14, 64, 0
14, 32988, Note_on_c, 14, 62, 75
14, 32998, Note_off_c, 14, 62, 0
14, 33000, Note_on_c, 14, 64, 75
14, 33010, Note_off_c, 14, 64, 0
14, 33012, Note_on_c, 14, 62, 75
14, 33022, Note_off_c, 14, 62, 0
14, 33024, Note_on_c, 14, 60, 75
14, 33066, Note_off_c, 14, 60, 0
14, 33072, Note_on_c, 14, 62, 75
14, 33114, Note_off_c, 14, 62, 0
14, 33120, Note_on_c, 14, 64, 75
14, 33204, Note_off_c, 14, 64, 0
14, 33216, Note_on_c, 14, 62, 75
14, 33396, Note_off_c, 14, 62, 0
14, 33408, Note_on_c, 14, 64, 75
14, 33492, Note_off_c, 14, 64, 0
14, 33504, Note_on_c, 14, 60, 75
14, 33588, Note_off_c, 14, 60, 0
14, 33600, Note_on_c, 14, 67, 75
14, 33684, Note_off_c, 14, 67, 0
14, 33696, Note_on_c, 14, 65, 75
14, 33780, Note_off_c, 14, 65, 0
14, 33792, Note_on_c, 14, 64, 75
14, 34068, Note_off_c, 14, 64, 0
14, 34080, Note_on_c, 14, 65, 75
14, 34260, Note_off_c, 14, 65, 0
14, 34272, Note_on_c, 14, 65, 75
14, 34356, Note_off_c, 14, 65, 0
14, 34368, Note_on_c, 14, 65, 75
14, 34378, Note_off_c, 14, 65, 0
14, 34380, Note_on_c, 14, 63, 75
14, 34390, Note_off_c, 14, 63, 0
14, 34392, Note_on_c, 14, 65, 75
14, 34402, Note_off_c, 14, 65, 0
14, 34404, Note_on_c, 14, 63, 75
14, 34414, Note_off_c, 14, 63, 0
14, 34416, Note_on_c, 14, 65, 75
14, 34426, Note_off_c, 14, 65, 0
14, 34428, Note_on_c, 14, 63, 75
14, 34438, Note_off_c, 14, 63, 0
14, 34440, Note_on_c, 14, 65, 75
14, 34450, Note_off_c, 14, 65, 0
14, 34452, Note_on_c, 14, 63, 75
14, 34462, Note_off_c, 14, 63, 0
14, 34464, Note_on_c, 14, 62, 75
14, 34506, Note_off_c, 14, 62, 0
14, 34512, Note_on_c, 14, 60, 75
14, 34554, Note_off_c, 14, 60, 0
14, 34560, Note_on_c, 14, 62, 75
14, 34644, Note_off_c, 14, 62, 0
14, 34656, Note_on_c, 14, 63, 75
14, 34740, Note_off_c, 14, 63, 0
14, 34752, Note_on_c, 14, 60, 75
14, 34836, Note_off_c, 14, 60, 0
14, 34848, Note_on_c, 14, 65, 75
14, 34932, Note_off_c, 14, 65, 0
14, 34944, Note_on_c, 14, 65, 75
14, 35124, Note_off_c, 14, 65, 0
14, 35136, Note_on_c, 14, 60, 75
14, 35220, Note_off_c, 14, 60, 0
14, 35232, Note_on_c, 14, 60, 75
14, 35412, Note_off_c, 14, 60, 0
14, 35424, Note_on_c, 14, 60, 75
14, 35508, Note_off_c, 14, 60, 0
14, 35520, Note_on_c, 14, 55, 75
14, 35604, Note_off_c, 14, 55, 0
14, 35616, Note_on_c, 14, 57, 75
14, 35700, Note_off_c, 14, 57, 0
14, 35712, Note_on_c, 14, 53, 75
14, 35796, Note_off_c, 14, 53, 0
14, 35808, Note_on_c, 14, 60, 75
14, 35988, Note_off_c, 14, 60, 0
14, 36000, Note_on_c, 14, 60, 75
14, 36084, Note_off_c, 14, 60, 0
14, 36096, Note_on_c, 14, 60, 75
14, 36276, Note_off_c, 14, 60, 0
14, 36288, Note_on_c, 14, 60, 75
14, 36372, Note_off_c, 14, 60, 0
14, 36384, Note_on_c, 14, 64, 75
14, 36394, Note_off_c, 14, 64, 0
14, 36396, Note_on_c, 14, 62, 75
14, 36406, Note_off_c, 14, 62, 0
14, 36408, Note_on_c, 14, 64, 75
14, 36418, Note_off_c, 14, 64, 0
14, 36420, Note_on_c, 14, 62, 75
14, 36430, Note_off_c, 14, 62, 0
14, 36432, Note_on_c, 14, 64, 75
14, 36442, Note_off_c, 14, 64, 0
14, 36444, Note_on_c, 14, 62, 75
14, 36454, Note_off_c, 14, 62, 0
14, 36456, Note_on_c, 14, 64, 75
14, 36466, Note_off_c, 14, 64, 0
14, 36468, Note_on_c, 14, 62, 75
14, 36478, Note_off_c, 14, 62, 0
14, 36480, Note_on_c, 14, 60, 75
14, 36522, Note_off_c, 14, 60, 0
14, 36528, Note_on_c, 14, 62, 75
14, 36570, Note_off_c, 14, 62, 0
14, 36576, Note_on_c, 14, 64, 75
14, 36660, Note_off_c, 14, 64, 0
14, 36672, Note_on_c, 14, 62, 75
14, 36852, Note_off_c, 14, 62, 0
14, 36864, Note_on_c, 14, 64, 75
14, 36948, Note_off_c, 14, 64, 0
14, 36960, Note_on_c, 14, 60, 75
14, 37044, Note_off_c, 14, 60, 0
14, 37056, Note_on_c, 14, 67, 75
14, 37140, Note_off_c, 14, 67, 0
14, 37152, Note_on_c, 14, 65, 75
14, 37236, Note_off_c, 14, 65, 0
14, 37248, Note_on_c, 14, 64, 75
14, 37524, Note_off_c, 14, 64, 0
14, 37536, Note_on_c, 14, 67, 75
14, 37716, Note_off_c, 14, 67, 0
14, 37728, Note_on_c, 14, 72, 75
14, 37812, Note_off_c, 14, 72, 0
14, 37824, Note_on_c, 14, 72, 75
14, 37834, Note_off_c, 14, 72, 0
14, 37836, Note_on_c, 14, 70, 75
14, 37846, Note_off_c, 14, 70, 0
14, 37848, Note_on_c, 14, 72, 75
14, 37858, Note_off_c, 14, 72, 0
14, 37860, Note_on_c, 14, 70, 75
14, 37870, Note_off_c, 14, 70, 0
14, 37872, Note_on_c, 14, 72, 75
14, 37882, Note_off_c, 14, 72, 0
14, 37884, Note_on_c, 14, 70, 75
14, 37894, Note_off_c, 14, 70, 0
14, 37896, Note_on_c, 14, 72, 75
14, 37906, Note_off_c, 14, 72, 0
14, 37908, Note_on_c, 14, 70, 75
14, 37918, Note_off_c, 14, 70, 0
14, 37920, Note_on_c, 14, 69, 75
14, 37962, Note_off_c, 14, 69, 0
14, 37968, Note_on_c, 14, 67, 75
14, 38010, Note_off_c, 14, 67, 0
14, 38016, Note_on_c, 14, 69, 75
14, 38100, Note_off_c, 14, 69, 0
14, 38112, Note_on_c, 14, 70, 75
14, 38196, Note_off_c, 14, 70, 0
14, 38208, Note_on_c, 14, 67, 75
14, 38292, Note_off_c, 14, 67, 0
14, 38304, Note_on_c, 14, 72, 75
14, 38388, Note_off_c, 14, 72, 0
14, 38400, Note_on_c, 14, 72, 75
14, 38580, Note_off_c, 14, 72, 0
14, 38592, Note_on_c, 14, 67, 75
14, 38676, Note_off_c, 14, 67, 0
14, 38688, Note_on_c, 14, 67, 75
14, 38868, Note_off_c, 14, 67, 0
14, 38880, Note_on_c, 14, 67, 75
14, 38964, Note_off_c, 14, 67, 0
14, 38976, Note_on_c, 14, 62, 75
14, 39060, Note_off_c, 14, 62, 0
14, 39072, Note_on_c, 14, 64, 75
14, 39156, Note_off_c, 14, 64, 0
14, 39168, Note_on_c, 14, 60, 75
14, 39252, Note_off_c, 14, 60, 0
14, 39264, Note_on_c, 14, 67, 75
14, 39444, Note_off_c, 14, 67, 0
14, 39456, Note_on_c, 14, 67, 75
14, 39540, Note_off_c, 14, 67, 0
14, 39552, Note_on_c, 14, 67, 75
14, 39828, Note_off_c, 14, 67, 0
14, 39840, Note_on_c, 14, 67, 75
14, 39882, Note_off_c, 14, 67, 0
14, 39888, Note_on_c, 14, 65, 75
14, 39930, Note_off_c, 14, 65, 0
14, 39936, Note_on_c, 14, 67, 75
14, 39946, Note_off_c, 14, 67, 0
14, 39948, Note_on_c, 14, 65, 75
14, 39958, Note_off_c, 14, 65, 0
14, 39960, Note_on_c, 14, 67, 75
14, 39970, Note_off_c, 14, 67, 0
14, 39972, Note_on_c, 14, 65, 75
14, 39982, Note_off_c, 14, 65, 0
14, 39984, Note_on_c, 14, 67, 75
14, 39994, Note_off_c, 14, 67, 0
14, 39996, Note_on_c, 14, 65, 75
14, 40006, Note_off_c, 14, 65, 0
14, 40008, Note_on_c, 14, 67, 75
14, 40018, Note_off_c, 14, 67, 0
14, 40020, Note_on_c, 14, 65, 75
14, 40030, Note_off_c, 14, 65, 0
14, 40032, Note_on_c, 14, 67, 75
14, 40042, Note_off_c, 14, 67, 0
14, 40044, Note_on_c, 14, 65, 75
14, 40054, Note_off_c, 14, 65, 0
14, 40056, Note_on_c, 14, 67, 75
14, 40066, Note_off_c, 14, 67, 0
14, 40068, Note_on_c, 14, 65, 75
14, 40078, Note_off_c, 14, 65, 0
14, 40080, Note_on_c, 14, 64, 75
14, 40101, Note_off_c, 14, 64, 0
14, 40104, Note_on_c, 14, 65, 75
14, 40125, Note_off_c, 14, 65, 0
14, 40128, Note_on_c, 14, 67, 75
14, 40212, Note_off_c, 14, 67, 0
14, 40224, Note_on_c, 14, 72, 75
14, 40308, Note_off_c, 14, 72, 0
14, 40320, Note_on_c, 14, 64, 75
14, 40404, Note_off_c, 14, 64, 0
14, 40416, Note_on_c, 14, 69, 75
14, 40458, Note_off_c, 14, 69, 0
14, 40464, Note_on_c, 14, 70, 75
14, 40506, Note_off_c, 14, 70, 0
14, 40512, Note_on_c, 14, 67, 75
14, 40522, Note_off_c, 14, 67, 0
14, 40524, Note_on_c, 14, 65, 75
14, 40534, Note_off_c, 14, 65, 0
14, 40536, Note_on_c, 14, 67, 75
14, 40546, Note_off_c, 14, 67, 0
14, 40548, Note_on_c, 14, 65, 75
14, 40558, Note_off_c, 14, 65, 0
14, 40560, Note_on_c, 14, 67, 75
14, 40570, Note_off_c, 14, 67, 0
14, 40572, Note_on_c, 14, 65, 75
14, 40582, Note_off_c, 14, 65, 0
14, 40584, Note_on_c, 14, 67, 75
14, 40594, Note_off_c, 14, 67, 0
14, 40596, Note_on_c, 14, 65, 75
14, 40606, Note_off_c, 14, 65, 0
14, 40608, Note_on_c, 14, 67, 75
14, 40618, Note_off_c, 14, 67, 0
14, 40620, Note_on_c, 14, 65, 75
14, 40630, Note_off_c, 14, 65, 0
14, 40632, Note_on_c, 14, 67, 75
14, 40642, Note_off_c, 14, 67, 0
14, 40644, Note_on_c, 14, 65, 75
14, 40654, Note_off_c, 14, 65, 0
14, 40656, Note_on_c, 14, 69, 75
14, 40698, Note_off_c, 14, 69, 0
14, 40704, Note_on_c, 14, 69, 75
14, 40980, Note_off_c, 14, 69, 0
14, 40992, Note_on_c, 14, 67, 75
14, 41172, Note_off_c, 14, 67, 0
14, 41184, Note_on_c, 14, 72, 75
14, 41268, Note_off_c, 14, 72, 0
14, 41280, Note_on_c, 14, 72, 75
14, 41290, Note_off_c, 14, 72, 0
14, 41292, Note_on_c, 14, 70, 75
14, 41302, Note_off_c, 14, 70, 0
14, 41304, Note_on_c, 14, 72, 75
14, 41314, Note_off_c, 14, 72, 0
14, 41316, Note_on_c, 14, 70, 75
14, 41326, Note_off_c, 14, 70, 0
14, 41328, Note_on_c, 14, 72, 75
14, 41338, Note_off_c, 14, 72, 0
14, 41340, Note_on_c, 14, 70, 75
14, 41350, Note_off_c, 14, 70, 0
14, 41352, Note_on_c, 14, 72, 75
14, 41362, Note_off_c, 14, 72, 0
14, 41364, Note_on_c, 14, 70, 75
14, 41374, Note_off_c, 14, 70, 0
14, 41376, Note_on_c, 14, 69, 75
14, 41418, Note_off_c, 14, 69, 0
14, 41424, Note_on_c, 14, 67, 75
14, 41466, Note_off_c, 14, 67, 0
14, 41472, Note_on_c, 14, 69, 75
14, 41556, Note_off_c, 14, 69, 0
14, 41568, Note_on_c, 14, 70, 75
14, 41652, Note_off_c, 14, 70, 0
14, 41664, Note_on_c, 14, 67, 75
14, 41748, Note_off_c, 14, 67, 0
14, 41760, Note_on_c, 14, 72, 75
14, 41844, Note_off_c, 14, 72, 0
14, 41856, Note_on_c, 14, 72, 75
14, 42036, Note_off_c, 14, 72, 0
14, 42048, Note_on_c, 14, 67, 75
14, 42132, Note_off_c, 14, 67, 0
14, 42144, Note_on_c, 14, 67, 75
14, 42324, Note_off_c, 14, 67, 0
14, 42336, Note_on_c, 14, 67, 75
14, 42420, Note_off_c, 14, 67, 0
14, 42432, Note_on_c, 14, 62, 75
14, 42516, Note_off_c, 14, 62, 0
14, 42528, Note_on_c, 14, 64, 75
14, 42612, Note_off_c, 14, 64, 0
14, 42624, Note_on_c, 14, 60, 75
14, 42708, Note_off_c, 14, 60, 0
14, 42720, Note_on_c, 14, 67, 75
14, 42900, Note_off_c, 14, 67, 0
14, 42912, Note_on_c, 14, 67, 75
14, 42996, Note_off_c, 14, 67, 0
14, 43008, Note_on_c, 14, 67, 75
14, 43284, Note_off_c, 14, 67, 0
14, 43296, Note_on_c, 14, 67, 75
14, 43338, Note_off_c, 14, 67, 0
14, 43344, Note_on_c, 14, 65, 75
14, 43386, Note_off_c, 14, 65, 0
14, 43392, Note_on_c, 14, 67, 75
14, 43402, Note_off_c, 14, 67, 0
14, 43404, Note_on_c, 14, 65, 75
14, 43414, Note_off_c, 14, 65, 0
14, 43416, Note_on_c, 14, 67, 75
14, 43426, Note_off_c, 14, 67, 0
14, 43428, Note_on_c, 14, 65, 75
14, 43438, Note_off_c, 14, 65, 0
14, 43440, Note_on_c, 14, 67, 75
14, 43450, Note_off_c, 14, 67, 0
14, 43452, Note_on_c, 14, 65, 75
14, 43462, Note_off_c, 14, 65, 0
14, 43464, Note_on_c, 14, 67, 75
14, 43474, Note_off_c, 14, 67, 0
14, 43476, Note_on_c, 14, 65, 75
14, 43486, Note_off_c, 14, 65, 0
14, 43488, Note_on_c, 14, 67, 75
14, 43498, Note_off_c, 14, 67, 0
14, 43500, Note_on_c, 14, 65, 75
14, 43510, Note_off_c, 14, 65, 0
14, 43512, Note_on_c, 14, 67, 75
14, 43522, Note_off_c, 14, 67, 0
14, 43524, Note_on_c, 14, 65, 75
14, 43534, Note_off_c, 14, 65, 0
14, 43536, Note_on_c, 14, 64, 75
14, 43557, Note_off_c, 14, 64, 0
14, 43560, Note_on_c, 14, 65, 75
14, 43581, Note_off_c, 14, 65, 0
14, 43584, Note_on_c, 14, 67, 75
14, 43668, Note_off_c, 14, 67, 0
14, 43680, Note_on_c, 14, 72, 75
14, 43764, Note_off_c, 14, 72, 0
14, 43776, Note_on_c, 14, 64, 75
14, 43860, Note_off_c, 14, 64, 0
14, 43872, Note_on_c, 14, 69, 75
14, 43914, Note_off_c, 14, 69, 0
14, 43920, Note_on_c, 14, 70, 75
14, 43962, Note_off_c, 14, 70, 0
14, 43968, Note_on_c, 14, 67, 75
14, 43978, Note_off_c, 14, 67, 0
14, 43980, Note_on_c, 14, 65, 75
14, 43990, Note_off_c, 14, 65, 0
14, 43992, Note_on_c, 14, 67, 75
14, 44002, Note_off_c, 14, 67, 0
14, 44004, Note_on_c, 14, 65, 75
14, 44014, Note_off_c, 14, 65, 0
14, 44016, Note_on_c, 14, 67, 75
14, 44026, Note_off_c, 14, 67, 0
14, 44028, Note_on_c, 14, 65, 75
14, 44038, Note_off_c, 14, 65, 0
14, 44040, Note_on_c, 14, 67, 75
14, 44050, Note_off_c, 14, 67, 0
14, 44052, Note_on_c, 14, 65, 75
14, 44062, Note_off_c, 14, 65, 0
14, 44064, Note_on_c, 14, 67, 75
14, 44074, Note_off_c, 14, 67, 0
14, 44076, Note_on_c, 14, 65, 75
14, 44086, Note_off_c, 14, 65, 0
14, 44088, Note_on_c, 14, 67, 75
14, 44098, Note_off_c, 14, 67, 0
14, 44100, Note_on_c, 14, 65, 75
14, 44110, Note_off_c, 14, 65, 0
14, 44112, Note_on_c, 14, 69, 75
14, 44154, Note_off_c, 14, 69, 0
14, 44160, Note_on_c, 14, 69, 75
14, 44436, Note_off_c, 14, 69, 0
14, 44736, Tempo, 1000000
14, 44832, Note_on_c, 14, 53, 75
14, 44874, Note_off_c, 14, 53, 0
14, 44880, Note_on_c, 14, 57, 75
14, 44922, Note_off_c, 14, 57, 0
14, 44928, Note_on_c, 14, 58, 75
14, 44970, Note_off_c, 14, 58, 0
14, 44976, Note_on_c, 14, 57, 75
14, 45018, Note_off_c, 14, 57, 0
14, 45024, Note_on_c, 14, 58, 75
14, 45066, Note_off_c, 14, 58, 0
14, 45072, Note_on_c, 14, 60, 75
14, 45114, Note_off_c, 14, 60, 0
14, 45120, Note_on_c, 14, 58, 75
14, 45162, Note_off_c, 14, 58, 0
14, 45168, Note_on_c, 14, 60, 75
14, 45210, Note_off_c, 14, 60, 0
14, 45216, Note_on_c, 14, 64, 75
14, 45258, Note_off_c, 14, 64, 0
14, 45264, Note_on_c, 14, 60, 75
14, 45306, Note_off_c, 14, 60, 0
14, 45312, Note_on_c, 14, 64, 75
14, 45354, Note_off_c, 14, 64, 0
14, 45360, Note_on_c, 14, 64, 75
14, 45402, Note_off_c, 14, 64, 0
14, 45408, Note_on_c, 14, 64, 75
14, 45450, Note_off_c, 14, 64, 0
14, 45456, Note_on_c, 14, 60, 75
14, 45498, Note_off_c, 14, 60, 0
14, 45504, Note_on_c, 14, 57, 75
14, 45546, Note_off_c, 14, 57, 0
14, 45552, Note_on_c, 14, 58, 75
14, 45594, Note_off_c, 14, 58, 0
14, 45600, Note_on_c, 14, 60, 75
14, 45642, Note_off_c, 14, 60, 0
14, 45648, Note_on_c, 14, 58, 75
14, 45690, Note_off_c, 14, 58, 0
14, 45696, Note_on_c, 14, 55, 75
14, 45738, Note_off_c, 14, 55, 0
14, 45744, Note_on_c, 14, 57, 75
14, 45786, Note_off_c, 14, 57, 0
14, 45792, Note_on_c, 14, 55, 75
14, 45834, Note_off_c, 14, 55, 0
14, 45840, Note_on_c, 14, 53, 75
14, 45882, Note_off_c, 14, 53, 0
14, 45888, Note_on_c, 14, 52, 75
14, 45930, Note_off_c, 14, 52, 0
14, 45936, Note_on_c, 14, 53, 75
14, 45978, Note_off_c, 14, 53, 0
14, 45984, Note_on_c, 14, 55, 75
14, 46026, Note_off_c, 14, 55, 0
14, 46032, Note_on_c, 14, 57, 75
14, 46074, Note_off_c, 14, 57, 0
14, 46080, Note_on_c, 14, 58, 75
14, 46122, Note_off_c, 14, 58, 0
14, 46128, Note_on_c, 14, 57, 75
14, 46170, Note_off_c, 14, 57, 0
14, 46176, Note_on_c, 14, 58, 75
14, 46218, Note_off_c, 14, 58, 0
14, 46224, Note_on_c, 14, 60, 75
14, 46266, Note_off_c, 14, 60, 0
14, 46272, Note_on_c, 14, 58, 75
14, 46314, Note_off_c, 14, 58, 0
14, 46320, Note_on_c, 14, 60, 75
14, 46362, Note_off_c, 14, 60, 0
14, 46368, Note_on_c, 14, 64, 75
14, 46410, Note_off_c, 14, 64, 0
14, 46416, Note_on_c, 14, 60, 75
14, 46458, Note_off_c, 14, 60, 0
14, 46464, Note_on_c, 14, 62, 75
14, 46506, Note_off_c, 14, 62, 0
14, 46512, Note_on_c, 14, 62, 75
14, 46554, Note_off_c, 14, 62, 0
14, 46560, Note_on_c, 14, 62, 75
14, 46602, Note_off_c, 14, 62, 0
14, 46608, Note_on_c, 14, 67, 75
14, 46650, Note_off_c, 14, 67, 0
14, 46656, Note_on_c, 14, 62, 75
14, 46698, Note_off_c, 14, 62, 0
14, 46704, Note_on_c, 14, 60, 75
14, 46746, Note_off_c, 14, 60, 0
14, 46752, Note_on_c, 14, 67, 75
14, 46794, Note_off_c, 14, 67, 0
14, 46800, Note_on_c, 14, 64, 75
14, 46842, Note_off_c, 14, 64, 0
14, 46848, Note_on_c, 14, 62, 75
14, 46890, Note_off_c, 14, 62, 0
14, 46896, Note_on_c, 14, 60, 75
14, 46938, Note_off_c, 14, 60, 0
14, 46944, Note_on_c, 14, 60, 75
14, 46986, Note_off_c, 14, 60, 0
14, 46992, Note_on_c, 14, 59, 75
14, 47034, Note_off_c, 14, 59, 0
14, 47040, Note_on_c, 14, 55, 75
14, 47082, Note_off_c, 14, 55, 0
14, 47088, Note_on_c, 14, 55, 75
14, 47119, Note_off_c, 14, 55, 0
14, 47136, Note_on_c, 14, 53, 75
14, 47178, Note_off_c, 14, 53, 0
14, 47184, Note_on_c, 14, 57, 75
14, 47226, Note_off_c, 14, 57, 0
14, 47232, Note_on_c, 14, 58, 75
14, 47274, Note_off_c, 14, 58, 0
14, 47280, Note_on_c, 14, 57, 75
14, 47322, Note_off_c, 14, 57, 0
14, 47328, Note_on_c, 14, 58, 75
14, 47370, Note_off_c, 14, 58, 0
14, 47376, Note_on_c, 14, 60, 75
14, 47418, Note_off_c, 14, 60, 0
14, 47424, Note_on_c, 14, 58, 75
14, 47466, Note_off_c, 14, 58, 0
14, 47472, Note_on_c, 14, 60, 75
14, 47514, Note_off_c, 14, 60, 0
14, 47520, Note_on_c, 14, 64, 75
14, 47562, Note_off_c, 14, 64, 0
14, 47568, Note_on_c, 14, 60, 75
14, 47610, Note_off_c, 14, 60, 0
14, 47616, Note_on_c, 14, 64, 75
14, 47658, Note_off_c, 14, 64, 0
14, 47664, Note_on_c, 14, 64, 75
14, 47706, Note_off_c, 14, 64, 0
14, 47712, Note_on_c, 14, 64, 75
14, 47754, Note_off_c, 14, 64, 0
14, 47760, Note_on_c, 14, 60, 75
14, 47802, Note_off_c, 14, 60, 0
14, 47808, Note_on_c, 14, 57, 75
14, 47850, Note_off_c, 14, 57, 0
14, 47856, Note_on_c, 14, 58, 75
14, 47898, Note_off_c, 14, 58, 0
14, 47904, Note_on_c, 14, 60, 75
14, 47946, Note_off_c, 14, 60, 0
14, 47952, Note_on_c, 14, 58, 75
14, 47994, Note_off_c, 14, 58, 0
14, 48000, Note_on_c, 14, 55, 75
14, 48042, Note_off_c, 14, 55, 0
14, 48048, Note_on_c, 14, 57, 75
14, 48090, Note_off_c, 14, 57, 0
14, 48096, Note_on_c, 14, 55, 75
14, 48138, Note_off_c, 14, 55, 0
14, 48144, Note_on_c, 14, 53, 75
14, 48186, Note_off_c, 14, 53, 0
14, 48192, Note_on_c, 14, 52, 75
14, 48234, Note_off_c, 14, 52, 0
14, 48240, Note_on_c, 14, 53, 75
14, 48282, Note_off_c, 14, 53, 0
14, 48288, Note_on_c, 14, 55, 75
14, 48330, Note_off_c, 14, 55, 0
14, 48336, Note_on_c, 14, 57, 75
14, 48378, Note_off_c, 14, 57, 0
14, 48384, Note_on_c, 14, 58, 75
14, 48426, Note_off_c, 14, 58, 0
14, 48432, Note_on_c, 14, 57, 75
14, 48474, Note_off_c, 14, 57, 0
14, 48480, Note_on_c, 14, 58, 75
14, 48522, Note_off_c, 14, 58, 0
14, 48528, Note_on_c, 14, 60, 75
14, 48570, Note_off_c, 14, 60, 0
14, 48576, Note_on_c, 14, 58, 75
14, 48618, Note_off_c, 14, 58, 0
14, 48624, Note_on_c, 14, 60, 75
14, 48666, Note_off_c, 14, 60, 0
14, 48672, Note_on_c, 14, 64, 75
14, 48714, Note_off_c, 14, 64, 0
14, 48720, Note_on_c, 14, 60, 75
14, 48762, Note_off_c, 14, 60, 0
14, 48768, Note_on_c, 14, 62, 75
14, 48810, Note_off_c, 14, 62, 0
14, 48816, Note_on_c, 14, 62, 75
14, 48858, Note_off_c, 14, 62, 0
14, 48864, Note_on_c, 14, 62, 75
14, 48906, Note_off_c, 14, 62, 0
14, 48912, Note_on_c, 14, 67, 75
14, 48954, Note_off_c, 14, 67, 0
14, 48960, Note_on_c, 14, 62, 75
14, 49002, Note_off_c, 14, 62, 0
14, 49008, Note_on_c, 14, 60, 75
14, 49050, Note_off_c, 14, 60, 0
14, 49056, Note_on_c, 14, 67, 75
14, 49098, Note_off_c, 14, 67, 0
14, 49104, Note_on_c, 14, 64, 75
14, 49146, Note_off_c, 14, 64, 0
14, 49152, Note_on_c, 14, 62, 75
14, 49194, Note_off_c, 14, 62, 0
14, 49200, Note_on_c, 14, 60, 75
14, 49242, Note_off_c, 14, 60, 0
14, 49248, Note_on_c, 14, 60, 75
14, 49290, Note_off_c, 14, 60, 0
14, 49296, Note_on_c, 14, 59, 75
14, 49338, Note_off_c, 14, 59, 0
14, 49344, Note_on_c, 14, 55, 75
14, 49386, Note_off_c, 14, 55, 0
14, 49392, Note_on_c, 14, 55, 75
14, 49423, Note_off_c, 14, 55, 0
14, 49440, Note_on_c, 14, 60, 75
14, 49482, Note_off_c, 14, 60, 0
14, 49488, Note_on_c, 14, 64, 75
14, 49530, Note_off_c, 14, 64, 0
14, 49536, Note_on_c, 14, 65, 75
14, 49578, Note_off_c, 14, 65, 0
14, 49584, Note_on_c, 14, 64, 75
14, 49626, Note_off_c, 14, 64, 0
14, 49632, Note_on_c, 14, 65, 75
14, 49674, Note_off_c, 14, 65, 0
14, 49680, Note_on_c, 14, 67, 75
14, 49722, Note_off_c, 14, 67, 0
14, 49728, Note_on_c, 14, 65, 75
14, 49770, Note_off_c, 14, 65, 0
14, 49776, Note_on_c, 14, 67, 75
14, 49818, Note_off_c, 14, 67, 0
14, 49824, Note_on_c, 14, 71, 75
14, 49866, Note_off_c, 14, 71, 0
14, 49872, Note_on_c, 14, 67, 75
14, 49914, Note_off_c, 14, 67, 0
14, 49920, Note_on_c, 14, 67, 75
14, 49962, Note_off_c, 14, 67, 0
14, 49968, Note_on_c, 14, 67, 75
14, 50010, Note_off_c, 14, 67, 0
14, 50016, Note_on_c, 14, 67, 75
14, 50058, Note_off_c, 14, 67, 0
14, 50064, Note_on_c, 14, 64, 75
14, 50106, Note_off_c, 14, 64, 0
14, 50112, Note_on_c, 14, 69, 75
14, 50154, Note_off_c, 14, 69, 0
14, 50160, Note_on_c, 14, 64, 75
14, 50202, Note_off_c, 14, 64, 0
14, 50208, Note_on_c, 14, 61, 75
14, 50250, Note_off_c, 14, 61, 0
14, 50256, Note_on_c, 14, 57, 75
14, 50298, Note_off_c, 14, 57, 0
14, 50304, Note_on_c, 14, 57, 75
14, 50346, Note_off_c, 14, 57, 0
14, 50352, Note_on_c, 14, 57, 75
14, 50394, Note_off_c, 14, 57, 0
14, 50400, Note_on_c, 14, 57, 75
14, 50442, Note_off_c, 14, 57, 0
14, 50448, Note_on_c, 14, 57, 75
14, 50490, Note_off_c, 14, 57, 0
14, 50496, Note_on_c, 14, 57, 75
14, 50538, Note_off_c, 14, 57, 0
14, 50544, Note_on_c, 14, 57, 75
14, 50586, Note_off_c, 14, 57, 0
14, 50592, Note_on_c, 14, 57, 75
14, 50634, Note_off_c, 14, 57, 0
14, 50640, Note_on_c, 14, 62, 127
14, 50659, Note_off_c, 14, 62, 0
14, 50688, Note_on_c, 14, 60, 127
14, 50707, Note_off_c, 14, 60, 0
14, 50736, Note_on_c, 14, 58, 127
14, 50755, Note_off_c, 14, 58, 0
14, 50784, Note_on_c, 14, 63, 127
14, 50803, Note_off_c, 14, 63, 0
14, 50832, Note_on_c, 14, 65, 127
14, 50851, Note_off_c, 14, 65, 0
14, 50880, Note_on_c, 14, 63, 127
14, 50899, Note_off_c, 14, 63, 0
14, 50928, Note_on_c, 14, 62, 127
14, 50947, Note_off_c, 14, 62, 0
14, 50976, Note_on_c, 14, 62, 127
14, 50995, Note_off_c, 14, 62, 0
14, 51024, Note_on_c, 14, 64, 127
14, 51043, Note_off_c, 14, 64, 0
14, 51072, Note_on_c, 14, 65, 127
14, 51091, Note_off_c, 14, 65, 0
14, 51120, Note_on_c, 14, 60, 127
14, 51139, Note_off_c, 14, 60, 0
14, 51168, Note_on_c, 14, 55, 127
14, 51187, Note_off_c, 14, 55, 0
14, 51216, Note_on_c, 14, 53, 75
14, 51237, Note_off_c, 14, 53, 0
14, 51240, Note_on_c, 14, 57, 75
14, 51261, Note_off_c, 14, 57, 0
14, 51264, Note_on_c, 14, 55, 75
14, 51285, Note_off_c, 14, 55, 0
14, 51288, Note_on_c, 14, 52, 75
14, 51309, Note_off_c, 14, 52, 0
14, 51312, Note_on_c, 14, 53, 75
14, 51333, Note_off_c, 14, 53, 0
14, 51336, Note_on_c, 14, 57, 75
14, 51357, Note_off_c, 14, 57, 0
14, 51360, Note_on_c, 14, 62, 75
14, 51381, Note_off_c, 14, 62, 0
14, 51384, Note_on_c, 14, 65, 75
14, 51405, Note_off_c, 14, 65, 0
14, 51408, Note_on_c, 14, 64, 75
14, 51429, Note_off_c, 14, 64, 0
14, 51432, Note_on_c, 14, 61, 75
14, 51453, Note_off_c, 14, 61, 0
14, 51456, Note_on_c, 14, 62, 75
14, 51477, Note_off_c, 14, 62, 0
14, 51480, Note_on_c, 14, 65, 75
14, 51501, Note_off_c, 14, 65, 0
14, 51504, Note_on_c, 14, 53, 75
14, 51546, Note_off_c, 14, 53, 0
14, 51552, Note_on_c, 14, 53, 75
14, 51594, Note_off_c, 14, 53, 0
14, 51600, Note_on_c, 14, 52, 75
14, 51642, Note_off_c, 14, 52, 0
14, 51648, Note_on_c, 14, 48, 75
14, 51690, Note_off_c, 14, 48, 0
14, 51696, Note_on_c, 14, 48, 75
14, 51727, Note_off_c, 14, 48, 0
14, 51744, Note_on_c, 14, 60, 75
14, 51786, Note_off_c, 14, 60, 0
14, 51792, Note_on_c, 14, 64, 75
14, 51834, Note_off_c, 14, 64, 0
14, 51840, Note_on_c, 14, 65, 75
14, 51882, Note_off_c, 14, 65, 0
14, 51888, Note_on_c, 14, 64, 75
14, 51930, Note_off_c, 14, 64, 0
14, 51936, Note_on_c, 14, 65, 75
14, 51978, Note_off_c, 14, 65, 0
14, 51984, Note_on_c, 14, 67, 75
14, 52026, Note_off_c, 14, 67, 0
14, 52032, Note_on_c, 14, 65, 75
14, 52074, Note_off_c, 14, 65, 0
14, 52080, Note_on_c, 14, 67, 75
14, 52122, Note_off_c, 14, 67, 0
14, 52128, Note_on_c, 14, 71, 75
14, 52170, Note_off_c, 14, 71, 0
14, 52176, Note_on_c, 14, 67, 75
14, 52218, Note_off_c, 14, 67, 0
14, 52224, Note_on_c, 14, 67, 75
14, 52266, Note_off_c, 14, 67, 0
14, 52272, Note_on_c, 14, 67, 75
14, 52314, Note_off_c, 14, 67, 0
14, 52320, Note_on_c, 14, 67, 75
14, 52362, Note_off_c, 14, 67, 0
14, 52368, Note_on_c, 14, 64, 75
14, 52410, Note_off_c, 14, 64, 0
14, 52416, Note_on_c, 14, 69, 75
14, 52458, Note_off_c, 14, 69, 0
14, 52464, Note_on_c, 14, 64, 75
14, 52506, Note_off_c, 14, 64, 0
14, 52512, Note_on_c, 14, 61, 75
14, 52554, Note_off_c, 14, 61, 0
14, 52560, Note_on_c, 14, 57, 75
14, 52602, Note_off_c, 14, 57, 0
14, 52608, Note_on_c, 14, 57, 75
14, 52650, Note_off_c, 14, 57, 0
14, 52656, Note_on_c, 14, 57, 75
14, 52698, Note_off_c, 14, 57, 0
14, 52704, Note_on_c, 14, 57, 75
14, 52746, Note_off_c, 14, 57, 0
14, 52752, Note_on_c, 14, 57, 75
14, 52794, Note_off_c, 14, 57, 0
14, 52800, Note_on_c, 14, 57, 75
14, 52842, Note_off_c, 14, 57, 0
14, 52848, Note_on_c, 14, 57, 75
14, 52890, Note_off_c, 14, 57, 0
14, 52896, Note_on_c, 14, 57, 75
14, 52938, Note_off_c, 14, 57, 0
14, 52944, Note_on_c, 14, 62, 127
14, 52963, Note_off_c, 14, 62, 0
14, 52992, Note_on_c, 14, 60, 127
14, 53011, Note_off_c, 14, 60, 0
14, 53040, Note_on_c, 14, 58, 127
14, 53059, Note_off_c, 14, 58, 0
14, 53088, Note_on_c, 14, 63, 127
14, 53107, Note_off_c, 14, 63, 0
14, 53136, Note_on_c, 14, 65, 127
14, 53155, Note_off_c, 14, 65, 0
14, 53184, Note_on_c, 14, 63, 127
14, 53203, Note_off_c, 14, 63, 0
14, 53232, Note_on_c, 14, 62, 127
14, 53251, Note_off_c, 14, 62, 0
14, 53280, Note_on_c, 14, 62, 127
14, 53299, Note_off_c, 14, 62, 0
14, 53328, Note_on_c, 14, 64, 127
14, 53347, Note_off_c, 14, 64, 0
14, 53376, Note_on_c, 14, 65, 127
14, 53395, Note_off_c, 14, 65, 0
14, 53424, Note_on_c, 14, 60, 127
14, 53443, Note_off_c, 14, 60, 0
14, 53472, Note_on_c, 14, 55, 127
14, 53491, Note_off_c, 14, 55, 0
14, 53520, Note_on_c, 14, 53, 75
14, 53541, Note_off_c, 14, 53, 0
14, 53544, Note_on_c, 14, 57, 75
14, 53565, Note_off_c, 14, 57, 0
14, 53568, Note_on_c, 14, 55, 75
14, 53589, Note_off_c, 14, 55, 0
14, 53592, Note_on_c, 14, 52, 75
14, 53613, Note_off_c, 14, 52, 0
14, 53616, Note_on_c, 14, 53, 75
14, 53637, Note_off_c, 14, 53, 0
14, 53640, Note_on_c, 14, 57, 75
14, 53661, Note_off_c, 14, 57, 0
14, 53664, Note_on_c, 14, 62, 75
14, 53685, Note_off_c, 14, 62, 0
14, 53688, Note_on_c, 14, 65, 75
14, 53709, Note_off_c, 14, 65, 0
14, 53712, Note_on_c, 14, 64, 75
14, 53733, Note_off_c, 14, 64, 0
14, 53736, Note_on_c, 14, 61, 75
14, 53757, Note_off_c, 14, 61, 0
14, 53760, Note_on_c, 14, 62, 75
14, 53781, Note_off_c, 14, 62, 0
14, 53784, Note_on_c, 14, 65, 75
14, 53805, Note_off_c, 14, 65, 0
14, 53808, Note_on_c, 14, 53, 75
14, 53850, Note_off_c, 14, 53, 0
14, 53856, Note_on_c, 14, 53, 75
14, 53898, Note_off_c, 14, 53, 0
14, 53904, Note_on_c, 14, 52, 75
14, 53946, Note_off_c, 14, 52, 0
14, 53952, Note_on_c, 14, 48, 75
14, 53971, Note_off_c, 14, 48, 0
14, 54000, Note_on_c, 14, 48, 75
14, 54084, Note_off_c, 14, 48, 0
14, 54084, End_track
0, 0, End_of_file
