0, 0, Header, 1, 10, 240
1, 0, Start_track
1, 0, Title_t, "untitled"
1, 0, SMPTE_offset, 96, 0, 3, 0, 0
1, 0, Time_signature, 6, 3, 12, 8
1, 0, Key_signature, 0, "major"
1, 0, Tempo, 1363636
1, 0, End_track
2, 0, Start_track
2, 0, MIDI_port, 0
2, 0, Title_t, "Flute Sonata in E Flat, BWV 1031"
2, 0, Program_c, 0, 73
2, 0, Control_c, 0, 7, 127
2, 0, Control_c, 0, 10, 64
2, 0, Note_on_c, 0, 74, 80
2, 180, Note_on_c, 0, 74, 0
2, 180, Note_on_c, 0, 75, 80
2, 240, Note_on_c, 0, 75, 0
2, 240, Note_on_c, 0, 74, 80
2, 360, Note_on_c, 0, 74, 0
2, 360, Note_on_c, 0, 74, 80
2, 480, Note_on_c, 0, 74, 0
2, 480, Note_on_c, 0, 79, 80
2, 600, Note_on_c, 0, 79, 0
2, 600, Note_on_c, 0, 75, 80
2, 720, Note_on_c, 0, 75, 0
2, 720, Note_on_c, 0, 72, 80
2, 1440, Note_on_c, 0, 72, 0
2, 1440, Note_on_c, 0, 72, 80
2, 1620, Note_on_c, 0, 72, 0
2, 1620, Note_on_c, 0, 74, 80
2, 1680, Note_on_c, 0, 74, 0
2, 1680, Note_on_c, 0, 72, 80
2, 1800, Note_on_c, 0, 72, 0
2, 1800, Note_on_c, 0, 72, 80
2, 1920, Note_on_c, 0, 72, 0
2, 1920, Note_on_c, 0, 81, 80
2, 2040, Note_on_c, 0, 81, 0
2, 2040, Note_on_c, 0, 72, 80
2, 2130, Note_on_c, 0, 72, 0
2, 2130, Note_on_c, 0, 72, 80
2, 2160, Note_on_c, 0, 72, 0
2, 2160, Note_on_c, 0, 70, 80
2, 2340, Note_on_c, 0, 70, 0
2, 2340, Note_on_c, 0, 69, 80
2, 2400, Note_on_c, 0, 69, 0
2, 2400, Note_on_c, 0, 67, 80
2, 2520, Note_on_c, 0, 67, 0
2, 2880, Note_on_c, 0, 70, 80
2, 3000, Note_on_c, 0, 70, 0
2, 3000, Note_on_c, 0, 74, 80
2, 3120, Note_on_c, 0, 74, 0
2, 3120, Note_on_c, 0, 75, 80
2, 3360, Note_on_c, 0, 75, 0
2, 3360, Note_on_c, 0, 84, 80
2, 3480, Note_on_c, 0, 84, 0
2, 3480, Note_on_c, 0, 75, 80
2, 3600, Note_on_c, 0, 75, 0
2, 3600, Note_on_c, 0, 75, 80
2, 3720, Note_on_c, 0, 75, 0
2, 3720, Note_on_c, 0, 74, 80
2, 3840, Note_on_c, 0, 74, 0
2, 3960, Note_on_c, 0, 77, 80
2, 4080, Note_on_c, 0, 77, 0
2, 4080, Note_on_c, 0, 82, 80
2, 4200, Note_on_c, 0, 82, 0
2, 4200, Note_on_c, 0, 77, 80
2, 4440, Note_on_c, 0, 77, 0
2, 4440, Note_on_c, 0, 79, 80
2, 4560, Note_on_c, 0, 79, 0
2, 4560, Note_on_c, 0, 77, 80
2, 4800, Note_on_c, 0, 77, 0
2, 4800, Note_on_c, 0, 75, 80
2, 4920, Note_on_c, 0, 75, 0
2, 4920, Note_on_c, 0, 74, 80
2, 5040, Note_on_c, 0, 74, 0
2, 5040, Note_on_c, 0, 72, 80
2, 5100, Note_on_c, 0, 72, 0
2, 5100, Note_on_c, 0, 77, 80
2, 5160, Note_on_c, 0, 77, 0
2, 5160, Note_on_c, 0, 81, 80
2, 5220, Note_on_c, 0, 81, 0
2, 5220, Note_on_c, 0, 84, 80
2, 5280, Note_on_c, 0, 84, 0
2, 5280, Note_on_c, 0, 82, 80
2, 5340, Note_on_c, 0, 82, 0
2, 5340, Note_on_c, 0, 86, 80
2, 5400, Note_on_c, 0, 86, 0
2, 5400, Note_on_c, 0, 84, 80
2, 5460, Note_on_c, 0, 84, 0
2, 5460, Note_on_c, 0, 82, 80
2, 5520, Note_on_c, 0, 82, 0
2, 5520, Note_on_c, 0, 81, 80
2, 5580, Note_on_c, 0, 81, 0
2, 5580, Note_on_c, 0, 79, 80
2, 5640, Note_on_c, 0, 79, 0
2, 5640, Note_on_c, 0, 77, 80
2, 5700, Note_on_c, 0, 77, 0
2, 5700, Note_on_c, 0, 75, 80
2, 5760, Note_on_c, 0, 75, 0
2, 5760, Note_on_c, 0, 74, 80
2, 5880, Note_on_c, 0, 74, 0
2, 6480, Note_on_c, 0, 77, 80
2, 6660, Note_on_c, 0, 77, 0
2, 6660, Note_on_c, 0, 79, 80
2, 6720, Note_on_c, 0, 79, 0
2, 6720, Note_on_c, 0, 77, 80
2, 6840, Note_on_c, 0, 77, 0
2, 6840, Note_on_c, 0, 77, 80
2, 6960, Note_on_c, 0, 77, 0
2, 6960, Note_on_c, 0, 82, 80
2, 7080, Note_on_c, 0, 82, 0
2, 7080, Note_on_c, 0, 79, 80
2, 7200, Note_on_c, 0, 79, 0
2, 7200, Note_on_c, 0, 75, 80
2, 7920, Note_on_c, 0, 75, 0
2, 7920, Note_on_c, 0, 75, 80
2, 8100, Note_on_c, 0, 75, 0
2, 8100, Note_on_c, 0, 77, 80
2, 8160, Note_on_c, 0, 77, 0
2, 8160, Note_on_c, 0, 75, 80
2, 8280, Note_on_c, 0, 75, 0
2, 8280, Note_on_c, 0, 75, 80
2, 8400, Note_on_c, 0, 75, 0
2, 8400, Note_on_c, 0, 84, 80
2, 8520, Note_on_c, 0, 84, 0
2, 8520, Note_on_c, 0, 75, 80
2, 8640, Note_on_c, 0, 75, 0
2, 8640, Note_on_c, 0, 74, 80
2, 8700, Note_on_c, 0, 74, 0
2, 8700, Note_on_c, 0, 65, 80
2, 8760, Note_on_c, 0, 65, 0
2, 8760, Note_on_c, 0, 67, 80
2, 8820, Note_on_c, 0, 67, 0
2, 8820, Note_on_c, 0, 69, 80
2, 8880, Note_on_c, 0, 69, 0
2, 8880, Note_on_c, 0, 70, 80
2, 8940, Note_on_c, 0, 70, 0
2, 8940, Note_on_c, 0, 72, 80
2, 9000, Note_on_c, 0, 72, 0
2, 9000, Note_on_c, 0, 74, 80
2, 9060, Note_on_c, 0, 74, 0
2, 9060, Note_on_c, 0, 77, 80
2, 9120, Note_on_c, 0, 77, 0
2, 9120, Note_on_c, 0, 82, 80
2, 9240, Note_on_c, 0, 82, 0
2, 9240, Note_on_c, 0, 74, 80
2, 9360, Note_on_c, 0, 74, 0
2, 9360, Note_on_c, 0, 74, 80
2, 9480, Note_on_c, 0, 74, 0
2, 9480, Note_on_c, 0, 72, 80
2, 9840, Note_on_c, 0, 72, 0
2, 9840, Note_on_c, 0, 81, 80
2, 9960, Note_on_c, 0, 81, 0
2, 9960, Note_on_c, 0, 72, 80
2, 10140, Note_on_c, 0, 72, 0
2, 10140, Note_on_c, 0, 69, 80
2, 10200, Note_on_c, 0, 69, 0
2, 10200, Note_on_c, 0, 70, 80
2, 10260, Note_on_c, 0, 70, 0
2, 10260, Note_on_c, 0, 74, 80
2, 10320, Note_on_c, 0, 74, 0
2, 10320, Note_on_c, 0, 79, 80
2, 10380, Note_on_c, 0, 79, 0
2, 10380, Note_on_c, 0, 81, 80
2, 10440, Note_on_c, 0, 81, 0
2, 10440, Note_on_c, 0, 82, 80
2, 10620, Note_on_c, 0, 82, 0
2, 10620, Note_on_c, 0, 81, 80
2, 10680, Note_on_c, 0, 81, 0
2, 10680, Note_on_c, 0, 79, 80
2, 10800, Note_on_c, 0, 79, 0
2, 10800, Note_on_c, 0, 81, 80
2, 10980, Note_on_c, 0, 81, 0
2, 10980, Note_on_c, 0, 79, 80
2, 11040, Note_on_c, 0, 79, 0
2, 11040, Note_on_c, 0, 77, 80
2, 11220, Note_on_c, 0, 77, 0
2, 11220, Note_on_c, 0, 76, 80
2, 11280, Note_on_c, 0, 76, 0
2, 11280, Note_on_c, 0, 79, 80
2, 11340, Note_on_c, 0, 79, 0
2, 11340, Note_on_c, 0, 77, 80
2, 11400, Note_on_c, 0, 77, 0
2, 11400, Note_on_c, 0, 76, 80
2, 11460, Note_on_c, 0, 76, 0
2, 11460, Note_on_c, 0, 74, 80
2, 11520, Note_on_c, 0, 74, 0
2, 11520, Note_on_c, 0, 73, 80
2, 11760, Note_on_c, 0, 73, 0
2, 11760, Note_on_c, 0, 74, 80
2, 11880, Note_on_c, 0, 74, 0
2, 11880, Note_on_c, 0, 76, 80
2, 11940, Note_on_c, 0, 76, 0
2, 11940, Note_on_c, 0, 80, 80
2, 12000, Note_on_c, 0, 80, 0
2, 12000, Note_on_c, 0, 81, 80
2, 12060, Note_on_c, 0, 81, 0
2, 12060, Note_on_c, 0, 76, 80
2, 12120, Note_on_c, 0, 76, 0
2, 12120, Note_on_c, 0, 77, 80
2, 12180, Note_on_c, 0, 77, 0
2, 12180, Note_on_c, 0, 74, 80
2, 12240, Note_on_c, 0, 74, 0
2, 12240, Note_on_c, 0, 73, 80
2, 12480, Note_on_c, 0, 73, 0
2, 12480, Note_on_c, 0, 74, 80
2, 12600, Note_on_c, 0, 74, 0
2, 12600, Note_on_c, 0, 76, 80
2, 12660, Note_on_c, 0, 76, 0
2, 12660, Note_on_c, 0, 80, 80
2, 12720, Note_on_c, 0, 80, 0
2, 12720, Note_on_c, 0, 81, 80
2, 12780, Note_on_c, 0, 81, 0
2, 12780, Note_on_c, 0, 76, 80
2, 12840, Note_on_c, 0, 76, 0
2, 12840, Note_on_c, 0, 77, 80
2, 12900, Note_on_c, 0, 77, 0
2, 12900, Note_on_c, 0, 74, 80
2, 12960, Note_on_c, 0, 74, 0
2, 12960, Note_on_c, 0, 73, 80
2, 13020, Note_on_c, 0, 73, 0
2, 13020, Note_on_c, 0, 74, 80
2, 13080, Note_on_c, 0, 74, 0
2, 13080, Note_on_c, 0, 76, 80
2, 13200, Note_on_c, 0, 76, 0
2, 13200, Note_on_c, 0, 69, 80
2, 13320, Note_on_c, 0, 69, 0
2, 13320, Note_on_c, 0, 70, 80
2, 13380, Note_on_c, 0, 70, 0
2, 13380, Note_on_c, 0, 74, 80
2, 13440, Note_on_c, 0, 74, 0
2, 13440, Note_on_c, 0, 73, 80
2, 13500, Note_on_c, 0, 73, 0
2, 13500, Note_on_c, 0, 74, 80
2, 13560, Note_on_c, 0, 74, 0
2, 13560, Note_on_c, 0, 76, 80
2, 13620, Note_on_c, 0, 76, 0
2, 13620, Note_on_c, 0, 74, 80
2, 13680, Note_on_c, 0, 74, 0
2, 13680, Note_on_c, 0, 69, 80
2, 13740, Note_on_c, 0, 69, 0
2, 13740, Note_on_c, 0, 74, 80
2, 13800, Note_on_c, 0, 74, 0
2, 13800, Note_on_c, 0, 73, 80
2, 13860, Note_on_c, 0, 73, 0
2, 13860, Note_on_c, 0, 74, 80
2, 13920, Note_on_c, 0, 74, 0
2, 13920, Note_on_c, 0, 76, 80
2, 13980, Note_on_c, 0, 76, 0
2, 13980, Note_on_c, 0, 74, 80
2, 14040, Note_on_c, 0, 74, 0
2, 14040, Note_on_c, 0, 67, 80
2, 14100, Note_on_c, 0, 67, 0
2, 14100, Note_on_c, 0, 70, 80
2, 14160, Note_on_c, 0, 70, 0
2, 14160, Note_on_c, 0, 69, 80
2, 14220, Note_on_c, 0, 69, 0
2, 14220, Note_on_c, 0, 67, 80
2, 14280, Note_on_c, 0, 67, 0
2, 14280, Note_on_c, 0, 65, 80
2, 14340, Note_on_c, 0, 65, 0
2, 14340, Note_on_c, 0, 64, 80
2, 14400, Note_on_c, 0, 64, 0
2, 14400, Note_on_c, 0, 65, 80
2, 14520, Note_on_c, 0, 65, 0
2, 14520, Note_on_c, 0, 62, 80
2, 14640, Note_on_c, 0, 62, 0
2, 15840, Note_on_c, 0, 74, 80
2, 16020, Note_on_c, 0, 74, 0
2, 16020, Note_on_c, 0, 75, 80
2, 16080, Note_on_c, 0, 75, 0
2, 16080, Note_on_c, 0, 74, 80
2, 16200, Note_on_c, 0, 74, 0
2, 16200, Note_on_c, 0, 74, 80
2, 16320, Note_on_c, 0, 74, 0
2, 16320, Note_on_c, 0, 79, 80
2, 16440, Note_on_c, 0, 79, 0
2, 16440, Note_on_c, 0, 75, 80
2, 16560, Note_on_c, 0, 75, 0
2, 16560, Note_on_c, 0, 72, 80
2, 17280, Note_on_c, 0, 72, 0
2, 17280, Note_on_c, 0, 72, 80
2, 17460, Note_on_c, 0, 72, 0
2, 17460, Note_on_c, 0, 74, 80
2, 17520, Note_on_c, 0, 74, 0
2, 17520, Note_on_c, 0, 72, 80
2, 17640, Note_on_c, 0, 72, 0
2, 17640, Note_on_c, 0, 72, 80
2, 17760, Note_on_c, 0, 72, 0
2, 17760, Note_on_c, 0, 81, 80
2, 17880, Note_on_c, 0, 81, 0
2, 17880, Note_on_c, 0, 72, 80
2, 18000, Note_on_c, 0, 72, 0
2, 18000, Note_on_c, 0, 70, 80
2, 18060, Note_on_c, 0, 70, 0
2, 18060, Note_on_c, 0, 67, 80
2, 18120, Note_on_c, 0, 67, 0
2, 18120, Note_on_c, 0, 69, 80
2, 18180, Note_on_c, 0, 69, 0
2, 18180, Note_on_c, 0, 70, 80
2, 18240, Note_on_c, 0, 70, 0
2, 18240, Note_on_c, 0, 72, 80
2, 18300, Note_on_c, 0, 72, 0
2, 18300, Note_on_c, 0, 74, 80
2, 18360, Note_on_c, 0, 74, 0
2, 18360, Note_on_c, 0, 75, 80
2, 18420, Note_on_c, 0, 75, 0
2, 18420, Note_on_c, 0, 77, 80
2, 18480, Note_on_c, 0, 77, 0
2, 18480, Note_on_c, 0, 75, 80
2, 18540, Note_on_c, 0, 75, 0
2, 18540, Note_on_c, 0, 74, 80
2, 18600, Note_on_c, 0, 74, 0
2, 18600, Note_on_c, 0, 72, 80
2, 18660, Note_on_c, 0, 72, 0
2, 18660, Note_on_c, 0, 70, 80
2, 18720, Note_on_c, 0, 70, 0
2, 18720, Note_on_c, 0, 69, 80
2, 18780, Note_on_c, 0, 69, 0
2, 18780, Note_on_c, 0, 73, 80
2, 18840, Note_on_c, 0, 73, 0
2, 18840, Note_on_c, 0, 74, 80
2, 18900, Note_on_c, 0, 74, 0
2, 18900, Note_on_c, 0, 69, 80
2, 18960, Note_on_c, 0, 69, 0
2, 18960, Note_on_c, 0, 70, 80
2, 19020, Note_on_c, 0, 70, 0
2, 19020, Note_on_c, 0, 67, 80
2, 19080, Note_on_c, 0, 67, 0
2, 19080, Note_on_c, 0, 66, 80
2, 19320, Note_on_c, 0, 66, 0
2, 19320, Note_on_c, 0, 67, 80
2, 19440, Note_on_c, 0, 67, 0
2, 19440, Note_on_c, 0, 69, 80
2, 19500, Note_on_c, 0, 69, 0
2, 19500, Note_on_c, 0, 73, 80
2, 19560, Note_on_c, 0, 73, 0
2, 19560, Note_on_c, 0, 74, 80
2, 19620, Note_on_c, 0, 74, 0
2, 19620, Note_on_c, 0, 69, 80
2, 19680, Note_on_c, 0, 69, 0
2, 19680, Note_on_c, 0, 70, 80
2, 19740, Note_on_c, 0, 70, 0
2, 19740, Note_on_c, 0, 67, 80
2, 19800, Note_on_c, 0, 67, 0
2, 19800, Note_on_c, 0, 66, 80
2, 20040, Note_on_c, 0, 66, 0
2, 20040, Note_on_c, 0, 67, 80
2, 20160, Note_on_c, 0, 67, 0
2, 20160, Note_on_c, 0, 69, 80
2, 20220, Note_on_c, 0, 69, 0
2, 20220, Note_on_c, 0, 67, 80
2, 20280, Note_on_c, 0, 67, 0
2, 20280, Note_on_c, 0, 69, 80
2, 20340, Note_on_c, 0, 69, 0
2, 20340, Note_on_c, 0, 70, 80
2, 20400, Note_on_c, 0, 70, 0
2, 20400, Note_on_c, 0, 72, 80
2, 20460, Note_on_c, 0, 72, 0
2, 20460, Note_on_c, 0, 74, 80
2, 20520, Note_on_c, 0, 74, 0
2, 20520, Note_on_c, 0, 75, 80
2, 20640, Note_on_c, 0, 75, 0
2, 20640, Note_on_c, 0, 74, 80
2, 20760, Note_on_c, 0, 74, 0
2, 20760, Note_on_c, 0, 72, 80
2, 20880, Note_on_c, 0, 72, 0
2, 20880, Note_on_c, 0, 70, 80
2, 20940, Note_on_c, 0, 70, 0
2, 20940, Note_on_c, 0, 74, 80
2, 21000, Note_on_c, 0, 74, 0
2, 21000, Note_on_c, 0, 72, 80
2, 21060, Note_on_c, 0, 72, 0
2, 21060, Note_on_c, 0, 70, 80
2, 21120, Note_on_c, 0, 70, 0
2, 21120, Note_on_c, 0, 69, 80
2, 21180, Note_on_c, 0, 69, 0
2, 21180, Note_on_c, 0, 67, 80
2, 21240, Note_on_c, 0, 67, 0
2, 21240, Note_on_c, 0, 75, 80
2, 21330, Note_on_c, 0, 75, 0
2, 21330, Note_on_c, 0, 72, 80
2, 21360, Note_on_c, 0, 72, 0
2, 21360, Note_on_c, 0, 70, 80
2, 21420, Note_on_c, 0, 70, 0
2, 21420, Note_on_c, 0, 69, 80
2, 21435, Note_on_c, 0, 69, 0
2, 21435, Note_on_c, 0, 70, 80
2, 21450, Note_on_c, 0, 70, 0
2, 21450, Note_on_c, 0, 69, 80
2, 21465, Note_on_c, 0, 69, 0
2, 21465, Note_on_c, 0, 70, 80
2, 21480, Note_on_c, 0, 70, 0
2, 21480, Note_on_c, 0, 69, 80
2, 21540, Note_on_c, 0, 69, 0
2, 21540, Note_on_c, 0, 67, 80
2, 21600, Note_on_c, 0, 67, 0
2, 21600, Note_on_c, 0, 67, 80
2, 21720, Note_on_c, 0, 67, 0
2, 21720, Note_on_c, 0, 74, 80
2, 21840, Note_on_c, 0, 74, 0
2, 21840, Note_on_c, 0, 70, 80
2, 21960, Note_on_c, 0, 70, 0
2, 21960, Note_on_c, 0, 67, 80
2, 22080, Note_on_c, 0, 67, 0
2, 22080, Note_on_c, 0, 79, 80
2, 22200, Note_on_c, 0, 79, 0
2, 22200, Note_on_c, 0, 70, 80
2, 22320, Note_on_c, 0, 70, 0
2, 22380, Note_on_c, 0, 70, 80
2, 22440, Note_on_c, 0, 70, 0
2, 22440, Note_on_c, 0, 69, 80
2, 22500, Note_on_c, 0, 69, 0
2, 22500, Note_on_c, 0, 70, 80
2, 22560, Note_on_c, 0, 70, 0
2, 22560, Note_on_c, 0, 79, 80
2, 22620, Note_on_c, 0, 79, 0
2, 22620, Note_on_c, 0, 70, 80
2, 22680, Note_on_c, 0, 70, 0
2, 22680, Note_on_c, 0, 70, 80
2, 22770, Note_on_c, 0, 70, 0
2, 22770, Note_on_c, 0, 72, 80
2, 22800, Note_on_c, 0, 72, 0
2, 22800, Note_on_c, 0, 70, 80
2, 22860, Note_on_c, 0, 70, 0
2, 22860, Note_on_c, 0, 69, 80
2, 22875, Note_on_c, 0, 69, 0
2, 22875, Note_on_c, 0, 70, 80
2, 22890, Note_on_c, 0, 70, 0
2, 22890, Note_on_c, 0, 69, 80
2, 22905, Note_on_c, 0, 69, 0
2, 22905, Note_on_c, 0, 70, 80
2, 22920, Note_on_c, 0, 70, 0
2, 22920, Note_on_c, 0, 69, 80
2, 22980, Note_on_c, 0, 69, 0
2, 22980, Note_on_c, 0, 67, 80
2, 23040, Note_on_c, 0, 67, 0
2, 23040, Note_on_c, 0, 67, 80
2, 23760, Note_on_c, 0, 67, 0
2, 23760, End_track
3, 0, Start_track
3, 0, MIDI_port, 0
3, 0, Title_t, "by JS Bach  2nd movement - Siciliano"
3, 0, Program_c, 1, 6
3, 0, Control_c, 1, 7, 100
3, 0, Control_c, 1, 10, 72
3, 0, Note_on_c, 1, 58, 80
3, 60, Note_on_c, 1, 58, 0
3, 60, Note_on_c, 1, 67, 80
3, 120, Note_on_c, 1, 67, 0
3, 120, Note_on_c, 1, 70, 80
3, 180, Note_on_c, 1, 70, 0
3, 180, Note_on_c, 1, 67, 80
3, 240, Note_on_c, 1, 67, 0
3, 240, Note_on_c, 1, 66, 80
3, 300, Note_on_c, 1, 66, 0
3, 300, Note_on_c, 1, 67, 80
3, 360, Note_on_c, 1, 67, 0
3, 360, Note_on_c, 1, 58, 80
3, 420, Note_on_c, 1, 58, 0
3, 420, Note_on_c, 1, 67, 80
3, 480, Note_on_c, 1, 67, 0
3, 480, Note_on_c, 1, 70, 80
3, 540, Note_on_c, 1, 70, 0
3, 540, Note_on_c, 1, 67, 80
3, 600, Note_on_c, 1, 67, 0
3, 600, Note_on_c, 1, 66, 80
3, 660, Note_on_c, 1, 66, 0
3, 660, Note_on_c, 1, 67, 80
3, 720, Note_on_c, 1, 67, 0
3, 720, Note_on_c, 1, 57, 80
3, 780, Note_on_c, 1, 57, 0
3, 780, Note_on_c, 1, 60, 80
3, 840, Note_on_c, 1, 60, 0
3, 840, Note_on_c, 1, 63, 80
3, 900, Note_on_c, 1, 63, 0
3, 900, Note_on_c, 1, 60, 80
3, 960, Note_on_c, 1, 60, 0
3, 960, Note_on_c, 1, 57, 80
3, 1020, Note_on_c, 1, 57, 0
3, 1020, Note_on_c, 1, 60, 80
3, 1080, Note_on_c, 1, 60, 0
3, 1080, Note_on_c, 1, 57, 80
3, 1140, Note_on_c, 1, 57, 0
3, 1140, Note_on_c, 1, 60, 80
3, 1200, Note_on_c, 1, 60, 0
3, 1200, Note_on_c, 1, 63, 80
3, 1260, Note_on_c, 1, 63, 0
3, 1260, Note_on_c, 1, 60, 80
3, 1320, Note_on_c, 1, 60, 0
3, 1320, Note_on_c, 1, 57, 80
3, 1380, Note_on_c, 1, 57, 0
3, 1380, Note_on_c, 1, 60, 80
3, 1440, Note_on_c, 1, 60, 0
3, 1440, Note_on_c, 1, 57, 80
3, 1500, Note_on_c, 1, 57, 0
3, 1500, Note_on_c, 1, 62, 80
3, 1560, Note_on_c, 1, 62, 0
3, 1560, Note_on_c, 1, 69, 80
3, 1620, Note_on_c, 1, 69, 0
3, 1620, Note_on_c, 1, 66, 80
3, 1680, Note_on_c, 1, 66, 0
3, 1680, Note_on_c, 1, 64, 80
3, 1740, Note_on_c, 1, 64, 0
3, 1740, Note_on_c, 1, 66, 80
3, 1800, Note_on_c, 1, 66, 0
3, 1800, Note_on_c, 1, 62, 80
3, 1860, Note_on_c, 1, 62, 0
3, 1860, Note_on_c, 1, 69, 80
3, 1920, Note_on_c, 1, 69, 0
3, 1920, Note_on_c, 1, 72, 80
3, 1980, Note_on_c, 1, 72, 0
3, 1980, Note_on_c, 1, 69, 80
3, 2040, Note_on_c, 1, 69, 0
3, 2040, Note_on_c, 1, 62, 80
3, 2100, Note_on_c, 1, 62, 0
3, 2100, Note_on_c, 1, 69, 80
3, 2160, Note_on_c, 1, 69, 0
3, 2220, Note_on_c, 1, 69, 80
3, 2280, Note_on_c, 1, 69, 0
3, 2280, Note_on_c, 1, 67, 80
3, 2340, Note_on_c, 1, 67, 0
3, 2340, Note_on_c, 1, 66, 80
3, 2400, Note_on_c, 1, 66, 0
3, 2400, Note_on_c, 1, 67, 80
3, 2460, Note_on_c, 1, 67, 0
3, 2460, Note_on_c, 1, 62, 80
3, 2520, Note_on_c, 1, 62, 0
3, 2520, Note_on_c, 1, 58, 80
3, 2580, Note_on_c, 1, 58, 0
3, 2580, Note_on_c, 1, 63, 80
3, 2640, Note_on_c, 1, 63, 0
3, 2640, Note_on_c, 1, 62, 80
3, 2700, Note_on_c, 1, 62, 0
3, 2700, Note_on_c, 1, 60, 80
3, 2760, Note_on_c, 1, 60, 0
3, 2760, Note_on_c, 1, 62, 80
3, 2820, Note_on_c, 1, 62, 0
3, 2820, Note_on_c, 1, 58, 80
3, 2880, Note_on_c, 1, 58, 0
3, 2880, Note_on_c, 1, 55, 80
3, 2940, Note_on_c, 1, 55, 0
3, 2940, Note_on_c, 1, 67, 80
3, 3000, Note_on_c, 1, 67, 0
3, 3000, Note_on_c, 1, 70, 80
3, 3060, Note_on_c, 1, 70, 0
3, 3060, Note_on_c, 1, 67, 80
3, 3120, Note_on_c, 1, 67, 0
3, 3120, Note_on_c, 1, 66, 80
3, 3180, Note_on_c, 1, 66, 0
3, 3180, Note_on_c, 1, 67, 80
3, 3240, Note_on_c, 1, 67, 0
3, 3240, Note_on_c, 1, 60, 80
3, 3300, Note_on_c, 1, 60, 0
3, 3300, Note_on_c, 1, 72, 80
3, 3360, Note_on_c, 1, 72, 0
3, 3360, Note_on_c, 1, 75, 80
3, 3420, Note_on_c, 1, 75, 0
3, 3420, Note_on_c, 1, 72, 80
3, 3480, Note_on_c, 1, 72, 0
3, 3480, Note_on_c, 1, 70, 80
3, 3540, Note_on_c, 1, 70, 0
3, 3540, Note_on_c, 1, 72, 80
3, 3600, Note_on_c, 1, 72, 0
3, 3600, Note_on_c, 1, 65, 80
3, 3660, Note_on_c, 1, 65, 0
3, 3660, Note_on_c, 1, 72, 80
3, 3720, Note_on_c, 1, 72, 0
3, 3720, Note_on_c, 1, 70, 80
3, 3780, Note_on_c, 1, 70, 0
3, 3780, Note_on_c, 1, 69, 80
3, 3840, Note_on_c, 1, 69, 0
3, 3840, Note_on_c, 1, 70, 80
3, 3900, Note_on_c, 1, 70, 0
3, 3900, Note_on_c, 1, 65, 80
3, 3960, Note_on_c, 1, 65, 0
3, 3960, Note_on_c, 1, 62, 80
3, 4020, Note_on_c, 1, 62, 0
3, 4020, Note_on_c, 1, 70, 80
3, 4080, Note_on_c, 1, 70, 0
3, 4080, Note_on_c, 1, 74, 80
3, 4140, Note_on_c, 1, 74, 0
3, 4140, Note_on_c, 1, 70, 80
3, 4200, Note_on_c, 1, 70, 0
3, 4200, Note_on_c, 1, 69, 80
3, 4260, Note_on_c, 1, 69, 0
3, 4260, Note_on_c, 1, 70, 80
3, 4320, Note_on_c, 1, 70, 0
3, 4320, Note_on_c, 1, 67, 80
3, 4380, Note_on_c, 1, 67, 0
3, 4380, Note_on_c, 1, 70, 80
3, 4440, Note_on_c, 1, 70, 0
3, 4440, Note_on_c, 1, 75, 80
3, 4500, Note_on_c, 1, 75, 0
3, 4500, Note_on_c, 1, 70, 80
3, 4560, Note_on_c, 1, 70, 0
3, 4560, Note_on_c, 1, 68, 80
3, 4620, Note_on_c, 1, 68, 0
3, 4620, Note_on_c, 1, 70, 80
3, 4680, Note_on_c, 1, 70, 0
3, 4680, Note_on_c, 1, 67, 80
3, 4740, Note_on_c, 1, 67, 0
3, 4740, Note_on_c, 1, 70, 80
3, 4800, Note_on_c, 1, 70, 0
3, 4800, Note_on_c, 1, 72, 80
3, 4860, Note_on_c, 1, 72, 0
3, 4860, Note_on_c, 1, 69, 80
3, 4920, Note_on_c, 1, 69, 0
3, 4920, Note_on_c, 1, 70, 80
3, 4980, Note_on_c, 1, 70, 0
3, 4980, Note_on_c, 1, 67, 80
3, 5040, Note_on_c, 1, 67, 0
3, 5040, Note_on_c, 1, 69, 80
3, 5160, Note_on_c, 1, 69, 0
3, 5160, Note_on_c, 1, 65, 80
3, 5280, Note_on_c, 1, 65, 0
3, 5820, Note_on_c, 1, 65, 80
3, 5880, Note_on_c, 1, 65, 0
3, 5880, Note_on_c, 1, 69, 80
3, 5940, Note_on_c, 1, 69, 0
3, 5940, Note_on_c, 1, 72, 80
3, 6000, Note_on_c, 1, 72, 0
3, 6000, Note_on_c, 1, 70, 80
3, 6060, Note_on_c, 1, 70, 0
3, 6060, Note_on_c, 1, 74, 80
3, 6120, Note_on_c, 1, 74, 0
3, 6120, Note_on_c, 1, 72, 80
3, 6180, Note_on_c, 1, 72, 0
3, 6180, Note_on_c, 1, 70, 80
3, 6240, Note_on_c, 1, 70, 0
3, 6240, Note_on_c, 1, 69, 80
3, 6300, Note_on_c, 1, 69, 0
3, 6300, Note_on_c, 1, 67, 80
3, 6360, Note_on_c, 1, 67, 0
3, 6360, Note_on_c, 1, 65, 80
3, 6420, Note_on_c, 1, 65, 0
3, 6420, Note_on_c, 1, 63, 80
3, 6480, Note_on_c, 1, 63, 0
3, 6480, Note_on_c, 1, 62, 80
3, 6540, Note_on_c, 1, 62, 0
3, 6540, Note_on_c, 1, 70, 80
3, 6600, Note_on_c, 1, 70, 0
3, 6600, Note_on_c, 1, 74, 80
3, 6660, Note_on_c, 1, 74, 0
3, 6660, Note_on_c, 1, 70, 80
3, 6720, Note_on_c, 1, 70, 0
3, 6720, Note_on_c, 1, 69, 80
3, 6780, Note_on_c, 1, 69, 0
3, 6780, Note_on_c, 1, 70, 80
3, 6840, Note_on_c, 1, 70, 0
3, 6840, Note_on_c, 1, 62, 80
3, 6900, Note_on_c, 1, 62, 0
3, 6900, Note_on_c, 1, 70, 80
3, 6960, Note_on_c, 1, 70, 0
3, 6960, Note_on_c, 1, 74, 80
3, 7020, Note_on_c, 1, 74, 0
3, 7020, Note_on_c, 1, 70, 80
3, 7080, Note_on_c, 1, 70, 0
3, 7080, Note_on_c, 1, 69, 80
3, 7140, Note_on_c, 1, 69, 0
3, 7140, Note_on_c, 1, 70, 80
3, 7200, Note_on_c, 1, 70, 0
3, 7200, Note_on_c, 1, 60, 80
3, 7260, Note_on_c, 1, 60, 0
3, 7260, Note_on_c, 1, 63, 80
3, 7320, Note_on_c, 1, 63, 0
3, 7320, Note_on_c, 1, 67, 80
3, 7380, Note_on_c, 1, 67, 0
3, 7380, Note_on_c, 1, 63, 80
3, 7440, Note_on_c, 1, 63, 0
3, 7440, Note_on_c, 1, 60, 80
3, 7500, Note_on_c, 1, 60, 0
3, 7500, Note_on_c, 1, 63, 80
3, 7560, Note_on_c, 1, 63, 0
3, 7560, Note_on_c, 1, 60, 80
3, 7620, Note_on_c, 1, 60, 0
3, 7620, Note_on_c, 1, 63, 80
3, 7680, Note_on_c, 1, 63, 0
3, 7680, Note_on_c, 1, 67, 80
3, 7740, Note_on_c, 1, 67, 0
3, 7740, Note_on_c, 1, 63, 80
3, 7800, Note_on_c, 1, 63, 0
3, 7800, Note_on_c, 1, 60, 80
3, 7860, Note_on_c, 1, 60, 0
3, 7860, Note_on_c, 1, 63, 80
3, 7920, Note_on_c, 1, 63, 0
3, 7920, Note_on_c, 1, 60, 80
3, 7980, Note_on_c, 1, 60, 0
3, 7980, Note_on_c, 1, 65, 80
3, 8040, Note_on_c, 1, 65, 0
3, 8040, Note_on_c, 1, 72, 80
3, 8100, Note_on_c, 1, 72, 0
3, 8100, Note_on_c, 1, 69, 80
3, 8160, Note_on_c, 1, 69, 0
3, 8160, Note_on_c, 1, 67, 80
3, 8220, Note_on_c, 1, 67, 0
3, 8220, Note_on_c, 1, 69, 80
3, 8280, Note_on_c, 1, 69, 0
3, 8280, Note_on_c, 1, 65, 80
3, 8340, Note_on_c, 1, 65, 0
3, 8340, Note_on_c, 1, 72, 80
3, 8400, Note_on_c, 1, 72, 0
3, 8400, Note_on_c, 1, 75, 80
3, 8460, Note_on_c, 1, 75, 0
3, 8460, Note_on_c, 1, 72, 80
3, 8520, Note_on_c, 1, 72, 0
3, 8520, Note_on_c, 1, 65, 80
3, 8580, Note_on_c, 1, 65, 0
3, 8580, Note_on_c, 1, 72, 80
3, 8640, Note_on_c, 1, 72, 0
3, 8640, Note_on_c, 1, 70, 80
3, 8760, Note_on_c, 1, 70, 0
3, 8820, Note_on_c, 1, 65, 80
3, 8880, Note_on_c, 1, 65, 0
3, 8880, Note_on_c, 1, 67, 80
3, 8940, Note_on_c, 1, 67, 0
3, 8940, Note_on_c, 1, 69, 80
3, 9000, Note_on_c, 1, 69, 0
3, 9000, Note_on_c, 1, 70, 80
3, 9060, Note_on_c, 1, 70, 0
3, 9060, Note_on_c, 1, 72, 80
3, 9120, Note_on_c, 1, 72, 0
3, 9120, Note_on_c, 1, 74, 80
3, 9180, Note_on_c, 1, 74, 0
3, 9180, Note_on_c, 1, 70, 80
3, 9240, Note_on_c, 1, 70, 0
3, 9240, Note_on_c, 1, 65, 80
3, 9300, Note_on_c, 1, 65, 0
3, 9300, Note_on_c, 1, 70, 80
3, 9360, Note_on_c, 1, 70, 0
3, 9360, Note_on_c, 1, 70, 80
3, 9420, Note_on_c, 1, 70, 0
3, 9420, Note_on_c, 1, 67, 80
3, 9480, Note_on_c, 1, 67, 0
3, 9480, Note_on_c, 1, 69, 80
3, 9540, Note_on_c, 1, 69, 0
3, 9540, Note_on_c, 1, 64, 80
3, 9600, Note_on_c, 1, 64, 0
3, 9600, Note_on_c, 1, 65, 80
3, 9660, Note_on_c, 1, 65, 0
3, 9660, Note_on_c, 1, 67, 80
3, 9720, Note_on_c, 1, 67, 0
3, 9720, Note_on_c, 1, 69, 80
3, 9780, Note_on_c, 1, 69, 0
3, 9780, Note_on_c, 1, 70, 80
3, 9840, Note_on_c, 1, 70, 0
3, 9840, Note_on_c, 1, 72, 80
3, 9900, Note_on_c, 1, 72, 0
3, 9900, Note_on_c, 1, 69, 80
3, 9960, Note_on_c, 1, 69, 0
3, 9960, Note_on_c, 1, 62, 80
3, 10020, Note_on_c, 1, 62, 0
3, 10020, Note_on_c, 1, 69, 80
3, 10140, Note_on_c, 1, 69, 0
3, 10140, Note_on_c, 1, 66, 80
3, 10200, Note_on_c, 1, 66, 0
3, 10200, Note_on_c, 1, 67, 80
3, 10260, Note_on_c, 1, 67, 0
3, 10260, Note_on_c, 1, 69, 80
3, 10320, Note_on_c, 1, 69, 0
3, 10320, Note_on_c, 1, 70, 80
3, 10380, Note_on_c, 1, 70, 0
3, 10380, Note_on_c, 1, 72, 80
3, 10440, Note_on_c, 1, 72, 0
3, 10440, Note_on_c, 1, 74, 80
3, 10500, Note_on_c, 1, 74, 0
3, 10500, Note_on_c, 1, 74, 80
3, 10560, Note_on_c, 1, 74, 0
3, 10560, Note_on_c, 1, 79, 80
3, 10620, Note_on_c, 1, 79, 0
3, 10620, Note_on_c, 1, 77, 80
3, 10680, Note_on_c, 1, 77, 0
3, 10680, Note_on_c, 1, 76, 80
3, 10740, Note_on_c, 1, 76, 0
3, 10740, Note_on_c, 1, 74, 80
3, 10800, Note_on_c, 1, 74, 0
3, 10800, Note_on_c, 1, 72, 80
3, 10860, Note_on_c, 1, 72, 0
3, 10860, Note_on_c, 1, 72, 80
3, 10920, Note_on_c, 1, 72, 0
3, 10920, Note_on_c, 1, 77, 80
3, 10980, Note_on_c, 1, 77, 0
3, 10980, Note_on_c, 1, 76, 80
3, 11040, Note_on_c, 1, 76, 0
3, 11040, Note_on_c, 1, 74, 80
3, 11100, Note_on_c, 1, 74, 0
3, 11100, Note_on_c, 1, 72, 80
3, 11160, Note_on_c, 1, 72, 0
3, 11160, Note_on_c, 1, 70, 80
3, 11220, Note_on_c, 1, 70, 0
3, 11220, Note_on_c, 1, 72, 80
3, 11280, Note_on_c, 1, 72, 0
3, 11280, Note_on_c, 1, 70, 80
3, 11340, Note_on_c, 1, 70, 0
3, 11340, Note_on_c, 1, 69, 80
3, 11400, Note_on_c, 1, 69, 0
3, 11400, Note_on_c, 1, 67, 80
3, 11460, Note_on_c, 1, 67, 0
3, 11460, Note_on_c, 1, 65, 80
3, 11520, Note_on_c, 1, 65, 0
3, 11520, Note_on_c, 1, 64, 80
3, 11580, Note_on_c, 1, 64, 0
3, 11580, Note_on_c, 1, 68, 80
3, 11640, Note_on_c, 1, 68, 0
3, 11640, Note_on_c, 1, 69, 80
3, 11700, Note_on_c, 1, 69, 0
3, 11700, Note_on_c, 1, 64, 80
3, 11760, Note_on_c, 1, 64, 0
3, 11760, Note_on_c, 1, 65, 80
3, 11820, Note_on_c, 1, 65, 0
3, 11820, Note_on_c, 1, 62, 80
3, 11880, Note_on_c, 1, 62, 0
3, 11880, Note_on_c, 1, 61, 80
3, 12120, Note_on_c, 1, 61, 0
3, 12120, Note_on_c, 1, 62, 80
3, 12240, Note_on_c, 1, 62, 0
3, 12240, Note_on_c, 1, 64, 80
3, 12300, Note_on_c, 1, 64, 0
3, 12300, Note_on_c, 1, 68, 80
3, 12360, Note_on_c, 1, 68, 0
3, 12360, Note_on_c, 1, 69, 80
3, 12420, Note_on_c, 1, 69, 0
3, 12420, Note_on_c, 1, 64, 80
3, 12480, Note_on_c, 1, 64, 0
3, 12480, Note_on_c, 1, 65, 80
3, 12540, Note_on_c, 1, 65, 0
3, 12540, Note_on_c, 1, 62, 80
3, 12600, Note_on_c, 1, 62, 0
3, 12600, Note_on_c, 1, 61, 80
3, 12840, Note_on_c, 1, 61, 0
3, 12840, Note_on_c, 1, 62, 80
3, 12960, Note_on_c, 1, 62, 0
3, 12960, Note_on_c, 1, 64, 80
3, 13080, Note_on_c, 1, 64, 0
3, 13080, Note_on_c, 1, 57, 80
3, 13200, Note_on_c, 1, 57, 0
3, 14640, Note_on_c, 1, 74, 80
3, 14760, Note_on_c, 1, 74, 0
3, 14760, Note_on_c, 1, 75, 80
3, 14820, Note_on_c, 1, 75, 0
3, 14820, Note_on_c, 1, 79, 80
3, 14880, Note_on_c, 1, 79, 0
3, 14880, Note_on_c, 1, 78, 80
3, 14940, Note_on_c, 1, 78, 0
3, 14940, Note_on_c, 1, 79, 80
3, 15000, Note_on_c, 1, 79, 0
3, 15000, Note_on_c, 1, 81, 80
3, 15060, Note_on_c, 1, 81, 0
3, 15060, Note_on_c, 1, 79, 80
3, 15120, Note_on_c, 1, 79, 0
3, 15120, Note_on_c, 1, 74, 80
3, 15180, Note_on_c, 1, 74, 0
3, 15180, Note_on_c, 1, 79, 80
3, 15240, Note_on_c, 1, 79, 0
3, 15240, Note_on_c, 1, 78, 80
3, 15300, Note_on_c, 1, 78, 0
3, 15300, Note_on_c, 1, 79, 80
3, 15360, Note_on_c, 1, 79, 0
3, 15360, Note_on_c, 1, 81, 80
3, 15420, Note_on_c, 1, 81, 0
3, 15420, Note_on_c, 1, 79, 80
3, 15480, Note_on_c, 1, 79, 0
3, 15480, Note_on_c, 1, 72, 80
3, 15540, Note_on_c, 1, 72, 0
3, 15540, Note_on_c, 1, 75, 80
3, 15600, Note_on_c, 1, 75, 0
3, 15600, Note_on_c, 1, 74, 80
3, 15660, Note_on_c, 1, 74, 0
3, 15660, Note_on_c, 1, 72, 80
3, 15720, Note_on_c, 1, 72, 0
3, 15720, Note_on_c, 1, 70, 80
3, 15780, Note_on_c, 1, 70, 0
3, 15780, Note_on_c, 1, 69, 80
3, 15840, Note_on_c, 1, 69, 0
3, 15840, Note_on_c, 1, 58, 80
3, 15900, Note_on_c, 1, 58, 0
3, 15900, Note_on_c, 1, 67, 80
3, 15960, Note_on_c, 1, 67, 0
3, 15960, Note_on_c, 1, 70, 80
3, 16020, Note_on_c, 1, 70, 0
3, 16020, Note_on_c, 1, 67, 80
3, 16080, Note_on_c, 1, 67, 0
3, 16080, Note_on_c, 1, 66, 80
3, 16140, Note_on_c, 1, 66, 0
3, 16140, Note_on_c, 1, 67, 80
3, 16200, Note_on_c, 1, 67, 0
3, 16200, Note_on_c, 1, 58, 80
3, 16260, Note_on_c, 1, 58, 0
3, 16260, Note_on_c, 1, 67, 80
3, 16320, Note_on_c, 1, 67, 0
3, 16320, Note_on_c, 1, 70, 80
3, 16380, Note_on_c, 1, 70, 0
3, 16380, Note_on_c, 1, 67, 80
3, 16440, Note_on_c, 1, 67, 0
3, 16440, Note_on_c, 1, 66, 80
3, 16500, Note_on_c, 1, 66, 0
3, 16500, Note_on_c, 1, 67, 80
3, 16560, Note_on_c, 1, 67, 0
3, 16560, Note_on_c, 1, 57, 80
3, 16620, Note_on_c, 1, 57, 0
3, 16620, Note_on_c, 1, 60, 80
3, 16680, Note_on_c, 1, 60, 0
3, 16680, Note_on_c, 1, 63, 80
3, 16740, Note_on_c, 1, 63, 0
3, 16740, Note_on_c, 1, 60, 80
3, 16800, Note_on_c, 1, 60, 0
3, 16800, Note_on_c, 1, 57, 80
3, 16860, Note_on_c, 1, 57, 0
3, 16860, Note_on_c, 1, 60, 80
3, 16920, Note_on_c, 1, 60, 0
3, 16920, Note_on_c, 1, 57, 80
3, 16980, Note_on_c, 1, 57, 0
3, 16980, Note_on_c, 1, 60, 80
3, 17040, Note_on_c, 1, 60, 0
3, 17040, Note_on_c, 1, 63, 80
3, 17100, Note_on_c, 1, 63, 0
3, 17100, Note_on_c, 1, 60, 80
3, 17160, Note_on_c, 1, 60, 0
3, 17160, Note_on_c, 1, 57, 80
3, 17220, Note_on_c, 1, 57, 0
3, 17220, Note_on_c, 1, 60, 80
3, 17280, Note_on_c, 1, 60, 0
3, 17280, Note_on_c, 1, 57, 80
3, 17340, Note_on_c, 1, 57, 0
3, 17340, Note_on_c, 1, 62, 80
3, 17400, Note_on_c, 1, 62, 0
3, 17400, Note_on_c, 1, 69, 80
3, 17460, Note_on_c, 1, 69, 0
3, 17460, Note_on_c, 1, 66, 80
3, 17520, Note_on_c, 1, 66, 0
3, 17520, Note_on_c, 1, 64, 80
3, 17580, Note_on_c, 1, 64, 0
3, 17580, Note_on_c, 1, 66, 80
3, 17640, Note_on_c, 1, 66, 0
3, 17640, Note_on_c, 1, 62, 80
3, 17700, Note_on_c, 1, 62, 0
3, 17700, Note_on_c, 1, 69, 80
3, 17760, Note_on_c, 1, 69, 0
3, 17760, Note_on_c, 1, 72, 80
3, 17820, Note_on_c, 1, 72, 0
3, 17820, Note_on_c, 1, 69, 80
3, 17880, Note_on_c, 1, 69, 0
3, 17880, Note_on_c, 1, 62, 80
3, 17940, Note_on_c, 1, 62, 0
3, 17940, Note_on_c, 1, 69, 80
3, 18000, Note_on_c, 1, 69, 0
3, 18000, Note_on_c, 1, 67, 80
3, 18180, Note_on_c, 1, 67, 0
3, 18180, Note_on_c, 1, 65, 80
3, 18240, Note_on_c, 1, 65, 0
3, 18240, Note_on_c, 1, 63, 80
3, 18300, Note_on_c, 1, 63, 0
3, 18300, Note_on_c, 1, 62, 80
3, 18360, Note_on_c, 1, 62, 0
3, 18360, Note_on_c, 1, 60, 80
3, 18480, Note_on_c, 1, 60, 0
3, 18480, Note_on_c, 1, 72, 80
3, 18540, Note_on_c, 1, 72, 0
3, 18540, Note_on_c, 1, 70, 80
3, 18600, Note_on_c, 1, 70, 0
3, 18600, Note_on_c, 1, 69, 80
3, 18660, Note_on_c, 1, 69, 0
3, 18660, Note_on_c, 1, 67, 80
3, 18720, Note_on_c, 1, 67, 0
3, 18720, Note_on_c, 1, 66, 80
3, 18960, Note_on_c, 1, 66, 0
3, 18960, Note_on_c, 1, 67, 80
3, 19080, Note_on_c, 1, 67, 0
3, 19080, Note_on_c, 1, 69, 80
3, 19140, Note_on_c, 1, 69, 0
3, 19140, Note_on_c, 1, 73, 80
3, 19200, Note_on_c, 1, 73, 0
3, 19200, Note_on_c, 1, 74, 80
3, 19260, Note_on_c, 1, 74, 0
3, 19260, Note_on_c, 1, 69, 80
3, 19320, Note_on_c, 1, 69, 0
3, 19320, Note_on_c, 1, 70, 80
3, 19380, Note_on_c, 1, 70, 0
3, 19380, Note_on_c, 1, 67, 80
3, 19440, Note_on_c, 1, 67, 0
3, 19440, Note_on_c, 1, 66, 80
3, 19680, Note_on_c, 1, 66, 0
3, 19680, Note_on_c, 1, 67, 80
3, 19800, Note_on_c, 1, 67, 0
3, 19800, Note_on_c, 1, 69, 80
3, 19860, Note_on_c, 1, 69, 0
3, 19860, Note_on_c, 1, 73, 80
3, 19920, Note_on_c, 1, 73, 0
3, 19920, Note_on_c, 1, 74, 80
3, 19980, Note_on_c, 1, 74, 0
3, 19980, Note_on_c, 1, 69, 80
3, 20040, Note_on_c, 1, 69, 0
3, 20040, Note_on_c, 1, 70, 80
3, 20100, Note_on_c, 1, 70, 0
3, 20100, Note_on_c, 1, 67, 80
3, 20160, Note_on_c, 1, 67, 0
3, 20160, Note_on_c, 1, 66, 80
3, 20220, Note_on_c, 1, 66, 0
3, 20220, Note_on_c, 1, 64, 80
3, 20280, Note_on_c, 1, 64, 0
3, 20280, Note_on_c, 1, 66, 80
3, 20340, Note_on_c, 1, 66, 0
3, 20340, Note_on_c, 1, 67, 80
3, 20400, Note_on_c, 1, 67, 0
3, 20400, Note_on_c, 1, 69, 80
3, 20460, Note_on_c, 1, 69, 0
3, 20460, Note_on_c, 1, 70, 80
3, 20520, Note_on_c, 1, 70, 0
3, 20520, Note_on_c, 1, 72, 80
3, 20640, Note_on_c, 1, 72, 0
3, 20640, Note_on_c, 1, 70, 80
3, 20760, Note_on_c, 1, 70, 0
3, 20760, Note_on_c, 1, 69, 80
3, 20880, Note_on_c, 1, 69, 0
3, 20880, Note_on_c, 1, 67, 80
3, 21240, Note_on_c, 1, 67, 0
3, 21240, Note_on_c, 1, 67, 80
3, 21330, Note_on_c, 1, 67, 0
3, 21330, Note_on_c, 1, 69, 80
3, 21360, Note_on_c, 1, 69, 0
3, 21360, Note_on_c, 1, 67, 80
3, 21420, Note_on_c, 1, 67, 0
3, 21420, Note_on_c, 1, 66, 80
3, 21435, Note_on_c, 1, 66, 0
3, 21435, Note_on_c, 1, 67, 80
3, 21450, Note_on_c, 1, 67, 0
3, 21450, Note_on_c, 1, 66, 80
3, 21465, Note_on_c, 1, 66, 0
3, 21465, Note_on_c, 1, 67, 80
3, 21480, Note_on_c, 1, 67, 0
3, 21480, Note_on_c, 1, 66, 80
3, 21540, Note_on_c, 1, 66, 0
3, 21540, Note_on_c, 1, 67, 80
3, 21600, Note_on_c, 1, 67, 0
3, 21600, Note_on_c, 1, 67, 80
3, 21660, Note_on_c, 1, 67, 0
3, 21660, Note_on_c, 1, 67, 80
3, 21720, Note_on_c, 1, 67, 0
3, 21720, Note_on_c, 1, 70, 80
3, 21780, Note_on_c, 1, 70, 0
3, 21780, Note_on_c, 1, 67, 80
3, 21840, Note_on_c, 1, 67, 0
3, 21840, Note_on_c, 1, 66, 80
3, 21900, Note_on_c, 1, 66, 0
3, 21900, Note_on_c, 1, 67, 80
3, 21960, Note_on_c, 1, 67, 0
3, 21960, Note_on_c, 1, 58, 80
3, 22020, Note_on_c, 1, 58, 0
3, 22020, Note_on_c, 1, 67, 80
3, 22080, Note_on_c, 1, 67, 0
3, 22080, Note_on_c, 1, 70, 80
3, 22140, Note_on_c, 1, 70, 0
3, 22140, Note_on_c, 1, 67, 80
3, 22200, Note_on_c, 1, 67, 0
3, 22200, Note_on_c, 1, 66, 80
3, 22260, Note_on_c, 1, 66, 0
3, 22260, Note_on_c, 1, 67, 80
3, 22320, Note_on_c, 1, 67, 0
3, 22380, Note_on_c, 1, 67, 80
3, 22440, Note_on_c, 1, 67, 0
3, 22440, Note_on_c, 1, 66, 80
3, 22500, Note_on_c, 1, 66, 0
3, 22500, Note_on_c, 1, 67, 80
3, 22560, Note_on_c, 1, 67, 0
3, 22560, Note_on_c, 1, 70, 80
3, 22620, Note_on_c, 1, 70, 0
3, 22620, Note_on_c, 1, 67, 80
3, 22680, Note_on_c, 1, 67, 0
3, 22680, Note_on_c, 1, 67, 80
3, 22770, Note_on_c, 1, 67, 0
3, 22770, Note_on_c, 1, 69, 80
3, 22800, Note_on_c, 1, 69, 0
3, 22800, Note_on_c, 1, 67, 80
3, 22860, Note_on_c, 1, 67, 0
3, 22860, Note_on_c, 1, 66, 80
3, 22875, Note_on_c, 1, 66, 0
3, 22875, Note_on_c, 1, 67, 80
3, 22890, Note_on_c, 1, 67, 0
3, 22890, Note_on_c, 1, 66, 80
3, 22905, Note_on_c, 1, 66, 0
3, 22905, Note_on_c, 1, 67, 80
3, 22920, Note_on_c, 1, 67, 0
3, 22920, Note_on_c, 1, 66, 80
3, 22980, Note_on_c, 1, 66, 0
3, 22980, Note_on_c, 1, 67, 80
3, 23040, Note_on_c, 1, 67, 0
3, 23040, Note_on_c, 1, 67, 80
3, 23760, Note_on_c, 1, 67, 0
3, 23760, End_track
4, 0, Start_track
4, 0, MIDI_port, 0
4, 0, Title_t, "MIDI by by Marty Weimer  3/3/97"
4, 0, Program_c, 2, 6
4, 0, Control_c, 2, 7, 90
4, 0, Control_c, 2, 10, 56
4, 0, Note_on_c, 2, 55, 80
4, 240, Note_on_c, 2, 55, 0
4, 360, Note_on_c, 2, 55, 80
4, 600, Note_on_c, 2, 55, 0
4, 720, Note_on_c, 2, 55, 80
4, 960, Note_on_c, 2, 55, 0
4, 1080, Note_on_c, 2, 55, 80
4, 1320, Note_on_c, 2, 55, 0
4, 1440, Note_on_c, 2, 54, 80
4, 1680, Note_on_c, 2, 54, 0
4, 1800, Note_on_c, 2, 54, 80
4, 2040, Note_on_c, 2, 54, 0
4, 2160, Note_on_c, 2, 55, 80
4, 2400, Note_on_c, 2, 55, 0
4, 2520, Note_on_c, 2, 43, 80
4, 2760, Note_on_c, 2, 43, 0
4, 2880, Note_on_c, 2, 55, 80
4, 3120, Note_on_c, 2, 55, 0
4, 3240, Note_on_c, 2, 57, 80
4, 3480, Note_on_c, 2, 57, 0
4, 3600, Note_on_c, 2, 58, 80
4, 3840, Note_on_c, 2, 58, 0
4, 3960, Note_on_c, 2, 46, 80
4, 4200, Note_on_c, 2, 46, 0
4, 4320, Note_on_c, 2, 51, 80
4, 4560, Note_on_c, 2, 51, 0
4, 4680, Note_on_c, 2, 51, 80
4, 4920, Note_on_c, 2, 51, 0
4, 4920, Note_on_c, 2, 52, 80
4, 5040, Note_on_c, 2, 52, 0
4, 5040, Note_on_c, 2, 53, 80
4, 5280, Note_on_c, 2, 53, 0
4, 5280, Note_on_c, 2, 55, 80
4, 5400, Note_on_c, 2, 55, 0
4, 5400, Note_on_c, 2, 57, 80
4, 5520, Note_on_c, 2, 57, 0
4, 5520, Note_on_c, 2, 53, 80
4, 5640, Note_on_c, 2, 53, 0
4, 5640, Note_on_c, 2, 57, 80
4, 5760, Note_on_c, 2, 57, 0
4, 5760, Note_on_c, 2, 58, 80
4, 5880, Note_on_c, 2, 58, 0
4, 5880, Note_on_c, 2, 53, 80
4, 6000, Note_on_c, 2, 53, 0
4, 6000, Note_on_c, 2, 55, 80
4, 6120, Note_on_c, 2, 55, 0
4, 6120, Note_on_c, 2, 57, 80
4, 6240, Note_on_c, 2, 57, 0
4, 6240, Note_on_c, 2, 53, 80
4, 6360, Note_on_c, 2, 53, 0
4, 6360, Note_on_c, 2, 57, 80
4, 6480, Note_on_c, 2, 57, 0
4, 6480, Note_on_c, 2, 58, 80
4, 6720, Note_on_c, 2, 58, 0
4, 6840, Note_on_c, 2, 58, 80
4, 7080, Note_on_c, 2, 58, 0
4, 7200, Note_on_c, 2, 58, 80
4, 7440, Note_on_c, 2, 58, 0
4, 7560, Note_on_c, 2, 58, 80
4, 7800, Note_on_c, 2, 58, 0
4, 7920, Note_on_c, 2, 57, 80
4, 8160, Note_on_c, 2, 57, 0
4, 8280, Note_on_c, 2, 57, 80
4, 8520, Note_on_c, 2, 57, 0
4, 8640, Note_on_c, 2, 58, 80
4, 8880, Note_on_c, 2, 58, 0
4, 9000, Note_on_c, 2, 46, 80
4, 9240, Note_on_c, 2, 46, 0
4, 9360, Note_on_c, 2, 53, 80
4, 9600, Note_on_c, 2, 53, 0
4, 9720, Note_on_c, 2, 54, 80
4, 9960, Note_on_c, 2, 54, 0
4, 10080, Note_on_c, 2, 55, 80
4, 10320, Note_on_c, 2, 55, 0
4, 10440, Note_on_c, 2, 55, 80
4, 10680, Note_on_c, 2, 55, 0
4, 10680, Note_on_c, 2, 60, 80
4, 10800, Note_on_c, 2, 60, 0
4, 10800, Note_on_c, 2, 53, 80
4, 11040, Note_on_c, 2, 53, 0
4, 11040, Note_on_c, 2, 58, 80
4, 11160, Note_on_c, 2, 58, 0
4, 11160, Note_on_c, 2, 55, 80
4, 11520, Note_on_c, 2, 55, 0
4, 11520, Note_on_c, 2, 57, 80
4, 11760, Note_on_c, 2, 57, 0
4, 11880, Note_on_c, 2, 57, 80
4, 12120, Note_on_c, 2, 57, 0
4, 12240, Note_on_c, 2, 57, 80
4, 12480, Note_on_c, 2, 57, 0
4, 12600, Note_on_c, 2, 57, 80
4, 12840, Note_on_c, 2, 57, 0
4, 12960, Note_on_c, 2, 57, 80
4, 13020, Note_on_c, 2, 57, 0
4, 13020, Note_on_c, 2, 45, 80
4, 13080, Note_on_c, 2, 45, 0
4, 13080, Note_on_c, 2, 57, 80
4, 13140, Note_on_c, 2, 57, 0
4, 13140, Note_on_c, 2, 55, 80
4, 13200, Note_on_c, 2, 55, 0
4, 13200, Note_on_c, 2, 53, 80
4, 13260, Note_on_c, 2, 53, 0
4, 13260, Note_on_c, 2, 50, 80
4, 13320, Note_on_c, 2, 50, 0
4, 13320, Note_on_c, 2, 55, 80
4, 13560, Note_on_c, 2, 55, 0
4, 13680, Note_on_c, 2, 53, 80
4, 13920, Note_on_c, 2, 53, 0
4, 14040, Note_on_c, 2, 52, 80
4, 14160, Note_on_c, 2, 52, 0
4, 14160, Note_on_c, 2, 49, 80
4, 14280, Note_on_c, 2, 49, 0
4, 14280, Note_on_c, 2, 45, 80
4, 14400, Note_on_c, 2, 45, 0
4, 14400, Note_on_c, 2, 50, 80
4, 14460, Note_on_c, 2, 50, 0
4, 14460, Note_on_c, 2, 57, 80
4, 14520, Note_on_c, 2, 57, 0
4, 14520, Note_on_c, 2, 62, 80
4, 14580, Note_on_c, 2, 62, 0
4, 14580, Note_on_c, 2, 60, 80
4, 14640, Note_on_c, 2, 60, 0
4, 14640, Note_on_c, 2, 58, 80
4, 14700, Note_on_c, 2, 58, 0
4, 14700, Note_on_c, 2, 55, 80
4, 14760, Note_on_c, 2, 55, 0
4, 14760, Note_on_c, 2, 60, 80
4, 15000, Note_on_c, 2, 60, 0
4, 15120, Note_on_c, 2, 58, 80
4, 15360, Note_on_c, 2, 58, 0
4, 15480, Note_on_c, 2, 57, 80
4, 15600, Note_on_c, 2, 57, 0
4, 15600, Note_on_c, 2, 54, 80
4, 15720, Note_on_c, 2, 54, 0
4, 15720, Note_on_c, 2, 50, 80
4, 15840, Note_on_c, 2, 50, 0
4, 15840, Note_on_c, 2, 55, 80
4, 16080, Note_on_c, 2, 55, 0
4, 16200, Note_on_c, 2, 55, 80
4, 16440, Note_on_c, 2, 55, 0
4, 16560, Note_on_c, 2, 55, 80
4, 16800, Note_on_c, 2, 55, 0
4, 16920, Note_on_c, 2, 55, 80
4, 17160, Note_on_c, 2, 55, 0
4, 17280, Note_on_c, 2, 54, 80
4, 17520, Note_on_c, 2, 54, 0
4, 17640, Note_on_c, 2, 54, 80
4, 17880, Note_on_c, 2, 54, 0
4, 18000, Note_on_c, 2, 55, 80
4, 18240, Note_on_c, 2, 55, 0
4, 18360, Note_on_c, 2, 48, 80
4, 18600, Note_on_c, 2, 48, 0
4, 18720, Note_on_c, 2, 50, 80
4, 18960, Note_on_c, 2, 50, 0
4, 19080, Note_on_c, 2, 50, 80
4, 19320, Note_on_c, 2, 50, 0
4, 19440, Note_on_c, 2, 50, 80
4, 19680, Note_on_c, 2, 50, 0
4, 19800, Note_on_c, 2, 50, 80
4, 20040, Note_on_c, 2, 50, 0
4, 20160, Note_on_c, 2, 50, 80
4, 20400, Note_on_c, 2, 50, 0
4, 20520, Note_on_c, 2, 42, 80
4, 20760, Note_on_c, 2, 42, 0
4, 20880, Note_on_c, 2, 43, 80
4, 21000, Note_on_c, 2, 43, 0
4, 21000, Note_on_c, 2, 45, 80
4, 21120, Note_on_c, 2, 45, 0
4, 21120, Note_on_c, 2, 46, 80
4, 21240, Note_on_c, 2, 46, 0
4, 21240, Note_on_c, 2, 48, 80
4, 21360, Note_on_c, 2, 48, 0
4, 21360, Note_on_c, 2, 50, 80
4, 21480, Note_on_c, 2, 50, 0
4, 21480, Note_on_c, 2, 38, 80
4, 21600, Note_on_c, 2, 38, 0
4, 21600, Note_on_c, 2, 55, 80
4, 21840, Note_on_c, 2, 55, 0
4, 21960, Note_on_c, 2, 51, 80
4, 22200, Note_on_c, 2, 51, 0
4, 22320, Note_on_c, 2, 49, 80
4, 22560, Note_on_c, 2, 49, 0
4, 22680, Note_on_c, 2, 50, 80
4, 22920, Note_on_c, 2, 50, 0
4, 22920, Note_on_c, 2, 38, 80
4, 23040, Note_on_c, 2, 38, 0
4, 23040, Note_on_c, 2, 43, 80
4, 23760, Note_on_c, 2, 43, 0
4, 23760, End_track
5, 0, Start_track
5, 0, MIDI_port, 0
5, 0, Title_t, "weimermt@libby.org"
5, 0, End_track
6, 0, Start_track
6, 0, MIDI_port, 0
6, 0, Title_t, "---------------------------"
6, 0, End_track
7, 0, Start_track
7, 0, MIDI_port, 0
7, 0, Title_t, "courtesy of Dave's J.S. Bach Page"
7, 0, End_track
8, 0, Start_track
8, 0, MIDI_port, 0
8, 0, Title_t, "http://www.unpronounceable.com/bach"
8, 0, End_track
9, 0, Start_track
9, 0, MIDI_port, 0
9, 0, Title_t, "---------------------------"
9, 0, End_track
10, 0, Start_track
10, 0, MIDI_port, 0
10, 0, Title_t, "Original Filename: bwv1031b.mid"
10, 0, End_track
0, 0, End_of_file
