0, 0, Header, 1, 10, 240
1, 0, Start_track
1, 0, Title_t, "untitled"
1, 0, SMPTE_offset, 96, 0, 3, 0, 0
1, 0, Time_signature, 3, 3, 12, 8
1, 0, Key_signature, 0, "major"
1, 0, Tempo, 666667
1, 0, End_track
2, 0, Start_track
2, 0, MIDI_port, 0
2, 0, Title_t, "Flute Sonata in E Flat BWV 1031"
2, 0, Program_c, 0, 73
2, 0, Control_c, 0, 7, 127
2, 0, Control_c, 0, 10, 64
2, 420, Note_on_c, 0, 80, 80
2, 468, Note_on_c, 0, 80, 0
2, 480, Note_on_c, 0, 79, 80
2, 528, Note_on_c, 0, 79, 0
2, 540, Note_on_c, 0, 77, 80
2, 588, Note_on_c, 0, 77, 0
2, 600, Note_on_c, 0, 75, 80
2, 648, Note_on_c, 0, 75, 0
2, 660, Note_on_c, 0, 74, 80
2, 708, Note_on_c, 0, 74, 0
2, 720, Note_on_c, 0, 75, 80
2, 816, Note_on_c, 0, 75, 0
2, 840, Note_on_c, 0, 63, 80
2, 936, Note_on_c, 0, 63, 0
2, 960, Note_on_c, 0, 63, 80
2, 1056, Note_on_c, 0, 63, 0
2, 1080, Note_on_c, 0, 63, 80
2, 1128, Note_on_c, 0, 63, 0
2, 1140, Note_on_c, 0, 80, 80
2, 1188, Note_on_c, 0, 80, 0
2, 1200, Note_on_c, 0, 79, 80
2, 1248, Note_on_c, 0, 79, 0
2, 1260, Note_on_c, 0, 77, 80
2, 1308, Note_on_c, 0, 77, 0
2, 1320, Note_on_c, 0, 75, 80
2, 1368, Note_on_c, 0, 75, 0
2, 1380, Note_on_c, 0, 74, 80
2, 1428, Note_on_c, 0, 74, 0
2, 1440, Note_on_c, 0, 75, 80
2, 1536, Note_on_c, 0, 75, 0
2, 1560, Note_on_c, 0, 82, 80
2, 1656, Note_on_c, 0, 82, 0
2, 1680, Note_on_c, 0, 84, 80
2, 1776, Note_on_c, 0, 84, 0
2, 1800, Note_on_c, 0, 77, 80
2, 1896, Note_on_c, 0, 77, 0
2, 1920, Note_on_c, 0, 79, 80
2, 2064, Note_on_c, 0, 79, 0
2, 2100, Note_on_c, 0, 80, 80
2, 2124, Note_on_c, 0, 80, 0
2, 2130, Note_on_c, 0, 82, 80
2, 2154, Note_on_c, 0, 82, 0
2, 2160, Note_on_c, 0, 77, 80
2, 2256, Note_on_c, 0, 77, 0
2, 2280, Note_on_c, 0, 79, 80
2, 2424, Note_on_c, 0, 79, 0
2, 2460, Note_on_c, 0, 80, 80
2, 2484, Note_on_c, 0, 80, 0
2, 2490, Note_on_c, 0, 82, 80
2, 2514, Note_on_c, 0, 82, 0
2, 2520, Note_on_c, 0, 77, 80
2, 2568, Note_on_c, 0, 77, 0
2, 2580, Note_on_c, 0, 75, 80
2, 2628, Note_on_c, 0, 75, 0
2, 2640, Note_on_c, 0, 74, 80
2, 2688, Note_on_c, 0, 74, 0
2, 2700, Note_on_c, 0, 72, 80
2, 2748, Note_on_c, 0, 72, 0
2, 2760, Note_on_c, 0, 70, 80
2, 2808, Note_on_c, 0, 70, 0
2, 2820, Note_on_c, 0, 68, 80
2, 2868, Note_on_c, 0, 68, 0
2, 2880, Note_on_c, 0, 67, 80
2, 2928, Note_on_c, 0, 67, 0
2, 2940, Note_on_c, 0, 63, 80
2, 2988, Note_on_c, 0, 63, 0
2, 3000, Note_on_c, 0, 67, 80
2, 3048, Note_on_c, 0, 67, 0
2, 3060, Note_on_c, 0, 70, 80
2, 3108, Note_on_c, 0, 70, 0
2, 3120, Note_on_c, 0, 75, 80
2, 3168, Note_on_c, 0, 75, 0
2, 3180, Note_on_c, 0, 70, 80
2, 3228, Note_on_c, 0, 70, 0
2, 3240, Note_on_c, 0, 72, 80
2, 3288, Note_on_c, 0, 72, 0
2, 3300, Note_on_c, 0, 84, 80
2, 3348, Note_on_c, 0, 84, 0
2, 3360, Note_on_c, 0, 82, 80
2, 3408, Note_on_c, 0, 82, 0
2, 3420, Note_on_c, 0, 80, 80
2, 3468, Note_on_c, 0, 80, 0
2, 3480, Note_on_c, 0, 79, 80
2, 3528, Note_on_c, 0, 79, 0
2, 3540, Note_on_c, 0, 77, 80
2, 3588, Note_on_c, 0, 77, 0
2, 3600, Note_on_c, 0, 79, 80
2, 3648, Note_on_c, 0, 79, 0
2, 3660, Note_on_c, 0, 63, 80
2, 3708, Note_on_c, 0, 63, 0
2, 3720, Note_on_c, 0, 67, 80
2, 3768, Note_on_c, 0, 67, 0
2, 3780, Note_on_c, 0, 70, 80
2, 3828, Note_on_c, 0, 70, 0
2, 3840, Note_on_c, 0, 75, 80
2, 3888, Note_on_c, 0, 75, 0
2, 3900, Note_on_c, 0, 70, 80
2, 3948, Note_on_c, 0, 70, 0
2, 3960, Note_on_c, 0, 72, 80
2, 4008, Note_on_c, 0, 72, 0
2, 4020, Note_on_c, 0, 84, 80
2, 4068, Note_on_c, 0, 84, 0
2, 4080, Note_on_c, 0, 82, 80
2, 4128, Note_on_c, 0, 82, 0
2, 4140, Note_on_c, 0, 80, 80
2, 4188, Note_on_c, 0, 80, 0
2, 4200, Note_on_c, 0, 79, 80
2, 4248, Note_on_c, 0, 79, 0
2, 4260, Note_on_c, 0, 77, 80
2, 4308, Note_on_c, 0, 77, 0
2, 4320, Note_on_c, 0, 79, 80
2, 4368, Note_on_c, 0, 79, 0
2, 4380, Note_on_c, 0, 77, 80
2, 4428, Note_on_c, 0, 77, 0
2, 4440, Note_on_c, 0, 75, 80
2, 4488, Note_on_c, 0, 75, 0
2, 4500, Note_on_c, 0, 77, 80
2, 4548, Note_on_c, 0, 77, 0
2, 4560, Note_on_c, 0, 79, 80
2, 4608, Note_on_c, 0, 79, 0
2, 4620, Note_on_c, 0, 80, 80
2, 4668, Note_on_c, 0, 80, 0
2, 4680, Note_on_c, 0, 82, 80
2, 4728, Note_on_c, 0, 82, 0
2, 4740, Note_on_c, 0, 77, 80
2, 4788, Note_on_c, 0, 77, 0
2, 4800, Note_on_c, 0, 74, 80
2, 4848, Note_on_c, 0, 74, 0
2, 4860, Note_on_c, 0, 70, 80
2, 4908, Note_on_c, 0, 70, 0
2, 4920, Note_on_c, 0, 77, 80
2, 4968, Note_on_c, 0, 77, 0
2, 4980, Note_on_c, 0, 74, 80
2, 5028, Note_on_c, 0, 74, 0
2, 5040, Note_on_c, 0, 75, 80
2, 5088, Note_on_c, 0, 75, 0
2, 5100, Note_on_c, 0, 74, 80
2, 5148, Note_on_c, 0, 74, 0
2, 5160, Note_on_c, 0, 72, 80
2, 5208, Note_on_c, 0, 72, 0
2, 5220, Note_on_c, 0, 74, 80
2, 5268, Note_on_c, 0, 74, 0
2, 5280, Note_on_c, 0, 75, 80
2, 5328, Note_on_c, 0, 75, 0
2, 5340, Note_on_c, 0, 77, 80
2, 5388, Note_on_c, 0, 77, 0
2, 5400, Note_on_c, 0, 79, 80
2, 5448, Note_on_c, 0, 79, 0
2, 5460, Note_on_c, 0, 74, 80
2, 5508, Note_on_c, 0, 74, 0
2, 5520, Note_on_c, 0, 70, 80
2, 5568, Note_on_c, 0, 70, 0
2, 5580, Note_on_c, 0, 67, 80
2, 5628, Note_on_c, 0, 67, 0
2, 5640, Note_on_c, 0, 74, 80
2, 5688, Note_on_c, 0, 74, 0
2, 5700, Note_on_c, 0, 70, 80
2, 5748, Note_on_c, 0, 70, 0
2, 5760, Note_on_c, 0, 72, 80
2, 5808, Note_on_c, 0, 72, 0
2, 5820, Note_on_c, 0, 68, 80
2, 5868, Note_on_c, 0, 68, 0
2, 5880, Note_on_c, 0, 75, 80
2, 5928, Note_on_c, 0, 75, 0
2, 5940, Note_on_c, 0, 72, 80
2, 5988, Note_on_c, 0, 72, 0
2, 6000, Note_on_c, 0, 70, 80
2, 6048, Note_on_c, 0, 70, 0
2, 6060, Note_on_c, 0, 68, 80
2, 6108, Note_on_c, 0, 68, 0
2, 6120, Note_on_c, 0, 70, 80
2, 6168, Note_on_c, 0, 70, 0
2, 6180, Note_on_c, 0, 67, 80
2, 6228, Note_on_c, 0, 67, 0
2, 6240, Note_on_c, 0, 75, 80
2, 6288, Note_on_c, 0, 75, 0
2, 6300, Note_on_c, 0, 70, 80
2, 6348, Note_on_c, 0, 70, 0
2, 6360, Note_on_c, 0, 68, 80
2, 6408, Note_on_c, 0, 68, 0
2, 6420, Note_on_c, 0, 67, 80
2, 6468, Note_on_c, 0, 67, 0
2, 6480, Note_on_c, 0, 68, 80
2, 6528, Note_on_c, 0, 68, 0
2, 6540, Note_on_c, 0, 67, 80
2, 6588, Note_on_c, 0, 67, 0
2, 6600, Note_on_c, 0, 68, 80
2, 6648, Note_on_c, 0, 68, 0
2, 6660, Note_on_c, 0, 70, 80
2, 6708, Note_on_c, 0, 70, 0
2, 6720, Note_on_c, 0, 67, 80
2, 6768, Note_on_c, 0, 67, 0
2, 6780, Note_on_c, 0, 68, 80
2, 6828, Note_on_c, 0, 68, 0
2, 6840, Note_on_c, 0, 65, 80
2, 6888, Note_on_c, 0, 65, 0
2, 6900, Note_on_c, 0, 72, 80
2, 6948, Note_on_c, 0, 72, 0
2, 6960, Note_on_c, 0, 70, 80
2, 7008, Note_on_c, 0, 70, 0
2, 7020, Note_on_c, 0, 68, 80
2, 7068, Note_on_c, 0, 68, 0
2, 7080, Note_on_c, 0, 67, 80
2, 7128, Note_on_c, 0, 67, 0
2, 7140, Note_on_c, 0, 65, 80
2, 7188, Note_on_c, 0, 65, 0
2, 7200, Note_on_c, 0, 67, 80
2, 7248, Note_on_c, 0, 67, 0
2, 7260, Note_on_c, 0, 77, 80
2, 7308, Note_on_c, 0, 77, 0
2, 7320, Note_on_c, 0, 75, 80
2, 7368, Note_on_c, 0, 75, 0
2, 7380, Note_on_c, 0, 74, 80
2, 7428, Note_on_c, 0, 74, 0
2, 7440, Note_on_c, 0, 72, 80
2, 7488, Note_on_c, 0, 72, 0
2, 7500, Note_on_c, 0, 70, 80
2, 7548, Note_on_c, 0, 70, 0
2, 7560, Note_on_c, 0, 69, 80
2, 7608, Note_on_c, 0, 69, 0
2, 7620, Note_on_c, 0, 79, 80
2, 7668, Note_on_c, 0, 79, 0
2, 7680, Note_on_c, 0, 77, 80
2, 7728, Note_on_c, 0, 77, 0
2, 7740, Note_on_c, 0, 75, 80
2, 7788, Note_on_c, 0, 75, 0
2, 7800, Note_on_c, 0, 74, 80
2, 7848, Note_on_c, 0, 74, 0
2, 7860, Note_on_c, 0, 72, 80
2, 7908, Note_on_c, 0, 72, 0
2, 7920, Note_on_c, 0, 74, 80
2, 8016, Note_on_c, 0, 74, 0
2, 8040, Note_on_c, 0, 74, 80
2, 8136, Note_on_c, 0, 74, 0
2, 8160, Note_on_c, 0, 70, 80
2, 8256, Note_on_c, 0, 70, 0
2, 8280, Note_on_c, 0, 72, 80
2, 8376, Note_on_c, 0, 72, 0
2, 8400, Note_on_c, 0, 77, 80
2, 8496, Note_on_c, 0, 77, 0
2, 8760, Note_on_c, 0, 70, 80
2, 8856, Note_on_c, 0, 70, 0
2, 8880, Note_on_c, 0, 67, 80
2, 8976, Note_on_c, 0, 67, 0
2, 9000, Note_on_c, 0, 69, 80
2, 9096, Note_on_c, 0, 69, 0
2, 9120, Note_on_c, 0, 74, 80
2, 9216, Note_on_c, 0, 74, 0
2, 9480, Note_on_c, 0, 67, 80
2, 9576, Note_on_c, 0, 67, 0
2, 9600, Note_on_c, 0, 70, 80
2, 9816, Note_on_c, 0, 70, 0
2, 9840, Note_on_c, 0, 65, 80
2, 9936, Note_on_c, 0, 65, 0
2, 9960, Note_on_c, 0, 70, 80
2, 10056, Note_on_c, 0, 70, 0
2, 10080, Note_on_c, 0, 69, 80
2, 10128, Note_on_c, 0, 69, 0
2, 10140, Note_on_c, 0, 70, 80
2, 10188, Note_on_c, 0, 70, 0
2, 10200, Note_on_c, 0, 72, 80
2, 10296, Note_on_c, 0, 72, 0
2, 10320, Note_on_c, 0, 70, 80
2, 10416, Note_on_c, 0, 70, 0
2, 10440, Note_on_c, 0, 79, 80
2, 10488, Note_on_c, 0, 79, 0
2, 10500, Note_on_c, 0, 80, 80
2, 10548, Note_on_c, 0, 80, 0
2, 10560, Note_on_c, 0, 79, 80
2, 10608, Note_on_c, 0, 79, 0
2, 10620, Note_on_c, 0, 77, 80
2, 10668, Note_on_c, 0, 77, 0
2, 10680, Note_on_c, 0, 75, 80
2, 10728, Note_on_c, 0, 75, 0
2, 10740, Note_on_c, 0, 74, 80
2, 10788, Note_on_c, 0, 74, 0
2, 10800, Note_on_c, 0, 75, 80
2, 10848, Note_on_c, 0, 75, 0
2, 10860, Note_on_c, 0, 77, 80
2, 10908, Note_on_c, 0, 77, 0
2, 10920, Note_on_c, 0, 75, 80
2, 10968, Note_on_c, 0, 75, 0
2, 10980, Note_on_c, 0, 74, 80
2, 11028, Note_on_c, 0, 74, 0
2, 11040, Note_on_c, 0, 72, 80
2, 11088, Note_on_c, 0, 72, 0
2, 11100, Note_on_c, 0, 70, 80
2, 11148, Note_on_c, 0, 70, 0
2, 11160, Note_on_c, 0, 69, 80
2, 11256, Note_on_c, 0, 69, 0
2, 11280, Note_on_c, 0, 77, 80
2, 11376, Note_on_c, 0, 77, 0
2, 11400, Note_on_c, 0, 77, 80
2, 11496, Note_on_c, 0, 77, 0
2, 11520, Note_on_c, 0, 77, 80
2, 11550, Note_on_c, 0, 77, 0
2, 11550, Note_on_c, 0, 79, 80
2, 11580, Note_on_c, 0, 79, 0
2, 11580, Note_on_c, 0, 77, 80
2, 11610, Note_on_c, 0, 77, 0
2, 11610, Note_on_c, 0, 79, 80
2, 11640, Note_on_c, 0, 79, 0
2, 11640, Note_on_c, 0, 77, 80
2, 11670, Note_on_c, 0, 77, 0
2, 11670, Note_on_c, 0, 79, 80
2, 11700, Note_on_c, 0, 79, 0
2, 11700, Note_on_c, 0, 77, 80
2, 11730, Note_on_c, 0, 77, 0
2, 11730, Note_on_c, 0, 79, 80
2, 11760, Note_on_c, 0, 79, 0
2, 11760, Note_on_c, 0, 77, 80
2, 11790, Note_on_c, 0, 77, 0
2, 11790, Note_on_c, 0, 79, 80
2, 11820, Note_on_c, 0, 79, 0
2, 11820, Note_on_c, 0, 77, 80
2, 11850, Note_on_c, 0, 77, 0
2, 11850, Note_on_c, 0, 79, 80
2, 11880, Note_on_c, 0, 79, 0
2, 11880, Note_on_c, 0, 77, 80
2, 11910, Note_on_c, 0, 77, 0
2, 11910, Note_on_c, 0, 79, 80
2, 11940, Note_on_c, 0, 79, 0
2, 11940, Note_on_c, 0, 77, 80
2, 11970, Note_on_c, 0, 77, 0
2, 11970, Note_on_c, 0, 79, 80
2, 12000, Note_on_c, 0, 79, 0
2, 12000, Note_on_c, 0, 77, 80
2, 12030, Note_on_c, 0, 77, 0
2, 12030, Note_on_c, 0, 79, 80
2, 12060, Note_on_c, 0, 79, 0
2, 12060, Note_on_c, 0, 77, 80
2, 12090, Note_on_c, 0, 77, 0
2, 12090, Note_on_c, 0, 79, 80
2, 12120, Note_on_c, 0, 79, 0
2, 12120, Note_on_c, 0, 77, 80
2, 12150, Note_on_c, 0, 77, 0
2, 12150, Note_on_c, 0, 79, 80
2, 12180, Note_on_c, 0, 79, 0
2, 12180, Note_on_c, 0, 77, 80
2, 12210, Note_on_c, 0, 77, 0
2, 12210, Note_on_c, 0, 79, 80
2, 12240, Note_on_c, 0, 79, 0
2, 12240, Note_on_c, 0, 77, 80
2, 12270, Note_on_c, 0, 77, 0
2, 12270, Note_on_c, 0, 79, 80
2, 12300, Note_on_c, 0, 79, 0
2, 12300, Note_on_c, 0, 77, 80
2, 12330, Note_on_c, 0, 77, 0
2, 12330, Note_on_c, 0, 79, 80
2, 12360, Note_on_c, 0, 79, 0
2, 12360, Note_on_c, 0, 77, 80
2, 12390, Note_on_c, 0, 77, 0
2, 12390, Note_on_c, 0, 79, 80
2, 12420, Note_on_c, 0, 79, 0
2, 12420, Note_on_c, 0, 77, 80
2, 12450, Note_on_c, 0, 77, 0
2, 12450, Note_on_c, 0, 79, 80
2, 12480, Note_on_c, 0, 79, 0
2, 12480, Note_on_c, 0, 77, 80
2, 12510, Note_on_c, 0, 77, 0
2, 12510, Note_on_c, 0, 79, 80
2, 12540, Note_on_c, 0, 79, 0
2, 12540, Note_on_c, 0, 77, 80
2, 12570, Note_on_c, 0, 77, 0
2, 12570, Note_on_c, 0, 79, 80
2, 12600, Note_on_c, 0, 79, 0
2, 12600, Note_on_c, 0, 77, 80
2, 12696, Note_on_c, 0, 77, 0
2, 12720, Note_on_c, 0, 72, 80
2, 12768, Note_on_c, 0, 72, 0
2, 12780, Note_on_c, 0, 70, 80
2, 12828, Note_on_c, 0, 70, 0
2, 12840, Note_on_c, 0, 72, 80
2, 12888, Note_on_c, 0, 72, 0
2, 12900, Note_on_c, 0, 74, 80
2, 12948, Note_on_c, 0, 74, 0
2, 12960, Note_on_c, 0, 75, 80
2, 13008, Note_on_c, 0, 75, 0
2, 13020, Note_on_c, 0, 74, 80
2, 13068, Note_on_c, 0, 74, 0
2, 13080, Note_on_c, 0, 72, 80
2, 13128, Note_on_c, 0, 72, 0
2, 13140, Note_on_c, 0, 75, 80
2, 13188, Note_on_c, 0, 75, 0
2, 13200, Note_on_c, 0, 74, 80
2, 13248, Note_on_c, 0, 74, 0
2, 13260, Note_on_c, 0, 72, 80
2, 13308, Note_on_c, 0, 72, 0
2, 13380, Note_on_c, 0, 70, 80
2, 13428, Note_on_c, 0, 70, 0
2, 13440, Note_on_c, 0, 74, 80
2, 13488, Note_on_c, 0, 74, 0
2, 13500, Note_on_c, 0, 65, 80
2, 13548, Note_on_c, 0, 65, 0
2, 13560, Note_on_c, 0, 67, 80
2, 13608, Note_on_c, 0, 67, 0
2, 13620, Note_on_c, 0, 75, 80
2, 13668, Note_on_c, 0, 75, 0
2, 13680, Note_on_c, 0, 68, 80
2, 13728, Note_on_c, 0, 68, 0
2, 13740, Note_on_c, 0, 67, 80
2, 13788, Note_on_c, 0, 67, 0
2, 13800, Note_on_c, 0, 68, 80
2, 13848, Note_on_c, 0, 68, 0
2, 13860, Note_on_c, 0, 77, 80
2, 13908, Note_on_c, 0, 77, 0
2, 13920, Note_on_c, 0, 67, 80
2, 13968, Note_on_c, 0, 67, 0
2, 13980, Note_on_c, 0, 75, 80
2, 14028, Note_on_c, 0, 75, 0
2, 14040, Note_on_c, 0, 65, 80
2, 14088, Note_on_c, 0, 65, 0
2, 14100, Note_on_c, 0, 70, 80
2, 14148, Note_on_c, 0, 70, 0
2, 14160, Note_on_c, 0, 74, 80
2, 14208, Note_on_c, 0, 74, 0
2, 14220, Note_on_c, 0, 65, 80
2, 14268, Note_on_c, 0, 65, 0
2, 14280, Note_on_c, 0, 67, 80
2, 14328, Note_on_c, 0, 67, 0
2, 14340, Note_on_c, 0, 75, 80
2, 14388, Note_on_c, 0, 75, 0
2, 14400, Note_on_c, 0, 68, 80
2, 14448, Note_on_c, 0, 68, 0
2, 14460, Note_on_c, 0, 67, 80
2, 14508, Note_on_c, 0, 67, 0
2, 14520, Note_on_c, 0, 68, 80
2, 14568, Note_on_c, 0, 68, 0
2, 14580, Note_on_c, 0, 77, 80
2, 14628, Note_on_c, 0, 77, 0
2, 14640, Note_on_c, 0, 67, 80
2, 14688, Note_on_c, 0, 67, 0
2, 14700, Note_on_c, 0, 75, 80
2, 14748, Note_on_c, 0, 75, 0
2, 14760, Note_on_c, 0, 65, 80
2, 14808, Note_on_c, 0, 65, 0
2, 14820, Note_on_c, 0, 70, 80
2, 14868, Note_on_c, 0, 70, 0
2, 14880, Note_on_c, 0, 74, 80
2, 14928, Note_on_c, 0, 74, 0
2, 14940, Note_on_c, 0, 75, 80
2, 14988, Note_on_c, 0, 75, 0
2, 15000, Note_on_c, 0, 77, 80
2, 15048, Note_on_c, 0, 77, 0
2, 15060, Note_on_c, 0, 79, 80
2, 15108, Note_on_c, 0, 79, 0
2, 15120, Note_on_c, 0, 80, 80
2, 15168, Note_on_c, 0, 80, 0
2, 15180, Note_on_c, 0, 79, 80
2, 15228, Note_on_c, 0, 79, 0
2, 15240, Note_on_c, 0, 77, 80
2, 15288, Note_on_c, 0, 77, 0
2, 15300, Note_on_c, 0, 80, 80
2, 15348, Note_on_c, 0, 80, 0
2, 15360, Note_on_c, 0, 79, 80
2, 15408, Note_on_c, 0, 79, 0
2, 15420, Note_on_c, 0, 77, 80
2, 15468, Note_on_c, 0, 77, 0
2, 15480, Note_on_c, 0, 79, 80
2, 15528, Note_on_c, 0, 79, 0
2, 15540, Note_on_c, 0, 77, 80
2, 15588, Note_on_c, 0, 77, 0
2, 15600, Note_on_c, 0, 75, 80
2, 15648, Note_on_c, 0, 75, 0
2, 15660, Note_on_c, 0, 74, 80
2, 15708, Note_on_c, 0, 74, 0
2, 15720, Note_on_c, 0, 72, 80
2, 15768, Note_on_c, 0, 72, 0
2, 15780, Note_on_c, 0, 70, 80
2, 15828, Note_on_c, 0, 70, 0
2, 15840, Note_on_c, 0, 69, 80
2, 15888, Note_on_c, 0, 69, 0
2, 15900, Note_on_c, 0, 70, 80
2, 15948, Note_on_c, 0, 70, 0
2, 15960, Note_on_c, 0, 72, 80
2, 16008, Note_on_c, 0, 72, 0
2, 16020, Note_on_c, 0, 75, 80
2, 16068, Note_on_c, 0, 75, 0
2, 16080, Note_on_c, 0, 74, 80
2, 16128, Note_on_c, 0, 74, 0
2, 16140, Note_on_c, 0, 72, 80
2, 16188, Note_on_c, 0, 72, 0
2, 16200, Note_on_c, 0, 74, 80
2, 16248, Note_on_c, 0, 74, 0
2, 16260, Note_on_c, 0, 75, 80
2, 16308, Note_on_c, 0, 75, 0
2, 16320, Note_on_c, 0, 77, 80
2, 16608, Note_on_c, 0, 77, 0
2, 16620, Note_on_c, 0, 72, 80
2, 16668, Note_on_c, 0, 72, 0
2, 16680, Note_on_c, 0, 72, 80
2, 16728, Note_on_c, 0, 72, 0
2, 16740, Note_on_c, 0, 75, 80
2, 16788, Note_on_c, 0, 75, 0
2, 16800, Note_on_c, 0, 74, 80
2, 16848, Note_on_c, 0, 74, 0
2, 16860, Note_on_c, 0, 72, 80
2, 16908, Note_on_c, 0, 72, 0
2, 16920, Note_on_c, 0, 74, 80
2, 16968, Note_on_c, 0, 74, 0
2, 16980, Note_on_c, 0, 75, 80
2, 17028, Note_on_c, 0, 75, 0
2, 17040, Note_on_c, 0, 77, 80
2, 17328, Note_on_c, 0, 77, 0
2, 17340, Note_on_c, 0, 72, 80
2, 17388, Note_on_c, 0, 72, 0
2, 17400, Note_on_c, 0, 72, 80
2, 17448, Note_on_c, 0, 72, 0
2, 17460, Note_on_c, 0, 75, 80
2, 17508, Note_on_c, 0, 75, 0
2, 17520, Note_on_c, 0, 74, 80
2, 17568, Note_on_c, 0, 74, 0
2, 17580, Note_on_c, 0, 72, 80
2, 17628, Note_on_c, 0, 72, 0
2, 17640, Note_on_c, 0, 74, 80
2, 17688, Note_on_c, 0, 74, 0
2, 17700, Note_on_c, 0, 75, 80
2, 17748, Note_on_c, 0, 75, 0
2, 17760, Note_on_c, 0, 75, 80
2, 17808, Note_on_c, 0, 75, 0
2, 17820, Note_on_c, 0, 77, 80
2, 17868, Note_on_c, 0, 77, 0
2, 17880, Note_on_c, 0, 77, 80
2, 17928, Note_on_c, 0, 77, 0
2, 17940, Note_on_c, 0, 79, 80
2, 17988, Note_on_c, 0, 79, 0
2, 18000, Note_on_c, 0, 79, 80
2, 18048, Note_on_c, 0, 79, 0
2, 18060, Note_on_c, 0, 81, 80
2, 18108, Note_on_c, 0, 81, 0
2, 18120, Note_on_c, 0, 81, 80
2, 18168, Note_on_c, 0, 81, 0
2, 18180, Note_on_c, 0, 82, 80
2, 18228, Note_on_c, 0, 82, 0
2, 18240, Note_on_c, 0, 82, 80
2, 18288, Note_on_c, 0, 82, 0
2, 18300, Note_on_c, 0, 70, 80
2, 18348, Note_on_c, 0, 70, 0
2, 18360, Note_on_c, 0, 79, 80
2, 18408, Note_on_c, 0, 79, 0
2, 18420, Note_on_c, 0, 75, 80
2, 18468, Note_on_c, 0, 75, 0
2, 18480, Note_on_c, 0, 74, 80
2, 18576, Note_on_c, 0, 74, 0
2, 18600, Note_on_c, 0, 72, 80
2, 18696, Note_on_c, 0, 72, 0
2, 18720, Note_on_c, 0, 70, 80
2, 18768, Note_on_c, 0, 70, 0
2, 18780, Note_on_c, 0, 72, 80
2, 18828, Note_on_c, 0, 72, 0
2, 18840, Note_on_c, 0, 74, 80
2, 19128, Note_on_c, 0, 74, 0
2, 19140, Note_on_c, 0, 69, 80
2, 19188, Note_on_c, 0, 69, 0
2, 19200, Note_on_c, 0, 69, 80
2, 19248, Note_on_c, 0, 69, 0
2, 19260, Note_on_c, 0, 72, 80
2, 19308, Note_on_c, 0, 72, 0
2, 19320, Note_on_c, 0, 70, 80
2, 19368, Note_on_c, 0, 70, 0
2, 19380, Note_on_c, 0, 69, 80
2, 19428, Note_on_c, 0, 69, 0
2, 19440, Note_on_c, 0, 70, 80
2, 19488, Note_on_c, 0, 70, 0
2, 19500, Note_on_c, 0, 72, 80
2, 19548, Note_on_c, 0, 72, 0
2, 19560, Note_on_c, 0, 74, 80
2, 19848, Note_on_c, 0, 74, 0
2, 19860, Note_on_c, 0, 69, 80
2, 19908, Note_on_c, 0, 69, 0
2, 19920, Note_on_c, 0, 69, 80
2, 19968, Note_on_c, 0, 69, 0
2, 19980, Note_on_c, 0, 72, 80
2, 20028, Note_on_c, 0, 72, 0
2, 20040, Note_on_c, 0, 70, 80
2, 20088, Note_on_c, 0, 70, 0
2, 20100, Note_on_c, 0, 69, 80
2, 20148, Note_on_c, 0, 69, 0
2, 20160, Note_on_c, 0, 70, 80
2, 20208, Note_on_c, 0, 70, 0
2, 20220, Note_on_c, 0, 74, 80
2, 20268, Note_on_c, 0, 74, 0
2, 20280, Note_on_c, 0, 77, 80
2, 20616, Note_on_c, 0, 77, 0
2, 20640, Note_on_c, 0, 75, 80
2, 20736, Note_on_c, 0, 75, 0
2, 20760, Note_on_c, 0, 74, 80
2, 20856, Note_on_c, 0, 74, 0
2, 20880, Note_on_c, 0, 75, 80
2, 20928, Note_on_c, 0, 75, 0
2, 20940, Note_on_c, 0, 72, 80
2, 20988, Note_on_c, 0, 72, 0
2, 21000, Note_on_c, 0, 70, 80
2, 21048, Note_on_c, 0, 70, 0
2, 21060, Note_on_c, 0, 69, 80
2, 21072, Note_on_c, 0, 69, 0
2, 21075, Note_on_c, 0, 70, 80
2, 21087, Note_on_c, 0, 70, 0
2, 21090, Note_on_c, 0, 69, 80
2, 21102, Note_on_c, 0, 69, 0
2, 21105, Note_on_c, 0, 70, 80
2, 21117, Note_on_c, 0, 70, 0
2, 21120, Note_on_c, 0, 69, 80
2, 21168, Note_on_c, 0, 69, 0
2, 21180, Note_on_c, 0, 70, 80
2, 21228, Note_on_c, 0, 70, 0
2, 21240, Note_on_c, 0, 70, 80
2, 21528, Note_on_c, 0, 70, 0
2, 22020, Note_on_c, 0, 75, 80
2, 22068, Note_on_c, 0, 75, 0
2, 22080, Note_on_c, 0, 74, 80
2, 22128, Note_on_c, 0, 74, 0
2, 22140, Note_on_c, 0, 72, 80
2, 22188, Note_on_c, 0, 72, 0
2, 22200, Note_on_c, 0, 70, 80
2, 22248, Note_on_c, 0, 70, 0
2, 22260, Note_on_c, 0, 69, 80
2, 22308, Note_on_c, 0, 69, 0
2, 22320, Note_on_c, 0, 70, 80
2, 22416, Note_on_c, 0, 70, 0
2, 22440, Note_on_c, 0, 82, 80
2, 22536, Note_on_c, 0, 82, 0
2, 22560, Note_on_c, 0, 70, 80
2, 22728, Note_on_c, 0, 70, 0
2, 22740, Note_on_c, 0, 75, 80
2, 22788, Note_on_c, 0, 75, 0
2, 22800, Note_on_c, 0, 74, 80
2, 22848, Note_on_c, 0, 74, 0
2, 22860, Note_on_c, 0, 72, 80
2, 22908, Note_on_c, 0, 72, 0
2, 22920, Note_on_c, 0, 70, 80
2, 22968, Note_on_c, 0, 70, 0
2, 22980, Note_on_c, 0, 69, 80
2, 23028, Note_on_c, 0, 69, 0
2, 23040, Note_on_c, 0, 70, 80
2, 23136, Note_on_c, 0, 70, 0
2, 23160, Note_on_c, 0, 77, 80
2, 23256, Note_on_c, 0, 77, 0
2, 23280, Note_on_c, 0, 79, 80
2, 23376, Note_on_c, 0, 79, 0
2, 23400, Note_on_c, 0, 72, 80
2, 23496, Note_on_c, 0, 72, 0
2, 23520, Note_on_c, 0, 74, 80
2, 23664, Note_on_c, 0, 74, 0
2, 23700, Note_on_c, 0, 75, 80
2, 23724, Note_on_c, 0, 75, 0
2, 23730, Note_on_c, 0, 77, 80
2, 23754, Note_on_c, 0, 77, 0
2, 23760, Note_on_c, 0, 72, 80
2, 23856, Note_on_c, 0, 72, 0
2, 23880, Note_on_c, 0, 74, 80
2, 24024, Note_on_c, 0, 74, 0
2, 24060, Note_on_c, 0, 75, 80
2, 24084, Note_on_c, 0, 75, 0
2, 24090, Note_on_c, 0, 77, 80
2, 24114, Note_on_c, 0, 77, 0
2, 24120, Note_on_c, 0, 72, 80
2, 24216, Note_on_c, 0, 72, 0
2, 24240, Note_on_c, 0, 65, 80
2, 24336, Note_on_c, 0, 65, 0
2, 24360, Note_on_c, 0, 77, 80
2, 24528, Note_on_c, 0, 77, 0
2, 24540, Note_on_c, 0, 80, 80
2, 24588, Note_on_c, 0, 80, 0
2, 24600, Note_on_c, 0, 79, 80
2, 24648, Note_on_c, 0, 79, 0
2, 24660, Note_on_c, 0, 77, 80
2, 24708, Note_on_c, 0, 77, 0
2, 24720, Note_on_c, 0, 75, 80
2, 24768, Note_on_c, 0, 75, 0
2, 24780, Note_on_c, 0, 74, 80
2, 24828, Note_on_c, 0, 74, 0
2, 24840, Note_on_c, 0, 75, 80
2, 24888, Note_on_c, 0, 75, 0
2, 24900, Note_on_c, 0, 74, 80
2, 24948, Note_on_c, 0, 74, 0
2, 24960, Note_on_c, 0, 75, 80
2, 25008, Note_on_c, 0, 75, 0
2, 25020, Note_on_c, 0, 77, 80
2, 25068, Note_on_c, 0, 77, 0
2, 25080, Note_on_c, 0, 79, 80
2, 25296, Note_on_c, 0, 79, 0
2, 25320, Note_on_c, 0, 77, 80
2, 25368, Note_on_c, 0, 77, 0
2, 25380, Note_on_c, 0, 75, 80
2, 25428, Note_on_c, 0, 75, 0
2, 25440, Note_on_c, 0, 74, 80
2, 25488, Note_on_c, 0, 74, 0
2, 25500, Note_on_c, 0, 72, 80
2, 25548, Note_on_c, 0, 72, 0
2, 25560, Note_on_c, 0, 71, 80
2, 25656, Note_on_c, 0, 71, 0
2, 25680, Note_on_c, 0, 72, 80
2, 25824, Note_on_c, 0, 72, 0
2, 25860, Note_on_c, 0, 74, 80
2, 25884, Note_on_c, 0, 74, 0
2, 25890, Note_on_c, 0, 75, 80
2, 25914, Note_on_c, 0, 75, 0
2, 25920, Note_on_c, 0, 71, 80
2, 26016, Note_on_c, 0, 71, 0
2, 26040, Note_on_c, 0, 72, 80
2, 26184, Note_on_c, 0, 72, 0
2, 26220, Note_on_c, 0, 74, 80
2, 26244, Note_on_c, 0, 74, 0
2, 26250, Note_on_c, 0, 75, 80
2, 26274, Note_on_c, 0, 75, 0
2, 26280, Note_on_c, 0, 71, 80
2, 26328, Note_on_c, 0, 71, 0
2, 26340, Note_on_c, 0, 79, 80
2, 26388, Note_on_c, 0, 79, 0
2, 26400, Note_on_c, 0, 79, 80
2, 26448, Note_on_c, 0, 79, 0
2, 26460, Note_on_c, 0, 77, 80
2, 26508, Note_on_c, 0, 77, 0
2, 26520, Note_on_c, 0, 77, 80
2, 26568, Note_on_c, 0, 77, 0
2, 26580, Note_on_c, 0, 75, 80
2, 26628, Note_on_c, 0, 75, 0
2, 26640, Note_on_c, 0, 74, 80
2, 26736, Note_on_c, 0, 74, 0
2, 26760, Note_on_c, 0, 76, 80
2, 26952, Note_on_c, 0, 76, 0
2, 27060, Note_on_c, 0, 77, 80
2, 27108, Note_on_c, 0, 77, 0
2, 27120, Note_on_c, 0, 77, 80
2, 27168, Note_on_c, 0, 77, 0
2, 27180, Note_on_c, 0, 75, 80
2, 27228, Note_on_c, 0, 75, 0
2, 27240, Note_on_c, 0, 75, 80
2, 27288, Note_on_c, 0, 75, 0
2, 27300, Note_on_c, 0, 74, 80
2, 27348, Note_on_c, 0, 74, 0
2, 27360, Note_on_c, 0, 74, 80
2, 27456, Note_on_c, 0, 74, 0
2, 27480, Note_on_c, 0, 74, 80
2, 27672, Note_on_c, 0, 74, 0
2, 27720, Note_on_c, 0, 75, 80
2, 27816, Note_on_c, 0, 75, 0
2, 27840, Note_on_c, 0, 63, 80
2, 27936, Note_on_c, 0, 63, 0
2, 27960, Note_on_c, 0, 75, 80
2, 28056, Note_on_c, 0, 75, 0
2, 28080, Note_on_c, 0, 74, 80
2, 28176, Note_on_c, 0, 74, 0
2, 28200, Note_on_c, 0, 75, 80
2, 28248, Note_on_c, 0, 75, 0
2, 28260, Note_on_c, 0, 74, 80
2, 28272, Note_on_c, 0, 74, 0
2, 28275, Note_on_c, 0, 75, 80
2, 28287, Note_on_c, 0, 75, 0
2, 28290, Note_on_c, 0, 74, 80
2, 28302, Note_on_c, 0, 74, 0
2, 28305, Note_on_c, 0, 75, 80
2, 28317, Note_on_c, 0, 75, 0
2, 28320, Note_on_c, 0, 74, 80
2, 28416, Note_on_c, 0, 74, 0
2, 28500, Note_on_c, 0, 79, 80
2, 28548, Note_on_c, 0, 79, 0
2, 28560, Note_on_c, 0, 80, 80
2, 28608, Note_on_c, 0, 80, 0
2, 28620, Note_on_c, 0, 79, 80
2, 28668, Note_on_c, 0, 79, 0
2, 28680, Note_on_c, 0, 77, 80
2, 28728, Note_on_c, 0, 77, 0
2, 28740, Note_on_c, 0, 75, 80
2, 28788, Note_on_c, 0, 75, 0
2, 28800, Note_on_c, 0, 77, 80
2, 28848, Note_on_c, 0, 77, 0
2, 28860, Note_on_c, 0, 77, 80
2, 28908, Note_on_c, 0, 77, 0
2, 28920, Note_on_c, 0, 79, 80
2, 28968, Note_on_c, 0, 79, 0
2, 28980, Note_on_c, 0, 77, 80
2, 29028, Note_on_c, 0, 77, 0
2, 29040, Note_on_c, 0, 75, 80
2, 29088, Note_on_c, 0, 75, 0
2, 29100, Note_on_c, 0, 74, 80
2, 29148, Note_on_c, 0, 74, 0
2, 29160, Note_on_c, 0, 75, 80
2, 29256, Note_on_c, 0, 75, 0
2, 29640, Note_on_c, 0, 69, 80
2, 29976, Note_on_c, 0, 69, 0
2, 30000, Note_on_c, 0, 62, 80
2, 30096, Note_on_c, 0, 62, 0
2, 30120, Note_on_c, 0, 67, 80
2, 30168, Note_on_c, 0, 67, 0
2, 30180, Note_on_c, 0, 65, 80
2, 30228, Note_on_c, 0, 65, 0
2, 30240, Note_on_c, 0, 63, 80
2, 30336, Note_on_c, 0, 63, 0
2, 30360, Note_on_c, 0, 75, 80
2, 30408, Note_on_c, 0, 75, 0
2, 30420, Note_on_c, 0, 74, 80
2, 30468, Note_on_c, 0, 74, 0
2, 30480, Note_on_c, 0, 72, 80
2, 30528, Note_on_c, 0, 72, 0
2, 30540, Note_on_c, 0, 70, 80
2, 30588, Note_on_c, 0, 70, 0
2, 30600, Note_on_c, 0, 69, 80
2, 30696, Note_on_c, 0, 69, 0
2, 30720, Note_on_c, 0, 70, 80
2, 30864, Note_on_c, 0, 70, 0
2, 30900, Note_on_c, 0, 72, 80
2, 30924, Note_on_c, 0, 72, 0
2, 30930, Note_on_c, 0, 74, 80
2, 30954, Note_on_c, 0, 74, 0
2, 30960, Note_on_c, 0, 69, 80
2, 31056, Note_on_c, 0, 69, 0
2, 31080, Note_on_c, 0, 70, 80
2, 31224, Note_on_c, 0, 70, 0
2, 31260, Note_on_c, 0, 72, 80
2, 31284, Note_on_c, 0, 72, 0
2, 31290, Note_on_c, 0, 74, 80
2, 31314, Note_on_c, 0, 74, 0
2, 31320, Note_on_c, 0, 69, 80
2, 31416, Note_on_c, 0, 69, 0
2, 31740, Note_on_c, 0, 79, 80
2, 31788, Note_on_c, 0, 79, 0
2, 31800, Note_on_c, 0, 79, 80
2, 31848, Note_on_c, 0, 79, 0
2, 31860, Note_on_c, 0, 77, 80
2, 31908, Note_on_c, 0, 77, 0
2, 31920, Note_on_c, 0, 77, 80
2, 31968, Note_on_c, 0, 77, 0
2, 31980, Note_on_c, 0, 75, 80
2, 32028, Note_on_c, 0, 75, 0
2, 32040, Note_on_c, 0, 75, 80
2, 32136, Note_on_c, 0, 75, 0
2, 32160, Note_on_c, 0, 76, 80
2, 32352, Note_on_c, 0, 76, 0
2, 32460, Note_on_c, 0, 77, 80
2, 32508, Note_on_c, 0, 77, 0
2, 32520, Note_on_c, 0, 77, 80
2, 32568, Note_on_c, 0, 77, 0
2, 32580, Note_on_c, 0, 75, 80
2, 32628, Note_on_c, 0, 75, 0
2, 32640, Note_on_c, 0, 75, 80
2, 32688, Note_on_c, 0, 75, 0
2, 32700, Note_on_c, 0, 74, 80
2, 32748, Note_on_c, 0, 74, 0
2, 32760, Note_on_c, 0, 74, 80
2, 32808, Note_on_c, 0, 74, 0
2, 32820, Note_on_c, 0, 74, 80
2, 32868, Note_on_c, 0, 74, 0
2, 32880, Note_on_c, 0, 75, 80
2, 32928, Note_on_c, 0, 75, 0
2, 32940, Note_on_c, 0, 74, 80
2, 32988, Note_on_c, 0, 74, 0
2, 33000, Note_on_c, 0, 72, 80
2, 33048, Note_on_c, 0, 72, 0
2, 33060, Note_on_c, 0, 70, 80
2, 33108, Note_on_c, 0, 70, 0
2, 33120, Note_on_c, 0, 72, 80
2, 33168, Note_on_c, 0, 72, 0
2, 33180, Note_on_c, 0, 72, 80
2, 33228, Note_on_c, 0, 72, 0
2, 33240, Note_on_c, 0, 74, 80
2, 33288, Note_on_c, 0, 74, 0
2, 33300, Note_on_c, 0, 72, 80
2, 33348, Note_on_c, 0, 72, 0
2, 33360, Note_on_c, 0, 70, 80
2, 33408, Note_on_c, 0, 70, 0
2, 33420, Note_on_c, 0, 69, 80
2, 33468, Note_on_c, 0, 69, 0
2, 33480, Note_on_c, 0, 70, 80
2, 33576, Note_on_c, 0, 70, 0
2, 33600, Note_on_c, 0, 70, 80
2, 33792, Note_on_c, 0, 70, 0
2, 33840, Note_on_c, 0, 69, 80
2, 33936, Note_on_c, 0, 69, 0
2, 33960, Note_on_c, 0, 69, 80
2, 34152, Note_on_c, 0, 69, 0
2, 34200, Note_on_c, 0, 67, 80
2, 34248, Note_on_c, 0, 67, 0
2, 34260, Note_on_c, 0, 82, 80
2, 34308, Note_on_c, 0, 82, 0
2, 34320, Note_on_c, 0, 82, 80
2, 34368, Note_on_c, 0, 82, 0
2, 34380, Note_on_c, 0, 81, 80
2, 34428, Note_on_c, 0, 81, 0
2, 34440, Note_on_c, 0, 81, 80
2, 34488, Note_on_c, 0, 81, 0
2, 34500, Note_on_c, 0, 79, 80
2, 34548, Note_on_c, 0, 79, 0
2, 34560, Note_on_c, 0, 79, 80
2, 34608, Note_on_c, 0, 79, 0
2, 34620, Note_on_c, 0, 78, 80
2, 34632, Note_on_c, 0, 78, 0
2, 34635, Note_on_c, 0, 79, 80
2, 34647, Note_on_c, 0, 79, 0
2, 34650, Note_on_c, 0, 78, 80
2, 34662, Note_on_c, 0, 78, 0
2, 34665, Note_on_c, 0, 79, 80
2, 34677, Note_on_c, 0, 79, 0
2, 34680, Note_on_c, 0, 78, 80
2, 34776, Note_on_c, 0, 78, 0
2, 34800, Note_on_c, 0, 79, 80
2, 34848, Note_on_c, 0, 79, 0
2, 34860, Note_on_c, 0, 74, 80
2, 34908, Note_on_c, 0, 74, 0
2, 34920, Note_on_c, 0, 75, 80
2, 34968, Note_on_c, 0, 75, 0
2, 34980, Note_on_c, 0, 72, 80
2, 35028, Note_on_c, 0, 72, 0
2, 35040, Note_on_c, 0, 70, 80
2, 35088, Note_on_c, 0, 70, 0
2, 35100, Note_on_c, 0, 69, 80
2, 35112, Note_on_c, 0, 69, 0
2, 35115, Note_on_c, 0, 70, 80
2, 35127, Note_on_c, 0, 70, 0
2, 35130, Note_on_c, 0, 69, 80
2, 35142, Note_on_c, 0, 69, 0
2, 35145, Note_on_c, 0, 70, 80
2, 35157, Note_on_c, 0, 70, 0
2, 35160, Note_on_c, 0, 69, 80
2, 35208, Note_on_c, 0, 69, 0
2, 35220, Note_on_c, 0, 67, 80
2, 35268, Note_on_c, 0, 67, 0
2, 35280, Note_on_c, 0, 67, 80
2, 35328, Note_on_c, 0, 67, 0
2, 35340, Note_on_c, 0, 70, 80
2, 35388, Note_on_c, 0, 70, 0
2, 35400, Note_on_c, 0, 72, 80
2, 35448, Note_on_c, 0, 72, 0
2, 35460, Note_on_c, 0, 74, 80
2, 35508, Note_on_c, 0, 74, 0
2, 35520, Note_on_c, 0, 75, 80
2, 35568, Note_on_c, 0, 75, 0
2, 35580, Note_on_c, 0, 77, 80
2, 35628, Note_on_c, 0, 77, 0
2, 35640, Note_on_c, 0, 79, 80
2, 35832, Note_on_c, 0, 79, 0
2, 36060, Note_on_c, 0, 80, 80
2, 36108, Note_on_c, 0, 80, 0
2, 36120, Note_on_c, 0, 79, 80
2, 36168, Note_on_c, 0, 79, 0
2, 36180, Note_on_c, 0, 77, 80
2, 36228, Note_on_c, 0, 77, 0
2, 36240, Note_on_c, 0, 75, 80
2, 36288, Note_on_c, 0, 75, 0
2, 36300, Note_on_c, 0, 74, 80
2, 36348, Note_on_c, 0, 74, 0
2, 36360, Note_on_c, 0, 75, 80
2, 36456, Note_on_c, 0, 75, 0
2, 36480, Note_on_c, 0, 63, 80
2, 36576, Note_on_c, 0, 63, 0
2, 36600, Note_on_c, 0, 63, 80
2, 36696, Note_on_c, 0, 63, 0
2, 36720, Note_on_c, 0, 63, 80
2, 36768, Note_on_c, 0, 63, 0
2, 36780, Note_on_c, 0, 80, 80
2, 36828, Note_on_c, 0, 80, 0
2, 36840, Note_on_c, 0, 79, 80
2, 36888, Note_on_c, 0, 79, 0
2, 36900, Note_on_c, 0, 77, 80
2, 36948, Note_on_c, 0, 77, 0
2, 36960, Note_on_c, 0, 75, 80
2, 37008, Note_on_c, 0, 75, 0
2, 37020, Note_on_c, 0, 74, 80
2, 37068, Note_on_c, 0, 74, 0
2, 37080, Note_on_c, 0, 75, 80
2, 37128, Note_on_c, 0, 75, 0
2, 37140, Note_on_c, 0, 70, 80
2, 37188, Note_on_c, 0, 70, 0
2, 37200, Note_on_c, 0, 75, 80
2, 37248, Note_on_c, 0, 75, 0
2, 37260, Note_on_c, 0, 79, 80
2, 37308, Note_on_c, 0, 79, 0
2, 37320, Note_on_c, 0, 82, 80
2, 37368, Note_on_c, 0, 82, 0
2, 37380, Note_on_c, 0, 70, 80
2, 37428, Note_on_c, 0, 70, 0
2, 37440, Note_on_c, 0, 72, 80
2, 37488, Note_on_c, 0, 72, 0
2, 37500, Note_on_c, 0, 82, 80
2, 37548, Note_on_c, 0, 82, 0
2, 37560, Note_on_c, 0, 80, 80
2, 37608, Note_on_c, 0, 80, 0
2, 37620, Note_on_c, 0, 79, 80
2, 37668, Note_on_c, 0, 79, 0
2, 37680, Note_on_c, 0, 80, 80
2, 37728, Note_on_c, 0, 80, 0
2, 37740, Note_on_c, 0, 72, 80
2, 37788, Note_on_c, 0, 72, 0
2, 37800, Note_on_c, 0, 70, 80
2, 37848, Note_on_c, 0, 70, 0
2, 37860, Note_on_c, 0, 80, 80
2, 37908, Note_on_c, 0, 80, 0
2, 37920, Note_on_c, 0, 79, 80
2, 37968, Note_on_c, 0, 79, 0
2, 37980, Note_on_c, 0, 77, 80
2, 38028, Note_on_c, 0, 77, 0
2, 38040, Note_on_c, 0, 79, 80
2, 38088, Note_on_c, 0, 79, 0
2, 38100, Note_on_c, 0, 70, 80
2, 38148, Note_on_c, 0, 70, 0
2, 38160, Note_on_c, 0, 68, 80
2, 38208, Note_on_c, 0, 68, 0
2, 38220, Note_on_c, 0, 79, 80
2, 38268, Note_on_c, 0, 79, 0
2, 38280, Note_on_c, 0, 77, 80
2, 38328, Note_on_c, 0, 77, 0
2, 38340, Note_on_c, 0, 75, 80
2, 38388, Note_on_c, 0, 75, 0
2, 38400, Note_on_c, 0, 77, 80
2, 38448, Note_on_c, 0, 77, 0
2, 38460, Note_on_c, 0, 68, 80
2, 38508, Note_on_c, 0, 68, 0
2, 38520, Note_on_c, 0, 67, 80
2, 38616, Note_on_c, 0, 67, 0
2, 40020, Note_on_c, 0, 70, 80
2, 40068, Note_on_c, 0, 70, 0
2, 40080, Note_on_c, 0, 75, 80
2, 40128, Note_on_c, 0, 75, 0
2, 40140, Note_on_c, 0, 73, 80
2, 40188, Note_on_c, 0, 73, 0
2, 40200, Note_on_c, 0, 72, 80
2, 40248, Note_on_c, 0, 72, 0
2, 40260, Note_on_c, 0, 70, 80
2, 40308, Note_on_c, 0, 70, 0
2, 40320, Note_on_c, 0, 72, 80
2, 40368, Note_on_c, 0, 72, 0
2, 40380, Note_on_c, 0, 73, 80
2, 40428, Note_on_c, 0, 73, 0
2, 40440, Note_on_c, 0, 72, 80
2, 40488, Note_on_c, 0, 72, 0
2, 40500, Note_on_c, 0, 70, 80
2, 40548, Note_on_c, 0, 70, 0
2, 40560, Note_on_c, 0, 68, 80
2, 40608, Note_on_c, 0, 68, 0
2, 40620, Note_on_c, 0, 67, 80
2, 40668, Note_on_c, 0, 67, 0
2, 40680, Note_on_c, 0, 65, 80
2, 40728, Note_on_c, 0, 65, 0
2, 40740, Note_on_c, 0, 70, 80
2, 40788, Note_on_c, 0, 70, 0
2, 40800, Note_on_c, 0, 74, 80
2, 40848, Note_on_c, 0, 74, 0
2, 40860, Note_on_c, 0, 65, 80
2, 40908, Note_on_c, 0, 65, 0
2, 40920, Note_on_c, 0, 67, 80
2, 40968, Note_on_c, 0, 67, 0
2, 40980, Note_on_c, 0, 75, 80
2, 41028, Note_on_c, 0, 75, 0
2, 41040, Note_on_c, 0, 68, 80
2, 41088, Note_on_c, 0, 68, 0
2, 41100, Note_on_c, 0, 67, 80
2, 41148, Note_on_c, 0, 67, 0
2, 41160, Note_on_c, 0, 68, 80
2, 41208, Note_on_c, 0, 68, 0
2, 41220, Note_on_c, 0, 77, 80
2, 41268, Note_on_c, 0, 77, 0
2, 41280, Note_on_c, 0, 67, 80
2, 41328, Note_on_c, 0, 67, 0
2, 41340, Note_on_c, 0, 75, 80
2, 41388, Note_on_c, 0, 75, 0
2, 41400, Note_on_c, 0, 65, 80
2, 41448, Note_on_c, 0, 65, 0
2, 41460, Note_on_c, 0, 70, 80
2, 41508, Note_on_c, 0, 70, 0
2, 41520, Note_on_c, 0, 74, 80
2, 41568, Note_on_c, 0, 74, 0
2, 41580, Note_on_c, 0, 65, 80
2, 41628, Note_on_c, 0, 65, 0
2, 41640, Note_on_c, 0, 67, 80
2, 41688, Note_on_c, 0, 67, 0
2, 41700, Note_on_c, 0, 75, 80
2, 41748, Note_on_c, 0, 75, 0
2, 41760, Note_on_c, 0, 68, 80
2, 41808, Note_on_c, 0, 68, 0
2, 41820, Note_on_c, 0, 67, 80
2, 41868, Note_on_c, 0, 67, 0
2, 41880, Note_on_c, 0, 68, 80
2, 41928, Note_on_c, 0, 68, 0
2, 41940, Note_on_c, 0, 77, 80
2, 41988, Note_on_c, 0, 77, 0
2, 42000, Note_on_c, 0, 67, 80
2, 42048, Note_on_c, 0, 67, 0
2, 42060, Note_on_c, 0, 75, 80
2, 42108, Note_on_c, 0, 75, 0
2, 42120, Note_on_c, 0, 65, 80
2, 42168, Note_on_c, 0, 65, 0
2, 42180, Note_on_c, 0, 70, 80
2, 42228, Note_on_c, 0, 70, 0
2, 42240, Note_on_c, 0, 74, 80
2, 42288, Note_on_c, 0, 74, 0
2, 42300, Note_on_c, 0, 75, 80
2, 42348, Note_on_c, 0, 75, 0
2, 42360, Note_on_c, 0, 77, 80
2, 42408, Note_on_c, 0, 77, 0
2, 42420, Note_on_c, 0, 79, 80
2, 42468, Note_on_c, 0, 79, 0
2, 42480, Note_on_c, 0, 80, 80
2, 42528, Note_on_c, 0, 80, 0
2, 42540, Note_on_c, 0, 79, 80
2, 42588, Note_on_c, 0, 79, 0
2, 42600, Note_on_c, 0, 77, 80
2, 42648, Note_on_c, 0, 77, 0
2, 42660, Note_on_c, 0, 79, 80
2, 42708, Note_on_c, 0, 79, 0
2, 42720, Note_on_c, 0, 80, 80
2, 42768, Note_on_c, 0, 80, 0
2, 42780, Note_on_c, 0, 77, 80
2, 42828, Note_on_c, 0, 77, 0
2, 42840, Note_on_c, 0, 79, 80
2, 42936, Note_on_c, 0, 79, 0
2, 42960, Note_on_c, 0, 75, 80
2, 43056, Note_on_c, 0, 75, 0
2, 43080, Note_on_c, 0, 75, 80
2, 43176, Note_on_c, 0, 75, 0
2, 43200, Note_on_c, 0, 75, 80
2, 43230, Note_on_c, 0, 75, 0
2, 43230, Note_on_c, 0, 77, 80
2, 43260, Note_on_c, 0, 77, 0
2, 43260, Note_on_c, 0, 75, 80
2, 43290, Note_on_c, 0, 75, 0
2, 43290, Note_on_c, 0, 77, 80
2, 43320, Note_on_c, 0, 77, 0
2, 43320, Note_on_c, 0, 75, 80
2, 43350, Note_on_c, 0, 75, 0
2, 43350, Note_on_c, 0, 77, 80
2, 43380, Note_on_c, 0, 77, 0
2, 43380, Note_on_c, 0, 75, 80
2, 43410, Note_on_c, 0, 75, 0
2, 43410, Note_on_c, 0, 77, 80
2, 43440, Note_on_c, 0, 77, 0
2, 43440, Note_on_c, 0, 75, 80
2, 43470, Note_on_c, 0, 75, 0
2, 43470, Note_on_c, 0, 77, 80
2, 43500, Note_on_c, 0, 77, 0
2, 43500, Note_on_c, 0, 75, 80
2, 43530, Note_on_c, 0, 75, 0
2, 43530, Note_on_c, 0, 77, 80
2, 43560, Note_on_c, 0, 77, 0
2, 43560, Note_on_c, 0, 75, 80
2, 43590, Note_on_c, 0, 75, 0
2, 43590, Note_on_c, 0, 77, 80
2, 43620, Note_on_c, 0, 77, 0
2, 43620, Note_on_c, 0, 75, 80
2, 43650, Note_on_c, 0, 75, 0
2, 43650, Note_on_c, 0, 77, 80
2, 43680, Note_on_c, 0, 77, 0
2, 43680, Note_on_c, 0, 75, 80
2, 43710, Note_on_c, 0, 75, 0
2, 43710, Note_on_c, 0, 77, 80
2, 43740, Note_on_c, 0, 77, 0
2, 43740, Note_on_c, 0, 75, 80
2, 43770, Note_on_c, 0, 75, 0
2, 43770, Note_on_c, 0, 77, 80
2, 43800, Note_on_c, 0, 77, 0
2, 43800, Note_on_c, 0, 75, 80
2, 43830, Note_on_c, 0, 75, 0
2, 43830, Note_on_c, 0, 77, 80
2, 43860, Note_on_c, 0, 77, 0
2, 43860, Note_on_c, 0, 75, 80
2, 43890, Note_on_c, 0, 75, 0
2, 43890, Note_on_c, 0, 77, 80
2, 43920, Note_on_c, 0, 77, 0
2, 43920, Note_on_c, 0, 75, 80
2, 43950, Note_on_c, 0, 75, 0
2, 43950, Note_on_c, 0, 77, 80
2, 43980, Note_on_c, 0, 77, 0
2, 43980, Note_on_c, 0, 75, 80
2, 44010, Note_on_c, 0, 75, 0
2, 44010, Note_on_c, 0, 77, 80
2, 44040, Note_on_c, 0, 77, 0
2, 44040, Note_on_c, 0, 75, 80
2, 44070, Note_on_c, 0, 75, 0
2, 44070, Note_on_c, 0, 77, 80
2, 44100, Note_on_c, 0, 77, 0
2, 44100, Note_on_c, 0, 75, 80
2, 44130, Note_on_c, 0, 75, 0
2, 44130, Note_on_c, 0, 77, 80
2, 44160, Note_on_c, 0, 77, 0
2, 44160, Note_on_c, 0, 75, 80
2, 44190, Note_on_c, 0, 75, 0
2, 44190, Note_on_c, 0, 77, 80
2, 44220, Note_on_c, 0, 77, 0
2, 44220, Note_on_c, 0, 75, 80
2, 44250, Note_on_c, 0, 75, 0
2, 44250, Note_on_c, 0, 77, 80
2, 44280, Note_on_c, 0, 77, 0
2, 44280, Note_on_c, 0, 75, 80
2, 44424, Note_on_c, 0, 75, 0
2, 44460, Note_on_c, 0, 77, 80
2, 44508, Note_on_c, 0, 77, 0
2, 44520, Note_on_c, 0, 79, 80
2, 44568, Note_on_c, 0, 79, 0
2, 44580, Note_on_c, 0, 80, 80
2, 44628, Note_on_c, 0, 80, 0
2, 44640, Note_on_c, 0, 82, 80
2, 44688, Note_on_c, 0, 82, 0
2, 44700, Note_on_c, 0, 80, 80
2, 44748, Note_on_c, 0, 80, 0
2, 44760, Note_on_c, 0, 79, 80
2, 44808, Note_on_c, 0, 79, 0
2, 44820, Note_on_c, 0, 82, 80
2, 44868, Note_on_c, 0, 82, 0
2, 44880, Note_on_c, 0, 80, 80
2, 44928, Note_on_c, 0, 80, 0
2, 44940, Note_on_c, 0, 79, 80
2, 44988, Note_on_c, 0, 79, 0
2, 45000, Note_on_c, 0, 80, 80
2, 45096, Note_on_c, 0, 80, 0
2, 45120, Note_on_c, 0, 84, 80
2, 45168, Note_on_c, 0, 84, 0
2, 45180, Note_on_c, 0, 82, 80
2, 45228, Note_on_c, 0, 82, 0
2, 45240, Note_on_c, 0, 80, 80
2, 45288, Note_on_c, 0, 80, 0
2, 45300, Note_on_c, 0, 79, 80
2, 45348, Note_on_c, 0, 79, 0
2, 45360, Note_on_c, 0, 77, 80
2, 45408, Note_on_c, 0, 77, 0
2, 45420, Note_on_c, 0, 75, 80
2, 45468, Note_on_c, 0, 75, 0
2, 45480, Note_on_c, 0, 74, 80
2, 45528, Note_on_c, 0, 74, 0
2, 45540, Note_on_c, 0, 77, 80
2, 45588, Note_on_c, 0, 77, 0
2, 45600, Note_on_c, 0, 75, 80
2, 45648, Note_on_c, 0, 75, 0
2, 45660, Note_on_c, 0, 74, 80
2, 45708, Note_on_c, 0, 74, 0
2, 45720, Note_on_c, 0, 75, 80
2, 45768, Note_on_c, 0, 75, 0
2, 45780, Note_on_c, 0, 77, 80
2, 45828, Note_on_c, 0, 77, 0
2, 45840, Note_on_c, 0, 79, 80
2, 46128, Note_on_c, 0, 79, 0
2, 46140, Note_on_c, 0, 74, 80
2, 46188, Note_on_c, 0, 74, 0
2, 46200, Note_on_c, 0, 74, 80
2, 46248, Note_on_c, 0, 74, 0
2, 46260, Note_on_c, 0, 77, 80
2, 46308, Note_on_c, 0, 77, 0
2, 46320, Note_on_c, 0, 75, 80
2, 46368, Note_on_c, 0, 75, 0
2, 46380, Note_on_c, 0, 74, 80
2, 46428, Note_on_c, 0, 74, 0
2, 46440, Note_on_c, 0, 75, 80
2, 46488, Note_on_c, 0, 75, 0
2, 46500, Note_on_c, 0, 77, 80
2, 46548, Note_on_c, 0, 77, 0
2, 46560, Note_on_c, 0, 79, 80
2, 46848, Note_on_c, 0, 79, 0
2, 46860, Note_on_c, 0, 74, 80
2, 46908, Note_on_c, 0, 74, 0
2, 46920, Note_on_c, 0, 74, 80
2, 46968, Note_on_c, 0, 74, 0
2, 46980, Note_on_c, 0, 77, 80
2, 47028, Note_on_c, 0, 77, 0
2, 47040, Note_on_c, 0, 75, 80
2, 47088, Note_on_c, 0, 75, 0
2, 47100, Note_on_c, 0, 74, 80
2, 47148, Note_on_c, 0, 74, 0
2, 47160, Note_on_c, 0, 75, 80
2, 47448, Note_on_c, 0, 75, 0
2, 47520, Note_on_c, 0, 75, 80
2, 47592, Note_on_c, 0, 75, 0
2, 47610, Note_on_c, 0, 80, 80
2, 47634, Note_on_c, 0, 80, 0
2, 47640, Note_on_c, 0, 80, 80
2, 47736, Note_on_c, 0, 80, 0
2, 47760, Note_on_c, 0, 79, 80
2, 47856, Note_on_c, 0, 79, 0
2, 47880, Note_on_c, 0, 77, 80
2, 47976, Note_on_c, 0, 77, 0
2, 48000, Note_on_c, 0, 75, 80
2, 48096, Note_on_c, 0, 75, 0
2, 48120, Note_on_c, 0, 74, 80
2, 48216, Note_on_c, 0, 74, 0
2, 48240, Note_on_c, 0, 75, 80
2, 48336, Note_on_c, 0, 75, 0
2, 48360, Note_on_c, 0, 70, 80
2, 48648, Note_on_c, 0, 70, 0
2, 48660, Note_on_c, 0, 65, 80
2, 48708, Note_on_c, 0, 65, 0
2, 48720, Note_on_c, 0, 65, 80
2, 48768, Note_on_c, 0, 65, 0
2, 48780, Note_on_c, 0, 68, 80
2, 48828, Note_on_c, 0, 68, 0
2, 48840, Note_on_c, 0, 67, 80
2, 48888, Note_on_c, 0, 67, 0
2, 48900, Note_on_c, 0, 65, 80
2, 48948, Note_on_c, 0, 65, 0
2, 48960, Note_on_c, 0, 67, 80
2, 49008, Note_on_c, 0, 67, 0
2, 49020, Note_on_c, 0, 68, 80
2, 49068, Note_on_c, 0, 68, 0
2, 49080, Note_on_c, 0, 70, 80
2, 49368, Note_on_c, 0, 70, 0
2, 49380, Note_on_c, 0, 65, 80
2, 49428, Note_on_c, 0, 65, 0
2, 49440, Note_on_c, 0, 65, 80
2, 49488, Note_on_c, 0, 65, 0
2, 49500, Note_on_c, 0, 68, 80
2, 49548, Note_on_c, 0, 68, 0
2, 49560, Note_on_c, 0, 67, 80
2, 49608, Note_on_c, 0, 67, 0
2, 49620, Note_on_c, 0, 65, 80
2, 49668, Note_on_c, 0, 65, 0
2, 49680, Note_on_c, 0, 67, 80
2, 49728, Note_on_c, 0, 67, 0
2, 49740, Note_on_c, 0, 70, 80
2, 49788, Note_on_c, 0, 70, 0
2, 49800, Note_on_c, 0, 75, 80
2, 49848, Note_on_c, 0, 75, 0
2, 49860, Note_on_c, 0, 74, 80
2, 49908, Note_on_c, 0, 74, 0
2, 49920, Note_on_c, 0, 72, 80
2, 49968, Note_on_c, 0, 72, 0
2, 49980, Note_on_c, 0, 70, 80
2, 50028, Note_on_c, 0, 70, 0
2, 50040, Note_on_c, 0, 72, 80
2, 50088, Note_on_c, 0, 72, 0
2, 50100, Note_on_c, 0, 70, 80
2, 50148, Note_on_c, 0, 70, 0
2, 50160, Note_on_c, 0, 72, 80
2, 50208, Note_on_c, 0, 72, 0
2, 50220, Note_on_c, 0, 74, 80
2, 50268, Note_on_c, 0, 74, 0
2, 50280, Note_on_c, 0, 75, 80
2, 50328, Note_on_c, 0, 75, 0
2, 50340, Note_on_c, 0, 63, 80
2, 50388, Note_on_c, 0, 63, 0
2, 50400, Note_on_c, 0, 72, 80
2, 50448, Note_on_c, 0, 72, 0
2, 50460, Note_on_c, 0, 68, 80
2, 50508, Note_on_c, 0, 68, 0
2, 50520, Note_on_c, 0, 67, 80
2, 50568, Note_on_c, 0, 67, 0
2, 50580, Note_on_c, 0, 65, 80
2, 50595, Note_on_c, 0, 65, 0
2, 50595, Note_on_c, 0, 67, 80
2, 50610, Note_on_c, 0, 67, 0
2, 50610, Note_on_c, 0, 65, 80
2, 50625, Note_on_c, 0, 65, 0
2, 50625, Note_on_c, 0, 67, 80
2, 50640, Note_on_c, 0, 67, 0
2, 50640, Note_on_c, 0, 65, 80
2, 50700, Note_on_c, 0, 65, 0
2, 50700, Note_on_c, 0, 63, 80
2, 50748, Note_on_c, 0, 63, 0
2, 50760, Note_on_c, 0, 63, 80
2, 51048, Note_on_c, 0, 63, 0
2, 51048, End_track
3, 0, Start_track
3, 0, MIDI_port, 0
3, 0, Title_t, "by JS Bach  3rd movement - Allegro"
3, 0, Program_c, 1, 6
3, 0, Control_c, 1, 7, 100
3, 0, Control_c, 1, 10, 72
3, 60, Note_on_c, 1, 63, 80
3, 108, Note_on_c, 1, 63, 0
3, 120, Note_on_c, 1, 67, 80
3, 168, Note_on_c, 1, 67, 0
3, 180, Note_on_c, 1, 70, 80
3, 228, Note_on_c, 1, 70, 0
3, 240, Note_on_c, 1, 75, 80
3, 288, Note_on_c, 1, 75, 0
3, 300, Note_on_c, 1, 70, 80
3, 348, Note_on_c, 1, 70, 0
3, 360, Note_on_c, 1, 72, 80
3, 408, Note_on_c, 1, 72, 0
3, 420, Note_on_c, 1, 84, 80
3, 468, Note_on_c, 1, 84, 0
3, 480, Note_on_c, 1, 82, 80
3, 528, Note_on_c, 1, 82, 0
3, 540, Note_on_c, 1, 80, 80
3, 588, Note_on_c, 1, 80, 0
3, 600, Note_on_c, 1, 79, 80
3, 648, Note_on_c, 1, 79, 0
3, 660, Note_on_c, 1, 77, 80
3, 708, Note_on_c, 1, 77, 0
3, 720, Note_on_c, 1, 79, 80
3, 768, Note_on_c, 1, 79, 0
3, 780, Note_on_c, 1, 63, 80
3, 828, Note_on_c, 1, 63, 0
3, 840, Note_on_c, 1, 67, 80
3, 888, Note_on_c, 1, 67, 0
3, 900, Note_on_c, 1, 70, 80
3, 948, Note_on_c, 1, 70, 0
3, 960, Note_on_c, 1, 75, 80
3, 1008, Note_on_c, 1, 75, 0
3, 1020, Note_on_c, 1, 70, 80
3, 1068, Note_on_c, 1, 70, 0
3, 1080, Note_on_c, 1, 72, 80
3, 1128, Note_on_c, 1, 72, 0
3, 1140, Note_on_c, 1, 84, 80
3, 1188, Note_on_c, 1, 84, 0
3, 1200, Note_on_c, 1, 82, 80
3, 1248, Note_on_c, 1, 82, 0
3, 1260, Note_on_c, 1, 80, 80
3, 1308, Note_on_c, 1, 80, 0
3, 1320, Note_on_c, 1, 79, 80
3, 1368, Note_on_c, 1, 79, 0
3, 1380, Note_on_c, 1, 77, 80
3, 1428, Note_on_c, 1, 77, 0
3, 1440, Note_on_c, 1, 79, 80
3, 1488, Note_on_c, 1, 79, 0
3, 1500, Note_on_c, 1, 82, 80
3, 1548, Note_on_c, 1, 82, 0
3, 1560, Note_on_c, 1, 80, 80
3, 1608, Note_on_c, 1, 80, 0
3, 1620, Note_on_c, 1, 79, 80
3, 1668, Note_on_c, 1, 79, 0
3, 1680, Note_on_c, 1, 77, 80
3, 1728, Note_on_c, 1, 77, 0
3, 1740, Note_on_c, 1, 75, 80
3, 1788, Note_on_c, 1, 75, 0
3, 1800, Note_on_c, 1, 74, 80
3, 1896, Note_on_c, 1, 74, 0
3, 1920, Note_on_c, 1, 75, 80
3, 2064, Note_on_c, 1, 75, 0
3, 2100, Note_on_c, 1, 77, 80
3, 2124, Note_on_c, 1, 77, 0
3, 2130, Note_on_c, 1, 79, 80
3, 2154, Note_on_c, 1, 79, 0
3, 2160, Note_on_c, 1, 74, 80
3, 2256, Note_on_c, 1, 74, 0
3, 2280, Note_on_c, 1, 75, 80
3, 2424, Note_on_c, 1, 75, 0
3, 2460, Note_on_c, 1, 77, 80
3, 2484, Note_on_c, 1, 77, 0
3, 2490, Note_on_c, 1, 79, 80
3, 2514, Note_on_c, 1, 79, 0
3, 2520, Note_on_c, 1, 74, 80
3, 2568, Note_on_c, 1, 74, 0
3, 2580, Note_on_c, 1, 72, 80
3, 2628, Note_on_c, 1, 72, 0
3, 2640, Note_on_c, 1, 70, 80
3, 2688, Note_on_c, 1, 70, 0
3, 2700, Note_on_c, 1, 68, 80
3, 2748, Note_on_c, 1, 68, 0
3, 2760, Note_on_c, 1, 67, 80
3, 2808, Note_on_c, 1, 67, 0
3, 2820, Note_on_c, 1, 65, 80
3, 2868, Note_on_c, 1, 65, 0
3, 2880, Note_on_c, 1, 63, 80
3, 3072, Note_on_c, 1, 63, 0
3, 3120, Note_on_c, 1, 70, 80
3, 3168, Note_on_c, 1, 70, 0
3, 3180, Note_on_c, 1, 67, 80
3, 3228, Note_on_c, 1, 67, 0
3, 3240, Note_on_c, 1, 63, 80
3, 3288, Note_on_c, 1, 63, 0
3, 3300, Note_on_c, 1, 80, 80
3, 3348, Note_on_c, 1, 80, 0
3, 3360, Note_on_c, 1, 79, 80
3, 3408, Note_on_c, 1, 79, 0
3, 3420, Note_on_c, 1, 77, 80
3, 3468, Note_on_c, 1, 77, 0
3, 3480, Note_on_c, 1, 75, 80
3, 3528, Note_on_c, 1, 75, 0
3, 3540, Note_on_c, 1, 74, 80
3, 3588, Note_on_c, 1, 74, 0
3, 3600, Note_on_c, 1, 75, 80
3, 3696, Note_on_c, 1, 75, 0
3, 3720, Note_on_c, 1, 63, 80
3, 3816, Note_on_c, 1, 63, 0
3, 3840, Note_on_c, 1, 63, 80
3, 3936, Note_on_c, 1, 63, 0
3, 3960, Note_on_c, 1, 63, 80
3, 4008, Note_on_c, 1, 63, 0
3, 4020, Note_on_c, 1, 80, 80
3, 4068, Note_on_c, 1, 80, 0
3, 4080, Note_on_c, 1, 79, 80
3, 4128, Note_on_c, 1, 79, 0
3, 4140, Note_on_c, 1, 77, 80
3, 4188, Note_on_c, 1, 77, 0
3, 4200, Note_on_c, 1, 75, 80
3, 4248, Note_on_c, 1, 75, 0
3, 4260, Note_on_c, 1, 74, 80
3, 4308, Note_on_c, 1, 74, 0
3, 4320, Note_on_c, 1, 75, 80
3, 4416, Note_on_c, 1, 75, 0
3, 4440, Note_on_c, 1, 79, 80
3, 4536, Note_on_c, 1, 79, 0
3, 4560, Note_on_c, 1, 75, 80
3, 4656, Note_on_c, 1, 75, 0
3, 4680, Note_on_c, 1, 77, 80
3, 4776, Note_on_c, 1, 77, 0
3, 4800, Note_on_c, 1, 82, 80
3, 4896, Note_on_c, 1, 82, 0
3, 5160, Note_on_c, 1, 75, 80
3, 5256, Note_on_c, 1, 75, 0
3, 5280, Note_on_c, 1, 72, 80
3, 5376, Note_on_c, 1, 72, 0
3, 5400, Note_on_c, 1, 74, 80
3, 5496, Note_on_c, 1, 74, 0
3, 5520, Note_on_c, 1, 79, 80
3, 5616, Note_on_c, 1, 79, 0
3, 5880, Note_on_c, 1, 72, 80
3, 5976, Note_on_c, 1, 72, 0
3, 6000, Note_on_c, 1, 75, 80
3, 6216, Note_on_c, 1, 75, 0
3, 6240, Note_on_c, 1, 70, 80
3, 6336, Note_on_c, 1, 70, 0
3, 6360, Note_on_c, 1, 75, 80
3, 6456, Note_on_c, 1, 75, 0
3, 6480, Note_on_c, 1, 74, 80
3, 6528, Note_on_c, 1, 74, 0
3, 6540, Note_on_c, 1, 75, 80
3, 6588, Note_on_c, 1, 75, 0
3, 6600, Note_on_c, 1, 77, 80
3, 6696, Note_on_c, 1, 77, 0
3, 6720, Note_on_c, 1, 75, 80
3, 6816, Note_on_c, 1, 75, 0
3, 6840, Note_on_c, 1, 74, 80
3, 6936, Note_on_c, 1, 74, 0
3, 7980, Note_on_c, 1, 65, 80
3, 8028, Note_on_c, 1, 65, 0
3, 8040, Note_on_c, 1, 70, 80
3, 8088, Note_on_c, 1, 70, 0
3, 8100, Note_on_c, 1, 72, 80
3, 8148, Note_on_c, 1, 72, 0
3, 8160, Note_on_c, 1, 74, 80
3, 8208, Note_on_c, 1, 74, 0
3, 8220, Note_on_c, 1, 75, 80
3, 8268, Note_on_c, 1, 75, 0
3, 8280, Note_on_c, 1, 77, 80
3, 8328, Note_on_c, 1, 77, 0
3, 8340, Note_on_c, 1, 72, 80
3, 8388, Note_on_c, 1, 72, 0
3, 8400, Note_on_c, 1, 69, 80
3, 8448, Note_on_c, 1, 69, 0
3, 8460, Note_on_c, 1, 65, 80
3, 8508, Note_on_c, 1, 65, 0
3, 8520, Note_on_c, 1, 72, 80
3, 8568, Note_on_c, 1, 72, 0
3, 8580, Note_on_c, 1, 69, 80
3, 8628, Note_on_c, 1, 69, 0
3, 8640, Note_on_c, 1, 70, 80
3, 8688, Note_on_c, 1, 70, 0
3, 8700, Note_on_c, 1, 69, 80
3, 8748, Note_on_c, 1, 69, 0
3, 8760, Note_on_c, 1, 67, 80
3, 8808, Note_on_c, 1, 67, 0
3, 8820, Note_on_c, 1, 69, 80
3, 8868, Note_on_c, 1, 69, 0
3, 8880, Note_on_c, 1, 70, 80
3, 8928, Note_on_c, 1, 70, 0
3, 8940, Note_on_c, 1, 72, 80
3, 8988, Note_on_c, 1, 72, 0
3, 9000, Note_on_c, 1, 74, 80
3, 9048, Note_on_c, 1, 74, 0
3, 9060, Note_on_c, 1, 69, 80
3, 9108, Note_on_c, 1, 69, 0
3, 9120, Note_on_c, 1, 65, 80
3, 9168, Note_on_c, 1, 65, 0
3, 9180, Note_on_c, 1, 62, 80
3, 9228, Note_on_c, 1, 62, 0
3, 9240, Note_on_c, 1, 69, 80
3, 9288, Note_on_c, 1, 69, 0
3, 9300, Note_on_c, 1, 65, 80
3, 9348, Note_on_c, 1, 65, 0
3, 9360, Note_on_c, 1, 67, 80
3, 9408, Note_on_c, 1, 67, 0
3, 9420, Note_on_c, 1, 63, 80
3, 9468, Note_on_c, 1, 63, 0
3, 9480, Note_on_c, 1, 70, 80
3, 9528, Note_on_c, 1, 70, 0
3, 9540, Note_on_c, 1, 67, 80
3, 9588, Note_on_c, 1, 67, 0
3, 9600, Note_on_c, 1, 65, 80
3, 9648, Note_on_c, 1, 65, 0
3, 9660, Note_on_c, 1, 63, 80
3, 9708, Note_on_c, 1, 63, 0
3, 9720, Note_on_c, 1, 65, 80
3, 9768, Note_on_c, 1, 65, 0
3, 9780, Note_on_c, 1, 62, 80
3, 9828, Note_on_c, 1, 62, 0
3, 9840, Note_on_c, 1, 70, 80
3, 9888, Note_on_c, 1, 70, 0
3, 9900, Note_on_c, 1, 65, 80
3, 9948, Note_on_c, 1, 65, 0
3, 9960, Note_on_c, 1, 63, 80
3, 10008, Note_on_c, 1, 63, 0
3, 10020, Note_on_c, 1, 62, 80
3, 10068, Note_on_c, 1, 62, 0
3, 10080, Note_on_c, 1, 63, 80
3, 10128, Note_on_c, 1, 63, 0
3, 10140, Note_on_c, 1, 62, 80
3, 10188, Note_on_c, 1, 62, 0
3, 10200, Note_on_c, 1, 63, 80
3, 10248, Note_on_c, 1, 63, 0
3, 10260, Note_on_c, 1, 65, 80
3, 10308, Note_on_c, 1, 65, 0
3, 10320, Note_on_c, 1, 62, 80
3, 10368, Note_on_c, 1, 62, 0
3, 10380, Note_on_c, 1, 63, 80
3, 10428, Note_on_c, 1, 63, 0
3, 10440, Note_on_c, 1, 60, 80
3, 10536, Note_on_c, 1, 60, 0
3, 10560, Note_on_c, 1, 72, 80
3, 10656, Note_on_c, 1, 72, 0
3, 10800, Note_on_c, 1, 79, 80
3, 10848, Note_on_c, 1, 79, 0
3, 10860, Note_on_c, 1, 80, 80
3, 10908, Note_on_c, 1, 80, 0
3, 10920, Note_on_c, 1, 79, 80
3, 10968, Note_on_c, 1, 79, 0
3, 10980, Note_on_c, 1, 77, 80
3, 11028, Note_on_c, 1, 77, 0
3, 11040, Note_on_c, 1, 75, 80
3, 11088, Note_on_c, 1, 75, 0
3, 11100, Note_on_c, 1, 74, 80
3, 11148, Note_on_c, 1, 74, 0
3, 11160, Note_on_c, 1, 72, 80
3, 11208, Note_on_c, 1, 72, 0
3, 11220, Note_on_c, 1, 77, 80
3, 11268, Note_on_c, 1, 77, 0
3, 11280, Note_on_c, 1, 81, 80
3, 11328, Note_on_c, 1, 81, 0
3, 11340, Note_on_c, 1, 72, 80
3, 11388, Note_on_c, 1, 72, 0
3, 11400, Note_on_c, 1, 74, 80
3, 11448, Note_on_c, 1, 74, 0
3, 11460, Note_on_c, 1, 82, 80
3, 11508, Note_on_c, 1, 82, 0
3, 11520, Note_on_c, 1, 75, 80
3, 11568, Note_on_c, 1, 75, 0
3, 11580, Note_on_c, 1, 74, 80
3, 11628, Note_on_c, 1, 74, 0
3, 11640, Note_on_c, 1, 75, 80
3, 11688, Note_on_c, 1, 75, 0
3, 11700, Note_on_c, 1, 84, 80
3, 11748, Note_on_c, 1, 84, 0
3, 11760, Note_on_c, 1, 74, 80
3, 11808, Note_on_c, 1, 74, 0
3, 11820, Note_on_c, 1, 82, 80
3, 11868, Note_on_c, 1, 82, 0
3, 11880, Note_on_c, 1, 72, 80
3, 11928, Note_on_c, 1, 72, 0
3, 11940, Note_on_c, 1, 77, 80
3, 11988, Note_on_c, 1, 77, 0
3, 12000, Note_on_c, 1, 81, 80
3, 12048, Note_on_c, 1, 81, 0
3, 12060, Note_on_c, 1, 72, 80
3, 12108, Note_on_c, 1, 72, 0
3, 12120, Note_on_c, 1, 74, 80
3, 12168, Note_on_c, 1, 74, 0
3, 12180, Note_on_c, 1, 82, 80
3, 12228, Note_on_c, 1, 82, 0
3, 12240, Note_on_c, 1, 75, 80
3, 12288, Note_on_c, 1, 75, 0
3, 12300, Note_on_c, 1, 74, 80
3, 12348, Note_on_c, 1, 74, 0
3, 12360, Note_on_c, 1, 75, 80
3, 12408, Note_on_c, 1, 75, 0
3, 12420, Note_on_c, 1, 84, 80
3, 12468, Note_on_c, 1, 84, 0
3, 12480, Note_on_c, 1, 74, 80
3, 12528, Note_on_c, 1, 74, 0
3, 12540, Note_on_c, 1, 82, 80
3, 12588, Note_on_c, 1, 82, 0
3, 12600, Note_on_c, 1, 72, 80
3, 12648, Note_on_c, 1, 72, 0
3, 12660, Note_on_c, 1, 77, 80
3, 12708, Note_on_c, 1, 77, 0
3, 12720, Note_on_c, 1, 81, 80
3, 12768, Note_on_c, 1, 81, 0
3, 12780, Note_on_c, 1, 79, 80
3, 12828, Note_on_c, 1, 79, 0
3, 12840, Note_on_c, 1, 81, 80
3, 12888, Note_on_c, 1, 81, 0
3, 12900, Note_on_c, 1, 82, 80
3, 12948, Note_on_c, 1, 82, 0
3, 12960, Note_on_c, 1, 84, 80
3, 13008, Note_on_c, 1, 84, 0
3, 13020, Note_on_c, 1, 82, 80
3, 13068, Note_on_c, 1, 82, 0
3, 13080, Note_on_c, 1, 81, 80
3, 13128, Note_on_c, 1, 81, 0
3, 13140, Note_on_c, 1, 79, 80
3, 13188, Note_on_c, 1, 79, 0
3, 13200, Note_on_c, 1, 77, 80
3, 13248, Note_on_c, 1, 77, 0
3, 13260, Note_on_c, 1, 75, 80
3, 13308, Note_on_c, 1, 75, 0
3, 13320, Note_on_c, 1, 74, 80
3, 13416, Note_on_c, 1, 74, 0
3, 13440, Note_on_c, 1, 70, 80
3, 13536, Note_on_c, 1, 70, 0
3, 13560, Note_on_c, 1, 70, 80
3, 13656, Note_on_c, 1, 70, 0
3, 13680, Note_on_c, 1, 70, 80
3, 13710, Note_on_c, 1, 70, 0
3, 13710, Note_on_c, 1, 72, 80
3, 13740, Note_on_c, 1, 72, 0
3, 13740, Note_on_c, 1, 70, 80
3, 13770, Note_on_c, 1, 70, 0
3, 13770, Note_on_c, 1, 72, 80
3, 13800, Note_on_c, 1, 72, 0
3, 13800, Note_on_c, 1, 70, 80
3, 13830, Note_on_c, 1, 70, 0
3, 13830, Note_on_c, 1, 72, 80
3, 13860, Note_on_c, 1, 72, 0
3, 13860, Note_on_c, 1, 70, 80
3, 13890, Note_on_c, 1, 70, 0
3, 13890, Note_on_c, 1, 72, 80
3, 13920, Note_on_c, 1, 72, 0
3, 13920, Note_on_c, 1, 70, 80
3, 13950, Note_on_c, 1, 70, 0
3, 13950, Note_on_c, 1, 72, 80
3, 13980, Note_on_c, 1, 72, 0
3, 13980, Note_on_c, 1, 70, 80
3, 14010, Note_on_c, 1, 70, 0
3, 14010, Note_on_c, 1, 72, 80
3, 14040, Note_on_c, 1, 72, 0
3, 14040, Note_on_c, 1, 70, 80
3, 14070, Note_on_c, 1, 70, 0
3, 14070, Note_on_c, 1, 72, 80
3, 14100, Note_on_c, 1, 72, 0
3, 14100, Note_on_c, 1, 70, 80
3, 14130, Note_on_c, 1, 70, 0
3, 14130, Note_on_c, 1, 72, 80
3, 14160, Note_on_c, 1, 72, 0
3, 14160, Note_on_c, 1, 70, 80
3, 14190, Note_on_c, 1, 70, 0
3, 14190, Note_on_c, 1, 72, 80
3, 14220, Note_on_c, 1, 72, 0
3, 14220, Note_on_c, 1, 70, 80
3, 14250, Note_on_c, 1, 70, 0
3, 14250, Note_on_c, 1, 72, 80
3, 14280, Note_on_c, 1, 72, 0
3, 14280, Note_on_c, 1, 70, 80
3, 14310, Note_on_c, 1, 70, 0
3, 14310, Note_on_c, 1, 72, 80
3, 14340, Note_on_c, 1, 72, 0
3, 14340, Note_on_c, 1, 70, 80
3, 14370, Note_on_c, 1, 70, 0
3, 14370, Note_on_c, 1, 72, 80
3, 14400, Note_on_c, 1, 72, 0
3, 14400, Note_on_c, 1, 70, 80
3, 14430, Note_on_c, 1, 70, 0
3, 14430, Note_on_c, 1, 72, 80
3, 14460, Note_on_c, 1, 72, 0
3, 14460, Note_on_c, 1, 70, 80
3, 14490, Note_on_c, 1, 70, 0
3, 14490, Note_on_c, 1, 72, 80
3, 14520, Note_on_c, 1, 72, 0
3, 14520, Note_on_c, 1, 70, 80
3, 14550, Note_on_c, 1, 70, 0
3, 14550, Note_on_c, 1, 72, 80
3, 14580, Note_on_c, 1, 72, 0
3, 14580, Note_on_c, 1, 70, 80
3, 14610, Note_on_c, 1, 70, 0
3, 14610, Note_on_c, 1, 72, 80
3, 14640, Note_on_c, 1, 72, 0
3, 14640, Note_on_c, 1, 70, 80
3, 14670, Note_on_c, 1, 70, 0
3, 14670, Note_on_c, 1, 72, 80
3, 14700, Note_on_c, 1, 72, 0
3, 14700, Note_on_c, 1, 70, 80
3, 14730, Note_on_c, 1, 70, 0
3, 14730, Note_on_c, 1, 72, 80
3, 14760, Note_on_c, 1, 72, 0
3, 14760, Note_on_c, 1, 70, 80
3, 14856, Note_on_c, 1, 70, 0
3, 14880, Note_on_c, 1, 70, 80
3, 14928, Note_on_c, 1, 70, 0
3, 14940, Note_on_c, 1, 72, 80
3, 14988, Note_on_c, 1, 72, 0
3, 15000, Note_on_c, 1, 74, 80
3, 15048, Note_on_c, 1, 74, 0
3, 15060, Note_on_c, 1, 75, 80
3, 15108, Note_on_c, 1, 75, 0
3, 15120, Note_on_c, 1, 77, 80
3, 15168, Note_on_c, 1, 77, 0
3, 15180, Note_on_c, 1, 75, 80
3, 15228, Note_on_c, 1, 75, 0
3, 15240, Note_on_c, 1, 74, 80
3, 15288, Note_on_c, 1, 74, 0
3, 15300, Note_on_c, 1, 77, 80
3, 15348, Note_on_c, 1, 77, 0
3, 15360, Note_on_c, 1, 75, 80
3, 15408, Note_on_c, 1, 75, 0
3, 15420, Note_on_c, 1, 74, 80
3, 15468, Note_on_c, 1, 74, 0
3, 15480, Note_on_c, 1, 75, 80
3, 15576, Note_on_c, 1, 75, 0
3, 15600, Note_on_c, 1, 79, 80
3, 15648, Note_on_c, 1, 79, 0
3, 15660, Note_on_c, 1, 77, 80
3, 15708, Note_on_c, 1, 77, 0
3, 15720, Note_on_c, 1, 75, 80
3, 15768, Note_on_c, 1, 75, 0
3, 15780, Note_on_c, 1, 74, 80
3, 15828, Note_on_c, 1, 74, 0
3, 15840, Note_on_c, 1, 72, 80
3, 15888, Note_on_c, 1, 72, 0
3, 15900, Note_on_c, 1, 70, 80
3, 15948, Note_on_c, 1, 70, 0
3, 15960, Note_on_c, 1, 69, 80
3, 16008, Note_on_c, 1, 69, 0
3, 16020, Note_on_c, 1, 72, 80
3, 16068, Note_on_c, 1, 72, 0
3, 16080, Note_on_c, 1, 70, 80
3, 16128, Note_on_c, 1, 70, 0
3, 16140, Note_on_c, 1, 69, 80
3, 16188, Note_on_c, 1, 69, 0
3, 16200, Note_on_c, 1, 70, 80
3, 16248, Note_on_c, 1, 70, 0
3, 16260, Note_on_c, 1, 72, 80
3, 16308, Note_on_c, 1, 72, 0
3, 16320, Note_on_c, 1, 74, 80
3, 16608, Note_on_c, 1, 74, 0
3, 16620, Note_on_c, 1, 69, 80
3, 16668, Note_on_c, 1, 69, 0
3, 16680, Note_on_c, 1, 69, 80
3, 16728, Note_on_c, 1, 69, 0
3, 16740, Note_on_c, 1, 72, 80
3, 16788, Note_on_c, 1, 72, 0
3, 16800, Note_on_c, 1, 70, 80
3, 16848, Note_on_c, 1, 70, 0
3, 16860, Note_on_c, 1, 69, 80
3, 16908, Note_on_c, 1, 69, 0
3, 16920, Note_on_c, 1, 70, 80
3, 16968, Note_on_c, 1, 70, 0
3, 16980, Note_on_c, 1, 72, 80
3, 17028, Note_on_c, 1, 72, 0
3, 17040, Note_on_c, 1, 74, 80
3, 17328, Note_on_c, 1, 74, 0
3, 17340, Note_on_c, 1, 69, 80
3, 17388, Note_on_c, 1, 69, 0
3, 17400, Note_on_c, 1, 69, 80
3, 17448, Note_on_c, 1, 69, 0
3, 17460, Note_on_c, 1, 72, 80
3, 17508, Note_on_c, 1, 72, 0
3, 17520, Note_on_c, 1, 70, 80
3, 17568, Note_on_c, 1, 70, 0
3, 17580, Note_on_c, 1, 69, 80
3, 17628, Note_on_c, 1, 69, 0
3, 17640, Note_on_c, 1, 70, 80
3, 18072, Note_on_c, 1, 70, 0
3, 18090, Note_on_c, 1, 75, 80
3, 18119, Note_on_c, 1, 75, 0
3, 18120, Note_on_c, 1, 75, 80
3, 18216, Note_on_c, 1, 75, 0
3, 18240, Note_on_c, 1, 74, 80
3, 18336, Note_on_c, 1, 74, 0
3, 18360, Note_on_c, 1, 72, 80
3, 18456, Note_on_c, 1, 72, 0
3, 18480, Note_on_c, 1, 70, 80
3, 18576, Note_on_c, 1, 70, 0
3, 18600, Note_on_c, 1, 69, 80
3, 18696, Note_on_c, 1, 69, 0
3, 18720, Note_on_c, 1, 74, 80
3, 18768, Note_on_c, 1, 74, 0
3, 18780, Note_on_c, 1, 75, 80
3, 18828, Note_on_c, 1, 75, 0
3, 18840, Note_on_c, 1, 77, 80
3, 19128, Note_on_c, 1, 77, 0
3, 19140, Note_on_c, 1, 72, 80
3, 19188, Note_on_c, 1, 72, 0
3, 19200, Note_on_c, 1, 72, 80
3, 19248, Note_on_c, 1, 72, 0
3, 19260, Note_on_c, 1, 75, 80
3, 19308, Note_on_c, 1, 75, 0
3, 19320, Note_on_c, 1, 74, 80
3, 19368, Note_on_c, 1, 74, 0
3, 19380, Note_on_c, 1, 72, 80
3, 19428, Note_on_c, 1, 72, 0
3, 19440, Note_on_c, 1, 74, 80
3, 19488, Note_on_c, 1, 74, 0
3, 19500, Note_on_c, 1, 75, 80
3, 19548, Note_on_c, 1, 75, 0
3, 19560, Note_on_c, 1, 77, 80
3, 19848, Note_on_c, 1, 77, 0
3, 19860, Note_on_c, 1, 72, 80
3, 19908, Note_on_c, 1, 72, 0
3, 19920, Note_on_c, 1, 72, 80
3, 19968, Note_on_c, 1, 72, 0
3, 19980, Note_on_c, 1, 75, 80
3, 20028, Note_on_c, 1, 75, 0
3, 20040, Note_on_c, 1, 74, 80
3, 20088, Note_on_c, 1, 74, 0
3, 20100, Note_on_c, 1, 72, 80
3, 20148, Note_on_c, 1, 72, 0
3, 20160, Note_on_c, 1, 74, 80
3, 20208, Note_on_c, 1, 74, 0
3, 20220, Note_on_c, 1, 77, 80
3, 20268, Note_on_c, 1, 77, 0
3, 20280, Note_on_c, 1, 82, 80
3, 20328, Note_on_c, 1, 82, 0
3, 20340, Note_on_c, 1, 81, 80
3, 20388, Note_on_c, 1, 81, 0
3, 20400, Note_on_c, 1, 79, 80
3, 20448, Note_on_c, 1, 79, 0
3, 20460, Note_on_c, 1, 77, 80
3, 20508, Note_on_c, 1, 77, 0
3, 20520, Note_on_c, 1, 79, 80
3, 20568, Note_on_c, 1, 79, 0
3, 20580, Note_on_c, 1, 77, 80
3, 20628, Note_on_c, 1, 77, 0
3, 20640, Note_on_c, 1, 79, 80
3, 20688, Note_on_c, 1, 79, 0
3, 20700, Note_on_c, 1, 81, 80
3, 20748, Note_on_c, 1, 81, 0
3, 20760, Note_on_c, 1, 82, 80
3, 20856, Note_on_c, 1, 82, 0
3, 20880, Note_on_c, 1, 79, 80
3, 20928, Note_on_c, 1, 79, 0
3, 20940, Note_on_c, 1, 75, 80
3, 20988, Note_on_c, 1, 75, 0
3, 21000, Note_on_c, 1, 74, 80
3, 21048, Note_on_c, 1, 74, 0
3, 21060, Note_on_c, 1, 72, 80
3, 21072, Note_on_c, 1, 72, 0
3, 21075, Note_on_c, 1, 74, 80
3, 21087, Note_on_c, 1, 74, 0
3, 21090, Note_on_c, 1, 72, 80
3, 21102, Note_on_c, 1, 72, 0
3, 21105, Note_on_c, 1, 74, 80
3, 21117, Note_on_c, 1, 74, 0
3, 21120, Note_on_c, 1, 72, 80
3, 21168, Note_on_c, 1, 72, 0
3, 21180, Note_on_c, 1, 70, 80
3, 21228, Note_on_c, 1, 70, 0
3, 21240, Note_on_c, 1, 70, 80
3, 21528, Note_on_c, 1, 70, 0
3, 21660, Note_on_c, 1, 58, 80
3, 21708, Note_on_c, 1, 58, 0
3, 21720, Note_on_c, 1, 62, 80
3, 21768, Note_on_c, 1, 62, 0
3, 21780, Note_on_c, 1, 65, 80
3, 21828, Note_on_c, 1, 65, 0
3, 21840, Note_on_c, 1, 70, 80
3, 21888, Note_on_c, 1, 70, 0
3, 21900, Note_on_c, 1, 65, 80
3, 21948, Note_on_c, 1, 65, 0
3, 21960, Note_on_c, 1, 67, 80
3, 22008, Note_on_c, 1, 67, 0
3, 22020, Note_on_c, 1, 79, 80
3, 22068, Note_on_c, 1, 79, 0
3, 22080, Note_on_c, 1, 77, 80
3, 22128, Note_on_c, 1, 77, 0
3, 22140, Note_on_c, 1, 75, 80
3, 22188, Note_on_c, 1, 75, 0
3, 22200, Note_on_c, 1, 74, 80
3, 22248, Note_on_c, 1, 74, 0
3, 22260, Note_on_c, 1, 72, 80
3, 22308, Note_on_c, 1, 72, 0
3, 22320, Note_on_c, 1, 74, 80
3, 22368, Note_on_c, 1, 74, 0
3, 22380, Note_on_c, 1, 58, 80
3, 22428, Note_on_c, 1, 58, 0
3, 22440, Note_on_c, 1, 62, 80
3, 22488, Note_on_c, 1, 62, 0
3, 22500, Note_on_c, 1, 65, 80
3, 22548, Note_on_c, 1, 65, 0
3, 22560, Note_on_c, 1, 70, 80
3, 22608, Note_on_c, 1, 70, 0
3, 22620, Note_on_c, 1, 65, 80
3, 22668, Note_on_c, 1, 65, 0
3, 22680, Note_on_c, 1, 67, 80
3, 22728, Note_on_c, 1, 67, 0
3, 22740, Note_on_c, 1, 79, 80
3, 22788, Note_on_c, 1, 79, 0
3, 22800, Note_on_c, 1, 77, 80
3, 22848, Note_on_c, 1, 77, 0
3, 22860, Note_on_c, 1, 75, 80
3, 22908, Note_on_c, 1, 75, 0
3, 22920, Note_on_c, 1, 74, 80
3, 22968, Note_on_c, 1, 74, 0
3, 22980, Note_on_c, 1, 72, 80
3, 23028, Note_on_c, 1, 72, 0
3, 23040, Note_on_c, 1, 74, 80
3, 23088, Note_on_c, 1, 74, 0
3, 23100, Note_on_c, 1, 77, 80
3, 23148, Note_on_c, 1, 77, 0
3, 23160, Note_on_c, 1, 75, 80
3, 23208, Note_on_c, 1, 75, 0
3, 23220, Note_on_c, 1, 74, 80
3, 23268, Note_on_c, 1, 74, 0
3, 23280, Note_on_c, 1, 72, 80
3, 23328, Note_on_c, 1, 72, 0
3, 23340, Note_on_c, 1, 70, 80
3, 23388, Note_on_c, 1, 70, 0
3, 23400, Note_on_c, 1, 69, 80
3, 23496, Note_on_c, 1, 69, 0
3, 23520, Note_on_c, 1, 70, 80
3, 23664, Note_on_c, 1, 70, 0
3, 23700, Note_on_c, 1, 72, 80
3, 23724, Note_on_c, 1, 72, 0
3, 23730, Note_on_c, 1, 74, 80
3, 23754, Note_on_c, 1, 74, 0
3, 23760, Note_on_c, 1, 69, 80
3, 23856, Note_on_c, 1, 69, 0
3, 23880, Note_on_c, 1, 70, 80
3, 24024, Note_on_c, 1, 70, 0
3, 24060, Note_on_c, 1, 72, 80
3, 24084, Note_on_c, 1, 72, 0
3, 24090, Note_on_c, 1, 74, 80
3, 24114, Note_on_c, 1, 74, 0
3, 24120, Note_on_c, 1, 69, 80
3, 24312, Note_on_c, 1, 69, 0
3, 24600, Note_on_c, 1, 74, 80
3, 24792, Note_on_c, 1, 74, 0
3, 24840, Note_on_c, 1, 74, 80
3, 24936, Note_on_c, 1, 74, 0
3, 24960, Note_on_c, 1, 67, 80
3, 25056, Note_on_c, 1, 67, 0
3, 25080, Note_on_c, 1, 72, 80
3, 25128, Note_on_c, 1, 72, 0
3, 25140, Note_on_c, 1, 70, 80
3, 25188, Note_on_c, 1, 70, 0
3, 25200, Note_on_c, 1, 68, 80
3, 25296, Note_on_c, 1, 68, 0
3, 25320, Note_on_c, 1, 80, 80
3, 25368, Note_on_c, 1, 80, 0
3, 25380, Note_on_c, 1, 79, 80
3, 25428, Note_on_c, 1, 79, 0
3, 25440, Note_on_c, 1, 77, 80
3, 25488, Note_on_c, 1, 77, 0
3, 25500, Note_on_c, 1, 75, 80
3, 25548, Note_on_c, 1, 75, 0
3, 25560, Note_on_c, 1, 74, 80
3, 25656, Note_on_c, 1, 74, 0
3, 25680, Note_on_c, 1, 75, 80
3, 25824, Note_on_c, 1, 75, 0
3, 25860, Note_on_c, 1, 77, 80
3, 25884, Note_on_c, 1, 77, 0
3, 25890, Note_on_c, 1, 79, 80
3, 25914, Note_on_c, 1, 79, 0
3, 25920, Note_on_c, 1, 74, 80
3, 26016, Note_on_c, 1, 74, 0
3, 26040, Note_on_c, 1, 75, 80
3, 26184, Note_on_c, 1, 75, 0
3, 26220, Note_on_c, 1, 77, 80
3, 26244, Note_on_c, 1, 77, 0
3, 26250, Note_on_c, 1, 79, 80
3, 26274, Note_on_c, 1, 79, 0
3, 26280, Note_on_c, 1, 74, 80
3, 26376, Note_on_c, 1, 74, 0
3, 26700, Note_on_c, 1, 84, 80
3, 26748, Note_on_c, 1, 84, 0
3, 26760, Note_on_c, 1, 84, 80
3, 26808, Note_on_c, 1, 84, 0
3, 26820, Note_on_c, 1, 82, 80
3, 26868, Note_on_c, 1, 82, 0
3, 26880, Note_on_c, 1, 82, 80
3, 26928, Note_on_c, 1, 82, 0
3, 26940, Note_on_c, 1, 80, 80
3, 26988, Note_on_c, 1, 80, 0
3, 27000, Note_on_c, 1, 80, 80
3, 27096, Note_on_c, 1, 80, 0
3, 27120, Note_on_c, 1, 81, 80
3, 27312, Note_on_c, 1, 81, 0
3, 27420, Note_on_c, 1, 82, 80
3, 27468, Note_on_c, 1, 82, 0
3, 27480, Note_on_c, 1, 82, 80
3, 27528, Note_on_c, 1, 82, 0
3, 27540, Note_on_c, 1, 80, 80
3, 27588, Note_on_c, 1, 80, 0
3, 27600, Note_on_c, 1, 80, 80
3, 27648, Note_on_c, 1, 80, 0
3, 27660, Note_on_c, 1, 79, 80
3, 27708, Note_on_c, 1, 79, 0
3, 27720, Note_on_c, 1, 79, 80
3, 27768, Note_on_c, 1, 79, 0
3, 27780, Note_on_c, 1, 79, 80
3, 27828, Note_on_c, 1, 79, 0
3, 27840, Note_on_c, 1, 80, 80
3, 27888, Note_on_c, 1, 80, 0
3, 27900, Note_on_c, 1, 79, 80
3, 27948, Note_on_c, 1, 79, 0
3, 27960, Note_on_c, 1, 77, 80
3, 28008, Note_on_c, 1, 77, 0
3, 28020, Note_on_c, 1, 75, 80
3, 28068, Note_on_c, 1, 75, 0
3, 28080, Note_on_c, 1, 77, 80
3, 28128, Note_on_c, 1, 77, 0
3, 28140, Note_on_c, 1, 77, 80
3, 28188, Note_on_c, 1, 77, 0
3, 28200, Note_on_c, 1, 79, 80
3, 28248, Note_on_c, 1, 79, 0
3, 28260, Note_on_c, 1, 77, 80
3, 28308, Note_on_c, 1, 77, 0
3, 28320, Note_on_c, 1, 75, 80
3, 28368, Note_on_c, 1, 75, 0
3, 28380, Note_on_c, 1, 74, 80
3, 28428, Note_on_c, 1, 74, 0
3, 28440, Note_on_c, 1, 75, 80
3, 28536, Note_on_c, 1, 75, 0
3, 28560, Note_on_c, 1, 63, 80
3, 28656, Note_on_c, 1, 63, 0
3, 28680, Note_on_c, 1, 75, 80
3, 28776, Note_on_c, 1, 75, 0
3, 28800, Note_on_c, 1, 74, 80
3, 28896, Note_on_c, 1, 74, 0
3, 28920, Note_on_c, 1, 74, 80
3, 29112, Note_on_c, 1, 74, 0
3, 29280, Note_on_c, 1, 60, 80
3, 29376, Note_on_c, 1, 60, 0
3, 29400, Note_on_c, 1, 72, 80
3, 29568, Note_on_c, 1, 72, 0
3, 29580, Note_on_c, 1, 75, 80
3, 29628, Note_on_c, 1, 75, 0
3, 29640, Note_on_c, 1, 74, 80
3, 29688, Note_on_c, 1, 74, 0
3, 29700, Note_on_c, 1, 72, 80
3, 29748, Note_on_c, 1, 72, 0
3, 29760, Note_on_c, 1, 70, 80
3, 29808, Note_on_c, 1, 70, 0
3, 29820, Note_on_c, 1, 69, 80
3, 29868, Note_on_c, 1, 69, 0
3, 29880, Note_on_c, 1, 70, 80
3, 29928, Note_on_c, 1, 70, 0
3, 29940, Note_on_c, 1, 69, 80
3, 29988, Note_on_c, 1, 69, 0
3, 30000, Note_on_c, 1, 70, 80
3, 30048, Note_on_c, 1, 70, 0
3, 30060, Note_on_c, 1, 72, 80
3, 30108, Note_on_c, 1, 72, 0
3, 30120, Note_on_c, 1, 74, 80
3, 30336, Note_on_c, 1, 74, 0
3, 30360, Note_on_c, 1, 72, 80
3, 30408, Note_on_c, 1, 72, 0
3, 30420, Note_on_c, 1, 70, 80
3, 30468, Note_on_c, 1, 70, 0
3, 30480, Note_on_c, 1, 69, 80
3, 30528, Note_on_c, 1, 69, 0
3, 30540, Note_on_c, 1, 67, 80
3, 30588, Note_on_c, 1, 67, 0
3, 30600, Note_on_c, 1, 66, 80
3, 30696, Note_on_c, 1, 66, 0
3, 30720, Note_on_c, 1, 67, 80
3, 30864, Note_on_c, 1, 67, 0
3, 30900, Note_on_c, 1, 69, 80
3, 30924, Note_on_c, 1, 69, 0
3, 30930, Note_on_c, 1, 70, 80
3, 30954, Note_on_c, 1, 70, 0
3, 30960, Note_on_c, 1, 66, 80
3, 31056, Note_on_c, 1, 66, 0
3, 31080, Note_on_c, 1, 67, 80
3, 31224, Note_on_c, 1, 67, 0
3, 31260, Note_on_c, 1, 69, 80
3, 31284, Note_on_c, 1, 69, 0
3, 31290, Note_on_c, 1, 70, 80
3, 31314, Note_on_c, 1, 70, 0
3, 31320, Note_on_c, 1, 66, 80
3, 31368, Note_on_c, 1, 66, 0
3, 31380, Note_on_c, 1, 74, 80
3, 31428, Note_on_c, 1, 74, 0
3, 31440, Note_on_c, 1, 74, 80
3, 31488, Note_on_c, 1, 74, 0
3, 31500, Note_on_c, 1, 72, 80
3, 31548, Note_on_c, 1, 72, 0
3, 31560, Note_on_c, 1, 72, 80
3, 31608, Note_on_c, 1, 72, 0
3, 31620, Note_on_c, 1, 70, 80
3, 31668, Note_on_c, 1, 70, 0
3, 31680, Note_on_c, 1, 70, 80
3, 31776, Note_on_c, 1, 70, 0
3, 31800, Note_on_c, 1, 71, 80
3, 31992, Note_on_c, 1, 71, 0
3, 32100, Note_on_c, 1, 72, 80
3, 32148, Note_on_c, 1, 72, 0
3, 32160, Note_on_c, 1, 72, 80
3, 32208, Note_on_c, 1, 72, 0
3, 32220, Note_on_c, 1, 70, 80
3, 32268, Note_on_c, 1, 70, 0
3, 32280, Note_on_c, 1, 70, 80
3, 32328, Note_on_c, 1, 70, 0
3, 32340, Note_on_c, 1, 69, 80
3, 32388, Note_on_c, 1, 69, 0
3, 32400, Note_on_c, 1, 69, 80
3, 32688, Note_on_c, 1, 69, 0
3, 32760, Note_on_c, 1, 70, 80
3, 33048, Note_on_c, 1, 70, 0
3, 33120, Note_on_c, 1, 69, 80
3, 33216, Note_on_c, 1, 69, 0
3, 33240, Note_on_c, 1, 69, 80
3, 33432, Note_on_c, 1, 69, 0
3, 33540, Note_on_c, 1, 74, 80
3, 33588, Note_on_c, 1, 74, 0
3, 33600, Note_on_c, 1, 75, 80
3, 33648, Note_on_c, 1, 75, 0
3, 33660, Note_on_c, 1, 74, 80
3, 33708, Note_on_c, 1, 74, 0
3, 33720, Note_on_c, 1, 72, 80
3, 33768, Note_on_c, 1, 72, 0
3, 33780, Note_on_c, 1, 70, 80
3, 33828, Note_on_c, 1, 70, 0
3, 33840, Note_on_c, 1, 72, 80
3, 33888, Note_on_c, 1, 72, 0
3, 33900, Note_on_c, 1, 72, 80
3, 33948, Note_on_c, 1, 72, 0
3, 33960, Note_on_c, 1, 74, 80
3, 34008, Note_on_c, 1, 74, 0
3, 34020, Note_on_c, 1, 72, 80
3, 34068, Note_on_c, 1, 72, 0
3, 34080, Note_on_c, 1, 70, 80
3, 34128, Note_on_c, 1, 70, 0
3, 34140, Note_on_c, 1, 69, 80
3, 34188, Note_on_c, 1, 69, 0
3, 34200, Note_on_c, 1, 70, 80
3, 34248, Note_on_c, 1, 70, 0
3, 34260, Note_on_c, 1, 74, 80
3, 34308, Note_on_c, 1, 74, 0
3, 34320, Note_on_c, 1, 74, 80
3, 34368, Note_on_c, 1, 74, 0
3, 34380, Note_on_c, 1, 72, 80
3, 34428, Note_on_c, 1, 72, 0
3, 34440, Note_on_c, 1, 72, 80
3, 34488, Note_on_c, 1, 72, 0
3, 34500, Note_on_c, 1, 70, 80
3, 34548, Note_on_c, 1, 70, 0
3, 34560, Note_on_c, 1, 70, 80
3, 34608, Note_on_c, 1, 70, 0
3, 34620, Note_on_c, 1, 69, 80
3, 34632, Note_on_c, 1, 69, 0
3, 34635, Note_on_c, 1, 70, 80
3, 34647, Note_on_c, 1, 70, 0
3, 34650, Note_on_c, 1, 69, 80
3, 34662, Note_on_c, 1, 69, 0
3, 34665, Note_on_c, 1, 70, 80
3, 34677, Note_on_c, 1, 70, 0
3, 34680, Note_on_c, 1, 69, 80
3, 34776, Note_on_c, 1, 69, 0
3, 34800, Note_on_c, 1, 67, 80
3, 34896, Note_on_c, 1, 67, 0
3, 34920, Note_on_c, 1, 67, 80
3, 34968, Note_on_c, 1, 67, 0
3, 34980, Note_on_c, 1, 69, 80
3, 35028, Note_on_c, 1, 69, 0
3, 35040, Note_on_c, 1, 67, 80
3, 35088, Note_on_c, 1, 67, 0
3, 35100, Note_on_c, 1, 66, 80
3, 35112, Note_on_c, 1, 66, 0
3, 35115, Note_on_c, 1, 67, 80
3, 35127, Note_on_c, 1, 67, 0
3, 35130, Note_on_c, 1, 66, 80
3, 35142, Note_on_c, 1, 66, 0
3, 35145, Note_on_c, 1, 67, 80
3, 35157, Note_on_c, 1, 67, 0
3, 35160, Note_on_c, 1, 66, 80
3, 35208, Note_on_c, 1, 66, 0
3, 35220, Note_on_c, 1, 67, 80
3, 35268, Note_on_c, 1, 67, 0
3, 35280, Note_on_c, 1, 67, 80
3, 35472, Note_on_c, 1, 67, 0
3, 35700, Note_on_c, 1, 63, 80
3, 35748, Note_on_c, 1, 63, 0
3, 35760, Note_on_c, 1, 67, 80
3, 35808, Note_on_c, 1, 67, 0
3, 35820, Note_on_c, 1, 70, 80
3, 35868, Note_on_c, 1, 70, 0
3, 35880, Note_on_c, 1, 75, 80
3, 35928, Note_on_c, 1, 75, 0
3, 35940, Note_on_c, 1, 70, 80
3, 35988, Note_on_c, 1, 70, 0
3, 36000, Note_on_c, 1, 72, 80
3, 36048, Note_on_c, 1, 72, 0
3, 36060, Note_on_c, 1, 84, 80
3, 36108, Note_on_c, 1, 84, 0
3, 36120, Note_on_c, 1, 82, 80
3, 36168, Note_on_c, 1, 82, 0
3, 36180, Note_on_c, 1, 80, 80
3, 36228, Note_on_c, 1, 80, 0
3, 36240, Note_on_c, 1, 79, 80
3, 36288, Note_on_c, 1, 79, 0
3, 36300, Note_on_c, 1, 77, 80
3, 36348, Note_on_c, 1, 77, 0
3, 36360, Note_on_c, 1, 79, 80
3, 36408, Note_on_c, 1, 79, 0
3, 36420, Note_on_c, 1, 63, 80
3, 36468, Note_on_c, 1, 63, 0
3, 36480, Note_on_c, 1, 67, 80
3, 36528, Note_on_c, 1, 67, 0
3, 36540, Note_on_c, 1, 70, 80
3, 36588, Note_on_c, 1, 70, 0
3, 36600, Note_on_c, 1, 75, 80
3, 36648, Note_on_c, 1, 75, 0
3, 36660, Note_on_c, 1, 70, 80
3, 36708, Note_on_c, 1, 70, 0
3, 36720, Note_on_c, 1, 72, 80
3, 36768, Note_on_c, 1, 72, 0
3, 36780, Note_on_c, 1, 84, 80
3, 36828, Note_on_c, 1, 84, 0
3, 36840, Note_on_c, 1, 82, 80
3, 36888, Note_on_c, 1, 82, 0
3, 36900, Note_on_c, 1, 80, 80
3, 36948, Note_on_c, 1, 80, 0
3, 36960, Note_on_c, 1, 79, 80
3, 37008, Note_on_c, 1, 79, 0
3, 37020, Note_on_c, 1, 77, 80
3, 37068, Note_on_c, 1, 77, 0
3, 37080, Note_on_c, 1, 79, 80
3, 37272, Note_on_c, 1, 79, 0
3, 38580, Note_on_c, 1, 70, 80
3, 38628, Note_on_c, 1, 70, 0
3, 38640, Note_on_c, 1, 75, 80
3, 38688, Note_on_c, 1, 75, 0
3, 38700, Note_on_c, 1, 79, 80
3, 38748, Note_on_c, 1, 79, 0
3, 38760, Note_on_c, 1, 82, 80
3, 38808, Note_on_c, 1, 82, 0
3, 38820, Note_on_c, 1, 70, 80
3, 38868, Note_on_c, 1, 70, 0
3, 38880, Note_on_c, 1, 72, 80
3, 38928, Note_on_c, 1, 72, 0
3, 38940, Note_on_c, 1, 82, 80
3, 38988, Note_on_c, 1, 82, 0
3, 39000, Note_on_c, 1, 80, 80
3, 39048, Note_on_c, 1, 80, 0
3, 39060, Note_on_c, 1, 79, 80
3, 39108, Note_on_c, 1, 79, 0
3, 39120, Note_on_c, 1, 80, 80
3, 39168, Note_on_c, 1, 80, 0
3, 39180, Note_on_c, 1, 72, 80
3, 39228, Note_on_c, 1, 72, 0
3, 39240, Note_on_c, 1, 70, 80
3, 39288, Note_on_c, 1, 70, 0
3, 39300, Note_on_c, 1, 80, 80
3, 39348, Note_on_c, 1, 80, 0
3, 39360, Note_on_c, 1, 79, 80
3, 39408, Note_on_c, 1, 79, 0
3, 39420, Note_on_c, 1, 77, 80
3, 39468, Note_on_c, 1, 77, 0
3, 39480, Note_on_c, 1, 79, 80
3, 39528, Note_on_c, 1, 79, 0
3, 39540, Note_on_c, 1, 70, 80
3, 39588, Note_on_c, 1, 70, 0
3, 39600, Note_on_c, 1, 68, 80
3, 39648, Note_on_c, 1, 68, 0
3, 39660, Note_on_c, 1, 79, 80
3, 39708, Note_on_c, 1, 79, 0
3, 39720, Note_on_c, 1, 77, 80
3, 39768, Note_on_c, 1, 77, 0
3, 39780, Note_on_c, 1, 75, 80
3, 39828, Note_on_c, 1, 75, 0
3, 39840, Note_on_c, 1, 77, 80
3, 39888, Note_on_c, 1, 77, 0
3, 39900, Note_on_c, 1, 68, 80
3, 39948, Note_on_c, 1, 68, 0
3, 39960, Note_on_c, 1, 67, 80
3, 40104, Note_on_c, 1, 67, 0
3, 40140, Note_on_c, 1, 70, 80
3, 40188, Note_on_c, 1, 70, 0
3, 40200, Note_on_c, 1, 68, 80
3, 40248, Note_on_c, 1, 68, 0
3, 40260, Note_on_c, 1, 67, 80
3, 40308, Note_on_c, 1, 67, 0
3, 40320, Note_on_c, 1, 68, 80
3, 40368, Note_on_c, 1, 68, 0
3, 40380, Note_on_c, 1, 75, 80
3, 40428, Note_on_c, 1, 75, 0
3, 40440, Note_on_c, 1, 80, 80
3, 40488, Note_on_c, 1, 80, 0
3, 40500, Note_on_c, 1, 79, 80
3, 40548, Note_on_c, 1, 79, 0
3, 40560, Note_on_c, 1, 77, 80
3, 40608, Note_on_c, 1, 77, 0
3, 40620, Note_on_c, 1, 75, 80
3, 40668, Note_on_c, 1, 75, 0
3, 40680, Note_on_c, 1, 74, 80
3, 40776, Note_on_c, 1, 74, 0
3, 40800, Note_on_c, 1, 70, 80
3, 40896, Note_on_c, 1, 70, 0
3, 40920, Note_on_c, 1, 70, 80
3, 41016, Note_on_c, 1, 70, 0
3, 41040, Note_on_c, 1, 70, 80
3, 41070, Note_on_c, 1, 70, 0
3, 41070, Note_on_c, 1, 72, 80
3, 41100, Note_on_c, 1, 72, 0
3, 41100, Note_on_c, 1, 70, 80
3, 41130, Note_on_c, 1, 70, 0
3, 41130, Note_on_c, 1, 72, 80
3, 41160, Note_on_c, 1, 72, 0
3, 41160, Note_on_c, 1, 70, 80
3, 41190, Note_on_c, 1, 70, 0
3, 41190, Note_on_c, 1, 72, 80
3, 41220, Note_on_c, 1, 72, 0
3, 41220, Note_on_c, 1, 70, 80
3, 41250, Note_on_c, 1, 70, 0
3, 41250, Note_on_c, 1, 72, 80
3, 41280, Note_on_c, 1, 72, 0
3, 41280, Note_on_c, 1, 70, 80
3, 41310, Note_on_c, 1, 70, 0
3, 41310, Note_on_c, 1, 72, 80
3, 41340, Note_on_c, 1, 72, 0
3, 41340, Note_on_c, 1, 70, 80
3, 41370, Note_on_c, 1, 70, 0
3, 41370, Note_on_c, 1, 72, 80
3, 41400, Note_on_c, 1, 72, 0
3, 41400, Note_on_c, 1, 70, 80
3, 41430, Note_on_c, 1, 70, 0
3, 41430, Note_on_c, 1, 72, 80
3, 41460, Note_on_c, 1, 72, 0
3, 41460, Note_on_c, 1, 70, 80
3, 41490, Note_on_c, 1, 70, 0
3, 41490, Note_on_c, 1, 72, 80
3, 41520, Note_on_c, 1, 72, 0
3, 41520, Note_on_c, 1, 70, 80
3, 41550, Note_on_c, 1, 70, 0
3, 41550, Note_on_c, 1, 72, 80
3, 41580, Note_on_c, 1, 72, 0
3, 41580, Note_on_c, 1, 70, 80
3, 41610, Note_on_c, 1, 70, 0
3, 41610, Note_on_c, 1, 72, 80
3, 41640, Note_on_c, 1, 72, 0
3, 41640, Note_on_c, 1, 70, 80
3, 41670, Note_on_c, 1, 70, 0
3, 41670, Note_on_c, 1, 72, 80
3, 41700, Note_on_c, 1, 72, 0
3, 41700, Note_on_c, 1, 70, 80
3, 41730, Note_on_c, 1, 70, 0
3, 41730, Note_on_c, 1, 72, 80
3, 41760, Note_on_c, 1, 72, 0
3, 41760, Note_on_c, 1, 70, 80
3, 41790, Note_on_c, 1, 70, 0
3, 41790, Note_on_c, 1, 72, 80
3, 41820, Note_on_c, 1, 72, 0
3, 41820, Note_on_c, 1, 70, 80
3, 41850, Note_on_c, 1, 70, 0
3, 41850, Note_on_c, 1, 72, 80
3, 41880, Note_on_c, 1, 72, 0
3, 41880, Note_on_c, 1, 70, 80
3, 41910, Note_on_c, 1, 70, 0
3, 41910, Note_on_c, 1, 72, 80
3, 41940, Note_on_c, 1, 72, 0
3, 41940, Note_on_c, 1, 70, 80
3, 41970, Note_on_c, 1, 70, 0
3, 41970, Note_on_c, 1, 72, 80
3, 42000, Note_on_c, 1, 72, 0
3, 42000, Note_on_c, 1, 70, 80
3, 42030, Note_on_c, 1, 70, 0
3, 42030, Note_on_c, 1, 72, 80
3, 42060, Note_on_c, 1, 72, 0
3, 42060, Note_on_c, 1, 70, 80
3, 42090, Note_on_c, 1, 70, 0
3, 42090, Note_on_c, 1, 72, 80
3, 42120, Note_on_c, 1, 72, 0
3, 42120, Note_on_c, 1, 70, 80
3, 42216, Note_on_c, 1, 70, 0
3, 42240, Note_on_c, 1, 70, 80
3, 42288, Note_on_c, 1, 70, 0
3, 42300, Note_on_c, 1, 72, 80
3, 42348, Note_on_c, 1, 72, 0
3, 42360, Note_on_c, 1, 74, 80
3, 42408, Note_on_c, 1, 74, 0
3, 42420, Note_on_c, 1, 75, 80
3, 42468, Note_on_c, 1, 75, 0
3, 42480, Note_on_c, 1, 77, 80
3, 42528, Note_on_c, 1, 77, 0
3, 42540, Note_on_c, 1, 75, 80
3, 42588, Note_on_c, 1, 75, 0
3, 42600, Note_on_c, 1, 74, 80
3, 42648, Note_on_c, 1, 74, 0
3, 42660, Note_on_c, 1, 75, 80
3, 42708, Note_on_c, 1, 75, 0
3, 42720, Note_on_c, 1, 77, 80
3, 42768, Note_on_c, 1, 77, 0
3, 42780, Note_on_c, 1, 74, 80
3, 42828, Note_on_c, 1, 74, 0
3, 42840, Note_on_c, 1, 73, 80
3, 42888, Note_on_c, 1, 73, 0
3, 42900, Note_on_c, 1, 72, 80
3, 42948, Note_on_c, 1, 72, 0
3, 42960, Note_on_c, 1, 73, 80
3, 43008, Note_on_c, 1, 73, 0
3, 43020, Note_on_c, 1, 82, 80
3, 43068, Note_on_c, 1, 82, 0
3, 43080, Note_on_c, 1, 72, 80
3, 43128, Note_on_c, 1, 72, 0
3, 43140, Note_on_c, 1, 80, 80
3, 43188, Note_on_c, 1, 80, 0
3, 43200, Note_on_c, 1, 73, 80
3, 43248, Note_on_c, 1, 73, 0
3, 43260, Note_on_c, 1, 72, 80
3, 43308, Note_on_c, 1, 72, 0
3, 43320, Note_on_c, 1, 73, 80
3, 43368, Note_on_c, 1, 73, 0
3, 43380, Note_on_c, 1, 82, 80
3, 43428, Note_on_c, 1, 82, 0
3, 43440, Note_on_c, 1, 72, 80
3, 43488, Note_on_c, 1, 72, 0
3, 43500, Note_on_c, 1, 80, 80
3, 43548, Note_on_c, 1, 80, 0
3, 43560, Note_on_c, 1, 70, 80
3, 43608, Note_on_c, 1, 70, 0
3, 43620, Note_on_c, 1, 75, 80
3, 43668, Note_on_c, 1, 75, 0
3, 43680, Note_on_c, 1, 79, 80
3, 43728, Note_on_c, 1, 79, 0
3, 43740, Note_on_c, 1, 70, 80
3, 43788, Note_on_c, 1, 70, 0
3, 43800, Note_on_c, 1, 72, 80
3, 43848, Note_on_c, 1, 72, 0
3, 43860, Note_on_c, 1, 80, 80
3, 43908, Note_on_c, 1, 80, 0
3, 43920, Note_on_c, 1, 73, 80
3, 43968, Note_on_c, 1, 73, 0
3, 43980, Note_on_c, 1, 72, 80
3, 44028, Note_on_c, 1, 72, 0
3, 44040, Note_on_c, 1, 73, 80
3, 44088, Note_on_c, 1, 73, 0
3, 44100, Note_on_c, 1, 82, 80
3, 44148, Note_on_c, 1, 82, 0
3, 44160, Note_on_c, 1, 72, 80
3, 44208, Note_on_c, 1, 72, 0
3, 44220, Note_on_c, 1, 80, 80
3, 44268, Note_on_c, 1, 80, 0
3, 44280, Note_on_c, 1, 70, 80
3, 44328, Note_on_c, 1, 70, 0
3, 44340, Note_on_c, 1, 75, 80
3, 44388, Note_on_c, 1, 75, 0
3, 44400, Note_on_c, 1, 79, 80
3, 44448, Note_on_c, 1, 79, 0
3, 44460, Note_on_c, 1, 80, 80
3, 44508, Note_on_c, 1, 80, 0
3, 44520, Note_on_c, 1, 82, 80
3, 44568, Note_on_c, 1, 82, 0
3, 44580, Note_on_c, 1, 84, 80
3, 44628, Note_on_c, 1, 84, 0
3, 44640, Note_on_c, 1, 85, 80
3, 44688, Note_on_c, 1, 85, 0
3, 44700, Note_on_c, 1, 84, 80
3, 44748, Note_on_c, 1, 84, 0
3, 44760, Note_on_c, 1, 82, 80
3, 44808, Note_on_c, 1, 82, 0
3, 44820, Note_on_c, 1, 85, 80
3, 44868, Note_on_c, 1, 85, 0
3, 44880, Note_on_c, 1, 84, 80
3, 44928, Note_on_c, 1, 84, 0
3, 44940, Note_on_c, 1, 82, 80
3, 44988, Note_on_c, 1, 82, 0
3, 45000, Note_on_c, 1, 84, 80
3, 45048, Note_on_c, 1, 84, 0
3, 45060, Note_on_c, 1, 82, 80
3, 45108, Note_on_c, 1, 82, 0
3, 45120, Note_on_c, 1, 80, 80
3, 45168, Note_on_c, 1, 80, 0
3, 45180, Note_on_c, 1, 79, 80
3, 45228, Note_on_c, 1, 79, 0
3, 45240, Note_on_c, 1, 77, 80
3, 45288, Note_on_c, 1, 77, 0
3, 45300, Note_on_c, 1, 75, 80
3, 45348, Note_on_c, 1, 75, 0
3, 45360, Note_on_c, 1, 74, 80
3, 45408, Note_on_c, 1, 74, 0
3, 45420, Note_on_c, 1, 75, 80
3, 45468, Note_on_c, 1, 75, 0
3, 45480, Note_on_c, 1, 77, 80
3, 45528, Note_on_c, 1, 77, 0
3, 45540, Note_on_c, 1, 80, 80
3, 45588, Note_on_c, 1, 80, 0
3, 45600, Note_on_c, 1, 79, 80
3, 45648, Note_on_c, 1, 79, 0
3, 45660, Note_on_c, 1, 77, 80
3, 45708, Note_on_c, 1, 77, 0
3, 45720, Note_on_c, 1, 79, 80
3, 45768, Note_on_c, 1, 79, 0
3, 45780, Note_on_c, 1, 80, 80
3, 45828, Note_on_c, 1, 80, 0
3, 45840, Note_on_c, 1, 82, 80
3, 46128, Note_on_c, 1, 82, 0
3, 46140, Note_on_c, 1, 77, 80
3, 46188, Note_on_c, 1, 77, 0
3, 46200, Note_on_c, 1, 77, 80
3, 46248, Note_on_c, 1, 77, 0
3, 46260, Note_on_c, 1, 80, 80
3, 46308, Note_on_c, 1, 80, 0
3, 46320, Note_on_c, 1, 79, 80
3, 46368, Note_on_c, 1, 79, 0
3, 46380, Note_on_c, 1, 77, 80
3, 46428, Note_on_c, 1, 77, 0
3, 46440, Note_on_c, 1, 79, 80
3, 46488, Note_on_c, 1, 79, 0
3, 46500, Note_on_c, 1, 80, 80
3, 46548, Note_on_c, 1, 80, 0
3, 46560, Note_on_c, 1, 82, 80
3, 46848, Note_on_c, 1, 82, 0
3, 46860, Note_on_c, 1, 77, 80
3, 46908, Note_on_c, 1, 77, 0
3, 46920, Note_on_c, 1, 77, 80
3, 46968, Note_on_c, 1, 77, 0
3, 46980, Note_on_c, 1, 80, 80
3, 47028, Note_on_c, 1, 80, 0
3, 47040, Note_on_c, 1, 79, 80
3, 47088, Note_on_c, 1, 79, 0
3, 47100, Note_on_c, 1, 77, 80
3, 47148, Note_on_c, 1, 77, 0
3, 47160, Note_on_c, 1, 79, 80
3, 47208, Note_on_c, 1, 79, 0
3, 47220, Note_on_c, 1, 80, 80
3, 47268, Note_on_c, 1, 80, 0
3, 47280, Note_on_c, 1, 80, 80
3, 47328, Note_on_c, 1, 80, 0
3, 47340, Note_on_c, 1, 82, 80
3, 47388, Note_on_c, 1, 82, 0
3, 47400, Note_on_c, 1, 82, 80
3, 47448, Note_on_c, 1, 82, 0
3, 47460, Note_on_c, 1, 84, 80
3, 47508, Note_on_c, 1, 84, 0
3, 47520, Note_on_c, 1, 84, 80
3, 47568, Note_on_c, 1, 84, 0
3, 47580, Note_on_c, 1, 74, 80
3, 47628, Note_on_c, 1, 74, 0
3, 47640, Note_on_c, 1, 74, 80
3, 47688, Note_on_c, 1, 74, 0
3, 47700, Note_on_c, 1, 75, 80
3, 47748, Note_on_c, 1, 75, 0
3, 47760, Note_on_c, 1, 75, 80
3, 47808, Note_on_c, 1, 75, 0
3, 47820, Note_on_c, 1, 70, 80
3, 47868, Note_on_c, 1, 70, 0
3, 47880, Note_on_c, 1, 72, 80
3, 47952, Note_on_c, 1, 72, 0
3, 47970, Note_on_c, 1, 80, 80
3, 47994, Note_on_c, 1, 80, 0
3, 48000, Note_on_c, 1, 79, 80
3, 48096, Note_on_c, 1, 79, 0
3, 48120, Note_on_c, 1, 77, 80
3, 48216, Note_on_c, 1, 77, 0
3, 48240, Note_on_c, 1, 75, 80
3, 48336, Note_on_c, 1, 75, 0
3, 48360, Note_on_c, 1, 67, 80
3, 48648, Note_on_c, 1, 67, 0
3, 48660, Note_on_c, 1, 62, 80
3, 48708, Note_on_c, 1, 62, 0
3, 48720, Note_on_c, 1, 62, 80
3, 48768, Note_on_c, 1, 62, 0
3, 48780, Note_on_c, 1, 65, 80
3, 48828, Note_on_c, 1, 65, 0
3, 48840, Note_on_c, 1, 63, 80
3, 48888, Note_on_c, 1, 63, 0
3, 48900, Note_on_c, 1, 62, 80
3, 48948, Note_on_c, 1, 62, 0
3, 48960, Note_on_c, 1, 63, 80
3, 49008, Note_on_c, 1, 63, 0
3, 49020, Note_on_c, 1, 65, 80
3, 49068, Note_on_c, 1, 65, 0
3, 49080, Note_on_c, 1, 67, 80
3, 49368, Note_on_c, 1, 67, 0
3, 49380, Note_on_c, 1, 62, 80
3, 49428, Note_on_c, 1, 62, 0
3, 49440, Note_on_c, 1, 62, 80
3, 49488, Note_on_c, 1, 62, 0
3, 49500, Note_on_c, 1, 65, 80
3, 49548, Note_on_c, 1, 65, 0
3, 49560, Note_on_c, 1, 63, 80
3, 49608, Note_on_c, 1, 63, 0
3, 49620, Note_on_c, 1, 62, 80
3, 49668, Note_on_c, 1, 62, 0
3, 49680, Note_on_c, 1, 63, 80
3, 49776, Note_on_c, 1, 63, 0
3, 49800, Note_on_c, 1, 70, 80
3, 50136, Note_on_c, 1, 70, 0
3, 50160, Note_on_c, 1, 68, 80
3, 50256, Note_on_c, 1, 68, 0
3, 50280, Note_on_c, 1, 67, 80
3, 50376, Note_on_c, 1, 67, 0
3, 50400, Note_on_c, 1, 68, 80
3, 50448, Note_on_c, 1, 68, 0
3, 50460, Note_on_c, 1, 65, 80
3, 50508, Note_on_c, 1, 65, 0
3, 50520, Note_on_c, 1, 63, 80
3, 50568, Note_on_c, 1, 63, 0
3, 50580, Note_on_c, 1, 62, 80
3, 50595, Note_on_c, 1, 62, 0
3, 50595, Note_on_c, 1, 63, 80
3, 50610, Note_on_c, 1, 63, 0
3, 50610, Note_on_c, 1, 62, 80
3, 50625, Note_on_c, 1, 62, 0
3, 50625, Note_on_c, 1, 63, 80
3, 50640, Note_on_c, 1, 63, 0
3, 50640, Note_on_c, 1, 62, 80
3, 50700, Note_on_c, 1, 62, 0
3, 50700, Note_on_c, 1, 63, 80
3, 50748, Note_on_c, 1, 63, 0
3, 50760, Note_on_c, 1, 63, 80
3, 51048, Note_on_c, 1, 63, 0
3, 51048, End_track
4, 0, Start_track
4, 0, MIDI_port, 0
4, 0, Title_t, "MIDI by Marty Weimer 3/3/97"
4, 0, Program_c, 2, 6
4, 0, Control_c, 2, 7, 90
4, 0, Control_c, 2, 10, 56
4, 0, Note_on_c, 2, 51, 80
4, 192, Note_on_c, 2, 51, 0
4, 240, Note_on_c, 2, 55, 80
4, 336, Note_on_c, 2, 55, 0
4, 360, Note_on_c, 2, 56, 80
4, 456, Note_on_c, 2, 56, 0
4, 480, Note_on_c, 2, 58, 80
4, 576, Note_on_c, 2, 58, 0
4, 600, Note_on_c, 2, 46, 80
4, 696, Note_on_c, 2, 46, 0
4, 720, Note_on_c, 2, 51, 80
4, 912, Note_on_c, 2, 51, 0
4, 960, Note_on_c, 2, 55, 80
4, 1056, Note_on_c, 2, 55, 0
4, 1080, Note_on_c, 2, 56, 80
4, 1176, Note_on_c, 2, 56, 0
4, 1200, Note_on_c, 2, 58, 80
4, 1296, Note_on_c, 2, 58, 0
4, 1320, Note_on_c, 2, 46, 80
4, 1416, Note_on_c, 2, 46, 0
4, 1440, Note_on_c, 2, 51, 80
4, 1632, Note_on_c, 2, 51, 0
4, 1680, Note_on_c, 2, 56, 80
4, 1776, Note_on_c, 2, 56, 0
4, 1800, Note_on_c, 2, 58, 80
4, 1896, Note_on_c, 2, 58, 0
4, 1920, Note_on_c, 2, 63, 80
4, 1968, Note_on_c, 2, 63, 0
4, 1980, Note_on_c, 2, 58, 80
4, 2028, Note_on_c, 2, 58, 0
4, 2040, Note_on_c, 2, 55, 80
4, 2088, Note_on_c, 2, 55, 0
4, 2100, Note_on_c, 2, 51, 80
4, 2148, Note_on_c, 2, 51, 0
4, 2160, Note_on_c, 2, 58, 80
4, 2256, Note_on_c, 2, 58, 0
4, 2280, Note_on_c, 2, 63, 80
4, 2328, Note_on_c, 2, 63, 0
4, 2340, Note_on_c, 2, 58, 80
4, 2388, Note_on_c, 2, 58, 0
4, 2400, Note_on_c, 2, 55, 80
4, 2448, Note_on_c, 2, 55, 0
4, 2460, Note_on_c, 2, 51, 80
4, 2508, Note_on_c, 2, 51, 0
4, 2520, Note_on_c, 2, 58, 80
4, 2616, Note_on_c, 2, 58, 0
4, 2640, Note_on_c, 2, 46, 80
4, 2736, Note_on_c, 2, 46, 0
4, 2760, Note_on_c, 2, 58, 80
4, 2856, Note_on_c, 2, 58, 0
4, 2880, Note_on_c, 2, 51, 80
4, 3072, Note_on_c, 2, 51, 0
4, 3120, Note_on_c, 2, 55, 80
4, 3216, Note_on_c, 2, 55, 0
4, 3240, Note_on_c, 2, 56, 80
4, 3336, Note_on_c, 2, 56, 0
4, 3360, Note_on_c, 2, 58, 80
4, 3456, Note_on_c, 2, 58, 0
4, 3480, Note_on_c, 2, 46, 80
4, 3576, Note_on_c, 2, 46, 0
4, 3600, Note_on_c, 2, 51, 80
4, 3792, Note_on_c, 2, 51, 0
4, 3840, Note_on_c, 2, 55, 80
4, 3936, Note_on_c, 2, 55, 0
4, 3960, Note_on_c, 2, 56, 80
4, 4056, Note_on_c, 2, 56, 0
4, 4080, Note_on_c, 2, 58, 80
4, 4176, Note_on_c, 2, 58, 0
4, 4200, Note_on_c, 2, 46, 80
4, 4296, Note_on_c, 2, 46, 0
4, 4320, Note_on_c, 2, 51, 80
4, 4416, Note_on_c, 2, 51, 0
4, 4440, Note_on_c, 2, 51, 80
4, 4536, Note_on_c, 2, 51, 0
4, 4560, Note_on_c, 2, 51, 80
4, 4656, Note_on_c, 2, 51, 0
4, 4680, Note_on_c, 2, 50, 80
4, 4776, Note_on_c, 2, 50, 0
4, 4800, Note_on_c, 2, 50, 80
4, 4896, Note_on_c, 2, 50, 0
4, 4920, Note_on_c, 2, 50, 80
4, 5016, Note_on_c, 2, 50, 0
4, 5040, Note_on_c, 2, 48, 80
4, 5136, Note_on_c, 2, 48, 0
4, 5160, Note_on_c, 2, 48, 80
4, 5256, Note_on_c, 2, 48, 0
4, 5280, Note_on_c, 2, 48, 80
4, 5376, Note_on_c, 2, 48, 0
4, 5400, Note_on_c, 2, 46, 80
4, 5496, Note_on_c, 2, 46, 0
4, 5520, Note_on_c, 2, 46, 80
4, 5616, Note_on_c, 2, 46, 0
4, 5640, Note_on_c, 2, 46, 80
4, 5736, Note_on_c, 2, 46, 0
4, 5760, Note_on_c, 2, 44, 80
4, 5856, Note_on_c, 2, 44, 0
4, 5880, Note_on_c, 2, 56, 80
4, 5976, Note_on_c, 2, 56, 0
4, 6000, Note_on_c, 2, 56, 80
4, 6096, Note_on_c, 2, 56, 0
4, 6120, Note_on_c, 2, 55, 80
4, 6216, Note_on_c, 2, 55, 0
4, 6240, Note_on_c, 2, 55, 80
4, 6336, Note_on_c, 2, 55, 0
4, 6360, Note_on_c, 2, 55, 80
4, 6456, Note_on_c, 2, 55, 0
4, 6480, Note_on_c, 2, 53, 80
4, 6576, Note_on_c, 2, 53, 0
4, 6600, Note_on_c, 2, 50, 80
4, 6696, Note_on_c, 2, 50, 0
4, 6720, Note_on_c, 2, 51, 80
4, 6816, Note_on_c, 2, 51, 0
4, 6840, Note_on_c, 2, 46, 80
4, 6936, Note_on_c, 2, 46, 0
4, 6960, Note_on_c, 2, 50, 80
4, 7056, Note_on_c, 2, 50, 0
4, 7080, Note_on_c, 2, 46, 80
4, 7176, Note_on_c, 2, 46, 0
4, 7200, Note_on_c, 2, 51, 80
4, 7296, Note_on_c, 2, 51, 0
4, 7320, Note_on_c, 2, 48, 80
4, 7416, Note_on_c, 2, 48, 0
4, 7440, Note_on_c, 2, 51, 80
4, 7536, Note_on_c, 2, 51, 0
4, 7560, Note_on_c, 2, 53, 80
4, 7656, Note_on_c, 2, 53, 0
4, 7680, Note_on_c, 2, 57, 80
4, 7776, Note_on_c, 2, 57, 0
4, 7800, Note_on_c, 2, 53, 80
4, 7896, Note_on_c, 2, 53, 0
4, 7920, Note_on_c, 2, 58, 80
4, 8016, Note_on_c, 2, 58, 0
4, 8040, Note_on_c, 2, 58, 80
4, 8136, Note_on_c, 2, 58, 0
4, 8160, Note_on_c, 2, 58, 80
4, 8256, Note_on_c, 2, 58, 0
4, 8280, Note_on_c, 2, 57, 80
4, 8376, Note_on_c, 2, 57, 0
4, 8400, Note_on_c, 2, 57, 80
4, 8496, Note_on_c, 2, 57, 0
4, 8520, Note_on_c, 2, 57, 80
4, 8616, Note_on_c, 2, 57, 0
4, 8640, Note_on_c, 2, 55, 80
4, 8736, Note_on_c, 2, 55, 0
4, 8760, Note_on_c, 2, 55, 80
4, 8856, Note_on_c, 2, 55, 0
4, 8880, Note_on_c, 2, 55, 80
4, 8976, Note_on_c, 2, 55, 0
4, 9000, Note_on_c, 2, 53, 80
4, 9096, Note_on_c, 2, 53, 0
4, 9120, Note_on_c, 2, 53, 80
4, 9216, Note_on_c, 2, 53, 0
4, 9240, Note_on_c, 2, 53, 80
4, 9336, Note_on_c, 2, 53, 0
4, 9360, Note_on_c, 2, 51, 80
4, 9456, Note_on_c, 2, 51, 0
4, 9480, Note_on_c, 2, 51, 80
4, 9576, Note_on_c, 2, 51, 0
4, 9600, Note_on_c, 2, 51, 80
4, 9696, Note_on_c, 2, 51, 0
4, 9720, Note_on_c, 2, 50, 80
4, 9816, Note_on_c, 2, 50, 0
4, 9840, Note_on_c, 2, 50, 80
4, 9936, Note_on_c, 2, 50, 0
4, 9960, Note_on_c, 2, 50, 80
4, 10056, Note_on_c, 2, 50, 0
4, 10080, Note_on_c, 2, 48, 80
4, 10176, Note_on_c, 2, 48, 0
4, 10200, Note_on_c, 2, 45, 80
4, 10296, Note_on_c, 2, 45, 0
4, 10320, Note_on_c, 2, 46, 80
4, 10416, Note_on_c, 2, 46, 0
4, 10440, Note_on_c, 2, 51, 80
4, 10536, Note_on_c, 2, 51, 0
4, 10560, Note_on_c, 2, 51, 80
4, 10656, Note_on_c, 2, 51, 0
4, 10680, Note_on_c, 2, 51, 80
4, 10776, Note_on_c, 2, 51, 0
4, 10800, Note_on_c, 2, 51, 80
4, 10896, Note_on_c, 2, 51, 0
4, 10920, Note_on_c, 2, 51, 80
4, 11016, Note_on_c, 2, 51, 0
4, 11040, Note_on_c, 2, 51, 80
4, 11136, Note_on_c, 2, 51, 0
4, 11160, Note_on_c, 2, 53, 80
4, 11352, Note_on_c, 2, 53, 0
4, 11400, Note_on_c, 2, 58, 80
4, 11496, Note_on_c, 2, 58, 0
4, 11520, Note_on_c, 2, 57, 80
4, 11616, Note_on_c, 2, 57, 0
4, 11640, Note_on_c, 2, 53, 80
4, 11736, Note_on_c, 2, 53, 0
4, 11760, Note_on_c, 2, 58, 80
4, 11856, Note_on_c, 2, 58, 0
4, 11880, Note_on_c, 2, 53, 80
4, 12072, Note_on_c, 2, 53, 0
4, 12120, Note_on_c, 2, 58, 80
4, 12216, Note_on_c, 2, 58, 0
4, 12240, Note_on_c, 2, 57, 80
4, 12336, Note_on_c, 2, 57, 0
4, 12360, Note_on_c, 2, 53, 80
4, 12456, Note_on_c, 2, 53, 0
4, 12480, Note_on_c, 2, 58, 80
4, 12576, Note_on_c, 2, 58, 0
4, 12600, Note_on_c, 2, 53, 80
4, 12696, Note_on_c, 2, 53, 0
4, 12720, Note_on_c, 2, 41, 80
4, 12816, Note_on_c, 2, 41, 0
4, 12840, Note_on_c, 2, 41, 80
4, 12936, Note_on_c, 2, 41, 0
4, 12960, Note_on_c, 2, 41, 80
4, 13056, Note_on_c, 2, 41, 0
4, 13080, Note_on_c, 2, 41, 80
4, 13176, Note_on_c, 2, 41, 0
4, 13200, Note_on_c, 2, 41, 80
4, 13296, Note_on_c, 2, 41, 0
4, 13320, Note_on_c, 2, 46, 80
4, 13512, Note_on_c, 2, 46, 0
4, 13560, Note_on_c, 2, 51, 80
4, 13656, Note_on_c, 2, 51, 0
4, 13680, Note_on_c, 2, 50, 80
4, 13776, Note_on_c, 2, 50, 0
4, 13800, Note_on_c, 2, 46, 80
4, 13896, Note_on_c, 2, 46, 0
4, 13920, Note_on_c, 2, 51, 80
4, 14016, Note_on_c, 2, 51, 0
4, 14040, Note_on_c, 2, 46, 80
4, 14232, Note_on_c, 2, 46, 0
4, 14280, Note_on_c, 2, 51, 80
4, 14376, Note_on_c, 2, 51, 0
4, 14400, Note_on_c, 2, 50, 80
4, 14496, Note_on_c, 2, 50, 0
4, 14520, Note_on_c, 2, 46, 80
4, 14616, Note_on_c, 2, 46, 0
4, 14640, Note_on_c, 2, 51, 80
4, 14736, Note_on_c, 2, 51, 0
4, 14760, Note_on_c, 2, 46, 80
4, 14856, Note_on_c, 2, 46, 0
4, 14880, Note_on_c, 2, 46, 80
4, 14976, Note_on_c, 2, 46, 0
4, 15000, Note_on_c, 2, 46, 80
4, 15096, Note_on_c, 2, 46, 0
4, 15120, Note_on_c, 2, 46, 80
4, 15216, Note_on_c, 2, 46, 0
4, 15240, Note_on_c, 2, 58, 80
4, 15336, Note_on_c, 2, 58, 0
4, 15360, Note_on_c, 2, 46, 80
4, 15456, Note_on_c, 2, 46, 0
4, 15480, Note_on_c, 2, 51, 80
4, 15576, Note_on_c, 2, 51, 0
4, 15600, Note_on_c, 2, 48, 80
4, 15696, Note_on_c, 2, 48, 0
4, 15720, Note_on_c, 2, 51, 80
4, 15816, Note_on_c, 2, 51, 0
4, 15840, Note_on_c, 2, 53, 80
4, 15936, Note_on_c, 2, 53, 0
4, 15960, Note_on_c, 2, 41, 80
4, 16056, Note_on_c, 2, 41, 0
4, 16080, Note_on_c, 2, 53, 80
4, 16176, Note_on_c, 2, 53, 0
4, 16200, Note_on_c, 2, 58, 80
4, 16296, Note_on_c, 2, 58, 0
4, 16320, Note_on_c, 2, 46, 80
4, 16368, Note_on_c, 2, 46, 0
4, 16380, Note_on_c, 2, 48, 80
4, 16428, Note_on_c, 2, 48, 0
4, 16440, Note_on_c, 2, 50, 80
4, 16488, Note_on_c, 2, 50, 0
4, 16500, Note_on_c, 2, 51, 80
4, 16548, Note_on_c, 2, 51, 0
4, 16560, Note_on_c, 2, 53, 80
4, 16656, Note_on_c, 2, 53, 0
4, 16680, Note_on_c, 2, 41, 80
4, 16776, Note_on_c, 2, 41, 0
4, 16800, Note_on_c, 2, 53, 80
4, 16896, Note_on_c, 2, 53, 0
4, 16920, Note_on_c, 2, 46, 80
4, 17016, Note_on_c, 2, 46, 0
4, 17040, Note_on_c, 2, 46, 80
4, 17088, Note_on_c, 2, 46, 0
4, 17100, Note_on_c, 2, 48, 80
4, 17148, Note_on_c, 2, 48, 0
4, 17160, Note_on_c, 2, 50, 80
4, 17208, Note_on_c, 2, 50, 0
4, 17220, Note_on_c, 2, 51, 80
4, 17268, Note_on_c, 2, 51, 0
4, 17280, Note_on_c, 2, 53, 80
4, 17376, Note_on_c, 2, 53, 0
4, 17400, Note_on_c, 2, 41, 80
4, 17496, Note_on_c, 2, 41, 0
4, 17520, Note_on_c, 2, 53, 80
4, 17616, Note_on_c, 2, 53, 0
4, 17640, Note_on_c, 2, 46, 80
4, 17736, Note_on_c, 2, 46, 0
4, 17760, Note_on_c, 2, 48, 80
4, 17856, Note_on_c, 2, 48, 0
4, 17880, Note_on_c, 2, 50, 80
4, 17976, Note_on_c, 2, 50, 0
4, 18000, Note_on_c, 2, 51, 80
4, 18096, Note_on_c, 2, 51, 0
4, 18120, Note_on_c, 2, 53, 80
4, 18216, Note_on_c, 2, 53, 0
4, 18240, Note_on_c, 2, 55, 80
4, 18336, Note_on_c, 2, 55, 0
4, 18360, Note_on_c, 2, 51, 80
4, 18456, Note_on_c, 2, 51, 0
4, 18480, Note_on_c, 2, 53, 80
4, 18576, Note_on_c, 2, 53, 0
4, 18600, Note_on_c, 2, 41, 80
4, 18696, Note_on_c, 2, 41, 0
4, 18720, Note_on_c, 2, 46, 80
4, 18816, Note_on_c, 2, 46, 0
4, 18840, Note_on_c, 2, 46, 80
4, 18888, Note_on_c, 2, 46, 0
4, 18900, Note_on_c, 2, 48, 80
4, 18948, Note_on_c, 2, 48, 0
4, 18960, Note_on_c, 2, 50, 80
4, 19008, Note_on_c, 2, 50, 0
4, 19020, Note_on_c, 2, 51, 80
4, 19068, Note_on_c, 2, 51, 0
4, 19080, Note_on_c, 2, 53, 80
4, 19176, Note_on_c, 2, 53, 0
4, 19200, Note_on_c, 2, 41, 80
4, 19296, Note_on_c, 2, 41, 0
4, 19320, Note_on_c, 2, 53, 80
4, 19416, Note_on_c, 2, 53, 0
4, 19440, Note_on_c, 2, 46, 80
4, 19536, Note_on_c, 2, 46, 0
4, 19560, Note_on_c, 2, 46, 80
4, 19608, Note_on_c, 2, 46, 0
4, 19620, Note_on_c, 2, 48, 80
4, 19668, Note_on_c, 2, 48, 0
4, 19680, Note_on_c, 2, 50, 80
4, 19728, Note_on_c, 2, 50, 0
4, 19740, Note_on_c, 2, 51, 80
4, 19788, Note_on_c, 2, 51, 0
4, 19800, Note_on_c, 2, 53, 80
4, 19896, Note_on_c, 2, 53, 0
4, 19920, Note_on_c, 2, 41, 80
4, 20016, Note_on_c, 2, 41, 0
4, 20040, Note_on_c, 2, 53, 80
4, 20136, Note_on_c, 2, 53, 0
4, 20160, Note_on_c, 2, 46, 80
4, 20256, Note_on_c, 2, 46, 0
4, 20280, Note_on_c, 2, 50, 80
4, 20376, Note_on_c, 2, 50, 0
4, 20400, Note_on_c, 2, 46, 80
4, 20496, Note_on_c, 2, 46, 0
4, 20520, Note_on_c, 2, 51, 80
4, 20664, Note_on_c, 2, 51, 0
4, 20700, Note_on_c, 2, 53, 80
4, 20748, Note_on_c, 2, 53, 0
4, 20760, Note_on_c, 2, 55, 80
4, 20856, Note_on_c, 2, 55, 0
4, 20880, Note_on_c, 2, 51, 80
4, 20976, Note_on_c, 2, 51, 0
4, 21000, Note_on_c, 2, 53, 80
4, 21096, Note_on_c, 2, 53, 0
4, 21120, Note_on_c, 2, 41, 80
4, 21216, Note_on_c, 2, 41, 0
4, 21240, Note_on_c, 2, 46, 80
4, 21528, Note_on_c, 2, 46, 0
4, 21600, Note_on_c, 2, 46, 80
4, 21792, Note_on_c, 2, 46, 0
4, 21840, Note_on_c, 2, 50, 80
4, 21936, Note_on_c, 2, 50, 0
4, 21960, Note_on_c, 2, 51, 80
4, 22056, Note_on_c, 2, 51, 0
4, 22080, Note_on_c, 2, 53, 80
4, 22176, Note_on_c, 2, 53, 0
4, 22200, Note_on_c, 2, 41, 80
4, 22296, Note_on_c, 2, 41, 0
4, 22320, Note_on_c, 2, 46, 80
4, 22512, Note_on_c, 2, 46, 0
4, 22560, Note_on_c, 2, 50, 80
4, 22656, Note_on_c, 2, 50, 0
4, 22680, Note_on_c, 2, 51, 80
4, 22776, Note_on_c, 2, 51, 0
4, 22800, Note_on_c, 2, 53, 80
4, 22896, Note_on_c, 2, 53, 0
4, 22920, Note_on_c, 2, 41, 80
4, 23016, Note_on_c, 2, 41, 0
4, 23040, Note_on_c, 2, 46, 80
4, 23232, Note_on_c, 2, 46, 0
4, 23280, Note_on_c, 2, 51, 80
4, 23376, Note_on_c, 2, 51, 0
4, 23400, Note_on_c, 2, 53, 80
4, 23496, Note_on_c, 2, 53, 0
4, 23520, Note_on_c, 2, 58, 80
4, 23568, Note_on_c, 2, 58, 0
4, 23580, Note_on_c, 2, 53, 80
4, 23628, Note_on_c, 2, 53, 0
4, 23640, Note_on_c, 2, 50, 80
4, 23688, Note_on_c, 2, 50, 0
4, 23700, Note_on_c, 2, 46, 80
4, 23748, Note_on_c, 2, 46, 0
4, 23760, Note_on_c, 2, 53, 80
4, 23856, Note_on_c, 2, 53, 0
4, 23880, Note_on_c, 2, 58, 80
4, 23928, Note_on_c, 2, 58, 0
4, 23940, Note_on_c, 2, 53, 80
4, 23988, Note_on_c, 2, 53, 0
4, 24000, Note_on_c, 2, 50, 80
4, 24048, Note_on_c, 2, 50, 0
4, 24060, Note_on_c, 2, 46, 80
4, 24108, Note_on_c, 2, 46, 0
4, 24120, Note_on_c, 2, 53, 80
4, 24264, Note_on_c, 2, 53, 0
4, 24300, Note_on_c, 2, 51, 80
4, 24348, Note_on_c, 2, 51, 0
4, 24360, Note_on_c, 2, 50, 80
4, 24408, Note_on_c, 2, 50, 0
4, 24420, Note_on_c, 2, 48, 80
4, 24468, Note_on_c, 2, 48, 0
4, 24480, Note_on_c, 2, 47, 80
4, 24768, Note_on_c, 2, 47, 0
4, 24840, Note_on_c, 2, 48, 80
4, 24888, Note_on_c, 2, 48, 0
4, 24900, Note_on_c, 2, 47, 80
4, 24948, Note_on_c, 2, 47, 0
4, 24960, Note_on_c, 2, 48, 80
4, 25008, Note_on_c, 2, 48, 0
4, 25020, Note_on_c, 2, 50, 80
4, 25068, Note_on_c, 2, 50, 0
4, 25080, Note_on_c, 2, 51, 80
4, 25128, Note_on_c, 2, 51, 0
4, 25140, Note_on_c, 2, 48, 80
4, 25188, Note_on_c, 2, 48, 0
4, 25200, Note_on_c, 2, 53, 80
4, 25488, Note_on_c, 2, 53, 0
4, 25560, Note_on_c, 2, 55, 80
4, 25656, Note_on_c, 2, 55, 0
4, 25680, Note_on_c, 2, 60, 80
4, 25728, Note_on_c, 2, 60, 0
4, 25740, Note_on_c, 2, 55, 80
4, 25788, Note_on_c, 2, 55, 0
4, 25800, Note_on_c, 2, 51, 80
4, 25848, Note_on_c, 2, 51, 0
4, 25860, Note_on_c, 2, 48, 80
4, 25908, Note_on_c, 2, 48, 0
4, 25920, Note_on_c, 2, 55, 80
4, 26016, Note_on_c, 2, 55, 0
4, 26040, Note_on_c, 2, 60, 80
4, 26088, Note_on_c, 2, 60, 0
4, 26100, Note_on_c, 2, 55, 80
4, 26148, Note_on_c, 2, 55, 0
4, 26160, Note_on_c, 2, 51, 80
4, 26208, Note_on_c, 2, 51, 0
4, 26220, Note_on_c, 2, 48, 80
4, 26268, Note_on_c, 2, 48, 0
4, 26280, Note_on_c, 2, 55, 80
4, 26376, Note_on_c, 2, 55, 0
4, 26400, Note_on_c, 2, 59, 80
4, 26496, Note_on_c, 2, 59, 0
4, 26520, Note_on_c, 2, 55, 80
4, 26616, Note_on_c, 2, 55, 0
4, 26640, Note_on_c, 2, 60, 80
4, 26736, Note_on_c, 2, 60, 0
4, 26760, Note_on_c, 2, 48, 80
4, 26856, Note_on_c, 2, 48, 0
4, 26880, Note_on_c, 2, 60, 80
4, 26976, Note_on_c, 2, 60, 0
4, 27000, Note_on_c, 2, 53, 80
4, 27096, Note_on_c, 2, 53, 0
4, 27120, Note_on_c, 2, 41, 80
4, 27216, Note_on_c, 2, 41, 0
4, 27240, Note_on_c, 2, 53, 80
4, 27336, Note_on_c, 2, 53, 0
4, 27360, Note_on_c, 2, 58, 80
4, 27456, Note_on_c, 2, 58, 0
4, 27480, Note_on_c, 2, 46, 80
4, 27576, Note_on_c, 2, 46, 0
4, 27600, Note_on_c, 2, 58, 80
4, 27696, Note_on_c, 2, 58, 0
4, 27720, Note_on_c, 2, 51, 80
4, 27816, Note_on_c, 2, 51, 0
4, 27840, Note_on_c, 2, 48, 80
4, 27936, Note_on_c, 2, 48, 0
4, 27960, Note_on_c, 2, 60, 80
4, 28176, Note_on_c, 2, 60, 0
4, 28200, Note_on_c, 2, 59, 80
4, 28392, Note_on_c, 2, 59, 0
4, 28440, Note_on_c, 2, 60, 80
4, 28536, Note_on_c, 2, 60, 0
4, 28560, Note_on_c, 2, 48, 80
4, 28656, Note_on_c, 2, 48, 0
4, 28680, Note_on_c, 2, 60, 80
4, 28776, Note_on_c, 2, 60, 0
4, 28800, Note_on_c, 2, 60, 80
4, 28896, Note_on_c, 2, 60, 0
4, 28920, Note_on_c, 2, 59, 80
4, 29112, Note_on_c, 2, 59, 0
4, 29160, Note_on_c, 2, 60, 80
4, 29304, Note_on_c, 2, 60, 0
4, 29340, Note_on_c, 2, 58, 80
4, 29388, Note_on_c, 2, 58, 0
4, 29400, Note_on_c, 2, 57, 80
4, 29448, Note_on_c, 2, 57, 0
4, 29460, Note_on_c, 2, 55, 80
4, 29508, Note_on_c, 2, 55, 0
4, 29520, Note_on_c, 2, 54, 80
4, 29808, Note_on_c, 2, 54, 0
4, 29880, Note_on_c, 2, 55, 80
4, 29928, Note_on_c, 2, 55, 0
4, 29940, Note_on_c, 2, 54, 80
4, 29988, Note_on_c, 2, 54, 0
4, 30000, Note_on_c, 2, 55, 80
4, 30048, Note_on_c, 2, 55, 0
4, 30060, Note_on_c, 2, 57, 80
4, 30108, Note_on_c, 2, 57, 0
4, 30120, Note_on_c, 2, 59, 80
4, 30168, Note_on_c, 2, 59, 0
4, 30180, Note_on_c, 2, 55, 80
4, 30228, Note_on_c, 2, 55, 0
4, 30240, Note_on_c, 2, 60, 80
4, 30336, Note_on_c, 2, 60, 0
4, 30360, Note_on_c, 2, 48, 80
4, 30552, Note_on_c, 2, 48, 0
4, 30600, Note_on_c, 2, 50, 80
4, 30696, Note_on_c, 2, 50, 0
4, 30720, Note_on_c, 2, 55, 80
4, 30768, Note_on_c, 2, 55, 0
4, 30780, Note_on_c, 2, 50, 80
4, 30828, Note_on_c, 2, 50, 0
4, 30840, Note_on_c, 2, 46, 80
4, 30888, Note_on_c, 2, 46, 0
4, 30900, Note_on_c, 2, 43, 80
4, 30948, Note_on_c, 2, 43, 0
4, 30960, Note_on_c, 2, 50, 80
4, 31056, Note_on_c, 2, 50, 0
4, 31080, Note_on_c, 2, 55, 80
4, 31128, Note_on_c, 2, 55, 0
4, 31140, Note_on_c, 2, 50, 80
4, 31188, Note_on_c, 2, 50, 0
4, 31200, Note_on_c, 2, 46, 80
4, 31248, Note_on_c, 2, 46, 0
4, 31260, Note_on_c, 2, 43, 80
4, 31308, Note_on_c, 2, 43, 0
4, 31320, Note_on_c, 2, 50, 80
4, 31416, Note_on_c, 2, 50, 0
4, 31440, Note_on_c, 2, 54, 80
4, 31536, Note_on_c, 2, 54, 0
4, 31560, Note_on_c, 2, 50, 80
4, 31656, Note_on_c, 2, 50, 0
4, 31680, Note_on_c, 2, 55, 80
4, 31776, Note_on_c, 2, 55, 0
4, 31800, Note_on_c, 2, 43, 80
4, 31896, Note_on_c, 2, 43, 0
4, 31920, Note_on_c, 2, 55, 80
4, 32016, Note_on_c, 2, 55, 0
4, 32040, Note_on_c, 2, 48, 80
4, 32136, Note_on_c, 2, 48, 0
4, 32160, Note_on_c, 2, 60, 80
4, 32256, Note_on_c, 2, 60, 0
4, 32280, Note_on_c, 2, 48, 80
4, 32376, Note_on_c, 2, 48, 0
4, 32400, Note_on_c, 2, 53, 80
4, 32496, Note_on_c, 2, 53, 0
4, 32520, Note_on_c, 2, 41, 80
4, 32616, Note_on_c, 2, 41, 0
4, 32640, Note_on_c, 2, 53, 80
4, 32736, Note_on_c, 2, 53, 0
4, 32760, Note_on_c, 2, 46, 80
4, 32856, Note_on_c, 2, 46, 0
4, 32880, Note_on_c, 2, 43, 80
4, 32976, Note_on_c, 2, 43, 0
4, 33000, Note_on_c, 2, 55, 80
4, 33096, Note_on_c, 2, 55, 0
4, 33120, Note_on_c, 2, 55, 80
4, 33216, Note_on_c, 2, 55, 0
4, 33240, Note_on_c, 2, 54, 80
4, 33432, Note_on_c, 2, 54, 0
4, 33480, Note_on_c, 2, 55, 80
4, 33576, Note_on_c, 2, 55, 0
4, 33600, Note_on_c, 2, 43, 80
4, 33696, Note_on_c, 2, 43, 0
4, 33720, Note_on_c, 2, 55, 80
4, 33816, Note_on_c, 2, 55, 0
4, 33840, Note_on_c, 2, 55, 80
4, 33936, Note_on_c, 2, 55, 0
4, 33960, Note_on_c, 2, 54, 80
4, 34152, Note_on_c, 2, 54, 0
4, 34200, Note_on_c, 2, 55, 80
4, 34296, Note_on_c, 2, 55, 0
4, 34320, Note_on_c, 2, 43, 80
4, 34416, Note_on_c, 2, 43, 0
4, 34440, Note_on_c, 2, 48, 80
4, 34536, Note_on_c, 2, 48, 0
4, 34560, Note_on_c, 2, 50, 80
4, 34656, Note_on_c, 2, 50, 0
4, 34680, Note_on_c, 2, 48, 80
4, 34776, Note_on_c, 2, 48, 0
4, 34800, Note_on_c, 2, 46, 80
4, 34896, Note_on_c, 2, 46, 0
4, 34920, Note_on_c, 2, 48, 80
4, 35016, Note_on_c, 2, 48, 0
4, 35040, Note_on_c, 2, 50, 80
4, 35136, Note_on_c, 2, 50, 0
4, 35160, Note_on_c, 2, 38, 80
4, 35256, Note_on_c, 2, 38, 0
4, 35280, Note_on_c, 2, 43, 80
4, 35376, Note_on_c, 2, 43, 0
4, 35400, Note_on_c, 2, 44, 80
4, 35448, Note_on_c, 2, 44, 0
4, 35460, Note_on_c, 2, 46, 80
4, 35508, Note_on_c, 2, 46, 0
4, 35520, Note_on_c, 2, 48, 80
4, 35568, Note_on_c, 2, 48, 0
4, 35580, Note_on_c, 2, 50, 80
4, 35628, Note_on_c, 2, 50, 0
4, 35640, Note_on_c, 2, 51, 80
4, 35832, Note_on_c, 2, 51, 0
4, 35880, Note_on_c, 2, 55, 80
4, 35976, Note_on_c, 2, 55, 0
4, 36000, Note_on_c, 2, 56, 80
4, 36096, Note_on_c, 2, 56, 0
4, 36120, Note_on_c, 2, 58, 80
4, 36216, Note_on_c, 2, 58, 0
4, 36240, Note_on_c, 2, 46, 80
4, 36336, Note_on_c, 2, 46, 0
4, 36360, Note_on_c, 2, 51, 80
4, 36552, Note_on_c, 2, 51, 0
4, 36600, Note_on_c, 2, 55, 80
4, 36696, Note_on_c, 2, 55, 0
4, 36720, Note_on_c, 2, 56, 80
4, 36816, Note_on_c, 2, 56, 0
4, 36840, Note_on_c, 2, 58, 80
4, 36936, Note_on_c, 2, 58, 0
4, 36960, Note_on_c, 2, 46, 80
4, 37056, Note_on_c, 2, 46, 0
4, 37080, Note_on_c, 2, 51, 80
4, 37272, Note_on_c, 2, 51, 0
4, 37320, Note_on_c, 2, 55, 80
4, 37416, Note_on_c, 2, 55, 0
4, 37440, Note_on_c, 2, 56, 80
4, 37536, Note_on_c, 2, 56, 0
4, 37560, Note_on_c, 2, 53, 80
4, 37656, Note_on_c, 2, 53, 0
4, 37800, Note_on_c, 2, 50, 80
4, 37896, Note_on_c, 2, 50, 0
4, 37920, Note_on_c, 2, 51, 80
4, 38016, Note_on_c, 2, 51, 0
4, 38160, Note_on_c, 2, 48, 80
4, 38256, Note_on_c, 2, 48, 0
4, 38280, Note_on_c, 2, 50, 80
4, 38376, Note_on_c, 2, 50, 0
4, 38400, Note_on_c, 2, 46, 80
4, 38496, Note_on_c, 2, 46, 0
4, 38520, Note_on_c, 2, 51, 80
4, 38712, Note_on_c, 2, 51, 0
4, 38760, Note_on_c, 2, 55, 80
4, 38856, Note_on_c, 2, 55, 0
4, 38880, Note_on_c, 2, 56, 80
4, 38976, Note_on_c, 2, 56, 0
4, 39000, Note_on_c, 2, 53, 80
4, 39096, Note_on_c, 2, 53, 0
4, 39240, Note_on_c, 2, 50, 80
4, 39336, Note_on_c, 2, 50, 0
4, 39360, Note_on_c, 2, 51, 80
4, 39456, Note_on_c, 2, 51, 0
4, 39600, Note_on_c, 2, 48, 80
4, 39696, Note_on_c, 2, 48, 0
4, 39720, Note_on_c, 2, 50, 80
4, 39816, Note_on_c, 2, 50, 0
4, 39840, Note_on_c, 2, 46, 80
4, 39936, Note_on_c, 2, 46, 0
4, 39960, Note_on_c, 2, 51, 80
4, 40152, Note_on_c, 2, 51, 0
4, 40200, Note_on_c, 2, 55, 80
4, 40296, Note_on_c, 2, 55, 0
4, 40320, Note_on_c, 2, 56, 80
4, 40416, Note_on_c, 2, 56, 0
4, 40440, Note_on_c, 2, 53, 80
4, 40536, Note_on_c, 2, 53, 0
4, 40680, Note_on_c, 2, 46, 80
4, 40872, Note_on_c, 2, 46, 0
4, 40920, Note_on_c, 2, 51, 80
4, 41016, Note_on_c, 2, 51, 0
4, 41040, Note_on_c, 2, 50, 80
4, 41136, Note_on_c, 2, 50, 0
4, 41160, Note_on_c, 2, 46, 80
4, 41256, Note_on_c, 2, 46, 0
4, 41280, Note_on_c, 2, 51, 80
4, 41376, Note_on_c, 2, 51, 0
4, 41400, Note_on_c, 2, 46, 80
4, 41592, Note_on_c, 2, 46, 0
4, 41640, Note_on_c, 2, 51, 80
4, 41736, Note_on_c, 2, 51, 0
4, 41760, Note_on_c, 2, 50, 80
4, 41856, Note_on_c, 2, 50, 0
4, 41880, Note_on_c, 2, 46, 80
4, 41976, Note_on_c, 2, 46, 0
4, 42000, Note_on_c, 2, 51, 80
4, 42096, Note_on_c, 2, 51, 0
4, 42120, Note_on_c, 2, 46, 80
4, 42216, Note_on_c, 2, 46, 0
4, 42240, Note_on_c, 2, 58, 80
4, 42336, Note_on_c, 2, 58, 0
4, 42360, Note_on_c, 2, 46, 80
4, 42456, Note_on_c, 2, 46, 0
4, 42480, Note_on_c, 2, 46, 80
4, 42576, Note_on_c, 2, 46, 0
4, 42600, Note_on_c, 2, 46, 80
4, 42696, Note_on_c, 2, 46, 0
4, 42720, Note_on_c, 2, 46, 80
4, 42816, Note_on_c, 2, 46, 0
4, 42840, Note_on_c, 2, 51, 80
4, 43032, Note_on_c, 2, 51, 0
4, 43080, Note_on_c, 2, 56, 80
4, 43176, Note_on_c, 2, 56, 0
4, 43200, Note_on_c, 2, 55, 80
4, 43296, Note_on_c, 2, 55, 0
4, 43320, Note_on_c, 2, 51, 80
4, 43416, Note_on_c, 2, 51, 0
4, 43440, Note_on_c, 2, 56, 80
4, 43536, Note_on_c, 2, 56, 0
4, 43560, Note_on_c, 2, 51, 80
4, 43752, Note_on_c, 2, 51, 0
4, 43800, Note_on_c, 2, 56, 80
4, 43896, Note_on_c, 2, 56, 0
4, 43920, Note_on_c, 2, 55, 80
4, 44016, Note_on_c, 2, 55, 0
4, 44040, Note_on_c, 2, 51, 80
4, 44136, Note_on_c, 2, 51, 0
4, 44160, Note_on_c, 2, 56, 80
4, 44256, Note_on_c, 2, 56, 0
4, 44280, Note_on_c, 2, 51, 80
4, 44376, Note_on_c, 2, 51, 0
4, 44400, Note_on_c, 2, 39, 80
4, 44496, Note_on_c, 2, 39, 0
4, 44520, Note_on_c, 2, 51, 80
4, 44616, Note_on_c, 2, 51, 0
4, 44640, Note_on_c, 2, 51, 80
4, 44736, Note_on_c, 2, 51, 0
4, 44760, Note_on_c, 2, 51, 80
4, 44856, Note_on_c, 2, 51, 0
4, 44880, Note_on_c, 2, 51, 80
4, 44976, Note_on_c, 2, 51, 0
4, 45000, Note_on_c, 2, 56, 80
4, 45096, Note_on_c, 2, 56, 0
4, 45120, Note_on_c, 2, 56, 80
4, 45216, Note_on_c, 2, 56, 0
4, 45240, Note_on_c, 2, 56, 80
4, 45336, Note_on_c, 2, 56, 0
4, 45360, Note_on_c, 2, 58, 80
4, 45456, Note_on_c, 2, 58, 0
4, 45480, Note_on_c, 2, 46, 80
4, 45576, Note_on_c, 2, 46, 0
4, 45600, Note_on_c, 2, 46, 80
4, 45696, Note_on_c, 2, 46, 0
4, 45720, Note_on_c, 2, 51, 80
4, 45816, Note_on_c, 2, 51, 0
4, 45840, Note_on_c, 2, 51, 80
4, 45888, Note_on_c, 2, 51, 0
4, 45900, Note_on_c, 2, 53, 80
4, 45948, Note_on_c, 2, 53, 0
4, 45960, Note_on_c, 2, 55, 80
4, 46008, Note_on_c, 2, 55, 0
4, 46020, Note_on_c, 2, 56, 80
4, 46068, Note_on_c, 2, 56, 0
4, 46080, Note_on_c, 2, 58, 80
4, 46176, Note_on_c, 2, 58, 0
4, 46200, Note_on_c, 2, 46, 80
4, 46296, Note_on_c, 2, 46, 0
4, 46320, Note_on_c, 2, 58, 80
4, 46416, Note_on_c, 2, 58, 0
4, 46440, Note_on_c, 2, 51, 80
4, 46536, Note_on_c, 2, 51, 0
4, 46560, Note_on_c, 2, 51, 80
4, 46608, Note_on_c, 2, 51, 0
4, 46620, Note_on_c, 2, 53, 80
4, 46668, Note_on_c, 2, 53, 0
4, 46680, Note_on_c, 2, 55, 80
4, 46728, Note_on_c, 2, 55, 0
4, 46740, Note_on_c, 2, 56, 80
4, 46788, Note_on_c, 2, 56, 0
4, 46800, Note_on_c, 2, 58, 80
4, 46896, Note_on_c, 2, 58, 0
4, 46920, Note_on_c, 2, 46, 80
4, 47016, Note_on_c, 2, 46, 0
4, 47040, Note_on_c, 2, 58, 80
4, 47136, Note_on_c, 2, 58, 0
4, 47160, Note_on_c, 2, 51, 80
4, 47256, Note_on_c, 2, 51, 0
4, 47280, Note_on_c, 2, 53, 80
4, 47376, Note_on_c, 2, 53, 0
4, 47400, Note_on_c, 2, 55, 80
4, 47496, Note_on_c, 2, 55, 0
4, 47520, Note_on_c, 2, 56, 80
4, 47616, Note_on_c, 2, 56, 0
4, 47640, Note_on_c, 2, 58, 80
4, 47736, Note_on_c, 2, 58, 0
4, 47760, Note_on_c, 2, 60, 80
4, 47856, Note_on_c, 2, 60, 0
4, 47880, Note_on_c, 2, 56, 80
4, 47976, Note_on_c, 2, 56, 0
4, 48000, Note_on_c, 2, 58, 80
4, 48096, Note_on_c, 2, 58, 0
4, 48120, Note_on_c, 2, 46, 80
4, 48216, Note_on_c, 2, 46, 0
4, 48240, Note_on_c, 2, 51, 80
4, 48336, Note_on_c, 2, 51, 0
4, 48360, Note_on_c, 2, 51, 80
4, 48408, Note_on_c, 2, 51, 0
4, 48420, Note_on_c, 2, 53, 80
4, 48468, Note_on_c, 2, 53, 0
4, 48480, Note_on_c, 2, 55, 80
4, 48528, Note_on_c, 2, 55, 0
4, 48540, Note_on_c, 2, 56, 80
4, 48588, Note_on_c, 2, 56, 0
4, 48600, Note_on_c, 2, 58, 80
4, 48696, Note_on_c, 2, 58, 0
4, 48720, Note_on_c, 2, 46, 80
4, 48816, Note_on_c, 2, 46, 0
4, 48840, Note_on_c, 2, 46, 80
4, 48936, Note_on_c, 2, 46, 0
4, 48960, Note_on_c, 2, 51, 80
4, 49056, Note_on_c, 2, 51, 0
4, 49080, Note_on_c, 2, 39, 80
4, 49128, Note_on_c, 2, 39, 0
4, 49140, Note_on_c, 2, 41, 80
4, 49188, Note_on_c, 2, 41, 0
4, 49200, Note_on_c, 2, 43, 80
4, 49248, Note_on_c, 2, 43, 0
4, 49260, Note_on_c, 2, 44, 80
4, 49308, Note_on_c, 2, 44, 0
4, 49320, Note_on_c, 2, 46, 80
4, 49416, Note_on_c, 2, 46, 0
4, 49440, Note_on_c, 2, 46, 80
4, 49536, Note_on_c, 2, 46, 0
4, 49560, Note_on_c, 2, 46, 80
4, 49656, Note_on_c, 2, 46, 0
4, 49680, Note_on_c, 2, 51, 80
4, 49776, Note_on_c, 2, 51, 0
4, 49800, Note_on_c, 2, 55, 80
4, 49896, Note_on_c, 2, 55, 0
4, 49920, Note_on_c, 2, 51, 80
4, 50016, Note_on_c, 2, 51, 0
4, 50040, Note_on_c, 2, 44, 80
4, 50184, Note_on_c, 2, 44, 0
4, 50220, Note_on_c, 2, 46, 80
4, 50268, Note_on_c, 2, 46, 0
4, 50280, Note_on_c, 2, 48, 80
4, 50376, Note_on_c, 2, 48, 0
4, 50400, Note_on_c, 2, 44, 80
4, 50496, Note_on_c, 2, 44, 0
4, 50520, Note_on_c, 2, 46, 80
4, 50616, Note_on_c, 2, 46, 0
4, 50640, Note_on_c, 2, 46, 80
4, 50736, Note_on_c, 2, 46, 0
4, 50760, Note_on_c, 2, 51, 80
4, 51048, Note_on_c, 2, 51, 0
4, 51048, End_track
5, 0, Start_track
5, 0, MIDI_port, 0
5, 0, Title_t, "weimermt@liby.org Eureka, MT  USA"
5, 0, End_track
6, 0, Start_track
6, 0, MIDI_port, 0
6, 0, Title_t, "---------------------------"
6, 0, End_track
7, 0, Start_track
7, 0, MIDI_port, 0
7, 0, Title_t, "courtesy of Dave's J.S. Bach Page"
7, 0, End_track
8, 0, Start_track
8, 0, MIDI_port, 0
8, 0, Title_t, "http://www.unpronounceable.com/bach"
8, 0, End_track
9, 0, Start_track
9, 0, MIDI_port, 0
9, 0, Title_t, "---------------------------"
9, 0, End_track
10, 0, Start_track
10, 0, MIDI_port, 0
10, 0, Title_t, "Original Filename: bwv1031c.mid"
10, 0, End_track
0, 0, End_of_file
