0, 0, Header, 1, 10, 240
1, 0, Start_track
1, 0, Title_t, "untitled"
1, 0, SMPTE_offset, 96, 0, 3, 0, 0
1, 0, Time_signature, 4, 2, 24, 8
1, 0, Key_signature, 0, "major"
1, 0, Tempo, 750000
1, 6960, Tempo, 759494
1, 7200, Tempo, 779221
1, 7440, Tempo, 789474
1, 7680, Tempo, 750000
1, 23280, Tempo, 759494
1, 23520, Tempo, 779221
1, 23760, Tempo, 789474
1, 24000, Tempo, 750000
1, 65520, Tempo, 759494
1, 65760, Tempo, 779221
1, 66000, Tempo, 789474
1, 66240, Tempo, 800000
1, 66480, Tempo, 869565
1, 66720, Tempo, 967742
1, 66960, Tempo, 1071429
1, 67200, Tempo, 1200000
1, 67200, End_track
2, 0, Start_track
2, 0, MIDI_port, 0
2, 0, Title_t, "Flute Sonata in E Flat, BWV 1031"
2, 0, Program_c, 0, 73
2, 0, Control_c, 0, 7, 127
2, 0, Control_c, 0, 10, 64
2, 7680, Note_on_c, 0, 70, 80
2, 7800, Note_on_c, 0, 70, 0
2, 7800, Note_on_c, 0, 79, 80
2, 7884, Note_on_c, 0, 79, 0
2, 7920, Note_on_c, 0, 77, 80
2, 8004, Note_on_c, 0, 77, 0
2, 8040, Note_on_c, 0, 75, 80
2, 8124, Note_on_c, 0, 75, 0
2, 8160, Note_on_c, 0, 74, 80
2, 8184, Note_on_c, 0, 74, 0
2, 8190, Note_on_c, 0, 75, 80
2, 8214, Note_on_c, 0, 75, 0
2, 8220, Note_on_c, 0, 77, 80
2, 8250, Note_on_c, 0, 77, 0
2, 8280, Note_on_c, 0, 75, 80
2, 8472, Note_on_c, 0, 75, 0
2, 8520, Note_on_c, 0, 74, 80
2, 8616, Note_on_c, 0, 74, 0
2, 8640, Note_on_c, 0, 72, 80
2, 8700, Note_on_c, 0, 72, 0
2, 8700, Note_on_c, 0, 70, 80
2, 8748, Note_on_c, 0, 70, 0
2, 8760, Note_on_c, 0, 68, 80
2, 8808, Note_on_c, 0, 68, 0
2, 8820, Note_on_c, 0, 67, 80
2, 8868, Note_on_c, 0, 67, 0
2, 8880, Note_on_c, 0, 70, 80
2, 8928, Note_on_c, 0, 70, 0
2, 8940, Note_on_c, 0, 68, 80
2, 8964, Note_on_c, 0, 68, 0
2, 8970, Note_on_c, 0, 70, 80
2, 8994, Note_on_c, 0, 70, 0
2, 9000, Note_on_c, 0, 68, 80
2, 9016, Note_on_c, 0, 68, 0
2, 9020, Note_on_c, 0, 70, 80
2, 9036, Note_on_c, 0, 70, 0
2, 9040, Note_on_c, 0, 68, 80
2, 9056, Note_on_c, 0, 68, 0
2, 9060, Note_on_c, 0, 67, 80
2, 9084, Note_on_c, 0, 67, 0
2, 9090, Note_on_c, 0, 68, 80
2, 9114, Note_on_c, 0, 68, 0
2, 9120, Note_on_c, 0, 67, 80
2, 9180, Note_on_c, 0, 67, 0
2, 9180, Note_on_c, 0, 75, 80
2, 9222, Note_on_c, 0, 75, 0
2, 9240, Note_on_c, 0, 74, 80
2, 9282, Note_on_c, 0, 74, 0
2, 9300, Note_on_c, 0, 77, 80
2, 9342, Note_on_c, 0, 77, 0
2, 9360, Note_on_c, 0, 75, 80
2, 9456, Note_on_c, 0, 75, 0
2, 9480, Note_on_c, 0, 72, 80
2, 9576, Note_on_c, 0, 72, 0
2, 9600, Note_on_c, 0, 72, 80
2, 9660, Note_on_c, 0, 72, 0
2, 9660, Note_on_c, 0, 70, 80
2, 9708, Note_on_c, 0, 70, 0
2, 9720, Note_on_c, 0, 68, 80
2, 9768, Note_on_c, 0, 68, 0
2, 9780, Note_on_c, 0, 67, 80
2, 9828, Note_on_c, 0, 67, 0
2, 9840, Note_on_c, 0, 70, 80
2, 9888, Note_on_c, 0, 70, 0
2, 9900, Note_on_c, 0, 68, 80
2, 9924, Note_on_c, 0, 68, 0
2, 9930, Note_on_c, 0, 70, 80
2, 9954, Note_on_c, 0, 70, 0
2, 9960, Note_on_c, 0, 68, 80
2, 9976, Note_on_c, 0, 68, 0
2, 9980, Note_on_c, 0, 70, 80
2, 9996, Note_on_c, 0, 70, 0
2, 10000, Note_on_c, 0, 68, 80
2, 10016, Note_on_c, 0, 68, 0
2, 10020, Note_on_c, 0, 67, 80
2, 10044, Note_on_c, 0, 67, 0
2, 10050, Note_on_c, 0, 68, 80
2, 10074, Note_on_c, 0, 68, 0
2, 10080, Note_on_c, 0, 67, 80
2, 10140, Note_on_c, 0, 67, 0
2, 10140, Note_on_c, 0, 65, 80
2, 10188, Note_on_c, 0, 65, 0
2, 10200, Note_on_c, 0, 63, 80
2, 10296, Note_on_c, 0, 63, 0
2, 11040, Note_on_c, 0, 70, 80
2, 11160, Note_on_c, 0, 70, 0
2, 11160, Note_on_c, 0, 82, 80
2, 11256, Note_on_c, 0, 82, 0
2, 11280, Note_on_c, 0, 79, 80
2, 11376, Note_on_c, 0, 79, 0
2, 11400, Note_on_c, 0, 75, 80
2, 11496, Note_on_c, 0, 75, 0
2, 11520, Note_on_c, 0, 77, 80
2, 11616, Note_on_c, 0, 77, 0
2, 11640, Note_on_c, 0, 69, 80
2, 11736, Note_on_c, 0, 69, 0
2, 11760, Note_on_c, 0, 70, 80
2, 11856, Note_on_c, 0, 70, 0
2, 11880, Note_on_c, 0, 74, 80
2, 12000, Note_on_c, 0, 74, 0
2, 12000, Note_on_c, 0, 75, 80
2, 12480, Note_on_c, 0, 75, 0
2, 12480, Note_on_c, 0, 74, 80
2, 12672, Note_on_c, 0, 74, 0
2, 13560, Note_on_c, 0, 62, 80
2, 13632, Note_on_c, 0, 62, 0
2, 13680, Note_on_c, 0, 65, 80
2, 13752, Note_on_c, 0, 65, 0
2, 13800, Note_on_c, 0, 70, 80
2, 14040, Note_on_c, 0, 70, 0
2, 14040, Note_on_c, 0, 75, 80
2, 14100, Note_on_c, 0, 75, 0
2, 14100, Note_on_c, 0, 77, 80
2, 14148, Note_on_c, 0, 77, 0
2, 14160, Note_on_c, 0, 79, 80
2, 14256, Note_on_c, 0, 79, 0
2, 14280, Note_on_c, 0, 75, 80
2, 14376, Note_on_c, 0, 75, 0
2, 14400, Note_on_c, 0, 72, 80
2, 14520, Note_on_c, 0, 72, 0
2, 14520, Note_on_c, 0, 69, 80
2, 14616, Note_on_c, 0, 69, 0
2, 14640, Note_on_c, 0, 65, 80
2, 14736, Note_on_c, 0, 65, 0
2, 14760, Note_on_c, 0, 69, 80
2, 14976, Note_on_c, 0, 69, 0
2, 15000, Note_on_c, 0, 74, 80
2, 15060, Note_on_c, 0, 74, 0
2, 15060, Note_on_c, 0, 75, 80
2, 15108, Note_on_c, 0, 75, 0
2, 15120, Note_on_c, 0, 77, 80
2, 15216, Note_on_c, 0, 77, 0
2, 15240, Note_on_c, 0, 74, 80
2, 15336, Note_on_c, 0, 74, 0
2, 15360, Note_on_c, 0, 70, 80
2, 15456, Note_on_c, 0, 70, 0
2, 15480, Note_on_c, 0, 67, 80
2, 15576, Note_on_c, 0, 67, 0
2, 15600, Note_on_c, 0, 63, 80
2, 15696, Note_on_c, 0, 63, 0
2, 15720, Note_on_c, 0, 67, 80
2, 15936, Note_on_c, 0, 67, 0
2, 15960, Note_on_c, 0, 72, 80
2, 16020, Note_on_c, 0, 72, 0
2, 16020, Note_on_c, 0, 74, 80
2, 16068, Note_on_c, 0, 74, 0
2, 16080, Note_on_c, 0, 75, 80
2, 16176, Note_on_c, 0, 75, 0
2, 16200, Note_on_c, 0, 72, 80
2, 16296, Note_on_c, 0, 72, 0
2, 16320, Note_on_c, 0, 69, 80
2, 16380, Note_on_c, 0, 69, 0
2, 16380, Note_on_c, 0, 72, 80
2, 16410, Note_on_c, 0, 72, 0
2, 16440, Note_on_c, 0, 77, 80
2, 16470, Note_on_c, 0, 77, 0
2, 16500, Note_on_c, 0, 72, 80
2, 16530, Note_on_c, 0, 72, 0
2, 16560, Note_on_c, 0, 69, 80
2, 16620, Note_on_c, 0, 69, 0
2, 16620, Note_on_c, 0, 65, 80
2, 16668, Note_on_c, 0, 65, 0
2, 16680, Note_on_c, 0, 72, 80
2, 16740, Note_on_c, 0, 72, 0
2, 16740, Note_on_c, 0, 69, 80
2, 16788, Note_on_c, 0, 69, 0
2, 16800, Note_on_c, 0, 70, 80
2, 16860, Note_on_c, 0, 70, 0
2, 16860, Note_on_c, 0, 74, 80
2, 16902, Note_on_c, 0, 74, 0
2, 16920, Note_on_c, 0, 77, 80
2, 16962, Note_on_c, 0, 77, 0
2, 16980, Note_on_c, 0, 74, 80
2, 17022, Note_on_c, 0, 74, 0
2, 17040, Note_on_c, 0, 70, 80
2, 17100, Note_on_c, 0, 70, 0
2, 17100, Note_on_c, 0, 65, 80
2, 17148, Note_on_c, 0, 65, 0
2, 17160, Note_on_c, 0, 74, 80
2, 17220, Note_on_c, 0, 74, 0
2, 17220, Note_on_c, 0, 70, 80
2, 17268, Note_on_c, 0, 70, 0
2, 17280, Note_on_c, 0, 72, 80
2, 17322, Note_on_c, 0, 72, 0
2, 17340, Note_on_c, 0, 76, 80
2, 17400, Note_on_c, 0, 76, 0
2, 17400, Note_on_c, 0, 77, 80
2, 17442, Note_on_c, 0, 77, 0
2, 17460, Note_on_c, 0, 72, 80
2, 17502, Note_on_c, 0, 72, 0
2, 17520, Note_on_c, 0, 69, 80
2, 17580, Note_on_c, 0, 69, 0
2, 17580, Note_on_c, 0, 65, 80
2, 17628, Note_on_c, 0, 65, 0
2, 17640, Note_on_c, 0, 75, 80
2, 17700, Note_on_c, 0, 75, 0
2, 17700, Note_on_c, 0, 72, 80
2, 17748, Note_on_c, 0, 72, 0
2, 17760, Note_on_c, 0, 74, 80
2, 17832, Note_on_c, 0, 74, 0
2, 17880, Note_on_c, 0, 77, 80
2, 17952, Note_on_c, 0, 77, 0
2, 18000, Note_on_c, 0, 82, 80
2, 18192, Note_on_c, 0, 82, 0
2, 18360, Note_on_c, 0, 70, 80
2, 18432, Note_on_c, 0, 70, 0
2, 18480, Note_on_c, 0, 82, 80
2, 18672, Note_on_c, 0, 82, 0
2, 18840, Note_on_c, 0, 70, 80
2, 18912, Note_on_c, 0, 70, 0
2, 18960, Note_on_c, 0, 77, 80
2, 19056, Note_on_c, 0, 77, 0
2, 19080, Note_on_c, 0, 74, 80
2, 19176, Note_on_c, 0, 74, 0
2, 19200, Note_on_c, 0, 75, 80
2, 19260, Note_on_c, 0, 75, 0
2, 19260, Note_on_c, 0, 77, 80
2, 19302, Note_on_c, 0, 77, 0
2, 19320, Note_on_c, 0, 79, 80
2, 19362, Note_on_c, 0, 79, 0
2, 19380, Note_on_c, 0, 80, 80
2, 19422, Note_on_c, 0, 80, 0
2, 19440, Note_on_c, 0, 79, 80
2, 19497, Note_on_c, 0, 79, 0
2, 19500, Note_on_c, 0, 80, 80
2, 19557, Note_on_c, 0, 80, 0
2, 19560, Note_on_c, 0, 77, 80
2, 19617, Note_on_c, 0, 77, 0
2, 19620, Note_on_c, 0, 79, 80
2, 19677, Note_on_c, 0, 79, 0
2, 19680, Note_on_c, 0, 75, 80
2, 19728, Note_on_c, 0, 75, 0
2, 19740, Note_on_c, 0, 74, 80
2, 19782, Note_on_c, 0, 74, 0
2, 19800, Note_on_c, 0, 75, 80
2, 19842, Note_on_c, 0, 75, 0
2, 19860, Note_on_c, 0, 77, 80
2, 19902, Note_on_c, 0, 77, 0
2, 19920, Note_on_c, 0, 75, 80
2, 19977, Note_on_c, 0, 75, 0
2, 19980, Note_on_c, 0, 77, 80
2, 20037, Note_on_c, 0, 77, 0
2, 20040, Note_on_c, 0, 74, 80
2, 20097, Note_on_c, 0, 74, 0
2, 20100, Note_on_c, 0, 75, 80
2, 20157, Note_on_c, 0, 75, 0
2, 20160, Note_on_c, 0, 72, 80
2, 20232, Note_on_c, 0, 72, 0
2, 20280, Note_on_c, 0, 84, 80
2, 20340, Note_on_c, 0, 84, 0
2, 20340, Note_on_c, 0, 81, 80
2, 20400, Note_on_c, 0, 81, 0
2, 20400, Note_on_c, 0, 77, 80
2, 20508, Note_on_c, 0, 77, 0
2, 20520, Note_on_c, 0, 77, 80
2, 20700, Note_on_c, 0, 77, 0
2, 20700, Note_on_c, 0, 81, 80
2, 20748, Note_on_c, 0, 81, 0
2, 20760, Note_on_c, 0, 84, 80
2, 20796, Note_on_c, 0, 84, 0
2, 20820, Note_on_c, 0, 81, 80
2, 20856, Note_on_c, 0, 81, 0
2, 20880, Note_on_c, 0, 77, 80
2, 20994, Note_on_c, 0, 77, 0
2, 21000, Note_on_c, 0, 77, 80
2, 21114, Note_on_c, 0, 77, 0
2, 21120, Note_on_c, 0, 77, 80
2, 21312, Note_on_c, 0, 77, 0
2, 21360, Note_on_c, 0, 65, 80
2, 21420, Note_on_c, 0, 65, 0
2, 21420, Note_on_c, 0, 67, 80
2, 21462, Note_on_c, 0, 67, 0
2, 21480, Note_on_c, 0, 69, 80
2, 21522, Note_on_c, 0, 69, 0
2, 21540, Note_on_c, 0, 70, 80
2, 21582, Note_on_c, 0, 70, 0
2, 21600, Note_on_c, 0, 72, 80
2, 21660, Note_on_c, 0, 72, 0
2, 21660, Note_on_c, 0, 70, 80
2, 21702, Note_on_c, 0, 70, 0
2, 21720, Note_on_c, 0, 69, 80
2, 21762, Note_on_c, 0, 69, 0
2, 21780, Note_on_c, 0, 70, 80
2, 21822, Note_on_c, 0, 70, 0
2, 21840, Note_on_c, 0, 72, 80
2, 21900, Note_on_c, 0, 72, 0
2, 21900, Note_on_c, 0, 75, 80
2, 21942, Note_on_c, 0, 75, 0
2, 21960, Note_on_c, 0, 74, 80
2, 22002, Note_on_c, 0, 74, 0
2, 22020, Note_on_c, 0, 72, 80
2, 22062, Note_on_c, 0, 72, 0
2, 22080, Note_on_c, 0, 70, 80
2, 22176, Note_on_c, 0, 70, 0
2, 22200, Note_on_c, 0, 70, 80
2, 22392, Note_on_c, 0, 70, 0
2, 22440, Note_on_c, 0, 69, 80
2, 22536, Note_on_c, 0, 69, 0
2, 22560, Note_on_c, 0, 70, 80
2, 22608, Note_on_c, 0, 70, 0
2, 22620, Note_on_c, 0, 77, 80
2, 22668, Note_on_c, 0, 77, 0
2, 22680, Note_on_c, 0, 79, 80
2, 22728, Note_on_c, 0, 79, 0
2, 22740, Note_on_c, 0, 75, 80
2, 22788, Note_on_c, 0, 75, 0
2, 22800, Note_on_c, 0, 77, 80
2, 22848, Note_on_c, 0, 77, 0
2, 22860, Note_on_c, 0, 82, 80
2, 22896, Note_on_c, 0, 82, 0
2, 22920, Note_on_c, 0, 75, 80
2, 22956, Note_on_c, 0, 75, 0
2, 22980, Note_on_c, 0, 72, 80
2, 23016, Note_on_c, 0, 72, 0
2, 23040, Note_on_c, 0, 74, 80
2, 23088, Note_on_c, 0, 74, 0
2, 23100, Note_on_c, 0, 72, 80
2, 23148, Note_on_c, 0, 72, 0
2, 23160, Note_on_c, 0, 74, 80
2, 23208, Note_on_c, 0, 74, 0
2, 23220, Note_on_c, 0, 75, 80
2, 23268, Note_on_c, 0, 75, 0
2, 23280, Note_on_c, 0, 77, 80
2, 23376, Note_on_c, 0, 77, 0
2, 23400, Note_on_c, 0, 75, 80
2, 23496, Note_on_c, 0, 75, 0
2, 23520, Note_on_c, 0, 74, 80
2, 23664, Note_on_c, 0, 74, 0
2, 23700, Note_on_c, 0, 74, 80
2, 23748, Note_on_c, 0, 74, 0
2, 23760, Note_on_c, 0, 72, 80
2, 23784, Note_on_c, 0, 72, 0
2, 23790, Note_on_c, 0, 74, 80
2, 23814, Note_on_c, 0, 74, 0
2, 23820, Note_on_c, 0, 72, 80
2, 23836, Note_on_c, 0, 72, 0
2, 23840, Note_on_c, 0, 74, 80
2, 23856, Note_on_c, 0, 74, 0
2, 23860, Note_on_c, 0, 72, 80
2, 23928, Note_on_c, 0, 72, 0
2, 23940, Note_on_c, 0, 70, 80
2, 23988, Note_on_c, 0, 70, 0
2, 24000, Note_on_c, 0, 70, 80
2, 24192, Note_on_c, 0, 70, 0
2, 29760, Note_on_c, 0, 77, 80
2, 29856, Note_on_c, 0, 77, 0
2, 29880, Note_on_c, 0, 86, 80
2, 29976, Note_on_c, 0, 86, 0
2, 30000, Note_on_c, 0, 84, 80
2, 30096, Note_on_c, 0, 84, 0
2, 30120, Note_on_c, 0, 82, 80
2, 30216, Note_on_c, 0, 82, 0
2, 30240, Note_on_c, 0, 81, 80
2, 30264, Note_on_c, 0, 81, 0
2, 30270, Note_on_c, 0, 82, 80
2, 30294, Note_on_c, 0, 82, 0
2, 30300, Note_on_c, 0, 84, 80
2, 30348, Note_on_c, 0, 84, 0
2, 30360, Note_on_c, 0, 82, 80
2, 30552, Note_on_c, 0, 82, 0
2, 30600, Note_on_c, 0, 79, 80
2, 30696, Note_on_c, 0, 79, 0
2, 30720, Note_on_c, 0, 79, 80
2, 30768, Note_on_c, 0, 79, 0
2, 30780, Note_on_c, 0, 77, 80
2, 30828, Note_on_c, 0, 77, 0
2, 30840, Note_on_c, 0, 75, 80
2, 30888, Note_on_c, 0, 75, 0
2, 30900, Note_on_c, 0, 74, 80
2, 30948, Note_on_c, 0, 74, 0
2, 30960, Note_on_c, 0, 77, 80
2, 31008, Note_on_c, 0, 77, 0
2, 31020, Note_on_c, 0, 75, 80
2, 31044, Note_on_c, 0, 75, 0
2, 31050, Note_on_c, 0, 77, 80
2, 31074, Note_on_c, 0, 77, 0
2, 31080, Note_on_c, 0, 75, 80
2, 31096, Note_on_c, 0, 75, 0
2, 31100, Note_on_c, 0, 77, 80
2, 31116, Note_on_c, 0, 77, 0
2, 31120, Note_on_c, 0, 75, 80
2, 31136, Note_on_c, 0, 75, 0
2, 31140, Note_on_c, 0, 74, 80
2, 31164, Note_on_c, 0, 74, 0
2, 31170, Note_on_c, 0, 75, 80
2, 31194, Note_on_c, 0, 75, 0
2, 31200, Note_on_c, 0, 74, 80
2, 31248, Note_on_c, 0, 74, 0
2, 31260, Note_on_c, 0, 82, 80
2, 31296, Note_on_c, 0, 82, 0
2, 31320, Note_on_c, 0, 81, 80
2, 31356, Note_on_c, 0, 81, 0
2, 31380, Note_on_c, 0, 84, 80
2, 31416, Note_on_c, 0, 84, 0
2, 31440, Note_on_c, 0, 82, 80
2, 31536, Note_on_c, 0, 82, 0
2, 31560, Note_on_c, 0, 79, 80
2, 31656, Note_on_c, 0, 79, 0
2, 31680, Note_on_c, 0, 79, 80
2, 31728, Note_on_c, 0, 79, 0
2, 31740, Note_on_c, 0, 77, 80
2, 31788, Note_on_c, 0, 77, 0
2, 31800, Note_on_c, 0, 75, 80
2, 31848, Note_on_c, 0, 75, 0
2, 31860, Note_on_c, 0, 74, 80
2, 31908, Note_on_c, 0, 74, 0
2, 31920, Note_on_c, 0, 77, 80
2, 31968, Note_on_c, 0, 77, 0
2, 31980, Note_on_c, 0, 75, 80
2, 32004, Note_on_c, 0, 75, 0
2, 32010, Note_on_c, 0, 77, 80
2, 32034, Note_on_c, 0, 77, 0
2, 32040, Note_on_c, 0, 75, 80
2, 32056, Note_on_c, 0, 75, 0
2, 32060, Note_on_c, 0, 77, 80
2, 32076, Note_on_c, 0, 77, 0
2, 32080, Note_on_c, 0, 75, 80
2, 32096, Note_on_c, 0, 75, 0
2, 32100, Note_on_c, 0, 74, 80
2, 32124, Note_on_c, 0, 74, 0
2, 32130, Note_on_c, 0, 75, 80
2, 32154, Note_on_c, 0, 75, 0
2, 32160, Note_on_c, 0, 74, 80
2, 32352, Note_on_c, 0, 74, 0
2, 33600, Note_on_c, 0, 70, 80
2, 33696, Note_on_c, 0, 70, 0
2, 33720, Note_on_c, 0, 79, 80
2, 33816, Note_on_c, 0, 79, 0
2, 33840, Note_on_c, 0, 77, 80
2, 33936, Note_on_c, 0, 77, 0
2, 33960, Note_on_c, 0, 75, 80
2, 34056, Note_on_c, 0, 75, 0
2, 34080, Note_on_c, 0, 74, 80
2, 34104, Note_on_c, 0, 74, 0
2, 34110, Note_on_c, 0, 75, 80
2, 34134, Note_on_c, 0, 75, 0
2, 34140, Note_on_c, 0, 77, 80
2, 34188, Note_on_c, 0, 77, 0
2, 34200, Note_on_c, 0, 75, 80
2, 34392, Note_on_c, 0, 75, 0
2, 34440, Note_on_c, 0, 72, 80
2, 34536, Note_on_c, 0, 72, 0
2, 34560, Note_on_c, 0, 72, 80
2, 34608, Note_on_c, 0, 72, 0
2, 34620, Note_on_c, 0, 70, 80
2, 34668, Note_on_c, 0, 70, 0
2, 34680, Note_on_c, 0, 68, 80
2, 34728, Note_on_c, 0, 68, 0
2, 34740, Note_on_c, 0, 67, 80
2, 34788, Note_on_c, 0, 67, 0
2, 34800, Note_on_c, 0, 70, 80
2, 34848, Note_on_c, 0, 70, 0
2, 34860, Note_on_c, 0, 68, 80
2, 34884, Note_on_c, 0, 68, 0
2, 34890, Note_on_c, 0, 70, 80
2, 34914, Note_on_c, 0, 70, 0
2, 34920, Note_on_c, 0, 68, 80
2, 34936, Note_on_c, 0, 68, 0
2, 34940, Note_on_c, 0, 70, 80
2, 34956, Note_on_c, 0, 70, 0
2, 34960, Note_on_c, 0, 68, 80
2, 34976, Note_on_c, 0, 68, 0
2, 34980, Note_on_c, 0, 67, 80
2, 35004, Note_on_c, 0, 67, 0
2, 35010, Note_on_c, 0, 68, 80
2, 35034, Note_on_c, 0, 68, 0
2, 35040, Note_on_c, 0, 67, 80
2, 35088, Note_on_c, 0, 67, 0
2, 35100, Note_on_c, 0, 75, 80
2, 35136, Note_on_c, 0, 75, 0
2, 35160, Note_on_c, 0, 74, 80
2, 35196, Note_on_c, 0, 74, 0
2, 35220, Note_on_c, 0, 77, 80
2, 35256, Note_on_c, 0, 77, 0
2, 35280, Note_on_c, 0, 75, 80
2, 35376, Note_on_c, 0, 75, 0
2, 35400, Note_on_c, 0, 72, 80
2, 35496, Note_on_c, 0, 72, 0
2, 35520, Note_on_c, 0, 72, 80
2, 35568, Note_on_c, 0, 72, 0
2, 35580, Note_on_c, 0, 70, 80
2, 35628, Note_on_c, 0, 70, 0
2, 35640, Note_on_c, 0, 68, 80
2, 35688, Note_on_c, 0, 68, 0
2, 35700, Note_on_c, 0, 67, 80
2, 35748, Note_on_c, 0, 67, 0
2, 35760, Note_on_c, 0, 70, 80
2, 35808, Note_on_c, 0, 70, 0
2, 35820, Note_on_c, 0, 68, 80
2, 35844, Note_on_c, 0, 68, 0
2, 35850, Note_on_c, 0, 70, 80
2, 35874, Note_on_c, 0, 70, 0
2, 35880, Note_on_c, 0, 68, 80
2, 35896, Note_on_c, 0, 68, 0
2, 35900, Note_on_c, 0, 70, 80
2, 35916, Note_on_c, 0, 70, 0
2, 35920, Note_on_c, 0, 68, 80
2, 35936, Note_on_c, 0, 68, 0
2, 35940, Note_on_c, 0, 67, 80
2, 35964, Note_on_c, 0, 67, 0
2, 35970, Note_on_c, 0, 68, 80
2, 35994, Note_on_c, 0, 68, 0
2, 36000, Note_on_c, 0, 67, 80
2, 36192, Note_on_c, 0, 67, 0
2, 37020, Note_on_c, 0, 70, 80
2, 37068, Note_on_c, 0, 70, 0
2, 37080, Note_on_c, 0, 75, 80
2, 37128, Note_on_c, 0, 75, 0
2, 37140, Note_on_c, 0, 74, 80
2, 37188, Note_on_c, 0, 74, 0
2, 37200, Note_on_c, 0, 75, 80
2, 37260, Note_on_c, 0, 75, 0
2, 37260, Note_on_c, 0, 77, 80
2, 37302, Note_on_c, 0, 77, 0
2, 37320, Note_on_c, 0, 79, 80
2, 37362, Note_on_c, 0, 79, 0
2, 37380, Note_on_c, 0, 80, 80
2, 37422, Note_on_c, 0, 80, 0
2, 37440, Note_on_c, 0, 82, 80
2, 37524, Note_on_c, 0, 82, 0
2, 37560, Note_on_c, 0, 73, 80
2, 37752, Note_on_c, 0, 73, 0
2, 37800, Note_on_c, 0, 73, 80
2, 37896, Note_on_c, 0, 73, 0
2, 37920, Note_on_c, 0, 72, 80
2, 37968, Note_on_c, 0, 72, 0
2, 37980, Note_on_c, 0, 75, 80
2, 38028, Note_on_c, 0, 75, 0
2, 38040, Note_on_c, 0, 80, 80
2, 38088, Note_on_c, 0, 80, 0
2, 38100, Note_on_c, 0, 79, 80
2, 38148, Note_on_c, 0, 79, 0
2, 38160, Note_on_c, 0, 80, 80
2, 38208, Note_on_c, 0, 80, 0
2, 38220, Note_on_c, 0, 75, 80
2, 38268, Note_on_c, 0, 75, 0
2, 38280, Note_on_c, 0, 84, 80
2, 38328, Note_on_c, 0, 84, 0
2, 38340, Note_on_c, 0, 80, 80
2, 38388, Note_on_c, 0, 80, 0
2, 38400, Note_on_c, 0, 82, 80
2, 38448, Note_on_c, 0, 82, 0
2, 38460, Note_on_c, 0, 80, 80
2, 38508, Note_on_c, 0, 80, 0
2, 38520, Note_on_c, 0, 79, 80
2, 38568, Note_on_c, 0, 79, 0
2, 38580, Note_on_c, 0, 77, 80
2, 38628, Note_on_c, 0, 77, 0
2, 38640, Note_on_c, 0, 75, 80
2, 38688, Note_on_c, 0, 75, 0
2, 38700, Note_on_c, 0, 73, 80
2, 38748, Note_on_c, 0, 73, 0
2, 38760, Note_on_c, 0, 72, 80
2, 38808, Note_on_c, 0, 72, 0
2, 38820, Note_on_c, 0, 70, 80
2, 38868, Note_on_c, 0, 70, 0
2, 38880, Note_on_c, 0, 72, 80
2, 38928, Note_on_c, 0, 72, 0
2, 38940, Note_on_c, 0, 75, 80
2, 38988, Note_on_c, 0, 75, 0
2, 39000, Note_on_c, 0, 74, 80
2, 39048, Note_on_c, 0, 74, 0
2, 39060, Note_on_c, 0, 72, 80
2, 39108, Note_on_c, 0, 72, 0
2, 39120, Note_on_c, 0, 74, 80
2, 39168, Note_on_c, 0, 74, 0
2, 39180, Note_on_c, 0, 70, 80
2, 39228, Note_on_c, 0, 70, 0
2, 39240, Note_on_c, 0, 67, 80
2, 39288, Note_on_c, 0, 67, 0
2, 39300, Note_on_c, 0, 65, 80
2, 39348, Note_on_c, 0, 65, 0
2, 39360, Note_on_c, 0, 64, 80
2, 39456, Note_on_c, 0, 64, 0
2, 39480, Note_on_c, 0, 64, 80
2, 39528, Note_on_c, 0, 64, 0
2, 39540, Note_on_c, 0, 62, 80
2, 39588, Note_on_c, 0, 62, 0
2, 39600, Note_on_c, 0, 64, 80
2, 39648, Note_on_c, 0, 64, 0
2, 39660, Note_on_c, 0, 65, 80
2, 39708, Note_on_c, 0, 65, 0
2, 39720, Note_on_c, 0, 67, 80
2, 39768, Note_on_c, 0, 67, 0
2, 39780, Note_on_c, 0, 68, 80
2, 39828, Note_on_c, 0, 68, 0
2, 39840, Note_on_c, 0, 70, 80
2, 39936, Note_on_c, 0, 70, 0
2, 39960, Note_on_c, 0, 67, 80
2, 40152, Note_on_c, 0, 67, 0
2, 40200, Note_on_c, 0, 67, 80
2, 40296, Note_on_c, 0, 67, 0
2, 40320, Note_on_c, 0, 65, 80
2, 40416, Note_on_c, 0, 65, 0
2, 40440, Note_on_c, 0, 68, 80
2, 40488, Note_on_c, 0, 68, 0
2, 40500, Note_on_c, 0, 67, 80
2, 40548, Note_on_c, 0, 67, 0
2, 40560, Note_on_c, 0, 68, 80
2, 40656, Note_on_c, 0, 68, 0
2, 40680, Note_on_c, 0, 72, 80
2, 40728, Note_on_c, 0, 72, 0
2, 40740, Note_on_c, 0, 68, 80
2, 40788, Note_on_c, 0, 68, 0
2, 40800, Note_on_c, 0, 70, 80
2, 40848, Note_on_c, 0, 70, 0
2, 40860, Note_on_c, 0, 68, 80
2, 40908, Note_on_c, 0, 68, 0
2, 40920, Note_on_c, 0, 67, 80
2, 40968, Note_on_c, 0, 67, 0
2, 40980, Note_on_c, 0, 65, 80
2, 41028, Note_on_c, 0, 65, 0
2, 41040, Note_on_c, 0, 64, 80
2, 41088, Note_on_c, 0, 64, 0
2, 41100, Note_on_c, 0, 67, 80
2, 41148, Note_on_c, 0, 67, 0
2, 41160, Note_on_c, 0, 65, 80
2, 41208, Note_on_c, 0, 65, 0
2, 41220, Note_on_c, 0, 64, 80
2, 41268, Note_on_c, 0, 64, 0
2, 41280, Note_on_c, 0, 65, 80
2, 41376, Note_on_c, 0, 65, 0
2, 41400, Note_on_c, 0, 68, 80
2, 41448, Note_on_c, 0, 68, 0
2, 41460, Note_on_c, 0, 67, 80
2, 41508, Note_on_c, 0, 67, 0
2, 41520, Note_on_c, 0, 68, 80
2, 41568, Note_on_c, 0, 68, 0
2, 41580, Note_on_c, 0, 70, 80
2, 41628, Note_on_c, 0, 70, 0
2, 41640, Note_on_c, 0, 72, 80
2, 41688, Note_on_c, 0, 72, 0
2, 41700, Note_on_c, 0, 68, 80
2, 41748, Note_on_c, 0, 68, 0
2, 41760, Note_on_c, 0, 65, 80
2, 41856, Note_on_c, 0, 65, 0
2, 41880, Note_on_c, 0, 74, 80
2, 41928, Note_on_c, 0, 74, 0
2, 41940, Note_on_c, 0, 75, 80
2, 41988, Note_on_c, 0, 75, 0
2, 42000, Note_on_c, 0, 77, 80
2, 42096, Note_on_c, 0, 77, 0
2, 42120, Note_on_c, 0, 74, 80
2, 42216, Note_on_c, 0, 74, 0
2, 42240, Note_on_c, 0, 70, 80
2, 42336, Note_on_c, 0, 70, 0
2, 42360, Note_on_c, 0, 67, 80
2, 42408, Note_on_c, 0, 67, 0
2, 42420, Note_on_c, 0, 65, 80
2, 42468, Note_on_c, 0, 65, 0
2, 42480, Note_on_c, 0, 67, 80
2, 42528, Note_on_c, 0, 67, 0
2, 42540, Note_on_c, 0, 68, 80
2, 42588, Note_on_c, 0, 68, 0
2, 42600, Note_on_c, 0, 70, 80
2, 42648, Note_on_c, 0, 70, 0
2, 42660, Note_on_c, 0, 67, 80
2, 42708, Note_on_c, 0, 67, 0
2, 42720, Note_on_c, 0, 63, 80
2, 42816, Note_on_c, 0, 63, 0
2, 42840, Note_on_c, 0, 72, 80
2, 42888, Note_on_c, 0, 72, 0
2, 42900, Note_on_c, 0, 74, 80
2, 42948, Note_on_c, 0, 74, 0
2, 42960, Note_on_c, 0, 75, 80
2, 43056, Note_on_c, 0, 75, 0
2, 43080, Note_on_c, 0, 72, 80
2, 43176, Note_on_c, 0, 72, 0
2, 43200, Note_on_c, 0, 68, 80
2, 43296, Note_on_c, 0, 68, 0
2, 43320, Note_on_c, 0, 65, 80
2, 43368, Note_on_c, 0, 65, 0
2, 43380, Note_on_c, 0, 63, 80
2, 43428, Note_on_c, 0, 63, 0
2, 43440, Note_on_c, 0, 65, 80
2, 43488, Note_on_c, 0, 65, 0
2, 43500, Note_on_c, 0, 67, 80
2, 43548, Note_on_c, 0, 67, 0
2, 43560, Note_on_c, 0, 68, 80
2, 43608, Note_on_c, 0, 68, 0
2, 43620, Note_on_c, 0, 65, 80
2, 43668, Note_on_c, 0, 65, 0
2, 43680, Note_on_c, 0, 62, 80
2, 43776, Note_on_c, 0, 62, 0
2, 43800, Note_on_c, 0, 71, 80
2, 43848, Note_on_c, 0, 71, 0
2, 43860, Note_on_c, 0, 72, 80
2, 43908, Note_on_c, 0, 72, 0
2, 43920, Note_on_c, 0, 74, 80
2, 44016, Note_on_c, 0, 74, 0
2, 44040, Note_on_c, 0, 71, 80
2, 44136, Note_on_c, 0, 71, 0
2, 44160, Note_on_c, 0, 72, 80
2, 44256, Note_on_c, 0, 72, 0
2, 44280, Note_on_c, 0, 72, 80
2, 44472, Note_on_c, 0, 72, 0
2, 44520, Note_on_c, 0, 71, 80
2, 44616, Note_on_c, 0, 71, 0
2, 44640, Note_on_c, 0, 72, 80
2, 44688, Note_on_c, 0, 72, 0
2, 44700, Note_on_c, 0, 79, 80
2, 44748, Note_on_c, 0, 79, 0
2, 44760, Note_on_c, 0, 80, 80
2, 44808, Note_on_c, 0, 80, 0
2, 44820, Note_on_c, 0, 77, 80
2, 44868, Note_on_c, 0, 77, 0
2, 44880, Note_on_c, 0, 79, 80
2, 44928, Note_on_c, 0, 79, 0
2, 44940, Note_on_c, 0, 84, 80
2, 44988, Note_on_c, 0, 84, 0
2, 45000, Note_on_c, 0, 77, 80
2, 45048, Note_on_c, 0, 77, 0
2, 45060, Note_on_c, 0, 74, 80
2, 45108, Note_on_c, 0, 74, 0
2, 45120, Note_on_c, 0, 75, 80
2, 45168, Note_on_c, 0, 75, 0
2, 45180, Note_on_c, 0, 84, 80
2, 45228, Note_on_c, 0, 84, 0
2, 45240, Note_on_c, 0, 82, 80
2, 45288, Note_on_c, 0, 82, 0
2, 45300, Note_on_c, 0, 80, 80
2, 45348, Note_on_c, 0, 80, 0
2, 45360, Note_on_c, 0, 79, 80
2, 45456, Note_on_c, 0, 79, 0
2, 45480, Note_on_c, 0, 77, 80
2, 45576, Note_on_c, 0, 77, 0
2, 45600, Note_on_c, 0, 75, 80
2, 45744, Note_on_c, 0, 75, 0
2, 45780, Note_on_c, 0, 75, 80
2, 45828, Note_on_c, 0, 75, 0
2, 45840, Note_on_c, 0, 74, 80
2, 45864, Note_on_c, 0, 74, 0
2, 45870, Note_on_c, 0, 75, 80
2, 45894, Note_on_c, 0, 75, 0
2, 45900, Note_on_c, 0, 74, 80
2, 45916, Note_on_c, 0, 74, 0
2, 45920, Note_on_c, 0, 75, 80
2, 45936, Note_on_c, 0, 75, 0
2, 45940, Note_on_c, 0, 74, 80
2, 46008, Note_on_c, 0, 74, 0
2, 46020, Note_on_c, 0, 72, 80
2, 46068, Note_on_c, 0, 72, 0
2, 46080, Note_on_c, 0, 72, 80
2, 46128, Note_on_c, 0, 72, 0
2, 46140, Note_on_c, 0, 79, 80
2, 46188, Note_on_c, 0, 79, 0
2, 46200, Note_on_c, 0, 84, 80
2, 46392, Note_on_c, 0, 84, 0
2, 46440, Note_on_c, 0, 82, 80
2, 46608, Note_on_c, 0, 82, 0
2, 46620, Note_on_c, 0, 81, 80
2, 46668, Note_on_c, 0, 81, 0
2, 46680, Note_on_c, 0, 84, 80
2, 46728, Note_on_c, 0, 84, 0
2, 46740, Note_on_c, 0, 82, 80
2, 46788, Note_on_c, 0, 82, 0
2, 46800, Note_on_c, 0, 81, 80
2, 46848, Note_on_c, 0, 81, 0
2, 46860, Note_on_c, 0, 79, 80
2, 46908, Note_on_c, 0, 79, 0
2, 46920, Note_on_c, 0, 77, 80
2, 46968, Note_on_c, 0, 77, 0
2, 46980, Note_on_c, 0, 75, 80
2, 47028, Note_on_c, 0, 75, 0
2, 47040, Note_on_c, 0, 74, 80
2, 47088, Note_on_c, 0, 74, 0
2, 47100, Note_on_c, 0, 77, 80
2, 47148, Note_on_c, 0, 77, 0
2, 47160, Note_on_c, 0, 82, 80
2, 47352, Note_on_c, 0, 82, 0
2, 47400, Note_on_c, 0, 80, 80
2, 47568, Note_on_c, 0, 80, 0
2, 47580, Note_on_c, 0, 79, 80
2, 47628, Note_on_c, 0, 79, 0
2, 47640, Note_on_c, 0, 82, 80
2, 47688, Note_on_c, 0, 82, 0
2, 47700, Note_on_c, 0, 80, 80
2, 47748, Note_on_c, 0, 80, 0
2, 47760, Note_on_c, 0, 79, 80
2, 47808, Note_on_c, 0, 79, 0
2, 47820, Note_on_c, 0, 77, 80
2, 47868, Note_on_c, 0, 77, 0
2, 47880, Note_on_c, 0, 75, 80
2, 47928, Note_on_c, 0, 75, 0
2, 47940, Note_on_c, 0, 74, 80
2, 47988, Note_on_c, 0, 74, 0
2, 48000, Note_on_c, 0, 72, 80
2, 48048, Note_on_c, 0, 72, 0
2, 48060, Note_on_c, 0, 80, 80
2, 48108, Note_on_c, 0, 80, 0
2, 48120, Note_on_c, 0, 80, 80
2, 48168, Note_on_c, 0, 80, 0
2, 48180, Note_on_c, 0, 79, 80
2, 48228, Note_on_c, 0, 79, 0
2, 48240, Note_on_c, 0, 79, 80
2, 48288, Note_on_c, 0, 79, 0
2, 48300, Note_on_c, 0, 77, 80
2, 48348, Note_on_c, 0, 77, 0
2, 48360, Note_on_c, 0, 72, 80
2, 48408, Note_on_c, 0, 72, 0
2, 48420, Note_on_c, 0, 75, 80
2, 48468, Note_on_c, 0, 75, 0
2, 48480, Note_on_c, 0, 74, 80
2, 48528, Note_on_c, 0, 74, 0
2, 48540, Note_on_c, 0, 82, 80
2, 48588, Note_on_c, 0, 82, 0
2, 48600, Note_on_c, 0, 82, 80
2, 48648, Note_on_c, 0, 82, 0
2, 48660, Note_on_c, 0, 80, 80
2, 48708, Note_on_c, 0, 80, 0
2, 48720, Note_on_c, 0, 80, 80
2, 48768, Note_on_c, 0, 80, 0
2, 48780, Note_on_c, 0, 79, 80
2, 48828, Note_on_c, 0, 79, 0
2, 48840, Note_on_c, 0, 74, 80
2, 48888, Note_on_c, 0, 74, 0
2, 48900, Note_on_c, 0, 77, 80
2, 48948, Note_on_c, 0, 77, 0
2, 48960, Note_on_c, 0, 75, 80
2, 49008, Note_on_c, 0, 75, 0
2, 49020, Note_on_c, 0, 84, 80
2, 49068, Note_on_c, 0, 84, 0
2, 49080, Note_on_c, 0, 84, 80
2, 49128, Note_on_c, 0, 84, 0
2, 49140, Note_on_c, 0, 82, 80
2, 49188, Note_on_c, 0, 82, 0
2, 49200, Note_on_c, 0, 80, 80
2, 49248, Note_on_c, 0, 80, 0
2, 49260, Note_on_c, 0, 79, 80
2, 49308, Note_on_c, 0, 79, 0
2, 49320, Note_on_c, 0, 77, 80
2, 49368, Note_on_c, 0, 77, 0
2, 49380, Note_on_c, 0, 75, 80
2, 49428, Note_on_c, 0, 75, 0
2, 49440, Note_on_c, 0, 74, 80
2, 49488, Note_on_c, 0, 74, 0
2, 49500, Note_on_c, 0, 77, 80
2, 49548, Note_on_c, 0, 77, 0
2, 49560, Note_on_c, 0, 77, 80
2, 49608, Note_on_c, 0, 77, 0
2, 49620, Note_on_c, 0, 75, 80
2, 49668, Note_on_c, 0, 75, 0
2, 49680, Note_on_c, 0, 74, 80
2, 49728, Note_on_c, 0, 74, 0
2, 49740, Note_on_c, 0, 72, 80
2, 49788, Note_on_c, 0, 72, 0
2, 49800, Note_on_c, 0, 70, 80
2, 49848, Note_on_c, 0, 70, 0
2, 49860, Note_on_c, 0, 68, 80
2, 49908, Note_on_c, 0, 68, 0
2, 49920, Note_on_c, 0, 67, 80
2, 50016, Note_on_c, 0, 67, 0
2, 52920, Note_on_c, 0, 72, 80
2, 53016, Note_on_c, 0, 72, 0
2, 53040, Note_on_c, 0, 72, 80
2, 53136, Note_on_c, 0, 72, 0
2, 53160, Note_on_c, 0, 72, 80
2, 53274, Note_on_c, 0, 72, 0
2, 53280, Note_on_c, 0, 72, 80
2, 53376, Note_on_c, 0, 72, 0
2, 53400, Note_on_c, 0, 77, 80
2, 53448, Note_on_c, 0, 77, 0
2, 53460, Note_on_c, 0, 79, 80
2, 53508, Note_on_c, 0, 79, 0
2, 53520, Note_on_c, 0, 80, 80
2, 53616, Note_on_c, 0, 80, 0
2, 53640, Note_on_c, 0, 77, 80
2, 53736, Note_on_c, 0, 77, 0
2, 53880, Note_on_c, 0, 70, 80
2, 53976, Note_on_c, 0, 70, 0
2, 54000, Note_on_c, 0, 70, 80
2, 54096, Note_on_c, 0, 70, 0
2, 54120, Note_on_c, 0, 70, 80
2, 54234, Note_on_c, 0, 70, 0
2, 54240, Note_on_c, 0, 70, 80
2, 54336, Note_on_c, 0, 70, 0
2, 54360, Note_on_c, 0, 75, 80
2, 54408, Note_on_c, 0, 75, 0
2, 54420, Note_on_c, 0, 77, 80
2, 54468, Note_on_c, 0, 77, 0
2, 54480, Note_on_c, 0, 79, 80
2, 54576, Note_on_c, 0, 79, 0
2, 54600, Note_on_c, 0, 75, 80
2, 54696, Note_on_c, 0, 75, 0
2, 54780, Note_on_c, 0, 65, 80
2, 54828, Note_on_c, 0, 65, 0
2, 54840, Note_on_c, 0, 68, 80
2, 54888, Note_on_c, 0, 68, 0
2, 54900, Note_on_c, 0, 67, 80
2, 54948, Note_on_c, 0, 67, 0
2, 54960, Note_on_c, 0, 65, 80
2, 55008, Note_on_c, 0, 65, 0
2, 55020, Note_on_c, 0, 67, 80
2, 55068, Note_on_c, 0, 67, 0
2, 55080, Note_on_c, 0, 68, 80
2, 55296, Note_on_c, 0, 68, 0
2, 55320, Note_on_c, 0, 74, 80
2, 55368, Note_on_c, 0, 74, 0
2, 55380, Note_on_c, 0, 75, 80
2, 55428, Note_on_c, 0, 75, 0
2, 55440, Note_on_c, 0, 77, 80
2, 55536, Note_on_c, 0, 77, 0
2, 55560, Note_on_c, 0, 74, 80
2, 55656, Note_on_c, 0, 74, 0
2, 55680, Note_on_c, 0, 70, 80
2, 55728, Note_on_c, 0, 70, 0
2, 55740, Note_on_c, 0, 74, 80
2, 55788, Note_on_c, 0, 74, 0
2, 55800, Note_on_c, 0, 75, 80
2, 55848, Note_on_c, 0, 75, 0
2, 55860, Note_on_c, 0, 77, 80
2, 55908, Note_on_c, 0, 77, 0
2, 55920, Note_on_c, 0, 79, 80
2, 55968, Note_on_c, 0, 79, 0
2, 55980, Note_on_c, 0, 80, 80
2, 56028, Note_on_c, 0, 80, 0
2, 56040, Note_on_c, 0, 82, 80
2, 56088, Note_on_c, 0, 82, 0
2, 56100, Note_on_c, 0, 79, 80
2, 56148, Note_on_c, 0, 79, 0
2, 56160, Note_on_c, 0, 84, 80
2, 56208, Note_on_c, 0, 84, 0
2, 56220, Note_on_c, 0, 85, 80
2, 56268, Note_on_c, 0, 85, 0
2, 56280, Note_on_c, 0, 84, 80
2, 56328, Note_on_c, 0, 84, 0
2, 56340, Note_on_c, 0, 82, 80
2, 56388, Note_on_c, 0, 82, 0
2, 56400, Note_on_c, 0, 80, 80
2, 56448, Note_on_c, 0, 80, 0
2, 56460, Note_on_c, 0, 79, 80
2, 56508, Note_on_c, 0, 79, 0
2, 56520, Note_on_c, 0, 77, 80
2, 56568, Note_on_c, 0, 77, 0
2, 56580, Note_on_c, 0, 75, 80
2, 56628, Note_on_c, 0, 75, 0
2, 56640, Note_on_c, 0, 74, 80
2, 56688, Note_on_c, 0, 74, 0
2, 56700, Note_on_c, 0, 77, 80
2, 56748, Note_on_c, 0, 77, 0
2, 56760, Note_on_c, 0, 82, 80
2, 56808, Note_on_c, 0, 82, 0
2, 56820, Note_on_c, 0, 77, 80
2, 56868, Note_on_c, 0, 77, 0
2, 56880, Note_on_c, 0, 74, 80
2, 56928, Note_on_c, 0, 74, 0
2, 56940, Note_on_c, 0, 70, 80
2, 56988, Note_on_c, 0, 70, 0
2, 57000, Note_on_c, 0, 77, 80
2, 57048, Note_on_c, 0, 77, 0
2, 57060, Note_on_c, 0, 74, 80
2, 57108, Note_on_c, 0, 74, 0
2, 57120, Note_on_c, 0, 75, 80
2, 57168, Note_on_c, 0, 75, 0
2, 57180, Note_on_c, 0, 79, 80
2, 57228, Note_on_c, 0, 79, 0
2, 57240, Note_on_c, 0, 82, 80
2, 57288, Note_on_c, 0, 82, 0
2, 57300, Note_on_c, 0, 79, 80
2, 57348, Note_on_c, 0, 79, 0
2, 57360, Note_on_c, 0, 75, 80
2, 57408, Note_on_c, 0, 75, 0
2, 57420, Note_on_c, 0, 70, 80
2, 57468, Note_on_c, 0, 70, 0
2, 57480, Note_on_c, 0, 79, 80
2, 57528, Note_on_c, 0, 79, 0
2, 57540, Note_on_c, 0, 75, 80
2, 57588, Note_on_c, 0, 75, 0
2, 57600, Note_on_c, 0, 77, 80
2, 57648, Note_on_c, 0, 77, 0
2, 57660, Note_on_c, 0, 81, 80
2, 57708, Note_on_c, 0, 81, 0
2, 57720, Note_on_c, 0, 82, 80
2, 57768, Note_on_c, 0, 82, 0
2, 57780, Note_on_c, 0, 77, 80
2, 57828, Note_on_c, 0, 77, 0
2, 57840, Note_on_c, 0, 74, 80
2, 57888, Note_on_c, 0, 74, 0
2, 57900, Note_on_c, 0, 70, 80
2, 57948, Note_on_c, 0, 70, 0
2, 57960, Note_on_c, 0, 80, 80
2, 58008, Note_on_c, 0, 80, 0
2, 58020, Note_on_c, 0, 77, 80
2, 58068, Note_on_c, 0, 77, 0
2, 58080, Note_on_c, 0, 79, 80
2, 58176, Note_on_c, 0, 79, 0
2, 58200, Note_on_c, 0, 70, 80
2, 58296, Note_on_c, 0, 70, 0
2, 58320, Note_on_c, 0, 75, 80
2, 58512, Note_on_c, 0, 75, 0
2, 58680, Note_on_c, 0, 63, 80
2, 58776, Note_on_c, 0, 63, 0
2, 58800, Note_on_c, 0, 75, 80
2, 58992, Note_on_c, 0, 75, 0
2, 59160, Note_on_c, 0, 63, 80
2, 59256, Note_on_c, 0, 63, 0
2, 59280, Note_on_c, 0, 70, 80
2, 59376, Note_on_c, 0, 70, 0
2, 59400, Note_on_c, 0, 67, 80
2, 59496, Note_on_c, 0, 67, 0
2, 59520, Note_on_c, 0, 68, 80
2, 59712, Note_on_c, 0, 68, 0
2, 60000, Note_on_c, 0, 72, 80
2, 60048, Note_on_c, 0, 72, 0
2, 60060, Note_on_c, 0, 74, 80
2, 60108, Note_on_c, 0, 74, 0
2, 60120, Note_on_c, 0, 75, 80
2, 60168, Note_on_c, 0, 75, 0
2, 60180, Note_on_c, 0, 74, 80
2, 60228, Note_on_c, 0, 74, 0
2, 60240, Note_on_c, 0, 72, 80
2, 60288, Note_on_c, 0, 72, 0
2, 60300, Note_on_c, 0, 70, 80
2, 60348, Note_on_c, 0, 70, 0
2, 60360, Note_on_c, 0, 68, 80
2, 60408, Note_on_c, 0, 68, 0
2, 60420, Note_on_c, 0, 67, 80
2, 60468, Note_on_c, 0, 67, 0
2, 60480, Note_on_c, 0, 65, 80
2, 60576, Note_on_c, 0, 65, 0
2, 60600, Note_on_c, 0, 77, 80
2, 60648, Note_on_c, 0, 77, 0
2, 60660, Note_on_c, 0, 74, 80
2, 60708, Note_on_c, 0, 74, 0
2, 60720, Note_on_c, 0, 70, 80
2, 60816, Note_on_c, 0, 70, 0
2, 60840, Note_on_c, 0, 70, 80
2, 61008, Note_on_c, 0, 70, 0
2, 61020, Note_on_c, 0, 74, 80
2, 61068, Note_on_c, 0, 74, 0
2, 61080, Note_on_c, 0, 77, 80
2, 61128, Note_on_c, 0, 77, 0
2, 61140, Note_on_c, 0, 74, 80
2, 61188, Note_on_c, 0, 74, 0
2, 61200, Note_on_c, 0, 70, 80
2, 61296, Note_on_c, 0, 70, 0
2, 61320, Note_on_c, 0, 70, 80
2, 61488, Note_on_c, 0, 70, 0
2, 61500, Note_on_c, 0, 69, 80
2, 61548, Note_on_c, 0, 69, 0
2, 61560, Note_on_c, 0, 70, 80
2, 61608, Note_on_c, 0, 70, 0
2, 61620, Note_on_c, 0, 72, 80
2, 61668, Note_on_c, 0, 72, 0
2, 61680, Note_on_c, 0, 74, 80
2, 61728, Note_on_c, 0, 74, 0
2, 61740, Note_on_c, 0, 75, 80
2, 61788, Note_on_c, 0, 75, 0
2, 61800, Note_on_c, 0, 77, 80
2, 61848, Note_on_c, 0, 77, 0
2, 61860, Note_on_c, 0, 79, 80
2, 61908, Note_on_c, 0, 79, 0
2, 61920, Note_on_c, 0, 80, 80
2, 61968, Note_on_c, 0, 80, 0
2, 61980, Note_on_c, 0, 79, 80
2, 62028, Note_on_c, 0, 79, 0
2, 62040, Note_on_c, 0, 77, 80
2, 62088, Note_on_c, 0, 77, 0
2, 62100, Note_on_c, 0, 75, 80
2, 62148, Note_on_c, 0, 75, 0
2, 62160, Note_on_c, 0, 74, 80
2, 62208, Note_on_c, 0, 74, 0
2, 62220, Note_on_c, 0, 72, 80
2, 62268, Note_on_c, 0, 72, 0
2, 62280, Note_on_c, 0, 70, 80
2, 62328, Note_on_c, 0, 70, 0
2, 62340, Note_on_c, 0, 68, 80
2, 62388, Note_on_c, 0, 68, 0
2, 62400, Note_on_c, 0, 67, 80
2, 62448, Note_on_c, 0, 67, 0
2, 62460, Note_on_c, 0, 70, 80
2, 62508, Note_on_c, 0, 70, 0
2, 62520, Note_on_c, 0, 72, 80
2, 62568, Note_on_c, 0, 72, 0
2, 62580, Note_on_c, 0, 68, 80
2, 62628, Note_on_c, 0, 68, 0
2, 62640, Note_on_c, 0, 70, 80
2, 62688, Note_on_c, 0, 70, 0
2, 62700, Note_on_c, 0, 75, 80
2, 62748, Note_on_c, 0, 75, 0
2, 62760, Note_on_c, 0, 68, 80
2, 62808, Note_on_c, 0, 68, 0
2, 62820, Note_on_c, 0, 65, 80
2, 62868, Note_on_c, 0, 65, 0
2, 62880, Note_on_c, 0, 67, 80
2, 62976, Note_on_c, 0, 67, 0
2, 63000, Note_on_c, 0, 63, 80
2, 63192, Note_on_c, 0, 63, 0
2, 63240, Note_on_c, 0, 62, 80
2, 63336, Note_on_c, 0, 62, 0
2, 63360, Note_on_c, 0, 63, 80
2, 63408, Note_on_c, 0, 63, 0
2, 63420, Note_on_c, 0, 62, 80
2, 63468, Note_on_c, 0, 62, 0
2, 63480, Note_on_c, 0, 63, 80
2, 63528, Note_on_c, 0, 63, 0
2, 63540, Note_on_c, 0, 65, 80
2, 63588, Note_on_c, 0, 65, 0
2, 63600, Note_on_c, 0, 67, 80
2, 63696, Note_on_c, 0, 67, 0
2, 63720, Note_on_c, 0, 65, 80
2, 63816, Note_on_c, 0, 65, 0
2, 63840, Note_on_c, 0, 63, 80
2, 63984, Note_on_c, 0, 63, 0
2, 64020, Note_on_c, 0, 63, 80
2, 64068, Note_on_c, 0, 63, 0
2, 64080, Note_on_c, 0, 62, 80
2, 64104, Note_on_c, 0, 62, 0
2, 64110, Note_on_c, 0, 63, 80
2, 64134, Note_on_c, 0, 63, 0
2, 64140, Note_on_c, 0, 62, 80
2, 64156, Note_on_c, 0, 62, 0
2, 64160, Note_on_c, 0, 63, 80
2, 64176, Note_on_c, 0, 63, 0
2, 64180, Note_on_c, 0, 62, 80
2, 64248, Note_on_c, 0, 62, 0
2, 64260, Note_on_c, 0, 63, 80
2, 64308, Note_on_c, 0, 63, 0
2, 64320, Note_on_c, 0, 63, 80
2, 64608, Note_on_c, 0, 63, 0
2, 64680, Note_on_c, 0, 62, 80
2, 64776, Note_on_c, 0, 62, 0
2, 64800, Note_on_c, 0, 63, 80
2, 64848, Note_on_c, 0, 63, 0
2, 64860, Note_on_c, 0, 70, 80
2, 64908, Note_on_c, 0, 70, 0
2, 64920, Note_on_c, 0, 72, 80
2, 64968, Note_on_c, 0, 72, 0
2, 64980, Note_on_c, 0, 68, 80
2, 65028, Note_on_c, 0, 68, 0
2, 65040, Note_on_c, 0, 70, 80
2, 65088, Note_on_c, 0, 70, 0
2, 65100, Note_on_c, 0, 75, 80
2, 65148, Note_on_c, 0, 75, 0
2, 65160, Note_on_c, 0, 68, 80
2, 65208, Note_on_c, 0, 68, 0
2, 65220, Note_on_c, 0, 65, 80
2, 65268, Note_on_c, 0, 65, 0
2, 65280, Note_on_c, 0, 67, 80
2, 65376, Note_on_c, 0, 67, 0
2, 65820, Note_on_c, 0, 82, 80
2, 65868, Note_on_c, 0, 82, 0
2, 65880, Note_on_c, 0, 80, 80
2, 65928, Note_on_c, 0, 80, 0
2, 65940, Note_on_c, 0, 79, 80
2, 65988, Note_on_c, 0, 79, 0
2, 66000, Note_on_c, 0, 77, 80
2, 66048, Note_on_c, 0, 77, 0
2, 66060, Note_on_c, 0, 75, 80
2, 66108, Note_on_c, 0, 75, 0
2, 66120, Note_on_c, 0, 74, 80
2, 66168, Note_on_c, 0, 74, 0
2, 66180, Note_on_c, 0, 72, 80
2, 66228, Note_on_c, 0, 72, 0
2, 66240, Note_on_c, 0, 70, 80
2, 66288, Note_on_c, 0, 70, 0
2, 66300, Note_on_c, 0, 79, 80
2, 66348, Note_on_c, 0, 79, 0
2, 66360, Note_on_c, 0, 77, 80
2, 66408, Note_on_c, 0, 77, 0
2, 66420, Note_on_c, 0, 75, 80
2, 66468, Note_on_c, 0, 75, 0
2, 66480, Note_on_c, 0, 74, 80
2, 66528, Note_on_c, 0, 74, 0
2, 66540, Note_on_c, 0, 72, 80
2, 66588, Note_on_c, 0, 72, 0
2, 66600, Note_on_c, 0, 70, 80
2, 66648, Note_on_c, 0, 70, 0
2, 66660, Note_on_c, 0, 68, 80
2, 66708, Note_on_c, 0, 68, 0
2, 66720, Note_on_c, 0, 67, 80
2, 66864, Note_on_c, 0, 67, 0
2, 66900, Note_on_c, 0, 67, 80
2, 66948, Note_on_c, 0, 67, 0
2, 66960, Note_on_c, 0, 65, 80
2, 66984, Note_on_c, 0, 65, 0
2, 66990, Note_on_c, 0, 67, 80
2, 67014, Note_on_c, 0, 67, 0
2, 67020, Note_on_c, 0, 65, 80
2, 67036, Note_on_c, 0, 65, 0
2, 67040, Note_on_c, 0, 67, 80
2, 67056, Note_on_c, 0, 67, 0
2, 67060, Note_on_c, 0, 65, 80
2, 67137, Note_on_c, 0, 65, 0
2, 67140, Note_on_c, 0, 63, 80
2, 67197, Note_on_c, 0, 63, 0
2, 67200, Note_on_c, 0, 63, 80
2, 67584, Note_on_c, 0, 63, 0
2, 67584, End_track
3, 0, Start_track
3, 0, MIDI_port, 0
3, 0, Title_t, "by J.S. Bach 1st movement - Allegro moderato"
3, 0, Program_c, 1, 6
3, 0, Control_c, 1, 7, 100
3, 0, Control_c, 1, 10, 72
3, 60, Note_on_c, 1, 58, 80
3, 108, Note_on_c, 1, 58, 0
3, 120, Note_on_c, 1, 63, 80
3, 168, Note_on_c, 1, 63, 0
3, 180, Note_on_c, 1, 67, 80
3, 228, Note_on_c, 1, 67, 0
3, 240, Note_on_c, 1, 70, 80
3, 300, Note_on_c, 1, 70, 0
3, 300, Note_on_c, 1, 67, 80
3, 348, Note_on_c, 1, 67, 0
3, 360, Note_on_c, 1, 68, 80
3, 408, Note_on_c, 1, 68, 0
3, 420, Note_on_c, 1, 65, 80
3, 468, Note_on_c, 1, 65, 0
3, 480, Note_on_c, 1, 67, 80
3, 540, Note_on_c, 1, 67, 0
3, 540, Note_on_c, 1, 63, 80
3, 570, Note_on_c, 1, 63, 0
3, 600, Note_on_c, 1, 67, 80
3, 630, Note_on_c, 1, 67, 0
3, 660, Note_on_c, 1, 75, 80
3, 690, Note_on_c, 1, 75, 0
3, 720, Note_on_c, 1, 70, 80
3, 768, Note_on_c, 1, 70, 0
3, 780, Note_on_c, 1, 67, 80
3, 828, Note_on_c, 1, 67, 0
3, 840, Note_on_c, 1, 68, 80
3, 888, Note_on_c, 1, 68, 0
3, 900, Note_on_c, 1, 65, 80
3, 948, Note_on_c, 1, 65, 0
3, 960, Note_on_c, 1, 67, 80
3, 1020, Note_on_c, 1, 67, 0
3, 1020, Note_on_c, 1, 63, 80
3, 1050, Note_on_c, 1, 63, 0
3, 1080, Note_on_c, 1, 67, 80
3, 1110, Note_on_c, 1, 67, 0
3, 1140, Note_on_c, 1, 70, 80
3, 1170, Note_on_c, 1, 70, 0
3, 1200, Note_on_c, 1, 72, 80
3, 1248, Note_on_c, 1, 72, 0
3, 1260, Note_on_c, 1, 68, 80
3, 1308, Note_on_c, 1, 68, 0
3, 1320, Note_on_c, 1, 75, 80
3, 1368, Note_on_c, 1, 75, 0
3, 1380, Note_on_c, 1, 72, 80
3, 1428, Note_on_c, 1, 72, 0
3, 1440, Note_on_c, 1, 70, 80
3, 1488, Note_on_c, 1, 70, 0
3, 1500, Note_on_c, 1, 58, 80
3, 1530, Note_on_c, 1, 58, 0
3, 1560, Note_on_c, 1, 63, 80
3, 1590, Note_on_c, 1, 63, 0
3, 1620, Note_on_c, 1, 67, 80
3, 1650, Note_on_c, 1, 67, 0
3, 1680, Note_on_c, 1, 70, 80
3, 1728, Note_on_c, 1, 70, 0
3, 1740, Note_on_c, 1, 67, 80
3, 1788, Note_on_c, 1, 67, 0
3, 1800, Note_on_c, 1, 75, 80
3, 1848, Note_on_c, 1, 75, 0
3, 1860, Note_on_c, 1, 67, 80
3, 1908, Note_on_c, 1, 67, 0
3, 1920, Note_on_c, 1, 68, 80
3, 1968, Note_on_c, 1, 68, 0
3, 1980, Note_on_c, 1, 60, 80
3, 2010, Note_on_c, 1, 60, 0
3, 2040, Note_on_c, 1, 62, 80
3, 2070, Note_on_c, 1, 62, 0
3, 2100, Note_on_c, 1, 65, 80
3, 2130, Note_on_c, 1, 65, 0
3, 2160, Note_on_c, 1, 68, 80
3, 2208, Note_on_c, 1, 68, 0
3, 2220, Note_on_c, 1, 65, 80
3, 2268, Note_on_c, 1, 65, 0
3, 2280, Note_on_c, 1, 77, 80
3, 2328, Note_on_c, 1, 77, 0
3, 2340, Note_on_c, 1, 68, 80
3, 2388, Note_on_c, 1, 68, 0
3, 2400, Note_on_c, 1, 67, 80
3, 2448, Note_on_c, 1, 67, 0
3, 2460, Note_on_c, 1, 63, 80
3, 2508, Note_on_c, 1, 63, 0
3, 2520, Note_on_c, 1, 65, 80
3, 2544, Note_on_c, 1, 65, 0
3, 2550, Note_on_c, 1, 63, 80
3, 2574, Note_on_c, 1, 63, 0
3, 2580, Note_on_c, 1, 62, 80
3, 2604, Note_on_c, 1, 62, 0
3, 2610, Note_on_c, 1, 63, 80
3, 2634, Note_on_c, 1, 63, 0
3, 2640, Note_on_c, 1, 67, 80
3, 2688, Note_on_c, 1, 67, 0
3, 2700, Note_on_c, 1, 63, 80
3, 2730, Note_on_c, 1, 63, 0
3, 2760, Note_on_c, 1, 70, 80
3, 2790, Note_on_c, 1, 70, 0
3, 2820, Note_on_c, 1, 67, 80
3, 2850, Note_on_c, 1, 67, 0
3, 2880, Note_on_c, 1, 72, 80
3, 2928, Note_on_c, 1, 72, 0
3, 2940, Note_on_c, 1, 75, 80
3, 2988, Note_on_c, 1, 75, 0
3, 3000, Note_on_c, 1, 77, 80
3, 3024, Note_on_c, 1, 77, 0
3, 3030, Note_on_c, 1, 75, 80
3, 3054, Note_on_c, 1, 75, 0
3, 3060, Note_on_c, 1, 74, 80
3, 3084, Note_on_c, 1, 74, 0
3, 3090, Note_on_c, 1, 75, 80
3, 3114, Note_on_c, 1, 75, 0
3, 3120, Note_on_c, 1, 70, 80
3, 3168, Note_on_c, 1, 70, 0
3, 3180, Note_on_c, 1, 75, 80
3, 3210, Note_on_c, 1, 75, 0
3, 3240, Note_on_c, 1, 67, 80
3, 3270, Note_on_c, 1, 67, 0
3, 3300, Note_on_c, 1, 70, 80
3, 3330, Note_on_c, 1, 70, 0
3, 3360, Note_on_c, 1, 68, 80
3, 3408, Note_on_c, 1, 68, 0
3, 3420, Note_on_c, 1, 72, 80
3, 3468, Note_on_c, 1, 72, 0
3, 3480, Note_on_c, 1, 77, 80
3, 3504, Note_on_c, 1, 77, 0
3, 3510, Note_on_c, 1, 75, 80
3, 3534, Note_on_c, 1, 75, 0
3, 3540, Note_on_c, 1, 74, 80
3, 3564, Note_on_c, 1, 74, 0
3, 3570, Note_on_c, 1, 75, 80
3, 3594, Note_on_c, 1, 75, 0
3, 3600, Note_on_c, 1, 67, 80
3, 3648, Note_on_c, 1, 67, 0
3, 3660, Note_on_c, 1, 75, 80
3, 3708, Note_on_c, 1, 75, 0
3, 3720, Note_on_c, 1, 63, 80
3, 3750, Note_on_c, 1, 63, 0
3, 3780, Note_on_c, 1, 67, 80
3, 3810, Note_on_c, 1, 67, 0
3, 3840, Note_on_c, 1, 65, 80
3, 3888, Note_on_c, 1, 65, 0
3, 3900, Note_on_c, 1, 72, 80
3, 3936, Note_on_c, 1, 72, 0
3, 3960, Note_on_c, 1, 72, 80
3, 3996, Note_on_c, 1, 72, 0
3, 4020, Note_on_c, 1, 70, 80
3, 4056, Note_on_c, 1, 70, 0
3, 4080, Note_on_c, 1, 68, 80
3, 4128, Note_on_c, 1, 68, 0
3, 4140, Note_on_c, 1, 67, 80
3, 4188, Note_on_c, 1, 67, 0
3, 4200, Note_on_c, 1, 65, 80
3, 4248, Note_on_c, 1, 65, 0
3, 4260, Note_on_c, 1, 63, 80
3, 4308, Note_on_c, 1, 63, 0
3, 4320, Note_on_c, 1, 62, 80
3, 4368, Note_on_c, 1, 62, 0
3, 4380, Note_on_c, 1, 65, 80
3, 4428, Note_on_c, 1, 65, 0
3, 4440, Note_on_c, 1, 68, 80
3, 4620, Note_on_c, 1, 68, 0
3, 4620, Note_on_c, 1, 65, 80
3, 4668, Note_on_c, 1, 65, 0
3, 4680, Note_on_c, 1, 67, 80
3, 4710, Note_on_c, 1, 67, 0
3, 4740, Note_on_c, 1, 63, 80
3, 4770, Note_on_c, 1, 63, 0
3, 4800, Note_on_c, 1, 62, 80
3, 4848, Note_on_c, 1, 62, 0
3, 4860, Note_on_c, 1, 65, 80
3, 4908, Note_on_c, 1, 65, 0
3, 4920, Note_on_c, 1, 68, 80
3, 5088, Note_on_c, 1, 68, 0
3, 5100, Note_on_c, 1, 65, 80
3, 5148, Note_on_c, 1, 65, 0
3, 5160, Note_on_c, 1, 67, 80
3, 5190, Note_on_c, 1, 67, 0
3, 5220, Note_on_c, 1, 63, 80
3, 5250, Note_on_c, 1, 63, 0
3, 5280, Note_on_c, 1, 62, 80
3, 5328, Note_on_c, 1, 62, 0
3, 5340, Note_on_c, 1, 58, 80
3, 5388, Note_on_c, 1, 58, 0
3, 5400, Note_on_c, 1, 65, 80
3, 5448, Note_on_c, 1, 65, 0
3, 5460, Note_on_c, 1, 62, 80
3, 5508, Note_on_c, 1, 62, 0
3, 5520, Note_on_c, 1, 68, 80
3, 5568, Note_on_c, 1, 68, 0
3, 5580, Note_on_c, 1, 65, 80
3, 5628, Note_on_c, 1, 65, 0
3, 5640, Note_on_c, 1, 74, 80
3, 5688, Note_on_c, 1, 74, 0
3, 5700, Note_on_c, 1, 68, 80
3, 5748, Note_on_c, 1, 68, 0
3, 5760, Note_on_c, 1, 77, 80
3, 5808, Note_on_c, 1, 77, 0
3, 5820, Note_on_c, 1, 74, 80
3, 5868, Note_on_c, 1, 74, 0
3, 5880, Note_on_c, 1, 80, 80
3, 6024, Note_on_c, 1, 80, 0
3, 6030, Note_on_c, 1, 79, 80
3, 6054, Note_on_c, 1, 79, 0
3, 6060, Note_on_c, 1, 77, 80
3, 6084, Note_on_c, 1, 77, 0
3, 6090, Note_on_c, 1, 75, 80
3, 6114, Note_on_c, 1, 75, 0
3, 6120, Note_on_c, 1, 74, 80
3, 6144, Note_on_c, 1, 74, 0
3, 6150, Note_on_c, 1, 72, 80
3, 6174, Note_on_c, 1, 72, 0
3, 6180, Note_on_c, 1, 70, 80
3, 6204, Note_on_c, 1, 70, 0
3, 6210, Note_on_c, 1, 68, 80
3, 6234, Note_on_c, 1, 68, 0
3, 6240, Note_on_c, 1, 67, 80
3, 6288, Note_on_c, 1, 67, 0
3, 6300, Note_on_c, 1, 75, 80
3, 6330, Note_on_c, 1, 75, 0
3, 6360, Note_on_c, 1, 72, 80
3, 6390, Note_on_c, 1, 72, 0
3, 6420, Note_on_c, 1, 68, 80
3, 6450, Note_on_c, 1, 68, 0
3, 6480, Note_on_c, 1, 67, 80
3, 6552, Note_on_c, 1, 67, 0
3, 6570, Note_on_c, 1, 65, 80
3, 6594, Note_on_c, 1, 65, 0
3, 6600, Note_on_c, 1, 67, 80
3, 6616, Note_on_c, 1, 67, 0
3, 6620, Note_on_c, 1, 65, 80
3, 6636, Note_on_c, 1, 65, 0
3, 6640, Note_on_c, 1, 67, 80
3, 6656, Note_on_c, 1, 67, 0
3, 6660, Note_on_c, 1, 65, 80
3, 6676, Note_on_c, 1, 65, 0
3, 6680, Note_on_c, 1, 63, 80
3, 6696, Note_on_c, 1, 63, 0
3, 6700, Note_on_c, 1, 65, 80
3, 6716, Note_on_c, 1, 65, 0
3, 6720, Note_on_c, 1, 63, 80
3, 6750, Note_on_c, 1, 63, 0
3, 6750, Note_on_c, 1, 79, 80
3, 6780, Note_on_c, 1, 79, 0
3, 6780, Note_on_c, 1, 77, 80
3, 6810, Note_on_c, 1, 77, 0
3, 6810, Note_on_c, 1, 75, 80
3, 6840, Note_on_c, 1, 75, 0
3, 6840, Note_on_c, 1, 74, 80
3, 6870, Note_on_c, 1, 74, 0
3, 6870, Note_on_c, 1, 72, 80
3, 6900, Note_on_c, 1, 72, 0
3, 6900, Note_on_c, 1, 70, 80
3, 6930, Note_on_c, 1, 70, 0
3, 6930, Note_on_c, 1, 68, 80
3, 6960, Note_on_c, 1, 68, 0
3, 6960, Note_on_c, 1, 67, 80
3, 6990, Note_on_c, 1, 67, 0
3, 6990, Note_on_c, 1, 75, 80
3, 7020, Note_on_c, 1, 75, 0
3, 7020, Note_on_c, 1, 74, 80
3, 7050, Note_on_c, 1, 74, 0
3, 7050, Note_on_c, 1, 72, 80
3, 7080, Note_on_c, 1, 72, 0
3, 7080, Note_on_c, 1, 70, 80
3, 7110, Note_on_c, 1, 70, 0
3, 7110, Note_on_c, 1, 68, 80
3, 7140, Note_on_c, 1, 68, 0
3, 7140, Note_on_c, 1, 67, 80
3, 7170, Note_on_c, 1, 67, 0
3, 7170, Note_on_c, 1, 65, 80
3, 7200, Note_on_c, 1, 65, 0
3, 7200, Note_on_c, 1, 63, 80
3, 7230, Note_on_c, 1, 63, 0
3, 7230, Note_on_c, 1, 67, 80
3, 7260, Note_on_c, 1, 67, 0
3, 7260, Note_on_c, 1, 65, 80
3, 7290, Note_on_c, 1, 65, 0
3, 7290, Note_on_c, 1, 63, 80
3, 7320, Note_on_c, 1, 63, 0
3, 7320, Note_on_c, 1, 62, 80
3, 7350, Note_on_c, 1, 62, 0
3, 7350, Note_on_c, 1, 60, 80
3, 7380, Note_on_c, 1, 60, 0
3, 7380, Note_on_c, 1, 58, 80
3, 7410, Note_on_c, 1, 58, 0
3, 7410, Note_on_c, 1, 56, 80
3, 7440, Note_on_c, 1, 56, 0
3, 7440, Note_on_c, 1, 55, 80
3, 7470, Note_on_c, 1, 55, 0
3, 7470, Note_on_c, 1, 63, 80
3, 7500, Note_on_c, 1, 63, 0
3, 7500, Note_on_c, 1, 62, 80
3, 7530, Note_on_c, 1, 62, 0
3, 7530, Note_on_c, 1, 60, 80
3, 7560, Note_on_c, 1, 60, 0
3, 7560, Note_on_c, 1, 58, 80
3, 7590, Note_on_c, 1, 58, 0
3, 7590, Note_on_c, 1, 56, 80
3, 7620, Note_on_c, 1, 56, 0
3, 7620, Note_on_c, 1, 55, 80
3, 7650, Note_on_c, 1, 55, 0
3, 7650, Note_on_c, 1, 53, 80
3, 7680, Note_on_c, 1, 53, 0
3, 10140, Note_on_c, 1, 58, 80
3, 10188, Note_on_c, 1, 58, 0
3, 10200, Note_on_c, 1, 63, 80
3, 10248, Note_on_c, 1, 63, 0
3, 10260, Note_on_c, 1, 67, 80
3, 10308, Note_on_c, 1, 67, 0
3, 10320, Note_on_c, 1, 70, 80
3, 10368, Note_on_c, 1, 70, 0
3, 10380, Note_on_c, 1, 67, 80
3, 10428, Note_on_c, 1, 67, 0
3, 10440, Note_on_c, 1, 68, 80
3, 10488, Note_on_c, 1, 68, 0
3, 10500, Note_on_c, 1, 65, 80
3, 10548, Note_on_c, 1, 65, 0
3, 10560, Note_on_c, 1, 67, 80
3, 10608, Note_on_c, 1, 67, 0
3, 10620, Note_on_c, 1, 63, 80
3, 10650, Note_on_c, 1, 63, 0
3, 10680, Note_on_c, 1, 67, 80
3, 10710, Note_on_c, 1, 67, 0
3, 10740, Note_on_c, 1, 75, 80
3, 10770, Note_on_c, 1, 75, 0
3, 10800, Note_on_c, 1, 70, 80
3, 10848, Note_on_c, 1, 70, 0
3, 10860, Note_on_c, 1, 67, 80
3, 10908, Note_on_c, 1, 67, 0
3, 10920, Note_on_c, 1, 68, 80
3, 10968, Note_on_c, 1, 68, 0
3, 10980, Note_on_c, 1, 65, 80
3, 11028, Note_on_c, 1, 65, 0
3, 11040, Note_on_c, 1, 67, 80
3, 11088, Note_on_c, 1, 67, 0
3, 11100, Note_on_c, 1, 65, 80
3, 11148, Note_on_c, 1, 65, 0
3, 11160, Note_on_c, 1, 63, 80
3, 11256, Note_on_c, 1, 63, 0
3, 12540, Note_on_c, 1, 65, 80
3, 12588, Note_on_c, 1, 65, 0
3, 12600, Note_on_c, 1, 70, 80
3, 12648, Note_on_c, 1, 70, 0
3, 12660, Note_on_c, 1, 74, 80
3, 12708, Note_on_c, 1, 74, 0
3, 12720, Note_on_c, 1, 77, 80
3, 12780, Note_on_c, 1, 77, 0
3, 12780, Note_on_c, 1, 74, 80
3, 12816, Note_on_c, 1, 74, 0
3, 12840, Note_on_c, 1, 75, 80
3, 12876, Note_on_c, 1, 75, 0
3, 12900, Note_on_c, 1, 72, 80
3, 12936, Note_on_c, 1, 72, 0
3, 12960, Note_on_c, 1, 74, 80
3, 13008, Note_on_c, 1, 74, 0
3, 13020, Note_on_c, 1, 70, 80
3, 13068, Note_on_c, 1, 70, 0
3, 13080, Note_on_c, 1, 74, 80
3, 13128, Note_on_c, 1, 74, 0
3, 13140, Note_on_c, 1, 82, 80
3, 13188, Note_on_c, 1, 82, 0
3, 13200, Note_on_c, 1, 77, 80
3, 13248, Note_on_c, 1, 77, 0
3, 13260, Note_on_c, 1, 74, 80
3, 13296, Note_on_c, 1, 74, 0
3, 13320, Note_on_c, 1, 75, 80
3, 13356, Note_on_c, 1, 75, 0
3, 13380, Note_on_c, 1, 72, 80
3, 13416, Note_on_c, 1, 72, 0
3, 13440, Note_on_c, 1, 74, 80
3, 13500, Note_on_c, 1, 74, 0
3, 13500, Note_on_c, 1, 65, 80
3, 13530, Note_on_c, 1, 65, 0
3, 13560, Note_on_c, 1, 70, 80
3, 13590, Note_on_c, 1, 70, 0
3, 13620, Note_on_c, 1, 65, 80
3, 13650, Note_on_c, 1, 65, 0
3, 13680, Note_on_c, 1, 74, 80
3, 13740, Note_on_c, 1, 74, 0
3, 13740, Note_on_c, 1, 70, 80
3, 13776, Note_on_c, 1, 70, 0
3, 13800, Note_on_c, 1, 77, 80
3, 13836, Note_on_c, 1, 77, 0
3, 13860, Note_on_c, 1, 74, 80
3, 13896, Note_on_c, 1, 74, 0
3, 13920, Note_on_c, 1, 79, 80
3, 13968, Note_on_c, 1, 79, 0
3, 13980, Note_on_c, 1, 80, 80
3, 14028, Note_on_c, 1, 80, 0
3, 14040, Note_on_c, 1, 79, 80
3, 14088, Note_on_c, 1, 79, 0
3, 14100, Note_on_c, 1, 77, 80
3, 14148, Note_on_c, 1, 77, 0
3, 14160, Note_on_c, 1, 75, 80
3, 14208, Note_on_c, 1, 75, 0
3, 14220, Note_on_c, 1, 74, 80
3, 14268, Note_on_c, 1, 74, 0
3, 14280, Note_on_c, 1, 72, 80
3, 14328, Note_on_c, 1, 72, 0
3, 14340, Note_on_c, 1, 70, 80
3, 14388, Note_on_c, 1, 70, 0
3, 14400, Note_on_c, 1, 69, 80
3, 14460, Note_on_c, 1, 69, 0
3, 14460, Note_on_c, 1, 60, 80
3, 14490, Note_on_c, 1, 60, 0
3, 14520, Note_on_c, 1, 65, 80
3, 14550, Note_on_c, 1, 65, 0
3, 14580, Note_on_c, 1, 60, 80
3, 14610, Note_on_c, 1, 60, 0
3, 14640, Note_on_c, 1, 69, 80
3, 14700, Note_on_c, 1, 69, 0
3, 14700, Note_on_c, 1, 65, 80
3, 14736, Note_on_c, 1, 65, 0
3, 14760, Note_on_c, 1, 72, 80
3, 14796, Note_on_c, 1, 72, 0
3, 14820, Note_on_c, 1, 69, 80
3, 14856, Note_on_c, 1, 69, 0
3, 14880, Note_on_c, 1, 77, 80
3, 14937, Note_on_c, 1, 77, 0
3, 14940, Note_on_c, 1, 79, 80
3, 14997, Note_on_c, 1, 79, 0
3, 15000, Note_on_c, 1, 77, 80
3, 15057, Note_on_c, 1, 77, 0
3, 15060, Note_on_c, 1, 75, 80
3, 15117, Note_on_c, 1, 75, 0
3, 15120, Note_on_c, 1, 74, 80
3, 15177, Note_on_c, 1, 74, 0
3, 15180, Note_on_c, 1, 72, 80
3, 15237, Note_on_c, 1, 72, 0
3, 15240, Note_on_c, 1, 70, 80
3, 15297, Note_on_c, 1, 70, 0
3, 15300, Note_on_c, 1, 69, 80
3, 15357, Note_on_c, 1, 69, 0
3, 15360, Note_on_c, 1, 67, 80
3, 15420, Note_on_c, 1, 67, 0
3, 15420, Note_on_c, 1, 58, 80
3, 15450, Note_on_c, 1, 58, 0
3, 15480, Note_on_c, 1, 63, 80
3, 15510, Note_on_c, 1, 63, 0
3, 15540, Note_on_c, 1, 58, 80
3, 15570, Note_on_c, 1, 58, 0
3, 15600, Note_on_c, 1, 67, 80
3, 15660, Note_on_c, 1, 67, 0
3, 15660, Note_on_c, 1, 63, 80
3, 15696, Note_on_c, 1, 63, 0
3, 15720, Note_on_c, 1, 70, 80
3, 15756, Note_on_c, 1, 70, 0
3, 15780, Note_on_c, 1, 67, 80
3, 15816, Note_on_c, 1, 67, 0
3, 15840, Note_on_c, 1, 75, 80
3, 15897, Note_on_c, 1, 75, 0
3, 15900, Note_on_c, 1, 77, 80
3, 15957, Note_on_c, 1, 77, 0
3, 15960, Note_on_c, 1, 75, 80
3, 16017, Note_on_c, 1, 75, 0
3, 16020, Note_on_c, 1, 74, 80
3, 16077, Note_on_c, 1, 74, 0
3, 16080, Note_on_c, 1, 72, 80
3, 16137, Note_on_c, 1, 72, 0
3, 16140, Note_on_c, 1, 70, 80
3, 16197, Note_on_c, 1, 70, 0
3, 16200, Note_on_c, 1, 69, 80
3, 16257, Note_on_c, 1, 69, 0
3, 16260, Note_on_c, 1, 67, 80
3, 16317, Note_on_c, 1, 67, 0
3, 16320, Note_on_c, 1, 65, 80
3, 16392, Note_on_c, 1, 65, 0
3, 16440, Note_on_c, 1, 72, 80
3, 16512, Note_on_c, 1, 72, 0
3, 16560, Note_on_c, 1, 77, 80
3, 16752, Note_on_c, 1, 77, 0
3, 16920, Note_on_c, 1, 65, 80
3, 16992, Note_on_c, 1, 65, 0
3, 17040, Note_on_c, 1, 77, 80
3, 17232, Note_on_c, 1, 77, 0
3, 17400, Note_on_c, 1, 65, 80
3, 17496, Note_on_c, 1, 65, 0
3, 17520, Note_on_c, 1, 72, 80
3, 17616, Note_on_c, 1, 72, 0
3, 17640, Note_on_c, 1, 69, 80
3, 17736, Note_on_c, 1, 69, 0
3, 17760, Note_on_c, 1, 70, 80
3, 17808, Note_on_c, 1, 70, 0
3, 17820, Note_on_c, 1, 77, 80
3, 17868, Note_on_c, 1, 77, 0
3, 17880, Note_on_c, 1, 82, 80
3, 17928, Note_on_c, 1, 82, 0
3, 17940, Note_on_c, 1, 77, 80
3, 17988, Note_on_c, 1, 77, 0
3, 18000, Note_on_c, 1, 74, 80
3, 18048, Note_on_c, 1, 74, 0
3, 18060, Note_on_c, 1, 70, 80
3, 18108, Note_on_c, 1, 70, 0
3, 18120, Note_on_c, 1, 77, 80
3, 18168, Note_on_c, 1, 77, 0
3, 18180, Note_on_c, 1, 74, 80
3, 18228, Note_on_c, 1, 74, 0
3, 18240, Note_on_c, 1, 75, 80
3, 18288, Note_on_c, 1, 75, 0
3, 18300, Note_on_c, 1, 79, 80
3, 18348, Note_on_c, 1, 79, 0
3, 18360, Note_on_c, 1, 82, 80
3, 18408, Note_on_c, 1, 82, 0
3, 18420, Note_on_c, 1, 79, 80
3, 18468, Note_on_c, 1, 79, 0
3, 18480, Note_on_c, 1, 75, 80
3, 18528, Note_on_c, 1, 75, 0
3, 18540, Note_on_c, 1, 70, 80
3, 18588, Note_on_c, 1, 70, 0
3, 18600, Note_on_c, 1, 79, 80
3, 18648, Note_on_c, 1, 79, 0
3, 18660, Note_on_c, 1, 75, 80
3, 18708, Note_on_c, 1, 75, 0
3, 18720, Note_on_c, 1, 77, 80
3, 18768, Note_on_c, 1, 77, 0
3, 18780, Note_on_c, 1, 81, 80
3, 18828, Note_on_c, 1, 81, 0
3, 18840, Note_on_c, 1, 82, 80
3, 18888, Note_on_c, 1, 82, 0
3, 18900, Note_on_c, 1, 77, 80
3, 18948, Note_on_c, 1, 77, 0
3, 18960, Note_on_c, 1, 74, 80
3, 19008, Note_on_c, 1, 74, 0
3, 19020, Note_on_c, 1, 70, 80
3, 19068, Note_on_c, 1, 70, 0
3, 19080, Note_on_c, 1, 80, 80
3, 19128, Note_on_c, 1, 80, 0
3, 19140, Note_on_c, 1, 77, 80
3, 19188, Note_on_c, 1, 77, 0
3, 19200, Note_on_c, 1, 79, 80
3, 19260, Note_on_c, 1, 79, 0
3, 19260, Note_on_c, 1, 77, 80
3, 19302, Note_on_c, 1, 77, 0
3, 19320, Note_on_c, 1, 75, 80
3, 19362, Note_on_c, 1, 75, 0
3, 19380, Note_on_c, 1, 77, 80
3, 19422, Note_on_c, 1, 77, 0
3, 19440, Note_on_c, 1, 75, 80
3, 19497, Note_on_c, 1, 75, 0
3, 19500, Note_on_c, 1, 77, 80
3, 19557, Note_on_c, 1, 77, 0
3, 19560, Note_on_c, 1, 74, 80
3, 19617, Note_on_c, 1, 74, 0
3, 19620, Note_on_c, 1, 75, 80
3, 19677, Note_on_c, 1, 75, 0
3, 19680, Note_on_c, 1, 72, 80
3, 19728, Note_on_c, 1, 72, 0
3, 19740, Note_on_c, 1, 70, 80
3, 19782, Note_on_c, 1, 70, 0
3, 19800, Note_on_c, 1, 72, 80
3, 19842, Note_on_c, 1, 72, 0
3, 19860, Note_on_c, 1, 74, 80
3, 19902, Note_on_c, 1, 74, 0
3, 19920, Note_on_c, 1, 72, 80
3, 19977, Note_on_c, 1, 72, 0
3, 19980, Note_on_c, 1, 74, 80
3, 20037, Note_on_c, 1, 74, 0
3, 20040, Note_on_c, 1, 70, 80
3, 20097, Note_on_c, 1, 70, 0
3, 20100, Note_on_c, 1, 72, 80
3, 20157, Note_on_c, 1, 72, 0
3, 20160, Note_on_c, 1, 69, 80
3, 20208, Note_on_c, 1, 69, 0
3, 20220, Note_on_c, 1, 72, 80
3, 20268, Note_on_c, 1, 72, 0
3, 20280, Note_on_c, 1, 75, 80
3, 20448, Note_on_c, 1, 75, 0
3, 20460, Note_on_c, 1, 72, 80
3, 20508, Note_on_c, 1, 72, 0
3, 20520, Note_on_c, 1, 74, 80
3, 20550, Note_on_c, 1, 74, 0
3, 20580, Note_on_c, 1, 70, 80
3, 20610, Note_on_c, 1, 70, 0
3, 20640, Note_on_c, 1, 69, 80
3, 20688, Note_on_c, 1, 69, 0
3, 20700, Note_on_c, 1, 72, 80
3, 20748, Note_on_c, 1, 72, 0
3, 20760, Note_on_c, 1, 75, 80
3, 20928, Note_on_c, 1, 75, 0
3, 20940, Note_on_c, 1, 72, 80
3, 20988, Note_on_c, 1, 72, 0
3, 21000, Note_on_c, 1, 74, 80
3, 21030, Note_on_c, 1, 74, 0
3, 21060, Note_on_c, 1, 70, 80
3, 21090, Note_on_c, 1, 70, 0
3, 21120, Note_on_c, 1, 69, 80
3, 21168, Note_on_c, 1, 69, 0
3, 21180, Note_on_c, 1, 67, 80
3, 21228, Note_on_c, 1, 67, 0
3, 21240, Note_on_c, 1, 65, 80
3, 21288, Note_on_c, 1, 65, 0
3, 21300, Note_on_c, 1, 67, 80
3, 21348, Note_on_c, 1, 67, 0
3, 21360, Note_on_c, 1, 69, 80
3, 21420, Note_on_c, 1, 69, 0
3, 21420, Note_on_c, 1, 70, 80
3, 21462, Note_on_c, 1, 70, 0
3, 21480, Note_on_c, 1, 72, 80
3, 21522, Note_on_c, 1, 72, 0
3, 21540, Note_on_c, 1, 74, 80
3, 21582, Note_on_c, 1, 74, 0
3, 21600, Note_on_c, 1, 75, 80
3, 21660, Note_on_c, 1, 75, 0
3, 21660, Note_on_c, 1, 74, 80
3, 21702, Note_on_c, 1, 74, 0
3, 21720, Note_on_c, 1, 72, 80
3, 21762, Note_on_c, 1, 72, 0
3, 21780, Note_on_c, 1, 74, 80
3, 21822, Note_on_c, 1, 74, 0
3, 21840, Note_on_c, 1, 75, 80
3, 21900, Note_on_c, 1, 75, 0
3, 21900, Note_on_c, 1, 79, 80
3, 21942, Note_on_c, 1, 79, 0
3, 21960, Note_on_c, 1, 77, 80
3, 22002, Note_on_c, 1, 77, 0
3, 22020, Note_on_c, 1, 75, 80
3, 22062, Note_on_c, 1, 75, 0
3, 22080, Note_on_c, 1, 74, 80
3, 22128, Note_on_c, 1, 74, 0
3, 22140, Note_on_c, 1, 77, 80
3, 22188, Note_on_c, 1, 77, 0
3, 22200, Note_on_c, 1, 79, 80
3, 22248, Note_on_c, 1, 79, 0
3, 22260, Note_on_c, 1, 75, 80
3, 22308, Note_on_c, 1, 75, 0
3, 22320, Note_on_c, 1, 77, 80
3, 22368, Note_on_c, 1, 77, 0
3, 22380, Note_on_c, 1, 82, 80
3, 22410, Note_on_c, 1, 82, 0
3, 22440, Note_on_c, 1, 75, 80
3, 22470, Note_on_c, 1, 75, 0
3, 22500, Note_on_c, 1, 72, 80
3, 22530, Note_on_c, 1, 72, 0
3, 22560, Note_on_c, 1, 74, 80
3, 22656, Note_on_c, 1, 74, 0
3, 22680, Note_on_c, 1, 70, 80
3, 22872, Note_on_c, 1, 70, 0
3, 22920, Note_on_c, 1, 69, 80
3, 23016, Note_on_c, 1, 69, 0
3, 23040, Note_on_c, 1, 70, 80
3, 23088, Note_on_c, 1, 70, 0
3, 23100, Note_on_c, 1, 69, 80
3, 23148, Note_on_c, 1, 69, 0
3, 23160, Note_on_c, 1, 70, 80
3, 23208, Note_on_c, 1, 70, 0
3, 23220, Note_on_c, 1, 72, 80
3, 23268, Note_on_c, 1, 72, 0
3, 23280, Note_on_c, 1, 74, 80
3, 23376, Note_on_c, 1, 74, 0
3, 23400, Note_on_c, 1, 72, 80
3, 23496, Note_on_c, 1, 72, 0
3, 23520, Note_on_c, 1, 70, 80
3, 23664, Note_on_c, 1, 70, 0
3, 23700, Note_on_c, 1, 70, 80
3, 23748, Note_on_c, 1, 70, 0
3, 23760, Note_on_c, 1, 69, 80
3, 23784, Note_on_c, 1, 69, 0
3, 23790, Note_on_c, 1, 70, 80
3, 23814, Note_on_c, 1, 70, 0
3, 23820, Note_on_c, 1, 69, 80
3, 23836, Note_on_c, 1, 69, 0
3, 23840, Note_on_c, 1, 70, 80
3, 23856, Note_on_c, 1, 70, 0
3, 23860, Note_on_c, 1, 69, 80
3, 23928, Note_on_c, 1, 69, 0
3, 23940, Note_on_c, 1, 70, 80
3, 23988, Note_on_c, 1, 70, 0
3, 24000, Note_on_c, 1, 70, 80
3, 24048, Note_on_c, 1, 70, 0
3, 24060, Note_on_c, 1, 65, 80
3, 24108, Note_on_c, 1, 65, 0
3, 24120, Note_on_c, 1, 70, 80
3, 24168, Note_on_c, 1, 70, 0
3, 24180, Note_on_c, 1, 74, 80
3, 24228, Note_on_c, 1, 74, 0
3, 24240, Note_on_c, 1, 77, 80
3, 24288, Note_on_c, 1, 77, 0
3, 24300, Note_on_c, 1, 74, 80
3, 24348, Note_on_c, 1, 74, 0
3, 24360, Note_on_c, 1, 75, 80
3, 24408, Note_on_c, 1, 75, 0
3, 24420, Note_on_c, 1, 72, 80
3, 24468, Note_on_c, 1, 72, 0
3, 24480, Note_on_c, 1, 74, 80
3, 24528, Note_on_c, 1, 74, 0
3, 24540, Note_on_c, 1, 70, 80
3, 24570, Note_on_c, 1, 70, 0
3, 24600, Note_on_c, 1, 74, 80
3, 24630, Note_on_c, 1, 74, 0
3, 24660, Note_on_c, 1, 82, 80
3, 24690, Note_on_c, 1, 82, 0
3, 24720, Note_on_c, 1, 77, 80
3, 24768, Note_on_c, 1, 77, 0
3, 24780, Note_on_c, 1, 74, 80
3, 24828, Note_on_c, 1, 74, 0
3, 24840, Note_on_c, 1, 75, 80
3, 24888, Note_on_c, 1, 75, 0
3, 24900, Note_on_c, 1, 72, 80
3, 24948, Note_on_c, 1, 72, 0
3, 24960, Note_on_c, 1, 74, 80
3, 25008, Note_on_c, 1, 74, 0
3, 25020, Note_on_c, 1, 70, 80
3, 25068, Note_on_c, 1, 70, 0
3, 25080, Note_on_c, 1, 74, 80
3, 25128, Note_on_c, 1, 74, 0
3, 25140, Note_on_c, 1, 77, 80
3, 25188, Note_on_c, 1, 77, 0
3, 25200, Note_on_c, 1, 79, 80
3, 25248, Note_on_c, 1, 79, 0
3, 25260, Note_on_c, 1, 75, 80
3, 25308, Note_on_c, 1, 75, 0
3, 25320, Note_on_c, 1, 82, 80
3, 25368, Note_on_c, 1, 82, 0
3, 25380, Note_on_c, 1, 79, 80
3, 25428, Note_on_c, 1, 79, 0
3, 25440, Note_on_c, 1, 77, 80
3, 25488, Note_on_c, 1, 77, 0
3, 25500, Note_on_c, 1, 65, 80
3, 25548, Note_on_c, 1, 65, 0
3, 25560, Note_on_c, 1, 70, 80
3, 25608, Note_on_c, 1, 70, 0
3, 25620, Note_on_c, 1, 65, 80
3, 25668, Note_on_c, 1, 65, 0
3, 25680, Note_on_c, 1, 74, 80
3, 25728, Note_on_c, 1, 74, 0
3, 25740, Note_on_c, 1, 70, 80
3, 25770, Note_on_c, 1, 70, 0
3, 25800, Note_on_c, 1, 77, 80
3, 25830, Note_on_c, 1, 77, 0
3, 25860, Note_on_c, 1, 74, 80
3, 25890, Note_on_c, 1, 74, 0
3, 25920, Note_on_c, 1, 75, 80
3, 25968, Note_on_c, 1, 75, 0
3, 25980, Note_on_c, 1, 65, 80
3, 26028, Note_on_c, 1, 65, 0
3, 26040, Note_on_c, 1, 69, 80
3, 26088, Note_on_c, 1, 69, 0
3, 26100, Note_on_c, 1, 72, 80
3, 26148, Note_on_c, 1, 72, 0
3, 26160, Note_on_c, 1, 75, 80
3, 26208, Note_on_c, 1, 75, 0
3, 26220, Note_on_c, 1, 72, 80
3, 26268, Note_on_c, 1, 72, 0
3, 26280, Note_on_c, 1, 84, 80
3, 26328, Note_on_c, 1, 84, 0
3, 26340, Note_on_c, 1, 75, 80
3, 26388, Note_on_c, 1, 75, 0
3, 26400, Note_on_c, 1, 74, 80
3, 26448, Note_on_c, 1, 74, 0
3, 26460, Note_on_c, 1, 70, 80
3, 26508, Note_on_c, 1, 70, 0
3, 26520, Note_on_c, 1, 72, 80
3, 26544, Note_on_c, 1, 72, 0
3, 26550, Note_on_c, 1, 70, 80
3, 26574, Note_on_c, 1, 70, 0
3, 26580, Note_on_c, 1, 69, 80
3, 26604, Note_on_c, 1, 69, 0
3, 26610, Note_on_c, 1, 70, 80
3, 26634, Note_on_c, 1, 70, 0
3, 26640, Note_on_c, 1, 74, 80
3, 26688, Note_on_c, 1, 74, 0
3, 26700, Note_on_c, 1, 70, 80
3, 26730, Note_on_c, 1, 70, 0
3, 26760, Note_on_c, 1, 77, 80
3, 26790, Note_on_c, 1, 77, 0
3, 26820, Note_on_c, 1, 74, 80
3, 26850, Note_on_c, 1, 74, 0
3, 26880, Note_on_c, 1, 79, 80
3, 26928, Note_on_c, 1, 79, 0
3, 26940, Note_on_c, 1, 82, 80
3, 26988, Note_on_c, 1, 82, 0
3, 27000, Note_on_c, 1, 84, 80
3, 27024, Note_on_c, 1, 84, 0
3, 27030, Note_on_c, 1, 82, 80
3, 27054, Note_on_c, 1, 82, 0
3, 27060, Note_on_c, 1, 81, 80
3, 27084, Note_on_c, 1, 81, 0
3, 27090, Note_on_c, 1, 82, 80
3, 27114, Note_on_c, 1, 82, 0
3, 27120, Note_on_c, 1, 77, 80
3, 27168, Note_on_c, 1, 77, 0
3, 27180, Note_on_c, 1, 82, 80
3, 27210, Note_on_c, 1, 82, 0
3, 27240, Note_on_c, 1, 74, 80
3, 27270, Note_on_c, 1, 74, 0
3, 27300, Note_on_c, 1, 77, 80
3, 27330, Note_on_c, 1, 77, 0
3, 27360, Note_on_c, 1, 75, 80
3, 27408, Note_on_c, 1, 75, 0
3, 27420, Note_on_c, 1, 82, 80
3, 27468, Note_on_c, 1, 82, 0
3, 27480, Note_on_c, 1, 84, 80
3, 27504, Note_on_c, 1, 84, 0
3, 27510, Note_on_c, 1, 82, 80
3, 27534, Note_on_c, 1, 82, 0
3, 27540, Note_on_c, 1, 81, 80
3, 27564, Note_on_c, 1, 81, 0
3, 27570, Note_on_c, 1, 82, 80
3, 27594, Note_on_c, 1, 82, 0
3, 27600, Note_on_c, 1, 74, 80
3, 27648, Note_on_c, 1, 74, 0
3, 27660, Note_on_c, 1, 82, 80
3, 27690, Note_on_c, 1, 82, 0
3, 27720, Note_on_c, 1, 70, 80
3, 27750, Note_on_c, 1, 70, 0
3, 27780, Note_on_c, 1, 74, 80
3, 27810, Note_on_c, 1, 74, 0
3, 27840, Note_on_c, 1, 72, 80
3, 27888, Note_on_c, 1, 72, 0
3, 27900, Note_on_c, 1, 79, 80
3, 27930, Note_on_c, 1, 79, 0
3, 27960, Note_on_c, 1, 79, 80
3, 27990, Note_on_c, 1, 79, 0
3, 28020, Note_on_c, 1, 77, 80
3, 28050, Note_on_c, 1, 77, 0
3, 28080, Note_on_c, 1, 75, 80
3, 28110, Note_on_c, 1, 75, 0
3, 28140, Note_on_c, 1, 74, 80
3, 28170, Note_on_c, 1, 74, 0
3, 28200, Note_on_c, 1, 72, 80
3, 28230, Note_on_c, 1, 72, 0
3, 28260, Note_on_c, 1, 70, 80
3, 28290, Note_on_c, 1, 70, 0
3, 28320, Note_on_c, 1, 69, 80
3, 28368, Note_on_c, 1, 69, 0
3, 28380, Note_on_c, 1, 72, 80
3, 28428, Note_on_c, 1, 72, 0
3, 28440, Note_on_c, 1, 72, 80
3, 28488, Note_on_c, 1, 72, 0
3, 28500, Note_on_c, 1, 70, 80
3, 28548, Note_on_c, 1, 70, 0
3, 28560, Note_on_c, 1, 69, 80
3, 28608, Note_on_c, 1, 69, 0
3, 28620, Note_on_c, 1, 67, 80
3, 28668, Note_on_c, 1, 67, 0
3, 28680, Note_on_c, 1, 65, 80
3, 28728, Note_on_c, 1, 65, 0
3, 28740, Note_on_c, 1, 63, 80
3, 28788, Note_on_c, 1, 63, 0
3, 28800, Note_on_c, 1, 62, 80
3, 28824, Note_on_c, 1, 62, 0
3, 28830, Note_on_c, 1, 58, 80
3, 28854, Note_on_c, 1, 58, 0
3, 28860, Note_on_c, 1, 60, 80
3, 28884, Note_on_c, 1, 60, 0
3, 28890, Note_on_c, 1, 62, 80
3, 28914, Note_on_c, 1, 62, 0
3, 28920, Note_on_c, 1, 63, 80
3, 28944, Note_on_c, 1, 63, 0
3, 28950, Note_on_c, 1, 65, 80
3, 28974, Note_on_c, 1, 65, 0
3, 28980, Note_on_c, 1, 67, 80
3, 29004, Note_on_c, 1, 67, 0
3, 29010, Note_on_c, 1, 69, 80
3, 29034, Note_on_c, 1, 69, 0
3, 29040, Note_on_c, 1, 70, 80
3, 29088, Note_on_c, 1, 70, 0
3, 29100, Note_on_c, 1, 82, 80
3, 29130, Note_on_c, 1, 82, 0
3, 29160, Note_on_c, 1, 79, 80
3, 29190, Note_on_c, 1, 79, 0
3, 29220, Note_on_c, 1, 75, 80
3, 29250, Note_on_c, 1, 75, 0
3, 29280, Note_on_c, 1, 74, 80
3, 29328, Note_on_c, 1, 74, 0
3, 29340, Note_on_c, 1, 70, 80
3, 29388, Note_on_c, 1, 70, 0
3, 29400, Note_on_c, 1, 77, 80
3, 29448, Note_on_c, 1, 77, 0
3, 29460, Note_on_c, 1, 70, 80
3, 29508, Note_on_c, 1, 70, 0
3, 29520, Note_on_c, 1, 74, 80
3, 29568, Note_on_c, 1, 74, 0
3, 29580, Note_on_c, 1, 72, 80
3, 29604, Note_on_c, 1, 72, 0
3, 29610, Note_on_c, 1, 74, 80
3, 29634, Note_on_c, 1, 74, 0
3, 29640, Note_on_c, 1, 72, 80
3, 29656, Note_on_c, 1, 72, 0
3, 29660, Note_on_c, 1, 74, 80
3, 29676, Note_on_c, 1, 74, 0
3, 29680, Note_on_c, 1, 72, 80
3, 29696, Note_on_c, 1, 72, 0
3, 29700, Note_on_c, 1, 70, 80
3, 29724, Note_on_c, 1, 70, 0
3, 29730, Note_on_c, 1, 72, 80
3, 29754, Note_on_c, 1, 72, 0
3, 29760, Note_on_c, 1, 70, 80
3, 29952, Note_on_c, 1, 70, 0
3, 32220, Note_on_c, 1, 65, 80
3, 32268, Note_on_c, 1, 65, 0
3, 32280, Note_on_c, 1, 70, 80
3, 32328, Note_on_c, 1, 70, 0
3, 32340, Note_on_c, 1, 74, 80
3, 32388, Note_on_c, 1, 74, 0
3, 32400, Note_on_c, 1, 77, 80
3, 32448, Note_on_c, 1, 77, 0
3, 32460, Note_on_c, 1, 74, 80
3, 32508, Note_on_c, 1, 74, 0
3, 32520, Note_on_c, 1, 75, 80
3, 32568, Note_on_c, 1, 75, 0
3, 32580, Note_on_c, 1, 72, 80
3, 32628, Note_on_c, 1, 72, 0
3, 32640, Note_on_c, 1, 74, 80
3, 32688, Note_on_c, 1, 74, 0
3, 32700, Note_on_c, 1, 70, 80
3, 32730, Note_on_c, 1, 70, 0
3, 32760, Note_on_c, 1, 74, 80
3, 32790, Note_on_c, 1, 74, 0
3, 32820, Note_on_c, 1, 82, 80
3, 32850, Note_on_c, 1, 82, 0
3, 32880, Note_on_c, 1, 77, 80
3, 32928, Note_on_c, 1, 77, 0
3, 32940, Note_on_c, 1, 74, 80
3, 32988, Note_on_c, 1, 74, 0
3, 33000, Note_on_c, 1, 75, 80
3, 33048, Note_on_c, 1, 75, 0
3, 33060, Note_on_c, 1, 72, 80
3, 33108, Note_on_c, 1, 72, 0
3, 33120, Note_on_c, 1, 74, 80
3, 33144, Note_on_c, 1, 74, 0
3, 33150, Note_on_c, 1, 65, 80
3, 33174, Note_on_c, 1, 65, 0
3, 33180, Note_on_c, 1, 67, 80
3, 33204, Note_on_c, 1, 67, 0
3, 33210, Note_on_c, 1, 69, 80
3, 33234, Note_on_c, 1, 69, 0
3, 33240, Note_on_c, 1, 70, 80
3, 33264, Note_on_c, 1, 70, 0
3, 33270, Note_on_c, 1, 72, 80
3, 33294, Note_on_c, 1, 72, 0
3, 33300, Note_on_c, 1, 74, 80
3, 33324, Note_on_c, 1, 74, 0
3, 33330, Note_on_c, 1, 75, 80
3, 33354, Note_on_c, 1, 75, 0
3, 33360, Note_on_c, 1, 77, 80
3, 33408, Note_on_c, 1, 77, 0
3, 33420, Note_on_c, 1, 74, 80
3, 33450, Note_on_c, 1, 74, 0
3, 33480, Note_on_c, 1, 70, 80
3, 33510, Note_on_c, 1, 70, 0
3, 33540, Note_on_c, 1, 68, 80
3, 33570, Note_on_c, 1, 68, 0
3, 33600, Note_on_c, 1, 67, 80
3, 33792, Note_on_c, 1, 67, 0
3, 36060, Note_on_c, 1, 58, 80
3, 36108, Note_on_c, 1, 58, 0
3, 36120, Note_on_c, 1, 63, 80
3, 36168, Note_on_c, 1, 63, 0
3, 36180, Note_on_c, 1, 67, 80
3, 36228, Note_on_c, 1, 67, 0
3, 36240, Note_on_c, 1, 70, 80
3, 36288, Note_on_c, 1, 70, 0
3, 36300, Note_on_c, 1, 67, 80
3, 36348, Note_on_c, 1, 67, 0
3, 36360, Note_on_c, 1, 68, 80
3, 36408, Note_on_c, 1, 68, 0
3, 36420, Note_on_c, 1, 65, 80
3, 36468, Note_on_c, 1, 65, 0
3, 36480, Note_on_c, 1, 67, 80
3, 36528, Note_on_c, 1, 67, 0
3, 36540, Note_on_c, 1, 63, 80
3, 36588, Note_on_c, 1, 63, 0
3, 36600, Note_on_c, 1, 67, 80
3, 36648, Note_on_c, 1, 67, 0
3, 36660, Note_on_c, 1, 75, 80
3, 36708, Note_on_c, 1, 75, 0
3, 36720, Note_on_c, 1, 70, 80
3, 36768, Note_on_c, 1, 70, 0
3, 36780, Note_on_c, 1, 67, 80
3, 36828, Note_on_c, 1, 67, 0
3, 36840, Note_on_c, 1, 68, 80
3, 36888, Note_on_c, 1, 68, 0
3, 36900, Note_on_c, 1, 65, 80
3, 36948, Note_on_c, 1, 65, 0
3, 36960, Note_on_c, 1, 67, 80
3, 37032, Note_on_c, 1, 67, 0
3, 37080, Note_on_c, 1, 67, 80
3, 37128, Note_on_c, 1, 67, 0
3, 37140, Note_on_c, 1, 65, 80
3, 37188, Note_on_c, 1, 65, 0
3, 37200, Note_on_c, 1, 67, 80
3, 37260, Note_on_c, 1, 67, 0
3, 37260, Note_on_c, 1, 68, 80
3, 37302, Note_on_c, 1, 68, 0
3, 37320, Note_on_c, 1, 70, 80
3, 37362, Note_on_c, 1, 70, 0
3, 37380, Note_on_c, 1, 72, 80
3, 37422, Note_on_c, 1, 72, 0
3, 37440, Note_on_c, 1, 73, 80
3, 37524, Note_on_c, 1, 73, 0
3, 37560, Note_on_c, 1, 70, 80
3, 37752, Note_on_c, 1, 70, 0
3, 37800, Note_on_c, 1, 70, 80
3, 37896, Note_on_c, 1, 70, 0
3, 37920, Note_on_c, 1, 68, 80
3, 38016, Note_on_c, 1, 68, 0
3, 38040, Note_on_c, 1, 72, 80
3, 38088, Note_on_c, 1, 72, 0
3, 38100, Note_on_c, 1, 70, 80
3, 38148, Note_on_c, 1, 70, 0
3, 38160, Note_on_c, 1, 72, 80
3, 38256, Note_on_c, 1, 72, 0
3, 38280, Note_on_c, 1, 75, 80
3, 38328, Note_on_c, 1, 75, 0
3, 38340, Note_on_c, 1, 72, 80
3, 38388, Note_on_c, 1, 72, 0
3, 38400, Note_on_c, 1, 73, 80
3, 38448, Note_on_c, 1, 73, 0
3, 38460, Note_on_c, 1, 72, 80
3, 38508, Note_on_c, 1, 72, 0
3, 38520, Note_on_c, 1, 70, 80
3, 38568, Note_on_c, 1, 70, 0
3, 38580, Note_on_c, 1, 68, 80
3, 38628, Note_on_c, 1, 68, 0
3, 38640, Note_on_c, 1, 67, 80
3, 38688, Note_on_c, 1, 67, 0
3, 38700, Note_on_c, 1, 70, 80
3, 38748, Note_on_c, 1, 70, 0
3, 38760, Note_on_c, 1, 68, 80
3, 38808, Note_on_c, 1, 68, 0
3, 38820, Note_on_c, 1, 67, 80
3, 38868, Note_on_c, 1, 67, 0
3, 38880, Note_on_c, 1, 68, 80
3, 39072, Note_on_c, 1, 68, 0
3, 39420, Note_on_c, 1, 67, 80
3, 39468, Note_on_c, 1, 67, 0
3, 39480, Note_on_c, 1, 72, 80
3, 39528, Note_on_c, 1, 72, 0
3, 39540, Note_on_c, 1, 71, 80
3, 39588, Note_on_c, 1, 71, 0
3, 39600, Note_on_c, 1, 72, 80
3, 39648, Note_on_c, 1, 72, 0
3, 39660, Note_on_c, 1, 74, 80
3, 39708, Note_on_c, 1, 74, 0
3, 39720, Note_on_c, 1, 76, 80
3, 39768, Note_on_c, 1, 76, 0
3, 39780, Note_on_c, 1, 77, 80
3, 39828, Note_on_c, 1, 77, 0
3, 39840, Note_on_c, 1, 79, 80
3, 39936, Note_on_c, 1, 79, 0
3, 39960, Note_on_c, 1, 70, 80
3, 40152, Note_on_c, 1, 70, 0
3, 40200, Note_on_c, 1, 70, 80
3, 40296, Note_on_c, 1, 70, 0
3, 40320, Note_on_c, 1, 68, 80
3, 40368, Note_on_c, 1, 68, 0
3, 40380, Note_on_c, 1, 72, 80
3, 40428, Note_on_c, 1, 72, 0
3, 40440, Note_on_c, 1, 77, 80
3, 40488, Note_on_c, 1, 77, 0
3, 40500, Note_on_c, 1, 76, 80
3, 40548, Note_on_c, 1, 76, 0
3, 40560, Note_on_c, 1, 77, 80
3, 40608, Note_on_c, 1, 77, 0
3, 40620, Note_on_c, 1, 72, 80
3, 40668, Note_on_c, 1, 72, 0
3, 40680, Note_on_c, 1, 80, 80
3, 40728, Note_on_c, 1, 80, 0
3, 40740, Note_on_c, 1, 77, 80
3, 40788, Note_on_c, 1, 77, 0
3, 40800, Note_on_c, 1, 79, 80
3, 40848, Note_on_c, 1, 79, 0
3, 40860, Note_on_c, 1, 77, 80
3, 40908, Note_on_c, 1, 77, 0
3, 40920, Note_on_c, 1, 76, 80
3, 40968, Note_on_c, 1, 76, 0
3, 40980, Note_on_c, 1, 74, 80
3, 41028, Note_on_c, 1, 74, 0
3, 41040, Note_on_c, 1, 72, 80
3, 41088, Note_on_c, 1, 72, 0
3, 41100, Note_on_c, 1, 70, 80
3, 41148, Note_on_c, 1, 70, 0
3, 41160, Note_on_c, 1, 68, 80
3, 41208, Note_on_c, 1, 68, 0
3, 41220, Note_on_c, 1, 67, 80
3, 41268, Note_on_c, 1, 67, 0
3, 41280, Note_on_c, 1, 68, 80
3, 41328, Note_on_c, 1, 68, 0
3, 41340, Note_on_c, 1, 72, 80
3, 41388, Note_on_c, 1, 72, 0
3, 41400, Note_on_c, 1, 77, 80
3, 41448, Note_on_c, 1, 77, 0
3, 41460, Note_on_c, 1, 76, 80
3, 41508, Note_on_c, 1, 76, 0
3, 41520, Note_on_c, 1, 77, 80
3, 41568, Note_on_c, 1, 77, 0
3, 41580, Note_on_c, 1, 79, 80
3, 41628, Note_on_c, 1, 79, 0
3, 41640, Note_on_c, 1, 80, 80
3, 41688, Note_on_c, 1, 80, 0
3, 41700, Note_on_c, 1, 77, 80
3, 41748, Note_on_c, 1, 77, 0
3, 41760, Note_on_c, 1, 74, 80
3, 41808, Note_on_c, 1, 74, 0
3, 41820, Note_on_c, 1, 70, 80
3, 41868, Note_on_c, 1, 70, 0
3, 41880, Note_on_c, 1, 77, 80
3, 41928, Note_on_c, 1, 77, 0
3, 41940, Note_on_c, 1, 75, 80
3, 41988, Note_on_c, 1, 75, 0
3, 42000, Note_on_c, 1, 74, 80
3, 42048, Note_on_c, 1, 74, 0
3, 42060, Note_on_c, 1, 72, 80
3, 42108, Note_on_c, 1, 72, 0
3, 42120, Note_on_c, 1, 70, 80
3, 42168, Note_on_c, 1, 70, 0
3, 42180, Note_on_c, 1, 68, 80
3, 42228, Note_on_c, 1, 68, 0
3, 42240, Note_on_c, 1, 67, 80
3, 42288, Note_on_c, 1, 67, 0
3, 42300, Note_on_c, 1, 70, 80
3, 42348, Note_on_c, 1, 70, 0
3, 42360, Note_on_c, 1, 75, 80
3, 42408, Note_on_c, 1, 75, 0
3, 42420, Note_on_c, 1, 74, 80
3, 42468, Note_on_c, 1, 74, 0
3, 42480, Note_on_c, 1, 75, 80
3, 42528, Note_on_c, 1, 75, 0
3, 42540, Note_on_c, 1, 77, 80
3, 42588, Note_on_c, 1, 77, 0
3, 42600, Note_on_c, 1, 79, 80
3, 42648, Note_on_c, 1, 79, 0
3, 42660, Note_on_c, 1, 75, 80
3, 42708, Note_on_c, 1, 75, 0
3, 42720, Note_on_c, 1, 72, 80
3, 42768, Note_on_c, 1, 72, 0
3, 42780, Note_on_c, 1, 68, 80
3, 42828, Note_on_c, 1, 68, 0
3, 42840, Note_on_c, 1, 75, 80
3, 42888, Note_on_c, 1, 75, 0
3, 42900, Note_on_c, 1, 74, 80
3, 42948, Note_on_c, 1, 74, 0
3, 42960, Note_on_c, 1, 72, 80
3, 43008, Note_on_c, 1, 72, 0
3, 43020, Note_on_c, 1, 70, 80
3, 43068, Note_on_c, 1, 70, 0
3, 43080, Note_on_c, 1, 68, 80
3, 43128, Note_on_c, 1, 68, 0
3, 43140, Note_on_c, 1, 67, 80
3, 43188, Note_on_c, 1, 67, 0
3, 43200, Note_on_c, 1, 65, 80
3, 43248, Note_on_c, 1, 65, 0
3, 43260, Note_on_c, 1, 68, 80
3, 43308, Note_on_c, 1, 68, 0
3, 43320, Note_on_c, 1, 74, 80
3, 43368, Note_on_c, 1, 74, 0
3, 43380, Note_on_c, 1, 72, 80
3, 43428, Note_on_c, 1, 72, 0
3, 43440, Note_on_c, 1, 74, 80
3, 43488, Note_on_c, 1, 74, 0
3, 43500, Note_on_c, 1, 75, 80
3, 43548, Note_on_c, 1, 75, 0
3, 43560, Note_on_c, 1, 77, 80
3, 43608, Note_on_c, 1, 77, 0
3, 43620, Note_on_c, 1, 74, 80
3, 43668, Note_on_c, 1, 74, 0
3, 43680, Note_on_c, 1, 71, 80
3, 43728, Note_on_c, 1, 71, 0
3, 43740, Note_on_c, 1, 67, 80
3, 43788, Note_on_c, 1, 67, 0
3, 43800, Note_on_c, 1, 74, 80
3, 43848, Note_on_c, 1, 74, 0
3, 43860, Note_on_c, 1, 72, 80
3, 43908, Note_on_c, 1, 72, 0
3, 43920, Note_on_c, 1, 71, 80
3, 43968, Note_on_c, 1, 71, 0
3, 43980, Note_on_c, 1, 69, 80
3, 44028, Note_on_c, 1, 69, 0
3, 44040, Note_on_c, 1, 67, 80
3, 44088, Note_on_c, 1, 67, 0
3, 44100, Note_on_c, 1, 65, 80
3, 44148, Note_on_c, 1, 65, 0
3, 44160, Note_on_c, 1, 63, 80
3, 44208, Note_on_c, 1, 63, 0
3, 44220, Note_on_c, 1, 67, 80
3, 44268, Note_on_c, 1, 67, 0
3, 44280, Note_on_c, 1, 68, 80
3, 44328, Note_on_c, 1, 68, 0
3, 44340, Note_on_c, 1, 65, 80
3, 44388, Note_on_c, 1, 65, 0
3, 44400, Note_on_c, 1, 67, 80
3, 44448, Note_on_c, 1, 67, 0
3, 44460, Note_on_c, 1, 72, 80
3, 44508, Note_on_c, 1, 72, 0
3, 44520, Note_on_c, 1, 65, 80
3, 44568, Note_on_c, 1, 65, 0
3, 44580, Note_on_c, 1, 62, 80
3, 44628, Note_on_c, 1, 62, 0
3, 44640, Note_on_c, 1, 63, 80
3, 44736, Note_on_c, 1, 63, 0
3, 44760, Note_on_c, 1, 72, 80
3, 44952, Note_on_c, 1, 72, 0
3, 45000, Note_on_c, 1, 71, 80
3, 45096, Note_on_c, 1, 71, 0
3, 45120, Note_on_c, 1, 72, 80
3, 45168, Note_on_c, 1, 72, 0
3, 45180, Note_on_c, 1, 80, 80
3, 45228, Note_on_c, 1, 80, 0
3, 45240, Note_on_c, 1, 79, 80
3, 45288, Note_on_c, 1, 79, 0
3, 45300, Note_on_c, 1, 77, 80
3, 45348, Note_on_c, 1, 77, 0
3, 45360, Note_on_c, 1, 75, 80
3, 45456, Note_on_c, 1, 75, 0
3, 45480, Note_on_c, 1, 74, 80
3, 45576, Note_on_c, 1, 74, 0
3, 45600, Note_on_c, 1, 72, 80
3, 45744, Note_on_c, 1, 72, 0
3, 45780, Note_on_c, 1, 72, 80
3, 45828, Note_on_c, 1, 72, 0
3, 45840, Note_on_c, 1, 71, 80
3, 45864, Note_on_c, 1, 71, 0
3, 45870, Note_on_c, 1, 72, 80
3, 45894, Note_on_c, 1, 72, 0
3, 45900, Note_on_c, 1, 71, 80
3, 45916, Note_on_c, 1, 71, 0
3, 45920, Note_on_c, 1, 72, 80
3, 45936, Note_on_c, 1, 72, 0
3, 45940, Note_on_c, 1, 71, 80
3, 46008, Note_on_c, 1, 71, 0
3, 46020, Note_on_c, 1, 72, 80
3, 46068, Note_on_c, 1, 72, 0
3, 46080, Note_on_c, 1, 72, 80
3, 46272, Note_on_c, 1, 72, 0
3, 49980, Note_on_c, 1, 58, 80
3, 50028, Note_on_c, 1, 58, 0
3, 50040, Note_on_c, 1, 63, 80
3, 50088, Note_on_c, 1, 63, 0
3, 50100, Note_on_c, 1, 67, 80
3, 50148, Note_on_c, 1, 67, 0
3, 50160, Note_on_c, 1, 70, 80
3, 50208, Note_on_c, 1, 70, 0
3, 50220, Note_on_c, 1, 67, 80
3, 50268, Note_on_c, 1, 67, 0
3, 50280, Note_on_c, 1, 68, 80
3, 50328, Note_on_c, 1, 68, 0
3, 50340, Note_on_c, 1, 65, 80
3, 50388, Note_on_c, 1, 65, 0
3, 50400, Note_on_c, 1, 67, 80
3, 50448, Note_on_c, 1, 67, 0
3, 50460, Note_on_c, 1, 63, 80
3, 50508, Note_on_c, 1, 63, 0
3, 50520, Note_on_c, 1, 67, 80
3, 50568, Note_on_c, 1, 67, 0
3, 50580, Note_on_c, 1, 75, 80
3, 50628, Note_on_c, 1, 75, 0
3, 50640, Note_on_c, 1, 70, 80
3, 50688, Note_on_c, 1, 70, 0
3, 50700, Note_on_c, 1, 67, 80
3, 50748, Note_on_c, 1, 67, 0
3, 50760, Note_on_c, 1, 68, 80
3, 50808, Note_on_c, 1, 68, 0
3, 50820, Note_on_c, 1, 65, 80
3, 50868, Note_on_c, 1, 65, 0
3, 50880, Note_on_c, 1, 67, 80
3, 50928, Note_on_c, 1, 67, 0
3, 50940, Note_on_c, 1, 63, 80
3, 50988, Note_on_c, 1, 63, 0
3, 51000, Note_on_c, 1, 67, 80
3, 51048, Note_on_c, 1, 67, 0
3, 51060, Note_on_c, 1, 70, 80
3, 51108, Note_on_c, 1, 70, 0
3, 51120, Note_on_c, 1, 72, 80
3, 51168, Note_on_c, 1, 72, 0
3, 51180, Note_on_c, 1, 68, 80
3, 51228, Note_on_c, 1, 68, 0
3, 51240, Note_on_c, 1, 75, 80
3, 51288, Note_on_c, 1, 75, 0
3, 51300, Note_on_c, 1, 72, 80
3, 51348, Note_on_c, 1, 72, 0
3, 51360, Note_on_c, 1, 70, 80
3, 51408, Note_on_c, 1, 70, 0
3, 51420, Note_on_c, 1, 63, 80
3, 51468, Note_on_c, 1, 63, 0
3, 51480, Note_on_c, 1, 67, 80
3, 51528, Note_on_c, 1, 67, 0
3, 51540, Note_on_c, 1, 63, 80
3, 51588, Note_on_c, 1, 63, 0
3, 51600, Note_on_c, 1, 70, 80
3, 51648, Note_on_c, 1, 70, 0
3, 51660, Note_on_c, 1, 67, 80
3, 51708, Note_on_c, 1, 67, 0
3, 51720, Note_on_c, 1, 75, 80
3, 51768, Note_on_c, 1, 75, 0
3, 51780, Note_on_c, 1, 70, 80
3, 51828, Note_on_c, 1, 70, 0
3, 51840, Note_on_c, 1, 68, 80
3, 51888, Note_on_c, 1, 68, 0
3, 51900, Note_on_c, 1, 58, 80
3, 51948, Note_on_c, 1, 58, 0
3, 51960, Note_on_c, 1, 62, 80
3, 52008, Note_on_c, 1, 62, 0
3, 52020, Note_on_c, 1, 65, 80
3, 52068, Note_on_c, 1, 65, 0
3, 52080, Note_on_c, 1, 68, 80
3, 52128, Note_on_c, 1, 68, 0
3, 52140, Note_on_c, 1, 65, 80
3, 52188, Note_on_c, 1, 65, 0
3, 52200, Note_on_c, 1, 77, 80
3, 52248, Note_on_c, 1, 77, 0
3, 52260, Note_on_c, 1, 68, 80
3, 52308, Note_on_c, 1, 68, 0
3, 52320, Note_on_c, 1, 67, 80
3, 52368, Note_on_c, 1, 67, 0
3, 52380, Note_on_c, 1, 63, 80
3, 52428, Note_on_c, 1, 63, 0
3, 52440, Note_on_c, 1, 65, 80
3, 52464, Note_on_c, 1, 65, 0
3, 52470, Note_on_c, 1, 63, 80
3, 52494, Note_on_c, 1, 63, 0
3, 52500, Note_on_c, 1, 62, 80
3, 52524, Note_on_c, 1, 62, 0
3, 52530, Note_on_c, 1, 63, 80
3, 52554, Note_on_c, 1, 63, 0
3, 52560, Note_on_c, 1, 67, 80
3, 52608, Note_on_c, 1, 67, 0
3, 52620, Note_on_c, 1, 63, 80
3, 52668, Note_on_c, 1, 63, 0
3, 52680, Note_on_c, 1, 70, 80
3, 52728, Note_on_c, 1, 70, 0
3, 52740, Note_on_c, 1, 63, 80
3, 52788, Note_on_c, 1, 63, 0
3, 52800, Note_on_c, 1, 72, 80
3, 52848, Note_on_c, 1, 72, 0
3, 52860, Note_on_c, 1, 63, 80
3, 52908, Note_on_c, 1, 63, 0
3, 52920, Note_on_c, 1, 68, 80
3, 52968, Note_on_c, 1, 68, 0
3, 52980, Note_on_c, 1, 63, 80
3, 53028, Note_on_c, 1, 63, 0
3, 53040, Note_on_c, 1, 72, 80
3, 53088, Note_on_c, 1, 72, 0
3, 53100, Note_on_c, 1, 68, 80
3, 53148, Note_on_c, 1, 68, 0
3, 53160, Note_on_c, 1, 75, 80
3, 53208, Note_on_c, 1, 75, 0
3, 53220, Note_on_c, 1, 72, 80
3, 53268, Note_on_c, 1, 72, 0
3, 53280, Note_on_c, 1, 80, 80
3, 53328, Note_on_c, 1, 80, 0
3, 53340, Note_on_c, 1, 82, 80
3, 53388, Note_on_c, 1, 82, 0
3, 53400, Note_on_c, 1, 80, 80
3, 53448, Note_on_c, 1, 80, 0
3, 53460, Note_on_c, 1, 79, 80
3, 53508, Note_on_c, 1, 79, 0
3, 53520, Note_on_c, 1, 77, 80
3, 53568, Note_on_c, 1, 77, 0
3, 53580, Note_on_c, 1, 75, 80
3, 53628, Note_on_c, 1, 75, 0
3, 53640, Note_on_c, 1, 74, 80
3, 53688, Note_on_c, 1, 74, 0
3, 53700, Note_on_c, 1, 72, 80
3, 53748, Note_on_c, 1, 72, 0
3, 53760, Note_on_c, 1, 70, 80
3, 53808, Note_on_c, 1, 70, 0
3, 53820, Note_on_c, 1, 62, 80
3, 53868, Note_on_c, 1, 62, 0
3, 53880, Note_on_c, 1, 67, 80
3, 53928, Note_on_c, 1, 67, 0
3, 53940, Note_on_c, 1, 62, 80
3, 53988, Note_on_c, 1, 62, 0
3, 54000, Note_on_c, 1, 70, 80
3, 54048, Note_on_c, 1, 70, 0
3, 54060, Note_on_c, 1, 67, 80
3, 54108, Note_on_c, 1, 67, 0
3, 54120, Note_on_c, 1, 74, 80
3, 54168, Note_on_c, 1, 74, 0
3, 54180, Note_on_c, 1, 70, 80
3, 54228, Note_on_c, 1, 70, 0
3, 54240, Note_on_c, 1, 79, 80
3, 54288, Note_on_c, 1, 79, 0
3, 54300, Note_on_c, 1, 80, 80
3, 54348, Note_on_c, 1, 80, 0
3, 54360, Note_on_c, 1, 79, 80
3, 54408, Note_on_c, 1, 79, 0
3, 54420, Note_on_c, 1, 77, 80
3, 54468, Note_on_c, 1, 77, 0
3, 54480, Note_on_c, 1, 75, 80
3, 54528, Note_on_c, 1, 75, 0
3, 54540, Note_on_c, 1, 74, 80
3, 54588, Note_on_c, 1, 74, 0
3, 54600, Note_on_c, 1, 72, 80
3, 54648, Note_on_c, 1, 72, 0
3, 54660, Note_on_c, 1, 70, 80
3, 54708, Note_on_c, 1, 70, 0
3, 54720, Note_on_c, 1, 68, 80
3, 54768, Note_on_c, 1, 68, 0
3, 54780, Note_on_c, 1, 60, 80
3, 54828, Note_on_c, 1, 60, 0
3, 54840, Note_on_c, 1, 65, 80
3, 54888, Note_on_c, 1, 65, 0
3, 54900, Note_on_c, 1, 60, 80
3, 54948, Note_on_c, 1, 60, 0
3, 54960, Note_on_c, 1, 68, 80
3, 55008, Note_on_c, 1, 68, 0
3, 55020, Note_on_c, 1, 65, 80
3, 55068, Note_on_c, 1, 65, 0
3, 55080, Note_on_c, 1, 72, 80
3, 55128, Note_on_c, 1, 72, 0
3, 55140, Note_on_c, 1, 68, 80
3, 55188, Note_on_c, 1, 68, 0
3, 55200, Note_on_c, 1, 77, 80
3, 55248, Note_on_c, 1, 77, 0
3, 55260, Note_on_c, 1, 79, 80
3, 55308, Note_on_c, 1, 79, 0
3, 55320, Note_on_c, 1, 77, 80
3, 55368, Note_on_c, 1, 77, 0
3, 55380, Note_on_c, 1, 75, 80
3, 55428, Note_on_c, 1, 75, 0
3, 55440, Note_on_c, 1, 74, 80
3, 55488, Note_on_c, 1, 74, 0
3, 55500, Note_on_c, 1, 72, 80
3, 55548, Note_on_c, 1, 72, 0
3, 55560, Note_on_c, 1, 70, 80
3, 55608, Note_on_c, 1, 70, 0
3, 55620, Note_on_c, 1, 68, 80
3, 55668, Note_on_c, 1, 68, 0
3, 55680, Note_on_c, 1, 67, 80
3, 55728, Note_on_c, 1, 67, 0
3, 55740, Note_on_c, 1, 65, 80
3, 55788, Note_on_c, 1, 65, 0
3, 55800, Note_on_c, 1, 67, 80
3, 55848, Note_on_c, 1, 67, 0
3, 55860, Note_on_c, 1, 68, 80
3, 55908, Note_on_c, 1, 68, 0
3, 55920, Note_on_c, 1, 70, 80
3, 55968, Note_on_c, 1, 70, 0
3, 55980, Note_on_c, 1, 68, 80
3, 56028, Note_on_c, 1, 68, 0
3, 56040, Note_on_c, 1, 67, 80
3, 56088, Note_on_c, 1, 67, 0
3, 56100, Note_on_c, 1, 70, 80
3, 56148, Note_on_c, 1, 70, 0
3, 56160, Note_on_c, 1, 68, 80
3, 56256, Note_on_c, 1, 68, 0
3, 56280, Note_on_c, 1, 75, 80
3, 56328, Note_on_c, 1, 75, 0
3, 56340, Note_on_c, 1, 73, 80
3, 56388, Note_on_c, 1, 73, 0
3, 56400, Note_on_c, 1, 72, 80
3, 56448, Note_on_c, 1, 72, 0
3, 56460, Note_on_c, 1, 70, 80
3, 56508, Note_on_c, 1, 70, 0
3, 56520, Note_on_c, 1, 68, 80
3, 56568, Note_on_c, 1, 68, 0
3, 56580, Note_on_c, 1, 67, 80
3, 56628, Note_on_c, 1, 67, 0
3, 56640, Note_on_c, 1, 65, 80
3, 56736, Note_on_c, 1, 65, 0
3, 56760, Note_on_c, 1, 70, 80
3, 56856, Note_on_c, 1, 70, 0
3, 56880, Note_on_c, 1, 82, 80
3, 57072, Note_on_c, 1, 82, 0
3, 57240, Note_on_c, 1, 70, 80
3, 57336, Note_on_c, 1, 70, 0
3, 57360, Note_on_c, 1, 82, 80
3, 57552, Note_on_c, 1, 82, 0
3, 57720, Note_on_c, 1, 70, 80
3, 57816, Note_on_c, 1, 70, 0
3, 57840, Note_on_c, 1, 77, 80
3, 57936, Note_on_c, 1, 77, 0
3, 57960, Note_on_c, 1, 74, 80
3, 58056, Note_on_c, 1, 74, 0
3, 58080, Note_on_c, 1, 75, 80
3, 58128, Note_on_c, 1, 75, 0
3, 58140, Note_on_c, 1, 70, 80
3, 58188, Note_on_c, 1, 70, 0
3, 58200, Note_on_c, 1, 75, 80
3, 58248, Note_on_c, 1, 75, 0
3, 58260, Note_on_c, 1, 70, 80
3, 58308, Note_on_c, 1, 70, 0
3, 58320, Note_on_c, 1, 67, 80
3, 58368, Note_on_c, 1, 67, 0
3, 58380, Note_on_c, 1, 63, 80
3, 58428, Note_on_c, 1, 63, 0
3, 58440, Note_on_c, 1, 70, 80
3, 58488, Note_on_c, 1, 70, 0
3, 58500, Note_on_c, 1, 67, 80
3, 58548, Note_on_c, 1, 67, 0
3, 58560, Note_on_c, 1, 68, 80
3, 58608, Note_on_c, 1, 68, 0
3, 58620, Note_on_c, 1, 72, 80
3, 58668, Note_on_c, 1, 72, 0
3, 58680, Note_on_c, 1, 75, 80
3, 58728, Note_on_c, 1, 75, 0
3, 58740, Note_on_c, 1, 72, 80
3, 58788, Note_on_c, 1, 72, 0
3, 58800, Note_on_c, 1, 68, 80
3, 58848, Note_on_c, 1, 68, 0
3, 58860, Note_on_c, 1, 63, 80
3, 58908, Note_on_c, 1, 63, 0
3, 58920, Note_on_c, 1, 72, 80
3, 58968, Note_on_c, 1, 72, 0
3, 58980, Note_on_c, 1, 68, 80
3, 59028, Note_on_c, 1, 68, 0
3, 59040, Note_on_c, 1, 70, 80
3, 59088, Note_on_c, 1, 70, 0
3, 59100, Note_on_c, 1, 74, 80
3, 59148, Note_on_c, 1, 74, 0
3, 59160, Note_on_c, 1, 75, 80
3, 59208, Note_on_c, 1, 75, 0
3, 59220, Note_on_c, 1, 70, 80
3, 59268, Note_on_c, 1, 70, 0
3, 59280, Note_on_c, 1, 67, 80
3, 59328, Note_on_c, 1, 67, 0
3, 59340, Note_on_c, 1, 63, 80
3, 59388, Note_on_c, 1, 63, 0
3, 59400, Note_on_c, 1, 73, 80
3, 59448, Note_on_c, 1, 73, 0
3, 59460, Note_on_c, 1, 70, 80
3, 59508, Note_on_c, 1, 70, 0
3, 59520, Note_on_c, 1, 72, 80
3, 59568, Note_on_c, 1, 72, 0
3, 59580, Note_on_c, 1, 74, 80
3, 59628, Note_on_c, 1, 74, 0
3, 59640, Note_on_c, 1, 75, 80
3, 59688, Note_on_c, 1, 75, 0
3, 59700, Note_on_c, 1, 74, 80
3, 59748, Note_on_c, 1, 74, 0
3, 59760, Note_on_c, 1, 72, 80
3, 59808, Note_on_c, 1, 72, 0
3, 59820, Note_on_c, 1, 70, 80
3, 59868, Note_on_c, 1, 70, 0
3, 59880, Note_on_c, 1, 68, 80
3, 59928, Note_on_c, 1, 68, 0
3, 59940, Note_on_c, 1, 67, 80
3, 59988, Note_on_c, 1, 67, 0
3, 60000, Note_on_c, 1, 68, 80
3, 60048, Note_on_c, 1, 68, 0
3, 60060, Note_on_c, 1, 70, 80
3, 60108, Note_on_c, 1, 70, 0
3, 60120, Note_on_c, 1, 72, 80
3, 60168, Note_on_c, 1, 72, 0
3, 60180, Note_on_c, 1, 70, 80
3, 60228, Note_on_c, 1, 70, 0
3, 60240, Note_on_c, 1, 68, 80
3, 60288, Note_on_c, 1, 68, 0
3, 60300, Note_on_c, 1, 67, 80
3, 60348, Note_on_c, 1, 67, 0
3, 60360, Note_on_c, 1, 65, 80
3, 60408, Note_on_c, 1, 65, 0
3, 60420, Note_on_c, 1, 63, 80
3, 60468, Note_on_c, 1, 63, 0
3, 60480, Note_on_c, 1, 62, 80
3, 60528, Note_on_c, 1, 62, 0
3, 60540, Note_on_c, 1, 65, 80
3, 60588, Note_on_c, 1, 65, 0
3, 60600, Note_on_c, 1, 68, 80
3, 60768, Note_on_c, 1, 68, 0
3, 60780, Note_on_c, 1, 65, 80
3, 60828, Note_on_c, 1, 65, 0
3, 60840, Note_on_c, 1, 67, 80
3, 60888, Note_on_c, 1, 67, 0
3, 60900, Note_on_c, 1, 63, 80
3, 60948, Note_on_c, 1, 63, 0
3, 60960, Note_on_c, 1, 62, 80
3, 61008, Note_on_c, 1, 62, 0
3, 61020, Note_on_c, 1, 65, 80
3, 61068, Note_on_c, 1, 65, 0
3, 61080, Note_on_c, 1, 68, 80
3, 61248, Note_on_c, 1, 68, 0
3, 61260, Note_on_c, 1, 65, 80
3, 61308, Note_on_c, 1, 65, 0
3, 61320, Note_on_c, 1, 67, 80
3, 61368, Note_on_c, 1, 67, 0
3, 61380, Note_on_c, 1, 63, 80
3, 61428, Note_on_c, 1, 63, 0
3, 61440, Note_on_c, 1, 62, 80
3, 61488, Note_on_c, 1, 62, 0
3, 61500, Note_on_c, 1, 60, 80
3, 61548, Note_on_c, 1, 60, 0
3, 61560, Note_on_c, 1, 62, 80
3, 61608, Note_on_c, 1, 62, 0
3, 61620, Note_on_c, 1, 63, 80
3, 61668, Note_on_c, 1, 63, 0
3, 61680, Note_on_c, 1, 65, 80
3, 61776, Note_on_c, 1, 65, 0
3, 61800, Note_on_c, 1, 74, 80
3, 61848, Note_on_c, 1, 74, 0
3, 61860, Note_on_c, 1, 75, 80
3, 61908, Note_on_c, 1, 75, 0
3, 61920, Note_on_c, 1, 77, 80
3, 61968, Note_on_c, 1, 77, 0
3, 61980, Note_on_c, 1, 75, 80
3, 62028, Note_on_c, 1, 75, 0
3, 62040, Note_on_c, 1, 74, 80
3, 62088, Note_on_c, 1, 74, 0
3, 62100, Note_on_c, 1, 72, 80
3, 62148, Note_on_c, 1, 72, 0
3, 62160, Note_on_c, 1, 70, 80
3, 62208, Note_on_c, 1, 70, 0
3, 62220, Note_on_c, 1, 68, 80
3, 62268, Note_on_c, 1, 68, 0
3, 62280, Note_on_c, 1, 67, 80
3, 62328, Note_on_c, 1, 67, 0
3, 62340, Note_on_c, 1, 65, 80
3, 62388, Note_on_c, 1, 65, 0
3, 62400, Note_on_c, 1, 63, 80
3, 62496, Note_on_c, 1, 63, 0
3, 62520, Note_on_c, 1, 63, 80
3, 62712, Note_on_c, 1, 63, 0
3, 62760, Note_on_c, 1, 62, 80
3, 62856, Note_on_c, 1, 62, 0
3, 62880, Note_on_c, 1, 63, 80
3, 62928, Note_on_c, 1, 63, 0
3, 62940, Note_on_c, 1, 70, 80
3, 62988, Note_on_c, 1, 70, 0
3, 63000, Note_on_c, 1, 72, 80
3, 63048, Note_on_c, 1, 72, 0
3, 63060, Note_on_c, 1, 68, 80
3, 63108, Note_on_c, 1, 68, 0
3, 63120, Note_on_c, 1, 70, 80
3, 63168, Note_on_c, 1, 70, 0
3, 63180, Note_on_c, 1, 75, 80
3, 63228, Note_on_c, 1, 75, 0
3, 63240, Note_on_c, 1, 68, 80
3, 63288, Note_on_c, 1, 68, 0
3, 63300, Note_on_c, 1, 65, 80
3, 63348, Note_on_c, 1, 65, 0
3, 63360, Note_on_c, 1, 67, 80
3, 63408, Note_on_c, 1, 67, 0
3, 63420, Note_on_c, 1, 65, 80
3, 63468, Note_on_c, 1, 65, 0
3, 63480, Note_on_c, 1, 67, 80
3, 63528, Note_on_c, 1, 67, 0
3, 63540, Note_on_c, 1, 68, 80
3, 63588, Note_on_c, 1, 68, 0
3, 63600, Note_on_c, 1, 70, 80
3, 63696, Note_on_c, 1, 70, 0
3, 63720, Note_on_c, 1, 68, 80
3, 63816, Note_on_c, 1, 68, 0
3, 63840, Note_on_c, 1, 67, 80
3, 63984, Note_on_c, 1, 67, 0
3, 64020, Note_on_c, 1, 67, 80
3, 64068, Note_on_c, 1, 67, 0
3, 64080, Note_on_c, 1, 65, 80
3, 64104, Note_on_c, 1, 65, 0
3, 64110, Note_on_c, 1, 67, 80
3, 64134, Note_on_c, 1, 67, 0
3, 64140, Note_on_c, 1, 65, 80
3, 64156, Note_on_c, 1, 65, 0
3, 64160, Note_on_c, 1, 67, 80
3, 64176, Note_on_c, 1, 67, 0
3, 64180, Note_on_c, 1, 65, 80
3, 64248, Note_on_c, 1, 65, 0
3, 64260, Note_on_c, 1, 63, 80
3, 64308, Note_on_c, 1, 63, 0
3, 64320, Note_on_c, 1, 63, 80
3, 64368, Note_on_c, 1, 63, 0
3, 64380, Note_on_c, 1, 70, 80
3, 64428, Note_on_c, 1, 70, 0
3, 64440, Note_on_c, 1, 72, 80
3, 64488, Note_on_c, 1, 72, 0
3, 64500, Note_on_c, 1, 68, 80
3, 64548, Note_on_c, 1, 68, 0
3, 64560, Note_on_c, 1, 70, 80
3, 64608, Note_on_c, 1, 70, 0
3, 64620, Note_on_c, 1, 75, 80
3, 64668, Note_on_c, 1, 75, 0
3, 64680, Note_on_c, 1, 68, 80
3, 64728, Note_on_c, 1, 68, 0
3, 64740, Note_on_c, 1, 65, 80
3, 64788, Note_on_c, 1, 65, 0
3, 64800, Note_on_c, 1, 67, 80
3, 64896, Note_on_c, 1, 67, 0
3, 64920, Note_on_c, 1, 63, 80
3, 65112, Note_on_c, 1, 63, 0
3, 65160, Note_on_c, 1, 62, 80
3, 65256, Note_on_c, 1, 62, 0
3, 65280, Note_on_c, 1, 63, 80
3, 65328, Note_on_c, 1, 63, 0
3, 65340, Note_on_c, 1, 82, 80
3, 65388, Note_on_c, 1, 82, 0
3, 65400, Note_on_c, 1, 80, 80
3, 65448, Note_on_c, 1, 80, 0
3, 65460, Note_on_c, 1, 79, 80
3, 65508, Note_on_c, 1, 79, 0
3, 65520, Note_on_c, 1, 77, 80
3, 65568, Note_on_c, 1, 77, 0
3, 65580, Note_on_c, 1, 75, 80
3, 65628, Note_on_c, 1, 75, 0
3, 65640, Note_on_c, 1, 74, 80
3, 65688, Note_on_c, 1, 74, 0
3, 65700, Note_on_c, 1, 72, 80
3, 65748, Note_on_c, 1, 72, 0
3, 65760, Note_on_c, 1, 70, 80
3, 65808, Note_on_c, 1, 70, 0
3, 65820, Note_on_c, 1, 79, 80
3, 65868, Note_on_c, 1, 79, 0
3, 65880, Note_on_c, 1, 77, 80
3, 65928, Note_on_c, 1, 77, 0
3, 65940, Note_on_c, 1, 75, 80
3, 65988, Note_on_c, 1, 75, 0
3, 66000, Note_on_c, 1, 74, 80
3, 66048, Note_on_c, 1, 74, 0
3, 66060, Note_on_c, 1, 72, 80
3, 66108, Note_on_c, 1, 72, 0
3, 66120, Note_on_c, 1, 70, 80
3, 66168, Note_on_c, 1, 70, 0
3, 66180, Note_on_c, 1, 68, 80
3, 66228, Note_on_c, 1, 68, 0
3, 66240, Note_on_c, 1, 67, 80
3, 66288, Note_on_c, 1, 67, 0
3, 66300, Note_on_c, 1, 75, 80
3, 66348, Note_on_c, 1, 75, 0
3, 66360, Note_on_c, 1, 74, 80
3, 66408, Note_on_c, 1, 74, 0
3, 66420, Note_on_c, 1, 72, 80
3, 66468, Note_on_c, 1, 72, 0
3, 66480, Note_on_c, 1, 70, 80
3, 66528, Note_on_c, 1, 70, 0
3, 66540, Note_on_c, 1, 68, 80
3, 66588, Note_on_c, 1, 68, 0
3, 66600, Note_on_c, 1, 67, 80
3, 66648, Note_on_c, 1, 67, 0
3, 66660, Note_on_c, 1, 65, 80
3, 66708, Note_on_c, 1, 65, 0
3, 66720, Note_on_c, 1, 63, 80
3, 66864, Note_on_c, 1, 63, 0
3, 66900, Note_on_c, 1, 63, 80
3, 66948, Note_on_c, 1, 63, 0
3, 66960, Note_on_c, 1, 62, 80
3, 66984, Note_on_c, 1, 62, 0
3, 66990, Note_on_c, 1, 63, 80
3, 67014, Note_on_c, 1, 63, 0
3, 67020, Note_on_c, 1, 62, 80
3, 67036, Note_on_c, 1, 62, 0
3, 67040, Note_on_c, 1, 63, 80
3, 67056, Note_on_c, 1, 63, 0
3, 67060, Note_on_c, 1, 62, 80
3, 67137, Note_on_c, 1, 62, 0
3, 67140, Note_on_c, 1, 63, 80
3, 67197, Note_on_c, 1, 63, 0
3, 67200, Note_on_c, 1, 63, 80
3, 67584, Note_on_c, 1, 63, 0
3, 67584, End_track
4, 0, Start_track
4, 0, MIDI_port, 0
4, 0, Title_t, "MIDI by Marty Weimer  3/3/97"
4, 0, Program_c, 2, 6
4, 0, Control_c, 2, 7, 90
4, 0, Control_c, 2, 10, 56
4, 0, Note_on_c, 2, 51, 80
4, 120, Note_on_c, 2, 51, 0
4, 120, Note_on_c, 2, 39, 80
4, 192, Note_on_c, 2, 39, 0
4, 240, Note_on_c, 2, 43, 80
4, 312, Note_on_c, 2, 43, 0
4, 360, Note_on_c, 2, 46, 80
4, 432, Note_on_c, 2, 46, 0
4, 480, Note_on_c, 2, 51, 80
4, 576, Note_on_c, 2, 51, 0
4, 600, Note_on_c, 2, 39, 80
4, 696, Note_on_c, 2, 39, 0
4, 720, Note_on_c, 2, 43, 80
4, 816, Note_on_c, 2, 43, 0
4, 840, Note_on_c, 2, 46, 80
4, 936, Note_on_c, 2, 46, 0
4, 960, Note_on_c, 2, 51, 80
4, 1080, Note_on_c, 2, 51, 0
4, 1080, Note_on_c, 2, 51, 80
4, 1152, Note_on_c, 2, 51, 0
4, 1200, Note_on_c, 2, 51, 80
4, 1272, Note_on_c, 2, 51, 0
4, 1320, Note_on_c, 2, 51, 80
4, 1416, Note_on_c, 2, 51, 0
4, 1440, Note_on_c, 2, 51, 80
4, 1548, Note_on_c, 2, 51, 0
4, 1560, Note_on_c, 2, 39, 80
4, 1668, Note_on_c, 2, 39, 0
4, 1680, Note_on_c, 2, 39, 80
4, 1788, Note_on_c, 2, 39, 0
4, 1800, Note_on_c, 2, 39, 80
4, 1908, Note_on_c, 2, 39, 0
4, 1920, Note_on_c, 2, 46, 80
4, 2016, Note_on_c, 2, 46, 0
4, 2040, Note_on_c, 2, 46, 80
4, 2112, Note_on_c, 2, 46, 0
4, 2160, Note_on_c, 2, 46, 80
4, 2232, Note_on_c, 2, 46, 0
4, 2280, Note_on_c, 2, 46, 80
4, 2376, Note_on_c, 2, 46, 0
4, 2400, Note_on_c, 2, 51, 80
4, 2496, Note_on_c, 2, 51, 0
4, 2520, Note_on_c, 2, 39, 80
4, 2616, Note_on_c, 2, 39, 0
4, 2760, Note_on_c, 2, 51, 80
4, 2856, Note_on_c, 2, 51, 0
4, 2880, Note_on_c, 2, 44, 80
4, 2976, Note_on_c, 2, 44, 0
4, 3000, Note_on_c, 2, 56, 80
4, 3096, Note_on_c, 2, 56, 0
4, 3120, Note_on_c, 2, 55, 80
4, 3216, Note_on_c, 2, 55, 0
4, 3240, Note_on_c, 2, 43, 80
4, 3336, Note_on_c, 2, 43, 0
4, 3360, Note_on_c, 2, 41, 80
4, 3456, Note_on_c, 2, 41, 0
4, 3480, Note_on_c, 2, 53, 80
4, 3576, Note_on_c, 2, 53, 0
4, 3600, Note_on_c, 2, 51, 80
4, 3696, Note_on_c, 2, 51, 0
4, 3720, Note_on_c, 2, 39, 80
4, 3816, Note_on_c, 2, 39, 0
4, 3840, Note_on_c, 2, 44, 80
4, 3936, Note_on_c, 2, 44, 0
4, 3960, Note_on_c, 2, 44, 80
4, 4032, Note_on_c, 2, 44, 0
4, 4080, Note_on_c, 2, 44, 80
4, 4152, Note_on_c, 2, 44, 0
4, 4200, Note_on_c, 2, 44, 80
4, 4296, Note_on_c, 2, 44, 0
4, 4320, Note_on_c, 2, 46, 80
4, 4440, Note_on_c, 2, 46, 0
4, 4440, Note_on_c, 2, 58, 80
4, 4536, Note_on_c, 2, 58, 0
4, 4560, Note_on_c, 2, 58, 80
4, 4656, Note_on_c, 2, 58, 0
4, 4680, Note_on_c, 2, 46, 80
4, 4776, Note_on_c, 2, 46, 0
4, 4800, Note_on_c, 2, 46, 80
4, 4896, Note_on_c, 2, 46, 0
4, 4920, Note_on_c, 2, 58, 80
4, 5016, Note_on_c, 2, 58, 0
4, 5040, Note_on_c, 2, 58, 80
4, 5136, Note_on_c, 2, 58, 0
4, 5160, Note_on_c, 2, 46, 80
4, 5256, Note_on_c, 2, 46, 0
4, 5280, Note_on_c, 2, 46, 80
4, 5472, Note_on_c, 2, 46, 0
4, 5880, Note_on_c, 2, 46, 80
4, 5976, Note_on_c, 2, 46, 0
4, 6000, Note_on_c, 2, 48, 80
4, 6096, Note_on_c, 2, 48, 0
4, 6120, Note_on_c, 2, 50, 80
4, 6216, Note_on_c, 2, 50, 0
4, 6240, Note_on_c, 2, 51, 80
4, 6336, Note_on_c, 2, 51, 0
4, 6360, Note_on_c, 2, 56, 80
4, 6456, Note_on_c, 2, 56, 0
4, 6480, Note_on_c, 2, 58, 80
4, 6576, Note_on_c, 2, 58, 0
4, 6600, Note_on_c, 2, 46, 80
4, 6696, Note_on_c, 2, 46, 0
4, 6720, Note_on_c, 2, 51, 80
4, 6912, Note_on_c, 2, 51, 0
4, 7680, Note_on_c, 2, 51, 80
4, 7872, Note_on_c, 2, 51, 0
4, 7920, Note_on_c, 2, 53, 80
4, 8112, Note_on_c, 2, 53, 0
4, 8160, Note_on_c, 2, 58, 80
4, 8268, Note_on_c, 2, 58, 0
4, 8280, Note_on_c, 2, 60, 80
4, 8352, Note_on_c, 2, 60, 0
4, 8400, Note_on_c, 2, 60, 80
4, 8472, Note_on_c, 2, 60, 0
4, 8520, Note_on_c, 2, 56, 80
4, 8628, Note_on_c, 2, 56, 0
4, 8640, Note_on_c, 2, 55, 80
4, 8760, Note_on_c, 2, 55, 0
4, 8760, Note_on_c, 2, 51, 80
4, 8832, Note_on_c, 2, 51, 0
4, 8880, Note_on_c, 2, 53, 80
4, 8952, Note_on_c, 2, 53, 0
4, 9000, Note_on_c, 2, 58, 80
4, 9096, Note_on_c, 2, 58, 0
4, 9120, Note_on_c, 2, 51, 80
4, 9216, Note_on_c, 2, 51, 0
4, 9240, Note_on_c, 2, 53, 80
4, 9336, Note_on_c, 2, 53, 0
4, 9360, Note_on_c, 2, 55, 80
4, 9456, Note_on_c, 2, 55, 0
4, 9480, Note_on_c, 2, 56, 80
4, 9576, Note_on_c, 2, 56, 0
4, 9600, Note_on_c, 2, 55, 80
4, 9696, Note_on_c, 2, 55, 0
4, 9720, Note_on_c, 2, 51, 80
4, 9792, Note_on_c, 2, 51, 0
4, 9840, Note_on_c, 2, 53, 80
4, 9912, Note_on_c, 2, 53, 0
4, 9960, Note_on_c, 2, 46, 80
4, 10056, Note_on_c, 2, 46, 0
4, 10080, Note_on_c, 2, 51, 80
4, 10176, Note_on_c, 2, 51, 0
4, 10200, Note_on_c, 2, 39, 80
4, 10272, Note_on_c, 2, 39, 0
4, 10320, Note_on_c, 2, 43, 80
4, 10392, Note_on_c, 2, 43, 0
4, 10440, Note_on_c, 2, 46, 80
4, 10512, Note_on_c, 2, 46, 0
4, 10560, Note_on_c, 2, 51, 80
4, 10680, Note_on_c, 2, 51, 0
4, 10680, Note_on_c, 2, 39, 80
4, 10752, Note_on_c, 2, 39, 0
4, 10800, Note_on_c, 2, 43, 80
4, 10872, Note_on_c, 2, 43, 0
4, 10920, Note_on_c, 2, 46, 80
4, 11016, Note_on_c, 2, 46, 0
4, 11040, Note_on_c, 2, 51, 80
4, 11136, Note_on_c, 2, 51, 0
4, 11160, Note_on_c, 2, 51, 80
4, 11232, Note_on_c, 2, 51, 0
4, 11280, Note_on_c, 2, 51, 80
4, 11352, Note_on_c, 2, 51, 0
4, 11400, Note_on_c, 2, 51, 80
4, 11520, Note_on_c, 2, 51, 0
4, 11520, Note_on_c, 2, 50, 80
4, 11640, Note_on_c, 2, 50, 0
4, 11640, Note_on_c, 2, 50, 80
4, 11712, Note_on_c, 2, 50, 0
4, 11760, Note_on_c, 2, 50, 80
4, 11832, Note_on_c, 2, 50, 0
4, 11880, Note_on_c, 2, 50, 80
4, 11976, Note_on_c, 2, 50, 0
4, 12000, Note_on_c, 2, 48, 80
4, 12096, Note_on_c, 2, 48, 0
4, 12120, Note_on_c, 2, 46, 80
4, 12192, Note_on_c, 2, 46, 0
4, 12240, Note_on_c, 2, 45, 80
4, 12312, Note_on_c, 2, 45, 0
4, 12360, Note_on_c, 2, 41, 80
4, 12480, Note_on_c, 2, 41, 0
4, 12480, Note_on_c, 2, 46, 80
4, 12672, Note_on_c, 2, 46, 0
4, 12720, Note_on_c, 2, 50, 80
4, 12816, Note_on_c, 2, 50, 0
4, 12840, Note_on_c, 2, 53, 80
4, 12936, Note_on_c, 2, 53, 0
4, 12960, Note_on_c, 2, 58, 80
4, 13080, Note_on_c, 2, 58, 0
4, 13080, Note_on_c, 2, 46, 80
4, 13152, Note_on_c, 2, 46, 0
4, 13200, Note_on_c, 2, 50, 80
4, 13272, Note_on_c, 2, 50, 0
4, 13320, Note_on_c, 2, 53, 80
4, 13416, Note_on_c, 2, 53, 0
4, 13440, Note_on_c, 2, 58, 80
4, 13536, Note_on_c, 2, 58, 0
4, 13560, Note_on_c, 2, 58, 80
4, 13632, Note_on_c, 2, 58, 0
4, 13680, Note_on_c, 2, 58, 80
4, 13752, Note_on_c, 2, 58, 0
4, 13800, Note_on_c, 2, 58, 80
4, 13896, Note_on_c, 2, 58, 0
4, 13920, Note_on_c, 2, 51, 80
4, 14028, Note_on_c, 2, 51, 0
4, 14040, Note_on_c, 2, 51, 80
4, 14148, Note_on_c, 2, 51, 0
4, 14160, Note_on_c, 2, 51, 80
4, 14268, Note_on_c, 2, 51, 0
4, 14280, Note_on_c, 2, 51, 80
4, 14388, Note_on_c, 2, 51, 0
4, 14400, Note_on_c, 2, 53, 80
4, 14496, Note_on_c, 2, 53, 0
4, 14520, Note_on_c, 2, 53, 80
4, 14592, Note_on_c, 2, 53, 0
4, 14640, Note_on_c, 2, 53, 80
4, 14712, Note_on_c, 2, 53, 0
4, 14760, Note_on_c, 2, 53, 80
4, 14856, Note_on_c, 2, 53, 0
4, 14880, Note_on_c, 2, 50, 80
4, 14976, Note_on_c, 2, 50, 0
4, 15000, Note_on_c, 2, 50, 80
4, 15096, Note_on_c, 2, 50, 0
4, 15120, Note_on_c, 2, 50, 80
4, 15216, Note_on_c, 2, 50, 0
4, 15240, Note_on_c, 2, 50, 80
4, 15336, Note_on_c, 2, 50, 0
4, 15360, Note_on_c, 2, 51, 80
4, 15456, Note_on_c, 2, 51, 0
4, 15480, Note_on_c, 2, 51, 80
4, 15552, Note_on_c, 2, 51, 0
4, 15600, Note_on_c, 2, 51, 80
4, 15672, Note_on_c, 2, 51, 0
4, 15720, Note_on_c, 2, 51, 80
4, 15816, Note_on_c, 2, 51, 0
4, 15840, Note_on_c, 2, 48, 80
4, 15936, Note_on_c, 2, 48, 0
4, 15960, Note_on_c, 2, 48, 80
4, 16056, Note_on_c, 2, 48, 0
4, 16080, Note_on_c, 2, 48, 80
4, 16176, Note_on_c, 2, 48, 0
4, 16200, Note_on_c, 2, 48, 80
4, 16296, Note_on_c, 2, 48, 0
4, 16320, Note_on_c, 2, 53, 80
4, 16512, Note_on_c, 2, 53, 0
4, 16680, Note_on_c, 2, 51, 80
4, 16752, Note_on_c, 2, 51, 0
4, 16800, Note_on_c, 2, 50, 80
4, 16992, Note_on_c, 2, 50, 0
4, 17160, Note_on_c, 2, 46, 80
4, 17232, Note_on_c, 2, 46, 0
4, 17280, Note_on_c, 2, 45, 80
4, 17472, Note_on_c, 2, 45, 0
4, 17640, Note_on_c, 2, 41, 80
4, 17736, Note_on_c, 2, 41, 0
4, 17760, Note_on_c, 2, 46, 80
4, 17952, Note_on_c, 2, 46, 0
4, 18120, Note_on_c, 2, 56, 80
4, 18216, Note_on_c, 2, 56, 0
4, 18240, Note_on_c, 2, 55, 80
4, 18432, Note_on_c, 2, 55, 0
4, 18600, Note_on_c, 2, 51, 80
4, 18696, Note_on_c, 2, 51, 0
4, 18720, Note_on_c, 2, 50, 80
4, 18912, Note_on_c, 2, 50, 0
4, 19080, Note_on_c, 2, 46, 80
4, 19176, Note_on_c, 2, 46, 0
4, 19200, Note_on_c, 2, 51, 80
4, 19296, Note_on_c, 2, 51, 0
4, 19320, Note_on_c, 2, 51, 80
4, 19416, Note_on_c, 2, 51, 0
4, 19440, Note_on_c, 2, 51, 80
4, 19536, Note_on_c, 2, 51, 0
4, 19560, Note_on_c, 2, 51, 80
4, 19656, Note_on_c, 2, 51, 0
4, 19680, Note_on_c, 2, 51, 80
4, 19776, Note_on_c, 2, 51, 0
4, 19800, Note_on_c, 2, 51, 80
4, 19896, Note_on_c, 2, 51, 0
4, 19920, Note_on_c, 2, 51, 80
4, 20016, Note_on_c, 2, 51, 0
4, 20040, Note_on_c, 2, 51, 80
4, 20136, Note_on_c, 2, 51, 0
4, 20160, Note_on_c, 2, 53, 80
4, 20220, Note_on_c, 2, 53, 0
4, 20280, Note_on_c, 2, 41, 80
4, 20376, Note_on_c, 2, 41, 0
4, 20400, Note_on_c, 2, 45, 80
4, 20496, Note_on_c, 2, 45, 0
4, 20520, Note_on_c, 2, 48, 80
4, 20616, Note_on_c, 2, 48, 0
4, 20640, Note_on_c, 2, 53, 80
4, 20736, Note_on_c, 2, 53, 0
4, 20760, Note_on_c, 2, 41, 80
4, 20856, Note_on_c, 2, 41, 0
4, 20880, Note_on_c, 2, 45, 80
4, 20976, Note_on_c, 2, 45, 0
4, 21000, Note_on_c, 2, 46, 80
4, 21096, Note_on_c, 2, 46, 0
4, 21120, Note_on_c, 2, 53, 80
4, 21216, Note_on_c, 2, 53, 0
4, 21240, Note_on_c, 2, 41, 80
4, 21336, Note_on_c, 2, 41, 0
4, 21720, Note_on_c, 2, 41, 80
4, 21816, Note_on_c, 2, 41, 0
4, 21840, Note_on_c, 2, 41, 80
4, 21936, Note_on_c, 2, 41, 0
4, 21960, Note_on_c, 2, 41, 80
4, 22056, Note_on_c, 2, 41, 0
4, 22080, Note_on_c, 2, 46, 80
4, 22176, Note_on_c, 2, 46, 0
4, 22200, Note_on_c, 2, 51, 80
4, 22296, Note_on_c, 2, 51, 0
4, 22320, Note_on_c, 2, 50, 80
4, 22416, Note_on_c, 2, 50, 0
4, 22440, Note_on_c, 2, 48, 80
4, 22536, Note_on_c, 2, 48, 0
4, 22560, Note_on_c, 2, 46, 80
4, 22656, Note_on_c, 2, 46, 0
4, 22680, Note_on_c, 2, 51, 80
4, 22776, Note_on_c, 2, 51, 0
4, 22800, Note_on_c, 2, 50, 80
4, 22896, Note_on_c, 2, 50, 0
4, 22920, Note_on_c, 2, 48, 80
4, 23016, Note_on_c, 2, 48, 0
4, 23040, Note_on_c, 2, 46, 80
4, 23232, Note_on_c, 2, 46, 0
4, 23400, Note_on_c, 2, 51, 80
4, 23496, Note_on_c, 2, 51, 0
4, 23520, Note_on_c, 2, 53, 80
4, 23616, Note_on_c, 2, 53, 0
4, 23640, Note_on_c, 2, 51, 80
4, 23736, Note_on_c, 2, 51, 0
4, 23760, Note_on_c, 2, 53, 80
4, 23856, Note_on_c, 2, 53, 0
4, 23880, Note_on_c, 2, 41, 80
4, 23976, Note_on_c, 2, 41, 0
4, 24000, Note_on_c, 2, 46, 80
4, 24192, Note_on_c, 2, 46, 0
4, 24240, Note_on_c, 2, 50, 80
4, 24300, Note_on_c, 2, 50, 0
4, 24360, Note_on_c, 2, 53, 80
4, 24420, Note_on_c, 2, 53, 0
4, 24480, Note_on_c, 2, 58, 80
4, 24600, Note_on_c, 2, 58, 0
4, 24600, Note_on_c, 2, 46, 80
4, 24696, Note_on_c, 2, 46, 0
4, 24720, Note_on_c, 2, 50, 80
4, 24816, Note_on_c, 2, 50, 0
4, 24840, Note_on_c, 2, 53, 80
4, 24936, Note_on_c, 2, 53, 0
4, 24960, Note_on_c, 2, 58, 80
4, 25056, Note_on_c, 2, 58, 0
4, 25080, Note_on_c, 2, 58, 80
4, 25176, Note_on_c, 2, 58, 0
4, 25200, Note_on_c, 2, 58, 80
4, 25296, Note_on_c, 2, 58, 0
4, 25320, Note_on_c, 2, 58, 80
4, 25416, Note_on_c, 2, 58, 0
4, 25440, Note_on_c, 2, 58, 80
4, 25536, Note_on_c, 2, 58, 0
4, 25560, Note_on_c, 2, 46, 80
4, 25656, Note_on_c, 2, 46, 0
4, 25680, Note_on_c, 2, 46, 80
4, 25776, Note_on_c, 2, 46, 0
4, 25800, Note_on_c, 2, 46, 80
4, 25896, Note_on_c, 2, 46, 0
4, 25920, Note_on_c, 2, 53, 80
4, 26016, Note_on_c, 2, 53, 0
4, 26040, Note_on_c, 2, 41, 80
4, 26136, Note_on_c, 2, 41, 0
4, 26160, Note_on_c, 2, 41, 80
4, 26256, Note_on_c, 2, 41, 0
4, 26280, Note_on_c, 2, 41, 80
4, 26376, Note_on_c, 2, 41, 0
4, 26400, Note_on_c, 2, 46, 80
4, 26496, Note_on_c, 2, 46, 0
4, 26520, Note_on_c, 2, 46, 80
4, 26616, Note_on_c, 2, 46, 0
4, 26640, Note_on_c, 2, 46, 80
4, 26736, Note_on_c, 2, 46, 0
4, 26760, Note_on_c, 2, 46, 80
4, 26856, Note_on_c, 2, 46, 0
4, 26880, Note_on_c, 2, 51, 80
4, 26976, Note_on_c, 2, 51, 0
4, 27000, Note_on_c, 2, 63, 80
4, 27096, Note_on_c, 2, 63, 0
4, 27120, Note_on_c, 2, 62, 80
4, 27216, Note_on_c, 2, 62, 0
4, 27240, Note_on_c, 2, 50, 80
4, 27336, Note_on_c, 2, 50, 0
4, 27360, Note_on_c, 2, 48, 80
4, 27456, Note_on_c, 2, 48, 0
4, 27480, Note_on_c, 2, 60, 80
4, 27576, Note_on_c, 2, 60, 0
4, 27600, Note_on_c, 2, 58, 80
4, 27696, Note_on_c, 2, 58, 0
4, 27720, Note_on_c, 2, 46, 80
4, 27816, Note_on_c, 2, 46, 0
4, 27840, Note_on_c, 2, 51, 80
4, 28032, Note_on_c, 2, 51, 0
4, 28080, Note_on_c, 2, 48, 80
4, 28176, Note_on_c, 2, 48, 0
4, 28200, Note_on_c, 2, 51, 80
4, 28296, Note_on_c, 2, 51, 0
4, 28320, Note_on_c, 2, 53, 80
4, 28512, Note_on_c, 2, 53, 0
4, 28560, Note_on_c, 2, 41, 80
4, 28656, Note_on_c, 2, 41, 0
4, 28680, Note_on_c, 2, 45, 80
4, 28776, Note_on_c, 2, 45, 0
4, 28800, Note_on_c, 2, 46, 80
4, 28896, Note_on_c, 2, 46, 0
4, 28920, Note_on_c, 2, 48, 80
4, 29016, Note_on_c, 2, 48, 0
4, 29040, Note_on_c, 2, 50, 80
4, 29136, Note_on_c, 2, 50, 0
4, 29160, Note_on_c, 2, 51, 80
4, 29256, Note_on_c, 2, 51, 0
4, 29280, Note_on_c, 2, 53, 80
4, 29472, Note_on_c, 2, 53, 0
4, 29520, Note_on_c, 2, 41, 80
4, 29712, Note_on_c, 2, 41, 0
4, 29760, Note_on_c, 2, 46, 80
4, 29952, Note_on_c, 2, 46, 0
4, 30000, Note_on_c, 2, 51, 80
4, 30192, Note_on_c, 2, 51, 0
4, 30240, Note_on_c, 2, 53, 80
4, 30336, Note_on_c, 2, 53, 0
4, 30360, Note_on_c, 2, 55, 80
4, 30432, Note_on_c, 2, 55, 0
4, 30480, Note_on_c, 2, 55, 80
4, 30552, Note_on_c, 2, 55, 0
4, 30600, Note_on_c, 2, 51, 80
4, 30720, Note_on_c, 2, 51, 0
4, 30720, Note_on_c, 2, 50, 80
4, 30816, Note_on_c, 2, 50, 0
4, 30840, Note_on_c, 2, 46, 80
4, 30912, Note_on_c, 2, 46, 0
4, 30960, Note_on_c, 2, 48, 80
4, 31032, Note_on_c, 2, 48, 0
4, 31080, Note_on_c, 2, 41, 80
4, 31176, Note_on_c, 2, 41, 0
4, 31200, Note_on_c, 2, 46, 80
4, 31296, Note_on_c, 2, 46, 0
4, 31320, Note_on_c, 2, 48, 80
4, 31392, Note_on_c, 2, 48, 0
4, 31440, Note_on_c, 2, 50, 80
4, 31512, Note_on_c, 2, 50, 0
4, 31560, Note_on_c, 2, 51, 80
4, 31680, Note_on_c, 2, 51, 0
4, 31680, Note_on_c, 2, 50, 80
4, 31776, Note_on_c, 2, 50, 0
4, 31800, Note_on_c, 2, 46, 80
4, 31872, Note_on_c, 2, 46, 0
4, 31920, Note_on_c, 2, 48, 80
4, 31992, Note_on_c, 2, 48, 0
4, 32040, Note_on_c, 2, 41, 80
4, 32136, Note_on_c, 2, 41, 0
4, 32160, Note_on_c, 2, 46, 80
4, 32352, Note_on_c, 2, 46, 0
4, 32400, Note_on_c, 2, 50, 80
4, 32496, Note_on_c, 2, 50, 0
4, 32520, Note_on_c, 2, 53, 80
4, 32616, Note_on_c, 2, 53, 0
4, 32640, Note_on_c, 2, 58, 80
4, 32736, Note_on_c, 2, 58, 0
4, 32760, Note_on_c, 2, 46, 80
4, 32856, Note_on_c, 2, 46, 0
4, 32880, Note_on_c, 2, 50, 80
4, 32976, Note_on_c, 2, 50, 0
4, 33000, Note_on_c, 2, 53, 80
4, 33096, Note_on_c, 2, 53, 0
4, 33120, Note_on_c, 2, 58, 80
4, 33216, Note_on_c, 2, 58, 0
4, 33240, Note_on_c, 2, 58, 80
4, 33336, Note_on_c, 2, 58, 0
4, 33360, Note_on_c, 2, 50, 80
4, 33456, Note_on_c, 2, 50, 0
4, 33480, Note_on_c, 2, 50, 80
4, 33576, Note_on_c, 2, 50, 0
4, 33600, Note_on_c, 2, 51, 80
4, 33792, Note_on_c, 2, 51, 0
4, 33840, Note_on_c, 2, 56, 80
4, 34032, Note_on_c, 2, 56, 0
4, 34080, Note_on_c, 2, 58, 80
4, 34176, Note_on_c, 2, 58, 0
4, 34200, Note_on_c, 2, 60, 80
4, 34272, Note_on_c, 2, 60, 0
4, 34320, Note_on_c, 2, 60, 80
4, 34392, Note_on_c, 2, 60, 0
4, 34440, Note_on_c, 2, 56, 80
4, 34560, Note_on_c, 2, 56, 0
4, 34560, Note_on_c, 2, 55, 80
4, 34656, Note_on_c, 2, 55, 0
4, 34680, Note_on_c, 2, 51, 80
4, 34776, Note_on_c, 2, 51, 0
4, 34800, Note_on_c, 2, 53, 80
4, 34896, Note_on_c, 2, 53, 0
4, 34920, Note_on_c, 2, 58, 80
4, 35016, Note_on_c, 2, 58, 0
4, 35040, Note_on_c, 2, 51, 80
4, 35136, Note_on_c, 2, 51, 0
4, 35160, Note_on_c, 2, 53, 80
4, 35232, Note_on_c, 2, 53, 0
4, 35280, Note_on_c, 2, 55, 80
4, 35352, Note_on_c, 2, 55, 0
4, 35400, Note_on_c, 2, 56, 80
4, 35496, Note_on_c, 2, 56, 0
4, 35520, Note_on_c, 2, 55, 80
4, 35616, Note_on_c, 2, 55, 0
4, 35640, Note_on_c, 2, 51, 80
4, 35736, Note_on_c, 2, 51, 0
4, 35760, Note_on_c, 2, 53, 80
4, 35856, Note_on_c, 2, 53, 0
4, 35880, Note_on_c, 2, 46, 80
4, 35976, Note_on_c, 2, 46, 0
4, 36000, Note_on_c, 2, 51, 80
4, 36096, Note_on_c, 2, 51, 0
4, 36120, Note_on_c, 2, 39, 80
4, 36216, Note_on_c, 2, 39, 0
4, 36240, Note_on_c, 2, 43, 80
4, 36336, Note_on_c, 2, 43, 0
4, 36360, Note_on_c, 2, 46, 80
4, 36456, Note_on_c, 2, 46, 0
4, 36480, Note_on_c, 2, 51, 80
4, 36576, Note_on_c, 2, 51, 0
4, 36600, Note_on_c, 2, 39, 80
4, 36696, Note_on_c, 2, 39, 0
4, 36720, Note_on_c, 2, 43, 80
4, 36816, Note_on_c, 2, 43, 0
4, 36840, Note_on_c, 2, 46, 80
4, 36936, Note_on_c, 2, 46, 0
4, 36960, Note_on_c, 2, 51, 80
4, 37056, Note_on_c, 2, 51, 0
4, 37080, Note_on_c, 2, 39, 80
4, 37176, Note_on_c, 2, 39, 0
4, 37500, Note_on_c, 2, 51, 80
4, 37548, Note_on_c, 2, 51, 0
4, 37560, Note_on_c, 2, 55, 80
4, 37608, Note_on_c, 2, 55, 0
4, 37620, Note_on_c, 2, 58, 80
4, 37668, Note_on_c, 2, 58, 0
4, 37680, Note_on_c, 2, 63, 80
4, 37728, Note_on_c, 2, 63, 0
4, 37740, Note_on_c, 2, 58, 80
4, 37788, Note_on_c, 2, 58, 0
4, 37800, Note_on_c, 2, 55, 80
4, 37848, Note_on_c, 2, 55, 0
4, 37860, Note_on_c, 2, 51, 80
4, 37908, Note_on_c, 2, 51, 0
4, 37920, Note_on_c, 2, 56, 80
4, 38016, Note_on_c, 2, 56, 0
4, 38040, Note_on_c, 2, 44, 80
4, 38136, Note_on_c, 2, 44, 0
4, 38160, Note_on_c, 2, 44, 80
4, 38256, Note_on_c, 2, 44, 0
4, 38280, Note_on_c, 2, 44, 80
4, 38376, Note_on_c, 2, 44, 0
4, 38400, Note_on_c, 2, 51, 80
4, 38496, Note_on_c, 2, 51, 0
4, 38520, Note_on_c, 2, 39, 80
4, 38616, Note_on_c, 2, 39, 0
4, 38640, Note_on_c, 2, 39, 80
4, 38736, Note_on_c, 2, 39, 0
4, 38760, Note_on_c, 2, 39, 80
4, 38856, Note_on_c, 2, 39, 0
4, 38880, Note_on_c, 2, 44, 80
4, 38976, Note_on_c, 2, 44, 0
4, 39000, Note_on_c, 2, 44, 80
4, 39096, Note_on_c, 2, 44, 0
4, 39120, Note_on_c, 2, 46, 80
4, 39216, Note_on_c, 2, 46, 0
4, 39240, Note_on_c, 2, 46, 80
4, 39336, Note_on_c, 2, 46, 0
4, 39360, Note_on_c, 2, 48, 80
4, 39552, Note_on_c, 2, 48, 0
4, 39900, Note_on_c, 2, 48, 80
4, 39948, Note_on_c, 2, 48, 0
4, 39960, Note_on_c, 2, 52, 80
4, 40008, Note_on_c, 2, 52, 0
4, 40020, Note_on_c, 2, 55, 80
4, 40068, Note_on_c, 2, 55, 0
4, 40080, Note_on_c, 2, 60, 80
4, 40128, Note_on_c, 2, 60, 0
4, 40140, Note_on_c, 2, 55, 80
4, 40188, Note_on_c, 2, 55, 0
4, 40200, Note_on_c, 2, 52, 80
4, 40248, Note_on_c, 2, 52, 0
4, 40260, Note_on_c, 2, 48, 80
4, 40308, Note_on_c, 2, 48, 0
4, 40320, Note_on_c, 2, 53, 80
4, 40416, Note_on_c, 2, 53, 0
4, 40440, Note_on_c, 2, 41, 80
4, 40536, Note_on_c, 2, 41, 0
4, 40560, Note_on_c, 2, 41, 80
4, 40656, Note_on_c, 2, 41, 0
4, 40680, Note_on_c, 2, 41, 80
4, 40776, Note_on_c, 2, 41, 0
4, 40800, Note_on_c, 2, 48, 80
4, 40896, Note_on_c, 2, 48, 0
4, 40920, Note_on_c, 2, 48, 80
4, 41016, Note_on_c, 2, 48, 0
4, 41040, Note_on_c, 2, 48, 80
4, 41136, Note_on_c, 2, 48, 0
4, 41160, Note_on_c, 2, 48, 80
4, 41256, Note_on_c, 2, 48, 0
4, 41280, Note_on_c, 2, 53, 80
4, 41376, Note_on_c, 2, 53, 0
4, 41400, Note_on_c, 2, 41, 80
4, 41496, Note_on_c, 2, 41, 0
4, 41640, Note_on_c, 2, 53, 80
4, 41736, Note_on_c, 2, 53, 0
4, 41760, Note_on_c, 2, 46, 80
4, 41856, Note_on_c, 2, 46, 0
4, 41880, Note_on_c, 2, 46, 80
4, 41976, Note_on_c, 2, 46, 0
4, 42000, Note_on_c, 2, 46, 80
4, 42096, Note_on_c, 2, 46, 0
4, 42120, Note_on_c, 2, 46, 80
4, 42216, Note_on_c, 2, 46, 0
4, 42240, Note_on_c, 2, 51, 80
4, 42336, Note_on_c, 2, 51, 0
4, 42360, Note_on_c, 2, 39, 80
4, 42456, Note_on_c, 2, 39, 0
4, 42600, Note_on_c, 2, 51, 80
4, 42696, Note_on_c, 2, 51, 0
4, 42720, Note_on_c, 2, 44, 80
4, 42816, Note_on_c, 2, 44, 0
4, 42840, Note_on_c, 2, 44, 80
4, 42936, Note_on_c, 2, 44, 0
4, 42960, Note_on_c, 2, 44, 80
4, 43056, Note_on_c, 2, 44, 0
4, 43080, Note_on_c, 2, 44, 80
4, 43176, Note_on_c, 2, 44, 0
4, 43200, Note_on_c, 2, 50, 80
4, 43296, Note_on_c, 2, 50, 0
4, 43320, Note_on_c, 2, 38, 80
4, 43416, Note_on_c, 2, 38, 0
4, 43560, Note_on_c, 2, 50, 80
4, 43656, Note_on_c, 2, 50, 0
4, 43680, Note_on_c, 2, 43, 80
4, 43776, Note_on_c, 2, 43, 0
4, 43800, Note_on_c, 2, 43, 80
4, 43896, Note_on_c, 2, 43, 0
4, 43920, Note_on_c, 2, 43, 80
4, 44016, Note_on_c, 2, 43, 0
4, 44040, Note_on_c, 2, 43, 80
4, 44136, Note_on_c, 2, 43, 0
4, 44160, Note_on_c, 2, 48, 80
4, 44256, Note_on_c, 2, 48, 0
4, 44280, Note_on_c, 2, 53, 80
4, 44376, Note_on_c, 2, 53, 0
4, 44400, Note_on_c, 2, 51, 80
4, 44496, Note_on_c, 2, 51, 0
4, 44520, Note_on_c, 2, 50, 80
4, 44616, Note_on_c, 2, 50, 0
4, 44640, Note_on_c, 2, 48, 80
4, 44736, Note_on_c, 2, 48, 0
4, 44760, Note_on_c, 2, 53, 80
4, 44856, Note_on_c, 2, 53, 0
4, 44880, Note_on_c, 2, 51, 80
4, 44976, Note_on_c, 2, 51, 0
4, 45000, Note_on_c, 2, 50, 80
4, 45096, Note_on_c, 2, 50, 0
4, 45120, Note_on_c, 2, 48, 80
4, 45312, Note_on_c, 2, 48, 0
4, 45480, Note_on_c, 2, 53, 80
4, 45576, Note_on_c, 2, 53, 0
4, 45600, Note_on_c, 2, 55, 80
4, 45696, Note_on_c, 2, 55, 0
4, 45720, Note_on_c, 2, 53, 80
4, 45816, Note_on_c, 2, 53, 0
4, 45840, Note_on_c, 2, 55, 80
4, 45936, Note_on_c, 2, 55, 0
4, 45960, Note_on_c, 2, 43, 80
4, 46056, Note_on_c, 2, 43, 0
4, 46080, Note_on_c, 2, 48, 80
4, 46176, Note_on_c, 2, 48, 0
4, 46200, Note_on_c, 2, 51, 80
4, 46248, Note_on_c, 2, 51, 0
4, 46260, Note_on_c, 2, 50, 80
4, 46308, Note_on_c, 2, 50, 0
4, 46320, Note_on_c, 2, 51, 80
4, 46368, Note_on_c, 2, 51, 0
4, 46380, Note_on_c, 2, 48, 80
4, 46428, Note_on_c, 2, 48, 0
4, 46440, Note_on_c, 2, 50, 80
4, 46488, Note_on_c, 2, 50, 0
4, 46500, Note_on_c, 2, 52, 80
4, 46548, Note_on_c, 2, 52, 0
4, 46560, Note_on_c, 2, 53, 80
4, 46656, Note_on_c, 2, 53, 0
4, 46680, Note_on_c, 2, 53, 80
4, 46776, Note_on_c, 2, 53, 0
4, 46800, Note_on_c, 2, 55, 80
4, 46896, Note_on_c, 2, 55, 0
4, 46920, Note_on_c, 2, 57, 80
4, 47016, Note_on_c, 2, 57, 0
4, 47040, Note_on_c, 2, 58, 80
4, 47136, Note_on_c, 2, 58, 0
4, 47160, Note_on_c, 2, 50, 80
4, 47208, Note_on_c, 2, 50, 0
4, 47220, Note_on_c, 2, 48, 80
4, 47268, Note_on_c, 2, 48, 0
4, 47280, Note_on_c, 2, 50, 80
4, 47328, Note_on_c, 2, 50, 0
4, 47340, Note_on_c, 2, 46, 80
4, 47388, Note_on_c, 2, 46, 0
4, 47400, Note_on_c, 2, 48, 80
4, 47448, Note_on_c, 2, 48, 0
4, 47460, Note_on_c, 2, 50, 80
4, 47508, Note_on_c, 2, 50, 0
4, 47520, Note_on_c, 2, 51, 80
4, 47616, Note_on_c, 2, 51, 0
4, 47640, Note_on_c, 2, 51, 80
4, 47736, Note_on_c, 2, 51, 0
4, 47760, Note_on_c, 2, 53, 80
4, 47856, Note_on_c, 2, 53, 0
4, 47880, Note_on_c, 2, 55, 80
4, 47976, Note_on_c, 2, 55, 0
4, 48000, Note_on_c, 2, 56, 80
4, 48096, Note_on_c, 2, 56, 0
4, 48120, Note_on_c, 2, 53, 80
4, 48216, Note_on_c, 2, 53, 0
4, 48360, Note_on_c, 2, 57, 80
4, 48456, Note_on_c, 2, 57, 0
4, 48480, Note_on_c, 2, 58, 80
4, 48576, Note_on_c, 2, 58, 0
4, 48600, Note_on_c, 2, 55, 80
4, 48696, Note_on_c, 2, 55, 0
4, 48840, Note_on_c, 2, 59, 80
4, 48936, Note_on_c, 2, 59, 0
4, 48960, Note_on_c, 2, 60, 80
4, 49056, Note_on_c, 2, 60, 0
4, 49080, Note_on_c, 2, 56, 80
4, 49128, Note_on_c, 2, 56, 0
4, 49140, Note_on_c, 2, 58, 80
4, 49188, Note_on_c, 2, 58, 0
4, 49200, Note_on_c, 2, 60, 80
4, 49296, Note_on_c, 2, 60, 0
4, 49320, Note_on_c, 2, 56, 80
4, 49416, Note_on_c, 2, 56, 0
4, 49440, Note_on_c, 2, 58, 80
4, 49536, Note_on_c, 2, 58, 0
4, 49560, Note_on_c, 2, 46, 80
4, 49656, Note_on_c, 2, 46, 0
4, 49680, Note_on_c, 2, 48, 80
4, 49776, Note_on_c, 2, 48, 0
4, 49800, Note_on_c, 2, 50, 80
4, 49896, Note_on_c, 2, 50, 0
4, 49920, Note_on_c, 2, 51, 80
4, 50016, Note_on_c, 2, 51, 0
4, 50040, Note_on_c, 2, 39, 80
4, 50136, Note_on_c, 2, 39, 0
4, 50160, Note_on_c, 2, 43, 80
4, 50256, Note_on_c, 2, 43, 0
4, 50280, Note_on_c, 2, 46, 80
4, 50376, Note_on_c, 2, 46, 0
4, 50400, Note_on_c, 2, 51, 80
4, 50496, Note_on_c, 2, 51, 0
4, 50520, Note_on_c, 2, 39, 80
4, 50616, Note_on_c, 2, 39, 0
4, 50640, Note_on_c, 2, 43, 80
4, 50736, Note_on_c, 2, 43, 0
4, 50760, Note_on_c, 2, 46, 80
4, 50856, Note_on_c, 2, 46, 0
4, 50880, Note_on_c, 2, 51, 80
4, 50976, Note_on_c, 2, 51, 0
4, 51000, Note_on_c, 2, 51, 80
4, 51096, Note_on_c, 2, 51, 0
4, 51120, Note_on_c, 2, 51, 80
4, 51216, Note_on_c, 2, 51, 0
4, 51240, Note_on_c, 2, 51, 80
4, 51336, Note_on_c, 2, 51, 0
4, 51360, Note_on_c, 2, 51, 80
4, 51456, Note_on_c, 2, 51, 0
4, 51480, Note_on_c, 2, 39, 80
4, 51576, Note_on_c, 2, 39, 0
4, 51600, Note_on_c, 2, 39, 80
4, 51696, Note_on_c, 2, 39, 0
4, 51720, Note_on_c, 2, 39, 80
4, 51816, Note_on_c, 2, 39, 0
4, 51840, Note_on_c, 2, 46, 80
4, 51936, Note_on_c, 2, 46, 0
4, 51960, Note_on_c, 2, 46, 80
4, 52056, Note_on_c, 2, 46, 0
4, 52080, Note_on_c, 2, 46, 80
4, 52176, Note_on_c, 2, 46, 0
4, 52200, Note_on_c, 2, 46, 80
4, 52296, Note_on_c, 2, 46, 0
4, 52320, Note_on_c, 2, 51, 80
4, 52416, Note_on_c, 2, 51, 0
4, 52440, Note_on_c, 2, 39, 80
4, 52536, Note_on_c, 2, 39, 0
4, 52680, Note_on_c, 2, 55, 80
4, 52776, Note_on_c, 2, 55, 0
4, 52800, Note_on_c, 2, 56, 80
4, 52896, Note_on_c, 2, 56, 0
4, 52920, Note_on_c, 2, 56, 80
4, 53016, Note_on_c, 2, 56, 0
4, 53040, Note_on_c, 2, 56, 80
4, 53136, Note_on_c, 2, 56, 0
4, 53160, Note_on_c, 2, 56, 80
4, 53256, Note_on_c, 2, 56, 0
4, 53280, Note_on_c, 2, 53, 80
4, 53376, Note_on_c, 2, 53, 0
4, 53400, Note_on_c, 2, 53, 80
4, 53496, Note_on_c, 2, 53, 0
4, 53520, Note_on_c, 2, 53, 80
4, 53616, Note_on_c, 2, 53, 0
4, 53640, Note_on_c, 2, 53, 80
4, 53736, Note_on_c, 2, 53, 0
4, 53760, Note_on_c, 2, 55, 80
4, 53856, Note_on_c, 2, 55, 0
4, 53880, Note_on_c, 2, 55, 80
4, 53976, Note_on_c, 2, 55, 0
4, 54000, Note_on_c, 2, 55, 80
4, 54096, Note_on_c, 2, 55, 0
4, 54120, Note_on_c, 2, 55, 80
4, 54216, Note_on_c, 2, 55, 0
4, 54240, Note_on_c, 2, 51, 80
4, 54336, Note_on_c, 2, 51, 0
4, 54360, Note_on_c, 2, 51, 80
4, 54456, Note_on_c, 2, 51, 0
4, 54480, Note_on_c, 2, 51, 80
4, 54576, Note_on_c, 2, 51, 0
4, 54600, Note_on_c, 2, 51, 80
4, 54696, Note_on_c, 2, 51, 0
4, 54720, Note_on_c, 2, 53, 80
4, 54816, Note_on_c, 2, 53, 0
4, 54840, Note_on_c, 2, 53, 80
4, 54936, Note_on_c, 2, 53, 0
4, 54960, Note_on_c, 2, 53, 80
4, 55056, Note_on_c, 2, 53, 0
4, 55080, Note_on_c, 2, 53, 80
4, 55176, Note_on_c, 2, 53, 0
4, 55200, Note_on_c, 2, 50, 80
4, 55296, Note_on_c, 2, 50, 0
4, 55320, Note_on_c, 2, 50, 80
4, 55416, Note_on_c, 2, 50, 0
4, 55440, Note_on_c, 2, 50, 80
4, 55536, Note_on_c, 2, 50, 0
4, 55560, Note_on_c, 2, 50, 80
4, 55656, Note_on_c, 2, 50, 0
4, 55680, Note_on_c, 2, 51, 80
4, 55776, Note_on_c, 2, 51, 0
4, 55800, Note_on_c, 2, 39, 80
4, 55896, Note_on_c, 2, 39, 0
4, 55920, Note_on_c, 2, 39, 80
4, 56016, Note_on_c, 2, 39, 0
4, 56040, Note_on_c, 2, 39, 80
4, 56136, Note_on_c, 2, 39, 0
4, 56160, Note_on_c, 2, 44, 80
4, 56256, Note_on_c, 2, 44, 0
4, 56280, Note_on_c, 2, 56, 80
4, 56376, Note_on_c, 2, 56, 0
4, 56400, Note_on_c, 2, 56, 80
4, 56496, Note_on_c, 2, 56, 0
4, 56520, Note_on_c, 2, 56, 80
4, 56616, Note_on_c, 2, 56, 0
4, 56640, Note_on_c, 2, 58, 80
4, 56832, Note_on_c, 2, 58, 0
4, 57000, Note_on_c, 2, 56, 80
4, 57096, Note_on_c, 2, 56, 0
4, 57120, Note_on_c, 2, 55, 80
4, 57312, Note_on_c, 2, 55, 0
4, 57480, Note_on_c, 2, 51, 80
4, 57576, Note_on_c, 2, 51, 0
4, 57600, Note_on_c, 2, 50, 80
4, 57792, Note_on_c, 2, 50, 0
4, 57960, Note_on_c, 2, 46, 80
4, 58056, Note_on_c, 2, 46, 0
4, 58080, Note_on_c, 2, 51, 80
4, 58272, Note_on_c, 2, 51, 0
4, 58440, Note_on_c, 2, 49, 80
4, 58536, Note_on_c, 2, 49, 0
4, 58560, Note_on_c, 2, 48, 80
4, 58752, Note_on_c, 2, 48, 0
4, 58920, Note_on_c, 2, 44, 80
4, 59016, Note_on_c, 2, 44, 0
4, 59040, Note_on_c, 2, 43, 80
4, 59232, Note_on_c, 2, 43, 0
4, 59400, Note_on_c, 2, 39, 80
4, 59496, Note_on_c, 2, 39, 0
4, 59520, Note_on_c, 2, 44, 80
4, 59616, Note_on_c, 2, 44, 0
4, 59640, Note_on_c, 2, 44, 80
4, 59736, Note_on_c, 2, 44, 0
4, 59760, Note_on_c, 2, 44, 80
4, 59856, Note_on_c, 2, 44, 0
4, 59880, Note_on_c, 2, 44, 80
4, 59976, Note_on_c, 2, 44, 0
4, 60000, Note_on_c, 2, 44, 80
4, 60096, Note_on_c, 2, 44, 0
4, 60120, Note_on_c, 2, 44, 80
4, 60216, Note_on_c, 2, 44, 0
4, 60240, Note_on_c, 2, 44, 80
4, 60336, Note_on_c, 2, 44, 0
4, 60360, Note_on_c, 2, 44, 80
4, 60456, Note_on_c, 2, 44, 0
4, 60480, Note_on_c, 2, 46, 80
4, 60672, Note_on_c, 2, 46, 0
4, 60720, Note_on_c, 2, 50, 80
4, 60816, Note_on_c, 2, 50, 0
4, 60840, Note_on_c, 2, 51, 80
4, 60936, Note_on_c, 2, 51, 0
4, 60960, Note_on_c, 2, 46, 80
4, 61152, Note_on_c, 2, 46, 0
4, 61200, Note_on_c, 2, 50, 80
4, 61296, Note_on_c, 2, 50, 0
4, 61320, Note_on_c, 2, 51, 80
4, 61416, Note_on_c, 2, 51, 0
4, 61440, Note_on_c, 2, 46, 80
4, 61632, Note_on_c, 2, 46, 0
4, 62040, Note_on_c, 2, 58, 80
4, 62136, Note_on_c, 2, 58, 0
4, 62160, Note_on_c, 2, 46, 80
4, 62256, Note_on_c, 2, 46, 0
4, 62280, Note_on_c, 2, 58, 80
4, 62376, Note_on_c, 2, 58, 0
4, 62400, Note_on_c, 2, 51, 80
4, 62496, Note_on_c, 2, 51, 0
4, 62520, Note_on_c, 2, 56, 80
4, 62616, Note_on_c, 2, 56, 0
4, 62640, Note_on_c, 2, 55, 80
4, 62736, Note_on_c, 2, 55, 0
4, 62760, Note_on_c, 2, 53, 80
4, 62856, Note_on_c, 2, 53, 0
4, 62880, Note_on_c, 2, 51, 80
4, 62976, Note_on_c, 2, 51, 0
4, 63000, Note_on_c, 2, 56, 80
4, 63096, Note_on_c, 2, 56, 0
4, 63120, Note_on_c, 2, 55, 80
4, 63216, Note_on_c, 2, 55, 0
4, 63240, Note_on_c, 2, 53, 80
4, 63336, Note_on_c, 2, 53, 0
4, 63360, Note_on_c, 2, 51, 80
4, 63552, Note_on_c, 2, 51, 0
4, 63720, Note_on_c, 2, 56, 80
4, 63816, Note_on_c, 2, 56, 0
4, 63840, Note_on_c, 2, 58, 80
4, 63936, Note_on_c, 2, 58, 0
4, 63960, Note_on_c, 2, 56, 80
4, 64056, Note_on_c, 2, 56, 0
4, 64080, Note_on_c, 2, 58, 80
4, 64176, Note_on_c, 2, 58, 0
4, 64200, Note_on_c, 2, 46, 80
4, 64296, Note_on_c, 2, 46, 0
4, 64320, Note_on_c, 2, 51, 80
4, 64416, Note_on_c, 2, 51, 0
4, 64440, Note_on_c, 2, 56, 80
4, 64536, Note_on_c, 2, 56, 0
4, 64560, Note_on_c, 2, 55, 80
4, 64656, Note_on_c, 2, 55, 0
4, 64680, Note_on_c, 2, 53, 80
4, 64776, Note_on_c, 2, 53, 0
4, 64800, Note_on_c, 2, 51, 80
4, 64896, Note_on_c, 2, 51, 0
4, 64920, Note_on_c, 2, 56, 80
4, 65016, Note_on_c, 2, 56, 0
4, 65040, Note_on_c, 2, 55, 80
4, 65136, Note_on_c, 2, 55, 0
4, 65160, Note_on_c, 2, 53, 80
4, 65256, Note_on_c, 2, 53, 0
4, 65280, Note_on_c, 2, 51, 80
4, 65472, Note_on_c, 2, 51, 0
4, 66240, Note_on_c, 2, 39, 80
4, 66336, Note_on_c, 2, 39, 0
4, 66360, Note_on_c, 2, 41, 80
4, 66456, Note_on_c, 2, 41, 0
4, 66480, Note_on_c, 2, 43, 80
4, 66576, Note_on_c, 2, 43, 0
4, 66600, Note_on_c, 2, 44, 80
4, 66696, Note_on_c, 2, 44, 0
4, 66720, Note_on_c, 2, 46, 80
4, 66912, Note_on_c, 2, 46, 0
4, 66960, Note_on_c, 2, 46, 80
4, 67152, Note_on_c, 2, 46, 0
4, 67200, Note_on_c, 2, 39, 80
4, 67584, Note_on_c, 2, 39, 0
4, 67584, End_track
5, 0, Start_track
5, 0, MIDI_port, 0
5, 0, Title_t, "weimermt@libby.org  Eureka, MT  USA"
5, 0, End_track
6, 0, Start_track
6, 0, MIDI_port, 0
6, 0, Title_t, "---------------------------"
6, 0, End_track
7, 0, Start_track
7, 0, MIDI_port, 0
7, 0, Title_t, "courtesy of Dave's J.S. Bach Page"
7, 0, End_track
8, 0, Start_track
8, 0, MIDI_port, 0
8, 0, Title_t, "http://www.unpronounceable.com/bach"
8, 0, End_track
9, 0, Start_track
9, 0, MIDI_port, 0
9, 0, Title_t, "---------------------------"
9, 0, End_track
10, 0, Start_track
10, 0, MIDI_port, 0
10, 0, Title_t, "Original Filename: bwv1031a.mid"
10, 0, End_track
0, 0, End_of_file
