0, 0, Header, 1, 14, 120
1, 0, Start_track
1, 0, Text_t, "\015\012\015\012Mass in B Minor          Johann Sebastion Bach\015\012No. 1   Kyrie eleison\015\012\015\012seq by David Siu  dss@po.cwru.edu\015\012\015\012\015\012"
1, 0, Time_signature, 4, 2, 24, 8
1, 0, Key_signature, 2, "major"
1, 0, Tempo, 625000
1, 480, Tempo, 1714286
1, 2040, Tempo, 2400000
1, 2176, Tempo, 3000000
1, 2400, Time_signature, 1, 2, 24, 8
1, 2520, Time_signature, 4, 2, 24, 8
1, 2520, Tempo, 1090909
1, 60120, Tempo, 1052631
1, 60480, Tempo, 1052631
1, 60484, Tempo, 1200000
1, 60600, Tempo, 1224490
1, 60604, Tempo, 1395348
1, 60767, Tempo, 2000000
1, 60805, Tempo, 2400000
1, 60849, Tempo, 3000000
1, 60852, Tempo, 1666666
1, 61560, End_track
2, 0, Start_track
2, 0, MIDI_port, 0
2, 0, Title_t, "Flute"
2, 0, Program_c, 5, 73
2, 480, Note_on_c, 5, 74, 64
2, 480, Note_on_c, 5, 71, 64
2, 660, Note_on_c, 5, 71, 0
2, 660, Note_on_c, 5, 74, 0
2, 660, Note_on_c, 5, 74, 64
2, 660, Note_on_c, 5, 71, 64
2, 720, Note_on_c, 5, 71, 0
2, 720, Note_on_c, 5, 74, 0
2, 720, Note_on_c, 5, 76, 64
2, 720, Note_on_c, 5, 71, 64
2, 780, Note_on_c, 5, 71, 0
2, 780, Note_on_c, 5, 70, 64
2, 840, Note_on_c, 5, 70, 0
2, 840, Note_on_c, 5, 76, 0
2, 960, Note_on_c, 5, 78, 64
2, 960, Note_on_c, 5, 69, 64
2, 1020, Note_on_c, 5, 69, 0
2, 1020, Note_on_c, 5, 72, 64
2, 1140, Note_on_c, 5, 72, 0
2, 1140, Note_on_c, 5, 78, 0
2, 1140, Note_on_c, 5, 78, 64
2, 1140, Note_on_c, 5, 71, 64
2, 1200, Note_on_c, 5, 71, 0
2, 1200, Note_on_c, 5, 78, 0
2, 1200, Note_on_c, 5, 78, 64
2, 1200, Note_on_c, 5, 67, 64
2, 1260, Note_on_c, 5, 78, 0
2, 1260, Note_on_c, 5, 76, 64
2, 1320, Note_on_c, 5, 76, 0
2, 1320, Note_on_c, 5, 67, 0
2, 1440, Note_on_c, 5, 79, 64
2, 1440, Note_on_c, 5, 73, 64
2, 1500, Note_on_c, 5, 79, 0
2, 1500, Note_on_c, 5, 78, 64
2, 1620, Note_on_c, 5, 78, 0
2, 1620, Note_on_c, 5, 73, 0
2, 1620, Note_on_c, 5, 76, 64
2, 1620, Note_on_c, 5, 73, 64
2, 1680, Note_on_c, 5, 73, 0
2, 1680, Note_on_c, 5, 76, 0
2, 1680, Note_on_c, 5, 74, 64
2, 1680, Note_on_c, 5, 71, 64
2, 1740, Note_on_c, 5, 74, 0
2, 1740, Note_on_c, 5, 76, 64
2, 1800, Note_on_c, 5, 76, 0
2, 1800, Note_on_c, 5, 71, 0
2, 1800, Note_on_c, 5, 78, 64
2, 1860, Note_on_c, 5, 73, 64
2, 1920, Note_on_c, 5, 73, 0
2, 1920, Note_on_c, 5, 71, 64
2, 1980, Note_on_c, 5, 71, 0
2, 1980, Note_on_c, 5, 78, 0
2, 1980, Note_on_c, 5, 76, 65
2, 1980, Note_on_c, 5, 70, 65
2, 2010, Note_on_c, 5, 76, 0
2, 2010, Note_on_c, 5, 74, 66
2, 2040, Note_on_c, 5, 74, 0
2, 2040, Note_on_c, 5, 70, 0
2, 2040, Note_on_c, 5, 76, 67
2, 2040, Note_on_c, 5, 71, 67
2, 2100, Note_on_c, 5, 71, 0
2, 2100, Note_on_c, 5, 73, 68
2, 2160, Note_on_c, 5, 73, 0
2, 2160, Note_on_c, 5, 76, 0
2, 2160, Note_on_c, 5, 78, 70
2, 2160, Note_on_c, 5, 70, 70
2, 2400, Note_on_c, 5, 70, 0
2, 2400, Note_on_c, 5, 78, 0
2, 2520, Note_on_c, 5, 71, 64
2, 2610, Note_on_c, 5, 71, 0
2, 2610, Note_on_c, 5, 71, 64
2, 2640, Note_on_c, 5, 71, 0
2, 2640, Note_on_c, 5, 71, 64
2, 2675, Note_on_c, 5, 71, 0
2, 2700, Note_on_c, 5, 71, 64
2, 2760, Note_on_c, 5, 71, 0
2, 2760, Note_on_c, 5, 73, 64
2, 2820, Note_on_c, 5, 73, 0
2, 2820, Note_on_c, 5, 67, 64
2, 2880, Note_on_c, 5, 67, 0
2, 2880, Note_on_c, 5, 66, 64
2, 2915, Note_on_c, 5, 66, 0
2, 2940, Note_on_c, 5, 73, 64
2, 3000, Note_on_c, 5, 73, 0
2, 3000, Note_on_c, 5, 74, 64
2, 3060, Note_on_c, 5, 74, 0
2, 3060, Note_on_c, 5, 67, 64
2, 3120, Note_on_c, 5, 67, 0
2, 3120, Note_on_c, 5, 66, 64
2, 3155, Note_on_c, 5, 66, 0
2, 3180, Note_on_c, 5, 75, 64
2, 3240, Note_on_c, 5, 75, 0
2, 3240, Note_on_c, 5, 76, 64
2, 3270, Note_on_c, 5, 76, 0
2, 3270, Note_on_c, 5, 74, 64
2, 3300, Note_on_c, 5, 74, 0
2, 3300, Note_on_c, 5, 72, 64
2, 3390, Note_on_c, 5, 72, 0
2, 3390, Note_on_c, 5, 71, 64
2, 3420, Note_on_c, 5, 71, 0
2, 3420, Note_on_c, 5, 70, 64
2, 3450, Note_on_c, 5, 70, 0
2, 3450, Note_on_c, 5, 71, 64
2, 3480, Note_on_c, 5, 71, 0
2, 3480, Note_on_c, 5, 70, 64
2, 3515, Note_on_c, 5, 70, 0
2, 3540, Note_on_c, 5, 79, 64
2, 3600, Note_on_c, 5, 79, 0
2, 3600, Note_on_c, 5, 78, 64
2, 3660, Note_on_c, 5, 78, 0
2, 3660, Note_on_c, 5, 76, 64
2, 3720, Note_on_c, 5, 76, 0
2, 3720, Note_on_c, 5, 74, 64
2, 3720, Note_on_c, 5, 66, 64
2, 3780, Note_on_c, 5, 74, 0
2, 3780, Note_on_c, 5, 73, 64
2, 3810, Note_on_c, 5, 73, 0
2, 3810, Note_on_c, 5, 66, 0
2, 3810, Note_on_c, 5, 71, 64
2, 3810, Note_on_c, 5, 66, 64
2, 3840, Note_on_c, 5, 66, 0
2, 3840, Note_on_c, 5, 71, 0
2, 3840, Note_on_c, 5, 78, 64
2, 3840, Note_on_c, 5, 66, 64
2, 3875, Note_on_c, 5, 66, 0
2, 3900, Note_on_c, 5, 66, 64
2, 3960, Note_on_c, 5, 66, 0
2, 3960, Note_on_c, 5, 68, 64
2, 4020, Note_on_c, 5, 68, 0
2, 4080, Note_on_c, 5, 78, 0
2, 4080, Note_on_c, 5, 77, 64
2, 4140, Note_on_c, 5, 68, 64
2, 4200, Note_on_c, 5, 68, 0
2, 4200, Note_on_c, 5, 77, 0
2, 4200, Note_on_c, 5, 78, 64
2, 4200, Note_on_c, 5, 69, 64
2, 4260, Note_on_c, 5, 69, 0
2, 4380, Note_on_c, 5, 70, 64
2, 4440, Note_on_c, 5, 70, 0
2, 4440, Note_on_c, 5, 71, 64
2, 4470, Note_on_c, 5, 71, 0
2, 4470, Note_on_c, 5, 69, 64
2, 4500, Note_on_c, 5, 69, 0
2, 4500, Note_on_c, 5, 78, 0
2, 4500, Note_on_c, 5, 76, 64
2, 4500, Note_on_c, 5, 67, 64
2, 4560, Note_on_c, 5, 76, 0
2, 4560, Note_on_c, 5, 74, 64
2, 4590, Note_on_c, 5, 67, 0
2, 4590, Note_on_c, 5, 66, 64
2, 4620, Note_on_c, 5, 66, 0
2, 4620, Note_on_c, 5, 74, 0
2, 4620, Note_on_c, 5, 73, 64
2, 4620, Note_on_c, 5, 65, 64
2, 4650, Note_on_c, 5, 65, 0
2, 4650, Note_on_c, 5, 66, 64
2, 4680, Note_on_c, 5, 66, 0
2, 4680, Note_on_c, 5, 73, 0
2, 4680, Note_on_c, 5, 71, 64
2, 4680, Note_on_c, 5, 65, 64
2, 4715, Note_on_c, 5, 65, 0
2, 4740, Note_on_c, 5, 74, 64
2, 4800, Note_on_c, 5, 74, 0
2, 4800, Note_on_c, 5, 71, 0
2, 4800, Note_on_c, 5, 80, 64
2, 4800, Note_on_c, 5, 73, 64
2, 4860, Note_on_c, 5, 73, 0
2, 4860, Note_on_c, 5, 71, 64
2, 4920, Note_on_c, 5, 71, 0
2, 4920, Note_on_c, 5, 69, 64
2, 4980, Note_on_c, 5, 69, 0
2, 4980, Note_on_c, 5, 80, 0
2, 4980, Note_on_c, 5, 73, 64
2, 4980, Note_on_c, 5, 68, 64
2, 5010, Note_on_c, 5, 68, 0
2, 5010, Note_on_c, 5, 66, 64
2, 5040, Note_on_c, 5, 66, 0
2, 5040, Note_on_c, 5, 73, 0
2, 5040, Note_on_c, 5, 78, 64
2, 5040, Note_on_c, 5, 73, 64
2, 5100, Note_on_c, 5, 78, 0
2, 5100, Note_on_c, 5, 76, 64
2, 5160, Note_on_c, 5, 76, 0
2, 5160, Note_on_c, 5, 74, 64
2, 5220, Note_on_c, 5, 73, 0
2, 5220, Note_on_c, 5, 66, 64
2, 5280, Note_on_c, 5, 66, 0
2, 5280, Note_on_c, 5, 71, 64
2, 5340, Note_on_c, 5, 71, 0
2, 5340, Note_on_c, 5, 69, 64
2, 5400, Note_on_c, 5, 69, 0
2, 5400, Note_on_c, 5, 68, 64
2, 5460, Note_on_c, 5, 74, 0
2, 5460, Note_on_c, 5, 68, 64
2, 5520, Note_on_c, 5, 68, 0
2, 5520, Note_on_c, 5, 73, 64
2, 5580, Note_on_c, 5, 73, 0
2, 5580, Note_on_c, 5, 71, 64
2, 5640, Note_on_c, 5, 71, 0
2, 5640, Note_on_c, 5, 69, 64
2, 5760, Note_on_c, 5, 68, 0
2, 5760, Note_on_c, 5, 66, 64
2, 5820, Note_on_c, 5, 66, 0
2, 5820, Note_on_c, 5, 64, 64
2, 5880, Note_on_c, 5, 64, 0
2, 5880, Note_on_c, 5, 62, 64
2, 5940, Note_on_c, 5, 62, 0
2, 5940, Note_on_c, 5, 69, 0
2, 5940, Note_on_c, 5, 77, 64
2, 5940, Note_on_c, 5, 68, 64
2, 6000, Note_on_c, 5, 68, 0
2, 6000, Note_on_c, 5, 77, 0
2, 6000, Note_on_c, 5, 78, 64
2, 6000, Note_on_c, 5, 69, 64
2, 6035, Note_on_c, 5, 69, 0
2, 6035, Note_on_c, 5, 78, 0
2, 6060, Note_on_c, 5, 69, 64
2, 6060, Note_on_c, 5, 66, 64
2, 6120, Note_on_c, 5, 66, 0
2, 6120, Note_on_c, 5, 69, 0
2, 6120, Note_on_c, 5, 68, 64
2, 6120, Note_on_c, 5, 71, 64
2, 6180, Note_on_c, 5, 71, 0
2, 6180, Note_on_c, 5, 68, 0
2, 6180, Note_on_c, 5, 77, 64
2, 6180, Note_on_c, 5, 68, 64
2, 6240, Note_on_c, 5, 68, 0
2, 6240, Note_on_c, 5, 77, 0
2, 6240, Note_on_c, 5, 78, 64
2, 6240, Note_on_c, 5, 69, 64
2, 6275, Note_on_c, 5, 69, 0
2, 6275, Note_on_c, 5, 78, 0
2, 6300, Note_on_c, 5, 80, 64
2, 6300, Note_on_c, 5, 71, 64
2, 6360, Note_on_c, 5, 71, 0
2, 6360, Note_on_c, 5, 80, 0
2, 6360, Note_on_c, 5, 73, 64
2, 6360, Note_on_c, 5, 73, 64
2, 6420, Note_on_c, 5, 73, 0
2, 6420, Note_on_c, 5, 73, 0
2, 6420, Note_on_c, 5, 65, 64
2, 6420, Note_on_c, 5, 74, 64
2, 6480, Note_on_c, 5, 74, 0
2, 6480, Note_on_c, 5, 65, 0
2, 6480, Note_on_c, 5, 66, 64
2, 6480, Note_on_c, 5, 73, 64
2, 6515, Note_on_c, 5, 73, 0
2, 6515, Note_on_c, 5, 66, 0
2, 6540, Note_on_c, 5, 74, 64
2, 6540, Note_on_c, 5, 66, 64
2, 6600, Note_on_c, 5, 74, 0
2, 6600, Note_on_c, 5, 69, 64
2, 6660, Note_on_c, 5, 69, 0
2, 6660, Note_on_c, 5, 66, 0
2, 6660, Note_on_c, 5, 68, 64
2, 6660, Note_on_c, 5, 65, 64
2, 6780, Note_on_c, 5, 65, 0
2, 6780, Note_on_c, 5, 68, 0
2, 6780, Note_on_c, 5, 69, 64
2, 6780, Note_on_c, 5, 66, 64
2, 6840, Note_on_c, 5, 66, 0
2, 6840, Note_on_c, 5, 69, 0
2, 6840, Note_on_c, 5, 71, 64
2, 6840, Note_on_c, 5, 68, 64
2, 6875, Note_on_c, 5, 68, 0
2, 6875, Note_on_c, 5, 71, 0
2, 6900, Note_on_c, 5, 74, 64
2, 6900, Note_on_c, 5, 71, 64
2, 6960, Note_on_c, 5, 71, 0
2, 6960, Note_on_c, 5, 74, 0
2, 6960, Note_on_c, 5, 73, 64
2, 6960, Note_on_c, 5, 69, 64
2, 7020, Note_on_c, 5, 69, 0
2, 7020, Note_on_c, 5, 73, 0
2, 7020, Note_on_c, 5, 71, 64
2, 7020, Note_on_c, 5, 68, 64
2, 7080, Note_on_c, 5, 68, 0
2, 7080, Note_on_c, 5, 71, 0
2, 7080, Note_on_c, 5, 69, 64
2, 7080, Note_on_c, 5, 66, 64
2, 7140, Note_on_c, 5, 66, 0
2, 7140, Note_on_c, 5, 74, 64
2, 7200, Note_on_c, 5, 74, 0
2, 7200, Note_on_c, 5, 69, 0
2, 7200, Note_on_c, 5, 69, 64
2, 7200, Note_on_c, 5, 73, 64
2, 7215, Note_on_c, 5, 69, 0
2, 7215, Note_on_c, 5, 68, 64
2, 7230, Note_on_c, 5, 68, 0
2, 7230, Note_on_c, 5, 69, 64
2, 7245, Note_on_c, 5, 69, 0
2, 7245, Note_on_c, 5, 68, 64
2, 7260, Note_on_c, 5, 68, 0
2, 7260, Note_on_c, 5, 73, 0
2, 7260, Note_on_c, 5, 69, 64
2, 7260, Note_on_c, 5, 71, 64
2, 7275, Note_on_c, 5, 69, 0
2, 7275, Note_on_c, 5, 68, 64
2, 7290, Note_on_c, 5, 68, 0
2, 7290, Note_on_c, 5, 66, 64
2, 7305, Note_on_c, 5, 66, 0
2, 7305, Note_on_c, 5, 68, 64
2, 7320, Note_on_c, 5, 68, 0
2, 7320, Note_on_c, 5, 66, 40
2, 7380, Note_on_c, 5, 71, 0
2, 7380, Note_on_c, 5, 69, 41
2, 7410, Note_on_c, 5, 69, 0
2, 7410, Note_on_c, 5, 71, 41
2, 7440, Note_on_c, 5, 71, 0
2, 7440, Note_on_c, 5, 66, 0
2, 7440, Note_on_c, 5, 72, 42
2, 7620, Note_on_c, 5, 72, 0
2, 7620, Note_on_c, 5, 64, 44
2, 7680, Note_on_c, 5, 64, 0
2, 7680, Note_on_c, 5, 78, 45
2, 7680, Note_on_c, 5, 63, 45
2, 7715, Note_on_c, 5, 63, 0
2, 7740, Note_on_c, 5, 69, 45
2, 7800, Note_on_c, 5, 69, 0
2, 7800, Note_on_c, 5, 67, 46
2, 7860, Note_on_c, 5, 78, 0
2, 7860, Note_on_c, 5, 76, 47
2, 7890, Note_on_c, 5, 76, 0
2, 7890, Note_on_c, 5, 78, 47
2, 7920, Note_on_c, 5, 78, 0
2, 7920, Note_on_c, 5, 67, 0
2, 7920, Note_on_c, 5, 79, 48
2, 8100, Note_on_c, 5, 79, 0
2, 8100, Note_on_c, 5, 71, 50
2, 8160, Note_on_c, 5, 71, 0
2, 8160, Note_on_c, 5, 70, 51
2, 8160, Note_on_c, 5, 73, 51
2, 8195, Note_on_c, 5, 70, 0
2, 8220, Note_on_c, 5, 76, 51
2, 8280, Note_on_c, 5, 76, 0
2, 8280, Note_on_c, 5, 74, 52
2, 8340, Note_on_c, 5, 73, 0
2, 8340, Note_on_c, 5, 71, 53
2, 8370, Note_on_c, 5, 71, 0
2, 8370, Note_on_c, 5, 73, 53
2, 8400, Note_on_c, 5, 73, 0
2, 8400, Note_on_c, 5, 74, 0
2, 8400, Note_on_c, 5, 74, 54
2, 8580, Note_on_c, 5, 74, 0
2, 8580, Note_on_c, 5, 66, 56
2, 8640, Note_on_c, 5, 66, 0
2, 8640, Note_on_c, 5, 80, 57
2, 8640, Note_on_c, 5, 65, 57
2, 8675, Note_on_c, 5, 65, 0
2, 8700, Note_on_c, 5, 71, 57
2, 8760, Note_on_c, 5, 71, 0
2, 8760, Note_on_c, 5, 69, 58
2, 8820, Note_on_c, 5, 80, 0
2, 8820, Note_on_c, 5, 78, 59
2, 8850, Note_on_c, 5, 78, 0
2, 8850, Note_on_c, 5, 80, 59
2, 8880, Note_on_c, 5, 80, 0
2, 8880, Note_on_c, 5, 69, 0
2, 8880, Note_on_c, 5, 81, 60
2, 9060, Note_on_c, 5, 81, 0
2, 9060, Note_on_c, 5, 72, 62
2, 9120, Note_on_c, 5, 72, 0
2, 9120, Note_on_c, 5, 71, 63
2, 9120, Note_on_c, 5, 75, 63
2, 9155, Note_on_c, 5, 71, 0
2, 9180, Note_on_c, 5, 81, 63
2, 9215, Note_on_c, 5, 81, 0
2, 9240, Note_on_c, 5, 75, 0
2, 9240, Note_on_c, 5, 80, 99
2, 9240, Note_on_c, 5, 76, 99
2, 9300, Note_on_c, 5, 76, 0
2, 9300, Note_on_c, 5, 80, 0
2, 9300, Note_on_c, 5, 74, 80
2, 9300, Note_on_c, 5, 71, 80
2, 9360, Note_on_c, 5, 71, 0
2, 9360, Note_on_c, 5, 74, 0
2, 9360, Note_on_c, 5, 73, 80
2, 9360, Note_on_c, 5, 70, 80
2, 9395, Note_on_c, 5, 70, 0
2, 9395, Note_on_c, 5, 73, 0
2, 9420, Note_on_c, 5, 82, 80
2, 9420, Note_on_c, 5, 73, 80
2, 9455, Note_on_c, 5, 73, 0
2, 9455, Note_on_c, 5, 82, 0
2, 9480, Note_on_c, 5, 83, 99
2, 9480, Note_on_c, 5, 66, 99
2, 9540, Note_on_c, 5, 66, 0
2, 9540, Note_on_c, 5, 83, 0
2, 9540, Note_on_c, 5, 78, 80
2, 9540, Note_on_c, 5, 71, 80
2, 9600, Note_on_c, 5, 71, 0
2, 9600, Note_on_c, 5, 78, 0
2, 9600, Note_on_c, 5, 77, 80
2, 9600, Note_on_c, 5, 73, 80
2, 9635, Note_on_c, 5, 73, 0
2, 9635, Note_on_c, 5, 77, 0
2, 9660, Note_on_c, 5, 83, 80
2, 9660, Note_on_c, 5, 65, 80
2, 9695, Note_on_c, 5, 65, 0
2, 9695, Note_on_c, 5, 83, 0
2, 9720, Note_on_c, 5, 82, 99
2, 9720, Note_on_c, 5, 66, 99
2, 9780, Note_on_c, 5, 66, 0
2, 9780, Note_on_c, 5, 82, 0
2, 9780, Note_on_c, 5, 76, 80
2, 9780, Note_on_c, 5, 70, 80
2, 9840, Note_on_c, 5, 70, 0
2, 9840, Note_on_c, 5, 76, 0
2, 9840, Note_on_c, 5, 75, 80
2, 9840, Note_on_c, 5, 71, 80
2, 9875, Note_on_c, 5, 71, 0
2, 9875, Note_on_c, 5, 75, 0
2, 9900, Note_on_c, 5, 81, 80
2, 9900, Note_on_c, 5, 63, 80
2, 9935, Note_on_c, 5, 63, 0
2, 9935, Note_on_c, 5, 81, 0
2, 9960, Note_on_c, 5, 80, 99
2, 9960, Note_on_c, 5, 64, 99
2, 10020, Note_on_c, 5, 64, 0
2, 10020, Note_on_c, 5, 80, 0
2, 10020, Note_on_c, 5, 74, 80
2, 10020, Note_on_c, 5, 68, 80
2, 10080, Note_on_c, 5, 68, 0
2, 10080, Note_on_c, 5, 74, 0
2, 10080, Note_on_c, 5, 73, 80
2, 10080, Note_on_c, 5, 69, 80
2, 10115, Note_on_c, 5, 69, 0
2, 10115, Note_on_c, 5, 73, 0
2, 10140, Note_on_c, 5, 79, 80
2, 10140, Note_on_c, 5, 64, 80
2, 10175, Note_on_c, 5, 64, 0
2, 10175, Note_on_c, 5, 79, 0
2, 10200, Note_on_c, 5, 78, 70
2, 10200, Note_on_c, 5, 62, 70
2, 10260, Note_on_c, 5, 62, 0
2, 10260, Note_on_c, 5, 78, 0
2, 10260, Note_on_c, 5, 70, 67
2, 10260, Note_on_c, 5, 66, 67
2, 10320, Note_on_c, 5, 66, 0
2, 10320, Note_on_c, 5, 70, 0
2, 10320, Note_on_c, 5, 71, 65
2, 10320, Note_on_c, 5, 71, 65
2, 10355, Note_on_c, 5, 71, 0
2, 10380, Note_on_c, 5, 74, 62
2, 10415, Note_on_c, 5, 74, 0
2, 10440, Note_on_c, 5, 76, 60
2, 10500, Note_on_c, 5, 76, 0
2, 10500, Note_on_c, 5, 67, 57
2, 10560, Note_on_c, 5, 67, 0
2, 10560, Note_on_c, 5, 71, 0
2, 10560, Note_on_c, 5, 66, 55
2, 10560, Note_on_c, 5, 70, 55
2, 10595, Note_on_c, 5, 70, 0
2, 10595, Note_on_c, 5, 66, 0
2, 10620, Note_on_c, 5, 76, 52
2, 10620, Note_on_c, 5, 73, 52
2, 10680, Note_on_c, 5, 76, 0
2, 10680, Note_on_c, 5, 74, 50
2, 10740, Note_on_c, 5, 73, 0
2, 10740, Note_on_c, 5, 66, 51
2, 10800, Note_on_c, 5, 66, 0
2, 10800, Note_on_c, 5, 71, 52
2, 10860, Note_on_c, 5, 74, 0
2, 10860, Note_on_c, 5, 76, 53
2, 10890, Note_on_c, 5, 76, 0
2, 10890, Note_on_c, 5, 78, 53
2, 10920, Note_on_c, 5, 78, 0
2, 10920, Note_on_c, 5, 76, 54
2, 11040, Note_on_c, 5, 71, 0
2, 11040, Note_on_c, 5, 70, 55
2, 11100, Note_on_c, 5, 76, 0
2, 11100, Note_on_c, 5, 78, 56
2, 11130, Note_on_c, 5, 78, 0
2, 11130, Note_on_c, 5, 79, 57
2, 11160, Note_on_c, 5, 79, 0
2, 11160, Note_on_c, 5, 70, 0
2, 11160, Note_on_c, 5, 78, 57
2, 11160, Note_on_c, 5, 71, 57
2, 11340, Note_on_c, 5, 78, 0
2, 11340, Note_on_c, 5, 79, 60
2, 11370, Note_on_c, 5, 79, 0
2, 11370, Note_on_c, 5, 81, 60
2, 11400, Note_on_c, 5, 81, 0
2, 11400, Note_on_c, 5, 79, 61
2, 11460, Note_on_c, 5, 71, 0
2, 11460, Note_on_c, 5, 69, 61
2, 11520, Note_on_c, 5, 69, 0
2, 11520, Note_on_c, 5, 67, 62
2, 11580, Note_on_c, 5, 67, 0
2, 11580, Note_on_c, 5, 66, 63
2, 11640, Note_on_c, 5, 66, 0
2, 11640, Note_on_c, 5, 64, 64
2, 11700, Note_on_c, 5, 79, 0
2, 11700, Note_on_c, 5, 73, 64
2, 11760, Note_on_c, 5, 73, 0
2, 11760, Note_on_c, 5, 64, 0
2, 11760, Note_on_c, 5, 78, 64
2, 11760, Note_on_c, 5, 73, 64
2, 11820, Note_on_c, 5, 78, 0
2, 11820, Note_on_c, 5, 76, 64
2, 11880, Note_on_c, 5, 76, 0
2, 11880, Note_on_c, 5, 74, 64
2, 11940, Note_on_c, 5, 74, 0
2, 11940, Note_on_c, 5, 73, 0
2, 11940, Note_on_c, 5, 73, 64
2, 11940, Note_on_c, 5, 66, 64
2, 11970, Note_on_c, 5, 73, 0
2, 11970, Note_on_c, 5, 71, 64
2, 12000, Note_on_c, 5, 71, 0
2, 12000, Note_on_c, 5, 66, 0
2, 12000, Note_on_c, 5, 78, 64
2, 12000, Note_on_c, 5, 71, 64
2, 12060, Note_on_c, 5, 71, 0
2, 12060, Note_on_c, 5, 69, 64
2, 12120, Note_on_c, 5, 69, 0
2, 12120, Note_on_c, 5, 67, 64
2, 12180, Note_on_c, 5, 78, 0
2, 12180, Note_on_c, 5, 71, 64
2, 12240, Note_on_c, 5, 71, 0
2, 12240, Note_on_c, 5, 76, 64
2, 12300, Note_on_c, 5, 76, 0
2, 12300, Note_on_c, 5, 74, 64
2, 12360, Note_on_c, 5, 74, 0
2, 12360, Note_on_c, 5, 73, 64
2, 12480, Note_on_c, 5, 67, 0
2, 12480, Note_on_c, 5, 66, 64
2, 12540, Note_on_c, 5, 66, 0
2, 12540, Note_on_c, 5, 64, 64
2, 12600, Note_on_c, 5, 64, 0
2, 12600, Note_on_c, 5, 62, 64
2, 12660, Note_on_c, 5, 73, 0
2, 12660, Note_on_c, 5, 66, 64
2, 12720, Note_on_c, 5, 66, 0
2, 12720, Note_on_c, 5, 71, 64
2, 12780, Note_on_c, 5, 71, 0
2, 12780, Note_on_c, 5, 69, 64
2, 12840, Note_on_c, 5, 69, 0
2, 12840, Note_on_c, 5, 67, 64
2, 12900, Note_on_c, 5, 62, 0
2, 12900, Note_on_c, 5, 70, 64
2, 12960, Note_on_c, 5, 70, 0
2, 12960, Note_on_c, 5, 67, 0
2, 12960, Note_on_c, 5, 66, 64
2, 12960, Note_on_c, 5, 71, 64
2, 13020, Note_on_c, 5, 71, 0
2, 13020, Note_on_c, 5, 62, 64
2, 13080, Note_on_c, 5, 62, 0
2, 13080, Note_on_c, 5, 66, 0
2, 13080, Note_on_c, 5, 64, 64
2, 13080, Note_on_c, 5, 64, 64
2, 13115, Note_on_c, 5, 64, 0
2, 13115, Note_on_c, 5, 64, 0
2, 13140, Note_on_c, 5, 73, 64
2, 13140, Note_on_c, 5, 70, 64
2, 13200, Note_on_c, 5, 70, 0
2, 13200, Note_on_c, 5, 73, 0
2, 13200, Note_on_c, 5, 74, 64
2, 13200, Note_on_c, 5, 71, 64
2, 13260, Note_on_c, 5, 71, 0
2, 13260, Note_on_c, 5, 74, 0
2, 13260, Note_on_c, 5, 76, 64
2, 13260, Note_on_c, 5, 73, 64
2, 13320, Note_on_c, 5, 73, 0
2, 13320, Note_on_c, 5, 76, 0
2, 13320, Note_on_c, 5, 78, 64
2, 13320, Note_on_c, 5, 66, 64
2, 13380, Note_on_c, 5, 66, 0
2, 13380, Note_on_c, 5, 78, 0
2, 13380, Note_on_c, 5, 79, 64
2, 13380, Note_on_c, 5, 64, 64
2, 13440, Note_on_c, 5, 64, 0
2, 13440, Note_on_c, 5, 79, 0
2, 13440, Note_on_c, 5, 78, 64
2, 13440, Note_on_c, 5, 62, 64
2, 13500, Note_on_c, 5, 62, 0
2, 13500, Note_on_c, 5, 78, 0
2, 13500, Note_on_c, 5, 71, 64
2, 13500, Note_on_c, 5, 67, 64
2, 13560, Note_on_c, 5, 67, 0
2, 13560, Note_on_c, 5, 66, 64
2, 13620, Note_on_c, 5, 66, 0
2, 13620, Note_on_c, 5, 71, 0
2, 13620, Note_on_c, 5, 70, 64
2, 13620, Note_on_c, 5, 64, 64
2, 13740, Note_on_c, 5, 64, 0
2, 13740, Note_on_c, 5, 70, 0
2, 13740, Note_on_c, 5, 71, 64
2, 13740, Note_on_c, 5, 62, 64
2, 13800, Note_on_c, 5, 62, 0
2, 13800, Note_on_c, 5, 71, 0
2, 13800, Note_on_c, 5, 73, 64
2, 13800, Note_on_c, 5, 64, 64
2, 13835, Note_on_c, 5, 64, 0
2, 13835, Note_on_c, 5, 73, 0
2, 13860, Note_on_c, 5, 76, 64
2, 13860, Note_on_c, 5, 67, 64
2, 13920, Note_on_c, 5, 67, 0
2, 13920, Note_on_c, 5, 76, 0
2, 13920, Note_on_c, 5, 74, 64
2, 13920, Note_on_c, 5, 66, 64
2, 13980, Note_on_c, 5, 66, 0
2, 13980, Note_on_c, 5, 74, 0
2, 13980, Note_on_c, 5, 73, 64
2, 13980, Note_on_c, 5, 64, 64
2, 14040, Note_on_c, 5, 64, 0
2, 14040, Note_on_c, 5, 73, 0
2, 14040, Note_on_c, 5, 71, 64
2, 14040, Note_on_c, 5, 62, 64
2, 14100, Note_on_c, 5, 62, 0
2, 14100, Note_on_c, 5, 67, 64
2, 14160, Note_on_c, 5, 71, 0
2, 14160, Note_on_c, 5, 70, 64
2, 14220, Note_on_c, 5, 67, 0
2, 14220, Note_on_c, 5, 66, 64
2, 14250, Note_on_c, 5, 66, 0
2, 14250, Note_on_c, 5, 64, 64
2, 14280, Note_on_c, 5, 64, 0
2, 14280, Note_on_c, 5, 70, 0
2, 14280, Note_on_c, 5, 71, 64
2, 14280, Note_on_c, 5, 62, 64
2, 14340, Note_on_c, 5, 62, 0
2, 14340, Note_on_c, 5, 71, 0
2, 14340, Note_on_c, 5, 67, 64
2, 14340, Note_on_c, 5, 64, 64
2, 14400, Note_on_c, 5, 64, 0
2, 14400, Note_on_c, 5, 67, 0
2, 14400, Note_on_c, 5, 66, 64
2, 14400, Note_on_c, 5, 62, 64
2, 14460, Note_on_c, 5, 62, 0
2, 14460, Note_on_c, 5, 66, 0
2, 14460, Note_on_c, 5, 64, 64
2, 14460, Note_on_c, 5, 64, 64
2, 14520, Note_on_c, 5, 64, 0
2, 14520, Note_on_c, 5, 64, 0
2, 14520, Note_on_c, 5, 62, 64
2, 14520, Note_on_c, 5, 66, 64
2, 14640, Note_on_c, 5, 66, 0
2, 14640, Note_on_c, 5, 62, 0
2, 23160, Note_on_c, 5, 66, 64
2, 23250, Note_on_c, 5, 66, 0
2, 23250, Note_on_c, 5, 66, 64
2, 23280, Note_on_c, 5, 66, 0
2, 23280, Note_on_c, 5, 66, 64
2, 23315, Note_on_c, 5, 66, 0
2, 23340, Note_on_c, 5, 66, 64
2, 23400, Note_on_c, 5, 66, 0
2, 23400, Note_on_c, 5, 68, 64
2, 23460, Note_on_c, 5, 68, 0
2, 23580, Note_on_c, 5, 68, 64
2, 23640, Note_on_c, 5, 68, 0
2, 23640, Note_on_c, 5, 69, 64
2, 23700, Note_on_c, 5, 69, 0
2, 23820, Note_on_c, 5, 70, 64
2, 23880, Note_on_c, 5, 70, 0
2, 23880, Note_on_c, 5, 71, 64
2, 23910, Note_on_c, 5, 71, 0
2, 23910, Note_on_c, 5, 69, 64
2, 23940, Note_on_c, 5, 69, 0
2, 23940, Note_on_c, 5, 67, 64
2, 24030, Note_on_c, 5, 67, 0
2, 24030, Note_on_c, 5, 66, 64
2, 24060, Note_on_c, 5, 66, 0
2, 24060, Note_on_c, 5, 65, 64
2, 24090, Note_on_c, 5, 65, 0
2, 24090, Note_on_c, 5, 66, 64
2, 24120, Note_on_c, 5, 66, 0
2, 24120, Note_on_c, 5, 65, 64
2, 24155, Note_on_c, 5, 65, 0
2, 24180, Note_on_c, 5, 74, 64
2, 24240, Note_on_c, 5, 74, 0
2, 24240, Note_on_c, 5, 73, 64
2, 24300, Note_on_c, 5, 73, 0
2, 24300, Note_on_c, 5, 71, 64
2, 24360, Note_on_c, 5, 71, 0
2, 24360, Note_on_c, 5, 73, 64
2, 24360, Note_on_c, 5, 69, 64
2, 24420, Note_on_c, 5, 69, 0
2, 24420, Note_on_c, 5, 68, 64
2, 24450, Note_on_c, 5, 68, 0
2, 24450, Note_on_c, 5, 73, 0
2, 24450, Note_on_c, 5, 73, 64
2, 24450, Note_on_c, 5, 66, 64
2, 24480, Note_on_c, 5, 66, 0
2, 24480, Note_on_c, 5, 73, 0
2, 24480, Note_on_c, 5, 73, 64
2, 24480, Note_on_c, 5, 73, 64
2, 24515, Note_on_c, 5, 73, 0
2, 24540, Note_on_c, 5, 73, 64
2, 24600, Note_on_c, 5, 73, 0
2, 24600, Note_on_c, 5, 75, 64
2, 24660, Note_on_c, 5, 75, 0
2, 24660, Note_on_c, 5, 69, 64
2, 24720, Note_on_c, 5, 69, 0
2, 24720, Note_on_c, 5, 73, 0
2, 24720, Note_on_c, 5, 68, 64
2, 24720, Note_on_c, 5, 72, 64
2, 24755, Note_on_c, 5, 68, 0
2, 24780, Note_on_c, 5, 75, 64
2, 24840, Note_on_c, 5, 75, 0
2, 24840, Note_on_c, 5, 72, 0
2, 24840, Note_on_c, 5, 76, 64
2, 24840, Note_on_c, 5, 73, 64
2, 24900, Note_on_c, 5, 76, 0
2, 24900, Note_on_c, 5, 69, 64
2, 24960, Note_on_c, 5, 69, 0
2, 24960, Note_on_c, 5, 68, 64
2, 24995, Note_on_c, 5, 68, 0
2, 25020, Note_on_c, 5, 77, 64
2, 25080, Note_on_c, 5, 77, 0
2, 25080, Note_on_c, 5, 78, 64
2, 25110, Note_on_c, 5, 78, 0
2, 25110, Note_on_c, 5, 76, 64
2, 25140, Note_on_c, 5, 76, 0
2, 25140, Note_on_c, 5, 73, 0
2, 25140, Note_on_c, 5, 74, 64
2, 25140, Note_on_c, 5, 71, 64
2, 25200, Note_on_c, 5, 71, 0
2, 25200, Note_on_c, 5, 69, 64
2, 25230, Note_on_c, 5, 74, 0
2, 25230, Note_on_c, 5, 73, 64
2, 25260, Note_on_c, 5, 73, 0
2, 25260, Note_on_c, 5, 69, 0
2, 25260, Note_on_c, 5, 72, 64
2, 25260, Note_on_c, 5, 68, 64
2, 25290, Note_on_c, 5, 72, 0
2, 25290, Note_on_c, 5, 73, 64
2, 25320, Note_on_c, 5, 73, 0
2, 25320, Note_on_c, 5, 68, 0
2, 25320, Note_on_c, 5, 72, 64
2, 25320, Note_on_c, 5, 66, 64
2, 25355, Note_on_c, 5, 72, 0
2, 25380, Note_on_c, 5, 81, 64
2, 25440, Note_on_c, 5, 81, 0
2, 25440, Note_on_c, 5, 66, 0
2, 25440, Note_on_c, 5, 80, 64
2, 25440, Note_on_c, 5, 75, 64
2, 25500, Note_on_c, 5, 80, 0
2, 25500, Note_on_c, 5, 78, 64
2, 25560, Note_on_c, 5, 78, 0
2, 25560, Note_on_c, 5, 76, 64
2, 25620, Note_on_c, 5, 76, 0
2, 25620, Note_on_c, 5, 75, 0
2, 25620, Note_on_c, 5, 75, 64
2, 25620, Note_on_c, 5, 68, 64
2, 25650, Note_on_c, 5, 75, 0
2, 25650, Note_on_c, 5, 73, 64
2, 25680, Note_on_c, 5, 73, 0
2, 25680, Note_on_c, 5, 68, 0
2, 25680, Note_on_c, 5, 80, 64
2, 25680, Note_on_c, 5, 73, 64
2, 25740, Note_on_c, 5, 73, 0
2, 25740, Note_on_c, 5, 71, 64
2, 25800, Note_on_c, 5, 71, 0
2, 25800, Note_on_c, 5, 69, 64
2, 25860, Note_on_c, 5, 80, 0
2, 25860, Note_on_c, 5, 73, 64
2, 25920, Note_on_c, 5, 73, 0
2, 25920, Note_on_c, 5, 78, 64
2, 25980, Note_on_c, 5, 78, 0
2, 25980, Note_on_c, 5, 76, 64
2, 26040, Note_on_c, 5, 76, 0
2, 26040, Note_on_c, 5, 75, 64
2, 26100, Note_on_c, 5, 69, 0
2, 26100, Note_on_c, 5, 63, 64
2, 26160, Note_on_c, 5, 63, 0
2, 26160, Note_on_c, 5, 68, 64
2, 26220, Note_on_c, 5, 68, 0
2, 26220, Note_on_c, 5, 66, 64
2, 26280, Note_on_c, 5, 66, 0
2, 26280, Note_on_c, 5, 64, 64
2, 26340, Note_on_c, 5, 75, 0
2, 26340, Note_on_c, 5, 68, 64
2, 26400, Note_on_c, 5, 68, 0
2, 26400, Note_on_c, 5, 73, 64
2, 26460, Note_on_c, 5, 73, 0
2, 26460, Note_on_c, 5, 71, 64
2, 26520, Note_on_c, 5, 71, 0
2, 26520, Note_on_c, 5, 69, 64
2, 26580, Note_on_c, 5, 64, 0
2, 26580, Note_on_c, 5, 72, 64
2, 26640, Note_on_c, 5, 72, 0
2, 26640, Note_on_c, 5, 69, 0
2, 26640, Note_on_c, 5, 68, 64
2, 26640, Note_on_c, 5, 73, 64
2, 26675, Note_on_c, 5, 73, 0
2, 26700, Note_on_c, 5, 64, 64
2, 26760, Note_on_c, 5, 64, 0
2, 26760, Note_on_c, 5, 68, 0
2, 26760, Note_on_c, 5, 66, 64
2, 26760, Note_on_c, 5, 63, 64
2, 26795, Note_on_c, 5, 63, 0
2, 26795, Note_on_c, 5, 66, 0
2, 26820, Note_on_c, 5, 75, 64
2, 26820, Note_on_c, 5, 72, 64
2, 26880, Note_on_c, 5, 72, 0
2, 26880, Note_on_c, 5, 75, 0
2, 26880, Note_on_c, 5, 76, 64
2, 26880, Note_on_c, 5, 73, 64
2, 26940, Note_on_c, 5, 73, 0
2, 26940, Note_on_c, 5, 76, 0
2, 26940, Note_on_c, 5, 78, 64
2, 26940, Note_on_c, 5, 75, 64
2, 27000, Note_on_c, 5, 75, 0
2, 27000, Note_on_c, 5, 78, 0
2, 27000, Note_on_c, 5, 80, 64
2, 27000, Note_on_c, 5, 68, 64
2, 27060, Note_on_c, 5, 68, 0
2, 27060, Note_on_c, 5, 80, 0
2, 27060, Note_on_c, 5, 81, 64
2, 27060, Note_on_c, 5, 66, 64
2, 27120, Note_on_c, 5, 66, 0
2, 27120, Note_on_c, 5, 81, 0
2, 27120, Note_on_c, 5, 80, 64
2, 27120, Note_on_c, 5, 68, 64
2, 27180, Note_on_c, 5, 68, 0
2, 27180, Note_on_c, 5, 80, 0
2, 27180, Note_on_c, 5, 73, 64
2, 27180, Note_on_c, 5, 69, 64
2, 27240, Note_on_c, 5, 69, 0
2, 27240, Note_on_c, 5, 64, 64
2, 27300, Note_on_c, 5, 64, 0
2, 27300, Note_on_c, 5, 73, 0
2, 27300, Note_on_c, 5, 72, 64
2, 27300, Note_on_c, 5, 63, 64
2, 27420, Note_on_c, 5, 63, 0
2, 27420, Note_on_c, 5, 72, 0
2, 27420, Note_on_c, 5, 73, 64
2, 27420, Note_on_c, 5, 64, 64
2, 27480, Note_on_c, 5, 64, 0
2, 27480, Note_on_c, 5, 73, 0
2, 27480, Note_on_c, 5, 75, 64
2, 27480, Note_on_c, 5, 66, 64
2, 27515, Note_on_c, 5, 66, 0
2, 27515, Note_on_c, 5, 75, 0
2, 27540, Note_on_c, 5, 78, 64
2, 27540, Note_on_c, 5, 69, 64
2, 27600, Note_on_c, 5, 69, 0
2, 27600, Note_on_c, 5, 78, 0
2, 27600, Note_on_c, 5, 76, 64
2, 27600, Note_on_c, 5, 68, 64
2, 27660, Note_on_c, 5, 68, 0
2, 27660, Note_on_c, 5, 76, 0
2, 27660, Note_on_c, 5, 75, 64
2, 27660, Note_on_c, 5, 66, 64
2, 27720, Note_on_c, 5, 66, 0
2, 27720, Note_on_c, 5, 75, 0
2, 27720, Note_on_c, 5, 73, 64
2, 27720, Note_on_c, 5, 64, 64
2, 27755, Note_on_c, 5, 73, 0
2, 27780, Note_on_c, 5, 81, 64
2, 27840, Note_on_c, 5, 81, 0
2, 27840, Note_on_c, 5, 64, 0
2, 27840, Note_on_c, 5, 80, 64
2, 27840, Note_on_c, 5, 63, 64
2, 27900, Note_on_c, 5, 63, 0
2, 27900, Note_on_c, 5, 80, 0
2, 27900, Note_on_c, 5, 78, 64
2, 27900, Note_on_c, 5, 72, 64
2, 27960, Note_on_c, 5, 72, 0
2, 27960, Note_on_c, 5, 73, 40
2, 28020, Note_on_c, 5, 78, 0
2, 28020, Note_on_c, 5, 76, 41
2, 28050, Note_on_c, 5, 76, 0
2, 28050, Note_on_c, 5, 78, 41
2, 28080, Note_on_c, 5, 78, 0
2, 28080, Note_on_c, 5, 73, 0
2, 28080, Note_on_c, 5, 79, 42
2, 28260, Note_on_c, 5, 79, 0
2, 28260, Note_on_c, 5, 71, 44
2, 28320, Note_on_c, 5, 71, 0
2, 28320, Note_on_c, 5, 70, 45
2, 28320, Note_on_c, 5, 73, 45
2, 28355, Note_on_c, 5, 70, 0
2, 28380, Note_on_c, 5, 76, 45
2, 28440, Note_on_c, 5, 76, 0
2, 28440, Note_on_c, 5, 74, 46
2, 28500, Note_on_c, 5, 73, 0
2, 28500, Note_on_c, 5, 71, 47
2, 28530, Note_on_c, 5, 71, 0
2, 28530, Note_on_c, 5, 73, 47
2, 28560, Note_on_c, 5, 73, 0
2, 28560, Note_on_c, 5, 74, 0
2, 28560, Note_on_c, 5, 74, 48
2, 28740, Note_on_c, 5, 74, 0
2, 28740, Note_on_c, 5, 66, 50
2, 28800, Note_on_c, 5, 66, 0
2, 28800, Note_on_c, 5, 80, 51
2, 28800, Note_on_c, 5, 65, 51
2, 28835, Note_on_c, 5, 65, 0
2, 28860, Note_on_c, 5, 71, 51
2, 28920, Note_on_c, 5, 71, 0
2, 28920, Note_on_c, 5, 69, 52
2, 28980, Note_on_c, 5, 80, 0
2, 28980, Note_on_c, 5, 78, 53
2, 29010, Note_on_c, 5, 78, 0
2, 29010, Note_on_c, 5, 80, 53
2, 29040, Note_on_c, 5, 80, 0
2, 29040, Note_on_c, 5, 69, 0
2, 29040, Note_on_c, 5, 81, 54
2, 29220, Note_on_c, 5, 81, 0
2, 29220, Note_on_c, 5, 73, 56
2, 29280, Note_on_c, 5, 73, 0
2, 29280, Note_on_c, 5, 72, 57
2, 29280, Note_on_c, 5, 75, 57
2, 29315, Note_on_c, 5, 72, 0
2, 29340, Note_on_c, 5, 78, 57
2, 29400, Note_on_c, 5, 78, 0
2, 29400, Note_on_c, 5, 76, 58
2, 29460, Note_on_c, 5, 75, 0
2, 29460, Note_on_c, 5, 73, 59
2, 29490, Note_on_c, 5, 73, 0
2, 29490, Note_on_c, 5, 75, 59
2, 29520, Note_on_c, 5, 75, 0
2, 29520, Note_on_c, 5, 76, 0
2, 29520, Note_on_c, 5, 76, 60
2, 29700, Note_on_c, 5, 76, 0
2, 29700, Note_on_c, 5, 67, 62
2, 29760, Note_on_c, 5, 67, 0
2, 29760, Note_on_c, 5, 82, 63
2, 29760, Note_on_c, 5, 66, 63
2, 29795, Note_on_c, 5, 66, 0
2, 29820, Note_on_c, 5, 76, 63
2, 29855, Note_on_c, 5, 76, 0
2, 29880, Note_on_c, 5, 82, 0
2, 29880, Note_on_c, 5, 83, 94
2, 29880, Note_on_c, 5, 75, 94
2, 29940, Note_on_c, 5, 75, 0
2, 29940, Note_on_c, 5, 83, 0
2, 29940, Note_on_c, 5, 78, 75
2, 29940, Note_on_c, 5, 69, 75
2, 30000, Note_on_c, 5, 69, 0
2, 30000, Note_on_c, 5, 78, 0
2, 30000, Note_on_c, 5, 77, 75
2, 30000, Note_on_c, 5, 68, 75
2, 30035, Note_on_c, 5, 68, 0
2, 30035, Note_on_c, 5, 77, 0
2, 30060, Note_on_c, 5, 80, 75
2, 30060, Note_on_c, 5, 77, 75
2, 30095, Note_on_c, 5, 77, 0
2, 30095, Note_on_c, 5, 80, 0
2, 30120, Note_on_c, 5, 73, 94
2, 30120, Note_on_c, 5, 78, 94
2, 30180, Note_on_c, 5, 78, 0
2, 30180, Note_on_c, 5, 73, 0
2, 30180, Note_on_c, 5, 78, 75
2, 30180, Note_on_c, 5, 73, 75
2, 30240, Note_on_c, 5, 73, 0
2, 30240, Note_on_c, 5, 78, 0
2, 30240, Note_on_c, 5, 80, 75
2, 30240, Note_on_c, 5, 72, 75
2, 30275, Note_on_c, 5, 72, 0
2, 30275, Note_on_c, 5, 80, 0
2, 30300, Note_on_c, 5, 72, 75
2, 30300, Note_on_c, 5, 78, 75
2, 30335, Note_on_c, 5, 78, 0
2, 30335, Note_on_c, 5, 72, 0
2, 30360, Note_on_c, 5, 73, 94
2, 30360, Note_on_c, 5, 77, 94
2, 30420, Note_on_c, 5, 77, 0
2, 30420, Note_on_c, 5, 73, 0
2, 30420, Note_on_c, 5, 77, 75
2, 30420, Note_on_c, 5, 71, 75
2, 30480, Note_on_c, 5, 71, 0
2, 30480, Note_on_c, 5, 77, 0
2, 30480, Note_on_c, 5, 78, 75
2, 30480, Note_on_c, 5, 70, 75
2, 30515, Note_on_c, 5, 70, 0
2, 30515, Note_on_c, 5, 78, 0
2, 30540, Note_on_c, 5, 70, 75
2, 30540, Note_on_c, 5, 76, 75
2, 30575, Note_on_c, 5, 76, 0
2, 30575, Note_on_c, 5, 70, 0
2, 30600, Note_on_c, 5, 71, 94
2, 30600, Note_on_c, 5, 75, 94
2, 30660, Note_on_c, 5, 75, 0
2, 30660, Note_on_c, 5, 71, 0
2, 30660, Note_on_c, 5, 75, 75
2, 30660, Note_on_c, 5, 69, 75
2, 30720, Note_on_c, 5, 69, 0
2, 30720, Note_on_c, 5, 75, 0
2, 30720, Note_on_c, 5, 76, 75
2, 30720, Note_on_c, 5, 68, 75
2, 30755, Note_on_c, 5, 68, 0
2, 30755, Note_on_c, 5, 76, 0
2, 30780, Note_on_c, 5, 68, 75
2, 30780, Note_on_c, 5, 74, 75
2, 30815, Note_on_c, 5, 74, 0
2, 30815, Note_on_c, 5, 68, 0
2, 30840, Note_on_c, 5, 69, 64
2, 30840, Note_on_c, 5, 73, 64
2, 30875, Note_on_c, 5, 73, 0
2, 30875, Note_on_c, 5, 69, 0
2, 30900, Note_on_c, 5, 73, 64
2, 30900, Note_on_c, 5, 65, 64
2, 30960, Note_on_c, 5, 65, 0
2, 30960, Note_on_c, 5, 73, 0
2, 30960, Note_on_c, 5, 78, 64
2, 30960, Note_on_c, 5, 66, 64
2, 30995, Note_on_c, 5, 66, 0
2, 31020, Note_on_c, 5, 69, 64
2, 31080, Note_on_c, 5, 69, 0
2, 31080, Note_on_c, 5, 71, 64
2, 31140, Note_on_c, 5, 71, 0
2, 31140, Note_on_c, 5, 62, 64
2, 31200, Note_on_c, 5, 62, 0
2, 31200, Note_on_c, 5, 78, 0
2, 31200, Note_on_c, 5, 77, 64
2, 31200, Note_on_c, 5, 61, 64
2, 31235, Note_on_c, 5, 61, 0
2, 31260, Note_on_c, 5, 77, 0
2, 31260, Note_on_c, 5, 80, 64
2, 31260, Note_on_c, 5, 71, 64
2, 31320, Note_on_c, 5, 71, 0
2, 31320, Note_on_c, 5, 69, 64
2, 31380, Note_on_c, 5, 80, 0
2, 31380, Note_on_c, 5, 73, 64
2, 31440, Note_on_c, 5, 73, 0
2, 31440, Note_on_c, 5, 78, 64
2, 31500, Note_on_c, 5, 69, 0
2, 31500, Note_on_c, 5, 71, 64
2, 31530, Note_on_c, 5, 71, 0
2, 31530, Note_on_c, 5, 73, 64
2, 31560, Note_on_c, 5, 73, 0
2, 31560, Note_on_c, 5, 71, 64
2, 31680, Note_on_c, 5, 78, 0
2, 31680, Note_on_c, 5, 77, 64
2, 31740, Note_on_c, 5, 71, 0
2, 31740, Note_on_c, 5, 73, 64
2, 31770, Note_on_c, 5, 73, 0
2, 31770, Note_on_c, 5, 74, 64
2, 31800, Note_on_c, 5, 74, 0
2, 31800, Note_on_c, 5, 77, 0
2, 31800, Note_on_c, 5, 78, 64
2, 31800, Note_on_c, 5, 73, 64
2, 31980, Note_on_c, 5, 73, 0
2, 31980, Note_on_c, 5, 74, 64
2, 32010, Note_on_c, 5, 74, 0
2, 32010, Note_on_c, 5, 76, 64
2, 32040, Note_on_c, 5, 76, 0
2, 32040, Note_on_c, 5, 74, 64
2, 32100, Note_on_c, 5, 78, 0
2, 32100, Note_on_c, 5, 76, 64
2, 32160, Note_on_c, 5, 76, 0
2, 32160, Note_on_c, 5, 74, 64
2, 32220, Note_on_c, 5, 74, 0
2, 32220, Note_on_c, 5, 73, 64
2, 32280, Note_on_c, 5, 73, 0
2, 32280, Note_on_c, 5, 71, 64
2, 32340, Note_on_c, 5, 74, 0
2, 32340, Note_on_c, 5, 68, 64
2, 32400, Note_on_c, 5, 68, 0
2, 32400, Note_on_c, 5, 71, 0
2, 32400, Note_on_c, 5, 80, 64
2, 32400, Note_on_c, 5, 73, 64
2, 32460, Note_on_c, 5, 73, 0
2, 32460, Note_on_c, 5, 71, 64
2, 32520, Note_on_c, 5, 71, 0
2, 32520, Note_on_c, 5, 69, 64
2, 32580, Note_on_c, 5, 69, 0
2, 32580, Note_on_c, 5, 80, 0
2, 32580, Note_on_c, 5, 73, 64
2, 32580, Note_on_c, 5, 68, 64
2, 32610, Note_on_c, 5, 68, 0
2, 32610, Note_on_c, 5, 66, 64
2, 32640, Note_on_c, 5, 66, 0
2, 32640, Note_on_c, 5, 73, 0
2, 32640, Note_on_c, 5, 78, 64
2, 32640, Note_on_c, 5, 73, 64
2, 32700, Note_on_c, 5, 78, 0
2, 32700, Note_on_c, 5, 76, 64
2, 32760, Note_on_c, 5, 76, 0
2, 32760, Note_on_c, 5, 74, 64
2, 32820, Note_on_c, 5, 73, 0
2, 32820, Note_on_c, 5, 66, 64
2, 32880, Note_on_c, 5, 66, 0
2, 32880, Note_on_c, 5, 71, 64
2, 32940, Note_on_c, 5, 71, 0
2, 32940, Note_on_c, 5, 69, 64
2, 33000, Note_on_c, 5, 69, 0
2, 33000, Note_on_c, 5, 68, 64
2, 33060, Note_on_c, 5, 74, 0
2, 33060, Note_on_c, 5, 68, 64
2, 33120, Note_on_c, 5, 68, 0
2, 33120, Note_on_c, 5, 73, 64
2, 33180, Note_on_c, 5, 73, 0
2, 33180, Note_on_c, 5, 71, 64
2, 33240, Note_on_c, 5, 71, 0
2, 33240, Note_on_c, 5, 69, 64
2, 33360, Note_on_c, 5, 68, 0
2, 33360, Note_on_c, 5, 66, 64
2, 33420, Note_on_c, 5, 66, 0
2, 33420, Note_on_c, 5, 64, 64
2, 33480, Note_on_c, 5, 64, 0
2, 33480, Note_on_c, 5, 62, 64
2, 33540, Note_on_c, 5, 62, 0
2, 33540, Note_on_c, 5, 69, 0
2, 33540, Note_on_c, 5, 77, 64
2, 33540, Note_on_c, 5, 68, 64
2, 33600, Note_on_c, 5, 68, 0
2, 33600, Note_on_c, 5, 77, 0
2, 33600, Note_on_c, 5, 78, 64
2, 33600, Note_on_c, 5, 69, 64
2, 33635, Note_on_c, 5, 69, 0
2, 33635, Note_on_c, 5, 78, 0
2, 33660, Note_on_c, 5, 69, 64
2, 33660, Note_on_c, 5, 66, 64
2, 33720, Note_on_c, 5, 66, 0
2, 33720, Note_on_c, 5, 69, 0
2, 33720, Note_on_c, 5, 68, 64
2, 33720, Note_on_c, 5, 65, 64
2, 33755, Note_on_c, 5, 65, 0
2, 33755, Note_on_c, 5, 68, 0
2, 33780, Note_on_c, 5, 77, 64
2, 33780, Note_on_c, 5, 68, 64
2, 33840, Note_on_c, 5, 68, 0
2, 33840, Note_on_c, 5, 77, 0
2, 33840, Note_on_c, 5, 78, 64
2, 33840, Note_on_c, 5, 69, 64
2, 33900, Note_on_c, 5, 69, 0
2, 33900, Note_on_c, 5, 78, 0
2, 33900, Note_on_c, 5, 80, 64
2, 33900, Note_on_c, 5, 71, 64
2, 33960, Note_on_c, 5, 71, 0
2, 33960, Note_on_c, 5, 80, 0
2, 33960, Note_on_c, 5, 73, 64
2, 33960, Note_on_c, 5, 73, 64
2, 33995, Note_on_c, 5, 73, 0
2, 33995, Note_on_c, 5, 73, 0
2, 34020, Note_on_c, 5, 65, 64
2, 34020, Note_on_c, 5, 74, 64
2, 34080, Note_on_c, 5, 74, 0
2, 34080, Note_on_c, 5, 65, 0
2, 34080, Note_on_c, 5, 66, 64
2, 34080, Note_on_c, 5, 73, 64
2, 34115, Note_on_c, 5, 73, 0
2, 34115, Note_on_c, 5, 66, 0
2, 34140, Note_on_c, 5, 74, 64
2, 34140, Note_on_c, 5, 66, 64
2, 34200, Note_on_c, 5, 74, 0
2, 34200, Note_on_c, 5, 69, 64
2, 34260, Note_on_c, 5, 69, 0
2, 34260, Note_on_c, 5, 66, 0
2, 34260, Note_on_c, 5, 68, 64
2, 34260, Note_on_c, 5, 65, 64
2, 34380, Note_on_c, 5, 65, 0
2, 34380, Note_on_c, 5, 68, 0
2, 34380, Note_on_c, 5, 69, 64
2, 34380, Note_on_c, 5, 66, 64
2, 34440, Note_on_c, 5, 66, 0
2, 34440, Note_on_c, 5, 69, 0
2, 34440, Note_on_c, 5, 71, 64
2, 34440, Note_on_c, 5, 68, 64
2, 34475, Note_on_c, 5, 68, 0
2, 34475, Note_on_c, 5, 71, 0
2, 34500, Note_on_c, 5, 74, 64
2, 34500, Note_on_c, 5, 71, 64
2, 34560, Note_on_c, 5, 71, 0
2, 34560, Note_on_c, 5, 74, 0
2, 34560, Note_on_c, 5, 73, 64
2, 34560, Note_on_c, 5, 69, 64
2, 34620, Note_on_c, 5, 69, 0
2, 34620, Note_on_c, 5, 73, 0
2, 34620, Note_on_c, 5, 71, 64
2, 34620, Note_on_c, 5, 68, 64
2, 34680, Note_on_c, 5, 68, 0
2, 34680, Note_on_c, 5, 71, 0
2, 34680, Note_on_c, 5, 69, 64
2, 34680, Note_on_c, 5, 66, 64
2, 34800, Note_on_c, 5, 66, 0
2, 34800, Note_on_c, 5, 69, 0
2, 34800, Note_on_c, 5, 68, 64
2, 34800, Note_on_c, 5, 65, 64
2, 34920, Note_on_c, 5, 65, 0
2, 34920, Note_on_c, 5, 68, 0
2, 34920, Note_on_c, 5, 66, 64
2, 34920, Note_on_c, 5, 66, 64
2, 35040, Note_on_c, 5, 66, 0
2, 35040, Note_on_c, 5, 66, 0
2, 36060, Note_on_c, 5, 77, 64
2, 36060, Note_on_c, 5, 73, 64
2, 36095, Note_on_c, 5, 73, 0
2, 36095, Note_on_c, 5, 77, 0
2, 36120, Note_on_c, 5, 78, 83
2, 36120, Note_on_c, 5, 73, 83
2, 36180, Note_on_c, 5, 73, 0
2, 36180, Note_on_c, 5, 78, 0
2, 36180, Note_on_c, 5, 73, 64
2, 36180, Note_on_c, 5, 78, 64
2, 36240, Note_on_c, 5, 78, 0
2, 36240, Note_on_c, 5, 73, 0
2, 36240, Note_on_c, 5, 72, 64
2, 36240, Note_on_c, 5, 80, 64
2, 36275, Note_on_c, 5, 80, 0
2, 36275, Note_on_c, 5, 72, 0
2, 36300, Note_on_c, 5, 78, 64
2, 36300, Note_on_c, 5, 72, 64
2, 36335, Note_on_c, 5, 72, 0
2, 36335, Note_on_c, 5, 78, 0
2, 36360, Note_on_c, 5, 77, 83
2, 36360, Note_on_c, 5, 73, 83
2, 36420, Note_on_c, 5, 73, 0
2, 36420, Note_on_c, 5, 77, 0
2, 36420, Note_on_c, 5, 71, 64
2, 36420, Note_on_c, 5, 77, 64
2, 36480, Note_on_c, 5, 77, 0
2, 36480, Note_on_c, 5, 71, 0
2, 36480, Note_on_c, 5, 70, 64
2, 36480, Note_on_c, 5, 78, 64
2, 36515, Note_on_c, 5, 78, 0
2, 36515, Note_on_c, 5, 70, 0
2, 36540, Note_on_c, 5, 76, 64
2, 36540, Note_on_c, 5, 70, 64
2, 36575, Note_on_c, 5, 70, 0
2, 36575, Note_on_c, 5, 76, 0
2, 36600, Note_on_c, 5, 75, 83
2, 36600, Note_on_c, 5, 71, 83
2, 36660, Note_on_c, 5, 71, 0
2, 36660, Note_on_c, 5, 75, 0
2, 36660, Note_on_c, 5, 69, 64
2, 36660, Note_on_c, 5, 75, 64
2, 36720, Note_on_c, 5, 75, 0
2, 36720, Note_on_c, 5, 69, 0
2, 36720, Note_on_c, 5, 68, 64
2, 36720, Note_on_c, 5, 76, 64
2, 36755, Note_on_c, 5, 76, 0
2, 36755, Note_on_c, 5, 68, 0
2, 36780, Note_on_c, 5, 74, 64
2, 36780, Note_on_c, 5, 68, 64
2, 36840, Note_on_c, 5, 68, 0
2, 36840, Note_on_c, 5, 74, 0
2, 36840, Note_on_c, 5, 73, 64
2, 36840, Note_on_c, 5, 69, 64
2, 36900, Note_on_c, 5, 73, 0
2, 36900, Note_on_c, 5, 76, 64
2, 36930, Note_on_c, 5, 69, 0
2, 36930, Note_on_c, 5, 69, 64
2, 36960, Note_on_c, 5, 69, 0
2, 36960, Note_on_c, 5, 76, 0
2, 36960, Note_on_c, 5, 81, 64
2, 36960, Note_on_c, 5, 69, 64
2, 36995, Note_on_c, 5, 69, 0
2, 37020, Note_on_c, 5, 69, 64
2, 37080, Note_on_c, 5, 69, 0
2, 37080, Note_on_c, 5, 71, 64
2, 37140, Note_on_c, 5, 71, 0
2, 37140, Note_on_c, 5, 66, 64
2, 37200, Note_on_c, 5, 66, 0
2, 37200, Note_on_c, 5, 81, 0
2, 37200, Note_on_c, 5, 80, 64
2, 37200, Note_on_c, 5, 64, 64
2, 37235, Note_on_c, 5, 64, 0
2, 37260, Note_on_c, 5, 71, 64
2, 37320, Note_on_c, 5, 71, 0
2, 37320, Note_on_c, 5, 80, 0
2, 37320, Note_on_c, 5, 81, 64
2, 37320, Note_on_c, 5, 73, 64
2, 37380, Note_on_c, 5, 73, 0
2, 37380, Note_on_c, 5, 66, 64
2, 37440, Note_on_c, 5, 66, 0
2, 37440, Note_on_c, 5, 81, 0
2, 37440, Note_on_c, 5, 79, 64
2, 37440, Note_on_c, 5, 64, 64
2, 37475, Note_on_c, 5, 64, 0
2, 37500, Note_on_c, 5, 73, 64
2, 37560, Note_on_c, 5, 73, 0
2, 37560, Note_on_c, 5, 79, 0
2, 37560, Note_on_c, 5, 78, 64
2, 37560, Note_on_c, 5, 74, 64
2, 37590, Note_on_c, 5, 74, 0
2, 37590, Note_on_c, 5, 73, 64
2, 37620, Note_on_c, 5, 73, 0
2, 37620, Note_on_c, 5, 71, 64
2, 37710, Note_on_c, 5, 71, 0
2, 37710, Note_on_c, 5, 69, 64
2, 37740, Note_on_c, 5, 69, 0
2, 37740, Note_on_c, 5, 68, 64
2, 37770, Note_on_c, 5, 68, 0
2, 37770, Note_on_c, 5, 69, 64
2, 37800, Note_on_c, 5, 69, 0
2, 37800, Note_on_c, 5, 68, 64
2, 37830, Note_on_c, 5, 78, 0
2, 37830, Note_on_c, 5, 76, 64
2, 37835, Note_on_c, 5, 68, 0
2, 37860, Note_on_c, 5, 76, 0
2, 37860, Note_on_c, 5, 74, 64
2, 37860, Note_on_c, 5, 78, 64
2, 37920, Note_on_c, 5, 78, 0
2, 37920, Note_on_c, 5, 76, 64
2, 37950, Note_on_c, 5, 74, 0
2, 37950, Note_on_c, 5, 73, 64
2, 37980, Note_on_c, 5, 73, 0
2, 37980, Note_on_c, 5, 76, 0
2, 37980, Note_on_c, 5, 71, 64
2, 37980, Note_on_c, 5, 74, 64
2, 38010, Note_on_c, 5, 71, 0
2, 38010, Note_on_c, 5, 73, 64
2, 38040, Note_on_c, 5, 73, 0
2, 38040, Note_on_c, 5, 74, 0
2, 38040, Note_on_c, 5, 69, 83
2, 38040, Note_on_c, 5, 73, 83
2, 38100, Note_on_c, 5, 73, 0
2, 38100, Note_on_c, 5, 69, 0
2, 38100, Note_on_c, 5, 76, 64
2, 38100, Note_on_c, 5, 68, 64
2, 38160, Note_on_c, 5, 68, 0
2, 38160, Note_on_c, 5, 76, 0
2, 38160, Note_on_c, 5, 75, 64
2, 38160, Note_on_c, 5, 66, 64
2, 38195, Note_on_c, 5, 66, 0
2, 38195, Note_on_c, 5, 75, 0
2, 38220, Note_on_c, 5, 81, 64
2, 38220, Note_on_c, 5, 75, 64
2, 38255, Note_on_c, 5, 75, 0
2, 38255, Note_on_c, 5, 81, 0
2, 38280, Note_on_c, 5, 80, 83
2, 38280, Note_on_c, 5, 76, 83
2, 38340, Note_on_c, 5, 76, 0
2, 38340, Note_on_c, 5, 80, 0
2, 38340, Note_on_c, 5, 74, 64
2, 38340, Note_on_c, 5, 80, 64
2, 38400, Note_on_c, 5, 80, 0
2, 38400, Note_on_c, 5, 74, 0
2, 38400, Note_on_c, 5, 73, 64
2, 38400, Note_on_c, 5, 81, 64
2, 38435, Note_on_c, 5, 81, 0
2, 38435, Note_on_c, 5, 73, 0
2, 38460, Note_on_c, 5, 79, 64
2, 38460, Note_on_c, 5, 73, 64
2, 38495, Note_on_c, 5, 73, 0
2, 38495, Note_on_c, 5, 79, 0
2, 38520, Note_on_c, 5, 78, 83
2, 38520, Note_on_c, 5, 74, 83
2, 38580, Note_on_c, 5, 74, 0
2, 38580, Note_on_c, 5, 78, 0
2, 38580, Note_on_c, 5, 72, 64
2, 38580, Note_on_c, 5, 78, 64
2, 38640, Note_on_c, 5, 78, 0
2, 38640, Note_on_c, 5, 72, 0
2, 38640, Note_on_c, 5, 71, 64
2, 38640, Note_on_c, 5, 79, 64
2, 38675, Note_on_c, 5, 79, 0
2, 38675, Note_on_c, 5, 71, 0
2, 38700, Note_on_c, 5, 78, 64
2, 38700, Note_on_c, 5, 71, 64
2, 38735, Note_on_c, 5, 71, 0
2, 38735, Note_on_c, 5, 78, 0
2, 38760, Note_on_c, 5, 77, 83
2, 38760, Note_on_c, 5, 73, 83
2, 38820, Note_on_c, 5, 73, 0
2, 38820, Note_on_c, 5, 77, 0
2, 38820, Note_on_c, 5, 71, 64
2, 38820, Note_on_c, 5, 77, 64
2, 38880, Note_on_c, 5, 77, 0
2, 38880, Note_on_c, 5, 71, 0
2, 38880, Note_on_c, 5, 70, 64
2, 38880, Note_on_c, 5, 78, 64
2, 38915, Note_on_c, 5, 78, 0
2, 38915, Note_on_c, 5, 70, 0
2, 38940, Note_on_c, 5, 76, 64
2, 38940, Note_on_c, 5, 70, 64
2, 38975, Note_on_c, 5, 70, 0
2, 38975, Note_on_c, 5, 76, 0
2, 39000, Control_c, 5, 7, 70
2, 39000, Control_c, 5, 7, 70
2, 39000, Note_on_c, 5, 74, 64
2, 39000, Note_on_c, 5, 71, 64
2, 39035, Note_on_c, 5, 71, 0
2, 39035, Note_on_c, 5, 74, 0
2, 39060, Note_on_c, 5, 78, 64
2, 39060, Note_on_c, 5, 74, 64
2, 39120, Note_on_c, 5, 74, 0
2, 39120, Note_on_c, 5, 78, 0
2, 39120, Note_on_c, 5, 83, 64
2, 39120, Note_on_c, 5, 79, 64
2, 39180, Note_on_c, 5, 79, 0
2, 39180, Note_on_c, 5, 78, 64
2, 39240, Note_on_c, 5, 78, 0
2, 39240, Note_on_c, 5, 76, 64
2, 39300, Note_on_c, 5, 76, 0
2, 39300, Note_on_c, 5, 74, 64
2, 39330, Note_on_c, 5, 74, 0
2, 39330, Note_on_c, 5, 76, 64
2, 39360, Note_on_c, 5, 76, 0
2, 39360, Note_on_c, 5, 83, 0
2, 39360, Note_on_c, 5, 82, 64
2, 39360, Note_on_c, 5, 78, 64
2, 39480, Note_on_c, 5, 82, 0
2, 39480, Note_on_c, 5, 83, 64
2, 39540, Note_on_c, 5, 78, 0
2, 39540, Note_on_c, 5, 76, 64
2, 39600, Note_on_c, 5, 76, 0
2, 39600, Note_on_c, 5, 83, 0
2, 39600, Note_on_c, 5, 81, 64
2, 39600, Note_on_c, 5, 75, 64
2, 39635, Note_on_c, 5, 75, 0
2, 39660, Note_on_c, 5, 78, 64
2, 39720, Note_on_c, 5, 78, 0
2, 39720, Note_on_c, 5, 81, 0
2, 39720, Note_on_c, 5, 79, 64
2, 39720, Note_on_c, 5, 71, 64
2, 39780, Note_on_c, 5, 71, 0
2, 39780, Note_on_c, 5, 76, 64
2, 39810, Note_on_c, 5, 76, 0
2, 39810, Note_on_c, 5, 78, 64
2, 39840, Note_on_c, 5, 78, 0
2, 39840, Note_on_c, 5, 76, 64
2, 39900, Note_on_c, 5, 76, 0
2, 39900, Note_on_c, 5, 74, 64
2, 39960, Note_on_c, 5, 74, 0
2, 39960, Note_on_c, 5, 73, 64
2, 40020, Note_on_c, 5, 73, 0
2, 40020, Note_on_c, 5, 79, 0
2, 40020, Note_on_c, 5, 70, 64
2, 40020, Note_on_c, 5, 76, 64
2, 40080, Note_on_c, 5, 76, 0
2, 40080, Note_on_c, 5, 70, 0
2, 40080, Note_on_c, 5, 71, 64
2, 40080, Note_on_c, 5, 74, 64
2, 40140, Note_on_c, 5, 74, 0
2, 40140, Note_on_c, 5, 71, 0
2, 40140, Note_on_c, 5, 73, 64
2, 40140, Note_on_c, 5, 73, 64
2, 40200, Note_on_c, 5, 73, 0
2, 40200, Note_on_c, 5, 73, 0
2, 40200, Note_on_c, 5, 74, 64
2, 40200, Note_on_c, 5, 71, 64
2, 40260, Note_on_c, 5, 74, 0
2, 40260, Note_on_c, 5, 76, 64
2, 40290, Note_on_c, 5, 76, 0
2, 40290, Note_on_c, 5, 74, 64
2, 40320, Note_on_c, 5, 74, 0
2, 40320, Note_on_c, 5, 73, 64
2, 40380, Note_on_c, 5, 73, 0
2, 40380, Note_on_c, 5, 71, 0
2, 40380, Note_on_c, 5, 74, 64
2, 40380, Note_on_c, 5, 69, 64
2, 40410, Note_on_c, 5, 74, 0
2, 40410, Note_on_c, 5, 73, 64
2, 40440, Note_on_c, 5, 73, 0
2, 40440, Note_on_c, 5, 69, 0
2, 40440, Note_on_c, 5, 71, 64
2, 40440, Note_on_c, 5, 68, 64
2, 40500, Note_on_c, 5, 68, 0
2, 40500, Note_on_c, 5, 71, 0
2, 40500, Note_on_c, 5, 69, 64
2, 40500, Note_on_c, 5, 66, 64
2, 40530, Note_on_c, 5, 69, 0
2, 40530, Note_on_c, 5, 71, 64
2, 40560, Note_on_c, 5, 71, 0
2, 40560, Note_on_c, 5, 66, 0
2, 40560, Note_on_c, 5, 73, 64
2, 40560, Note_on_c, 5, 68, 64
2, 40620, Note_on_c, 5, 73, 0
2, 40620, Note_on_c, 5, 71, 64
2, 40680, Note_on_c, 5, 71, 0
2, 40680, Note_on_c, 5, 68, 0
2, 40680, Note_on_c, 5, 69, 64
2, 40680, Note_on_c, 5, 66, 64
2, 40740, Note_on_c, 5, 69, 0
2, 40740, Note_on_c, 5, 78, 64
2, 40770, Note_on_c, 5, 78, 0
2, 40770, Note_on_c, 5, 76, 64
2, 40800, Note_on_c, 5, 76, 0
2, 40800, Note_on_c, 5, 78, 64
2, 40860, Note_on_c, 5, 78, 0
2, 40860, Note_on_c, 5, 73, 64
2, 40920, Note_on_c, 5, 73, 0
2, 40920, Note_on_c, 5, 74, 64
2, 40980, Note_on_c, 5, 66, 0
2, 40980, Note_on_c, 5, 71, 64
2, 41010, Note_on_c, 5, 71, 0
2, 41010, Note_on_c, 5, 70, 64
2, 41040, Note_on_c, 5, 70, 0
2, 41040, Note_on_c, 5, 71, 64
2, 41100, Note_on_c, 5, 71, 0
2, 41100, Note_on_c, 5, 74, 64
2, 41160, Note_on_c, 5, 74, 0
2, 41160, Note_on_c, 5, 68, 64
2, 41220, Note_on_c, 5, 68, 0
2, 41220, Note_on_c, 5, 74, 0
2, 41220, Note_on_c, 5, 68, 64
2, 41220, Note_on_c, 5, 80, 64
2, 41280, Note_on_c, 5, 80, 0
2, 41280, Note_on_c, 5, 68, 0
2, 41280, Note_on_c, 5, 69, 64
2, 41280, Note_on_c, 5, 78, 64
2, 41340, Note_on_c, 5, 78, 0
2, 41340, Note_on_c, 5, 69, 0
2, 41340, Note_on_c, 5, 71, 64
2, 41340, Note_on_c, 5, 77, 64
2, 41400, Note_on_c, 5, 77, 0
2, 41400, Note_on_c, 5, 71, 0
2, 41400, Note_on_c, 5, 73, 64
2, 41400, Note_on_c, 5, 78, 64
2, 41460, Note_on_c, 5, 78, 0
2, 41460, Note_on_c, 5, 73, 0
2, 41460, Note_on_c, 5, 71, 64
2, 41460, Note_on_c, 5, 73, 64
2, 41490, Note_on_c, 5, 71, 0
2, 41490, Note_on_c, 5, 69, 64
2, 41520, Note_on_c, 5, 69, 0
2, 41520, Note_on_c, 5, 73, 0
2, 41520, Note_on_c, 5, 78, 64
2, 41520, Note_on_c, 5, 71, 64
2, 41580, Note_on_c, 5, 71, 0
2, 41580, Note_on_c, 5, 78, 0
2, 41580, Note_on_c, 5, 74, 64
2, 41580, Note_on_c, 5, 69, 64
2, 41610, Note_on_c, 5, 69, 0
2, 41610, Note_on_c, 5, 71, 64
2, 41640, Note_on_c, 5, 71, 0
2, 41640, Note_on_c, 5, 74, 0
2, 41640, Note_on_c, 5, 71, 64
2, 41640, Note_on_c, 5, 68, 64
2, 41700, Note_on_c, 5, 68, 0
2, 41700, Note_on_c, 5, 71, 0
2, 41700, Note_on_c, 5, 73, 64
2, 41700, Note_on_c, 5, 69, 64
2, 41730, Note_on_c, 5, 73, 0
2, 41730, Note_on_c, 5, 74, 64
2, 41760, Note_on_c, 5, 74, 0
2, 41760, Note_on_c, 5, 69, 0
2, 41760, Note_on_c, 5, 76, 64
2, 41760, Note_on_c, 5, 71, 64
2, 41820, Note_on_c, 5, 71, 0
2, 41820, Note_on_c, 5, 76, 0
2, 41820, Note_on_c, 5, 71, 64
2, 41820, Note_on_c, 5, 68, 64
2, 41880, Note_on_c, 5, 68, 0
2, 41880, Note_on_c, 5, 71, 0
2, 41880, Note_on_c, 5, 73, 64
2, 41880, Note_on_c, 5, 64, 64
2, 41910, Note_on_c, 5, 73, 0
2, 41910, Note_on_c, 5, 71, 64
2, 41940, Note_on_c, 5, 71, 0
2, 41940, Note_on_c, 5, 64, 0
2, 41940, Note_on_c, 5, 73, 64
2, 41940, Note_on_c, 5, 69, 64
2, 41970, Note_on_c, 5, 73, 0
2, 41970, Note_on_c, 5, 74, 64
2, 42000, Note_on_c, 5, 74, 0
2, 42000, Note_on_c, 5, 76, 64
2, 42060, Note_on_c, 5, 76, 0
2, 42060, Note_on_c, 5, 69, 0
2, 42060, Note_on_c, 5, 72, 64
2, 42060, Note_on_c, 5, 67, 64
2, 42090, Note_on_c, 5, 67, 0
2, 42090, Note_on_c, 5, 69, 64
2, 42120, Note_on_c, 5, 69, 0
2, 42120, Note_on_c, 5, 72, 0
2, 42120, Note_on_c, 5, 69, 64
2, 42120, Note_on_c, 5, 66, 64
2, 42180, Note_on_c, 5, 66, 0
2, 42180, Note_on_c, 5, 69, 0
2, 42180, Note_on_c, 5, 71, 64
2, 42180, Note_on_c, 5, 67, 64
2, 42210, Note_on_c, 5, 71, 0
2, 42210, Note_on_c, 5, 72, 64
2, 42240, Note_on_c, 5, 72, 0
2, 42240, Note_on_c, 5, 67, 0
2, 42240, Note_on_c, 5, 74, 64
2, 42240, Note_on_c, 5, 69, 64
2, 42300, Note_on_c, 5, 69, 0
2, 42300, Note_on_c, 5, 74, 0
2, 42300, Note_on_c, 5, 69, 64
2, 42300, Note_on_c, 5, 66, 64
2, 42360, Note_on_c, 5, 66, 0
2, 42360, Note_on_c, 5, 69, 0
2, 42360, Note_on_c, 5, 71, 64
2, 42360, Note_on_c, 5, 62, 64
2, 42420, Note_on_c, 5, 71, 0
2, 42420, Note_on_c, 5, 74, 64
2, 42480, Note_on_c, 5, 74, 0
2, 42480, Note_on_c, 5, 62, 0
2, 42480, Note_on_c, 5, 79, 64
2, 42540, Note_on_c, 5, 79, 0
2, 42540, Note_on_c, 5, 78, 64
2, 42540, Note_on_c, 5, 62, 64
2, 42600, Note_on_c, 5, 62, 0
2, 42600, Note_on_c, 5, 78, 0
2, 42600, Note_on_c, 5, 76, 64
2, 42600, Note_on_c, 5, 67, 64
2, 42630, Note_on_c, 5, 67, 0
2, 42630, Note_on_c, 5, 76, 0
2, 42630, Note_on_c, 5, 74, 64
2, 42630, Note_on_c, 5, 66, 64
2, 42660, Note_on_c, 5, 66, 0
2, 42660, Note_on_c, 5, 74, 0
2, 42660, Note_on_c, 5, 73, 64
2, 42660, Note_on_c, 5, 64, 64
2, 42780, Note_on_c, 5, 64, 0
2, 42780, Note_on_c, 5, 73, 0
2, 42780, Note_on_c, 5, 78, 64
2, 42780, Note_on_c, 5, 70, 64
2, 42810, Note_on_c, 5, 78, 0
2, 42810, Note_on_c, 5, 76, 64
2, 42840, Note_on_c, 5, 76, 0
2, 42840, Note_on_c, 5, 70, 0
2, 42840, Note_on_c, 5, 74, 64
2, 42840, Note_on_c, 5, 66, 64
2, 42870, Note_on_c, 5, 74, 0
2, 42870, Note_on_c, 5, 73, 64
2, 42900, Note_on_c, 5, 73, 0
2, 42900, Note_on_c, 5, 66, 0
2, 42900, Note_on_c, 5, 71, 64
2, 42900, Note_on_c, 5, 71, 64
2, 42930, Note_on_c, 5, 71, 0
2, 42930, Note_on_c, 5, 73, 64
2, 42960, Note_on_c, 5, 73, 0
2, 42960, Note_on_c, 5, 75, 64
2, 43020, Note_on_c, 5, 75, 0
2, 43020, Note_on_c, 5, 71, 0
2, 43020, Note_on_c, 5, 78, 64
2, 43020, Note_on_c, 5, 78, 64
2, 43080, Note_on_c, 5, 78, 0
2, 43080, Note_on_c, 5, 78, 0
2, 43080, Note_on_c, 5, 83, 64
2, 43080, Note_on_c, 5, 79, 64
2, 43200, Note_on_c, 5, 79, 0
2, 43200, Note_on_c, 5, 83, 0
2, 43260, Note_on_c, 5, 79, 64
2, 43260, Note_on_c, 5, 76, 64
2, 43380, Note_on_c, 5, 76, 0
2, 43380, Note_on_c, 5, 79, 0
2, 43380, Note_on_c, 5, 73, 64
2, 43380, Note_on_c, 5, 73, 64
2, 43440, Note_on_c, 5, 73, 0
2, 43440, Note_on_c, 5, 73, 0
2, 43440, Note_on_c, 5, 74, 64
2, 43440, Note_on_c, 5, 71, 64
2, 43500, Note_on_c, 5, 71, 0
2, 43500, Note_on_c, 5, 74, 0
2, 43500, Note_on_c, 5, 76, 64
2, 43500, Note_on_c, 5, 70, 64
2, 43560, Note_on_c, 5, 70, 0
2, 43560, Note_on_c, 5, 76, 0
2, 43560, Note_on_c, 5, 78, 64
2, 43560, Note_on_c, 5, 71, 64
2, 43620, Note_on_c, 5, 78, 0
2, 43620, Note_on_c, 5, 76, 64
2, 43680, Note_on_c, 5, 76, 0
2, 43680, Note_on_c, 5, 71, 0
2, 43680, Note_on_c, 5, 74, 64
2, 43740, Note_on_c, 5, 69, 64
2, 43800, Note_on_c, 5, 69, 0
2, 43800, Note_on_c, 5, 71, 64
2, 43830, Note_on_c, 5, 71, 0
2, 43830, Note_on_c, 5, 74, 0
2, 43830, Note_on_c, 5, 73, 64
2, 43830, Note_on_c, 5, 69, 64
2, 43860, Note_on_c, 5, 69, 0
2, 43860, Note_on_c, 5, 73, 0
2, 43860, Note_on_c, 5, 71, 64
2, 43860, Note_on_c, 5, 68, 64
2, 43980, Note_on_c, 5, 68, 0
2, 43980, Note_on_c, 5, 71, 0
2, 43980, Note_on_c, 5, 73, 64
2, 43980, Note_on_c, 5, 65, 64
2, 44010, Note_on_c, 5, 73, 0
2, 44010, Note_on_c, 5, 71, 64
2, 44040, Note_on_c, 5, 71, 0
2, 44040, Note_on_c, 5, 65, 0
2, 44040, Note_on_c, 5, 69, 64
2, 44040, Note_on_c, 5, 66, 64
2, 44100, Note_on_c, 5, 69, 0
2, 44100, Note_on_c, 5, 66, 64
2, 44130, Note_on_c, 5, 66, 0
2, 44130, Note_on_c, 5, 68, 64
2, 44160, Note_on_c, 5, 68, 0
2, 44160, Note_on_c, 5, 66, 0
2, 44160, Note_on_c, 5, 70, 64
2, 44190, Note_on_c, 5, 70, 0
2, 44190, Note_on_c, 5, 71, 64
2, 44220, Note_on_c, 5, 71, 0
2, 44220, Note_on_c, 5, 73, 64
2, 44250, Note_on_c, 5, 73, 0
2, 44250, Note_on_c, 5, 70, 64
2, 44280, Note_on_c, 5, 70, 0
2, 44280, Note_on_c, 5, 71, 64
2, 44340, Note_on_c, 5, 74, 64
2, 44370, Note_on_c, 5, 74, 0
2, 44370, Note_on_c, 5, 73, 64
2, 44400, Note_on_c, 5, 73, 0
2, 44400, Note_on_c, 5, 71, 64
2, 44430, Note_on_c, 5, 71, 0
2, 44430, Note_on_c, 5, 69, 64
2, 44460, Note_on_c, 5, 69, 0
2, 44460, Note_on_c, 5, 68, 64
2, 44490, Note_on_c, 5, 68, 0
2, 44490, Note_on_c, 5, 69, 64
2, 44520, Note_on_c, 5, 69, 0
2, 44520, Note_on_c, 5, 71, 64
2, 44580, Note_on_c, 5, 71, 0
2, 44580, Note_on_c, 5, 71, 0
2, 44580, Note_on_c, 5, 74, 64
2, 44580, Note_on_c, 5, 71, 64
2, 44640, Note_on_c, 5, 71, 0
2, 44640, Note_on_c, 5, 74, 0
2, 44640, Note_on_c, 5, 73, 64
2, 44640, Note_on_c, 5, 68, 64
2, 44700, Note_on_c, 5, 68, 0
2, 44700, Note_on_c, 5, 73, 0
2, 44700, Note_on_c, 5, 71, 64
2, 44700, Note_on_c, 5, 65, 64
2, 44760, Note_on_c, 5, 65, 0
2, 44760, Note_on_c, 5, 71, 0
2, 44760, Note_on_c, 5, 69, 64
2, 44760, Note_on_c, 5, 66, 64
2, 44820, Note_on_c, 5, 66, 0
2, 44820, Note_on_c, 5, 69, 0
2, 44820, Note_on_c, 5, 68, 64
2, 44820, Note_on_c, 5, 68, 64
2, 44850, Note_on_c, 5, 68, 0
2, 44850, Note_on_c, 5, 66, 64
2, 44880, Note_on_c, 5, 66, 0
2, 44880, Note_on_c, 5, 68, 0
2, 44880, Note_on_c, 5, 74, 64
2, 44880, Note_on_c, 5, 69, 64
2, 44940, Note_on_c, 5, 69, 0
2, 44940, Note_on_c, 5, 62, 64
2, 45000, Note_on_c, 5, 62, 0
2, 45000, Note_on_c, 5, 68, 64
2, 45060, Note_on_c, 5, 68, 0
2, 45060, Note_on_c, 5, 74, 0
2, 45060, Note_on_c, 5, 69, 64
2, 45060, Note_on_c, 5, 69, 64
2, 45120, Note_on_c, 5, 69, 0
2, 45120, Note_on_c, 5, 69, 0
2, 45120, Note_on_c, 5, 68, 64
2, 45120, Note_on_c, 5, 71, 64
2, 45155, Note_on_c, 5, 68, 0
2, 45180, Note_on_c, 5, 74, 64
2, 45240, Note_on_c, 5, 74, 0
2, 45240, Note_on_c, 5, 73, 64
2, 45300, Note_on_c, 5, 73, 0
2, 45300, Note_on_c, 5, 71, 0
2, 45300, Note_on_c, 5, 71, 64
2, 45300, Note_on_c, 5, 64, 64
2, 45330, Note_on_c, 5, 71, 0
2, 45330, Note_on_c, 5, 69, 64
2, 45360, Note_on_c, 5, 69, 0
2, 45360, Note_on_c, 5, 64, 0
2, 45360, Note_on_c, 5, 76, 64
2, 45360, Note_on_c, 5, 71, 64
2, 45420, Note_on_c, 5, 71, 0
2, 45420, Note_on_c, 5, 73, 64
2, 45450, Note_on_c, 5, 73, 0
2, 45450, Note_on_c, 5, 71, 64
2, 45480, Note_on_c, 5, 71, 0
2, 45480, Note_on_c, 5, 70, 64
2, 45540, Note_on_c, 5, 70, 0
2, 45540, Note_on_c, 5, 76, 0
2, 45540, Note_on_c, 5, 71, 64
2, 45540, Note_on_c, 5, 71, 64
2, 45600, Note_on_c, 5, 71, 0
2, 45600, Note_on_c, 5, 71, 0
2, 45600, Note_on_c, 5, 70, 64
2, 45600, Note_on_c, 5, 73, 64
2, 45635, Note_on_c, 5, 70, 0
2, 45660, Note_on_c, 5, 76, 64
2, 45720, Note_on_c, 5, 76, 0
2, 45720, Note_on_c, 5, 73, 0
2, 45720, Note_on_c, 5, 74, 64
2, 45720, Note_on_c, 5, 71, 64
2, 45780, Note_on_c, 5, 71, 0
2, 45780, Note_on_c, 5, 74, 0
2, 45780, Note_on_c, 5, 73, 64
2, 45780, Note_on_c, 5, 69, 64
2, 45840, Note_on_c, 5, 69, 0
2, 45840, Note_on_c, 5, 73, 0
2, 45840, Note_on_c, 5, 71, 64
2, 45840, Note_on_c, 5, 68, 64
2, 45900, Note_on_c, 5, 68, 0
2, 45900, Note_on_c, 5, 71, 0
2, 45900, Note_on_c, 5, 69, 64
2, 45900, Note_on_c, 5, 66, 64
2, 45960, Note_on_c, 5, 66, 0
2, 45960, Note_on_c, 5, 69, 0
2, 45960, Note_on_c, 5, 68, 64
2, 45960, Note_on_c, 5, 65, 64
2, 46020, Note_on_c, 5, 65, 0
2, 46020, Note_on_c, 5, 68, 0
2, 46020, Note_on_c, 5, 69, 64
2, 46020, Note_on_c, 5, 66, 64
2, 46050, Note_on_c, 5, 69, 0
2, 46050, Note_on_c, 5, 71, 64
2, 46080, Note_on_c, 5, 71, 0
2, 46080, Note_on_c, 5, 66, 0
2, 46080, Note_on_c, 5, 73, 64
2, 46080, Note_on_c, 5, 68, 64
2, 46140, Note_on_c, 5, 68, 0
2, 46140, Note_on_c, 5, 66, 64
2, 46170, Note_on_c, 5, 66, 0
2, 46170, Note_on_c, 5, 65, 64
2, 46200, Note_on_c, 5, 65, 0
2, 46200, Note_on_c, 5, 66, 64
2, 46260, Note_on_c, 5, 66, 0
2, 46260, Note_on_c, 5, 73, 0
2, 46260, Note_on_c, 5, 71, 64
2, 46260, Note_on_c, 5, 65, 64
2, 46320, Note_on_c, 5, 65, 0
2, 46320, Note_on_c, 5, 71, 0
2, 46320, Note_on_c, 5, 69, 64
2, 46320, Note_on_c, 5, 66, 64
2, 46380, Note_on_c, 5, 66, 0
2, 46380, Note_on_c, 5, 69, 0
2, 46380, Note_on_c, 5, 67, 64
2, 46380, Note_on_c, 5, 64, 64
2, 46440, Note_on_c, 5, 64, 0
2, 46440, Note_on_c, 5, 67, 0
2, 46440, Note_on_c, 5, 66, 64
2, 46440, Note_on_c, 5, 63, 64
2, 46500, Note_on_c, 5, 63, 0
2, 46500, Note_on_c, 5, 66, 0
2, 46500, Note_on_c, 5, 67, 64
2, 46500, Note_on_c, 5, 64, 64
2, 46530, Note_on_c, 5, 67, 0
2, 46530, Note_on_c, 5, 69, 64
2, 46560, Note_on_c, 5, 69, 0
2, 46560, Note_on_c, 5, 64, 0
2, 46560, Note_on_c, 5, 71, 64
2, 46560, Note_on_c, 5, 66, 64
2, 46620, Note_on_c, 5, 66, 0
2, 46620, Note_on_c, 5, 64, 64
2, 46650, Note_on_c, 5, 64, 0
2, 46650, Note_on_c, 5, 63, 64
2, 46680, Note_on_c, 5, 63, 0
2, 46680, Control_c, 5, 7, 100
2, 46680, Control_c, 5, 7, 100
2, 46680, Note_on_c, 5, 64, 64
2, 46740, Note_on_c, 5, 71, 0
2, 46740, Note_on_c, 5, 73, 64
2, 46770, Note_on_c, 5, 73, 0
2, 46770, Note_on_c, 5, 64, 0
2, 46770, Note_on_c, 5, 75, 64
2, 46770, Note_on_c, 5, 64, 64
2, 46800, Note_on_c, 5, 64, 0
2, 46800, Note_on_c, 5, 75, 0
2, 46800, Note_on_c, 5, 76, 64
2, 46800, Note_on_c, 5, 64, 64
2, 46835, Note_on_c, 5, 64, 0
2, 46860, Note_on_c, 5, 64, 64
2, 46920, Note_on_c, 5, 64, 0
2, 46920, Note_on_c, 5, 66, 64
2, 46980, Note_on_c, 5, 66, 0
2, 47040, Note_on_c, 5, 76, 0
2, 47040, Note_on_c, 5, 75, 64
2, 47100, Note_on_c, 5, 66, 64
2, 47160, Note_on_c, 5, 66, 0
2, 47160, Note_on_c, 5, 75, 0
2, 47160, Note_on_c, 5, 76, 64
2, 47160, Note_on_c, 5, 67, 64
2, 47220, Note_on_c, 5, 67, 0
2, 47220, Note_on_c, 5, 76, 0
2, 47220, Note_on_c, 5, 69, 64
2, 47280, Note_on_c, 5, 69, 0
2, 47280, Note_on_c, 5, 68, 64
2, 47315, Note_on_c, 5, 68, 0
2, 47340, Note_on_c, 5, 64, 64
2, 47340, Note_on_c, 5, 68, 64
2, 47400, Note_on_c, 5, 68, 0
2, 47400, Note_on_c, 5, 64, 0
2, 47400, Note_on_c, 5, 69, 64
2, 47400, Note_on_c, 5, 69, 64
2, 47430, Note_on_c, 5, 69, 0
2, 47430, Note_on_c, 5, 67, 64
2, 47460, Note_on_c, 5, 67, 0
2, 47460, Note_on_c, 5, 65, 64
2, 47550, Note_on_c, 5, 65, 0
2, 47550, Note_on_c, 5, 64, 64
2, 47580, Note_on_c, 5, 64, 0
2, 47580, Note_on_c, 5, 63, 64
2, 47610, Note_on_c, 5, 63, 0
2, 47610, Note_on_c, 5, 64, 64
2, 47640, Note_on_c, 5, 64, 0
2, 47640, Note_on_c, 5, 63, 64
2, 47675, Note_on_c, 5, 63, 0
2, 47700, Note_on_c, 5, 72, 65
2, 47760, Note_on_c, 5, 72, 0
2, 47760, Note_on_c, 5, 69, 0
2, 47760, Note_on_c, 5, 67, 65
2, 47760, Note_on_c, 5, 71, 65
2, 47820, Note_on_c, 5, 71, 0
2, 47820, Note_on_c, 5, 67, 0
2, 47820, Note_on_c, 5, 66, 66
2, 47820, Note_on_c, 5, 69, 66
2, 47880, Note_on_c, 5, 69, 0
2, 47880, Note_on_c, 5, 66, 0
2, 47880, Note_on_c, 5, 64, 67
2, 47880, Note_on_c, 5, 67, 67
2, 47940, Note_on_c, 5, 67, 0
2, 47940, Note_on_c, 5, 64, 0
2, 47940, Note_on_c, 5, 66, 67
2, 47940, Note_on_c, 5, 66, 67
2, 47970, Note_on_c, 5, 66, 0
2, 47970, Note_on_c, 5, 64, 68
2, 48000, Note_on_c, 5, 64, 0
2, 48000, Note_on_c, 5, 66, 0
2, 48000, Note_on_c, 5, 68, 68
2, 48000, Note_on_c, 5, 74, 68
2, 48060, Note_on_c, 5, 68, 0
2, 48060, Note_on_c, 5, 69, 69
2, 48120, Note_on_c, 5, 69, 0
2, 48120, Note_on_c, 5, 71, 69
2, 48180, Note_on_c, 5, 71, 0
2, 48180, Note_on_c, 5, 74, 0
2, 48180, Note_on_c, 5, 73, 70
2, 48180, Note_on_c, 5, 69, 70
2, 48240, Note_on_c, 5, 69, 0
2, 48240, Note_on_c, 5, 73, 0
2, 48240, Note_on_c, 5, 74, 71
2, 48240, Note_on_c, 5, 68, 71
2, 48275, Note_on_c, 5, 68, 0
2, 48275, Note_on_c, 5, 74, 0
2, 48300, Note_on_c, 5, 68, 71
2, 48300, Note_on_c, 5, 74, 71
2, 48360, Note_on_c, 5, 74, 0
2, 48360, Note_on_c, 5, 68, 0
2, 48360, Note_on_c, 5, 69, 72
2, 48360, Note_on_c, 5, 73, 72
2, 48420, Note_on_c, 5, 73, 0
2, 48420, Note_on_c, 5, 71, 73
2, 48450, Note_on_c, 5, 71, 0
2, 48450, Note_on_c, 5, 69, 73
2, 48480, Note_on_c, 5, 69, 0
2, 48480, Note_on_c, 5, 69, 0
2, 48480, Note_on_c, 5, 76, 73
2, 48540, Note_on_c, 5, 71, 74
2, 48600, Note_on_c, 5, 71, 0
2, 48600, Note_on_c, 5, 73, 75
2, 48660, Note_on_c, 5, 73, 0
2, 48660, Note_on_c, 5, 76, 0
2, 48660, Note_on_c, 5, 74, 75
2, 48660, Note_on_c, 5, 71, 75
2, 48720, Note_on_c, 5, 71, 0
2, 48720, Note_on_c, 5, 74, 0
2, 48720, Note_on_c, 5, 76, 76
2, 48720, Note_on_c, 5, 70, 76
2, 48780, Note_on_c, 5, 70, 0
2, 48780, Note_on_c, 5, 76, 0
2, 48780, Note_on_c, 5, 70, 77
2, 48780, Note_on_c, 5, 76, 77
2, 48840, Note_on_c, 5, 76, 0
2, 48840, Note_on_c, 5, 70, 0
2, 48840, Note_on_c, 5, 71, 77
2, 48840, Note_on_c, 5, 74, 77
2, 48900, Note_on_c, 5, 74, 0
2, 48900, Note_on_c, 5, 76, 78
2, 48960, Note_on_c, 5, 76, 0
2, 48960, Note_on_c, 5, 71, 0
2, 48960, Note_on_c, 5, 78, 79
2, 49080, Note_on_c, 5, 71, 80
2, 49170, Note_on_c, 5, 71, 0
2, 49170, Note_on_c, 5, 71, 78
2, 49200, Note_on_c, 5, 71, 0
2, 49200, Note_on_c, 5, 78, 0
2, 49200, Note_on_c, 5, 71, 77
2, 49200, Note_on_c, 5, 76, 77
2, 49235, Note_on_c, 5, 71, 0
2, 49260, Note_on_c, 5, 71, 76
2, 49320, Note_on_c, 5, 71, 0
2, 49320, Note_on_c, 5, 76, 0
2, 49320, Note_on_c, 5, 73, 75
2, 49320, Note_on_c, 5, 78, 75
2, 49380, Note_on_c, 5, 73, 0
2, 49380, Note_on_c, 5, 67, 74
2, 49440, Note_on_c, 5, 67, 0
2, 49440, Note_on_c, 5, 78, 0
2, 49440, Note_on_c, 5, 66, 72
2, 49475, Note_on_c, 5, 66, 0
2, 49500, Note_on_c, 5, 73, 71
2, 49560, Note_on_c, 5, 73, 0
2, 49560, Note_on_c, 5, 74, 64
2, 49620, Note_on_c, 5, 74, 0
2, 49620, Note_on_c, 5, 67, 64
2, 49680, Note_on_c, 5, 67, 0
2, 49680, Note_on_c, 5, 66, 64
2, 49715, Note_on_c, 5, 66, 0
2, 49740, Note_on_c, 5, 75, 64
2, 49800, Note_on_c, 5, 75, 0
2, 49800, Note_on_c, 5, 76, 64
2, 49830, Note_on_c, 5, 76, 0
2, 49830, Note_on_c, 5, 74, 64
2, 49860, Note_on_c, 5, 74, 0
2, 49860, Note_on_c, 5, 72, 64
2, 49950, Note_on_c, 5, 72, 0
2, 49950, Note_on_c, 5, 71, 64
2, 49980, Note_on_c, 5, 71, 0
2, 49980, Note_on_c, 5, 70, 64
2, 50010, Note_on_c, 5, 70, 0
2, 50010, Note_on_c, 5, 71, 64
2, 50040, Note_on_c, 5, 71, 0
2, 50040, Note_on_c, 5, 70, 64
2, 50075, Note_on_c, 5, 70, 0
2, 50100, Note_on_c, 5, 79, 64
2, 50160, Note_on_c, 5, 79, 0
2, 50160, Note_on_c, 5, 78, 64
2, 50220, Note_on_c, 5, 78, 0
2, 50220, Note_on_c, 5, 76, 64
2, 50280, Note_on_c, 5, 76, 0
2, 50280, Note_on_c, 5, 74, 64
2, 50280, Note_on_c, 5, 66, 64
2, 50340, Note_on_c, 5, 74, 0
2, 50340, Note_on_c, 5, 73, 64
2, 50370, Note_on_c, 5, 73, 0
2, 50370, Note_on_c, 5, 66, 0
2, 50370, Note_on_c, 5, 71, 64
2, 50370, Note_on_c, 5, 66, 64
2, 50400, Note_on_c, 5, 66, 0
2, 50400, Note_on_c, 5, 71, 0
2, 50400, Note_on_c, 5, 78, 64
2, 50400, Note_on_c, 5, 66, 64
2, 50460, Note_on_c, 5, 66, 0
2, 50460, Note_on_c, 5, 66, 64
2, 50520, Note_on_c, 5, 66, 0
2, 50520, Note_on_c, 5, 68, 64
2, 50580, Note_on_c, 5, 68, 0
2, 50640, Note_on_c, 5, 78, 0
2, 50640, Note_on_c, 5, 77, 64
2, 50700, Note_on_c, 5, 68, 64
2, 50760, Note_on_c, 5, 68, 0
2, 50760, Note_on_c, 5, 77, 0
2, 50760, Note_on_c, 5, 78, 64
2, 50760, Note_on_c, 5, 69, 64
2, 50820, Note_on_c, 5, 69, 0
2, 50940, Note_on_c, 5, 70, 64
2, 51000, Note_on_c, 5, 70, 0
2, 51000, Note_on_c, 5, 71, 64
2, 51030, Note_on_c, 5, 71, 0
2, 51030, Note_on_c, 5, 69, 64
2, 51060, Note_on_c, 5, 69, 0
2, 51060, Note_on_c, 5, 78, 0
2, 51060, Note_on_c, 5, 76, 64
2, 51060, Note_on_c, 5, 67, 64
2, 51120, Note_on_c, 5, 76, 0
2, 51120, Note_on_c, 5, 74, 64
2, 51150, Note_on_c, 5, 67, 0
2, 51150, Note_on_c, 5, 66, 64
2, 51180, Note_on_c, 5, 66, 0
2, 51180, Note_on_c, 5, 74, 0
2, 51180, Note_on_c, 5, 73, 64
2, 51180, Note_on_c, 5, 65, 64
2, 51210, Note_on_c, 5, 65, 0
2, 51210, Note_on_c, 5, 66, 64
2, 51240, Note_on_c, 5, 66, 0
2, 51240, Note_on_c, 5, 73, 0
2, 51240, Note_on_c, 5, 71, 64
2, 51240, Note_on_c, 5, 65, 64
2, 51275, Note_on_c, 5, 65, 0
2, 51300, Note_on_c, 5, 74, 64
2, 51360, Note_on_c, 5, 74, 0
2, 51360, Note_on_c, 5, 71, 0
2, 51360, Note_on_c, 5, 80, 64
2, 51360, Note_on_c, 5, 73, 64
2, 51420, Note_on_c, 5, 73, 0
2, 51420, Note_on_c, 5, 71, 64
2, 51480, Note_on_c, 5, 71, 0
2, 51480, Note_on_c, 5, 69, 64
2, 51540, Note_on_c, 5, 69, 0
2, 51540, Note_on_c, 5, 80, 0
2, 51540, Note_on_c, 5, 73, 64
2, 51540, Note_on_c, 5, 68, 64
2, 51570, Note_on_c, 5, 68, 0
2, 51570, Note_on_c, 5, 66, 64
2, 51600, Note_on_c, 5, 66, 0
2, 51600, Note_on_c, 5, 73, 0
2, 51600, Note_on_c, 5, 78, 64
2, 51600, Note_on_c, 5, 73, 64
2, 51660, Note_on_c, 5, 78, 0
2, 51660, Note_on_c, 5, 76, 64
2, 51720, Note_on_c, 5, 76, 0
2, 51720, Note_on_c, 5, 74, 64
2, 51780, Note_on_c, 5, 73, 0
2, 51780, Note_on_c, 5, 66, 64
2, 51840, Note_on_c, 5, 66, 0
2, 51840, Note_on_c, 5, 71, 64
2, 51900, Note_on_c, 5, 71, 0
2, 51900, Note_on_c, 5, 69, 64
2, 51960, Note_on_c, 5, 69, 0
2, 51960, Note_on_c, 5, 68, 64
2, 52020, Note_on_c, 5, 74, 0
2, 52020, Note_on_c, 5, 68, 64
2, 52080, Note_on_c, 5, 68, 0
2, 52080, Note_on_c, 5, 73, 64
2, 52140, Note_on_c, 5, 73, 0
2, 52140, Note_on_c, 5, 71, 64
2, 52200, Note_on_c, 5, 71, 0
2, 52200, Note_on_c, 5, 69, 64
2, 52260, Note_on_c, 5, 68, 0
2, 52260, Note_on_c, 5, 61, 64
2, 52320, Note_on_c, 5, 61, 0
2, 52320, Note_on_c, 5, 66, 64
2, 52380, Note_on_c, 5, 66, 0
2, 52380, Note_on_c, 5, 64, 64
2, 52440, Note_on_c, 5, 64, 0
2, 52440, Note_on_c, 5, 62, 64
2, 52500, Note_on_c, 5, 69, 0
2, 52500, Note_on_c, 5, 77, 64
2, 52560, Note_on_c, 5, 77, 0
2, 52560, Note_on_c, 5, 62, 0
2, 52560, Note_on_c, 5, 78, 64
2, 52560, Note_on_c, 5, 61, 64
2, 52595, Note_on_c, 5, 78, 0
2, 52620, Note_on_c, 5, 69, 64
2, 52680, Note_on_c, 5, 69, 0
2, 52680, Note_on_c, 5, 61, 0
2, 52680, Note_on_c, 5, 68, 64
2, 52680, Note_on_c, 5, 59, 64
2, 52715, Note_on_c, 5, 59, 0
2, 52715, Note_on_c, 5, 68, 0
2, 52740, Note_on_c, 5, 77, 64
2, 52740, Note_on_c, 5, 68, 64
2, 52800, Note_on_c, 5, 68, 0
2, 52800, Note_on_c, 5, 77, 0
2, 52800, Note_on_c, 5, 78, 64
2, 52800, Note_on_c, 5, 69, 64
2, 52860, Note_on_c, 5, 69, 0
2, 52860, Note_on_c, 5, 78, 0
2, 52860, Note_on_c, 5, 80, 64
2, 52860, Note_on_c, 5, 71, 64
2, 52920, Note_on_c, 5, 71, 0
2, 52920, Note_on_c, 5, 80, 0
2, 52920, Note_on_c, 5, 73, 64
2, 52920, Note_on_c, 5, 73, 64
2, 52955, Note_on_c, 5, 73, 0
2, 52955, Note_on_c, 5, 73, 0
2, 52980, Note_on_c, 5, 65, 64
2, 52980, Note_on_c, 5, 74, 64
2, 53040, Note_on_c, 5, 74, 0
2, 53040, Note_on_c, 5, 65, 0
2, 53040, Note_on_c, 5, 66, 64
2, 53040, Note_on_c, 5, 73, 64
2, 53075, Note_on_c, 5, 73, 0
2, 53075, Note_on_c, 5, 66, 0
2, 53100, Note_on_c, 5, 74, 64
2, 53100, Note_on_c, 5, 66, 64
2, 53160, Note_on_c, 5, 74, 0
2, 53160, Note_on_c, 5, 69, 64
2, 53220, Note_on_c, 5, 69, 0
2, 53220, Note_on_c, 5, 66, 0
2, 53220, Note_on_c, 5, 68, 64
2, 53220, Note_on_c, 5, 65, 64
2, 53340, Note_on_c, 5, 65, 0
2, 53340, Note_on_c, 5, 68, 0
2, 53340, Note_on_c, 5, 69, 64
2, 53340, Note_on_c, 5, 66, 64
2, 53400, Note_on_c, 5, 66, 0
2, 53400, Note_on_c, 5, 69, 0
2, 53400, Note_on_c, 5, 71, 64
2, 53400, Note_on_c, 5, 68, 64
2, 53435, Note_on_c, 5, 68, 0
2, 53435, Note_on_c, 5, 71, 0
2, 53460, Note_on_c, 5, 74, 64
2, 53460, Note_on_c, 5, 71, 64
2, 53520, Note_on_c, 5, 71, 0
2, 53520, Note_on_c, 5, 74, 0
2, 53520, Note_on_c, 5, 73, 64
2, 53520, Note_on_c, 5, 69, 64
2, 53580, Note_on_c, 5, 69, 0
2, 53580, Note_on_c, 5, 73, 0
2, 53580, Note_on_c, 5, 71, 64
2, 53580, Note_on_c, 5, 68, 64
2, 53640, Note_on_c, 5, 68, 0
2, 53640, Note_on_c, 5, 71, 0
2, 53640, Note_on_c, 5, 69, 64
2, 53640, Note_on_c, 5, 66, 64
2, 53700, Note_on_c, 5, 66, 0
2, 53700, Note_on_c, 5, 74, 64
2, 53760, Note_on_c, 5, 74, 0
2, 53760, Note_on_c, 5, 69, 0
2, 53760, Note_on_c, 5, 68, 64
2, 53760, Note_on_c, 5, 73, 64
2, 53820, Note_on_c, 5, 73, 0
2, 53820, Note_on_c, 5, 71, 64
2, 53880, Note_on_c, 5, 68, 0
2, 53880, Note_on_c, 5, 66, 82
2, 53940, Note_on_c, 5, 71, 0
2, 53940, Note_on_c, 5, 69, 41
2, 53970, Note_on_c, 5, 69, 0
2, 53970, Note_on_c, 5, 71, 42
2, 54000, Note_on_c, 5, 71, 0
2, 54000, Note_on_c, 5, 66, 0
2, 54000, Note_on_c, 5, 72, 42
2, 54180, Note_on_c, 5, 72, 0
2, 54180, Note_on_c, 5, 64, 45
2, 54240, Note_on_c, 5, 64, 0
2, 54240, Note_on_c, 5, 78, 40
2, 54240, Note_on_c, 5, 63, 47
2, 54275, Note_on_c, 5, 63, 0
2, 54300, Note_on_c, 5, 69, 48
2, 54360, Note_on_c, 5, 69, 0
2, 54360, Note_on_c, 5, 67, 49
2, 54420, Note_on_c, 5, 78, 0
2, 54420, Note_on_c, 5, 76, 50
2, 54450, Note_on_c, 5, 76, 0
2, 54450, Note_on_c, 5, 78, 50
2, 54480, Note_on_c, 5, 78, 0
2, 54480, Note_on_c, 5, 67, 0
2, 54480, Note_on_c, 5, 79, 51
2, 54660, Note_on_c, 5, 79, 0
2, 54660, Note_on_c, 5, 71, 54
2, 54720, Note_on_c, 5, 71, 0
2, 54720, Note_on_c, 5, 70, 55
2, 54720, Note_on_c, 5, 73, 55
2, 54755, Note_on_c, 5, 70, 0
2, 54780, Note_on_c, 5, 76, 56
2, 54840, Note_on_c, 5, 76, 0
2, 54840, Note_on_c, 5, 74, 58
2, 54900, Note_on_c, 5, 73, 0
2, 54900, Note_on_c, 5, 71, 59
2, 54930, Note_on_c, 5, 71, 0
2, 54930, Note_on_c, 5, 73, 59
2, 54960, Note_on_c, 5, 73, 0
2, 54960, Note_on_c, 5, 74, 0
2, 54960, Note_on_c, 5, 74, 60
2, 55140, Note_on_c, 5, 74, 0
2, 55140, Note_on_c, 5, 66, 63
2, 55200, Note_on_c, 5, 66, 0
2, 55200, Note_on_c, 5, 80, 64
2, 55200, Note_on_c, 5, 65, 64
2, 55235, Note_on_c, 5, 65, 0
2, 55260, Note_on_c, 5, 71, 65
2, 55320, Note_on_c, 5, 71, 0
2, 55320, Note_on_c, 5, 69, 66
2, 55380, Note_on_c, 5, 80, 0
2, 55380, Note_on_c, 5, 78, 67
2, 55410, Note_on_c, 5, 78, 0
2, 55410, Note_on_c, 5, 80, 68
2, 55440, Note_on_c, 5, 80, 0
2, 55440, Note_on_c, 5, 69, 0
2, 55440, Note_on_c, 5, 81, 68
2, 55620, Note_on_c, 5, 81, 0
2, 55620, Note_on_c, 5, 72, 72
2, 55680, Note_on_c, 5, 72, 0
2, 55680, Note_on_c, 5, 71, 73
2, 55680, Note_on_c, 5, 75, 73
2, 55715, Note_on_c, 5, 71, 0
2, 55740, Note_on_c, 5, 81, 74
2, 55800, Note_on_c, 5, 81, 0
2, 55800, Note_on_c, 5, 75, 0
2, 55800, Note_on_c, 5, 80, 94
2, 55800, Note_on_c, 5, 76, 94
2, 55860, Note_on_c, 5, 76, 0
2, 55860, Note_on_c, 5, 80, 0
2, 55860, Note_on_c, 5, 74, 75
2, 55860, Note_on_c, 5, 71, 75
2, 55920, Note_on_c, 5, 71, 0
2, 55920, Note_on_c, 5, 74, 0
2, 55920, Note_on_c, 5, 73, 75
2, 55920, Note_on_c, 5, 70, 75
2, 55955, Note_on_c, 5, 70, 0
2, 55955, Note_on_c, 5, 73, 0
2, 55980, Note_on_c, 5, 82, 75
2, 55980, Note_on_c, 5, 73, 75
2, 56015, Note_on_c, 5, 73, 0
2, 56015, Note_on_c, 5, 82, 0
2, 56040, Note_on_c, 5, 83, 94
2, 56040, Note_on_c, 5, 66, 94
2, 56100, Note_on_c, 5, 66, 0
2, 56100, Note_on_c, 5, 83, 0
2, 56100, Note_on_c, 5, 78, 75
2, 56100, Note_on_c, 5, 71, 75
2, 56160, Note_on_c, 5, 71, 0
2, 56160, Note_on_c, 5, 78, 0
2, 56160, Note_on_c, 5, 77, 75
2, 56160, Note_on_c, 5, 73, 75
2, 56195, Note_on_c, 5, 73, 0
2, 56195, Note_on_c, 5, 77, 0
2, 56220, Note_on_c, 5, 83, 75
2, 56220, Note_on_c, 5, 65, 75
2, 56255, Note_on_c, 5, 65, 0
2, 56255, Note_on_c, 5, 83, 0
2, 56280, Note_on_c, 5, 82, 94
2, 56280, Note_on_c, 5, 66, 94
2, 56340, Note_on_c, 5, 66, 0
2, 56340, Note_on_c, 5, 82, 0
2, 56340, Note_on_c, 5, 76, 75
2, 56340, Note_on_c, 5, 70, 75
2, 56400, Note_on_c, 5, 70, 0
2, 56400, Note_on_c, 5, 76, 0
2, 56400, Note_on_c, 5, 75, 75
2, 56400, Note_on_c, 5, 71, 75
2, 56435, Note_on_c, 5, 71, 0
2, 56435, Note_on_c, 5, 75, 0
2, 56460, Note_on_c, 5, 81, 75
2, 56460, Note_on_c, 5, 63, 75
2, 56495, Note_on_c, 5, 63, 0
2, 56495, Note_on_c, 5, 81, 0
2, 56520, Note_on_c, 5, 80, 94
2, 56520, Note_on_c, 5, 64, 94
2, 56580, Note_on_c, 5, 64, 0
2, 56580, Note_on_c, 5, 80, 0
2, 56580, Note_on_c, 5, 74, 75
2, 56580, Note_on_c, 5, 68, 75
2, 56640, Note_on_c, 5, 68, 0
2, 56640, Note_on_c, 5, 74, 0
2, 56640, Note_on_c, 5, 73, 75
2, 56640, Note_on_c, 5, 69, 75
2, 56675, Note_on_c, 5, 69, 0
2, 56675, Note_on_c, 5, 73, 0
2, 56700, Note_on_c, 5, 79, 75
2, 56700, Note_on_c, 5, 64, 75
2, 56735, Note_on_c, 5, 64, 0
2, 56735, Note_on_c, 5, 79, 0
2, 56760, Note_on_c, 5, 78, 94
2, 56760, Note_on_c, 5, 62, 75
2, 56820, Note_on_c, 5, 62, 0
2, 56820, Note_on_c, 5, 78, 0
2, 56820, Note_on_c, 5, 70, 72
2, 56820, Note_on_c, 5, 66, 72
2, 56880, Note_on_c, 5, 66, 0
2, 56880, Note_on_c, 5, 70, 0
2, 56880, Note_on_c, 5, 71, 70
2, 56880, Note_on_c, 5, 71, 70
2, 56915, Note_on_c, 5, 71, 0
2, 56940, Note_on_c, 5, 74, 67
2, 56975, Note_on_c, 5, 74, 0
2, 57000, Note_on_c, 5, 76, 84
2, 57060, Note_on_c, 5, 76, 0
2, 57060, Note_on_c, 5, 67, 62
2, 57120, Note_on_c, 5, 67, 0
2, 57120, Note_on_c, 5, 71, 0
2, 57120, Note_on_c, 5, 66, 60
2, 57120, Note_on_c, 5, 70, 60
2, 57155, Note_on_c, 5, 66, 0
2, 57180, Note_on_c, 5, 70, 0
2, 57180, Note_on_c, 5, 76, 57
2, 57180, Note_on_c, 5, 73, 57
2, 57215, Note_on_c, 5, 76, 0
2, 57240, Note_on_c, 5, 74, 55
2, 57300, Note_on_c, 5, 73, 0
2, 57300, Note_on_c, 5, 66, 56
2, 57360, Note_on_c, 5, 66, 0
2, 57360, Note_on_c, 5, 71, 56
2, 57420, Note_on_c, 5, 74, 0
2, 57420, Note_on_c, 5, 76, 57
2, 57450, Note_on_c, 5, 76, 0
2, 57450, Note_on_c, 5, 78, 57
2, 57480, Note_on_c, 5, 78, 0
2, 57480, Note_on_c, 5, 76, 57
2, 57600, Note_on_c, 5, 71, 0
2, 57600, Note_on_c, 5, 70, 58
2, 57660, Note_on_c, 5, 76, 0
2, 57660, Note_on_c, 5, 78, 59
2, 57690, Note_on_c, 5, 78, 0
2, 57690, Note_on_c, 5, 79, 59
2, 57720, Note_on_c, 5, 79, 0
2, 57720, Note_on_c, 5, 70, 0
2, 57720, Note_on_c, 5, 78, 60
2, 57720, Note_on_c, 5, 71, 60
2, 57900, Note_on_c, 5, 78, 0
2, 57900, Note_on_c, 5, 79, 61
2, 57930, Note_on_c, 5, 79, 0
2, 57930, Note_on_c, 5, 81, 61
2, 57960, Note_on_c, 5, 81, 0
2, 57960, Note_on_c, 5, 79, 62
2, 58020, Note_on_c, 5, 71, 0
2, 58020, Note_on_c, 5, 69, 62
2, 58080, Note_on_c, 5, 69, 0
2, 58080, Note_on_c, 5, 67, 63
2, 58140, Note_on_c, 5, 67, 0
2, 58140, Note_on_c, 5, 66, 63
2, 58200, Note_on_c, 5, 66, 0
2, 58200, Note_on_c, 5, 64, 64
2, 58260, Note_on_c, 5, 79, 0
2, 58260, Note_on_c, 5, 73, 64
2, 58320, Note_on_c, 5, 73, 0
2, 58320, Note_on_c, 5, 64, 0
2, 58320, Note_on_c, 5, 78, 64
2, 58320, Note_on_c, 5, 73, 64
2, 58380, Note_on_c, 5, 78, 0
2, 58380, Note_on_c, 5, 76, 64
2, 58440, Note_on_c, 5, 76, 0
2, 58440, Note_on_c, 5, 74, 64
2, 58500, Note_on_c, 5, 74, 0
2, 58500, Note_on_c, 5, 73, 0
2, 58500, Note_on_c, 5, 73, 64
2, 58500, Note_on_c, 5, 66, 64
2, 58530, Note_on_c, 5, 73, 0
2, 58530, Note_on_c, 5, 71, 64
2, 58560, Note_on_c, 5, 71, 0
2, 58560, Note_on_c, 5, 66, 0
2, 58560, Note_on_c, 5, 78, 64
2, 58560, Note_on_c, 5, 71, 64
2, 58620, Note_on_c, 5, 71, 0
2, 58620, Note_on_c, 5, 69, 64
2, 58680, Note_on_c, 5, 69, 0
2, 58680, Note_on_c, 5, 67, 64
2, 58740, Note_on_c, 5, 78, 0
2, 58740, Note_on_c, 5, 71, 64
2, 58800, Note_on_c, 5, 71, 0
2, 58800, Note_on_c, 5, 76, 64
2, 58860, Note_on_c, 5, 76, 0
2, 58860, Note_on_c, 5, 74, 64
2, 58920, Note_on_c, 5, 74, 0
2, 58920, Note_on_c, 5, 73, 64
2, 58980, Note_on_c, 5, 67, 0
2, 58980, Note_on_c, 5, 73, 64
2, 59040, Note_on_c, 5, 73, 0
2, 59040, Note_on_c, 5, 66, 64
2, 59100, Note_on_c, 5, 66, 0
2, 59100, Note_on_c, 5, 64, 64
2, 59160, Note_on_c, 5, 64, 0
2, 59160, Note_on_c, 5, 62, 64
2, 59220, Note_on_c, 5, 73, 0
2, 59220, Note_on_c, 5, 66, 64
2, 59280, Note_on_c, 5, 66, 0
2, 59280, Note_on_c, 5, 71, 64
2, 59340, Note_on_c, 5, 71, 0
2, 59340, Note_on_c, 5, 69, 64
2, 59400, Note_on_c, 5, 69, 0
2, 59400, Note_on_c, 5, 67, 64
2, 59460, Note_on_c, 5, 62, 0
2, 59460, Note_on_c, 5, 70, 64
2, 59520, Note_on_c, 5, 70, 0
2, 59520, Note_on_c, 5, 67, 0
2, 59520, Note_on_c, 5, 66, 64
2, 59520, Note_on_c, 5, 71, 64
2, 59555, Note_on_c, 5, 71, 0
2, 59580, Note_on_c, 5, 62, 64
2, 59640, Note_on_c, 5, 62, 0
2, 59640, Note_on_c, 5, 66, 0
2, 59640, Note_on_c, 5, 64, 64
2, 59640, Note_on_c, 5, 64, 64
2, 59675, Note_on_c, 5, 64, 0
2, 59675, Note_on_c, 5, 64, 0
2, 59700, Note_on_c, 5, 73, 65
2, 59700, Note_on_c, 5, 70, 65
2, 59760, Note_on_c, 5, 70, 0
2, 59760, Note_on_c, 5, 73, 0
2, 59760, Note_on_c, 5, 74, 66
2, 59760, Note_on_c, 5, 71, 66
2, 59820, Note_on_c, 5, 71, 0
2, 59820, Note_on_c, 5, 74, 0
2, 59820, Note_on_c, 5, 76, 67
2, 59820, Note_on_c, 5, 73, 67
2, 59880, Note_on_c, 5, 73, 0
2, 59880, Note_on_c, 5, 76, 0
2, 59880, Note_on_c, 5, 78, 68
2, 59880, Note_on_c, 5, 66, 68
2, 59915, Note_on_c, 5, 66, 0
2, 59915, Note_on_c, 5, 78, 0
2, 59940, Note_on_c, 5, 79, 69
2, 59940, Note_on_c, 5, 70, 69
2, 60000, Note_on_c, 5, 70, 0
2, 60000, Note_on_c, 5, 79, 0
2, 60000, Note_on_c, 5, 78, 70
2, 60000, Note_on_c, 5, 71, 70
2, 60060, Note_on_c, 5, 71, 0
2, 60060, Note_on_c, 5, 78, 0
2, 60060, Note_on_c, 5, 71, 71
2, 60060, Note_on_c, 5, 67, 71
2, 60120, Note_on_c, 5, 67, 0
2, 60120, Note_on_c, 5, 66, 72
2, 60180, Note_on_c, 5, 66, 0
2, 60180, Note_on_c, 5, 71, 0
2, 60180, Note_on_c, 5, 70, 73
2, 60180, Note_on_c, 5, 67, 73
2, 60210, Note_on_c, 5, 67, 0
2, 60210, Note_on_c, 5, 66, 74
2, 60240, Note_on_c, 5, 66, 0
2, 60240, Note_on_c, 5, 64, 74
2, 60300, Note_on_c, 5, 64, 0
2, 60300, Note_on_c, 5, 70, 0
2, 60300, Note_on_c, 5, 71, 75
2, 60300, Note_on_c, 5, 62, 75
2, 60360, Note_on_c, 5, 62, 0
2, 60360, Note_on_c, 5, 71, 0
2, 60360, Note_on_c, 5, 73, 76
2, 60360, Note_on_c, 5, 64, 76
2, 60420, Note_on_c, 5, 64, 0
2, 60420, Note_on_c, 5, 73, 0
2, 60420, Note_on_c, 5, 76, 77
2, 60420, Note_on_c, 5, 67, 77
2, 60480, Note_on_c, 5, 67, 0
2, 60480, Note_on_c, 5, 76, 0
2, 60480, Note_on_c, 5, 74, 78
2, 60480, Note_on_c, 5, 66, 78
2, 60540, Note_on_c, 5, 66, 0
2, 60540, Note_on_c, 5, 74, 0
2, 60540, Note_on_c, 5, 73, 79
2, 60540, Note_on_c, 5, 64, 79
2, 60600, Note_on_c, 5, 64, 0
2, 60600, Note_on_c, 5, 73, 0
2, 60600, Note_on_c, 5, 71, 80
2, 60600, Note_on_c, 5, 62, 80
2, 60660, Note_on_c, 5, 62, 0
2, 60660, Note_on_c, 5, 67, 80
2, 60720, Note_on_c, 5, 67, 0
2, 60720, Note_on_c, 5, 71, 0
2, 60720, Note_on_c, 5, 71, 80
2, 60720, Note_on_c, 5, 66, 80
2, 60735, Note_on_c, 5, 71, 0
2, 60735, Note_on_c, 5, 70, 80
2, 60750, Note_on_c, 5, 70, 0
2, 60750, Note_on_c, 5, 71, 80
2, 60765, Note_on_c, 5, 71, 0
2, 60765, Note_on_c, 5, 70, 80
2, 60780, Note_on_c, 5, 70, 0
2, 60780, Note_on_c, 5, 66, 0
2, 60780, Note_on_c, 5, 71, 80
2, 60780, Note_on_c, 5, 64, 80
2, 60795, Note_on_c, 5, 71, 0
2, 60795, Note_on_c, 5, 70, 80
2, 60810, Note_on_c, 5, 70, 0
2, 60810, Note_on_c, 5, 71, 80
2, 60825, Note_on_c, 5, 71, 0
2, 60825, Note_on_c, 5, 70, 80
2, 60840, Note_on_c, 5, 70, 0
2, 60840, Note_on_c, 5, 64, 0
2, 60840, Note_on_c, 5, 71, 80
2, 60840, Note_on_c, 5, 63, 80
2, 61200, Note_on_c, 5, 63, 0
2, 61200, Note_on_c, 5, 71, 0
2, 61560, End_track
3, 0, Start_track
3, 0, MIDI_port, 0
3, 0, Title_t, "Bassoon"
3, 0, Program_c, 7, 70
3, 480, Control_c, 7, 7, 100
3, 480, Note_on_c, 7, 47, 64
3, 660, Note_on_c, 7, 47, 0
3, 660, Note_on_c, 7, 47, 64
3, 720, Note_on_c, 7, 47, 0
3, 720, Note_on_c, 7, 49, 64
3, 840, Note_on_c, 7, 49, 0
3, 960, Note_on_c, 7, 51, 64
3, 1140, Note_on_c, 7, 51, 0
3, 1140, Note_on_c, 7, 51, 64
3, 1200, Note_on_c, 7, 51, 0
3, 1200, Note_on_c, 7, 52, 64
3, 1320, Note_on_c, 7, 52, 0
3, 1440, Note_on_c, 7, 58, 64
3, 1620, Note_on_c, 7, 58, 0
3, 1620, Note_on_c, 7, 58, 64
3, 1680, Note_on_c, 7, 58, 0
3, 1680, Note_on_c, 7, 59, 64
3, 1800, Note_on_c, 7, 59, 0
3, 1860, Note_on_c, 7, 57, 64
3, 1920, Note_on_c, 7, 57, 0
3, 1920, Note_on_c, 7, 55, 64
3, 2160, Note_on_c, 7, 55, 0
3, 2160, Note_on_c, 7, 54, 70
3, 2400, Note_on_c, 7, 54, 0
3, 2520, Note_on_c, 7, 47, 64
3, 2640, Note_on_c, 7, 47, 0
3, 2640, Note_on_c, 7, 50, 64
3, 2760, Note_on_c, 7, 50, 0
3, 2760, Note_on_c, 7, 52, 64
3, 2880, Note_on_c, 7, 52, 0
3, 2880, Note_on_c, 7, 54, 64
3, 3000, Note_on_c, 7, 54, 0
3, 3000, Note_on_c, 7, 47, 64
3, 3120, Note_on_c, 7, 47, 0
3, 3120, Note_on_c, 7, 57, 64
3, 3240, Note_on_c, 7, 57, 0
3, 3240, Note_on_c, 7, 55, 64
3, 3300, Note_on_c, 7, 55, 0
3, 3300, Note_on_c, 7, 52, 64
3, 3360, Note_on_c, 7, 52, 0
3, 3360, Note_on_c, 7, 54, 64
3, 3420, Note_on_c, 7, 54, 0
3, 3420, Note_on_c, 7, 55, 64
3, 3480, Note_on_c, 7, 55, 0
3, 3480, Note_on_c, 7, 54, 64
3, 3540, Note_on_c, 7, 54, 0
3, 3540, Note_on_c, 7, 52, 64
3, 3600, Note_on_c, 7, 52, 0
3, 3600, Note_on_c, 7, 50, 64
3, 3660, Note_on_c, 7, 50, 0
3, 3660, Note_on_c, 7, 49, 64
3, 3720, Note_on_c, 7, 49, 0
3, 3720, Note_on_c, 7, 47, 64
3, 3840, Note_on_c, 7, 47, 0
3, 3840, Note_on_c, 7, 45, 64
3, 3960, Note_on_c, 7, 45, 0
3, 3960, Note_on_c, 7, 47, 64
3, 4080, Note_on_c, 7, 47, 0
3, 4080, Note_on_c, 7, 49, 64
3, 4200, Note_on_c, 7, 49, 0
3, 4200, Note_on_c, 7, 42, 64
3, 4320, Note_on_c, 7, 42, 0
3, 4320, Note_on_c, 7, 52, 64
3, 4440, Note_on_c, 7, 52, 0
3, 4440, Note_on_c, 7, 50, 64
3, 4500, Note_on_c, 7, 50, 0
3, 4500, Note_on_c, 7, 47, 64
3, 4560, Note_on_c, 7, 47, 0
3, 4560, Note_on_c, 7, 59, 64
3, 4620, Note_on_c, 7, 59, 0
3, 4620, Note_on_c, 7, 61, 64
3, 4680, Note_on_c, 7, 61, 0
3, 4680, Note_on_c, 7, 62, 64
3, 4800, Note_on_c, 7, 62, 0
3, 4800, Note_on_c, 7, 53, 64
3, 4920, Note_on_c, 7, 53, 0
3, 4920, Note_on_c, 7, 54, 64
3, 4980, Note_on_c, 7, 54, 0
3, 4980, Note_on_c, 7, 56, 64
3, 5040, Note_on_c, 7, 56, 0
3, 5040, Note_on_c, 7, 57, 64
3, 5100, Note_on_c, 7, 57, 0
3, 5100, Note_on_c, 7, 54, 64
3, 5160, Note_on_c, 7, 54, 0
3, 5160, Note_on_c, 7, 59, 64
3, 5220, Note_on_c, 7, 59, 0
3, 5220, Note_on_c, 7, 57, 64
3, 5280, Note_on_c, 7, 57, 0
3, 5280, Note_on_c, 7, 56, 64
3, 5340, Note_on_c, 7, 56, 0
3, 5340, Note_on_c, 7, 54, 64
3, 5400, Note_on_c, 7, 54, 0
3, 5400, Note_on_c, 7, 53, 64
3, 5460, Note_on_c, 7, 53, 0
3, 5460, Note_on_c, 7, 51, 64
3, 5520, Note_on_c, 7, 51, 0
3, 5520, Note_on_c, 7, 53, 64
3, 5580, Note_on_c, 7, 53, 0
3, 5580, Note_on_c, 7, 49, 64
3, 5640, Note_on_c, 7, 49, 0
3, 5640, Note_on_c, 7, 54, 64
3, 5700, Note_on_c, 7, 54, 0
3, 5700, Note_on_c, 7, 52, 64
3, 5760, Note_on_c, 7, 52, 0
3, 5760, Note_on_c, 7, 50, 64
3, 5820, Note_on_c, 7, 50, 0
3, 5820, Note_on_c, 7, 49, 64
3, 5880, Note_on_c, 7, 49, 0
3, 5880, Note_on_c, 7, 47, 64
3, 6000, Note_on_c, 7, 47, 0
3, 6000, Note_on_c, 7, 49, 64
3, 6120, Note_on_c, 7, 49, 0
3, 6120, Note_on_c, 7, 50, 64
3, 6240, Note_on_c, 7, 50, 0
3, 6240, Note_on_c, 7, 49, 64
3, 6300, Note_on_c, 7, 49, 0
3, 6300, Note_on_c, 7, 47, 64
3, 6360, Note_on_c, 7, 47, 0
3, 6360, Note_on_c, 7, 45, 64
3, 6420, Note_on_c, 7, 45, 0
3, 6420, Note_on_c, 7, 44, 64
3, 6480, Note_on_c, 7, 44, 0
3, 6480, Note_on_c, 7, 45, 64
3, 6540, Note_on_c, 7, 45, 0
3, 6540, Note_on_c, 7, 47, 64
3, 6600, Note_on_c, 7, 47, 0
3, 6600, Note_on_c, 7, 49, 64
3, 7140, Note_on_c, 7, 49, 0
3, 7140, Note_on_c, 7, 47, 64
3, 7200, Note_on_c, 7, 47, 0
3, 7200, Note_on_c, 7, 49, 64
3, 7260, Note_on_c, 7, 49, 0
3, 7260, Note_on_c, 7, 37, 64
3, 7320, Note_on_c, 7, 37, 0
3, 7320, Note_on_c, 7, 42, 40
3, 7380, Note_on_c, 7, 42, 0
3, 7380, Note_on_c, 7, 54, 41
3, 7500, Note_on_c, 7, 54, 0
3, 7500, Note_on_c, 7, 55, 42
3, 7530, Note_on_c, 7, 55, 0
3, 7530, Note_on_c, 7, 57, 43
3, 7560, Note_on_c, 7, 57, 0
3, 7560, Note_on_c, 7, 59, 43
3, 7680, Note_on_c, 7, 59, 0
3, 7680, Note_on_c, 7, 47, 45
3, 7800, Note_on_c, 7, 47, 0
3, 7800, Note_on_c, 7, 52, 46
3, 7980, Note_on_c, 7, 52, 0
3, 7980, Note_on_c, 7, 50, 48
3, 8010, Note_on_c, 7, 50, 0
3, 8010, Note_on_c, 7, 52, 49
3, 8040, Note_on_c, 7, 52, 0
3, 8040, Note_on_c, 7, 54, 49
3, 8160, Note_on_c, 7, 54, 0
3, 8160, Note_on_c, 7, 42, 51
3, 8280, Note_on_c, 7, 42, 0
3, 8280, Note_on_c, 7, 47, 52
3, 8460, Note_on_c, 7, 47, 0
3, 8460, Note_on_c, 7, 45, 54
3, 8490, Note_on_c, 7, 45, 0
3, 8490, Note_on_c, 7, 47, 55
3, 8520, Note_on_c, 7, 47, 0
3, 8520, Note_on_c, 7, 49, 55
3, 8640, Note_on_c, 7, 49, 0
3, 8640, Note_on_c, 7, 37, 57
3, 8760, Note_on_c, 7, 37, 0
3, 8760, Note_on_c, 7, 42, 58
3, 8940, Note_on_c, 7, 42, 0
3, 8940, Note_on_c, 7, 43, 60
3, 8970, Note_on_c, 7, 43, 0
3, 8970, Note_on_c, 7, 45, 61
3, 9000, Note_on_c, 7, 45, 0
3, 9000, Note_on_c, 7, 47, 61
3, 9120, Note_on_c, 7, 47, 0
3, 9120, Note_on_c, 7, 59, 63
3, 9240, Note_on_c, 7, 59, 0
3, 9240, Note_on_c, 7, 52, 64
3, 9311, Note_on_c, 7, 52, 0
3, 9420, Note_on_c, 7, 52, 64
3, 9431, Note_on_c, 7, 52, 0
3, 9480, Note_on_c, 7, 50, 64
3, 9551, Note_on_c, 7, 50, 0
3, 9660, Note_on_c, 7, 49, 64
3, 9695, Note_on_c, 7, 49, 0
3, 9720, Note_on_c, 7, 54, 64
3, 9791, Note_on_c, 7, 54, 0
3, 9900, Note_on_c, 7, 47, 64
3, 9935, Note_on_c, 7, 47, 0
3, 9960, Note_on_c, 7, 52, 64
3, 10031, Note_on_c, 7, 52, 0
3, 10140, Note_on_c, 7, 45, 64
3, 10175, Note_on_c, 7, 45, 0
3, 10200, Note_on_c, 7, 50, 70
3, 10271, Note_on_c, 7, 50, 0
3, 10380, Note_on_c, 7, 55, 62
3, 10415, Note_on_c, 7, 55, 0
3, 10440, Note_on_c, 7, 49, 60
3, 10511, Note_on_c, 7, 49, 0
3, 10620, Note_on_c, 7, 54, 52
3, 10655, Note_on_c, 7, 54, 0
3, 10680, Note_on_c, 7, 47, 70
3, 10770, Note_on_c, 7, 47, 0
3, 10770, Note_on_c, 7, 47, 70
3, 10800, Note_on_c, 7, 47, 0
3, 10800, Note_on_c, 7, 47, 70
3, 10835, Note_on_c, 7, 47, 0
3, 10860, Note_on_c, 7, 47, 70
3, 10920, Note_on_c, 7, 47, 0
3, 10920, Note_on_c, 7, 49, 70
3, 10980, Note_on_c, 7, 49, 0
3, 10980, Note_on_c, 7, 43, 70
3, 11040, Note_on_c, 7, 43, 0
3, 11040, Note_on_c, 7, 42, 70
3, 11075, Note_on_c, 7, 42, 0
3, 11100, Note_on_c, 7, 49, 70
3, 11160, Note_on_c, 7, 49, 0
3, 11160, Note_on_c, 7, 50, 70
3, 11220, Note_on_c, 7, 50, 0
3, 11220, Note_on_c, 7, 43, 70
3, 11280, Note_on_c, 7, 43, 0
3, 11280, Note_on_c, 7, 42, 70
3, 11315, Note_on_c, 7, 42, 0
3, 11340, Note_on_c, 7, 51, 70
3, 11400, Note_on_c, 7, 51, 0
3, 11400, Note_on_c, 7, 52, 70
3, 11430, Note_on_c, 7, 52, 0
3, 11430, Note_on_c, 7, 50, 70
3, 11460, Note_on_c, 7, 50, 0
3, 11460, Note_on_c, 7, 48, 70
3, 11550, Note_on_c, 7, 48, 0
3, 11550, Note_on_c, 7, 47, 70
3, 11580, Note_on_c, 7, 47, 0
3, 11580, Note_on_c, 7, 46, 70
3, 11610, Note_on_c, 7, 46, 0
3, 11610, Note_on_c, 7, 47, 70
3, 11640, Note_on_c, 7, 47, 0
3, 11640, Note_on_c, 7, 46, 64
3, 11700, Note_on_c, 7, 46, 0
3, 11700, Note_on_c, 7, 44, 64
3, 11760, Note_on_c, 7, 44, 0
3, 11760, Note_on_c, 7, 46, 64
3, 11820, Note_on_c, 7, 46, 0
3, 11820, Note_on_c, 7, 42, 64
3, 11880, Note_on_c, 7, 42, 0
3, 11880, Note_on_c, 7, 47, 64
3, 11940, Note_on_c, 7, 47, 0
3, 11940, Note_on_c, 7, 49, 64
3, 12000, Note_on_c, 7, 49, 0
3, 12000, Note_on_c, 7, 50, 64
3, 12060, Note_on_c, 7, 50, 0
3, 12060, Note_on_c, 7, 47, 64
3, 12120, Note_on_c, 7, 47, 0
3, 12120, Note_on_c, 7, 52, 64
3, 12180, Note_on_c, 7, 52, 0
3, 12180, Note_on_c, 7, 54, 64
3, 12240, Note_on_c, 7, 54, 0
3, 12240, Note_on_c, 7, 55, 64
3, 12300, Note_on_c, 7, 55, 0
3, 12300, Note_on_c, 7, 52, 64
3, 12360, Note_on_c, 7, 52, 0
3, 12360, Note_on_c, 7, 58, 64
3, 12420, Note_on_c, 7, 58, 0
3, 12420, Note_on_c, 7, 56, 64
3, 12480, Note_on_c, 7, 56, 0
3, 12480, Note_on_c, 7, 58, 64
3, 12540, Note_on_c, 7, 58, 0
3, 12540, Note_on_c, 7, 54, 64
3, 12600, Note_on_c, 7, 54, 0
3, 12600, Note_on_c, 7, 59, 64
3, 12660, Note_on_c, 7, 59, 0
3, 12660, Note_on_c, 7, 57, 64
3, 12720, Note_on_c, 7, 57, 0
3, 12720, Note_on_c, 7, 55, 64
3, 12780, Note_on_c, 7, 55, 0
3, 12780, Note_on_c, 7, 54, 64
3, 12840, Note_on_c, 7, 54, 0
3, 12840, Note_on_c, 7, 52, 64
3, 12960, Note_on_c, 7, 52, 0
3, 12960, Note_on_c, 7, 54, 64
3, 13080, Note_on_c, 7, 54, 0
3, 13080, Note_on_c, 7, 55, 64
3, 13200, Note_on_c, 7, 55, 0
3, 13200, Note_on_c, 7, 54, 64
3, 13260, Note_on_c, 7, 54, 0
3, 13260, Note_on_c, 7, 52, 64
3, 13320, Note_on_c, 7, 52, 0
3, 13320, Note_on_c, 7, 50, 64
3, 13380, Note_on_c, 7, 50, 0
3, 13380, Note_on_c, 7, 49, 64
3, 13440, Note_on_c, 7, 49, 0
3, 13440, Note_on_c, 7, 50, 64
3, 13500, Note_on_c, 7, 50, 0
3, 13500, Note_on_c, 7, 52, 64
3, 13560, Note_on_c, 7, 52, 0
3, 13560, Note_on_c, 7, 54, 64
3, 14100, Note_on_c, 7, 54, 0
3, 14100, Note_on_c, 7, 52, 64
3, 14160, Note_on_c, 7, 52, 0
3, 14160, Note_on_c, 7, 54, 64
3, 14220, Note_on_c, 7, 54, 0
3, 14220, Note_on_c, 7, 42, 64
3, 14280, Note_on_c, 7, 42, 0
3, 14280, Note_on_c, 7, 47, 64
3, 14640, Note_on_c, 7, 47, 0
3, 21960, Note_on_c, 7, 47, 64
3, 22050, Note_on_c, 7, 47, 0
3, 22050, Note_on_c, 7, 47, 64
3, 22080, Note_on_c, 7, 47, 0
3, 22080, Note_on_c, 7, 47, 64
3, 22115, Note_on_c, 7, 47, 0
3, 22140, Note_on_c, 7, 47, 64
3, 22200, Note_on_c, 7, 47, 0
3, 22200, Note_on_c, 7, 49, 64
3, 22260, Note_on_c, 7, 49, 0
3, 22260, Note_on_c, 7, 43, 64
3, 22320, Note_on_c, 7, 43, 0
3, 22320, Note_on_c, 7, 42, 64
3, 22355, Note_on_c, 7, 42, 0
3, 22380, Note_on_c, 7, 49, 64
3, 22440, Note_on_c, 7, 49, 0
3, 22440, Note_on_c, 7, 50, 64
3, 22500, Note_on_c, 7, 50, 0
3, 22500, Note_on_c, 7, 43, 64
3, 22560, Note_on_c, 7, 43, 0
3, 22560, Note_on_c, 7, 42, 64
3, 22595, Note_on_c, 7, 42, 0
3, 22620, Note_on_c, 7, 51, 64
3, 22680, Note_on_c, 7, 51, 0
3, 22680, Note_on_c, 7, 52, 64
3, 22710, Note_on_c, 7, 52, 0
3, 22710, Note_on_c, 7, 50, 64
3, 22740, Note_on_c, 7, 50, 0
3, 22740, Note_on_c, 7, 48, 64
3, 22830, Note_on_c, 7, 48, 0
3, 22830, Note_on_c, 7, 47, 64
3, 22860, Note_on_c, 7, 47, 0
3, 22860, Note_on_c, 7, 46, 64
3, 22890, Note_on_c, 7, 46, 0
3, 22890, Note_on_c, 7, 47, 64
3, 22920, Note_on_c, 7, 47, 0
3, 22920, Note_on_c, 7, 46, 64
3, 22955, Note_on_c, 7, 46, 0
3, 22980, Note_on_c, 7, 55, 64
3, 23040, Note_on_c, 7, 55, 0
3, 23040, Note_on_c, 7, 54, 64
3, 23100, Note_on_c, 7, 54, 0
3, 23100, Note_on_c, 7, 52, 64
3, 23160, Note_on_c, 7, 52, 0
3, 23160, Note_on_c, 7, 50, 64
3, 23220, Note_on_c, 7, 50, 0
3, 23220, Note_on_c, 7, 49, 64
3, 23250, Note_on_c, 7, 49, 0
3, 23250, Note_on_c, 7, 47, 64
3, 23280, Note_on_c, 7, 47, 0
3, 23280, Note_on_c, 7, 54, 64
3, 23520, Note_on_c, 7, 54, 0
3, 23520, Note_on_c, 7, 53, 64
3, 23640, Note_on_c, 7, 53, 0
3, 23640, Note_on_c, 7, 54, 64
3, 23760, Note_on_c, 7, 54, 0
3, 23820, Note_on_c, 7, 52, 64
3, 23880, Note_on_c, 7, 52, 0
3, 23880, Note_on_c, 7, 50, 64
3, 23940, Note_on_c, 7, 50, 0
3, 23940, Note_on_c, 7, 47, 64
3, 24000, Note_on_c, 7, 47, 0
3, 24000, Note_on_c, 7, 49, 64
3, 24060, Note_on_c, 7, 49, 0
3, 24060, Note_on_c, 7, 50, 64
3, 24120, Note_on_c, 7, 50, 0
3, 24120, Note_on_c, 7, 49, 64
3, 24180, Note_on_c, 7, 49, 0
3, 24180, Note_on_c, 7, 47, 64
3, 24240, Note_on_c, 7, 47, 0
3, 24240, Note_on_c, 7, 45, 64
3, 24300, Note_on_c, 7, 45, 0
3, 24300, Note_on_c, 7, 44, 64
3, 24360, Note_on_c, 7, 44, 0
3, 24360, Note_on_c, 7, 42, 64
3, 24480, Note_on_c, 7, 42, 0
3, 24480, Note_on_c, 7, 40, 64
3, 24600, Note_on_c, 7, 40, 0
3, 24600, Note_on_c, 7, 42, 64
3, 24720, Note_on_c, 7, 42, 0
3, 24720, Note_on_c, 7, 44, 64
3, 24840, Note_on_c, 7, 44, 0
3, 24840, Note_on_c, 7, 37, 64
3, 24960, Note_on_c, 7, 37, 0
3, 24960, Note_on_c, 7, 47, 64
3, 25080, Note_on_c, 7, 47, 0
3, 25080, Note_on_c, 7, 45, 64
3, 25140, Note_on_c, 7, 45, 0
3, 25140, Note_on_c, 7, 42, 64
3, 25200, Note_on_c, 7, 42, 0
3, 25200, Note_on_c, 7, 54, 64
3, 25260, Note_on_c, 7, 54, 0
3, 25260, Note_on_c, 7, 56, 64
3, 25320, Note_on_c, 7, 56, 0
3, 25320, Note_on_c, 7, 57, 64
3, 25440, Note_on_c, 7, 57, 0
3, 25440, Note_on_c, 7, 48, 64
3, 25560, Note_on_c, 7, 48, 0
3, 25560, Note_on_c, 7, 49, 64
3, 25620, Note_on_c, 7, 49, 0
3, 25620, Note_on_c, 7, 51, 64
3, 25680, Note_on_c, 7, 51, 0
3, 25680, Note_on_c, 7, 52, 64
3, 25740, Note_on_c, 7, 52, 0
3, 25740, Note_on_c, 7, 49, 64
3, 25800, Note_on_c, 7, 49, 0
3, 25800, Note_on_c, 7, 54, 64
3, 25860, Note_on_c, 7, 54, 0
3, 25860, Note_on_c, 7, 52, 64
3, 25920, Note_on_c, 7, 52, 0
3, 25920, Note_on_c, 7, 51, 64
3, 25980, Note_on_c, 7, 51, 0
3, 25980, Note_on_c, 7, 49, 64
3, 26040, Note_on_c, 7, 49, 0
3, 26040, Note_on_c, 7, 48, 64
3, 26100, Note_on_c, 7, 48, 0
3, 26100, Note_on_c, 7, 46, 64
3, 26160, Note_on_c, 7, 46, 0
3, 26160, Note_on_c, 7, 48, 64
3, 26220, Note_on_c, 7, 48, 0
3, 26220, Note_on_c, 7, 44, 64
3, 26280, Note_on_c, 7, 44, 0
3, 26280, Note_on_c, 7, 49, 64
3, 26340, Note_on_c, 7, 49, 0
3, 26340, Note_on_c, 7, 47, 64
3, 26400, Note_on_c, 7, 47, 0
3, 26400, Note_on_c, 7, 45, 64
3, 26460, Note_on_c, 7, 45, 0
3, 26460, Note_on_c, 7, 44, 64
3, 26520, Note_on_c, 7, 44, 0
3, 26520, Note_on_c, 7, 42, 64
3, 26640, Note_on_c, 7, 42, 0
3, 26640, Note_on_c, 7, 44, 64
3, 26760, Note_on_c, 7, 44, 0
3, 26760, Note_on_c, 7, 45, 64
3, 26880, Note_on_c, 7, 45, 0
3, 26880, Note_on_c, 7, 44, 64
3, 26940, Note_on_c, 7, 44, 0
3, 26940, Note_on_c, 7, 42, 64
3, 27000, Note_on_c, 7, 42, 0
3, 27000, Note_on_c, 7, 40, 64
3, 27060, Note_on_c, 7, 40, 0
3, 27060, Note_on_c, 7, 39, 64
3, 27120, Note_on_c, 7, 39, 0
3, 27120, Note_on_c, 7, 40, 64
3, 27180, Note_on_c, 7, 40, 0
3, 27180, Note_on_c, 7, 42, 64
3, 27240, Note_on_c, 7, 42, 0
3, 27240, Note_on_c, 7, 44, 64
3, 27780, Note_on_c, 7, 44, 0
3, 27780, Note_on_c, 7, 42, 64
3, 27840, Note_on_c, 7, 42, 0
3, 27840, Note_on_c, 7, 44, 64
3, 27900, Note_on_c, 7, 44, 0
3, 27900, Note_on_c, 7, 44, 64
3, 27960, Note_on_c, 7, 44, 0
3, 27960, Note_on_c, 7, 49, 40
3, 28140, Note_on_c, 7, 49, 0
3, 28140, Note_on_c, 7, 50, 42
3, 28170, Note_on_c, 7, 50, 0
3, 28170, Note_on_c, 7, 52, 43
3, 28200, Note_on_c, 7, 52, 0
3, 28200, Note_on_c, 7, 54, 43
3, 28320, Note_on_c, 7, 54, 0
3, 28320, Note_on_c, 7, 42, 45
3, 28440, Note_on_c, 7, 42, 0
3, 28440, Note_on_c, 7, 47, 46
3, 28620, Note_on_c, 7, 47, 0
3, 28620, Note_on_c, 7, 45, 48
3, 28650, Note_on_c, 7, 45, 0
3, 28650, Note_on_c, 7, 47, 49
3, 28680, Note_on_c, 7, 47, 0
3, 28680, Note_on_c, 7, 49, 49
3, 28800, Note_on_c, 7, 49, 0
3, 28800, Note_on_c, 7, 37, 51
3, 28920, Note_on_c, 7, 37, 0
3, 28920, Note_on_c, 7, 42, 52
3, 29100, Note_on_c, 7, 42, 0
3, 29100, Note_on_c, 7, 40, 54
3, 29130, Note_on_c, 7, 40, 0
3, 29130, Note_on_c, 7, 42, 55
3, 29160, Note_on_c, 7, 42, 0
3, 29160, Note_on_c, 7, 44, 55
3, 29280, Note_on_c, 7, 44, 0
3, 29280, Note_on_c, 7, 56, 57
3, 29400, Note_on_c, 7, 56, 0
3, 29400, Note_on_c, 7, 49, 58
3, 29580, Note_on_c, 7, 49, 0
3, 29580, Note_on_c, 7, 50, 60
3, 29610, Note_on_c, 7, 50, 0
3, 29610, Note_on_c, 7, 52, 61
3, 29640, Note_on_c, 7, 52, 0
3, 29640, Note_on_c, 7, 54, 61
3, 29760, Note_on_c, 7, 54, 0
3, 29760, Note_on_c, 7, 42, 63
3, 29880, Note_on_c, 7, 42, 0
3, 29880, Note_on_c, 7, 47, 75
3, 29951, Note_on_c, 7, 47, 0
3, 30060, Note_on_c, 7, 59, 75
3, 30071, Note_on_c, 7, 59, 0
3, 30120, Note_on_c, 7, 57, 75
3, 30191, Note_on_c, 7, 57, 0
3, 30300, Note_on_c, 7, 56, 75
3, 30311, Note_on_c, 7, 56, 0
3, 30360, Note_on_c, 7, 49, 75
3, 30431, Note_on_c, 7, 49, 0
3, 30540, Note_on_c, 7, 54, 75
3, 30551, Note_on_c, 7, 54, 0
3, 30600, Note_on_c, 7, 47, 75
3, 30671, Note_on_c, 7, 47, 0
3, 30780, Note_on_c, 7, 52, 75
3, 30815, Note_on_c, 7, 52, 0
3, 30840, Note_on_c, 7, 45, 64
3, 30960, Note_on_c, 7, 45, 0
3, 31020, Note_on_c, 7, 50, 64
3, 31080, Note_on_c, 7, 50, 0
3, 31080, Note_on_c, 7, 44, 64
3, 31200, Note_on_c, 7, 44, 0
3, 31260, Note_on_c, 7, 49, 64
3, 31320, Note_on_c, 7, 49, 0
3, 31320, Note_on_c, 7, 54, 64
3, 31410, Note_on_c, 7, 54, 0
3, 31410, Note_on_c, 7, 54, 64
3, 31440, Note_on_c, 7, 54, 0
3, 31440, Note_on_c, 7, 54, 64
3, 31475, Note_on_c, 7, 54, 0
3, 31500, Note_on_c, 7, 54, 64
3, 31560, Note_on_c, 7, 54, 0
3, 31560, Note_on_c, 7, 56, 64
3, 31620, Note_on_c, 7, 56, 0
3, 31620, Note_on_c, 7, 50, 64
3, 31680, Note_on_c, 7, 50, 0
3, 31680, Note_on_c, 7, 49, 64
3, 31715, Note_on_c, 7, 49, 0
3, 31740, Note_on_c, 7, 56, 64
3, 31800, Note_on_c, 7, 56, 0
3, 31800, Note_on_c, 7, 57, 64
3, 31860, Note_on_c, 7, 57, 0
3, 31860, Note_on_c, 7, 50, 64
3, 31920, Note_on_c, 7, 50, 0
3, 31920, Note_on_c, 7, 49, 64
3, 31955, Note_on_c, 7, 49, 0
3, 31980, Note_on_c, 7, 58, 64
3, 32040, Note_on_c, 7, 58, 0
3, 32040, Note_on_c, 7, 59, 64
3, 32070, Note_on_c, 7, 59, 0
3, 32070, Note_on_c, 7, 57, 64
3, 32100, Note_on_c, 7, 57, 0
3, 32100, Note_on_c, 7, 55, 64
3, 32190, Note_on_c, 7, 55, 0
3, 32190, Note_on_c, 7, 54, 64
3, 32220, Note_on_c, 7, 54, 0
3, 32220, Note_on_c, 7, 53, 64
3, 32250, Note_on_c, 7, 53, 0
3, 32250, Note_on_c, 7, 54, 64
3, 32280, Note_on_c, 7, 54, 0
3, 32280, Note_on_c, 7, 53, 64
3, 32315, Note_on_c, 7, 53, 0
3, 32340, Note_on_c, 7, 51, 64
3, 32400, Note_on_c, 7, 51, 0
3, 32400, Note_on_c, 7, 53, 64
3, 32460, Note_on_c, 7, 53, 0
3, 32460, Note_on_c, 7, 49, 64
3, 32520, Note_on_c, 7, 49, 0
3, 32520, Note_on_c, 7, 54, 64
3, 32580, Note_on_c, 7, 54, 0
3, 32580, Note_on_c, 7, 56, 64
3, 32640, Note_on_c, 7, 56, 0
3, 32640, Note_on_c, 7, 57, 64
3, 32700, Note_on_c, 7, 57, 0
3, 32700, Note_on_c, 7, 54, 64
3, 32760, Note_on_c, 7, 54, 0
3, 32760, Note_on_c, 7, 47, 64
3, 32820, Note_on_c, 7, 47, 0
3, 32820, Note_on_c, 7, 49, 64
3, 32880, Note_on_c, 7, 49, 0
3, 32880, Note_on_c, 7, 50, 64
3, 32940, Note_on_c, 7, 50, 0
3, 32940, Note_on_c, 7, 47, 64
3, 33000, Note_on_c, 7, 47, 0
3, 33000, Note_on_c, 7, 53, 64
3, 33060, Note_on_c, 7, 53, 0
3, 33060, Note_on_c, 7, 51, 64
3, 33120, Note_on_c, 7, 51, 0
3, 33120, Note_on_c, 7, 53, 64
3, 33180, Note_on_c, 7, 53, 0
3, 33180, Note_on_c, 7, 49, 64
3, 33240, Note_on_c, 7, 49, 0
3, 33240, Note_on_c, 7, 54, 64
3, 33300, Note_on_c, 7, 54, 0
3, 33300, Note_on_c, 7, 52, 64
3, 33360, Note_on_c, 7, 52, 0
3, 33360, Note_on_c, 7, 50, 64
3, 33420, Note_on_c, 7, 50, 0
3, 33420, Note_on_c, 7, 49, 64
3, 33480, Note_on_c, 7, 49, 0
3, 33480, Note_on_c, 7, 47, 64
3, 33600, Note_on_c, 7, 47, 0
3, 33600, Note_on_c, 7, 49, 64
3, 33720, Note_on_c, 7, 49, 0
3, 33720, Note_on_c, 7, 50, 64
3, 33840, Note_on_c, 7, 50, 0
3, 33840, Note_on_c, 7, 49, 64
3, 33900, Note_on_c, 7, 49, 0
3, 33900, Note_on_c, 7, 47, 64
3, 33960, Note_on_c, 7, 47, 0
3, 33960, Note_on_c, 7, 45, 64
3, 34020, Note_on_c, 7, 45, 0
3, 34020, Note_on_c, 7, 44, 64
3, 34080, Note_on_c, 7, 44, 0
3, 34080, Note_on_c, 7, 45, 64
3, 34140, Note_on_c, 7, 45, 0
3, 34140, Note_on_c, 7, 47, 64
3, 34200, Note_on_c, 7, 47, 0
3, 34200, Note_on_c, 7, 49, 64
3, 34740, Note_on_c, 7, 49, 0
3, 34740, Note_on_c, 7, 47, 64
3, 34800, Note_on_c, 7, 47, 0
3, 34800, Note_on_c, 7, 49, 64
3, 34920, Note_on_c, 7, 49, 0
3, 34920, Note_on_c, 7, 42, 64
3, 34980, Note_on_c, 7, 42, 0
3, 34980, Note_on_c, 7, 45, 64
3, 35040, Note_on_c, 7, 45, 0
3, 35040, Note_on_c, 7, 50, 64
3, 35100, Note_on_c, 7, 50, 0
3, 35100, Note_on_c, 7, 49, 64
3, 35160, Note_on_c, 7, 49, 0
3, 35160, Note_on_c, 7, 47, 64
3, 35220, Note_on_c, 7, 47, 0
3, 35220, Note_on_c, 7, 45, 64
3, 35250, Note_on_c, 7, 45, 0
3, 35250, Note_on_c, 7, 47, 64
3, 35280, Note_on_c, 7, 47, 0
3, 35280, Note_on_c, 7, 49, 64
3, 35340, Note_on_c, 7, 49, 0
3, 35340, Note_on_c, 7, 37, 64
3, 35400, Note_on_c, 7, 37, 0
3, 35400, Note_on_c, 7, 42, 64
3, 35460, Note_on_c, 7, 42, 0
3, 35460, Note_on_c, 7, 44, 64
3, 35520, Note_on_c, 7, 44, 0
3, 35520, Note_on_c, 7, 46, 64
3, 35580, Note_on_c, 7, 46, 0
3, 35580, Note_on_c, 7, 42, 64
3, 35640, Note_on_c, 7, 42, 0
3, 35640, Note_on_c, 7, 47, 64
3, 35700, Note_on_c, 7, 47, 0
3, 35700, Note_on_c, 7, 59, 64
3, 35760, Note_on_c, 7, 59, 0
3, 35760, Note_on_c, 7, 57, 64
3, 35820, Note_on_c, 7, 57, 0
3, 35820, Note_on_c, 7, 56, 64
3, 35880, Note_on_c, 7, 56, 0
3, 35880, Note_on_c, 7, 61, 64
3, 36000, Note_on_c, 7, 61, 0
3, 36060, Note_on_c, 7, 49, 64
3, 36095, Note_on_c, 7, 49, 0
3, 36120, Note_on_c, 7, 50, 64
3, 36191, Note_on_c, 7, 50, 0
3, 36300, Note_on_c, 7, 44, 64
3, 36335, Note_on_c, 7, 44, 0
3, 36360, Note_on_c, 7, 49, 64
3, 36431, Note_on_c, 7, 49, 0
3, 36540, Note_on_c, 7, 42, 64
3, 36575, Note_on_c, 7, 42, 0
3, 36600, Note_on_c, 7, 47, 64
3, 36720, Note_on_c, 7, 47, 0
3, 36780, Note_on_c, 7, 40, 64
3, 36840, Note_on_c, 7, 40, 0
3, 36840, Note_on_c, 7, 45, 64
3, 36960, Note_on_c, 7, 45, 0
3, 37980, Note_on_c, 7, 52, 64
3, 38040, Note_on_c, 7, 52, 0
3, 38040, Note_on_c, 7, 57, 64
3, 38111, Note_on_c, 7, 57, 0
3, 38220, Note_on_c, 7, 59, 64
3, 38255, Note_on_c, 7, 59, 0
3, 38280, Note_on_c, 7, 52, 64
3, 38351, Note_on_c, 7, 52, 0
3, 38460, Note_on_c, 7, 57, 64
3, 38495, Note_on_c, 7, 57, 0
3, 38520, Note_on_c, 7, 50, 64
3, 38591, Note_on_c, 7, 50, 0
3, 38700, Note_on_c, 7, 55, 64
3, 38735, Note_on_c, 7, 55, 0
3, 38760, Note_on_c, 7, 49, 64
3, 38831, Note_on_c, 7, 49, 0
3, 38940, Note_on_c, 7, 54, 64
3, 38975, Note_on_c, 7, 54, 0
3, 39000, Note_on_c, 7, 47, 64
3, 39090, Note_on_c, 7, 47, 0
3, 39090, Note_on_c, 7, 47, 64
3, 39120, Note_on_c, 7, 47, 0
3, 39120, Note_on_c, 7, 47, 64
3, 39155, Note_on_c, 7, 47, 0
3, 39180, Note_on_c, 7, 47, 64
3, 39240, Note_on_c, 7, 47, 0
3, 39240, Note_on_c, 7, 49, 64
3, 39300, Note_on_c, 7, 49, 0
3, 39300, Note_on_c, 7, 43, 64
3, 39360, Note_on_c, 7, 43, 0
3, 39360, Note_on_c, 7, 42, 64
3, 39395, Note_on_c, 7, 42, 0
3, 39420, Note_on_c, 7, 49, 64
3, 39480, Note_on_c, 7, 49, 0
3, 39480, Note_on_c, 7, 50, 64
3, 39540, Note_on_c, 7, 50, 0
3, 39540, Note_on_c, 7, 43, 64
3, 39600, Note_on_c, 7, 43, 0
3, 39600, Note_on_c, 7, 42, 64
3, 39635, Note_on_c, 7, 42, 0
3, 39660, Note_on_c, 7, 51, 64
3, 39720, Note_on_c, 7, 51, 0
3, 39720, Note_on_c, 7, 52, 64
3, 39750, Note_on_c, 7, 52, 0
3, 39750, Note_on_c, 7, 50, 64
3, 39780, Note_on_c, 7, 50, 0
3, 39780, Note_on_c, 7, 48, 64
3, 39870, Note_on_c, 7, 48, 0
3, 39870, Note_on_c, 7, 47, 64
3, 39900, Note_on_c, 7, 47, 0
3, 39900, Note_on_c, 7, 46, 64
3, 39930, Note_on_c, 7, 46, 0
3, 39930, Note_on_c, 7, 47, 64
3, 39960, Note_on_c, 7, 47, 0
3, 39960, Note_on_c, 7, 46, 64
3, 39995, Note_on_c, 7, 46, 0
3, 40020, Note_on_c, 7, 55, 64
3, 40080, Note_on_c, 7, 55, 0
3, 40080, Note_on_c, 7, 54, 64
3, 40140, Note_on_c, 7, 54, 0
3, 40140, Note_on_c, 7, 52, 64
3, 40200, Note_on_c, 7, 52, 0
3, 40200, Note_on_c, 7, 50, 64
3, 40260, Note_on_c, 7, 50, 0
3, 40260, Note_on_c, 7, 49, 64
3, 40290, Note_on_c, 7, 49, 0
3, 40290, Note_on_c, 7, 47, 64
3, 40320, Note_on_c, 7, 47, 0
3, 40320, Note_on_c, 7, 54, 64
3, 40560, Note_on_c, 7, 54, 0
3, 40560, Note_on_c, 7, 53, 64
3, 40680, Note_on_c, 7, 53, 0
3, 40680, Note_on_c, 7, 54, 64
3, 40800, Note_on_c, 7, 54, 0
3, 40860, Note_on_c, 7, 52, 64
3, 40920, Note_on_c, 7, 52, 0
3, 40920, Note_on_c, 7, 50, 64
3, 40980, Note_on_c, 7, 50, 0
3, 40980, Note_on_c, 7, 49, 64
3, 41040, Note_on_c, 7, 49, 0
3, 41040, Note_on_c, 7, 50, 64
3, 41100, Note_on_c, 7, 50, 0
3, 41100, Note_on_c, 7, 47, 64
3, 41160, Note_on_c, 7, 47, 0
3, 41160, Note_on_c, 7, 49, 64
3, 41280, Note_on_c, 7, 49, 0
3, 41280, Note_on_c, 7, 37, 64
3, 41400, Note_on_c, 7, 37, 0
3, 41400, Note_on_c, 7, 42, 64
3, 41520, Note_on_c, 7, 42, 0
3, 41580, Note_on_c, 7, 47, 64
3, 41640, Note_on_c, 7, 47, 0
3, 41640, Note_on_c, 7, 52, 64
3, 41760, Note_on_c, 7, 52, 0
3, 41760, Note_on_c, 7, 40, 64
3, 41880, Note_on_c, 7, 40, 0
3, 41880, Note_on_c, 7, 45, 64
3, 42000, Note_on_c, 7, 45, 0
3, 42060, Note_on_c, 7, 45, 64
3, 42120, Note_on_c, 7, 45, 0
3, 42120, Note_on_c, 7, 50, 64
3, 42240, Note_on_c, 7, 50, 0
3, 42300, Note_on_c, 7, 38, 64
3, 42360, Note_on_c, 7, 38, 0
3, 42360, Note_on_c, 7, 43, 64
3, 42420, Note_on_c, 7, 43, 0
3, 42420, Note_on_c, 7, 42, 64
3, 42480, Note_on_c, 7, 42, 0
3, 42480, Note_on_c, 7, 40, 64
3, 42540, Note_on_c, 7, 40, 0
3, 42540, Note_on_c, 7, 38, 64
3, 42600, Note_on_c, 7, 38, 0
3, 42600, Note_on_c, 7, 40, 64
3, 42720, Note_on_c, 7, 40, 0
3, 42720, Note_on_c, 7, 42, 64
3, 42840, Note_on_c, 7, 42, 0
3, 42840, Note_on_c, 7, 47, 64
3, 42960, Note_on_c, 7, 47, 0
3, 42960, Note_on_c, 7, 45, 64
3, 43080, Note_on_c, 7, 45, 0
3, 43080, Note_on_c, 7, 43, 64
3, 43140, Note_on_c, 7, 43, 0
3, 43140, Note_on_c, 7, 52, 64
3, 43200, Note_on_c, 7, 52, 0
3, 43200, Note_on_c, 7, 50, 64
3, 43260, Note_on_c, 7, 50, 0
3, 43260, Note_on_c, 7, 49, 64
3, 43320, Note_on_c, 7, 49, 0
3, 43320, Note_on_c, 7, 54, 64
3, 43380, Note_on_c, 7, 54, 0
3, 43380, Note_on_c, 7, 52, 64
3, 43440, Note_on_c, 7, 52, 0
3, 43440, Note_on_c, 7, 50, 64
3, 43500, Note_on_c, 7, 50, 0
3, 43500, Note_on_c, 7, 49, 64
3, 43560, Note_on_c, 7, 49, 0
3, 43560, Note_on_c, 7, 47, 64
3, 43620, Note_on_c, 7, 47, 0
3, 43620, Note_on_c, 7, 49, 64
3, 43680, Note_on_c, 7, 49, 0
3, 43680, Note_on_c, 7, 50, 64
3, 43740, Note_on_c, 7, 50, 0
3, 43740, Note_on_c, 7, 49, 64
3, 43800, Note_on_c, 7, 49, 0
3, 43800, Note_on_c, 7, 47, 64
3, 43860, Note_on_c, 7, 47, 0
3, 43860, Note_on_c, 7, 45, 64
3, 43890, Note_on_c, 7, 45, 0
3, 43890, Note_on_c, 7, 47, 64
3, 43920, Note_on_c, 7, 47, 0
3, 43920, Note_on_c, 7, 49, 64
3, 44040, Note_on_c, 7, 49, 0
3, 44040, Note_on_c, 7, 42, 64
3, 44160, Note_on_c, 7, 42, 0
3, 44340, Note_on_c, 7, 59, 64
3, 44400, Note_on_c, 7, 59, 0
3, 44400, Note_on_c, 7, 57, 64
3, 44460, Note_on_c, 7, 57, 0
3, 44460, Note_on_c, 7, 54, 64
3, 44520, Note_on_c, 7, 54, 0
3, 44520, Note_on_c, 7, 56, 64
3, 44640, Note_on_c, 7, 56, 0
3, 44640, Note_on_c, 7, 49, 64
3, 44760, Note_on_c, 7, 49, 0
3, 44760, Note_on_c, 7, 54, 64
3, 44880, Note_on_c, 7, 54, 0
3, 44880, Note_on_c, 7, 53, 64
3, 45000, Note_on_c, 7, 53, 0
3, 45000, Note_on_c, 7, 52, 64
3, 45120, Note_on_c, 7, 52, 0
3, 45120, Note_on_c, 7, 40, 64
3, 45240, Note_on_c, 7, 40, 0
3, 45240, Note_on_c, 7, 45, 64
3, 45300, Note_on_c, 7, 45, 0
3, 45300, Note_on_c, 7, 57, 64
3, 45360, Note_on_c, 7, 57, 0
3, 45360, Note_on_c, 7, 55, 64
3, 45420, Note_on_c, 7, 55, 0
3, 45420, Note_on_c, 7, 52, 64
3, 45480, Note_on_c, 7, 52, 0
3, 45480, Note_on_c, 7, 54, 64
3, 45600, Note_on_c, 7, 54, 0
3, 45600, Note_on_c, 7, 42, 64
3, 45720, Note_on_c, 7, 42, 0
3, 45720, Note_on_c, 7, 47, 64
3, 45780, Note_on_c, 7, 47, 0
3, 45780, Note_on_c, 7, 54, 64
3, 45840, Note_on_c, 7, 54, 0
3, 45840, Note_on_c, 7, 59, 64
3, 46020, Note_on_c, 7, 59, 0
3, 46020, Note_on_c, 7, 54, 64
3, 46080, Note_on_c, 7, 54, 0
3, 46080, Note_on_c, 7, 53, 64
3, 46140, Note_on_c, 7, 53, 0
3, 46140, Note_on_c, 7, 59, 64
3, 46200, Note_on_c, 7, 59, 0
3, 46200, Note_on_c, 7, 57, 64
3, 46260, Note_on_c, 7, 57, 0
3, 46260, Note_on_c, 7, 56, 64
3, 46290, Note_on_c, 7, 56, 0
3, 46290, Note_on_c, 7, 54, 64
3, 46320, Note_on_c, 7, 54, 0
3, 46320, Note_on_c, 7, 57, 64
3, 46500, Note_on_c, 7, 57, 0
3, 46500, Note_on_c, 7, 52, 64
3, 46560, Note_on_c, 7, 52, 0
3, 46560, Note_on_c, 7, 51, 64
3, 46620, Note_on_c, 7, 51, 0
3, 46620, Note_on_c, 7, 57, 64
3, 46680, Note_on_c, 7, 57, 0
3, 46680, Note_on_c, 7, 55, 64
3, 46710, Note_on_c, 7, 55, 0
3, 46710, Note_on_c, 7, 54, 64
3, 46740, Note_on_c, 7, 54, 0
3, 46740, Note_on_c, 7, 52, 64
3, 46770, Note_on_c, 7, 52, 0
3, 46770, Note_on_c, 7, 50, 64
3, 46800, Note_on_c, 7, 50, 0
3, 46800, Note_on_c, 7, 48, 64
3, 46860, Note_on_c, 7, 48, 0
3, 46860, Note_on_c, 7, 47, 64
3, 46920, Note_on_c, 7, 47, 0
3, 46920, Note_on_c, 7, 45, 64
3, 46980, Note_on_c, 7, 45, 0
3, 46980, Note_on_c, 7, 43, 64
3, 47010, Note_on_c, 7, 43, 0
3, 47010, Note_on_c, 7, 45, 64
3, 47040, Note_on_c, 7, 45, 0
3, 47040, Note_on_c, 7, 47, 64
3, 47100, Note_on_c, 7, 47, 0
3, 47100, Note_on_c, 7, 47, 64
3, 47160, Note_on_c, 7, 47, 0
3, 47160, Note_on_c, 7, 40, 64
3, 47220, Note_on_c, 7, 40, 0
3, 47220, Note_on_c, 7, 52, 64
3, 47340, Note_on_c, 7, 52, 0
3, 47340, Note_on_c, 7, 50, 64
3, 47400, Note_on_c, 7, 50, 0
3, 47400, Note_on_c, 7, 48, 64
3, 47460, Note_on_c, 7, 48, 0
3, 47460, Note_on_c, 7, 47, 64
3, 47520, Note_on_c, 7, 47, 0
3, 47520, Note_on_c, 7, 48, 64
3, 47640, Note_on_c, 7, 48, 0
3, 47640, Note_on_c, 7, 47, 64
3, 47760, Note_on_c, 7, 47, 0
3, 47760, Note_on_c, 7, 49, 65
3, 47820, Note_on_c, 7, 49, 0
3, 47820, Note_on_c, 7, 51, 66
3, 47880, Note_on_c, 7, 51, 0
3, 47880, Note_on_c, 7, 52, 67
3, 48000, Note_on_c, 7, 52, 0
3, 48000, Note_on_c, 7, 52, 68
3, 48060, Note_on_c, 7, 52, 0
3, 48060, Note_on_c, 7, 54, 69
3, 48120, Note_on_c, 7, 54, 0
3, 48120, Note_on_c, 7, 56, 69
3, 48180, Note_on_c, 7, 56, 0
3, 48180, Note_on_c, 7, 57, 70
3, 48240, Note_on_c, 7, 57, 0
3, 48240, Note_on_c, 7, 59, 71
3, 48300, Note_on_c, 7, 59, 0
3, 48300, Note_on_c, 7, 52, 71
3, 48360, Note_on_c, 7, 52, 0
3, 48360, Note_on_c, 7, 57, 72
3, 48480, Note_on_c, 7, 57, 0
3, 48540, Note_on_c, 7, 56, 74
3, 48600, Note_on_c, 7, 56, 0
3, 48600, Note_on_c, 7, 58, 75
3, 48660, Note_on_c, 7, 58, 0
3, 48660, Note_on_c, 7, 59, 75
3, 48720, Note_on_c, 7, 59, 0
3, 48720, Note_on_c, 7, 61, 76
3, 48780, Note_on_c, 7, 61, 0
3, 48780, Note_on_c, 7, 54, 77
3, 48840, Note_on_c, 7, 54, 0
3, 48840, Note_on_c, 7, 59, 77
3, 48960, Note_on_c, 7, 59, 0
3, 49020, Note_on_c, 7, 57, 79
3, 49080, Note_on_c, 7, 57, 0
3, 49080, Note_on_c, 7, 55, 80
3, 49320, Note_on_c, 7, 55, 0
3, 49320, Note_on_c, 7, 54, 75
3, 49440, Note_on_c, 7, 54, 0
3, 49620, Note_on_c, 7, 59, 64
3, 49740, Note_on_c, 7, 59, 0
3, 49740, Note_on_c, 7, 57, 64
3, 49800, Note_on_c, 7, 57, 0
3, 49800, Note_on_c, 7, 55, 64
3, 49860, Note_on_c, 7, 55, 0
3, 49860, Note_on_c, 7, 52, 64
3, 49920, Note_on_c, 7, 52, 0
3, 49920, Note_on_c, 7, 54, 64
3, 49980, Note_on_c, 7, 54, 0
3, 49980, Note_on_c, 7, 55, 64
3, 50040, Note_on_c, 7, 55, 0
3, 50040, Note_on_c, 7, 54, 64
3, 50100, Note_on_c, 7, 54, 0
3, 50100, Note_on_c, 7, 52, 64
3, 50160, Note_on_c, 7, 52, 0
3, 50160, Note_on_c, 7, 50, 64
3, 50220, Note_on_c, 7, 50, 0
3, 50220, Note_on_c, 7, 49, 64
3, 50280, Note_on_c, 7, 49, 0
3, 50280, Note_on_c, 7, 59, 64
3, 50340, Note_on_c, 7, 59, 0
3, 50340, Note_on_c, 7, 59, 64
3, 50400, Note_on_c, 7, 59, 0
3, 50400, Note_on_c, 7, 57, 64
3, 50460, Note_on_c, 7, 57, 0
3, 50460, Note_on_c, 7, 56, 64
3, 50490, Note_on_c, 7, 56, 0
3, 50490, Note_on_c, 7, 57, 64
3, 50520, Note_on_c, 7, 57, 0
3, 50520, Note_on_c, 7, 59, 64
3, 50580, Note_on_c, 7, 59, 0
3, 50580, Note_on_c, 7, 57, 64
3, 50610, Note_on_c, 7, 57, 0
3, 50610, Note_on_c, 7, 59, 64
3, 50640, Note_on_c, 7, 59, 0
3, 50640, Note_on_c, 7, 61, 64
3, 50760, Note_on_c, 7, 61, 0
3, 50760, Note_on_c, 7, 54, 64
3, 50880, Note_on_c, 7, 54, 0
3, 50880, Note_on_c, 7, 52, 64
3, 51000, Note_on_c, 7, 52, 0
3, 51000, Note_on_c, 7, 50, 64
3, 51060, Note_on_c, 7, 50, 0
3, 51060, Note_on_c, 7, 47, 64
3, 51180, Note_on_c, 7, 47, 0
3, 51180, Note_on_c, 7, 49, 64
3, 51240, Note_on_c, 7, 49, 0
3, 51240, Note_on_c, 7, 50, 64
3, 51360, Note_on_c, 7, 50, 0
3, 51360, Note_on_c, 7, 41, 64
3, 51480, Note_on_c, 7, 41, 0
3, 51480, Note_on_c, 7, 42, 64
3, 51540, Note_on_c, 7, 42, 0
3, 51540, Note_on_c, 7, 44, 64
3, 51600, Note_on_c, 7, 44, 0
3, 51600, Note_on_c, 7, 45, 64
3, 51660, Note_on_c, 7, 45, 0
3, 51660, Note_on_c, 7, 42, 64
3, 51720, Note_on_c, 7, 42, 0
3, 51720, Note_on_c, 7, 47, 64
3, 51780, Note_on_c, 7, 47, 0
3, 51780, Note_on_c, 7, 45, 64
3, 51840, Note_on_c, 7, 45, 0
3, 51840, Note_on_c, 7, 44, 64
3, 51900, Note_on_c, 7, 44, 0
3, 51900, Note_on_c, 7, 42, 64
3, 51960, Note_on_c, 7, 42, 0
3, 51960, Note_on_c, 7, 53, 64
3, 52020, Note_on_c, 7, 53, 0
3, 52020, Note_on_c, 7, 51, 64
3, 52080, Note_on_c, 7, 51, 0
3, 52080, Note_on_c, 7, 53, 64
3, 52140, Note_on_c, 7, 53, 0
3, 52140, Note_on_c, 7, 49, 64
3, 52200, Note_on_c, 7, 49, 0
3, 52200, Note_on_c, 7, 54, 64
3, 52260, Note_on_c, 7, 54, 0
3, 52260, Note_on_c, 7, 52, 64
3, 52320, Note_on_c, 7, 52, 0
3, 52320, Note_on_c, 7, 50, 64
3, 52380, Note_on_c, 7, 50, 0
3, 52380, Note_on_c, 7, 49, 64
3, 52440, Note_on_c, 7, 49, 0
3, 52440, Note_on_c, 7, 47, 64
3, 52560, Note_on_c, 7, 47, 0
3, 52560, Note_on_c, 7, 49, 64
3, 52680, Note_on_c, 7, 49, 0
3, 52680, Note_on_c, 7, 50, 64
3, 52800, Note_on_c, 7, 50, 0
3, 52800, Note_on_c, 7, 49, 64
3, 52860, Note_on_c, 7, 49, 0
3, 52860, Note_on_c, 7, 47, 64
3, 52920, Note_on_c, 7, 47, 0
3, 52920, Note_on_c, 7, 45, 64
3, 52980, Note_on_c, 7, 45, 0
3, 52980, Note_on_c, 7, 44, 64
3, 53040, Note_on_c, 7, 44, 0
3, 53040, Note_on_c, 7, 45, 64
3, 53100, Note_on_c, 7, 45, 0
3, 53100, Note_on_c, 7, 47, 64
3, 53160, Note_on_c, 7, 47, 0
3, 53160, Note_on_c, 7, 49, 64
3, 53700, Note_on_c, 7, 49, 0
3, 53700, Note_on_c, 7, 47, 64
3, 53760, Note_on_c, 7, 47, 0
3, 53760, Note_on_c, 7, 49, 64
3, 53880, Note_on_c, 7, 49, 0
3, 53880, Note_on_c, 7, 42, 40
3, 53940, Note_on_c, 7, 42, 0
3, 53940, Note_on_c, 7, 54, 41
3, 54060, Note_on_c, 7, 54, 0
3, 54060, Note_on_c, 7, 55, 43
3, 54090, Note_on_c, 7, 55, 0
3, 54090, Note_on_c, 7, 57, 44
3, 54120, Note_on_c, 7, 57, 0
3, 54120, Note_on_c, 7, 59, 44
3, 54240, Note_on_c, 7, 59, 0
3, 54240, Note_on_c, 7, 47, 47
3, 54360, Note_on_c, 7, 47, 0
3, 54360, Note_on_c, 7, 52, 49
3, 54540, Note_on_c, 7, 52, 0
3, 54540, Note_on_c, 7, 50, 52
3, 54570, Note_on_c, 7, 50, 0
3, 54570, Note_on_c, 7, 52, 53
3, 54600, Note_on_c, 7, 52, 0
3, 54600, Note_on_c, 7, 54, 53
3, 54720, Note_on_c, 7, 54, 0
3, 54720, Note_on_c, 7, 42, 55
3, 54840, Note_on_c, 7, 42, 0
3, 54840, Note_on_c, 7, 47, 58
3, 55020, Note_on_c, 7, 47, 0
3, 55020, Note_on_c, 7, 45, 61
3, 55050, Note_on_c, 7, 45, 0
3, 55050, Note_on_c, 7, 47, 61
3, 55080, Note_on_c, 7, 47, 0
3, 55080, Note_on_c, 7, 49, 62
3, 55200, Note_on_c, 7, 49, 0
3, 55200, Note_on_c, 7, 37, 64
3, 55320, Note_on_c, 7, 37, 0
3, 55320, Note_on_c, 7, 42, 66
3, 55380, Note_on_c, 7, 42, 0
3, 55380, Note_on_c, 7, 54, 67
3, 55500, Note_on_c, 7, 54, 0
3, 55500, Note_on_c, 7, 55, 70
3, 55530, Note_on_c, 7, 55, 0
3, 55530, Note_on_c, 7, 57, 70
3, 55560, Note_on_c, 7, 57, 0
3, 55560, Note_on_c, 7, 59, 71
3, 55680, Note_on_c, 7, 59, 0
3, 55680, Note_on_c, 7, 47, 73
3, 55800, Note_on_c, 7, 47, 0
3, 55800, Note_on_c, 7, 40, 75
3, 55871, Note_on_c, 7, 40, 0
3, 55980, Note_on_c, 7, 52, 75
3, 56015, Note_on_c, 7, 52, 0
3, 56040, Note_on_c, 7, 50, 75
3, 56111, Note_on_c, 7, 50, 0
3, 56220, Note_on_c, 7, 49, 75
3, 56255, Note_on_c, 7, 49, 0
3, 56280, Note_on_c, 7, 54, 75
3, 56351, Note_on_c, 7, 54, 0
3, 56460, Note_on_c, 7, 47, 75
3, 56495, Note_on_c, 7, 47, 0
3, 56520, Note_on_c, 7, 52, 75
3, 56591, Note_on_c, 7, 52, 0
3, 56700, Note_on_c, 7, 45, 75
3, 56735, Note_on_c, 7, 45, 0
3, 56760, Note_on_c, 7, 50, 75
3, 56831, Note_on_c, 7, 50, 0
3, 56940, Note_on_c, 7, 43, 67
3, 56975, Note_on_c, 7, 43, 0
3, 57000, Note_on_c, 7, 49, 65
3, 57071, Note_on_c, 7, 49, 0
3, 57180, Note_on_c, 7, 42, 57
3, 57215, Note_on_c, 7, 42, 0
3, 57240, Note_on_c, 7, 47, 55
3, 57330, Note_on_c, 7, 47, 0
3, 57330, Note_on_c, 7, 47, 56
3, 57360, Note_on_c, 7, 47, 0
3, 57360, Note_on_c, 7, 47, 56
3, 57395, Note_on_c, 7, 47, 0
3, 57420, Note_on_c, 7, 47, 57
3, 57480, Note_on_c, 7, 47, 0
3, 57480, Note_on_c, 7, 49, 57
3, 57540, Note_on_c, 7, 49, 0
3, 57540, Note_on_c, 7, 43, 58
3, 57600, Note_on_c, 7, 43, 0
3, 57600, Note_on_c, 7, 42, 58
3, 57635, Note_on_c, 7, 42, 0
3, 57660, Note_on_c, 7, 49, 59
3, 57720, Note_on_c, 7, 49, 0
3, 57720, Note_on_c, 7, 50, 60
3, 57780, Note_on_c, 7, 50, 0
3, 57780, Note_on_c, 7, 43, 60
3, 57840, Note_on_c, 7, 43, 0
3, 57840, Note_on_c, 7, 42, 61
3, 57875, Note_on_c, 7, 42, 0
3, 57900, Note_on_c, 7, 51, 61
3, 57960, Note_on_c, 7, 51, 0
3, 57960, Note_on_c, 7, 52, 62
3, 57990, Note_on_c, 7, 52, 0
3, 57990, Note_on_c, 7, 50, 62
3, 58020, Note_on_c, 7, 50, 0
3, 58020, Note_on_c, 7, 48, 62
3, 58110, Note_on_c, 7, 48, 0
3, 58110, Note_on_c, 7, 47, 63
3, 58140, Note_on_c, 7, 47, 0
3, 58140, Note_on_c, 7, 46, 63
3, 58170, Note_on_c, 7, 46, 0
3, 58170, Note_on_c, 7, 47, 64
3, 58200, Note_on_c, 7, 47, 0
3, 58200, Note_on_c, 7, 46, 64
3, 58260, Note_on_c, 7, 46, 0
3, 58260, Note_on_c, 7, 44, 64
3, 58320, Note_on_c, 7, 44, 0
3, 58320, Note_on_c, 7, 46, 64
3, 58380, Note_on_c, 7, 46, 0
3, 58380, Note_on_c, 7, 42, 64
3, 58440, Note_on_c, 7, 42, 0
3, 58440, Note_on_c, 7, 47, 64
3, 58500, Note_on_c, 7, 47, 0
3, 58500, Note_on_c, 7, 49, 64
3, 58560, Note_on_c, 7, 49, 0
3, 58560, Note_on_c, 7, 50, 64
3, 58620, Note_on_c, 7, 50, 0
3, 58620, Note_on_c, 7, 47, 64
3, 58680, Note_on_c, 7, 47, 0
3, 58680, Note_on_c, 7, 52, 64
3, 58740, Note_on_c, 7, 52, 0
3, 58740, Note_on_c, 7, 54, 64
3, 58800, Note_on_c, 7, 54, 0
3, 58800, Note_on_c, 7, 55, 64
3, 58860, Note_on_c, 7, 55, 0
3, 58860, Note_on_c, 7, 52, 64
3, 58920, Note_on_c, 7, 52, 0
3, 58920, Note_on_c, 7, 58, 64
3, 58980, Note_on_c, 7, 58, 0
3, 58980, Note_on_c, 7, 56, 64
3, 59040, Note_on_c, 7, 56, 0
3, 59040, Note_on_c, 7, 58, 64
3, 59100, Note_on_c, 7, 58, 0
3, 59100, Note_on_c, 7, 54, 64
3, 59160, Note_on_c, 7, 54, 0
3, 59160, Note_on_c, 7, 59, 64
3, 59220, Note_on_c, 7, 59, 0
3, 59220, Note_on_c, 7, 57, 64
3, 59280, Note_on_c, 7, 57, 0
3, 59280, Note_on_c, 7, 55, 64
3, 59340, Note_on_c, 7, 55, 0
3, 59340, Note_on_c, 7, 54, 64
3, 59400, Note_on_c, 7, 54, 0
3, 59400, Note_on_c, 7, 52, 64
3, 59520, Note_on_c, 7, 52, 0
3, 59520, Note_on_c, 7, 54, 64
3, 59640, Note_on_c, 7, 54, 0
3, 59640, Note_on_c, 7, 55, 64
3, 59760, Note_on_c, 7, 55, 0
3, 59760, Note_on_c, 7, 54, 66
3, 59820, Note_on_c, 7, 54, 0
3, 59820, Note_on_c, 7, 52, 67
3, 59880, Note_on_c, 7, 52, 0
3, 59880, Note_on_c, 7, 50, 68
3, 59940, Note_on_c, 7, 50, 0
3, 59940, Note_on_c, 7, 49, 69
3, 60000, Note_on_c, 7, 49, 0
3, 60000, Note_on_c, 7, 50, 70
3, 60060, Note_on_c, 7, 50, 0
3, 60060, Note_on_c, 7, 52, 71
3, 60120, Note_on_c, 7, 52, 0
3, 60120, Note_on_c, 7, 54, 72
3, 60660, Note_on_c, 7, 54, 0
3, 60660, Note_on_c, 7, 52, 80
3, 60720, Note_on_c, 7, 52, 0
3, 60720, Note_on_c, 7, 54, 80
3, 60840, Note_on_c, 7, 54, 0
3, 60840, Note_on_c, 7, 47, 80
3, 61200, Note_on_c, 7, 47, 0
3, 61560, End_track
4, 0, Start_track
4, 0, MIDI_port, 0
4, 0, Title_t, "Oboe"
4, 0, Program_c, 6, 68
4, 480, Control_c, 6, 7, 100
4, 480, Control_c, 6, 7, 100
4, 480, Note_on_c, 6, 74, 64
4, 480, Note_on_c, 6, 71, 64
4, 660, Note_on_c, 6, 71, 0
4, 660, Note_on_c, 6, 74, 0
4, 660, Note_on_c, 6, 74, 64
4, 660, Note_on_c, 6, 71, 64
4, 720, Note_on_c, 6, 71, 0
4, 720, Note_on_c, 6, 74, 0
4, 720, Note_on_c, 6, 76, 64
4, 720, Note_on_c, 6, 71, 64
4, 780, Note_on_c, 6, 71, 0
4, 780, Note_on_c, 6, 70, 64
4, 840, Note_on_c, 6, 70, 0
4, 840, Note_on_c, 6, 76, 0
4, 960, Note_on_c, 6, 78, 64
4, 960, Note_on_c, 6, 69, 64
4, 1020, Note_on_c, 6, 69, 0
4, 1020, Note_on_c, 6, 72, 64
4, 1140, Note_on_c, 6, 72, 0
4, 1140, Note_on_c, 6, 78, 0
4, 1140, Note_on_c, 6, 78, 64
4, 1140, Note_on_c, 6, 71, 64
4, 1200, Note_on_c, 6, 71, 0
4, 1200, Note_on_c, 6, 78, 0
4, 1200, Note_on_c, 6, 78, 64
4, 1200, Note_on_c, 6, 67, 64
4, 1260, Note_on_c, 6, 78, 0
4, 1260, Note_on_c, 6, 76, 64
4, 1320, Note_on_c, 6, 76, 0
4, 1320, Note_on_c, 6, 67, 0
4, 1440, Note_on_c, 6, 79, 64
4, 1440, Note_on_c, 6, 73, 64
4, 1500, Note_on_c, 6, 79, 0
4, 1500, Note_on_c, 6, 78, 64
4, 1620, Note_on_c, 6, 78, 0
4, 1620, Note_on_c, 6, 73, 0
4, 1620, Note_on_c, 6, 76, 64
4, 1620, Note_on_c, 6, 73, 64
4, 1680, Note_on_c, 6, 73, 0
4, 1680, Note_on_c, 6, 76, 0
4, 1680, Note_on_c, 6, 74, 64
4, 1680, Note_on_c, 6, 71, 64
4, 1740, Note_on_c, 6, 74, 0
4, 1740, Note_on_c, 6, 76, 64
4, 1800, Note_on_c, 6, 76, 0
4, 1800, Note_on_c, 6, 71, 0
4, 1800, Note_on_c, 6, 78, 64
4, 1860, Note_on_c, 6, 73, 64
4, 1920, Note_on_c, 6, 73, 0
4, 1920, Note_on_c, 6, 71, 64
4, 1980, Note_on_c, 6, 71, 0
4, 1980, Note_on_c, 6, 78, 0
4, 1980, Note_on_c, 6, 76, 65
4, 1980, Note_on_c, 6, 70, 65
4, 2010, Note_on_c, 6, 76, 0
4, 2010, Note_on_c, 6, 74, 66
4, 2040, Note_on_c, 6, 74, 0
4, 2040, Note_on_c, 6, 70, 0
4, 2040, Note_on_c, 6, 76, 67
4, 2040, Note_on_c, 6, 71, 67
4, 2100, Note_on_c, 6, 71, 0
4, 2100, Note_on_c, 6, 73, 68
4, 2160, Note_on_c, 6, 73, 0
4, 2160, Note_on_c, 6, 76, 0
4, 2160, Note_on_c, 6, 78, 70
4, 2160, Note_on_c, 6, 70, 70
4, 2400, Note_on_c, 6, 70, 0
4, 2400, Note_on_c, 6, 78, 0
4, 2520, Note_on_c, 6, 71, 64
4, 2610, Note_on_c, 6, 71, 0
4, 2610, Note_on_c, 6, 71, 64
4, 2640, Note_on_c, 6, 71, 0
4, 2640, Note_on_c, 6, 71, 64
4, 2675, Note_on_c, 6, 71, 0
4, 2700, Note_on_c, 6, 71, 64
4, 2760, Note_on_c, 6, 71, 0
4, 2760, Note_on_c, 6, 73, 64
4, 2820, Note_on_c, 6, 73, 0
4, 2820, Note_on_c, 6, 67, 64
4, 2880, Note_on_c, 6, 67, 0
4, 2880, Note_on_c, 6, 66, 64
4, 2915, Note_on_c, 6, 66, 0
4, 2940, Note_on_c, 6, 73, 64
4, 3000, Note_on_c, 6, 73, 0
4, 3000, Note_on_c, 6, 74, 64
4, 3060, Note_on_c, 6, 74, 0
4, 3060, Note_on_c, 6, 67, 64
4, 3120, Note_on_c, 6, 67, 0
4, 3120, Note_on_c, 6, 66, 64
4, 3155, Note_on_c, 6, 66, 0
4, 3180, Note_on_c, 6, 75, 64
4, 3240, Note_on_c, 6, 75, 0
4, 3240, Note_on_c, 6, 76, 64
4, 3270, Note_on_c, 6, 76, 0
4, 3270, Note_on_c, 6, 74, 64
4, 3300, Note_on_c, 6, 74, 0
4, 3300, Note_on_c, 6, 72, 64
4, 3390, Note_on_c, 6, 72, 0
4, 3390, Note_on_c, 6, 71, 64
4, 3420, Note_on_c, 6, 71, 0
4, 3420, Note_on_c, 6, 70, 64
4, 3450, Note_on_c, 6, 70, 0
4, 3450, Note_on_c, 6, 71, 64
4, 3480, Note_on_c, 6, 71, 0
4, 3480, Note_on_c, 6, 70, 64
4, 3515, Note_on_c, 6, 70, 0
4, 3540, Note_on_c, 6, 79, 64
4, 3600, Note_on_c, 6, 79, 0
4, 3600, Note_on_c, 6, 78, 64
4, 3660, Note_on_c, 6, 78, 0
4, 3660, Note_on_c, 6, 76, 64
4, 3720, Note_on_c, 6, 76, 0
4, 3720, Note_on_c, 6, 74, 64
4, 3720, Note_on_c, 6, 66, 64
4, 3780, Note_on_c, 6, 74, 0
4, 3780, Note_on_c, 6, 73, 64
4, 3810, Note_on_c, 6, 73, 0
4, 3810, Note_on_c, 6, 66, 0
4, 3810, Note_on_c, 6, 71, 64
4, 3810, Note_on_c, 6, 66, 64
4, 3840, Note_on_c, 6, 66, 0
4, 3840, Note_on_c, 6, 71, 0
4, 3840, Note_on_c, 6, 78, 64
4, 3840, Note_on_c, 6, 66, 64
4, 3875, Note_on_c, 6, 66, 0
4, 3900, Note_on_c, 6, 66, 64
4, 3960, Note_on_c, 6, 66, 0
4, 3960, Note_on_c, 6, 68, 64
4, 4020, Note_on_c, 6, 68, 0
4, 4020, Note_on_c, 6, 62, 64
4, 4080, Note_on_c, 6, 62, 0
4, 4080, Note_on_c, 6, 78, 0
4, 4080, Note_on_c, 6, 77, 64
4, 4080, Note_on_c, 6, 61, 64
4, 4115, Note_on_c, 6, 61, 0
4, 4140, Note_on_c, 6, 68, 64
4, 4200, Note_on_c, 6, 68, 0
4, 4200, Note_on_c, 6, 77, 0
4, 4200, Note_on_c, 6, 78, 64
4, 4200, Note_on_c, 6, 69, 64
4, 4260, Note_on_c, 6, 69, 0
4, 4260, Note_on_c, 6, 62, 64
4, 4320, Note_on_c, 6, 62, 0
4, 4320, Note_on_c, 6, 61, 64
4, 4355, Note_on_c, 6, 61, 0
4, 4380, Note_on_c, 6, 70, 64
4, 4440, Note_on_c, 6, 70, 0
4, 4440, Note_on_c, 6, 71, 64
4, 4470, Note_on_c, 6, 71, 0
4, 4470, Note_on_c, 6, 69, 64
4, 4500, Note_on_c, 6, 69, 0
4, 4500, Note_on_c, 6, 78, 0
4, 4500, Note_on_c, 6, 76, 64
4, 4500, Note_on_c, 6, 67, 64
4, 4560, Note_on_c, 6, 76, 0
4, 4560, Note_on_c, 6, 74, 64
4, 4590, Note_on_c, 6, 67, 0
4, 4590, Note_on_c, 6, 66, 64
4, 4620, Note_on_c, 6, 66, 0
4, 4620, Note_on_c, 6, 74, 0
4, 4620, Note_on_c, 6, 73, 64
4, 4620, Note_on_c, 6, 65, 64
4, 4650, Note_on_c, 6, 65, 0
4, 4650, Note_on_c, 6, 66, 64
4, 4680, Note_on_c, 6, 66, 0
4, 4680, Note_on_c, 6, 73, 0
4, 4680, Note_on_c, 6, 71, 64
4, 4680, Note_on_c, 6, 65, 64
4, 4715, Note_on_c, 6, 65, 0
4, 4740, Note_on_c, 6, 74, 64
4, 4800, Note_on_c, 6, 74, 0
4, 4800, Note_on_c, 6, 71, 0
4, 4800, Note_on_c, 6, 80, 64
4, 4800, Note_on_c, 6, 73, 64
4, 4860, Note_on_c, 6, 73, 0
4, 4860, Note_on_c, 6, 71, 64
4, 4920, Note_on_c, 6, 71, 0
4, 4920, Note_on_c, 6, 69, 64
4, 4980, Note_on_c, 6, 69, 0
4, 4980, Note_on_c, 6, 80, 0
4, 4980, Note_on_c, 6, 73, 64
4, 4980, Note_on_c, 6, 68, 64
4, 5010, Note_on_c, 6, 68, 0
4, 5010, Note_on_c, 6, 66, 64
4, 5040, Note_on_c, 6, 66, 0
4, 5040, Note_on_c, 6, 73, 0
4, 5040, Note_on_c, 6, 78, 64
4, 5040, Note_on_c, 6, 73, 64
4, 5100, Note_on_c, 6, 78, 0
4, 5100, Note_on_c, 6, 76, 64
4, 5160, Note_on_c, 6, 76, 0
4, 5160, Note_on_c, 6, 74, 64
4, 5220, Note_on_c, 6, 73, 0
4, 5220, Note_on_c, 6, 66, 64
4, 5280, Note_on_c, 6, 66, 0
4, 5280, Note_on_c, 6, 71, 64
4, 5340, Note_on_c, 6, 71, 0
4, 5340, Note_on_c, 6, 69, 64
4, 5400, Note_on_c, 6, 69, 0
4, 5400, Note_on_c, 6, 68, 64
4, 5460, Note_on_c, 6, 74, 0
4, 5460, Note_on_c, 6, 68, 64
4, 5520, Note_on_c, 6, 68, 0
4, 5520, Note_on_c, 6, 73, 64
4, 5580, Note_on_c, 6, 73, 0
4, 5580, Note_on_c, 6, 71, 64
4, 5640, Note_on_c, 6, 71, 0
4, 5640, Note_on_c, 6, 69, 64
4, 5700, Note_on_c, 6, 68, 0
4, 5700, Note_on_c, 6, 61, 64
4, 5760, Note_on_c, 6, 61, 0
4, 5760, Note_on_c, 6, 66, 64
4, 5820, Note_on_c, 6, 66, 0
4, 5820, Note_on_c, 6, 64, 64
4, 5880, Note_on_c, 6, 64, 0
4, 5880, Note_on_c, 6, 62, 64
4, 5940, Note_on_c, 6, 69, 0
4, 5940, Note_on_c, 6, 77, 64
4, 6000, Note_on_c, 6, 77, 0
4, 6000, Note_on_c, 6, 62, 0
4, 6000, Note_on_c, 6, 78, 64
4, 6000, Note_on_c, 6, 61, 64
4, 6035, Note_on_c, 6, 78, 0
4, 6060, Note_on_c, 6, 69, 64
4, 6120, Note_on_c, 6, 69, 0
4, 6120, Note_on_c, 6, 61, 0
4, 6120, Note_on_c, 6, 68, 64
4, 6120, Note_on_c, 6, 59, 64
4, 6180, Note_on_c, 6, 59, 0
4, 6180, Note_on_c, 6, 68, 0
4, 6180, Note_on_c, 6, 77, 64
4, 6180, Note_on_c, 6, 68, 64
4, 6240, Note_on_c, 6, 68, 0
4, 6240, Note_on_c, 6, 77, 0
4, 6240, Note_on_c, 6, 78, 64
4, 6240, Note_on_c, 6, 69, 64
4, 6275, Note_on_c, 6, 69, 0
4, 6275, Note_on_c, 6, 78, 0
4, 6300, Note_on_c, 6, 80, 64
4, 6300, Note_on_c, 6, 71, 64
4, 6360, Note_on_c, 6, 71, 0
4, 6360, Note_on_c, 6, 80, 0
4, 6360, Note_on_c, 6, 73, 64
4, 6360, Note_on_c, 6, 73, 64
4, 6420, Note_on_c, 6, 73, 0
4, 6420, Note_on_c, 6, 73, 0
4, 6420, Note_on_c, 6, 65, 64
4, 6420, Note_on_c, 6, 74, 64
4, 6480, Note_on_c, 6, 74, 0
4, 6480, Note_on_c, 6, 65, 0
4, 6480, Note_on_c, 6, 66, 64
4, 6480, Note_on_c, 6, 73, 64
4, 6515, Note_on_c, 6, 73, 0
4, 6515, Note_on_c, 6, 66, 0
4, 6540, Note_on_c, 6, 74, 64
4, 6540, Note_on_c, 6, 66, 64
4, 6600, Note_on_c, 6, 74, 0
4, 6600, Note_on_c, 6, 69, 64
4, 6660, Note_on_c, 6, 69, 0
4, 6660, Note_on_c, 6, 66, 0
4, 6660, Note_on_c, 6, 68, 64
4, 6660, Note_on_c, 6, 65, 64
4, 6780, Note_on_c, 6, 65, 0
4, 6780, Note_on_c, 6, 68, 0
4, 6780, Note_on_c, 6, 69, 64
4, 6780, Note_on_c, 6, 66, 64
4, 6840, Note_on_c, 6, 66, 0
4, 6840, Note_on_c, 6, 69, 0
4, 6840, Note_on_c, 6, 71, 64
4, 6840, Note_on_c, 6, 68, 64
4, 6875, Note_on_c, 6, 68, 0
4, 6875, Note_on_c, 6, 71, 0
4, 6900, Note_on_c, 6, 74, 64
4, 6900, Note_on_c, 6, 71, 64
4, 6960, Note_on_c, 6, 71, 0
4, 6960, Note_on_c, 6, 74, 0
4, 6960, Note_on_c, 6, 73, 64
4, 6960, Note_on_c, 6, 69, 64
4, 7020, Note_on_c, 6, 69, 0
4, 7020, Note_on_c, 6, 73, 0
4, 7020, Note_on_c, 6, 71, 64
4, 7020, Note_on_c, 6, 68, 64
4, 7080, Note_on_c, 6, 68, 0
4, 7080, Note_on_c, 6, 71, 0
4, 7080, Note_on_c, 6, 69, 64
4, 7080, Note_on_c, 6, 66, 64
4, 7140, Note_on_c, 6, 66, 0
4, 7140, Note_on_c, 6, 74, 64
4, 7200, Note_on_c, 6, 74, 0
4, 7200, Note_on_c, 6, 69, 0
4, 7200, Note_on_c, 6, 69, 64
4, 7200, Note_on_c, 6, 73, 64
4, 7215, Note_on_c, 6, 69, 0
4, 7215, Note_on_c, 6, 68, 64
4, 7230, Note_on_c, 6, 68, 0
4, 7230, Note_on_c, 6, 69, 64
4, 7245, Note_on_c, 6, 69, 0
4, 7245, Note_on_c, 6, 68, 64
4, 7260, Note_on_c, 6, 68, 0
4, 7260, Note_on_c, 6, 73, 0
4, 7260, Note_on_c, 6, 69, 64
4, 7260, Note_on_c, 6, 71, 64
4, 7275, Note_on_c, 6, 69, 0
4, 7275, Note_on_c, 6, 68, 64
4, 7290, Note_on_c, 6, 68, 0
4, 7290, Note_on_c, 6, 66, 64
4, 7305, Note_on_c, 6, 66, 0
4, 7305, Note_on_c, 6, 68, 64
4, 7320, Note_on_c, 6, 68, 0
4, 7320, Note_on_c, 6, 66, 40
4, 7380, Note_on_c, 6, 71, 0
4, 7380, Note_on_c, 6, 69, 41
4, 7410, Note_on_c, 6, 69, 0
4, 7410, Note_on_c, 6, 71, 41
4, 7440, Note_on_c, 6, 71, 0
4, 7440, Note_on_c, 6, 66, 0
4, 7440, Note_on_c, 6, 72, 42
4, 7620, Note_on_c, 6, 72, 0
4, 7620, Note_on_c, 6, 64, 44
4, 7680, Note_on_c, 6, 64, 0
4, 7680, Note_on_c, 6, 78, 45
4, 7680, Note_on_c, 6, 63, 45
4, 7715, Note_on_c, 6, 63, 0
4, 7740, Note_on_c, 6, 69, 45
4, 7800, Note_on_c, 6, 69, 0
4, 7800, Note_on_c, 6, 67, 46
4, 7860, Note_on_c, 6, 78, 0
4, 7860, Note_on_c, 6, 76, 47
4, 7890, Note_on_c, 6, 76, 0
4, 7890, Note_on_c, 6, 78, 47
4, 7920, Note_on_c, 6, 78, 0
4, 7920, Note_on_c, 6, 67, 0
4, 7920, Note_on_c, 6, 79, 48
4, 8100, Note_on_c, 6, 79, 0
4, 8100, Note_on_c, 6, 71, 50
4, 8160, Note_on_c, 6, 71, 0
4, 8160, Note_on_c, 6, 70, 51
4, 8160, Note_on_c, 6, 73, 51
4, 8195, Note_on_c, 6, 70, 0
4, 8220, Note_on_c, 6, 76, 51
4, 8280, Note_on_c, 6, 76, 0
4, 8280, Note_on_c, 6, 74, 52
4, 8340, Note_on_c, 6, 73, 0
4, 8340, Note_on_c, 6, 71, 53
4, 8370, Note_on_c, 6, 71, 0
4, 8370, Note_on_c, 6, 73, 53
4, 8400, Note_on_c, 6, 73, 0
4, 8400, Note_on_c, 6, 74, 0
4, 8400, Note_on_c, 6, 74, 54
4, 8580, Note_on_c, 6, 74, 0
4, 8580, Note_on_c, 6, 66, 56
4, 8640, Note_on_c, 6, 66, 0
4, 8640, Note_on_c, 6, 80, 57
4, 8640, Note_on_c, 6, 65, 57
4, 8675, Note_on_c, 6, 65, 0
4, 8700, Note_on_c, 6, 71, 57
4, 8760, Note_on_c, 6, 71, 0
4, 8760, Note_on_c, 6, 69, 58
4, 8820, Note_on_c, 6, 80, 0
4, 8820, Note_on_c, 6, 78, 59
4, 8850, Note_on_c, 6, 78, 0
4, 8850, Note_on_c, 6, 80, 59
4, 8880, Note_on_c, 6, 80, 0
4, 8880, Note_on_c, 6, 69, 0
4, 8880, Note_on_c, 6, 81, 60
4, 9060, Note_on_c, 6, 81, 0
4, 9060, Note_on_c, 6, 72, 62
4, 9120, Note_on_c, 6, 72, 0
4, 9120, Note_on_c, 6, 71, 63
4, 9120, Note_on_c, 6, 75, 63
4, 9155, Note_on_c, 6, 71, 0
4, 9180, Note_on_c, 6, 81, 63
4, 9215, Note_on_c, 6, 81, 0
4, 9240, Note_on_c, 6, 75, 0
4, 9240, Note_on_c, 6, 80, 99
4, 9240, Note_on_c, 6, 76, 99
4, 9300, Note_on_c, 6, 76, 0
4, 9300, Note_on_c, 6, 80, 0
4, 9300, Note_on_c, 6, 74, 80
4, 9300, Note_on_c, 6, 71, 80
4, 9360, Note_on_c, 6, 71, 0
4, 9360, Note_on_c, 6, 74, 0
4, 9360, Note_on_c, 6, 73, 80
4, 9360, Note_on_c, 6, 70, 80
4, 9395, Note_on_c, 6, 70, 0
4, 9395, Note_on_c, 6, 73, 0
4, 9420, Note_on_c, 6, 82, 80
4, 9420, Note_on_c, 6, 73, 80
4, 9455, Note_on_c, 6, 73, 0
4, 9455, Note_on_c, 6, 82, 0
4, 9480, Note_on_c, 6, 83, 99
4, 9480, Note_on_c, 6, 66, 99
4, 9540, Note_on_c, 6, 66, 0
4, 9540, Note_on_c, 6, 83, 0
4, 9540, Note_on_c, 6, 78, 80
4, 9540, Note_on_c, 6, 71, 80
4, 9600, Note_on_c, 6, 71, 0
4, 9600, Note_on_c, 6, 78, 0
4, 9600, Note_on_c, 6, 77, 80
4, 9600, Note_on_c, 6, 73, 80
4, 9635, Note_on_c, 6, 73, 0
4, 9635, Note_on_c, 6, 77, 0
4, 9660, Note_on_c, 6, 83, 80
4, 9660, Note_on_c, 6, 65, 80
4, 9695, Note_on_c, 6, 65, 0
4, 9695, Note_on_c, 6, 83, 0
4, 9720, Note_on_c, 6, 82, 99
4, 9720, Note_on_c, 6, 66, 99
4, 9780, Note_on_c, 6, 66, 0
4, 9780, Note_on_c, 6, 82, 0
4, 9780, Note_on_c, 6, 76, 80
4, 9780, Note_on_c, 6, 70, 80
4, 9840, Note_on_c, 6, 70, 0
4, 9840, Note_on_c, 6, 76, 0
4, 9840, Note_on_c, 6, 75, 80
4, 9840, Note_on_c, 6, 71, 80
4, 9875, Note_on_c, 6, 71, 0
4, 9875, Note_on_c, 6, 75, 0
4, 9900, Note_on_c, 6, 81, 80
4, 9900, Note_on_c, 6, 63, 80
4, 9935, Note_on_c, 6, 63, 0
4, 9935, Note_on_c, 6, 81, 0
4, 9960, Note_on_c, 6, 80, 99
4, 9960, Note_on_c, 6, 64, 99
4, 10020, Note_on_c, 6, 64, 0
4, 10020, Note_on_c, 6, 80, 0
4, 10020, Note_on_c, 6, 74, 80
4, 10020, Note_on_c, 6, 68, 80
4, 10080, Note_on_c, 6, 68, 0
4, 10080, Note_on_c, 6, 74, 0
4, 10080, Note_on_c, 6, 73, 80
4, 10080, Note_on_c, 6, 69, 80
4, 10115, Note_on_c, 6, 69, 0
4, 10115, Note_on_c, 6, 73, 0
4, 10140, Note_on_c, 6, 79, 80
4, 10140, Note_on_c, 6, 64, 80
4, 10175, Note_on_c, 6, 64, 0
4, 10175, Note_on_c, 6, 79, 0
4, 10200, Note_on_c, 6, 78, 70
4, 10200, Note_on_c, 6, 62, 70
4, 10260, Note_on_c, 6, 62, 0
4, 10260, Note_on_c, 6, 78, 0
4, 10260, Note_on_c, 6, 70, 67
4, 10260, Note_on_c, 6, 66, 67
4, 10320, Note_on_c, 6, 66, 0
4, 10320, Note_on_c, 6, 70, 0
4, 10320, Note_on_c, 6, 71, 65
4, 10320, Note_on_c, 6, 71, 65
4, 10355, Note_on_c, 6, 71, 0
4, 10380, Note_on_c, 6, 74, 62
4, 10415, Note_on_c, 6, 74, 0
4, 10440, Note_on_c, 6, 76, 60
4, 10500, Note_on_c, 6, 76, 0
4, 10500, Note_on_c, 6, 67, 57
4, 10560, Note_on_c, 6, 67, 0
4, 10560, Note_on_c, 6, 71, 0
4, 10560, Note_on_c, 6, 66, 55
4, 10560, Note_on_c, 6, 70, 55
4, 10595, Note_on_c, 6, 70, 0
4, 10595, Note_on_c, 6, 66, 0
4, 10620, Note_on_c, 6, 76, 52
4, 10620, Note_on_c, 6, 73, 52
4, 10680, Note_on_c, 6, 76, 0
4, 10680, Note_on_c, 6, 74, 50
4, 10740, Note_on_c, 6, 73, 0
4, 10740, Note_on_c, 6, 66, 51
4, 10800, Note_on_c, 6, 66, 0
4, 10800, Note_on_c, 6, 71, 52
4, 10860, Note_on_c, 6, 74, 0
4, 10860, Note_on_c, 6, 76, 53
4, 10890, Note_on_c, 6, 76, 0
4, 10890, Note_on_c, 6, 78, 53
4, 10920, Note_on_c, 6, 78, 0
4, 10920, Note_on_c, 6, 76, 54
4, 11040, Note_on_c, 6, 71, 0
4, 11040, Note_on_c, 6, 70, 55
4, 11100, Note_on_c, 6, 76, 0
4, 11100, Note_on_c, 6, 78, 56
4, 11130, Note_on_c, 6, 78, 0
4, 11130, Note_on_c, 6, 79, 57
4, 11160, Note_on_c, 6, 79, 0
4, 11160, Note_on_c, 6, 70, 0
4, 11160, Note_on_c, 6, 78, 57
4, 11160, Note_on_c, 6, 71, 57
4, 11340, Note_on_c, 6, 78, 0
4, 11340, Note_on_c, 6, 79, 60
4, 11370, Note_on_c, 6, 79, 0
4, 11370, Note_on_c, 6, 81, 60
4, 11400, Note_on_c, 6, 81, 0
4, 11400, Note_on_c, 6, 79, 61
4, 11460, Note_on_c, 6, 71, 0
4, 11460, Note_on_c, 6, 69, 61
4, 11520, Note_on_c, 6, 69, 0
4, 11520, Note_on_c, 6, 67, 62
4, 11580, Note_on_c, 6, 67, 0
4, 11580, Note_on_c, 6, 66, 63
4, 11640, Note_on_c, 6, 66, 0
4, 11640, Note_on_c, 6, 79, 0
4, 11640, Note_on_c, 6, 79, 64
4, 11640, Note_on_c, 6, 64, 64
4, 11700, Note_on_c, 6, 79, 0
4, 11700, Note_on_c, 6, 73, 64
4, 11760, Note_on_c, 6, 73, 0
4, 11760, Note_on_c, 6, 64, 0
4, 11760, Note_on_c, 6, 78, 64
4, 11760, Note_on_c, 6, 73, 64
4, 11820, Note_on_c, 6, 78, 0
4, 11820, Note_on_c, 6, 76, 64
4, 11880, Note_on_c, 6, 76, 0
4, 11880, Note_on_c, 6, 74, 64
4, 11940, Note_on_c, 6, 74, 0
4, 11940, Note_on_c, 6, 73, 0
4, 11940, Note_on_c, 6, 73, 64
4, 11940, Note_on_c, 6, 66, 64
4, 11970, Note_on_c, 6, 73, 0
4, 11970, Note_on_c, 6, 71, 64
4, 12000, Note_on_c, 6, 71, 0
4, 12000, Note_on_c, 6, 66, 0
4, 12000, Note_on_c, 6, 78, 64
4, 12000, Note_on_c, 6, 71, 64
4, 12060, Note_on_c, 6, 71, 0
4, 12060, Note_on_c, 6, 69, 64
4, 12120, Note_on_c, 6, 69, 0
4, 12120, Note_on_c, 6, 67, 64
4, 12180, Note_on_c, 6, 78, 0
4, 12180, Note_on_c, 6, 71, 64
4, 12240, Note_on_c, 6, 71, 0
4, 12240, Note_on_c, 6, 76, 64
4, 12300, Note_on_c, 6, 76, 0
4, 12300, Note_on_c, 6, 74, 64
4, 12360, Note_on_c, 6, 74, 0
4, 12360, Note_on_c, 6, 73, 64
4, 12420, Note_on_c, 6, 67, 0
4, 12420, Note_on_c, 6, 61, 64
4, 12480, Note_on_c, 6, 61, 0
4, 12480, Note_on_c, 6, 66, 64
4, 12540, Note_on_c, 6, 66, 0
4, 12540, Note_on_c, 6, 64, 64
4, 12600, Note_on_c, 6, 64, 0
4, 12600, Note_on_c, 6, 62, 64
4, 12660, Note_on_c, 6, 73, 0
4, 12660, Note_on_c, 6, 66, 64
4, 12720, Note_on_c, 6, 66, 0
4, 12720, Note_on_c, 6, 71, 64
4, 12780, Note_on_c, 6, 71, 0
4, 12780, Note_on_c, 6, 69, 64
4, 12840, Note_on_c, 6, 69, 0
4, 12840, Note_on_c, 6, 67, 64
4, 12900, Note_on_c, 6, 62, 0
4, 12900, Note_on_c, 6, 70, 64
4, 12960, Note_on_c, 6, 70, 0
4, 12960, Note_on_c, 6, 67, 0
4, 12960, Note_on_c, 6, 66, 64
4, 12960, Note_on_c, 6, 71, 64
4, 13020, Note_on_c, 6, 71, 0
4, 13020, Note_on_c, 6, 62, 64
4, 13080, Note_on_c, 6, 62, 0
4, 13080, Note_on_c, 6, 66, 0
4, 13080, Note_on_c, 6, 64, 64
4, 13080, Note_on_c, 6, 61, 64
4, 13115, Note_on_c, 6, 61, 0
4, 13115, Note_on_c, 6, 64, 0
4, 13140, Note_on_c, 6, 73, 64
4, 13140, Note_on_c, 6, 70, 64
4, 13200, Note_on_c, 6, 70, 0
4, 13200, Note_on_c, 6, 73, 0
4, 13200, Note_on_c, 6, 74, 64
4, 13200, Note_on_c, 6, 71, 64
4, 13260, Note_on_c, 6, 71, 0
4, 13260, Note_on_c, 6, 74, 0
4, 13260, Note_on_c, 6, 76, 64
4, 13260, Note_on_c, 6, 73, 64
4, 13320, Note_on_c, 6, 73, 0
4, 13320, Note_on_c, 6, 76, 0
4, 13320, Note_on_c, 6, 78, 64
4, 13320, Note_on_c, 6, 66, 64
4, 13380, Note_on_c, 6, 66, 0
4, 13380, Note_on_c, 6, 78, 0
4, 13380, Note_on_c, 6, 79, 64
4, 13380, Note_on_c, 6, 58, 64
4, 13440, Note_on_c, 6, 58, 0
4, 13440, Note_on_c, 6, 79, 0
4, 13440, Note_on_c, 6, 78, 64
4, 13440, Note_on_c, 6, 59, 64
4, 13500, Note_on_c, 6, 59, 0
4, 13500, Note_on_c, 6, 78, 0
4, 13500, Note_on_c, 6, 71, 64
4, 13500, Note_on_c, 6, 67, 64
4, 13560, Note_on_c, 6, 67, 0
4, 13560, Note_on_c, 6, 62, 64
4, 13620, Note_on_c, 6, 62, 0
4, 13620, Note_on_c, 6, 71, 0
4, 13620, Note_on_c, 6, 70, 64
4, 13620, Note_on_c, 6, 61, 64
4, 13740, Note_on_c, 6, 61, 0
4, 13740, Note_on_c, 6, 70, 0
4, 13740, Note_on_c, 6, 71, 64
4, 13740, Note_on_c, 6, 62, 64
4, 13800, Note_on_c, 6, 62, 0
4, 13800, Note_on_c, 6, 71, 0
4, 13800, Note_on_c, 6, 73, 64
4, 13800, Note_on_c, 6, 64, 64
4, 13835, Note_on_c, 6, 64, 0
4, 13835, Note_on_c, 6, 73, 0
4, 13860, Note_on_c, 6, 76, 64
4, 13860, Note_on_c, 6, 67, 64
4, 13920, Note_on_c, 6, 67, 0
4, 13920, Note_on_c, 6, 76, 0
4, 13920, Note_on_c, 6, 74, 64
4, 13920, Note_on_c, 6, 66, 64
4, 13980, Note_on_c, 6, 66, 0
4, 13980, Note_on_c, 6, 74, 0
4, 13980, Note_on_c, 6, 73, 64
4, 13980, Note_on_c, 6, 64, 64
4, 14040, Note_on_c, 6, 64, 0
4, 14040, Note_on_c, 6, 73, 0
4, 14040, Note_on_c, 6, 71, 64
4, 14040, Note_on_c, 6, 62, 64
4, 14100, Note_on_c, 6, 62, 0
4, 14100, Note_on_c, 6, 67, 64
4, 14160, Note_on_c, 6, 67, 0
4, 14160, Note_on_c, 6, 71, 0
4, 14160, Note_on_c, 6, 71, 64
4, 14160, Note_on_c, 6, 61, 64
4, 14175, Note_on_c, 6, 71, 0
4, 14175, Note_on_c, 6, 70, 64
4, 14190, Note_on_c, 6, 70, 0
4, 14190, Note_on_c, 6, 71, 64
4, 14205, Note_on_c, 6, 71, 0
4, 14205, Note_on_c, 6, 70, 64
4, 14220, Note_on_c, 6, 70, 0
4, 14220, Note_on_c, 6, 61, 0
4, 14220, Note_on_c, 6, 71, 64
4, 14220, Note_on_c, 6, 66, 64
4, 14235, Note_on_c, 6, 71, 0
4, 14235, Note_on_c, 6, 70, 64
4, 14250, Note_on_c, 6, 70, 0
4, 14250, Note_on_c, 6, 68, 64
4, 14265, Note_on_c, 6, 68, 0
4, 14265, Note_on_c, 6, 70, 64
4, 14280, Note_on_c, 6, 70, 0
4, 14280, Note_on_c, 6, 66, 0
4, 14280, Note_on_c, 6, 71, 64
4, 14280, Note_on_c, 6, 62, 64
4, 14340, Note_on_c, 6, 62, 0
4, 14340, Note_on_c, 6, 71, 0
4, 14340, Note_on_c, 6, 67, 64
4, 14340, Note_on_c, 6, 64, 64
4, 14400, Note_on_c, 6, 64, 0
4, 14400, Note_on_c, 6, 67, 0
4, 14400, Note_on_c, 6, 66, 64
4, 14400, Note_on_c, 6, 62, 64
4, 14460, Note_on_c, 6, 62, 0
4, 14460, Note_on_c, 6, 66, 0
4, 14460, Note_on_c, 6, 64, 64
4, 14460, Note_on_c, 6, 61, 64
4, 14520, Note_on_c, 6, 61, 0
4, 14520, Note_on_c, 6, 64, 0
4, 14520, Note_on_c, 6, 62, 64
4, 14520, Note_on_c, 6, 59, 64
4, 14613, Control_c, 6, 7, 70
4, 14613, Control_c, 6, 7, 70
4, 14640, Note_on_c, 6, 59, 0
4, 14640, Note_on_c, 6, 62, 0
4, 14640, Note_on_c, 6, 71, 64
4, 14640, Note_on_c, 6, 62, 64
4, 14760, Note_on_c, 6, 62, 0
4, 14760, Note_on_c, 6, 67, 64
4, 14820, Note_on_c, 6, 67, 0
4, 14820, Note_on_c, 6, 61, 64
4, 14880, Note_on_c, 6, 71, 0
4, 14880, Note_on_c, 6, 70, 64
4, 14940, Note_on_c, 6, 61, 0
4, 14940, Note_on_c, 6, 66, 64
4, 15000, Note_on_c, 6, 70, 0
4, 15000, Note_on_c, 6, 71, 64
4, 15060, Note_on_c, 6, 66, 0
4, 15060, Note_on_c, 6, 64, 64
4, 15120, Note_on_c, 6, 64, 0
4, 15120, Note_on_c, 6, 63, 64
4, 15155, Note_on_c, 6, 63, 0
4, 15180, Note_on_c, 6, 66, 64
4, 15240, Note_on_c, 6, 66, 0
4, 15240, Note_on_c, 6, 59, 64
4, 15300, Note_on_c, 6, 59, 0
4, 15300, Note_on_c, 6, 67, 64
4, 15360, Note_on_c, 6, 67, 0
4, 15360, Note_on_c, 6, 71, 0
4, 15360, Note_on_c, 6, 76, 64
4, 15360, Note_on_c, 6, 66, 64
4, 15395, Note_on_c, 6, 66, 0
4, 15420, Note_on_c, 6, 64, 64
4, 15480, Note_on_c, 6, 64, 0
4, 15480, Note_on_c, 6, 66, 64
4, 15540, Note_on_c, 6, 66, 0
4, 15540, Note_on_c, 6, 76, 0
4, 15540, Note_on_c, 6, 70, 64
4, 15540, Note_on_c, 6, 61, 64
4, 15600, Note_on_c, 6, 61, 0
4, 15600, Note_on_c, 6, 70, 0
4, 15600, Note_on_c, 6, 71, 64
4, 15600, Note_on_c, 6, 62, 64
4, 15660, Note_on_c, 6, 62, 0
4, 15660, Note_on_c, 6, 71, 0
4, 15660, Note_on_c, 6, 73, 64
4, 15660, Note_on_c, 6, 64, 64
4, 15720, Note_on_c, 6, 64, 0
4, 15720, Note_on_c, 6, 73, 0
4, 15720, Note_on_c, 6, 74, 64
4, 15720, Note_on_c, 6, 66, 64
4, 15780, Note_on_c, 6, 66, 0
4, 15780, Note_on_c, 6, 68, 64
4, 15840, Note_on_c, 6, 68, 0
4, 15840, Note_on_c, 6, 74, 0
4, 15840, Note_on_c, 6, 73, 64
4, 15840, Note_on_c, 6, 69, 64
4, 15960, Note_on_c, 6, 69, 0
4, 15960, Note_on_c, 6, 73, 0
4, 15960, Note_on_c, 6, 71, 64
4, 15960, Note_on_c, 6, 68, 64
4, 16200, Note_on_c, 6, 68, 0
4, 16200, Note_on_c, 6, 71, 0
4, 16200, Note_on_c, 6, 69, 64
4, 16200, Note_on_c, 6, 66, 64
4, 16260, Note_on_c, 6, 69, 0
4, 16260, Note_on_c, 6, 71, 64
4, 16320, Note_on_c, 6, 71, 0
4, 16320, Note_on_c, 6, 73, 64
4, 16440, Note_on_c, 6, 73, 0
4, 16440, Note_on_c, 6, 74, 64
4, 16500, Note_on_c, 6, 66, 0
4, 16500, Note_on_c, 6, 71, 64
4, 16530, Note_on_c, 6, 71, 0
4, 16530, Note_on_c, 6, 70, 64
4, 16560, Note_on_c, 6, 70, 0
4, 16560, Note_on_c, 6, 71, 64
4, 16620, Note_on_c, 6, 71, 0
4, 16620, Note_on_c, 6, 69, 64
4, 16680, Note_on_c, 6, 69, 0
4, 16680, Note_on_c, 6, 68, 64
4, 16740, Note_on_c, 6, 74, 0
4, 16740, Note_on_c, 6, 65, 64
4, 16800, Note_on_c, 6, 65, 0
4, 16800, Note_on_c, 6, 68, 0
4, 16800, Note_on_c, 6, 66, 64
4, 16800, Note_on_c, 6, 69, 64
4, 16860, Note_on_c, 6, 69, 0
4, 16860, Note_on_c, 6, 66, 0
4, 16860, Note_on_c, 6, 68, 64
4, 16860, Note_on_c, 6, 65, 64
4, 16920, Note_on_c, 6, 65, 0
4, 16920, Note_on_c, 6, 68, 0
4, 16920, Note_on_c, 6, 69, 64
4, 16920, Note_on_c, 6, 66, 64
4, 17220, Note_on_c, 6, 66, 0
4, 17220, Note_on_c, 6, 69, 0
4, 17220, Note_on_c, 6, 67, 64
4, 17220, Note_on_c, 6, 63, 64
4, 17280, Note_on_c, 6, 63, 0
4, 17280, Note_on_c, 6, 67, 0
4, 17280, Note_on_c, 6, 67, 64
4, 17280, Note_on_c, 6, 59, 64
4, 17340, Note_on_c, 6, 67, 0
4, 17340, Note_on_c, 6, 66, 64
4, 17400, Note_on_c, 6, 66, 0
4, 17400, Note_on_c, 6, 67, 64
4, 17460, Note_on_c, 6, 59, 0
4, 17460, Note_on_c, 6, 64, 64
4, 17520, Note_on_c, 6, 64, 0
4, 17520, Note_on_c, 6, 67, 0
4, 17520, Note_on_c, 6, 76, 64
4, 17520, Note_on_c, 6, 73, 64
4, 17700, Note_on_c, 6, 73, 0
4, 17700, Note_on_c, 6, 76, 0
4, 17700, Note_on_c, 6, 74, 64
4, 17700, Note_on_c, 6, 70, 64
4, 17760, Note_on_c, 6, 70, 0
4, 17760, Note_on_c, 6, 74, 0
4, 17760, Note_on_c, 6, 74, 64
4, 17760, Note_on_c, 6, 66, 64
4, 17820, Note_on_c, 6, 74, 0
4, 17820, Note_on_c, 6, 73, 64
4, 17880, Note_on_c, 6, 73, 0
4, 17880, Note_on_c, 6, 74, 64
4, 17940, Note_on_c, 6, 66, 0
4, 17940, Note_on_c, 6, 62, 64
4, 18000, Note_on_c, 6, 62, 0
4, 18000, Note_on_c, 6, 59, 64
4, 18060, Note_on_c, 6, 59, 0
4, 18060, Note_on_c, 6, 66, 64
4, 18120, Note_on_c, 6, 66, 0
4, 18120, Note_on_c, 6, 74, 0
4, 18120, Note_on_c, 6, 73, 64
4, 18120, Note_on_c, 6, 67, 64
4, 18180, Note_on_c, 6, 67, 0
4, 18180, Note_on_c, 6, 64, 64
4, 18240, Note_on_c, 6, 64, 0
4, 18240, Note_on_c, 6, 61, 64
4, 18300, Note_on_c, 6, 61, 0
4, 18300, Note_on_c, 6, 66, 64
4, 18360, Note_on_c, 6, 73, 0
4, 18360, Note_on_c, 6, 71, 64
4, 18420, Note_on_c, 6, 66, 0
4, 18420, Note_on_c, 6, 64, 64
4, 18480, Note_on_c, 6, 64, 0
4, 18480, Note_on_c, 6, 63, 64
4, 18540, Note_on_c, 6, 63, 0
4, 18540, Note_on_c, 6, 66, 64
4, 18600, Note_on_c, 6, 66, 0
4, 18600, Note_on_c, 6, 67, 64
4, 18660, Note_on_c, 6, 71, 0
4, 18660, Note_on_c, 6, 69, 64
4, 18720, Note_on_c, 6, 69, 0
4, 18720, Note_on_c, 6, 67, 0
4, 18720, Note_on_c, 6, 67, 64
4, 18780, Note_on_c, 6, 61, 64
4, 18840, Note_on_c, 6, 61, 0
4, 18840, Note_on_c, 6, 73, 64
4, 18900, Note_on_c, 6, 67, 0
4, 18900, Note_on_c, 6, 70, 64
4, 18960, Note_on_c, 6, 70, 0
4, 18960, Note_on_c, 6, 73, 0
4, 18960, Note_on_c, 6, 71, 64
4, 19020, Note_on_c, 6, 71, 0
4, 19020, Note_on_c, 6, 73, 64
4, 19020, Note_on_c, 6, 66, 64
4, 19080, Note_on_c, 6, 66, 0
4, 19080, Note_on_c, 6, 73, 0
4, 19080, Note_on_c, 6, 74, 64
4, 19080, Note_on_c, 6, 71, 64
4, 19140, Note_on_c, 6, 71, 0
4, 19140, Note_on_c, 6, 74, 0
4, 19140, Note_on_c, 6, 73, 64
4, 19140, Note_on_c, 6, 69, 64
4, 19200, Note_on_c, 6, 69, 0
4, 19200, Note_on_c, 6, 73, 0
4, 19200, Note_on_c, 6, 71, 64
4, 19200, Note_on_c, 6, 68, 64
4, 19260, Note_on_c, 6, 68, 0
4, 19260, Note_on_c, 6, 71, 0
4, 19260, Note_on_c, 6, 73, 64
4, 19260, Note_on_c, 6, 69, 64
4, 19320, Note_on_c, 6, 69, 0
4, 19320, Note_on_c, 6, 73, 0
4, 19320, Note_on_c, 6, 74, 64
4, 19320, Note_on_c, 6, 71, 64
4, 19350, Note_on_c, 6, 71, 0
4, 19350, Note_on_c, 6, 74, 0
4, 19350, Note_on_c, 6, 73, 64
4, 19350, Note_on_c, 6, 73, 64
4, 19380, Note_on_c, 6, 73, 0
4, 19380, Note_on_c, 6, 73, 0
4, 19380, Note_on_c, 6, 71, 64
4, 19380, Note_on_c, 6, 74, 64
4, 19440, Note_on_c, 6, 74, 0
4, 19440, Note_on_c, 6, 68, 65
4, 19500, Note_on_c, 6, 68, 0
4, 19500, Note_on_c, 6, 71, 0
4, 19500, Note_on_c, 6, 73, 65
4, 19500, Note_on_c, 6, 65, 65
4, 19530, Note_on_c, 6, 73, 0
4, 19530, Note_on_c, 6, 71, 65
4, 19560, Note_on_c, 6, 71, 0
4, 19560, Note_on_c, 6, 65, 0
4, 19560, Note_on_c, 6, 69, 65
4, 19560, Note_on_c, 6, 61, 65
4, 19620, Note_on_c, 6, 69, 0
4, 19620, Note_on_c, 6, 71, 66
4, 19680, Note_on_c, 6, 71, 0
4, 19680, Note_on_c, 6, 61, 0
4, 19680, Note_on_c, 6, 73, 66
4, 19740, Note_on_c, 6, 73, 0
4, 19740, Note_on_c, 6, 71, 66
4, 19740, Note_on_c, 6, 66, 66
4, 19770, Note_on_c, 6, 71, 0
4, 19770, Note_on_c, 6, 73, 67
4, 19800, Note_on_c, 6, 73, 0
4, 19800, Note_on_c, 6, 74, 67
4, 19860, Note_on_c, 6, 74, 0
4, 19860, Note_on_c, 6, 66, 0
4, 19860, Note_on_c, 6, 76, 67
4, 19860, Note_on_c, 6, 67, 67
4, 19890, Note_on_c, 6, 67, 0
4, 19890, Note_on_c, 6, 76, 0
4, 19890, Note_on_c, 6, 78, 67
4, 19890, Note_on_c, 6, 69, 67
4, 19920, Note_on_c, 6, 69, 0
4, 19920, Note_on_c, 6, 78, 0
4, 19920, Note_on_c, 6, 79, 67
4, 19920, Note_on_c, 6, 71, 67
4, 19980, Note_on_c, 6, 71, 0
4, 19980, Note_on_c, 6, 79, 0
4, 19980, Note_on_c, 6, 81, 68
4, 19980, Note_on_c, 6, 73, 68
4, 20040, Note_on_c, 6, 73, 0
4, 20040, Note_on_c, 6, 81, 0
4, 20040, Note_on_c, 6, 83, 68
4, 20040, Note_on_c, 6, 74, 68
4, 20100, Note_on_c, 6, 74, 0
4, 20100, Note_on_c, 6, 71, 68
4, 20160, Note_on_c, 6, 71, 0
4, 20160, Note_on_c, 6, 83, 0
4, 20160, Note_on_c, 6, 65, 69
4, 20220, Note_on_c, 6, 65, 0
4, 20220, Note_on_c, 6, 65, 69
4, 20220, Note_on_c, 6, 68, 69
4, 20280, Note_on_c, 6, 68, 0
4, 20280, Note_on_c, 6, 65, 0
4, 20280, Note_on_c, 6, 61, 69
4, 20280, Note_on_c, 6, 69, 69
4, 20340, Note_on_c, 6, 61, 0
4, 20340, Note_on_c, 6, 62, 70
4, 20370, Note_on_c, 6, 62, 0
4, 20370, Note_on_c, 6, 64, 70
4, 20400, Note_on_c, 6, 64, 0
4, 20400, Note_on_c, 6, 66, 70
4, 20460, Note_on_c, 6, 69, 0
4, 20460, Note_on_c, 6, 71, 70
4, 20490, Note_on_c, 6, 71, 0
4, 20490, Note_on_c, 6, 72, 71
4, 20520, Note_on_c, 6, 72, 0
4, 20520, Note_on_c, 6, 63, 71
4, 20550, Note_on_c, 6, 63, 0
4, 20550, Note_on_c, 6, 64, 71
4, 20580, Note_on_c, 6, 64, 0
4, 20580, Note_on_c, 6, 66, 0
4, 20580, Note_on_c, 6, 59, 71
4, 20580, Note_on_c, 6, 66, 71
4, 20640, Note_on_c, 6, 59, 0
4, 20640, Note_on_c, 6, 71, 71
4, 20700, Note_on_c, 6, 66, 0
4, 20700, Note_on_c, 6, 67, 72
4, 20730, Note_on_c, 6, 67, 0
4, 20730, Note_on_c, 6, 66, 72
4, 20760, Note_on_c, 6, 66, 0
4, 20760, Note_on_c, 6, 64, 72
4, 20790, Note_on_c, 6, 64, 0
4, 20790, Note_on_c, 6, 63, 72
4, 20820, Note_on_c, 6, 63, 0
4, 20820, Note_on_c, 6, 71, 0
4, 20820, Note_on_c, 6, 73, 72
4, 20820, Note_on_c, 6, 64, 72
4, 20850, Note_on_c, 6, 64, 0
4, 20850, Note_on_c, 6, 73, 0
4, 20850, Note_on_c, 6, 74, 73
4, 20850, Note_on_c, 6, 66, 73
4, 20880, Note_on_c, 6, 66, 0
4, 20880, Note_on_c, 6, 74, 0
4, 20880, Note_on_c, 6, 76, 73
4, 20880, Note_on_c, 6, 67, 73
4, 20940, Note_on_c, 6, 67, 0
4, 20940, Note_on_c, 6, 69, 73
4, 20970, Note_on_c, 6, 69, 0
4, 20970, Note_on_c, 6, 71, 73
4, 21000, Note_on_c, 6, 71, 0
4, 21000, Note_on_c, 6, 61, 73
4, 21030, Note_on_c, 6, 61, 0
4, 21030, Note_on_c, 6, 62, 74
4, 21060, Note_on_c, 6, 62, 0
4, 21060, Note_on_c, 6, 76, 0
4, 21060, Note_on_c, 6, 69, 74
4, 21060, Note_on_c, 6, 64, 74
4, 21120, Note_on_c, 6, 69, 0
4, 21120, Note_on_c, 6, 81, 74
4, 21180, Note_on_c, 6, 64, 0
4, 21180, Note_on_c, 6, 66, 74
4, 21210, Note_on_c, 6, 66, 0
4, 21210, Note_on_c, 6, 64, 75
4, 21240, Note_on_c, 6, 64, 0
4, 21240, Note_on_c, 6, 62, 75
4, 21270, Note_on_c, 6, 81, 0
4, 21270, Note_on_c, 6, 79, 75
4, 21300, Note_on_c, 6, 79, 0
4, 21300, Note_on_c, 6, 62, 0
4, 21300, Note_on_c, 6, 78, 75
4, 21300, Note_on_c, 6, 66, 75
4, 21330, Note_on_c, 6, 78, 0
4, 21330, Note_on_c, 6, 76, 75
4, 21360, Note_on_c, 6, 76, 0
4, 21360, Note_on_c, 6, 66, 0
4, 21360, Note_on_c, 6, 74, 75
4, 21360, Note_on_c, 6, 71, 75
4, 21420, Note_on_c, 6, 71, 0
4, 21420, Note_on_c, 6, 69, 76
4, 21480, Note_on_c, 6, 69, 0
4, 21480, Note_on_c, 6, 67, 76
4, 21540, Note_on_c, 6, 74, 0
4, 21540, Note_on_c, 6, 73, 76
4, 21570, Note_on_c, 6, 73, 0
4, 21570, Note_on_c, 6, 74, 77
4, 21600, Note_on_c, 6, 74, 0
4, 21600, Note_on_c, 6, 76, 77
4, 21660, Note_on_c, 6, 67, 0
4, 21660, Note_on_c, 6, 66, 77
4, 21690, Note_on_c, 6, 66, 0
4, 21690, Note_on_c, 6, 64, 77
4, 21720, Note_on_c, 6, 64, 0
4, 21720, Note_on_c, 6, 69, 77
4, 21750, Note_on_c, 6, 76, 0
4, 21750, Note_on_c, 6, 74, 78
4, 21780, Note_on_c, 6, 74, 0
4, 21780, Note_on_c, 6, 69, 0
4, 21780, Note_on_c, 6, 73, 78
4, 21780, Note_on_c, 6, 67, 78
4, 21810, Note_on_c, 6, 73, 0
4, 21810, Note_on_c, 6, 71, 78
4, 21840, Note_on_c, 6, 71, 0
4, 21840, Note_on_c, 6, 67, 0
4, 21840, Note_on_c, 6, 70, 78
4, 21840, Note_on_c, 6, 66, 78
4, 21900, Note_on_c, 6, 70, 0
4, 21900, Note_on_c, 6, 66, 78
4, 21960, Note_on_c, 6, 66, 0
4, 21960, Note_on_c, 6, 78, 79
4, 22020, Note_on_c, 6, 66, 0
4, 22020, Note_on_c, 6, 68, 79
4, 22050, Note_on_c, 6, 68, 0
4, 22050, Note_on_c, 6, 78, 0
4, 22050, Note_on_c, 6, 76, 79
4, 22050, Note_on_c, 6, 70, 79
4, 22080, Note_on_c, 6, 70, 0
4, 22080, Note_on_c, 6, 76, 0
4, 22080, Note_on_c, 6, 74, 79
4, 22080, Note_on_c, 6, 71, 79
4, 22140, Note_on_c, 6, 71, 0
4, 22140, Note_on_c, 6, 74, 0
4, 22140, Note_on_c, 6, 73, 80
4, 22140, Note_on_c, 6, 73, 80
4, 22170, Note_on_c, 6, 73, 0
4, 22170, Note_on_c, 6, 73, 0
4, 22170, Note_on_c, 6, 71, 80
4, 22170, Note_on_c, 6, 74, 80
4, 22200, Note_on_c, 6, 74, 0
4, 22200, Note_on_c, 6, 71, 0
4, 22200, Control_c, 6, 7, 100
4, 22200, Control_c, 6, 7, 100
4, 22200, Note_on_c, 6, 76, 64
4, 22200, Note_on_c, 6, 73, 64
4, 22230, Note_on_c, 6, 73, 0
4, 22230, Note_on_c, 6, 76, 0
4, 22230, Note_on_c, 6, 74, 64
4, 22230, Note_on_c, 6, 71, 64
4, 22260, Note_on_c, 6, 71, 0
4, 22260, Note_on_c, 6, 74, 0
4, 22260, Note_on_c, 6, 73, 64
4, 22260, Note_on_c, 6, 70, 64
4, 22290, Note_on_c, 6, 70, 0
4, 22290, Note_on_c, 6, 73, 0
4, 22290, Note_on_c, 6, 74, 64
4, 22290, Note_on_c, 6, 71, 64
4, 22320, Note_on_c, 6, 71, 0
4, 22320, Note_on_c, 6, 74, 0
4, 22320, Note_on_c, 6, 76, 64
4, 22320, Note_on_c, 6, 73, 64
4, 22350, Note_on_c, 6, 76, 0
4, 22350, Note_on_c, 6, 73, 64
4, 22380, Note_on_c, 6, 73, 0
4, 22380, Note_on_c, 6, 73, 0
4, 22380, Note_on_c, 6, 74, 64
4, 22380, Note_on_c, 6, 71, 64
4, 22410, Note_on_c, 6, 71, 0
4, 22410, Note_on_c, 6, 74, 0
4, 22410, Note_on_c, 6, 76, 64
4, 22410, Note_on_c, 6, 70, 64
4, 22440, Note_on_c, 6, 70, 0
4, 22440, Note_on_c, 6, 76, 0
4, 22440, Note_on_c, 6, 78, 64
4, 22440, Note_on_c, 6, 71, 64
4, 22500, Note_on_c, 6, 78, 0
4, 22500, Note_on_c, 6, 71, 64
4, 22530, Note_on_c, 6, 71, 0
4, 22530, Note_on_c, 6, 73, 64
4, 22560, Note_on_c, 6, 73, 0
4, 22560, Note_on_c, 6, 75, 64
4, 22620, Note_on_c, 6, 75, 0
4, 22620, Note_on_c, 6, 76, 64
4, 22650, Note_on_c, 6, 76, 0
4, 22650, Note_on_c, 6, 78, 64
4, 22680, Note_on_c, 6, 78, 0
4, 22680, Note_on_c, 6, 79, 64
4, 22740, Note_on_c, 6, 79, 0
4, 22740, Note_on_c, 6, 71, 0
4, 22740, Note_on_c, 6, 78, 64
4, 22740, Note_on_c, 6, 69, 64
4, 22800, Note_on_c, 6, 69, 0
4, 22800, Note_on_c, 6, 78, 0
4, 22800, Note_on_c, 6, 76, 64
4, 22800, Note_on_c, 6, 67, 64
4, 22860, Note_on_c, 6, 67, 0
4, 22860, Note_on_c, 6, 76, 0
4, 22860, Note_on_c, 6, 74, 64
4, 22860, Note_on_c, 6, 66, 64
4, 22920, Note_on_c, 6, 66, 0
4, 22920, Note_on_c, 6, 74, 0
4, 22920, Note_on_c, 6, 73, 64
4, 22920, Note_on_c, 6, 64, 64
4, 22980, Note_on_c, 6, 64, 0
4, 22980, Note_on_c, 6, 73, 0
4, 22980, Note_on_c, 6, 71, 64
4, 22980, Note_on_c, 6, 62, 64
4, 23010, Note_on_c, 6, 62, 0
4, 23010, Note_on_c, 6, 64, 64
4, 23040, Note_on_c, 6, 64, 0
4, 23040, Note_on_c, 6, 71, 0
4, 23040, Note_on_c, 6, 70, 64
4, 23040, Note_on_c, 6, 66, 64
4, 23100, Note_on_c, 6, 70, 0
4, 23100, Note_on_c, 6, 71, 64
4, 23130, Note_on_c, 6, 71, 0
4, 23130, Note_on_c, 6, 73, 64
4, 23160, Note_on_c, 6, 73, 0
4, 23160, Note_on_c, 6, 74, 64
4, 23190, Note_on_c, 6, 74, 0
4, 23190, Note_on_c, 6, 71, 64
4, 23220, Note_on_c, 6, 71, 0
4, 23220, Note_on_c, 6, 66, 0
4, 23220, Note_on_c, 6, 70, 64
4, 23220, Note_on_c, 6, 66, 64
4, 23250, Note_on_c, 6, 66, 0
4, 23250, Note_on_c, 6, 70, 0
4, 23250, Note_on_c, 6, 71, 64
4, 23250, Note_on_c, 6, 66, 64
4, 23280, Note_on_c, 6, 66, 0
4, 23280, Note_on_c, 6, 71, 0
4, 23280, Note_on_c, 6, 74, 64
4, 23280, Note_on_c, 6, 66, 64
4, 23310, Note_on_c, 6, 74, 0
4, 23310, Note_on_c, 6, 71, 64
4, 23340, Note_on_c, 6, 71, 0
4, 23340, Note_on_c, 6, 66, 0
4, 23340, Note_on_c, 6, 69, 64
4, 23340, Note_on_c, 6, 66, 64
4, 23370, Note_on_c, 6, 69, 0
4, 23370, Note_on_c, 6, 71, 64
4, 23400, Note_on_c, 6, 71, 0
4, 23400, Note_on_c, 6, 66, 0
4, 23400, Note_on_c, 6, 74, 64
4, 23400, Note_on_c, 6, 68, 64
4, 23430, Note_on_c, 6, 74, 0
4, 23430, Note_on_c, 6, 71, 64
4, 23460, Note_on_c, 6, 71, 0
4, 23460, Note_on_c, 6, 68, 0
4, 23460, Note_on_c, 6, 69, 64
4, 23460, Note_on_c, 6, 62, 64
4, 23490, Note_on_c, 6, 69, 0
4, 23490, Note_on_c, 6, 71, 64
4, 23520, Note_on_c, 6, 71, 0
4, 23520, Note_on_c, 6, 62, 0
4, 23520, Note_on_c, 6, 73, 64
4, 23520, Note_on_c, 6, 61, 64
4, 23555, Note_on_c, 6, 61, 0
4, 23580, Note_on_c, 6, 68, 64
4, 23640, Note_on_c, 6, 68, 0
4, 23640, Note_on_c, 6, 69, 64
4, 23700, Note_on_c, 6, 69, 0
4, 23700, Note_on_c, 6, 73, 0
4, 23700, Note_on_c, 6, 77, 64
4, 23700, Note_on_c, 6, 62, 64
4, 23760, Note_on_c, 6, 62, 0
4, 23760, Note_on_c, 6, 77, 0
4, 23760, Note_on_c, 6, 78, 64
4, 23760, Note_on_c, 6, 61, 64
4, 23795, Note_on_c, 6, 61, 0
4, 23820, Note_on_c, 6, 70, 64
4, 23880, Note_on_c, 6, 70, 0
4, 23880, Note_on_c, 6, 71, 64
4, 23910, Note_on_c, 6, 71, 0
4, 23910, Note_on_c, 6, 69, 64
4, 23940, Note_on_c, 6, 69, 0
4, 23940, Note_on_c, 6, 78, 0
4, 23940, Note_on_c, 6, 67, 64
4, 24030, Note_on_c, 6, 67, 0
4, 24030, Note_on_c, 6, 66, 64
4, 24060, Note_on_c, 6, 66, 0
4, 24060, Note_on_c, 6, 65, 64
4, 24090, Note_on_c, 6, 65, 0
4, 24090, Note_on_c, 6, 66, 64
4, 24120, Note_on_c, 6, 66, 0
4, 24120, Note_on_c, 6, 65, 64
4, 24155, Note_on_c, 6, 65, 0
4, 24180, Note_on_c, 6, 74, 64
4, 24240, Note_on_c, 6, 74, 0
4, 24240, Note_on_c, 6, 73, 64
4, 24300, Note_on_c, 6, 73, 0
4, 24300, Note_on_c, 6, 71, 64
4, 24360, Note_on_c, 6, 71, 0
4, 24360, Note_on_c, 6, 73, 64
4, 24360, Note_on_c, 6, 69, 64
4, 24420, Note_on_c, 6, 69, 0
4, 24420, Note_on_c, 6, 68, 64
4, 24450, Note_on_c, 6, 68, 0
4, 24450, Note_on_c, 6, 73, 0
4, 24450, Note_on_c, 6, 73, 64
4, 24450, Note_on_c, 6, 66, 64
4, 24480, Note_on_c, 6, 66, 0
4, 24480, Note_on_c, 6, 73, 0
4, 24480, Note_on_c, 6, 73, 64
4, 24480, Note_on_c, 6, 73, 64
4, 24515, Note_on_c, 6, 73, 0
4, 24540, Note_on_c, 6, 73, 64
4, 24600, Note_on_c, 6, 73, 0
4, 24600, Note_on_c, 6, 73, 0
4, 24600, Note_on_c, 6, 75, 64
4, 24600, Note_on_c, 6, 73, 64
4, 24660, Note_on_c, 6, 75, 0
4, 24660, Note_on_c, 6, 69, 64
4, 24720, Note_on_c, 6, 69, 0
4, 24720, Note_on_c, 6, 73, 0
4, 24720, Note_on_c, 6, 68, 64
4, 24720, Note_on_c, 6, 72, 64
4, 24755, Note_on_c, 6, 68, 0
4, 24780, Note_on_c, 6, 75, 64
4, 24840, Note_on_c, 6, 75, 0
4, 24840, Note_on_c, 6, 72, 0
4, 24840, Note_on_c, 6, 76, 64
4, 24840, Note_on_c, 6, 73, 64
4, 24900, Note_on_c, 6, 76, 0
4, 24900, Note_on_c, 6, 69, 64
4, 24960, Note_on_c, 6, 69, 0
4, 24960, Note_on_c, 6, 68, 64
4, 24995, Note_on_c, 6, 68, 0
4, 25020, Note_on_c, 6, 77, 64
4, 25080, Note_on_c, 6, 77, 0
4, 25080, Note_on_c, 6, 78, 64
4, 25110, Note_on_c, 6, 78, 0
4, 25110, Note_on_c, 6, 76, 64
4, 25140, Note_on_c, 6, 76, 0
4, 25140, Note_on_c, 6, 73, 0
4, 25140, Note_on_c, 6, 74, 64
4, 25140, Note_on_c, 6, 71, 64
4, 25200, Note_on_c, 6, 71, 0
4, 25200, Note_on_c, 6, 69, 64
4, 25230, Note_on_c, 6, 74, 0
4, 25230, Note_on_c, 6, 73, 64
4, 25260, Note_on_c, 6, 73, 0
4, 25260, Note_on_c, 6, 69, 0
4, 25260, Note_on_c, 6, 72, 64
4, 25260, Note_on_c, 6, 68, 64
4, 25290, Note_on_c, 6, 72, 0
4, 25290, Note_on_c, 6, 73, 64
4, 25320, Note_on_c, 6, 73, 0
4, 25320, Note_on_c, 6, 68, 0
4, 25320, Note_on_c, 6, 72, 64
4, 25320, Note_on_c, 6, 66, 64
4, 25355, Note_on_c, 6, 72, 0
4, 25380, Note_on_c, 6, 81, 64
4, 25440, Note_on_c, 6, 81, 0
4, 25440, Note_on_c, 6, 66, 0
4, 25440, Note_on_c, 6, 80, 64
4, 25440, Note_on_c, 6, 75, 64
4, 25500, Note_on_c, 6, 80, 0
4, 25500, Note_on_c, 6, 78, 64
4, 25560, Note_on_c, 6, 78, 0
4, 25560, Note_on_c, 6, 76, 64
4, 25620, Note_on_c, 6, 76, 0
4, 25620, Note_on_c, 6, 75, 0
4, 25620, Note_on_c, 6, 75, 64
4, 25620, Note_on_c, 6, 68, 64
4, 25650, Note_on_c, 6, 75, 0
4, 25650, Note_on_c, 6, 73, 64
4, 25680, Note_on_c, 6, 73, 0
4, 25680, Note_on_c, 6, 68, 0
4, 25680, Note_on_c, 6, 80, 64
4, 25680, Note_on_c, 6, 73, 64
4, 25740, Note_on_c, 6, 73, 0
4, 25740, Note_on_c, 6, 71, 64
4, 25800, Note_on_c, 6, 71, 0
4, 25800, Note_on_c, 6, 69, 64
4, 25860, Note_on_c, 6, 80, 0
4, 25860, Note_on_c, 6, 73, 64
4, 25920, Note_on_c, 6, 73, 0
4, 25920, Note_on_c, 6, 78, 64
4, 25980, Note_on_c, 6, 78, 0
4, 25980, Note_on_c, 6, 76, 64
4, 26040, Note_on_c, 6, 76, 0
4, 26040, Note_on_c, 6, 75, 64
4, 26100, Note_on_c, 6, 69, 0
4, 26100, Note_on_c, 6, 63, 64
4, 26160, Note_on_c, 6, 63, 0
4, 26160, Note_on_c, 6, 68, 64
4, 26220, Note_on_c, 6, 68, 0
4, 26220, Note_on_c, 6, 66, 64
4, 26280, Note_on_c, 6, 66, 0
4, 26280, Note_on_c, 6, 64, 64
4, 26340, Note_on_c, 6, 75, 0
4, 26340, Note_on_c, 6, 68, 64
4, 26400, Note_on_c, 6, 68, 0
4, 26400, Note_on_c, 6, 73, 64
4, 26460, Note_on_c, 6, 73, 0
4, 26460, Note_on_c, 6, 71, 64
4, 26520, Note_on_c, 6, 71, 0
4, 26520, Note_on_c, 6, 69, 64
4, 26580, Note_on_c, 6, 64, 0
4, 26580, Note_on_c, 6, 72, 64
4, 26640, Note_on_c, 6, 72, 0
4, 26640, Note_on_c, 6, 69, 0
4, 26640, Note_on_c, 6, 68, 64
4, 26640, Note_on_c, 6, 73, 64
4, 26675, Note_on_c, 6, 73, 0
4, 26700, Note_on_c, 6, 64, 64
4, 26760, Note_on_c, 6, 64, 0
4, 26760, Note_on_c, 6, 68, 0
4, 26760, Note_on_c, 6, 66, 64
4, 26760, Note_on_c, 6, 63, 64
4, 26795, Note_on_c, 6, 63, 0
4, 26795, Note_on_c, 6, 66, 0
4, 26820, Note_on_c, 6, 75, 64
4, 26820, Note_on_c, 6, 72, 64
4, 26880, Note_on_c, 6, 72, 0
4, 26880, Note_on_c, 6, 75, 0
4, 26880, Note_on_c, 6, 76, 64
4, 26880, Note_on_c, 6, 73, 64
4, 26940, Note_on_c, 6, 73, 0
4, 26940, Note_on_c, 6, 76, 0
4, 26940, Note_on_c, 6, 78, 64
4, 26940, Note_on_c, 6, 75, 64
4, 27000, Note_on_c, 6, 75, 0
4, 27000, Note_on_c, 6, 78, 0
4, 27000, Note_on_c, 6, 80, 64
4, 27000, Note_on_c, 6, 68, 64
4, 27060, Note_on_c, 6, 68, 0
4, 27060, Note_on_c, 6, 80, 0
4, 27060, Note_on_c, 6, 81, 64
4, 27060, Note_on_c, 6, 60, 64
4, 27120, Note_on_c, 6, 60, 0
4, 27120, Note_on_c, 6, 81, 0
4, 27120, Note_on_c, 6, 80, 64
4, 27120, Note_on_c, 6, 61, 64
4, 27180, Note_on_c, 6, 61, 0
4, 27180, Note_on_c, 6, 80, 0
4, 27180, Note_on_c, 6, 73, 64
4, 27180, Note_on_c, 6, 69, 64
4, 27240, Note_on_c, 6, 69, 0
4, 27240, Note_on_c, 6, 64, 64
4, 27300, Note_on_c, 6, 64, 0
4, 27300, Note_on_c, 6, 73, 0
4, 27300, Note_on_c, 6, 72, 64
4, 27300, Note_on_c, 6, 63, 64
4, 27420, Note_on_c, 6, 63, 0
4, 27420, Note_on_c, 6, 72, 0
4, 27420, Note_on_c, 6, 73, 64
4, 27420, Note_on_c, 6, 64, 64
4, 27480, Note_on_c, 6, 64, 0
4, 27480, Note_on_c, 6, 73, 0
4, 27480, Note_on_c, 6, 75, 64
4, 27480, Note_on_c, 6, 66, 64
4, 27515, Note_on_c, 6, 66, 0
4, 27515, Note_on_c, 6, 75, 0
4, 27540, Note_on_c, 6, 78, 64
4, 27540, Note_on_c, 6, 69, 64
4, 27600, Note_on_c, 6, 69, 0
4, 27600, Note_on_c, 6, 78, 0
4, 27600, Note_on_c, 6, 76, 64
4, 27600, Note_on_c, 6, 68, 64
4, 27660, Note_on_c, 6, 68, 0
4, 27660, Note_on_c, 6, 76, 0
4, 27660, Note_on_c, 6, 75, 64
4, 27660, Note_on_c, 6, 66, 64
4, 27720, Note_on_c, 6, 66, 0
4, 27720, Note_on_c, 6, 75, 0
4, 27720, Note_on_c, 6, 73, 64
4, 27720, Note_on_c, 6, 64, 64
4, 27755, Note_on_c, 6, 73, 0
4, 27780, Note_on_c, 6, 81, 64
4, 27840, Note_on_c, 6, 81, 0
4, 27840, Note_on_c, 6, 64, 0
4, 27840, Note_on_c, 6, 80, 64
4, 27840, Note_on_c, 6, 63, 64
4, 27900, Note_on_c, 6, 80, 0
4, 27900, Note_on_c, 6, 78, 64
4, 27960, Note_on_c, 6, 63, 0
4, 27960, Note_on_c, 6, 61, 40
4, 28020, Note_on_c, 6, 78, 0
4, 28020, Note_on_c, 6, 76, 41
4, 28050, Note_on_c, 6, 76, 0
4, 28050, Note_on_c, 6, 78, 41
4, 28080, Note_on_c, 6, 78, 0
4, 28080, Note_on_c, 6, 61, 0
4, 28080, Note_on_c, 6, 79, 42
4, 28260, Note_on_c, 6, 79, 0
4, 28260, Note_on_c, 6, 71, 44
4, 28320, Note_on_c, 6, 71, 0
4, 28320, Note_on_c, 6, 70, 45
4, 28320, Note_on_c, 6, 73, 45
4, 28355, Note_on_c, 6, 70, 0
4, 28380, Note_on_c, 6, 76, 45
4, 28440, Note_on_c, 6, 76, 0
4, 28440, Note_on_c, 6, 74, 46
4, 28500, Note_on_c, 6, 73, 0
4, 28500, Note_on_c, 6, 71, 47
4, 28530, Note_on_c, 6, 71, 0
4, 28530, Note_on_c, 6, 73, 47
4, 28560, Note_on_c, 6, 73, 0
4, 28560, Note_on_c, 6, 74, 0
4, 28560, Note_on_c, 6, 74, 48
4, 28740, Note_on_c, 6, 74, 0
4, 28740, Note_on_c, 6, 66, 50
4, 28800, Note_on_c, 6, 66, 0
4, 28800, Note_on_c, 6, 80, 51
4, 28800, Note_on_c, 6, 65, 51
4, 28835, Note_on_c, 6, 65, 0
4, 28860, Note_on_c, 6, 71, 51
4, 28920, Note_on_c, 6, 71, 0
4, 28920, Note_on_c, 6, 69, 52
4, 28980, Note_on_c, 6, 80, 0
4, 28980, Note_on_c, 6, 78, 53
4, 29010, Note_on_c, 6, 78, 0
4, 29010, Note_on_c, 6, 80, 53
4, 29040, Note_on_c, 6, 80, 0
4, 29040, Note_on_c, 6, 69, 0
4, 29040, Note_on_c, 6, 81, 54
4, 29220, Note_on_c, 6, 81, 0
4, 29220, Note_on_c, 6, 73, 56
4, 29280, Note_on_c, 6, 73, 0
4, 29280, Note_on_c, 6, 72, 57
4, 29280, Note_on_c, 6, 75, 57
4, 29315, Note_on_c, 6, 72, 0
4, 29340, Note_on_c, 6, 78, 57
4, 29400, Note_on_c, 6, 78, 0
4, 29400, Note_on_c, 6, 76, 58
4, 29460, Note_on_c, 6, 75, 0
4, 29460, Note_on_c, 6, 73, 59
4, 29490, Note_on_c, 6, 73, 0
4, 29490, Note_on_c, 6, 75, 59
4, 29520, Note_on_c, 6, 75, 0
4, 29520, Note_on_c, 6, 76, 0
4, 29520, Note_on_c, 6, 76, 60
4, 29700, Note_on_c, 6, 76, 0
4, 29700, Note_on_c, 6, 67, 62
4, 29760, Note_on_c, 6, 67, 0
4, 29760, Note_on_c, 6, 82, 63
4, 29760, Note_on_c, 6, 66, 63
4, 29795, Note_on_c, 6, 66, 0
4, 29820, Note_on_c, 6, 76, 63
4, 29855, Note_on_c, 6, 76, 0
4, 29880, Note_on_c, 6, 82, 0
4, 29880, Note_on_c, 6, 83, 94
4, 29880, Note_on_c, 6, 75, 94
4, 29940, Note_on_c, 6, 75, 0
4, 29940, Note_on_c, 6, 83, 0
4, 29940, Note_on_c, 6, 78, 75
4, 29940, Note_on_c, 6, 69, 75
4, 30000, Note_on_c, 6, 69, 0
4, 30000, Note_on_c, 6, 78, 0
4, 30000, Note_on_c, 6, 77, 75
4, 30000, Note_on_c, 6, 68, 75
4, 30035, Note_on_c, 6, 68, 0
4, 30035, Note_on_c, 6, 77, 0
4, 30060, Note_on_c, 6, 80, 75
4, 30060, Note_on_c, 6, 77, 75
4, 30095, Note_on_c, 6, 77, 0
4, 30095, Note_on_c, 6, 80, 0
4, 30120, Note_on_c, 6, 73, 94
4, 30120, Note_on_c, 6, 78, 94
4, 30180, Note_on_c, 6, 78, 0
4, 30180, Note_on_c, 6, 73, 0
4, 30180, Note_on_c, 6, 78, 75
4, 30180, Note_on_c, 6, 73, 75
4, 30240, Note_on_c, 6, 73, 0
4, 30240, Note_on_c, 6, 78, 0
4, 30240, Note_on_c, 6, 80, 75
4, 30240, Note_on_c, 6, 72, 75
4, 30275, Note_on_c, 6, 72, 0
4, 30275, Note_on_c, 6, 80, 0
4, 30300, Note_on_c, 6, 72, 75
4, 30300, Note_on_c, 6, 78, 75
4, 30335, Note_on_c, 6, 78, 0
4, 30335, Note_on_c, 6, 72, 0
4, 30360, Note_on_c, 6, 73, 94
4, 30360, Note_on_c, 6, 77, 94
4, 30420, Note_on_c, 6, 77, 0
4, 30420, Note_on_c, 6, 73, 0
4, 30420, Note_on_c, 6, 77, 75
4, 30420, Note_on_c, 6, 71, 75
4, 30480, Note_on_c, 6, 71, 0
4, 30480, Note_on_c, 6, 77, 0
4, 30480, Note_on_c, 6, 78, 75
4, 30480, Note_on_c, 6, 70, 75
4, 30515, Note_on_c, 6, 70, 0
4, 30515, Note_on_c, 6, 78, 0
4, 30540, Note_on_c, 6, 70, 75
4, 30540, Note_on_c, 6, 76, 75
4, 30575, Note_on_c, 6, 76, 0
4, 30575, Note_on_c, 6, 70, 0
4, 30600, Note_on_c, 6, 71, 94
4, 30600, Note_on_c, 6, 75, 94
4, 30660, Note_on_c, 6, 75, 0
4, 30660, Note_on_c, 6, 71, 0
4, 30660, Note_on_c, 6, 75, 75
4, 30660, Note_on_c, 6, 69, 75
4, 30720, Note_on_c, 6, 69, 0
4, 30720, Note_on_c, 6, 75, 0
4, 30720, Note_on_c, 6, 76, 75
4, 30720, Note_on_c, 6, 68, 75
4, 30755, Note_on_c, 6, 68, 0
4, 30755, Note_on_c, 6, 76, 0
4, 30780, Note_on_c, 6, 68, 75
4, 30780, Note_on_c, 6, 74, 75
4, 30815, Note_on_c, 6, 74, 0
4, 30815, Note_on_c, 6, 68, 0
4, 30840, Note_on_c, 6, 69, 64
4, 30840, Note_on_c, 6, 73, 64
4, 30875, Note_on_c, 6, 73, 0
4, 30875, Note_on_c, 6, 69, 0
4, 30900, Note_on_c, 6, 73, 64
4, 30900, Note_on_c, 6, 65, 64
4, 30960, Note_on_c, 6, 65, 0
4, 30960, Note_on_c, 6, 73, 0
4, 30960, Note_on_c, 6, 78, 64
4, 30960, Note_on_c, 6, 66, 64
4, 30995, Note_on_c, 6, 66, 0
4, 31020, Note_on_c, 6, 69, 64
4, 31080, Note_on_c, 6, 69, 0
4, 31080, Note_on_c, 6, 71, 64
4, 31140, Note_on_c, 6, 71, 0
4, 31140, Note_on_c, 6, 62, 64
4, 31200, Note_on_c, 6, 62, 0
4, 31200, Note_on_c, 6, 78, 0
4, 31200, Note_on_c, 6, 77, 64
4, 31200, Note_on_c, 6, 61, 64
4, 31235, Note_on_c, 6, 61, 0
4, 31260, Note_on_c, 6, 77, 0
4, 31260, Note_on_c, 6, 80, 64
4, 31260, Note_on_c, 6, 71, 64
4, 31320, Note_on_c, 6, 71, 0
4, 31320, Note_on_c, 6, 69, 64
4, 31380, Note_on_c, 6, 80, 0
4, 31380, Note_on_c, 6, 73, 64
4, 31440, Note_on_c, 6, 73, 0
4, 31440, Note_on_c, 6, 78, 64
4, 31500, Note_on_c, 6, 69, 0
4, 31500, Note_on_c, 6, 71, 64
4, 31530, Note_on_c, 6, 71, 0
4, 31530, Note_on_c, 6, 73, 64
4, 31560, Note_on_c, 6, 73, 0
4, 31560, Note_on_c, 6, 71, 64
4, 31680, Note_on_c, 6, 78, 0
4, 31680, Note_on_c, 6, 77, 64
4, 31740, Note_on_c, 6, 71, 0
4, 31740, Note_on_c, 6, 73, 64
4, 31770, Note_on_c, 6, 73, 0
4, 31770, Note_on_c, 6, 74, 64
4, 31800, Note_on_c, 6, 74, 0
4, 31800, Note_on_c, 6, 77, 0
4, 31800, Note_on_c, 6, 78, 64
4, 31800, Note_on_c, 6, 73, 64
4, 31980, Note_on_c, 6, 73, 0
4, 31980, Note_on_c, 6, 74, 64
4, 32010, Note_on_c, 6, 74, 0
4, 32010, Note_on_c, 6, 76, 64
4, 32040, Note_on_c, 6, 76, 0
4, 32040, Note_on_c, 6, 74, 64
4, 32100, Note_on_c, 6, 78, 0
4, 32100, Note_on_c, 6, 76, 64
4, 32160, Note_on_c, 6, 76, 0
4, 32160, Note_on_c, 6, 74, 64
4, 32220, Note_on_c, 6, 74, 0
4, 32220, Note_on_c, 6, 73, 64
4, 32280, Note_on_c, 6, 73, 0
4, 32280, Note_on_c, 6, 71, 64
4, 32340, Note_on_c, 6, 74, 0
4, 32340, Note_on_c, 6, 68, 64
4, 32400, Note_on_c, 6, 68, 0
4, 32400, Note_on_c, 6, 71, 0
4, 32400, Note_on_c, 6, 80, 64
4, 32400, Note_on_c, 6, 73, 64
4, 32460, Note_on_c, 6, 73, 0
4, 32460, Note_on_c, 6, 71, 64
4, 32520, Note_on_c, 6, 71, 0
4, 32520, Note_on_c, 6, 69, 64
4, 32580, Note_on_c, 6, 69, 0
4, 32580, Note_on_c, 6, 80, 0
4, 32580, Note_on_c, 6, 73, 64
4, 32580, Note_on_c, 6, 68, 64
4, 32610, Note_on_c, 6, 68, 0
4, 32610, Note_on_c, 6, 66, 64
4, 32640, Note_on_c, 6, 66, 0
4, 32640, Note_on_c, 6, 73, 0
4, 32640, Note_on_c, 6, 78, 64
4, 32640, Note_on_c, 6, 73, 64
4, 32700, Note_on_c, 6, 78, 0
4, 32700, Note_on_c, 6, 76, 64
4, 32760, Note_on_c, 6, 76, 0
4, 32760, Note_on_c, 6, 74, 64
4, 32820, Note_on_c, 6, 73, 0
4, 32820, Note_on_c, 6, 66, 64
4, 32880, Note_on_c, 6, 66, 0
4, 32880, Note_on_c, 6, 71, 64
4, 32940, Note_on_c, 6, 71, 0
4, 32940, Note_on_c, 6, 69, 64
4, 33000, Note_on_c, 6, 69, 0
4, 33000, Note_on_c, 6, 68, 64
4, 33060, Note_on_c, 6, 74, 0
4, 33060, Note_on_c, 6, 68, 64
4, 33120, Note_on_c, 6, 68, 0
4, 33120, Note_on_c, 6, 73, 64
4, 33180, Note_on_c, 6, 73, 0
4, 33180, Note_on_c, 6, 71, 64
4, 33240, Note_on_c, 6, 71, 0
4, 33240, Note_on_c, 6, 69, 64
4, 33300, Note_on_c, 6, 68, 0
4, 33300, Note_on_c, 6, 61, 64
4, 33360, Note_on_c, 6, 61, 0
4, 33360, Note_on_c, 6, 66, 64
4, 33420, Note_on_c, 6, 66, 0
4, 33420, Note_on_c, 6, 64, 64
4, 33480, Note_on_c, 6, 64, 0
4, 33480, Note_on_c, 6, 62, 64
4, 33540, Note_on_c, 6, 69, 0
4, 33540, Note_on_c, 6, 77, 64
4, 33600, Note_on_c, 6, 77, 0
4, 33600, Note_on_c, 6, 62, 0
4, 33600, Note_on_c, 6, 78, 64
4, 33600, Note_on_c, 6, 61, 64
4, 33635, Note_on_c, 6, 78, 0
4, 33660, Note_on_c, 6, 69, 64
4, 33720, Note_on_c, 6, 69, 0
4, 33720, Note_on_c, 6, 61, 0
4, 33720, Note_on_c, 6, 68, 64
4, 33720, Note_on_c, 6, 59, 64
4, 33755, Note_on_c, 6, 59, 0
4, 33755, Note_on_c, 6, 68, 0
4, 33780, Note_on_c, 6, 77, 64
4, 33780, Note_on_c, 6, 68, 64
4, 33840, Note_on_c, 6, 68, 0
4, 33840, Note_on_c, 6, 77, 0
4, 33840, Note_on_c, 6, 78, 64
4, 33840, Note_on_c, 6, 69, 64
4, 33900, Note_on_c, 6, 69, 0
4, 33900, Note_on_c, 6, 78, 0
4, 33900, Note_on_c, 6, 80, 64
4, 33900, Note_on_c, 6, 71, 64
4, 33960, Note_on_c, 6, 71, 0
4, 33960, Note_on_c, 6, 80, 0
4, 33960, Note_on_c, 6, 73, 64
4, 33960, Note_on_c, 6, 73, 64
4, 33995, Note_on_c, 6, 73, 0
4, 33995, Note_on_c, 6, 73, 0
4, 34020, Note_on_c, 6, 65, 64
4, 34020, Note_on_c, 6, 74, 64
4, 34080, Note_on_c, 6, 74, 0
4, 34080, Note_on_c, 6, 65, 0
4, 34080, Note_on_c, 6, 66, 64
4, 34080, Note_on_c, 6, 73, 64
4, 34115, Note_on_c, 6, 73, 0
4, 34115, Note_on_c, 6, 66, 0
4, 34140, Note_on_c, 6, 74, 64
4, 34140, Note_on_c, 6, 66, 64
4, 34200, Note_on_c, 6, 74, 0
4, 34200, Note_on_c, 6, 69, 64
4, 34260, Note_on_c, 6, 69, 0
4, 34260, Note_on_c, 6, 66, 0
4, 34260, Note_on_c, 6, 68, 64
4, 34260, Note_on_c, 6, 65, 64
4, 34380, Note_on_c, 6, 65, 0
4, 34380, Note_on_c, 6, 68, 0
4, 34380, Note_on_c, 6, 69, 64
4, 34380, Note_on_c, 6, 66, 64
4, 34440, Note_on_c, 6, 66, 0
4, 34440, Note_on_c, 6, 69, 0
4, 34440, Note_on_c, 6, 71, 64
4, 34440, Note_on_c, 6, 68, 64
4, 34475, Note_on_c, 6, 68, 0
4, 34475, Note_on_c, 6, 71, 0
4, 34500, Note_on_c, 6, 74, 64
4, 34500, Note_on_c, 6, 71, 64
4, 34560, Note_on_c, 6, 71, 0
4, 34560, Note_on_c, 6, 74, 0
4, 34560, Note_on_c, 6, 73, 64
4, 34560, Note_on_c, 6, 69, 64
4, 34620, Note_on_c, 6, 69, 0
4, 34620, Note_on_c, 6, 73, 0
4, 34620, Note_on_c, 6, 71, 64
4, 34620, Note_on_c, 6, 68, 64
4, 34680, Note_on_c, 6, 68, 0
4, 34680, Note_on_c, 6, 71, 0
4, 34680, Note_on_c, 6, 69, 64
4, 34680, Note_on_c, 6, 66, 64
4, 34800, Note_on_c, 6, 66, 0
4, 34800, Note_on_c, 6, 69, 0
4, 34800, Note_on_c, 6, 68, 64
4, 34800, Note_on_c, 6, 65, 64
4, 34920, Note_on_c, 6, 65, 0
4, 34920, Note_on_c, 6, 68, 0
4, 34920, Note_on_c, 6, 66, 64
4, 34920, Note_on_c, 6, 66, 64
4, 34980, Note_on_c, 6, 66, 0
4, 34980, Note_on_c, 6, 73, 64
4, 35010, Note_on_c, 6, 66, 0
4, 35010, Note_on_c, 6, 66, 64
4, 35040, Note_on_c, 6, 66, 0
4, 35040, Note_on_c, 6, 73, 0
4, 35040, Note_on_c, 6, 78, 64
4, 35040, Note_on_c, 6, 66, 64
4, 35075, Note_on_c, 6, 66, 0
4, 35100, Note_on_c, 6, 66, 64
4, 35160, Note_on_c, 6, 66, 0
4, 35160, Note_on_c, 6, 68, 64
4, 35220, Note_on_c, 6, 68, 0
4, 35220, Note_on_c, 6, 62, 64
4, 35280, Note_on_c, 6, 62, 0
4, 35280, Note_on_c, 6, 78, 0
4, 35280, Note_on_c, 6, 77, 64
4, 35280, Note_on_c, 6, 61, 64
4, 35315, Note_on_c, 6, 61, 0
4, 35340, Note_on_c, 6, 68, 64
4, 35400, Note_on_c, 6, 68, 0
4, 35400, Note_on_c, 6, 77, 0
4, 35400, Note_on_c, 6, 78, 64
4, 35400, Note_on_c, 6, 69, 64
4, 35460, Note_on_c, 6, 69, 0
4, 35460, Note_on_c, 6, 62, 64
4, 35520, Note_on_c, 6, 62, 0
4, 35520, Note_on_c, 6, 78, 0
4, 35520, Note_on_c, 6, 76, 64
4, 35520, Note_on_c, 6, 61, 64
4, 35555, Note_on_c, 6, 61, 0
4, 35580, Note_on_c, 6, 70, 64
4, 35640, Note_on_c, 6, 70, 0
4, 35640, Note_on_c, 6, 76, 0
4, 35640, Note_on_c, 6, 74, 64
4, 35640, Note_on_c, 6, 71, 64
4, 35670, Note_on_c, 6, 71, 0
4, 35670, Note_on_c, 6, 69, 64
4, 35700, Note_on_c, 6, 69, 0
4, 35700, Note_on_c, 6, 67, 64
4, 35790, Note_on_c, 6, 67, 0
4, 35790, Note_on_c, 6, 66, 64
4, 35820, Note_on_c, 6, 66, 0
4, 35820, Note_on_c, 6, 65, 64
4, 35850, Note_on_c, 6, 65, 0
4, 35850, Note_on_c, 6, 66, 64
4, 35880, Note_on_c, 6, 66, 0
4, 35880, Note_on_c, 6, 65, 64
4, 35915, Note_on_c, 6, 65, 0
4, 35915, Note_on_c, 6, 74, 0
4, 35940, Note_on_c, 6, 65, 64
4, 35940, Note_on_c, 6, 74, 64
4, 36000, Note_on_c, 6, 74, 0
4, 36000, Note_on_c, 6, 65, 0
4, 36000, Note_on_c, 6, 66, 64
4, 36000, Note_on_c, 6, 73, 64
4, 36060, Note_on_c, 6, 73, 0
4, 36060, Note_on_c, 6, 66, 0
4, 36060, Note_on_c, 6, 68, 64
4, 36060, Note_on_c, 6, 71, 64
4, 36095, Note_on_c, 6, 71, 0
4, 36095, Note_on_c, 6, 68, 0
4, 36120, Note_on_c, 6, 66, 64
4, 36120, Note_on_c, 6, 69, 64
4, 36155, Note_on_c, 6, 66, 0
4, 36180, Note_on_c, 6, 69, 64
4, 36191, Note_on_c, 6, 69, 0
4, 36240, Note_on_c, 6, 69, 0
4, 36240, Note_on_c, 6, 63, 64
4, 36300, Note_on_c, 6, 75, 64
4, 36311, Note_on_c, 6, 63, 0
4, 36335, Note_on_c, 6, 75, 0
4, 36360, Note_on_c, 6, 73, 64
4, 36420, Note_on_c, 6, 62, 64
4, 36431, Note_on_c, 6, 73, 0
4, 36455, Note_on_c, 6, 62, 0
4, 36480, Note_on_c, 6, 61, 64
4, 36540, Note_on_c, 6, 73, 64
4, 36551, Note_on_c, 6, 61, 0
4, 36575, Note_on_c, 6, 73, 0
4, 36600, Note_on_c, 6, 71, 64
4, 36660, Note_on_c, 6, 60, 64
4, 36671, Note_on_c, 6, 71, 0
4, 36695, Note_on_c, 6, 60, 0
4, 36720, Note_on_c, 6, 59, 64
4, 36780, Note_on_c, 6, 71, 64
4, 36791, Note_on_c, 6, 59, 0
4, 36815, Note_on_c, 6, 71, 0
4, 36840, Note_on_c, 6, 69, 64
4, 36911, Note_on_c, 6, 69, 0
4, 37980, Note_on_c, 6, 80, 64
4, 37980, Note_on_c, 6, 71, 64
4, 38015, Note_on_c, 6, 71, 0
4, 38015, Note_on_c, 6, 80, 0
4, 38040, Note_on_c, 6, 69, 83
4, 38040, Note_on_c, 6, 73, 83
4, 38100, Note_on_c, 6, 73, 0
4, 38100, Note_on_c, 6, 69, 0
4, 38100, Note_on_c, 6, 76, 64
4, 38100, Note_on_c, 6, 68, 64
4, 38160, Note_on_c, 6, 68, 0
4, 38160, Note_on_c, 6, 76, 0
4, 38160, Note_on_c, 6, 75, 64
4, 38160, Note_on_c, 6, 66, 64
4, 38195, Note_on_c, 6, 66, 0
4, 38195, Note_on_c, 6, 75, 0
4, 38220, Note_on_c, 6, 81, 64
4, 38220, Note_on_c, 6, 75, 64
4, 38255, Note_on_c, 6, 75, 0
4, 38255, Note_on_c, 6, 81, 0
4, 38280, Note_on_c, 6, 80, 83
4, 38280, Note_on_c, 6, 76, 83
4, 38340, Note_on_c, 6, 76, 0
4, 38340, Note_on_c, 6, 80, 0
4, 38340, Note_on_c, 6, 74, 64
4, 38340, Note_on_c, 6, 80, 64
4, 38400, Note_on_c, 6, 80, 0
4, 38400, Note_on_c, 6, 74, 0
4, 38400, Note_on_c, 6, 73, 64
4, 38400, Note_on_c, 6, 81, 64
4, 38435, Note_on_c, 6, 81, 0
4, 38435, Note_on_c, 6, 73, 0
4, 38460, Note_on_c, 6, 79, 64
4, 38460, Note_on_c, 6, 73, 64
4, 38495, Note_on_c, 6, 73, 0
4, 38495, Note_on_c, 6, 79, 0
4, 38520, Note_on_c, 6, 78, 83
4, 38520, Note_on_c, 6, 74, 83
4, 38580, Note_on_c, 6, 74, 0
4, 38580, Note_on_c, 6, 78, 0
4, 38580, Note_on_c, 6, 72, 64
4, 38580, Note_on_c, 6, 78, 64
4, 38640, Note_on_c, 6, 78, 0
4, 38640, Note_on_c, 6, 72, 0
4, 38640, Note_on_c, 6, 71, 64
4, 38640, Note_on_c, 6, 79, 64
4, 38675, Note_on_c, 6, 79, 0
4, 38675, Note_on_c, 6, 71, 0
4, 38700, Note_on_c, 6, 78, 64
4, 38700, Note_on_c, 6, 71, 64
4, 38735, Note_on_c, 6, 71, 0
4, 38735, Note_on_c, 6, 78, 0
4, 38760, Note_on_c, 6, 77, 83
4, 38760, Note_on_c, 6, 73, 83
4, 38820, Note_on_c, 6, 73, 0
4, 38820, Note_on_c, 6, 77, 0
4, 38820, Note_on_c, 6, 71, 64
4, 38820, Note_on_c, 6, 77, 64
4, 38880, Note_on_c, 6, 77, 0
4, 38880, Note_on_c, 6, 71, 0
4, 38880, Note_on_c, 6, 70, 64
4, 38880, Note_on_c, 6, 78, 64
4, 38915, Note_on_c, 6, 78, 0
4, 38915, Note_on_c, 6, 70, 0
4, 38940, Note_on_c, 6, 76, 64
4, 38940, Note_on_c, 6, 70, 64
4, 38975, Note_on_c, 6, 70, 0
4, 38975, Note_on_c, 6, 76, 0
4, 39000, Control_c, 6, 7, 70
4, 39000, Control_c, 6, 7, 70
4, 39000, Note_on_c, 6, 74, 64
4, 39000, Note_on_c, 6, 71, 64
4, 39035, Note_on_c, 6, 71, 0
4, 39035, Note_on_c, 6, 74, 0
4, 39060, Note_on_c, 6, 78, 64
4, 39060, Note_on_c, 6, 74, 64
4, 39120, Note_on_c, 6, 74, 0
4, 39120, Note_on_c, 6, 78, 0
4, 39120, Note_on_c, 6, 83, 64
4, 39120, Note_on_c, 6, 79, 64
4, 39180, Note_on_c, 6, 79, 0
4, 39180, Note_on_c, 6, 78, 64
4, 39240, Note_on_c, 6, 78, 0
4, 39240, Note_on_c, 6, 76, 64
4, 39300, Note_on_c, 6, 76, 0
4, 39300, Note_on_c, 6, 74, 64
4, 39330, Note_on_c, 6, 74, 0
4, 39330, Note_on_c, 6, 76, 64
4, 39360, Note_on_c, 6, 76, 0
4, 39360, Note_on_c, 6, 83, 0
4, 39360, Note_on_c, 6, 82, 64
4, 39360, Note_on_c, 6, 78, 64
4, 39480, Note_on_c, 6, 82, 0
4, 39480, Note_on_c, 6, 83, 64
4, 39540, Note_on_c, 6, 78, 0
4, 39540, Note_on_c, 6, 76, 64
4, 39600, Note_on_c, 6, 76, 0
4, 39600, Note_on_c, 6, 83, 0
4, 39600, Note_on_c, 6, 81, 64
4, 39600, Note_on_c, 6, 75, 64
4, 39635, Note_on_c, 6, 75, 0
4, 39660, Note_on_c, 6, 78, 64
4, 39720, Note_on_c, 6, 78, 0
4, 39720, Note_on_c, 6, 81, 0
4, 39720, Note_on_c, 6, 79, 64
4, 39720, Note_on_c, 6, 71, 64
4, 39780, Note_on_c, 6, 71, 0
4, 39780, Note_on_c, 6, 76, 64
4, 39810, Note_on_c, 6, 76, 0
4, 39810, Note_on_c, 6, 78, 64
4, 39840, Note_on_c, 6, 78, 0
4, 39840, Note_on_c, 6, 76, 64
4, 39900, Note_on_c, 6, 76, 0
4, 39900, Note_on_c, 6, 74, 64
4, 39960, Note_on_c, 6, 74, 0
4, 39960, Note_on_c, 6, 73, 64
4, 40020, Note_on_c, 6, 73, 0
4, 40020, Note_on_c, 6, 79, 0
4, 40020, Note_on_c, 6, 70, 64
4, 40020, Note_on_c, 6, 76, 64
4, 40080, Note_on_c, 6, 76, 0
4, 40080, Note_on_c, 6, 70, 0
4, 40080, Note_on_c, 6, 71, 64
4, 40080, Note_on_c, 6, 74, 64
4, 40140, Note_on_c, 6, 74, 0
4, 40140, Note_on_c, 6, 71, 0
4, 40140, Note_on_c, 6, 73, 64
4, 40140, Note_on_c, 6, 73, 64
4, 40200, Note_on_c, 6, 73, 0
4, 40200, Note_on_c, 6, 73, 0
4, 40200, Note_on_c, 6, 74, 64
4, 40200, Note_on_c, 6, 71, 64
4, 40260, Note_on_c, 6, 74, 0
4, 40260, Note_on_c, 6, 76, 64
4, 40290, Note_on_c, 6, 76, 0
4, 40290, Note_on_c, 6, 74, 64
4, 40320, Note_on_c, 6, 74, 0
4, 40320, Note_on_c, 6, 73, 64
4, 40380, Note_on_c, 6, 73, 0
4, 40380, Note_on_c, 6, 71, 0
4, 40380, Note_on_c, 6, 74, 64
4, 40380, Note_on_c, 6, 69, 64
4, 40410, Note_on_c, 6, 74, 0
4, 40410, Note_on_c, 6, 73, 64
4, 40440, Note_on_c, 6, 73, 0
4, 40440, Note_on_c, 6, 69, 0
4, 40440, Note_on_c, 6, 71, 64
4, 40440, Note_on_c, 6, 68, 64
4, 40500, Note_on_c, 6, 68, 0
4, 40500, Note_on_c, 6, 71, 0
4, 40500, Note_on_c, 6, 69, 64
4, 40500, Note_on_c, 6, 66, 64
4, 40530, Note_on_c, 6, 69, 0
4, 40530, Note_on_c, 6, 71, 64
4, 40560, Note_on_c, 6, 71, 0
4, 40560, Note_on_c, 6, 66, 0
4, 40560, Note_on_c, 6, 73, 64
4, 40560, Note_on_c, 6, 68, 64
4, 40620, Note_on_c, 6, 73, 0
4, 40620, Note_on_c, 6, 71, 64
4, 40680, Note_on_c, 6, 71, 0
4, 40680, Note_on_c, 6, 68, 0
4, 40680, Note_on_c, 6, 69, 64
4, 40680, Note_on_c, 6, 66, 64
4, 40740, Note_on_c, 6, 69, 0
4, 40740, Note_on_c, 6, 78, 64
4, 40770, Note_on_c, 6, 78, 0
4, 40770, Note_on_c, 6, 76, 64
4, 40800, Note_on_c, 6, 76, 0
4, 40800, Note_on_c, 6, 78, 64
4, 40860, Note_on_c, 6, 78, 0
4, 40860, Note_on_c, 6, 73, 64
4, 40920, Note_on_c, 6, 73, 0
4, 40920, Note_on_c, 6, 74, 64
4, 40980, Note_on_c, 6, 66, 0
4, 40980, Note_on_c, 6, 71, 64
4, 41010, Note_on_c, 6, 71, 0
4, 41010, Note_on_c, 6, 70, 64
4, 41040, Note_on_c, 6, 70, 0
4, 41040, Note_on_c, 6, 71, 64
4, 41100, Note_on_c, 6, 71, 0
4, 41100, Note_on_c, 6, 74, 64
4, 41160, Note_on_c, 6, 74, 0
4, 41160, Note_on_c, 6, 68, 64
4, 41220, Note_on_c, 6, 68, 0
4, 41220, Note_on_c, 6, 74, 0
4, 41220, Note_on_c, 6, 68, 64
4, 41220, Note_on_c, 6, 80, 64
4, 41280, Note_on_c, 6, 80, 0
4, 41280, Note_on_c, 6, 68, 0
4, 41280, Note_on_c, 6, 69, 64
4, 41280, Note_on_c, 6, 78, 64
4, 41340, Note_on_c, 6, 78, 0
4, 41340, Note_on_c, 6, 69, 0
4, 41340, Note_on_c, 6, 71, 64
4, 41340, Note_on_c, 6, 77, 64
4, 41400, Note_on_c, 6, 77, 0
4, 41400, Note_on_c, 6, 71, 0
4, 41400, Note_on_c, 6, 73, 64
4, 41400, Note_on_c, 6, 78, 64
4, 41460, Note_on_c, 6, 78, 0
4, 41460, Note_on_c, 6, 73, 0
4, 41460, Note_on_c, 6, 71, 64
4, 41460, Note_on_c, 6, 73, 64
4, 41490, Note_on_c, 6, 71, 0
4, 41490, Note_on_c, 6, 69, 64
4, 41520, Note_on_c, 6, 69, 0
4, 41520, Note_on_c, 6, 73, 0
4, 41520, Note_on_c, 6, 78, 64
4, 41520, Note_on_c, 6, 71, 64
4, 41580, Note_on_c, 6, 71, 0
4, 41580, Note_on_c, 6, 78, 0
4, 41580, Note_on_c, 6, 74, 64
4, 41580, Note_on_c, 6, 69, 64
4, 41610, Note_on_c, 6, 69, 0
4, 41610, Note_on_c, 6, 71, 64
4, 41640, Note_on_c, 6, 71, 0
4, 41640, Note_on_c, 6, 74, 0
4, 41640, Note_on_c, 6, 71, 64
4, 41640, Note_on_c, 6, 68, 64
4, 41700, Note_on_c, 6, 68, 0
4, 41700, Note_on_c, 6, 71, 0
4, 41700, Note_on_c, 6, 73, 64
4, 41700, Note_on_c, 6, 69, 64
4, 41730, Note_on_c, 6, 73, 0
4, 41730, Note_on_c, 6, 74, 64
4, 41760, Note_on_c, 6, 74, 0
4, 41760, Note_on_c, 6, 69, 0
4, 41760, Note_on_c, 6, 76, 64
4, 41760, Note_on_c, 6, 71, 64
4, 41820, Note_on_c, 6, 71, 0
4, 41820, Note_on_c, 6, 76, 0
4, 41820, Note_on_c, 6, 71, 64
4, 41820, Note_on_c, 6, 68, 64
4, 41880, Note_on_c, 6, 68, 0
4, 41880, Note_on_c, 6, 71, 0
4, 41880, Note_on_c, 6, 73, 64
4, 41880, Note_on_c, 6, 64, 64
4, 41910, Note_on_c, 6, 73, 0
4, 41910, Note_on_c, 6, 71, 64
4, 41940, Note_on_c, 6, 71, 0
4, 41940, Note_on_c, 6, 64, 0
4, 41940, Note_on_c, 6, 73, 64
4, 41940, Note_on_c, 6, 69, 64
4, 41970, Note_on_c, 6, 73, 0
4, 41970, Note_on_c, 6, 74, 64
4, 42000, Note_on_c, 6, 74, 0
4, 42000, Note_on_c, 6, 76, 64
4, 42060, Note_on_c, 6, 76, 0
4, 42060, Note_on_c, 6, 69, 0
4, 42060, Note_on_c, 6, 72, 64
4, 42060, Note_on_c, 6, 67, 64
4, 42090, Note_on_c, 6, 67, 0
4, 42090, Note_on_c, 6, 69, 64
4, 42120, Note_on_c, 6, 69, 0
4, 42120, Note_on_c, 6, 72, 0
4, 42120, Note_on_c, 6, 69, 64
4, 42120, Note_on_c, 6, 66, 64
4, 42180, Note_on_c, 6, 66, 0
4, 42180, Note_on_c, 6, 69, 0
4, 42180, Note_on_c, 6, 71, 64
4, 42180, Note_on_c, 6, 67, 64
4, 42210, Note_on_c, 6, 71, 0
4, 42210, Note_on_c, 6, 72, 64
4, 42240, Note_on_c, 6, 72, 0
4, 42240, Note_on_c, 6, 67, 0
4, 42240, Note_on_c, 6, 74, 64
4, 42240, Note_on_c, 6, 69, 64
4, 42300, Note_on_c, 6, 69, 0
4, 42300, Note_on_c, 6, 74, 0
4, 42300, Note_on_c, 6, 69, 64
4, 42300, Note_on_c, 6, 66, 64
4, 42360, Note_on_c, 6, 66, 0
4, 42360, Note_on_c, 6, 69, 0
4, 42360, Note_on_c, 6, 71, 64
4, 42360, Note_on_c, 6, 62, 64
4, 42420, Note_on_c, 6, 71, 0
4, 42420, Note_on_c, 6, 74, 64
4, 42480, Note_on_c, 6, 74, 0
4, 42480, Note_on_c, 6, 62, 0
4, 42480, Note_on_c, 6, 79, 64
4, 42540, Note_on_c, 6, 79, 0
4, 42540, Note_on_c, 6, 78, 64
4, 42540, Note_on_c, 6, 62, 64
4, 42600, Note_on_c, 6, 62, 0
4, 42600, Note_on_c, 6, 78, 0
4, 42600, Note_on_c, 6, 76, 64
4, 42600, Note_on_c, 6, 67, 64
4, 42630, Note_on_c, 6, 67, 0
4, 42630, Note_on_c, 6, 76, 0
4, 42630, Note_on_c, 6, 74, 64
4, 42630, Note_on_c, 6, 66, 64
4, 42660, Note_on_c, 6, 66, 0
4, 42660, Note_on_c, 6, 74, 0
4, 42660, Note_on_c, 6, 73, 64
4, 42660, Note_on_c, 6, 64, 64
4, 42780, Note_on_c, 6, 64, 0
4, 42780, Note_on_c, 6, 73, 0
4, 42780, Note_on_c, 6, 78, 64
4, 42780, Note_on_c, 6, 70, 64
4, 42810, Note_on_c, 6, 78, 0
4, 42810, Note_on_c, 6, 76, 64
4, 42840, Note_on_c, 6, 76, 0
4, 42840, Note_on_c, 6, 70, 0
4, 42840, Note_on_c, 6, 74, 64
4, 42840, Note_on_c, 6, 66, 64
4, 42870, Note_on_c, 6, 74, 0
4, 42870, Note_on_c, 6, 73, 64
4, 42900, Note_on_c, 6, 73, 0
4, 42900, Note_on_c, 6, 66, 0
4, 42900, Note_on_c, 6, 71, 64
4, 42900, Note_on_c, 6, 71, 64
4, 42930, Note_on_c, 6, 71, 0
4, 42930, Note_on_c, 6, 73, 64
4, 42960, Note_on_c, 6, 73, 0
4, 42960, Note_on_c, 6, 75, 64
4, 43020, Note_on_c, 6, 75, 0
4, 43020, Note_on_c, 6, 71, 0
4, 43020, Note_on_c, 6, 78, 64
4, 43020, Note_on_c, 6, 78, 64
4, 43080, Note_on_c, 6, 78, 0
4, 43080, Note_on_c, 6, 78, 0
4, 43080, Note_on_c, 6, 83, 64
4, 43080, Note_on_c, 6, 79, 64
4, 43200, Note_on_c, 6, 79, 0
4, 43200, Note_on_c, 6, 83, 0
4, 43260, Note_on_c, 6, 79, 64
4, 43260, Note_on_c, 6, 76, 64
4, 43380, Note_on_c, 6, 76, 0
4, 43380, Note_on_c, 6, 79, 0
4, 43380, Note_on_c, 6, 73, 64
4, 43380, Note_on_c, 6, 73, 64
4, 43440, Note_on_c, 6, 73, 0
4, 43440, Note_on_c, 6, 73, 0
4, 43440, Note_on_c, 6, 74, 64
4, 43440, Note_on_c, 6, 71, 64
4, 43500, Note_on_c, 6, 71, 0
4, 43500, Note_on_c, 6, 74, 0
4, 43500, Note_on_c, 6, 76, 64
4, 43500, Note_on_c, 6, 70, 64
4, 43560, Note_on_c, 6, 70, 0
4, 43560, Note_on_c, 6, 76, 0
4, 43560, Note_on_c, 6, 78, 64
4, 43560, Note_on_c, 6, 71, 64
4, 43620, Note_on_c, 6, 78, 0
4, 43620, Note_on_c, 6, 76, 64
4, 43680, Note_on_c, 6, 76, 0
4, 43680, Note_on_c, 6, 71, 0
4, 43680, Note_on_c, 6, 74, 64
4, 43740, Note_on_c, 6, 69, 64
4, 43800, Note_on_c, 6, 69, 0
4, 43800, Note_on_c, 6, 71, 64
4, 43830, Note_on_c, 6, 71, 0
4, 43830, Note_on_c, 6, 74, 0
4, 43830, Note_on_c, 6, 73, 64
4, 43830, Note_on_c, 6, 69, 64
4, 43860, Note_on_c, 6, 69, 0
4, 43860, Note_on_c, 6, 73, 0
4, 43860, Note_on_c, 6, 71, 64
4, 43860, Note_on_c, 6, 68, 64
4, 43980, Note_on_c, 6, 68, 0
4, 43980, Note_on_c, 6, 71, 0
4, 43980, Note_on_c, 6, 73, 64
4, 43980, Note_on_c, 6, 65, 64
4, 44010, Note_on_c, 6, 73, 0
4, 44010, Note_on_c, 6, 71, 64
4, 44040, Note_on_c, 6, 71, 0
4, 44040, Note_on_c, 6, 65, 0
4, 44040, Note_on_c, 6, 69, 64
4, 44040, Note_on_c, 6, 66, 64
4, 44100, Note_on_c, 6, 69, 0
4, 44100, Note_on_c, 6, 66, 64
4, 44130, Note_on_c, 6, 66, 0
4, 44130, Note_on_c, 6, 68, 64
4, 44160, Note_on_c, 6, 68, 0
4, 44160, Note_on_c, 6, 66, 0
4, 44160, Note_on_c, 6, 70, 64
4, 44190, Note_on_c, 6, 70, 0
4, 44190, Note_on_c, 6, 71, 64
4, 44220, Note_on_c, 6, 71, 0
4, 44220, Note_on_c, 6, 73, 64
4, 44250, Note_on_c, 6, 73, 0
4, 44250, Note_on_c, 6, 70, 64
4, 44280, Note_on_c, 6, 70, 0
4, 44280, Note_on_c, 6, 71, 64
4, 44340, Note_on_c, 6, 74, 64
4, 44370, Note_on_c, 6, 74, 0
4, 44370, Note_on_c, 6, 73, 64
4, 44400, Note_on_c, 6, 73, 0
4, 44400, Note_on_c, 6, 71, 64
4, 44430, Note_on_c, 6, 71, 0
4, 44430, Note_on_c, 6, 69, 64
4, 44460, Note_on_c, 6, 69, 0
4, 44460, Note_on_c, 6, 68, 64
4, 44490, Note_on_c, 6, 68, 0
4, 44490, Note_on_c, 6, 69, 64
4, 44520, Note_on_c, 6, 69, 0
4, 44520, Note_on_c, 6, 71, 64
4, 44580, Note_on_c, 6, 71, 0
4, 44580, Note_on_c, 6, 71, 0
4, 44580, Note_on_c, 6, 74, 64
4, 44580, Note_on_c, 6, 71, 64
4, 44640, Note_on_c, 6, 71, 0
4, 44640, Note_on_c, 6, 74, 0
4, 44640, Note_on_c, 6, 73, 64
4, 44640, Note_on_c, 6, 68, 64
4, 44700, Note_on_c, 6, 68, 0
4, 44700, Note_on_c, 6, 73, 0
4, 44700, Note_on_c, 6, 71, 64
4, 44700, Note_on_c, 6, 65, 64
4, 44760, Note_on_c, 6, 65, 0
4, 44760, Note_on_c, 6, 71, 0
4, 44760, Note_on_c, 6, 69, 64
4, 44760, Note_on_c, 6, 66, 64
4, 44820, Note_on_c, 6, 66, 0
4, 44820, Note_on_c, 6, 69, 0
4, 44820, Note_on_c, 6, 68, 64
4, 44820, Note_on_c, 6, 68, 64
4, 44850, Note_on_c, 6, 68, 0
4, 44850, Note_on_c, 6, 66, 64
4, 44880, Note_on_c, 6, 66, 0
4, 44880, Note_on_c, 6, 68, 0
4, 44880, Note_on_c, 6, 74, 64
4, 44880, Note_on_c, 6, 69, 64
4, 44940, Note_on_c, 6, 69, 0
4, 44940, Note_on_c, 6, 62, 64
4, 45000, Note_on_c, 6, 62, 0
4, 45000, Note_on_c, 6, 68, 64
4, 45060, Note_on_c, 6, 68, 0
4, 45060, Note_on_c, 6, 74, 0
4, 45060, Note_on_c, 6, 69, 64
4, 45060, Note_on_c, 6, 69, 64
4, 45120, Note_on_c, 6, 69, 0
4, 45120, Note_on_c, 6, 69, 0
4, 45120, Note_on_c, 6, 68, 64
4, 45120, Note_on_c, 6, 71, 64
4, 45155, Note_on_c, 6, 68, 0
4, 45180, Note_on_c, 6, 74, 64
4, 45240, Note_on_c, 6, 74, 0
4, 45240, Note_on_c, 6, 73, 64
4, 45300, Note_on_c, 6, 73, 0
4, 45300, Note_on_c, 6, 71, 0
4, 45300, Note_on_c, 6, 71, 64
4, 45300, Note_on_c, 6, 64, 64
4, 45330, Note_on_c, 6, 71, 0
4, 45330, Note_on_c, 6, 69, 64
4, 45360, Note_on_c, 6, 69, 0
4, 45360, Note_on_c, 6, 64, 0
4, 45360, Note_on_c, 6, 76, 64
4, 45360, Note_on_c, 6, 71, 64
4, 45420, Note_on_c, 6, 71, 0
4, 45420, Note_on_c, 6, 73, 64
4, 45450, Note_on_c, 6, 73, 0
4, 45450, Note_on_c, 6, 71, 64
4, 45480, Note_on_c, 6, 71, 0
4, 45480, Note_on_c, 6, 70, 64
4, 45540, Note_on_c, 6, 70, 0
4, 45540, Note_on_c, 6, 76, 0
4, 45540, Note_on_c, 6, 71, 64
4, 45540, Note_on_c, 6, 71, 64
4, 45600, Note_on_c, 6, 71, 0
4, 45600, Note_on_c, 6, 71, 0
4, 45600, Note_on_c, 6, 70, 64
4, 45600, Note_on_c, 6, 73, 64
4, 45635, Note_on_c, 6, 70, 0
4, 45660, Note_on_c, 6, 76, 64
4, 45720, Note_on_c, 6, 76, 0
4, 45720, Note_on_c, 6, 73, 0
4, 45720, Note_on_c, 6, 74, 64
4, 45720, Note_on_c, 6, 71, 64
4, 45780, Note_on_c, 6, 71, 0
4, 45780, Note_on_c, 6, 74, 0
4, 45780, Note_on_c, 6, 73, 64
4, 45780, Note_on_c, 6, 69, 64
4, 45840, Note_on_c, 6, 69, 0
4, 45840, Note_on_c, 6, 73, 0
4, 45840, Note_on_c, 6, 71, 64
4, 45840, Note_on_c, 6, 68, 64
4, 45900, Note_on_c, 6, 68, 0
4, 45900, Note_on_c, 6, 71, 0
4, 45900, Note_on_c, 6, 69, 64
4, 45900, Note_on_c, 6, 66, 64
4, 45960, Note_on_c, 6, 66, 0
4, 45960, Note_on_c, 6, 69, 0
4, 45960, Note_on_c, 6, 68, 64
4, 45960, Note_on_c, 6, 65, 64
4, 46020, Note_on_c, 6, 65, 0
4, 46020, Note_on_c, 6, 68, 0
4, 46020, Note_on_c, 6, 69, 64
4, 46020, Note_on_c, 6, 66, 64
4, 46050, Note_on_c, 6, 69, 0
4, 46050, Note_on_c, 6, 71, 64
4, 46080, Note_on_c, 6, 71, 0
4, 46080, Note_on_c, 6, 66, 0
4, 46080, Note_on_c, 6, 73, 64
4, 46080, Note_on_c, 6, 68, 64
4, 46140, Note_on_c, 6, 68, 0
4, 46140, Note_on_c, 6, 66, 64
4, 46170, Note_on_c, 6, 66, 0
4, 46170, Note_on_c, 6, 65, 64
4, 46200, Note_on_c, 6, 65, 0
4, 46200, Note_on_c, 6, 66, 64
4, 46260, Note_on_c, 6, 66, 0
4, 46260, Note_on_c, 6, 73, 0
4, 46260, Note_on_c, 6, 71, 64
4, 46260, Note_on_c, 6, 65, 64
4, 46320, Note_on_c, 6, 65, 0
4, 46320, Note_on_c, 6, 71, 0
4, 46320, Note_on_c, 6, 69, 64
4, 46320, Note_on_c, 6, 66, 64
4, 46380, Note_on_c, 6, 66, 0
4, 46380, Note_on_c, 6, 69, 0
4, 46380, Note_on_c, 6, 67, 64
4, 46380, Note_on_c, 6, 64, 64
4, 46440, Note_on_c, 6, 64, 0
4, 46440, Note_on_c, 6, 67, 0
4, 46440, Note_on_c, 6, 66, 64
4, 46440, Note_on_c, 6, 63, 64
4, 46500, Note_on_c, 6, 63, 0
4, 46500, Note_on_c, 6, 66, 0
4, 46500, Note_on_c, 6, 67, 64
4, 46500, Note_on_c, 6, 64, 64
4, 46530, Note_on_c, 6, 67, 0
4, 46530, Note_on_c, 6, 69, 64
4, 46560, Note_on_c, 6, 69, 0
4, 46560, Note_on_c, 6, 64, 0
4, 46560, Note_on_c, 6, 71, 64
4, 46560, Note_on_c, 6, 66, 64
4, 46620, Note_on_c, 6, 66, 0
4, 46620, Note_on_c, 6, 64, 64
4, 46650, Note_on_c, 6, 64, 0
4, 46650, Note_on_c, 6, 63, 64
4, 46680, Note_on_c, 6, 63, 0
4, 46680, Control_c, 6, 7, 100
4, 46680, Control_c, 6, 7, 100
4, 46680, Note_on_c, 6, 64, 64
4, 46740, Note_on_c, 6, 71, 0
4, 46740, Note_on_c, 6, 73, 64
4, 46770, Note_on_c, 6, 73, 0
4, 46770, Note_on_c, 6, 64, 0
4, 46770, Note_on_c, 6, 75, 64
4, 46770, Note_on_c, 6, 64, 64
4, 46800, Note_on_c, 6, 64, 0
4, 46800, Note_on_c, 6, 75, 0
4, 46800, Note_on_c, 6, 76, 64
4, 46800, Note_on_c, 6, 64, 64
4, 46835, Note_on_c, 6, 64, 0
4, 46860, Note_on_c, 6, 64, 64
4, 46920, Note_on_c, 6, 64, 0
4, 46920, Note_on_c, 6, 66, 64
4, 46980, Note_on_c, 6, 66, 0
4, 46980, Note_on_c, 6, 60, 64
4, 47040, Note_on_c, 6, 60, 0
4, 47040, Note_on_c, 6, 76, 0
4, 47040, Note_on_c, 6, 75, 64
4, 47040, Note_on_c, 6, 59, 64
4, 47075, Note_on_c, 6, 59, 0
4, 47100, Note_on_c, 6, 66, 64
4, 47160, Note_on_c, 6, 66, 0
4, 47160, Note_on_c, 6, 75, 0
4, 47160, Note_on_c, 6, 76, 64
4, 47160, Note_on_c, 6, 67, 64
4, 47220, Note_on_c, 6, 67, 0
4, 47220, Note_on_c, 6, 76, 0
4, 47220, Note_on_c, 6, 69, 64
4, 47220, Note_on_c, 6, 60, 64
4, 47280, Note_on_c, 6, 60, 0
4, 47280, Note_on_c, 6, 69, 0
4, 47280, Note_on_c, 6, 68, 64
4, 47280, Note_on_c, 6, 59, 64
4, 47315, Note_on_c, 6, 59, 0
4, 47315, Note_on_c, 6, 68, 0
4, 47340, Note_on_c, 6, 64, 64
4, 47340, Note_on_c, 6, 68, 64
4, 47400, Note_on_c, 6, 68, 0
4, 47400, Note_on_c, 6, 64, 0
4, 47400, Note_on_c, 6, 69, 64
4, 47400, Note_on_c, 6, 69, 64
4, 47430, Note_on_c, 6, 69, 0
4, 47430, Note_on_c, 6, 67, 64
4, 47460, Note_on_c, 6, 67, 0
4, 47460, Note_on_c, 6, 65, 64
4, 47550, Note_on_c, 6, 65, 0
4, 47550, Note_on_c, 6, 64, 64
4, 47580, Note_on_c, 6, 64, 0
4, 47580, Note_on_c, 6, 63, 64
4, 47610, Note_on_c, 6, 63, 0
4, 47610, Note_on_c, 6, 64, 64
4, 47640, Note_on_c, 6, 64, 0
4, 47640, Note_on_c, 6, 63, 64
4, 47675, Note_on_c, 6, 63, 0
4, 47700, Note_on_c, 6, 72, 65
4, 47760, Note_on_c, 6, 72, 0
4, 47760, Note_on_c, 6, 69, 0
4, 47760, Note_on_c, 6, 67, 65
4, 47760, Note_on_c, 6, 71, 65
4, 47820, Note_on_c, 6, 71, 0
4, 47820, Note_on_c, 6, 67, 0
4, 47820, Note_on_c, 6, 66, 66
4, 47820, Note_on_c, 6, 69, 66
4, 47880, Note_on_c, 6, 69, 0
4, 47880, Note_on_c, 6, 66, 0
4, 47880, Note_on_c, 6, 64, 67
4, 47880, Note_on_c, 6, 67, 67
4, 47940, Note_on_c, 6, 67, 0
4, 47940, Note_on_c, 6, 64, 0
4, 47940, Note_on_c, 6, 66, 67
4, 47940, Note_on_c, 6, 66, 67
4, 47970, Note_on_c, 6, 66, 0
4, 47970, Note_on_c, 6, 64, 68
4, 48000, Note_on_c, 6, 64, 0
4, 48000, Note_on_c, 6, 66, 0
4, 48000, Note_on_c, 6, 68, 68
4, 48000, Note_on_c, 6, 74, 68
4, 48060, Note_on_c, 6, 68, 0
4, 48060, Note_on_c, 6, 69, 69
4, 48120, Note_on_c, 6, 69, 0
4, 48120, Note_on_c, 6, 71, 69
4, 48180, Note_on_c, 6, 71, 0
4, 48180, Note_on_c, 6, 74, 0
4, 48180, Note_on_c, 6, 73, 70
4, 48180, Note_on_c, 6, 69, 70
4, 48240, Note_on_c, 6, 69, 0
4, 48240, Note_on_c, 6, 73, 0
4, 48240, Note_on_c, 6, 74, 71
4, 48240, Note_on_c, 6, 68, 71
4, 48275, Note_on_c, 6, 68, 0
4, 48275, Note_on_c, 6, 74, 0
4, 48300, Note_on_c, 6, 68, 71
4, 48300, Note_on_c, 6, 74, 71
4, 48360, Note_on_c, 6, 74, 0
4, 48360, Note_on_c, 6, 68, 0
4, 48360, Note_on_c, 6, 69, 72
4, 48360, Note_on_c, 6, 73, 72
4, 48420, Note_on_c, 6, 73, 0
4, 48420, Note_on_c, 6, 71, 73
4, 48450, Note_on_c, 6, 71, 0
4, 48450, Note_on_c, 6, 69, 73
4, 48480, Note_on_c, 6, 69, 0
4, 48480, Note_on_c, 6, 69, 0
4, 48480, Note_on_c, 6, 76, 73
4, 48540, Note_on_c, 6, 71, 74
4, 48600, Note_on_c, 6, 71, 0
4, 48600, Note_on_c, 6, 73, 75
4, 48660, Note_on_c, 6, 73, 0
4, 48660, Note_on_c, 6, 76, 0
4, 48660, Note_on_c, 6, 74, 75
4, 48660, Note_on_c, 6, 71, 75
4, 48720, Note_on_c, 6, 71, 0
4, 48720, Note_on_c, 6, 74, 0
4, 48720, Note_on_c, 6, 76, 76
4, 48720, Note_on_c, 6, 70, 76
4, 48780, Note_on_c, 6, 70, 0
4, 48780, Note_on_c, 6, 76, 0
4, 48780, Note_on_c, 6, 70, 77
4, 48780, Note_on_c, 6, 76, 77
4, 48840, Note_on_c, 6, 76, 0
4, 48840, Note_on_c, 6, 70, 0
4, 48840, Note_on_c, 6, 71, 77
4, 48840, Note_on_c, 6, 74, 77
4, 48900, Note_on_c, 6, 74, 0
4, 48900, Note_on_c, 6, 76, 78
4, 48960, Note_on_c, 6, 76, 0
4, 48960, Note_on_c, 6, 71, 0
4, 48960, Note_on_c, 6, 78, 79
4, 49080, Note_on_c, 6, 71, 80
4, 49170, Note_on_c, 6, 71, 0
4, 49170, Note_on_c, 6, 71, 78
4, 49200, Note_on_c, 6, 71, 0
4, 49200, Note_on_c, 6, 78, 0
4, 49200, Note_on_c, 6, 71, 77
4, 49200, Note_on_c, 6, 76, 77
4, 49235, Note_on_c, 6, 71, 0
4, 49260, Note_on_c, 6, 71, 76
4, 49320, Note_on_c, 6, 71, 0
4, 49320, Note_on_c, 6, 76, 0
4, 49320, Note_on_c, 6, 73, 75
4, 49320, Note_on_c, 6, 78, 75
4, 49380, Note_on_c, 6, 73, 0
4, 49380, Note_on_c, 6, 67, 74
4, 49440, Note_on_c, 6, 67, 0
4, 49440, Note_on_c, 6, 78, 0
4, 49440, Note_on_c, 6, 66, 72
4, 49475, Note_on_c, 6, 66, 0
4, 49500, Note_on_c, 6, 73, 71
4, 49560, Note_on_c, 6, 73, 0
4, 49560, Note_on_c, 6, 74, 64
4, 49620, Note_on_c, 6, 74, 0
4, 49620, Note_on_c, 6, 67, 64
4, 49680, Note_on_c, 6, 67, 0
4, 49680, Note_on_c, 6, 66, 64
4, 49715, Note_on_c, 6, 66, 0
4, 49740, Note_on_c, 6, 75, 64
4, 49800, Note_on_c, 6, 75, 0
4, 49800, Note_on_c, 6, 76, 64
4, 49830, Note_on_c, 6, 76, 0
4, 49830, Note_on_c, 6, 74, 64
4, 49860, Note_on_c, 6, 74, 0
4, 49860, Note_on_c, 6, 72, 64
4, 49950, Note_on_c, 6, 72, 0
4, 49950, Note_on_c, 6, 71, 64
4, 49980, Note_on_c, 6, 71, 0
4, 49980, Note_on_c, 6, 70, 64
4, 50010, Note_on_c, 6, 70, 0
4, 50010, Note_on_c, 6, 71, 64
4, 50040, Note_on_c, 6, 71, 0
4, 50040, Note_on_c, 6, 70, 64
4, 50075, Note_on_c, 6, 70, 0
4, 50100, Note_on_c, 6, 79, 64
4, 50160, Note_on_c, 6, 79, 0
4, 50160, Note_on_c, 6, 78, 64
4, 50220, Note_on_c, 6, 78, 0
4, 50220, Note_on_c, 6, 76, 64
4, 50280, Note_on_c, 6, 76, 0
4, 50280, Note_on_c, 6, 74, 64
4, 50280, Note_on_c, 6, 66, 64
4, 50340, Note_on_c, 6, 74, 0
4, 50340, Note_on_c, 6, 73, 64
4, 50370, Note_on_c, 6, 73, 0
4, 50370, Note_on_c, 6, 66, 0
4, 50370, Note_on_c, 6, 71, 64
4, 50370, Note_on_c, 6, 66, 64
4, 50400, Note_on_c, 6, 66, 0
4, 50400, Note_on_c, 6, 71, 0
4, 50400, Note_on_c, 6, 78, 64
4, 50400, Note_on_c, 6, 66, 64
4, 50460, Note_on_c, 6, 66, 0
4, 50460, Note_on_c, 6, 66, 64
4, 50520, Note_on_c, 6, 66, 0
4, 50520, Note_on_c, 6, 68, 64
4, 50580, Note_on_c, 6, 68, 0
4, 50580, Note_on_c, 6, 62, 64
4, 50640, Note_on_c, 6, 62, 0
4, 50640, Note_on_c, 6, 78, 0
4, 50640, Note_on_c, 6, 77, 64
4, 50640, Note_on_c, 6, 61, 64
4, 50675, Note_on_c, 6, 61, 0
4, 50700, Note_on_c, 6, 68, 64
4, 50760, Note_on_c, 6, 68, 0
4, 50760, Note_on_c, 6, 77, 0
4, 50760, Note_on_c, 6, 78, 64
4, 50760, Note_on_c, 6, 69, 64
4, 50820, Note_on_c, 6, 69, 0
4, 50820, Note_on_c, 6, 62, 64
4, 50880, Note_on_c, 6, 62, 0
4, 50880, Note_on_c, 6, 61, 64
4, 50915, Note_on_c, 6, 61, 0
4, 50940, Note_on_c, 6, 70, 64
4, 51000, Note_on_c, 6, 70, 0
4, 51000, Note_on_c, 6, 71, 64
4, 51030, Note_on_c, 6, 71, 0
4, 51030, Note_on_c, 6, 69, 64
4, 51060, Note_on_c, 6, 69, 0
4, 51060, Note_on_c, 6, 78, 0
4, 51060, Note_on_c, 6, 76, 64
4, 51060, Note_on_c, 6, 67, 64
4, 51120, Note_on_c, 6, 76, 0
4, 51120, Note_on_c, 6, 74, 64
4, 51150, Note_on_c, 6, 67, 0
4, 51150, Note_on_c, 6, 66, 64
4, 51180, Note_on_c, 6, 66, 0
4, 51180, Note_on_c, 6, 74, 0
4, 51180, Note_on_c, 6, 73, 64
4, 51180, Note_on_c, 6, 65, 64
4, 51210, Note_on_c, 6, 65, 0
4, 51210, Note_on_c, 6, 66, 64
4, 51240, Note_on_c, 6, 66, 0
4, 51240, Note_on_c, 6, 73, 0
4, 51240, Note_on_c, 6, 71, 64
4, 51240, Note_on_c, 6, 65, 64
4, 51275, Note_on_c, 6, 65, 0
4, 51300, Note_on_c, 6, 74, 64
4, 51360, Note_on_c, 6, 74, 0
4, 51360, Note_on_c, 6, 71, 0
4, 51360, Note_on_c, 6, 80, 64
4, 51360, Note_on_c, 6, 73, 64
4, 51420, Note_on_c, 6, 73, 0
4, 51420, Note_on_c, 6, 71, 64
4, 51480, Note_on_c, 6, 71, 0
4, 51480, Note_on_c, 6, 69, 64
4, 51540, Note_on_c, 6, 69, 0
4, 51540, Note_on_c, 6, 80, 0
4, 51540, Note_on_c, 6, 73, 64
4, 51540, Note_on_c, 6, 68, 64
4, 51570, Note_on_c, 6, 68, 0
4, 51570, Note_on_c, 6, 66, 64
4, 51600, Note_on_c, 6, 66, 0
4, 51600, Note_on_c, 6, 73, 0
4, 51600, Note_on_c, 6, 78, 64
4, 51600, Note_on_c, 6, 73, 64
4, 51660, Note_on_c, 6, 78, 0
4, 51660, Note_on_c, 6, 76, 64
4, 51720, Note_on_c, 6, 76, 0
4, 51720, Note_on_c, 6, 74, 64
4, 51780, Note_on_c, 6, 73, 0
4, 51780, Note_on_c, 6, 66, 64
4, 51840, Note_on_c, 6, 66, 0
4, 51840, Note_on_c, 6, 71, 64
4, 51900, Note_on_c, 6, 71, 0
4, 51900, Note_on_c, 6, 69, 64
4, 51960, Note_on_c, 6, 69, 0
4, 51960, Note_on_c, 6, 68, 64
4, 52020, Note_on_c, 6, 74, 0
4, 52020, Note_on_c, 6, 68, 64
4, 52080, Note_on_c, 6, 68, 0
4, 52080, Note_on_c, 6, 73, 64
4, 52140, Note_on_c, 6, 73, 0
4, 52140, Note_on_c, 6, 71, 64
4, 52200, Note_on_c, 6, 71, 0
4, 52200, Note_on_c, 6, 69, 64
4, 52260, Note_on_c, 6, 68, 0
4, 52260, Note_on_c, 6, 61, 64
4, 52320, Note_on_c, 6, 61, 0
4, 52320, Note_on_c, 6, 66, 64
4, 52380, Note_on_c, 6, 66, 0
4, 52380, Note_on_c, 6, 64, 64
4, 52440, Note_on_c, 6, 64, 0
4, 52440, Note_on_c, 6, 62, 64
4, 52500, Note_on_c, 6, 69, 0
4, 52500, Note_on_c, 6, 77, 64
4, 52560, Note_on_c, 6, 77, 0
4, 52560, Note_on_c, 6, 62, 0
4, 52560, Note_on_c, 6, 78, 64
4, 52560, Note_on_c, 6, 61, 64
4, 52595, Note_on_c, 6, 78, 0
4, 52620, Note_on_c, 6, 69, 64
4, 52680, Note_on_c, 6, 69, 0
4, 52680, Note_on_c, 6, 61, 0
4, 52680, Note_on_c, 6, 68, 64
4, 52680, Note_on_c, 6, 59, 64
4, 52715, Note_on_c, 6, 59, 0
4, 52715, Note_on_c, 6, 68, 0
4, 52740, Note_on_c, 6, 77, 64
4, 52740, Note_on_c, 6, 68, 64
4, 52800, Note_on_c, 6, 68, 0
4, 52800, Note_on_c, 6, 77, 0
4, 52800, Note_on_c, 6, 78, 64
4, 52800, Note_on_c, 6, 69, 64
4, 52860, Note_on_c, 6, 69, 0
4, 52860, Note_on_c, 6, 78, 0
4, 52860, Note_on_c, 6, 80, 64
4, 52860, Note_on_c, 6, 71, 64
4, 52920, Note_on_c, 6, 71, 0
4, 52920, Note_on_c, 6, 80, 0
4, 52920, Note_on_c, 6, 73, 64
4, 52920, Note_on_c, 6, 73, 64
4, 52955, Note_on_c, 6, 73, 0
4, 52955, Note_on_c, 6, 73, 0
4, 52980, Note_on_c, 6, 65, 64
4, 52980, Note_on_c, 6, 74, 64
4, 53040, Note_on_c, 6, 74, 0
4, 53040, Note_on_c, 6, 65, 0
4, 53040, Note_on_c, 6, 66, 64
4, 53040, Note_on_c, 6, 73, 64
4, 53075, Note_on_c, 6, 73, 0
4, 53075, Note_on_c, 6, 66, 0
4, 53100, Note_on_c, 6, 74, 64
4, 53100, Note_on_c, 6, 66, 64
4, 53160, Note_on_c, 6, 74, 0
4, 53160, Note_on_c, 6, 69, 64
4, 53220, Note_on_c, 6, 69, 0
4, 53220, Note_on_c, 6, 66, 0
4, 53220, Note_on_c, 6, 68, 64
4, 53220, Note_on_c, 6, 65, 64
4, 53340, Note_on_c, 6, 65, 0
4, 53340, Note_on_c, 6, 68, 0
4, 53340, Note_on_c, 6, 69, 64
4, 53340, Note_on_c, 6, 66, 64
4, 53400, Note_on_c, 6, 66, 0
4, 53400, Note_on_c, 6, 69, 0
4, 53400, Note_on_c, 6, 71, 64
4, 53400, Note_on_c, 6, 68, 64
4, 53435, Note_on_c, 6, 68, 0
4, 53435, Note_on_c, 6, 71, 0
4, 53460, Note_on_c, 6, 74, 64
4, 53460, Note_on_c, 6, 71, 64
4, 53520, Note_on_c, 6, 71, 0
4, 53520, Note_on_c, 6, 74, 0
4, 53520, Note_on_c, 6, 73, 64
4, 53520, Note_on_c, 6, 69, 64
4, 53580, Note_on_c, 6, 69, 0
4, 53580, Note_on_c, 6, 73, 0
4, 53580, Note_on_c, 6, 71, 64
4, 53580, Note_on_c, 6, 68, 64
4, 53640, Note_on_c, 6, 68, 0
4, 53640, Note_on_c, 6, 71, 0
4, 53640, Note_on_c, 6, 69, 64
4, 53640, Note_on_c, 6, 66, 64
4, 53700, Note_on_c, 6, 66, 0
4, 53700, Note_on_c, 6, 74, 64
4, 53760, Note_on_c, 6, 74, 0
4, 53760, Note_on_c, 6, 69, 0
4, 53760, Note_on_c, 6, 68, 64
4, 53760, Note_on_c, 6, 73, 64
4, 53820, Note_on_c, 6, 73, 0
4, 53820, Note_on_c, 6, 71, 64
4, 53880, Note_on_c, 6, 68, 0
4, 53880, Note_on_c, 6, 66, 40
4, 53940, Note_on_c, 6, 71, 0
4, 53940, Note_on_c, 6, 69, 41
4, 53970, Note_on_c, 6, 69, 0
4, 53970, Note_on_c, 6, 71, 42
4, 54000, Note_on_c, 6, 71, 0
4, 54000, Note_on_c, 6, 66, 0
4, 54000, Note_on_c, 6, 72, 42
4, 54180, Note_on_c, 6, 72, 0
4, 54180, Note_on_c, 6, 64, 45
4, 54240, Note_on_c, 6, 64, 0
4, 54240, Note_on_c, 6, 78, 47
4, 54240, Note_on_c, 6, 63, 47
4, 54275, Note_on_c, 6, 63, 0
4, 54300, Note_on_c, 6, 69, 48
4, 54360, Note_on_c, 6, 69, 0
4, 54360, Note_on_c, 6, 67, 49
4, 54420, Note_on_c, 6, 78, 0
4, 54420, Note_on_c, 6, 76, 50
4, 54450, Note_on_c, 6, 76, 0
4, 54450, Note_on_c, 6, 78, 50
4, 54480, Note_on_c, 6, 78, 0
4, 54480, Note_on_c, 6, 67, 0
4, 54480, Note_on_c, 6, 79, 51
4, 54660, Note_on_c, 6, 79, 0
4, 54660, Note_on_c, 6, 71, 54
4, 54720, Note_on_c, 6, 71, 0
4, 54720, Note_on_c, 6, 70, 55
4, 54720, Note_on_c, 6, 73, 55
4, 54755, Note_on_c, 6, 70, 0
4, 54780, Note_on_c, 6, 76, 56
4, 54840, Note_on_c, 6, 76, 0
4, 54840, Note_on_c, 6, 74, 58
4, 54900, Note_on_c, 6, 73, 0
4, 54900, Note_on_c, 6, 71, 59
4, 54930, Note_on_c, 6, 71, 0
4, 54930, Note_on_c, 6, 73, 59
4, 54960, Note_on_c, 6, 73, 0
4, 54960, Note_on_c, 6, 74, 0
4, 54960, Note_on_c, 6, 74, 60
4, 55140, Note_on_c, 6, 74, 0
4, 55140, Note_on_c, 6, 66, 63
4, 55200, Note_on_c, 6, 66, 0
4, 55200, Note_on_c, 6, 80, 64
4, 55200, Note_on_c, 6, 65, 64
4, 55235, Note_on_c, 6, 65, 0
4, 55260, Note_on_c, 6, 71, 65
4, 55320, Note_on_c, 6, 71, 0
4, 55320, Note_on_c, 6, 69, 66
4, 55380, Note_on_c, 6, 80, 0
4, 55380, Note_on_c, 6, 78, 67
4, 55410, Note_on_c, 6, 78, 0
4, 55410, Note_on_c, 6, 80, 68
4, 55440, Note_on_c, 6, 80, 0
4, 55440, Note_on_c, 6, 69, 0
4, 55440, Note_on_c, 6, 81, 68
4, 55620, Note_on_c, 6, 81, 0
4, 55620, Note_on_c, 6, 72, 72
4, 55680, Note_on_c, 6, 72, 0
4, 55680, Note_on_c, 6, 71, 73
4, 55680, Note_on_c, 6, 75, 73
4, 55715, Note_on_c, 6, 71, 0
4, 55740, Note_on_c, 6, 81, 74
4, 55800, Note_on_c, 6, 81, 0
4, 55800, Note_on_c, 6, 75, 0
4, 55800, Note_on_c, 6, 80, 94
4, 55800, Note_on_c, 6, 76, 94
4, 55860, Note_on_c, 6, 76, 0
4, 55860, Note_on_c, 6, 80, 0
4, 55860, Note_on_c, 6, 74, 75
4, 55860, Note_on_c, 6, 71, 75
4, 55920, Note_on_c, 6, 71, 0
4, 55920, Note_on_c, 6, 74, 0
4, 55920, Note_on_c, 6, 73, 75
4, 55920, Note_on_c, 6, 70, 75
4, 55955, Note_on_c, 6, 70, 0
4, 55955, Note_on_c, 6, 73, 0
4, 55980, Note_on_c, 6, 82, 75
4, 55980, Note_on_c, 6, 73, 75
4, 56015, Note_on_c, 6, 73, 0
4, 56015, Note_on_c, 6, 82, 0
4, 56040, Note_on_c, 6, 83, 94
4, 56040, Note_on_c, 6, 66, 94
4, 56100, Note_on_c, 6, 66, 0
4, 56100, Note_on_c, 6, 83, 0
4, 56100, Note_on_c, 6, 78, 75
4, 56100, Note_on_c, 6, 71, 75
4, 56160, Note_on_c, 6, 71, 0
4, 56160, Note_on_c, 6, 78, 0
4, 56160, Note_on_c, 6, 77, 75
4, 56160, Note_on_c, 6, 73, 75
4, 56195, Note_on_c, 6, 73, 0
4, 56195, Note_on_c, 6, 77, 0
4, 56220, Note_on_c, 6, 83, 75
4, 56220, Note_on_c, 6, 65, 75
4, 56255, Note_on_c, 6, 65, 0
4, 56255, Note_on_c, 6, 83, 0
4, 56280, Note_on_c, 6, 82, 94
4, 56280, Note_on_c, 6, 66, 94
4, 56340, Note_on_c, 6, 66, 0
4, 56340, Note_on_c, 6, 82, 0
4, 56340, Note_on_c, 6, 76, 75
4, 56340, Note_on_c, 6, 70, 75
4, 56400, Note_on_c, 6, 70, 0
4, 56400, Note_on_c, 6, 76, 0
4, 56400, Note_on_c, 6, 75, 75
4, 56400, Note_on_c, 6, 71, 75
4, 56435, Note_on_c, 6, 71, 0
4, 56435, Note_on_c, 6, 75, 0
4, 56460, Note_on_c, 6, 81, 75
4, 56460, Note_on_c, 6, 63, 75
4, 56495, Note_on_c, 6, 63, 0
4, 56495, Note_on_c, 6, 81, 0
4, 56520, Note_on_c, 6, 80, 94
4, 56520, Note_on_c, 6, 64, 94
4, 56580, Note_on_c, 6, 64, 0
4, 56580, Note_on_c, 6, 80, 0
4, 56580, Note_on_c, 6, 74, 75
4, 56580, Note_on_c, 6, 68, 75
4, 56640, Note_on_c, 6, 68, 0
4, 56640, Note_on_c, 6, 74, 0
4, 56640, Note_on_c, 6, 73, 75
4, 56640, Note_on_c, 6, 69, 75
4, 56675, Note_on_c, 6, 69, 0
4, 56675, Note_on_c, 6, 73, 0
4, 56700, Note_on_c, 6, 79, 75
4, 56700, Note_on_c, 6, 64, 75
4, 56735, Note_on_c, 6, 64, 0
4, 56735, Note_on_c, 6, 79, 0
4, 56760, Note_on_c, 6, 78, 94
4, 56760, Note_on_c, 6, 62, 75
4, 56820, Note_on_c, 6, 62, 0
4, 56820, Note_on_c, 6, 78, 0
4, 56820, Note_on_c, 6, 70, 72
4, 56820, Note_on_c, 6, 66, 72
4, 56880, Note_on_c, 6, 66, 0
4, 56880, Note_on_c, 6, 70, 0
4, 56880, Note_on_c, 6, 71, 70
4, 56880, Note_on_c, 6, 71, 70
4, 56915, Note_on_c, 6, 71, 0
4, 56940, Note_on_c, 6, 74, 67
4, 56975, Note_on_c, 6, 74, 0
4, 57000, Note_on_c, 6, 76, 84
4, 57060, Note_on_c, 6, 76, 0
4, 57060, Note_on_c, 6, 67, 62
4, 57120, Note_on_c, 6, 67, 0
4, 57120, Note_on_c, 6, 71, 0
4, 57120, Note_on_c, 6, 66, 60
4, 57120, Note_on_c, 6, 70, 60
4, 57155, Note_on_c, 6, 66, 0
4, 57180, Note_on_c, 6, 70, 0
4, 57180, Note_on_c, 6, 76, 57
4, 57180, Note_on_c, 6, 73, 57
4, 57215, Note_on_c, 6, 76, 0
4, 57240, Note_on_c, 6, 74, 55
4, 57300, Note_on_c, 6, 73, 0
4, 57300, Note_on_c, 6, 66, 56
4, 57360, Note_on_c, 6, 66, 0
4, 57360, Note_on_c, 6, 71, 56
4, 57420, Note_on_c, 6, 74, 0
4, 57420, Note_on_c, 6, 76, 57
4, 57450, Note_on_c, 6, 76, 0
4, 57450, Note_on_c, 6, 78, 57
4, 57480, Note_on_c, 6, 78, 0
4, 57480, Note_on_c, 6, 76, 57
4, 57600, Note_on_c, 6, 71, 0
4, 57600, Note_on_c, 6, 70, 58
4, 57660, Note_on_c, 6, 76, 0
4, 57660, Note_on_c, 6, 78, 59
4, 57690, Note_on_c, 6, 78, 0
4, 57690, Note_on_c, 6, 79, 59
4, 57720, Note_on_c, 6, 79, 0
4, 57720, Note_on_c, 6, 70, 0
4, 57720, Note_on_c, 6, 78, 60
4, 57720, Note_on_c, 6, 71, 60
4, 57900, Note_on_c, 6, 78, 0
4, 57900, Note_on_c, 6, 79, 61
4, 57930, Note_on_c, 6, 79, 0
4, 57930, Note_on_c, 6, 81, 61
4, 57960, Note_on_c, 6, 81, 0
4, 57960, Note_on_c, 6, 79, 62
4, 58020, Note_on_c, 6, 71, 0
4, 58020, Note_on_c, 6, 69, 62
4, 58080, Note_on_c, 6, 69, 0
4, 58080, Note_on_c, 6, 67, 63
4, 58140, Note_on_c, 6, 67, 0
4, 58140, Note_on_c, 6, 66, 63
4, 58200, Note_on_c, 6, 66, 0
4, 58200, Note_on_c, 6, 64, 64
4, 58260, Note_on_c, 6, 79, 0
4, 58260, Note_on_c, 6, 73, 64
4, 58320, Note_on_c, 6, 73, 0
4, 58320, Note_on_c, 6, 64, 0
4, 58320, Note_on_c, 6, 78, 64
4, 58320, Note_on_c, 6, 73, 64
4, 58380, Note_on_c, 6, 78, 0
4, 58380, Note_on_c, 6, 76, 64
4, 58440, Note_on_c, 6, 76, 0
4, 58440, Note_on_c, 6, 74, 64
4, 58500, Note_on_c, 6, 74, 0
4, 58500, Note_on_c, 6, 73, 0
4, 58500, Note_on_c, 6, 73, 64
4, 58500, Note_on_c, 6, 66, 64
4, 58530, Note_on_c, 6, 73, 0
4, 58530, Note_on_c, 6, 71, 64
4, 58560, Note_on_c, 6, 71, 0
4, 58560, Note_on_c, 6, 66, 0
4, 58560, Note_on_c, 6, 78, 64
4, 58560, Note_on_c, 6, 71, 64
4, 58620, Note_on_c, 6, 71, 0
4, 58620, Note_on_c, 6, 69, 64
4, 58680, Note_on_c, 6, 69, 0
4, 58680, Note_on_c, 6, 67, 64
4, 58740, Note_on_c, 6, 78, 0
4, 58740, Note_on_c, 6, 71, 64
4, 58800, Note_on_c, 6, 71, 0
4, 58800, Note_on_c, 6, 76, 64
4, 58860, Note_on_c, 6, 76, 0
4, 58860, Note_on_c, 6, 74, 64
4, 58920, Note_on_c, 6, 74, 0
4, 58920, Note_on_c, 6, 73, 64
4, 58980, Note_on_c, 6, 67, 0
4, 58980, Note_on_c, 6, 61, 64
4, 59040, Note_on_c, 6, 61, 0
4, 59040, Note_on_c, 6, 66, 64
4, 59100, Note_on_c, 6, 66, 0
4, 59100, Note_on_c, 6, 64, 64
4, 59160, Note_on_c, 6, 64, 0
4, 59160, Note_on_c, 6, 62, 64
4, 59220, Note_on_c, 6, 73, 0
4, 59220, Note_on_c, 6, 66, 64
4, 59280, Note_on_c, 6, 66, 0
4, 59280, Note_on_c, 6, 71, 64
4, 59340, Note_on_c, 6, 71, 0
4, 59340, Note_on_c, 6, 69, 64
4, 59400, Note_on_c, 6, 69, 0
4, 59400, Note_on_c, 6, 67, 64
4, 59460, Note_on_c, 6, 62, 0
4, 59460, Note_on_c, 6, 70, 64
4, 59520, Note_on_c, 6, 70, 0
4, 59520, Note_on_c, 6, 67, 0
4, 59520, Note_on_c, 6, 66, 64
4, 59520, Note_on_c, 6, 71, 64
4, 59555, Note_on_c, 6, 71, 0
4, 59580, Note_on_c, 6, 62, 64
4, 59640, Note_on_c, 6, 62, 0
4, 59640, Note_on_c, 6, 66, 0
4, 59640, Note_on_c, 6, 64, 64
4, 59640, Note_on_c, 6, 64, 64
4, 59675, Note_on_c, 6, 64, 0
4, 59675, Note_on_c, 6, 64, 0
4, 59700, Note_on_c, 6, 73, 65
4, 59700, Note_on_c, 6, 70, 65
4, 59760, Note_on_c, 6, 70, 0
4, 59760, Note_on_c, 6, 73, 0
4, 59760, Note_on_c, 6, 74, 66
4, 59760, Note_on_c, 6, 71, 66
4, 59820, Note_on_c, 6, 71, 0
4, 59820, Note_on_c, 6, 74, 0
4, 59820, Note_on_c, 6, 76, 67
4, 59820, Note_on_c, 6, 73, 67
4, 59880, Note_on_c, 6, 73, 0
4, 59880, Note_on_c, 6, 76, 0
4, 59880, Note_on_c, 6, 78, 68
4, 59880, Note_on_c, 6, 66, 68
4, 59915, Note_on_c, 6, 66, 0
4, 59915, Note_on_c, 6, 78, 0
4, 59940, Note_on_c, 6, 79, 69
4, 59940, Note_on_c, 6, 70, 69
4, 60000, Note_on_c, 6, 70, 0
4, 60000, Note_on_c, 6, 79, 0
4, 60000, Note_on_c, 6, 78, 70
4, 60000, Note_on_c, 6, 71, 70
4, 60060, Note_on_c, 6, 71, 0
4, 60060, Note_on_c, 6, 78, 0
4, 60060, Note_on_c, 6, 71, 71
4, 60060, Note_on_c, 6, 67, 71
4, 60120, Note_on_c, 6, 67, 0
4, 60120, Note_on_c, 6, 62, 72
4, 60180, Note_on_c, 6, 62, 0
4, 60180, Note_on_c, 6, 71, 0
4, 60180, Note_on_c, 6, 70, 73
4, 60180, Note_on_c, 6, 61, 73
4, 60300, Note_on_c, 6, 61, 0
4, 60300, Note_on_c, 6, 70, 0
4, 60300, Note_on_c, 6, 71, 75
4, 60300, Note_on_c, 6, 62, 75
4, 60360, Note_on_c, 6, 62, 0
4, 60360, Note_on_c, 6, 71, 0
4, 60360, Note_on_c, 6, 73, 76
4, 60360, Note_on_c, 6, 64, 76
4, 60420, Note_on_c, 6, 64, 0
4, 60420, Note_on_c, 6, 73, 0
4, 60420, Note_on_c, 6, 76, 77
4, 60420, Note_on_c, 6, 67, 77
4, 60480, Note_on_c, 6, 67, 0
4, 60480, Note_on_c, 6, 76, 0
4, 60480, Note_on_c, 6, 74, 78
4, 60480, Note_on_c, 6, 66, 78
4, 60540, Note_on_c, 6, 66, 0
4, 60540, Note_on_c, 6, 74, 0
4, 60540, Note_on_c, 6, 73, 79
4, 60540, Note_on_c, 6, 64, 79
4, 60600, Note_on_c, 6, 64, 0
4, 60600, Note_on_c, 6, 73, 0
4, 60600, Note_on_c, 6, 71, 80
4, 60600, Note_on_c, 6, 62, 80
4, 60660, Note_on_c, 6, 62, 0
4, 60660, Note_on_c, 6, 67, 80
4, 60720, Note_on_c, 6, 67, 0
4, 60720, Note_on_c, 6, 71, 0
4, 60720, Note_on_c, 6, 70, 80
4, 60720, Note_on_c, 6, 61, 80
4, 60780, Note_on_c, 6, 61, 0
4, 60780, Note_on_c, 6, 66, 80
4, 60840, Note_on_c, 6, 66, 0
4, 60840, Note_on_c, 6, 70, 0
4, 60840, Note_on_c, 6, 71, 80
4, 60840, Note_on_c, 6, 63, 80
4, 61200, Note_on_c, 6, 63, 0
4, 61200, Note_on_c, 6, 71, 0
4, 61560, End_track
5, 0, Start_track
5, 0, MIDI_port, 0
5, 0, Title_t, "Soprano I"
5, 0, Program_c, 0, 53
5, 480, Control_c, 0, 7, 127
5, 480, Note_on_c, 0, 74, 80
5, 660, Note_on_c, 0, 74, 0
5, 660, Note_on_c, 0, 74, 80
5, 720, Note_on_c, 0, 74, 0
5, 720, Note_on_c, 0, 76, 80
5, 840, Note_on_c, 0, 76, 0
5, 960, Control_c, 0, 7, 127
5, 960, Note_on_c, 0, 78, 80
5, 1140, Note_on_c, 0, 78, 0
5, 1140, Note_on_c, 0, 78, 80
5, 1200, Note_on_c, 0, 78, 0
5, 1200, Note_on_c, 0, 78, 80
5, 1260, Note_on_c, 0, 78, 0
5, 1260, Note_on_c, 0, 71, 80
5, 1320, Note_on_c, 0, 71, 0
5, 1320, Note_on_c, 0, 76, 80
5, 1380, Note_on_c, 0, 76, 0
5, 1380, Note_on_c, 0, 79, 80
5, 1440, Note_on_c, 0, 79, 0
5, 1440, Control_c, 0, 7, 127
5, 1440, Note_on_c, 0, 79, 80
5, 1500, Note_on_c, 0, 79, 0
5, 1500, Note_on_c, 0, 78, 80
5, 1620, Note_on_c, 0, 78, 0
5, 1620, Note_on_c, 0, 76, 80
5, 1680, Note_on_c, 0, 76, 0
5, 1680, Note_on_c, 0, 74, 80
5, 1740, Note_on_c, 0, 74, 0
5, 1740, Note_on_c, 0, 76, 80
5, 1800, Note_on_c, 0, 76, 0
5, 1800, Note_on_c, 0, 78, 80
5, 1980, Note_on_c, 0, 78, 0
5, 1980, Note_on_c, 0, 76, 81
5, 2010, Note_on_c, 0, 76, 0
5, 2010, Note_on_c, 0, 74, 82
5, 2040, Note_on_c, 0, 74, 0
5, 2040, Note_on_c, 0, 76, 83
5, 2160, Note_on_c, 0, 76, 0
5, 2160, Note_on_c, 0, 78, 85
5, 2400, Note_on_c, 0, 78, 0
5, 17880, Note_on_c, 0, 71, 64
5, 17970, Note_on_c, 0, 71, 0
5, 17970, Note_on_c, 0, 71, 64
5, 18000, Note_on_c, 0, 71, 0
5, 18000, Note_on_c, 0, 71, 64
5, 18035, Note_on_c, 0, 71, 0
5, 18060, Note_on_c, 0, 71, 64
5, 18120, Note_on_c, 0, 71, 0
5, 18120, Note_on_c, 0, 73, 64
5, 18180, Note_on_c, 0, 73, 0
5, 18180, Note_on_c, 0, 67, 64
5, 18240, Note_on_c, 0, 67, 0
5, 18240, Note_on_c, 0, 66, 64
5, 18275, Note_on_c, 0, 66, 0
5, 18300, Note_on_c, 0, 73, 64
5, 18360, Note_on_c, 0, 73, 0
5, 18360, Note_on_c, 0, 74, 64
5, 18420, Note_on_c, 0, 74, 0
5, 18420, Note_on_c, 0, 67, 64
5, 18480, Note_on_c, 0, 67, 0
5, 18480, Note_on_c, 0, 66, 64
5, 18515, Note_on_c, 0, 66, 0
5, 18540, Note_on_c, 0, 75, 64
5, 18600, Note_on_c, 0, 75, 0
5, 18600, Note_on_c, 0, 76, 64
5, 18630, Note_on_c, 0, 76, 0
5, 18630, Note_on_c, 0, 74, 64
5, 18660, Note_on_c, 0, 74, 0
5, 18660, Note_on_c, 0, 72, 64
5, 18750, Note_on_c, 0, 72, 0
5, 18750, Note_on_c, 0, 71, 64
5, 18780, Note_on_c, 0, 71, 0
5, 18780, Note_on_c, 0, 70, 64
5, 18810, Note_on_c, 0, 70, 0
5, 18810, Note_on_c, 0, 71, 64
5, 18840, Note_on_c, 0, 71, 0
5, 18840, Note_on_c, 0, 70, 64
5, 18875, Note_on_c, 0, 70, 0
5, 18900, Note_on_c, 0, 79, 64
5, 18960, Note_on_c, 0, 79, 0
5, 18960, Note_on_c, 0, 78, 64
5, 19020, Note_on_c, 0, 78, 0
5, 19020, Note_on_c, 0, 76, 64
5, 19080, Note_on_c, 0, 76, 0
5, 19080, Note_on_c, 0, 74, 64
5, 19140, Note_on_c, 0, 74, 0
5, 19140, Note_on_c, 0, 73, 64
5, 19170, Note_on_c, 0, 73, 0
5, 19170, Note_on_c, 0, 71, 64
5, 19200, Note_on_c, 0, 71, 0
5, 19200, Note_on_c, 0, 78, 64
5, 19440, Note_on_c, 0, 78, 0
5, 19440, Note_on_c, 0, 77, 64
5, 19560, Note_on_c, 0, 77, 0
5, 19560, Note_on_c, 0, 78, 64
5, 19680, Note_on_c, 0, 78, 0
5, 19740, Note_on_c, 0, 76, 64
5, 19800, Note_on_c, 0, 76, 0
5, 19800, Note_on_c, 0, 74, 64
5, 19860, Note_on_c, 0, 74, 0
5, 19860, Note_on_c, 0, 73, 64
5, 19920, Note_on_c, 0, 73, 0
5, 19920, Note_on_c, 0, 71, 64
5, 20160, Note_on_c, 0, 71, 0
5, 20160, Note_on_c, 0, 69, 64
5, 20220, Note_on_c, 0, 69, 0
5, 20220, Note_on_c, 0, 68, 64
5, 20280, Note_on_c, 0, 68, 0
5, 20280, Note_on_c, 0, 66, 64
5, 20340, Note_on_c, 0, 66, 0
5, 20340, Note_on_c, 0, 68, 64
5, 20400, Note_on_c, 0, 68, 0
5, 20400, Note_on_c, 0, 69, 64
5, 20460, Note_on_c, 0, 69, 0
5, 20460, Note_on_c, 0, 66, 64
5, 20520, Note_on_c, 0, 66, 0
5, 20520, Note_on_c, 0, 75, 64
5, 20535, Note_on_c, 0, 75, 0
5, 20535, Note_on_c, 0, 76, 64
5, 20550, Note_on_c, 0, 76, 0
5, 20550, Note_on_c, 0, 75, 64
5, 20565, Note_on_c, 0, 75, 0
5, 20565, Note_on_c, 0, 76, 64
5, 20580, Note_on_c, 0, 76, 0
5, 20580, Note_on_c, 0, 75, 64
5, 20595, Note_on_c, 0, 75, 0
5, 20595, Note_on_c, 0, 76, 64
5, 20610, Note_on_c, 0, 76, 0
5, 20610, Note_on_c, 0, 75, 64
5, 20625, Note_on_c, 0, 75, 0
5, 20625, Note_on_c, 0, 76, 64
5, 20640, Note_on_c, 0, 76, 0
5, 20640, Note_on_c, 0, 75, 64
5, 20655, Note_on_c, 0, 75, 0
5, 20655, Note_on_c, 0, 76, 64
5, 20670, Note_on_c, 0, 76, 0
5, 20670, Note_on_c, 0, 75, 64
5, 20685, Note_on_c, 0, 75, 0
5, 20685, Note_on_c, 0, 76, 64
5, 20700, Note_on_c, 0, 76, 0
5, 20700, Note_on_c, 0, 75, 64
5, 20711, Note_on_c, 0, 75, 0
5, 20711, Note_on_c, 0, 76, 64
5, 20724, Note_on_c, 0, 76, 0
5, 20724, Note_on_c, 0, 75, 64
5, 20735, Note_on_c, 0, 75, 0
5, 20735, Note_on_c, 0, 73, 64
5, 20748, Note_on_c, 0, 73, 0
5, 20748, Note_on_c, 0, 75, 64
5, 20760, Note_on_c, 0, 75, 0
5, 20760, Note_on_c, 0, 76, 64
5, 20880, Note_on_c, 0, 76, 0
5, 20940, Note_on_c, 0, 64, 64
5, 21000, Note_on_c, 0, 64, 0
5, 21000, Note_on_c, 0, 73, 64
5, 21180, Note_on_c, 0, 73, 0
5, 21180, Note_on_c, 0, 71, 64
5, 21210, Note_on_c, 0, 71, 0
5, 21210, Note_on_c, 0, 73, 64
5, 21240, Note_on_c, 0, 73, 0
5, 21240, Note_on_c, 0, 74, 64
5, 21300, Note_on_c, 0, 74, 0
5, 21300, Note_on_c, 0, 69, 66
5, 21360, Note_on_c, 0, 69, 0
5, 21360, Note_on_c, 0, 78, 68
5, 21600, Note_on_c, 0, 78, 0
5, 21600, Note_on_c, 0, 76, 76
5, 21660, Note_on_c, 0, 76, 0
5, 21660, Note_on_c, 0, 74, 78
5, 21720, Note_on_c, 0, 74, 0
5, 21720, Note_on_c, 0, 73, 80
5, 21780, Note_on_c, 0, 73, 0
5, 21780, Note_on_c, 0, 74, 80
5, 21840, Note_on_c, 0, 74, 0
5, 21840, Note_on_c, 0, 76, 80
5, 22020, Note_on_c, 0, 76, 0
5, 22020, Note_on_c, 0, 74, 80
5, 22050, Note_on_c, 0, 74, 0
5, 22050, Note_on_c, 0, 73, 80
5, 22080, Note_on_c, 0, 73, 0
5, 22080, Note_on_c, 0, 74, 80
5, 22140, Note_on_c, 0, 74, 0
5, 22140, Note_on_c, 0, 76, 80
5, 22170, Note_on_c, 0, 76, 0
5, 22170, Note_on_c, 0, 78, 80
5, 22200, Note_on_c, 0, 78, 0
5, 22200, Note_on_c, 0, 76, 80
5, 22380, Note_on_c, 0, 76, 0
5, 22380, Note_on_c, 0, 78, 80
5, 22410, Note_on_c, 0, 78, 0
5, 22410, Note_on_c, 0, 79, 80
5, 22440, Note_on_c, 0, 79, 0
5, 22440, Note_on_c, 0, 78, 80
5, 22500, Note_on_c, 0, 78, 0
5, 22500, Note_on_c, 0, 76, 80
5, 22560, Note_on_c, 0, 76, 0
5, 22560, Note_on_c, 0, 75, 80
5, 22620, Note_on_c, 0, 75, 0
5, 22620, Note_on_c, 0, 76, 80
5, 22650, Note_on_c, 0, 76, 0
5, 22650, Note_on_c, 0, 78, 80
5, 22680, Note_on_c, 0, 78, 0
5, 22680, Note_on_c, 0, 79, 80
5, 22740, Note_on_c, 0, 79, 0
5, 22740, Note_on_c, 0, 78, 80
5, 22800, Note_on_c, 0, 78, 0
5, 22800, Note_on_c, 0, 76, 80
5, 22860, Note_on_c, 0, 76, 0
5, 22860, Note_on_c, 0, 74, 80
5, 22920, Note_on_c, 0, 74, 0
5, 22920, Note_on_c, 0, 73, 80
5, 22980, Note_on_c, 0, 73, 0
5, 22980, Note_on_c, 0, 71, 80
5, 23040, Note_on_c, 0, 71, 0
5, 23040, Note_on_c, 0, 70, 80
5, 23100, Note_on_c, 0, 70, 0
5, 23100, Note_on_c, 0, 71, 80
5, 23130, Note_on_c, 0, 71, 0
5, 23130, Note_on_c, 0, 73, 80
5, 23160, Note_on_c, 0, 73, 0
5, 23160, Note_on_c, 0, 74, 80
5, 23340, Note_on_c, 0, 74, 0
5, 23340, Note_on_c, 0, 73, 80
5, 23370, Note_on_c, 0, 73, 0
5, 23370, Note_on_c, 0, 74, 80
5, 23400, Note_on_c, 0, 74, 0
5, 23400, Note_on_c, 0, 71, 80
5, 23460, Note_on_c, 0, 71, 0
5, 23460, Note_on_c, 0, 69, 80
5, 23490, Note_on_c, 0, 69, 0
5, 23490, Note_on_c, 0, 71, 80
5, 23520, Note_on_c, 0, 71, 0
5, 23520, Note_on_c, 0, 73, 80
5, 23640, Note_on_c, 0, 73, 0
5, 23640, Note_on_c, 0, 66, 80
5, 23760, Note_on_c, 0, 66, 0
5, 24360, Note_on_c, 0, 73, 80
5, 24450, Note_on_c, 0, 73, 0
5, 24450, Note_on_c, 0, 73, 80
5, 24480, Note_on_c, 0, 73, 0
5, 24480, Note_on_c, 0, 73, 80
5, 24515, Note_on_c, 0, 73, 0
5, 24540, Note_on_c, 0, 73, 80
5, 24600, Note_on_c, 0, 73, 0
5, 24600, Note_on_c, 0, 75, 80
5, 24660, Note_on_c, 0, 75, 0
5, 24660, Note_on_c, 0, 69, 80
5, 24720, Note_on_c, 0, 69, 0
5, 24720, Note_on_c, 0, 68, 80
5, 24755, Note_on_c, 0, 68, 0
5, 24780, Note_on_c, 0, 75, 80
5, 24840, Note_on_c, 0, 75, 0
5, 24840, Note_on_c, 0, 76, 80
5, 24900, Note_on_c, 0, 76, 0
5, 24900, Note_on_c, 0, 69, 80
5, 24960, Note_on_c, 0, 69, 0
5, 24960, Note_on_c, 0, 68, 80
5, 24995, Note_on_c, 0, 68, 0
5, 25020, Note_on_c, 0, 77, 80
5, 25080, Note_on_c, 0, 77, 0
5, 25080, Note_on_c, 0, 78, 80
5, 25110, Note_on_c, 0, 78, 0
5, 25110, Note_on_c, 0, 76, 80
5, 25140, Note_on_c, 0, 76, 0
5, 25140, Note_on_c, 0, 74, 80
5, 25230, Note_on_c, 0, 74, 0
5, 25230, Note_on_c, 0, 73, 80
5, 25260, Note_on_c, 0, 73, 0
5, 25260, Note_on_c, 0, 72, 80
5, 25290, Note_on_c, 0, 72, 0
5, 25290, Note_on_c, 0, 73, 80
5, 25320, Note_on_c, 0, 73, 0
5, 25320, Note_on_c, 0, 72, 80
5, 25355, Note_on_c, 0, 72, 0
5, 25380, Note_on_c, 0, 81, 80
5, 25440, Note_on_c, 0, 81, 0
5, 25440, Note_on_c, 0, 80, 80
5, 25500, Note_on_c, 0, 80, 0
5, 25500, Note_on_c, 0, 78, 80
5, 25560, Note_on_c, 0, 78, 0
5, 25560, Note_on_c, 0, 76, 80
5, 25620, Note_on_c, 0, 76, 0
5, 25620, Note_on_c, 0, 75, 80
5, 25650, Note_on_c, 0, 75, 0
5, 25650, Note_on_c, 0, 73, 80
5, 25680, Note_on_c, 0, 73, 0
5, 25680, Note_on_c, 0, 80, 80
5, 25860, Note_on_c, 0, 80, 0
5, 25860, Note_on_c, 0, 73, 80
5, 25920, Note_on_c, 0, 73, 0
5, 25920, Note_on_c, 0, 78, 80
5, 25980, Note_on_c, 0, 78, 0
5, 25980, Note_on_c, 0, 76, 80
5, 26040, Note_on_c, 0, 76, 0
5, 26040, Note_on_c, 0, 75, 80
5, 26340, Note_on_c, 0, 75, 0
5, 26340, Note_on_c, 0, 68, 80
5, 26400, Note_on_c, 0, 68, 0
5, 26400, Note_on_c, 0, 73, 80
5, 26460, Note_on_c, 0, 73, 0
5, 26460, Note_on_c, 0, 71, 80
5, 26520, Note_on_c, 0, 71, 0
5, 26520, Note_on_c, 0, 69, 80
5, 26640, Note_on_c, 0, 69, 0
5, 26700, Note_on_c, 0, 76, 80
5, 26760, Note_on_c, 0, 76, 0
5, 26760, Note_on_c, 0, 78, 80
5, 26880, Note_on_c, 0, 78, 0
5, 26880, Note_on_c, 0, 80, 80
5, 26940, Note_on_c, 0, 80, 0
5, 26940, Note_on_c, 0, 72, 80
5, 27000, Note_on_c, 0, 72, 0
5, 27000, Note_on_c, 0, 73, 80
5, 27120, Note_on_c, 0, 73, 0
5, 27180, Note_on_c, 0, 73, 80
5, 27300, Note_on_c, 0, 73, 0
5, 27300, Note_on_c, 0, 72, 80
5, 27360, Note_on_c, 0, 72, 0
5, 27360, Note_on_c, 0, 72, 80
5, 27420, Note_on_c, 0, 72, 0
5, 27420, Note_on_c, 0, 73, 80
5, 27480, Note_on_c, 0, 73, 0
5, 27480, Note_on_c, 0, 75, 80
5, 27540, Note_on_c, 0, 75, 0
5, 27540, Note_on_c, 0, 78, 80
5, 27600, Note_on_c, 0, 78, 0
5, 27600, Note_on_c, 0, 76, 80
5, 27660, Note_on_c, 0, 76, 0
5, 27660, Note_on_c, 0, 75, 80
5, 27720, Note_on_c, 0, 75, 0
5, 27720, Note_on_c, 0, 73, 80
5, 27840, Note_on_c, 0, 73, 0
5, 27840, Note_on_c, 0, 72, 80
5, 27960, Note_on_c, 0, 72, 0
5, 27960, Note_on_c, 0, 73, 80
5, 28080, Note_on_c, 0, 73, 0
5, 28140, Note_on_c, 0, 71, 45
5, 28200, Note_on_c, 0, 71, 0
5, 28200, Note_on_c, 0, 70, 45
5, 28260, Note_on_c, 0, 70, 0
5, 28260, Note_on_c, 0, 76, 45
5, 28380, Note_on_c, 0, 76, 0
5, 28380, Note_on_c, 0, 74, 45
5, 28410, Note_on_c, 0, 74, 0
5, 28410, Note_on_c, 0, 73, 45
5, 28440, Note_on_c, 0, 73, 0
5, 28440, Note_on_c, 0, 74, 45
5, 28470, Note_on_c, 0, 74, 0
5, 28470, Note_on_c, 0, 76, 46
5, 28500, Note_on_c, 0, 76, 0
5, 28500, Note_on_c, 0, 78, 47
5, 28560, Note_on_c, 0, 78, 0
5, 28560, Note_on_c, 0, 71, 48
5, 28680, Note_on_c, 0, 71, 0
5, 29100, Note_on_c, 0, 73, 64
5, 29160, Note_on_c, 0, 73, 0
5, 29160, Note_on_c, 0, 72, 66
5, 29220, Note_on_c, 0, 72, 0
5, 29220, Note_on_c, 0, 78, 67
5, 29340, Note_on_c, 0, 78, 0
5, 29340, Note_on_c, 0, 76, 71
5, 29370, Note_on_c, 0, 76, 0
5, 29370, Note_on_c, 0, 75, 71
5, 29400, Note_on_c, 0, 75, 0
5, 29400, Note_on_c, 0, 76, 72
5, 29700, Note_on_c, 0, 76, 0
5, 29700, Note_on_c, 0, 67, 81
5, 29760, Note_on_c, 0, 67, 0
5, 29760, Note_on_c, 0, 66, 83
5, 29795, Note_on_c, 0, 66, 0
5, 29820, Note_on_c, 0, 76, 84
5, 29855, Note_on_c, 0, 76, 0
5, 29880, Note_on_c, 0, 75, 104
5, 29940, Note_on_c, 0, 75, 0
5, 29940, Note_on_c, 0, 69, 85
5, 30000, Note_on_c, 0, 69, 0
5, 30000, Note_on_c, 0, 68, 85
5, 30035, Note_on_c, 0, 68, 0
5, 30060, Note_on_c, 0, 77, 85
5, 30095, Note_on_c, 0, 77, 0
5, 30120, Note_on_c, 0, 78, 104
5, 30180, Note_on_c, 0, 78, 0
5, 30180, Note_on_c, 0, 73, 85
5, 30240, Note_on_c, 0, 73, 0
5, 30240, Note_on_c, 0, 72, 85
5, 30275, Note_on_c, 0, 72, 0
5, 30300, Note_on_c, 0, 78, 85
5, 30335, Note_on_c, 0, 78, 0
5, 30360, Note_on_c, 0, 77, 104
5, 30420, Note_on_c, 0, 77, 0
5, 30420, Note_on_c, 0, 71, 85
5, 30480, Note_on_c, 0, 71, 0
5, 30480, Note_on_c, 0, 70, 85
5, 30515, Note_on_c, 0, 70, 0
5, 30540, Note_on_c, 0, 76, 85
5, 30575, Note_on_c, 0, 76, 0
5, 30600, Note_on_c, 0, 75, 104
5, 30660, Note_on_c, 0, 75, 0
5, 30660, Note_on_c, 0, 69, 85
5, 30720, Note_on_c, 0, 69, 0
5, 30720, Note_on_c, 0, 68, 85
5, 30755, Note_on_c, 0, 68, 0
5, 30780, Note_on_c, 0, 74, 85
5, 30815, Note_on_c, 0, 74, 0
5, 30840, Note_on_c, 0, 73, 97
5, 30900, Note_on_c, 0, 73, 0
5, 30900, Note_on_c, 0, 65, 74
5, 30960, Note_on_c, 0, 65, 0
5, 30960, Note_on_c, 0, 66, 71
5, 30995, Note_on_c, 0, 66, 0
5, 31020, Note_on_c, 0, 69, 67
5, 31055, Note_on_c, 0, 69, 0
5, 31080, Note_on_c, 0, 71, 83
5, 31140, Note_on_c, 0, 71, 0
5, 31140, Note_on_c, 0, 62, 60
5, 31200, Note_on_c, 0, 62, 0
5, 31200, Note_on_c, 0, 61, 57
5, 31235, Note_on_c, 0, 61, 0
5, 31260, Note_on_c, 0, 71, 53
5, 31295, Note_on_c, 0, 71, 0
5, 31320, Note_on_c, 0, 69, 50
5, 31500, Note_on_c, 0, 69, 0
5, 31500, Note_on_c, 0, 71, 53
5, 31530, Note_on_c, 0, 71, 0
5, 31530, Note_on_c, 0, 73, 53
5, 31560, Note_on_c, 0, 73, 0
5, 31560, Note_on_c, 0, 71, 54
5, 31740, Note_on_c, 0, 71, 0
5, 31740, Note_on_c, 0, 73, 56
5, 31770, Note_on_c, 0, 73, 0
5, 31770, Note_on_c, 0, 74, 57
5, 31800, Note_on_c, 0, 74, 0
5, 31800, Note_on_c, 0, 73, 57
5, 31980, Note_on_c, 0, 73, 0
5, 31980, Note_on_c, 0, 74, 60
5, 32010, Note_on_c, 0, 74, 0
5, 32010, Note_on_c, 0, 76, 60
5, 32040, Note_on_c, 0, 76, 0
5, 32040, Note_on_c, 0, 74, 61
5, 32340, Note_on_c, 0, 74, 0
5, 32340, Note_on_c, 0, 68, 64
5, 32400, Note_on_c, 0, 68, 0
5, 32400, Note_on_c, 0, 73, 64
5, 32460, Note_on_c, 0, 73, 0
5, 32460, Note_on_c, 0, 71, 64
5, 32520, Note_on_c, 0, 71, 0
5, 32520, Note_on_c, 0, 69, 64
5, 32580, Note_on_c, 0, 69, 0
5, 32580, Note_on_c, 0, 68, 64
5, 32610, Note_on_c, 0, 68, 0
5, 32610, Note_on_c, 0, 66, 64
5, 32640, Note_on_c, 0, 66, 0
5, 32640, Note_on_c, 0, 73, 64
5, 32820, Note_on_c, 0, 73, 0
5, 32820, Note_on_c, 0, 66, 64
5, 32880, Note_on_c, 0, 66, 0
5, 32880, Note_on_c, 0, 71, 64
5, 32940, Note_on_c, 0, 71, 0
5, 32940, Note_on_c, 0, 69, 64
5, 33000, Note_on_c, 0, 69, 0
5, 33000, Note_on_c, 0, 68, 64
5, 33300, Note_on_c, 0, 68, 0
5, 33300, Note_on_c, 0, 61, 64
5, 33360, Note_on_c, 0, 61, 0
5, 33360, Note_on_c, 0, 66, 64
5, 33420, Note_on_c, 0, 66, 0
5, 33420, Note_on_c, 0, 64, 64
5, 33480, Note_on_c, 0, 64, 0
5, 33480, Note_on_c, 0, 62, 64
5, 33600, Note_on_c, 0, 62, 0
5, 33600, Note_on_c, 0, 61, 64
5, 33720, Note_on_c, 0, 61, 0
5, 33720, Note_on_c, 0, 59, 64
5, 33755, Note_on_c, 0, 59, 0
5, 33780, Note_on_c, 0, 68, 65
5, 33840, Note_on_c, 0, 68, 0
5, 33840, Note_on_c, 0, 69, 65
5, 33900, Note_on_c, 0, 69, 0
5, 33900, Note_on_c, 0, 71, 66
5, 33960, Note_on_c, 0, 71, 0
5, 33960, Note_on_c, 0, 73, 67
5, 33995, Note_on_c, 0, 73, 0
5, 34020, Note_on_c, 0, 65, 67
5, 34080, Note_on_c, 0, 65, 0
5, 34080, Note_on_c, 0, 66, 68
5, 34115, Note_on_c, 0, 66, 0
5, 34140, Note_on_c, 0, 74, 69
5, 34200, Note_on_c, 0, 74, 0
5, 34200, Note_on_c, 0, 69, 69
5, 34260, Note_on_c, 0, 69, 0
5, 34260, Note_on_c, 0, 68, 70
5, 34380, Note_on_c, 0, 68, 0
5, 34380, Note_on_c, 0, 69, 71
5, 34440, Note_on_c, 0, 69, 0
5, 34440, Note_on_c, 0, 71, 72
5, 34475, Note_on_c, 0, 71, 0
5, 34500, Note_on_c, 0, 74, 73
5, 34560, Note_on_c, 0, 74, 0
5, 34560, Note_on_c, 0, 73, 73
5, 34620, Note_on_c, 0, 73, 0
5, 34620, Note_on_c, 0, 71, 74
5, 34680, Note_on_c, 0, 71, 0
5, 34680, Note_on_c, 0, 69, 75
5, 34800, Note_on_c, 0, 69, 0
5, 34800, Note_on_c, 0, 68, 76
5, 34920, Note_on_c, 0, 68, 0
5, 34920, Note_on_c, 0, 66, 77
5, 35040, Note_on_c, 0, 66, 0
5, 43560, Note_on_c, 0, 66, 64
5, 43650, Note_on_c, 0, 66, 0
5, 43650, Note_on_c, 0, 66, 64
5, 43680, Note_on_c, 0, 66, 0
5, 43680, Note_on_c, 0, 66, 64
5, 43715, Note_on_c, 0, 66, 0
5, 43740, Note_on_c, 0, 66, 64
5, 43800, Note_on_c, 0, 66, 0
5, 43800, Note_on_c, 0, 68, 64
5, 43860, Note_on_c, 0, 68, 0
5, 43860, Note_on_c, 0, 62, 64
5, 43920, Note_on_c, 0, 62, 0
5, 43920, Note_on_c, 0, 61, 64
5, 43955, Note_on_c, 0, 61, 0
5, 43980, Note_on_c, 0, 68, 64
5, 44040, Note_on_c, 0, 68, 0
5, 44040, Note_on_c, 0, 69, 64
5, 44100, Note_on_c, 0, 69, 0
5, 44100, Note_on_c, 0, 62, 64
5, 44160, Note_on_c, 0, 62, 0
5, 44160, Note_on_c, 0, 61, 64
5, 44195, Note_on_c, 0, 61, 0
5, 44220, Note_on_c, 0, 70, 64
5, 44280, Note_on_c, 0, 70, 0
5, 44280, Note_on_c, 0, 71, 64
5, 44310, Note_on_c, 0, 71, 0
5, 44310, Note_on_c, 0, 69, 64
5, 44340, Note_on_c, 0, 69, 0
5, 44340, Note_on_c, 0, 67, 64
5, 44430, Note_on_c, 0, 67, 0
5, 44430, Note_on_c, 0, 66, 64
5, 44460, Note_on_c, 0, 66, 0
5, 44460, Note_on_c, 0, 65, 64
5, 44490, Note_on_c, 0, 65, 0
5, 44490, Note_on_c, 0, 66, 64
5, 44520, Note_on_c, 0, 66, 0
5, 44520, Note_on_c, 0, 65, 64
5, 44555, Note_on_c, 0, 65, 0
5, 44580, Note_on_c, 0, 74, 64
5, 44640, Note_on_c, 0, 74, 0
5, 44640, Note_on_c, 0, 73, 64
5, 44700, Note_on_c, 0, 73, 0
5, 44700, Note_on_c, 0, 71, 64
5, 44760, Note_on_c, 0, 71, 0
5, 44760, Note_on_c, 0, 69, 64
5, 44820, Note_on_c, 0, 69, 0
5, 44820, Note_on_c, 0, 68, 64
5, 44850, Note_on_c, 0, 68, 0
5, 44850, Note_on_c, 0, 66, 64
5, 44880, Note_on_c, 0, 66, 0
5, 44880, Note_on_c, 0, 74, 64
5, 45060, Note_on_c, 0, 74, 0
5, 45060, Note_on_c, 0, 69, 64
5, 45120, Note_on_c, 0, 69, 0
5, 45120, Note_on_c, 0, 68, 64
5, 45155, Note_on_c, 0, 68, 0
5, 45180, Note_on_c, 0, 74, 64
5, 45240, Note_on_c, 0, 74, 0
5, 45240, Note_on_c, 0, 73, 64
5, 45300, Note_on_c, 0, 73, 0
5, 45300, Note_on_c, 0, 71, 64
5, 45330, Note_on_c, 0, 71, 0
5, 45330, Note_on_c, 0, 69, 64
5, 45360, Note_on_c, 0, 69, 0
5, 45360, Note_on_c, 0, 76, 64
5, 45540, Note_on_c, 0, 76, 0
5, 45540, Note_on_c, 0, 71, 64
5, 45600, Note_on_c, 0, 71, 0
5, 45600, Note_on_c, 0, 70, 64
5, 45635, Note_on_c, 0, 70, 0
5, 45660, Note_on_c, 0, 76, 64
5, 45720, Note_on_c, 0, 76, 0
5, 45720, Note_on_c, 0, 74, 64
5, 45780, Note_on_c, 0, 74, 0
5, 45780, Note_on_c, 0, 73, 64
5, 45840, Note_on_c, 0, 73, 0
5, 45840, Note_on_c, 0, 71, 64
5, 45900, Note_on_c, 0, 71, 0
5, 45900, Note_on_c, 0, 69, 64
5, 45960, Note_on_c, 0, 69, 0
5, 45960, Note_on_c, 0, 68, 64
5, 46020, Note_on_c, 0, 68, 0
5, 46020, Note_on_c, 0, 69, 64
5, 46050, Note_on_c, 0, 69, 0
5, 46050, Note_on_c, 0, 71, 64
5, 46080, Note_on_c, 0, 71, 0
5, 46080, Note_on_c, 0, 73, 64
5, 46260, Note_on_c, 0, 73, 0
5, 46260, Note_on_c, 0, 71, 64
5, 46320, Note_on_c, 0, 71, 0
5, 46320, Note_on_c, 0, 69, 64
5, 46380, Note_on_c, 0, 69, 0
5, 46380, Note_on_c, 0, 67, 64
5, 46440, Note_on_c, 0, 67, 0
5, 46440, Note_on_c, 0, 66, 64
5, 46500, Note_on_c, 0, 66, 0
5, 46500, Note_on_c, 0, 67, 64
5, 46530, Note_on_c, 0, 67, 0
5, 46530, Note_on_c, 0, 69, 64
5, 46560, Note_on_c, 0, 69, 0
5, 46560, Note_on_c, 0, 71, 64
5, 46680, Note_on_c, 0, 71, 0
5, 46680, Note_on_c, 0, 64, 64
5, 46740, Note_on_c, 0, 64, 0
5, 46740, Note_on_c, 0, 71, 64
5, 46800, Note_on_c, 0, 71, 0
5, 46800, Note_on_c, 0, 76, 64
5, 47040, Note_on_c, 0, 76, 0
5, 47040, Note_on_c, 0, 75, 64
5, 47160, Note_on_c, 0, 75, 0
5, 47160, Note_on_c, 0, 76, 64
5, 47220, Note_on_c, 0, 76, 0
5, 47220, Note_on_c, 0, 69, 64
5, 47280, Note_on_c, 0, 69, 0
5, 47280, Note_on_c, 0, 68, 64
5, 47315, Note_on_c, 0, 68, 0
5, 47340, Note_on_c, 0, 64, 64
5, 47400, Note_on_c, 0, 64, 0
5, 47400, Note_on_c, 0, 69, 64
5, 47760, Note_on_c, 0, 69, 0
5, 47760, Note_on_c, 0, 67, 64
5, 47820, Note_on_c, 0, 67, 0
5, 47820, Note_on_c, 0, 66, 64
5, 47880, Note_on_c, 0, 66, 0
5, 47880, Note_on_c, 0, 64, 64
5, 47940, Note_on_c, 0, 64, 0
5, 47940, Note_on_c, 0, 66, 64
5, 48000, Note_on_c, 0, 66, 0
5, 48000, Note_on_c, 0, 68, 64
5, 48060, Note_on_c, 0, 68, 0
5, 48060, Note_on_c, 0, 69, 64
5, 48120, Note_on_c, 0, 69, 0
5, 48120, Note_on_c, 0, 71, 64
5, 48180, Note_on_c, 0, 71, 0
5, 48180, Note_on_c, 0, 73, 64
5, 48240, Note_on_c, 0, 73, 0
5, 48240, Note_on_c, 0, 74, 64
5, 48300, Note_on_c, 0, 74, 0
5, 48300, Note_on_c, 0, 68, 64
5, 48360, Note_on_c, 0, 68, 0
5, 48360, Note_on_c, 0, 69, 64
5, 48480, Note_on_c, 0, 69, 0
5, 48540, Note_on_c, 0, 71, 64
5, 48600, Note_on_c, 0, 71, 0
5, 48600, Note_on_c, 0, 73, 64
5, 48660, Note_on_c, 0, 73, 0
5, 48660, Note_on_c, 0, 74, 64
5, 48720, Note_on_c, 0, 74, 0
5, 48720, Note_on_c, 0, 76, 64
5, 48780, Note_on_c, 0, 76, 0
5, 48780, Note_on_c, 0, 70, 64
5, 48840, Note_on_c, 0, 70, 0
5, 48840, Note_on_c, 0, 71, 64
5, 48960, Note_on_c, 0, 71, 0
5, 49080, Note_on_c, 0, 71, 75
5, 49170, Note_on_c, 0, 71, 0
5, 49170, Note_on_c, 0, 71, 75
5, 49200, Note_on_c, 0, 71, 0
5, 49200, Note_on_c, 0, 71, 75
5, 49235, Note_on_c, 0, 71, 0
5, 49260, Note_on_c, 0, 71, 75
5, 49320, Note_on_c, 0, 71, 0
5, 49320, Note_on_c, 0, 73, 75
5, 49380, Note_on_c, 0, 73, 0
5, 49380, Note_on_c, 0, 67, 75
5, 49440, Note_on_c, 0, 67, 0
5, 49440, Note_on_c, 0, 66, 75
5, 49475, Note_on_c, 0, 66, 0
5, 49500, Note_on_c, 0, 73, 75
5, 49560, Note_on_c, 0, 73, 0
5, 49560, Note_on_c, 0, 74, 75
5, 49620, Note_on_c, 0, 74, 0
5, 49620, Note_on_c, 0, 67, 75
5, 49680, Note_on_c, 0, 67, 0
5, 49680, Note_on_c, 0, 66, 75
5, 49715, Note_on_c, 0, 66, 0
5, 49740, Note_on_c, 0, 75, 75
5, 49800, Note_on_c, 0, 75, 0
5, 49800, Note_on_c, 0, 76, 75
5, 49830, Note_on_c, 0, 76, 0
5, 49830, Note_on_c, 0, 74, 75
5, 49860, Note_on_c, 0, 74, 0
5, 49860, Note_on_c, 0, 72, 75
5, 49950, Note_on_c, 0, 72, 0
5, 49950, Note_on_c, 0, 71, 75
5, 49980, Note_on_c, 0, 71, 0
5, 49980, Note_on_c, 0, 70, 75
5, 50010, Note_on_c, 0, 70, 0
5, 50010, Note_on_c, 0, 71, 75
5, 50040, Note_on_c, 0, 71, 0
5, 50040, Note_on_c, 0, 70, 75
5, 50075, Note_on_c, 0, 70, 0
5, 50100, Note_on_c, 0, 79, 75
5, 50160, Note_on_c, 0, 79, 0
5, 50160, Note_on_c, 0, 78, 75
5, 50220, Note_on_c, 0, 78, 0
5, 50220, Note_on_c, 0, 76, 75
5, 50280, Note_on_c, 0, 76, 0
5, 50280, Note_on_c, 0, 74, 75
5, 50340, Note_on_c, 0, 74, 0
5, 50340, Note_on_c, 0, 73, 75
5, 50370, Note_on_c, 0, 73, 0
5, 50370, Note_on_c, 0, 71, 75
5, 50400, Note_on_c, 0, 71, 0
5, 50400, Note_on_c, 0, 78, 75
5, 50640, Note_on_c, 0, 78, 0
5, 50640, Note_on_c, 0, 77, 75
5, 50760, Note_on_c, 0, 77, 0
5, 50760, Note_on_c, 0, 78, 75
5, 50880, Note_on_c, 0, 78, 0
5, 50880, Note_on_c, 0, 78, 75
5, 51060, Note_on_c, 0, 78, 0
5, 51060, Note_on_c, 0, 76, 75
5, 51120, Note_on_c, 0, 76, 0
5, 51120, Note_on_c, 0, 74, 75
5, 51180, Note_on_c, 0, 74, 0
5, 51180, Note_on_c, 0, 73, 75
5, 51240, Note_on_c, 0, 73, 0
5, 51240, Note_on_c, 0, 71, 75
5, 51360, Note_on_c, 0, 71, 0
5, 51360, Note_on_c, 0, 80, 75
5, 51540, Note_on_c, 0, 80, 0
5, 51540, Note_on_c, 0, 73, 75
5, 51600, Note_on_c, 0, 73, 0
5, 51600, Note_on_c, 0, 78, 75
5, 51660, Note_on_c, 0, 78, 0
5, 51660, Note_on_c, 0, 76, 75
5, 51720, Note_on_c, 0, 76, 0
5, 51720, Note_on_c, 0, 74, 75
5, 52020, Note_on_c, 0, 74, 0
5, 52020, Note_on_c, 0, 68, 75
5, 52080, Note_on_c, 0, 68, 0
5, 52080, Note_on_c, 0, 73, 75
5, 52140, Note_on_c, 0, 73, 0
5, 52140, Note_on_c, 0, 71, 75
5, 52200, Note_on_c, 0, 71, 0
5, 52200, Note_on_c, 0, 69, 75
5, 52320, Note_on_c, 0, 69, 0
5, 52500, Note_on_c, 0, 77, 75
5, 52560, Note_on_c, 0, 77, 0
5, 52560, Note_on_c, 0, 78, 75
5, 52595, Note_on_c, 0, 78, 0
5, 52620, Note_on_c, 0, 69, 75
5, 52680, Note_on_c, 0, 69, 0
5, 52680, Note_on_c, 0, 68, 75
5, 52715, Note_on_c, 0, 68, 0
5, 52740, Note_on_c, 0, 77, 75
5, 52800, Note_on_c, 0, 77, 0
5, 52800, Note_on_c, 0, 78, 75
5, 52860, Note_on_c, 0, 78, 0
5, 52860, Note_on_c, 0, 80, 75
5, 52920, Note_on_c, 0, 80, 0
5, 52920, Note_on_c, 0, 73, 75
5, 52955, Note_on_c, 0, 73, 0
5, 52980, Note_on_c, 0, 65, 75
5, 53040, Note_on_c, 0, 65, 0
5, 53040, Note_on_c, 0, 66, 76
5, 53075, Note_on_c, 0, 66, 0
5, 53100, Note_on_c, 0, 74, 76
5, 53160, Note_on_c, 0, 74, 0
5, 53160, Note_on_c, 0, 69, 77
5, 53220, Note_on_c, 0, 69, 0
5, 53220, Note_on_c, 0, 68, 77
5, 53340, Note_on_c, 0, 68, 0
5, 53340, Note_on_c, 0, 69, 78
5, 53400, Note_on_c, 0, 69, 0
5, 53400, Note_on_c, 0, 71, 79
5, 53460, Note_on_c, 0, 71, 0
5, 53460, Note_on_c, 0, 74, 79
5, 53520, Note_on_c, 0, 74, 0
5, 53520, Note_on_c, 0, 73, 79
5, 53580, Note_on_c, 0, 73, 0
5, 53580, Note_on_c, 0, 71, 80
5, 53640, Note_on_c, 0, 71, 0
5, 53640, Note_on_c, 0, 69, 80
5, 53760, Note_on_c, 0, 69, 0
5, 53760, Note_on_c, 0, 68, 81
5, 53880, Note_on_c, 0, 68, 0
5, 53880, Note_on_c, 0, 66, 82
5, 54000, Note_on_c, 0, 66, 0
5, 54540, Note_on_c, 0, 71, 46
5, 54600, Note_on_c, 0, 71, 0
5, 54600, Note_on_c, 0, 70, 48
5, 54660, Note_on_c, 0, 70, 0
5, 54660, Note_on_c, 0, 76, 49
5, 54780, Note_on_c, 0, 76, 0
5, 54780, Note_on_c, 0, 74, 53
5, 54810, Note_on_c, 0, 74, 0
5, 54810, Note_on_c, 0, 73, 54
5, 54840, Note_on_c, 0, 73, 0
5, 54840, Note_on_c, 0, 74, 55
5, 54870, Note_on_c, 0, 74, 0
5, 54870, Note_on_c, 0, 76, 56
5, 54900, Note_on_c, 0, 76, 0
5, 54900, Note_on_c, 0, 78, 57
5, 54960, Note_on_c, 0, 78, 0
5, 54960, Note_on_c, 0, 71, 59
5, 55080, Note_on_c, 0, 71, 0
5, 55500, Note_on_c, 0, 64, 76
5, 55560, Note_on_c, 0, 64, 0
5, 55560, Note_on_c, 0, 63, 78
5, 55620, Note_on_c, 0, 63, 0
5, 55620, Note_on_c, 0, 69, 79
5, 55740, Note_on_c, 0, 69, 0
5, 55740, Note_on_c, 0, 67, 83
5, 55770, Note_on_c, 0, 67, 0
5, 55770, Note_on_c, 0, 66, 84
5, 55800, Note_on_c, 0, 66, 0
5, 55800, Note_on_c, 0, 64, 104
5, 55860, Note_on_c, 0, 64, 0
5, 55860, Note_on_c, 0, 71, 85
5, 55920, Note_on_c, 0, 71, 0
5, 55920, Note_on_c, 0, 70, 85
5, 55955, Note_on_c, 0, 70, 0
5, 55980, Note_on_c, 0, 73, 85
5, 56015, Note_on_c, 0, 73, 0
5, 56040, Note_on_c, 0, 66, 104
5, 56100, Note_on_c, 0, 66, 0
5, 56100, Note_on_c, 0, 71, 85
5, 56160, Note_on_c, 0, 71, 0
5, 56160, Note_on_c, 0, 73, 85
5, 56195, Note_on_c, 0, 73, 0
5, 56220, Note_on_c, 0, 65, 85
5, 56255, Note_on_c, 0, 65, 0
5, 56280, Note_on_c, 0, 66, 104
5, 56340, Note_on_c, 0, 66, 0
5, 56340, Note_on_c, 0, 70, 85
5, 56400, Note_on_c, 0, 70, 0
5, 56400, Note_on_c, 0, 71, 85
5, 56435, Note_on_c, 0, 71, 0
5, 56460, Note_on_c, 0, 75, 85
5, 56495, Note_on_c, 0, 75, 0
5, 56520, Note_on_c, 0, 76, 104
5, 56580, Note_on_c, 0, 76, 0
5, 56580, Note_on_c, 0, 68, 85
5, 56640, Note_on_c, 0, 68, 0
5, 56640, Note_on_c, 0, 69, 85
5, 56675, Note_on_c, 0, 69, 0
5, 56700, Note_on_c, 0, 73, 85
5, 56735, Note_on_c, 0, 73, 0
5, 56760, Note_on_c, 0, 74, 85
5, 56820, Note_on_c, 0, 74, 0
5, 56820, Note_on_c, 0, 66, 85
5, 56880, Note_on_c, 0, 66, 0
5, 56880, Note_on_c, 0, 71, 85
5, 57120, Note_on_c, 0, 71, 0
5, 57120, Note_on_c, 0, 70, 85
5, 57180, Note_on_c, 0, 70, 0
5, 57180, Note_on_c, 0, 73, 85
5, 57240, Note_on_c, 0, 73, 0
5, 57240, Note_on_c, 0, 73, 85
5, 57300, Note_on_c, 0, 73, 0
5, 57300, Note_on_c, 0, 66, 85
5, 57360, Note_on_c, 0, 66, 0
5, 57360, Note_on_c, 0, 71, 85
5, 57600, Note_on_c, 0, 71, 0
5, 57600, Note_on_c, 0, 70, 85
5, 57635, Note_on_c, 0, 70, 0
5, 57660, Note_on_c, 0, 70, 85
5, 57720, Note_on_c, 0, 70, 0
5, 57720, Note_on_c, 0, 71, 85
5, 58020, Note_on_c, 0, 71, 0
5, 58020, Note_on_c, 0, 69, 85
5, 58080, Note_on_c, 0, 69, 0
5, 58080, Note_on_c, 0, 67, 85
5, 58140, Note_on_c, 0, 67, 0
5, 58140, Note_on_c, 0, 66, 85
5, 58200, Note_on_c, 0, 66, 0
5, 58200, Note_on_c, 0, 64, 85
5, 58260, Note_on_c, 0, 64, 0
5, 58260, Note_on_c, 0, 67, 85
5, 58320, Note_on_c, 0, 67, 0
5, 58320, Note_on_c, 0, 73, 85
5, 58500, Note_on_c, 0, 73, 0
5, 58500, Note_on_c, 0, 66, 85
5, 58560, Note_on_c, 0, 66, 0
5, 58560, Note_on_c, 0, 71, 85
5, 58620, Note_on_c, 0, 71, 0
5, 58620, Note_on_c, 0, 69, 85
5, 58680, Note_on_c, 0, 69, 0
5, 58680, Note_on_c, 0, 67, 85
5, 58980, Note_on_c, 0, 67, 0
5, 58980, Note_on_c, 0, 61, 85
5, 59040, Note_on_c, 0, 61, 0
5, 59040, Note_on_c, 0, 66, 85
5, 59100, Note_on_c, 0, 66, 0
5, 59100, Note_on_c, 0, 64, 85
5, 59160, Note_on_c, 0, 64, 0
5, 59160, Note_on_c, 0, 62, 85
5, 59460, Note_on_c, 0, 62, 0
5, 59460, Note_on_c, 0, 70, 85
5, 59520, Note_on_c, 0, 70, 0
5, 59520, Note_on_c, 0, 71, 85
5, 59555, Note_on_c, 0, 71, 0
5, 59580, Note_on_c, 0, 62, 85
5, 59640, Note_on_c, 0, 62, 0
5, 59640, Note_on_c, 0, 61, 85
5, 59675, Note_on_c, 0, 61, 0
5, 59700, Note_on_c, 0, 73, 86
5, 59760, Note_on_c, 0, 73, 0
5, 59760, Note_on_c, 0, 74, 86
5, 59820, Note_on_c, 0, 74, 0
5, 59820, Note_on_c, 0, 76, 87
5, 59880, Note_on_c, 0, 76, 0
5, 59880, Note_on_c, 0, 78, 88
5, 59915, Note_on_c, 0, 78, 0
5, 59940, Note_on_c, 0, 79, 88
5, 60000, Note_on_c, 0, 79, 0
5, 60000, Note_on_c, 0, 78, 89
5, 60060, Note_on_c, 0, 78, 0
5, 60060, Note_on_c, 0, 71, 89
5, 60120, Note_on_c, 0, 71, 0
5, 60120, Note_on_c, 0, 71, 90
5, 60180, Note_on_c, 0, 71, 0
5, 60180, Note_on_c, 0, 70, 91
5, 60300, Note_on_c, 0, 70, 0
5, 60300, Note_on_c, 0, 71, 92
5, 60360, Note_on_c, 0, 71, 0
5, 60360, Note_on_c, 0, 73, 93
5, 60420, Note_on_c, 0, 73, 0
5, 60420, Note_on_c, 0, 76, 93
5, 60480, Note_on_c, 0, 76, 0
5, 60480, Note_on_c, 0, 74, 94
5, 60540, Note_on_c, 0, 74, 0
5, 60540, Note_on_c, 0, 73, 94
5, 60600, Note_on_c, 0, 73, 0
5, 60600, Note_on_c, 0, 71, 95
5, 60720, Note_on_c, 0, 71, 0
5, 60720, Note_on_c, 0, 70, 96
5, 60840, Note_on_c, 0, 70, 0
5, 60840, Note_on_c, 0, 71, 98
5, 61200, Note_on_c, 0, 71, 0
5, 61560, End_track
6, 0, Start_track
6, 0, MIDI_port, 0
6, 0, Title_t, "Soprano II"
6, 0, Program_c, 1, 53
6, 480, Control_c, 1, 7, 127
6, 480, Note_on_c, 1, 71, 80
6, 660, Note_on_c, 1, 71, 0
6, 660, Note_on_c, 1, 71, 80
6, 720, Note_on_c, 1, 71, 0
6, 720, Note_on_c, 1, 71, 80
6, 780, Note_on_c, 1, 71, 0
6, 780, Note_on_c, 1, 70, 80
6, 840, Note_on_c, 1, 70, 0
6, 840, Note_on_c, 1, 73, 80
6, 900, Note_on_c, 1, 73, 0
6, 900, Note_on_c, 1, 76, 80
6, 960, Note_on_c, 1, 76, 0
6, 960, Control_c, 1, 7, 127
6, 960, Note_on_c, 1, 69, 80
6, 1020, Note_on_c, 1, 69, 0
6, 1020, Note_on_c, 1, 72, 80
6, 1140, Note_on_c, 1, 72, 0
6, 1140, Note_on_c, 1, 71, 80
6, 1200, Note_on_c, 1, 71, 0
6, 1200, Note_on_c, 1, 67, 80
6, 1320, Note_on_c, 1, 67, 0
6, 1440, Control_c, 1, 7, 127
6, 1500, Note_on_c, 1, 66, 80
6, 1560, Note_on_c, 1, 66, 0
6, 1560, Note_on_c, 1, 70, 80
6, 1620, Note_on_c, 1, 70, 0
6, 1620, Note_on_c, 1, 73, 80
6, 1680, Note_on_c, 1, 73, 0
6, 1680, Note_on_c, 1, 74, 80
6, 1740, Note_on_c, 1, 74, 0
6, 1740, Note_on_c, 1, 73, 80
6, 1770, Note_on_c, 1, 73, 0
6, 1770, Note_on_c, 1, 71, 80
6, 1800, Note_on_c, 1, 71, 0
6, 1800, Note_on_c, 1, 73, 80
6, 1860, Note_on_c, 1, 73, 0
6, 1860, Note_on_c, 1, 78, 80
6, 1920, Note_on_c, 1, 78, 0
6, 1920, Note_on_c, 1, 71, 80
6, 2100, Note_on_c, 1, 71, 0
6, 2100, Note_on_c, 1, 73, 84
6, 2160, Note_on_c, 1, 73, 0
6, 2160, Note_on_c, 1, 70, 85
6, 2400, Note_on_c, 1, 70, 0
6, 19080, Note_on_c, 1, 66, 64
6, 19170, Note_on_c, 1, 66, 0
6, 19170, Note_on_c, 1, 66, 64
6, 19200, Note_on_c, 1, 66, 0
6, 19200, Note_on_c, 1, 66, 64
6, 19235, Note_on_c, 1, 66, 0
6, 19260, Note_on_c, 1, 66, 64
6, 19320, Note_on_c, 1, 66, 0
6, 19320, Note_on_c, 1, 68, 64
6, 19380, Note_on_c, 1, 68, 0
6, 19380, Note_on_c, 1, 62, 64
6, 19440, Note_on_c, 1, 62, 0
6, 19440, Note_on_c, 1, 61, 64
6, 19475, Note_on_c, 1, 61, 0
6, 19500, Note_on_c, 1, 68, 64
6, 19560, Note_on_c, 1, 68, 0
6, 19560, Note_on_c, 1, 69, 64
6, 19620, Note_on_c, 1, 69, 0
6, 19620, Note_on_c, 1, 62, 64
6, 19680, Note_on_c, 1, 62, 0
6, 19680, Note_on_c, 1, 61, 64
6, 19715, Note_on_c, 1, 61, 0
6, 19740, Note_on_c, 1, 70, 64
6, 19800, Note_on_c, 1, 70, 0
6, 19800, Note_on_c, 1, 71, 64
6, 19830, Note_on_c, 1, 71, 0
6, 19830, Note_on_c, 1, 69, 64
6, 19860, Note_on_c, 1, 69, 0
6, 19860, Note_on_c, 1, 67, 64
6, 19950, Note_on_c, 1, 67, 0
6, 19950, Note_on_c, 1, 66, 64
6, 19980, Note_on_c, 1, 66, 0
6, 19980, Note_on_c, 1, 65, 64
6, 20010, Note_on_c, 1, 65, 0
6, 20010, Note_on_c, 1, 66, 64
6, 20040, Note_on_c, 1, 66, 0
6, 20040, Note_on_c, 1, 65, 64
6, 20075, Note_on_c, 1, 65, 0
6, 20100, Note_on_c, 1, 74, 64
6, 20160, Note_on_c, 1, 74, 0
6, 20160, Note_on_c, 1, 73, 64
6, 20220, Note_on_c, 1, 73, 0
6, 20220, Note_on_c, 1, 71, 64
6, 20280, Note_on_c, 1, 71, 0
6, 20280, Note_on_c, 1, 69, 64
6, 20340, Note_on_c, 1, 69, 0
6, 20340, Note_on_c, 1, 68, 64
6, 20370, Note_on_c, 1, 68, 0
6, 20370, Note_on_c, 1, 66, 64
6, 20400, Note_on_c, 1, 66, 0
6, 20400, Note_on_c, 1, 72, 64
6, 20580, Note_on_c, 1, 72, 0
6, 20580, Note_on_c, 1, 71, 64
6, 20615, Note_on_c, 1, 71, 0
6, 20640, Note_on_c, 1, 71, 64
6, 20700, Note_on_c, 1, 71, 0
6, 20700, Note_on_c, 1, 69, 64
6, 20735, Note_on_c, 1, 69, 0
6, 20760, Note_on_c, 1, 67, 64
6, 20820, Note_on_c, 1, 67, 0
6, 20820, Note_on_c, 1, 69, 64
6, 20880, Note_on_c, 1, 69, 0
6, 20880, Note_on_c, 1, 71, 64
6, 21060, Note_on_c, 1, 71, 0
6, 21060, Note_on_c, 1, 69, 64
6, 21095, Note_on_c, 1, 69, 0
6, 21120, Note_on_c, 1, 69, 64
6, 21180, Note_on_c, 1, 69, 0
6, 21180, Note_on_c, 1, 67, 64
6, 21215, Note_on_c, 1, 67, 0
6, 21240, Note_on_c, 1, 66, 64
6, 21300, Note_on_c, 1, 66, 0
6, 21300, Note_on_c, 1, 66, 66
6, 21330, Note_on_c, 1, 66, 0
6, 21330, Note_on_c, 1, 66, 67
6, 21360, Note_on_c, 1, 66, 0
6, 21360, Note_on_c, 1, 66, 68
6, 21395, Note_on_c, 1, 66, 0
6, 21420, Note_on_c, 1, 66, 70
6, 21480, Note_on_c, 1, 66, 0
6, 21480, Note_on_c, 1, 67, 72
6, 21540, Note_on_c, 1, 67, 0
6, 21540, Note_on_c, 1, 62, 74
6, 21600, Note_on_c, 1, 62, 0
6, 21600, Note_on_c, 1, 61, 76
6, 21635, Note_on_c, 1, 61, 0
6, 21660, Note_on_c, 1, 68, 78
6, 21720, Note_on_c, 1, 68, 0
6, 21720, Note_on_c, 1, 69, 80
6, 21780, Note_on_c, 1, 69, 0
6, 21780, Note_on_c, 1, 62, 80
6, 21840, Note_on_c, 1, 62, 0
6, 21840, Note_on_c, 1, 61, 80
6, 21875, Note_on_c, 1, 61, 0
6, 21900, Note_on_c, 1, 70, 80
6, 21960, Note_on_c, 1, 70, 0
6, 21960, Note_on_c, 1, 71, 80
6, 22020, Note_on_c, 1, 71, 0
6, 22020, Note_on_c, 1, 66, 80
6, 22080, Note_on_c, 1, 66, 0
6, 22080, Note_on_c, 1, 71, 80
6, 22140, Note_on_c, 1, 71, 0
6, 22140, Note_on_c, 1, 71, 80
6, 22200, Note_on_c, 1, 71, 0
6, 22200, Note_on_c, 1, 71, 80
6, 22320, Note_on_c, 1, 71, 0
6, 22320, Note_on_c, 1, 70, 80
6, 22440, Note_on_c, 1, 70, 0
6, 22440, Note_on_c, 1, 71, 80
6, 22620, Note_on_c, 1, 71, 0
6, 22620, Note_on_c, 1, 71, 80
6, 22740, Note_on_c, 1, 71, 0
6, 22740, Note_on_c, 1, 69, 80
6, 22800, Note_on_c, 1, 69, 0
6, 22800, Note_on_c, 1, 67, 80
6, 22860, Note_on_c, 1, 67, 0
6, 22860, Note_on_c, 1, 66, 80
6, 22920, Note_on_c, 1, 66, 0
6, 22920, Note_on_c, 1, 64, 80
6, 22980, Note_on_c, 1, 64, 0
6, 22980, Note_on_c, 1, 62, 80
6, 23010, Note_on_c, 1, 62, 0
6, 23010, Note_on_c, 1, 64, 80
6, 23040, Note_on_c, 1, 64, 0
6, 23040, Note_on_c, 1, 66, 80
6, 23160, Note_on_c, 1, 66, 0
6, 23160, Note_on_c, 1, 59, 80
6, 23220, Note_on_c, 1, 59, 0
6, 23220, Note_on_c, 1, 66, 80
6, 23250, Note_on_c, 1, 66, 0
6, 23250, Note_on_c, 1, 66, 80
6, 23280, Note_on_c, 1, 66, 0
6, 23280, Note_on_c, 1, 66, 80
6, 23315, Note_on_c, 1, 66, 0
6, 23340, Note_on_c, 1, 66, 80
6, 23400, Note_on_c, 1, 66, 0
6, 23400, Note_on_c, 1, 68, 80
6, 23460, Note_on_c, 1, 68, 0
6, 23460, Note_on_c, 1, 62, 80
6, 23520, Note_on_c, 1, 62, 0
6, 23520, Note_on_c, 1, 61, 80
6, 23555, Note_on_c, 1, 61, 0
6, 23580, Note_on_c, 1, 68, 80
6, 23640, Note_on_c, 1, 68, 0
6, 23640, Note_on_c, 1, 69, 80
6, 23700, Note_on_c, 1, 69, 0
6, 23700, Note_on_c, 1, 62, 80
6, 23760, Note_on_c, 1, 62, 0
6, 23760, Note_on_c, 1, 61, 80
6, 23795, Note_on_c, 1, 61, 0
6, 23820, Note_on_c, 1, 70, 80
6, 23880, Note_on_c, 1, 70, 0
6, 23880, Note_on_c, 1, 71, 80
6, 23910, Note_on_c, 1, 71, 0
6, 23910, Note_on_c, 1, 69, 80
6, 23940, Note_on_c, 1, 69, 0
6, 23940, Note_on_c, 1, 67, 80
6, 24030, Note_on_c, 1, 67, 0
6, 24030, Note_on_c, 1, 66, 80
6, 24060, Note_on_c, 1, 66, 0
6, 24060, Note_on_c, 1, 65, 80
6, 24090, Note_on_c, 1, 65, 0
6, 24090, Note_on_c, 1, 66, 80
6, 24120, Note_on_c, 1, 66, 0
6, 24120, Note_on_c, 1, 65, 80
6, 24155, Note_on_c, 1, 65, 0
6, 24180, Note_on_c, 1, 74, 80
6, 24240, Note_on_c, 1, 74, 0
6, 24240, Note_on_c, 1, 73, 80
6, 24300, Note_on_c, 1, 73, 0
6, 24300, Note_on_c, 1, 71, 80
6, 24360, Note_on_c, 1, 71, 0
6, 24360, Note_on_c, 1, 69, 80
6, 24420, Note_on_c, 1, 69, 0
6, 24420, Note_on_c, 1, 68, 80
6, 24450, Note_on_c, 1, 68, 0
6, 24450, Note_on_c, 1, 66, 80
6, 24480, Note_on_c, 1, 66, 0
6, 24480, Note_on_c, 1, 73, 80
6, 24720, Note_on_c, 1, 73, 0
6, 24720, Note_on_c, 1, 72, 80
6, 24840, Note_on_c, 1, 72, 0
6, 24840, Note_on_c, 1, 73, 80
6, 24960, Note_on_c, 1, 73, 0
6, 24960, Note_on_c, 1, 73, 80
6, 25140, Note_on_c, 1, 73, 0
6, 25140, Note_on_c, 1, 71, 80
6, 25200, Note_on_c, 1, 71, 0
6, 25200, Note_on_c, 1, 69, 80
6, 25260, Note_on_c, 1, 69, 0
6, 25260, Note_on_c, 1, 68, 80
6, 25320, Note_on_c, 1, 68, 0
6, 25320, Note_on_c, 1, 66, 80
6, 25440, Note_on_c, 1, 66, 0
6, 25440, Note_on_c, 1, 75, 80
6, 25620, Note_on_c, 1, 75, 0
6, 25620, Note_on_c, 1, 68, 80
6, 25680, Note_on_c, 1, 68, 0
6, 25680, Note_on_c, 1, 73, 80
6, 25740, Note_on_c, 1, 73, 0
6, 25740, Note_on_c, 1, 71, 80
6, 25800, Note_on_c, 1, 71, 0
6, 25800, Note_on_c, 1, 69, 80
6, 26100, Note_on_c, 1, 69, 0
6, 26100, Note_on_c, 1, 63, 80
6, 26160, Note_on_c, 1, 63, 0
6, 26160, Note_on_c, 1, 68, 80
6, 26220, Note_on_c, 1, 68, 0
6, 26220, Note_on_c, 1, 66, 80
6, 26280, Note_on_c, 1, 66, 0
6, 26280, Note_on_c, 1, 64, 80
6, 26400, Note_on_c, 1, 64, 0
6, 26580, Note_on_c, 1, 72, 80
6, 26640, Note_on_c, 1, 72, 0
6, 26640, Note_on_c, 1, 73, 80
6, 26675, Note_on_c, 1, 73, 0
6, 26700, Note_on_c, 1, 64, 80
6, 26760, Note_on_c, 1, 64, 0
6, 26760, Note_on_c, 1, 63, 80
6, 26795, Note_on_c, 1, 63, 0
6, 26820, Note_on_c, 1, 72, 80
6, 26880, Note_on_c, 1, 72, 0
6, 26880, Note_on_c, 1, 73, 80
6, 26940, Note_on_c, 1, 73, 0
6, 26940, Note_on_c, 1, 75, 80
6, 27000, Note_on_c, 1, 75, 0
6, 27000, Note_on_c, 1, 68, 80
6, 27060, Note_on_c, 1, 68, 0
6, 27060, Note_on_c, 1, 60, 80
6, 27120, Note_on_c, 1, 60, 0
6, 27120, Note_on_c, 1, 61, 80
6, 27180, Note_on_c, 1, 61, 0
6, 27180, Note_on_c, 1, 69, 80
6, 27240, Note_on_c, 1, 69, 0
6, 27240, Note_on_c, 1, 64, 80
6, 27300, Note_on_c, 1, 64, 0
6, 27300, Note_on_c, 1, 63, 80
6, 27420, Note_on_c, 1, 63, 0
6, 27420, Note_on_c, 1, 64, 80
6, 27480, Note_on_c, 1, 64, 0
6, 27480, Note_on_c, 1, 66, 80
6, 27540, Note_on_c, 1, 66, 0
6, 27540, Note_on_c, 1, 69, 80
6, 27600, Note_on_c, 1, 69, 0
6, 27600, Note_on_c, 1, 68, 80
6, 27660, Note_on_c, 1, 68, 0
6, 27660, Note_on_c, 1, 66, 80
6, 27720, Note_on_c, 1, 66, 0
6, 27720, Note_on_c, 1, 64, 80
6, 27840, Note_on_c, 1, 64, 0
6, 27840, Note_on_c, 1, 63, 80
6, 27960, Note_on_c, 1, 63, 0
6, 27960, Note_on_c, 1, 61, 80
6, 28080, Note_on_c, 1, 61, 0
6, 28620, Note_on_c, 1, 66, 50
6, 28680, Note_on_c, 1, 66, 0
6, 28680, Note_on_c, 1, 65, 52
6, 28740, Note_on_c, 1, 65, 0
6, 28740, Note_on_c, 1, 71, 54
6, 28860, Note_on_c, 1, 71, 0
6, 28860, Note_on_c, 1, 69, 57
6, 28890, Note_on_c, 1, 69, 0
6, 28890, Note_on_c, 1, 68, 58
6, 28920, Note_on_c, 1, 68, 0
6, 28920, Note_on_c, 1, 69, 59
6, 28950, Note_on_c, 1, 69, 0
6, 28950, Note_on_c, 1, 71, 60
6, 28980, Note_on_c, 1, 71, 0
6, 28980, Note_on_c, 1, 73, 60
6, 29040, Note_on_c, 1, 73, 0
6, 29040, Note_on_c, 1, 66, 62
6, 29160, Note_on_c, 1, 66, 0
6, 29580, Note_on_c, 1, 71, 77
6, 29640, Note_on_c, 1, 71, 0
6, 29640, Note_on_c, 1, 70, 79
6, 29700, Note_on_c, 1, 70, 0
6, 29700, Note_on_c, 1, 76, 81
6, 29820, Note_on_c, 1, 76, 0
6, 29820, Note_on_c, 1, 74, 84
6, 29850, Note_on_c, 1, 74, 0
6, 29850, Note_on_c, 1, 73, 85
6, 29880, Note_on_c, 1, 73, 0
6, 29880, Note_on_c, 1, 71, 104
6, 29940, Note_on_c, 1, 71, 0
6, 29940, Note_on_c, 1, 66, 85
6, 30000, Note_on_c, 1, 66, 0
6, 30000, Note_on_c, 1, 65, 85
6, 30035, Note_on_c, 1, 65, 0
6, 30060, Note_on_c, 1, 68, 85
6, 30095, Note_on_c, 1, 68, 0
6, 30120, Note_on_c, 1, 73, 104
6, 30180, Note_on_c, 1, 73, 0
6, 30180, Note_on_c, 1, 66, 85
6, 30240, Note_on_c, 1, 66, 0
6, 30240, Note_on_c, 1, 68, 85
6, 30275, Note_on_c, 1, 68, 0
6, 30300, Note_on_c, 1, 72, 85
6, 30335, Note_on_c, 1, 72, 0
6, 30360, Note_on_c, 1, 73, 104
6, 30420, Note_on_c, 1, 73, 0
6, 30420, Note_on_c, 1, 77, 85
6, 30480, Note_on_c, 1, 77, 0
6, 30480, Note_on_c, 1, 78, 85
6, 30515, Note_on_c, 1, 78, 0
6, 30540, Note_on_c, 1, 70, 85
6, 30575, Note_on_c, 1, 70, 0
6, 30600, Note_on_c, 1, 71, 104
6, 30660, Note_on_c, 1, 71, 0
6, 30660, Note_on_c, 1, 75, 85
6, 30720, Note_on_c, 1, 75, 0
6, 30720, Note_on_c, 1, 76, 85
6, 30755, Note_on_c, 1, 76, 0
6, 30780, Note_on_c, 1, 68, 85
6, 30815, Note_on_c, 1, 68, 0
6, 30840, Note_on_c, 1, 69, 78
6, 30875, Note_on_c, 1, 69, 0
6, 30900, Note_on_c, 1, 73, 74
6, 30960, Note_on_c, 1, 73, 0
6, 30960, Note_on_c, 1, 66, 71
6, 31200, Note_on_c, 1, 66, 0
6, 31200, Note_on_c, 1, 65, 57
6, 31235, Note_on_c, 1, 65, 0
6, 31260, Note_on_c, 1, 68, 53
6, 31295, Note_on_c, 1, 68, 0
6, 31320, Note_on_c, 1, 68, 50
6, 31380, Note_on_c, 1, 68, 0
6, 31380, Note_on_c, 1, 61, 51
6, 31440, Note_on_c, 1, 61, 0
6, 31440, Note_on_c, 1, 66, 52
6, 31680, Note_on_c, 1, 66, 0
6, 31680, Note_on_c, 1, 65, 55
6, 31715, Note_on_c, 1, 65, 0
6, 31740, Note_on_c, 1, 65, 56
6, 31800, Note_on_c, 1, 65, 0
6, 31800, Note_on_c, 1, 66, 57
6, 32100, Note_on_c, 1, 66, 0
6, 32100, Note_on_c, 1, 76, 61
6, 32160, Note_on_c, 1, 76, 0
6, 32160, Note_on_c, 1, 74, 62
6, 32220, Note_on_c, 1, 74, 0
6, 32220, Note_on_c, 1, 73, 63
6, 32280, Note_on_c, 1, 73, 0
6, 32280, Note_on_c, 1, 71, 64
6, 32340, Note_on_c, 1, 71, 0
6, 32340, Note_on_c, 1, 74, 64
6, 32400, Note_on_c, 1, 74, 0
6, 32400, Note_on_c, 1, 68, 64
6, 32580, Note_on_c, 1, 68, 0
6, 32580, Note_on_c, 1, 73, 64
6, 32640, Note_on_c, 1, 73, 0
6, 32640, Note_on_c, 1, 78, 64
6, 32700, Note_on_c, 1, 78, 0
6, 32700, Note_on_c, 1, 76, 64
6, 32760, Note_on_c, 1, 76, 0
6, 32760, Note_on_c, 1, 74, 64
6, 33060, Note_on_c, 1, 74, 0
6, 33060, Note_on_c, 1, 68, 64
6, 33120, Note_on_c, 1, 68, 0
6, 33120, Note_on_c, 1, 73, 64
6, 33180, Note_on_c, 1, 73, 0
6, 33180, Note_on_c, 1, 71, 64
6, 33240, Note_on_c, 1, 71, 0
6, 33240, Note_on_c, 1, 69, 64
6, 33540, Note_on_c, 1, 69, 0
6, 33540, Note_on_c, 1, 77, 64
6, 33600, Note_on_c, 1, 77, 0
6, 33600, Note_on_c, 1, 78, 64
6, 33635, Note_on_c, 1, 78, 0
6, 33660, Note_on_c, 1, 69, 64
6, 33720, Note_on_c, 1, 69, 0
6, 33720, Note_on_c, 1, 68, 64
6, 33755, Note_on_c, 1, 68, 0
6, 33780, Note_on_c, 1, 65, 65
6, 33840, Note_on_c, 1, 65, 0
6, 33840, Note_on_c, 1, 66, 65
6, 33900, Note_on_c, 1, 66, 0
6, 33900, Note_on_c, 1, 68, 66
6, 33960, Note_on_c, 1, 68, 0
6, 33960, Note_on_c, 1, 69, 67
6, 33995, Note_on_c, 1, 69, 0
6, 34020, Note_on_c, 1, 74, 67
6, 34080, Note_on_c, 1, 74, 0
6, 34080, Note_on_c, 1, 73, 68
6, 34115, Note_on_c, 1, 73, 0
6, 34140, Note_on_c, 1, 66, 69
6, 34200, Note_on_c, 1, 66, 0
6, 34200, Note_on_c, 1, 66, 69
6, 34260, Note_on_c, 1, 66, 0
6, 34260, Note_on_c, 1, 65, 70
6, 34380, Note_on_c, 1, 65, 0
6, 34380, Note_on_c, 1, 66, 71
6, 34440, Note_on_c, 1, 66, 0
6, 34440, Note_on_c, 1, 68, 72
6, 34475, Note_on_c, 1, 68, 0
6, 34500, Note_on_c, 1, 71, 73
6, 34560, Note_on_c, 1, 71, 0
6, 34560, Note_on_c, 1, 69, 73
6, 34620, Note_on_c, 1, 69, 0
6, 34620, Note_on_c, 1, 68, 74
6, 34680, Note_on_c, 1, 68, 0
6, 34680, Note_on_c, 1, 66, 75
6, 34800, Note_on_c, 1, 66, 0
6, 34800, Note_on_c, 1, 65, 76
6, 34920, Note_on_c, 1, 65, 0
6, 34920, Note_on_c, 1, 66, 77
6, 35040, Note_on_c, 1, 66, 0
6, 46680, Note_on_c, 1, 64, 64
6, 46770, Note_on_c, 1, 64, 0
6, 46770, Note_on_c, 1, 64, 64
6, 46800, Note_on_c, 1, 64, 0
6, 46800, Note_on_c, 1, 64, 64
6, 46835, Note_on_c, 1, 64, 0
6, 46860, Note_on_c, 1, 64, 64
6, 46920, Note_on_c, 1, 64, 0
6, 46920, Note_on_c, 1, 66, 64
6, 46980, Note_on_c, 1, 66, 0
6, 46980, Note_on_c, 1, 60, 64
6, 47040, Note_on_c, 1, 60, 0
6, 47040, Note_on_c, 1, 59, 64
6, 47075, Note_on_c, 1, 59, 0
6, 47100, Note_on_c, 1, 66, 64
6, 47160, Note_on_c, 1, 66, 0
6, 47160, Note_on_c, 1, 67, 64
6, 47220, Note_on_c, 1, 67, 0
6, 47220, Note_on_c, 1, 60, 64
6, 47280, Note_on_c, 1, 60, 0
6, 47280, Note_on_c, 1, 59, 64
6, 47315, Note_on_c, 1, 59, 0
6, 47340, Note_on_c, 1, 68, 64
6, 47400, Note_on_c, 1, 68, 0
6, 47400, Note_on_c, 1, 69, 64
6, 47430, Note_on_c, 1, 69, 0
6, 47430, Note_on_c, 1, 67, 64
6, 47460, Note_on_c, 1, 67, 0
6, 47460, Note_on_c, 1, 65, 64
6, 47550, Note_on_c, 1, 65, 0
6, 47550, Note_on_c, 1, 64, 64
6, 47580, Note_on_c, 1, 64, 0
6, 47580, Note_on_c, 1, 63, 64
6, 47610, Note_on_c, 1, 63, 0
6, 47610, Note_on_c, 1, 64, 64
6, 47640, Note_on_c, 1, 64, 0
6, 47640, Note_on_c, 1, 63, 64
6, 47675, Note_on_c, 1, 63, 0
6, 47700, Note_on_c, 1, 72, 64
6, 47760, Note_on_c, 1, 72, 0
6, 47760, Note_on_c, 1, 71, 64
6, 47820, Note_on_c, 1, 71, 0
6, 47820, Note_on_c, 1, 69, 64
6, 47880, Note_on_c, 1, 69, 0
6, 47880, Note_on_c, 1, 67, 64
6, 47940, Note_on_c, 1, 67, 0
6, 47940, Note_on_c, 1, 66, 64
6, 47970, Note_on_c, 1, 66, 0
6, 47970, Note_on_c, 1, 64, 64
6, 48000, Note_on_c, 1, 64, 0
6, 48000, Note_on_c, 1, 74, 64
6, 48180, Note_on_c, 1, 74, 0
6, 48180, Note_on_c, 1, 69, 64
6, 48240, Note_on_c, 1, 69, 0
6, 48240, Note_on_c, 1, 68, 64
6, 48275, Note_on_c, 1, 68, 0
6, 48300, Note_on_c, 1, 74, 64
6, 48360, Note_on_c, 1, 74, 0
6, 48360, Note_on_c, 1, 73, 64
6, 48420, Note_on_c, 1, 73, 0
6, 48420, Note_on_c, 1, 71, 64
6, 48450, Note_on_c, 1, 71, 0
6, 48450, Note_on_c, 1, 69, 64
6, 48480, Note_on_c, 1, 69, 0
6, 48480, Note_on_c, 1, 76, 64
6, 48660, Note_on_c, 1, 76, 0
6, 48660, Note_on_c, 1, 71, 64
6, 48720, Note_on_c, 1, 71, 0
6, 48720, Note_on_c, 1, 70, 64
6, 48755, Note_on_c, 1, 70, 0
6, 48780, Note_on_c, 1, 76, 64
6, 48840, Note_on_c, 1, 76, 0
6, 48840, Note_on_c, 1, 74, 64
6, 48900, Note_on_c, 1, 74, 0
6, 48900, Note_on_c, 1, 76, 64
6, 48960, Note_on_c, 1, 76, 0
6, 48960, Note_on_c, 1, 78, 64
6, 49200, Note_on_c, 1, 78, 0
6, 49200, Note_on_c, 1, 76, 64
6, 49320, Note_on_c, 1, 76, 0
6, 49320, Note_on_c, 1, 78, 64
6, 49440, Note_on_c, 1, 78, 0
6, 50280, Note_on_c, 1, 66, 75
6, 50370, Note_on_c, 1, 66, 0
6, 50370, Note_on_c, 1, 66, 75
6, 50400, Note_on_c, 1, 66, 0
6, 50400, Note_on_c, 1, 66, 75
6, 50435, Note_on_c, 1, 66, 0
6, 50460, Note_on_c, 1, 66, 75
6, 50520, Note_on_c, 1, 66, 0
6, 50520, Note_on_c, 1, 68, 75
6, 50580, Note_on_c, 1, 68, 0
6, 50580, Note_on_c, 1, 62, 75
6, 50640, Note_on_c, 1, 62, 0
6, 50640, Note_on_c, 1, 61, 75
6, 50675, Note_on_c, 1, 61, 0
6, 50700, Note_on_c, 1, 68, 75
6, 50760, Note_on_c, 1, 68, 0
6, 50760, Note_on_c, 1, 69, 75
6, 50820, Note_on_c, 1, 69, 0
6, 50820, Note_on_c, 1, 62, 75
6, 50880, Note_on_c, 1, 62, 0
6, 50880, Note_on_c, 1, 61, 75
6, 50915, Note_on_c, 1, 61, 0
6, 50940, Note_on_c, 1, 70, 75
6, 51000, Note_on_c, 1, 70, 0
6, 51000, Note_on_c, 1, 71, 75
6, 51030, Note_on_c, 1, 71, 0
6, 51030, Note_on_c, 1, 69, 75
6, 51060, Note_on_c, 1, 69, 0
6, 51060, Note_on_c, 1, 67, 75
6, 51150, Note_on_c, 1, 67, 0
6, 51150, Note_on_c, 1, 66, 75
6, 51180, Note_on_c, 1, 66, 0
6, 51180, Note_on_c, 1, 65, 75
6, 51210, Note_on_c, 1, 65, 0
6, 51210, Note_on_c, 1, 66, 75
6, 51240, Note_on_c, 1, 66, 0
6, 51240, Note_on_c, 1, 65, 75
6, 51275, Note_on_c, 1, 65, 0
6, 51300, Note_on_c, 1, 74, 75
6, 51360, Note_on_c, 1, 74, 0
6, 51360, Note_on_c, 1, 73, 75
6, 51420, Note_on_c, 1, 73, 0
6, 51420, Note_on_c, 1, 71, 75
6, 51480, Note_on_c, 1, 71, 0
6, 51480, Note_on_c, 1, 69, 75
6, 51540, Note_on_c, 1, 69, 0
6, 51540, Note_on_c, 1, 68, 75
6, 51570, Note_on_c, 1, 68, 0
6, 51570, Note_on_c, 1, 66, 75
6, 51600, Note_on_c, 1, 66, 0
6, 51600, Note_on_c, 1, 73, 75
6, 51780, Note_on_c, 1, 73, 0
6, 51780, Note_on_c, 1, 66, 75
6, 51840, Note_on_c, 1, 66, 0
6, 51840, Note_on_c, 1, 71, 75
6, 51900, Note_on_c, 1, 71, 0
6, 51900, Note_on_c, 1, 69, 75
6, 51960, Note_on_c, 1, 69, 0
6, 51960, Note_on_c, 1, 68, 75
6, 52260, Note_on_c, 1, 68, 0
6, 52260, Note_on_c, 1, 61, 75
6, 52320, Note_on_c, 1, 61, 0
6, 52320, Note_on_c, 1, 66, 75
6, 52380, Note_on_c, 1, 66, 0
6, 52380, Note_on_c, 1, 64, 75
6, 52440, Note_on_c, 1, 64, 0
6, 52440, Note_on_c, 1, 62, 75
6, 52560, Note_on_c, 1, 62, 0
6, 52620, Note_on_c, 1, 69, 75
6, 52680, Note_on_c, 1, 69, 0
6, 52680, Note_on_c, 1, 71, 75
6, 52800, Note_on_c, 1, 71, 0
6, 52800, Note_on_c, 1, 73, 75
6, 52860, Note_on_c, 1, 73, 0
6, 52860, Note_on_c, 1, 65, 75
6, 52920, Note_on_c, 1, 65, 0
6, 52920, Note_on_c, 1, 66, 75
6, 53040, Note_on_c, 1, 66, 0
6, 53100, Note_on_c, 1, 66, 76
6, 53220, Note_on_c, 1, 66, 0
6, 53220, Note_on_c, 1, 65, 77
6, 53280, Note_on_c, 1, 65, 0
6, 53280, Note_on_c, 1, 65, 78
6, 53340, Note_on_c, 1, 65, 0
6, 53340, Note_on_c, 1, 66, 78
6, 53400, Note_on_c, 1, 66, 0
6, 53400, Note_on_c, 1, 68, 79
6, 53460, Note_on_c, 1, 68, 0
6, 53460, Note_on_c, 1, 71, 79
6, 53520, Note_on_c, 1, 71, 0
6, 53520, Note_on_c, 1, 69, 79
6, 53580, Note_on_c, 1, 69, 0
6, 53580, Note_on_c, 1, 68, 80
6, 53640, Note_on_c, 1, 68, 0
6, 53640, Note_on_c, 1, 66, 80
6, 53760, Note_on_c, 1, 66, 0
6, 53760, Note_on_c, 1, 65, 81
6, 53880, Note_on_c, 1, 65, 0
6, 53880, Note_on_c, 1, 66, 82
6, 54000, Note_on_c, 1, 66, 0
6, 54060, Note_on_c, 1, 64, 64
6, 54120, Note_on_c, 1, 64, 0
6, 54120, Note_on_c, 1, 63, 64
6, 54180, Note_on_c, 1, 63, 0
6, 54180, Note_on_c, 1, 69, 64
6, 54300, Note_on_c, 1, 69, 0
6, 54300, Note_on_c, 1, 67, 64
6, 54330, Note_on_c, 1, 67, 0
6, 54330, Note_on_c, 1, 66, 64
6, 54360, Note_on_c, 1, 66, 0
6, 54360, Note_on_c, 1, 67, 40
6, 54390, Note_on_c, 1, 67, 0
6, 54390, Note_on_c, 1, 69, 41
6, 54420, Note_on_c, 1, 69, 0
6, 54420, Note_on_c, 1, 71, 42
6, 54480, Note_on_c, 1, 71, 0
6, 54480, Note_on_c, 1, 64, 44
6, 54600, Note_on_c, 1, 64, 0
6, 55020, Note_on_c, 1, 66, 61
6, 55080, Note_on_c, 1, 66, 0
6, 55080, Note_on_c, 1, 65, 63
6, 55140, Note_on_c, 1, 65, 0
6, 55140, Note_on_c, 1, 71, 64
6, 55260, Note_on_c, 1, 71, 0
6, 55260, Note_on_c, 1, 69, 68
6, 55290, Note_on_c, 1, 69, 0
6, 55290, Note_on_c, 1, 68, 69
6, 55320, Note_on_c, 1, 68, 0
6, 55320, Note_on_c, 1, 69, 70
6, 55620, Note_on_c, 1, 69, 0
6, 55620, Note_on_c, 1, 60, 79
6, 55680, Note_on_c, 1, 60, 0
6, 55680, Note_on_c, 1, 59, 81
6, 55715, Note_on_c, 1, 59, 0
6, 55740, Note_on_c, 1, 69, 83
6, 55775, Note_on_c, 1, 69, 0
6, 55800, Note_on_c, 1, 68, 104
6, 55860, Note_on_c, 1, 68, 0
6, 55860, Note_on_c, 1, 62, 85
6, 55920, Note_on_c, 1, 62, 0
6, 55920, Note_on_c, 1, 61, 85
6, 55955, Note_on_c, 1, 61, 0
6, 55980, Note_on_c, 1, 70, 85
6, 56015, Note_on_c, 1, 70, 0
6, 56040, Note_on_c, 1, 71, 104
6, 56100, Note_on_c, 1, 71, 0
6, 56100, Note_on_c, 1, 66, 85
6, 56160, Note_on_c, 1, 66, 0
6, 56160, Note_on_c, 1, 65, 85
6, 56195, Note_on_c, 1, 65, 0
6, 56220, Note_on_c, 1, 71, 85
6, 56255, Note_on_c, 1, 71, 0
6, 56280, Note_on_c, 1, 70, 104
6, 56340, Note_on_c, 1, 70, 0
6, 56340, Note_on_c, 1, 64, 85
6, 56400, Note_on_c, 1, 64, 0
6, 56400, Note_on_c, 1, 63, 85
6, 56435, Note_on_c, 1, 63, 0
6, 56460, Note_on_c, 1, 69, 85
6, 56495, Note_on_c, 1, 69, 0
6, 56520, Note_on_c, 1, 68, 104
6, 56580, Note_on_c, 1, 68, 0
6, 56580, Note_on_c, 1, 62, 85
6, 56640, Note_on_c, 1, 62, 0
6, 56640, Note_on_c, 1, 61, 85
6, 56675, Note_on_c, 1, 61, 0
6, 56700, Note_on_c, 1, 67, 85
6, 56735, Note_on_c, 1, 67, 0
6, 56760, Note_on_c, 1, 66, 104
6, 56820, Note_on_c, 1, 66, 0
6, 56820, Note_on_c, 1, 70, 85
6, 56880, Note_on_c, 1, 70, 0
6, 56880, Note_on_c, 1, 71, 85
6, 56915, Note_on_c, 1, 71, 0
6, 56940, Note_on_c, 1, 74, 85
6, 56975, Note_on_c, 1, 74, 0
6, 57000, Note_on_c, 1, 76, 104
6, 57060, Note_on_c, 1, 76, 0
6, 57060, Note_on_c, 1, 67, 85
6, 57120, Note_on_c, 1, 67, 0
6, 57120, Note_on_c, 1, 66, 85
6, 57155, Note_on_c, 1, 66, 0
6, 57180, Note_on_c, 1, 64, 85
6, 57215, Note_on_c, 1, 64, 0
6, 57240, Note_on_c, 1, 62, 85
6, 57420, Note_on_c, 1, 62, 0
6, 57420, Note_on_c, 1, 64, 85
6, 57450, Note_on_c, 1, 64, 0
6, 57450, Note_on_c, 1, 66, 85
6, 57480, Note_on_c, 1, 66, 0
6, 57480, Note_on_c, 1, 64, 85
6, 57660, Note_on_c, 1, 64, 0
6, 57660, Note_on_c, 1, 66, 85
6, 57690, Note_on_c, 1, 66, 0
6, 57690, Note_on_c, 1, 67, 85
6, 57720, Note_on_c, 1, 67, 0
6, 57720, Note_on_c, 1, 66, 85
6, 57900, Note_on_c, 1, 66, 0
6, 57900, Note_on_c, 1, 67, 85
6, 57930, Note_on_c, 1, 67, 0
6, 57930, Note_on_c, 1, 69, 85
6, 57960, Note_on_c, 1, 69, 0
6, 57960, Note_on_c, 1, 67, 85
6, 58260, Note_on_c, 1, 67, 0
6, 58260, Note_on_c, 1, 61, 85
6, 58320, Note_on_c, 1, 61, 0
6, 58320, Note_on_c, 1, 66, 85
6, 58380, Note_on_c, 1, 66, 0
6, 58380, Note_on_c, 1, 64, 85
6, 58440, Note_on_c, 1, 64, 0
6, 58440, Note_on_c, 1, 62, 85
6, 58500, Note_on_c, 1, 62, 0
6, 58500, Note_on_c, 1, 61, 85
6, 58530, Note_on_c, 1, 61, 0
6, 58530, Note_on_c, 1, 59, 85
6, 58560, Note_on_c, 1, 59, 0
6, 58560, Note_on_c, 1, 66, 85
6, 58740, Note_on_c, 1, 66, 0
6, 58740, Note_on_c, 1, 59, 85
6, 58800, Note_on_c, 1, 59, 0
6, 58800, Note_on_c, 1, 64, 85
6, 58860, Note_on_c, 1, 64, 0
6, 58860, Note_on_c, 1, 62, 85
6, 58920, Note_on_c, 1, 62, 0
6, 58920, Note_on_c, 1, 61, 85
6, 59220, Note_on_c, 1, 61, 0
6, 59220, Note_on_c, 1, 66, 85
6, 59280, Note_on_c, 1, 66, 0
6, 59280, Note_on_c, 1, 71, 85
6, 59340, Note_on_c, 1, 71, 0
6, 59340, Note_on_c, 1, 69, 85
6, 59400, Note_on_c, 1, 69, 0
6, 59400, Note_on_c, 1, 67, 85
6, 59520, Note_on_c, 1, 67, 0
6, 59520, Note_on_c, 1, 66, 85
6, 59640, Note_on_c, 1, 66, 0
6, 59640, Note_on_c, 1, 64, 85
6, 59675, Note_on_c, 1, 64, 0
6, 59700, Note_on_c, 1, 70, 86
6, 59760, Note_on_c, 1, 70, 0
6, 59760, Note_on_c, 1, 71, 86
6, 59820, Note_on_c, 1, 71, 0
6, 59820, Note_on_c, 1, 73, 87
6, 59880, Note_on_c, 1, 73, 0
6, 59880, Note_on_c, 1, 74, 88
6, 59915, Note_on_c, 1, 74, 0
6, 59940, Note_on_c, 1, 70, 88
6, 60000, Note_on_c, 1, 70, 0
6, 60000, Note_on_c, 1, 71, 89
6, 60060, Note_on_c, 1, 71, 0
6, 60060, Note_on_c, 1, 67, 89
6, 60120, Note_on_c, 1, 67, 0
6, 60120, Note_on_c, 1, 62, 90
6, 60180, Note_on_c, 1, 62, 0
6, 60180, Note_on_c, 1, 61, 91
6, 60300, Note_on_c, 1, 61, 0
6, 60300, Note_on_c, 1, 62, 92
6, 60360, Note_on_c, 1, 62, 0
6, 60360, Note_on_c, 1, 64, 93
6, 60420, Note_on_c, 1, 64, 0
6, 60420, Note_on_c, 1, 67, 93
6, 60480, Note_on_c, 1, 67, 0
6, 60480, Note_on_c, 1, 66, 94
6, 60540, Note_on_c, 1, 66, 0
6, 60540, Note_on_c, 1, 64, 94
6, 60600, Note_on_c, 1, 64, 0
6, 60600, Note_on_c, 1, 62, 95
6, 60720, Note_on_c, 1, 62, 0
6, 60720, Note_on_c, 1, 61, 96
6, 60840, Note_on_c, 1, 61, 0
6, 60840, Note_on_c, 1, 59, 98
6, 61200, Note_on_c, 1, 59, 0
6, 61560, End_track
7, 0, Start_track
7, 0, MIDI_port, 0
7, 0, Title_t, "Alto"
7, 0, Program_c, 2, 53
7, 480, Control_c, 2, 7, 127
7, 480, Note_on_c, 2, 66, 80
7, 660, Note_on_c, 2, 66, 0
7, 660, Note_on_c, 2, 66, 80
7, 720, Note_on_c, 2, 66, 0
7, 720, Note_on_c, 2, 64, 80
7, 840, Note_on_c, 2, 64, 0
7, 960, Control_c, 2, 7, 127
7, 1020, Note_on_c, 2, 69, 80
7, 1080, Note_on_c, 2, 69, 0
7, 1080, Note_on_c, 2, 66, 80
7, 1140, Note_on_c, 2, 66, 0
7, 1140, Note_on_c, 2, 63, 80
7, 1200, Note_on_c, 2, 63, 0
7, 1200, Note_on_c, 2, 59, 80
7, 1320, Note_on_c, 2, 59, 0
7, 1440, Control_c, 2, 7, 127
7, 1440, Note_on_c, 2, 73, 80
7, 1620, Note_on_c, 2, 73, 0
7, 1620, Note_on_c, 2, 66, 80
7, 1680, Note_on_c, 2, 66, 0
7, 1680, Note_on_c, 2, 66, 80
7, 1740, Note_on_c, 2, 66, 0
7, 1740, Note_on_c, 2, 67, 80
7, 1800, Note_on_c, 2, 67, 0
7, 1800, Note_on_c, 2, 69, 80
7, 1920, Note_on_c, 2, 69, 0
7, 1920, Note_on_c, 2, 62, 80
7, 1980, Note_on_c, 2, 62, 0
7, 1980, Note_on_c, 2, 67, 81
7, 2070, Note_on_c, 2, 67, 0
7, 2070, Note_on_c, 2, 66, 83
7, 2100, Note_on_c, 2, 66, 0
7, 2100, Note_on_c, 2, 67, 84
7, 2160, Note_on_c, 2, 67, 0
7, 2160, Note_on_c, 2, 61, 85
7, 2400, Note_on_c, 2, 61, 0
7, 15720, Note_on_c, 2, 66, 64
7, 15810, Note_on_c, 2, 66, 0
7, 15810, Note_on_c, 2, 66, 64
7, 15840, Note_on_c, 2, 66, 0
7, 15840, Note_on_c, 2, 66, 64
7, 15875, Note_on_c, 2, 66, 0
7, 15900, Note_on_c, 2, 66, 64
7, 15960, Note_on_c, 2, 66, 0
7, 15960, Note_on_c, 2, 68, 64
7, 16020, Note_on_c, 2, 68, 0
7, 16020, Note_on_c, 2, 62, 64
7, 16080, Note_on_c, 2, 62, 0
7, 16080, Note_on_c, 2, 61, 64
7, 16115, Note_on_c, 2, 61, 0
7, 16140, Note_on_c, 2, 68, 64
7, 16200, Note_on_c, 2, 68, 0
7, 16200, Note_on_c, 2, 69, 64
7, 16260, Note_on_c, 2, 69, 0
7, 16260, Note_on_c, 2, 62, 64
7, 16320, Note_on_c, 2, 62, 0
7, 16320, Note_on_c, 2, 61, 64
7, 16355, Note_on_c, 2, 61, 0
7, 16380, Note_on_c, 2, 70, 64
7, 16440, Note_on_c, 2, 70, 0
7, 16440, Note_on_c, 2, 71, 64
7, 16470, Note_on_c, 2, 71, 0
7, 16470, Note_on_c, 2, 69, 64
7, 16500, Note_on_c, 2, 69, 0
7, 16500, Note_on_c, 2, 67, 64
7, 16590, Note_on_c, 2, 67, 0
7, 16590, Note_on_c, 2, 66, 64
7, 16620, Note_on_c, 2, 66, 0
7, 16620, Note_on_c, 2, 65, 64
7, 16650, Note_on_c, 2, 65, 0
7, 16650, Note_on_c, 2, 66, 64
7, 16680, Note_on_c, 2, 66, 0
7, 16680, Note_on_c, 2, 65, 64
7, 16715, Note_on_c, 2, 65, 0
7, 16740, Note_on_c, 2, 74, 64
7, 16800, Note_on_c, 2, 74, 0
7, 16800, Note_on_c, 2, 73, 64
7, 16860, Note_on_c, 2, 73, 0
7, 16860, Note_on_c, 2, 71, 64
7, 16920, Note_on_c, 2, 71, 0
7, 16920, Note_on_c, 2, 69, 64
7, 16980, Note_on_c, 2, 69, 0
7, 16980, Note_on_c, 2, 68, 64
7, 17010, Note_on_c, 2, 68, 0
7, 17010, Note_on_c, 2, 66, 64
7, 17040, Note_on_c, 2, 66, 0
7, 17040, Note_on_c, 2, 72, 64
7, 17220, Note_on_c, 2, 72, 0
7, 17220, Note_on_c, 2, 71, 64
7, 17255, Note_on_c, 2, 71, 0
7, 17280, Note_on_c, 2, 71, 64
7, 17340, Note_on_c, 2, 71, 0
7, 17340, Note_on_c, 2, 69, 64
7, 17375, Note_on_c, 2, 69, 0
7, 17400, Note_on_c, 2, 67, 64
7, 17520, Note_on_c, 2, 67, 0
7, 17580, Note_on_c, 2, 61, 64
7, 17640, Note_on_c, 2, 61, 0
7, 17640, Note_on_c, 2, 70, 64
7, 17820, Note_on_c, 2, 70, 0
7, 17820, Note_on_c, 2, 68, 64
7, 17850, Note_on_c, 2, 68, 0
7, 17850, Note_on_c, 2, 70, 64
7, 17880, Note_on_c, 2, 70, 0
7, 17880, Note_on_c, 2, 71, 64
7, 17940, Note_on_c, 2, 71, 0
7, 17940, Note_on_c, 2, 66, 64
7, 18000, Note_on_c, 2, 66, 0
7, 18000, Note_on_c, 2, 71, 64
7, 18240, Note_on_c, 2, 71, 0
7, 18240, Note_on_c, 2, 70, 64
7, 18360, Note_on_c, 2, 70, 0
7, 18360, Note_on_c, 2, 71, 64
7, 18480, Note_on_c, 2, 71, 0
7, 18540, Note_on_c, 2, 69, 64
7, 18600, Note_on_c, 2, 69, 0
7, 18600, Note_on_c, 2, 67, 64
7, 18630, Note_on_c, 2, 67, 0
7, 18630, Note_on_c, 2, 66, 64
7, 18660, Note_on_c, 2, 66, 0
7, 18660, Note_on_c, 2, 67, 64
7, 18690, Note_on_c, 2, 67, 0
7, 18690, Note_on_c, 2, 66, 64
7, 18720, Note_on_c, 2, 66, 0
7, 18720, Note_on_c, 2, 64, 64
7, 18960, Note_on_c, 2, 64, 0
7, 18960, Note_on_c, 2, 62, 64
7, 19020, Note_on_c, 2, 62, 0
7, 19020, Note_on_c, 2, 61, 64
7, 19080, Note_on_c, 2, 61, 0
7, 19080, Note_on_c, 2, 59, 64
7, 19140, Note_on_c, 2, 59, 0
7, 19140, Note_on_c, 2, 66, 64
7, 19200, Note_on_c, 2, 66, 0
7, 19200, Note_on_c, 2, 71, 64
7, 19260, Note_on_c, 2, 71, 0
7, 19260, Note_on_c, 2, 69, 64
7, 19320, Note_on_c, 2, 69, 0
7, 19320, Note_on_c, 2, 68, 64
7, 19560, Note_on_c, 2, 68, 0
7, 19560, Note_on_c, 2, 66, 64
7, 19680, Note_on_c, 2, 66, 0
7, 19740, Note_on_c, 2, 66, 64
7, 19860, Note_on_c, 2, 66, 0
7, 19860, Note_on_c, 2, 64, 64
7, 19920, Note_on_c, 2, 64, 0
7, 19920, Note_on_c, 2, 62, 64
7, 19980, Note_on_c, 2, 62, 0
7, 19980, Note_on_c, 2, 61, 64
7, 20010, Note_on_c, 2, 61, 0
7, 20010, Note_on_c, 2, 62, 64
7, 20040, Note_on_c, 2, 62, 0
7, 20040, Note_on_c, 2, 59, 64
7, 20075, Note_on_c, 2, 59, 0
7, 20100, Note_on_c, 2, 56, 64
7, 20160, Note_on_c, 2, 56, 0
7, 20160, Note_on_c, 2, 65, 64
7, 20280, Note_on_c, 2, 65, 0
7, 20280, Note_on_c, 2, 66, 64
7, 20400, Note_on_c, 2, 66, 0
7, 20580, Note_on_c, 2, 59, 64
7, 20640, Note_on_c, 2, 59, 0
7, 20640, Note_on_c, 2, 66, 64
7, 20700, Note_on_c, 2, 66, 0
7, 20700, Note_on_c, 2, 64, 64
7, 20730, Note_on_c, 2, 64, 0
7, 20730, Note_on_c, 2, 66, 64
7, 20760, Note_on_c, 2, 66, 0
7, 20760, Note_on_c, 2, 67, 64
7, 20820, Note_on_c, 2, 67, 0
7, 21060, Note_on_c, 2, 57, 64
7, 21120, Note_on_c, 2, 57, 0
7, 21120, Note_on_c, 2, 64, 64
7, 21180, Note_on_c, 2, 64, 0
7, 21180, Note_on_c, 2, 62, 64
7, 21210, Note_on_c, 2, 62, 0
7, 21210, Note_on_c, 2, 64, 64
7, 21240, Note_on_c, 2, 64, 0
7, 21240, Note_on_c, 2, 66, 64
7, 21360, Note_on_c, 2, 66, 0
7, 21420, Note_on_c, 2, 69, 70
7, 21480, Note_on_c, 2, 69, 0
7, 21480, Note_on_c, 2, 71, 72
7, 21720, Note_on_c, 2, 71, 0
7, 21720, Note_on_c, 2, 69, 80
7, 21780, Note_on_c, 2, 69, 0
7, 21780, Note_on_c, 2, 71, 80
7, 21840, Note_on_c, 2, 71, 0
7, 21840, Note_on_c, 2, 73, 80
7, 21900, Note_on_c, 2, 73, 0
7, 21900, Note_on_c, 2, 71, 80
7, 21930, Note_on_c, 2, 71, 0
7, 21930, Note_on_c, 2, 73, 80
7, 21960, Note_on_c, 2, 73, 0
7, 21960, Note_on_c, 2, 66, 80
7, 22140, Note_on_c, 2, 66, 0
7, 22140, Note_on_c, 2, 64, 80
7, 22170, Note_on_c, 2, 64, 0
7, 22170, Note_on_c, 2, 62, 80
7, 22200, Note_on_c, 2, 62, 0
7, 22200, Note_on_c, 2, 64, 80
7, 22380, Note_on_c, 2, 64, 0
7, 22380, Note_on_c, 2, 62, 80
7, 22410, Note_on_c, 2, 62, 0
7, 22410, Note_on_c, 2, 61, 80
7, 22440, Note_on_c, 2, 61, 0
7, 22440, Note_on_c, 2, 66, 80
7, 22500, Note_on_c, 2, 66, 0
7, 22500, Note_on_c, 2, 67, 80
7, 22560, Note_on_c, 2, 67, 0
7, 22560, Note_on_c, 2, 69, 80
7, 22595, Note_on_c, 2, 69, 0
7, 22620, Note_on_c, 2, 67, 80
7, 22650, Note_on_c, 2, 67, 0
7, 22650, Note_on_c, 2, 66, 80
7, 22680, Note_on_c, 2, 66, 0
7, 22680, Note_on_c, 2, 64, 80
7, 22860, Note_on_c, 2, 64, 0
7, 22860, Note_on_c, 2, 66, 80
7, 22920, Note_on_c, 2, 66, 0
7, 22920, Note_on_c, 2, 67, 80
7, 22980, Note_on_c, 2, 67, 0
7, 22980, Note_on_c, 2, 66, 80
7, 23010, Note_on_c, 2, 66, 0
7, 23010, Note_on_c, 2, 64, 80
7, 23040, Note_on_c, 2, 64, 0
7, 23040, Note_on_c, 2, 73, 80
7, 23160, Note_on_c, 2, 73, 0
7, 23160, Note_on_c, 2, 66, 80
7, 23280, Note_on_c, 2, 66, 0
7, 23340, Note_on_c, 2, 69, 80
7, 23400, Note_on_c, 2, 69, 0
7, 23400, Note_on_c, 2, 68, 80
7, 23460, Note_on_c, 2, 68, 0
7, 23460, Note_on_c, 2, 66, 80
7, 23520, Note_on_c, 2, 66, 0
7, 23520, Note_on_c, 2, 68, 80
7, 23555, Note_on_c, 2, 68, 0
7, 23580, Note_on_c, 2, 69, 80
7, 23610, Note_on_c, 2, 69, 0
7, 23610, Note_on_c, 2, 71, 80
7, 23640, Note_on_c, 2, 71, 0
7, 23640, Note_on_c, 2, 69, 80
7, 23700, Note_on_c, 2, 69, 0
7, 23700, Note_on_c, 2, 71, 80
7, 23760, Note_on_c, 2, 71, 0
7, 23760, Note_on_c, 2, 73, 80
7, 23880, Note_on_c, 2, 73, 0
7, 23880, Note_on_c, 2, 71, 80
7, 23940, Note_on_c, 2, 71, 0
7, 23940, Note_on_c, 2, 62, 80
7, 24000, Note_on_c, 2, 62, 0
7, 24000, Note_on_c, 2, 62, 80
7, 24060, Note_on_c, 2, 62, 0
7, 24060, Note_on_c, 2, 61, 80
7, 24090, Note_on_c, 2, 61, 0
7, 24090, Note_on_c, 2, 59, 80
7, 24120, Note_on_c, 2, 59, 0
7, 24120, Note_on_c, 2, 68, 80
7, 24155, Note_on_c, 2, 68, 0
7, 24180, Note_on_c, 2, 56, 80
7, 24240, Note_on_c, 2, 56, 0
7, 24240, Note_on_c, 2, 57, 80
7, 24300, Note_on_c, 2, 57, 0
7, 24300, Note_on_c, 2, 59, 80
7, 24360, Note_on_c, 2, 59, 0
7, 24360, Note_on_c, 2, 61, 80
7, 24420, Note_on_c, 2, 61, 0
7, 24420, Note_on_c, 2, 63, 80
7, 24480, Note_on_c, 2, 63, 0
7, 24480, Note_on_c, 2, 64, 80
7, 24515, Note_on_c, 2, 64, 0
7, 24540, Note_on_c, 2, 66, 80
7, 24570, Note_on_c, 2, 66, 0
7, 24570, Note_on_c, 2, 68, 80
7, 24600, Note_on_c, 2, 68, 0
7, 24600, Note_on_c, 2, 69, 80
7, 24660, Note_on_c, 2, 69, 0
7, 24660, Note_on_c, 2, 66, 80
7, 24720, Note_on_c, 2, 66, 0
7, 24720, Note_on_c, 2, 63, 80
7, 24780, Note_on_c, 2, 63, 0
7, 24780, Note_on_c, 2, 68, 80
7, 24840, Note_on_c, 2, 68, 0
7, 24840, Note_on_c, 2, 68, 80
7, 24960, Note_on_c, 2, 68, 0
7, 25020, Note_on_c, 2, 68, 80
7, 25080, Note_on_c, 2, 68, 0
7, 25080, Note_on_c, 2, 66, 80
7, 25140, Note_on_c, 2, 66, 0
7, 25140, Note_on_c, 2, 68, 80
7, 25200, Note_on_c, 2, 68, 0
7, 25200, Note_on_c, 2, 69, 80
7, 25260, Note_on_c, 2, 69, 0
7, 25260, Note_on_c, 2, 63, 80
7, 25320, Note_on_c, 2, 63, 0
7, 25320, Note_on_c, 2, 63, 80
7, 25440, Note_on_c, 2, 63, 0
7, 25440, Note_on_c, 2, 63, 80
7, 25500, Note_on_c, 2, 63, 0
7, 25500, Note_on_c, 2, 63, 80
7, 25560, Note_on_c, 2, 63, 0
7, 25560, Note_on_c, 2, 64, 80
7, 25620, Note_on_c, 2, 64, 0
7, 25620, Note_on_c, 2, 66, 80
7, 25680, Note_on_c, 2, 66, 0
7, 25680, Note_on_c, 2, 68, 80
7, 25740, Note_on_c, 2, 68, 0
7, 25740, Note_on_c, 2, 64, 80
7, 25800, Note_on_c, 2, 64, 0
7, 25800, Note_on_c, 2, 61, 80
7, 25920, Note_on_c, 2, 61, 0
7, 25920, Note_on_c, 2, 60, 80
7, 25980, Note_on_c, 2, 60, 0
7, 25980, Note_on_c, 2, 61, 80
7, 26040, Note_on_c, 2, 61, 0
7, 26040, Note_on_c, 2, 63, 80
7, 26160, Note_on_c, 2, 63, 0
7, 26160, Note_on_c, 2, 63, 80
7, 26220, Note_on_c, 2, 63, 0
7, 26220, Note_on_c, 2, 63, 80
7, 26280, Note_on_c, 2, 63, 0
7, 26280, Note_on_c, 2, 64, 80
7, 26340, Note_on_c, 2, 64, 0
7, 26340, Note_on_c, 2, 63, 80
7, 26400, Note_on_c, 2, 63, 0
7, 26400, Note_on_c, 2, 61, 80
7, 26580, Note_on_c, 2, 61, 0
7, 26580, Note_on_c, 2, 66, 80
7, 26640, Note_on_c, 2, 66, 0
7, 26640, Note_on_c, 2, 64, 80
7, 26700, Note_on_c, 2, 64, 0
7, 26820, Note_on_c, 2, 63, 80
7, 26880, Note_on_c, 2, 63, 0
7, 26880, Note_on_c, 2, 64, 80
7, 26940, Note_on_c, 2, 64, 0
7, 26940, Note_on_c, 2, 66, 80
7, 27000, Note_on_c, 2, 66, 0
7, 27000, Note_on_c, 2, 68, 80
7, 27060, Note_on_c, 2, 68, 0
7, 27060, Note_on_c, 2, 69, 80
7, 27120, Note_on_c, 2, 69, 0
7, 27120, Note_on_c, 2, 68, 80
7, 27180, Note_on_c, 2, 68, 0
7, 27180, Note_on_c, 2, 69, 80
7, 27240, Note_on_c, 2, 69, 0
7, 27240, Note_on_c, 2, 68, 80
7, 27300, Note_on_c, 2, 68, 0
7, 27300, Note_on_c, 2, 69, 80
7, 27330, Note_on_c, 2, 69, 0
7, 27330, Note_on_c, 2, 68, 80
7, 27360, Note_on_c, 2, 68, 0
7, 27360, Note_on_c, 2, 66, 80
7, 27420, Note_on_c, 2, 66, 0
7, 27420, Note_on_c, 2, 64, 80
7, 27480, Note_on_c, 2, 64, 0
7, 27480, Note_on_c, 2, 63, 80
7, 27600, Note_on_c, 2, 63, 0
7, 27600, Note_on_c, 2, 64, 80
7, 27660, Note_on_c, 2, 64, 0
7, 27660, Note_on_c, 2, 66, 80
7, 27720, Note_on_c, 2, 66, 0
7, 27720, Note_on_c, 2, 68, 80
7, 27780, Note_on_c, 2, 68, 0
7, 27780, Note_on_c, 2, 69, 80
7, 27840, Note_on_c, 2, 69, 0
7, 27840, Note_on_c, 2, 68, 80
7, 27900, Note_on_c, 2, 68, 0
7, 27900, Note_on_c, 2, 66, 80
7, 27960, Note_on_c, 2, 66, 0
7, 27960, Note_on_c, 2, 64, 80
7, 28080, Note_on_c, 2, 64, 0
7, 28500, Note_on_c, 2, 66, 47
7, 28560, Note_on_c, 2, 66, 0
7, 28560, Note_on_c, 2, 71, 48
7, 28740, Note_on_c, 2, 71, 0
7, 28740, Note_on_c, 2, 69, 54
7, 28800, Note_on_c, 2, 69, 0
7, 28800, Note_on_c, 2, 68, 55
7, 28860, Note_on_c, 2, 68, 0
7, 28860, Note_on_c, 2, 66, 57
7, 28890, Note_on_c, 2, 66, 0
7, 28890, Note_on_c, 2, 65, 58
7, 28920, Note_on_c, 2, 65, 0
7, 28920, Note_on_c, 2, 66, 59
7, 29040, Note_on_c, 2, 66, 0
7, 29040, Note_on_c, 2, 61, 62
7, 29160, Note_on_c, 2, 61, 0
7, 29580, Note_on_c, 2, 67, 77
7, 29640, Note_on_c, 2, 67, 0
7, 29640, Note_on_c, 2, 66, 79
7, 29700, Note_on_c, 2, 66, 0
7, 29700, Note_on_c, 2, 64, 81
7, 29730, Note_on_c, 2, 64, 0
7, 29730, Note_on_c, 2, 62, 82
7, 29760, Note_on_c, 2, 62, 0
7, 29760, Note_on_c, 2, 61, 83
7, 29820, Note_on_c, 2, 61, 0
7, 29820, Note_on_c, 2, 66, 84
7, 29880, Note_on_c, 2, 66, 0
7, 29880, Note_on_c, 2, 66, 85
7, 29951, Note_on_c, 2, 66, 0
7, 30060, Note_on_c, 2, 62, 85
7, 30071, Note_on_c, 2, 62, 0
7, 30120, Note_on_c, 2, 61, 85
7, 30191, Note_on_c, 2, 61, 0
7, 30300, Note_on_c, 2, 68, 85
7, 30311, Note_on_c, 2, 68, 0
7, 30360, Note_on_c, 2, 68, 85
7, 30431, Note_on_c, 2, 68, 0
7, 30540, Note_on_c, 2, 70, 85
7, 30551, Note_on_c, 2, 70, 0
7, 30600, Note_on_c, 2, 66, 85
7, 30671, Note_on_c, 2, 66, 0
7, 30780, Note_on_c, 2, 68, 85
7, 30815, Note_on_c, 2, 68, 0
7, 30840, Note_on_c, 2, 64, 78
7, 30900, Note_on_c, 2, 64, 0
7, 30900, Note_on_c, 2, 68, 74
7, 30960, Note_on_c, 2, 68, 0
7, 30960, Note_on_c, 2, 69, 71
7, 30995, Note_on_c, 2, 69, 0
7, 31020, Note_on_c, 2, 66, 67
7, 31080, Note_on_c, 2, 66, 0
7, 31080, Note_on_c, 2, 68, 64
7, 31200, Note_on_c, 2, 68, 0
7, 31200, Note_on_c, 2, 68, 57
7, 31235, Note_on_c, 2, 68, 0
7, 31260, Note_on_c, 2, 65, 53
7, 31320, Note_on_c, 2, 65, 0
7, 31320, Note_on_c, 2, 61, 50
7, 31500, Note_on_c, 2, 61, 0
7, 31500, Note_on_c, 2, 59, 53
7, 31530, Note_on_c, 2, 59, 0
7, 31530, Note_on_c, 2, 57, 53
7, 31560, Note_on_c, 2, 57, 0
7, 31560, Note_on_c, 2, 59, 54
7, 31740, Note_on_c, 2, 59, 0
7, 31740, Note_on_c, 2, 57, 56
7, 31770, Note_on_c, 2, 57, 0
7, 31770, Note_on_c, 2, 56, 57
7, 31800, Note_on_c, 2, 56, 0
7, 31800, Note_on_c, 2, 61, 57
7, 31920, Note_on_c, 2, 61, 0
7, 31980, Note_on_c, 2, 66, 60
7, 32100, Note_on_c, 2, 66, 0
7, 32100, Note_on_c, 2, 73, 61
7, 32160, Note_on_c, 2, 73, 0
7, 32160, Note_on_c, 2, 71, 62
7, 32220, Note_on_c, 2, 71, 0
7, 32220, Note_on_c, 2, 69, 63
7, 32280, Note_on_c, 2, 69, 0
7, 32280, Note_on_c, 2, 68, 64
7, 32460, Note_on_c, 2, 68, 0
7, 32460, Note_on_c, 2, 66, 64
7, 32490, Note_on_c, 2, 66, 0
7, 32490, Note_on_c, 2, 68, 64
7, 32520, Note_on_c, 2, 68, 0
7, 32520, Note_on_c, 2, 69, 64
7, 32580, Note_on_c, 2, 69, 0
7, 32580, Note_on_c, 2, 71, 64
7, 32640, Note_on_c, 2, 71, 0
7, 32640, Note_on_c, 2, 73, 64
7, 32700, Note_on_c, 2, 73, 0
7, 32700, Note_on_c, 2, 69, 64
7, 32760, Note_on_c, 2, 69, 0
7, 32760, Note_on_c, 2, 66, 64
7, 32940, Note_on_c, 2, 66, 0
7, 32940, Note_on_c, 2, 65, 64
7, 32970, Note_on_c, 2, 65, 0
7, 32970, Note_on_c, 2, 66, 64
7, 33000, Note_on_c, 2, 66, 0
7, 33000, Note_on_c, 2, 68, 64
7, 33180, Note_on_c, 2, 68, 0
7, 33180, Note_on_c, 2, 66, 64
7, 33210, Note_on_c, 2, 66, 0
7, 33210, Note_on_c, 2, 68, 64
7, 33240, Note_on_c, 2, 68, 0
7, 33240, Note_on_c, 2, 69, 64
7, 33300, Note_on_c, 2, 69, 0
7, 33300, Note_on_c, 2, 68, 64
7, 33360, Note_on_c, 2, 68, 0
7, 33360, Note_on_c, 2, 66, 64
7, 33480, Note_on_c, 2, 66, 0
7, 33540, Note_on_c, 2, 68, 64
7, 33600, Note_on_c, 2, 68, 0
7, 33600, Note_on_c, 2, 69, 64
7, 33635, Note_on_c, 2, 69, 0
7, 33660, Note_on_c, 2, 66, 64
7, 33720, Note_on_c, 2, 66, 0
7, 33720, Note_on_c, 2, 65, 64
7, 33755, Note_on_c, 2, 65, 0
7, 33780, Note_on_c, 2, 71, 65
7, 33840, Note_on_c, 2, 71, 0
7, 33840, Note_on_c, 2, 69, 65
7, 33900, Note_on_c, 2, 69, 0
7, 33900, Note_on_c, 2, 68, 66
7, 33960, Note_on_c, 2, 68, 0
7, 33960, Note_on_c, 2, 66, 67
7, 33995, Note_on_c, 2, 66, 0
7, 34020, Note_on_c, 2, 59, 67
7, 34080, Note_on_c, 2, 59, 0
7, 34080, Note_on_c, 2, 57, 68
7, 34115, Note_on_c, 2, 57, 0
7, 34140, Note_on_c, 2, 56, 69
7, 34200, Note_on_c, 2, 56, 0
7, 34200, Note_on_c, 2, 57, 69
7, 34260, Note_on_c, 2, 57, 0
7, 34260, Note_on_c, 2, 59, 70
7, 34290, Note_on_c, 2, 59, 0
7, 34290, Note_on_c, 2, 61, 70
7, 34320, Note_on_c, 2, 61, 0
7, 34320, Note_on_c, 2, 62, 71
7, 34380, Note_on_c, 2, 62, 0
7, 34380, Note_on_c, 2, 61, 71
7, 34440, Note_on_c, 2, 61, 0
7, 34440, Note_on_c, 2, 59, 72
7, 34475, Note_on_c, 2, 59, 0
7, 34500, Note_on_c, 2, 65, 73
7, 34560, Note_on_c, 2, 65, 0
7, 34560, Note_on_c, 2, 66, 73
7, 34620, Note_on_c, 2, 66, 0
7, 34620, Note_on_c, 2, 68, 74
7, 34680, Note_on_c, 2, 68, 0
7, 34680, Note_on_c, 2, 69, 75
7, 34740, Note_on_c, 2, 69, 0
7, 34740, Note_on_c, 2, 66, 75
7, 34800, Note_on_c, 2, 66, 0
7, 34800, Note_on_c, 2, 61, 76
7, 34920, Note_on_c, 2, 61, 0
7, 34920, Note_on_c, 2, 61, 77
7, 35040, Note_on_c, 2, 61, 0
7, 42360, Note_on_c, 2, 59, 64
7, 42450, Note_on_c, 2, 59, 0
7, 42450, Note_on_c, 2, 59, 64
7, 42480, Note_on_c, 2, 59, 0
7, 42480, Note_on_c, 2, 59, 64
7, 42515, Note_on_c, 2, 59, 0
7, 42540, Note_on_c, 2, 59, 64
7, 42600, Note_on_c, 2, 59, 0
7, 42600, Note_on_c, 2, 61, 64
7, 42660, Note_on_c, 2, 61, 0
7, 42660, Note_on_c, 2, 55, 64
7, 42720, Note_on_c, 2, 55, 0
7, 42720, Note_on_c, 2, 54, 64
7, 42755, Note_on_c, 2, 54, 0
7, 42780, Note_on_c, 2, 61, 64
7, 42840, Note_on_c, 2, 61, 0
7, 42840, Note_on_c, 2, 62, 64
7, 42900, Note_on_c, 2, 62, 0
7, 42900, Note_on_c, 2, 55, 64
7, 42960, Note_on_c, 2, 55, 0
7, 42960, Note_on_c, 2, 54, 64
7, 42995, Note_on_c, 2, 54, 0
7, 43020, Note_on_c, 2, 63, 64
7, 43080, Note_on_c, 2, 63, 0
7, 43080, Note_on_c, 2, 64, 64
7, 43110, Note_on_c, 2, 64, 0
7, 43110, Note_on_c, 2, 62, 64
7, 43140, Note_on_c, 2, 62, 0
7, 43140, Note_on_c, 2, 60, 64
7, 43230, Note_on_c, 2, 60, 0
7, 43230, Note_on_c, 2, 59, 64
7, 43260, Note_on_c, 2, 59, 0
7, 43260, Note_on_c, 2, 58, 64
7, 43290, Note_on_c, 2, 58, 0
7, 43290, Note_on_c, 2, 59, 64
7, 43320, Note_on_c, 2, 59, 0
7, 43320, Note_on_c, 2, 58, 64
7, 43355, Note_on_c, 2, 58, 0
7, 43380, Note_on_c, 2, 67, 64
7, 43440, Note_on_c, 2, 67, 0
7, 43440, Note_on_c, 2, 66, 64
7, 43500, Note_on_c, 2, 66, 0
7, 43500, Note_on_c, 2, 64, 64
7, 43560, Note_on_c, 2, 64, 0
7, 43560, Note_on_c, 2, 62, 64
7, 43620, Note_on_c, 2, 62, 0
7, 43620, Note_on_c, 2, 61, 64
7, 43650, Note_on_c, 2, 61, 0
7, 43650, Note_on_c, 2, 59, 64
7, 43680, Note_on_c, 2, 59, 0
7, 43680, Note_on_c, 2, 66, 64
7, 43920, Note_on_c, 2, 66, 0
7, 43920, Note_on_c, 2, 65, 64
7, 44040, Note_on_c, 2, 65, 0
7, 44040, Note_on_c, 2, 66, 64
7, 44160, Note_on_c, 2, 66, 0
7, 44580, Note_on_c, 2, 71, 64
7, 44640, Note_on_c, 2, 71, 0
7, 44640, Note_on_c, 2, 68, 64
7, 44700, Note_on_c, 2, 68, 0
7, 44700, Note_on_c, 2, 65, 64
7, 44760, Note_on_c, 2, 65, 0
7, 44760, Note_on_c, 2, 66, 64
7, 44820, Note_on_c, 2, 66, 0
7, 44820, Note_on_c, 2, 68, 64
7, 44880, Note_on_c, 2, 68, 0
7, 44880, Note_on_c, 2, 69, 64
7, 44940, Note_on_c, 2, 69, 0
7, 44940, Note_on_c, 2, 62, 64
7, 45000, Note_on_c, 2, 62, 0
7, 45000, Note_on_c, 2, 68, 64
7, 45060, Note_on_c, 2, 68, 0
7, 45060, Note_on_c, 2, 69, 64
7, 45120, Note_on_c, 2, 69, 0
7, 45120, Note_on_c, 2, 71, 64
7, 45300, Note_on_c, 2, 71, 0
7, 45300, Note_on_c, 2, 64, 64
7, 45360, Note_on_c, 2, 64, 0
7, 45360, Note_on_c, 2, 71, 64
7, 45420, Note_on_c, 2, 71, 0
7, 45420, Note_on_c, 2, 73, 64
7, 45450, Note_on_c, 2, 73, 0
7, 45450, Note_on_c, 2, 71, 64
7, 45480, Note_on_c, 2, 71, 0
7, 45480, Note_on_c, 2, 70, 64
7, 45540, Note_on_c, 2, 70, 0
7, 45540, Note_on_c, 2, 71, 64
7, 45600, Note_on_c, 2, 71, 0
7, 45600, Note_on_c, 2, 73, 64
7, 45720, Note_on_c, 2, 73, 0
7, 45720, Note_on_c, 2, 71, 64
7, 45780, Note_on_c, 2, 71, 0
7, 45780, Note_on_c, 2, 69, 64
7, 45840, Note_on_c, 2, 69, 0
7, 45840, Note_on_c, 2, 68, 64
7, 45900, Note_on_c, 2, 68, 0
7, 45900, Note_on_c, 2, 66, 64
7, 45960, Note_on_c, 2, 66, 0
7, 45960, Note_on_c, 2, 65, 64
7, 46020, Note_on_c, 2, 65, 0
7, 46020, Note_on_c, 2, 66, 64
7, 46080, Note_on_c, 2, 66, 0
7, 46080, Note_on_c, 2, 68, 64
7, 46115, Note_on_c, 2, 68, 0
7, 46140, Note_on_c, 2, 66, 64
7, 46170, Note_on_c, 2, 66, 0
7, 46170, Note_on_c, 2, 65, 64
7, 46200, Note_on_c, 2, 65, 0
7, 46200, Note_on_c, 2, 66, 64
7, 46260, Note_on_c, 2, 66, 0
7, 46260, Note_on_c, 2, 61, 64
7, 46320, Note_on_c, 2, 61, 0
7, 46320, Note_on_c, 2, 66, 64
7, 46380, Note_on_c, 2, 66, 0
7, 46380, Note_on_c, 2, 64, 64
7, 46440, Note_on_c, 2, 64, 0
7, 46440, Note_on_c, 2, 63, 64
7, 46500, Note_on_c, 2, 63, 0
7, 46500, Note_on_c, 2, 64, 64
7, 46560, Note_on_c, 2, 64, 0
7, 46560, Note_on_c, 2, 66, 64
7, 46595, Note_on_c, 2, 66, 0
7, 46620, Note_on_c, 2, 64, 64
7, 46650, Note_on_c, 2, 64, 0
7, 46650, Note_on_c, 2, 63, 64
7, 46680, Note_on_c, 2, 63, 0
7, 46680, Note_on_c, 2, 64, 64
7, 46860, Note_on_c, 2, 64, 0
7, 46860, Note_on_c, 2, 66, 64
7, 46890, Note_on_c, 2, 66, 0
7, 46890, Note_on_c, 2, 67, 64
7, 46920, Note_on_c, 2, 67, 0
7, 46920, Note_on_c, 2, 69, 64
7, 47100, Note_on_c, 2, 69, 0
7, 47100, Note_on_c, 2, 71, 64
7, 47130, Note_on_c, 2, 71, 0
7, 47130, Note_on_c, 2, 69, 64
7, 47160, Note_on_c, 2, 69, 0
7, 47160, Note_on_c, 2, 67, 64
7, 47220, Note_on_c, 2, 67, 0
7, 47220, Note_on_c, 2, 66, 64
7, 47280, Note_on_c, 2, 66, 0
7, 47280, Note_on_c, 2, 64, 64
7, 47460, Note_on_c, 2, 64, 0
7, 47460, Note_on_c, 2, 62, 64
7, 47520, Note_on_c, 2, 62, 0
7, 47520, Note_on_c, 2, 60, 64
7, 47580, Note_on_c, 2, 60, 0
7, 47580, Note_on_c, 2, 57, 64
7, 47640, Note_on_c, 2, 57, 0
7, 47640, Note_on_c, 2, 66, 64
7, 47675, Note_on_c, 2, 66, 0
7, 47700, Note_on_c, 2, 63, 64
7, 47760, Note_on_c, 2, 63, 0
7, 47760, Note_on_c, 2, 64, 64
7, 47820, Note_on_c, 2, 64, 0
7, 47820, Note_on_c, 2, 66, 64
7, 47880, Note_on_c, 2, 66, 0
7, 47880, Note_on_c, 2, 67, 64
7, 47940, Note_on_c, 2, 67, 0
7, 47940, Note_on_c, 2, 69, 64
7, 48000, Note_on_c, 2, 69, 0
7, 48000, Note_on_c, 2, 71, 64
7, 48060, Note_on_c, 2, 71, 0
7, 48060, Note_on_c, 2, 69, 64
7, 48120, Note_on_c, 2, 69, 0
7, 48120, Note_on_c, 2, 68, 64
7, 48180, Note_on_c, 2, 68, 0
7, 48180, Note_on_c, 2, 66, 64
7, 48240, Note_on_c, 2, 66, 0
7, 48240, Note_on_c, 2, 64, 64
7, 48275, Note_on_c, 2, 64, 0
7, 48420, Note_on_c, 2, 64, 64
7, 48480, Note_on_c, 2, 64, 0
7, 48480, Note_on_c, 2, 69, 64
7, 48540, Note_on_c, 2, 69, 0
7, 48540, Note_on_c, 2, 64, 64
7, 48600, Note_on_c, 2, 64, 0
7, 48600, Note_on_c, 2, 61, 64
7, 48720, Note_on_c, 2, 61, 0
7, 48720, Note_on_c, 2, 66, 64
7, 48840, Note_on_c, 2, 66, 0
7, 48840, Note_on_c, 2, 66, 64
7, 48990, Note_on_c, 2, 66, 0
7, 48990, Note_on_c, 2, 64, 64
7, 49020, Note_on_c, 2, 64, 0
7, 49020, Note_on_c, 2, 62, 64
7, 49050, Note_on_c, 2, 62, 0
7, 49050, Note_on_c, 2, 61, 64
7, 49080, Note_on_c, 2, 61, 0
7, 49080, Note_on_c, 2, 62, 64
7, 49140, Note_on_c, 2, 62, 0
7, 49140, Note_on_c, 2, 61, 64
7, 49170, Note_on_c, 2, 61, 0
7, 49170, Note_on_c, 2, 59, 64
7, 49200, Note_on_c, 2, 59, 0
7, 49200, Note_on_c, 2, 71, 64
7, 49440, Note_on_c, 2, 71, 0
7, 49440, Note_on_c, 2, 70, 64
7, 49560, Note_on_c, 2, 70, 0
7, 49560, Note_on_c, 2, 71, 64
7, 49620, Note_on_c, 2, 71, 0
7, 49620, Note_on_c, 2, 64, 64
7, 49680, Note_on_c, 2, 64, 0
7, 49680, Note_on_c, 2, 63, 64
7, 49715, Note_on_c, 2, 63, 0
7, 49740, Note_on_c, 2, 66, 64
7, 49800, Note_on_c, 2, 66, 0
7, 49800, Note_on_c, 2, 71, 64
7, 49920, Note_on_c, 2, 71, 0
7, 49920, Note_on_c, 2, 64, 64
7, 49980, Note_on_c, 2, 64, 0
7, 49980, Note_on_c, 2, 64, 64
7, 50100, Note_on_c, 2, 64, 0
7, 50100, Note_on_c, 2, 58, 75
7, 50160, Note_on_c, 2, 58, 0
7, 50160, Note_on_c, 2, 59, 75
7, 50220, Note_on_c, 2, 59, 0
7, 50220, Note_on_c, 2, 61, 75
7, 50280, Note_on_c, 2, 61, 0
7, 50280, Note_on_c, 2, 62, 75
7, 50400, Note_on_c, 2, 62, 0
7, 50400, Note_on_c, 2, 61, 75
7, 50520, Note_on_c, 2, 61, 0
7, 50520, Note_on_c, 2, 59, 75
7, 50580, Note_on_c, 2, 59, 0
7, 50580, Note_on_c, 2, 59, 75
7, 50700, Note_on_c, 2, 59, 0
7, 50700, Note_on_c, 2, 59, 75
7, 50760, Note_on_c, 2, 59, 0
7, 50760, Note_on_c, 2, 57, 75
7, 50820, Note_on_c, 2, 57, 0
7, 50820, Note_on_c, 2, 56, 75
7, 50880, Note_on_c, 2, 56, 0
7, 50880, Note_on_c, 2, 58, 75
7, 50915, Note_on_c, 2, 58, 0
7, 50940, Note_on_c, 2, 61, 75
7, 51000, Note_on_c, 2, 61, 0
7, 51000, Note_on_c, 2, 66, 75
7, 51060, Note_on_c, 2, 66, 0
7, 51060, Note_on_c, 2, 58, 75
7, 51120, Note_on_c, 2, 58, 0
7, 51120, Note_on_c, 2, 59, 75
7, 51300, Note_on_c, 2, 59, 0
7, 51300, Note_on_c, 2, 57, 75
7, 51360, Note_on_c, 2, 57, 0
7, 51360, Note_on_c, 2, 56, 75
7, 51420, Note_on_c, 2, 56, 0
7, 51420, Note_on_c, 2, 61, 75
7, 51540, Note_on_c, 2, 61, 0
7, 51540, Note_on_c, 2, 59, 75
7, 51600, Note_on_c, 2, 59, 0
7, 51600, Note_on_c, 2, 57, 75
7, 51660, Note_on_c, 2, 57, 0
7, 51660, Note_on_c, 2, 61, 75
7, 51720, Note_on_c, 2, 61, 0
7, 51720, Note_on_c, 2, 62, 75
7, 51780, Note_on_c, 2, 62, 0
7, 51780, Note_on_c, 2, 61, 75
7, 51840, Note_on_c, 2, 61, 0
7, 51840, Note_on_c, 2, 59, 75
7, 52080, Note_on_c, 2, 59, 0
7, 52080, Note_on_c, 2, 61, 75
7, 52380, Note_on_c, 2, 61, 0
7, 52380, Note_on_c, 2, 59, 75
7, 52410, Note_on_c, 2, 59, 0
7, 52410, Note_on_c, 2, 61, 75
7, 52440, Note_on_c, 2, 61, 0
7, 52440, Note_on_c, 2, 62, 75
7, 52500, Note_on_c, 2, 62, 0
7, 52500, Note_on_c, 2, 56, 75
7, 52560, Note_on_c, 2, 56, 0
7, 52560, Note_on_c, 2, 57, 75
7, 52595, Note_on_c, 2, 57, 0
7, 52620, Note_on_c, 2, 66, 75
7, 52680, Note_on_c, 2, 66, 0
7, 52680, Note_on_c, 2, 65, 75
7, 52715, Note_on_c, 2, 65, 0
7, 52740, Note_on_c, 2, 71, 75
7, 52800, Note_on_c, 2, 71, 0
7, 52800, Note_on_c, 2, 69, 75
7, 52860, Note_on_c, 2, 69, 0
7, 52860, Note_on_c, 2, 68, 75
7, 52920, Note_on_c, 2, 68, 0
7, 52920, Note_on_c, 2, 66, 75
7, 52980, Note_on_c, 2, 66, 0
7, 52980, Note_on_c, 2, 59, 75
7, 53040, Note_on_c, 2, 59, 0
7, 53040, Note_on_c, 2, 57, 76
7, 53100, Note_on_c, 2, 57, 0
7, 53100, Note_on_c, 2, 56, 76
7, 53160, Note_on_c, 2, 56, 0
7, 53160, Note_on_c, 2, 57, 77
7, 53220, Note_on_c, 2, 57, 0
7, 53220, Note_on_c, 2, 59, 77
7, 53250, Note_on_c, 2, 59, 0
7, 53250, Note_on_c, 2, 61, 77
7, 53280, Note_on_c, 2, 61, 0
7, 53280, Note_on_c, 2, 62, 78
7, 53340, Note_on_c, 2, 62, 0
7, 53340, Note_on_c, 2, 61, 78
7, 53400, Note_on_c, 2, 61, 0
7, 53400, Note_on_c, 2, 59, 79
7, 53460, Note_on_c, 2, 59, 0
7, 53460, Note_on_c, 2, 65, 79
7, 53520, Note_on_c, 2, 65, 0
7, 53520, Note_on_c, 2, 66, 79
7, 53580, Note_on_c, 2, 66, 0
7, 53580, Note_on_c, 2, 68, 80
7, 53640, Note_on_c, 2, 68, 0
7, 53640, Note_on_c, 2, 61, 80
7, 53700, Note_on_c, 2, 61, 0
7, 53700, Note_on_c, 2, 66, 81
7, 53730, Note_on_c, 2, 66, 0
7, 53730, Note_on_c, 2, 68, 81
7, 53760, Note_on_c, 2, 68, 0
7, 53760, Note_on_c, 2, 68, 81
7, 53880, Note_on_c, 2, 68, 0
7, 53880, Note_on_c, 2, 69, 82
7, 53940, Note_on_c, 2, 69, 0
7, 53940, Note_on_c, 2, 66, 40
7, 53970, Note_on_c, 2, 66, 0
7, 53970, Note_on_c, 2, 67, 40
7, 54000, Note_on_c, 2, 67, 0
7, 54000, Note_on_c, 2, 69, 40
7, 54180, Note_on_c, 2, 69, 0
7, 54180, Note_on_c, 2, 67, 40
7, 54240, Note_on_c, 2, 67, 0
7, 54240, Note_on_c, 2, 66, 40
7, 54300, Note_on_c, 2, 66, 0
7, 54300, Note_on_c, 2, 64, 40
7, 54330, Note_on_c, 2, 64, 0
7, 54330, Note_on_c, 2, 63, 40
7, 54360, Note_on_c, 2, 63, 0
7, 54360, Note_on_c, 2, 64, 40
7, 54480, Note_on_c, 2, 64, 0
7, 54480, Note_on_c, 2, 59, 44
7, 54600, Note_on_c, 2, 59, 0
7, 54900, Note_on_c, 2, 66, 57
7, 54960, Note_on_c, 2, 66, 0
7, 54960, Note_on_c, 2, 71, 59
7, 55140, Note_on_c, 2, 71, 0
7, 55140, Note_on_c, 2, 69, 64
7, 55200, Note_on_c, 2, 69, 0
7, 55200, Note_on_c, 2, 68, 66
7, 55260, Note_on_c, 2, 68, 0
7, 55260, Note_on_c, 2, 66, 68
7, 55290, Note_on_c, 2, 66, 0
7, 55290, Note_on_c, 2, 65, 69
7, 55320, Note_on_c, 2, 65, 0
7, 55320, Note_on_c, 2, 66, 70
7, 55440, Note_on_c, 2, 66, 0
7, 55440, Note_on_c, 2, 61, 74
7, 55500, Note_on_c, 2, 61, 0
7, 55500, Note_on_c, 2, 69, 76
7, 55560, Note_on_c, 2, 69, 0
7, 55560, Note_on_c, 2, 66, 78
7, 55620, Note_on_c, 2, 66, 0
7, 55620, Note_on_c, 2, 66, 79
7, 55680, Note_on_c, 2, 66, 0
7, 55680, Note_on_c, 2, 63, 81
7, 55740, Note_on_c, 2, 63, 0
7, 55740, Note_on_c, 2, 64, 83
7, 55770, Note_on_c, 2, 64, 0
7, 55770, Note_on_c, 2, 66, 84
7, 55800, Note_on_c, 2, 66, 0
7, 55800, Note_on_c, 2, 64, 85
7, 55871, Note_on_c, 2, 64, 0
7, 55980, Note_on_c, 2, 61, 85
7, 56015, Note_on_c, 2, 61, 0
7, 56040, Note_on_c, 2, 62, 85
7, 56111, Note_on_c, 2, 62, 0
7, 56220, Note_on_c, 2, 68, 85
7, 56255, Note_on_c, 2, 68, 0
7, 56280, Note_on_c, 2, 66, 85
7, 56351, Note_on_c, 2, 66, 0
7, 56460, Note_on_c, 2, 66, 85
7, 56495, Note_on_c, 2, 66, 0
7, 56520, Note_on_c, 2, 64, 85
7, 56591, Note_on_c, 2, 64, 0
7, 56700, Note_on_c, 2, 64, 85
7, 56735, Note_on_c, 2, 64, 0
7, 56760, Note_on_c, 2, 62, 85
7, 56790, Note_on_c, 2, 62, 0
7, 56790, Note_on_c, 2, 61, 85
7, 56820, Note_on_c, 2, 61, 0
7, 56820, Note_on_c, 2, 62, 85
7, 56850, Note_on_c, 2, 62, 0
7, 56850, Note_on_c, 2, 64, 85
7, 56880, Note_on_c, 2, 64, 0
7, 56880, Note_on_c, 2, 66, 85
7, 56940, Note_on_c, 2, 66, 0
7, 56940, Note_on_c, 2, 67, 85
7, 56970, Note_on_c, 2, 67, 0
7, 56970, Note_on_c, 2, 66, 85
7, 57000, Note_on_c, 2, 66, 0
7, 57000, Note_on_c, 2, 64, 85
7, 57120, Note_on_c, 2, 64, 0
7, 57120, Note_on_c, 2, 66, 85
7, 57155, Note_on_c, 2, 66, 0
7, 57180, Note_on_c, 2, 61, 85
7, 57240, Note_on_c, 2, 61, 0
7, 57240, Note_on_c, 2, 62, 85
7, 57480, Note_on_c, 2, 62, 0
7, 57480, Note_on_c, 2, 61, 85
7, 57540, Note_on_c, 2, 61, 0
7, 57540, Note_on_c, 2, 59, 85
7, 57600, Note_on_c, 2, 59, 0
7, 57600, Note_on_c, 2, 61, 85
7, 57720, Note_on_c, 2, 61, 0
7, 57720, Note_on_c, 2, 59, 85
7, 57780, Note_on_c, 2, 59, 0
7, 57780, Note_on_c, 2, 71, 85
7, 57840, Note_on_c, 2, 71, 0
7, 57840, Note_on_c, 2, 69, 85
7, 57900, Note_on_c, 2, 69, 0
7, 57900, Note_on_c, 2, 67, 85
7, 57930, Note_on_c, 2, 67, 0
7, 57930, Note_on_c, 2, 66, 85
7, 57960, Note_on_c, 2, 66, 0
7, 57960, Note_on_c, 2, 67, 85
7, 58080, Note_on_c, 2, 67, 0
7, 58140, Note_on_c, 2, 62, 85
7, 58200, Note_on_c, 2, 62, 0
7, 58200, Note_on_c, 2, 64, 85
7, 58320, Note_on_c, 2, 64, 0
7, 58320, Note_on_c, 2, 66, 85
7, 58380, Note_on_c, 2, 66, 0
7, 58380, Note_on_c, 2, 66, 85
7, 58500, Note_on_c, 2, 66, 0
7, 58500, Note_on_c, 2, 64, 85
7, 58560, Note_on_c, 2, 64, 0
7, 58560, Note_on_c, 2, 62, 85
7, 58620, Note_on_c, 2, 62, 0
7, 58620, Note_on_c, 2, 66, 85
7, 58680, Note_on_c, 2, 66, 0
7, 58680, Note_on_c, 2, 67, 85
7, 58740, Note_on_c, 2, 67, 0
7, 58740, Note_on_c, 2, 66, 85
7, 58800, Note_on_c, 2, 66, 0
7, 58800, Note_on_c, 2, 64, 85
7, 59040, Note_on_c, 2, 64, 0
7, 59040, Note_on_c, 2, 66, 85
7, 59100, Note_on_c, 2, 66, 0
7, 59100, Note_on_c, 2, 66, 85
7, 59160, Note_on_c, 2, 66, 0
7, 59160, Note_on_c, 2, 66, 85
7, 59340, Note_on_c, 2, 66, 0
7, 59340, Note_on_c, 2, 64, 85
7, 59370, Note_on_c, 2, 64, 0
7, 59370, Note_on_c, 2, 66, 85
7, 59400, Note_on_c, 2, 66, 0
7, 59400, Note_on_c, 2, 67, 85
7, 59435, Note_on_c, 2, 67, 0
7, 59460, Note_on_c, 2, 64, 85
7, 59520, Note_on_c, 2, 64, 0
7, 59520, Note_on_c, 2, 62, 85
7, 59640, Note_on_c, 2, 62, 0
7, 59640, Note_on_c, 2, 64, 85
7, 59675, Note_on_c, 2, 64, 0
7, 59700, Note_on_c, 2, 64, 86
7, 59760, Note_on_c, 2, 64, 0
7, 59760, Note_on_c, 2, 66, 86
7, 59820, Note_on_c, 2, 66, 0
7, 59820, Note_on_c, 2, 58, 87
7, 59880, Note_on_c, 2, 58, 0
7, 59880, Note_on_c, 2, 59, 88
7, 59915, Note_on_c, 2, 59, 0
7, 59940, Note_on_c, 2, 61, 88
7, 60000, Note_on_c, 2, 61, 0
7, 60000, Note_on_c, 2, 54, 89
7, 60060, Note_on_c, 2, 54, 0
7, 60060, Note_on_c, 2, 67, 89
7, 60120, Note_on_c, 2, 67, 0
7, 60120, Note_on_c, 2, 66, 90
7, 60180, Note_on_c, 2, 66, 0
7, 60180, Note_on_c, 2, 67, 91
7, 60210, Note_on_c, 2, 67, 0
7, 60210, Note_on_c, 2, 66, 91
7, 60240, Note_on_c, 2, 66, 0
7, 60240, Note_on_c, 2, 64, 91
7, 60300, Note_on_c, 2, 64, 0
7, 60300, Note_on_c, 2, 62, 92
7, 60360, Note_on_c, 2, 62, 0
7, 60360, Note_on_c, 2, 61, 93
7, 60480, Note_on_c, 2, 61, 0
7, 60480, Note_on_c, 2, 62, 94
7, 60540, Note_on_c, 2, 62, 0
7, 60540, Note_on_c, 2, 64, 94
7, 60600, Note_on_c, 2, 64, 0
7, 60600, Note_on_c, 2, 66, 95
7, 60660, Note_on_c, 2, 66, 0
7, 60660, Note_on_c, 2, 67, 96
7, 60720, Note_on_c, 2, 67, 0
7, 60720, Note_on_c, 2, 66, 96
7, 60780, Note_on_c, 2, 66, 0
7, 60780, Note_on_c, 2, 64, 97
7, 60840, Note_on_c, 2, 64, 0
7, 60840, Note_on_c, 2, 63, 98
7, 61200, Note_on_c, 2, 63, 0
7, 61560, End_track
8, 0, Start_track
8, 0, MIDI_port, 0
8, 0, Title_t, "Bass"
8, 0, Program_c, 4, 53
8, 480, Control_c, 4, 7, 127
8, 480, Note_on_c, 4, 47, 80
8, 660, Note_on_c, 4, 47, 0
8, 660, Note_on_c, 4, 47, 80
8, 720, Note_on_c, 4, 47, 0
8, 720, Note_on_c, 4, 49, 80
8, 840, Note_on_c, 4, 49, 0
8, 960, Control_c, 4, 7, 127
8, 960, Note_on_c, 4, 51, 80
8, 1140, Note_on_c, 4, 51, 0
8, 1140, Note_on_c, 4, 51, 80
8, 1200, Note_on_c, 4, 51, 0
8, 1200, Note_on_c, 4, 52, 80
8, 1320, Note_on_c, 4, 52, 0
8, 1440, Control_c, 4, 7, 127
8, 1440, Note_on_c, 4, 58, 80
8, 1620, Note_on_c, 4, 58, 0
8, 1620, Note_on_c, 4, 58, 80
8, 1680, Note_on_c, 4, 58, 0
8, 1680, Note_on_c, 4, 59, 80
8, 1800, Note_on_c, 4, 59, 0
8, 1860, Note_on_c, 4, 57, 80
8, 1920, Note_on_c, 4, 57, 0
8, 1920, Note_on_c, 4, 55, 80
8, 2160, Note_on_c, 4, 55, 0
8, 2160, Note_on_c, 4, 54, 85
8, 2400, Note_on_c, 4, 54, 0
8, 21960, Note_on_c, 4, 47, 80
8, 22050, Note_on_c, 4, 47, 0
8, 22050, Note_on_c, 4, 47, 80
8, 22080, Note_on_c, 4, 47, 0
8, 22080, Note_on_c, 4, 47, 80
8, 22115, Note_on_c, 4, 47, 0
8, 22140, Note_on_c, 4, 47, 80
8, 22200, Note_on_c, 4, 47, 0
8, 22200, Note_on_c, 4, 49, 80
8, 22260, Note_on_c, 4, 49, 0
8, 22260, Note_on_c, 4, 43, 80
8, 22320, Note_on_c, 4, 43, 0
8, 22320, Note_on_c, 4, 42, 80
8, 22355, Note_on_c, 4, 42, 0
8, 22380, Note_on_c, 4, 49, 80
8, 22440, Note_on_c, 4, 49, 0
8, 22440, Note_on_c, 4, 50, 80
8, 22500, Note_on_c, 4, 50, 0
8, 22500, Note_on_c, 4, 43, 80
8, 22560, Note_on_c, 4, 43, 0
8, 22560, Note_on_c, 4, 42, 80
8, 22595, Note_on_c, 4, 42, 0
8, 22620, Note_on_c, 4, 51, 80
8, 22680, Note_on_c, 4, 51, 0
8, 22680, Note_on_c, 4, 52, 80
8, 22710, Note_on_c, 4, 52, 0
8, 22710, Note_on_c, 4, 50, 80
8, 22740, Note_on_c, 4, 50, 0
8, 22740, Note_on_c, 4, 48, 80
8, 22830, Note_on_c, 4, 48, 0
8, 22830, Note_on_c, 4, 47, 80
8, 22860, Note_on_c, 4, 47, 0
8, 22860, Note_on_c, 4, 46, 80
8, 22890, Note_on_c, 4, 46, 0
8, 22890, Note_on_c, 4, 47, 80
8, 22920, Note_on_c, 4, 47, 0
8, 22920, Note_on_c, 4, 46, 80
8, 22955, Note_on_c, 4, 46, 0
8, 22980, Note_on_c, 4, 55, 80
8, 23040, Note_on_c, 4, 55, 0
8, 23040, Note_on_c, 4, 54, 80
8, 23100, Note_on_c, 4, 54, 0
8, 23100, Note_on_c, 4, 52, 80
8, 23160, Note_on_c, 4, 52, 0
8, 23160, Note_on_c, 4, 50, 80
8, 23220, Note_on_c, 4, 50, 0
8, 23220, Note_on_c, 4, 49, 80
8, 23250, Note_on_c, 4, 49, 0
8, 23250, Note_on_c, 4, 47, 80
8, 23280, Note_on_c, 4, 47, 0
8, 23280, Note_on_c, 4, 54, 80
8, 23520, Note_on_c, 4, 54, 0
8, 23520, Note_on_c, 4, 53, 80
8, 23640, Note_on_c, 4, 53, 0
8, 23640, Note_on_c, 4, 54, 80
8, 23760, Note_on_c, 4, 54, 0
8, 23820, Note_on_c, 4, 52, 80
8, 23880, Note_on_c, 4, 52, 0
8, 23880, Note_on_c, 4, 50, 80
8, 23940, Note_on_c, 4, 50, 0
8, 23940, Note_on_c, 4, 47, 80
8, 24000, Note_on_c, 4, 47, 0
8, 24000, Note_on_c, 4, 49, 80
8, 24060, Note_on_c, 4, 49, 0
8, 24060, Note_on_c, 4, 50, 80
8, 24120, Note_on_c, 4, 50, 0
8, 24120, Note_on_c, 4, 49, 80
8, 24155, Note_on_c, 4, 49, 0
8, 24180, Note_on_c, 4, 47, 80
8, 24240, Note_on_c, 4, 47, 0
8, 24240, Note_on_c, 4, 45, 80
8, 24300, Note_on_c, 4, 45, 0
8, 24300, Note_on_c, 4, 44, 80
8, 24360, Note_on_c, 4, 44, 0
8, 24360, Note_on_c, 4, 42, 80
8, 24395, Note_on_c, 4, 42, 0
8, 24420, Note_on_c, 4, 54, 80
8, 24480, Note_on_c, 4, 54, 0
8, 24480, Note_on_c, 4, 52, 80
8, 24540, Note_on_c, 4, 52, 0
8, 24540, Note_on_c, 4, 51, 80
8, 24570, Note_on_c, 4, 51, 0
8, 24570, Note_on_c, 4, 52, 80
8, 24600, Note_on_c, 4, 52, 0
8, 24600, Note_on_c, 4, 54, 80
8, 24660, Note_on_c, 4, 54, 0
8, 24660, Note_on_c, 4, 52, 80
8, 24690, Note_on_c, 4, 52, 0
8, 24690, Note_on_c, 4, 54, 80
8, 24720, Note_on_c, 4, 54, 0
8, 24720, Note_on_c, 4, 56, 80
8, 24840, Note_on_c, 4, 56, 0
8, 24840, Note_on_c, 4, 49, 80
8, 24960, Note_on_c, 4, 49, 0
8, 25140, Note_on_c, 4, 54, 80
8, 25260, Note_on_c, 4, 54, 0
8, 25260, Note_on_c, 4, 56, 80
8, 25320, Note_on_c, 4, 56, 0
8, 25320, Note_on_c, 4, 57, 80
8, 25440, Note_on_c, 4, 57, 0
8, 25440, Note_on_c, 4, 48, 80
8, 25560, Note_on_c, 4, 48, 0
8, 25560, Note_on_c, 4, 49, 80
8, 25620, Note_on_c, 4, 49, 0
8, 25620, Note_on_c, 4, 51, 80
8, 25680, Note_on_c, 4, 51, 0
8, 25680, Note_on_c, 4, 52, 80
8, 25740, Note_on_c, 4, 52, 0
8, 25740, Note_on_c, 4, 49, 80
8, 25800, Note_on_c, 4, 49, 0
8, 25800, Note_on_c, 4, 54, 80
8, 25860, Note_on_c, 4, 54, 0
8, 25860, Note_on_c, 4, 52, 80
8, 25920, Note_on_c, 4, 52, 0
8, 25920, Note_on_c, 4, 51, 80
8, 25980, Note_on_c, 4, 51, 0
8, 25980, Note_on_c, 4, 49, 80
8, 26040, Note_on_c, 4, 49, 0
8, 26040, Note_on_c, 4, 48, 80
8, 26100, Note_on_c, 4, 48, 0
8, 26100, Note_on_c, 4, 46, 80
8, 26160, Note_on_c, 4, 46, 0
8, 26160, Note_on_c, 4, 48, 80
8, 26220, Note_on_c, 4, 48, 0
8, 26220, Note_on_c, 4, 44, 80
8, 26280, Note_on_c, 4, 44, 0
8, 26280, Note_on_c, 4, 49, 80
8, 26340, Note_on_c, 4, 49, 0
8, 26340, Note_on_c, 4, 47, 80
8, 26400, Note_on_c, 4, 47, 0
8, 26400, Note_on_c, 4, 45, 80
8, 26460, Note_on_c, 4, 45, 0
8, 26460, Note_on_c, 4, 44, 80
8, 26520, Note_on_c, 4, 44, 0
8, 26520, Note_on_c, 4, 42, 80
8, 26640, Note_on_c, 4, 42, 0
8, 26700, Note_on_c, 4, 44, 80
8, 26760, Note_on_c, 4, 44, 0
8, 26760, Note_on_c, 4, 45, 80
8, 26795, Note_on_c, 4, 45, 0
8, 26820, Note_on_c, 4, 57, 80
8, 26880, Note_on_c, 4, 57, 0
8, 26880, Note_on_c, 4, 56, 80
8, 26940, Note_on_c, 4, 56, 0
8, 26940, Note_on_c, 4, 54, 80
8, 27000, Note_on_c, 4, 54, 0
8, 27000, Note_on_c, 4, 52, 80
8, 27060, Note_on_c, 4, 52, 0
8, 27060, Note_on_c, 4, 51, 80
8, 27120, Note_on_c, 4, 51, 0
8, 27120, Note_on_c, 4, 52, 80
8, 27180, Note_on_c, 4, 52, 0
8, 27180, Note_on_c, 4, 54, 80
8, 27240, Note_on_c, 4, 54, 0
8, 27240, Note_on_c, 4, 56, 80
8, 27780, Note_on_c, 4, 56, 0
8, 27780, Note_on_c, 4, 54, 80
8, 27840, Note_on_c, 4, 54, 0
8, 27840, Note_on_c, 4, 56, 80
8, 27960, Note_on_c, 4, 56, 0
8, 27960, Note_on_c, 4, 49, 80
8, 28080, Note_on_c, 4, 49, 0
8, 28140, Note_on_c, 4, 49, 45
8, 28200, Note_on_c, 4, 49, 0
8, 28200, Note_on_c, 4, 54, 45
8, 28320, Note_on_c, 4, 54, 0
8, 28320, Note_on_c, 4, 42, 45
8, 28440, Note_on_c, 4, 42, 0
8, 28440, Note_on_c, 4, 47, 45
8, 28560, Note_on_c, 4, 47, 0
8, 28620, Note_on_c, 4, 59, 50
8, 28680, Note_on_c, 4, 59, 0
8, 28680, Note_on_c, 4, 61, 52
8, 28800, Note_on_c, 4, 61, 0
8, 28800, Note_on_c, 4, 49, 55
8, 28920, Note_on_c, 4, 49, 0
8, 28920, Note_on_c, 4, 54, 59
8, 29040, Note_on_c, 4, 54, 0
8, 29100, Note_on_c, 4, 54, 64
8, 29160, Note_on_c, 4, 54, 0
8, 29160, Note_on_c, 4, 56, 66
8, 29280, Note_on_c, 4, 56, 0
8, 29280, Note_on_c, 4, 44, 69
8, 29400, Note_on_c, 4, 44, 0
8, 29400, Note_on_c, 4, 49, 72
8, 29460, Note_on_c, 4, 49, 0
8, 29460, Note_on_c, 4, 49, 74
8, 29580, Note_on_c, 4, 49, 0
8, 29580, Note_on_c, 4, 50, 77
8, 29610, Note_on_c, 4, 50, 0
8, 29610, Note_on_c, 4, 52, 78
8, 29640, Note_on_c, 4, 52, 0
8, 29640, Note_on_c, 4, 54, 79
8, 29760, Note_on_c, 4, 54, 0
8, 29760, Note_on_c, 4, 42, 83
8, 29880, Note_on_c, 4, 42, 0
8, 29880, Note_on_c, 4, 47, 85
8, 29951, Note_on_c, 4, 47, 0
8, 30060, Note_on_c, 4, 59, 85
8, 30071, Note_on_c, 4, 59, 0
8, 30120, Note_on_c, 4, 57, 85
8, 30191, Note_on_c, 4, 57, 0
8, 30300, Note_on_c, 4, 56, 85
8, 30311, Note_on_c, 4, 56, 0
8, 30360, Note_on_c, 4, 49, 85
8, 30431, Note_on_c, 4, 49, 0
8, 30540, Note_on_c, 4, 54, 85
8, 30551, Note_on_c, 4, 54, 0
8, 30600, Note_on_c, 4, 47, 85
8, 30671, Note_on_c, 4, 47, 0
8, 30780, Note_on_c, 4, 52, 85
8, 30815, Note_on_c, 4, 52, 0
8, 30840, Note_on_c, 4, 45, 78
8, 30960, Note_on_c, 4, 45, 0
8, 31020, Note_on_c, 4, 50, 67
8, 31055, Note_on_c, 4, 50, 0
8, 31080, Note_on_c, 4, 44, 64
8, 31200, Note_on_c, 4, 44, 0
8, 31260, Note_on_c, 4, 49, 53
8, 31295, Note_on_c, 4, 49, 0
8, 31320, Note_on_c, 4, 42, 64
8, 31380, Note_on_c, 4, 42, 0
8, 31380, Note_on_c, 4, 54, 64
8, 31410, Note_on_c, 4, 54, 0
8, 31410, Note_on_c, 4, 54, 64
8, 31440, Note_on_c, 4, 54, 0
8, 31440, Note_on_c, 4, 54, 64
8, 31475, Note_on_c, 4, 54, 0
8, 31500, Note_on_c, 4, 54, 64
8, 31560, Note_on_c, 4, 54, 0
8, 31560, Note_on_c, 4, 56, 64
8, 31620, Note_on_c, 4, 56, 0
8, 31620, Note_on_c, 4, 50, 64
8, 31680, Note_on_c, 4, 50, 0
8, 31680, Note_on_c, 4, 49, 64
8, 31715, Note_on_c, 4, 49, 0
8, 31740, Note_on_c, 4, 56, 64
8, 31800, Note_on_c, 4, 56, 0
8, 31800, Note_on_c, 4, 57, 64
8, 31860, Note_on_c, 4, 57, 0
8, 31860, Note_on_c, 4, 50, 64
8, 31920, Note_on_c, 4, 50, 0
8, 31920, Note_on_c, 4, 49, 64
8, 31955, Note_on_c, 4, 49, 0
8, 31980, Note_on_c, 4, 58, 64
8, 32040, Note_on_c, 4, 58, 0
8, 32040, Note_on_c, 4, 59, 64
8, 32070, Note_on_c, 4, 59, 0
8, 32070, Note_on_c, 4, 57, 64
8, 32100, Note_on_c, 4, 57, 0
8, 32100, Note_on_c, 4, 55, 64
8, 32190, Note_on_c, 4, 55, 0
8, 32190, Note_on_c, 4, 54, 64
8, 32220, Note_on_c, 4, 54, 0
8, 32220, Note_on_c, 4, 53, 64
8, 32250, Note_on_c, 4, 53, 0
8, 32250, Note_on_c, 4, 54, 64
8, 32280, Note_on_c, 4, 54, 0
8, 32280, Note_on_c, 4, 53, 64
8, 32340, Note_on_c, 4, 53, 0
8, 32340, Note_on_c, 4, 51, 64
8, 32400, Note_on_c, 4, 51, 0
8, 32400, Note_on_c, 4, 53, 64
8, 32460, Note_on_c, 4, 53, 0
8, 32460, Note_on_c, 4, 49, 64
8, 32520, Note_on_c, 4, 49, 0
8, 32520, Note_on_c, 4, 54, 64
8, 32580, Note_on_c, 4, 54, 0
8, 32580, Note_on_c, 4, 56, 64
8, 32640, Note_on_c, 4, 56, 0
8, 32640, Note_on_c, 4, 57, 64
8, 32700, Note_on_c, 4, 57, 0
8, 32700, Note_on_c, 4, 54, 64
8, 32760, Note_on_c, 4, 54, 0
8, 32760, Note_on_c, 4, 47, 64
8, 32820, Note_on_c, 4, 47, 0
8, 32820, Note_on_c, 4, 49, 64
8, 32880, Note_on_c, 4, 49, 0
8, 32880, Note_on_c, 4, 50, 64
8, 32940, Note_on_c, 4, 50, 0
8, 32940, Note_on_c, 4, 47, 64
8, 33000, Note_on_c, 4, 47, 0
8, 33000, Note_on_c, 4, 53, 64
8, 33060, Note_on_c, 4, 53, 0
8, 33060, Note_on_c, 4, 51, 64
8, 33120, Note_on_c, 4, 51, 0
8, 33120, Note_on_c, 4, 53, 64
8, 33180, Note_on_c, 4, 53, 0
8, 33180, Note_on_c, 4, 49, 64
8, 33240, Note_on_c, 4, 49, 0
8, 33240, Note_on_c, 4, 54, 64
8, 33300, Note_on_c, 4, 54, 0
8, 33300, Note_on_c, 4, 52, 64
8, 33360, Note_on_c, 4, 52, 0
8, 33360, Note_on_c, 4, 50, 64
8, 33420, Note_on_c, 4, 50, 0
8, 33420, Note_on_c, 4, 49, 64
8, 33480, Note_on_c, 4, 49, 0
8, 33480, Note_on_c, 4, 47, 64
8, 33600, Note_on_c, 4, 47, 0
8, 33600, Note_on_c, 4, 49, 64
8, 33720, Note_on_c, 4, 49, 0
8, 33720, Note_on_c, 4, 50, 64
8, 33840, Note_on_c, 4, 50, 0
8, 33840, Note_on_c, 4, 49, 65
8, 33900, Note_on_c, 4, 49, 0
8, 33900, Note_on_c, 4, 47, 66
8, 33960, Note_on_c, 4, 47, 0
8, 33960, Note_on_c, 4, 45, 67
8, 34020, Note_on_c, 4, 45, 0
8, 34020, Note_on_c, 4, 44, 67
8, 34080, Note_on_c, 4, 44, 0
8, 34080, Note_on_c, 4, 45, 68
8, 34140, Note_on_c, 4, 45, 0
8, 34140, Note_on_c, 4, 47, 69
8, 34200, Note_on_c, 4, 47, 0
8, 34200, Note_on_c, 4, 49, 69
8, 34740, Note_on_c, 4, 49, 0
8, 34740, Note_on_c, 4, 47, 75
8, 34800, Note_on_c, 4, 47, 0
8, 34800, Note_on_c, 4, 49, 76
8, 34920, Note_on_c, 4, 49, 0
8, 34920, Note_on_c, 4, 42, 77
8, 35040, Note_on_c, 4, 42, 0
8, 39000, Note_on_c, 4, 47, 64
8, 39090, Note_on_c, 4, 47, 0
8, 39090, Note_on_c, 4, 47, 64
8, 39120, Note_on_c, 4, 47, 0
8, 39120, Note_on_c, 4, 47, 64
8, 39155, Note_on_c, 4, 47, 0
8, 39180, Note_on_c, 4, 47, 64
8, 39240, Note_on_c, 4, 47, 0
8, 39240, Note_on_c, 4, 49, 64
8, 39300, Note_on_c, 4, 49, 0
8, 39300, Note_on_c, 4, 43, 64
8, 39360, Note_on_c, 4, 43, 0
8, 39360, Note_on_c, 4, 42, 64
8, 39395, Note_on_c, 4, 42, 0
8, 39420, Note_on_c, 4, 49, 64
8, 39480, Note_on_c, 4, 49, 0
8, 39480, Note_on_c, 4, 50, 64
8, 39540, Note_on_c, 4, 50, 0
8, 39540, Note_on_c, 4, 43, 64
8, 39600, Note_on_c, 4, 43, 0
8, 39600, Note_on_c, 4, 42, 64
8, 39635, Note_on_c, 4, 42, 0
8, 39660, Note_on_c, 4, 51, 64
8, 39720, Note_on_c, 4, 51, 0
8, 39720, Note_on_c, 4, 52, 64
8, 39750, Note_on_c, 4, 52, 0
8, 39750, Note_on_c, 4, 50, 64
8, 39780, Note_on_c, 4, 50, 0
8, 39780, Note_on_c, 4, 48, 64
8, 39870, Note_on_c, 4, 48, 0
8, 39870, Note_on_c, 4, 47, 64
8, 39900, Note_on_c, 4, 47, 0
8, 39900, Note_on_c, 4, 46, 64
8, 39930, Note_on_c, 4, 46, 0
8, 39930, Note_on_c, 4, 47, 64
8, 39960, Note_on_c, 4, 47, 0
8, 39960, Note_on_c, 4, 46, 64
8, 39995, Note_on_c, 4, 46, 0
8, 40020, Note_on_c, 4, 55, 64
8, 40080, Note_on_c, 4, 55, 0
8, 40080, Note_on_c, 4, 54, 64
8, 40140, Note_on_c, 4, 54, 0
8, 40140, Note_on_c, 4, 52, 64
8, 40200, Note_on_c, 4, 52, 0
8, 40200, Note_on_c, 4, 50, 64
8, 40260, Note_on_c, 4, 50, 0
8, 40260, Note_on_c, 4, 49, 64
8, 40290, Note_on_c, 4, 49, 0
8, 40290, Note_on_c, 4, 47, 64
8, 40320, Note_on_c, 4, 47, 0
8, 40320, Note_on_c, 4, 54, 64
8, 40560, Note_on_c, 4, 54, 0
8, 40560, Note_on_c, 4, 53, 64
8, 40680, Note_on_c, 4, 53, 0
8, 40680, Note_on_c, 4, 54, 64
8, 40800, Note_on_c, 4, 54, 0
8, 40860, Note_on_c, 4, 52, 64
8, 40920, Note_on_c, 4, 52, 0
8, 40920, Note_on_c, 4, 50, 64
8, 40980, Note_on_c, 4, 50, 0
8, 40980, Note_on_c, 4, 49, 64
8, 41040, Note_on_c, 4, 49, 0
8, 41040, Note_on_c, 4, 50, 64
8, 41100, Note_on_c, 4, 50, 0
8, 41100, Note_on_c, 4, 49, 64
8, 41130, Note_on_c, 4, 49, 0
8, 41130, Note_on_c, 4, 47, 64
8, 41160, Note_on_c, 4, 47, 0
8, 41160, Note_on_c, 4, 49, 64
8, 41195, Note_on_c, 4, 49, 0
8, 41220, Note_on_c, 4, 59, 64
8, 41280, Note_on_c, 4, 59, 0
8, 41280, Note_on_c, 4, 57, 64
8, 41340, Note_on_c, 4, 57, 0
8, 41340, Note_on_c, 4, 56, 64
8, 41400, Note_on_c, 4, 56, 0
8, 41400, Note_on_c, 4, 54, 64
8, 41520, Note_on_c, 4, 54, 0
8, 41580, Note_on_c, 4, 47, 64
8, 41640, Note_on_c, 4, 47, 0
8, 41640, Note_on_c, 4, 52, 64
8, 41820, Note_on_c, 4, 52, 0
8, 41820, Note_on_c, 4, 54, 64
8, 41850, Note_on_c, 4, 54, 0
8, 41850, Note_on_c, 4, 56, 64
8, 41880, Note_on_c, 4, 56, 0
8, 41880, Note_on_c, 4, 57, 64
8, 42000, Note_on_c, 4, 57, 0
8, 42060, Note_on_c, 4, 45, 64
8, 42120, Note_on_c, 4, 45, 0
8, 42120, Note_on_c, 4, 50, 64
8, 42300, Note_on_c, 4, 50, 0
8, 42300, Note_on_c, 4, 52, 64
8, 42330, Note_on_c, 4, 52, 0
8, 42330, Note_on_c, 4, 54, 64
8, 42360, Note_on_c, 4, 54, 0
8, 42360, Note_on_c, 4, 55, 64
8, 42480, Note_on_c, 4, 55, 0
8, 42540, Note_on_c, 4, 50, 64
8, 42600, Note_on_c, 4, 50, 0
8, 42600, Note_on_c, 4, 52, 64
8, 42720, Note_on_c, 4, 52, 0
8, 42720, Note_on_c, 4, 54, 64
8, 42840, Note_on_c, 4, 54, 0
8, 42840, Note_on_c, 4, 47, 64
8, 42900, Note_on_c, 4, 47, 0
8, 42900, Note_on_c, 4, 54, 64
8, 42960, Note_on_c, 4, 54, 0
8, 42960, Note_on_c, 4, 59, 64
8, 43140, Note_on_c, 4, 59, 0
8, 43140, Note_on_c, 4, 52, 64
8, 43200, Note_on_c, 4, 52, 0
8, 43200, Note_on_c, 4, 50, 64
8, 43260, Note_on_c, 4, 50, 0
8, 43260, Note_on_c, 4, 49, 64
8, 43320, Note_on_c, 4, 49, 0
8, 43320, Note_on_c, 4, 54, 64
8, 43380, Note_on_c, 4, 54, 0
8, 43380, Note_on_c, 4, 52, 64
8, 43440, Note_on_c, 4, 52, 0
8, 43440, Note_on_c, 4, 50, 64
8, 43500, Note_on_c, 4, 50, 0
8, 43500, Note_on_c, 4, 49, 64
8, 43560, Note_on_c, 4, 49, 0
8, 43560, Note_on_c, 4, 47, 64
8, 43620, Note_on_c, 4, 47, 0
8, 43620, Note_on_c, 4, 49, 64
8, 43680, Note_on_c, 4, 49, 0
8, 43680, Note_on_c, 4, 50, 64
8, 43740, Note_on_c, 4, 50, 0
8, 43740, Note_on_c, 4, 49, 64
8, 43800, Note_on_c, 4, 49, 0
8, 43800, Note_on_c, 4, 47, 64
8, 43860, Note_on_c, 4, 47, 0
8, 43860, Note_on_c, 4, 45, 64
8, 43890, Note_on_c, 4, 45, 0
8, 43890, Note_on_c, 4, 47, 64
8, 43920, Note_on_c, 4, 47, 0
8, 43920, Note_on_c, 4, 49, 64
8, 44040, Note_on_c, 4, 49, 0
8, 44040, Note_on_c, 4, 42, 64
8, 44160, Note_on_c, 4, 42, 0
8, 44340, Note_on_c, 4, 59, 64
8, 44400, Note_on_c, 4, 59, 0
8, 44400, Note_on_c, 4, 57, 64
8, 44460, Note_on_c, 4, 57, 0
8, 44460, Note_on_c, 4, 54, 64
8, 44520, Note_on_c, 4, 54, 0
8, 44520, Note_on_c, 4, 56, 64
8, 44640, Note_on_c, 4, 56, 0
8, 44640, Note_on_c, 4, 49, 64
8, 44760, Note_on_c, 4, 49, 0
8, 44760, Note_on_c, 4, 54, 64
8, 44880, Note_on_c, 4, 54, 0
8, 44880, Note_on_c, 4, 53, 64
8, 45000, Note_on_c, 4, 53, 0
8, 45000, Note_on_c, 4, 52, 64
8, 45120, Note_on_c, 4, 52, 0
8, 45120, Note_on_c, 4, 52, 64
8, 45240, Note_on_c, 4, 52, 0
8, 45240, Note_on_c, 4, 57, 64
8, 45360, Note_on_c, 4, 57, 0
8, 45360, Note_on_c, 4, 55, 64
8, 45420, Note_on_c, 4, 55, 0
8, 45420, Note_on_c, 4, 52, 64
8, 45480, Note_on_c, 4, 52, 0
8, 45480, Note_on_c, 4, 54, 64
8, 45600, Note_on_c, 4, 54, 0
8, 45600, Note_on_c, 4, 42, 64
8, 45720, Note_on_c, 4, 42, 0
8, 45780, Note_on_c, 4, 54, 64
8, 45840, Note_on_c, 4, 54, 0
8, 45840, Note_on_c, 4, 59, 64
8, 46020, Note_on_c, 4, 59, 0
8, 46020, Note_on_c, 4, 54, 64
8, 46080, Note_on_c, 4, 54, 0
8, 46080, Note_on_c, 4, 53, 64
8, 46115, Note_on_c, 4, 53, 0
8, 46140, Note_on_c, 4, 59, 64
8, 46200, Note_on_c, 4, 59, 0
8, 46200, Note_on_c, 4, 57, 64
8, 46260, Note_on_c, 4, 57, 0
8, 46260, Note_on_c, 4, 56, 64
8, 46290, Note_on_c, 4, 56, 0
8, 46290, Note_on_c, 4, 54, 64
8, 46320, Note_on_c, 4, 54, 0
8, 46320, Note_on_c, 4, 57, 64
8, 46500, Note_on_c, 4, 57, 0
8, 46500, Note_on_c, 4, 52, 64
8, 46560, Note_on_c, 4, 52, 0
8, 46560, Note_on_c, 4, 51, 64
8, 46595, Note_on_c, 4, 51, 0
8, 46620, Note_on_c, 4, 57, 64
8, 46680, Note_on_c, 4, 57, 0
8, 46680, Note_on_c, 4, 55, 64
8, 46740, Note_on_c, 4, 55, 0
8, 46740, Note_on_c, 4, 52, 64
8, 46800, Note_on_c, 4, 52, 0
8, 46800, Note_on_c, 4, 60, 64
8, 46860, Note_on_c, 4, 60, 0
8, 46860, Note_on_c, 4, 59, 64
8, 46920, Note_on_c, 4, 59, 0
8, 46920, Note_on_c, 4, 57, 64
8, 47040, Note_on_c, 4, 57, 0
8, 47040, Note_on_c, 4, 59, 64
8, 47160, Note_on_c, 4, 59, 0
8, 47160, Note_on_c, 4, 52, 64
8, 47340, Note_on_c, 4, 52, 0
8, 47340, Note_on_c, 4, 50, 64
8, 47400, Note_on_c, 4, 50, 0
8, 47400, Note_on_c, 4, 48, 64
8, 47460, Note_on_c, 4, 48, 0
8, 47460, Note_on_c, 4, 47, 64
8, 47520, Note_on_c, 4, 47, 0
8, 47520, Note_on_c, 4, 48, 64
8, 47640, Note_on_c, 4, 48, 0
8, 47640, Note_on_c, 4, 47, 64
8, 47760, Note_on_c, 4, 47, 0
8, 47760, Note_on_c, 4, 49, 64
8, 47820, Note_on_c, 4, 49, 0
8, 47820, Note_on_c, 4, 51, 64
8, 47880, Note_on_c, 4, 51, 0
8, 47880, Note_on_c, 4, 52, 64
8, 48000, Note_on_c, 4, 52, 0
8, 48000, Note_on_c, 4, 52, 64
8, 48060, Note_on_c, 4, 52, 0
8, 48060, Note_on_c, 4, 54, 64
8, 48120, Note_on_c, 4, 54, 0
8, 48120, Note_on_c, 4, 56, 64
8, 48180, Note_on_c, 4, 56, 0
8, 48180, Note_on_c, 4, 57, 64
8, 48240, Note_on_c, 4, 57, 0
8, 48240, Note_on_c, 4, 59, 64
8, 48300, Note_on_c, 4, 59, 0
8, 48300, Note_on_c, 4, 52, 64
8, 48360, Note_on_c, 4, 52, 0
8, 48360, Note_on_c, 4, 57, 64
8, 48480, Note_on_c, 4, 57, 0
8, 48540, Note_on_c, 4, 56, 64
8, 48600, Note_on_c, 4, 56, 0
8, 48600, Note_on_c, 4, 58, 64
8, 48660, Note_on_c, 4, 58, 0
8, 48660, Note_on_c, 4, 59, 64
8, 48720, Note_on_c, 4, 59, 0
8, 48720, Note_on_c, 4, 61, 64
8, 48755, Note_on_c, 4, 61, 0
8, 48780, Note_on_c, 4, 54, 64
8, 48840, Note_on_c, 4, 54, 0
8, 48840, Note_on_c, 4, 59, 64
8, 48960, Note_on_c, 4, 59, 0
8, 49020, Note_on_c, 4, 57, 64
8, 49080, Note_on_c, 4, 57, 0
8, 49080, Note_on_c, 4, 55, 64
8, 49320, Note_on_c, 4, 55, 0
8, 49320, Note_on_c, 4, 54, 64
8, 49440, Note_on_c, 4, 54, 0
8, 49620, Note_on_c, 4, 59, 75
8, 49740, Note_on_c, 4, 59, 0
8, 49740, Note_on_c, 4, 57, 75
8, 49800, Note_on_c, 4, 57, 0
8, 49800, Note_on_c, 4, 55, 75
8, 49860, Note_on_c, 4, 55, 0
8, 49860, Note_on_c, 4, 52, 75
8, 49920, Note_on_c, 4, 52, 0
8, 49920, Note_on_c, 4, 54, 75
8, 49980, Note_on_c, 4, 54, 0
8, 49980, Note_on_c, 4, 55, 75
8, 50040, Note_on_c, 4, 55, 0
8, 50040, Note_on_c, 4, 54, 75
8, 50100, Note_on_c, 4, 54, 0
8, 50100, Note_on_c, 4, 52, 75
8, 50160, Note_on_c, 4, 52, 0
8, 50160, Note_on_c, 4, 50, 75
8, 50220, Note_on_c, 4, 50, 0
8, 50220, Note_on_c, 4, 49, 75
8, 50280, Note_on_c, 4, 49, 0
8, 50280, Note_on_c, 4, 47, 75
8, 50340, Note_on_c, 4, 47, 0
8, 50340, Note_on_c, 4, 47, 75
8, 50400, Note_on_c, 4, 47, 0
8, 50400, Note_on_c, 4, 45, 75
8, 50460, Note_on_c, 4, 45, 0
8, 50460, Note_on_c, 4, 44, 75
8, 50490, Note_on_c, 4, 44, 0
8, 50490, Note_on_c, 4, 45, 75
8, 50520, Note_on_c, 4, 45, 0
8, 50520, Note_on_c, 4, 47, 75
8, 50580, Note_on_c, 4, 47, 0
8, 50580, Note_on_c, 4, 45, 75
8, 50610, Note_on_c, 4, 45, 0
8, 50610, Note_on_c, 4, 47, 75
8, 50640, Note_on_c, 4, 47, 0
8, 50640, Note_on_c, 4, 49, 75
8, 50760, Note_on_c, 4, 49, 0
8, 50760, Note_on_c, 4, 42, 75
8, 50880, Note_on_c, 4, 42, 0
8, 51060, Note_on_c, 4, 59, 75
8, 51180, Note_on_c, 4, 59, 0
8, 51180, Note_on_c, 4, 61, 75
8, 51240, Note_on_c, 4, 61, 0
8, 51240, Note_on_c, 4, 62, 75
8, 51360, Note_on_c, 4, 62, 0
8, 51360, Note_on_c, 4, 53, 75
8, 51480, Note_on_c, 4, 53, 0
8, 51480, Note_on_c, 4, 54, 75
8, 51540, Note_on_c, 4, 54, 0
8, 51540, Note_on_c, 4, 56, 75
8, 51600, Note_on_c, 4, 56, 0
8, 51600, Note_on_c, 4, 57, 75
8, 51660, Note_on_c, 4, 57, 0
8, 51660, Note_on_c, 4, 54, 75
8, 51720, Note_on_c, 4, 54, 0
8, 51720, Note_on_c, 4, 59, 75
8, 51780, Note_on_c, 4, 59, 0
8, 51780, Note_on_c, 4, 57, 75
8, 51840, Note_on_c, 4, 57, 0
8, 51840, Note_on_c, 4, 56, 75
8, 51900, Note_on_c, 4, 56, 0
8, 51900, Note_on_c, 4, 54, 75
8, 51960, Note_on_c, 4, 54, 0
8, 51960, Note_on_c, 4, 53, 75
8, 52020, Note_on_c, 4, 53, 0
8, 52020, Note_on_c, 4, 51, 75
8, 52080, Note_on_c, 4, 51, 0
8, 52080, Note_on_c, 4, 53, 75
8, 52140, Note_on_c, 4, 53, 0
8, 52140, Note_on_c, 4, 49, 75
8, 52200, Note_on_c, 4, 49, 0
8, 52200, Note_on_c, 4, 54, 75
8, 52260, Note_on_c, 4, 54, 0
8, 52260, Note_on_c, 4, 52, 75
8, 52320, Note_on_c, 4, 52, 0
8, 52320, Note_on_c, 4, 50, 75
8, 52380, Note_on_c, 4, 50, 0
8, 52380, Note_on_c, 4, 49, 75
8, 52440, Note_on_c, 4, 49, 0
8, 52440, Note_on_c, 4, 47, 75
8, 52560, Note_on_c, 4, 47, 0
8, 52620, Note_on_c, 4, 49, 75
8, 52680, Note_on_c, 4, 49, 0
8, 52680, Note_on_c, 4, 50, 75
8, 52800, Note_on_c, 4, 50, 0
8, 52800, Note_on_c, 4, 49, 75
8, 52860, Note_on_c, 4, 49, 0
8, 52860, Note_on_c, 4, 47, 75
8, 52920, Note_on_c, 4, 47, 0
8, 52920, Note_on_c, 4, 45, 75
8, 52980, Note_on_c, 4, 45, 0
8, 52980, Note_on_c, 4, 44, 75
8, 53040, Note_on_c, 4, 44, 0
8, 53040, Note_on_c, 4, 45, 76
8, 53100, Note_on_c, 4, 45, 0
8, 53100, Note_on_c, 4, 47, 76
8, 53160, Note_on_c, 4, 47, 0
8, 53160, Note_on_c, 4, 49, 77
8, 53700, Note_on_c, 4, 49, 0
8, 53700, Note_on_c, 4, 47, 81
8, 53760, Note_on_c, 4, 47, 0
8, 53760, Note_on_c, 4, 49, 81
8, 53880, Note_on_c, 4, 49, 0
8, 53880, Note_on_c, 4, 42, 82
8, 54000, Note_on_c, 4, 42, 0
8, 54060, Note_on_c, 4, 54, 40
8, 54120, Note_on_c, 4, 54, 0
8, 54120, Note_on_c, 4, 59, 40
8, 54240, Note_on_c, 4, 59, 0
8, 54240, Note_on_c, 4, 47, 40
8, 54360, Note_on_c, 4, 47, 0
8, 54360, Note_on_c, 4, 52, 40
8, 54480, Note_on_c, 4, 52, 0
8, 54540, Note_on_c, 4, 52, 46
8, 54600, Note_on_c, 4, 52, 0
8, 54600, Note_on_c, 4, 54, 48
8, 54720, Note_on_c, 4, 54, 0
8, 54720, Note_on_c, 4, 42, 51
8, 54840, Note_on_c, 4, 42, 0
8, 54840, Note_on_c, 4, 47, 55
8, 54960, Note_on_c, 4, 47, 0
8, 55020, Note_on_c, 4, 59, 61
8, 55080, Note_on_c, 4, 59, 0
8, 55080, Note_on_c, 4, 61, 63
8, 55200, Note_on_c, 4, 61, 0
8, 55200, Note_on_c, 4, 49, 66
8, 55320, Note_on_c, 4, 49, 0
8, 55320, Note_on_c, 4, 54, 70
8, 55380, Note_on_c, 4, 54, 0
8, 55380, Note_on_c, 4, 54, 72
8, 55500, Note_on_c, 4, 54, 0
8, 55500, Note_on_c, 4, 55, 76
8, 55530, Note_on_c, 4, 55, 0
8, 55530, Note_on_c, 4, 57, 77
8, 55560, Note_on_c, 4, 57, 0
8, 55560, Note_on_c, 4, 59, 78
8, 55680, Note_on_c, 4, 59, 0
8, 55680, Note_on_c, 4, 47, 81
8, 55800, Note_on_c, 4, 47, 0
8, 55800, Note_on_c, 4, 52, 85
8, 55871, Note_on_c, 4, 52, 0
8, 55980, Note_on_c, 4, 52, 85
8, 56015, Note_on_c, 4, 52, 0
8, 56040, Note_on_c, 4, 50, 85
8, 56111, Note_on_c, 4, 50, 0
8, 56220, Note_on_c, 4, 49, 85
8, 56255, Note_on_c, 4, 49, 0
8, 56280, Note_on_c, 4, 54, 85
8, 56351, Note_on_c, 4, 54, 0
8, 56460, Note_on_c, 4, 47, 85
8, 56495, Note_on_c, 4, 47, 0
8, 56520, Note_on_c, 4, 52, 85
8, 56591, Note_on_c, 4, 52, 0
8, 56700, Note_on_c, 4, 45, 85
8, 56735, Note_on_c, 4, 45, 0
8, 56760, Note_on_c, 4, 50, 85
8, 56831, Note_on_c, 4, 50, 0
8, 56940, Note_on_c, 4, 55, 85
8, 56975, Note_on_c, 4, 55, 0
8, 57000, Note_on_c, 4, 49, 85
8, 57120, Note_on_c, 4, 49, 0
8, 57180, Note_on_c, 4, 54, 85
8, 57215, Note_on_c, 4, 54, 0
8, 57240, Note_on_c, 4, 47, 85
8, 57300, Note_on_c, 4, 47, 0
8, 57300, Note_on_c, 4, 47, 85
8, 57330, Note_on_c, 4, 47, 0
8, 57330, Note_on_c, 4, 47, 85
8, 57360, Note_on_c, 4, 47, 0
8, 57360, Note_on_c, 4, 47, 85
8, 57395, Note_on_c, 4, 47, 0
8, 57420, Note_on_c, 4, 47, 85
8, 57480, Note_on_c, 4, 47, 0
8, 57480, Note_on_c, 4, 49, 85
8, 57540, Note_on_c, 4, 49, 0
8, 57540, Note_on_c, 4, 43, 85
8, 57600, Note_on_c, 4, 43, 0
8, 57600, Note_on_c, 4, 42, 85
8, 57635, Note_on_c, 4, 42, 0
8, 57660, Note_on_c, 4, 49, 85
8, 57720, Note_on_c, 4, 49, 0
8, 57720, Note_on_c, 4, 50, 85
8, 57780, Note_on_c, 4, 50, 0
8, 57780, Note_on_c, 4, 43, 85
8, 57840, Note_on_c, 4, 43, 0
8, 57840, Note_on_c, 4, 42, 85
8, 57875, Note_on_c, 4, 42, 0
8, 57900, Note_on_c, 4, 51, 85
8, 57960, Note_on_c, 4, 51, 0
8, 57960, Note_on_c, 4, 52, 85
8, 57990, Note_on_c, 4, 52, 0
8, 57990, Note_on_c, 4, 50, 85
8, 58020, Note_on_c, 4, 50, 0
8, 58020, Note_on_c, 4, 48, 85
8, 58110, Note_on_c, 4, 48, 0
8, 58110, Note_on_c, 4, 47, 85
8, 58140, Note_on_c, 4, 47, 0
8, 58140, Note_on_c, 4, 46, 85
8, 58170, Note_on_c, 4, 46, 0
8, 58170, Note_on_c, 4, 47, 85
8, 58200, Note_on_c, 4, 47, 0
8, 58200, Note_on_c, 4, 46, 85
8, 58235, Note_on_c, 4, 46, 0
8, 58260, Note_on_c, 4, 44, 85
8, 58320, Note_on_c, 4, 44, 0
8, 58320, Note_on_c, 4, 46, 85
8, 58380, Note_on_c, 4, 46, 0
8, 58380, Note_on_c, 4, 42, 85
8, 58440, Note_on_c, 4, 42, 0
8, 58440, Note_on_c, 4, 47, 85
8, 58500, Note_on_c, 4, 47, 0
8, 58500, Note_on_c, 4, 49, 85
8, 58560, Note_on_c, 4, 49, 0
8, 58560, Note_on_c, 4, 50, 85
8, 58620, Note_on_c, 4, 50, 0
8, 58620, Note_on_c, 4, 47, 85
8, 58680, Note_on_c, 4, 47, 0
8, 58680, Note_on_c, 4, 52, 85
8, 58740, Note_on_c, 4, 52, 0
8, 58740, Note_on_c, 4, 54, 85
8, 58800, Note_on_c, 4, 54, 0
8, 58800, Note_on_c, 4, 55, 85
8, 58860, Note_on_c, 4, 55, 0
8, 58860, Note_on_c, 4, 52, 85
8, 58920, Note_on_c, 4, 52, 0
8, 58920, Note_on_c, 4, 58, 85
8, 58980, Note_on_c, 4, 58, 0
8, 58980, Note_on_c, 4, 56, 85
8, 59040, Note_on_c, 4, 56, 0
8, 59040, Note_on_c, 4, 58, 85
8, 59100, Note_on_c, 4, 58, 0
8, 59100, Note_on_c, 4, 54, 85
8, 59160, Note_on_c, 4, 54, 0
8, 59160, Note_on_c, 4, 59, 85
8, 59220, Note_on_c, 4, 59, 0
8, 59220, Note_on_c, 4, 57, 85
8, 59280, Note_on_c, 4, 57, 0
8, 59280, Note_on_c, 4, 55, 85
8, 59340, Note_on_c, 4, 55, 0
8, 59340, Note_on_c, 4, 54, 85
8, 59400, Note_on_c, 4, 54, 0
8, 59400, Note_on_c, 4, 52, 85
8, 59520, Note_on_c, 4, 52, 0
8, 59520, Note_on_c, 4, 54, 85
8, 59640, Note_on_c, 4, 54, 0
8, 59640, Note_on_c, 4, 55, 85
8, 59760, Note_on_c, 4, 55, 0
8, 59760, Note_on_c, 4, 54, 86
8, 59820, Note_on_c, 4, 54, 0
8, 59820, Note_on_c, 4, 52, 87
8, 59880, Note_on_c, 4, 52, 0
8, 59880, Note_on_c, 4, 50, 88
8, 59915, Note_on_c, 4, 50, 0
8, 59940, Note_on_c, 4, 49, 88
8, 60000, Note_on_c, 4, 49, 0
8, 60000, Note_on_c, 4, 50, 89
8, 60060, Note_on_c, 4, 50, 0
8, 60060, Note_on_c, 4, 52, 89
8, 60120, Note_on_c, 4, 52, 0
8, 60120, Note_on_c, 4, 54, 90
8, 60660, Note_on_c, 4, 54, 0
8, 60660, Note_on_c, 4, 52, 96
8, 60720, Note_on_c, 4, 52, 0
8, 60720, Note_on_c, 4, 54, 96
8, 60840, Note_on_c, 4, 54, 0
8, 60840, Note_on_c, 4, 47, 98
8, 61200, Note_on_c, 4, 47, 0
8, 61560, End_track
9, 0, Start_track
9, 0, MIDI_port, 0
9, 0, Title_t, "Organ"
9, 0, Program_c, 8, 19
9, 480, Note_on_c, 8, 47, 64
9, 720, Note_on_c, 8, 47, 0
9, 720, Note_on_c, 8, 49, 64
9, 840, Note_on_c, 8, 49, 0
9, 960, Note_on_c, 8, 51, 64
9, 1200, Note_on_c, 8, 51, 0
9, 1200, Note_on_c, 8, 52, 64
9, 1320, Note_on_c, 8, 52, 0
9, 1440, Note_on_c, 8, 58, 64
9, 1680, Note_on_c, 8, 58, 0
9, 1680, Note_on_c, 8, 59, 64
9, 1800, Note_on_c, 8, 59, 0
9, 1860, Note_on_c, 8, 57, 64
9, 1920, Note_on_c, 8, 57, 0
9, 1920, Note_on_c, 8, 55, 64
9, 2160, Note_on_c, 8, 55, 0
9, 2160, Note_on_c, 8, 54, 70
9, 2400, Note_on_c, 8, 54, 0
9, 2520, Note_on_c, 8, 47, 64
9, 2640, Note_on_c, 8, 47, 0
9, 2640, Note_on_c, 8, 50, 64
9, 2760, Note_on_c, 8, 50, 0
9, 2760, Note_on_c, 8, 52, 64
9, 2880, Note_on_c, 8, 52, 0
9, 2880, Note_on_c, 8, 54, 64
9, 3000, Note_on_c, 8, 54, 0
9, 3000, Note_on_c, 8, 47, 64
9, 3120, Note_on_c, 8, 47, 0
9, 3120, Note_on_c, 8, 57, 64
9, 3240, Note_on_c, 8, 57, 0
9, 3240, Note_on_c, 8, 55, 64
9, 3300, Note_on_c, 8, 55, 0
9, 3300, Note_on_c, 8, 52, 64
9, 3360, Note_on_c, 8, 52, 0
9, 3360, Note_on_c, 8, 54, 64
9, 3420, Note_on_c, 8, 54, 0
9, 3420, Note_on_c, 8, 55, 64
9, 3480, Note_on_c, 8, 55, 0
9, 3480, Note_on_c, 8, 54, 64
9, 3540, Note_on_c, 8, 54, 0
9, 3540, Note_on_c, 8, 52, 64
9, 3600, Note_on_c, 8, 52, 0
9, 3600, Note_on_c, 8, 50, 64
9, 3660, Note_on_c, 8, 50, 0
9, 3660, Note_on_c, 8, 49, 64
9, 3720, Note_on_c, 8, 49, 0
9, 3720, Note_on_c, 8, 47, 64
9, 3840, Note_on_c, 8, 47, 0
9, 3840, Note_on_c, 8, 45, 64
9, 3960, Note_on_c, 8, 45, 0
9, 3960, Note_on_c, 8, 47, 64
9, 4080, Note_on_c, 8, 47, 0
9, 4080, Note_on_c, 8, 49, 64
9, 4200, Note_on_c, 8, 49, 0
9, 4200, Note_on_c, 8, 42, 64
9, 4320, Note_on_c, 8, 42, 0
9, 4320, Note_on_c, 8, 52, 64
9, 4440, Note_on_c, 8, 52, 0
9, 4440, Note_on_c, 8, 50, 64
9, 4500, Note_on_c, 8, 50, 0
9, 4500, Note_on_c, 8, 47, 64
9, 4560, Note_on_c, 8, 47, 0
9, 4560, Note_on_c, 8, 59, 64
9, 4620, Note_on_c, 8, 59, 0
9, 4620, Note_on_c, 8, 61, 64
9, 4680, Note_on_c, 8, 61, 0
9, 4680, Note_on_c, 8, 62, 64
9, 4800, Note_on_c, 8, 62, 0
9, 4800, Note_on_c, 8, 53, 64
9, 4920, Note_on_c, 8, 53, 0
9, 4920, Note_on_c, 8, 54, 64
9, 4980, Note_on_c, 8, 54, 0
9, 4980, Note_on_c, 8, 56, 64
9, 5040, Note_on_c, 8, 56, 0
9, 5040, Note_on_c, 8, 57, 64
9, 5100, Note_on_c, 8, 57, 0
9, 5100, Note_on_c, 8, 54, 64
9, 5160, Note_on_c, 8, 54, 0
9, 5160, Note_on_c, 8, 59, 64
9, 5220, Note_on_c, 8, 59, 0
9, 5220, Note_on_c, 8, 57, 64
9, 5280, Note_on_c, 8, 57, 0
9, 5280, Note_on_c, 8, 56, 64
9, 5340, Note_on_c, 8, 56, 0
9, 5340, Note_on_c, 8, 54, 64
9, 5400, Note_on_c, 8, 54, 0
9, 5400, Note_on_c, 8, 53, 64
9, 5460, Note_on_c, 8, 53, 0
9, 5460, Note_on_c, 8, 51, 64
9, 5520, Note_on_c, 8, 51, 0
9, 5520, Note_on_c, 8, 53, 64
9, 5580, Note_on_c, 8, 53, 0
9, 5580, Note_on_c, 8, 49, 64
9, 5640, Note_on_c, 8, 49, 0
9, 5640, Note_on_c, 8, 54, 64
9, 5700, Note_on_c, 8, 54, 0
9, 5700, Note_on_c, 8, 52, 64
9, 5760, Note_on_c, 8, 52, 0
9, 5760, Note_on_c, 8, 50, 64
9, 5820, Note_on_c, 8, 50, 0
9, 5820, Note_on_c, 8, 49, 64
9, 5880, Note_on_c, 8, 49, 0
9, 5880, Note_on_c, 8, 47, 64
9, 6000, Note_on_c, 8, 47, 0
9, 6000, Note_on_c, 8, 49, 64
9, 6120, Note_on_c, 8, 49, 0
9, 6120, Note_on_c, 8, 50, 64
9, 6240, Note_on_c, 8, 50, 0
9, 6240, Note_on_c, 8, 49, 64
9, 6300, Note_on_c, 8, 49, 0
9, 6300, Note_on_c, 8, 47, 64
9, 6360, Note_on_c, 8, 47, 0
9, 6360, Note_on_c, 8, 45, 64
9, 6420, Note_on_c, 8, 45, 0
9, 6420, Note_on_c, 8, 44, 64
9, 6480, Note_on_c, 8, 44, 0
9, 6480, Note_on_c, 8, 45, 64
9, 6540, Note_on_c, 8, 45, 0
9, 6540, Note_on_c, 8, 47, 64
9, 6600, Note_on_c, 8, 47, 0
9, 6600, Note_on_c, 8, 49, 64
9, 7140, Note_on_c, 8, 49, 0
9, 7140, Note_on_c, 8, 47, 64
9, 7200, Note_on_c, 8, 47, 0
9, 7200, Note_on_c, 8, 49, 64
9, 7260, Note_on_c, 8, 49, 0
9, 7260, Note_on_c, 8, 37, 64
9, 7320, Note_on_c, 8, 37, 0
9, 7320, Note_on_c, 8, 42, 40
9, 7380, Note_on_c, 8, 42, 0
9, 7380, Note_on_c, 8, 54, 41
9, 7500, Note_on_c, 8, 54, 0
9, 7500, Note_on_c, 8, 55, 42
9, 7530, Note_on_c, 8, 55, 0
9, 7530, Note_on_c, 8, 57, 43
9, 7560, Note_on_c, 8, 57, 0
9, 7560, Note_on_c, 8, 59, 43
9, 7680, Note_on_c, 8, 59, 0
9, 7680, Note_on_c, 8, 47, 45
9, 7800, Note_on_c, 8, 47, 0
9, 7800, Note_on_c, 8, 52, 46
9, 7980, Note_on_c, 8, 52, 0
9, 7980, Note_on_c, 8, 50, 48
9, 8010, Note_on_c, 8, 50, 0
9, 8010, Note_on_c, 8, 52, 49
9, 8040, Note_on_c, 8, 52, 0
9, 8040, Note_on_c, 8, 54, 49
9, 8160, Note_on_c, 8, 54, 0
9, 8160, Note_on_c, 8, 42, 51
9, 8280, Note_on_c, 8, 42, 0
9, 8280, Note_on_c, 8, 47, 52
9, 8460, Note_on_c, 8, 47, 0
9, 8460, Note_on_c, 8, 45, 54
9, 8490, Note_on_c, 8, 45, 0
9, 8490, Note_on_c, 8, 47, 55
9, 8520, Note_on_c, 8, 47, 0
9, 8520, Note_on_c, 8, 49, 55
9, 8640, Note_on_c, 8, 49, 0
9, 8640, Note_on_c, 8, 37, 57
9, 8760, Note_on_c, 8, 37, 0
9, 8760, Note_on_c, 8, 42, 58
9, 8940, Note_on_c, 8, 42, 0
9, 8940, Note_on_c, 8, 43, 60
9, 8970, Note_on_c, 8, 43, 0
9, 8970, Note_on_c, 8, 45, 61
9, 9000, Note_on_c, 8, 45, 0
9, 9000, Note_on_c, 8, 47, 61
9, 9120, Note_on_c, 8, 47, 0
9, 9120, Note_on_c, 8, 59, 63
9, 9240, Note_on_c, 8, 59, 0
9, 9240, Note_on_c, 8, 52, 64
9, 9311, Note_on_c, 8, 52, 0
9, 9420, Note_on_c, 8, 52, 64
9, 9431, Note_on_c, 8, 52, 0
9, 9480, Note_on_c, 8, 50, 64
9, 9551, Note_on_c, 8, 50, 0
9, 9660, Note_on_c, 8, 49, 64
9, 9695, Note_on_c, 8, 49, 0
9, 9720, Note_on_c, 8, 54, 64
9, 9791, Note_on_c, 8, 54, 0
9, 9900, Note_on_c, 8, 47, 64
9, 9935, Note_on_c, 8, 47, 0
9, 9960, Note_on_c, 8, 52, 64
9, 10031, Note_on_c, 8, 52, 0
9, 10140, Note_on_c, 8, 45, 64
9, 10175, Note_on_c, 8, 45, 0
9, 10200, Note_on_c, 8, 50, 70
9, 10271, Note_on_c, 8, 50, 0
9, 10380, Note_on_c, 8, 55, 62
9, 10415, Note_on_c, 8, 55, 0
9, 10440, Note_on_c, 8, 49, 60
9, 10511, Note_on_c, 8, 49, 0
9, 10620, Note_on_c, 8, 54, 52
9, 10655, Note_on_c, 8, 54, 0
9, 10680, Note_on_c, 8, 47, 70
9, 10770, Note_on_c, 8, 47, 0
9, 10770, Note_on_c, 8, 47, 70
9, 10800, Note_on_c, 8, 47, 0
9, 10800, Note_on_c, 8, 47, 70
9, 10835, Note_on_c, 8, 47, 0
9, 10860, Note_on_c, 8, 47, 70
9, 10920, Note_on_c, 8, 47, 0
9, 10920, Note_on_c, 8, 49, 70
9, 10980, Note_on_c, 8, 49, 0
9, 10980, Note_on_c, 8, 43, 70
9, 11040, Note_on_c, 8, 43, 0
9, 11040, Note_on_c, 8, 42, 70
9, 11075, Note_on_c, 8, 42, 0
9, 11100, Note_on_c, 8, 49, 70
9, 11160, Note_on_c, 8, 49, 0
9, 11160, Note_on_c, 8, 50, 70
9, 11220, Note_on_c, 8, 50, 0
9, 11220, Note_on_c, 8, 43, 70
9, 11280, Note_on_c, 8, 43, 0
9, 11280, Note_on_c, 8, 42, 70
9, 11315, Note_on_c, 8, 42, 0
9, 11340, Note_on_c, 8, 51, 70
9, 11400, Note_on_c, 8, 51, 0
9, 11400, Note_on_c, 8, 52, 70
9, 11430, Note_on_c, 8, 52, 0
9, 11430, Note_on_c, 8, 50, 70
9, 11460, Note_on_c, 8, 50, 0
9, 11460, Note_on_c, 8, 48, 70
9, 11550, Note_on_c, 8, 48, 0
9, 11550, Note_on_c, 8, 47, 70
9, 11580, Note_on_c, 8, 47, 0
9, 11580, Note_on_c, 8, 46, 70
9, 11610, Note_on_c, 8, 46, 0
9, 11610, Note_on_c, 8, 47, 70
9, 11640, Note_on_c, 8, 47, 0
9, 11640, Note_on_c, 8, 46, 64
9, 11675, Note_on_c, 8, 46, 0
9, 11700, Note_on_c, 8, 44, 64
9, 11760, Note_on_c, 8, 44, 0
9, 11760, Note_on_c, 8, 46, 64
9, 11820, Note_on_c, 8, 46, 0
9, 11820, Note_on_c, 8, 42, 64
9, 11880, Note_on_c, 8, 42, 0
9, 11880, Note_on_c, 8, 47, 64
9, 11940, Note_on_c, 8, 47, 0
9, 11940, Note_on_c, 8, 49, 64
9, 12000, Note_on_c, 8, 49, 0
9, 12000, Note_on_c, 8, 50, 64
9, 12060, Note_on_c, 8, 50, 0
9, 12060, Note_on_c, 8, 47, 64
9, 12120, Note_on_c, 8, 47, 0
9, 12120, Note_on_c, 8, 52, 64
9, 12180, Note_on_c, 8, 52, 0
9, 12180, Note_on_c, 8, 54, 64
9, 12240, Note_on_c, 8, 54, 0
9, 12240, Note_on_c, 8, 55, 64
9, 12300, Note_on_c, 8, 55, 0
9, 12300, Note_on_c, 8, 52, 64
9, 12360, Note_on_c, 8, 52, 0
9, 12360, Note_on_c, 8, 58, 64
9, 12420, Note_on_c, 8, 58, 0
9, 12420, Note_on_c, 8, 56, 64
9, 12480, Note_on_c, 8, 56, 0
9, 12480, Note_on_c, 8, 58, 64
9, 12540, Note_on_c, 8, 58, 0
9, 12540, Note_on_c, 8, 54, 64
9, 12600, Note_on_c, 8, 54, 0
9, 12600, Note_on_c, 8, 59, 64
9, 12660, Note_on_c, 8, 59, 0
9, 12660, Note_on_c, 8, 57, 64
9, 12720, Note_on_c, 8, 57, 0
9, 12720, Note_on_c, 8, 55, 64
9, 12780, Note_on_c, 8, 55, 0
9, 12780, Note_on_c, 8, 54, 64
9, 12840, Note_on_c, 8, 54, 0
9, 12840, Note_on_c, 8, 52, 64
9, 12960, Note_on_c, 8, 52, 0
9, 12960, Note_on_c, 8, 54, 64
9, 13080, Note_on_c, 8, 54, 0
9, 13080, Note_on_c, 8, 55, 64
9, 13200, Note_on_c, 8, 55, 0
9, 13200, Note_on_c, 8, 54, 64
9, 13260, Note_on_c, 8, 54, 0
9, 13260, Note_on_c, 8, 52, 64
9, 13320, Note_on_c, 8, 52, 0
9, 13320, Note_on_c, 8, 50, 64
9, 13380, Note_on_c, 8, 50, 0
9, 13380, Note_on_c, 8, 49, 64
9, 13440, Note_on_c, 8, 49, 0
9, 13440, Note_on_c, 8, 50, 64
9, 13500, Note_on_c, 8, 50, 0
9, 13500, Note_on_c, 8, 52, 64
9, 13560, Note_on_c, 8, 52, 0
9, 13560, Note_on_c, 8, 54, 64
9, 14100, Note_on_c, 8, 54, 0
9, 14100, Note_on_c, 8, 52, 64
9, 14160, Note_on_c, 8, 52, 0
9, 14160, Note_on_c, 8, 54, 64
9, 14220, Note_on_c, 8, 54, 0
9, 14220, Note_on_c, 8, 42, 64
9, 14280, Note_on_c, 8, 42, 0
9, 14280, Note_on_c, 8, 47, 64
9, 14640, Note_on_c, 8, 47, 0
9, 14640, Note_on_c, 8, 43, 64
9, 14760, Note_on_c, 8, 43, 0
9, 14760, Note_on_c, 8, 40, 64
9, 14880, Note_on_c, 8, 40, 0
9, 14880, Note_on_c, 8, 42, 64
9, 15000, Note_on_c, 8, 42, 0
9, 15000, Note_on_c, 8, 47, 64
9, 15120, Note_on_c, 8, 47, 0
9, 15120, Note_on_c, 8, 57, 64
9, 15240, Note_on_c, 8, 57, 0
9, 15240, Note_on_c, 8, 55, 64
9, 15300, Note_on_c, 8, 55, 0
9, 15300, Note_on_c, 8, 52, 64
9, 15360, Note_on_c, 8, 52, 0
9, 15360, Note_on_c, 8, 54, 64
9, 15420, Note_on_c, 8, 54, 0
9, 15420, Note_on_c, 8, 55, 64
9, 15480, Note_on_c, 8, 55, 0
9, 15480, Note_on_c, 8, 54, 64
9, 15540, Note_on_c, 8, 54, 0
9, 15540, Note_on_c, 8, 52, 64
9, 15600, Note_on_c, 8, 52, 0
9, 15600, Note_on_c, 8, 50, 64
9, 15660, Note_on_c, 8, 50, 0
9, 15660, Note_on_c, 8, 49, 64
9, 15720, Note_on_c, 8, 49, 0
9, 15720, Note_on_c, 8, 47, 64
9, 15840, Note_on_c, 8, 47, 0
9, 15840, Note_on_c, 8, 45, 64
9, 15960, Note_on_c, 8, 45, 0
9, 15960, Note_on_c, 8, 47, 64
9, 16080, Note_on_c, 8, 47, 0
9, 16080, Note_on_c, 8, 49, 64
9, 16200, Note_on_c, 8, 49, 0
9, 16200, Note_on_c, 8, 42, 64
9, 16320, Note_on_c, 8, 42, 0
9, 16320, Note_on_c, 8, 54, 64
9, 16440, Note_on_c, 8, 54, 0
9, 16440, Note_on_c, 8, 47, 64
9, 16500, Note_on_c, 8, 47, 0
9, 16500, Note_on_c, 8, 49, 64
9, 16560, Note_on_c, 8, 49, 0
9, 16560, Note_on_c, 8, 50, 64
9, 16620, Note_on_c, 8, 50, 0
9, 16620, Note_on_c, 8, 47, 64
9, 16680, Note_on_c, 8, 47, 0
9, 16680, Note_on_c, 8, 49, 64
9, 16800, Note_on_c, 8, 49, 0
9, 16800, Note_on_c, 8, 37, 64
9, 16920, Note_on_c, 8, 37, 0
9, 16920, Note_on_c, 8, 42, 64
9, 17100, Note_on_c, 8, 42, 0
9, 17100, Note_on_c, 8, 43, 64
9, 17130, Note_on_c, 8, 43, 0
9, 17130, Note_on_c, 8, 45, 64
9, 17160, Note_on_c, 8, 45, 0
9, 17160, Note_on_c, 8, 47, 64
9, 17280, Note_on_c, 8, 47, 0
9, 17280, Note_on_c, 8, 59, 64
9, 17400, Note_on_c, 8, 59, 0
9, 17400, Note_on_c, 8, 52, 64
9, 17580, Note_on_c, 8, 52, 0
9, 17580, Note_on_c, 8, 54, 64
9, 17610, Note_on_c, 8, 54, 0
9, 17610, Note_on_c, 8, 55, 64
9, 17640, Note_on_c, 8, 55, 0
9, 17640, Note_on_c, 8, 49, 64
9, 17760, Note_on_c, 8, 49, 0
9, 17760, Note_on_c, 8, 54, 64
9, 17880, Note_on_c, 8, 54, 0
9, 17880, Note_on_c, 8, 47, 64
9, 18000, Note_on_c, 8, 47, 0
9, 18060, Note_on_c, 8, 62, 64
9, 18120, Note_on_c, 8, 62, 0
9, 18120, Note_on_c, 8, 64, 64
9, 18240, Note_on_c, 8, 64, 0
9, 18240, Note_on_c, 8, 66, 64
9, 18360, Note_on_c, 8, 66, 0
9, 18360, Note_on_c, 8, 59, 64
9, 18480, Note_on_c, 8, 59, 0
9, 18540, Note_on_c, 8, 59, 64
9, 18600, Note_on_c, 8, 59, 0
9, 18600, Note_on_c, 8, 52, 64
9, 18660, Note_on_c, 8, 52, 0
9, 18660, Note_on_c, 8, 54, 64
9, 18720, Note_on_c, 8, 54, 0
9, 18720, Note_on_c, 8, 55, 64
9, 18780, Note_on_c, 8, 55, 0
9, 18780, Note_on_c, 8, 52, 64
9, 18840, Note_on_c, 8, 52, 0
9, 18840, Note_on_c, 8, 54, 64
9, 19020, Note_on_c, 8, 54, 0
9, 19020, Note_on_c, 8, 56, 64
9, 19050, Note_on_c, 8, 56, 0
9, 19050, Note_on_c, 8, 58, 64
9, 19080, Note_on_c, 8, 58, 0
9, 19080, Note_on_c, 8, 59, 64
9, 19140, Note_on_c, 8, 59, 0
9, 19140, Note_on_c, 8, 61, 64
9, 19200, Note_on_c, 8, 61, 0
9, 19200, Note_on_c, 8, 62, 64
9, 19260, Note_on_c, 8, 62, 0
9, 19260, Note_on_c, 8, 61, 64
9, 19320, Note_on_c, 8, 61, 0
9, 19320, Note_on_c, 8, 59, 64
9, 19380, Note_on_c, 8, 59, 0
9, 19380, Note_on_c, 8, 57, 64
9, 19410, Note_on_c, 8, 57, 0
9, 19410, Note_on_c, 8, 59, 64
9, 19440, Note_on_c, 8, 59, 0
9, 19440, Note_on_c, 8, 61, 64
9, 19560, Note_on_c, 8, 61, 0
9, 19560, Note_on_c, 8, 54, 64
9, 19620, Note_on_c, 8, 54, 0
9, 19620, Note_on_c, 8, 56, 64
9, 19680, Note_on_c, 8, 56, 0
9, 19680, Note_on_c, 8, 58, 64
9, 19740, Note_on_c, 8, 58, 0
9, 19740, Note_on_c, 8, 54, 64
9, 19800, Note_on_c, 8, 54, 0
9, 19800, Note_on_c, 8, 59, 64
9, 19980, Note_on_c, 8, 59, 0
9, 19980, Note_on_c, 8, 57, 64
9, 20040, Note_on_c, 8, 57, 0
9, 20040, Note_on_c, 8, 56, 64
9, 20160, Note_on_c, 8, 56, 0
9, 20160, Note_on_c, 8, 49, 64
9, 20280, Note_on_c, 8, 49, 0
9, 20280, Note_on_c, 8, 54, 64
9, 20460, Note_on_c, 8, 54, 0
9, 20460, Note_on_c, 8, 55, 64
9, 20490, Note_on_c, 8, 55, 0
9, 20490, Note_on_c, 8, 57, 64
9, 20520, Note_on_c, 8, 57, 0
9, 20520, Note_on_c, 8, 59, 64
9, 20580, Note_on_c, 8, 59, 0
9, 20580, Note_on_c, 8, 57, 64
9, 20610, Note_on_c, 8, 57, 0
9, 20610, Note_on_c, 8, 55, 64
9, 20640, Note_on_c, 8, 55, 0
9, 20640, Note_on_c, 8, 57, 64
9, 20700, Note_on_c, 8, 57, 0
9, 20700, Note_on_c, 8, 59, 64
9, 20760, Note_on_c, 8, 59, 0
9, 20760, Note_on_c, 8, 52, 64
9, 20940, Note_on_c, 8, 52, 0
9, 20940, Note_on_c, 8, 54, 64
9, 20970, Note_on_c, 8, 54, 0
9, 20970, Note_on_c, 8, 55, 64
9, 21000, Note_on_c, 8, 55, 0
9, 21000, Note_on_c, 8, 57, 64
9, 21060, Note_on_c, 8, 57, 0
9, 21060, Note_on_c, 8, 55, 64
9, 21090, Note_on_c, 8, 55, 0
9, 21090, Note_on_c, 8, 54, 64
9, 21120, Note_on_c, 8, 54, 0
9, 21120, Note_on_c, 8, 55, 64
9, 21180, Note_on_c, 8, 55, 0
9, 21180, Note_on_c, 8, 57, 64
9, 21240, Note_on_c, 8, 57, 0
9, 21240, Note_on_c, 8, 50, 64
9, 21300, Note_on_c, 8, 50, 0
9, 21300, Note_on_c, 8, 62, 64
9, 21420, Note_on_c, 8, 62, 0
9, 21420, Note_on_c, 8, 61, 64
9, 21480, Note_on_c, 8, 61, 0
9, 21480, Note_on_c, 8, 59, 64
9, 21600, Note_on_c, 8, 59, 0
9, 21600, Note_on_c, 8, 61, 64
9, 21660, Note_on_c, 8, 61, 0
9, 21660, Note_on_c, 8, 62, 64
9, 21690, Note_on_c, 8, 62, 0
9, 21690, Note_on_c, 8, 64, 64
9, 21720, Note_on_c, 8, 64, 0
9, 21720, Note_on_c, 8, 66, 64
9, 21840, Note_on_c, 8, 66, 0
9, 21840, Note_on_c, 8, 54, 64
9, 21960, Note_on_c, 8, 54, 0
9, 21960, Note_on_c, 8, 47, 64
9, 22050, Note_on_c, 8, 47, 0
9, 22050, Note_on_c, 8, 47, 64
9, 22080, Note_on_c, 8, 47, 0
9, 22080, Note_on_c, 8, 47, 64
9, 22115, Note_on_c, 8, 47, 0
9, 22140, Note_on_c, 8, 47, 64
9, 22200, Note_on_c, 8, 47, 0
9, 22200, Note_on_c, 8, 49, 64
9, 22260, Note_on_c, 8, 49, 0
9, 22260, Note_on_c, 8, 43, 64
9, 22320, Note_on_c, 8, 43, 0
9, 22320, Note_on_c, 8, 42, 64
9, 22355, Note_on_c, 8, 42, 0
9, 22380, Note_on_c, 8, 49, 64
9, 22440, Note_on_c, 8, 49, 0
9, 22440, Note_on_c, 8, 50, 64
9, 22500, Note_on_c, 8, 50, 0
9, 22500, Note_on_c, 8, 43, 64
9, 22560, Note_on_c, 8, 43, 0
9, 22560, Note_on_c, 8, 42, 64
9, 22595, Note_on_c, 8, 42, 0
9, 22620, Note_on_c, 8, 51, 64
9, 22680, Note_on_c, 8, 51, 0
9, 22680, Note_on_c, 8, 52, 64
9, 22710, Note_on_c, 8, 52, 0
9, 22710, Note_on_c, 8, 50, 64
9, 22740, Note_on_c, 8, 50, 0
9, 22740, Note_on_c, 8, 48, 64
9, 22830, Note_on_c, 8, 48, 0
9, 22830, Note_on_c, 8, 47, 64
9, 22860, Note_on_c, 8, 47, 0
9, 22860, Note_on_c, 8, 46, 64
9, 22890, Note_on_c, 8, 46, 0
9, 22890, Note_on_c, 8, 47, 64
9, 22920, Note_on_c, 8, 47, 0
9, 22920, Note_on_c, 8, 46, 64
9, 22955, Note_on_c, 8, 46, 0
9, 22980, Note_on_c, 8, 55, 64
9, 23040, Note_on_c, 8, 55, 0
9, 23040, Note_on_c, 8, 54, 64
9, 23100, Note_on_c, 8, 54, 0
9, 23100, Note_on_c, 8, 52, 64
9, 23160, Note_on_c, 8, 52, 0
9, 23160, Note_on_c, 8, 50, 64
9, 23220, Note_on_c, 8, 50, 0
9, 23220, Note_on_c, 8, 49, 64
9, 23250, Note_on_c, 8, 49, 0
9, 23250, Note_on_c, 8, 47, 64
9, 23280, Note_on_c, 8, 47, 0
9, 23280, Note_on_c, 8, 54, 64
9, 23520, Note_on_c, 8, 54, 0
9, 23520, Note_on_c, 8, 53, 64
9, 23640, Note_on_c, 8, 53, 0
9, 23640, Note_on_c, 8, 54, 64
9, 23760, Note_on_c, 8, 54, 0
9, 23820, Note_on_c, 8, 52, 64
9, 23880, Note_on_c, 8, 52, 0
9, 23880, Note_on_c, 8, 50, 64
9, 23940, Note_on_c, 8, 50, 0
9, 23940, Note_on_c, 8, 47, 64
9, 24000, Note_on_c, 8, 47, 0
9, 24000, Note_on_c, 8, 49, 64
9, 24060, Note_on_c, 8, 49, 0
9, 24060, Note_on_c, 8, 50, 64
9, 24120, Note_on_c, 8, 50, 0
9, 24120, Note_on_c, 8, 49, 64
9, 24180, Note_on_c, 8, 49, 0
9, 24180, Note_on_c, 8, 47, 64
9, 24240, Note_on_c, 8, 47, 0
9, 24240, Note_on_c, 8, 45, 64
9, 24300, Note_on_c, 8, 45, 0
9, 24300, Note_on_c, 8, 44, 64
9, 24360, Note_on_c, 8, 44, 0
9, 24360, Note_on_c, 8, 42, 64
9, 24480, Note_on_c, 8, 42, 0
9, 24480, Note_on_c, 8, 40, 64
9, 24600, Note_on_c, 8, 40, 0
9, 24600, Note_on_c, 8, 42, 64
9, 24720, Note_on_c, 8, 42, 0
9, 24720, Note_on_c, 8, 44, 64
9, 24840, Note_on_c, 8, 44, 0
9, 24840, Note_on_c, 8, 37, 64
9, 24960, Note_on_c, 8, 37, 0
9, 24960, Note_on_c, 8, 47, 64
9, 25080, Note_on_c, 8, 47, 0
9, 25080, Note_on_c, 8, 45, 64
9, 25140, Note_on_c, 8, 45, 0
9, 25140, Note_on_c, 8, 42, 64
9, 25200, Note_on_c, 8, 42, 0
9, 25200, Note_on_c, 8, 54, 64
9, 25260, Note_on_c, 8, 54, 0
9, 25260, Note_on_c, 8, 56, 64
9, 25320, Note_on_c, 8, 56, 0
9, 25320, Note_on_c, 8, 57, 64
9, 25440, Note_on_c, 8, 57, 0
9, 25440, Note_on_c, 8, 48, 64
9, 25560, Note_on_c, 8, 48, 0
9, 25560, Note_on_c, 8, 49, 64
9, 25620, Note_on_c, 8, 49, 0
9, 25620, Note_on_c, 8, 51, 64
9, 25680, Note_on_c, 8, 51, 0
9, 25680, Note_on_c, 8, 52, 64
9, 25740, Note_on_c, 8, 52, 0
9, 25740, Note_on_c, 8, 49, 64
9, 25800, Note_on_c, 8, 49, 0
9, 25800, Note_on_c, 8, 54, 64
9, 25860, Note_on_c, 8, 54, 0
9, 25860, Note_on_c, 8, 52, 64
9, 25920, Note_on_c, 8, 52, 0
9, 25920, Note_on_c, 8, 51, 64
9, 25980, Note_on_c, 8, 51, 0
9, 25980, Note_on_c, 8, 49, 64
9, 26040, Note_on_c, 8, 49, 0
9, 26040, Note_on_c, 8, 48, 64
9, 26100, Note_on_c, 8, 48, 0
9, 26100, Note_on_c, 8, 46, 64
9, 26160, Note_on_c, 8, 46, 0
9, 26160, Note_on_c, 8, 48, 64
9, 26220, Note_on_c, 8, 48, 0
9, 26220, Note_on_c, 8, 44, 64
9, 26280, Note_on_c, 8, 44, 0
9, 26280, Note_on_c, 8, 49, 64
9, 26340, Note_on_c, 8, 49, 0
9, 26340, Note_on_c, 8, 47, 64
9, 26400, Note_on_c, 8, 47, 0
9, 26400, Note_on_c, 8, 45, 64
9, 26460, Note_on_c, 8, 45, 0
9, 26460, Note_on_c, 8, 44, 64
9, 26520, Note_on_c, 8, 44, 0
9, 26520, Note_on_c, 8, 42, 64
9, 26640, Note_on_c, 8, 42, 0
9, 26640, Note_on_c, 8, 44, 64
9, 26760, Note_on_c, 8, 44, 0
9, 26760, Note_on_c, 8, 45, 64
9, 26880, Note_on_c, 8, 45, 0
9, 26880, Note_on_c, 8, 44, 64
9, 26940, Note_on_c, 8, 44, 0
9, 26940, Note_on_c, 8, 42, 64
9, 27000, Note_on_c, 8, 42, 0
9, 27000, Note_on_c, 8, 40, 64
9, 27060, Note_on_c, 8, 40, 0
9, 27060, Note_on_c, 8, 39, 64
9, 27120, Note_on_c, 8, 39, 0
9, 27120, Note_on_c, 8, 40, 64
9, 27180, Note_on_c, 8, 40, 0
9, 27180, Note_on_c, 8, 42, 64
9, 27240, Note_on_c, 8, 42, 0
9, 27240, Note_on_c, 8, 44, 64
9, 27780, Note_on_c, 8, 44, 0
9, 27780, Note_on_c, 8, 42, 64
9, 27840, Note_on_c, 8, 42, 0
9, 27840, Note_on_c, 8, 44, 64
9, 27900, Note_on_c, 8, 44, 0
9, 27900, Note_on_c, 8, 44, 64
9, 27960, Note_on_c, 8, 44, 0
9, 27960, Note_on_c, 8, 49, 40
9, 28140, Note_on_c, 8, 49, 0
9, 28140, Note_on_c, 8, 50, 42
9, 28170, Note_on_c, 8, 50, 0
9, 28170, Note_on_c, 8, 52, 43
9, 28200, Note_on_c, 8, 52, 0
9, 28200, Note_on_c, 8, 54, 43
9, 28320, Note_on_c, 8, 54, 0
9, 28320, Note_on_c, 8, 42, 45
9, 28440, Note_on_c, 8, 42, 0
9, 28440, Note_on_c, 8, 47, 46
9, 28620, Note_on_c, 8, 47, 0
9, 28620, Note_on_c, 8, 45, 48
9, 28650, Note_on_c, 8, 45, 0
9, 28650, Note_on_c, 8, 47, 49
9, 28680, Note_on_c, 8, 47, 0
9, 28680, Note_on_c, 8, 49, 49
9, 28800, Note_on_c, 8, 49, 0
9, 28800, Note_on_c, 8, 37, 51
9, 28920, Note_on_c, 8, 37, 0
9, 28920, Note_on_c, 8, 42, 52
9, 29100, Note_on_c, 8, 42, 0
9, 29100, Note_on_c, 8, 40, 54
9, 29130, Note_on_c, 8, 40, 0
9, 29130, Note_on_c, 8, 42, 55
9, 29160, Note_on_c, 8, 42, 0
9, 29160, Note_on_c, 8, 44, 55
9, 29280, Note_on_c, 8, 44, 0
9, 29280, Note_on_c, 8, 56, 57
9, 29400, Note_on_c, 8, 56, 0
9, 29400, Note_on_c, 8, 49, 58
9, 29580, Note_on_c, 8, 49, 0
9, 29580, Note_on_c, 8, 50, 60
9, 29610, Note_on_c, 8, 50, 0
9, 29610, Note_on_c, 8, 52, 61
9, 29640, Note_on_c, 8, 52, 0
9, 29640, Note_on_c, 8, 54, 61
9, 29760, Note_on_c, 8, 54, 0
9, 29760, Note_on_c, 8, 42, 63
9, 29880, Note_on_c, 8, 42, 0
9, 29880, Note_on_c, 8, 47, 75
9, 29951, Note_on_c, 8, 47, 0
9, 30060, Note_on_c, 8, 47, 75
9, 30071, Note_on_c, 8, 47, 0
9, 30120, Note_on_c, 8, 45, 75
9, 30191, Note_on_c, 8, 45, 0
9, 30300, Note_on_c, 8, 44, 75
9, 30335, Note_on_c, 8, 44, 0
9, 30360, Note_on_c, 8, 49, 75
9, 30431, Note_on_c, 8, 49, 0
9, 30540, Note_on_c, 8, 42, 75
9, 30551, Note_on_c, 8, 42, 0
9, 30600, Note_on_c, 8, 47, 75
9, 30671, Note_on_c, 8, 47, 0
9, 30780, Note_on_c, 8, 40, 75
9, 30815, Note_on_c, 8, 40, 0
9, 30840, Note_on_c, 8, 45, 64
9, 30960, Note_on_c, 8, 45, 0
9, 31020, Note_on_c, 8, 50, 64
9, 31080, Note_on_c, 8, 50, 0
9, 31080, Note_on_c, 8, 44, 64
9, 31200, Note_on_c, 8, 44, 0
9, 31260, Note_on_c, 8, 49, 64
9, 31320, Note_on_c, 8, 49, 0
9, 31320, Note_on_c, 8, 42, 64
9, 31410, Note_on_c, 8, 42, 0
9, 31410, Note_on_c, 8, 42, 64
9, 31440, Note_on_c, 8, 42, 0
9, 31440, Note_on_c, 8, 42, 64
9, 31475, Note_on_c, 8, 42, 0
9, 31500, Note_on_c, 8, 42, 64
9, 31560, Note_on_c, 8, 42, 0
9, 31560, Note_on_c, 8, 44, 64
9, 31620, Note_on_c, 8, 44, 0
9, 31620, Note_on_c, 8, 38, 64
9, 31680, Note_on_c, 8, 38, 0
9, 31680, Note_on_c, 8, 37, 64
9, 31715, Note_on_c, 8, 37, 0
9, 31740, Note_on_c, 8, 44, 64
9, 31800, Note_on_c, 8, 44, 0
9, 31800, Note_on_c, 8, 45, 64
9, 31860, Note_on_c, 8, 45, 0
9, 31860, Note_on_c, 8, 38, 64
9, 31920, Note_on_c, 8, 38, 0
9, 31920, Note_on_c, 8, 37, 64
9, 31955, Note_on_c, 8, 37, 0
9, 31980, Note_on_c, 8, 46, 64
9, 32040, Note_on_c, 8, 46, 0
9, 32040, Note_on_c, 8, 47, 64
9, 32070, Note_on_c, 8, 47, 0
9, 32070, Note_on_c, 8, 45, 64
9, 32100, Note_on_c, 8, 45, 0
9, 32100, Note_on_c, 8, 43, 64
9, 32190, Note_on_c, 8, 43, 0
9, 32190, Note_on_c, 8, 42, 64
9, 32220, Note_on_c, 8, 42, 0
9, 32220, Note_on_c, 8, 41, 64
9, 32250, Note_on_c, 8, 41, 0
9, 32250, Note_on_c, 8, 42, 64
9, 32280, Note_on_c, 8, 42, 0
9, 32280, Note_on_c, 8, 41, 64
9, 32340, Note_on_c, 8, 41, 0
9, 32340, Note_on_c, 8, 39, 64
9, 32400, Note_on_c, 8, 39, 0
9, 32400, Note_on_c, 8, 41, 64
9, 32460, Note_on_c, 8, 41, 0
9, 32460, Note_on_c, 8, 37, 64
9, 32520, Note_on_c, 8, 37, 0
9, 32520, Note_on_c, 8, 42, 64
9, 32580, Note_on_c, 8, 42, 0
9, 32580, Note_on_c, 8, 44, 64
9, 32640, Note_on_c, 8, 44, 0
9, 32640, Note_on_c, 8, 45, 64
9, 32700, Note_on_c, 8, 45, 0
9, 32700, Note_on_c, 8, 42, 64
9, 32760, Note_on_c, 8, 42, 0
9, 32760, Note_on_c, 8, 47, 64
9, 32820, Note_on_c, 8, 47, 0
9, 32820, Note_on_c, 8, 49, 64
9, 32880, Note_on_c, 8, 49, 0
9, 32880, Note_on_c, 8, 50, 64
9, 32940, Note_on_c, 8, 50, 0
9, 32940, Note_on_c, 8, 47, 64
9, 33000, Note_on_c, 8, 47, 0
9, 33000, Note_on_c, 8, 53, 64
9, 33060, Note_on_c, 8, 53, 0
9, 33060, Note_on_c, 8, 51, 64
9, 33120, Note_on_c, 8, 51, 0
9, 33120, Note_on_c, 8, 53, 64
9, 33180, Note_on_c, 8, 53, 0
9, 33180, Note_on_c, 8, 49, 64
9, 33240, Note_on_c, 8, 49, 0
9, 33240, Note_on_c, 8, 54, 64
9, 33300, Note_on_c, 8, 54, 0
9, 33300, Note_on_c, 8, 52, 64
9, 33360, Note_on_c, 8, 52, 0
9, 33360, Note_on_c, 8, 50, 64
9, 33420, Note_on_c, 8, 50, 0
9, 33420, Note_on_c, 8, 49, 64
9, 33480, Note_on_c, 8, 49, 0
9, 33480, Note_on_c, 8, 47, 64
9, 33600, Note_on_c, 8, 47, 0
9, 33600, Note_on_c, 8, 49, 64
9, 33720, Note_on_c, 8, 49, 0
9, 33720, Note_on_c, 8, 50, 64
9, 33840, Note_on_c, 8, 50, 0
9, 33840, Note_on_c, 8, 49, 64
9, 33900, Note_on_c, 8, 49, 0
9, 33900, Note_on_c, 8, 47, 64
9, 33960, Note_on_c, 8, 47, 0
9, 33960, Note_on_c, 8, 45, 64
9, 34020, Note_on_c, 8, 45, 0
9, 34020, Note_on_c, 8, 44, 64
9, 34080, Note_on_c, 8, 44, 0
9, 34080, Note_on_c, 8, 45, 64
9, 34140, Note_on_c, 8, 45, 0
9, 34140, Note_on_c, 8, 47, 64
9, 34200, Note_on_c, 8, 47, 0
9, 34200, Note_on_c, 8, 49, 64
9, 34740, Note_on_c, 8, 49, 0
9, 34740, Note_on_c, 8, 47, 64
9, 34800, Note_on_c, 8, 47, 0
9, 34800, Note_on_c, 8, 49, 64
9, 34920, Note_on_c, 8, 49, 0
9, 34920, Note_on_c, 8, 42, 64
9, 34980, Note_on_c, 8, 42, 0
9, 34980, Note_on_c, 8, 45, 64
9, 35040, Note_on_c, 8, 45, 0
9, 35040, Note_on_c, 8, 50, 64
9, 35100, Note_on_c, 8, 50, 0
9, 35100, Note_on_c, 8, 49, 64
9, 35160, Note_on_c, 8, 49, 0
9, 35160, Note_on_c, 8, 47, 64
9, 35220, Note_on_c, 8, 47, 0
9, 35220, Note_on_c, 8, 45, 64
9, 35250, Note_on_c, 8, 45, 0
9, 35250, Note_on_c, 8, 47, 64
9, 35280, Note_on_c, 8, 47, 0
9, 35280, Note_on_c, 8, 49, 64
9, 35340, Note_on_c, 8, 49, 0
9, 35340, Note_on_c, 8, 37, 64
9, 35400, Note_on_c, 8, 37, 0
9, 35400, Note_on_c, 8, 42, 64
9, 35460, Note_on_c, 8, 42, 0
9, 35460, Note_on_c, 8, 44, 64
9, 35520, Note_on_c, 8, 44, 0
9, 35520, Note_on_c, 8, 46, 64
9, 35580, Note_on_c, 8, 46, 0
9, 35580, Note_on_c, 8, 42, 64
9, 35640, Note_on_c, 8, 42, 0
9, 35640, Note_on_c, 8, 47, 64
9, 35700, Note_on_c, 8, 47, 0
9, 35700, Note_on_c, 8, 59, 64
9, 35760, Note_on_c, 8, 59, 0
9, 35760, Note_on_c, 8, 57, 64
9, 35820, Note_on_c, 8, 57, 0
9, 35820, Note_on_c, 8, 56, 64
9, 35880, Note_on_c, 8, 56, 0
9, 35880, Note_on_c, 8, 61, 64
9, 36000, Note_on_c, 8, 61, 0
9, 36060, Note_on_c, 8, 49, 64
9, 36095, Note_on_c, 8, 49, 0
9, 36120, Note_on_c, 8, 50, 64
9, 36191, Note_on_c, 8, 50, 0
9, 36300, Note_on_c, 8, 44, 64
9, 36335, Note_on_c, 8, 44, 0
9, 36360, Note_on_c, 8, 49, 64
9, 36431, Note_on_c, 8, 49, 0
9, 36540, Note_on_c, 8, 42, 64
9, 36575, Note_on_c, 8, 42, 0
9, 36600, Note_on_c, 8, 47, 64
9, 36720, Note_on_c, 8, 47, 0
9, 36780, Note_on_c, 8, 40, 64
9, 36840, Note_on_c, 8, 40, 0
9, 36840, Note_on_c, 8, 45, 64
9, 36900, Note_on_c, 8, 45, 0
9, 36900, Note_on_c, 8, 49, 64
9, 36960, Note_on_c, 8, 49, 0
9, 36960, Note_on_c, 8, 54, 64
9, 37020, Note_on_c, 8, 54, 0
9, 37020, Note_on_c, 8, 52, 64
9, 37080, Note_on_c, 8, 52, 0
9, 37080, Note_on_c, 8, 50, 64
9, 37140, Note_on_c, 8, 50, 0
9, 37140, Note_on_c, 8, 47, 64
9, 37200, Note_on_c, 8, 47, 0
9, 37200, Note_on_c, 8, 52, 64
9, 37260, Note_on_c, 8, 52, 0
9, 37260, Note_on_c, 8, 40, 64
9, 37320, Note_on_c, 8, 40, 0
9, 37320, Note_on_c, 8, 45, 64
9, 37380, Note_on_c, 8, 45, 0
9, 37380, Note_on_c, 8, 47, 64
9, 37440, Note_on_c, 8, 47, 0
9, 37440, Note_on_c, 8, 49, 64
9, 37500, Note_on_c, 8, 49, 0
9, 37500, Note_on_c, 8, 45, 64
9, 37560, Note_on_c, 8, 45, 0
9, 37560, Note_on_c, 8, 50, 64
9, 37620, Note_on_c, 8, 50, 0
9, 37620, Note_on_c, 8, 49, 64
9, 37680, Note_on_c, 8, 49, 0
9, 37680, Note_on_c, 8, 50, 64
9, 37740, Note_on_c, 8, 50, 0
9, 37740, Note_on_c, 8, 47, 64
9, 37800, Note_on_c, 8, 47, 0
9, 37800, Note_on_c, 8, 52, 64
9, 37860, Note_on_c, 8, 52, 0
9, 37860, Note_on_c, 8, 54, 64
9, 37920, Note_on_c, 8, 54, 0
9, 37920, Note_on_c, 8, 56, 64
9, 37980, Note_on_c, 8, 56, 0
9, 37980, Note_on_c, 8, 52, 64
9, 38040, Note_on_c, 8, 52, 0
9, 38040, Note_on_c, 8, 57, 64
9, 38111, Note_on_c, 8, 57, 0
9, 38220, Note_on_c, 8, 59, 64
9, 38255, Note_on_c, 8, 59, 0
9, 38280, Note_on_c, 8, 52, 64
9, 38351, Note_on_c, 8, 52, 0
9, 38460, Note_on_c, 8, 57, 64
9, 38495, Note_on_c, 8, 57, 0
9, 38520, Note_on_c, 8, 50, 64
9, 38591, Note_on_c, 8, 50, 0
9, 38700, Note_on_c, 8, 55, 64
9, 38735, Note_on_c, 8, 55, 0
9, 38760, Note_on_c, 8, 49, 64
9, 38831, Note_on_c, 8, 49, 0
9, 38940, Note_on_c, 8, 54, 64
9, 38975, Note_on_c, 8, 54, 0
9, 39000, Note_on_c, 8, 47, 64
9, 39090, Note_on_c, 8, 47, 0
9, 39090, Note_on_c, 8, 47, 64
9, 39120, Note_on_c, 8, 47, 0
9, 39120, Note_on_c, 8, 47, 64
9, 39155, Note_on_c, 8, 47, 0
9, 39180, Note_on_c, 8, 47, 64
9, 39240, Note_on_c, 8, 47, 0
9, 39240, Note_on_c, 8, 49, 64
9, 39300, Note_on_c, 8, 49, 0
9, 39300, Note_on_c, 8, 43, 64
9, 39360, Note_on_c, 8, 43, 0
9, 39360, Note_on_c, 8, 42, 64
9, 39395, Note_on_c, 8, 42, 0
9, 39420, Note_on_c, 8, 49, 64
9, 39480, Note_on_c, 8, 49, 0
9, 39480, Note_on_c, 8, 50, 64
9, 39540, Note_on_c, 8, 50, 0
9, 39540, Note_on_c, 8, 43, 64
9, 39600, Note_on_c, 8, 43, 0
9, 39600, Note_on_c, 8, 42, 64
9, 39635, Note_on_c, 8, 42, 0
9, 39660, Note_on_c, 8, 51, 64
9, 39720, Note_on_c, 8, 51, 0
9, 39720, Note_on_c, 8, 52, 64
9, 39750, Note_on_c, 8, 52, 0
9, 39750, Note_on_c, 8, 50, 64
9, 39780, Note_on_c, 8, 50, 0
9, 39780, Note_on_c, 8, 48, 64
9, 39870, Note_on_c, 8, 48, 0
9, 39870, Note_on_c, 8, 47, 64
9, 39900, Note_on_c, 8, 47, 0
9, 39900, Note_on_c, 8, 46, 64
9, 39930, Note_on_c, 8, 46, 0
9, 39930, Note_on_c, 8, 47, 64
9, 39960, Note_on_c, 8, 47, 0
9, 39960, Note_on_c, 8, 46, 64
9, 39995, Note_on_c, 8, 46, 0
9, 40020, Note_on_c, 8, 55, 64
9, 40080, Note_on_c, 8, 55, 0
9, 40080, Note_on_c, 8, 54, 64
9, 40140, Note_on_c, 8, 54, 0
9, 40140, Note_on_c, 8, 52, 64
9, 40200, Note_on_c, 8, 52, 0
9, 40200, Note_on_c, 8, 50, 64
9, 40260, Note_on_c, 8, 50, 0
9, 40260, Note_on_c, 8, 49, 64
9, 40290, Note_on_c, 8, 49, 0
9, 40290, Note_on_c, 8, 47, 64
9, 40320, Note_on_c, 8, 47, 0
9, 40320, Note_on_c, 8, 54, 64
9, 40560, Note_on_c, 8, 54, 0
9, 40560, Note_on_c, 8, 53, 64
9, 40680, Note_on_c, 8, 53, 0
9, 40680, Note_on_c, 8, 54, 64
9, 40800, Note_on_c, 8, 54, 0
9, 40860, Note_on_c, 8, 52, 64
9, 40920, Note_on_c, 8, 52, 0
9, 40920, Note_on_c, 8, 50, 64
9, 40980, Note_on_c, 8, 50, 0
9, 40980, Note_on_c, 8, 49, 64
9, 41040, Note_on_c, 8, 49, 0
9, 41040, Note_on_c, 8, 50, 64
9, 41100, Note_on_c, 8, 50, 0
9, 41100, Note_on_c, 8, 47, 64
9, 41160, Note_on_c, 8, 47, 0
9, 41160, Note_on_c, 8, 49, 64
9, 41280, Note_on_c, 8, 49, 0
9, 41280, Note_on_c, 8, 37, 64
9, 41400, Note_on_c, 8, 37, 0
9, 41400, Note_on_c, 8, 42, 64
9, 41520, Note_on_c, 8, 42, 0
9, 41580, Note_on_c, 8, 47, 64
9, 41640, Note_on_c, 8, 47, 0
9, 41640, Note_on_c, 8, 52, 64
9, 41760, Note_on_c, 8, 52, 0
9, 41760, Note_on_c, 8, 40, 64
9, 41880, Note_on_c, 8, 40, 0
9, 41880, Note_on_c, 8, 45, 64
9, 42000, Note_on_c, 8, 45, 0
9, 42060, Note_on_c, 8, 45, 64
9, 42120, Note_on_c, 8, 45, 0
9, 42120, Note_on_c, 8, 50, 64
9, 42240, Note_on_c, 8, 50, 0
9, 42300, Note_on_c, 8, 38, 64
9, 42360, Note_on_c, 8, 38, 0
9, 42360, Note_on_c, 8, 43, 64
9, 42420, Note_on_c, 8, 43, 0
9, 42420, Note_on_c, 8, 42, 64
9, 42480, Note_on_c, 8, 42, 0
9, 42480, Note_on_c, 8, 40, 64
9, 42540, Note_on_c, 8, 40, 0
9, 42540, Note_on_c, 8, 38, 64
9, 42600, Note_on_c, 8, 38, 0
9, 42600, Note_on_c, 8, 40, 64
9, 42720, Note_on_c, 8, 40, 0
9, 42720, Note_on_c, 8, 42, 64
9, 42840, Note_on_c, 8, 42, 0
9, 42840, Note_on_c, 8, 47, 64
9, 42960, Note_on_c, 8, 47, 0
9, 42960, Note_on_c, 8, 45, 64
9, 43080, Note_on_c, 8, 45, 0
9, 43080, Note_on_c, 8, 43, 64
9, 43140, Note_on_c, 8, 43, 0
9, 43140, Note_on_c, 8, 52, 64
9, 43200, Note_on_c, 8, 52, 0
9, 43200, Note_on_c, 8, 50, 64
9, 43260, Note_on_c, 8, 50, 0
9, 43260, Note_on_c, 8, 49, 64
9, 43320, Note_on_c, 8, 49, 0
9, 43320, Note_on_c, 8, 54, 64
9, 43380, Note_on_c, 8, 54, 0
9, 43380, Note_on_c, 8, 52, 64
9, 43440, Note_on_c, 8, 52, 0
9, 43440, Note_on_c, 8, 50, 64
9, 43500, Note_on_c, 8, 50, 0
9, 43500, Note_on_c, 8, 49, 64
9, 43560, Note_on_c, 8, 49, 0
9, 43560, Note_on_c, 8, 47, 64
9, 43620, Note_on_c, 8, 47, 0
9, 43620, Note_on_c, 8, 49, 64
9, 43680, Note_on_c, 8, 49, 0
9, 43680, Note_on_c, 8, 50, 64
9, 43740, Note_on_c, 8, 50, 0
9, 43740, Note_on_c, 8, 49, 64
9, 43800, Note_on_c, 8, 49, 0
9, 43800, Note_on_c, 8, 47, 64
9, 43860, Note_on_c, 8, 47, 0
9, 43860, Note_on_c, 8, 45, 64
9, 43890, Note_on_c, 8, 45, 0
9, 43890, Note_on_c, 8, 47, 64
9, 43920, Note_on_c, 8, 47, 0
9, 43920, Note_on_c, 8, 49, 64
9, 44040, Note_on_c, 8, 49, 0
9, 44040, Note_on_c, 8, 42, 64
9, 44160, Note_on_c, 8, 42, 0
9, 44340, Note_on_c, 8, 59, 64
9, 44400, Note_on_c, 8, 59, 0
9, 44400, Note_on_c, 8, 57, 64
9, 44460, Note_on_c, 8, 57, 0
9, 44460, Note_on_c, 8, 54, 64
9, 44520, Note_on_c, 8, 54, 0
9, 44520, Note_on_c, 8, 56, 64
9, 44640, Note_on_c, 8, 56, 0
9, 44640, Note_on_c, 8, 49, 64
9, 44760, Note_on_c, 8, 49, 0
9, 44760, Note_on_c, 8, 54, 64
9, 44880, Note_on_c, 8, 54, 0
9, 44880, Note_on_c, 8, 53, 64
9, 45000, Note_on_c, 8, 53, 0
9, 45000, Note_on_c, 8, 52, 64
9, 45120, Note_on_c, 8, 52, 0
9, 45120, Note_on_c, 8, 40, 64
9, 45240, Note_on_c, 8, 40, 0
9, 45240, Note_on_c, 8, 45, 64
9, 45300, Note_on_c, 8, 45, 0
9, 45300, Note_on_c, 8, 57, 64
9, 45360, Note_on_c, 8, 57, 0
9, 45360, Note_on_c, 8, 55, 64
9, 45420, Note_on_c, 8, 55, 0
9, 45420, Note_on_c, 8, 52, 64
9, 45480, Note_on_c, 8, 52, 0
9, 45480, Note_on_c, 8, 54, 64
9, 45600, Note_on_c, 8, 54, 0
9, 45600, Note_on_c, 8, 42, 64
9, 45720, Note_on_c, 8, 42, 0
9, 45720, Note_on_c, 8, 47, 64
9, 45780, Note_on_c, 8, 47, 0
9, 45780, Note_on_c, 8, 54, 64
9, 45840, Note_on_c, 8, 54, 0
9, 45840, Note_on_c, 8, 59, 64
9, 46020, Note_on_c, 8, 59, 0
9, 46020, Note_on_c, 8, 54, 64
9, 46080, Note_on_c, 8, 54, 0
9, 46080, Note_on_c, 8, 53, 64
9, 46140, Note_on_c, 8, 53, 0
9, 46140, Note_on_c, 8, 59, 64
9, 46200, Note_on_c, 8, 59, 0
9, 46200, Note_on_c, 8, 57, 64
9, 46260, Note_on_c, 8, 57, 0
9, 46260, Note_on_c, 8, 56, 64
9, 46290, Note_on_c, 8, 56, 0
9, 46290, Note_on_c, 8, 54, 64
9, 46320, Note_on_c, 8, 54, 0
9, 46320, Note_on_c, 8, 57, 64
9, 46500, Note_on_c, 8, 57, 0
9, 46500, Note_on_c, 8, 52, 64
9, 46560, Note_on_c, 8, 52, 0
9, 46560, Note_on_c, 8, 51, 64
9, 46620, Note_on_c, 8, 51, 0
9, 46620, Note_on_c, 8, 57, 64
9, 46680, Note_on_c, 8, 57, 0
9, 46680, Note_on_c, 8, 55, 64
9, 46710, Note_on_c, 8, 55, 0
9, 46710, Note_on_c, 8, 54, 64
9, 46740, Note_on_c, 8, 54, 0
9, 46740, Note_on_c, 8, 52, 64
9, 46770, Note_on_c, 8, 52, 0
9, 46770, Note_on_c, 8, 50, 64
9, 46800, Note_on_c, 8, 50, 0
9, 46800, Note_on_c, 8, 48, 64
9, 46860, Note_on_c, 8, 48, 0
9, 46860, Note_on_c, 8, 47, 64
9, 46920, Note_on_c, 8, 47, 0
9, 46920, Note_on_c, 8, 45, 64
9, 46980, Note_on_c, 8, 45, 0
9, 46980, Note_on_c, 8, 43, 64
9, 47010, Note_on_c, 8, 43, 0
9, 47010, Note_on_c, 8, 45, 64
9, 47040, Note_on_c, 8, 45, 0
9, 47040, Note_on_c, 8, 47, 64
9, 47100, Note_on_c, 8, 47, 0
9, 47100, Note_on_c, 8, 47, 64
9, 47160, Note_on_c, 8, 47, 0
9, 47160, Note_on_c, 8, 40, 64
9, 47220, Note_on_c, 8, 40, 0
9, 47220, Note_on_c, 8, 52, 64
9, 47340, Note_on_c, 8, 52, 0
9, 47340, Note_on_c, 8, 50, 64
9, 47400, Note_on_c, 8, 50, 0
9, 47400, Note_on_c, 8, 48, 64
9, 47460, Note_on_c, 8, 48, 0
9, 47460, Note_on_c, 8, 47, 64
9, 47520, Note_on_c, 8, 47, 0
9, 47520, Note_on_c, 8, 48, 64
9, 47640, Note_on_c, 8, 48, 0
9, 47640, Note_on_c, 8, 47, 64
9, 47760, Note_on_c, 8, 47, 0
9, 47760, Note_on_c, 8, 49, 65
9, 47820, Note_on_c, 8, 49, 0
9, 47820, Note_on_c, 8, 51, 66
9, 47880, Note_on_c, 8, 51, 0
9, 47880, Note_on_c, 8, 52, 67
9, 48000, Note_on_c, 8, 52, 0
9, 48000, Note_on_c, 8, 52, 68
9, 48060, Note_on_c, 8, 52, 0
9, 48060, Note_on_c, 8, 54, 69
9, 48120, Note_on_c, 8, 54, 0
9, 48120, Note_on_c, 8, 56, 69
9, 48180, Note_on_c, 8, 56, 0
9, 48180, Note_on_c, 8, 57, 70
9, 48240, Note_on_c, 8, 57, 0
9, 48240, Note_on_c, 8, 59, 71
9, 48300, Note_on_c, 8, 59, 0
9, 48300, Note_on_c, 8, 52, 71
9, 48360, Note_on_c, 8, 52, 0
9, 48360, Note_on_c, 8, 57, 72
9, 48480, Note_on_c, 8, 57, 0
9, 48540, Note_on_c, 8, 56, 74
9, 48600, Note_on_c, 8, 56, 0
9, 48600, Note_on_c, 8, 58, 75
9, 48660, Note_on_c, 8, 58, 0
9, 48660, Note_on_c, 8, 59, 75
9, 48720, Note_on_c, 8, 59, 0
9, 48720, Note_on_c, 8, 61, 76
9, 48780, Note_on_c, 8, 61, 0
9, 48780, Note_on_c, 8, 54, 77
9, 48840, Note_on_c, 8, 54, 0
9, 48840, Note_on_c, 8, 59, 77
9, 48960, Note_on_c, 8, 59, 0
9, 49020, Note_on_c, 8, 57, 79
9, 49080, Note_on_c, 8, 57, 0
9, 49080, Note_on_c, 8, 55, 80
9, 49320, Note_on_c, 8, 55, 0
9, 49320, Note_on_c, 8, 54, 75
9, 49440, Note_on_c, 8, 54, 0
9, 49440, Note_on_c, 8, 42, 72
9, 49560, Note_on_c, 8, 42, 0
9, 49560, Note_on_c, 8, 47, 64
9, 49620, Note_on_c, 8, 47, 0
9, 49620, Note_on_c, 8, 59, 64
9, 49740, Note_on_c, 8, 59, 0
9, 49740, Note_on_c, 8, 57, 64
9, 49800, Note_on_c, 8, 57, 0
9, 49800, Note_on_c, 8, 55, 64
9, 49860, Note_on_c, 8, 55, 0
9, 49860, Note_on_c, 8, 52, 64
9, 49920, Note_on_c, 8, 52, 0
9, 49920, Note_on_c, 8, 54, 64
9, 49980, Note_on_c, 8, 54, 0
9, 49980, Note_on_c, 8, 55, 64
9, 50040, Note_on_c, 8, 55, 0
9, 50040, Note_on_c, 8, 54, 64
9, 50100, Note_on_c, 8, 54, 0
9, 50100, Note_on_c, 8, 52, 64
9, 50160, Note_on_c, 8, 52, 0
9, 50160, Note_on_c, 8, 50, 64
9, 50220, Note_on_c, 8, 50, 0
9, 50220, Note_on_c, 8, 49, 64
9, 50280, Note_on_c, 8, 49, 0
9, 50280, Note_on_c, 8, 47, 64
9, 50400, Note_on_c, 8, 47, 0
9, 50400, Note_on_c, 8, 45, 64
9, 50520, Note_on_c, 8, 45, 0
9, 50520, Note_on_c, 8, 47, 64
9, 50640, Note_on_c, 8, 47, 0
9, 50640, Note_on_c, 8, 49, 64
9, 50760, Note_on_c, 8, 49, 0
9, 50760, Note_on_c, 8, 42, 64
9, 50880, Note_on_c, 8, 42, 0
9, 50880, Note_on_c, 8, 52, 64
9, 51000, Note_on_c, 8, 52, 0
9, 51000, Note_on_c, 8, 50, 64
9, 51060, Note_on_c, 8, 50, 0
9, 51060, Note_on_c, 8, 47, 64
9, 51180, Note_on_c, 8, 47, 0
9, 51180, Note_on_c, 8, 49, 64
9, 51240, Note_on_c, 8, 49, 0
9, 51240, Note_on_c, 8, 50, 64
9, 51360, Note_on_c, 8, 50, 0
9, 51360, Note_on_c, 8, 41, 64
9, 51480, Note_on_c, 8, 41, 0
9, 51480, Note_on_c, 8, 42, 64
9, 51540, Note_on_c, 8, 42, 0
9, 51540, Note_on_c, 8, 44, 64
9, 51600, Note_on_c, 8, 44, 0
9, 51600, Note_on_c, 8, 45, 64
9, 51660, Note_on_c, 8, 45, 0
9, 51660, Note_on_c, 8, 42, 64
9, 51720, Note_on_c, 8, 42, 0
9, 51720, Note_on_c, 8, 47, 64
9, 51780, Note_on_c, 8, 47, 0
9, 51780, Note_on_c, 8, 45, 64
9, 51840, Note_on_c, 8, 45, 0
9, 51840, Note_on_c, 8, 44, 64
9, 51900, Note_on_c, 8, 44, 0
9, 51900, Note_on_c, 8, 42, 64
9, 51960, Note_on_c, 8, 42, 0
9, 51960, Note_on_c, 8, 53, 64
9, 52020, Note_on_c, 8, 53, 0
9, 52020, Note_on_c, 8, 51, 64
9, 52080, Note_on_c, 8, 51, 0
9, 52080, Note_on_c, 8, 53, 64
9, 52140, Note_on_c, 8, 53, 0
9, 52140, Note_on_c, 8, 49, 64
9, 52200, Note_on_c, 8, 49, 0
9, 52200, Note_on_c, 8, 54, 64
9, 52260, Note_on_c, 8, 54, 0
9, 52260, Note_on_c, 8, 52, 64
9, 52320, Note_on_c, 8, 52, 0
9, 52320, Note_on_c, 8, 50, 64
9, 52380, Note_on_c, 8, 50, 0
9, 52380, Note_on_c, 8, 49, 64
9, 52440, Note_on_c, 8, 49, 0
9, 52440, Note_on_c, 8, 47, 64
9, 52560, Note_on_c, 8, 47, 0
9, 52560, Note_on_c, 8, 49, 64
9, 52680, Note_on_c, 8, 49, 0
9, 52680, Note_on_c, 8, 50, 64
9, 52800, Note_on_c, 8, 50, 0
9, 52800, Note_on_c, 8, 49, 64
9, 52860, Note_on_c, 8, 49, 0
9, 52860, Note_on_c, 8, 47, 64
9, 52920, Note_on_c, 8, 47, 0
9, 52920, Note_on_c, 8, 45, 64
9, 52980, Note_on_c, 8, 45, 0
9, 52980, Note_on_c, 8, 44, 64
9, 53040, Note_on_c, 8, 44, 0
9, 53040, Note_on_c, 8, 45, 64
9, 53100, Note_on_c, 8, 45, 0
9, 53100, Note_on_c, 8, 47, 64
9, 53160, Note_on_c, 8, 47, 0
9, 53160, Note_on_c, 8, 49, 64
9, 53700, Note_on_c, 8, 49, 0
9, 53700, Note_on_c, 8, 47, 64
9, 53760, Note_on_c, 8, 47, 0
9, 53760, Note_on_c, 8, 49, 64
9, 53820, Note_on_c, 8, 49, 0
9, 53820, Note_on_c, 8, 37, 64
9, 53880, Note_on_c, 8, 37, 0
9, 53880, Note_on_c, 8, 42, 40
9, 53940, Note_on_c, 8, 42, 0
9, 53940, Note_on_c, 8, 54, 41
9, 54060, Note_on_c, 8, 54, 0
9, 54060, Note_on_c, 8, 55, 43
9, 54090, Note_on_c, 8, 55, 0
9, 54090, Note_on_c, 8, 57, 44
9, 54120, Note_on_c, 8, 57, 0
9, 54120, Note_on_c, 8, 59, 44
9, 54240, Note_on_c, 8, 59, 0
9, 54240, Note_on_c, 8, 47, 47
9, 54360, Note_on_c, 8, 47, 0
9, 54360, Note_on_c, 8, 52, 49
9, 54540, Note_on_c, 8, 52, 0
9, 54540, Note_on_c, 8, 50, 52
9, 54570, Note_on_c, 8, 50, 0
9, 54570, Note_on_c, 8, 52, 53
9, 54600, Note_on_c, 8, 52, 0
9, 54600, Note_on_c, 8, 54, 53
9, 54720, Note_on_c, 8, 54, 0
9, 54720, Note_on_c, 8, 42, 55
9, 54840, Note_on_c, 8, 42, 0
9, 54840, Note_on_c, 8, 47, 58
9, 55020, Note_on_c, 8, 47, 0
9, 55020, Note_on_c, 8, 45, 61
9, 55050, Note_on_c, 8, 45, 0
9, 55050, Note_on_c, 8, 47, 61
9, 55080, Note_on_c, 8, 47, 0
9, 55080, Note_on_c, 8, 49, 62
9, 55200, Note_on_c, 8, 49, 0
9, 55200, Note_on_c, 8, 37, 64
9, 55320, Note_on_c, 8, 37, 0
9, 55320, Note_on_c, 8, 42, 66
9, 55380, Note_on_c, 8, 42, 0
9, 55380, Note_on_c, 8, 54, 67
9, 55500, Note_on_c, 8, 54, 0
9, 55500, Note_on_c, 8, 55, 70
9, 55530, Note_on_c, 8, 55, 0
9, 55530, Note_on_c, 8, 57, 70
9, 55560, Note_on_c, 8, 57, 0
9, 55560, Note_on_c, 8, 59, 71
9, 55680, Note_on_c, 8, 59, 0
9, 55680, Note_on_c, 8, 47, 73
9, 55800, Note_on_c, 8, 47, 0
9, 55800, Note_on_c, 8, 40, 75
9, 55871, Note_on_c, 8, 40, 0
9, 55980, Note_on_c, 8, 52, 75
9, 56015, Note_on_c, 8, 52, 0
9, 56040, Note_on_c, 8, 50, 75
9, 56111, Note_on_c, 8, 50, 0
9, 56220, Note_on_c, 8, 49, 75
9, 56255, Note_on_c, 8, 49, 0
9, 56280, Note_on_c, 8, 42, 75
9, 56351, Note_on_c, 8, 42, 0
9, 56460, Note_on_c, 8, 47, 75
9, 56495, Note_on_c, 8, 47, 0
9, 56520, Note_on_c, 8, 40, 75
9, 56591, Note_on_c, 8, 40, 0
9, 56700, Note_on_c, 8, 45, 75
9, 56735, Note_on_c, 8, 45, 0
9, 56760, Note_on_c, 8, 38, 75
9, 56831, Note_on_c, 8, 38, 0
9, 56940, Note_on_c, 8, 43, 67
9, 56975, Note_on_c, 8, 43, 0
9, 57000, Note_on_c, 8, 37, 65
9, 57071, Note_on_c, 8, 37, 0
9, 57180, Note_on_c, 8, 42, 57
9, 57215, Note_on_c, 8, 42, 0
9, 57240, Note_on_c, 8, 47, 55
9, 57330, Note_on_c, 8, 47, 0
9, 57330, Note_on_c, 8, 47, 56
9, 57360, Note_on_c, 8, 47, 0
9, 57360, Note_on_c, 8, 47, 56
9, 57420, Note_on_c, 8, 47, 0
9, 57420, Note_on_c, 8, 47, 57
9, 57455, Note_on_c, 8, 47, 0
9, 57480, Note_on_c, 8, 49, 57
9, 57540, Note_on_c, 8, 49, 0
9, 57540, Note_on_c, 8, 43, 58
9, 57600, Note_on_c, 8, 43, 0
9, 57600, Note_on_c, 8, 42, 58
9, 57635, Note_on_c, 8, 42, 0
9, 57660, Note_on_c, 8, 49, 59
9, 57720, Note_on_c, 8, 49, 0
9, 57720, Note_on_c, 8, 50, 60
9, 57780, Note_on_c, 8, 50, 0
9, 57780, Note_on_c, 8, 43, 60
9, 57840, Note_on_c, 8, 43, 0
9, 57840, Note_on_c, 8, 42, 61
9, 57875, Note_on_c, 8, 42, 0
9, 57900, Note_on_c, 8, 51, 61
9, 57960, Note_on_c, 8, 51, 0
9, 57960, Note_on_c, 8, 52, 62
9, 57990, Note_on_c, 8, 52, 0
9, 57990, Note_on_c, 8, 50, 62
9, 58020, Note_on_c, 8, 50, 0
9, 58020, Note_on_c, 8, 48, 62
9, 58110, Note_on_c, 8, 48, 0
9, 58110, Note_on_c, 8, 47, 63
9, 58140, Note_on_c, 8, 47, 0
9, 58140, Note_on_c, 8, 46, 63
9, 58170, Note_on_c, 8, 46, 0
9, 58170, Note_on_c, 8, 47, 64
9, 58200, Note_on_c, 8, 47, 0
9, 58200, Note_on_c, 8, 46, 64
9, 58260, Note_on_c, 8, 46, 0
9, 58260, Note_on_c, 8, 44, 64
9, 58320, Note_on_c, 8, 44, 0
9, 58320, Note_on_c, 8, 46, 64
9, 58380, Note_on_c, 8, 46, 0
9, 58380, Note_on_c, 8, 42, 64
9, 58440, Note_on_c, 8, 42, 0
9, 58440, Note_on_c, 8, 47, 64
9, 58500, Note_on_c, 8, 47, 0
9, 58500, Note_on_c, 8, 49, 64
9, 58560, Note_on_c, 8, 49, 0
9, 58560, Note_on_c, 8, 50, 64
9, 58620, Note_on_c, 8, 50, 0
9, 58620, Note_on_c, 8, 47, 64
9, 58680, Note_on_c, 8, 47, 0
9, 58680, Note_on_c, 8, 52, 64
9, 58740, Note_on_c, 8, 52, 0
9, 58740, Note_on_c, 8, 54, 64
9, 58800, Note_on_c, 8, 54, 0
9, 58800, Note_on_c, 8, 55, 64
9, 58860, Note_on_c, 8, 55, 0
9, 58860, Note_on_c, 8, 52, 64
9, 58920, Note_on_c, 8, 52, 0
9, 58920, Note_on_c, 8, 58, 64
9, 58980, Note_on_c, 8, 58, 0
9, 58980, Note_on_c, 8, 56, 64
9, 59040, Note_on_c, 8, 56, 0
9, 59040, Note_on_c, 8, 58, 64
9, 59100, Note_on_c, 8, 58, 0
9, 59100, Note_on_c, 8, 54, 64
9, 59160, Note_on_c, 8, 54, 0
9, 59160, Note_on_c, 8, 59, 64
9, 59220, Note_on_c, 8, 59, 0
9, 59220, Note_on_c, 8, 57, 64
9, 59280, Note_on_c, 8, 57, 0
9, 59280, Note_on_c, 8, 55, 64
9, 59340, Note_on_c, 8, 55, 0
9, 59340, Note_on_c, 8, 54, 64
9, 59400, Note_on_c, 8, 54, 0
9, 59400, Note_on_c, 8, 52, 64
9, 59520, Note_on_c, 8, 52, 0
9, 59520, Note_on_c, 8, 54, 64
9, 59640, Note_on_c, 8, 54, 0
9, 59640, Note_on_c, 8, 55, 64
9, 59760, Note_on_c, 8, 55, 0
9, 59760, Note_on_c, 8, 54, 66
9, 59820, Note_on_c, 8, 54, 0
9, 59820, Note_on_c, 8, 52, 67
9, 59880, Note_on_c, 8, 52, 0
9, 59880, Note_on_c, 8, 50, 68
9, 59940, Note_on_c, 8, 50, 0
9, 59940, Note_on_c, 8, 49, 69
9, 60000, Note_on_c, 8, 49, 0
9, 60000, Note_on_c, 8, 50, 70
9, 60060, Note_on_c, 8, 50, 0
9, 60060, Note_on_c, 8, 52, 71
9, 60120, Note_on_c, 8, 52, 0
9, 60120, Note_on_c, 8, 42, 72
9, 60660, Note_on_c, 8, 42, 0
9, 60660, Note_on_c, 8, 40, 80
9, 60720, Note_on_c, 8, 40, 0
9, 60720, Note_on_c, 8, 42, 80
9, 60840, Note_on_c, 8, 42, 0
9, 60840, Note_on_c, 8, 47, 80
9, 61200, Note_on_c, 8, 47, 0
9, 61560, End_track
10, 0, Start_track
10, 0, MIDI_port, 0
10, 0, Title_t, "Tenor"
10, 0, Program_c, 3, 53
10, 480, Control_c, 3, 7, 127
10, 480, Note_on_c, 3, 59, 80
10, 660, Note_on_c, 3, 59, 0
10, 660, Note_on_c, 3, 57, 80
10, 720, Note_on_c, 3, 57, 0
10, 720, Note_on_c, 3, 55, 80
10, 840, Note_on_c, 3, 55, 0
10, 960, Control_c, 3, 7, 127
10, 960, Note_on_c, 3, 54, 80
10, 1020, Note_on_c, 3, 54, 0
10, 1020, Note_on_c, 3, 57, 80
10, 1080, Note_on_c, 3, 57, 0
10, 1080, Note_on_c, 3, 63, 80
10, 1140, Note_on_c, 3, 63, 0
10, 1140, Note_on_c, 3, 66, 80
10, 1200, Note_on_c, 3, 66, 0
10, 1200, Note_on_c, 3, 67, 80
10, 1320, Note_on_c, 3, 67, 0
10, 1440, Control_c, 3, 7, 127
10, 1440, Note_on_c, 3, 64, 80
10, 1500, Note_on_c, 3, 64, 0
10, 1500, Note_on_c, 3, 61, 80
10, 1620, Note_on_c, 3, 61, 0
10, 1620, Note_on_c, 3, 58, 80
10, 1680, Note_on_c, 3, 58, 0
10, 1680, Note_on_c, 3, 54, 80
10, 1800, Note_on_c, 3, 54, 0
10, 1860, Note_on_c, 3, 61, 80
10, 1920, Note_on_c, 3, 61, 0
10, 1920, Note_on_c, 3, 62, 80
10, 1980, Note_on_c, 3, 62, 0
10, 1980, Note_on_c, 3, 61, 81
10, 2040, Note_on_c, 3, 61, 0
10, 2040, Note_on_c, 3, 59, 83
10, 2160, Note_on_c, 3, 59, 0
10, 2160, Note_on_c, 3, 66, 85
10, 2400, Note_on_c, 3, 66, 0
10, 14520, Note_on_c, 3, 59, 64
10, 14610, Note_on_c, 3, 59, 0
10, 14610, Note_on_c, 3, 59, 64
10, 14640, Note_on_c, 3, 59, 0
10, 14640, Note_on_c, 3, 59, 64
10, 14675, Note_on_c, 3, 59, 0
10, 14700, Note_on_c, 3, 59, 64
10, 14760, Note_on_c, 3, 59, 0
10, 14760, Note_on_c, 3, 61, 64
10, 14820, Note_on_c, 3, 61, 0
10, 14820, Note_on_c, 3, 55, 64
10, 14880, Note_on_c, 3, 55, 0
10, 14880, Note_on_c, 3, 54, 64
10, 14915, Note_on_c, 3, 54, 0
10, 14940, Note_on_c, 3, 61, 64
10, 15000, Note_on_c, 3, 61, 0
10, 15000, Note_on_c, 3, 62, 64
10, 15060, Note_on_c, 3, 62, 0
10, 15060, Note_on_c, 3, 55, 64
10, 15120, Note_on_c, 3, 55, 0
10, 15120, Note_on_c, 3, 54, 64
10, 15155, Note_on_c, 3, 54, 0
10, 15180, Note_on_c, 3, 63, 64
10, 15240, Note_on_c, 3, 63, 0
10, 15240, Note_on_c, 3, 64, 64
10, 15270, Note_on_c, 3, 64, 0
10, 15270, Note_on_c, 3, 62, 64
10, 15300, Note_on_c, 3, 62, 0
10, 15300, Note_on_c, 3, 60, 64
10, 15390, Note_on_c, 3, 60, 0
10, 15390, Note_on_c, 3, 59, 64
10, 15420, Note_on_c, 3, 59, 0
10, 15420, Note_on_c, 3, 58, 64
10, 15450, Note_on_c, 3, 58, 0
10, 15450, Note_on_c, 3, 59, 64
10, 15480, Note_on_c, 3, 59, 0
10, 15480, Note_on_c, 3, 58, 64
10, 15515, Note_on_c, 3, 58, 0
10, 15540, Note_on_c, 3, 67, 64
10, 15600, Note_on_c, 3, 67, 0
10, 15600, Note_on_c, 3, 66, 64
10, 15660, Note_on_c, 3, 66, 0
10, 15660, Note_on_c, 3, 64, 64
10, 15720, Note_on_c, 3, 64, 0
10, 15720, Note_on_c, 3, 62, 64
10, 15780, Note_on_c, 3, 62, 0
10, 15780, Note_on_c, 3, 61, 64
10, 15810, Note_on_c, 3, 61, 0
10, 15810, Note_on_c, 3, 59, 64
10, 15840, Note_on_c, 3, 59, 0
10, 15840, Note_on_c, 3, 66, 64
10, 16080, Note_on_c, 3, 66, 0
10, 16080, Note_on_c, 3, 65, 64
10, 16200, Note_on_c, 3, 65, 0
10, 16200, Note_on_c, 3, 66, 64
10, 16320, Note_on_c, 3, 66, 0
10, 16380, Note_on_c, 3, 64, 64
10, 16440, Note_on_c, 3, 64, 0
10, 16440, Note_on_c, 3, 62, 64
10, 16470, Note_on_c, 3, 62, 0
10, 16470, Note_on_c, 3, 61, 64
10, 16500, Note_on_c, 3, 61, 0
10, 16500, Note_on_c, 3, 62, 64
10, 16530, Note_on_c, 3, 62, 0
10, 16530, Note_on_c, 3, 61, 64
10, 16560, Note_on_c, 3, 61, 0
10, 16560, Note_on_c, 3, 59, 64
10, 16800, Note_on_c, 3, 59, 0
10, 16800, Note_on_c, 3, 57, 64
10, 16860, Note_on_c, 3, 57, 0
10, 16860, Note_on_c, 3, 56, 64
10, 16920, Note_on_c, 3, 56, 0
10, 16920, Note_on_c, 3, 54, 64
10, 16980, Note_on_c, 3, 54, 0
10, 16980, Note_on_c, 3, 56, 64
10, 17040, Note_on_c, 3, 56, 0
10, 17040, Note_on_c, 3, 57, 64
10, 17100, Note_on_c, 3, 57, 0
10, 17100, Note_on_c, 3, 54, 64
10, 17160, Note_on_c, 3, 54, 0
10, 17160, Note_on_c, 3, 63, 64
10, 17340, Note_on_c, 3, 63, 0
10, 17340, Note_on_c, 3, 61, 64
10, 17370, Note_on_c, 3, 61, 0
10, 17370, Note_on_c, 3, 63, 64
10, 17400, Note_on_c, 3, 63, 0
10, 17400, Note_on_c, 3, 64, 64
10, 17435, Note_on_c, 3, 64, 0
10, 17460, Note_on_c, 3, 59, 64
10, 17520, Note_on_c, 3, 59, 0
10, 17520, Note_on_c, 3, 67, 64
10, 17700, Note_on_c, 3, 67, 0
10, 17700, Note_on_c, 3, 66, 64
10, 17735, Note_on_c, 3, 66, 0
10, 17760, Note_on_c, 3, 66, 64
10, 17820, Note_on_c, 3, 66, 0
10, 17820, Note_on_c, 3, 64, 64
10, 17855, Note_on_c, 3, 64, 0
10, 17880, Note_on_c, 3, 62, 64
10, 18000, Note_on_c, 3, 62, 0
10, 18060, Note_on_c, 3, 62, 64
10, 18120, Note_on_c, 3, 62, 0
10, 18120, Note_on_c, 3, 64, 64
10, 18240, Note_on_c, 3, 64, 0
10, 18240, Note_on_c, 3, 66, 64
10, 18360, Note_on_c, 3, 66, 0
10, 18360, Note_on_c, 3, 59, 64
10, 18420, Note_on_c, 3, 59, 0
10, 18420, Note_on_c, 3, 59, 64
10, 18480, Note_on_c, 3, 59, 0
10, 18480, Note_on_c, 3, 57, 64
10, 18515, Note_on_c, 3, 57, 0
10, 18540, Note_on_c, 3, 59, 64
10, 18600, Note_on_c, 3, 59, 0
10, 18600, Note_on_c, 3, 52, 64
10, 18660, Note_on_c, 3, 52, 0
10, 18660, Note_on_c, 3, 54, 64
10, 18720, Note_on_c, 3, 54, 0
10, 18720, Note_on_c, 3, 55, 64
10, 18780, Note_on_c, 3, 55, 0
10, 18780, Note_on_c, 3, 52, 64
10, 18840, Note_on_c, 3, 52, 0
10, 18840, Note_on_c, 3, 54, 64
10, 19020, Note_on_c, 3, 54, 0
10, 19020, Note_on_c, 3, 56, 64
10, 19050, Note_on_c, 3, 56, 0
10, 19050, Note_on_c, 3, 58, 64
10, 19080, Note_on_c, 3, 58, 0
10, 19080, Note_on_c, 3, 59, 64
10, 19140, Note_on_c, 3, 59, 0
10, 19140, Note_on_c, 3, 61, 64
10, 19200, Note_on_c, 3, 61, 0
10, 19200, Note_on_c, 3, 62, 64
10, 19260, Note_on_c, 3, 62, 0
10, 19260, Note_on_c, 3, 61, 64
10, 19320, Note_on_c, 3, 61, 0
10, 19320, Note_on_c, 3, 59, 64
10, 19380, Note_on_c, 3, 59, 0
10, 19380, Note_on_c, 3, 57, 64
10, 19410, Note_on_c, 3, 57, 0
10, 19410, Note_on_c, 3, 59, 64
10, 19440, Note_on_c, 3, 59, 0
10, 19440, Note_on_c, 3, 61, 64
10, 19475, Note_on_c, 3, 61, 0
10, 19500, Note_on_c, 3, 61, 64
10, 19560, Note_on_c, 3, 61, 0
10, 19560, Note_on_c, 3, 54, 64
10, 19620, Note_on_c, 3, 54, 0
10, 19620, Note_on_c, 3, 56, 64
10, 19680, Note_on_c, 3, 56, 0
10, 19680, Note_on_c, 3, 58, 64
10, 19715, Note_on_c, 3, 58, 0
10, 19740, Note_on_c, 3, 54, 64
10, 19800, Note_on_c, 3, 54, 0
10, 19800, Note_on_c, 3, 59, 64
10, 19980, Note_on_c, 3, 59, 0
10, 19980, Note_on_c, 3, 57, 64
10, 20040, Note_on_c, 3, 57, 0
10, 20040, Note_on_c, 3, 56, 64
10, 20160, Note_on_c, 3, 56, 0
10, 20160, Note_on_c, 3, 49, 64
10, 20220, Note_on_c, 3, 49, 0
10, 20220, Note_on_c, 3, 49, 64
10, 20280, Note_on_c, 3, 49, 0
10, 20280, Note_on_c, 3, 54, 64
10, 20460, Note_on_c, 3, 54, 0
10, 20460, Note_on_c, 3, 55, 64
10, 20490, Note_on_c, 3, 55, 0
10, 20490, Note_on_c, 3, 57, 64
10, 20520, Note_on_c, 3, 57, 0
10, 20520, Note_on_c, 3, 59, 64
10, 20580, Note_on_c, 3, 59, 0
10, 20580, Note_on_c, 3, 57, 64
10, 20610, Note_on_c, 3, 57, 0
10, 20610, Note_on_c, 3, 55, 64
10, 20640, Note_on_c, 3, 55, 0
10, 20640, Note_on_c, 3, 57, 64
10, 20700, Note_on_c, 3, 57, 0
10, 20700, Note_on_c, 3, 59, 64
10, 20760, Note_on_c, 3, 59, 0
10, 20760, Note_on_c, 3, 52, 64
10, 20940, Note_on_c, 3, 52, 0
10, 20940, Note_on_c, 3, 54, 64
10, 20970, Note_on_c, 3, 54, 0
10, 20970, Note_on_c, 3, 55, 64
10, 21000, Note_on_c, 3, 55, 0
10, 21000, Note_on_c, 3, 57, 64
10, 21060, Note_on_c, 3, 57, 0
10, 21060, Note_on_c, 3, 55, 64
10, 21090, Note_on_c, 3, 55, 0
10, 21090, Note_on_c, 3, 54, 64
10, 21120, Note_on_c, 3, 54, 0
10, 21120, Note_on_c, 3, 55, 64
10, 21180, Note_on_c, 3, 55, 0
10, 21180, Note_on_c, 3, 57, 64
10, 21240, Note_on_c, 3, 57, 0
10, 21240, Note_on_c, 3, 50, 64
10, 21300, Note_on_c, 3, 50, 0
10, 21300, Note_on_c, 3, 62, 66
10, 21420, Note_on_c, 3, 62, 0
10, 21420, Note_on_c, 3, 61, 70
10, 21480, Note_on_c, 3, 61, 0
10, 21480, Note_on_c, 3, 59, 72
10, 21540, Note_on_c, 3, 59, 0
10, 21540, Note_on_c, 3, 59, 74
10, 21600, Note_on_c, 3, 59, 0
10, 21600, Note_on_c, 3, 61, 76
10, 21635, Note_on_c, 3, 61, 0
10, 21660, Note_on_c, 3, 62, 78
10, 21690, Note_on_c, 3, 62, 0
10, 21690, Note_on_c, 3, 64, 79
10, 21720, Note_on_c, 3, 64, 0
10, 21720, Note_on_c, 3, 66, 80
10, 21840, Note_on_c, 3, 66, 0
10, 21840, Note_on_c, 3, 54, 80
10, 21960, Note_on_c, 3, 54, 0
10, 21960, Note_on_c, 3, 59, 80
10, 22080, Note_on_c, 3, 59, 0
10, 22140, Note_on_c, 3, 59, 80
10, 22200, Note_on_c, 3, 59, 0
10, 22200, Note_on_c, 3, 67, 80
10, 22380, Note_on_c, 3, 67, 0
10, 22380, Note_on_c, 3, 66, 80
10, 22410, Note_on_c, 3, 66, 0
10, 22410, Note_on_c, 3, 64, 80
10, 22440, Note_on_c, 3, 64, 0
10, 22440, Note_on_c, 3, 62, 80
10, 22500, Note_on_c, 3, 62, 0
10, 22500, Note_on_c, 3, 64, 80
10, 22560, Note_on_c, 3, 64, 0
10, 22560, Note_on_c, 3, 66, 80
10, 22595, Note_on_c, 3, 66, 0
10, 22620, Note_on_c, 3, 63, 80
10, 22680, Note_on_c, 3, 63, 0
10, 22680, Note_on_c, 3, 59, 80
10, 22740, Note_on_c, 3, 59, 0
10, 22740, Note_on_c, 3, 60, 80
10, 22770, Note_on_c, 3, 60, 0
10, 22770, Note_on_c, 3, 62, 80
10, 22800, Note_on_c, 3, 62, 0
10, 22800, Note_on_c, 3, 64, 80
10, 22860, Note_on_c, 3, 64, 0
10, 22860, Note_on_c, 3, 59, 80
10, 22920, Note_on_c, 3, 59, 0
10, 22920, Note_on_c, 3, 61, 80
10, 23100, Note_on_c, 3, 61, 0
10, 23100, Note_on_c, 3, 62, 80
10, 23130, Note_on_c, 3, 62, 0
10, 23130, Note_on_c, 3, 64, 80
10, 23160, Note_on_c, 3, 64, 0
10, 23160, Note_on_c, 3, 66, 80
10, 23220, Note_on_c, 3, 66, 0
10, 23220, Note_on_c, 3, 62, 80
10, 23280, Note_on_c, 3, 62, 0
10, 23340, Note_on_c, 3, 61, 80
10, 23400, Note_on_c, 3, 61, 0
10, 23400, Note_on_c, 3, 62, 80
10, 23460, Note_on_c, 3, 62, 0
10, 23460, Note_on_c, 3, 59, 80
10, 23520, Note_on_c, 3, 59, 0
10, 23520, Note_on_c, 3, 56, 80
10, 23555, Note_on_c, 3, 56, 0
10, 23580, Note_on_c, 3, 54, 80
10, 23610, Note_on_c, 3, 54, 0
10, 23610, Note_on_c, 3, 53, 80
10, 23640, Note_on_c, 3, 53, 0
10, 23640, Note_on_c, 3, 61, 80
10, 23700, Note_on_c, 3, 61, 0
10, 23700, Note_on_c, 3, 59, 80
10, 23760, Note_on_c, 3, 59, 0
10, 23760, Note_on_c, 3, 58, 80
10, 23795, Note_on_c, 3, 58, 0
10, 23820, Note_on_c, 3, 66, 80
10, 23880, Note_on_c, 3, 66, 0
10, 23880, Note_on_c, 3, 66, 80
10, 24000, Note_on_c, 3, 66, 0
10, 24000, Note_on_c, 3, 59, 80
10, 24060, Note_on_c, 3, 59, 0
10, 24060, Note_on_c, 3, 59, 80
10, 24120, Note_on_c, 3, 59, 0
10, 24120, Note_on_c, 3, 59, 80
10, 24155, Note_on_c, 3, 59, 0
10, 24180, Note_on_c, 3, 53, 80
10, 24240, Note_on_c, 3, 53, 0
10, 24240, Note_on_c, 3, 54, 80
10, 24300, Note_on_c, 3, 54, 0
10, 24300, Note_on_c, 3, 56, 80
10, 24360, Note_on_c, 3, 56, 0
10, 24360, Note_on_c, 3, 57, 80
10, 24480, Note_on_c, 3, 57, 0
10, 24480, Note_on_c, 3, 56, 80
10, 24600, Note_on_c, 3, 56, 0
10, 24600, Note_on_c, 3, 54, 80
10, 24720, Note_on_c, 3, 54, 0
10, 24720, Note_on_c, 3, 54, 80
10, 24755, Note_on_c, 3, 54, 0
10, 24780, Note_on_c, 3, 54, 80
10, 24840, Note_on_c, 3, 54, 0
10, 24840, Note_on_c, 3, 52, 80
10, 24900, Note_on_c, 3, 52, 0
10, 24900, Note_on_c, 3, 51, 80
10, 24960, Note_on_c, 3, 51, 0
10, 24960, Note_on_c, 3, 53, 80
10, 25020, Note_on_c, 3, 53, 0
10, 25020, Note_on_c, 3, 56, 80
10, 25080, Note_on_c, 3, 56, 0
10, 25080, Note_on_c, 3, 61, 80
10, 25140, Note_on_c, 3, 61, 0
10, 25140, Note_on_c, 3, 53, 80
10, 25200, Note_on_c, 3, 53, 0
10, 25200, Note_on_c, 3, 54, 80
10, 25380, Note_on_c, 3, 54, 0
10, 25380, Note_on_c, 3, 52, 80
10, 25440, Note_on_c, 3, 52, 0
10, 25440, Note_on_c, 3, 51, 80
10, 25500, Note_on_c, 3, 51, 0
10, 25500, Note_on_c, 3, 56, 80
10, 25620, Note_on_c, 3, 56, 0
10, 25620, Note_on_c, 3, 54, 80
10, 25680, Note_on_c, 3, 54, 0
10, 25680, Note_on_c, 3, 52, 80
10, 25740, Note_on_c, 3, 52, 0
10, 25740, Note_on_c, 3, 56, 80
10, 25800, Note_on_c, 3, 56, 0
10, 25800, Note_on_c, 3, 57, 80
10, 25860, Note_on_c, 3, 57, 0
10, 25860, Note_on_c, 3, 56, 80
10, 25920, Note_on_c, 3, 56, 0
10, 25920, Note_on_c, 3, 54, 80
10, 26160, Note_on_c, 3, 54, 0
10, 26160, Note_on_c, 3, 56, 80
10, 26280, Note_on_c, 3, 56, 0
10, 26280, Note_on_c, 3, 56, 80
10, 26295, Note_on_c, 3, 56, 0
10, 26295, Note_on_c, 3, 57, 80
10, 26310, Note_on_c, 3, 57, 0
10, 26310, Note_on_c, 3, 56, 80
10, 26325, Note_on_c, 3, 56, 0
10, 26325, Note_on_c, 3, 57, 80
10, 26340, Note_on_c, 3, 57, 0
10, 26340, Note_on_c, 3, 56, 80
10, 26355, Note_on_c, 3, 56, 0
10, 26355, Note_on_c, 3, 57, 80
10, 26370, Note_on_c, 3, 57, 0
10, 26370, Note_on_c, 3, 56, 80
10, 26385, Note_on_c, 3, 56, 0
10, 26385, Note_on_c, 3, 57, 80
10, 26400, Note_on_c, 3, 57, 0
10, 26400, Note_on_c, 3, 56, 80
10, 26415, Note_on_c, 3, 56, 0
10, 26415, Note_on_c, 3, 57, 80
10, 26430, Note_on_c, 3, 57, 0
10, 26430, Note_on_c, 3, 56, 80
10, 26445, Note_on_c, 3, 56, 0
10, 26445, Note_on_c, 3, 57, 80
10, 26460, Note_on_c, 3, 57, 0
10, 26460, Note_on_c, 3, 56, 80
10, 26471, Note_on_c, 3, 56, 0
10, 26471, Note_on_c, 3, 57, 80
10, 26484, Note_on_c, 3, 57, 0
10, 26484, Note_on_c, 3, 56, 80
10, 26495, Note_on_c, 3, 56, 0
10, 26495, Note_on_c, 3, 54, 80
10, 26508, Note_on_c, 3, 54, 0
10, 26508, Note_on_c, 3, 56, 80
10, 26520, Note_on_c, 3, 56, 0
10, 26520, Note_on_c, 3, 57, 80
10, 26580, Note_on_c, 3, 57, 0
10, 26580, Note_on_c, 3, 51, 80
10, 26640, Note_on_c, 3, 51, 0
10, 26640, Note_on_c, 3, 52, 80
10, 26675, Note_on_c, 3, 52, 0
10, 26700, Note_on_c, 3, 61, 80
10, 26760, Note_on_c, 3, 61, 0
10, 26760, Note_on_c, 3, 60, 80
10, 26795, Note_on_c, 3, 60, 0
10, 26820, Note_on_c, 3, 66, 80
10, 26880, Note_on_c, 3, 66, 0
10, 26880, Note_on_c, 3, 64, 80
10, 26940, Note_on_c, 3, 64, 0
10, 26940, Note_on_c, 3, 63, 80
10, 27000, Note_on_c, 3, 63, 0
10, 27000, Note_on_c, 3, 61, 80
10, 27060, Note_on_c, 3, 61, 0
10, 27060, Note_on_c, 3, 54, 80
10, 27120, Note_on_c, 3, 54, 0
10, 27120, Note_on_c, 3, 52, 80
10, 27180, Note_on_c, 3, 52, 0
10, 27180, Note_on_c, 3, 51, 80
10, 27240, Note_on_c, 3, 51, 0
10, 27240, Note_on_c, 3, 52, 80
10, 27300, Note_on_c, 3, 52, 0
10, 27300, Note_on_c, 3, 54, 80
10, 27330, Note_on_c, 3, 54, 0
10, 27330, Note_on_c, 3, 56, 80
10, 27360, Note_on_c, 3, 56, 0
10, 27360, Note_on_c, 3, 57, 80
10, 27420, Note_on_c, 3, 57, 0
10, 27420, Note_on_c, 3, 56, 80
10, 27480, Note_on_c, 3, 56, 0
10, 27480, Note_on_c, 3, 54, 80
10, 27540, Note_on_c, 3, 54, 0
10, 27540, Note_on_c, 3, 60, 80
10, 27600, Note_on_c, 3, 60, 0
10, 27600, Note_on_c, 3, 61, 80
10, 27660, Note_on_c, 3, 61, 0
10, 27660, Note_on_c, 3, 63, 80
10, 27720, Note_on_c, 3, 63, 0
10, 27720, Note_on_c, 3, 56, 80
10, 27780, Note_on_c, 3, 56, 0
10, 27780, Note_on_c, 3, 61, 80
10, 27810, Note_on_c, 3, 61, 0
10, 27810, Note_on_c, 3, 63, 80
10, 27840, Note_on_c, 3, 63, 0
10, 27840, Note_on_c, 3, 63, 80
10, 27960, Note_on_c, 3, 63, 0
10, 27960, Note_on_c, 3, 64, 80
10, 28020, Note_on_c, 3, 64, 0
10, 28020, Note_on_c, 3, 61, 45
10, 28050, Note_on_c, 3, 61, 0
10, 28050, Note_on_c, 3, 62, 45
10, 28080, Note_on_c, 3, 62, 0
10, 28080, Note_on_c, 3, 64, 45
10, 28260, Note_on_c, 3, 64, 0
10, 28260, Note_on_c, 3, 62, 45
10, 28320, Note_on_c, 3, 62, 0
10, 28320, Note_on_c, 3, 61, 45
10, 28380, Note_on_c, 3, 61, 0
10, 28380, Note_on_c, 3, 59, 45
10, 28410, Note_on_c, 3, 59, 0
10, 28410, Note_on_c, 3, 58, 45
10, 28440, Note_on_c, 3, 58, 0
10, 28440, Note_on_c, 3, 59, 45
10, 28560, Note_on_c, 3, 59, 0
10, 28560, Note_on_c, 3, 54, 48
10, 28680, Note_on_c, 3, 54, 0
10, 28980, Note_on_c, 3, 61, 60
10, 29040, Note_on_c, 3, 61, 0
10, 29040, Note_on_c, 3, 66, 62
10, 29220, Note_on_c, 3, 66, 0
10, 29220, Note_on_c, 3, 64, 67
10, 29280, Note_on_c, 3, 64, 0
10, 29280, Note_on_c, 3, 63, 69
10, 29340, Note_on_c, 3, 63, 0
10, 29340, Note_on_c, 3, 61, 71
10, 29370, Note_on_c, 3, 61, 0
10, 29370, Note_on_c, 3, 60, 71
10, 29400, Note_on_c, 3, 60, 0
10, 29400, Note_on_c, 3, 61, 72
10, 29520, Note_on_c, 3, 61, 0
10, 29520, Note_on_c, 3, 56, 76
10, 29580, Note_on_c, 3, 56, 0
10, 29580, Note_on_c, 3, 64, 77
10, 29640, Note_on_c, 3, 64, 0
10, 29640, Note_on_c, 3, 61, 79
10, 29700, Note_on_c, 3, 61, 0
10, 29700, Note_on_c, 3, 61, 81
10, 29760, Note_on_c, 3, 61, 0
10, 29760, Note_on_c, 3, 58, 83
10, 29820, Note_on_c, 3, 58, 0
10, 29820, Note_on_c, 3, 59, 84
10, 29850, Note_on_c, 3, 59, 0
10, 29850, Note_on_c, 3, 61, 85
10, 29880, Note_on_c, 3, 61, 0
10, 29880, Note_on_c, 3, 59, 85
10, 29951, Note_on_c, 3, 59, 0
10, 30060, Note_on_c, 3, 56, 85
10, 30071, Note_on_c, 3, 56, 0
10, 30120, Note_on_c, 3, 57, 85
10, 30191, Note_on_c, 3, 57, 0
10, 30300, Note_on_c, 3, 63, 85
10, 30311, Note_on_c, 3, 63, 0
10, 30360, Note_on_c, 3, 61, 85
10, 30431, Note_on_c, 3, 61, 0
10, 30540, Note_on_c, 3, 61, 85
10, 30551, Note_on_c, 3, 61, 0
10, 30600, Note_on_c, 3, 59, 85
10, 30671, Note_on_c, 3, 59, 0
10, 30780, Note_on_c, 3, 59, 85
10, 30815, Note_on_c, 3, 59, 0
10, 30840, Note_on_c, 3, 57, 78
10, 30870, Note_on_c, 3, 57, 0
10, 30870, Note_on_c, 3, 56, 76
10, 30900, Note_on_c, 3, 56, 0
10, 30900, Note_on_c, 3, 57, 74
10, 30930, Note_on_c, 3, 57, 0
10, 30930, Note_on_c, 3, 59, 73
10, 30960, Note_on_c, 3, 59, 0
10, 30960, Note_on_c, 3, 61, 71
10, 31020, Note_on_c, 3, 61, 0
10, 31020, Note_on_c, 3, 62, 67
10, 31050, Note_on_c, 3, 62, 0
10, 31050, Note_on_c, 3, 61, 66
10, 31080, Note_on_c, 3, 61, 0
10, 31080, Note_on_c, 3, 59, 64
10, 31200, Note_on_c, 3, 59, 0
10, 31200, Note_on_c, 3, 61, 57
10, 31235, Note_on_c, 3, 61, 0
10, 31260, Note_on_c, 3, 56, 53
10, 31320, Note_on_c, 3, 56, 0
10, 31320, Note_on_c, 3, 57, 50
10, 31560, Note_on_c, 3, 57, 0
10, 31560, Note_on_c, 3, 56, 54
10, 31620, Note_on_c, 3, 56, 0
10, 31620, Note_on_c, 3, 54, 54
10, 31680, Note_on_c, 3, 54, 0
10, 31680, Note_on_c, 3, 56, 55
10, 31800, Note_on_c, 3, 56, 0
10, 31800, Note_on_c, 3, 54, 57
10, 31860, Note_on_c, 3, 54, 0
10, 31860, Note_on_c, 3, 66, 58
10, 31920, Note_on_c, 3, 66, 0
10, 31920, Note_on_c, 3, 64, 59
10, 31955, Note_on_c, 3, 64, 0
10, 31980, Note_on_c, 3, 62, 60
10, 32010, Note_on_c, 3, 62, 0
10, 32010, Note_on_c, 3, 61, 60
10, 32040, Note_on_c, 3, 61, 0
10, 32040, Note_on_c, 3, 62, 61
10, 32160, Note_on_c, 3, 62, 0
10, 32220, Note_on_c, 3, 57, 63
10, 32280, Note_on_c, 3, 57, 0
10, 32280, Note_on_c, 3, 59, 64
10, 32400, Note_on_c, 3, 59, 0
10, 32400, Note_on_c, 3, 61, 64
10, 32460, Note_on_c, 3, 61, 0
10, 32460, Note_on_c, 3, 61, 64
10, 32580, Note_on_c, 3, 61, 0
10, 32580, Note_on_c, 3, 59, 64
10, 32640, Note_on_c, 3, 59, 0
10, 32640, Note_on_c, 3, 57, 64
10, 32700, Note_on_c, 3, 57, 0
10, 32700, Note_on_c, 3, 61, 64
10, 32760, Note_on_c, 3, 61, 0
10, 32760, Note_on_c, 3, 62, 64
10, 32820, Note_on_c, 3, 62, 0
10, 32820, Note_on_c, 3, 61, 64
10, 32880, Note_on_c, 3, 61, 0
10, 32880, Note_on_c, 3, 59, 64
10, 33120, Note_on_c, 3, 59, 0
10, 33120, Note_on_c, 3, 61, 64
10, 33180, Note_on_c, 3, 61, 0
10, 33180, Note_on_c, 3, 61, 64
10, 33240, Note_on_c, 3, 61, 0
10, 33240, Note_on_c, 3, 61, 64
10, 33420, Note_on_c, 3, 61, 0
10, 33420, Note_on_c, 3, 59, 64
10, 33450, Note_on_c, 3, 59, 0
10, 33450, Note_on_c, 3, 61, 64
10, 33480, Note_on_c, 3, 61, 0
10, 33480, Note_on_c, 3, 62, 64
10, 33540, Note_on_c, 3, 62, 0
10, 33540, Note_on_c, 3, 59, 64
10, 33600, Note_on_c, 3, 59, 0
10, 33600, Note_on_c, 3, 57, 64
10, 33720, Note_on_c, 3, 57, 0
10, 33720, Note_on_c, 3, 59, 64
10, 33755, Note_on_c, 3, 59, 0
10, 33780, Note_on_c, 3, 59, 65
10, 33840, Note_on_c, 3, 59, 0
10, 33840, Note_on_c, 3, 61, 65
10, 33900, Note_on_c, 3, 61, 0
10, 33900, Note_on_c, 3, 53, 66
10, 33960, Note_on_c, 3, 53, 0
10, 33960, Note_on_c, 3, 54, 67
10, 33995, Note_on_c, 3, 54, 0
10, 34020, Note_on_c, 3, 56, 67
10, 34080, Note_on_c, 3, 56, 0
10, 34080, Note_on_c, 3, 49, 68
10, 34115, Note_on_c, 3, 49, 0
10, 34140, Note_on_c, 3, 62, 69
10, 34200, Note_on_c, 3, 62, 0
10, 34200, Note_on_c, 3, 61, 69
10, 34260, Note_on_c, 3, 61, 0
10, 34260, Note_on_c, 3, 62, 70
10, 34290, Note_on_c, 3, 62, 0
10, 34290, Note_on_c, 3, 61, 70
10, 34320, Note_on_c, 3, 61, 0
10, 34320, Note_on_c, 3, 59, 71
10, 34380, Note_on_c, 3, 59, 0
10, 34380, Note_on_c, 3, 57, 71
10, 34440, Note_on_c, 3, 57, 0
10, 34440, Note_on_c, 3, 56, 72
10, 34560, Note_on_c, 3, 56, 0
10, 34560, Note_on_c, 3, 57, 73
10, 34620, Note_on_c, 3, 57, 0
10, 34620, Note_on_c, 3, 59, 74
10, 34680, Note_on_c, 3, 59, 0
10, 34680, Note_on_c, 3, 61, 75
10, 34740, Note_on_c, 3, 61, 0
10, 34740, Note_on_c, 3, 62, 75
10, 34800, Note_on_c, 3, 62, 0
10, 34800, Note_on_c, 3, 56, 76
10, 34860, Note_on_c, 3, 56, 0
10, 34860, Note_on_c, 3, 61, 77
10, 34920, Note_on_c, 3, 61, 0
10, 34920, Note_on_c, 3, 57, 77
10, 35040, Note_on_c, 3, 57, 0
10, 40200, Note_on_c, 3, 54, 64
10, 40290, Note_on_c, 3, 54, 0
10, 40290, Note_on_c, 3, 54, 64
10, 40320, Note_on_c, 3, 54, 0
10, 40320, Note_on_c, 3, 54, 64
10, 40355, Note_on_c, 3, 54, 0
10, 40380, Note_on_c, 3, 54, 64
10, 40440, Note_on_c, 3, 54, 0
10, 40440, Note_on_c, 3, 56, 64
10, 40500, Note_on_c, 3, 56, 0
10, 40500, Note_on_c, 3, 50, 64
10, 40560, Note_on_c, 3, 50, 0
10, 40560, Note_on_c, 3, 49, 64
10, 40595, Note_on_c, 3, 49, 0
10, 40620, Note_on_c, 3, 56, 64
10, 40680, Note_on_c, 3, 56, 0
10, 40680, Note_on_c, 3, 57, 64
10, 40740, Note_on_c, 3, 57, 0
10, 40740, Note_on_c, 3, 50, 64
10, 40800, Note_on_c, 3, 50, 0
10, 40800, Note_on_c, 3, 49, 64
10, 40835, Note_on_c, 3, 49, 0
10, 40860, Note_on_c, 3, 58, 64
10, 40920, Note_on_c, 3, 58, 0
10, 40920, Note_on_c, 3, 59, 64
10, 40950, Note_on_c, 3, 59, 0
10, 40950, Note_on_c, 3, 57, 64
10, 40980, Note_on_c, 3, 57, 0
10, 40980, Note_on_c, 3, 55, 64
10, 41070, Note_on_c, 3, 55, 0
10, 41070, Note_on_c, 3, 54, 64
10, 41100, Note_on_c, 3, 54, 0
10, 41100, Note_on_c, 3, 53, 64
10, 41130, Note_on_c, 3, 53, 0
10, 41130, Note_on_c, 3, 54, 64
10, 41160, Note_on_c, 3, 54, 0
10, 41160, Note_on_c, 3, 53, 64
10, 41195, Note_on_c, 3, 53, 0
10, 41220, Note_on_c, 3, 62, 64
10, 41280, Note_on_c, 3, 62, 0
10, 41280, Note_on_c, 3, 61, 64
10, 41340, Note_on_c, 3, 61, 0
10, 41340, Note_on_c, 3, 59, 64
10, 41400, Note_on_c, 3, 59, 0
10, 41400, Note_on_c, 3, 57, 64
10, 41460, Note_on_c, 3, 57, 0
10, 41460, Note_on_c, 3, 56, 64
10, 41490, Note_on_c, 3, 56, 0
10, 41490, Note_on_c, 3, 54, 64
10, 41520, Note_on_c, 3, 54, 0
10, 41520, Note_on_c, 3, 62, 64
10, 41700, Note_on_c, 3, 62, 0
10, 41700, Note_on_c, 3, 57, 64
10, 41760, Note_on_c, 3, 57, 0
10, 41760, Note_on_c, 3, 56, 64
10, 41795, Note_on_c, 3, 56, 0
10, 41820, Note_on_c, 3, 62, 64
10, 41880, Note_on_c, 3, 62, 0
10, 41880, Note_on_c, 3, 61, 64
10, 41940, Note_on_c, 3, 61, 0
10, 41940, Note_on_c, 3, 57, 64
10, 41970, Note_on_c, 3, 57, 0
10, 41970, Note_on_c, 3, 59, 64
10, 42000, Note_on_c, 3, 59, 0
10, 42000, Note_on_c, 3, 60, 64
10, 42180, Note_on_c, 3, 60, 0
10, 42180, Note_on_c, 3, 55, 64
10, 42240, Note_on_c, 3, 55, 0
10, 42240, Note_on_c, 3, 54, 64
10, 42275, Note_on_c, 3, 54, 0
10, 42300, Note_on_c, 3, 60, 64
10, 42360, Note_on_c, 3, 60, 0
10, 42360, Note_on_c, 3, 59, 64
10, 42395, Note_on_c, 3, 59, 0
10, 42420, Note_on_c, 3, 54, 64
10, 42480, Note_on_c, 3, 54, 0
10, 42480, Note_on_c, 3, 59, 64
10, 42720, Note_on_c, 3, 59, 0
10, 42720, Note_on_c, 3, 58, 64
10, 42840, Note_on_c, 3, 58, 0
10, 42840, Note_on_c, 3, 59, 64
10, 42900, Note_on_c, 3, 59, 0
10, 43020, Note_on_c, 3, 54, 64
10, 43080, Note_on_c, 3, 54, 0
10, 43080, Note_on_c, 3, 52, 64
10, 43140, Note_on_c, 3, 52, 0
10, 43140, Note_on_c, 3, 55, 64
10, 43200, Note_on_c, 3, 55, 0
10, 43200, Note_on_c, 3, 54, 64
10, 43260, Note_on_c, 3, 54, 0
10, 43260, Note_on_c, 3, 52, 64
10, 43320, Note_on_c, 3, 52, 0
10, 43320, Note_on_c, 3, 54, 64
10, 43355, Note_on_c, 3, 54, 0
10, 43380, Note_on_c, 3, 58, 64
10, 43440, Note_on_c, 3, 58, 0
10, 43440, Note_on_c, 3, 59, 64
10, 43500, Note_on_c, 3, 59, 0
10, 43500, Note_on_c, 3, 61, 64
10, 43560, Note_on_c, 3, 61, 0
10, 43560, Note_on_c, 3, 62, 64
10, 43620, Note_on_c, 3, 62, 0
10, 43620, Note_on_c, 3, 64, 64
10, 43650, Note_on_c, 3, 64, 0
10, 43650, Note_on_c, 3, 62, 64
10, 43680, Note_on_c, 3, 62, 0
10, 43680, Note_on_c, 3, 61, 64
10, 43710, Note_on_c, 3, 61, 0
10, 43710, Note_on_c, 3, 59, 64
10, 43740, Note_on_c, 3, 59, 0
10, 43740, Note_on_c, 3, 57, 64
10, 43770, Note_on_c, 3, 57, 0
10, 43770, Note_on_c, 3, 59, 64
10, 43800, Note_on_c, 3, 59, 0
10, 43800, Note_on_c, 3, 56, 64
10, 44040, Note_on_c, 3, 56, 0
10, 44040, Note_on_c, 3, 54, 64
10, 44100, Note_on_c, 3, 54, 0
10, 44100, Note_on_c, 3, 66, 64
10, 44160, Note_on_c, 3, 66, 0
10, 44160, Note_on_c, 3, 64, 64
10, 44195, Note_on_c, 3, 64, 0
10, 44220, Note_on_c, 3, 61, 64
10, 44280, Note_on_c, 3, 61, 0
10, 44280, Note_on_c, 3, 62, 64
10, 44580, Note_on_c, 3, 62, 0
10, 44580, Note_on_c, 3, 54, 64
10, 44640, Note_on_c, 3, 54, 0
10, 44640, Note_on_c, 3, 53, 64
10, 44675, Note_on_c, 3, 53, 0
10, 44700, Note_on_c, 3, 56, 64
10, 44760, Note_on_c, 3, 56, 0
10, 44760, Note_on_c, 3, 57, 64
10, 44940, Note_on_c, 3, 57, 0
10, 44940, Note_on_c, 3, 56, 64
10, 44970, Note_on_c, 3, 56, 0
10, 44970, Note_on_c, 3, 57, 64
10, 45000, Note_on_c, 3, 57, 0
10, 45000, Note_on_c, 3, 59, 64
10, 45060, Note_on_c, 3, 59, 0
10, 45060, Note_on_c, 3, 61, 64
10, 45120, Note_on_c, 3, 61, 0
10, 45120, Note_on_c, 3, 62, 64
10, 45155, Note_on_c, 3, 62, 0
10, 45180, Note_on_c, 3, 56, 64
10, 45240, Note_on_c, 3, 56, 0
10, 45240, Note_on_c, 3, 57, 64
10, 45300, Note_on_c, 3, 57, 0
10, 45300, Note_on_c, 3, 61, 64
10, 45360, Note_on_c, 3, 61, 0
10, 45360, Note_on_c, 3, 59, 64
10, 45420, Note_on_c, 3, 59, 0
10, 45420, Note_on_c, 3, 64, 64
10, 45450, Note_on_c, 3, 64, 0
10, 45450, Note_on_c, 3, 62, 64
10, 45480, Note_on_c, 3, 62, 0
10, 45480, Note_on_c, 3, 61, 64
10, 45540, Note_on_c, 3, 61, 0
10, 45540, Note_on_c, 3, 62, 64
10, 45600, Note_on_c, 3, 62, 0
10, 45600, Note_on_c, 3, 64, 64
10, 45635, Note_on_c, 3, 64, 0
10, 45660, Note_on_c, 3, 58, 64
10, 45720, Note_on_c, 3, 58, 0
10, 45720, Note_on_c, 3, 59, 64
10, 45840, Note_on_c, 3, 59, 0
10, 45900, Note_on_c, 3, 54, 64
10, 45960, Note_on_c, 3, 54, 0
10, 45960, Note_on_c, 3, 61, 64
10, 46020, Note_on_c, 3, 61, 0
10, 46020, Note_on_c, 3, 61, 64
10, 46080, Note_on_c, 3, 61, 0
10, 46080, Note_on_c, 3, 56, 64
10, 46115, Note_on_c, 3, 56, 0
10, 46140, Note_on_c, 3, 57, 64
10, 46170, Note_on_c, 3, 57, 0
10, 46170, Note_on_c, 3, 59, 64
10, 46200, Note_on_c, 3, 59, 0
10, 46200, Note_on_c, 3, 61, 64
10, 46380, Note_on_c, 3, 61, 0
10, 46380, Note_on_c, 3, 59, 64
10, 46410, Note_on_c, 3, 59, 0
10, 46410, Note_on_c, 3, 57, 64
10, 46440, Note_on_c, 3, 57, 0
10, 46440, Note_on_c, 3, 59, 64
10, 46680, Note_on_c, 3, 59, 0
10, 46680, Note_on_c, 3, 59, 64
10, 46740, Note_on_c, 3, 59, 0
10, 46740, Note_on_c, 3, 59, 64
10, 46800, Note_on_c, 3, 59, 0
10, 46800, Note_on_c, 3, 57, 64
10, 46860, Note_on_c, 3, 57, 0
10, 46860, Note_on_c, 3, 55, 64
10, 46920, Note_on_c, 3, 55, 0
10, 46920, Note_on_c, 3, 54, 64
10, 47040, Note_on_c, 3, 54, 0
10, 47040, Note_on_c, 3, 54, 64
10, 47160, Note_on_c, 3, 54, 0
10, 47160, Note_on_c, 3, 52, 64
10, 47220, Note_on_c, 3, 52, 0
10, 47220, Note_on_c, 3, 51, 64
10, 47280, Note_on_c, 3, 51, 0
10, 47280, Note_on_c, 3, 52, 64
10, 47315, Note_on_c, 3, 52, 0
10, 47340, Note_on_c, 3, 59, 64
10, 47400, Note_on_c, 3, 59, 0
10, 47400, Note_on_c, 3, 60, 64
10, 47520, Note_on_c, 3, 60, 0
10, 47520, Note_on_c, 3, 57, 64
10, 47580, Note_on_c, 3, 57, 0
10, 47580, Note_on_c, 3, 60, 64
10, 47640, Note_on_c, 3, 60, 0
10, 47640, Note_on_c, 3, 54, 64
10, 47760, Note_on_c, 3, 54, 0
10, 48300, Note_on_c, 3, 59, 64
10, 48360, Note_on_c, 3, 59, 0
10, 48360, Note_on_c, 3, 57, 64
10, 48420, Note_on_c, 3, 57, 0
10, 48420, Note_on_c, 3, 59, 64
10, 48480, Note_on_c, 3, 59, 0
10, 48480, Note_on_c, 3, 61, 64
10, 48540, Note_on_c, 3, 61, 0
10, 48540, Note_on_c, 3, 59, 64
10, 48600, Note_on_c, 3, 59, 0
10, 48600, Note_on_c, 3, 58, 64
10, 48660, Note_on_c, 3, 58, 0
10, 48660, Note_on_c, 3, 56, 64
10, 48720, Note_on_c, 3, 56, 0
10, 48720, Note_on_c, 3, 54, 64
10, 48755, Note_on_c, 3, 54, 0
10, 48780, Note_on_c, 3, 61, 64
10, 48840, Note_on_c, 3, 61, 0
10, 48840, Note_on_c, 3, 59, 64
10, 48900, Note_on_c, 3, 59, 0
10, 48900, Note_on_c, 3, 61, 64
10, 48960, Note_on_c, 3, 61, 0
10, 48960, Note_on_c, 3, 62, 64
10, 48990, Note_on_c, 3, 62, 0
10, 48990, Note_on_c, 3, 64, 64
10, 49020, Note_on_c, 3, 64, 0
10, 49020, Note_on_c, 3, 66, 64
10, 49080, Note_on_c, 3, 66, 0
10, 49080, Note_on_c, 3, 59, 64
10, 49140, Note_on_c, 3, 59, 0
10, 49140, Note_on_c, 3, 61, 64
10, 49170, Note_on_c, 3, 61, 0
10, 49170, Note_on_c, 3, 62, 64
10, 49200, Note_on_c, 3, 62, 0
10, 49200, Note_on_c, 3, 64, 64
10, 49230, Note_on_c, 3, 64, 0
10, 49230, Note_on_c, 3, 66, 64
10, 49260, Note_on_c, 3, 66, 0
10, 49260, Note_on_c, 3, 67, 64
10, 49320, Note_on_c, 3, 67, 0
10, 49320, Note_on_c, 3, 61, 64
10, 49440, Note_on_c, 3, 61, 0
10, 49860, Note_on_c, 3, 55, 75
10, 49920, Note_on_c, 3, 55, 0
10, 49920, Note_on_c, 3, 55, 75
10, 49980, Note_on_c, 3, 55, 0
10, 49980, Note_on_c, 3, 54, 75
10, 50010, Note_on_c, 3, 54, 0
10, 50010, Note_on_c, 3, 52, 75
10, 50040, Note_on_c, 3, 52, 0
10, 50040, Note_on_c, 3, 61, 75
10, 50100, Note_on_c, 3, 61, 0
10, 50100, Note_on_c, 3, 49, 75
10, 50160, Note_on_c, 3, 49, 0
10, 50160, Note_on_c, 3, 50, 75
10, 50220, Note_on_c, 3, 50, 0
10, 50220, Note_on_c, 3, 52, 75
10, 50280, Note_on_c, 3, 52, 0
10, 50280, Note_on_c, 3, 54, 75
10, 50340, Note_on_c, 3, 54, 0
10, 50340, Note_on_c, 3, 56, 75
10, 50400, Note_on_c, 3, 56, 0
10, 50400, Note_on_c, 3, 57, 75
10, 50460, Note_on_c, 3, 57, 0
10, 50460, Note_on_c, 3, 59, 75
10, 50490, Note_on_c, 3, 59, 0
10, 50490, Note_on_c, 3, 61, 75
10, 50520, Note_on_c, 3, 61, 0
10, 50520, Note_on_c, 3, 62, 75
10, 50580, Note_on_c, 3, 62, 0
10, 50580, Note_on_c, 3, 59, 75
10, 50640, Note_on_c, 3, 59, 0
10, 50640, Note_on_c, 3, 56, 75
10, 50700, Note_on_c, 3, 56, 0
10, 50700, Note_on_c, 3, 61, 75
10, 50760, Note_on_c, 3, 61, 0
10, 50760, Note_on_c, 3, 61, 75
10, 50880, Note_on_c, 3, 61, 0
10, 50940, Note_on_c, 3, 61, 75
10, 51000, Note_on_c, 3, 61, 0
10, 51000, Note_on_c, 3, 59, 75
10, 51060, Note_on_c, 3, 59, 0
10, 51060, Note_on_c, 3, 61, 75
10, 51120, Note_on_c, 3, 61, 0
10, 51120, Note_on_c, 3, 62, 75
10, 51180, Note_on_c, 3, 62, 0
10, 51180, Note_on_c, 3, 56, 75
10, 51240, Note_on_c, 3, 56, 0
10, 51240, Note_on_c, 3, 56, 75
10, 51360, Note_on_c, 3, 56, 0
10, 51360, Note_on_c, 3, 56, 75
10, 51420, Note_on_c, 3, 56, 0
10, 51420, Note_on_c, 3, 56, 75
10, 51480, Note_on_c, 3, 56, 0
10, 51480, Note_on_c, 3, 57, 75
10, 51540, Note_on_c, 3, 57, 0
10, 51540, Note_on_c, 3, 59, 75
10, 51600, Note_on_c, 3, 59, 0
10, 51600, Note_on_c, 3, 61, 75
10, 51660, Note_on_c, 3, 61, 0
10, 51660, Note_on_c, 3, 57, 75
10, 51720, Note_on_c, 3, 57, 0
10, 51720, Note_on_c, 3, 54, 75
10, 51840, Note_on_c, 3, 54, 0
10, 51840, Note_on_c, 3, 53, 75
10, 51900, Note_on_c, 3, 53, 0
10, 51900, Note_on_c, 3, 54, 75
10, 51960, Note_on_c, 3, 54, 0
10, 51960, Note_on_c, 3, 56, 75
10, 52080, Note_on_c, 3, 56, 0
10, 52080, Note_on_c, 3, 56, 75
10, 52115, Note_on_c, 3, 56, 0
10, 52140, Note_on_c, 3, 56, 75
10, 52200, Note_on_c, 3, 56, 0
10, 52200, Note_on_c, 3, 57, 75
10, 52260, Note_on_c, 3, 57, 0
10, 52260, Note_on_c, 3, 56, 75
10, 52320, Note_on_c, 3, 56, 0
10, 52320, Note_on_c, 3, 54, 75
10, 52440, Note_on_c, 3, 54, 0
10, 52440, Note_on_c, 3, 54, 75
10, 52500, Note_on_c, 3, 54, 0
10, 52500, Note_on_c, 3, 59, 75
10, 52560, Note_on_c, 3, 59, 0
10, 52560, Note_on_c, 3, 57, 75
10, 52595, Note_on_c, 3, 57, 0
10, 52740, Note_on_c, 3, 56, 75
10, 52800, Note_on_c, 3, 56, 0
10, 52800, Note_on_c, 3, 57, 75
10, 52860, Note_on_c, 3, 57, 0
10, 52860, Note_on_c, 3, 59, 75
10, 52920, Note_on_c, 3, 59, 0
10, 52920, Note_on_c, 3, 61, 75
10, 52980, Note_on_c, 3, 61, 0
10, 52980, Note_on_c, 3, 62, 75
10, 53040, Note_on_c, 3, 62, 0
10, 53040, Note_on_c, 3, 61, 76
10, 53075, Note_on_c, 3, 61, 0
10, 53100, Note_on_c, 3, 62, 76
10, 53160, Note_on_c, 3, 62, 0
10, 53160, Note_on_c, 3, 61, 77
10, 53220, Note_on_c, 3, 61, 0
10, 53220, Note_on_c, 3, 62, 77
10, 53250, Note_on_c, 3, 62, 0
10, 53250, Note_on_c, 3, 61, 77
10, 53280, Note_on_c, 3, 61, 0
10, 53280, Note_on_c, 3, 59, 78
10, 53340, Note_on_c, 3, 59, 0
10, 53340, Note_on_c, 3, 57, 78
10, 53400, Note_on_c, 3, 57, 0
10, 53400, Note_on_c, 3, 56, 79
10, 53520, Note_on_c, 3, 56, 0
10, 53520, Note_on_c, 3, 57, 79
10, 53580, Note_on_c, 3, 57, 0
10, 53580, Note_on_c, 3, 59, 80
10, 53640, Note_on_c, 3, 59, 0
10, 53640, Note_on_c, 3, 61, 80
10, 53700, Note_on_c, 3, 61, 0
10, 53700, Note_on_c, 3, 54, 81
10, 53760, Note_on_c, 3, 54, 0
10, 53760, Note_on_c, 3, 61, 81
10, 53880, Note_on_c, 3, 61, 0
10, 53880, Note_on_c, 3, 61, 82
10, 54000, Note_on_c, 3, 61, 0
10, 54420, Note_on_c, 3, 59, 42
10, 54480, Note_on_c, 3, 59, 0
10, 54480, Note_on_c, 3, 64, 44
10, 54660, Note_on_c, 3, 64, 0
10, 54660, Note_on_c, 3, 62, 49
10, 54720, Note_on_c, 3, 62, 0
10, 54720, Note_on_c, 3, 61, 51
10, 54780, Note_on_c, 3, 61, 0
10, 54780, Note_on_c, 3, 59, 53
10, 54810, Note_on_c, 3, 59, 0
10, 54810, Note_on_c, 3, 58, 54
10, 54840, Note_on_c, 3, 58, 0
10, 54840, Note_on_c, 3, 59, 55
10, 54960, Note_on_c, 3, 59, 0
10, 54960, Note_on_c, 3, 54, 59
10, 55080, Note_on_c, 3, 54, 0
10, 55500, Note_on_c, 3, 60, 76
10, 55560, Note_on_c, 3, 60, 0
10, 55560, Note_on_c, 3, 59, 78
10, 55620, Note_on_c, 3, 59, 0
10, 55620, Note_on_c, 3, 57, 79
10, 55650, Note_on_c, 3, 57, 0
10, 55650, Note_on_c, 3, 55, 80
10, 55680, Note_on_c, 3, 55, 0
10, 55680, Note_on_c, 3, 54, 81
10, 55715, Note_on_c, 3, 54, 0
10, 55740, Note_on_c, 3, 59, 83
10, 55775, Note_on_c, 3, 59, 0
10, 55800, Note_on_c, 3, 59, 85
10, 55871, Note_on_c, 3, 59, 0
10, 55980, Note_on_c, 3, 55, 85
10, 56015, Note_on_c, 3, 55, 0
10, 56040, Note_on_c, 3, 54, 85
10, 56111, Note_on_c, 3, 54, 0
10, 56220, Note_on_c, 3, 65, 85
10, 56255, Note_on_c, 3, 65, 0
10, 56280, Note_on_c, 3, 61, 85
10, 56351, Note_on_c, 3, 61, 0
10, 56460, Note_on_c, 3, 63, 85
10, 56495, Note_on_c, 3, 63, 0
10, 56520, Note_on_c, 3, 59, 85
10, 56591, Note_on_c, 3, 59, 0
10, 56700, Note_on_c, 3, 61, 85
10, 56735, Note_on_c, 3, 61, 0
10, 56760, Note_on_c, 3, 57, 85
10, 56820, Note_on_c, 3, 57, 0
10, 56820, Note_on_c, 3, 61, 85
10, 56880, Note_on_c, 3, 61, 0
10, 56880, Note_on_c, 3, 62, 85
10, 56915, Note_on_c, 3, 62, 0
10, 56940, Note_on_c, 3, 59, 85
10, 57000, Note_on_c, 3, 59, 0
10, 57000, Note_on_c, 3, 61, 85
10, 57120, Note_on_c, 3, 61, 0
10, 57120, Note_on_c, 3, 61, 85
10, 57180, Note_on_c, 3, 61, 0
10, 57180, Note_on_c, 3, 58, 85
10, 57240, Note_on_c, 3, 58, 0
10, 57240, Note_on_c, 3, 54, 85
10, 57420, Note_on_c, 3, 54, 0
10, 57420, Note_on_c, 3, 52, 85
10, 57450, Note_on_c, 3, 52, 0
10, 57450, Note_on_c, 3, 50, 85
10, 57480, Note_on_c, 3, 50, 0
10, 57480, Note_on_c, 3, 52, 85
10, 57660, Note_on_c, 3, 52, 0
10, 57660, Note_on_c, 3, 50, 85
10, 57690, Note_on_c, 3, 50, 0
10, 57690, Note_on_c, 3, 49, 85
10, 57720, Note_on_c, 3, 49, 0
10, 57720, Note_on_c, 3, 54, 85
10, 57840, Note_on_c, 3, 54, 0
10, 57900, Note_on_c, 3, 59, 85
10, 58020, Note_on_c, 3, 59, 0
10, 58020, Note_on_c, 3, 66, 85
10, 58080, Note_on_c, 3, 66, 0
10, 58080, Note_on_c, 3, 64, 85
10, 58140, Note_on_c, 3, 64, 0
10, 58140, Note_on_c, 3, 62, 85
10, 58200, Note_on_c, 3, 62, 0
10, 58200, Note_on_c, 3, 61, 85
10, 58380, Note_on_c, 3, 61, 0
10, 58380, Note_on_c, 3, 59, 85
10, 58410, Note_on_c, 3, 59, 0
10, 58410, Note_on_c, 3, 61, 85
10, 58440, Note_on_c, 3, 61, 0
10, 58440, Note_on_c, 3, 62, 85
10, 58500, Note_on_c, 3, 62, 0
10, 58500, Note_on_c, 3, 64, 85
10, 58560, Note_on_c, 3, 64, 0
10, 58560, Note_on_c, 3, 66, 85
10, 58620, Note_on_c, 3, 66, 0
10, 58620, Note_on_c, 3, 62, 85
10, 58680, Note_on_c, 3, 62, 0
10, 58680, Note_on_c, 3, 59, 85
10, 58860, Note_on_c, 3, 59, 0
10, 58860, Note_on_c, 3, 58, 85
10, 58890, Note_on_c, 3, 58, 0
10, 58890, Note_on_c, 3, 59, 85
10, 58920, Note_on_c, 3, 59, 0
10, 58920, Note_on_c, 3, 61, 85
10, 59100, Note_on_c, 3, 61, 0
10, 59100, Note_on_c, 3, 59, 85
10, 59130, Note_on_c, 3, 59, 0
10, 59130, Note_on_c, 3, 61, 85
10, 59160, Note_on_c, 3, 61, 0
10, 59160, Note_on_c, 3, 62, 85
10, 59220, Note_on_c, 3, 62, 0
10, 59220, Note_on_c, 3, 61, 85
10, 59280, Note_on_c, 3, 61, 0
10, 59280, Note_on_c, 3, 59, 85
10, 59400, Note_on_c, 3, 59, 0
10, 59460, Note_on_c, 3, 61, 85
10, 59520, Note_on_c, 3, 61, 0
10, 59520, Note_on_c, 3, 62, 85
10, 59580, Note_on_c, 3, 62, 0
10, 59580, Note_on_c, 3, 59, 85
10, 59640, Note_on_c, 3, 59, 0
10, 59640, Note_on_c, 3, 58, 85
10, 59675, Note_on_c, 3, 58, 0
10, 59700, Note_on_c, 3, 64, 86
10, 59760, Note_on_c, 3, 64, 0
10, 59760, Note_on_c, 3, 62, 86
10, 59820, Note_on_c, 3, 62, 0
10, 59820, Note_on_c, 3, 61, 87
10, 59880, Note_on_c, 3, 61, 0
10, 59880, Note_on_c, 3, 59, 88
10, 59915, Note_on_c, 3, 59, 0
10, 59940, Note_on_c, 3, 52, 88
10, 60000, Note_on_c, 3, 52, 0
10, 60000, Note_on_c, 3, 50, 89
10, 60060, Note_on_c, 3, 50, 0
10, 60060, Note_on_c, 3, 49, 89
10, 60120, Note_on_c, 3, 49, 0
10, 60120, Note_on_c, 3, 50, 90
10, 60180, Note_on_c, 3, 50, 0
10, 60180, Note_on_c, 3, 52, 91
10, 60210, Note_on_c, 3, 52, 0
10, 60210, Note_on_c, 3, 54, 91
10, 60240, Note_on_c, 3, 54, 0
10, 60240, Note_on_c, 3, 55, 91
10, 60300, Note_on_c, 3, 55, 0
10, 60300, Note_on_c, 3, 54, 92
10, 60360, Note_on_c, 3, 54, 0
10, 60360, Note_on_c, 3, 52, 93
10, 60420, Note_on_c, 3, 52, 0
10, 60420, Note_on_c, 3, 58, 93
10, 60480, Note_on_c, 3, 58, 0
10, 60480, Note_on_c, 3, 59, 94
10, 60540, Note_on_c, 3, 59, 0
10, 60540, Note_on_c, 3, 61, 94
10, 60600, Note_on_c, 3, 61, 0
10, 60600, Note_on_c, 3, 62, 95
10, 60660, Note_on_c, 3, 62, 0
10, 60660, Note_on_c, 3, 59, 96
10, 60720, Note_on_c, 3, 59, 0
10, 60720, Note_on_c, 3, 54, 96
10, 60840, Note_on_c, 3, 54, 0
10, 60840, Note_on_c, 3, 54, 98
10, 61200, Note_on_c, 3, 54, 0
10, 61560, End_track
11, 0, Start_track
11, 0, MIDI_port, 0
11, 0, Title_t, "Violin II"
11, 0, Program_c, 11, 48
11, 480, Control_c, 11, 7, 100
11, 480, Note_on_c, 11, 78, 64
11, 660, Note_on_c, 11, 78, 0
11, 660, Note_on_c, 11, 78, 64
11, 720, Note_on_c, 11, 78, 0
11, 720, Note_on_c, 11, 76, 64
11, 840, Note_on_c, 11, 76, 0
11, 960, Note_on_c, 11, 69, 64
11, 1140, Note_on_c, 11, 69, 0
11, 1140, Note_on_c, 11, 78, 64
11, 1200, Note_on_c, 11, 78, 0
11, 1200, Note_on_c, 11, 79, 64
11, 1320, Note_on_c, 11, 79, 0
11, 1440, Note_on_c, 11, 73, 64
11, 1500, Note_on_c, 11, 73, 0
11, 1500, Note_on_c, 11, 78, 64
11, 1620, Note_on_c, 11, 78, 0
11, 1620, Note_on_c, 11, 78, 64
11, 1680, Note_on_c, 11, 78, 0
11, 1680, Note_on_c, 11, 78, 64
11, 1800, Note_on_c, 11, 78, 0
11, 1860, Note_on_c, 11, 69, 64
11, 1920, Note_on_c, 11, 69, 0
11, 1920, Note_on_c, 11, 74, 64
11, 1980, Note_on_c, 11, 74, 0
11, 1980, Note_on_c, 11, 76, 65
11, 2010, Note_on_c, 11, 76, 0
11, 2010, Note_on_c, 11, 78, 66
11, 2040, Note_on_c, 11, 78, 0
11, 2040, Note_on_c, 11, 79, 67
11, 2100, Note_on_c, 11, 79, 0
11, 2100, Note_on_c, 11, 76, 68
11, 2160, Note_on_c, 11, 76, 0
11, 2160, Note_on_c, 11, 70, 70
11, 2400, Note_on_c, 11, 70, 0
11, 2520, Control_c, 11, 7, 70
11, 2520, Note_on_c, 11, 74, 64
11, 2760, Note_on_c, 11, 74, 0
11, 2760, Note_on_c, 11, 73, 64
11, 2820, Note_on_c, 11, 73, 0
11, 2820, Note_on_c, 11, 74, 64
11, 2880, Note_on_c, 11, 74, 0
11, 2880, Note_on_c, 11, 76, 64
11, 3000, Note_on_c, 11, 76, 0
11, 3000, Note_on_c, 11, 74, 64
11, 3060, Note_on_c, 11, 74, 0
11, 3060, Note_on_c, 11, 76, 64
11, 3120, Note_on_c, 11, 76, 0
11, 3120, Note_on_c, 11, 78, 64
11, 3240, Note_on_c, 11, 78, 0
11, 3240, Note_on_c, 11, 76, 64
11, 3300, Note_on_c, 11, 76, 0
11, 3300, Note_on_c, 11, 67, 64
11, 3420, Note_on_c, 11, 67, 0
11, 3420, Note_on_c, 11, 66, 64
11, 3450, Note_on_c, 11, 66, 0
11, 3450, Note_on_c, 11, 64, 64
11, 3480, Note_on_c, 11, 64, 0
11, 3480, Note_on_c, 11, 73, 64
11, 3515, Note_on_c, 11, 73, 0
11, 3540, Note_on_c, 11, 61, 64
11, 3600, Note_on_c, 11, 61, 0
11, 3600, Note_on_c, 11, 62, 64
11, 3660, Note_on_c, 11, 62, 0
11, 3660, Note_on_c, 11, 64, 64
11, 3720, Note_on_c, 11, 64, 0
11, 3720, Note_on_c, 11, 66, 64
11, 3780, Note_on_c, 11, 66, 0
11, 3780, Note_on_c, 11, 68, 64
11, 3840, Note_on_c, 11, 68, 0
11, 3840, Note_on_c, 11, 69, 64
11, 3900, Note_on_c, 11, 69, 0
11, 3900, Note_on_c, 11, 66, 64
11, 3960, Note_on_c, 11, 66, 0
11, 3960, Note_on_c, 11, 74, 64
11, 4020, Note_on_c, 11, 74, 0
11, 4020, Note_on_c, 11, 71, 64
11, 4080, Note_on_c, 11, 71, 0
11, 4080, Note_on_c, 11, 68, 64
11, 4140, Note_on_c, 11, 68, 0
11, 4140, Note_on_c, 11, 73, 64
11, 4200, Note_on_c, 11, 73, 0
11, 4200, Note_on_c, 11, 73, 64
11, 4440, Note_on_c, 11, 73, 0
11, 4440, Note_on_c, 11, 71, 64
11, 4500, Note_on_c, 11, 71, 0
11, 4500, Note_on_c, 11, 73, 64
11, 4560, Note_on_c, 11, 73, 0
11, 4560, Note_on_c, 11, 74, 64
11, 4680, Note_on_c, 11, 74, 0
11, 4680, Note_on_c, 11, 68, 64
11, 4920, Note_on_c, 11, 68, 0
11, 4920, Note_on_c, 11, 69, 64
11, 4980, Note_on_c, 11, 69, 0
11, 4980, Note_on_c, 11, 71, 64
11, 5040, Note_on_c, 11, 71, 0
11, 5040, Note_on_c, 11, 73, 64
11, 5100, Note_on_c, 11, 73, 0
11, 5100, Note_on_c, 11, 69, 64
11, 5160, Note_on_c, 11, 69, 0
11, 5160, Note_on_c, 11, 66, 64
11, 5280, Note_on_c, 11, 66, 0
11, 5280, Note_on_c, 11, 65, 64
11, 5340, Note_on_c, 11, 65, 0
11, 5340, Note_on_c, 11, 66, 64
11, 5400, Note_on_c, 11, 66, 0
11, 5400, Note_on_c, 11, 68, 64
11, 5640, Note_on_c, 11, 68, 0
11, 5640, Note_on_c, 11, 69, 64
11, 5700, Note_on_c, 11, 69, 0
11, 5700, Note_on_c, 11, 68, 64
11, 5760, Note_on_c, 11, 68, 0
11, 5760, Note_on_c, 11, 66, 64
11, 5940, Note_on_c, 11, 66, 0
11, 5940, Note_on_c, 11, 59, 64
11, 6000, Note_on_c, 11, 59, 0
11, 6000, Note_on_c, 11, 57, 64
11, 6035, Note_on_c, 11, 57, 0
11, 6060, Note_on_c, 11, 69, 64
11, 6120, Note_on_c, 11, 69, 0
11, 6120, Note_on_c, 11, 71, 64
11, 6240, Note_on_c, 11, 71, 0
11, 6240, Note_on_c, 11, 73, 64
11, 6275, Note_on_c, 11, 73, 0
11, 6300, Note_on_c, 11, 65, 64
11, 6360, Note_on_c, 11, 65, 0
11, 6360, Note_on_c, 11, 66, 64
11, 6480, Note_on_c, 11, 66, 0
11, 6540, Note_on_c, 11, 74, 64
11, 6600, Note_on_c, 11, 74, 0
11, 6600, Note_on_c, 11, 73, 64
11, 6660, Note_on_c, 11, 73, 0
11, 6660, Note_on_c, 11, 74, 64
11, 6690, Note_on_c, 11, 74, 0
11, 6690, Note_on_c, 11, 73, 64
11, 6720, Note_on_c, 11, 73, 0
11, 6720, Note_on_c, 11, 71, 64
11, 6780, Note_on_c, 11, 71, 0
11, 6780, Note_on_c, 11, 69, 64
11, 6840, Note_on_c, 11, 69, 0
11, 6840, Note_on_c, 11, 68, 64
11, 6960, Note_on_c, 11, 68, 0
11, 6960, Note_on_c, 11, 69, 64
11, 7020, Note_on_c, 11, 69, 0
11, 7020, Note_on_c, 11, 71, 64
11, 7080, Note_on_c, 11, 71, 0
11, 7080, Note_on_c, 11, 73, 64
11, 7140, Note_on_c, 11, 73, 0
11, 7140, Note_on_c, 11, 74, 64
11, 7200, Note_on_c, 11, 74, 0
11, 7200, Note_on_c, 11, 68, 64
11, 7260, Note_on_c, 11, 68, 0
11, 7260, Note_on_c, 11, 73, 64
11, 7320, Note_on_c, 11, 73, 0
11, 7320, Note_on_c, 11, 73, 40
11, 7380, Note_on_c, 11, 73, 0
11, 7380, Note_on_c, 11, 66, 41
11, 7410, Note_on_c, 11, 66, 0
11, 7410, Note_on_c, 11, 67, 41
11, 7440, Note_on_c, 11, 67, 0
11, 7440, Note_on_c, 11, 69, 42
11, 7620, Note_on_c, 11, 69, 0
11, 7620, Note_on_c, 11, 67, 44
11, 7680, Note_on_c, 11, 67, 0
11, 7680, Note_on_c, 11, 67, 64
11, 7695, Note_on_c, 11, 67, 0
11, 7695, Note_on_c, 11, 66, 64
11, 7710, Note_on_c, 11, 66, 0
11, 7710, Note_on_c, 11, 67, 64
11, 7725, Note_on_c, 11, 67, 0
11, 7725, Note_on_c, 11, 66, 64
11, 7740, Note_on_c, 11, 66, 0
11, 7740, Note_on_c, 11, 67, 64
11, 7755, Note_on_c, 11, 67, 0
11, 7755, Note_on_c, 11, 66, 64
11, 7770, Note_on_c, 11, 66, 0
11, 7770, Note_on_c, 11, 64, 64
11, 7785, Note_on_c, 11, 64, 0
11, 7785, Note_on_c, 11, 66, 64
11, 7800, Note_on_c, 11, 66, 0
11, 7800, Note_on_c, 11, 67, 46
11, 7860, Note_on_c, 11, 67, 0
11, 7860, Note_on_c, 11, 69, 47
11, 7920, Note_on_c, 11, 69, 0
11, 7920, Note_on_c, 11, 71, 48
11, 7980, Note_on_c, 11, 71, 0
11, 7980, Note_on_c, 11, 76, 48
11, 8040, Note_on_c, 11, 76, 0
11, 8040, Note_on_c, 11, 70, 49
11, 8100, Note_on_c, 11, 70, 0
11, 8100, Note_on_c, 11, 71, 50
11, 8130, Note_on_c, 11, 71, 0
11, 8130, Note_on_c, 11, 73, 50
11, 8160, Note_on_c, 11, 73, 0
11, 8160, Note_on_c, 11, 66, 51
11, 8340, Note_on_c, 11, 66, 0
11, 8340, Note_on_c, 11, 68, 53
11, 8370, Note_on_c, 11, 68, 0
11, 8370, Note_on_c, 11, 70, 53
11, 8400, Note_on_c, 11, 70, 0
11, 8400, Note_on_c, 11, 71, 54
11, 8580, Note_on_c, 11, 71, 0
11, 8580, Note_on_c, 11, 69, 56
11, 8640, Note_on_c, 11, 69, 0
11, 8640, Note_on_c, 11, 69, 64
11, 8655, Note_on_c, 11, 69, 0
11, 8655, Note_on_c, 11, 68, 64
11, 8670, Note_on_c, 11, 68, 0
11, 8670, Note_on_c, 11, 69, 64
11, 8685, Note_on_c, 11, 69, 0
11, 8685, Note_on_c, 11, 68, 64
11, 8700, Note_on_c, 11, 68, 0
11, 8700, Note_on_c, 11, 69, 64
11, 8715, Note_on_c, 11, 69, 0
11, 8715, Note_on_c, 11, 68, 64
11, 8730, Note_on_c, 11, 68, 0
11, 8730, Note_on_c, 11, 66, 64
11, 8745, Note_on_c, 11, 66, 0
11, 8745, Note_on_c, 11, 68, 64
11, 8760, Note_on_c, 11, 68, 0
11, 8760, Note_on_c, 11, 69, 58
11, 8940, Note_on_c, 11, 69, 0
11, 8940, Note_on_c, 11, 71, 60
11, 8970, Note_on_c, 11, 71, 0
11, 8970, Note_on_c, 11, 72, 61
11, 9000, Note_on_c, 11, 72, 0
11, 9000, Note_on_c, 11, 63, 61
11, 9060, Note_on_c, 11, 63, 0
11, 9060, Note_on_c, 11, 67, 62
11, 9120, Note_on_c, 11, 67, 0
11, 9120, Note_on_c, 11, 66, 63
11, 9155, Note_on_c, 11, 66, 0
11, 9180, Note_on_c, 11, 71, 63
11, 9215, Note_on_c, 11, 71, 0
11, 9240, Note_on_c, 11, 71, 64
11, 9311, Note_on_c, 11, 71, 0
11, 9420, Note_on_c, 11, 73, 64
11, 9431, Note_on_c, 11, 73, 0
11, 9480, Note_on_c, 11, 74, 64
11, 9551, Note_on_c, 11, 74, 0
11, 9660, Note_on_c, 11, 68, 64
11, 9695, Note_on_c, 11, 68, 0
11, 9720, Note_on_c, 11, 66, 64
11, 9791, Note_on_c, 11, 66, 0
11, 9900, Note_on_c, 11, 71, 64
11, 9935, Note_on_c, 11, 71, 0
11, 9960, Note_on_c, 11, 71, 64
11, 10031, Note_on_c, 11, 71, 0
11, 10140, Note_on_c, 11, 69, 64
11, 10175, Note_on_c, 11, 69, 0
11, 10200, Note_on_c, 11, 69, 70
11, 10271, Note_on_c, 11, 69, 0
11, 10380, Note_on_c, 11, 71, 62
11, 10415, Note_on_c, 11, 71, 0
11, 10440, Note_on_c, 11, 73, 60
11, 10511, Note_on_c, 11, 73, 0
11, 10620, Note_on_c, 11, 70, 52
11, 10655, Note_on_c, 11, 70, 0
11, 10680, Note_on_c, 11, 66, 50
11, 10860, Note_on_c, 11, 66, 0
11, 10860, Note_on_c, 11, 64, 53
11, 10890, Note_on_c, 11, 64, 0
11, 10890, Note_on_c, 11, 62, 53
11, 10920, Note_on_c, 11, 62, 0
11, 10920, Note_on_c, 11, 64, 54
11, 11100, Note_on_c, 11, 64, 0
11, 11100, Note_on_c, 11, 62, 56
11, 11130, Note_on_c, 11, 62, 0
11, 11130, Note_on_c, 11, 61, 57
11, 11160, Note_on_c, 11, 61, 0
11, 11160, Note_on_c, 11, 66, 57
11, 11280, Note_on_c, 11, 66, 0
11, 11340, Note_on_c, 11, 71, 60
11, 11400, Note_on_c, 11, 71, 0
11, 11400, Note_on_c, 11, 71, 61
11, 11520, Note_on_c, 11, 71, 0
11, 11580, Note_on_c, 11, 62, 63
11, 11640, Note_on_c, 11, 62, 0
11, 11640, Note_on_c, 11, 64, 64
11, 11760, Note_on_c, 11, 64, 0
11, 11760, Note_on_c, 11, 66, 64
11, 11940, Note_on_c, 11, 66, 0
11, 11940, Note_on_c, 11, 64, 64
11, 12000, Note_on_c, 11, 64, 0
11, 12000, Note_on_c, 11, 62, 64
11, 12060, Note_on_c, 11, 62, 0
11, 12060, Note_on_c, 11, 66, 64
11, 12120, Note_on_c, 11, 66, 0
11, 12120, Note_on_c, 11, 67, 64
11, 12180, Note_on_c, 11, 67, 0
11, 12180, Note_on_c, 11, 66, 64
11, 12240, Note_on_c, 11, 66, 0
11, 12240, Note_on_c, 11, 64, 64
11, 12480, Note_on_c, 11, 64, 0
11, 12480, Note_on_c, 11, 66, 64
11, 12780, Note_on_c, 11, 66, 0
11, 12780, Note_on_c, 11, 64, 64
11, 12810, Note_on_c, 11, 64, 0
11, 12810, Note_on_c, 11, 66, 64
11, 12840, Note_on_c, 11, 66, 0
11, 12840, Note_on_c, 11, 67, 64
11, 12900, Note_on_c, 11, 67, 0
11, 12900, Note_on_c, 11, 64, 64
11, 12960, Note_on_c, 11, 64, 0
11, 12960, Note_on_c, 11, 62, 64
11, 13080, Note_on_c, 11, 62, 0
11, 13080, Note_on_c, 11, 64, 64
11, 13200, Note_on_c, 11, 64, 0
11, 13200, Note_on_c, 11, 66, 64
11, 13260, Note_on_c, 11, 66, 0
11, 13260, Note_on_c, 11, 58, 64
11, 13320, Note_on_c, 11, 58, 0
11, 13320, Note_on_c, 11, 59, 64
11, 13440, Note_on_c, 11, 59, 0
11, 13500, Note_on_c, 11, 67, 64
11, 13560, Note_on_c, 11, 67, 0
11, 13560, Note_on_c, 11, 66, 64
11, 13620, Note_on_c, 11, 66, 0
11, 13620, Note_on_c, 11, 67, 64
11, 13650, Note_on_c, 11, 67, 0
11, 13650, Note_on_c, 11, 66, 64
11, 13680, Note_on_c, 11, 66, 0
11, 13680, Note_on_c, 11, 64, 64
11, 13740, Note_on_c, 11, 64, 0
11, 13740, Note_on_c, 11, 62, 64
11, 13800, Note_on_c, 11, 62, 0
11, 13800, Note_on_c, 11, 61, 64
11, 13920, Note_on_c, 11, 61, 0
11, 13920, Note_on_c, 11, 62, 64
11, 13980, Note_on_c, 11, 62, 0
11, 13980, Note_on_c, 11, 64, 64
11, 14040, Note_on_c, 11, 64, 0
11, 14040, Note_on_c, 11, 66, 64
11, 14100, Note_on_c, 11, 66, 0
11, 14100, Note_on_c, 11, 67, 64
11, 14220, Note_on_c, 11, 67, 0
11, 14220, Note_on_c, 11, 66, 64
11, 14280, Note_on_c, 11, 66, 0
11, 14280, Note_on_c, 11, 66, 64
11, 14315, Note_on_c, 11, 66, 0
11, 14340, Note_on_c, 11, 61, 64
11, 14400, Note_on_c, 11, 61, 0
11, 14400, Note_on_c, 11, 62, 64
11, 14460, Note_on_c, 11, 62, 0
11, 14460, Note_on_c, 11, 64, 64
11, 14520, Note_on_c, 11, 64, 0
11, 14520, Note_on_c, 11, 66, 64
11, 14640, Note_on_c, 11, 66, 0
11, 23160, Note_on_c, 11, 66, 64
11, 23250, Note_on_c, 11, 66, 0
11, 23250, Note_on_c, 11, 66, 64
11, 23280, Note_on_c, 11, 66, 0
11, 23280, Note_on_c, 11, 66, 64
11, 23315, Note_on_c, 11, 66, 0
11, 23340, Note_on_c, 11, 66, 64
11, 23400, Note_on_c, 11, 66, 0
11, 23400, Note_on_c, 11, 68, 64
11, 23460, Note_on_c, 11, 68, 0
11, 23460, Note_on_c, 11, 62, 64
11, 23520, Note_on_c, 11, 62, 0
11, 23520, Note_on_c, 11, 61, 64
11, 23555, Note_on_c, 11, 61, 0
11, 23580, Note_on_c, 11, 68, 64
11, 23640, Note_on_c, 11, 68, 0
11, 23640, Note_on_c, 11, 69, 64
11, 23700, Note_on_c, 11, 69, 0
11, 23700, Note_on_c, 11, 62, 64
11, 23760, Note_on_c, 11, 62, 0
11, 23760, Note_on_c, 11, 61, 64
11, 23795, Note_on_c, 11, 61, 0
11, 23820, Note_on_c, 11, 70, 64
11, 23880, Note_on_c, 11, 70, 0
11, 23880, Note_on_c, 11, 71, 64
11, 23910, Note_on_c, 11, 71, 0
11, 23910, Note_on_c, 11, 69, 64
11, 23940, Note_on_c, 11, 69, 0
11, 23940, Note_on_c, 11, 67, 64
11, 24030, Note_on_c, 11, 67, 0
11, 24030, Note_on_c, 11, 66, 64
11, 24060, Note_on_c, 11, 66, 0
11, 24060, Note_on_c, 11, 65, 64
11, 24090, Note_on_c, 11, 65, 0
11, 24090, Note_on_c, 11, 66, 64
11, 24120, Note_on_c, 11, 66, 0
11, 24120, Note_on_c, 11, 65, 64
11, 24155, Note_on_c, 11, 65, 0
11, 24180, Note_on_c, 11, 74, 64
11, 24240, Note_on_c, 11, 74, 0
11, 24240, Note_on_c, 11, 73, 64
11, 24300, Note_on_c, 11, 73, 0
11, 24300, Note_on_c, 11, 71, 64
11, 24360, Note_on_c, 11, 71, 0
11, 24360, Note_on_c, 11, 69, 64
11, 24420, Note_on_c, 11, 69, 0
11, 24420, Note_on_c, 11, 68, 64
11, 24450, Note_on_c, 11, 68, 0
11, 24450, Note_on_c, 11, 66, 64
11, 24480, Note_on_c, 11, 66, 0
11, 24480, Note_on_c, 11, 73, 64
11, 24600, Note_on_c, 11, 73, 0
11, 24600, Note_on_c, 11, 73, 64
11, 24720, Note_on_c, 11, 73, 0
11, 24720, Note_on_c, 11, 72, 64
11, 24840, Note_on_c, 11, 72, 0
11, 24840, Note_on_c, 11, 73, 64
11, 25140, Note_on_c, 11, 73, 0
11, 25140, Note_on_c, 11, 71, 64
11, 25200, Note_on_c, 11, 71, 0
11, 25200, Note_on_c, 11, 69, 64
11, 25260, Note_on_c, 11, 69, 0
11, 25260, Note_on_c, 11, 68, 64
11, 25320, Note_on_c, 11, 68, 0
11, 25320, Note_on_c, 11, 66, 64
11, 25440, Note_on_c, 11, 66, 0
11, 25440, Note_on_c, 11, 75, 64
11, 25620, Note_on_c, 11, 75, 0
11, 25620, Note_on_c, 11, 68, 64
11, 25680, Note_on_c, 11, 68, 0
11, 25680, Note_on_c, 11, 73, 64
11, 25740, Note_on_c, 11, 73, 0
11, 25740, Note_on_c, 11, 71, 64
11, 25800, Note_on_c, 11, 71, 0
11, 25800, Note_on_c, 11, 69, 64
11, 26100, Note_on_c, 11, 69, 0
11, 26100, Note_on_c, 11, 63, 64
11, 26160, Note_on_c, 11, 63, 0
11, 26160, Note_on_c, 11, 68, 64
11, 26220, Note_on_c, 11, 68, 0
11, 26220, Note_on_c, 11, 66, 64
11, 26280, Note_on_c, 11, 66, 0
11, 26280, Note_on_c, 11, 64, 64
11, 26580, Note_on_c, 11, 64, 0
11, 26580, Note_on_c, 11, 72, 64
11, 26640, Note_on_c, 11, 72, 0
11, 26640, Note_on_c, 11, 73, 64
11, 26700, Note_on_c, 11, 73, 0
11, 26700, Note_on_c, 11, 64, 64
11, 26760, Note_on_c, 11, 64, 0
11, 26760, Note_on_c, 11, 63, 64
11, 26795, Note_on_c, 11, 63, 0
11, 26820, Note_on_c, 11, 72, 64
11, 26880, Note_on_c, 11, 72, 0
11, 26880, Note_on_c, 11, 73, 64
11, 26940, Note_on_c, 11, 73, 0
11, 26940, Note_on_c, 11, 75, 64
11, 27000, Note_on_c, 11, 75, 0
11, 27000, Note_on_c, 11, 68, 64
11, 27060, Note_on_c, 11, 68, 0
11, 27060, Note_on_c, 11, 60, 64
11, 27120, Note_on_c, 11, 60, 0
11, 27120, Note_on_c, 11, 61, 64
11, 27180, Note_on_c, 11, 61, 0
11, 27180, Note_on_c, 11, 69, 64
11, 27240, Note_on_c, 11, 69, 0
11, 27240, Note_on_c, 11, 64, 64
11, 27300, Note_on_c, 11, 64, 0
11, 27300, Note_on_c, 11, 63, 64
11, 27420, Note_on_c, 11, 63, 0
11, 27420, Note_on_c, 11, 64, 64
11, 27480, Note_on_c, 11, 64, 0
11, 27480, Note_on_c, 11, 66, 64
11, 27515, Note_on_c, 11, 66, 0
11, 27540, Note_on_c, 11, 69, 64
11, 27600, Note_on_c, 11, 69, 0
11, 27600, Note_on_c, 11, 68, 64
11, 27660, Note_on_c, 11, 68, 0
11, 27660, Note_on_c, 11, 66, 64
11, 27720, Note_on_c, 11, 66, 0
11, 27720, Note_on_c, 11, 64, 64
11, 27840, Note_on_c, 11, 64, 0
11, 27840, Note_on_c, 11, 63, 64
11, 27960, Note_on_c, 11, 63, 0
11, 27960, Note_on_c, 11, 61, 40
11, 28080, Note_on_c, 11, 61, 0
11, 28320, Note_on_c, 11, 73, 45
11, 28500, Note_on_c, 11, 73, 0
11, 28500, Note_on_c, 11, 71, 47
11, 28530, Note_on_c, 11, 71, 0
11, 28530, Note_on_c, 11, 73, 47
11, 28560, Note_on_c, 11, 73, 0
11, 28560, Note_on_c, 11, 74, 48
11, 28740, Note_on_c, 11, 74, 0
11, 28740, Note_on_c, 11, 66, 50
11, 28800, Note_on_c, 11, 66, 0
11, 28800, Note_on_c, 11, 65, 51
11, 28835, Note_on_c, 11, 65, 0
11, 28860, Note_on_c, 11, 71, 51
11, 28920, Note_on_c, 11, 71, 0
11, 28920, Note_on_c, 11, 69, 52
11, 29040, Note_on_c, 11, 69, 0
11, 29280, Note_on_c, 11, 75, 57
11, 29460, Note_on_c, 11, 75, 0
11, 29460, Note_on_c, 11, 73, 59
11, 29490, Note_on_c, 11, 73, 0
11, 29490, Note_on_c, 11, 75, 59
11, 29520, Note_on_c, 11, 75, 0
11, 29520, Note_on_c, 11, 76, 60
11, 29700, Note_on_c, 11, 76, 0
11, 29700, Note_on_c, 11, 67, 62
11, 29760, Note_on_c, 11, 67, 0
11, 29760, Note_on_c, 11, 66, 63
11, 29795, Note_on_c, 11, 66, 0
11, 29820, Note_on_c, 11, 76, 63
11, 29855, Note_on_c, 11, 76, 0
11, 29880, Note_on_c, 11, 75, 94
11, 29940, Note_on_c, 11, 75, 0
11, 29940, Note_on_c, 11, 69, 75
11, 30000, Note_on_c, 11, 69, 0
11, 30000, Note_on_c, 11, 68, 75
11, 30035, Note_on_c, 11, 68, 0
11, 30060, Note_on_c, 11, 77, 75
11, 30095, Note_on_c, 11, 77, 0
11, 30120, Note_on_c, 11, 78, 94
11, 30180, Note_on_c, 11, 78, 0
11, 30180, Note_on_c, 11, 73, 75
11, 30240, Note_on_c, 11, 73, 0
11, 30240, Note_on_c, 11, 72, 75
11, 30275, Note_on_c, 11, 72, 0
11, 30300, Note_on_c, 11, 78, 75
11, 30335, Note_on_c, 11, 78, 0
11, 30360, Note_on_c, 11, 77, 94
11, 30420, Note_on_c, 11, 77, 0
11, 30420, Note_on_c, 11, 71, 75
11, 30480, Note_on_c, 11, 71, 0
11, 30480, Note_on_c, 11, 70, 75
11, 30515, Note_on_c, 11, 70, 0
11, 30540, Note_on_c, 11, 76, 75
11, 30575, Note_on_c, 11, 76, 0
11, 30600, Note_on_c, 11, 75, 94
11, 30660, Note_on_c, 11, 75, 0
11, 30660, Note_on_c, 11, 69, 75
11, 30720, Note_on_c, 11, 69, 0
11, 30720, Note_on_c, 11, 68, 75
11, 30755, Note_on_c, 11, 68, 0
11, 30780, Note_on_c, 11, 74, 75
11, 30815, Note_on_c, 11, 74, 0
11, 30840, Note_on_c, 11, 73, 64
11, 30875, Note_on_c, 11, 73, 0
11, 30900, Note_on_c, 11, 65, 64
11, 30960, Note_on_c, 11, 65, 0
11, 30960, Note_on_c, 11, 66, 64
11, 30995, Note_on_c, 11, 66, 0
11, 31020, Note_on_c, 11, 69, 64
11, 31080, Note_on_c, 11, 69, 0
11, 31080, Note_on_c, 11, 71, 64
11, 31115, Note_on_c, 11, 71, 0
11, 31140, Note_on_c, 11, 62, 64
11, 31200, Note_on_c, 11, 62, 0
11, 31200, Note_on_c, 11, 61, 64
11, 31235, Note_on_c, 11, 61, 0
11, 31260, Note_on_c, 11, 71, 64
11, 31320, Note_on_c, 11, 71, 0
11, 31320, Note_on_c, 11, 69, 64
11, 31500, Note_on_c, 11, 69, 0
11, 31500, Note_on_c, 11, 71, 64
11, 31530, Note_on_c, 11, 71, 0
11, 31530, Note_on_c, 11, 73, 64
11, 31560, Note_on_c, 11, 73, 0
11, 31560, Note_on_c, 11, 71, 64
11, 31740, Note_on_c, 11, 71, 0
11, 31740, Note_on_c, 11, 73, 64
11, 31770, Note_on_c, 11, 73, 0
11, 31770, Note_on_c, 11, 74, 64
11, 31800, Note_on_c, 11, 74, 0
11, 31800, Note_on_c, 11, 73, 64
11, 31980, Note_on_c, 11, 73, 0
11, 31980, Note_on_c, 11, 74, 64
11, 32010, Note_on_c, 11, 74, 0
11, 32010, Note_on_c, 11, 76, 64
11, 32040, Note_on_c, 11, 76, 0
11, 32040, Note_on_c, 11, 74, 64
11, 32340, Note_on_c, 11, 74, 0
11, 32340, Note_on_c, 11, 68, 64
11, 32400, Note_on_c, 11, 68, 0
11, 32400, Note_on_c, 11, 73, 64
11, 32460, Note_on_c, 11, 73, 0
11, 32460, Note_on_c, 11, 71, 64
11, 32520, Note_on_c, 11, 71, 0
11, 32520, Note_on_c, 11, 69, 64
11, 32580, Note_on_c, 11, 69, 0
11, 32580, Note_on_c, 11, 68, 64
11, 32610, Note_on_c, 11, 68, 0
11, 32610, Note_on_c, 11, 66, 64
11, 32640, Note_on_c, 11, 66, 0
11, 32640, Note_on_c, 11, 73, 64
11, 32820, Note_on_c, 11, 73, 0
11, 32820, Note_on_c, 11, 66, 64
11, 32880, Note_on_c, 11, 66, 0
11, 32880, Note_on_c, 11, 71, 64
11, 32940, Note_on_c, 11, 71, 0
11, 32940, Note_on_c, 11, 69, 64
11, 33000, Note_on_c, 11, 69, 0
11, 33000, Note_on_c, 11, 68, 64
11, 33300, Note_on_c, 11, 68, 0
11, 33300, Note_on_c, 11, 61, 64
11, 33360, Note_on_c, 11, 61, 0
11, 33360, Note_on_c, 11, 66, 64
11, 33420, Note_on_c, 11, 66, 0
11, 33420, Note_on_c, 11, 64, 64
11, 33480, Note_on_c, 11, 64, 0
11, 33480, Note_on_c, 11, 62, 64
11, 33600, Note_on_c, 11, 62, 0
11, 33600, Note_on_c, 11, 61, 64
11, 33720, Note_on_c, 11, 61, 0
11, 33720, Note_on_c, 11, 59, 64
11, 33755, Note_on_c, 11, 59, 0
11, 33780, Note_on_c, 11, 68, 64
11, 33840, Note_on_c, 11, 68, 0
11, 33840, Note_on_c, 11, 69, 64
11, 33900, Note_on_c, 11, 69, 0
11, 33900, Note_on_c, 11, 71, 64
11, 33960, Note_on_c, 11, 71, 0
11, 33960, Note_on_c, 11, 73, 64
11, 33995, Note_on_c, 11, 73, 0
11, 34020, Note_on_c, 11, 74, 64
11, 34080, Note_on_c, 11, 74, 0
11, 34080, Note_on_c, 11, 73, 64
11, 34115, Note_on_c, 11, 73, 0
11, 34140, Note_on_c, 11, 66, 64
11, 34260, Note_on_c, 11, 66, 0
11, 34260, Note_on_c, 11, 65, 64
11, 34380, Note_on_c, 11, 65, 0
11, 34380, Note_on_c, 11, 66, 64
11, 34440, Note_on_c, 11, 66, 0
11, 34440, Note_on_c, 11, 68, 64
11, 34475, Note_on_c, 11, 68, 0
11, 34500, Note_on_c, 11, 71, 64
11, 34560, Note_on_c, 11, 71, 0
11, 34560, Note_on_c, 11, 69, 64
11, 34620, Note_on_c, 11, 69, 0
11, 34620, Note_on_c, 11, 68, 64
11, 34680, Note_on_c, 11, 68, 0
11, 34680, Note_on_c, 11, 66, 64
11, 34800, Note_on_c, 11, 66, 0
11, 34800, Note_on_c, 11, 65, 64
11, 34920, Note_on_c, 11, 65, 0
11, 34920, Note_on_c, 11, 66, 64
11, 35040, Note_on_c, 11, 66, 0
11, 36060, Note_on_c, 11, 73, 64
11, 36095, Note_on_c, 11, 73, 0
11, 36120, Note_on_c, 11, 73, 83
11, 36180, Note_on_c, 11, 73, 0
11, 36180, Note_on_c, 11, 78, 64
11, 36240, Note_on_c, 11, 78, 0
11, 36240, Note_on_c, 11, 80, 64
11, 36275, Note_on_c, 11, 80, 0
11, 36300, Note_on_c, 11, 72, 64
11, 36335, Note_on_c, 11, 72, 0
11, 36360, Note_on_c, 11, 73, 83
11, 36420, Note_on_c, 11, 73, 0
11, 36420, Note_on_c, 11, 77, 64
11, 36480, Note_on_c, 11, 77, 0
11, 36480, Note_on_c, 11, 78, 64
11, 36515, Note_on_c, 11, 78, 0
11, 36540, Note_on_c, 11, 70, 64
11, 36575, Note_on_c, 11, 70, 0
11, 36600, Note_on_c, 11, 71, 64
11, 36660, Note_on_c, 11, 71, 0
11, 36660, Note_on_c, 11, 75, 64
11, 36720, Note_on_c, 11, 75, 0
11, 36720, Note_on_c, 11, 76, 64
11, 36755, Note_on_c, 11, 76, 0
11, 36780, Note_on_c, 11, 68, 64
11, 36840, Note_on_c, 11, 68, 0
11, 36840, Note_on_c, 11, 69, 64
11, 36930, Note_on_c, 11, 69, 0
11, 36930, Note_on_c, 11, 69, 64
11, 36960, Note_on_c, 11, 69, 0
11, 36960, Note_on_c, 11, 69, 64
11, 36995, Note_on_c, 11, 69, 0
11, 37020, Note_on_c, 11, 69, 64
11, 37080, Note_on_c, 11, 69, 0
11, 37080, Note_on_c, 11, 71, 64
11, 37140, Note_on_c, 11, 71, 0
11, 37140, Note_on_c, 11, 66, 64
11, 37200, Note_on_c, 11, 66, 0
11, 37200, Note_on_c, 11, 64, 64
11, 37235, Note_on_c, 11, 64, 0
11, 37260, Note_on_c, 11, 71, 64
11, 37320, Note_on_c, 11, 71, 0
11, 37320, Note_on_c, 11, 73, 64
11, 37380, Note_on_c, 11, 73, 0
11, 37380, Note_on_c, 11, 66, 64
11, 37440, Note_on_c, 11, 66, 0
11, 37440, Note_on_c, 11, 64, 64
11, 37475, Note_on_c, 11, 64, 0
11, 37500, Note_on_c, 11, 73, 64
11, 37560, Note_on_c, 11, 73, 0
11, 37560, Note_on_c, 11, 74, 64
11, 37590, Note_on_c, 11, 74, 0
11, 37590, Note_on_c, 11, 73, 64
11, 37620, Note_on_c, 11, 73, 0
11, 37620, Note_on_c, 11, 71, 64
11, 37710, Note_on_c, 11, 71, 0
11, 37710, Note_on_c, 11, 69, 64
11, 37740, Note_on_c, 11, 69, 0
11, 37740, Note_on_c, 11, 68, 64
11, 37770, Note_on_c, 11, 68, 0
11, 37770, Note_on_c, 11, 69, 64
11, 37800, Note_on_c, 11, 69, 0
11, 37800, Note_on_c, 11, 68, 64
11, 37835, Note_on_c, 11, 68, 0
11, 37860, Note_on_c, 11, 78, 64
11, 37920, Note_on_c, 11, 78, 0
11, 37920, Note_on_c, 11, 76, 64
11, 37980, Note_on_c, 11, 76, 0
11, 37980, Note_on_c, 11, 74, 64
11, 38040, Note_on_c, 11, 74, 0
11, 38040, Note_on_c, 11, 73, 64
11, 38111, Note_on_c, 11, 73, 0
11, 38220, Note_on_c, 11, 78, 64
11, 38255, Note_on_c, 11, 78, 0
11, 38280, Note_on_c, 11, 76, 64
11, 38351, Note_on_c, 11, 76, 0
11, 38460, Note_on_c, 11, 76, 64
11, 38495, Note_on_c, 11, 76, 0
11, 38520, Note_on_c, 11, 78, 64
11, 38591, Note_on_c, 11, 78, 0
11, 38700, Note_on_c, 11, 74, 64
11, 38735, Note_on_c, 11, 74, 0
11, 38760, Note_on_c, 11, 73, 64
11, 38831, Note_on_c, 11, 73, 0
11, 38940, Note_on_c, 11, 73, 64
11, 38975, Note_on_c, 11, 73, 0
11, 39000, Note_on_c, 11, 74, 64
11, 39120, Note_on_c, 11, 74, 0
11, 39300, Note_on_c, 11, 67, 64
11, 39360, Note_on_c, 11, 67, 0
11, 39360, Note_on_c, 11, 61, 64
11, 39420, Note_on_c, 11, 61, 0
11, 39420, Note_on_c, 11, 64, 64
11, 39480, Note_on_c, 11, 64, 0
11, 39480, Note_on_c, 11, 62, 64
11, 39540, Note_on_c, 11, 62, 0
11, 39540, Note_on_c, 11, 64, 64
11, 39600, Note_on_c, 11, 64, 0
11, 39600, Note_on_c, 11, 66, 64
11, 39720, Note_on_c, 11, 66, 0
11, 39720, Note_on_c, 11, 64, 64
11, 39840, Note_on_c, 11, 64, 0
11, 40020, Note_on_c, 11, 64, 64
11, 40080, Note_on_c, 11, 64, 0
11, 40080, Note_on_c, 11, 66, 64
11, 40140, Note_on_c, 11, 66, 0
11, 40140, Note_on_c, 11, 67, 64
11, 40200, Note_on_c, 11, 67, 0
11, 40200, Note_on_c, 11, 66, 64
11, 40260, Note_on_c, 11, 66, 0
11, 40260, Note_on_c, 11, 71, 64
11, 40320, Note_on_c, 11, 71, 0
11, 40320, Note_on_c, 11, 73, 64
11, 40380, Note_on_c, 11, 73, 0
11, 40380, Note_on_c, 11, 78, 64
11, 40440, Note_on_c, 11, 78, 0
11, 40440, Note_on_c, 11, 71, 64
11, 40500, Note_on_c, 11, 71, 0
11, 40500, Note_on_c, 11, 74, 64
11, 40560, Note_on_c, 11, 74, 0
11, 40560, Note_on_c, 11, 68, 64
11, 40620, Note_on_c, 11, 68, 0
11, 40620, Note_on_c, 11, 73, 64
11, 40740, Note_on_c, 11, 73, 0
11, 40740, Note_on_c, 11, 71, 64
11, 40800, Note_on_c, 11, 71, 0
11, 40800, Note_on_c, 11, 69, 64
11, 40860, Note_on_c, 11, 69, 0
11, 40860, Note_on_c, 11, 73, 64
11, 40920, Note_on_c, 11, 73, 0
11, 40920, Note_on_c, 11, 71, 64
11, 41040, Note_on_c, 11, 71, 0
11, 41100, Note_on_c, 11, 68, 64
11, 41160, Note_on_c, 11, 68, 0
11, 41160, Note_on_c, 11, 68, 64
11, 41280, Note_on_c, 11, 68, 0
11, 41340, Note_on_c, 11, 65, 64
11, 41400, Note_on_c, 11, 65, 0
11, 41400, Note_on_c, 11, 73, 64
11, 41520, Note_on_c, 11, 73, 0
11, 41580, Note_on_c, 11, 71, 64
11, 41640, Note_on_c, 11, 71, 0
11, 41640, Note_on_c, 11, 71, 64
11, 41760, Note_on_c, 11, 71, 0
11, 41820, Note_on_c, 11, 71, 64
11, 41880, Note_on_c, 11, 71, 0
11, 41880, Note_on_c, 11, 69, 64
11, 42000, Note_on_c, 11, 69, 0
11, 42060, Note_on_c, 11, 69, 64
11, 42120, Note_on_c, 11, 69, 0
11, 42120, Note_on_c, 11, 69, 64
11, 42240, Note_on_c, 11, 69, 0
11, 42300, Note_on_c, 11, 69, 64
11, 42360, Note_on_c, 11, 69, 0
11, 42360, Note_on_c, 11, 67, 64
11, 42480, Note_on_c, 11, 67, 0
11, 42540, Note_on_c, 11, 71, 64
11, 42600, Note_on_c, 11, 71, 0
11, 42600, Note_on_c, 11, 67, 64
11, 42720, Note_on_c, 11, 67, 0
11, 42780, Note_on_c, 11, 66, 64
11, 42840, Note_on_c, 11, 66, 0
11, 42840, Note_on_c, 11, 66, 64
11, 42960, Note_on_c, 11, 66, 0
11, 43020, Note_on_c, 11, 66, 64
11, 43080, Note_on_c, 11, 66, 0
11, 43080, Note_on_c, 11, 59, 64
11, 43200, Note_on_c, 11, 59, 0
11, 43260, Note_on_c, 11, 64, 64
11, 43320, Note_on_c, 11, 64, 0
11, 43320, Note_on_c, 11, 61, 64
11, 43440, Note_on_c, 11, 61, 0
11, 43500, Note_on_c, 11, 61, 64
11, 43560, Note_on_c, 11, 61, 0
11, 43560, Note_on_c, 11, 62, 64
11, 43620, Note_on_c, 11, 62, 0
11, 43620, Note_on_c, 11, 64, 64
11, 43650, Note_on_c, 11, 64, 0
11, 43650, Note_on_c, 11, 62, 64
11, 43680, Note_on_c, 11, 62, 0
11, 43680, Note_on_c, 11, 61, 64
11, 43710, Note_on_c, 11, 61, 0
11, 43710, Note_on_c, 11, 59, 64
11, 43740, Note_on_c, 11, 59, 0
11, 43740, Note_on_c, 11, 57, 64
11, 43770, Note_on_c, 11, 57, 0
11, 43770, Note_on_c, 11, 59, 64
11, 43800, Note_on_c, 11, 59, 0
11, 43800, Note_on_c, 11, 56, 64
11, 44040, Note_on_c, 11, 56, 0
11, 44100, Note_on_c, 11, 66, 64
11, 44160, Note_on_c, 11, 66, 0
11, 44160, Note_on_c, 11, 64, 64
11, 44220, Note_on_c, 11, 64, 0
11, 44220, Note_on_c, 11, 61, 64
11, 44280, Note_on_c, 11, 61, 0
11, 44280, Note_on_c, 11, 62, 64
11, 44580, Note_on_c, 11, 62, 0
11, 44580, Note_on_c, 11, 71, 64
11, 44640, Note_on_c, 11, 71, 0
11, 44640, Note_on_c, 11, 68, 64
11, 44700, Note_on_c, 11, 68, 0
11, 44700, Note_on_c, 11, 65, 64
11, 44760, Note_on_c, 11, 65, 0
11, 44760, Note_on_c, 11, 66, 64
11, 44820, Note_on_c, 11, 66, 0
11, 44820, Note_on_c, 11, 68, 64
11, 44880, Note_on_c, 11, 68, 0
11, 44880, Note_on_c, 11, 69, 64
11, 44940, Note_on_c, 11, 69, 0
11, 44940, Note_on_c, 11, 62, 64
11, 45000, Note_on_c, 11, 62, 0
11, 45000, Note_on_c, 11, 68, 64
11, 45060, Note_on_c, 11, 68, 0
11, 45060, Note_on_c, 11, 69, 64
11, 45120, Note_on_c, 11, 69, 0
11, 45120, Note_on_c, 11, 71, 64
11, 45300, Note_on_c, 11, 71, 0
11, 45300, Note_on_c, 11, 64, 64
11, 45360, Note_on_c, 11, 64, 0
11, 45360, Note_on_c, 11, 71, 64
11, 45420, Note_on_c, 11, 71, 0
11, 45420, Note_on_c, 11, 73, 64
11, 45450, Note_on_c, 11, 73, 0
11, 45450, Note_on_c, 11, 71, 64
11, 45480, Note_on_c, 11, 71, 0
11, 45480, Note_on_c, 11, 70, 64
11, 45540, Note_on_c, 11, 70, 0
11, 45540, Note_on_c, 11, 71, 64
11, 45600, Note_on_c, 11, 71, 0
11, 45600, Note_on_c, 11, 73, 64
11, 45720, Note_on_c, 11, 73, 0
11, 45720, Note_on_c, 11, 71, 64
11, 45780, Note_on_c, 11, 71, 0
11, 45780, Note_on_c, 11, 69, 64
11, 45840, Note_on_c, 11, 69, 0
11, 45840, Note_on_c, 11, 68, 64
11, 45900, Note_on_c, 11, 68, 0
11, 45900, Note_on_c, 11, 66, 64
11, 45960, Note_on_c, 11, 66, 0
11, 45960, Note_on_c, 11, 65, 64
11, 46020, Note_on_c, 11, 65, 0
11, 46020, Note_on_c, 11, 66, 64
11, 46080, Note_on_c, 11, 66, 0
11, 46080, Note_on_c, 11, 68, 64
11, 46140, Note_on_c, 11, 68, 0
11, 46140, Note_on_c, 11, 66, 64
11, 46170, Note_on_c, 11, 66, 0
11, 46170, Note_on_c, 11, 65, 64
11, 46200, Note_on_c, 11, 65, 0
11, 46200, Note_on_c, 11, 66, 64
11, 46260, Note_on_c, 11, 66, 0
11, 46260, Note_on_c, 11, 61, 64
11, 46320, Note_on_c, 11, 61, 0
11, 46320, Note_on_c, 11, 66, 64
11, 46380, Note_on_c, 11, 66, 0
11, 46380, Note_on_c, 11, 64, 64
11, 46440, Note_on_c, 11, 64, 0
11, 46440, Note_on_c, 11, 63, 64
11, 46500, Note_on_c, 11, 63, 0
11, 46500, Note_on_c, 11, 64, 64
11, 46560, Note_on_c, 11, 64, 0
11, 46560, Note_on_c, 11, 66, 64
11, 46620, Note_on_c, 11, 66, 0
11, 46620, Note_on_c, 11, 64, 64
11, 46650, Note_on_c, 11, 64, 0
11, 46650, Note_on_c, 11, 63, 64
11, 46680, Note_on_c, 11, 63, 0
11, 46680, Note_on_c, 11, 64, 64
11, 46770, Note_on_c, 11, 64, 0
11, 46770, Note_on_c, 11, 64, 64
11, 46800, Note_on_c, 11, 64, 0
11, 46800, Note_on_c, 11, 64, 64
11, 46835, Note_on_c, 11, 64, 0
11, 46860, Note_on_c, 11, 64, 64
11, 46920, Note_on_c, 11, 64, 0
11, 46920, Note_on_c, 11, 66, 64
11, 46980, Note_on_c, 11, 66, 0
11, 46980, Note_on_c, 11, 60, 64
11, 47040, Note_on_c, 11, 60, 0
11, 47040, Note_on_c, 11, 59, 64
11, 47075, Note_on_c, 11, 59, 0
11, 47100, Note_on_c, 11, 66, 64
11, 47160, Note_on_c, 11, 66, 0
11, 47160, Note_on_c, 11, 67, 64
11, 47220, Note_on_c, 11, 67, 0
11, 47220, Note_on_c, 11, 60, 64
11, 47280, Note_on_c, 11, 60, 0
11, 47280, Note_on_c, 11, 59, 64
11, 47315, Note_on_c, 11, 59, 0
11, 47340, Note_on_c, 11, 68, 64
11, 47400, Note_on_c, 11, 68, 0
11, 47400, Note_on_c, 11, 69, 64
11, 47430, Note_on_c, 11, 69, 0
11, 47430, Note_on_c, 11, 67, 64
11, 47460, Note_on_c, 11, 67, 0
11, 47460, Note_on_c, 11, 65, 64
11, 47550, Note_on_c, 11, 65, 0
11, 47550, Note_on_c, 11, 64, 64
11, 47580, Note_on_c, 11, 64, 0
11, 47580, Note_on_c, 11, 63, 64
11, 47610, Note_on_c, 11, 63, 0
11, 47610, Note_on_c, 11, 64, 64
11, 47640, Note_on_c, 11, 64, 0
11, 47640, Note_on_c, 11, 63, 64
11, 47675, Note_on_c, 11, 63, 0
11, 47700, Note_on_c, 11, 72, 65
11, 47760, Note_on_c, 11, 72, 0
11, 47760, Note_on_c, 11, 71, 65
11, 47820, Note_on_c, 11, 71, 0
11, 47820, Note_on_c, 11, 69, 66
11, 47880, Note_on_c, 11, 69, 0
11, 47880, Note_on_c, 11, 67, 67
11, 47940, Note_on_c, 11, 67, 0
11, 47940, Note_on_c, 11, 66, 67
11, 47970, Note_on_c, 11, 66, 0
11, 47970, Note_on_c, 11, 64, 68
11, 48000, Note_on_c, 11, 64, 0
11, 48000, Note_on_c, 11, 74, 68
11, 48180, Note_on_c, 11, 74, 0
11, 48180, Note_on_c, 11, 69, 70
11, 48240, Note_on_c, 11, 69, 0
11, 48240, Note_on_c, 11, 68, 71
11, 48300, Note_on_c, 11, 68, 0
11, 48300, Note_on_c, 11, 74, 71
11, 48360, Note_on_c, 11, 74, 0
11, 48360, Note_on_c, 11, 73, 72
11, 48420, Note_on_c, 11, 73, 0
11, 48420, Note_on_c, 11, 71, 73
11, 48450, Note_on_c, 11, 71, 0
11, 48450, Note_on_c, 11, 69, 73
11, 48480, Note_on_c, 11, 69, 0
11, 48480, Note_on_c, 11, 76, 73
11, 48660, Note_on_c, 11, 76, 0
11, 48660, Note_on_c, 11, 71, 75
11, 48720, Note_on_c, 11, 71, 0
11, 48720, Note_on_c, 11, 70, 76
11, 48780, Note_on_c, 11, 70, 0
11, 48780, Note_on_c, 11, 76, 77
11, 48840, Note_on_c, 11, 76, 0
11, 48840, Note_on_c, 11, 74, 77
11, 48900, Note_on_c, 11, 74, 0
11, 48900, Note_on_c, 11, 76, 78
11, 48960, Note_on_c, 11, 76, 0
11, 48960, Note_on_c, 11, 78, 79
11, 49200, Note_on_c, 11, 78, 0
11, 49200, Note_on_c, 11, 76, 77
11, 49320, Note_on_c, 11, 76, 0
11, 49320, Note_on_c, 11, 78, 75
11, 49440, Note_on_c, 11, 78, 0
11, 50280, Note_on_c, 11, 66, 64
11, 50370, Note_on_c, 11, 66, 0
11, 50370, Note_on_c, 11, 66, 64
11, 50400, Note_on_c, 11, 66, 0
11, 50400, Note_on_c, 11, 66, 64
11, 50435, Note_on_c, 11, 66, 0
11, 50460, Note_on_c, 11, 66, 64
11, 50520, Note_on_c, 11, 66, 0
11, 50520, Note_on_c, 11, 68, 64
11, 50580, Note_on_c, 11, 68, 0
11, 50580, Note_on_c, 11, 62, 64
11, 50640, Note_on_c, 11, 62, 0
11, 50640, Note_on_c, 11, 61, 64
11, 50675, Note_on_c, 11, 61, 0
11, 50700, Note_on_c, 11, 68, 64
11, 50760, Note_on_c, 11, 68, 0
11, 50760, Note_on_c, 11, 69, 64
11, 50820, Note_on_c, 11, 69, 0
11, 50820, Note_on_c, 11, 62, 64
11, 50880, Note_on_c, 11, 62, 0
11, 50880, Note_on_c, 11, 61, 64
11, 50915, Note_on_c, 11, 61, 0
11, 50940, Note_on_c, 11, 70, 64
11, 51000, Note_on_c, 11, 70, 0
11, 51000, Note_on_c, 11, 71, 64
11, 51030, Note_on_c, 11, 71, 0
11, 51030, Note_on_c, 11, 69, 64
11, 51060, Note_on_c, 11, 69, 0
11, 51060, Note_on_c, 11, 67, 64
11, 51150, Note_on_c, 11, 67, 0
11, 51150, Note_on_c, 11, 66, 64
11, 51180, Note_on_c, 11, 66, 0
11, 51180, Note_on_c, 11, 65, 64
11, 51210, Note_on_c, 11, 65, 0
11, 51210, Note_on_c, 11, 66, 64
11, 51240, Note_on_c, 11, 66, 0
11, 51240, Note_on_c, 11, 65, 64
11, 51275, Note_on_c, 11, 65, 0
11, 51300, Note_on_c, 11, 74, 64
11, 51360, Note_on_c, 11, 74, 0
11, 51360, Note_on_c, 11, 73, 64
11, 51420, Note_on_c, 11, 73, 0
11, 51420, Note_on_c, 11, 71, 64
11, 51480, Note_on_c, 11, 71, 0
11, 51480, Note_on_c, 11, 69, 64
11, 51540, Note_on_c, 11, 69, 0
11, 51540, Note_on_c, 11, 68, 64
11, 51570, Note_on_c, 11, 68, 0
11, 51570, Note_on_c, 11, 66, 64
11, 51600, Note_on_c, 11, 66, 0
11, 51600, Note_on_c, 11, 73, 64
11, 51780, Note_on_c, 11, 73, 0
11, 51780, Note_on_c, 11, 66, 64
11, 51840, Note_on_c, 11, 66, 0
11, 51840, Note_on_c, 11, 71, 64
11, 51900, Note_on_c, 11, 71, 0
11, 51900, Note_on_c, 11, 69, 64
11, 51960, Note_on_c, 11, 69, 0
11, 51960, Note_on_c, 11, 68, 64
11, 52260, Note_on_c, 11, 68, 0
11, 52260, Note_on_c, 11, 61, 64
11, 52320, Note_on_c, 11, 61, 0
11, 52320, Note_on_c, 11, 66, 64
11, 52380, Note_on_c, 11, 66, 0
11, 52380, Note_on_c, 11, 64, 64
11, 52440, Note_on_c, 11, 64, 0
11, 52440, Note_on_c, 11, 62, 64
11, 52560, Note_on_c, 11, 62, 0
11, 52560, Note_on_c, 11, 61, 64
11, 52680, Note_on_c, 11, 61, 0
11, 52680, Note_on_c, 11, 59, 64
11, 52715, Note_on_c, 11, 59, 0
11, 52740, Note_on_c, 11, 68, 64
11, 52800, Note_on_c, 11, 68, 0
11, 52800, Note_on_c, 11, 69, 64
11, 52860, Note_on_c, 11, 69, 0
11, 52860, Note_on_c, 11, 71, 64
11, 52920, Note_on_c, 11, 71, 0
11, 52920, Note_on_c, 11, 73, 64
11, 52955, Note_on_c, 11, 73, 0
11, 52980, Note_on_c, 11, 74, 64
11, 53040, Note_on_c, 11, 74, 0
11, 53040, Note_on_c, 11, 73, 64
11, 53075, Note_on_c, 11, 73, 0
11, 53100, Note_on_c, 11, 66, 64
11, 53220, Note_on_c, 11, 66, 0
11, 53220, Note_on_c, 11, 65, 64
11, 53340, Note_on_c, 11, 65, 0
11, 53340, Note_on_c, 11, 66, 64
11, 53400, Note_on_c, 11, 66, 0
11, 53400, Note_on_c, 11, 68, 64
11, 53435, Note_on_c, 11, 68, 0
11, 53460, Note_on_c, 11, 71, 64
11, 53520, Note_on_c, 11, 71, 0
11, 53520, Note_on_c, 11, 69, 64
11, 53580, Note_on_c, 11, 69, 0
11, 53580, Note_on_c, 11, 68, 64
11, 53640, Note_on_c, 11, 68, 0
11, 53640, Note_on_c, 11, 66, 64
11, 53675, Note_on_c, 11, 66, 0
11, 53700, Note_on_c, 11, 74, 64
11, 53760, Note_on_c, 11, 74, 0
11, 53760, Note_on_c, 11, 73, 64
11, 53820, Note_on_c, 11, 73, 0
11, 53820, Note_on_c, 11, 71, 64
11, 53940, Note_on_c, 11, 71, 0
11, 53940, Note_on_c, 11, 69, 41
11, 53970, Note_on_c, 11, 69, 0
11, 53970, Note_on_c, 11, 71, 42
11, 54000, Note_on_c, 11, 71, 0
11, 54000, Note_on_c, 11, 72, 42
11, 54180, Note_on_c, 11, 72, 0
11, 54180, Note_on_c, 11, 64, 45
11, 54240, Note_on_c, 11, 64, 0
11, 54240, Note_on_c, 11, 63, 47
11, 54275, Note_on_c, 11, 63, 0
11, 54300, Note_on_c, 11, 69, 48
11, 54360, Note_on_c, 11, 69, 0
11, 54360, Note_on_c, 11, 67, 49
11, 54480, Note_on_c, 11, 67, 0
11, 54720, Note_on_c, 11, 73, 55
11, 54900, Note_on_c, 11, 73, 0
11, 54900, Note_on_c, 11, 71, 59
11, 54930, Note_on_c, 11, 71, 0
11, 54930, Note_on_c, 11, 73, 59
11, 54960, Note_on_c, 11, 73, 0
11, 54960, Note_on_c, 11, 74, 60
11, 55140, Note_on_c, 11, 74, 0
11, 55140, Note_on_c, 11, 66, 63
11, 55200, Note_on_c, 11, 66, 0
11, 55200, Note_on_c, 11, 65, 64
11, 55235, Note_on_c, 11, 65, 0
11, 55260, Note_on_c, 11, 71, 65
11, 55320, Note_on_c, 11, 71, 0
11, 55320, Note_on_c, 11, 69, 66
11, 55440, Note_on_c, 11, 69, 0
11, 55680, Note_on_c, 11, 75, 73
11, 55800, Note_on_c, 11, 75, 0
11, 55800, Note_on_c, 11, 76, 94
11, 55860, Note_on_c, 11, 76, 0
11, 55860, Note_on_c, 11, 71, 75
11, 55920, Note_on_c, 11, 71, 0
11, 55920, Note_on_c, 11, 70, 75
11, 55955, Note_on_c, 11, 70, 0
11, 55980, Note_on_c, 11, 73, 75
11, 56015, Note_on_c, 11, 73, 0
11, 56040, Note_on_c, 11, 66, 94
11, 56100, Note_on_c, 11, 66, 0
11, 56100, Note_on_c, 11, 71, 75
11, 56160, Note_on_c, 11, 71, 0
11, 56160, Note_on_c, 11, 73, 75
11, 56195, Note_on_c, 11, 73, 0
11, 56220, Note_on_c, 11, 65, 75
11, 56255, Note_on_c, 11, 65, 0
11, 56280, Note_on_c, 11, 66, 94
11, 56340, Note_on_c, 11, 66, 0
11, 56340, Note_on_c, 11, 70, 75
11, 56400, Note_on_c, 11, 70, 0
11, 56400, Note_on_c, 11, 71, 75
11, 56435, Note_on_c, 11, 71, 0
11, 56460, Note_on_c, 11, 63, 75
11, 56495, Note_on_c, 11, 63, 0
11, 56520, Note_on_c, 11, 64, 94
11, 56580, Note_on_c, 11, 64, 0
11, 56580, Note_on_c, 11, 68, 75
11, 56640, Note_on_c, 11, 68, 0
11, 56640, Note_on_c, 11, 69, 75
11, 56675, Note_on_c, 11, 69, 0
11, 56700, Note_on_c, 11, 64, 75
11, 56735, Note_on_c, 11, 64, 0
11, 56760, Note_on_c, 11, 62, 75
11, 56820, Note_on_c, 11, 62, 0
11, 56820, Note_on_c, 11, 66, 72
11, 56880, Note_on_c, 11, 66, 0
11, 56880, Note_on_c, 11, 71, 70
11, 57120, Note_on_c, 11, 71, 0
11, 57120, Note_on_c, 11, 70, 60
11, 57180, Note_on_c, 11, 70, 0
11, 57180, Note_on_c, 11, 73, 57
11, 57300, Note_on_c, 11, 73, 0
11, 57300, Note_on_c, 11, 66, 56
11, 57360, Note_on_c, 11, 66, 0
11, 57360, Note_on_c, 11, 71, 56
11, 57600, Note_on_c, 11, 71, 0
11, 57600, Note_on_c, 11, 70, 58
11, 57720, Note_on_c, 11, 70, 0
11, 57720, Note_on_c, 11, 71, 60
11, 58020, Note_on_c, 11, 71, 0
11, 58020, Note_on_c, 11, 69, 62
11, 58080, Note_on_c, 11, 69, 0
11, 58080, Note_on_c, 11, 67, 63
11, 58140, Note_on_c, 11, 67, 0
11, 58140, Note_on_c, 11, 66, 63
11, 58200, Note_on_c, 11, 66, 0
11, 58200, Note_on_c, 11, 64, 64
11, 58320, Note_on_c, 11, 64, 0
11, 58320, Note_on_c, 11, 73, 64
11, 58500, Note_on_c, 11, 73, 0
11, 58500, Note_on_c, 11, 66, 64
11, 58560, Note_on_c, 11, 66, 0
11, 58560, Note_on_c, 11, 71, 64
11, 58620, Note_on_c, 11, 71, 0
11, 58620, Note_on_c, 11, 69, 64
11, 58680, Note_on_c, 11, 69, 0
11, 58680, Note_on_c, 11, 67, 64
11, 58980, Note_on_c, 11, 67, 0
11, 58980, Note_on_c, 11, 61, 64
11, 59040, Note_on_c, 11, 61, 0
11, 59040, Note_on_c, 11, 66, 64
11, 59100, Note_on_c, 11, 66, 0
11, 59100, Note_on_c, 11, 64, 64
11, 59160, Note_on_c, 11, 64, 0
11, 59160, Note_on_c, 11, 62, 64
11, 59460, Note_on_c, 11, 62, 0
11, 59460, Note_on_c, 11, 70, 64
11, 59520, Note_on_c, 11, 70, 0
11, 59520, Note_on_c, 11, 71, 64
11, 59555, Note_on_c, 11, 71, 0
11, 59580, Note_on_c, 11, 62, 64
11, 59640, Note_on_c, 11, 62, 0
11, 59640, Note_on_c, 11, 64, 64
11, 59675, Note_on_c, 11, 64, 0
11, 59700, Note_on_c, 11, 70, 65
11, 59760, Note_on_c, 11, 70, 0
11, 59760, Note_on_c, 11, 71, 66
11, 59820, Note_on_c, 11, 71, 0
11, 59820, Note_on_c, 11, 73, 67
11, 59880, Note_on_c, 11, 73, 0
11, 59880, Note_on_c, 11, 66, 68
11, 59915, Note_on_c, 11, 66, 0
11, 59940, Note_on_c, 11, 70, 69
11, 60000, Note_on_c, 11, 70, 0
11, 60000, Note_on_c, 11, 71, 70
11, 60060, Note_on_c, 11, 71, 0
11, 60060, Note_on_c, 11, 67, 71
11, 60120, Note_on_c, 11, 67, 0
11, 60120, Note_on_c, 11, 62, 72
11, 60180, Note_on_c, 11, 62, 0
11, 60180, Note_on_c, 11, 61, 73
11, 60300, Note_on_c, 11, 61, 0
11, 60300, Note_on_c, 11, 62, 75
11, 60360, Note_on_c, 11, 62, 0
11, 60360, Note_on_c, 11, 64, 76
11, 60395, Note_on_c, 11, 64, 0
11, 60420, Note_on_c, 11, 67, 77
11, 60480, Note_on_c, 11, 67, 0
11, 60480, Note_on_c, 11, 66, 78
11, 60540, Note_on_c, 11, 66, 0
11, 60540, Note_on_c, 11, 64, 79
11, 60600, Note_on_c, 11, 64, 0
11, 60600, Note_on_c, 11, 62, 80
11, 60660, Note_on_c, 11, 62, 0
11, 60660, Note_on_c, 11, 67, 80
11, 60720, Note_on_c, 11, 67, 0
11, 60720, Note_on_c, 11, 61, 80
11, 60780, Note_on_c, 11, 61, 0
11, 60780, Note_on_c, 11, 66, 80
11, 60840, Note_on_c, 11, 66, 0
11, 60840, Note_on_c, 11, 63, 80
11, 61200, Note_on_c, 11, 63, 0
11, 61560, End_track
12, 0, Start_track
12, 0, MIDI_port, 0
12, 0, Title_t, "Violin I"
12, 0, Program_c, 10, 48
12, 480, Control_c, 10, 7, 100
12, 480, Note_on_c, 10, 86, 64
12, 660, Note_on_c, 10, 86, 0
12, 660, Note_on_c, 10, 86, 64
12, 720, Note_on_c, 10, 86, 0
12, 720, Note_on_c, 10, 85, 64
12, 840, Note_on_c, 10, 85, 0
12, 960, Note_on_c, 10, 78, 64
12, 1140, Note_on_c, 10, 78, 0
12, 1140, Note_on_c, 10, 83, 64
12, 1200, Note_on_c, 10, 83, 0
12, 1200, Note_on_c, 10, 83, 64
12, 1320, Note_on_c, 10, 83, 0
12, 1440, Note_on_c, 10, 85, 64
12, 1620, Note_on_c, 10, 85, 0
12, 1620, Note_on_c, 10, 85, 64
12, 1680, Note_on_c, 10, 85, 0
12, 1680, Note_on_c, 10, 86, 64
12, 1800, Note_on_c, 10, 86, 0
12, 1860, Note_on_c, 10, 78, 64
12, 1920, Note_on_c, 10, 78, 0
12, 1920, Note_on_c, 10, 83, 64
12, 1950, Note_on_c, 10, 83, 0
12, 1950, Note_on_c, 10, 81, 65
12, 1980, Note_on_c, 10, 81, 0
12, 1980, Note_on_c, 10, 79, 65
12, 2010, Note_on_c, 10, 79, 0
12, 2010, Note_on_c, 10, 78, 66
12, 2040, Note_on_c, 10, 78, 0
12, 2040, Note_on_c, 10, 76, 67
12, 2070, Note_on_c, 10, 76, 0
12, 2070, Note_on_c, 10, 74, 67
12, 2100, Note_on_c, 10, 74, 0
12, 2100, Note_on_c, 10, 73, 68
12, 2130, Note_on_c, 10, 73, 0
12, 2130, Note_on_c, 10, 71, 69
12, 2160, Note_on_c, 10, 71, 0
12, 2160, Note_on_c, 10, 73, 70
12, 2400, Note_on_c, 10, 73, 0
12, 2520, Control_c, 10, 7, 70
12, 2520, Note_on_c, 10, 71, 64
12, 2640, Note_on_c, 10, 71, 0
12, 2640, Note_on_c, 10, 83, 64
12, 2880, Note_on_c, 10, 83, 0
12, 2880, Note_on_c, 10, 82, 64
12, 3000, Note_on_c, 10, 82, 0
12, 3000, Note_on_c, 10, 83, 64
12, 3360, Note_on_c, 10, 83, 0
12, 3360, Note_on_c, 10, 76, 64
12, 3515, Note_on_c, 10, 76, 0
12, 3540, Note_on_c, 10, 70, 64
12, 3600, Note_on_c, 10, 70, 0
12, 3600, Note_on_c, 10, 71, 64
12, 3660, Note_on_c, 10, 71, 0
12, 3660, Note_on_c, 10, 73, 64
12, 3720, Note_on_c, 10, 73, 0
12, 3720, Note_on_c, 10, 74, 64
12, 3840, Note_on_c, 10, 74, 0
12, 3840, Note_on_c, 10, 73, 64
12, 3960, Note_on_c, 10, 73, 0
12, 3960, Note_on_c, 10, 71, 64
12, 4200, Note_on_c, 10, 71, 0
12, 4200, Note_on_c, 10, 69, 64
12, 4235, Note_on_c, 10, 69, 0
12, 4260, Note_on_c, 10, 68, 64
12, 4320, Note_on_c, 10, 68, 0
12, 4320, Note_on_c, 10, 70, 64
12, 4380, Note_on_c, 10, 70, 0
12, 4380, Note_on_c, 10, 73, 64
12, 4440, Note_on_c, 10, 73, 0
12, 4440, Note_on_c, 10, 78, 64
12, 4500, Note_on_c, 10, 78, 0
12, 4500, Note_on_c, 10, 70, 64
12, 4560, Note_on_c, 10, 70, 0
12, 4560, Note_on_c, 10, 71, 64
12, 4680, Note_on_c, 10, 71, 0
12, 4680, Note_on_c, 10, 71, 64
12, 4740, Note_on_c, 10, 71, 0
12, 4740, Note_on_c, 10, 69, 64
12, 4800, Note_on_c, 10, 69, 0
12, 4800, Note_on_c, 10, 68, 64
12, 4860, Note_on_c, 10, 68, 0
12, 4860, Note_on_c, 10, 73, 64
12, 4980, Note_on_c, 10, 73, 0
12, 4980, Note_on_c, 10, 71, 64
12, 5040, Note_on_c, 10, 71, 0
12, 5040, Note_on_c, 10, 69, 64
12, 5075, Note_on_c, 10, 69, 0
12, 5100, Note_on_c, 10, 73, 64
12, 5160, Note_on_c, 10, 73, 0
12, 5160, Note_on_c, 10, 74, 64
12, 5220, Note_on_c, 10, 74, 0
12, 5220, Note_on_c, 10, 73, 64
12, 5280, Note_on_c, 10, 73, 0
12, 5280, Note_on_c, 10, 71, 64
12, 5520, Note_on_c, 10, 71, 0
12, 5520, Note_on_c, 10, 73, 64
12, 5760, Note_on_c, 10, 73, 0
12, 5760, Note_on_c, 10, 71, 64
12, 5820, Note_on_c, 10, 71, 0
12, 5820, Note_on_c, 10, 73, 64
12, 5880, Note_on_c, 10, 73, 0
12, 5880, Note_on_c, 10, 74, 64
12, 5940, Note_on_c, 10, 74, 0
12, 5940, Note_on_c, 10, 68, 64
12, 6000, Note_on_c, 10, 68, 0
12, 6000, Note_on_c, 10, 69, 64
12, 6035, Note_on_c, 10, 69, 0
12, 6060, Note_on_c, 10, 78, 64
12, 6120, Note_on_c, 10, 78, 0
12, 6120, Note_on_c, 10, 77, 64
12, 6155, Note_on_c, 10, 77, 0
12, 6180, Note_on_c, 10, 71, 64
12, 6240, Note_on_c, 10, 71, 0
12, 6240, Note_on_c, 10, 69, 64
12, 6275, Note_on_c, 10, 69, 0
12, 6300, Note_on_c, 10, 68, 64
12, 6360, Note_on_c, 10, 68, 0
12, 6360, Note_on_c, 10, 66, 64
12, 6395, Note_on_c, 10, 66, 0
12, 6420, Note_on_c, 10, 71, 64
12, 6480, Note_on_c, 10, 71, 0
12, 6480, Note_on_c, 10, 69, 64
12, 6540, Note_on_c, 10, 69, 0
12, 6540, Note_on_c, 10, 68, 64
12, 6600, Note_on_c, 10, 68, 0
12, 6600, Note_on_c, 10, 69, 64
12, 6660, Note_on_c, 10, 69, 0
12, 6660, Note_on_c, 10, 71, 64
12, 6690, Note_on_c, 10, 71, 0
12, 6690, Note_on_c, 10, 73, 64
12, 6720, Note_on_c, 10, 73, 0
12, 6720, Note_on_c, 10, 74, 64
12, 6780, Note_on_c, 10, 74, 0
12, 6780, Note_on_c, 10, 73, 64
12, 6840, Note_on_c, 10, 73, 0
12, 6840, Note_on_c, 10, 71, 64
12, 6875, Note_on_c, 10, 71, 0
12, 6900, Note_on_c, 10, 77, 64
12, 6960, Note_on_c, 10, 77, 0
12, 6960, Note_on_c, 10, 78, 64
12, 7020, Note_on_c, 10, 78, 0
12, 7020, Note_on_c, 10, 80, 64
12, 7080, Note_on_c, 10, 80, 0
12, 7080, Note_on_c, 10, 73, 64
12, 7140, Note_on_c, 10, 73, 0
12, 7140, Note_on_c, 10, 78, 64
12, 7260, Note_on_c, 10, 78, 0
12, 7260, Note_on_c, 10, 77, 64
12, 7320, Note_on_c, 10, 77, 0
12, 7320, Note_on_c, 10, 78, 40
12, 7500, Note_on_c, 10, 78, 0
12, 7500, Note_on_c, 10, 76, 42
12, 7560, Note_on_c, 10, 76, 0
12, 7560, Note_on_c, 10, 75, 43
12, 7620, Note_on_c, 10, 75, 0
12, 7620, Note_on_c, 10, 73, 44
12, 7680, Note_on_c, 10, 73, 0
12, 7680, Note_on_c, 10, 71, 45
12, 7860, Note_on_c, 10, 71, 0
12, 7860, Note_on_c, 10, 73, 47
12, 7890, Note_on_c, 10, 73, 0
12, 7890, Note_on_c, 10, 75, 47
12, 7920, Note_on_c, 10, 75, 0
12, 7920, Note_on_c, 10, 76, 48
12, 8100, Note_on_c, 10, 76, 0
12, 8100, Note_on_c, 10, 74, 50
12, 8160, Note_on_c, 10, 74, 0
12, 8160, Note_on_c, 10, 74, 64
12, 8175, Note_on_c, 10, 74, 0
12, 8175, Note_on_c, 10, 73, 64
12, 8190, Note_on_c, 10, 73, 0
12, 8190, Note_on_c, 10, 74, 64
12, 8205, Note_on_c, 10, 74, 0
12, 8205, Note_on_c, 10, 73, 64
12, 8220, Note_on_c, 10, 73, 0
12, 8220, Note_on_c, 10, 74, 64
12, 8235, Note_on_c, 10, 74, 0
12, 8235, Note_on_c, 10, 73, 64
12, 8250, Note_on_c, 10, 73, 0
12, 8250, Note_on_c, 10, 71, 64
12, 8265, Note_on_c, 10, 71, 0
12, 8265, Note_on_c, 10, 73, 64
12, 8280, Note_on_c, 10, 73, 0
12, 8280, Note_on_c, 10, 74, 52
12, 8340, Note_on_c, 10, 74, 0
12, 8340, Note_on_c, 10, 76, 53
12, 8370, Note_on_c, 10, 76, 0
12, 8370, Note_on_c, 10, 78, 53
12, 8400, Note_on_c, 10, 78, 0
12, 8400, Note_on_c, 10, 71, 54
12, 8460, Note_on_c, 10, 71, 0
12, 8460, Note_on_c, 10, 83, 54
12, 8520, Note_on_c, 10, 83, 0
12, 8520, Note_on_c, 10, 77, 55
12, 8580, Note_on_c, 10, 77, 0
12, 8580, Note_on_c, 10, 78, 56
12, 8610, Note_on_c, 10, 78, 0
12, 8610, Note_on_c, 10, 80, 56
12, 8640, Note_on_c, 10, 80, 0
12, 8640, Note_on_c, 10, 73, 57
12, 8790, Note_on_c, 10, 73, 0
12, 8790, Note_on_c, 10, 71, 58
12, 8820, Note_on_c, 10, 71, 0
12, 8820, Note_on_c, 10, 69, 59
12, 8850, Note_on_c, 10, 69, 0
12, 8850, Note_on_c, 10, 68, 59
12, 8880, Note_on_c, 10, 68, 0
12, 8880, Note_on_c, 10, 66, 60
12, 9060, Note_on_c, 10, 66, 0
12, 9060, Note_on_c, 10, 76, 62
12, 9120, Note_on_c, 10, 76, 0
12, 9120, Note_on_c, 10, 75, 63
12, 9155, Note_on_c, 10, 75, 0
12, 9180, Note_on_c, 10, 78, 63
12, 9215, Note_on_c, 10, 78, 0
12, 9240, Note_on_c, 10, 80, 64
12, 9311, Note_on_c, 10, 80, 0
12, 9420, Note_on_c, 10, 79, 64
12, 9431, Note_on_c, 10, 79, 0
12, 9480, Note_on_c, 10, 78, 64
12, 9551, Note_on_c, 10, 78, 0
12, 9660, Note_on_c, 10, 80, 64
12, 9695, Note_on_c, 10, 80, 0
12, 9720, Note_on_c, 10, 82, 64
12, 9791, Note_on_c, 10, 82, 0
12, 9900, Note_on_c, 10, 78, 64
12, 9935, Note_on_c, 10, 78, 0
12, 9960, Note_on_c, 10, 80, 64
12, 10031, Note_on_c, 10, 80, 0
12, 10140, Note_on_c, 10, 76, 64
12, 10175, Note_on_c, 10, 76, 0
12, 10200, Note_on_c, 10, 78, 70
12, 10271, Note_on_c, 10, 78, 0
12, 10380, Note_on_c, 10, 78, 62
12, 10415, Note_on_c, 10, 78, 0
12, 10440, Note_on_c, 10, 76, 60
12, 10511, Note_on_c, 10, 76, 0
12, 10620, Note_on_c, 10, 73, 52
12, 10655, Note_on_c, 10, 73, 0
12, 10680, Note_on_c, 10, 74, 50
12, 10920, Note_on_c, 10, 74, 0
12, 10920, Note_on_c, 10, 73, 54
12, 11160, Note_on_c, 10, 73, 0
12, 11160, Note_on_c, 10, 71, 57
12, 11220, Note_on_c, 10, 71, 0
12, 11220, Note_on_c, 10, 83, 58
12, 11280, Note_on_c, 10, 83, 0
12, 11280, Note_on_c, 10, 81, 59
12, 11340, Note_on_c, 10, 81, 0
12, 11340, Note_on_c, 10, 79, 60
12, 11370, Note_on_c, 10, 79, 0
12, 11370, Note_on_c, 10, 78, 60
12, 11400, Note_on_c, 10, 78, 0
12, 11400, Note_on_c, 10, 79, 61
12, 11460, Note_on_c, 10, 79, 0
12, 11460, Note_on_c, 10, 78, 61
12, 11520, Note_on_c, 10, 78, 0
12, 11520, Note_on_c, 10, 76, 62
12, 11580, Note_on_c, 10, 76, 0
12, 11580, Note_on_c, 10, 74, 63
12, 11640, Note_on_c, 10, 74, 0
12, 11640, Note_on_c, 10, 73, 64
12, 11820, Note_on_c, 10, 73, 0
12, 11820, Note_on_c, 10, 71, 64
12, 11850, Note_on_c, 10, 71, 0
12, 11850, Note_on_c, 10, 73, 64
12, 11880, Note_on_c, 10, 73, 0
12, 11880, Note_on_c, 10, 74, 64
12, 11940, Note_on_c, 10, 74, 0
12, 11940, Note_on_c, 10, 76, 64
12, 12000, Note_on_c, 10, 76, 0
12, 12000, Note_on_c, 10, 78, 64
12, 12060, Note_on_c, 10, 78, 0
12, 12060, Note_on_c, 10, 74, 64
12, 12120, Note_on_c, 10, 74, 0
12, 12120, Note_on_c, 10, 71, 64
12, 12300, Note_on_c, 10, 71, 0
12, 12300, Note_on_c, 10, 70, 64
12, 12330, Note_on_c, 10, 70, 0
12, 12330, Note_on_c, 10, 71, 64
12, 12360, Note_on_c, 10, 71, 0
12, 12360, Note_on_c, 10, 73, 64
12, 12600, Note_on_c, 10, 73, 0
12, 12600, Note_on_c, 10, 74, 64
12, 12660, Note_on_c, 10, 74, 0
12, 12660, Note_on_c, 10, 73, 64
12, 12720, Note_on_c, 10, 73, 0
12, 12720, Note_on_c, 10, 71, 64
12, 12900, Note_on_c, 10, 71, 0
12, 12900, Note_on_c, 10, 61, 64
12, 12960, Note_on_c, 10, 61, 0
12, 12960, Note_on_c, 10, 62, 64
12, 12995, Note_on_c, 10, 62, 0
12, 13020, Note_on_c, 10, 71, 64
12, 13080, Note_on_c, 10, 71, 0
12, 13080, Note_on_c, 10, 70, 64
12, 13115, Note_on_c, 10, 70, 0
12, 13140, Note_on_c, 10, 76, 64
12, 13200, Note_on_c, 10, 76, 0
12, 13200, Note_on_c, 10, 74, 64
12, 13260, Note_on_c, 10, 74, 0
12, 13260, Note_on_c, 10, 73, 64
12, 13320, Note_on_c, 10, 73, 0
12, 13320, Note_on_c, 10, 71, 64
12, 13380, Note_on_c, 10, 71, 0
12, 13380, Note_on_c, 10, 64, 64
12, 13440, Note_on_c, 10, 64, 0
12, 13440, Note_on_c, 10, 62, 64
12, 13500, Note_on_c, 10, 62, 0
12, 13500, Note_on_c, 10, 61, 64
12, 13560, Note_on_c, 10, 61, 0
12, 13560, Note_on_c, 10, 62, 64
12, 13620, Note_on_c, 10, 62, 0
12, 13620, Note_on_c, 10, 64, 64
12, 13650, Note_on_c, 10, 64, 0
12, 13650, Note_on_c, 10, 66, 64
12, 13680, Note_on_c, 10, 66, 0
12, 13680, Note_on_c, 10, 67, 64
12, 13740, Note_on_c, 10, 67, 0
12, 13740, Note_on_c, 10, 66, 64
12, 13800, Note_on_c, 10, 66, 0
12, 13800, Note_on_c, 10, 64, 64
12, 13835, Note_on_c, 10, 64, 0
12, 13860, Note_on_c, 10, 70, 64
12, 13920, Note_on_c, 10, 70, 0
12, 13920, Note_on_c, 10, 71, 64
12, 13980, Note_on_c, 10, 71, 0
12, 13980, Note_on_c, 10, 73, 64
12, 14040, Note_on_c, 10, 73, 0
12, 14040, Note_on_c, 10, 74, 64
12, 14130, Note_on_c, 10, 74, 0
12, 14130, Note_on_c, 10, 73, 64
12, 14160, Note_on_c, 10, 73, 0
12, 14160, Note_on_c, 10, 74, 64
12, 14175, Note_on_c, 10, 74, 0
12, 14175, Note_on_c, 10, 73, 64
12, 14190, Note_on_c, 10, 73, 0
12, 14190, Note_on_c, 10, 74, 64
12, 14205, Note_on_c, 10, 74, 0
12, 14205, Note_on_c, 10, 73, 64
12, 14220, Note_on_c, 10, 73, 0
12, 14220, Note_on_c, 10, 74, 64
12, 14235, Note_on_c, 10, 74, 0
12, 14235, Note_on_c, 10, 73, 64
12, 14250, Note_on_c, 10, 73, 0
12, 14250, Note_on_c, 10, 71, 64
12, 14280, Note_on_c, 10, 71, 0
12, 14280, Note_on_c, 10, 71, 64
12, 14315, Note_on_c, 10, 71, 0
12, 14340, Note_on_c, 10, 73, 64
12, 14400, Note_on_c, 10, 73, 0
12, 14400, Note_on_c, 10, 71, 64
12, 14460, Note_on_c, 10, 71, 0
12, 14460, Note_on_c, 10, 70, 64
12, 14520, Note_on_c, 10, 70, 0
12, 14520, Note_on_c, 10, 71, 64
12, 14640, Note_on_c, 10, 71, 0
12, 24360, Note_on_c, 10, 73, 64
12, 24450, Note_on_c, 10, 73, 0
12, 24450, Note_on_c, 10, 73, 64
12, 24480, Note_on_c, 10, 73, 0
12, 24480, Note_on_c, 10, 73, 64
12, 24515, Note_on_c, 10, 73, 0
12, 24540, Note_on_c, 10, 73, 64
12, 24600, Note_on_c, 10, 73, 0
12, 24600, Note_on_c, 10, 75, 64
12, 24660, Note_on_c, 10, 75, 0
12, 24660, Note_on_c, 10, 69, 64
12, 24720, Note_on_c, 10, 69, 0
12, 24720, Note_on_c, 10, 68, 64
12, 24755, Note_on_c, 10, 68, 0
12, 24780, Note_on_c, 10, 75, 64
12, 24840, Note_on_c, 10, 75, 0
12, 24840, Note_on_c, 10, 76, 64
12, 24900, Note_on_c, 10, 76, 0
12, 24900, Note_on_c, 10, 69, 64
12, 24960, Note_on_c, 10, 69, 0
12, 24960, Note_on_c, 10, 68, 64
12, 24995, Note_on_c, 10, 68, 0
12, 25020, Note_on_c, 10, 77, 64
12, 25080, Note_on_c, 10, 77, 0
12, 25080, Note_on_c, 10, 78, 64
12, 25110, Note_on_c, 10, 78, 0
12, 25110, Note_on_c, 10, 76, 64
12, 25140, Note_on_c, 10, 76, 0
12, 25140, Note_on_c, 10, 74, 64
12, 25230, Note_on_c, 10, 74, 0
12, 25230, Note_on_c, 10, 73, 64
12, 25260, Note_on_c, 10, 73, 0
12, 25260, Note_on_c, 10, 72, 64
12, 25290, Note_on_c, 10, 72, 0
12, 25290, Note_on_c, 10, 73, 64
12, 25320, Note_on_c, 10, 73, 0
12, 25320, Note_on_c, 10, 72, 64
12, 25355, Note_on_c, 10, 72, 0
12, 25380, Note_on_c, 10, 81, 64
12, 25440, Note_on_c, 10, 81, 0
12, 25440, Note_on_c, 10, 80, 64
12, 25500, Note_on_c, 10, 80, 0
12, 25500, Note_on_c, 10, 78, 64
12, 25560, Note_on_c, 10, 78, 0
12, 25560, Note_on_c, 10, 76, 64
12, 25620, Note_on_c, 10, 76, 0
12, 25620, Note_on_c, 10, 75, 64
12, 25650, Note_on_c, 10, 75, 0
12, 25650, Note_on_c, 10, 73, 64
12, 25680, Note_on_c, 10, 73, 0
12, 25680, Note_on_c, 10, 80, 64
12, 25860, Note_on_c, 10, 80, 0
12, 25860, Note_on_c, 10, 73, 64
12, 25920, Note_on_c, 10, 73, 0
12, 25920, Note_on_c, 10, 78, 64
12, 25980, Note_on_c, 10, 78, 0
12, 25980, Note_on_c, 10, 76, 64
12, 26040, Note_on_c, 10, 76, 0
12, 26040, Note_on_c, 10, 75, 64
12, 26340, Note_on_c, 10, 75, 0
12, 26340, Note_on_c, 10, 68, 64
12, 26400, Note_on_c, 10, 68, 0
12, 26400, Note_on_c, 10, 73, 64
12, 26460, Note_on_c, 10, 73, 0
12, 26460, Note_on_c, 10, 71, 64
12, 26520, Note_on_c, 10, 71, 0
12, 26520, Note_on_c, 10, 69, 64
12, 26640, Note_on_c, 10, 69, 0
12, 26640, Note_on_c, 10, 68, 64
12, 26760, Note_on_c, 10, 68, 0
12, 26760, Note_on_c, 10, 66, 64
12, 26795, Note_on_c, 10, 66, 0
12, 26820, Note_on_c, 10, 75, 64
12, 26880, Note_on_c, 10, 75, 0
12, 26880, Note_on_c, 10, 76, 64
12, 26940, Note_on_c, 10, 76, 0
12, 26940, Note_on_c, 10, 78, 64
12, 27000, Note_on_c, 10, 78, 0
12, 27000, Note_on_c, 10, 80, 64
12, 27060, Note_on_c, 10, 80, 0
12, 27060, Note_on_c, 10, 81, 64
12, 27120, Note_on_c, 10, 81, 0
12, 27120, Note_on_c, 10, 80, 64
12, 27180, Note_on_c, 10, 80, 0
12, 27180, Note_on_c, 10, 73, 64
12, 27300, Note_on_c, 10, 73, 0
12, 27300, Note_on_c, 10, 72, 64
12, 27420, Note_on_c, 10, 72, 0
12, 27420, Note_on_c, 10, 73, 64
12, 27480, Note_on_c, 10, 73, 0
12, 27480, Note_on_c, 10, 75, 64
12, 27515, Note_on_c, 10, 75, 0
12, 27540, Note_on_c, 10, 78, 64
12, 27600, Note_on_c, 10, 78, 0
12, 27600, Note_on_c, 10, 76, 64
12, 27660, Note_on_c, 10, 76, 0
12, 27660, Note_on_c, 10, 75, 64
12, 27720, Note_on_c, 10, 75, 0
12, 27720, Note_on_c, 10, 73, 64
12, 27780, Note_on_c, 10, 73, 0
12, 27780, Note_on_c, 10, 81, 64
12, 27840, Note_on_c, 10, 81, 0
12, 27840, Note_on_c, 10, 80, 64
12, 27900, Note_on_c, 10, 80, 0
12, 27900, Note_on_c, 10, 78, 64
12, 28020, Note_on_c, 10, 78, 0
12, 28020, Note_on_c, 10, 76, 41
12, 28050, Note_on_c, 10, 76, 0
12, 28050, Note_on_c, 10, 78, 41
12, 28080, Note_on_c, 10, 78, 0
12, 28080, Note_on_c, 10, 79, 42
12, 28260, Note_on_c, 10, 79, 0
12, 28260, Note_on_c, 10, 71, 44
12, 28320, Note_on_c, 10, 71, 0
12, 28320, Note_on_c, 10, 70, 45
12, 28355, Note_on_c, 10, 70, 0
12, 28380, Note_on_c, 10, 76, 45
12, 28440, Note_on_c, 10, 76, 0
12, 28440, Note_on_c, 10, 74, 46
12, 28560, Note_on_c, 10, 74, 0
12, 28800, Note_on_c, 10, 80, 51
12, 28980, Note_on_c, 10, 80, 0
12, 28980, Note_on_c, 10, 78, 53
12, 29010, Note_on_c, 10, 78, 0
12, 29010, Note_on_c, 10, 80, 53
12, 29040, Note_on_c, 10, 80, 0
12, 29040, Note_on_c, 10, 81, 54
12, 29220, Note_on_c, 10, 81, 0
12, 29220, Note_on_c, 10, 73, 56
12, 29280, Note_on_c, 10, 73, 0
12, 29280, Note_on_c, 10, 72, 57
12, 29315, Note_on_c, 10, 72, 0
12, 29340, Note_on_c, 10, 78, 57
12, 29400, Note_on_c, 10, 78, 0
12, 29400, Note_on_c, 10, 76, 58
12, 29520, Note_on_c, 10, 76, 0
12, 29760, Note_on_c, 10, 82, 63
12, 29880, Note_on_c, 10, 82, 0
12, 29880, Note_on_c, 10, 83, 94
12, 29940, Note_on_c, 10, 83, 0
12, 29940, Note_on_c, 10, 78, 75
12, 30000, Note_on_c, 10, 78, 0
12, 30000, Note_on_c, 10, 77, 75
12, 30035, Note_on_c, 10, 77, 0
12, 30060, Note_on_c, 10, 80, 75
12, 30095, Note_on_c, 10, 80, 0
12, 30120, Note_on_c, 10, 73, 94
12, 30180, Note_on_c, 10, 73, 0
12, 30180, Note_on_c, 10, 78, 75
12, 30240, Note_on_c, 10, 78, 0
12, 30240, Note_on_c, 10, 80, 75
12, 30275, Note_on_c, 10, 80, 0
12, 30300, Note_on_c, 10, 72, 75
12, 30335, Note_on_c, 10, 72, 0
12, 30360, Note_on_c, 10, 73, 94
12, 30420, Note_on_c, 10, 73, 0
12, 30420, Note_on_c, 10, 77, 75
12, 30480, Note_on_c, 10, 77, 0
12, 30480, Note_on_c, 10, 78, 75
12, 30515, Note_on_c, 10, 78, 0
12, 30540, Note_on_c, 10, 70, 75
12, 30575, Note_on_c, 10, 70, 0
12, 30600, Note_on_c, 10, 71, 94
12, 30660, Note_on_c, 10, 71, 0
12, 30660, Note_on_c, 10, 75, 75
12, 30720, Note_on_c, 10, 75, 0
12, 30720, Note_on_c, 10, 76, 75
12, 30755, Note_on_c, 10, 76, 0
12, 30780, Note_on_c, 10, 68, 75
12, 30815, Note_on_c, 10, 68, 0
12, 30840, Note_on_c, 10, 69, 64
12, 30900, Note_on_c, 10, 69, 0
12, 30900, Note_on_c, 10, 73, 64
12, 30960, Note_on_c, 10, 73, 0
12, 30960, Note_on_c, 10, 78, 64
12, 31200, Note_on_c, 10, 78, 0
12, 31200, Note_on_c, 10, 77, 64
12, 31235, Note_on_c, 10, 77, 0
12, 31260, Note_on_c, 10, 80, 64
12, 31380, Note_on_c, 10, 80, 0
12, 31380, Note_on_c, 10, 73, 64
12, 31440, Note_on_c, 10, 73, 0
12, 31440, Note_on_c, 10, 78, 64
12, 31680, Note_on_c, 10, 78, 0
12, 31680, Note_on_c, 10, 77, 64
12, 31800, Note_on_c, 10, 77, 0
12, 31800, Note_on_c, 10, 78, 64
12, 32100, Note_on_c, 10, 78, 0
12, 32100, Note_on_c, 10, 76, 64
12, 32160, Note_on_c, 10, 76, 0
12, 32160, Note_on_c, 10, 74, 64
12, 32220, Note_on_c, 10, 74, 0
12, 32220, Note_on_c, 10, 73, 64
12, 32280, Note_on_c, 10, 73, 0
12, 32280, Note_on_c, 10, 71, 64
12, 32400, Note_on_c, 10, 71, 0
12, 32400, Note_on_c, 10, 80, 64
12, 32580, Note_on_c, 10, 80, 0
12, 32580, Note_on_c, 10, 73, 64
12, 32640, Note_on_c, 10, 73, 0
12, 32640, Note_on_c, 10, 78, 64
12, 32700, Note_on_c, 10, 78, 0
12, 32700, Note_on_c, 10, 76, 64
12, 32760, Note_on_c, 10, 76, 0
12, 32760, Note_on_c, 10, 74, 64
12, 33060, Note_on_c, 10, 74, 0
12, 33060, Note_on_c, 10, 68, 64
12, 33120, Note_on_c, 10, 68, 0
12, 33120, Note_on_c, 10, 73, 64
12, 33180, Note_on_c, 10, 73, 0
12, 33180, Note_on_c, 10, 71, 64
12, 33240, Note_on_c, 10, 71, 0
12, 33240, Note_on_c, 10, 69, 64
12, 33540, Note_on_c, 10, 69, 0
12, 33540, Note_on_c, 10, 77, 64
12, 33600, Note_on_c, 10, 77, 0
12, 33600, Note_on_c, 10, 78, 64
12, 33635, Note_on_c, 10, 78, 0
12, 33660, Note_on_c, 10, 69, 64
12, 33720, Note_on_c, 10, 69, 0
12, 33720, Note_on_c, 10, 68, 64
12, 33755, Note_on_c, 10, 68, 0
12, 33780, Note_on_c, 10, 77, 64
12, 33840, Note_on_c, 10, 77, 0
12, 33840, Note_on_c, 10, 78, 64
12, 33900, Note_on_c, 10, 78, 0
12, 33900, Note_on_c, 10, 80, 64
12, 33960, Note_on_c, 10, 80, 0
12, 33960, Note_on_c, 10, 73, 64
12, 33995, Note_on_c, 10, 73, 0
12, 34020, Note_on_c, 10, 65, 64
12, 34080, Note_on_c, 10, 65, 0
12, 34080, Note_on_c, 10, 66, 64
12, 34115, Note_on_c, 10, 66, 0
12, 34140, Note_on_c, 10, 74, 64
12, 34200, Note_on_c, 10, 74, 0
12, 34200, Note_on_c, 10, 69, 64
12, 34260, Note_on_c, 10, 69, 0
12, 34260, Note_on_c, 10, 68, 64
12, 34380, Note_on_c, 10, 68, 0
12, 34380, Note_on_c, 10, 69, 64
12, 34440, Note_on_c, 10, 69, 0
12, 34440, Note_on_c, 10, 71, 64
12, 34475, Note_on_c, 10, 71, 0
12, 34500, Note_on_c, 10, 74, 64
12, 34560, Note_on_c, 10, 74, 0
12, 34560, Note_on_c, 10, 73, 64
12, 34620, Note_on_c, 10, 73, 0
12, 34620, Note_on_c, 10, 71, 64
12, 34680, Note_on_c, 10, 71, 0
12, 34680, Note_on_c, 10, 69, 64
12, 34800, Note_on_c, 10, 69, 0
12, 34800, Note_on_c, 10, 68, 64
12, 34920, Note_on_c, 10, 68, 0
12, 34920, Note_on_c, 10, 66, 64
12, 35040, Note_on_c, 10, 66, 0
12, 36060, Note_on_c, 10, 77, 64
12, 36095, Note_on_c, 10, 77, 0
12, 36120, Note_on_c, 10, 78, 83
12, 36180, Note_on_c, 10, 78, 0
12, 36180, Note_on_c, 10, 73, 64
12, 36240, Note_on_c, 10, 73, 0
12, 36240, Note_on_c, 10, 72, 64
12, 36275, Note_on_c, 10, 72, 0
12, 36300, Note_on_c, 10, 78, 64
12, 36335, Note_on_c, 10, 78, 0
12, 36360, Note_on_c, 10, 77, 83
12, 36420, Note_on_c, 10, 77, 0
12, 36420, Note_on_c, 10, 71, 64
12, 36480, Note_on_c, 10, 71, 0
12, 36480, Note_on_c, 10, 70, 64
12, 36515, Note_on_c, 10, 70, 0
12, 36540, Note_on_c, 10, 76, 64
12, 36575, Note_on_c, 10, 76, 0
12, 36600, Note_on_c, 10, 75, 64
12, 36660, Note_on_c, 10, 75, 0
12, 36660, Note_on_c, 10, 69, 64
12, 36720, Note_on_c, 10, 69, 0
12, 36720, Note_on_c, 10, 68, 64
12, 36755, Note_on_c, 10, 68, 0
12, 36780, Note_on_c, 10, 74, 64
12, 36840, Note_on_c, 10, 74, 0
12, 36840, Note_on_c, 10, 73, 64
12, 36900, Note_on_c, 10, 73, 0
12, 36900, Note_on_c, 10, 76, 64
12, 36960, Note_on_c, 10, 76, 0
12, 36960, Note_on_c, 10, 81, 64
12, 37200, Note_on_c, 10, 81, 0
12, 37200, Note_on_c, 10, 80, 64
12, 37320, Note_on_c, 10, 80, 0
12, 37320, Note_on_c, 10, 81, 64
12, 37440, Note_on_c, 10, 81, 0
12, 37440, Note_on_c, 10, 79, 64
12, 37560, Note_on_c, 10, 79, 0
12, 37560, Note_on_c, 10, 78, 64
12, 37830, Note_on_c, 10, 78, 0
12, 37830, Note_on_c, 10, 76, 64
12, 37860, Note_on_c, 10, 76, 0
12, 37860, Note_on_c, 10, 74, 64
12, 37950, Note_on_c, 10, 74, 0
12, 37950, Note_on_c, 10, 73, 64
12, 37980, Note_on_c, 10, 73, 0
12, 37980, Note_on_c, 10, 71, 64
12, 38010, Note_on_c, 10, 71, 0
12, 38010, Note_on_c, 10, 73, 64
12, 38040, Note_on_c, 10, 73, 0
12, 38040, Note_on_c, 10, 69, 64
12, 38075, Note_on_c, 10, 69, 0
12, 38100, Note_on_c, 10, 73, 64
12, 38135, Note_on_c, 10, 73, 0
12, 38160, Note_on_c, 10, 71, 64
12, 38231, Note_on_c, 10, 71, 0
12, 38340, Note_on_c, 10, 71, 64
12, 38375, Note_on_c, 10, 71, 0
12, 38400, Note_on_c, 10, 69, 64
12, 38471, Note_on_c, 10, 69, 0
12, 38580, Note_on_c, 10, 69, 64
12, 38615, Note_on_c, 10, 69, 0
12, 38640, Note_on_c, 10, 67, 64
12, 38711, Note_on_c, 10, 67, 0
12, 38820, Note_on_c, 10, 74, 64
12, 38855, Note_on_c, 10, 74, 0
12, 38880, Note_on_c, 10, 73, 64
12, 38951, Note_on_c, 10, 73, 0
12, 39060, Note_on_c, 10, 78, 64
12, 39120, Note_on_c, 10, 78, 0
12, 39120, Note_on_c, 10, 76, 64
12, 39180, Note_on_c, 10, 76, 0
12, 39180, Note_on_c, 10, 74, 64
12, 39240, Note_on_c, 10, 74, 0
12, 39240, Note_on_c, 10, 73, 64
12, 39480, Note_on_c, 10, 73, 0
12, 39480, Note_on_c, 10, 71, 64
12, 39780, Note_on_c, 10, 71, 0
12, 39780, Note_on_c, 10, 69, 64
12, 39840, Note_on_c, 10, 69, 0
12, 39840, Note_on_c, 10, 67, 64
12, 39900, Note_on_c, 10, 67, 0
12, 39900, Note_on_c, 10, 66, 64
12, 39960, Note_on_c, 10, 66, 0
12, 39960, Note_on_c, 10, 64, 64
12, 39995, Note_on_c, 10, 64, 0
12, 40020, Note_on_c, 10, 61, 64
12, 40080, Note_on_c, 10, 61, 0
12, 40080, Note_on_c, 10, 62, 64
12, 40140, Note_on_c, 10, 62, 0
12, 40140, Note_on_c, 10, 64, 64
12, 40200, Note_on_c, 10, 64, 0
12, 40200, Note_on_c, 10, 66, 64
12, 40380, Note_on_c, 10, 66, 0
12, 40380, Note_on_c, 10, 65, 64
12, 40410, Note_on_c, 10, 65, 0
12, 40410, Note_on_c, 10, 66, 64
12, 40440, Note_on_c, 10, 66, 0
12, 40440, Note_on_c, 10, 62, 64
12, 40560, Note_on_c, 10, 62, 0
12, 40620, Note_on_c, 10, 61, 64
12, 40680, Note_on_c, 10, 61, 0
12, 40680, Note_on_c, 10, 66, 64
12, 40800, Note_on_c, 10, 66, 0
12, 40860, Note_on_c, 10, 66, 64
12, 40920, Note_on_c, 10, 66, 0
12, 40920, Note_on_c, 10, 78, 64
12, 41040, Note_on_c, 10, 78, 0
12, 41100, Note_on_c, 10, 71, 64
12, 41220, Note_on_c, 10, 71, 0
12, 41220, Note_on_c, 10, 65, 64
12, 41280, Note_on_c, 10, 65, 0
12, 41280, Note_on_c, 10, 66, 64
12, 41340, Note_on_c, 10, 66, 0
12, 41340, Note_on_c, 10, 68, 64
12, 41400, Note_on_c, 10, 68, 0
12, 41400, Note_on_c, 10, 69, 64
12, 41520, Note_on_c, 10, 69, 0
12, 41580, Note_on_c, 10, 78, 64
12, 41640, Note_on_c, 10, 78, 0
12, 41640, Note_on_c, 10, 76, 64
12, 41760, Note_on_c, 10, 76, 0
12, 41820, Note_on_c, 10, 76, 64
12, 41880, Note_on_c, 10, 76, 0
12, 41880, Note_on_c, 10, 76, 64
12, 42000, Note_on_c, 10, 76, 0
12, 42060, Note_on_c, 10, 76, 64
12, 42120, Note_on_c, 10, 76, 0
12, 42120, Note_on_c, 10, 74, 64
12, 42240, Note_on_c, 10, 74, 0
12, 42300, Note_on_c, 10, 74, 64
12, 42360, Note_on_c, 10, 74, 0
12, 42360, Note_on_c, 10, 74, 64
12, 42480, Note_on_c, 10, 74, 0
12, 42540, Note_on_c, 10, 74, 64
12, 42600, Note_on_c, 10, 74, 0
12, 42600, Note_on_c, 10, 73, 64
12, 42720, Note_on_c, 10, 73, 0
12, 42780, Note_on_c, 10, 73, 64
12, 42840, Note_on_c, 10, 73, 0
12, 42840, Note_on_c, 10, 71, 64
12, 42960, Note_on_c, 10, 71, 0
12, 43020, Note_on_c, 10, 71, 64
12, 43080, Note_on_c, 10, 71, 0
12, 43080, Note_on_c, 10, 71, 64
12, 43200, Note_on_c, 10, 71, 0
12, 43260, Note_on_c, 10, 73, 64
12, 43320, Note_on_c, 10, 73, 0
12, 43320, Note_on_c, 10, 73, 64
12, 43440, Note_on_c, 10, 73, 0
12, 43500, Note_on_c, 10, 73, 64
12, 43560, Note_on_c, 10, 73, 0
12, 43560, Note_on_c, 10, 66, 64
12, 43650, Note_on_c, 10, 66, 0
12, 43650, Note_on_c, 10, 66, 64
12, 43680, Note_on_c, 10, 66, 0
12, 43680, Note_on_c, 10, 66, 64
12, 43715, Note_on_c, 10, 66, 0
12, 43740, Note_on_c, 10, 66, 64
12, 43800, Note_on_c, 10, 66, 0
12, 43800, Note_on_c, 10, 68, 64
12, 43860, Note_on_c, 10, 68, 0
12, 43860, Note_on_c, 10, 62, 64
12, 43920, Note_on_c, 10, 62, 0
12, 43920, Note_on_c, 10, 61, 64
12, 43955, Note_on_c, 10, 61, 0
12, 43980, Note_on_c, 10, 68, 64
12, 44040, Note_on_c, 10, 68, 0
12, 44040, Note_on_c, 10, 69, 64
12, 44100, Note_on_c, 10, 69, 0
12, 44100, Note_on_c, 10, 62, 64
12, 44160, Note_on_c, 10, 62, 0
12, 44160, Note_on_c, 10, 61, 64
12, 44195, Note_on_c, 10, 61, 0
12, 44220, Note_on_c, 10, 70, 64
12, 44280, Note_on_c, 10, 70, 0
12, 44280, Note_on_c, 10, 71, 64
12, 44310, Note_on_c, 10, 71, 0
12, 44310, Note_on_c, 10, 69, 64
12, 44340, Note_on_c, 10, 69, 0
12, 44340, Note_on_c, 10, 67, 64
12, 44430, Note_on_c, 10, 67, 0
12, 44430, Note_on_c, 10, 66, 64
12, 44460, Note_on_c, 10, 66, 0
12, 44460, Note_on_c, 10, 65, 64
12, 44490, Note_on_c, 10, 65, 0
12, 44490, Note_on_c, 10, 66, 64
12, 44520, Note_on_c, 10, 66, 0
12, 44520, Note_on_c, 10, 65, 64
12, 44555, Note_on_c, 10, 65, 0
12, 44580, Note_on_c, 10, 74, 64
12, 44640, Note_on_c, 10, 74, 0
12, 44640, Note_on_c, 10, 73, 64
12, 44700, Note_on_c, 10, 73, 0
12, 44700, Note_on_c, 10, 71, 64
12, 44760, Note_on_c, 10, 71, 0
12, 44760, Note_on_c, 10, 69, 64
12, 44820, Note_on_c, 10, 69, 0
12, 44820, Note_on_c, 10, 68, 64
12, 44850, Note_on_c, 10, 68, 0
12, 44850, Note_on_c, 10, 66, 64
12, 44880, Note_on_c, 10, 66, 0
12, 44880, Note_on_c, 10, 74, 64
12, 45060, Note_on_c, 10, 74, 0
12, 45060, Note_on_c, 10, 69, 64
12, 45120, Note_on_c, 10, 69, 0
12, 45120, Note_on_c, 10, 68, 64
12, 45180, Note_on_c, 10, 68, 0
12, 45180, Note_on_c, 10, 74, 64
12, 45240, Note_on_c, 10, 74, 0
12, 45240, Note_on_c, 10, 73, 64
12, 45300, Note_on_c, 10, 73, 0
12, 45300, Note_on_c, 10, 71, 64
12, 45330, Note_on_c, 10, 71, 0
12, 45330, Note_on_c, 10, 69, 64
12, 45360, Note_on_c, 10, 69, 0
12, 45360, Note_on_c, 10, 76, 64
12, 45540, Note_on_c, 10, 76, 0
12, 45540, Note_on_c, 10, 71, 64
12, 45600, Note_on_c, 10, 71, 0
12, 45600, Note_on_c, 10, 70, 64
12, 45660, Note_on_c, 10, 70, 0
12, 45660, Note_on_c, 10, 76, 64
12, 45720, Note_on_c, 10, 76, 0
12, 45720, Note_on_c, 10, 74, 64
12, 45780, Note_on_c, 10, 74, 0
12, 45780, Note_on_c, 10, 73, 64
12, 45840, Note_on_c, 10, 73, 0
12, 45840, Note_on_c, 10, 71, 64
12, 45900, Note_on_c, 10, 71, 0
12, 45900, Note_on_c, 10, 69, 64
12, 45960, Note_on_c, 10, 69, 0
12, 45960, Note_on_c, 10, 68, 64
12, 46020, Note_on_c, 10, 68, 0
12, 46020, Note_on_c, 10, 69, 64
12, 46050, Note_on_c, 10, 69, 0
12, 46050, Note_on_c, 10, 71, 64
12, 46080, Note_on_c, 10, 71, 0
12, 46080, Note_on_c, 10, 73, 64
12, 46260, Note_on_c, 10, 73, 0
12, 46260, Note_on_c, 10, 71, 64
12, 46320, Note_on_c, 10, 71, 0
12, 46320, Note_on_c, 10, 69, 64
12, 46380, Note_on_c, 10, 69, 0
12, 46380, Note_on_c, 10, 67, 64
12, 46440, Note_on_c, 10, 67, 0
12, 46440, Note_on_c, 10, 66, 64
12, 46500, Note_on_c, 10, 66, 0
12, 46500, Note_on_c, 10, 67, 64
12, 46530, Note_on_c, 10, 67, 0
12, 46530, Note_on_c, 10, 69, 64
12, 46560, Note_on_c, 10, 69, 0
12, 46560, Note_on_c, 10, 71, 64
12, 46740, Note_on_c, 10, 71, 0
12, 46740, Note_on_c, 10, 73, 64
12, 46770, Note_on_c, 10, 73, 0
12, 46770, Note_on_c, 10, 75, 64
12, 46800, Note_on_c, 10, 75, 0
12, 46800, Note_on_c, 10, 76, 64
12, 47040, Note_on_c, 10, 76, 0
12, 47040, Note_on_c, 10, 75, 64
12, 47160, Note_on_c, 10, 75, 0
12, 47160, Note_on_c, 10, 76, 64
12, 47220, Note_on_c, 10, 76, 0
12, 47220, Note_on_c, 10, 69, 64
12, 47280, Note_on_c, 10, 69, 0
12, 47280, Note_on_c, 10, 68, 64
12, 47315, Note_on_c, 10, 68, 0
12, 47340, Note_on_c, 10, 64, 64
12, 47400, Note_on_c, 10, 64, 0
12, 47400, Note_on_c, 10, 69, 64
12, 47760, Note_on_c, 10, 69, 0
12, 47760, Note_on_c, 10, 67, 65
12, 47820, Note_on_c, 10, 67, 0
12, 47820, Note_on_c, 10, 66, 66
12, 47880, Note_on_c, 10, 66, 0
12, 47880, Note_on_c, 10, 64, 67
12, 47940, Note_on_c, 10, 64, 0
12, 47940, Note_on_c, 10, 66, 67
12, 48000, Note_on_c, 10, 66, 0
12, 48000, Note_on_c, 10, 68, 68
12, 48060, Note_on_c, 10, 68, 0
12, 48060, Note_on_c, 10, 69, 69
12, 48120, Note_on_c, 10, 69, 0
12, 48120, Note_on_c, 10, 71, 69
12, 48180, Note_on_c, 10, 71, 0
12, 48180, Note_on_c, 10, 73, 70
12, 48240, Note_on_c, 10, 73, 0
12, 48240, Note_on_c, 10, 74, 71
12, 48300, Note_on_c, 10, 74, 0
12, 48300, Note_on_c, 10, 68, 71
12, 48360, Note_on_c, 10, 68, 0
12, 48360, Note_on_c, 10, 69, 72
12, 48480, Note_on_c, 10, 69, 0
12, 48540, Note_on_c, 10, 71, 74
12, 48600, Note_on_c, 10, 71, 0
12, 48600, Note_on_c, 10, 73, 75
12, 48660, Note_on_c, 10, 73, 0
12, 48660, Note_on_c, 10, 74, 75
12, 48720, Note_on_c, 10, 74, 0
12, 48720, Note_on_c, 10, 76, 76
12, 48780, Note_on_c, 10, 76, 0
12, 48780, Note_on_c, 10, 70, 77
12, 48840, Note_on_c, 10, 70, 0
12, 48840, Note_on_c, 10, 71, 77
12, 48960, Note_on_c, 10, 71, 0
12, 49080, Note_on_c, 10, 71, 80
12, 49170, Note_on_c, 10, 71, 0
12, 49170, Note_on_c, 10, 71, 78
12, 49200, Note_on_c, 10, 71, 0
12, 49200, Note_on_c, 10, 71, 77
12, 49235, Note_on_c, 10, 71, 0
12, 49260, Note_on_c, 10, 71, 76
12, 49320, Note_on_c, 10, 71, 0
12, 49320, Note_on_c, 10, 73, 75
12, 49380, Note_on_c, 10, 73, 0
12, 49380, Note_on_c, 10, 67, 74
12, 49440, Note_on_c, 10, 67, 0
12, 49440, Note_on_c, 10, 66, 72
12, 49475, Note_on_c, 10, 66, 0
12, 49500, Note_on_c, 10, 73, 71
12, 49560, Note_on_c, 10, 73, 0
12, 49560, Note_on_c, 10, 74, 64
12, 49620, Note_on_c, 10, 74, 0
12, 49620, Note_on_c, 10, 67, 64
12, 49680, Note_on_c, 10, 67, 0
12, 49680, Note_on_c, 10, 66, 64
12, 49715, Note_on_c, 10, 66, 0
12, 49740, Note_on_c, 10, 75, 64
12, 49800, Note_on_c, 10, 75, 0
12, 49800, Note_on_c, 10, 76, 64
12, 49830, Note_on_c, 10, 76, 0
12, 49830, Note_on_c, 10, 74, 64
12, 49860, Note_on_c, 10, 74, 0
12, 49860, Note_on_c, 10, 72, 64
12, 49950, Note_on_c, 10, 72, 0
12, 49950, Note_on_c, 10, 71, 64
12, 49980, Note_on_c, 10, 71, 0
12, 49980, Note_on_c, 10, 70, 64
12, 50010, Note_on_c, 10, 70, 0
12, 50010, Note_on_c, 10, 71, 64
12, 50040, Note_on_c, 10, 71, 0
12, 50040, Note_on_c, 10, 70, 64
12, 50075, Note_on_c, 10, 70, 0
12, 50100, Note_on_c, 10, 79, 64
12, 50160, Note_on_c, 10, 79, 0
12, 50160, Note_on_c, 10, 78, 64
12, 50220, Note_on_c, 10, 78, 0
12, 50220, Note_on_c, 10, 76, 64
12, 50280, Note_on_c, 10, 76, 0
12, 50280, Note_on_c, 10, 74, 64
12, 50340, Note_on_c, 10, 74, 0
12, 50340, Note_on_c, 10, 73, 64
12, 50370, Note_on_c, 10, 73, 0
12, 50370, Note_on_c, 10, 71, 64
12, 50400, Note_on_c, 10, 71, 0
12, 50400, Note_on_c, 10, 78, 64
12, 50640, Note_on_c, 10, 78, 0
12, 50640, Note_on_c, 10, 77, 64
12, 50760, Note_on_c, 10, 77, 0
12, 50760, Note_on_c, 10, 78, 64
12, 51060, Note_on_c, 10, 78, 0
12, 51060, Note_on_c, 10, 76, 64
12, 51120, Note_on_c, 10, 76, 0
12, 51120, Note_on_c, 10, 74, 64
12, 51180, Note_on_c, 10, 74, 0
12, 51180, Note_on_c, 10, 73, 64
12, 51240, Note_on_c, 10, 73, 0
12, 51240, Note_on_c, 10, 71, 64
12, 51360, Note_on_c, 10, 71, 0
12, 51360, Note_on_c, 10, 80, 64
12, 51540, Note_on_c, 10, 80, 0
12, 51540, Note_on_c, 10, 73, 64
12, 51600, Note_on_c, 10, 73, 0
12, 51600, Note_on_c, 10, 78, 64
12, 51660, Note_on_c, 10, 78, 0
12, 51660, Note_on_c, 10, 76, 64
12, 51720, Note_on_c, 10, 76, 0
12, 51720, Note_on_c, 10, 74, 64
12, 52020, Note_on_c, 10, 74, 0
12, 52020, Note_on_c, 10, 68, 64
12, 52080, Note_on_c, 10, 68, 0
12, 52080, Note_on_c, 10, 73, 64
12, 52140, Note_on_c, 10, 73, 0
12, 52140, Note_on_c, 10, 71, 64
12, 52200, Note_on_c, 10, 71, 0
12, 52200, Note_on_c, 10, 69, 64
12, 52500, Note_on_c, 10, 69, 0
12, 52500, Note_on_c, 10, 77, 64
12, 52560, Note_on_c, 10, 77, 0
12, 52560, Note_on_c, 10, 78, 64
12, 52595, Note_on_c, 10, 78, 0
12, 52620, Note_on_c, 10, 69, 64
12, 52680, Note_on_c, 10, 69, 0
12, 52680, Note_on_c, 10, 68, 64
12, 52715, Note_on_c, 10, 68, 0
12, 52740, Note_on_c, 10, 77, 64
12, 52800, Note_on_c, 10, 77, 0
12, 52800, Note_on_c, 10, 78, 64
12, 52860, Note_on_c, 10, 78, 0
12, 52860, Note_on_c, 10, 80, 64
12, 52920, Note_on_c, 10, 80, 0
12, 52920, Note_on_c, 10, 73, 64
12, 52980, Note_on_c, 10, 73, 0
12, 52980, Note_on_c, 10, 65, 64
12, 53040, Note_on_c, 10, 65, 0
12, 53040, Note_on_c, 10, 66, 64
12, 53075, Note_on_c, 10, 66, 0
12, 53100, Note_on_c, 10, 74, 64
12, 53160, Note_on_c, 10, 74, 0
12, 53160, Note_on_c, 10, 69, 64
12, 53220, Note_on_c, 10, 69, 0
12, 53220, Note_on_c, 10, 68, 64
12, 53340, Note_on_c, 10, 68, 0
12, 53340, Note_on_c, 10, 69, 64
12, 53400, Note_on_c, 10, 69, 0
12, 53400, Note_on_c, 10, 71, 64
12, 53435, Note_on_c, 10, 71, 0
12, 53460, Note_on_c, 10, 74, 64
12, 53520, Note_on_c, 10, 74, 0
12, 53520, Note_on_c, 10, 73, 64
12, 53580, Note_on_c, 10, 73, 0
12, 53580, Note_on_c, 10, 71, 64
12, 53640, Note_on_c, 10, 71, 0
12, 53640, Note_on_c, 10, 69, 64
12, 53760, Note_on_c, 10, 69, 0
12, 53760, Note_on_c, 10, 68, 64
12, 53880, Note_on_c, 10, 68, 0
12, 53880, Note_on_c, 10, 66, 40
12, 54000, Note_on_c, 10, 66, 0
12, 54240, Note_on_c, 10, 78, 47
12, 54420, Note_on_c, 10, 78, 0
12, 54420, Note_on_c, 10, 76, 50
12, 54450, Note_on_c, 10, 76, 0
12, 54450, Note_on_c, 10, 78, 50
12, 54480, Note_on_c, 10, 78, 0
12, 54480, Note_on_c, 10, 79, 51
12, 54660, Note_on_c, 10, 79, 0
12, 54660, Note_on_c, 10, 71, 54
12, 54720, Note_on_c, 10, 71, 0
12, 54720, Note_on_c, 10, 70, 55
12, 54755, Note_on_c, 10, 70, 0
12, 54780, Note_on_c, 10, 76, 56
12, 54840, Note_on_c, 10, 76, 0
12, 54840, Note_on_c, 10, 74, 58
12, 54960, Note_on_c, 10, 74, 0
12, 55200, Note_on_c, 10, 80, 64
12, 55380, Note_on_c, 10, 80, 0
12, 55380, Note_on_c, 10, 78, 67
12, 55410, Note_on_c, 10, 78, 0
12, 55410, Note_on_c, 10, 80, 68
12, 55440, Note_on_c, 10, 80, 0
12, 55440, Note_on_c, 10, 81, 68
12, 55620, Note_on_c, 10, 81, 0
12, 55620, Note_on_c, 10, 72, 72
12, 55680, Note_on_c, 10, 72, 0
12, 55680, Note_on_c, 10, 71, 73
12, 55715, Note_on_c, 10, 71, 0
12, 55740, Note_on_c, 10, 81, 74
12, 55775, Note_on_c, 10, 81, 0
12, 55800, Note_on_c, 10, 80, 94
12, 55860, Note_on_c, 10, 80, 0
12, 55860, Note_on_c, 10, 74, 75
12, 55920, Note_on_c, 10, 74, 0
12, 55920, Note_on_c, 10, 73, 75
12, 55955, Note_on_c, 10, 73, 0
12, 55980, Note_on_c, 10, 82, 75
12, 56015, Note_on_c, 10, 82, 0
12, 56040, Note_on_c, 10, 83, 94
12, 56100, Note_on_c, 10, 83, 0
12, 56100, Note_on_c, 10, 78, 75
12, 56160, Note_on_c, 10, 78, 0
12, 56160, Note_on_c, 10, 77, 75
12, 56195, Note_on_c, 10, 77, 0
12, 56220, Note_on_c, 10, 83, 75
12, 56255, Note_on_c, 10, 83, 0
12, 56280, Note_on_c, 10, 82, 94
12, 56340, Note_on_c, 10, 82, 0
12, 56340, Note_on_c, 10, 76, 75
12, 56400, Note_on_c, 10, 76, 0
12, 56400, Note_on_c, 10, 75, 75
12, 56435, Note_on_c, 10, 75, 0
12, 56460, Note_on_c, 10, 81, 75
12, 56495, Note_on_c, 10, 81, 0
12, 56520, Note_on_c, 10, 80, 94
12, 56580, Note_on_c, 10, 80, 0
12, 56580, Note_on_c, 10, 74, 75
12, 56640, Note_on_c, 10, 74, 0
12, 56640, Note_on_c, 10, 73, 75
12, 56675, Note_on_c, 10, 73, 0
12, 56700, Note_on_c, 10, 79, 75
12, 56735, Note_on_c, 10, 79, 0
12, 56760, Note_on_c, 10, 78, 94
12, 56820, Note_on_c, 10, 78, 0
12, 56820, Note_on_c, 10, 70, 72
12, 56880, Note_on_c, 10, 70, 0
12, 56880, Note_on_c, 10, 71, 70
12, 56915, Note_on_c, 10, 71, 0
12, 56940, Note_on_c, 10, 74, 67
12, 56975, Note_on_c, 10, 74, 0
12, 57000, Note_on_c, 10, 76, 84
12, 57060, Note_on_c, 10, 76, 0
12, 57060, Note_on_c, 10, 67, 62
12, 57120, Note_on_c, 10, 67, 0
12, 57120, Note_on_c, 10, 66, 60
12, 57155, Note_on_c, 10, 66, 0
12, 57180, Note_on_c, 10, 76, 57
12, 57215, Note_on_c, 10, 76, 0
12, 57240, Note_on_c, 10, 74, 55
12, 57420, Note_on_c, 10, 74, 0
12, 57420, Note_on_c, 10, 76, 57
12, 57450, Note_on_c, 10, 76, 0
12, 57450, Note_on_c, 10, 78, 57
12, 57480, Note_on_c, 10, 78, 0
12, 57480, Note_on_c, 10, 76, 57
12, 57660, Note_on_c, 10, 76, 0
12, 57660, Note_on_c, 10, 78, 59
12, 57690, Note_on_c, 10, 78, 0
12, 57690, Note_on_c, 10, 79, 59
12, 57720, Note_on_c, 10, 79, 0
12, 57720, Note_on_c, 10, 78, 60
12, 57900, Note_on_c, 10, 78, 0
12, 57900, Note_on_c, 10, 79, 61
12, 57930, Note_on_c, 10, 79, 0
12, 57930, Note_on_c, 10, 81, 61
12, 57960, Note_on_c, 10, 81, 0
12, 57960, Note_on_c, 10, 79, 62
12, 58260, Note_on_c, 10, 79, 0
12, 58260, Note_on_c, 10, 73, 64
12, 58320, Note_on_c, 10, 73, 0
12, 58320, Note_on_c, 10, 78, 64
12, 58380, Note_on_c, 10, 78, 0
12, 58380, Note_on_c, 10, 76, 64
12, 58440, Note_on_c, 10, 76, 0
12, 58440, Note_on_c, 10, 74, 64
12, 58500, Note_on_c, 10, 74, 0
12, 58500, Note_on_c, 10, 73, 64
12, 58530, Note_on_c, 10, 73, 0
12, 58530, Note_on_c, 10, 71, 64
12, 58560, Note_on_c, 10, 71, 0
12, 58560, Note_on_c, 10, 78, 64
12, 58740, Note_on_c, 10, 78, 0
12, 58740, Note_on_c, 10, 71, 64
12, 58800, Note_on_c, 10, 71, 0
12, 58800, Note_on_c, 10, 76, 64
12, 58860, Note_on_c, 10, 76, 0
12, 58860, Note_on_c, 10, 74, 64
12, 58920, Note_on_c, 10, 74, 0
12, 58920, Note_on_c, 10, 73, 64
12, 59220, Note_on_c, 10, 73, 0
12, 59220, Note_on_c, 10, 66, 64
12, 59280, Note_on_c, 10, 66, 0
12, 59280, Note_on_c, 10, 71, 64
12, 59340, Note_on_c, 10, 71, 0
12, 59340, Note_on_c, 10, 69, 64
12, 59400, Note_on_c, 10, 69, 0
12, 59400, Note_on_c, 10, 67, 64
12, 59520, Note_on_c, 10, 67, 0
12, 59520, Note_on_c, 10, 66, 64
12, 59640, Note_on_c, 10, 66, 0
12, 59640, Note_on_c, 10, 64, 64
12, 59675, Note_on_c, 10, 64, 0
12, 59700, Note_on_c, 10, 73, 65
12, 59760, Note_on_c, 10, 73, 0
12, 59760, Note_on_c, 10, 74, 66
12, 59820, Note_on_c, 10, 74, 0
12, 59820, Note_on_c, 10, 76, 67
12, 59880, Note_on_c, 10, 76, 0
12, 59880, Note_on_c, 10, 78, 68
12, 59915, Note_on_c, 10, 78, 0
12, 59940, Note_on_c, 10, 79, 69
12, 60000, Note_on_c, 10, 79, 0
12, 60000, Note_on_c, 10, 78, 70
12, 60060, Note_on_c, 10, 78, 0
12, 60060, Note_on_c, 10, 71, 71
12, 60180, Note_on_c, 10, 71, 0
12, 60180, Note_on_c, 10, 70, 73
12, 60300, Note_on_c, 10, 70, 0
12, 60300, Note_on_c, 10, 71, 75
12, 60360, Note_on_c, 10, 71, 0
12, 60360, Note_on_c, 10, 73, 76
12, 60395, Note_on_c, 10, 73, 0
12, 60420, Note_on_c, 10, 76, 77
12, 60480, Note_on_c, 10, 76, 0
12, 60480, Note_on_c, 10, 74, 78
12, 60540, Note_on_c, 10, 74, 0
12, 60540, Note_on_c, 10, 73, 79
12, 60600, Note_on_c, 10, 73, 0
12, 60600, Note_on_c, 10, 71, 80
12, 60720, Note_on_c, 10, 71, 0
12, 60720, Note_on_c, 10, 70, 80
12, 60840, Note_on_c, 10, 70, 0
12, 60840, Note_on_c, 10, 71, 80
12, 61200, Note_on_c, 10, 71, 0
12, 61560, End_track
13, 0, Start_track
13, 0, MIDI_port, 0
13, 0, Title_t, "Viola"
13, 0, Program_c, 12, 48
13, 480, Control_c, 12, 7, 100
13, 480, Note_on_c, 12, 71, 64
13, 660, Note_on_c, 12, 71, 0
13, 660, Note_on_c, 12, 71, 64
13, 720, Note_on_c, 12, 71, 0
13, 720, Note_on_c, 12, 67, 64
13, 840, Note_on_c, 12, 67, 0
13, 960, Note_on_c, 12, 63, 64
13, 1140, Note_on_c, 12, 63, 0
13, 1140, Note_on_c, 12, 59, 64
13, 1200, Note_on_c, 12, 59, 0
13, 1200, Note_on_c, 12, 71, 64
13, 1260, Note_on_c, 12, 71, 0
13, 1440, Note_on_c, 12, 64, 64
13, 1500, Note_on_c, 12, 64, 0
13, 1500, Note_on_c, 12, 61, 64
13, 1620, Note_on_c, 12, 61, 0
13, 1620, Note_on_c, 12, 73, 64
13, 1680, Note_on_c, 12, 73, 0
13, 1680, Note_on_c, 12, 66, 64
13, 1800, Note_on_c, 12, 66, 0
13, 1860, Note_on_c, 12, 66, 64
13, 1920, Note_on_c, 12, 66, 0
13, 1920, Note_on_c, 12, 67, 64
13, 1950, Note_on_c, 12, 67, 0
13, 1950, Note_on_c, 12, 66, 65
13, 1980, Note_on_c, 12, 66, 0
13, 1980, Note_on_c, 12, 67, 65
13, 2040, Note_on_c, 12, 67, 0
13, 2040, Note_on_c, 12, 59, 67
13, 2100, Note_on_c, 12, 59, 0
13, 2100, Note_on_c, 12, 67, 68
13, 2160, Note_on_c, 12, 67, 0
13, 2160, Note_on_c, 12, 61, 70
13, 2400, Note_on_c, 12, 61, 0
13, 2520, Control_c, 12, 7, 70
13, 2520, Note_on_c, 12, 66, 64
13, 2760, Note_on_c, 12, 66, 0
13, 2760, Note_on_c, 12, 67, 64
13, 2880, Note_on_c, 12, 67, 0
13, 2880, Note_on_c, 12, 61, 64
13, 2940, Note_on_c, 12, 61, 0
13, 2940, Note_on_c, 12, 66, 64
13, 3060, Note_on_c, 12, 66, 0
13, 3060, Note_on_c, 12, 64, 64
13, 3120, Note_on_c, 12, 64, 0
13, 3120, Note_on_c, 12, 63, 64
13, 3155, Note_on_c, 12, 63, 0
13, 3180, Note_on_c, 12, 66, 64
13, 3240, Note_on_c, 12, 66, 0
13, 3240, Note_on_c, 12, 59, 64
13, 3300, Note_on_c, 12, 59, 0
13, 3300, Note_on_c, 12, 64, 64
13, 3390, Note_on_c, 12, 64, 0
13, 3390, Note_on_c, 12, 62, 64
13, 3420, Note_on_c, 12, 62, 0
13, 3420, Note_on_c, 12, 61, 64
13, 3450, Note_on_c, 12, 61, 0
13, 3450, Note_on_c, 12, 59, 64
13, 3480, Note_on_c, 12, 59, 0
13, 3480, Note_on_c, 12, 66, 64
13, 3600, Note_on_c, 12, 66, 0
13, 3660, Note_on_c, 12, 70, 64
13, 3720, Note_on_c, 12, 70, 0
13, 3720, Note_on_c, 12, 71, 64
13, 3840, Note_on_c, 12, 71, 0
13, 3840, Note_on_c, 12, 73, 64
13, 3960, Note_on_c, 12, 73, 0
13, 3960, Note_on_c, 12, 68, 64
13, 4200, Note_on_c, 12, 68, 0
13, 4200, Note_on_c, 12, 66, 64
13, 4500, Note_on_c, 12, 66, 0
13, 4500, Note_on_c, 12, 67, 64
13, 4620, Note_on_c, 12, 67, 0
13, 4620, Note_on_c, 12, 69, 64
13, 4680, Note_on_c, 12, 69, 0
13, 4680, Note_on_c, 12, 71, 64
13, 4800, Note_on_c, 12, 71, 0
13, 4800, Note_on_c, 12, 73, 64
13, 4920, Note_on_c, 12, 73, 0
13, 4920, Note_on_c, 12, 61, 64
13, 5040, Note_on_c, 12, 61, 0
13, 5100, Note_on_c, 12, 57, 64
13, 5160, Note_on_c, 12, 57, 0
13, 5160, Note_on_c, 12, 59, 64
13, 5280, Note_on_c, 12, 59, 0
13, 5340, Note_on_c, 12, 62, 64
13, 5400, Note_on_c, 12, 62, 0
13, 5400, Note_on_c, 12, 56, 64
13, 5520, Note_on_c, 12, 56, 0
13, 5580, Note_on_c, 12, 65, 64
13, 5640, Note_on_c, 12, 65, 0
13, 5640, Note_on_c, 12, 61, 64
13, 5760, Note_on_c, 12, 61, 0
13, 5820, Note_on_c, 12, 61, 64
13, 5880, Note_on_c, 12, 61, 0
13, 5880, Note_on_c, 12, 54, 64
13, 6000, Note_on_c, 12, 54, 0
13, 6060, Note_on_c, 12, 61, 64
13, 6120, Note_on_c, 12, 61, 0
13, 6120, Note_on_c, 12, 68, 64
13, 6240, Note_on_c, 12, 68, 0
13, 6300, Note_on_c, 12, 62, 64
13, 6360, Note_on_c, 12, 62, 0
13, 6360, Note_on_c, 12, 61, 64
13, 6480, Note_on_c, 12, 61, 0
13, 6540, Note_on_c, 12, 66, 64
13, 6600, Note_on_c, 12, 66, 0
13, 6600, Note_on_c, 12, 61, 64
13, 6660, Note_on_c, 12, 61, 0
13, 6660, Note_on_c, 12, 59, 64
13, 6690, Note_on_c, 12, 59, 0
13, 6690, Note_on_c, 12, 57, 64
13, 6720, Note_on_c, 12, 57, 0
13, 6720, Note_on_c, 12, 56, 64
13, 6780, Note_on_c, 12, 56, 0
13, 6780, Note_on_c, 12, 61, 64
13, 6840, Note_on_c, 12, 61, 0
13, 6840, Note_on_c, 12, 65, 64
13, 6875, Note_on_c, 12, 65, 0
13, 6900, Note_on_c, 12, 56, 64
13, 6960, Note_on_c, 12, 56, 0
13, 6960, Note_on_c, 12, 61, 64
13, 7020, Note_on_c, 12, 61, 0
13, 7020, Note_on_c, 12, 65, 64
13, 7080, Note_on_c, 12, 65, 0
13, 7080, Note_on_c, 12, 69, 64
13, 7140, Note_on_c, 12, 69, 0
13, 7140, Note_on_c, 12, 66, 64
13, 7200, Note_on_c, 12, 66, 0
13, 7200, Note_on_c, 12, 61, 64
13, 7440, Note_on_c, 12, 61, 0
13, 7500, Note_on_c, 12, 67, 42
13, 7560, Note_on_c, 12, 67, 0
13, 7560, Note_on_c, 12, 66, 43
13, 7680, Note_on_c, 12, 66, 0
13, 7740, Note_on_c, 12, 63, 45
13, 7800, Note_on_c, 12, 63, 0
13, 7800, Note_on_c, 12, 59, 46
13, 7920, Note_on_c, 12, 59, 0
13, 7980, Note_on_c, 12, 67, 48
13, 8040, Note_on_c, 12, 67, 0
13, 8040, Note_on_c, 12, 61, 49
13, 8160, Note_on_c, 12, 61, 0
13, 8220, Note_on_c, 12, 58, 51
13, 8280, Note_on_c, 12, 58, 0
13, 8280, Note_on_c, 12, 59, 52
13, 8400, Note_on_c, 12, 59, 0
13, 8460, Note_on_c, 12, 62, 54
13, 8520, Note_on_c, 12, 62, 0
13, 8520, Note_on_c, 12, 56, 55
13, 8640, Note_on_c, 12, 56, 0
13, 8700, Note_on_c, 12, 65, 57
13, 8760, Note_on_c, 12, 65, 0
13, 8760, Note_on_c, 12, 61, 58
13, 8880, Note_on_c, 12, 61, 0
13, 8940, Note_on_c, 12, 64, 60
13, 9000, Note_on_c, 12, 64, 0
13, 9000, Note_on_c, 12, 59, 61
13, 9120, Note_on_c, 12, 59, 0
13, 9180, Note_on_c, 12, 63, 63
13, 9215, Note_on_c, 12, 63, 0
13, 9240, Note_on_c, 12, 59, 64
13, 9311, Note_on_c, 12, 59, 0
13, 9420, Note_on_c, 12, 64, 64
13, 9431, Note_on_c, 12, 64, 0
13, 9480, Note_on_c, 12, 66, 64
13, 9551, Note_on_c, 12, 66, 0
13, 9660, Note_on_c, 12, 65, 64
13, 9695, Note_on_c, 12, 65, 0
13, 9720, Note_on_c, 12, 61, 64
13, 9791, Note_on_c, 12, 61, 0
13, 9900, Note_on_c, 12, 63, 64
13, 9935, Note_on_c, 12, 63, 0
13, 9960, Note_on_c, 12, 59, 64
13, 10031, Note_on_c, 12, 59, 0
13, 10140, Note_on_c, 12, 61, 64
13, 10175, Note_on_c, 12, 61, 0
13, 10200, Note_on_c, 12, 57, 70
13, 10271, Note_on_c, 12, 57, 0
13, 10380, Note_on_c, 12, 55, 62
13, 10415, Note_on_c, 12, 55, 0
13, 10440, Note_on_c, 12, 67, 60
13, 10511, Note_on_c, 12, 67, 0
13, 10620, Note_on_c, 12, 61, 52
13, 10655, Note_on_c, 12, 61, 0
13, 10680, Note_on_c, 12, 59, 50
13, 10800, Note_on_c, 12, 59, 0
13, 10860, Note_on_c, 12, 67, 53
13, 10920, Note_on_c, 12, 67, 0
13, 10920, Note_on_c, 12, 67, 54
13, 11100, Note_on_c, 12, 67, 0
13, 11100, Note_on_c, 12, 66, 56
13, 11130, Note_on_c, 12, 66, 0
13, 11130, Note_on_c, 12, 64, 57
13, 11160, Note_on_c, 12, 64, 0
13, 11160, Note_on_c, 12, 62, 57
13, 11280, Note_on_c, 12, 62, 0
13, 11340, Note_on_c, 12, 59, 60
13, 11400, Note_on_c, 12, 59, 0
13, 11400, Note_on_c, 12, 64, 61
13, 11520, Note_on_c, 12, 64, 0
13, 11580, Note_on_c, 12, 71, 63
13, 11640, Note_on_c, 12, 71, 0
13, 11640, Note_on_c, 12, 73, 64
13, 11760, Note_on_c, 12, 73, 0
13, 11820, Note_on_c, 12, 70, 64
13, 11880, Note_on_c, 12, 70, 0
13, 11880, Note_on_c, 12, 66, 64
13, 12000, Note_on_c, 12, 66, 0
13, 12060, Note_on_c, 12, 62, 64
13, 12120, Note_on_c, 12, 62, 0
13, 12120, Note_on_c, 12, 64, 64
13, 12240, Note_on_c, 12, 64, 0
13, 12300, Note_on_c, 12, 67, 64
13, 12360, Note_on_c, 12, 67, 0
13, 12360, Note_on_c, 12, 61, 64
13, 12480, Note_on_c, 12, 61, 0
13, 12540, Note_on_c, 12, 58, 64
13, 12600, Note_on_c, 12, 58, 0
13, 12600, Note_on_c, 12, 54, 64
13, 12720, Note_on_c, 12, 54, 0
13, 12780, Note_on_c, 12, 54, 64
13, 12840, Note_on_c, 12, 54, 0
13, 12840, Note_on_c, 12, 59, 64
13, 12960, Note_on_c, 12, 59, 0
13, 13020, Note_on_c, 12, 54, 64
13, 13080, Note_on_c, 12, 54, 0
13, 13080, Note_on_c, 12, 61, 64
13, 13200, Note_on_c, 12, 61, 0
13, 13260, Note_on_c, 12, 55, 64
13, 13320, Note_on_c, 12, 55, 0
13, 13320, Note_on_c, 12, 54, 64
13, 13440, Note_on_c, 12, 54, 0
13, 13500, Note_on_c, 12, 59, 64
13, 13560, Note_on_c, 12, 59, 0
13, 13560, Note_on_c, 12, 54, 64
13, 13620, Note_on_c, 12, 54, 0
13, 13620, Note_on_c, 12, 52, 64
13, 13650, Note_on_c, 12, 52, 0
13, 13650, Note_on_c, 12, 50, 64
13, 13680, Note_on_c, 12, 50, 0
13, 13680, Note_on_c, 12, 49, 64
13, 13740, Note_on_c, 12, 49, 0
13, 13740, Note_on_c, 12, 54, 64
13, 13800, Note_on_c, 12, 54, 0
13, 13800, Note_on_c, 12, 58, 64
13, 13835, Note_on_c, 12, 58, 0
13, 13860, Note_on_c, 12, 49, 64
13, 13920, Note_on_c, 12, 49, 0
13, 13920, Note_on_c, 12, 54, 64
13, 13980, Note_on_c, 12, 54, 0
13, 13980, Note_on_c, 12, 58, 64
13, 14040, Note_on_c, 12, 58, 0
13, 14040, Note_on_c, 12, 62, 64
13, 14100, Note_on_c, 12, 62, 0
13, 14100, Note_on_c, 12, 64, 64
13, 14220, Note_on_c, 12, 64, 0
13, 14220, Note_on_c, 12, 62, 64
13, 14250, Note_on_c, 12, 62, 0
13, 14250, Note_on_c, 12, 61, 64
13, 14280, Note_on_c, 12, 61, 0
13, 14280, Note_on_c, 12, 62, 64
13, 14315, Note_on_c, 12, 62, 0
13, 14340, Note_on_c, 12, 58, 64
13, 14400, Note_on_c, 12, 58, 0
13, 14400, Note_on_c, 12, 59, 64
13, 14460, Note_on_c, 12, 59, 0
13, 14460, Note_on_c, 12, 61, 64
13, 14520, Note_on_c, 12, 61, 0
13, 14520, Note_on_c, 12, 62, 64
13, 14640, Note_on_c, 12, 62, 0
13, 21960, Note_on_c, 12, 59, 64
13, 22050, Note_on_c, 12, 59, 0
13, 22050, Note_on_c, 12, 59, 64
13, 22080, Note_on_c, 12, 59, 0
13, 22080, Note_on_c, 12, 59, 64
13, 22115, Note_on_c, 12, 59, 0
13, 22140, Note_on_c, 12, 59, 64
13, 22200, Note_on_c, 12, 59, 0
13, 22200, Note_on_c, 12, 61, 64
13, 22260, Note_on_c, 12, 61, 0
13, 22260, Note_on_c, 12, 55, 64
13, 22320, Note_on_c, 12, 55, 0
13, 22320, Note_on_c, 12, 54, 64
13, 22355, Note_on_c, 12, 54, 0
13, 22380, Note_on_c, 12, 61, 64
13, 22440, Note_on_c, 12, 61, 0
13, 22440, Note_on_c, 12, 62, 64
13, 22500, Note_on_c, 12, 62, 0
13, 22500, Note_on_c, 12, 55, 64
13, 22560, Note_on_c, 12, 55, 0
13, 22560, Note_on_c, 12, 54, 64
13, 22595, Note_on_c, 12, 54, 0
13, 22620, Note_on_c, 12, 63, 64
13, 22680, Note_on_c, 12, 63, 0
13, 22680, Note_on_c, 12, 64, 64
13, 22710, Note_on_c, 12, 64, 0
13, 22710, Note_on_c, 12, 62, 64
13, 22740, Note_on_c, 12, 62, 0
13, 22740, Note_on_c, 12, 60, 64
13, 22830, Note_on_c, 12, 60, 0
13, 22830, Note_on_c, 12, 59, 64
13, 22860, Note_on_c, 12, 59, 0
13, 22860, Note_on_c, 12, 58, 64
13, 22890, Note_on_c, 12, 58, 0
13, 22890, Note_on_c, 12, 59, 64
13, 22920, Note_on_c, 12, 59, 0
13, 22920, Note_on_c, 12, 58, 64
13, 22955, Note_on_c, 12, 58, 0
13, 22980, Note_on_c, 12, 67, 64
13, 23040, Note_on_c, 12, 67, 0
13, 23040, Note_on_c, 12, 66, 64
13, 23100, Note_on_c, 12, 66, 0
13, 23100, Note_on_c, 12, 64, 64
13, 23160, Note_on_c, 12, 64, 0
13, 23160, Note_on_c, 12, 62, 64
13, 23220, Note_on_c, 12, 62, 0
13, 23220, Note_on_c, 12, 61, 64
13, 23250, Note_on_c, 12, 61, 0
13, 23250, Note_on_c, 12, 59, 64
13, 23280, Note_on_c, 12, 59, 0
13, 23280, Note_on_c, 12, 66, 64
13, 23315, Note_on_c, 12, 66, 0
13, 23340, Note_on_c, 12, 61, 64
13, 23400, Note_on_c, 12, 61, 0
13, 23400, Note_on_c, 12, 62, 64
13, 23460, Note_on_c, 12, 62, 0
13, 23460, Note_on_c, 12, 59, 64
13, 23520, Note_on_c, 12, 59, 0
13, 23520, Note_on_c, 12, 56, 64
13, 23640, Note_on_c, 12, 56, 0
13, 23640, Note_on_c, 12, 54, 64
13, 23700, Note_on_c, 12, 54, 0
13, 23700, Note_on_c, 12, 56, 64
13, 23760, Note_on_c, 12, 56, 0
13, 23760, Note_on_c, 12, 57, 64
13, 23820, Note_on_c, 12, 57, 0
13, 23820, Note_on_c, 12, 61, 64
13, 23880, Note_on_c, 12, 61, 0
13, 23880, Note_on_c, 12, 62, 64
13, 24120, Note_on_c, 12, 62, 0
13, 24120, Note_on_c, 12, 56, 64
13, 24240, Note_on_c, 12, 56, 0
13, 24240, Note_on_c, 12, 61, 64
13, 24420, Note_on_c, 12, 61, 0
13, 24420, Note_on_c, 12, 63, 64
13, 24480, Note_on_c, 12, 63, 0
13, 24480, Note_on_c, 12, 64, 64
13, 24540, Note_on_c, 12, 64, 0
13, 24540, Note_on_c, 12, 61, 64
13, 24600, Note_on_c, 12, 61, 0
13, 24600, Note_on_c, 12, 69, 64
13, 24660, Note_on_c, 12, 69, 0
13, 24660, Note_on_c, 12, 66, 64
13, 24720, Note_on_c, 12, 66, 0
13, 24720, Note_on_c, 12, 63, 64
13, 24755, Note_on_c, 12, 63, 0
13, 24780, Note_on_c, 12, 68, 64
13, 24900, Note_on_c, 12, 68, 0
13, 24900, Note_on_c, 12, 66, 64
13, 24960, Note_on_c, 12, 66, 0
13, 24960, Note_on_c, 12, 68, 64
13, 24995, Note_on_c, 12, 68, 0
13, 25020, Note_on_c, 12, 61, 64
13, 25080, Note_on_c, 12, 61, 0
13, 25080, Note_on_c, 12, 61, 64
13, 25140, Note_on_c, 12, 61, 0
13, 25140, Note_on_c, 12, 62, 64
13, 25260, Note_on_c, 12, 62, 0
13, 25260, Note_on_c, 12, 64, 64
13, 25320, Note_on_c, 12, 64, 0
13, 25320, Note_on_c, 12, 66, 64
13, 25440, Note_on_c, 12, 66, 0
13, 25440, Note_on_c, 12, 68, 64
13, 25560, Note_on_c, 12, 68, 0
13, 25560, Note_on_c, 12, 56, 64
13, 25680, Note_on_c, 12, 56, 0
13, 25740, Note_on_c, 12, 64, 64
13, 25800, Note_on_c, 12, 64, 0
13, 25800, Note_on_c, 12, 66, 64
13, 25920, Note_on_c, 12, 66, 0
13, 25980, Note_on_c, 12, 69, 64
13, 26040, Note_on_c, 12, 69, 0
13, 26040, Note_on_c, 12, 63, 64
13, 26160, Note_on_c, 12, 63, 0
13, 26220, Note_on_c, 12, 60, 64
13, 26280, Note_on_c, 12, 60, 0
13, 26280, Note_on_c, 12, 56, 64
13, 26400, Note_on_c, 12, 56, 0
13, 26460, Note_on_c, 12, 68, 64
13, 26520, Note_on_c, 12, 68, 0
13, 26520, Note_on_c, 12, 61, 64
13, 26640, Note_on_c, 12, 61, 0
13, 26700, Note_on_c, 12, 68, 64
13, 26760, Note_on_c, 12, 68, 0
13, 26760, Note_on_c, 12, 75, 64
13, 26880, Note_on_c, 12, 75, 0
13, 26940, Note_on_c, 12, 69, 64
13, 27000, Note_on_c, 12, 69, 0
13, 27000, Note_on_c, 12, 68, 64
13, 27120, Note_on_c, 12, 68, 0
13, 27180, Note_on_c, 12, 73, 64
13, 27240, Note_on_c, 12, 73, 0
13, 27240, Note_on_c, 12, 68, 64
13, 27300, Note_on_c, 12, 68, 0
13, 27300, Note_on_c, 12, 66, 64
13, 27330, Note_on_c, 12, 66, 0
13, 27330, Note_on_c, 12, 64, 64
13, 27360, Note_on_c, 12, 64, 0
13, 27360, Note_on_c, 12, 63, 64
13, 27420, Note_on_c, 12, 63, 0
13, 27420, Note_on_c, 12, 56, 64
13, 27480, Note_on_c, 12, 56, 0
13, 27480, Note_on_c, 12, 60, 64
13, 27515, Note_on_c, 12, 60, 0
13, 27540, Note_on_c, 12, 51, 64
13, 27600, Note_on_c, 12, 51, 0
13, 27600, Note_on_c, 12, 56, 64
13, 27660, Note_on_c, 12, 56, 0
13, 27660, Note_on_c, 12, 60, 64
13, 27720, Note_on_c, 12, 60, 0
13, 27720, Note_on_c, 12, 64, 64
13, 27780, Note_on_c, 12, 64, 0
13, 27780, Note_on_c, 12, 61, 64
13, 27840, Note_on_c, 12, 61, 0
13, 27840, Note_on_c, 12, 56, 64
13, 27960, Note_on_c, 12, 56, 0
13, 27960, Note_on_c, 12, 56, 40
13, 28080, Note_on_c, 12, 56, 0
13, 28140, Note_on_c, 12, 64, 42
13, 28200, Note_on_c, 12, 64, 0
13, 28200, Note_on_c, 12, 61, 43
13, 28320, Note_on_c, 12, 61, 0
13, 28380, Note_on_c, 12, 66, 45
13, 28440, Note_on_c, 12, 66, 0
13, 28440, Note_on_c, 12, 66, 46
13, 28560, Note_on_c, 12, 66, 0
13, 28620, Note_on_c, 12, 59, 48
13, 28680, Note_on_c, 12, 59, 0
13, 28680, Note_on_c, 12, 56, 49
13, 28800, Note_on_c, 12, 56, 0
13, 28860, Note_on_c, 12, 61, 51
13, 28920, Note_on_c, 12, 61, 0
13, 28920, Note_on_c, 12, 61, 52
13, 29040, Note_on_c, 12, 61, 0
13, 29100, Note_on_c, 12, 66, 54
13, 29160, Note_on_c, 12, 66, 0
13, 29160, Note_on_c, 12, 63, 55
13, 29280, Note_on_c, 12, 63, 0
13, 29340, Note_on_c, 12, 68, 57
13, 29400, Note_on_c, 12, 68, 0
13, 29400, Note_on_c, 12, 68, 58
13, 29520, Note_on_c, 12, 68, 0
13, 29580, Note_on_c, 12, 59, 60
13, 29615, Note_on_c, 12, 59, 0
13, 29640, Note_on_c, 12, 54, 61
13, 29760, Note_on_c, 12, 54, 0
13, 29820, Note_on_c, 12, 58, 63
13, 29855, Note_on_c, 12, 58, 0
13, 29880, Note_on_c, 12, 54, 75
13, 29951, Note_on_c, 12, 54, 0
13, 30060, Note_on_c, 12, 68, 75
13, 30071, Note_on_c, 12, 68, 0
13, 30120, Note_on_c, 12, 66, 75
13, 30191, Note_on_c, 12, 66, 0
13, 30300, Note_on_c, 12, 63, 75
13, 30335, Note_on_c, 12, 63, 0
13, 30360, Note_on_c, 12, 65, 75
13, 30431, Note_on_c, 12, 65, 0
13, 30540, Note_on_c, 12, 61, 75
13, 30551, Note_on_c, 12, 61, 0
13, 30600, Note_on_c, 12, 63, 75
13, 30671, Note_on_c, 12, 63, 0
13, 30780, Note_on_c, 12, 59, 75
13, 30815, Note_on_c, 12, 59, 0
13, 30840, Note_on_c, 12, 61, 64
13, 30960, Note_on_c, 12, 61, 0
13, 31020, Note_on_c, 12, 62, 64
13, 31080, Note_on_c, 12, 62, 0
13, 31080, Note_on_c, 12, 62, 64
13, 31200, Note_on_c, 12, 62, 0
13, 31260, Note_on_c, 12, 61, 64
13, 31320, Note_on_c, 12, 61, 0
13, 31320, Note_on_c, 12, 61, 64
13, 31440, Note_on_c, 12, 61, 0
13, 31500, Note_on_c, 12, 62, 64
13, 31560, Note_on_c, 12, 62, 0
13, 31560, Note_on_c, 12, 62, 64
13, 31740, Note_on_c, 12, 62, 0
13, 31740, Note_on_c, 12, 61, 64
13, 31770, Note_on_c, 12, 61, 0
13, 31770, Note_on_c, 12, 59, 64
13, 31800, Note_on_c, 12, 59, 0
13, 31800, Note_on_c, 12, 57, 64
13, 31920, Note_on_c, 12, 57, 0
13, 31980, Note_on_c, 12, 54, 64
13, 32040, Note_on_c, 12, 54, 0
13, 32040, Note_on_c, 12, 59, 64
13, 32160, Note_on_c, 12, 59, 0
13, 32220, Note_on_c, 12, 66, 64
13, 32280, Note_on_c, 12, 66, 0
13, 32280, Note_on_c, 12, 68, 64
13, 32400, Note_on_c, 12, 68, 0
13, 32460, Note_on_c, 12, 65, 64
13, 32520, Note_on_c, 12, 65, 0
13, 32520, Note_on_c, 12, 61, 64
13, 32640, Note_on_c, 12, 61, 0
13, 32700, Note_on_c, 12, 57, 64
13, 32760, Note_on_c, 12, 57, 0
13, 32760, Note_on_c, 12, 59, 64
13, 32880, Note_on_c, 12, 59, 0
13, 32940, Note_on_c, 12, 62, 64
13, 33000, Note_on_c, 12, 62, 0
13, 33000, Note_on_c, 12, 56, 64
13, 33120, Note_on_c, 12, 56, 0
13, 33180, Note_on_c, 12, 65, 64
13, 33240, Note_on_c, 12, 65, 0
13, 33240, Note_on_c, 12, 61, 64
13, 33360, Note_on_c, 12, 61, 0
13, 33420, Note_on_c, 12, 61, 64
13, 33480, Note_on_c, 12, 61, 0
13, 33480, Note_on_c, 12, 66, 64
13, 33600, Note_on_c, 12, 66, 0
13, 33660, Note_on_c, 12, 61, 64
13, 33720, Note_on_c, 12, 61, 0
13, 33720, Note_on_c, 12, 68, 64
13, 33840, Note_on_c, 12, 68, 0
13, 33900, Note_on_c, 12, 62, 64
13, 33960, Note_on_c, 12, 62, 0
13, 33960, Note_on_c, 12, 61, 64
13, 34080, Note_on_c, 12, 61, 0
13, 34140, Note_on_c, 12, 66, 64
13, 34200, Note_on_c, 12, 66, 0
13, 34200, Note_on_c, 12, 61, 64
13, 34260, Note_on_c, 12, 61, 0
13, 34260, Note_on_c, 12, 59, 64
13, 34290, Note_on_c, 12, 59, 0
13, 34290, Note_on_c, 12, 57, 64
13, 34320, Note_on_c, 12, 57, 0
13, 34320, Note_on_c, 12, 56, 64
13, 34380, Note_on_c, 12, 56, 0
13, 34380, Note_on_c, 12, 61, 64
13, 34440, Note_on_c, 12, 61, 0
13, 34440, Note_on_c, 12, 65, 64
13, 34475, Note_on_c, 12, 65, 0
13, 34500, Note_on_c, 12, 56, 64
13, 34560, Note_on_c, 12, 56, 0
13, 34560, Note_on_c, 12, 61, 64
13, 34620, Note_on_c, 12, 61, 0
13, 34620, Note_on_c, 12, 53, 64
13, 34680, Note_on_c, 12, 53, 0
13, 34680, Note_on_c, 12, 57, 64
13, 34740, Note_on_c, 12, 57, 0
13, 34740, Note_on_c, 12, 59, 64
13, 34860, Note_on_c, 12, 59, 0
13, 34860, Note_on_c, 12, 57, 64
13, 34890, Note_on_c, 12, 57, 0
13, 34890, Note_on_c, 12, 56, 64
13, 34920, Note_on_c, 12, 56, 0
13, 34920, Note_on_c, 12, 57, 64
13, 35040, Note_on_c, 12, 57, 0
13, 36060, Note_on_c, 12, 61, 64
13, 36095, Note_on_c, 12, 61, 0
13, 36120, Note_on_c, 12, 54, 64
13, 36240, Note_on_c, 12, 54, 0
13, 36300, Note_on_c, 12, 56, 64
13, 36360, Note_on_c, 12, 56, 0
13, 36360, Note_on_c, 12, 68, 64
13, 36480, Note_on_c, 12, 68, 0
13, 36540, Note_on_c, 12, 66, 64
13, 36600, Note_on_c, 12, 66, 0
13, 36600, Note_on_c, 12, 66, 64
13, 36720, Note_on_c, 12, 66, 0
13, 36780, Note_on_c, 12, 64, 64
13, 36840, Note_on_c, 12, 64, 0
13, 36840, Note_on_c, 12, 64, 64
13, 36960, Note_on_c, 12, 64, 0
13, 37020, Note_on_c, 12, 61, 64
13, 37080, Note_on_c, 12, 61, 0
13, 37080, Note_on_c, 12, 66, 64
13, 37140, Note_on_c, 12, 66, 0
13, 37140, Note_on_c, 12, 62, 64
13, 37200, Note_on_c, 12, 62, 0
13, 37200, Note_on_c, 12, 59, 64
13, 37235, Note_on_c, 12, 59, 0
13, 37260, Note_on_c, 12, 64, 64
13, 37320, Note_on_c, 12, 64, 0
13, 37320, Note_on_c, 12, 64, 64
13, 37380, Note_on_c, 12, 64, 0
13, 37380, Note_on_c, 12, 62, 64
13, 37440, Note_on_c, 12, 62, 0
13, 37440, Note_on_c, 12, 61, 64
13, 37475, Note_on_c, 12, 61, 0
13, 37500, Note_on_c, 12, 64, 64
13, 37560, Note_on_c, 12, 64, 0
13, 37560, Note_on_c, 12, 57, 64
13, 37620, Note_on_c, 12, 57, 0
13, 37620, Note_on_c, 12, 54, 64
13, 37680, Note_on_c, 12, 54, 0
13, 37680, Note_on_c, 12, 59, 64
13, 37740, Note_on_c, 12, 59, 0
13, 37740, Note_on_c, 12, 62, 64
13, 37800, Note_on_c, 12, 62, 0
13, 37800, Note_on_c, 12, 59, 64
13, 37835, Note_on_c, 12, 59, 0
13, 37860, Note_on_c, 12, 57, 64
13, 37920, Note_on_c, 12, 57, 0
13, 37920, Note_on_c, 12, 59, 64
13, 37980, Note_on_c, 12, 59, 0
13, 37980, Note_on_c, 12, 56, 64
13, 38040, Note_on_c, 12, 56, 0
13, 38040, Note_on_c, 12, 52, 64
13, 38111, Note_on_c, 12, 52, 0
13, 38220, Note_on_c, 12, 59, 64
13, 38255, Note_on_c, 12, 59, 0
13, 38280, Note_on_c, 12, 59, 64
13, 38351, Note_on_c, 12, 59, 0
13, 38460, Note_on_c, 12, 57, 64
13, 38495, Note_on_c, 12, 57, 0
13, 38520, Note_on_c, 12, 57, 64
13, 38591, Note_on_c, 12, 57, 0
13, 38700, Note_on_c, 12, 59, 64
13, 38735, Note_on_c, 12, 59, 0
13, 38760, Note_on_c, 12, 56, 64
13, 38831, Note_on_c, 12, 56, 0
13, 38940, Note_on_c, 12, 54, 64
13, 38975, Note_on_c, 12, 54, 0
13, 39000, Note_on_c, 12, 54, 64
13, 39120, Note_on_c, 12, 54, 0
13, 39180, Note_on_c, 12, 62, 64
13, 39240, Note_on_c, 12, 62, 0
13, 39240, Note_on_c, 12, 64, 64
13, 39360, Note_on_c, 12, 64, 0
13, 39420, Note_on_c, 12, 61, 64
13, 39480, Note_on_c, 12, 61, 0
13, 39480, Note_on_c, 12, 54, 64
13, 39600, Note_on_c, 12, 54, 0
13, 39660, Note_on_c, 12, 59, 64
13, 39720, Note_on_c, 12, 59, 0
13, 39720, Note_on_c, 12, 59, 64
13, 39840, Note_on_c, 12, 59, 0
13, 40020, Note_on_c, 12, 73, 64
13, 40080, Note_on_c, 12, 73, 0
13, 40080, Note_on_c, 12, 71, 64
13, 40140, Note_on_c, 12, 71, 0
13, 40140, Note_on_c, 12, 70, 64
13, 40200, Note_on_c, 12, 70, 0
13, 40200, Note_on_c, 12, 71, 64
13, 40260, Note_on_c, 12, 71, 0
13, 40260, Note_on_c, 12, 66, 64
13, 40380, Note_on_c, 12, 66, 0
13, 40380, Note_on_c, 12, 68, 64
13, 40410, Note_on_c, 12, 68, 0
13, 40410, Note_on_c, 12, 69, 64
13, 40440, Note_on_c, 12, 69, 0
13, 40440, Note_on_c, 12, 71, 64
13, 40560, Note_on_c, 12, 71, 0
13, 40620, Note_on_c, 12, 68, 64
13, 40680, Note_on_c, 12, 68, 0
13, 40680, Note_on_c, 12, 61, 64
13, 40800, Note_on_c, 12, 61, 0
13, 40860, Note_on_c, 12, 58, 64
13, 40920, Note_on_c, 12, 58, 0
13, 40920, Note_on_c, 12, 54, 64
13, 41040, Note_on_c, 12, 54, 0
13, 41100, Note_on_c, 12, 62, 64
13, 41160, Note_on_c, 12, 62, 0
13, 41160, Note_on_c, 12, 53, 64
13, 41280, Note_on_c, 12, 53, 0
13, 41340, Note_on_c, 12, 61, 64
13, 41400, Note_on_c, 12, 61, 0
13, 41400, Note_on_c, 12, 61, 64
13, 41520, Note_on_c, 12, 61, 0
13, 41580, Note_on_c, 12, 62, 64
13, 41640, Note_on_c, 12, 62, 0
13, 41640, Note_on_c, 12, 64, 64
13, 41760, Note_on_c, 12, 64, 0
13, 41820, Note_on_c, 12, 68, 64
13, 41880, Note_on_c, 12, 68, 0
13, 41880, Note_on_c, 12, 61, 64
13, 42000, Note_on_c, 12, 61, 0
13, 42060, Note_on_c, 12, 64, 64
13, 42120, Note_on_c, 12, 64, 0
13, 42120, Note_on_c, 12, 66, 64
13, 42240, Note_on_c, 12, 66, 0
13, 42300, Note_on_c, 12, 66, 64
13, 42360, Note_on_c, 12, 66, 0
13, 42360, Note_on_c, 12, 59, 64
13, 42450, Note_on_c, 12, 59, 0
13, 42450, Note_on_c, 12, 59, 64
13, 42480, Note_on_c, 12, 59, 0
13, 42480, Note_on_c, 12, 59, 64
13, 42515, Note_on_c, 12, 59, 0
13, 42540, Note_on_c, 12, 59, 64
13, 42600, Note_on_c, 12, 59, 0
13, 42600, Note_on_c, 12, 61, 64
13, 42660, Note_on_c, 12, 61, 0
13, 42660, Note_on_c, 12, 55, 64
13, 42720, Note_on_c, 12, 55, 0
13, 42720, Note_on_c, 12, 54, 64
13, 42755, Note_on_c, 12, 54, 0
13, 42780, Note_on_c, 12, 61, 64
13, 42840, Note_on_c, 12, 61, 0
13, 42840, Note_on_c, 12, 62, 64
13, 42900, Note_on_c, 12, 62, 0
13, 42900, Note_on_c, 12, 55, 64
13, 42960, Note_on_c, 12, 55, 0
13, 42960, Note_on_c, 12, 54, 64
13, 42995, Note_on_c, 12, 54, 0
13, 43020, Note_on_c, 12, 63, 64
13, 43080, Note_on_c, 12, 63, 0
13, 43080, Note_on_c, 12, 64, 64
13, 43110, Note_on_c, 12, 64, 0
13, 43110, Note_on_c, 12, 62, 64
13, 43140, Note_on_c, 12, 62, 0
13, 43140, Note_on_c, 12, 60, 64
13, 43230, Note_on_c, 12, 60, 0
13, 43230, Note_on_c, 12, 59, 64
13, 43260, Note_on_c, 12, 59, 0
13, 43260, Note_on_c, 12, 58, 64
13, 43290, Note_on_c, 12, 58, 0
13, 43290, Note_on_c, 12, 59, 64
13, 43320, Note_on_c, 12, 59, 0
13, 43320, Note_on_c, 12, 58, 64
13, 43355, Note_on_c, 12, 58, 0
13, 43380, Note_on_c, 12, 67, 64
13, 43440, Note_on_c, 12, 67, 0
13, 43440, Note_on_c, 12, 66, 64
13, 43500, Note_on_c, 12, 66, 0
13, 43500, Note_on_c, 12, 64, 64
13, 43560, Note_on_c, 12, 64, 0
13, 43560, Note_on_c, 12, 62, 64
13, 43620, Note_on_c, 12, 62, 0
13, 43620, Note_on_c, 12, 61, 64
13, 43650, Note_on_c, 12, 61, 0
13, 43650, Note_on_c, 12, 59, 64
13, 43680, Note_on_c, 12, 59, 0
13, 43680, Note_on_c, 12, 66, 64
13, 43920, Note_on_c, 12, 66, 0
13, 43920, Note_on_c, 12, 65, 64
13, 44040, Note_on_c, 12, 65, 0
13, 44040, Note_on_c, 12, 66, 64
13, 44160, Note_on_c, 12, 66, 0
13, 44580, Note_on_c, 12, 54, 64
13, 44640, Note_on_c, 12, 54, 0
13, 44640, Note_on_c, 12, 53, 64
13, 44700, Note_on_c, 12, 53, 0
13, 44700, Note_on_c, 12, 56, 64
13, 44760, Note_on_c, 12, 56, 0
13, 44760, Note_on_c, 12, 49, 64
13, 44880, Note_on_c, 12, 49, 0
13, 44940, Note_on_c, 12, 57, 64
13, 45000, Note_on_c, 12, 57, 0
13, 45000, Note_on_c, 12, 59, 64
13, 45060, Note_on_c, 12, 59, 0
13, 45060, Note_on_c, 12, 61, 64
13, 45120, Note_on_c, 12, 61, 0
13, 45120, Note_on_c, 12, 62, 64
13, 45180, Note_on_c, 12, 62, 0
13, 45180, Note_on_c, 12, 56, 64
13, 45240, Note_on_c, 12, 56, 0
13, 45240, Note_on_c, 12, 57, 64
13, 45300, Note_on_c, 12, 57, 0
13, 45300, Note_on_c, 12, 61, 64
13, 45360, Note_on_c, 12, 61, 0
13, 45360, Note_on_c, 12, 59, 64
13, 45420, Note_on_c, 12, 59, 0
13, 45420, Note_on_c, 12, 64, 64
13, 45450, Note_on_c, 12, 64, 0
13, 45450, Note_on_c, 12, 62, 64
13, 45480, Note_on_c, 12, 62, 0
13, 45480, Note_on_c, 12, 61, 64
13, 45540, Note_on_c, 12, 61, 0
13, 45540, Note_on_c, 12, 62, 64
13, 45600, Note_on_c, 12, 62, 0
13, 45600, Note_on_c, 12, 64, 64
13, 45660, Note_on_c, 12, 64, 0
13, 45660, Note_on_c, 12, 58, 64
13, 45720, Note_on_c, 12, 58, 0
13, 45720, Note_on_c, 12, 59, 64
13, 45840, Note_on_c, 12, 59, 0
13, 45900, Note_on_c, 12, 54, 64
13, 45960, Note_on_c, 12, 54, 0
13, 45960, Note_on_c, 12, 61, 64
13, 46020, Note_on_c, 12, 61, 0
13, 46020, Note_on_c, 12, 61, 64
13, 46080, Note_on_c, 12, 61, 0
13, 46080, Note_on_c, 12, 56, 64
13, 46140, Note_on_c, 12, 56, 0
13, 46140, Note_on_c, 12, 57, 64
13, 46170, Note_on_c, 12, 57, 0
13, 46170, Note_on_c, 12, 59, 64
13, 46200, Note_on_c, 12, 59, 0
13, 46200, Note_on_c, 12, 61, 64
13, 46380, Note_on_c, 12, 61, 0
13, 46380, Note_on_c, 12, 59, 64
13, 46410, Note_on_c, 12, 59, 0
13, 46410, Note_on_c, 12, 57, 64
13, 46440, Note_on_c, 12, 57, 0
13, 46440, Note_on_c, 12, 59, 64
13, 46800, Note_on_c, 12, 59, 0
13, 46800, Note_on_c, 12, 57, 64
13, 46860, Note_on_c, 12, 57, 0
13, 46860, Note_on_c, 12, 55, 64
13, 46920, Note_on_c, 12, 55, 0
13, 46920, Note_on_c, 12, 54, 64
13, 47160, Note_on_c, 12, 54, 0
13, 47160, Note_on_c, 12, 52, 64
13, 47220, Note_on_c, 12, 52, 0
13, 47220, Note_on_c, 12, 51, 64
13, 47280, Note_on_c, 12, 51, 0
13, 47280, Note_on_c, 12, 52, 64
13, 47315, Note_on_c, 12, 52, 0
13, 47340, Note_on_c, 12, 59, 64
13, 47400, Note_on_c, 12, 59, 0
13, 47400, Note_on_c, 12, 64, 64
13, 47460, Note_on_c, 12, 64, 0
13, 47460, Note_on_c, 12, 62, 64
13, 47520, Note_on_c, 12, 62, 0
13, 47520, Note_on_c, 12, 60, 64
13, 47580, Note_on_c, 12, 60, 0
13, 47580, Note_on_c, 12, 57, 64
13, 47640, Note_on_c, 12, 57, 0
13, 47640, Note_on_c, 12, 66, 64
13, 47675, Note_on_c, 12, 66, 0
13, 47700, Note_on_c, 12, 63, 65
13, 47760, Note_on_c, 12, 63, 0
13, 47760, Note_on_c, 12, 64, 65
13, 47820, Note_on_c, 12, 64, 0
13, 47820, Note_on_c, 12, 66, 66
13, 47880, Note_on_c, 12, 66, 0
13, 47880, Note_on_c, 12, 67, 67
13, 47940, Note_on_c, 12, 67, 0
13, 47940, Note_on_c, 12, 69, 67
13, 48000, Note_on_c, 12, 69, 0
13, 48000, Note_on_c, 12, 71, 68
13, 48060, Note_on_c, 12, 71, 0
13, 48060, Note_on_c, 12, 69, 69
13, 48120, Note_on_c, 12, 69, 0
13, 48120, Note_on_c, 12, 68, 69
13, 48180, Note_on_c, 12, 68, 0
13, 48180, Note_on_c, 12, 66, 70
13, 48240, Note_on_c, 12, 66, 0
13, 48240, Note_on_c, 12, 64, 71
13, 48300, Note_on_c, 12, 64, 0
13, 48300, Note_on_c, 12, 59, 71
13, 48360, Note_on_c, 12, 59, 0
13, 48360, Note_on_c, 12, 57, 72
13, 48420, Note_on_c, 12, 57, 0
13, 48420, Note_on_c, 12, 59, 73
13, 48480, Note_on_c, 12, 59, 0
13, 48480, Note_on_c, 12, 61, 73
13, 48540, Note_on_c, 12, 61, 0
13, 48540, Note_on_c, 12, 59, 74
13, 48600, Note_on_c, 12, 59, 0
13, 48600, Note_on_c, 12, 58, 75
13, 48660, Note_on_c, 12, 58, 0
13, 48660, Note_on_c, 12, 56, 75
13, 48720, Note_on_c, 12, 56, 0
13, 48720, Note_on_c, 12, 54, 76
13, 48780, Note_on_c, 12, 54, 0
13, 48780, Note_on_c, 12, 61, 77
13, 48840, Note_on_c, 12, 61, 0
13, 48840, Note_on_c, 12, 59, 77
13, 48900, Note_on_c, 12, 59, 0
13, 48900, Note_on_c, 12, 61, 78
13, 48960, Note_on_c, 12, 61, 0
13, 48960, Note_on_c, 12, 62, 79
13, 48990, Note_on_c, 12, 62, 0
13, 48990, Note_on_c, 12, 64, 79
13, 49020, Note_on_c, 12, 64, 0
13, 49020, Note_on_c, 12, 66, 79
13, 49080, Note_on_c, 12, 66, 0
13, 49080, Note_on_c, 12, 59, 80
13, 49200, Note_on_c, 12, 59, 0
13, 49200, Note_on_c, 12, 71, 77
13, 49440, Note_on_c, 12, 71, 0
13, 49440, Note_on_c, 12, 70, 72
13, 49560, Note_on_c, 12, 70, 0
13, 49560, Note_on_c, 12, 71, 64
13, 49620, Note_on_c, 12, 71, 0
13, 49620, Note_on_c, 12, 64, 64
13, 49680, Note_on_c, 12, 64, 0
13, 49680, Note_on_c, 12, 63, 64
13, 49715, Note_on_c, 12, 63, 0
13, 49740, Note_on_c, 12, 66, 64
13, 49800, Note_on_c, 12, 66, 0
13, 49800, Note_on_c, 12, 67, 64
13, 50040, Note_on_c, 12, 67, 0
13, 50040, Note_on_c, 12, 61, 64
13, 50160, Note_on_c, 12, 61, 0
13, 50160, Note_on_c, 12, 66, 64
13, 50340, Note_on_c, 12, 66, 0
13, 50340, Note_on_c, 12, 68, 64
13, 50400, Note_on_c, 12, 68, 0
13, 50400, Note_on_c, 12, 69, 64
13, 50460, Note_on_c, 12, 69, 0
13, 50460, Note_on_c, 12, 66, 64
13, 50520, Note_on_c, 12, 66, 0
13, 50520, Note_on_c, 12, 74, 64
13, 50580, Note_on_c, 12, 74, 0
13, 50580, Note_on_c, 12, 71, 64
13, 50640, Note_on_c, 12, 71, 0
13, 50640, Note_on_c, 12, 68, 64
13, 50700, Note_on_c, 12, 68, 0
13, 50700, Note_on_c, 12, 73, 64
13, 50820, Note_on_c, 12, 73, 0
13, 50820, Note_on_c, 12, 71, 64
13, 50880, Note_on_c, 12, 71, 0
13, 50880, Note_on_c, 12, 73, 64
13, 50940, Note_on_c, 12, 73, 0
13, 50940, Note_on_c, 12, 66, 64
13, 51060, Note_on_c, 12, 66, 0
13, 51060, Note_on_c, 12, 67, 64
13, 51180, Note_on_c, 12, 67, 0
13, 51180, Note_on_c, 12, 69, 64
13, 51240, Note_on_c, 12, 69, 0
13, 51240, Note_on_c, 12, 71, 64
13, 51360, Note_on_c, 12, 71, 0
13, 51360, Note_on_c, 12, 73, 64
13, 51480, Note_on_c, 12, 73, 0
13, 51480, Note_on_c, 12, 61, 64
13, 51600, Note_on_c, 12, 61, 0
13, 51660, Note_on_c, 12, 69, 64
13, 51720, Note_on_c, 12, 69, 0
13, 51720, Note_on_c, 12, 71, 64
13, 51840, Note_on_c, 12, 71, 0
13, 51900, Note_on_c, 12, 74, 64
13, 51960, Note_on_c, 12, 74, 0
13, 51960, Note_on_c, 12, 68, 64
13, 52080, Note_on_c, 12, 68, 0
13, 52140, Note_on_c, 12, 65, 64
13, 52200, Note_on_c, 12, 65, 0
13, 52200, Note_on_c, 12, 61, 64
13, 52320, Note_on_c, 12, 61, 0
13, 52380, Note_on_c, 12, 73, 64
13, 52440, Note_on_c, 12, 73, 0
13, 52440, Note_on_c, 12, 66, 64
13, 52560, Note_on_c, 12, 66, 0
13, 52620, Note_on_c, 12, 61, 64
13, 52680, Note_on_c, 12, 61, 0
13, 52680, Note_on_c, 12, 68, 64
13, 52800, Note_on_c, 12, 68, 0
13, 52860, Note_on_c, 12, 62, 64
13, 52920, Note_on_c, 12, 62, 0
13, 52920, Note_on_c, 12, 61, 64
13, 53040, Note_on_c, 12, 61, 0
13, 53100, Note_on_c, 12, 66, 64
13, 53160, Note_on_c, 12, 66, 0
13, 53160, Note_on_c, 12, 61, 64
13, 53220, Note_on_c, 12, 61, 0
13, 53220, Note_on_c, 12, 59, 64
13, 53250, Note_on_c, 12, 59, 0
13, 53250, Note_on_c, 12, 57, 64
13, 53280, Note_on_c, 12, 57, 0
13, 53280, Note_on_c, 12, 56, 64
13, 53340, Note_on_c, 12, 56, 0
13, 53340, Note_on_c, 12, 61, 64
13, 53400, Note_on_c, 12, 61, 0
13, 53400, Note_on_c, 12, 65, 64
13, 53435, Note_on_c, 12, 65, 0
13, 53460, Note_on_c, 12, 56, 64
13, 53520, Note_on_c, 12, 56, 0
13, 53520, Note_on_c, 12, 61, 64
13, 53580, Note_on_c, 12, 61, 0
13, 53580, Note_on_c, 12, 65, 64
13, 53640, Note_on_c, 12, 65, 0
13, 53640, Note_on_c, 12, 69, 64
13, 53700, Note_on_c, 12, 69, 0
13, 53700, Note_on_c, 12, 66, 64
13, 53760, Note_on_c, 12, 66, 0
13, 53760, Note_on_c, 12, 61, 64
13, 53880, Note_on_c, 12, 61, 0
13, 53880, Note_on_c, 12, 61, 40
13, 54000, Note_on_c, 12, 61, 0
13, 54060, Note_on_c, 12, 69, 43
13, 54120, Note_on_c, 12, 69, 0
13, 54120, Note_on_c, 12, 66, 44
13, 54240, Note_on_c, 12, 66, 0
13, 54300, Note_on_c, 12, 71, 48
13, 54360, Note_on_c, 12, 71, 0
13, 54360, Note_on_c, 12, 71, 49
13, 54480, Note_on_c, 12, 71, 0
13, 54540, Note_on_c, 12, 64, 52
13, 54600, Note_on_c, 12, 64, 0
13, 54600, Note_on_c, 12, 61, 53
13, 54720, Note_on_c, 12, 61, 0
13, 54780, Note_on_c, 12, 66, 56
13, 54840, Note_on_c, 12, 66, 0
13, 54840, Note_on_c, 12, 66, 58
13, 54960, Note_on_c, 12, 66, 0
13, 55020, Note_on_c, 12, 71, 61
13, 55080, Note_on_c, 12, 71, 0
13, 55080, Note_on_c, 12, 68, 62
13, 55200, Note_on_c, 12, 68, 0
13, 55260, Note_on_c, 12, 73, 65
13, 55320, Note_on_c, 12, 73, 0
13, 55320, Note_on_c, 12, 73, 66
13, 55440, Note_on_c, 12, 73, 0
13, 55500, Note_on_c, 12, 64, 70
13, 55560, Note_on_c, 12, 64, 0
13, 55560, Note_on_c, 12, 59, 71
13, 55680, Note_on_c, 12, 59, 0
13, 55740, Note_on_c, 12, 63, 74
13, 55800, Note_on_c, 12, 63, 0
13, 55800, Note_on_c, 12, 59, 75
13, 55871, Note_on_c, 12, 59, 0
13, 55980, Note_on_c, 12, 61, 75
13, 56015, Note_on_c, 12, 61, 0
13, 56040, Note_on_c, 12, 59, 75
13, 56111, Note_on_c, 12, 59, 0
13, 56220, Note_on_c, 12, 56, 75
13, 56255, Note_on_c, 12, 56, 0
13, 56280, Note_on_c, 12, 58, 75
13, 56351, Note_on_c, 12, 58, 0
13, 56460, Note_on_c, 12, 54, 75
13, 56495, Note_on_c, 12, 54, 0
13, 56520, Note_on_c, 12, 56, 75
13, 56591, Note_on_c, 12, 56, 0
13, 56700, Note_on_c, 12, 52, 75
13, 56735, Note_on_c, 12, 52, 0
13, 56760, Note_on_c, 12, 54, 75
13, 56831, Note_on_c, 12, 54, 0
13, 56940, Note_on_c, 12, 55, 67
13, 56975, Note_on_c, 12, 55, 0
13, 57000, Note_on_c, 12, 55, 65
13, 57071, Note_on_c, 12, 55, 0
13, 57180, Note_on_c, 12, 54, 57
13, 57215, Note_on_c, 12, 54, 0
13, 57240, Note_on_c, 12, 54, 55
13, 57360, Note_on_c, 12, 54, 0
13, 57420, Note_on_c, 12, 67, 57
13, 57480, Note_on_c, 12, 67, 0
13, 57480, Note_on_c, 12, 67, 57
13, 57660, Note_on_c, 12, 67, 0
13, 57660, Note_on_c, 12, 66, 59
13, 57690, Note_on_c, 12, 66, 0
13, 57690, Note_on_c, 12, 64, 59
13, 57720, Note_on_c, 12, 64, 0
13, 57720, Note_on_c, 12, 62, 60
13, 57840, Note_on_c, 12, 62, 0
13, 57900, Note_on_c, 12, 59, 61
13, 57960, Note_on_c, 12, 59, 0
13, 57960, Note_on_c, 12, 64, 62
13, 58080, Note_on_c, 12, 64, 0
13, 58140, Note_on_c, 12, 71, 63
13, 58200, Note_on_c, 12, 71, 0
13, 58200, Note_on_c, 12, 73, 64
13, 58320, Note_on_c, 12, 73, 0
13, 58380, Note_on_c, 12, 70, 64
13, 58440, Note_on_c, 12, 70, 0
13, 58440, Note_on_c, 12, 66, 64
13, 58560, Note_on_c, 12, 66, 0
13, 58620, Note_on_c, 12, 62, 64
13, 58680, Note_on_c, 12, 62, 0
13, 58680, Note_on_c, 12, 64, 64
13, 58800, Note_on_c, 12, 64, 0
13, 58860, Note_on_c, 12, 67, 64
13, 58920, Note_on_c, 12, 67, 0
13, 58920, Note_on_c, 12, 61, 64
13, 59040, Note_on_c, 12, 61, 0
13, 59100, Note_on_c, 12, 70, 64
13, 59160, Note_on_c, 12, 70, 0
13, 59160, Note_on_c, 12, 66, 64
13, 59280, Note_on_c, 12, 66, 0
13, 59340, Note_on_c, 12, 54, 64
13, 59400, Note_on_c, 12, 54, 0
13, 59400, Note_on_c, 12, 59, 64
13, 59520, Note_on_c, 12, 59, 0
13, 59580, Note_on_c, 12, 54, 64
13, 59640, Note_on_c, 12, 54, 0
13, 59640, Note_on_c, 12, 61, 64
13, 59760, Note_on_c, 12, 61, 0
13, 59820, Note_on_c, 12, 55, 67
13, 59880, Note_on_c, 12, 55, 0
13, 59880, Note_on_c, 12, 54, 68
13, 60000, Note_on_c, 12, 54, 0
13, 60060, Note_on_c, 12, 59, 71
13, 60120, Note_on_c, 12, 59, 0
13, 60120, Note_on_c, 12, 66, 72
13, 60180, Note_on_c, 12, 66, 0
13, 60180, Note_on_c, 12, 64, 73
13, 60210, Note_on_c, 12, 64, 0
13, 60210, Note_on_c, 12, 62, 74
13, 60240, Note_on_c, 12, 62, 0
13, 60240, Note_on_c, 12, 61, 74
13, 60300, Note_on_c, 12, 61, 0
13, 60300, Note_on_c, 12, 66, 75
13, 60360, Note_on_c, 12, 66, 0
13, 60360, Note_on_c, 12, 70, 76
13, 60395, Note_on_c, 12, 70, 0
13, 60420, Note_on_c, 12, 61, 77
13, 60480, Note_on_c, 12, 61, 0
13, 60480, Note_on_c, 12, 66, 78
13, 60540, Note_on_c, 12, 66, 0
13, 60540, Note_on_c, 12, 58, 79
13, 60600, Note_on_c, 12, 58, 0
13, 60600, Note_on_c, 12, 62, 80
13, 60660, Note_on_c, 12, 62, 0
13, 60660, Note_on_c, 12, 59, 80
13, 60720, Note_on_c, 12, 59, 0
13, 60720, Note_on_c, 12, 54, 80
13, 60840, Note_on_c, 12, 54, 0
13, 60840, Note_on_c, 12, 54, 80
13, 61200, Note_on_c, 12, 54, 0
13, 61560, End_track
14, 0, Start_track
14, 0, MIDI_port, 0
14, 0, Title_t, "Cello"
14, 0, Program_c, 13, 48
14, 480, Control_c, 13, 7, 100
14, 480, Note_on_c, 13, 47, 64
14, 720, Note_on_c, 13, 47, 0
14, 720, Note_on_c, 13, 49, 64
14, 840, Note_on_c, 13, 49, 0
14, 960, Note_on_c, 13, 51, 64
14, 1200, Note_on_c, 13, 51, 0
14, 1200, Note_on_c, 13, 52, 64
14, 1320, Note_on_c, 13, 52, 0
14, 1440, Note_on_c, 13, 58, 64
14, 1680, Note_on_c, 13, 58, 0
14, 1680, Note_on_c, 13, 59, 64
14, 1800, Note_on_c, 13, 59, 0
14, 1860, Note_on_c, 13, 57, 64
14, 1920, Note_on_c, 13, 57, 0
14, 1920, Note_on_c, 13, 55, 64
14, 2160, Note_on_c, 13, 55, 0
14, 2160, Note_on_c, 13, 54, 70
14, 2400, Note_on_c, 13, 54, 0
14, 2520, Control_c, 13, 7, 70
14, 2520, Note_on_c, 13, 47, 64
14, 2640, Note_on_c, 13, 47, 0
14, 2640, Note_on_c, 13, 50, 64
14, 2760, Note_on_c, 13, 50, 0
14, 2760, Note_on_c, 13, 52, 64
14, 2880, Note_on_c, 13, 52, 0
14, 2880, Note_on_c, 13, 54, 64
14, 3000, Note_on_c, 13, 54, 0
14, 3000, Note_on_c, 13, 47, 64
14, 3120, Note_on_c, 13, 47, 0
14, 3120, Note_on_c, 13, 57, 64
14, 3240, Note_on_c, 13, 57, 0
14, 3240, Note_on_c, 13, 55, 64
14, 3300, Note_on_c, 13, 55, 0
14, 3300, Note_on_c, 13, 52, 64
14, 3360, Note_on_c, 13, 52, 0
14, 3360, Note_on_c, 13, 54, 64
14, 3420, Note_on_c, 13, 54, 0
14, 3420, Note_on_c, 13, 55, 64
14, 3480, Note_on_c, 13, 55, 0
14, 3480, Note_on_c, 13, 54, 64
14, 3540, Note_on_c, 13, 54, 0
14, 3540, Note_on_c, 13, 52, 64
14, 3600, Note_on_c, 13, 52, 0
14, 3600, Note_on_c, 13, 50, 64
14, 3660, Note_on_c, 13, 50, 0
14, 3660, Note_on_c, 13, 49, 64
14, 3720, Note_on_c, 13, 49, 0
14, 3720, Note_on_c, 13, 47, 64
14, 3840, Note_on_c, 13, 47, 0
14, 3840, Note_on_c, 13, 45, 64
14, 3960, Note_on_c, 13, 45, 0
14, 3960, Note_on_c, 13, 47, 64
14, 4080, Note_on_c, 13, 47, 0
14, 4080, Note_on_c, 13, 49, 64
14, 4200, Note_on_c, 13, 49, 0
14, 4200, Note_on_c, 13, 42, 64
14, 4320, Note_on_c, 13, 42, 0
14, 4320, Note_on_c, 13, 52, 64
14, 4440, Note_on_c, 13, 52, 0
14, 4440, Note_on_c, 13, 50, 64
14, 4500, Note_on_c, 13, 50, 0
14, 4500, Note_on_c, 13, 47, 64
14, 4560, Note_on_c, 13, 47, 0
14, 4560, Note_on_c, 13, 59, 64
14, 4620, Note_on_c, 13, 59, 0
14, 4620, Note_on_c, 13, 61, 64
14, 4680, Note_on_c, 13, 61, 0
14, 4680, Note_on_c, 13, 62, 64
14, 4800, Note_on_c, 13, 62, 0
14, 4800, Note_on_c, 13, 53, 64
14, 4920, Note_on_c, 13, 53, 0
14, 4920, Note_on_c, 13, 54, 64
14, 4980, Note_on_c, 13, 54, 0
14, 4980, Note_on_c, 13, 56, 64
14, 5040, Note_on_c, 13, 56, 0
14, 5040, Note_on_c, 13, 57, 64
14, 5100, Note_on_c, 13, 57, 0
14, 5100, Note_on_c, 13, 54, 64
14, 5160, Note_on_c, 13, 54, 0
14, 5160, Note_on_c, 13, 59, 64
14, 5220, Note_on_c, 13, 59, 0
14, 5220, Note_on_c, 13, 57, 64
14, 5280, Note_on_c, 13, 57, 0
14, 5280, Note_on_c, 13, 56, 64
14, 5340, Note_on_c, 13, 56, 0
14, 5340, Note_on_c, 13, 54, 64
14, 5400, Note_on_c, 13, 54, 0
14, 5400, Note_on_c, 13, 53, 64
14, 5460, Note_on_c, 13, 53, 0
14, 5460, Note_on_c, 13, 51, 64
14, 5520, Note_on_c, 13, 51, 0
14, 5520, Note_on_c, 13, 53, 64
14, 5580, Note_on_c, 13, 53, 0
14, 5580, Note_on_c, 13, 49, 64
14, 5640, Note_on_c, 13, 49, 0
14, 5640, Note_on_c, 13, 54, 64
14, 5700, Note_on_c, 13, 54, 0
14, 5700, Note_on_c, 13, 52, 64
14, 5760, Note_on_c, 13, 52, 0
14, 5760, Note_on_c, 13, 50, 64
14, 5820, Note_on_c, 13, 50, 0
14, 5820, Note_on_c, 13, 49, 64
14, 5880, Note_on_c, 13, 49, 0
14, 5880, Note_on_c, 13, 47, 64
14, 6000, Note_on_c, 13, 47, 0
14, 6000, Note_on_c, 13, 49, 64
14, 6120, Note_on_c, 13, 49, 0
14, 6120, Note_on_c, 13, 50, 64
14, 6240, Note_on_c, 13, 50, 0
14, 6240, Note_on_c, 13, 49, 64
14, 6300, Note_on_c, 13, 49, 0
14, 6300, Note_on_c, 13, 47, 64
14, 6360, Note_on_c, 13, 47, 0
14, 6360, Note_on_c, 13, 45, 64
14, 6420, Note_on_c, 13, 45, 0
14, 6420, Note_on_c, 13, 44, 64
14, 6480, Note_on_c, 13, 44, 0
14, 6480, Note_on_c, 13, 45, 64
14, 6540, Note_on_c, 13, 45, 0
14, 6540, Note_on_c, 13, 47, 64
14, 6600, Note_on_c, 13, 47, 0
14, 6600, Note_on_c, 13, 49, 64
14, 7140, Note_on_c, 13, 49, 0
14, 7140, Note_on_c, 13, 47, 64
14, 7200, Note_on_c, 13, 47, 0
14, 7200, Note_on_c, 13, 49, 64
14, 7260, Note_on_c, 13, 49, 0
14, 7260, Note_on_c, 13, 37, 64
14, 7320, Note_on_c, 13, 37, 0
14, 7320, Note_on_c, 13, 42, 40
14, 7380, Note_on_c, 13, 42, 0
14, 7380, Note_on_c, 13, 54, 41
14, 7500, Note_on_c, 13, 54, 0
14, 7500, Note_on_c, 13, 55, 42
14, 7530, Note_on_c, 13, 55, 0
14, 7530, Note_on_c, 13, 57, 43
14, 7560, Note_on_c, 13, 57, 0
14, 7560, Note_on_c, 13, 59, 43
14, 7680, Note_on_c, 13, 59, 0
14, 7680, Note_on_c, 13, 47, 45
14, 7800, Note_on_c, 13, 47, 0
14, 7800, Note_on_c, 13, 52, 46
14, 7980, Note_on_c, 13, 52, 0
14, 7980, Note_on_c, 13, 50, 48
14, 8010, Note_on_c, 13, 50, 0
14, 8010, Note_on_c, 13, 52, 49
14, 8040, Note_on_c, 13, 52, 0
14, 8040, Note_on_c, 13, 54, 49
14, 8160, Note_on_c, 13, 54, 0
14, 8160, Note_on_c, 13, 42, 51
14, 8280, Note_on_c, 13, 42, 0
14, 8280, Note_on_c, 13, 47, 52
14, 8460, Note_on_c, 13, 47, 0
14, 8460, Note_on_c, 13, 45, 54
14, 8490, Note_on_c, 13, 45, 0
14, 8490, Note_on_c, 13, 47, 55
14, 8520, Note_on_c, 13, 47, 0
14, 8520, Note_on_c, 13, 49, 55
14, 8640, Note_on_c, 13, 49, 0
14, 8640, Note_on_c, 13, 37, 57
14, 8760, Note_on_c, 13, 37, 0
14, 8760, Note_on_c, 13, 42, 58
14, 8940, Note_on_c, 13, 42, 0
14, 8940, Note_on_c, 13, 43, 60
14, 8970, Note_on_c, 13, 43, 0
14, 8970, Note_on_c, 13, 45, 61
14, 9000, Note_on_c, 13, 45, 0
14, 9000, Note_on_c, 13, 47, 61
14, 9120, Note_on_c, 13, 47, 0
14, 9120, Note_on_c, 13, 59, 63
14, 9240, Note_on_c, 13, 59, 0
14, 9240, Note_on_c, 13, 52, 64
14, 9311, Note_on_c, 13, 52, 0
14, 9420, Note_on_c, 13, 52, 64
14, 9431, Note_on_c, 13, 52, 0
14, 9480, Note_on_c, 13, 50, 64
14, 9551, Note_on_c, 13, 50, 0
14, 9660, Note_on_c, 13, 49, 64
14, 9695, Note_on_c, 13, 49, 0
14, 9720, Note_on_c, 13, 54, 64
14, 9791, Note_on_c, 13, 54, 0
14, 9900, Note_on_c, 13, 47, 64
14, 9935, Note_on_c, 13, 47, 0
14, 9960, Note_on_c, 13, 52, 64
14, 10031, Note_on_c, 13, 52, 0
14, 10140, Note_on_c, 13, 45, 64
14, 10175, Note_on_c, 13, 45, 0
14, 10200, Note_on_c, 13, 50, 70
14, 10271, Note_on_c, 13, 50, 0
14, 10380, Note_on_c, 13, 55, 62
14, 10415, Note_on_c, 13, 55, 0
14, 10440, Note_on_c, 13, 49, 60
14, 10511, Note_on_c, 13, 49, 0
14, 10620, Note_on_c, 13, 54, 52
14, 10655, Note_on_c, 13, 54, 0
14, 10680, Note_on_c, 13, 47, 70
14, 10770, Note_on_c, 13, 47, 0
14, 10770, Note_on_c, 13, 47, 70
14, 10800, Note_on_c, 13, 47, 0
14, 10800, Note_on_c, 13, 47, 70
14, 10835, Note_on_c, 13, 47, 0
14, 10860, Note_on_c, 13, 47, 70
14, 10920, Note_on_c, 13, 47, 0
14, 10920, Note_on_c, 13, 49, 70
14, 10980, Note_on_c, 13, 49, 0
14, 10980, Note_on_c, 13, 43, 70
14, 11040, Note_on_c, 13, 43, 0
14, 11040, Note_on_c, 13, 42, 70
14, 11075, Note_on_c, 13, 42, 0
14, 11100, Note_on_c, 13, 49, 70
14, 11160, Note_on_c, 13, 49, 0
14, 11160, Note_on_c, 13, 50, 70
14, 11220, Note_on_c, 13, 50, 0
14, 11220, Note_on_c, 13, 43, 70
14, 11280, Note_on_c, 13, 43, 0
14, 11280, Note_on_c, 13, 42, 70
14, 11315, Note_on_c, 13, 42, 0
14, 11340, Note_on_c, 13, 51, 70
14, 11400, Note_on_c, 13, 51, 0
14, 11400, Note_on_c, 13, 52, 70
14, 11430, Note_on_c, 13, 52, 0
14, 11430, Note_on_c, 13, 50, 70
14, 11460, Note_on_c, 13, 50, 0
14, 11460, Note_on_c, 13, 48, 70
14, 11550, Note_on_c, 13, 48, 0
14, 11550, Note_on_c, 13, 47, 70
14, 11580, Note_on_c, 13, 47, 0
14, 11580, Note_on_c, 13, 46, 70
14, 11610, Note_on_c, 13, 46, 0
14, 11610, Note_on_c, 13, 47, 70
14, 11640, Note_on_c, 13, 47, 0
14, 11640, Note_on_c, 13, 46, 64
14, 11675, Note_on_c, 13, 46, 0
14, 11700, Note_on_c, 13, 44, 64
14, 11760, Note_on_c, 13, 44, 0
14, 11760, Note_on_c, 13, 46, 64
14, 11820, Note_on_c, 13, 46, 0
14, 11820, Note_on_c, 13, 42, 64
14, 11880, Note_on_c, 13, 42, 0
14, 11880, Note_on_c, 13, 47, 64
14, 11940, Note_on_c, 13, 47, 0
14, 11940, Note_on_c, 13, 49, 64
14, 12000, Note_on_c, 13, 49, 0
14, 12000, Note_on_c, 13, 50, 64
14, 12060, Note_on_c, 13, 50, 0
14, 12060, Note_on_c, 13, 47, 64
14, 12120, Note_on_c, 13, 47, 0
14, 12120, Note_on_c, 13, 52, 64
14, 12180, Note_on_c, 13, 52, 0
14, 12180, Note_on_c, 13, 54, 64
14, 12240, Note_on_c, 13, 54, 0
14, 12240, Note_on_c, 13, 55, 64
14, 12300, Note_on_c, 13, 55, 0
14, 12300, Note_on_c, 13, 52, 64
14, 12360, Note_on_c, 13, 52, 0
14, 12360, Note_on_c, 13, 58, 64
14, 12420, Note_on_c, 13, 58, 0
14, 12420, Note_on_c, 13, 56, 64
14, 12480, Note_on_c, 13, 56, 0
14, 12480, Note_on_c, 13, 58, 64
14, 12540, Note_on_c, 13, 58, 0
14, 12540, Note_on_c, 13, 54, 64
14, 12600, Note_on_c, 13, 54, 0
14, 12600, Note_on_c, 13, 59, 64
14, 12660, Note_on_c, 13, 59, 0
14, 12660, Note_on_c, 13, 57, 64
14, 12720, Note_on_c, 13, 57, 0
14, 12720, Note_on_c, 13, 55, 64
14, 12780, Note_on_c, 13, 55, 0
14, 12780, Note_on_c, 13, 54, 64
14, 12840, Note_on_c, 13, 54, 0
14, 12840, Note_on_c, 13, 52, 64
14, 12960, Note_on_c, 13, 52, 0
14, 12960, Note_on_c, 13, 54, 64
14, 13080, Note_on_c, 13, 54, 0
14, 13080, Note_on_c, 13, 55, 64
14, 13200, Note_on_c, 13, 55, 0
14, 13200, Note_on_c, 13, 54, 64
14, 13260, Note_on_c, 13, 54, 0
14, 13260, Note_on_c, 13, 52, 64
14, 13320, Note_on_c, 13, 52, 0
14, 13320, Note_on_c, 13, 50, 64
14, 13380, Note_on_c, 13, 50, 0
14, 13380, Note_on_c, 13, 49, 64
14, 13440, Note_on_c, 13, 49, 0
14, 13440, Note_on_c, 13, 50, 64
14, 13500, Note_on_c, 13, 50, 0
14, 13500, Note_on_c, 13, 52, 64
14, 13560, Note_on_c, 13, 52, 0
14, 13560, Note_on_c, 13, 54, 64
14, 14100, Note_on_c, 13, 54, 0
14, 14100, Note_on_c, 13, 52, 64
14, 14160, Note_on_c, 13, 52, 0
14, 14160, Note_on_c, 13, 54, 64
14, 14220, Note_on_c, 13, 54, 0
14, 14220, Note_on_c, 13, 42, 64
14, 14280, Note_on_c, 13, 42, 0
14, 14280, Note_on_c, 13, 47, 64
14, 14640, Note_on_c, 13, 47, 0
14, 14640, Note_on_c, 13, 43, 64
14, 14760, Note_on_c, 13, 43, 0
14, 14760, Note_on_c, 13, 40, 64
14, 14880, Note_on_c, 13, 40, 0
14, 14880, Note_on_c, 13, 42, 64
14, 15000, Note_on_c, 13, 42, 0
14, 15000, Note_on_c, 13, 47, 64
14, 15120, Note_on_c, 13, 47, 0
14, 15120, Note_on_c, 13, 57, 64
14, 15240, Note_on_c, 13, 57, 0
14, 15240, Note_on_c, 13, 55, 64
14, 15300, Note_on_c, 13, 55, 0
14, 15300, Note_on_c, 13, 52, 64
14, 15360, Note_on_c, 13, 52, 0
14, 15360, Note_on_c, 13, 54, 64
14, 15420, Note_on_c, 13, 54, 0
14, 15420, Note_on_c, 13, 55, 64
14, 15480, Note_on_c, 13, 55, 0
14, 15480, Note_on_c, 13, 54, 64
14, 15540, Note_on_c, 13, 54, 0
14, 15540, Note_on_c, 13, 52, 64
14, 15600, Note_on_c, 13, 52, 0
14, 15600, Note_on_c, 13, 50, 64
14, 15660, Note_on_c, 13, 50, 0
14, 15660, Note_on_c, 13, 49, 64
14, 15720, Note_on_c, 13, 49, 0
14, 15720, Note_on_c, 13, 47, 64
14, 15840, Note_on_c, 13, 47, 0
14, 15840, Note_on_c, 13, 45, 64
14, 15960, Note_on_c, 13, 45, 0
14, 15960, Note_on_c, 13, 47, 64
14, 16080, Note_on_c, 13, 47, 0
14, 16080, Note_on_c, 13, 49, 64
14, 16200, Note_on_c, 13, 49, 0
14, 16200, Note_on_c, 13, 42, 64
14, 16320, Note_on_c, 13, 42, 0
14, 16320, Note_on_c, 13, 54, 64
14, 16440, Note_on_c, 13, 54, 0
14, 16440, Note_on_c, 13, 47, 64
14, 16500, Note_on_c, 13, 47, 0
14, 16500, Note_on_c, 13, 49, 64
14, 16560, Note_on_c, 13, 49, 0
14, 16560, Note_on_c, 13, 50, 64
14, 16620, Note_on_c, 13, 50, 0
14, 16620, Note_on_c, 13, 47, 64
14, 16680, Note_on_c, 13, 47, 0
14, 16680, Note_on_c, 13, 49, 64
14, 16800, Note_on_c, 13, 49, 0
14, 16800, Note_on_c, 13, 37, 64
14, 16920, Note_on_c, 13, 37, 0
14, 16920, Note_on_c, 13, 42, 64
14, 17100, Note_on_c, 13, 42, 0
14, 17100, Note_on_c, 13, 43, 64
14, 17130, Note_on_c, 13, 43, 0
14, 17130, Note_on_c, 13, 45, 64
14, 17160, Note_on_c, 13, 45, 0
14, 17160, Note_on_c, 13, 47, 64
14, 17280, Note_on_c, 13, 47, 0
14, 17280, Note_on_c, 13, 59, 64
14, 17400, Note_on_c, 13, 59, 0
14, 17400, Note_on_c, 13, 52, 64
14, 17580, Note_on_c, 13, 52, 0
14, 17580, Note_on_c, 13, 54, 64
14, 17610, Note_on_c, 13, 54, 0
14, 17610, Note_on_c, 13, 55, 64
14, 17640, Note_on_c, 13, 55, 0
14, 17640, Note_on_c, 13, 49, 64
14, 17760, Note_on_c, 13, 49, 0
14, 17760, Note_on_c, 13, 54, 64
14, 17880, Note_on_c, 13, 54, 0
14, 17880, Note_on_c, 13, 47, 64
14, 18000, Note_on_c, 13, 47, 0
14, 18060, Note_on_c, 13, 62, 64
14, 18120, Note_on_c, 13, 62, 0
14, 18120, Note_on_c, 13, 64, 64
14, 18240, Note_on_c, 13, 64, 0
14, 18240, Note_on_c, 13, 66, 64
14, 18360, Note_on_c, 13, 66, 0
14, 18360, Note_on_c, 13, 59, 64
14, 18480, Note_on_c, 13, 59, 0
14, 18540, Note_on_c, 13, 59, 64
14, 18600, Note_on_c, 13, 59, 0
14, 18600, Note_on_c, 13, 52, 64
14, 18660, Note_on_c, 13, 52, 0
14, 18660, Note_on_c, 13, 54, 64
14, 18720, Note_on_c, 13, 54, 0
14, 18720, Note_on_c, 13, 55, 64
14, 18780, Note_on_c, 13, 55, 0
14, 18780, Note_on_c, 13, 52, 64
14, 18840, Note_on_c, 13, 52, 0
14, 18840, Note_on_c, 13, 54, 64
14, 19020, Note_on_c, 13, 54, 0
14, 19020, Note_on_c, 13, 56, 64
14, 19050, Note_on_c, 13, 56, 0
14, 19050, Note_on_c, 13, 58, 64
14, 19080, Note_on_c, 13, 58, 0
14, 19080, Note_on_c, 13, 59, 64
14, 19140, Note_on_c, 13, 59, 0
14, 19140, Note_on_c, 13, 61, 64
14, 19200, Note_on_c, 13, 61, 0
14, 19200, Note_on_c, 13, 62, 64
14, 19260, Note_on_c, 13, 62, 0
14, 19260, Note_on_c, 13, 61, 64
14, 19320, Note_on_c, 13, 61, 0
14, 19320, Note_on_c, 13, 59, 64
14, 19380, Note_on_c, 13, 59, 0
14, 19380, Note_on_c, 13, 57, 64
14, 19410, Note_on_c, 13, 57, 0
14, 19410, Note_on_c, 13, 59, 64
14, 19440, Note_on_c, 13, 59, 0
14, 19440, Note_on_c, 13, 61, 64
14, 19560, Note_on_c, 13, 61, 0
14, 19560, Note_on_c, 13, 54, 64
14, 19620, Note_on_c, 13, 54, 0
14, 19620, Note_on_c, 13, 56, 64
14, 19680, Note_on_c, 13, 56, 0
14, 19680, Note_on_c, 13, 58, 64
14, 19740, Note_on_c, 13, 58, 0
14, 19740, Note_on_c, 13, 54, 64
14, 19800, Note_on_c, 13, 54, 0
14, 19800, Note_on_c, 13, 59, 64
14, 19980, Note_on_c, 13, 59, 0
14, 19980, Note_on_c, 13, 57, 64
14, 20040, Note_on_c, 13, 57, 0
14, 20040, Note_on_c, 13, 56, 64
14, 20160, Note_on_c, 13, 56, 0
14, 20160, Note_on_c, 13, 49, 64
14, 20280, Note_on_c, 13, 49, 0
14, 20280, Note_on_c, 13, 54, 64
14, 20460, Note_on_c, 13, 54, 0
14, 20460, Note_on_c, 13, 55, 64
14, 20490, Note_on_c, 13, 55, 0
14, 20490, Note_on_c, 13, 57, 64
14, 20520, Note_on_c, 13, 57, 0
14, 20520, Note_on_c, 13, 59, 64
14, 20580, Note_on_c, 13, 59, 0
14, 20580, Note_on_c, 13, 57, 64
14, 20610, Note_on_c, 13, 57, 0
14, 20610, Note_on_c, 13, 55, 64
14, 20640, Note_on_c, 13, 55, 0
14, 20640, Note_on_c, 13, 57, 64
14, 20700, Note_on_c, 13, 57, 0
14, 20700, Note_on_c, 13, 59, 64
14, 20760, Note_on_c, 13, 59, 0
14, 20760, Note_on_c, 13, 52, 64
14, 20940, Note_on_c, 13, 52, 0
14, 20940, Note_on_c, 13, 54, 64
14, 20970, Note_on_c, 13, 54, 0
14, 20970, Note_on_c, 13, 55, 64
14, 21000, Note_on_c, 13, 55, 0
14, 21000, Note_on_c, 13, 57, 64
14, 21060, Note_on_c, 13, 57, 0
14, 21060, Note_on_c, 13, 55, 64
14, 21090, Note_on_c, 13, 55, 0
14, 21090, Note_on_c, 13, 54, 64
14, 21120, Note_on_c, 13, 54, 0
14, 21120, Note_on_c, 13, 55, 64
14, 21180, Note_on_c, 13, 55, 0
14, 21180, Note_on_c, 13, 57, 64
14, 21240, Note_on_c, 13, 57, 0
14, 21240, Note_on_c, 13, 50, 64
14, 21300, Note_on_c, 13, 50, 0
14, 21300, Note_on_c, 13, 62, 64
14, 21420, Note_on_c, 13, 62, 0
14, 21420, Note_on_c, 13, 61, 64
14, 21480, Note_on_c, 13, 61, 0
14, 21480, Note_on_c, 13, 59, 64
14, 21600, Note_on_c, 13, 59, 0
14, 21600, Note_on_c, 13, 61, 64
14, 21660, Note_on_c, 13, 61, 0
14, 21660, Note_on_c, 13, 62, 64
14, 21690, Note_on_c, 13, 62, 0
14, 21690, Note_on_c, 13, 64, 64
14, 21720, Note_on_c, 13, 64, 0
14, 21720, Note_on_c, 13, 66, 64
14, 21840, Note_on_c, 13, 66, 0
14, 21840, Note_on_c, 13, 54, 64
14, 21960, Note_on_c, 13, 54, 0
14, 21960, Note_on_c, 13, 47, 64
14, 22050, Note_on_c, 13, 47, 0
14, 22050, Note_on_c, 13, 47, 64
14, 22080, Note_on_c, 13, 47, 0
14, 22080, Note_on_c, 13, 47, 64
14, 22115, Note_on_c, 13, 47, 0
14, 22140, Note_on_c, 13, 47, 64
14, 22200, Note_on_c, 13, 47, 0
14, 22200, Note_on_c, 13, 49, 64
14, 22260, Note_on_c, 13, 49, 0
14, 22260, Note_on_c, 13, 43, 64
14, 22320, Note_on_c, 13, 43, 0
14, 22320, Note_on_c, 13, 42, 64
14, 22355, Note_on_c, 13, 42, 0
14, 22380, Note_on_c, 13, 49, 64
14, 22440, Note_on_c, 13, 49, 0
14, 22440, Note_on_c, 13, 50, 64
14, 22500, Note_on_c, 13, 50, 0
14, 22500, Note_on_c, 13, 43, 64
14, 22560, Note_on_c, 13, 43, 0
14, 22560, Note_on_c, 13, 42, 64
14, 22595, Note_on_c, 13, 42, 0
14, 22620, Note_on_c, 13, 51, 64
14, 22680, Note_on_c, 13, 51, 0
14, 22680, Note_on_c, 13, 52, 64
14, 22710, Note_on_c, 13, 52, 0
14, 22710, Note_on_c, 13, 50, 64
14, 22740, Note_on_c, 13, 50, 0
14, 22740, Note_on_c, 13, 48, 64
14, 22830, Note_on_c, 13, 48, 0
14, 22830, Note_on_c, 13, 47, 64
14, 22860, Note_on_c, 13, 47, 0
14, 22860, Note_on_c, 13, 46, 64
14, 22890, Note_on_c, 13, 46, 0
14, 22890, Note_on_c, 13, 47, 64
14, 22920, Note_on_c, 13, 47, 0
14, 22920, Note_on_c, 13, 46, 64
14, 22955, Note_on_c, 13, 46, 0
14, 22980, Note_on_c, 13, 55, 64
14, 23040, Note_on_c, 13, 55, 0
14, 23040, Note_on_c, 13, 54, 64
14, 23100, Note_on_c, 13, 54, 0
14, 23100, Note_on_c, 13, 52, 64
14, 23160, Note_on_c, 13, 52, 0
14, 23160, Note_on_c, 13, 50, 64
14, 23220, Note_on_c, 13, 50, 0
14, 23220, Note_on_c, 13, 49, 64
14, 23250, Note_on_c, 13, 49, 0
14, 23250, Note_on_c, 13, 47, 64
14, 23280, Note_on_c, 13, 47, 0
14, 23280, Note_on_c, 13, 54, 64
14, 23520, Note_on_c, 13, 54, 0
14, 23520, Note_on_c, 13, 53, 64
14, 23640, Note_on_c, 13, 53, 0
14, 23640, Note_on_c, 13, 54, 64
14, 23760, Note_on_c, 13, 54, 0
14, 23820, Note_on_c, 13, 52, 64
14, 23880, Note_on_c, 13, 52, 0
14, 23880, Note_on_c, 13, 50, 64
14, 23940, Note_on_c, 13, 50, 0
14, 23940, Note_on_c, 13, 47, 64
14, 24000, Note_on_c, 13, 47, 0
14, 24000, Note_on_c, 13, 49, 64
14, 24060, Note_on_c, 13, 49, 0
14, 24060, Note_on_c, 13, 50, 64
14, 24120, Note_on_c, 13, 50, 0
14, 24120, Note_on_c, 13, 49, 64
14, 24180, Note_on_c, 13, 49, 0
14, 24180, Note_on_c, 13, 47, 64
14, 24240, Note_on_c, 13, 47, 0
14, 24240, Note_on_c, 13, 45, 64
14, 24300, Note_on_c, 13, 45, 0
14, 24300, Note_on_c, 13, 44, 64
14, 24360, Note_on_c, 13, 44, 0
14, 24360, Note_on_c, 13, 42, 64
14, 24480, Note_on_c, 13, 42, 0
14, 24480, Note_on_c, 13, 40, 64
14, 24600, Note_on_c, 13, 40, 0
14, 24600, Note_on_c, 13, 42, 64
14, 24720, Note_on_c, 13, 42, 0
14, 24720, Note_on_c, 13, 44, 64
14, 24840, Note_on_c, 13, 44, 0
14, 24840, Note_on_c, 13, 37, 64
14, 24960, Note_on_c, 13, 37, 0
14, 24960, Note_on_c, 13, 47, 64
14, 25080, Note_on_c, 13, 47, 0
14, 25080, Note_on_c, 13, 45, 64
14, 25140, Note_on_c, 13, 45, 0
14, 25140, Note_on_c, 13, 42, 64
14, 25200, Note_on_c, 13, 42, 0
14, 25200, Note_on_c, 13, 54, 64
14, 25260, Note_on_c, 13, 54, 0
14, 25260, Note_on_c, 13, 56, 64
14, 25320, Note_on_c, 13, 56, 0
14, 25320, Note_on_c, 13, 57, 64
14, 25440, Note_on_c, 13, 57, 0
14, 25440, Note_on_c, 13, 48, 64
14, 25560, Note_on_c, 13, 48, 0
14, 25560, Note_on_c, 13, 49, 64
14, 25620, Note_on_c, 13, 49, 0
14, 25620, Note_on_c, 13, 51, 64
14, 25680, Note_on_c, 13, 51, 0
14, 25680, Note_on_c, 13, 52, 64
14, 25740, Note_on_c, 13, 52, 0
14, 25740, Note_on_c, 13, 49, 64
14, 25800, Note_on_c, 13, 49, 0
14, 25800, Note_on_c, 13, 54, 64
14, 25860, Note_on_c, 13, 54, 0
14, 25860, Note_on_c, 13, 52, 64
14, 25920, Note_on_c, 13, 52, 0
14, 25920, Note_on_c, 13, 51, 64
14, 25980, Note_on_c, 13, 51, 0
14, 25980, Note_on_c, 13, 49, 64
14, 26040, Note_on_c, 13, 49, 0
14, 26040, Note_on_c, 13, 48, 64
14, 26100, Note_on_c, 13, 48, 0
14, 26100, Note_on_c, 13, 46, 64
14, 26160, Note_on_c, 13, 46, 0
14, 26160, Note_on_c, 13, 48, 64
14, 26220, Note_on_c, 13, 48, 0
14, 26220, Note_on_c, 13, 44, 64
14, 26280, Note_on_c, 13, 44, 0
14, 26280, Note_on_c, 13, 49, 64
14, 26340, Note_on_c, 13, 49, 0
14, 26340, Note_on_c, 13, 47, 64
14, 26400, Note_on_c, 13, 47, 0
14, 26400, Note_on_c, 13, 45, 64
14, 26460, Note_on_c, 13, 45, 0
14, 26460, Note_on_c, 13, 44, 64
14, 26520, Note_on_c, 13, 44, 0
14, 26520, Note_on_c, 13, 42, 64
14, 26640, Note_on_c, 13, 42, 0
14, 26640, Note_on_c, 13, 44, 64
14, 26760, Note_on_c, 13, 44, 0
14, 26760, Note_on_c, 13, 45, 64
14, 26880, Note_on_c, 13, 45, 0
14, 26880, Note_on_c, 13, 44, 64
14, 26940, Note_on_c, 13, 44, 0
14, 26940, Note_on_c, 13, 42, 64
14, 27000, Note_on_c, 13, 42, 0
14, 27000, Note_on_c, 13, 40, 64
14, 27060, Note_on_c, 13, 40, 0
14, 27060, Note_on_c, 13, 39, 64
14, 27120, Note_on_c, 13, 39, 0
14, 27120, Note_on_c, 13, 40, 64
14, 27180, Note_on_c, 13, 40, 0
14, 27180, Note_on_c, 13, 42, 64
14, 27240, Note_on_c, 13, 42, 0
14, 27240, Note_on_c, 13, 44, 64
14, 27780, Note_on_c, 13, 44, 0
14, 27780, Note_on_c, 13, 42, 64
14, 27840, Note_on_c, 13, 42, 0
14, 27840, Note_on_c, 13, 44, 64
14, 27900, Note_on_c, 13, 44, 0
14, 27900, Note_on_c, 13, 44, 64
14, 27960, Note_on_c, 13, 44, 0
14, 27960, Note_on_c, 13, 49, 40
14, 28140, Note_on_c, 13, 49, 0
14, 28140, Note_on_c, 13, 50, 42
14, 28170, Note_on_c, 13, 50, 0
14, 28170, Note_on_c, 13, 52, 43
14, 28200, Note_on_c, 13, 52, 0
14, 28200, Note_on_c, 13, 54, 43
14, 28320, Note_on_c, 13, 54, 0
14, 28320, Note_on_c, 13, 42, 45
14, 28440, Note_on_c, 13, 42, 0
14, 28440, Note_on_c, 13, 47, 46
14, 28620, Note_on_c, 13, 47, 0
14, 28620, Note_on_c, 13, 45, 48
14, 28650, Note_on_c, 13, 45, 0
14, 28650, Note_on_c, 13, 47, 49
14, 28680, Note_on_c, 13, 47, 0
14, 28680, Note_on_c, 13, 49, 49
14, 28800, Note_on_c, 13, 49, 0
14, 28800, Note_on_c, 13, 37, 51
14, 28920, Note_on_c, 13, 37, 0
14, 28920, Note_on_c, 13, 42, 52
14, 29100, Note_on_c, 13, 42, 0
14, 29100, Note_on_c, 13, 40, 54
14, 29130, Note_on_c, 13, 40, 0
14, 29130, Note_on_c, 13, 42, 55
14, 29160, Note_on_c, 13, 42, 0
14, 29160, Note_on_c, 13, 44, 55
14, 29280, Note_on_c, 13, 44, 0
14, 29280, Note_on_c, 13, 56, 57
14, 29400, Note_on_c, 13, 56, 0
14, 29400, Note_on_c, 13, 49, 58
14, 29580, Note_on_c, 13, 49, 0
14, 29580, Note_on_c, 13, 50, 60
14, 29610, Note_on_c, 13, 50, 0
14, 29610, Note_on_c, 13, 52, 61
14, 29640, Note_on_c, 13, 52, 0
14, 29640, Note_on_c, 13, 54, 61
14, 29760, Note_on_c, 13, 54, 0
14, 29760, Note_on_c, 13, 42, 63
14, 29880, Note_on_c, 13, 42, 0
14, 29880, Note_on_c, 13, 47, 75
14, 29951, Note_on_c, 13, 47, 0
14, 30060, Note_on_c, 13, 47, 75
14, 30071, Note_on_c, 13, 47, 0
14, 30120, Note_on_c, 13, 45, 75
14, 30191, Note_on_c, 13, 45, 0
14, 30300, Note_on_c, 13, 44, 75
14, 30335, Note_on_c, 13, 44, 0
14, 30360, Note_on_c, 13, 49, 75
14, 30431, Note_on_c, 13, 49, 0
14, 30540, Note_on_c, 13, 42, 75
14, 30551, Note_on_c, 13, 42, 0
14, 30600, Note_on_c, 13, 47, 75
14, 30671, Note_on_c, 13, 47, 0
14, 30780, Note_on_c, 13, 40, 75
14, 30815, Note_on_c, 13, 40, 0
14, 30840, Note_on_c, 13, 45, 64
14, 30960, Note_on_c, 13, 45, 0
14, 31020, Note_on_c, 13, 50, 64
14, 31080, Note_on_c, 13, 50, 0
14, 31080, Note_on_c, 13, 44, 64
14, 31200, Note_on_c, 13, 44, 0
14, 31260, Note_on_c, 13, 49, 64
14, 31320, Note_on_c, 13, 49, 0
14, 31320, Note_on_c, 13, 42, 64
14, 31410, Note_on_c, 13, 42, 0
14, 31410, Note_on_c, 13, 42, 64
14, 31440, Note_on_c, 13, 42, 0
14, 31440, Note_on_c, 13, 42, 64
14, 31475, Note_on_c, 13, 42, 0
14, 31500, Note_on_c, 13, 42, 64
14, 31560, Note_on_c, 13, 42, 0
14, 31560, Note_on_c, 13, 44, 64
14, 31620, Note_on_c, 13, 44, 0
14, 31620, Note_on_c, 13, 38, 64
14, 31680, Note_on_c, 13, 38, 0
14, 31680, Note_on_c, 13, 37, 64
14, 31715, Note_on_c, 13, 37, 0
14, 31740, Note_on_c, 13, 44, 64
14, 31800, Note_on_c, 13, 44, 0
14, 31800, Note_on_c, 13, 45, 64
14, 31860, Note_on_c, 13, 45, 0
14, 31860, Note_on_c, 13, 38, 64
14, 31920, Note_on_c, 13, 38, 0
14, 31920, Note_on_c, 13, 37, 64
14, 31955, Note_on_c, 13, 37, 0
14, 31980, Note_on_c, 13, 46, 64
14, 32040, Note_on_c, 13, 46, 0
14, 32040, Note_on_c, 13, 47, 64
14, 32070, Note_on_c, 13, 47, 0
14, 32070, Note_on_c, 13, 45, 64
14, 32100, Note_on_c, 13, 45, 0
14, 32100, Note_on_c, 13, 43, 64
14, 32190, Note_on_c, 13, 43, 0
14, 32190, Note_on_c, 13, 42, 64
14, 32220, Note_on_c, 13, 42, 0
14, 32220, Note_on_c, 13, 41, 64
14, 32250, Note_on_c, 13, 41, 0
14, 32250, Note_on_c, 13, 42, 64
14, 32280, Note_on_c, 13, 42, 0
14, 32280, Note_on_c, 13, 41, 64
14, 32340, Note_on_c, 13, 41, 0
14, 32340, Note_on_c, 13, 39, 64
14, 32400, Note_on_c, 13, 39, 0
14, 32400, Note_on_c, 13, 41, 64
14, 32460, Note_on_c, 13, 41, 0
14, 32460, Note_on_c, 13, 37, 64
14, 32520, Note_on_c, 13, 37, 0
14, 32520, Note_on_c, 13, 42, 64
14, 32580, Note_on_c, 13, 42, 0
14, 32580, Note_on_c, 13, 44, 64
14, 32640, Note_on_c, 13, 44, 0
14, 32640, Note_on_c, 13, 45, 64
14, 32700, Note_on_c, 13, 45, 0
14, 32700, Note_on_c, 13, 42, 64
14, 32760, Note_on_c, 13, 42, 0
14, 32760, Note_on_c, 13, 47, 64
14, 32820, Note_on_c, 13, 47, 0
14, 32820, Note_on_c, 13, 49, 64
14, 32880, Note_on_c, 13, 49, 0
14, 32880, Note_on_c, 13, 50, 64
14, 32940, Note_on_c, 13, 50, 0
14, 32940, Note_on_c, 13, 47, 64
14, 33000, Note_on_c, 13, 47, 0
14, 33000, Note_on_c, 13, 53, 64
14, 33060, Note_on_c, 13, 53, 0
14, 33060, Note_on_c, 13, 51, 64
14, 33120, Note_on_c, 13, 51, 0
14, 33120, Note_on_c, 13, 53, 64
14, 33180, Note_on_c, 13, 53, 0
14, 33180, Note_on_c, 13, 49, 64
14, 33240, Note_on_c, 13, 49, 0
14, 33240, Note_on_c, 13, 54, 64
14, 33300, Note_on_c, 13, 54, 0
14, 33300, Note_on_c, 13, 52, 64
14, 33360, Note_on_c, 13, 52, 0
14, 33360, Note_on_c, 13, 50, 64
14, 33420, Note_on_c, 13, 50, 0
14, 33420, Note_on_c, 13, 49, 64
14, 33480, Note_on_c, 13, 49, 0
14, 33480, Note_on_c, 13, 47, 64
14, 33600, Note_on_c, 13, 47, 0
14, 33600, Note_on_c, 13, 49, 64
14, 33720, Note_on_c, 13, 49, 0
14, 33720, Note_on_c, 13, 50, 64
14, 33840, Note_on_c, 13, 50, 0
14, 33840, Note_on_c, 13, 49, 64
14, 33900, Note_on_c, 13, 49, 0
14, 33900, Note_on_c, 13, 47, 64
14, 33960, Note_on_c, 13, 47, 0
14, 33960, Note_on_c, 13, 45, 64
14, 34020, Note_on_c, 13, 45, 0
14, 34020, Note_on_c, 13, 44, 64
14, 34080, Note_on_c, 13, 44, 0
14, 34080, Note_on_c, 13, 45, 64
14, 34140, Note_on_c, 13, 45, 0
14, 34140, Note_on_c, 13, 47, 64
14, 34200, Note_on_c, 13, 47, 0
14, 34200, Note_on_c, 13, 49, 64
14, 34740, Note_on_c, 13, 49, 0
14, 34740, Note_on_c, 13, 47, 64
14, 34800, Note_on_c, 13, 47, 0
14, 34800, Note_on_c, 13, 49, 64
14, 34920, Note_on_c, 13, 49, 0
14, 34920, Note_on_c, 13, 42, 64
14, 34980, Note_on_c, 13, 42, 0
14, 34980, Note_on_c, 13, 45, 64
14, 35040, Note_on_c, 13, 45, 0
14, 35040, Note_on_c, 13, 50, 64
14, 35100, Note_on_c, 13, 50, 0
14, 35100, Note_on_c, 13, 49, 64
14, 35160, Note_on_c, 13, 49, 0
14, 35160, Note_on_c, 13, 47, 64
14, 35220, Note_on_c, 13, 47, 0
14, 35220, Note_on_c, 13, 45, 64
14, 35250, Note_on_c, 13, 45, 0
14, 35250, Note_on_c, 13, 47, 64
14, 35280, Note_on_c, 13, 47, 0
14, 35280, Note_on_c, 13, 49, 64
14, 35340, Note_on_c, 13, 49, 0
14, 35340, Note_on_c, 13, 37, 64
14, 35400, Note_on_c, 13, 37, 0
14, 35400, Note_on_c, 13, 42, 64
14, 35460, Note_on_c, 13, 42, 0
14, 35460, Note_on_c, 13, 44, 64
14, 35520, Note_on_c, 13, 44, 0
14, 35520, Note_on_c, 13, 46, 64
14, 35580, Note_on_c, 13, 46, 0
14, 35580, Note_on_c, 13, 42, 64
14, 35640, Note_on_c, 13, 42, 0
14, 35640, Note_on_c, 13, 47, 64
14, 35700, Note_on_c, 13, 47, 0
14, 35700, Note_on_c, 13, 59, 64
14, 35760, Note_on_c, 13, 59, 0
14, 35760, Note_on_c, 13, 57, 64
14, 35820, Note_on_c, 13, 57, 0
14, 35820, Note_on_c, 13, 56, 64
14, 35880, Note_on_c, 13, 56, 0
14, 35880, Note_on_c, 13, 61, 64
14, 36000, Note_on_c, 13, 61, 0
14, 36060, Note_on_c, 13, 49, 64
14, 36095, Note_on_c, 13, 49, 0
14, 36120, Note_on_c, 13, 50, 64
14, 36191, Note_on_c, 13, 50, 0
14, 36300, Note_on_c, 13, 44, 64
14, 36335, Note_on_c, 13, 44, 0
14, 36360, Note_on_c, 13, 49, 64
14, 36431, Note_on_c, 13, 49, 0
14, 36540, Note_on_c, 13, 42, 64
14, 36575, Note_on_c, 13, 42, 0
14, 36600, Note_on_c, 13, 47, 64
14, 36720, Note_on_c, 13, 47, 0
14, 36780, Note_on_c, 13, 40, 64
14, 36840, Note_on_c, 13, 40, 0
14, 36840, Note_on_c, 13, 45, 64
14, 36900, Note_on_c, 13, 45, 0
14, 36900, Note_on_c, 13, 49, 64
14, 36960, Note_on_c, 13, 49, 0
14, 36960, Note_on_c, 13, 54, 64
14, 37020, Note_on_c, 13, 54, 0
14, 37020, Note_on_c, 13, 52, 64
14, 37080, Note_on_c, 13, 52, 0
14, 37080, Note_on_c, 13, 50, 64
14, 37140, Note_on_c, 13, 50, 0
14, 37140, Note_on_c, 13, 47, 64
14, 37200, Note_on_c, 13, 47, 0
14, 37200, Note_on_c, 13, 52, 64
14, 37260, Note_on_c, 13, 52, 0
14, 37260, Note_on_c, 13, 40, 64
14, 37320, Note_on_c, 13, 40, 0
14, 37320, Note_on_c, 13, 45, 64
14, 37380, Note_on_c, 13, 45, 0
14, 37380, Note_on_c, 13, 47, 64
14, 37440, Note_on_c, 13, 47, 0
14, 37440, Note_on_c, 13, 49, 64
14, 37500, Note_on_c, 13, 49, 0
14, 37500, Note_on_c, 13, 45, 64
14, 37560, Note_on_c, 13, 45, 0
14, 37560, Note_on_c, 13, 50, 64
14, 37620, Note_on_c, 13, 50, 0
14, 37620, Note_on_c, 13, 49, 64
14, 37680, Note_on_c, 13, 49, 0
14, 37680, Note_on_c, 13, 50, 64
14, 37740, Note_on_c, 13, 50, 0
14, 37740, Note_on_c, 13, 47, 64
14, 37800, Note_on_c, 13, 47, 0
14, 37800, Note_on_c, 13, 52, 64
14, 37860, Note_on_c, 13, 52, 0
14, 37860, Note_on_c, 13, 54, 64
14, 37920, Note_on_c, 13, 54, 0
14, 37920, Note_on_c, 13, 56, 64
14, 37980, Note_on_c, 13, 56, 0
14, 37980, Note_on_c, 13, 52, 64
14, 38040, Note_on_c, 13, 52, 0
14, 38040, Note_on_c, 13, 57, 64
14, 38111, Note_on_c, 13, 57, 0
14, 38220, Note_on_c, 13, 59, 64
14, 38255, Note_on_c, 13, 59, 0
14, 38280, Note_on_c, 13, 52, 64
14, 38351, Note_on_c, 13, 52, 0
14, 38460, Note_on_c, 13, 57, 64
14, 38495, Note_on_c, 13, 57, 0
14, 38520, Note_on_c, 13, 50, 64
14, 38591, Note_on_c, 13, 50, 0
14, 38700, Note_on_c, 13, 55, 64
14, 38735, Note_on_c, 13, 55, 0
14, 38760, Note_on_c, 13, 49, 64
14, 38831, Note_on_c, 13, 49, 0
14, 38940, Note_on_c, 13, 54, 64
14, 38975, Note_on_c, 13, 54, 0
14, 39000, Note_on_c, 13, 47, 64
14, 39090, Note_on_c, 13, 47, 0
14, 39090, Note_on_c, 13, 47, 64
14, 39120, Note_on_c, 13, 47, 0
14, 39120, Note_on_c, 13, 47, 64
14, 39155, Note_on_c, 13, 47, 0
14, 39180, Note_on_c, 13, 47, 64
14, 39240, Note_on_c, 13, 47, 0
14, 39240, Note_on_c, 13, 49, 64
14, 39300, Note_on_c, 13, 49, 0
14, 39300, Note_on_c, 13, 43, 64
14, 39360, Note_on_c, 13, 43, 0
14, 39360, Note_on_c, 13, 42, 64
14, 39395, Note_on_c, 13, 42, 0
14, 39420, Note_on_c, 13, 49, 64
14, 39480, Note_on_c, 13, 49, 0
14, 39480, Note_on_c, 13, 50, 64
14, 39540, Note_on_c, 13, 50, 0
14, 39540, Note_on_c, 13, 43, 64
14, 39600, Note_on_c, 13, 43, 0
14, 39600, Note_on_c, 13, 42, 64
14, 39635, Note_on_c, 13, 42, 0
14, 39660, Note_on_c, 13, 51, 64
14, 39720, Note_on_c, 13, 51, 0
14, 39720, Note_on_c, 13, 52, 64
14, 39750, Note_on_c, 13, 52, 0
14, 39750, Note_on_c, 13, 50, 64
14, 39780, Note_on_c, 13, 50, 0
14, 39780, Note_on_c, 13, 48, 64
14, 39870, Note_on_c, 13, 48, 0
14, 39870, Note_on_c, 13, 47, 64
14, 39900, Note_on_c, 13, 47, 0
14, 39900, Note_on_c, 13, 46, 64
14, 39930, Note_on_c, 13, 46, 0
14, 39930, Note_on_c, 13, 47, 64
14, 39960, Note_on_c, 13, 47, 0
14, 39960, Note_on_c, 13, 46, 64
14, 39995, Note_on_c, 13, 46, 0
14, 40020, Note_on_c, 13, 55, 64
14, 40080, Note_on_c, 13, 55, 0
14, 40080, Note_on_c, 13, 54, 64
14, 40140, Note_on_c, 13, 54, 0
14, 40140, Note_on_c, 13, 52, 64
14, 40200, Note_on_c, 13, 52, 0
14, 40200, Note_on_c, 13, 50, 64
14, 40260, Note_on_c, 13, 50, 0
14, 40260, Note_on_c, 13, 49, 64
14, 40290, Note_on_c, 13, 49, 0
14, 40290, Note_on_c, 13, 47, 64
14, 40320, Note_on_c, 13, 47, 0
14, 40320, Note_on_c, 13, 54, 64
14, 40560, Note_on_c, 13, 54, 0
14, 40560, Note_on_c, 13, 53, 64
14, 40680, Note_on_c, 13, 53, 0
14, 40680, Note_on_c, 13, 54, 64
14, 40800, Note_on_c, 13, 54, 0
14, 40860, Note_on_c, 13, 52, 64
14, 40920, Note_on_c, 13, 52, 0
14, 40920, Note_on_c, 13, 50, 64
14, 40980, Note_on_c, 13, 50, 0
14, 40980, Note_on_c, 13, 49, 64
14, 41040, Note_on_c, 13, 49, 0
14, 41040, Note_on_c, 13, 50, 64
14, 41100, Note_on_c, 13, 50, 0
14, 41100, Note_on_c, 13, 47, 64
14, 41160, Note_on_c, 13, 47, 0
14, 41160, Note_on_c, 13, 49, 64
14, 41280, Note_on_c, 13, 49, 0
14, 41280, Note_on_c, 13, 37, 64
14, 41400, Note_on_c, 13, 37, 0
14, 41400, Note_on_c, 13, 42, 64
14, 41520, Note_on_c, 13, 42, 0
14, 41580, Note_on_c, 13, 47, 64
14, 41640, Note_on_c, 13, 47, 0
14, 41640, Note_on_c, 13, 52, 64
14, 41760, Note_on_c, 13, 52, 0
14, 41760, Note_on_c, 13, 40, 64
14, 41880, Note_on_c, 13, 40, 0
14, 41880, Note_on_c, 13, 45, 64
14, 42000, Note_on_c, 13, 45, 0
14, 42060, Note_on_c, 13, 45, 64
14, 42120, Note_on_c, 13, 45, 0
14, 42120, Note_on_c, 13, 50, 64
14, 42240, Note_on_c, 13, 50, 0
14, 42300, Note_on_c, 13, 38, 64
14, 42360, Note_on_c, 13, 38, 0
14, 42360, Note_on_c, 13, 43, 64
14, 42420, Note_on_c, 13, 43, 0
14, 42420, Note_on_c, 13, 42, 64
14, 42480, Note_on_c, 13, 42, 0
14, 42480, Note_on_c, 13, 40, 64
14, 42540, Note_on_c, 13, 40, 0
14, 42540, Note_on_c, 13, 38, 64
14, 42600, Note_on_c, 13, 38, 0
14, 42600, Note_on_c, 13, 40, 64
14, 42720, Note_on_c, 13, 40, 0
14, 42720, Note_on_c, 13, 42, 64
14, 42840, Note_on_c, 13, 42, 0
14, 42840, Note_on_c, 13, 47, 64
14, 42960, Note_on_c, 13, 47, 0
14, 42960, Note_on_c, 13, 45, 64
14, 43080, Note_on_c, 13, 45, 0
14, 43080, Note_on_c, 13, 43, 64
14, 43140, Note_on_c, 13, 43, 0
14, 43140, Note_on_c, 13, 52, 64
14, 43200, Note_on_c, 13, 52, 0
14, 43200, Note_on_c, 13, 50, 64
14, 43260, Note_on_c, 13, 50, 0
14, 43260, Note_on_c, 13, 49, 64
14, 43320, Note_on_c, 13, 49, 0
14, 43320, Note_on_c, 13, 54, 64
14, 43380, Note_on_c, 13, 54, 0
14, 43380, Note_on_c, 13, 52, 64
14, 43440, Note_on_c, 13, 52, 0
14, 43440, Note_on_c, 13, 50, 64
14, 43500, Note_on_c, 13, 50, 0
14, 43500, Note_on_c, 13, 49, 64
14, 43560, Note_on_c, 13, 49, 0
14, 43560, Note_on_c, 13, 47, 64
14, 43620, Note_on_c, 13, 47, 0
14, 43620, Note_on_c, 13, 49, 64
14, 43680, Note_on_c, 13, 49, 0
14, 43680, Note_on_c, 13, 50, 64
14, 43740, Note_on_c, 13, 50, 0
14, 43740, Note_on_c, 13, 49, 64
14, 43800, Note_on_c, 13, 49, 0
14, 43800, Note_on_c, 13, 47, 64
14, 43860, Note_on_c, 13, 47, 0
14, 43860, Note_on_c, 13, 45, 64
14, 43890, Note_on_c, 13, 45, 0
14, 43890, Note_on_c, 13, 47, 64
14, 43920, Note_on_c, 13, 47, 0
14, 43920, Note_on_c, 13, 49, 64
14, 44040, Note_on_c, 13, 49, 0
14, 44040, Note_on_c, 13, 42, 64
14, 44160, Note_on_c, 13, 42, 0
14, 44340, Note_on_c, 13, 59, 64
14, 44400, Note_on_c, 13, 59, 0
14, 44400, Note_on_c, 13, 57, 64
14, 44460, Note_on_c, 13, 57, 0
14, 44460, Note_on_c, 13, 54, 64
14, 44520, Note_on_c, 13, 54, 0
14, 44520, Note_on_c, 13, 56, 64
14, 44640, Note_on_c, 13, 56, 0
14, 44640, Note_on_c, 13, 49, 64
14, 44760, Note_on_c, 13, 49, 0
14, 44760, Note_on_c, 13, 54, 64
14, 44880, Note_on_c, 13, 54, 0
14, 44880, Note_on_c, 13, 53, 64
14, 45000, Note_on_c, 13, 53, 0
14, 45000, Note_on_c, 13, 52, 64
14, 45120, Note_on_c, 13, 52, 0
14, 45120, Note_on_c, 13, 40, 64
14, 45240, Note_on_c, 13, 40, 0
14, 45240, Note_on_c, 13, 45, 64
14, 45300, Note_on_c, 13, 45, 0
14, 45300, Note_on_c, 13, 57, 64
14, 45360, Note_on_c, 13, 57, 0
14, 45360, Note_on_c, 13, 55, 64
14, 45420, Note_on_c, 13, 55, 0
14, 45420, Note_on_c, 13, 52, 64
14, 45480, Note_on_c, 13, 52, 0
14, 45480, Note_on_c, 13, 54, 64
14, 45600, Note_on_c, 13, 54, 0
14, 45600, Note_on_c, 13, 42, 64
14, 45720, Note_on_c, 13, 42, 0
14, 45720, Note_on_c, 13, 47, 64
14, 45780, Note_on_c, 13, 47, 0
14, 45780, Note_on_c, 13, 54, 64
14, 45840, Note_on_c, 13, 54, 0
14, 45840, Note_on_c, 13, 59, 64
14, 46020, Note_on_c, 13, 59, 0
14, 46020, Note_on_c, 13, 54, 64
14, 46080, Note_on_c, 13, 54, 0
14, 46080, Note_on_c, 13, 53, 64
14, 46140, Note_on_c, 13, 53, 0
14, 46140, Note_on_c, 13, 59, 64
14, 46200, Note_on_c, 13, 59, 0
14, 46200, Note_on_c, 13, 57, 64
14, 46260, Note_on_c, 13, 57, 0
14, 46260, Note_on_c, 13, 56, 64
14, 46290, Note_on_c, 13, 56, 0
14, 46290, Note_on_c, 13, 54, 64
14, 46320, Note_on_c, 13, 54, 0
14, 46320, Note_on_c, 13, 57, 64
14, 46500, Note_on_c, 13, 57, 0
14, 46500, Note_on_c, 13, 52, 64
14, 46560, Note_on_c, 13, 52, 0
14, 46560, Note_on_c, 13, 51, 64
14, 46620, Note_on_c, 13, 51, 0
14, 46620, Note_on_c, 13, 57, 64
14, 46680, Note_on_c, 13, 57, 0
14, 46680, Note_on_c, 13, 55, 64
14, 46710, Note_on_c, 13, 55, 0
14, 46710, Note_on_c, 13, 54, 64
14, 46740, Note_on_c, 13, 54, 0
14, 46740, Note_on_c, 13, 52, 64
14, 46770, Note_on_c, 13, 52, 0
14, 46770, Note_on_c, 13, 50, 64
14, 46800, Note_on_c, 13, 50, 0
14, 46800, Note_on_c, 13, 48, 64
14, 46860, Note_on_c, 13, 48, 0
14, 46860, Note_on_c, 13, 47, 64
14, 46920, Note_on_c, 13, 47, 0
14, 46920, Note_on_c, 13, 45, 64
14, 46980, Note_on_c, 13, 45, 0
14, 46980, Note_on_c, 13, 43, 64
14, 47010, Note_on_c, 13, 43, 0
14, 47010, Note_on_c, 13, 45, 64
14, 47040, Note_on_c, 13, 45, 0
14, 47040, Note_on_c, 13, 47, 64
14, 47100, Note_on_c, 13, 47, 0
14, 47100, Note_on_c, 13, 47, 64
14, 47160, Note_on_c, 13, 47, 0
14, 47160, Note_on_c, 13, 40, 64
14, 47220, Note_on_c, 13, 40, 0
14, 47220, Note_on_c, 13, 52, 64
14, 47340, Note_on_c, 13, 52, 0
14, 47340, Note_on_c, 13, 50, 64
14, 47400, Note_on_c, 13, 50, 0
14, 47400, Note_on_c, 13, 48, 64
14, 47460, Note_on_c, 13, 48, 0
14, 47460, Note_on_c, 13, 47, 64
14, 47520, Note_on_c, 13, 47, 0
14, 47520, Note_on_c, 13, 48, 64
14, 47640, Note_on_c, 13, 48, 0
14, 47640, Note_on_c, 13, 47, 64
14, 47760, Note_on_c, 13, 47, 0
14, 47760, Note_on_c, 13, 49, 65
14, 47820, Note_on_c, 13, 49, 0
14, 47820, Note_on_c, 13, 51, 66
14, 47880, Note_on_c, 13, 51, 0
14, 47880, Note_on_c, 13, 52, 67
14, 48000, Note_on_c, 13, 52, 0
14, 48000, Note_on_c, 13, 52, 68
14, 48060, Note_on_c, 13, 52, 0
14, 48060, Note_on_c, 13, 54, 69
14, 48120, Note_on_c, 13, 54, 0
14, 48120, Note_on_c, 13, 56, 69
14, 48180, Note_on_c, 13, 56, 0
14, 48180, Note_on_c, 13, 57, 70
14, 48240, Note_on_c, 13, 57, 0
14, 48240, Note_on_c, 13, 59, 71
14, 48300, Note_on_c, 13, 59, 0
14, 48300, Note_on_c, 13, 52, 71
14, 48360, Note_on_c, 13, 52, 0
14, 48360, Note_on_c, 13, 57, 72
14, 48480, Note_on_c, 13, 57, 0
14, 48540, Note_on_c, 13, 56, 74
14, 48600, Note_on_c, 13, 56, 0
14, 48600, Note_on_c, 13, 58, 75
14, 48660, Note_on_c, 13, 58, 0
14, 48660, Note_on_c, 13, 59, 75
14, 48720, Note_on_c, 13, 59, 0
14, 48720, Note_on_c, 13, 61, 76
14, 48780, Note_on_c, 13, 61, 0
14, 48780, Note_on_c, 13, 54, 77
14, 48840, Note_on_c, 13, 54, 0
14, 48840, Note_on_c, 13, 59, 77
14, 48960, Note_on_c, 13, 59, 0
14, 49020, Note_on_c, 13, 57, 79
14, 49080, Note_on_c, 13, 57, 0
14, 49080, Note_on_c, 13, 55, 80
14, 49320, Note_on_c, 13, 55, 0
14, 49320, Note_on_c, 13, 54, 75
14, 49440, Note_on_c, 13, 54, 0
14, 49440, Note_on_c, 13, 42, 72
14, 49560, Note_on_c, 13, 42, 0
14, 49560, Note_on_c, 13, 47, 64
14, 49620, Note_on_c, 13, 47, 0
14, 49620, Note_on_c, 13, 59, 64
14, 49740, Note_on_c, 13, 59, 0
14, 49740, Note_on_c, 13, 57, 64
14, 49800, Note_on_c, 13, 57, 0
14, 49800, Note_on_c, 13, 55, 64
14, 49860, Note_on_c, 13, 55, 0
14, 49860, Note_on_c, 13, 52, 64
14, 49920, Note_on_c, 13, 52, 0
14, 49920, Note_on_c, 13, 54, 64
14, 49980, Note_on_c, 13, 54, 0
14, 49980, Note_on_c, 13, 55, 64
14, 50040, Note_on_c, 13, 55, 0
14, 50040, Note_on_c, 13, 54, 64
14, 50100, Note_on_c, 13, 54, 0
14, 50100, Note_on_c, 13, 52, 64
14, 50160, Note_on_c, 13, 52, 0
14, 50160, Note_on_c, 13, 50, 64
14, 50220, Note_on_c, 13, 50, 0
14, 50220, Note_on_c, 13, 49, 64
14, 50280, Note_on_c, 13, 49, 0
14, 50280, Note_on_c, 13, 47, 64
14, 50400, Note_on_c, 13, 47, 0
14, 50400, Note_on_c, 13, 45, 64
14, 50520, Note_on_c, 13, 45, 0
14, 50520, Note_on_c, 13, 47, 64
14, 50640, Note_on_c, 13, 47, 0
14, 50640, Note_on_c, 13, 49, 64
14, 50760, Note_on_c, 13, 49, 0
14, 50760, Note_on_c, 13, 42, 64
14, 50880, Note_on_c, 13, 42, 0
14, 50880, Note_on_c, 13, 52, 64
14, 51000, Note_on_c, 13, 52, 0
14, 51000, Note_on_c, 13, 50, 64
14, 51060, Note_on_c, 13, 50, 0
14, 51060, Note_on_c, 13, 47, 64
14, 51180, Note_on_c, 13, 47, 0
14, 51180, Note_on_c, 13, 49, 64
14, 51240, Note_on_c, 13, 49, 0
14, 51240, Note_on_c, 13, 50, 64
14, 51360, Note_on_c, 13, 50, 0
14, 51360, Note_on_c, 13, 41, 64
14, 51480, Note_on_c, 13, 41, 0
14, 51480, Note_on_c, 13, 42, 64
14, 51540, Note_on_c, 13, 42, 0
14, 51540, Note_on_c, 13, 44, 64
14, 51600, Note_on_c, 13, 44, 0
14, 51600, Note_on_c, 13, 45, 64
14, 51660, Note_on_c, 13, 45, 0
14, 51660, Note_on_c, 13, 42, 64
14, 51720, Note_on_c, 13, 42, 0
14, 51720, Note_on_c, 13, 47, 64
14, 51780, Note_on_c, 13, 47, 0
14, 51780, Note_on_c, 13, 45, 64
14, 51840, Note_on_c, 13, 45, 0
14, 51840, Note_on_c, 13, 44, 64
14, 51900, Note_on_c, 13, 44, 0
14, 51900, Note_on_c, 13, 42, 64
14, 51960, Note_on_c, 13, 42, 0
14, 51960, Note_on_c, 13, 53, 64
14, 52020, Note_on_c, 13, 53, 0
14, 52020, Note_on_c, 13, 51, 64
14, 52080, Note_on_c, 13, 51, 0
14, 52080, Note_on_c, 13, 53, 64
14, 52140, Note_on_c, 13, 53, 0
14, 52140, Note_on_c, 13, 49, 64
14, 52200, Note_on_c, 13, 49, 0
14, 52200, Note_on_c, 13, 54, 64
14, 52260, Note_on_c, 13, 54, 0
14, 52260, Note_on_c, 13, 52, 64
14, 52320, Note_on_c, 13, 52, 0
14, 52320, Note_on_c, 13, 50, 64
14, 52380, Note_on_c, 13, 50, 0
14, 52380, Note_on_c, 13, 49, 64
14, 52440, Note_on_c, 13, 49, 0
14, 52440, Note_on_c, 13, 47, 64
14, 52560, Note_on_c, 13, 47, 0
14, 52560, Note_on_c, 13, 49, 64
14, 52680, Note_on_c, 13, 49, 0
14, 52680, Note_on_c, 13, 50, 64
14, 52800, Note_on_c, 13, 50, 0
14, 52800, Note_on_c, 13, 49, 64
14, 52860, Note_on_c, 13, 49, 0
14, 52860, Note_on_c, 13, 47, 64
14, 52920, Note_on_c, 13, 47, 0
14, 52920, Note_on_c, 13, 45, 64
14, 52980, Note_on_c, 13, 45, 0
14, 52980, Note_on_c, 13, 44, 64
14, 53040, Note_on_c, 13, 44, 0
14, 53040, Note_on_c, 13, 45, 64
14, 53100, Note_on_c, 13, 45, 0
14, 53100, Note_on_c, 13, 47, 64
14, 53160, Note_on_c, 13, 47, 0
14, 53160, Note_on_c, 13, 49, 64
14, 53700, Note_on_c, 13, 49, 0
14, 53700, Note_on_c, 13, 47, 64
14, 53760, Note_on_c, 13, 47, 0
14, 53760, Note_on_c, 13, 49, 64
14, 53820, Note_on_c, 13, 49, 0
14, 53820, Note_on_c, 13, 37, 64
14, 53880, Note_on_c, 13, 37, 0
14, 53880, Note_on_c, 13, 42, 40
14, 53940, Note_on_c, 13, 42, 0
14, 53940, Note_on_c, 13, 54, 41
14, 54060, Note_on_c, 13, 54, 0
14, 54060, Note_on_c, 13, 55, 43
14, 54090, Note_on_c, 13, 55, 0
14, 54090, Note_on_c, 13, 57, 44
14, 54120, Note_on_c, 13, 57, 0
14, 54120, Note_on_c, 13, 59, 44
14, 54240, Note_on_c, 13, 59, 0
14, 54240, Note_on_c, 13, 47, 47
14, 54360, Note_on_c, 13, 47, 0
14, 54360, Note_on_c, 13, 52, 49
14, 54540, Note_on_c, 13, 52, 0
14, 54540, Note_on_c, 13, 50, 52
14, 54570, Note_on_c, 13, 50, 0
14, 54570, Note_on_c, 13, 52, 53
14, 54600, Note_on_c, 13, 52, 0
14, 54600, Note_on_c, 13, 54, 53
14, 54720, Note_on_c, 13, 54, 0
14, 54720, Note_on_c, 13, 42, 55
14, 54840, Note_on_c, 13, 42, 0
14, 54840, Note_on_c, 13, 47, 58
14, 55020, Note_on_c, 13, 47, 0
14, 55020, Note_on_c, 13, 45, 61
14, 55050, Note_on_c, 13, 45, 0
14, 55050, Note_on_c, 13, 47, 61
14, 55080, Note_on_c, 13, 47, 0
14, 55080, Note_on_c, 13, 49, 62
14, 55200, Note_on_c, 13, 49, 0
14, 55200, Note_on_c, 13, 37, 64
14, 55320, Note_on_c, 13, 37, 0
14, 55320, Note_on_c, 13, 42, 66
14, 55380, Note_on_c, 13, 42, 0
14, 55380, Note_on_c, 13, 54, 67
14, 55500, Note_on_c, 13, 54, 0
14, 55500, Note_on_c, 13, 55, 70
14, 55530, Note_on_c, 13, 55, 0
14, 55530, Note_on_c, 13, 57, 70
14, 55560, Note_on_c, 13, 57, 0
14, 55560, Note_on_c, 13, 59, 71
14, 55680, Note_on_c, 13, 59, 0
14, 55680, Note_on_c, 13, 47, 73
14, 55800, Note_on_c, 13, 47, 0
14, 55800, Note_on_c, 13, 40, 75
14, 55871, Note_on_c, 13, 40, 0
14, 55980, Note_on_c, 13, 52, 75
14, 56015, Note_on_c, 13, 52, 0
14, 56040, Note_on_c, 13, 50, 75
14, 56111, Note_on_c, 13, 50, 0
14, 56220, Note_on_c, 13, 49, 75
14, 56255, Note_on_c, 13, 49, 0
14, 56280, Note_on_c, 13, 42, 75
14, 56351, Note_on_c, 13, 42, 0
14, 56460, Note_on_c, 13, 47, 75
14, 56495, Note_on_c, 13, 47, 0
14, 56520, Note_on_c, 13, 40, 75
14, 56591, Note_on_c, 13, 40, 0
14, 56700, Note_on_c, 13, 45, 75
14, 56735, Note_on_c, 13, 45, 0
14, 56760, Note_on_c, 13, 38, 75
14, 56831, Note_on_c, 13, 38, 0
14, 56940, Note_on_c, 13, 43, 67
14, 56975, Note_on_c, 13, 43, 0
14, 57000, Note_on_c, 13, 37, 65
14, 57071, Note_on_c, 13, 37, 0
14, 57180, Note_on_c, 13, 42, 57
14, 57215, Note_on_c, 13, 42, 0
14, 57240, Note_on_c, 13, 47, 55
14, 57330, Note_on_c, 13, 47, 0
14, 57330, Note_on_c, 13, 47, 56
14, 57360, Note_on_c, 13, 47, 0
14, 57360, Note_on_c, 13, 47, 56
14, 57395, Note_on_c, 13, 47, 0
14, 57420, Note_on_c, 13, 47, 57
14, 57480, Note_on_c, 13, 47, 0
14, 57480, Note_on_c, 13, 49, 57
14, 57540, Note_on_c, 13, 49, 0
14, 57540, Note_on_c, 13, 43, 58
14, 57600, Note_on_c, 13, 43, 0
14, 57600, Note_on_c, 13, 42, 58
14, 57635, Note_on_c, 13, 42, 0
14, 57660, Note_on_c, 13, 49, 59
14, 57720, Note_on_c, 13, 49, 0
14, 57720, Note_on_c, 13, 50, 60
14, 57780, Note_on_c, 13, 50, 0
14, 57780, Note_on_c, 13, 43, 60
14, 57840, Note_on_c, 13, 43, 0
14, 57840, Note_on_c, 13, 42, 61
14, 57875, Note_on_c, 13, 42, 0
14, 57900, Note_on_c, 13, 51, 61
14, 57960, Note_on_c, 13, 51, 0
14, 57960, Note_on_c, 13, 52, 62
14, 57990, Note_on_c, 13, 52, 0
14, 57990, Note_on_c, 13, 50, 62
14, 58020, Note_on_c, 13, 50, 0
14, 58020, Note_on_c, 13, 48, 62
14, 58110, Note_on_c, 13, 48, 0
14, 58110, Note_on_c, 13, 47, 63
14, 58140, Note_on_c, 13, 47, 0
14, 58140, Note_on_c, 13, 46, 63
14, 58170, Note_on_c, 13, 46, 0
14, 58170, Note_on_c, 13, 47, 64
14, 58200, Note_on_c, 13, 47, 0
14, 58200, Note_on_c, 13, 46, 64
14, 58260, Note_on_c, 13, 46, 0
14, 58260, Note_on_c, 13, 44, 64
14, 58320, Note_on_c, 13, 44, 0
14, 58320, Note_on_c, 13, 46, 64
14, 58380, Note_on_c, 13, 46, 0
14, 58380, Note_on_c, 13, 42, 64
14, 58440, Note_on_c, 13, 42, 0
14, 58440, Note_on_c, 13, 47, 64
14, 58500, Note_on_c, 13, 47, 0
14, 58500, Note_on_c, 13, 49, 64
14, 58560, Note_on_c, 13, 49, 0
14, 58560, Note_on_c, 13, 50, 64
14, 58620, Note_on_c, 13, 50, 0
14, 58620, Note_on_c, 13, 47, 64
14, 58680, Note_on_c, 13, 47, 0
14, 58680, Note_on_c, 13, 52, 64
14, 58740, Note_on_c, 13, 52, 0
14, 58740, Note_on_c, 13, 54, 64
14, 58800, Note_on_c, 13, 54, 0
14, 58800, Note_on_c, 13, 55, 64
14, 58860, Note_on_c, 13, 55, 0
14, 58860, Note_on_c, 13, 52, 64
14, 58920, Note_on_c, 13, 52, 0
14, 58920, Note_on_c, 13, 58, 64
14, 58980, Note_on_c, 13, 58, 0
14, 58980, Note_on_c, 13, 56, 64
14, 59040, Note_on_c, 13, 56, 0
14, 59040, Note_on_c, 13, 58, 64
14, 59100, Note_on_c, 13, 58, 0
14, 59100, Note_on_c, 13, 54, 64
14, 59160, Note_on_c, 13, 54, 0
14, 59160, Note_on_c, 13, 59, 64
14, 59220, Note_on_c, 13, 59, 0
14, 59220, Note_on_c, 13, 57, 64
14, 59280, Note_on_c, 13, 57, 0
14, 59280, Note_on_c, 13, 55, 64
14, 59340, Note_on_c, 13, 55, 0
14, 59340, Note_on_c, 13, 54, 64
14, 59400, Note_on_c, 13, 54, 0
14, 59400, Note_on_c, 13, 52, 64
14, 59520, Note_on_c, 13, 52, 0
14, 59520, Note_on_c, 13, 54, 64
14, 59640, Note_on_c, 13, 54, 0
14, 59640, Note_on_c, 13, 55, 64
14, 59760, Note_on_c, 13, 55, 0
14, 59760, Note_on_c, 13, 54, 66
14, 59820, Note_on_c, 13, 54, 0
14, 59820, Note_on_c, 13, 52, 67
14, 59880, Note_on_c, 13, 52, 0
14, 59880, Note_on_c, 13, 50, 68
14, 59940, Note_on_c, 13, 50, 0
14, 59940, Note_on_c, 13, 49, 69
14, 60000, Note_on_c, 13, 49, 0
14, 60000, Note_on_c, 13, 50, 70
14, 60060, Note_on_c, 13, 50, 0
14, 60060, Note_on_c, 13, 52, 71
14, 60120, Note_on_c, 13, 52, 0
14, 60120, Note_on_c, 13, 42, 72
14, 60660, Note_on_c, 13, 42, 0
14, 60660, Note_on_c, 13, 40, 80
14, 60720, Note_on_c, 13, 40, 0
14, 60720, Note_on_c, 13, 42, 80
14, 60840, Note_on_c, 13, 42, 0
14, 60840, Note_on_c, 13, 47, 80
14, 61200, Note_on_c, 13, 47, 0
14, 61560, End_track
0, 0, End_of_file
