0, 0, Header, 1, 11, 240
1, 0, Start_track
1, 0, Time_signature, 4, 2, 48, 8
1, 0, Tempo, 277778
1, 0, Marker_t, "Bourrée 1"
1, 46080, Tempo, 288462
1, 47040, Marker_t, "Bourrée 2"
1, 70080, Tempo, 277778
1, 70080, Marker_t, "Bourrée 1 Repeat"
1, 114468, Tempo, 301508
1, 114720, Tempo, 322581
1, 115068, Tempo, 359281
1, 115200, Tempo, 277778
1, 115224, Tempo, 346821
1, 115536, Tempo, 277778
1, 115536, End_track
2, 0, Start_track
2, 0, Title_t, "Violin1"
2, 0, Program_c, 0, 40
2, 0, Control_c, 0, 7, 100
2, 699, Note_on_c, 0, 66, 85
2, 762, Note_off_c, 0, 66, 64
2, 947, Note_on_c, 0, 71, 82
2, 1450, Note_off_c, 0, 71, 64
2, 1519, Note_on_c, 0, 73, 80
2, 1613, Note_off_c, 0, 73, 64
2, 1624, Note_on_c, 0, 74, 80
2, 1719, Note_off_c, 0, 74, 64
2, 1734, Note_on_c, 0, 76, 78
2, 1815, Note_off_c, 0, 76, 64
2, 1866, Note_on_c, 0, 78, 82
2, 1959, Note_off_c, 0, 78, 64
2, 2114, Note_on_c, 0, 70, 66
2, 2189, Note_off_c, 0, 70, 64
2, 2371, Note_on_c, 0, 71, 80
2, 2439, Note_off_c, 0, 71, 64
2, 2613, Note_on_c, 0, 76, 80
2, 2692, Note_off_c, 0, 76, 64
2, 2865, Note_on_c, 0, 74, 85
2, 2947, Note_off_c, 0, 74, 64
2, 3103, Note_on_c, 0, 79, 87
2, 3185, Note_off_c, 0, 79, 64
2, 3341, Note_on_c, 0, 78, 70
2, 3443, Note_off_c, 0, 78, 64
2, 3578, Note_on_c, 0, 82, 82
2, 3662, Note_off_c, 0, 82, 64
2, 3817, Note_on_c, 0, 83, 89
2, 4009, Note_off_c, 0, 83, 64
2, 4053, Note_on_c, 0, 81, 80
2, 4154, Note_off_c, 0, 81, 64
2, 4159, Note_on_c, 0, 79, 72
2, 4232, Note_off_c, 0, 79, 64
2, 4280, Note_on_c, 0, 78, 85
2, 4389, Note_off_c, 0, 78, 64
2, 4389, Note_on_c, 0, 79, 76
2, 4460, Note_off_c, 0, 79, 64
2, 4512, Note_on_c, 0, 76, 80
2, 4606, Note_off_c, 0, 76, 64
2, 4625, Note_on_c, 0, 78, 49
2, 4696, Note_off_c, 0, 78, 64
2, 4754, Note_on_c, 0, 74, 82
2, 4858, Note_off_c, 0, 74, 64
2, 4865, Note_on_c, 0, 76, 68
2, 4929, Note_off_c, 0, 76, 64
2, 4990, Note_on_c, 0, 73, 85
2, 5096, Note_off_c, 0, 73, 64
2, 5098, Note_on_c, 0, 74, 68
2, 5169, Note_off_c, 0, 74, 64
2, 5234, Note_on_c, 0, 71, 87
2, 5340, Note_off_c, 0, 71, 64
2, 5343, Note_on_c, 0, 73, 60
2, 5405, Note_off_c, 0, 73, 64
2, 5468, Note_on_c, 0, 69, 80
2, 5570, Note_off_c, 0, 69, 64
2, 5580, Note_on_c, 0, 71, 70
2, 5643, Note_off_c, 0, 71, 64
2, 5714, Note_on_c, 0, 67, 76
2, 5810, Note_off_c, 0, 67, 64
2, 5971, Note_on_c, 0, 76, 87
2, 6050, Note_off_c, 0, 76, 64
2, 6211, Note_on_c, 0, 66, 85
2, 6302, Note_off_c, 0, 66, 64
2, 6459, Note_on_c, 0, 69, 98
2, 6520, Note_off_c, 0, 69, 64
2, 6699, Note_on_c, 0, 74, 87
2, 6787, Note_off_c, 0, 74, 64
2, 6933, Note_on_c, 0, 79, 89
2, 7018, Note_off_c, 0, 79, 64
2, 7160, Note_on_c, 0, 79, 87
2, 7210, Note_on_c, 0, 78, 87
2, 7225, Note_off_c, 0, 79, 64
2, 7267, Note_on_c, 0, 79, 68
2, 7277, Note_off_c, 0, 78, 64
2, 7310, Note_on_c, 0, 78, 63
2, 7336, Note_off_c, 0, 79, 64
2, 7402, Note_off_c, 0, 78, 64
2, 7406, Note_on_c, 0, 76, 78
2, 7484, Note_off_c, 0, 76, 64
2, 7521, Note_on_c, 0, 74, 76
2, 7588, Note_off_c, 0, 74, 64
2, 7664, Note_on_c, 0, 74, 87
2, 8156, Note_off_c, 0, 74, 64
2, 8371, Note_on_c, 0, 66, 85
2, 8448, Note_off_c, 0, 66, 64
2, 8623, Note_on_c, 0, 71, 87
2, 9132, Note_off_c, 0, 71, 64
2, 9203, Note_on_c, 0, 73, 74
2, 9289, Note_off_c, 0, 73, 64
2, 9320, Note_on_c, 0, 74, 87
2, 9395, Note_off_c, 0, 74, 64
2, 9427, Note_on_c, 0, 76, 80
2, 9502, Note_off_c, 0, 76, 64
2, 9562, Note_on_c, 0, 78, 95
2, 9644, Note_off_c, 0, 78, 64
2, 9802, Note_on_c, 0, 70, 72
2, 9879, Note_off_c, 0, 70, 64
2, 10061, Note_on_c, 0, 71, 82
2, 10138, Note_off_c, 0, 71, 64
2, 10305, Note_on_c, 0, 76, 85
2, 10382, Note_off_c, 0, 76, 64
2, 10549, Note_on_c, 0, 74, 89
2, 10631, Note_off_c, 0, 74, 64
2, 10781, Note_on_c, 0, 79, 87
2, 10862, Note_off_c, 0, 79, 64
2, 11025, Note_on_c, 0, 78, 82
2, 11115, Note_off_c, 0, 78, 64
2, 11255, Note_on_c, 0, 82, 87
2, 11342, Note_off_c, 0, 82, 64
2, 11499, Note_on_c, 0, 83, 93
2, 11697, Note_off_c, 0, 83, 64
2, 11739, Note_on_c, 0, 81, 85
2, 11827, Note_off_c, 0, 81, 64
2, 11845, Note_on_c, 0, 79, 72
2, 11904, Note_off_c, 0, 79, 64
2, 11966, Note_on_c, 0, 78, 95
2, 12065, Note_off_c, 0, 78, 64
2, 12073, Note_on_c, 0, 79, 72
2, 12143, Note_off_c, 0, 79, 64
2, 12188, Note_on_c, 0, 76, 85
2, 12286, Note_off_c, 0, 76, 64
2, 12300, Note_on_c, 0, 78, 57
2, 12361, Note_off_c, 0, 78, 64
2, 12426, Note_on_c, 0, 74, 80
2, 12530, Note_off_c, 0, 74, 64
2, 12542, Note_on_c, 0, 76, 60
2, 12613, Note_off_c, 0, 76, 64
2, 12678, Note_on_c, 0, 73, 85
2, 12778, Note_off_c, 0, 73, 64
2, 12783, Note_on_c, 0, 74, 72
2, 12851, Note_off_c, 0, 74, 64
2, 12920, Note_on_c, 0, 71, 72
2, 13014, Note_off_c, 0, 71, 64
2, 13031, Note_on_c, 0, 73, 48
2, 13091, Note_off_c, 0, 73, 64
2, 13153, Note_on_c, 0, 69, 76
2, 13256, Note_on_c, 0, 71, 66
2, 13263, Note_off_c, 0, 69, 64
2, 13318, Note_off_c, 0, 71, 64
2, 13402, Note_on_c, 0, 67, 78
2, 13496, Note_off_c, 0, 67, 64
2, 13649, Note_on_c, 0, 76, 85
2, 13747, Note_off_c, 0, 76, 64
2, 13907, Note_on_c, 0, 66, 85
2, 13993, Note_off_c, 0, 66, 64
2, 14143, Note_on_c, 0, 69, 93
2, 14216, Note_off_c, 0, 69, 64
2, 14383, Note_on_c, 0, 74, 89
2, 14475, Note_off_c, 0, 74, 64
2, 14613, Note_on_c, 0, 79, 87
2, 14692, Note_off_c, 0, 79, 64
2, 14824, Note_on_c, 0, 79, 82
2, 14874, Note_on_c, 0, 78, 87
2, 14888, Note_off_c, 0, 79, 64
2, 14938, Note_on_c, 0, 79, 66
2, 14946, Note_off_c, 0, 78, 64
2, 14984, Note_on_c, 0, 78, 63
2, 15013, Note_off_c, 0, 79, 64
2, 15070, Note_on_c, 0, 76, 78
2, 15076, Note_off_c, 0, 78, 64
2, 15146, Note_off_c, 0, 76, 64
2, 15191, Note_on_c, 0, 74, 74
2, 15266, Note_off_c, 0, 74, 64
2, 15331, Note_on_c, 0, 74, 85
2, 15825, Note_off_c, 0, 74, 64
2, 46786, Note_on_c, 0, 66, 59
2, 47126, Note_off_c, 0, 66, 64
2, 47273, Note_on_c, 0, 71, 70
2, 47579, Note_off_c, 0, 71, 64
2, 47715, Note_on_c, 0, 79, 68
2, 48041, Note_off_c, 0, 79, 64
2, 48197, Note_on_c, 0, 73, 63
2, 48291, Note_off_c, 0, 73, 64
2, 48443, Note_on_c, 0, 70, 59
2, 48537, Note_off_c, 0, 70, 64
2, 48683, Note_on_c, 0, 66, 54
2, 48988, Note_off_c, 0, 66, 64
2, 49147, Note_on_c, 0, 71, 64
2, 49462, Note_off_c, 0, 71, 64
2, 49639, Note_on_c, 0, 79, 74
2, 49723, Note_off_c, 0, 79, 64
2, 49885, Note_on_c, 0, 70, 55
2, 50376, Note_off_c, 0, 70, 64
2, 50599, Note_on_c, 0, 66, 47
2, 50944, Note_off_c, 0, 66, 64
2, 51094, Note_on_c, 0, 71, 59
2, 51421, Note_off_c, 0, 71, 64
2, 51561, Note_on_c, 0, 79, 68
2, 51876, Note_off_c, 0, 79, 64
2, 52029, Note_on_c, 0, 73, 57
2, 52116, Note_off_c, 0, 73, 64
2, 52277, Note_on_c, 0, 70, 54
2, 52365, Note_off_c, 0, 70, 64
2, 52521, Note_on_c, 0, 66, 60
2, 52830, Note_off_c, 0, 66, 64
2, 53003, Note_on_c, 0, 71, 68
2, 53308, Note_off_c, 0, 71, 64
2, 53473, Note_on_c, 0, 79, 72
2, 53552, Note_off_c, 0, 79, 64
2, 53719, Note_on_c, 0, 70, 62
2, 54249, Note_off_c, 0, 70, 64
2, 69819, Note_on_c, 0, 66, 85
2, 69882, Note_off_c, 0, 66, 64
2, 70067, Note_on_c, 0, 71, 82
2, 70570, Note_off_c, 0, 71, 64
2, 70639, Note_on_c, 0, 73, 80
2, 70733, Note_off_c, 0, 73, 64
2, 70744, Note_on_c, 0, 74, 80
2, 70839, Note_off_c, 0, 74, 64
2, 70854, Note_on_c, 0, 76, 78
2, 70935, Note_off_c, 0, 76, 64
2, 70986, Note_on_c, 0, 78, 82
2, 71079, Note_off_c, 0, 78, 64
2, 71234, Note_on_c, 0, 70, 66
2, 71309, Note_off_c, 0, 70, 64
2, 71491, Note_on_c, 0, 71, 80
2, 71559, Note_off_c, 0, 71, 64
2, 71733, Note_on_c, 0, 76, 80
2, 71812, Note_off_c, 0, 76, 64
2, 71985, Note_on_c, 0, 74, 85
2, 72067, Note_off_c, 0, 74, 64
2, 72223, Note_on_c, 0, 79, 87
2, 72305, Note_off_c, 0, 79, 64
2, 72461, Note_on_c, 0, 78, 70
2, 72563, Note_off_c, 0, 78, 64
2, 72698, Note_on_c, 0, 82, 82
2, 72782, Note_off_c, 0, 82, 64
2, 72937, Note_on_c, 0, 83, 89
2, 73129, Note_off_c, 0, 83, 64
2, 73173, Note_on_c, 0, 81, 80
2, 73274, Note_off_c, 0, 81, 64
2, 73279, Note_on_c, 0, 79, 72
2, 73352, Note_off_c, 0, 79, 64
2, 73400, Note_on_c, 0, 78, 85
2, 73509, Note_off_c, 0, 78, 64
2, 73509, Note_on_c, 0, 79, 76
2, 73580, Note_off_c, 0, 79, 64
2, 73632, Note_on_c, 0, 76, 80
2, 73726, Note_off_c, 0, 76, 64
2, 73745, Note_on_c, 0, 78, 49
2, 73816, Note_off_c, 0, 78, 64
2, 73874, Note_on_c, 0, 74, 82
2, 73978, Note_off_c, 0, 74, 64
2, 73985, Note_on_c, 0, 76, 68
2, 74049, Note_off_c, 0, 76, 64
2, 74110, Note_on_c, 0, 73, 85
2, 74216, Note_off_c, 0, 73, 64
2, 74218, Note_on_c, 0, 74, 68
2, 74289, Note_off_c, 0, 74, 64
2, 74354, Note_on_c, 0, 71, 87
2, 74460, Note_off_c, 0, 71, 64
2, 74463, Note_on_c, 0, 73, 60
2, 74525, Note_off_c, 0, 73, 64
2, 74588, Note_on_c, 0, 69, 80
2, 74690, Note_off_c, 0, 69, 64
2, 74700, Note_on_c, 0, 71, 70
2, 74763, Note_off_c, 0, 71, 64
2, 74834, Note_on_c, 0, 67, 76
2, 74930, Note_off_c, 0, 67, 64
2, 75091, Note_on_c, 0, 76, 87
2, 75170, Note_off_c, 0, 76, 64
2, 75331, Note_on_c, 0, 66, 85
2, 75422, Note_off_c, 0, 66, 64
2, 75579, Note_on_c, 0, 69, 98
2, 75640, Note_off_c, 0, 69, 64
2, 75819, Note_on_c, 0, 74, 87
2, 75907, Note_off_c, 0, 74, 64
2, 76053, Note_on_c, 0, 79, 89
2, 76138, Note_off_c, 0, 79, 64
2, 76280, Note_on_c, 0, 79, 87
2, 76330, Note_on_c, 0, 78, 87
2, 76345, Note_off_c, 0, 79, 64
2, 76387, Note_on_c, 0, 79, 68
2, 76397, Note_off_c, 0, 78, 64
2, 76430, Note_on_c, 0, 78, 63
2, 76456, Note_off_c, 0, 79, 64
2, 76522, Note_off_c, 0, 78, 64
2, 76526, Note_on_c, 0, 76, 78
2, 76604, Note_off_c, 0, 76, 64
2, 76641, Note_on_c, 0, 74, 76
2, 76708, Note_off_c, 0, 74, 64
2, 76784, Note_on_c, 0, 74, 87
2, 77276, Note_off_c, 0, 74, 64
2, 77491, Note_on_c, 0, 66, 85
2, 77568, Note_off_c, 0, 66, 64
2, 77743, Note_on_c, 0, 71, 87
2, 78252, Note_off_c, 0, 71, 64
2, 78323, Note_on_c, 0, 73, 74
2, 78409, Note_off_c, 0, 73, 64
2, 78440, Note_on_c, 0, 74, 87
2, 78515, Note_off_c, 0, 74, 64
2, 78547, Note_on_c, 0, 76, 80
2, 78622, Note_off_c, 0, 76, 64
2, 78682, Note_on_c, 0, 78, 95
2, 78764, Note_off_c, 0, 78, 64
2, 78922, Note_on_c, 0, 70, 72
2, 78999, Note_off_c, 0, 70, 64
2, 79181, Note_on_c, 0, 71, 82
2, 79258, Note_off_c, 0, 71, 64
2, 79425, Note_on_c, 0, 76, 85
2, 79502, Note_off_c, 0, 76, 64
2, 79669, Note_on_c, 0, 74, 89
2, 79751, Note_off_c, 0, 74, 64
2, 79901, Note_on_c, 0, 79, 87
2, 79982, Note_off_c, 0, 79, 64
2, 80145, Note_on_c, 0, 78, 82
2, 80235, Note_off_c, 0, 78, 64
2, 80375, Note_on_c, 0, 82, 87
2, 80462, Note_off_c, 0, 82, 64
2, 80619, Note_on_c, 0, 83, 93
2, 80817, Note_off_c, 0, 83, 64
2, 80859, Note_on_c, 0, 81, 85
2, 80947, Note_off_c, 0, 81, 64
2, 80965, Note_on_c, 0, 79, 72
2, 81024, Note_off_c, 0, 79, 64
2, 81086, Note_on_c, 0, 78, 95
2, 81185, Note_off_c, 0, 78, 64
2, 81193, Note_on_c, 0, 79, 72
2, 81263, Note_off_c, 0, 79, 64
2, 81308, Note_on_c, 0, 76, 85
2, 81406, Note_off_c, 0, 76, 64
2, 81420, Note_on_c, 0, 78, 57
2, 81481, Note_off_c, 0, 78, 64
2, 81546, Note_on_c, 0, 74, 80
2, 81650, Note_off_c, 0, 74, 64
2, 81662, Note_on_c, 0, 76, 60
2, 81733, Note_off_c, 0, 76, 64
2, 81798, Note_on_c, 0, 73, 85
2, 81898, Note_off_c, 0, 73, 64
2, 81903, Note_on_c, 0, 74, 72
2, 81971, Note_off_c, 0, 74, 64
2, 82040, Note_on_c, 0, 71, 72
2, 82134, Note_off_c, 0, 71, 64
2, 82151, Note_on_c, 0, 73, 48
2, 82211, Note_off_c, 0, 73, 64
2, 82273, Note_on_c, 0, 69, 76
2, 82376, Note_on_c, 0, 71, 66
2, 82383, Note_off_c, 0, 69, 64
2, 82438, Note_off_c, 0, 71, 64
2, 82522, Note_on_c, 0, 67, 78
2, 82616, Note_off_c, 0, 67, 64
2, 82769, Note_on_c, 0, 76, 85
2, 82867, Note_off_c, 0, 76, 64
2, 83027, Note_on_c, 0, 66, 85
2, 83113, Note_off_c, 0, 66, 64
2, 83263, Note_on_c, 0, 69, 93
2, 83336, Note_off_c, 0, 69, 64
2, 83503, Note_on_c, 0, 74, 89
2, 83595, Note_off_c, 0, 74, 64
2, 83733, Note_on_c, 0, 79, 87
2, 83812, Note_off_c, 0, 79, 64
2, 83944, Note_on_c, 0, 79, 82
2, 83994, Note_on_c, 0, 78, 87
2, 84008, Note_off_c, 0, 79, 64
2, 84058, Note_on_c, 0, 79, 66
2, 84066, Note_off_c, 0, 78, 64
2, 84104, Note_on_c, 0, 78, 63
2, 84133, Note_off_c, 0, 79, 64
2, 84190, Note_on_c, 0, 76, 78
2, 84196, Note_off_c, 0, 78, 64
2, 84266, Note_off_c, 0, 76, 64
2, 84311, Note_on_c, 0, 74, 74
2, 84386, Note_off_c, 0, 74, 64
2, 84451, Note_on_c, 0, 74, 85
2, 84945, Note_off_c, 0, 74, 64
2, 84945, End_track
3, 0, Start_track
3, 0, Title_t, "Violin2"
3, 0, Program_c, 1, 40
3, 0, Control_c, 1, 7, 100
3, 1194, Note_on_c, 1, 66, 82
3, 1260, Note_off_c, 1, 66, 64
3, 1440, Note_on_c, 1, 71, 85
3, 1914, Note_off_c, 1, 71, 64
3, 2124, Note_on_c, 1, 79, 91
3, 2218, Note_off_c, 1, 79, 64
3, 2367, Note_on_c, 1, 78, 80
3, 2458, Note_off_c, 1, 78, 64
3, 2606, Note_on_c, 1, 70, 66
3, 2698, Note_off_c, 1, 70, 64
3, 2853, Note_on_c, 1, 71, 80
3, 2940, Note_off_c, 1, 71, 64
3, 3107, Note_on_c, 1, 64, 89
3, 3208, Note_off_c, 1, 64, 64
3, 3356, Note_on_c, 1, 62, 87
3, 3460, Note_off_c, 1, 62, 64
3, 3580, Note_on_c, 1, 76, 82
3, 3685, Note_off_c, 1, 76, 64
3, 3827, Note_on_c, 1, 74, 78
3, 3944, Note_off_c, 1, 74, 64
3, 4069, Note_on_c, 1, 76, 76
3, 4168, Note_off_c, 1, 76, 64
3, 4299, Note_on_c, 1, 78, 76
3, 4389, Note_off_c, 1, 78, 64
3, 4526, Note_on_c, 1, 70, 66
3, 4614, Note_off_c, 1, 70, 64
3, 4762, Note_on_c, 1, 71, 85
3, 4867, Note_off_c, 1, 71, 64
3, 4998, Note_on_c, 1, 70, 64
3, 5103, Note_off_c, 1, 70, 64
3, 5228, Note_on_c, 1, 71, 85
3, 5338, Note_off_c, 1, 71, 64
3, 5484, Note_on_c, 1, 73, 76
3, 5574, Note_off_c, 1, 73, 64
3, 5733, Note_on_c, 1, 74, 89
3, 5806, Note_off_c, 1, 74, 64
3, 5983, Note_on_c, 1, 69, 91
3, 6296, Note_off_c, 1, 69, 64
3, 6328, Note_on_c, 1, 67, 78
3, 6407, Note_off_c, 1, 67, 64
3, 6438, Note_on_c, 1, 66, 82
3, 6513, Note_off_c, 1, 66, 64
3, 6550, Note_on_c, 1, 64, 87
3, 6624, Note_off_c, 1, 64, 64
3, 6701, Note_on_c, 1, 62, 93
3, 6822, Note_off_c, 1, 62, 64
3, 6935, Note_on_c, 1, 74, 85
3, 7022, Note_off_c, 1, 74, 64
3, 7173, Note_on_c, 1, 74, 91
3, 7263, Note_off_c, 1, 74, 64
3, 7417, Note_on_c, 1, 73, 82
3, 7498, Note_off_c, 1, 73, 64
3, 7667, Note_on_c, 1, 69, 78
3, 8177, Note_off_c, 1, 69, 64
3, 8849, Note_on_c, 1, 66, 80
3, 8920, Note_off_c, 1, 66, 64
3, 9107, Note_on_c, 1, 71, 89
3, 9587, Note_off_c, 1, 71, 64
3, 9804, Note_on_c, 1, 79, 87
3, 9894, Note_off_c, 1, 79, 64
3, 10057, Note_on_c, 1, 78, 82
3, 10155, Note_off_c, 1, 78, 64
3, 10290, Note_on_c, 1, 70, 76
3, 10403, Note_off_c, 1, 70, 64
3, 10547, Note_on_c, 1, 71, 87
3, 10635, Note_off_c, 1, 71, 64
3, 10783, Note_on_c, 1, 64, 87
3, 10906, Note_off_c, 1, 64, 64
3, 11031, Note_on_c, 1, 62, 85
3, 11125, Note_off_c, 1, 62, 64
3, 11274, Note_on_c, 1, 76, 82
3, 11368, Note_off_c, 1, 76, 64
3, 11507, Note_on_c, 1, 74, 78
3, 11608, Note_off_c, 1, 74, 64
3, 11749, Note_on_c, 1, 76, 85
3, 11837, Note_off_c, 1, 76, 64
3, 11985, Note_on_c, 1, 78, 93
3, 12073, Note_off_c, 1, 78, 64
3, 12207, Note_on_c, 1, 70, 68
3, 12319, Note_off_c, 1, 70, 64
3, 12446, Note_on_c, 1, 71, 85
3, 12547, Note_off_c, 1, 71, 64
3, 12672, Note_on_c, 1, 70, 70
3, 12778, Note_off_c, 1, 70, 64
3, 12915, Note_on_c, 1, 71, 80
3, 13018, Note_off_c, 1, 71, 64
3, 13166, Note_on_c, 1, 73, 74
3, 13256, Note_off_c, 1, 73, 64
3, 13406, Note_on_c, 1, 74, 85
3, 13509, Note_off_c, 1, 74, 64
3, 13661, Note_on_c, 1, 69, 89
3, 13980, Note_off_c, 1, 69, 64
3, 14014, Note_on_c, 1, 67, 78
3, 14091, Note_off_c, 1, 67, 64
3, 14129, Note_on_c, 1, 66, 74
3, 14202, Note_off_c, 1, 66, 64
3, 14237, Note_on_c, 1, 64, 80
3, 14318, Note_off_c, 1, 64, 64
3, 14392, Note_on_c, 1, 62, 93
3, 14494, Note_off_c, 1, 62, 64
3, 14632, Note_on_c, 1, 74, 91
3, 14707, Note_off_c, 1, 74, 64
3, 14872, Note_on_c, 1, 74, 87
3, 14968, Note_off_c, 1, 74, 64
3, 15104, Note_on_c, 1, 73, 76
3, 15182, Note_off_c, 1, 73, 64
3, 15343, Note_on_c, 1, 69, 85
3, 15838, Note_off_c, 1, 69, 64
3, 46803, Note_on_c, 1, 66, 58
3, 46899, Note_on_c, 1, 64, 61
3, 46922, Note_off_c, 1, 66, 64
3, 47028, Note_off_c, 1, 64, 64
3, 47033, Note_on_c, 1, 66, 57
3, 47149, Note_off_c, 1, 66, 64
3, 48212, Note_on_c, 1, 73, 82
3, 48310, Note_on_c, 1, 74, 74
3, 48345, Note_off_c, 1, 73, 64
3, 48435, Note_off_c, 1, 74, 64
3, 48435, Note_on_c, 1, 76, 70
3, 48525, Note_off_c, 1, 76, 64
3, 48685, Note_on_c, 1, 66, 63
3, 48798, Note_on_c, 1, 64, 70
3, 48808, Note_off_c, 1, 66, 64
3, 48909, Note_off_c, 1, 64, 64
3, 48917, Note_on_c, 1, 66, 60
3, 49040, Note_off_c, 1, 66, 64
3, 50144, Note_on_c, 1, 70, 78
3, 50238, Note_on_c, 1, 71, 68
3, 50253, Note_off_c, 1, 70, 64
3, 50367, Note_off_c, 1, 71, 64
3, 50376, Note_on_c, 1, 73, 59
3, 50469, Note_off_c, 1, 73, 64
3, 50623, Note_on_c, 1, 66, 66
3, 50718, Note_on_c, 1, 64, 64
3, 50728, Note_off_c, 1, 66, 64
3, 50833, Note_off_c, 1, 64, 64
3, 50841, Note_on_c, 1, 66, 55
3, 50960, Note_off_c, 1, 66, 64
3, 52066, Note_on_c, 1, 73, 62
3, 52169, Note_on_c, 1, 74, 74
3, 52198, Note_off_c, 1, 73, 64
3, 52287, Note_off_c, 1, 74, 64
3, 52287, Note_on_c, 1, 76, 66
3, 52388, Note_off_c, 1, 76, 64
3, 52528, Note_on_c, 1, 66, 63
3, 52640, Note_on_c, 1, 64, 68
3, 52642, Note_off_c, 1, 66, 64
3, 52751, Note_off_c, 1, 64, 64
3, 52759, Note_on_c, 1, 66, 59
3, 52884, Note_off_c, 1, 66, 64
3, 53967, Note_on_c, 1, 70, 68
3, 54072, Note_on_c, 1, 71, 70
3, 54084, Note_off_c, 1, 70, 64
3, 54199, Note_on_c, 1, 73, 57
3, 54201, Note_off_c, 1, 71, 64
3, 54316, Note_off_c, 1, 73, 64
3, 70314, Note_on_c, 1, 66, 82
3, 70380, Note_off_c, 1, 66, 64
3, 70560, Note_on_c, 1, 71, 85
3, 71034, Note_off_c, 1, 71, 64
3, 71244, Note_on_c, 1, 79, 91
3, 71338, Note_off_c, 1, 79, 64
3, 71487, Note_on_c, 1, 78, 80
3, 71578, Note_off_c, 1, 78, 64
3, 71726, Note_on_c, 1, 70, 66
3, 71818, Note_off_c, 1, 70, 64
3, 71973, Note_on_c, 1, 71, 80
3, 72060, Note_off_c, 1, 71, 64
3, 72227, Note_on_c, 1, 64, 89
3, 72328, Note_off_c, 1, 64, 64
3, 72476, Note_on_c, 1, 62, 87
3, 72580, Note_off_c, 1, 62, 64
3, 72700, Note_on_c, 1, 76, 82
3, 72805, Note_off_c, 1, 76, 64
3, 72947, Note_on_c, 1, 74, 78
3, 73064, Note_off_c, 1, 74, 64
3, 73189, Note_on_c, 1, 76, 76
3, 73288, Note_off_c, 1, 76, 64
3, 73419, Note_on_c, 1, 78, 76
3, 73509, Note_off_c, 1, 78, 64
3, 73646, Note_on_c, 1, 70, 66
3, 73734, Note_off_c, 1, 70, 64
3, 73882, Note_on_c, 1, 71, 85
3, 73987, Note_off_c, 1, 71, 64
3, 74118, Note_on_c, 1, 70, 64
3, 74223, Note_off_c, 1, 70, 64
3, 74348, Note_on_c, 1, 71, 85
3, 74458, Note_off_c, 1, 71, 64
3, 74604, Note_on_c, 1, 73, 76
3, 74694, Note_off_c, 1, 73, 64
3, 74853, Note_on_c, 1, 74, 89
3, 74926, Note_off_c, 1, 74, 64
3, 75103, Note_on_c, 1, 69, 91
3, 75416, Note_off_c, 1, 69, 64
3, 75448, Note_on_c, 1, 67, 78
3, 75527, Note_off_c, 1, 67, 64
3, 75558, Note_on_c, 1, 66, 82
3, 75633, Note_off_c, 1, 66, 64
3, 75670, Note_on_c, 1, 64, 87
3, 75744, Note_off_c, 1, 64, 64
3, 75821, Note_on_c, 1, 62, 93
3, 75942, Note_off_c, 1, 62, 64
3, 76055, Note_on_c, 1, 74, 85
3, 76142, Note_off_c, 1, 74, 64
3, 76293, Note_on_c, 1, 74, 91
3, 76383, Note_off_c, 1, 74, 64
3, 76537, Note_on_c, 1, 73, 82
3, 76618, Note_off_c, 1, 73, 64
3, 76787, Note_on_c, 1, 69, 78
3, 77297, Note_off_c, 1, 69, 64
3, 77969, Note_on_c, 1, 66, 80
3, 78040, Note_off_c, 1, 66, 64
3, 78227, Note_on_c, 1, 71, 89
3, 78707, Note_off_c, 1, 71, 64
3, 78924, Note_on_c, 1, 79, 87
3, 79014, Note_off_c, 1, 79, 64
3, 79177, Note_on_c, 1, 78, 82
3, 79275, Note_off_c, 1, 78, 64
3, 79410, Note_on_c, 1, 70, 76
3, 79523, Note_off_c, 1, 70, 64
3, 79667, Note_on_c, 1, 71, 87
3, 79755, Note_off_c, 1, 71, 64
3, 79903, Note_on_c, 1, 64, 87
3, 80026, Note_off_c, 1, 64, 64
3, 80151, Note_on_c, 1, 62, 85
3, 80245, Note_off_c, 1, 62, 64
3, 80394, Note_on_c, 1, 76, 82
3, 80488, Note_off_c, 1, 76, 64
3, 80627, Note_on_c, 1, 74, 78
3, 80728, Note_off_c, 1, 74, 64
3, 80869, Note_on_c, 1, 76, 85
3, 80957, Note_off_c, 1, 76, 64
3, 81105, Note_on_c, 1, 78, 93
3, 81193, Note_off_c, 1, 78, 64
3, 81327, Note_on_c, 1, 70, 68
3, 81439, Note_off_c, 1, 70, 64
3, 81566, Note_on_c, 1, 71, 85
3, 81667, Note_off_c, 1, 71, 64
3, 81792, Note_on_c, 1, 70, 70
3, 81898, Note_off_c, 1, 70, 64
3, 82035, Note_on_c, 1, 71, 80
3, 82138, Note_off_c, 1, 71, 64
3, 82286, Note_on_c, 1, 73, 74
3, 82376, Note_off_c, 1, 73, 64
3, 82526, Note_on_c, 1, 74, 85
3, 82629, Note_off_c, 1, 74, 64
3, 82781, Note_on_c, 1, 69, 89
3, 83100, Note_off_c, 1, 69, 64
3, 83134, Note_on_c, 1, 67, 78
3, 83211, Note_off_c, 1, 67, 64
3, 83249, Note_on_c, 1, 66, 74
3, 83322, Note_off_c, 1, 66, 64
3, 83357, Note_on_c, 1, 64, 80
3, 83438, Note_off_c, 1, 64, 64
3, 83512, Note_on_c, 1, 62, 93
3, 83614, Note_off_c, 1, 62, 64
3, 83752, Note_on_c, 1, 74, 91
3, 83827, Note_off_c, 1, 74, 64
3, 83992, Note_on_c, 1, 74, 87
3, 84088, Note_off_c, 1, 74, 64
3, 84224, Note_on_c, 1, 73, 76
3, 84302, Note_off_c, 1, 73, 64
3, 84463, Note_on_c, 1, 69, 85
3, 84958, Note_off_c, 1, 69, 64
3, 84958, End_track
4, 0, Start_track
4, 0, Title_t, "Viola"
4, 0, Program_c, 2, 41
4, 0, Control_c, 2, 7, 100
4, 1170, Note_on_c, 2, 62, 85
4, 1260, Note_off_c, 2, 62, 64
4, 1269, Note_on_c, 2, 64, 80
4, 1350, Note_off_c, 2, 64, 64
4, 1398, Note_on_c, 2, 66, 85
4, 1496, Note_off_c, 2, 66, 64
4, 1642, Note_on_c, 2, 64, 74
4, 1720, Note_off_c, 2, 64, 64
4, 1861, Note_on_c, 2, 62, 82
4, 1953, Note_off_c, 2, 62, 64
4, 2112, Note_on_c, 2, 64, 80
4, 2189, Note_off_c, 2, 64, 64
4, 2373, Note_on_c, 2, 66, 70
4, 2967, Note_off_c, 2, 66, 64
4, 3109, Note_on_c, 2, 70, 68
4, 3210, Note_off_c, 2, 70, 64
4, 3351, Note_on_c, 2, 71, 85
4, 3450, Note_off_c, 2, 71, 64
4, 3592, Note_on_c, 2, 73, 82
4, 3690, Note_off_c, 2, 73, 64
4, 3832, Note_on_c, 2, 66, 85
4, 3927, Note_off_c, 2, 66, 64
4, 4065, Note_on_c, 2, 64, 80
4, 4167, Note_off_c, 2, 64, 64
4, 4303, Note_on_c, 2, 62, 78
4, 4399, Note_off_c, 2, 62, 64
4, 4535, Note_on_c, 2, 64, 85
4, 4623, Note_off_c, 2, 64, 64
4, 4775, Note_on_c, 2, 66, 80
4, 4854, Note_off_c, 2, 66, 64
4, 5021, Note_on_c, 2, 64, 80
4, 5096, Note_off_c, 2, 64, 64
4, 5253, Note_on_c, 2, 66, 82
4, 5777, Note_off_c, 2, 66, 64
4, 5816, Note_on_c, 2, 67, 80
4, 5877, Note_off_c, 2, 67, 64
4, 5935, Note_on_c, 2, 64, 74
4, 6023, Note_off_c, 2, 64, 64
4, 6060, Note_on_c, 2, 66, 72
4, 6131, Note_off_c, 2, 66, 64
4, 6202, Note_on_c, 2, 62, 87
4, 6313, Note_off_c, 2, 62, 64
4, 6445, Note_on_c, 2, 64, 85
4, 6545, Note_off_c, 2, 64, 64
4, 6678, Note_on_c, 2, 66, 80
4, 6776, Note_off_c, 2, 66, 64
4, 6927, Note_on_c, 2, 71, 87
4, 7020, Note_off_c, 2, 71, 64
4, 7167, Note_on_c, 2, 69, 89
4, 7265, Note_off_c, 2, 69, 64
4, 7400, Note_on_c, 2, 67, 82
4, 7484, Note_off_c, 2, 67, 64
4, 7647, Note_on_c, 2, 66, 82
4, 8164, Note_off_c, 2, 66, 64
4, 8857, Note_on_c, 2, 62, 82
4, 8951, Note_on_c, 2, 64, 76
4, 8961, Note_off_c, 2, 62, 64
4, 9053, Note_off_c, 2, 64, 64
4, 9089, Note_on_c, 2, 66, 85
4, 9197, Note_off_c, 2, 66, 64
4, 9320, Note_on_c, 2, 64, 68
4, 9422, Note_off_c, 2, 64, 64
4, 9548, Note_on_c, 2, 62, 85
4, 9637, Note_off_c, 2, 62, 64
4, 9802, Note_on_c, 2, 64, 82
4, 9892, Note_off_c, 2, 64, 64
4, 10063, Note_on_c, 2, 66, 82
4, 10600, Note_off_c, 2, 66, 64
4, 10781, Note_on_c, 2, 70, 80
4, 10889, Note_off_c, 2, 70, 64
4, 11029, Note_on_c, 2, 71, 82
4, 11132, Note_off_c, 2, 71, 64
4, 11278, Note_on_c, 2, 73, 82
4, 11367, Note_off_c, 2, 73, 64
4, 11512, Note_on_c, 2, 66, 78
4, 11620, Note_off_c, 2, 66, 64
4, 11747, Note_on_c, 2, 64, 78
4, 11856, Note_off_c, 2, 64, 64
4, 11989, Note_on_c, 2, 62, 76
4, 12063, Note_off_c, 2, 62, 64
4, 12219, Note_on_c, 2, 64, 78
4, 12302, Note_off_c, 2, 64, 64
4, 12449, Note_on_c, 2, 66, 80
4, 12536, Note_off_c, 2, 66, 64
4, 12684, Note_on_c, 2, 64, 85
4, 12766, Note_off_c, 2, 64, 64
4, 12929, Note_on_c, 2, 66, 80
4, 13475, Note_off_c, 2, 66, 64
4, 13538, Note_on_c, 2, 67, 78
4, 13605, Note_off_c, 2, 67, 64
4, 13644, Note_on_c, 2, 64, 80
4, 13728, Note_off_c, 2, 64, 64
4, 13761, Note_on_c, 2, 66, 82
4, 13834, Note_off_c, 2, 66, 64
4, 13900, Note_on_c, 2, 62, 87
4, 14016, Note_off_c, 2, 62, 64
4, 14141, Note_on_c, 2, 64, 85
4, 14243, Note_off_c, 2, 64, 64
4, 14367, Note_on_c, 2, 66, 80
4, 14460, Note_off_c, 2, 66, 64
4, 14607, Note_on_c, 2, 71, 85
4, 14705, Note_off_c, 2, 71, 64
4, 14849, Note_on_c, 2, 69, 85
4, 14959, Note_off_c, 2, 69, 64
4, 15082, Note_on_c, 2, 67, 85
4, 15159, Note_off_c, 2, 67, 64
4, 15331, Note_on_c, 2, 66, 85
4, 15854, Note_off_c, 2, 66, 64
4, 46811, Note_on_c, 2, 62, 82
4, 46912, Note_on_c, 2, 61, 58
4, 46936, Note_off_c, 2, 62, 64
4, 47008, Note_off_c, 2, 61, 64
4, 47032, Note_on_c, 2, 62, 51
4, 47152, Note_off_c, 2, 62, 64
4, 48193, Note_on_c, 2, 66, 78
4, 48291, Note_off_c, 2, 66, 64
4, 48443, Note_on_c, 2, 64, 78
4, 48537, Note_off_c, 2, 64, 64
4, 48677, Note_on_c, 2, 62, 76
4, 48775, Note_on_c, 2, 61, 60
4, 48792, Note_off_c, 2, 62, 64
4, 48888, Note_off_c, 2, 61, 64
4, 48911, Note_on_c, 2, 62, 55
4, 49040, Note_off_c, 2, 62, 64
4, 50142, Note_on_c, 2, 66, 78
4, 50234, Note_on_c, 2, 68, 64
4, 50246, Note_off_c, 2, 66, 64
4, 50353, Note_off_c, 2, 68, 64
4, 50359, Note_on_c, 2, 70, 57
4, 50468, Note_off_c, 2, 70, 64
4, 50608, Note_on_c, 2, 62, 70
4, 50710, Note_on_c, 2, 61, 70
4, 50718, Note_off_c, 2, 62, 64
4, 50810, Note_off_c, 2, 61, 64
4, 50833, Note_on_c, 2, 62, 52
4, 50960, Note_off_c, 2, 62, 64
4, 52059, Note_on_c, 2, 66, 68
4, 52219, Note_off_c, 2, 66, 64
4, 52284, Note_on_c, 2, 64, 68
4, 52377, Note_off_c, 2, 64, 64
4, 52535, Note_on_c, 2, 62, 72
4, 52634, Note_on_c, 2, 61, 66
4, 52650, Note_off_c, 2, 62, 64
4, 52751, Note_off_c, 2, 61, 64
4, 52763, Note_on_c, 2, 62, 64
4, 52876, Note_off_c, 2, 62, 64
4, 53967, Note_on_c, 2, 66, 68
4, 54061, Note_on_c, 2, 68, 59
4, 54076, Note_off_c, 2, 66, 64
4, 54185, Note_on_c, 2, 70, 57
4, 54191, Note_off_c, 2, 68, 64
4, 54314, Note_off_c, 2, 70, 64
4, 70290, Note_on_c, 2, 62, 85
4, 70380, Note_off_c, 2, 62, 64
4, 70389, Note_on_c, 2, 64, 80
4, 70470, Note_off_c, 2, 64, 64
4, 70518, Note_on_c, 2, 66, 85
4, 70616, Note_off_c, 2, 66, 64
4, 70762, Note_on_c, 2, 64, 74
4, 70840, Note_off_c, 2, 64, 64
4, 70981, Note_on_c, 2, 62, 82
4, 71073, Note_off_c, 2, 62, 64
4, 71232, Note_on_c, 2, 64, 80
4, 71309, Note_off_c, 2, 64, 64
4, 71493, Note_on_c, 2, 66, 70
4, 72087, Note_off_c, 2, 66, 64
4, 72229, Note_on_c, 2, 70, 68
4, 72330, Note_off_c, 2, 70, 64
4, 72471, Note_on_c, 2, 71, 85
4, 72570, Note_off_c, 2, 71, 64
4, 72712, Note_on_c, 2, 73, 82
4, 72810, Note_off_c, 2, 73, 64
4, 72952, Note_on_c, 2, 66, 85
4, 73047, Note_off_c, 2, 66, 64
4, 73185, Note_on_c, 2, 64, 80
4, 73287, Note_off_c, 2, 64, 64
4, 73423, Note_on_c, 2, 62, 78
4, 73519, Note_off_c, 2, 62, 64
4, 73655, Note_on_c, 2, 64, 85
4, 73743, Note_off_c, 2, 64, 64
4, 73895, Note_on_c, 2, 66, 80
4, 73974, Note_off_c, 2, 66, 64
4, 74141, Note_on_c, 2, 64, 80
4, 74216, Note_off_c, 2, 64, 64
4, 74373, Note_on_c, 2, 66, 82
4, 74897, Note_off_c, 2, 66, 64
4, 74936, Note_on_c, 2, 67, 80
4, 74997, Note_off_c, 2, 67, 64
4, 75055, Note_on_c, 2, 64, 74
4, 75143, Note_off_c, 2, 64, 64
4, 75180, Note_on_c, 2, 66, 72
4, 75251, Note_off_c, 2, 66, 64
4, 75322, Note_on_c, 2, 62, 87
4, 75433, Note_off_c, 2, 62, 64
4, 75565, Note_on_c, 2, 64, 85
4, 75665, Note_off_c, 2, 64, 64
4, 75798, Note_on_c, 2, 66, 80
4, 75896, Note_off_c, 2, 66, 64
4, 76047, Note_on_c, 2, 71, 87
4, 76140, Note_off_c, 2, 71, 64
4, 76287, Note_on_c, 2, 69, 89
4, 76385, Note_off_c, 2, 69, 64
4, 76520, Note_on_c, 2, 67, 82
4, 76604, Note_off_c, 2, 67, 64
4, 76767, Note_on_c, 2, 66, 82
4, 77284, Note_off_c, 2, 66, 64
4, 77977, Note_on_c, 2, 62, 82
4, 78071, Note_on_c, 2, 64, 76
4, 78081, Note_off_c, 2, 62, 64
4, 78173, Note_off_c, 2, 64, 64
4, 78209, Note_on_c, 2, 66, 85
4, 78317, Note_off_c, 2, 66, 64
4, 78440, Note_on_c, 2, 64, 68
4, 78542, Note_off_c, 2, 64, 64
4, 78668, Note_on_c, 2, 62, 85
4, 78757, Note_off_c, 2, 62, 64
4, 78922, Note_on_c, 2, 64, 82
4, 79012, Note_off_c, 2, 64, 64
4, 79183, Note_on_c, 2, 66, 82
4, 79720, Note_off_c, 2, 66, 64
4, 79901, Note_on_c, 2, 70, 80
4, 80009, Note_off_c, 2, 70, 64
4, 80149, Note_on_c, 2, 71, 82
4, 80252, Note_off_c, 2, 71, 64
4, 80398, Note_on_c, 2, 73, 82
4, 80487, Note_off_c, 2, 73, 64
4, 80632, Note_on_c, 2, 66, 78
4, 80740, Note_off_c, 2, 66, 64
4, 80867, Note_on_c, 2, 64, 78
4, 80976, Note_off_c, 2, 64, 64
4, 81109, Note_on_c, 2, 62, 76
4, 81183, Note_off_c, 2, 62, 64
4, 81339, Note_on_c, 2, 64, 78
4, 81422, Note_off_c, 2, 64, 64
4, 81569, Note_on_c, 2, 66, 80
4, 81656, Note_off_c, 2, 66, 64
4, 81804, Note_on_c, 2, 64, 85
4, 81886, Note_off_c, 2, 64, 64
4, 82049, Note_on_c, 2, 66, 80
4, 82595, Note_off_c, 2, 66, 64
4, 82658, Note_on_c, 2, 67, 78
4, 82725, Note_off_c, 2, 67, 64
4, 82764, Note_on_c, 2, 64, 80
4, 82848, Note_off_c, 2, 64, 64
4, 82881, Note_on_c, 2, 66, 82
4, 82954, Note_off_c, 2, 66, 64
4, 83020, Note_on_c, 2, 62, 87
4, 83136, Note_off_c, 2, 62, 64
4, 83261, Note_on_c, 2, 64, 85
4, 83363, Note_off_c, 2, 64, 64
4, 83487, Note_on_c, 2, 66, 80
4, 83580, Note_off_c, 2, 66, 64
4, 83727, Note_on_c, 2, 71, 85
4, 83825, Note_off_c, 2, 71, 64
4, 83969, Note_on_c, 2, 69, 85
4, 84079, Note_off_c, 2, 69, 64
4, 84202, Note_on_c, 2, 67, 85
4, 84279, Note_off_c, 2, 67, 64
4, 84451, Note_on_c, 2, 66, 85
4, 84974, Note_off_c, 2, 66, 64
4, 84974, End_track
5, 0, Start_track
5, 0, Title_t, "Cello"
5, 0, Program_c, 3, 42
5, 0, Control_c, 3, 7, 100
5, 1175, Note_on_c, 3, 59, 74
5, 1265, Note_off_c, 3, 59, 64
5, 1277, Note_on_c, 3, 61, 62
5, 1346, Note_off_c, 3, 61, 64
5, 1407, Note_on_c, 3, 62, 80
5, 1519, Note_off_c, 3, 62, 64
5, 1642, Note_on_c, 3, 61, 62
5, 1736, Note_off_c, 3, 61, 64
5, 1880, Note_on_c, 3, 59, 70
5, 1970, Note_off_c, 3, 59, 64
5, 2118, Note_on_c, 3, 61, 64
5, 2208, Note_off_c, 3, 61, 64
5, 2360, Note_on_c, 3, 62, 85
5, 2458, Note_off_c, 3, 62, 64
5, 2606, Note_on_c, 3, 61, 63
5, 2703, Note_off_c, 3, 61, 64
5, 2853, Note_on_c, 3, 59, 74
5, 2955, Note_off_c, 3, 59, 64
5, 3097, Note_on_c, 3, 61, 63
5, 3199, Note_off_c, 3, 61, 64
5, 3345, Note_on_c, 3, 62, 82
5, 3448, Note_off_c, 3, 62, 64
5, 3585, Note_on_c, 3, 61, 63
5, 3679, Note_off_c, 3, 61, 64
5, 3825, Note_on_c, 3, 59, 70
5, 3930, Note_off_c, 3, 59, 64
5, 4063, Note_on_c, 3, 61, 66
5, 4161, Note_off_c, 3, 61, 64
5, 4305, Note_on_c, 3, 62, 80
5, 4414, Note_off_c, 3, 62, 64
5, 4533, Note_on_c, 3, 61, 61
5, 4627, Note_off_c, 3, 61, 64
5, 4760, Note_on_c, 3, 59, 72
5, 4873, Note_off_c, 3, 59, 64
5, 5009, Note_on_c, 3, 61, 64
5, 5117, Note_off_c, 3, 61, 64
5, 5246, Note_on_c, 3, 62, 80
5, 5355, Note_off_c, 3, 62, 64
5, 5489, Note_on_c, 3, 61, 63
5, 5595, Note_off_c, 3, 61, 64
5, 5720, Note_on_c, 3, 59, 64
5, 5823, Note_off_c, 3, 59, 64
5, 5962, Note_on_c, 3, 61, 63
5, 6069, Note_off_c, 3, 61, 64
5, 6204, Note_on_c, 3, 62, 80
5, 6315, Note_off_c, 3, 62, 64
5, 6449, Note_on_c, 3, 61, 63
5, 6538, Note_off_c, 3, 61, 64
5, 6697, Note_on_c, 3, 59, 82
5, 6815, Note_off_c, 3, 59, 64
5, 6933, Note_on_c, 3, 55, 80
5, 7033, Note_off_c, 3, 55, 64
5, 7166, Note_on_c, 3, 57, 80
5, 7269, Note_off_c, 3, 57, 64
5, 7411, Note_on_c, 3, 45, 87
5, 7521, Note_off_c, 3, 45, 64
5, 7653, Note_on_c, 3, 50, 80
5, 7736, Note_off_c, 3, 50, 64
5, 7895, Note_on_c, 3, 45, 85
5, 7968, Note_off_c, 3, 45, 64
5, 8160, Note_on_c, 3, 38, 85
5, 8406, Note_off_c, 3, 38, 64
5, 8865, Note_on_c, 3, 59, 82
5, 8951, Note_off_c, 3, 59, 64
5, 8965, Note_on_c, 3, 61, 70
5, 9045, Note_off_c, 3, 61, 64
5, 9086, Note_on_c, 3, 62, 82
5, 9197, Note_off_c, 3, 62, 64
5, 9335, Note_on_c, 3, 61, 63
5, 9414, Note_off_c, 3, 61, 64
5, 9567, Note_on_c, 3, 59, 76
5, 9662, Note_off_c, 3, 59, 64
5, 9800, Note_on_c, 3, 61, 66
5, 9894, Note_off_c, 3, 61, 64
5, 10044, Note_on_c, 3, 62, 80
5, 10151, Note_off_c, 3, 62, 64
5, 10298, Note_on_c, 3, 61, 64
5, 10391, Note_off_c, 3, 61, 64
5, 10543, Note_on_c, 3, 59, 66
5, 10643, Note_off_c, 3, 59, 64
5, 10777, Note_on_c, 3, 61, 63
5, 10865, Note_off_c, 3, 61, 64
5, 11019, Note_on_c, 3, 62, 80
5, 11123, Note_off_c, 3, 62, 64
5, 11255, Note_on_c, 3, 61, 61
5, 11347, Note_off_c, 3, 61, 64
5, 11505, Note_on_c, 3, 59, 74
5, 11607, Note_off_c, 3, 59, 64
5, 11752, Note_on_c, 3, 61, 64
5, 11841, Note_off_c, 3, 61, 64
5, 11987, Note_on_c, 3, 62, 76
5, 12094, Note_off_c, 3, 62, 64
5, 12225, Note_on_c, 3, 61, 63
5, 12328, Note_off_c, 3, 61, 64
5, 12467, Note_on_c, 3, 59, 66
5, 12570, Note_off_c, 3, 59, 64
5, 12699, Note_on_c, 3, 61, 64
5, 12797, Note_off_c, 3, 61, 64
5, 12941, Note_on_c, 3, 62, 80
5, 13043, Note_off_c, 3, 62, 64
5, 13173, Note_on_c, 3, 61, 68
5, 13267, Note_off_c, 3, 61, 64
5, 13407, Note_on_c, 3, 59, 66
5, 13511, Note_off_c, 3, 59, 64
5, 13644, Note_on_c, 3, 61, 66
5, 13747, Note_off_c, 3, 61, 64
5, 13891, Note_on_c, 3, 62, 82
5, 13997, Note_off_c, 3, 62, 64
5, 14145, Note_on_c, 3, 61, 64
5, 14229, Note_off_c, 3, 61, 64
5, 14376, Note_on_c, 3, 59, 85
5, 14488, Note_off_c, 3, 59, 64
5, 14615, Note_on_c, 3, 55, 78
5, 14715, Note_off_c, 3, 55, 64
5, 14857, Note_on_c, 3, 57, 87
5, 14945, Note_off_c, 3, 57, 64
5, 15100, Note_on_c, 3, 45, 82
5, 15205, Note_off_c, 3, 45, 64
5, 15328, Note_on_c, 3, 50, 93
5, 15402, Note_off_c, 3, 50, 64
5, 15575, Note_on_c, 3, 45, 85
5, 15652, Note_off_c, 3, 45, 64
5, 15840, Note_on_c, 3, 38, 85
5, 16095, Note_off_c, 3, 38, 64
5, 47252, Note_on_c, 3, 59, 74
5, 47355, Note_off_c, 3, 59, 64
5, 47492, Note_on_c, 3, 55, 68
5, 47573, Note_off_c, 3, 55, 64
5, 47727, Note_on_c, 3, 52, 66
5, 47811, Note_off_c, 3, 52, 64
5, 47968, Note_on_c, 3, 54, 60
5, 48448, Note_off_c, 3, 54, 64
5, 49163, Note_on_c, 3, 59, 78
5, 49240, Note_off_c, 3, 59, 64
5, 49410, Note_on_c, 3, 55, 76
5, 49485, Note_off_c, 3, 55, 64
5, 49631, Note_on_c, 3, 52, 66
5, 49723, Note_off_c, 3, 52, 64
5, 49895, Note_on_c, 3, 54, 70
5, 50551, Note_off_c, 3, 54, 64
5, 51104, Note_on_c, 3, 59, 78
5, 51183, Note_off_c, 3, 59, 64
5, 51348, Note_on_c, 3, 55, 68
5, 51426, Note_off_c, 3, 55, 64
5, 51580, Note_on_c, 3, 52, 66
5, 51672, Note_off_c, 3, 52, 64
5, 51816, Note_on_c, 3, 54, 64
5, 52300, Note_off_c, 3, 54, 64
5, 53008, Note_on_c, 3, 59, 76
5, 53091, Note_off_c, 3, 59, 64
5, 53245, Note_on_c, 3, 55, 82
5, 53316, Note_off_c, 3, 55, 64
5, 53485, Note_on_c, 3, 52, 68
5, 53573, Note_off_c, 3, 52, 64
5, 53725, Note_on_c, 3, 54, 80
5, 54318, Note_off_c, 3, 54, 64
5, 70295, Note_on_c, 3, 59, 74
5, 70385, Note_off_c, 3, 59, 64
5, 70397, Note_on_c, 3, 61, 62
5, 70466, Note_off_c, 3, 61, 64
5, 70527, Note_on_c, 3, 62, 80
5, 70639, Note_off_c, 3, 62, 64
5, 70762, Note_on_c, 3, 61, 62
5, 70856, Note_off_c, 3, 61, 64
5, 71000, Note_on_c, 3, 59, 70
5, 71090, Note_off_c, 3, 59, 64
5, 71238, Note_on_c, 3, 61, 64
5, 71328, Note_off_c, 3, 61, 64
5, 71480, Note_on_c, 3, 62, 85
5, 71578, Note_off_c, 3, 62, 64
5, 71726, Note_on_c, 3, 61, 63
5, 71823, Note_off_c, 3, 61, 64
5, 71973, Note_on_c, 3, 59, 74
5, 72075, Note_off_c, 3, 59, 64
5, 72217, Note_on_c, 3, 61, 63
5, 72319, Note_off_c, 3, 61, 64
5, 72465, Note_on_c, 3, 62, 82
5, 72568, Note_off_c, 3, 62, 64
5, 72705, Note_on_c, 3, 61, 63
5, 72799, Note_off_c, 3, 61, 64
5, 72945, Note_on_c, 3, 59, 70
5, 73050, Note_off_c, 3, 59, 64
5, 73183, Note_on_c, 3, 61, 66
5, 73281, Note_off_c, 3, 61, 64
5, 73425, Note_on_c, 3, 62, 80
5, 73534, Note_off_c, 3, 62, 64
5, 73653, Note_on_c, 3, 61, 61
5, 73747, Note_off_c, 3, 61, 64
5, 73880, Note_on_c, 3, 59, 72
5, 73993, Note_off_c, 3, 59, 64
5, 74129, Note_on_c, 3, 61, 64
5, 74237, Note_off_c, 3, 61, 64
5, 74366, Note_on_c, 3, 62, 80
5, 74475, Note_off_c, 3, 62, 64
5, 74609, Note_on_c, 3, 61, 63
5, 74715, Note_off_c, 3, 61, 64
5, 74840, Note_on_c, 3, 59, 64
5, 74943, Note_off_c, 3, 59, 64
5, 75082, Note_on_c, 3, 61, 63
5, 75189, Note_off_c, 3, 61, 64
5, 75324, Note_on_c, 3, 62, 80
5, 75435, Note_off_c, 3, 62, 64
5, 75569, Note_on_c, 3, 61, 63
5, 75658, Note_off_c, 3, 61, 64
5, 75817, Note_on_c, 3, 59, 82
5, 75935, Note_off_c, 3, 59, 64
5, 76053, Note_on_c, 3, 55, 80
5, 76153, Note_off_c, 3, 55, 64
5, 76286, Note_on_c, 3, 57, 80
5, 76389, Note_off_c, 3, 57, 64
5, 76531, Note_on_c, 3, 45, 87
5, 76641, Note_off_c, 3, 45, 64
5, 76773, Note_on_c, 3, 50, 80
5, 76856, Note_off_c, 3, 50, 64
5, 77015, Note_on_c, 3, 45, 85
5, 77088, Note_off_c, 3, 45, 64
5, 77280, Note_on_c, 3, 38, 85
5, 77526, Note_off_c, 3, 38, 64
5, 77985, Note_on_c, 3, 59, 82
5, 78071, Note_off_c, 3, 59, 64
5, 78085, Note_on_c, 3, 61, 70
5, 78165, Note_off_c, 3, 61, 64
5, 78206, Note_on_c, 3, 62, 82
5, 78317, Note_off_c, 3, 62, 64
5, 78455, Note_on_c, 3, 61, 63
5, 78534, Note_off_c, 3, 61, 64
5, 78687, Note_on_c, 3, 59, 76
5, 78782, Note_off_c, 3, 59, 64
5, 78920, Note_on_c, 3, 61, 66
5, 79014, Note_off_c, 3, 61, 64
5, 79164, Note_on_c, 3, 62, 80
5, 79271, Note_off_c, 3, 62, 64
5, 79418, Note_on_c, 3, 61, 64
5, 79511, Note_off_c, 3, 61, 64
5, 79663, Note_on_c, 3, 59, 66
5, 79763, Note_off_c, 3, 59, 64
5, 79897, Note_on_c, 3, 61, 63
5, 79985, Note_off_c, 3, 61, 64
5, 80139, Note_on_c, 3, 62, 80
5, 80243, Note_off_c, 3, 62, 64
5, 80375, Note_on_c, 3, 61, 61
5, 80467, Note_off_c, 3, 61, 64
5, 80625, Note_on_c, 3, 59, 74
5, 80727, Note_off_c, 3, 59, 64
5, 80872, Note_on_c, 3, 61, 64
5, 80961, Note_off_c, 3, 61, 64
5, 81107, Note_on_c, 3, 62, 76
5, 81214, Note_off_c, 3, 62, 64
5, 81345, Note_on_c, 3, 61, 63
5, 81448, Note_off_c, 3, 61, 64
5, 81587, Note_on_c, 3, 59, 66
5, 81690, Note_off_c, 3, 59, 64
5, 81819, Note_on_c, 3, 61, 64
5, 81917, Note_off_c, 3, 61, 64
5, 82061, Note_on_c, 3, 62, 80
5, 82163, Note_off_c, 3, 62, 64
5, 82293, Note_on_c, 3, 61, 68
5, 82387, Note_off_c, 3, 61, 64
5, 82527, Note_on_c, 3, 59, 66
5, 82631, Note_off_c, 3, 59, 64
5, 82764, Note_on_c, 3, 61, 66
5, 82867, Note_off_c, 3, 61, 64
5, 83011, Note_on_c, 3, 62, 82
5, 83117, Note_off_c, 3, 62, 64
5, 83265, Note_on_c, 3, 61, 64
5, 83349, Note_off_c, 3, 61, 64
5, 83496, Note_on_c, 3, 59, 85
5, 83608, Note_off_c, 3, 59, 64
5, 83735, Note_on_c, 3, 55, 78
5, 83835, Note_off_c, 3, 55, 64
5, 83977, Note_on_c, 3, 57, 87
5, 84065, Note_off_c, 3, 57, 64
5, 84220, Note_on_c, 3, 45, 82
5, 84325, Note_off_c, 3, 45, 64
5, 84448, Note_on_c, 3, 50, 93
5, 84522, Note_off_c, 3, 50, 64
5, 84695, Note_on_c, 3, 45, 85
5, 84772, Note_off_c, 3, 45, 64
5, 84960, Note_on_c, 3, 38, 85
5, 85215, Note_off_c, 3, 38, 64
5, 85215, End_track
6, 0, Start_track
6, 0, Title_t, "Flute"
6, 0, Program_c, 4, 73
6, 0, Control_c, 4, 7, 127
6, 709, Note_on_c, 4, 66, 82
6, 780, Note_off_c, 4, 66, 64
6, 954, Note_on_c, 4, 71, 80
6, 1473, Note_off_c, 4, 71, 64
6, 1540, Note_on_c, 4, 73, 63
6, 1628, Note_off_c, 4, 73, 64
6, 1642, Note_on_c, 4, 74, 80
6, 1715, Note_off_c, 4, 74, 64
6, 1740, Note_on_c, 4, 76, 74
6, 1818, Note_off_c, 4, 76, 64
6, 1874, Note_on_c, 4, 78, 85
6, 1941, Note_off_c, 4, 78, 64
6, 2116, Note_on_c, 4, 70, 66
6, 2191, Note_off_c, 4, 70, 64
6, 2377, Note_on_c, 4, 71, 72
6, 2460, Note_off_c, 4, 71, 64
6, 2615, Note_on_c, 4, 76, 74
6, 2698, Note_off_c, 4, 76, 64
6, 2867, Note_on_c, 4, 74, 80
6, 2965, Note_off_c, 4, 74, 64
6, 3114, Note_on_c, 4, 79, 80
6, 3199, Note_off_c, 4, 79, 64
6, 3356, Note_on_c, 4, 78, 64
6, 3452, Note_off_c, 4, 78, 64
6, 3585, Note_on_c, 4, 82, 76
6, 3650, Note_off_c, 4, 82, 64
6, 3834, Note_on_c, 4, 83, 82
6, 4023, Note_off_c, 4, 83, 64
6, 4063, Note_on_c, 4, 81, 80
6, 4143, Note_off_c, 4, 81, 64
6, 4170, Note_on_c, 4, 79, 66
6, 4236, Note_off_c, 4, 79, 64
6, 4287, Note_on_c, 4, 78, 66
6, 4389, Note_off_c, 4, 78, 64
6, 4395, Note_on_c, 4, 79, 64
6, 4453, Note_off_c, 4, 79, 64
6, 4520, Note_on_c, 4, 76, 76
6, 4618, Note_off_c, 4, 76, 64
6, 4627, Note_on_c, 4, 78, 57
6, 4689, Note_off_c, 4, 78, 64
6, 4760, Note_on_c, 4, 74, 82
6, 4856, Note_off_c, 4, 74, 64
6, 4875, Note_on_c, 4, 76, 59
6, 4936, Note_off_c, 4, 76, 64
6, 5007, Note_on_c, 4, 73, 80
6, 5102, Note_off_c, 4, 73, 64
6, 5117, Note_on_c, 4, 74, 59
6, 5177, Note_off_c, 4, 74, 64
6, 5248, Note_on_c, 4, 71, 78
6, 5349, Note_off_c, 4, 71, 64
6, 5359, Note_on_c, 4, 73, 51
6, 5420, Note_off_c, 4, 73, 64
6, 5484, Note_on_c, 4, 69, 63
6, 5583, Note_on_c, 4, 71, 68
6, 5589, Note_off_c, 4, 69, 64
6, 5658, Note_off_c, 4, 71, 64
6, 5727, Note_on_c, 4, 67, 76
6, 5820, Note_off_c, 4, 67, 64
6, 5973, Note_on_c, 4, 76, 85
6, 6065, Note_off_c, 4, 76, 64
6, 6217, Note_on_c, 4, 66, 82
6, 6315, Note_off_c, 4, 66, 64
6, 6467, Note_on_c, 4, 69, 87
6, 6542, Note_off_c, 4, 69, 64
6, 6711, Note_on_c, 4, 74, 85
6, 6799, Note_off_c, 4, 74, 64
6, 6945, Note_on_c, 4, 79, 82
6, 7037, Note_off_c, 4, 79, 64
6, 7183, Note_on_c, 4, 79, 76
6, 7240, Note_on_c, 4, 78, 70
6, 7250, Note_off_c, 4, 79, 64
6, 7300, Note_off_c, 4, 78, 64
6, 7300, Note_on_c, 4, 79, 68
6, 7350, Note_on_c, 4, 78, 66
6, 7367, Note_off_c, 4, 79, 64
6, 7415, Note_on_c, 4, 76, 66
6, 7431, Note_off_c, 4, 78, 64
6, 7494, Note_off_c, 4, 76, 64
6, 7538, Note_on_c, 4, 74, 80
6, 7592, Note_off_c, 4, 74, 64
6, 7671, Note_on_c, 4, 74, 85
6, 8154, Note_off_c, 4, 74, 64
6, 8367, Note_on_c, 4, 66, 64
6, 8454, Note_off_c, 4, 66, 64
6, 8620, Note_on_c, 4, 71, 85
6, 9134, Note_off_c, 4, 71, 64
6, 9212, Note_on_c, 4, 73, 64
6, 9308, Note_off_c, 4, 73, 64
6, 9309, Note_on_c, 4, 74, 76
6, 9387, Note_off_c, 4, 74, 64
6, 9427, Note_on_c, 4, 76, 60
6, 9500, Note_off_c, 4, 76, 64
6, 9567, Note_on_c, 4, 78, 76
6, 9648, Note_off_c, 4, 78, 64
6, 9818, Note_on_c, 4, 70, 72
6, 9900, Note_off_c, 4, 70, 64
6, 10063, Note_on_c, 4, 71, 70
6, 10147, Note_off_c, 4, 71, 64
6, 10305, Note_on_c, 4, 76, 78
6, 10392, Note_off_c, 4, 76, 64
6, 10552, Note_on_c, 4, 74, 80
6, 10637, Note_off_c, 4, 74, 64
6, 10791, Note_on_c, 4, 79, 72
6, 10865, Note_off_c, 4, 79, 64
6, 11038, Note_on_c, 4, 78, 64
6, 11134, Note_off_c, 4, 78, 64
6, 11269, Note_on_c, 4, 82, 66
6, 11352, Note_off_c, 4, 82, 64
6, 11503, Note_on_c, 4, 83, 80
6, 11691, Note_off_c, 4, 83, 64
6, 11743, Note_on_c, 4, 81, 66
6, 11829, Note_off_c, 4, 81, 64
6, 11835, Note_on_c, 4, 79, 70
6, 11891, Note_off_c, 4, 79, 64
6, 11960, Note_on_c, 4, 78, 68
6, 12065, Note_off_c, 4, 78, 64
6, 12065, Note_on_c, 4, 79, 61
6, 12136, Note_off_c, 4, 79, 64
6, 12196, Note_on_c, 4, 76, 64
6, 12295, Note_off_c, 4, 76, 64
6, 12305, Note_on_c, 4, 78, 57
6, 12367, Note_off_c, 4, 78, 64
6, 12432, Note_on_c, 4, 74, 70
6, 12528, Note_off_c, 4, 74, 64
6, 12553, Note_on_c, 4, 76, 63
6, 12616, Note_off_c, 4, 76, 64
6, 12684, Note_on_c, 4, 73, 64
6, 12780, Note_off_c, 4, 73, 64
6, 12785, Note_on_c, 4, 74, 66
6, 12845, Note_off_c, 4, 74, 64
6, 12927, Note_on_c, 4, 71, 76
6, 13016, Note_off_c, 4, 71, 64
6, 13035, Note_on_c, 4, 73, 47
6, 13091, Note_off_c, 4, 73, 64
6, 13164, Note_on_c, 4, 69, 72
6, 13265, Note_on_c, 4, 71, 66
6, 13277, Note_off_c, 4, 69, 64
6, 13333, Note_off_c, 4, 71, 64
6, 13415, Note_on_c, 4, 67, 82
6, 13517, Note_off_c, 4, 67, 64
6, 13655, Note_on_c, 4, 76, 80
6, 13745, Note_off_c, 4, 76, 64
6, 13903, Note_on_c, 4, 66, 68
6, 13997, Note_off_c, 4, 66, 64
6, 14149, Note_on_c, 4, 69, 85
6, 14220, Note_off_c, 4, 69, 64
6, 14385, Note_on_c, 4, 74, 80
6, 14475, Note_off_c, 4, 74, 64
6, 14621, Note_on_c, 4, 79, 78
6, 14707, Note_off_c, 4, 79, 64
6, 14844, Note_on_c, 4, 79, 74
6, 14897, Note_on_c, 4, 78, 72
6, 14909, Note_off_c, 4, 79, 64
6, 14961, Note_off_c, 4, 78, 64
6, 14961, Note_on_c, 4, 79, 61
6, 15001, Note_on_c, 4, 78, 60
6, 15026, Note_off_c, 4, 79, 64
6, 15084, Note_on_c, 4, 76, 72
6, 15089, Note_off_c, 4, 78, 64
6, 15160, Note_off_c, 4, 76, 64
6, 15205, Note_on_c, 4, 74, 82
6, 15266, Note_off_c, 4, 74, 64
6, 15338, Note_on_c, 4, 74, 68
6, 15825, Note_off_c, 4, 74, 64
6, 46774, Note_on_c, 4, 71, 82
6, 46857, Note_off_c, 4, 71, 64
6, 46870, Note_on_c, 4, 70, 57
6, 46947, Note_off_c, 4, 70, 64
6, 47001, Note_on_c, 4, 71, 80
6, 47106, Note_on_c, 4, 73, 59
6, 47116, Note_off_c, 4, 71, 64
6, 47222, Note_off_c, 4, 73, 64
6, 47235, Note_on_c, 4, 74, 68
6, 47337, Note_off_c, 4, 74, 64
6, 47341, Note_on_c, 4, 78, 60
6, 47412, Note_off_c, 4, 78, 64
6, 47462, Note_on_c, 4, 76, 62
6, 47540, Note_off_c, 4, 76, 64
6, 47577, Note_on_c, 4, 74, 68
6, 47646, Note_off_c, 4, 74, 64
6, 47698, Note_on_c, 4, 73, 56
6, 47775, Note_off_c, 4, 73, 64
6, 47815, Note_on_c, 4, 71, 57
6, 47892, Note_off_c, 4, 71, 64
6, 47957, Note_on_c, 4, 70, 85
6, 48061, Note_on_c, 4, 71, 64
6, 48091, Note_off_c, 4, 70, 64
6, 48184, Note_off_c, 4, 71, 64
6, 48191, Note_on_c, 4, 70, 58
6, 48282, Note_off_c, 4, 70, 64
6, 48293, Note_on_c, 4, 71, 64
6, 48368, Note_off_c, 4, 71, 64
6, 48427, Note_on_c, 4, 73, 55
6, 48520, Note_off_c, 4, 73, 64
6, 48544, Note_on_c, 4, 66, 70
6, 48612, Note_off_c, 4, 66, 64
6, 48679, Note_on_c, 4, 71, 55
6, 48782, Note_on_c, 4, 70, 52
6, 48783, Note_off_c, 4, 71, 64
6, 48862, Note_off_c, 4, 70, 64
6, 48925, Note_on_c, 4, 71, 82
6, 49038, Note_on_c, 4, 73, 59
6, 49044, Note_off_c, 4, 71, 64
6, 49134, Note_off_c, 4, 73, 64
6, 49149, Note_on_c, 4, 74, 64
6, 49257, Note_on_c, 4, 78, 60
6, 49264, Note_off_c, 4, 74, 64
6, 49318, Note_off_c, 4, 78, 64
6, 49380, Note_on_c, 4, 76, 66
6, 49468, Note_off_c, 4, 76, 64
6, 49489, Note_on_c, 4, 74, 64
6, 49570, Note_off_c, 4, 74, 64
6, 49616, Note_on_c, 4, 73, 57
6, 49693, Note_off_c, 4, 73, 64
6, 49743, Note_on_c, 4, 71, 60
6, 49821, Note_off_c, 4, 71, 64
6, 49883, Note_on_c, 4, 78, 62
6, 50357, Note_off_c, 4, 78, 64
6, 50599, Note_on_c, 4, 71, 68
6, 50701, Note_off_c, 4, 71, 64
6, 50703, Note_on_c, 4, 70, 58
6, 50776, Note_off_c, 4, 70, 64
6, 50833, Note_on_c, 4, 71, 80
6, 50952, Note_on_c, 4, 73, 60
6, 50956, Note_off_c, 4, 71, 64
6, 51069, Note_off_c, 4, 73, 64
6, 51069, Note_on_c, 4, 74, 60
6, 51175, Note_on_c, 4, 78, 59
6, 51190, Note_off_c, 4, 74, 64
6, 51231, Note_off_c, 4, 78, 64
6, 51305, Note_on_c, 4, 76, 61
6, 51392, Note_off_c, 4, 76, 64
6, 51419, Note_on_c, 4, 74, 64
6, 51490, Note_off_c, 4, 74, 64
6, 51544, Note_on_c, 4, 73, 56
6, 51618, Note_off_c, 4, 73, 64
6, 51655, Note_on_c, 4, 71, 61
6, 51739, Note_off_c, 4, 71, 64
6, 51795, Note_on_c, 4, 70, 76
6, 51908, Note_on_c, 4, 71, 59
6, 51922, Note_off_c, 4, 70, 64
6, 51987, Note_off_c, 4, 71, 64
6, 52031, Note_on_c, 4, 70, 57
6, 52129, Note_off_c, 4, 70, 64
6, 52141, Note_on_c, 4, 71, 57
6, 52233, Note_off_c, 4, 71, 64
6, 52267, Note_on_c, 4, 73, 58
6, 52364, Note_off_c, 4, 73, 64
6, 52388, Note_on_c, 4, 66, 66
6, 52469, Note_off_c, 4, 66, 64
6, 52528, Note_on_c, 4, 71, 51
6, 52632, Note_off_c, 4, 71, 64
6, 52640, Note_on_c, 4, 70, 53
6, 52719, Note_off_c, 4, 70, 64
6, 52774, Note_on_c, 4, 71, 76
6, 52886, Note_on_c, 4, 73, 57
6, 52895, Note_off_c, 4, 71, 64
6, 52980, Note_off_c, 4, 73, 64
6, 52995, Note_on_c, 4, 74, 56
6, 53099, Note_on_c, 4, 78, 59
6, 53104, Note_off_c, 4, 74, 64
6, 53151, Note_off_c, 4, 78, 64
6, 53222, Note_on_c, 4, 76, 66
6, 53300, Note_off_c, 4, 76, 64
6, 53333, Note_on_c, 4, 74, 60
6, 53404, Note_off_c, 4, 74, 64
6, 53462, Note_on_c, 4, 73, 56
6, 53535, Note_off_c, 4, 73, 64
6, 53581, Note_on_c, 4, 71, 60
6, 53661, Note_off_c, 4, 71, 64
6, 53723, Note_on_c, 4, 78, 63
6, 54174, Note_off_c, 4, 78, 64
6, 69829, Note_on_c, 4, 66, 82
6, 69900, Note_off_c, 4, 66, 64
6, 70074, Note_on_c, 4, 71, 80
6, 70593, Note_off_c, 4, 71, 64
6, 70660, Note_on_c, 4, 73, 63
6, 70748, Note_off_c, 4, 73, 64
6, 70762, Note_on_c, 4, 74, 80
6, 70835, Note_off_c, 4, 74, 64
6, 70860, Note_on_c, 4, 76, 74
6, 70938, Note_off_c, 4, 76, 64
6, 70994, Note_on_c, 4, 78, 85
6, 71061, Note_off_c, 4, 78, 64
6, 71236, Note_on_c, 4, 70, 66
6, 71311, Note_off_c, 4, 70, 64
6, 71497, Note_on_c, 4, 71, 72
6, 71580, Note_off_c, 4, 71, 64
6, 71735, Note_on_c, 4, 76, 74
6, 71818, Note_off_c, 4, 76, 64
6, 71987, Note_on_c, 4, 74, 80
6, 72085, Note_off_c, 4, 74, 64
6, 72234, Note_on_c, 4, 79, 80
6, 72319, Note_off_c, 4, 79, 64
6, 72476, Note_on_c, 4, 78, 64
6, 72572, Note_off_c, 4, 78, 64
6, 72705, Note_on_c, 4, 82, 76
6, 72770, Note_off_c, 4, 82, 64
6, 72954, Note_on_c, 4, 83, 82
6, 73143, Note_off_c, 4, 83, 64
6, 73183, Note_on_c, 4, 81, 80
6, 73263, Note_off_c, 4, 81, 64
6, 73290, Note_on_c, 4, 79, 66
6, 73356, Note_off_c, 4, 79, 64
6, 73407, Note_on_c, 4, 78, 66
6, 73509, Note_off_c, 4, 78, 64
6, 73515, Note_on_c, 4, 79, 64
6, 73573, Note_off_c, 4, 79, 64
6, 73640, Note_on_c, 4, 76, 76
6, 73738, Note_off_c, 4, 76, 64
6, 73747, Note_on_c, 4, 78, 57
6, 73809, Note_off_c, 4, 78, 64
6, 73880, Note_on_c, 4, 74, 82
6, 73976, Note_off_c, 4, 74, 64
6, 73995, Note_on_c, 4, 76, 59
6, 74056, Note_off_c, 4, 76, 64
6, 74127, Note_on_c, 4, 73, 80
6, 74222, Note_off_c, 4, 73, 64
6, 74237, Note_on_c, 4, 74, 59
6, 74297, Note_off_c, 4, 74, 64
6, 74368, Note_on_c, 4, 71, 78
6, 74469, Note_off_c, 4, 71, 64
6, 74479, Note_on_c, 4, 73, 51
6, 74540, Note_off_c, 4, 73, 64
6, 74604, Note_on_c, 4, 69, 63
6, 74703, Note_on_c, 4, 71, 68
6, 74709, Note_off_c, 4, 69, 64
6, 74778, Note_off_c, 4, 71, 64
6, 74847, Note_on_c, 4, 67, 76
6, 74940, Note_off_c, 4, 67, 64
6, 75093, Note_on_c, 4, 76, 85
6, 75185, Note_off_c, 4, 76, 64
6, 75337, Note_on_c, 4, 66, 82
6, 75435, Note_off_c, 4, 66, 64
6, 75587, Note_on_c, 4, 69, 87
6, 75662, Note_off_c, 4, 69, 64
6, 75831, Note_on_c, 4, 74, 85
6, 75919, Note_off_c, 4, 74, 64
6, 76065, Note_on_c, 4, 79, 82
6, 76157, Note_off_c, 4, 79, 64
6, 76303, Note_on_c, 4, 79, 76
6, 76360, Note_on_c, 4, 78, 70
6, 76370, Note_off_c, 4, 79, 64
6, 76420, Note_off_c, 4, 78, 64
6, 76420, Note_on_c, 4, 79, 68
6, 76470, Note_on_c, 4, 78, 66
6, 76487, Note_off_c, 4, 79, 64
6, 76535, Note_on_c, 4, 76, 66
6, 76551, Note_off_c, 4, 78, 64
6, 76614, Note_off_c, 4, 76, 64
6, 76658, Note_on_c, 4, 74, 80
6, 76712, Note_off_c, 4, 74, 64
6, 76791, Note_on_c, 4, 74, 85
6, 77274, Note_off_c, 4, 74, 64
6, 77487, Note_on_c, 4, 66, 64
6, 77574, Note_off_c, 4, 66, 64
6, 77740, Note_on_c, 4, 71, 85
6, 78254, Note_off_c, 4, 71, 64
6, 78332, Note_on_c, 4, 73, 64
6, 78428, Note_off_c, 4, 73, 64
6, 78429, Note_on_c, 4, 74, 76
6, 78507, Note_off_c, 4, 74, 64
6, 78547, Note_on_c, 4, 76, 60
6, 78620, Note_off_c, 4, 76, 64
6, 78687, Note_on_c, 4, 78, 76
6, 78768, Note_off_c, 4, 78, 64
6, 78938, Note_on_c, 4, 70, 72
6, 79020, Note_off_c, 4, 70, 64
6, 79183, Note_on_c, 4, 71, 70
6, 79267, Note_off_c, 4, 71, 64
6, 79425, Note_on_c, 4, 76, 78
6, 79512, Note_off_c, 4, 76, 64
6, 79672, Note_on_c, 4, 74, 80
6, 79757, Note_off_c, 4, 74, 64
6, 79911, Note_on_c, 4, 79, 72
6, 79985, Note_off_c, 4, 79, 64
6, 80158, Note_on_c, 4, 78, 64
6, 80254, Note_off_c, 4, 78, 64
6, 80389, Note_on_c, 4, 82, 66
6, 80472, Note_off_c, 4, 82, 64
6, 80623, Note_on_c, 4, 83, 80
6, 80811, Note_off_c, 4, 83, 64
6, 80863, Note_on_c, 4, 81, 66
6, 80949, Note_off_c, 4, 81, 64
6, 80955, Note_on_c, 4, 79, 70
6, 81011, Note_off_c, 4, 79, 64
6, 81080, Note_on_c, 4, 78, 68
6, 81185, Note_off_c, 4, 78, 64
6, 81185, Note_on_c, 4, 79, 61
6, 81256, Note_off_c, 4, 79, 64
6, 81316, Note_on_c, 4, 76, 64
6, 81415, Note_off_c, 4, 76, 64
6, 81425, Note_on_c, 4, 78, 57
6, 81487, Note_off_c, 4, 78, 64
6, 81552, Note_on_c, 4, 74, 70
6, 81648, Note_off_c, 4, 74, 64
6, 81673, Note_on_c, 4, 76, 63
6, 81736, Note_off_c, 4, 76, 64
6, 81804, Note_on_c, 4, 73, 64
6, 81900, Note_off_c, 4, 73, 64
6, 81905, Note_on_c, 4, 74, 66
6, 81965, Note_off_c, 4, 74, 64
6, 82047, Note_on_c, 4, 71, 76
6, 82136, Note_off_c, 4, 71, 64
6, 82155, Note_on_c, 4, 73, 47
6, 82211, Note_off_c, 4, 73, 64
6, 82284, Note_on_c, 4, 69, 72
6, 82385, Note_on_c, 4, 71, 66
6, 82397, Note_off_c, 4, 69, 64
6, 82453, Note_off_c, 4, 71, 64
6, 82535, Note_on_c, 4, 67, 82
6, 82637, Note_off_c, 4, 67, 64
6, 82775, Note_on_c, 4, 76, 80
6, 82865, Note_off_c, 4, 76, 64
6, 83023, Note_on_c, 4, 66, 68
6, 83117, Note_off_c, 4, 66, 64
6, 83269, Note_on_c, 4, 69, 85
6, 83340, Note_off_c, 4, 69, 64
6, 83505, Note_on_c, 4, 74, 80
6, 83595, Note_off_c, 4, 74, 64
6, 83741, Note_on_c, 4, 79, 78
6, 83827, Note_off_c, 4, 79, 64
6, 83964, Note_on_c, 4, 79, 74
6, 84017, Note_on_c, 4, 78, 72
6, 84029, Note_off_c, 4, 79, 64
6, 84081, Note_off_c, 4, 78, 64
6, 84081, Note_on_c, 4, 79, 61
6, 84121, Note_on_c, 4, 78, 60
6, 84146, Note_off_c, 4, 79, 64
6, 84204, Note_on_c, 4, 76, 72
6, 84209, Note_off_c, 4, 78, 64
6, 84280, Note_off_c, 4, 76, 64
6, 84325, Note_on_c, 4, 74, 82
6, 84386, Note_off_c, 4, 74, 64
6, 84458, Note_on_c, 4, 74, 68
6, 84945, Note_off_c, 4, 74, 64
6, 84945, End_track
7, 0, Start_track
7, 0, Title_t, "Violin1"
7, 0, Program_c, 0, 40
7, 0, Control_c, 0, 7, 100
7, 16064, Note_on_c, 0, 69, 80
7, 16156, Note_off_c, 0, 69, 64
7, 16313, Note_on_c, 0, 74, 76
7, 16822, Note_off_c, 0, 74, 64
7, 16893, Note_on_c, 0, 76, 68
7, 16974, Note_off_c, 0, 76, 64
7, 17010, Note_on_c, 0, 78, 60
7, 17091, Note_off_c, 0, 78, 64
7, 17116, Note_on_c, 0, 79, 82
7, 17191, Note_off_c, 0, 79, 64
7, 17245, Note_on_c, 0, 81, 98
7, 17360, Note_on_c, 0, 79, 80
7, 17368, Note_off_c, 0, 81, 64
7, 17429, Note_off_c, 0, 79, 64
7, 17467, Note_on_c, 0, 78, 57
7, 17548, Note_off_c, 0, 78, 64
7, 17581, Note_on_c, 0, 76, 66
7, 17667, Note_off_c, 0, 76, 64
7, 17719, Note_on_c, 0, 74, 82
7, 17821, Note_off_c, 0, 74, 64
7, 17976, Note_on_c, 0, 72, 64
7, 18064, Note_off_c, 0, 72, 64
7, 18237, Note_on_c, 0, 71, 80
7, 18335, Note_off_c, 0, 71, 64
7, 18475, Note_on_c, 0, 76, 80
7, 18558, Note_off_c, 0, 76, 64
7, 18710, Note_on_c, 0, 75, 68
7, 18809, Note_off_c, 0, 75, 64
7, 18950, Note_on_c, 0, 81, 85
7, 19032, Note_off_c, 0, 81, 64
7, 19163, Note_on_c, 0, 81, 87
7, 19224, Note_on_c, 0, 79, 87
7, 19240, Note_off_c, 0, 81, 64
7, 19280, Note_on_c, 0, 81, 60
7, 19301, Note_off_c, 0, 79, 64
7, 19339, Note_on_c, 0, 79, 70
7, 19347, Note_off_c, 0, 81, 64
7, 19408, Note_on_c, 0, 78, 80
7, 19433, Note_off_c, 0, 79, 64
7, 19495, Note_off_c, 0, 78, 64
7, 19524, Note_on_c, 0, 79, 87
7, 19576, Note_off_c, 0, 79, 64
7, 19656, Note_on_c, 0, 76, 64
7, 19762, Note_on_c, 0, 71, 60
7, 19769, Note_off_c, 0, 76, 64
7, 19839, Note_off_c, 0, 71, 64
7, 19892, Note_on_c, 0, 76, 78
7, 19963, Note_off_c, 0, 76, 64
7, 20006, Note_on_c, 0, 78, 85
7, 20069, Note_off_c, 0, 78, 64
7, 20127, Note_on_c, 0, 79, 87
7, 20223, Note_off_c, 0, 79, 64
7, 20230, Note_on_c, 0, 81, 62
7, 20307, Note_off_c, 0, 81, 64
7, 20365, Note_on_c, 0, 78, 78
7, 20445, Note_off_c, 0, 78, 64
7, 20480, Note_on_c, 0, 79, 68
7, 20537, Note_off_c, 0, 79, 64
7, 20603, Note_on_c, 0, 76, 89
7, 20687, Note_off_c, 0, 76, 64
7, 20710, Note_on_c, 0, 78, 58
7, 20762, Note_off_c, 0, 78, 64
7, 20831, Note_on_c, 0, 74, 82
7, 20944, Note_on_c, 0, 76, 61
7, 20946, Note_off_c, 0, 74, 64
7, 21016, Note_off_c, 0, 76, 64
7, 21090, Note_on_c, 0, 73, 80
7, 21192, Note_off_c, 0, 73, 64
7, 21332, Note_on_c, 0, 82, 74
7, 21403, Note_off_c, 0, 82, 64
7, 21582, Note_on_c, 0, 83, 87
7, 21651, Note_off_c, 0, 83, 64
7, 21820, Note_on_c, 0, 74, 78
7, 22218, Note_off_c, 0, 74, 64
7, 22296, Note_on_c, 0, 73, 63
7, 22383, Note_off_c, 0, 73, 64
7, 22404, Note_on_c, 0, 74, 76
7, 22484, Note_off_c, 0, 74, 64
7, 22544, Note_on_c, 0, 76, 102
7, 22655, Note_on_c, 0, 74, 82
7, 22672, Note_off_c, 0, 76, 64
7, 22736, Note_off_c, 0, 74, 64
7, 22770, Note_on_c, 0, 73, 56
7, 22851, Note_off_c, 0, 73, 64
7, 22870, Note_on_c, 0, 71, 52
7, 22964, Note_off_c, 0, 71, 64
7, 23020, Note_on_c, 0, 70, 87
7, 23114, Note_off_c, 0, 70, 64
7, 23122, Note_on_c, 0, 71, 68
7, 23235, Note_off_c, 0, 71, 64
7, 23250, Note_on_c, 0, 73, 55
7, 23323, Note_off_c, 0, 73, 64
7, 23358, Note_on_c, 0, 70, 59
7, 23428, Note_off_c, 0, 70, 64
7, 23487, Note_on_c, 0, 66, 87
7, 23592, Note_off_c, 0, 66, 64
7, 23592, Note_on_c, 0, 68, 76
7, 23686, Note_off_c, 0, 68, 64
7, 23717, Note_on_c, 0, 70, 64
7, 23801, Note_off_c, 0, 70, 64
7, 23826, Note_on_c, 0, 66, 64
7, 23884, Note_off_c, 0, 66, 64
7, 23965, Note_on_c, 0, 71, 76
7, 24495, Note_off_c, 0, 71, 64
7, 24564, Note_on_c, 0, 66, 66
7, 24648, Note_off_c, 0, 66, 64
7, 24679, Note_on_c, 0, 64, 85
7, 24761, Note_off_c, 0, 64, 64
7, 24786, Note_on_c, 0, 66, 62
7, 24863, Note_off_c, 0, 66, 64
7, 24932, Note_on_c, 0, 74, 87
7, 25449, Note_off_c, 0, 74, 64
7, 25520, Note_on_c, 0, 71, 70
7, 25622, Note_off_c, 0, 71, 64
7, 25639, Note_on_c, 0, 70, 70
7, 25706, Note_off_c, 0, 70, 64
7, 25754, Note_on_c, 0, 71, 76
7, 25837, Note_off_c, 0, 71, 64
7, 25896, Note_on_c, 0, 77, 93
7, 26430, Note_off_c, 0, 77, 64
7, 26497, Note_on_c, 0, 71, 72
7, 26587, Note_off_c, 0, 71, 64
7, 26603, Note_on_c, 0, 70, 63
7, 26670, Note_off_c, 0, 70, 64
7, 26722, Note_on_c, 0, 71, 64
7, 26806, Note_off_c, 0, 71, 64
7, 26870, Note_on_c, 0, 80, 87
7, 27361, Note_off_c, 0, 80, 64
7, 27446, Note_on_c, 0, 82, 59
7, 27532, Note_off_c, 0, 82, 64
7, 27565, Note_on_c, 0, 83, 87
7, 27643, Note_off_c, 0, 83, 64
7, 27689, Note_on_c, 0, 80, 63
7, 27755, Note_off_c, 0, 80, 64
7, 27810, Note_on_c, 0, 82, 85
7, 27910, Note_off_c, 0, 82, 64
7, 27929, Note_on_c, 0, 78, 58
7, 28004, Note_off_c, 0, 78, 64
7, 28058, Note_on_c, 0, 83, 89
7, 28169, Note_off_c, 0, 83, 64
7, 28173, Note_on_c, 0, 81, 78
7, 28242, Note_off_c, 0, 81, 64
7, 28298, Note_on_c, 0, 79, 61
7, 28361, Note_off_c, 0, 79, 64
7, 28408, Note_on_c, 0, 78, 57
7, 28463, Note_off_c, 0, 78, 64
7, 28536, Note_on_c, 0, 76, 68
7, 28780, Note_off_c, 0, 76, 64
7, 28889, Note_on_c, 0, 74, 82
7, 28972, Note_off_c, 0, 74, 64
7, 28995, Note_on_c, 0, 73, 63
7, 29068, Note_off_c, 0, 73, 64
7, 29106, Note_on_c, 0, 71, 80
7, 29168, Note_off_c, 0, 71, 64
7, 29237, Note_on_c, 0, 73, 74
7, 29333, Note_off_c, 0, 73, 64
7, 29344, Note_on_c, 0, 74, 76
7, 29431, Note_off_c, 0, 74, 64
7, 29467, Note_on_c, 0, 76, 82
7, 29554, Note_off_c, 0, 76, 64
7, 29586, Note_on_c, 0, 70, 61
7, 29669, Note_off_c, 0, 70, 64
7, 29720, Note_on_c, 0, 71, 64
7, 29840, Note_off_c, 0, 71, 64
7, 29978, Note_on_c, 0, 79, 89
7, 30078, Note_off_c, 0, 79, 64
7, 30092, Note_on_c, 0, 78, 89
7, 30145, Note_off_c, 0, 78, 64
7, 30210, Note_on_c, 0, 76, 80
7, 30316, Note_on_c, 0, 74, 61
7, 30322, Note_off_c, 0, 76, 64
7, 30379, Note_off_c, 0, 74, 64
7, 30447, Note_on_c, 0, 73, 98
7, 30552, Note_on_c, 0, 71, 60
7, 30558, Note_off_c, 0, 73, 64
7, 30627, Note_off_c, 0, 71, 64
7, 30698, Note_on_c, 0, 71, 76
7, 31228, Note_off_c, 0, 71, 64
7, 31435, Note_on_c, 0, 69, 82
7, 31518, Note_off_c, 0, 69, 64
7, 31666, Note_on_c, 0, 74, 85
7, 32192, Note_off_c, 0, 74, 64
7, 32259, Note_on_c, 0, 76, 66
7, 32330, Note_off_c, 0, 76, 64
7, 32365, Note_on_c, 0, 78, 72
7, 32440, Note_off_c, 0, 78, 64
7, 32472, Note_on_c, 0, 79, 87
7, 32549, Note_off_c, 0, 79, 64
7, 32599, Note_on_c, 0, 81, 102
7, 32708, Note_on_c, 0, 79, 76
7, 32722, Note_off_c, 0, 81, 64
7, 32795, Note_off_c, 0, 79, 64
7, 32822, Note_on_c, 0, 78, 57
7, 32910, Note_off_c, 0, 78, 64
7, 32939, Note_on_c, 0, 76, 61
7, 33021, Note_off_c, 0, 76, 64
7, 33075, Note_on_c, 0, 74, 70
7, 33167, Note_off_c, 0, 74, 64
7, 33325, Note_on_c, 0, 72, 66
7, 33409, Note_off_c, 0, 72, 64
7, 33574, Note_on_c, 0, 71, 70
7, 33664, Note_off_c, 0, 71, 64
7, 33823, Note_on_c, 0, 76, 72
7, 33901, Note_off_c, 0, 76, 64
7, 34073, Note_on_c, 0, 75, 78
7, 34166, Note_off_c, 0, 75, 64
7, 34299, Note_on_c, 0, 81, 82
7, 34388, Note_off_c, 0, 81, 64
7, 34528, Note_on_c, 0, 81, 95
7, 34588, Note_on_c, 0, 79, 66
7, 34598, Note_off_c, 0, 81, 64
7, 34644, Note_on_c, 0, 81, 72
7, 34665, Note_off_c, 0, 79, 64
7, 34696, Note_on_c, 0, 79, 68
7, 34705, Note_off_c, 0, 81, 64
7, 34765, Note_on_c, 0, 78, 68
7, 34786, Note_off_c, 0, 79, 64
7, 34849, Note_off_c, 0, 78, 64
7, 34882, Note_on_c, 0, 79, 87
7, 34934, Note_off_c, 0, 79, 64
7, 35007, Note_on_c, 0, 76, 78
7, 35108, Note_on_c, 0, 71, 53
7, 35137, Note_off_c, 0, 76, 64
7, 35206, Note_off_c, 0, 71, 64
7, 35245, Note_on_c, 0, 76, 74
7, 35310, Note_off_c, 0, 76, 64
7, 35356, Note_on_c, 0, 78, 78
7, 35431, Note_off_c, 0, 78, 64
7, 35490, Note_on_c, 0, 79, 82
7, 35600, Note_on_c, 0, 81, 64
7, 35606, Note_off_c, 0, 79, 64
7, 35669, Note_off_c, 0, 81, 64
7, 35722, Note_on_c, 0, 78, 66
7, 35805, Note_off_c, 0, 78, 64
7, 35830, Note_on_c, 0, 79, 64
7, 35888, Note_off_c, 0, 79, 64
7, 35965, Note_on_c, 0, 76, 64
7, 36066, Note_off_c, 0, 76, 64
7, 36078, Note_on_c, 0, 78, 47
7, 36132, Note_off_c, 0, 78, 64
7, 36195, Note_on_c, 0, 74, 72
7, 36308, Note_on_c, 0, 76, 70
7, 36320, Note_off_c, 0, 74, 64
7, 36381, Note_off_c, 0, 76, 64
7, 36452, Note_on_c, 0, 73, 72
7, 36568, Note_off_c, 0, 73, 64
7, 36700, Note_on_c, 0, 82, 76
7, 36783, Note_off_c, 0, 82, 64
7, 36942, Note_on_c, 0, 83, 85
7, 37017, Note_off_c, 0, 83, 64
7, 37180, Note_on_c, 0, 74, 85
7, 37528, Note_off_c, 0, 74, 64
7, 37648, Note_on_c, 0, 73, 57
7, 37722, Note_off_c, 0, 73, 64
7, 37758, Note_on_c, 0, 74, 76
7, 37828, Note_off_c, 0, 74, 64
7, 37890, Note_on_c, 0, 76, 95
7, 38004, Note_on_c, 0, 74, 72
7, 38021, Note_off_c, 0, 76, 64
7, 38092, Note_off_c, 0, 74, 64
7, 38119, Note_on_c, 0, 73, 57
7, 38209, Note_off_c, 0, 73, 64
7, 38217, Note_on_c, 0, 71, 62
7, 38309, Note_off_c, 0, 71, 64
7, 38363, Note_on_c, 0, 70, 89
7, 38470, Note_off_c, 0, 70, 64
7, 38472, Note_on_c, 0, 71, 74
7, 38570, Note_off_c, 0, 71, 64
7, 38599, Note_on_c, 0, 73, 57
7, 38664, Note_off_c, 0, 73, 64
7, 38720, Note_on_c, 0, 70, 58
7, 38795, Note_off_c, 0, 70, 64
7, 38852, Note_on_c, 0, 66, 98
7, 38964, Note_on_c, 0, 68, 66
7, 38971, Note_off_c, 0, 66, 64
7, 39058, Note_off_c, 0, 68, 64
7, 39079, Note_on_c, 0, 70, 59
7, 39156, Note_off_c, 0, 70, 64
7, 39190, Note_on_c, 0, 66, 61
7, 39242, Note_off_c, 0, 66, 64
7, 39330, Note_on_c, 0, 71, 76
7, 39853, Note_off_c, 0, 71, 64
7, 39901, Note_on_c, 0, 66, 61
7, 40016, Note_off_c, 0, 66, 64
7, 40017, Note_on_c, 0, 64, 66
7, 40120, Note_off_c, 0, 64, 64
7, 40135, Note_on_c, 0, 66, 66
7, 40210, Note_off_c, 0, 66, 64
7, 40285, Note_on_c, 0, 74, 85
7, 40770, Note_off_c, 0, 74, 64
7, 40866, Note_on_c, 0, 71, 68
7, 40976, Note_on_c, 0, 70, 60
7, 40985, Note_off_c, 0, 71, 64
7, 41049, Note_off_c, 0, 70, 64
7, 41095, Note_on_c, 0, 71, 70
7, 41167, Note_off_c, 0, 71, 64
7, 41235, Note_on_c, 0, 77, 91
7, 41739, Note_off_c, 0, 77, 64
7, 41844, Note_on_c, 0, 71, 68
7, 41945, Note_on_c, 0, 70, 57
7, 41957, Note_off_c, 0, 71, 64
7, 42024, Note_off_c, 0, 70, 64
7, 42073, Note_on_c, 0, 71, 64
7, 42149, Note_off_c, 0, 71, 64
7, 42208, Note_on_c, 0, 80, 78
7, 42721, Note_off_c, 0, 80, 64
7, 42815, Note_on_c, 0, 82, 68
7, 42907, Note_off_c, 0, 82, 64
7, 42930, Note_on_c, 0, 83, 80
7, 43011, Note_off_c, 0, 83, 64
7, 43053, Note_on_c, 0, 80, 64
7, 43109, Note_off_c, 0, 80, 64
7, 43178, Note_on_c, 0, 82, 87
7, 43270, Note_off_c, 0, 82, 64
7, 43288, Note_on_c, 0, 78, 60
7, 43364, Note_off_c, 0, 78, 64
7, 43417, Note_on_c, 0, 83, 91
7, 43518, Note_off_c, 0, 83, 64
7, 43531, Note_on_c, 0, 81, 74
7, 43600, Note_off_c, 0, 81, 64
7, 43654, Note_on_c, 0, 79, 64
7, 43721, Note_off_c, 0, 79, 64
7, 43760, Note_on_c, 0, 78, 64
7, 43835, Note_off_c, 0, 78, 64
7, 43888, Note_on_c, 0, 76, 70
7, 44143, Note_off_c, 0, 76, 64
7, 44259, Note_on_c, 0, 74, 82
7, 44353, Note_off_c, 0, 74, 64
7, 44376, Note_on_c, 0, 73, 57
7, 44455, Note_off_c, 0, 73, 64
7, 44482, Note_on_c, 0, 71, 68
7, 44557, Note_off_c, 0, 71, 64
7, 44614, Note_on_c, 0, 73, 85
7, 44720, Note_on_c, 0, 74, 72
7, 44724, Note_off_c, 0, 73, 64
7, 44810, Note_off_c, 0, 74, 64
7, 44841, Note_on_c, 0, 76, 68
7, 44923, Note_off_c, 0, 76, 64
7, 44950, Note_on_c, 0, 70, 63
7, 45025, Note_off_c, 0, 70, 64
7, 45083, Note_on_c, 0, 71, 66
7, 45190, Note_off_c, 0, 71, 64
7, 45338, Note_on_c, 0, 79, 87
7, 45438, Note_on_c, 0, 78, 80
7, 45448, Note_off_c, 0, 79, 64
7, 45497, Note_off_c, 0, 78, 64
7, 45568, Note_on_c, 0, 76, 78
7, 45672, Note_on_c, 0, 74, 68
7, 45688, Note_off_c, 0, 76, 64
7, 45736, Note_off_c, 0, 74, 64
7, 45803, Note_on_c, 0, 73, 82
7, 45903, Note_on_c, 0, 71, 60
7, 45904, Note_off_c, 0, 73, 64
7, 45981, Note_off_c, 0, 71, 64
7, 46052, Note_on_c, 0, 71, 68
7, 46569, Note_off_c, 0, 71, 64
7, 54470, Note_on_c, 0, 70, 61
7, 54806, Note_off_c, 0, 70, 64
7, 54952, Note_on_c, 0, 79, 80
7, 55266, Note_off_c, 0, 79, 64
7, 55426, Note_on_c, 0, 78, 57
7, 55741, Note_off_c, 0, 78, 64
7, 55883, Note_on_c, 0, 74, 61
7, 55969, Note_off_c, 0, 74, 64
7, 56134, Note_on_c, 0, 71, 68
7, 56215, Note_off_c, 0, 71, 64
7, 56388, Note_on_c, 0, 74, 68
7, 56662, Note_off_c, 0, 74, 64
7, 56870, Note_on_c, 0, 83, 64
7, 57208, Note_off_c, 0, 83, 64
7, 57336, Note_on_c, 0, 81, 63
7, 57661, Note_off_c, 0, 81, 64
7, 57805, Note_on_c, 0, 78, 55
7, 57897, Note_off_c, 0, 78, 64
7, 58058, Note_on_c, 0, 74, 57
7, 58133, Note_off_c, 0, 74, 64
7, 58290, Note_on_c, 0, 78, 55
7, 58607, Note_off_c, 0, 78, 64
7, 58765, Note_on_c, 0, 81, 72
7, 59080, Note_off_c, 0, 81, 64
7, 59247, Note_on_c, 0, 71, 64
7, 59329, Note_off_c, 0, 71, 64
7, 59490, Note_on_c, 0, 76, 70
7, 59577, Note_off_c, 0, 76, 64
7, 59730, Note_on_c, 0, 79, 78
7, 60018, Note_off_c, 0, 79, 64
7, 60212, Note_on_c, 0, 70, 62
7, 60331, Note_off_c, 0, 70, 64
7, 60460, Note_on_c, 0, 71, 70
7, 60546, Note_off_c, 0, 71, 64
7, 60708, Note_on_c, 0, 83, 72
7, 60971, Note_off_c, 0, 83, 64
7, 61157, Note_on_c, 0, 74, 66
7, 61218, Note_on_c, 0, 73, 53
7, 61228, Note_off_c, 0, 74, 64
7, 61268, Note_on_c, 0, 74, 63
7, 61280, Note_off_c, 0, 73, 64
7, 61332, Note_on_c, 0, 73, 57
7, 61349, Note_off_c, 0, 74, 64
7, 61407, Note_off_c, 0, 73, 64
7, 61420, Note_on_c, 0, 71, 52
7, 61919, Note_off_c, 0, 71, 64
7, 62136, Note_on_c, 0, 70, 58
7, 62459, Note_off_c, 0, 70, 64
7, 62616, Note_on_c, 0, 79, 78
7, 62960, Note_off_c, 0, 79, 64
7, 63092, Note_on_c, 0, 78, 58
7, 63424, Note_off_c, 0, 78, 64
7, 63576, Note_on_c, 0, 74, 66
7, 63655, Note_off_c, 0, 74, 64
7, 63814, Note_on_c, 0, 71, 70
7, 63895, Note_off_c, 0, 71, 64
7, 64068, Note_on_c, 0, 74, 70
7, 64348, Note_off_c, 0, 74, 64
7, 64546, Note_on_c, 0, 83, 66
7, 64863, Note_off_c, 0, 83, 64
7, 65003, Note_on_c, 0, 81, 60
7, 65344, Note_off_c, 0, 81, 64
7, 65492, Note_on_c, 0, 78, 57
7, 65584, Note_off_c, 0, 78, 64
7, 65738, Note_on_c, 0, 74, 68
7, 65813, Note_off_c, 0, 74, 64
7, 65963, Note_on_c, 0, 78, 57
7, 66260, Note_off_c, 0, 78, 64
7, 66458, Note_on_c, 0, 81, 74
7, 66775, Note_off_c, 0, 81, 64
7, 66938, Note_on_c, 0, 71, 70
7, 67011, Note_off_c, 0, 71, 64
7, 67180, Note_on_c, 0, 76, 64
7, 67257, Note_off_c, 0, 76, 64
7, 67420, Note_on_c, 0, 79, 78
7, 67714, Note_off_c, 0, 79, 64
7, 67904, Note_on_c, 0, 70, 60
7, 68023, Note_off_c, 0, 70, 64
7, 68142, Note_on_c, 0, 71, 72
7, 68230, Note_off_c, 0, 71, 64
7, 68376, Note_on_c, 0, 83, 66
7, 68661, Note_off_c, 0, 83, 64
7, 68839, Note_on_c, 0, 74, 66
7, 68893, Note_on_c, 0, 73, 61
7, 68906, Note_off_c, 0, 74, 64
7, 68948, Note_on_c, 0, 74, 64
7, 68977, Note_off_c, 0, 73, 64
7, 69019, Note_on_c, 0, 73, 52
7, 69027, Note_off_c, 0, 74, 64
7, 69075, Note_off_c, 0, 73, 64
7, 69104, Note_on_c, 0, 71, 52
7, 69576, Note_off_c, 0, 71, 64
7, 85184, Note_on_c, 0, 69, 80
7, 85276, Note_off_c, 0, 69, 64
7, 85433, Note_on_c, 0, 74, 76
7, 85942, Note_off_c, 0, 74, 64
7, 86013, Note_on_c, 0, 76, 68
7, 86094, Note_off_c, 0, 76, 64
7, 86130, Note_on_c, 0, 78, 60
7, 86211, Note_off_c, 0, 78, 64
7, 86236, Note_on_c, 0, 79, 82
7, 86311, Note_off_c, 0, 79, 64
7, 86365, Note_on_c, 0, 81, 98
7, 86480, Note_on_c, 0, 79, 80
7, 86488, Note_off_c, 0, 81, 64
7, 86549, Note_off_c, 0, 79, 64
7, 86587, Note_on_c, 0, 78, 57
7, 86668, Note_off_c, 0, 78, 64
7, 86701, Note_on_c, 0, 76, 66
7, 86787, Note_off_c, 0, 76, 64
7, 86839, Note_on_c, 0, 74, 82
7, 86941, Note_off_c, 0, 74, 64
7, 87096, Note_on_c, 0, 72, 64
7, 87184, Note_off_c, 0, 72, 64
7, 87357, Note_on_c, 0, 71, 80
7, 87455, Note_off_c, 0, 71, 64
7, 87595, Note_on_c, 0, 76, 80
7, 87678, Note_off_c, 0, 76, 64
7, 87830, Note_on_c, 0, 75, 68
7, 87929, Note_off_c, 0, 75, 64
7, 88070, Note_on_c, 0, 81, 85
7, 88152, Note_off_c, 0, 81, 64
7, 88283, Note_on_c, 0, 81, 87
7, 88344, Note_on_c, 0, 79, 87
7, 88360, Note_off_c, 0, 81, 64
7, 88400, Note_on_c, 0, 81, 60
7, 88421, Note_off_c, 0, 79, 64
7, 88459, Note_on_c, 0, 79, 70
7, 88467, Note_off_c, 0, 81, 64
7, 88528, Note_on_c, 0, 78, 80
7, 88553, Note_off_c, 0, 79, 64
7, 88615, Note_off_c, 0, 78, 64
7, 88644, Note_on_c, 0, 79, 87
7, 88696, Note_off_c, 0, 79, 64
7, 88776, Note_on_c, 0, 76, 64
7, 88882, Note_on_c, 0, 71, 60
7, 88889, Note_off_c, 0, 76, 64
7, 88959, Note_off_c, 0, 71, 64
7, 89012, Note_on_c, 0, 76, 78
7, 89083, Note_off_c, 0, 76, 64
7, 89126, Note_on_c, 0, 78, 85
7, 89189, Note_off_c, 0, 78, 64
7, 89247, Note_on_c, 0, 79, 87
7, 89343, Note_off_c, 0, 79, 64
7, 89350, Note_on_c, 0, 81, 62
7, 89427, Note_off_c, 0, 81, 64
7, 89485, Note_on_c, 0, 78, 78
7, 89565, Note_off_c, 0, 78, 64
7, 89600, Note_on_c, 0, 79, 68
7, 89657, Note_off_c, 0, 79, 64
7, 89723, Note_on_c, 0, 76, 89
7, 89807, Note_off_c, 0, 76, 64
7, 89830, Note_on_c, 0, 78, 58
7, 89882, Note_off_c, 0, 78, 64
7, 89951, Note_on_c, 0, 74, 82
7, 90064, Note_on_c, 0, 76, 61
7, 90066, Note_off_c, 0, 74, 64
7, 90136, Note_off_c, 0, 76, 64
7, 90210, Note_on_c, 0, 73, 80
7, 90312, Note_off_c, 0, 73, 64
7, 90452, Note_on_c, 0, 82, 74
7, 90523, Note_off_c, 0, 82, 64
7, 90702, Note_on_c, 0, 83, 87
7, 90771, Note_off_c, 0, 83, 64
7, 90940, Note_on_c, 0, 74, 78
7, 91338, Note_off_c, 0, 74, 64
7, 91416, Note_on_c, 0, 73, 63
7, 91503, Note_off_c, 0, 73, 64
7, 91524, Note_on_c, 0, 74, 76
7, 91604, Note_off_c, 0, 74, 64
7, 91664, Note_on_c, 0, 76, 102
7, 91775, Note_on_c, 0, 74, 82
7, 91792, Note_off_c, 0, 76, 64
7, 91856, Note_off_c, 0, 74, 64
7, 91890, Note_on_c, 0, 73, 56
7, 91971, Note_off_c, 0, 73, 64
7, 91990, Note_on_c, 0, 71, 52
7, 92084, Note_off_c, 0, 71, 64
7, 92140, Note_on_c, 0, 70, 87
7, 92234, Note_off_c, 0, 70, 64
7, 92242, Note_on_c, 0, 71, 68
7, 92355, Note_off_c, 0, 71, 64
7, 92370, Note_on_c, 0, 73, 55
7, 92443, Note_off_c, 0, 73, 64
7, 92478, Note_on_c, 0, 70, 59
7, 92548, Note_off_c, 0, 70, 64
7, 92607, Note_on_c, 0, 66, 87
7, 92712, Note_off_c, 0, 66, 64
7, 92712, Note_on_c, 0, 68, 76
7, 92806, Note_off_c, 0, 68, 64
7, 92837, Note_on_c, 0, 70, 64
7, 92921, Note_off_c, 0, 70, 64
7, 92946, Note_on_c, 0, 66, 64
7, 93004, Note_off_c, 0, 66, 64
7, 93085, Note_on_c, 0, 71, 76
7, 93615, Note_off_c, 0, 71, 64
7, 93684, Note_on_c, 0, 66, 66
7, 93768, Note_off_c, 0, 66, 64
7, 93799, Note_on_c, 0, 64, 85
7, 93881, Note_off_c, 0, 64, 64
7, 93906, Note_on_c, 0, 66, 62
7, 93983, Note_off_c, 0, 66, 64
7, 94052, Note_on_c, 0, 74, 87
7, 94569, Note_off_c, 0, 74, 64
7, 94640, Note_on_c, 0, 71, 70
7, 94742, Note_off_c, 0, 71, 64
7, 94759, Note_on_c, 0, 70, 70
7, 94826, Note_off_c, 0, 70, 64
7, 94874, Note_on_c, 0, 71, 76
7, 94957, Note_off_c, 0, 71, 64
7, 95016, Note_on_c, 0, 77, 93
7, 95550, Note_off_c, 0, 77, 64
7, 95617, Note_on_c, 0, 71, 72
7, 95707, Note_off_c, 0, 71, 64
7, 95723, Note_on_c, 0, 70, 63
7, 95790, Note_off_c, 0, 70, 64
7, 95842, Note_on_c, 0, 71, 64
7, 95926, Note_off_c, 0, 71, 64
7, 95990, Note_on_c, 0, 80, 87
7, 96481, Note_off_c, 0, 80, 64
7, 96566, Note_on_c, 0, 82, 59
7, 96652, Note_off_c, 0, 82, 64
7, 96685, Note_on_c, 0, 83, 87
7, 96763, Note_off_c, 0, 83, 64
7, 96809, Note_on_c, 0, 80, 63
7, 96875, Note_off_c, 0, 80, 64
7, 96930, Note_on_c, 0, 82, 85
7, 97030, Note_off_c, 0, 82, 64
7, 97049, Note_on_c, 0, 78, 58
7, 97124, Note_off_c, 0, 78, 64
7, 97178, Note_on_c, 0, 83, 89
7, 97289, Note_off_c, 0, 83, 64
7, 97293, Note_on_c, 0, 81, 78
7, 97362, Note_off_c, 0, 81, 64
7, 97418, Note_on_c, 0, 79, 61
7, 97481, Note_off_c, 0, 79, 64
7, 97528, Note_on_c, 0, 78, 57
7, 97583, Note_off_c, 0, 78, 64
7, 97656, Note_on_c, 0, 76, 68
7, 97900, Note_off_c, 0, 76, 64
7, 98009, Note_on_c, 0, 74, 82
7, 98092, Note_off_c, 0, 74, 64
7, 98115, Note_on_c, 0, 73, 63
7, 98188, Note_off_c, 0, 73, 64
7, 98226, Note_on_c, 0, 71, 80
7, 98288, Note_off_c, 0, 71, 64
7, 98357, Note_on_c, 0, 73, 74
7, 98453, Note_off_c, 0, 73, 64
7, 98464, Note_on_c, 0, 74, 76
7, 98551, Note_off_c, 0, 74, 64
7, 98587, Note_on_c, 0, 76, 82
7, 98674, Note_off_c, 0, 76, 64
7, 98706, Note_on_c, 0, 70, 61
7, 98789, Note_off_c, 0, 70, 64
7, 98840, Note_on_c, 0, 71, 64
7, 98960, Note_off_c, 0, 71, 64
7, 99098, Note_on_c, 0, 79, 89
7, 99198, Note_off_c, 0, 79, 64
7, 99212, Note_on_c, 0, 78, 89
7, 99265, Note_off_c, 0, 78, 64
7, 99330, Note_on_c, 0, 76, 80
7, 99436, Note_on_c, 0, 74, 61
7, 99442, Note_off_c, 0, 76, 64
7, 99499, Note_off_c, 0, 74, 64
7, 99567, Note_on_c, 0, 73, 98
7, 99672, Note_on_c, 0, 71, 60
7, 99678, Note_off_c, 0, 73, 64
7, 99747, Note_off_c, 0, 71, 64
7, 99818, Note_on_c, 0, 71, 76
7, 100348, Note_off_c, 0, 71, 64
7, 100555, Note_on_c, 0, 69, 82
7, 100638, Note_off_c, 0, 69, 64
7, 100786, Note_on_c, 0, 74, 85
7, 101312, Note_off_c, 0, 74, 64
7, 101379, Note_on_c, 0, 76, 66
7, 101450, Note_off_c, 0, 76, 64
7, 101485, Note_on_c, 0, 78, 72
7, 101560, Note_off_c, 0, 78, 64
7, 101592, Note_on_c, 0, 79, 87
7, 101669, Note_off_c, 0, 79, 64
7, 101719, Note_on_c, 0, 81, 102
7, 101828, Note_on_c, 0, 79, 76
7, 101842, Note_off_c, 0, 81, 64
7, 101915, Note_off_c, 0, 79, 64
7, 101942, Note_on_c, 0, 78, 57
7, 102030, Note_off_c, 0, 78, 64
7, 102059, Note_on_c, 0, 76, 61
7, 102141, Note_off_c, 0, 76, 64
7, 102195, Note_on_c, 0, 74, 70
7, 102287, Note_off_c, 0, 74, 64
7, 102445, Note_on_c, 0, 72, 66
7, 102529, Note_off_c, 0, 72, 64
7, 102694, Note_on_c, 0, 71, 70
7, 102784, Note_off_c, 0, 71, 64
7, 102943, Note_on_c, 0, 76, 72
7, 103021, Note_off_c, 0, 76, 64
7, 103193, Note_on_c, 0, 75, 78
7, 103286, Note_off_c, 0, 75, 64
7, 103419, Note_on_c, 0, 81, 82
7, 103508, Note_off_c, 0, 81, 64
7, 103648, Note_on_c, 0, 81, 95
7, 103708, Note_on_c, 0, 79, 66
7, 103718, Note_off_c, 0, 81, 64
7, 103764, Note_on_c, 0, 81, 72
7, 103785, Note_off_c, 0, 79, 64
7, 103816, Note_on_c, 0, 79, 68
7, 103825, Note_off_c, 0, 81, 64
7, 103885, Note_on_c, 0, 78, 68
7, 103906, Note_off_c, 0, 79, 64
7, 103969, Note_off_c, 0, 78, 64
7, 104002, Note_on_c, 0, 79, 87
7, 104054, Note_off_c, 0, 79, 64
7, 104127, Note_on_c, 0, 76, 78
7, 104228, Note_on_c, 0, 71, 53
7, 104257, Note_off_c, 0, 76, 64
7, 104326, Note_off_c, 0, 71, 64
7, 104365, Note_on_c, 0, 76, 74
7, 104430, Note_off_c, 0, 76, 64
7, 104476, Note_on_c, 0, 78, 78
7, 104551, Note_off_c, 0, 78, 64
7, 104610, Note_on_c, 0, 79, 82
7, 104720, Note_on_c, 0, 81, 64
7, 104726, Note_off_c, 0, 79, 64
7, 104789, Note_off_c, 0, 81, 64
7, 104842, Note_on_c, 0, 78, 66
7, 104925, Note_off_c, 0, 78, 64
7, 104950, Note_on_c, 0, 79, 64
7, 105008, Note_off_c, 0, 79, 64
7, 105085, Note_on_c, 0, 76, 64
7, 105186, Note_off_c, 0, 76, 64
7, 105198, Note_on_c, 0, 78, 47
7, 105252, Note_off_c, 0, 78, 64
7, 105315, Note_on_c, 0, 74, 72
7, 105428, Note_on_c, 0, 76, 70
7, 105440, Note_off_c, 0, 74, 64
7, 105501, Note_off_c, 0, 76, 64
7, 105572, Note_on_c, 0, 73, 72
7, 105688, Note_off_c, 0, 73, 64
7, 105820, Note_on_c, 0, 82, 76
7, 105903, Note_off_c, 0, 82, 64
7, 106062, Note_on_c, 0, 83, 85
7, 106137, Note_off_c, 0, 83, 64
7, 106300, Note_on_c, 0, 74, 85
7, 106648, Note_off_c, 0, 74, 64
7, 106768, Note_on_c, 0, 73, 57
7, 106842, Note_off_c, 0, 73, 64
7, 106878, Note_on_c, 0, 74, 76
7, 106948, Note_off_c, 0, 74, 64
7, 107010, Note_on_c, 0, 76, 95
7, 107124, Note_on_c, 0, 74, 72
7, 107141, Note_off_c, 0, 76, 64
7, 107212, Note_off_c, 0, 74, 64
7, 107239, Note_on_c, 0, 73, 57
7, 107329, Note_off_c, 0, 73, 64
7, 107337, Note_on_c, 0, 71, 62
7, 107429, Note_off_c, 0, 71, 64
7, 107483, Note_on_c, 0, 70, 89
7, 107590, Note_off_c, 0, 70, 64
7, 107592, Note_on_c, 0, 71, 74
7, 107690, Note_off_c, 0, 71, 64
7, 107719, Note_on_c, 0, 73, 57
7, 107784, Note_off_c, 0, 73, 64
7, 107840, Note_on_c, 0, 70, 58
7, 107915, Note_off_c, 0, 70, 64
7, 107972, Note_on_c, 0, 66, 98
7, 108084, Note_on_c, 0, 68, 66
7, 108091, Note_off_c, 0, 66, 64
7, 108178, Note_off_c, 0, 68, 64
7, 108199, Note_on_c, 0, 70, 59
7, 108276, Note_off_c, 0, 70, 64
7, 108310, Note_on_c, 0, 66, 61
7, 108362, Note_off_c, 0, 66, 64
7, 108450, Note_on_c, 0, 71, 76
7, 108973, Note_off_c, 0, 71, 64
7, 109021, Note_on_c, 0, 66, 61
7, 109136, Note_off_c, 0, 66, 64
7, 109137, Note_on_c, 0, 64, 66
7, 109240, Note_off_c, 0, 64, 64
7, 109255, Note_on_c, 0, 66, 66
7, 109330, Note_off_c, 0, 66, 64
7, 109405, Note_on_c, 0, 74, 85
7, 109890, Note_off_c, 0, 74, 64
7, 109986, Note_on_c, 0, 71, 68
7, 110096, Note_on_c, 0, 70, 60
7, 110105, Note_off_c, 0, 71, 64
7, 110169, Note_off_c, 0, 70, 64
7, 110215, Note_on_c, 0, 71, 70
7, 110287, Note_off_c, 0, 71, 64
7, 110355, Note_on_c, 0, 77, 91
7, 110859, Note_off_c, 0, 77, 64
7, 110964, Note_on_c, 0, 71, 68
7, 111065, Note_on_c, 0, 70, 57
7, 111077, Note_off_c, 0, 71, 64
7, 111144, Note_off_c, 0, 70, 64
7, 111193, Note_on_c, 0, 71, 64
7, 111269, Note_off_c, 0, 71, 64
7, 111328, Note_on_c, 0, 80, 78
7, 111841, Note_off_c, 0, 80, 64
7, 111935, Note_on_c, 0, 82, 68
7, 112027, Note_off_c, 0, 82, 64
7, 112050, Note_on_c, 0, 83, 80
7, 112131, Note_off_c, 0, 83, 64
7, 112173, Note_on_c, 0, 80, 64
7, 112229, Note_off_c, 0, 80, 64
7, 112298, Note_on_c, 0, 82, 87
7, 112390, Note_off_c, 0, 82, 64
7, 112408, Note_on_c, 0, 78, 60
7, 112484, Note_off_c, 0, 78, 64
7, 112537, Note_on_c, 0, 83, 91
7, 112638, Note_off_c, 0, 83, 64
7, 112651, Note_on_c, 0, 81, 74
7, 112720, Note_off_c, 0, 81, 64
7, 112774, Note_on_c, 0, 79, 64
7, 112841, Note_off_c, 0, 79, 64
7, 112880, Note_on_c, 0, 78, 64
7, 112955, Note_off_c, 0, 78, 64
7, 113008, Note_on_c, 0, 76, 70
7, 113263, Note_off_c, 0, 76, 64
7, 113379, Note_on_c, 0, 74, 82
7, 113473, Note_off_c, 0, 74, 64
7, 113496, Note_on_c, 0, 73, 57
7, 113575, Note_off_c, 0, 73, 64
7, 113602, Note_on_c, 0, 71, 68
7, 113677, Note_off_c, 0, 71, 64
7, 113734, Note_on_c, 0, 73, 85
7, 113840, Note_on_c, 0, 74, 72
7, 113844, Note_off_c, 0, 73, 64
7, 113930, Note_off_c, 0, 74, 64
7, 113961, Note_on_c, 0, 76, 68
7, 114043, Note_off_c, 0, 76, 64
7, 114070, Note_on_c, 0, 70, 63
7, 114145, Note_off_c, 0, 70, 64
7, 114203, Note_on_c, 0, 71, 66
7, 114310, Note_off_c, 0, 71, 64
7, 114458, Note_on_c, 0, 79, 87
7, 114558, Note_on_c, 0, 78, 80
7, 114568, Note_off_c, 0, 79, 64
7, 114617, Note_off_c, 0, 78, 64
7, 114688, Note_on_c, 0, 76, 78
7, 114792, Note_on_c, 0, 74, 68
7, 114808, Note_off_c, 0, 76, 64
7, 114856, Note_off_c, 0, 74, 64
7, 114923, Note_on_c, 0, 73, 82
7, 115023, Note_on_c, 0, 71, 60
7, 115024, Note_off_c, 0, 73, 64
7, 115101, Note_off_c, 0, 71, 64
7, 115172, Note_on_c, 0, 71, 68
7, 115689, Note_off_c, 0, 71, 64
7, 115689, End_track
8, 0, Start_track
8, 0, Title_t, "Violin2"
8, 0, Program_c, 1, 40
8, 0, Control_c, 1, 7, 100
8, 16540, Note_on_c, 1, 69, 82
8, 16624, Note_off_c, 1, 69, 64
8, 16790, Note_on_c, 1, 74, 82
8, 17255, Note_off_c, 1, 74, 64
8, 17341, Note_on_c, 1, 71, 82
8, 17416, Note_off_c, 1, 71, 64
8, 17454, Note_on_c, 1, 69, 64
8, 17538, Note_off_c, 1, 69, 64
8, 17569, Note_on_c, 1, 67, 64
8, 17661, Note_off_c, 1, 67, 64
8, 17700, Note_on_c, 1, 66, 70
8, 17811, Note_on_c, 1, 67, 80
8, 17823, Note_off_c, 1, 66, 64
8, 17894, Note_off_c, 1, 67, 64
8, 17949, Note_on_c, 1, 69, 85
8, 18344, Note_off_c, 1, 69, 64
8, 18462, Note_on_c, 1, 67, 80
8, 18571, Note_off_c, 1, 67, 64
8, 18715, Note_on_c, 1, 66, 62
8, 18829, Note_off_c, 1, 66, 64
8, 18946, Note_on_c, 1, 78, 74
8, 19046, Note_off_c, 1, 78, 64
8, 19183, Note_on_c, 1, 76, 78
8, 19280, Note_off_c, 1, 76, 64
8, 19408, Note_on_c, 1, 75, 76
8, 19489, Note_off_c, 1, 75, 64
8, 19652, Note_on_c, 1, 76, 85
8, 20196, Note_off_c, 1, 76, 64
8, 20376, Note_on_c, 1, 70, 72
8, 20463, Note_off_c, 1, 70, 64
8, 20614, Note_on_c, 1, 71, 80
8, 21156, Note_off_c, 1, 71, 64
8, 21200, Note_on_c, 1, 73, 63
8, 21290, Note_off_c, 1, 73, 64
8, 21325, Note_on_c, 1, 74, 76
8, 21423, Note_off_c, 1, 74, 64
8, 21442, Note_on_c, 1, 76, 80
8, 21519, Note_off_c, 1, 76, 64
8, 21568, Note_on_c, 1, 74, 91
8, 21680, Note_on_c, 1, 73, 61
8, 21691, Note_off_c, 1, 74, 64
8, 21774, Note_off_c, 1, 73, 64
8, 21795, Note_on_c, 1, 71, 66
8, 21901, Note_off_c, 1, 71, 64
8, 21912, Note_on_c, 1, 69, 80
8, 21972, Note_off_c, 1, 69, 64
8, 22043, Note_on_c, 1, 67, 85
8, 22154, Note_on_c, 1, 66, 70
8, 22164, Note_off_c, 1, 67, 64
8, 22227, Note_off_c, 1, 66, 64
8, 22275, Note_on_c, 1, 64, 66
8, 22377, Note_off_c, 1, 64, 64
8, 22394, Note_on_c, 1, 62, 64
8, 22477, Note_off_c, 1, 62, 64
8, 22527, Note_on_c, 1, 61, 82
8, 22626, Note_off_c, 1, 61, 64
8, 22637, Note_on_c, 1, 59, 72
8, 22732, Note_off_c, 1, 59, 64
8, 22767, Note_on_c, 1, 67, 89
8, 22851, Note_off_c, 1, 67, 64
8, 23020, Note_on_c, 1, 66, 80
8, 23552, Note_off_c, 1, 66, 64
8, 23736, Note_on_c, 1, 64, 78
8, 23821, Note_off_c, 1, 64, 64
8, 23974, Note_on_c, 1, 62, 82
8, 24068, Note_off_c, 1, 62, 64
8, 24208, Note_on_c, 1, 66, 74
8, 24297, Note_off_c, 1, 66, 64
8, 24458, Note_on_c, 1, 71, 85
8, 24955, Note_off_c, 1, 71, 64
8, 25019, Note_on_c, 1, 66, 63
8, 25113, Note_off_c, 1, 66, 64
8, 25138, Note_on_c, 1, 64, 76
8, 25228, Note_off_c, 1, 64, 64
8, 25255, Note_on_c, 1, 66, 66
8, 25349, Note_off_c, 1, 66, 64
8, 25397, Note_on_c, 1, 71, 87
8, 25933, Note_off_c, 1, 71, 64
8, 26000, Note_on_c, 1, 69, 72
8, 26115, Note_on_c, 1, 68, 66
8, 26121, Note_off_c, 1, 69, 64
8, 26201, Note_off_c, 1, 68, 64
8, 26226, Note_on_c, 1, 69, 68
8, 26319, Note_off_c, 1, 69, 64
8, 26359, Note_on_c, 1, 71, 80
8, 26914, Note_off_c, 1, 71, 64
8, 26946, Note_on_c, 1, 69, 68
8, 27065, Note_off_c, 1, 69, 64
8, 27085, Note_on_c, 1, 68, 76
8, 27190, Note_off_c, 1, 68, 64
8, 27211, Note_on_c, 1, 69, 72
8, 27332, Note_off_c, 1, 69, 64
8, 27350, Note_on_c, 1, 71, 85
8, 27457, Note_off_c, 1, 71, 64
8, 27574, Note_on_c, 1, 74, 87
8, 27680, Note_off_c, 1, 74, 64
8, 27810, Note_on_c, 1, 73, 64
8, 27895, Note_off_c, 1, 73, 64
8, 28039, Note_on_c, 1, 71, 80
8, 28358, Note_off_c, 1, 71, 64
8, 28421, Note_on_c, 1, 74, 80
8, 28525, Note_off_c, 1, 74, 64
8, 28532, Note_on_c, 1, 73, 72
8, 28617, Note_on_c, 1, 71, 80
8, 28618, Note_off_c, 1, 73, 64
8, 28719, Note_off_c, 1, 71, 64
8, 28768, Note_on_c, 1, 70, 64
8, 28864, Note_off_c, 1, 70, 64
8, 28997, Note_on_c, 1, 79, 87
8, 29352, Note_off_c, 1, 79, 64
8, 29473, Note_on_c, 1, 78, 70
8, 29807, Note_off_c, 1, 78, 64
8, 29967, Note_on_c, 1, 71, 82
8, 30063, Note_off_c, 1, 71, 64
8, 30205, Note_on_c, 1, 71, 82
8, 30320, Note_off_c, 1, 71, 64
8, 30443, Note_on_c, 1, 70, 70
8, 30562, Note_off_c, 1, 70, 64
8, 30687, Note_on_c, 1, 66, 85
8, 31216, Note_off_c, 1, 66, 64
8, 31891, Note_on_c, 1, 69, 82
8, 31975, Note_off_c, 1, 69, 64
8, 32152, Note_on_c, 1, 74, 89
8, 32689, Note_off_c, 1, 74, 64
8, 32739, Note_on_c, 1, 71, 82
8, 32833, Note_off_c, 1, 71, 64
8, 32850, Note_on_c, 1, 69, 64
8, 32935, Note_off_c, 1, 69, 64
8, 32956, Note_on_c, 1, 67, 74
8, 33060, Note_off_c, 1, 67, 64
8, 33073, Note_on_c, 1, 66, 62
8, 33175, Note_on_c, 1, 67, 82
8, 33179, Note_off_c, 1, 66, 64
8, 33254, Note_off_c, 1, 67, 64
8, 33315, Note_on_c, 1, 69, 82
8, 33736, Note_off_c, 1, 69, 64
8, 33807, Note_on_c, 1, 67, 72
8, 33912, Note_off_c, 1, 67, 64
8, 34060, Note_on_c, 1, 66, 72
8, 34148, Note_off_c, 1, 66, 64
8, 34302, Note_on_c, 1, 78, 78
8, 34381, Note_off_c, 1, 78, 64
8, 34523, Note_on_c, 1, 78, 85
8, 34567, Note_on_c, 1, 76, 78
8, 34578, Note_off_c, 1, 78, 64
8, 34624, Note_on_c, 1, 78, 66
8, 34642, Note_off_c, 1, 76, 64
8, 34672, Note_on_c, 1, 76, 78
8, 34693, Note_off_c, 1, 78, 64
8, 34751, Note_on_c, 1, 75, 76
8, 34763, Note_off_c, 1, 76, 64
8, 34838, Note_off_c, 1, 75, 64
8, 34995, Note_on_c, 1, 76, 82
8, 35565, Note_off_c, 1, 76, 64
8, 35715, Note_on_c, 1, 70, 70
8, 35803, Note_off_c, 1, 70, 64
8, 35961, Note_on_c, 1, 71, 76
8, 36527, Note_off_c, 1, 71, 64
8, 36562, Note_on_c, 1, 73, 68
8, 36643, Note_off_c, 1, 73, 64
8, 36673, Note_on_c, 1, 74, 76
8, 36769, Note_off_c, 1, 74, 64
8, 36790, Note_on_c, 1, 76, 80
8, 36873, Note_off_c, 1, 76, 64
8, 36923, Note_on_c, 1, 74, 89
8, 37038, Note_on_c, 1, 73, 62
8, 37044, Note_off_c, 1, 74, 64
8, 37123, Note_off_c, 1, 73, 64
8, 37144, Note_on_c, 1, 71, 70
8, 37259, Note_off_c, 1, 71, 64
8, 37263, Note_on_c, 1, 69, 76
8, 37336, Note_off_c, 1, 69, 64
8, 37400, Note_on_c, 1, 67, 68
8, 37508, Note_on_c, 1, 66, 66
8, 37520, Note_off_c, 1, 67, 64
8, 37595, Note_off_c, 1, 66, 64
8, 37631, Note_on_c, 1, 64, 64
8, 37723, Note_off_c, 1, 64, 64
8, 37750, Note_on_c, 1, 62, 66
8, 37828, Note_off_c, 1, 62, 64
8, 37887, Note_on_c, 1, 61, 98
8, 37975, Note_off_c, 1, 61, 64
8, 37996, Note_on_c, 1, 59, 70
8, 38088, Note_off_c, 1, 59, 64
8, 38125, Note_on_c, 1, 67, 87
8, 38215, Note_off_c, 1, 67, 64
8, 38372, Note_on_c, 1, 66, 76
8, 38925, Note_off_c, 1, 66, 64
8, 39079, Note_on_c, 1, 64, 64
8, 39171, Note_off_c, 1, 64, 64
8, 39321, Note_on_c, 1, 62, 72
8, 39411, Note_off_c, 1, 62, 64
8, 39570, Note_on_c, 1, 66, 85
8, 39672, Note_off_c, 1, 66, 64
8, 39814, Note_on_c, 1, 71, 80
8, 40336, Note_off_c, 1, 71, 64
8, 40396, Note_on_c, 1, 66, 64
8, 40502, Note_off_c, 1, 66, 64
8, 40502, Note_on_c, 1, 64, 60
8, 40582, Note_off_c, 1, 64, 64
8, 40619, Note_on_c, 1, 66, 87
8, 40703, Note_off_c, 1, 66, 64
8, 40755, Note_on_c, 1, 71, 85
8, 41295, Note_off_c, 1, 71, 64
8, 41343, Note_on_c, 1, 69, 68
8, 41450, Note_off_c, 1, 69, 64
8, 41458, Note_on_c, 1, 68, 80
8, 41540, Note_off_c, 1, 68, 64
8, 41577, Note_on_c, 1, 69, 66
8, 41664, Note_off_c, 1, 69, 64
8, 41713, Note_on_c, 1, 71, 80
8, 42230, Note_off_c, 1, 71, 64
8, 42301, Note_on_c, 1, 69, 74
8, 42391, Note_off_c, 1, 69, 64
8, 42410, Note_on_c, 1, 68, 68
8, 42498, Note_off_c, 1, 68, 64
8, 42535, Note_on_c, 1, 69, 85
8, 42629, Note_off_c, 1, 69, 64
8, 42675, Note_on_c, 1, 71, 82
8, 42781, Note_off_c, 1, 71, 64
8, 42920, Note_on_c, 1, 74, 85
8, 43024, Note_off_c, 1, 74, 64
8, 43172, Note_on_c, 1, 73, 74
8, 43251, Note_off_c, 1, 73, 64
8, 43416, Note_on_c, 1, 71, 82
8, 43714, Note_off_c, 1, 71, 64
8, 43780, Note_on_c, 1, 74, 80
8, 43876, Note_off_c, 1, 74, 64
8, 43888, Note_on_c, 1, 73, 58
8, 43973, Note_off_c, 1, 73, 64
8, 43983, Note_on_c, 1, 71, 63
8, 44086, Note_off_c, 1, 71, 64
8, 44138, Note_on_c, 1, 70, 66
8, 44228, Note_off_c, 1, 70, 64
8, 44368, Note_on_c, 1, 79, 87
8, 44724, Note_off_c, 1, 79, 64
8, 44847, Note_on_c, 1, 78, 66
8, 45156, Note_off_c, 1, 78, 64
8, 45332, Note_on_c, 1, 71, 80
8, 45417, Note_off_c, 1, 71, 64
8, 45576, Note_on_c, 1, 71, 80
8, 45662, Note_off_c, 1, 71, 64
8, 45799, Note_on_c, 1, 70, 78
8, 45872, Note_off_c, 1, 70, 64
8, 46052, Note_on_c, 1, 66, 70
8, 46582, Note_off_c, 1, 66, 64
8, 54473, Note_on_c, 1, 78, 66
8, 54566, Note_on_c, 1, 76, 52
8, 54574, Note_off_c, 1, 78, 64
8, 54690, Note_on_c, 1, 78, 52
8, 54708, Note_off_c, 1, 76, 64
8, 54846, Note_off_c, 1, 78, 64
8, 55898, Note_on_c, 1, 78, 64
8, 55995, Note_on_c, 1, 76, 74
8, 56015, Note_off_c, 1, 78, 64
8, 56113, Note_off_c, 1, 76, 64
8, 56128, Note_on_c, 1, 74, 63
8, 56196, Note_off_c, 1, 74, 64
8, 56368, Note_on_c, 1, 71, 70
8, 56463, Note_off_c, 1, 71, 64
8, 56624, Note_on_c, 1, 83, 70
8, 56864, Note_off_c, 1, 83, 64
8, 57826, Note_on_c, 1, 74, 66
8, 57920, Note_on_c, 1, 73, 56
8, 57935, Note_off_c, 1, 74, 64
8, 58037, Note_off_c, 1, 73, 64
8, 58047, Note_on_c, 1, 74, 63
8, 58131, Note_off_c, 1, 74, 64
8, 58298, Note_on_c, 1, 69, 59
8, 58667, Note_off_c, 1, 69, 64
8, 59737, Note_on_c, 1, 76, 68
8, 59828, Note_on_c, 1, 74, 68
8, 59849, Note_off_c, 1, 76, 64
8, 59980, Note_on_c, 1, 73, 57
8, 59984, Note_off_c, 1, 74, 64
8, 60061, Note_off_c, 1, 73, 64
8, 60210, Note_on_c, 1, 78, 70
8, 60283, Note_off_c, 1, 78, 64
8, 60458, Note_on_c, 1, 74, 68
8, 60731, Note_off_c, 1, 74, 64
8, 61652, Note_on_c, 1, 62, 70
8, 61746, Note_on_c, 1, 64, 68
8, 61768, Note_off_c, 1, 62, 64
8, 61875, Note_on_c, 1, 66, 60
8, 61881, Note_off_c, 1, 64, 64
8, 61992, Note_off_c, 1, 66, 64
8, 62138, Note_on_c, 1, 78, 80
8, 62234, Note_on_c, 1, 76, 66
8, 62259, Note_off_c, 1, 78, 64
8, 62372, Note_on_c, 1, 78, 54
8, 62388, Note_off_c, 1, 76, 64
8, 62524, Note_off_c, 1, 78, 64
8, 63576, Note_on_c, 1, 78, 68
8, 63679, Note_on_c, 1, 76, 60
8, 63689, Note_off_c, 1, 78, 64
8, 63795, Note_off_c, 1, 76, 64
8, 63808, Note_on_c, 1, 74, 68
8, 63904, Note_off_c, 1, 74, 64
8, 64062, Note_on_c, 1, 71, 74
8, 64146, Note_off_c, 1, 71, 64
8, 64317, Note_on_c, 1, 83, 66
8, 64563, Note_off_c, 1, 83, 64
8, 65512, Note_on_c, 1, 74, 82
8, 65606, Note_on_c, 1, 73, 61
8, 65631, Note_off_c, 1, 74, 64
8, 65734, Note_off_c, 1, 73, 64
8, 65740, Note_on_c, 1, 74, 78
8, 65819, Note_off_c, 1, 74, 64
8, 65978, Note_on_c, 1, 69, 59
8, 66381, Note_off_c, 1, 69, 64
8, 67424, Note_on_c, 1, 76, 80
8, 67510, Note_on_c, 1, 74, 58
8, 67541, Note_off_c, 1, 76, 64
8, 67652, Note_on_c, 1, 73, 58
8, 67658, Note_off_c, 1, 74, 64
8, 67766, Note_off_c, 1, 73, 64
8, 67892, Note_on_c, 1, 78, 70
8, 67965, Note_off_c, 1, 78, 64
8, 68144, Note_on_c, 1, 74, 68
8, 68428, Note_off_c, 1, 74, 64
8, 69332, Note_on_c, 1, 62, 68
8, 69428, Note_on_c, 1, 64, 68
8, 69453, Note_off_c, 1, 62, 64
8, 69547, Note_on_c, 1, 66, 61
8, 69557, Note_off_c, 1, 64, 64
8, 69699, Note_off_c, 1, 66, 64
8, 85660, Note_on_c, 1, 69, 82
8, 85744, Note_off_c, 1, 69, 64
8, 85910, Note_on_c, 1, 74, 82
8, 86375, Note_off_c, 1, 74, 64
8, 86461, Note_on_c, 1, 71, 82
8, 86536, Note_off_c, 1, 71, 64
8, 86574, Note_on_c, 1, 69, 64
8, 86658, Note_off_c, 1, 69, 64
8, 86689, Note_on_c, 1, 67, 64
8, 86781, Note_off_c, 1, 67, 64
8, 86820, Note_on_c, 1, 66, 70
8, 86931, Note_on_c, 1, 67, 80
8, 86943, Note_off_c, 1, 66, 64
8, 87014, Note_off_c, 1, 67, 64
8, 87069, Note_on_c, 1, 69, 85
8, 87464, Note_off_c, 1, 69, 64
8, 87582, Note_on_c, 1, 67, 80
8, 87691, Note_off_c, 1, 67, 64
8, 87835, Note_on_c, 1, 66, 62
8, 87949, Note_off_c, 1, 66, 64
8, 88066, Note_on_c, 1, 78, 74
8, 88166, Note_off_c, 1, 78, 64
8, 88303, Note_on_c, 1, 76, 78
8, 88400, Note_off_c, 1, 76, 64
8, 88528, Note_on_c, 1, 75, 76
8, 88609, Note_off_c, 1, 75, 64
8, 88772, Note_on_c, 1, 76, 85
8, 89316, Note_off_c, 1, 76, 64
8, 89496, Note_on_c, 1, 70, 72
8, 89583, Note_off_c, 1, 70, 64
8, 89734, Note_on_c, 1, 71, 80
8, 90276, Note_off_c, 1, 71, 64
8, 90320, Note_on_c, 1, 73, 63
8, 90410, Note_off_c, 1, 73, 64
8, 90445, Note_on_c, 1, 74, 76
8, 90543, Note_off_c, 1, 74, 64
8, 90562, Note_on_c, 1, 76, 80
8, 90639, Note_off_c, 1, 76, 64
8, 90688, Note_on_c, 1, 74, 91
8, 90800, Note_on_c, 1, 73, 61
8, 90811, Note_off_c, 1, 74, 64
8, 90894, Note_off_c, 1, 73, 64
8, 90915, Note_on_c, 1, 71, 66
8, 91021, Note_off_c, 1, 71, 64
8, 91032, Note_on_c, 1, 69, 80
8, 91092, Note_off_c, 1, 69, 64
8, 91163, Note_on_c, 1, 67, 85
8, 91274, Note_on_c, 1, 66, 70
8, 91284, Note_off_c, 1, 67, 64
8, 91347, Note_off_c, 1, 66, 64
8, 91395, Note_on_c, 1, 64, 66
8, 91497, Note_off_c, 1, 64, 64
8, 91514, Note_on_c, 1, 62, 64
8, 91597, Note_off_c, 1, 62, 64
8, 91647, Note_on_c, 1, 61, 82
8, 91746, Note_off_c, 1, 61, 64
8, 91757, Note_on_c, 1, 59, 72
8, 91852, Note_off_c, 1, 59, 64
8, 91887, Note_on_c, 1, 67, 89
8, 91971, Note_off_c, 1, 67, 64
8, 92140, Note_on_c, 1, 66, 80
8, 92672, Note_off_c, 1, 66, 64
8, 92856, Note_on_c, 1, 64, 78
8, 92941, Note_off_c, 1, 64, 64
8, 93094, Note_on_c, 1, 62, 82
8, 93188, Note_off_c, 1, 62, 64
8, 93328, Note_on_c, 1, 66, 74
8, 93417, Note_off_c, 1, 66, 64
8, 93578, Note_on_c, 1, 71, 85
8, 94075, Note_off_c, 1, 71, 64
8, 94139, Note_on_c, 1, 66, 63
8, 94233, Note_off_c, 1, 66, 64
8, 94258, Note_on_c, 1, 64, 76
8, 94348, Note_off_c, 1, 64, 64
8, 94375, Note_on_c, 1, 66, 66
8, 94469, Note_off_c, 1, 66, 64
8, 94517, Note_on_c, 1, 71, 87
8, 95053, Note_off_c, 1, 71, 64
8, 95120, Note_on_c, 1, 69, 72
8, 95235, Note_on_c, 1, 68, 66
8, 95241, Note_off_c, 1, 69, 64
8, 95321, Note_off_c, 1, 68, 64
8, 95346, Note_on_c, 1, 69, 68
8, 95439, Note_off_c, 1, 69, 64
8, 95479, Note_on_c, 1, 71, 80
8, 96034, Note_off_c, 1, 71, 64
8, 96066, Note_on_c, 1, 69, 68
8, 96185, Note_off_c, 1, 69, 64
8, 96205, Note_on_c, 1, 68, 76
8, 96310, Note_off_c, 1, 68, 64
8, 96331, Note_on_c, 1, 69, 72
8, 96452, Note_off_c, 1, 69, 64
8, 96470, Note_on_c, 1, 71, 85
8, 96577, Note_off_c, 1, 71, 64
8, 96694, Note_on_c, 1, 74, 87
8, 96800, Note_off_c, 1, 74, 64
8, 96930, Note_on_c, 1, 73, 64
8, 97015, Note_off_c, 1, 73, 64
8, 97159, Note_on_c, 1, 71, 80
8, 97478, Note_off_c, 1, 71, 64
8, 97541, Note_on_c, 1, 74, 80
8, 97645, Note_off_c, 1, 74, 64
8, 97652, Note_on_c, 1, 73, 72
8, 97737, Note_on_c, 1, 71, 80
8, 97738, Note_off_c, 1, 73, 64
8, 97839, Note_off_c, 1, 71, 64
8, 97888, Note_on_c, 1, 70, 64
8, 97984, Note_off_c, 1, 70, 64
8, 98117, Note_on_c, 1, 79, 87
8, 98472, Note_off_c, 1, 79, 64
8, 98593, Note_on_c, 1, 78, 70
8, 98927, Note_off_c, 1, 78, 64
8, 99087, Note_on_c, 1, 71, 82
8, 99183, Note_off_c, 1, 71, 64
8, 99325, Note_on_c, 1, 71, 82
8, 99440, Note_off_c, 1, 71, 64
8, 99563, Note_on_c, 1, 70, 70
8, 99682, Note_off_c, 1, 70, 64
8, 99807, Note_on_c, 1, 66, 85
8, 100336, Note_off_c, 1, 66, 64
8, 101011, Note_on_c, 1, 69, 82
8, 101095, Note_off_c, 1, 69, 64
8, 101272, Note_on_c, 1, 74, 89
8, 101809, Note_off_c, 1, 74, 64
8, 101859, Note_on_c, 1, 71, 82
8, 101953, Note_off_c, 1, 71, 64
8, 101970, Note_on_c, 1, 69, 64
8, 102055, Note_off_c, 1, 69, 64
8, 102076, Note_on_c, 1, 67, 74
8, 102180, Note_off_c, 1, 67, 64
8, 102193, Note_on_c, 1, 66, 62
8, 102295, Note_on_c, 1, 67, 82
8, 102299, Note_off_c, 1, 66, 64
8, 102374, Note_off_c, 1, 67, 64
8, 102435, Note_on_c, 1, 69, 82
8, 102856, Note_off_c, 1, 69, 64
8, 102927, Note_on_c, 1, 67, 72
8, 103032, Note_off_c, 1, 67, 64
8, 103180, Note_on_c, 1, 66, 72
8, 103268, Note_off_c, 1, 66, 64
8, 103422, Note_on_c, 1, 78, 78
8, 103501, Note_off_c, 1, 78, 64
8, 103643, Note_on_c, 1, 78, 85
8, 103687, Note_on_c, 1, 76, 78
8, 103698, Note_off_c, 1, 78, 64
8, 103744, Note_on_c, 1, 78, 66
8, 103762, Note_off_c, 1, 76, 64
8, 103792, Note_on_c, 1, 76, 78
8, 103813, Note_off_c, 1, 78, 64
8, 103871, Note_on_c, 1, 75, 76
8, 103883, Note_off_c, 1, 76, 64
8, 103958, Note_off_c, 1, 75, 64
8, 104115, Note_on_c, 1, 76, 82
8, 104685, Note_off_c, 1, 76, 64
8, 104835, Note_on_c, 1, 70, 70
8, 104923, Note_off_c, 1, 70, 64
8, 105081, Note_on_c, 1, 71, 76
8, 105647, Note_off_c, 1, 71, 64
8, 105682, Note_on_c, 1, 73, 68
8, 105763, Note_off_c, 1, 73, 64
8, 105793, Note_on_c, 1, 74, 76
8, 105889, Note_off_c, 1, 74, 64
8, 105910, Note_on_c, 1, 76, 80
8, 105993, Note_off_c, 1, 76, 64
8, 106043, Note_on_c, 1, 74, 89
8, 106158, Note_on_c, 1, 73, 62
8, 106164, Note_off_c, 1, 74, 64
8, 106243, Note_off_c, 1, 73, 64
8, 106264, Note_on_c, 1, 71, 70
8, 106379, Note_off_c, 1, 71, 64
8, 106383, Note_on_c, 1, 69, 76
8, 106456, Note_off_c, 1, 69, 64
8, 106520, Note_on_c, 1, 67, 68
8, 106628, Note_on_c, 1, 66, 66
8, 106640, Note_off_c, 1, 67, 64
8, 106715, Note_off_c, 1, 66, 64
8, 106751, Note_on_c, 1, 64, 64
8, 106843, Note_off_c, 1, 64, 64
8, 106870, Note_on_c, 1, 62, 66
8, 106948, Note_off_c, 1, 62, 64
8, 107007, Note_on_c, 1, 61, 98
8, 107095, Note_off_c, 1, 61, 64
8, 107116, Note_on_c, 1, 59, 70
8, 107208, Note_off_c, 1, 59, 64
8, 107245, Note_on_c, 1, 67, 87
8, 107335, Note_off_c, 1, 67, 64
8, 107492, Note_on_c, 1, 66, 76
8, 108045, Note_off_c, 1, 66, 64
8, 108199, Note_on_c, 1, 64, 64
8, 108291, Note_off_c, 1, 64, 64
8, 108441, Note_on_c, 1, 62, 72
8, 108531, Note_off_c, 1, 62, 64
8, 108690, Note_on_c, 1, 66, 85
8, 108792, Note_off_c, 1, 66, 64
8, 108934, Note_on_c, 1, 71, 80
8, 109456, Note_off_c, 1, 71, 64
8, 109516, Note_on_c, 1, 66, 64
8, 109622, Note_off_c, 1, 66, 64
8, 109622, Note_on_c, 1, 64, 60
8, 109702, Note_off_c, 1, 64, 64
8, 109739, Note_on_c, 1, 66, 87
8, 109823, Note_off_c, 1, 66, 64
8, 109875, Note_on_c, 1, 71, 85
8, 110415, Note_off_c, 1, 71, 64
8, 110463, Note_on_c, 1, 69, 68
8, 110570, Note_off_c, 1, 69, 64
8, 110578, Note_on_c, 1, 68, 80
8, 110660, Note_off_c, 1, 68, 64
8, 110697, Note_on_c, 1, 69, 66
8, 110784, Note_off_c, 1, 69, 64
8, 110833, Note_on_c, 1, 71, 80
8, 111350, Note_off_c, 1, 71, 64
8, 111421, Note_on_c, 1, 69, 74
8, 111511, Note_off_c, 1, 69, 64
8, 111530, Note_on_c, 1, 68, 68
8, 111618, Note_off_c, 1, 68, 64
8, 111655, Note_on_c, 1, 69, 85
8, 111749, Note_off_c, 1, 69, 64
8, 111795, Note_on_c, 1, 71, 82
8, 111901, Note_off_c, 1, 71, 64
8, 112040, Note_on_c, 1, 74, 85
8, 112144, Note_off_c, 1, 74, 64
8, 112292, Note_on_c, 1, 73, 74
8, 112371, Note_off_c, 1, 73, 64
8, 112536, Note_on_c, 1, 71, 82
8, 112834, Note_off_c, 1, 71, 64
8, 112900, Note_on_c, 1, 74, 80
8, 112996, Note_off_c, 1, 74, 64
8, 113008, Note_on_c, 1, 73, 58
8, 113093, Note_off_c, 1, 73, 64
8, 113103, Note_on_c, 1, 71, 63
8, 113206, Note_off_c, 1, 71, 64
8, 113258, Note_on_c, 1, 70, 66
8, 113348, Note_off_c, 1, 70, 64
8, 113488, Note_on_c, 1, 79, 87
8, 113844, Note_off_c, 1, 79, 64
8, 113967, Note_on_c, 1, 78, 66
8, 114276, Note_off_c, 1, 78, 64
8, 114452, Note_on_c, 1, 71, 80
8, 114537, Note_off_c, 1, 71, 64
8, 114696, Note_on_c, 1, 71, 80
8, 114782, Note_off_c, 1, 71, 64
8, 114919, Note_on_c, 1, 70, 78
8, 114992, Note_off_c, 1, 70, 64
8, 115172, Note_on_c, 1, 66, 70
8, 115702, Note_off_c, 1, 66, 64
8, 115702, End_track
9, 0, Start_track
9, 0, Title_t, "Viola"
9, 0, Program_c, 2, 41
9, 0, Control_c, 2, 7, 100
9, 16542, Note_on_c, 2, 66, 76
9, 16640, Note_off_c, 2, 66, 64
9, 16642, Note_on_c, 2, 67, 82
9, 16738, Note_off_c, 2, 67, 64
9, 16768, Note_on_c, 2, 69, 85
9, 16876, Note_off_c, 2, 69, 64
9, 17008, Note_on_c, 2, 67, 70
9, 17085, Note_off_c, 2, 67, 64
9, 17229, Note_on_c, 2, 66, 66
9, 17339, Note_off_c, 2, 66, 64
9, 17469, Note_on_c, 2, 67, 66
9, 17575, Note_off_c, 2, 67, 64
9, 17711, Note_on_c, 2, 69, 78
9, 17832, Note_off_c, 2, 69, 64
9, 17832, Note_on_c, 2, 67, 82
9, 17928, Note_off_c, 2, 67, 64
9, 17953, Note_on_c, 2, 66, 66
9, 18061, Note_off_c, 2, 66, 64
9, 18068, Note_on_c, 2, 64, 72
9, 18174, Note_off_c, 2, 64, 64
9, 18210, Note_on_c, 2, 66, 72
9, 18312, Note_off_c, 2, 66, 64
9, 18460, Note_on_c, 2, 71, 78
9, 18558, Note_off_c, 2, 71, 64
9, 18715, Note_on_c, 2, 69, 85
9, 18808, Note_off_c, 2, 69, 64
9, 18948, Note_on_c, 2, 71, 85
9, 19297, Note_off_c, 2, 71, 64
9, 19418, Note_on_c, 2, 69, 72
9, 19519, Note_off_c, 2, 69, 64
9, 19668, Note_on_c, 2, 71, 82
9, 19760, Note_off_c, 2, 71, 64
9, 19775, Note_on_c, 2, 69, 82
9, 19862, Note_off_c, 2, 69, 64
9, 19888, Note_on_c, 2, 67, 72
9, 19983, Note_off_c, 2, 67, 64
9, 20000, Note_on_c, 2, 69, 85
9, 20082, Note_off_c, 2, 69, 64
9, 20140, Note_on_c, 2, 71, 85
9, 20244, Note_off_c, 2, 71, 64
9, 20372, Note_on_c, 2, 62, 78
9, 20468, Note_off_c, 2, 62, 64
9, 20601, Note_on_c, 2, 59, 72
9, 20701, Note_off_c, 2, 59, 64
9, 20843, Note_on_c, 2, 66, 78
9, 20937, Note_off_c, 2, 66, 64
9, 21079, Note_on_c, 2, 67, 80
9, 21194, Note_off_c, 2, 67, 64
9, 21327, Note_on_c, 2, 66, 70
9, 21438, Note_off_c, 2, 66, 64
9, 21567, Note_on_c, 2, 59, 78
9, 21686, Note_off_c, 2, 59, 64
9, 21801, Note_on_c, 2, 66, 76
9, 21889, Note_off_c, 2, 66, 64
9, 22062, Note_on_c, 2, 71, 85
9, 22156, Note_off_c, 2, 71, 64
9, 22306, Note_on_c, 2, 70, 68
9, 22392, Note_off_c, 2, 70, 64
9, 22550, Note_on_c, 2, 71, 85
9, 22648, Note_off_c, 2, 71, 64
9, 22776, Note_on_c, 2, 64, 80
9, 22870, Note_off_c, 2, 64, 64
9, 23014, Note_on_c, 2, 61, 68
9, 23122, Note_off_c, 2, 61, 64
9, 23256, Note_on_c, 2, 58, 66
9, 23366, Note_off_c, 2, 58, 64
9, 23497, Note_on_c, 2, 59, 82
9, 23608, Note_off_c, 2, 59, 64
9, 23744, Note_on_c, 2, 61, 85
9, 23848, Note_off_c, 2, 61, 64
9, 23984, Note_on_c, 2, 54, 70
9, 24111, Note_off_c, 2, 54, 64
9, 24220, Note_on_c, 2, 62, 70
9, 24301, Note_off_c, 2, 62, 64
9, 24322, Note_on_c, 2, 64, 78
9, 24400, Note_off_c, 2, 64, 64
9, 24443, Note_on_c, 2, 66, 82
9, 24960, Note_off_c, 2, 66, 64
9, 25028, Note_on_c, 2, 62, 76
9, 25124, Note_off_c, 2, 62, 64
9, 25142, Note_on_c, 2, 61, 63
9, 25218, Note_off_c, 2, 61, 64
9, 25255, Note_on_c, 2, 59, 74
9, 25357, Note_off_c, 2, 59, 64
9, 25407, Note_on_c, 2, 66, 85
9, 25524, Note_off_c, 2, 66, 64
9, 25641, Note_on_c, 2, 64, 82
9, 25756, Note_off_c, 2, 64, 64
9, 25877, Note_on_c, 2, 62, 80
9, 25983, Note_on_c, 2, 61, 64
9, 25990, Note_off_c, 2, 62, 64
9, 26094, Note_off_c, 2, 61, 64
9, 26107, Note_on_c, 2, 59, 66
9, 26186, Note_off_c, 2, 59, 64
9, 26221, Note_on_c, 2, 57, 64
9, 26299, Note_off_c, 2, 57, 64
9, 26372, Note_on_c, 2, 56, 59
9, 26464, Note_off_c, 2, 56, 64
9, 26614, Note_on_c, 2, 65, 72
9, 26973, Note_off_c, 2, 65, 64
9, 26991, Note_on_c, 2, 66, 78
9, 27067, Note_off_c, 2, 66, 64
9, 27098, Note_on_c, 2, 65, 76
9, 27200, Note_off_c, 2, 65, 64
9, 27211, Note_on_c, 2, 66, 80
9, 27290, Note_off_c, 2, 66, 64
9, 27334, Note_on_c, 2, 65, 82
9, 27451, Note_off_c, 2, 65, 64
9, 27586, Note_on_c, 2, 66, 80
9, 27682, Note_off_c, 2, 66, 64
9, 27810, Note_on_c, 2, 64, 82
9, 27918, Note_off_c, 2, 64, 64
9, 28054, Note_on_c, 2, 66, 82
9, 28154, Note_off_c, 2, 66, 64
9, 28287, Note_on_c, 2, 67, 82
9, 28805, Note_off_c, 2, 67, 64
9, 28866, Note_on_c, 2, 66, 64
9, 28987, Note_on_c, 2, 64, 70
9, 29001, Note_off_c, 2, 66, 64
9, 29090, Note_off_c, 2, 64, 64
9, 29100, Note_on_c, 2, 66, 76
9, 29187, Note_off_c, 2, 66, 64
9, 29227, Note_on_c, 2, 70, 74
9, 29329, Note_off_c, 2, 70, 64
9, 29344, Note_on_c, 2, 71, 72
9, 29448, Note_off_c, 2, 71, 64
9, 29475, Note_on_c, 2, 73, 85
9, 29623, Note_off_c, 2, 73, 64
9, 29705, Note_on_c, 2, 66, 72
9, 29821, Note_off_c, 2, 66, 64
9, 29955, Note_on_c, 2, 67, 87
9, 30066, Note_off_c, 2, 67, 64
9, 30203, Note_on_c, 2, 66, 78
9, 30308, Note_off_c, 2, 66, 64
9, 30437, Note_on_c, 2, 64, 76
9, 30545, Note_off_c, 2, 64, 64
9, 30688, Note_on_c, 2, 62, 78
9, 31199, Note_off_c, 2, 62, 64
9, 31908, Note_on_c, 2, 66, 59
9, 31996, Note_on_c, 2, 67, 68
9, 32011, Note_off_c, 2, 66, 64
9, 32096, Note_off_c, 2, 67, 64
9, 32125, Note_on_c, 2, 69, 85
9, 32236, Note_off_c, 2, 69, 64
9, 32372, Note_on_c, 2, 67, 64
9, 32470, Note_off_c, 2, 67, 64
9, 32603, Note_on_c, 2, 66, 66
9, 32718, Note_off_c, 2, 66, 64
9, 32839, Note_on_c, 2, 67, 78
9, 32937, Note_off_c, 2, 67, 64
9, 33100, Note_on_c, 2, 69, 87
9, 33213, Note_off_c, 2, 69, 64
9, 33215, Note_on_c, 2, 67, 85
9, 33305, Note_off_c, 2, 67, 64
9, 33328, Note_on_c, 2, 66, 85
9, 33423, Note_off_c, 2, 66, 64
9, 33428, Note_on_c, 2, 64, 80
9, 33528, Note_off_c, 2, 64, 64
9, 33570, Note_on_c, 2, 66, 70
9, 33676, Note_off_c, 2, 66, 64
9, 33820, Note_on_c, 2, 71, 85
9, 33926, Note_off_c, 2, 71, 64
9, 34064, Note_on_c, 2, 69, 82
9, 34164, Note_off_c, 2, 69, 64
9, 34315, Note_on_c, 2, 71, 91
9, 34707, Note_off_c, 2, 71, 64
9, 34788, Note_on_c, 2, 69, 80
9, 34876, Note_off_c, 2, 69, 64
9, 35026, Note_on_c, 2, 71, 85
9, 35131, Note_on_c, 2, 69, 82
9, 35145, Note_off_c, 2, 71, 64
9, 35214, Note_off_c, 2, 69, 64
9, 35245, Note_on_c, 2, 67, 80
9, 35318, Note_off_c, 2, 67, 64
9, 35353, Note_on_c, 2, 69, 85
9, 35439, Note_off_c, 2, 69, 64
9, 35485, Note_on_c, 2, 71, 93
9, 35590, Note_off_c, 2, 71, 64
9, 35715, Note_on_c, 2, 62, 82
9, 35823, Note_off_c, 2, 62, 64
9, 35963, Note_on_c, 2, 59, 76
9, 36061, Note_off_c, 2, 59, 64
9, 36193, Note_on_c, 2, 66, 76
9, 36299, Note_off_c, 2, 66, 64
9, 36443, Note_on_c, 2, 67, 80
9, 36552, Note_off_c, 2, 67, 64
9, 36679, Note_on_c, 2, 66, 68
9, 36794, Note_off_c, 2, 66, 64
9, 36932, Note_on_c, 2, 59, 78
9, 37044, Note_off_c, 2, 59, 64
9, 37159, Note_on_c, 2, 66, 80
9, 37253, Note_off_c, 2, 66, 64
9, 37418, Note_on_c, 2, 71, 87
9, 37506, Note_off_c, 2, 71, 64
9, 37659, Note_on_c, 2, 70, 78
9, 37743, Note_off_c, 2, 70, 64
9, 37904, Note_on_c, 2, 71, 85
9, 38008, Note_off_c, 2, 71, 64
9, 38169, Note_on_c, 2, 64, 80
9, 38271, Note_off_c, 2, 64, 64
9, 38374, Note_on_c, 2, 61, 72
9, 38484, Note_off_c, 2, 61, 64
9, 38610, Note_on_c, 2, 58, 68
9, 38722, Note_off_c, 2, 58, 64
9, 38852, Note_on_c, 2, 59, 85
9, 38958, Note_off_c, 2, 59, 64
9, 39098, Note_on_c, 2, 61, 87
9, 39202, Note_off_c, 2, 61, 64
9, 39336, Note_on_c, 2, 54, 80
9, 39457, Note_off_c, 2, 54, 64
9, 39586, Note_on_c, 2, 62, 80
9, 39674, Note_off_c, 2, 62, 64
9, 39693, Note_on_c, 2, 64, 76
9, 39774, Note_off_c, 2, 64, 64
9, 39814, Note_on_c, 2, 66, 87
9, 40304, Note_off_c, 2, 66, 64
9, 40381, Note_on_c, 2, 62, 80
9, 40482, Note_off_c, 2, 62, 64
9, 40494, Note_on_c, 2, 61, 78
9, 40577, Note_off_c, 2, 61, 64
9, 40611, Note_on_c, 2, 59, 80
9, 40713, Note_off_c, 2, 59, 64
9, 40751, Note_on_c, 2, 66, 87
9, 40868, Note_off_c, 2, 66, 64
9, 41003, Note_on_c, 2, 64, 82
9, 41112, Note_off_c, 2, 64, 64
9, 41241, Note_on_c, 2, 62, 85
9, 41339, Note_off_c, 2, 62, 64
9, 41348, Note_on_c, 2, 61, 68
9, 41453, Note_off_c, 2, 61, 64
9, 41458, Note_on_c, 2, 59, 82
9, 41565, Note_on_c, 2, 57, 60
9, 41597, Note_off_c, 2, 59, 64
9, 41656, Note_off_c, 2, 57, 64
9, 41730, Note_on_c, 2, 56, 68
9, 41811, Note_off_c, 2, 56, 64
9, 41963, Note_on_c, 2, 65, 78
9, 42289, Note_off_c, 2, 65, 64
9, 42318, Note_on_c, 2, 66, 74
9, 42405, Note_off_c, 2, 66, 64
9, 42435, Note_on_c, 2, 65, 89
9, 42504, Note_off_c, 2, 65, 64
9, 42543, Note_on_c, 2, 66, 87
9, 42619, Note_off_c, 2, 66, 64
9, 42667, Note_on_c, 2, 65, 93
9, 42787, Note_off_c, 2, 65, 64
9, 42923, Note_on_c, 2, 66, 82
9, 43019, Note_off_c, 2, 66, 64
9, 43165, Note_on_c, 2, 64, 80
9, 43264, Note_off_c, 2, 64, 64
9, 43410, Note_on_c, 2, 66, 72
9, 43526, Note_off_c, 2, 66, 64
9, 43652, Note_on_c, 2, 67, 82
9, 44169, Note_off_c, 2, 67, 64
9, 44248, Note_on_c, 2, 66, 82
9, 44345, Note_off_c, 2, 66, 64
9, 44359, Note_on_c, 2, 64, 80
9, 44459, Note_off_c, 2, 64, 64
9, 44480, Note_on_c, 2, 66, 78
9, 44560, Note_off_c, 2, 66, 64
9, 44612, Note_on_c, 2, 70, 85
9, 44712, Note_off_c, 2, 70, 64
9, 44722, Note_on_c, 2, 71, 82
9, 44824, Note_off_c, 2, 71, 64
9, 44854, Note_on_c, 2, 73, 91
9, 44966, Note_off_c, 2, 73, 64
9, 45081, Note_on_c, 2, 66, 82
9, 45181, Note_off_c, 2, 66, 64
9, 45320, Note_on_c, 2, 67, 85
9, 45413, Note_off_c, 2, 67, 64
9, 45565, Note_on_c, 2, 66, 70
9, 45669, Note_off_c, 2, 66, 64
9, 45801, Note_on_c, 2, 64, 85
9, 45893, Note_off_c, 2, 64, 64
9, 46054, Note_on_c, 2, 62, 82
9, 46569, Note_off_c, 2, 62, 64
9, 54454, Note_on_c, 2, 66, 72
9, 54542, Note_on_c, 2, 68, 63
9, 54577, Note_off_c, 2, 66, 64
9, 54669, Note_on_c, 2, 70, 63
9, 54685, Note_off_c, 2, 68, 64
9, 54840, Note_off_c, 2, 70, 64
9, 55902, Note_on_c, 2, 62, 76
9, 56000, Note_on_c, 2, 64, 70
9, 56019, Note_off_c, 2, 62, 64
9, 56130, Note_off_c, 2, 64, 64
9, 56134, Note_on_c, 2, 66, 76
9, 56202, Note_off_c, 2, 66, 64
9, 56378, Note_on_c, 2, 71, 70
9, 56463, Note_off_c, 2, 71, 64
9, 56618, Note_on_c, 2, 67, 60
9, 56758, Note_off_c, 2, 67, 64
9, 57818, Note_on_c, 2, 66, 70
9, 57916, Note_on_c, 2, 67, 70
9, 57937, Note_off_c, 2, 66, 64
9, 58035, Note_on_c, 2, 69, 74
9, 58043, Note_off_c, 2, 67, 64
9, 58125, Note_off_c, 2, 69, 64
9, 58288, Note_on_c, 2, 60, 68
9, 58384, Note_off_c, 2, 60, 64
9, 58542, Note_on_c, 2, 59, 70
9, 58684, Note_off_c, 2, 59, 64
9, 59748, Note_on_c, 2, 73, 82
9, 59853, Note_on_c, 2, 71, 78
9, 59898, Note_off_c, 2, 73, 64
9, 59953, Note_off_c, 2, 71, 64
9, 59984, Note_on_c, 2, 70, 66
9, 60070, Note_off_c, 2, 70, 64
9, 60218, Note_on_c, 2, 66, 64
9, 60297, Note_off_c, 2, 66, 64
9, 60447, Note_on_c, 2, 71, 64
9, 60667, Note_off_c, 2, 71, 64
9, 61643, Note_on_c, 2, 59, 68
9, 61729, Note_on_c, 2, 61, 72
9, 61760, Note_off_c, 2, 59, 64
9, 61851, Note_off_c, 2, 61, 64
9, 61860, Note_on_c, 2, 62, 60
9, 61965, Note_off_c, 2, 62, 64
9, 62138, Note_on_c, 2, 66, 76
9, 62236, Note_on_c, 2, 68, 59
9, 62267, Note_off_c, 2, 66, 64
9, 62357, Note_on_c, 2, 70, 59
9, 62368, Note_off_c, 2, 68, 64
9, 62497, Note_off_c, 2, 70, 64
9, 63592, Note_on_c, 2, 62, 74
9, 63682, Note_on_c, 2, 64, 70
9, 63697, Note_off_c, 2, 62, 64
9, 63787, Note_on_c, 2, 66, 60
9, 63795, Note_off_c, 2, 64, 64
9, 63880, Note_off_c, 2, 66, 64
9, 64039, Note_on_c, 2, 71, 66
9, 64133, Note_off_c, 2, 71, 64
9, 64300, Note_on_c, 2, 67, 63
9, 64448, Note_off_c, 2, 67, 64
9, 65502, Note_on_c, 2, 66, 80
9, 65606, Note_on_c, 2, 67, 70
9, 65623, Note_off_c, 2, 66, 64
9, 65723, Note_on_c, 2, 69, 70
9, 65727, Note_off_c, 2, 67, 64
9, 65813, Note_off_c, 2, 69, 64
9, 65976, Note_on_c, 2, 60, 59
9, 66066, Note_off_c, 2, 60, 64
9, 66228, Note_on_c, 2, 59, 66
9, 66377, Note_off_c, 2, 59, 64
9, 67428, Note_on_c, 2, 73, 76
9, 67535, Note_on_c, 2, 71, 68
9, 67593, Note_off_c, 2, 73, 64
9, 67645, Note_off_c, 2, 71, 64
9, 67654, Note_on_c, 2, 70, 66
9, 67741, Note_off_c, 2, 70, 64
9, 67892, Note_on_c, 2, 66, 59
9, 67979, Note_off_c, 2, 66, 64
9, 68134, Note_on_c, 2, 71, 63
9, 68315, Note_off_c, 2, 71, 64
9, 69346, Note_on_c, 2, 59, 68
9, 69436, Note_on_c, 2, 61, 72
9, 69448, Note_off_c, 2, 59, 64
9, 69555, Note_on_c, 2, 62, 60
9, 69557, Note_off_c, 2, 61, 64
9, 69686, Note_off_c, 2, 62, 64
9, 85662, Note_on_c, 2, 66, 76
9, 85760, Note_off_c, 2, 66, 64
9, 85762, Note_on_c, 2, 67, 82
9, 85858, Note_off_c, 2, 67, 64
9, 85888, Note_on_c, 2, 69, 85
9, 85996, Note_off_c, 2, 69, 64
9, 86128, Note_on_c, 2, 67, 70
9, 86205, Note_off_c, 2, 67, 64
9, 86349, Note_on_c, 2, 66, 66
9, 86459, Note_off_c, 2, 66, 64
9, 86589, Note_on_c, 2, 67, 66
9, 86695, Note_off_c, 2, 67, 64
9, 86831, Note_on_c, 2, 69, 78
9, 86952, Note_off_c, 2, 69, 64
9, 86952, Note_on_c, 2, 67, 82
9, 87048, Note_off_c, 2, 67, 64
9, 87073, Note_on_c, 2, 66, 66
9, 87181, Note_off_c, 2, 66, 64
9, 87188, Note_on_c, 2, 64, 72
9, 87294, Note_off_c, 2, 64, 64
9, 87330, Note_on_c, 2, 66, 72
9, 87432, Note_off_c, 2, 66, 64
9, 87580, Note_on_c, 2, 71, 78
9, 87678, Note_off_c, 2, 71, 64
9, 87835, Note_on_c, 2, 69, 85
9, 87928, Note_off_c, 2, 69, 64
9, 88068, Note_on_c, 2, 71, 85
9, 88417, Note_off_c, 2, 71, 64
9, 88538, Note_on_c, 2, 69, 72
9, 88639, Note_off_c, 2, 69, 64
9, 88788, Note_on_c, 2, 71, 82
9, 88880, Note_off_c, 2, 71, 64
9, 88895, Note_on_c, 2, 69, 82
9, 88982, Note_off_c, 2, 69, 64
9, 89008, Note_on_c, 2, 67, 72
9, 89103, Note_off_c, 2, 67, 64
9, 89120, Note_on_c, 2, 69, 85
9, 89202, Note_off_c, 2, 69, 64
9, 89260, Note_on_c, 2, 71, 85
9, 89364, Note_off_c, 2, 71, 64
9, 89492, Note_on_c, 2, 62, 78
9, 89588, Note_off_c, 2, 62, 64
9, 89721, Note_on_c, 2, 59, 72
9, 89821, Note_off_c, 2, 59, 64
9, 89963, Note_on_c, 2, 66, 78
9, 90057, Note_off_c, 2, 66, 64
9, 90199, Note_on_c, 2, 67, 80
9, 90314, Note_off_c, 2, 67, 64
9, 90447, Note_on_c, 2, 66, 70
9, 90558, Note_off_c, 2, 66, 64
9, 90687, Note_on_c, 2, 59, 78
9, 90806, Note_off_c, 2, 59, 64
9, 90921, Note_on_c, 2, 66, 76
9, 91009, Note_off_c, 2, 66, 64
9, 91182, Note_on_c, 2, 71, 85
9, 91276, Note_off_c, 2, 71, 64
9, 91426, Note_on_c, 2, 70, 68
9, 91512, Note_off_c, 2, 70, 64
9, 91670, Note_on_c, 2, 71, 85
9, 91768, Note_off_c, 2, 71, 64
9, 91896, Note_on_c, 2, 64, 80
9, 91990, Note_off_c, 2, 64, 64
9, 92134, Note_on_c, 2, 61, 68
9, 92242, Note_off_c, 2, 61, 64
9, 92376, Note_on_c, 2, 58, 66
9, 92486, Note_off_c, 2, 58, 64
9, 92617, Note_on_c, 2, 59, 82
9, 92728, Note_off_c, 2, 59, 64
9, 92864, Note_on_c, 2, 61, 85
9, 92968, Note_off_c, 2, 61, 64
9, 93104, Note_on_c, 2, 54, 70
9, 93231, Note_off_c, 2, 54, 64
9, 93340, Note_on_c, 2, 62, 70
9, 93421, Note_off_c, 2, 62, 64
9, 93442, Note_on_c, 2, 64, 78
9, 93520, Note_off_c, 2, 64, 64
9, 93563, Note_on_c, 2, 66, 82
9, 94080, Note_off_c, 2, 66, 64
9, 94148, Note_on_c, 2, 62, 76
9, 94244, Note_off_c, 2, 62, 64
9, 94262, Note_on_c, 2, 61, 63
9, 94338, Note_off_c, 2, 61, 64
9, 94375, Note_on_c, 2, 59, 74
9, 94477, Note_off_c, 2, 59, 64
9, 94527, Note_on_c, 2, 66, 85
9, 94644, Note_off_c, 2, 66, 64
9, 94761, Note_on_c, 2, 64, 82
9, 94876, Note_off_c, 2, 64, 64
9, 94997, Note_on_c, 2, 62, 80
9, 95103, Note_on_c, 2, 61, 64
9, 95110, Note_off_c, 2, 62, 64
9, 95214, Note_off_c, 2, 61, 64
9, 95227, Note_on_c, 2, 59, 66
9, 95306, Note_off_c, 2, 59, 64
9, 95341, Note_on_c, 2, 57, 64
9, 95419, Note_off_c, 2, 57, 64
9, 95492, Note_on_c, 2, 56, 59
9, 95584, Note_off_c, 2, 56, 64
9, 95734, Note_on_c, 2, 65, 72
9, 96093, Note_off_c, 2, 65, 64
9, 96111, Note_on_c, 2, 66, 78
9, 96187, Note_off_c, 2, 66, 64
9, 96218, Note_on_c, 2, 65, 76
9, 96320, Note_off_c, 2, 65, 64
9, 96331, Note_on_c, 2, 66, 80
9, 96410, Note_off_c, 2, 66, 64
9, 96454, Note_on_c, 2, 65, 82
9, 96571, Note_off_c, 2, 65, 64
9, 96706, Note_on_c, 2, 66, 80
9, 96802, Note_off_c, 2, 66, 64
9, 96930, Note_on_c, 2, 64, 82
9, 97038, Note_off_c, 2, 64, 64
9, 97174, Note_on_c, 2, 66, 82
9, 97274, Note_off_c, 2, 66, 64
9, 97407, Note_on_c, 2, 67, 82
9, 97925, Note_off_c, 2, 67, 64
9, 97986, Note_on_c, 2, 66, 64
9, 98107, Note_on_c, 2, 64, 70
9, 98121, Note_off_c, 2, 66, 64
9, 98210, Note_off_c, 2, 64, 64
9, 98220, Note_on_c, 2, 66, 76
9, 98307, Note_off_c, 2, 66, 64
9, 98347, Note_on_c, 2, 70, 74
9, 98449, Note_off_c, 2, 70, 64
9, 98464, Note_on_c, 2, 71, 72
9, 98568, Note_off_c, 2, 71, 64
9, 98595, Note_on_c, 2, 73, 85
9, 98743, Note_off_c, 2, 73, 64
9, 98825, Note_on_c, 2, 66, 72
9, 98941, Note_off_c, 2, 66, 64
9, 99075, Note_on_c, 2, 67, 87
9, 99186, Note_off_c, 2, 67, 64
9, 99323, Note_on_c, 2, 66, 78
9, 99428, Note_off_c, 2, 66, 64
9, 99557, Note_on_c, 2, 64, 76
9, 99665, Note_off_c, 2, 64, 64
9, 99808, Note_on_c, 2, 62, 78
9, 100319, Note_off_c, 2, 62, 64
9, 101028, Note_on_c, 2, 66, 59
9, 101116, Note_on_c, 2, 67, 68
9, 101131, Note_off_c, 2, 66, 64
9, 101216, Note_off_c, 2, 67, 64
9, 101245, Note_on_c, 2, 69, 85
9, 101356, Note_off_c, 2, 69, 64
9, 101492, Note_on_c, 2, 67, 64
9, 101590, Note_off_c, 2, 67, 64
9, 101723, Note_on_c, 2, 66, 66
9, 101838, Note_off_c, 2, 66, 64
9, 101959, Note_on_c, 2, 67, 78
9, 102057, Note_off_c, 2, 67, 64
9, 102220, Note_on_c, 2, 69, 87
9, 102333, Note_off_c, 2, 69, 64
9, 102335, Note_on_c, 2, 67, 85
9, 102425, Note_off_c, 2, 67, 64
9, 102448, Note_on_c, 2, 66, 85
9, 102543, Note_off_c, 2, 66, 64
9, 102548, Note_on_c, 2, 64, 80
9, 102648, Note_off_c, 2, 64, 64
9, 102690, Note_on_c, 2, 66, 70
9, 102796, Note_off_c, 2, 66, 64
9, 102940, Note_on_c, 2, 71, 85
9, 103046, Note_off_c, 2, 71, 64
9, 103184, Note_on_c, 2, 69, 82
9, 103284, Note_off_c, 2, 69, 64
9, 103435, Note_on_c, 2, 71, 91
9, 103827, Note_off_c, 2, 71, 64
9, 103908, Note_on_c, 2, 69, 80
9, 103996, Note_off_c, 2, 69, 64
9, 104146, Note_on_c, 2, 71, 85
9, 104251, Note_on_c, 2, 69, 82
9, 104265, Note_off_c, 2, 71, 64
9, 104334, Note_off_c, 2, 69, 64
9, 104365, Note_on_c, 2, 67, 80
9, 104438, Note_off_c, 2, 67, 64
9, 104473, Note_on_c, 2, 69, 85
9, 104559, Note_off_c, 2, 69, 64
9, 104605, Note_on_c, 2, 71, 93
9, 104710, Note_off_c, 2, 71, 64
9, 104835, Note_on_c, 2, 62, 82
9, 104943, Note_off_c, 2, 62, 64
9, 105083, Note_on_c, 2, 59, 76
9, 105181, Note_off_c, 2, 59, 64
9, 105313, Note_on_c, 2, 66, 76
9, 105419, Note_off_c, 2, 66, 64
9, 105563, Note_on_c, 2, 67, 80
9, 105672, Note_off_c, 2, 67, 64
9, 105799, Note_on_c, 2, 66, 68
9, 105914, Note_off_c, 2, 66, 64
9, 106052, Note_on_c, 2, 59, 78
9, 106164, Note_off_c, 2, 59, 64
9, 106279, Note_on_c, 2, 66, 80
9, 106373, Note_off_c, 2, 66, 64
9, 106538, Note_on_c, 2, 71, 87
9, 106626, Note_off_c, 2, 71, 64
9, 106779, Note_on_c, 2, 70, 78
9, 106863, Note_off_c, 2, 70, 64
9, 107024, Note_on_c, 2, 71, 85
9, 107128, Note_off_c, 2, 71, 64
9, 107289, Note_on_c, 2, 64, 80
9, 107391, Note_off_c, 2, 64, 64
9, 107494, Note_on_c, 2, 61, 72
9, 107604, Note_off_c, 2, 61, 64
9, 107730, Note_on_c, 2, 58, 68
9, 107842, Note_off_c, 2, 58, 64
9, 107972, Note_on_c, 2, 59, 85
9, 108078, Note_off_c, 2, 59, 64
9, 108218, Note_on_c, 2, 61, 87
9, 108322, Note_off_c, 2, 61, 64
9, 108456, Note_on_c, 2, 54, 80
9, 108577, Note_off_c, 2, 54, 64
9, 108706, Note_on_c, 2, 62, 80
9, 108794, Note_off_c, 2, 62, 64
9, 108813, Note_on_c, 2, 64, 76
9, 108894, Note_off_c, 2, 64, 64
9, 108934, Note_on_c, 2, 66, 87
9, 109424, Note_off_c, 2, 66, 64
9, 109501, Note_on_c, 2, 62, 80
9, 109602, Note_off_c, 2, 62, 64
9, 109614, Note_on_c, 2, 61, 78
9, 109697, Note_off_c, 2, 61, 64
9, 109731, Note_on_c, 2, 59, 80
9, 109833, Note_off_c, 2, 59, 64
9, 109871, Note_on_c, 2, 66, 87
9, 109988, Note_off_c, 2, 66, 64
9, 110123, Note_on_c, 2, 64, 82
9, 110232, Note_off_c, 2, 64, 64
9, 110361, Note_on_c, 2, 62, 85
9, 110459, Note_off_c, 2, 62, 64
9, 110468, Note_on_c, 2, 61, 68
9, 110573, Note_off_c, 2, 61, 64
9, 110578, Note_on_c, 2, 59, 82
9, 110685, Note_on_c, 2, 57, 60
9, 110717, Note_off_c, 2, 59, 64
9, 110776, Note_off_c, 2, 57, 64
9, 110850, Note_on_c, 2, 56, 68
9, 110931, Note_off_c, 2, 56, 64
9, 111083, Note_on_c, 2, 65, 78
9, 111409, Note_off_c, 2, 65, 64
9, 111438, Note_on_c, 2, 66, 74
9, 111525, Note_off_c, 2, 66, 64
9, 111555, Note_on_c, 2, 65, 89
9, 111624, Note_off_c, 2, 65, 64
9, 111663, Note_on_c, 2, 66, 87
9, 111739, Note_off_c, 2, 66, 64
9, 111787, Note_on_c, 2, 65, 93
9, 111907, Note_off_c, 2, 65, 64
9, 112043, Note_on_c, 2, 66, 82
9, 112139, Note_off_c, 2, 66, 64
9, 112285, Note_on_c, 2, 64, 80
9, 112384, Note_off_c, 2, 64, 64
9, 112530, Note_on_c, 2, 66, 72
9, 112646, Note_off_c, 2, 66, 64
9, 112772, Note_on_c, 2, 67, 82
9, 113289, Note_off_c, 2, 67, 64
9, 113368, Note_on_c, 2, 66, 82
9, 113465, Note_off_c, 2, 66, 64
9, 113479, Note_on_c, 2, 64, 80
9, 113579, Note_off_c, 2, 64, 64
9, 113600, Note_on_c, 2, 66, 78
9, 113680, Note_off_c, 2, 66, 64
9, 113732, Note_on_c, 2, 70, 85
9, 113832, Note_off_c, 2, 70, 64
9, 113842, Note_on_c, 2, 71, 82
9, 113944, Note_off_c, 2, 71, 64
9, 113974, Note_on_c, 2, 73, 91
9, 114086, Note_off_c, 2, 73, 64
9, 114201, Note_on_c, 2, 66, 82
9, 114301, Note_off_c, 2, 66, 64
9, 114440, Note_on_c, 2, 67, 85
9, 114533, Note_off_c, 2, 67, 64
9, 114685, Note_on_c, 2, 66, 70
9, 114789, Note_off_c, 2, 66, 64
9, 114921, Note_on_c, 2, 64, 85
9, 115013, Note_off_c, 2, 64, 64
9, 115174, Note_on_c, 2, 62, 82
9, 115689, Note_off_c, 2, 62, 64
9, 115689, End_track
10, 0, Start_track
10, 0, Title_t, "Cello"
10, 0, Program_c, 3, 42
10, 0, Control_c, 3, 7, 100
10, 16538, Note_on_c, 3, 50, 80
10, 16623, Note_off_c, 3, 50, 64
10, 16638, Note_on_c, 3, 52, 78
10, 16726, Note_off_c, 3, 52, 64
10, 16768, Note_on_c, 3, 54, 89
10, 16893, Note_off_c, 3, 54, 64
10, 17012, Note_on_c, 3, 52, 64
10, 17110, Note_off_c, 3, 52, 64
10, 17247, Note_on_c, 3, 50, 66
10, 17346, Note_off_c, 3, 50, 64
10, 17487, Note_on_c, 3, 52, 68
10, 17584, Note_off_c, 3, 52, 64
10, 17730, Note_on_c, 3, 54, 64
10, 17819, Note_off_c, 3, 54, 64
10, 17955, Note_on_c, 3, 52, 68
10, 18043, Note_off_c, 3, 52, 64
10, 18214, Note_on_c, 3, 51, 63
10, 18329, Note_off_c, 3, 51, 64
10, 18448, Note_on_c, 3, 52, 64
10, 18568, Note_off_c, 3, 52, 64
10, 18708, Note_on_c, 3, 54, 64
10, 18809, Note_off_c, 3, 54, 64
10, 18959, Note_on_c, 3, 51, 63
10, 19053, Note_off_c, 3, 51, 64
10, 19199, Note_on_c, 3, 52, 78
10, 19307, Note_off_c, 3, 52, 64
10, 19435, Note_on_c, 3, 54, 63
10, 19541, Note_off_c, 3, 54, 64
10, 19670, Note_on_c, 3, 55, 76
10, 19771, Note_off_c, 3, 55, 64
10, 19902, Note_on_c, 3, 54, 59
10, 19994, Note_off_c, 3, 54, 64
10, 20138, Note_on_c, 3, 52, 64
10, 20232, Note_off_c, 3, 52, 64
10, 20363, Note_on_c, 3, 54, 64
10, 20457, Note_off_c, 3, 54, 64
10, 20614, Note_on_c, 3, 55, 74
10, 20718, Note_off_c, 3, 55, 64
10, 20850, Note_on_c, 3, 54, 60
10, 20962, Note_off_c, 3, 54, 64
10, 21090, Note_on_c, 3, 52, 70
10, 21188, Note_off_c, 3, 52, 64
10, 21327, Note_on_c, 3, 54, 59
10, 21426, Note_off_c, 3, 54, 64
10, 21578, Note_on_c, 3, 55, 72
10, 21689, Note_off_c, 3, 55, 64
10, 21818, Note_on_c, 3, 54, 63
10, 21914, Note_off_c, 3, 54, 64
10, 22054, Note_on_c, 3, 52, 64
10, 22168, Note_off_c, 3, 52, 64
10, 22296, Note_on_c, 3, 54, 60
10, 22406, Note_off_c, 3, 54, 64
10, 22544, Note_on_c, 3, 55, 74
10, 22657, Note_off_c, 3, 55, 64
10, 22770, Note_on_c, 3, 52, 58
10, 22893, Note_off_c, 3, 52, 64
10, 23035, Note_on_c, 3, 54, 66
10, 23147, Note_off_c, 3, 54, 64
10, 23256, Note_on_c, 3, 52, 72
10, 23366, Note_off_c, 3, 52, 64
10, 23496, Note_on_c, 3, 50, 74
10, 23608, Note_off_c, 3, 50, 64
10, 23719, Note_on_c, 3, 49, 72
10, 23809, Note_off_c, 3, 49, 64
10, 23984, Note_on_c, 3, 47, 80
10, 24111, Note_off_c, 3, 47, 64
10, 24203, Note_on_c, 3, 59, 60
10, 24287, Note_off_c, 3, 59, 64
10, 24314, Note_on_c, 3, 61, 63
10, 24389, Note_off_c, 3, 61, 64
10, 24433, Note_on_c, 3, 62, 85
10, 24541, Note_off_c, 3, 62, 64
10, 24681, Note_on_c, 3, 61, 51
10, 24767, Note_off_c, 3, 61, 64
10, 24900, Note_on_c, 3, 59, 59
10, 24992, Note_off_c, 3, 59, 64
10, 25142, Note_on_c, 3, 61, 57
10, 25243, Note_off_c, 3, 61, 64
10, 25382, Note_on_c, 3, 62, 85
10, 25487, Note_off_c, 3, 62, 64
10, 25641, Note_on_c, 3, 61, 60
10, 25756, Note_off_c, 3, 61, 64
10, 25888, Note_on_c, 3, 59, 70
10, 25996, Note_off_c, 3, 59, 64
10, 26128, Note_on_c, 3, 61, 62
10, 26232, Note_off_c, 3, 61, 64
10, 26357, Note_on_c, 3, 62, 80
10, 26464, Note_off_c, 3, 62, 64
10, 26603, Note_on_c, 3, 61, 60
10, 26722, Note_off_c, 3, 61, 64
10, 26854, Note_on_c, 3, 59, 70
10, 26962, Note_off_c, 3, 59, 64
10, 27087, Note_on_c, 3, 61, 63
10, 27202, Note_off_c, 3, 61, 64
10, 27336, Note_on_c, 3, 62, 76
10, 27448, Note_off_c, 3, 62, 64
10, 27568, Note_on_c, 3, 59, 72
10, 27689, Note_off_c, 3, 59, 64
10, 27805, Note_on_c, 3, 61, 61
10, 27933, Note_off_c, 3, 61, 64
10, 28041, Note_on_c, 3, 62, 78
10, 28152, Note_off_c, 3, 62, 64
10, 28279, Note_on_c, 3, 64, 72
10, 28409, Note_off_c, 3, 64, 64
10, 28523, Note_on_c, 3, 62, 82
10, 28628, Note_off_c, 3, 62, 64
10, 28772, Note_on_c, 3, 61, 64
10, 28900, Note_off_c, 3, 61, 64
10, 29012, Note_on_c, 3, 62, 80
10, 29124, Note_off_c, 3, 62, 64
10, 29243, Note_on_c, 3, 64, 85
10, 29343, Note_off_c, 3, 64, 64
10, 29492, Note_on_c, 3, 49, 78
10, 29592, Note_off_c, 3, 49, 64
10, 29705, Note_on_c, 3, 50, 82
10, 29830, Note_off_c, 3, 50, 64
10, 29957, Note_on_c, 3, 52, 72
10, 30070, Note_off_c, 3, 52, 64
10, 30199, Note_on_c, 3, 54, 78
10, 30322, Note_off_c, 3, 54, 64
10, 30443, Note_on_c, 3, 42, 89
10, 30548, Note_off_c, 3, 42, 64
10, 30677, Note_on_c, 3, 47, 87
10, 30786, Note_off_c, 3, 47, 64
10, 30921, Note_on_c, 3, 54, 78
10, 31019, Note_off_c, 3, 54, 64
10, 31167, Note_on_c, 3, 59, 85
10, 31443, Note_off_c, 3, 59, 64
10, 31896, Note_on_c, 3, 50, 80
10, 32002, Note_on_c, 3, 52, 85
10, 32008, Note_off_c, 3, 50, 64
10, 32094, Note_off_c, 3, 52, 64
10, 32129, Note_on_c, 3, 54, 82
10, 32255, Note_off_c, 3, 54, 64
10, 32370, Note_on_c, 3, 52, 68
10, 32464, Note_off_c, 3, 52, 64
10, 32607, Note_on_c, 3, 50, 72
10, 32733, Note_off_c, 3, 50, 64
10, 32838, Note_on_c, 3, 52, 64
10, 32937, Note_off_c, 3, 52, 64
10, 33083, Note_on_c, 3, 54, 72
10, 33190, Note_off_c, 3, 54, 64
10, 33334, Note_on_c, 3, 52, 68
10, 33430, Note_off_c, 3, 52, 64
10, 33571, Note_on_c, 3, 51, 68
10, 33695, Note_off_c, 3, 51, 64
10, 33828, Note_on_c, 3, 52, 80
10, 33926, Note_off_c, 3, 52, 64
10, 34070, Note_on_c, 3, 54, 66
10, 34177, Note_off_c, 3, 54, 64
10, 34315, Note_on_c, 3, 51, 66
10, 34415, Note_off_c, 3, 51, 64
10, 34552, Note_on_c, 3, 52, 78
10, 34670, Note_off_c, 3, 52, 64
10, 34790, Note_on_c, 3, 54, 64
10, 34905, Note_off_c, 3, 54, 64
10, 35037, Note_on_c, 3, 55, 82
10, 35151, Note_off_c, 3, 55, 64
10, 35268, Note_on_c, 3, 54, 57
10, 35375, Note_off_c, 3, 54, 64
10, 35485, Note_on_c, 3, 52, 64
10, 35590, Note_off_c, 3, 52, 64
10, 35734, Note_on_c, 3, 54, 62
10, 35846, Note_off_c, 3, 54, 64
10, 35970, Note_on_c, 3, 55, 82
10, 36089, Note_off_c, 3, 55, 64
10, 36208, Note_on_c, 3, 54, 63
10, 36310, Note_off_c, 3, 54, 64
10, 36450, Note_on_c, 3, 52, 70
10, 36568, Note_off_c, 3, 52, 64
10, 36689, Note_on_c, 3, 54, 63
10, 36806, Note_off_c, 3, 54, 64
10, 36928, Note_on_c, 3, 55, 80
10, 37050, Note_off_c, 3, 55, 64
10, 37174, Note_on_c, 3, 54, 64
10, 37284, Note_off_c, 3, 54, 64
10, 37416, Note_on_c, 3, 52, 66
10, 37528, Note_off_c, 3, 52, 64
10, 37650, Note_on_c, 3, 54, 66
10, 37775, Note_off_c, 3, 54, 64
10, 37890, Note_on_c, 3, 55, 76
10, 38015, Note_off_c, 3, 55, 64
10, 38115, Note_on_c, 3, 52, 60
10, 38248, Note_off_c, 3, 52, 64
10, 38368, Note_on_c, 3, 54, 68
10, 38486, Note_off_c, 3, 54, 64
10, 38605, Note_on_c, 3, 52, 70
10, 38720, Note_off_c, 3, 52, 64
10, 38862, Note_on_c, 3, 50, 80
10, 38977, Note_off_c, 3, 50, 64
10, 39092, Note_on_c, 3, 49, 76
10, 39202, Note_off_c, 3, 49, 64
10, 39330, Note_on_c, 3, 47, 82
10, 39478, Note_off_c, 3, 47, 64
10, 39563, Note_on_c, 3, 59, 66
10, 39657, Note_off_c, 3, 59, 64
10, 39668, Note_on_c, 3, 61, 64
10, 39751, Note_off_c, 3, 61, 64
10, 39799, Note_on_c, 3, 62, 89
10, 39928, Note_off_c, 3, 62, 64
10, 40050, Note_on_c, 3, 61, 62
10, 40154, Note_off_c, 3, 61, 64
10, 40281, Note_on_c, 3, 59, 68
10, 40387, Note_off_c, 3, 59, 64
10, 40519, Note_on_c, 3, 61, 63
10, 40623, Note_off_c, 3, 61, 64
10, 40755, Note_on_c, 3, 62, 82
10, 40874, Note_off_c, 3, 62, 64
10, 40991, Note_on_c, 3, 61, 62
10, 41101, Note_off_c, 3, 61, 64
10, 41220, Note_on_c, 3, 59, 66
10, 41331, Note_off_c, 3, 59, 64
10, 41467, Note_on_c, 3, 61, 64
10, 41584, Note_off_c, 3, 61, 64
10, 41713, Note_on_c, 3, 62, 82
10, 41830, Note_off_c, 3, 62, 64
10, 41968, Note_on_c, 3, 61, 62
10, 42084, Note_off_c, 3, 61, 64
10, 42207, Note_on_c, 3, 59, 74
10, 42319, Note_off_c, 3, 59, 64
10, 42448, Note_on_c, 3, 61, 57
10, 42571, Note_off_c, 3, 61, 64
10, 42694, Note_on_c, 3, 62, 85
10, 42800, Note_off_c, 3, 62, 64
10, 42919, Note_on_c, 3, 59, 80
10, 43040, Note_off_c, 3, 59, 64
10, 43178, Note_on_c, 3, 61, 61
10, 43303, Note_off_c, 3, 61, 64
10, 43414, Note_on_c, 3, 62, 80
10, 43524, Note_off_c, 3, 62, 64
10, 43662, Note_on_c, 3, 64, 74
10, 43770, Note_off_c, 3, 64, 64
10, 43898, Note_on_c, 3, 62, 80
10, 44006, Note_off_c, 3, 62, 64
10, 44136, Note_on_c, 3, 61, 63
10, 44288, Note_off_c, 3, 61, 64
10, 44376, Note_on_c, 3, 62, 78
10, 44482, Note_off_c, 3, 62, 64
10, 44624, Note_on_c, 3, 64, 78
10, 44730, Note_off_c, 3, 64, 64
10, 44870, Note_on_c, 3, 49, 82
10, 44964, Note_off_c, 3, 49, 64
10, 45085, Note_on_c, 3, 50, 80
10, 45209, Note_off_c, 3, 50, 64
10, 45330, Note_on_c, 3, 52, 85
10, 45444, Note_off_c, 3, 52, 64
10, 45568, Note_on_c, 3, 54, 76
10, 45676, Note_off_c, 3, 54, 64
10, 45808, Note_on_c, 3, 42, 82
10, 45910, Note_off_c, 3, 42, 64
10, 46050, Note_on_c, 3, 47, 98
10, 46139, Note_off_c, 3, 47, 64
10, 46300, Note_on_c, 3, 54, 76
10, 46394, Note_off_c, 3, 54, 64
10, 46544, Note_on_c, 3, 59, 85
10, 46790, Note_off_c, 3, 59, 64
10, 54944, Note_on_c, 3, 61, 62
10, 55021, Note_off_c, 3, 61, 64
10, 55182, Note_on_c, 3, 58, 66
10, 55249, Note_off_c, 3, 58, 64
10, 55418, Note_on_c, 3, 54, 62
10, 55480, Note_off_c, 3, 54, 64
10, 55675, Note_on_c, 3, 59, 60
10, 56157, Note_off_c, 3, 59, 64
10, 56866, Note_on_c, 3, 64, 82
10, 56944, Note_off_c, 3, 64, 64
10, 57110, Note_on_c, 3, 61, 58
10, 57194, Note_off_c, 3, 61, 64
10, 57336, Note_on_c, 3, 57, 64
10, 57417, Note_off_c, 3, 57, 64
10, 57584, Note_on_c, 3, 62, 66
10, 58064, Note_off_c, 3, 62, 64
10, 58776, Note_on_c, 3, 47, 68
10, 58865, Note_off_c, 3, 47, 64
10, 59014, Note_on_c, 3, 49, 64
10, 59099, Note_off_c, 3, 49, 64
10, 59254, Note_on_c, 3, 51, 64
10, 59348, Note_off_c, 3, 51, 64
10, 59498, Note_on_c, 3, 52, 62
10, 59961, Note_off_c, 3, 52, 64
10, 60708, Note_on_c, 3, 50, 68
10, 60780, Note_off_c, 3, 50, 64
10, 60946, Note_on_c, 3, 52, 80
10, 61030, Note_off_c, 3, 52, 64
10, 61184, Note_on_c, 3, 54, 70
10, 61271, Note_off_c, 3, 54, 64
10, 61439, Note_on_c, 3, 47, 63
10, 61927, Note_off_c, 3, 47, 64
10, 62614, Note_on_c, 3, 61, 64
10, 62697, Note_off_c, 3, 61, 64
10, 62850, Note_on_c, 3, 58, 70
10, 62937, Note_off_c, 3, 58, 64
10, 63090, Note_on_c, 3, 54, 62
10, 63175, Note_off_c, 3, 54, 64
10, 63348, Note_on_c, 3, 59, 66
10, 63851, Note_off_c, 3, 59, 64
10, 64550, Note_on_c, 3, 64, 80
10, 64621, Note_off_c, 3, 64, 64
10, 64784, Note_on_c, 3, 61, 63
10, 64867, Note_off_c, 3, 61, 64
10, 65018, Note_on_c, 3, 57, 70
10, 65083, Note_off_c, 3, 57, 64
10, 65273, Note_on_c, 3, 62, 68
10, 65759, Note_off_c, 3, 62, 64
10, 66454, Note_on_c, 3, 47, 68
10, 66537, Note_off_c, 3, 47, 64
10, 66692, Note_on_c, 3, 49, 58
10, 66781, Note_off_c, 3, 49, 64
10, 66931, Note_on_c, 3, 51, 66
10, 67011, Note_off_c, 3, 51, 64
10, 67172, Note_on_c, 3, 52, 70
10, 67679, Note_off_c, 3, 52, 64
10, 68376, Note_on_c, 3, 50, 76
10, 68463, Note_off_c, 3, 50, 64
10, 68622, Note_on_c, 3, 52, 78
10, 68699, Note_off_c, 3, 52, 64
10, 68854, Note_on_c, 3, 54, 72
10, 68924, Note_off_c, 3, 54, 64
10, 69096, Note_on_c, 3, 47, 59
10, 69622, Note_off_c, 3, 47, 64
10, 85658, Note_on_c, 3, 50, 80
10, 85743, Note_off_c, 3, 50, 64
10, 85758, Note_on_c, 3, 52, 78
10, 85846, Note_off_c, 3, 52, 64
10, 85888, Note_on_c, 3, 54, 89
10, 86013, Note_off_c, 3, 54, 64
10, 86132, Note_on_c, 3, 52, 64
10, 86230, Note_off_c, 3, 52, 64
10, 86367, Note_on_c, 3, 50, 66
10, 86466, Note_off_c, 3, 50, 64
10, 86607, Note_on_c, 3, 52, 68
10, 86704, Note_off_c, 3, 52, 64
10, 86850, Note_on_c, 3, 54, 64
10, 86939, Note_off_c, 3, 54, 64
10, 87075, Note_on_c, 3, 52, 68
10, 87163, Note_off_c, 3, 52, 64
10, 87334, Note_on_c, 3, 51, 63
10, 87449, Note_off_c, 3, 51, 64
10, 87568, Note_on_c, 3, 52, 64
10, 87688, Note_off_c, 3, 52, 64
10, 87828, Note_on_c, 3, 54, 64
10, 87929, Note_off_c, 3, 54, 64
10, 88079, Note_on_c, 3, 51, 63
10, 88173, Note_off_c, 3, 51, 64
10, 88319, Note_on_c, 3, 52, 78
10, 88427, Note_off_c, 3, 52, 64
10, 88555, Note_on_c, 3, 54, 63
10, 88661, Note_off_c, 3, 54, 64
10, 88790, Note_on_c, 3, 55, 76
10, 88891, Note_off_c, 3, 55, 64
10, 89022, Note_on_c, 3, 54, 59
10, 89114, Note_off_c, 3, 54, 64
10, 89258, Note_on_c, 3, 52, 64
10, 89352, Note_off_c, 3, 52, 64
10, 89483, Note_on_c, 3, 54, 64
10, 89577, Note_off_c, 3, 54, 64
10, 89734, Note_on_c, 3, 55, 74
10, 89838, Note_off_c, 3, 55, 64
10, 89970, Note_on_c, 3, 54, 60
10, 90082, Note_off_c, 3, 54, 64
10, 90210, Note_on_c, 3, 52, 70
10, 90308, Note_off_c, 3, 52, 64
10, 90447, Note_on_c, 3, 54, 59
10, 90546, Note_off_c, 3, 54, 64
10, 90698, Note_on_c, 3, 55, 72
10, 90809, Note_off_c, 3, 55, 64
10, 90938, Note_on_c, 3, 54, 63
10, 91034, Note_off_c, 3, 54, 64
10, 91174, Note_on_c, 3, 52, 64
10, 91288, Note_off_c, 3, 52, 64
10, 91416, Note_on_c, 3, 54, 60
10, 91526, Note_off_c, 3, 54, 64
10, 91664, Note_on_c, 3, 55, 74
10, 91777, Note_off_c, 3, 55, 64
10, 91890, Note_on_c, 3, 52, 58
10, 92013, Note_off_c, 3, 52, 64
10, 92155, Note_on_c, 3, 54, 66
10, 92267, Note_off_c, 3, 54, 64
10, 92376, Note_on_c, 3, 52, 72
10, 92486, Note_off_c, 3, 52, 64
10, 92616, Note_on_c, 3, 50, 74
10, 92728, Note_off_c, 3, 50, 64
10, 92839, Note_on_c, 3, 49, 72
10, 92929, Note_off_c, 3, 49, 64
10, 93104, Note_on_c, 3, 47, 80
10, 93231, Note_off_c, 3, 47, 64
10, 93323, Note_on_c, 3, 59, 60
10, 93407, Note_off_c, 3, 59, 64
10, 93434, Note_on_c, 3, 61, 63
10, 93509, Note_off_c, 3, 61, 64
10, 93553, Note_on_c, 3, 62, 85
10, 93661, Note_off_c, 3, 62, 64
10, 93801, Note_on_c, 3, 61, 51
10, 93887, Note_off_c, 3, 61, 64
10, 94020, Note_on_c, 3, 59, 59
10, 94112, Note_off_c, 3, 59, 64
10, 94262, Note_on_c, 3, 61, 57
10, 94363, Note_off_c, 3, 61, 64
10, 94502, Note_on_c, 3, 62, 85
10, 94607, Note_off_c, 3, 62, 64
10, 94761, Note_on_c, 3, 61, 60
10, 94876, Note_off_c, 3, 61, 64
10, 95008, Note_on_c, 3, 59, 70
10, 95116, Note_off_c, 3, 59, 64
10, 95248, Note_on_c, 3, 61, 62
10, 95352, Note_off_c, 3, 61, 64
10, 95477, Note_on_c, 3, 62, 80
10, 95584, Note_off_c, 3, 62, 64
10, 95723, Note_on_c, 3, 61, 60
10, 95842, Note_off_c, 3, 61, 64
10, 95974, Note_on_c, 3, 59, 70
10, 96082, Note_off_c, 3, 59, 64
10, 96207, Note_on_c, 3, 61, 63
10, 96322, Note_off_c, 3, 61, 64
10, 96456, Note_on_c, 3, 62, 76
10, 96568, Note_off_c, 3, 62, 64
10, 96688, Note_on_c, 3, 59, 72
10, 96809, Note_off_c, 3, 59, 64
10, 96925, Note_on_c, 3, 61, 61
10, 97053, Note_off_c, 3, 61, 64
10, 97161, Note_on_c, 3, 62, 78
10, 97272, Note_off_c, 3, 62, 64
10, 97399, Note_on_c, 3, 64, 72
10, 97529, Note_off_c, 3, 64, 64
10, 97643, Note_on_c, 3, 62, 82
10, 97748, Note_off_c, 3, 62, 64
10, 97892, Note_on_c, 3, 61, 64
10, 98020, Note_off_c, 3, 61, 64
10, 98132, Note_on_c, 3, 62, 80
10, 98244, Note_off_c, 3, 62, 64
10, 98363, Note_on_c, 3, 64, 85
10, 98463, Note_off_c, 3, 64, 64
10, 98612, Note_on_c, 3, 49, 78
10, 98712, Note_off_c, 3, 49, 64
10, 98825, Note_on_c, 3, 50, 82
10, 98950, Note_off_c, 3, 50, 64
10, 99077, Note_on_c, 3, 52, 72
10, 99190, Note_off_c, 3, 52, 64
10, 99319, Note_on_c, 3, 54, 78
10, 99442, Note_off_c, 3, 54, 64
10, 99563, Note_on_c, 3, 42, 89
10, 99668, Note_off_c, 3, 42, 64
10, 99797, Note_on_c, 3, 47, 87
10, 99906, Note_off_c, 3, 47, 64
10, 100041, Note_on_c, 3, 54, 78
10, 100139, Note_off_c, 3, 54, 64
10, 100287, Note_on_c, 3, 59, 85
10, 100563, Note_off_c, 3, 59, 64
10, 101016, Note_on_c, 3, 50, 80
10, 101122, Note_on_c, 3, 52, 85
10, 101128, Note_off_c, 3, 50, 64
10, 101214, Note_off_c, 3, 52, 64
10, 101249, Note_on_c, 3, 54, 82
10, 101375, Note_off_c, 3, 54, 64
10, 101490, Note_on_c, 3, 52, 68
10, 101584, Note_off_c, 3, 52, 64
10, 101727, Note_on_c, 3, 50, 72
10, 101853, Note_off_c, 3, 50, 64
10, 101958, Note_on_c, 3, 52, 64
10, 102057, Note_off_c, 3, 52, 64
10, 102203, Note_on_c, 3, 54, 72
10, 102310, Note_off_c, 3, 54, 64
10, 102454, Note_on_c, 3, 52, 68
10, 102550, Note_off_c, 3, 52, 64
10, 102691, Note_on_c, 3, 51, 68
10, 102815, Note_off_c, 3, 51, 64
10, 102948, Note_on_c, 3, 52, 80
10, 103046, Note_off_c, 3, 52, 64
10, 103190, Note_on_c, 3, 54, 66
10, 103297, Note_off_c, 3, 54, 64
10, 103435, Note_on_c, 3, 51, 66
10, 103535, Note_off_c, 3, 51, 64
10, 103672, Note_on_c, 3, 52, 78
10, 103790, Note_off_c, 3, 52, 64
10, 103910, Note_on_c, 3, 54, 64
10, 104025, Note_off_c, 3, 54, 64
10, 104157, Note_on_c, 3, 55, 82
10, 104271, Note_off_c, 3, 55, 64
10, 104388, Note_on_c, 3, 54, 57
10, 104495, Note_off_c, 3, 54, 64
10, 104605, Note_on_c, 3, 52, 64
10, 104710, Note_off_c, 3, 52, 64
10, 104854, Note_on_c, 3, 54, 62
10, 104966, Note_off_c, 3, 54, 64
10, 105090, Note_on_c, 3, 55, 82
10, 105209, Note_off_c, 3, 55, 64
10, 105328, Note_on_c, 3, 54, 63
10, 105430, Note_off_c, 3, 54, 64
10, 105570, Note_on_c, 3, 52, 70
10, 105688, Note_off_c, 3, 52, 64
10, 105809, Note_on_c, 3, 54, 63
10, 105926, Note_off_c, 3, 54, 64
10, 106048, Note_on_c, 3, 55, 80
10, 106170, Note_off_c, 3, 55, 64
10, 106294, Note_on_c, 3, 54, 64
10, 106404, Note_off_c, 3, 54, 64
10, 106536, Note_on_c, 3, 52, 66
10, 106648, Note_off_c, 3, 52, 64
10, 106770, Note_on_c, 3, 54, 66
10, 106895, Note_off_c, 3, 54, 64
10, 107010, Note_on_c, 3, 55, 76
10, 107135, Note_off_c, 3, 55, 64
10, 107235, Note_on_c, 3, 52, 60
10, 107368, Note_off_c, 3, 52, 64
10, 107488, Note_on_c, 3, 54, 68
10, 107606, Note_off_c, 3, 54, 64
10, 107725, Note_on_c, 3, 52, 70
10, 107840, Note_off_c, 3, 52, 64
10, 107982, Note_on_c, 3, 50, 80
10, 108097, Note_off_c, 3, 50, 64
10, 108212, Note_on_c, 3, 49, 76
10, 108322, Note_off_c, 3, 49, 64
10, 108450, Note_on_c, 3, 47, 82
10, 108598, Note_off_c, 3, 47, 64
10, 108683, Note_on_c, 3, 59, 66
10, 108777, Note_off_c, 3, 59, 64
10, 108788, Note_on_c, 3, 61, 64
10, 108871, Note_off_c, 3, 61, 64
10, 108919, Note_on_c, 3, 62, 89
10, 109048, Note_off_c, 3, 62, 64
10, 109170, Note_on_c, 3, 61, 62
10, 109274, Note_off_c, 3, 61, 64
10, 109401, Note_on_c, 3, 59, 68
10, 109507, Note_off_c, 3, 59, 64
10, 109639, Note_on_c, 3, 61, 63
10, 109743, Note_off_c, 3, 61, 64
10, 109875, Note_on_c, 3, 62, 82
10, 109994, Note_off_c, 3, 62, 64
10, 110111, Note_on_c, 3, 61, 62
10, 110221, Note_off_c, 3, 61, 64
10, 110340, Note_on_c, 3, 59, 66
10, 110451, Note_off_c, 3, 59, 64
10, 110587, Note_on_c, 3, 61, 64
10, 110704, Note_off_c, 3, 61, 64
10, 110833, Note_on_c, 3, 62, 82
10, 110950, Note_off_c, 3, 62, 64
10, 111088, Note_on_c, 3, 61, 62
10, 111204, Note_off_c, 3, 61, 64
10, 111327, Note_on_c, 3, 59, 74
10, 111439, Note_off_c, 3, 59, 64
10, 111568, Note_on_c, 3, 61, 57
10, 111691, Note_off_c, 3, 61, 64
10, 111814, Note_on_c, 3, 62, 85
10, 111920, Note_off_c, 3, 62, 64
10, 112039, Note_on_c, 3, 59, 80
10, 112160, Note_off_c, 3, 59, 64
10, 112298, Note_on_c, 3, 61, 61
10, 112423, Note_off_c, 3, 61, 64
10, 112534, Note_on_c, 3, 62, 80
10, 112644, Note_off_c, 3, 62, 64
10, 112782, Note_on_c, 3, 64, 74
10, 112890, Note_off_c, 3, 64, 64
10, 113018, Note_on_c, 3, 62, 80
10, 113126, Note_off_c, 3, 62, 64
10, 113256, Note_on_c, 3, 61, 63
10, 113408, Note_off_c, 3, 61, 64
10, 113496, Note_on_c, 3, 62, 78
10, 113602, Note_off_c, 3, 62, 64
10, 113744, Note_on_c, 3, 64, 78
10, 113850, Note_off_c, 3, 64, 64
10, 113990, Note_on_c, 3, 49, 82
10, 114084, Note_off_c, 3, 49, 64
10, 114205, Note_on_c, 3, 50, 80
10, 114329, Note_off_c, 3, 50, 64
10, 114450, Note_on_c, 3, 52, 85
10, 114564, Note_off_c, 3, 52, 64
10, 114688, Note_on_c, 3, 54, 76
10, 114796, Note_off_c, 3, 54, 64
10, 114928, Note_on_c, 3, 42, 82
10, 115030, Note_off_c, 3, 42, 64
10, 115170, Note_on_c, 3, 47, 98
10, 115259, Note_off_c, 3, 47, 64
10, 115420, Note_on_c, 3, 54, 76
10, 115514, Note_off_c, 3, 54, 64
10, 115664, Note_on_c, 3, 59, 85
10, 115910, Note_off_c, 3, 59, 64
10, 115910, End_track
11, 0, Start_track
11, 0, Title_t, "Flute"
11, 0, Program_c, 4, 73
11, 0, Control_c, 4, 7, 127
11, 16050, Note_on_c, 4, 69, 82
11, 16135, Note_off_c, 4, 69, 64
11, 16308, Note_on_c, 4, 74, 78
11, 16832, Note_off_c, 4, 74, 64
11, 16886, Note_on_c, 4, 76, 80
11, 16966, Note_off_c, 4, 76, 64
11, 17000, Note_on_c, 4, 78, 68
11, 17076, Note_off_c, 4, 78, 64
11, 17114, Note_on_c, 4, 79, 82
11, 17187, Note_off_c, 4, 79, 64
11, 17241, Note_on_c, 4, 81, 93
11, 17360, Note_on_c, 4, 79, 72
11, 17368, Note_off_c, 4, 81, 64
11, 17450, Note_off_c, 4, 79, 64
11, 17477, Note_on_c, 4, 78, 42
11, 17570, Note_off_c, 4, 78, 64
11, 17599, Note_on_c, 4, 76, 55
11, 17667, Note_off_c, 4, 76, 64
11, 17734, Note_on_c, 4, 74, 72
11, 17834, Note_off_c, 4, 74, 64
11, 17984, Note_on_c, 4, 72, 63
11, 18068, Note_off_c, 4, 72, 64
11, 18232, Note_on_c, 4, 71, 68
11, 18328, Note_off_c, 4, 71, 64
11, 18470, Note_on_c, 4, 76, 74
11, 18560, Note_off_c, 4, 76, 64
11, 18717, Note_on_c, 4, 75, 66
11, 18813, Note_off_c, 4, 75, 64
11, 18937, Note_on_c, 4, 81, 82
11, 19017, Note_off_c, 4, 81, 64
11, 19172, Note_on_c, 4, 81, 78
11, 19228, Note_on_c, 4, 79, 80
11, 19247, Note_off_c, 4, 81, 64
11, 19293, Note_on_c, 4, 81, 64
11, 19299, Note_off_c, 4, 79, 64
11, 19342, Note_on_c, 4, 79, 82
11, 19351, Note_off_c, 4, 81, 64
11, 19408, Note_on_c, 4, 78, 66
11, 19422, Note_off_c, 4, 79, 64
11, 19503, Note_off_c, 4, 78, 64
11, 19519, Note_on_c, 4, 79, 89
11, 19568, Note_off_c, 4, 79, 64
11, 19641, Note_on_c, 4, 76, 76
11, 19730, Note_off_c, 4, 76, 64
11, 19746, Note_on_c, 4, 71, 57
11, 19819, Note_off_c, 4, 71, 64
11, 19873, Note_on_c, 4, 76, 63
11, 19952, Note_off_c, 4, 76, 64
11, 19988, Note_on_c, 4, 78, 60
11, 20065, Note_off_c, 4, 78, 64
11, 20130, Note_on_c, 4, 79, 85
11, 20238, Note_off_c, 4, 79, 64
11, 20240, Note_on_c, 4, 81, 66
11, 20317, Note_off_c, 4, 81, 64
11, 20355, Note_on_c, 4, 78, 70
11, 20445, Note_off_c, 4, 78, 64
11, 20472, Note_on_c, 4, 79, 66
11, 20534, Note_off_c, 4, 79, 64
11, 20607, Note_on_c, 4, 76, 70
11, 20705, Note_off_c, 4, 76, 64
11, 20710, Note_on_c, 4, 78, 54
11, 20770, Note_off_c, 4, 78, 64
11, 20845, Note_on_c, 4, 74, 78
11, 20954, Note_on_c, 4, 76, 66
11, 20956, Note_off_c, 4, 74, 64
11, 21023, Note_off_c, 4, 76, 64
11, 21090, Note_on_c, 4, 73, 76
11, 21204, Note_off_c, 4, 73, 64
11, 21334, Note_on_c, 4, 82, 72
11, 21411, Note_off_c, 4, 82, 64
11, 21582, Note_on_c, 4, 83, 87
11, 21651, Note_off_c, 4, 83, 64
11, 21826, Note_on_c, 4, 74, 85
11, 22206, Note_off_c, 4, 74, 64
11, 22300, Note_on_c, 4, 73, 63
11, 22369, Note_off_c, 4, 73, 64
11, 22404, Note_on_c, 4, 74, 78
11, 22479, Note_off_c, 4, 74, 64
11, 22544, Note_on_c, 4, 76, 98
11, 22655, Note_off_c, 4, 76, 64
11, 22655, Note_on_c, 4, 74, 78
11, 22734, Note_off_c, 4, 74, 64
11, 22768, Note_on_c, 4, 73, 55
11, 22859, Note_off_c, 4, 73, 64
11, 22874, Note_on_c, 4, 71, 56
11, 22966, Note_off_c, 4, 71, 64
11, 23018, Note_on_c, 4, 70, 80
11, 23118, Note_off_c, 4, 70, 64
11, 23124, Note_on_c, 4, 71, 58
11, 23225, Note_off_c, 4, 71, 64
11, 23253, Note_on_c, 4, 73, 57
11, 23323, Note_off_c, 4, 73, 64
11, 23364, Note_on_c, 4, 70, 56
11, 23425, Note_off_c, 4, 70, 64
11, 23498, Note_on_c, 4, 66, 89
11, 23608, Note_on_c, 4, 68, 74
11, 23617, Note_off_c, 4, 66, 64
11, 23704, Note_off_c, 4, 68, 64
11, 23734, Note_on_c, 4, 70, 58
11, 23798, Note_off_c, 4, 70, 64
11, 23846, Note_on_c, 4, 66, 63
11, 23911, Note_off_c, 4, 66, 64
11, 23978, Note_on_c, 4, 71, 68
11, 24484, Note_off_c, 4, 71, 64
11, 24541, Note_on_c, 4, 66, 60
11, 24637, Note_off_c, 4, 66, 64
11, 24654, Note_on_c, 4, 64, 78
11, 24744, Note_off_c, 4, 64, 64
11, 24765, Note_on_c, 4, 66, 56
11, 24852, Note_off_c, 4, 66, 64
11, 24919, Note_on_c, 4, 74, 85
11, 25432, Note_off_c, 4, 74, 64
11, 25506, Note_on_c, 4, 71, 70
11, 25599, Note_off_c, 4, 71, 64
11, 25620, Note_on_c, 4, 70, 62
11, 25695, Note_off_c, 4, 70, 64
11, 25729, Note_on_c, 4, 71, 85
11, 25808, Note_off_c, 4, 71, 64
11, 25879, Note_on_c, 4, 77, 89
11, 26401, Note_off_c, 4, 77, 64
11, 26493, Note_on_c, 4, 71, 68
11, 26603, Note_off_c, 4, 71, 64
11, 26607, Note_on_c, 4, 70, 60
11, 26668, Note_off_c, 4, 70, 64
11, 26714, Note_on_c, 4, 71, 66
11, 26797, Note_off_c, 4, 71, 64
11, 26858, Note_on_c, 4, 80, 80
11, 27358, Note_off_c, 4, 80, 64
11, 27446, Note_on_c, 4, 82, 64
11, 27532, Note_off_c, 4, 82, 64
11, 27565, Note_on_c, 4, 83, 87
11, 27645, Note_off_c, 4, 83, 64
11, 27680, Note_on_c, 4, 80, 63
11, 27747, Note_off_c, 4, 80, 64
11, 27805, Note_on_c, 4, 82, 82
11, 27906, Note_off_c, 4, 82, 64
11, 27916, Note_on_c, 4, 78, 61
11, 27993, Note_off_c, 4, 78, 64
11, 28048, Note_on_c, 4, 83, 85
11, 28164, Note_on_c, 4, 81, 76
11, 28173, Note_off_c, 4, 83, 64
11, 28242, Note_off_c, 4, 81, 64
11, 28285, Note_on_c, 4, 79, 66
11, 28352, Note_off_c, 4, 79, 64
11, 28392, Note_on_c, 4, 78, 63
11, 28469, Note_off_c, 4, 78, 64
11, 28523, Note_on_c, 4, 76, 61
11, 28801, Note_off_c, 4, 76, 64
11, 28888, Note_on_c, 4, 74, 82
11, 28991, Note_off_c, 4, 74, 64
11, 28999, Note_on_c, 4, 73, 60
11, 29085, Note_off_c, 4, 73, 64
11, 29112, Note_on_c, 4, 71, 64
11, 29181, Note_off_c, 4, 71, 64
11, 29250, Note_on_c, 4, 73, 89
11, 29364, Note_on_c, 4, 74, 78
11, 29381, Note_off_c, 4, 73, 64
11, 29471, Note_off_c, 4, 74, 64
11, 29479, Note_on_c, 4, 76, 66
11, 29552, Note_off_c, 4, 76, 64
11, 29594, Note_on_c, 4, 70, 57
11, 29656, Note_off_c, 4, 70, 64
11, 29727, Note_on_c, 4, 71, 82
11, 29849, Note_off_c, 4, 71, 64
11, 29978, Note_on_c, 4, 79, 85
11, 30084, Note_on_c, 4, 78, 68
11, 30086, Note_off_c, 4, 79, 64
11, 30145, Note_off_c, 4, 78, 64
11, 30213, Note_on_c, 4, 76, 80
11, 30316, Note_on_c, 4, 74, 68
11, 30335, Note_off_c, 4, 76, 64
11, 30379, Note_off_c, 4, 74, 64
11, 30445, Note_on_c, 4, 73, 85
11, 30544, Note_on_c, 4, 71, 70
11, 30552, Note_off_c, 4, 73, 64
11, 30612, Note_off_c, 4, 71, 64
11, 30687, Note_on_c, 4, 71, 72
11, 31224, Note_off_c, 4, 71, 64
11, 31405, Note_on_c, 4, 69, 78
11, 31501, Note_off_c, 4, 69, 64
11, 31670, Note_on_c, 4, 74, 82
11, 32207, Note_off_c, 4, 74, 64
11, 32263, Note_on_c, 4, 76, 76
11, 32344, Note_off_c, 4, 76, 64
11, 32372, Note_on_c, 4, 78, 74
11, 32449, Note_off_c, 4, 78, 64
11, 32484, Note_on_c, 4, 79, 82
11, 32557, Note_off_c, 4, 79, 64
11, 32612, Note_on_c, 4, 81, 102
11, 32728, Note_on_c, 4, 79, 76
11, 32735, Note_off_c, 4, 81, 64
11, 32812, Note_off_c, 4, 79, 64
11, 32845, Note_on_c, 4, 78, 52
11, 32939, Note_off_c, 4, 78, 64
11, 32956, Note_on_c, 4, 76, 60
11, 33039, Note_off_c, 4, 76, 64
11, 33090, Note_on_c, 4, 74, 64
11, 33200, Note_off_c, 4, 74, 64
11, 33328, Note_on_c, 4, 72, 63
11, 33417, Note_off_c, 4, 72, 64
11, 33581, Note_on_c, 4, 71, 72
11, 33674, Note_off_c, 4, 71, 64
11, 33830, Note_on_c, 4, 76, 72
11, 33910, Note_off_c, 4, 76, 64
11, 34068, Note_on_c, 4, 75, 72
11, 34150, Note_off_c, 4, 75, 64
11, 34310, Note_on_c, 4, 81, 76
11, 34391, Note_off_c, 4, 81, 64
11, 34542, Note_on_c, 4, 81, 78
11, 34598, Note_on_c, 4, 79, 70
11, 34611, Note_off_c, 4, 81, 64
11, 34663, Note_on_c, 4, 81, 66
11, 34676, Note_off_c, 4, 79, 64
11, 34715, Note_on_c, 4, 79, 68
11, 34720, Note_off_c, 4, 81, 64
11, 34772, Note_on_c, 4, 78, 62
11, 34793, Note_off_c, 4, 79, 64
11, 34857, Note_off_c, 4, 78, 64
11, 34880, Note_on_c, 4, 79, 87
11, 34934, Note_off_c, 4, 79, 64
11, 35014, Note_on_c, 4, 76, 68
11, 35095, Note_off_c, 4, 76, 64
11, 35122, Note_on_c, 4, 71, 63
11, 35197, Note_off_c, 4, 71, 64
11, 35252, Note_on_c, 4, 76, 70
11, 35325, Note_off_c, 4, 76, 64
11, 35368, Note_on_c, 4, 78, 66
11, 35439, Note_off_c, 4, 78, 64
11, 35500, Note_on_c, 4, 79, 91
11, 35606, Note_off_c, 4, 79, 64
11, 35606, Note_on_c, 4, 81, 63
11, 35679, Note_off_c, 4, 81, 64
11, 35727, Note_on_c, 4, 78, 68
11, 35805, Note_off_c, 4, 78, 64
11, 35838, Note_on_c, 4, 79, 72
11, 35896, Note_off_c, 4, 79, 64
11, 35968, Note_on_c, 4, 76, 76
11, 36053, Note_off_c, 4, 76, 64
11, 36082, Note_on_c, 4, 78, 53
11, 36139, Note_off_c, 4, 78, 64
11, 36205, Note_on_c, 4, 74, 85
11, 36310, Note_on_c, 4, 76, 66
11, 36312, Note_off_c, 4, 74, 64
11, 36379, Note_off_c, 4, 76, 64
11, 36450, Note_on_c, 4, 73, 89
11, 36548, Note_off_c, 4, 73, 64
11, 36691, Note_on_c, 4, 82, 68
11, 36767, Note_off_c, 4, 82, 64
11, 36942, Note_on_c, 4, 83, 87
11, 37017, Note_off_c, 4, 83, 64
11, 37188, Note_on_c, 4, 74, 82
11, 37537, Note_off_c, 4, 74, 64
11, 37650, Note_on_c, 4, 73, 57
11, 37725, Note_off_c, 4, 73, 64
11, 37758, Note_on_c, 4, 74, 78
11, 37829, Note_off_c, 4, 74, 64
11, 37896, Note_on_c, 4, 76, 89
11, 38001, Note_off_c, 4, 76, 64
11, 38015, Note_on_c, 4, 74, 70
11, 38090, Note_off_c, 4, 74, 64
11, 38132, Note_on_c, 4, 73, 56
11, 38226, Note_off_c, 4, 73, 64
11, 38240, Note_on_c, 4, 71, 60
11, 38313, Note_off_c, 4, 71, 64
11, 38373, Note_on_c, 4, 70, 91
11, 38482, Note_off_c, 4, 70, 64
11, 38482, Note_on_c, 4, 71, 70
11, 38587, Note_off_c, 4, 71, 64
11, 38609, Note_on_c, 4, 73, 53
11, 38668, Note_off_c, 4, 73, 64
11, 38722, Note_on_c, 4, 70, 63
11, 38779, Note_off_c, 4, 70, 64
11, 38852, Note_on_c, 4, 66, 98
11, 38964, Note_on_c, 4, 68, 70
11, 38966, Note_off_c, 4, 66, 64
11, 39054, Note_off_c, 4, 68, 64
11, 39080, Note_on_c, 4, 70, 66
11, 39146, Note_off_c, 4, 70, 64
11, 39208, Note_on_c, 4, 66, 62
11, 39269, Note_off_c, 4, 66, 64
11, 39340, Note_on_c, 4, 71, 78
11, 39851, Note_off_c, 4, 71, 64
11, 39904, Note_on_c, 4, 66, 62
11, 39999, Note_off_c, 4, 66, 64
11, 40010, Note_on_c, 4, 64, 78
11, 40093, Note_off_c, 4, 64, 64
11, 40129, Note_on_c, 4, 66, 74
11, 40198, Note_off_c, 4, 66, 64
11, 40275, Note_on_c, 4, 74, 91
11, 40816, Note_off_c, 4, 74, 64
11, 40882, Note_on_c, 4, 71, 76
11, 40980, Note_off_c, 4, 71, 64
11, 40993, Note_on_c, 4, 70, 61
11, 41071, Note_off_c, 4, 70, 64
11, 41101, Note_on_c, 4, 71, 76
11, 41170, Note_off_c, 4, 71, 64
11, 41239, Note_on_c, 4, 77, 93
11, 41775, Note_off_c, 4, 77, 64
11, 41846, Note_on_c, 4, 71, 72
11, 41949, Note_on_c, 4, 70, 64
11, 41965, Note_off_c, 4, 71, 64
11, 42028, Note_off_c, 4, 70, 64
11, 42076, Note_on_c, 4, 71, 64
11, 42149, Note_off_c, 4, 71, 64
11, 42207, Note_on_c, 4, 80, 80
11, 42735, Note_off_c, 4, 80, 64
11, 42798, Note_on_c, 4, 82, 68
11, 42877, Note_off_c, 4, 82, 64
11, 42913, Note_on_c, 4, 83, 87
11, 42994, Note_off_c, 4, 83, 64
11, 43034, Note_on_c, 4, 80, 61
11, 43096, Note_off_c, 4, 80, 64
11, 43163, Note_on_c, 4, 82, 85
11, 43259, Note_off_c, 4, 82, 64
11, 43278, Note_on_c, 4, 78, 63
11, 43366, Note_off_c, 4, 78, 64
11, 43414, Note_on_c, 4, 83, 87
11, 43531, Note_on_c, 4, 81, 76
11, 43539, Note_off_c, 4, 83, 64
11, 43602, Note_off_c, 4, 81, 64
11, 43654, Note_on_c, 4, 79, 63
11, 43727, Note_off_c, 4, 79, 64
11, 43768, Note_on_c, 4, 78, 54
11, 43840, Note_off_c, 4, 78, 64
11, 43896, Note_on_c, 4, 76, 76
11, 44165, Note_off_c, 4, 76, 64
11, 44259, Note_on_c, 4, 74, 85
11, 44357, Note_off_c, 4, 74, 64
11, 44370, Note_on_c, 4, 73, 63
11, 44455, Note_off_c, 4, 73, 64
11, 44472, Note_on_c, 4, 71, 66
11, 44537, Note_off_c, 4, 71, 64
11, 44607, Note_on_c, 4, 73, 87
11, 44718, Note_on_c, 4, 74, 78
11, 44728, Note_off_c, 4, 73, 64
11, 44810, Note_off_c, 4, 74, 64
11, 44839, Note_on_c, 4, 76, 82
11, 44916, Note_off_c, 4, 76, 64
11, 44952, Note_on_c, 4, 70, 68
11, 45025, Note_off_c, 4, 70, 64
11, 45083, Note_on_c, 4, 71, 57
11, 45196, Note_off_c, 4, 71, 64
11, 45339, Note_on_c, 4, 79, 85
11, 45442, Note_off_c, 4, 79, 64
11, 45444, Note_on_c, 4, 78, 63
11, 45507, Note_off_c, 4, 78, 64
11, 45571, Note_on_c, 4, 76, 82
11, 45676, Note_on_c, 4, 74, 66
11, 45678, Note_off_c, 4, 76, 64
11, 45734, Note_off_c, 4, 74, 64
11, 45808, Note_on_c, 4, 73, 89
11, 45901, Note_off_c, 4, 73, 64
11, 45910, Note_on_c, 4, 71, 70
11, 45976, Note_off_c, 4, 71, 64
11, 46054, Note_on_c, 4, 71, 76
11, 46553, Note_off_c, 4, 71, 64
11, 54477, Note_on_c, 4, 73, 66
11, 54571, Note_off_c, 4, 73, 64
11, 54583, Note_on_c, 4, 71, 68
11, 54675, Note_off_c, 4, 71, 64
11, 54713, Note_on_c, 4, 73, 78
11, 54815, Note_off_c, 4, 73, 64
11, 54815, Note_on_c, 4, 74, 56
11, 54934, Note_off_c, 4, 74, 64
11, 54942, Note_on_c, 4, 76, 61
11, 55032, Note_off_c, 4, 76, 64
11, 55057, Note_on_c, 4, 79, 68
11, 55142, Note_off_c, 4, 79, 64
11, 55180, Note_on_c, 4, 78, 57
11, 55286, Note_off_c, 4, 78, 64
11, 55291, Note_on_c, 4, 76, 55
11, 55382, Note_off_c, 4, 76, 64
11, 55411, Note_on_c, 4, 74, 56
11, 55518, Note_off_c, 4, 74, 64
11, 55524, Note_on_c, 4, 73, 52
11, 55597, Note_off_c, 4, 73, 64
11, 55650, Note_on_c, 4, 74, 74
11, 55766, Note_on_c, 4, 73, 52
11, 55785, Note_off_c, 4, 74, 64
11, 55881, Note_off_c, 4, 73, 64
11, 55890, Note_on_c, 4, 71, 57
11, 55990, Note_off_c, 4, 71, 64
11, 56013, Note_on_c, 4, 73, 34
11, 56107, Note_off_c, 4, 73, 64
11, 56134, Note_on_c, 4, 74, 55
11, 56244, Note_off_c, 4, 74, 64
11, 56244, Note_on_c, 4, 76, 61
11, 56334, Note_off_c, 4, 76, 64
11, 56361, Note_on_c, 4, 78, 55
11, 56453, Note_off_c, 4, 78, 64
11, 56478, Note_on_c, 4, 74, 53
11, 56553, Note_off_c, 4, 74, 64
11, 56610, Note_on_c, 4, 76, 82
11, 56722, Note_on_c, 4, 78, 53
11, 56739, Note_off_c, 4, 76, 64
11, 56843, Note_on_c, 4, 79, 53
11, 56896, Note_off_c, 4, 78, 64
11, 56956, Note_off_c, 4, 79, 64
11, 56968, Note_on_c, 4, 83, 68
11, 57096, Note_on_c, 4, 81, 63
11, 57125, Note_off_c, 4, 83, 64
11, 57175, Note_off_c, 4, 81, 64
11, 57213, Note_on_c, 4, 79, 54
11, 57325, Note_off_c, 4, 79, 64
11, 57334, Note_on_c, 4, 78, 48
11, 57436, Note_off_c, 4, 78, 64
11, 57459, Note_on_c, 4, 76, 52
11, 57520, Note_off_c, 4, 76, 64
11, 57576, Note_on_c, 4, 78, 85
11, 57691, Note_on_c, 4, 76, 66
11, 57712, Note_off_c, 4, 78, 64
11, 57803, Note_off_c, 4, 76, 64
11, 57812, Note_on_c, 4, 74, 59
11, 57904, Note_off_c, 4, 74, 64
11, 57928, Note_on_c, 4, 76, 51
11, 58002, Note_off_c, 4, 76, 64
11, 58041, Note_on_c, 4, 78, 53
11, 58135, Note_off_c, 4, 78, 64
11, 58158, Note_on_c, 4, 79, 59
11, 58256, Note_off_c, 4, 79, 64
11, 58273, Note_on_c, 4, 81, 57
11, 58375, Note_off_c, 4, 81, 64
11, 58384, Note_on_c, 4, 78, 52
11, 58467, Note_off_c, 4, 78, 64
11, 58517, Note_on_c, 4, 75, 80
11, 58613, Note_off_c, 4, 75, 64
11, 58628, Note_on_c, 4, 76, 60
11, 58740, Note_off_c, 4, 76, 64
11, 58742, Note_on_c, 4, 78, 35
11, 58849, Note_off_c, 4, 78, 64
11, 58861, Note_on_c, 4, 84, 57
11, 58970, Note_off_c, 4, 84, 64
11, 58989, Note_on_c, 4, 83, 57
11, 59097, Note_off_c, 4, 83, 64
11, 59112, Note_on_c, 4, 81, 58
11, 59220, Note_off_c, 4, 81, 64
11, 59222, Note_on_c, 4, 79, 50
11, 59325, Note_off_c, 4, 79, 64
11, 59350, Note_on_c, 4, 78, 58
11, 59431, Note_off_c, 4, 78, 64
11, 59479, Note_on_c, 4, 79, 85
11, 59592, Note_on_c, 4, 78, 59
11, 59604, Note_off_c, 4, 79, 64
11, 59709, Note_off_c, 4, 78, 64
11, 59723, Note_on_c, 4, 76, 57
11, 59815, Note_off_c, 4, 76, 64
11, 59840, Note_on_c, 4, 79, 63
11, 59940, Note_off_c, 4, 79, 64
11, 59953, Note_on_c, 4, 78, 51
11, 60053, Note_off_c, 4, 78, 64
11, 60068, Note_on_c, 4, 76, 50
11, 60168, Note_off_c, 4, 76, 64
11, 60203, Note_on_c, 4, 74, 52
11, 60301, Note_off_c, 4, 74, 64
11, 60306, Note_on_c, 4, 73, 62
11, 60391, Note_off_c, 4, 73, 64
11, 60452, Note_on_c, 4, 74, 89
11, 60575, Note_on_c, 4, 76, 74
11, 60594, Note_off_c, 4, 74, 64
11, 60692, Note_off_c, 4, 76, 64
11, 60696, Note_on_c, 4, 78, 56
11, 60781, Note_off_c, 4, 78, 64
11, 60806, Note_on_c, 4, 71, 64
11, 60877, Note_off_c, 4, 71, 64
11, 60928, Note_on_c, 4, 74, 68
11, 61040, Note_off_c, 4, 74, 64
11, 61040, Note_on_c, 4, 73, 53
11, 61134, Note_off_c, 4, 73, 64
11, 61161, Note_on_c, 4, 71, 63
11, 61274, Note_on_c, 4, 70, 57
11, 61282, Note_off_c, 4, 71, 64
11, 61368, Note_off_c, 4, 70, 64
11, 61410, Note_on_c, 4, 71, 63
11, 61908, Note_off_c, 4, 71, 64
11, 62136, Note_on_c, 4, 73, 60
11, 62236, Note_off_c, 4, 73, 64
11, 62244, Note_on_c, 4, 71, 53
11, 62319, Note_off_c, 4, 71, 64
11, 62380, Note_on_c, 4, 73, 82
11, 62482, Note_off_c, 4, 73, 64
11, 62486, Note_on_c, 4, 74, 58
11, 62608, Note_on_c, 4, 76, 56
11, 62616, Note_off_c, 4, 74, 64
11, 62714, Note_off_c, 4, 76, 64
11, 62722, Note_on_c, 4, 79, 70
11, 62820, Note_off_c, 4, 79, 64
11, 62845, Note_on_c, 4, 78, 46
11, 62943, Note_off_c, 4, 78, 64
11, 62944, Note_on_c, 4, 76, 53
11, 63056, Note_off_c, 4, 76, 64
11, 63079, Note_on_c, 4, 74, 51
11, 63175, Note_off_c, 4, 74, 64
11, 63202, Note_on_c, 4, 73, 57
11, 63280, Note_off_c, 4, 73, 64
11, 63325, Note_on_c, 4, 74, 80
11, 63461, Note_on_c, 4, 73, 54
11, 63482, Note_off_c, 4, 74, 64
11, 63572, Note_off_c, 4, 73, 64
11, 63586, Note_on_c, 4, 71, 60
11, 63693, Note_off_c, 4, 71, 64
11, 63701, Note_on_c, 4, 73, 48
11, 63815, Note_off_c, 4, 73, 64
11, 63826, Note_on_c, 4, 74, 57
11, 63929, Note_off_c, 4, 74, 64
11, 63939, Note_on_c, 4, 76, 55
11, 64050, Note_off_c, 4, 76, 64
11, 64056, Note_on_c, 4, 78, 48
11, 64154, Note_off_c, 4, 78, 64
11, 64171, Note_on_c, 4, 74, 57
11, 64240, Note_off_c, 4, 74, 64
11, 64300, Note_on_c, 4, 76, 89
11, 64409, Note_on_c, 4, 78, 60
11, 64440, Note_off_c, 4, 76, 64
11, 64538, Note_on_c, 4, 79, 61
11, 64540, Note_off_c, 4, 78, 64
11, 64648, Note_off_c, 4, 79, 64
11, 64651, Note_on_c, 4, 83, 59
11, 64767, Note_off_c, 4, 83, 64
11, 64772, Note_on_c, 4, 81, 66
11, 64857, Note_off_c, 4, 81, 64
11, 64889, Note_on_c, 4, 79, 53
11, 64985, Note_off_c, 4, 79, 64
11, 64991, Note_on_c, 4, 78, 33
11, 65091, Note_off_c, 4, 78, 64
11, 65115, Note_on_c, 4, 76, 60
11, 65186, Note_off_c, 4, 76, 64
11, 65243, Note_on_c, 4, 78, 85
11, 65358, Note_on_c, 4, 76, 68
11, 65391, Note_off_c, 4, 78, 64
11, 65462, Note_off_c, 4, 76, 64
11, 65487, Note_on_c, 4, 74, 57
11, 65598, Note_on_c, 4, 76, 58
11, 65600, Note_off_c, 4, 74, 64
11, 65690, Note_off_c, 4, 76, 64
11, 65721, Note_on_c, 4, 78, 57
11, 65830, Note_off_c, 4, 78, 64
11, 65844, Note_on_c, 4, 79, 64
11, 65926, Note_off_c, 4, 79, 64
11, 65963, Note_on_c, 4, 81, 70
11, 66057, Note_off_c, 4, 81, 64
11, 66066, Note_on_c, 4, 78, 51
11, 66145, Note_off_c, 4, 78, 64
11, 66205, Note_on_c, 4, 75, 87
11, 66301, Note_on_c, 4, 76, 76
11, 66312, Note_off_c, 4, 75, 64
11, 66424, Note_on_c, 4, 78, 58
11, 66433, Note_off_c, 4, 76, 64
11, 66531, Note_off_c, 4, 78, 64
11, 66552, Note_on_c, 4, 84, 60
11, 66673, Note_off_c, 4, 84, 64
11, 66677, Note_on_c, 4, 83, 60
11, 66781, Note_off_c, 4, 83, 64
11, 66790, Note_on_c, 4, 81, 52
11, 66900, Note_off_c, 4, 81, 64
11, 66917, Note_on_c, 4, 79, 58
11, 66998, Note_off_c, 4, 79, 64
11, 67038, Note_on_c, 4, 78, 48
11, 67124, Note_off_c, 4, 78, 64
11, 67174, Note_on_c, 4, 79, 78
11, 67293, Note_on_c, 4, 78, 53
11, 67297, Note_off_c, 4, 79, 64
11, 67401, Note_off_c, 4, 78, 64
11, 67412, Note_on_c, 4, 76, 58
11, 67510, Note_off_c, 4, 76, 64
11, 67539, Note_on_c, 4, 79, 60
11, 67631, Note_off_c, 4, 79, 64
11, 67650, Note_on_c, 4, 78, 46
11, 67760, Note_off_c, 4, 78, 64
11, 67768, Note_on_c, 4, 76, 47
11, 67869, Note_off_c, 4, 76, 64
11, 67898, Note_on_c, 4, 74, 34
11, 68009, Note_off_c, 4, 74, 64
11, 68009, Note_on_c, 4, 73, 56
11, 68109, Note_off_c, 4, 73, 64
11, 68148, Note_on_c, 4, 74, 66
11, 68271, Note_on_c, 4, 76, 72
11, 68280, Note_off_c, 4, 74, 64
11, 68388, Note_on_c, 4, 78, 55
11, 68390, Note_off_c, 4, 76, 64
11, 68474, Note_off_c, 4, 78, 64
11, 68488, Note_on_c, 4, 71, 63
11, 68601, Note_off_c, 4, 71, 64
11, 68632, Note_on_c, 4, 74, 59
11, 68749, Note_off_c, 4, 74, 64
11, 68754, Note_on_c, 4, 73, 57
11, 68827, Note_off_c, 4, 73, 64
11, 68872, Note_on_c, 4, 71, 66
11, 68969, Note_on_c, 4, 70, 74
11, 68982, Note_off_c, 4, 71, 64
11, 69054, Note_off_c, 4, 70, 64
11, 69108, Note_on_c, 4, 71, 68
11, 69553, Note_off_c, 4, 71, 64
11, 85170, Note_on_c, 4, 69, 82
11, 85255, Note_off_c, 4, 69, 64
11, 85428, Note_on_c, 4, 74, 78
11, 85952, Note_off_c, 4, 74, 64
11, 86006, Note_on_c, 4, 76, 80
11, 86086, Note_off_c, 4, 76, 64
11, 86120, Note_on_c, 4, 78, 68
11, 86196, Note_off_c, 4, 78, 64
11, 86234, Note_on_c, 4, 79, 82
11, 86307, Note_off_c, 4, 79, 64
11, 86361, Note_on_c, 4, 81, 93
11, 86480, Note_on_c, 4, 79, 72
11, 86488, Note_off_c, 4, 81, 64
11, 86570, Note_off_c, 4, 79, 64
11, 86597, Note_on_c, 4, 78, 42
11, 86690, Note_off_c, 4, 78, 64
11, 86719, Note_on_c, 4, 76, 55
11, 86787, Note_off_c, 4, 76, 64
11, 86854, Note_on_c, 4, 74, 72
11, 86954, Note_off_c, 4, 74, 64
11, 87104, Note_on_c, 4, 72, 63
11, 87188, Note_off_c, 4, 72, 64
11, 87352, Note_on_c, 4, 71, 68
11, 87448, Note_off_c, 4, 71, 64
11, 87590, Note_on_c, 4, 76, 74
11, 87680, Note_off_c, 4, 76, 64
11, 87837, Note_on_c, 4, 75, 66
11, 87933, Note_off_c, 4, 75, 64
11, 88057, Note_on_c, 4, 81, 82
11, 88137, Note_off_c, 4, 81, 64
11, 88292, Note_on_c, 4, 81, 78
11, 88348, Note_on_c, 4, 79, 80
11, 88367, Note_off_c, 4, 81, 64
11, 88413, Note_on_c, 4, 81, 64
11, 88419, Note_off_c, 4, 79, 64
11, 88462, Note_on_c, 4, 79, 82
11, 88471, Note_off_c, 4, 81, 64
11, 88528, Note_on_c, 4, 78, 66
11, 88542, Note_off_c, 4, 79, 64
11, 88623, Note_off_c, 4, 78, 64
11, 88639, Note_on_c, 4, 79, 89
11, 88688, Note_off_c, 4, 79, 64
11, 88761, Note_on_c, 4, 76, 76
11, 88850, Note_off_c, 4, 76, 64
11, 88866, Note_on_c, 4, 71, 57
11, 88939, Note_off_c, 4, 71, 64
11, 88993, Note_on_c, 4, 76, 63
11, 89072, Note_off_c, 4, 76, 64
11, 89108, Note_on_c, 4, 78, 60
11, 89185, Note_off_c, 4, 78, 64
11, 89250, Note_on_c, 4, 79, 85
11, 89358, Note_off_c, 4, 79, 64
11, 89360, Note_on_c, 4, 81, 66
11, 89437, Note_off_c, 4, 81, 64
11, 89475, Note_on_c, 4, 78, 70
11, 89565, Note_off_c, 4, 78, 64
11, 89592, Note_on_c, 4, 79, 66
11, 89654, Note_off_c, 4, 79, 64
11, 89727, Note_on_c, 4, 76, 70
11, 89825, Note_off_c, 4, 76, 64
11, 89830, Note_on_c, 4, 78, 54
11, 89890, Note_off_c, 4, 78, 64
11, 89965, Note_on_c, 4, 74, 78
11, 90074, Note_on_c, 4, 76, 66
11, 90076, Note_off_c, 4, 74, 64
11, 90143, Note_off_c, 4, 76, 64
11, 90210, Note_on_c, 4, 73, 76
11, 90324, Note_off_c, 4, 73, 64
11, 90454, Note_on_c, 4, 82, 72
11, 90531, Note_off_c, 4, 82, 64
11, 90702, Note_on_c, 4, 83, 87
11, 90771, Note_off_c, 4, 83, 64
11, 90946, Note_on_c, 4, 74, 85
11, 91326, Note_off_c, 4, 74, 64
11, 91420, Note_on_c, 4, 73, 63
11, 91489, Note_off_c, 4, 73, 64
11, 91524, Note_on_c, 4, 74, 78
11, 91599, Note_off_c, 4, 74, 64
11, 91664, Note_on_c, 4, 76, 98
11, 91775, Note_off_c, 4, 76, 64
11, 91775, Note_on_c, 4, 74, 78
11, 91854, Note_off_c, 4, 74, 64
11, 91888, Note_on_c, 4, 73, 55
11, 91979, Note_off_c, 4, 73, 64
11, 91994, Note_on_c, 4, 71, 56
11, 92086, Note_off_c, 4, 71, 64
11, 92138, Note_on_c, 4, 70, 80
11, 92238, Note_off_c, 4, 70, 64
11, 92244, Note_on_c, 4, 71, 58
11, 92345, Note_off_c, 4, 71, 64
11, 92373, Note_on_c, 4, 73, 57
11, 92443, Note_off_c, 4, 73, 64
11, 92484, Note_on_c, 4, 70, 56
11, 92545, Note_off_c, 4, 70, 64
11, 92618, Note_on_c, 4, 66, 89
11, 92728, Note_on_c, 4, 68, 74
11, 92737, Note_off_c, 4, 66, 64
11, 92824, Note_off_c, 4, 68, 64
11, 92854, Note_on_c, 4, 70, 58
11, 92918, Note_off_c, 4, 70, 64
11, 92966, Note_on_c, 4, 66, 63
11, 93031, Note_off_c, 4, 66, 64
11, 93098, Note_on_c, 4, 71, 68
11, 93604, Note_off_c, 4, 71, 64
11, 93661, Note_on_c, 4, 66, 60
11, 93757, Note_off_c, 4, 66, 64
11, 93774, Note_on_c, 4, 64, 78
11, 93864, Note_off_c, 4, 64, 64
11, 93885, Note_on_c, 4, 66, 56
11, 93972, Note_off_c, 4, 66, 64
11, 94039, Note_on_c, 4, 74, 85
11, 94552, Note_off_c, 4, 74, 64
11, 94626, Note_on_c, 4, 71, 70
11, 94719, Note_off_c, 4, 71, 64
11, 94740, Note_on_c, 4, 70, 62
11, 94815, Note_off_c, 4, 70, 64
11, 94849, Note_on_c, 4, 71, 85
11, 94928, Note_off_c, 4, 71, 64
11, 94999, Note_on_c, 4, 77, 89
11, 95521, Note_off_c, 4, 77, 64
11, 95613, Note_on_c, 4, 71, 68
11, 95723, Note_off_c, 4, 71, 64
11, 95727, Note_on_c, 4, 70, 60
11, 95788, Note_off_c, 4, 70, 64
11, 95834, Note_on_c, 4, 71, 66
11, 95917, Note_off_c, 4, 71, 64
11, 95978, Note_on_c, 4, 80, 80
11, 96478, Note_off_c, 4, 80, 64
11, 96566, Note_on_c, 4, 82, 64
11, 96652, Note_off_c, 4, 82, 64
11, 96685, Note_on_c, 4, 83, 87
11, 96765, Note_off_c, 4, 83, 64
11, 96800, Note_on_c, 4, 80, 63
11, 96867, Note_off_c, 4, 80, 64
11, 96925, Note_on_c, 4, 82, 82
11, 97026, Note_off_c, 4, 82, 64
11, 97036, Note_on_c, 4, 78, 61
11, 97113, Note_off_c, 4, 78, 64
11, 97168, Note_on_c, 4, 83, 85
11, 97284, Note_on_c, 4, 81, 76
11, 97293, Note_off_c, 4, 83, 64
11, 97362, Note_off_c, 4, 81, 64
11, 97405, Note_on_c, 4, 79, 66
11, 97472, Note_off_c, 4, 79, 64
11, 97512, Note_on_c, 4, 78, 63
11, 97589, Note_off_c, 4, 78, 64
11, 97643, Note_on_c, 4, 76, 61
11, 97921, Note_off_c, 4, 76, 64
11, 98008, Note_on_c, 4, 74, 82
11, 98111, Note_off_c, 4, 74, 64
11, 98119, Note_on_c, 4, 73, 60
11, 98205, Note_off_c, 4, 73, 64
11, 98232, Note_on_c, 4, 71, 64
11, 98301, Note_off_c, 4, 71, 64
11, 98370, Note_on_c, 4, 73, 89
11, 98484, Note_on_c, 4, 74, 78
11, 98501, Note_off_c, 4, 73, 64
11, 98591, Note_off_c, 4, 74, 64
11, 98599, Note_on_c, 4, 76, 66
11, 98672, Note_off_c, 4, 76, 64
11, 98714, Note_on_c, 4, 70, 57
11, 98776, Note_off_c, 4, 70, 64
11, 98847, Note_on_c, 4, 71, 82
11, 98969, Note_off_c, 4, 71, 64
11, 99098, Note_on_c, 4, 79, 85
11, 99204, Note_on_c, 4, 78, 68
11, 99206, Note_off_c, 4, 79, 64
11, 99265, Note_off_c, 4, 78, 64
11, 99333, Note_on_c, 4, 76, 80
11, 99436, Note_on_c, 4, 74, 68
11, 99455, Note_off_c, 4, 76, 64
11, 99499, Note_off_c, 4, 74, 64
11, 99565, Note_on_c, 4, 73, 85
11, 99664, Note_on_c, 4, 71, 70
11, 99672, Note_off_c, 4, 73, 64
11, 99732, Note_off_c, 4, 71, 64
11, 99807, Note_on_c, 4, 71, 72
11, 100344, Note_off_c, 4, 71, 64
11, 100525, Note_on_c, 4, 69, 78
11, 100621, Note_off_c, 4, 69, 64
11, 100790, Note_on_c, 4, 74, 82
11, 101327, Note_off_c, 4, 74, 64
11, 101383, Note_on_c, 4, 76, 76
11, 101464, Note_off_c, 4, 76, 64
11, 101492, Note_on_c, 4, 78, 74
11, 101569, Note_off_c, 4, 78, 64
11, 101604, Note_on_c, 4, 79, 82
11, 101677, Note_off_c, 4, 79, 64
11, 101732, Note_on_c, 4, 81, 102
11, 101848, Note_on_c, 4, 79, 76
11, 101855, Note_off_c, 4, 81, 64
11, 101932, Note_off_c, 4, 79, 64
11, 101965, Note_on_c, 4, 78, 52
11, 102059, Note_off_c, 4, 78, 64
11, 102076, Note_on_c, 4, 76, 60
11, 102159, Note_off_c, 4, 76, 64
11, 102210, Note_on_c, 4, 74, 64
11, 102320, Note_off_c, 4, 74, 64
11, 102448, Note_on_c, 4, 72, 63
11, 102537, Note_off_c, 4, 72, 64
11, 102701, Note_on_c, 4, 71, 72
11, 102794, Note_off_c, 4, 71, 64
11, 102950, Note_on_c, 4, 76, 72
11, 103030, Note_off_c, 4, 76, 64
11, 103188, Note_on_c, 4, 75, 72
11, 103270, Note_off_c, 4, 75, 64
11, 103430, Note_on_c, 4, 81, 76
11, 103511, Note_off_c, 4, 81, 64
11, 103662, Note_on_c, 4, 81, 78
11, 103718, Note_on_c, 4, 79, 70
11, 103731, Note_off_c, 4, 81, 64
11, 103783, Note_on_c, 4, 81, 66
11, 103796, Note_off_c, 4, 79, 64
11, 103835, Note_on_c, 4, 79, 68
11, 103840, Note_off_c, 4, 81, 64
11, 103892, Note_on_c, 4, 78, 62
11, 103913, Note_off_c, 4, 79, 64
11, 103977, Note_off_c, 4, 78, 64
11, 104000, Note_on_c, 4, 79, 87
11, 104054, Note_off_c, 4, 79, 64
11, 104134, Note_on_c, 4, 76, 68
11, 104215, Note_off_c, 4, 76, 64
11, 104242, Note_on_c, 4, 71, 63
11, 104317, Note_off_c, 4, 71, 64
11, 104372, Note_on_c, 4, 76, 70
11, 104445, Note_off_c, 4, 76, 64
11, 104488, Note_on_c, 4, 78, 66
11, 104559, Note_off_c, 4, 78, 64
11, 104620, Note_on_c, 4, 79, 91
11, 104726, Note_off_c, 4, 79, 64
11, 104726, Note_on_c, 4, 81, 63
11, 104799, Note_off_c, 4, 81, 64
11, 104847, Note_on_c, 4, 78, 68
11, 104925, Note_off_c, 4, 78, 64
11, 104958, Note_on_c, 4, 79, 72
11, 105016, Note_off_c, 4, 79, 64
11, 105088, Note_on_c, 4, 76, 76
11, 105173, Note_off_c, 4, 76, 64
11, 105202, Note_on_c, 4, 78, 53
11, 105259, Note_off_c, 4, 78, 64
11, 105325, Note_on_c, 4, 74, 85
11, 105430, Note_on_c, 4, 76, 66
11, 105432, Note_off_c, 4, 74, 64
11, 105499, Note_off_c, 4, 76, 64
11, 105570, Note_on_c, 4, 73, 89
11, 105668, Note_off_c, 4, 73, 64
11, 105811, Note_on_c, 4, 82, 68
11, 105887, Note_off_c, 4, 82, 64
11, 106062, Note_on_c, 4, 83, 87
11, 106137, Note_off_c, 4, 83, 64
11, 106308, Note_on_c, 4, 74, 82
11, 106657, Note_off_c, 4, 74, 64
11, 106770, Note_on_c, 4, 73, 57
11, 106845, Note_off_c, 4, 73, 64
11, 106878, Note_on_c, 4, 74, 78
11, 106949, Note_off_c, 4, 74, 64
11, 107016, Note_on_c, 4, 76, 89
11, 107121, Note_off_c, 4, 76, 64
11, 107135, Note_on_c, 4, 74, 70
11, 107210, Note_off_c, 4, 74, 64
11, 107252, Note_on_c, 4, 73, 56
11, 107346, Note_off_c, 4, 73, 64
11, 107360, Note_on_c, 4, 71, 60
11, 107433, Note_off_c, 4, 71, 64
11, 107493, Note_on_c, 4, 70, 91
11, 107602, Note_off_c, 4, 70, 64
11, 107602, Note_on_c, 4, 71, 70
11, 107707, Note_off_c, 4, 71, 64
11, 107729, Note_on_c, 4, 73, 53
11, 107788, Note_off_c, 4, 73, 64
11, 107842, Note_on_c, 4, 70, 63
11, 107899, Note_off_c, 4, 70, 64
11, 107972, Note_on_c, 4, 66, 98
11, 108084, Note_on_c, 4, 68, 70
11, 108086, Note_off_c, 4, 66, 64
11, 108174, Note_off_c, 4, 68, 64
11, 108200, Note_on_c, 4, 70, 66
11, 108266, Note_off_c, 4, 70, 64
11, 108328, Note_on_c, 4, 66, 62
11, 108389, Note_off_c, 4, 66, 64
11, 108460, Note_on_c, 4, 71, 78
11, 108971, Note_off_c, 4, 71, 64
11, 109024, Note_on_c, 4, 66, 62
11, 109119, Note_off_c, 4, 66, 64
11, 109130, Note_on_c, 4, 64, 78
11, 109213, Note_off_c, 4, 64, 64
11, 109249, Note_on_c, 4, 66, 74
11, 109318, Note_off_c, 4, 66, 64
11, 109395, Note_on_c, 4, 74, 91
11, 109936, Note_off_c, 4, 74, 64
11, 110002, Note_on_c, 4, 71, 76
11, 110100, Note_off_c, 4, 71, 64
11, 110113, Note_on_c, 4, 70, 61
11, 110191, Note_off_c, 4, 70, 64
11, 110221, Note_on_c, 4, 71, 76
11, 110290, Note_off_c, 4, 71, 64
11, 110359, Note_on_c, 4, 77, 93
11, 110895, Note_off_c, 4, 77, 64
11, 110966, Note_on_c, 4, 71, 72
11, 111069, Note_on_c, 4, 70, 64
11, 111085, Note_off_c, 4, 71, 64
11, 111148, Note_off_c, 4, 70, 64
11, 111196, Note_on_c, 4, 71, 64
11, 111269, Note_off_c, 4, 71, 64
11, 111327, Note_on_c, 4, 80, 80
11, 111855, Note_off_c, 4, 80, 64
11, 111918, Note_on_c, 4, 82, 68
11, 111997, Note_off_c, 4, 82, 64
11, 112033, Note_on_c, 4, 83, 87
11, 112114, Note_off_c, 4, 83, 64
11, 112154, Note_on_c, 4, 80, 61
11, 112216, Note_off_c, 4, 80, 64
11, 112283, Note_on_c, 4, 82, 85
11, 112379, Note_off_c, 4, 82, 64
11, 112398, Note_on_c, 4, 78, 63
11, 112486, Note_off_c, 4, 78, 64
11, 112534, Note_on_c, 4, 83, 87
11, 112651, Note_on_c, 4, 81, 76
11, 112659, Note_off_c, 4, 83, 64
11, 112722, Note_off_c, 4, 81, 64
11, 112774, Note_on_c, 4, 79, 63
11, 112847, Note_off_c, 4, 79, 64
11, 112888, Note_on_c, 4, 78, 54
11, 112960, Note_off_c, 4, 78, 64
11, 113016, Note_on_c, 4, 76, 76
11, 113285, Note_off_c, 4, 76, 64
11, 113379, Note_on_c, 4, 74, 85
11, 113477, Note_off_c, 4, 74, 64
11, 113490, Note_on_c, 4, 73, 63
11, 113575, Note_off_c, 4, 73, 64
11, 113592, Note_on_c, 4, 71, 66
11, 113657, Note_off_c, 4, 71, 64
11, 113727, Note_on_c, 4, 73, 87
11, 113838, Note_on_c, 4, 74, 78
11, 113848, Note_off_c, 4, 73, 64
11, 113930, Note_off_c, 4, 74, 64
11, 113959, Note_on_c, 4, 76, 82
11, 114036, Note_off_c, 4, 76, 64
11, 114072, Note_on_c, 4, 70, 68
11, 114145, Note_off_c, 4, 70, 64
11, 114203, Note_on_c, 4, 71, 57
11, 114316, Note_off_c, 4, 71, 64
11, 114459, Note_on_c, 4, 79, 85
11, 114562, Note_off_c, 4, 79, 64
11, 114564, Note_on_c, 4, 78, 63
11, 114627, Note_off_c, 4, 78, 64
11, 114691, Note_on_c, 4, 76, 82
11, 114796, Note_on_c, 4, 74, 66
11, 114798, Note_off_c, 4, 76, 64
11, 114854, Note_off_c, 4, 74, 64
11, 114928, Note_on_c, 4, 73, 89
11, 115021, Note_off_c, 4, 73, 64
11, 115030, Note_on_c, 4, 71, 70
11, 115096, Note_off_c, 4, 71, 64
11, 115174, Note_on_c, 4, 71, 76
11, 115673, Note_off_c, 4, 71, 64
11, 115673, End_track
0, 0, End_of_file
