0, 0, Header, 1, 25, 120
1, 0, Start_track
1, 0, Time_signature, 3, 3, 12, 8
1, 0, Key_signature, -1, "major"
1, 0, Tempo, 1000000
1, 0, Marker_t, "Coro: Falt mit Danken, falt mit Loben"
1, 43380, Time_signature, 4, 2, 24, 8
1, 43380, Marker_t, "Recit: Evangelist"
1, 46740, Tempo, 1000000
1, 46740, Marker_t, "Recit: Bass & Soprano"
1, 60180, Time_signature, 6, 3, 12, 8
1, 60180, Key_signature, 0, "major"
1, 60180, Tempo, 750000
1, 60180, Marker_t, "Aria Soprano: Flösst, mein heiland"
1, 109460, Tempo, 750000
1, 109466, Tempo, 759494
1, 109476, Tempo, 769231
1, 109480, Tempo, 779221
1, 109488, Tempo, 789474
1, 109490, Tempo, 800000
1, 109498, Tempo, 810811
1, 109502, Tempo, 821918
1, 109510, Tempo, 845070
1, 109526, Tempo, 857143
1, 109530, Tempo, 869565
1, 109542, Tempo, 882353
1, 109544, Tempo, 895522
1, 109550, Tempo, 909091
1, 109554, Tempo, 923077
1, 109558, Tempo, 937500
1, 109560, Tempo, 952381
1, 109566, Tempo, 967742
1, 109570, Tempo, 983607
1, 109574, Tempo, 1000000
1, 109576, Tempo, 1016949
1, 109584, Tempo, 1034483
1, 109590, Tempo, 1052632
1, 109594, Tempo, 1071429
1, 109598, Tempo, 1090909
1, 109602, Tempo, 1111111
1, 109608, Tempo, 1132075
1, 109612, Tempo, 1153846
1, 109614, Tempo, 1176471
1, 109624, Tempo, 1200000
1, 109630, Tempo, 1224490
1, 109640, Tempo, 1250000
1, 109860, Time_signature, 1, 2, 24, 8
1, 109980, Time_signature, 4, 2, 24, 8
1, 109980, Key_signature, -1, "major"
1, 109980, Marker_t, "Recit: Bass & Soprano"
1, 110458, Tempo, 983607
1, 112382, Tempo, 1276596
1, 112860, Tempo, 983607
1, 113820, Tempo, 1304348
1, 114302, Tempo, 952381
1, 115260, Tempo, 1224490
1, 115738, Tempo, 923077
1, 118620, Tempo, 600000
1, 118620, Marker_t, "Aria Tenore: Ich will nur dir zu Ehrenleben"
1, 151740, Tempo, 983607
1, 152220, Tempo, 600000
1, 174300, Time_signature, 3, 2, 24, 8
1, 174300, Tempo, 750000
1, 174300, Marker_t, "Choral: Jesus richte mein Beginnen"
1, 174300, End_track
2, 0, Start_track
2, 0, MIDI_port, 0
2, 0, Title_t, "Corno I"
2, 0, Control_c, 0, 0, 30
2, 0, Program_c, 0, 60
2, 0, Control_c, 0, 7, 127
2, 0, Control_c, 0, 10, 45
2, 0, Note_on_c, 0, 69, 90
2, 0, Control_c, 0, 91, 102
2, 119, Note_on_c, 0, 69, 0
2, 120, Note_on_c, 0, 70, 90
2, 179, Note_on_c, 0, 70, 0
2, 180, Note_on_c, 0, 67, 90
2, 195, Note_on_c, 0, 67, 0
2, 195, Note_on_c, 0, 69, 90
2, 210, Note_on_c, 0, 69, 0
2, 210, Note_on_c, 0, 67, 90
2, 220, Note_on_c, 0, 67, 0
2, 220, Note_on_c, 0, 69, 90
2, 230, Note_on_c, 0, 69, 0
2, 230, Note_on_c, 0, 67, 90
2, 240, Note_on_c, 0, 67, 0
2, 240, Note_on_c, 0, 69, 90
2, 250, Note_on_c, 0, 69, 0
2, 250, Note_on_c, 0, 67, 90
2, 260, Note_on_c, 0, 67, 0
2, 260, Note_on_c, 0, 69, 90
2, 270, Note_on_c, 0, 69, 0
2, 270, Note_on_c, 0, 67, 90
2, 280, Note_on_c, 0, 67, 0
2, 280, Note_on_c, 0, 69, 90
2, 290, Note_on_c, 0, 69, 0
2, 290, Note_on_c, 0, 67, 90
2, 300, Note_on_c, 0, 67, 0
2, 300, Note_on_c, 0, 65, 90
2, 359, Note_on_c, 0, 65, 0
2, 360, Note_on_c, 0, 69, 90
2, 419, Note_on_c, 0, 69, 0
2, 420, Note_on_c, 0, 70, 90
2, 479, Note_on_c, 0, 70, 0
2, 480, Note_on_c, 0, 72, 90
2, 539, Note_on_c, 0, 72, 0
2, 540, Note_on_c, 0, 74, 90
2, 569, Note_on_c, 0, 74, 0
2, 600, Note_on_c, 0, 72, 90
2, 629, Note_on_c, 0, 72, 0
2, 720, Note_on_c, 0, 74, 90
2, 749, Note_on_c, 0, 74, 0
2, 750, Note_on_c, 0, 76, 90
2, 779, Note_on_c, 0, 76, 0
2, 780, Note_on_c, 0, 77, 90
2, 794, Note_on_c, 0, 77, 0
2, 795, Note_on_c, 0, 76, 90
2, 809, Note_on_c, 0, 76, 0
2, 810, Note_on_c, 0, 77, 90
2, 820, Note_on_c, 0, 77, 0
2, 820, Note_on_c, 0, 76, 90
2, 830, Note_on_c, 0, 76, 0
2, 830, Note_on_c, 0, 77, 90
2, 840, Note_on_c, 0, 77, 0
2, 840, Note_on_c, 0, 76, 90
2, 850, Note_on_c, 0, 76, 0
2, 850, Note_on_c, 0, 77, 90
2, 860, Note_on_c, 0, 77, 0
2, 860, Note_on_c, 0, 76, 90
2, 870, Note_on_c, 0, 76, 0
2, 870, Note_on_c, 0, 74, 90
2, 884, Note_on_c, 0, 74, 0
2, 885, Note_on_c, 0, 76, 90
2, 899, Note_on_c, 0, 76, 0
2, 900, Note_on_c, 0, 77, 90
2, 959, Note_on_c, 0, 77, 0
2, 960, Note_on_c, 0, 76, 90
2, 989, Note_on_c, 0, 76, 0
2, 990, Note_on_c, 0, 74, 90
2, 1019, Note_on_c, 0, 74, 0
2, 1020, Note_on_c, 0, 72, 90
2, 1049, Note_on_c, 0, 72, 0
2, 1050, Note_on_c, 0, 70, 90
2, 1079, Note_on_c, 0, 70, 0
2, 1080, Note_on_c, 0, 69, 90
2, 1139, Note_on_c, 0, 69, 0
2, 1140, Note_on_c, 0, 74, 90
2, 1199, Note_on_c, 0, 74, 0
2, 1200, Note_on_c, 0, 72, 90
2, 1229, Note_on_c, 0, 72, 0
2, 1230, Note_on_c, 0, 70, 90
2, 1259, Note_on_c, 0, 70, 0
2, 1260, Note_on_c, 0, 69, 90
2, 1319, Note_on_c, 0, 69, 0
2, 1320, Note_on_c, 0, 67, 90
2, 1439, Note_on_c, 0, 67, 0
2, 1440, Note_on_c, 0, 76, 90
2, 1559, Note_on_c, 0, 76, 0
2, 1560, Note_on_c, 0, 77, 90
2, 1619, Note_on_c, 0, 77, 0
2, 1620, Note_on_c, 0, 70, 90
2, 1635, Note_on_c, 0, 70, 0
2, 1635, Note_on_c, 0, 72, 90
2, 1650, Note_on_c, 0, 72, 0
2, 1650, Note_on_c, 0, 70, 90
2, 1660, Note_on_c, 0, 70, 0
2, 1660, Note_on_c, 0, 72, 90
2, 1670, Note_on_c, 0, 72, 0
2, 1670, Note_on_c, 0, 70, 90
2, 1680, Note_on_c, 0, 70, 0
2, 1680, Note_on_c, 0, 72, 90
2, 1690, Note_on_c, 0, 72, 0
2, 1690, Note_on_c, 0, 70, 90
2, 1700, Note_on_c, 0, 70, 0
2, 1700, Note_on_c, 0, 72, 90
2, 1710, Note_on_c, 0, 72, 0
2, 1710, Note_on_c, 0, 70, 90
2, 1720, Note_on_c, 0, 70, 0
2, 1720, Note_on_c, 0, 72, 90
2, 1730, Note_on_c, 0, 72, 0
2, 1730, Note_on_c, 0, 70, 90
2, 1740, Note_on_c, 0, 70, 0
2, 1740, Note_on_c, 0, 69, 90
2, 1799, Note_on_c, 0, 69, 0
2, 1800, Note_on_c, 0, 67, 90
2, 1859, Note_on_c, 0, 67, 0
2, 1860, Note_on_c, 0, 69, 90
2, 1919, Note_on_c, 0, 69, 0
2, 1920, Note_on_c, 0, 70, 90
2, 1979, Note_on_c, 0, 70, 0
2, 1980, Note_on_c, 0, 72, 90
2, 2009, Note_on_c, 0, 72, 0
2, 2010, Note_on_c, 0, 70, 90
2, 2039, Note_on_c, 0, 70, 0
2, 2040, Note_on_c, 0, 72, 90
2, 2069, Note_on_c, 0, 72, 0
2, 2070, Note_on_c, 0, 70, 90
2, 2099, Note_on_c, 0, 70, 0
2, 2100, Note_on_c, 0, 69, 90
2, 2159, Note_on_c, 0, 69, 0
2, 2160, Note_on_c, 0, 53, 90
2, 2219, Note_on_c, 0, 53, 0
2, 2220, Note_on_c, 0, 53, 90
2, 2279, Note_on_c, 0, 53, 0
2, 2280, Note_on_c, 0, 53, 90
2, 2339, Note_on_c, 0, 53, 0
2, 2340, Note_on_c, 0, 53, 90
2, 2399, Note_on_c, 0, 53, 0
2, 2400, Note_on_c, 0, 53, 90
2, 2459, Note_on_c, 0, 53, 0
2, 2460, Note_on_c, 0, 53, 90
2, 2519, Note_on_c, 0, 53, 0
2, 2520, Note_on_c, 0, 69, 90
2, 2579, Note_on_c, 0, 69, 0
2, 2580, Note_on_c, 0, 70, 90
2, 2639, Note_on_c, 0, 70, 0
2, 2640, Note_on_c, 0, 72, 90
2, 2699, Note_on_c, 0, 72, 0
2, 2700, Note_on_c, 0, 74, 90
2, 2729, Note_on_c, 0, 74, 0
2, 2730, Note_on_c, 0, 72, 90
2, 2759, Note_on_c, 0, 72, 0
2, 2760, Note_on_c, 0, 74, 90
2, 2789, Note_on_c, 0, 74, 0
2, 2790, Note_on_c, 0, 72, 90
2, 2819, Note_on_c, 0, 72, 0
2, 2820, Note_on_c, 0, 70, 90
2, 2879, Note_on_c, 0, 70, 0
2, 2940, Note_on_c, 0, 70, 90
2, 2969, Note_on_c, 0, 70, 0
2, 2970, Note_on_c, 0, 72, 90
2, 2999, Note_on_c, 0, 72, 0
2, 3000, Note_on_c, 0, 70, 90
2, 3029, Note_on_c, 0, 70, 0
2, 3030, Note_on_c, 0, 72, 90
2, 3059, Note_on_c, 0, 72, 0
2, 3060, Note_on_c, 0, 70, 90
2, 3075, Note_on_c, 0, 70, 0
2, 3075, Note_on_c, 0, 72, 90
2, 3090, Note_on_c, 0, 72, 0
2, 3090, Note_on_c, 0, 70, 90
2, 3100, Note_on_c, 0, 70, 0
2, 3100, Note_on_c, 0, 72, 90
2, 3110, Note_on_c, 0, 72, 0
2, 3110, Note_on_c, 0, 70, 90
2, 3120, Note_on_c, 0, 70, 0
2, 3120, Note_on_c, 0, 72, 90
2, 3130, Note_on_c, 0, 72, 0
2, 3130, Note_on_c, 0, 70, 90
2, 3140, Note_on_c, 0, 70, 0
2, 3140, Note_on_c, 0, 72, 90
2, 3150, Note_on_c, 0, 72, 0
2, 3150, Note_on_c, 0, 70, 90
2, 3160, Note_on_c, 0, 70, 0
2, 3160, Note_on_c, 0, 72, 90
2, 3170, Note_on_c, 0, 72, 0
2, 3170, Note_on_c, 0, 70, 90
2, 3180, Note_on_c, 0, 70, 0
2, 3180, Note_on_c, 0, 72, 90
2, 3190, Note_on_c, 0, 72, 0
2, 3190, Note_on_c, 0, 70, 90
2, 3200, Note_on_c, 0, 70, 0
2, 3200, Note_on_c, 0, 72, 90
2, 3210, Note_on_c, 0, 72, 0
2, 3210, Note_on_c, 0, 70, 90
2, 3240, Note_on_c, 0, 70, 0
2, 3300, Note_on_c, 0, 69, 90
2, 3329, Note_on_c, 0, 69, 0
2, 3330, Note_on_c, 0, 70, 90
2, 3359, Note_on_c, 0, 70, 0
2, 3360, Note_on_c, 0, 69, 90
2, 3389, Note_on_c, 0, 69, 0
2, 3390, Note_on_c, 0, 70, 90
2, 3419, Note_on_c, 0, 70, 0
2, 3420, Note_on_c, 0, 69, 90
2, 3599, Note_on_c, 0, 69, 0
2, 3660, Note_on_c, 0, 67, 90
2, 3689, Note_on_c, 0, 67, 0
2, 3690, Note_on_c, 0, 69, 90
2, 3719, Note_on_c, 0, 69, 0
2, 3720, Note_on_c, 0, 67, 90
2, 3749, Note_on_c, 0, 67, 0
2, 3750, Note_on_c, 0, 69, 90
2, 3779, Note_on_c, 0, 69, 0
2, 3780, Note_on_c, 0, 67, 90
2, 3809, Note_on_c, 0, 67, 0
2, 3810, Note_on_c, 0, 69, 90
2, 3839, Note_on_c, 0, 69, 0
2, 3840, Note_on_c, 0, 65, 90
2, 3869, Note_on_c, 0, 65, 0
2, 3870, Note_on_c, 0, 67, 90
2, 3899, Note_on_c, 0, 67, 0
2, 3900, Note_on_c, 0, 69, 90
2, 3929, Note_on_c, 0, 69, 0
2, 3930, Note_on_c, 0, 70, 90
2, 3959, Note_on_c, 0, 70, 0
2, 3960, Note_on_c, 0, 72, 90
2, 4019, Note_on_c, 0, 72, 0
2, 4020, Note_on_c, 0, 70, 90
2, 4049, Note_on_c, 0, 70, 0
2, 4050, Note_on_c, 0, 69, 90
2, 4079, Note_on_c, 0, 69, 0
2, 4080, Note_on_c, 0, 67, 90
2, 4109, Note_on_c, 0, 67, 0
2, 4110, Note_on_c, 0, 65, 90
2, 4139, Note_on_c, 0, 65, 0
2, 4140, Note_on_c, 0, 65, 90
2, 4319, Note_on_c, 0, 65, 0
2, 4680, Note_on_c, 0, 69, 90
2, 4739, Note_on_c, 0, 69, 0
2, 4740, Note_on_c, 0, 70, 90
2, 4799, Note_on_c, 0, 70, 0
2, 4800, Note_on_c, 0, 72, 90
2, 4859, Note_on_c, 0, 72, 0
2, 4860, Note_on_c, 0, 74, 90
2, 4889, Note_on_c, 0, 74, 0
2, 4920, Note_on_c, 0, 72, 90
2, 4949, Note_on_c, 0, 72, 0
2, 5580, Note_on_c, 0, 74, 90
2, 5639, Note_on_c, 0, 74, 0
2, 5640, Note_on_c, 0, 72, 90
2, 5699, Note_on_c, 0, 72, 0
2, 5700, Note_on_c, 0, 70, 90
2, 5759, Note_on_c, 0, 70, 0
2, 6300, Note_on_c, 0, 70, 90
2, 6359, Note_on_c, 0, 70, 0
2, 6360, Note_on_c, 0, 69, 90
2, 6419, Note_on_c, 0, 69, 0
2, 6420, Note_on_c, 0, 67, 90
2, 6479, Note_on_c, 0, 67, 0
2, 6480, Note_on_c, 0, 53, 90
2, 6539, Note_on_c, 0, 53, 0
2, 6540, Note_on_c, 0, 53, 90
2, 6599, Note_on_c, 0, 53, 0
2, 6600, Note_on_c, 0, 53, 90
2, 6659, Note_on_c, 0, 53, 0
2, 6660, Note_on_c, 0, 53, 90
2, 6719, Note_on_c, 0, 53, 0
2, 6720, Note_on_c, 0, 53, 90
2, 6779, Note_on_c, 0, 53, 0
2, 6780, Note_on_c, 0, 53, 90
2, 6839, Note_on_c, 0, 53, 0
2, 6840, Note_on_c, 0, 53, 90
2, 6899, Note_on_c, 0, 53, 0
2, 6900, Note_on_c, 0, 53, 90
2, 6959, Note_on_c, 0, 53, 0
2, 6960, Note_on_c, 0, 53, 90
2, 7019, Note_on_c, 0, 53, 0
2, 7020, Note_on_c, 0, 53, 90
2, 7049, Note_on_c, 0, 53, 0
2, 7050, Note_on_c, 0, 65, 90
2, 7079, Note_on_c, 0, 65, 0
2, 7080, Note_on_c, 0, 67, 90
2, 7109, Note_on_c, 0, 67, 0
2, 7110, Note_on_c, 0, 69, 90
2, 7139, Note_on_c, 0, 69, 0
2, 7140, Note_on_c, 0, 70, 90
2, 7169, Note_on_c, 0, 70, 0
2, 7170, Note_on_c, 0, 72, 90
2, 7199, Note_on_c, 0, 72, 0
2, 7200, Note_on_c, 0, 74, 90
2, 7229, Note_on_c, 0, 74, 0
2, 7230, Note_on_c, 0, 76, 90
2, 7259, Note_on_c, 0, 76, 0
2, 7260, Note_on_c, 0, 77, 90
2, 7275, Note_on_c, 0, 77, 0
2, 7275, Note_on_c, 0, 76, 90
2, 7290, Note_on_c, 0, 76, 0
2, 7290, Note_on_c, 0, 77, 90
2, 7300, Note_on_c, 0, 77, 0
2, 7300, Note_on_c, 0, 76, 90
2, 7310, Note_on_c, 0, 76, 0
2, 7310, Note_on_c, 0, 77, 90
2, 7320, Note_on_c, 0, 77, 0
2, 7320, Note_on_c, 0, 76, 90
2, 7330, Note_on_c, 0, 76, 0
2, 7330, Note_on_c, 0, 77, 90
2, 7340, Note_on_c, 0, 77, 0
2, 7340, Note_on_c, 0, 76, 90
2, 7350, Note_on_c, 0, 76, 0
2, 7350, Note_on_c, 0, 74, 90
2, 7364, Note_on_c, 0, 74, 0
2, 7365, Note_on_c, 0, 76, 90
2, 7379, Note_on_c, 0, 76, 0
2, 7380, Note_on_c, 0, 77, 90
2, 7439, Note_on_c, 0, 77, 0
2, 7440, Note_on_c, 0, 76, 90
2, 7469, Note_on_c, 0, 76, 0
2, 7470, Note_on_c, 0, 74, 90
2, 7499, Note_on_c, 0, 74, 0
2, 7500, Note_on_c, 0, 72, 90
2, 7529, Note_on_c, 0, 72, 0
2, 7530, Note_on_c, 0, 70, 90
2, 7559, Note_on_c, 0, 70, 0
2, 7560, Note_on_c, 0, 69, 90
2, 7619, Note_on_c, 0, 69, 0
2, 7620, Note_on_c, 0, 74, 90
2, 7679, Note_on_c, 0, 74, 0
2, 7680, Note_on_c, 0, 70, 90
2, 7739, Note_on_c, 0, 70, 0
2, 7740, Note_on_c, 0, 69, 90
2, 7799, Note_on_c, 0, 69, 0
2, 7800, Note_on_c, 0, 67, 90
2, 7919, Note_on_c, 0, 67, 0
2, 7920, Note_on_c, 0, 60, 90
2, 7979, Note_on_c, 0, 60, 0
2, 7980, Note_on_c, 0, 60, 90
2, 8039, Note_on_c, 0, 60, 0
2, 8040, Note_on_c, 0, 60, 90
2, 8099, Note_on_c, 0, 60, 0
2, 8100, Note_on_c, 0, 60, 90
2, 8159, Note_on_c, 0, 60, 0
2, 8160, Note_on_c, 0, 60, 90
2, 8219, Note_on_c, 0, 60, 0
2, 8220, Note_on_c, 0, 60, 90
2, 8279, Note_on_c, 0, 60, 0
2, 8280, Note_on_c, 0, 67, 90
2, 8339, Note_on_c, 0, 67, 0
2, 8340, Note_on_c, 0, 69, 90
2, 8399, Note_on_c, 0, 69, 0
2, 8400, Note_on_c, 0, 70, 90
2, 8459, Note_on_c, 0, 70, 0
2, 8460, Note_on_c, 0, 72, 90
2, 8519, Note_on_c, 0, 72, 0
2, 8520, Note_on_c, 0, 70, 90
2, 8549, Note_on_c, 0, 70, 0
2, 8550, Note_on_c, 0, 72, 90
2, 8579, Note_on_c, 0, 72, 0
2, 8580, Note_on_c, 0, 69, 90
2, 8639, Note_on_c, 0, 69, 0
2, 8640, Note_on_c, 0, 53, 90
2, 8699, Note_on_c, 0, 53, 0
2, 8700, Note_on_c, 0, 53, 90
2, 8759, Note_on_c, 0, 53, 0
2, 8760, Note_on_c, 0, 53, 90
2, 8819, Note_on_c, 0, 53, 0
2, 8820, Note_on_c, 0, 53, 90
2, 8879, Note_on_c, 0, 53, 0
2, 8880, Note_on_c, 0, 53, 90
2, 8939, Note_on_c, 0, 53, 0
2, 8940, Note_on_c, 0, 53, 90
2, 8999, Note_on_c, 0, 53, 0
2, 9000, Note_on_c, 0, 69, 90
2, 9059, Note_on_c, 0, 69, 0
2, 9060, Note_on_c, 0, 70, 90
2, 9119, Note_on_c, 0, 70, 0
2, 9120, Note_on_c, 0, 72, 90
2, 9179, Note_on_c, 0, 72, 0
2, 9180, Note_on_c, 0, 74, 90
2, 9239, Note_on_c, 0, 74, 0
2, 9240, Note_on_c, 0, 72, 90
2, 9269, Note_on_c, 0, 72, 0
2, 9270, Note_on_c, 0, 74, 90
2, 9299, Note_on_c, 0, 74, 0
2, 9300, Note_on_c, 0, 70, 90
2, 9359, Note_on_c, 0, 70, 0
2, 9420, Note_on_c, 0, 74, 90
2, 9449, Note_on_c, 0, 74, 0
2, 9450, Note_on_c, 0, 75, 90
2, 9479, Note_on_c, 0, 75, 0
2, 9480, Note_on_c, 0, 74, 90
2, 9509, Note_on_c, 0, 74, 0
2, 9510, Note_on_c, 0, 75, 90
2, 9539, Note_on_c, 0, 75, 0
2, 9540, Note_on_c, 0, 74, 90
2, 9659, Note_on_c, 0, 74, 0
2, 9780, Note_on_c, 0, 72, 90
2, 9809, Note_on_c, 0, 72, 0
2, 9810, Note_on_c, 0, 74, 90
2, 9839, Note_on_c, 0, 74, 0
2, 9840, Note_on_c, 0, 72, 90
2, 9869, Note_on_c, 0, 72, 0
2, 9870, Note_on_c, 0, 74, 90
2, 9899, Note_on_c, 0, 74, 0
2, 9900, Note_on_c, 0, 72, 90
2, 10019, Note_on_c, 0, 72, 0
2, 10140, Note_on_c, 0, 70, 90
2, 10169, Note_on_c, 0, 70, 0
2, 10170, Note_on_c, 0, 72, 90
2, 10199, Note_on_c, 0, 72, 0
2, 10200, Note_on_c, 0, 70, 90
2, 10229, Note_on_c, 0, 70, 0
2, 10230, Note_on_c, 0, 72, 90
2, 10259, Note_on_c, 0, 72, 0
2, 10260, Note_on_c, 0, 70, 90
2, 10379, Note_on_c, 0, 70, 0
2, 10440, Note_on_c, 0, 69, 90
2, 10499, Note_on_c, 0, 69, 0
2, 10500, Note_on_c, 0, 71, 90
2, 10515, Note_on_c, 0, 71, 0
2, 10515, Note_on_c, 0, 70, 90
2, 10530, Note_on_c, 0, 70, 0
2, 10530, Note_on_c, 0, 71, 90
2, 10545, Note_on_c, 0, 71, 0
2, 10560, Note_on_c, 0, 72, 90
2, 10619, Note_on_c, 0, 72, 0
2, 10620, Note_on_c, 0, 71, 90
2, 10739, Note_on_c, 0, 71, 0
2, 11160, Note_on_c, 0, 70, 90
2, 11219, Note_on_c, 0, 70, 0
2, 11220, Note_on_c, 0, 69, 90
2, 11279, Note_on_c, 0, 69, 0
2, 11280, Note_on_c, 0, 67, 90
2, 11339, Note_on_c, 0, 67, 0
2, 11340, Note_on_c, 0, 65, 90
2, 11369, Note_on_c, 0, 65, 0
2, 11400, Note_on_c, 0, 67, 90
2, 11429, Note_on_c, 0, 67, 0
2, 12060, Note_on_c, 0, 69, 90
2, 12119, Note_on_c, 0, 69, 0
2, 12120, Note_on_c, 0, 67, 90
2, 12179, Note_on_c, 0, 67, 0
2, 12180, Note_on_c, 0, 65, 90
2, 12239, Note_on_c, 0, 65, 0
2, 12780, Note_on_c, 0, 74, 90
2, 12839, Note_on_c, 0, 74, 0
2, 12840, Note_on_c, 0, 72, 90
2, 12899, Note_on_c, 0, 72, 0
2, 12900, Note_on_c, 0, 71, 90
2, 12959, Note_on_c, 0, 71, 0
2, 12960, Note_on_c, 0, 72, 90
2, 13079, Note_on_c, 0, 72, 0
2, 13080, Note_on_c, 0, 74, 90
2, 13139, Note_on_c, 0, 74, 0
2, 13140, Note_on_c, 0, 71, 90
2, 13259, Note_on_c, 0, 71, 0
2, 13260, Note_on_c, 0, 72, 90
2, 13319, Note_on_c, 0, 72, 0
2, 13320, Note_on_c, 0, 60, 90
2, 13379, Note_on_c, 0, 60, 0
2, 13380, Note_on_c, 0, 60, 90
2, 13439, Note_on_c, 0, 60, 0
2, 13440, Note_on_c, 0, 60, 90
2, 13499, Note_on_c, 0, 60, 0
2, 13500, Note_on_c, 0, 60, 90
2, 13589, Note_on_c, 0, 60, 0
2, 13590, Note_on_c, 0, 72, 90
2, 13619, Note_on_c, 0, 72, 0
2, 13620, Note_on_c, 0, 70, 90
2, 13649, Note_on_c, 0, 70, 0
2, 13650, Note_on_c, 0, 72, 90
2, 13679, Note_on_c, 0, 72, 0
2, 13680, Note_on_c, 0, 69, 90
2, 13709, Note_on_c, 0, 69, 0
2, 13710, Note_on_c, 0, 72, 90
2, 13739, Note_on_c, 0, 72, 0
2, 13740, Note_on_c, 0, 71, 90
2, 13769, Note_on_c, 0, 71, 0
2, 13770, Note_on_c, 0, 72, 90
2, 13799, Note_on_c, 0, 72, 0
2, 13800, Note_on_c, 0, 74, 90
2, 13829, Note_on_c, 0, 74, 0
2, 13830, Note_on_c, 0, 71, 90
2, 13859, Note_on_c, 0, 71, 0
2, 13860, Note_on_c, 0, 67, 90
2, 13919, Note_on_c, 0, 67, 0
2, 13920, Note_on_c, 0, 72, 90
2, 13949, Note_on_c, 0, 72, 0
2, 13950, Note_on_c, 0, 71, 90
2, 13979, Note_on_c, 0, 71, 0
2, 13980, Note_on_c, 0, 72, 90
2, 14099, Note_on_c, 0, 72, 0
2, 14100, Note_on_c, 0, 74, 90
2, 14159, Note_on_c, 0, 74, 0
2, 14160, Note_on_c, 0, 71, 90
2, 14219, Note_on_c, 0, 71, 0
2, 14220, Note_on_c, 0, 72, 90
2, 14339, Note_on_c, 0, 72, 0
2, 14760, Note_on_c, 0, 71, 90
2, 14819, Note_on_c, 0, 71, 0
2, 14820, Note_on_c, 0, 72, 90
2, 14879, Note_on_c, 0, 72, 0
2, 14880, Note_on_c, 0, 74, 90
2, 14939, Note_on_c, 0, 74, 0
2, 14940, Note_on_c, 0, 76, 90
2, 14999, Note_on_c, 0, 76, 0
2, 15000, Note_on_c, 0, 74, 90
2, 15029, Note_on_c, 0, 74, 0
2, 15030, Note_on_c, 0, 76, 90
2, 15059, Note_on_c, 0, 76, 0
2, 15060, Note_on_c, 0, 72, 90
2, 15119, Note_on_c, 0, 72, 0
2, 15120, Note_on_c, 0, 76, 90
2, 15239, Note_on_c, 0, 76, 0
2, 15240, Note_on_c, 0, 77, 90
2, 15299, Note_on_c, 0, 77, 0
2, 15300, Note_on_c, 0, 70, 90
2, 15419, Note_on_c, 0, 70, 0
2, 15420, Note_on_c, 0, 69, 90
2, 15479, Note_on_c, 0, 69, 0
2, 15480, Note_on_c, 0, 57, 90
2, 15539, Note_on_c, 0, 57, 0
2, 15540, Note_on_c, 0, 57, 90
2, 15599, Note_on_c, 0, 57, 0
2, 15600, Note_on_c, 0, 57, 90
2, 15659, Note_on_c, 0, 57, 0
2, 15660, Note_on_c, 0, 57, 90
2, 15719, Note_on_c, 0, 57, 0
2, 15720, Note_on_c, 0, 57, 90
2, 15779, Note_on_c, 0, 57, 0
2, 15780, Note_on_c, 0, 57, 90
2, 15839, Note_on_c, 0, 57, 0
2, 15900, Note_on_c, 0, 77, 90
2, 15929, Note_on_c, 0, 77, 0
2, 15930, Note_on_c, 0, 79, 90
2, 15959, Note_on_c, 0, 79, 0
2, 15960, Note_on_c, 0, 77, 90
2, 15989, Note_on_c, 0, 77, 0
2, 15990, Note_on_c, 0, 79, 90
2, 16019, Note_on_c, 0, 79, 0
2, 16020, Note_on_c, 0, 77, 90
2, 16139, Note_on_c, 0, 77, 0
2, 16260, Note_on_c, 0, 76, 90
2, 16289, Note_on_c, 0, 76, 0
2, 16290, Note_on_c, 0, 77, 90
2, 16319, Note_on_c, 0, 77, 0
2, 16320, Note_on_c, 0, 76, 90
2, 16349, Note_on_c, 0, 76, 0
2, 16350, Note_on_c, 0, 77, 90
2, 16379, Note_on_c, 0, 77, 0
2, 16380, Note_on_c, 0, 76, 90
2, 16499, Note_on_c, 0, 76, 0
2, 16620, Note_on_c, 0, 74, 90
2, 16649, Note_on_c, 0, 74, 0
2, 16650, Note_on_c, 0, 76, 90
2, 16679, Note_on_c, 0, 76, 0
2, 16680, Note_on_c, 0, 74, 90
2, 16709, Note_on_c, 0, 74, 0
2, 16710, Note_on_c, 0, 76, 90
2, 16739, Note_on_c, 0, 76, 0
2, 16740, Note_on_c, 0, 74, 90
2, 16769, Note_on_c, 0, 74, 0
2, 16770, Note_on_c, 0, 76, 90
2, 16799, Note_on_c, 0, 76, 0
2, 16800, Note_on_c, 0, 72, 90
2, 16829, Note_on_c, 0, 72, 0
2, 16830, Note_on_c, 0, 74, 90
2, 16859, Note_on_c, 0, 74, 0
2, 16860, Note_on_c, 0, 76, 90
2, 16889, Note_on_c, 0, 76, 0
2, 16890, Note_on_c, 0, 77, 90
2, 16919, Note_on_c, 0, 77, 0
2, 16920, Note_on_c, 0, 79, 90
2, 16979, Note_on_c, 0, 79, 0
2, 16980, Note_on_c, 0, 72, 90
2, 17039, Note_on_c, 0, 72, 0
2, 17040, Note_on_c, 0, 71, 90
2, 17099, Note_on_c, 0, 71, 0
2, 17100, Note_on_c, 0, 72, 90
2, 17219, Note_on_c, 0, 72, 0
2, 18720, Note_on_c, 0, 57, 90
2, 18779, Note_on_c, 0, 57, 0
2, 18780, Note_on_c, 0, 57, 90
2, 18839, Note_on_c, 0, 57, 0
2, 18840, Note_on_c, 0, 57, 90
2, 18899, Note_on_c, 0, 57, 0
2, 18900, Note_on_c, 0, 57, 90
2, 18959, Note_on_c, 0, 57, 0
2, 18960, Note_on_c, 0, 57, 90
2, 19019, Note_on_c, 0, 57, 0
2, 19020, Note_on_c, 0, 57, 90
2, 19079, Note_on_c, 0, 57, 0
2, 19440, Note_on_c, 0, 67, 90
2, 19499, Note_on_c, 0, 67, 0
2, 19500, Note_on_c, 0, 67, 90
2, 19559, Note_on_c, 0, 67, 0
2, 19560, Note_on_c, 0, 67, 90
2, 19619, Note_on_c, 0, 67, 0
2, 19620, Note_on_c, 0, 67, 90
2, 19679, Note_on_c, 0, 67, 0
2, 19680, Note_on_c, 0, 67, 90
2, 19739, Note_on_c, 0, 67, 0
2, 19740, Note_on_c, 0, 67, 90
2, 19799, Note_on_c, 0, 67, 0
2, 19800, Note_on_c, 0, 72, 90
2, 20159, Note_on_c, 0, 72, 0
2, 20160, Note_on_c, 0, 70, 90
2, 20519, Note_on_c, 0, 70, 0
2, 20520, Note_on_c, 0, 69, 90
2, 20879, Note_on_c, 0, 69, 0
2, 21600, Note_on_c, 0, 57, 90
2, 21659, Note_on_c, 0, 57, 0
2, 21660, Note_on_c, 0, 57, 90
2, 21719, Note_on_c, 0, 57, 0
2, 21720, Note_on_c, 0, 57, 90
2, 21779, Note_on_c, 0, 57, 0
2, 21780, Note_on_c, 0, 57, 90
2, 21839, Note_on_c, 0, 57, 0
2, 21840, Note_on_c, 0, 57, 90
2, 21899, Note_on_c, 0, 57, 0
2, 21900, Note_on_c, 0, 57, 90
2, 21959, Note_on_c, 0, 57, 0
2, 22320, Note_on_c, 0, 60, 90
2, 22379, Note_on_c, 0, 60, 0
2, 22380, Note_on_c, 0, 60, 90
2, 22439, Note_on_c, 0, 60, 0
2, 22440, Note_on_c, 0, 60, 90
2, 22499, Note_on_c, 0, 60, 0
2, 22500, Note_on_c, 0, 60, 90
2, 22559, Note_on_c, 0, 60, 0
2, 22560, Note_on_c, 0, 60, 90
2, 22619, Note_on_c, 0, 60, 0
2, 22620, Note_on_c, 0, 60, 90
2, 22679, Note_on_c, 0, 60, 0
2, 23100, Note_on_c, 0, 77, 90
2, 23129, Note_on_c, 0, 77, 0
2, 23130, Note_on_c, 0, 79, 90
2, 23159, Note_on_c, 0, 79, 0
2, 23160, Note_on_c, 0, 77, 90
2, 23189, Note_on_c, 0, 77, 0
2, 23190, Note_on_c, 0, 79, 90
2, 23219, Note_on_c, 0, 79, 0
2, 23220, Note_on_c, 0, 77, 90
2, 23339, Note_on_c, 0, 77, 0
2, 23460, Note_on_c, 0, 75, 90
2, 23489, Note_on_c, 0, 75, 0
2, 23490, Note_on_c, 0, 77, 90
2, 23519, Note_on_c, 0, 77, 0
2, 23520, Note_on_c, 0, 75, 90
2, 23549, Note_on_c, 0, 75, 0
2, 23550, Note_on_c, 0, 77, 90
2, 23579, Note_on_c, 0, 77, 0
2, 23580, Note_on_c, 0, 75, 90
2, 23699, Note_on_c, 0, 75, 0
2, 23820, Note_on_c, 0, 74, 90
2, 23849, Note_on_c, 0, 74, 0
2, 23850, Note_on_c, 0, 76, 90
2, 23879, Note_on_c, 0, 76, 0
2, 23880, Note_on_c, 0, 74, 90
2, 23909, Note_on_c, 0, 74, 0
2, 23910, Note_on_c, 0, 76, 90
2, 23939, Note_on_c, 0, 76, 0
2, 23940, Note_on_c, 0, 74, 90
2, 23999, Note_on_c, 0, 74, 0
2, 24180, Note_on_c, 0, 74, 90
2, 24239, Note_on_c, 0, 74, 0
2, 24240, Note_on_c, 0, 73, 90
2, 24299, Note_on_c, 0, 73, 0
2, 24300, Note_on_c, 0, 74, 90
2, 24419, Note_on_c, 0, 74, 0
2, 25920, Note_on_c, 0, 72, 90
2, 25949, Note_on_c, 0, 72, 0
2, 25950, Note_on_c, 0, 71, 90
2, 25979, Note_on_c, 0, 71, 0
2, 25980, Note_on_c, 0, 72, 90
2, 26009, Note_on_c, 0, 72, 0
2, 26010, Note_on_c, 0, 74, 90
2, 26039, Note_on_c, 0, 74, 0
2, 26040, Note_on_c, 0, 71, 90
2, 26069, Note_on_c, 0, 71, 0
2, 26070, Note_on_c, 0, 74, 90
2, 26099, Note_on_c, 0, 74, 0
2, 26100, Note_on_c, 0, 72, 90
2, 26129, Note_on_c, 0, 72, 0
2, 26130, Note_on_c, 0, 74, 90
2, 26159, Note_on_c, 0, 74, 0
2, 26160, Note_on_c, 0, 76, 90
2, 26189, Note_on_c, 0, 76, 0
2, 26190, Note_on_c, 0, 74, 90
2, 26219, Note_on_c, 0, 74, 0
2, 26220, Note_on_c, 0, 72, 90
2, 26249, Note_on_c, 0, 72, 0
2, 26250, Note_on_c, 0, 71, 90
2, 26279, Note_on_c, 0, 71, 0
2, 26280, Note_on_c, 0, 69, 90
2, 26339, Note_on_c, 0, 69, 0
2, 26340, Note_on_c, 0, 74, 90
2, 26369, Note_on_c, 0, 74, 0
2, 26370, Note_on_c, 0, 76, 90
2, 26399, Note_on_c, 0, 76, 0
2, 26400, Note_on_c, 0, 73, 90
2, 26429, Note_on_c, 0, 73, 0
2, 26430, Note_on_c, 0, 76, 90
2, 26459, Note_on_c, 0, 76, 0
2, 26460, Note_on_c, 0, 74, 90
2, 26489, Note_on_c, 0, 74, 0
2, 26490, Note_on_c, 0, 76, 90
2, 26519, Note_on_c, 0, 76, 0
2, 26520, Note_on_c, 0, 77, 90
2, 26549, Note_on_c, 0, 77, 0
2, 26550, Note_on_c, 0, 76, 90
2, 26579, Note_on_c, 0, 76, 0
2, 26580, Note_on_c, 0, 74, 90
2, 26639, Note_on_c, 0, 74, 0
2, 27000, Note_on_c, 0, 76, 90
2, 27029, Note_on_c, 0, 76, 0
2, 27030, Note_on_c, 0, 74, 90
2, 27059, Note_on_c, 0, 74, 0
2, 27060, Note_on_c, 0, 76, 90
2, 27089, Note_on_c, 0, 76, 0
2, 27090, Note_on_c, 0, 77, 90
2, 27119, Note_on_c, 0, 77, 0
2, 27120, Note_on_c, 0, 74, 90
2, 27149, Note_on_c, 0, 74, 0
2, 27150, Note_on_c, 0, 77, 90
2, 27179, Note_on_c, 0, 77, 0
2, 27180, Note_on_c, 0, 76, 90
2, 27209, Note_on_c, 0, 76, 0
2, 27210, Note_on_c, 0, 77, 90
2, 27239, Note_on_c, 0, 77, 0
2, 27240, Note_on_c, 0, 79, 90
2, 27269, Note_on_c, 0, 79, 0
2, 27270, Note_on_c, 0, 77, 90
2, 27299, Note_on_c, 0, 77, 0
2, 27300, Note_on_c, 0, 76, 90
2, 27329, Note_on_c, 0, 76, 0
2, 27330, Note_on_c, 0, 74, 90
2, 27359, Note_on_c, 0, 74, 0
2, 27360, Note_on_c, 0, 72, 90
2, 27389, Note_on_c, 0, 72, 0
2, 27390, Note_on_c, 0, 70, 90
2, 27419, Note_on_c, 0, 70, 0
2, 27420, Note_on_c, 0, 72, 90
2, 27449, Note_on_c, 0, 72, 0
2, 27450, Note_on_c, 0, 74, 90
2, 27479, Note_on_c, 0, 74, 0
2, 27480, Note_on_c, 0, 72, 90
2, 27509, Note_on_c, 0, 72, 0
2, 27510, Note_on_c, 0, 74, 90
2, 27539, Note_on_c, 0, 74, 0
2, 27540, Note_on_c, 0, 70, 90
2, 27899, Note_on_c, 0, 70, 0
2, 27900, Note_on_c, 0, 69, 90
2, 28200, Note_on_c, 0, 69, 0
2, 28200, Note_on_c, 0, 69, 90
2, 28259, Note_on_c, 0, 69, 0
2, 28260, Note_on_c, 0, 71, 90
2, 28319, Note_on_c, 0, 71, 0
2, 28320, Note_on_c, 0, 74, 90
2, 28379, Note_on_c, 0, 74, 0
2, 28380, Note_on_c, 0, 76, 90
2, 28439, Note_on_c, 0, 76, 0
2, 28440, Note_on_c, 0, 72, 90
2, 28469, Note_on_c, 0, 72, 0
2, 28470, Note_on_c, 0, 71, 90
2, 28499, Note_on_c, 0, 71, 0
2, 28500, Note_on_c, 0, 71, 90
2, 28589, Note_on_c, 0, 71, 0
2, 28590, Note_on_c, 0, 69, 90
2, 28619, Note_on_c, 0, 69, 0
2, 28620, Note_on_c, 0, 69, 90
2, 28739, Note_on_c, 0, 69, 0
2, 29160, Note_on_c, 0, 76, 90
2, 29279, Note_on_c, 0, 76, 0
2, 29280, Note_on_c, 0, 77, 90
2, 29339, Note_on_c, 0, 77, 0
2, 29340, Note_on_c, 0, 70, 90
2, 29459, Note_on_c, 0, 70, 0
2, 29460, Note_on_c, 0, 69, 90
2, 29519, Note_on_c, 0, 69, 0
2, 29880, Note_on_c, 0, 53, 90
2, 29939, Note_on_c, 0, 53, 0
2, 29940, Note_on_c, 0, 53, 90
2, 29999, Note_on_c, 0, 53, 0
2, 30000, Note_on_c, 0, 53, 90
2, 30059, Note_on_c, 0, 53, 0
2, 30060, Note_on_c, 0, 53, 90
2, 30119, Note_on_c, 0, 53, 0
2, 30120, Note_on_c, 0, 53, 90
2, 30179, Note_on_c, 0, 53, 0
2, 30180, Note_on_c, 0, 53, 90
2, 30239, Note_on_c, 0, 53, 0
2, 30240, Note_on_c, 0, 74, 90
2, 30269, Note_on_c, 0, 74, 0
2, 30270, Note_on_c, 0, 76, 90
2, 30299, Note_on_c, 0, 76, 0
2, 30300, Note_on_c, 0, 77, 90
2, 30314, Note_on_c, 0, 77, 0
2, 30315, Note_on_c, 0, 76, 90
2, 30329, Note_on_c, 0, 76, 0
2, 30330, Note_on_c, 0, 77, 90
2, 30344, Note_on_c, 0, 77, 0
2, 30345, Note_on_c, 0, 76, 90
2, 30359, Note_on_c, 0, 76, 0
2, 30360, Note_on_c, 0, 77, 90
2, 30374, Note_on_c, 0, 77, 0
2, 30375, Note_on_c, 0, 76, 90
2, 30389, Note_on_c, 0, 76, 0
2, 30390, Note_on_c, 0, 74, 90
2, 30404, Note_on_c, 0, 74, 0
2, 30405, Note_on_c, 0, 76, 90
2, 30419, Note_on_c, 0, 76, 0
2, 30420, Note_on_c, 0, 77, 90
2, 30479, Note_on_c, 0, 77, 0
2, 30480, Note_on_c, 0, 76, 90
2, 30509, Note_on_c, 0, 76, 0
2, 30510, Note_on_c, 0, 74, 90
2, 30539, Note_on_c, 0, 74, 0
2, 30540, Note_on_c, 0, 72, 90
2, 30569, Note_on_c, 0, 72, 0
2, 30570, Note_on_c, 0, 70, 90
2, 30599, Note_on_c, 0, 70, 0
2, 30600, Note_on_c, 0, 69, 90
2, 30659, Note_on_c, 0, 69, 0
2, 30660, Note_on_c, 0, 74, 90
2, 30719, Note_on_c, 0, 74, 0
2, 30720, Note_on_c, 0, 70, 90
2, 30779, Note_on_c, 0, 70, 0
2, 30780, Note_on_c, 0, 69, 90
2, 30839, Note_on_c, 0, 69, 0
2, 30840, Note_on_c, 0, 67, 90
2, 30899, Note_on_c, 0, 67, 0
2, 31500, Note_on_c, 0, 72, 90
2, 31559, Note_on_c, 0, 72, 0
2, 31560, Note_on_c, 0, 70, 90
2, 31619, Note_on_c, 0, 70, 0
2, 31620, Note_on_c, 0, 69, 90
2, 31679, Note_on_c, 0, 69, 0
2, 32220, Note_on_c, 0, 72, 90
2, 32279, Note_on_c, 0, 72, 0
2, 32280, Note_on_c, 0, 70, 90
2, 32339, Note_on_c, 0, 70, 0
2, 32340, Note_on_c, 0, 69, 90
2, 32399, Note_on_c, 0, 69, 0
2, 33690, Note_on_c, 0, 53, 90
2, 33719, Note_on_c, 0, 53, 0
2, 33720, Note_on_c, 0, 57, 90
2, 33749, Note_on_c, 0, 57, 0
2, 33750, Note_on_c, 0, 60, 90
2, 33779, Note_on_c, 0, 60, 0
2, 33780, Note_on_c, 0, 57, 90
2, 33809, Note_on_c, 0, 57, 0
2, 33810, Note_on_c, 0, 53, 90
2, 33839, Note_on_c, 0, 53, 0
2, 33840, Note_on_c, 0, 60, 90
2, 33899, Note_on_c, 0, 60, 0
2, 33900, Note_on_c, 0, 60, 90
2, 33959, Note_on_c, 0, 60, 0
2, 33960, Note_on_c, 0, 60, 90
2, 34019, Note_on_c, 0, 60, 0
2, 34020, Note_on_c, 0, 60, 90
2, 34079, Note_on_c, 0, 60, 0
2, 34080, Note_on_c, 0, 60, 90
2, 34139, Note_on_c, 0, 60, 0
2, 34140, Note_on_c, 0, 60, 90
2, 34199, Note_on_c, 0, 60, 0
2, 34200, Note_on_c, 0, 67, 90
2, 34259, Note_on_c, 0, 67, 0
2, 34260, Note_on_c, 0, 69, 90
2, 34319, Note_on_c, 0, 69, 0
2, 34320, Note_on_c, 0, 70, 90
2, 34379, Note_on_c, 0, 70, 0
2, 34380, Note_on_c, 0, 72, 90
2, 34439, Note_on_c, 0, 72, 0
2, 34440, Note_on_c, 0, 70, 90
2, 34469, Note_on_c, 0, 70, 0
2, 34470, Note_on_c, 0, 72, 90
2, 34499, Note_on_c, 0, 72, 0
2, 34500, Note_on_c, 0, 69, 90
2, 34559, Note_on_c, 0, 69, 0
2, 34560, Note_on_c, 0, 53, 90
2, 34619, Note_on_c, 0, 53, 0
2, 34620, Note_on_c, 0, 53, 90
2, 34679, Note_on_c, 0, 53, 0
2, 34680, Note_on_c, 0, 53, 90
2, 34739, Note_on_c, 0, 53, 0
2, 34740, Note_on_c, 0, 53, 90
2, 34799, Note_on_c, 0, 53, 0
2, 34800, Note_on_c, 0, 53, 90
2, 34859, Note_on_c, 0, 53, 0
2, 34860, Note_on_c, 0, 53, 90
2, 34919, Note_on_c, 0, 53, 0
2, 34920, Note_on_c, 0, 69, 90
2, 34979, Note_on_c, 0, 69, 0
2, 34980, Note_on_c, 0, 70, 90
2, 35039, Note_on_c, 0, 70, 0
2, 35040, Note_on_c, 0, 72, 90
2, 35099, Note_on_c, 0, 72, 0
2, 35100, Note_on_c, 0, 74, 90
2, 35159, Note_on_c, 0, 74, 0
2, 35160, Note_on_c, 0, 72, 90
2, 35189, Note_on_c, 0, 72, 0
2, 35190, Note_on_c, 0, 74, 90
2, 35219, Note_on_c, 0, 74, 0
2, 35220, Note_on_c, 0, 70, 90
2, 35279, Note_on_c, 0, 70, 0
2, 35340, Note_on_c, 0, 74, 90
2, 35369, Note_on_c, 0, 74, 0
2, 35370, Note_on_c, 0, 75, 90
2, 35399, Note_on_c, 0, 75, 0
2, 35400, Note_on_c, 0, 74, 90
2, 35429, Note_on_c, 0, 74, 0
2, 35430, Note_on_c, 0, 75, 90
2, 35459, Note_on_c, 0, 75, 0
2, 35460, Note_on_c, 0, 74, 90
2, 35579, Note_on_c, 0, 74, 0
2, 35700, Note_on_c, 0, 72, 90
2, 35729, Note_on_c, 0, 72, 0
2, 35730, Note_on_c, 0, 74, 90
2, 35759, Note_on_c, 0, 74, 0
2, 35760, Note_on_c, 0, 72, 90
2, 35789, Note_on_c, 0, 72, 0
2, 35790, Note_on_c, 0, 74, 90
2, 35819, Note_on_c, 0, 74, 0
2, 35820, Note_on_c, 0, 72, 90
2, 35939, Note_on_c, 0, 72, 0
2, 36060, Note_on_c, 0, 70, 90
2, 36089, Note_on_c, 0, 70, 0
2, 36090, Note_on_c, 0, 72, 90
2, 36119, Note_on_c, 0, 72, 0
2, 36120, Note_on_c, 0, 70, 90
2, 36149, Note_on_c, 0, 70, 0
2, 36150, Note_on_c, 0, 72, 90
2, 36179, Note_on_c, 0, 72, 0
2, 36180, Note_on_c, 0, 70, 90
2, 36299, Note_on_c, 0, 70, 0
2, 36420, Note_on_c, 0, 69, 90
2, 36479, Note_on_c, 0, 69, 0
2, 36480, Note_on_c, 0, 70, 90
2, 36539, Note_on_c, 0, 70, 0
2, 36540, Note_on_c, 0, 69, 90
2, 36659, Note_on_c, 0, 69, 0
2, 37080, Note_on_c, 0, 69, 90
2, 37139, Note_on_c, 0, 69, 0
2, 37140, Note_on_c, 0, 70, 90
2, 37199, Note_on_c, 0, 70, 0
2, 37200, Note_on_c, 0, 72, 90
2, 37259, Note_on_c, 0, 72, 0
2, 37260, Note_on_c, 0, 74, 90
2, 37289, Note_on_c, 0, 74, 0
2, 37320, Note_on_c, 0, 72, 90
2, 37349, Note_on_c, 0, 72, 0
2, 37980, Note_on_c, 0, 75, 90
2, 38039, Note_on_c, 0, 75, 0
2, 38040, Note_on_c, 0, 74, 90
2, 38099, Note_on_c, 0, 74, 0
2, 38100, Note_on_c, 0, 72, 90
2, 38159, Note_on_c, 0, 72, 0
2, 38160, Note_on_c, 0, 74, 90
2, 38279, Note_on_c, 0, 74, 0
2, 38700, Note_on_c, 0, 69, 90
2, 38759, Note_on_c, 0, 69, 0
2, 38760, Note_on_c, 0, 70, 90
2, 38819, Note_on_c, 0, 70, 0
2, 38820, Note_on_c, 0, 72, 90
2, 38879, Note_on_c, 0, 72, 0
2, 38880, Note_on_c, 0, 74, 90
2, 38999, Note_on_c, 0, 74, 0
2, 39000, Note_on_c, 0, 75, 90
2, 39059, Note_on_c, 0, 75, 0
2, 39060, Note_on_c, 0, 72, 90
2, 39179, Note_on_c, 0, 72, 0
2, 39180, Note_on_c, 0, 70, 90
2, 39269, Note_on_c, 0, 70, 0
2, 39270, Note_on_c, 0, 69, 90
2, 39299, Note_on_c, 0, 69, 0
2, 39300, Note_on_c, 0, 70, 90
2, 39329, Note_on_c, 0, 70, 0
2, 39330, Note_on_c, 0, 72, 90
2, 39359, Note_on_c, 0, 72, 0
2, 39360, Note_on_c, 0, 70, 90
2, 39389, Note_on_c, 0, 70, 0
2, 39390, Note_on_c, 0, 69, 90
2, 39419, Note_on_c, 0, 69, 0
2, 39420, Note_on_c, 0, 67, 90
2, 39449, Note_on_c, 0, 67, 0
2, 39450, Note_on_c, 0, 65, 90
2, 39479, Note_on_c, 0, 65, 0
2, 39480, Note_on_c, 0, 67, 90
2, 39509, Note_on_c, 0, 67, 0
2, 39510, Note_on_c, 0, 72, 90
2, 39539, Note_on_c, 0, 72, 0
2, 39540, Note_on_c, 0, 70, 90
2, 39569, Note_on_c, 0, 70, 0
2, 39570, Note_on_c, 0, 72, 90
2, 39599, Note_on_c, 0, 72, 0
2, 39600, Note_on_c, 0, 69, 90
2, 39659, Note_on_c, 0, 69, 0
2, 39660, Note_on_c, 0, 74, 90
2, 39719, Note_on_c, 0, 74, 0
2, 39720, Note_on_c, 0, 72, 90
2, 39779, Note_on_c, 0, 72, 0
2, 39780, Note_on_c, 0, 76, 90
2, 39839, Note_on_c, 0, 76, 0
2, 39840, Note_on_c, 0, 77, 90
2, 39899, Note_on_c, 0, 77, 0
2, 39900, Note_on_c, 0, 65, 90
2, 39959, Note_on_c, 0, 65, 0
2, 39960, Note_on_c, 0, 70, 90
2, 40019, Note_on_c, 0, 70, 0
2, 40020, Note_on_c, 0, 67, 90
2, 40139, Note_on_c, 0, 67, 0
2, 40140, Note_on_c, 0, 65, 90
2, 40259, Note_on_c, 0, 65, 0
2, 40320, Note_on_c, 0, 76, 90
2, 40439, Note_on_c, 0, 76, 0
2, 40440, Note_on_c, 0, 77, 90
2, 40499, Note_on_c, 0, 77, 0
2, 40500, Note_on_c, 0, 70, 90
2, 40619, Note_on_c, 0, 70, 0
2, 40620, Note_on_c, 0, 69, 90
2, 40679, Note_on_c, 0, 69, 0
2, 40680, Note_on_c, 0, 67, 90
2, 40739, Note_on_c, 0, 67, 0
2, 40740, Note_on_c, 0, 69, 90
2, 40799, Note_on_c, 0, 69, 0
2, 40800, Note_on_c, 0, 70, 90
2, 40859, Note_on_c, 0, 70, 0
2, 40860, Note_on_c, 0, 72, 90
2, 40889, Note_on_c, 0, 72, 0
2, 40890, Note_on_c, 0, 70, 90
2, 40919, Note_on_c, 0, 70, 0
2, 40920, Note_on_c, 0, 72, 90
2, 40949, Note_on_c, 0, 72, 0
2, 40950, Note_on_c, 0, 70, 90
2, 40979, Note_on_c, 0, 70, 0
2, 40980, Note_on_c, 0, 69, 90
2, 41039, Note_on_c, 0, 69, 0
2, 41040, Note_on_c, 0, 53, 90
2, 41099, Note_on_c, 0, 53, 0
2, 41100, Note_on_c, 0, 53, 90
2, 41159, Note_on_c, 0, 53, 0
2, 41160, Note_on_c, 0, 53, 90
2, 41219, Note_on_c, 0, 53, 0
2, 41220, Note_on_c, 0, 53, 90
2, 41279, Note_on_c, 0, 53, 0
2, 41280, Note_on_c, 0, 53, 90
2, 41339, Note_on_c, 0, 53, 0
2, 41340, Note_on_c, 0, 53, 90
2, 41399, Note_on_c, 0, 53, 0
2, 41400, Note_on_c, 0, 69, 90
2, 41459, Note_on_c, 0, 69, 0
2, 41460, Note_on_c, 0, 70, 90
2, 41519, Note_on_c, 0, 70, 0
2, 41520, Note_on_c, 0, 72, 90
2, 41579, Note_on_c, 0, 72, 0
2, 41580, Note_on_c, 0, 74, 90
2, 41609, Note_on_c, 0, 74, 0
2, 41610, Note_on_c, 0, 72, 90
2, 41639, Note_on_c, 0, 72, 0
2, 41640, Note_on_c, 0, 74, 90
2, 41669, Note_on_c, 0, 74, 0
2, 41670, Note_on_c, 0, 72, 90
2, 41699, Note_on_c, 0, 72, 0
2, 41700, Note_on_c, 0, 70, 90
2, 41759, Note_on_c, 0, 70, 0
2, 41820, Note_on_c, 0, 69, 90
2, 41849, Note_on_c, 0, 69, 0
2, 41850, Note_on_c, 0, 70, 90
2, 41879, Note_on_c, 0, 70, 0
2, 41880, Note_on_c, 0, 69, 90
2, 41909, Note_on_c, 0, 69, 0
2, 41910, Note_on_c, 0, 70, 90
2, 41939, Note_on_c, 0, 70, 0
2, 41940, Note_on_c, 0, 69, 90
2, 42119, Note_on_c, 0, 69, 0
2, 42180, Note_on_c, 0, 67, 90
2, 42209, Note_on_c, 0, 67, 0
2, 42210, Note_on_c, 0, 69, 90
2, 42239, Note_on_c, 0, 69, 0
2, 42240, Note_on_c, 0, 67, 90
2, 42269, Note_on_c, 0, 67, 0
2, 42270, Note_on_c, 0, 69, 90
2, 42299, Note_on_c, 0, 69, 0
2, 42300, Note_on_c, 0, 67, 90
2, 42479, Note_on_c, 0, 67, 0
2, 42540, Note_on_c, 0, 67, 90
2, 42569, Note_on_c, 0, 67, 0
2, 42570, Note_on_c, 0, 69, 90
2, 42599, Note_on_c, 0, 69, 0
2, 42600, Note_on_c, 0, 67, 90
2, 42629, Note_on_c, 0, 67, 0
2, 42630, Note_on_c, 0, 69, 90
2, 42659, Note_on_c, 0, 69, 0
2, 42660, Note_on_c, 0, 67, 90
2, 42689, Note_on_c, 0, 67, 0
2, 42690, Note_on_c, 0, 69, 90
2, 42719, Note_on_c, 0, 69, 0
2, 42720, Note_on_c, 0, 65, 90
2, 42749, Note_on_c, 0, 65, 0
2, 42750, Note_on_c, 0, 67, 90
2, 42779, Note_on_c, 0, 67, 0
2, 42780, Note_on_c, 0, 69, 90
2, 42809, Note_on_c, 0, 69, 0
2, 42810, Note_on_c, 0, 70, 90
2, 42839, Note_on_c, 0, 70, 0
2, 42840, Note_on_c, 0, 72, 90
2, 42899, Note_on_c, 0, 72, 0
2, 42900, Note_on_c, 0, 70, 90
2, 42929, Note_on_c, 0, 70, 0
2, 42930, Note_on_c, 0, 69, 90
2, 42959, Note_on_c, 0, 69, 0
2, 42960, Note_on_c, 0, 67, 90
2, 42989, Note_on_c, 0, 67, 0
2, 42990, Note_on_c, 0, 65, 90
2, 43019, Note_on_c, 0, 65, 0
2, 43020, Note_on_c, 0, 65, 90
2, 43199, Note_on_c, 0, 65, 0
2, 174360, Note_on_c, 0, 72, 90
2, 174389, Note_on_c, 0, 72, 0
2, 174390, Note_on_c, 0, 70, 90
2, 174419, Note_on_c, 0, 70, 0
2, 174420, Note_on_c, 0, 72, 90
2, 174479, Note_on_c, 0, 72, 0
2, 174480, Note_on_c, 0, 74, 90
2, 174539, Note_on_c, 0, 74, 0
2, 174540, Note_on_c, 0, 74, 90
2, 174599, Note_on_c, 0, 74, 0
2, 174600, Note_on_c, 0, 70, 90
2, 174659, Note_on_c, 0, 70, 0
2, 174660, Note_on_c, 0, 72, 90
2, 174719, Note_on_c, 0, 72, 0
2, 174720, Note_on_c, 0, 69, 90
2, 174779, Note_on_c, 0, 69, 0
2, 174780, Note_on_c, 0, 69, 90
2, 174839, Note_on_c, 0, 69, 0
2, 174840, Note_on_c, 0, 70, 90
2, 174899, Note_on_c, 0, 70, 0
2, 174900, Note_on_c, 0, 70, 90
2, 174959, Note_on_c, 0, 70, 0
2, 174960, Note_on_c, 0, 67, 90
2, 175019, Note_on_c, 0, 67, 0
2, 175020, Note_on_c, 0, 69, 90
2, 175199, Note_on_c, 0, 69, 0
2, 175200, Note_on_c, 0, 77, 90
2, 175229, Note_on_c, 0, 77, 0
2, 175230, Note_on_c, 0, 76, 90
2, 175259, Note_on_c, 0, 76, 0
2, 175260, Note_on_c, 0, 77, 90
2, 175319, Note_on_c, 0, 77, 0
2, 175320, Note_on_c, 0, 69, 90
2, 175379, Note_on_c, 0, 69, 0
2, 175380, Note_on_c, 0, 67, 90
2, 175559, Note_on_c, 0, 67, 0
2, 175560, Note_on_c, 0, 72, 90
2, 175589, Note_on_c, 0, 72, 0
2, 175590, Note_on_c, 0, 70, 90
2, 175619, Note_on_c, 0, 70, 0
2, 175620, Note_on_c, 0, 72, 90
2, 175649, Note_on_c, 0, 72, 0
2, 175650, Note_on_c, 0, 70, 90
2, 175679, Note_on_c, 0, 70, 0
2, 175680, Note_on_c, 0, 69, 90
2, 175709, Note_on_c, 0, 69, 0
2, 175710, Note_on_c, 0, 67, 90
2, 175739, Note_on_c, 0, 67, 0
2, 175740, Note_on_c, 0, 65, 90
2, 175859, Note_on_c, 0, 65, 0
2, 177360, Note_on_c, 0, 65, 90
2, 177389, Note_on_c, 0, 65, 0
2, 177390, Note_on_c, 0, 65, 90
2, 177419, Note_on_c, 0, 65, 0
2, 177420, Note_on_c, 0, 65, 90
2, 177479, Note_on_c, 0, 65, 0
2, 177480, Note_on_c, 0, 65, 90
2, 177539, Note_on_c, 0, 65, 0
2, 177540, Note_on_c, 0, 65, 90
2, 177599, Note_on_c, 0, 65, 0
2, 177600, Note_on_c, 0, 60, 90
2, 177659, Note_on_c, 0, 60, 0
2, 177720, Note_on_c, 0, 60, 90
2, 177749, Note_on_c, 0, 60, 0
2, 177750, Note_on_c, 0, 60, 90
2, 177779, Note_on_c, 0, 60, 0
2, 177780, Note_on_c, 0, 60, 90
2, 177839, Note_on_c, 0, 60, 0
2, 177840, Note_on_c, 0, 60, 90
2, 177899, Note_on_c, 0, 60, 0
2, 177900, Note_on_c, 0, 60, 90
2, 177959, Note_on_c, 0, 60, 0
2, 177960, Note_on_c, 0, 57, 90
2, 178019, Note_on_c, 0, 57, 0
2, 178080, Note_on_c, 0, 77, 90
2, 178109, Note_on_c, 0, 77, 0
2, 178110, Note_on_c, 0, 77, 90
2, 178139, Note_on_c, 0, 77, 0
2, 178140, Note_on_c, 0, 77, 90
2, 178199, Note_on_c, 0, 77, 0
2, 178200, Note_on_c, 0, 69, 90
2, 178259, Note_on_c, 0, 69, 0
2, 178260, Note_on_c, 0, 67, 90
2, 178439, Note_on_c, 0, 67, 0
2, 178440, Note_on_c, 0, 69, 90
2, 178469, Note_on_c, 0, 69, 0
2, 178470, Note_on_c, 0, 70, 90
2, 178499, Note_on_c, 0, 70, 0
2, 178500, Note_on_c, 0, 69, 90
2, 178559, Note_on_c, 0, 69, 0
2, 178560, Note_on_c, 0, 67, 90
2, 178619, Note_on_c, 0, 67, 0
2, 178620, Note_on_c, 0, 65, 90
2, 178739, Note_on_c, 0, 65, 0
2, 179760, Note_on_c, 0, 67, 90
2, 179789, Note_on_c, 0, 67, 0
2, 179790, Note_on_c, 0, 65, 90
2, 179819, Note_on_c, 0, 65, 0
2, 179820, Note_on_c, 0, 67, 90
2, 179879, Note_on_c, 0, 67, 0
2, 179880, Note_on_c, 0, 70, 90
2, 179939, Note_on_c, 0, 70, 0
2, 179940, Note_on_c, 0, 70, 90
2, 179999, Note_on_c, 0, 70, 0
2, 180000, Note_on_c, 0, 69, 90
2, 180059, Note_on_c, 0, 69, 0
2, 180060, Note_on_c, 0, 69, 90
2, 180119, Note_on_c, 0, 69, 0
2, 180120, Note_on_c, 0, 72, 90
2, 180149, Note_on_c, 0, 72, 0
2, 180150, Note_on_c, 0, 70, 90
2, 180179, Note_on_c, 0, 70, 0
2, 180180, Note_on_c, 0, 72, 90
2, 180239, Note_on_c, 0, 72, 0
2, 180240, Note_on_c, 0, 74, 90
2, 180299, Note_on_c, 0, 74, 0
2, 180300, Note_on_c, 0, 74, 90
2, 180359, Note_on_c, 0, 74, 0
2, 180360, Note_on_c, 0, 70, 90
2, 180419, Note_on_c, 0, 70, 0
2, 180420, Note_on_c, 0, 72, 90
2, 180479, Note_on_c, 0, 72, 0
2, 180480, Note_on_c, 0, 69, 90
2, 180539, Note_on_c, 0, 69, 0
2, 180540, Note_on_c, 0, 69, 90
2, 180599, Note_on_c, 0, 69, 0
2, 180600, Note_on_c, 0, 70, 90
2, 180659, Note_on_c, 0, 70, 0
2, 180660, Note_on_c, 0, 70, 90
2, 180719, Note_on_c, 0, 70, 0
2, 180720, Note_on_c, 0, 67, 90
2, 180779, Note_on_c, 0, 67, 0
2, 180780, Note_on_c, 0, 69, 90
2, 180959, Note_on_c, 0, 69, 0
2, 180960, Note_on_c, 0, 77, 90
2, 180989, Note_on_c, 0, 77, 0
2, 180990, Note_on_c, 0, 76, 90
2, 181019, Note_on_c, 0, 76, 0
2, 181020, Note_on_c, 0, 77, 90
2, 181079, Note_on_c, 0, 77, 0
2, 181080, Note_on_c, 0, 69, 90
2, 181139, Note_on_c, 0, 69, 0
2, 181140, Note_on_c, 0, 67, 90
2, 181319, Note_on_c, 0, 67, 0
2, 181320, Note_on_c, 0, 72, 90
2, 181349, Note_on_c, 0, 72, 0
2, 181350, Note_on_c, 0, 70, 90
2, 181379, Note_on_c, 0, 70, 0
2, 181380, Note_on_c, 0, 72, 90
2, 181409, Note_on_c, 0, 72, 0
2, 181410, Note_on_c, 0, 70, 90
2, 181439, Note_on_c, 0, 70, 0
2, 181440, Note_on_c, 0, 69, 90
2, 181469, Note_on_c, 0, 69, 0
2, 181470, Note_on_c, 0, 67, 90
2, 181499, Note_on_c, 0, 67, 0
2, 181500, Note_on_c, 0, 65, 90
2, 181619, Note_on_c, 0, 65, 0
2, 183120, Note_on_c, 0, 65, 90
2, 183149, Note_on_c, 0, 65, 0
2, 183150, Note_on_c, 0, 65, 90
2, 183179, Note_on_c, 0, 65, 0
2, 183180, Note_on_c, 0, 65, 90
2, 183239, Note_on_c, 0, 65, 0
2, 183240, Note_on_c, 0, 65, 90
2, 183299, Note_on_c, 0, 65, 0
2, 183300, Note_on_c, 0, 65, 90
2, 183359, Note_on_c, 0, 65, 0
2, 183360, Note_on_c, 0, 60, 90
2, 183419, Note_on_c, 0, 60, 0
2, 183480, Note_on_c, 0, 60, 90
2, 183509, Note_on_c, 0, 60, 0
2, 183510, Note_on_c, 0, 60, 90
2, 183539, Note_on_c, 0, 60, 0
2, 183540, Note_on_c, 0, 60, 90
2, 183599, Note_on_c, 0, 60, 0
2, 183600, Note_on_c, 0, 60, 90
2, 183659, Note_on_c, 0, 60, 0
2, 183660, Note_on_c, 0, 60, 90
2, 183719, Note_on_c, 0, 60, 0
2, 183720, Note_on_c, 0, 57, 90
2, 183779, Note_on_c, 0, 57, 0
2, 183840, Note_on_c, 0, 77, 90
2, 183869, Note_on_c, 0, 77, 0
2, 183870, Note_on_c, 0, 77, 90
2, 183899, Note_on_c, 0, 77, 0
2, 183900, Note_on_c, 0, 77, 90
2, 183959, Note_on_c, 0, 77, 0
2, 183960, Note_on_c, 0, 69, 90
2, 184019, Note_on_c, 0, 69, 0
2, 184020, Note_on_c, 0, 67, 90
2, 184199, Note_on_c, 0, 67, 0
2, 184200, Note_on_c, 0, 69, 90
2, 184229, Note_on_c, 0, 69, 0
2, 184230, Note_on_c, 0, 70, 90
2, 184259, Note_on_c, 0, 70, 0
2, 184260, Note_on_c, 0, 69, 90
2, 184319, Note_on_c, 0, 69, 0
2, 184320, Note_on_c, 0, 67, 90
2, 184379, Note_on_c, 0, 67, 0
2, 184380, Note_on_c, 0, 65, 90
2, 184499, Note_on_c, 0, 65, 0
2, 185520, Note_on_c, 0, 67, 90
2, 185549, Note_on_c, 0, 67, 0
2, 185550, Note_on_c, 0, 65, 90
2, 185579, Note_on_c, 0, 65, 0
2, 185580, Note_on_c, 0, 67, 90
2, 185639, Note_on_c, 0, 67, 0
2, 185640, Note_on_c, 0, 70, 90
2, 185699, Note_on_c, 0, 70, 0
2, 185700, Note_on_c, 0, 70, 90
2, 185759, Note_on_c, 0, 70, 0
2, 185760, Note_on_c, 0, 69, 90
2, 185819, Note_on_c, 0, 69, 0
2, 185820, Note_on_c, 0, 69, 90
2, 185879, Note_on_c, 0, 69, 0
2, 185880, Note_on_c, 0, 69, 90
2, 185909, Note_on_c, 0, 69, 0
2, 185910, Note_on_c, 0, 67, 90
2, 185939, Note_on_c, 0, 67, 0
2, 185940, Note_on_c, 0, 69, 90
2, 185999, Note_on_c, 0, 69, 0
2, 186000, Note_on_c, 0, 72, 90
2, 186059, Note_on_c, 0, 72, 0
2, 186060, Note_on_c, 0, 72, 90
2, 186119, Note_on_c, 0, 72, 0
2, 186120, Note_on_c, 0, 71, 90
2, 186179, Note_on_c, 0, 71, 0
2, 186180, Note_on_c, 0, 71, 90
2, 186239, Note_on_c, 0, 71, 0
2, 186360, Note_on_c, 0, 67, 90
2, 186389, Note_on_c, 0, 67, 0
2, 186390, Note_on_c, 0, 65, 90
2, 186419, Note_on_c, 0, 65, 0
2, 186420, Note_on_c, 0, 67, 90
2, 186479, Note_on_c, 0, 67, 0
2, 186480, Note_on_c, 0, 67, 90
2, 186539, Note_on_c, 0, 67, 0
2, 186540, Note_on_c, 0, 67, 90
2, 186599, Note_on_c, 0, 67, 0
2, 186600, Note_on_c, 0, 60, 90
2, 186659, Note_on_c, 0, 60, 0
2, 186660, Note_on_c, 0, 60, 90
2, 186719, Note_on_c, 0, 60, 0
2, 186720, Note_on_c, 0, 60, 90
2, 186779, Note_on_c, 0, 60, 0
2, 186780, Note_on_c, 0, 60, 90
2, 186839, Note_on_c, 0, 60, 0
2, 186840, Note_on_c, 0, 60, 90
2, 186899, Note_on_c, 0, 60, 0
2, 186900, Note_on_c, 0, 60, 90
2, 186959, Note_on_c, 0, 60, 0
2, 186960, Note_on_c, 0, 60, 90
2, 187019, Note_on_c, 0, 60, 0
2, 187020, Note_on_c, 0, 60, 90
2, 187079, Note_on_c, 0, 60, 0
2, 187080, Note_on_c, 0, 60, 90
2, 187139, Note_on_c, 0, 60, 0
2, 187140, Note_on_c, 0, 60, 90
2, 187199, Note_on_c, 0, 60, 0
2, 187200, Note_on_c, 0, 60, 90
2, 187259, Note_on_c, 0, 60, 0
2, 187260, Note_on_c, 0, 60, 90
2, 187379, Note_on_c, 0, 60, 0
2, 189240, Note_on_c, 0, 57, 90
2, 189269, Note_on_c, 0, 57, 0
2, 189270, Note_on_c, 0, 57, 90
2, 189299, Note_on_c, 0, 57, 0
2, 189300, Note_on_c, 0, 57, 90
2, 189359, Note_on_c, 0, 57, 0
2, 189360, Note_on_c, 0, 57, 90
2, 189419, Note_on_c, 0, 57, 0
2, 189420, Note_on_c, 0, 57, 90
2, 189479, Note_on_c, 0, 57, 0
2, 189480, Note_on_c, 0, 53, 90
2, 189539, Note_on_c, 0, 53, 0
2, 189960, Note_on_c, 0, 53, 90
2, 189989, Note_on_c, 0, 53, 0
2, 189990, Note_on_c, 0, 53, 90
2, 190019, Note_on_c, 0, 53, 0
2, 190020, Note_on_c, 0, 53, 90
2, 190079, Note_on_c, 0, 53, 0
2, 190080, Note_on_c, 0, 53, 90
2, 190139, Note_on_c, 0, 53, 0
2, 190140, Note_on_c, 0, 53, 90
2, 190259, Note_on_c, 0, 53, 0
2, 191640, Note_on_c, 0, 72, 90
2, 191669, Note_on_c, 0, 72, 0
2, 191670, Note_on_c, 0, 70, 90
2, 191699, Note_on_c, 0, 70, 0
2, 191700, Note_on_c, 0, 72, 90
2, 191759, Note_on_c, 0, 72, 0
2, 191760, Note_on_c, 0, 74, 90
2, 191819, Note_on_c, 0, 74, 0
2, 191820, Note_on_c, 0, 74, 90
2, 191879, Note_on_c, 0, 74, 0
2, 191880, Note_on_c, 0, 70, 90
2, 191939, Note_on_c, 0, 70, 0
2, 191940, Note_on_c, 0, 72, 90
2, 191999, Note_on_c, 0, 72, 0
2, 192000, Note_on_c, 0, 69, 90
2, 192059, Note_on_c, 0, 69, 0
2, 192060, Note_on_c, 0, 69, 90
2, 192119, Note_on_c, 0, 69, 0
2, 192120, Note_on_c, 0, 70, 90
2, 192179, Note_on_c, 0, 70, 0
2, 192180, Note_on_c, 0, 70, 90
2, 192239, Note_on_c, 0, 70, 0
2, 192240, Note_on_c, 0, 67, 90
2, 192299, Note_on_c, 0, 67, 0
2, 192300, Note_on_c, 0, 69, 90
2, 192479, Note_on_c, 0, 69, 0
2, 192480, Note_on_c, 0, 77, 90
2, 192509, Note_on_c, 0, 77, 0
2, 192510, Note_on_c, 0, 76, 90
2, 192539, Note_on_c, 0, 76, 0
2, 192540, Note_on_c, 0, 77, 90
2, 192599, Note_on_c, 0, 77, 0
2, 192600, Note_on_c, 0, 69, 90
2, 192659, Note_on_c, 0, 69, 0
2, 192660, Note_on_c, 0, 67, 90
2, 192839, Note_on_c, 0, 67, 0
2, 192840, Note_on_c, 0, 72, 90
2, 192869, Note_on_c, 0, 72, 0
2, 192870, Note_on_c, 0, 70, 90
2, 192899, Note_on_c, 0, 70, 0
2, 192900, Note_on_c, 0, 72, 90
2, 192929, Note_on_c, 0, 72, 0
2, 192930, Note_on_c, 0, 70, 90
2, 192959, Note_on_c, 0, 70, 0
2, 192960, Note_on_c, 0, 69, 90
2, 192989, Note_on_c, 0, 69, 0
2, 192990, Note_on_c, 0, 67, 90
2, 193019, Note_on_c, 0, 67, 0
2, 193020, Note_on_c, 0, 65, 90
2, 193139, Note_on_c, 0, 65, 0
2, 193139, End_track
3, 0, Start_track
3, 0, MIDI_port, 0
3, 0, Title_t, "Corno II"
3, 0, Program_c, 1, 60
3, 0, Control_c, 1, 7, 127
3, 0, Control_c, 1, 10, 85
3, 0, Note_on_c, 1, 53, 90
3, 0, Control_c, 1, 91, 113
3, 59, Note_on_c, 1, 53, 0
3, 60, Note_on_c, 1, 53, 90
3, 119, Note_on_c, 1, 53, 0
3, 120, Note_on_c, 1, 53, 90
3, 179, Note_on_c, 1, 53, 0
3, 180, Note_on_c, 1, 60, 90
3, 239, Note_on_c, 1, 60, 0
3, 240, Note_on_c, 1, 60, 90
3, 299, Note_on_c, 1, 60, 0
3, 300, Note_on_c, 1, 60, 90
3, 359, Note_on_c, 1, 60, 0
3, 360, Note_on_c, 1, 65, 90
3, 479, Note_on_c, 1, 65, 0
3, 480, Note_on_c, 1, 69, 90
3, 539, Note_on_c, 1, 69, 0
3, 540, Note_on_c, 1, 70, 90
3, 569, Note_on_c, 1, 70, 0
3, 600, Note_on_c, 1, 69, 90
3, 629, Note_on_c, 1, 69, 0
3, 720, Note_on_c, 1, 65, 90
3, 779, Note_on_c, 1, 65, 0
3, 780, Note_on_c, 1, 60, 90
3, 839, Note_on_c, 1, 60, 0
3, 840, Note_on_c, 1, 60, 90
3, 899, Note_on_c, 1, 60, 0
3, 900, Note_on_c, 1, 53, 90
3, 959, Note_on_c, 1, 53, 0
3, 960, Note_on_c, 1, 57, 90
3, 1019, Note_on_c, 1, 57, 0
3, 1020, Note_on_c, 1, 60, 90
3, 1079, Note_on_c, 1, 60, 0
3, 1080, Note_on_c, 1, 65, 90
3, 1139, Note_on_c, 1, 65, 0
3, 1140, Note_on_c, 1, 65, 90
3, 1169, Note_on_c, 1, 65, 0
3, 1170, Note_on_c, 1, 65, 90
3, 1199, Note_on_c, 1, 65, 0
3, 1200, Note_on_c, 1, 65, 90
3, 1229, Note_on_c, 1, 65, 0
3, 1230, Note_on_c, 1, 65, 90
3, 1259, Note_on_c, 1, 65, 0
3, 1260, Note_on_c, 1, 60, 90
3, 1439, Note_on_c, 1, 60, 0
3, 1440, Note_on_c, 1, 67, 90
3, 1455, Note_on_c, 1, 67, 0
3, 1470, Note_on_c, 1, 60, 90
3, 1485, Note_on_c, 1, 60, 0
3, 1500, Note_on_c, 1, 60, 90
3, 1515, Note_on_c, 1, 60, 0
3, 1530, Note_on_c, 1, 67, 90
3, 1545, Note_on_c, 1, 67, 0
3, 1560, Note_on_c, 1, 69, 90
3, 1575, Note_on_c, 1, 69, 0
3, 1590, Note_on_c, 1, 65, 90
3, 1605, Note_on_c, 1, 65, 0
3, 1620, Note_on_c, 1, 67, 90
3, 1635, Note_on_c, 1, 67, 0
3, 1650, Note_on_c, 1, 60, 90
3, 1665, Note_on_c, 1, 60, 0
3, 1680, Note_on_c, 1, 60, 90
3, 1695, Note_on_c, 1, 60, 0
3, 1710, Note_on_c, 1, 67, 90
3, 1725, Note_on_c, 1, 67, 0
3, 1740, Note_on_c, 1, 65, 90
3, 1755, Note_on_c, 1, 65, 0
3, 1770, Note_on_c, 1, 60, 90
3, 1785, Note_on_c, 1, 60, 0
3, 1800, Note_on_c, 1, 60, 90
3, 1859, Note_on_c, 1, 60, 0
3, 1860, Note_on_c, 1, 65, 90
3, 1919, Note_on_c, 1, 65, 0
3, 1920, Note_on_c, 1, 60, 90
3, 1979, Note_on_c, 1, 60, 0
3, 1980, Note_on_c, 1, 57, 90
3, 2039, Note_on_c, 1, 57, 0
3, 2040, Note_on_c, 1, 60, 90
3, 2099, Note_on_c, 1, 60, 0
3, 2100, Note_on_c, 1, 65, 90
3, 2159, Note_on_c, 1, 65, 0
3, 2160, Note_on_c, 1, 53, 90
3, 2219, Note_on_c, 1, 53, 0
3, 2220, Note_on_c, 1, 53, 90
3, 2279, Note_on_c, 1, 53, 0
3, 2280, Note_on_c, 1, 53, 90
3, 2339, Note_on_c, 1, 53, 0
3, 2340, Note_on_c, 1, 53, 90
3, 2399, Note_on_c, 1, 53, 0
3, 2400, Note_on_c, 1, 53, 90
3, 2459, Note_on_c, 1, 53, 0
3, 2460, Note_on_c, 1, 53, 90
3, 2519, Note_on_c, 1, 53, 0
3, 2940, Note_on_c, 1, 67, 90
3, 2969, Note_on_c, 1, 67, 0
3, 2970, Note_on_c, 1, 69, 90
3, 2999, Note_on_c, 1, 69, 0
3, 3000, Note_on_c, 1, 67, 90
3, 3029, Note_on_c, 1, 67, 0
3, 3030, Note_on_c, 1, 69, 90
3, 3059, Note_on_c, 1, 69, 0
3, 3060, Note_on_c, 1, 67, 90
3, 3075, Note_on_c, 1, 67, 0
3, 3075, Note_on_c, 1, 69, 90
3, 3090, Note_on_c, 1, 69, 0
3, 3090, Note_on_c, 1, 67, 90
3, 3100, Note_on_c, 1, 67, 0
3, 3100, Note_on_c, 1, 69, 90
3, 3110, Note_on_c, 1, 69, 0
3, 3110, Note_on_c, 1, 67, 90
3, 3120, Note_on_c, 1, 67, 0
3, 3120, Note_on_c, 1, 69, 90
3, 3130, Note_on_c, 1, 69, 0
3, 3130, Note_on_c, 1, 67, 90
3, 3140, Note_on_c, 1, 67, 0
3, 3140, Note_on_c, 1, 69, 90
3, 3150, Note_on_c, 1, 69, 0
3, 3150, Note_on_c, 1, 67, 90
3, 3160, Note_on_c, 1, 67, 0
3, 3160, Note_on_c, 1, 69, 90
3, 3170, Note_on_c, 1, 69, 0
3, 3170, Note_on_c, 1, 67, 90
3, 3180, Note_on_c, 1, 67, 0
3, 3180, Note_on_c, 1, 69, 90
3, 3190, Note_on_c, 1, 69, 0
3, 3190, Note_on_c, 1, 67, 90
3, 3200, Note_on_c, 1, 67, 0
3, 3200, Note_on_c, 1, 69, 90
3, 3210, Note_on_c, 1, 69, 0
3, 3210, Note_on_c, 1, 67, 90
3, 3240, Note_on_c, 1, 67, 0
3, 3300, Note_on_c, 1, 65, 90
3, 3329, Note_on_c, 1, 65, 0
3, 3330, Note_on_c, 1, 67, 90
3, 3359, Note_on_c, 1, 67, 0
3, 3360, Note_on_c, 1, 65, 90
3, 3389, Note_on_c, 1, 65, 0
3, 3390, Note_on_c, 1, 67, 90
3, 3419, Note_on_c, 1, 67, 0
3, 3420, Note_on_c, 1, 65, 90
3, 3599, Note_on_c, 1, 65, 0
3, 3660, Note_on_c, 1, 60, 90
3, 3719, Note_on_c, 1, 60, 0
3, 3720, Note_on_c, 1, 60, 90
3, 3779, Note_on_c, 1, 60, 0
3, 3780, Note_on_c, 1, 60, 90
3, 3839, Note_on_c, 1, 60, 0
3, 3840, Note_on_c, 1, 72, 90
3, 3899, Note_on_c, 1, 72, 0
3, 3960, Note_on_c, 1, 69, 90
3, 4019, Note_on_c, 1, 69, 0
3, 4020, Note_on_c, 1, 65, 90
3, 4079, Note_on_c, 1, 65, 0
3, 4080, Note_on_c, 1, 60, 90
3, 4139, Note_on_c, 1, 60, 0
3, 4140, Note_on_c, 1, 57, 90
3, 4319, Note_on_c, 1, 57, 0
3, 4680, Note_on_c, 1, 65, 90
3, 4739, Note_on_c, 1, 65, 0
3, 4740, Note_on_c, 1, 67, 90
3, 4799, Note_on_c, 1, 67, 0
3, 4800, Note_on_c, 1, 69, 90
3, 4859, Note_on_c, 1, 69, 0
3, 4860, Note_on_c, 1, 70, 90
3, 4889, Note_on_c, 1, 70, 0
3, 4920, Note_on_c, 1, 69, 90
3, 4949, Note_on_c, 1, 69, 0
3, 5580, Note_on_c, 1, 70, 90
3, 5639, Note_on_c, 1, 70, 0
3, 5640, Note_on_c, 1, 69, 90
3, 5699, Note_on_c, 1, 69, 0
3, 5700, Note_on_c, 1, 65, 90
3, 5759, Note_on_c, 1, 65, 0
3, 6300, Note_on_c, 1, 67, 90
3, 6359, Note_on_c, 1, 67, 0
3, 6360, Note_on_c, 1, 65, 90
3, 6419, Note_on_c, 1, 65, 0
3, 6420, Note_on_c, 1, 60, 90
3, 6479, Note_on_c, 1, 60, 0
3, 6480, Note_on_c, 1, 53, 90
3, 6539, Note_on_c, 1, 53, 0
3, 6540, Note_on_c, 1, 53, 90
3, 6599, Note_on_c, 1, 53, 0
3, 6600, Note_on_c, 1, 53, 90
3, 6659, Note_on_c, 1, 53, 0
3, 6660, Note_on_c, 1, 53, 90
3, 6719, Note_on_c, 1, 53, 0
3, 6720, Note_on_c, 1, 53, 90
3, 6779, Note_on_c, 1, 53, 0
3, 6780, Note_on_c, 1, 53, 90
3, 6839, Note_on_c, 1, 53, 0
3, 6840, Note_on_c, 1, 53, 90
3, 6899, Note_on_c, 1, 53, 0
3, 6900, Note_on_c, 1, 53, 90
3, 6959, Note_on_c, 1, 53, 0
3, 6960, Note_on_c, 1, 53, 90
3, 7019, Note_on_c, 1, 53, 0
3, 7020, Note_on_c, 1, 53, 90
3, 7079, Note_on_c, 1, 53, 0
3, 7110, Note_on_c, 1, 65, 90
3, 7139, Note_on_c, 1, 65, 0
3, 7140, Note_on_c, 1, 67, 90
3, 7169, Note_on_c, 1, 67, 0
3, 7170, Note_on_c, 1, 69, 90
3, 7199, Note_on_c, 1, 69, 0
3, 7200, Note_on_c, 1, 70, 90
3, 7259, Note_on_c, 1, 70, 0
3, 7260, Note_on_c, 1, 67, 90
3, 7319, Note_on_c, 1, 67, 0
3, 7320, Note_on_c, 1, 60, 90
3, 7379, Note_on_c, 1, 60, 0
3, 7380, Note_on_c, 1, 53, 90
3, 7439, Note_on_c, 1, 53, 0
3, 7440, Note_on_c, 1, 57, 90
3, 7499, Note_on_c, 1, 57, 0
3, 7500, Note_on_c, 1, 60, 90
3, 7559, Note_on_c, 1, 60, 0
3, 7560, Note_on_c, 1, 65, 90
3, 7619, Note_on_c, 1, 65, 0
3, 7620, Note_on_c, 1, 65, 90
3, 7649, Note_on_c, 1, 65, 0
3, 7650, Note_on_c, 1, 65, 90
3, 7679, Note_on_c, 1, 65, 0
3, 7680, Note_on_c, 1, 65, 90
3, 7709, Note_on_c, 1, 65, 0
3, 7710, Note_on_c, 1, 65, 90
3, 7739, Note_on_c, 1, 65, 0
3, 7740, Note_on_c, 1, 60, 90
3, 7919, Note_on_c, 1, 60, 0
3, 7920, Note_on_c, 1, 60, 90
3, 7979, Note_on_c, 1, 60, 0
3, 7980, Note_on_c, 1, 60, 90
3, 8039, Note_on_c, 1, 60, 0
3, 8040, Note_on_c, 1, 60, 90
3, 8099, Note_on_c, 1, 60, 0
3, 8100, Note_on_c, 1, 60, 90
3, 8159, Note_on_c, 1, 60, 0
3, 8160, Note_on_c, 1, 60, 90
3, 8219, Note_on_c, 1, 60, 0
3, 8220, Note_on_c, 1, 60, 90
3, 8279, Note_on_c, 1, 60, 0
3, 8280, Note_on_c, 1, 60, 90
3, 8339, Note_on_c, 1, 60, 0
3, 8340, Note_on_c, 1, 65, 90
3, 8399, Note_on_c, 1, 65, 0
3, 8400, Note_on_c, 1, 60, 90
3, 8459, Note_on_c, 1, 60, 0
3, 8460, Note_on_c, 1, 57, 90
3, 8519, Note_on_c, 1, 57, 0
3, 8520, Note_on_c, 1, 60, 90
3, 8579, Note_on_c, 1, 60, 0
3, 8580, Note_on_c, 1, 65, 90
3, 8639, Note_on_c, 1, 65, 0
3, 8640, Note_on_c, 1, 53, 90
3, 8699, Note_on_c, 1, 53, 0
3, 8700, Note_on_c, 1, 53, 90
3, 8759, Note_on_c, 1, 53, 0
3, 8760, Note_on_c, 1, 53, 90
3, 8819, Note_on_c, 1, 53, 0
3, 8820, Note_on_c, 1, 53, 90
3, 8879, Note_on_c, 1, 53, 0
3, 8880, Note_on_c, 1, 53, 90
3, 8939, Note_on_c, 1, 53, 0
3, 8940, Note_on_c, 1, 53, 90
3, 8999, Note_on_c, 1, 53, 0
3, 9000, Note_on_c, 1, 53, 90
3, 9119, Note_on_c, 1, 53, 0
3, 9120, Note_on_c, 1, 65, 90
3, 9179, Note_on_c, 1, 65, 0
3, 9180, Note_on_c, 1, 65, 90
3, 9239, Note_on_c, 1, 65, 0
3, 9240, Note_on_c, 1, 69, 90
3, 9299, Note_on_c, 1, 69, 0
3, 9300, Note_on_c, 1, 70, 90
3, 9359, Note_on_c, 1, 70, 0
3, 9420, Note_on_c, 1, 70, 90
3, 9449, Note_on_c, 1, 70, 0
3, 9450, Note_on_c, 1, 72, 90
3, 9479, Note_on_c, 1, 72, 0
3, 9480, Note_on_c, 1, 70, 90
3, 9509, Note_on_c, 1, 70, 0
3, 9510, Note_on_c, 1, 72, 90
3, 9539, Note_on_c, 1, 72, 0
3, 9540, Note_on_c, 1, 70, 90
3, 9659, Note_on_c, 1, 70, 0
3, 9780, Note_on_c, 1, 69, 90
3, 9809, Note_on_c, 1, 69, 0
3, 9810, Note_on_c, 1, 70, 90
3, 9839, Note_on_c, 1, 70, 0
3, 9840, Note_on_c, 1, 69, 90
3, 9869, Note_on_c, 1, 69, 0
3, 9870, Note_on_c, 1, 70, 90
3, 9899, Note_on_c, 1, 70, 0
3, 9900, Note_on_c, 1, 69, 90
3, 10019, Note_on_c, 1, 69, 0
3, 10140, Note_on_c, 1, 67, 90
3, 10169, Note_on_c, 1, 67, 0
3, 10170, Note_on_c, 1, 69, 90
3, 10199, Note_on_c, 1, 69, 0
3, 10200, Note_on_c, 1, 67, 90
3, 10229, Note_on_c, 1, 67, 0
3, 10230, Note_on_c, 1, 69, 90
3, 10259, Note_on_c, 1, 69, 0
3, 10260, Note_on_c, 1, 67, 90
3, 10379, Note_on_c, 1, 67, 0
3, 10440, Note_on_c, 1, 65, 90
3, 10559, Note_on_c, 1, 65, 0
3, 10560, Note_on_c, 1, 67, 90
3, 10619, Note_on_c, 1, 67, 0
3, 10620, Note_on_c, 1, 67, 90
3, 10739, Note_on_c, 1, 67, 0
3, 11160, Note_on_c, 1, 67, 90
3, 11219, Note_on_c, 1, 67, 0
3, 11220, Note_on_c, 1, 65, 90
3, 11279, Note_on_c, 1, 65, 0
3, 11280, Note_on_c, 1, 60, 90
3, 11339, Note_on_c, 1, 60, 0
3, 11340, Note_on_c, 1, 53, 90
3, 11369, Note_on_c, 1, 53, 0
3, 11370, Note_on_c, 1, 57, 90
3, 11399, Note_on_c, 1, 57, 0
3, 11400, Note_on_c, 1, 60, 90
3, 11429, Note_on_c, 1, 60, 0
3, 12060, Note_on_c, 1, 65, 90
3, 12119, Note_on_c, 1, 65, 0
3, 12120, Note_on_c, 1, 60, 90
3, 12179, Note_on_c, 1, 60, 0
3, 12180, Note_on_c, 1, 57, 90
3, 12239, Note_on_c, 1, 57, 0
3, 12780, Note_on_c, 1, 67, 90
3, 12839, Note_on_c, 1, 67, 0
3, 12840, Note_on_c, 1, 67, 90
3, 12869, Note_on_c, 1, 67, 0
3, 12870, Note_on_c, 1, 67, 90
3, 12899, Note_on_c, 1, 67, 0
3, 12900, Note_on_c, 1, 67, 90
3, 12929, Note_on_c, 1, 67, 0
3, 12930, Note_on_c, 1, 67, 90
3, 12959, Note_on_c, 1, 67, 0
3, 12960, Note_on_c, 1, 67, 90
3, 13079, Note_on_c, 1, 67, 0
3, 13080, Note_on_c, 1, 69, 90
3, 13139, Note_on_c, 1, 69, 0
3, 13140, Note_on_c, 1, 67, 90
3, 13259, Note_on_c, 1, 67, 0
3, 13260, Note_on_c, 1, 60, 90
3, 13319, Note_on_c, 1, 60, 0
3, 13320, Note_on_c, 1, 60, 90
3, 13379, Note_on_c, 1, 60, 0
3, 13380, Note_on_c, 1, 60, 90
3, 13439, Note_on_c, 1, 60, 0
3, 13440, Note_on_c, 1, 60, 90
3, 13499, Note_on_c, 1, 60, 0
3, 13500, Note_on_c, 1, 60, 90
3, 13559, Note_on_c, 1, 60, 0
3, 13560, Note_on_c, 1, 60, 90
3, 13619, Note_on_c, 1, 60, 0
3, 13620, Note_on_c, 1, 60, 90
3, 13679, Note_on_c, 1, 60, 0
3, 13680, Note_on_c, 1, 60, 90
3, 13739, Note_on_c, 1, 60, 0
3, 13740, Note_on_c, 1, 65, 90
3, 13799, Note_on_c, 1, 65, 0
3, 13800, Note_on_c, 1, 69, 90
3, 13859, Note_on_c, 1, 69, 0
3, 13860, Note_on_c, 1, 74, 90
3, 13919, Note_on_c, 1, 74, 0
3, 13920, Note_on_c, 1, 67, 90
3, 13979, Note_on_c, 1, 67, 0
3, 13980, Note_on_c, 1, 65, 90
3, 14039, Note_on_c, 1, 65, 0
3, 14040, Note_on_c, 1, 67, 90
3, 14099, Note_on_c, 1, 67, 0
3, 14100, Note_on_c, 1, 69, 90
3, 14159, Note_on_c, 1, 69, 0
3, 14160, Note_on_c, 1, 67, 90
3, 14219, Note_on_c, 1, 67, 0
3, 14220, Note_on_c, 1, 67, 90
3, 14339, Note_on_c, 1, 67, 0
3, 14760, Note_on_c, 1, 67, 90
3, 14879, Note_on_c, 1, 67, 0
3, 14880, Note_on_c, 1, 71, 90
3, 14939, Note_on_c, 1, 71, 0
3, 14940, Note_on_c, 1, 72, 90
3, 14999, Note_on_c, 1, 72, 0
3, 15000, Note_on_c, 1, 71, 90
3, 15059, Note_on_c, 1, 71, 0
3, 15060, Note_on_c, 1, 72, 90
3, 15119, Note_on_c, 1, 72, 0
3, 15120, Note_on_c, 1, 67, 90
3, 15135, Note_on_c, 1, 67, 0
3, 15150, Note_on_c, 1, 60, 90
3, 15165, Note_on_c, 1, 60, 0
3, 15180, Note_on_c, 1, 60, 90
3, 15195, Note_on_c, 1, 60, 0
3, 15210, Note_on_c, 1, 67, 90
3, 15225, Note_on_c, 1, 67, 0
3, 15240, Note_on_c, 1, 69, 90
3, 15255, Note_on_c, 1, 69, 0
3, 15270, Note_on_c, 1, 65, 90
3, 15285, Note_on_c, 1, 65, 0
3, 15300, Note_on_c, 1, 67, 90
3, 15315, Note_on_c, 1, 67, 0
3, 15330, Note_on_c, 1, 60, 90
3, 15345, Note_on_c, 1, 60, 0
3, 15360, Note_on_c, 1, 60, 90
3, 15375, Note_on_c, 1, 60, 0
3, 15390, Note_on_c, 1, 67, 90
3, 15405, Note_on_c, 1, 67, 0
3, 15420, Note_on_c, 1, 65, 90
3, 15435, Note_on_c, 1, 65, 0
3, 15450, Note_on_c, 1, 60, 90
3, 15465, Note_on_c, 1, 60, 0
3, 15480, Note_on_c, 1, 57, 90
3, 15539, Note_on_c, 1, 57, 0
3, 15540, Note_on_c, 1, 57, 90
3, 15599, Note_on_c, 1, 57, 0
3, 15600, Note_on_c, 1, 57, 90
3, 15659, Note_on_c, 1, 57, 0
3, 15660, Note_on_c, 1, 57, 90
3, 15719, Note_on_c, 1, 57, 0
3, 15720, Note_on_c, 1, 57, 90
3, 15779, Note_on_c, 1, 57, 0
3, 15780, Note_on_c, 1, 57, 90
3, 15839, Note_on_c, 1, 57, 0
3, 15900, Note_on_c, 1, 74, 90
3, 15929, Note_on_c, 1, 74, 0
3, 15930, Note_on_c, 1, 76, 90
3, 15959, Note_on_c, 1, 76, 0
3, 15960, Note_on_c, 1, 74, 90
3, 15989, Note_on_c, 1, 74, 0
3, 15990, Note_on_c, 1, 76, 90
3, 16019, Note_on_c, 1, 76, 0
3, 16020, Note_on_c, 1, 74, 90
3, 16139, Note_on_c, 1, 74, 0
3, 16260, Note_on_c, 1, 72, 90
3, 16289, Note_on_c, 1, 72, 0
3, 16290, Note_on_c, 1, 74, 90
3, 16319, Note_on_c, 1, 74, 0
3, 16320, Note_on_c, 1, 72, 90
3, 16349, Note_on_c, 1, 72, 0
3, 16350, Note_on_c, 1, 74, 90
3, 16379, Note_on_c, 1, 74, 0
3, 16380, Note_on_c, 1, 72, 90
3, 16499, Note_on_c, 1, 72, 0
3, 16620, Note_on_c, 1, 67, 90
3, 16679, Note_on_c, 1, 67, 0
3, 16680, Note_on_c, 1, 67, 90
3, 16739, Note_on_c, 1, 67, 0
3, 16740, Note_on_c, 1, 67, 90
3, 16799, Note_on_c, 1, 67, 0
3, 16800, Note_on_c, 1, 60, 90
3, 16859, Note_on_c, 1, 60, 0
3, 16860, Note_on_c, 1, 67, 90
3, 16919, Note_on_c, 1, 67, 0
3, 16920, Note_on_c, 1, 72, 90
3, 16979, Note_on_c, 1, 72, 0
3, 16980, Note_on_c, 1, 60, 90
3, 17039, Note_on_c, 1, 60, 0
3, 17040, Note_on_c, 1, 67, 90
3, 17099, Note_on_c, 1, 67, 0
3, 17100, Note_on_c, 1, 67, 90
3, 17219, Note_on_c, 1, 67, 0
3, 18720, Note_on_c, 1, 57, 90
3, 18779, Note_on_c, 1, 57, 0
3, 18780, Note_on_c, 1, 57, 90
3, 18839, Note_on_c, 1, 57, 0
3, 18840, Note_on_c, 1, 57, 90
3, 18899, Note_on_c, 1, 57, 0
3, 18900, Note_on_c, 1, 57, 90
3, 18959, Note_on_c, 1, 57, 0
3, 18960, Note_on_c, 1, 57, 90
3, 19019, Note_on_c, 1, 57, 0
3, 19020, Note_on_c, 1, 57, 90
3, 19079, Note_on_c, 1, 57, 0
3, 19440, Note_on_c, 1, 67, 90
3, 19499, Note_on_c, 1, 67, 0
3, 19500, Note_on_c, 1, 67, 90
3, 19559, Note_on_c, 1, 67, 0
3, 19560, Note_on_c, 1, 67, 90
3, 19619, Note_on_c, 1, 67, 0
3, 19620, Note_on_c, 1, 67, 90
3, 19679, Note_on_c, 1, 67, 0
3, 19680, Note_on_c, 1, 67, 90
3, 19739, Note_on_c, 1, 67, 0
3, 19740, Note_on_c, 1, 67, 90
3, 19799, Note_on_c, 1, 67, 0
3, 19980, Note_on_c, 1, 69, 90
3, 20339, Note_on_c, 1, 69, 0
3, 20340, Note_on_c, 1, 67, 90
3, 20699, Note_on_c, 1, 67, 0
3, 20700, Note_on_c, 1, 65, 90
3, 20879, Note_on_c, 1, 65, 0
3, 21600, Note_on_c, 1, 57, 90
3, 21659, Note_on_c, 1, 57, 0
3, 21660, Note_on_c, 1, 57, 90
3, 21719, Note_on_c, 1, 57, 0
3, 21720, Note_on_c, 1, 57, 90
3, 21779, Note_on_c, 1, 57, 0
3, 21780, Note_on_c, 1, 57, 90
3, 21839, Note_on_c, 1, 57, 0
3, 21840, Note_on_c, 1, 57, 90
3, 21899, Note_on_c, 1, 57, 0
3, 21900, Note_on_c, 1, 57, 90
3, 21959, Note_on_c, 1, 57, 0
3, 22320, Note_on_c, 1, 60, 90
3, 22379, Note_on_c, 1, 60, 0
3, 22380, Note_on_c, 1, 60, 90
3, 22439, Note_on_c, 1, 60, 0
3, 22440, Note_on_c, 1, 60, 90
3, 22499, Note_on_c, 1, 60, 0
3, 22500, Note_on_c, 1, 60, 90
3, 22559, Note_on_c, 1, 60, 0
3, 22560, Note_on_c, 1, 60, 90
3, 22619, Note_on_c, 1, 60, 0
3, 22620, Note_on_c, 1, 60, 90
3, 22679, Note_on_c, 1, 60, 0
3, 23100, Note_on_c, 1, 74, 90
3, 23129, Note_on_c, 1, 74, 0
3, 23130, Note_on_c, 1, 76, 90
3, 23159, Note_on_c, 1, 76, 0
3, 23160, Note_on_c, 1, 74, 90
3, 23189, Note_on_c, 1, 74, 0
3, 23190, Note_on_c, 1, 76, 90
3, 23219, Note_on_c, 1, 76, 0
3, 23220, Note_on_c, 1, 74, 90
3, 23339, Note_on_c, 1, 74, 0
3, 23460, Note_on_c, 1, 72, 90
3, 23489, Note_on_c, 1, 72, 0
3, 23490, Note_on_c, 1, 74, 90
3, 23519, Note_on_c, 1, 74, 0
3, 23520, Note_on_c, 1, 72, 90
3, 23549, Note_on_c, 1, 72, 0
3, 23550, Note_on_c, 1, 74, 90
3, 23579, Note_on_c, 1, 74, 0
3, 23580, Note_on_c, 1, 72, 90
3, 23699, Note_on_c, 1, 72, 0
3, 23820, Note_on_c, 1, 70, 90
3, 23849, Note_on_c, 1, 70, 0
3, 23850, Note_on_c, 1, 72, 90
3, 23879, Note_on_c, 1, 72, 0
3, 23880, Note_on_c, 1, 70, 90
3, 23909, Note_on_c, 1, 70, 0
3, 23910, Note_on_c, 1, 72, 90
3, 23939, Note_on_c, 1, 72, 0
3, 23940, Note_on_c, 1, 70, 90
3, 23999, Note_on_c, 1, 70, 0
3, 24180, Note_on_c, 1, 70, 90
3, 24209, Note_on_c, 1, 70, 0
3, 24210, Note_on_c, 1, 69, 90
3, 24239, Note_on_c, 1, 69, 0
3, 24240, Note_on_c, 1, 67, 90
3, 24269, Note_on_c, 1, 67, 0
3, 24270, Note_on_c, 1, 69, 90
3, 24299, Note_on_c, 1, 69, 0
3, 24300, Note_on_c, 1, 65, 90
3, 24419, Note_on_c, 1, 65, 0
3, 26280, Note_on_c, 1, 65, 90
3, 26309, Note_on_c, 1, 65, 0
3, 26310, Note_on_c, 1, 64, 90
3, 26339, Note_on_c, 1, 64, 0
3, 26340, Note_on_c, 1, 65, 90
3, 26369, Note_on_c, 1, 65, 0
3, 26370, Note_on_c, 1, 67, 90
3, 26399, Note_on_c, 1, 67, 0
3, 26400, Note_on_c, 1, 69, 90
3, 26429, Note_on_c, 1, 69, 0
3, 26430, Note_on_c, 1, 67, 90
3, 26459, Note_on_c, 1, 67, 0
3, 26460, Note_on_c, 1, 65, 90
3, 26489, Note_on_c, 1, 65, 0
3, 26490, Note_on_c, 1, 67, 90
3, 26519, Note_on_c, 1, 67, 0
3, 26520, Note_on_c, 1, 69, 90
3, 26549, Note_on_c, 1, 69, 0
3, 26550, Note_on_c, 1, 67, 90
3, 26579, Note_on_c, 1, 67, 0
3, 26580, Note_on_c, 1, 65, 90
3, 26609, Note_on_c, 1, 65, 0
3, 26610, Note_on_c, 1, 69, 90
3, 26639, Note_on_c, 1, 69, 0
3, 26640, Note_on_c, 1, 71, 90
3, 26669, Note_on_c, 1, 71, 0
3, 26670, Note_on_c, 1, 69, 90
3, 26699, Note_on_c, 1, 69, 0
3, 26700, Note_on_c, 1, 71, 90
3, 26729, Note_on_c, 1, 71, 0
3, 26730, Note_on_c, 1, 72, 90
3, 26759, Note_on_c, 1, 72, 0
3, 26760, Note_on_c, 1, 69, 90
3, 26789, Note_on_c, 1, 69, 0
3, 26790, Note_on_c, 1, 72, 90
3, 26819, Note_on_c, 1, 72, 0
3, 26820, Note_on_c, 1, 71, 90
3, 26849, Note_on_c, 1, 71, 0
3, 26850, Note_on_c, 1, 72, 90
3, 26879, Note_on_c, 1, 72, 0
3, 26880, Note_on_c, 1, 74, 90
3, 26909, Note_on_c, 1, 74, 0
3, 26910, Note_on_c, 1, 72, 90
3, 26939, Note_on_c, 1, 72, 0
3, 26940, Note_on_c, 1, 71, 90
3, 26969, Note_on_c, 1, 71, 0
3, 26970, Note_on_c, 1, 69, 90
3, 26999, Note_on_c, 1, 69, 0
3, 27000, Note_on_c, 1, 67, 90
3, 27059, Note_on_c, 1, 67, 0
3, 27060, Note_on_c, 1, 72, 90
3, 27089, Note_on_c, 1, 72, 0
3, 27090, Note_on_c, 1, 74, 90
3, 27119, Note_on_c, 1, 74, 0
3, 27120, Note_on_c, 1, 71, 90
3, 27149, Note_on_c, 1, 71, 0
3, 27150, Note_on_c, 1, 74, 90
3, 27179, Note_on_c, 1, 74, 0
3, 27180, Note_on_c, 1, 72, 90
3, 27209, Note_on_c, 1, 72, 0
3, 27210, Note_on_c, 1, 74, 90
3, 27239, Note_on_c, 1, 74, 0
3, 27240, Note_on_c, 1, 76, 90
3, 27269, Note_on_c, 1, 76, 0
3, 27270, Note_on_c, 1, 74, 90
3, 27299, Note_on_c, 1, 74, 0
3, 27300, Note_on_c, 1, 72, 90
3, 27329, Note_on_c, 1, 72, 0
3, 27330, Note_on_c, 1, 71, 90
3, 27359, Note_on_c, 1, 71, 0
3, 27360, Note_on_c, 1, 69, 90
3, 27719, Note_on_c, 1, 69, 0
3, 27720, Note_on_c, 1, 67, 90
3, 28079, Note_on_c, 1, 67, 0
3, 28080, Note_on_c, 1, 65, 90
3, 28199, Note_on_c, 1, 65, 0
3, 28200, Note_on_c, 1, 60, 90
3, 28259, Note_on_c, 1, 60, 0
3, 28260, Note_on_c, 1, 53, 90
3, 28319, Note_on_c, 1, 53, 0
3, 28320, Note_on_c, 1, 65, 90
3, 28379, Note_on_c, 1, 65, 0
3, 28380, Note_on_c, 1, 60, 90
3, 28439, Note_on_c, 1, 60, 0
3, 28440, Note_on_c, 1, 69, 90
3, 28499, Note_on_c, 1, 69, 0
3, 28620, Note_on_c, 1, 60, 90
3, 28739, Note_on_c, 1, 60, 0
3, 29160, Note_on_c, 1, 67, 90
3, 29175, Note_on_c, 1, 67, 0
3, 29190, Note_on_c, 1, 60, 90
3, 29205, Note_on_c, 1, 60, 0
3, 29220, Note_on_c, 1, 60, 90
3, 29235, Note_on_c, 1, 60, 0
3, 29250, Note_on_c, 1, 67, 90
3, 29265, Note_on_c, 1, 67, 0
3, 29280, Note_on_c, 1, 69, 90
3, 29295, Note_on_c, 1, 69, 0
3, 29310, Note_on_c, 1, 65, 90
3, 29325, Note_on_c, 1, 65, 0
3, 29340, Note_on_c, 1, 67, 90
3, 29355, Note_on_c, 1, 67, 0
3, 29370, Note_on_c, 1, 60, 90
3, 29385, Note_on_c, 1, 60, 0
3, 29400, Note_on_c, 1, 60, 90
3, 29415, Note_on_c, 1, 60, 0
3, 29430, Note_on_c, 1, 67, 90
3, 29445, Note_on_c, 1, 67, 0
3, 29460, Note_on_c, 1, 65, 90
3, 29475, Note_on_c, 1, 65, 0
3, 29490, Note_on_c, 1, 60, 90
3, 29505, Note_on_c, 1, 60, 0
3, 29880, Note_on_c, 1, 53, 90
3, 29939, Note_on_c, 1, 53, 0
3, 29940, Note_on_c, 1, 53, 90
3, 29999, Note_on_c, 1, 53, 0
3, 30000, Note_on_c, 1, 53, 90
3, 30059, Note_on_c, 1, 53, 0
3, 30060, Note_on_c, 1, 53, 90
3, 30119, Note_on_c, 1, 53, 0
3, 30120, Note_on_c, 1, 53, 90
3, 30179, Note_on_c, 1, 53, 0
3, 30180, Note_on_c, 1, 53, 90
3, 30239, Note_on_c, 1, 53, 0
3, 30240, Note_on_c, 1, 65, 90
3, 30299, Note_on_c, 1, 65, 0
3, 30300, Note_on_c, 1, 67, 90
3, 30359, Note_on_c, 1, 67, 0
3, 30360, Note_on_c, 1, 60, 90
3, 30419, Note_on_c, 1, 60, 0
3, 30420, Note_on_c, 1, 53, 90
3, 30479, Note_on_c, 1, 53, 0
3, 30480, Note_on_c, 1, 60, 90
3, 30539, Note_on_c, 1, 60, 0
3, 30540, Note_on_c, 1, 67, 90
3, 30599, Note_on_c, 1, 67, 0
3, 30600, Note_on_c, 1, 65, 90
3, 30659, Note_on_c, 1, 65, 0
3, 30660, Note_on_c, 1, 65, 90
3, 30689, Note_on_c, 1, 65, 0
3, 30690, Note_on_c, 1, 65, 90
3, 30719, Note_on_c, 1, 65, 0
3, 30720, Note_on_c, 1, 65, 90
3, 30749, Note_on_c, 1, 65, 0
3, 30750, Note_on_c, 1, 65, 90
3, 30779, Note_on_c, 1, 65, 0
3, 30780, Note_on_c, 1, 60, 90
3, 30899, Note_on_c, 1, 60, 0
3, 31500, Note_on_c, 1, 69, 90
3, 31559, Note_on_c, 1, 69, 0
3, 31560, Note_on_c, 1, 67, 90
3, 31619, Note_on_c, 1, 67, 0
3, 31620, Note_on_c, 1, 65, 90
3, 31679, Note_on_c, 1, 65, 0
3, 32220, Note_on_c, 1, 69, 90
3, 32279, Note_on_c, 1, 69, 0
3, 32280, Note_on_c, 1, 67, 90
3, 32339, Note_on_c, 1, 67, 0
3, 32340, Note_on_c, 1, 65, 90
3, 32399, Note_on_c, 1, 65, 0
3, 33840, Note_on_c, 1, 60, 90
3, 33898, Note_on_c, 1, 60, 0
3, 33900, Note_on_c, 1, 60, 90
3, 33958, Note_on_c, 1, 60, 0
3, 33960, Note_on_c, 1, 60, 90
3, 34018, Note_on_c, 1, 60, 0
3, 34020, Note_on_c, 1, 60, 90
3, 34078, Note_on_c, 1, 60, 0
3, 34080, Note_on_c, 1, 60, 90
3, 34138, Note_on_c, 1, 60, 0
3, 34140, Note_on_c, 1, 60, 90
3, 34198, Note_on_c, 1, 60, 0
3, 34200, Note_on_c, 1, 60, 90
3, 34258, Note_on_c, 1, 60, 0
3, 34260, Note_on_c, 1, 65, 90
3, 34318, Note_on_c, 1, 65, 0
3, 34320, Note_on_c, 1, 60, 90
3, 34378, Note_on_c, 1, 60, 0
3, 34380, Note_on_c, 1, 53, 90
3, 34438, Note_on_c, 1, 53, 0
3, 34440, Note_on_c, 1, 60, 90
3, 34498, Note_on_c, 1, 60, 0
3, 34500, Note_on_c, 1, 65, 90
3, 34558, Note_on_c, 1, 65, 0
3, 34560, Note_on_c, 1, 53, 90
3, 34618, Note_on_c, 1, 53, 0
3, 34620, Note_on_c, 1, 53, 90
3, 34678, Note_on_c, 1, 53, 0
3, 34680, Note_on_c, 1, 53, 90
3, 34738, Note_on_c, 1, 53, 0
3, 34740, Note_on_c, 1, 53, 90
3, 34798, Note_on_c, 1, 53, 0
3, 34800, Note_on_c, 1, 53, 90
3, 34858, Note_on_c, 1, 53, 0
3, 34860, Note_on_c, 1, 53, 90
3, 34918, Note_on_c, 1, 53, 0
3, 34920, Note_on_c, 1, 53, 90
3, 35039, Note_on_c, 1, 53, 0
3, 35040, Note_on_c, 1, 65, 90
3, 35099, Note_on_c, 1, 65, 0
3, 35100, Note_on_c, 1, 65, 90
3, 35159, Note_on_c, 1, 65, 0
3, 35160, Note_on_c, 1, 69, 90
3, 35219, Note_on_c, 1, 69, 0
3, 35220, Note_on_c, 1, 70, 90
3, 35279, Note_on_c, 1, 70, 0
3, 35340, Note_on_c, 1, 70, 90
3, 35369, Note_on_c, 1, 70, 0
3, 35370, Note_on_c, 1, 72, 90
3, 35399, Note_on_c, 1, 72, 0
3, 35400, Note_on_c, 1, 70, 90
3, 35429, Note_on_c, 1, 70, 0
3, 35430, Note_on_c, 1, 72, 90
3, 35459, Note_on_c, 1, 72, 0
3, 35460, Note_on_c, 1, 70, 90
3, 35579, Note_on_c, 1, 70, 0
3, 35700, Note_on_c, 1, 69, 90
3, 35729, Note_on_c, 1, 69, 0
3, 35730, Note_on_c, 1, 70, 90
3, 35759, Note_on_c, 1, 70, 0
3, 35760, Note_on_c, 1, 69, 90
3, 35789, Note_on_c, 1, 69, 0
3, 35790, Note_on_c, 1, 70, 90
3, 35819, Note_on_c, 1, 70, 0
3, 35820, Note_on_c, 1, 69, 90
3, 35939, Note_on_c, 1, 69, 0
3, 36060, Note_on_c, 1, 67, 90
3, 36089, Note_on_c, 1, 67, 0
3, 36090, Note_on_c, 1, 69, 90
3, 36119, Note_on_c, 1, 69, 0
3, 36120, Note_on_c, 1, 67, 90
3, 36149, Note_on_c, 1, 67, 0
3, 36150, Note_on_c, 1, 69, 90
3, 36179, Note_on_c, 1, 69, 0
3, 36180, Note_on_c, 1, 67, 90
3, 36299, Note_on_c, 1, 67, 0
3, 36420, Note_on_c, 1, 65, 90
3, 36479, Note_on_c, 1, 65, 0
3, 36480, Note_on_c, 1, 67, 90
3, 36539, Note_on_c, 1, 67, 0
3, 36540, Note_on_c, 1, 60, 90
3, 36659, Note_on_c, 1, 60, 0
3, 37080, Note_on_c, 1, 65, 90
3, 37139, Note_on_c, 1, 65, 0
3, 37140, Note_on_c, 1, 67, 90
3, 37199, Note_on_c, 1, 67, 0
3, 37200, Note_on_c, 1, 69, 90
3, 37259, Note_on_c, 1, 69, 0
3, 37260, Note_on_c, 1, 70, 90
3, 37289, Note_on_c, 1, 70, 0
3, 37320, Note_on_c, 1, 69, 90
3, 37349, Note_on_c, 1, 69, 0
3, 37980, Note_on_c, 1, 60, 90
3, 38039, Note_on_c, 1, 60, 0
3, 38040, Note_on_c, 1, 53, 90
3, 38099, Note_on_c, 1, 53, 0
3, 38100, Note_on_c, 1, 65, 90
3, 38159, Note_on_c, 1, 65, 0
3, 38160, Note_on_c, 1, 65, 90
3, 38279, Note_on_c, 1, 65, 0
3, 38700, Note_on_c, 1, 69, 90
3, 38759, Note_on_c, 1, 69, 0
3, 38760, Note_on_c, 1, 67, 90
3, 38819, Note_on_c, 1, 67, 0
3, 38820, Note_on_c, 1, 65, 90
3, 38879, Note_on_c, 1, 65, 0
3, 39600, Note_on_c, 1, 65, 90
3, 39719, Note_on_c, 1, 65, 0
3, 39720, Note_on_c, 1, 65, 90
3, 39779, Note_on_c, 1, 65, 0
3, 39780, Note_on_c, 1, 67, 90
3, 39839, Note_on_c, 1, 67, 0
3, 39840, Note_on_c, 1, 60, 90
3, 39899, Note_on_c, 1, 60, 0
3, 39900, Note_on_c, 1, 57, 90
3, 39959, Note_on_c, 1, 57, 0
3, 39960, Note_on_c, 1, 65, 90
3, 40019, Note_on_c, 1, 65, 0
3, 40020, Note_on_c, 1, 60, 90
3, 40049, Note_on_c, 1, 60, 0
3, 40050, Note_on_c, 1, 57, 90
3, 40079, Note_on_c, 1, 57, 0
3, 40080, Note_on_c, 1, 60, 90
3, 40139, Note_on_c, 1, 60, 0
3, 40140, Note_on_c, 1, 57, 90
3, 40259, Note_on_c, 1, 57, 0
3, 40320, Note_on_c, 1, 67, 90
3, 40335, Note_on_c, 1, 67, 0
3, 40350, Note_on_c, 1, 60, 90
3, 40365, Note_on_c, 1, 60, 0
3, 40380, Note_on_c, 1, 60, 90
3, 40395, Note_on_c, 1, 60, 0
3, 40410, Note_on_c, 1, 67, 90
3, 40425, Note_on_c, 1, 67, 0
3, 40440, Note_on_c, 1, 69, 90
3, 40455, Note_on_c, 1, 69, 0
3, 40470, Note_on_c, 1, 65, 90
3, 40485, Note_on_c, 1, 65, 0
3, 40500, Note_on_c, 1, 67, 90
3, 40515, Note_on_c, 1, 67, 0
3, 40530, Note_on_c, 1, 60, 90
3, 40545, Note_on_c, 1, 60, 0
3, 40560, Note_on_c, 1, 60, 90
3, 40575, Note_on_c, 1, 60, 0
3, 40590, Note_on_c, 1, 67, 90
3, 40605, Note_on_c, 1, 67, 0
3, 40620, Note_on_c, 1, 65, 90
3, 40635, Note_on_c, 1, 65, 0
3, 40650, Note_on_c, 1, 60, 90
3, 40665, Note_on_c, 1, 60, 0
3, 40680, Note_on_c, 1, 60, 90
3, 40739, Note_on_c, 1, 60, 0
3, 40740, Note_on_c, 1, 65, 90
3, 40799, Note_on_c, 1, 65, 0
3, 40800, Note_on_c, 1, 60, 90
3, 40859, Note_on_c, 1, 60, 0
3, 40860, Note_on_c, 1, 57, 90
3, 40919, Note_on_c, 1, 57, 0
3, 40920, Note_on_c, 1, 60, 90
3, 40979, Note_on_c, 1, 60, 0
3, 40980, Note_on_c, 1, 65, 90
3, 41039, Note_on_c, 1, 65, 0
3, 41040, Note_on_c, 1, 53, 90
3, 41099, Note_on_c, 1, 53, 0
3, 41100, Note_on_c, 1, 53, 90
3, 41159, Note_on_c, 1, 53, 0
3, 41160, Note_on_c, 1, 53, 90
3, 41219, Note_on_c, 1, 53, 0
3, 41220, Note_on_c, 1, 53, 90
3, 41279, Note_on_c, 1, 53, 0
3, 41280, Note_on_c, 1, 53, 90
3, 41339, Note_on_c, 1, 53, 0
3, 41340, Note_on_c, 1, 53, 90
3, 41399, Note_on_c, 1, 53, 0
3, 41820, Note_on_c, 1, 67, 90
3, 41849, Note_on_c, 1, 67, 0
3, 41850, Note_on_c, 1, 69, 90
3, 41879, Note_on_c, 1, 69, 0
3, 41880, Note_on_c, 1, 67, 90
3, 41909, Note_on_c, 1, 67, 0
3, 41910, Note_on_c, 1, 69, 90
3, 41939, Note_on_c, 1, 69, 0
3, 41940, Note_on_c, 1, 67, 90
3, 42119, Note_on_c, 1, 67, 0
3, 42180, Note_on_c, 1, 65, 90
3, 42209, Note_on_c, 1, 65, 0
3, 42210, Note_on_c, 1, 67, 90
3, 42239, Note_on_c, 1, 67, 0
3, 42240, Note_on_c, 1, 65, 90
3, 42269, Note_on_c, 1, 65, 0
3, 42270, Note_on_c, 1, 67, 90
3, 42299, Note_on_c, 1, 67, 0
3, 42300, Note_on_c, 1, 65, 90
3, 42479, Note_on_c, 1, 65, 0
3, 42540, Note_on_c, 1, 60, 90
3, 42599, Note_on_c, 1, 60, 0
3, 42600, Note_on_c, 1, 60, 90
3, 42659, Note_on_c, 1, 60, 0
3, 42660, Note_on_c, 1, 60, 90
3, 42719, Note_on_c, 1, 60, 0
3, 42720, Note_on_c, 1, 72, 90
3, 42779, Note_on_c, 1, 72, 0
3, 42840, Note_on_c, 1, 69, 90
3, 42899, Note_on_c, 1, 69, 0
3, 42900, Note_on_c, 1, 65, 90
3, 42959, Note_on_c, 1, 65, 0
3, 42960, Note_on_c, 1, 60, 90
3, 43019, Note_on_c, 1, 60, 0
3, 43020, Note_on_c, 1, 57, 90
3, 43199, Note_on_c, 1, 57, 0
3, 174360, Note_on_c, 1, 69, 90
3, 174389, Note_on_c, 1, 69, 0
3, 174390, Note_on_c, 1, 67, 90
3, 174419, Note_on_c, 1, 67, 0
3, 174420, Note_on_c, 1, 69, 90
3, 174479, Note_on_c, 1, 69, 0
3, 174480, Note_on_c, 1, 70, 90
3, 174539, Note_on_c, 1, 70, 0
3, 174540, Note_on_c, 1, 70, 90
3, 174599, Note_on_c, 1, 70, 0
3, 174600, Note_on_c, 1, 67, 90
3, 174659, Note_on_c, 1, 67, 0
3, 174660, Note_on_c, 1, 69, 90
3, 174719, Note_on_c, 1, 69, 0
3, 174720, Note_on_c, 1, 65, 90
3, 174779, Note_on_c, 1, 65, 0
3, 174780, Note_on_c, 1, 65, 90
3, 174839, Note_on_c, 1, 65, 0
3, 174840, Note_on_c, 1, 67, 90
3, 174899, Note_on_c, 1, 67, 0
3, 174900, Note_on_c, 1, 67, 90
3, 174959, Note_on_c, 1, 67, 0
3, 174960, Note_on_c, 1, 60, 90
3, 175019, Note_on_c, 1, 60, 0
3, 175020, Note_on_c, 1, 65, 90
3, 175079, Note_on_c, 1, 65, 0
3, 175080, Note_on_c, 1, 72, 90
3, 175109, Note_on_c, 1, 72, 0
3, 175110, Note_on_c, 1, 70, 90
3, 175139, Note_on_c, 1, 70, 0
3, 175140, Note_on_c, 1, 72, 90
3, 175199, Note_on_c, 1, 72, 0
3, 175200, Note_on_c, 1, 60, 90
3, 175259, Note_on_c, 1, 60, 0
3, 175260, Note_on_c, 1, 65, 90
3, 175439, Note_on_c, 1, 65, 0
3, 175440, Note_on_c, 1, 70, 90
3, 175469, Note_on_c, 1, 70, 0
3, 175470, Note_on_c, 1, 69, 90
3, 175499, Note_on_c, 1, 69, 0
3, 175500, Note_on_c, 1, 70, 90
3, 175559, Note_on_c, 1, 70, 0
3, 175560, Note_on_c, 1, 60, 90
3, 175619, Note_on_c, 1, 60, 0
3, 175620, Note_on_c, 1, 60, 90
3, 175679, Note_on_c, 1, 60, 0
3, 175680, Note_on_c, 1, 60, 90
3, 175739, Note_on_c, 1, 60, 0
3, 175740, Note_on_c, 1, 57, 90
3, 175859, Note_on_c, 1, 57, 0
3, 177360, Note_on_c, 1, 65, 90
3, 177389, Note_on_c, 1, 65, 0
3, 177390, Note_on_c, 1, 65, 90
3, 177419, Note_on_c, 1, 65, 0
3, 177420, Note_on_c, 1, 65, 90
3, 177479, Note_on_c, 1, 65, 0
3, 177480, Note_on_c, 1, 65, 90
3, 177539, Note_on_c, 1, 65, 0
3, 177540, Note_on_c, 1, 65, 90
3, 177599, Note_on_c, 1, 65, 0
3, 177600, Note_on_c, 1, 60, 90
3, 177659, Note_on_c, 1, 60, 0
3, 177720, Note_on_c, 1, 60, 90
3, 177749, Note_on_c, 1, 60, 0
3, 177750, Note_on_c, 1, 60, 90
3, 177779, Note_on_c, 1, 60, 0
3, 177780, Note_on_c, 1, 60, 90
3, 177839, Note_on_c, 1, 60, 0
3, 177840, Note_on_c, 1, 60, 90
3, 177899, Note_on_c, 1, 60, 0
3, 177900, Note_on_c, 1, 60, 90
3, 177959, Note_on_c, 1, 60, 0
3, 177960, Note_on_c, 1, 57, 90
3, 178019, Note_on_c, 1, 57, 0
3, 178140, Note_on_c, 1, 65, 90
3, 178319, Note_on_c, 1, 65, 0
3, 178320, Note_on_c, 1, 70, 90
3, 178349, Note_on_c, 1, 70, 0
3, 178350, Note_on_c, 1, 69, 90
3, 178379, Note_on_c, 1, 69, 0
3, 178380, Note_on_c, 1, 70, 90
3, 178439, Note_on_c, 1, 70, 0
3, 178440, Note_on_c, 1, 57, 90
3, 178499, Note_on_c, 1, 57, 0
3, 178500, Note_on_c, 1, 57, 90
3, 178559, Note_on_c, 1, 57, 0
3, 178560, Note_on_c, 1, 57, 90
3, 178619, Note_on_c, 1, 57, 0
3, 178620, Note_on_c, 1, 57, 90
3, 178739, Note_on_c, 1, 57, 0
3, 179760, Note_on_c, 1, 60, 90
3, 179789, Note_on_c, 1, 60, 0
3, 179790, Note_on_c, 1, 62, 90
3, 179819, Note_on_c, 1, 62, 0
3, 179820, Note_on_c, 1, 60, 90
3, 179879, Note_on_c, 1, 60, 0
3, 179880, Note_on_c, 1, 67, 90
3, 179939, Note_on_c, 1, 67, 0
3, 179940, Note_on_c, 1, 67, 90
3, 179999, Note_on_c, 1, 67, 0
3, 180000, Note_on_c, 1, 65, 90
3, 180059, Note_on_c, 1, 65, 0
3, 180060, Note_on_c, 1, 65, 90
3, 180119, Note_on_c, 1, 65, 0
3, 180120, Note_on_c, 1, 69, 90
3, 180149, Note_on_c, 1, 69, 0
3, 180150, Note_on_c, 1, 67, 90
3, 180179, Note_on_c, 1, 67, 0
3, 180180, Note_on_c, 1, 69, 90
3, 180239, Note_on_c, 1, 69, 0
3, 180240, Note_on_c, 1, 70, 90
3, 180299, Note_on_c, 1, 70, 0
3, 180300, Note_on_c, 1, 70, 90
3, 180359, Note_on_c, 1, 70, 0
3, 180360, Note_on_c, 1, 67, 90
3, 180419, Note_on_c, 1, 67, 0
3, 180420, Note_on_c, 1, 69, 90
3, 180479, Note_on_c, 1, 69, 0
3, 180480, Note_on_c, 1, 65, 90
3, 180539, Note_on_c, 1, 65, 0
3, 180540, Note_on_c, 1, 65, 90
3, 180599, Note_on_c, 1, 65, 0
3, 180600, Note_on_c, 1, 67, 90
3, 180659, Note_on_c, 1, 67, 0
3, 180660, Note_on_c, 1, 67, 90
3, 180719, Note_on_c, 1, 67, 0
3, 180720, Note_on_c, 1, 60, 90
3, 180779, Note_on_c, 1, 60, 0
3, 180780, Note_on_c, 1, 65, 90
3, 180839, Note_on_c, 1, 65, 0
3, 180840, Note_on_c, 1, 72, 90
3, 180869, Note_on_c, 1, 72, 0
3, 180870, Note_on_c, 1, 70, 90
3, 180899, Note_on_c, 1, 70, 0
3, 180900, Note_on_c, 1, 72, 90
3, 180959, Note_on_c, 1, 72, 0
3, 180960, Note_on_c, 1, 60, 90
3, 181019, Note_on_c, 1, 60, 0
3, 181020, Note_on_c, 1, 65, 90
3, 181199, Note_on_c, 1, 65, 0
3, 181200, Note_on_c, 1, 70, 90
3, 181229, Note_on_c, 1, 70, 0
3, 181230, Note_on_c, 1, 69, 90
3, 181259, Note_on_c, 1, 69, 0
3, 181260, Note_on_c, 1, 70, 90
3, 181319, Note_on_c, 1, 70, 0
3, 181320, Note_on_c, 1, 60, 90
3, 181379, Note_on_c, 1, 60, 0
3, 181380, Note_on_c, 1, 60, 90
3, 181439, Note_on_c, 1, 60, 0
3, 181440, Note_on_c, 1, 60, 90
3, 181499, Note_on_c, 1, 60, 0
3, 181500, Note_on_c, 1, 57, 90
3, 181619, Note_on_c, 1, 57, 0
3, 183120, Note_on_c, 1, 65, 90
3, 183149, Note_on_c, 1, 65, 0
3, 183150, Note_on_c, 1, 65, 90
3, 183179, Note_on_c, 1, 65, 0
3, 183180, Note_on_c, 1, 65, 90
3, 183239, Note_on_c, 1, 65, 0
3, 183240, Note_on_c, 1, 65, 90
3, 183299, Note_on_c, 1, 65, 0
3, 183300, Note_on_c, 1, 65, 90
3, 183359, Note_on_c, 1, 65, 0
3, 183360, Note_on_c, 1, 60, 90
3, 183419, Note_on_c, 1, 60, 0
3, 183480, Note_on_c, 1, 60, 90
3, 183509, Note_on_c, 1, 60, 0
3, 183510, Note_on_c, 1, 60, 90
3, 183539, Note_on_c, 1, 60, 0
3, 183540, Note_on_c, 1, 60, 90
3, 183599, Note_on_c, 1, 60, 0
3, 183600, Note_on_c, 1, 60, 90
3, 183659, Note_on_c, 1, 60, 0
3, 183660, Note_on_c, 1, 60, 90
3, 183719, Note_on_c, 1, 60, 0
3, 183720, Note_on_c, 1, 57, 90
3, 183779, Note_on_c, 1, 57, 0
3, 183900, Note_on_c, 1, 65, 90
3, 184079, Note_on_c, 1, 65, 0
3, 184080, Note_on_c, 1, 70, 90
3, 184109, Note_on_c, 1, 70, 0
3, 184110, Note_on_c, 1, 69, 90
3, 184139, Note_on_c, 1, 69, 0
3, 184140, Note_on_c, 1, 70, 90
3, 184199, Note_on_c, 1, 70, 0
3, 184200, Note_on_c, 1, 57, 90
3, 184259, Note_on_c, 1, 57, 0
3, 184260, Note_on_c, 1, 57, 90
3, 184319, Note_on_c, 1, 57, 0
3, 184320, Note_on_c, 1, 57, 90
3, 184379, Note_on_c, 1, 57, 0
3, 184380, Note_on_c, 1, 57, 90
3, 184499, Note_on_c, 1, 57, 0
3, 185520, Note_on_c, 1, 60, 90
3, 185549, Note_on_c, 1, 60, 0
3, 185550, Note_on_c, 1, 62, 90
3, 185579, Note_on_c, 1, 62, 0
3, 185580, Note_on_c, 1, 60, 90
3, 185639, Note_on_c, 1, 60, 0
3, 185640, Note_on_c, 1, 67, 90
3, 185699, Note_on_c, 1, 67, 0
3, 185700, Note_on_c, 1, 67, 90
3, 185759, Note_on_c, 1, 67, 0
3, 185760, Note_on_c, 1, 65, 90
3, 185819, Note_on_c, 1, 65, 0
3, 185820, Note_on_c, 1, 65, 90
3, 185879, Note_on_c, 1, 65, 0
3, 185880, Note_on_c, 1, 65, 90
3, 185909, Note_on_c, 1, 65, 0
3, 185910, Note_on_c, 1, 64, 90
3, 185939, Note_on_c, 1, 64, 0
3, 185940, Note_on_c, 1, 66, 90
3, 185999, Note_on_c, 1, 66, 0
3, 186000, Note_on_c, 1, 69, 90
3, 186059, Note_on_c, 1, 69, 0
3, 186060, Note_on_c, 1, 69, 90
3, 186119, Note_on_c, 1, 69, 0
3, 186120, Note_on_c, 1, 67, 90
3, 186179, Note_on_c, 1, 67, 0
3, 186180, Note_on_c, 1, 67, 90
3, 186239, Note_on_c, 1, 67, 0
3, 186360, Note_on_c, 1, 67, 90
3, 186389, Note_on_c, 1, 67, 0
3, 186390, Note_on_c, 1, 65, 90
3, 186419, Note_on_c, 1, 65, 0
3, 186420, Note_on_c, 1, 67, 90
3, 186479, Note_on_c, 1, 67, 0
3, 186480, Note_on_c, 1, 67, 90
3, 186539, Note_on_c, 1, 67, 0
3, 186540, Note_on_c, 1, 67, 90
3, 186599, Note_on_c, 1, 67, 0
3, 186600, Note_on_c, 1, 60, 90
3, 186659, Note_on_c, 1, 60, 0
3, 186660, Note_on_c, 1, 60, 90
3, 186719, Note_on_c, 1, 60, 0
3, 186720, Note_on_c, 1, 60, 90
3, 186779, Note_on_c, 1, 60, 0
3, 186780, Note_on_c, 1, 60, 90
3, 186839, Note_on_c, 1, 60, 0
3, 186840, Note_on_c, 1, 60, 90
3, 186899, Note_on_c, 1, 60, 0
3, 186900, Note_on_c, 1, 60, 90
3, 186959, Note_on_c, 1, 60, 0
3, 186960, Note_on_c, 1, 60, 90
3, 187019, Note_on_c, 1, 60, 0
3, 187020, Note_on_c, 1, 60, 90
3, 187079, Note_on_c, 1, 60, 0
3, 187080, Note_on_c, 1, 60, 90
3, 187139, Note_on_c, 1, 60, 0
3, 187140, Note_on_c, 1, 60, 90
3, 187199, Note_on_c, 1, 60, 0
3, 187200, Note_on_c, 1, 60, 90
3, 187259, Note_on_c, 1, 60, 0
3, 187260, Note_on_c, 1, 60, 90
3, 187379, Note_on_c, 1, 60, 0
3, 189240, Note_on_c, 1, 57, 90
3, 189269, Note_on_c, 1, 57, 0
3, 189270, Note_on_c, 1, 57, 90
3, 189299, Note_on_c, 1, 57, 0
3, 189300, Note_on_c, 1, 57, 90
3, 189359, Note_on_c, 1, 57, 0
3, 189360, Note_on_c, 1, 57, 90
3, 189419, Note_on_c, 1, 57, 0
3, 189420, Note_on_c, 1, 57, 90
3, 189479, Note_on_c, 1, 57, 0
3, 189480, Note_on_c, 1, 53, 90
3, 189539, Note_on_c, 1, 53, 0
3, 189960, Note_on_c, 1, 53, 90
3, 189989, Note_on_c, 1, 53, 0
3, 189990, Note_on_c, 1, 53, 90
3, 190019, Note_on_c, 1, 53, 0
3, 190020, Note_on_c, 1, 53, 90
3, 190079, Note_on_c, 1, 53, 0
3, 190080, Note_on_c, 1, 53, 90
3, 190139, Note_on_c, 1, 53, 0
3, 190140, Note_on_c, 1, 53, 90
3, 190259, Note_on_c, 1, 53, 0
3, 191640, Note_on_c, 1, 69, 90
3, 191669, Note_on_c, 1, 69, 0
3, 191670, Note_on_c, 1, 67, 90
3, 191699, Note_on_c, 1, 67, 0
3, 191700, Note_on_c, 1, 69, 90
3, 191759, Note_on_c, 1, 69, 0
3, 191760, Note_on_c, 1, 70, 90
3, 191819, Note_on_c, 1, 70, 0
3, 191820, Note_on_c, 1, 70, 90
3, 191879, Note_on_c, 1, 70, 0
3, 191880, Note_on_c, 1, 67, 90
3, 191939, Note_on_c, 1, 67, 0
3, 191940, Note_on_c, 1, 69, 90
3, 191999, Note_on_c, 1, 69, 0
3, 192000, Note_on_c, 1, 65, 90
3, 192059, Note_on_c, 1, 65, 0
3, 192060, Note_on_c, 1, 65, 90
3, 192119, Note_on_c, 1, 65, 0
3, 192120, Note_on_c, 1, 67, 90
3, 192179, Note_on_c, 1, 67, 0
3, 192180, Note_on_c, 1, 67, 90
3, 192239, Note_on_c, 1, 67, 0
3, 192240, Note_on_c, 1, 60, 90
3, 192299, Note_on_c, 1, 60, 0
3, 192300, Note_on_c, 1, 65, 90
3, 192359, Note_on_c, 1, 65, 0
3, 192360, Note_on_c, 1, 72, 90
3, 192389, Note_on_c, 1, 72, 0
3, 192390, Note_on_c, 1, 70, 90
3, 192419, Note_on_c, 1, 70, 0
3, 192420, Note_on_c, 1, 72, 90
3, 192479, Note_on_c, 1, 72, 0
3, 192480, Note_on_c, 1, 60, 90
3, 192539, Note_on_c, 1, 60, 0
3, 192540, Note_on_c, 1, 65, 90
3, 192719, Note_on_c, 1, 65, 0
3, 192720, Note_on_c, 1, 70, 90
3, 192749, Note_on_c, 1, 70, 0
3, 192750, Note_on_c, 1, 69, 90
3, 192779, Note_on_c, 1, 69, 0
3, 192780, Note_on_c, 1, 70, 90
3, 192839, Note_on_c, 1, 70, 0
3, 192840, Note_on_c, 1, 60, 90
3, 192899, Note_on_c, 1, 60, 0
3, 192900, Note_on_c, 1, 60, 90
3, 192959, Note_on_c, 1, 60, 0
3, 192960, Note_on_c, 1, 60, 90
3, 193019, Note_on_c, 1, 60, 0
3, 193020, Note_on_c, 1, 57, 90
3, 193139, Note_on_c, 1, 57, 0
3, 193139, End_track
4, 0, Start_track
4, 0, MIDI_port, 0
4, 0, Title_t, "Oboe I"
4, 0, Program_c, 2, 68
4, 0, Control_c, 2, 7, 127
4, 0, Control_c, 2, 10, 83
4, 0, Note_on_c, 2, 69, 90
4, 119, Note_on_c, 2, 69, 0
4, 120, Note_on_c, 2, 70, 90
4, 179, Note_on_c, 2, 70, 0
4, 180, Note_on_c, 2, 67, 90
4, 195, Note_on_c, 2, 67, 0
4, 195, Note_on_c, 2, 69, 90
4, 210, Note_on_c, 2, 69, 0
4, 210, Note_on_c, 2, 67, 90
4, 220, Note_on_c, 2, 67, 0
4, 220, Note_on_c, 2, 69, 90
4, 230, Note_on_c, 2, 69, 0
4, 230, Note_on_c, 2, 67, 90
4, 240, Note_on_c, 2, 67, 0
4, 240, Note_on_c, 2, 69, 90
4, 250, Note_on_c, 2, 69, 0
4, 250, Note_on_c, 2, 67, 90
4, 260, Note_on_c, 2, 67, 0
4, 260, Note_on_c, 2, 69, 90
4, 270, Note_on_c, 2, 69, 0
4, 270, Note_on_c, 2, 67, 90
4, 280, Note_on_c, 2, 67, 0
4, 280, Note_on_c, 2, 69, 90
4, 290, Note_on_c, 2, 69, 0
4, 290, Note_on_c, 2, 67, 90
4, 300, Note_on_c, 2, 67, 0
4, 300, Note_on_c, 2, 65, 90
4, 359, Note_on_c, 2, 65, 0
4, 360, Note_on_c, 2, 69, 90
4, 419, Note_on_c, 2, 69, 0
4, 420, Note_on_c, 2, 70, 90
4, 479, Note_on_c, 2, 70, 0
4, 480, Note_on_c, 2, 72, 90
4, 539, Note_on_c, 2, 72, 0
4, 540, Note_on_c, 2, 74, 90
4, 569, Note_on_c, 2, 74, 0
4, 600, Note_on_c, 2, 72, 90
4, 629, Note_on_c, 2, 72, 0
4, 720, Note_on_c, 2, 74, 90
4, 749, Note_on_c, 2, 74, 0
4, 750, Note_on_c, 2, 76, 90
4, 779, Note_on_c, 2, 76, 0
4, 780, Note_on_c, 2, 77, 90
4, 794, Note_on_c, 2, 77, 0
4, 795, Note_on_c, 2, 76, 90
4, 809, Note_on_c, 2, 76, 0
4, 810, Note_on_c, 2, 77, 90
4, 820, Note_on_c, 2, 77, 0
4, 820, Note_on_c, 2, 76, 90
4, 830, Note_on_c, 2, 76, 0
4, 830, Note_on_c, 2, 77, 90
4, 840, Note_on_c, 2, 77, 0
4, 840, Note_on_c, 2, 76, 90
4, 850, Note_on_c, 2, 76, 0
4, 850, Note_on_c, 2, 77, 90
4, 860, Note_on_c, 2, 77, 0
4, 860, Note_on_c, 2, 76, 90
4, 870, Note_on_c, 2, 76, 0
4, 870, Note_on_c, 2, 74, 90
4, 884, Note_on_c, 2, 74, 0
4, 885, Note_on_c, 2, 76, 90
4, 899, Note_on_c, 2, 76, 0
4, 900, Note_on_c, 2, 77, 90
4, 959, Note_on_c, 2, 77, 0
4, 960, Note_on_c, 2, 76, 90
4, 989, Note_on_c, 2, 76, 0
4, 990, Note_on_c, 2, 74, 90
4, 1019, Note_on_c, 2, 74, 0
4, 1020, Note_on_c, 2, 72, 90
4, 1049, Note_on_c, 2, 72, 0
4, 1050, Note_on_c, 2, 70, 90
4, 1079, Note_on_c, 2, 70, 0
4, 1080, Note_on_c, 2, 69, 90
4, 1139, Note_on_c, 2, 69, 0
4, 1140, Note_on_c, 2, 74, 90
4, 1199, Note_on_c, 2, 74, 0
4, 1200, Note_on_c, 2, 70, 90
4, 1259, Note_on_c, 2, 70, 0
4, 1260, Note_on_c, 2, 69, 90
4, 1319, Note_on_c, 2, 69, 0
4, 1320, Note_on_c, 2, 67, 90
4, 1439, Note_on_c, 2, 67, 0
4, 1800, Note_on_c, 2, 76, 90
4, 1859, Note_on_c, 2, 76, 0
4, 1860, Note_on_c, 2, 77, 90
4, 1919, Note_on_c, 2, 77, 0
4, 1920, Note_on_c, 2, 79, 90
4, 1979, Note_on_c, 2, 79, 0
4, 1980, Note_on_c, 2, 81, 90
4, 2039, Note_on_c, 2, 81, 0
4, 2040, Note_on_c, 2, 79, 90
4, 2069, Note_on_c, 2, 79, 0
4, 2070, Note_on_c, 2, 81, 90
4, 2099, Note_on_c, 2, 81, 0
4, 2100, Note_on_c, 2, 77, 90
4, 2159, Note_on_c, 2, 77, 0
4, 2160, Note_on_c, 2, 81, 90
4, 2279, Note_on_c, 2, 81, 0
4, 2280, Note_on_c, 2, 82, 90
4, 2339, Note_on_c, 2, 82, 0
4, 2340, Note_on_c, 2, 75, 90
4, 2355, Note_on_c, 2, 75, 0
4, 2355, Note_on_c, 2, 77, 90
4, 2370, Note_on_c, 2, 77, 0
4, 2370, Note_on_c, 2, 75, 90
4, 2380, Note_on_c, 2, 75, 0
4, 2380, Note_on_c, 2, 77, 90
4, 2390, Note_on_c, 2, 77, 0
4, 2390, Note_on_c, 2, 75, 90
4, 2400, Note_on_c, 2, 75, 0
4, 2400, Note_on_c, 2, 77, 90
4, 2410, Note_on_c, 2, 77, 0
4, 2410, Note_on_c, 2, 75, 90
4, 2420, Note_on_c, 2, 75, 0
4, 2420, Note_on_c, 2, 77, 90
4, 2430, Note_on_c, 2, 77, 0
4, 2430, Note_on_c, 2, 75, 90
4, 2440, Note_on_c, 2, 75, 0
4, 2440, Note_on_c, 2, 77, 90
4, 2450, Note_on_c, 2, 77, 0
4, 2450, Note_on_c, 2, 75, 90
4, 2460, Note_on_c, 2, 75, 0
4, 2460, Note_on_c, 2, 74, 90
4, 2519, Note_on_c, 2, 74, 0
4, 2520, Note_on_c, 2, 78, 90
4, 2579, Note_on_c, 2, 78, 0
4, 2580, Note_on_c, 2, 79, 90
4, 2639, Note_on_c, 2, 79, 0
4, 2640, Note_on_c, 2, 81, 90
4, 2699, Note_on_c, 2, 81, 0
4, 2700, Note_on_c, 2, 82, 90
4, 2759, Note_on_c, 2, 82, 0
4, 2760, Note_on_c, 2, 81, 90
4, 2789, Note_on_c, 2, 81, 0
4, 2790, Note_on_c, 2, 82, 90
4, 2819, Note_on_c, 2, 82, 0
4, 2820, Note_on_c, 2, 79, 90
4, 2879, Note_on_c, 2, 79, 0
4, 2880, Note_on_c, 2, 82, 90
4, 2939, Note_on_c, 2, 82, 0
4, 2940, Note_on_c, 2, 74, 90
4, 2969, Note_on_c, 2, 74, 0
4, 3000, Note_on_c, 2, 74, 90
4, 3029, Note_on_c, 2, 74, 0
4, 3060, Note_on_c, 2, 74, 90
4, 3119, Note_on_c, 2, 74, 0
4, 3120, Note_on_c, 2, 72, 90
4, 3149, Note_on_c, 2, 72, 0
4, 3150, Note_on_c, 2, 76, 90
4, 3179, Note_on_c, 2, 76, 0
4, 3180, Note_on_c, 2, 79, 90
4, 3209, Note_on_c, 2, 79, 0
4, 3210, Note_on_c, 2, 82, 90
4, 3239, Note_on_c, 2, 82, 0
4, 3240, Note_on_c, 2, 81, 90
4, 3299, Note_on_c, 2, 81, 0
4, 3300, Note_on_c, 2, 72, 90
4, 3329, Note_on_c, 2, 72, 0
4, 3360, Note_on_c, 2, 72, 90
4, 3389, Note_on_c, 2, 72, 0
4, 3420, Note_on_c, 2, 72, 90
4, 3479, Note_on_c, 2, 72, 0
4, 3480, Note_on_c, 2, 70, 90
4, 3509, Note_on_c, 2, 70, 0
4, 3510, Note_on_c, 2, 74, 90
4, 3539, Note_on_c, 2, 74, 0
4, 3540, Note_on_c, 2, 77, 90
4, 3569, Note_on_c, 2, 77, 0
4, 3570, Note_on_c, 2, 81, 90
4, 3599, Note_on_c, 2, 81, 0
4, 3600, Note_on_c, 2, 79, 90
4, 3659, Note_on_c, 2, 79, 0
4, 3660, Note_on_c, 2, 70, 90
4, 3689, Note_on_c, 2, 70, 0
4, 3720, Note_on_c, 2, 70, 90
4, 3749, Note_on_c, 2, 70, 0
4, 3780, Note_on_c, 2, 70, 90
4, 3839, Note_on_c, 2, 70, 0
4, 3840, Note_on_c, 2, 69, 90
4, 3869, Note_on_c, 2, 69, 0
4, 3870, Note_on_c, 2, 74, 90
4, 3899, Note_on_c, 2, 74, 0
4, 3900, Note_on_c, 2, 72, 90
4, 3929, Note_on_c, 2, 72, 0
4, 4020, Note_on_c, 2, 70, 90
4, 4049, Note_on_c, 2, 70, 0
4, 4050, Note_on_c, 2, 69, 90
4, 4079, Note_on_c, 2, 69, 0
4, 4080, Note_on_c, 2, 67, 90
4, 4109, Note_on_c, 2, 67, 0
4, 4110, Note_on_c, 2, 65, 90
4, 4139, Note_on_c, 2, 65, 0
4, 4140, Note_on_c, 2, 65, 90
4, 4319, Note_on_c, 2, 65, 0
4, 4680, Note_on_c, 2, 69, 90
4, 4739, Note_on_c, 2, 69, 0
4, 4740, Note_on_c, 2, 70, 90
4, 4799, Note_on_c, 2, 70, 0
4, 4800, Note_on_c, 2, 72, 90
4, 4859, Note_on_c, 2, 72, 0
4, 4860, Note_on_c, 2, 74, 90
4, 4889, Note_on_c, 2, 74, 0
4, 4920, Note_on_c, 2, 72, 90
4, 4949, Note_on_c, 2, 72, 0
4, 5220, Note_on_c, 2, 75, 90
4, 5279, Note_on_c, 2, 75, 0
4, 5280, Note_on_c, 2, 74, 90
4, 5339, Note_on_c, 2, 74, 0
4, 5340, Note_on_c, 2, 72, 90
4, 5399, Note_on_c, 2, 72, 0
4, 5940, Note_on_c, 2, 72, 90
4, 5999, Note_on_c, 2, 72, 0
4, 6000, Note_on_c, 2, 70, 90
4, 6059, Note_on_c, 2, 70, 0
4, 6060, Note_on_c, 2, 69, 90
4, 6119, Note_on_c, 2, 69, 0
4, 6840, Note_on_c, 2, 69, 90
4, 6899, Note_on_c, 2, 69, 0
4, 6900, Note_on_c, 2, 70, 90
4, 6959, Note_on_c, 2, 70, 0
4, 6960, Note_on_c, 2, 72, 90
4, 7019, Note_on_c, 2, 72, 0
4, 7020, Note_on_c, 2, 74, 90
4, 7049, Note_on_c, 2, 74, 0
4, 7080, Note_on_c, 2, 72, 90
4, 7109, Note_on_c, 2, 72, 0
4, 7200, Note_on_c, 2, 74, 90
4, 7229, Note_on_c, 2, 74, 0
4, 7230, Note_on_c, 2, 76, 90
4, 7259, Note_on_c, 2, 76, 0
4, 7260, Note_on_c, 2, 77, 90
4, 7275, Note_on_c, 2, 77, 0
4, 7275, Note_on_c, 2, 76, 90
4, 7290, Note_on_c, 2, 76, 0
4, 7290, Note_on_c, 2, 77, 90
4, 7300, Note_on_c, 2, 77, 0
4, 7300, Note_on_c, 2, 76, 90
4, 7310, Note_on_c, 2, 76, 0
4, 7310, Note_on_c, 2, 77, 90
4, 7320, Note_on_c, 2, 77, 0
4, 7320, Note_on_c, 2, 76, 90
4, 7330, Note_on_c, 2, 76, 0
4, 7330, Note_on_c, 2, 77, 90
4, 7340, Note_on_c, 2, 77, 0
4, 7340, Note_on_c, 2, 76, 90
4, 7350, Note_on_c, 2, 76, 0
4, 7350, Note_on_c, 2, 74, 90
4, 7364, Note_on_c, 2, 74, 0
4, 7365, Note_on_c, 2, 76, 90
4, 7379, Note_on_c, 2, 76, 0
4, 7380, Note_on_c, 2, 77, 90
4, 7439, Note_on_c, 2, 77, 0
4, 7440, Note_on_c, 2, 76, 90
4, 7469, Note_on_c, 2, 76, 0
4, 7470, Note_on_c, 2, 74, 90
4, 7499, Note_on_c, 2, 74, 0
4, 7500, Note_on_c, 2, 72, 90
4, 7529, Note_on_c, 2, 72, 0
4, 7530, Note_on_c, 2, 70, 90
4, 7559, Note_on_c, 2, 70, 0
4, 7560, Note_on_c, 2, 69, 90
4, 7619, Note_on_c, 2, 69, 0
4, 7620, Note_on_c, 2, 74, 90
4, 7679, Note_on_c, 2, 74, 0
4, 7680, Note_on_c, 2, 70, 90
4, 7739, Note_on_c, 2, 70, 0
4, 7740, Note_on_c, 2, 69, 90
4, 7799, Note_on_c, 2, 69, 0
4, 7800, Note_on_c, 2, 67, 90
4, 7919, Note_on_c, 2, 67, 0
4, 7920, Note_on_c, 2, 76, 90
4, 7949, Note_on_c, 2, 76, 0
4, 7950, Note_on_c, 2, 74, 90
4, 7979, Note_on_c, 2, 74, 0
4, 7980, Note_on_c, 2, 76, 90
4, 8009, Note_on_c, 2, 76, 0
4, 8010, Note_on_c, 2, 72, 90
4, 8039, Note_on_c, 2, 72, 0
4, 8040, Note_on_c, 2, 77, 90
4, 8069, Note_on_c, 2, 77, 0
4, 8070, Note_on_c, 2, 72, 90
4, 8099, Note_on_c, 2, 72, 0
4, 8100, Note_on_c, 2, 79, 90
4, 8129, Note_on_c, 2, 79, 0
4, 8130, Note_on_c, 2, 77, 90
4, 8159, Note_on_c, 2, 77, 0
4, 8160, Note_on_c, 2, 79, 90
4, 8189, Note_on_c, 2, 79, 0
4, 8190, Note_on_c, 2, 72, 90
4, 8219, Note_on_c, 2, 72, 0
4, 8220, Note_on_c, 2, 81, 90
4, 8249, Note_on_c, 2, 81, 0
4, 8250, Note_on_c, 2, 77, 90
4, 8279, Note_on_c, 2, 77, 0
4, 8280, Note_on_c, 2, 76, 90
4, 8339, Note_on_c, 2, 76, 0
4, 8340, Note_on_c, 2, 77, 90
4, 8399, Note_on_c, 2, 77, 0
4, 8400, Note_on_c, 2, 79, 90
4, 8459, Note_on_c, 2, 79, 0
4, 8460, Note_on_c, 2, 81, 90
4, 8519, Note_on_c, 2, 81, 0
4, 8520, Note_on_c, 2, 79, 90
4, 8549, Note_on_c, 2, 79, 0
4, 8550, Note_on_c, 2, 81, 90
4, 8579, Note_on_c, 2, 81, 0
4, 8580, Note_on_c, 2, 77, 90
4, 8639, Note_on_c, 2, 77, 0
4, 9000, Note_on_c, 2, 72, 90
4, 9059, Note_on_c, 2, 72, 0
4, 9060, Note_on_c, 2, 74, 90
4, 9119, Note_on_c, 2, 74, 0
4, 9120, Note_on_c, 2, 75, 90
4, 9179, Note_on_c, 2, 75, 0
4, 9180, Note_on_c, 2, 77, 90
4, 9239, Note_on_c, 2, 77, 0
4, 9240, Note_on_c, 2, 75, 90
4, 9269, Note_on_c, 2, 75, 0
4, 9270, Note_on_c, 2, 77, 90
4, 9299, Note_on_c, 2, 77, 0
4, 9300, Note_on_c, 2, 74, 90
4, 9359, Note_on_c, 2, 74, 0
4, 9360, Note_on_c, 2, 74, 90
4, 9419, Note_on_c, 2, 74, 0
4, 9420, Note_on_c, 2, 65, 90
4, 9479, Note_on_c, 2, 65, 0
4, 9480, Note_on_c, 2, 65, 90
4, 9539, Note_on_c, 2, 65, 0
4, 9540, Note_on_c, 2, 65, 90
4, 9599, Note_on_c, 2, 65, 0
4, 9600, Note_on_c, 2, 64, 90
4, 9629, Note_on_c, 2, 64, 0
4, 9630, Note_on_c, 2, 67, 90
4, 9659, Note_on_c, 2, 67, 0
4, 9660, Note_on_c, 2, 70, 90
4, 9689, Note_on_c, 2, 70, 0
4, 9690, Note_on_c, 2, 74, 90
4, 9719, Note_on_c, 2, 74, 0
4, 9720, Note_on_c, 2, 72, 90
4, 9779, Note_on_c, 2, 72, 0
4, 9780, Note_on_c, 2, 64, 90
4, 9839, Note_on_c, 2, 64, 0
4, 9840, Note_on_c, 2, 64, 90
4, 9899, Note_on_c, 2, 64, 0
4, 9900, Note_on_c, 2, 64, 90
4, 9959, Note_on_c, 2, 64, 0
4, 9960, Note_on_c, 2, 62, 90
4, 9989, Note_on_c, 2, 62, 0
4, 9990, Note_on_c, 2, 66, 90
4, 10019, Note_on_c, 2, 66, 0
4, 10020, Note_on_c, 2, 69, 90
4, 10049, Note_on_c, 2, 69, 0
4, 10050, Note_on_c, 2, 72, 90
4, 10079, Note_on_c, 2, 72, 0
4, 10080, Note_on_c, 2, 70, 90
4, 10139, Note_on_c, 2, 70, 0
4, 10140, Note_on_c, 2, 62, 90
4, 10199, Note_on_c, 2, 62, 0
4, 10200, Note_on_c, 2, 62, 90
4, 10259, Note_on_c, 2, 62, 0
4, 10260, Note_on_c, 2, 62, 90
4, 10319, Note_on_c, 2, 62, 0
4, 10320, Note_on_c, 2, 60, 90
4, 10349, Note_on_c, 2, 60, 0
4, 10350, Note_on_c, 2, 64, 90
4, 10379, Note_on_c, 2, 64, 0
4, 10380, Note_on_c, 2, 67, 90
4, 10409, Note_on_c, 2, 67, 0
4, 10410, Note_on_c, 2, 70, 90
4, 10439, Note_on_c, 2, 70, 0
4, 10440, Note_on_c, 2, 69, 90
4, 10499, Note_on_c, 2, 69, 0
4, 10500, Note_on_c, 2, 71, 90
4, 10559, Note_on_c, 2, 71, 0
4, 10560, Note_on_c, 2, 72, 90
4, 10619, Note_on_c, 2, 72, 0
4, 10620, Note_on_c, 2, 71, 90
4, 10635, Note_on_c, 2, 71, 0
4, 10635, Note_on_c, 2, 72, 90
4, 10650, Note_on_c, 2, 72, 0
4, 10650, Note_on_c, 2, 71, 90
4, 10679, Note_on_c, 2, 71, 0
4, 10680, Note_on_c, 2, 69, 90
4, 10709, Note_on_c, 2, 69, 0
4, 10710, Note_on_c, 2, 71, 90
4, 10739, Note_on_c, 2, 71, 0
4, 10740, Note_on_c, 2, 67, 90
4, 10799, Note_on_c, 2, 67, 0
4, 10800, Note_on_c, 2, 76, 90
4, 10919, Note_on_c, 2, 76, 0
4, 10920, Note_on_c, 2, 77, 90
4, 10979, Note_on_c, 2, 77, 0
4, 10980, Note_on_c, 2, 74, 90
4, 11099, Note_on_c, 2, 74, 0
4, 11100, Note_on_c, 2, 72, 90
4, 11159, Note_on_c, 2, 72, 0
4, 11160, Note_on_c, 2, 76, 90
4, 11219, Note_on_c, 2, 76, 0
4, 11220, Note_on_c, 2, 77, 90
4, 11279, Note_on_c, 2, 77, 0
4, 11280, Note_on_c, 2, 79, 90
4, 11339, Note_on_c, 2, 79, 0
4, 11340, Note_on_c, 2, 81, 90
4, 11369, Note_on_c, 2, 81, 0
4, 11400, Note_on_c, 2, 79, 90
4, 11429, Note_on_c, 2, 79, 0
4, 11700, Note_on_c, 2, 79, 90
4, 11759, Note_on_c, 2, 79, 0
4, 11760, Note_on_c, 2, 77, 90
4, 11819, Note_on_c, 2, 77, 0
4, 11820, Note_on_c, 2, 76, 90
4, 11879, Note_on_c, 2, 76, 0
4, 12420, Note_on_c, 2, 76, 90
4, 12479, Note_on_c, 2, 76, 0
4, 12480, Note_on_c, 2, 74, 90
4, 12539, Note_on_c, 2, 74, 0
4, 12540, Note_on_c, 2, 72, 90
4, 12599, Note_on_c, 2, 72, 0
4, 12960, Note_on_c, 2, 76, 90
4, 13079, Note_on_c, 2, 76, 0
4, 13080, Note_on_c, 2, 77, 90
4, 13139, Note_on_c, 2, 77, 0
4, 13140, Note_on_c, 2, 74, 90
4, 13259, Note_on_c, 2, 74, 0
4, 13260, Note_on_c, 2, 72, 90
4, 13319, Note_on_c, 2, 72, 0
4, 13320, Note_on_c, 2, 76, 90
4, 13379, Note_on_c, 2, 76, 0
4, 13380, Note_on_c, 2, 77, 90
4, 13439, Note_on_c, 2, 77, 0
4, 13440, Note_on_c, 2, 79, 90
4, 13499, Note_on_c, 2, 79, 0
4, 13500, Note_on_c, 2, 81, 90
4, 13529, Note_on_c, 2, 81, 0
4, 13560, Note_on_c, 2, 79, 90
4, 13589, Note_on_c, 2, 79, 0
4, 13680, Note_on_c, 2, 81, 90
4, 13739, Note_on_c, 2, 81, 0
4, 13740, Note_on_c, 2, 83, 90
4, 13769, Note_on_c, 2, 83, 0
4, 13770, Note_on_c, 2, 84, 90
4, 13799, Note_on_c, 2, 84, 0
4, 13800, Note_on_c, 2, 86, 90
4, 13829, Note_on_c, 2, 86, 0
4, 13830, Note_on_c, 2, 83, 90
4, 13859, Note_on_c, 2, 83, 0
4, 13860, Note_on_c, 2, 79, 90
4, 13919, Note_on_c, 2, 79, 0
4, 13920, Note_on_c, 2, 84, 90
4, 13979, Note_on_c, 2, 84, 0
4, 13980, Note_on_c, 2, 77, 90
4, 14039, Note_on_c, 2, 77, 0
4, 14040, Note_on_c, 2, 76, 90
4, 14099, Note_on_c, 2, 76, 0
4, 14100, Note_on_c, 2, 77, 90
4, 14159, Note_on_c, 2, 77, 0
4, 14160, Note_on_c, 2, 74, 90
4, 14219, Note_on_c, 2, 74, 0
4, 14220, Note_on_c, 2, 72, 90
4, 14339, Note_on_c, 2, 72, 0
4, 14400, Note_on_c, 2, 74, 90
4, 14415, Note_on_c, 2, 74, 0
4, 14430, Note_on_c, 2, 67, 90
4, 14445, Note_on_c, 2, 67, 0
4, 14460, Note_on_c, 2, 67, 90
4, 14475, Note_on_c, 2, 67, 0
4, 14490, Note_on_c, 2, 74, 90
4, 14505, Note_on_c, 2, 74, 0
4, 14520, Note_on_c, 2, 76, 90
4, 14535, Note_on_c, 2, 76, 0
4, 14550, Note_on_c, 2, 72, 90
4, 14565, Note_on_c, 2, 72, 0
4, 14580, Note_on_c, 2, 74, 90
4, 14595, Note_on_c, 2, 74, 0
4, 14610, Note_on_c, 2, 67, 90
4, 14625, Note_on_c, 2, 67, 0
4, 14640, Note_on_c, 2, 67, 90
4, 14655, Note_on_c, 2, 67, 0
4, 14670, Note_on_c, 2, 74, 90
4, 14685, Note_on_c, 2, 74, 0
4, 14700, Note_on_c, 2, 72, 90
4, 14715, Note_on_c, 2, 72, 0
4, 14730, Note_on_c, 2, 67, 90
4, 14745, Note_on_c, 2, 67, 0
4, 14760, Note_on_c, 2, 71, 90
4, 14819, Note_on_c, 2, 71, 0
4, 14820, Note_on_c, 2, 72, 90
4, 14879, Note_on_c, 2, 72, 0
4, 14880, Note_on_c, 2, 74, 90
4, 14939, Note_on_c, 2, 74, 0
4, 14940, Note_on_c, 2, 76, 90
4, 14999, Note_on_c, 2, 76, 0
4, 15000, Note_on_c, 2, 74, 90
4, 15029, Note_on_c, 2, 74, 0
4, 15030, Note_on_c, 2, 76, 90
4, 15059, Note_on_c, 2, 76, 0
4, 15060, Note_on_c, 2, 72, 90
4, 15119, Note_on_c, 2, 72, 0
4, 15120, Note_on_c, 2, 60, 90
4, 15179, Note_on_c, 2, 60, 0
4, 15180, Note_on_c, 2, 60, 90
4, 15239, Note_on_c, 2, 60, 0
4, 15240, Note_on_c, 2, 60, 90
4, 15299, Note_on_c, 2, 60, 0
4, 15300, Note_on_c, 2, 60, 90
4, 15359, Note_on_c, 2, 60, 0
4, 15360, Note_on_c, 2, 60, 90
4, 15419, Note_on_c, 2, 60, 0
4, 15420, Note_on_c, 2, 60, 90
4, 15479, Note_on_c, 2, 60, 0
4, 15480, Note_on_c, 2, 73, 90
4, 15539, Note_on_c, 2, 73, 0
4, 15540, Note_on_c, 2, 74, 90
4, 15599, Note_on_c, 2, 74, 0
4, 15600, Note_on_c, 2, 76, 90
4, 15659, Note_on_c, 2, 76, 0
4, 15660, Note_on_c, 2, 77, 90
4, 15719, Note_on_c, 2, 77, 0
4, 15720, Note_on_c, 2, 76, 90
4, 15749, Note_on_c, 2, 76, 0
4, 15750, Note_on_c, 2, 77, 90
4, 15779, Note_on_c, 2, 77, 0
4, 15780, Note_on_c, 2, 74, 90
4, 15839, Note_on_c, 2, 74, 0
4, 15840, Note_on_c, 2, 77, 90
4, 15899, Note_on_c, 2, 77, 0
4, 15900, Note_on_c, 2, 69, 90
4, 15959, Note_on_c, 2, 69, 0
4, 15960, Note_on_c, 2, 69, 90
4, 16019, Note_on_c, 2, 69, 0
4, 16020, Note_on_c, 2, 69, 90
4, 16079, Note_on_c, 2, 69, 0
4, 16080, Note_on_c, 2, 67, 90
4, 16109, Note_on_c, 2, 67, 0
4, 16110, Note_on_c, 2, 71, 90
4, 16139, Note_on_c, 2, 71, 0
4, 16140, Note_on_c, 2, 74, 90
4, 16169, Note_on_c, 2, 74, 0
4, 16170, Note_on_c, 2, 77, 90
4, 16199, Note_on_c, 2, 77, 0
4, 16200, Note_on_c, 2, 76, 90
4, 16259, Note_on_c, 2, 76, 0
4, 16260, Note_on_c, 2, 67, 90
4, 16319, Note_on_c, 2, 67, 0
4, 16320, Note_on_c, 2, 67, 90
4, 16379, Note_on_c, 2, 67, 0
4, 16380, Note_on_c, 2, 67, 90
4, 16439, Note_on_c, 2, 67, 0
4, 16440, Note_on_c, 2, 65, 90
4, 16469, Note_on_c, 2, 65, 0
4, 16470, Note_on_c, 2, 69, 90
4, 16499, Note_on_c, 2, 69, 0
4, 16500, Note_on_c, 2, 72, 90
4, 16529, Note_on_c, 2, 72, 0
4, 16530, Note_on_c, 2, 76, 90
4, 16559, Note_on_c, 2, 76, 0
4, 16560, Note_on_c, 2, 74, 90
4, 16619, Note_on_c, 2, 74, 0
4, 16620, Note_on_c, 2, 65, 90
4, 16679, Note_on_c, 2, 65, 0
4, 16680, Note_on_c, 2, 65, 90
4, 16739, Note_on_c, 2, 65, 0
4, 16740, Note_on_c, 2, 65, 90
4, 16799, Note_on_c, 2, 65, 0
4, 16800, Note_on_c, 2, 64, 90
4, 16829, Note_on_c, 2, 64, 0
4, 16830, Note_on_c, 2, 81, 90
4, 16859, Note_on_c, 2, 81, 0
4, 16860, Note_on_c, 2, 79, 90
4, 16919, Note_on_c, 2, 79, 0
4, 16980, Note_on_c, 2, 77, 90
4, 17009, Note_on_c, 2, 77, 0
4, 17010, Note_on_c, 2, 76, 90
4, 17039, Note_on_c, 2, 76, 0
4, 17040, Note_on_c, 2, 74, 90
4, 17069, Note_on_c, 2, 74, 0
4, 17070, Note_on_c, 2, 72, 90
4, 17099, Note_on_c, 2, 72, 0
4, 17100, Note_on_c, 2, 72, 90
4, 17219, Note_on_c, 2, 72, 0
4, 17490, Note_on_c, 2, 67, 90
4, 17519, Note_on_c, 2, 67, 0
4, 17520, Note_on_c, 2, 66, 90
4, 17549, Note_on_c, 2, 66, 0
4, 17550, Note_on_c, 2, 67, 90
4, 17579, Note_on_c, 2, 67, 0
4, 17580, Note_on_c, 2, 69, 90
4, 17609, Note_on_c, 2, 69, 0
4, 17610, Note_on_c, 2, 70, 90
4, 17639, Note_on_c, 2, 70, 0
4, 17640, Note_on_c, 2, 72, 90
4, 17669, Note_on_c, 2, 72, 0
4, 17670, Note_on_c, 2, 74, 90
4, 17699, Note_on_c, 2, 74, 0
4, 17700, Note_on_c, 2, 75, 90
4, 17759, Note_on_c, 2, 75, 0
4, 17760, Note_on_c, 2, 74, 90
4, 17819, Note_on_c, 2, 74, 0
4, 17820, Note_on_c, 2, 70, 90
4, 17849, Note_on_c, 2, 70, 0
4, 17850, Note_on_c, 2, 69, 90
4, 17879, Note_on_c, 2, 69, 0
4, 17880, Note_on_c, 2, 72, 90
4, 17909, Note_on_c, 2, 72, 0
4, 17910, Note_on_c, 2, 70, 90
4, 17939, Note_on_c, 2, 70, 0
4, 17940, Note_on_c, 2, 69, 90
4, 17969, Note_on_c, 2, 69, 0
4, 17970, Note_on_c, 2, 67, 90
4, 17999, Note_on_c, 2, 67, 0
4, 18000, Note_on_c, 2, 69, 90
4, 18059, Note_on_c, 2, 69, 0
4, 18060, Note_on_c, 2, 74, 90
4, 18119, Note_on_c, 2, 74, 0
4, 18120, Note_on_c, 2, 73, 90
4, 18179, Note_on_c, 2, 73, 0
4, 18180, Note_on_c, 2, 74, 90
4, 18239, Note_on_c, 2, 74, 0
4, 18240, Note_on_c, 2, 76, 90
4, 18299, Note_on_c, 2, 76, 0
4, 18300, Note_on_c, 2, 77, 90
4, 18359, Note_on_c, 2, 77, 0
4, 18360, Note_on_c, 2, 76, 90
4, 18419, Note_on_c, 2, 76, 0
4, 18420, Note_on_c, 2, 79, 90
4, 18449, Note_on_c, 2, 79, 0
4, 18450, Note_on_c, 2, 77, 90
4, 18479, Note_on_c, 2, 77, 0
4, 18480, Note_on_c, 2, 76, 90
4, 18509, Note_on_c, 2, 76, 0
4, 18510, Note_on_c, 2, 74, 90
4, 18539, Note_on_c, 2, 74, 0
4, 18540, Note_on_c, 2, 73, 90
4, 18569, Note_on_c, 2, 73, 0
4, 18570, Note_on_c, 2, 71, 90
4, 18599, Note_on_c, 2, 71, 0
4, 18600, Note_on_c, 2, 74, 90
4, 18629, Note_on_c, 2, 74, 0
4, 18630, Note_on_c, 2, 73, 90
4, 18659, Note_on_c, 2, 73, 0
4, 18660, Note_on_c, 2, 71, 90
4, 18689, Note_on_c, 2, 71, 0
4, 18690, Note_on_c, 2, 69, 90
4, 18719, Note_on_c, 2, 69, 0
4, 18720, Note_on_c, 2, 74, 90
4, 18749, Note_on_c, 2, 74, 0
4, 18750, Note_on_c, 2, 73, 90
4, 18779, Note_on_c, 2, 73, 0
4, 18780, Note_on_c, 2, 74, 90
4, 18809, Note_on_c, 2, 74, 0
4, 18810, Note_on_c, 2, 76, 90
4, 18839, Note_on_c, 2, 76, 0
4, 18840, Note_on_c, 2, 73, 90
4, 18869, Note_on_c, 2, 73, 0
4, 18870, Note_on_c, 2, 76, 90
4, 18899, Note_on_c, 2, 76, 0
4, 18900, Note_on_c, 2, 74, 90
4, 18929, Note_on_c, 2, 74, 0
4, 18930, Note_on_c, 2, 76, 90
4, 18959, Note_on_c, 2, 76, 0
4, 18960, Note_on_c, 2, 77, 90
4, 18989, Note_on_c, 2, 77, 0
4, 18990, Note_on_c, 2, 76, 90
4, 19019, Note_on_c, 2, 76, 0
4, 19020, Note_on_c, 2, 74, 90
4, 19049, Note_on_c, 2, 74, 0
4, 19050, Note_on_c, 2, 72, 90
4, 19079, Note_on_c, 2, 72, 0
4, 19080, Note_on_c, 2, 70, 90
4, 19139, Note_on_c, 2, 70, 0
4, 19140, Note_on_c, 2, 67, 90
4, 19199, Note_on_c, 2, 67, 0
4, 19200, Note_on_c, 2, 74, 90
4, 19259, Note_on_c, 2, 74, 0
4, 19260, Note_on_c, 2, 70, 90
4, 19319, Note_on_c, 2, 70, 0
4, 19320, Note_on_c, 2, 67, 90
4, 19379, Note_on_c, 2, 67, 0
4, 19380, Note_on_c, 2, 71, 90
4, 19439, Note_on_c, 2, 71, 0
4, 19440, Note_on_c, 2, 72, 90
4, 19469, Note_on_c, 2, 72, 0
4, 19470, Note_on_c, 2, 71, 90
4, 19499, Note_on_c, 2, 71, 0
4, 19500, Note_on_c, 2, 72, 90
4, 19529, Note_on_c, 2, 72, 0
4, 19530, Note_on_c, 2, 74, 90
4, 19559, Note_on_c, 2, 74, 0
4, 19560, Note_on_c, 2, 71, 90
4, 19589, Note_on_c, 2, 71, 0
4, 19590, Note_on_c, 2, 74, 90
4, 19619, Note_on_c, 2, 74, 0
4, 19620, Note_on_c, 2, 72, 90
4, 19649, Note_on_c, 2, 72, 0
4, 19650, Note_on_c, 2, 74, 90
4, 19679, Note_on_c, 2, 74, 0
4, 19680, Note_on_c, 2, 76, 90
4, 19709, Note_on_c, 2, 76, 0
4, 19710, Note_on_c, 2, 74, 90
4, 19739, Note_on_c, 2, 74, 0
4, 19740, Note_on_c, 2, 72, 90
4, 19769, Note_on_c, 2, 72, 0
4, 19770, Note_on_c, 2, 70, 90
4, 19799, Note_on_c, 2, 70, 0
4, 19800, Note_on_c, 2, 69, 90
4, 19859, Note_on_c, 2, 69, 0
4, 19860, Note_on_c, 2, 65, 90
4, 19919, Note_on_c, 2, 65, 0
4, 19920, Note_on_c, 2, 72, 90
4, 19979, Note_on_c, 2, 72, 0
4, 19980, Note_on_c, 2, 69, 90
4, 20039, Note_on_c, 2, 69, 0
4, 20040, Note_on_c, 2, 65, 90
4, 20099, Note_on_c, 2, 65, 0
4, 20100, Note_on_c, 2, 69, 90
4, 20159, Note_on_c, 2, 69, 0
4, 20160, Note_on_c, 2, 70, 90
4, 20219, Note_on_c, 2, 70, 0
4, 20220, Note_on_c, 2, 69, 90
4, 20279, Note_on_c, 2, 69, 0
4, 20280, Note_on_c, 2, 70, 90
4, 20339, Note_on_c, 2, 70, 0
4, 20340, Note_on_c, 2, 79, 90
4, 20519, Note_on_c, 2, 79, 0
4, 20520, Note_on_c, 2, 69, 90
4, 20579, Note_on_c, 2, 69, 0
4, 20580, Note_on_c, 2, 67, 90
4, 20639, Note_on_c, 2, 67, 0
4, 20640, Note_on_c, 2, 69, 90
4, 20699, Note_on_c, 2, 69, 0
4, 20700, Note_on_c, 2, 77, 90
4, 20939, Note_on_c, 2, 77, 0
4, 20940, Note_on_c, 2, 76, 90
4, 20999, Note_on_c, 2, 76, 0
4, 21000, Note_on_c, 2, 74, 90
4, 21059, Note_on_c, 2, 74, 0
4, 21060, Note_on_c, 2, 73, 90
4, 21119, Note_on_c, 2, 73, 0
4, 21120, Note_on_c, 2, 69, 90
4, 21179, Note_on_c, 2, 69, 0
4, 21180, Note_on_c, 2, 74, 90
4, 21269, Note_on_c, 2, 74, 0
4, 21270, Note_on_c, 2, 76, 90
4, 21299, Note_on_c, 2, 76, 0
4, 21300, Note_on_c, 2, 76, 90
4, 21389, Note_on_c, 2, 76, 0
4, 21390, Note_on_c, 2, 74, 90
4, 21419, Note_on_c, 2, 74, 0
4, 21420, Note_on_c, 2, 74, 90
4, 21539, Note_on_c, 2, 74, 0
4, 21960, Note_on_c, 2, 75, 90
4, 22019, Note_on_c, 2, 75, 0
4, 22020, Note_on_c, 2, 74, 90
4, 22079, Note_on_c, 2, 74, 0
4, 22080, Note_on_c, 2, 72, 90
4, 22139, Note_on_c, 2, 72, 0
4, 22140, Note_on_c, 2, 70, 90
4, 22199, Note_on_c, 2, 70, 0
4, 22200, Note_on_c, 2, 69, 90
4, 22229, Note_on_c, 2, 69, 0
4, 22230, Note_on_c, 2, 70, 90
4, 22259, Note_on_c, 2, 70, 0
4, 22260, Note_on_c, 2, 67, 90
4, 22319, Note_on_c, 2, 67, 0
4, 22320, Note_on_c, 2, 76, 90
4, 22439, Note_on_c, 2, 76, 0
4, 22440, Note_on_c, 2, 77, 90
4, 22499, Note_on_c, 2, 77, 0
4, 22500, Note_on_c, 2, 70, 90
4, 22619, Note_on_c, 2, 70, 0
4, 22620, Note_on_c, 2, 69, 90
4, 22679, Note_on_c, 2, 69, 0
4, 22680, Note_on_c, 2, 77, 90
4, 22739, Note_on_c, 2, 77, 0
4, 22740, Note_on_c, 2, 76, 90
4, 22799, Note_on_c, 2, 76, 0
4, 22800, Note_on_c, 2, 74, 90
4, 22859, Note_on_c, 2, 74, 0
4, 22860, Note_on_c, 2, 73, 90
4, 22919, Note_on_c, 2, 73, 0
4, 22920, Note_on_c, 2, 71, 90
4, 22949, Note_on_c, 2, 71, 0
4, 22950, Note_on_c, 2, 73, 90
4, 22979, Note_on_c, 2, 73, 0
4, 22980, Note_on_c, 2, 69, 90
4, 23039, Note_on_c, 2, 69, 0
4, 23040, Note_on_c, 2, 77, 90
4, 23099, Note_on_c, 2, 77, 0
4, 23100, Note_on_c, 2, 69, 90
4, 23159, Note_on_c, 2, 69, 0
4, 23160, Note_on_c, 2, 69, 90
4, 23219, Note_on_c, 2, 69, 0
4, 23220, Note_on_c, 2, 69, 90
4, 23279, Note_on_c, 2, 69, 0
4, 23280, Note_on_c, 2, 67, 90
4, 23309, Note_on_c, 2, 67, 0
4, 23310, Note_on_c, 2, 71, 90
4, 23339, Note_on_c, 2, 71, 0
4, 23340, Note_on_c, 2, 74, 90
4, 23369, Note_on_c, 2, 74, 0
4, 23370, Note_on_c, 2, 77, 90
4, 23399, Note_on_c, 2, 77, 0
4, 23400, Note_on_c, 2, 75, 90
4, 23459, Note_on_c, 2, 75, 0
4, 23460, Note_on_c, 2, 67, 90
4, 23519, Note_on_c, 2, 67, 0
4, 23520, Note_on_c, 2, 67, 90
4, 23579, Note_on_c, 2, 67, 0
4, 23580, Note_on_c, 2, 67, 90
4, 23639, Note_on_c, 2, 67, 0
4, 23640, Note_on_c, 2, 65, 90
4, 23669, Note_on_c, 2, 65, 0
4, 23670, Note_on_c, 2, 69, 90
4, 23699, Note_on_c, 2, 69, 0
4, 23700, Note_on_c, 2, 72, 90
4, 23729, Note_on_c, 2, 72, 0
4, 23730, Note_on_c, 2, 75, 90
4, 23759, Note_on_c, 2, 75, 0
4, 23760, Note_on_c, 2, 74, 90
4, 23819, Note_on_c, 2, 74, 0
4, 23820, Note_on_c, 2, 65, 90
4, 23879, Note_on_c, 2, 65, 0
4, 23880, Note_on_c, 2, 65, 90
4, 23939, Note_on_c, 2, 65, 0
4, 23940, Note_on_c, 2, 65, 90
4, 23999, Note_on_c, 2, 65, 0
4, 24000, Note_on_c, 2, 64, 90
4, 24029, Note_on_c, 2, 64, 0
4, 24030, Note_on_c, 2, 82, 90
4, 24059, Note_on_c, 2, 82, 0
4, 24060, Note_on_c, 2, 81, 90
4, 24089, Note_on_c, 2, 81, 0
4, 24180, Note_on_c, 2, 79, 90
4, 24209, Note_on_c, 2, 79, 0
4, 24210, Note_on_c, 2, 77, 90
4, 24239, Note_on_c, 2, 77, 0
4, 24240, Note_on_c, 2, 76, 90
4, 24269, Note_on_c, 2, 76, 0
4, 24270, Note_on_c, 2, 74, 90
4, 24299, Note_on_c, 2, 74, 0
4, 24300, Note_on_c, 2, 74, 90
4, 24329, Note_on_c, 2, 74, 0
4, 24330, Note_on_c, 2, 69, 90
4, 24359, Note_on_c, 2, 69, 0
4, 24360, Note_on_c, 2, 71, 90
4, 24389, Note_on_c, 2, 71, 0
4, 24390, Note_on_c, 2, 73, 90
4, 24419, Note_on_c, 2, 73, 0
4, 24420, Note_on_c, 2, 74, 90
4, 24449, Note_on_c, 2, 74, 0
4, 24450, Note_on_c, 2, 76, 90
4, 24479, Note_on_c, 2, 76, 0
4, 24480, Note_on_c, 2, 77, 90
4, 24509, Note_on_c, 2, 77, 0
4, 24510, Note_on_c, 2, 74, 90
4, 24539, Note_on_c, 2, 74, 0
4, 24540, Note_on_c, 2, 72, 90
4, 24554, Note_on_c, 2, 72, 0
4, 24555, Note_on_c, 2, 71, 90
4, 24569, Note_on_c, 2, 71, 0
4, 24570, Note_on_c, 2, 72, 90
4, 24580, Note_on_c, 2, 72, 0
4, 24580, Note_on_c, 2, 71, 90
4, 24590, Note_on_c, 2, 71, 0
4, 24590, Note_on_c, 2, 72, 90
4, 24600, Note_on_c, 2, 72, 0
4, 24600, Note_on_c, 2, 71, 90
4, 24610, Note_on_c, 2, 71, 0
4, 24610, Note_on_c, 2, 72, 90
4, 24620, Note_on_c, 2, 72, 0
4, 24620, Note_on_c, 2, 71, 90
4, 24630, Note_on_c, 2, 71, 0
4, 24630, Note_on_c, 2, 69, 90
4, 24644, Note_on_c, 2, 69, 0
4, 24645, Note_on_c, 2, 71, 90
4, 24659, Note_on_c, 2, 71, 0
4, 24660, Note_on_c, 2, 72, 90
4, 24779, Note_on_c, 2, 72, 0
4, 25380, Note_on_c, 2, 69, 90
4, 25439, Note_on_c, 2, 69, 0
4, 25440, Note_on_c, 2, 71, 90
4, 25499, Note_on_c, 2, 71, 0
4, 25500, Note_on_c, 2, 72, 90
4, 25559, Note_on_c, 2, 72, 0
4, 25560, Note_on_c, 2, 71, 90
4, 25619, Note_on_c, 2, 71, 0
4, 25620, Note_on_c, 2, 74, 90
4, 25649, Note_on_c, 2, 74, 0
4, 25650, Note_on_c, 2, 72, 90
4, 25679, Note_on_c, 2, 72, 0
4, 25680, Note_on_c, 2, 71, 90
4, 25709, Note_on_c, 2, 71, 0
4, 25710, Note_on_c, 2, 69, 90
4, 25739, Note_on_c, 2, 69, 0
4, 25740, Note_on_c, 2, 68, 90
4, 25769, Note_on_c, 2, 68, 0
4, 25770, Note_on_c, 2, 66, 90
4, 25799, Note_on_c, 2, 66, 0
4, 25800, Note_on_c, 2, 69, 90
4, 25829, Note_on_c, 2, 69, 0
4, 25830, Note_on_c, 2, 68, 90
4, 25859, Note_on_c, 2, 68, 0
4, 25860, Note_on_c, 2, 66, 90
4, 25889, Note_on_c, 2, 66, 0
4, 25890, Note_on_c, 2, 64, 90
4, 25919, Note_on_c, 2, 64, 0
4, 25920, Note_on_c, 2, 69, 90
4, 25949, Note_on_c, 2, 69, 0
4, 25980, Note_on_c, 2, 74, 90
4, 26009, Note_on_c, 2, 74, 0
4, 26100, Note_on_c, 2, 76, 90
4, 26129, Note_on_c, 2, 76, 0
4, 26160, Note_on_c, 2, 72, 90
4, 26189, Note_on_c, 2, 72, 0
4, 26280, Note_on_c, 2, 69, 90
4, 26339, Note_on_c, 2, 69, 0
4, 26340, Note_on_c, 2, 69, 90
4, 26399, Note_on_c, 2, 69, 0
4, 26400, Note_on_c, 2, 69, 90
4, 26459, Note_on_c, 2, 69, 0
4, 26460, Note_on_c, 2, 69, 90
4, 26519, Note_on_c, 2, 69, 0
4, 26520, Note_on_c, 2, 69, 90
4, 26579, Note_on_c, 2, 69, 0
4, 26580, Note_on_c, 2, 69, 90
4, 26639, Note_on_c, 2, 69, 0
4, 26640, Note_on_c, 2, 67, 90
4, 26670, Note_on_c, 2, 67, 0
4, 26700, Note_on_c, 2, 74, 90
4, 26730, Note_on_c, 2, 74, 0
4, 26820, Note_on_c, 2, 74, 90
4, 26850, Note_on_c, 2, 74, 0
4, 26880, Note_on_c, 2, 71, 90
4, 26910, Note_on_c, 2, 71, 0
4, 27000, Note_on_c, 2, 67, 90
4, 27059, Note_on_c, 2, 67, 0
4, 27060, Note_on_c, 2, 67, 90
4, 27119, Note_on_c, 2, 67, 0
4, 27120, Note_on_c, 2, 67, 90
4, 27179, Note_on_c, 2, 67, 0
4, 27180, Note_on_c, 2, 67, 90
4, 27239, Note_on_c, 2, 67, 0
4, 27240, Note_on_c, 2, 67, 90
4, 27299, Note_on_c, 2, 67, 0
4, 27300, Note_on_c, 2, 67, 90
4, 27359, Note_on_c, 2, 67, 0
4, 27540, Note_on_c, 2, 70, 90
4, 27599, Note_on_c, 2, 70, 0
4, 27600, Note_on_c, 2, 69, 90
4, 27659, Note_on_c, 2, 69, 0
4, 27660, Note_on_c, 2, 70, 90
4, 27719, Note_on_c, 2, 70, 0
4, 27720, Note_on_c, 2, 79, 90
4, 27899, Note_on_c, 2, 79, 0
4, 27900, Note_on_c, 2, 69, 90
4, 27959, Note_on_c, 2, 69, 0
4, 27960, Note_on_c, 2, 67, 90
4, 28019, Note_on_c, 2, 67, 0
4, 28020, Note_on_c, 2, 69, 90
4, 28079, Note_on_c, 2, 69, 0
4, 28080, Note_on_c, 2, 77, 90
4, 28139, Note_on_c, 2, 77, 0
4, 28140, Note_on_c, 2, 71, 90
4, 28199, Note_on_c, 2, 71, 0
4, 28200, Note_on_c, 2, 69, 90
4, 28259, Note_on_c, 2, 69, 0
4, 28260, Note_on_c, 2, 68, 90
4, 28319, Note_on_c, 2, 68, 0
4, 28320, Note_on_c, 2, 65, 90
4, 28349, Note_on_c, 2, 65, 0
4, 28350, Note_on_c, 2, 64, 90
4, 28379, Note_on_c, 2, 64, 0
4, 28380, Note_on_c, 2, 69, 90
4, 28469, Note_on_c, 2, 69, 0
4, 28470, Note_on_c, 2, 71, 90
4, 28499, Note_on_c, 2, 71, 0
4, 28500, Note_on_c, 2, 71, 90
4, 28589, Note_on_c, 2, 71, 0
4, 28590, Note_on_c, 2, 69, 90
4, 28619, Note_on_c, 2, 69, 0
4, 28620, Note_on_c, 2, 69, 90
4, 28739, Note_on_c, 2, 69, 0
4, 29880, Note_on_c, 2, 81, 90
4, 29999, Note_on_c, 2, 81, 0
4, 30000, Note_on_c, 2, 82, 90
4, 30059, Note_on_c, 2, 82, 0
4, 30060, Note_on_c, 2, 75, 90
4, 30179, Note_on_c, 2, 75, 0
4, 30180, Note_on_c, 2, 74, 90
4, 30209, Note_on_c, 2, 74, 0
4, 30210, Note_on_c, 2, 72, 90
4, 30239, Note_on_c, 2, 72, 0
4, 30240, Note_on_c, 2, 74, 90
4, 30269, Note_on_c, 2, 74, 0
4, 30270, Note_on_c, 2, 76, 90
4, 30299, Note_on_c, 2, 76, 0
4, 30300, Note_on_c, 2, 77, 90
4, 30314, Note_on_c, 2, 77, 0
4, 30315, Note_on_c, 2, 76, 90
4, 30329, Note_on_c, 2, 76, 0
4, 30330, Note_on_c, 2, 77, 90
4, 30344, Note_on_c, 2, 77, 0
4, 30345, Note_on_c, 2, 76, 90
4, 30359, Note_on_c, 2, 76, 0
4, 30360, Note_on_c, 2, 77, 90
4, 30374, Note_on_c, 2, 77, 0
4, 30375, Note_on_c, 2, 76, 90
4, 30389, Note_on_c, 2, 76, 0
4, 30390, Note_on_c, 2, 74, 90
4, 30404, Note_on_c, 2, 74, 0
4, 30405, Note_on_c, 2, 76, 90
4, 30419, Note_on_c, 2, 76, 0
4, 30420, Note_on_c, 2, 77, 90
4, 30479, Note_on_c, 2, 77, 0
4, 30480, Note_on_c, 2, 76, 90
4, 30509, Note_on_c, 2, 76, 0
4, 30510, Note_on_c, 2, 74, 90
4, 30539, Note_on_c, 2, 74, 0
4, 30540, Note_on_c, 2, 72, 90
4, 30569, Note_on_c, 2, 72, 0
4, 30570, Note_on_c, 2, 70, 90
4, 30599, Note_on_c, 2, 70, 0
4, 30600, Note_on_c, 2, 69, 90
4, 30659, Note_on_c, 2, 69, 0
4, 30660, Note_on_c, 2, 74, 90
4, 30719, Note_on_c, 2, 74, 0
4, 30720, Note_on_c, 2, 70, 90
4, 30779, Note_on_c, 2, 70, 0
4, 30780, Note_on_c, 2, 69, 90
4, 30839, Note_on_c, 2, 69, 0
4, 30840, Note_on_c, 2, 67, 90
4, 30899, Note_on_c, 2, 67, 0
4, 31140, Note_on_c, 2, 70, 90
4, 31199, Note_on_c, 2, 70, 0
4, 31200, Note_on_c, 2, 69, 90
4, 31259, Note_on_c, 2, 69, 0
4, 31260, Note_on_c, 2, 67, 90
4, 31319, Note_on_c, 2, 67, 0
4, 31860, Note_on_c, 2, 67, 90
4, 31919, Note_on_c, 2, 67, 0
4, 31920, Note_on_c, 2, 65, 90
4, 31979, Note_on_c, 2, 65, 0
4, 31980, Note_on_c, 2, 64, 90
4, 32039, Note_on_c, 2, 64, 0
4, 32760, Note_on_c, 2, 77, 90
4, 32819, Note_on_c, 2, 77, 0
4, 32820, Note_on_c, 2, 72, 90
4, 32879, Note_on_c, 2, 72, 0
4, 32880, Note_on_c, 2, 75, 90
4, 32939, Note_on_c, 2, 75, 0
4, 32940, Note_on_c, 2, 75, 90
4, 32970, Note_on_c, 2, 75, 0
4, 33000, Note_on_c, 2, 74, 90
4, 33030, Note_on_c, 2, 74, 0
4, 33120, Note_on_c, 2, 72, 90
4, 33179, Note_on_c, 2, 72, 0
4, 33180, Note_on_c, 2, 75, 90
4, 33239, Note_on_c, 2, 75, 0
4, 33240, Note_on_c, 2, 74, 90
4, 33299, Note_on_c, 2, 74, 0
4, 33300, Note_on_c, 2, 72, 90
4, 33359, Note_on_c, 2, 72, 0
4, 33360, Note_on_c, 2, 70, 90
4, 33419, Note_on_c, 2, 70, 0
4, 33420, Note_on_c, 2, 69, 90
4, 33479, Note_on_c, 2, 69, 0
4, 33480, Note_on_c, 2, 70, 90
4, 33539, Note_on_c, 2, 70, 0
4, 33540, Note_on_c, 2, 74, 90
4, 33599, Note_on_c, 2, 74, 0
4, 33600, Note_on_c, 2, 72, 90
4, 33659, Note_on_c, 2, 72, 0
4, 33660, Note_on_c, 2, 70, 90
4, 33719, Note_on_c, 2, 70, 0
4, 33720, Note_on_c, 2, 69, 90
4, 33779, Note_on_c, 2, 69, 0
4, 33840, Note_on_c, 2, 76, 90
4, 33869, Note_on_c, 2, 76, 0
4, 33870, Note_on_c, 2, 74, 90
4, 33899, Note_on_c, 2, 74, 0
4, 33900, Note_on_c, 2, 76, 90
4, 33929, Note_on_c, 2, 76, 0
4, 33930, Note_on_c, 2, 72, 90
4, 33959, Note_on_c, 2, 72, 0
4, 33960, Note_on_c, 2, 77, 90
4, 33989, Note_on_c, 2, 77, 0
4, 33990, Note_on_c, 2, 72, 90
4, 34019, Note_on_c, 2, 72, 0
4, 34020, Note_on_c, 2, 79, 90
4, 34049, Note_on_c, 2, 79, 0
4, 34050, Note_on_c, 2, 77, 90
4, 34079, Note_on_c, 2, 77, 0
4, 34080, Note_on_c, 2, 79, 90
4, 34109, Note_on_c, 2, 79, 0
4, 34110, Note_on_c, 2, 72, 90
4, 34139, Note_on_c, 2, 72, 0
4, 34140, Note_on_c, 2, 81, 90
4, 34169, Note_on_c, 2, 81, 0
4, 34170, Note_on_c, 2, 72, 90
4, 34199, Note_on_c, 2, 72, 0
4, 34200, Note_on_c, 2, 76, 90
4, 34259, Note_on_c, 2, 76, 0
4, 34260, Note_on_c, 2, 77, 90
4, 34319, Note_on_c, 2, 77, 0
4, 34320, Note_on_c, 2, 79, 90
4, 34379, Note_on_c, 2, 79, 0
4, 34380, Note_on_c, 2, 81, 90
4, 34439, Note_on_c, 2, 81, 0
4, 34440, Note_on_c, 2, 79, 90
4, 34469, Note_on_c, 2, 79, 0
4, 34470, Note_on_c, 2, 81, 90
4, 34499, Note_on_c, 2, 81, 0
4, 34500, Note_on_c, 2, 77, 90
4, 34559, Note_on_c, 2, 77, 0
4, 34920, Note_on_c, 2, 72, 90
4, 34979, Note_on_c, 2, 72, 0
4, 34980, Note_on_c, 2, 74, 90
4, 35039, Note_on_c, 2, 74, 0
4, 35040, Note_on_c, 2, 75, 90
4, 35099, Note_on_c, 2, 75, 0
4, 35100, Note_on_c, 2, 77, 90
4, 35159, Note_on_c, 2, 77, 0
4, 35160, Note_on_c, 2, 75, 90
4, 35189, Note_on_c, 2, 75, 0
4, 35190, Note_on_c, 2, 77, 90
4, 35219, Note_on_c, 2, 77, 0
4, 35220, Note_on_c, 2, 74, 90
4, 35279, Note_on_c, 2, 74, 0
4, 35280, Note_on_c, 2, 74, 90
4, 35339, Note_on_c, 2, 74, 0
4, 35340, Note_on_c, 2, 65, 90
4, 35370, Note_on_c, 2, 65, 0
4, 35400, Note_on_c, 2, 65, 90
4, 35430, Note_on_c, 2, 65, 0
4, 35460, Note_on_c, 2, 65, 90
4, 35519, Note_on_c, 2, 65, 0
4, 35520, Note_on_c, 2, 64, 90
4, 35549, Note_on_c, 2, 64, 0
4, 35550, Note_on_c, 2, 67, 90
4, 35579, Note_on_c, 2, 67, 0
4, 35580, Note_on_c, 2, 70, 90
4, 35609, Note_on_c, 2, 70, 0
4, 35610, Note_on_c, 2, 74, 90
4, 35639, Note_on_c, 2, 74, 0
4, 35640, Note_on_c, 2, 72, 90
4, 35699, Note_on_c, 2, 72, 0
4, 35700, Note_on_c, 2, 64, 90
4, 35730, Note_on_c, 2, 64, 0
4, 35760, Note_on_c, 2, 64, 90
4, 35790, Note_on_c, 2, 64, 0
4, 35820, Note_on_c, 2, 64, 90
4, 35879, Note_on_c, 2, 64, 0
4, 35880, Note_on_c, 2, 62, 90
4, 35909, Note_on_c, 2, 62, 0
4, 35910, Note_on_c, 2, 66, 90
4, 35939, Note_on_c, 2, 66, 0
4, 35940, Note_on_c, 2, 69, 90
4, 35969, Note_on_c, 2, 69, 0
4, 35970, Note_on_c, 2, 72, 90
4, 35999, Note_on_c, 2, 72, 0
4, 36000, Note_on_c, 2, 70, 90
4, 36059, Note_on_c, 2, 70, 0
4, 36060, Note_on_c, 2, 62, 90
4, 36090, Note_on_c, 2, 62, 0
4, 36120, Note_on_c, 2, 62, 90
4, 36150, Note_on_c, 2, 62, 0
4, 36180, Note_on_c, 2, 62, 90
4, 36239, Note_on_c, 2, 62, 0
4, 36240, Note_on_c, 2, 60, 90
4, 36269, Note_on_c, 2, 60, 0
4, 36270, Note_on_c, 2, 64, 90
4, 36299, Note_on_c, 2, 64, 0
4, 36300, Note_on_c, 2, 67, 90
4, 36329, Note_on_c, 2, 67, 0
4, 36330, Note_on_c, 2, 70, 90
4, 36359, Note_on_c, 2, 70, 0
4, 36360, Note_on_c, 2, 69, 90
4, 36419, Note_on_c, 2, 69, 0
4, 36420, Note_on_c, 2, 81, 90
4, 36479, Note_on_c, 2, 81, 0
4, 36480, Note_on_c, 2, 79, 90
4, 36539, Note_on_c, 2, 79, 0
4, 36540, Note_on_c, 2, 76, 90
4, 36599, Note_on_c, 2, 76, 0
4, 36600, Note_on_c, 2, 74, 90
4, 36629, Note_on_c, 2, 74, 0
4, 36630, Note_on_c, 2, 76, 90
4, 36659, Note_on_c, 2, 76, 0
4, 36660, Note_on_c, 2, 72, 90
4, 36689, Note_on_c, 2, 72, 0
4, 36690, Note_on_c, 2, 70, 90
4, 36719, Note_on_c, 2, 70, 0
4, 36720, Note_on_c, 2, 69, 90
4, 36839, Note_on_c, 2, 69, 0
4, 36840, Note_on_c, 2, 70, 90
4, 36899, Note_on_c, 2, 70, 0
4, 36900, Note_on_c, 2, 67, 90
4, 37019, Note_on_c, 2, 67, 0
4, 37020, Note_on_c, 2, 65, 90
4, 37079, Note_on_c, 2, 65, 0
4, 37080, Note_on_c, 2, 69, 90
4, 37139, Note_on_c, 2, 69, 0
4, 37140, Note_on_c, 2, 70, 90
4, 37199, Note_on_c, 2, 70, 0
4, 37200, Note_on_c, 2, 72, 90
4, 37259, Note_on_c, 2, 72, 0
4, 37260, Note_on_c, 2, 74, 90
4, 37289, Note_on_c, 2, 74, 0
4, 37320, Note_on_c, 2, 72, 90
4, 37349, Note_on_c, 2, 72, 0
4, 37620, Note_on_c, 2, 77, 90
4, 37679, Note_on_c, 2, 77, 0
4, 37680, Note_on_c, 2, 75, 90
4, 37739, Note_on_c, 2, 75, 0
4, 37740, Note_on_c, 2, 74, 90
4, 37799, Note_on_c, 2, 74, 0
4, 38340, Note_on_c, 2, 70, 90
4, 38399, Note_on_c, 2, 70, 0
4, 38400, Note_on_c, 2, 72, 90
4, 38459, Note_on_c, 2, 72, 0
4, 38460, Note_on_c, 2, 74, 90
4, 38519, Note_on_c, 2, 74, 0
4, 38880, Note_on_c, 2, 74, 90
4, 38999, Note_on_c, 2, 74, 0
4, 39000, Note_on_c, 2, 75, 90
4, 39059, Note_on_c, 2, 75, 0
4, 39060, Note_on_c, 2, 72, 90
4, 39179, Note_on_c, 2, 72, 0
4, 39180, Note_on_c, 2, 70, 90
4, 39239, Note_on_c, 2, 70, 0
4, 39240, Note_on_c, 2, 74, 90
4, 39299, Note_on_c, 2, 74, 0
4, 39300, Note_on_c, 2, 76, 90
4, 39359, Note_on_c, 2, 76, 0
4, 39360, Note_on_c, 2, 77, 90
4, 39419, Note_on_c, 2, 77, 0
4, 39420, Note_on_c, 2, 79, 90
4, 39449, Note_on_c, 2, 79, 0
4, 39480, Note_on_c, 2, 70, 90
4, 39509, Note_on_c, 2, 70, 0
4, 39600, Note_on_c, 2, 69, 90
4, 39659, Note_on_c, 2, 69, 0
4, 39660, Note_on_c, 2, 74, 90
4, 39719, Note_on_c, 2, 74, 0
4, 39720, Note_on_c, 2, 72, 90
4, 39779, Note_on_c, 2, 72, 0
4, 39780, Note_on_c, 2, 76, 90
4, 39839, Note_on_c, 2, 76, 0
4, 39840, Note_on_c, 2, 77, 90
4, 39899, Note_on_c, 2, 77, 0
4, 39900, Note_on_c, 2, 65, 90
4, 39959, Note_on_c, 2, 65, 0
4, 39960, Note_on_c, 2, 70, 90
4, 40019, Note_on_c, 2, 70, 0
4, 40020, Note_on_c, 2, 67, 90
4, 40139, Note_on_c, 2, 67, 0
4, 40140, Note_on_c, 2, 65, 90
4, 40259, Note_on_c, 2, 65, 0
4, 40680, Note_on_c, 2, 76, 90
4, 40739, Note_on_c, 2, 76, 0
4, 40740, Note_on_c, 2, 77, 90
4, 40799, Note_on_c, 2, 77, 0
4, 40800, Note_on_c, 2, 79, 90
4, 40859, Note_on_c, 2, 79, 0
4, 40860, Note_on_c, 2, 81, 90
4, 40919, Note_on_c, 2, 81, 0
4, 40920, Note_on_c, 2, 79, 90
4, 40949, Note_on_c, 2, 79, 0
4, 40950, Note_on_c, 2, 81, 90
4, 40979, Note_on_c, 2, 81, 0
4, 40980, Note_on_c, 2, 77, 90
4, 41039, Note_on_c, 2, 77, 0
4, 41040, Note_on_c, 2, 81, 90
4, 41159, Note_on_c, 2, 81, 0
4, 41160, Note_on_c, 2, 82, 90
4, 41219, Note_on_c, 2, 82, 0
4, 41220, Note_on_c, 2, 75, 90
4, 41339, Note_on_c, 2, 75, 0
4, 41340, Note_on_c, 2, 74, 90
4, 41399, Note_on_c, 2, 74, 0
4, 41400, Note_on_c, 2, 78, 90
4, 41459, Note_on_c, 2, 78, 0
4, 41460, Note_on_c, 2, 79, 90
4, 41519, Note_on_c, 2, 79, 0
4, 41520, Note_on_c, 2, 81, 90
4, 41579, Note_on_c, 2, 81, 0
4, 41580, Note_on_c, 2, 82, 90
4, 41639, Note_on_c, 2, 82, 0
4, 41640, Note_on_c, 2, 81, 90
4, 41669, Note_on_c, 2, 81, 0
4, 41670, Note_on_c, 2, 82, 90
4, 41699, Note_on_c, 2, 82, 0
4, 41700, Note_on_c, 2, 79, 90
4, 41759, Note_on_c, 2, 79, 0
4, 41760, Note_on_c, 2, 82, 90
4, 41819, Note_on_c, 2, 82, 0
4, 41820, Note_on_c, 2, 74, 90
4, 41850, Note_on_c, 2, 74, 0
4, 41880, Note_on_c, 2, 74, 90
4, 41910, Note_on_c, 2, 74, 0
4, 41940, Note_on_c, 2, 74, 90
4, 41999, Note_on_c, 2, 74, 0
4, 42000, Note_on_c, 2, 72, 90
4, 42029, Note_on_c, 2, 72, 0
4, 42030, Note_on_c, 2, 76, 90
4, 42059, Note_on_c, 2, 76, 0
4, 42060, Note_on_c, 2, 79, 90
4, 42089, Note_on_c, 2, 79, 0
4, 42090, Note_on_c, 2, 82, 90
4, 42119, Note_on_c, 2, 82, 0
4, 42120, Note_on_c, 2, 81, 90
4, 42179, Note_on_c, 2, 81, 0
4, 42180, Note_on_c, 2, 72, 90
4, 42210, Note_on_c, 2, 72, 0
4, 42240, Note_on_c, 2, 72, 90
4, 42270, Note_on_c, 2, 72, 0
4, 42300, Note_on_c, 2, 72, 90
4, 42359, Note_on_c, 2, 72, 0
4, 42360, Note_on_c, 2, 70, 90
4, 42389, Note_on_c, 2, 70, 0
4, 42390, Note_on_c, 2, 74, 90
4, 42419, Note_on_c, 2, 74, 0
4, 42420, Note_on_c, 2, 77, 90
4, 42449, Note_on_c, 2, 77, 0
4, 42450, Note_on_c, 2, 81, 90
4, 42479, Note_on_c, 2, 81, 0
4, 42480, Note_on_c, 2, 79, 90
4, 42539, Note_on_c, 2, 79, 0
4, 42540, Note_on_c, 2, 70, 90
4, 42570, Note_on_c, 2, 70, 0
4, 42600, Note_on_c, 2, 70, 90
4, 42630, Note_on_c, 2, 70, 0
4, 42660, Note_on_c, 2, 70, 90
4, 42719, Note_on_c, 2, 70, 0
4, 42720, Note_on_c, 2, 69, 90
4, 42749, Note_on_c, 2, 69, 0
4, 42750, Note_on_c, 2, 74, 90
4, 42779, Note_on_c, 2, 74, 0
4, 42780, Note_on_c, 2, 72, 90
4, 42809, Note_on_c, 2, 72, 0
4, 42900, Note_on_c, 2, 70, 90
4, 42929, Note_on_c, 2, 70, 0
4, 42930, Note_on_c, 2, 69, 90
4, 42959, Note_on_c, 2, 69, 0
4, 42960, Note_on_c, 2, 67, 90
4, 42989, Note_on_c, 2, 67, 0
4, 42990, Note_on_c, 2, 65, 90
4, 43019, Note_on_c, 2, 65, 0
4, 43020, Note_on_c, 2, 65, 90
4, 43199, Note_on_c, 2, 65, 0
4, 60180, Note_on_c, 2, 72, 100
4, 60420, Note_on_c, 2, 72, 0
4, 60480, Note_on_c, 2, 67, 100
4, 60540, Note_on_c, 2, 67, 0
4, 60540, Note_on_c, 2, 69, 100
4, 60600, Note_on_c, 2, 69, 0
4, 60600, Note_on_c, 2, 65, 100
4, 60660, Note_on_c, 2, 65, 0
4, 60660, Note_on_c, 2, 67, 100
4, 60720, Note_on_c, 2, 67, 0
4, 60900, Note_on_c, 2, 72, 100
4, 61140, Note_on_c, 2, 72, 0
4, 61140, Note_on_c, 2, 76, 100
4, 61200, Note_on_c, 2, 76, 0
4, 61200, Note_on_c, 2, 74, 100
4, 61260, Note_on_c, 2, 74, 0
4, 61260, Note_on_c, 2, 76, 100
4, 61320, Note_on_c, 2, 76, 0
4, 61320, Note_on_c, 2, 72, 100
4, 61380, Note_on_c, 2, 72, 0
4, 61380, Note_on_c, 2, 74, 100
4, 61440, Note_on_c, 2, 74, 0
4, 61620, Note_on_c, 2, 79, 100
4, 61860, Note_on_c, 2, 79, 0
4, 61920, Note_on_c, 2, 81, 100
4, 61980, Note_on_c, 2, 81, 0
4, 61980, Note_on_c, 2, 79, 100
4, 62040, Note_on_c, 2, 79, 0
4, 62040, Note_on_c, 2, 76, 100
4, 62100, Note_on_c, 2, 76, 0
4, 62100, Note_on_c, 2, 72, 100
4, 62160, Note_on_c, 2, 72, 0
4, 62160, Note_on_c, 2, 71, 100
4, 62220, Note_on_c, 2, 71, 0
4, 62220, Note_on_c, 2, 77, 100
4, 62280, Note_on_c, 2, 77, 0
4, 62280, Note_on_c, 2, 74, 100
4, 62340, Note_on_c, 2, 74, 0
4, 62340, Note_on_c, 2, 76, 100
4, 62355, Note_on_c, 2, 76, 0
4, 62355, Note_on_c, 2, 77, 100
4, 62370, Note_on_c, 2, 77, 0
4, 62370, Note_on_c, 2, 76, 100
4, 62400, Note_on_c, 2, 76, 0
4, 62400, Note_on_c, 2, 74, 100
4, 62460, Note_on_c, 2, 74, 0
4, 62460, Note_on_c, 2, 72, 100
4, 62520, Note_on_c, 2, 72, 0
4, 62520, Note_on_c, 2, 79, 100
4, 62640, Note_on_c, 2, 79, 0
4, 62640, Note_on_c, 2, 81, 100
4, 62700, Note_on_c, 2, 81, 0
4, 62700, Note_on_c, 2, 79, 100
4, 62760, Note_on_c, 2, 79, 0
4, 62760, Note_on_c, 2, 76, 100
4, 62820, Note_on_c, 2, 76, 0
4, 62820, Note_on_c, 2, 72, 100
4, 62880, Note_on_c, 2, 72, 0
4, 62880, Note_on_c, 2, 71, 100
4, 62940, Note_on_c, 2, 71, 0
4, 62940, Note_on_c, 2, 77, 100
4, 63000, Note_on_c, 2, 77, 0
4, 63000, Note_on_c, 2, 74, 100
4, 63060, Note_on_c, 2, 74, 0
4, 63060, Note_on_c, 2, 76, 100
4, 63075, Note_on_c, 2, 76, 0
4, 63075, Note_on_c, 2, 77, 100
4, 63090, Note_on_c, 2, 77, 0
4, 63090, Note_on_c, 2, 76, 100
4, 63120, Note_on_c, 2, 76, 0
4, 63120, Note_on_c, 2, 74, 100
4, 63180, Note_on_c, 2, 74, 0
4, 63180, Note_on_c, 2, 72, 100
4, 63240, Note_on_c, 2, 72, 0
4, 63240, Note_on_c, 2, 67, 100
4, 63300, Note_on_c, 2, 67, 0
4, 63300, Note_on_c, 2, 69, 100
4, 63360, Note_on_c, 2, 69, 0
4, 63360, Note_on_c, 2, 70, 100
4, 63420, Note_on_c, 2, 70, 0
4, 63420, Note_on_c, 2, 69, 100
4, 63480, Note_on_c, 2, 69, 0
4, 63480, Note_on_c, 2, 71, 100
4, 63540, Note_on_c, 2, 71, 0
4, 63540, Note_on_c, 2, 72, 100
4, 63600, Note_on_c, 2, 72, 0
4, 63600, Note_on_c, 2, 71, 100
4, 63630, Note_on_c, 2, 71, 0
4, 63630, Note_on_c, 2, 72, 100
4, 63660, Note_on_c, 2, 72, 0
4, 63660, Note_on_c, 2, 74, 100
4, 63675, Note_on_c, 2, 74, 0
4, 63675, Note_on_c, 2, 72, 100
4, 63690, Note_on_c, 2, 72, 0
4, 63690, Note_on_c, 2, 74, 100
4, 63705, Note_on_c, 2, 74, 0
4, 63705, Note_on_c, 2, 72, 100
4, 63720, Note_on_c, 2, 72, 0
4, 63720, Note_on_c, 2, 74, 100
4, 63735, Note_on_c, 2, 74, 0
4, 63735, Note_on_c, 2, 72, 100
4, 63750, Note_on_c, 2, 72, 0
4, 63750, Note_on_c, 2, 71, 100
4, 63765, Note_on_c, 2, 71, 0
4, 63765, Note_on_c, 2, 72, 100
4, 63780, Note_on_c, 2, 72, 0
4, 63780, Note_on_c, 2, 74, 100
4, 63960, Note_on_c, 2, 74, 0
4, 63960, Note_on_c, 2, 62, 100
4, 63990, Note_on_c, 2, 62, 0
4, 64020, Note_on_c, 2, 72, 100
4, 64140, Note_on_c, 2, 72, 0
4, 64140, Note_on_c, 2, 71, 100
4, 64200, Note_on_c, 2, 71, 0
4, 64200, Note_on_c, 2, 66, 100
4, 64260, Note_on_c, 2, 66, 0
4, 64260, Note_on_c, 2, 67, 100
4, 64320, Note_on_c, 2, 67, 0
4, 64320, Note_on_c, 2, 76, 100
4, 64380, Note_on_c, 2, 76, 0
4, 64380, Note_on_c, 2, 74, 100
4, 64440, Note_on_c, 2, 74, 0
4, 64440, Note_on_c, 2, 66, 100
4, 64500, Note_on_c, 2, 66, 0
4, 64500, Note_on_c, 2, 72, 100
4, 64560, Note_on_c, 2, 72, 0
4, 64560, Note_on_c, 2, 71, 100
4, 64620, Note_on_c, 2, 71, 0
4, 64860, Note_on_c, 2, 77, 100
4, 64920, Note_on_c, 2, 77, 0
4, 64920, Note_on_c, 2, 76, 100
4, 64980, Note_on_c, 2, 76, 0
4, 65220, Note_on_c, 2, 78, 100
4, 65280, Note_on_c, 2, 78, 0
4, 65280, Note_on_c, 2, 79, 100
4, 65340, Note_on_c, 2, 79, 0
4, 65580, Note_on_c, 2, 73, 100
4, 65640, Note_on_c, 2, 73, 0
4, 65640, Note_on_c, 2, 74, 100
4, 65700, Note_on_c, 2, 74, 0
4, 65940, Note_on_c, 2, 62, 100
4, 66000, Note_on_c, 2, 62, 0
4, 66000, Note_on_c, 2, 72, 100
4, 66120, Note_on_c, 2, 72, 0
4, 66120, Note_on_c, 2, 71, 100
4, 66180, Note_on_c, 2, 71, 0
4, 66180, Note_on_c, 2, 66, 100
4, 66240, Note_on_c, 2, 66, 0
4, 66240, Note_on_c, 2, 67, 100
4, 66300, Note_on_c, 2, 67, 0
4, 66300, Note_on_c, 2, 76, 100
4, 66360, Note_on_c, 2, 76, 0
4, 66360, Note_on_c, 2, 74, 100
4, 66390, Note_on_c, 2, 74, 0
4, 66390, Note_on_c, 2, 72, 100
4, 66420, Note_on_c, 2, 72, 0
4, 66420, Note_on_c, 2, 71, 100
4, 66450, Note_on_c, 2, 71, 0
4, 66450, Note_on_c, 2, 69, 100
4, 66480, Note_on_c, 2, 69, 0
4, 66480, Note_on_c, 2, 67, 100
4, 66660, Note_on_c, 2, 67, 0
4, 67200, Note_on_c, 2, 69, 80
4, 67260, Note_on_c, 2, 69, 0
4, 67260, Note_on_c, 2, 65, 80
4, 67320, Note_on_c, 2, 65, 0
4, 67320, Note_on_c, 2, 67, 80
4, 67380, Note_on_c, 2, 67, 0
4, 67920, Note_on_c, 2, 76, 80
4, 67980, Note_on_c, 2, 76, 0
4, 67980, Note_on_c, 2, 72, 80
4, 68040, Note_on_c, 2, 72, 0
4, 68040, Note_on_c, 2, 74, 80
4, 68100, Note_on_c, 2, 74, 0
4, 68280, Note_on_c, 2, 72, 70
4, 68700, Note_on_c, 2, 72, 0
4, 68700, Note_on_c, 2, 69, 70
4, 68760, Note_on_c, 2, 69, 0
4, 68760, Note_on_c, 2, 71, 70
4, 68820, Note_on_c, 2, 71, 0
4, 68820, Note_on_c, 2, 74, 70
4, 68879, Note_on_c, 2, 74, 0
4, 68880, Note_on_c, 2, 72, 70
4, 68939, Note_on_c, 2, 72, 0
4, 69180, Note_on_c, 2, 72, 70
4, 69419, Note_on_c, 2, 72, 0
4, 69420, Note_on_c, 2, 69, 70
4, 69479, Note_on_c, 2, 69, 0
4, 69480, Note_on_c, 2, 71, 70
4, 69539, Note_on_c, 2, 71, 0
4, 69540, Note_on_c, 2, 74, 70
4, 69599, Note_on_c, 2, 74, 0
4, 69600, Note_on_c, 2, 72, 70
4, 69659, Note_on_c, 2, 72, 0
4, 70260, Note_on_c, 2, 79, 100
4, 70560, Note_on_c, 2, 79, 0
4, 70560, Note_on_c, 2, 74, 100
4, 70619, Note_on_c, 2, 74, 0
4, 70620, Note_on_c, 2, 76, 94
4, 70679, Note_on_c, 2, 76, 0
4, 70680, Note_on_c, 2, 72, 87
4, 70739, Note_on_c, 2, 72, 0
4, 70740, Note_on_c, 2, 74, 80
4, 70799, Note_on_c, 2, 74, 0
4, 70980, Note_on_c, 2, 74, 100
4, 71279, Note_on_c, 2, 74, 0
4, 71280, Note_on_c, 2, 69, 100
4, 71339, Note_on_c, 2, 69, 0
4, 71340, Note_on_c, 2, 70, 94
4, 71399, Note_on_c, 2, 70, 0
4, 71400, Note_on_c, 2, 67, 87
4, 71459, Note_on_c, 2, 67, 0
4, 71460, Note_on_c, 2, 69, 80
4, 71519, Note_on_c, 2, 69, 0
4, 71700, Note_on_c, 2, 81, 100
4, 71999, Note_on_c, 2, 81, 0
4, 72000, Note_on_c, 2, 82, 100
4, 72059, Note_on_c, 2, 82, 0
4, 72060, Note_on_c, 2, 81, 100
4, 72119, Note_on_c, 2, 81, 0
4, 72120, Note_on_c, 2, 77, 100
4, 72179, Note_on_c, 2, 77, 0
4, 72180, Note_on_c, 2, 74, 100
4, 72239, Note_on_c, 2, 74, 0
4, 72240, Note_on_c, 2, 73, 100
4, 72299, Note_on_c, 2, 73, 0
4, 72300, Note_on_c, 2, 79, 100
4, 72359, Note_on_c, 2, 79, 0
4, 72360, Note_on_c, 2, 76, 100
4, 72419, Note_on_c, 2, 76, 0
4, 72420, Note_on_c, 2, 77, 100
4, 72435, Note_on_c, 2, 77, 0
4, 72435, Note_on_c, 2, 79, 100
4, 72450, Note_on_c, 2, 79, 0
4, 72450, Note_on_c, 2, 77, 100
4, 72480, Note_on_c, 2, 77, 0
4, 72480, Note_on_c, 2, 76, 100
4, 72539, Note_on_c, 2, 76, 0
4, 72540, Note_on_c, 2, 74, 100
4, 72599, Note_on_c, 2, 74, 0
4, 72600, Note_on_c, 2, 79, 80
4, 72719, Note_on_c, 2, 79, 0
4, 72720, Note_on_c, 2, 81, 80
4, 72779, Note_on_c, 2, 81, 0
4, 72780, Note_on_c, 2, 79, 80
4, 72839, Note_on_c, 2, 79, 0
4, 72840, Note_on_c, 2, 76, 80
4, 72899, Note_on_c, 2, 76, 0
4, 72900, Note_on_c, 2, 72, 80
4, 72959, Note_on_c, 2, 72, 0
4, 72960, Note_on_c, 2, 71, 80
4, 73019, Note_on_c, 2, 71, 0
4, 73020, Note_on_c, 2, 77, 80
4, 73079, Note_on_c, 2, 77, 0
4, 73080, Note_on_c, 2, 74, 80
4, 73139, Note_on_c, 2, 74, 0
4, 73140, Note_on_c, 2, 76, 80
4, 73155, Note_on_c, 2, 76, 0
4, 73155, Note_on_c, 2, 77, 80
4, 73170, Note_on_c, 2, 77, 0
4, 73170, Note_on_c, 2, 76, 80
4, 73200, Note_on_c, 2, 76, 0
4, 73200, Note_on_c, 2, 74, 80
4, 73259, Note_on_c, 2, 74, 0
4, 73260, Note_on_c, 2, 72, 80
4, 73319, Note_on_c, 2, 72, 0
4, 73680, Note_on_c, 2, 77, 100
4, 73739, Note_on_c, 2, 77, 0
4, 73740, Note_on_c, 2, 74, 100
4, 73799, Note_on_c, 2, 74, 0
4, 73800, Note_on_c, 2, 76, 100
4, 73859, Note_on_c, 2, 76, 0
4, 74040, Note_on_c, 2, 76, 100
4, 74099, Note_on_c, 2, 76, 0
4, 74100, Note_on_c, 2, 72, 100
4, 74159, Note_on_c, 2, 72, 0
4, 74160, Note_on_c, 2, 74, 100
4, 74219, Note_on_c, 2, 74, 0
4, 74400, Note_on_c, 2, 81, 100
4, 74459, Note_on_c, 2, 81, 0
4, 74460, Note_on_c, 2, 78, 100
4, 74519, Note_on_c, 2, 78, 0
4, 74520, Note_on_c, 2, 79, 100
4, 74579, Note_on_c, 2, 79, 0
4, 74760, Note_on_c, 2, 79, 100
4, 74999, Note_on_c, 2, 79, 0
4, 75000, Note_on_c, 2, 74, 100
4, 75059, Note_on_c, 2, 74, 0
4, 75060, Note_on_c, 2, 76, 100
4, 75119, Note_on_c, 2, 76, 0
4, 75120, Note_on_c, 2, 72, 100
4, 75179, Note_on_c, 2, 72, 0
4, 75180, Note_on_c, 2, 69, 100
4, 75239, Note_on_c, 2, 69, 0
4, 75240, Note_on_c, 2, 71, 100
4, 75299, Note_on_c, 2, 71, 0
4, 75300, Note_on_c, 2, 67, 100
4, 75359, Note_on_c, 2, 67, 0
4, 75360, Note_on_c, 2, 64, 100
4, 75419, Note_on_c, 2, 64, 0
4, 75420, Note_on_c, 2, 66, 100
4, 75479, Note_on_c, 2, 66, 0
4, 76920, Note_on_c, 2, 76, 80
4, 76980, Note_on_c, 2, 76, 0
4, 76980, Note_on_c, 2, 71, 80
4, 77040, Note_on_c, 2, 71, 0
4, 77040, Note_on_c, 2, 72, 80
4, 77100, Note_on_c, 2, 72, 0
4, 78000, Note_on_c, 2, 66, 80
4, 78059, Note_on_c, 2, 66, 0
4, 78060, Note_on_c, 2, 67, 80
4, 78119, Note_on_c, 2, 67, 0
4, 78120, Note_on_c, 2, 69, 80
4, 78179, Note_on_c, 2, 69, 0
4, 78180, Note_on_c, 2, 69, 80
4, 78239, Note_on_c, 2, 69, 0
4, 78240, Note_on_c, 2, 71, 80
4, 78299, Note_on_c, 2, 71, 0
4, 78300, Note_on_c, 2, 72, 80
4, 78359, Note_on_c, 2, 72, 0
4, 78360, Note_on_c, 2, 72, 80
4, 78419, Note_on_c, 2, 72, 0
4, 78420, Note_on_c, 2, 74, 80
4, 78479, Note_on_c, 2, 74, 0
4, 78480, Note_on_c, 2, 76, 80
4, 78539, Note_on_c, 2, 76, 0
4, 78540, Note_on_c, 2, 74, 80
4, 78599, Note_on_c, 2, 74, 0
4, 78600, Note_on_c, 2, 72, 80
4, 78659, Note_on_c, 2, 72, 0
4, 78660, Note_on_c, 2, 71, 80
4, 78719, Note_on_c, 2, 71, 0
4, 78720, Note_on_c, 2, 83, 80
4, 78959, Note_on_c, 2, 83, 0
4, 78960, Note_on_c, 2, 81, 80
4, 79019, Note_on_c, 2, 81, 0
4, 79020, Note_on_c, 2, 79, 80
4, 79079, Note_on_c, 2, 79, 0
4, 79080, Note_on_c, 2, 81, 80
4, 79139, Note_on_c, 2, 81, 0
4, 79140, Note_on_c, 2, 78, 80
4, 79199, Note_on_c, 2, 78, 0
4, 79200, Note_on_c, 2, 79, 80
4, 79259, Note_on_c, 2, 79, 0
4, 79260, Note_on_c, 2, 78, 80
4, 79379, Note_on_c, 2, 78, 0
4, 79440, Note_on_c, 2, 72, 80
4, 79499, Note_on_c, 2, 72, 0
4, 79500, Note_on_c, 2, 66, 80
4, 79559, Note_on_c, 2, 66, 0
4, 79800, Note_on_c, 2, 78, 80
4, 79859, Note_on_c, 2, 78, 0
4, 79860, Note_on_c, 2, 79, 80
4, 79919, Note_on_c, 2, 79, 0
4, 80340, Note_on_c, 2, 74, 80
4, 80399, Note_on_c, 2, 74, 0
4, 80400, Note_on_c, 2, 73, 80
4, 80459, Note_on_c, 2, 73, 0
4, 80880, Note_on_c, 2, 67, 80
4, 80939, Note_on_c, 2, 67, 0
4, 80940, Note_on_c, 2, 66, 80
4, 80999, Note_on_c, 2, 66, 0
4, 81960, Note_on_c, 2, 74, 110
4, 82079, Note_on_c, 2, 74, 0
4, 82080, Note_on_c, 2, 76, 110
4, 82139, Note_on_c, 2, 76, 0
4, 82140, Note_on_c, 2, 74, 110
4, 82199, Note_on_c, 2, 74, 0
4, 82200, Note_on_c, 2, 71, 110
4, 82259, Note_on_c, 2, 71, 0
4, 82260, Note_on_c, 2, 67, 110
4, 82319, Note_on_c, 2, 67, 0
4, 82320, Note_on_c, 2, 66, 110
4, 82379, Note_on_c, 2, 66, 0
4, 82380, Note_on_c, 2, 72, 110
4, 82439, Note_on_c, 2, 72, 0
4, 82440, Note_on_c, 2, 69, 110
4, 82499, Note_on_c, 2, 69, 0
4, 82500, Note_on_c, 2, 71, 110
4, 82515, Note_on_c, 2, 71, 0
4, 82515, Note_on_c, 2, 72, 110
4, 82530, Note_on_c, 2, 72, 0
4, 82530, Note_on_c, 2, 71, 110
4, 82560, Note_on_c, 2, 71, 0
4, 82560, Note_on_c, 2, 69, 110
4, 82619, Note_on_c, 2, 69, 0
4, 82620, Note_on_c, 2, 67, 110
4, 82679, Note_on_c, 2, 67, 0
4, 82680, Note_on_c, 2, 76, 110
4, 82799, Note_on_c, 2, 76, 0
4, 82800, Note_on_c, 2, 77, 110
4, 82859, Note_on_c, 2, 77, 0
4, 82860, Note_on_c, 2, 76, 110
4, 82919, Note_on_c, 2, 76, 0
4, 82920, Note_on_c, 2, 72, 110
4, 82979, Note_on_c, 2, 72, 0
4, 82980, Note_on_c, 2, 69, 110
4, 83039, Note_on_c, 2, 69, 0
4, 83040, Note_on_c, 2, 68, 110
4, 83099, Note_on_c, 2, 68, 0
4, 83100, Note_on_c, 2, 74, 110
4, 83159, Note_on_c, 2, 74, 0
4, 83160, Note_on_c, 2, 71, 110
4, 83219, Note_on_c, 2, 71, 0
4, 83220, Note_on_c, 2, 72, 110
4, 83279, Note_on_c, 2, 72, 0
4, 83280, Note_on_c, 2, 71, 110
4, 83339, Note_on_c, 2, 71, 0
4, 83340, Note_on_c, 2, 69, 110
4, 83399, Note_on_c, 2, 69, 0
4, 83400, Note_on_c, 2, 67, 110
4, 83459, Note_on_c, 2, 67, 0
4, 83460, Note_on_c, 2, 66, 110
4, 83519, Note_on_c, 2, 66, 0
4, 83520, Note_on_c, 2, 64, 110
4, 83579, Note_on_c, 2, 64, 0
4, 83580, Note_on_c, 2, 62, 110
4, 83639, Note_on_c, 2, 62, 0
4, 83640, Note_on_c, 2, 72, 110
4, 83699, Note_on_c, 2, 72, 0
4, 83700, Note_on_c, 2, 69, 110
4, 83759, Note_on_c, 2, 69, 0
4, 83760, Note_on_c, 2, 71, 110
4, 83789, Note_on_c, 2, 71, 0
4, 83790, Note_on_c, 2, 73, 110
4, 83819, Note_on_c, 2, 73, 0
4, 83820, Note_on_c, 2, 74, 110
4, 83834, Note_on_c, 2, 74, 0
4, 83835, Note_on_c, 2, 73, 110
4, 83849, Note_on_c, 2, 73, 0
4, 83850, Note_on_c, 2, 74, 110
4, 83864, Note_on_c, 2, 74, 0
4, 83865, Note_on_c, 2, 73, 110
4, 83879, Note_on_c, 2, 73, 0
4, 83880, Note_on_c, 2, 74, 110
4, 83894, Note_on_c, 2, 74, 0
4, 83895, Note_on_c, 2, 73, 110
4, 83909, Note_on_c, 2, 73, 0
4, 83910, Note_on_c, 2, 71, 110
4, 83924, Note_on_c, 2, 71, 0
4, 83925, Note_on_c, 2, 73, 110
4, 83939, Note_on_c, 2, 73, 0
4, 83940, Note_on_c, 2, 74, 110
4, 84119, Note_on_c, 2, 74, 0
4, 84120, Note_on_c, 2, 62, 110
4, 84149, Note_on_c, 2, 62, 0
4, 84180, Note_on_c, 2, 72, 110
4, 84299, Note_on_c, 2, 72, 0
4, 84300, Note_on_c, 2, 71, 110
4, 84359, Note_on_c, 2, 71, 0
4, 84360, Note_on_c, 2, 66, 110
4, 84419, Note_on_c, 2, 66, 0
4, 84420, Note_on_c, 2, 67, 110
4, 84479, Note_on_c, 2, 67, 0
4, 84480, Note_on_c, 2, 76, 110
4, 84539, Note_on_c, 2, 76, 0
4, 84540, Note_on_c, 2, 74, 110
4, 84599, Note_on_c, 2, 74, 0
4, 84600, Note_on_c, 2, 66, 110
4, 84659, Note_on_c, 2, 66, 0
4, 84660, Note_on_c, 2, 67, 110
4, 84839, Note_on_c, 2, 67, 0
4, 85200, Note_on_c, 2, 72, 80
4, 85260, Note_on_c, 2, 72, 0
4, 85260, Note_on_c, 2, 69, 80
4, 85320, Note_on_c, 2, 69, 0
4, 85320, Note_on_c, 2, 71, 80
4, 85380, Note_on_c, 2, 71, 0
4, 85920, Note_on_c, 2, 77, 80
4, 86160, Note_on_c, 2, 77, 0
4, 86160, Note_on_c, 2, 75, 80
4, 86220, Note_on_c, 2, 75, 0
4, 86220, Note_on_c, 2, 76, 80
4, 86280, Note_on_c, 2, 76, 0
4, 86640, Note_on_c, 2, 64, 80
4, 86699, Note_on_c, 2, 64, 0
4, 86700, Note_on_c, 2, 66, 80
4, 86759, Note_on_c, 2, 66, 0
4, 86760, Note_on_c, 2, 68, 80
4, 86819, Note_on_c, 2, 68, 0
4, 86820, Note_on_c, 2, 69, 80
4, 86879, Note_on_c, 2, 69, 0
4, 86880, Note_on_c, 2, 71, 80
4, 86939, Note_on_c, 2, 71, 0
4, 86940, Note_on_c, 2, 72, 80
4, 86999, Note_on_c, 2, 72, 0
4, 87000, Note_on_c, 2, 74, 80
4, 87059, Note_on_c, 2, 74, 0
4, 87060, Note_on_c, 2, 77, 80
4, 87119, Note_on_c, 2, 77, 0
4, 87120, Note_on_c, 2, 76, 80
4, 87179, Note_on_c, 2, 76, 0
4, 87180, Note_on_c, 2, 74, 80
4, 87239, Note_on_c, 2, 74, 0
4, 87240, Note_on_c, 2, 73, 80
4, 87299, Note_on_c, 2, 73, 0
4, 87300, Note_on_c, 2, 74, 80
4, 87359, Note_on_c, 2, 74, 0
4, 87360, Note_on_c, 2, 82, 80
4, 87419, Note_on_c, 2, 82, 0
4, 87420, Note_on_c, 2, 81, 80
4, 87479, Note_on_c, 2, 81, 0
4, 87480, Note_on_c, 2, 73, 80
4, 87539, Note_on_c, 2, 73, 0
4, 87540, Note_on_c, 2, 74, 80
4, 87659, Note_on_c, 2, 74, 0
4, 87900, Note_on_c, 2, 77, 100
4, 87929, Note_on_c, 2, 77, 0
4, 87930, Note_on_c, 2, 76, 100
4, 87959, Note_on_c, 2, 76, 0
4, 87960, Note_on_c, 2, 77, 100
4, 88019, Note_on_c, 2, 77, 0
4, 88200, Note_on_c, 2, 74, 100
4, 88259, Note_on_c, 2, 74, 0
4, 88260, Note_on_c, 2, 72, 100
4, 88319, Note_on_c, 2, 72, 0
4, 88320, Note_on_c, 2, 69, 100
4, 88379, Note_on_c, 2, 69, 0
4, 88380, Note_on_c, 2, 70, 100
4, 88439, Note_on_c, 2, 70, 0
4, 88620, Note_on_c, 2, 67, 100
4, 88649, Note_on_c, 2, 67, 0
4, 88650, Note_on_c, 2, 66, 100
4, 88679, Note_on_c, 2, 66, 0
4, 88680, Note_on_c, 2, 67, 100
4, 88739, Note_on_c, 2, 67, 0
4, 88980, Note_on_c, 2, 77, 100
4, 89039, Note_on_c, 2, 77, 0
4, 89040, Note_on_c, 2, 74, 100
4, 89099, Note_on_c, 2, 74, 0
4, 89100, Note_on_c, 2, 76, 100
4, 89159, Note_on_c, 2, 76, 0
4, 89520, Note_on_c, 2, 74, 90
4, 89639, Note_on_c, 2, 74, 0
4, 91620, Note_on_c, 2, 71, 100
4, 91680, Note_on_c, 2, 71, 0
4, 91680, Note_on_c, 2, 76, 100
4, 91800, Note_on_c, 2, 76, 0
4, 92760, Note_on_c, 2, 64, 100
4, 92819, Note_on_c, 2, 64, 0
4, 92820, Note_on_c, 2, 66, 100
4, 92879, Note_on_c, 2, 66, 0
4, 92880, Note_on_c, 2, 67, 100
4, 92939, Note_on_c, 2, 67, 0
4, 92940, Note_on_c, 2, 66, 100
4, 92999, Note_on_c, 2, 66, 0
4, 93000, Note_on_c, 2, 68, 100
4, 93059, Note_on_c, 2, 68, 0
4, 93060, Note_on_c, 2, 69, 100
4, 93119, Note_on_c, 2, 69, 0
4, 93120, Note_on_c, 2, 68, 100
4, 93149, Note_on_c, 2, 68, 0
4, 93150, Note_on_c, 2, 69, 100
4, 93179, Note_on_c, 2, 69, 0
4, 93180, Note_on_c, 2, 71, 100
4, 93195, Note_on_c, 2, 71, 0
4, 93195, Note_on_c, 2, 69, 100
4, 93210, Note_on_c, 2, 69, 0
4, 93210, Note_on_c, 2, 71, 100
4, 93225, Note_on_c, 2, 71, 0
4, 93225, Note_on_c, 2, 69, 100
4, 93240, Note_on_c, 2, 69, 0
4, 93240, Note_on_c, 2, 71, 100
4, 93255, Note_on_c, 2, 71, 0
4, 93255, Note_on_c, 2, 69, 100
4, 93270, Note_on_c, 2, 69, 0
4, 93270, Note_on_c, 2, 68, 100
4, 93285, Note_on_c, 2, 68, 0
4, 93285, Note_on_c, 2, 69, 100
4, 93300, Note_on_c, 2, 69, 0
4, 93300, Note_on_c, 2, 71, 100
4, 93539, Note_on_c, 2, 71, 0
4, 93540, Note_on_c, 2, 72, 100
4, 93599, Note_on_c, 2, 72, 0
4, 93600, Note_on_c, 2, 74, 100
4, 93659, Note_on_c, 2, 74, 0
4, 93660, Note_on_c, 2, 73, 100
4, 93719, Note_on_c, 2, 73, 0
4, 93720, Note_on_c, 2, 74, 100
4, 93779, Note_on_c, 2, 74, 0
4, 93780, Note_on_c, 2, 76, 100
4, 93839, Note_on_c, 2, 76, 0
4, 93840, Note_on_c, 2, 74, 100
4, 93869, Note_on_c, 2, 74, 0
4, 93870, Note_on_c, 2, 76, 100
4, 93899, Note_on_c, 2, 76, 0
4, 93900, Note_on_c, 2, 77, 100
4, 93914, Note_on_c, 2, 77, 0
4, 93915, Note_on_c, 2, 76, 100
4, 93929, Note_on_c, 2, 76, 0
4, 93930, Note_on_c, 2, 77, 100
4, 93944, Note_on_c, 2, 77, 0
4, 93945, Note_on_c, 2, 76, 100
4, 93959, Note_on_c, 2, 76, 0
4, 93960, Note_on_c, 2, 77, 100
4, 93974, Note_on_c, 2, 77, 0
4, 93975, Note_on_c, 2, 76, 100
4, 93989, Note_on_c, 2, 76, 0
4, 93990, Note_on_c, 2, 74, 100
4, 94004, Note_on_c, 2, 74, 0
4, 94005, Note_on_c, 2, 76, 100
4, 94019, Note_on_c, 2, 76, 0
4, 94020, Note_on_c, 2, 77, 100
4, 94259, Note_on_c, 2, 77, 0
4, 94260, Note_on_c, 2, 76, 100
4, 94289, Note_on_c, 2, 76, 0
4, 94290, Note_on_c, 2, 74, 100
4, 94319, Note_on_c, 2, 74, 0
4, 94320, Note_on_c, 2, 72, 100
4, 94349, Note_on_c, 2, 72, 0
4, 94350, Note_on_c, 2, 71, 100
4, 94379, Note_on_c, 2, 71, 0
4, 94380, Note_on_c, 2, 69, 100
4, 94409, Note_on_c, 2, 69, 0
4, 94410, Note_on_c, 2, 68, 100
4, 94439, Note_on_c, 2, 68, 0
4, 94440, Note_on_c, 2, 69, 100
4, 94469, Note_on_c, 2, 69, 0
4, 94470, Note_on_c, 2, 71, 100
4, 94499, Note_on_c, 2, 71, 0
4, 94500, Note_on_c, 2, 72, 100
4, 94529, Note_on_c, 2, 72, 0
4, 94530, Note_on_c, 2, 74, 100
4, 94559, Note_on_c, 2, 74, 0
4, 94560, Note_on_c, 2, 76, 100
4, 94619, Note_on_c, 2, 76, 0
4, 94620, Note_on_c, 2, 74, 100
4, 94649, Note_on_c, 2, 74, 0
4, 94650, Note_on_c, 2, 72, 100
4, 94679, Note_on_c, 2, 72, 0
4, 94680, Note_on_c, 2, 71, 100
4, 94709, Note_on_c, 2, 71, 0
4, 94710, Note_on_c, 2, 69, 100
4, 94739, Note_on_c, 2, 69, 0
4, 94740, Note_on_c, 2, 69, 100
4, 94799, Note_on_c, 2, 69, 0
4, 94800, Note_on_c, 2, 80, 100
4, 94859, Note_on_c, 2, 80, 0
4, 94860, Note_on_c, 2, 81, 100
4, 94919, Note_on_c, 2, 81, 0
4, 94920, Note_on_c, 2, 75, 100
4, 94979, Note_on_c, 2, 75, 0
4, 94980, Note_on_c, 2, 76, 100
4, 95039, Note_on_c, 2, 76, 0
4, 95040, Note_on_c, 2, 69, 100
4, 95099, Note_on_c, 2, 69, 0
4, 95100, Note_on_c, 2, 68, 100
4, 95159, Note_on_c, 2, 68, 0
4, 95160, Note_on_c, 2, 74, 100
4, 95219, Note_on_c, 2, 74, 0
4, 95220, Note_on_c, 2, 72, 100
4, 95279, Note_on_c, 2, 72, 0
4, 95280, Note_on_c, 2, 71, 100
4, 95339, Note_on_c, 2, 71, 0
4, 95340, Note_on_c, 2, 68, 100
4, 95360, Note_on_c, 2, 68, 0
4, 95360, Note_on_c, 2, 69, 100
4, 95380, Note_on_c, 2, 69, 0
4, 95380, Note_on_c, 2, 68, 100
4, 95400, Note_on_c, 2, 68, 0
4, 95400, Note_on_c, 2, 69, 100
4, 95415, Note_on_c, 2, 69, 0
4, 95415, Note_on_c, 2, 68, 100
4, 95430, Note_on_c, 2, 68, 0
4, 95430, Note_on_c, 2, 69, 100
4, 95445, Note_on_c, 2, 69, 0
4, 95445, Note_on_c, 2, 68, 100
4, 95460, Note_on_c, 2, 68, 0
4, 95460, Note_on_c, 2, 69, 100
4, 95639, Note_on_c, 2, 69, 0
4, 96000, Note_on_c, 2, 76, 80
4, 96059, Note_on_c, 2, 76, 0
4, 96060, Note_on_c, 2, 79, 80
4, 96119, Note_on_c, 2, 79, 0
4, 96120, Note_on_c, 2, 78, 80
4, 96179, Note_on_c, 2, 78, 0
4, 96360, Note_on_c, 2, 67, 80
4, 96419, Note_on_c, 2, 67, 0
4, 96420, Note_on_c, 2, 69, 80
4, 96479, Note_on_c, 2, 69, 0
4, 96480, Note_on_c, 2, 70, 80
4, 96539, Note_on_c, 2, 70, 0
4, 96540, Note_on_c, 2, 70, 80
4, 96599, Note_on_c, 2, 70, 0
4, 96600, Note_on_c, 2, 69, 80
4, 96659, Note_on_c, 2, 69, 0
4, 96660, Note_on_c, 2, 67, 80
4, 96719, Note_on_c, 2, 67, 0
4, 96720, Note_on_c, 2, 67, 80
4, 96779, Note_on_c, 2, 67, 0
4, 96780, Note_on_c, 2, 65, 80
4, 96839, Note_on_c, 2, 65, 0
4, 96840, Note_on_c, 2, 64, 80
4, 96899, Note_on_c, 2, 64, 0
4, 96900, Note_on_c, 2, 65, 80
4, 96959, Note_on_c, 2, 65, 0
4, 96960, Note_on_c, 2, 64, 80
4, 97019, Note_on_c, 2, 64, 0
4, 97020, Note_on_c, 2, 62, 80
4, 97079, Note_on_c, 2, 62, 0
4, 97080, Note_on_c, 2, 77, 80
4, 97379, Note_on_c, 2, 77, 0
4, 97380, Note_on_c, 2, 71, 80
4, 97439, Note_on_c, 2, 71, 0
4, 97440, Note_on_c, 2, 72, 80
4, 97499, Note_on_c, 2, 72, 0
4, 97500, Note_on_c, 2, 79, 80
4, 97559, Note_on_c, 2, 79, 0
4, 97560, Note_on_c, 2, 78, 80
4, 97619, Note_on_c, 2, 78, 0
4, 97620, Note_on_c, 2, 79, 80
4, 97739, Note_on_c, 2, 79, 0
4, 98160, Note_on_c, 2, 72, 100
4, 98399, Note_on_c, 2, 72, 0
4, 98400, Note_on_c, 2, 69, 100
4, 98459, Note_on_c, 2, 69, 0
4, 98460, Note_on_c, 2, 70, 100
4, 98519, Note_on_c, 2, 70, 0
4, 98520, Note_on_c, 2, 69, 100
4, 98759, Note_on_c, 2, 69, 0
4, 98760, Note_on_c, 2, 66, 100
4, 98819, Note_on_c, 2, 66, 0
4, 98820, Note_on_c, 2, 67, 100
4, 98879, Note_on_c, 2, 67, 0
4, 98880, Note_on_c, 2, 66, 100
4, 98939, Note_on_c, 2, 66, 0
4, 98940, Note_on_c, 2, 74, 100
4, 99119, Note_on_c, 2, 74, 0
4, 99120, Note_on_c, 2, 71, 100
4, 99179, Note_on_c, 2, 71, 0
4, 99180, Note_on_c, 2, 72, 100
4, 99239, Note_on_c, 2, 72, 0
4, 99240, Note_on_c, 2, 71, 100
4, 99359, Note_on_c, 2, 71, 0
4, 100080, Note_on_c, 2, 70, 100
4, 100170, Note_on_c, 2, 70, 0
4, 100170, Note_on_c, 2, 67, 100
4, 100200, Note_on_c, 2, 67, 0
4, 100200, Note_on_c, 2, 69, 100
4, 100230, Note_on_c, 2, 69, 0
4, 100440, Note_on_c, 2, 69, 100
4, 100499, Note_on_c, 2, 69, 0
4, 100500, Note_on_c, 2, 74, 100
4, 100559, Note_on_c, 2, 74, 0
4, 100560, Note_on_c, 2, 76, 100
4, 100619, Note_on_c, 2, 76, 0
4, 100620, Note_on_c, 2, 77, 100
4, 100679, Note_on_c, 2, 77, 0
4, 100860, Note_on_c, 2, 77, 100
4, 100919, Note_on_c, 2, 77, 0
4, 100920, Note_on_c, 2, 76, 100
4, 100979, Note_on_c, 2, 76, 0
4, 100980, Note_on_c, 2, 74, 100
4, 101039, Note_on_c, 2, 74, 0
4, 101040, Note_on_c, 2, 72, 100
4, 101099, Note_on_c, 2, 72, 0
4, 101100, Note_on_c, 2, 71, 100
4, 101159, Note_on_c, 2, 71, 0
4, 101220, Note_on_c, 2, 78, 100
4, 101279, Note_on_c, 2, 78, 0
4, 101280, Note_on_c, 2, 79, 100
4, 101339, Note_on_c, 2, 79, 0
4, 101580, Note_on_c, 2, 72, 100
4, 101639, Note_on_c, 2, 72, 0
4, 101640, Note_on_c, 2, 69, 100
4, 101699, Note_on_c, 2, 69, 0
4, 101700, Note_on_c, 2, 71, 100
4, 101759, Note_on_c, 2, 71, 0
4, 103680, Note_on_c, 2, 67, 100
4, 103739, Note_on_c, 2, 67, 0
4, 103740, Note_on_c, 2, 72, 100
4, 103859, Note_on_c, 2, 72, 0
4, 104760, Note_on_c, 2, 76, 100
4, 104819, Note_on_c, 2, 76, 0
4, 104820, Note_on_c, 2, 79, 100
4, 104939, Note_on_c, 2, 79, 0
4, 105720, Note_on_c, 2, 72, 110
4, 105839, Note_on_c, 2, 72, 0
4, 105840, Note_on_c, 2, 76, 110
4, 105899, Note_on_c, 2, 76, 0
4, 105900, Note_on_c, 2, 74, 110
4, 105959, Note_on_c, 2, 74, 0
4, 105960, Note_on_c, 2, 71, 110
4, 106019, Note_on_c, 2, 71, 0
4, 106020, Note_on_c, 2, 67, 110
4, 106079, Note_on_c, 2, 67, 0
4, 106080, Note_on_c, 2, 66, 110
4, 106139, Note_on_c, 2, 66, 0
4, 106140, Note_on_c, 2, 72, 110
4, 106199, Note_on_c, 2, 72, 0
4, 106200, Note_on_c, 2, 69, 110
4, 106259, Note_on_c, 2, 69, 0
4, 106260, Note_on_c, 2, 71, 110
4, 106275, Note_on_c, 2, 71, 0
4, 106275, Note_on_c, 2, 72, 110
4, 106290, Note_on_c, 2, 72, 0
4, 106290, Note_on_c, 2, 71, 110
4, 106320, Note_on_c, 2, 71, 0
4, 106320, Note_on_c, 2, 69, 110
4, 106379, Note_on_c, 2, 69, 0
4, 106380, Note_on_c, 2, 67, 110
4, 106439, Note_on_c, 2, 67, 0
4, 106440, Note_on_c, 2, 74, 110
4, 106559, Note_on_c, 2, 74, 0
4, 106560, Note_on_c, 2, 76, 110
4, 106589, Note_on_c, 2, 76, 0
4, 106590, Note_on_c, 2, 77, 110
4, 106619, Note_on_c, 2, 77, 0
4, 106620, Note_on_c, 2, 76, 110
4, 106679, Note_on_c, 2, 76, 0
4, 106680, Note_on_c, 2, 72, 110
4, 106739, Note_on_c, 2, 72, 0
4, 106740, Note_on_c, 2, 69, 110
4, 106799, Note_on_c, 2, 69, 0
4, 106800, Note_on_c, 2, 68, 110
4, 106859, Note_on_c, 2, 68, 0
4, 106860, Note_on_c, 2, 74, 110
4, 106919, Note_on_c, 2, 74, 0
4, 106920, Note_on_c, 2, 71, 110
4, 106979, Note_on_c, 2, 71, 0
4, 106980, Note_on_c, 2, 72, 110
4, 106995, Note_on_c, 2, 72, 0
4, 106995, Note_on_c, 2, 74, 110
4, 107010, Note_on_c, 2, 74, 0
4, 107010, Note_on_c, 2, 72, 110
4, 107040, Note_on_c, 2, 72, 0
4, 107040, Note_on_c, 2, 71, 110
4, 107099, Note_on_c, 2, 71, 0
4, 107100, Note_on_c, 2, 69, 110
4, 107159, Note_on_c, 2, 69, 0
4, 107160, Note_on_c, 2, 67, 110
4, 107189, Note_on_c, 2, 67, 0
4, 107220, Note_on_c, 2, 77, 110
4, 107339, Note_on_c, 2, 77, 0
4, 107340, Note_on_c, 2, 76, 110
4, 107399, Note_on_c, 2, 76, 0
4, 107400, Note_on_c, 2, 71, 110
4, 107459, Note_on_c, 2, 71, 0
4, 107460, Note_on_c, 2, 72, 110
4, 107519, Note_on_c, 2, 72, 0
4, 107520, Note_on_c, 2, 81, 110
4, 107579, Note_on_c, 2, 81, 0
4, 107580, Note_on_c, 2, 79, 110
4, 107639, Note_on_c, 2, 79, 0
4, 107640, Note_on_c, 2, 71, 110
4, 107699, Note_on_c, 2, 71, 0
4, 107700, Note_on_c, 2, 65, 110
4, 107759, Note_on_c, 2, 65, 0
4, 107760, Note_on_c, 2, 64, 110
4, 107819, Note_on_c, 2, 64, 0
4, 108060, Note_on_c, 2, 70, 110
4, 108119, Note_on_c, 2, 70, 0
4, 108120, Note_on_c, 2, 69, 110
4, 108179, Note_on_c, 2, 69, 0
4, 108420, Note_on_c, 2, 71, 110
4, 108479, Note_on_c, 2, 71, 0
4, 108480, Note_on_c, 2, 72, 110
4, 108539, Note_on_c, 2, 72, 0
4, 108780, Note_on_c, 2, 78, 110
4, 108839, Note_on_c, 2, 78, 0
4, 108840, Note_on_c, 2, 79, 110
4, 108899, Note_on_c, 2, 79, 0
4, 109140, Note_on_c, 2, 67, 110
4, 109199, Note_on_c, 2, 67, 0
4, 109200, Note_on_c, 2, 77, 110
4, 109319, Note_on_c, 2, 77, 0
4, 109320, Note_on_c, 2, 76, 110
4, 109379, Note_on_c, 2, 76, 0
4, 109380, Note_on_c, 2, 71, 110
4, 109439, Note_on_c, 2, 71, 0
4, 109440, Note_on_c, 2, 72, 110
4, 109499, Note_on_c, 2, 72, 0
4, 109500, Note_on_c, 2, 69, 110
4, 109559, Note_on_c, 2, 69, 0
4, 109560, Note_on_c, 2, 67, 110
4, 109589, Note_on_c, 2, 67, 0
4, 109590, Note_on_c, 2, 65, 110
4, 109619, Note_on_c, 2, 65, 0
4, 109620, Note_on_c, 2, 64, 110
4, 109649, Note_on_c, 2, 64, 0
4, 109650, Note_on_c, 2, 62, 110
4, 109679, Note_on_c, 2, 62, 0
4, 109680, Note_on_c, 2, 60, 110
4, 109859, Note_on_c, 2, 60, 0
4, 175080, Note_on_c, 2, 77, 90
4, 175109, Note_on_c, 2, 77, 0
4, 175110, Note_on_c, 2, 76, 90
4, 175139, Note_on_c, 2, 76, 0
4, 175140, Note_on_c, 2, 77, 90
4, 175199, Note_on_c, 2, 77, 0
4, 175200, Note_on_c, 2, 81, 90
4, 175229, Note_on_c, 2, 81, 0
4, 175230, Note_on_c, 2, 79, 90
4, 175259, Note_on_c, 2, 79, 0
4, 175260, Note_on_c, 2, 81, 90
4, 175319, Note_on_c, 2, 81, 0
4, 175320, Note_on_c, 2, 74, 90
4, 175379, Note_on_c, 2, 74, 0
4, 175380, Note_on_c, 2, 74, 90
4, 175439, Note_on_c, 2, 74, 0
4, 175440, Note_on_c, 2, 79, 90
4, 175469, Note_on_c, 2, 79, 0
4, 175470, Note_on_c, 2, 77, 90
4, 175499, Note_on_c, 2, 77, 0
4, 175500, Note_on_c, 2, 79, 90
4, 175559, Note_on_c, 2, 79, 0
4, 175560, Note_on_c, 2, 76, 90
4, 175619, Note_on_c, 2, 76, 0
4, 175620, Note_on_c, 2, 76, 90
4, 175679, Note_on_c, 2, 76, 0
4, 175680, Note_on_c, 2, 77, 90
4, 175739, Note_on_c, 2, 77, 0
4, 175740, Note_on_c, 2, 77, 90
4, 175799, Note_on_c, 2, 77, 0
4, 175800, Note_on_c, 2, 72, 90
4, 175859, Note_on_c, 2, 72, 0
4, 175860, Note_on_c, 2, 70, 90
4, 175979, Note_on_c, 2, 70, 0
4, 175980, Note_on_c, 2, 69, 90
4, 176099, Note_on_c, 2, 69, 0
4, 176100, Note_on_c, 2, 67, 90
4, 176339, Note_on_c, 2, 67, 0
4, 176340, Note_on_c, 2, 65, 90
4, 176459, Note_on_c, 2, 65, 0
4, 176460, Note_on_c, 2, 70, 90
4, 176579, Note_on_c, 2, 70, 0
4, 176580, Note_on_c, 2, 72, 90
4, 176759, Note_on_c, 2, 72, 0
4, 176760, Note_on_c, 2, 74, 90
4, 176789, Note_on_c, 2, 74, 0
4, 176790, Note_on_c, 2, 75, 90
4, 176819, Note_on_c, 2, 75, 0
4, 176820, Note_on_c, 2, 74, 90
4, 177179, Note_on_c, 2, 74, 0
4, 177180, Note_on_c, 2, 72, 90
4, 177239, Note_on_c, 2, 72, 0
4, 177240, Note_on_c, 2, 81, 90
4, 177269, Note_on_c, 2, 81, 0
4, 177270, Note_on_c, 2, 79, 90
4, 177299, Note_on_c, 2, 79, 0
4, 177300, Note_on_c, 2, 81, 90
4, 177359, Note_on_c, 2, 81, 0
4, 177360, Note_on_c, 2, 82, 90
4, 177419, Note_on_c, 2, 82, 0
4, 177420, Note_on_c, 2, 82, 90
4, 177479, Note_on_c, 2, 82, 0
4, 177480, Note_on_c, 2, 79, 90
4, 177539, Note_on_c, 2, 79, 0
4, 177540, Note_on_c, 2, 81, 90
4, 177599, Note_on_c, 2, 81, 0
4, 177600, Note_on_c, 2, 77, 90
4, 177659, Note_on_c, 2, 77, 0
4, 177660, Note_on_c, 2, 77, 90
4, 177719, Note_on_c, 2, 77, 0
4, 177720, Note_on_c, 2, 79, 90
4, 177779, Note_on_c, 2, 79, 0
4, 177780, Note_on_c, 2, 79, 90
4, 177839, Note_on_c, 2, 79, 0
4, 177840, Note_on_c, 2, 76, 90
4, 177899, Note_on_c, 2, 76, 0
4, 177900, Note_on_c, 2, 77, 90
4, 178019, Note_on_c, 2, 77, 0
4, 178080, Note_on_c, 2, 81, 90
4, 178109, Note_on_c, 2, 81, 0
4, 178110, Note_on_c, 2, 79, 90
4, 178139, Note_on_c, 2, 79, 0
4, 178140, Note_on_c, 2, 81, 90
4, 178199, Note_on_c, 2, 81, 0
4, 178200, Note_on_c, 2, 74, 90
4, 178259, Note_on_c, 2, 74, 0
4, 178260, Note_on_c, 2, 74, 90
4, 178319, Note_on_c, 2, 74, 0
4, 178320, Note_on_c, 2, 79, 90
4, 178349, Note_on_c, 2, 79, 0
4, 178350, Note_on_c, 2, 77, 90
4, 178379, Note_on_c, 2, 77, 0
4, 178380, Note_on_c, 2, 79, 90
4, 178439, Note_on_c, 2, 79, 0
4, 178440, Note_on_c, 2, 76, 90
4, 178499, Note_on_c, 2, 76, 0
4, 178500, Note_on_c, 2, 76, 90
4, 178559, Note_on_c, 2, 76, 0
4, 178560, Note_on_c, 2, 77, 90
4, 178619, Note_on_c, 2, 77, 0
4, 178620, Note_on_c, 2, 77, 90
4, 178679, Note_on_c, 2, 77, 0
4, 178680, Note_on_c, 2, 74, 90
4, 178709, Note_on_c, 2, 74, 0
4, 178710, Note_on_c, 2, 72, 90
4, 178739, Note_on_c, 2, 72, 0
4, 178740, Note_on_c, 2, 70, 90
4, 178979, Note_on_c, 2, 70, 0
4, 178980, Note_on_c, 2, 72, 90
4, 179219, Note_on_c, 2, 72, 0
4, 179220, Note_on_c, 2, 65, 90
4, 179339, Note_on_c, 2, 65, 0
4, 179340, Note_on_c, 2, 70, 90
4, 179459, Note_on_c, 2, 70, 0
4, 179460, Note_on_c, 2, 69, 90
4, 179699, Note_on_c, 2, 69, 0
4, 179700, Note_on_c, 2, 67, 90
4, 179819, Note_on_c, 2, 67, 0
4, 179880, Note_on_c, 2, 79, 90
4, 179909, Note_on_c, 2, 79, 0
4, 179910, Note_on_c, 2, 77, 90
4, 179939, Note_on_c, 2, 77, 0
4, 179940, Note_on_c, 2, 79, 90
4, 179999, Note_on_c, 2, 79, 0
4, 180000, Note_on_c, 2, 81, 90
4, 180059, Note_on_c, 2, 81, 0
4, 180060, Note_on_c, 2, 81, 90
4, 180119, Note_on_c, 2, 81, 0
4, 180840, Note_on_c, 2, 77, 90
4, 180869, Note_on_c, 2, 77, 0
4, 180870, Note_on_c, 2, 76, 90
4, 180899, Note_on_c, 2, 76, 0
4, 180900, Note_on_c, 2, 77, 90
4, 180959, Note_on_c, 2, 77, 0
4, 180960, Note_on_c, 2, 81, 90
4, 180989, Note_on_c, 2, 81, 0
4, 180990, Note_on_c, 2, 79, 90
4, 181019, Note_on_c, 2, 79, 0
4, 181020, Note_on_c, 2, 81, 90
4, 181079, Note_on_c, 2, 81, 0
4, 181080, Note_on_c, 2, 74, 90
4, 181139, Note_on_c, 2, 74, 0
4, 181140, Note_on_c, 2, 74, 90
4, 181199, Note_on_c, 2, 74, 0
4, 181200, Note_on_c, 2, 79, 90
4, 181229, Note_on_c, 2, 79, 0
4, 181230, Note_on_c, 2, 77, 90
4, 181259, Note_on_c, 2, 77, 0
4, 181260, Note_on_c, 2, 79, 90
4, 181319, Note_on_c, 2, 79, 0
4, 181320, Note_on_c, 2, 76, 90
4, 181379, Note_on_c, 2, 76, 0
4, 181380, Note_on_c, 2, 76, 90
4, 181439, Note_on_c, 2, 76, 0
4, 181440, Note_on_c, 2, 77, 90
4, 181499, Note_on_c, 2, 77, 0
4, 181500, Note_on_c, 2, 77, 90
4, 181559, Note_on_c, 2, 77, 0
4, 181560, Note_on_c, 2, 72, 90
4, 181619, Note_on_c, 2, 72, 0
4, 181620, Note_on_c, 2, 70, 90
4, 181739, Note_on_c, 2, 70, 0
4, 181740, Note_on_c, 2, 69, 90
4, 181859, Note_on_c, 2, 69, 0
4, 181860, Note_on_c, 2, 67, 90
4, 182099, Note_on_c, 2, 67, 0
4, 182100, Note_on_c, 2, 65, 90
4, 182219, Note_on_c, 2, 65, 0
4, 182220, Note_on_c, 2, 70, 90
4, 182339, Note_on_c, 2, 70, 0
4, 182340, Note_on_c, 2, 72, 90
4, 182519, Note_on_c, 2, 72, 0
4, 182520, Note_on_c, 2, 74, 90
4, 182549, Note_on_c, 2, 74, 0
4, 182550, Note_on_c, 2, 75, 90
4, 182579, Note_on_c, 2, 75, 0
4, 182580, Note_on_c, 2, 74, 90
4, 182939, Note_on_c, 2, 74, 0
4, 182940, Note_on_c, 2, 72, 90
4, 182999, Note_on_c, 2, 72, 0
4, 183000, Note_on_c, 2, 81, 90
4, 183029, Note_on_c, 2, 81, 0
4, 183030, Note_on_c, 2, 79, 90
4, 183059, Note_on_c, 2, 79, 0
4, 183060, Note_on_c, 2, 81, 90
4, 183119, Note_on_c, 2, 81, 0
4, 183120, Note_on_c, 2, 82, 90
4, 183179, Note_on_c, 2, 82, 0
4, 183180, Note_on_c, 2, 82, 90
4, 183239, Note_on_c, 2, 82, 0
4, 183240, Note_on_c, 2, 79, 90
4, 183299, Note_on_c, 2, 79, 0
4, 183300, Note_on_c, 2, 81, 90
4, 183359, Note_on_c, 2, 81, 0
4, 183360, Note_on_c, 2, 77, 90
4, 183419, Note_on_c, 2, 77, 0
4, 183420, Note_on_c, 2, 77, 90
4, 183479, Note_on_c, 2, 77, 0
4, 183480, Note_on_c, 2, 79, 90
4, 183539, Note_on_c, 2, 79, 0
4, 183540, Note_on_c, 2, 79, 90
4, 183599, Note_on_c, 2, 79, 0
4, 183600, Note_on_c, 2, 76, 90
4, 183659, Note_on_c, 2, 76, 0
4, 183660, Note_on_c, 2, 77, 90
4, 183779, Note_on_c, 2, 77, 0
4, 183840, Note_on_c, 2, 81, 90
4, 183869, Note_on_c, 2, 81, 0
4, 183870, Note_on_c, 2, 79, 90
4, 183899, Note_on_c, 2, 79, 0
4, 183900, Note_on_c, 2, 81, 90
4, 183959, Note_on_c, 2, 81, 0
4, 183960, Note_on_c, 2, 74, 90
4, 184019, Note_on_c, 2, 74, 0
4, 184020, Note_on_c, 2, 74, 90
4, 184079, Note_on_c, 2, 74, 0
4, 184080, Note_on_c, 2, 79, 90
4, 184109, Note_on_c, 2, 79, 0
4, 184110, Note_on_c, 2, 77, 90
4, 184139, Note_on_c, 2, 77, 0
4, 184140, Note_on_c, 2, 79, 90
4, 184199, Note_on_c, 2, 79, 0
4, 184200, Note_on_c, 2, 76, 90
4, 184259, Note_on_c, 2, 76, 0
4, 184260, Note_on_c, 2, 76, 90
4, 184319, Note_on_c, 2, 76, 0
4, 184320, Note_on_c, 2, 77, 90
4, 184379, Note_on_c, 2, 77, 0
4, 184380, Note_on_c, 2, 77, 90
4, 184439, Note_on_c, 2, 77, 0
4, 184440, Note_on_c, 2, 74, 90
4, 184469, Note_on_c, 2, 74, 0
4, 184470, Note_on_c, 2, 72, 90
4, 184499, Note_on_c, 2, 72, 0
4, 184500, Note_on_c, 2, 70, 90
4, 184739, Note_on_c, 2, 70, 0
4, 184740, Note_on_c, 2, 72, 90
4, 184979, Note_on_c, 2, 72, 0
4, 184980, Note_on_c, 2, 65, 90
4, 185099, Note_on_c, 2, 65, 0
4, 185100, Note_on_c, 2, 70, 90
4, 185219, Note_on_c, 2, 70, 0
4, 185220, Note_on_c, 2, 69, 90
4, 185459, Note_on_c, 2, 69, 0
4, 185460, Note_on_c, 2, 67, 90
4, 185579, Note_on_c, 2, 67, 0
4, 185640, Note_on_c, 2, 79, 90
4, 185669, Note_on_c, 2, 79, 0
4, 185670, Note_on_c, 2, 77, 90
4, 185699, Note_on_c, 2, 77, 0
4, 185700, Note_on_c, 2, 79, 90
4, 185759, Note_on_c, 2, 79, 0
4, 185760, Note_on_c, 2, 81, 90
4, 185819, Note_on_c, 2, 81, 0
4, 185820, Note_on_c, 2, 81, 90
4, 185879, Note_on_c, 2, 81, 0
4, 186000, Note_on_c, 2, 69, 90
4, 186029, Note_on_c, 2, 69, 0
4, 186030, Note_on_c, 2, 67, 90
4, 186059, Note_on_c, 2, 67, 0
4, 186060, Note_on_c, 2, 69, 90
4, 186119, Note_on_c, 2, 69, 0
4, 186120, Note_on_c, 2, 71, 90
4, 186179, Note_on_c, 2, 71, 0
4, 186180, Note_on_c, 2, 71, 90
4, 186239, Note_on_c, 2, 71, 0
4, 186240, Note_on_c, 2, 74, 90
4, 186269, Note_on_c, 2, 74, 0
4, 186270, Note_on_c, 2, 72, 90
4, 186299, Note_on_c, 2, 72, 0
4, 186300, Note_on_c, 2, 74, 90
4, 186359, Note_on_c, 2, 74, 0
4, 186360, Note_on_c, 2, 77, 90
4, 186419, Note_on_c, 2, 77, 0
4, 186420, Note_on_c, 2, 77, 90
4, 186479, Note_on_c, 2, 77, 0
4, 186480, Note_on_c, 2, 76, 90
4, 186539, Note_on_c, 2, 76, 0
4, 186540, Note_on_c, 2, 76, 90
4, 186659, Note_on_c, 2, 76, 0
4, 186720, Note_on_c, 2, 72, 90
4, 186749, Note_on_c, 2, 72, 0
4, 186750, Note_on_c, 2, 71, 90
4, 186779, Note_on_c, 2, 71, 0
4, 186780, Note_on_c, 2, 72, 90
4, 186839, Note_on_c, 2, 72, 0
4, 186840, Note_on_c, 2, 72, 90
4, 186899, Note_on_c, 2, 72, 0
4, 186900, Note_on_c, 2, 72, 90
4, 186959, Note_on_c, 2, 72, 0
4, 186960, Note_on_c, 2, 67, 90
4, 187019, Note_on_c, 2, 67, 0
4, 187080, Note_on_c, 2, 67, 90
4, 187109, Note_on_c, 2, 67, 0
4, 187110, Note_on_c, 2, 65, 90
4, 187139, Note_on_c, 2, 65, 0
4, 187140, Note_on_c, 2, 67, 90
4, 187199, Note_on_c, 2, 67, 0
4, 187200, Note_on_c, 2, 67, 90
4, 187259, Note_on_c, 2, 67, 0
4, 187260, Note_on_c, 2, 67, 90
4, 187319, Note_on_c, 2, 67, 0
4, 187320, Note_on_c, 2, 64, 90
4, 187379, Note_on_c, 2, 64, 0
4, 187380, Note_on_c, 2, 72, 90
4, 187619, Note_on_c, 2, 72, 0
4, 187620, Note_on_c, 2, 69, 90
4, 187859, Note_on_c, 2, 69, 0
4, 187860, Note_on_c, 2, 74, 90
4, 187979, Note_on_c, 2, 74, 0
4, 187980, Note_on_c, 2, 73, 90
4, 188099, Note_on_c, 2, 73, 0
4, 188100, Note_on_c, 2, 74, 90
4, 188279, Note_on_c, 2, 74, 0
4, 188280, Note_on_c, 2, 76, 90
4, 188309, Note_on_c, 2, 76, 0
4, 188310, Note_on_c, 2, 77, 90
4, 188339, Note_on_c, 2, 77, 0
4, 188340, Note_on_c, 2, 76, 90
4, 188699, Note_on_c, 2, 76, 0
4, 188700, Note_on_c, 2, 69, 90
4, 188759, Note_on_c, 2, 69, 0
4, 188760, Note_on_c, 2, 81, 90
4, 188789, Note_on_c, 2, 81, 0
4, 188790, Note_on_c, 2, 79, 90
4, 188819, Note_on_c, 2, 79, 0
4, 188820, Note_on_c, 2, 81, 90
4, 188879, Note_on_c, 2, 81, 0
4, 188880, Note_on_c, 2, 82, 90
4, 188939, Note_on_c, 2, 82, 0
4, 188940, Note_on_c, 2, 82, 90
4, 188999, Note_on_c, 2, 82, 0
4, 189000, Note_on_c, 2, 79, 90
4, 189059, Note_on_c, 2, 79, 0
4, 189060, Note_on_c, 2, 81, 90
4, 189119, Note_on_c, 2, 81, 0
4, 189120, Note_on_c, 2, 77, 90
4, 189179, Note_on_c, 2, 77, 0
4, 189240, Note_on_c, 2, 76, 90
4, 189269, Note_on_c, 2, 76, 0
4, 189270, Note_on_c, 2, 74, 90
4, 189299, Note_on_c, 2, 74, 0
4, 189300, Note_on_c, 2, 76, 90
4, 189359, Note_on_c, 2, 76, 0
4, 189360, Note_on_c, 2, 79, 90
4, 189419, Note_on_c, 2, 79, 0
4, 189420, Note_on_c, 2, 77, 90
4, 189479, Note_on_c, 2, 77, 0
4, 189480, Note_on_c, 2, 74, 90
4, 189509, Note_on_c, 2, 74, 0
4, 189510, Note_on_c, 2, 72, 90
4, 189539, Note_on_c, 2, 72, 0
4, 189540, Note_on_c, 2, 74, 90
4, 189599, Note_on_c, 2, 74, 0
4, 189600, Note_on_c, 2, 77, 90
4, 189629, Note_on_c, 2, 77, 0
4, 189630, Note_on_c, 2, 75, 90
4, 189659, Note_on_c, 2, 75, 0
4, 189660, Note_on_c, 2, 77, 90
4, 189719, Note_on_c, 2, 77, 0
4, 189720, Note_on_c, 2, 70, 90
4, 189779, Note_on_c, 2, 70, 0
4, 189780, Note_on_c, 2, 70, 90
4, 189839, Note_on_c, 2, 70, 0
4, 189840, Note_on_c, 2, 75, 90
4, 189869, Note_on_c, 2, 75, 0
4, 189870, Note_on_c, 2, 74, 90
4, 189899, Note_on_c, 2, 74, 0
4, 189900, Note_on_c, 2, 75, 90
4, 189959, Note_on_c, 2, 75, 0
4, 189960, Note_on_c, 2, 72, 90
4, 190019, Note_on_c, 2, 72, 0
4, 190020, Note_on_c, 2, 72, 90
4, 190079, Note_on_c, 2, 72, 0
4, 190080, Note_on_c, 2, 74, 90
4, 190139, Note_on_c, 2, 74, 0
4, 190140, Note_on_c, 2, 74, 90
4, 190259, Note_on_c, 2, 74, 0
4, 190260, Note_on_c, 2, 76, 90
4, 190379, Note_on_c, 2, 76, 0
4, 190380, Note_on_c, 2, 77, 90
4, 190499, Note_on_c, 2, 77, 0
4, 190500, Note_on_c, 2, 79, 90
4, 190619, Note_on_c, 2, 79, 0
4, 190620, Note_on_c, 2, 72, 90
4, 190739, Note_on_c, 2, 72, 0
4, 190740, Note_on_c, 2, 70, 90
4, 190859, Note_on_c, 2, 70, 0
4, 190860, Note_on_c, 2, 69, 90
4, 190979, Note_on_c, 2, 69, 0
4, 190980, Note_on_c, 2, 74, 90
4, 191099, Note_on_c, 2, 74, 0
4, 191100, Note_on_c, 2, 70, 90
4, 191219, Note_on_c, 2, 70, 0
4, 191220, Note_on_c, 2, 67, 90
4, 191579, Note_on_c, 2, 67, 0
4, 191580, Note_on_c, 2, 65, 90
4, 191819, Note_on_c, 2, 65, 0
4, 192360, Note_on_c, 2, 77, 90
4, 192389, Note_on_c, 2, 77, 0
4, 192390, Note_on_c, 2, 76, 90
4, 192419, Note_on_c, 2, 76, 0
4, 192420, Note_on_c, 2, 77, 90
4, 192479, Note_on_c, 2, 77, 0
4, 192480, Note_on_c, 2, 81, 90
4, 192509, Note_on_c, 2, 81, 0
4, 192510, Note_on_c, 2, 79, 90
4, 192539, Note_on_c, 2, 79, 0
4, 192540, Note_on_c, 2, 81, 90
4, 192599, Note_on_c, 2, 81, 0
4, 192600, Note_on_c, 2, 74, 90
4, 192659, Note_on_c, 2, 74, 0
4, 192660, Note_on_c, 2, 74, 90
4, 192719, Note_on_c, 2, 74, 0
4, 192720, Note_on_c, 2, 79, 90
4, 192749, Note_on_c, 2, 79, 0
4, 192750, Note_on_c, 2, 77, 90
4, 192779, Note_on_c, 2, 77, 0
4, 192780, Note_on_c, 2, 79, 90
4, 192839, Note_on_c, 2, 79, 0
4, 192840, Note_on_c, 2, 76, 90
4, 192899, Note_on_c, 2, 76, 0
4, 192900, Note_on_c, 2, 76, 90
4, 192959, Note_on_c, 2, 76, 0
4, 192960, Note_on_c, 2, 77, 90
4, 193019, Note_on_c, 2, 77, 0
4, 193020, Note_on_c, 2, 77, 90
4, 193139, Note_on_c, 2, 77, 0
4, 193139, End_track
5, 0, Start_track
5, 0, MIDI_port, 0
5, 0, Title_t, "Oboe II"
5, 0, Program_c, 3, 68
5, 0, Control_c, 3, 7, 127
5, 0, Control_c, 3, 10, 45
5, 0, Note_on_c, 3, 65, 90
5, 119, Note_on_c, 3, 65, 0
5, 120, Note_on_c, 3, 62, 90
5, 179, Note_on_c, 3, 62, 0
5, 180, Note_on_c, 3, 64, 90
5, 195, Note_on_c, 3, 64, 0
5, 195, Note_on_c, 3, 65, 90
5, 210, Note_on_c, 3, 65, 0
5, 210, Note_on_c, 3, 64, 90
5, 220, Note_on_c, 3, 64, 0
5, 220, Note_on_c, 3, 65, 90
5, 230, Note_on_c, 3, 65, 0
5, 230, Note_on_c, 3, 64, 90
5, 240, Note_on_c, 3, 64, 0
5, 240, Note_on_c, 3, 65, 90
5, 250, Note_on_c, 3, 65, 0
5, 250, Note_on_c, 3, 64, 90
5, 260, Note_on_c, 3, 64, 0
5, 260, Note_on_c, 3, 65, 90
5, 270, Note_on_c, 3, 65, 0
5, 270, Note_on_c, 3, 64, 90
5, 280, Note_on_c, 3, 64, 0
5, 280, Note_on_c, 3, 65, 90
5, 290, Note_on_c, 3, 65, 0
5, 290, Note_on_c, 3, 64, 90
5, 300, Note_on_c, 3, 64, 0
5, 300, Note_on_c, 3, 65, 90
5, 359, Note_on_c, 3, 65, 0
5, 360, Note_on_c, 3, 65, 90
5, 479, Note_on_c, 3, 65, 0
5, 480, Note_on_c, 3, 69, 90
5, 539, Note_on_c, 3, 69, 0
5, 540, Note_on_c, 3, 70, 90
5, 569, Note_on_c, 3, 70, 0
5, 600, Note_on_c, 3, 69, 90
5, 629, Note_on_c, 3, 69, 0
5, 720, Note_on_c, 3, 70, 90
5, 779, Note_on_c, 3, 70, 0
5, 780, Note_on_c, 3, 67, 90
5, 869, Note_on_c, 3, 67, 0
5, 870, Note_on_c, 3, 65, 90
5, 884, Note_on_c, 3, 65, 0
5, 885, Note_on_c, 3, 67, 90
5, 899, Note_on_c, 3, 67, 0
5, 900, Note_on_c, 3, 72, 90
5, 1019, Note_on_c, 3, 72, 0
5, 1020, Note_on_c, 3, 67, 90
5, 1079, Note_on_c, 3, 67, 0
5, 1080, Note_on_c, 3, 65, 90
5, 1139, Note_on_c, 3, 65, 0
5, 1140, Note_on_c, 3, 65, 90
5, 1199, Note_on_c, 3, 65, 0
5, 1200, Note_on_c, 3, 65, 90
5, 1259, Note_on_c, 3, 65, 0
5, 1260, Note_on_c, 3, 64, 90
5, 1439, Note_on_c, 3, 64, 0
5, 1800, Note_on_c, 3, 72, 90
5, 1919, Note_on_c, 3, 72, 0
5, 1920, Note_on_c, 3, 76, 90
5, 1979, Note_on_c, 3, 76, 0
5, 1980, Note_on_c, 3, 77, 90
5, 2039, Note_on_c, 3, 77, 0
5, 2040, Note_on_c, 3, 76, 90
5, 2099, Note_on_c, 3, 76, 0
5, 2100, Note_on_c, 3, 77, 90
5, 2159, Note_on_c, 3, 77, 0
5, 2160, Note_on_c, 3, 72, 90
5, 2175, Note_on_c, 3, 72, 0
5, 2190, Note_on_c, 3, 65, 90
5, 2205, Note_on_c, 3, 65, 0
5, 2220, Note_on_c, 3, 65, 90
5, 2235, Note_on_c, 3, 65, 0
5, 2250, Note_on_c, 3, 72, 90
5, 2265, Note_on_c, 3, 72, 0
5, 2280, Note_on_c, 3, 74, 90
5, 2295, Note_on_c, 3, 74, 0
5, 2310, Note_on_c, 3, 70, 90
5, 2325, Note_on_c, 3, 70, 0
5, 2340, Note_on_c, 3, 72, 90
5, 2355, Note_on_c, 3, 72, 0
5, 2370, Note_on_c, 3, 65, 90
5, 2385, Note_on_c, 3, 65, 0
5, 2400, Note_on_c, 3, 65, 90
5, 2415, Note_on_c, 3, 65, 0
5, 2430, Note_on_c, 3, 72, 90
5, 2445, Note_on_c, 3, 72, 0
5, 2460, Note_on_c, 3, 70, 90
5, 2475, Note_on_c, 3, 70, 0
5, 2490, Note_on_c, 3, 65, 90
5, 2505, Note_on_c, 3, 65, 0
5, 2520, Note_on_c, 3, 74, 90
5, 2639, Note_on_c, 3, 74, 0
5, 2640, Note_on_c, 3, 78, 90
5, 2699, Note_on_c, 3, 78, 0
5, 2700, Note_on_c, 3, 79, 90
5, 2759, Note_on_c, 3, 79, 0
5, 2760, Note_on_c, 3, 78, 90
5, 2819, Note_on_c, 3, 78, 0
5, 2820, Note_on_c, 3, 79, 90
5, 2879, Note_on_c, 3, 79, 0
5, 2880, Note_on_c, 3, 74, 90
5, 2939, Note_on_c, 3, 74, 0
5, 2940, Note_on_c, 3, 79, 90
5, 2999, Note_on_c, 3, 79, 0
5, 3000, Note_on_c, 3, 70, 90
5, 3119, Note_on_c, 3, 70, 0
5, 3120, Note_on_c, 3, 67, 90
5, 3179, Note_on_c, 3, 67, 0
5, 3180, Note_on_c, 3, 76, 90
5, 3239, Note_on_c, 3, 76, 0
5, 3240, Note_on_c, 3, 72, 90
5, 3299, Note_on_c, 3, 72, 0
5, 3300, Note_on_c, 3, 77, 90
5, 3359, Note_on_c, 3, 77, 0
5, 3360, Note_on_c, 3, 69, 90
5, 3479, Note_on_c, 3, 69, 0
5, 3480, Note_on_c, 3, 65, 90
5, 3539, Note_on_c, 3, 65, 0
5, 3540, Note_on_c, 3, 74, 90
5, 3659, Note_on_c, 3, 74, 0
5, 3660, Note_on_c, 3, 79, 90
5, 3719, Note_on_c, 3, 79, 0
5, 3720, Note_on_c, 3, 67, 90
5, 3839, Note_on_c, 3, 67, 0
5, 3840, Note_on_c, 3, 65, 90
5, 3869, Note_on_c, 3, 65, 0
5, 3870, Note_on_c, 3, 70, 90
5, 3899, Note_on_c, 3, 70, 0
5, 3900, Note_on_c, 3, 69, 90
5, 3929, Note_on_c, 3, 69, 0
5, 4020, Note_on_c, 3, 65, 90
5, 4079, Note_on_c, 3, 65, 0
5, 4080, Note_on_c, 3, 64, 90
5, 4090, Note_on_c, 3, 64, 0
5, 4090, Note_on_c, 3, 65, 90
5, 4100, Note_on_c, 3, 65, 0
5, 4100, Note_on_c, 3, 64, 90
5, 4110, Note_on_c, 3, 64, 0
5, 4110, Note_on_c, 3, 65, 90
5, 4120, Note_on_c, 3, 65, 0
5, 4120, Note_on_c, 3, 64, 90
5, 4130, Note_on_c, 3, 64, 0
5, 4130, Note_on_c, 3, 65, 90
5, 4140, Note_on_c, 3, 65, 0
5, 4140, Note_on_c, 3, 65, 90
5, 4319, Note_on_c, 3, 65, 0
5, 4680, Note_on_c, 3, 65, 90
5, 4799, Note_on_c, 3, 65, 0
5, 4800, Note_on_c, 3, 69, 90
5, 4859, Note_on_c, 3, 69, 0
5, 4860, Note_on_c, 3, 70, 90
5, 4889, Note_on_c, 3, 70, 0
5, 4920, Note_on_c, 3, 69, 90
5, 4949, Note_on_c, 3, 69, 0
5, 5220, Note_on_c, 3, 72, 90
5, 5279, Note_on_c, 3, 72, 0
5, 5280, Note_on_c, 3, 70, 90
5, 5339, Note_on_c, 3, 70, 0
5, 5340, Note_on_c, 3, 69, 90
5, 5399, Note_on_c, 3, 69, 0
5, 5940, Note_on_c, 3, 69, 90
5, 5999, Note_on_c, 3, 69, 0
5, 6000, Note_on_c, 3, 67, 90
5, 6059, Note_on_c, 3, 67, 0
5, 6060, Note_on_c, 3, 65, 90
5, 6119, Note_on_c, 3, 65, 0
5, 6840, Note_on_c, 3, 65, 90
5, 6959, Note_on_c, 3, 65, 0
5, 6960, Note_on_c, 3, 69, 90
5, 7019, Note_on_c, 3, 69, 0
5, 7020, Note_on_c, 3, 70, 90
5, 7049, Note_on_c, 3, 70, 0
5, 7080, Note_on_c, 3, 69, 90
5, 7109, Note_on_c, 3, 69, 0
5, 7200, Note_on_c, 3, 70, 90
5, 7259, Note_on_c, 3, 70, 0
5, 7260, Note_on_c, 3, 67, 90
5, 7349, Note_on_c, 3, 67, 0
5, 7350, Note_on_c, 3, 65, 90
5, 7364, Note_on_c, 3, 65, 0
5, 7365, Note_on_c, 3, 67, 90
5, 7379, Note_on_c, 3, 67, 0
5, 7380, Note_on_c, 3, 72, 90
5, 7499, Note_on_c, 3, 72, 0
5, 7500, Note_on_c, 3, 67, 90
5, 7559, Note_on_c, 3, 67, 0
5, 7560, Note_on_c, 3, 65, 90
5, 7619, Note_on_c, 3, 65, 0
5, 7620, Note_on_c, 3, 65, 90
5, 7679, Note_on_c, 3, 65, 0
5, 7680, Note_on_c, 3, 65, 90
5, 7739, Note_on_c, 3, 65, 0
5, 7740, Note_on_c, 3, 65, 90
5, 7799, Note_on_c, 3, 65, 0
5, 7800, Note_on_c, 3, 64, 90
5, 7919, Note_on_c, 3, 64, 0
5, 7920, Note_on_c, 3, 72, 90
5, 7979, Note_on_c, 3, 72, 0
5, 7980, Note_on_c, 3, 67, 90
5, 8039, Note_on_c, 3, 67, 0
5, 8040, Note_on_c, 3, 72, 90
5, 8159, Note_on_c, 3, 72, 0
5, 8160, Note_on_c, 3, 64, 90
5, 8219, Note_on_c, 3, 64, 0
5, 8220, Note_on_c, 3, 65, 90
5, 8279, Note_on_c, 3, 65, 0
5, 8280, Note_on_c, 3, 72, 90
5, 8399, Note_on_c, 3, 72, 0
5, 8400, Note_on_c, 3, 76, 90
5, 8459, Note_on_c, 3, 76, 0
5, 8460, Note_on_c, 3, 77, 90
5, 8519, Note_on_c, 3, 77, 0
5, 8520, Note_on_c, 3, 79, 90
5, 8579, Note_on_c, 3, 79, 0
5, 8580, Note_on_c, 3, 81, 90
5, 8639, Note_on_c, 3, 81, 0
5, 9000, Note_on_c, 3, 69, 90
5, 9059, Note_on_c, 3, 69, 0
5, 9060, Note_on_c, 3, 70, 90
5, 9119, Note_on_c, 3, 70, 0
5, 9120, Note_on_c, 3, 72, 90
5, 9179, Note_on_c, 3, 72, 0
5, 9180, Note_on_c, 3, 74, 90
5, 9239, Note_on_c, 3, 74, 0
5, 9240, Note_on_c, 3, 72, 90
5, 9269, Note_on_c, 3, 72, 0
5, 9270, Note_on_c, 3, 74, 90
5, 9299, Note_on_c, 3, 74, 0
5, 9300, Note_on_c, 3, 70, 90
5, 9359, Note_on_c, 3, 70, 0
5, 9360, Note_on_c, 3, 65, 90
5, 9419, Note_on_c, 3, 65, 0
5, 9420, Note_on_c, 3, 70, 90
5, 9479, Note_on_c, 3, 70, 0
5, 9480, Note_on_c, 3, 74, 90
5, 9599, Note_on_c, 3, 74, 0
5, 9600, Note_on_c, 3, 76, 90
5, 9659, Note_on_c, 3, 76, 0
5, 9660, Note_on_c, 3, 79, 90
5, 9719, Note_on_c, 3, 79, 0
5, 9720, Note_on_c, 3, 64, 90
5, 9779, Note_on_c, 3, 64, 0
5, 9780, Note_on_c, 3, 69, 90
5, 9839, Note_on_c, 3, 69, 0
5, 9840, Note_on_c, 3, 72, 90
5, 9959, Note_on_c, 3, 72, 0
5, 9960, Note_on_c, 3, 74, 90
5, 10019, Note_on_c, 3, 74, 0
5, 10020, Note_on_c, 3, 78, 90
5, 10079, Note_on_c, 3, 78, 0
5, 10080, Note_on_c, 3, 62, 90
5, 10139, Note_on_c, 3, 62, 0
5, 10140, Note_on_c, 3, 67, 90
5, 10199, Note_on_c, 3, 67, 0
5, 10200, Note_on_c, 3, 70, 90
5, 10319, Note_on_c, 3, 70, 0
5, 10320, Note_on_c, 3, 72, 90
5, 10379, Note_on_c, 3, 72, 0
5, 10380, Note_on_c, 3, 64, 90
5, 10439, Note_on_c, 3, 64, 0
5, 10440, Note_on_c, 3, 60, 90
5, 10499, Note_on_c, 3, 60, 0
5, 10500, Note_on_c, 3, 62, 90
5, 10559, Note_on_c, 3, 62, 0
5, 10560, Note_on_c, 3, 64, 90
5, 10619, Note_on_c, 3, 64, 0
5, 10620, Note_on_c, 3, 62, 90
5, 10739, Note_on_c, 3, 62, 0
5, 10740, Note_on_c, 3, 67, 90
5, 10799, Note_on_c, 3, 67, 0
5, 10800, Note_on_c, 3, 72, 90
5, 10919, Note_on_c, 3, 72, 0
5, 10920, Note_on_c, 3, 72, 90
5, 10979, Note_on_c, 3, 72, 0
5, 10980, Note_on_c, 3, 72, 90
5, 11039, Note_on_c, 3, 72, 0
5, 11040, Note_on_c, 3, 71, 90
5, 11099, Note_on_c, 3, 71, 0
5, 11100, Note_on_c, 3, 72, 90
5, 11159, Note_on_c, 3, 72, 0
5, 11160, Note_on_c, 3, 70, 90
5, 11219, Note_on_c, 3, 70, 0
5, 11220, Note_on_c, 3, 69, 90
5, 11279, Note_on_c, 3, 69, 0
5, 11280, Note_on_c, 3, 67, 90
5, 11339, Note_on_c, 3, 67, 0
5, 11340, Note_on_c, 3, 65, 90
5, 11369, Note_on_c, 3, 65, 0
5, 11400, Note_on_c, 3, 64, 90
5, 11429, Note_on_c, 3, 64, 0
5, 11700, Note_on_c, 3, 70, 90
5, 11759, Note_on_c, 3, 70, 0
5, 11760, Note_on_c, 3, 69, 90
5, 11819, Note_on_c, 3, 69, 0
5, 11820, Note_on_c, 3, 67, 90
5, 11879, Note_on_c, 3, 67, 0
5, 12420, Note_on_c, 3, 67, 90
5, 12479, Note_on_c, 3, 67, 0
5, 12480, Note_on_c, 3, 65, 90
5, 12539, Note_on_c, 3, 65, 0
5, 12540, Note_on_c, 3, 64, 90
5, 12599, Note_on_c, 3, 64, 0
5, 12960, Note_on_c, 3, 72, 90
5, 13079, Note_on_c, 3, 72, 0
5, 13080, Note_on_c, 3, 74, 90
5, 13139, Note_on_c, 3, 74, 0
5, 13140, Note_on_c, 3, 71, 90
5, 13259, Note_on_c, 3, 71, 0
5, 13260, Note_on_c, 3, 72, 90
5, 13319, Note_on_c, 3, 72, 0
5, 13320, Note_on_c, 3, 72, 90
5, 13379, Note_on_c, 3, 72, 0
5, 13380, Note_on_c, 3, 74, 90
5, 13439, Note_on_c, 3, 74, 0
5, 13440, Note_on_c, 3, 76, 90
5, 13499, Note_on_c, 3, 76, 0
5, 13500, Note_on_c, 3, 77, 90
5, 13529, Note_on_c, 3, 77, 0
5, 13560, Note_on_c, 3, 76, 90
5, 13589, Note_on_c, 3, 76, 0
5, 13680, Note_on_c, 3, 76, 90
5, 13739, Note_on_c, 3, 76, 0
5, 13740, Note_on_c, 3, 74, 90
5, 13769, Note_on_c, 3, 74, 0
5, 13770, Note_on_c, 3, 76, 90
5, 13799, Note_on_c, 3, 76, 0
5, 13800, Note_on_c, 3, 77, 90
5, 13829, Note_on_c, 3, 77, 0
5, 13830, Note_on_c, 3, 74, 90
5, 13859, Note_on_c, 3, 74, 0
5, 13860, Note_on_c, 3, 71, 90
5, 13919, Note_on_c, 3, 71, 0
5, 13920, Note_on_c, 3, 76, 90
5, 13979, Note_on_c, 3, 76, 0
5, 13980, Note_on_c, 3, 72, 90
5, 14099, Note_on_c, 3, 72, 0
5, 14100, Note_on_c, 3, 74, 90
5, 14159, Note_on_c, 3, 74, 0
5, 14160, Note_on_c, 3, 71, 90
5, 14219, Note_on_c, 3, 71, 0
5, 14220, Note_on_c, 3, 72, 90
5, 14339, Note_on_c, 3, 72, 0
5, 14400, Note_on_c, 3, 71, 90
5, 14519, Note_on_c, 3, 71, 0
5, 14520, Note_on_c, 3, 72, 90
5, 14579, Note_on_c, 3, 72, 0
5, 14580, Note_on_c, 3, 65, 90
5, 14699, Note_on_c, 3, 65, 0
5, 14700, Note_on_c, 3, 64, 90
5, 14759, Note_on_c, 3, 64, 0
5, 14760, Note_on_c, 3, 62, 90
5, 14819, Note_on_c, 3, 62, 0
5, 14820, Note_on_c, 3, 64, 90
5, 14879, Note_on_c, 3, 64, 0
5, 14880, Note_on_c, 3, 65, 90
5, 14939, Note_on_c, 3, 65, 0
5, 14940, Note_on_c, 3, 67, 90
5, 14999, Note_on_c, 3, 67, 0
5, 15000, Note_on_c, 3, 65, 90
5, 15029, Note_on_c, 3, 65, 0
5, 15030, Note_on_c, 3, 67, 90
5, 15059, Note_on_c, 3, 67, 0
5, 15060, Note_on_c, 3, 64, 90
5, 15119, Note_on_c, 3, 64, 0
5, 15120, Note_on_c, 3, 60, 90
5, 15179, Note_on_c, 3, 60, 0
5, 15180, Note_on_c, 3, 60, 90
5, 15239, Note_on_c, 3, 60, 0
5, 15240, Note_on_c, 3, 60, 90
5, 15299, Note_on_c, 3, 60, 0
5, 15300, Note_on_c, 3, 60, 90
5, 15359, Note_on_c, 3, 60, 0
5, 15360, Note_on_c, 3, 60, 90
5, 15419, Note_on_c, 3, 60, 0
5, 15420, Note_on_c, 3, 60, 90
5, 15479, Note_on_c, 3, 60, 0
5, 15480, Note_on_c, 3, 64, 90
5, 15539, Note_on_c, 3, 64, 0
5, 15540, Note_on_c, 3, 65, 90
5, 15599, Note_on_c, 3, 65, 0
5, 15600, Note_on_c, 3, 67, 90
5, 15659, Note_on_c, 3, 67, 0
5, 15660, Note_on_c, 3, 69, 90
5, 15719, Note_on_c, 3, 69, 0
5, 15720, Note_on_c, 3, 67, 90
5, 15749, Note_on_c, 3, 67, 0
5, 15750, Note_on_c, 3, 69, 90
5, 15779, Note_on_c, 3, 69, 0
5, 15780, Note_on_c, 3, 65, 90
5, 15839, Note_on_c, 3, 65, 0
5, 15840, Note_on_c, 3, 69, 90
5, 15899, Note_on_c, 3, 69, 0
5, 15900, Note_on_c, 3, 74, 90
5, 15959, Note_on_c, 3, 74, 0
5, 15960, Note_on_c, 3, 65, 90
5, 16079, Note_on_c, 3, 65, 0
5, 16080, Note_on_c, 3, 62, 90
5, 16139, Note_on_c, 3, 62, 0
5, 16140, Note_on_c, 3, 71, 90
5, 16199, Note_on_c, 3, 71, 0
5, 16200, Note_on_c, 3, 67, 90
5, 16259, Note_on_c, 3, 67, 0
5, 16260, Note_on_c, 3, 72, 90
5, 16319, Note_on_c, 3, 72, 0
5, 16320, Note_on_c, 3, 64, 90
5, 16439, Note_on_c, 3, 64, 0
5, 16440, Note_on_c, 3, 60, 90
5, 16499, Note_on_c, 3, 60, 0
5, 16500, Note_on_c, 3, 69, 90
5, 16619, Note_on_c, 3, 69, 0
5, 16620, Note_on_c, 3, 74, 90
5, 16679, Note_on_c, 3, 74, 0
5, 16680, Note_on_c, 3, 62, 90
5, 16799, Note_on_c, 3, 62, 0
5, 16800, Note_on_c, 3, 60, 90
5, 16829, Note_on_c, 3, 60, 0
5, 16830, Note_on_c, 3, 77, 90
5, 16859, Note_on_c, 3, 77, 0
5, 16860, Note_on_c, 3, 76, 90
5, 16889, Note_on_c, 3, 76, 0
5, 16980, Note_on_c, 3, 72, 90
5, 17009, Note_on_c, 3, 72, 0
5, 17040, Note_on_c, 3, 71, 90
5, 17069, Note_on_c, 3, 71, 0
5, 17100, Note_on_c, 3, 72, 90
5, 17219, Note_on_c, 3, 72, 0
5, 17640, Note_on_c, 3, 66, 90
5, 17699, Note_on_c, 3, 66, 0
5, 17700, Note_on_c, 3, 67, 90
5, 17759, Note_on_c, 3, 67, 0
5, 17760, Note_on_c, 3, 69, 90
5, 17819, Note_on_c, 3, 69, 0
5, 17820, Note_on_c, 3, 67, 90
5, 17879, Note_on_c, 3, 67, 0
5, 17880, Note_on_c, 3, 62, 90
5, 17939, Note_on_c, 3, 62, 0
5, 17940, Note_on_c, 3, 64, 90
5, 17999, Note_on_c, 3, 64, 0
5, 18000, Note_on_c, 3, 62, 90
5, 18059, Note_on_c, 3, 62, 0
5, 18060, Note_on_c, 3, 70, 90
5, 18119, Note_on_c, 3, 70, 0
5, 18120, Note_on_c, 3, 69, 90
5, 18239, Note_on_c, 3, 69, 0
5, 18240, Note_on_c, 3, 67, 90
5, 18299, Note_on_c, 3, 67, 0
5, 18300, Note_on_c, 3, 69, 90
5, 18359, Note_on_c, 3, 69, 0
5, 18360, Note_on_c, 3, 70, 90
5, 18389, Note_on_c, 3, 70, 0
5, 18390, Note_on_c, 3, 72, 90
5, 18419, Note_on_c, 3, 72, 0
5, 18420, Note_on_c, 3, 70, 90
5, 18449, Note_on_c, 3, 70, 0
5, 18450, Note_on_c, 3, 69, 90
5, 18479, Note_on_c, 3, 69, 0
5, 18480, Note_on_c, 3, 67, 90
5, 18509, Note_on_c, 3, 67, 0
5, 18510, Note_on_c, 3, 65, 90
5, 18539, Note_on_c, 3, 65, 0
5, 18540, Note_on_c, 3, 64, 90
5, 18659, Note_on_c, 3, 64, 0
5, 18660, Note_on_c, 3, 64, 90
5, 18719, Note_on_c, 3, 64, 0
5, 18720, Note_on_c, 3, 65, 90
5, 18749, Note_on_c, 3, 65, 0
5, 18750, Note_on_c, 3, 64, 90
5, 18779, Note_on_c, 3, 64, 0
5, 18780, Note_on_c, 3, 65, 90
5, 18809, Note_on_c, 3, 65, 0
5, 18810, Note_on_c, 3, 67, 90
5, 18839, Note_on_c, 3, 67, 0
5, 18840, Note_on_c, 3, 64, 90
5, 18869, Note_on_c, 3, 64, 0
5, 18870, Note_on_c, 3, 67, 90
5, 18899, Note_on_c, 3, 67, 0
5, 18900, Note_on_c, 3, 65, 90
5, 18929, Note_on_c, 3, 65, 0
5, 18930, Note_on_c, 3, 67, 90
5, 18959, Note_on_c, 3, 67, 0
5, 18960, Note_on_c, 3, 69, 90
5, 18989, Note_on_c, 3, 69, 0
5, 18990, Note_on_c, 3, 67, 90
5, 19019, Note_on_c, 3, 67, 0
5, 19020, Note_on_c, 3, 65, 90
5, 19049, Note_on_c, 3, 65, 0
5, 19050, Note_on_c, 3, 64, 90
5, 19079, Note_on_c, 3, 64, 0
5, 19080, Note_on_c, 3, 62, 90
5, 19139, Note_on_c, 3, 62, 0
5, 19140, Note_on_c, 3, 67, 90
5, 19199, Note_on_c, 3, 67, 0
5, 19200, Note_on_c, 3, 69, 90
5, 19259, Note_on_c, 3, 69, 0
5, 19260, Note_on_c, 3, 62, 90
5, 19319, Note_on_c, 3, 62, 0
5, 19320, Note_on_c, 3, 67, 90
5, 19379, Note_on_c, 3, 67, 0
5, 19380, Note_on_c, 3, 62, 90
5, 19439, Note_on_c, 3, 62, 0
5, 19440, Note_on_c, 3, 64, 90
5, 19469, Note_on_c, 3, 64, 0
5, 19470, Note_on_c, 3, 62, 90
5, 19499, Note_on_c, 3, 62, 0
5, 19500, Note_on_c, 3, 64, 90
5, 19529, Note_on_c, 3, 64, 0
5, 19530, Note_on_c, 3, 65, 90
5, 19559, Note_on_c, 3, 65, 0
5, 19560, Note_on_c, 3, 62, 90
5, 19589, Note_on_c, 3, 62, 0
5, 19590, Note_on_c, 3, 65, 90
5, 19619, Note_on_c, 3, 65, 0
5, 19620, Note_on_c, 3, 64, 90
5, 19649, Note_on_c, 3, 64, 0
5, 19650, Note_on_c, 3, 65, 90
5, 19679, Note_on_c, 3, 65, 0
5, 19680, Note_on_c, 3, 67, 90
5, 19709, Note_on_c, 3, 67, 0
5, 19710, Note_on_c, 3, 65, 90
5, 19739, Note_on_c, 3, 65, 0
5, 19740, Note_on_c, 3, 64, 90
5, 19769, Note_on_c, 3, 64, 0
5, 19770, Note_on_c, 3, 62, 90
5, 19799, Note_on_c, 3, 62, 0
5, 19800, Note_on_c, 3, 60, 90
5, 19859, Note_on_c, 3, 60, 0
5, 19860, Note_on_c, 3, 65, 90
5, 19919, Note_on_c, 3, 65, 0
5, 19920, Note_on_c, 3, 67, 90
5, 19979, Note_on_c, 3, 67, 0
5, 19980, Note_on_c, 3, 60, 90
5, 20039, Note_on_c, 3, 60, 0
5, 20040, Note_on_c, 3, 65, 90
5, 20099, Note_on_c, 3, 65, 0
5, 20100, Note_on_c, 3, 60, 90
5, 20159, Note_on_c, 3, 60, 0
5, 20160, Note_on_c, 3, 65, 90
5, 20219, Note_on_c, 3, 65, 0
5, 20220, Note_on_c, 3, 64, 90
5, 20279, Note_on_c, 3, 64, 0
5, 20280, Note_on_c, 3, 65, 90
5, 20339, Note_on_c, 3, 65, 0
5, 20340, Note_on_c, 3, 70, 90
5, 20519, Note_on_c, 3, 70, 0
5, 20520, Note_on_c, 3, 64, 90
5, 20579, Note_on_c, 3, 64, 0
5, 20580, Note_on_c, 3, 62, 90
5, 20639, Note_on_c, 3, 62, 0
5, 20640, Note_on_c, 3, 64, 90
5, 20699, Note_on_c, 3, 64, 0
5, 20700, Note_on_c, 3, 69, 90
5, 20939, Note_on_c, 3, 69, 0
5, 20940, Note_on_c, 3, 67, 90
5, 20999, Note_on_c, 3, 67, 0
5, 21000, Note_on_c, 3, 65, 90
5, 21059, Note_on_c, 3, 65, 0
5, 21060, Note_on_c, 3, 64, 90
5, 21119, Note_on_c, 3, 64, 0
5, 21120, Note_on_c, 3, 65, 90
5, 21149, Note_on_c, 3, 65, 0
5, 21150, Note_on_c, 3, 64, 90
5, 21179, Note_on_c, 3, 64, 0
5, 21180, Note_on_c, 3, 62, 90
5, 21239, Note_on_c, 3, 62, 0
5, 21240, Note_on_c, 3, 74, 90
5, 21299, Note_on_c, 3, 74, 0
5, 21300, Note_on_c, 3, 73, 90
5, 21419, Note_on_c, 3, 73, 0
5, 21420, Note_on_c, 3, 74, 90
5, 21539, Note_on_c, 3, 74, 0
5, 21960, Note_on_c, 3, 66, 90
5, 22019, Note_on_c, 3, 66, 0
5, 22020, Note_on_c, 3, 67, 90
5, 22079, Note_on_c, 3, 67, 0
5, 22080, Note_on_c, 3, 66, 90
5, 22139, Note_on_c, 3, 66, 0
5, 22140, Note_on_c, 3, 67, 90
5, 22199, Note_on_c, 3, 67, 0
5, 22200, Note_on_c, 3, 66, 90
5, 22259, Note_on_c, 3, 66, 0
5, 22260, Note_on_c, 3, 67, 90
5, 22319, Note_on_c, 3, 67, 0
5, 22320, Note_on_c, 3, 67, 90
5, 22335, Note_on_c, 3, 67, 0
5, 22350, Note_on_c, 3, 60, 90
5, 22365, Note_on_c, 3, 60, 0
5, 22380, Note_on_c, 3, 60, 90
5, 22395, Note_on_c, 3, 60, 0
5, 22410, Note_on_c, 3, 67, 90
5, 22425, Note_on_c, 3, 67, 0
5, 22440, Note_on_c, 3, 69, 90
5, 22455, Note_on_c, 3, 69, 0
5, 22470, Note_on_c, 3, 65, 90
5, 22485, Note_on_c, 3, 65, 0
5, 22500, Note_on_c, 3, 67, 90
5, 22515, Note_on_c, 3, 67, 0
5, 22530, Note_on_c, 3, 60, 90
5, 22545, Note_on_c, 3, 60, 0
5, 22560, Note_on_c, 3, 60, 90
5, 22575, Note_on_c, 3, 60, 0
5, 22590, Note_on_c, 3, 67, 90
5, 22605, Note_on_c, 3, 67, 0
5, 22620, Note_on_c, 3, 65, 90
5, 22635, Note_on_c, 3, 65, 0
5, 22650, Note_on_c, 3, 60, 90
5, 22665, Note_on_c, 3, 60, 0
5, 22680, Note_on_c, 3, 62, 90
5, 22739, Note_on_c, 3, 62, 0
5, 22740, Note_on_c, 3, 70, 90
5, 22799, Note_on_c, 3, 70, 0
5, 22800, Note_on_c, 3, 67, 90
5, 22859, Note_on_c, 3, 67, 0
5, 22860, Note_on_c, 3, 69, 90
5, 22919, Note_on_c, 3, 69, 0
5, 22920, Note_on_c, 3, 64, 90
5, 22979, Note_on_c, 3, 64, 0
5, 22980, Note_on_c, 3, 69, 90
5, 23099, Note_on_c, 3, 69, 0
5, 23100, Note_on_c, 3, 74, 90
5, 23159, Note_on_c, 3, 74, 0
5, 23160, Note_on_c, 3, 65, 90
5, 23279, Note_on_c, 3, 65, 0
5, 23280, Note_on_c, 3, 62, 90
5, 23339, Note_on_c, 3, 62, 0
5, 23340, Note_on_c, 3, 71, 90
5, 23399, Note_on_c, 3, 71, 0
5, 23400, Note_on_c, 3, 67, 90
5, 23459, Note_on_c, 3, 67, 0
5, 23460, Note_on_c, 3, 72, 90
5, 23519, Note_on_c, 3, 72, 0
5, 23520, Note_on_c, 3, 63, 90
5, 23639, Note_on_c, 3, 63, 0
5, 23640, Note_on_c, 3, 60, 90
5, 23699, Note_on_c, 3, 60, 0
5, 23700, Note_on_c, 3, 69, 90
5, 23759, Note_on_c, 3, 69, 0
5, 23760, Note_on_c, 3, 65, 90
5, 23819, Note_on_c, 3, 65, 0
5, 23820, Note_on_c, 3, 70, 90
5, 23879, Note_on_c, 3, 70, 0
5, 23880, Note_on_c, 3, 62, 90
5, 23999, Note_on_c, 3, 62, 0
5, 24000, Note_on_c, 3, 64, 90
5, 24029, Note_on_c, 3, 64, 0
5, 24030, Note_on_c, 3, 74, 90
5, 24059, Note_on_c, 3, 74, 0
5, 24060, Note_on_c, 3, 73, 90
5, 24089, Note_on_c, 3, 73, 0
5, 24180, Note_on_c, 3, 74, 90
5, 24209, Note_on_c, 3, 74, 0
5, 24240, Note_on_c, 3, 73, 90
5, 24269, Note_on_c, 3, 73, 0
5, 24300, Note_on_c, 3, 74, 90
5, 24359, Note_on_c, 3, 74, 0
5, 24390, Note_on_c, 3, 64, 90
5, 24419, Note_on_c, 3, 64, 0
5, 24420, Note_on_c, 3, 65, 90
5, 24449, Note_on_c, 3, 65, 0
5, 24450, Note_on_c, 3, 67, 90
5, 24479, Note_on_c, 3, 67, 0
5, 24480, Note_on_c, 3, 69, 90
5, 24509, Note_on_c, 3, 69, 0
5, 24510, Note_on_c, 3, 65, 90
5, 24539, Note_on_c, 3, 65, 0
5, 24540, Note_on_c, 3, 64, 90
5, 24554, Note_on_c, 3, 64, 0
5, 24555, Note_on_c, 3, 62, 90
5, 24569, Note_on_c, 3, 62, 0
5, 24570, Note_on_c, 3, 64, 90
5, 24580, Note_on_c, 3, 64, 0
5, 24580, Note_on_c, 3, 62, 90
5, 24590, Note_on_c, 3, 62, 0
5, 24590, Note_on_c, 3, 64, 90
5, 24600, Note_on_c, 3, 64, 0
5, 24600, Note_on_c, 3, 62, 90
5, 24610, Note_on_c, 3, 62, 0
5, 24610, Note_on_c, 3, 64, 90
5, 24620, Note_on_c, 3, 64, 0
5, 24620, Note_on_c, 3, 62, 90
5, 24630, Note_on_c, 3, 62, 0
5, 24630, Note_on_c, 3, 60, 90
5, 24644, Note_on_c, 3, 60, 0
5, 24645, Note_on_c, 3, 62, 90
5, 24659, Note_on_c, 3, 62, 0
5, 24660, Note_on_c, 3, 67, 90
5, 24779, Note_on_c, 3, 67, 0
5, 25380, Note_on_c, 3, 64, 90
5, 25439, Note_on_c, 3, 64, 0
5, 25440, Note_on_c, 3, 68, 90
5, 25499, Note_on_c, 3, 68, 0
5, 25500, Note_on_c, 3, 69, 90
5, 25559, Note_on_c, 3, 69, 0
5, 25560, Note_on_c, 3, 65, 90
5, 25619, Note_on_c, 3, 65, 0
5, 25620, Note_on_c, 3, 64, 90
5, 25679, Note_on_c, 3, 64, 0
5, 25680, Note_on_c, 3, 62, 90
5, 25739, Note_on_c, 3, 62, 0
5, 25740, Note_on_c, 3, 64, 90
5, 25859, Note_on_c, 3, 64, 0
5, 25860, Note_on_c, 3, 64, 90
5, 25919, Note_on_c, 3, 64, 0
5, 25920, Note_on_c, 3, 60, 90
5, 25950, Note_on_c, 3, 60, 0
5, 25980, Note_on_c, 3, 69, 90
5, 26010, Note_on_c, 3, 69, 0
5, 26100, Note_on_c, 3, 69, 90
5, 26130, Note_on_c, 3, 69, 0
5, 26160, Note_on_c, 3, 64, 90
5, 26190, Note_on_c, 3, 64, 0
5, 26280, Note_on_c, 3, 69, 90
5, 26339, Note_on_c, 3, 69, 0
5, 26340, Note_on_c, 3, 69, 90
5, 26399, Note_on_c, 3, 69, 0
5, 26400, Note_on_c, 3, 69, 90
5, 26459, Note_on_c, 3, 69, 0
5, 26460, Note_on_c, 3, 69, 90
5, 26519, Note_on_c, 3, 69, 0
5, 26520, Note_on_c, 3, 69, 90
5, 26579, Note_on_c, 3, 69, 0
5, 26580, Note_on_c, 3, 69, 90
5, 26639, Note_on_c, 3, 69, 0
5, 26640, Note_on_c, 3, 62, 90
5, 26670, Note_on_c, 3, 62, 0
5, 26700, Note_on_c, 3, 67, 90
5, 26730, Note_on_c, 3, 67, 0
5, 26820, Note_on_c, 3, 67, 90
5, 26850, Note_on_c, 3, 67, 0
5, 26880, Note_on_c, 3, 62, 90
5, 26910, Note_on_c, 3, 62, 0
5, 27000, Note_on_c, 3, 67, 90
5, 27059, Note_on_c, 3, 67, 0
5, 27060, Note_on_c, 3, 67, 90
5, 27119, Note_on_c, 3, 67, 0
5, 27120, Note_on_c, 3, 67, 90
5, 27179, Note_on_c, 3, 67, 0
5, 27180, Note_on_c, 3, 67, 90
5, 27239, Note_on_c, 3, 67, 0
5, 27240, Note_on_c, 3, 67, 90
5, 27299, Note_on_c, 3, 67, 0
5, 27300, Note_on_c, 3, 67, 90
5, 27359, Note_on_c, 3, 67, 0
5, 27540, Note_on_c, 3, 65, 90
5, 27599, Note_on_c, 3, 65, 0
5, 27600, Note_on_c, 3, 64, 90
5, 27659, Note_on_c, 3, 64, 0
5, 27660, Note_on_c, 3, 65, 90
5, 27719, Note_on_c, 3, 65, 0
5, 27720, Note_on_c, 3, 70, 90
5, 27899, Note_on_c, 3, 70, 0
5, 27900, Note_on_c, 3, 64, 90
5, 27959, Note_on_c, 3, 64, 0
5, 27960, Note_on_c, 3, 62, 90
5, 28019, Note_on_c, 3, 62, 0
5, 28020, Note_on_c, 3, 64, 90
5, 28079, Note_on_c, 3, 64, 0
5, 28080, Note_on_c, 3, 69, 90
5, 28139, Note_on_c, 3, 69, 0
5, 28140, Note_on_c, 3, 74, 90
5, 28199, Note_on_c, 3, 74, 0
5, 28200, Note_on_c, 3, 72, 90
5, 28259, Note_on_c, 3, 72, 0
5, 28260, Note_on_c, 3, 71, 90
5, 28319, Note_on_c, 3, 71, 0
5, 28320, Note_on_c, 3, 69, 90
5, 28349, Note_on_c, 3, 69, 0
5, 28350, Note_on_c, 3, 68, 90
5, 28379, Note_on_c, 3, 68, 0
5, 28380, Note_on_c, 3, 69, 90
5, 28469, Note_on_c, 3, 69, 0
5, 28470, Note_on_c, 3, 71, 90
5, 28499, Note_on_c, 3, 71, 0
5, 28500, Note_on_c, 3, 71, 90
5, 28589, Note_on_c, 3, 71, 0
5, 28590, Note_on_c, 3, 69, 90
5, 28619, Note_on_c, 3, 69, 0
5, 28620, Note_on_c, 3, 69, 90
5, 28739, Note_on_c, 3, 69, 0
5, 29880, Note_on_c, 3, 72, 90
5, 29895, Note_on_c, 3, 72, 0
5, 29910, Note_on_c, 3, 65, 90
5, 29925, Note_on_c, 3, 65, 0
5, 29940, Note_on_c, 3, 65, 90
5, 29955, Note_on_c, 3, 65, 0
5, 29970, Note_on_c, 3, 72, 90
5, 29985, Note_on_c, 3, 72, 0
5, 30000, Note_on_c, 3, 74, 90
5, 30015, Note_on_c, 3, 74, 0
5, 30030, Note_on_c, 3, 70, 90
5, 30045, Note_on_c, 3, 70, 0
5, 30060, Note_on_c, 3, 72, 90
5, 30075, Note_on_c, 3, 72, 0
5, 30090, Note_on_c, 3, 65, 90
5, 30105, Note_on_c, 3, 65, 0
5, 30120, Note_on_c, 3, 65, 90
5, 30135, Note_on_c, 3, 65, 0
5, 30150, Note_on_c, 3, 72, 90
5, 30165, Note_on_c, 3, 72, 0
5, 30180, Note_on_c, 3, 70, 90
5, 30195, Note_on_c, 3, 70, 0
5, 30210, Note_on_c, 3, 69, 90
5, 30225, Note_on_c, 3, 69, 0
5, 30240, Note_on_c, 3, 70, 90
5, 30269, Note_on_c, 3, 70, 0
5, 30270, Note_on_c, 3, 69, 90
5, 30299, Note_on_c, 3, 69, 0
5, 30300, Note_on_c, 3, 70, 90
5, 30359, Note_on_c, 3, 70, 0
5, 30360, Note_on_c, 3, 67, 90
5, 30419, Note_on_c, 3, 67, 0
5, 30420, Note_on_c, 3, 72, 90
5, 30539, Note_on_c, 3, 72, 0
5, 30540, Note_on_c, 3, 67, 90
5, 30599, Note_on_c, 3, 67, 0
5, 30600, Note_on_c, 3, 65, 90
5, 30659, Note_on_c, 3, 65, 0
5, 30660, Note_on_c, 3, 65, 90
5, 30719, Note_on_c, 3, 65, 0
5, 30720, Note_on_c, 3, 65, 90
5, 30779, Note_on_c, 3, 65, 0
5, 30780, Note_on_c, 3, 65, 90
5, 30839, Note_on_c, 3, 65, 0
5, 30840, Note_on_c, 3, 64, 90
5, 30899, Note_on_c, 3, 64, 0
5, 31140, Note_on_c, 3, 67, 90
5, 31199, Note_on_c, 3, 67, 0
5, 31200, Note_on_c, 3, 65, 90
5, 31259, Note_on_c, 3, 65, 0
5, 31260, Note_on_c, 3, 64, 90
5, 31319, Note_on_c, 3, 64, 0
5, 31860, Note_on_c, 3, 64, 90
5, 31919, Note_on_c, 3, 64, 0
5, 31920, Note_on_c, 3, 65, 90
5, 31979, Note_on_c, 3, 65, 0
5, 31980, Note_on_c, 3, 67, 90
5, 32039, Note_on_c, 3, 67, 0
5, 32760, Note_on_c, 3, 72, 90
5, 32879, Note_on_c, 3, 72, 0
5, 32880, Note_on_c, 3, 72, 90
5, 32939, Note_on_c, 3, 72, 0
5, 32940, Note_on_c, 3, 72, 90
5, 32970, Note_on_c, 3, 72, 0
5, 33000, Note_on_c, 3, 70, 90
5, 33030, Note_on_c, 3, 70, 0
5, 33120, Note_on_c, 3, 69, 90
5, 33239, Note_on_c, 3, 69, 0
5, 33240, Note_on_c, 3, 66, 90
5, 33299, Note_on_c, 3, 66, 0
5, 33300, Note_on_c, 3, 67, 90
5, 33419, Note_on_c, 3, 67, 0
5, 33420, Note_on_c, 3, 62, 90
5, 33479, Note_on_c, 3, 62, 0
5, 33480, Note_on_c, 3, 67, 90
5, 33539, Note_on_c, 3, 67, 0
5, 33540, Note_on_c, 3, 65, 90
5, 33599, Note_on_c, 3, 65, 0
5, 33600, Note_on_c, 3, 64, 90
5, 33659, Note_on_c, 3, 64, 0
5, 33660, Note_on_c, 3, 65, 90
5, 33779, Note_on_c, 3, 65, 0
5, 33840, Note_on_c, 3, 72, 90
5, 33899, Note_on_c, 3, 72, 0
5, 33900, Note_on_c, 3, 67, 90
5, 33959, Note_on_c, 3, 67, 0
5, 33960, Note_on_c, 3, 72, 90
5, 34079, Note_on_c, 3, 72, 0
5, 34080, Note_on_c, 3, 76, 90
5, 34139, Note_on_c, 3, 76, 0
5, 34140, Note_on_c, 3, 72, 90
5, 34199, Note_on_c, 3, 72, 0
5, 34200, Note_on_c, 3, 72, 90
5, 34319, Note_on_c, 3, 72, 0
5, 34320, Note_on_c, 3, 76, 90
5, 34379, Note_on_c, 3, 76, 0
5, 34380, Note_on_c, 3, 77, 90
5, 34439, Note_on_c, 3, 77, 0
5, 34440, Note_on_c, 3, 79, 90
5, 34499, Note_on_c, 3, 79, 0
5, 34500, Note_on_c, 3, 81, 90
5, 34559, Note_on_c, 3, 81, 0
5, 34920, Note_on_c, 3, 69, 90
5, 34979, Note_on_c, 3, 69, 0
5, 34980, Note_on_c, 3, 70, 90
5, 35039, Note_on_c, 3, 70, 0
5, 35040, Note_on_c, 3, 72, 90
5, 35099, Note_on_c, 3, 72, 0
5, 35100, Note_on_c, 3, 74, 90
5, 35159, Note_on_c, 3, 74, 0
5, 35160, Note_on_c, 3, 72, 90
5, 35189, Note_on_c, 3, 72, 0
5, 35190, Note_on_c, 3, 74, 90
5, 35219, Note_on_c, 3, 74, 0
5, 35220, Note_on_c, 3, 70, 90
5, 35279, Note_on_c, 3, 70, 0
5, 35280, Note_on_c, 3, 65, 90
5, 35339, Note_on_c, 3, 65, 0
5, 35340, Note_on_c, 3, 70, 90
5, 35399, Note_on_c, 3, 70, 0
5, 35400, Note_on_c, 3, 74, 90
5, 35519, Note_on_c, 3, 74, 0
5, 35520, Note_on_c, 3, 76, 90
5, 35579, Note_on_c, 3, 76, 0
5, 35580, Note_on_c, 3, 79, 90
5, 35639, Note_on_c, 3, 79, 0
5, 35640, Note_on_c, 3, 64, 90
5, 35699, Note_on_c, 3, 64, 0
5, 35700, Note_on_c, 3, 69, 90
5, 35759, Note_on_c, 3, 69, 0
5, 35760, Note_on_c, 3, 72, 90
5, 35879, Note_on_c, 3, 72, 0
5, 35880, Note_on_c, 3, 74, 90
5, 35939, Note_on_c, 3, 74, 0
5, 35940, Note_on_c, 3, 78, 90
5, 35999, Note_on_c, 3, 78, 0
5, 36000, Note_on_c, 3, 62, 90
5, 36059, Note_on_c, 3, 62, 0
5, 36060, Note_on_c, 3, 67, 90
5, 36119, Note_on_c, 3, 67, 0
5, 36120, Note_on_c, 3, 70, 90
5, 36239, Note_on_c, 3, 70, 0
5, 36240, Note_on_c, 3, 72, 90
5, 36299, Note_on_c, 3, 72, 0
5, 36300, Note_on_c, 3, 76, 90
5, 36359, Note_on_c, 3, 76, 0
5, 36360, Note_on_c, 3, 77, 90
5, 36389, Note_on_c, 3, 77, 0
5, 36390, Note_on_c, 3, 76, 90
5, 36419, Note_on_c, 3, 76, 0
5, 36420, Note_on_c, 3, 77, 90
5, 36479, Note_on_c, 3, 77, 0
5, 36480, Note_on_c, 3, 74, 90
5, 36539, Note_on_c, 3, 74, 0
5, 36540, Note_on_c, 3, 72, 90
5, 36659, Note_on_c, 3, 72, 0
5, 36660, Note_on_c, 3, 67, 90
5, 36719, Note_on_c, 3, 67, 0
5, 36720, Note_on_c, 3, 65, 90
5, 36839, Note_on_c, 3, 65, 0
5, 36840, Note_on_c, 3, 65, 90
5, 36899, Note_on_c, 3, 65, 0
5, 36900, Note_on_c, 3, 64, 90
5, 37019, Note_on_c, 3, 64, 0
5, 37020, Note_on_c, 3, 62, 90
5, 37079, Note_on_c, 3, 62, 0
5, 37080, Note_on_c, 3, 65, 90
5, 37139, Note_on_c, 3, 65, 0
5, 37140, Note_on_c, 3, 67, 90
5, 37199, Note_on_c, 3, 67, 0
5, 37200, Note_on_c, 3, 69, 90
5, 37259, Note_on_c, 3, 69, 0
5, 37260, Note_on_c, 3, 70, 90
5, 37289, Note_on_c, 3, 70, 0
5, 37320, Note_on_c, 3, 69, 90
5, 37349, Note_on_c, 3, 69, 0
5, 37620, Note_on_c, 3, 62, 90
5, 37679, Note_on_c, 3, 62, 0
5, 37680, Note_on_c, 3, 60, 90
5, 37739, Note_on_c, 3, 60, 0
5, 37740, Note_on_c, 3, 65, 90
5, 37799, Note_on_c, 3, 65, 0
5, 38340, Note_on_c, 3, 62, 90
5, 38399, Note_on_c, 3, 62, 0
5, 38400, Note_on_c, 3, 65, 90
5, 38459, Note_on_c, 3, 65, 0
5, 38460, Note_on_c, 3, 70, 90
5, 38519, Note_on_c, 3, 70, 0
5, 38880, Note_on_c, 3, 65, 90
5, 38999, Note_on_c, 3, 65, 0
5, 39000, Note_on_c, 3, 67, 90
5, 39119, Note_on_c, 3, 67, 0
5, 39120, Note_on_c, 3, 66, 90
5, 39179, Note_on_c, 3, 66, 0
5, 39180, Note_on_c, 3, 67, 90
5, 39239, Note_on_c, 3, 67, 0
5, 39240, Note_on_c, 3, 70, 90
5, 39359, Note_on_c, 3, 70, 0
5, 39360, Note_on_c, 3, 70, 90
5, 39419, Note_on_c, 3, 70, 0
5, 39420, Note_on_c, 3, 70, 90
5, 39449, Note_on_c, 3, 70, 0
5, 39480, Note_on_c, 3, 67, 90
5, 39509, Note_on_c, 3, 67, 0
5, 39600, Note_on_c, 3, 65, 90
5, 39719, Note_on_c, 3, 65, 0
5, 39720, Note_on_c, 3, 65, 90
5, 39779, Note_on_c, 3, 65, 0
5, 39780, Note_on_c, 3, 67, 90
5, 39839, Note_on_c, 3, 67, 0
5, 39840, Note_on_c, 3, 69, 90
5, 39899, Note_on_c, 3, 69, 0
5, 39900, Note_on_c, 3, 69, 90
5, 39959, Note_on_c, 3, 69, 0
5, 39960, Note_on_c, 3, 62, 90
5, 39989, Note_on_c, 3, 62, 0
5, 39990, Note_on_c, 3, 64, 90
5, 40019, Note_on_c, 3, 64, 0
5, 40020, Note_on_c, 3, 64, 90
5, 40109, Note_on_c, 3, 64, 0
5, 40110, Note_on_c, 3, 65, 90
5, 40139, Note_on_c, 3, 65, 0
5, 40140, Note_on_c, 3, 65, 90
5, 40259, Note_on_c, 3, 65, 0
5, 40680, Note_on_c, 3, 72, 90
5, 40799, Note_on_c, 3, 72, 0
5, 40800, Note_on_c, 3, 76, 90
5, 40859, Note_on_c, 3, 76, 0
5, 40860, Note_on_c, 3, 77, 90
5, 40919, Note_on_c, 3, 77, 0
5, 40920, Note_on_c, 3, 76, 90
5, 40979, Note_on_c, 3, 76, 0
5, 40980, Note_on_c, 3, 77, 90
5, 41039, Note_on_c, 3, 77, 0
5, 41040, Note_on_c, 3, 72, 90
5, 41055, Note_on_c, 3, 72, 0
5, 41070, Note_on_c, 3, 65, 90
5, 41085, Note_on_c, 3, 65, 0
5, 41100, Note_on_c, 3, 65, 90
5, 41115, Note_on_c, 3, 65, 0
5, 41130, Note_on_c, 3, 72, 90
5, 41145, Note_on_c, 3, 72, 0
5, 41160, Note_on_c, 3, 74, 90
5, 41175, Note_on_c, 3, 74, 0
5, 41190, Note_on_c, 3, 70, 90
5, 41205, Note_on_c, 3, 70, 0
5, 41220, Note_on_c, 3, 72, 90
5, 41235, Note_on_c, 3, 72, 0
5, 41250, Note_on_c, 3, 65, 90
5, 41265, Note_on_c, 3, 65, 0
5, 41280, Note_on_c, 3, 65, 90
5, 41295, Note_on_c, 3, 65, 0
5, 41310, Note_on_c, 3, 72, 90
5, 41325, Note_on_c, 3, 72, 0
5, 41340, Note_on_c, 3, 70, 90
5, 41355, Note_on_c, 3, 70, 0
5, 41370, Note_on_c, 3, 65, 90
5, 41385, Note_on_c, 3, 65, 0
5, 41400, Note_on_c, 3, 74, 90
5, 41519, Note_on_c, 3, 74, 0
5, 41520, Note_on_c, 3, 78, 90
5, 41579, Note_on_c, 3, 78, 0
5, 41580, Note_on_c, 3, 79, 90
5, 41639, Note_on_c, 3, 79, 0
5, 41640, Note_on_c, 3, 78, 90
5, 41699, Note_on_c, 3, 78, 0
5, 41700, Note_on_c, 3, 79, 90
5, 41759, Note_on_c, 3, 79, 0
5, 41760, Note_on_c, 3, 74, 90
5, 41819, Note_on_c, 3, 74, 0
5, 41820, Note_on_c, 3, 79, 90
5, 41879, Note_on_c, 3, 79, 0
5, 41880, Note_on_c, 3, 70, 90
5, 41999, Note_on_c, 3, 70, 0
5, 42000, Note_on_c, 3, 67, 90
5, 42059, Note_on_c, 3, 67, 0
5, 42060, Note_on_c, 3, 76, 90
5, 42119, Note_on_c, 3, 76, 0
5, 42120, Note_on_c, 3, 72, 90
5, 42179, Note_on_c, 3, 72, 0
5, 42180, Note_on_c, 3, 77, 90
5, 42239, Note_on_c, 3, 77, 0
5, 42240, Note_on_c, 3, 69, 90
5, 42359, Note_on_c, 3, 69, 0
5, 42360, Note_on_c, 3, 65, 90
5, 42419, Note_on_c, 3, 65, 0
5, 42420, Note_on_c, 3, 74, 90
5, 42539, Note_on_c, 3, 74, 0
5, 42540, Note_on_c, 3, 79, 90
5, 42599, Note_on_c, 3, 79, 0
5, 42600, Note_on_c, 3, 67, 90
5, 42719, Note_on_c, 3, 67, 0
5, 42720, Note_on_c, 3, 65, 90
5, 42749, Note_on_c, 3, 65, 0
5, 42750, Note_on_c, 3, 70, 90
5, 42779, Note_on_c, 3, 70, 0
5, 42780, Note_on_c, 3, 69, 90
5, 42809, Note_on_c, 3, 69, 0
5, 42900, Note_on_c, 3, 65, 90
5, 42929, Note_on_c, 3, 65, 0
5, 42960, Note_on_c, 3, 64, 90
5, 42989, Note_on_c, 3, 64, 0
5, 43020, Note_on_c, 3, 65, 90
5, 43199, Note_on_c, 3, 65, 0
5, 60180, Control_c, 3, 91, 117
5, 60720, Note_on_c, 3, 69, 50
5, 60780, Note_on_c, 3, 69, 0
5, 60780, Note_on_c, 3, 65, 50
5, 60840, Note_on_c, 3, 65, 0
5, 60840, Note_on_c, 3, 67, 50
5, 60900, Note_on_c, 3, 67, 0
5, 61440, Note_on_c, 3, 76, 50
5, 61500, Note_on_c, 3, 76, 0
5, 61500, Note_on_c, 3, 72, 50
5, 61560, Note_on_c, 3, 72, 0
5, 61560, Note_on_c, 3, 74, 50
5, 61620, Note_on_c, 3, 74, 0
5, 64680, Note_on_c, 3, 72, 50
5, 64740, Note_on_c, 3, 72, 0
5, 64740, Note_on_c, 3, 71, 50
5, 64800, Note_on_c, 3, 71, 0
5, 65040, Note_on_c, 3, 77, 50
5, 65100, Note_on_c, 3, 77, 0
5, 65100, Note_on_c, 3, 76, 50
5, 65160, Note_on_c, 3, 76, 0
5, 65400, Note_on_c, 3, 78, 50
5, 65460, Note_on_c, 3, 78, 0
5, 65460, Note_on_c, 3, 79, 50
5, 65520, Note_on_c, 3, 79, 0
5, 65760, Note_on_c, 3, 73, 50
5, 65820, Note_on_c, 3, 73, 0
5, 65820, Note_on_c, 3, 74, 50
5, 65880, Note_on_c, 3, 74, 0
5, 70800, Note_on_c, 3, 76, 50
5, 70859, Note_on_c, 3, 76, 0
5, 70860, Note_on_c, 3, 72, 50
5, 70919, Note_on_c, 3, 72, 0
5, 70920, Note_on_c, 3, 74, 50
5, 70979, Note_on_c, 3, 74, 0
5, 71520, Note_on_c, 3, 70, 50
5, 71579, Note_on_c, 3, 70, 0
5, 71580, Note_on_c, 3, 68, 50
5, 71639, Note_on_c, 3, 68, 0
5, 71640, Note_on_c, 3, 69, 50
5, 71699, Note_on_c, 3, 69, 0
5, 73320, Note_on_c, 3, 84, 50
5, 73379, Note_on_c, 3, 84, 0
5, 73380, Note_on_c, 3, 81, 50
5, 73439, Note_on_c, 3, 81, 0
5, 73440, Note_on_c, 3, 83, 50
5, 73499, Note_on_c, 3, 83, 0
5, 76380, Note_on_c, 3, 72, 50
5, 76440, Note_on_c, 3, 72, 0
5, 76440, Note_on_c, 3, 71, 50
5, 76500, Note_on_c, 3, 71, 0
5, 77460, Note_on_c, 3, 77, 50
5, 77520, Note_on_c, 3, 77, 0
5, 77520, Note_on_c, 3, 76, 50
5, 77580, Note_on_c, 3, 76, 0
5, 90780, Note_on_c, 3, 64, 50
5, 90900, Note_on_c, 3, 64, 0
5, 91260, Note_on_c, 3, 64, 50
5, 91320, Note_on_c, 3, 64, 0
5, 91320, Note_on_c, 3, 71, 50
5, 91440, Note_on_c, 3, 71, 0
5, 102300, Note_on_c, 3, 72, 50
5, 102419, Note_on_c, 3, 72, 0
5, 103380, Note_on_c, 3, 67, 50
5, 103499, Note_on_c, 3, 67, 0
5, 104400, Note_on_c, 3, 72, 50
5, 104459, Note_on_c, 3, 72, 0
5, 104460, Note_on_c, 3, 76, 50
5, 104579, Note_on_c, 3, 76, 0
5, 107880, Note_on_c, 3, 65, 50
5, 107939, Note_on_c, 3, 65, 0
5, 107940, Note_on_c, 3, 64, 50
5, 107999, Note_on_c, 3, 64, 0
5, 108240, Note_on_c, 3, 70, 50
5, 108299, Note_on_c, 3, 70, 0
5, 108300, Note_on_c, 3, 69, 50
5, 108359, Note_on_c, 3, 69, 0
5, 108600, Note_on_c, 3, 71, 50
5, 108659, Note_on_c, 3, 71, 0
5, 108660, Note_on_c, 3, 72, 50
5, 108719, Note_on_c, 3, 72, 0
5, 108960, Note_on_c, 3, 78, 50
5, 109019, Note_on_c, 3, 78, 0
5, 109020, Note_on_c, 3, 79, 50
5, 109079, Note_on_c, 3, 79, 0
5, 175080, Note_on_c, 3, 77, 90
5, 175109, Note_on_c, 3, 77, 0
5, 175110, Note_on_c, 3, 76, 90
5, 175139, Note_on_c, 3, 76, 0
5, 175140, Note_on_c, 3, 77, 90
5, 175199, Note_on_c, 3, 77, 0
5, 175200, Note_on_c, 3, 81, 90
5, 175229, Note_on_c, 3, 81, 0
5, 175230, Note_on_c, 3, 79, 90
5, 175259, Note_on_c, 3, 79, 0
5, 175260, Note_on_c, 3, 81, 90
5, 175319, Note_on_c, 3, 81, 0
5, 175320, Note_on_c, 3, 74, 90
5, 175379, Note_on_c, 3, 74, 0
5, 175380, Note_on_c, 3, 74, 90
5, 175439, Note_on_c, 3, 74, 0
5, 175440, Note_on_c, 3, 79, 90
5, 175469, Note_on_c, 3, 79, 0
5, 175470, Note_on_c, 3, 77, 90
5, 175499, Note_on_c, 3, 77, 0
5, 175500, Note_on_c, 3, 79, 90
5, 175559, Note_on_c, 3, 79, 0
5, 175560, Note_on_c, 3, 76, 90
5, 175619, Note_on_c, 3, 76, 0
5, 175620, Note_on_c, 3, 76, 90
5, 175679, Note_on_c, 3, 76, 0
5, 175680, Note_on_c, 3, 77, 90
5, 175739, Note_on_c, 3, 77, 0
5, 175740, Note_on_c, 3, 77, 90
5, 175799, Note_on_c, 3, 77, 0
5, 175800, Note_on_c, 3, 72, 90
5, 175859, Note_on_c, 3, 72, 0
5, 175860, Note_on_c, 3, 70, 90
5, 175979, Note_on_c, 3, 70, 0
5, 175980, Note_on_c, 3, 69, 90
5, 176099, Note_on_c, 3, 69, 0
5, 176100, Note_on_c, 3, 67, 90
5, 176339, Note_on_c, 3, 67, 0
5, 176340, Note_on_c, 3, 65, 90
5, 176459, Note_on_c, 3, 65, 0
5, 176460, Note_on_c, 3, 70, 90
5, 176579, Note_on_c, 3, 70, 0
5, 176580, Note_on_c, 3, 72, 90
5, 176759, Note_on_c, 3, 72, 0
5, 176760, Note_on_c, 3, 74, 90
5, 176789, Note_on_c, 3, 74, 0
5, 176790, Note_on_c, 3, 75, 90
5, 176819, Note_on_c, 3, 75, 0
5, 176820, Note_on_c, 3, 74, 90
5, 177179, Note_on_c, 3, 74, 0
5, 177180, Note_on_c, 3, 72, 90
5, 177239, Note_on_c, 3, 72, 0
5, 177240, Note_on_c, 3, 72, 90
5, 177269, Note_on_c, 3, 72, 0
5, 177270, Note_on_c, 3, 70, 90
5, 177299, Note_on_c, 3, 70, 0
5, 177300, Note_on_c, 3, 72, 90
5, 177359, Note_on_c, 3, 72, 0
5, 177360, Note_on_c, 3, 74, 90
5, 177419, Note_on_c, 3, 74, 0
5, 177420, Note_on_c, 3, 74, 90
5, 177479, Note_on_c, 3, 74, 0
5, 177480, Note_on_c, 3, 70, 90
5, 177539, Note_on_c, 3, 70, 0
5, 177540, Note_on_c, 3, 72, 90
5, 177599, Note_on_c, 3, 72, 0
5, 177600, Note_on_c, 3, 69, 90
5, 177659, Note_on_c, 3, 69, 0
5, 177660, Note_on_c, 3, 69, 90
5, 177719, Note_on_c, 3, 69, 0
5, 177720, Note_on_c, 3, 70, 90
5, 177779, Note_on_c, 3, 70, 0
5, 177780, Note_on_c, 3, 70, 90
5, 177839, Note_on_c, 3, 70, 0
5, 177840, Note_on_c, 3, 67, 90
5, 177899, Note_on_c, 3, 67, 0
5, 177900, Note_on_c, 3, 69, 90
5, 177959, Note_on_c, 3, 69, 0
5, 177960, Note_on_c, 3, 72, 90
5, 177989, Note_on_c, 3, 72, 0
5, 177990, Note_on_c, 3, 70, 90
5, 178019, Note_on_c, 3, 70, 0
5, 178020, Note_on_c, 3, 69, 90
5, 178079, Note_on_c, 3, 69, 0
5, 178080, Note_on_c, 3, 72, 90
5, 178139, Note_on_c, 3, 72, 0
5, 178140, Note_on_c, 3, 77, 90
5, 178319, Note_on_c, 3, 77, 0
5, 178320, Note_on_c, 3, 76, 90
5, 178349, Note_on_c, 3, 76, 0
5, 178350, Note_on_c, 3, 74, 90
5, 178379, Note_on_c, 3, 74, 0
5, 178380, Note_on_c, 3, 73, 90
5, 178559, Note_on_c, 3, 73, 0
5, 178560, Note_on_c, 3, 74, 90
5, 178619, Note_on_c, 3, 74, 0
5, 178620, Note_on_c, 3, 74, 90
5, 178679, Note_on_c, 3, 74, 0
5, 178680, Note_on_c, 3, 69, 90
5, 178739, Note_on_c, 3, 69, 0
5, 178740, Note_on_c, 3, 70, 90
5, 178979, Note_on_c, 3, 70, 0
5, 178980, Note_on_c, 3, 72, 90
5, 179219, Note_on_c, 3, 72, 0
5, 179220, Note_on_c, 3, 65, 90
5, 179339, Note_on_c, 3, 65, 0
5, 179340, Note_on_c, 3, 70, 90
5, 179459, Note_on_c, 3, 70, 0
5, 179460, Note_on_c, 3, 69, 90
5, 179699, Note_on_c, 3, 69, 0
5, 179700, Note_on_c, 3, 67, 90
5, 179819, Note_on_c, 3, 67, 0
5, 179880, Note_on_c, 3, 76, 90
5, 179909, Note_on_c, 3, 76, 0
5, 179910, Note_on_c, 3, 74, 90
5, 179939, Note_on_c, 3, 74, 0
5, 179940, Note_on_c, 3, 76, 90
5, 179999, Note_on_c, 3, 76, 0
5, 180000, Note_on_c, 3, 77, 90
5, 180059, Note_on_c, 3, 77, 0
5, 180060, Note_on_c, 3, 77, 90
5, 180119, Note_on_c, 3, 77, 0
5, 180840, Note_on_c, 3, 77, 90
5, 180869, Note_on_c, 3, 77, 0
5, 180870, Note_on_c, 3, 76, 90
5, 180899, Note_on_c, 3, 76, 0
5, 180900, Note_on_c, 3, 77, 90
5, 180959, Note_on_c, 3, 77, 0
5, 180960, Note_on_c, 3, 81, 90
5, 180989, Note_on_c, 3, 81, 0
5, 180990, Note_on_c, 3, 79, 90
5, 181019, Note_on_c, 3, 79, 0
5, 181020, Note_on_c, 3, 81, 90
5, 181079, Note_on_c, 3, 81, 0
5, 181080, Note_on_c, 3, 74, 90
5, 181139, Note_on_c, 3, 74, 0
5, 181140, Note_on_c, 3, 74, 90
5, 181199, Note_on_c, 3, 74, 0
5, 181200, Note_on_c, 3, 79, 90
5, 181229, Note_on_c, 3, 79, 0
5, 181230, Note_on_c, 3, 77, 90
5, 181259, Note_on_c, 3, 77, 0
5, 181260, Note_on_c, 3, 79, 90
5, 181319, Note_on_c, 3, 79, 0
5, 181320, Note_on_c, 3, 76, 90
5, 181379, Note_on_c, 3, 76, 0
5, 181380, Note_on_c, 3, 76, 90
5, 181439, Note_on_c, 3, 76, 0
5, 181440, Note_on_c, 3, 77, 90
5, 181499, Note_on_c, 3, 77, 0
5, 181500, Note_on_c, 3, 77, 90
5, 181559, Note_on_c, 3, 77, 0
5, 181560, Note_on_c, 3, 72, 90
5, 181619, Note_on_c, 3, 72, 0
5, 181620, Note_on_c, 3, 70, 90
5, 181739, Note_on_c, 3, 70, 0
5, 181740, Note_on_c, 3, 69, 90
5, 181859, Note_on_c, 3, 69, 0
5, 181860, Note_on_c, 3, 67, 90
5, 182099, Note_on_c, 3, 67, 0
5, 182100, Note_on_c, 3, 65, 90
5, 182219, Note_on_c, 3, 65, 0
5, 182220, Note_on_c, 3, 70, 90
5, 182339, Note_on_c, 3, 70, 0
5, 182340, Note_on_c, 3, 72, 90
5, 182519, Note_on_c, 3, 72, 0
5, 182520, Note_on_c, 3, 74, 90
5, 182549, Note_on_c, 3, 74, 0
5, 182550, Note_on_c, 3, 75, 90
5, 182579, Note_on_c, 3, 75, 0
5, 182580, Note_on_c, 3, 74, 90
5, 182939, Note_on_c, 3, 74, 0
5, 182940, Note_on_c, 3, 72, 90
5, 182999, Note_on_c, 3, 72, 0
5, 183000, Note_on_c, 3, 72, 90
5, 183029, Note_on_c, 3, 72, 0
5, 183030, Note_on_c, 3, 70, 90
5, 183059, Note_on_c, 3, 70, 0
5, 183060, Note_on_c, 3, 72, 90
5, 183119, Note_on_c, 3, 72, 0
5, 183120, Note_on_c, 3, 74, 90
5, 183179, Note_on_c, 3, 74, 0
5, 183180, Note_on_c, 3, 74, 90
5, 183239, Note_on_c, 3, 74, 0
5, 183240, Note_on_c, 3, 70, 90
5, 183299, Note_on_c, 3, 70, 0
5, 183300, Note_on_c, 3, 72, 90
5, 183359, Note_on_c, 3, 72, 0
5, 183360, Note_on_c, 3, 69, 90
5, 183419, Note_on_c, 3, 69, 0
5, 183420, Note_on_c, 3, 69, 90
5, 183479, Note_on_c, 3, 69, 0
5, 183480, Note_on_c, 3, 70, 90
5, 183539, Note_on_c, 3, 70, 0
5, 183540, Note_on_c, 3, 70, 90
5, 183599, Note_on_c, 3, 70, 0
5, 183600, Note_on_c, 3, 67, 90
5, 183659, Note_on_c, 3, 67, 0
5, 183660, Note_on_c, 3, 69, 90
5, 183719, Note_on_c, 3, 69, 0
5, 183720, Note_on_c, 3, 72, 90
5, 183749, Note_on_c, 3, 72, 0
5, 183750, Note_on_c, 3, 70, 90
5, 183779, Note_on_c, 3, 70, 0
5, 183780, Note_on_c, 3, 69, 90
5, 183839, Note_on_c, 3, 69, 0
5, 183840, Note_on_c, 3, 72, 90
5, 183899, Note_on_c, 3, 72, 0
5, 183900, Note_on_c, 3, 77, 90
5, 184079, Note_on_c, 3, 77, 0
5, 184080, Note_on_c, 3, 76, 90
5, 184109, Note_on_c, 3, 76, 0
5, 184110, Note_on_c, 3, 74, 90
5, 184139, Note_on_c, 3, 74, 0
5, 184140, Note_on_c, 3, 73, 90
5, 184319, Note_on_c, 3, 73, 0
5, 184320, Note_on_c, 3, 74, 90
5, 184379, Note_on_c, 3, 74, 0
5, 184380, Note_on_c, 3, 74, 90
5, 184439, Note_on_c, 3, 74, 0
5, 184440, Note_on_c, 3, 69, 90
5, 184499, Note_on_c, 3, 69, 0
5, 184500, Note_on_c, 3, 70, 90
5, 184739, Note_on_c, 3, 70, 0
5, 184740, Note_on_c, 3, 72, 90
5, 184979, Note_on_c, 3, 72, 0
5, 184980, Note_on_c, 3, 65, 90
5, 185099, Note_on_c, 3, 65, 0
5, 185100, Note_on_c, 3, 70, 90
5, 185219, Note_on_c, 3, 70, 0
5, 185220, Note_on_c, 3, 69, 90
5, 185459, Note_on_c, 3, 69, 0
5, 185460, Note_on_c, 3, 67, 90
5, 185579, Note_on_c, 3, 67, 0
5, 185640, Note_on_c, 3, 76, 90
5, 185669, Note_on_c, 3, 76, 0
5, 185670, Note_on_c, 3, 74, 90
5, 185699, Note_on_c, 3, 74, 0
5, 185700, Note_on_c, 3, 76, 90
5, 185759, Note_on_c, 3, 76, 0
5, 185760, Note_on_c, 3, 77, 90
5, 185819, Note_on_c, 3, 77, 0
5, 185820, Note_on_c, 3, 77, 90
5, 185879, Note_on_c, 3, 77, 0
5, 186000, Note_on_c, 3, 66, 90
5, 186029, Note_on_c, 3, 66, 0
5, 186030, Note_on_c, 3, 64, 90
5, 186059, Note_on_c, 3, 64, 0
5, 186060, Note_on_c, 3, 66, 90
5, 186119, Note_on_c, 3, 66, 0
5, 186120, Note_on_c, 3, 67, 90
5, 186179, Note_on_c, 3, 67, 0
5, 186180, Note_on_c, 3, 67, 90
5, 186239, Note_on_c, 3, 67, 0
5, 186240, Note_on_c, 3, 71, 90
5, 186269, Note_on_c, 3, 71, 0
5, 186270, Note_on_c, 3, 69, 90
5, 186299, Note_on_c, 3, 69, 0
5, 186300, Note_on_c, 3, 71, 90
5, 186359, Note_on_c, 3, 71, 0
5, 186360, Note_on_c, 3, 74, 90
5, 186419, Note_on_c, 3, 74, 0
5, 186420, Note_on_c, 3, 74, 90
5, 186479, Note_on_c, 3, 74, 0
5, 186480, Note_on_c, 3, 72, 90
5, 186539, Note_on_c, 3, 72, 0
5, 186540, Note_on_c, 3, 72, 90
5, 186659, Note_on_c, 3, 72, 0
5, 186720, Note_on_c, 3, 72, 90
5, 186749, Note_on_c, 3, 72, 0
5, 186750, Note_on_c, 3, 71, 90
5, 186779, Note_on_c, 3, 71, 0
5, 186780, Note_on_c, 3, 72, 90
5, 186839, Note_on_c, 3, 72, 0
5, 186840, Note_on_c, 3, 72, 90
5, 186899, Note_on_c, 3, 72, 0
5, 186900, Note_on_c, 3, 72, 90
5, 186959, Note_on_c, 3, 72, 0
5, 186960, Note_on_c, 3, 67, 90
5, 187019, Note_on_c, 3, 67, 0
5, 187080, Note_on_c, 3, 67, 90
5, 187109, Note_on_c, 3, 67, 0
5, 187110, Note_on_c, 3, 65, 90
5, 187139, Note_on_c, 3, 65, 0
5, 187140, Note_on_c, 3, 67, 90
5, 187199, Note_on_c, 3, 67, 0
5, 187200, Note_on_c, 3, 67, 90
5, 187259, Note_on_c, 3, 67, 0
5, 187260, Note_on_c, 3, 67, 90
5, 187319, Note_on_c, 3, 67, 0
5, 187320, Note_on_c, 3, 64, 90
5, 187379, Note_on_c, 3, 64, 0
5, 187380, Note_on_c, 3, 72, 90
5, 187619, Note_on_c, 3, 72, 0
5, 187620, Note_on_c, 3, 69, 90
5, 187859, Note_on_c, 3, 69, 0
5, 187860, Note_on_c, 3, 74, 90
5, 187979, Note_on_c, 3, 74, 0
5, 187980, Note_on_c, 3, 73, 90
5, 188099, Note_on_c, 3, 73, 0
5, 188100, Note_on_c, 3, 74, 90
5, 188279, Note_on_c, 3, 74, 0
5, 188280, Note_on_c, 3, 76, 90
5, 188309, Note_on_c, 3, 76, 0
5, 188310, Note_on_c, 3, 77, 90
5, 188339, Note_on_c, 3, 77, 0
5, 188340, Note_on_c, 3, 76, 90
5, 188699, Note_on_c, 3, 76, 0
5, 188700, Note_on_c, 3, 69, 90
5, 188759, Note_on_c, 3, 69, 0
5, 188760, Note_on_c, 3, 77, 90
5, 188789, Note_on_c, 3, 77, 0
5, 188790, Note_on_c, 3, 76, 90
5, 188819, Note_on_c, 3, 76, 0
5, 188820, Note_on_c, 3, 77, 90
5, 188879, Note_on_c, 3, 77, 0
5, 188880, Note_on_c, 3, 79, 90
5, 188939, Note_on_c, 3, 79, 0
5, 188940, Note_on_c, 3, 79, 90
5, 188999, Note_on_c, 3, 79, 0
5, 189000, Note_on_c, 3, 76, 90
5, 189059, Note_on_c, 3, 76, 0
5, 189060, Note_on_c, 3, 77, 90
5, 189119, Note_on_c, 3, 77, 0
5, 189120, Note_on_c, 3, 74, 90
5, 189179, Note_on_c, 3, 74, 0
5, 189240, Note_on_c, 3, 73, 90
5, 189269, Note_on_c, 3, 73, 0
5, 189270, Note_on_c, 3, 71, 90
5, 189299, Note_on_c, 3, 71, 0
5, 189300, Note_on_c, 3, 73, 90
5, 189359, Note_on_c, 3, 73, 0
5, 189360, Note_on_c, 3, 76, 90
5, 189419, Note_on_c, 3, 76, 0
5, 189420, Note_on_c, 3, 74, 90
5, 189479, Note_on_c, 3, 74, 0
5, 189480, Note_on_c, 3, 74, 90
5, 189509, Note_on_c, 3, 74, 0
5, 189510, Note_on_c, 3, 72, 90
5, 189539, Note_on_c, 3, 72, 0
5, 189540, Note_on_c, 3, 74, 90
5, 189599, Note_on_c, 3, 74, 0
5, 189600, Note_on_c, 3, 77, 90
5, 189629, Note_on_c, 3, 77, 0
5, 189630, Note_on_c, 3, 75, 90
5, 189659, Note_on_c, 3, 75, 0
5, 189660, Note_on_c, 3, 77, 90
5, 189719, Note_on_c, 3, 77, 0
5, 189720, Note_on_c, 3, 70, 90
5, 189779, Note_on_c, 3, 70, 0
5, 189780, Note_on_c, 3, 70, 90
5, 189839, Note_on_c, 3, 70, 0
5, 189840, Note_on_c, 3, 75, 90
5, 189869, Note_on_c, 3, 75, 0
5, 189870, Note_on_c, 3, 74, 90
5, 189899, Note_on_c, 3, 74, 0
5, 189900, Note_on_c, 3, 75, 90
5, 189959, Note_on_c, 3, 75, 0
5, 189960, Note_on_c, 3, 72, 90
5, 190019, Note_on_c, 3, 72, 0
5, 190020, Note_on_c, 3, 72, 90
5, 190079, Note_on_c, 3, 72, 0
5, 190080, Note_on_c, 3, 74, 90
5, 190139, Note_on_c, 3, 74, 0
5, 190140, Note_on_c, 3, 74, 90
5, 190259, Note_on_c, 3, 74, 0
5, 190260, Note_on_c, 3, 76, 90
5, 190379, Note_on_c, 3, 76, 0
5, 190380, Note_on_c, 3, 77, 90
5, 190499, Note_on_c, 3, 77, 0
5, 190500, Note_on_c, 3, 79, 90
5, 190619, Note_on_c, 3, 79, 0
5, 190620, Note_on_c, 3, 72, 90
5, 190739, Note_on_c, 3, 72, 0
5, 190740, Note_on_c, 3, 70, 90
5, 190859, Note_on_c, 3, 70, 0
5, 190860, Note_on_c, 3, 69, 90
5, 190979, Note_on_c, 3, 69, 0
5, 190980, Note_on_c, 3, 74, 90
5, 191099, Note_on_c, 3, 74, 0
5, 191100, Note_on_c, 3, 70, 90
5, 191219, Note_on_c, 3, 70, 0
5, 191220, Note_on_c, 3, 67, 90
5, 191579, Note_on_c, 3, 67, 0
5, 191580, Note_on_c, 3, 65, 90
5, 191819, Note_on_c, 3, 65, 0
5, 192360, Note_on_c, 3, 77, 90
5, 192389, Note_on_c, 3, 77, 0
5, 192390, Note_on_c, 3, 76, 90
5, 192419, Note_on_c, 3, 76, 0
5, 192420, Note_on_c, 3, 77, 90
5, 192479, Note_on_c, 3, 77, 0
5, 192480, Note_on_c, 3, 81, 90
5, 192509, Note_on_c, 3, 81, 0
5, 192510, Note_on_c, 3, 79, 90
5, 192539, Note_on_c, 3, 79, 0
5, 192540, Note_on_c, 3, 81, 90
5, 192599, Note_on_c, 3, 81, 0
5, 192600, Note_on_c, 3, 74, 90
5, 192659, Note_on_c, 3, 74, 0
5, 192660, Note_on_c, 3, 74, 90
5, 192719, Note_on_c, 3, 74, 0
5, 192720, Note_on_c, 3, 79, 90
5, 192749, Note_on_c, 3, 79, 0
5, 192750, Note_on_c, 3, 77, 90
5, 192779, Note_on_c, 3, 77, 0
5, 192780, Note_on_c, 3, 79, 90
5, 192839, Note_on_c, 3, 79, 0
5, 192840, Note_on_c, 3, 76, 90
5, 192899, Note_on_c, 3, 76, 0
5, 192900, Note_on_c, 3, 76, 90
5, 192959, Note_on_c, 3, 76, 0
5, 192960, Note_on_c, 3, 77, 90
5, 193019, Note_on_c, 3, 77, 0
5, 193020, Note_on_c, 3, 77, 90
5, 193139, Note_on_c, 3, 77, 0
5, 193139, End_track
6, 0, Start_track
6, 0, MIDI_port, 0
6, 0, Title_t, "Violin I Solo/Tutti"
6, 0, Program_c, 4, 48
6, 0, Control_c, 4, 7, 127
6, 0, Control_c, 4, 10, 49
6, 0, Note_on_c, 4, 69, 90
6, 119, Note_on_c, 4, 69, 0
6, 120, Note_on_c, 4, 70, 90
6, 179, Note_on_c, 4, 70, 0
6, 180, Note_on_c, 4, 67, 90
6, 195, Note_on_c, 4, 67, 0
6, 195, Note_on_c, 4, 69, 90
6, 210, Note_on_c, 4, 69, 0
6, 210, Note_on_c, 4, 67, 90
6, 220, Note_on_c, 4, 67, 0
6, 220, Note_on_c, 4, 69, 90
6, 230, Note_on_c, 4, 69, 0
6, 230, Note_on_c, 4, 67, 90
6, 240, Note_on_c, 4, 67, 0
6, 240, Note_on_c, 4, 69, 90
6, 250, Note_on_c, 4, 69, 0
6, 250, Note_on_c, 4, 67, 90
6, 260, Note_on_c, 4, 67, 0
6, 260, Note_on_c, 4, 69, 90
6, 270, Note_on_c, 4, 69, 0
6, 270, Note_on_c, 4, 67, 90
6, 280, Note_on_c, 4, 67, 0
6, 280, Note_on_c, 4, 69, 90
6, 290, Note_on_c, 4, 69, 0
6, 290, Note_on_c, 4, 67, 90
6, 300, Note_on_c, 4, 67, 0
6, 300, Note_on_c, 4, 65, 90
6, 359, Note_on_c, 4, 65, 0
6, 360, Note_on_c, 4, 69, 90
6, 419, Note_on_c, 4, 69, 0
6, 420, Note_on_c, 4, 70, 90
6, 479, Note_on_c, 4, 70, 0
6, 480, Note_on_c, 4, 72, 90
6, 539, Note_on_c, 4, 72, 0
6, 540, Note_on_c, 4, 74, 90
6, 569, Note_on_c, 4, 74, 0
6, 600, Note_on_c, 4, 72, 90
6, 629, Note_on_c, 4, 72, 0
6, 720, Note_on_c, 4, 74, 90
6, 749, Note_on_c, 4, 74, 0
6, 750, Note_on_c, 4, 76, 90
6, 779, Note_on_c, 4, 76, 0
6, 780, Note_on_c, 4, 77, 90
6, 794, Note_on_c, 4, 77, 0
6, 795, Note_on_c, 4, 76, 90
6, 809, Note_on_c, 4, 76, 0
6, 810, Note_on_c, 4, 77, 90
6, 820, Note_on_c, 4, 77, 0
6, 820, Note_on_c, 4, 76, 90
6, 830, Note_on_c, 4, 76, 0
6, 830, Note_on_c, 4, 77, 90
6, 840, Note_on_c, 4, 77, 0
6, 840, Note_on_c, 4, 76, 90
6, 850, Note_on_c, 4, 76, 0
6, 850, Note_on_c, 4, 77, 90
6, 860, Note_on_c, 4, 77, 0
6, 860, Note_on_c, 4, 76, 90
6, 870, Note_on_c, 4, 76, 0
6, 870, Note_on_c, 4, 74, 90
6, 884, Note_on_c, 4, 74, 0
6, 885, Note_on_c, 4, 76, 90
6, 899, Note_on_c, 4, 76, 0
6, 900, Note_on_c, 4, 77, 90
6, 959, Note_on_c, 4, 77, 0
6, 960, Note_on_c, 4, 76, 90
6, 989, Note_on_c, 4, 76, 0
6, 990, Note_on_c, 4, 74, 90
6, 1019, Note_on_c, 4, 74, 0
6, 1020, Note_on_c, 4, 72, 90
6, 1049, Note_on_c, 4, 72, 0
6, 1050, Note_on_c, 4, 70, 90
6, 1079, Note_on_c, 4, 70, 0
6, 1080, Note_on_c, 4, 69, 90
6, 1139, Note_on_c, 4, 69, 0
6, 1140, Note_on_c, 4, 74, 90
6, 1199, Note_on_c, 4, 74, 0
6, 1200, Note_on_c, 4, 70, 90
6, 1259, Note_on_c, 4, 70, 0
6, 1260, Note_on_c, 4, 69, 90
6, 1319, Note_on_c, 4, 69, 0
6, 1320, Note_on_c, 4, 67, 90
6, 1439, Note_on_c, 4, 67, 0
6, 1440, Note_on_c, 4, 60, 90
6, 1487, Note_on_c, 4, 60, 0
6, 1500, Note_on_c, 4, 60, 90
6, 1547, Note_on_c, 4, 60, 0
6, 1560, Note_on_c, 4, 60, 90
6, 1607, Note_on_c, 4, 60, 0
6, 1620, Note_on_c, 4, 60, 90
6, 1667, Note_on_c, 4, 60, 0
6, 1680, Note_on_c, 4, 60, 90
6, 1727, Note_on_c, 4, 60, 0
6, 1740, Note_on_c, 4, 60, 90
6, 1787, Note_on_c, 4, 60, 0
6, 1800, Note_on_c, 4, 76, 90
6, 1859, Note_on_c, 4, 76, 0
6, 1860, Note_on_c, 4, 77, 90
6, 1919, Note_on_c, 4, 77, 0
6, 1920, Note_on_c, 4, 79, 90
6, 1979, Note_on_c, 4, 79, 0
6, 1980, Note_on_c, 4, 81, 90
6, 2039, Note_on_c, 4, 81, 0
6, 2040, Note_on_c, 4, 79, 90
6, 2069, Note_on_c, 4, 79, 0
6, 2070, Note_on_c, 4, 81, 90
6, 2099, Note_on_c, 4, 81, 0
6, 2100, Note_on_c, 4, 77, 90
6, 2159, Note_on_c, 4, 77, 0
6, 2520, Note_on_c, 4, 78, 90
6, 2579, Note_on_c, 4, 78, 0
6, 2580, Note_on_c, 4, 79, 90
6, 2639, Note_on_c, 4, 79, 0
6, 2640, Note_on_c, 4, 81, 90
6, 2699, Note_on_c, 4, 81, 0
6, 2700, Note_on_c, 4, 82, 90
6, 2759, Note_on_c, 4, 82, 0
6, 2760, Note_on_c, 4, 81, 90
6, 2789, Note_on_c, 4, 81, 0
6, 2790, Note_on_c, 4, 82, 90
6, 2819, Note_on_c, 4, 82, 0
6, 2820, Note_on_c, 4, 79, 90
6, 2879, Note_on_c, 4, 79, 0
6, 2880, Note_on_c, 4, 82, 90
6, 2939, Note_on_c, 4, 82, 0
6, 2940, Note_on_c, 4, 74, 90
6, 2969, Note_on_c, 4, 74, 0
6, 3000, Note_on_c, 4, 74, 90
6, 3029, Note_on_c, 4, 74, 0
6, 3060, Note_on_c, 4, 74, 90
6, 3119, Note_on_c, 4, 74, 0
6, 3120, Note_on_c, 4, 72, 90
6, 3149, Note_on_c, 4, 72, 0
6, 3150, Note_on_c, 4, 76, 90
6, 3179, Note_on_c, 4, 76, 0
6, 3180, Note_on_c, 4, 79, 90
6, 3209, Note_on_c, 4, 79, 0
6, 3210, Note_on_c, 4, 82, 90
6, 3239, Note_on_c, 4, 82, 0
6, 3240, Note_on_c, 4, 81, 90
6, 3299, Note_on_c, 4, 81, 0
6, 3300, Note_on_c, 4, 72, 90
6, 3329, Note_on_c, 4, 72, 0
6, 3360, Note_on_c, 4, 72, 90
6, 3389, Note_on_c, 4, 72, 0
6, 3420, Note_on_c, 4, 72, 90
6, 3479, Note_on_c, 4, 72, 0
6, 3480, Note_on_c, 4, 70, 90
6, 3509, Note_on_c, 4, 70, 0
6, 3510, Note_on_c, 4, 74, 90
6, 3539, Note_on_c, 4, 74, 0
6, 3540, Note_on_c, 4, 77, 90
6, 3569, Note_on_c, 4, 77, 0
6, 3570, Note_on_c, 4, 81, 90
6, 3599, Note_on_c, 4, 81, 0
6, 3600, Note_on_c, 4, 79, 90
6, 3659, Note_on_c, 4, 79, 0
6, 3660, Note_on_c, 4, 70, 90
6, 3689, Note_on_c, 4, 70, 0
6, 3720, Note_on_c, 4, 70, 90
6, 3749, Note_on_c, 4, 70, 0
6, 3780, Note_on_c, 4, 70, 90
6, 3839, Note_on_c, 4, 70, 0
6, 3840, Note_on_c, 4, 69, 90
6, 3869, Note_on_c, 4, 69, 0
6, 3870, Note_on_c, 4, 74, 90
6, 3899, Note_on_c, 4, 74, 0
6, 3900, Note_on_c, 4, 72, 90
6, 3929, Note_on_c, 4, 72, 0
6, 4020, Note_on_c, 4, 70, 90
6, 4049, Note_on_c, 4, 70, 0
6, 4050, Note_on_c, 4, 69, 90
6, 4079, Note_on_c, 4, 69, 0
6, 4080, Note_on_c, 4, 67, 90
6, 4109, Note_on_c, 4, 67, 0
6, 4110, Note_on_c, 4, 65, 90
6, 4139, Note_on_c, 4, 65, 0
6, 4140, Note_on_c, 4, 65, 90
6, 4319, Note_on_c, 4, 65, 0
6, 4680, Note_on_c, 4, 69, 90
6, 4739, Note_on_c, 4, 69, 0
6, 4740, Note_on_c, 4, 70, 90
6, 4799, Note_on_c, 4, 70, 0
6, 4800, Note_on_c, 4, 72, 90
6, 4859, Note_on_c, 4, 72, 0
6, 4860, Note_on_c, 4, 74, 90
6, 4889, Note_on_c, 4, 74, 0
6, 4920, Note_on_c, 4, 72, 90
6, 4949, Note_on_c, 4, 72, 0
6, 5040, Note_on_c, 4, 75, 90
6, 5070, Note_on_c, 4, 75, 0
6, 5400, Note_on_c, 4, 74, 90
6, 5430, Note_on_c, 4, 74, 0
6, 5760, Note_on_c, 4, 72, 90
6, 5790, Note_on_c, 4, 72, 0
6, 6120, Note_on_c, 4, 70, 90
6, 6150, Note_on_c, 4, 70, 0
6, 6480, Note_on_c, 4, 69, 90
6, 6600, Note_on_c, 4, 69, 0
6, 6600, Note_on_c, 4, 70, 90
6, 6659, Note_on_c, 4, 70, 0
6, 6660, Note_on_c, 4, 67, 90
6, 6780, Note_on_c, 4, 67, 0
6, 6780, Note_on_c, 4, 65, 90
6, 6839, Note_on_c, 4, 65, 0
6, 6840, Note_on_c, 4, 69, 90
6, 6899, Note_on_c, 4, 69, 0
6, 6900, Note_on_c, 4, 70, 90
6, 6959, Note_on_c, 4, 70, 0
6, 6960, Note_on_c, 4, 72, 90
6, 7019, Note_on_c, 4, 72, 0
6, 7020, Note_on_c, 4, 74, 90
6, 7049, Note_on_c, 4, 74, 0
6, 7080, Note_on_c, 4, 72, 90
6, 7109, Note_on_c, 4, 72, 0
6, 7200, Note_on_c, 4, 74, 90
6, 7229, Note_on_c, 4, 74, 0
6, 7230, Note_on_c, 4, 76, 90
6, 7259, Note_on_c, 4, 76, 0
6, 7260, Note_on_c, 4, 77, 90
6, 7274, Note_on_c, 4, 77, 0
6, 7275, Note_on_c, 4, 76, 90
6, 7289, Note_on_c, 4, 76, 0
6, 7290, Note_on_c, 4, 77, 90
6, 7304, Note_on_c, 4, 77, 0
6, 7305, Note_on_c, 4, 76, 90
6, 7319, Note_on_c, 4, 76, 0
6, 7320, Note_on_c, 4, 77, 90
6, 7334, Note_on_c, 4, 77, 0
6, 7335, Note_on_c, 4, 76, 90
6, 7349, Note_on_c, 4, 76, 0
6, 7350, Note_on_c, 4, 74, 90
6, 7364, Note_on_c, 4, 74, 0
6, 7365, Note_on_c, 4, 76, 90
6, 7379, Note_on_c, 4, 76, 0
6, 7380, Note_on_c, 4, 77, 90
6, 7439, Note_on_c, 4, 77, 0
6, 7440, Note_on_c, 4, 76, 90
6, 7469, Note_on_c, 4, 76, 0
6, 7470, Note_on_c, 4, 74, 90
6, 7499, Note_on_c, 4, 74, 0
6, 7500, Note_on_c, 4, 72, 90
6, 7529, Note_on_c, 4, 72, 0
6, 7530, Note_on_c, 4, 70, 90
6, 7559, Note_on_c, 4, 70, 0
6, 7560, Note_on_c, 4, 69, 90
6, 7619, Note_on_c, 4, 69, 0
6, 7620, Note_on_c, 4, 74, 90
6, 7679, Note_on_c, 4, 74, 0
6, 7680, Note_on_c, 4, 70, 90
6, 7739, Note_on_c, 4, 70, 0
6, 7740, Note_on_c, 4, 69, 90
6, 7799, Note_on_c, 4, 69, 0
6, 7800, Note_on_c, 4, 67, 90
6, 7919, Note_on_c, 4, 67, 0
6, 8280, Note_on_c, 4, 76, 90
6, 8339, Note_on_c, 4, 76, 0
6, 8340, Note_on_c, 4, 77, 90
6, 8399, Note_on_c, 4, 77, 0
6, 8400, Note_on_c, 4, 79, 90
6, 8459, Note_on_c, 4, 79, 0
6, 8460, Note_on_c, 4, 81, 90
6, 8519, Note_on_c, 4, 81, 0
6, 8520, Note_on_c, 4, 79, 90
6, 8549, Note_on_c, 4, 79, 0
6, 8550, Note_on_c, 4, 81, 90
6, 8579, Note_on_c, 4, 81, 0
6, 8580, Note_on_c, 4, 77, 90
6, 8639, Note_on_c, 4, 77, 0
6, 8640, Note_on_c, 4, 69, 90
6, 8669, Note_on_c, 4, 69, 0
6, 8670, Note_on_c, 4, 67, 90
6, 8699, Note_on_c, 4, 67, 0
6, 8700, Note_on_c, 4, 69, 90
6, 8729, Note_on_c, 4, 69, 0
6, 8730, Note_on_c, 4, 65, 90
6, 8759, Note_on_c, 4, 65, 0
6, 8760, Note_on_c, 4, 70, 90
6, 8789, Note_on_c, 4, 70, 0
6, 8790, Note_on_c, 4, 65, 90
6, 8819, Note_on_c, 4, 65, 0
6, 8820, Note_on_c, 4, 72, 90
6, 8849, Note_on_c, 4, 72, 0
6, 8850, Note_on_c, 4, 70, 90
6, 8879, Note_on_c, 4, 70, 0
6, 8880, Note_on_c, 4, 72, 90
6, 8909, Note_on_c, 4, 72, 0
6, 8910, Note_on_c, 4, 65, 90
6, 8939, Note_on_c, 4, 65, 0
6, 8940, Note_on_c, 4, 74, 90
6, 8969, Note_on_c, 4, 74, 0
6, 8970, Note_on_c, 4, 70, 90
6, 8999, Note_on_c, 4, 70, 0
6, 9000, Note_on_c, 4, 72, 90
6, 9059, Note_on_c, 4, 72, 0
6, 9060, Note_on_c, 4, 74, 90
6, 9119, Note_on_c, 4, 74, 0
6, 9120, Note_on_c, 4, 75, 90
6, 9179, Note_on_c, 4, 75, 0
6, 9180, Note_on_c, 4, 77, 90
6, 9239, Note_on_c, 4, 77, 0
6, 9240, Note_on_c, 4, 75, 90
6, 9269, Note_on_c, 4, 75, 0
6, 9270, Note_on_c, 4, 77, 90
6, 9299, Note_on_c, 4, 77, 0
6, 9300, Note_on_c, 4, 74, 90
6, 9359, Note_on_c, 4, 74, 0
6, 9360, Note_on_c, 4, 74, 90
6, 9419, Note_on_c, 4, 74, 0
6, 9420, Note_on_c, 4, 65, 90
6, 9479, Note_on_c, 4, 65, 0
6, 9480, Note_on_c, 4, 65, 90
6, 9539, Note_on_c, 4, 65, 0
6, 9540, Note_on_c, 4, 65, 90
6, 9599, Note_on_c, 4, 65, 0
6, 9600, Note_on_c, 4, 64, 90
6, 9629, Note_on_c, 4, 64, 0
6, 9630, Note_on_c, 4, 67, 90
6, 9659, Note_on_c, 4, 67, 0
6, 9660, Note_on_c, 4, 70, 90
6, 9689, Note_on_c, 4, 70, 0
6, 9690, Note_on_c, 4, 74, 90
6, 9719, Note_on_c, 4, 74, 0
6, 9720, Note_on_c, 4, 72, 90
6, 9779, Note_on_c, 4, 72, 0
6, 9780, Note_on_c, 4, 64, 90
6, 9839, Note_on_c, 4, 64, 0
6, 9840, Note_on_c, 4, 64, 90
6, 9899, Note_on_c, 4, 64, 0
6, 9900, Note_on_c, 4, 64, 90
6, 9959, Note_on_c, 4, 64, 0
6, 9960, Note_on_c, 4, 62, 90
6, 9989, Note_on_c, 4, 62, 0
6, 9990, Note_on_c, 4, 66, 90
6, 10019, Note_on_c, 4, 66, 0
6, 10020, Note_on_c, 4, 69, 90
6, 10049, Note_on_c, 4, 69, 0
6, 10050, Note_on_c, 4, 72, 90
6, 10079, Note_on_c, 4, 72, 0
6, 10080, Note_on_c, 4, 70, 90
6, 10139, Note_on_c, 4, 70, 0
6, 10140, Note_on_c, 4, 62, 90
6, 10199, Note_on_c, 4, 62, 0
6, 10200, Note_on_c, 4, 62, 90
6, 10259, Note_on_c, 4, 62, 0
6, 10260, Note_on_c, 4, 62, 90
6, 10319, Note_on_c, 4, 62, 0
6, 10320, Note_on_c, 4, 60, 90
6, 10349, Note_on_c, 4, 60, 0
6, 10350, Note_on_c, 4, 64, 90
6, 10379, Note_on_c, 4, 64, 0
6, 10380, Note_on_c, 4, 67, 90
6, 10409, Note_on_c, 4, 67, 0
6, 10410, Note_on_c, 4, 70, 90
6, 10439, Note_on_c, 4, 70, 0
6, 10440, Note_on_c, 4, 69, 90
6, 10499, Note_on_c, 4, 69, 0
6, 10500, Note_on_c, 4, 71, 90
6, 10559, Note_on_c, 4, 71, 0
6, 10560, Note_on_c, 4, 72, 90
6, 10619, Note_on_c, 4, 72, 0
6, 10620, Note_on_c, 4, 71, 90
6, 10635, Note_on_c, 4, 71, 0
6, 10635, Note_on_c, 4, 72, 90
6, 10650, Note_on_c, 4, 72, 0
6, 10650, Note_on_c, 4, 71, 90
6, 10679, Note_on_c, 4, 71, 0
6, 10680, Note_on_c, 4, 69, 90
6, 10709, Note_on_c, 4, 69, 0
6, 10710, Note_on_c, 4, 71, 90
6, 10739, Note_on_c, 4, 71, 0
6, 10740, Note_on_c, 4, 67, 90
6, 10799, Note_on_c, 4, 67, 0
6, 10800, Note_on_c, 4, 76, 90
6, 10919, Note_on_c, 4, 76, 0
6, 10920, Note_on_c, 4, 77, 90
6, 10979, Note_on_c, 4, 77, 0
6, 10980, Note_on_c, 4, 74, 90
6, 11099, Note_on_c, 4, 74, 0
6, 11100, Note_on_c, 4, 72, 90
6, 11159, Note_on_c, 4, 72, 0
6, 11160, Note_on_c, 4, 76, 90
6, 11219, Note_on_c, 4, 76, 0
6, 11220, Note_on_c, 4, 77, 90
6, 11279, Note_on_c, 4, 77, 0
6, 11280, Note_on_c, 4, 79, 90
6, 11339, Note_on_c, 4, 79, 0
6, 11340, Note_on_c, 4, 81, 90
6, 11369, Note_on_c, 4, 81, 0
6, 11400, Note_on_c, 4, 79, 90
6, 11429, Note_on_c, 4, 79, 0
6, 11520, Note_on_c, 4, 79, 90
6, 11550, Note_on_c, 4, 79, 0
6, 11880, Note_on_c, 4, 77, 90
6, 11910, Note_on_c, 4, 77, 0
6, 12240, Note_on_c, 4, 76, 90
6, 12270, Note_on_c, 4, 76, 0
6, 12600, Note_on_c, 4, 74, 90
6, 12630, Note_on_c, 4, 74, 0
6, 12960, Note_on_c, 4, 76, 90
6, 13079, Note_on_c, 4, 76, 0
6, 13080, Note_on_c, 4, 77, 90
6, 13139, Note_on_c, 4, 77, 0
6, 13140, Note_on_c, 4, 74, 90
6, 13259, Note_on_c, 4, 74, 0
6, 13260, Note_on_c, 4, 72, 90
6, 13319, Note_on_c, 4, 72, 0
6, 13320, Note_on_c, 4, 76, 90
6, 13379, Note_on_c, 4, 76, 0
6, 13380, Note_on_c, 4, 77, 90
6, 13439, Note_on_c, 4, 77, 0
6, 13440, Note_on_c, 4, 79, 90
6, 13499, Note_on_c, 4, 79, 0
6, 13500, Note_on_c, 4, 81, 90
6, 13529, Note_on_c, 4, 81, 0
6, 13560, Note_on_c, 4, 79, 90
6, 13589, Note_on_c, 4, 79, 0
6, 13680, Note_on_c, 4, 81, 90
6, 13739, Note_on_c, 4, 81, 0
6, 13740, Note_on_c, 4, 83, 90
6, 13769, Note_on_c, 4, 83, 0
6, 13770, Note_on_c, 4, 84, 90
6, 13799, Note_on_c, 4, 84, 0
6, 13800, Note_on_c, 4, 86, 90
6, 13829, Note_on_c, 4, 86, 0
6, 13830, Note_on_c, 4, 83, 90
6, 13859, Note_on_c, 4, 83, 0
6, 13860, Note_on_c, 4, 79, 90
6, 13919, Note_on_c, 4, 79, 0
6, 13920, Note_on_c, 4, 84, 90
6, 13979, Note_on_c, 4, 84, 0
6, 13980, Note_on_c, 4, 77, 90
6, 14039, Note_on_c, 4, 77, 0
6, 14040, Note_on_c, 4, 76, 90
6, 14099, Note_on_c, 4, 76, 0
6, 14100, Note_on_c, 4, 77, 90
6, 14159, Note_on_c, 4, 77, 0
6, 14160, Note_on_c, 4, 74, 90
6, 14219, Note_on_c, 4, 74, 0
6, 14220, Note_on_c, 4, 72, 90
6, 14339, Note_on_c, 4, 72, 0
6, 14400, Note_on_c, 4, 55, 90
6, 14447, Note_on_c, 4, 55, 0
6, 14460, Note_on_c, 4, 55, 90
6, 14507, Note_on_c, 4, 55, 0
6, 14520, Note_on_c, 4, 55, 90
6, 14567, Note_on_c, 4, 55, 0
6, 14580, Note_on_c, 4, 55, 90
6, 14627, Note_on_c, 4, 55, 0
6, 14640, Note_on_c, 4, 55, 90
6, 14687, Note_on_c, 4, 55, 0
6, 14700, Note_on_c, 4, 55, 90
6, 14747, Note_on_c, 4, 55, 0
6, 14760, Note_on_c, 4, 71, 90
6, 14819, Note_on_c, 4, 71, 0
6, 14820, Note_on_c, 4, 72, 90
6, 14879, Note_on_c, 4, 72, 0
6, 14880, Note_on_c, 4, 74, 90
6, 14939, Note_on_c, 4, 74, 0
6, 14940, Note_on_c, 4, 76, 90
6, 14999, Note_on_c, 4, 76, 0
6, 15000, Note_on_c, 4, 74, 90
6, 15029, Note_on_c, 4, 74, 0
6, 15030, Note_on_c, 4, 76, 90
6, 15059, Note_on_c, 4, 76, 0
6, 15060, Note_on_c, 4, 72, 90
6, 15119, Note_on_c, 4, 72, 0
6, 15480, Note_on_c, 4, 73, 90
6, 15539, Note_on_c, 4, 73, 0
6, 15540, Note_on_c, 4, 74, 90
6, 15599, Note_on_c, 4, 74, 0
6, 15600, Note_on_c, 4, 76, 90
6, 15659, Note_on_c, 4, 76, 0
6, 15660, Note_on_c, 4, 77, 90
6, 15719, Note_on_c, 4, 77, 0
6, 15720, Note_on_c, 4, 76, 90
6, 15749, Note_on_c, 4, 76, 0
6, 15750, Note_on_c, 4, 77, 90
6, 15779, Note_on_c, 4, 77, 0
6, 15780, Note_on_c, 4, 74, 90
6, 15839, Note_on_c, 4, 74, 0
6, 15840, Note_on_c, 4, 77, 90
6, 15899, Note_on_c, 4, 77, 0
6, 15900, Note_on_c, 4, 69, 90
6, 15959, Note_on_c, 4, 69, 0
6, 15960, Note_on_c, 4, 69, 90
6, 16019, Note_on_c, 4, 69, 0
6, 16020, Note_on_c, 4, 69, 90
6, 16079, Note_on_c, 4, 69, 0
6, 16080, Note_on_c, 4, 67, 90
6, 16109, Note_on_c, 4, 67, 0
6, 16110, Note_on_c, 4, 71, 90
6, 16139, Note_on_c, 4, 71, 0
6, 16140, Note_on_c, 4, 74, 90
6, 16169, Note_on_c, 4, 74, 0
6, 16170, Note_on_c, 4, 77, 90
6, 16199, Note_on_c, 4, 77, 0
6, 16200, Note_on_c, 4, 76, 90
6, 16259, Note_on_c, 4, 76, 0
6, 16260, Note_on_c, 4, 67, 90
6, 16319, Note_on_c, 4, 67, 0
6, 16320, Note_on_c, 4, 67, 90
6, 16379, Note_on_c, 4, 67, 0
6, 16380, Note_on_c, 4, 67, 90
6, 16439, Note_on_c, 4, 67, 0
6, 16440, Note_on_c, 4, 65, 90
6, 16469, Note_on_c, 4, 65, 0
6, 16470, Note_on_c, 4, 69, 90
6, 16499, Note_on_c, 4, 69, 0
6, 16500, Note_on_c, 4, 72, 90
6, 16529, Note_on_c, 4, 72, 0
6, 16530, Note_on_c, 4, 76, 90
6, 16559, Note_on_c, 4, 76, 0
6, 16560, Note_on_c, 4, 74, 90
6, 16619, Note_on_c, 4, 74, 0
6, 16620, Note_on_c, 4, 65, 90
6, 16679, Note_on_c, 4, 65, 0
6, 16680, Note_on_c, 4, 65, 90
6, 16739, Note_on_c, 4, 65, 0
6, 16740, Note_on_c, 4, 65, 90
6, 16799, Note_on_c, 4, 65, 0
6, 16800, Note_on_c, 4, 64, 90
6, 16829, Note_on_c, 4, 64, 0
6, 16830, Note_on_c, 4, 81, 90
6, 16859, Note_on_c, 4, 81, 0
6, 16860, Note_on_c, 4, 79, 90
6, 16889, Note_on_c, 4, 79, 0
6, 16980, Note_on_c, 4, 77, 90
6, 17009, Note_on_c, 4, 77, 0
6, 17010, Note_on_c, 4, 76, 90
6, 17039, Note_on_c, 4, 76, 0
6, 17040, Note_on_c, 4, 74, 90
6, 17069, Note_on_c, 4, 74, 0
6, 17070, Note_on_c, 4, 72, 90
6, 17099, Note_on_c, 4, 72, 0
6, 17100, Note_on_c, 4, 72, 90
6, 17129, Note_on_c, 4, 72, 0
6, 17130, Note_on_c, 4, 67, 90
6, 17159, Note_on_c, 4, 67, 0
6, 17160, Note_on_c, 4, 69, 90
6, 17189, Note_on_c, 4, 69, 0
6, 17190, Note_on_c, 4, 71, 90
6, 17219, Note_on_c, 4, 71, 0
6, 17220, Note_on_c, 4, 72, 90
6, 17249, Note_on_c, 4, 72, 0
6, 17250, Note_on_c, 4, 74, 90
6, 17279, Note_on_c, 4, 74, 0
6, 17280, Note_on_c, 4, 76, 90
6, 17309, Note_on_c, 4, 76, 0
6, 17310, Note_on_c, 4, 78, 90
6, 17339, Note_on_c, 4, 78, 0
6, 17340, Note_on_c, 4, 79, 90
6, 17354, Note_on_c, 4, 79, 0
6, 17355, Note_on_c, 4, 78, 90
6, 17369, Note_on_c, 4, 78, 0
6, 17370, Note_on_c, 4, 79, 90
6, 17380, Note_on_c, 4, 79, 0
6, 17380, Note_on_c, 4, 78, 90
6, 17390, Note_on_c, 4, 78, 0
6, 17390, Note_on_c, 4, 79, 90
6, 17400, Note_on_c, 4, 79, 0
6, 17400, Note_on_c, 4, 78, 90
6, 17410, Note_on_c, 4, 78, 0
6, 17410, Note_on_c, 4, 79, 90
6, 17420, Note_on_c, 4, 79, 0
6, 17420, Note_on_c, 4, 78, 90
6, 17430, Note_on_c, 4, 78, 0
6, 17430, Note_on_c, 4, 76, 90
6, 17444, Note_on_c, 4, 76, 0
6, 17445, Note_on_c, 4, 78, 90
6, 17459, Note_on_c, 4, 78, 0
6, 17460, Note_on_c, 4, 79, 90
6, 17639, Note_on_c, 4, 79, 0
6, 18000, Note_on_c, 4, 69, 90
6, 18059, Note_on_c, 4, 69, 0
6, 18060, Note_on_c, 4, 74, 90
6, 18119, Note_on_c, 4, 74, 0
6, 18120, Note_on_c, 4, 73, 90
6, 18179, Note_on_c, 4, 73, 0
6, 18180, Note_on_c, 4, 74, 90
6, 18239, Note_on_c, 4, 74, 0
6, 18240, Note_on_c, 4, 76, 90
6, 18299, Note_on_c, 4, 76, 0
6, 18300, Note_on_c, 4, 77, 90
6, 18359, Note_on_c, 4, 77, 0
6, 18360, Note_on_c, 4, 76, 90
6, 18419, Note_on_c, 4, 76, 0
6, 18420, Note_on_c, 4, 79, 90
6, 18449, Note_on_c, 4, 79, 0
6, 18450, Note_on_c, 4, 77, 90
6, 18479, Note_on_c, 4, 77, 0
6, 18480, Note_on_c, 4, 76, 90
6, 18509, Note_on_c, 4, 76, 0
6, 18510, Note_on_c, 4, 74, 90
6, 18539, Note_on_c, 4, 74, 0
6, 18540, Note_on_c, 4, 73, 90
6, 18569, Note_on_c, 4, 73, 0
6, 18570, Note_on_c, 4, 71, 90
6, 18599, Note_on_c, 4, 71, 0
6, 18600, Note_on_c, 4, 74, 90
6, 18629, Note_on_c, 4, 74, 0
6, 18630, Note_on_c, 4, 73, 90
6, 18659, Note_on_c, 4, 73, 0
6, 18660, Note_on_c, 4, 71, 90
6, 18689, Note_on_c, 4, 71, 0
6, 18690, Note_on_c, 4, 69, 90
6, 18719, Note_on_c, 4, 69, 0
6, 18720, Note_on_c, 4, 74, 90
6, 18750, Note_on_c, 4, 74, 0
6, 18780, Note_on_c, 4, 81, 90
6, 18810, Note_on_c, 4, 81, 0
6, 18900, Note_on_c, 4, 81, 90
6, 18930, Note_on_c, 4, 81, 0
6, 18960, Note_on_c, 4, 77, 90
6, 18990, Note_on_c, 4, 77, 0
6, 19080, Note_on_c, 4, 62, 90
6, 19127, Note_on_c, 4, 62, 0
6, 19140, Note_on_c, 4, 62, 90
6, 19187, Note_on_c, 4, 62, 0
6, 19200, Note_on_c, 4, 62, 90
6, 19247, Note_on_c, 4, 62, 0
6, 19260, Note_on_c, 4, 62, 90
6, 19307, Note_on_c, 4, 62, 0
6, 19320, Note_on_c, 4, 62, 90
6, 19367, Note_on_c, 4, 62, 0
6, 19380, Note_on_c, 4, 62, 90
6, 19427, Note_on_c, 4, 62, 0
6, 19440, Note_on_c, 4, 72, 90
6, 19470, Note_on_c, 4, 72, 0
6, 19500, Note_on_c, 4, 79, 90
6, 19530, Note_on_c, 4, 79, 0
6, 19620, Note_on_c, 4, 79, 90
6, 19650, Note_on_c, 4, 79, 0
6, 19680, Note_on_c, 4, 76, 90
6, 19710, Note_on_c, 4, 76, 0
6, 19800, Note_on_c, 4, 60, 90
6, 19847, Note_on_c, 4, 60, 0
6, 19860, Note_on_c, 4, 60, 90
6, 19907, Note_on_c, 4, 60, 0
6, 19920, Note_on_c, 4, 60, 90
6, 19967, Note_on_c, 4, 60, 0
6, 19980, Note_on_c, 4, 60, 90
6, 20027, Note_on_c, 4, 60, 0
6, 20040, Note_on_c, 4, 60, 90
6, 20087, Note_on_c, 4, 60, 0
6, 20100, Note_on_c, 4, 60, 90
6, 20147, Note_on_c, 4, 60, 0
6, 20340, Note_on_c, 4, 67, 90
6, 20399, Note_on_c, 4, 67, 0
6, 20400, Note_on_c, 4, 65, 90
6, 20459, Note_on_c, 4, 65, 0
6, 20460, Note_on_c, 4, 67, 90
6, 20519, Note_on_c, 4, 67, 0
6, 20520, Note_on_c, 4, 76, 90
6, 20699, Note_on_c, 4, 76, 0
6, 20700, Note_on_c, 4, 69, 90
6, 20759, Note_on_c, 4, 69, 0
6, 20760, Note_on_c, 4, 74, 90
6, 20819, Note_on_c, 4, 74, 0
6, 20820, Note_on_c, 4, 77, 90
6, 20940, Note_on_c, 4, 77, 0
6, 20940, Note_on_c, 4, 76, 90
6, 20999, Note_on_c, 4, 76, 0
6, 21000, Note_on_c, 4, 74, 90
6, 21059, Note_on_c, 4, 74, 0
6, 21060, Note_on_c, 4, 73, 90
6, 21119, Note_on_c, 4, 73, 0
6, 21120, Note_on_c, 4, 69, 90
6, 21179, Note_on_c, 4, 69, 0
6, 21180, Note_on_c, 4, 74, 90
6, 21269, Note_on_c, 4, 74, 0
6, 21270, Note_on_c, 4, 76, 90
6, 21299, Note_on_c, 4, 76, 0
6, 21300, Note_on_c, 4, 77, 90
6, 21315, Note_on_c, 4, 77, 0
6, 21315, Note_on_c, 4, 76, 90
6, 21330, Note_on_c, 4, 76, 0
6, 21330, Note_on_c, 4, 77, 90
6, 21340, Note_on_c, 4, 77, 0
6, 21340, Note_on_c, 4, 76, 90
6, 21350, Note_on_c, 4, 76, 0
6, 21350, Note_on_c, 4, 77, 90
6, 21360, Note_on_c, 4, 77, 0
6, 21360, Note_on_c, 4, 76, 90
6, 21370, Note_on_c, 4, 76, 0
6, 21370, Note_on_c, 4, 77, 90
6, 21380, Note_on_c, 4, 77, 0
6, 21380, Note_on_c, 4, 76, 90
6, 21390, Note_on_c, 4, 76, 0
6, 21390, Note_on_c, 4, 74, 90
6, 21419, Note_on_c, 4, 74, 0
6, 21420, Note_on_c, 4, 74, 90
6, 21539, Note_on_c, 4, 74, 0
6, 21600, Note_on_c, 4, 73, 90
6, 21720, Note_on_c, 4, 73, 0
6, 21720, Note_on_c, 4, 76, 90
6, 21780, Note_on_c, 4, 76, 0
6, 21780, Note_on_c, 4, 67, 90
6, 21900, Note_on_c, 4, 67, 0
6, 21900, Note_on_c, 4, 65, 90
6, 21960, Note_on_c, 4, 65, 0
6, 21960, Note_on_c, 4, 75, 90
6, 22019, Note_on_c, 4, 75, 0
6, 22020, Note_on_c, 4, 74, 90
6, 22079, Note_on_c, 4, 74, 0
6, 22080, Note_on_c, 4, 72, 90
6, 22139, Note_on_c, 4, 72, 0
6, 22140, Note_on_c, 4, 70, 90
6, 22199, Note_on_c, 4, 70, 0
6, 22200, Note_on_c, 4, 69, 90
6, 22229, Note_on_c, 4, 69, 0
6, 22230, Note_on_c, 4, 70, 90
6, 22259, Note_on_c, 4, 70, 0
6, 22260, Note_on_c, 4, 67, 90
6, 22319, Note_on_c, 4, 67, 0
6, 22680, Note_on_c, 4, 77, 90
6, 22739, Note_on_c, 4, 77, 0
6, 22740, Note_on_c, 4, 76, 90
6, 22799, Note_on_c, 4, 76, 0
6, 22800, Note_on_c, 4, 74, 90
6, 22859, Note_on_c, 4, 74, 0
6, 22860, Note_on_c, 4, 73, 90
6, 22919, Note_on_c, 4, 73, 0
6, 22920, Note_on_c, 4, 71, 90
6, 22949, Note_on_c, 4, 71, 0
6, 22950, Note_on_c, 4, 73, 90
6, 22979, Note_on_c, 4, 73, 0
6, 22980, Note_on_c, 4, 69, 90
6, 23039, Note_on_c, 4, 69, 0
6, 23040, Note_on_c, 4, 77, 90
6, 23099, Note_on_c, 4, 77, 0
6, 23100, Note_on_c, 4, 69, 90
6, 23159, Note_on_c, 4, 69, 0
6, 23160, Note_on_c, 4, 69, 90
6, 23219, Note_on_c, 4, 69, 0
6, 23220, Note_on_c, 4, 69, 90
6, 23279, Note_on_c, 4, 69, 0
6, 23280, Note_on_c, 4, 67, 90
6, 23309, Note_on_c, 4, 67, 0
6, 23310, Note_on_c, 4, 71, 90
6, 23339, Note_on_c, 4, 71, 0
6, 23340, Note_on_c, 4, 74, 90
6, 23369, Note_on_c, 4, 74, 0
6, 23370, Note_on_c, 4, 77, 90
6, 23399, Note_on_c, 4, 77, 0
6, 23400, Note_on_c, 4, 75, 90
6, 23459, Note_on_c, 4, 75, 0
6, 23460, Note_on_c, 4, 67, 90
6, 23519, Note_on_c, 4, 67, 0
6, 23520, Note_on_c, 4, 67, 90
6, 23579, Note_on_c, 4, 67, 0
6, 23580, Note_on_c, 4, 67, 90
6, 23639, Note_on_c, 4, 67, 0
6, 23640, Note_on_c, 4, 65, 90
6, 23669, Note_on_c, 4, 65, 0
6, 23670, Note_on_c, 4, 69, 90
6, 23699, Note_on_c, 4, 69, 0
6, 23700, Note_on_c, 4, 72, 90
6, 23729, Note_on_c, 4, 72, 0
6, 23730, Note_on_c, 4, 75, 90
6, 23759, Note_on_c, 4, 75, 0
6, 23760, Note_on_c, 4, 74, 90
6, 23819, Note_on_c, 4, 74, 0
6, 23820, Note_on_c, 4, 65, 90
6, 23879, Note_on_c, 4, 65, 0
6, 23880, Note_on_c, 4, 65, 90
6, 23939, Note_on_c, 4, 65, 0
6, 23940, Note_on_c, 4, 65, 90
6, 23999, Note_on_c, 4, 65, 0
6, 24000, Note_on_c, 4, 64, 90
6, 24029, Note_on_c, 4, 64, 0
6, 24030, Note_on_c, 4, 82, 90
6, 24059, Note_on_c, 4, 82, 0
6, 24060, Note_on_c, 4, 81, 90
6, 24089, Note_on_c, 4, 81, 0
6, 24180, Note_on_c, 4, 79, 90
6, 24209, Note_on_c, 4, 79, 0
6, 24210, Note_on_c, 4, 77, 90
6, 24239, Note_on_c, 4, 77, 0
6, 24240, Note_on_c, 4, 76, 90
6, 24269, Note_on_c, 4, 76, 0
6, 24270, Note_on_c, 4, 74, 90
6, 24299, Note_on_c, 4, 74, 0
6, 24300, Note_on_c, 4, 74, 90
6, 24480, Note_on_c, 4, 74, 0
6, 24690, Note_on_c, 4, 60, 90
6, 24719, Note_on_c, 4, 60, 0
6, 24720, Note_on_c, 4, 59, 90
6, 24749, Note_on_c, 4, 59, 0
6, 24750, Note_on_c, 4, 60, 90
6, 24779, Note_on_c, 4, 60, 0
6, 24780, Note_on_c, 4, 62, 90
6, 24809, Note_on_c, 4, 62, 0
6, 24810, Note_on_c, 4, 64, 90
6, 24839, Note_on_c, 4, 64, 0
6, 24840, Note_on_c, 4, 65, 90
6, 24899, Note_on_c, 4, 65, 0
6, 24900, Note_on_c, 4, 62, 90
6, 24959, Note_on_c, 4, 62, 0
6, 24960, Note_on_c, 4, 67, 90
6, 25019, Note_on_c, 4, 67, 0
6, 25020, Note_on_c, 4, 64, 90
6, 25049, Note_on_c, 4, 64, 0
6, 25050, Note_on_c, 4, 62, 90
6, 25079, Note_on_c, 4, 62, 0
6, 25080, Note_on_c, 4, 65, 90
6, 25109, Note_on_c, 4, 65, 0
6, 25110, Note_on_c, 4, 64, 90
6, 25139, Note_on_c, 4, 64, 0
6, 25140, Note_on_c, 4, 62, 90
6, 25169, Note_on_c, 4, 62, 0
6, 25170, Note_on_c, 4, 60, 90
6, 25199, Note_on_c, 4, 60, 0
6, 25200, Note_on_c, 4, 64, 90
6, 25259, Note_on_c, 4, 64, 0
6, 25260, Note_on_c, 4, 69, 90
6, 25319, Note_on_c, 4, 69, 0
6, 25320, Note_on_c, 4, 68, 90
6, 25379, Note_on_c, 4, 68, 0
6, 25380, Note_on_c, 4, 69, 90
6, 25439, Note_on_c, 4, 69, 0
6, 25440, Note_on_c, 4, 71, 90
6, 25499, Note_on_c, 4, 71, 0
6, 25500, Note_on_c, 4, 72, 90
6, 25559, Note_on_c, 4, 72, 0
6, 25560, Note_on_c, 4, 71, 90
6, 25619, Note_on_c, 4, 71, 0
6, 25620, Note_on_c, 4, 74, 90
6, 25649, Note_on_c, 4, 74, 0
6, 25650, Note_on_c, 4, 72, 90
6, 25679, Note_on_c, 4, 72, 0
6, 25680, Note_on_c, 4, 71, 90
6, 25709, Note_on_c, 4, 71, 0
6, 25710, Note_on_c, 4, 69, 90
6, 25739, Note_on_c, 4, 69, 0
6, 25740, Note_on_c, 4, 68, 90
6, 25769, Note_on_c, 4, 68, 0
6, 25770, Note_on_c, 4, 66, 90
6, 25799, Note_on_c, 4, 66, 0
6, 25800, Note_on_c, 4, 69, 90
6, 25829, Note_on_c, 4, 69, 0
6, 25830, Note_on_c, 4, 68, 90
6, 25859, Note_on_c, 4, 68, 0
6, 25860, Note_on_c, 4, 66, 90
6, 25889, Note_on_c, 4, 66, 0
6, 25890, Note_on_c, 4, 64, 90
6, 25919, Note_on_c, 4, 64, 0
6, 25920, Note_on_c, 4, 76, 90
6, 25979, Note_on_c, 4, 76, 0
6, 25980, Note_on_c, 4, 64, 90
6, 26039, Note_on_c, 4, 64, 0
6, 26040, Note_on_c, 4, 64, 90
6, 26099, Note_on_c, 4, 64, 0
6, 26100, Note_on_c, 4, 64, 90
6, 26159, Note_on_c, 4, 64, 0
6, 26160, Note_on_c, 4, 64, 90
6, 26219, Note_on_c, 4, 64, 0
6, 26220, Note_on_c, 4, 64, 90
6, 26279, Note_on_c, 4, 64, 0
6, 26280, Note_on_c, 4, 74, 90
6, 26310, Note_on_c, 4, 74, 0
6, 26340, Note_on_c, 4, 81, 90
6, 26370, Note_on_c, 4, 81, 0
6, 26460, Note_on_c, 4, 81, 90
6, 26490, Note_on_c, 4, 81, 0
6, 26520, Note_on_c, 4, 77, 90
6, 26550, Note_on_c, 4, 77, 0
6, 26640, Note_on_c, 4, 62, 90
6, 26699, Note_on_c, 4, 62, 0
6, 26700, Note_on_c, 4, 62, 90
6, 26759, Note_on_c, 4, 62, 0
6, 26760, Note_on_c, 4, 62, 90
6, 26819, Note_on_c, 4, 62, 0
6, 26820, Note_on_c, 4, 62, 90
6, 26879, Note_on_c, 4, 62, 0
6, 26880, Note_on_c, 4, 62, 90
6, 26939, Note_on_c, 4, 62, 0
6, 26940, Note_on_c, 4, 62, 90
6, 26999, Note_on_c, 4, 62, 0
6, 27000, Note_on_c, 4, 72, 90
6, 27030, Note_on_c, 4, 72, 0
6, 27060, Note_on_c, 4, 79, 90
6, 27090, Note_on_c, 4, 79, 0
6, 27180, Note_on_c, 4, 79, 90
6, 27210, Note_on_c, 4, 79, 0
6, 27240, Note_on_c, 4, 76, 90
6, 27270, Note_on_c, 4, 76, 0
6, 27360, Note_on_c, 4, 69, 90
6, 27419, Note_on_c, 4, 69, 0
6, 27420, Note_on_c, 4, 67, 90
6, 27479, Note_on_c, 4, 67, 0
6, 27480, Note_on_c, 4, 69, 90
6, 27539, Note_on_c, 4, 69, 0
6, 27540, Note_on_c, 4, 77, 90
6, 27719, Note_on_c, 4, 77, 0
6, 27720, Note_on_c, 4, 67, 90
6, 27779, Note_on_c, 4, 67, 0
6, 27780, Note_on_c, 4, 65, 90
6, 27839, Note_on_c, 4, 65, 0
6, 27840, Note_on_c, 4, 67, 90
6, 27899, Note_on_c, 4, 67, 0
6, 27900, Note_on_c, 4, 76, 90
6, 28139, Note_on_c, 4, 76, 0
6, 28140, Note_on_c, 4, 74, 90
6, 28199, Note_on_c, 4, 74, 0
6, 28200, Note_on_c, 4, 72, 90
6, 28259, Note_on_c, 4, 72, 0
6, 28260, Note_on_c, 4, 71, 90
6, 28319, Note_on_c, 4, 71, 0
6, 28320, Note_on_c, 4, 69, 90
6, 28349, Note_on_c, 4, 69, 0
6, 28350, Note_on_c, 4, 68, 90
6, 28379, Note_on_c, 4, 68, 0
6, 28380, Note_on_c, 4, 69, 90
6, 28469, Note_on_c, 4, 69, 0
6, 28470, Note_on_c, 4, 71, 90
6, 28499, Note_on_c, 4, 71, 0
6, 28500, Note_on_c, 4, 71, 90
6, 28589, Note_on_c, 4, 71, 0
6, 28590, Note_on_c, 4, 69, 90
6, 28619, Note_on_c, 4, 69, 0
6, 28620, Note_on_c, 4, 69, 90
6, 28739, Note_on_c, 4, 69, 0
6, 29160, Note_on_c, 4, 60, 90
6, 29219, Note_on_c, 4, 60, 0
6, 29220, Note_on_c, 4, 60, 90
6, 29279, Note_on_c, 4, 60, 0
6, 29280, Note_on_c, 4, 60, 90
6, 29339, Note_on_c, 4, 60, 0
6, 29340, Note_on_c, 4, 60, 90
6, 29399, Note_on_c, 4, 60, 0
6, 29400, Note_on_c, 4, 60, 90
6, 29459, Note_on_c, 4, 60, 0
6, 29460, Note_on_c, 4, 60, 90
6, 29519, Note_on_c, 4, 60, 0
6, 29520, Note_on_c, 4, 69, 90
6, 29579, Note_on_c, 4, 69, 0
6, 29580, Note_on_c, 4, 70, 90
6, 29639, Note_on_c, 4, 70, 0
6, 29640, Note_on_c, 4, 72, 90
6, 29699, Note_on_c, 4, 72, 0
6, 29700, Note_on_c, 4, 74, 90
6, 29730, Note_on_c, 4, 74, 0
6, 29760, Note_on_c, 4, 72, 90
6, 29790, Note_on_c, 4, 72, 0
6, 30240, Note_on_c, 4, 74, 90
6, 30269, Note_on_c, 4, 74, 0
6, 30270, Note_on_c, 4, 76, 90
6, 30299, Note_on_c, 4, 76, 0
6, 30300, Note_on_c, 4, 77, 90
6, 30314, Note_on_c, 4, 77, 0
6, 30315, Note_on_c, 4, 76, 90
6, 30329, Note_on_c, 4, 76, 0
6, 30330, Note_on_c, 4, 77, 90
6, 30344, Note_on_c, 4, 77, 0
6, 30345, Note_on_c, 4, 76, 90
6, 30359, Note_on_c, 4, 76, 0
6, 30360, Note_on_c, 4, 77, 90
6, 30374, Note_on_c, 4, 77, 0
6, 30375, Note_on_c, 4, 76, 90
6, 30389, Note_on_c, 4, 76, 0
6, 30390, Note_on_c, 4, 74, 90
6, 30404, Note_on_c, 4, 74, 0
6, 30405, Note_on_c, 4, 76, 90
6, 30419, Note_on_c, 4, 76, 0
6, 30420, Note_on_c, 4, 77, 90
6, 30479, Note_on_c, 4, 77, 0
6, 30480, Note_on_c, 4, 76, 90
6, 30509, Note_on_c, 4, 76, 0
6, 30510, Note_on_c, 4, 74, 90
6, 30539, Note_on_c, 4, 74, 0
6, 30540, Note_on_c, 4, 72, 90
6, 30569, Note_on_c, 4, 72, 0
6, 30570, Note_on_c, 4, 70, 90
6, 30599, Note_on_c, 4, 70, 0
6, 30600, Note_on_c, 4, 69, 90
6, 30659, Note_on_c, 4, 69, 0
6, 30660, Note_on_c, 4, 74, 90
6, 30719, Note_on_c, 4, 74, 0
6, 30720, Note_on_c, 4, 70, 90
6, 30779, Note_on_c, 4, 70, 0
6, 30780, Note_on_c, 4, 69, 90
6, 30839, Note_on_c, 4, 69, 0
6, 30840, Note_on_c, 4, 67, 90
6, 30899, Note_on_c, 4, 67, 0
6, 30960, Note_on_c, 4, 82, 90
6, 30990, Note_on_c, 4, 82, 0
6, 31320, Note_on_c, 4, 81, 90
6, 31350, Note_on_c, 4, 81, 0
6, 31680, Note_on_c, 4, 79, 90
6, 31710, Note_on_c, 4, 79, 0
6, 32040, Note_on_c, 4, 77, 90
6, 32070, Note_on_c, 4, 77, 0
6, 32400, Note_on_c, 4, 72, 90
6, 32459, Note_on_c, 4, 72, 0
6, 32460, Note_on_c, 4, 74, 90
6, 32519, Note_on_c, 4, 74, 0
6, 32520, Note_on_c, 4, 76, 90
6, 32639, Note_on_c, 4, 76, 0
6, 32640, Note_on_c, 4, 74, 90
6, 32699, Note_on_c, 4, 74, 0
6, 32700, Note_on_c, 4, 72, 90
6, 32759, Note_on_c, 4, 72, 0
6, 32760, Note_on_c, 4, 77, 90
6, 32819, Note_on_c, 4, 77, 0
6, 32820, Note_on_c, 4, 72, 90
6, 32879, Note_on_c, 4, 72, 0
6, 32880, Note_on_c, 4, 75, 90
6, 32939, Note_on_c, 4, 75, 0
6, 32940, Note_on_c, 4, 75, 90
6, 32970, Note_on_c, 4, 75, 0
6, 33000, Note_on_c, 4, 74, 90
6, 33030, Note_on_c, 4, 74, 0
6, 33120, Note_on_c, 4, 72, 90
6, 33179, Note_on_c, 4, 72, 0
6, 33180, Note_on_c, 4, 75, 90
6, 33239, Note_on_c, 4, 75, 0
6, 33240, Note_on_c, 4, 74, 90
6, 33299, Note_on_c, 4, 74, 0
6, 33300, Note_on_c, 4, 72, 90
6, 33359, Note_on_c, 4, 72, 0
6, 33360, Note_on_c, 4, 70, 90
6, 33419, Note_on_c, 4, 70, 0
6, 33420, Note_on_c, 4, 69, 90
6, 33479, Note_on_c, 4, 69, 0
6, 33480, Note_on_c, 4, 70, 90
6, 33539, Note_on_c, 4, 70, 0
6, 33540, Note_on_c, 4, 74, 90
6, 33599, Note_on_c, 4, 74, 0
6, 33600, Note_on_c, 4, 72, 90
6, 33659, Note_on_c, 4, 72, 0
6, 33660, Note_on_c, 4, 70, 90
6, 33719, Note_on_c, 4, 70, 0
6, 33720, Note_on_c, 4, 69, 90
6, 33779, Note_on_c, 4, 69, 0
6, 34200, Note_on_c, 4, 76, 90
6, 34259, Note_on_c, 4, 76, 0
6, 34260, Note_on_c, 4, 77, 90
6, 34319, Note_on_c, 4, 77, 0
6, 34320, Note_on_c, 4, 79, 90
6, 34379, Note_on_c, 4, 79, 0
6, 34380, Note_on_c, 4, 81, 90
6, 34439, Note_on_c, 4, 81, 0
6, 34440, Note_on_c, 4, 79, 90
6, 34469, Note_on_c, 4, 79, 0
6, 34470, Note_on_c, 4, 81, 90
6, 34499, Note_on_c, 4, 81, 0
6, 34500, Note_on_c, 4, 77, 90
6, 34559, Note_on_c, 4, 77, 0
6, 34560, Note_on_c, 4, 69, 90
6, 34589, Note_on_c, 4, 69, 0
6, 34590, Note_on_c, 4, 67, 90
6, 34619, Note_on_c, 4, 67, 0
6, 34620, Note_on_c, 4, 69, 90
6, 34649, Note_on_c, 4, 69, 0
6, 34650, Note_on_c, 4, 65, 90
6, 34679, Note_on_c, 4, 65, 0
6, 34680, Note_on_c, 4, 70, 90
6, 34709, Note_on_c, 4, 70, 0
6, 34710, Note_on_c, 4, 65, 90
6, 34739, Note_on_c, 4, 65, 0
6, 34740, Note_on_c, 4, 72, 90
6, 34769, Note_on_c, 4, 72, 0
6, 34770, Note_on_c, 4, 70, 90
6, 34799, Note_on_c, 4, 70, 0
6, 34800, Note_on_c, 4, 72, 90
6, 34829, Note_on_c, 4, 72, 0
6, 34830, Note_on_c, 4, 65, 90
6, 34859, Note_on_c, 4, 65, 0
6, 34860, Note_on_c, 4, 74, 90
6, 34889, Note_on_c, 4, 74, 0
6, 34890, Note_on_c, 4, 65, 90
6, 34919, Note_on_c, 4, 65, 0
6, 34920, Note_on_c, 4, 69, 90
6, 34979, Note_on_c, 4, 69, 0
6, 34980, Note_on_c, 4, 70, 90
6, 35039, Note_on_c, 4, 70, 0
6, 35040, Note_on_c, 4, 72, 90
6, 35099, Note_on_c, 4, 72, 0
6, 35100, Note_on_c, 4, 74, 90
6, 35159, Note_on_c, 4, 74, 0
6, 35160, Note_on_c, 4, 72, 90
6, 35189, Note_on_c, 4, 72, 0
6, 35190, Note_on_c, 4, 74, 90
6, 35219, Note_on_c, 4, 74, 0
6, 35220, Note_on_c, 4, 70, 90
6, 35279, Note_on_c, 4, 70, 0
6, 35280, Note_on_c, 4, 74, 90
6, 35339, Note_on_c, 4, 74, 0
6, 35340, Note_on_c, 4, 65, 90
6, 35370, Note_on_c, 4, 65, 0
6, 35400, Note_on_c, 4, 65, 90
6, 35430, Note_on_c, 4, 65, 0
6, 35460, Note_on_c, 4, 65, 90
6, 35519, Note_on_c, 4, 65, 0
6, 35520, Note_on_c, 4, 64, 90
6, 35549, Note_on_c, 4, 64, 0
6, 35550, Note_on_c, 4, 67, 90
6, 35579, Note_on_c, 4, 67, 0
6, 35580, Note_on_c, 4, 70, 90
6, 35609, Note_on_c, 4, 70, 0
6, 35610, Note_on_c, 4, 74, 90
6, 35639, Note_on_c, 4, 74, 0
6, 35640, Note_on_c, 4, 72, 90
6, 35699, Note_on_c, 4, 72, 0
6, 35700, Note_on_c, 4, 64, 90
6, 35730, Note_on_c, 4, 64, 0
6, 35760, Note_on_c, 4, 64, 90
6, 35790, Note_on_c, 4, 64, 0
6, 35820, Note_on_c, 4, 64, 90
6, 35879, Note_on_c, 4, 64, 0
6, 35880, Note_on_c, 4, 62, 90
6, 35909, Note_on_c, 4, 62, 0
6, 35910, Note_on_c, 4, 66, 90
6, 35939, Note_on_c, 4, 66, 0
6, 35940, Note_on_c, 4, 69, 90
6, 35969, Note_on_c, 4, 69, 0
6, 35970, Note_on_c, 4, 72, 90
6, 35999, Note_on_c, 4, 72, 0
6, 36000, Note_on_c, 4, 70, 90
6, 36059, Note_on_c, 4, 70, 0
6, 36060, Note_on_c, 4, 62, 90
6, 36090, Note_on_c, 4, 62, 0
6, 36120, Note_on_c, 4, 62, 90
6, 36150, Note_on_c, 4, 62, 0
6, 36180, Note_on_c, 4, 62, 90
6, 36239, Note_on_c, 4, 62, 0
6, 36240, Note_on_c, 4, 60, 90
6, 36269, Note_on_c, 4, 60, 0
6, 36270, Note_on_c, 4, 64, 90
6, 36299, Note_on_c, 4, 64, 0
6, 36300, Note_on_c, 4, 67, 90
6, 36329, Note_on_c, 4, 67, 0
6, 36330, Note_on_c, 4, 70, 90
6, 36359, Note_on_c, 4, 70, 0
6, 36360, Note_on_c, 4, 69, 90
6, 36419, Note_on_c, 4, 69, 0
6, 36420, Note_on_c, 4, 81, 90
6, 36479, Note_on_c, 4, 81, 0
6, 36480, Note_on_c, 4, 79, 90
6, 36539, Note_on_c, 4, 79, 0
6, 36540, Note_on_c, 4, 76, 90
6, 36599, Note_on_c, 4, 76, 0
6, 36600, Note_on_c, 4, 74, 90
6, 36629, Note_on_c, 4, 74, 0
6, 36630, Note_on_c, 4, 76, 90
6, 36659, Note_on_c, 4, 76, 0
6, 36660, Note_on_c, 4, 72, 90
6, 36689, Note_on_c, 4, 72, 0
6, 36690, Note_on_c, 4, 70, 90
6, 36719, Note_on_c, 4, 70, 0
6, 36720, Note_on_c, 4, 69, 90
6, 36839, Note_on_c, 4, 69, 0
6, 36840, Note_on_c, 4, 70, 90
6, 36899, Note_on_c, 4, 70, 0
6, 36900, Note_on_c, 4, 67, 90
6, 37019, Note_on_c, 4, 67, 0
6, 37020, Note_on_c, 4, 65, 90
6, 37079, Note_on_c, 4, 65, 0
6, 37080, Note_on_c, 4, 69, 90
6, 37139, Note_on_c, 4, 69, 0
6, 37140, Note_on_c, 4, 70, 90
6, 37199, Note_on_c, 4, 70, 0
6, 37200, Note_on_c, 4, 72, 90
6, 37259, Note_on_c, 4, 72, 0
6, 37260, Note_on_c, 4, 74, 90
6, 37289, Note_on_c, 4, 74, 0
6, 37320, Note_on_c, 4, 72, 90
6, 37349, Note_on_c, 4, 72, 0
6, 37440, Note_on_c, 4, 77, 90
6, 37470, Note_on_c, 4, 77, 0
6, 37800, Note_on_c, 4, 75, 90
6, 37830, Note_on_c, 4, 75, 0
6, 38160, Note_on_c, 4, 74, 90
6, 38190, Note_on_c, 4, 74, 0
6, 38520, Note_on_c, 4, 72, 90
6, 38550, Note_on_c, 4, 72, 0
6, 38880, Note_on_c, 4, 74, 90
6, 38999, Note_on_c, 4, 74, 0
6, 39000, Note_on_c, 4, 75, 90
6, 39059, Note_on_c, 4, 75, 0
6, 39060, Note_on_c, 4, 72, 90
6, 39179, Note_on_c, 4, 72, 0
6, 39180, Note_on_c, 4, 70, 90
6, 39239, Note_on_c, 4, 70, 0
6, 39240, Note_on_c, 4, 74, 90
6, 39299, Note_on_c, 4, 74, 0
6, 39300, Note_on_c, 4, 76, 90
6, 39359, Note_on_c, 4, 76, 0
6, 39360, Note_on_c, 4, 77, 90
6, 39419, Note_on_c, 4, 77, 0
6, 39420, Note_on_c, 4, 79, 90
6, 39449, Note_on_c, 4, 79, 0
6, 39480, Note_on_c, 4, 70, 90
6, 39509, Note_on_c, 4, 70, 0
6, 39600, Note_on_c, 4, 69, 90
6, 39659, Note_on_c, 4, 69, 0
6, 39660, Note_on_c, 4, 74, 90
6, 39719, Note_on_c, 4, 74, 0
6, 39720, Note_on_c, 4, 72, 90
6, 39779, Note_on_c, 4, 72, 0
6, 39780, Note_on_c, 4, 76, 90
6, 39839, Note_on_c, 4, 76, 0
6, 39840, Note_on_c, 4, 77, 90
6, 39899, Note_on_c, 4, 77, 0
6, 39900, Note_on_c, 4, 65, 90
6, 39959, Note_on_c, 4, 65, 0
6, 39960, Note_on_c, 4, 70, 90
6, 40019, Note_on_c, 4, 70, 0
6, 40020, Note_on_c, 4, 67, 90
6, 40139, Note_on_c, 4, 67, 0
6, 40140, Note_on_c, 4, 65, 90
6, 40259, Note_on_c, 4, 65, 0
6, 40320, Note_on_c, 4, 60, 90
6, 40367, Note_on_c, 4, 60, 0
6, 40380, Note_on_c, 4, 60, 90
6, 40427, Note_on_c, 4, 60, 0
6, 40440, Note_on_c, 4, 60, 90
6, 40487, Note_on_c, 4, 60, 0
6, 40500, Note_on_c, 4, 60, 90
6, 40547, Note_on_c, 4, 60, 0
6, 40560, Note_on_c, 4, 60, 90
6, 40607, Note_on_c, 4, 60, 0
6, 40620, Note_on_c, 4, 60, 90
6, 40667, Note_on_c, 4, 60, 0
6, 40680, Note_on_c, 4, 76, 90
6, 40739, Note_on_c, 4, 76, 0
6, 40740, Note_on_c, 4, 77, 90
6, 40799, Note_on_c, 4, 77, 0
6, 40800, Note_on_c, 4, 79, 90
6, 40859, Note_on_c, 4, 79, 0
6, 40860, Note_on_c, 4, 81, 90
6, 40919, Note_on_c, 4, 81, 0
6, 40920, Note_on_c, 4, 79, 90
6, 40949, Note_on_c, 4, 79, 0
6, 40950, Note_on_c, 4, 81, 90
6, 40979, Note_on_c, 4, 81, 0
6, 40980, Note_on_c, 4, 77, 90
6, 41039, Note_on_c, 4, 77, 0
6, 41400, Note_on_c, 4, 78, 90
6, 41459, Note_on_c, 4, 78, 0
6, 41460, Note_on_c, 4, 79, 90
6, 41519, Note_on_c, 4, 79, 0
6, 41520, Note_on_c, 4, 81, 90
6, 41579, Note_on_c, 4, 81, 0
6, 41580, Note_on_c, 4, 82, 90
6, 41639, Note_on_c, 4, 82, 0
6, 41640, Note_on_c, 4, 81, 90
6, 41669, Note_on_c, 4, 81, 0
6, 41670, Note_on_c, 4, 82, 90
6, 41699, Note_on_c, 4, 82, 0
6, 41700, Note_on_c, 4, 79, 90
6, 41759, Note_on_c, 4, 79, 0
6, 41760, Note_on_c, 4, 82, 90
6, 41819, Note_on_c, 4, 82, 0
6, 41820, Note_on_c, 4, 74, 90
6, 41850, Note_on_c, 4, 74, 0
6, 41880, Note_on_c, 4, 74, 90
6, 41910, Note_on_c, 4, 74, 0
6, 41940, Note_on_c, 4, 74, 90
6, 41999, Note_on_c, 4, 74, 0
6, 42000, Note_on_c, 4, 72, 90
6, 42029, Note_on_c, 4, 72, 0
6, 42030, Note_on_c, 4, 76, 90
6, 42059, Note_on_c, 4, 76, 0
6, 42060, Note_on_c, 4, 79, 90
6, 42089, Note_on_c, 4, 79, 0
6, 42090, Note_on_c, 4, 82, 90
6, 42119, Note_on_c, 4, 82, 0
6, 42120, Note_on_c, 4, 81, 90
6, 42179, Note_on_c, 4, 81, 0
6, 42180, Note_on_c, 4, 72, 90
6, 42210, Note_on_c, 4, 72, 0
6, 42240, Note_on_c, 4, 72, 90
6, 42270, Note_on_c, 4, 72, 0
6, 42300, Note_on_c, 4, 72, 90
6, 42359, Note_on_c, 4, 72, 0
6, 42360, Note_on_c, 4, 70, 90
6, 42389, Note_on_c, 4, 70, 0
6, 42390, Note_on_c, 4, 74, 90
6, 42419, Note_on_c, 4, 74, 0
6, 42420, Note_on_c, 4, 77, 90
6, 42449, Note_on_c, 4, 77, 0
6, 42450, Note_on_c, 4, 81, 90
6, 42479, Note_on_c, 4, 81, 0
6, 42480, Note_on_c, 4, 79, 90
6, 42539, Note_on_c, 4, 79, 0
6, 42540, Note_on_c, 4, 70, 90
6, 42570, Note_on_c, 4, 70, 0
6, 42600, Note_on_c, 4, 70, 90
6, 42630, Note_on_c, 4, 70, 0
6, 42660, Note_on_c, 4, 70, 90
6, 42719, Note_on_c, 4, 70, 0
6, 42720, Note_on_c, 4, 69, 90
6, 42749, Note_on_c, 4, 69, 0
6, 42750, Note_on_c, 4, 74, 90
6, 42779, Note_on_c, 4, 74, 0
6, 42780, Note_on_c, 4, 72, 90
6, 42809, Note_on_c, 4, 72, 0
6, 42900, Note_on_c, 4, 70, 90
6, 42929, Note_on_c, 4, 70, 0
6, 42930, Note_on_c, 4, 69, 90
6, 42959, Note_on_c, 4, 69, 0
6, 42960, Note_on_c, 4, 67, 90
6, 42989, Note_on_c, 4, 67, 0
6, 42990, Note_on_c, 4, 65, 90
6, 43019, Note_on_c, 4, 65, 0
6, 43020, Note_on_c, 4, 65, 90
6, 43199, Note_on_c, 4, 65, 0
6, 46740, Note_on_c, 4, 77, 90
6, 46980, Note_on_c, 4, 77, 0
6, 46980, Note_on_c, 4, 76, 90
6, 47220, Note_on_c, 4, 76, 0
6, 47220, Note_on_c, 4, 74, 90
6, 48180, Note_on_c, 4, 74, 0
6, 48180, Note_on_c, 4, 72, 90
6, 49440, Note_on_c, 4, 72, 0
6, 49440, Note_on_c, 4, 69, 90
6, 49499, Note_on_c, 4, 69, 0
6, 49500, Note_on_c, 4, 79, 90
6, 49559, Note_on_c, 4, 79, 0
6, 49560, Note_on_c, 4, 78, 90
6, 49619, Note_on_c, 4, 78, 0
6, 49620, Note_on_c, 4, 79, 90
6, 50339, Note_on_c, 4, 79, 0
6, 50340, Note_on_c, 4, 77, 90
6, 50699, Note_on_c, 4, 77, 0
6, 50700, Note_on_c, 4, 70, 90
6, 50819, Note_on_c, 4, 70, 0
6, 50940, Note_on_c, 4, 70, 90
6, 51059, Note_on_c, 4, 70, 0
6, 51060, Note_on_c, 4, 69, 90
6, 51119, Note_on_c, 4, 69, 0
6, 51120, Note_on_c, 4, 70, 90
6, 51179, Note_on_c, 4, 70, 0
6, 51180, Note_on_c, 4, 72, 90
6, 51239, Note_on_c, 4, 72, 0
6, 51240, Note_on_c, 4, 69, 90
6, 51299, Note_on_c, 4, 69, 0
6, 51300, Note_on_c, 4, 65, 90
6, 51419, Note_on_c, 4, 65, 0
6, 51480, Note_on_c, 4, 72, 90
6, 51539, Note_on_c, 4, 72, 0
6, 51540, Note_on_c, 4, 74, 90
6, 51599, Note_on_c, 4, 74, 0
6, 51600, Note_on_c, 4, 76, 90
6, 51659, Note_on_c, 4, 76, 0
6, 51660, Note_on_c, 4, 77, 90
6, 51719, Note_on_c, 4, 77, 0
6, 51720, Note_on_c, 4, 74, 90
6, 51779, Note_on_c, 4, 74, 0
6, 51780, Note_on_c, 4, 70, 90
6, 51899, Note_on_c, 4, 70, 0
6, 51900, Note_on_c, 4, 69, 90
6, 52019, Note_on_c, 4, 69, 0
6, 52020, Note_on_c, 4, 67, 90
6, 52199, Note_on_c, 4, 67, 0
6, 52200, Note_on_c, 4, 69, 90
6, 52259, Note_on_c, 4, 69, 0
6, 52260, Note_on_c, 4, 65, 90
6, 52319, Note_on_c, 4, 65, 0
6, 52320, Note_on_c, 4, 64, 90
6, 52379, Note_on_c, 4, 64, 0
6, 52380, Note_on_c, 4, 65, 90
6, 52499, Note_on_c, 4, 65, 0
6, 52500, Note_on_c, 4, 67, 90
6, 52559, Note_on_c, 4, 67, 0
6, 52560, Note_on_c, 4, 69, 90
6, 52589, Note_on_c, 4, 69, 0
6, 52590, Note_on_c, 4, 70, 90
6, 52619, Note_on_c, 4, 70, 0
6, 52620, Note_on_c, 4, 69, 90
6, 52679, Note_on_c, 4, 69, 0
6, 52680, Note_on_c, 4, 67, 90
6, 52739, Note_on_c, 4, 67, 0
6, 52740, Note_on_c, 4, 67, 90
6, 52979, Note_on_c, 4, 67, 0
6, 52980, Note_on_c, 4, 72, 90
6, 53099, Note_on_c, 4, 72, 0
6, 53100, Note_on_c, 4, 70, 90
6, 53159, Note_on_c, 4, 70, 0
6, 53160, Note_on_c, 4, 69, 90
6, 53219, Note_on_c, 4, 69, 0
6, 53220, Note_on_c, 4, 67, 90
6, 53339, Note_on_c, 4, 67, 0
6, 53400, Note_on_c, 4, 65, 90
6, 53459, Note_on_c, 4, 65, 0
6, 53460, Note_on_c, 4, 70, 90
6, 53579, Note_on_c, 4, 70, 0
6, 53580, Note_on_c, 4, 69, 90
6, 53639, Note_on_c, 4, 69, 0
6, 53640, Note_on_c, 4, 67, 90
6, 53699, Note_on_c, 4, 67, 0
6, 53700, Note_on_c, 4, 69, 90
6, 53819, Note_on_c, 4, 69, 0
6, 53820, Note_on_c, 4, 65, 90
6, 53939, Note_on_c, 4, 65, 0
6, 53940, Note_on_c, 4, 67, 90
6, 54059, Note_on_c, 4, 67, 0
6, 54120, Note_on_c, 4, 72, 90
6, 54179, Note_on_c, 4, 72, 0
6, 54180, Note_on_c, 4, 69, 90
6, 54239, Note_on_c, 4, 69, 0
6, 54240, Note_on_c, 4, 77, 90
6, 54299, Note_on_c, 4, 77, 0
6, 54300, Note_on_c, 4, 75, 90
6, 54359, Note_on_c, 4, 75, 0
6, 54360, Note_on_c, 4, 74, 90
6, 54419, Note_on_c, 4, 74, 0
6, 54420, Note_on_c, 4, 72, 90
6, 54539, Note_on_c, 4, 72, 0
6, 54540, Note_on_c, 4, 71, 90
6, 54629, Note_on_c, 4, 71, 0
6, 54630, Note_on_c, 4, 72, 90
6, 54659, Note_on_c, 4, 72, 0
6, 54660, Note_on_c, 4, 72, 90
6, 54779, Note_on_c, 4, 72, 0
6, 54780, Note_on_c, 4, 76, 90
6, 55620, Note_on_c, 4, 76, 0
6, 55620, Note_on_c, 4, 74, 90
6, 56700, Note_on_c, 4, 74, 0
6, 56700, Note_on_c, 4, 80, 90
6, 56819, Note_on_c, 4, 80, 0
6, 56820, Note_on_c, 4, 81, 90
6, 57179, Note_on_c, 4, 81, 0
6, 57180, Note_on_c, 4, 79, 90
6, 57299, Note_on_c, 4, 79, 0
6, 57300, Note_on_c, 4, 78, 90
6, 57419, Note_on_c, 4, 78, 0
6, 57420, Note_on_c, 4, 79, 90
6, 57539, Note_on_c, 4, 79, 0
6, 57540, Note_on_c, 4, 78, 90
6, 57659, Note_on_c, 4, 78, 0
6, 57660, Note_on_c, 4, 77, 90
6, 58379, Note_on_c, 4, 77, 0
6, 58380, Note_on_c, 4, 71, 90
6, 58499, Note_on_c, 4, 71, 0
6, 58500, Note_on_c, 4, 72, 90
6, 59460, Note_on_c, 4, 72, 0
6, 59460, Note_on_c, 4, 74, 90
6, 59580, Note_on_c, 4, 74, 0
6, 59580, Note_on_c, 4, 75, 90
6, 59700, Note_on_c, 4, 75, 0
6, 59820, Note_on_c, 4, 76, 90
6, 59880, Note_on_c, 4, 76, 0
6, 59880, Note_on_c, 4, 71, 90
6, 59940, Note_on_c, 4, 71, 0
6, 59940, Note_on_c, 4, 72, 90
6, 60060, Note_on_c, 4, 72, 0
6, 109980, Note_on_c, 4, 74, 90
6, 110459, Note_on_c, 4, 74, 0
6, 110460, Note_on_c, 4, 76, 90
6, 110579, Note_on_c, 4, 76, 0
6, 110580, Note_on_c, 4, 72, 90
6, 110699, Note_on_c, 4, 72, 0
6, 110700, Note_on_c, 4, 69, 90
6, 110879, Note_on_c, 4, 69, 0
6, 110880, Note_on_c, 4, 69, 90
6, 110939, Note_on_c, 4, 69, 0
6, 110940, Note_on_c, 4, 74, 90
6, 111059, Note_on_c, 4, 74, 0
6, 111060, Note_on_c, 4, 76, 90
6, 111119, Note_on_c, 4, 76, 0
6, 111120, Note_on_c, 4, 77, 90
6, 111149, Note_on_c, 4, 77, 0
6, 111150, Note_on_c, 4, 79, 90
6, 111179, Note_on_c, 4, 79, 0
6, 111180, Note_on_c, 4, 77, 90
6, 111239, Note_on_c, 4, 77, 0
6, 111240, Note_on_c, 4, 76, 90
6, 111299, Note_on_c, 4, 76, 0
6, 111300, Note_on_c, 4, 74, 90
6, 111419, Note_on_c, 4, 74, 0
6, 111420, Note_on_c, 4, 71, 90
6, 111599, Note_on_c, 4, 71, 0
6, 111600, Note_on_c, 4, 76, 90
6, 111659, Note_on_c, 4, 76, 0
6, 111660, Note_on_c, 4, 74, 90
6, 111719, Note_on_c, 4, 74, 0
6, 111720, Note_on_c, 4, 72, 90
6, 111779, Note_on_c, 4, 72, 0
6, 111780, Note_on_c, 4, 71, 90
6, 111839, Note_on_c, 4, 71, 0
6, 111840, Note_on_c, 4, 69, 90
6, 111899, Note_on_c, 4, 69, 0
6, 111900, Note_on_c, 4, 71, 90
6, 112019, Note_on_c, 4, 71, 0
6, 112020, Note_on_c, 4, 68, 90
6, 112139, Note_on_c, 4, 68, 0
6, 112140, Note_on_c, 4, 69, 90
6, 112740, Note_on_c, 4, 69, 0
6, 112740, Note_on_c, 4, 72, 90
6, 112859, Note_on_c, 4, 72, 0
6, 112860, Note_on_c, 4, 74, 90
6, 113039, Note_on_c, 4, 74, 0
6, 113040, Note_on_c, 4, 75, 90
6, 113099, Note_on_c, 4, 75, 0
6, 113100, Note_on_c, 4, 66, 90
6, 113219, Note_on_c, 4, 66, 0
6, 113220, Note_on_c, 4, 67, 90
6, 113279, Note_on_c, 4, 67, 0
6, 113280, Note_on_c, 4, 69, 90
6, 113339, Note_on_c, 4, 69, 0
6, 113340, Note_on_c, 4, 70, 90
6, 113459, Note_on_c, 4, 70, 0
6, 113460, Note_on_c, 4, 69, 90
6, 113519, Note_on_c, 4, 69, 0
6, 113520, Note_on_c, 4, 67, 90
6, 113579, Note_on_c, 4, 67, 0
6, 113580, Note_on_c, 4, 67, 90
6, 113639, Note_on_c, 4, 67, 0
6, 113640, Note_on_c, 4, 78, 90
6, 113759, Note_on_c, 4, 78, 0
6, 113760, Note_on_c, 4, 78, 90
6, 113819, Note_on_c, 4, 78, 0
6, 113820, Note_on_c, 4, 77, 90
6, 114059, Note_on_c, 4, 77, 0
6, 114060, Note_on_c, 4, 74, 90
6, 114299, Note_on_c, 4, 74, 0
6, 114300, Note_on_c, 4, 76, 90
6, 114419, Note_on_c, 4, 76, 0
6, 114420, Note_on_c, 4, 72, 90
6, 114539, Note_on_c, 4, 72, 0
6, 114540, Note_on_c, 4, 77, 90
6, 114719, Note_on_c, 4, 77, 0
6, 114720, Note_on_c, 4, 76, 90
6, 114779, Note_on_c, 4, 76, 0
6, 114780, Note_on_c, 4, 74, 90
6, 114899, Note_on_c, 4, 74, 0
6, 114900, Note_on_c, 4, 76, 90
6, 114959, Note_on_c, 4, 76, 0
6, 114960, Note_on_c, 4, 77, 90
6, 114989, Note_on_c, 4, 77, 0
6, 114990, Note_on_c, 4, 79, 90
6, 115019, Note_on_c, 4, 79, 0
6, 115020, Note_on_c, 4, 76, 90
6, 115079, Note_on_c, 4, 76, 0
6, 115080, Note_on_c, 4, 74, 90
6, 115139, Note_on_c, 4, 74, 0
6, 115140, Note_on_c, 4, 72, 90
6, 115379, Note_on_c, 4, 72, 0
6, 115380, Note_on_c, 4, 79, 90
6, 115619, Note_on_c, 4, 79, 0
6, 115620, Note_on_c, 4, 72, 90
6, 115679, Note_on_c, 4, 72, 0
6, 115680, Note_on_c, 4, 74, 90
6, 115739, Note_on_c, 4, 74, 0
6, 115740, Note_on_c, 4, 75, 90
6, 115859, Note_on_c, 4, 75, 0
6, 115920, Note_on_c, 4, 77, 90
6, 115979, Note_on_c, 4, 77, 0
6, 115980, Note_on_c, 4, 75, 90
6, 116039, Note_on_c, 4, 75, 0
6, 116040, Note_on_c, 4, 74, 90
6, 116099, Note_on_c, 4, 74, 0
6, 116100, Note_on_c, 4, 72, 90
6, 116159, Note_on_c, 4, 72, 0
6, 116160, Note_on_c, 4, 70, 90
6, 116219, Note_on_c, 4, 70, 0
6, 116220, Note_on_c, 4, 69, 90
6, 116279, Note_on_c, 4, 69, 0
6, 116280, Note_on_c, 4, 70, 90
6, 116339, Note_on_c, 4, 70, 0
6, 116340, Note_on_c, 4, 70, 90
6, 116399, Note_on_c, 4, 70, 0
6, 116400, Note_on_c, 4, 69, 90
6, 116429, Note_on_c, 4, 69, 0
6, 116430, Note_on_c, 4, 70, 90
6, 116459, Note_on_c, 4, 70, 0
6, 116460, Note_on_c, 4, 72, 90
6, 116579, Note_on_c, 4, 72, 0
6, 116580, Note_on_c, 4, 65, 90
6, 116819, Note_on_c, 4, 65, 0
6, 116820, Note_on_c, 4, 67, 90
6, 116879, Note_on_c, 4, 67, 0
6, 116880, Note_on_c, 4, 69, 90
6, 116939, Note_on_c, 4, 69, 0
6, 116940, Note_on_c, 4, 70, 90
6, 116999, Note_on_c, 4, 70, 0
6, 117000, Note_on_c, 4, 72, 90
6, 117029, Note_on_c, 4, 72, 0
6, 117030, Note_on_c, 4, 74, 90
6, 117059, Note_on_c, 4, 74, 0
6, 117060, Note_on_c, 4, 72, 90
6, 117119, Note_on_c, 4, 72, 0
6, 117120, Note_on_c, 4, 70, 90
6, 117179, Note_on_c, 4, 70, 0
6, 117180, Note_on_c, 4, 69, 90
6, 117299, Note_on_c, 4, 69, 0
6, 117300, Note_on_c, 4, 67, 90
6, 117359, Note_on_c, 4, 67, 0
6, 117360, Note_on_c, 4, 65, 90
6, 117419, Note_on_c, 4, 65, 0
6, 117420, Note_on_c, 4, 65, 90
6, 117479, Note_on_c, 4, 65, 0
6, 117480, Note_on_c, 4, 77, 90
6, 117539, Note_on_c, 4, 77, 0
6, 117540, Note_on_c, 4, 72, 90
6, 117599, Note_on_c, 4, 72, 0
6, 117600, Note_on_c, 4, 75, 90
6, 117659, Note_on_c, 4, 75, 0
6, 117720, Note_on_c, 4, 74, 90
6, 117779, Note_on_c, 4, 74, 0
6, 117780, Note_on_c, 4, 69, 90
6, 117839, Note_on_c, 4, 69, 0
6, 117840, Note_on_c, 4, 72, 90
6, 117899, Note_on_c, 4, 72, 0
6, 117960, Note_on_c, 4, 70, 90
6, 118019, Note_on_c, 4, 70, 0
6, 118020, Note_on_c, 4, 64, 90
6, 118079, Note_on_c, 4, 64, 0
6, 118080, Note_on_c, 4, 67, 90
6, 118139, Note_on_c, 4, 67, 0
6, 118140, Note_on_c, 4, 67, 90
6, 118199, Note_on_c, 4, 67, 0
6, 118200, Note_on_c, 4, 65, 90
6, 118259, Note_on_c, 4, 65, 0
6, 120060, Program_c, 4, 40
6, 120060, Note_on_c, 4, 81, 110
6, 120119, Note_on_c, 4, 81, 0
6, 120120, Note_on_c, 4, 69, 110
6, 120209, Note_on_c, 4, 69, 0
6, 120210, Note_on_c, 4, 71, 110
6, 120239, Note_on_c, 4, 71, 0
6, 120240, Note_on_c, 4, 72, 110
6, 120269, Note_on_c, 4, 72, 0
6, 120270, Note_on_c, 4, 74, 110
6, 120299, Note_on_c, 4, 74, 0
6, 120300, Note_on_c, 4, 76, 110
6, 120359, Note_on_c, 4, 76, 0
6, 120360, Note_on_c, 4, 76, 110
6, 120419, Note_on_c, 4, 76, 0
6, 120420, Note_on_c, 4, 76, 110
6, 120479, Note_on_c, 4, 76, 0
6, 120480, Note_on_c, 4, 76, 110
6, 120539, Note_on_c, 4, 76, 0
6, 120540, Note_on_c, 4, 77, 110
6, 120569, Note_on_c, 4, 77, 0
6, 120570, Note_on_c, 4, 76, 110
6, 120599, Note_on_c, 4, 76, 0
6, 120600, Note_on_c, 4, 77, 110
6, 120629, Note_on_c, 4, 77, 0
6, 120630, Note_on_c, 4, 79, 110
6, 120659, Note_on_c, 4, 79, 0
6, 120660, Note_on_c, 4, 77, 110
6, 120689, Note_on_c, 4, 77, 0
6, 120690, Note_on_c, 4, 76, 110
6, 120719, Note_on_c, 4, 76, 0
6, 120720, Note_on_c, 4, 74, 110
6, 120749, Note_on_c, 4, 74, 0
6, 120750, Note_on_c, 4, 77, 110
6, 120779, Note_on_c, 4, 77, 0
6, 120780, Note_on_c, 4, 76, 110
6, 120809, Note_on_c, 4, 76, 0
6, 120810, Note_on_c, 4, 74, 110
6, 120839, Note_on_c, 4, 74, 0
6, 120840, Note_on_c, 4, 76, 110
6, 120869, Note_on_c, 4, 76, 0
6, 120870, Note_on_c, 4, 77, 110
6, 120899, Note_on_c, 4, 77, 0
6, 120900, Note_on_c, 4, 76, 110
6, 120929, Note_on_c, 4, 76, 0
6, 120930, Note_on_c, 4, 74, 110
6, 120959, Note_on_c, 4, 74, 0
6, 120960, Note_on_c, 4, 72, 110
6, 120989, Note_on_c, 4, 72, 0
6, 120990, Note_on_c, 4, 76, 110
6, 121019, Note_on_c, 4, 76, 0
6, 121020, Note_on_c, 4, 74, 110
6, 121049, Note_on_c, 4, 74, 0
6, 121050, Note_on_c, 4, 72, 110
6, 121079, Note_on_c, 4, 72, 0
6, 121080, Note_on_c, 4, 74, 110
6, 121109, Note_on_c, 4, 74, 0
6, 121110, Note_on_c, 4, 76, 110
6, 121139, Note_on_c, 4, 76, 0
6, 121140, Note_on_c, 4, 74, 110
6, 121169, Note_on_c, 4, 74, 0
6, 121170, Note_on_c, 4, 72, 110
6, 121199, Note_on_c, 4, 72, 0
6, 121200, Note_on_c, 4, 71, 110
6, 121229, Note_on_c, 4, 71, 0
6, 121230, Note_on_c, 4, 74, 110
6, 121259, Note_on_c, 4, 74, 0
6, 121260, Note_on_c, 4, 72, 110
6, 121289, Note_on_c, 4, 72, 0
6, 121290, Note_on_c, 4, 71, 110
6, 121319, Note_on_c, 4, 71, 0
6, 121320, Note_on_c, 4, 69, 110
6, 121349, Note_on_c, 4, 69, 0
6, 121350, Note_on_c, 4, 71, 110
6, 121379, Note_on_c, 4, 71, 0
6, 121380, Note_on_c, 4, 73, 110
6, 121409, Note_on_c, 4, 73, 0
6, 121410, Note_on_c, 4, 74, 110
6, 121439, Note_on_c, 4, 74, 0
6, 121440, Note_on_c, 4, 76, 110
6, 121469, Note_on_c, 4, 76, 0
6, 121470, Note_on_c, 4, 77, 110
6, 121499, Note_on_c, 4, 77, 0
6, 121500, Note_on_c, 4, 79, 110
6, 121529, Note_on_c, 4, 79, 0
6, 121530, Note_on_c, 4, 77, 110
6, 121559, Note_on_c, 4, 77, 0
6, 121560, Note_on_c, 4, 79, 110
6, 121589, Note_on_c, 4, 79, 0
6, 121590, Note_on_c, 4, 81, 110
6, 121619, Note_on_c, 4, 81, 0
6, 121620, Note_on_c, 4, 79, 110
6, 121649, Note_on_c, 4, 79, 0
6, 121650, Note_on_c, 4, 77, 110
6, 121679, Note_on_c, 4, 77, 0
6, 121680, Note_on_c, 4, 76, 110
6, 121709, Note_on_c, 4, 76, 0
6, 121710, Note_on_c, 4, 79, 110
6, 121739, Note_on_c, 4, 79, 0
6, 121740, Note_on_c, 4, 77, 110
6, 121799, Note_on_c, 4, 77, 0
6, 121800, Note_on_c, 4, 74, 110
6, 121859, Note_on_c, 4, 74, 0
6, 121920, Note_on_c, 4, 74, 110
6, 121979, Note_on_c, 4, 74, 0
6, 121980, Note_on_c, 4, 75, 110
6, 122039, Note_on_c, 4, 75, 0
6, 122040, Note_on_c, 4, 72, 110
6, 122099, Note_on_c, 4, 72, 0
6, 122100, Note_on_c, 4, 69, 110
6, 122159, Note_on_c, 4, 69, 0
6, 122160, Note_on_c, 4, 78, 110
6, 122219, Note_on_c, 4, 78, 0
6, 122220, Note_on_c, 4, 79, 110
6, 122279, Note_on_c, 4, 79, 0
6, 122280, Note_on_c, 4, 67, 110
6, 122309, Note_on_c, 4, 67, 0
6, 122310, Note_on_c, 4, 69, 110
6, 122339, Note_on_c, 4, 69, 0
6, 122340, Note_on_c, 4, 71, 110
6, 122369, Note_on_c, 4, 71, 0
6, 122370, Note_on_c, 4, 73, 110
6, 122399, Note_on_c, 4, 73, 0
6, 122400, Note_on_c, 4, 74, 110
6, 122429, Note_on_c, 4, 74, 0
6, 122430, Note_on_c, 4, 76, 110
6, 122459, Note_on_c, 4, 76, 0
6, 122460, Note_on_c, 4, 77, 110
6, 122489, Note_on_c, 4, 77, 0
6, 122490, Note_on_c, 4, 79, 110
6, 122519, Note_on_c, 4, 79, 0
6, 122520, Note_on_c, 4, 76, 110
6, 122549, Note_on_c, 4, 76, 0
6, 122550, Note_on_c, 4, 77, 110
6, 122579, Note_on_c, 4, 77, 0
6, 122580, Note_on_c, 4, 79, 110
6, 122609, Note_on_c, 4, 79, 0
6, 122610, Note_on_c, 4, 77, 110
6, 122639, Note_on_c, 4, 77, 0
6, 122640, Note_on_c, 4, 76, 110
6, 122669, Note_on_c, 4, 76, 0
6, 122670, Note_on_c, 4, 74, 110
6, 122699, Note_on_c, 4, 74, 0
6, 122700, Note_on_c, 4, 73, 110
6, 122759, Note_on_c, 4, 73, 0
6, 122760, Note_on_c, 4, 69, 110
6, 122819, Note_on_c, 4, 69, 0
6, 122880, Note_on_c, 4, 81, 110
6, 122999, Note_on_c, 4, 81, 0
6, 123000, Note_on_c, 4, 79, 110
6, 123029, Note_on_c, 4, 79, 0
6, 123030, Note_on_c, 4, 77, 110
6, 123059, Note_on_c, 4, 77, 0
6, 123060, Note_on_c, 4, 79, 110
6, 123119, Note_on_c, 4, 79, 0
6, 123120, Note_on_c, 4, 79, 110
6, 123239, Note_on_c, 4, 79, 0
6, 123240, Note_on_c, 4, 77, 110
6, 123269, Note_on_c, 4, 77, 0
6, 123270, Note_on_c, 4, 76, 110
6, 123299, Note_on_c, 4, 76, 0
6, 123300, Note_on_c, 4, 77, 110
6, 123359, Note_on_c, 4, 77, 0
6, 123360, Note_on_c, 4, 77, 110
6, 123479, Note_on_c, 4, 77, 0
6, 123480, Note_on_c, 4, 76, 110
6, 123509, Note_on_c, 4, 76, 0
6, 123510, Note_on_c, 4, 74, 110
6, 123539, Note_on_c, 4, 74, 0
6, 123540, Note_on_c, 4, 76, 110
6, 123599, Note_on_c, 4, 76, 0
6, 123600, Note_on_c, 4, 76, 110
6, 123719, Note_on_c, 4, 76, 0
6, 123720, Note_on_c, 4, 74, 110
6, 123749, Note_on_c, 4, 74, 0
6, 123750, Note_on_c, 4, 76, 110
6, 123779, Note_on_c, 4, 76, 0
6, 123780, Note_on_c, 4, 77, 110
6, 123839, Note_on_c, 4, 77, 0
6, 123840, Note_on_c, 4, 69, 110
6, 123899, Note_on_c, 4, 69, 0
6, 123900, Note_on_c, 4, 67, 110
6, 124079, Note_on_c, 4, 67, 0
6, 124080, Note_on_c, 4, 65, 110
6, 124109, Note_on_c, 4, 65, 0
6, 124110, Note_on_c, 4, 64, 110
6, 124139, Note_on_c, 4, 64, 0
6, 124140, Note_on_c, 4, 65, 110
6, 124199, Note_on_c, 4, 65, 0
6, 124200, Note_on_c, 4, 64, 110
6, 124229, Note_on_c, 4, 64, 0
6, 124230, Note_on_c, 4, 62, 110
6, 124259, Note_on_c, 4, 62, 0
6, 124260, Note_on_c, 4, 61, 110
6, 124279, Note_on_c, 4, 61, 0
6, 124280, Note_on_c, 4, 62, 110
6, 124299, Note_on_c, 4, 62, 0
6, 124300, Note_on_c, 4, 61, 110
6, 124319, Note_on_c, 4, 61, 0
6, 124320, Note_on_c, 4, 62, 110
6, 124334, Note_on_c, 4, 62, 0
6, 124335, Note_on_c, 4, 61, 110
6, 124349, Note_on_c, 4, 61, 0
6, 124350, Note_on_c, 4, 62, 110
6, 124379, Note_on_c, 4, 62, 0
6, 124380, Note_on_c, 4, 62, 110
6, 124439, Note_on_c, 4, 62, 0
6, 124500, Note_on_c, 4, 77, 110
6, 124559, Note_on_c, 4, 77, 0
6, 124620, Note_on_c, 4, 76, 110
6, 124679, Note_on_c, 4, 76, 0
6, 124740, Note_on_c, 4, 74, 110
6, 124799, Note_on_c, 4, 74, 0
6, 124860, Note_on_c, 4, 74, 110
6, 124919, Note_on_c, 4, 74, 0
6, 124980, Note_on_c, 4, 72, 110
6, 125039, Note_on_c, 4, 72, 0
6, 125100, Note_on_c, 4, 72, 110
6, 125159, Note_on_c, 4, 72, 0
6, 125220, Note_on_c, 4, 74, 110
6, 125279, Note_on_c, 4, 74, 0
6, 125340, Note_on_c, 4, 74, 110
6, 125399, Note_on_c, 4, 74, 0
6, 125460, Note_on_c, 4, 73, 110
6, 125519, Note_on_c, 4, 73, 0
6, 125580, Note_on_c, 4, 74, 110
6, 125639, Note_on_c, 4, 74, 0
6, 126060, Note_on_c, 4, 64, 110
6, 126119, Note_on_c, 4, 64, 0
6, 126120, Note_on_c, 4, 76, 110
6, 126209, Note_on_c, 4, 76, 0
6, 126210, Note_on_c, 4, 74, 110
6, 126239, Note_on_c, 4, 74, 0
6, 126240, Note_on_c, 4, 72, 110
6, 126269, Note_on_c, 4, 72, 0
6, 126270, Note_on_c, 4, 71, 110
6, 126299, Note_on_c, 4, 71, 0
6, 126300, Note_on_c, 4, 69, 110
6, 126359, Note_on_c, 4, 69, 0
6, 126360, Note_on_c, 4, 69, 110
6, 126419, Note_on_c, 4, 69, 0
6, 126420, Note_on_c, 4, 69, 110
6, 126479, Note_on_c, 4, 69, 0
6, 126480, Note_on_c, 4, 69, 110
6, 126539, Note_on_c, 4, 69, 0
6, 126540, Note_on_c, 4, 67, 110
6, 126569, Note_on_c, 4, 67, 0
6, 126570, Note_on_c, 4, 65, 110
6, 126599, Note_on_c, 4, 65, 0
6, 126600, Note_on_c, 4, 67, 110
6, 126629, Note_on_c, 4, 67, 0
6, 126630, Note_on_c, 4, 69, 110
6, 126659, Note_on_c, 4, 69, 0
6, 126660, Note_on_c, 4, 67, 110
6, 126689, Note_on_c, 4, 67, 0
6, 126690, Note_on_c, 4, 65, 110
6, 126719, Note_on_c, 4, 65, 0
6, 126720, Note_on_c, 4, 64, 110
6, 126749, Note_on_c, 4, 64, 0
6, 126750, Note_on_c, 4, 67, 110
6, 126779, Note_on_c, 4, 67, 0
6, 126780, Note_on_c, 4, 65, 110
6, 126839, Note_on_c, 4, 65, 0
6, 126840, Note_on_c, 4, 62, 110
6, 126899, Note_on_c, 4, 62, 0
6, 126960, Note_on_c, 4, 71, 110
6, 127019, Note_on_c, 4, 71, 0
6, 127020, Note_on_c, 4, 76, 110
6, 127049, Note_on_c, 4, 76, 0
6, 127050, Note_on_c, 4, 74, 110
6, 127079, Note_on_c, 4, 74, 0
6, 127080, Note_on_c, 4, 72, 110
6, 127109, Note_on_c, 4, 72, 0
6, 127110, Note_on_c, 4, 71, 110
6, 127139, Note_on_c, 4, 71, 0
6, 127140, Note_on_c, 4, 69, 110
6, 127199, Note_on_c, 4, 69, 0
6, 127200, Note_on_c, 4, 69, 110
6, 127289, Note_on_c, 4, 69, 0
6, 127290, Note_on_c, 4, 66, 110
6, 127319, Note_on_c, 4, 66, 0
6, 127320, Note_on_c, 4, 68, 110
6, 127379, Note_on_c, 4, 68, 0
6, 127410, Note_on_c, 4, 71, 110
6, 127439, Note_on_c, 4, 71, 0
6, 127440, Note_on_c, 4, 76, 110
6, 127469, Note_on_c, 4, 76, 0
6, 127470, Note_on_c, 4, 74, 110
6, 127499, Note_on_c, 4, 74, 0
6, 127500, Note_on_c, 4, 72, 110
6, 127529, Note_on_c, 4, 72, 0
6, 127530, Note_on_c, 4, 71, 110
6, 127559, Note_on_c, 4, 71, 0
6, 127560, Note_on_c, 4, 69, 110
6, 127589, Note_on_c, 4, 69, 0
6, 127590, Note_on_c, 4, 68, 110
6, 127619, Note_on_c, 4, 68, 0
6, 127620, Note_on_c, 4, 69, 110
6, 127679, Note_on_c, 4, 69, 0
6, 128460, Note_on_c, 4, 74, 110
6, 128519, Note_on_c, 4, 74, 0
6, 128520, Note_on_c, 4, 62, 110
6, 128609, Note_on_c, 4, 62, 0
6, 128610, Note_on_c, 4, 64, 110
6, 128639, Note_on_c, 4, 64, 0
6, 128640, Note_on_c, 4, 65, 110
6, 128669, Note_on_c, 4, 65, 0
6, 128670, Note_on_c, 4, 67, 110
6, 128699, Note_on_c, 4, 67, 0
6, 128700, Note_on_c, 4, 69, 110
6, 128759, Note_on_c, 4, 69, 0
6, 128760, Note_on_c, 4, 69, 110
6, 128819, Note_on_c, 4, 69, 0
6, 128820, Note_on_c, 4, 69, 110
6, 128879, Note_on_c, 4, 69, 0
6, 128880, Note_on_c, 4, 69, 110
6, 128939, Note_on_c, 4, 69, 0
6, 128940, Note_on_c, 4, 70, 110
6, 128969, Note_on_c, 4, 70, 0
6, 128970, Note_on_c, 4, 69, 110
6, 128999, Note_on_c, 4, 69, 0
6, 129000, Note_on_c, 4, 70, 110
6, 129029, Note_on_c, 4, 70, 0
6, 129030, Note_on_c, 4, 72, 110
6, 129059, Note_on_c, 4, 72, 0
6, 129060, Note_on_c, 4, 70, 110
6, 129089, Note_on_c, 4, 70, 0
6, 129090, Note_on_c, 4, 69, 110
6, 129119, Note_on_c, 4, 69, 0
6, 129120, Note_on_c, 4, 67, 110
6, 129149, Note_on_c, 4, 67, 0
6, 129150, Note_on_c, 4, 70, 110
6, 129179, Note_on_c, 4, 70, 0
6, 129180, Note_on_c, 4, 69, 110
6, 129209, Note_on_c, 4, 69, 0
6, 129210, Note_on_c, 4, 67, 110
6, 129239, Note_on_c, 4, 67, 0
6, 129240, Note_on_c, 4, 69, 110
6, 129269, Note_on_c, 4, 69, 0
6, 129270, Note_on_c, 4, 70, 110
6, 129299, Note_on_c, 4, 70, 0
6, 129300, Note_on_c, 4, 69, 110
6, 129329, Note_on_c, 4, 69, 0
6, 129330, Note_on_c, 4, 67, 110
6, 129359, Note_on_c, 4, 67, 0
6, 129360, Note_on_c, 4, 65, 110
6, 129389, Note_on_c, 4, 65, 0
6, 129390, Note_on_c, 4, 69, 110
6, 129419, Note_on_c, 4, 69, 0
6, 129420, Note_on_c, 4, 67, 110
6, 129449, Note_on_c, 4, 67, 0
6, 129450, Note_on_c, 4, 65, 110
6, 129479, Note_on_c, 4, 65, 0
6, 129480, Note_on_c, 4, 67, 110
6, 129509, Note_on_c, 4, 67, 0
6, 129510, Note_on_c, 4, 69, 110
6, 129539, Note_on_c, 4, 69, 0
6, 129540, Note_on_c, 4, 67, 110
6, 129569, Note_on_c, 4, 67, 0
6, 129570, Note_on_c, 4, 65, 110
6, 129599, Note_on_c, 4, 65, 0
6, 129600, Note_on_c, 4, 64, 110
6, 129629, Note_on_c, 4, 64, 0
6, 129630, Note_on_c, 4, 67, 110
6, 129659, Note_on_c, 4, 67, 0
6, 129660, Note_on_c, 4, 65, 110
6, 129719, Note_on_c, 4, 65, 0
6, 129720, Note_on_c, 4, 60, 110
6, 129779, Note_on_c, 4, 60, 0
6, 129780, Note_on_c, 4, 65, 110
6, 129959, Note_on_c, 4, 65, 0
6, 129960, Note_on_c, 4, 64, 110
6, 129989, Note_on_c, 4, 64, 0
6, 129990, Note_on_c, 4, 62, 110
6, 130019, Note_on_c, 4, 62, 0
6, 130020, Note_on_c, 4, 64, 110
6, 130139, Note_on_c, 4, 64, 0
6, 130140, Note_on_c, 4, 65, 110
6, 130199, Note_on_c, 4, 65, 0
6, 130380, Note_on_c, 4, 79, 110
6, 130439, Note_on_c, 4, 79, 0
6, 130440, Note_on_c, 4, 67, 110
6, 130529, Note_on_c, 4, 67, 0
6, 130530, Note_on_c, 4, 69, 110
6, 130559, Note_on_c, 4, 69, 0
6, 130560, Note_on_c, 4, 71, 110
6, 130589, Note_on_c, 4, 71, 0
6, 130590, Note_on_c, 4, 73, 110
6, 130619, Note_on_c, 4, 73, 0
6, 130620, Note_on_c, 4, 74, 110
6, 130679, Note_on_c, 4, 74, 0
6, 130680, Note_on_c, 4, 74, 110
6, 130739, Note_on_c, 4, 74, 0
6, 130740, Note_on_c, 4, 74, 110
6, 130799, Note_on_c, 4, 74, 0
6, 130800, Note_on_c, 4, 74, 110
6, 130859, Note_on_c, 4, 74, 0
6, 130860, Note_on_c, 4, 76, 110
6, 130889, Note_on_c, 4, 76, 0
6, 130890, Note_on_c, 4, 74, 110
6, 130919, Note_on_c, 4, 74, 0
6, 130920, Note_on_c, 4, 76, 110
6, 130949, Note_on_c, 4, 76, 0
6, 130950, Note_on_c, 4, 77, 110
6, 130979, Note_on_c, 4, 77, 0
6, 130980, Note_on_c, 4, 76, 110
6, 131009, Note_on_c, 4, 76, 0
6, 131010, Note_on_c, 4, 74, 110
6, 131039, Note_on_c, 4, 74, 0
6, 131040, Note_on_c, 4, 73, 110
6, 131069, Note_on_c, 4, 73, 0
6, 131070, Note_on_c, 4, 76, 110
6, 131099, Note_on_c, 4, 76, 0
6, 131100, Note_on_c, 4, 74, 110
6, 131129, Note_on_c, 4, 74, 0
6, 131130, Note_on_c, 4, 73, 110
6, 131159, Note_on_c, 4, 73, 0
6, 131160, Note_on_c, 4, 74, 110
6, 131189, Note_on_c, 4, 74, 0
6, 131190, Note_on_c, 4, 76, 110
6, 131219, Note_on_c, 4, 76, 0
6, 131220, Note_on_c, 4, 74, 110
6, 131249, Note_on_c, 4, 74, 0
6, 131250, Note_on_c, 4, 73, 110
6, 131279, Note_on_c, 4, 73, 0
6, 131280, Note_on_c, 4, 71, 110
6, 131309, Note_on_c, 4, 71, 0
6, 131310, Note_on_c, 4, 74, 110
6, 131339, Note_on_c, 4, 74, 0
6, 131340, Note_on_c, 4, 73, 110
6, 131399, Note_on_c, 4, 73, 0
6, 131400, Note_on_c, 4, 69, 110
6, 131459, Note_on_c, 4, 69, 0
6, 131580, Note_on_c, 4, 74, 110
6, 131639, Note_on_c, 4, 74, 0
6, 131640, Note_on_c, 4, 62, 110
6, 131729, Note_on_c, 4, 62, 0
6, 131730, Note_on_c, 4, 64, 110
6, 131759, Note_on_c, 4, 64, 0
6, 131760, Note_on_c, 4, 65, 110
6, 131789, Note_on_c, 4, 65, 0
6, 131790, Note_on_c, 4, 67, 110
6, 131819, Note_on_c, 4, 67, 0
6, 131820, Note_on_c, 4, 69, 110
6, 131879, Note_on_c, 4, 69, 0
6, 131880, Note_on_c, 4, 69, 110
6, 131939, Note_on_c, 4, 69, 0
6, 131940, Note_on_c, 4, 69, 110
6, 131999, Note_on_c, 4, 69, 0
6, 132000, Note_on_c, 4, 69, 110
6, 132059, Note_on_c, 4, 69, 0
6, 132060, Note_on_c, 4, 70, 110
6, 132089, Note_on_c, 4, 70, 0
6, 132090, Note_on_c, 4, 69, 110
6, 132119, Note_on_c, 4, 69, 0
6, 132120, Note_on_c, 4, 70, 110
6, 132149, Note_on_c, 4, 70, 0
6, 132150, Note_on_c, 4, 72, 110
6, 132179, Note_on_c, 4, 72, 0
6, 132180, Note_on_c, 4, 70, 110
6, 132209, Note_on_c, 4, 70, 0
6, 132210, Note_on_c, 4, 69, 110
6, 132239, Note_on_c, 4, 69, 0
6, 132240, Note_on_c, 4, 67, 110
6, 132269, Note_on_c, 4, 67, 0
6, 132270, Note_on_c, 4, 70, 110
6, 132299, Note_on_c, 4, 70, 0
6, 132300, Note_on_c, 4, 69, 110
6, 132329, Note_on_c, 4, 69, 0
6, 132330, Note_on_c, 4, 67, 110
6, 132359, Note_on_c, 4, 67, 0
6, 132360, Note_on_c, 4, 65, 110
6, 132389, Note_on_c, 4, 65, 0
6, 132390, Note_on_c, 4, 64, 110
6, 132419, Note_on_c, 4, 64, 0
6, 132420, Note_on_c, 4, 62, 110
6, 132479, Note_on_c, 4, 62, 0
6, 132480, Note_on_c, 4, 74, 110
6, 132569, Note_on_c, 4, 74, 0
6, 132570, Note_on_c, 4, 73, 110
6, 132599, Note_on_c, 4, 73, 0
6, 132600, Note_on_c, 4, 74, 110
6, 132629, Note_on_c, 4, 74, 0
6, 132630, Note_on_c, 4, 76, 110
6, 132659, Note_on_c, 4, 76, 0
6, 132660, Note_on_c, 4, 73, 110
6, 132689, Note_on_c, 4, 73, 0
6, 132690, Note_on_c, 4, 74, 110
6, 132719, Note_on_c, 4, 74, 0
6, 132720, Note_on_c, 4, 76, 110
6, 132749, Note_on_c, 4, 76, 0
6, 132750, Note_on_c, 4, 73, 110
6, 132779, Note_on_c, 4, 73, 0
6, 132780, Note_on_c, 4, 69, 110
6, 132809, Note_on_c, 4, 69, 0
6, 132810, Note_on_c, 4, 76, 110
6, 132839, Note_on_c, 4, 76, 0
6, 132840, Note_on_c, 4, 74, 110
6, 132869, Note_on_c, 4, 74, 0
6, 132870, Note_on_c, 4, 73, 110
6, 132899, Note_on_c, 4, 73, 0
6, 132900, Note_on_c, 4, 74, 110
6, 132929, Note_on_c, 4, 74, 0
6, 132930, Note_on_c, 4, 76, 110
6, 132959, Note_on_c, 4, 76, 0
6, 132960, Note_on_c, 4, 77, 110
6, 132989, Note_on_c, 4, 77, 0
6, 132990, Note_on_c, 4, 69, 110
6, 133019, Note_on_c, 4, 69, 0
6, 133020, Note_on_c, 4, 70, 110
6, 133049, Note_on_c, 4, 70, 0
6, 133050, Note_on_c, 4, 69, 110
6, 133079, Note_on_c, 4, 69, 0
6, 133080, Note_on_c, 4, 70, 110
6, 133109, Note_on_c, 4, 70, 0
6, 133110, Note_on_c, 4, 72, 110
6, 133139, Note_on_c, 4, 72, 0
6, 133140, Note_on_c, 4, 70, 110
6, 133169, Note_on_c, 4, 70, 0
6, 133170, Note_on_c, 4, 69, 110
6, 133199, Note_on_c, 4, 69, 0
6, 133200, Note_on_c, 4, 67, 110
6, 133229, Note_on_c, 4, 67, 0
6, 133230, Note_on_c, 4, 65, 110
6, 133259, Note_on_c, 4, 65, 0
6, 133260, Note_on_c, 4, 64, 110
6, 133319, Note_on_c, 4, 64, 0
6, 133740, Note_on_c, 4, 69, 110
6, 133799, Note_on_c, 4, 69, 0
6, 133800, Note_on_c, 4, 81, 110
6, 133889, Note_on_c, 4, 81, 0
6, 133890, Note_on_c, 4, 79, 110
6, 133919, Note_on_c, 4, 79, 0
6, 133920, Note_on_c, 4, 77, 110
6, 133949, Note_on_c, 4, 77, 0
6, 133950, Note_on_c, 4, 76, 110
6, 133979, Note_on_c, 4, 76, 0
6, 133980, Note_on_c, 4, 74, 110
6, 134039, Note_on_c, 4, 74, 0
6, 135900, Note_on_c, 4, 81, 110
6, 135959, Note_on_c, 4, 81, 0
6, 135960, Note_on_c, 4, 69, 110
6, 136049, Note_on_c, 4, 69, 0
6, 136050, Note_on_c, 4, 71, 110
6, 136079, Note_on_c, 4, 71, 0
6, 136080, Note_on_c, 4, 72, 110
6, 136109, Note_on_c, 4, 72, 0
6, 136110, Note_on_c, 4, 74, 110
6, 136139, Note_on_c, 4, 74, 0
6, 136140, Note_on_c, 4, 76, 110
6, 136199, Note_on_c, 4, 76, 0
6, 136200, Note_on_c, 4, 76, 110
6, 136259, Note_on_c, 4, 76, 0
6, 136260, Note_on_c, 4, 76, 110
6, 136319, Note_on_c, 4, 76, 0
6, 136320, Note_on_c, 4, 76, 110
6, 136379, Note_on_c, 4, 76, 0
6, 136380, Note_on_c, 4, 77, 110
6, 136409, Note_on_c, 4, 77, 0
6, 136410, Note_on_c, 4, 76, 110
6, 136439, Note_on_c, 4, 76, 0
6, 136440, Note_on_c, 4, 77, 110
6, 136469, Note_on_c, 4, 77, 0
6, 136470, Note_on_c, 4, 79, 110
6, 136499, Note_on_c, 4, 79, 0
6, 136500, Note_on_c, 4, 77, 110
6, 136529, Note_on_c, 4, 77, 0
6, 136530, Note_on_c, 4, 76, 110
6, 136559, Note_on_c, 4, 76, 0
6, 136560, Note_on_c, 4, 74, 110
6, 136589, Note_on_c, 4, 74, 0
6, 136590, Note_on_c, 4, 77, 110
6, 136619, Note_on_c, 4, 77, 0
6, 136620, Note_on_c, 4, 76, 110
6, 136649, Note_on_c, 4, 76, 0
6, 136650, Note_on_c, 4, 74, 110
6, 136679, Note_on_c, 4, 74, 0
6, 136680, Note_on_c, 4, 76, 110
6, 136709, Note_on_c, 4, 76, 0
6, 136710, Note_on_c, 4, 77, 110
6, 136739, Note_on_c, 4, 77, 0
6, 136740, Note_on_c, 4, 76, 110
6, 136769, Note_on_c, 4, 76, 0
6, 136770, Note_on_c, 4, 74, 110
6, 136799, Note_on_c, 4, 74, 0
6, 136800, Note_on_c, 4, 72, 110
6, 136829, Note_on_c, 4, 72, 0
6, 136830, Note_on_c, 4, 76, 110
6, 136859, Note_on_c, 4, 76, 0
6, 136860, Note_on_c, 4, 74, 110
6, 136889, Note_on_c, 4, 74, 0
6, 136890, Note_on_c, 4, 72, 110
6, 136919, Note_on_c, 4, 72, 0
6, 136920, Note_on_c, 4, 74, 110
6, 136949, Note_on_c, 4, 74, 0
6, 136950, Note_on_c, 4, 76, 110
6, 136979, Note_on_c, 4, 76, 0
6, 136980, Note_on_c, 4, 74, 110
6, 137009, Note_on_c, 4, 74, 0
6, 137010, Note_on_c, 4, 72, 110
6, 137039, Note_on_c, 4, 72, 0
6, 137040, Note_on_c, 4, 71, 110
6, 137069, Note_on_c, 4, 71, 0
6, 137070, Note_on_c, 4, 74, 110
6, 137099, Note_on_c, 4, 74, 0
6, 137100, Note_on_c, 4, 72, 110
6, 137129, Note_on_c, 4, 72, 0
6, 137130, Note_on_c, 4, 71, 110
6, 137159, Note_on_c, 4, 71, 0
6, 137160, Note_on_c, 4, 69, 110
6, 137189, Note_on_c, 4, 69, 0
6, 137190, Note_on_c, 4, 71, 110
6, 137219, Note_on_c, 4, 71, 0
6, 137220, Note_on_c, 4, 73, 110
6, 137249, Note_on_c, 4, 73, 0
6, 137250, Note_on_c, 4, 74, 110
6, 137279, Note_on_c, 4, 74, 0
6, 137280, Note_on_c, 4, 76, 110
6, 137309, Note_on_c, 4, 76, 0
6, 137310, Note_on_c, 4, 77, 110
6, 137339, Note_on_c, 4, 77, 0
6, 137340, Note_on_c, 4, 79, 110
6, 137369, Note_on_c, 4, 79, 0
6, 137370, Note_on_c, 4, 77, 110
6, 137399, Note_on_c, 4, 77, 0
6, 137400, Note_on_c, 4, 79, 110
6, 137429, Note_on_c, 4, 79, 0
6, 137430, Note_on_c, 4, 81, 110
6, 137459, Note_on_c, 4, 81, 0
6, 137460, Note_on_c, 4, 79, 110
6, 137489, Note_on_c, 4, 79, 0
6, 137490, Note_on_c, 4, 77, 110
6, 137519, Note_on_c, 4, 77, 0
6, 137520, Note_on_c, 4, 76, 110
6, 137549, Note_on_c, 4, 76, 0
6, 137550, Note_on_c, 4, 79, 110
6, 137579, Note_on_c, 4, 79, 0
6, 137580, Note_on_c, 4, 77, 110
6, 137639, Note_on_c, 4, 77, 0
6, 137640, Note_on_c, 4, 74, 110
6, 137699, Note_on_c, 4, 74, 0
6, 137760, Note_on_c, 4, 74, 110
6, 137819, Note_on_c, 4, 74, 0
6, 137820, Note_on_c, 4, 75, 110
6, 137879, Note_on_c, 4, 75, 0
6, 137880, Note_on_c, 4, 72, 110
6, 137939, Note_on_c, 4, 72, 0
6, 137940, Note_on_c, 4, 69, 110
6, 137999, Note_on_c, 4, 69, 0
6, 138000, Note_on_c, 4, 78, 110
6, 138059, Note_on_c, 4, 78, 0
6, 138060, Note_on_c, 4, 79, 110
6, 138119, Note_on_c, 4, 79, 0
6, 138120, Note_on_c, 4, 67, 110
6, 138149, Note_on_c, 4, 67, 0
6, 138150, Note_on_c, 4, 69, 110
6, 138179, Note_on_c, 4, 69, 0
6, 138180, Note_on_c, 4, 71, 110
6, 138209, Note_on_c, 4, 71, 0
6, 138210, Note_on_c, 4, 73, 110
6, 138239, Note_on_c, 4, 73, 0
6, 138240, Note_on_c, 4, 74, 110
6, 138269, Note_on_c, 4, 74, 0
6, 138270, Note_on_c, 4, 76, 110
6, 138299, Note_on_c, 4, 76, 0
6, 138300, Note_on_c, 4, 77, 110
6, 138329, Note_on_c, 4, 77, 0
6, 138330, Note_on_c, 4, 79, 110
6, 138359, Note_on_c, 4, 79, 0
6, 138360, Note_on_c, 4, 76, 110
6, 138389, Note_on_c, 4, 76, 0
6, 138390, Note_on_c, 4, 77, 110
6, 138419, Note_on_c, 4, 77, 0
6, 138420, Note_on_c, 4, 79, 110
6, 138449, Note_on_c, 4, 79, 0
6, 138450, Note_on_c, 4, 77, 110
6, 138479, Note_on_c, 4, 77, 0
6, 138480, Note_on_c, 4, 76, 110
6, 138509, Note_on_c, 4, 76, 0
6, 138510, Note_on_c, 4, 74, 110
6, 138539, Note_on_c, 4, 74, 0
6, 138540, Note_on_c, 4, 73, 110
6, 138599, Note_on_c, 4, 73, 0
6, 138600, Note_on_c, 4, 69, 110
6, 138659, Note_on_c, 4, 69, 0
6, 138720, Note_on_c, 4, 81, 110
6, 138839, Note_on_c, 4, 81, 0
6, 138840, Note_on_c, 4, 79, 110
6, 138869, Note_on_c, 4, 79, 0
6, 138870, Note_on_c, 4, 77, 110
6, 138899, Note_on_c, 4, 77, 0
6, 138900, Note_on_c, 4, 79, 110
6, 138959, Note_on_c, 4, 79, 0
6, 138960, Note_on_c, 4, 79, 110
6, 139079, Note_on_c, 4, 79, 0
6, 139080, Note_on_c, 4, 77, 110
6, 139109, Note_on_c, 4, 77, 0
6, 139110, Note_on_c, 4, 76, 110
6, 139139, Note_on_c, 4, 76, 0
6, 139140, Note_on_c, 4, 77, 110
6, 139199, Note_on_c, 4, 77, 0
6, 139200, Note_on_c, 4, 77, 110
6, 139319, Note_on_c, 4, 77, 0
6, 139320, Note_on_c, 4, 76, 110
6, 139349, Note_on_c, 4, 76, 0
6, 139350, Note_on_c, 4, 74, 110
6, 139379, Note_on_c, 4, 74, 0
6, 139380, Note_on_c, 4, 76, 110
6, 139439, Note_on_c, 4, 76, 0
6, 139440, Note_on_c, 4, 76, 110
6, 139559, Note_on_c, 4, 76, 0
6, 139560, Note_on_c, 4, 74, 110
6, 139589, Note_on_c, 4, 74, 0
6, 139590, Note_on_c, 4, 73, 110
6, 139619, Note_on_c, 4, 73, 0
6, 139620, Note_on_c, 4, 74, 110
6, 139799, Note_on_c, 4, 74, 0
6, 139800, Note_on_c, 4, 73, 110
6, 139829, Note_on_c, 4, 73, 0
6, 139830, Note_on_c, 4, 74, 110
6, 139859, Note_on_c, 4, 74, 0
6, 139860, Note_on_c, 4, 76, 110
6, 139919, Note_on_c, 4, 76, 0
6, 139920, Note_on_c, 4, 69, 110
6, 140039, Note_on_c, 4, 69, 0
6, 140040, Note_on_c, 4, 67, 110
6, 140069, Note_on_c, 4, 67, 0
6, 140070, Note_on_c, 4, 65, 110
6, 140099, Note_on_c, 4, 65, 0
6, 140100, Note_on_c, 4, 64, 110
6, 140119, Note_on_c, 4, 64, 0
6, 140120, Note_on_c, 4, 65, 110
6, 140139, Note_on_c, 4, 65, 0
6, 140140, Note_on_c, 4, 64, 110
6, 140159, Note_on_c, 4, 64, 0
6, 140160, Note_on_c, 4, 65, 110
6, 140174, Note_on_c, 4, 65, 0
6, 140175, Note_on_c, 4, 64, 110
6, 140189, Note_on_c, 4, 64, 0
6, 140190, Note_on_c, 4, 62, 110
6, 140219, Note_on_c, 4, 62, 0
6, 140220, Note_on_c, 4, 62, 110
6, 140339, Note_on_c, 4, 62, 0
6, 140520, Note_on_c, 4, 81, 110
6, 140639, Note_on_c, 4, 81, 0
6, 140640, Note_on_c, 4, 79, 110
6, 140669, Note_on_c, 4, 79, 0
6, 140670, Note_on_c, 4, 77, 110
6, 140699, Note_on_c, 4, 77, 0
6, 140700, Note_on_c, 4, 76, 110
6, 140759, Note_on_c, 4, 76, 0
6, 141240, Note_on_c, 4, 74, 110
6, 141359, Note_on_c, 4, 74, 0
6, 141360, Note_on_c, 4, 72, 110
6, 141389, Note_on_c, 4, 72, 0
6, 141390, Note_on_c, 4, 70, 110
6, 141419, Note_on_c, 4, 70, 0
6, 141420, Note_on_c, 4, 69, 110
6, 141479, Note_on_c, 4, 69, 0
6, 141720, Note_on_c, 4, 72, 110
6, 141839, Note_on_c, 4, 72, 0
6, 141840, Note_on_c, 4, 70, 110
6, 141869, Note_on_c, 4, 70, 0
6, 141870, Note_on_c, 4, 69, 110
6, 141899, Note_on_c, 4, 69, 0
6, 141900, Note_on_c, 4, 67, 110
6, 141959, Note_on_c, 4, 67, 0
6, 142080, Note_on_c, 4, 72, 110
6, 142109, Note_on_c, 4, 72, 0
6, 142140, Note_on_c, 4, 69, 110
6, 142169, Note_on_c, 4, 69, 0
6, 142320, Note_on_c, 4, 74, 110
6, 142349, Note_on_c, 4, 74, 0
6, 142380, Note_on_c, 4, 75, 110
6, 142409, Note_on_c, 4, 75, 0
6, 142560, Note_on_c, 4, 66, 110
6, 142589, Note_on_c, 4, 66, 0
6, 142620, Note_on_c, 4, 67, 110
6, 142649, Note_on_c, 4, 67, 0
6, 142800, Note_on_c, 4, 75, 110
6, 142829, Note_on_c, 4, 75, 0
6, 142860, Note_on_c, 4, 72, 110
6, 142889, Note_on_c, 4, 72, 0
6, 143040, Note_on_c, 4, 69, 110
6, 143069, Note_on_c, 4, 69, 0
6, 143100, Note_on_c, 4, 62, 110
6, 143129, Note_on_c, 4, 62, 0
6, 143820, Note_on_c, 4, 79, 110
6, 143879, Note_on_c, 4, 79, 0
6, 143880, Note_on_c, 4, 67, 110
6, 143969, Note_on_c, 4, 67, 0
6, 143970, Note_on_c, 4, 69, 110
6, 143999, Note_on_c, 4, 69, 0
6, 144000, Note_on_c, 4, 70, 110
6, 144029, Note_on_c, 4, 70, 0
6, 144030, Note_on_c, 4, 72, 110
6, 144059, Note_on_c, 4, 72, 0
6, 144060, Note_on_c, 4, 74, 110
6, 144119, Note_on_c, 4, 74, 0
6, 144120, Note_on_c, 4, 74, 110
6, 144179, Note_on_c, 4, 74, 0
6, 144180, Note_on_c, 4, 74, 110
6, 144239, Note_on_c, 4, 74, 0
6, 144240, Note_on_c, 4, 74, 110
6, 144299, Note_on_c, 4, 74, 0
6, 144300, Note_on_c, 4, 75, 110
6, 144329, Note_on_c, 4, 75, 0
6, 144330, Note_on_c, 4, 74, 110
6, 144359, Note_on_c, 4, 74, 0
6, 144360, Note_on_c, 4, 75, 110
6, 144389, Note_on_c, 4, 75, 0
6, 144390, Note_on_c, 4, 77, 110
6, 144419, Note_on_c, 4, 77, 0
6, 144420, Note_on_c, 4, 75, 110
6, 144449, Note_on_c, 4, 75, 0
6, 144450, Note_on_c, 4, 74, 110
6, 144479, Note_on_c, 4, 74, 0
6, 144480, Note_on_c, 4, 72, 110
6, 144509, Note_on_c, 4, 72, 0
6, 144510, Note_on_c, 4, 75, 110
6, 144539, Note_on_c, 4, 75, 0
6, 144540, Note_on_c, 4, 74, 110
6, 144569, Note_on_c, 4, 74, 0
6, 144570, Note_on_c, 4, 72, 110
6, 144599, Note_on_c, 4, 72, 0
6, 144600, Note_on_c, 4, 74, 110
6, 144629, Note_on_c, 4, 74, 0
6, 144630, Note_on_c, 4, 75, 110
6, 144659, Note_on_c, 4, 75, 0
6, 144660, Note_on_c, 4, 74, 110
6, 144689, Note_on_c, 4, 74, 0
6, 144690, Note_on_c, 4, 72, 110
6, 144719, Note_on_c, 4, 72, 0
6, 144720, Note_on_c, 4, 70, 110
6, 144749, Note_on_c, 4, 70, 0
6, 144750, Note_on_c, 4, 74, 110
6, 144779, Note_on_c, 4, 74, 0
6, 144780, Note_on_c, 4, 72, 110
6, 144809, Note_on_c, 4, 72, 0
6, 144810, Note_on_c, 4, 70, 110
6, 144839, Note_on_c, 4, 70, 0
6, 144840, Note_on_c, 4, 72, 110
6, 144869, Note_on_c, 4, 72, 0
6, 144870, Note_on_c, 4, 74, 110
6, 144899, Note_on_c, 4, 74, 0
6, 144900, Note_on_c, 4, 72, 110
6, 144929, Note_on_c, 4, 72, 0
6, 144930, Note_on_c, 4, 70, 110
6, 144959, Note_on_c, 4, 70, 0
6, 144960, Note_on_c, 4, 69, 110
6, 144989, Note_on_c, 4, 69, 0
6, 144990, Note_on_c, 4, 72, 110
6, 145019, Note_on_c, 4, 72, 0
6, 145020, Note_on_c, 4, 70, 110
6, 145049, Note_on_c, 4, 70, 0
6, 145050, Note_on_c, 4, 69, 110
6, 145079, Note_on_c, 4, 69, 0
6, 145080, Note_on_c, 4, 70, 110
6, 145109, Note_on_c, 4, 70, 0
6, 145110, Note_on_c, 4, 72, 110
6, 145139, Note_on_c, 4, 72, 0
6, 145140, Note_on_c, 4, 70, 110
6, 145169, Note_on_c, 4, 70, 0
6, 145170, Note_on_c, 4, 69, 110
6, 145199, Note_on_c, 4, 69, 0
6, 145200, Note_on_c, 4, 67, 110
6, 145229, Note_on_c, 4, 67, 0
6, 145230, Note_on_c, 4, 70, 110
6, 145259, Note_on_c, 4, 70, 0
6, 145260, Note_on_c, 4, 69, 110
6, 145289, Note_on_c, 4, 69, 0
6, 145290, Note_on_c, 4, 67, 110
6, 145319, Note_on_c, 4, 67, 0
6, 145320, Note_on_c, 4, 69, 110
6, 145349, Note_on_c, 4, 69, 0
6, 145350, Note_on_c, 4, 70, 110
6, 145379, Note_on_c, 4, 70, 0
6, 145380, Note_on_c, 4, 69, 110
6, 145409, Note_on_c, 4, 69, 0
6, 145410, Note_on_c, 4, 67, 110
6, 145439, Note_on_c, 4, 67, 0
6, 145440, Note_on_c, 4, 66, 110
6, 145469, Note_on_c, 4, 66, 0
6, 145470, Note_on_c, 4, 69, 110
6, 145499, Note_on_c, 4, 69, 0
6, 145500, Note_on_c, 4, 67, 110
6, 145559, Note_on_c, 4, 67, 0
6, 145560, Note_on_c, 4, 79, 110
6, 145679, Note_on_c, 4, 79, 0
6, 145680, Note_on_c, 4, 81, 110
6, 145709, Note_on_c, 4, 81, 0
6, 145710, Note_on_c, 4, 79, 110
6, 145739, Note_on_c, 4, 79, 0
6, 145740, Note_on_c, 4, 77, 110
6, 145799, Note_on_c, 4, 77, 0
6, 145800, Note_on_c, 4, 77, 110
6, 145919, Note_on_c, 4, 77, 0
6, 145920, Note_on_c, 4, 79, 110
6, 145949, Note_on_c, 4, 79, 0
6, 145950, Note_on_c, 4, 77, 110
6, 145979, Note_on_c, 4, 77, 0
6, 145980, Note_on_c, 4, 75, 110
6, 146039, Note_on_c, 4, 75, 0
6, 146040, Note_on_c, 4, 67, 110
6, 146099, Note_on_c, 4, 67, 0
6, 146100, Note_on_c, 4, 66, 110
6, 146159, Note_on_c, 4, 66, 0
6, 146160, Note_on_c, 4, 81, 110
6, 146279, Note_on_c, 4, 81, 0
6, 146280, Note_on_c, 4, 79, 110
6, 146309, Note_on_c, 4, 79, 0
6, 146310, Note_on_c, 4, 78, 110
6, 146339, Note_on_c, 4, 78, 0
6, 146340, Note_on_c, 4, 79, 110
6, 146399, Note_on_c, 4, 79, 0
6, 146400, Note_on_c, 4, 67, 110
6, 146429, Note_on_c, 4, 67, 0
6, 146430, Note_on_c, 4, 66, 110
6, 146459, Note_on_c, 4, 66, 0
6, 146460, Note_on_c, 4, 67, 110
6, 146549, Note_on_c, 4, 67, 0
6, 146550, Note_on_c, 4, 69, 110
6, 146579, Note_on_c, 4, 69, 0
6, 146580, Note_on_c, 4, 66, 110
6, 146599, Note_on_c, 4, 66, 0
6, 146600, Note_on_c, 4, 67, 110
6, 146619, Note_on_c, 4, 67, 0
6, 146620, Note_on_c, 4, 66, 110
6, 146639, Note_on_c, 4, 66, 0
6, 146640, Note_on_c, 4, 67, 110
6, 146654, Note_on_c, 4, 67, 0
6, 146655, Note_on_c, 4, 66, 110
6, 146669, Note_on_c, 4, 66, 0
6, 146670, Note_on_c, 4, 67, 110
6, 146699, Note_on_c, 4, 67, 0
6, 146700, Note_on_c, 4, 67, 110
6, 146759, Note_on_c, 4, 67, 0
6, 146760, Note_on_c, 4, 70, 110
6, 146849, Note_on_c, 4, 70, 0
6, 146850, Note_on_c, 4, 69, 110
6, 146879, Note_on_c, 4, 69, 0
6, 146880, Note_on_c, 4, 67, 110
6, 146909, Note_on_c, 4, 67, 0
6, 146910, Note_on_c, 4, 65, 110
6, 146939, Note_on_c, 4, 65, 0
6, 146940, Note_on_c, 4, 64, 110
6, 146999, Note_on_c, 4, 64, 0
6, 147240, Note_on_c, 4, 62, 110
6, 147299, Note_on_c, 4, 62, 0
6, 147300, Note_on_c, 4, 74, 110
6, 147359, Note_on_c, 4, 74, 0
6, 147360, Note_on_c, 4, 74, 110
6, 147479, Note_on_c, 4, 74, 0
6, 147480, Note_on_c, 4, 73, 110
6, 147539, Note_on_c, 4, 73, 0
6, 147780, Note_on_c, 4, 62, 110
6, 147959, Note_on_c, 4, 62, 0
6, 147960, Note_on_c, 4, 61, 110
6, 148019, Note_on_c, 4, 61, 0
6, 148260, Note_on_c, 4, 67, 110
6, 148319, Note_on_c, 4, 67, 0
6, 148380, Note_on_c, 4, 69, 110
6, 148439, Note_on_c, 4, 69, 0
6, 148500, Note_on_c, 4, 79, 110
6, 148559, Note_on_c, 4, 79, 0
6, 148620, Note_on_c, 4, 79, 110
6, 148679, Note_on_c, 4, 79, 0
6, 148740, Note_on_c, 4, 76, 110
6, 148799, Note_on_c, 4, 76, 0
6, 148860, Note_on_c, 4, 76, 110
6, 148919, Note_on_c, 4, 76, 0
6, 148980, Note_on_c, 4, 74, 110
6, 149039, Note_on_c, 4, 74, 0
6, 149100, Note_on_c, 4, 74, 110
6, 149159, Note_on_c, 4, 74, 0
6, 149220, Note_on_c, 4, 73, 110
6, 149279, Note_on_c, 4, 73, 0
6, 149280, Note_on_c, 4, 74, 110
6, 149369, Note_on_c, 4, 74, 0
6, 149370, Note_on_c, 4, 73, 110
6, 149399, Note_on_c, 4, 73, 0
6, 149400, Note_on_c, 4, 74, 110
6, 149459, Note_on_c, 4, 74, 0
6, 149940, Note_on_c, 4, 70, 110
6, 149999, Note_on_c, 4, 70, 0
6, 150060, Note_on_c, 4, 58, 110
6, 150119, Note_on_c, 4, 58, 0
6, 150180, Note_on_c, 4, 65, 110
6, 150239, Note_on_c, 4, 65, 0
6, 150300, Note_on_c, 4, 65, 110
6, 150359, Note_on_c, 4, 65, 0
6, 150420, Note_on_c, 4, 70, 110
6, 150479, Note_on_c, 4, 70, 0
6, 150720, Note_on_c, 4, 63, 110
6, 150839, Note_on_c, 4, 63, 0
6, 150840, Note_on_c, 4, 62, 110
6, 150869, Note_on_c, 4, 62, 0
6, 150870, Note_on_c, 4, 60, 110
6, 150899, Note_on_c, 4, 60, 0
6, 150900, Note_on_c, 4, 62, 110
6, 150959, Note_on_c, 4, 62, 0
6, 150960, Note_on_c, 4, 72, 110
6, 151019, Note_on_c, 4, 72, 0
6, 151020, Note_on_c, 4, 70, 110
6, 151079, Note_on_c, 4, 70, 0
6, 151200, Note_on_c, 4, 67, 110
6, 151319, Note_on_c, 4, 67, 0
6, 151320, Note_on_c, 4, 65, 110
6, 151349, Note_on_c, 4, 65, 0
6, 151350, Note_on_c, 4, 63, 110
6, 151379, Note_on_c, 4, 63, 0
6, 151380, Note_on_c, 4, 65, 110
6, 151439, Note_on_c, 4, 65, 0
6, 151440, Note_on_c, 4, 75, 110
6, 151499, Note_on_c, 4, 75, 0
6, 151500, Note_on_c, 4, 74, 110
6, 151559, Note_on_c, 4, 74, 0
6, 151860, Note_on_c, 4, 69, 110
6, 151979, Note_on_c, 4, 69, 0
6, 151980, Note_on_c, 4, 70, 110
6, 152099, Note_on_c, 4, 70, 0
6, 153660, Program_c, 4, 40
6, 153660, Note_on_c, 4, 81, 110
6, 153719, Note_on_c, 4, 81, 0
6, 153720, Note_on_c, 4, 69, 110
6, 153809, Note_on_c, 4, 69, 0
6, 153810, Note_on_c, 4, 71, 110
6, 153839, Note_on_c, 4, 71, 0
6, 153840, Note_on_c, 4, 72, 110
6, 153869, Note_on_c, 4, 72, 0
6, 153870, Note_on_c, 4, 74, 110
6, 153899, Note_on_c, 4, 74, 0
6, 153900, Note_on_c, 4, 76, 110
6, 153959, Note_on_c, 4, 76, 0
6, 153960, Note_on_c, 4, 76, 110
6, 154019, Note_on_c, 4, 76, 0
6, 154020, Note_on_c, 4, 76, 110
6, 154079, Note_on_c, 4, 76, 0
6, 154080, Note_on_c, 4, 76, 110
6, 154139, Note_on_c, 4, 76, 0
6, 154140, Note_on_c, 4, 77, 110
6, 154169, Note_on_c, 4, 77, 0
6, 154170, Note_on_c, 4, 76, 110
6, 154199, Note_on_c, 4, 76, 0
6, 154200, Note_on_c, 4, 77, 110
6, 154229, Note_on_c, 4, 77, 0
6, 154230, Note_on_c, 4, 79, 110
6, 154259, Note_on_c, 4, 79, 0
6, 154260, Note_on_c, 4, 77, 110
6, 154289, Note_on_c, 4, 77, 0
6, 154290, Note_on_c, 4, 76, 110
6, 154319, Note_on_c, 4, 76, 0
6, 154320, Note_on_c, 4, 74, 110
6, 154349, Note_on_c, 4, 74, 0
6, 154350, Note_on_c, 4, 77, 110
6, 154379, Note_on_c, 4, 77, 0
6, 154380, Note_on_c, 4, 76, 110
6, 154409, Note_on_c, 4, 76, 0
6, 154410, Note_on_c, 4, 74, 110
6, 154439, Note_on_c, 4, 74, 0
6, 154440, Note_on_c, 4, 76, 110
6, 154469, Note_on_c, 4, 76, 0
6, 154470, Note_on_c, 4, 77, 110
6, 154499, Note_on_c, 4, 77, 0
6, 154500, Note_on_c, 4, 76, 110
6, 154529, Note_on_c, 4, 76, 0
6, 154530, Note_on_c, 4, 74, 110
6, 154559, Note_on_c, 4, 74, 0
6, 154560, Note_on_c, 4, 72, 110
6, 154589, Note_on_c, 4, 72, 0
6, 154590, Note_on_c, 4, 76, 110
6, 154619, Note_on_c, 4, 76, 0
6, 154620, Note_on_c, 4, 74, 110
6, 154649, Note_on_c, 4, 74, 0
6, 154650, Note_on_c, 4, 72, 110
6, 154679, Note_on_c, 4, 72, 0
6, 154680, Note_on_c, 4, 74, 110
6, 154709, Note_on_c, 4, 74, 0
6, 154710, Note_on_c, 4, 76, 110
6, 154739, Note_on_c, 4, 76, 0
6, 154740, Note_on_c, 4, 74, 110
6, 154769, Note_on_c, 4, 74, 0
6, 154770, Note_on_c, 4, 72, 110
6, 154799, Note_on_c, 4, 72, 0
6, 154800, Note_on_c, 4, 71, 110
6, 154829, Note_on_c, 4, 71, 0
6, 154830, Note_on_c, 4, 74, 110
6, 154859, Note_on_c, 4, 74, 0
6, 154860, Note_on_c, 4, 72, 110
6, 154889, Note_on_c, 4, 72, 0
6, 154890, Note_on_c, 4, 71, 110
6, 154919, Note_on_c, 4, 71, 0
6, 154920, Note_on_c, 4, 69, 110
6, 154949, Note_on_c, 4, 69, 0
6, 154950, Note_on_c, 4, 71, 110
6, 154979, Note_on_c, 4, 71, 0
6, 154980, Note_on_c, 4, 73, 110
6, 155009, Note_on_c, 4, 73, 0
6, 155010, Note_on_c, 4, 74, 110
6, 155039, Note_on_c, 4, 74, 0
6, 155040, Note_on_c, 4, 76, 110
6, 155069, Note_on_c, 4, 76, 0
6, 155070, Note_on_c, 4, 77, 110
6, 155099, Note_on_c, 4, 77, 0
6, 155100, Note_on_c, 4, 79, 110
6, 155129, Note_on_c, 4, 79, 0
6, 155130, Note_on_c, 4, 77, 110
6, 155159, Note_on_c, 4, 77, 0
6, 155160, Note_on_c, 4, 79, 110
6, 155189, Note_on_c, 4, 79, 0
6, 155190, Note_on_c, 4, 81, 110
6, 155219, Note_on_c, 4, 81, 0
6, 155220, Note_on_c, 4, 79, 110
6, 155249, Note_on_c, 4, 79, 0
6, 155250, Note_on_c, 4, 77, 110
6, 155279, Note_on_c, 4, 77, 0
6, 155280, Note_on_c, 4, 76, 110
6, 155309, Note_on_c, 4, 76, 0
6, 155310, Note_on_c, 4, 79, 110
6, 155339, Note_on_c, 4, 79, 0
6, 155340, Note_on_c, 4, 77, 110
6, 155399, Note_on_c, 4, 77, 0
6, 155400, Note_on_c, 4, 74, 110
6, 155459, Note_on_c, 4, 74, 0
6, 155520, Note_on_c, 4, 74, 110
6, 155579, Note_on_c, 4, 74, 0
6, 155580, Note_on_c, 4, 75, 110
6, 155639, Note_on_c, 4, 75, 0
6, 155640, Note_on_c, 4, 72, 110
6, 155699, Note_on_c, 4, 72, 0
6, 155700, Note_on_c, 4, 69, 110
6, 155759, Note_on_c, 4, 69, 0
6, 155760, Note_on_c, 4, 78, 110
6, 155819, Note_on_c, 4, 78, 0
6, 155820, Note_on_c, 4, 79, 110
6, 155879, Note_on_c, 4, 79, 0
6, 155880, Note_on_c, 4, 67, 110
6, 155909, Note_on_c, 4, 67, 0
6, 155910, Note_on_c, 4, 69, 110
6, 155939, Note_on_c, 4, 69, 0
6, 155940, Note_on_c, 4, 71, 110
6, 155969, Note_on_c, 4, 71, 0
6, 155970, Note_on_c, 4, 73, 110
6, 155999, Note_on_c, 4, 73, 0
6, 156000, Note_on_c, 4, 74, 110
6, 156029, Note_on_c, 4, 74, 0
6, 156030, Note_on_c, 4, 76, 110
6, 156059, Note_on_c, 4, 76, 0
6, 156060, Note_on_c, 4, 77, 110
6, 156089, Note_on_c, 4, 77, 0
6, 156090, Note_on_c, 4, 79, 110
6, 156119, Note_on_c, 4, 79, 0
6, 156120, Note_on_c, 4, 76, 110
6, 156149, Note_on_c, 4, 76, 0
6, 156150, Note_on_c, 4, 77, 110
6, 156179, Note_on_c, 4, 77, 0
6, 156180, Note_on_c, 4, 79, 110
6, 156209, Note_on_c, 4, 79, 0
6, 156210, Note_on_c, 4, 77, 110
6, 156239, Note_on_c, 4, 77, 0
6, 156240, Note_on_c, 4, 76, 110
6, 156269, Note_on_c, 4, 76, 0
6, 156270, Note_on_c, 4, 74, 110
6, 156299, Note_on_c, 4, 74, 0
6, 156300, Note_on_c, 4, 73, 110
6, 156359, Note_on_c, 4, 73, 0
6, 156360, Note_on_c, 4, 69, 110
6, 156419, Note_on_c, 4, 69, 0
6, 156480, Note_on_c, 4, 81, 110
6, 156599, Note_on_c, 4, 81, 0
6, 156600, Note_on_c, 4, 79, 110
6, 156629, Note_on_c, 4, 79, 0
6, 156630, Note_on_c, 4, 77, 110
6, 156659, Note_on_c, 4, 77, 0
6, 156660, Note_on_c, 4, 79, 110
6, 156719, Note_on_c, 4, 79, 0
6, 156720, Note_on_c, 4, 79, 110
6, 156839, Note_on_c, 4, 79, 0
6, 156840, Note_on_c, 4, 77, 110
6, 156869, Note_on_c, 4, 77, 0
6, 156870, Note_on_c, 4, 76, 110
6, 156899, Note_on_c, 4, 76, 0
6, 156900, Note_on_c, 4, 77, 110
6, 156959, Note_on_c, 4, 77, 0
6, 156960, Note_on_c, 4, 77, 110
6, 157079, Note_on_c, 4, 77, 0
6, 157080, Note_on_c, 4, 76, 110
6, 157109, Note_on_c, 4, 76, 0
6, 157110, Note_on_c, 4, 74, 110
6, 157139, Note_on_c, 4, 74, 0
6, 157140, Note_on_c, 4, 76, 110
6, 157199, Note_on_c, 4, 76, 0
6, 157200, Note_on_c, 4, 76, 110
6, 157319, Note_on_c, 4, 76, 0
6, 157320, Note_on_c, 4, 74, 110
6, 157349, Note_on_c, 4, 74, 0
6, 157350, Note_on_c, 4, 76, 110
6, 157379, Note_on_c, 4, 76, 0
6, 157380, Note_on_c, 4, 77, 110
6, 157439, Note_on_c, 4, 77, 0
6, 157440, Note_on_c, 4, 69, 110
6, 157499, Note_on_c, 4, 69, 0
6, 157500, Note_on_c, 4, 67, 110
6, 157679, Note_on_c, 4, 67, 0
6, 157680, Note_on_c, 4, 65, 110
6, 157709, Note_on_c, 4, 65, 0
6, 157710, Note_on_c, 4, 64, 110
6, 157739, Note_on_c, 4, 64, 0
6, 157740, Note_on_c, 4, 65, 110
6, 157799, Note_on_c, 4, 65, 0
6, 157800, Note_on_c, 4, 64, 110
6, 157829, Note_on_c, 4, 64, 0
6, 157830, Note_on_c, 4, 62, 110
6, 157859, Note_on_c, 4, 62, 0
6, 157860, Note_on_c, 4, 61, 110
6, 157879, Note_on_c, 4, 61, 0
6, 157880, Note_on_c, 4, 62, 110
6, 157899, Note_on_c, 4, 62, 0
6, 157900, Note_on_c, 4, 61, 110
6, 157919, Note_on_c, 4, 61, 0
6, 157920, Note_on_c, 4, 62, 110
6, 157934, Note_on_c, 4, 62, 0
6, 157935, Note_on_c, 4, 61, 110
6, 157949, Note_on_c, 4, 61, 0
6, 157950, Note_on_c, 4, 62, 110
6, 157979, Note_on_c, 4, 62, 0
6, 157980, Note_on_c, 4, 62, 110
6, 158039, Note_on_c, 4, 62, 0
6, 158100, Note_on_c, 4, 77, 110
6, 158159, Note_on_c, 4, 77, 0
6, 158220, Note_on_c, 4, 76, 110
6, 158279, Note_on_c, 4, 76, 0
6, 158340, Note_on_c, 4, 74, 110
6, 158399, Note_on_c, 4, 74, 0
6, 158460, Note_on_c, 4, 74, 110
6, 158519, Note_on_c, 4, 74, 0
6, 158580, Note_on_c, 4, 72, 110
6, 158639, Note_on_c, 4, 72, 0
6, 158700, Note_on_c, 4, 72, 110
6, 158759, Note_on_c, 4, 72, 0
6, 158820, Note_on_c, 4, 74, 110
6, 158879, Note_on_c, 4, 74, 0
6, 158940, Note_on_c, 4, 74, 110
6, 158999, Note_on_c, 4, 74, 0
6, 159060, Note_on_c, 4, 73, 110
6, 159119, Note_on_c, 4, 73, 0
6, 159180, Note_on_c, 4, 74, 110
6, 159239, Note_on_c, 4, 74, 0
6, 159660, Note_on_c, 4, 64, 110
6, 159719, Note_on_c, 4, 64, 0
6, 159720, Note_on_c, 4, 76, 110
6, 159809, Note_on_c, 4, 76, 0
6, 159810, Note_on_c, 4, 74, 110
6, 159839, Note_on_c, 4, 74, 0
6, 159840, Note_on_c, 4, 72, 110
6, 159869, Note_on_c, 4, 72, 0
6, 159870, Note_on_c, 4, 71, 110
6, 159899, Note_on_c, 4, 71, 0
6, 159900, Note_on_c, 4, 69, 110
6, 159959, Note_on_c, 4, 69, 0
6, 159960, Note_on_c, 4, 69, 110
6, 160019, Note_on_c, 4, 69, 0
6, 160020, Note_on_c, 4, 69, 110
6, 160079, Note_on_c, 4, 69, 0
6, 160080, Note_on_c, 4, 69, 110
6, 160139, Note_on_c, 4, 69, 0
6, 160140, Note_on_c, 4, 67, 110
6, 160169, Note_on_c, 4, 67, 0
6, 160170, Note_on_c, 4, 65, 110
6, 160199, Note_on_c, 4, 65, 0
6, 160200, Note_on_c, 4, 67, 110
6, 160229, Note_on_c, 4, 67, 0
6, 160230, Note_on_c, 4, 69, 110
6, 160259, Note_on_c, 4, 69, 0
6, 160260, Note_on_c, 4, 67, 110
6, 160289, Note_on_c, 4, 67, 0
6, 160290, Note_on_c, 4, 65, 110
6, 160319, Note_on_c, 4, 65, 0
6, 160320, Note_on_c, 4, 64, 110
6, 160349, Note_on_c, 4, 64, 0
6, 160350, Note_on_c, 4, 67, 110
6, 160379, Note_on_c, 4, 67, 0
6, 160380, Note_on_c, 4, 65, 110
6, 160439, Note_on_c, 4, 65, 0
6, 160440, Note_on_c, 4, 62, 110
6, 160499, Note_on_c, 4, 62, 0
6, 160560, Note_on_c, 4, 71, 110
6, 160619, Note_on_c, 4, 71, 0
6, 160620, Note_on_c, 4, 76, 110
6, 160649, Note_on_c, 4, 76, 0
6, 160650, Note_on_c, 4, 74, 110
6, 160679, Note_on_c, 4, 74, 0
6, 160680, Note_on_c, 4, 72, 110
6, 160709, Note_on_c, 4, 72, 0
6, 160710, Note_on_c, 4, 71, 110
6, 160739, Note_on_c, 4, 71, 0
6, 160740, Note_on_c, 4, 69, 110
6, 160799, Note_on_c, 4, 69, 0
6, 160800, Note_on_c, 4, 69, 110
6, 160889, Note_on_c, 4, 69, 0
6, 160890, Note_on_c, 4, 66, 110
6, 160919, Note_on_c, 4, 66, 0
6, 160920, Note_on_c, 4, 68, 110
6, 160979, Note_on_c, 4, 68, 0
6, 161010, Note_on_c, 4, 71, 110
6, 161039, Note_on_c, 4, 71, 0
6, 161040, Note_on_c, 4, 76, 110
6, 161069, Note_on_c, 4, 76, 0
6, 161070, Note_on_c, 4, 74, 110
6, 161099, Note_on_c, 4, 74, 0
6, 161100, Note_on_c, 4, 72, 110
6, 161129, Note_on_c, 4, 72, 0
6, 161130, Note_on_c, 4, 71, 110
6, 161159, Note_on_c, 4, 71, 0
6, 161160, Note_on_c, 4, 69, 110
6, 161189, Note_on_c, 4, 69, 0
6, 161190, Note_on_c, 4, 68, 110
6, 161219, Note_on_c, 4, 68, 0
6, 161220, Note_on_c, 4, 69, 110
6, 161279, Note_on_c, 4, 69, 0
6, 162060, Note_on_c, 4, 74, 110
6, 162119, Note_on_c, 4, 74, 0
6, 162120, Note_on_c, 4, 62, 110
6, 162209, Note_on_c, 4, 62, 0
6, 162210, Note_on_c, 4, 64, 110
6, 162239, Note_on_c, 4, 64, 0
6, 162240, Note_on_c, 4, 65, 110
6, 162269, Note_on_c, 4, 65, 0
6, 162270, Note_on_c, 4, 67, 110
6, 162299, Note_on_c, 4, 67, 0
6, 162300, Note_on_c, 4, 69, 110
6, 162359, Note_on_c, 4, 69, 0
6, 162360, Note_on_c, 4, 69, 110
6, 162419, Note_on_c, 4, 69, 0
6, 162420, Note_on_c, 4, 69, 110
6, 162479, Note_on_c, 4, 69, 0
6, 162480, Note_on_c, 4, 69, 110
6, 162539, Note_on_c, 4, 69, 0
6, 162540, Note_on_c, 4, 70, 110
6, 162569, Note_on_c, 4, 70, 0
6, 162570, Note_on_c, 4, 69, 110
6, 162599, Note_on_c, 4, 69, 0
6, 162600, Note_on_c, 4, 70, 110
6, 162629, Note_on_c, 4, 70, 0
6, 162630, Note_on_c, 4, 72, 110
6, 162659, Note_on_c, 4, 72, 0
6, 162660, Note_on_c, 4, 70, 110
6, 162689, Note_on_c, 4, 70, 0
6, 162690, Note_on_c, 4, 69, 110
6, 162719, Note_on_c, 4, 69, 0
6, 162720, Note_on_c, 4, 67, 110
6, 162749, Note_on_c, 4, 67, 0
6, 162750, Note_on_c, 4, 70, 110
6, 162779, Note_on_c, 4, 70, 0
6, 162780, Note_on_c, 4, 69, 110
6, 162809, Note_on_c, 4, 69, 0
6, 162810, Note_on_c, 4, 67, 110
6, 162839, Note_on_c, 4, 67, 0
6, 162840, Note_on_c, 4, 69, 110
6, 162869, Note_on_c, 4, 69, 0
6, 162870, Note_on_c, 4, 70, 110
6, 162899, Note_on_c, 4, 70, 0
6, 162900, Note_on_c, 4, 69, 110
6, 162929, Note_on_c, 4, 69, 0
6, 162930, Note_on_c, 4, 67, 110
6, 162959, Note_on_c, 4, 67, 0
6, 162960, Note_on_c, 4, 65, 110
6, 162989, Note_on_c, 4, 65, 0
6, 162990, Note_on_c, 4, 69, 110
6, 163019, Note_on_c, 4, 69, 0
6, 163020, Note_on_c, 4, 67, 110
6, 163049, Note_on_c, 4, 67, 0
6, 163050, Note_on_c, 4, 65, 110
6, 163079, Note_on_c, 4, 65, 0
6, 163080, Note_on_c, 4, 67, 110
6, 163109, Note_on_c, 4, 67, 0
6, 163110, Note_on_c, 4, 69, 110
6, 163139, Note_on_c, 4, 69, 0
6, 163140, Note_on_c, 4, 67, 110
6, 163169, Note_on_c, 4, 67, 0
6, 163170, Note_on_c, 4, 65, 110
6, 163199, Note_on_c, 4, 65, 0
6, 163200, Note_on_c, 4, 64, 110
6, 163229, Note_on_c, 4, 64, 0
6, 163230, Note_on_c, 4, 67, 110
6, 163259, Note_on_c, 4, 67, 0
6, 163260, Note_on_c, 4, 65, 110
6, 163319, Note_on_c, 4, 65, 0
6, 163320, Note_on_c, 4, 60, 110
6, 163379, Note_on_c, 4, 60, 0
6, 163380, Note_on_c, 4, 65, 110
6, 163559, Note_on_c, 4, 65, 0
6, 163560, Note_on_c, 4, 64, 110
6, 163589, Note_on_c, 4, 64, 0
6, 163590, Note_on_c, 4, 62, 110
6, 163619, Note_on_c, 4, 62, 0
6, 163620, Note_on_c, 4, 64, 110
6, 163739, Note_on_c, 4, 64, 0
6, 163740, Note_on_c, 4, 65, 110
6, 163799, Note_on_c, 4, 65, 0
6, 163980, Note_on_c, 4, 79, 110
6, 164039, Note_on_c, 4, 79, 0
6, 164040, Note_on_c, 4, 67, 110
6, 164129, Note_on_c, 4, 67, 0
6, 164130, Note_on_c, 4, 69, 110
6, 164159, Note_on_c, 4, 69, 0
6, 164160, Note_on_c, 4, 71, 110
6, 164189, Note_on_c, 4, 71, 0
6, 164190, Note_on_c, 4, 73, 110
6, 164219, Note_on_c, 4, 73, 0
6, 164220, Note_on_c, 4, 74, 110
6, 164279, Note_on_c, 4, 74, 0
6, 164280, Note_on_c, 4, 74, 110
6, 164339, Note_on_c, 4, 74, 0
6, 164340, Note_on_c, 4, 74, 110
6, 164399, Note_on_c, 4, 74, 0
6, 164400, Note_on_c, 4, 74, 110
6, 164459, Note_on_c, 4, 74, 0
6, 164460, Note_on_c, 4, 76, 110
6, 164489, Note_on_c, 4, 76, 0
6, 164490, Note_on_c, 4, 74, 110
6, 164519, Note_on_c, 4, 74, 0
6, 164520, Note_on_c, 4, 76, 110
6, 164549, Note_on_c, 4, 76, 0
6, 164550, Note_on_c, 4, 77, 110
6, 164579, Note_on_c, 4, 77, 0
6, 164580, Note_on_c, 4, 76, 110
6, 164609, Note_on_c, 4, 76, 0
6, 164610, Note_on_c, 4, 74, 110
6, 164639, Note_on_c, 4, 74, 0
6, 164640, Note_on_c, 4, 73, 110
6, 164669, Note_on_c, 4, 73, 0
6, 164670, Note_on_c, 4, 76, 110
6, 164699, Note_on_c, 4, 76, 0
6, 164700, Note_on_c, 4, 74, 110
6, 164729, Note_on_c, 4, 74, 0
6, 164730, Note_on_c, 4, 73, 110
6, 164759, Note_on_c, 4, 73, 0
6, 164760, Note_on_c, 4, 74, 110
6, 164789, Note_on_c, 4, 74, 0
6, 164790, Note_on_c, 4, 76, 110
6, 164819, Note_on_c, 4, 76, 0
6, 164820, Note_on_c, 4, 74, 110
6, 164849, Note_on_c, 4, 74, 0
6, 164850, Note_on_c, 4, 73, 110
6, 164879, Note_on_c, 4, 73, 0
6, 164880, Note_on_c, 4, 71, 110
6, 164909, Note_on_c, 4, 71, 0
6, 164910, Note_on_c, 4, 74, 110
6, 164939, Note_on_c, 4, 74, 0
6, 164940, Note_on_c, 4, 73, 110
6, 164999, Note_on_c, 4, 73, 0
6, 165000, Note_on_c, 4, 69, 110
6, 165059, Note_on_c, 4, 69, 0
6, 165180, Note_on_c, 4, 74, 110
6, 165239, Note_on_c, 4, 74, 0
6, 165240, Note_on_c, 4, 62, 110
6, 165329, Note_on_c, 4, 62, 0
6, 165330, Note_on_c, 4, 64, 110
6, 165359, Note_on_c, 4, 64, 0
6, 165360, Note_on_c, 4, 65, 110
6, 165389, Note_on_c, 4, 65, 0
6, 165390, Note_on_c, 4, 67, 110
6, 165419, Note_on_c, 4, 67, 0
6, 165420, Note_on_c, 4, 69, 110
6, 165479, Note_on_c, 4, 69, 0
6, 165480, Note_on_c, 4, 69, 110
6, 165539, Note_on_c, 4, 69, 0
6, 165540, Note_on_c, 4, 69, 110
6, 165599, Note_on_c, 4, 69, 0
6, 165600, Note_on_c, 4, 69, 110
6, 165659, Note_on_c, 4, 69, 0
6, 165660, Note_on_c, 4, 70, 110
6, 165689, Note_on_c, 4, 70, 0
6, 165690, Note_on_c, 4, 69, 110
6, 165719, Note_on_c, 4, 69, 0
6, 165720, Note_on_c, 4, 70, 110
6, 165749, Note_on_c, 4, 70, 0
6, 165750, Note_on_c, 4, 72, 110
6, 165779, Note_on_c, 4, 72, 0
6, 165780, Note_on_c, 4, 70, 110
6, 165809, Note_on_c, 4, 70, 0
6, 165810, Note_on_c, 4, 69, 110
6, 165839, Note_on_c, 4, 69, 0
6, 165840, Note_on_c, 4, 67, 110
6, 165869, Note_on_c, 4, 67, 0
6, 165870, Note_on_c, 4, 70, 110
6, 165899, Note_on_c, 4, 70, 0
6, 165900, Note_on_c, 4, 69, 110
6, 165929, Note_on_c, 4, 69, 0
6, 165930, Note_on_c, 4, 67, 110
6, 165959, Note_on_c, 4, 67, 0
6, 165960, Note_on_c, 4, 65, 110
6, 165989, Note_on_c, 4, 65, 0
6, 165990, Note_on_c, 4, 64, 110
6, 166019, Note_on_c, 4, 64, 0
6, 166020, Note_on_c, 4, 62, 110
6, 166079, Note_on_c, 4, 62, 0
6, 166080, Note_on_c, 4, 74, 110
6, 166169, Note_on_c, 4, 74, 0
6, 166170, Note_on_c, 4, 73, 110
6, 166199, Note_on_c, 4, 73, 0
6, 166200, Note_on_c, 4, 74, 110
6, 166229, Note_on_c, 4, 74, 0
6, 166230, Note_on_c, 4, 76, 110
6, 166259, Note_on_c, 4, 76, 0
6, 166260, Note_on_c, 4, 73, 110
6, 166289, Note_on_c, 4, 73, 0
6, 166290, Note_on_c, 4, 74, 110
6, 166319, Note_on_c, 4, 74, 0
6, 166320, Note_on_c, 4, 76, 110
6, 166349, Note_on_c, 4, 76, 0
6, 166350, Note_on_c, 4, 73, 110
6, 166379, Note_on_c, 4, 73, 0
6, 166380, Note_on_c, 4, 69, 110
6, 166409, Note_on_c, 4, 69, 0
6, 166410, Note_on_c, 4, 76, 110
6, 166439, Note_on_c, 4, 76, 0
6, 166440, Note_on_c, 4, 74, 110
6, 166469, Note_on_c, 4, 74, 0
6, 166470, Note_on_c, 4, 73, 110
6, 166499, Note_on_c, 4, 73, 0
6, 166500, Note_on_c, 4, 74, 110
6, 166529, Note_on_c, 4, 74, 0
6, 166530, Note_on_c, 4, 76, 110
6, 166559, Note_on_c, 4, 76, 0
6, 166560, Note_on_c, 4, 77, 110
6, 166589, Note_on_c, 4, 77, 0
6, 166590, Note_on_c, 4, 69, 110
6, 166619, Note_on_c, 4, 69, 0
6, 166620, Note_on_c, 4, 70, 110
6, 166649, Note_on_c, 4, 70, 0
6, 166650, Note_on_c, 4, 69, 110
6, 166679, Note_on_c, 4, 69, 0
6, 166680, Note_on_c, 4, 70, 110
6, 166709, Note_on_c, 4, 70, 0
6, 166710, Note_on_c, 4, 72, 110
6, 166739, Note_on_c, 4, 72, 0
6, 166740, Note_on_c, 4, 70, 110
6, 166769, Note_on_c, 4, 70, 0
6, 166770, Note_on_c, 4, 69, 110
6, 166799, Note_on_c, 4, 69, 0
6, 166800, Note_on_c, 4, 67, 110
6, 166829, Note_on_c, 4, 67, 0
6, 166830, Note_on_c, 4, 65, 110
6, 166859, Note_on_c, 4, 65, 0
6, 166860, Note_on_c, 4, 64, 110
6, 166919, Note_on_c, 4, 64, 0
6, 167340, Note_on_c, 4, 69, 110
6, 167399, Note_on_c, 4, 69, 0
6, 167400, Note_on_c, 4, 81, 110
6, 167489, Note_on_c, 4, 81, 0
6, 167490, Note_on_c, 4, 79, 110
6, 167519, Note_on_c, 4, 79, 0
6, 167520, Note_on_c, 4, 77, 110
6, 167549, Note_on_c, 4, 77, 0
6, 167550, Note_on_c, 4, 76, 110
6, 167579, Note_on_c, 4, 76, 0
6, 167580, Note_on_c, 4, 74, 110
6, 167639, Note_on_c, 4, 74, 0
6, 169500, Note_on_c, 4, 81, 110
6, 169559, Note_on_c, 4, 81, 0
6, 169560, Note_on_c, 4, 69, 110
6, 169649, Note_on_c, 4, 69, 0
6, 169650, Note_on_c, 4, 71, 110
6, 169679, Note_on_c, 4, 71, 0
6, 169680, Note_on_c, 4, 72, 110
6, 169709, Note_on_c, 4, 72, 0
6, 169710, Note_on_c, 4, 74, 110
6, 169739, Note_on_c, 4, 74, 0
6, 169740, Note_on_c, 4, 76, 110
6, 169799, Note_on_c, 4, 76, 0
6, 169800, Note_on_c, 4, 76, 110
6, 169859, Note_on_c, 4, 76, 0
6, 169860, Note_on_c, 4, 76, 110
6, 169919, Note_on_c, 4, 76, 0
6, 169920, Note_on_c, 4, 76, 110
6, 169979, Note_on_c, 4, 76, 0
6, 169980, Note_on_c, 4, 77, 110
6, 170009, Note_on_c, 4, 77, 0
6, 170010, Note_on_c, 4, 76, 110
6, 170039, Note_on_c, 4, 76, 0
6, 170040, Note_on_c, 4, 77, 110
6, 170069, Note_on_c, 4, 77, 0
6, 170070, Note_on_c, 4, 79, 110
6, 170099, Note_on_c, 4, 79, 0
6, 170100, Note_on_c, 4, 77, 110
6, 170129, Note_on_c, 4, 77, 0
6, 170130, Note_on_c, 4, 76, 110
6, 170159, Note_on_c, 4, 76, 0
6, 170160, Note_on_c, 4, 74, 110
6, 170189, Note_on_c, 4, 74, 0
6, 170190, Note_on_c, 4, 77, 110
6, 170219, Note_on_c, 4, 77, 0
6, 170220, Note_on_c, 4, 76, 110
6, 170249, Note_on_c, 4, 76, 0
6, 170250, Note_on_c, 4, 74, 110
6, 170279, Note_on_c, 4, 74, 0
6, 170280, Note_on_c, 4, 76, 110
6, 170309, Note_on_c, 4, 76, 0
6, 170310, Note_on_c, 4, 77, 110
6, 170339, Note_on_c, 4, 77, 0
6, 170340, Note_on_c, 4, 76, 110
6, 170369, Note_on_c, 4, 76, 0
6, 170370, Note_on_c, 4, 74, 110
6, 170399, Note_on_c, 4, 74, 0
6, 170400, Note_on_c, 4, 72, 110
6, 170429, Note_on_c, 4, 72, 0
6, 170430, Note_on_c, 4, 76, 110
6, 170459, Note_on_c, 4, 76, 0
6, 170460, Note_on_c, 4, 74, 110
6, 170489, Note_on_c, 4, 74, 0
6, 170490, Note_on_c, 4, 72, 110
6, 170519, Note_on_c, 4, 72, 0
6, 170520, Note_on_c, 4, 74, 110
6, 170549, Note_on_c, 4, 74, 0
6, 170550, Note_on_c, 4, 76, 110
6, 170579, Note_on_c, 4, 76, 0
6, 170580, Note_on_c, 4, 74, 110
6, 170609, Note_on_c, 4, 74, 0
6, 170610, Note_on_c, 4, 72, 110
6, 170639, Note_on_c, 4, 72, 0
6, 170640, Note_on_c, 4, 71, 110
6, 170669, Note_on_c, 4, 71, 0
6, 170670, Note_on_c, 4, 74, 110
6, 170699, Note_on_c, 4, 74, 0
6, 170700, Note_on_c, 4, 72, 110
6, 170729, Note_on_c, 4, 72, 0
6, 170730, Note_on_c, 4, 71, 110
6, 170759, Note_on_c, 4, 71, 0
6, 170760, Note_on_c, 4, 69, 110
6, 170789, Note_on_c, 4, 69, 0
6, 170790, Note_on_c, 4, 71, 110
6, 170819, Note_on_c, 4, 71, 0
6, 170820, Note_on_c, 4, 73, 110
6, 170849, Note_on_c, 4, 73, 0
6, 170850, Note_on_c, 4, 74, 110
6, 170879, Note_on_c, 4, 74, 0
6, 170880, Note_on_c, 4, 76, 110
6, 170909, Note_on_c, 4, 76, 0
6, 170910, Note_on_c, 4, 77, 110
6, 170939, Note_on_c, 4, 77, 0
6, 170940, Note_on_c, 4, 79, 110
6, 170969, Note_on_c, 4, 79, 0
6, 170970, Note_on_c, 4, 77, 110
6, 170999, Note_on_c, 4, 77, 0
6, 171000, Note_on_c, 4, 79, 110
6, 171029, Note_on_c, 4, 79, 0
6, 171030, Note_on_c, 4, 81, 110
6, 171059, Note_on_c, 4, 81, 0
6, 171060, Note_on_c, 4, 79, 110
6, 171089, Note_on_c, 4, 79, 0
6, 171090, Note_on_c, 4, 77, 110
6, 171119, Note_on_c, 4, 77, 0
6, 171120, Note_on_c, 4, 76, 110
6, 171149, Note_on_c, 4, 76, 0
6, 171150, Note_on_c, 4, 79, 110
6, 171179, Note_on_c, 4, 79, 0
6, 171180, Note_on_c, 4, 77, 110
6, 171239, Note_on_c, 4, 77, 0
6, 171240, Note_on_c, 4, 74, 110
6, 171299, Note_on_c, 4, 74, 0
6, 171360, Note_on_c, 4, 74, 110
6, 171419, Note_on_c, 4, 74, 0
6, 171420, Note_on_c, 4, 75, 110
6, 171479, Note_on_c, 4, 75, 0
6, 171480, Note_on_c, 4, 72, 110
6, 171539, Note_on_c, 4, 72, 0
6, 171540, Note_on_c, 4, 69, 110
6, 171599, Note_on_c, 4, 69, 0
6, 171600, Note_on_c, 4, 78, 110
6, 171659, Note_on_c, 4, 78, 0
6, 171660, Note_on_c, 4, 79, 110
6, 171719, Note_on_c, 4, 79, 0
6, 171720, Note_on_c, 4, 67, 110
6, 171749, Note_on_c, 4, 67, 0
6, 171750, Note_on_c, 4, 69, 110
6, 171779, Note_on_c, 4, 69, 0
6, 171780, Note_on_c, 4, 71, 110
6, 171809, Note_on_c, 4, 71, 0
6, 171810, Note_on_c, 4, 73, 110
6, 171839, Note_on_c, 4, 73, 0
6, 171840, Note_on_c, 4, 74, 110
6, 171869, Note_on_c, 4, 74, 0
6, 171870, Note_on_c, 4, 76, 110
6, 171899, Note_on_c, 4, 76, 0
6, 171900, Note_on_c, 4, 77, 110
6, 171929, Note_on_c, 4, 77, 0
6, 171930, Note_on_c, 4, 79, 110
6, 171959, Note_on_c, 4, 79, 0
6, 171960, Note_on_c, 4, 76, 110
6, 171989, Note_on_c, 4, 76, 0
6, 171990, Note_on_c, 4, 77, 110
6, 172019, Note_on_c, 4, 77, 0
6, 172020, Note_on_c, 4, 79, 110
6, 172049, Note_on_c, 4, 79, 0
6, 172050, Note_on_c, 4, 77, 110
6, 172079, Note_on_c, 4, 77, 0
6, 172080, Note_on_c, 4, 76, 110
6, 172109, Note_on_c, 4, 76, 0
6, 172110, Note_on_c, 4, 74, 110
6, 172139, Note_on_c, 4, 74, 0
6, 172140, Note_on_c, 4, 73, 110
6, 172199, Note_on_c, 4, 73, 0
6, 172200, Note_on_c, 4, 69, 110
6, 172259, Note_on_c, 4, 69, 0
6, 172320, Note_on_c, 4, 81, 110
6, 172439, Note_on_c, 4, 81, 0
6, 172440, Note_on_c, 4, 79, 110
6, 172469, Note_on_c, 4, 79, 0
6, 172470, Note_on_c, 4, 77, 110
6, 172499, Note_on_c, 4, 77, 0
6, 172500, Note_on_c, 4, 79, 110
6, 172559, Note_on_c, 4, 79, 0
6, 172560, Note_on_c, 4, 79, 110
6, 172679, Note_on_c, 4, 79, 0
6, 172680, Note_on_c, 4, 77, 110
6, 172709, Note_on_c, 4, 77, 0
6, 172710, Note_on_c, 4, 76, 110
6, 172739, Note_on_c, 4, 76, 0
6, 172740, Note_on_c, 4, 77, 110
6, 172799, Note_on_c, 4, 77, 0
6, 172800, Note_on_c, 4, 77, 110
6, 172919, Note_on_c, 4, 77, 0
6, 172920, Note_on_c, 4, 76, 110
6, 172949, Note_on_c, 4, 76, 0
6, 172950, Note_on_c, 4, 74, 110
6, 172979, Note_on_c, 4, 74, 0
6, 172980, Note_on_c, 4, 76, 110
6, 173039, Note_on_c, 4, 76, 0
6, 173040, Note_on_c, 4, 76, 110
6, 173159, Note_on_c, 4, 76, 0
6, 173160, Note_on_c, 4, 74, 110
6, 173189, Note_on_c, 4, 74, 0
6, 173190, Note_on_c, 4, 73, 110
6, 173219, Note_on_c, 4, 73, 0
6, 173220, Note_on_c, 4, 74, 110
6, 173399, Note_on_c, 4, 74, 0
6, 173400, Note_on_c, 4, 73, 110
6, 173429, Note_on_c, 4, 73, 0
6, 173430, Note_on_c, 4, 74, 110
6, 173459, Note_on_c, 4, 74, 0
6, 173460, Note_on_c, 4, 76, 110
6, 173519, Note_on_c, 4, 76, 0
6, 173520, Note_on_c, 4, 69, 110
6, 173639, Note_on_c, 4, 69, 0
6, 173640, Note_on_c, 4, 67, 110
6, 173669, Note_on_c, 4, 67, 0
6, 173670, Note_on_c, 4, 65, 110
6, 173699, Note_on_c, 4, 65, 0
6, 173700, Note_on_c, 4, 64, 110
6, 173719, Note_on_c, 4, 64, 0
6, 173720, Note_on_c, 4, 65, 110
6, 173739, Note_on_c, 4, 65, 0
6, 173740, Note_on_c, 4, 64, 110
6, 173759, Note_on_c, 4, 64, 0
6, 173760, Note_on_c, 4, 65, 110
6, 173774, Note_on_c, 4, 65, 0
6, 173775, Note_on_c, 4, 64, 110
6, 173789, Note_on_c, 4, 64, 0
6, 173790, Note_on_c, 4, 62, 110
6, 173819, Note_on_c, 4, 62, 0
6, 173820, Note_on_c, 4, 62, 110
6, 173939, Note_on_c, 4, 62, 0
6, 174480, Note_on_c, 4, 65, 90
6, 174509, Note_on_c, 4, 65, 0
6, 174510, Note_on_c, 4, 64, 90
6, 174539, Note_on_c, 4, 64, 0
6, 174540, Note_on_c, 4, 65, 90
6, 174599, Note_on_c, 4, 65, 0
6, 174600, Note_on_c, 4, 65, 90
6, 174659, Note_on_c, 4, 65, 0
6, 174660, Note_on_c, 4, 65, 90
6, 174719, Note_on_c, 4, 65, 0
6, 174720, Note_on_c, 4, 60, 90
6, 174779, Note_on_c, 4, 60, 0
6, 174840, Note_on_c, 4, 60, 90
6, 174869, Note_on_c, 4, 60, 0
6, 174870, Note_on_c, 4, 58, 90
6, 174899, Note_on_c, 4, 58, 0
6, 174900, Note_on_c, 4, 60, 90
6, 174959, Note_on_c, 4, 60, 0
6, 174960, Note_on_c, 4, 60, 90
6, 175019, Note_on_c, 4, 60, 0
6, 175020, Note_on_c, 4, 60, 90
6, 175079, Note_on_c, 4, 60, 0
6, 175080, Note_on_c, 4, 57, 90
6, 175139, Note_on_c, 4, 57, 0
6, 175200, Note_on_c, 4, 81, 90
6, 175229, Note_on_c, 4, 81, 0
6, 175230, Note_on_c, 4, 79, 90
6, 175259, Note_on_c, 4, 79, 0
6, 175260, Note_on_c, 4, 81, 90
6, 175319, Note_on_c, 4, 81, 0
6, 175320, Note_on_c, 4, 74, 90
6, 175379, Note_on_c, 4, 74, 0
6, 175380, Note_on_c, 4, 74, 90
6, 175439, Note_on_c, 4, 74, 0
6, 175440, Note_on_c, 4, 79, 90
6, 175469, Note_on_c, 4, 79, 0
6, 175470, Note_on_c, 4, 77, 90
6, 175499, Note_on_c, 4, 77, 0
6, 175500, Note_on_c, 4, 79, 90
6, 175559, Note_on_c, 4, 79, 0
6, 175560, Note_on_c, 4, 76, 90
6, 175619, Note_on_c, 4, 76, 0
6, 175620, Note_on_c, 4, 76, 90
6, 175679, Note_on_c, 4, 76, 0
6, 175680, Note_on_c, 4, 77, 90
6, 175739, Note_on_c, 4, 77, 0
6, 175740, Note_on_c, 4, 77, 90
6, 175799, Note_on_c, 4, 77, 0
6, 175800, Note_on_c, 4, 72, 90
6, 175859, Note_on_c, 4, 72, 0
6, 175860, Note_on_c, 4, 70, 90
6, 175979, Note_on_c, 4, 70, 0
6, 175980, Note_on_c, 4, 69, 90
6, 176099, Note_on_c, 4, 69, 0
6, 176100, Note_on_c, 4, 67, 90
6, 176339, Note_on_c, 4, 67, 0
6, 176340, Note_on_c, 4, 65, 90
6, 176459, Note_on_c, 4, 65, 0
6, 176460, Note_on_c, 4, 70, 90
6, 176579, Note_on_c, 4, 70, 0
6, 176580, Note_on_c, 4, 72, 90
6, 176759, Note_on_c, 4, 72, 0
6, 176760, Note_on_c, 4, 74, 90
6, 176789, Note_on_c, 4, 74, 0
6, 176790, Note_on_c, 4, 75, 90
6, 176819, Note_on_c, 4, 75, 0
6, 176820, Note_on_c, 4, 74, 90
6, 177179, Note_on_c, 4, 74, 0
6, 177180, Note_on_c, 4, 72, 90
6, 177299, Note_on_c, 4, 72, 0
6, 177960, Note_on_c, 4, 77, 90
6, 177989, Note_on_c, 4, 77, 0
6, 177990, Note_on_c, 4, 76, 90
6, 178019, Note_on_c, 4, 76, 0
6, 178020, Note_on_c, 4, 77, 90
6, 178079, Note_on_c, 4, 77, 0
6, 178080, Note_on_c, 4, 81, 90
6, 178109, Note_on_c, 4, 81, 0
6, 178110, Note_on_c, 4, 79, 90
6, 178139, Note_on_c, 4, 79, 0
6, 178140, Note_on_c, 4, 81, 90
6, 178199, Note_on_c, 4, 81, 0
6, 178200, Note_on_c, 4, 74, 90
6, 178259, Note_on_c, 4, 74, 0
6, 178260, Note_on_c, 4, 74, 90
6, 178319, Note_on_c, 4, 74, 0
6, 178320, Note_on_c, 4, 79, 90
6, 178349, Note_on_c, 4, 79, 0
6, 178350, Note_on_c, 4, 77, 90
6, 178379, Note_on_c, 4, 77, 0
6, 178380, Note_on_c, 4, 79, 90
6, 178439, Note_on_c, 4, 79, 0
6, 178440, Note_on_c, 4, 76, 90
6, 178499, Note_on_c, 4, 76, 0
6, 178500, Note_on_c, 4, 76, 90
6, 178559, Note_on_c, 4, 76, 0
6, 178560, Note_on_c, 4, 77, 90
6, 178619, Note_on_c, 4, 77, 0
6, 178620, Note_on_c, 4, 77, 90
6, 178679, Note_on_c, 4, 77, 0
6, 178680, Note_on_c, 4, 74, 90
6, 178739, Note_on_c, 4, 74, 0
6, 178740, Note_on_c, 4, 72, 90
6, 178859, Note_on_c, 4, 72, 0
6, 178860, Note_on_c, 4, 70, 90
6, 178979, Note_on_c, 4, 70, 0
6, 178980, Note_on_c, 4, 72, 90
6, 179219, Note_on_c, 4, 72, 0
6, 179220, Note_on_c, 4, 65, 90
6, 179339, Note_on_c, 4, 65, 0
6, 179340, Note_on_c, 4, 70, 90
6, 179459, Note_on_c, 4, 70, 0
6, 179460, Note_on_c, 4, 69, 90
6, 179699, Note_on_c, 4, 69, 0
6, 179700, Note_on_c, 4, 67, 90
6, 179819, Note_on_c, 4, 67, 0
6, 179880, Note_on_c, 4, 60, 90
6, 179909, Note_on_c, 4, 60, 0
6, 179910, Note_on_c, 4, 60, 90
6, 179939, Note_on_c, 4, 60, 0
6, 179940, Note_on_c, 4, 60, 90
6, 179999, Note_on_c, 4, 60, 0
6, 180000, Note_on_c, 4, 60, 90
6, 180059, Note_on_c, 4, 60, 0
6, 180060, Note_on_c, 4, 60, 90
6, 180119, Note_on_c, 4, 60, 0
6, 180120, Note_on_c, 4, 65, 90
6, 180179, Note_on_c, 4, 65, 0
6, 180240, Note_on_c, 4, 65, 90
6, 180269, Note_on_c, 4, 65, 0
6, 180270, Note_on_c, 4, 64, 90
6, 180299, Note_on_c, 4, 64, 0
6, 180300, Note_on_c, 4, 65, 90
6, 180359, Note_on_c, 4, 65, 0
6, 180360, Note_on_c, 4, 65, 90
6, 180419, Note_on_c, 4, 65, 0
6, 180420, Note_on_c, 4, 65, 90
6, 180479, Note_on_c, 4, 65, 0
6, 180480, Note_on_c, 4, 60, 90
6, 180539, Note_on_c, 4, 60, 0
6, 180600, Note_on_c, 4, 60, 90
6, 180629, Note_on_c, 4, 60, 0
6, 180630, Note_on_c, 4, 58, 90
6, 180659, Note_on_c, 4, 58, 0
6, 180660, Note_on_c, 4, 60, 90
6, 180719, Note_on_c, 4, 60, 0
6, 180720, Note_on_c, 4, 60, 90
6, 180779, Note_on_c, 4, 60, 0
6, 180780, Note_on_c, 4, 60, 90
6, 180839, Note_on_c, 4, 60, 0
6, 180840, Note_on_c, 4, 57, 90
6, 180899, Note_on_c, 4, 57, 0
6, 180960, Note_on_c, 4, 81, 90
6, 180989, Note_on_c, 4, 81, 0
6, 180990, Note_on_c, 4, 79, 90
6, 181019, Note_on_c, 4, 79, 0
6, 181020, Note_on_c, 4, 81, 90
6, 181079, Note_on_c, 4, 81, 0
6, 181080, Note_on_c, 4, 74, 90
6, 181139, Note_on_c, 4, 74, 0
6, 181140, Note_on_c, 4, 74, 90
6, 181199, Note_on_c, 4, 74, 0
6, 181200, Note_on_c, 4, 79, 90
6, 181229, Note_on_c, 4, 79, 0
6, 181230, Note_on_c, 4, 77, 90
6, 181259, Note_on_c, 4, 77, 0
6, 181260, Note_on_c, 4, 79, 90
6, 181319, Note_on_c, 4, 79, 0
6, 181320, Note_on_c, 4, 76, 90
6, 181379, Note_on_c, 4, 76, 0
6, 181380, Note_on_c, 4, 76, 90
6, 181439, Note_on_c, 4, 76, 0
6, 181440, Note_on_c, 4, 77, 90
6, 181499, Note_on_c, 4, 77, 0
6, 181500, Note_on_c, 4, 77, 90
6, 181559, Note_on_c, 4, 77, 0
6, 181560, Note_on_c, 4, 72, 90
6, 181619, Note_on_c, 4, 72, 0
6, 181620, Note_on_c, 4, 70, 90
6, 181739, Note_on_c, 4, 70, 0
6, 181740, Note_on_c, 4, 69, 90
6, 181859, Note_on_c, 4, 69, 0
6, 181860, Note_on_c, 4, 67, 90
6, 182099, Note_on_c, 4, 67, 0
6, 182100, Note_on_c, 4, 65, 90
6, 182219, Note_on_c, 4, 65, 0
6, 182220, Note_on_c, 4, 70, 90
6, 182339, Note_on_c, 4, 70, 0
6, 182340, Note_on_c, 4, 72, 90
6, 182519, Note_on_c, 4, 72, 0
6, 182520, Note_on_c, 4, 74, 90
6, 182549, Note_on_c, 4, 74, 0
6, 182550, Note_on_c, 4, 75, 90
6, 182579, Note_on_c, 4, 75, 0
6, 182580, Note_on_c, 4, 74, 90
6, 182939, Note_on_c, 4, 74, 0
6, 182940, Note_on_c, 4, 72, 90
6, 183059, Note_on_c, 4, 72, 0
6, 183720, Note_on_c, 4, 77, 90
6, 183749, Note_on_c, 4, 77, 0
6, 183750, Note_on_c, 4, 76, 90
6, 183779, Note_on_c, 4, 76, 0
6, 183780, Note_on_c, 4, 77, 90
6, 183839, Note_on_c, 4, 77, 0
6, 183840, Note_on_c, 4, 81, 90
6, 183869, Note_on_c, 4, 81, 0
6, 183870, Note_on_c, 4, 79, 90
6, 183899, Note_on_c, 4, 79, 0
6, 183900, Note_on_c, 4, 81, 90
6, 183959, Note_on_c, 4, 81, 0
6, 183960, Note_on_c, 4, 74, 90
6, 184019, Note_on_c, 4, 74, 0
6, 184020, Note_on_c, 4, 74, 90
6, 184079, Note_on_c, 4, 74, 0
6, 184080, Note_on_c, 4, 79, 90
6, 184109, Note_on_c, 4, 79, 0
6, 184110, Note_on_c, 4, 77, 90
6, 184139, Note_on_c, 4, 77, 0
6, 184140, Note_on_c, 4, 79, 90
6, 184199, Note_on_c, 4, 79, 0
6, 184200, Note_on_c, 4, 76, 90
6, 184259, Note_on_c, 4, 76, 0
6, 184260, Note_on_c, 4, 76, 90
6, 184319, Note_on_c, 4, 76, 0
6, 184320, Note_on_c, 4, 77, 90
6, 184379, Note_on_c, 4, 77, 0
6, 184380, Note_on_c, 4, 77, 90
6, 184439, Note_on_c, 4, 77, 0
6, 184440, Note_on_c, 4, 74, 90
6, 184499, Note_on_c, 4, 74, 0
6, 184500, Note_on_c, 4, 72, 90
6, 184619, Note_on_c, 4, 72, 0
6, 184620, Note_on_c, 4, 70, 90
6, 184739, Note_on_c, 4, 70, 0
6, 184740, Note_on_c, 4, 72, 90
6, 184979, Note_on_c, 4, 72, 0
6, 184980, Note_on_c, 4, 65, 90
6, 185099, Note_on_c, 4, 65, 0
6, 185100, Note_on_c, 4, 70, 90
6, 185219, Note_on_c, 4, 70, 0
6, 185220, Note_on_c, 4, 69, 90
6, 185459, Note_on_c, 4, 69, 0
6, 185460, Note_on_c, 4, 67, 90
6, 185579, Note_on_c, 4, 67, 0
6, 185640, Note_on_c, 4, 60, 90
6, 185669, Note_on_c, 4, 60, 0
6, 185670, Note_on_c, 4, 60, 90
6, 185699, Note_on_c, 4, 60, 0
6, 185700, Note_on_c, 4, 60, 90
6, 185759, Note_on_c, 4, 60, 0
6, 185760, Note_on_c, 4, 60, 90
6, 185819, Note_on_c, 4, 60, 0
6, 185820, Note_on_c, 4, 60, 90
6, 185879, Note_on_c, 4, 60, 0
6, 185880, Note_on_c, 4, 65, 90
6, 185939, Note_on_c, 4, 65, 0
6, 186000, Note_on_c, 4, 62, 90
6, 186029, Note_on_c, 4, 62, 0
6, 186030, Note_on_c, 4, 62, 90
6, 186059, Note_on_c, 4, 62, 0
6, 186060, Note_on_c, 4, 62, 90
6, 186119, Note_on_c, 4, 62, 0
6, 186120, Note_on_c, 4, 62, 90
6, 186179, Note_on_c, 4, 62, 0
6, 186180, Note_on_c, 4, 62, 90
6, 186239, Note_on_c, 4, 62, 0
6, 186240, Note_on_c, 4, 67, 90
6, 186299, Note_on_c, 4, 67, 0
6, 186360, Note_on_c, 4, 71, 90
6, 186389, Note_on_c, 4, 71, 0
6, 186390, Note_on_c, 4, 69, 90
6, 186419, Note_on_c, 4, 69, 0
6, 186420, Note_on_c, 4, 71, 90
6, 186479, Note_on_c, 4, 71, 0
6, 186480, Note_on_c, 4, 72, 90
6, 186539, Note_on_c, 4, 72, 0
6, 186540, Note_on_c, 4, 72, 90
6, 186599, Note_on_c, 4, 72, 0
6, 186600, Note_on_c, 4, 79, 90
6, 186629, Note_on_c, 4, 79, 0
6, 186630, Note_on_c, 4, 77, 90
6, 186659, Note_on_c, 4, 77, 0
6, 186660, Note_on_c, 4, 79, 90
6, 186719, Note_on_c, 4, 79, 0
6, 186720, Note_on_c, 4, 81, 90
6, 186779, Note_on_c, 4, 81, 0
6, 186780, Note_on_c, 4, 81, 90
6, 186839, Note_on_c, 4, 81, 0
6, 186840, Note_on_c, 4, 77, 90
6, 186899, Note_on_c, 4, 77, 0
6, 186900, Note_on_c, 4, 79, 90
6, 186959, Note_on_c, 4, 79, 0
6, 186960, Note_on_c, 4, 76, 90
6, 187019, Note_on_c, 4, 76, 0
6, 187020, Note_on_c, 4, 76, 90
6, 187079, Note_on_c, 4, 76, 0
6, 187080, Note_on_c, 4, 77, 90
6, 187139, Note_on_c, 4, 77, 0
6, 187140, Note_on_c, 4, 77, 90
6, 187199, Note_on_c, 4, 77, 0
6, 187200, Note_on_c, 4, 74, 90
6, 187259, Note_on_c, 4, 74, 0
6, 187260, Note_on_c, 4, 76, 90
6, 187379, Note_on_c, 4, 76, 0
6, 187380, Note_on_c, 4, 72, 90
6, 187619, Note_on_c, 4, 72, 0
6, 187620, Note_on_c, 4, 69, 90
6, 187859, Note_on_c, 4, 69, 0
6, 187860, Note_on_c, 4, 74, 90
6, 187979, Note_on_c, 4, 74, 0
6, 187980, Note_on_c, 4, 73, 90
6, 188099, Note_on_c, 4, 73, 0
6, 188100, Note_on_c, 4, 74, 90
6, 188279, Note_on_c, 4, 74, 0
6, 188280, Note_on_c, 4, 76, 90
6, 188309, Note_on_c, 4, 76, 0
6, 188310, Note_on_c, 4, 77, 90
6, 188339, Note_on_c, 4, 77, 0
6, 188340, Note_on_c, 4, 76, 90
6, 188699, Note_on_c, 4, 76, 0
6, 188700, Note_on_c, 4, 69, 90
6, 188819, Note_on_c, 4, 69, 0
6, 188880, Note_on_c, 4, 74, 90
6, 188909, Note_on_c, 4, 74, 0
6, 188910, Note_on_c, 4, 73, 90
6, 188939, Note_on_c, 4, 73, 0
6, 188940, Note_on_c, 4, 74, 90
6, 188999, Note_on_c, 4, 74, 0
6, 189000, Note_on_c, 4, 74, 90
6, 189059, Note_on_c, 4, 74, 0
6, 189060, Note_on_c, 4, 74, 90
6, 189119, Note_on_c, 4, 74, 0
6, 189120, Note_on_c, 4, 74, 90
6, 189149, Note_on_c, 4, 74, 0
6, 189150, Note_on_c, 4, 73, 90
6, 189179, Note_on_c, 4, 73, 0
6, 189180, Note_on_c, 4, 74, 90
6, 189239, Note_on_c, 4, 74, 0
6, 189240, Note_on_c, 4, 76, 90
6, 189299, Note_on_c, 4, 76, 0
6, 189300, Note_on_c, 4, 76, 90
6, 189359, Note_on_c, 4, 76, 0
6, 189360, Note_on_c, 4, 73, 90
6, 189419, Note_on_c, 4, 73, 0
6, 189420, Note_on_c, 4, 74, 90
6, 189539, Note_on_c, 4, 74, 0
6, 189600, Note_on_c, 4, 86, 90
6, 189629, Note_on_c, 4, 86, 0
6, 189630, Note_on_c, 4, 84, 90
6, 189659, Note_on_c, 4, 84, 0
6, 189660, Note_on_c, 4, 86, 90
6, 189719, Note_on_c, 4, 86, 0
6, 189720, Note_on_c, 4, 79, 90
6, 189779, Note_on_c, 4, 79, 0
6, 189780, Note_on_c, 4, 79, 90
6, 189839, Note_on_c, 4, 79, 0
6, 189840, Note_on_c, 4, 84, 90
6, 189869, Note_on_c, 4, 84, 0
6, 189870, Note_on_c, 4, 82, 90
6, 189899, Note_on_c, 4, 82, 0
6, 189900, Note_on_c, 4, 84, 90
6, 189959, Note_on_c, 4, 84, 0
6, 189960, Note_on_c, 4, 81, 90
6, 190019, Note_on_c, 4, 81, 0
6, 190020, Note_on_c, 4, 81, 90
6, 190079, Note_on_c, 4, 81, 0
6, 190080, Note_on_c, 4, 82, 90
6, 190139, Note_on_c, 4, 82, 0
6, 190140, Note_on_c, 4, 82, 90
6, 190259, Note_on_c, 4, 82, 0
6, 190260, Note_on_c, 4, 76, 90
6, 190379, Note_on_c, 4, 76, 0
6, 190380, Note_on_c, 4, 77, 90
6, 190499, Note_on_c, 4, 77, 0
6, 190500, Note_on_c, 4, 79, 90
6, 190619, Note_on_c, 4, 79, 0
6, 190620, Note_on_c, 4, 72, 90
6, 190739, Note_on_c, 4, 72, 0
6, 190740, Note_on_c, 4, 70, 90
6, 190859, Note_on_c, 4, 70, 0
6, 190860, Note_on_c, 4, 69, 90
6, 190979, Note_on_c, 4, 69, 0
6, 190980, Note_on_c, 4, 74, 90
6, 191099, Note_on_c, 4, 74, 0
6, 191100, Note_on_c, 4, 70, 90
6, 191219, Note_on_c, 4, 70, 0
6, 191220, Note_on_c, 4, 67, 90
6, 191579, Note_on_c, 4, 67, 0
6, 191580, Note_on_c, 4, 65, 90
6, 191699, Note_on_c, 4, 65, 0
6, 191760, Note_on_c, 4, 65, 90
6, 191789, Note_on_c, 4, 65, 0
6, 191790, Note_on_c, 4, 64, 90
6, 191819, Note_on_c, 4, 64, 0
6, 191820, Note_on_c, 4, 65, 90
6, 191879, Note_on_c, 4, 65, 0
6, 191880, Note_on_c, 4, 65, 90
6, 191939, Note_on_c, 4, 65, 0
6, 191940, Note_on_c, 4, 65, 90
6, 191999, Note_on_c, 4, 65, 0
6, 192000, Note_on_c, 4, 60, 90
6, 192059, Note_on_c, 4, 60, 0
6, 192120, Note_on_c, 4, 60, 90
6, 192149, Note_on_c, 4, 60, 0
6, 192150, Note_on_c, 4, 58, 90
6, 192179, Note_on_c, 4, 58, 0
6, 192180, Note_on_c, 4, 60, 90
6, 192239, Note_on_c, 4, 60, 0
6, 192240, Note_on_c, 4, 60, 90
6, 192299, Note_on_c, 4, 60, 0
6, 192300, Note_on_c, 4, 60, 90
6, 192359, Note_on_c, 4, 60, 0
6, 192360, Note_on_c, 4, 57, 90
6, 192419, Note_on_c, 4, 57, 0
6, 192480, Note_on_c, 4, 81, 90
6, 192509, Note_on_c, 4, 81, 0
6, 192510, Note_on_c, 4, 79, 90
6, 192539, Note_on_c, 4, 79, 0
6, 192540, Note_on_c, 4, 81, 90
6, 192599, Note_on_c, 4, 81, 0
6, 192600, Note_on_c, 4, 74, 90
6, 192659, Note_on_c, 4, 74, 0
6, 192660, Note_on_c, 4, 74, 90
6, 192719, Note_on_c, 4, 74, 0
6, 192720, Note_on_c, 4, 79, 90
6, 192749, Note_on_c, 4, 79, 0
6, 192750, Note_on_c, 4, 77, 90
6, 192779, Note_on_c, 4, 77, 0
6, 192780, Note_on_c, 4, 79, 90
6, 192839, Note_on_c, 4, 79, 0
6, 192840, Note_on_c, 4, 76, 90
6, 192899, Note_on_c, 4, 76, 0
6, 192900, Note_on_c, 4, 76, 90
6, 192959, Note_on_c, 4, 76, 0
6, 192960, Note_on_c, 4, 77, 90
6, 193019, Note_on_c, 4, 77, 0
6, 193020, Note_on_c, 4, 77, 90
6, 193139, Note_on_c, 4, 77, 0
6, 193139, End_track
7, 0, Start_track
7, 0, MIDI_port, 0
7, 0, Title_t, "Violin II Solo/Tutti"
7, 0, Program_c, 5, 48
7, 0, Control_c, 5, 7, 127
7, 0, Control_c, 5, 10, 83
7, 0, Note_on_c, 5, 65, 90
7, 119, Note_on_c, 5, 65, 0
7, 120, Note_on_c, 5, 65, 90
7, 179, Note_on_c, 5, 65, 0
7, 180, Note_on_c, 5, 64, 90
7, 195, Note_on_c, 5, 64, 0
7, 195, Note_on_c, 5, 65, 90
7, 210, Note_on_c, 5, 65, 0
7, 210, Note_on_c, 5, 64, 90
7, 220, Note_on_c, 5, 64, 0
7, 220, Note_on_c, 5, 65, 90
7, 230, Note_on_c, 5, 65, 0
7, 230, Note_on_c, 5, 64, 90
7, 240, Note_on_c, 5, 64, 0
7, 240, Note_on_c, 5, 65, 90
7, 250, Note_on_c, 5, 65, 0
7, 250, Note_on_c, 5, 64, 90
7, 260, Note_on_c, 5, 64, 0
7, 260, Note_on_c, 5, 65, 90
7, 270, Note_on_c, 5, 65, 0
7, 270, Note_on_c, 5, 64, 90
7, 280, Note_on_c, 5, 64, 0
7, 280, Note_on_c, 5, 65, 90
7, 290, Note_on_c, 5, 65, 0
7, 290, Note_on_c, 5, 64, 90
7, 300, Note_on_c, 5, 64, 0
7, 300, Note_on_c, 5, 60, 90
7, 359, Note_on_c, 5, 60, 0
7, 360, Note_on_c, 5, 65, 90
7, 479, Note_on_c, 5, 65, 0
7, 480, Note_on_c, 5, 69, 90
7, 539, Note_on_c, 5, 69, 0
7, 540, Note_on_c, 5, 70, 90
7, 569, Note_on_c, 5, 70, 0
7, 600, Note_on_c, 5, 69, 90
7, 629, Note_on_c, 5, 69, 0
7, 720, Note_on_c, 5, 70, 90
7, 779, Note_on_c, 5, 70, 0
7, 780, Note_on_c, 5, 67, 90
7, 869, Note_on_c, 5, 67, 0
7, 870, Note_on_c, 5, 65, 90
7, 884, Note_on_c, 5, 65, 0
7, 885, Note_on_c, 5, 67, 90
7, 899, Note_on_c, 5, 67, 0
7, 900, Note_on_c, 5, 72, 90
7, 1019, Note_on_c, 5, 72, 0
7, 1020, Note_on_c, 5, 67, 90
7, 1079, Note_on_c, 5, 67, 0
7, 1080, Note_on_c, 5, 65, 90
7, 1139, Note_on_c, 5, 65, 0
7, 1140, Note_on_c, 5, 65, 90
7, 1199, Note_on_c, 5, 65, 0
7, 1200, Note_on_c, 5, 65, 90
7, 1259, Note_on_c, 5, 65, 0
7, 1260, Note_on_c, 5, 64, 90
7, 1439, Note_on_c, 5, 64, 0
7, 1440, Note_on_c, 5, 60, 90
7, 1487, Note_on_c, 5, 60, 0
7, 1500, Note_on_c, 5, 60, 90
7, 1547, Note_on_c, 5, 60, 0
7, 1560, Note_on_c, 5, 60, 90
7, 1607, Note_on_c, 5, 60, 0
7, 1620, Note_on_c, 5, 60, 90
7, 1667, Note_on_c, 5, 60, 0
7, 1680, Note_on_c, 5, 60, 90
7, 1727, Note_on_c, 5, 60, 0
7, 1740, Note_on_c, 5, 60, 90
7, 1787, Note_on_c, 5, 60, 0
7, 1800, Note_on_c, 5, 72, 90
7, 1919, Note_on_c, 5, 72, 0
7, 1920, Note_on_c, 5, 76, 90
7, 1979, Note_on_c, 5, 76, 0
7, 1980, Note_on_c, 5, 77, 90
7, 2039, Note_on_c, 5, 77, 0
7, 2040, Note_on_c, 5, 76, 90
7, 2099, Note_on_c, 5, 76, 0
7, 2100, Note_on_c, 5, 72, 90
7, 2159, Note_on_c, 5, 72, 0
7, 2520, Note_on_c, 5, 74, 90
7, 2639, Note_on_c, 5, 74, 0
7, 2640, Note_on_c, 5, 78, 90
7, 2699, Note_on_c, 5, 78, 0
7, 2700, Note_on_c, 5, 79, 90
7, 2759, Note_on_c, 5, 79, 0
7, 2760, Note_on_c, 5, 78, 90
7, 2819, Note_on_c, 5, 78, 0
7, 2820, Note_on_c, 5, 79, 90
7, 2879, Note_on_c, 5, 79, 0
7, 2880, Note_on_c, 5, 74, 90
7, 2939, Note_on_c, 5, 74, 0
7, 2940, Note_on_c, 5, 79, 90
7, 2999, Note_on_c, 5, 79, 0
7, 3000, Note_on_c, 5, 70, 90
7, 3119, Note_on_c, 5, 70, 0
7, 3120, Note_on_c, 5, 67, 90
7, 3179, Note_on_c, 5, 67, 0
7, 3180, Note_on_c, 5, 76, 90
7, 3239, Note_on_c, 5, 76, 0
7, 3240, Note_on_c, 5, 72, 90
7, 3299, Note_on_c, 5, 72, 0
7, 3300, Note_on_c, 5, 77, 90
7, 3359, Note_on_c, 5, 77, 0
7, 3360, Note_on_c, 5, 69, 90
7, 3479, Note_on_c, 5, 69, 0
7, 3480, Note_on_c, 5, 65, 90
7, 3539, Note_on_c, 5, 65, 0
7, 3540, Note_on_c, 5, 74, 90
7, 3659, Note_on_c, 5, 74, 0
7, 3660, Note_on_c, 5, 79, 90
7, 3719, Note_on_c, 5, 79, 0
7, 3720, Note_on_c, 5, 67, 90
7, 3839, Note_on_c, 5, 67, 0
7, 3840, Note_on_c, 5, 65, 90
7, 3869, Note_on_c, 5, 65, 0
7, 3870, Note_on_c, 5, 70, 90
7, 3899, Note_on_c, 5, 70, 0
7, 3900, Note_on_c, 5, 69, 90
7, 3929, Note_on_c, 5, 69, 0
7, 4020, Note_on_c, 5, 65, 90
7, 4049, Note_on_c, 5, 65, 0
7, 4080, Note_on_c, 5, 64, 90
7, 4139, Note_on_c, 5, 64, 0
7, 4140, Note_on_c, 5, 60, 90
7, 4319, Note_on_c, 5, 60, 0
7, 4680, Note_on_c, 5, 65, 90
7, 4799, Note_on_c, 5, 65, 0
7, 4800, Note_on_c, 5, 69, 90
7, 4859, Note_on_c, 5, 69, 0
7, 4860, Note_on_c, 5, 70, 90
7, 4889, Note_on_c, 5, 70, 0
7, 4920, Note_on_c, 5, 69, 90
7, 4949, Note_on_c, 5, 69, 0
7, 5040, Note_on_c, 5, 72, 90
7, 5070, Note_on_c, 5, 72, 0
7, 5400, Note_on_c, 5, 70, 90
7, 5430, Note_on_c, 5, 70, 0
7, 5760, Note_on_c, 5, 69, 90
7, 5790, Note_on_c, 5, 69, 0
7, 6120, Note_on_c, 5, 67, 90
7, 6150, Note_on_c, 5, 67, 0
7, 6480, Note_on_c, 5, 65, 90
7, 6600, Note_on_c, 5, 65, 0
7, 6600, Note_on_c, 5, 65, 90
7, 6660, Note_on_c, 5, 65, 0
7, 6660, Note_on_c, 5, 64, 90
7, 6780, Note_on_c, 5, 64, 0
7, 6780, Note_on_c, 5, 60, 90
7, 6840, Note_on_c, 5, 60, 0
7, 6840, Note_on_c, 5, 65, 90
7, 6959, Note_on_c, 5, 65, 0
7, 6960, Note_on_c, 5, 69, 90
7, 7019, Note_on_c, 5, 69, 0
7, 7020, Note_on_c, 5, 70, 90
7, 7049, Note_on_c, 5, 70, 0
7, 7080, Note_on_c, 5, 69, 90
7, 7109, Note_on_c, 5, 69, 0
7, 7200, Note_on_c, 5, 70, 90
7, 7259, Note_on_c, 5, 70, 0
7, 7260, Note_on_c, 5, 67, 90
7, 7349, Note_on_c, 5, 67, 0
7, 7350, Note_on_c, 5, 65, 90
7, 7364, Note_on_c, 5, 65, 0
7, 7365, Note_on_c, 5, 67, 90
7, 7379, Note_on_c, 5, 67, 0
7, 7380, Note_on_c, 5, 72, 90
7, 7499, Note_on_c, 5, 72, 0
7, 7500, Note_on_c, 5, 67, 90
7, 7559, Note_on_c, 5, 67, 0
7, 7560, Note_on_c, 5, 65, 90
7, 7619, Note_on_c, 5, 65, 0
7, 7620, Note_on_c, 5, 65, 90
7, 7679, Note_on_c, 5, 65, 0
7, 7680, Note_on_c, 5, 65, 90
7, 7739, Note_on_c, 5, 65, 0
7, 7740, Note_on_c, 5, 65, 90
7, 7799, Note_on_c, 5, 65, 0
7, 7800, Note_on_c, 5, 64, 90
7, 7919, Note_on_c, 5, 64, 0
7, 8280, Note_on_c, 5, 72, 90
7, 8399, Note_on_c, 5, 72, 0
7, 8400, Note_on_c, 5, 76, 90
7, 8459, Note_on_c, 5, 76, 0
7, 8460, Note_on_c, 5, 77, 90
7, 8519, Note_on_c, 5, 77, 0
7, 8520, Note_on_c, 5, 79, 90
7, 8579, Note_on_c, 5, 79, 0
7, 8580, Note_on_c, 5, 81, 90
7, 8639, Note_on_c, 5, 81, 0
7, 8640, Note_on_c, 5, 65, 90
7, 8699, Note_on_c, 5, 65, 0
7, 8700, Note_on_c, 5, 60, 90
7, 8759, Note_on_c, 5, 60, 0
7, 8760, Note_on_c, 5, 65, 90
7, 8880, Note_on_c, 5, 65, 0
7, 8880, Note_on_c, 5, 57, 90
7, 8939, Note_on_c, 5, 57, 0
7, 8940, Note_on_c, 5, 58, 90
7, 8999, Note_on_c, 5, 58, 0
7, 9000, Note_on_c, 5, 65, 90
7, 9119, Note_on_c, 5, 65, 0
7, 9120, Note_on_c, 5, 63, 90
7, 9179, Note_on_c, 5, 63, 0
7, 9180, Note_on_c, 5, 70, 90
7, 9239, Note_on_c, 5, 70, 0
7, 9240, Note_on_c, 5, 69, 90
7, 9299, Note_on_c, 5, 69, 0
7, 9300, Note_on_c, 5, 70, 90
7, 9359, Note_on_c, 5, 70, 0
7, 9360, Note_on_c, 5, 65, 90
7, 9419, Note_on_c, 5, 65, 0
7, 9420, Note_on_c, 5, 70, 90
7, 9479, Note_on_c, 5, 70, 0
7, 9480, Note_on_c, 5, 62, 90
7, 9599, Note_on_c, 5, 62, 0
7, 9600, Note_on_c, 5, 58, 90
7, 9659, Note_on_c, 5, 58, 0
7, 9660, Note_on_c, 5, 64, 90
7, 9779, Note_on_c, 5, 64, 0
7, 9780, Note_on_c, 5, 69, 90
7, 9839, Note_on_c, 5, 69, 0
7, 9840, Note_on_c, 5, 60, 90
7, 9959, Note_on_c, 5, 60, 0
7, 9960, Note_on_c, 5, 57, 90
7, 10019, Note_on_c, 5, 57, 0
7, 10020, Note_on_c, 5, 62, 90
7, 10139, Note_on_c, 5, 62, 0
7, 10140, Note_on_c, 5, 67, 90
7, 10199, Note_on_c, 5, 67, 0
7, 10200, Note_on_c, 5, 58, 90
7, 10319, Note_on_c, 5, 58, 0
7, 10320, Note_on_c, 5, 55, 90
7, 10379, Note_on_c, 5, 55, 0
7, 10380, Note_on_c, 5, 64, 90
7, 10439, Note_on_c, 5, 64, 0
7, 10440, Note_on_c, 5, 60, 90
7, 10499, Note_on_c, 5, 60, 0
7, 10500, Note_on_c, 5, 62, 90
7, 10559, Note_on_c, 5, 62, 0
7, 10560, Note_on_c, 5, 64, 90
7, 10619, Note_on_c, 5, 64, 0
7, 10620, Note_on_c, 5, 62, 90
7, 10739, Note_on_c, 5, 62, 0
7, 10740, Note_on_c, 5, 67, 90
7, 10799, Note_on_c, 5, 67, 0
7, 10800, Note_on_c, 5, 72, 90
7, 10919, Note_on_c, 5, 72, 0
7, 10920, Note_on_c, 5, 72, 90
7, 10979, Note_on_c, 5, 72, 0
7, 10980, Note_on_c, 5, 72, 90
7, 11039, Note_on_c, 5, 72, 0
7, 11040, Note_on_c, 5, 71, 90
7, 11099, Note_on_c, 5, 71, 0
7, 11100, Note_on_c, 5, 72, 90
7, 11159, Note_on_c, 5, 72, 0
7, 11160, Note_on_c, 5, 70, 90
7, 11219, Note_on_c, 5, 70, 0
7, 11220, Note_on_c, 5, 69, 90
7, 11279, Note_on_c, 5, 69, 0
7, 11280, Note_on_c, 5, 67, 90
7, 11339, Note_on_c, 5, 67, 0
7, 11340, Note_on_c, 5, 65, 90
7, 11369, Note_on_c, 5, 65, 0
7, 11400, Note_on_c, 5, 64, 90
7, 11429, Note_on_c, 5, 64, 0
7, 11520, Note_on_c, 5, 70, 90
7, 11550, Note_on_c, 5, 70, 0
7, 11880, Note_on_c, 5, 69, 90
7, 11910, Note_on_c, 5, 69, 0
7, 12240, Note_on_c, 5, 67, 90
7, 12270, Note_on_c, 5, 67, 0
7, 12600, Note_on_c, 5, 65, 90
7, 12630, Note_on_c, 5, 65, 0
7, 12960, Note_on_c, 5, 72, 90
7, 13079, Note_on_c, 5, 72, 0
7, 13080, Note_on_c, 5, 74, 90
7, 13139, Note_on_c, 5, 74, 0
7, 13140, Note_on_c, 5, 71, 90
7, 13259, Note_on_c, 5, 71, 0
7, 13260, Note_on_c, 5, 72, 90
7, 13319, Note_on_c, 5, 72, 0
7, 13320, Note_on_c, 5, 72, 90
7, 13379, Note_on_c, 5, 72, 0
7, 13380, Note_on_c, 5, 74, 90
7, 13439, Note_on_c, 5, 74, 0
7, 13440, Note_on_c, 5, 76, 90
7, 13499, Note_on_c, 5, 76, 0
7, 13500, Note_on_c, 5, 77, 90
7, 13529, Note_on_c, 5, 77, 0
7, 13560, Note_on_c, 5, 76, 90
7, 13589, Note_on_c, 5, 76, 0
7, 13680, Note_on_c, 5, 76, 90
7, 13739, Note_on_c, 5, 76, 0
7, 13740, Note_on_c, 5, 74, 90
7, 13769, Note_on_c, 5, 74, 0
7, 13770, Note_on_c, 5, 76, 90
7, 13799, Note_on_c, 5, 76, 0
7, 13800, Note_on_c, 5, 77, 90
7, 13829, Note_on_c, 5, 77, 0
7, 13830, Note_on_c, 5, 74, 90
7, 13859, Note_on_c, 5, 74, 0
7, 13860, Note_on_c, 5, 71, 90
7, 13919, Note_on_c, 5, 71, 0
7, 13920, Note_on_c, 5, 76, 90
7, 13979, Note_on_c, 5, 76, 0
7, 13980, Note_on_c, 5, 72, 90
7, 14099, Note_on_c, 5, 72, 0
7, 14100, Note_on_c, 5, 74, 90
7, 14159, Note_on_c, 5, 74, 0
7, 14160, Note_on_c, 5, 71, 90
7, 14219, Note_on_c, 5, 71, 0
7, 14220, Note_on_c, 5, 67, 90
7, 14339, Note_on_c, 5, 67, 0
7, 14400, Note_on_c, 5, 55, 90
7, 14447, Note_on_c, 5, 55, 0
7, 14460, Note_on_c, 5, 55, 90
7, 14507, Note_on_c, 5, 55, 0
7, 14520, Note_on_c, 5, 55, 90
7, 14567, Note_on_c, 5, 55, 0
7, 14580, Note_on_c, 5, 55, 90
7, 14627, Note_on_c, 5, 55, 0
7, 14640, Note_on_c, 5, 55, 90
7, 14687, Note_on_c, 5, 55, 0
7, 14700, Note_on_c, 5, 55, 90
7, 14747, Note_on_c, 5, 55, 0
7, 14760, Note_on_c, 5, 67, 90
7, 14880, Note_on_c, 5, 67, 0
7, 14880, Note_on_c, 5, 71, 90
7, 14939, Note_on_c, 5, 71, 0
7, 14940, Note_on_c, 5, 72, 90
7, 14999, Note_on_c, 5, 72, 0
7, 15000, Note_on_c, 5, 71, 90
7, 15059, Note_on_c, 5, 71, 0
7, 15060, Note_on_c, 5, 67, 90
7, 15119, Note_on_c, 5, 67, 0
7, 15480, Note_on_c, 5, 69, 90
7, 15600, Note_on_c, 5, 69, 0
7, 15600, Note_on_c, 5, 73, 90
7, 15659, Note_on_c, 5, 73, 0
7, 15660, Note_on_c, 5, 74, 90
7, 15719, Note_on_c, 5, 74, 0
7, 15720, Note_on_c, 5, 73, 90
7, 15779, Note_on_c, 5, 73, 0
7, 15780, Note_on_c, 5, 69, 90
7, 15899, Note_on_c, 5, 69, 0
7, 15900, Note_on_c, 5, 74, 90
7, 15959, Note_on_c, 5, 74, 0
7, 15960, Note_on_c, 5, 65, 90
7, 16079, Note_on_c, 5, 65, 0
7, 16080, Note_on_c, 5, 62, 90
7, 16139, Note_on_c, 5, 62, 0
7, 16140, Note_on_c, 5, 71, 90
7, 16199, Note_on_c, 5, 71, 0
7, 16200, Note_on_c, 5, 67, 90
7, 16259, Note_on_c, 5, 67, 0
7, 16260, Note_on_c, 5, 72, 90
7, 16319, Note_on_c, 5, 72, 0
7, 16320, Note_on_c, 5, 64, 90
7, 16439, Note_on_c, 5, 64, 0
7, 16440, Note_on_c, 5, 60, 90
7, 16499, Note_on_c, 5, 60, 0
7, 16500, Note_on_c, 5, 69, 90
7, 16619, Note_on_c, 5, 69, 0
7, 16620, Note_on_c, 5, 74, 90
7, 16679, Note_on_c, 5, 74, 0
7, 16680, Note_on_c, 5, 62, 90
7, 16799, Note_on_c, 5, 62, 0
7, 16800, Note_on_c, 5, 60, 90
7, 16829, Note_on_c, 5, 60, 0
7, 16830, Note_on_c, 5, 77, 90
7, 16859, Note_on_c, 5, 77, 0
7, 16860, Note_on_c, 5, 76, 90
7, 16889, Note_on_c, 5, 76, 0
7, 16980, Note_on_c, 5, 72, 90
7, 17009, Note_on_c, 5, 72, 0
7, 17040, Note_on_c, 5, 71, 90
7, 17069, Note_on_c, 5, 71, 0
7, 17100, Note_on_c, 5, 67, 90
7, 17219, Note_on_c, 5, 67, 0
7, 17280, Note_on_c, 5, 67, 90
7, 17309, Note_on_c, 5, 67, 0
7, 17310, Note_on_c, 5, 69, 90
7, 17339, Note_on_c, 5, 69, 0
7, 17340, Note_on_c, 5, 70, 90
7, 17354, Note_on_c, 5, 70, 0
7, 17355, Note_on_c, 5, 69, 90
7, 17369, Note_on_c, 5, 69, 0
7, 17370, Note_on_c, 5, 70, 90
7, 17380, Note_on_c, 5, 70, 0
7, 17380, Note_on_c, 5, 69, 90
7, 17390, Note_on_c, 5, 69, 0
7, 17390, Note_on_c, 5, 70, 90
7, 17400, Note_on_c, 5, 70, 0
7, 17400, Note_on_c, 5, 69, 90
7, 17410, Note_on_c, 5, 69, 0
7, 17410, Note_on_c, 5, 70, 90
7, 17420, Note_on_c, 5, 70, 0
7, 17420, Note_on_c, 5, 69, 90
7, 17430, Note_on_c, 5, 69, 0
7, 17430, Note_on_c, 5, 67, 90
7, 17444, Note_on_c, 5, 67, 0
7, 17445, Note_on_c, 5, 69, 90
7, 17459, Note_on_c, 5, 69, 0
7, 17460, Note_on_c, 5, 74, 90
7, 17639, Note_on_c, 5, 74, 0
7, 18000, Note_on_c, 5, 65, 90
7, 18120, Note_on_c, 5, 65, 0
7, 18120, Note_on_c, 5, 64, 90
7, 18180, Note_on_c, 5, 64, 0
7, 18180, Note_on_c, 5, 62, 90
7, 18240, Note_on_c, 5, 62, 0
7, 18240, Note_on_c, 5, 73, 90
7, 18300, Note_on_c, 5, 73, 0
7, 18300, Note_on_c, 5, 74, 90
7, 18420, Note_on_c, 5, 74, 0
7, 18420, Note_on_c, 5, 67, 90
7, 18480, Note_on_c, 5, 67, 0
7, 18480, Note_on_c, 5, 70, 90
7, 18540, Note_on_c, 5, 70, 0
7, 18540, Note_on_c, 5, 69, 90
7, 18659, Note_on_c, 5, 69, 0
7, 18660, Note_on_c, 5, 64, 90
7, 18719, Note_on_c, 5, 64, 0
7, 18720, Note_on_c, 5, 69, 90
7, 18750, Note_on_c, 5, 69, 0
7, 18780, Note_on_c, 5, 74, 90
7, 18810, Note_on_c, 5, 74, 0
7, 18900, Note_on_c, 5, 74, 90
7, 18930, Note_on_c, 5, 74, 0
7, 18960, Note_on_c, 5, 69, 90
7, 18990, Note_on_c, 5, 69, 0
7, 19080, Note_on_c, 5, 62, 90
7, 19127, Note_on_c, 5, 62, 0
7, 19140, Note_on_c, 5, 62, 90
7, 19187, Note_on_c, 5, 62, 0
7, 19200, Note_on_c, 5, 62, 90
7, 19247, Note_on_c, 5, 62, 0
7, 19260, Note_on_c, 5, 62, 90
7, 19307, Note_on_c, 5, 62, 0
7, 19320, Note_on_c, 5, 62, 90
7, 19367, Note_on_c, 5, 62, 0
7, 19380, Note_on_c, 5, 62, 90
7, 19427, Note_on_c, 5, 62, 0
7, 19440, Note_on_c, 5, 67, 90
7, 19470, Note_on_c, 5, 67, 0
7, 19500, Note_on_c, 5, 72, 90
7, 19530, Note_on_c, 5, 72, 0
7, 19620, Note_on_c, 5, 72, 90
7, 19650, Note_on_c, 5, 72, 0
7, 19680, Note_on_c, 5, 67, 90
7, 19710, Note_on_c, 5, 67, 0
7, 19800, Note_on_c, 5, 60, 90
7, 19847, Note_on_c, 5, 60, 0
7, 19860, Note_on_c, 5, 60, 90
7, 19907, Note_on_c, 5, 60, 0
7, 19920, Note_on_c, 5, 60, 90
7, 19967, Note_on_c, 5, 60, 0
7, 19980, Note_on_c, 5, 60, 90
7, 20027, Note_on_c, 5, 60, 0
7, 20040, Note_on_c, 5, 60, 90
7, 20087, Note_on_c, 5, 60, 0
7, 20100, Note_on_c, 5, 60, 90
7, 20147, Note_on_c, 5, 60, 0
7, 20340, Note_on_c, 5, 64, 90
7, 20399, Note_on_c, 5, 64, 0
7, 20400, Note_on_c, 5, 65, 90
7, 20459, Note_on_c, 5, 65, 0
7, 20460, Note_on_c, 5, 64, 90
7, 20519, Note_on_c, 5, 64, 0
7, 20520, Note_on_c, 5, 69, 90
7, 20639, Note_on_c, 5, 69, 0
7, 20640, Note_on_c, 5, 64, 90
7, 20699, Note_on_c, 5, 64, 0
7, 20700, Note_on_c, 5, 65, 90
7, 20729, Note_on_c, 5, 65, 0
7, 20730, Note_on_c, 5, 64, 90
7, 20759, Note_on_c, 5, 64, 0
7, 20760, Note_on_c, 5, 65, 90
7, 20789, Note_on_c, 5, 65, 0
7, 20790, Note_on_c, 5, 67, 90
7, 20819, Note_on_c, 5, 67, 0
7, 20820, Note_on_c, 5, 69, 90
7, 20939, Note_on_c, 5, 69, 0
7, 20940, Note_on_c, 5, 67, 90
7, 20999, Note_on_c, 5, 67, 0
7, 21000, Note_on_c, 5, 65, 90
7, 21059, Note_on_c, 5, 65, 0
7, 21060, Note_on_c, 5, 64, 90
7, 21119, Note_on_c, 5, 64, 0
7, 21120, Note_on_c, 5, 65, 90
7, 21149, Note_on_c, 5, 65, 0
7, 21150, Note_on_c, 5, 64, 90
7, 21179, Note_on_c, 5, 64, 0
7, 21180, Note_on_c, 5, 65, 90
7, 21239, Note_on_c, 5, 65, 0
7, 21240, Note_on_c, 5, 70, 90
7, 21299, Note_on_c, 5, 70, 0
7, 21300, Note_on_c, 5, 69, 90
7, 21359, Note_on_c, 5, 69, 0
7, 21360, Note_on_c, 5, 67, 90
7, 21419, Note_on_c, 5, 67, 0
7, 21420, Note_on_c, 5, 65, 90
7, 21539, Note_on_c, 5, 65, 0
7, 21600, Note_on_c, 5, 64, 90
7, 21615, Note_on_c, 5, 64, 0
7, 21630, Note_on_c, 5, 57, 90
7, 21645, Note_on_c, 5, 57, 0
7, 21660, Note_on_c, 5, 57, 90
7, 21675, Note_on_c, 5, 57, 0
7, 21690, Note_on_c, 5, 64, 90
7, 21705, Note_on_c, 5, 64, 0
7, 21720, Note_on_c, 5, 65, 90
7, 21735, Note_on_c, 5, 65, 0
7, 21750, Note_on_c, 5, 62, 90
7, 21765, Note_on_c, 5, 62, 0
7, 21780, Note_on_c, 5, 64, 90
7, 21795, Note_on_c, 5, 64, 0
7, 21810, Note_on_c, 5, 57, 90
7, 21825, Note_on_c, 5, 57, 0
7, 21840, Note_on_c, 5, 57, 90
7, 21855, Note_on_c, 5, 57, 0
7, 21870, Note_on_c, 5, 64, 90
7, 21885, Note_on_c, 5, 64, 0
7, 21900, Note_on_c, 5, 62, 90
7, 21915, Note_on_c, 5, 62, 0
7, 21930, Note_on_c, 5, 57, 90
7, 21945, Note_on_c, 5, 57, 0
7, 21960, Note_on_c, 5, 66, 90
7, 22019, Note_on_c, 5, 66, 0
7, 22020, Note_on_c, 5, 67, 90
7, 22079, Note_on_c, 5, 67, 0
7, 22080, Note_on_c, 5, 66, 90
7, 22139, Note_on_c, 5, 66, 0
7, 22140, Note_on_c, 5, 67, 90
7, 22199, Note_on_c, 5, 67, 0
7, 22200, Note_on_c, 5, 66, 90
7, 22259, Note_on_c, 5, 66, 0
7, 22260, Note_on_c, 5, 67, 90
7, 22319, Note_on_c, 5, 67, 0
7, 22680, Note_on_c, 5, 69, 90
7, 22739, Note_on_c, 5, 69, 0
7, 22740, Note_on_c, 5, 67, 90
7, 22799, Note_on_c, 5, 67, 0
7, 22800, Note_on_c, 5, 67, 90
7, 22859, Note_on_c, 5, 67, 0
7, 22860, Note_on_c, 5, 69, 90
7, 22919, Note_on_c, 5, 69, 0
7, 22920, Note_on_c, 5, 64, 90
7, 22979, Note_on_c, 5, 64, 0
7, 22980, Note_on_c, 5, 69, 90
7, 23099, Note_on_c, 5, 69, 0
7, 23100, Note_on_c, 5, 74, 90
7, 23159, Note_on_c, 5, 74, 0
7, 23160, Note_on_c, 5, 65, 90
7, 23279, Note_on_c, 5, 65, 0
7, 23280, Note_on_c, 5, 62, 90
7, 23339, Note_on_c, 5, 62, 0
7, 23340, Note_on_c, 5, 71, 90
7, 23399, Note_on_c, 5, 71, 0
7, 23400, Note_on_c, 5, 67, 90
7, 23459, Note_on_c, 5, 67, 0
7, 23460, Note_on_c, 5, 72, 90
7, 23519, Note_on_c, 5, 72, 0
7, 23520, Note_on_c, 5, 63, 90
7, 23639, Note_on_c, 5, 63, 0
7, 23640, Note_on_c, 5, 60, 90
7, 23699, Note_on_c, 5, 60, 0
7, 23700, Note_on_c, 5, 69, 90
7, 23759, Note_on_c, 5, 69, 0
7, 23760, Note_on_c, 5, 65, 90
7, 23819, Note_on_c, 5, 65, 0
7, 23820, Note_on_c, 5, 70, 90
7, 23879, Note_on_c, 5, 70, 0
7, 23880, Note_on_c, 5, 62, 90
7, 23999, Note_on_c, 5, 62, 0
7, 24000, Note_on_c, 5, 64, 90
7, 24029, Note_on_c, 5, 64, 0
7, 24030, Note_on_c, 5, 74, 90
7, 24059, Note_on_c, 5, 74, 0
7, 24060, Note_on_c, 5, 73, 90
7, 24089, Note_on_c, 5, 73, 0
7, 24180, Note_on_c, 5, 74, 90
7, 24209, Note_on_c, 5, 74, 0
7, 24240, Note_on_c, 5, 73, 90
7, 24269, Note_on_c, 5, 73, 0
7, 24300, Note_on_c, 5, 69, 90
7, 24420, Note_on_c, 5, 69, 0
7, 24840, Note_on_c, 5, 62, 90
7, 24899, Note_on_c, 5, 62, 0
7, 24900, Note_on_c, 5, 60, 90
7, 24959, Note_on_c, 5, 60, 0
7, 24960, Note_on_c, 5, 59, 90
7, 25019, Note_on_c, 5, 59, 0
7, 25020, Note_on_c, 5, 60, 90
7, 25079, Note_on_c, 5, 60, 0
7, 25080, Note_on_c, 5, 59, 90
7, 25139, Note_on_c, 5, 59, 0
7, 25140, Note_on_c, 5, 60, 90
7, 25199, Note_on_c, 5, 60, 0
7, 25200, Note_on_c, 5, 60, 90
7, 25259, Note_on_c, 5, 60, 0
7, 25260, Note_on_c, 5, 64, 90
7, 25319, Note_on_c, 5, 64, 0
7, 25320, Note_on_c, 5, 62, 90
7, 25379, Note_on_c, 5, 62, 0
7, 25380, Note_on_c, 5, 64, 90
7, 25439, Note_on_c, 5, 64, 0
7, 25440, Note_on_c, 5, 68, 90
7, 25499, Note_on_c, 5, 68, 0
7, 25500, Note_on_c, 5, 69, 90
7, 25559, Note_on_c, 5, 69, 0
7, 25560, Note_on_c, 5, 65, 90
7, 25619, Note_on_c, 5, 65, 0
7, 25620, Note_on_c, 5, 64, 90
7, 25679, Note_on_c, 5, 64, 0
7, 25680, Note_on_c, 5, 62, 90
7, 25739, Note_on_c, 5, 62, 0
7, 25740, Note_on_c, 5, 64, 90
7, 25859, Note_on_c, 5, 64, 0
7, 25860, Note_on_c, 5, 64, 90
7, 25919, Note_on_c, 5, 64, 0
7, 25920, Note_on_c, 5, 64, 90
7, 25979, Note_on_c, 5, 64, 0
7, 25980, Note_on_c, 5, 64, 90
7, 26039, Note_on_c, 5, 64, 0
7, 26040, Note_on_c, 5, 64, 90
7, 26099, Note_on_c, 5, 64, 0
7, 26100, Note_on_c, 5, 64, 90
7, 26159, Note_on_c, 5, 64, 0
7, 26160, Note_on_c, 5, 64, 90
7, 26219, Note_on_c, 5, 64, 0
7, 26220, Note_on_c, 5, 64, 90
7, 26279, Note_on_c, 5, 64, 0
7, 26280, Note_on_c, 5, 65, 90
7, 26310, Note_on_c, 5, 65, 0
7, 26340, Note_on_c, 5, 74, 90
7, 26370, Note_on_c, 5, 74, 0
7, 26460, Note_on_c, 5, 74, 90
7, 26490, Note_on_c, 5, 74, 0
7, 26520, Note_on_c, 5, 69, 90
7, 26550, Note_on_c, 5, 69, 0
7, 26640, Note_on_c, 5, 62, 90
7, 26699, Note_on_c, 5, 62, 0
7, 26700, Note_on_c, 5, 62, 90
7, 26759, Note_on_c, 5, 62, 0
7, 26760, Note_on_c, 5, 62, 90
7, 26819, Note_on_c, 5, 62, 0
7, 26820, Note_on_c, 5, 62, 90
7, 26879, Note_on_c, 5, 62, 0
7, 26880, Note_on_c, 5, 62, 90
7, 26939, Note_on_c, 5, 62, 0
7, 26940, Note_on_c, 5, 62, 90
7, 26999, Note_on_c, 5, 62, 0
7, 27000, Note_on_c, 5, 64, 90
7, 27030, Note_on_c, 5, 64, 0
7, 27060, Note_on_c, 5, 72, 90
7, 27090, Note_on_c, 5, 72, 0
7, 27180, Note_on_c, 5, 72, 90
7, 27210, Note_on_c, 5, 72, 0
7, 27240, Note_on_c, 5, 67, 90
7, 27270, Note_on_c, 5, 67, 0
7, 27360, Note_on_c, 5, 65, 90
7, 27419, Note_on_c, 5, 65, 0
7, 27420, Note_on_c, 5, 67, 90
7, 27479, Note_on_c, 5, 67, 0
7, 27480, Note_on_c, 5, 60, 90
7, 27539, Note_on_c, 5, 60, 0
7, 27540, Note_on_c, 5, 62, 90
7, 27599, Note_on_c, 5, 62, 0
7, 27600, Note_on_c, 5, 64, 90
7, 27659, Note_on_c, 5, 64, 0
7, 27660, Note_on_c, 5, 65, 90
7, 27719, Note_on_c, 5, 65, 0
7, 27720, Note_on_c, 5, 67, 90
7, 27779, Note_on_c, 5, 67, 0
7, 27780, Note_on_c, 5, 70, 90
7, 27839, Note_on_c, 5, 70, 0
7, 27840, Note_on_c, 5, 67, 90
7, 27899, Note_on_c, 5, 67, 0
7, 27900, Note_on_c, 5, 67, 90
7, 28079, Note_on_c, 5, 67, 0
7, 28080, Note_on_c, 5, 65, 90
7, 28199, Note_on_c, 5, 65, 0
7, 28200, Note_on_c, 5, 64, 90
7, 28259, Note_on_c, 5, 64, 0
7, 28260, Note_on_c, 5, 62, 90
7, 28319, Note_on_c, 5, 62, 0
7, 28320, Note_on_c, 5, 65, 90
7, 28379, Note_on_c, 5, 65, 0
7, 28380, Note_on_c, 5, 64, 90
7, 28439, Note_on_c, 5, 64, 0
7, 28440, Note_on_c, 5, 69, 90
7, 28499, Note_on_c, 5, 69, 0
7, 28500, Note_on_c, 5, 68, 90
7, 28619, Note_on_c, 5, 68, 0
7, 28620, Note_on_c, 5, 64, 90
7, 28739, Note_on_c, 5, 64, 0
7, 29160, Note_on_c, 5, 60, 90
7, 29219, Note_on_c, 5, 60, 0
7, 29220, Note_on_c, 5, 60, 90
7, 29279, Note_on_c, 5, 60, 0
7, 29280, Note_on_c, 5, 60, 90
7, 29339, Note_on_c, 5, 60, 0
7, 29340, Note_on_c, 5, 60, 90
7, 29399, Note_on_c, 5, 60, 0
7, 29400, Note_on_c, 5, 60, 90
7, 29459, Note_on_c, 5, 60, 0
7, 29460, Note_on_c, 5, 60, 90
7, 29519, Note_on_c, 5, 60, 0
7, 29520, Note_on_c, 5, 65, 90
7, 29639, Note_on_c, 5, 65, 0
7, 29640, Note_on_c, 5, 69, 90
7, 29699, Note_on_c, 5, 69, 0
7, 29700, Note_on_c, 5, 70, 90
7, 29729, Note_on_c, 5, 70, 0
7, 29760, Note_on_c, 5, 69, 90
7, 29789, Note_on_c, 5, 69, 0
7, 30240, Note_on_c, 5, 65, 90
7, 30269, Note_on_c, 5, 65, 0
7, 30270, Note_on_c, 5, 67, 90
7, 30299, Note_on_c, 5, 67, 0
7, 30300, Note_on_c, 5, 69, 90
7, 30315, Note_on_c, 5, 69, 0
7, 30315, Note_on_c, 5, 67, 90
7, 30330, Note_on_c, 5, 67, 0
7, 30330, Note_on_c, 5, 69, 90
7, 30345, Note_on_c, 5, 69, 0
7, 30345, Note_on_c, 5, 67, 90
7, 30360, Note_on_c, 5, 67, 0
7, 30360, Note_on_c, 5, 69, 90
7, 30375, Note_on_c, 5, 69, 0
7, 30375, Note_on_c, 5, 67, 90
7, 30390, Note_on_c, 5, 67, 0
7, 30390, Note_on_c, 5, 65, 90
7, 30405, Note_on_c, 5, 65, 0
7, 30405, Note_on_c, 5, 67, 90
7, 30420, Note_on_c, 5, 67, 0
7, 30420, Note_on_c, 5, 69, 90
7, 30539, Note_on_c, 5, 69, 0
7, 30540, Note_on_c, 5, 67, 90
7, 30599, Note_on_c, 5, 67, 0
7, 30600, Note_on_c, 5, 65, 90
7, 30659, Note_on_c, 5, 65, 0
7, 30660, Note_on_c, 5, 65, 90
7, 30719, Note_on_c, 5, 65, 0
7, 30720, Note_on_c, 5, 65, 90
7, 30779, Note_on_c, 5, 65, 0
7, 30780, Note_on_c, 5, 65, 90
7, 30839, Note_on_c, 5, 65, 0
7, 30840, Note_on_c, 5, 64, 90
7, 30899, Note_on_c, 5, 64, 0
7, 30960, Note_on_c, 5, 76, 90
7, 30990, Note_on_c, 5, 76, 0
7, 31320, Note_on_c, 5, 72, 90
7, 31350, Note_on_c, 5, 72, 0
7, 31680, Note_on_c, 5, 72, 90
7, 31710, Note_on_c, 5, 72, 0
7, 32040, Note_on_c, 5, 72, 90
7, 32070, Note_on_c, 5, 72, 0
7, 32400, Note_on_c, 5, 67, 90
7, 32459, Note_on_c, 5, 67, 0
7, 32460, Note_on_c, 5, 70, 90
7, 32519, Note_on_c, 5, 70, 0
7, 32520, Note_on_c, 5, 69, 90
7, 32579, Note_on_c, 5, 69, 0
7, 32580, Note_on_c, 5, 67, 90
7, 32639, Note_on_c, 5, 67, 0
7, 32640, Note_on_c, 5, 65, 90
7, 32699, Note_on_c, 5, 65, 0
7, 32700, Note_on_c, 5, 67, 90
7, 32759, Note_on_c, 5, 67, 0
7, 32760, Note_on_c, 5, 60, 90
7, 32879, Note_on_c, 5, 60, 0
7, 32880, Note_on_c, 5, 72, 90
7, 32939, Note_on_c, 5, 72, 0
7, 32940, Note_on_c, 5, 72, 90
7, 32970, Note_on_c, 5, 72, 0
7, 33000, Note_on_c, 5, 70, 90
7, 33030, Note_on_c, 5, 70, 0
7, 33120, Note_on_c, 5, 69, 90
7, 33239, Note_on_c, 5, 69, 0
7, 33240, Note_on_c, 5, 66, 90
7, 33299, Note_on_c, 5, 66, 0
7, 33300, Note_on_c, 5, 62, 90
7, 33359, Note_on_c, 5, 62, 0
7, 33360, Note_on_c, 5, 64, 90
7, 33419, Note_on_c, 5, 64, 0
7, 33420, Note_on_c, 5, 65, 90
7, 33479, Note_on_c, 5, 65, 0
7, 33480, Note_on_c, 5, 67, 90
7, 33539, Note_on_c, 5, 67, 0
7, 33540, Note_on_c, 5, 65, 90
7, 33599, Note_on_c, 5, 65, 0
7, 33600, Note_on_c, 5, 64, 90
7, 33659, Note_on_c, 5, 64, 0
7, 33660, Note_on_c, 5, 65, 90
7, 33779, Note_on_c, 5, 65, 0
7, 34200, Note_on_c, 5, 72, 90
7, 34319, Note_on_c, 5, 72, 0
7, 34320, Note_on_c, 5, 76, 90
7, 34379, Note_on_c, 5, 76, 0
7, 34380, Note_on_c, 5, 77, 90
7, 34439, Note_on_c, 5, 77, 0
7, 34440, Note_on_c, 5, 79, 90
7, 34499, Note_on_c, 5, 79, 0
7, 34500, Note_on_c, 5, 81, 90
7, 34559, Note_on_c, 5, 81, 0
7, 34560, Note_on_c, 5, 65, 90
7, 34619, Note_on_c, 5, 65, 0
7, 34620, Note_on_c, 5, 60, 90
7, 34679, Note_on_c, 5, 60, 0
7, 34680, Note_on_c, 5, 65, 90
7, 34799, Note_on_c, 5, 65, 0
7, 34800, Note_on_c, 5, 60, 90
7, 34859, Note_on_c, 5, 60, 0
7, 34860, Note_on_c, 5, 58, 90
7, 34919, Note_on_c, 5, 58, 0
7, 34920, Note_on_c, 5, 65, 90
7, 35039, Note_on_c, 5, 65, 0
7, 35040, Note_on_c, 5, 63, 90
7, 35099, Note_on_c, 5, 63, 0
7, 35100, Note_on_c, 5, 70, 90
7, 35159, Note_on_c, 5, 70, 0
7, 35160, Note_on_c, 5, 69, 90
7, 35219, Note_on_c, 5, 69, 0
7, 35220, Note_on_c, 5, 70, 90
7, 35279, Note_on_c, 5, 70, 0
7, 35280, Note_on_c, 5, 65, 90
7, 35339, Note_on_c, 5, 65, 0
7, 35340, Note_on_c, 5, 70, 90
7, 35399, Note_on_c, 5, 70, 0
7, 35400, Note_on_c, 5, 62, 90
7, 35519, Note_on_c, 5, 62, 0
7, 35520, Note_on_c, 5, 58, 90
7, 35579, Note_on_c, 5, 58, 0
7, 35580, Note_on_c, 5, 64, 90
7, 35699, Note_on_c, 5, 64, 0
7, 35700, Note_on_c, 5, 69, 90
7, 35760, Note_on_c, 5, 69, 0
7, 35760, Note_on_c, 5, 60, 90
7, 35879, Note_on_c, 5, 60, 0
7, 35880, Note_on_c, 5, 57, 90
7, 35939, Note_on_c, 5, 57, 0
7, 35940, Note_on_c, 5, 62, 90
7, 36059, Note_on_c, 5, 62, 0
7, 36060, Note_on_c, 5, 67, 90
7, 36119, Note_on_c, 5, 67, 0
7, 36120, Note_on_c, 5, 58, 90
7, 36239, Note_on_c, 5, 58, 0
7, 36240, Note_on_c, 5, 55, 90
7, 36299, Note_on_c, 5, 55, 0
7, 36300, Note_on_c, 5, 60, 90
7, 36419, Note_on_c, 5, 60, 0
7, 36420, Note_on_c, 5, 65, 90
7, 36479, Note_on_c, 5, 65, 0
7, 36480, Note_on_c, 5, 74, 90
7, 36539, Note_on_c, 5, 74, 0
7, 36540, Note_on_c, 5, 72, 90
7, 36659, Note_on_c, 5, 72, 0
7, 36660, Note_on_c, 5, 67, 90
7, 36719, Note_on_c, 5, 67, 0
7, 36720, Note_on_c, 5, 65, 90
7, 36839, Note_on_c, 5, 65, 0
7, 36840, Note_on_c, 5, 65, 90
7, 36899, Note_on_c, 5, 65, 0
7, 36900, Note_on_c, 5, 64, 90
7, 37019, Note_on_c, 5, 64, 0
7, 37020, Note_on_c, 5, 62, 90
7, 37079, Note_on_c, 5, 62, 0
7, 37080, Note_on_c, 5, 65, 90
7, 37139, Note_on_c, 5, 65, 0
7, 37140, Note_on_c, 5, 67, 90
7, 37199, Note_on_c, 5, 67, 0
7, 37200, Note_on_c, 5, 69, 90
7, 37259, Note_on_c, 5, 69, 0
7, 37260, Note_on_c, 5, 70, 90
7, 37289, Note_on_c, 5, 70, 0
7, 37320, Note_on_c, 5, 69, 90
7, 37349, Note_on_c, 5, 69, 0
7, 37440, Note_on_c, 5, 74, 90
7, 37470, Note_on_c, 5, 74, 0
7, 37800, Note_on_c, 5, 72, 90
7, 37830, Note_on_c, 5, 72, 0
7, 38160, Note_on_c, 5, 70, 90
7, 38190, Note_on_c, 5, 70, 0
7, 38520, Note_on_c, 5, 69, 90
7, 38550, Note_on_c, 5, 69, 0
7, 38880, Note_on_c, 5, 70, 90
7, 38999, Note_on_c, 5, 70, 0
7, 39000, Note_on_c, 5, 70, 90
7, 39059, Note_on_c, 5, 70, 0
7, 39060, Note_on_c, 5, 67, 90
7, 39119, Note_on_c, 5, 67, 0
7, 39120, Note_on_c, 5, 66, 90
7, 39179, Note_on_c, 5, 66, 0
7, 39180, Note_on_c, 5, 67, 90
7, 39239, Note_on_c, 5, 67, 0
7, 39240, Note_on_c, 5, 67, 90
7, 39299, Note_on_c, 5, 67, 0
7, 39300, Note_on_c, 5, 70, 90
7, 39359, Note_on_c, 5, 70, 0
7, 39360, Note_on_c, 5, 70, 90
7, 39419, Note_on_c, 5, 70, 0
7, 39420, Note_on_c, 5, 70, 90
7, 39449, Note_on_c, 5, 70, 0
7, 39480, Note_on_c, 5, 67, 90
7, 39509, Note_on_c, 5, 67, 0
7, 39600, Note_on_c, 5, 65, 90
7, 39719, Note_on_c, 5, 65, 0
7, 39720, Note_on_c, 5, 65, 90
7, 39779, Note_on_c, 5, 65, 0
7, 39780, Note_on_c, 5, 67, 90
7, 39839, Note_on_c, 5, 67, 0
7, 39840, Note_on_c, 5, 65, 90
7, 39899, Note_on_c, 5, 65, 0
7, 39900, Note_on_c, 5, 65, 90
7, 39959, Note_on_c, 5, 65, 0
7, 39960, Note_on_c, 5, 65, 90
7, 40019, Note_on_c, 5, 65, 0
7, 40020, Note_on_c, 5, 64, 90
7, 40139, Note_on_c, 5, 64, 0
7, 40140, Note_on_c, 5, 60, 90
7, 40259, Note_on_c, 5, 60, 0
7, 40320, Note_on_c, 5, 60, 90
7, 40367, Note_on_c, 5, 60, 0
7, 40380, Note_on_c, 5, 60, 90
7, 40427, Note_on_c, 5, 60, 0
7, 40440, Note_on_c, 5, 60, 90
7, 40487, Note_on_c, 5, 60, 0
7, 40500, Note_on_c, 5, 60, 90
7, 40547, Note_on_c, 5, 60, 0
7, 40560, Note_on_c, 5, 60, 90
7, 40607, Note_on_c, 5, 60, 0
7, 40620, Note_on_c, 5, 60, 90
7, 40667, Note_on_c, 5, 60, 0
7, 40680, Note_on_c, 5, 72, 90
7, 40799, Note_on_c, 5, 72, 0
7, 40800, Note_on_c, 5, 76, 90
7, 40859, Note_on_c, 5, 76, 0
7, 40860, Note_on_c, 5, 77, 90
7, 40919, Note_on_c, 5, 77, 0
7, 40920, Note_on_c, 5, 76, 90
7, 40979, Note_on_c, 5, 76, 0
7, 40980, Note_on_c, 5, 72, 90
7, 41039, Note_on_c, 5, 72, 0
7, 41400, Note_on_c, 5, 74, 90
7, 41519, Note_on_c, 5, 74, 0
7, 41520, Note_on_c, 5, 78, 90
7, 41579, Note_on_c, 5, 78, 0
7, 41580, Note_on_c, 5, 79, 90
7, 41639, Note_on_c, 5, 79, 0
7, 41640, Note_on_c, 5, 78, 90
7, 41699, Note_on_c, 5, 78, 0
7, 41700, Note_on_c, 5, 79, 90
7, 41759, Note_on_c, 5, 79, 0
7, 41760, Note_on_c, 5, 74, 90
7, 41819, Note_on_c, 5, 74, 0
7, 41820, Note_on_c, 5, 79, 90
7, 41879, Note_on_c, 5, 79, 0
7, 41880, Note_on_c, 5, 70, 90
7, 41999, Note_on_c, 5, 70, 0
7, 42000, Note_on_c, 5, 67, 90
7, 42059, Note_on_c, 5, 67, 0
7, 42060, Note_on_c, 5, 76, 90
7, 42119, Note_on_c, 5, 76, 0
7, 42120, Note_on_c, 5, 72, 90
7, 42179, Note_on_c, 5, 72, 0
7, 42180, Note_on_c, 5, 77, 90
7, 42239, Note_on_c, 5, 77, 0
7, 42240, Note_on_c, 5, 69, 90
7, 42359, Note_on_c, 5, 69, 0
7, 42360, Note_on_c, 5, 65, 90
7, 42419, Note_on_c, 5, 65, 0
7, 42420, Note_on_c, 5, 74, 90
7, 42539, Note_on_c, 5, 74, 0
7, 42540, Note_on_c, 5, 79, 90
7, 42599, Note_on_c, 5, 79, 0
7, 42600, Note_on_c, 5, 67, 90
7, 42719, Note_on_c, 5, 67, 0
7, 42720, Note_on_c, 5, 65, 90
7, 42749, Note_on_c, 5, 65, 0
7, 42750, Note_on_c, 5, 70, 90
7, 42779, Note_on_c, 5, 70, 0
7, 42780, Note_on_c, 5, 69, 90
7, 42809, Note_on_c, 5, 69, 0
7, 42900, Note_on_c, 5, 65, 90
7, 42929, Note_on_c, 5, 65, 0
7, 42960, Note_on_c, 5, 64, 90
7, 42989, Note_on_c, 5, 64, 0
7, 43020, Note_on_c, 5, 60, 90
7, 43199, Note_on_c, 5, 60, 0
7, 46740, Note_on_c, 5, 74, 90
7, 46980, Note_on_c, 5, 74, 0
7, 46980, Note_on_c, 5, 73, 90
7, 47220, Note_on_c, 5, 73, 0
7, 47220, Note_on_c, 5, 69, 90
7, 47700, Note_on_c, 5, 69, 0
7, 47700, Note_on_c, 5, 67, 90
7, 48660, Note_on_c, 5, 67, 0
7, 48660, Note_on_c, 5, 66, 90
7, 49200, Note_on_c, 5, 66, 0
7, 49200, Note_on_c, 5, 60, 90
7, 49259, Note_on_c, 5, 60, 0
7, 49260, Note_on_c, 5, 69, 90
7, 49319, Note_on_c, 5, 69, 0
7, 49320, Note_on_c, 5, 67, 90
7, 49379, Note_on_c, 5, 67, 0
7, 49380, Note_on_c, 5, 69, 90
7, 49619, Note_on_c, 5, 69, 0
7, 49620, Note_on_c, 5, 70, 90
7, 50339, Note_on_c, 5, 70, 0
7, 50340, Note_on_c, 5, 69, 90
7, 50459, Note_on_c, 5, 69, 0
7, 50460, Note_on_c, 5, 72, 90
7, 50579, Note_on_c, 5, 72, 0
7, 50580, Note_on_c, 5, 74, 90
7, 50699, Note_on_c, 5, 74, 0
7, 50700, Note_on_c, 5, 62, 90
7, 50819, Note_on_c, 5, 62, 0
7, 50940, Note_on_c, 5, 64, 90
7, 51059, Note_on_c, 5, 64, 0
7, 51060, Note_on_c, 5, 65, 90
7, 51119, Note_on_c, 5, 65, 0
7, 51120, Note_on_c, 5, 67, 90
7, 51179, Note_on_c, 5, 67, 0
7, 51180, Note_on_c, 5, 69, 90
7, 51239, Note_on_c, 5, 69, 0
7, 51240, Note_on_c, 5, 65, 90
7, 51299, Note_on_c, 5, 65, 0
7, 51300, Note_on_c, 5, 60, 90
7, 51419, Note_on_c, 5, 60, 0
7, 51480, Note_on_c, 5, 65, 90
7, 51539, Note_on_c, 5, 65, 0
7, 51540, Note_on_c, 5, 65, 90
7, 51659, Note_on_c, 5, 65, 0
7, 51720, Note_on_c, 5, 69, 90
7, 51779, Note_on_c, 5, 69, 0
7, 51780, Note_on_c, 5, 67, 90
7, 51899, Note_on_c, 5, 67, 0
7, 51900, Note_on_c, 5, 65, 90
7, 52139, Note_on_c, 5, 65, 0
7, 52140, Note_on_c, 5, 64, 90
7, 52199, Note_on_c, 5, 64, 0
7, 52200, Note_on_c, 5, 62, 90
7, 52259, Note_on_c, 5, 62, 0
7, 52260, Note_on_c, 5, 60, 90
7, 52319, Note_on_c, 5, 60, 0
7, 52320, Note_on_c, 5, 58, 90
7, 52379, Note_on_c, 5, 58, 0
7, 52380, Note_on_c, 5, 57, 90
7, 52439, Note_on_c, 5, 57, 0
7, 52440, Note_on_c, 5, 62, 90
7, 52559, Note_on_c, 5, 62, 0
7, 52560, Note_on_c, 5, 60, 90
7, 52619, Note_on_c, 5, 60, 0
7, 52620, Note_on_c, 5, 65, 90
7, 52799, Note_on_c, 5, 65, 0
7, 52800, Note_on_c, 5, 64, 90
7, 52829, Note_on_c, 5, 64, 0
7, 52830, Note_on_c, 5, 62, 90
7, 52859, Note_on_c, 5, 62, 0
7, 52860, Note_on_c, 5, 64, 90
7, 52979, Note_on_c, 5, 64, 0
7, 52980, Note_on_c, 5, 65, 90
7, 53099, Note_on_c, 5, 65, 0
7, 53160, Note_on_c, 5, 65, 90
7, 53219, Note_on_c, 5, 65, 0
7, 53220, Note_on_c, 5, 58, 90
7, 53279, Note_on_c, 5, 58, 0
7, 53280, Note_on_c, 5, 60, 90
7, 53399, Note_on_c, 5, 60, 0
7, 53400, Note_on_c, 5, 65, 90
7, 53519, Note_on_c, 5, 65, 0
7, 53520, Note_on_c, 5, 64, 90
7, 53549, Note_on_c, 5, 64, 0
7, 53550, Note_on_c, 5, 62, 90
7, 53579, Note_on_c, 5, 62, 0
7, 53580, Note_on_c, 5, 64, 90
7, 53699, Note_on_c, 5, 64, 0
7, 53700, Note_on_c, 5, 65, 90
7, 53879, Note_on_c, 5, 65, 0
7, 53880, Note_on_c, 5, 64, 90
7, 53909, Note_on_c, 5, 64, 0
7, 53910, Note_on_c, 5, 62, 90
7, 53939, Note_on_c, 5, 62, 0
7, 53940, Note_on_c, 5, 64, 90
7, 53969, Note_on_c, 5, 64, 0
7, 53970, Note_on_c, 5, 65, 90
7, 53999, Note_on_c, 5, 65, 0
7, 54000, Note_on_c, 5, 67, 90
7, 54119, Note_on_c, 5, 67, 0
7, 54120, Note_on_c, 5, 65, 90
7, 54149, Note_on_c, 5, 65, 0
7, 54150, Note_on_c, 5, 64, 90
7, 54179, Note_on_c, 5, 64, 0
7, 54180, Note_on_c, 5, 65, 90
7, 54299, Note_on_c, 5, 65, 0
7, 54360, Note_on_c, 5, 69, 90
7, 54419, Note_on_c, 5, 69, 0
7, 54420, Note_on_c, 5, 67, 90
7, 54479, Note_on_c, 5, 67, 0
7, 54480, Note_on_c, 5, 65, 90
7, 54509, Note_on_c, 5, 65, 0
7, 54510, Note_on_c, 5, 63, 90
7, 54539, Note_on_c, 5, 63, 0
7, 54540, Note_on_c, 5, 65, 90
7, 54629, Note_on_c, 5, 65, 0
7, 54630, Note_on_c, 5, 67, 90
7, 54659, Note_on_c, 5, 67, 0
7, 54660, Note_on_c, 5, 64, 90
7, 54779, Note_on_c, 5, 64, 0
7, 54780, Note_on_c, 5, 72, 90
7, 54899, Note_on_c, 5, 72, 0
7, 54900, Note_on_c, 5, 73, 90
7, 55500, Note_on_c, 5, 73, 0
7, 55500, Note_on_c, 5, 64, 90
7, 55620, Note_on_c, 5, 64, 0
7, 55620, Note_on_c, 5, 65, 90
7, 56340, Note_on_c, 5, 65, 0
7, 56340, Note_on_c, 5, 64, 90
7, 56580, Note_on_c, 5, 64, 0
7, 56580, Note_on_c, 5, 76, 90
7, 56940, Note_on_c, 5, 76, 0
7, 56940, Note_on_c, 5, 72, 90
7, 57420, Note_on_c, 5, 72, 0
7, 57420, Note_on_c, 5, 73, 90
7, 57540, Note_on_c, 5, 73, 0
7, 57540, Note_on_c, 5, 74, 90
7, 58380, Note_on_c, 5, 74, 0
7, 58380, Note_on_c, 5, 62, 90
7, 58500, Note_on_c, 5, 62, 0
7, 58500, Note_on_c, 5, 63, 90
7, 58980, Note_on_c, 5, 63, 0
7, 58980, Note_on_c, 5, 62, 90
7, 59340, Note_on_c, 5, 62, 0
7, 59340, Note_on_c, 5, 60, 90
7, 59460, Note_on_c, 5, 60, 0
7, 59460, Note_on_c, 5, 65, 90
7, 59580, Note_on_c, 5, 65, 0
7, 59580, Note_on_c, 5, 72, 90
7, 59700, Note_on_c, 5, 72, 0
7, 59820, Note_on_c, 5, 72, 90
7, 59880, Note_on_c, 5, 72, 0
7, 59880, Note_on_c, 5, 67, 90
7, 59940, Note_on_c, 5, 67, 0
7, 59940, Note_on_c, 5, 67, 90
7, 60060, Note_on_c, 5, 67, 0
7, 109980, Note_on_c, 5, 67, 90
7, 110459, Note_on_c, 5, 67, 0
7, 110460, Note_on_c, 5, 67, 90
7, 110579, Note_on_c, 5, 67, 0
7, 110580, Note_on_c, 5, 67, 90
7, 110759, Note_on_c, 5, 67, 0
7, 110760, Note_on_c, 5, 65, 90
7, 110819, Note_on_c, 5, 65, 0
7, 110820, Note_on_c, 5, 64, 90
7, 110879, Note_on_c, 5, 64, 0
7, 110880, Note_on_c, 5, 69, 90
7, 110999, Note_on_c, 5, 69, 0
7, 111000, Note_on_c, 5, 67, 90
7, 111029, Note_on_c, 5, 67, 0
7, 111030, Note_on_c, 5, 69, 90
7, 111059, Note_on_c, 5, 69, 0
7, 111060, Note_on_c, 5, 70, 90
7, 111119, Note_on_c, 5, 70, 0
7, 111120, Note_on_c, 5, 69, 90
7, 111179, Note_on_c, 5, 69, 0
7, 111180, Note_on_c, 5, 69, 90
7, 111359, Note_on_c, 5, 69, 0
7, 111360, Note_on_c, 5, 68, 90
7, 111389, Note_on_c, 5, 68, 0
7, 111390, Note_on_c, 5, 69, 90
7, 111419, Note_on_c, 5, 69, 0
7, 111420, Note_on_c, 5, 71, 90
7, 111479, Note_on_c, 5, 71, 0
7, 111480, Note_on_c, 5, 62, 90
7, 111599, Note_on_c, 5, 62, 0
7, 111600, Note_on_c, 5, 60, 90
7, 111629, Note_on_c, 5, 60, 0
7, 111630, Note_on_c, 5, 59, 90
7, 111659, Note_on_c, 5, 59, 0
7, 111660, Note_on_c, 5, 57, 90
7, 111779, Note_on_c, 5, 57, 0
7, 111840, Note_on_c, 5, 64, 90
7, 111899, Note_on_c, 5, 64, 0
7, 111900, Note_on_c, 5, 62, 90
7, 111959, Note_on_c, 5, 62, 0
7, 111960, Note_on_c, 5, 60, 90
7, 112019, Note_on_c, 5, 60, 0
7, 112020, Note_on_c, 5, 59, 90
7, 112079, Note_on_c, 5, 59, 0
7, 112080, Note_on_c, 5, 64, 90
7, 112139, Note_on_c, 5, 64, 0
7, 112140, Note_on_c, 5, 64, 90
7, 112379, Note_on_c, 5, 64, 0
7, 112380, Note_on_c, 5, 66, 90
7, 112800, Note_on_c, 5, 66, 0
7, 112800, Note_on_c, 5, 67, 90
7, 112859, Note_on_c, 5, 67, 0
7, 112860, Note_on_c, 5, 69, 90
7, 112919, Note_on_c, 5, 69, 0
7, 112920, Note_on_c, 5, 66, 90
7, 112979, Note_on_c, 5, 66, 0
7, 112980, Note_on_c, 5, 67, 90
7, 113099, Note_on_c, 5, 67, 0
7, 113100, Note_on_c, 5, 62, 90
7, 113279, Note_on_c, 5, 62, 0
7, 113280, Note_on_c, 5, 60, 90
7, 113339, Note_on_c, 5, 60, 0
7, 113340, Note_on_c, 5, 62, 90
7, 113399, Note_on_c, 5, 62, 0
7, 113400, Note_on_c, 5, 63, 90
7, 113459, Note_on_c, 5, 63, 0
7, 113520, Note_on_c, 5, 55, 90
7, 113579, Note_on_c, 5, 55, 0
7, 113580, Note_on_c, 5, 67, 90
7, 113639, Note_on_c, 5, 67, 0
7, 113640, Note_on_c, 5, 69, 90
7, 113669, Note_on_c, 5, 69, 0
7, 113670, Note_on_c, 5, 70, 90
7, 113699, Note_on_c, 5, 70, 0
7, 113700, Note_on_c, 5, 69, 90
7, 113759, Note_on_c, 5, 69, 0
7, 113760, Note_on_c, 5, 74, 90
7, 113819, Note_on_c, 5, 74, 0
7, 113820, Note_on_c, 5, 74, 90
7, 114059, Note_on_c, 5, 74, 0
7, 114060, Note_on_c, 5, 71, 90
7, 114299, Note_on_c, 5, 71, 0
7, 114300, Note_on_c, 5, 72, 90
7, 114419, Note_on_c, 5, 72, 0
7, 114420, Note_on_c, 5, 67, 90
7, 114539, Note_on_c, 5, 67, 0
7, 114540, Note_on_c, 5, 69, 90
7, 114599, Note_on_c, 5, 69, 0
7, 114600, Note_on_c, 5, 72, 90
7, 114659, Note_on_c, 5, 72, 0
7, 114660, Note_on_c, 5, 69, 90
7, 114719, Note_on_c, 5, 69, 0
7, 114720, Note_on_c, 5, 65, 90
7, 114839, Note_on_c, 5, 65, 0
7, 114840, Note_on_c, 5, 67, 90
7, 114869, Note_on_c, 5, 67, 0
7, 114870, Note_on_c, 5, 69, 90
7, 114899, Note_on_c, 5, 69, 0
7, 114900, Note_on_c, 5, 70, 90
7, 115619, Note_on_c, 5, 70, 0
7, 115620, Note_on_c, 5, 67, 90
7, 115739, Note_on_c, 5, 67, 0
7, 115740, Note_on_c, 5, 69, 90
7, 115799, Note_on_c, 5, 69, 0
7, 115800, Note_on_c, 5, 70, 90
7, 115829, Note_on_c, 5, 70, 0
7, 115830, Note_on_c, 5, 72, 90
7, 115859, Note_on_c, 5, 72, 0
7, 115860, Note_on_c, 5, 65, 90
7, 116039, Note_on_c, 5, 65, 0
7, 116040, Note_on_c, 5, 64, 90
7, 116069, Note_on_c, 5, 64, 0
7, 116070, Note_on_c, 5, 62, 90
7, 116099, Note_on_c, 5, 62, 0
7, 116100, Note_on_c, 5, 64, 90
7, 116189, Note_on_c, 5, 64, 0
7, 116190, Note_on_c, 5, 65, 90
7, 116219, Note_on_c, 5, 65, 0
7, 116220, Note_on_c, 5, 65, 90
7, 116339, Note_on_c, 5, 65, 0
7, 116400, Note_on_c, 5, 62, 90
7, 116459, Note_on_c, 5, 62, 0
7, 116460, Note_on_c, 5, 69, 90
7, 116579, Note_on_c, 5, 69, 0
7, 116580, Note_on_c, 5, 57, 90
7, 116639, Note_on_c, 5, 57, 0
7, 116640, Note_on_c, 5, 58, 90
7, 116699, Note_on_c, 5, 58, 0
7, 116700, Note_on_c, 5, 60, 90
7, 116819, Note_on_c, 5, 60, 0
7, 116820, Note_on_c, 5, 62, 90
7, 116879, Note_on_c, 5, 62, 0
7, 116880, Note_on_c, 5, 63, 90
7, 116939, Note_on_c, 5, 63, 0
7, 116940, Note_on_c, 5, 65, 90
7, 116999, Note_on_c, 5, 65, 0
7, 117000, Note_on_c, 5, 64, 90
7, 117059, Note_on_c, 5, 64, 0
7, 117120, Note_on_c, 5, 65, 90
7, 117299, Note_on_c, 5, 65, 0
7, 117300, Note_on_c, 5, 64, 90
7, 117419, Note_on_c, 5, 64, 0
7, 117420, Note_on_c, 5, 65, 90
7, 117539, Note_on_c, 5, 65, 0
7, 117600, Note_on_c, 5, 72, 90
7, 117659, Note_on_c, 5, 72, 0
7, 117660, Note_on_c, 5, 72, 90
7, 117719, Note_on_c, 5, 72, 0
7, 117720, Note_on_c, 5, 70, 90
7, 117779, Note_on_c, 5, 70, 0
7, 117840, Note_on_c, 5, 63, 90
7, 117899, Note_on_c, 5, 63, 0
7, 117900, Note_on_c, 5, 63, 90
7, 117959, Note_on_c, 5, 63, 0
7, 117960, Note_on_c, 5, 62, 90
7, 118019, Note_on_c, 5, 62, 0
7, 118080, Note_on_c, 5, 58, 90
7, 118139, Note_on_c, 5, 58, 0
7, 118140, Note_on_c, 5, 58, 90
7, 118199, Note_on_c, 5, 58, 0
7, 118200, Note_on_c, 5, 57, 90
7, 118259, Note_on_c, 5, 57, 0
7, 118620, Control_c, 5, 0, 20
7, 118620, Control_c, 5, 0, 20
7, 118620, Program_c, 5, 40
7, 118620, Note_on_c, 5, 74, 110
7, 118679, Note_on_c, 5, 74, 0
7, 118680, Note_on_c, 5, 62, 110
7, 118769, Note_on_c, 5, 62, 0
7, 118770, Note_on_c, 5, 64, 110
7, 118799, Note_on_c, 5, 64, 0
7, 118800, Note_on_c, 5, 65, 110
7, 118829, Note_on_c, 5, 65, 0
7, 118830, Note_on_c, 5, 67, 110
7, 118859, Note_on_c, 5, 67, 0
7, 118860, Note_on_c, 5, 69, 110
7, 118919, Note_on_c, 5, 69, 0
7, 118920, Note_on_c, 5, 69, 110
7, 118979, Note_on_c, 5, 69, 0
7, 118980, Note_on_c, 5, 69, 110
7, 119039, Note_on_c, 5, 69, 0
7, 119040, Note_on_c, 5, 69, 110
7, 119099, Note_on_c, 5, 69, 0
7, 119100, Note_on_c, 5, 70, 110
7, 119129, Note_on_c, 5, 70, 0
7, 119130, Note_on_c, 5, 69, 110
7, 119159, Note_on_c, 5, 69, 0
7, 119160, Note_on_c, 5, 70, 110
7, 119189, Note_on_c, 5, 70, 0
7, 119190, Note_on_c, 5, 72, 110
7, 119219, Note_on_c, 5, 72, 0
7, 119220, Note_on_c, 5, 70, 110
7, 119249, Note_on_c, 5, 70, 0
7, 119250, Note_on_c, 5, 69, 110
7, 119279, Note_on_c, 5, 69, 0
7, 119280, Note_on_c, 5, 67, 110
7, 119309, Note_on_c, 5, 67, 0
7, 119310, Note_on_c, 5, 70, 110
7, 119339, Note_on_c, 5, 70, 0
7, 119340, Note_on_c, 5, 69, 110
7, 119369, Note_on_c, 5, 69, 0
7, 119370, Note_on_c, 5, 67, 110
7, 119399, Note_on_c, 5, 67, 0
7, 119400, Note_on_c, 5, 69, 110
7, 119429, Note_on_c, 5, 69, 0
7, 119430, Note_on_c, 5, 70, 110
7, 119459, Note_on_c, 5, 70, 0
7, 119460, Note_on_c, 5, 69, 110
7, 119489, Note_on_c, 5, 69, 0
7, 119490, Note_on_c, 5, 67, 110
7, 119519, Note_on_c, 5, 67, 0
7, 119520, Note_on_c, 5, 65, 110
7, 119549, Note_on_c, 5, 65, 0
7, 119550, Note_on_c, 5, 69, 110
7, 119579, Note_on_c, 5, 69, 0
7, 119580, Note_on_c, 5, 67, 110
7, 119609, Note_on_c, 5, 67, 0
7, 119610, Note_on_c, 5, 65, 110
7, 119639, Note_on_c, 5, 65, 0
7, 119640, Note_on_c, 5, 67, 110
7, 119669, Note_on_c, 5, 67, 0
7, 119670, Note_on_c, 5, 69, 110
7, 119699, Note_on_c, 5, 69, 0
7, 119700, Note_on_c, 5, 67, 110
7, 119729, Note_on_c, 5, 67, 0
7, 119730, Note_on_c, 5, 65, 110
7, 119759, Note_on_c, 5, 65, 0
7, 119760, Note_on_c, 5, 64, 110
7, 119789, Note_on_c, 5, 64, 0
7, 119790, Note_on_c, 5, 67, 110
7, 119819, Note_on_c, 5, 67, 0
7, 119820, Note_on_c, 5, 65, 110
7, 119849, Note_on_c, 5, 65, 0
7, 119850, Note_on_c, 5, 64, 110
7, 119879, Note_on_c, 5, 64, 0
7, 119880, Note_on_c, 5, 62, 110
7, 119909, Note_on_c, 5, 62, 0
7, 119910, Note_on_c, 5, 64, 110
7, 119939, Note_on_c, 5, 64, 0
7, 119940, Note_on_c, 5, 66, 110
7, 119969, Note_on_c, 5, 66, 0
7, 119970, Note_on_c, 5, 68, 110
7, 119999, Note_on_c, 5, 68, 0
7, 120000, Note_on_c, 5, 69, 110
7, 120029, Note_on_c, 5, 69, 0
7, 120030, Note_on_c, 5, 71, 110
7, 120059, Note_on_c, 5, 71, 0
7, 120060, Note_on_c, 5, 72, 110
7, 120089, Note_on_c, 5, 72, 0
7, 120090, Note_on_c, 5, 71, 110
7, 120119, Note_on_c, 5, 71, 0
7, 120120, Note_on_c, 5, 69, 110
7, 120149, Note_on_c, 5, 69, 0
7, 120150, Note_on_c, 5, 71, 110
7, 120179, Note_on_c, 5, 71, 0
7, 120180, Note_on_c, 5, 72, 110
7, 120209, Note_on_c, 5, 72, 0
7, 120210, Note_on_c, 5, 74, 110
7, 120239, Note_on_c, 5, 74, 0
7, 120240, Note_on_c, 5, 76, 110
7, 120269, Note_on_c, 5, 76, 0
7, 120270, Note_on_c, 5, 77, 110
7, 120299, Note_on_c, 5, 77, 0
7, 120300, Note_on_c, 5, 71, 110
7, 120329, Note_on_c, 5, 71, 0
7, 120330, Note_on_c, 5, 72, 110
7, 120359, Note_on_c, 5, 72, 0
7, 120360, Note_on_c, 5, 74, 110
7, 120389, Note_on_c, 5, 74, 0
7, 120390, Note_on_c, 5, 71, 110
7, 120419, Note_on_c, 5, 71, 0
7, 120420, Note_on_c, 5, 72, 110
7, 120479, Note_on_c, 5, 72, 0
7, 120480, Note_on_c, 5, 72, 110
7, 120599, Note_on_c, 5, 72, 0
7, 120600, Note_on_c, 5, 71, 110
7, 120629, Note_on_c, 5, 71, 0
7, 120630, Note_on_c, 5, 69, 110
7, 120659, Note_on_c, 5, 69, 0
7, 120660, Note_on_c, 5, 71, 110
7, 120719, Note_on_c, 5, 71, 0
7, 120720, Note_on_c, 5, 71, 110
7, 120839, Note_on_c, 5, 71, 0
7, 120840, Note_on_c, 5, 69, 110
7, 120869, Note_on_c, 5, 69, 0
7, 120870, Note_on_c, 5, 68, 110
7, 120899, Note_on_c, 5, 68, 0
7, 120900, Note_on_c, 5, 69, 110
7, 120959, Note_on_c, 5, 69, 0
7, 120960, Note_on_c, 5, 69, 110
7, 121079, Note_on_c, 5, 69, 0
7, 121080, Note_on_c, 5, 68, 110
7, 121109, Note_on_c, 5, 68, 0
7, 121110, Note_on_c, 5, 66, 110
7, 121139, Note_on_c, 5, 66, 0
7, 121140, Note_on_c, 5, 68, 110
7, 121159, Note_on_c, 5, 68, 0
7, 121160, Note_on_c, 5, 69, 110
7, 121179, Note_on_c, 5, 69, 0
7, 121180, Note_on_c, 5, 68, 110
7, 121199, Note_on_c, 5, 68, 0
7, 121200, Note_on_c, 5, 69, 110
7, 121214, Note_on_c, 5, 69, 0
7, 121215, Note_on_c, 5, 68, 110
7, 121229, Note_on_c, 5, 68, 0
7, 121230, Note_on_c, 5, 69, 110
7, 121260, Note_on_c, 5, 69, 0
7, 121260, Note_on_c, 5, 69, 110
7, 121379, Note_on_c, 5, 69, 0
7, 121440, Note_on_c, 5, 69, 110
7, 121499, Note_on_c, 5, 69, 0
7, 121500, Note_on_c, 5, 70, 110
7, 121559, Note_on_c, 5, 70, 0
7, 121560, Note_on_c, 5, 67, 110
7, 121619, Note_on_c, 5, 67, 0
7, 121620, Note_on_c, 5, 64, 110
7, 121679, Note_on_c, 5, 64, 0
7, 121680, Note_on_c, 5, 73, 110
7, 121739, Note_on_c, 5, 73, 0
7, 121740, Note_on_c, 5, 74, 110
7, 121799, Note_on_c, 5, 74, 0
7, 121800, Note_on_c, 5, 62, 110
7, 121829, Note_on_c, 5, 62, 0
7, 121830, Note_on_c, 5, 64, 110
7, 121859, Note_on_c, 5, 64, 0
7, 121860, Note_on_c, 5, 66, 110
7, 121889, Note_on_c, 5, 66, 0
7, 121890, Note_on_c, 5, 67, 110
7, 121919, Note_on_c, 5, 67, 0
7, 121920, Note_on_c, 5, 69, 110
7, 121949, Note_on_c, 5, 69, 0
7, 121950, Note_on_c, 5, 70, 110
7, 121979, Note_on_c, 5, 70, 0
7, 121980, Note_on_c, 5, 72, 110
7, 122009, Note_on_c, 5, 72, 0
7, 122010, Note_on_c, 5, 70, 110
7, 122039, Note_on_c, 5, 70, 0
7, 122040, Note_on_c, 5, 72, 110
7, 122069, Note_on_c, 5, 72, 0
7, 122070, Note_on_c, 5, 74, 110
7, 122099, Note_on_c, 5, 74, 0
7, 122100, Note_on_c, 5, 72, 110
7, 122129, Note_on_c, 5, 72, 0
7, 122130, Note_on_c, 5, 70, 110
7, 122159, Note_on_c, 5, 70, 0
7, 122160, Note_on_c, 5, 69, 110
7, 122189, Note_on_c, 5, 69, 0
7, 122190, Note_on_c, 5, 72, 110
7, 122219, Note_on_c, 5, 72, 0
7, 122220, Note_on_c, 5, 70, 110
7, 122249, Note_on_c, 5, 70, 0
7, 122250, Note_on_c, 5, 69, 110
7, 122279, Note_on_c, 5, 69, 0
7, 122280, Note_on_c, 5, 71, 110
7, 122309, Note_on_c, 5, 71, 0
7, 122310, Note_on_c, 5, 73, 110
7, 122339, Note_on_c, 5, 73, 0
7, 122340, Note_on_c, 5, 74, 110
7, 122369, Note_on_c, 5, 74, 0
7, 122370, Note_on_c, 5, 76, 110
7, 122399, Note_on_c, 5, 76, 0
7, 122400, Note_on_c, 5, 77, 110
7, 122429, Note_on_c, 5, 77, 0
7, 122430, Note_on_c, 5, 79, 110
7, 122459, Note_on_c, 5, 79, 0
7, 122460, Note_on_c, 5, 81, 110
7, 122489, Note_on_c, 5, 81, 0
7, 122490, Note_on_c, 5, 82, 110
7, 122519, Note_on_c, 5, 82, 0
7, 122520, Note_on_c, 5, 79, 110
7, 122549, Note_on_c, 5, 79, 0
7, 122550, Note_on_c, 5, 81, 110
7, 122579, Note_on_c, 5, 81, 0
7, 122580, Note_on_c, 5, 82, 110
7, 122609, Note_on_c, 5, 82, 0
7, 122610, Note_on_c, 5, 81, 110
7, 122639, Note_on_c, 5, 81, 0
7, 122640, Note_on_c, 5, 79, 110
7, 122669, Note_on_c, 5, 79, 0
7, 122670, Note_on_c, 5, 77, 110
7, 122699, Note_on_c, 5, 77, 0
7, 122700, Note_on_c, 5, 76, 110
7, 122729, Note_on_c, 5, 76, 0
7, 122730, Note_on_c, 5, 74, 110
7, 122759, Note_on_c, 5, 74, 0
7, 122760, Note_on_c, 5, 73, 110
7, 122789, Note_on_c, 5, 73, 0
7, 122790, Note_on_c, 5, 71, 110
7, 122819, Note_on_c, 5, 71, 0
7, 122820, Note_on_c, 5, 69, 110
7, 122849, Note_on_c, 5, 69, 0
7, 122850, Note_on_c, 5, 71, 110
7, 122879, Note_on_c, 5, 71, 0
7, 122880, Note_on_c, 5, 73, 110
7, 122909, Note_on_c, 5, 73, 0
7, 122910, Note_on_c, 5, 69, 110
7, 122939, Note_on_c, 5, 69, 0
7, 122940, Note_on_c, 5, 74, 110
7, 122999, Note_on_c, 5, 74, 0
7, 123000, Note_on_c, 5, 74, 110
7, 123119, Note_on_c, 5, 74, 0
7, 123120, Note_on_c, 5, 76, 110
7, 123149, Note_on_c, 5, 76, 0
7, 123150, Note_on_c, 5, 74, 110
7, 123179, Note_on_c, 5, 74, 0
7, 123180, Note_on_c, 5, 72, 110
7, 123239, Note_on_c, 5, 72, 0
7, 123240, Note_on_c, 5, 72, 110
7, 123359, Note_on_c, 5, 72, 0
7, 123360, Note_on_c, 5, 74, 110
7, 123389, Note_on_c, 5, 74, 0
7, 123390, Note_on_c, 5, 72, 110
7, 123419, Note_on_c, 5, 72, 0
7, 123420, Note_on_c, 5, 70, 110
7, 123479, Note_on_c, 5, 70, 0
7, 123480, Note_on_c, 5, 70, 110
7, 123599, Note_on_c, 5, 70, 0
7, 123600, Note_on_c, 5, 72, 110
7, 123629, Note_on_c, 5, 72, 0
7, 123630, Note_on_c, 5, 70, 110
7, 123659, Note_on_c, 5, 70, 0
7, 123660, Note_on_c, 5, 69, 110
7, 123719, Note_on_c, 5, 69, 0
7, 123720, Note_on_c, 5, 74, 110
7, 123749, Note_on_c, 5, 74, 0
7, 123750, Note_on_c, 5, 73, 110
7, 123779, Note_on_c, 5, 73, 0
7, 123780, Note_on_c, 5, 74, 110
7, 123959, Note_on_c, 5, 74, 0
7, 123960, Note_on_c, 5, 73, 110
7, 123989, Note_on_c, 5, 73, 0
7, 123990, Note_on_c, 5, 74, 110
7, 124019, Note_on_c, 5, 74, 0
7, 124020, Note_on_c, 5, 76, 110
7, 124079, Note_on_c, 5, 76, 0
7, 124080, Note_on_c, 5, 69, 110
7, 124199, Note_on_c, 5, 69, 0
7, 124200, Note_on_c, 5, 67, 110
7, 124229, Note_on_c, 5, 67, 0
7, 124230, Note_on_c, 5, 65, 110
7, 124259, Note_on_c, 5, 65, 0
7, 124260, Note_on_c, 5, 64, 110
7, 124279, Note_on_c, 5, 64, 0
7, 124280, Note_on_c, 5, 65, 110
7, 124299, Note_on_c, 5, 65, 0
7, 124300, Note_on_c, 5, 64, 110
7, 124319, Note_on_c, 5, 64, 0
7, 124320, Note_on_c, 5, 65, 110
7, 124334, Note_on_c, 5, 65, 0
7, 124335, Note_on_c, 5, 64, 110
7, 124349, Note_on_c, 5, 64, 0
7, 124350, Note_on_c, 5, 62, 110
7, 124379, Note_on_c, 5, 62, 0
7, 124380, Note_on_c, 5, 62, 110
7, 124439, Note_on_c, 5, 62, 0
7, 124500, Note_on_c, 5, 69, 110
7, 124559, Note_on_c, 5, 69, 0
7, 124620, Note_on_c, 5, 67, 110
7, 124679, Note_on_c, 5, 67, 0
7, 124740, Note_on_c, 5, 65, 110
7, 124799, Note_on_c, 5, 65, 0
7, 124860, Note_on_c, 5, 65, 110
7, 124919, Note_on_c, 5, 65, 0
7, 124980, Note_on_c, 5, 64, 110
7, 125039, Note_on_c, 5, 64, 0
7, 125100, Note_on_c, 5, 64, 110
7, 125159, Note_on_c, 5, 64, 0
7, 125220, Note_on_c, 5, 62, 110
7, 125279, Note_on_c, 5, 62, 0
7, 125340, Note_on_c, 5, 70, 110
7, 125399, Note_on_c, 5, 70, 0
7, 125460, Note_on_c, 5, 69, 110
7, 125519, Note_on_c, 5, 69, 0
7, 125580, Note_on_c, 5, 69, 110
7, 125609, Note_on_c, 5, 69, 0
7, 125610, Note_on_c, 5, 67, 110
7, 125639, Note_on_c, 5, 67, 0
7, 125640, Note_on_c, 5, 65, 110
7, 125669, Note_on_c, 5, 65, 0
7, 125670, Note_on_c, 5, 64, 110
7, 125699, Note_on_c, 5, 64, 0
7, 125700, Note_on_c, 5, 62, 110
7, 125729, Note_on_c, 5, 62, 0
7, 125730, Note_on_c, 5, 64, 110
7, 125759, Note_on_c, 5, 64, 0
7, 125760, Note_on_c, 5, 66, 110
7, 125789, Note_on_c, 5, 66, 0
7, 125790, Note_on_c, 5, 68, 110
7, 125819, Note_on_c, 5, 68, 0
7, 125820, Note_on_c, 5, 69, 110
7, 125849, Note_on_c, 5, 69, 0
7, 125850, Note_on_c, 5, 68, 110
7, 125879, Note_on_c, 5, 68, 0
7, 125880, Note_on_c, 5, 69, 110
7, 125909, Note_on_c, 5, 69, 0
7, 125910, Note_on_c, 5, 71, 110
7, 125939, Note_on_c, 5, 71, 0
7, 125940, Note_on_c, 5, 72, 110
7, 125969, Note_on_c, 5, 72, 0
7, 125970, Note_on_c, 5, 74, 110
7, 125999, Note_on_c, 5, 74, 0
7, 126000, Note_on_c, 5, 76, 110
7, 126029, Note_on_c, 5, 76, 0
7, 126030, Note_on_c, 5, 77, 110
7, 126059, Note_on_c, 5, 77, 0
7, 126060, Note_on_c, 5, 71, 110
7, 126089, Note_on_c, 5, 71, 0
7, 126090, Note_on_c, 5, 74, 110
7, 126119, Note_on_c, 5, 74, 0
7, 126120, Note_on_c, 5, 72, 110
7, 126149, Note_on_c, 5, 72, 0
7, 126150, Note_on_c, 5, 71, 110
7, 126179, Note_on_c, 5, 71, 0
7, 126180, Note_on_c, 5, 72, 110
7, 126209, Note_on_c, 5, 72, 0
7, 126210, Note_on_c, 5, 71, 110
7, 126239, Note_on_c, 5, 71, 0
7, 126240, Note_on_c, 5, 69, 110
7, 126269, Note_on_c, 5, 69, 0
7, 126270, Note_on_c, 5, 68, 110
7, 126299, Note_on_c, 5, 68, 0
7, 126300, Note_on_c, 5, 69, 110
7, 126359, Note_on_c, 5, 69, 0
7, 126720, Note_on_c, 5, 72, 110
7, 126839, Note_on_c, 5, 72, 0
7, 126840, Note_on_c, 5, 71, 110
7, 126869, Note_on_c, 5, 71, 0
7, 126870, Note_on_c, 5, 69, 110
7, 126899, Note_on_c, 5, 69, 0
7, 126900, Note_on_c, 5, 71, 110
7, 126959, Note_on_c, 5, 71, 0
7, 126960, Note_on_c, 5, 71, 110
7, 127049, Note_on_c, 5, 71, 0
7, 127050, Note_on_c, 5, 68, 110
7, 127079, Note_on_c, 5, 68, 0
7, 127080, Note_on_c, 5, 69, 110
7, 127139, Note_on_c, 5, 69, 0
7, 127170, Note_on_c, 5, 72, 110
7, 127199, Note_on_c, 5, 72, 0
7, 127200, Note_on_c, 5, 77, 110
7, 127229, Note_on_c, 5, 77, 0
7, 127230, Note_on_c, 5, 76, 110
7, 127259, Note_on_c, 5, 76, 0
7, 127260, Note_on_c, 5, 74, 110
7, 127289, Note_on_c, 5, 74, 0
7, 127290, Note_on_c, 5, 72, 110
7, 127319, Note_on_c, 5, 72, 0
7, 127320, Note_on_c, 5, 71, 110
7, 127349, Note_on_c, 5, 71, 0
7, 127350, Note_on_c, 5, 69, 110
7, 127379, Note_on_c, 5, 69, 0
7, 127380, Note_on_c, 5, 68, 110
7, 127439, Note_on_c, 5, 68, 0
7, 127440, Note_on_c, 5, 71, 110
7, 127499, Note_on_c, 5, 71, 0
7, 127500, Note_on_c, 5, 64, 110
7, 127559, Note_on_c, 5, 64, 0
7, 127560, Note_on_c, 5, 74, 110
7, 127619, Note_on_c, 5, 74, 0
7, 127620, Note_on_c, 5, 72, 110
7, 127679, Note_on_c, 5, 72, 0
7, 127680, Note_on_c, 5, 71, 110
7, 127739, Note_on_c, 5, 71, 0
7, 127740, Note_on_c, 5, 64, 110
7, 127799, Note_on_c, 5, 64, 0
7, 127800, Note_on_c, 5, 69, 110
7, 127919, Note_on_c, 5, 69, 0
7, 127920, Note_on_c, 5, 68, 110
7, 127979, Note_on_c, 5, 68, 0
7, 127980, Note_on_c, 5, 69, 110
7, 128039, Note_on_c, 5, 69, 0
7, 128040, Note_on_c, 5, 57, 110
7, 128129, Note_on_c, 5, 57, 0
7, 128130, Note_on_c, 5, 59, 110
7, 128159, Note_on_c, 5, 59, 0
7, 128160, Note_on_c, 5, 60, 110
7, 128189, Note_on_c, 5, 60, 0
7, 128190, Note_on_c, 5, 62, 110
7, 128219, Note_on_c, 5, 62, 0
7, 128220, Note_on_c, 5, 64, 110
7, 128279, Note_on_c, 5, 64, 0
7, 128280, Note_on_c, 5, 64, 110
7, 128339, Note_on_c, 5, 64, 0
7, 128340, Note_on_c, 5, 64, 110
7, 128399, Note_on_c, 5, 64, 0
7, 128400, Note_on_c, 5, 64, 110
7, 128459, Note_on_c, 5, 64, 0
7, 128460, Note_on_c, 5, 65, 110
7, 128489, Note_on_c, 5, 65, 0
7, 128490, Note_on_c, 5, 64, 110
7, 128519, Note_on_c, 5, 64, 0
7, 128520, Note_on_c, 5, 65, 110
7, 128549, Note_on_c, 5, 65, 0
7, 128550, Note_on_c, 5, 67, 110
7, 128579, Note_on_c, 5, 67, 0
7, 128580, Note_on_c, 5, 65, 110
7, 128609, Note_on_c, 5, 65, 0
7, 128610, Note_on_c, 5, 64, 110
7, 128639, Note_on_c, 5, 64, 0
7, 128640, Note_on_c, 5, 62, 110
7, 128669, Note_on_c, 5, 62, 0
7, 128670, Note_on_c, 5, 65, 110
7, 128699, Note_on_c, 5, 65, 0
7, 128700, Note_on_c, 5, 64, 110
7, 128729, Note_on_c, 5, 64, 0
7, 128730, Note_on_c, 5, 62, 110
7, 128759, Note_on_c, 5, 62, 0
7, 128760, Note_on_c, 5, 64, 110
7, 128789, Note_on_c, 5, 64, 0
7, 128790, Note_on_c, 5, 65, 110
7, 128819, Note_on_c, 5, 65, 0
7, 128820, Note_on_c, 5, 64, 110
7, 128849, Note_on_c, 5, 64, 0
7, 128850, Note_on_c, 5, 62, 110
7, 128879, Note_on_c, 5, 62, 0
7, 128880, Note_on_c, 5, 61, 110
7, 128909, Note_on_c, 5, 61, 0
7, 128910, Note_on_c, 5, 64, 110
7, 128939, Note_on_c, 5, 64, 0
7, 128940, Note_on_c, 5, 62, 110
7, 128969, Note_on_c, 5, 62, 0
7, 128970, Note_on_c, 5, 60, 110
7, 128999, Note_on_c, 5, 60, 0
7, 129000, Note_on_c, 5, 62, 110
7, 129029, Note_on_c, 5, 62, 0
7, 129030, Note_on_c, 5, 64, 110
7, 129059, Note_on_c, 5, 64, 0
7, 129060, Note_on_c, 5, 62, 110
7, 129089, Note_on_c, 5, 62, 0
7, 129090, Note_on_c, 5, 60, 110
7, 129119, Note_on_c, 5, 60, 0
7, 129120, Note_on_c, 5, 58, 110
7, 129149, Note_on_c, 5, 58, 0
7, 129150, Note_on_c, 5, 62, 110
7, 129179, Note_on_c, 5, 62, 0
7, 129180, Note_on_c, 5, 60, 110
7, 129209, Note_on_c, 5, 60, 0
7, 129210, Note_on_c, 5, 58, 110
7, 129239, Note_on_c, 5, 58, 0
7, 129240, Note_on_c, 5, 60, 110
7, 129269, Note_on_c, 5, 60, 0
7, 129270, Note_on_c, 5, 62, 110
7, 129299, Note_on_c, 5, 62, 0
7, 129300, Note_on_c, 5, 60, 110
7, 129329, Note_on_c, 5, 60, 0
7, 129330, Note_on_c, 5, 58, 110
7, 129359, Note_on_c, 5, 58, 0
7, 129360, Note_on_c, 5, 57, 110
7, 129389, Note_on_c, 5, 57, 0
7, 129390, Note_on_c, 5, 60, 110
7, 129419, Note_on_c, 5, 60, 0
7, 129420, Note_on_c, 5, 58, 110
7, 129449, Note_on_c, 5, 58, 0
7, 129450, Note_on_c, 5, 57, 110
7, 129479, Note_on_c, 5, 57, 0
7, 129480, Note_on_c, 5, 58, 110
7, 129509, Note_on_c, 5, 58, 0
7, 129510, Note_on_c, 5, 60, 110
7, 129539, Note_on_c, 5, 60, 0
7, 129540, Note_on_c, 5, 58, 110
7, 129569, Note_on_c, 5, 58, 0
7, 129570, Note_on_c, 5, 57, 110
7, 129599, Note_on_c, 5, 57, 0
7, 129600, Note_on_c, 5, 55, 110
7, 129629, Note_on_c, 5, 55, 0
7, 129630, Note_on_c, 5, 58, 110
7, 129659, Note_on_c, 5, 58, 0
7, 129660, Note_on_c, 5, 57, 110
7, 129719, Note_on_c, 5, 57, 0
7, 130140, Note_on_c, 5, 72, 110
7, 130199, Note_on_c, 5, 72, 0
7, 130200, Note_on_c, 5, 60, 110
7, 130289, Note_on_c, 5, 60, 0
7, 130290, Note_on_c, 5, 62, 110
7, 130319, Note_on_c, 5, 62, 0
7, 130320, Note_on_c, 5, 64, 110
7, 130349, Note_on_c, 5, 64, 0
7, 130350, Note_on_c, 5, 65, 110
7, 130379, Note_on_c, 5, 65, 0
7, 130380, Note_on_c, 5, 67, 110
7, 130439, Note_on_c, 5, 67, 0
7, 130440, Note_on_c, 5, 67, 110
7, 130499, Note_on_c, 5, 67, 0
7, 130500, Note_on_c, 5, 67, 110
7, 130559, Note_on_c, 5, 67, 0
7, 130560, Note_on_c, 5, 67, 110
7, 130619, Note_on_c, 5, 67, 0
7, 130620, Note_on_c, 5, 69, 110
7, 130649, Note_on_c, 5, 69, 0
7, 130650, Note_on_c, 5, 67, 110
7, 130679, Note_on_c, 5, 67, 0
7, 130680, Note_on_c, 5, 69, 110
7, 130709, Note_on_c, 5, 69, 0
7, 130710, Note_on_c, 5, 70, 110
7, 130739, Note_on_c, 5, 70, 0
7, 130740, Note_on_c, 5, 69, 110
7, 130769, Note_on_c, 5, 69, 0
7, 130770, Note_on_c, 5, 67, 110
7, 130799, Note_on_c, 5, 67, 0
7, 130800, Note_on_c, 5, 65, 110
7, 130829, Note_on_c, 5, 65, 0
7, 130830, Note_on_c, 5, 69, 110
7, 130859, Note_on_c, 5, 69, 0
7, 130860, Note_on_c, 5, 67, 110
7, 130889, Note_on_c, 5, 67, 0
7, 130890, Note_on_c, 5, 65, 110
7, 130919, Note_on_c, 5, 65, 0
7, 130920, Note_on_c, 5, 67, 110
7, 130949, Note_on_c, 5, 67, 0
7, 130950, Note_on_c, 5, 69, 110
7, 130979, Note_on_c, 5, 69, 0
7, 130980, Note_on_c, 5, 67, 110
7, 131009, Note_on_c, 5, 67, 0
7, 131010, Note_on_c, 5, 65, 110
7, 131039, Note_on_c, 5, 65, 0
7, 131040, Note_on_c, 5, 64, 110
7, 131069, Note_on_c, 5, 64, 0
7, 131070, Note_on_c, 5, 67, 110
7, 131099, Note_on_c, 5, 67, 0
7, 131100, Note_on_c, 5, 65, 110
7, 131129, Note_on_c, 5, 65, 0
7, 131130, Note_on_c, 5, 64, 110
7, 131159, Note_on_c, 5, 64, 0
7, 131160, Note_on_c, 5, 65, 110
7, 131189, Note_on_c, 5, 65, 0
7, 131190, Note_on_c, 5, 67, 110
7, 131219, Note_on_c, 5, 67, 0
7, 131220, Note_on_c, 5, 65, 110
7, 131249, Note_on_c, 5, 65, 0
7, 131250, Note_on_c, 5, 64, 110
7, 131279, Note_on_c, 5, 64, 0
7, 131280, Note_on_c, 5, 62, 110
7, 131309, Note_on_c, 5, 62, 0
7, 131310, Note_on_c, 5, 65, 110
7, 131339, Note_on_c, 5, 65, 0
7, 131340, Note_on_c, 5, 64, 110
7, 131369, Note_on_c, 5, 64, 0
7, 131370, Note_on_c, 5, 62, 110
7, 131399, Note_on_c, 5, 62, 0
7, 131400, Note_on_c, 5, 64, 110
7, 131429, Note_on_c, 5, 64, 0
7, 131430, Note_on_c, 5, 65, 110
7, 131459, Note_on_c, 5, 65, 0
7, 131460, Note_on_c, 5, 64, 110
7, 131489, Note_on_c, 5, 64, 0
7, 131490, Note_on_c, 5, 62, 110
7, 131519, Note_on_c, 5, 62, 0
7, 131520, Note_on_c, 5, 61, 110
7, 131549, Note_on_c, 5, 61, 0
7, 131550, Note_on_c, 5, 64, 110
7, 131579, Note_on_c, 5, 64, 0
7, 131580, Note_on_c, 5, 62, 110
7, 131639, Note_on_c, 5, 62, 0
7, 131640, Note_on_c, 5, 70, 110
7, 131699, Note_on_c, 5, 70, 0
7, 131700, Note_on_c, 5, 64, 110
7, 131759, Note_on_c, 5, 64, 0
7, 131760, Note_on_c, 5, 73, 110
7, 131819, Note_on_c, 5, 73, 0
7, 131820, Note_on_c, 5, 74, 110
7, 131879, Note_on_c, 5, 74, 0
7, 131880, Note_on_c, 5, 77, 110
7, 131909, Note_on_c, 5, 77, 0
7, 131910, Note_on_c, 5, 76, 110
7, 131939, Note_on_c, 5, 76, 0
7, 131940, Note_on_c, 5, 77, 110
7, 131999, Note_on_c, 5, 77, 0
7, 132000, Note_on_c, 5, 74, 110
7, 132059, Note_on_c, 5, 74, 0
7, 132060, Note_on_c, 5, 76, 110
7, 132119, Note_on_c, 5, 76, 0
7, 132120, Note_on_c, 5, 64, 110
7, 132179, Note_on_c, 5, 64, 0
7, 132450, Note_on_c, 5, 65, 110
7, 132479, Note_on_c, 5, 65, 0
7, 132480, Note_on_c, 5, 67, 110
7, 132509, Note_on_c, 5, 67, 0
7, 132510, Note_on_c, 5, 69, 110
7, 132539, Note_on_c, 5, 69, 0
7, 132540, Note_on_c, 5, 70, 110
7, 132569, Note_on_c, 5, 70, 0
7, 132570, Note_on_c, 5, 69, 110
7, 132599, Note_on_c, 5, 69, 0
7, 132600, Note_on_c, 5, 70, 110
7, 132629, Note_on_c, 5, 70, 0
7, 132630, Note_on_c, 5, 72, 110
7, 132659, Note_on_c, 5, 72, 0
7, 132660, Note_on_c, 5, 69, 110
7, 132719, Note_on_c, 5, 69, 0
7, 132780, Note_on_c, 5, 69, 110
7, 132839, Note_on_c, 5, 69, 0
7, 132840, Note_on_c, 5, 81, 110
7, 132929, Note_on_c, 5, 81, 0
7, 132930, Note_on_c, 5, 79, 110
7, 132959, Note_on_c, 5, 79, 0
7, 132960, Note_on_c, 5, 77, 110
7, 132989, Note_on_c, 5, 77, 0
7, 132990, Note_on_c, 5, 76, 110
7, 133019, Note_on_c, 5, 76, 0
7, 133020, Note_on_c, 5, 74, 110
7, 133079, Note_on_c, 5, 74, 0
7, 133080, Note_on_c, 5, 74, 110
7, 133139, Note_on_c, 5, 74, 0
7, 133140, Note_on_c, 5, 74, 110
7, 133199, Note_on_c, 5, 74, 0
7, 133200, Note_on_c, 5, 74, 110
7, 133259, Note_on_c, 5, 74, 0
7, 133260, Note_on_c, 5, 72, 110
7, 133289, Note_on_c, 5, 72, 0
7, 133290, Note_on_c, 5, 70, 110
7, 133319, Note_on_c, 5, 70, 0
7, 133320, Note_on_c, 5, 72, 110
7, 133349, Note_on_c, 5, 72, 0
7, 133350, Note_on_c, 5, 74, 110
7, 133379, Note_on_c, 5, 74, 0
7, 133380, Note_on_c, 5, 72, 110
7, 133409, Note_on_c, 5, 72, 0
7, 133410, Note_on_c, 5, 75, 110
7, 133439, Note_on_c, 5, 75, 0
7, 133440, Note_on_c, 5, 74, 110
7, 133469, Note_on_c, 5, 74, 0
7, 133470, Note_on_c, 5, 72, 110
7, 133499, Note_on_c, 5, 72, 0
7, 133500, Note_on_c, 5, 74, 110
7, 133559, Note_on_c, 5, 74, 0
7, 133560, Note_on_c, 5, 62, 110
7, 133649, Note_on_c, 5, 62, 0
7, 133650, Note_on_c, 5, 64, 110
7, 133679, Note_on_c, 5, 64, 0
7, 133680, Note_on_c, 5, 65, 110
7, 133709, Note_on_c, 5, 65, 0
7, 133710, Note_on_c, 5, 67, 110
7, 133739, Note_on_c, 5, 67, 0
7, 133740, Note_on_c, 5, 69, 110
7, 133799, Note_on_c, 5, 69, 0
7, 133800, Note_on_c, 5, 69, 110
7, 133859, Note_on_c, 5, 69, 0
7, 133860, Note_on_c, 5, 69, 110
7, 133919, Note_on_c, 5, 69, 0
7, 133920, Note_on_c, 5, 69, 110
7, 133979, Note_on_c, 5, 69, 0
7, 133980, Note_on_c, 5, 57, 110
7, 134039, Note_on_c, 5, 57, 0
7, 134460, Note_on_c, 5, 74, 110
7, 134519, Note_on_c, 5, 74, 0
7, 134520, Note_on_c, 5, 62, 110
7, 134609, Note_on_c, 5, 62, 0
7, 134610, Note_on_c, 5, 64, 110
7, 134639, Note_on_c, 5, 64, 0
7, 134640, Note_on_c, 5, 65, 110
7, 134669, Note_on_c, 5, 65, 0
7, 134670, Note_on_c, 5, 67, 110
7, 134699, Note_on_c, 5, 67, 0
7, 134700, Note_on_c, 5, 69, 110
7, 134759, Note_on_c, 5, 69, 0
7, 134760, Note_on_c, 5, 69, 110
7, 134819, Note_on_c, 5, 69, 0
7, 134820, Note_on_c, 5, 69, 110
7, 134879, Note_on_c, 5, 69, 0
7, 134880, Note_on_c, 5, 69, 110
7, 134939, Note_on_c, 5, 69, 0
7, 134940, Note_on_c, 5, 70, 110
7, 134969, Note_on_c, 5, 70, 0
7, 134970, Note_on_c, 5, 69, 110
7, 134999, Note_on_c, 5, 69, 0
7, 135000, Note_on_c, 5, 70, 110
7, 135029, Note_on_c, 5, 70, 0
7, 135030, Note_on_c, 5, 72, 110
7, 135059, Note_on_c, 5, 72, 0
7, 135060, Note_on_c, 5, 70, 110
7, 135089, Note_on_c, 5, 70, 0
7, 135090, Note_on_c, 5, 69, 110
7, 135119, Note_on_c, 5, 69, 0
7, 135120, Note_on_c, 5, 67, 110
7, 135149, Note_on_c, 5, 67, 0
7, 135150, Note_on_c, 5, 70, 110
7, 135179, Note_on_c, 5, 70, 0
7, 135180, Note_on_c, 5, 69, 110
7, 135209, Note_on_c, 5, 69, 0
7, 135210, Note_on_c, 5, 67, 110
7, 135239, Note_on_c, 5, 67, 0
7, 135240, Note_on_c, 5, 69, 110
7, 135269, Note_on_c, 5, 69, 0
7, 135270, Note_on_c, 5, 70, 110
7, 135299, Note_on_c, 5, 70, 0
7, 135300, Note_on_c, 5, 69, 110
7, 135329, Note_on_c, 5, 69, 0
7, 135330, Note_on_c, 5, 67, 110
7, 135359, Note_on_c, 5, 67, 0
7, 135360, Note_on_c, 5, 65, 110
7, 135389, Note_on_c, 5, 65, 0
7, 135390, Note_on_c, 5, 69, 110
7, 135419, Note_on_c, 5, 69, 0
7, 135420, Note_on_c, 5, 67, 110
7, 135449, Note_on_c, 5, 67, 0
7, 135450, Note_on_c, 5, 65, 110
7, 135479, Note_on_c, 5, 65, 0
7, 135480, Note_on_c, 5, 67, 110
7, 135509, Note_on_c, 5, 67, 0
7, 135510, Note_on_c, 5, 69, 110
7, 135539, Note_on_c, 5, 69, 0
7, 135540, Note_on_c, 5, 67, 110
7, 135569, Note_on_c, 5, 67, 0
7, 135570, Note_on_c, 5, 65, 110
7, 135599, Note_on_c, 5, 65, 0
7, 135600, Note_on_c, 5, 64, 110
7, 135629, Note_on_c, 5, 64, 0
7, 135630, Note_on_c, 5, 67, 110
7, 135659, Note_on_c, 5, 67, 0
7, 135660, Note_on_c, 5, 65, 110
7, 135689, Note_on_c, 5, 65, 0
7, 135690, Note_on_c, 5, 64, 110
7, 135719, Note_on_c, 5, 64, 0
7, 135720, Note_on_c, 5, 62, 110
7, 135749, Note_on_c, 5, 62, 0
7, 135750, Note_on_c, 5, 64, 110
7, 135779, Note_on_c, 5, 64, 0
7, 135780, Note_on_c, 5, 66, 110
7, 135809, Note_on_c, 5, 66, 0
7, 135810, Note_on_c, 5, 68, 110
7, 135839, Note_on_c, 5, 68, 0
7, 135840, Note_on_c, 5, 69, 110
7, 135869, Note_on_c, 5, 69, 0
7, 135870, Note_on_c, 5, 71, 110
7, 135899, Note_on_c, 5, 71, 0
7, 135900, Note_on_c, 5, 72, 110
7, 135929, Note_on_c, 5, 72, 0
7, 135930, Note_on_c, 5, 71, 110
7, 135959, Note_on_c, 5, 71, 0
7, 135960, Note_on_c, 5, 69, 110
7, 135989, Note_on_c, 5, 69, 0
7, 135990, Note_on_c, 5, 71, 110
7, 136019, Note_on_c, 5, 71, 0
7, 136020, Note_on_c, 5, 72, 110
7, 136049, Note_on_c, 5, 72, 0
7, 136050, Note_on_c, 5, 74, 110
7, 136079, Note_on_c, 5, 74, 0
7, 136080, Note_on_c, 5, 76, 110
7, 136109, Note_on_c, 5, 76, 0
7, 136110, Note_on_c, 5, 77, 110
7, 136139, Note_on_c, 5, 77, 0
7, 136140, Note_on_c, 5, 71, 110
7, 136169, Note_on_c, 5, 71, 0
7, 136170, Note_on_c, 5, 72, 110
7, 136199, Note_on_c, 5, 72, 0
7, 136200, Note_on_c, 5, 74, 110
7, 136229, Note_on_c, 5, 74, 0
7, 136230, Note_on_c, 5, 71, 110
7, 136259, Note_on_c, 5, 71, 0
7, 136260, Note_on_c, 5, 72, 110
7, 136319, Note_on_c, 5, 72, 0
7, 136320, Note_on_c, 5, 72, 110
7, 136439, Note_on_c, 5, 72, 0
7, 136440, Note_on_c, 5, 71, 110
7, 136469, Note_on_c, 5, 71, 0
7, 136470, Note_on_c, 5, 69, 110
7, 136499, Note_on_c, 5, 69, 0
7, 136500, Note_on_c, 5, 71, 110
7, 136559, Note_on_c, 5, 71, 0
7, 136560, Note_on_c, 5, 71, 110
7, 136679, Note_on_c, 5, 71, 0
7, 136680, Note_on_c, 5, 69, 110
7, 136709, Note_on_c, 5, 69, 0
7, 136710, Note_on_c, 5, 68, 110
7, 136739, Note_on_c, 5, 68, 0
7, 136740, Note_on_c, 5, 69, 110
7, 136799, Note_on_c, 5, 69, 0
7, 136800, Note_on_c, 5, 69, 110
7, 136919, Note_on_c, 5, 69, 0
7, 136920, Note_on_c, 5, 68, 110
7, 136949, Note_on_c, 5, 68, 0
7, 136950, Note_on_c, 5, 66, 110
7, 136979, Note_on_c, 5, 66, 0
7, 136980, Note_on_c, 5, 68, 110
7, 136999, Note_on_c, 5, 68, 0
7, 137000, Note_on_c, 5, 69, 110
7, 137019, Note_on_c, 5, 69, 0
7, 137020, Note_on_c, 5, 68, 110
7, 137039, Note_on_c, 5, 68, 0
7, 137040, Note_on_c, 5, 69, 110
7, 137054, Note_on_c, 5, 69, 0
7, 137055, Note_on_c, 5, 68, 110
7, 137069, Note_on_c, 5, 68, 0
7, 137070, Note_on_c, 5, 69, 110
7, 137084, Note_on_c, 5, 69, 0
7, 137085, Note_on_c, 5, 68, 110
7, 137099, Note_on_c, 5, 68, 0
7, 137100, Note_on_c, 5, 69, 110
7, 137159, Note_on_c, 5, 69, 0
7, 137160, Note_on_c, 5, 57, 110
7, 137219, Note_on_c, 5, 57, 0
7, 137280, Note_on_c, 5, 69, 110
7, 137339, Note_on_c, 5, 69, 0
7, 137340, Note_on_c, 5, 70, 110
7, 137399, Note_on_c, 5, 70, 0
7, 137400, Note_on_c, 5, 67, 110
7, 137459, Note_on_c, 5, 67, 0
7, 137460, Note_on_c, 5, 64, 110
7, 137519, Note_on_c, 5, 64, 0
7, 137520, Note_on_c, 5, 73, 110
7, 137579, Note_on_c, 5, 73, 0
7, 137580, Note_on_c, 5, 74, 110
7, 137639, Note_on_c, 5, 74, 0
7, 137640, Note_on_c, 5, 62, 110
7, 137669, Note_on_c, 5, 62, 0
7, 137670, Note_on_c, 5, 64, 110
7, 137699, Note_on_c, 5, 64, 0
7, 137700, Note_on_c, 5, 66, 110
7, 137729, Note_on_c, 5, 66, 0
7, 137730, Note_on_c, 5, 67, 110
7, 137759, Note_on_c, 5, 67, 0
7, 137760, Note_on_c, 5, 69, 110
7, 137789, Note_on_c, 5, 69, 0
7, 137790, Note_on_c, 5, 70, 110
7, 137819, Note_on_c, 5, 70, 0
7, 137820, Note_on_c, 5, 72, 110
7, 137849, Note_on_c, 5, 72, 0
7, 137850, Note_on_c, 5, 70, 110
7, 137879, Note_on_c, 5, 70, 0
7, 137880, Note_on_c, 5, 72, 110
7, 137909, Note_on_c, 5, 72, 0
7, 137910, Note_on_c, 5, 74, 110
7, 137939, Note_on_c, 5, 74, 0
7, 137940, Note_on_c, 5, 72, 110
7, 137969, Note_on_c, 5, 72, 0
7, 137970, Note_on_c, 5, 70, 110
7, 137999, Note_on_c, 5, 70, 0
7, 138000, Note_on_c, 5, 69, 110
7, 138029, Note_on_c, 5, 69, 0
7, 138030, Note_on_c, 5, 72, 110
7, 138059, Note_on_c, 5, 72, 0
7, 138060, Note_on_c, 5, 70, 110
7, 138089, Note_on_c, 5, 70, 0
7, 138090, Note_on_c, 5, 69, 110
7, 138119, Note_on_c, 5, 69, 0
7, 138120, Note_on_c, 5, 71, 110
7, 138149, Note_on_c, 5, 71, 0
7, 138150, Note_on_c, 5, 73, 110
7, 138179, Note_on_c, 5, 73, 0
7, 138180, Note_on_c, 5, 74, 110
7, 138209, Note_on_c, 5, 74, 0
7, 138210, Note_on_c, 5, 76, 110
7, 138239, Note_on_c, 5, 76, 0
7, 138240, Note_on_c, 5, 77, 110
7, 138269, Note_on_c, 5, 77, 0
7, 138270, Note_on_c, 5, 79, 110
7, 138299, Note_on_c, 5, 79, 0
7, 138300, Note_on_c, 5, 81, 110
7, 138329, Note_on_c, 5, 81, 0
7, 138330, Note_on_c, 5, 82, 110
7, 138359, Note_on_c, 5, 82, 0
7, 138360, Note_on_c, 5, 79, 110
7, 138389, Note_on_c, 5, 79, 0
7, 138390, Note_on_c, 5, 81, 110
7, 138419, Note_on_c, 5, 81, 0
7, 138420, Note_on_c, 5, 82, 110
7, 138449, Note_on_c, 5, 82, 0
7, 138450, Note_on_c, 5, 81, 110
7, 138479, Note_on_c, 5, 81, 0
7, 138480, Note_on_c, 5, 79, 110
7, 138509, Note_on_c, 5, 79, 0
7, 138510, Note_on_c, 5, 77, 110
7, 138539, Note_on_c, 5, 77, 0
7, 138540, Note_on_c, 5, 76, 110
7, 138569, Note_on_c, 5, 76, 0
7, 138570, Note_on_c, 5, 74, 110
7, 138599, Note_on_c, 5, 74, 0
7, 138600, Note_on_c, 5, 73, 110
7, 138629, Note_on_c, 5, 73, 0
7, 138630, Note_on_c, 5, 71, 110
7, 138659, Note_on_c, 5, 71, 0
7, 138660, Note_on_c, 5, 69, 110
7, 138689, Note_on_c, 5, 69, 0
7, 138690, Note_on_c, 5, 71, 110
7, 138719, Note_on_c, 5, 71, 0
7, 138720, Note_on_c, 5, 73, 110
7, 138749, Note_on_c, 5, 73, 0
7, 138750, Note_on_c, 5, 69, 110
7, 138779, Note_on_c, 5, 69, 0
7, 138780, Note_on_c, 5, 74, 110
7, 138839, Note_on_c, 5, 74, 0
7, 138840, Note_on_c, 5, 74, 110
7, 138959, Note_on_c, 5, 74, 0
7, 138960, Note_on_c, 5, 76, 110
7, 138989, Note_on_c, 5, 76, 0
7, 138990, Note_on_c, 5, 74, 110
7, 139019, Note_on_c, 5, 74, 0
7, 139020, Note_on_c, 5, 72, 110
7, 139079, Note_on_c, 5, 72, 0
7, 139080, Note_on_c, 5, 72, 110
7, 139199, Note_on_c, 5, 72, 0
7, 139200, Note_on_c, 5, 74, 110
7, 139229, Note_on_c, 5, 74, 0
7, 139230, Note_on_c, 5, 72, 110
7, 139259, Note_on_c, 5, 72, 0
7, 139260, Note_on_c, 5, 70, 110
7, 139319, Note_on_c, 5, 70, 0
7, 139320, Note_on_c, 5, 70, 110
7, 139439, Note_on_c, 5, 70, 0
7, 139440, Note_on_c, 5, 72, 110
7, 139469, Note_on_c, 5, 72, 0
7, 139470, Note_on_c, 5, 70, 110
7, 139499, Note_on_c, 5, 70, 0
7, 139500, Note_on_c, 5, 69, 110
7, 139559, Note_on_c, 5, 69, 0
7, 139560, Note_on_c, 5, 74, 110
7, 139589, Note_on_c, 5, 74, 0
7, 139590, Note_on_c, 5, 76, 110
7, 139619, Note_on_c, 5, 76, 0
7, 139620, Note_on_c, 5, 77, 110
7, 139679, Note_on_c, 5, 77, 0
7, 139680, Note_on_c, 5, 69, 110
7, 139739, Note_on_c, 5, 69, 0
7, 139740, Note_on_c, 5, 67, 110
7, 139919, Note_on_c, 5, 67, 0
7, 139920, Note_on_c, 5, 65, 110
7, 139949, Note_on_c, 5, 65, 0
7, 139950, Note_on_c, 5, 64, 110
7, 139979, Note_on_c, 5, 64, 0
7, 139980, Note_on_c, 5, 65, 110
7, 140039, Note_on_c, 5, 65, 0
7, 140040, Note_on_c, 5, 64, 110
7, 140069, Note_on_c, 5, 64, 0
7, 140070, Note_on_c, 5, 62, 110
7, 140099, Note_on_c, 5, 62, 0
7, 140100, Note_on_c, 5, 61, 110
7, 140119, Note_on_c, 5, 61, 0
7, 140120, Note_on_c, 5, 62, 110
7, 140139, Note_on_c, 5, 62, 0
7, 140140, Note_on_c, 5, 61, 110
7, 140159, Note_on_c, 5, 61, 0
7, 140160, Note_on_c, 5, 62, 110
7, 140174, Note_on_c, 5, 62, 0
7, 140175, Note_on_c, 5, 61, 110
7, 140189, Note_on_c, 5, 61, 0
7, 140190, Note_on_c, 5, 62, 110
7, 140219, Note_on_c, 5, 62, 0
7, 140220, Note_on_c, 5, 62, 110
7, 140339, Note_on_c, 5, 62, 0
7, 140520, Note_on_c, 5, 72, 110
7, 140639, Note_on_c, 5, 72, 0
7, 140640, Note_on_c, 5, 70, 110
7, 140669, Note_on_c, 5, 70, 0
7, 140670, Note_on_c, 5, 69, 110
7, 140699, Note_on_c, 5, 69, 0
7, 140700, Note_on_c, 5, 67, 110
7, 140759, Note_on_c, 5, 67, 0
7, 141000, Note_on_c, 5, 70, 110
7, 141119, Note_on_c, 5, 70, 0
7, 141120, Note_on_c, 5, 69, 110
7, 141149, Note_on_c, 5, 69, 0
7, 141150, Note_on_c, 5, 67, 110
7, 141179, Note_on_c, 5, 67, 0
7, 141180, Note_on_c, 5, 65, 110
7, 141239, Note_on_c, 5, 65, 0
7, 141480, Note_on_c, 5, 65, 110
7, 141599, Note_on_c, 5, 65, 0
7, 141600, Note_on_c, 5, 64, 110
7, 141629, Note_on_c, 5, 64, 0
7, 141630, Note_on_c, 5, 62, 110
7, 141659, Note_on_c, 5, 62, 0
7, 141660, Note_on_c, 5, 60, 110
7, 141719, Note_on_c, 5, 60, 0
7, 141960, Note_on_c, 5, 67, 110
7, 141989, Note_on_c, 5, 67, 0
7, 142020, Note_on_c, 5, 64, 110
7, 142049, Note_on_c, 5, 64, 0
7, 142200, Note_on_c, 5, 69, 110
7, 142229, Note_on_c, 5, 69, 0
7, 142260, Note_on_c, 5, 70, 110
7, 142289, Note_on_c, 5, 70, 0
7, 142440, Note_on_c, 5, 60, 110
7, 142469, Note_on_c, 5, 60, 0
7, 142500, Note_on_c, 5, 63, 110
7, 142529, Note_on_c, 5, 63, 0
7, 142680, Note_on_c, 5, 66, 110
7, 142709, Note_on_c, 5, 66, 0
7, 142740, Note_on_c, 5, 67, 110
7, 142769, Note_on_c, 5, 67, 0
7, 142920, Note_on_c, 5, 63, 110
7, 142949, Note_on_c, 5, 63, 0
7, 142980, Note_on_c, 5, 72, 110
7, 143009, Note_on_c, 5, 72, 0
7, 143160, Note_on_c, 5, 74, 110
7, 143189, Note_on_c, 5, 74, 0
7, 143220, Note_on_c, 5, 67, 110
7, 143249, Note_on_c, 5, 67, 0
7, 144300, Note_on_c, 5, 72, 110
7, 144359, Note_on_c, 5, 72, 0
7, 144360, Note_on_c, 5, 60, 110
7, 144449, Note_on_c, 5, 60, 0
7, 144450, Note_on_c, 5, 62, 110
7, 144479, Note_on_c, 5, 62, 0
7, 144480, Note_on_c, 5, 64, 110
7, 144509, Note_on_c, 5, 64, 0
7, 144510, Note_on_c, 5, 66, 110
7, 144539, Note_on_c, 5, 66, 0
7, 144540, Note_on_c, 5, 67, 110
7, 144599, Note_on_c, 5, 67, 0
7, 144600, Note_on_c, 5, 67, 110
7, 144659, Note_on_c, 5, 67, 0
7, 144660, Note_on_c, 5, 67, 110
7, 144719, Note_on_c, 5, 67, 0
7, 144720, Note_on_c, 5, 67, 110
7, 144779, Note_on_c, 5, 67, 0
7, 144780, Note_on_c, 5, 69, 110
7, 144809, Note_on_c, 5, 69, 0
7, 144810, Note_on_c, 5, 67, 110
7, 144839, Note_on_c, 5, 67, 0
7, 144840, Note_on_c, 5, 69, 110
7, 144869, Note_on_c, 5, 69, 0
7, 144870, Note_on_c, 5, 70, 110
7, 144899, Note_on_c, 5, 70, 0
7, 144900, Note_on_c, 5, 69, 110
7, 144929, Note_on_c, 5, 69, 0
7, 144930, Note_on_c, 5, 67, 110
7, 144959, Note_on_c, 5, 67, 0
7, 144960, Note_on_c, 5, 66, 110
7, 144989, Note_on_c, 5, 66, 0
7, 144990, Note_on_c, 5, 69, 110
7, 145019, Note_on_c, 5, 69, 0
7, 145020, Note_on_c, 5, 67, 110
7, 145049, Note_on_c, 5, 67, 0
7, 145050, Note_on_c, 5, 66, 110
7, 145079, Note_on_c, 5, 66, 0
7, 145080, Note_on_c, 5, 67, 110
7, 145109, Note_on_c, 5, 67, 0
7, 145110, Note_on_c, 5, 69, 110
7, 145139, Note_on_c, 5, 69, 0
7, 145140, Note_on_c, 5, 67, 110
7, 145169, Note_on_c, 5, 67, 0
7, 145170, Note_on_c, 5, 66, 110
7, 145199, Note_on_c, 5, 66, 0
7, 145200, Note_on_c, 5, 64, 110
7, 145229, Note_on_c, 5, 64, 0
7, 145230, Note_on_c, 5, 67, 110
7, 145259, Note_on_c, 5, 67, 0
7, 145260, Note_on_c, 5, 66, 110
7, 145319, Note_on_c, 5, 66, 0
7, 145320, Note_on_c, 5, 62, 110
7, 145379, Note_on_c, 5, 62, 0
7, 145380, Note_on_c, 5, 74, 110
7, 145559, Note_on_c, 5, 74, 0
7, 145560, Note_on_c, 5, 72, 110
7, 145589, Note_on_c, 5, 72, 0
7, 145590, Note_on_c, 5, 71, 110
7, 145619, Note_on_c, 5, 71, 0
7, 145620, Note_on_c, 5, 72, 110
7, 145679, Note_on_c, 5, 72, 0
7, 145680, Note_on_c, 5, 72, 110
7, 145799, Note_on_c, 5, 72, 0
7, 145800, Note_on_c, 5, 70, 110
7, 145829, Note_on_c, 5, 70, 0
7, 145830, Note_on_c, 5, 69, 110
7, 145859, Note_on_c, 5, 69, 0
7, 145860, Note_on_c, 5, 70, 110
7, 145919, Note_on_c, 5, 70, 0
7, 145920, Note_on_c, 5, 70, 110
7, 146039, Note_on_c, 5, 70, 0
7, 146040, Note_on_c, 5, 69, 110
7, 146069, Note_on_c, 5, 69, 0
7, 146070, Note_on_c, 5, 67, 110
7, 146099, Note_on_c, 5, 67, 0
7, 146100, Note_on_c, 5, 69, 110
7, 146159, Note_on_c, 5, 69, 0
7, 146160, Note_on_c, 5, 72, 110
7, 146219, Note_on_c, 5, 72, 0
7, 146220, Note_on_c, 5, 66, 110
7, 146279, Note_on_c, 5, 66, 0
7, 146280, Note_on_c, 5, 62, 110
7, 146339, Note_on_c, 5, 62, 0
7, 146340, Note_on_c, 5, 74, 110
7, 146399, Note_on_c, 5, 74, 0
7, 146400, Note_on_c, 5, 72, 110
7, 146459, Note_on_c, 5, 72, 0
7, 146460, Note_on_c, 5, 70, 110
7, 146549, Note_on_c, 5, 70, 0
7, 146550, Note_on_c, 5, 69, 110
7, 146579, Note_on_c, 5, 69, 0
7, 146580, Note_on_c, 5, 69, 110
7, 146669, Note_on_c, 5, 69, 0
7, 146670, Note_on_c, 5, 67, 110
7, 146699, Note_on_c, 5, 67, 0
7, 146700, Note_on_c, 5, 67, 110
7, 146759, Note_on_c, 5, 67, 0
7, 146760, Note_on_c, 5, 62, 110
7, 146849, Note_on_c, 5, 62, 0
7, 146850, Note_on_c, 5, 60, 110
7, 146879, Note_on_c, 5, 60, 0
7, 146880, Note_on_c, 5, 58, 110
7, 146909, Note_on_c, 5, 58, 0
7, 146910, Note_on_c, 5, 57, 110
7, 146939, Note_on_c, 5, 57, 0
7, 146940, Note_on_c, 5, 55, 110
7, 146999, Note_on_c, 5, 55, 0
7, 147480, Note_on_c, 5, 64, 110
7, 147539, Note_on_c, 5, 64, 0
7, 147540, Note_on_c, 5, 76, 110
7, 147599, Note_on_c, 5, 76, 0
7, 147600, Note_on_c, 5, 76, 110
7, 147719, Note_on_c, 5, 76, 0
7, 147720, Note_on_c, 5, 74, 110
7, 147779, Note_on_c, 5, 74, 0
7, 148020, Note_on_c, 5, 69, 110
7, 148199, Note_on_c, 5, 69, 0
7, 148200, Note_on_c, 5, 67, 110
7, 148259, Note_on_c, 5, 67, 0
7, 148260, Note_on_c, 5, 62, 110
7, 148319, Note_on_c, 5, 62, 0
7, 148380, Note_on_c, 5, 64, 110
7, 148439, Note_on_c, 5, 64, 0
7, 149460, Note_on_c, 5, 77, 110
7, 149519, Note_on_c, 5, 77, 0
7, 149580, Note_on_c, 5, 75, 110
7, 149639, Note_on_c, 5, 75, 0
7, 149700, Note_on_c, 5, 75, 110
7, 149759, Note_on_c, 5, 75, 0
7, 149820, Note_on_c, 5, 74, 110
7, 149879, Note_on_c, 5, 74, 0
7, 149940, Note_on_c, 5, 65, 110
7, 149999, Note_on_c, 5, 65, 0
7, 150060, Note_on_c, 5, 67, 110
7, 150119, Note_on_c, 5, 67, 0
7, 150180, Note_on_c, 5, 69, 110
7, 150239, Note_on_c, 5, 69, 0
7, 150300, Note_on_c, 5, 70, 110
7, 150359, Note_on_c, 5, 70, 0
7, 150480, Note_on_c, 5, 62, 110
7, 150599, Note_on_c, 5, 62, 0
7, 150600, Note_on_c, 5, 60, 110
7, 150629, Note_on_c, 5, 60, 0
7, 150630, Note_on_c, 5, 58, 110
7, 150659, Note_on_c, 5, 58, 0
7, 150660, Note_on_c, 5, 60, 110
7, 150719, Note_on_c, 5, 60, 0
7, 150720, Note_on_c, 5, 70, 110
7, 150779, Note_on_c, 5, 70, 0
7, 150780, Note_on_c, 5, 69, 110
7, 150839, Note_on_c, 5, 69, 0
7, 150960, Note_on_c, 5, 65, 110
7, 151079, Note_on_c, 5, 65, 0
7, 151080, Note_on_c, 5, 63, 110
7, 151109, Note_on_c, 5, 63, 0
7, 151110, Note_on_c, 5, 62, 110
7, 151139, Note_on_c, 5, 62, 0
7, 151140, Note_on_c, 5, 63, 110
7, 151199, Note_on_c, 5, 63, 0
7, 151200, Note_on_c, 5, 75, 110
7, 151259, Note_on_c, 5, 75, 0
7, 151260, Note_on_c, 5, 72, 110
7, 151319, Note_on_c, 5, 72, 0
7, 151860, Note_on_c, 5, 65, 110
7, 151979, Note_on_c, 5, 65, 0
7, 151980, Note_on_c, 5, 62, 110
7, 152099, Note_on_c, 5, 62, 0
7, 152220, Control_c, 5, 0, 20
7, 152220, Control_c, 5, 0, 20
7, 152220, Program_c, 5, 40
7, 152220, Note_on_c, 5, 74, 110
7, 152279, Note_on_c, 5, 74, 0
7, 152280, Note_on_c, 5, 62, 110
7, 152369, Note_on_c, 5, 62, 0
7, 152370, Note_on_c, 5, 64, 110
7, 152399, Note_on_c, 5, 64, 0
7, 152400, Note_on_c, 5, 65, 110
7, 152429, Note_on_c, 5, 65, 0
7, 152430, Note_on_c, 5, 67, 110
7, 152459, Note_on_c, 5, 67, 0
7, 152460, Note_on_c, 5, 69, 110
7, 152519, Note_on_c, 5, 69, 0
7, 152520, Note_on_c, 5, 69, 110
7, 152579, Note_on_c, 5, 69, 0
7, 152580, Note_on_c, 5, 69, 110
7, 152639, Note_on_c, 5, 69, 0
7, 152640, Note_on_c, 5, 69, 110
7, 152699, Note_on_c, 5, 69, 0
7, 152700, Note_on_c, 5, 70, 110
7, 152729, Note_on_c, 5, 70, 0
7, 152730, Note_on_c, 5, 69, 110
7, 152759, Note_on_c, 5, 69, 0
7, 152760, Note_on_c, 5, 70, 110
7, 152789, Note_on_c, 5, 70, 0
7, 152790, Note_on_c, 5, 72, 110
7, 152819, Note_on_c, 5, 72, 0
7, 152820, Note_on_c, 5, 70, 110
7, 152849, Note_on_c, 5, 70, 0
7, 152850, Note_on_c, 5, 69, 110
7, 152879, Note_on_c, 5, 69, 0
7, 152880, Note_on_c, 5, 67, 110
7, 152909, Note_on_c, 5, 67, 0
7, 152910, Note_on_c, 5, 70, 110
7, 152939, Note_on_c, 5, 70, 0
7, 152940, Note_on_c, 5, 69, 110
7, 152969, Note_on_c, 5, 69, 0
7, 152970, Note_on_c, 5, 67, 110
7, 152999, Note_on_c, 5, 67, 0
7, 153000, Note_on_c, 5, 69, 110
7, 153029, Note_on_c, 5, 69, 0
7, 153030, Note_on_c, 5, 70, 110
7, 153059, Note_on_c, 5, 70, 0
7, 153060, Note_on_c, 5, 69, 110
7, 153089, Note_on_c, 5, 69, 0
7, 153090, Note_on_c, 5, 67, 110
7, 153119, Note_on_c, 5, 67, 0
7, 153120, Note_on_c, 5, 65, 110
7, 153149, Note_on_c, 5, 65, 0
7, 153150, Note_on_c, 5, 69, 110
7, 153179, Note_on_c, 5, 69, 0
7, 153180, Note_on_c, 5, 67, 110
7, 153209, Note_on_c, 5, 67, 0
7, 153210, Note_on_c, 5, 65, 110
7, 153239, Note_on_c, 5, 65, 0
7, 153240, Note_on_c, 5, 67, 110
7, 153269, Note_on_c, 5, 67, 0
7, 153270, Note_on_c, 5, 69, 110
7, 153299, Note_on_c, 5, 69, 0
7, 153300, Note_on_c, 5, 67, 110
7, 153329, Note_on_c, 5, 67, 0
7, 153330, Note_on_c, 5, 65, 110
7, 153359, Note_on_c, 5, 65, 0
7, 153360, Note_on_c, 5, 64, 110
7, 153389, Note_on_c, 5, 64, 0
7, 153390, Note_on_c, 5, 67, 110
7, 153419, Note_on_c, 5, 67, 0
7, 153420, Note_on_c, 5, 65, 110
7, 153449, Note_on_c, 5, 65, 0
7, 153450, Note_on_c, 5, 64, 110
7, 153479, Note_on_c, 5, 64, 0
7, 153480, Note_on_c, 5, 62, 110
7, 153509, Note_on_c, 5, 62, 0
7, 153510, Note_on_c, 5, 64, 110
7, 153539, Note_on_c, 5, 64, 0
7, 153540, Note_on_c, 5, 66, 110
7, 153569, Note_on_c, 5, 66, 0
7, 153570, Note_on_c, 5, 68, 110
7, 153599, Note_on_c, 5, 68, 0
7, 153600, Note_on_c, 5, 69, 110
7, 153629, Note_on_c, 5, 69, 0
7, 153630, Note_on_c, 5, 71, 110
7, 153659, Note_on_c, 5, 71, 0
7, 153660, Note_on_c, 5, 72, 110
7, 153689, Note_on_c, 5, 72, 0
7, 153690, Note_on_c, 5, 71, 110
7, 153719, Note_on_c, 5, 71, 0
7, 153720, Note_on_c, 5, 69, 110
7, 153749, Note_on_c, 5, 69, 0
7, 153750, Note_on_c, 5, 71, 110
7, 153779, Note_on_c, 5, 71, 0
7, 153780, Note_on_c, 5, 72, 110
7, 153809, Note_on_c, 5, 72, 0
7, 153810, Note_on_c, 5, 74, 110
7, 153839, Note_on_c, 5, 74, 0
7, 153840, Note_on_c, 5, 76, 110
7, 153869, Note_on_c, 5, 76, 0
7, 153870, Note_on_c, 5, 77, 110
7, 153899, Note_on_c, 5, 77, 0
7, 153900, Note_on_c, 5, 71, 110
7, 153929, Note_on_c, 5, 71, 0
7, 153930, Note_on_c, 5, 72, 110
7, 153959, Note_on_c, 5, 72, 0
7, 153960, Note_on_c, 5, 74, 110
7, 153989, Note_on_c, 5, 74, 0
7, 153990, Note_on_c, 5, 71, 110
7, 154019, Note_on_c, 5, 71, 0
7, 154020, Note_on_c, 5, 72, 110
7, 154079, Note_on_c, 5, 72, 0
7, 154080, Note_on_c, 5, 72, 110
7, 154199, Note_on_c, 5, 72, 0
7, 154200, Note_on_c, 5, 71, 110
7, 154229, Note_on_c, 5, 71, 0
7, 154230, Note_on_c, 5, 69, 110
7, 154259, Note_on_c, 5, 69, 0
7, 154260, Note_on_c, 5, 71, 110
7, 154319, Note_on_c, 5, 71, 0
7, 154320, Note_on_c, 5, 71, 110
7, 154439, Note_on_c, 5, 71, 0
7, 154440, Note_on_c, 5, 69, 110
7, 154469, Note_on_c, 5, 69, 0
7, 154470, Note_on_c, 5, 68, 110
7, 154499, Note_on_c, 5, 68, 0
7, 154500, Note_on_c, 5, 69, 110
7, 154559, Note_on_c, 5, 69, 0
7, 154560, Note_on_c, 5, 69, 110
7, 154679, Note_on_c, 5, 69, 0
7, 154680, Note_on_c, 5, 68, 110
7, 154709, Note_on_c, 5, 68, 0
7, 154710, Note_on_c, 5, 66, 110
7, 154739, Note_on_c, 5, 66, 0
7, 154740, Note_on_c, 5, 68, 110
7, 154759, Note_on_c, 5, 68, 0
7, 154760, Note_on_c, 5, 69, 110
7, 154779, Note_on_c, 5, 69, 0
7, 154780, Note_on_c, 5, 68, 110
7, 154799, Note_on_c, 5, 68, 0
7, 154800, Note_on_c, 5, 69, 110
7, 154814, Note_on_c, 5, 69, 0
7, 154815, Note_on_c, 5, 68, 110
7, 154829, Note_on_c, 5, 68, 0
7, 154830, Note_on_c, 5, 69, 110
7, 154860, Note_on_c, 5, 69, 0
7, 154860, Note_on_c, 5, 69, 110
7, 154979, Note_on_c, 5, 69, 0
7, 155040, Note_on_c, 5, 69, 110
7, 155099, Note_on_c, 5, 69, 0
7, 155100, Note_on_c, 5, 70, 110
7, 155159, Note_on_c, 5, 70, 0
7, 155160, Note_on_c, 5, 67, 110
7, 155219, Note_on_c, 5, 67, 0
7, 155220, Note_on_c, 5, 64, 110
7, 155279, Note_on_c, 5, 64, 0
7, 155280, Note_on_c, 5, 73, 110
7, 155339, Note_on_c, 5, 73, 0
7, 155340, Note_on_c, 5, 74, 110
7, 155399, Note_on_c, 5, 74, 0
7, 155400, Note_on_c, 5, 62, 110
7, 155429, Note_on_c, 5, 62, 0
7, 155430, Note_on_c, 5, 64, 110
7, 155459, Note_on_c, 5, 64, 0
7, 155460, Note_on_c, 5, 66, 110
7, 155489, Note_on_c, 5, 66, 0
7, 155490, Note_on_c, 5, 67, 110
7, 155519, Note_on_c, 5, 67, 0
7, 155520, Note_on_c, 5, 69, 110
7, 155549, Note_on_c, 5, 69, 0
7, 155550, Note_on_c, 5, 70, 110
7, 155579, Note_on_c, 5, 70, 0
7, 155580, Note_on_c, 5, 72, 110
7, 155609, Note_on_c, 5, 72, 0
7, 155610, Note_on_c, 5, 70, 110
7, 155639, Note_on_c, 5, 70, 0
7, 155640, Note_on_c, 5, 72, 110
7, 155669, Note_on_c, 5, 72, 0
7, 155670, Note_on_c, 5, 74, 110
7, 155699, Note_on_c, 5, 74, 0
7, 155700, Note_on_c, 5, 72, 110
7, 155729, Note_on_c, 5, 72, 0
7, 155730, Note_on_c, 5, 70, 110
7, 155759, Note_on_c, 5, 70, 0
7, 155760, Note_on_c, 5, 69, 110
7, 155789, Note_on_c, 5, 69, 0
7, 155790, Note_on_c, 5, 72, 110
7, 155819, Note_on_c, 5, 72, 0
7, 155820, Note_on_c, 5, 70, 110
7, 155849, Note_on_c, 5, 70, 0
7, 155850, Note_on_c, 5, 69, 110
7, 155879, Note_on_c, 5, 69, 0
7, 155880, Note_on_c, 5, 71, 110
7, 155909, Note_on_c, 5, 71, 0
7, 155910, Note_on_c, 5, 73, 110
7, 155939, Note_on_c, 5, 73, 0
7, 155940, Note_on_c, 5, 74, 110
7, 155969, Note_on_c, 5, 74, 0
7, 155970, Note_on_c, 5, 76, 110
7, 155999, Note_on_c, 5, 76, 0
7, 156000, Note_on_c, 5, 77, 110
7, 156029, Note_on_c, 5, 77, 0
7, 156030, Note_on_c, 5, 79, 110
7, 156059, Note_on_c, 5, 79, 0
7, 156060, Note_on_c, 5, 81, 110
7, 156089, Note_on_c, 5, 81, 0
7, 156090, Note_on_c, 5, 82, 110
7, 156119, Note_on_c, 5, 82, 0
7, 156120, Note_on_c, 5, 79, 110
7, 156149, Note_on_c, 5, 79, 0
7, 156150, Note_on_c, 5, 81, 110
7, 156179, Note_on_c, 5, 81, 0
7, 156180, Note_on_c, 5, 82, 110
7, 156209, Note_on_c, 5, 82, 0
7, 156210, Note_on_c, 5, 81, 110
7, 156239, Note_on_c, 5, 81, 0
7, 156240, Note_on_c, 5, 79, 110
7, 156269, Note_on_c, 5, 79, 0
7, 156270, Note_on_c, 5, 77, 110
7, 156299, Note_on_c, 5, 77, 0
7, 156300, Note_on_c, 5, 76, 110
7, 156329, Note_on_c, 5, 76, 0
7, 156330, Note_on_c, 5, 74, 110
7, 156359, Note_on_c, 5, 74, 0
7, 156360, Note_on_c, 5, 73, 110
7, 156389, Note_on_c, 5, 73, 0
7, 156390, Note_on_c, 5, 71, 110
7, 156419, Note_on_c, 5, 71, 0
7, 156420, Note_on_c, 5, 69, 110
7, 156449, Note_on_c, 5, 69, 0
7, 156450, Note_on_c, 5, 71, 110
7, 156479, Note_on_c, 5, 71, 0
7, 156480, Note_on_c, 5, 73, 110
7, 156509, Note_on_c, 5, 73, 0
7, 156510, Note_on_c, 5, 69, 110
7, 156539, Note_on_c, 5, 69, 0
7, 156540, Note_on_c, 5, 74, 110
7, 156599, Note_on_c, 5, 74, 0
7, 156600, Note_on_c, 5, 74, 110
7, 156719, Note_on_c, 5, 74, 0
7, 156720, Note_on_c, 5, 76, 110
7, 156749, Note_on_c, 5, 76, 0
7, 156750, Note_on_c, 5, 74, 110
7, 156779, Note_on_c, 5, 74, 0
7, 156780, Note_on_c, 5, 72, 110
7, 156839, Note_on_c, 5, 72, 0
7, 156840, Note_on_c, 5, 72, 110
7, 156959, Note_on_c, 5, 72, 0
7, 156960, Note_on_c, 5, 74, 110
7, 156989, Note_on_c, 5, 74, 0
7, 156990, Note_on_c, 5, 72, 110
7, 157019, Note_on_c, 5, 72, 0
7, 157020, Note_on_c, 5, 70, 110
7, 157079, Note_on_c, 5, 70, 0
7, 157080, Note_on_c, 5, 70, 110
7, 157199, Note_on_c, 5, 70, 0
7, 157200, Note_on_c, 5, 72, 110
7, 157229, Note_on_c, 5, 72, 0
7, 157230, Note_on_c, 5, 70, 110
7, 157259, Note_on_c, 5, 70, 0
7, 157260, Note_on_c, 5, 69, 110
7, 157319, Note_on_c, 5, 69, 0
7, 157320, Note_on_c, 5, 74, 110
7, 157349, Note_on_c, 5, 74, 0
7, 157350, Note_on_c, 5, 73, 110
7, 157379, Note_on_c, 5, 73, 0
7, 157380, Note_on_c, 5, 74, 110
7, 157559, Note_on_c, 5, 74, 0
7, 157560, Note_on_c, 5, 73, 110
7, 157589, Note_on_c, 5, 73, 0
7, 157590, Note_on_c, 5, 74, 110
7, 157619, Note_on_c, 5, 74, 0
7, 157620, Note_on_c, 5, 76, 110
7, 157679, Note_on_c, 5, 76, 0
7, 157680, Note_on_c, 5, 69, 110
7, 157799, Note_on_c, 5, 69, 0
7, 157800, Note_on_c, 5, 67, 110
7, 157829, Note_on_c, 5, 67, 0
7, 157830, Note_on_c, 5, 65, 110
7, 157859, Note_on_c, 5, 65, 0
7, 157860, Note_on_c, 5, 64, 110
7, 157879, Note_on_c, 5, 64, 0
7, 157880, Note_on_c, 5, 65, 110
7, 157899, Note_on_c, 5, 65, 0
7, 157900, Note_on_c, 5, 64, 110
7, 157919, Note_on_c, 5, 64, 0
7, 157920, Note_on_c, 5, 65, 110
7, 157934, Note_on_c, 5, 65, 0
7, 157935, Note_on_c, 5, 64, 110
7, 157949, Note_on_c, 5, 64, 0
7, 157950, Note_on_c, 5, 62, 110
7, 157979, Note_on_c, 5, 62, 0
7, 157980, Note_on_c, 5, 62, 110
7, 158039, Note_on_c, 5, 62, 0
7, 158100, Note_on_c, 5, 69, 110
7, 158159, Note_on_c, 5, 69, 0
7, 158220, Note_on_c, 5, 67, 110
7, 158279, Note_on_c, 5, 67, 0
7, 158340, Note_on_c, 5, 65, 110
7, 158399, Note_on_c, 5, 65, 0
7, 158460, Note_on_c, 5, 65, 110
7, 158519, Note_on_c, 5, 65, 0
7, 158580, Note_on_c, 5, 64, 110
7, 158639, Note_on_c, 5, 64, 0
7, 158700, Note_on_c, 5, 64, 110
7, 158759, Note_on_c, 5, 64, 0
7, 158820, Note_on_c, 5, 62, 110
7, 158879, Note_on_c, 5, 62, 0
7, 158940, Note_on_c, 5, 70, 110
7, 158999, Note_on_c, 5, 70, 0
7, 159060, Note_on_c, 5, 69, 110
7, 159119, Note_on_c, 5, 69, 0
7, 159180, Note_on_c, 5, 69, 110
7, 159209, Note_on_c, 5, 69, 0
7, 159210, Note_on_c, 5, 67, 110
7, 159239, Note_on_c, 5, 67, 0
7, 159240, Note_on_c, 5, 65, 110
7, 159269, Note_on_c, 5, 65, 0
7, 159270, Note_on_c, 5, 64, 110
7, 159299, Note_on_c, 5, 64, 0
7, 159300, Note_on_c, 5, 62, 110
7, 159329, Note_on_c, 5, 62, 0
7, 159330, Note_on_c, 5, 64, 110
7, 159359, Note_on_c, 5, 64, 0
7, 159360, Note_on_c, 5, 66, 110
7, 159389, Note_on_c, 5, 66, 0
7, 159390, Note_on_c, 5, 68, 110
7, 159419, Note_on_c, 5, 68, 0
7, 159420, Note_on_c, 5, 69, 110
7, 159449, Note_on_c, 5, 69, 0
7, 159450, Note_on_c, 5, 68, 110
7, 159479, Note_on_c, 5, 68, 0
7, 159480, Note_on_c, 5, 69, 110
7, 159509, Note_on_c, 5, 69, 0
7, 159510, Note_on_c, 5, 71, 110
7, 159539, Note_on_c, 5, 71, 0
7, 159540, Note_on_c, 5, 72, 110
7, 159569, Note_on_c, 5, 72, 0
7, 159570, Note_on_c, 5, 74, 110
7, 159599, Note_on_c, 5, 74, 0
7, 159600, Note_on_c, 5, 76, 110
7, 159629, Note_on_c, 5, 76, 0
7, 159630, Note_on_c, 5, 77, 110
7, 159659, Note_on_c, 5, 77, 0
7, 159660, Note_on_c, 5, 71, 110
7, 159689, Note_on_c, 5, 71, 0
7, 159690, Note_on_c, 5, 74, 110
7, 159719, Note_on_c, 5, 74, 0
7, 159720, Note_on_c, 5, 72, 110
7, 159749, Note_on_c, 5, 72, 0
7, 159750, Note_on_c, 5, 71, 110
7, 159779, Note_on_c, 5, 71, 0
7, 159780, Note_on_c, 5, 72, 110
7, 159809, Note_on_c, 5, 72, 0
7, 159810, Note_on_c, 5, 71, 110
7, 159839, Note_on_c, 5, 71, 0
7, 159840, Note_on_c, 5, 69, 110
7, 159869, Note_on_c, 5, 69, 0
7, 159870, Note_on_c, 5, 68, 110
7, 159899, Note_on_c, 5, 68, 0
7, 159900, Note_on_c, 5, 69, 110
7, 159959, Note_on_c, 5, 69, 0
7, 160320, Note_on_c, 5, 72, 110
7, 160439, Note_on_c, 5, 72, 0
7, 160440, Note_on_c, 5, 71, 110
7, 160469, Note_on_c, 5, 71, 0
7, 160470, Note_on_c, 5, 69, 110
7, 160499, Note_on_c, 5, 69, 0
7, 160500, Note_on_c, 5, 71, 110
7, 160559, Note_on_c, 5, 71, 0
7, 160560, Note_on_c, 5, 71, 110
7, 160649, Note_on_c, 5, 71, 0
7, 160650, Note_on_c, 5, 68, 110
7, 160679, Note_on_c, 5, 68, 0
7, 160680, Note_on_c, 5, 69, 110
7, 160739, Note_on_c, 5, 69, 0
7, 160770, Note_on_c, 5, 72, 110
7, 160799, Note_on_c, 5, 72, 0
7, 160800, Note_on_c, 5, 77, 110
7, 160829, Note_on_c, 5, 77, 0
7, 160830, Note_on_c, 5, 76, 110
7, 160859, Note_on_c, 5, 76, 0
7, 160860, Note_on_c, 5, 74, 110
7, 160889, Note_on_c, 5, 74, 0
7, 160890, Note_on_c, 5, 72, 110
7, 160919, Note_on_c, 5, 72, 0
7, 160920, Note_on_c, 5, 71, 110
7, 160949, Note_on_c, 5, 71, 0
7, 160950, Note_on_c, 5, 69, 110
7, 160979, Note_on_c, 5, 69, 0
7, 160980, Note_on_c, 5, 68, 110
7, 161039, Note_on_c, 5, 68, 0
7, 161040, Note_on_c, 5, 71, 110
7, 161099, Note_on_c, 5, 71, 0
7, 161100, Note_on_c, 5, 64, 110
7, 161159, Note_on_c, 5, 64, 0
7, 161160, Note_on_c, 5, 74, 110
7, 161219, Note_on_c, 5, 74, 0
7, 161220, Note_on_c, 5, 72, 110
7, 161279, Note_on_c, 5, 72, 0
7, 161280, Note_on_c, 5, 71, 110
7, 161339, Note_on_c, 5, 71, 0
7, 161340, Note_on_c, 5, 64, 110
7, 161399, Note_on_c, 5, 64, 0
7, 161400, Note_on_c, 5, 69, 110
7, 161519, Note_on_c, 5, 69, 0
7, 161520, Note_on_c, 5, 68, 110
7, 161579, Note_on_c, 5, 68, 0
7, 161580, Note_on_c, 5, 69, 110
7, 161639, Note_on_c, 5, 69, 0
7, 161640, Note_on_c, 5, 57, 110
7, 161729, Note_on_c, 5, 57, 0
7, 161730, Note_on_c, 5, 59, 110
7, 161759, Note_on_c, 5, 59, 0
7, 161760, Note_on_c, 5, 60, 110
7, 161789, Note_on_c, 5, 60, 0
7, 161790, Note_on_c, 5, 62, 110
7, 161819, Note_on_c, 5, 62, 0
7, 161820, Note_on_c, 5, 64, 110
7, 161879, Note_on_c, 5, 64, 0
7, 161880, Note_on_c, 5, 64, 110
7, 161939, Note_on_c, 5, 64, 0
7, 161940, Note_on_c, 5, 64, 110
7, 161999, Note_on_c, 5, 64, 0
7, 162000, Note_on_c, 5, 64, 110
7, 162059, Note_on_c, 5, 64, 0
7, 162060, Note_on_c, 5, 65, 110
7, 162089, Note_on_c, 5, 65, 0
7, 162090, Note_on_c, 5, 64, 110
7, 162119, Note_on_c, 5, 64, 0
7, 162120, Note_on_c, 5, 65, 110
7, 162149, Note_on_c, 5, 65, 0
7, 162150, Note_on_c, 5, 67, 110
7, 162179, Note_on_c, 5, 67, 0
7, 162180, Note_on_c, 5, 65, 110
7, 162209, Note_on_c, 5, 65, 0
7, 162210, Note_on_c, 5, 64, 110
7, 162239, Note_on_c, 5, 64, 0
7, 162240, Note_on_c, 5, 62, 110
7, 162269, Note_on_c, 5, 62, 0
7, 162270, Note_on_c, 5, 65, 110
7, 162299, Note_on_c, 5, 65, 0
7, 162300, Note_on_c, 5, 64, 110
7, 162329, Note_on_c, 5, 64, 0
7, 162330, Note_on_c, 5, 62, 110
7, 162359, Note_on_c, 5, 62, 0
7, 162360, Note_on_c, 5, 64, 110
7, 162389, Note_on_c, 5, 64, 0
7, 162390, Note_on_c, 5, 65, 110
7, 162419, Note_on_c, 5, 65, 0
7, 162420, Note_on_c, 5, 64, 110
7, 162449, Note_on_c, 5, 64, 0
7, 162450, Note_on_c, 5, 62, 110
7, 162479, Note_on_c, 5, 62, 0
7, 162480, Note_on_c, 5, 61, 110
7, 162509, Note_on_c, 5, 61, 0
7, 162510, Note_on_c, 5, 64, 110
7, 162539, Note_on_c, 5, 64, 0
7, 162540, Note_on_c, 5, 62, 110
7, 162569, Note_on_c, 5, 62, 0
7, 162570, Note_on_c, 5, 60, 110
7, 162599, Note_on_c, 5, 60, 0
7, 162600, Note_on_c, 5, 62, 110
7, 162629, Note_on_c, 5, 62, 0
7, 162630, Note_on_c, 5, 64, 110
7, 162659, Note_on_c, 5, 64, 0
7, 162660, Note_on_c, 5, 62, 110
7, 162689, Note_on_c, 5, 62, 0
7, 162690, Note_on_c, 5, 60, 110
7, 162719, Note_on_c, 5, 60, 0
7, 162720, Note_on_c, 5, 58, 110
7, 162749, Note_on_c, 5, 58, 0
7, 162750, Note_on_c, 5, 62, 110
7, 162779, Note_on_c, 5, 62, 0
7, 162780, Note_on_c, 5, 60, 110
7, 162809, Note_on_c, 5, 60, 0
7, 162810, Note_on_c, 5, 58, 110
7, 162839, Note_on_c, 5, 58, 0
7, 162840, Note_on_c, 5, 60, 110
7, 162869, Note_on_c, 5, 60, 0
7, 162870, Note_on_c, 5, 62, 110
7, 162899, Note_on_c, 5, 62, 0
7, 162900, Note_on_c, 5, 60, 110
7, 162929, Note_on_c, 5, 60, 0
7, 162930, Note_on_c, 5, 58, 110
7, 162959, Note_on_c, 5, 58, 0
7, 162960, Note_on_c, 5, 57, 110
7, 162989, Note_on_c, 5, 57, 0
7, 162990, Note_on_c, 5, 60, 110
7, 163019, Note_on_c, 5, 60, 0
7, 163020, Note_on_c, 5, 58, 110
7, 163049, Note_on_c, 5, 58, 0
7, 163050, Note_on_c, 5, 57, 110
7, 163079, Note_on_c, 5, 57, 0
7, 163080, Note_on_c, 5, 58, 110
7, 163109, Note_on_c, 5, 58, 0
7, 163110, Note_on_c, 5, 60, 110
7, 163139, Note_on_c, 5, 60, 0
7, 163140, Note_on_c, 5, 58, 110
7, 163169, Note_on_c, 5, 58, 0
7, 163170, Note_on_c, 5, 57, 110
7, 163199, Note_on_c, 5, 57, 0
7, 163200, Note_on_c, 5, 55, 110
7, 163229, Note_on_c, 5, 55, 0
7, 163230, Note_on_c, 5, 58, 110
7, 163259, Note_on_c, 5, 58, 0
7, 163260, Note_on_c, 5, 57, 110
7, 163319, Note_on_c, 5, 57, 0
7, 163740, Note_on_c, 5, 72, 110
7, 163799, Note_on_c, 5, 72, 0
7, 163800, Note_on_c, 5, 60, 110
7, 163889, Note_on_c, 5, 60, 0
7, 163890, Note_on_c, 5, 62, 110
7, 163919, Note_on_c, 5, 62, 0
7, 163920, Note_on_c, 5, 64, 110
7, 163949, Note_on_c, 5, 64, 0
7, 163950, Note_on_c, 5, 65, 110
7, 163979, Note_on_c, 5, 65, 0
7, 163980, Note_on_c, 5, 67, 110
7, 164039, Note_on_c, 5, 67, 0
7, 164040, Note_on_c, 5, 67, 110
7, 164099, Note_on_c, 5, 67, 0
7, 164100, Note_on_c, 5, 67, 110
7, 164159, Note_on_c, 5, 67, 0
7, 164160, Note_on_c, 5, 67, 110
7, 164219, Note_on_c, 5, 67, 0
7, 164220, Note_on_c, 5, 69, 110
7, 164249, Note_on_c, 5, 69, 0
7, 164250, Note_on_c, 5, 67, 110
7, 164279, Note_on_c, 5, 67, 0
7, 164280, Note_on_c, 5, 69, 110
7, 164309, Note_on_c, 5, 69, 0
7, 164310, Note_on_c, 5, 70, 110
7, 164339, Note_on_c, 5, 70, 0
7, 164340, Note_on_c, 5, 69, 110
7, 164369, Note_on_c, 5, 69, 0
7, 164370, Note_on_c, 5, 67, 110
7, 164399, Note_on_c, 5, 67, 0
7, 164400, Note_on_c, 5, 65, 110
7, 164429, Note_on_c, 5, 65, 0
7, 164430, Note_on_c, 5, 69, 110
7, 164459, Note_on_c, 5, 69, 0
7, 164460, Note_on_c, 5, 67, 110
7, 164489, Note_on_c, 5, 67, 0
7, 164490, Note_on_c, 5, 65, 110
7, 164519, Note_on_c, 5, 65, 0
7, 164520, Note_on_c, 5, 67, 110
7, 164549, Note_on_c, 5, 67, 0
7, 164550, Note_on_c, 5, 69, 110
7, 164579, Note_on_c, 5, 69, 0
7, 164580, Note_on_c, 5, 67, 110
7, 164609, Note_on_c, 5, 67, 0
7, 164610, Note_on_c, 5, 65, 110
7, 164639, Note_on_c, 5, 65, 0
7, 164640, Note_on_c, 5, 64, 110
7, 164669, Note_on_c, 5, 64, 0
7, 164670, Note_on_c, 5, 67, 110
7, 164699, Note_on_c, 5, 67, 0
7, 164700, Note_on_c, 5, 65, 110
7, 164729, Note_on_c, 5, 65, 0
7, 164730, Note_on_c, 5, 64, 110
7, 164759, Note_on_c, 5, 64, 0
7, 164760, Note_on_c, 5, 65, 110
7, 164789, Note_on_c, 5, 65, 0
7, 164790, Note_on_c, 5, 67, 110
7, 164819, Note_on_c, 5, 67, 0
7, 164820, Note_on_c, 5, 65, 110
7, 164849, Note_on_c, 5, 65, 0
7, 164850, Note_on_c, 5, 64, 110
7, 164879, Note_on_c, 5, 64, 0
7, 164880, Note_on_c, 5, 62, 110
7, 164909, Note_on_c, 5, 62, 0
7, 164910, Note_on_c, 5, 65, 110
7, 164939, Note_on_c, 5, 65, 0
7, 164940, Note_on_c, 5, 64, 110
7, 164969, Note_on_c, 5, 64, 0
7, 164970, Note_on_c, 5, 62, 110
7, 164999, Note_on_c, 5, 62, 0
7, 165000, Note_on_c, 5, 64, 110
7, 165029, Note_on_c, 5, 64, 0
7, 165030, Note_on_c, 5, 65, 110
7, 165059, Note_on_c, 5, 65, 0
7, 165060, Note_on_c, 5, 64, 110
7, 165089, Note_on_c, 5, 64, 0
7, 165090, Note_on_c, 5, 62, 110
7, 165119, Note_on_c, 5, 62, 0
7, 165120, Note_on_c, 5, 61, 110
7, 165149, Note_on_c, 5, 61, 0
7, 165150, Note_on_c, 5, 64, 110
7, 165179, Note_on_c, 5, 64, 0
7, 165180, Note_on_c, 5, 62, 110
7, 165239, Note_on_c, 5, 62, 0
7, 165240, Note_on_c, 5, 70, 110
7, 165299, Note_on_c, 5, 70, 0
7, 165300, Note_on_c, 5, 64, 110
7, 165359, Note_on_c, 5, 64, 0
7, 165360, Note_on_c, 5, 73, 110
7, 165419, Note_on_c, 5, 73, 0
7, 165420, Note_on_c, 5, 74, 110
7, 165479, Note_on_c, 5, 74, 0
7, 165480, Note_on_c, 5, 77, 110
7, 165509, Note_on_c, 5, 77, 0
7, 165510, Note_on_c, 5, 76, 110
7, 165539, Note_on_c, 5, 76, 0
7, 165540, Note_on_c, 5, 77, 110
7, 165599, Note_on_c, 5, 77, 0
7, 165600, Note_on_c, 5, 74, 110
7, 165659, Note_on_c, 5, 74, 0
7, 165660, Note_on_c, 5, 76, 110
7, 165719, Note_on_c, 5, 76, 0
7, 165720, Note_on_c, 5, 64, 110
7, 165779, Note_on_c, 5, 64, 0
7, 166050, Note_on_c, 5, 65, 110
7, 166079, Note_on_c, 5, 65, 0
7, 166080, Note_on_c, 5, 67, 110
7, 166109, Note_on_c, 5, 67, 0
7, 166110, Note_on_c, 5, 69, 110
7, 166139, Note_on_c, 5, 69, 0
7, 166140, Note_on_c, 5, 70, 110
7, 166169, Note_on_c, 5, 70, 0
7, 166170, Note_on_c, 5, 69, 110
7, 166199, Note_on_c, 5, 69, 0
7, 166200, Note_on_c, 5, 70, 110
7, 166229, Note_on_c, 5, 70, 0
7, 166230, Note_on_c, 5, 72, 110
7, 166259, Note_on_c, 5, 72, 0
7, 166260, Note_on_c, 5, 69, 110
7, 166319, Note_on_c, 5, 69, 0
7, 166380, Note_on_c, 5, 69, 110
7, 166439, Note_on_c, 5, 69, 0
7, 166440, Note_on_c, 5, 81, 110
7, 166529, Note_on_c, 5, 81, 0
7, 166530, Note_on_c, 5, 79, 110
7, 166559, Note_on_c, 5, 79, 0
7, 166560, Note_on_c, 5, 77, 110
7, 166589, Note_on_c, 5, 77, 0
7, 166590, Note_on_c, 5, 76, 110
7, 166619, Note_on_c, 5, 76, 0
7, 166620, Note_on_c, 5, 74, 110
7, 166679, Note_on_c, 5, 74, 0
7, 166680, Note_on_c, 5, 74, 110
7, 166739, Note_on_c, 5, 74, 0
7, 166740, Note_on_c, 5, 74, 110
7, 166799, Note_on_c, 5, 74, 0
7, 166800, Note_on_c, 5, 74, 110
7, 166859, Note_on_c, 5, 74, 0
7, 166860, Note_on_c, 5, 72, 110
7, 166889, Note_on_c, 5, 72, 0
7, 166890, Note_on_c, 5, 70, 110
7, 166919, Note_on_c, 5, 70, 0
7, 166920, Note_on_c, 5, 72, 110
7, 166949, Note_on_c, 5, 72, 0
7, 166950, Note_on_c, 5, 74, 110
7, 166979, Note_on_c, 5, 74, 0
7, 166980, Note_on_c, 5, 72, 110
7, 167009, Note_on_c, 5, 72, 0
7, 167010, Note_on_c, 5, 75, 110
7, 167039, Note_on_c, 5, 75, 0
7, 167040, Note_on_c, 5, 74, 110
7, 167069, Note_on_c, 5, 74, 0
7, 167070, Note_on_c, 5, 72, 110
7, 167099, Note_on_c, 5, 72, 0
7, 167100, Note_on_c, 5, 74, 110
7, 167159, Note_on_c, 5, 74, 0
7, 167160, Note_on_c, 5, 62, 110
7, 167249, Note_on_c, 5, 62, 0
7, 167250, Note_on_c, 5, 64, 110
7, 167279, Note_on_c, 5, 64, 0
7, 167280, Note_on_c, 5, 65, 110
7, 167309, Note_on_c, 5, 65, 0
7, 167310, Note_on_c, 5, 67, 110
7, 167339, Note_on_c, 5, 67, 0
7, 167340, Note_on_c, 5, 69, 110
7, 167399, Note_on_c, 5, 69, 0
7, 167400, Note_on_c, 5, 69, 110
7, 167459, Note_on_c, 5, 69, 0
7, 167460, Note_on_c, 5, 69, 110
7, 167519, Note_on_c, 5, 69, 0
7, 167520, Note_on_c, 5, 69, 110
7, 167579, Note_on_c, 5, 69, 0
7, 167580, Note_on_c, 5, 57, 110
7, 167639, Note_on_c, 5, 57, 0
7, 168060, Note_on_c, 5, 74, 110
7, 168119, Note_on_c, 5, 74, 0
7, 168120, Note_on_c, 5, 62, 110
7, 168209, Note_on_c, 5, 62, 0
7, 168210, Note_on_c, 5, 64, 110
7, 168239, Note_on_c, 5, 64, 0
7, 168240, Note_on_c, 5, 65, 110
7, 168269, Note_on_c, 5, 65, 0
7, 168270, Note_on_c, 5, 67, 110
7, 168299, Note_on_c, 5, 67, 0
7, 168300, Note_on_c, 5, 69, 110
7, 168359, Note_on_c, 5, 69, 0
7, 168360, Note_on_c, 5, 69, 110
7, 168419, Note_on_c, 5, 69, 0
7, 168420, Note_on_c, 5, 69, 110
7, 168479, Note_on_c, 5, 69, 0
7, 168480, Note_on_c, 5, 69, 110
7, 168539, Note_on_c, 5, 69, 0
7, 168540, Note_on_c, 5, 70, 110
7, 168569, Note_on_c, 5, 70, 0
7, 168570, Note_on_c, 5, 69, 110
7, 168599, Note_on_c, 5, 69, 0
7, 168600, Note_on_c, 5, 70, 110
7, 168629, Note_on_c, 5, 70, 0
7, 168630, Note_on_c, 5, 72, 110
7, 168659, Note_on_c, 5, 72, 0
7, 168660, Note_on_c, 5, 70, 110
7, 168689, Note_on_c, 5, 70, 0
7, 168690, Note_on_c, 5, 69, 110
7, 168719, Note_on_c, 5, 69, 0
7, 168720, Note_on_c, 5, 67, 110
7, 168749, Note_on_c, 5, 67, 0
7, 168750, Note_on_c, 5, 70, 110
7, 168779, Note_on_c, 5, 70, 0
7, 168780, Note_on_c, 5, 69, 110
7, 168809, Note_on_c, 5, 69, 0
7, 168810, Note_on_c, 5, 67, 110
7, 168839, Note_on_c, 5, 67, 0
7, 168840, Note_on_c, 5, 69, 110
7, 168869, Note_on_c, 5, 69, 0
7, 168870, Note_on_c, 5, 70, 110
7, 168899, Note_on_c, 5, 70, 0
7, 168900, Note_on_c, 5, 69, 110
7, 168929, Note_on_c, 5, 69, 0
7, 168930, Note_on_c, 5, 67, 110
7, 168959, Note_on_c, 5, 67, 0
7, 168960, Note_on_c, 5, 65, 110
7, 168989, Note_on_c, 5, 65, 0
7, 168990, Note_on_c, 5, 69, 110
7, 169019, Note_on_c, 5, 69, 0
7, 169020, Note_on_c, 5, 67, 110
7, 169049, Note_on_c, 5, 67, 0
7, 169050, Note_on_c, 5, 65, 110
7, 169079, Note_on_c, 5, 65, 0
7, 169080, Note_on_c, 5, 67, 110
7, 169109, Note_on_c, 5, 67, 0
7, 169110, Note_on_c, 5, 69, 110
7, 169139, Note_on_c, 5, 69, 0
7, 169140, Note_on_c, 5, 67, 110
7, 169169, Note_on_c, 5, 67, 0
7, 169170, Note_on_c, 5, 65, 110
7, 169199, Note_on_c, 5, 65, 0
7, 169200, Note_on_c, 5, 64, 110
7, 169229, Note_on_c, 5, 64, 0
7, 169230, Note_on_c, 5, 67, 110
7, 169259, Note_on_c, 5, 67, 0
7, 169260, Note_on_c, 5, 65, 110
7, 169289, Note_on_c, 5, 65, 0
7, 169290, Note_on_c, 5, 64, 110
7, 169319, Note_on_c, 5, 64, 0
7, 169320, Note_on_c, 5, 62, 110
7, 169349, Note_on_c, 5, 62, 0
7, 169350, Note_on_c, 5, 64, 110
7, 169379, Note_on_c, 5, 64, 0
7, 169380, Note_on_c, 5, 66, 110
7, 169409, Note_on_c, 5, 66, 0
7, 169410, Note_on_c, 5, 68, 110
7, 169439, Note_on_c, 5, 68, 0
7, 169440, Note_on_c, 5, 69, 110
7, 169469, Note_on_c, 5, 69, 0
7, 169470, Note_on_c, 5, 71, 110
7, 169499, Note_on_c, 5, 71, 0
7, 169500, Note_on_c, 5, 72, 110
7, 169529, Note_on_c, 5, 72, 0
7, 169530, Note_on_c, 5, 71, 110
7, 169559, Note_on_c, 5, 71, 0
7, 169560, Note_on_c, 5, 69, 110
7, 169589, Note_on_c, 5, 69, 0
7, 169590, Note_on_c, 5, 71, 110
7, 169619, Note_on_c, 5, 71, 0
7, 169620, Note_on_c, 5, 72, 110
7, 169649, Note_on_c, 5, 72, 0
7, 169650, Note_on_c, 5, 74, 110
7, 169679, Note_on_c, 5, 74, 0
7, 169680, Note_on_c, 5, 76, 110
7, 169709, Note_on_c, 5, 76, 0
7, 169710, Note_on_c, 5, 77, 110
7, 169739, Note_on_c, 5, 77, 0
7, 169740, Note_on_c, 5, 71, 110
7, 169769, Note_on_c, 5, 71, 0
7, 169770, Note_on_c, 5, 72, 110
7, 169799, Note_on_c, 5, 72, 0
7, 169800, Note_on_c, 5, 74, 110
7, 169829, Note_on_c, 5, 74, 0
7, 169830, Note_on_c, 5, 71, 110
7, 169859, Note_on_c, 5, 71, 0
7, 169860, Note_on_c, 5, 72, 110
7, 169919, Note_on_c, 5, 72, 0
7, 169920, Note_on_c, 5, 72, 110
7, 170039, Note_on_c, 5, 72, 0
7, 170040, Note_on_c, 5, 71, 110
7, 170069, Note_on_c, 5, 71, 0
7, 170070, Note_on_c, 5, 69, 110
7, 170099, Note_on_c, 5, 69, 0
7, 170100, Note_on_c, 5, 71, 110
7, 170159, Note_on_c, 5, 71, 0
7, 170160, Note_on_c, 5, 71, 110
7, 170279, Note_on_c, 5, 71, 0
7, 170280, Note_on_c, 5, 69, 110
7, 170309, Note_on_c, 5, 69, 0
7, 170310, Note_on_c, 5, 68, 110
7, 170339, Note_on_c, 5, 68, 0
7, 170340, Note_on_c, 5, 69, 110
7, 170399, Note_on_c, 5, 69, 0
7, 170400, Note_on_c, 5, 69, 110
7, 170519, Note_on_c, 5, 69, 0
7, 170520, Note_on_c, 5, 68, 110
7, 170549, Note_on_c, 5, 68, 0
7, 170550, Note_on_c, 5, 66, 110
7, 170579, Note_on_c, 5, 66, 0
7, 170580, Note_on_c, 5, 68, 110
7, 170599, Note_on_c, 5, 68, 0
7, 170600, Note_on_c, 5, 69, 110
7, 170619, Note_on_c, 5, 69, 0
7, 170620, Note_on_c, 5, 68, 110
7, 170639, Note_on_c, 5, 68, 0
7, 170640, Note_on_c, 5, 69, 110
7, 170654, Note_on_c, 5, 69, 0
7, 170655, Note_on_c, 5, 68, 110
7, 170669, Note_on_c, 5, 68, 0
7, 170670, Note_on_c, 5, 69, 110
7, 170684, Note_on_c, 5, 69, 0
7, 170685, Note_on_c, 5, 68, 110
7, 170699, Note_on_c, 5, 68, 0
7, 170700, Note_on_c, 5, 69, 110
7, 170759, Note_on_c, 5, 69, 0
7, 170760, Note_on_c, 5, 57, 110
7, 170819, Note_on_c, 5, 57, 0
7, 170880, Note_on_c, 5, 69, 110
7, 170939, Note_on_c, 5, 69, 0
7, 170940, Note_on_c, 5, 70, 110
7, 170999, Note_on_c, 5, 70, 0
7, 171000, Note_on_c, 5, 67, 110
7, 171059, Note_on_c, 5, 67, 0
7, 171060, Note_on_c, 5, 64, 110
7, 171119, Note_on_c, 5, 64, 0
7, 171120, Note_on_c, 5, 73, 110
7, 171179, Note_on_c, 5, 73, 0
7, 171180, Note_on_c, 5, 74, 110
7, 171239, Note_on_c, 5, 74, 0
7, 171240, Note_on_c, 5, 62, 110
7, 171269, Note_on_c, 5, 62, 0
7, 171270, Note_on_c, 5, 64, 110
7, 171299, Note_on_c, 5, 64, 0
7, 171300, Note_on_c, 5, 66, 110
7, 171329, Note_on_c, 5, 66, 0
7, 171330, Note_on_c, 5, 67, 110
7, 171359, Note_on_c, 5, 67, 0
7, 171360, Note_on_c, 5, 69, 110
7, 171389, Note_on_c, 5, 69, 0
7, 171390, Note_on_c, 5, 70, 110
7, 171419, Note_on_c, 5, 70, 0
7, 171420, Note_on_c, 5, 72, 110
7, 171449, Note_on_c, 5, 72, 0
7, 171450, Note_on_c, 5, 70, 110
7, 171479, Note_on_c, 5, 70, 0
7, 171480, Note_on_c, 5, 72, 110
7, 171509, Note_on_c, 5, 72, 0
7, 171510, Note_on_c, 5, 74, 110
7, 171539, Note_on_c, 5, 74, 0
7, 171540, Note_on_c, 5, 72, 110
7, 171569, Note_on_c, 5, 72, 0
7, 171570, Note_on_c, 5, 70, 110
7, 171599, Note_on_c, 5, 70, 0
7, 171600, Note_on_c, 5, 69, 110
7, 171629, Note_on_c, 5, 69, 0
7, 171630, Note_on_c, 5, 72, 110
7, 171659, Note_on_c, 5, 72, 0
7, 171660, Note_on_c, 5, 70, 110
7, 171689, Note_on_c, 5, 70, 0
7, 171690, Note_on_c, 5, 69, 110
7, 171719, Note_on_c, 5, 69, 0
7, 171720, Note_on_c, 5, 71, 110
7, 171749, Note_on_c, 5, 71, 0
7, 171750, Note_on_c, 5, 73, 110
7, 171779, Note_on_c, 5, 73, 0
7, 171780, Note_on_c, 5, 74, 110
7, 171809, Note_on_c, 5, 74, 0
7, 171810, Note_on_c, 5, 76, 110
7, 171839, Note_on_c, 5, 76, 0
7, 171840, Note_on_c, 5, 77, 110
7, 171869, Note_on_c, 5, 77, 0
7, 171870, Note_on_c, 5, 79, 110
7, 171899, Note_on_c, 5, 79, 0
7, 171900, Note_on_c, 5, 81, 110
7, 171929, Note_on_c, 5, 81, 0
7, 171930, Note_on_c, 5, 82, 110
7, 171959, Note_on_c, 5, 82, 0
7, 171960, Note_on_c, 5, 79, 110
7, 171989, Note_on_c, 5, 79, 0
7, 171990, Note_on_c, 5, 81, 110
7, 172019, Note_on_c, 5, 81, 0
7, 172020, Note_on_c, 5, 82, 110
7, 172049, Note_on_c, 5, 82, 0
7, 172050, Note_on_c, 5, 81, 110
7, 172079, Note_on_c, 5, 81, 0
7, 172080, Note_on_c, 5, 79, 110
7, 172109, Note_on_c, 5, 79, 0
7, 172110, Note_on_c, 5, 77, 110
7, 172139, Note_on_c, 5, 77, 0
7, 172140, Note_on_c, 5, 76, 110
7, 172169, Note_on_c, 5, 76, 0
7, 172170, Note_on_c, 5, 74, 110
7, 172199, Note_on_c, 5, 74, 0
7, 172200, Note_on_c, 5, 73, 110
7, 172229, Note_on_c, 5, 73, 0
7, 172230, Note_on_c, 5, 71, 110
7, 172259, Note_on_c, 5, 71, 0
7, 172260, Note_on_c, 5, 69, 110
7, 172289, Note_on_c, 5, 69, 0
7, 172290, Note_on_c, 5, 71, 110
7, 172319, Note_on_c, 5, 71, 0
7, 172320, Note_on_c, 5, 73, 110
7, 172349, Note_on_c, 5, 73, 0
7, 172350, Note_on_c, 5, 69, 110
7, 172379, Note_on_c, 5, 69, 0
7, 172380, Note_on_c, 5, 74, 110
7, 172439, Note_on_c, 5, 74, 0
7, 172440, Note_on_c, 5, 74, 110
7, 172559, Note_on_c, 5, 74, 0
7, 172560, Note_on_c, 5, 76, 110
7, 172589, Note_on_c, 5, 76, 0
7, 172590, Note_on_c, 5, 74, 110
7, 172619, Note_on_c, 5, 74, 0
7, 172620, Note_on_c, 5, 72, 110
7, 172679, Note_on_c, 5, 72, 0
7, 172680, Note_on_c, 5, 72, 110
7, 172799, Note_on_c, 5, 72, 0
7, 172800, Note_on_c, 5, 74, 110
7, 172829, Note_on_c, 5, 74, 0
7, 172830, Note_on_c, 5, 72, 110
7, 172859, Note_on_c, 5, 72, 0
7, 172860, Note_on_c, 5, 70, 110
7, 172919, Note_on_c, 5, 70, 0
7, 172920, Note_on_c, 5, 70, 110
7, 173039, Note_on_c, 5, 70, 0
7, 173040, Note_on_c, 5, 72, 110
7, 173069, Note_on_c, 5, 72, 0
7, 173070, Note_on_c, 5, 70, 110
7, 173099, Note_on_c, 5, 70, 0
7, 173100, Note_on_c, 5, 69, 110
7, 173159, Note_on_c, 5, 69, 0
7, 173160, Note_on_c, 5, 74, 110
7, 173189, Note_on_c, 5, 74, 0
7, 173190, Note_on_c, 5, 76, 110
7, 173219, Note_on_c, 5, 76, 0
7, 173220, Note_on_c, 5, 77, 110
7, 173279, Note_on_c, 5, 77, 0
7, 173280, Note_on_c, 5, 69, 110
7, 173339, Note_on_c, 5, 69, 0
7, 173340, Note_on_c, 5, 67, 110
7, 173519, Note_on_c, 5, 67, 0
7, 173520, Note_on_c, 5, 65, 110
7, 173549, Note_on_c, 5, 65, 0
7, 173550, Note_on_c, 5, 64, 110
7, 173579, Note_on_c, 5, 64, 0
7, 173580, Note_on_c, 5, 65, 110
7, 173639, Note_on_c, 5, 65, 0
7, 173640, Note_on_c, 5, 64, 110
7, 173669, Note_on_c, 5, 64, 0
7, 173670, Note_on_c, 5, 62, 110
7, 173699, Note_on_c, 5, 62, 0
7, 173700, Note_on_c, 5, 61, 110
7, 173719, Note_on_c, 5, 61, 0
7, 173720, Note_on_c, 5, 62, 110
7, 173739, Note_on_c, 5, 62, 0
7, 173740, Note_on_c, 5, 61, 110
7, 173759, Note_on_c, 5, 61, 0
7, 173760, Note_on_c, 5, 62, 110
7, 173774, Note_on_c, 5, 62, 0
7, 173775, Note_on_c, 5, 61, 110
7, 173789, Note_on_c, 5, 61, 0
7, 173790, Note_on_c, 5, 62, 110
7, 173819, Note_on_c, 5, 62, 0
7, 173820, Note_on_c, 5, 62, 110
7, 173939, Note_on_c, 5, 62, 0
7, 174480, Note_on_c, 5, 65, 90
7, 174509, Note_on_c, 5, 65, 0
7, 174510, Note_on_c, 5, 64, 90
7, 174539, Note_on_c, 5, 64, 0
7, 174540, Note_on_c, 5, 65, 90
7, 174599, Note_on_c, 5, 65, 0
7, 174600, Note_on_c, 5, 65, 90
7, 174659, Note_on_c, 5, 65, 0
7, 174660, Note_on_c, 5, 65, 90
7, 174719, Note_on_c, 5, 65, 0
7, 174720, Note_on_c, 5, 60, 90
7, 174779, Note_on_c, 5, 60, 0
7, 174840, Note_on_c, 5, 60, 90
7, 174869, Note_on_c, 5, 60, 0
7, 174870, Note_on_c, 5, 58, 90
7, 174899, Note_on_c, 5, 58, 0
7, 174900, Note_on_c, 5, 60, 90
7, 174959, Note_on_c, 5, 60, 0
7, 174960, Note_on_c, 5, 60, 90
7, 175019, Note_on_c, 5, 60, 0
7, 175020, Note_on_c, 5, 60, 90
7, 175079, Note_on_c, 5, 60, 0
7, 175080, Note_on_c, 5, 57, 90
7, 175139, Note_on_c, 5, 57, 0
7, 175320, Note_on_c, 5, 77, 90
7, 175349, Note_on_c, 5, 77, 0
7, 175350, Note_on_c, 5, 76, 90
7, 175379, Note_on_c, 5, 76, 0
7, 175380, Note_on_c, 5, 77, 90
7, 175499, Note_on_c, 5, 77, 0
7, 175680, Note_on_c, 5, 72, 90
7, 175739, Note_on_c, 5, 72, 0
7, 175740, Note_on_c, 5, 72, 90
7, 175799, Note_on_c, 5, 72, 0
7, 175800, Note_on_c, 5, 69, 90
7, 175859, Note_on_c, 5, 69, 0
7, 175860, Note_on_c, 5, 65, 90
7, 176219, Note_on_c, 5, 65, 0
7, 176220, Note_on_c, 5, 64, 90
7, 176339, Note_on_c, 5, 64, 0
7, 176340, Note_on_c, 5, 65, 90
7, 176459, Note_on_c, 5, 65, 0
7, 176460, Note_on_c, 5, 62, 90
7, 176579, Note_on_c, 5, 62, 0
7, 176580, Note_on_c, 5, 67, 90
7, 176699, Note_on_c, 5, 67, 0
7, 176700, Note_on_c, 5, 65, 90
7, 176819, Note_on_c, 5, 65, 0
7, 176820, Note_on_c, 5, 65, 90
7, 177179, Note_on_c, 5, 65, 0
7, 177180, Note_on_c, 5, 65, 90
7, 177299, Note_on_c, 5, 65, 0
7, 177960, Note_on_c, 5, 72, 90
7, 177989, Note_on_c, 5, 72, 0
7, 177990, Note_on_c, 5, 70, 90
7, 178019, Note_on_c, 5, 70, 0
7, 178020, Note_on_c, 5, 69, 90
7, 178079, Note_on_c, 5, 69, 0
7, 178080, Note_on_c, 5, 72, 90
7, 178139, Note_on_c, 5, 72, 0
7, 178140, Note_on_c, 5, 77, 90
7, 178319, Note_on_c, 5, 77, 0
7, 178320, Note_on_c, 5, 76, 90
7, 178349, Note_on_c, 5, 76, 0
7, 178350, Note_on_c, 5, 74, 90
7, 178379, Note_on_c, 5, 74, 0
7, 178380, Note_on_c, 5, 73, 90
7, 178559, Note_on_c, 5, 73, 0
7, 178560, Note_on_c, 5, 74, 90
7, 178619, Note_on_c, 5, 74, 0
7, 178620, Note_on_c, 5, 74, 90
7, 178679, Note_on_c, 5, 74, 0
7, 178680, Note_on_c, 5, 69, 90
7, 178739, Note_on_c, 5, 69, 0
7, 178740, Note_on_c, 5, 67, 90
7, 179099, Note_on_c, 5, 67, 0
7, 179100, Note_on_c, 5, 65, 90
7, 179400, Note_on_c, 5, 65, 0
7, 179400, Note_on_c, 5, 67, 90
7, 179459, Note_on_c, 5, 67, 0
7, 179460, Note_on_c, 5, 67, 90
7, 179519, Note_on_c, 5, 67, 0
7, 179520, Note_on_c, 5, 60, 90
7, 179579, Note_on_c, 5, 60, 0
7, 179580, Note_on_c, 5, 65, 90
7, 179699, Note_on_c, 5, 65, 0
7, 179700, Note_on_c, 5, 64, 90
7, 179819, Note_on_c, 5, 64, 0
7, 179880, Note_on_c, 5, 60, 90
7, 179909, Note_on_c, 5, 60, 0
7, 179910, Note_on_c, 5, 60, 90
7, 179939, Note_on_c, 5, 60, 0
7, 179940, Note_on_c, 5, 60, 90
7, 179999, Note_on_c, 5, 60, 0
7, 180000, Note_on_c, 5, 60, 90
7, 180059, Note_on_c, 5, 60, 0
7, 180060, Note_on_c, 5, 60, 90
7, 180119, Note_on_c, 5, 60, 0
7, 180120, Note_on_c, 5, 65, 90
7, 180179, Note_on_c, 5, 65, 0
7, 180240, Note_on_c, 5, 65, 90
7, 180269, Note_on_c, 5, 65, 0
7, 180270, Note_on_c, 5, 64, 90
7, 180299, Note_on_c, 5, 64, 0
7, 180300, Note_on_c, 5, 65, 90
7, 180359, Note_on_c, 5, 65, 0
7, 180360, Note_on_c, 5, 65, 90
7, 180419, Note_on_c, 5, 65, 0
7, 180420, Note_on_c, 5, 65, 90
7, 180479, Note_on_c, 5, 65, 0
7, 180480, Note_on_c, 5, 60, 90
7, 180539, Note_on_c, 5, 60, 0
7, 180600, Note_on_c, 5, 60, 90
7, 180629, Note_on_c, 5, 60, 0
7, 180630, Note_on_c, 5, 58, 90
7, 180659, Note_on_c, 5, 58, 0
7, 180660, Note_on_c, 5, 60, 90
7, 180719, Note_on_c, 5, 60, 0
7, 180720, Note_on_c, 5, 60, 90
7, 180779, Note_on_c, 5, 60, 0
7, 180780, Note_on_c, 5, 60, 90
7, 180839, Note_on_c, 5, 60, 0
7, 180840, Note_on_c, 5, 57, 90
7, 180899, Note_on_c, 5, 57, 0
7, 181080, Note_on_c, 5, 77, 90
7, 181109, Note_on_c, 5, 77, 0
7, 181110, Note_on_c, 5, 76, 90
7, 181139, Note_on_c, 5, 76, 0
7, 181140, Note_on_c, 5, 77, 90
7, 181259, Note_on_c, 5, 77, 0
7, 181440, Note_on_c, 5, 72, 90
7, 181499, Note_on_c, 5, 72, 0
7, 181500, Note_on_c, 5, 72, 90
7, 181559, Note_on_c, 5, 72, 0
7, 181560, Note_on_c, 5, 69, 90
7, 181619, Note_on_c, 5, 69, 0
7, 181620, Note_on_c, 5, 65, 90
7, 181979, Note_on_c, 5, 65, 0
7, 181980, Note_on_c, 5, 64, 90
7, 182099, Note_on_c, 5, 64, 0
7, 182100, Note_on_c, 5, 65, 90
7, 182219, Note_on_c, 5, 65, 0
7, 182220, Note_on_c, 5, 62, 90
7, 182339, Note_on_c, 5, 62, 0
7, 182340, Note_on_c, 5, 67, 90
7, 182459, Note_on_c, 5, 67, 0
7, 182460, Note_on_c, 5, 65, 90
7, 182579, Note_on_c, 5, 65, 0
7, 182580, Note_on_c, 5, 65, 90
7, 182939, Note_on_c, 5, 65, 0
7, 182940, Note_on_c, 5, 65, 90
7, 183059, Note_on_c, 5, 65, 0
7, 183720, Note_on_c, 5, 72, 90
7, 183749, Note_on_c, 5, 72, 0
7, 183750, Note_on_c, 5, 70, 90
7, 183779, Note_on_c, 5, 70, 0
7, 183780, Note_on_c, 5, 69, 90
7, 183839, Note_on_c, 5, 69, 0
7, 183840, Note_on_c, 5, 72, 90
7, 183899, Note_on_c, 5, 72, 0
7, 183900, Note_on_c, 5, 77, 90
7, 184079, Note_on_c, 5, 77, 0
7, 184080, Note_on_c, 5, 76, 90
7, 184109, Note_on_c, 5, 76, 0
7, 184110, Note_on_c, 5, 74, 90
7, 184139, Note_on_c, 5, 74, 0
7, 184140, Note_on_c, 5, 73, 90
7, 184319, Note_on_c, 5, 73, 0
7, 184320, Note_on_c, 5, 74, 90
7, 184379, Note_on_c, 5, 74, 0
7, 184380, Note_on_c, 5, 74, 90
7, 184439, Note_on_c, 5, 74, 0
7, 184440, Note_on_c, 5, 69, 90
7, 184499, Note_on_c, 5, 69, 0
7, 184500, Note_on_c, 5, 67, 90
7, 184859, Note_on_c, 5, 67, 0
7, 184860, Note_on_c, 5, 65, 90
7, 185160, Note_on_c, 5, 65, 0
7, 185160, Note_on_c, 5, 67, 90
7, 185219, Note_on_c, 5, 67, 0
7, 185220, Note_on_c, 5, 67, 90
7, 185279, Note_on_c, 5, 67, 0
7, 185280, Note_on_c, 5, 60, 90
7, 185339, Note_on_c, 5, 60, 0
7, 185340, Note_on_c, 5, 65, 90
7, 185459, Note_on_c, 5, 65, 0
7, 185460, Note_on_c, 5, 64, 90
7, 185579, Note_on_c, 5, 64, 0
7, 185640, Note_on_c, 5, 60, 90
7, 185669, Note_on_c, 5, 60, 0
7, 185670, Note_on_c, 5, 60, 90
7, 185699, Note_on_c, 5, 60, 0
7, 185700, Note_on_c, 5, 60, 90
7, 185759, Note_on_c, 5, 60, 0
7, 185760, Note_on_c, 5, 60, 90
7, 185819, Note_on_c, 5, 60, 0
7, 185820, Note_on_c, 5, 60, 90
7, 185879, Note_on_c, 5, 60, 0
7, 185880, Note_on_c, 5, 65, 90
7, 185939, Note_on_c, 5, 65, 0
7, 186000, Note_on_c, 5, 62, 90
7, 186029, Note_on_c, 5, 62, 0
7, 186030, Note_on_c, 5, 62, 90
7, 186059, Note_on_c, 5, 62, 0
7, 186060, Note_on_c, 5, 62, 90
7, 186119, Note_on_c, 5, 62, 0
7, 186120, Note_on_c, 5, 62, 90
7, 186179, Note_on_c, 5, 62, 0
7, 186180, Note_on_c, 5, 62, 90
7, 186239, Note_on_c, 5, 62, 0
7, 186240, Note_on_c, 5, 67, 90
7, 186299, Note_on_c, 5, 67, 0
7, 186360, Note_on_c, 5, 67, 90
7, 186389, Note_on_c, 5, 67, 0
7, 186390, Note_on_c, 5, 65, 90
7, 186419, Note_on_c, 5, 65, 0
7, 186420, Note_on_c, 5, 67, 90
7, 186479, Note_on_c, 5, 67, 0
7, 186480, Note_on_c, 5, 67, 90
7, 186539, Note_on_c, 5, 67, 0
7, 186540, Note_on_c, 5, 67, 90
7, 186599, Note_on_c, 5, 67, 0
7, 186600, Note_on_c, 5, 76, 90
7, 186629, Note_on_c, 5, 76, 0
7, 186630, Note_on_c, 5, 74, 90
7, 186659, Note_on_c, 5, 74, 0
7, 186660, Note_on_c, 5, 76, 90
7, 186719, Note_on_c, 5, 76, 0
7, 186720, Note_on_c, 5, 77, 90
7, 186779, Note_on_c, 5, 77, 0
7, 186780, Note_on_c, 5, 77, 90
7, 186839, Note_on_c, 5, 77, 0
7, 186840, Note_on_c, 5, 74, 90
7, 186899, Note_on_c, 5, 74, 0
7, 186900, Note_on_c, 5, 76, 90
7, 186959, Note_on_c, 5, 76, 0
7, 186960, Note_on_c, 5, 72, 90
7, 187019, Note_on_c, 5, 72, 0
7, 187020, Note_on_c, 5, 72, 90
7, 187079, Note_on_c, 5, 72, 0
7, 187080, Note_on_c, 5, 74, 90
7, 187139, Note_on_c, 5, 74, 0
7, 187140, Note_on_c, 5, 74, 90
7, 187199, Note_on_c, 5, 74, 0
7, 187200, Note_on_c, 5, 71, 90
7, 187259, Note_on_c, 5, 71, 0
7, 187260, Note_on_c, 5, 72, 90
7, 187499, Note_on_c, 5, 72, 0
7, 187500, Note_on_c, 5, 67, 90
7, 187739, Note_on_c, 5, 67, 0
7, 187740, Note_on_c, 5, 65, 90
7, 187979, Note_on_c, 5, 65, 0
7, 187980, Note_on_c, 5, 67, 90
7, 188100, Note_on_c, 5, 67, 0
7, 188100, Note_on_c, 5, 69, 90
7, 188220, Note_on_c, 5, 69, 0
7, 188220, Note_on_c, 5, 70, 90
7, 188279, Note_on_c, 5, 70, 0
7, 188280, Note_on_c, 5, 69, 90
7, 188339, Note_on_c, 5, 69, 0
7, 188340, Note_on_c, 5, 67, 90
7, 188399, Note_on_c, 5, 67, 0
7, 188400, Note_on_c, 5, 65, 90
7, 188459, Note_on_c, 5, 65, 0
7, 188460, Note_on_c, 5, 67, 90
7, 188639, Note_on_c, 5, 67, 0
7, 188640, Note_on_c, 5, 64, 90
7, 188699, Note_on_c, 5, 64, 0
7, 188700, Note_on_c, 5, 65, 90
7, 188819, Note_on_c, 5, 65, 0
7, 188880, Note_on_c, 5, 74, 90
7, 188909, Note_on_c, 5, 74, 0
7, 188910, Note_on_c, 5, 73, 90
7, 188939, Note_on_c, 5, 73, 0
7, 188940, Note_on_c, 5, 74, 90
7, 188999, Note_on_c, 5, 74, 0
7, 189000, Note_on_c, 5, 74, 90
7, 189059, Note_on_c, 5, 74, 0
7, 189060, Note_on_c, 5, 74, 90
7, 189119, Note_on_c, 5, 74, 0
7, 189120, Note_on_c, 5, 65, 90
7, 189149, Note_on_c, 5, 65, 0
7, 189150, Note_on_c, 5, 64, 90
7, 189179, Note_on_c, 5, 64, 0
7, 189180, Note_on_c, 5, 65, 90
7, 189239, Note_on_c, 5, 65, 0
7, 189240, Note_on_c, 5, 67, 90
7, 189299, Note_on_c, 5, 67, 0
7, 189300, Note_on_c, 5, 67, 90
7, 189359, Note_on_c, 5, 67, 0
7, 189360, Note_on_c, 5, 64, 90
7, 189419, Note_on_c, 5, 64, 0
7, 189420, Note_on_c, 5, 65, 90
7, 189539, Note_on_c, 5, 65, 0
7, 189720, Note_on_c, 5, 75, 90
7, 189749, Note_on_c, 5, 75, 0
7, 189750, Note_on_c, 5, 74, 90
7, 189779, Note_on_c, 5, 74, 0
7, 189780, Note_on_c, 5, 75, 90
7, 189899, Note_on_c, 5, 75, 0
7, 190080, Note_on_c, 5, 74, 90
7, 190109, Note_on_c, 5, 74, 0
7, 190110, Note_on_c, 5, 72, 90
7, 190139, Note_on_c, 5, 72, 0
7, 190140, Note_on_c, 5, 70, 90
7, 190379, Note_on_c, 5, 70, 0
7, 190380, Note_on_c, 5, 69, 90
7, 190499, Note_on_c, 5, 69, 0
7, 190500, Note_on_c, 5, 67, 90
7, 190559, Note_on_c, 5, 67, 0
7, 190560, Note_on_c, 5, 65, 90
7, 190619, Note_on_c, 5, 65, 0
7, 190620, Note_on_c, 5, 67, 90
7, 190739, Note_on_c, 5, 67, 0
7, 190740, Note_on_c, 5, 64, 90
7, 190859, Note_on_c, 5, 64, 0
7, 190860, Note_on_c, 5, 60, 90
7, 190979, Note_on_c, 5, 60, 0
7, 190980, Note_on_c, 5, 58, 90
7, 191099, Note_on_c, 5, 58, 0
7, 191100, Note_on_c, 5, 65, 90
7, 191339, Note_on_c, 5, 65, 0
7, 191340, Note_on_c, 5, 64, 90
7, 191399, Note_on_c, 5, 64, 0
7, 191400, Note_on_c, 5, 62, 90
7, 191459, Note_on_c, 5, 62, 0
7, 191460, Note_on_c, 5, 64, 90
7, 191579, Note_on_c, 5, 64, 0
7, 191580, Note_on_c, 5, 60, 90
7, 191699, Note_on_c, 5, 60, 0
7, 191760, Note_on_c, 5, 65, 90
7, 191789, Note_on_c, 5, 65, 0
7, 191790, Note_on_c, 5, 64, 90
7, 191819, Note_on_c, 5, 64, 0
7, 191820, Note_on_c, 5, 65, 90
7, 191879, Note_on_c, 5, 65, 0
7, 191880, Note_on_c, 5, 65, 90
7, 191939, Note_on_c, 5, 65, 0
7, 191940, Note_on_c, 5, 65, 90
7, 191999, Note_on_c, 5, 65, 0
7, 192000, Note_on_c, 5, 60, 90
7, 192059, Note_on_c, 5, 60, 0
7, 192120, Note_on_c, 5, 60, 90
7, 192149, Note_on_c, 5, 60, 0
7, 192150, Note_on_c, 5, 58, 90
7, 192179, Note_on_c, 5, 58, 0
7, 192180, Note_on_c, 5, 60, 90
7, 192239, Note_on_c, 5, 60, 0
7, 192240, Note_on_c, 5, 60, 90
7, 192299, Note_on_c, 5, 60, 0
7, 192300, Note_on_c, 5, 60, 90
7, 192359, Note_on_c, 5, 60, 0
7, 192360, Note_on_c, 5, 57, 90
7, 192419, Note_on_c, 5, 57, 0
7, 192600, Note_on_c, 5, 77, 90
7, 192629, Note_on_c, 5, 77, 0
7, 192630, Note_on_c, 5, 76, 90
7, 192659, Note_on_c, 5, 76, 0
7, 192660, Note_on_c, 5, 77, 90
7, 192779, Note_on_c, 5, 77, 0
7, 192960, Note_on_c, 5, 72, 90
7, 193019, Note_on_c, 5, 72, 0
7, 193020, Note_on_c, 5, 72, 90
7, 193139, Note_on_c, 5, 72, 0
7, 193139, End_track
8, 0, Start_track
8, 0, MIDI_port, 0
8, 0, Title_t, "Viola"
8, 0, Program_c, 6, 48
8, 0, Control_c, 6, 7, 127
8, 0, Control_c, 6, 10, 64
8, 0, Note_on_c, 6, 60, 90
8, 119, Note_on_c, 6, 60, 0
8, 120, Note_on_c, 6, 62, 90
8, 179, Note_on_c, 6, 62, 0
8, 180, Note_on_c, 6, 58, 90
8, 195, Note_on_c, 6, 58, 0
8, 195, Note_on_c, 6, 60, 90
8, 210, Note_on_c, 6, 60, 0
8, 210, Note_on_c, 6, 58, 90
8, 220, Note_on_c, 6, 58, 0
8, 220, Note_on_c, 6, 60, 90
8, 230, Note_on_c, 6, 60, 0
8, 230, Note_on_c, 6, 58, 90
8, 240, Note_on_c, 6, 58, 0
8, 240, Note_on_c, 6, 60, 90
8, 250, Note_on_c, 6, 60, 0
8, 250, Note_on_c, 6, 58, 90
8, 260, Note_on_c, 6, 58, 0
8, 260, Note_on_c, 6, 60, 90
8, 270, Note_on_c, 6, 60, 0
8, 270, Note_on_c, 6, 58, 90
8, 280, Note_on_c, 6, 58, 0
8, 280, Note_on_c, 6, 60, 90
8, 290, Note_on_c, 6, 60, 0
8, 290, Note_on_c, 6, 58, 90
8, 300, Note_on_c, 6, 58, 0
8, 300, Note_on_c, 6, 57, 90
8, 359, Note_on_c, 6, 57, 0
8, 360, Note_on_c, 6, 60, 90
8, 419, Note_on_c, 6, 60, 0
8, 420, Note_on_c, 6, 62, 90
8, 479, Note_on_c, 6, 62, 0
8, 480, Note_on_c, 6, 63, 90
8, 539, Note_on_c, 6, 63, 0
8, 540, Note_on_c, 6, 65, 90
8, 569, Note_on_c, 6, 65, 0
8, 600, Note_on_c, 6, 65, 90
8, 629, Note_on_c, 6, 65, 0
8, 720, Note_on_c, 6, 65, 90
8, 779, Note_on_c, 6, 65, 0
8, 780, Note_on_c, 6, 60, 90
8, 839, Note_on_c, 6, 60, 0
8, 840, Note_on_c, 6, 55, 90
8, 899, Note_on_c, 6, 55, 0
8, 900, Note_on_c, 6, 53, 90
8, 959, Note_on_c, 6, 53, 0
8, 960, Note_on_c, 6, 57, 90
8, 1019, Note_on_c, 6, 57, 0
8, 1020, Note_on_c, 6, 60, 90
8, 1079, Note_on_c, 6, 60, 0
8, 1080, Note_on_c, 6, 60, 90
8, 1139, Note_on_c, 6, 60, 0
8, 1140, Note_on_c, 6, 58, 90
8, 1199, Note_on_c, 6, 58, 0
8, 1200, Note_on_c, 6, 62, 90
8, 1259, Note_on_c, 6, 62, 0
8, 1260, Note_on_c, 6, 60, 90
8, 1439, Note_on_c, 6, 60, 0
8, 1440, Note_on_c, 6, 60, 90
8, 1487, Note_on_c, 6, 60, 0
8, 1500, Note_on_c, 6, 60, 90
8, 1547, Note_on_c, 6, 60, 0
8, 1560, Note_on_c, 6, 60, 90
8, 1607, Note_on_c, 6, 60, 0
8, 1620, Note_on_c, 6, 60, 90
8, 1667, Note_on_c, 6, 60, 0
8, 1680, Note_on_c, 6, 60, 90
8, 1727, Note_on_c, 6, 60, 0
8, 1740, Note_on_c, 6, 60, 90
8, 1787, Note_on_c, 6, 60, 0
8, 1800, Note_on_c, 6, 67, 90
8, 1859, Note_on_c, 6, 67, 0
8, 1860, Note_on_c, 6, 69, 90
8, 1919, Note_on_c, 6, 69, 0
8, 1920, Note_on_c, 6, 70, 90
8, 1979, Note_on_c, 6, 70, 0
8, 1980, Note_on_c, 6, 72, 90
8, 2039, Note_on_c, 6, 72, 0
8, 2040, Note_on_c, 6, 70, 90
8, 2099, Note_on_c, 6, 70, 0
8, 2100, Note_on_c, 6, 69, 90
8, 2159, Note_on_c, 6, 69, 0
8, 2520, Note_on_c, 6, 69, 90
8, 2579, Note_on_c, 6, 69, 0
8, 2580, Note_on_c, 6, 70, 90
8, 2639, Note_on_c, 6, 70, 0
8, 2640, Note_on_c, 6, 72, 90
8, 2699, Note_on_c, 6, 72, 0
8, 2700, Note_on_c, 6, 74, 90
8, 2789, Note_on_c, 6, 74, 0
8, 2790, Note_on_c, 6, 72, 90
8, 2819, Note_on_c, 6, 72, 0
8, 2820, Note_on_c, 6, 70, 90
8, 2849, Note_on_c, 6, 70, 0
8, 2850, Note_on_c, 6, 69, 90
8, 2879, Note_on_c, 6, 69, 0
8, 2880, Note_on_c, 6, 67, 90
8, 2939, Note_on_c, 6, 67, 0
8, 2940, Note_on_c, 6, 70, 90
8, 2999, Note_on_c, 6, 70, 0
8, 3000, Note_on_c, 6, 74, 90
8, 3059, Note_on_c, 6, 74, 0
8, 3060, Note_on_c, 6, 67, 90
8, 3179, Note_on_c, 6, 67, 0
8, 3240, Note_on_c, 6, 65, 90
8, 3299, Note_on_c, 6, 65, 0
8, 3300, Note_on_c, 6, 69, 90
8, 3359, Note_on_c, 6, 69, 0
8, 3360, Note_on_c, 6, 72, 90
8, 3419, Note_on_c, 6, 72, 0
8, 3420, Note_on_c, 6, 65, 90
8, 3539, Note_on_c, 6, 65, 0
8, 3600, Note_on_c, 6, 67, 90
8, 3629, Note_on_c, 6, 67, 0
8, 3630, Note_on_c, 6, 69, 90
8, 3659, Note_on_c, 6, 69, 0
8, 3660, Note_on_c, 6, 67, 90
8, 3689, Note_on_c, 6, 67, 0
8, 3690, Note_on_c, 6, 65, 90
8, 3719, Note_on_c, 6, 65, 0
8, 3720, Note_on_c, 6, 67, 90
8, 3749, Note_on_c, 6, 67, 0
8, 3750, Note_on_c, 6, 64, 90
8, 3779, Note_on_c, 6, 64, 0
8, 3780, Note_on_c, 6, 60, 90
8, 3809, Note_on_c, 6, 60, 0
8, 3840, Note_on_c, 6, 65, 90
8, 3869, Note_on_c, 6, 65, 0
8, 4020, Note_on_c, 6, 62, 90
8, 4049, Note_on_c, 6, 62, 0
8, 4080, Note_on_c, 6, 55, 90
8, 4109, Note_on_c, 6, 55, 0
8, 4140, Note_on_c, 6, 57, 90
8, 4319, Note_on_c, 6, 57, 0
8, 4680, Note_on_c, 6, 60, 90
8, 4739, Note_on_c, 6, 60, 0
8, 4740, Note_on_c, 6, 62, 90
8, 4799, Note_on_c, 6, 62, 0
8, 4800, Note_on_c, 6, 63, 90
8, 4859, Note_on_c, 6, 63, 0
8, 4860, Note_on_c, 6, 65, 90
8, 4889, Note_on_c, 6, 65, 0
8, 4920, Note_on_c, 6, 65, 90
8, 4949, Note_on_c, 6, 65, 0
8, 5040, Note_on_c, 6, 69, 90
8, 5070, Note_on_c, 6, 69, 0
8, 5400, Note_on_c, 6, 65, 90
8, 5430, Note_on_c, 6, 65, 0
8, 5760, Note_on_c, 6, 65, 90
8, 5790, Note_on_c, 6, 65, 0
8, 6120, Note_on_c, 6, 64, 90
8, 6150, Note_on_c, 6, 64, 0
8, 6480, Note_on_c, 6, 60, 90
8, 6599, Note_on_c, 6, 60, 0
8, 6600, Note_on_c, 6, 62, 90
8, 6659, Note_on_c, 6, 62, 0
8, 6660, Note_on_c, 6, 58, 90
8, 6779, Note_on_c, 6, 58, 0
8, 6780, Note_on_c, 6, 57, 90
8, 6839, Note_on_c, 6, 57, 0
8, 6840, Note_on_c, 6, 60, 90
8, 6899, Note_on_c, 6, 60, 0
8, 6900, Note_on_c, 6, 62, 90
8, 6959, Note_on_c, 6, 62, 0
8, 6960, Note_on_c, 6, 63, 90
8, 7019, Note_on_c, 6, 63, 0
8, 7020, Note_on_c, 6, 65, 90
8, 7049, Note_on_c, 6, 65, 0
8, 7080, Note_on_c, 6, 65, 90
8, 7109, Note_on_c, 6, 65, 0
8, 7200, Note_on_c, 6, 65, 90
8, 7259, Note_on_c, 6, 65, 0
8, 7260, Note_on_c, 6, 60, 90
8, 7319, Note_on_c, 6, 60, 0
8, 7320, Note_on_c, 6, 55, 90
8, 7379, Note_on_c, 6, 55, 0
8, 7380, Note_on_c, 6, 53, 90
8, 7439, Note_on_c, 6, 53, 0
8, 7440, Note_on_c, 6, 57, 90
8, 7499, Note_on_c, 6, 57, 0
8, 7500, Note_on_c, 6, 60, 90
8, 7559, Note_on_c, 6, 60, 0
8, 7560, Note_on_c, 6, 60, 90
8, 7619, Note_on_c, 6, 60, 0
8, 7620, Note_on_c, 6, 58, 90
8, 7679, Note_on_c, 6, 58, 0
8, 7680, Note_on_c, 6, 62, 90
8, 7739, Note_on_c, 6, 62, 0
8, 7740, Note_on_c, 6, 60, 90
8, 7919, Note_on_c, 6, 60, 0
8, 8280, Note_on_c, 6, 67, 90
8, 8339, Note_on_c, 6, 67, 0
8, 8340, Note_on_c, 6, 69, 90
8, 8399, Note_on_c, 6, 69, 0
8, 8400, Note_on_c, 6, 70, 90
8, 8459, Note_on_c, 6, 70, 0
8, 8460, Note_on_c, 6, 72, 90
8, 8519, Note_on_c, 6, 72, 0
8, 8520, Note_on_c, 6, 70, 90
8, 8549, Note_on_c, 6, 70, 0
8, 8550, Note_on_c, 6, 72, 90
8, 8579, Note_on_c, 6, 72, 0
8, 8580, Note_on_c, 6, 69, 90
8, 8639, Note_on_c, 6, 69, 0
8, 8640, Note_on_c, 6, 65, 90
8, 8699, Note_on_c, 6, 65, 0
8, 8700, Note_on_c, 6, 60, 90
8, 8759, Note_on_c, 6, 60, 0
8, 8760, Note_on_c, 6, 65, 90
8, 8879, Note_on_c, 6, 65, 0
8, 8880, Note_on_c, 6, 57, 90
8, 8939, Note_on_c, 6, 57, 0
8, 8940, Note_on_c, 6, 58, 90
8, 8999, Note_on_c, 6, 58, 0
8, 9000, Note_on_c, 6, 60, 90
8, 9059, Note_on_c, 6, 60, 0
8, 9060, Note_on_c, 6, 58, 90
8, 9119, Note_on_c, 6, 58, 0
8, 9120, Note_on_c, 6, 57, 90
8, 9179, Note_on_c, 6, 57, 0
8, 9180, Note_on_c, 6, 65, 90
8, 9239, Note_on_c, 6, 65, 0
8, 9240, Note_on_c, 6, 65, 90
8, 9299, Note_on_c, 6, 65, 0
8, 9300, Note_on_c, 6, 65, 90
8, 9359, Note_on_c, 6, 65, 0
8, 9360, Note_on_c, 6, 58, 90
8, 9419, Note_on_c, 6, 58, 0
8, 9420, Note_on_c, 6, 62, 90
8, 9479, Note_on_c, 6, 62, 0
8, 9480, Note_on_c, 6, 65, 90
8, 9539, Note_on_c, 6, 65, 0
8, 9540, Note_on_c, 6, 58, 90
8, 9659, Note_on_c, 6, 58, 0
8, 9720, Note_on_c, 6, 57, 90
8, 9779, Note_on_c, 6, 57, 0
8, 9780, Note_on_c, 6, 60, 90
8, 9839, Note_on_c, 6, 60, 0
8, 9840, Note_on_c, 6, 64, 90
8, 9899, Note_on_c, 6, 64, 0
8, 9900, Note_on_c, 6, 57, 90
8, 10019, Note_on_c, 6, 57, 0
8, 10080, Note_on_c, 6, 55, 90
8, 10139, Note_on_c, 6, 55, 0
8, 10140, Note_on_c, 6, 58, 90
8, 10199, Note_on_c, 6, 58, 0
8, 10200, Note_on_c, 6, 62, 90
8, 10259, Note_on_c, 6, 62, 0
8, 10260, Note_on_c, 6, 55, 90
8, 10379, Note_on_c, 6, 55, 0
8, 10440, Note_on_c, 6, 53, 90
8, 10499, Note_on_c, 6, 53, 0
8, 10500, Note_on_c, 6, 65, 90
8, 10559, Note_on_c, 6, 65, 0
8, 10560, Note_on_c, 6, 67, 90
8, 10619, Note_on_c, 6, 67, 0
8, 10620, Note_on_c, 6, 67, 90
8, 10739, Note_on_c, 6, 67, 0
8, 10740, Note_on_c, 6, 62, 90
8, 10799, Note_on_c, 6, 62, 0
8, 10800, Note_on_c, 6, 60, 90
8, 10919, Note_on_c, 6, 60, 0
8, 10920, Note_on_c, 6, 60, 90
8, 10979, Note_on_c, 6, 60, 0
8, 10980, Note_on_c, 6, 65, 90
8, 11099, Note_on_c, 6, 65, 0
8, 11100, Note_on_c, 6, 64, 90
8, 11159, Note_on_c, 6, 64, 0
8, 11160, Note_on_c, 6, 67, 90
8, 11219, Note_on_c, 6, 67, 0
8, 11220, Note_on_c, 6, 65, 90
8, 11279, Note_on_c, 6, 65, 0
8, 11280, Note_on_c, 6, 60, 90
8, 11339, Note_on_c, 6, 60, 0
8, 11340, Note_on_c, 6, 65, 90
8, 11369, Note_on_c, 6, 65, 0
8, 11400, Note_on_c, 6, 64, 90
8, 11429, Note_on_c, 6, 64, 0
8, 11520, Note_on_c, 6, 64, 90
8, 11550, Note_on_c, 6, 64, 0
8, 11880, Note_on_c, 6, 60, 90
8, 11910, Note_on_c, 6, 60, 0
8, 12240, Note_on_c, 6, 60, 90
8, 12270, Note_on_c, 6, 60, 0
8, 12600, Note_on_c, 6, 65, 90
8, 12630, Note_on_c, 6, 65, 0
8, 12960, Note_on_c, 6, 67, 90
8, 13079, Note_on_c, 6, 67, 0
8, 13080, Note_on_c, 6, 69, 90
8, 13139, Note_on_c, 6, 69, 0
8, 13140, Note_on_c, 6, 67, 90
8, 13199, Note_on_c, 6, 67, 0
8, 13200, Note_on_c, 6, 65, 90
8, 13259, Note_on_c, 6, 65, 0
8, 13260, Note_on_c, 6, 64, 90
8, 13319, Note_on_c, 6, 64, 0
8, 13320, Note_on_c, 6, 67, 90
8, 13379, Note_on_c, 6, 67, 0
8, 13380, Note_on_c, 6, 69, 90
8, 13439, Note_on_c, 6, 69, 0
8, 13440, Note_on_c, 6, 70, 90
8, 13499, Note_on_c, 6, 70, 0
8, 13500, Note_on_c, 6, 72, 90
8, 13529, Note_on_c, 6, 72, 0
8, 13560, Note_on_c, 6, 72, 90
8, 13589, Note_on_c, 6, 72, 0
8, 13680, Note_on_c, 6, 69, 90
8, 13739, Note_on_c, 6, 69, 0
8, 13740, Note_on_c, 6, 65, 90
8, 13799, Note_on_c, 6, 65, 0
8, 13800, Note_on_c, 6, 62, 90
8, 13859, Note_on_c, 6, 62, 0
8, 13860, Note_on_c, 6, 62, 90
8, 13919, Note_on_c, 6, 62, 0
8, 13920, Note_on_c, 6, 55, 90
8, 13979, Note_on_c, 6, 55, 0
8, 13980, Note_on_c, 6, 60, 90
8, 14039, Note_on_c, 6, 60, 0
8, 14040, Note_on_c, 6, 64, 90
8, 14099, Note_on_c, 6, 64, 0
8, 14100, Note_on_c, 6, 62, 90
8, 14159, Note_on_c, 6, 62, 0
8, 14160, Note_on_c, 6, 65, 90
8, 14219, Note_on_c, 6, 65, 0
8, 14220, Note_on_c, 6, 64, 90
8, 14339, Note_on_c, 6, 64, 0
8, 14400, Note_on_c, 6, 55, 90
8, 14447, Note_on_c, 6, 55, 0
8, 14460, Note_on_c, 6, 55, 90
8, 14507, Note_on_c, 6, 55, 0
8, 14520, Note_on_c, 6, 55, 90
8, 14567, Note_on_c, 6, 55, 0
8, 14580, Note_on_c, 6, 55, 90
8, 14627, Note_on_c, 6, 55, 0
8, 14640, Note_on_c, 6, 55, 90
8, 14687, Note_on_c, 6, 55, 0
8, 14700, Note_on_c, 6, 55, 90
8, 14747, Note_on_c, 6, 55, 0
8, 14760, Note_on_c, 6, 62, 90
8, 14819, Note_on_c, 6, 62, 0
8, 14820, Note_on_c, 6, 64, 90
8, 14879, Note_on_c, 6, 64, 0
8, 14880, Note_on_c, 6, 65, 90
8, 14939, Note_on_c, 6, 65, 0
8, 14940, Note_on_c, 6, 67, 90
8, 14999, Note_on_c, 6, 67, 0
8, 15000, Note_on_c, 6, 65, 90
8, 15059, Note_on_c, 6, 65, 0
8, 15060, Note_on_c, 6, 64, 90
8, 15119, Note_on_c, 6, 64, 0
8, 15480, Note_on_c, 6, 64, 90
8, 15539, Note_on_c, 6, 64, 0
8, 15540, Note_on_c, 6, 65, 90
8, 15599, Note_on_c, 6, 65, 0
8, 15600, Note_on_c, 6, 67, 90
8, 15659, Note_on_c, 6, 67, 0
8, 15660, Note_on_c, 6, 69, 90
8, 15749, Note_on_c, 6, 69, 0
8, 15750, Note_on_c, 6, 67, 90
8, 15779, Note_on_c, 6, 67, 0
8, 15780, Note_on_c, 6, 65, 90
8, 15809, Note_on_c, 6, 65, 0
8, 15810, Note_on_c, 6, 64, 90
8, 15839, Note_on_c, 6, 64, 0
8, 15840, Note_on_c, 6, 62, 90
8, 15899, Note_on_c, 6, 62, 0
8, 15900, Note_on_c, 6, 65, 90
8, 15959, Note_on_c, 6, 65, 0
8, 15960, Note_on_c, 6, 69, 90
8, 16019, Note_on_c, 6, 69, 0
8, 16020, Note_on_c, 6, 62, 90
8, 16139, Note_on_c, 6, 62, 0
8, 16200, Note_on_c, 6, 60, 90
8, 16259, Note_on_c, 6, 60, 0
8, 16260, Note_on_c, 6, 64, 90
8, 16319, Note_on_c, 6, 64, 0
8, 16320, Note_on_c, 6, 67, 90
8, 16379, Note_on_c, 6, 67, 0
8, 16380, Note_on_c, 6, 60, 90
8, 16499, Note_on_c, 6, 60, 0
8, 16560, Note_on_c, 6, 62, 90
8, 16589, Note_on_c, 6, 62, 0
8, 16590, Note_on_c, 6, 64, 90
8, 16619, Note_on_c, 6, 64, 0
8, 16620, Note_on_c, 6, 62, 90
8, 16649, Note_on_c, 6, 62, 0
8, 16650, Note_on_c, 6, 60, 90
8, 16679, Note_on_c, 6, 60, 0
8, 16680, Note_on_c, 6, 62, 90
8, 16709, Note_on_c, 6, 62, 0
8, 16710, Note_on_c, 6, 59, 90
8, 16739, Note_on_c, 6, 59, 0
8, 16740, Note_on_c, 6, 55, 90
8, 16769, Note_on_c, 6, 55, 0
8, 16800, Note_on_c, 6, 60, 90
8, 16829, Note_on_c, 6, 60, 0
8, 16980, Note_on_c, 6, 69, 90
8, 17009, Note_on_c, 6, 69, 0
8, 17040, Note_on_c, 6, 62, 90
8, 17069, Note_on_c, 6, 62, 0
8, 17100, Note_on_c, 6, 64, 90
8, 17219, Note_on_c, 6, 64, 0
8, 17280, Note_on_c, 6, 60, 90
8, 17339, Note_on_c, 6, 60, 0
8, 17340, Note_on_c, 6, 72, 90
8, 17369, Note_on_c, 6, 72, 0
8, 17370, Note_on_c, 6, 70, 90
8, 17399, Note_on_c, 6, 70, 0
8, 17400, Note_on_c, 6, 72, 90
8, 17459, Note_on_c, 6, 72, 0
8, 17460, Note_on_c, 6, 67, 90
8, 17639, Note_on_c, 6, 67, 0
8, 18000, Note_on_c, 6, 62, 90
8, 18059, Note_on_c, 6, 62, 0
8, 18060, Note_on_c, 6, 70, 90
8, 18119, Note_on_c, 6, 70, 0
8, 18120, Note_on_c, 6, 69, 90
8, 18239, Note_on_c, 6, 69, 0
8, 18240, Note_on_c, 6, 67, 90
8, 18299, Note_on_c, 6, 67, 0
8, 18300, Note_on_c, 6, 69, 90
8, 18359, Note_on_c, 6, 69, 0
8, 18360, Note_on_c, 6, 70, 90
8, 18389, Note_on_c, 6, 70, 0
8, 18390, Note_on_c, 6, 72, 90
8, 18419, Note_on_c, 6, 72, 0
8, 18420, Note_on_c, 6, 70, 90
8, 18449, Note_on_c, 6, 70, 0
8, 18450, Note_on_c, 6, 69, 90
8, 18479, Note_on_c, 6, 69, 0
8, 18480, Note_on_c, 6, 67, 90
8, 18509, Note_on_c, 6, 67, 0
8, 18510, Note_on_c, 6, 65, 90
8, 18539, Note_on_c, 6, 65, 0
8, 18540, Note_on_c, 6, 64, 90
8, 18659, Note_on_c, 6, 64, 0
8, 18660, Note_on_c, 6, 61, 90
8, 18719, Note_on_c, 6, 61, 0
8, 18720, Note_on_c, 6, 62, 90
8, 18749, Note_on_c, 6, 62, 0
8, 18780, Note_on_c, 6, 65, 90
8, 18809, Note_on_c, 6, 65, 0
8, 18900, Note_on_c, 6, 69, 90
8, 18929, Note_on_c, 6, 69, 0
8, 18960, Note_on_c, 6, 74, 90
8, 18989, Note_on_c, 6, 74, 0
8, 19080, Note_on_c, 6, 62, 90
8, 19127, Note_on_c, 6, 62, 0
8, 19140, Note_on_c, 6, 62, 90
8, 19187, Note_on_c, 6, 62, 0
8, 19200, Note_on_c, 6, 62, 90
8, 19247, Note_on_c, 6, 62, 0
8, 19260, Note_on_c, 6, 62, 90
8, 19307, Note_on_c, 6, 62, 0
8, 19320, Note_on_c, 6, 62, 90
8, 19367, Note_on_c, 6, 62, 0
8, 19380, Note_on_c, 6, 62, 90
8, 19427, Note_on_c, 6, 62, 0
8, 19440, Note_on_c, 6, 60, 90
8, 19469, Note_on_c, 6, 60, 0
8, 19500, Note_on_c, 6, 64, 90
8, 19529, Note_on_c, 6, 64, 0
8, 19620, Note_on_c, 6, 67, 90
8, 19649, Note_on_c, 6, 67, 0
8, 19680, Note_on_c, 6, 72, 90
8, 19709, Note_on_c, 6, 72, 0
8, 19800, Note_on_c, 6, 60, 90
8, 19847, Note_on_c, 6, 60, 0
8, 19860, Note_on_c, 6, 60, 90
8, 19907, Note_on_c, 6, 60, 0
8, 19920, Note_on_c, 6, 60, 90
8, 19967, Note_on_c, 6, 60, 0
8, 19980, Note_on_c, 6, 60, 90
8, 20027, Note_on_c, 6, 60, 0
8, 20040, Note_on_c, 6, 60, 90
8, 20087, Note_on_c, 6, 60, 0
8, 20100, Note_on_c, 6, 60, 90
8, 20147, Note_on_c, 6, 60, 0
8, 20340, Note_on_c, 6, 61, 90
8, 20399, Note_on_c, 6, 61, 0
8, 20400, Note_on_c, 6, 70, 90
8, 20459, Note_on_c, 6, 70, 0
8, 20460, Note_on_c, 6, 67, 90
8, 20519, Note_on_c, 6, 67, 0
8, 20520, Note_on_c, 6, 64, 90
8, 20699, Note_on_c, 6, 64, 0
8, 20700, Note_on_c, 6, 62, 90
8, 20759, Note_on_c, 6, 62, 0
8, 20760, Note_on_c, 6, 57, 90
8, 20819, Note_on_c, 6, 57, 0
8, 20820, Note_on_c, 6, 62, 90
8, 20879, Note_on_c, 6, 62, 0
8, 20880, Note_on_c, 6, 58, 90
8, 20969, Note_on_c, 6, 58, 0
8, 20970, Note_on_c, 6, 57, 90
8, 20999, Note_on_c, 6, 57, 0
8, 21000, Note_on_c, 6, 58, 90
8, 21029, Note_on_c, 6, 58, 0
8, 21030, Note_on_c, 6, 55, 90
8, 21059, Note_on_c, 6, 55, 0
8, 21060, Note_on_c, 6, 57, 90
8, 21119, Note_on_c, 6, 57, 0
8, 21120, Note_on_c, 6, 62, 90
8, 21149, Note_on_c, 6, 62, 0
8, 21150, Note_on_c, 6, 61, 90
8, 21179, Note_on_c, 6, 61, 0
8, 21180, Note_on_c, 6, 62, 90
8, 21239, Note_on_c, 6, 62, 0
8, 21240, Note_on_c, 6, 67, 90
8, 21299, Note_on_c, 6, 67, 0
8, 21300, Note_on_c, 6, 64, 90
8, 21359, Note_on_c, 6, 64, 0
8, 21360, Note_on_c, 6, 69, 90
8, 21419, Note_on_c, 6, 69, 0
8, 21420, Note_on_c, 6, 69, 90
8, 21539, Note_on_c, 6, 69, 0
8, 21960, Note_on_c, 6, 57, 90
8, 22019, Note_on_c, 6, 57, 0
8, 22020, Note_on_c, 6, 58, 90
8, 22079, Note_on_c, 6, 58, 0
8, 22080, Note_on_c, 6, 60, 90
8, 22139, Note_on_c, 6, 60, 0
8, 22140, Note_on_c, 6, 62, 90
8, 22199, Note_on_c, 6, 62, 0
8, 22200, Note_on_c, 6, 60, 90
8, 22259, Note_on_c, 6, 60, 0
8, 22260, Note_on_c, 6, 62, 90
8, 22319, Note_on_c, 6, 62, 0
8, 22680, Note_on_c, 6, 62, 90
8, 22739, Note_on_c, 6, 62, 0
8, 22740, Note_on_c, 6, 58, 90
8, 22799, Note_on_c, 6, 58, 0
8, 22800, Note_on_c, 6, 62, 90
8, 22859, Note_on_c, 6, 62, 0
8, 22860, Note_on_c, 6, 64, 90
8, 22919, Note_on_c, 6, 64, 0
8, 22920, Note_on_c, 6, 57, 90
8, 22979, Note_on_c, 6, 57, 0
8, 22980, Note_on_c, 6, 61, 90
8, 23039, Note_on_c, 6, 61, 0
8, 23040, Note_on_c, 6, 62, 90
8, 23099, Note_on_c, 6, 62, 0
8, 23100, Note_on_c, 6, 65, 90
8, 23159, Note_on_c, 6, 65, 0
8, 23160, Note_on_c, 6, 69, 90
8, 23219, Note_on_c, 6, 69, 0
8, 23220, Note_on_c, 6, 62, 90
8, 23339, Note_on_c, 6, 62, 0
8, 23400, Note_on_c, 6, 60, 90
8, 23459, Note_on_c, 6, 60, 0
8, 23460, Note_on_c, 6, 63, 90
8, 23519, Note_on_c, 6, 63, 0
8, 23520, Note_on_c, 6, 67, 90
8, 23579, Note_on_c, 6, 67, 0
8, 23580, Note_on_c, 6, 60, 90
8, 23699, Note_on_c, 6, 60, 0
8, 23760, Note_on_c, 6, 58, 90
8, 23819, Note_on_c, 6, 58, 0
8, 23820, Note_on_c, 6, 62, 90
8, 23879, Note_on_c, 6, 62, 0
8, 23880, Note_on_c, 6, 65, 90
8, 23939, Note_on_c, 6, 65, 0
8, 23940, Note_on_c, 6, 58, 90
8, 23999, Note_on_c, 6, 58, 0
8, 24000, Note_on_c, 6, 70, 90
8, 24029, Note_on_c, 6, 70, 0
8, 24060, Note_on_c, 6, 64, 90
8, 24089, Note_on_c, 6, 64, 0
8, 24180, Note_on_c, 6, 70, 90
8, 24209, Note_on_c, 6, 70, 0
8, 24240, Note_on_c, 6, 64, 90
8, 24269, Note_on_c, 6, 64, 0
8, 24300, Note_on_c, 6, 65, 90
8, 24419, Note_on_c, 6, 65, 0
8, 24840, Note_on_c, 6, 57, 90
8, 24899, Note_on_c, 6, 57, 0
8, 24900, Note_on_c, 6, 55, 90
8, 24959, Note_on_c, 6, 55, 0
8, 24960, Note_on_c, 6, 55, 90
8, 25079, Note_on_c, 6, 55, 0
8, 25080, Note_on_c, 6, 53, 90
8, 25139, Note_on_c, 6, 53, 0
8, 25140, Note_on_c, 6, 55, 90
8, 25199, Note_on_c, 6, 55, 0
8, 25200, Note_on_c, 6, 60, 90
8, 25319, Note_on_c, 6, 60, 0
8, 25320, Note_on_c, 6, 59, 90
8, 25379, Note_on_c, 6, 59, 0
8, 25380, Note_on_c, 6, 57, 90
8, 25439, Note_on_c, 6, 57, 0
8, 25440, Note_on_c, 6, 62, 90
8, 25499, Note_on_c, 6, 62, 0
8, 25500, Note_on_c, 6, 64, 90
8, 25559, Note_on_c, 6, 64, 0
8, 25560, Note_on_c, 6, 62, 90
8, 25619, Note_on_c, 6, 62, 0
8, 25620, Note_on_c, 6, 56, 90
8, 25679, Note_on_c, 6, 56, 0
8, 25680, Note_on_c, 6, 57, 90
8, 25739, Note_on_c, 6, 57, 0
8, 25740, Note_on_c, 6, 59, 90
8, 25859, Note_on_c, 6, 59, 0
8, 25860, Note_on_c, 6, 59, 90
8, 25919, Note_on_c, 6, 59, 0
8, 25920, Note_on_c, 6, 52, 90
8, 25949, Note_on_c, 6, 52, 0
8, 25980, Note_on_c, 6, 60, 90
8, 26009, Note_on_c, 6, 60, 0
8, 26100, Note_on_c, 6, 60, 90
8, 26129, Note_on_c, 6, 60, 0
8, 26160, Note_on_c, 6, 69, 90
8, 26189, Note_on_c, 6, 69, 0
8, 26280, Note_on_c, 6, 57, 90
8, 26309, Note_on_c, 6, 57, 0
8, 26340, Note_on_c, 6, 65, 90
8, 26369, Note_on_c, 6, 65, 0
8, 26460, Note_on_c, 6, 65, 90
8, 26489, Note_on_c, 6, 65, 0
8, 26520, Note_on_c, 6, 74, 90
8, 26549, Note_on_c, 6, 74, 0
8, 26640, Note_on_c, 6, 50, 90
8, 26669, Note_on_c, 6, 50, 0
8, 26700, Note_on_c, 6, 59, 90
8, 26729, Note_on_c, 6, 59, 0
8, 26820, Note_on_c, 6, 59, 90
8, 26849, Note_on_c, 6, 59, 0
8, 26880, Note_on_c, 6, 67, 90
8, 26909, Note_on_c, 6, 67, 0
8, 27000, Note_on_c, 6, 55, 90
8, 27029, Note_on_c, 6, 55, 0
8, 27060, Note_on_c, 6, 64, 90
8, 27089, Note_on_c, 6, 64, 0
8, 27180, Note_on_c, 6, 64, 90
8, 27209, Note_on_c, 6, 64, 0
8, 27240, Note_on_c, 6, 72, 90
8, 27269, Note_on_c, 6, 72, 0
8, 27360, Note_on_c, 6, 60, 90
8, 27419, Note_on_c, 6, 60, 0
8, 27420, Note_on_c, 6, 58, 90
8, 27479, Note_on_c, 6, 58, 0
8, 27480, Note_on_c, 6, 57, 90
8, 27539, Note_on_c, 6, 57, 0
8, 27540, Note_on_c, 6, 57, 90
8, 27599, Note_on_c, 6, 57, 0
8, 27600, Note_on_c, 6, 64, 90
8, 27659, Note_on_c, 6, 64, 0
8, 27660, Note_on_c, 6, 62, 90
8, 27719, Note_on_c, 6, 62, 0
8, 27720, Note_on_c, 6, 58, 90
8, 27779, Note_on_c, 6, 58, 0
8, 27780, Note_on_c, 6, 62, 90
8, 27839, Note_on_c, 6, 62, 0
8, 27840, Note_on_c, 6, 55, 90
8, 27899, Note_on_c, 6, 55, 0
8, 27900, Note_on_c, 6, 57, 90
8, 28139, Note_on_c, 6, 57, 0
8, 28140, Note_on_c, 6, 59, 90
8, 28199, Note_on_c, 6, 59, 0
8, 28200, Note_on_c, 6, 60, 90
8, 28259, Note_on_c, 6, 60, 0
8, 28260, Note_on_c, 6, 62, 90
8, 28319, Note_on_c, 6, 62, 0
8, 28320, Note_on_c, 6, 62, 90
8, 28379, Note_on_c, 6, 62, 0
8, 28380, Note_on_c, 6, 60, 90
8, 28439, Note_on_c, 6, 60, 0
8, 28440, Note_on_c, 6, 65, 90
8, 28499, Note_on_c, 6, 65, 0
8, 28500, Note_on_c, 6, 64, 90
8, 28559, Note_on_c, 6, 64, 0
8, 28560, Note_on_c, 6, 62, 90
8, 28619, Note_on_c, 6, 62, 0
8, 28620, Note_on_c, 6, 60, 90
8, 28739, Note_on_c, 6, 60, 0
8, 29160, Note_on_c, 6, 60, 90
8, 29219, Note_on_c, 6, 60, 0
8, 29220, Note_on_c, 6, 60, 90
8, 29279, Note_on_c, 6, 60, 0
8, 29280, Note_on_c, 6, 60, 90
8, 29339, Note_on_c, 6, 60, 0
8, 29340, Note_on_c, 6, 60, 90
8, 29399, Note_on_c, 6, 60, 0
8, 29400, Note_on_c, 6, 60, 90
8, 29459, Note_on_c, 6, 60, 0
8, 29460, Note_on_c, 6, 60, 90
8, 29519, Note_on_c, 6, 60, 0
8, 29520, Note_on_c, 6, 60, 90
8, 29579, Note_on_c, 6, 60, 0
8, 29580, Note_on_c, 6, 62, 90
8, 29639, Note_on_c, 6, 62, 0
8, 29640, Note_on_c, 6, 63, 90
8, 29699, Note_on_c, 6, 63, 0
8, 29700, Note_on_c, 6, 65, 90
8, 29729, Note_on_c, 6, 65, 0
8, 29760, Note_on_c, 6, 65, 90
8, 29789, Note_on_c, 6, 65, 0
8, 30240, Note_on_c, 6, 58, 90
8, 30359, Note_on_c, 6, 58, 0
8, 30360, Note_on_c, 6, 60, 90
8, 30419, Note_on_c, 6, 60, 0
8, 30420, Note_on_c, 6, 60, 90
8, 30479, Note_on_c, 6, 60, 0
8, 30480, Note_on_c, 6, 62, 90
8, 30539, Note_on_c, 6, 62, 0
8, 30540, Note_on_c, 6, 64, 90
8, 30599, Note_on_c, 6, 64, 0
8, 30600, Note_on_c, 6, 60, 90
8, 30659, Note_on_c, 6, 60, 0
8, 30660, Note_on_c, 6, 58, 90
8, 30719, Note_on_c, 6, 58, 0
8, 30720, Note_on_c, 6, 62, 90
8, 30779, Note_on_c, 6, 62, 0
8, 30780, Note_on_c, 6, 60, 90
8, 30899, Note_on_c, 6, 60, 0
8, 30960, Note_on_c, 6, 67, 90
8, 30990, Note_on_c, 6, 67, 0
8, 31320, Note_on_c, 6, 65, 90
8, 31350, Note_on_c, 6, 65, 0
8, 31680, Note_on_c, 6, 70, 90
8, 31710, Note_on_c, 6, 70, 0
8, 32040, Note_on_c, 6, 69, 90
8, 32070, Note_on_c, 6, 69, 0
8, 32400, Note_on_c, 6, 60, 90
8, 32459, Note_on_c, 6, 60, 0
8, 32460, Note_on_c, 6, 58, 90
8, 32519, Note_on_c, 6, 58, 0
8, 32520, Note_on_c, 6, 60, 90
8, 32639, Note_on_c, 6, 60, 0
8, 32640, Note_on_c, 6, 62, 90
8, 32699, Note_on_c, 6, 62, 0
8, 32700, Note_on_c, 6, 64, 90
8, 32759, Note_on_c, 6, 64, 0
8, 32760, Note_on_c, 6, 65, 90
8, 32879, Note_on_c, 6, 65, 0
8, 32880, Note_on_c, 6, 69, 90
8, 32939, Note_on_c, 6, 69, 0
8, 32940, Note_on_c, 6, 65, 90
8, 32969, Note_on_c, 6, 65, 0
8, 33000, Note_on_c, 6, 65, 90
8, 33029, Note_on_c, 6, 65, 0
8, 33120, Note_on_c, 6, 62, 90
8, 33239, Note_on_c, 6, 62, 0
8, 33240, Note_on_c, 6, 69, 90
8, 33299, Note_on_c, 6, 69, 0
8, 33300, Note_on_c, 6, 67, 90
8, 33419, Note_on_c, 6, 67, 0
8, 33420, Note_on_c, 6, 62, 90
8, 33479, Note_on_c, 6, 62, 0
8, 33480, Note_on_c, 6, 60, 90
8, 33599, Note_on_c, 6, 60, 0
8, 33600, Note_on_c, 6, 60, 90
8, 33659, Note_on_c, 6, 60, 0
8, 33660, Note_on_c, 6, 60, 90
8, 33779, Note_on_c, 6, 60, 0
8, 34200, Note_on_c, 6, 67, 90
8, 34259, Note_on_c, 6, 67, 0
8, 34260, Note_on_c, 6, 69, 90
8, 34319, Note_on_c, 6, 69, 0
8, 34320, Note_on_c, 6, 70, 90
8, 34379, Note_on_c, 6, 70, 0
8, 34380, Note_on_c, 6, 72, 90
8, 34439, Note_on_c, 6, 72, 0
8, 34440, Note_on_c, 6, 70, 90
8, 34469, Note_on_c, 6, 70, 0
8, 34470, Note_on_c, 6, 72, 90
8, 34499, Note_on_c, 6, 72, 0
8, 34500, Note_on_c, 6, 69, 90
8, 34559, Note_on_c, 6, 69, 0
8, 34560, Note_on_c, 6, 65, 90
8, 34619, Note_on_c, 6, 65, 0
8, 34620, Note_on_c, 6, 60, 90
8, 34679, Note_on_c, 6, 60, 0
8, 34680, Note_on_c, 6, 65, 90
8, 34799, Note_on_c, 6, 65, 0
8, 34800, Note_on_c, 6, 57, 90
8, 34859, Note_on_c, 6, 57, 0
8, 34860, Note_on_c, 6, 53, 90
8, 34919, Note_on_c, 6, 53, 0
8, 34920, Note_on_c, 6, 60, 90
8, 34979, Note_on_c, 6, 60, 0
8, 34980, Note_on_c, 6, 58, 90
8, 35039, Note_on_c, 6, 58, 0
8, 35040, Note_on_c, 6, 57, 90
8, 35099, Note_on_c, 6, 57, 0
8, 35100, Note_on_c, 6, 53, 90
8, 35159, Note_on_c, 6, 53, 0
8, 35160, Note_on_c, 6, 65, 90
8, 35219, Note_on_c, 6, 65, 0
8, 35220, Note_on_c, 6, 65, 90
8, 35279, Note_on_c, 6, 65, 0
8, 35280, Note_on_c, 6, 58, 90
8, 35339, Note_on_c, 6, 58, 0
8, 35340, Note_on_c, 6, 62, 90
8, 35399, Note_on_c, 6, 62, 0
8, 35400, Note_on_c, 6, 65, 90
8, 35459, Note_on_c, 6, 65, 0
8, 35460, Note_on_c, 6, 58, 90
8, 35579, Note_on_c, 6, 58, 0
8, 35640, Note_on_c, 6, 57, 90
8, 35699, Note_on_c, 6, 57, 0
8, 35700, Note_on_c, 6, 60, 90
8, 35759, Note_on_c, 6, 60, 0
8, 35760, Note_on_c, 6, 64, 90
8, 35819, Note_on_c, 6, 64, 0
8, 35820, Note_on_c, 6, 57, 90
8, 35939, Note_on_c, 6, 57, 0
8, 36000, Note_on_c, 6, 55, 90
8, 36059, Note_on_c, 6, 55, 0
8, 36060, Note_on_c, 6, 58, 90
8, 36119, Note_on_c, 6, 58, 0
8, 36120, Note_on_c, 6, 62, 90
8, 36179, Note_on_c, 6, 62, 0
8, 36180, Note_on_c, 6, 55, 90
8, 36299, Note_on_c, 6, 55, 0
8, 36360, Note_on_c, 6, 53, 90
8, 36419, Note_on_c, 6, 53, 0
8, 36420, Note_on_c, 6, 57, 90
8, 36479, Note_on_c, 6, 57, 0
8, 36480, Note_on_c, 6, 60, 90
8, 36539, Note_on_c, 6, 60, 0
8, 36540, Note_on_c, 6, 53, 90
8, 36659, Note_on_c, 6, 53, 0
8, 36660, Note_on_c, 6, 60, 90
8, 36719, Note_on_c, 6, 60, 0
8, 36720, Note_on_c, 6, 60, 90
8, 36839, Note_on_c, 6, 60, 0
8, 36840, Note_on_c, 6, 62, 90
8, 36899, Note_on_c, 6, 62, 0
8, 36900, Note_on_c, 6, 62, 90
8, 36959, Note_on_c, 6, 62, 0
8, 36960, Note_on_c, 6, 61, 90
8, 37019, Note_on_c, 6, 61, 0
8, 37020, Note_on_c, 6, 57, 90
8, 37079, Note_on_c, 6, 57, 0
8, 37080, Note_on_c, 6, 65, 90
8, 37139, Note_on_c, 6, 65, 0
8, 37140, Note_on_c, 6, 63, 90
8, 37199, Note_on_c, 6, 63, 0
8, 37200, Note_on_c, 6, 63, 90
8, 37259, Note_on_c, 6, 63, 0
8, 37260, Note_on_c, 6, 65, 90
8, 37289, Note_on_c, 6, 65, 0
8, 37320, Note_on_c, 6, 65, 90
8, 37349, Note_on_c, 6, 65, 0
8, 37440, Note_on_c, 6, 70, 90
8, 37470, Note_on_c, 6, 70, 0
8, 37800, Note_on_c, 6, 69, 90
8, 37830, Note_on_c, 6, 69, 0
8, 38160, Note_on_c, 6, 65, 90
8, 38190, Note_on_c, 6, 65, 0
8, 38520, Note_on_c, 6, 65, 90
8, 38550, Note_on_c, 6, 65, 0
8, 38880, Note_on_c, 6, 65, 90
8, 38999, Note_on_c, 6, 65, 0
8, 39000, Note_on_c, 6, 67, 90
8, 39059, Note_on_c, 6, 67, 0
8, 39060, Note_on_c, 6, 63, 90
8, 39119, Note_on_c, 6, 63, 0
8, 39120, Note_on_c, 6, 60, 90
8, 39179, Note_on_c, 6, 60, 0
8, 39180, Note_on_c, 6, 62, 90
8, 39239, Note_on_c, 6, 62, 0
8, 39240, Note_on_c, 6, 58, 90
8, 39359, Note_on_c, 6, 58, 0
8, 39360, Note_on_c, 6, 62, 90
8, 39419, Note_on_c, 6, 62, 0
8, 39420, Note_on_c, 6, 60, 90
8, 39449, Note_on_c, 6, 60, 0
8, 39480, Note_on_c, 6, 64, 90
8, 39509, Note_on_c, 6, 64, 0
8, 39600, Note_on_c, 6, 60, 90
8, 39659, Note_on_c, 6, 60, 0
8, 39660, Note_on_c, 6, 58, 90
8, 39719, Note_on_c, 6, 58, 0
8, 39720, Note_on_c, 6, 60, 90
8, 39779, Note_on_c, 6, 60, 0
8, 39780, Note_on_c, 6, 58, 90
8, 39839, Note_on_c, 6, 58, 0
8, 39840, Note_on_c, 6, 60, 90
8, 39899, Note_on_c, 6, 60, 0
8, 39900, Note_on_c, 6, 57, 90
8, 39959, Note_on_c, 6, 57, 0
8, 39960, Note_on_c, 6, 62, 90
8, 40019, Note_on_c, 6, 62, 0
8, 40020, Note_on_c, 6, 60, 90
8, 40079, Note_on_c, 6, 60, 0
8, 40080, Note_on_c, 6, 58, 90
8, 40139, Note_on_c, 6, 58, 0
8, 40140, Note_on_c, 6, 57, 90
8, 40259, Note_on_c, 6, 57, 0
8, 40320, Note_on_c, 6, 60, 90
8, 40367, Note_on_c, 6, 60, 0
8, 40380, Note_on_c, 6, 60, 90
8, 40427, Note_on_c, 6, 60, 0
8, 40440, Note_on_c, 6, 60, 90
8, 40487, Note_on_c, 6, 60, 0
8, 40500, Note_on_c, 6, 60, 90
8, 40547, Note_on_c, 6, 60, 0
8, 40560, Note_on_c, 6, 60, 90
8, 40607, Note_on_c, 6, 60, 0
8, 40620, Note_on_c, 6, 60, 90
8, 40667, Note_on_c, 6, 60, 0
8, 40680, Note_on_c, 6, 67, 90
8, 40739, Note_on_c, 6, 67, 0
8, 40740, Note_on_c, 6, 69, 90
8, 40799, Note_on_c, 6, 69, 0
8, 40800, Note_on_c, 6, 70, 90
8, 40859, Note_on_c, 6, 70, 0
8, 40860, Note_on_c, 6, 72, 90
8, 40919, Note_on_c, 6, 72, 0
8, 40920, Note_on_c, 6, 70, 90
8, 40979, Note_on_c, 6, 70, 0
8, 40980, Note_on_c, 6, 69, 90
8, 41039, Note_on_c, 6, 69, 0
8, 41400, Note_on_c, 6, 69, 90
8, 41459, Note_on_c, 6, 69, 0
8, 41460, Note_on_c, 6, 70, 90
8, 41519, Note_on_c, 6, 70, 0
8, 41520, Note_on_c, 6, 72, 90
8, 41579, Note_on_c, 6, 72, 0
8, 41580, Note_on_c, 6, 74, 90
8, 41669, Note_on_c, 6, 74, 0
8, 41670, Note_on_c, 6, 72, 90
8, 41699, Note_on_c, 6, 72, 0
8, 41700, Note_on_c, 6, 70, 90
8, 41729, Note_on_c, 6, 70, 0
8, 41730, Note_on_c, 6, 69, 90
8, 41759, Note_on_c, 6, 69, 0
8, 41760, Note_on_c, 6, 67, 90
8, 41819, Note_on_c, 6, 67, 0
8, 41820, Note_on_c, 6, 70, 90
8, 41879, Note_on_c, 6, 70, 0
8, 41880, Note_on_c, 6, 74, 90
8, 41939, Note_on_c, 6, 74, 0
8, 41940, Note_on_c, 6, 67, 90
8, 42059, Note_on_c, 6, 67, 0
8, 42120, Note_on_c, 6, 65, 90
8, 42179, Note_on_c, 6, 65, 0
8, 42180, Note_on_c, 6, 69, 90
8, 42239, Note_on_c, 6, 69, 0
8, 42240, Note_on_c, 6, 72, 90
8, 42299, Note_on_c, 6, 72, 0
8, 42300, Note_on_c, 6, 65, 90
8, 42419, Note_on_c, 6, 65, 0
8, 42480, Note_on_c, 6, 67, 90
8, 42509, Note_on_c, 6, 67, 0
8, 42510, Note_on_c, 6, 69, 90
8, 42539, Note_on_c, 6, 69, 0
8, 42540, Note_on_c, 6, 67, 90
8, 42569, Note_on_c, 6, 67, 0
8, 42570, Note_on_c, 6, 65, 90
8, 42599, Note_on_c, 6, 65, 0
8, 42600, Note_on_c, 6, 67, 90
8, 42629, Note_on_c, 6, 67, 0
8, 42630, Note_on_c, 6, 64, 90
8, 42659, Note_on_c, 6, 64, 0
8, 42660, Note_on_c, 6, 60, 90
8, 42689, Note_on_c, 6, 60, 0
8, 42720, Note_on_c, 6, 65, 90
8, 42749, Note_on_c, 6, 65, 0
8, 42900, Note_on_c, 6, 62, 90
8, 42929, Note_on_c, 6, 62, 0
8, 42960, Note_on_c, 6, 55, 90
8, 42989, Note_on_c, 6, 55, 0
8, 43020, Note_on_c, 6, 57, 90
8, 43199, Note_on_c, 6, 57, 0
8, 46740, Note_on_c, 6, 69, 90
8, 46979, Note_on_c, 6, 69, 0
8, 46980, Note_on_c, 6, 70, 90
8, 47099, Note_on_c, 6, 70, 0
8, 47100, Note_on_c, 6, 64, 90
8, 47219, Note_on_c, 6, 64, 0
8, 47220, Note_on_c, 6, 65, 90
8, 47699, Note_on_c, 6, 65, 0
8, 47700, Note_on_c, 6, 62, 90
8, 47939, Note_on_c, 6, 62, 0
8, 47940, Note_on_c, 6, 59, 90
8, 48179, Note_on_c, 6, 59, 0
8, 48180, Note_on_c, 6, 55, 90
8, 48659, Note_on_c, 6, 55, 0
8, 48660, Note_on_c, 6, 57, 90
8, 49500, Note_on_c, 6, 57, 0
8, 49500, Note_on_c, 6, 60, 90
8, 49619, Note_on_c, 6, 60, 0
8, 49620, Note_on_c, 6, 62, 90
8, 50339, Note_on_c, 6, 62, 0
8, 50340, Note_on_c, 6, 60, 90
8, 50459, Note_on_c, 6, 60, 0
8, 50460, Note_on_c, 6, 53, 90
8, 50579, Note_on_c, 6, 53, 0
8, 50580, Note_on_c, 6, 65, 90
8, 50699, Note_on_c, 6, 65, 0
8, 50700, Note_on_c, 6, 53, 90
8, 50819, Note_on_c, 6, 53, 0
8, 50940, Note_on_c, 6, 60, 90
8, 51059, Note_on_c, 6, 60, 0
8, 51060, Note_on_c, 6, 60, 90
8, 51179, Note_on_c, 6, 60, 0
8, 51180, Note_on_c, 6, 65, 90
8, 51239, Note_on_c, 6, 65, 0
8, 51240, Note_on_c, 6, 60, 90
8, 51299, Note_on_c, 6, 60, 0
8, 51300, Note_on_c, 6, 57, 90
8, 51419, Note_on_c, 6, 57, 0
8, 51480, Note_on_c, 6, 60, 90
8, 51539, Note_on_c, 6, 60, 0
8, 51540, Note_on_c, 6, 58, 90
8, 51659, Note_on_c, 6, 58, 0
8, 51720, Note_on_c, 6, 53, 90
8, 51779, Note_on_c, 6, 53, 0
8, 51780, Note_on_c, 6, 62, 90
8, 51839, Note_on_c, 6, 62, 0
8, 51840, Note_on_c, 6, 60, 90
8, 51959, Note_on_c, 6, 60, 0
8, 51960, Note_on_c, 6, 53, 90
8, 52019, Note_on_c, 6, 53, 0
8, 52020, Note_on_c, 6, 62, 90
8, 52079, Note_on_c, 6, 62, 0
8, 52080, Note_on_c, 6, 58, 90
8, 52139, Note_on_c, 6, 58, 0
8, 52140, Note_on_c, 6, 55, 90
8, 52199, Note_on_c, 6, 55, 0
8, 52320, Note_on_c, 6, 55, 90
8, 52379, Note_on_c, 6, 55, 0
8, 52380, Note_on_c, 6, 53, 90
8, 52439, Note_on_c, 6, 53, 0
8, 52440, Note_on_c, 6, 58, 90
8, 52559, Note_on_c, 6, 58, 0
8, 52560, Note_on_c, 6, 55, 90
8, 52619, Note_on_c, 6, 55, 0
8, 52620, Note_on_c, 6, 60, 90
8, 52679, Note_on_c, 6, 60, 0
8, 52680, Note_on_c, 6, 58, 90
8, 52709, Note_on_c, 6, 58, 0
8, 52710, Note_on_c, 6, 57, 90
8, 52739, Note_on_c, 6, 57, 0
8, 52740, Note_on_c, 6, 62, 90
8, 52799, Note_on_c, 6, 62, 0
8, 52800, Note_on_c, 6, 58, 90
8, 52859, Note_on_c, 6, 58, 0
8, 52860, Note_on_c, 6, 55, 90
8, 52919, Note_on_c, 6, 55, 0
8, 52920, Note_on_c, 6, 60, 90
8, 52979, Note_on_c, 6, 60, 0
8, 52980, Note_on_c, 6, 53, 90
8, 53099, Note_on_c, 6, 53, 0
8, 53160, Note_on_c, 6, 60, 90
8, 53219, Note_on_c, 6, 60, 0
8, 53220, Note_on_c, 6, 55, 90
8, 53279, Note_on_c, 6, 55, 0
8, 53280, Note_on_c, 6, 60, 90
8, 53339, Note_on_c, 6, 60, 0
8, 53340, Note_on_c, 6, 53, 90
8, 53399, Note_on_c, 6, 53, 0
8, 53400, Note_on_c, 6, 58, 90
8, 53519, Note_on_c, 6, 58, 0
8, 53520, Note_on_c, 6, 60, 90
8, 53549, Note_on_c, 6, 60, 0
8, 53550, Note_on_c, 6, 62, 90
8, 53579, Note_on_c, 6, 62, 0
8, 53580, Note_on_c, 6, 60, 90
8, 53699, Note_on_c, 6, 60, 0
8, 53700, Note_on_c, 6, 60, 90
8, 53879, Note_on_c, 6, 60, 0
8, 53880, Note_on_c, 6, 58, 90
8, 53909, Note_on_c, 6, 58, 0
8, 53910, Note_on_c, 6, 57, 90
8, 53939, Note_on_c, 6, 57, 0
8, 53940, Note_on_c, 6, 55, 90
8, 53999, Note_on_c, 6, 55, 0
8, 54000, Note_on_c, 6, 52, 90
8, 54059, Note_on_c, 6, 52, 0
8, 54060, Note_on_c, 6, 48, 90
8, 54299, Note_on_c, 6, 48, 0
8, 54360, Note_on_c, 6, 62, 90
8, 54419, Note_on_c, 6, 62, 0
8, 54420, Note_on_c, 6, 63, 90
8, 54479, Note_on_c, 6, 63, 0
8, 54480, Note_on_c, 6, 62, 90
8, 54510, Note_on_c, 6, 62, 0
8, 54510, Note_on_c, 6, 60, 90
8, 54540, Note_on_c, 6, 60, 0
8, 54540, Note_on_c, 6, 62, 90
8, 54600, Note_on_c, 6, 62, 0
8, 54600, Note_on_c, 6, 67, 90
8, 54660, Note_on_c, 6, 67, 0
8, 54660, Note_on_c, 6, 67, 90
8, 55380, Note_on_c, 6, 67, 0
8, 55380, Note_on_c, 6, 64, 90
8, 55500, Note_on_c, 6, 64, 0
8, 55500, Note_on_c, 6, 61, 90
8, 55620, Note_on_c, 6, 61, 0
8, 55620, Note_on_c, 6, 57, 90
8, 55860, Note_on_c, 6, 57, 0
8, 55860, Note_on_c, 6, 56, 90
8, 56100, Note_on_c, 6, 56, 0
8, 56100, Note_on_c, 6, 59, 90
8, 56820, Note_on_c, 6, 59, 0
8, 56820, Note_on_c, 6, 60, 90
8, 56940, Note_on_c, 6, 60, 0
8, 56940, Note_on_c, 6, 66, 90
8, 57180, Note_on_c, 6, 66, 0
8, 57180, Note_on_c, 6, 67, 90
8, 57300, Note_on_c, 6, 67, 0
8, 57300, Note_on_c, 6, 69, 90
8, 57420, Note_on_c, 6, 69, 0
8, 57420, Note_on_c, 6, 67, 90
8, 57480, Note_on_c, 6, 67, 0
8, 57480, Note_on_c, 6, 55, 90
8, 57540, Note_on_c, 6, 55, 0
8, 57540, Note_on_c, 6, 62, 90
8, 57660, Note_on_c, 6, 62, 0
8, 57660, Note_on_c, 6, 68, 90
8, 58380, Note_on_c, 6, 68, 0
8, 58380, Note_on_c, 6, 67, 90
8, 58500, Note_on_c, 6, 67, 0
8, 58500, Note_on_c, 6, 67, 90
8, 58740, Note_on_c, 6, 67, 0
8, 58740, Note_on_c, 6, 66, 90
8, 58860, Note_on_c, 6, 66, 0
8, 58860, Note_on_c, 6, 69, 90
8, 59460, Note_on_c, 6, 69, 0
8, 59460, Note_on_c, 6, 68, 90
8, 59580, Note_on_c, 6, 68, 0
8, 59580, Note_on_c, 6, 66, 90
8, 59700, Note_on_c, 6, 66, 0
8, 59820, Note_on_c, 6, 67, 90
8, 59880, Note_on_c, 6, 67, 0
8, 59880, Note_on_c, 6, 62, 90
8, 59940, Note_on_c, 6, 62, 0
8, 59940, Note_on_c, 6, 64, 90
8, 60060, Note_on_c, 6, 64, 0
8, 109980, Note_on_c, 6, 62, 90
8, 110459, Note_on_c, 6, 62, 0
8, 110460, Note_on_c, 6, 60, 90
8, 110579, Note_on_c, 6, 60, 0
8, 110580, Note_on_c, 6, 60, 90
8, 110639, Note_on_c, 6, 60, 0
8, 110640, Note_on_c, 6, 55, 90
8, 110699, Note_on_c, 6, 55, 0
8, 110700, Note_on_c, 6, 57, 90
8, 110759, Note_on_c, 6, 57, 0
8, 110880, Note_on_c, 6, 65, 90
8, 110909, Note_on_c, 6, 65, 0
8, 110910, Note_on_c, 6, 64, 90
8, 110939, Note_on_c, 6, 64, 0
8, 110940, Note_on_c, 6, 62, 90
8, 110999, Note_on_c, 6, 62, 0
8, 111000, Note_on_c, 6, 64, 90
8, 111029, Note_on_c, 6, 64, 0
8, 111030, Note_on_c, 6, 65, 90
8, 111059, Note_on_c, 6, 65, 0
8, 111060, Note_on_c, 6, 67, 90
8, 111119, Note_on_c, 6, 67, 0
8, 111120, Note_on_c, 6, 60, 90
8, 111179, Note_on_c, 6, 60, 0
8, 111180, Note_on_c, 6, 62, 90
8, 111359, Note_on_c, 6, 62, 0
8, 111360, Note_on_c, 6, 64, 90
8, 111389, Note_on_c, 6, 64, 0
8, 111390, Note_on_c, 6, 65, 90
8, 111419, Note_on_c, 6, 65, 0
8, 111420, Note_on_c, 6, 64, 90
8, 111479, Note_on_c, 6, 64, 0
8, 111480, Note_on_c, 6, 68, 90
8, 111509, Note_on_c, 6, 68, 0
8, 111510, Note_on_c, 6, 69, 90
8, 111539, Note_on_c, 6, 69, 0
8, 111540, Note_on_c, 6, 71, 90
8, 111599, Note_on_c, 6, 71, 0
8, 111600, Note_on_c, 6, 64, 90
8, 111659, Note_on_c, 6, 64, 0
8, 111660, Note_on_c, 6, 64, 90
8, 111779, Note_on_c, 6, 64, 0
8, 111840, Note_on_c, 6, 60, 90
8, 111899, Note_on_c, 6, 60, 0
8, 111900, Note_on_c, 6, 65, 90
8, 112019, Note_on_c, 6, 65, 0
8, 112020, Note_on_c, 6, 64, 90
8, 112139, Note_on_c, 6, 64, 0
8, 112140, Note_on_c, 6, 60, 90
8, 112859, Note_on_c, 6, 60, 0
8, 112860, Note_on_c, 6, 57, 90
8, 112919, Note_on_c, 6, 57, 0
8, 112920, Note_on_c, 6, 62, 90
8, 113039, Note_on_c, 6, 62, 0
8, 113040, Note_on_c, 6, 60, 90
8, 113069, Note_on_c, 6, 60, 0
8, 113070, Note_on_c, 6, 58, 90
8, 113099, Note_on_c, 6, 58, 0
8, 113100, Note_on_c, 6, 57, 90
8, 113219, Note_on_c, 6, 57, 0
8, 113220, Note_on_c, 6, 55, 90
8, 113399, Note_on_c, 6, 55, 0
8, 113400, Note_on_c, 6, 60, 90
8, 113519, Note_on_c, 6, 60, 0
8, 113520, Note_on_c, 6, 58, 90
8, 113639, Note_on_c, 6, 58, 0
8, 113640, Note_on_c, 6, 57, 90
8, 113669, Note_on_c, 6, 57, 0
8, 113670, Note_on_c, 6, 55, 90
8, 113699, Note_on_c, 6, 55, 0
8, 113700, Note_on_c, 6, 62, 90
8, 113759, Note_on_c, 6, 62, 0
8, 113760, Note_on_c, 6, 69, 90
8, 113819, Note_on_c, 6, 69, 0
8, 113820, Note_on_c, 6, 67, 90
8, 114360, Note_on_c, 6, 67, 0
8, 114360, Note_on_c, 6, 65, 90
8, 114419, Note_on_c, 6, 65, 0
8, 114420, Note_on_c, 6, 67, 90
8, 114479, Note_on_c, 6, 67, 0
8, 114480, Note_on_c, 6, 64, 90
8, 114539, Note_on_c, 6, 64, 0
8, 114540, Note_on_c, 6, 60, 90
8, 114599, Note_on_c, 6, 60, 0
8, 114600, Note_on_c, 6, 65, 90
8, 114659, Note_on_c, 6, 65, 0
8, 114660, Note_on_c, 6, 60, 90
8, 114779, Note_on_c, 6, 60, 0
8, 114780, Note_on_c, 6, 58, 90
8, 114959, Note_on_c, 6, 58, 0
8, 114960, Note_on_c, 6, 62, 90
8, 115019, Note_on_c, 6, 62, 0
8, 115020, Note_on_c, 6, 60, 90
8, 115139, Note_on_c, 6, 60, 0
8, 115140, Note_on_c, 6, 67, 90
8, 115619, Note_on_c, 6, 67, 0
8, 115620, Note_on_c, 6, 64, 90
8, 115739, Note_on_c, 6, 64, 0
8, 115740, Note_on_c, 6, 60, 90
8, 115919, Note_on_c, 6, 60, 0
8, 115920, Note_on_c, 6, 58, 90
8, 115949, Note_on_c, 6, 58, 0
8, 115950, Note_on_c, 6, 57, 90
8, 115979, Note_on_c, 6, 57, 0
8, 115980, Note_on_c, 6, 58, 90
8, 116099, Note_on_c, 6, 58, 0
8, 116160, Note_on_c, 6, 55, 90
8, 116219, Note_on_c, 6, 55, 0
8, 116220, Note_on_c, 6, 62, 90
8, 116339, Note_on_c, 6, 62, 0
8, 116400, Note_on_c, 6, 67, 90
8, 116459, Note_on_c, 6, 67, 0
8, 116460, Note_on_c, 6, 65, 90
8, 116760, Note_on_c, 6, 65, 0
8, 116760, Note_on_c, 6, 63, 90
8, 116819, Note_on_c, 6, 63, 0
8, 116820, Note_on_c, 6, 62, 90
8, 116879, Note_on_c, 6, 62, 0
8, 116880, Note_on_c, 6, 60, 90
8, 116939, Note_on_c, 6, 60, 0
8, 116940, Note_on_c, 6, 58, 90
8, 117059, Note_on_c, 6, 58, 0
8, 117120, Note_on_c, 6, 58, 90
8, 117179, Note_on_c, 6, 58, 0
8, 117180, Note_on_c, 6, 60, 90
8, 117239, Note_on_c, 6, 60, 0
8, 117240, Note_on_c, 6, 53, 90
8, 117299, Note_on_c, 6, 53, 0
8, 117300, Note_on_c, 6, 55, 90
8, 117359, Note_on_c, 6, 55, 0
8, 117360, Note_on_c, 6, 60, 90
8, 117419, Note_on_c, 6, 60, 0
8, 117420, Note_on_c, 6, 60, 90
8, 117539, Note_on_c, 6, 60, 0
8, 117600, Note_on_c, 6, 69, 90
8, 117659, Note_on_c, 6, 69, 0
8, 117660, Note_on_c, 6, 69, 90
8, 117719, Note_on_c, 6, 69, 0
8, 117720, Note_on_c, 6, 65, 90
8, 117779, Note_on_c, 6, 65, 0
8, 117840, Note_on_c, 6, 57, 90
8, 117899, Note_on_c, 6, 57, 0
8, 117900, Note_on_c, 6, 57, 90
8, 117959, Note_on_c, 6, 57, 0
8, 117960, Note_on_c, 6, 53, 90
8, 118019, Note_on_c, 6, 53, 0
8, 118080, Note_on_c, 6, 52, 90
8, 118139, Note_on_c, 6, 52, 0
8, 118140, Note_on_c, 6, 48, 90
8, 118259, Note_on_c, 6, 48, 0
8, 174480, Note_on_c, 6, 65, 90
8, 174509, Note_on_c, 6, 65, 0
8, 174510, Note_on_c, 6, 64, 90
8, 174539, Note_on_c, 6, 64, 0
8, 174540, Note_on_c, 6, 65, 90
8, 174599, Note_on_c, 6, 65, 0
8, 174600, Note_on_c, 6, 65, 90
8, 174659, Note_on_c, 6, 65, 0
8, 174660, Note_on_c, 6, 65, 90
8, 174719, Note_on_c, 6, 65, 0
8, 174720, Note_on_c, 6, 60, 90
8, 174779, Note_on_c, 6, 60, 0
8, 174840, Note_on_c, 6, 60, 90
8, 174869, Note_on_c, 6, 60, 0
8, 174870, Note_on_c, 6, 58, 90
8, 174899, Note_on_c, 6, 58, 0
8, 174900, Note_on_c, 6, 60, 90
8, 174959, Note_on_c, 6, 60, 0
8, 174960, Note_on_c, 6, 60, 90
8, 175019, Note_on_c, 6, 60, 0
8, 175020, Note_on_c, 6, 60, 90
8, 175079, Note_on_c, 6, 60, 0
8, 175080, Note_on_c, 6, 57, 90
8, 175139, Note_on_c, 6, 57, 0
8, 175320, Note_on_c, 6, 69, 90
8, 175379, Note_on_c, 6, 69, 0
8, 175380, Note_on_c, 6, 74, 90
8, 175499, Note_on_c, 6, 74, 0
8, 175680, Note_on_c, 6, 67, 90
8, 175739, Note_on_c, 6, 67, 0
8, 175740, Note_on_c, 6, 69, 90
8, 175799, Note_on_c, 6, 69, 0
8, 175800, Note_on_c, 6, 65, 90
8, 175859, Note_on_c, 6, 65, 0
8, 175860, Note_on_c, 6, 60, 90
8, 176280, Note_on_c, 6, 60, 0
8, 176280, Note_on_c, 6, 58, 90
8, 176339, Note_on_c, 6, 58, 0
8, 176340, Note_on_c, 6, 57, 90
8, 176459, Note_on_c, 6, 57, 0
8, 176460, Note_on_c, 6, 58, 90
8, 176699, Note_on_c, 6, 58, 0
8, 176700, Note_on_c, 6, 57, 90
8, 176759, Note_on_c, 6, 57, 0
8, 176760, Note_on_c, 6, 58, 90
8, 176789, Note_on_c, 6, 58, 0
8, 176790, Note_on_c, 6, 60, 90
8, 176819, Note_on_c, 6, 60, 0
8, 176820, Note_on_c, 6, 60, 90
8, 176939, Note_on_c, 6, 60, 0
8, 176940, Note_on_c, 6, 58, 90
8, 176999, Note_on_c, 6, 58, 0
8, 177000, Note_on_c, 6, 57, 90
8, 177059, Note_on_c, 6, 57, 0
8, 177060, Note_on_c, 6, 58, 90
8, 177179, Note_on_c, 6, 58, 0
8, 177180, Note_on_c, 6, 57, 90
8, 177299, Note_on_c, 6, 57, 0
8, 177960, Note_on_c, 6, 65, 90
8, 177989, Note_on_c, 6, 65, 0
8, 177990, Note_on_c, 6, 67, 90
8, 178019, Note_on_c, 6, 67, 0
8, 178020, Note_on_c, 6, 69, 90
8, 178079, Note_on_c, 6, 69, 0
8, 178080, Note_on_c, 6, 57, 90
8, 178139, Note_on_c, 6, 57, 0
8, 178140, Note_on_c, 6, 62, 90
8, 178199, Note_on_c, 6, 62, 0
8, 178200, Note_on_c, 6, 65, 90
8, 178259, Note_on_c, 6, 65, 0
8, 178260, Note_on_c, 6, 67, 90
8, 178319, Note_on_c, 6, 67, 0
8, 178320, Note_on_c, 6, 70, 90
8, 178379, Note_on_c, 6, 70, 0
8, 178380, Note_on_c, 6, 64, 90
8, 178499, Note_on_c, 6, 64, 0
8, 178500, Note_on_c, 6, 69, 90
8, 178619, Note_on_c, 6, 69, 0
8, 178620, Note_on_c, 6, 69, 90
8, 178679, Note_on_c, 6, 69, 0
8, 178680, Note_on_c, 6, 65, 90
8, 178739, Note_on_c, 6, 65, 0
8, 178740, Note_on_c, 6, 62, 90
8, 178979, Note_on_c, 6, 62, 0
8, 178980, Note_on_c, 6, 60, 90
8, 179039, Note_on_c, 6, 60, 0
8, 179040, Note_on_c, 6, 58, 90
8, 179099, Note_on_c, 6, 58, 0
8, 179100, Note_on_c, 6, 57, 90
8, 179339, Note_on_c, 6, 57, 0
8, 179340, Note_on_c, 6, 62, 90
8, 179399, Note_on_c, 6, 62, 0
8, 179400, Note_on_c, 6, 60, 90
8, 179459, Note_on_c, 6, 60, 0
8, 179460, Note_on_c, 6, 60, 90
8, 179699, Note_on_c, 6, 60, 0
8, 179700, Note_on_c, 6, 60, 90
8, 179819, Note_on_c, 6, 60, 0
8, 179880, Note_on_c, 6, 60, 90
8, 179909, Note_on_c, 6, 60, 0
8, 179910, Note_on_c, 6, 60, 90
8, 179939, Note_on_c, 6, 60, 0
8, 179940, Note_on_c, 6, 60, 90
8, 179999, Note_on_c, 6, 60, 0
8, 180000, Note_on_c, 6, 60, 90
8, 180059, Note_on_c, 6, 60, 0
8, 180060, Note_on_c, 6, 60, 90
8, 180119, Note_on_c, 6, 60, 0
8, 180120, Note_on_c, 6, 65, 90
8, 180179, Note_on_c, 6, 65, 0
8, 180240, Note_on_c, 6, 65, 90
8, 180269, Note_on_c, 6, 65, 0
8, 180270, Note_on_c, 6, 64, 90
8, 180299, Note_on_c, 6, 64, 0
8, 180300, Note_on_c, 6, 65, 90
8, 180359, Note_on_c, 6, 65, 0
8, 180360, Note_on_c, 6, 65, 90
8, 180419, Note_on_c, 6, 65, 0
8, 180420, Note_on_c, 6, 65, 90
8, 180479, Note_on_c, 6, 65, 0
8, 180480, Note_on_c, 6, 60, 90
8, 180539, Note_on_c, 6, 60, 0
8, 180600, Note_on_c, 6, 60, 90
8, 180629, Note_on_c, 6, 60, 0
8, 180630, Note_on_c, 6, 58, 90
8, 180659, Note_on_c, 6, 58, 0
8, 180660, Note_on_c, 6, 60, 90
8, 180719, Note_on_c, 6, 60, 0
8, 180720, Note_on_c, 6, 60, 90
8, 180779, Note_on_c, 6, 60, 0
8, 180780, Note_on_c, 6, 60, 90
8, 180839, Note_on_c, 6, 60, 0
8, 180840, Note_on_c, 6, 57, 90
8, 180899, Note_on_c, 6, 57, 0
8, 181080, Note_on_c, 6, 69, 90
8, 181139, Note_on_c, 6, 69, 0
8, 181140, Note_on_c, 6, 74, 90
8, 181259, Note_on_c, 6, 74, 0
8, 181440, Note_on_c, 6, 67, 90
8, 181499, Note_on_c, 6, 67, 0
8, 181500, Note_on_c, 6, 69, 90
8, 181559, Note_on_c, 6, 69, 0
8, 181560, Note_on_c, 6, 65, 90
8, 181619, Note_on_c, 6, 65, 0
8, 181620, Note_on_c, 6, 60, 90
8, 182040, Note_on_c, 6, 60, 0
8, 182040, Note_on_c, 6, 58, 90
8, 182099, Note_on_c, 6, 58, 0
8, 182100, Note_on_c, 6, 57, 90
8, 182219, Note_on_c, 6, 57, 0
8, 182220, Note_on_c, 6, 58, 90
8, 182459, Note_on_c, 6, 58, 0
8, 182460, Note_on_c, 6, 57, 90
8, 182519, Note_on_c, 6, 57, 0
8, 182520, Note_on_c, 6, 58, 90
8, 182549, Note_on_c, 6, 58, 0
8, 182550, Note_on_c, 6, 60, 90
8, 182579, Note_on_c, 6, 60, 0
8, 182580, Note_on_c, 6, 60, 90
8, 182699, Note_on_c, 6, 60, 0
8, 182700, Note_on_c, 6, 58, 90
8, 182759, Note_on_c, 6, 58, 0
8, 182760, Note_on_c, 6, 57, 90
8, 182819, Note_on_c, 6, 57, 0
8, 182820, Note_on_c, 6, 58, 90
8, 182939, Note_on_c, 6, 58, 0
8, 182940, Note_on_c, 6, 57, 90
8, 183059, Note_on_c, 6, 57, 0
8, 183720, Note_on_c, 6, 65, 90
8, 183749, Note_on_c, 6, 65, 0
8, 183750, Note_on_c, 6, 67, 90
8, 183779, Note_on_c, 6, 67, 0
8, 183780, Note_on_c, 6, 69, 90
8, 183839, Note_on_c, 6, 69, 0
8, 183840, Note_on_c, 6, 57, 90
8, 183899, Note_on_c, 6, 57, 0
8, 183900, Note_on_c, 6, 62, 90
8, 183959, Note_on_c, 6, 62, 0
8, 183960, Note_on_c, 6, 65, 90
8, 184019, Note_on_c, 6, 65, 0
8, 184020, Note_on_c, 6, 67, 90
8, 184079, Note_on_c, 6, 67, 0
8, 184080, Note_on_c, 6, 70, 90
8, 184139, Note_on_c, 6, 70, 0
8, 184140, Note_on_c, 6, 64, 90
8, 184259, Note_on_c, 6, 64, 0
8, 184260, Note_on_c, 6, 69, 90
8, 184379, Note_on_c, 6, 69, 0
8, 184380, Note_on_c, 6, 69, 90
8, 184439, Note_on_c, 6, 69, 0
8, 184440, Note_on_c, 6, 65, 90
8, 184499, Note_on_c, 6, 65, 0
8, 184500, Note_on_c, 6, 62, 90
8, 184739, Note_on_c, 6, 62, 0
8, 184740, Note_on_c, 6, 60, 90
8, 184799, Note_on_c, 6, 60, 0
8, 184800, Note_on_c, 6, 58, 90
8, 184859, Note_on_c, 6, 58, 0
8, 184860, Note_on_c, 6, 57, 90
8, 185099, Note_on_c, 6, 57, 0
8, 185100, Note_on_c, 6, 62, 90
8, 185159, Note_on_c, 6, 62, 0
8, 185160, Note_on_c, 6, 60, 90
8, 185219, Note_on_c, 6, 60, 0
8, 185220, Note_on_c, 6, 60, 90
8, 185459, Note_on_c, 6, 60, 0
8, 185460, Note_on_c, 6, 60, 90
8, 185579, Note_on_c, 6, 60, 0
8, 185640, Note_on_c, 6, 60, 90
8, 185669, Note_on_c, 6, 60, 0
8, 185670, Note_on_c, 6, 60, 90
8, 185699, Note_on_c, 6, 60, 0
8, 185700, Note_on_c, 6, 60, 90
8, 185759, Note_on_c, 6, 60, 0
8, 185760, Note_on_c, 6, 60, 90
8, 185819, Note_on_c, 6, 60, 0
8, 185820, Note_on_c, 6, 60, 90
8, 185879, Note_on_c, 6, 60, 0
8, 185880, Note_on_c, 6, 65, 90
8, 185939, Note_on_c, 6, 65, 0
8, 186000, Note_on_c, 6, 62, 90
8, 186029, Note_on_c, 6, 62, 0
8, 186030, Note_on_c, 6, 62, 90
8, 186059, Note_on_c, 6, 62, 0
8, 186060, Note_on_c, 6, 62, 90
8, 186119, Note_on_c, 6, 62, 0
8, 186120, Note_on_c, 6, 62, 90
8, 186179, Note_on_c, 6, 62, 0
8, 186180, Note_on_c, 6, 62, 90
8, 186239, Note_on_c, 6, 62, 0
8, 186240, Note_on_c, 6, 67, 90
8, 186299, Note_on_c, 6, 67, 0
8, 186360, Note_on_c, 6, 62, 90
8, 186389, Note_on_c, 6, 62, 0
8, 186390, Note_on_c, 6, 60, 90
8, 186419, Note_on_c, 6, 60, 0
8, 186420, Note_on_c, 6, 62, 90
8, 186479, Note_on_c, 6, 62, 0
8, 186480, Note_on_c, 6, 64, 90
8, 186539, Note_on_c, 6, 64, 0
8, 186540, Note_on_c, 6, 64, 90
8, 186659, Note_on_c, 6, 64, 0
8, 186900, Note_on_c, 6, 67, 90
8, 187019, Note_on_c, 6, 67, 0
8, 187260, Note_on_c, 6, 67, 90
8, 187319, Note_on_c, 6, 67, 0
8, 187320, Note_on_c, 6, 65, 90
8, 187379, Note_on_c, 6, 65, 0
8, 187380, Note_on_c, 6, 67, 90
8, 187499, Note_on_c, 6, 67, 0
8, 187500, Note_on_c, 6, 64, 90
8, 187619, Note_on_c, 6, 64, 0
8, 187620, Note_on_c, 6, 60, 90
8, 187859, Note_on_c, 6, 60, 0
8, 187860, Note_on_c, 6, 58, 90
8, 188099, Note_on_c, 6, 58, 0
8, 188100, Note_on_c, 6, 57, 90
8, 188219, Note_on_c, 6, 57, 0
8, 188220, Note_on_c, 6, 62, 90
8, 188279, Note_on_c, 6, 62, 0
8, 188280, Note_on_c, 6, 60, 90
8, 188339, Note_on_c, 6, 60, 0
8, 188340, Note_on_c, 6, 58, 90
8, 188459, Note_on_c, 6, 58, 0
8, 188460, Note_on_c, 6, 57, 90
8, 188519, Note_on_c, 6, 57, 0
8, 188520, Note_on_c, 6, 55, 90
8, 188579, Note_on_c, 6, 55, 0
8, 188580, Note_on_c, 6, 57, 90
8, 188699, Note_on_c, 6, 57, 0
8, 188700, Note_on_c, 6, 62, 90
8, 188819, Note_on_c, 6, 62, 0
8, 188880, Note_on_c, 6, 74, 90
8, 188909, Note_on_c, 6, 74, 0
8, 188910, Note_on_c, 6, 73, 90
8, 188939, Note_on_c, 6, 73, 0
8, 188940, Note_on_c, 6, 74, 90
8, 188999, Note_on_c, 6, 74, 0
8, 189000, Note_on_c, 6, 74, 90
8, 189059, Note_on_c, 6, 74, 0
8, 189060, Note_on_c, 6, 74, 90
8, 189119, Note_on_c, 6, 74, 0
8, 189120, Note_on_c, 6, 69, 90
8, 189179, Note_on_c, 6, 69, 0
8, 189480, Note_on_c, 6, 69, 90
8, 189509, Note_on_c, 6, 69, 0
8, 189510, Note_on_c, 6, 67, 90
8, 189539, Note_on_c, 6, 67, 0
8, 189540, Note_on_c, 6, 65, 90
8, 189599, Note_on_c, 6, 65, 0
8, 189600, Note_on_c, 6, 62, 90
8, 189659, Note_on_c, 6, 62, 0
8, 189660, Note_on_c, 6, 58, 90
8, 189719, Note_on_c, 6, 58, 0
8, 189720, Note_on_c, 6, 70, 90
8, 189749, Note_on_c, 6, 70, 0
8, 189750, Note_on_c, 6, 69, 90
8, 189779, Note_on_c, 6, 69, 0
8, 189780, Note_on_c, 6, 67, 90
8, 189839, Note_on_c, 6, 67, 0
8, 189840, Note_on_c, 6, 55, 90
8, 189899, Note_on_c, 6, 55, 0
8, 189900, Note_on_c, 6, 53, 90
8, 189959, Note_on_c, 6, 53, 0
8, 189960, Note_on_c, 6, 63, 90
8, 189989, Note_on_c, 6, 63, 0
8, 189990, Note_on_c, 6, 62, 90
8, 190019, Note_on_c, 6, 62, 0
8, 190020, Note_on_c, 6, 63, 90
8, 190079, Note_on_c, 6, 63, 0
8, 190080, Note_on_c, 6, 65, 90
8, 190109, Note_on_c, 6, 65, 0
8, 190110, Note_on_c, 6, 63, 90
8, 190139, Note_on_c, 6, 63, 0
8, 190140, Note_on_c, 6, 62, 90
8, 190259, Note_on_c, 6, 62, 0
8, 190260, Note_on_c, 6, 67, 90
8, 190379, Note_on_c, 6, 67, 0
8, 190380, Note_on_c, 6, 60, 90
8, 190499, Note_on_c, 6, 60, 0
8, 190500, Note_on_c, 6, 60, 90
8, 190739, Note_on_c, 6, 60, 0
8, 190740, Note_on_c, 6, 55, 90
8, 190859, Note_on_c, 6, 55, 0
8, 190860, Note_on_c, 6, 53, 90
8, 191099, Note_on_c, 6, 53, 0
8, 191100, Note_on_c, 6, 62, 90
8, 191219, Note_on_c, 6, 62, 0
8, 191220, Note_on_c, 6, 55, 90
8, 191339, Note_on_c, 6, 55, 0
8, 191340, Note_on_c, 6, 60, 90
8, 191459, Note_on_c, 6, 60, 0
8, 191460, Note_on_c, 6, 58, 90
8, 191579, Note_on_c, 6, 58, 0
8, 191580, Note_on_c, 6, 57, 90
8, 191699, Note_on_c, 6, 57, 0
8, 191760, Note_on_c, 6, 65, 90
8, 191789, Note_on_c, 6, 65, 0
8, 191790, Note_on_c, 6, 64, 90
8, 191819, Note_on_c, 6, 64, 0
8, 191820, Note_on_c, 6, 65, 90
8, 191879, Note_on_c, 6, 65, 0
8, 191880, Note_on_c, 6, 65, 90
8, 191939, Note_on_c, 6, 65, 0
8, 191940, Note_on_c, 6, 65, 90
8, 191999, Note_on_c, 6, 65, 0
8, 192000, Note_on_c, 6, 60, 90
8, 192059, Note_on_c, 6, 60, 0
8, 192120, Note_on_c, 6, 60, 90
8, 192149, Note_on_c, 6, 60, 0
8, 192150, Note_on_c, 6, 58, 90
8, 192179, Note_on_c, 6, 58, 0
8, 192180, Note_on_c, 6, 60, 90
8, 192239, Note_on_c, 6, 60, 0
8, 192240, Note_on_c, 6, 60, 90
8, 192299, Note_on_c, 6, 60, 0
8, 192300, Note_on_c, 6, 60, 90
8, 192359, Note_on_c, 6, 60, 0
8, 192360, Note_on_c, 6, 57, 90
8, 192419, Note_on_c, 6, 57, 0
8, 192600, Note_on_c, 6, 69, 90
8, 192659, Note_on_c, 6, 69, 0
8, 192660, Note_on_c, 6, 74, 90
8, 192779, Note_on_c, 6, 74, 0
8, 192960, Note_on_c, 6, 67, 90
8, 193019, Note_on_c, 6, 67, 0
8, 193020, Note_on_c, 6, 69, 90
8, 193139, Note_on_c, 6, 69, 0
8, 193139, End_track
9, 0, Start_track
9, 0, MIDI_port, 0
9, 0, Title_t, "Evangelist"
9, 0, Program_c, 7, 57
9, 0, Control_c, 7, 7, 127
9, 0, Control_c, 7, 10, 83
9, 43560, Note_on_c, 7, 67, 90
9, 43619, Note_on_c, 7, 67, 0
9, 43620, Note_on_c, 7, 67, 90
9, 43679, Note_on_c, 7, 67, 0
9, 43680, Note_on_c, 7, 67, 90
9, 43739, Note_on_c, 7, 67, 0
9, 43740, Note_on_c, 7, 72, 90
9, 43799, Note_on_c, 7, 72, 0
9, 43800, Note_on_c, 7, 74, 90
9, 43829, Note_on_c, 7, 74, 0
9, 43830, Note_on_c, 7, 76, 90
9, 43859, Note_on_c, 7, 76, 0
9, 43860, Note_on_c, 7, 71, 90
9, 43919, Note_on_c, 7, 71, 0
9, 43920, Note_on_c, 7, 71, 90
9, 43979, Note_on_c, 7, 71, 0
9, 44040, Note_on_c, 7, 71, 90
9, 44069, Note_on_c, 7, 71, 0
9, 44070, Note_on_c, 7, 72, 90
9, 44099, Note_on_c, 7, 72, 0
9, 44100, Note_on_c, 7, 74, 90
9, 44159, Note_on_c, 7, 74, 0
9, 44160, Note_on_c, 7, 74, 90
9, 44219, Note_on_c, 7, 74, 0
9, 44220, Note_on_c, 7, 71, 90
9, 44279, Note_on_c, 7, 71, 0
9, 44280, Note_on_c, 7, 67, 90
9, 44339, Note_on_c, 7, 67, 0
9, 44340, Note_on_c, 7, 76, 90
9, 44399, Note_on_c, 7, 76, 0
9, 44400, Note_on_c, 7, 76, 90
9, 44459, Note_on_c, 7, 76, 0
9, 44520, Note_on_c, 7, 72, 90
9, 44579, Note_on_c, 7, 72, 0
9, 44580, Note_on_c, 7, 76, 90
9, 44639, Note_on_c, 7, 76, 0
9, 44640, Note_on_c, 7, 77, 90
9, 44699, Note_on_c, 7, 77, 0
9, 44700, Note_on_c, 7, 79, 90
9, 44759, Note_on_c, 7, 79, 0
9, 44760, Note_on_c, 7, 79, 90
9, 44789, Note_on_c, 7, 79, 0
9, 44790, Note_on_c, 7, 76, 90
9, 44819, Note_on_c, 7, 76, 0
9, 44820, Note_on_c, 7, 72, 90
9, 44879, Note_on_c, 7, 72, 0
9, 44880, Note_on_c, 7, 72, 90
9, 44939, Note_on_c, 7, 72, 0
9, 44940, Note_on_c, 7, 81, 90
9, 44999, Note_on_c, 7, 81, 0
9, 45000, Note_on_c, 7, 81, 90
9, 45059, Note_on_c, 7, 81, 0
9, 45180, Note_on_c, 7, 69, 90
9, 45239, Note_on_c, 7, 69, 0
9, 45240, Note_on_c, 7, 69, 90
9, 45269, Note_on_c, 7, 69, 0
9, 45270, Note_on_c, 7, 69, 90
9, 45299, Note_on_c, 7, 69, 0
9, 45300, Note_on_c, 7, 76, 90
9, 45359, Note_on_c, 7, 76, 0
9, 45360, Note_on_c, 7, 76, 90
9, 45419, Note_on_c, 7, 76, 0
9, 45420, Note_on_c, 7, 76, 90
9, 45479, Note_on_c, 7, 76, 0
9, 45480, Note_on_c, 7, 79, 90
9, 45509, Note_on_c, 7, 79, 0
9, 45510, Note_on_c, 7, 77, 90
9, 45539, Note_on_c, 7, 77, 0
9, 45540, Note_on_c, 7, 77, 90
9, 45599, Note_on_c, 7, 77, 0
9, 45600, Note_on_c, 7, 77, 90
9, 45659, Note_on_c, 7, 77, 0
9, 45720, Note_on_c, 7, 77, 90
9, 45749, Note_on_c, 7, 77, 0
9, 45750, Note_on_c, 7, 74, 90
9, 45779, Note_on_c, 7, 74, 0
9, 45780, Note_on_c, 7, 71, 90
9, 45839, Note_on_c, 7, 71, 0
9, 45840, Note_on_c, 7, 71, 90
9, 45869, Note_on_c, 7, 71, 0
9, 45870, Note_on_c, 7, 72, 90
9, 45899, Note_on_c, 7, 72, 0
9, 45900, Note_on_c, 7, 74, 90
9, 45959, Note_on_c, 7, 74, 0
9, 45960, Note_on_c, 7, 71, 90
9, 46019, Note_on_c, 7, 71, 0
9, 46020, Note_on_c, 7, 76, 90
9, 46079, Note_on_c, 7, 76, 0
9, 46080, Note_on_c, 7, 76, 90
9, 46109, Note_on_c, 7, 76, 0
9, 46110, Note_on_c, 7, 69, 90
9, 46139, Note_on_c, 7, 69, 0
9, 46140, Note_on_c, 7, 74, 90
9, 46199, Note_on_c, 7, 74, 0
9, 46200, Note_on_c, 7, 72, 90
9, 46259, Note_on_c, 7, 72, 0
9, 46260, Note_on_c, 7, 71, 90
9, 46319, Note_on_c, 7, 71, 0
9, 46320, Note_on_c, 7, 69, 90
9, 46379, Note_on_c, 7, 69, 0
9, 46379, End_track
10, 0, Start_track
10, 0, MIDI_port, 0
10, 0, Title_t, "Echo"
10, 0, Program_c, 8, 64
10, 0, Control_c, 8, 7, 127
10, 0, Control_c, 8, 10, 80
10, 76022, Control_c, 8, 91, 122
10, 76200, Note_on_c, 8, 72, 100
10, 76260, Note_on_c, 8, 72, 0
10, 76260, Note_on_c, 8, 71, 100
10, 76320, Note_on_c, 8, 71, 0
10, 77280, Note_on_c, 8, 77, 100
10, 77340, Note_on_c, 8, 77, 0
10, 77340, Note_on_c, 8, 76, 100
10, 77400, Note_on_c, 8, 76, 0
10, 79980, Note_on_c, 8, 78, 100
10, 80039, Note_on_c, 8, 78, 0
10, 80040, Note_on_c, 8, 79, 100
10, 80099, Note_on_c, 8, 79, 0
10, 80520, Note_on_c, 8, 74, 100
10, 80579, Note_on_c, 8, 74, 0
10, 80580, Note_on_c, 8, 73, 100
10, 80639, Note_on_c, 8, 73, 0
10, 81060, Note_on_c, 8, 67, 100
10, 81119, Note_on_c, 8, 67, 0
10, 81120, Note_on_c, 8, 66, 100
10, 81179, Note_on_c, 8, 66, 0
10, 81780, Note_on_c, 8, 67, 100
10, 81960, Note_on_c, 8, 67, 0
10, 89700, Note_on_c, 8, 74, 100
10, 89819, Note_on_c, 8, 74, 0
10, 90600, Note_on_c, 8, 64, 100
10, 90719, Note_on_c, 8, 64, 0
10, 91080, Note_on_c, 8, 64, 100
10, 91140, Note_on_c, 8, 64, 0
10, 91140, Note_on_c, 8, 71, 100
10, 91260, Note_on_c, 8, 71, 0
10, 91800, Note_on_c, 8, 71, 100
10, 91860, Note_on_c, 8, 71, 0
10, 91860, Note_on_c, 8, 76, 100
10, 91980, Note_on_c, 8, 76, 0
10, 92580, Note_on_c, 8, 69, 100
10, 92760, Note_on_c, 8, 69, 0
10, 102120, Note_on_c, 8, 72, 100
10, 102239, Note_on_c, 8, 72, 0
10, 103200, Note_on_c, 8, 67, 100
10, 103319, Note_on_c, 8, 67, 0
10, 103860, Note_on_c, 8, 67, 100
10, 103919, Note_on_c, 8, 67, 0
10, 103920, Note_on_c, 8, 72, 100
10, 104039, Note_on_c, 8, 72, 0
10, 104220, Note_on_c, 8, 72, 100
10, 104279, Note_on_c, 8, 72, 0
10, 104280, Note_on_c, 8, 76, 100
10, 104399, Note_on_c, 8, 76, 0
10, 104940, Note_on_c, 8, 76, 100
10, 104999, Note_on_c, 8, 76, 0
10, 105000, Note_on_c, 8, 79, 100
10, 105119, Note_on_c, 8, 79, 0
10, 105540, Note_on_c, 8, 72, 100
10, 105720, Note_on_c, 8, 72, 0
10, 105720, End_track
11, 0, Start_track
11, 0, MIDI_port, 0
11, 0, Title_t, "Soprano Coro/Solo"
11, 0, Program_c, 10, 52
11, 0, Control_c, 10, 7, 127
11, 0, Control_c, 10, 10, 54
11, 4320, Note_on_c, 10, 69, 127
11, 4439, Note_on_c, 10, 69, 0
11, 4440, Note_on_c, 10, 70, 127
11, 4499, Note_on_c, 10, 70, 0
11, 4500, Note_on_c, 10, 67, 127
11, 4619, Note_on_c, 10, 67, 0
11, 4620, Note_on_c, 10, 65, 127
11, 4679, Note_on_c, 10, 65, 0
11, 4680, Note_on_c, 10, 69, 127
11, 4739, Note_on_c, 10, 69, 0
11, 4740, Note_on_c, 10, 70, 127
11, 4799, Note_on_c, 10, 70, 0
11, 4800, Note_on_c, 10, 72, 127
11, 4859, Note_on_c, 10, 72, 0
11, 4860, Note_on_c, 10, 74, 127
11, 4889, Note_on_c, 10, 74, 0
11, 4920, Note_on_c, 10, 72, 127
11, 4949, Note_on_c, 10, 72, 0
11, 5040, Note_on_c, 10, 72, 127
11, 5099, Note_on_c, 10, 72, 0
11, 5100, Note_on_c, 10, 74, 127
11, 5159, Note_on_c, 10, 74, 0
11, 5160, Note_on_c, 10, 75, 127
11, 5219, Note_on_c, 10, 75, 0
11, 5220, Note_on_c, 10, 75, 127
11, 5279, Note_on_c, 10, 75, 0
11, 5280, Note_on_c, 10, 74, 127
11, 5339, Note_on_c, 10, 74, 0
11, 5340, Note_on_c, 10, 72, 127
11, 5399, Note_on_c, 10, 72, 0
11, 5400, Note_on_c, 10, 70, 127
11, 5459, Note_on_c, 10, 70, 0
11, 5460, Note_on_c, 10, 72, 127
11, 5519, Note_on_c, 10, 72, 0
11, 5520, Note_on_c, 10, 74, 127
11, 5639, Note_on_c, 10, 74, 0
11, 5640, Note_on_c, 10, 72, 127
11, 5699, Note_on_c, 10, 72, 0
11, 5700, Note_on_c, 10, 70, 127
11, 5759, Note_on_c, 10, 70, 0
11, 5760, Note_on_c, 10, 69, 127
11, 5819, Note_on_c, 10, 69, 0
11, 5820, Note_on_c, 10, 70, 127
11, 5879, Note_on_c, 10, 70, 0
11, 5880, Note_on_c, 10, 72, 127
11, 5939, Note_on_c, 10, 72, 0
11, 5940, Note_on_c, 10, 72, 127
11, 5999, Note_on_c, 10, 72, 0
11, 6000, Note_on_c, 10, 70, 127
11, 6059, Note_on_c, 10, 70, 0
11, 6060, Note_on_c, 10, 69, 127
11, 6119, Note_on_c, 10, 69, 0
11, 6120, Note_on_c, 10, 67, 127
11, 6179, Note_on_c, 10, 67, 0
11, 6180, Note_on_c, 10, 69, 127
11, 6239, Note_on_c, 10, 69, 0
11, 6240, Note_on_c, 10, 70, 127
11, 6359, Note_on_c, 10, 70, 0
11, 6360, Note_on_c, 10, 69, 127
11, 6419, Note_on_c, 10, 69, 0
11, 6420, Note_on_c, 10, 67, 127
11, 6479, Note_on_c, 10, 67, 0
11, 6480, Note_on_c, 10, 69, 127
11, 6599, Note_on_c, 10, 69, 0
11, 6600, Note_on_c, 10, 70, 127
11, 6659, Note_on_c, 10, 70, 0
11, 6660, Note_on_c, 10, 67, 127
11, 6779, Note_on_c, 10, 67, 0
11, 6780, Note_on_c, 10, 65, 127
11, 6839, Note_on_c, 10, 65, 0
11, 6840, Note_on_c, 10, 69, 127
11, 6899, Note_on_c, 10, 69, 0
11, 6900, Note_on_c, 10, 70, 127
11, 6959, Note_on_c, 10, 70, 0
11, 6960, Note_on_c, 10, 72, 127
11, 7019, Note_on_c, 10, 72, 0
11, 7020, Note_on_c, 10, 74, 127
11, 7049, Note_on_c, 10, 74, 0
11, 7080, Note_on_c, 10, 72, 127
11, 7109, Note_on_c, 10, 72, 0
11, 7200, Note_on_c, 10, 74, 127
11, 7229, Note_on_c, 10, 74, 0
11, 7230, Note_on_c, 10, 76, 127
11, 7259, Note_on_c, 10, 76, 0
11, 7260, Note_on_c, 10, 77, 127
11, 7275, Note_on_c, 10, 77, 0
11, 7275, Note_on_c, 10, 76, 127
11, 7290, Note_on_c, 10, 76, 0
11, 7290, Note_on_c, 10, 77, 127
11, 7305, Note_on_c, 10, 77, 0
11, 7305, Note_on_c, 10, 76, 127
11, 7320, Note_on_c, 10, 76, 0
11, 7320, Note_on_c, 10, 77, 127
11, 7335, Note_on_c, 10, 77, 0
11, 7335, Note_on_c, 10, 76, 127
11, 7350, Note_on_c, 10, 76, 0
11, 7350, Note_on_c, 10, 74, 127
11, 7365, Note_on_c, 10, 74, 0
11, 7365, Note_on_c, 10, 76, 127
11, 7380, Note_on_c, 10, 76, 0
11, 7380, Note_on_c, 10, 77, 127
11, 7439, Note_on_c, 10, 77, 0
11, 7440, Note_on_c, 10, 76, 127
11, 7469, Note_on_c, 10, 76, 0
11, 7470, Note_on_c, 10, 74, 127
11, 7499, Note_on_c, 10, 74, 0
11, 7500, Note_on_c, 10, 72, 127
11, 7529, Note_on_c, 10, 72, 0
11, 7530, Note_on_c, 10, 70, 127
11, 7559, Note_on_c, 10, 70, 0
11, 7560, Note_on_c, 10, 69, 127
11, 7619, Note_on_c, 10, 69, 0
11, 7620, Note_on_c, 10, 74, 127
11, 7679, Note_on_c, 10, 74, 0
11, 7680, Note_on_c, 10, 70, 127
11, 7739, Note_on_c, 10, 70, 0
11, 7740, Note_on_c, 10, 69, 127
11, 7799, Note_on_c, 10, 69, 0
11, 7800, Note_on_c, 10, 67, 127
11, 7919, Note_on_c, 10, 67, 0
11, 7920, Note_on_c, 10, 76, 127
11, 8039, Note_on_c, 10, 76, 0
11, 8040, Note_on_c, 10, 77, 127
11, 8099, Note_on_c, 10, 77, 0
11, 8100, Note_on_c, 10, 70, 127
11, 8219, Note_on_c, 10, 70, 0
11, 8220, Note_on_c, 10, 69, 127
11, 8279, Note_on_c, 10, 69, 0
11, 8280, Note_on_c, 10, 67, 127
11, 8339, Note_on_c, 10, 67, 0
11, 8340, Note_on_c, 10, 77, 127
11, 8399, Note_on_c, 10, 77, 0
11, 8400, Note_on_c, 10, 76, 127
11, 8459, Note_on_c, 10, 76, 0
11, 8460, Note_on_c, 10, 77, 127
11, 8519, Note_on_c, 10, 77, 0
11, 8520, Note_on_c, 10, 79, 127
11, 8579, Note_on_c, 10, 79, 0
11, 8580, Note_on_c, 10, 81, 127
11, 8639, Note_on_c, 10, 81, 0
11, 9000, Note_on_c, 10, 72, 127
11, 9059, Note_on_c, 10, 72, 0
11, 9060, Note_on_c, 10, 74, 127
11, 9119, Note_on_c, 10, 74, 0
11, 9120, Note_on_c, 10, 75, 127
11, 9179, Note_on_c, 10, 75, 0
11, 9180, Note_on_c, 10, 77, 127
11, 9239, Note_on_c, 10, 77, 0
11, 9240, Note_on_c, 10, 75, 127
11, 9269, Note_on_c, 10, 75, 0
11, 9270, Note_on_c, 10, 77, 127
11, 9299, Note_on_c, 10, 77, 0
11, 9300, Note_on_c, 10, 74, 127
11, 9359, Note_on_c, 10, 74, 0
11, 9360, Note_on_c, 10, 74, 127
11, 9479, Note_on_c, 10, 74, 0
11, 9480, Note_on_c, 10, 74, 127
11, 9539, Note_on_c, 10, 74, 0
11, 9540, Note_on_c, 10, 74, 127
11, 9659, Note_on_c, 10, 74, 0
11, 9660, Note_on_c, 10, 74, 127
11, 9719, Note_on_c, 10, 74, 0
11, 9720, Note_on_c, 10, 72, 127
11, 10079, Note_on_c, 10, 72, 0
11, 10080, Note_on_c, 10, 70, 127
11, 10439, Note_on_c, 10, 70, 0
11, 10440, Note_on_c, 10, 69, 127
11, 10499, Note_on_c, 10, 69, 0
11, 10500, Note_on_c, 10, 71, 127
11, 10559, Note_on_c, 10, 71, 0
11, 10560, Note_on_c, 10, 72, 127
11, 10619, Note_on_c, 10, 72, 0
11, 10620, Note_on_c, 10, 71, 127
11, 10739, Note_on_c, 10, 71, 0
11, 10800, Note_on_c, 10, 76, 127
11, 10919, Note_on_c, 10, 76, 0
11, 10920, Note_on_c, 10, 77, 127
11, 10979, Note_on_c, 10, 77, 0
11, 10980, Note_on_c, 10, 74, 127
11, 11099, Note_on_c, 10, 74, 0
11, 11100, Note_on_c, 10, 72, 127
11, 11159, Note_on_c, 10, 72, 0
11, 11160, Note_on_c, 10, 76, 127
11, 11219, Note_on_c, 10, 76, 0
11, 11220, Note_on_c, 10, 77, 127
11, 11279, Note_on_c, 10, 77, 0
11, 11280, Note_on_c, 10, 79, 127
11, 11339, Note_on_c, 10, 79, 0
11, 11340, Note_on_c, 10, 81, 127
11, 11369, Note_on_c, 10, 81, 0
11, 11400, Note_on_c, 10, 79, 127
11, 11429, Note_on_c, 10, 79, 0
11, 11520, Note_on_c, 10, 76, 127
11, 11579, Note_on_c, 10, 76, 0
11, 11580, Note_on_c, 10, 77, 127
11, 11639, Note_on_c, 10, 77, 0
11, 11640, Note_on_c, 10, 79, 127
11, 11699, Note_on_c, 10, 79, 0
11, 11700, Note_on_c, 10, 79, 127
11, 11759, Note_on_c, 10, 79, 0
11, 11760, Note_on_c, 10, 77, 127
11, 11819, Note_on_c, 10, 77, 0
11, 11820, Note_on_c, 10, 76, 127
11, 11879, Note_on_c, 10, 76, 0
11, 11880, Note_on_c, 10, 77, 127
11, 11939, Note_on_c, 10, 77, 0
11, 11940, Note_on_c, 10, 76, 127
11, 11999, Note_on_c, 10, 76, 0
11, 12000, Note_on_c, 10, 77, 127
11, 12119, Note_on_c, 10, 77, 0
11, 12120, Note_on_c, 10, 76, 127
11, 12179, Note_on_c, 10, 76, 0
11, 12180, Note_on_c, 10, 77, 127
11, 12239, Note_on_c, 10, 77, 0
11, 12240, Note_on_c, 10, 72, 127
11, 12299, Note_on_c, 10, 72, 0
11, 12300, Note_on_c, 10, 74, 127
11, 12359, Note_on_c, 10, 74, 0
11, 12360, Note_on_c, 10, 76, 127
11, 12419, Note_on_c, 10, 76, 0
11, 12420, Note_on_c, 10, 76, 127
11, 12479, Note_on_c, 10, 76, 0
11, 12480, Note_on_c, 10, 74, 127
11, 12539, Note_on_c, 10, 74, 0
11, 12540, Note_on_c, 10, 72, 127
11, 12599, Note_on_c, 10, 72, 0
11, 12600, Note_on_c, 10, 71, 127
11, 12659, Note_on_c, 10, 71, 0
11, 12660, Note_on_c, 10, 72, 127
11, 12719, Note_on_c, 10, 72, 0
11, 12720, Note_on_c, 10, 74, 127
11, 12839, Note_on_c, 10, 74, 0
11, 12840, Note_on_c, 10, 72, 127
11, 12899, Note_on_c, 10, 72, 0
11, 12900, Note_on_c, 10, 71, 127
11, 12959, Note_on_c, 10, 71, 0
11, 12960, Note_on_c, 10, 72, 127
11, 13079, Note_on_c, 10, 72, 0
11, 13080, Note_on_c, 10, 74, 127
11, 13139, Note_on_c, 10, 74, 0
11, 13140, Note_on_c, 10, 71, 127
11, 13259, Note_on_c, 10, 71, 0
11, 13260, Note_on_c, 10, 72, 127
11, 13319, Note_on_c, 10, 72, 0
11, 13320, Note_on_c, 10, 72, 127
11, 13379, Note_on_c, 10, 72, 0
11, 13380, Note_on_c, 10, 74, 127
11, 13439, Note_on_c, 10, 74, 0
11, 13440, Note_on_c, 10, 76, 127
11, 13499, Note_on_c, 10, 76, 0
11, 13500, Note_on_c, 10, 77, 127
11, 13529, Note_on_c, 10, 77, 0
11, 13560, Note_on_c, 10, 76, 127
11, 13589, Note_on_c, 10, 76, 0
11, 13680, Note_on_c, 10, 76, 127
11, 13739, Note_on_c, 10, 76, 0
11, 13740, Note_on_c, 10, 74, 127
11, 13769, Note_on_c, 10, 74, 0
11, 13770, Note_on_c, 10, 76, 127
11, 13799, Note_on_c, 10, 76, 0
11, 13800, Note_on_c, 10, 77, 127
11, 13859, Note_on_c, 10, 77, 0
11, 13860, Note_on_c, 10, 71, 127
11, 13919, Note_on_c, 10, 71, 0
11, 13920, Note_on_c, 10, 67, 127
11, 13979, Note_on_c, 10, 67, 0
11, 13980, Note_on_c, 10, 72, 127
11, 14039, Note_on_c, 10, 72, 0
11, 14040, Note_on_c, 10, 72, 127
11, 14099, Note_on_c, 10, 72, 0
11, 14100, Note_on_c, 10, 74, 127
11, 14159, Note_on_c, 10, 74, 0
11, 14160, Note_on_c, 10, 71, 127
11, 14219, Note_on_c, 10, 71, 0
11, 14220, Note_on_c, 10, 72, 127
11, 14339, Note_on_c, 10, 72, 0
11, 17280, Note_on_c, 10, 76, 127
11, 17399, Note_on_c, 10, 76, 0
11, 17400, Note_on_c, 10, 78, 127
11, 17459, Note_on_c, 10, 78, 0
11, 17460, Note_on_c, 10, 79, 127
11, 17639, Note_on_c, 10, 79, 0
11, 17640, Note_on_c, 10, 72, 127
11, 17699, Note_on_c, 10, 72, 0
11, 17700, Note_on_c, 10, 75, 127
11, 17759, Note_on_c, 10, 75, 0
11, 17760, Note_on_c, 10, 74, 127
11, 17819, Note_on_c, 10, 74, 0
11, 17820, Note_on_c, 10, 70, 127
11, 17879, Note_on_c, 10, 70, 0
11, 17880, Note_on_c, 10, 69, 127
11, 17939, Note_on_c, 10, 69, 0
11, 17940, Note_on_c, 10, 67, 127
11, 17999, Note_on_c, 10, 67, 0
11, 18000, Note_on_c, 10, 69, 127
11, 18059, Note_on_c, 10, 69, 0
11, 18060, Note_on_c, 10, 74, 127
11, 18119, Note_on_c, 10, 74, 0
11, 18120, Note_on_c, 10, 73, 127
11, 18179, Note_on_c, 10, 73, 0
11, 18180, Note_on_c, 10, 74, 127
11, 18239, Note_on_c, 10, 74, 0
11, 18240, Note_on_c, 10, 76, 127
11, 18299, Note_on_c, 10, 76, 0
11, 18300, Note_on_c, 10, 77, 127
11, 18359, Note_on_c, 10, 77, 0
11, 18360, Note_on_c, 10, 76, 127
11, 18419, Note_on_c, 10, 76, 0
11, 18420, Note_on_c, 10, 79, 127
11, 18449, Note_on_c, 10, 79, 0
11, 18450, Note_on_c, 10, 77, 127
11, 18479, Note_on_c, 10, 77, 0
11, 18480, Note_on_c, 10, 76, 127
11, 18509, Note_on_c, 10, 76, 0
11, 18510, Note_on_c, 10, 74, 127
11, 18539, Note_on_c, 10, 74, 0
11, 18540, Note_on_c, 10, 73, 127
11, 18599, Note_on_c, 10, 73, 0
11, 18600, Note_on_c, 10, 71, 127
11, 18659, Note_on_c, 10, 71, 0
11, 18660, Note_on_c, 10, 69, 127
11, 18719, Note_on_c, 10, 69, 0
11, 18720, Note_on_c, 10, 74, 127
11, 18749, Note_on_c, 10, 74, 0
11, 18750, Note_on_c, 10, 73, 127
11, 18779, Note_on_c, 10, 73, 0
11, 18780, Note_on_c, 10, 74, 127
11, 18809, Note_on_c, 10, 74, 0
11, 18810, Note_on_c, 10, 76, 127
11, 18839, Note_on_c, 10, 76, 0
11, 18840, Note_on_c, 10, 73, 127
11, 18869, Note_on_c, 10, 73, 0
11, 18870, Note_on_c, 10, 76, 127
11, 18899, Note_on_c, 10, 76, 0
11, 18900, Note_on_c, 10, 74, 127
11, 18929, Note_on_c, 10, 74, 0
11, 18930, Note_on_c, 10, 76, 127
11, 18959, Note_on_c, 10, 76, 0
11, 18960, Note_on_c, 10, 77, 127
11, 18989, Note_on_c, 10, 77, 0
11, 18990, Note_on_c, 10, 76, 127
11, 19019, Note_on_c, 10, 76, 0
11, 19020, Note_on_c, 10, 74, 127
11, 19049, Note_on_c, 10, 74, 0
11, 19050, Note_on_c, 10, 72, 127
11, 19079, Note_on_c, 10, 72, 0
11, 19080, Note_on_c, 10, 70, 127
11, 19139, Note_on_c, 10, 70, 0
11, 19140, Note_on_c, 10, 67, 127
11, 19199, Note_on_c, 10, 67, 0
11, 19200, Note_on_c, 10, 74, 127
11, 19259, Note_on_c, 10, 74, 0
11, 19260, Note_on_c, 10, 70, 127
11, 19319, Note_on_c, 10, 70, 0
11, 19320, Note_on_c, 10, 67, 127
11, 19379, Note_on_c, 10, 67, 0
11, 19380, Note_on_c, 10, 71, 127
11, 19439, Note_on_c, 10, 71, 0
11, 19440, Note_on_c, 10, 72, 127
11, 19469, Note_on_c, 10, 72, 0
11, 19470, Note_on_c, 10, 71, 127
11, 19499, Note_on_c, 10, 71, 0
11, 19500, Note_on_c, 10, 72, 127
11, 19529, Note_on_c, 10, 72, 0
11, 19530, Note_on_c, 10, 74, 127
11, 19559, Note_on_c, 10, 74, 0
11, 19560, Note_on_c, 10, 71, 127
11, 19589, Note_on_c, 10, 71, 0
11, 19590, Note_on_c, 10, 74, 127
11, 19619, Note_on_c, 10, 74, 0
11, 19620, Note_on_c, 10, 72, 127
11, 19649, Note_on_c, 10, 72, 0
11, 19650, Note_on_c, 10, 74, 127
11, 19679, Note_on_c, 10, 74, 0
11, 19680, Note_on_c, 10, 76, 127
11, 19709, Note_on_c, 10, 76, 0
11, 19710, Note_on_c, 10, 74, 127
11, 19739, Note_on_c, 10, 74, 0
11, 19740, Note_on_c, 10, 72, 127
11, 19769, Note_on_c, 10, 72, 0
11, 19770, Note_on_c, 10, 70, 127
11, 19799, Note_on_c, 10, 70, 0
11, 19800, Note_on_c, 10, 69, 127
11, 19859, Note_on_c, 10, 69, 0
11, 19860, Note_on_c, 10, 65, 127
11, 19919, Note_on_c, 10, 65, 0
11, 19920, Note_on_c, 10, 72, 127
11, 19979, Note_on_c, 10, 72, 0
11, 19980, Note_on_c, 10, 69, 127
11, 20039, Note_on_c, 10, 69, 0
11, 20040, Note_on_c, 10, 65, 127
11, 20099, Note_on_c, 10, 65, 0
11, 20100, Note_on_c, 10, 69, 127
11, 20159, Note_on_c, 10, 69, 0
11, 20160, Note_on_c, 10, 70, 127
11, 20219, Note_on_c, 10, 70, 0
11, 20220, Note_on_c, 10, 69, 127
11, 20279, Note_on_c, 10, 69, 0
11, 20280, Note_on_c, 10, 70, 127
11, 20339, Note_on_c, 10, 70, 0
11, 20340, Note_on_c, 10, 79, 127
11, 20519, Note_on_c, 10, 79, 0
11, 20520, Note_on_c, 10, 69, 127
11, 20579, Note_on_c, 10, 69, 0
11, 20580, Note_on_c, 10, 67, 127
11, 20639, Note_on_c, 10, 67, 0
11, 20640, Note_on_c, 10, 69, 127
11, 20699, Note_on_c, 10, 69, 0
11, 20700, Note_on_c, 10, 77, 127
11, 20939, Note_on_c, 10, 77, 0
11, 20940, Note_on_c, 10, 76, 127
11, 20999, Note_on_c, 10, 76, 0
11, 21000, Note_on_c, 10, 74, 127
11, 21059, Note_on_c, 10, 74, 0
11, 21060, Note_on_c, 10, 73, 127
11, 21119, Note_on_c, 10, 73, 0
11, 21120, Note_on_c, 10, 69, 127
11, 21179, Note_on_c, 10, 69, 0
11, 21180, Note_on_c, 10, 74, 127
11, 21239, Note_on_c, 10, 74, 0
11, 21270, Note_on_c, 10, 76, 127
11, 21299, Note_on_c, 10, 76, 0
11, 21300, Note_on_c, 10, 76, 127
11, 21389, Note_on_c, 10, 76, 0
11, 21390, Note_on_c, 10, 74, 127
11, 21419, Note_on_c, 10, 74, 0
11, 21420, Note_on_c, 10, 74, 127
11, 21539, Note_on_c, 10, 74, 0
11, 24480, Note_on_c, 10, 69, 127
11, 24509, Note_on_c, 10, 69, 0
11, 24510, Note_on_c, 10, 71, 127
11, 24539, Note_on_c, 10, 71, 0
11, 24540, Note_on_c, 10, 71, 127
11, 24659, Note_on_c, 10, 71, 0
11, 24660, Note_on_c, 10, 72, 127
11, 24839, Note_on_c, 10, 72, 0
11, 24840, Note_on_c, 10, 65, 127
11, 24899, Note_on_c, 10, 65, 0
11, 24900, Note_on_c, 10, 62, 127
11, 24959, Note_on_c, 10, 62, 0
11, 24960, Note_on_c, 10, 67, 127
11, 25019, Note_on_c, 10, 67, 0
11, 25020, Note_on_c, 10, 64, 127
11, 25079, Note_on_c, 10, 64, 0
11, 25080, Note_on_c, 10, 62, 127
11, 25139, Note_on_c, 10, 62, 0
11, 25140, Note_on_c, 10, 60, 127
11, 25199, Note_on_c, 10, 60, 0
11, 25200, Note_on_c, 10, 64, 127
11, 25259, Note_on_c, 10, 64, 0
11, 25260, Note_on_c, 10, 69, 127
11, 25319, Note_on_c, 10, 69, 0
11, 25320, Note_on_c, 10, 68, 127
11, 25379, Note_on_c, 10, 68, 0
11, 25380, Note_on_c, 10, 69, 127
11, 25439, Note_on_c, 10, 69, 0
11, 25440, Note_on_c, 10, 71, 127
11, 25499, Note_on_c, 10, 71, 0
11, 25500, Note_on_c, 10, 72, 127
11, 25559, Note_on_c, 10, 72, 0
11, 25560, Note_on_c, 10, 71, 127
11, 25619, Note_on_c, 10, 71, 0
11, 25620, Note_on_c, 10, 74, 127
11, 25649, Note_on_c, 10, 74, 0
11, 25650, Note_on_c, 10, 72, 127
11, 25679, Note_on_c, 10, 72, 0
11, 25680, Note_on_c, 10, 71, 127
11, 25709, Note_on_c, 10, 71, 0
11, 25710, Note_on_c, 10, 69, 127
11, 25739, Note_on_c, 10, 69, 0
11, 25740, Note_on_c, 10, 68, 127
11, 25799, Note_on_c, 10, 68, 0
11, 25800, Note_on_c, 10, 66, 127
11, 25859, Note_on_c, 10, 66, 0
11, 25860, Note_on_c, 10, 64, 127
11, 25919, Note_on_c, 10, 64, 0
11, 25920, Note_on_c, 10, 72, 127
11, 25949, Note_on_c, 10, 72, 0
11, 25950, Note_on_c, 10, 71, 127
11, 25979, Note_on_c, 10, 71, 0
11, 25980, Note_on_c, 10, 72, 127
11, 26009, Note_on_c, 10, 72, 0
11, 26010, Note_on_c, 10, 74, 127
11, 26039, Note_on_c, 10, 74, 0
11, 26040, Note_on_c, 10, 71, 127
11, 26069, Note_on_c, 10, 71, 0
11, 26070, Note_on_c, 10, 74, 127
11, 26099, Note_on_c, 10, 74, 0
11, 26100, Note_on_c, 10, 72, 127
11, 26129, Note_on_c, 10, 72, 0
11, 26130, Note_on_c, 10, 74, 127
11, 26159, Note_on_c, 10, 74, 0
11, 26160, Note_on_c, 10, 76, 127
11, 26189, Note_on_c, 10, 76, 0
11, 26190, Note_on_c, 10, 74, 127
11, 26219, Note_on_c, 10, 74, 0
11, 26220, Note_on_c, 10, 72, 127
11, 26249, Note_on_c, 10, 72, 0
11, 26250, Note_on_c, 10, 71, 127
11, 26279, Note_on_c, 10, 71, 0
11, 26280, Note_on_c, 10, 69, 127
11, 26399, Note_on_c, 10, 69, 0
11, 26400, Note_on_c, 10, 69, 127
11, 26459, Note_on_c, 10, 69, 0
11, 26460, Note_on_c, 10, 69, 127
11, 26579, Note_on_c, 10, 69, 0
11, 26580, Note_on_c, 10, 69, 127
11, 26639, Note_on_c, 10, 69, 0
11, 26640, Note_on_c, 10, 71, 127
11, 26669, Note_on_c, 10, 71, 0
11, 26670, Note_on_c, 10, 69, 127
11, 26699, Note_on_c, 10, 69, 0
11, 26700, Note_on_c, 10, 71, 127
11, 26729, Note_on_c, 10, 71, 0
11, 26730, Note_on_c, 10, 72, 127
11, 26759, Note_on_c, 10, 72, 0
11, 26760, Note_on_c, 10, 69, 127
11, 26789, Note_on_c, 10, 69, 0
11, 26790, Note_on_c, 10, 72, 127
11, 26819, Note_on_c, 10, 72, 0
11, 26820, Note_on_c, 10, 71, 127
11, 26849, Note_on_c, 10, 71, 0
11, 26850, Note_on_c, 10, 72, 127
11, 26879, Note_on_c, 10, 72, 0
11, 26880, Note_on_c, 10, 74, 127
11, 26909, Note_on_c, 10, 74, 0
11, 26910, Note_on_c, 10, 72, 127
11, 26939, Note_on_c, 10, 72, 0
11, 26940, Note_on_c, 10, 71, 127
11, 26969, Note_on_c, 10, 71, 0
11, 26970, Note_on_c, 10, 69, 127
11, 26999, Note_on_c, 10, 69, 0
11, 27000, Note_on_c, 10, 67, 127
11, 27119, Note_on_c, 10, 67, 0
11, 27120, Note_on_c, 10, 67, 127
11, 27179, Note_on_c, 10, 67, 0
11, 27180, Note_on_c, 10, 67, 127
11, 27299, Note_on_c, 10, 67, 0
11, 27300, Note_on_c, 10, 67, 127
11, 27359, Note_on_c, 10, 67, 0
11, 27360, Note_on_c, 10, 69, 127
11, 27419, Note_on_c, 10, 69, 0
11, 27420, Note_on_c, 10, 67, 127
11, 27479, Note_on_c, 10, 67, 0
11, 27480, Note_on_c, 10, 69, 127
11, 27539, Note_on_c, 10, 69, 0
11, 27540, Note_on_c, 10, 77, 127
11, 27719, Note_on_c, 10, 77, 0
11, 27720, Note_on_c, 10, 67, 127
11, 27779, Note_on_c, 10, 67, 0
11, 27780, Note_on_c, 10, 65, 127
11, 27839, Note_on_c, 10, 65, 0
11, 27840, Note_on_c, 10, 67, 127
11, 27899, Note_on_c, 10, 67, 0
11, 27900, Note_on_c, 10, 76, 127
11, 28139, Note_on_c, 10, 76, 0
11, 28140, Note_on_c, 10, 74, 127
11, 28199, Note_on_c, 10, 74, 0
11, 28200, Note_on_c, 10, 72, 127
11, 28259, Note_on_c, 10, 72, 0
11, 28260, Note_on_c, 10, 71, 127
11, 28319, Note_on_c, 10, 71, 0
11, 28320, Note_on_c, 10, 69, 127
11, 28349, Note_on_c, 10, 69, 0
11, 28350, Note_on_c, 10, 68, 127
11, 28379, Note_on_c, 10, 68, 0
11, 28380, Note_on_c, 10, 69, 127
11, 28439, Note_on_c, 10, 69, 0
11, 28470, Note_on_c, 10, 71, 127
11, 28499, Note_on_c, 10, 71, 0
11, 28500, Note_on_c, 10, 71, 127
11, 28589, Note_on_c, 10, 71, 0
11, 28590, Note_on_c, 10, 69, 127
11, 28619, Note_on_c, 10, 69, 0
11, 28620, Note_on_c, 10, 69, 127
11, 28739, Note_on_c, 10, 69, 0
11, 28800, Note_on_c, 10, 69, 127
11, 28919, Note_on_c, 10, 69, 0
11, 28920, Note_on_c, 10, 70, 127
11, 28979, Note_on_c, 10, 70, 0
11, 28980, Note_on_c, 10, 67, 127
11, 29099, Note_on_c, 10, 67, 0
11, 29100, Note_on_c, 10, 65, 127
11, 29159, Note_on_c, 10, 65, 0
11, 29520, Note_on_c, 10, 69, 127
11, 29579, Note_on_c, 10, 69, 0
11, 29580, Note_on_c, 10, 70, 127
11, 29639, Note_on_c, 10, 70, 0
11, 29640, Note_on_c, 10, 72, 127
11, 29699, Note_on_c, 10, 72, 0
11, 29700, Note_on_c, 10, 74, 127
11, 29729, Note_on_c, 10, 74, 0
11, 29760, Note_on_c, 10, 72, 127
11, 29789, Note_on_c, 10, 72, 0
11, 30240, Note_on_c, 10, 74, 127
11, 30269, Note_on_c, 10, 74, 0
11, 30270, Note_on_c, 10, 76, 127
11, 30299, Note_on_c, 10, 76, 0
11, 30300, Note_on_c, 10, 77, 127
11, 30314, Note_on_c, 10, 77, 0
11, 30315, Note_on_c, 10, 76, 127
11, 30329, Note_on_c, 10, 76, 0
11, 30330, Note_on_c, 10, 77, 127
11, 30344, Note_on_c, 10, 77, 0
11, 30345, Note_on_c, 10, 76, 127
11, 30359, Note_on_c, 10, 76, 0
11, 30360, Note_on_c, 10, 77, 127
11, 30374, Note_on_c, 10, 77, 0
11, 30375, Note_on_c, 10, 76, 127
11, 30389, Note_on_c, 10, 76, 0
11, 30390, Note_on_c, 10, 74, 127
11, 30404, Note_on_c, 10, 74, 0
11, 30405, Note_on_c, 10, 76, 127
11, 30419, Note_on_c, 10, 76, 0
11, 30420, Note_on_c, 10, 77, 127
11, 30479, Note_on_c, 10, 77, 0
11, 30480, Note_on_c, 10, 76, 127
11, 30509, Note_on_c, 10, 76, 0
11, 30510, Note_on_c, 10, 74, 127
11, 30539, Note_on_c, 10, 74, 0
11, 30540, Note_on_c, 10, 72, 127
11, 30569, Note_on_c, 10, 72, 0
11, 30570, Note_on_c, 10, 70, 127
11, 30599, Note_on_c, 10, 70, 0
11, 30600, Note_on_c, 10, 69, 127
11, 30659, Note_on_c, 10, 69, 0
11, 30660, Note_on_c, 10, 74, 127
11, 30719, Note_on_c, 10, 74, 0
11, 30720, Note_on_c, 10, 70, 127
11, 30779, Note_on_c, 10, 70, 0
11, 30780, Note_on_c, 10, 67, 127
11, 30899, Note_on_c, 10, 67, 0
11, 30960, Note_on_c, 10, 72, 127
11, 31080, Note_on_c, 10, 72, 0
11, 31080, Note_on_c, 10, 72, 127
11, 31139, Note_on_c, 10, 72, 0
11, 31140, Note_on_c, 10, 72, 127
11, 32460, Note_on_c, 10, 72, 0
11, 32460, Note_on_c, 10, 74, 127
11, 32519, Note_on_c, 10, 74, 0
11, 32520, Note_on_c, 10, 76, 127
11, 32639, Note_on_c, 10, 76, 0
11, 32640, Note_on_c, 10, 74, 127
11, 32699, Note_on_c, 10, 74, 0
11, 32700, Note_on_c, 10, 72, 127
11, 32759, Note_on_c, 10, 72, 0
11, 32760, Note_on_c, 10, 77, 127
11, 32819, Note_on_c, 10, 77, 0
11, 32820, Note_on_c, 10, 72, 127
11, 32879, Note_on_c, 10, 72, 0
11, 32880, Note_on_c, 10, 75, 127
11, 32939, Note_on_c, 10, 75, 0
11, 32940, Note_on_c, 10, 75, 127
11, 32969, Note_on_c, 10, 75, 0
11, 33000, Note_on_c, 10, 74, 127
11, 33029, Note_on_c, 10, 74, 0
11, 33120, Note_on_c, 10, 72, 127
11, 33179, Note_on_c, 10, 72, 0
11, 33180, Note_on_c, 10, 75, 127
11, 33239, Note_on_c, 10, 75, 0
11, 33240, Note_on_c, 10, 74, 127
11, 33299, Note_on_c, 10, 74, 0
11, 33300, Note_on_c, 10, 72, 127
11, 33359, Note_on_c, 10, 72, 0
11, 33360, Note_on_c, 10, 70, 127
11, 33419, Note_on_c, 10, 70, 0
11, 33420, Note_on_c, 10, 69, 127
11, 33479, Note_on_c, 10, 69, 0
11, 33480, Note_on_c, 10, 70, 127
11, 33539, Note_on_c, 10, 70, 0
11, 33540, Note_on_c, 10, 74, 127
11, 33599, Note_on_c, 10, 74, 0
11, 33600, Note_on_c, 10, 72, 127
11, 33659, Note_on_c, 10, 72, 0
11, 33660, Note_on_c, 10, 70, 127
11, 33719, Note_on_c, 10, 70, 0
11, 33720, Note_on_c, 10, 69, 127
11, 33779, Note_on_c, 10, 69, 0
11, 34200, Note_on_c, 10, 67, 127
11, 34259, Note_on_c, 10, 67, 0
11, 34260, Note_on_c, 10, 77, 127
11, 34319, Note_on_c, 10, 77, 0
11, 34320, Note_on_c, 10, 76, 127
11, 34379, Note_on_c, 10, 76, 0
11, 34380, Note_on_c, 10, 77, 127
11, 34439, Note_on_c, 10, 77, 0
11, 34440, Note_on_c, 10, 79, 127
11, 34499, Note_on_c, 10, 79, 0
11, 34500, Note_on_c, 10, 81, 127
11, 34559, Note_on_c, 10, 81, 0
11, 34560, Note_on_c, 10, 72, 127
11, 34679, Note_on_c, 10, 72, 0
11, 34680, Note_on_c, 10, 74, 127
11, 34739, Note_on_c, 10, 74, 0
11, 34740, Note_on_c, 10, 69, 127
11, 34859, Note_on_c, 10, 69, 0
11, 34860, Note_on_c, 10, 70, 127
11, 34919, Note_on_c, 10, 70, 0
11, 34920, Note_on_c, 10, 72, 127
11, 34979, Note_on_c, 10, 72, 0
11, 34980, Note_on_c, 10, 74, 127
11, 35039, Note_on_c, 10, 74, 0
11, 35040, Note_on_c, 10, 75, 127
11, 35099, Note_on_c, 10, 75, 0
11, 35100, Note_on_c, 10, 77, 127
11, 35159, Note_on_c, 10, 77, 0
11, 35160, Note_on_c, 10, 75, 127
11, 35189, Note_on_c, 10, 75, 0
11, 35190, Note_on_c, 10, 77, 127
11, 35219, Note_on_c, 10, 77, 0
11, 35220, Note_on_c, 10, 74, 127
11, 35279, Note_on_c, 10, 74, 0
11, 35280, Note_on_c, 10, 74, 127
11, 35399, Note_on_c, 10, 74, 0
11, 35400, Note_on_c, 10, 74, 127
11, 35459, Note_on_c, 10, 74, 0
11, 35460, Note_on_c, 10, 74, 127
11, 35579, Note_on_c, 10, 74, 0
11, 35580, Note_on_c, 10, 74, 127
11, 35639, Note_on_c, 10, 74, 0
11, 35640, Note_on_c, 10, 72, 127
11, 35999, Note_on_c, 10, 72, 0
11, 36000, Note_on_c, 10, 70, 127
11, 36359, Note_on_c, 10, 70, 0
11, 36360, Note_on_c, 10, 69, 127
11, 36419, Note_on_c, 10, 69, 0
11, 36420, Note_on_c, 10, 81, 127
11, 36479, Note_on_c, 10, 81, 0
11, 36480, Note_on_c, 10, 79, 127
11, 36539, Note_on_c, 10, 79, 0
11, 36540, Note_on_c, 10, 76, 127
11, 36659, Note_on_c, 10, 76, 0
11, 36720, Note_on_c, 10, 69, 127
11, 36839, Note_on_c, 10, 69, 0
11, 36840, Note_on_c, 10, 70, 127
11, 36899, Note_on_c, 10, 70, 0
11, 36900, Note_on_c, 10, 67, 127
11, 37019, Note_on_c, 10, 67, 0
11, 37020, Note_on_c, 10, 65, 127
11, 37079, Note_on_c, 10, 65, 0
11, 37080, Note_on_c, 10, 69, 127
11, 37139, Note_on_c, 10, 69, 0
11, 37140, Note_on_c, 10, 70, 127
11, 37199, Note_on_c, 10, 70, 0
11, 37200, Note_on_c, 10, 72, 127
11, 37259, Note_on_c, 10, 72, 0
11, 37260, Note_on_c, 10, 74, 127
11, 37289, Note_on_c, 10, 74, 0
11, 37320, Note_on_c, 10, 72, 127
11, 37349, Note_on_c, 10, 72, 0
11, 37440, Note_on_c, 10, 74, 127
11, 37499, Note_on_c, 10, 74, 0
11, 37500, Note_on_c, 10, 75, 127
11, 37559, Note_on_c, 10, 75, 0
11, 37560, Note_on_c, 10, 77, 127
11, 37619, Note_on_c, 10, 77, 0
11, 37620, Note_on_c, 10, 77, 127
11, 37679, Note_on_c, 10, 77, 0
11, 37680, Note_on_c, 10, 75, 127
11, 37739, Note_on_c, 10, 75, 0
11, 37740, Note_on_c, 10, 74, 127
11, 37799, Note_on_c, 10, 74, 0
11, 37800, Note_on_c, 10, 72, 127
11, 37859, Note_on_c, 10, 72, 0
11, 37860, Note_on_c, 10, 74, 127
11, 37919, Note_on_c, 10, 74, 0
11, 37920, Note_on_c, 10, 75, 127
11, 38039, Note_on_c, 10, 75, 0
11, 38040, Note_on_c, 10, 74, 127
11, 38099, Note_on_c, 10, 74, 0
11, 38100, Note_on_c, 10, 72, 127
11, 38159, Note_on_c, 10, 72, 0
11, 38160, Note_on_c, 10, 70, 127
11, 38219, Note_on_c, 10, 70, 0
11, 38220, Note_on_c, 10, 69, 127
11, 38279, Note_on_c, 10, 69, 0
11, 38280, Note_on_c, 10, 70, 127
11, 38339, Note_on_c, 10, 70, 0
11, 38340, Note_on_c, 10, 70, 127
11, 38399, Note_on_c, 10, 70, 0
11, 38400, Note_on_c, 10, 72, 127
11, 38459, Note_on_c, 10, 72, 0
11, 38460, Note_on_c, 10, 74, 127
11, 38519, Note_on_c, 10, 74, 0
11, 38520, Note_on_c, 10, 75, 127
11, 38579, Note_on_c, 10, 75, 0
11, 38580, Note_on_c, 10, 74, 127
11, 38639, Note_on_c, 10, 74, 0
11, 38640, Note_on_c, 10, 72, 127
11, 38699, Note_on_c, 10, 72, 0
11, 38700, Note_on_c, 10, 77, 127
11, 38819, Note_on_c, 10, 77, 0
11, 38820, Note_on_c, 10, 75, 127
11, 38879, Note_on_c, 10, 75, 0
11, 38880, Note_on_c, 10, 74, 127
11, 38999, Note_on_c, 10, 74, 0
11, 39000, Note_on_c, 10, 75, 127
11, 39059, Note_on_c, 10, 75, 0
11, 39060, Note_on_c, 10, 72, 127
11, 39179, Note_on_c, 10, 72, 0
11, 39180, Note_on_c, 10, 70, 127
11, 39239, Note_on_c, 10, 70, 0
11, 39240, Note_on_c, 10, 74, 127
11, 39299, Note_on_c, 10, 74, 0
11, 39300, Note_on_c, 10, 76, 127
11, 39359, Note_on_c, 10, 76, 0
11, 39360, Note_on_c, 10, 77, 127
11, 39419, Note_on_c, 10, 77, 0
11, 39420, Note_on_c, 10, 79, 127
11, 39449, Note_on_c, 10, 79, 0
11, 39480, Note_on_c, 10, 70, 127
11, 39509, Note_on_c, 10, 70, 0
11, 39600, Note_on_c, 10, 69, 127
11, 39659, Note_on_c, 10, 69, 0
11, 39660, Note_on_c, 10, 74, 127
11, 39719, Note_on_c, 10, 74, 0
11, 39720, Note_on_c, 10, 72, 127
11, 39779, Note_on_c, 10, 72, 0
11, 39780, Note_on_c, 10, 76, 127
11, 39839, Note_on_c, 10, 76, 0
11, 39840, Note_on_c, 10, 77, 127
11, 39899, Note_on_c, 10, 77, 0
11, 39900, Note_on_c, 10, 65, 127
11, 39959, Note_on_c, 10, 65, 0
11, 39960, Note_on_c, 10, 70, 127
11, 40019, Note_on_c, 10, 70, 0
11, 40020, Note_on_c, 10, 67, 127
11, 40139, Note_on_c, 10, 67, 0
11, 40140, Note_on_c, 10, 65, 127
11, 40259, Note_on_c, 10, 65, 0
11, 51060, Control_c, 10, 0, 20
11, 51060, Program_c, 10, 65
11, 51060, Note_on_c, 10, 69, 127
11, 51119, Note_on_c, 10, 69, 0
11, 51120, Note_on_c, 10, 70, 127
11, 51179, Note_on_c, 10, 70, 0
11, 51180, Note_on_c, 10, 72, 127
11, 51239, Note_on_c, 10, 72, 0
11, 51240, Note_on_c, 10, 69, 127
11, 51299, Note_on_c, 10, 69, 0
11, 51300, Note_on_c, 10, 65, 127
11, 51419, Note_on_c, 10, 65, 0
11, 51480, Note_on_c, 10, 72, 127
11, 51539, Note_on_c, 10, 72, 0
11, 51540, Note_on_c, 10, 74, 127
11, 51599, Note_on_c, 10, 74, 0
11, 51600, Note_on_c, 10, 76, 127
11, 51659, Note_on_c, 10, 76, 0
11, 51660, Note_on_c, 10, 77, 127
11, 51719, Note_on_c, 10, 77, 0
11, 51720, Note_on_c, 10, 74, 127
11, 51779, Note_on_c, 10, 74, 0
11, 51780, Note_on_c, 10, 70, 127
11, 51899, Note_on_c, 10, 70, 0
11, 51900, Note_on_c, 10, 69, 127
11, 52019, Note_on_c, 10, 69, 0
11, 52020, Note_on_c, 10, 67, 127
11, 52199, Note_on_c, 10, 67, 0
11, 52200, Note_on_c, 10, 69, 127
11, 52259, Note_on_c, 10, 69, 0
11, 52260, Note_on_c, 10, 65, 127
11, 52319, Note_on_c, 10, 65, 0
11, 52320, Note_on_c, 10, 64, 127
11, 52379, Note_on_c, 10, 64, 0
11, 52380, Note_on_c, 10, 65, 127
11, 52499, Note_on_c, 10, 65, 0
11, 52500, Note_on_c, 10, 67, 127
11, 52559, Note_on_c, 10, 67, 0
11, 52560, Note_on_c, 10, 69, 127
11, 52589, Note_on_c, 10, 69, 0
11, 52590, Note_on_c, 10, 70, 127
11, 52619, Note_on_c, 10, 70, 0
11, 52620, Note_on_c, 10, 69, 127
11, 52679, Note_on_c, 10, 69, 0
11, 52680, Note_on_c, 10, 67, 127
11, 52739, Note_on_c, 10, 67, 0
11, 52740, Note_on_c, 10, 67, 127
11, 52979, Note_on_c, 10, 67, 0
11, 52980, Note_on_c, 10, 72, 127
11, 53099, Note_on_c, 10, 72, 0
11, 53100, Note_on_c, 10, 70, 127
11, 53159, Note_on_c, 10, 70, 0
11, 53160, Note_on_c, 10, 69, 127
11, 53219, Note_on_c, 10, 69, 0
11, 53220, Note_on_c, 10, 67, 127
11, 53339, Note_on_c, 10, 67, 0
11, 53400, Note_on_c, 10, 65, 127
11, 53459, Note_on_c, 10, 65, 0
11, 53460, Note_on_c, 10, 70, 127
11, 53579, Note_on_c, 10, 70, 0
11, 53580, Note_on_c, 10, 69, 127
11, 53639, Note_on_c, 10, 69, 0
11, 53640, Note_on_c, 10, 67, 127
11, 53699, Note_on_c, 10, 67, 0
11, 53700, Note_on_c, 10, 69, 127
11, 53819, Note_on_c, 10, 69, 0
11, 53820, Note_on_c, 10, 65, 127
11, 53939, Note_on_c, 10, 65, 0
11, 53940, Note_on_c, 10, 67, 127
11, 54059, Note_on_c, 10, 67, 0
11, 54120, Note_on_c, 10, 72, 127
11, 54179, Note_on_c, 10, 72, 0
11, 54180, Note_on_c, 10, 69, 127
11, 54239, Note_on_c, 10, 69, 0
11, 54240, Note_on_c, 10, 77, 127
11, 54299, Note_on_c, 10, 77, 0
11, 54300, Note_on_c, 10, 75, 127
11, 54359, Note_on_c, 10, 75, 0
11, 54360, Note_on_c, 10, 74, 127
11, 54419, Note_on_c, 10, 74, 0
11, 54420, Note_on_c, 10, 72, 127
11, 54539, Note_on_c, 10, 72, 0
11, 54540, Note_on_c, 10, 71, 127
11, 54629, Note_on_c, 10, 71, 0
11, 54630, Note_on_c, 10, 72, 127
11, 54659, Note_on_c, 10, 72, 0
11, 54660, Note_on_c, 10, 72, 127
11, 54779, Note_on_c, 10, 72, 0
11, 66660, Control_c, 10, 0, 20
11, 66660, Program_c, 10, 65
11, 66660, Note_on_c, 10, 72, 127
11, 66900, Note_on_c, 10, 72, 0
11, 66960, Note_on_c, 10, 67, 127
11, 67020, Note_on_c, 10, 67, 0
11, 67020, Note_on_c, 10, 69, 127
11, 67080, Note_on_c, 10, 69, 0
11, 67080, Note_on_c, 10, 65, 127
11, 67140, Note_on_c, 10, 65, 0
11, 67140, Note_on_c, 10, 67, 127
11, 67200, Note_on_c, 10, 67, 0
11, 67380, Note_on_c, 10, 72, 127
11, 67620, Note_on_c, 10, 72, 0
11, 67620, Note_on_c, 10, 76, 127
11, 67680, Note_on_c, 10, 76, 0
11, 67680, Note_on_c, 10, 74, 127
11, 67740, Note_on_c, 10, 74, 0
11, 67740, Note_on_c, 10, 76, 127
11, 67800, Note_on_c, 10, 76, 0
11, 67800, Note_on_c, 10, 72, 127
11, 67860, Note_on_c, 10, 72, 0
11, 67860, Note_on_c, 10, 74, 127
11, 67920, Note_on_c, 10, 74, 0
11, 68100, Note_on_c, 10, 67, 127
11, 68340, Note_on_c, 10, 67, 0
11, 68400, Note_on_c, 10, 69, 127
11, 68460, Note_on_c, 10, 69, 0
11, 68460, Note_on_c, 10, 67, 127
11, 68520, Note_on_c, 10, 67, 0
11, 68520, Note_on_c, 10, 72, 127
11, 68580, Note_on_c, 10, 72, 0
11, 68580, Note_on_c, 10, 76, 127
11, 68640, Note_on_c, 10, 76, 0
11, 68640, Note_on_c, 10, 74, 127
11, 68700, Note_on_c, 10, 74, 0
11, 68700, Note_on_c, 10, 72, 127
11, 68730, Note_on_c, 10, 72, 0
11, 68730, Note_on_c, 10, 71, 127
11, 68760, Note_on_c, 10, 71, 0
11, 68760, Note_on_c, 10, 69, 127
11, 68790, Note_on_c, 10, 69, 0
11, 68790, Note_on_c, 10, 67, 127
11, 68820, Note_on_c, 10, 67, 0
11, 68820, Note_on_c, 10, 65, 127
11, 68879, Note_on_c, 10, 65, 0
11, 68880, Note_on_c, 10, 64, 127
11, 68939, Note_on_c, 10, 64, 0
11, 68940, Note_on_c, 10, 65, 127
11, 68999, Note_on_c, 10, 65, 0
11, 69000, Note_on_c, 10, 67, 127
11, 69119, Note_on_c, 10, 67, 0
11, 69120, Note_on_c, 10, 69, 127
11, 69179, Note_on_c, 10, 69, 0
11, 69180, Note_on_c, 10, 67, 127
11, 69239, Note_on_c, 10, 67, 0
11, 69240, Note_on_c, 10, 72, 127
11, 69299, Note_on_c, 10, 72, 0
11, 69300, Note_on_c, 10, 76, 127
11, 69359, Note_on_c, 10, 76, 0
11, 69360, Note_on_c, 10, 74, 127
11, 69419, Note_on_c, 10, 74, 0
11, 69420, Note_on_c, 10, 72, 127
11, 69449, Note_on_c, 10, 72, 0
11, 69450, Note_on_c, 10, 71, 127
11, 69479, Note_on_c, 10, 71, 0
11, 69480, Note_on_c, 10, 69, 127
11, 69509, Note_on_c, 10, 69, 0
11, 69510, Note_on_c, 10, 67, 127
11, 69539, Note_on_c, 10, 67, 0
11, 69540, Note_on_c, 10, 65, 127
11, 69599, Note_on_c, 10, 65, 0
11, 69600, Note_on_c, 10, 64, 127
11, 69659, Note_on_c, 10, 64, 0
11, 69660, Note_on_c, 10, 65, 127
11, 69719, Note_on_c, 10, 65, 0
11, 69720, Note_on_c, 10, 67, 127
11, 69779, Note_on_c, 10, 67, 0
11, 69780, Note_on_c, 10, 69, 127
11, 69839, Note_on_c, 10, 69, 0
11, 69840, Note_on_c, 10, 70, 127
11, 69899, Note_on_c, 10, 70, 0
11, 69900, Note_on_c, 10, 69, 127
11, 69959, Note_on_c, 10, 69, 0
11, 69960, Note_on_c, 10, 71, 127
11, 70019, Note_on_c, 10, 71, 0
11, 70020, Note_on_c, 10, 72, 127
11, 70079, Note_on_c, 10, 72, 0
11, 70080, Note_on_c, 10, 71, 127
11, 70109, Note_on_c, 10, 71, 0
11, 70110, Note_on_c, 10, 72, 127
11, 70139, Note_on_c, 10, 72, 0
11, 70140, Note_on_c, 10, 74, 127
11, 70154, Note_on_c, 10, 74, 0
11, 70155, Note_on_c, 10, 72, 127
11, 70169, Note_on_c, 10, 72, 0
11, 70170, Note_on_c, 10, 74, 127
11, 70184, Note_on_c, 10, 74, 0
11, 70185, Note_on_c, 10, 72, 127
11, 70199, Note_on_c, 10, 72, 0
11, 70200, Note_on_c, 10, 74, 127
11, 70214, Note_on_c, 10, 74, 0
11, 70215, Note_on_c, 10, 72, 127
11, 70229, Note_on_c, 10, 72, 0
11, 70230, Note_on_c, 10, 71, 127
11, 70244, Note_on_c, 10, 71, 0
11, 70245, Note_on_c, 10, 72, 127
11, 70259, Note_on_c, 10, 72, 0
11, 70260, Note_on_c, 10, 74, 127
11, 70379, Note_on_c, 10, 74, 0
11, 70620, Note_on_c, 10, 72, 127
11, 70739, Note_on_c, 10, 72, 0
11, 70740, Note_on_c, 10, 71, 127
11, 70799, Note_on_c, 10, 71, 0
11, 70800, Note_on_c, 10, 72, 127
11, 70859, Note_on_c, 10, 72, 0
11, 70860, Note_on_c, 10, 76, 127
11, 70919, Note_on_c, 10, 76, 0
11, 70920, Note_on_c, 10, 74, 127
11, 70979, Note_on_c, 10, 74, 0
11, 70980, Note_on_c, 10, 71, 127
11, 71039, Note_on_c, 10, 71, 0
11, 71040, Note_on_c, 10, 69, 127
11, 71099, Note_on_c, 10, 69, 0
11, 71100, Note_on_c, 10, 67, 127
11, 71159, Note_on_c, 10, 67, 0
11, 71340, Note_on_c, 10, 74, 127
11, 71459, Note_on_c, 10, 74, 0
11, 71460, Note_on_c, 10, 73, 127
11, 71519, Note_on_c, 10, 73, 0
11, 71520, Note_on_c, 10, 74, 127
11, 71579, Note_on_c, 10, 74, 0
11, 71580, Note_on_c, 10, 77, 127
11, 71639, Note_on_c, 10, 77, 0
11, 71640, Note_on_c, 10, 76, 127
11, 71699, Note_on_c, 10, 76, 0
11, 71700, Note_on_c, 10, 77, 127
11, 71759, Note_on_c, 10, 77, 0
11, 71760, Note_on_c, 10, 76, 127
11, 71819, Note_on_c, 10, 76, 0
11, 71820, Note_on_c, 10, 74, 127
11, 71879, Note_on_c, 10, 74, 0
11, 72240, Note_on_c, 10, 69, 127
11, 72479, Note_on_c, 10, 69, 0
11, 72480, Note_on_c, 10, 71, 127
11, 72539, Note_on_c, 10, 71, 0
11, 72540, Note_on_c, 10, 72, 127
11, 72599, Note_on_c, 10, 72, 0
11, 72600, Note_on_c, 10, 71, 127
11, 72659, Note_on_c, 10, 71, 0
11, 72660, Note_on_c, 10, 67, 127
11, 72719, Note_on_c, 10, 67, 0
11, 73140, Note_on_c, 10, 76, 127
11, 73439, Note_on_c, 10, 76, 0
11, 73440, Note_on_c, 10, 77, 127
11, 73499, Note_on_c, 10, 77, 0
11, 73500, Note_on_c, 10, 76, 127
11, 73559, Note_on_c, 10, 76, 0
11, 73560, Note_on_c, 10, 72, 127
11, 73619, Note_on_c, 10, 72, 0
11, 73620, Note_on_c, 10, 69, 127
11, 73679, Note_on_c, 10, 69, 0
11, 73680, Note_on_c, 10, 68, 127
11, 73739, Note_on_c, 10, 68, 0
11, 73740, Note_on_c, 10, 74, 127
11, 73799, Note_on_c, 10, 74, 0
11, 73800, Note_on_c, 10, 71, 127
11, 73859, Note_on_c, 10, 71, 0
11, 73860, Note_on_c, 10, 72, 127
11, 73919, Note_on_c, 10, 72, 0
11, 73920, Note_on_c, 10, 71, 127
11, 73979, Note_on_c, 10, 71, 0
11, 73980, Note_on_c, 10, 69, 127
11, 74039, Note_on_c, 10, 69, 0
11, 74040, Note_on_c, 10, 74, 127
11, 74159, Note_on_c, 10, 74, 0
11, 74160, Note_on_c, 10, 76, 127
11, 74219, Note_on_c, 10, 76, 0
11, 74220, Note_on_c, 10, 74, 127
11, 74279, Note_on_c, 10, 74, 0
11, 74280, Note_on_c, 10, 71, 127
11, 74339, Note_on_c, 10, 71, 0
11, 74340, Note_on_c, 10, 67, 127
11, 74399, Note_on_c, 10, 67, 0
11, 74400, Note_on_c, 10, 66, 127
11, 74459, Note_on_c, 10, 66, 0
11, 74460, Note_on_c, 10, 72, 127
11, 74519, Note_on_c, 10, 72, 0
11, 74520, Note_on_c, 10, 69, 127
11, 74579, Note_on_c, 10, 69, 0
11, 74580, Note_on_c, 10, 71, 127
11, 74639, Note_on_c, 10, 71, 0
11, 74640, Note_on_c, 10, 69, 127
11, 74699, Note_on_c, 10, 69, 0
11, 74700, Note_on_c, 10, 67, 127
11, 74759, Note_on_c, 10, 67, 0
11, 74760, Note_on_c, 10, 62, 127
11, 74819, Note_on_c, 10, 62, 0
11, 74820, Note_on_c, 10, 64, 127
11, 74879, Note_on_c, 10, 64, 0
11, 74880, Note_on_c, 10, 65, 127
11, 74939, Note_on_c, 10, 65, 0
11, 74940, Note_on_c, 10, 64, 127
11, 74999, Note_on_c, 10, 64, 0
11, 75000, Note_on_c, 10, 66, 127
11, 75059, Note_on_c, 10, 66, 0
11, 75060, Note_on_c, 10, 67, 127
11, 75119, Note_on_c, 10, 67, 0
11, 75120, Note_on_c, 10, 66, 127
11, 75149, Note_on_c, 10, 66, 0
11, 75150, Note_on_c, 10, 67, 127
11, 75179, Note_on_c, 10, 67, 0
11, 75180, Note_on_c, 10, 69, 127
11, 75194, Note_on_c, 10, 69, 0
11, 75195, Note_on_c, 10, 67, 127
11, 75209, Note_on_c, 10, 67, 0
11, 75210, Note_on_c, 10, 69, 127
11, 75224, Note_on_c, 10, 69, 0
11, 75225, Note_on_c, 10, 67, 127
11, 75239, Note_on_c, 10, 67, 0
11, 75240, Note_on_c, 10, 69, 127
11, 75254, Note_on_c, 10, 69, 0
11, 75255, Note_on_c, 10, 67, 127
11, 75269, Note_on_c, 10, 67, 0
11, 75270, Note_on_c, 10, 66, 127
11, 75284, Note_on_c, 10, 66, 0
11, 75285, Note_on_c, 10, 67, 127
11, 75299, Note_on_c, 10, 67, 0
11, 75300, Note_on_c, 10, 69, 127
11, 75419, Note_on_c, 10, 69, 0
11, 75480, Note_on_c, 10, 62, 127
11, 75539, Note_on_c, 10, 62, 0
11, 75540, Note_on_c, 10, 72, 127
11, 75659, Note_on_c, 10, 72, 0
11, 75660, Note_on_c, 10, 71, 127
11, 75719, Note_on_c, 10, 71, 0
11, 75720, Note_on_c, 10, 66, 127
11, 75779, Note_on_c, 10, 66, 0
11, 75780, Note_on_c, 10, 67, 127
11, 75839, Note_on_c, 10, 67, 0
11, 75840, Note_on_c, 10, 76, 127
11, 75899, Note_on_c, 10, 76, 0
11, 75900, Note_on_c, 10, 74, 127
11, 75959, Note_on_c, 10, 74, 0
11, 75960, Note_on_c, 10, 66, 127
11, 76019, Note_on_c, 10, 66, 0
11, 76020, Note_on_c, 10, 72, 127
11, 76079, Note_on_c, 10, 72, 0
11, 76080, Note_on_c, 10, 71, 127
11, 76139, Note_on_c, 10, 71, 0
11, 76560, Note_on_c, 10, 67, 127
11, 76619, Note_on_c, 10, 67, 0
11, 76620, Note_on_c, 10, 74, 127
11, 76709, Note_on_c, 10, 74, 0
11, 76710, Note_on_c, 10, 76, 127
11, 76724, Note_on_c, 10, 76, 0
11, 76725, Note_on_c, 10, 77, 127
11, 76739, Note_on_c, 10, 77, 0
11, 76740, Note_on_c, 10, 76, 127
11, 76799, Note_on_c, 10, 76, 0
11, 76800, Note_on_c, 10, 71, 127
11, 76859, Note_on_c, 10, 71, 0
11, 76860, Note_on_c, 10, 72, 127
11, 76919, Note_on_c, 10, 72, 0
11, 77100, Note_on_c, 10, 77, 127
11, 77160, Note_on_c, 10, 77, 0
11, 77160, Note_on_c, 10, 76, 127
11, 77220, Note_on_c, 10, 76, 0
11, 77640, Note_on_c, 10, 67, 127
11, 77699, Note_on_c, 10, 67, 0
11, 77700, Note_on_c, 10, 66, 127
11, 77759, Note_on_c, 10, 66, 0
11, 77760, Note_on_c, 10, 67, 127
11, 77819, Note_on_c, 10, 67, 0
11, 77820, Note_on_c, 10, 66, 127
11, 77879, Note_on_c, 10, 66, 0
11, 77880, Note_on_c, 10, 67, 127
11, 77939, Note_on_c, 10, 67, 0
11, 77940, Note_on_c, 10, 69, 127
11, 77999, Note_on_c, 10, 69, 0
11, 78000, Note_on_c, 10, 69, 127
11, 78059, Note_on_c, 10, 69, 0
11, 78060, Note_on_c, 10, 71, 127
11, 78119, Note_on_c, 10, 71, 0
11, 78120, Note_on_c, 10, 72, 127
11, 78179, Note_on_c, 10, 72, 0
11, 78180, Note_on_c, 10, 72, 127
11, 78239, Note_on_c, 10, 72, 0
11, 78240, Note_on_c, 10, 74, 127
11, 78299, Note_on_c, 10, 74, 0
11, 78300, Note_on_c, 10, 76, 127
11, 78359, Note_on_c, 10, 76, 0
11, 78360, Note_on_c, 10, 76, 127
11, 78419, Note_on_c, 10, 76, 0
11, 78420, Note_on_c, 10, 74, 127
11, 78479, Note_on_c, 10, 74, 0
11, 78480, Note_on_c, 10, 72, 127
11, 78539, Note_on_c, 10, 72, 0
11, 78540, Note_on_c, 10, 71, 127
11, 78599, Note_on_c, 10, 71, 0
11, 78600, Note_on_c, 10, 69, 127
11, 78659, Note_on_c, 10, 69, 0
11, 78660, Note_on_c, 10, 67, 127
11, 78719, Note_on_c, 10, 67, 0
11, 78720, Note_on_c, 10, 65, 127
11, 78779, Note_on_c, 10, 65, 0
11, 78780, Note_on_c, 10, 64, 127
11, 78839, Note_on_c, 10, 64, 0
11, 78840, Note_on_c, 10, 65, 127
11, 78899, Note_on_c, 10, 65, 0
11, 78900, Note_on_c, 10, 64, 127
11, 79139, Note_on_c, 10, 64, 0
11, 79140, Note_on_c, 10, 69, 127
11, 79199, Note_on_c, 10, 69, 0
11, 79200, Note_on_c, 10, 72, 127
11, 79259, Note_on_c, 10, 72, 0
11, 79260, Note_on_c, 10, 72, 127
11, 79319, Note_on_c, 10, 72, 0
11, 79320, Note_on_c, 10, 66, 127
11, 79379, Note_on_c, 10, 66, 0
11, 79620, Note_on_c, 10, 78, 127
11, 79679, Note_on_c, 10, 78, 0
11, 79680, Note_on_c, 10, 79, 127
11, 79739, Note_on_c, 10, 79, 0
11, 80160, Note_on_c, 10, 74, 127
11, 80219, Note_on_c, 10, 74, 0
11, 80220, Note_on_c, 10, 73, 127
11, 80279, Note_on_c, 10, 73, 0
11, 80700, Note_on_c, 10, 67, 127
11, 80759, Note_on_c, 10, 67, 0
11, 80760, Note_on_c, 10, 66, 127
11, 80819, Note_on_c, 10, 66, 0
11, 81240, Note_on_c, 10, 62, 127
11, 81299, Note_on_c, 10, 62, 0
11, 81300, Note_on_c, 10, 72, 127
11, 81419, Note_on_c, 10, 72, 0
11, 81420, Note_on_c, 10, 71, 127
11, 81479, Note_on_c, 10, 71, 0
11, 81480, Note_on_c, 10, 66, 127
11, 81539, Note_on_c, 10, 66, 0
11, 81540, Note_on_c, 10, 67, 127
11, 81599, Note_on_c, 10, 67, 0
11, 81600, Note_on_c, 10, 76, 127
11, 81659, Note_on_c, 10, 76, 0
11, 81660, Note_on_c, 10, 74, 127
11, 81719, Note_on_c, 10, 74, 0
11, 81720, Note_on_c, 10, 66, 127
11, 81779, Note_on_c, 10, 66, 0
11, 84840, Note_on_c, 10, 74, 127
11, 84959, Note_on_c, 10, 74, 0
11, 84960, Note_on_c, 10, 72, 127
11, 85019, Note_on_c, 10, 72, 0
11, 85020, Note_on_c, 10, 71, 127
11, 85079, Note_on_c, 10, 71, 0
11, 85080, Note_on_c, 10, 69, 127
11, 85139, Note_on_c, 10, 69, 0
11, 85140, Note_on_c, 10, 67, 127
11, 85199, Note_on_c, 10, 67, 0
11, 85200, Note_on_c, 10, 72, 127
11, 85259, Note_on_c, 10, 72, 0
11, 85260, Note_on_c, 10, 76, 127
11, 85319, Note_on_c, 10, 76, 0
11, 85320, Note_on_c, 10, 74, 127
11, 85379, Note_on_c, 10, 74, 0
11, 85380, Note_on_c, 10, 76, 127
11, 85439, Note_on_c, 10, 76, 0
11, 85440, Note_on_c, 10, 74, 127
11, 85499, Note_on_c, 10, 74, 0
11, 85500, Note_on_c, 10, 72, 127
11, 85559, Note_on_c, 10, 72, 0
11, 85560, Note_on_c, 10, 71, 127
11, 85619, Note_on_c, 10, 71, 0
11, 85620, Note_on_c, 10, 72, 127
11, 85679, Note_on_c, 10, 72, 0
11, 85680, Note_on_c, 10, 69, 127
11, 85739, Note_on_c, 10, 69, 0
11, 85740, Note_on_c, 10, 77, 127
11, 85799, Note_on_c, 10, 77, 0
11, 85800, Note_on_c, 10, 76, 127
11, 85859, Note_on_c, 10, 76, 0
11, 85860, Note_on_c, 10, 74, 127
11, 85919, Note_on_c, 10, 74, 0
11, 85920, Note_on_c, 10, 72, 127
11, 85979, Note_on_c, 10, 72, 0
11, 85980, Note_on_c, 10, 71, 127
11, 86039, Note_on_c, 10, 71, 0
11, 86040, Note_on_c, 10, 69, 127
11, 86099, Note_on_c, 10, 69, 0
11, 86100, Note_on_c, 10, 68, 127
11, 86279, Note_on_c, 10, 68, 0
11, 86280, Note_on_c, 10, 64, 127
11, 86339, Note_on_c, 10, 64, 0
11, 86340, Note_on_c, 10, 66, 127
11, 86399, Note_on_c, 10, 66, 0
11, 86400, Note_on_c, 10, 68, 127
11, 86459, Note_on_c, 10, 68, 0
11, 86460, Note_on_c, 10, 69, 127
11, 86519, Note_on_c, 10, 69, 0
11, 86520, Note_on_c, 10, 71, 127
11, 86579, Note_on_c, 10, 71, 0
11, 86580, Note_on_c, 10, 72, 127
11, 86639, Note_on_c, 10, 72, 0
11, 86640, Note_on_c, 10, 71, 127
11, 86699, Note_on_c, 10, 71, 0
11, 86700, Note_on_c, 10, 76, 127
11, 86759, Note_on_c, 10, 76, 0
11, 86760, Note_on_c, 10, 74, 127
11, 86819, Note_on_c, 10, 74, 0
11, 86820, Note_on_c, 10, 72, 127
11, 86879, Note_on_c, 10, 72, 0
11, 86880, Note_on_c, 10, 71, 127
11, 86939, Note_on_c, 10, 71, 0
11, 86940, Note_on_c, 10, 69, 127
11, 87059, Note_on_c, 10, 69, 0
11, 87060, Note_on_c, 10, 71, 127
11, 87119, Note_on_c, 10, 71, 0
11, 87120, Note_on_c, 10, 73, 127
11, 87179, Note_on_c, 10, 73, 0
11, 87180, Note_on_c, 10, 74, 127
11, 87239, Note_on_c, 10, 74, 0
11, 87240, Note_on_c, 10, 76, 127
11, 87299, Note_on_c, 10, 76, 0
11, 87300, Note_on_c, 10, 77, 127
11, 87359, Note_on_c, 10, 77, 0
11, 87360, Note_on_c, 10, 76, 127
11, 87419, Note_on_c, 10, 76, 0
11, 87420, Note_on_c, 10, 77, 127
11, 87479, Note_on_c, 10, 77, 0
11, 87480, Note_on_c, 10, 79, 127
11, 87539, Note_on_c, 10, 79, 0
11, 87540, Note_on_c, 10, 77, 127
11, 87599, Note_on_c, 10, 77, 0
11, 87600, Note_on_c, 10, 76, 127
11, 87659, Note_on_c, 10, 76, 0
11, 87660, Note_on_c, 10, 74, 127
11, 87719, Note_on_c, 10, 74, 0
11, 87720, Note_on_c, 10, 77, 127
11, 87749, Note_on_c, 10, 77, 0
11, 87750, Note_on_c, 10, 76, 127
11, 87779, Note_on_c, 10, 76, 0
11, 87780, Note_on_c, 10, 77, 127
11, 87839, Note_on_c, 10, 77, 0
11, 88020, Note_on_c, 10, 74, 127
11, 88079, Note_on_c, 10, 74, 0
11, 88080, Note_on_c, 10, 72, 127
11, 88139, Note_on_c, 10, 72, 0
11, 88140, Note_on_c, 10, 69, 127
11, 88199, Note_on_c, 10, 69, 0
11, 88200, Note_on_c, 10, 70, 127
11, 88259, Note_on_c, 10, 70, 0
11, 88440, Note_on_c, 10, 67, 127
11, 88469, Note_on_c, 10, 67, 0
11, 88470, Note_on_c, 10, 66, 127
11, 88499, Note_on_c, 10, 66, 0
11, 88500, Note_on_c, 10, 67, 127
11, 88559, Note_on_c, 10, 67, 0
11, 88740, Note_on_c, 10, 67, 127
11, 88799, Note_on_c, 10, 67, 0
11, 88800, Note_on_c, 10, 77, 127
11, 88859, Note_on_c, 10, 77, 0
11, 88860, Note_on_c, 10, 74, 127
11, 88919, Note_on_c, 10, 74, 0
11, 88920, Note_on_c, 10, 76, 127
11, 88979, Note_on_c, 10, 76, 0
11, 89160, Note_on_c, 10, 69, 127
11, 89219, Note_on_c, 10, 69, 0
11, 89220, Note_on_c, 10, 68, 127
11, 89279, Note_on_c, 10, 68, 0
11, 89280, Note_on_c, 10, 69, 127
11, 89339, Note_on_c, 10, 69, 0
11, 89340, Note_on_c, 10, 74, 127
11, 89459, Note_on_c, 10, 74, 0
11, 89880, Note_on_c, 10, 74, 127
11, 89939, Note_on_c, 10, 74, 0
11, 89940, Note_on_c, 10, 73, 127
11, 89999, Note_on_c, 10, 73, 0
11, 90000, Note_on_c, 10, 74, 127
11, 90059, Note_on_c, 10, 74, 0
11, 90060, Note_on_c, 10, 77, 127
11, 90119, Note_on_c, 10, 77, 0
11, 90120, Note_on_c, 10, 76, 127
11, 90179, Note_on_c, 10, 76, 0
11, 90180, Note_on_c, 10, 74, 127
11, 90239, Note_on_c, 10, 74, 0
11, 90240, Note_on_c, 10, 72, 127
11, 90299, Note_on_c, 10, 72, 0
11, 90300, Note_on_c, 10, 71, 127
11, 90359, Note_on_c, 10, 71, 0
11, 90360, Note_on_c, 10, 69, 127
11, 90419, Note_on_c, 10, 69, 0
11, 90420, Note_on_c, 10, 64, 127
11, 90539, Note_on_c, 10, 64, 0
11, 90900, Note_on_c, 10, 64, 127
11, 90959, Note_on_c, 10, 64, 0
11, 90960, Note_on_c, 10, 71, 127
11, 91079, Note_on_c, 10, 71, 0
11, 91440, Note_on_c, 10, 71, 127
11, 91499, Note_on_c, 10, 71, 0
11, 91500, Note_on_c, 10, 76, 127
11, 91619, Note_on_c, 10, 76, 0
11, 92040, Note_on_c, 10, 74, 127
11, 92099, Note_on_c, 10, 74, 0
11, 92100, Note_on_c, 10, 71, 127
11, 92159, Note_on_c, 10, 71, 0
11, 92160, Note_on_c, 10, 76, 127
11, 92219, Note_on_c, 10, 76, 0
11, 92220, Note_on_c, 10, 72, 127
11, 92279, Note_on_c, 10, 72, 0
11, 92280, Note_on_c, 10, 71, 127
11, 92339, Note_on_c, 10, 71, 0
11, 92340, Note_on_c, 10, 69, 127
11, 92399, Note_on_c, 10, 69, 0
11, 92400, Note_on_c, 10, 71, 127
11, 92459, Note_on_c, 10, 71, 0
11, 92460, Note_on_c, 10, 68, 127
11, 92519, Note_on_c, 10, 68, 0
11, 92520, Note_on_c, 10, 69, 127
11, 92579, Note_on_c, 10, 69, 0
11, 95640, Note_on_c, 10, 72, 127
11, 95699, Note_on_c, 10, 72, 0
11, 95700, Note_on_c, 10, 74, 127
11, 95759, Note_on_c, 10, 74, 0
11, 95760, Note_on_c, 10, 76, 127
11, 95819, Note_on_c, 10, 76, 0
11, 95820, Note_on_c, 10, 76, 127
11, 95879, Note_on_c, 10, 76, 0
11, 95880, Note_on_c, 10, 74, 127
11, 95939, Note_on_c, 10, 74, 0
11, 95940, Note_on_c, 10, 72, 127
11, 95999, Note_on_c, 10, 72, 0
11, 96000, Note_on_c, 10, 72, 127
11, 96059, Note_on_c, 10, 72, 0
11, 96060, Note_on_c, 10, 71, 127
11, 96119, Note_on_c, 10, 71, 0
11, 96120, Note_on_c, 10, 69, 127
11, 96179, Note_on_c, 10, 69, 0
11, 96180, Note_on_c, 10, 71, 127
11, 96239, Note_on_c, 10, 71, 0
11, 96240, Note_on_c, 10, 69, 127
11, 96299, Note_on_c, 10, 69, 0
11, 96300, Note_on_c, 10, 67, 127
11, 96359, Note_on_c, 10, 67, 0
11, 96360, Note_on_c, 10, 74, 127
11, 96479, Note_on_c, 10, 74, 0
11, 96480, Note_on_c, 10, 76, 127
11, 96539, Note_on_c, 10, 76, 0
11, 96540, Note_on_c, 10, 73, 127
11, 96659, Note_on_c, 10, 73, 0
11, 96660, Note_on_c, 10, 74, 127
11, 96719, Note_on_c, 10, 74, 0
11, 96720, Note_on_c, 10, 67, 127
11, 96779, Note_on_c, 10, 67, 0
11, 96780, Note_on_c, 10, 70, 127
11, 96839, Note_on_c, 10, 70, 0
11, 96840, Note_on_c, 10, 69, 127
11, 96899, Note_on_c, 10, 69, 0
11, 96900, Note_on_c, 10, 65, 127
11, 97139, Note_on_c, 10, 65, 0
11, 97140, Note_on_c, 10, 69, 127
11, 97199, Note_on_c, 10, 69, 0
11, 97200, Note_on_c, 10, 74, 127
11, 97259, Note_on_c, 10, 74, 0
11, 97260, Note_on_c, 10, 71, 127
11, 97319, Note_on_c, 10, 71, 0
11, 97320, Note_on_c, 10, 72, 127
11, 97379, Note_on_c, 10, 72, 0
11, 97380, Note_on_c, 10, 74, 127
11, 97439, Note_on_c, 10, 74, 0
11, 97440, Note_on_c, 10, 76, 127
11, 97499, Note_on_c, 10, 76, 0
11, 97500, Note_on_c, 10, 74, 127
11, 97559, Note_on_c, 10, 74, 0
11, 97560, Note_on_c, 10, 72, 127
11, 97619, Note_on_c, 10, 72, 0
11, 97620, Note_on_c, 10, 74, 127
11, 97679, Note_on_c, 10, 74, 0
11, 97680, Note_on_c, 10, 71, 127
11, 97739, Note_on_c, 10, 71, 0
11, 97740, Note_on_c, 10, 67, 127
11, 97859, Note_on_c, 10, 67, 0
11, 97860, Note_on_c, 10, 64, 127
11, 97919, Note_on_c, 10, 64, 0
11, 97920, Note_on_c, 10, 65, 127
11, 97979, Note_on_c, 10, 65, 0
11, 97980, Note_on_c, 10, 64, 127
11, 98039, Note_on_c, 10, 64, 0
11, 98040, Note_on_c, 10, 67, 127
11, 98099, Note_on_c, 10, 67, 0
11, 98100, Note_on_c, 10, 70, 127
11, 98219, Note_on_c, 10, 70, 0
11, 98220, Note_on_c, 10, 69, 127
11, 98279, Note_on_c, 10, 69, 0
11, 98280, Note_on_c, 10, 67, 127
11, 98339, Note_on_c, 10, 67, 0
11, 98340, Note_on_c, 10, 69, 127
11, 98579, Note_on_c, 10, 69, 0
11, 98580, Note_on_c, 10, 65, 127
11, 98639, Note_on_c, 10, 65, 0
11, 98640, Note_on_c, 10, 67, 127
11, 98699, Note_on_c, 10, 67, 0
11, 98700, Note_on_c, 10, 66, 127
11, 98759, Note_on_c, 10, 66, 0
11, 98760, Note_on_c, 10, 69, 127
11, 98819, Note_on_c, 10, 69, 0
11, 98820, Note_on_c, 10, 72, 127
11, 98939, Note_on_c, 10, 72, 0
11, 98940, Note_on_c, 10, 71, 127
11, 98999, Note_on_c, 10, 71, 0
11, 99000, Note_on_c, 10, 69, 127
11, 99059, Note_on_c, 10, 69, 0
11, 99060, Note_on_c, 10, 71, 127
11, 99299, Note_on_c, 10, 71, 0
11, 99300, Note_on_c, 10, 74, 127
11, 99329, Note_on_c, 10, 74, 0
11, 99330, Note_on_c, 10, 72, 127
11, 99359, Note_on_c, 10, 72, 0
11, 99360, Note_on_c, 10, 71, 127
11, 99389, Note_on_c, 10, 71, 0
11, 99390, Note_on_c, 10, 69, 127
11, 99419, Note_on_c, 10, 69, 0
11, 99420, Note_on_c, 10, 67, 127
11, 99479, Note_on_c, 10, 67, 0
11, 99480, Note_on_c, 10, 71, 127
11, 99539, Note_on_c, 10, 71, 0
11, 99540, Note_on_c, 10, 74, 127
11, 99599, Note_on_c, 10, 74, 0
11, 99600, Note_on_c, 10, 77, 127
11, 99659, Note_on_c, 10, 77, 0
11, 99660, Note_on_c, 10, 76, 127
11, 99719, Note_on_c, 10, 76, 0
11, 99720, Note_on_c, 10, 74, 127
11, 99779, Note_on_c, 10, 74, 0
11, 99780, Note_on_c, 10, 76, 127
11, 99839, Note_on_c, 10, 76, 0
11, 99840, Note_on_c, 10, 77, 127
11, 99899, Note_on_c, 10, 77, 0
11, 99900, Note_on_c, 10, 79, 127
11, 99959, Note_on_c, 10, 79, 0
11, 99960, Note_on_c, 10, 70, 127
11, 99989, Note_on_c, 10, 70, 0
11, 99990, Note_on_c, 10, 69, 127
11, 100019, Note_on_c, 10, 69, 0
11, 100020, Note_on_c, 10, 70, 127
11, 100079, Note_on_c, 10, 70, 0
11, 100260, Note_on_c, 10, 69, 127
11, 100319, Note_on_c, 10, 69, 0
11, 100320, Note_on_c, 10, 74, 127
11, 100379, Note_on_c, 10, 74, 0
11, 100380, Note_on_c, 10, 76, 127
11, 100439, Note_on_c, 10, 76, 0
11, 100440, Note_on_c, 10, 77, 127
11, 100499, Note_on_c, 10, 77, 0
11, 100680, Note_on_c, 10, 77, 127
11, 100739, Note_on_c, 10, 77, 0
11, 100740, Note_on_c, 10, 76, 127
11, 100799, Note_on_c, 10, 76, 0
11, 100800, Note_on_c, 10, 74, 127
11, 100859, Note_on_c, 10, 74, 0
11, 100860, Note_on_c, 10, 72, 127
11, 100919, Note_on_c, 10, 72, 0
11, 100920, Note_on_c, 10, 71, 127
11, 100979, Note_on_c, 10, 71, 0
11, 101040, Note_on_c, 10, 78, 127
11, 101099, Note_on_c, 10, 78, 0
11, 101100, Note_on_c, 10, 79, 127
11, 101159, Note_on_c, 10, 79, 0
11, 101340, Note_on_c, 10, 72, 127
11, 101399, Note_on_c, 10, 72, 0
11, 101400, Note_on_c, 10, 72, 127
11, 101459, Note_on_c, 10, 72, 0
11, 101460, Note_on_c, 10, 69, 127
11, 101519, Note_on_c, 10, 69, 0
11, 101520, Note_on_c, 10, 71, 127
11, 101579, Note_on_c, 10, 71, 0
11, 101760, Note_on_c, 10, 74, 127
11, 101819, Note_on_c, 10, 74, 0
11, 101820, Note_on_c, 10, 71, 127
11, 101879, Note_on_c, 10, 71, 0
11, 101880, Note_on_c, 10, 72, 127
11, 101939, Note_on_c, 10, 72, 0
11, 101940, Note_on_c, 10, 72, 127
11, 102059, Note_on_c, 10, 72, 0
11, 102480, Note_on_c, 10, 74, 127
11, 102539, Note_on_c, 10, 74, 0
11, 102540, Note_on_c, 10, 76, 127
11, 102599, Note_on_c, 10, 76, 0
11, 102600, Note_on_c, 10, 77, 127
11, 102659, Note_on_c, 10, 77, 0
11, 102660, Note_on_c, 10, 76, 127
11, 102719, Note_on_c, 10, 76, 0
11, 102720, Note_on_c, 10, 74, 127
11, 102779, Note_on_c, 10, 74, 0
11, 102780, Note_on_c, 10, 72, 127
11, 102839, Note_on_c, 10, 72, 0
11, 102840, Note_on_c, 10, 74, 127
11, 102899, Note_on_c, 10, 74, 0
11, 102900, Note_on_c, 10, 71, 127
11, 102959, Note_on_c, 10, 71, 0
11, 102960, Note_on_c, 10, 72, 127
11, 103019, Note_on_c, 10, 72, 0
11, 103020, Note_on_c, 10, 67, 127
11, 103139, Note_on_c, 10, 67, 0
11, 103500, Note_on_c, 10, 67, 127
11, 103559, Note_on_c, 10, 67, 0
11, 103560, Note_on_c, 10, 72, 127
11, 103679, Note_on_c, 10, 72, 0
11, 104040, Note_on_c, 10, 72, 127
11, 104099, Note_on_c, 10, 72, 0
11, 104100, Note_on_c, 10, 76, 127
11, 104219, Note_on_c, 10, 76, 0
11, 104580, Note_on_c, 10, 76, 127
11, 104639, Note_on_c, 10, 76, 0
11, 104640, Note_on_c, 10, 79, 127
11, 104759, Note_on_c, 10, 79, 0
11, 105060, Note_on_c, 10, 79, 127
11, 105119, Note_on_c, 10, 79, 0
11, 105120, Note_on_c, 10, 76, 127
11, 105179, Note_on_c, 10, 76, 0
11, 105180, Note_on_c, 10, 72, 127
11, 105239, Note_on_c, 10, 72, 0
11, 105240, Note_on_c, 10, 77, 127
11, 105299, Note_on_c, 10, 77, 0
11, 105300, Note_on_c, 10, 74, 127
11, 105359, Note_on_c, 10, 74, 0
11, 105360, Note_on_c, 10, 72, 127
11, 105419, Note_on_c, 10, 72, 0
11, 105420, Note_on_c, 10, 71, 127
11, 105479, Note_on_c, 10, 71, 0
11, 105480, Note_on_c, 10, 72, 127
11, 105539, Note_on_c, 10, 72, 0
11, 110460, Control_c, 10, 0, 20
11, 110460, Program_c, 10, 65
11, 110460, Note_on_c, 10, 76, 127
11, 110579, Note_on_c, 10, 76, 0
11, 110580, Note_on_c, 10, 72, 127
11, 110699, Note_on_c, 10, 72, 0
11, 110700, Note_on_c, 10, 69, 127
11, 110879, Note_on_c, 10, 69, 0
11, 110880, Note_on_c, 10, 69, 127
11, 110939, Note_on_c, 10, 69, 0
11, 110940, Note_on_c, 10, 74, 127
11, 111059, Note_on_c, 10, 74, 0
11, 111060, Note_on_c, 10, 76, 127
11, 111119, Note_on_c, 10, 76, 0
11, 111120, Note_on_c, 10, 77, 127
11, 111149, Note_on_c, 10, 77, 0
11, 111150, Note_on_c, 10, 79, 127
11, 111179, Note_on_c, 10, 79, 0
11, 111180, Note_on_c, 10, 77, 127
11, 111239, Note_on_c, 10, 77, 0
11, 111240, Note_on_c, 10, 76, 127
11, 111299, Note_on_c, 10, 76, 0
11, 111300, Note_on_c, 10, 74, 127
11, 111419, Note_on_c, 10, 74, 0
11, 111420, Note_on_c, 10, 71, 127
11, 111599, Note_on_c, 10, 71, 0
11, 111600, Note_on_c, 10, 76, 127
11, 111659, Note_on_c, 10, 76, 0
11, 111660, Note_on_c, 10, 74, 127
11, 111719, Note_on_c, 10, 74, 0
11, 111720, Note_on_c, 10, 72, 127
11, 111779, Note_on_c, 10, 72, 0
11, 111780, Note_on_c, 10, 71, 127
11, 111839, Note_on_c, 10, 71, 0
11, 111840, Note_on_c, 10, 69, 127
11, 111899, Note_on_c, 10, 69, 0
11, 111900, Note_on_c, 10, 71, 127
11, 112019, Note_on_c, 10, 71, 0
11, 112020, Note_on_c, 10, 68, 127
11, 112139, Note_on_c, 10, 68, 0
11, 112140, Note_on_c, 10, 69, 127
11, 112259, Note_on_c, 10, 69, 0
11, 112860, Note_on_c, 10, 74, 127
11, 113039, Note_on_c, 10, 74, 0
11, 113040, Note_on_c, 10, 75, 127
11, 113099, Note_on_c, 10, 75, 0
11, 113100, Note_on_c, 10, 66, 127
11, 113219, Note_on_c, 10, 66, 0
11, 113220, Note_on_c, 10, 67, 127
11, 113279, Note_on_c, 10, 67, 0
11, 113280, Note_on_c, 10, 69, 127
11, 113339, Note_on_c, 10, 69, 0
11, 113340, Note_on_c, 10, 70, 127
11, 113459, Note_on_c, 10, 70, 0
11, 113460, Note_on_c, 10, 69, 127
11, 113519, Note_on_c, 10, 69, 0
11, 113520, Note_on_c, 10, 67, 127
11, 113579, Note_on_c, 10, 67, 0
11, 113580, Note_on_c, 10, 67, 127
11, 113639, Note_on_c, 10, 67, 0
11, 114300, Note_on_c, 10, 76, 127
11, 114419, Note_on_c, 10, 76, 0
11, 114420, Note_on_c, 10, 72, 127
11, 114539, Note_on_c, 10, 72, 0
11, 114540, Note_on_c, 10, 77, 127
11, 114719, Note_on_c, 10, 77, 0
11, 114720, Note_on_c, 10, 76, 127
11, 114779, Note_on_c, 10, 76, 0
11, 114780, Note_on_c, 10, 74, 127
11, 114899, Note_on_c, 10, 74, 0
11, 114900, Note_on_c, 10, 76, 127
11, 114959, Note_on_c, 10, 76, 0
11, 114960, Note_on_c, 10, 77, 127
11, 114989, Note_on_c, 10, 77, 0
11, 114990, Note_on_c, 10, 79, 127
11, 115019, Note_on_c, 10, 79, 0
11, 115020, Note_on_c, 10, 76, 127
11, 115079, Note_on_c, 10, 76, 0
11, 115080, Note_on_c, 10, 74, 127
11, 115139, Note_on_c, 10, 74, 0
11, 115140, Note_on_c, 10, 72, 127
11, 115260, Note_on_c, 10, 72, 0
11, 115740, Note_on_c, 10, 75, 127
11, 115859, Note_on_c, 10, 75, 0
11, 115920, Note_on_c, 10, 77, 127
11, 115979, Note_on_c, 10, 77, 0
11, 115980, Note_on_c, 10, 74, 127
11, 116100, Note_on_c, 10, 74, 0
11, 116100, Note_on_c, 10, 72, 127
11, 116159, Note_on_c, 10, 72, 0
11, 116160, Note_on_c, 10, 70, 127
11, 116219, Note_on_c, 10, 70, 0
11, 116220, Note_on_c, 10, 69, 127
11, 116279, Note_on_c, 10, 69, 0
11, 116280, Note_on_c, 10, 70, 127
11, 116339, Note_on_c, 10, 70, 0
11, 116340, Note_on_c, 10, 70, 127
11, 116399, Note_on_c, 10, 70, 0
11, 116400, Note_on_c, 10, 69, 127
11, 116429, Note_on_c, 10, 69, 0
11, 116430, Note_on_c, 10, 70, 127
11, 116459, Note_on_c, 10, 70, 0
11, 116460, Note_on_c, 10, 72, 127
11, 116579, Note_on_c, 10, 72, 0
11, 116700, Note_on_c, 10, 65, 127
11, 116820, Note_on_c, 10, 65, 0
11, 116820, Note_on_c, 10, 67, 127
11, 116879, Note_on_c, 10, 67, 0
11, 116880, Note_on_c, 10, 69, 127
11, 116939, Note_on_c, 10, 69, 0
11, 116940, Note_on_c, 10, 70, 127
11, 116999, Note_on_c, 10, 70, 0
11, 117000, Note_on_c, 10, 72, 127
11, 117029, Note_on_c, 10, 72, 0
11, 117030, Note_on_c, 10, 74, 127
11, 117059, Note_on_c, 10, 74, 0
11, 117060, Note_on_c, 10, 72, 127
11, 117119, Note_on_c, 10, 72, 0
11, 117120, Note_on_c, 10, 70, 127
11, 117179, Note_on_c, 10, 70, 0
11, 117180, Note_on_c, 10, 69, 127
11, 117299, Note_on_c, 10, 69, 0
11, 117300, Note_on_c, 10, 67, 127
11, 117359, Note_on_c, 10, 67, 0
11, 117360, Note_on_c, 10, 65, 127
11, 117419, Note_on_c, 10, 65, 0
11, 117420, Note_on_c, 10, 65, 127
11, 117540, Note_on_c, 10, 65, 0
11, 175740, Note_on_c, 10, 72, 127
11, 175859, Note_on_c, 10, 72, 0
11, 175860, Note_on_c, 10, 69, 127
11, 176099, Note_on_c, 10, 69, 0
11, 176100, Note_on_c, 10, 67, 127
11, 176339, Note_on_c, 10, 67, 0
11, 176340, Note_on_c, 10, 65, 127
11, 176459, Note_on_c, 10, 65, 0
11, 176460, Note_on_c, 10, 70, 127
11, 176579, Note_on_c, 10, 70, 0
11, 176580, Note_on_c, 10, 72, 127
11, 176759, Note_on_c, 10, 72, 0
11, 176760, Note_on_c, 10, 74, 127
11, 176789, Note_on_c, 10, 74, 0
11, 176790, Note_on_c, 10, 75, 127
11, 176819, Note_on_c, 10, 75, 0
11, 176820, Note_on_c, 10, 74, 127
11, 177179, Note_on_c, 10, 74, 0
11, 177180, Note_on_c, 10, 72, 127
11, 177419, Note_on_c, 10, 72, 0
11, 178620, Note_on_c, 10, 74, 127
11, 178739, Note_on_c, 10, 74, 0
11, 178740, Note_on_c, 10, 70, 127
11, 178979, Note_on_c, 10, 70, 0
11, 178980, Note_on_c, 10, 72, 127
11, 179219, Note_on_c, 10, 72, 0
11, 179220, Note_on_c, 10, 65, 127
11, 179339, Note_on_c, 10, 65, 0
11, 179340, Note_on_c, 10, 70, 127
11, 179459, Note_on_c, 10, 70, 0
11, 179460, Note_on_c, 10, 69, 127
11, 179699, Note_on_c, 10, 69, 0
11, 179700, Note_on_c, 10, 67, 127
11, 180059, Note_on_c, 10, 67, 0
11, 181500, Note_on_c, 10, 72, 127
11, 181619, Note_on_c, 10, 72, 0
11, 181620, Note_on_c, 10, 69, 127
11, 181859, Note_on_c, 10, 69, 0
11, 181860, Note_on_c, 10, 67, 127
11, 182099, Note_on_c, 10, 67, 0
11, 182100, Note_on_c, 10, 65, 127
11, 182219, Note_on_c, 10, 65, 0
11, 182220, Note_on_c, 10, 70, 127
11, 182339, Note_on_c, 10, 70, 0
11, 182340, Note_on_c, 10, 72, 127
11, 182519, Note_on_c, 10, 72, 0
11, 182520, Note_on_c, 10, 74, 127
11, 182549, Note_on_c, 10, 74, 0
11, 182550, Note_on_c, 10, 75, 127
11, 182579, Note_on_c, 10, 75, 0
11, 182580, Note_on_c, 10, 74, 127
11, 182939, Note_on_c, 10, 74, 0
11, 182940, Note_on_c, 10, 72, 127
11, 183179, Note_on_c, 10, 72, 0
11, 184380, Note_on_c, 10, 74, 127
11, 184499, Note_on_c, 10, 74, 0
11, 184500, Note_on_c, 10, 70, 127
11, 184739, Note_on_c, 10, 70, 0
11, 184740, Note_on_c, 10, 72, 127
11, 184979, Note_on_c, 10, 72, 0
11, 184980, Note_on_c, 10, 65, 127
11, 185099, Note_on_c, 10, 65, 0
11, 185100, Note_on_c, 10, 70, 127
11, 185219, Note_on_c, 10, 70, 0
11, 185220, Note_on_c, 10, 69, 127
11, 185459, Note_on_c, 10, 69, 0
11, 185460, Note_on_c, 10, 67, 127
11, 185819, Note_on_c, 10, 67, 0
11, 187260, Note_on_c, 10, 76, 127
11, 187379, Note_on_c, 10, 76, 0
11, 187380, Note_on_c, 10, 72, 127
11, 187619, Note_on_c, 10, 72, 0
11, 187620, Note_on_c, 10, 69, 127
11, 187859, Note_on_c, 10, 69, 0
11, 187860, Note_on_c, 10, 74, 127
11, 187979, Note_on_c, 10, 74, 0
11, 187980, Note_on_c, 10, 73, 127
11, 188099, Note_on_c, 10, 73, 0
11, 188100, Note_on_c, 10, 74, 127
11, 188279, Note_on_c, 10, 74, 0
11, 188280, Note_on_c, 10, 76, 127
11, 188309, Note_on_c, 10, 76, 0
11, 188310, Note_on_c, 10, 77, 127
11, 188339, Note_on_c, 10, 77, 0
11, 188340, Note_on_c, 10, 76, 127
11, 188699, Note_on_c, 10, 76, 0
11, 188700, Note_on_c, 10, 69, 127
11, 188939, Note_on_c, 10, 69, 0
11, 190140, Note_on_c, 10, 74, 127
11, 190259, Note_on_c, 10, 74, 0
11, 190260, Note_on_c, 10, 76, 127
11, 190379, Note_on_c, 10, 76, 0
11, 190380, Note_on_c, 10, 77, 127
11, 190499, Note_on_c, 10, 77, 0
11, 190500, Note_on_c, 10, 79, 127
11, 190619, Note_on_c, 10, 79, 0
11, 190620, Note_on_c, 10, 72, 127
11, 190739, Note_on_c, 10, 72, 0
11, 190740, Note_on_c, 10, 70, 127
11, 190859, Note_on_c, 10, 70, 0
11, 190860, Note_on_c, 10, 69, 127
11, 190979, Note_on_c, 10, 69, 0
11, 190980, Note_on_c, 10, 74, 127
11, 191099, Note_on_c, 10, 74, 0
11, 191100, Note_on_c, 10, 70, 127
11, 191219, Note_on_c, 10, 70, 0
11, 191220, Note_on_c, 10, 70, 127
11, 191580, Note_on_c, 10, 70, 0
11, 191580, Note_on_c, 10, 65, 127
11, 191819, Note_on_c, 10, 65, 0
11, 191819, End_track
12, 0, Start_track
12, 0, MIDI_port, 0
12, 0, Title_t, "Alto Coro/Solo"
12, 0, Program_c, 11, 52
12, 0, Control_c, 11, 7, 127
12, 0, Control_c, 11, 10, 83
12, 4320, Note_on_c, 11, 65, 127
12, 4439, Note_on_c, 11, 65, 0
12, 4440, Note_on_c, 11, 65, 127
12, 4499, Note_on_c, 11, 65, 0
12, 4500, Note_on_c, 11, 64, 127
12, 4620, Note_on_c, 11, 64, 0
12, 4620, Note_on_c, 11, 60, 127
12, 4679, Note_on_c, 11, 60, 0
12, 4680, Note_on_c, 11, 65, 127
12, 4799, Note_on_c, 11, 65, 0
12, 4800, Note_on_c, 11, 69, 127
12, 4859, Note_on_c, 11, 69, 0
12, 4860, Note_on_c, 11, 70, 127
12, 4889, Note_on_c, 11, 70, 0
12, 4920, Note_on_c, 11, 69, 127
12, 4949, Note_on_c, 11, 69, 0
12, 5040, Note_on_c, 11, 69, 127
12, 5099, Note_on_c, 11, 69, 0
12, 5100, Note_on_c, 11, 70, 127
12, 5159, Note_on_c, 11, 70, 0
12, 5160, Note_on_c, 11, 72, 127
12, 5219, Note_on_c, 11, 72, 0
12, 5220, Note_on_c, 11, 72, 127
12, 5279, Note_on_c, 11, 72, 0
12, 5280, Note_on_c, 11, 70, 127
12, 5339, Note_on_c, 11, 70, 0
12, 5340, Note_on_c, 11, 69, 127
12, 5399, Note_on_c, 11, 69, 0
12, 5400, Note_on_c, 11, 65, 127
12, 5459, Note_on_c, 11, 65, 0
12, 5460, Note_on_c, 11, 69, 127
12, 5519, Note_on_c, 11, 69, 0
12, 5520, Note_on_c, 11, 70, 127
12, 5639, Note_on_c, 11, 70, 0
12, 5640, Note_on_c, 11, 69, 127
12, 5699, Note_on_c, 11, 69, 0
12, 5700, Note_on_c, 11, 70, 127
12, 5759, Note_on_c, 11, 70, 0
12, 5760, Note_on_c, 11, 62, 127
12, 5819, Note_on_c, 11, 62, 0
12, 5820, Note_on_c, 11, 64, 127
12, 5879, Note_on_c, 11, 64, 0
12, 5880, Note_on_c, 11, 65, 127
12, 5939, Note_on_c, 11, 65, 0
12, 5940, Note_on_c, 11, 65, 127
12, 5999, Note_on_c, 11, 65, 0
12, 6000, Note_on_c, 11, 64, 127
12, 6059, Note_on_c, 11, 64, 0
12, 6060, Note_on_c, 11, 62, 127
12, 6119, Note_on_c, 11, 62, 0
12, 6120, Note_on_c, 11, 64, 127
12, 6179, Note_on_c, 11, 64, 0
12, 6180, Note_on_c, 11, 65, 127
12, 6239, Note_on_c, 11, 65, 0
12, 6240, Note_on_c, 11, 67, 127
12, 6359, Note_on_c, 11, 67, 0
12, 6360, Note_on_c, 11, 65, 127
12, 6419, Note_on_c, 11, 65, 0
12, 6420, Note_on_c, 11, 64, 127
12, 6479, Note_on_c, 11, 64, 0
12, 6480, Note_on_c, 11, 65, 127
12, 6599, Note_on_c, 11, 65, 0
12, 6600, Note_on_c, 11, 65, 127
12, 6659, Note_on_c, 11, 65, 0
12, 6660, Note_on_c, 11, 64, 127
12, 6779, Note_on_c, 11, 64, 0
12, 6780, Note_on_c, 11, 60, 127
12, 6839, Note_on_c, 11, 60, 0
12, 6840, Note_on_c, 11, 65, 127
12, 6959, Note_on_c, 11, 65, 0
12, 6960, Note_on_c, 11, 69, 127
12, 7019, Note_on_c, 11, 69, 0
12, 7020, Note_on_c, 11, 70, 127
12, 7050, Note_on_c, 11, 70, 0
12, 7080, Note_on_c, 11, 69, 127
12, 7110, Note_on_c, 11, 69, 0
12, 7200, Note_on_c, 11, 70, 127
12, 7259, Note_on_c, 11, 70, 0
12, 7260, Note_on_c, 11, 67, 127
12, 7379, Note_on_c, 11, 67, 0
12, 7380, Note_on_c, 11, 72, 127
12, 7499, Note_on_c, 11, 72, 0
12, 7500, Note_on_c, 11, 67, 127
12, 7559, Note_on_c, 11, 67, 0
12, 7560, Note_on_c, 11, 65, 127
12, 7679, Note_on_c, 11, 65, 0
12, 7680, Note_on_c, 11, 65, 127
12, 7739, Note_on_c, 11, 65, 0
12, 7740, Note_on_c, 11, 65, 127
12, 7799, Note_on_c, 11, 65, 0
12, 7800, Note_on_c, 11, 64, 127
12, 7919, Note_on_c, 11, 64, 0
12, 7920, Note_on_c, 11, 67, 127
12, 8039, Note_on_c, 11, 67, 0
12, 8040, Note_on_c, 11, 69, 127
12, 8099, Note_on_c, 11, 69, 0
12, 8100, Note_on_c, 11, 60, 127
12, 8219, Note_on_c, 11, 60, 0
12, 8220, Note_on_c, 11, 62, 127
12, 8279, Note_on_c, 11, 62, 0
12, 8280, Note_on_c, 11, 60, 127
12, 8339, Note_on_c, 11, 60, 0
12, 8340, Note_on_c, 11, 62, 127
12, 8399, Note_on_c, 11, 62, 0
12, 8400, Note_on_c, 11, 64, 127
12, 8459, Note_on_c, 11, 64, 0
12, 8460, Note_on_c, 11, 65, 127
12, 8519, Note_on_c, 11, 65, 0
12, 8520, Note_on_c, 11, 64, 127
12, 8549, Note_on_c, 11, 64, 0
12, 8550, Note_on_c, 11, 65, 127
12, 8579, Note_on_c, 11, 65, 0
12, 8580, Note_on_c, 11, 62, 127
12, 8639, Note_on_c, 11, 62, 0
12, 9000, Note_on_c, 11, 65, 127
12, 9119, Note_on_c, 11, 65, 0
12, 9120, Note_on_c, 11, 72, 127
12, 9180, Note_on_c, 11, 72, 0
12, 9180, Note_on_c, 11, 65, 127
12, 9240, Note_on_c, 11, 65, 0
12, 9240, Note_on_c, 11, 69, 127
12, 9300, Note_on_c, 11, 69, 0
12, 9300, Note_on_c, 11, 70, 127
12, 9360, Note_on_c, 11, 70, 0
12, 9360, Note_on_c, 11, 70, 127
12, 9479, Note_on_c, 11, 70, 0
12, 9480, Note_on_c, 11, 70, 127
12, 9539, Note_on_c, 11, 70, 0
12, 9540, Note_on_c, 11, 70, 127
12, 9659, Note_on_c, 11, 70, 0
12, 9660, Note_on_c, 11, 70, 127
12, 9719, Note_on_c, 11, 70, 0
12, 9720, Note_on_c, 11, 69, 127
12, 10079, Note_on_c, 11, 69, 0
12, 10080, Note_on_c, 11, 67, 127
12, 10439, Note_on_c, 11, 67, 0
12, 10440, Note_on_c, 11, 65, 127
12, 10559, Note_on_c, 11, 65, 0
12, 10560, Note_on_c, 11, 67, 127
12, 10619, Note_on_c, 11, 67, 0
12, 10620, Note_on_c, 11, 67, 127
12, 10739, Note_on_c, 11, 67, 0
12, 10800, Note_on_c, 11, 67, 127
12, 10919, Note_on_c, 11, 67, 0
12, 10920, Note_on_c, 11, 69, 127
12, 10979, Note_on_c, 11, 69, 0
12, 10980, Note_on_c, 11, 69, 127
12, 11039, Note_on_c, 11, 69, 0
12, 11040, Note_on_c, 11, 67, 127
12, 11069, Note_on_c, 11, 67, 0
12, 11070, Note_on_c, 11, 65, 127
12, 11099, Note_on_c, 11, 65, 0
12, 11100, Note_on_c, 11, 64, 127
12, 11159, Note_on_c, 11, 64, 0
12, 11160, Note_on_c, 11, 70, 127
12, 11219, Note_on_c, 11, 70, 0
12, 11220, Note_on_c, 11, 69, 127
12, 11279, Note_on_c, 11, 69, 0
12, 11280, Note_on_c, 11, 67, 127
12, 11339, Note_on_c, 11, 67, 0
12, 11340, Note_on_c, 11, 65, 127
12, 11369, Note_on_c, 11, 65, 0
12, 11400, Note_on_c, 11, 64, 127
12, 11429, Note_on_c, 11, 64, 0
12, 11520, Note_on_c, 11, 67, 127
12, 11579, Note_on_c, 11, 67, 0
12, 11580, Note_on_c, 11, 69, 127
12, 11639, Note_on_c, 11, 69, 0
12, 11640, Note_on_c, 11, 70, 127
12, 11699, Note_on_c, 11, 70, 0
12, 11700, Note_on_c, 11, 70, 127
12, 11759, Note_on_c, 11, 70, 0
12, 11760, Note_on_c, 11, 69, 127
12, 11819, Note_on_c, 11, 69, 0
12, 11820, Note_on_c, 11, 67, 127
12, 11879, Note_on_c, 11, 67, 0
12, 11880, Note_on_c, 11, 65, 127
12, 11939, Note_on_c, 11, 65, 0
12, 11940, Note_on_c, 11, 67, 127
12, 11999, Note_on_c, 11, 67, 0
12, 12000, Note_on_c, 11, 69, 127
12, 12119, Note_on_c, 11, 69, 0
12, 12120, Note_on_c, 11, 67, 127
12, 12179, Note_on_c, 11, 67, 0
12, 12180, Note_on_c, 11, 65, 127
12, 12239, Note_on_c, 11, 65, 0
12, 12240, Note_on_c, 11, 64, 127
12, 12299, Note_on_c, 11, 64, 0
12, 12300, Note_on_c, 11, 65, 127
12, 12359, Note_on_c, 11, 65, 0
12, 12360, Note_on_c, 11, 67, 127
12, 12419, Note_on_c, 11, 67, 0
12, 12420, Note_on_c, 11, 67, 127
12, 12479, Note_on_c, 11, 67, 0
12, 12480, Note_on_c, 11, 65, 127
12, 12539, Note_on_c, 11, 65, 0
12, 12540, Note_on_c, 11, 64, 127
12, 12599, Note_on_c, 11, 64, 0
12, 12600, Note_on_c, 11, 62, 127
12, 12659, Note_on_c, 11, 62, 0
12, 12660, Note_on_c, 11, 64, 127
12, 12719, Note_on_c, 11, 64, 0
12, 12720, Note_on_c, 11, 65, 127
12, 12839, Note_on_c, 11, 65, 0
12, 12840, Note_on_c, 11, 64, 127
12, 12899, Note_on_c, 11, 64, 0
12, 12900, Note_on_c, 11, 62, 127
12, 12959, Note_on_c, 11, 62, 0
12, 12960, Note_on_c, 11, 64, 127
12, 13079, Note_on_c, 11, 64, 0
12, 13080, Note_on_c, 11, 65, 127
12, 13139, Note_on_c, 11, 65, 0
12, 13140, Note_on_c, 11, 62, 127
12, 13259, Note_on_c, 11, 62, 0
12, 13260, Note_on_c, 11, 60, 127
12, 13319, Note_on_c, 11, 60, 0
12, 13320, Note_on_c, 11, 64, 127
12, 13379, Note_on_c, 11, 64, 0
12, 13380, Note_on_c, 11, 65, 127
12, 13439, Note_on_c, 11, 65, 0
12, 13440, Note_on_c, 11, 67, 127
12, 13499, Note_on_c, 11, 67, 0
12, 13500, Note_on_c, 11, 69, 127
12, 13529, Note_on_c, 11, 69, 0
12, 13560, Note_on_c, 11, 67, 127
12, 13589, Note_on_c, 11, 67, 0
12, 13680, Note_on_c, 11, 69, 127
12, 13739, Note_on_c, 11, 69, 0
12, 13740, Note_on_c, 11, 71, 127
12, 13769, Note_on_c, 11, 71, 0
12, 13770, Note_on_c, 11, 72, 127
12, 13799, Note_on_c, 11, 72, 0
12, 13800, Note_on_c, 11, 74, 127
12, 13859, Note_on_c, 11, 74, 0
12, 13860, Note_on_c, 11, 67, 127
12, 13919, Note_on_c, 11, 67, 0
12, 13920, Note_on_c, 11, 72, 127
12, 13979, Note_on_c, 11, 72, 0
12, 13980, Note_on_c, 11, 65, 127
12, 14039, Note_on_c, 11, 65, 0
12, 14040, Note_on_c, 11, 64, 127
12, 14099, Note_on_c, 11, 64, 0
12, 14100, Note_on_c, 11, 65, 127
12, 14159, Note_on_c, 11, 65, 0
12, 14160, Note_on_c, 11, 62, 127
12, 14219, Note_on_c, 11, 62, 0
12, 14220, Note_on_c, 11, 60, 127
12, 14339, Note_on_c, 11, 60, 0
12, 17280, Note_on_c, 11, 67, 127
12, 17399, Note_on_c, 11, 67, 0
12, 17400, Note_on_c, 11, 69, 127
12, 17459, Note_on_c, 11, 69, 0
12, 17460, Note_on_c, 11, 62, 127
12, 17639, Note_on_c, 11, 62, 0
12, 17640, Note_on_c, 11, 66, 127
12, 17699, Note_on_c, 11, 66, 0
12, 17700, Note_on_c, 11, 67, 127
12, 17759, Note_on_c, 11, 67, 0
12, 17760, Note_on_c, 11, 69, 127
12, 17819, Note_on_c, 11, 69, 0
12, 17820, Note_on_c, 11, 67, 127
12, 17879, Note_on_c, 11, 67, 0
12, 17880, Note_on_c, 11, 69, 127
12, 17939, Note_on_c, 11, 69, 0
12, 17940, Note_on_c, 11, 70, 127
12, 17999, Note_on_c, 11, 70, 0
12, 18000, Note_on_c, 11, 69, 127
12, 18059, Note_on_c, 11, 69, 0
12, 18060, Note_on_c, 11, 70, 127
12, 18119, Note_on_c, 11, 70, 0
12, 18120, Note_on_c, 11, 69, 127
12, 18179, Note_on_c, 11, 69, 0
12, 18180, Note_on_c, 11, 69, 127
12, 18239, Note_on_c, 11, 69, 0
12, 18240, Note_on_c, 11, 67, 127
12, 18299, Note_on_c, 11, 67, 0
12, 18300, Note_on_c, 11, 69, 127
12, 18359, Note_on_c, 11, 69, 0
12, 18360, Note_on_c, 11, 70, 127
12, 18389, Note_on_c, 11, 70, 0
12, 18390, Note_on_c, 11, 72, 127
12, 18419, Note_on_c, 11, 72, 0
12, 18420, Note_on_c, 11, 70, 127
12, 18449, Note_on_c, 11, 70, 0
12, 18450, Note_on_c, 11, 69, 127
12, 18479, Note_on_c, 11, 69, 0
12, 18480, Note_on_c, 11, 67, 127
12, 18509, Note_on_c, 11, 67, 0
12, 18510, Note_on_c, 11, 65, 127
12, 18539, Note_on_c, 11, 65, 0
12, 18540, Note_on_c, 11, 64, 127
12, 18599, Note_on_c, 11, 64, 0
12, 18600, Note_on_c, 11, 62, 127
12, 18659, Note_on_c, 11, 62, 0
12, 18660, Note_on_c, 11, 64, 127
12, 18719, Note_on_c, 11, 64, 0
12, 18720, Note_on_c, 11, 65, 127
12, 18749, Note_on_c, 11, 65, 0
12, 18750, Note_on_c, 11, 64, 127
12, 18779, Note_on_c, 11, 64, 0
12, 18780, Note_on_c, 11, 65, 127
12, 18809, Note_on_c, 11, 65, 0
12, 18810, Note_on_c, 11, 67, 127
12, 18839, Note_on_c, 11, 67, 0
12, 18840, Note_on_c, 11, 64, 127
12, 18869, Note_on_c, 11, 64, 0
12, 18870, Note_on_c, 11, 67, 127
12, 18899, Note_on_c, 11, 67, 0
12, 18900, Note_on_c, 11, 65, 127
12, 18929, Note_on_c, 11, 65, 0
12, 18930, Note_on_c, 11, 67, 127
12, 18959, Note_on_c, 11, 67, 0
12, 18960, Note_on_c, 11, 69, 127
12, 18989, Note_on_c, 11, 69, 0
12, 18990, Note_on_c, 11, 67, 127
12, 19019, Note_on_c, 11, 67, 0
12, 19020, Note_on_c, 11, 65, 127
12, 19049, Note_on_c, 11, 65, 0
12, 19050, Note_on_c, 11, 64, 127
12, 19079, Note_on_c, 11, 64, 0
12, 19080, Note_on_c, 11, 62, 127
12, 19199, Note_on_c, 11, 62, 0
12, 19200, Note_on_c, 11, 62, 127
12, 19259, Note_on_c, 11, 62, 0
12, 19260, Note_on_c, 11, 62, 127
12, 19379, Note_on_c, 11, 62, 0
12, 19380, Note_on_c, 11, 62, 127
12, 19439, Note_on_c, 11, 62, 0
12, 19440, Note_on_c, 11, 64, 127
12, 19469, Note_on_c, 11, 64, 0
12, 19470, Note_on_c, 11, 62, 127
12, 19499, Note_on_c, 11, 62, 0
12, 19500, Note_on_c, 11, 64, 127
12, 19529, Note_on_c, 11, 64, 0
12, 19530, Note_on_c, 11, 65, 127
12, 19559, Note_on_c, 11, 65, 0
12, 19560, Note_on_c, 11, 62, 127
12, 19589, Note_on_c, 11, 62, 0
12, 19590, Note_on_c, 11, 65, 127
12, 19619, Note_on_c, 11, 65, 0
12, 19620, Note_on_c, 11, 64, 127
12, 19649, Note_on_c, 11, 64, 0
12, 19650, Note_on_c, 11, 65, 127
12, 19679, Note_on_c, 11, 65, 0
12, 19680, Note_on_c, 11, 67, 127
12, 19709, Note_on_c, 11, 67, 0
12, 19710, Note_on_c, 11, 65, 127
12, 19739, Note_on_c, 11, 65, 0
12, 19740, Note_on_c, 11, 64, 127
12, 19769, Note_on_c, 11, 64, 0
12, 19770, Note_on_c, 11, 62, 127
12, 19799, Note_on_c, 11, 62, 0
12, 19800, Note_on_c, 11, 60, 127
12, 19919, Note_on_c, 11, 60, 0
12, 19920, Note_on_c, 11, 60, 127
12, 19979, Note_on_c, 11, 60, 0
12, 19980, Note_on_c, 11, 60, 127
12, 20099, Note_on_c, 11, 60, 0
12, 20100, Note_on_c, 11, 60, 127
12, 20159, Note_on_c, 11, 60, 0
12, 20160, Note_on_c, 11, 62, 127
12, 20219, Note_on_c, 11, 62, 0
12, 20220, Note_on_c, 11, 64, 127
12, 20279, Note_on_c, 11, 64, 0
12, 20280, Note_on_c, 11, 65, 127
12, 20339, Note_on_c, 11, 65, 0
12, 20340, Note_on_c, 11, 70, 127
12, 20519, Note_on_c, 11, 70, 0
12, 20520, Note_on_c, 11, 64, 127
12, 20579, Note_on_c, 11, 64, 0
12, 20580, Note_on_c, 11, 62, 127
12, 20639, Note_on_c, 11, 62, 0
12, 20640, Note_on_c, 11, 64, 127
12, 20699, Note_on_c, 11, 64, 0
12, 20700, Note_on_c, 11, 69, 127
12, 20939, Note_on_c, 11, 69, 0
12, 20940, Note_on_c, 11, 67, 127
12, 20999, Note_on_c, 11, 67, 0
12, 21000, Note_on_c, 11, 65, 127
12, 21059, Note_on_c, 11, 65, 0
12, 21060, Note_on_c, 11, 64, 127
12, 21119, Note_on_c, 11, 64, 0
12, 21120, Note_on_c, 11, 65, 127
12, 21179, Note_on_c, 11, 65, 0
12, 21180, Note_on_c, 11, 65, 127
12, 21239, Note_on_c, 11, 65, 0
12, 21240, Note_on_c, 11, 70, 127
12, 21299, Note_on_c, 11, 70, 0
12, 21300, Note_on_c, 11, 69, 127
12, 21359, Note_on_c, 11, 69, 0
12, 21360, Note_on_c, 11, 67, 127
12, 21419, Note_on_c, 11, 67, 0
12, 21420, Note_on_c, 11, 65, 127
12, 21539, Note_on_c, 11, 65, 0
12, 24480, Note_on_c, 11, 65, 127
12, 24539, Note_on_c, 11, 65, 0
12, 24540, Note_on_c, 11, 62, 127
12, 24659, Note_on_c, 11, 62, 0
12, 24660, Note_on_c, 11, 60, 127
12, 24899, Note_on_c, 11, 60, 0
12, 24900, Note_on_c, 11, 60, 127
12, 24959, Note_on_c, 11, 60, 0
12, 24960, Note_on_c, 11, 59, 127
12, 25019, Note_on_c, 11, 59, 0
12, 25020, Note_on_c, 11, 60, 127
12, 25079, Note_on_c, 11, 60, 0
12, 25080, Note_on_c, 11, 59, 127
12, 25139, Note_on_c, 11, 59, 0
12, 25140, Note_on_c, 11, 60, 127
12, 25199, Note_on_c, 11, 60, 0
12, 25200, Note_on_c, 11, 60, 127
12, 25259, Note_on_c, 11, 60, 0
12, 25260, Note_on_c, 11, 64, 127
12, 25319, Note_on_c, 11, 64, 0
12, 25320, Note_on_c, 11, 62, 127
12, 25379, Note_on_c, 11, 62, 0
12, 25380, Note_on_c, 11, 64, 127
12, 25439, Note_on_c, 11, 64, 0
12, 25440, Note_on_c, 11, 68, 127
12, 25499, Note_on_c, 11, 68, 0
12, 25500, Note_on_c, 11, 69, 127
12, 25559, Note_on_c, 11, 69, 0
12, 25560, Note_on_c, 11, 65, 127
12, 25619, Note_on_c, 11, 65, 0
12, 25620, Note_on_c, 11, 64, 127
12, 25679, Note_on_c, 11, 64, 0
12, 25680, Note_on_c, 11, 62, 127
12, 25739, Note_on_c, 11, 62, 0
12, 25740, Note_on_c, 11, 64, 127
12, 25859, Note_on_c, 11, 64, 0
12, 25860, Note_on_c, 11, 64, 127
12, 25919, Note_on_c, 11, 64, 0
12, 25920, Note_on_c, 11, 64, 127
12, 25979, Note_on_c, 11, 64, 0
12, 25980, Note_on_c, 11, 69, 127
12, 26039, Note_on_c, 11, 69, 0
12, 26040, Note_on_c, 11, 64, 127
12, 26099, Note_on_c, 11, 64, 0
12, 26100, Note_on_c, 11, 64, 127
12, 26219, Note_on_c, 11, 64, 0
12, 26220, Note_on_c, 11, 64, 127
12, 26279, Note_on_c, 11, 64, 0
12, 26280, Note_on_c, 11, 65, 127
12, 26309, Note_on_c, 11, 65, 0
12, 26310, Note_on_c, 11, 64, 127
12, 26339, Note_on_c, 11, 64, 0
12, 26340, Note_on_c, 11, 65, 127
12, 26369, Note_on_c, 11, 65, 0
12, 26370, Note_on_c, 11, 67, 127
12, 26399, Note_on_c, 11, 67, 0
12, 26400, Note_on_c, 11, 64, 127
12, 26429, Note_on_c, 11, 64, 0
12, 26430, Note_on_c, 11, 67, 127
12, 26459, Note_on_c, 11, 67, 0
12, 26460, Note_on_c, 11, 65, 127
12, 26489, Note_on_c, 11, 65, 0
12, 26490, Note_on_c, 11, 67, 127
12, 26519, Note_on_c, 11, 67, 0
12, 26520, Note_on_c, 11, 69, 127
12, 26549, Note_on_c, 11, 69, 0
12, 26550, Note_on_c, 11, 67, 127
12, 26579, Note_on_c, 11, 67, 0
12, 26580, Note_on_c, 11, 65, 127
12, 26609, Note_on_c, 11, 65, 0
12, 26610, Note_on_c, 11, 64, 127
12, 26639, Note_on_c, 11, 64, 0
12, 26640, Note_on_c, 11, 62, 127
12, 26759, Note_on_c, 11, 62, 0
12, 26760, Note_on_c, 11, 62, 127
12, 26819, Note_on_c, 11, 62, 0
12, 26820, Note_on_c, 11, 62, 127
12, 26879, Note_on_c, 11, 62, 0
12, 26880, Note_on_c, 11, 62, 127
12, 26939, Note_on_c, 11, 62, 0
12, 26940, Note_on_c, 11, 62, 127
12, 26999, Note_on_c, 11, 62, 0
12, 27000, Note_on_c, 11, 64, 127
12, 27029, Note_on_c, 11, 64, 0
12, 27030, Note_on_c, 11, 62, 127
12, 27059, Note_on_c, 11, 62, 0
12, 27060, Note_on_c, 11, 64, 127
12, 27089, Note_on_c, 11, 64, 0
12, 27090, Note_on_c, 11, 65, 127
12, 27119, Note_on_c, 11, 65, 0
12, 27120, Note_on_c, 11, 62, 127
12, 27149, Note_on_c, 11, 62, 0
12, 27150, Note_on_c, 11, 65, 127
12, 27179, Note_on_c, 11, 65, 0
12, 27180, Note_on_c, 11, 64, 127
12, 27209, Note_on_c, 11, 64, 0
12, 27210, Note_on_c, 11, 65, 127
12, 27239, Note_on_c, 11, 65, 0
12, 27240, Note_on_c, 11, 67, 127
12, 27269, Note_on_c, 11, 67, 0
12, 27270, Note_on_c, 11, 65, 127
12, 27299, Note_on_c, 11, 65, 0
12, 27300, Note_on_c, 11, 64, 127
12, 27329, Note_on_c, 11, 64, 0
12, 27330, Note_on_c, 11, 62, 127
12, 27359, Note_on_c, 11, 62, 0
12, 27360, Note_on_c, 11, 60, 127
12, 27479, Note_on_c, 11, 60, 0
12, 27480, Note_on_c, 11, 60, 127
12, 27539, Note_on_c, 11, 60, 0
12, 27540, Note_on_c, 11, 62, 127
12, 27599, Note_on_c, 11, 62, 0
12, 27600, Note_on_c, 11, 64, 127
12, 27659, Note_on_c, 11, 64, 0
12, 27660, Note_on_c, 11, 65, 127
12, 27719, Note_on_c, 11, 65, 0
12, 27720, Note_on_c, 11, 67, 127
12, 27779, Note_on_c, 11, 67, 0
12, 27780, Note_on_c, 11, 70, 127
12, 27839, Note_on_c, 11, 70, 0
12, 27840, Note_on_c, 11, 67, 127
12, 27899, Note_on_c, 11, 67, 0
12, 27900, Note_on_c, 11, 67, 127
12, 28079, Note_on_c, 11, 67, 0
12, 28080, Note_on_c, 11, 65, 127
12, 28199, Note_on_c, 11, 65, 0
12, 28200, Note_on_c, 11, 64, 127
12, 28259, Note_on_c, 11, 64, 0
12, 28260, Note_on_c, 11, 62, 127
12, 28319, Note_on_c, 11, 62, 0
12, 28320, Note_on_c, 11, 65, 127
12, 28379, Note_on_c, 11, 65, 0
12, 28380, Note_on_c, 11, 64, 127
12, 28439, Note_on_c, 11, 64, 0
12, 28440, Note_on_c, 11, 69, 127
12, 28499, Note_on_c, 11, 69, 0
12, 28500, Note_on_c, 11, 68, 127
12, 28619, Note_on_c, 11, 68, 0
12, 28620, Note_on_c, 11, 64, 127
12, 28739, Note_on_c, 11, 64, 0
12, 28800, Note_on_c, 11, 65, 127
12, 28919, Note_on_c, 11, 65, 0
12, 28920, Note_on_c, 11, 65, 127
12, 28979, Note_on_c, 11, 65, 0
12, 28980, Note_on_c, 11, 64, 127
12, 29039, Note_on_c, 11, 64, 0
12, 29040, Note_on_c, 11, 60, 127
12, 29099, Note_on_c, 11, 60, 0
12, 29100, Note_on_c, 11, 60, 127
12, 29159, Note_on_c, 11, 60, 0
12, 29520, Note_on_c, 11, 65, 127
12, 29639, Note_on_c, 11, 65, 0
12, 29640, Note_on_c, 11, 69, 127
12, 29699, Note_on_c, 11, 69, 0
12, 29700, Note_on_c, 11, 70, 127
12, 29729, Note_on_c, 11, 70, 0
12, 29760, Note_on_c, 11, 69, 127
12, 29789, Note_on_c, 11, 69, 0
12, 30240, Note_on_c, 11, 65, 127
12, 30269, Note_on_c, 11, 65, 0
12, 30270, Note_on_c, 11, 67, 127
12, 30299, Note_on_c, 11, 67, 0
12, 30300, Note_on_c, 11, 69, 127
12, 30314, Note_on_c, 11, 69, 0
12, 30315, Note_on_c, 11, 67, 127
12, 30329, Note_on_c, 11, 67, 0
12, 30330, Note_on_c, 11, 69, 127
12, 30344, Note_on_c, 11, 69, 0
12, 30345, Note_on_c, 11, 67, 127
12, 30359, Note_on_c, 11, 67, 0
12, 30360, Note_on_c, 11, 69, 127
12, 30374, Note_on_c, 11, 69, 0
12, 30375, Note_on_c, 11, 67, 127
12, 30389, Note_on_c, 11, 67, 0
12, 30390, Note_on_c, 11, 65, 127
12, 30404, Note_on_c, 11, 65, 0
12, 30405, Note_on_c, 11, 67, 127
12, 30419, Note_on_c, 11, 67, 0
12, 30420, Note_on_c, 11, 69, 127
12, 30539, Note_on_c, 11, 69, 0
12, 30540, Note_on_c, 11, 67, 127
12, 30599, Note_on_c, 11, 67, 0
12, 30600, Note_on_c, 11, 65, 127
12, 30719, Note_on_c, 11, 65, 0
12, 30720, Note_on_c, 11, 65, 127
12, 30779, Note_on_c, 11, 65, 0
12, 30780, Note_on_c, 11, 64, 127
12, 30899, Note_on_c, 11, 64, 0
12, 30960, Note_on_c, 11, 67, 127
12, 31019, Note_on_c, 11, 67, 0
12, 31020, Note_on_c, 11, 69, 127
12, 31079, Note_on_c, 11, 69, 0
12, 31080, Note_on_c, 11, 70, 127
12, 31139, Note_on_c, 11, 70, 0
12, 31140, Note_on_c, 11, 70, 127
12, 31199, Note_on_c, 11, 70, 0
12, 31200, Note_on_c, 11, 69, 127
12, 31259, Note_on_c, 11, 69, 0
12, 31260, Note_on_c, 11, 67, 127
12, 31319, Note_on_c, 11, 67, 0
12, 31320, Note_on_c, 11, 65, 127
12, 31379, Note_on_c, 11, 65, 0
12, 31380, Note_on_c, 11, 67, 127
12, 31439, Note_on_c, 11, 67, 0
12, 31440, Note_on_c, 11, 69, 127
12, 31559, Note_on_c, 11, 69, 0
12, 31560, Note_on_c, 11, 67, 127
12, 31619, Note_on_c, 11, 67, 0
12, 31620, Note_on_c, 11, 65, 127
12, 31679, Note_on_c, 11, 65, 0
12, 31680, Note_on_c, 11, 64, 127
12, 31739, Note_on_c, 11, 64, 0
12, 31740, Note_on_c, 11, 65, 127
12, 31799, Note_on_c, 11, 65, 0
12, 31800, Note_on_c, 11, 67, 127
12, 31859, Note_on_c, 11, 67, 0
12, 31860, Note_on_c, 11, 67, 127
12, 31919, Note_on_c, 11, 67, 0
12, 31920, Note_on_c, 11, 65, 127
12, 31979, Note_on_c, 11, 65, 0
12, 31980, Note_on_c, 11, 64, 127
12, 32039, Note_on_c, 11, 64, 0
12, 32040, Note_on_c, 11, 65, 127
12, 32099, Note_on_c, 11, 65, 0
12, 32100, Note_on_c, 11, 64, 127
12, 32159, Note_on_c, 11, 64, 0
12, 32160, Note_on_c, 11, 65, 127
12, 32279, Note_on_c, 11, 65, 0
12, 32280, Note_on_c, 11, 67, 127
12, 32339, Note_on_c, 11, 67, 0
12, 32340, Note_on_c, 11, 69, 127
12, 32399, Note_on_c, 11, 69, 0
12, 32400, Note_on_c, 11, 70, 127
12, 32519, Note_on_c, 11, 70, 0
12, 32520, Note_on_c, 11, 69, 127
12, 32579, Note_on_c, 11, 69, 0
12, 32580, Note_on_c, 11, 67, 127
12, 32639, Note_on_c, 11, 67, 0
12, 32640, Note_on_c, 11, 65, 127
12, 32699, Note_on_c, 11, 65, 0
12, 32700, Note_on_c, 11, 67, 127
12, 32759, Note_on_c, 11, 67, 0
12, 32760, Note_on_c, 11, 60, 127
12, 32879, Note_on_c, 11, 60, 0
12, 32880, Note_on_c, 11, 72, 127
12, 32939, Note_on_c, 11, 72, 0
12, 32940, Note_on_c, 11, 70, 127
12, 32969, Note_on_c, 11, 70, 0
12, 33000, Note_on_c, 11, 69, 127
12, 33029, Note_on_c, 11, 69, 0
12, 33120, Note_on_c, 11, 69, 127
12, 33239, Note_on_c, 11, 69, 0
12, 33240, Note_on_c, 11, 66, 127
12, 33299, Note_on_c, 11, 66, 0
12, 33300, Note_on_c, 11, 67, 127
12, 33419, Note_on_c, 11, 67, 0
12, 33420, Note_on_c, 11, 62, 127
12, 33479, Note_on_c, 11, 62, 0
12, 33480, Note_on_c, 11, 67, 127
12, 33539, Note_on_c, 11, 67, 0
12, 33540, Note_on_c, 11, 65, 127
12, 33599, Note_on_c, 11, 65, 0
12, 33600, Note_on_c, 11, 64, 127
12, 33659, Note_on_c, 11, 64, 0
12, 33660, Note_on_c, 11, 65, 127
12, 33779, Note_on_c, 11, 65, 0
12, 34200, Note_on_c, 11, 64, 127
12, 34259, Note_on_c, 11, 64, 0
12, 34260, Note_on_c, 11, 65, 127
12, 34319, Note_on_c, 11, 65, 0
12, 34320, Note_on_c, 11, 67, 127
12, 34379, Note_on_c, 11, 67, 0
12, 34380, Note_on_c, 11, 69, 127
12, 34439, Note_on_c, 11, 69, 0
12, 34440, Note_on_c, 11, 67, 127
12, 34469, Note_on_c, 11, 67, 0
12, 34470, Note_on_c, 11, 69, 127
12, 34499, Note_on_c, 11, 69, 0
12, 34500, Note_on_c, 11, 65, 127
12, 34559, Note_on_c, 11, 65, 0
12, 34560, Note_on_c, 11, 69, 127
12, 34679, Note_on_c, 11, 69, 0
12, 34680, Note_on_c, 11, 70, 127
12, 34739, Note_on_c, 11, 70, 0
12, 34740, Note_on_c, 11, 63, 127
12, 34859, Note_on_c, 11, 63, 0
12, 34860, Note_on_c, 11, 62, 127
12, 34919, Note_on_c, 11, 62, 0
12, 34920, Note_on_c, 11, 65, 127
12, 35039, Note_on_c, 11, 65, 0
12, 35040, Note_on_c, 11, 72, 127
12, 35099, Note_on_c, 11, 72, 0
12, 35100, Note_on_c, 11, 65, 127
12, 35159, Note_on_c, 11, 65, 0
12, 35160, Note_on_c, 11, 69, 127
12, 35219, Note_on_c, 11, 69, 0
12, 35220, Note_on_c, 11, 70, 127
12, 35279, Note_on_c, 11, 70, 0
12, 35280, Note_on_c, 11, 70, 127
12, 35399, Note_on_c, 11, 70, 0
12, 35400, Note_on_c, 11, 70, 127
12, 35459, Note_on_c, 11, 70, 0
12, 35460, Note_on_c, 11, 70, 127
12, 35579, Note_on_c, 11, 70, 0
12, 35580, Note_on_c, 11, 70, 127
12, 35639, Note_on_c, 11, 70, 0
12, 35640, Note_on_c, 11, 69, 127
12, 35999, Note_on_c, 11, 69, 0
12, 36000, Note_on_c, 11, 67, 127
12, 36300, Note_on_c, 11, 67, 0
12, 36300, Note_on_c, 11, 64, 127
12, 36359, Note_on_c, 11, 64, 0
12, 36360, Note_on_c, 11, 65, 127
12, 36479, Note_on_c, 11, 65, 0
12, 36480, Note_on_c, 11, 67, 127
12, 36539, Note_on_c, 11, 67, 0
12, 36540, Note_on_c, 11, 67, 127
12, 36659, Note_on_c, 11, 67, 0
12, 36720, Note_on_c, 11, 65, 127
12, 36839, Note_on_c, 11, 65, 0
12, 36840, Note_on_c, 11, 65, 127
12, 36899, Note_on_c, 11, 65, 0
12, 36900, Note_on_c, 11, 64, 127
12, 37019, Note_on_c, 11, 64, 0
12, 37020, Note_on_c, 11, 62, 127
12, 37079, Note_on_c, 11, 62, 0
12, 37080, Note_on_c, 11, 62, 127
12, 37139, Note_on_c, 11, 62, 0
12, 37140, Note_on_c, 11, 67, 127
12, 37199, Note_on_c, 11, 67, 0
12, 37200, Note_on_c, 11, 69, 127
12, 37259, Note_on_c, 11, 69, 0
12, 37260, Note_on_c, 11, 70, 127
12, 37289, Note_on_c, 11, 70, 0
12, 37320, Note_on_c, 11, 69, 127
12, 37349, Note_on_c, 11, 69, 0
12, 37440, Note_on_c, 11, 65, 127
12, 37559, Note_on_c, 11, 65, 0
12, 37560, Note_on_c, 11, 65, 127
12, 37619, Note_on_c, 11, 65, 0
12, 37620, Note_on_c, 11, 65, 127
12, 38820, Note_on_c, 11, 65, 0
12, 38820, Note_on_c, 11, 65, 127
12, 38879, Note_on_c, 11, 65, 0
12, 38880, Note_on_c, 11, 65, 127
12, 38999, Note_on_c, 11, 65, 0
12, 39000, Note_on_c, 11, 67, 127
12, 39059, Note_on_c, 11, 67, 0
12, 39060, Note_on_c, 11, 67, 127
12, 39119, Note_on_c, 11, 67, 0
12, 39120, Note_on_c, 11, 66, 127
12, 39179, Note_on_c, 11, 66, 0
12, 39180, Note_on_c, 11, 67, 127
12, 39239, Note_on_c, 11, 67, 0
12, 39240, Note_on_c, 11, 62, 127
12, 39299, Note_on_c, 11, 62, 0
12, 39300, Note_on_c, 11, 70, 127
12, 39359, Note_on_c, 11, 70, 0
12, 39360, Note_on_c, 11, 70, 127
12, 39419, Note_on_c, 11, 70, 0
12, 39420, Note_on_c, 11, 70, 127
12, 39449, Note_on_c, 11, 70, 0
12, 39480, Note_on_c, 11, 67, 127
12, 39509, Note_on_c, 11, 67, 0
12, 39600, Note_on_c, 11, 65, 127
12, 39719, Note_on_c, 11, 65, 0
12, 39720, Note_on_c, 11, 65, 127
12, 39779, Note_on_c, 11, 65, 0
12, 39780, Note_on_c, 11, 67, 127
12, 39839, Note_on_c, 11, 67, 0
12, 39840, Note_on_c, 11, 65, 127
12, 39899, Note_on_c, 11, 65, 0
12, 39900, Note_on_c, 11, 65, 127
12, 39959, Note_on_c, 11, 65, 0
12, 39960, Note_on_c, 11, 65, 127
12, 40019, Note_on_c, 11, 65, 0
12, 40020, Note_on_c, 11, 64, 127
12, 40139, Note_on_c, 11, 64, 0
12, 40140, Note_on_c, 11, 60, 127
12, 40259, Note_on_c, 11, 60, 0
12, 175740, Note_on_c, 11, 69, 127
12, 175859, Note_on_c, 11, 69, 0
12, 175860, Note_on_c, 11, 65, 127
12, 176099, Note_on_c, 11, 65, 0
12, 176100, Note_on_c, 11, 65, 127
12, 176219, Note_on_c, 11, 65, 0
12, 176220, Note_on_c, 11, 64, 127
12, 176339, Note_on_c, 11, 64, 0
12, 176340, Note_on_c, 11, 65, 127
12, 176459, Note_on_c, 11, 65, 0
12, 176460, Note_on_c, 11, 62, 127
12, 176579, Note_on_c, 11, 62, 0
12, 176580, Note_on_c, 11, 67, 127
12, 176699, Note_on_c, 11, 67, 0
12, 176700, Note_on_c, 11, 65, 127
12, 176819, Note_on_c, 11, 65, 0
12, 176820, Note_on_c, 11, 65, 127
12, 177179, Note_on_c, 11, 65, 0
12, 177180, Note_on_c, 11, 65, 127
12, 177419, Note_on_c, 11, 65, 0
12, 178620, Note_on_c, 11, 69, 127
12, 178739, Note_on_c, 11, 69, 0
12, 178740, Note_on_c, 11, 67, 127
12, 178979, Note_on_c, 11, 67, 0
12, 178980, Note_on_c, 11, 67, 127
12, 179099, Note_on_c, 11, 67, 0
12, 179100, Note_on_c, 11, 65, 127
12, 179219, Note_on_c, 11, 65, 0
12, 179220, Note_on_c, 11, 65, 127
12, 179339, Note_on_c, 11, 65, 0
12, 179340, Note_on_c, 11, 65, 127
12, 179399, Note_on_c, 11, 65, 0
12, 179400, Note_on_c, 11, 67, 127
12, 179459, Note_on_c, 11, 67, 0
12, 179460, Note_on_c, 11, 67, 127
12, 179579, Note_on_c, 11, 67, 0
12, 179580, Note_on_c, 11, 65, 127
12, 179699, Note_on_c, 11, 65, 0
12, 179700, Note_on_c, 11, 64, 127
12, 180059, Note_on_c, 11, 64, 0
12, 181500, Note_on_c, 11, 69, 127
12, 181619, Note_on_c, 11, 69, 0
12, 181620, Note_on_c, 11, 65, 127
12, 181859, Note_on_c, 11, 65, 0
12, 181860, Note_on_c, 11, 65, 127
12, 181979, Note_on_c, 11, 65, 0
12, 181980, Note_on_c, 11, 64, 127
12, 182099, Note_on_c, 11, 64, 0
12, 182100, Note_on_c, 11, 65, 127
12, 182219, Note_on_c, 11, 65, 0
12, 182220, Note_on_c, 11, 62, 127
12, 182339, Note_on_c, 11, 62, 0
12, 182340, Note_on_c, 11, 67, 127
12, 182459, Note_on_c, 11, 67, 0
12, 182460, Note_on_c, 11, 65, 127
12, 182579, Note_on_c, 11, 65, 0
12, 182580, Note_on_c, 11, 65, 127
12, 182939, Note_on_c, 11, 65, 0
12, 182940, Note_on_c, 11, 65, 127
12, 183179, Note_on_c, 11, 65, 0
12, 184380, Note_on_c, 11, 69, 127
12, 184499, Note_on_c, 11, 69, 0
12, 184500, Note_on_c, 11, 67, 127
12, 184739, Note_on_c, 11, 67, 0
12, 184740, Note_on_c, 11, 67, 127
12, 184859, Note_on_c, 11, 67, 0
12, 184860, Note_on_c, 11, 65, 127
12, 184979, Note_on_c, 11, 65, 0
12, 184980, Note_on_c, 11, 65, 127
12, 185099, Note_on_c, 11, 65, 0
12, 185100, Note_on_c, 11, 65, 127
12, 185159, Note_on_c, 11, 65, 0
12, 185160, Note_on_c, 11, 67, 127
12, 185219, Note_on_c, 11, 67, 0
12, 185220, Note_on_c, 11, 67, 127
12, 185339, Note_on_c, 11, 67, 0
12, 185340, Note_on_c, 11, 65, 127
12, 185459, Note_on_c, 11, 65, 0
12, 185460, Note_on_c, 11, 64, 127
12, 185819, Note_on_c, 11, 64, 0
12, 187260, Note_on_c, 11, 67, 127
12, 187319, Note_on_c, 11, 67, 0
12, 187320, Note_on_c, 11, 65, 127
12, 187379, Note_on_c, 11, 65, 0
12, 187380, Note_on_c, 11, 67, 127
12, 187499, Note_on_c, 11, 67, 0
12, 187500, Note_on_c, 11, 67, 127
12, 187619, Note_on_c, 11, 67, 0
12, 187620, Note_on_c, 11, 67, 127
12, 187739, Note_on_c, 11, 67, 0
12, 187740, Note_on_c, 11, 65, 127
12, 187859, Note_on_c, 11, 65, 0
12, 187860, Note_on_c, 11, 65, 127
12, 187979, Note_on_c, 11, 65, 0
12, 187980, Note_on_c, 11, 67, 127
12, 188099, Note_on_c, 11, 67, 0
12, 188100, Note_on_c, 11, 69, 127
12, 188219, Note_on_c, 11, 69, 0
12, 188220, Note_on_c, 11, 70, 127
12, 188279, Note_on_c, 11, 70, 0
12, 188280, Note_on_c, 11, 69, 127
12, 188339, Note_on_c, 11, 69, 0
12, 188340, Note_on_c, 11, 67, 127
12, 188399, Note_on_c, 11, 67, 0
12, 188400, Note_on_c, 11, 65, 127
12, 188459, Note_on_c, 11, 65, 0
12, 188460, Note_on_c, 11, 67, 127
12, 188639, Note_on_c, 11, 67, 0
12, 188640, Note_on_c, 11, 64, 127
12, 188699, Note_on_c, 11, 64, 0
12, 188700, Note_on_c, 11, 65, 127
12, 188939, Note_on_c, 11, 65, 0
12, 190140, Note_on_c, 11, 65, 127
12, 190259, Note_on_c, 11, 65, 0
12, 190260, Note_on_c, 11, 67, 127
12, 190379, Note_on_c, 11, 67, 0
12, 190380, Note_on_c, 11, 69, 127
12, 190499, Note_on_c, 11, 69, 0
12, 190500, Note_on_c, 11, 67, 127
12, 190559, Note_on_c, 11, 67, 0
12, 190560, Note_on_c, 11, 65, 127
12, 190619, Note_on_c, 11, 65, 0
12, 190620, Note_on_c, 11, 67, 127
12, 190739, Note_on_c, 11, 67, 0
12, 190740, Note_on_c, 11, 64, 127
12, 190859, Note_on_c, 11, 64, 0
12, 190860, Note_on_c, 11, 60, 127
12, 190979, Note_on_c, 11, 60, 0
12, 190980, Note_on_c, 11, 58, 127
12, 191099, Note_on_c, 11, 58, 0
12, 191100, Note_on_c, 11, 65, 127
12, 191219, Note_on_c, 11, 65, 0
12, 191220, Note_on_c, 11, 65, 127
12, 191339, Note_on_c, 11, 65, 0
12, 191340, Note_on_c, 11, 64, 127
12, 191399, Note_on_c, 11, 64, 0
12, 191400, Note_on_c, 11, 62, 127
12, 191459, Note_on_c, 11, 62, 0
12, 191460, Note_on_c, 11, 64, 127
12, 191579, Note_on_c, 11, 64, 0
12, 191580, Note_on_c, 11, 60, 127
12, 191819, Note_on_c, 11, 60, 0
12, 191819, End_track
13, 0, Start_track
13, 0, MIDI_port, 0
13, 0, Title_t, "Tenore Coro/Solo"
13, 0, Program_c, 12, 52
13, 0, Control_c, 12, 7, 127
13, 0, Control_c, 12, 10, 50
13, 4320, Note_on_c, 12, 60, 127
13, 4439, Note_on_c, 12, 60, 0
13, 4440, Note_on_c, 12, 62, 127
13, 4499, Note_on_c, 12, 62, 0
13, 4500, Note_on_c, 12, 58, 127
13, 4619, Note_on_c, 12, 58, 0
13, 4620, Note_on_c, 12, 57, 127
13, 4679, Note_on_c, 12, 57, 0
13, 4680, Note_on_c, 12, 60, 127
13, 4739, Note_on_c, 12, 60, 0
13, 4740, Note_on_c, 12, 62, 127
13, 4799, Note_on_c, 12, 62, 0
13, 4800, Note_on_c, 12, 63, 127
13, 4859, Note_on_c, 12, 63, 0
13, 4860, Note_on_c, 12, 65, 127
13, 4889, Note_on_c, 12, 65, 0
13, 4920, Note_on_c, 12, 65, 127
13, 4949, Note_on_c, 12, 65, 0
13, 5400, Note_on_c, 12, 62, 127
13, 5459, Note_on_c, 12, 62, 0
13, 5460, Note_on_c, 12, 63, 127
13, 5519, Note_on_c, 12, 63, 0
13, 5520, Note_on_c, 12, 65, 127
13, 5579, Note_on_c, 12, 65, 0
13, 5580, Note_on_c, 12, 65, 127
13, 5639, Note_on_c, 12, 65, 0
13, 5640, Note_on_c, 12, 63, 127
13, 5699, Note_on_c, 12, 63, 0
13, 5700, Note_on_c, 12, 62, 127
13, 5759, Note_on_c, 12, 62, 0
13, 5760, Note_on_c, 12, 60, 127
13, 5879, Note_on_c, 12, 60, 0
13, 5880, Note_on_c, 12, 57, 127
13, 5939, Note_on_c, 12, 57, 0
13, 5940, Note_on_c, 12, 65, 127
13, 6059, Note_on_c, 12, 65, 0
13, 6060, Note_on_c, 12, 60, 127
13, 6119, Note_on_c, 12, 60, 0
13, 6120, Note_on_c, 12, 58, 127
13, 6179, Note_on_c, 12, 58, 0
13, 6180, Note_on_c, 12, 57, 127
13, 6239, Note_on_c, 12, 57, 0
13, 6240, Note_on_c, 12, 55, 127
13, 6299, Note_on_c, 12, 55, 0
13, 6300, Note_on_c, 12, 64, 127
13, 6359, Note_on_c, 12, 64, 0
13, 6360, Note_on_c, 12, 65, 127
13, 6419, Note_on_c, 12, 65, 0
13, 6420, Note_on_c, 12, 58, 127
13, 6479, Note_on_c, 12, 58, 0
13, 6480, Note_on_c, 12, 60, 127
13, 6599, Note_on_c, 12, 60, 0
13, 6600, Note_on_c, 12, 62, 127
13, 6659, Note_on_c, 12, 62, 0
13, 6660, Note_on_c, 12, 58, 127
13, 6779, Note_on_c, 12, 58, 0
13, 6780, Note_on_c, 12, 57, 127
13, 6839, Note_on_c, 12, 57, 0
13, 6840, Note_on_c, 12, 60, 127
13, 6899, Note_on_c, 12, 60, 0
13, 6900, Note_on_c, 12, 62, 127
13, 6959, Note_on_c, 12, 62, 0
13, 6960, Note_on_c, 12, 63, 127
13, 7019, Note_on_c, 12, 63, 0
13, 7020, Note_on_c, 12, 65, 127
13, 7049, Note_on_c, 12, 65, 0
13, 7080, Note_on_c, 12, 65, 127
13, 7109, Note_on_c, 12, 65, 0
13, 7200, Note_on_c, 12, 65, 127
13, 7259, Note_on_c, 12, 65, 0
13, 7260, Note_on_c, 12, 60, 127
13, 7379, Note_on_c, 12, 60, 0
13, 7380, Note_on_c, 12, 53, 127
13, 7439, Note_on_c, 12, 53, 0
13, 7440, Note_on_c, 12, 57, 127
13, 7499, Note_on_c, 12, 57, 0
13, 7500, Note_on_c, 12, 60, 127
13, 7559, Note_on_c, 12, 60, 0
13, 7560, Note_on_c, 12, 60, 127
13, 7619, Note_on_c, 12, 60, 0
13, 7620, Note_on_c, 12, 58, 127
13, 7679, Note_on_c, 12, 58, 0
13, 7680, Note_on_c, 12, 62, 127
13, 7739, Note_on_c, 12, 62, 0
13, 7740, Note_on_c, 12, 60, 127
13, 7919, Note_on_c, 12, 60, 0
13, 8280, Note_on_c, 12, 60, 127
13, 8399, Note_on_c, 12, 60, 0
13, 8400, Note_on_c, 12, 58, 127
13, 8459, Note_on_c, 12, 58, 0
13, 8460, Note_on_c, 12, 60, 127
13, 8579, Note_on_c, 12, 60, 0
13, 8580, Note_on_c, 12, 60, 127
13, 8639, Note_on_c, 12, 60, 0
13, 8640, Note_on_c, 12, 60, 127
13, 8759, Note_on_c, 12, 60, 0
13, 8760, Note_on_c, 12, 62, 127
13, 8819, Note_on_c, 12, 62, 0
13, 8820, Note_on_c, 12, 57, 127
13, 8939, Note_on_c, 12, 57, 0
13, 8940, Note_on_c, 12, 58, 127
13, 8999, Note_on_c, 12, 58, 0
13, 9000, Note_on_c, 12, 57, 127
13, 9059, Note_on_c, 12, 57, 0
13, 9060, Note_on_c, 12, 58, 127
13, 9119, Note_on_c, 12, 58, 0
13, 9120, Note_on_c, 12, 60, 127
13, 9179, Note_on_c, 12, 60, 0
13, 9180, Note_on_c, 12, 62, 127
13, 9239, Note_on_c, 12, 62, 0
13, 9240, Note_on_c, 12, 60, 127
13, 9269, Note_on_c, 12, 60, 0
13, 9270, Note_on_c, 12, 62, 127
13, 9299, Note_on_c, 12, 62, 0
13, 9300, Note_on_c, 12, 58, 127
13, 9359, Note_on_c, 12, 58, 0
13, 9360, Note_on_c, 12, 65, 127
13, 9479, Note_on_c, 12, 65, 0
13, 9480, Note_on_c, 12, 65, 127
13, 9539, Note_on_c, 12, 65, 0
13, 9540, Note_on_c, 12, 64, 127
13, 9839, Note_on_c, 12, 64, 0
13, 9840, Note_on_c, 12, 64, 127
13, 9899, Note_on_c, 12, 64, 0
13, 9900, Note_on_c, 12, 62, 127
13, 10259, Note_on_c, 12, 62, 0
13, 10260, Note_on_c, 12, 60, 127
13, 10499, Note_on_c, 12, 60, 0
13, 10500, Note_on_c, 12, 62, 127
13, 10559, Note_on_c, 12, 62, 0
13, 10560, Note_on_c, 12, 64, 127
13, 10619, Note_on_c, 12, 64, 0
13, 10620, Note_on_c, 12, 62, 127
13, 10739, Note_on_c, 12, 62, 0
13, 10800, Note_on_c, 12, 60, 127
13, 10919, Note_on_c, 12, 60, 0
13, 10920, Note_on_c, 12, 60, 127
13, 10979, Note_on_c, 12, 60, 0
13, 10980, Note_on_c, 12, 60, 127
13, 11039, Note_on_c, 12, 60, 0
13, 11040, Note_on_c, 12, 59, 127
13, 11099, Note_on_c, 12, 59, 0
13, 11100, Note_on_c, 12, 60, 127
13, 11159, Note_on_c, 12, 60, 0
13, 11160, Note_on_c, 12, 60, 127
13, 11279, Note_on_c, 12, 60, 0
13, 11280, Note_on_c, 12, 60, 127
13, 11339, Note_on_c, 12, 60, 0
13, 11340, Note_on_c, 12, 60, 127
13, 12480, Note_on_c, 12, 60, 0
13, 12480, Note_on_c, 12, 59, 127
13, 12539, Note_on_c, 12, 59, 0
13, 12540, Note_on_c, 12, 60, 127
13, 12599, Note_on_c, 12, 60, 0
13, 12600, Note_on_c, 12, 62, 127
13, 12839, Note_on_c, 12, 62, 0
13, 12840, Note_on_c, 12, 64, 127
13, 12899, Note_on_c, 12, 64, 0
13, 12900, Note_on_c, 12, 65, 127
13, 12959, Note_on_c, 12, 65, 0
13, 12960, Note_on_c, 12, 67, 127
13, 13079, Note_on_c, 12, 67, 0
13, 13080, Note_on_c, 12, 69, 127
13, 13139, Note_on_c, 12, 69, 0
13, 13140, Note_on_c, 12, 67, 127
13, 13199, Note_on_c, 12, 67, 0
13, 13200, Note_on_c, 12, 65, 127
13, 13259, Note_on_c, 12, 65, 0
13, 13260, Note_on_c, 12, 64, 127
13, 13319, Note_on_c, 12, 64, 0
13, 13320, Note_on_c, 12, 67, 127
13, 13379, Note_on_c, 12, 67, 0
13, 13380, Note_on_c, 12, 65, 127
13, 13439, Note_on_c, 12, 65, 0
13, 13440, Note_on_c, 12, 58, 127
13, 13499, Note_on_c, 12, 58, 0
13, 13500, Note_on_c, 12, 57, 127
13, 13529, Note_on_c, 12, 57, 0
13, 13560, Note_on_c, 12, 60, 127
13, 13589, Note_on_c, 12, 60, 0
13, 13680, Note_on_c, 12, 60, 127
13, 13739, Note_on_c, 12, 60, 0
13, 13740, Note_on_c, 12, 65, 127
13, 13799, Note_on_c, 12, 65, 0
13, 13800, Note_on_c, 12, 62, 127
13, 13859, Note_on_c, 12, 62, 0
13, 13860, Note_on_c, 12, 62, 127
13, 13919, Note_on_c, 12, 62, 0
13, 13920, Note_on_c, 12, 60, 127
13, 13979, Note_on_c, 12, 60, 0
13, 13980, Note_on_c, 12, 60, 127
13, 14039, Note_on_c, 12, 60, 0
13, 14040, Note_on_c, 12, 64, 127
13, 14099, Note_on_c, 12, 64, 0
13, 14100, Note_on_c, 12, 62, 127
13, 14159, Note_on_c, 12, 62, 0
13, 14160, Note_on_c, 12, 65, 127
13, 14219, Note_on_c, 12, 65, 0
13, 14220, Note_on_c, 12, 64, 127
13, 14339, Note_on_c, 12, 64, 0
13, 17280, Note_on_c, 12, 60, 127
13, 17399, Note_on_c, 12, 60, 0
13, 17400, Note_on_c, 12, 60, 127
13, 17459, Note_on_c, 12, 60, 0
13, 17460, Note_on_c, 12, 67, 127
13, 17639, Note_on_c, 12, 67, 0
13, 17640, Note_on_c, 12, 57, 127
13, 17699, Note_on_c, 12, 57, 0
13, 17700, Note_on_c, 12, 58, 127
13, 17759, Note_on_c, 12, 58, 0
13, 17760, Note_on_c, 12, 62, 127
13, 17819, Note_on_c, 12, 62, 0
13, 17820, Note_on_c, 12, 62, 127
13, 17939, Note_on_c, 12, 62, 0
13, 17940, Note_on_c, 12, 61, 127
13, 17999, Note_on_c, 12, 61, 0
13, 18000, Note_on_c, 12, 62, 127
13, 18029, Note_on_c, 12, 62, 0
13, 18030, Note_on_c, 12, 64, 127
13, 18059, Note_on_c, 12, 64, 0
13, 18060, Note_on_c, 12, 65, 127
13, 18119, Note_on_c, 12, 65, 0
13, 18120, Note_on_c, 12, 64, 127
13, 18179, Note_on_c, 12, 64, 0
13, 18180, Note_on_c, 12, 62, 127
13, 18239, Note_on_c, 12, 62, 0
13, 18240, Note_on_c, 12, 67, 127
13, 18299, Note_on_c, 12, 67, 0
13, 18300, Note_on_c, 12, 65, 127
13, 18359, Note_on_c, 12, 65, 0
13, 18360, Note_on_c, 12, 67, 127
13, 18419, Note_on_c, 12, 67, 0
13, 18420, Note_on_c, 12, 55, 127
13, 18479, Note_on_c, 12, 55, 0
13, 18480, Note_on_c, 12, 58, 127
13, 18539, Note_on_c, 12, 58, 0
13, 18540, Note_on_c, 12, 52, 127
13, 18599, Note_on_c, 12, 52, 0
13, 18600, Note_on_c, 12, 62, 127
13, 18659, Note_on_c, 12, 62, 0
13, 18660, Note_on_c, 12, 61, 127
13, 18719, Note_on_c, 12, 61, 0
13, 18720, Note_on_c, 12, 57, 127
13, 18839, Note_on_c, 12, 57, 0
13, 18840, Note_on_c, 12, 57, 127
13, 18899, Note_on_c, 12, 57, 0
13, 18900, Note_on_c, 12, 57, 127
13, 19019, Note_on_c, 12, 57, 0
13, 19020, Note_on_c, 12, 57, 127
13, 19079, Note_on_c, 12, 57, 0
13, 19080, Note_on_c, 12, 58, 127
13, 19109, Note_on_c, 12, 58, 0
13, 19110, Note_on_c, 12, 57, 127
13, 19139, Note_on_c, 12, 57, 0
13, 19140, Note_on_c, 12, 58, 127
13, 19169, Note_on_c, 12, 58, 0
13, 19170, Note_on_c, 12, 60, 127
13, 19199, Note_on_c, 12, 60, 0
13, 19200, Note_on_c, 12, 57, 127
13, 19229, Note_on_c, 12, 57, 0
13, 19230, Note_on_c, 12, 60, 127
13, 19259, Note_on_c, 12, 60, 0
13, 19260, Note_on_c, 12, 58, 127
13, 19289, Note_on_c, 12, 58, 0
13, 19290, Note_on_c, 12, 60, 127
13, 19319, Note_on_c, 12, 60, 0
13, 19320, Note_on_c, 12, 62, 127
13, 19349, Note_on_c, 12, 62, 0
13, 19350, Note_on_c, 12, 60, 127
13, 19379, Note_on_c, 12, 60, 0
13, 19380, Note_on_c, 12, 59, 127
13, 19409, Note_on_c, 12, 59, 0
13, 19410, Note_on_c, 12, 57, 127
13, 19439, Note_on_c, 12, 57, 0
13, 19440, Note_on_c, 12, 55, 127
13, 19559, Note_on_c, 12, 55, 0
13, 19560, Note_on_c, 12, 55, 127
13, 19619, Note_on_c, 12, 55, 0
13, 19620, Note_on_c, 12, 55, 127
13, 19679, Note_on_c, 12, 55, 0
13, 19680, Note_on_c, 12, 55, 127
13, 19739, Note_on_c, 12, 55, 0
13, 19740, Note_on_c, 12, 55, 127
13, 19799, Note_on_c, 12, 55, 0
13, 19800, Note_on_c, 12, 57, 127
13, 19829, Note_on_c, 12, 57, 0
13, 19830, Note_on_c, 12, 55, 127
13, 19859, Note_on_c, 12, 55, 0
13, 19860, Note_on_c, 12, 57, 127
13, 19889, Note_on_c, 12, 57, 0
13, 19890, Note_on_c, 12, 58, 127
13, 19919, Note_on_c, 12, 58, 0
13, 19920, Note_on_c, 12, 55, 127
13, 19949, Note_on_c, 12, 55, 0
13, 19950, Note_on_c, 12, 58, 127
13, 19979, Note_on_c, 12, 58, 0
13, 19980, Note_on_c, 12, 57, 127
13, 20009, Note_on_c, 12, 57, 0
13, 20010, Note_on_c, 12, 58, 127
13, 20039, Note_on_c, 12, 58, 0
13, 20040, Note_on_c, 12, 60, 127
13, 20069, Note_on_c, 12, 60, 0
13, 20070, Note_on_c, 12, 58, 127
13, 20099, Note_on_c, 12, 58, 0
13, 20100, Note_on_c, 12, 57, 127
13, 20129, Note_on_c, 12, 57, 0
13, 20130, Note_on_c, 12, 55, 127
13, 20159, Note_on_c, 12, 55, 0
13, 20160, Note_on_c, 12, 53, 127
13, 20219, Note_on_c, 12, 53, 0
13, 20220, Note_on_c, 12, 52, 127
13, 20279, Note_on_c, 12, 52, 0
13, 20280, Note_on_c, 12, 50, 127
13, 20339, Note_on_c, 12, 50, 0
13, 20340, Note_on_c, 12, 55, 127
13, 20399, Note_on_c, 12, 55, 0
13, 20400, Note_on_c, 12, 57, 127
13, 20459, Note_on_c, 12, 57, 0
13, 20460, Note_on_c, 12, 55, 127
13, 20519, Note_on_c, 12, 55, 0
13, 20520, Note_on_c, 12, 57, 127
13, 20639, Note_on_c, 12, 57, 0
13, 20640, Note_on_c, 12, 57, 127
13, 20699, Note_on_c, 12, 57, 0
13, 20700, Note_on_c, 12, 50, 127
13, 20759, Note_on_c, 12, 50, 0
13, 20760, Note_on_c, 12, 57, 127
13, 20819, Note_on_c, 12, 57, 0
13, 20820, Note_on_c, 12, 62, 127
13, 20879, Note_on_c, 12, 62, 0
13, 20880, Note_on_c, 12, 58, 127
13, 20969, Note_on_c, 12, 58, 0
13, 20970, Note_on_c, 12, 57, 127
13, 20999, Note_on_c, 12, 57, 0
13, 21000, Note_on_c, 12, 58, 127
13, 21029, Note_on_c, 12, 58, 0
13, 21030, Note_on_c, 12, 55, 127
13, 21059, Note_on_c, 12, 55, 0
13, 21060, Note_on_c, 12, 57, 127
13, 21119, Note_on_c, 12, 57, 0
13, 21120, Note_on_c, 12, 62, 127
13, 21149, Note_on_c, 12, 62, 0
13, 21150, Note_on_c, 12, 61, 127
13, 21179, Note_on_c, 12, 61, 0
13, 21180, Note_on_c, 12, 62, 127
13, 21239, Note_on_c, 12, 62, 0
13, 21240, Note_on_c, 12, 62, 127
13, 21299, Note_on_c, 12, 62, 0
13, 21300, Note_on_c, 12, 61, 127
13, 21419, Note_on_c, 12, 61, 0
13, 21420, Note_on_c, 12, 62, 127
13, 21539, Note_on_c, 12, 62, 0
13, 24480, Note_on_c, 12, 62, 127
13, 24599, Note_on_c, 12, 62, 0
13, 24600, Note_on_c, 12, 50, 127
13, 24659, Note_on_c, 12, 50, 0
13, 24660, Note_on_c, 12, 55, 127
13, 24719, Note_on_c, 12, 55, 0
13, 24720, Note_on_c, 12, 53, 127
13, 24779, Note_on_c, 12, 53, 0
13, 24780, Note_on_c, 12, 52, 127
13, 24839, Note_on_c, 12, 52, 0
13, 24840, Note_on_c, 12, 57, 127
13, 24899, Note_on_c, 12, 57, 0
13, 24900, Note_on_c, 12, 55, 127
13, 24959, Note_on_c, 12, 55, 0
13, 24960, Note_on_c, 12, 55, 127
13, 25019, Note_on_c, 12, 55, 0
13, 25020, Note_on_c, 12, 55, 127
13, 25079, Note_on_c, 12, 55, 0
13, 25080, Note_on_c, 12, 53, 127
13, 25139, Note_on_c, 12, 53, 0
13, 25140, Note_on_c, 12, 55, 127
13, 25199, Note_on_c, 12, 55, 0
13, 25200, Note_on_c, 12, 60, 127
13, 25319, Note_on_c, 12, 60, 0
13, 25320, Note_on_c, 12, 59, 127
13, 25379, Note_on_c, 12, 59, 0
13, 25380, Note_on_c, 12, 57, 127
13, 25439, Note_on_c, 12, 57, 0
13, 25440, Note_on_c, 12, 62, 127
13, 25499, Note_on_c, 12, 62, 0
13, 25500, Note_on_c, 12, 64, 127
13, 25559, Note_on_c, 12, 64, 0
13, 25560, Note_on_c, 12, 62, 127
13, 25619, Note_on_c, 12, 62, 0
13, 25620, Note_on_c, 12, 56, 127
13, 25679, Note_on_c, 12, 56, 0
13, 25680, Note_on_c, 12, 57, 127
13, 25739, Note_on_c, 12, 57, 0
13, 25740, Note_on_c, 12, 59, 127
13, 25859, Note_on_c, 12, 59, 0
13, 25860, Note_on_c, 12, 59, 127
13, 25919, Note_on_c, 12, 59, 0
13, 25920, Note_on_c, 12, 57, 127
13, 25979, Note_on_c, 12, 57, 0
13, 25980, Note_on_c, 12, 60, 127
13, 26039, Note_on_c, 12, 60, 0
13, 26040, Note_on_c, 12, 64, 127
13, 26099, Note_on_c, 12, 64, 0
13, 26100, Note_on_c, 12, 57, 127
13, 26219, Note_on_c, 12, 57, 0
13, 26220, Note_on_c, 12, 57, 127
13, 26279, Note_on_c, 12, 57, 0
13, 26280, Note_on_c, 12, 62, 127
13, 26309, Note_on_c, 12, 62, 0
13, 26310, Note_on_c, 12, 61, 127
13, 26339, Note_on_c, 12, 61, 0
13, 26340, Note_on_c, 12, 62, 127
13, 26369, Note_on_c, 12, 62, 0
13, 26370, Note_on_c, 12, 64, 127
13, 26399, Note_on_c, 12, 64, 0
13, 26400, Note_on_c, 12, 61, 127
13, 26429, Note_on_c, 12, 61, 0
13, 26430, Note_on_c, 12, 64, 127
13, 26459, Note_on_c, 12, 64, 0
13, 26460, Note_on_c, 12, 62, 127
13, 26489, Note_on_c, 12, 62, 0
13, 26490, Note_on_c, 12, 64, 127
13, 26519, Note_on_c, 12, 64, 0
13, 26520, Note_on_c, 12, 65, 127
13, 26549, Note_on_c, 12, 65, 0
13, 26550, Note_on_c, 12, 64, 127
13, 26579, Note_on_c, 12, 64, 0
13, 26580, Note_on_c, 12, 62, 127
13, 26609, Note_on_c, 12, 62, 0
13, 26610, Note_on_c, 12, 60, 127
13, 26639, Note_on_c, 12, 60, 0
13, 26640, Note_on_c, 12, 59, 127
13, 26699, Note_on_c, 12, 59, 0
13, 26700, Note_on_c, 12, 55, 127
13, 26759, Note_on_c, 12, 55, 0
13, 26760, Note_on_c, 12, 62, 127
13, 26819, Note_on_c, 12, 62, 0
13, 26820, Note_on_c, 12, 55, 127
13, 26879, Note_on_c, 12, 55, 0
13, 26880, Note_on_c, 12, 55, 127
13, 26939, Note_on_c, 12, 55, 0
13, 26940, Note_on_c, 12, 55, 127
13, 26999, Note_on_c, 12, 55, 0
13, 27000, Note_on_c, 12, 60, 127
13, 27029, Note_on_c, 12, 60, 0
13, 27030, Note_on_c, 12, 59, 127
13, 27059, Note_on_c, 12, 59, 0
13, 27060, Note_on_c, 12, 60, 127
13, 27089, Note_on_c, 12, 60, 0
13, 27090, Note_on_c, 12, 62, 127
13, 27119, Note_on_c, 12, 62, 0
13, 27120, Note_on_c, 12, 59, 127
13, 27149, Note_on_c, 12, 59, 0
13, 27150, Note_on_c, 12, 62, 127
13, 27179, Note_on_c, 12, 62, 0
13, 27180, Note_on_c, 12, 60, 127
13, 27209, Note_on_c, 12, 60, 0
13, 27210, Note_on_c, 12, 62, 127
13, 27239, Note_on_c, 12, 62, 0
13, 27240, Note_on_c, 12, 64, 127
13, 27269, Note_on_c, 12, 64, 0
13, 27270, Note_on_c, 12, 62, 127
13, 27299, Note_on_c, 12, 62, 0
13, 27300, Note_on_c, 12, 60, 127
13, 27329, Note_on_c, 12, 60, 0
13, 27330, Note_on_c, 12, 59, 127
13, 27359, Note_on_c, 12, 59, 0
13, 27360, Note_on_c, 12, 57, 127
13, 27419, Note_on_c, 12, 57, 0
13, 27420, Note_on_c, 12, 60, 127
13, 27479, Note_on_c, 12, 60, 0
13, 27480, Note_on_c, 12, 57, 127
13, 27539, Note_on_c, 12, 57, 0
13, 27540, Note_on_c, 12, 57, 127
13, 27599, Note_on_c, 12, 57, 0
13, 27600, Note_on_c, 12, 64, 127
13, 27659, Note_on_c, 12, 64, 0
13, 27660, Note_on_c, 12, 62, 127
13, 27719, Note_on_c, 12, 62, 0
13, 27720, Note_on_c, 12, 58, 127
13, 27779, Note_on_c, 12, 58, 0
13, 27780, Note_on_c, 12, 62, 127
13, 27839, Note_on_c, 12, 62, 0
13, 27840, Note_on_c, 12, 55, 127
13, 27899, Note_on_c, 12, 55, 0
13, 27900, Note_on_c, 12, 57, 127
13, 28139, Note_on_c, 12, 57, 0
13, 28140, Note_on_c, 12, 59, 127
13, 28199, Note_on_c, 12, 59, 0
13, 28200, Note_on_c, 12, 60, 127
13, 28259, Note_on_c, 12, 60, 0
13, 28260, Note_on_c, 12, 62, 127
13, 28319, Note_on_c, 12, 62, 0
13, 28320, Note_on_c, 12, 62, 127
13, 28379, Note_on_c, 12, 62, 0
13, 28380, Note_on_c, 12, 60, 127
13, 28439, Note_on_c, 12, 60, 0
13, 28440, Note_on_c, 12, 65, 127
13, 28499, Note_on_c, 12, 65, 0
13, 28500, Note_on_c, 12, 64, 127
13, 28559, Note_on_c, 12, 64, 0
13, 28560, Note_on_c, 12, 62, 127
13, 28619, Note_on_c, 12, 62, 0
13, 28620, Note_on_c, 12, 60, 127
13, 28739, Note_on_c, 12, 60, 0
13, 28800, Note_on_c, 12, 60, 127
13, 28919, Note_on_c, 12, 60, 0
13, 28920, Note_on_c, 12, 62, 127
13, 28979, Note_on_c, 12, 62, 0
13, 28980, Note_on_c, 12, 58, 127
13, 29099, Note_on_c, 12, 58, 0
13, 29100, Note_on_c, 12, 57, 127
13, 29159, Note_on_c, 12, 57, 0
13, 29520, Note_on_c, 12, 60, 127
13, 29579, Note_on_c, 12, 60, 0
13, 29580, Note_on_c, 12, 62, 127
13, 29639, Note_on_c, 12, 62, 0
13, 29640, Note_on_c, 12, 63, 127
13, 29699, Note_on_c, 12, 63, 0
13, 29700, Note_on_c, 12, 65, 127
13, 29729, Note_on_c, 12, 65, 0
13, 29760, Note_on_c, 12, 65, 127
13, 29789, Note_on_c, 12, 65, 0
13, 30240, Note_on_c, 12, 58, 127
13, 30359, Note_on_c, 12, 58, 0
13, 30360, Note_on_c, 12, 60, 127
13, 30419, Note_on_c, 12, 60, 0
13, 30420, Note_on_c, 12, 60, 127
13, 30479, Note_on_c, 12, 60, 0
13, 30480, Note_on_c, 12, 62, 127
13, 30539, Note_on_c, 12, 62, 0
13, 30540, Note_on_c, 12, 64, 127
13, 30599, Note_on_c, 12, 64, 0
13, 30600, Note_on_c, 12, 60, 127
13, 30659, Note_on_c, 12, 60, 0
13, 30660, Note_on_c, 12, 58, 127
13, 30719, Note_on_c, 12, 58, 0
13, 30720, Note_on_c, 12, 62, 127
13, 30779, Note_on_c, 12, 62, 0
13, 30780, Note_on_c, 12, 60, 127
13, 30899, Note_on_c, 12, 60, 0
13, 30960, Note_on_c, 12, 64, 127
13, 31019, Note_on_c, 12, 64, 0
13, 31020, Note_on_c, 12, 65, 127
13, 31079, Note_on_c, 12, 65, 0
13, 31080, Note_on_c, 12, 67, 127
13, 31139, Note_on_c, 12, 67, 0
13, 31140, Note_on_c, 12, 67, 127
13, 31199, Note_on_c, 12, 67, 0
13, 31200, Note_on_c, 12, 65, 127
13, 31259, Note_on_c, 12, 65, 0
13, 31260, Note_on_c, 12, 64, 127
13, 31319, Note_on_c, 12, 64, 0
13, 31320, Note_on_c, 12, 65, 127
13, 31379, Note_on_c, 12, 65, 0
13, 31380, Note_on_c, 12, 64, 127
13, 31439, Note_on_c, 12, 64, 0
13, 31440, Note_on_c, 12, 65, 127
13, 31559, Note_on_c, 12, 65, 0
13, 31560, Note_on_c, 12, 64, 127
13, 31619, Note_on_c, 12, 64, 0
13, 31620, Note_on_c, 12, 65, 127
13, 31679, Note_on_c, 12, 65, 0
13, 31680, Note_on_c, 12, 67, 127
13, 31739, Note_on_c, 12, 67, 0
13, 31740, Note_on_c, 12, 65, 127
13, 31799, Note_on_c, 12, 65, 0
13, 31800, Note_on_c, 12, 64, 127
13, 31859, Note_on_c, 12, 64, 0
13, 31860, Note_on_c, 12, 64, 127
13, 31919, Note_on_c, 12, 64, 0
13, 31920, Note_on_c, 12, 65, 127
13, 31979, Note_on_c, 12, 65, 0
13, 31980, Note_on_c, 12, 67, 127
13, 32039, Note_on_c, 12, 67, 0
13, 32040, Note_on_c, 12, 57, 127
13, 32099, Note_on_c, 12, 57, 0
13, 32100, Note_on_c, 12, 58, 127
13, 32159, Note_on_c, 12, 58, 0
13, 32160, Note_on_c, 12, 60, 127
13, 32279, Note_on_c, 12, 60, 0
13, 32280, Note_on_c, 12, 58, 127
13, 32339, Note_on_c, 12, 58, 0
13, 32340, Note_on_c, 12, 57, 127
13, 32399, Note_on_c, 12, 57, 0
13, 32400, Note_on_c, 12, 55, 127
13, 32519, Note_on_c, 12, 55, 0
13, 32520, Note_on_c, 12, 60, 127
13, 32579, Note_on_c, 12, 60, 0
13, 32580, Note_on_c, 12, 60, 127
13, 32639, Note_on_c, 12, 60, 0
13, 32640, Note_on_c, 12, 62, 127
13, 32699, Note_on_c, 12, 62, 0
13, 32700, Note_on_c, 12, 64, 127
13, 32759, Note_on_c, 12, 64, 0
13, 32760, Note_on_c, 12, 65, 127
13, 32879, Note_on_c, 12, 65, 0
13, 32880, Note_on_c, 12, 65, 127
13, 32939, Note_on_c, 12, 65, 0
13, 32940, Note_on_c, 12, 65, 127
13, 32969, Note_on_c, 12, 65, 0
13, 33000, Note_on_c, 12, 65, 127
13, 33029, Note_on_c, 12, 65, 0
13, 33120, Note_on_c, 12, 62, 127
13, 33179, Note_on_c, 12, 62, 0
13, 33180, Note_on_c, 12, 60, 127
13, 33239, Note_on_c, 12, 60, 0
13, 33240, Note_on_c, 12, 62, 127
13, 33299, Note_on_c, 12, 62, 0
13, 33300, Note_on_c, 12, 62, 127
13, 33419, Note_on_c, 12, 62, 0
13, 33420, Note_on_c, 12, 62, 127
13, 33479, Note_on_c, 12, 62, 0
13, 33480, Note_on_c, 12, 60, 127
13, 33599, Note_on_c, 12, 60, 0
13, 33600, Note_on_c, 12, 60, 127
13, 33659, Note_on_c, 12, 60, 0
13, 33660, Note_on_c, 12, 60, 127
13, 33779, Note_on_c, 12, 60, 0
13, 33840, Note_on_c, 12, 64, 127
13, 33959, Note_on_c, 12, 64, 0
13, 33960, Note_on_c, 12, 65, 127
13, 34019, Note_on_c, 12, 65, 0
13, 34020, Note_on_c, 12, 58, 127
13, 34139, Note_on_c, 12, 58, 0
13, 34140, Note_on_c, 12, 57, 127
13, 34199, Note_on_c, 12, 57, 0
13, 34200, Note_on_c, 12, 60, 127
13, 34319, Note_on_c, 12, 60, 0
13, 34320, Note_on_c, 12, 58, 127
13, 34379, Note_on_c, 12, 58, 0
13, 34380, Note_on_c, 12, 60, 127
13, 34499, Note_on_c, 12, 60, 0
13, 34500, Note_on_c, 12, 60, 127
13, 34559, Note_on_c, 12, 60, 0
13, 34920, Note_on_c, 12, 57, 127
13, 34979, Note_on_c, 12, 57, 0
13, 34980, Note_on_c, 12, 58, 127
13, 35039, Note_on_c, 12, 58, 0
13, 35040, Note_on_c, 12, 60, 127
13, 35099, Note_on_c, 12, 60, 0
13, 35100, Note_on_c, 12, 62, 127
13, 35159, Note_on_c, 12, 62, 0
13, 35160, Note_on_c, 12, 60, 127
13, 35189, Note_on_c, 12, 60, 0
13, 35190, Note_on_c, 12, 62, 127
13, 35219, Note_on_c, 12, 62, 0
13, 35220, Note_on_c, 12, 58, 127
13, 35279, Note_on_c, 12, 58, 0
13, 35280, Note_on_c, 12, 65, 127
13, 35399, Note_on_c, 12, 65, 0
13, 35400, Note_on_c, 12, 65, 127
13, 35459, Note_on_c, 12, 65, 0
13, 35460, Note_on_c, 12, 64, 127
13, 35759, Note_on_c, 12, 64, 0
13, 35760, Note_on_c, 12, 64, 127
13, 35819, Note_on_c, 12, 64, 0
13, 35820, Note_on_c, 12, 62, 127
13, 36179, Note_on_c, 12, 62, 0
13, 36180, Note_on_c, 12, 60, 127
13, 36419, Note_on_c, 12, 60, 0
13, 36420, Note_on_c, 12, 62, 127
13, 36479, Note_on_c, 12, 62, 0
13, 36480, Note_on_c, 12, 62, 127
13, 36539, Note_on_c, 12, 62, 0
13, 36540, Note_on_c, 12, 60, 127
13, 36659, Note_on_c, 12, 60, 0
13, 36720, Note_on_c, 12, 60, 127
13, 36839, Note_on_c, 12, 60, 0
13, 36840, Note_on_c, 12, 62, 127
13, 36899, Note_on_c, 12, 62, 0
13, 36900, Note_on_c, 12, 62, 127
13, 36959, Note_on_c, 12, 62, 0
13, 36960, Note_on_c, 12, 61, 127
13, 37019, Note_on_c, 12, 61, 0
13, 37020, Note_on_c, 12, 57, 127
13, 37079, Note_on_c, 12, 57, 0
13, 37080, Note_on_c, 12, 65, 127
13, 37139, Note_on_c, 12, 65, 0
13, 37140, Note_on_c, 12, 63, 127
13, 37199, Note_on_c, 12, 63, 0
13, 37200, Note_on_c, 12, 63, 127
13, 37259, Note_on_c, 12, 63, 0
13, 37260, Note_on_c, 12, 65, 127
13, 37289, Note_on_c, 12, 65, 0
13, 37320, Note_on_c, 12, 65, 127
13, 37349, Note_on_c, 12, 65, 0
13, 37440, Note_on_c, 12, 58, 127
13, 37499, Note_on_c, 12, 58, 0
13, 37500, Note_on_c, 12, 60, 127
13, 37559, Note_on_c, 12, 60, 0
13, 37560, Note_on_c, 12, 62, 127
13, 37619, Note_on_c, 12, 62, 0
13, 37620, Note_on_c, 12, 62, 127
13, 37679, Note_on_c, 12, 62, 0
13, 37680, Note_on_c, 12, 60, 127
13, 37739, Note_on_c, 12, 60, 0
13, 37740, Note_on_c, 12, 58, 127
13, 37799, Note_on_c, 12, 58, 0
13, 37800, Note_on_c, 12, 57, 127
13, 37859, Note_on_c, 12, 57, 0
13, 37860, Note_on_c, 12, 58, 127
13, 37919, Note_on_c, 12, 58, 0
13, 37920, Note_on_c, 12, 60, 127
13, 38039, Note_on_c, 12, 60, 0
13, 38040, Note_on_c, 12, 58, 127
13, 38099, Note_on_c, 12, 58, 0
13, 38100, Note_on_c, 12, 57, 127
13, 38159, Note_on_c, 12, 57, 0
13, 38160, Note_on_c, 12, 62, 127
13, 38219, Note_on_c, 12, 62, 0
13, 38220, Note_on_c, 12, 63, 127
13, 38279, Note_on_c, 12, 63, 0
13, 38280, Note_on_c, 12, 65, 127
13, 38339, Note_on_c, 12, 65, 0
13, 38340, Note_on_c, 12, 65, 127
13, 38399, Note_on_c, 12, 65, 0
13, 38400, Note_on_c, 12, 63, 127
13, 38459, Note_on_c, 12, 63, 0
13, 38460, Note_on_c, 12, 62, 127
13, 38519, Note_on_c, 12, 62, 0
13, 38520, Note_on_c, 12, 60, 127
13, 38579, Note_on_c, 12, 60, 0
13, 38580, Note_on_c, 12, 62, 127
13, 38639, Note_on_c, 12, 62, 0
13, 38640, Note_on_c, 12, 63, 127
13, 38759, Note_on_c, 12, 63, 0
13, 38760, Note_on_c, 12, 62, 127
13, 38819, Note_on_c, 12, 62, 0
13, 38820, Note_on_c, 12, 60, 127
13, 38879, Note_on_c, 12, 60, 0
13, 38880, Note_on_c, 12, 58, 127
13, 38999, Note_on_c, 12, 58, 0
13, 39000, Note_on_c, 12, 55, 127
13, 39059, Note_on_c, 12, 55, 0
13, 39060, Note_on_c, 12, 63, 127
13, 39119, Note_on_c, 12, 63, 0
13, 39120, Note_on_c, 12, 60, 127
13, 39179, Note_on_c, 12, 60, 0
13, 39180, Note_on_c, 12, 62, 127
13, 39239, Note_on_c, 12, 62, 0
13, 39240, Note_on_c, 12, 58, 127
13, 39359, Note_on_c, 12, 58, 0
13, 39360, Note_on_c, 12, 62, 127
13, 39419, Note_on_c, 12, 62, 0
13, 39420, Note_on_c, 12, 60, 127
13, 39449, Note_on_c, 12, 60, 0
13, 39480, Note_on_c, 12, 64, 127
13, 39509, Note_on_c, 12, 64, 0
13, 39600, Note_on_c, 12, 60, 127
13, 39659, Note_on_c, 12, 60, 0
13, 39660, Note_on_c, 12, 58, 127
13, 39719, Note_on_c, 12, 58, 0
13, 39720, Note_on_c, 12, 60, 127
13, 39779, Note_on_c, 12, 60, 0
13, 39780, Note_on_c, 12, 58, 127
13, 39839, Note_on_c, 12, 58, 0
13, 39840, Note_on_c, 12, 60, 127
13, 39899, Note_on_c, 12, 60, 0
13, 39900, Note_on_c, 12, 57, 127
13, 39959, Note_on_c, 12, 57, 0
13, 39960, Note_on_c, 12, 62, 127
13, 40019, Note_on_c, 12, 62, 0
13, 40020, Note_on_c, 12, 60, 127
13, 40079, Note_on_c, 12, 60, 0
13, 40080, Note_on_c, 12, 58, 127
13, 40139, Note_on_c, 12, 58, 0
13, 40140, Note_on_c, 12, 57, 127
13, 40259, Note_on_c, 12, 57, 0
13, 124380, Control_c, 12, 0, 20
13, 124380, Program_c, 12, 57
13, 124380, Note_on_c, 12, 74, 127
13, 124439, Note_on_c, 12, 74, 0
13, 124440, Note_on_c, 12, 62, 127
13, 124529, Note_on_c, 12, 62, 0
13, 124530, Note_on_c, 12, 64, 127
13, 124559, Note_on_c, 12, 64, 0
13, 124560, Note_on_c, 12, 65, 127
13, 124589, Note_on_c, 12, 65, 0
13, 124590, Note_on_c, 12, 67, 127
13, 124619, Note_on_c, 12, 67, 0
13, 124620, Note_on_c, 12, 69, 127
13, 124679, Note_on_c, 12, 69, 0
13, 124680, Note_on_c, 12, 69, 127
13, 124739, Note_on_c, 12, 69, 0
13, 124740, Note_on_c, 12, 69, 127
13, 124799, Note_on_c, 12, 69, 0
13, 124800, Note_on_c, 12, 69, 127
13, 124859, Note_on_c, 12, 69, 0
13, 124860, Note_on_c, 12, 70, 127
13, 124889, Note_on_c, 12, 70, 0
13, 124890, Note_on_c, 12, 69, 127
13, 124919, Note_on_c, 12, 69, 0
13, 124920, Note_on_c, 12, 70, 127
13, 124949, Note_on_c, 12, 70, 0
13, 124950, Note_on_c, 12, 72, 127
13, 124979, Note_on_c, 12, 72, 0
13, 124980, Note_on_c, 12, 70, 127
13, 125009, Note_on_c, 12, 70, 0
13, 125010, Note_on_c, 12, 69, 127
13, 125039, Note_on_c, 12, 69, 0
13, 125040, Note_on_c, 12, 67, 127
13, 125069, Note_on_c, 12, 67, 0
13, 125070, Note_on_c, 12, 70, 127
13, 125099, Note_on_c, 12, 70, 0
13, 125100, Note_on_c, 12, 69, 127
13, 125129, Note_on_c, 12, 69, 0
13, 125130, Note_on_c, 12, 67, 127
13, 125159, Note_on_c, 12, 67, 0
13, 125160, Note_on_c, 12, 69, 127
13, 125189, Note_on_c, 12, 69, 0
13, 125190, Note_on_c, 12, 70, 127
13, 125219, Note_on_c, 12, 70, 0
13, 125220, Note_on_c, 12, 69, 127
13, 125249, Note_on_c, 12, 69, 0
13, 125250, Note_on_c, 12, 67, 127
13, 125279, Note_on_c, 12, 67, 0
13, 125280, Note_on_c, 12, 65, 127
13, 125309, Note_on_c, 12, 65, 0
13, 125310, Note_on_c, 12, 69, 127
13, 125339, Note_on_c, 12, 69, 0
13, 125340, Note_on_c, 12, 67, 127
13, 125369, Note_on_c, 12, 67, 0
13, 125370, Note_on_c, 12, 65, 127
13, 125399, Note_on_c, 12, 65, 0
13, 125400, Note_on_c, 12, 67, 127
13, 125429, Note_on_c, 12, 67, 0
13, 125430, Note_on_c, 12, 69, 127
13, 125459, Note_on_c, 12, 69, 0
13, 125460, Note_on_c, 12, 67, 127
13, 125489, Note_on_c, 12, 67, 0
13, 125490, Note_on_c, 12, 65, 127
13, 125519, Note_on_c, 12, 65, 0
13, 125520, Note_on_c, 12, 64, 127
13, 125549, Note_on_c, 12, 64, 0
13, 125550, Note_on_c, 12, 67, 127
13, 125579, Note_on_c, 12, 67, 0
13, 125580, Note_on_c, 12, 65, 127
13, 125609, Note_on_c, 12, 65, 0
13, 125610, Note_on_c, 12, 64, 127
13, 125639, Note_on_c, 12, 64, 0
13, 125640, Note_on_c, 12, 62, 127
13, 125669, Note_on_c, 12, 62, 0
13, 125670, Note_on_c, 12, 64, 127
13, 125699, Note_on_c, 12, 64, 0
13, 125700, Note_on_c, 12, 66, 127
13, 125729, Note_on_c, 12, 66, 0
13, 125730, Note_on_c, 12, 68, 127
13, 125759, Note_on_c, 12, 68, 0
13, 125760, Note_on_c, 12, 69, 127
13, 125789, Note_on_c, 12, 69, 0
13, 125790, Note_on_c, 12, 71, 127
13, 125819, Note_on_c, 12, 71, 0
13, 125820, Note_on_c, 12, 72, 127
13, 125849, Note_on_c, 12, 72, 0
13, 125850, Note_on_c, 12, 71, 127
13, 125879, Note_on_c, 12, 71, 0
13, 125880, Note_on_c, 12, 72, 127
13, 125909, Note_on_c, 12, 72, 0
13, 125910, Note_on_c, 12, 76, 127
13, 125939, Note_on_c, 12, 76, 0
13, 125940, Note_on_c, 12, 74, 127
13, 125969, Note_on_c, 12, 74, 0
13, 125970, Note_on_c, 12, 72, 127
13, 125999, Note_on_c, 12, 72, 0
13, 126000, Note_on_c, 12, 71, 127
13, 126029, Note_on_c, 12, 71, 0
13, 126030, Note_on_c, 12, 69, 127
13, 126059, Note_on_c, 12, 69, 0
13, 126060, Note_on_c, 12, 68, 127
13, 126119, Note_on_c, 12, 68, 0
13, 126120, Note_on_c, 12, 64, 127
13, 126179, Note_on_c, 12, 64, 0
13, 126240, Note_on_c, 12, 76, 127
13, 126299, Note_on_c, 12, 76, 0
13, 126300, Note_on_c, 12, 76, 127
13, 126359, Note_on_c, 12, 76, 0
13, 126360, Note_on_c, 12, 69, 127
13, 126419, Note_on_c, 12, 69, 0
13, 126420, Note_on_c, 12, 74, 127
13, 126599, Note_on_c, 12, 74, 0
13, 126600, Note_on_c, 12, 67, 127
13, 126659, Note_on_c, 12, 67, 0
13, 126660, Note_on_c, 12, 72, 127
13, 126689, Note_on_c, 12, 72, 0
13, 126690, Note_on_c, 12, 74, 127
13, 126719, Note_on_c, 12, 74, 0
13, 126720, Note_on_c, 12, 76, 127
13, 126749, Note_on_c, 12, 76, 0
13, 126750, Note_on_c, 12, 72, 127
13, 126779, Note_on_c, 12, 72, 0
13, 126780, Note_on_c, 12, 77, 127
13, 126809, Note_on_c, 12, 77, 0
13, 126810, Note_on_c, 12, 76, 127
13, 126839, Note_on_c, 12, 76, 0
13, 126840, Note_on_c, 12, 77, 127
13, 126869, Note_on_c, 12, 77, 0
13, 126870, Note_on_c, 12, 79, 127
13, 126899, Note_on_c, 12, 79, 0
13, 126900, Note_on_c, 12, 77, 127
13, 126929, Note_on_c, 12, 77, 0
13, 126930, Note_on_c, 12, 76, 127
13, 126959, Note_on_c, 12, 76, 0
13, 126960, Note_on_c, 12, 74, 127
13, 126989, Note_on_c, 12, 74, 0
13, 126990, Note_on_c, 12, 77, 127
13, 127019, Note_on_c, 12, 77, 0
13, 127020, Note_on_c, 12, 76, 127
13, 127079, Note_on_c, 12, 76, 0
13, 127080, Note_on_c, 12, 74, 127
13, 127139, Note_on_c, 12, 74, 0
13, 127140, Note_on_c, 12, 76, 127
13, 127199, Note_on_c, 12, 76, 0
13, 127200, Note_on_c, 12, 72, 127
13, 127259, Note_on_c, 12, 72, 0
13, 127260, Note_on_c, 12, 74, 127
13, 127319, Note_on_c, 12, 74, 0
13, 127320, Note_on_c, 12, 72, 127
13, 127379, Note_on_c, 12, 72, 0
13, 127380, Note_on_c, 12, 74, 127
13, 127439, Note_on_c, 12, 74, 0
13, 127440, Note_on_c, 12, 71, 127
13, 127499, Note_on_c, 12, 71, 0
13, 127500, Note_on_c, 12, 72, 127
13, 127559, Note_on_c, 12, 72, 0
13, 127560, Note_on_c, 12, 77, 127
13, 127619, Note_on_c, 12, 77, 0
13, 127620, Note_on_c, 12, 76, 127
13, 127679, Note_on_c, 12, 76, 0
13, 127680, Note_on_c, 12, 74, 127
13, 127739, Note_on_c, 12, 74, 0
13, 127740, Note_on_c, 12, 72, 127
13, 127859, Note_on_c, 12, 72, 0
13, 127860, Note_on_c, 12, 71, 127
13, 127879, Note_on_c, 12, 71, 0
13, 127880, Note_on_c, 12, 72, 127
13, 127899, Note_on_c, 12, 72, 0
13, 127900, Note_on_c, 12, 71, 127
13, 127919, Note_on_c, 12, 71, 0
13, 127920, Note_on_c, 12, 72, 127
13, 127934, Note_on_c, 12, 72, 0
13, 127935, Note_on_c, 12, 71, 127
13, 127949, Note_on_c, 12, 71, 0
13, 127950, Note_on_c, 12, 72, 127
13, 127964, Note_on_c, 12, 72, 0
13, 127965, Note_on_c, 12, 71, 127
13, 127979, Note_on_c, 12, 71, 0
13, 127980, Note_on_c, 12, 69, 127
13, 128099, Note_on_c, 12, 69, 0
13, 128940, Note_on_c, 12, 77, 127
13, 128999, Note_on_c, 12, 77, 0
13, 129000, Note_on_c, 12, 65, 127
13, 129089, Note_on_c, 12, 65, 0
13, 129090, Note_on_c, 12, 67, 127
13, 129119, Note_on_c, 12, 67, 0
13, 129120, Note_on_c, 12, 69, 127
13, 129149, Note_on_c, 12, 69, 0
13, 129150, Note_on_c, 12, 70, 127
13, 129179, Note_on_c, 12, 70, 0
13, 129180, Note_on_c, 12, 72, 127
13, 129239, Note_on_c, 12, 72, 0
13, 129240, Note_on_c, 12, 72, 127
13, 129299, Note_on_c, 12, 72, 0
13, 129300, Note_on_c, 12, 72, 127
13, 129359, Note_on_c, 12, 72, 0
13, 129360, Note_on_c, 12, 72, 127
13, 129419, Note_on_c, 12, 72, 0
13, 129420, Note_on_c, 12, 74, 127
13, 129449, Note_on_c, 12, 74, 0
13, 129450, Note_on_c, 12, 72, 127
13, 129479, Note_on_c, 12, 72, 0
13, 129480, Note_on_c, 12, 74, 127
13, 129509, Note_on_c, 12, 74, 0
13, 129510, Note_on_c, 12, 75, 127
13, 129539, Note_on_c, 12, 75, 0
13, 129540, Note_on_c, 12, 74, 127
13, 129569, Note_on_c, 12, 74, 0
13, 129570, Note_on_c, 12, 72, 127
13, 129599, Note_on_c, 12, 72, 0
13, 129600, Note_on_c, 12, 70, 127
13, 129629, Note_on_c, 12, 70, 0
13, 129630, Note_on_c, 12, 74, 127
13, 129659, Note_on_c, 12, 74, 0
13, 129660, Note_on_c, 12, 72, 127
13, 129689, Note_on_c, 12, 72, 0
13, 129690, Note_on_c, 12, 70, 127
13, 129719, Note_on_c, 12, 70, 0
13, 129720, Note_on_c, 12, 72, 127
13, 129749, Note_on_c, 12, 72, 0
13, 129750, Note_on_c, 12, 74, 127
13, 129779, Note_on_c, 12, 74, 0
13, 129780, Note_on_c, 12, 72, 127
13, 129809, Note_on_c, 12, 72, 0
13, 129810, Note_on_c, 12, 70, 127
13, 129839, Note_on_c, 12, 70, 0
13, 129840, Note_on_c, 12, 69, 127
13, 129869, Note_on_c, 12, 69, 0
13, 129870, Note_on_c, 12, 72, 127
13, 129899, Note_on_c, 12, 72, 0
13, 129900, Note_on_c, 12, 70, 127
13, 129929, Note_on_c, 12, 70, 0
13, 129930, Note_on_c, 12, 69, 127
13, 129959, Note_on_c, 12, 69, 0
13, 129960, Note_on_c, 12, 70, 127
13, 129989, Note_on_c, 12, 70, 0
13, 129990, Note_on_c, 12, 72, 127
13, 130019, Note_on_c, 12, 72, 0
13, 130020, Note_on_c, 12, 70, 127
13, 130049, Note_on_c, 12, 70, 0
13, 130050, Note_on_c, 12, 69, 127
13, 130079, Note_on_c, 12, 69, 0
13, 130080, Note_on_c, 12, 67, 127
13, 130109, Note_on_c, 12, 67, 0
13, 130110, Note_on_c, 12, 70, 127
13, 130139, Note_on_c, 12, 70, 0
13, 130140, Note_on_c, 12, 69, 127
13, 130199, Note_on_c, 12, 69, 0
13, 130200, Note_on_c, 12, 65, 127
13, 130259, Note_on_c, 12, 65, 0
13, 131100, Note_on_c, 12, 74, 127
13, 131159, Note_on_c, 12, 74, 0
13, 131160, Note_on_c, 12, 62, 127
13, 131249, Note_on_c, 12, 62, 0
13, 131250, Note_on_c, 12, 64, 127
13, 131279, Note_on_c, 12, 64, 0
13, 131280, Note_on_c, 12, 65, 127
13, 131309, Note_on_c, 12, 65, 0
13, 131310, Note_on_c, 12, 67, 127
13, 131339, Note_on_c, 12, 67, 0
13, 131340, Note_on_c, 12, 69, 127
13, 131399, Note_on_c, 12, 69, 0
13, 131400, Note_on_c, 12, 69, 127
13, 131459, Note_on_c, 12, 69, 0
13, 131460, Note_on_c, 12, 69, 127
13, 131519, Note_on_c, 12, 69, 0
13, 131520, Note_on_c, 12, 69, 127
13, 131579, Note_on_c, 12, 69, 0
13, 131580, Note_on_c, 12, 70, 127
13, 131609, Note_on_c, 12, 70, 0
13, 131610, Note_on_c, 12, 69, 127
13, 131639, Note_on_c, 12, 69, 0
13, 131640, Note_on_c, 12, 70, 127
13, 131669, Note_on_c, 12, 70, 0
13, 131670, Note_on_c, 12, 72, 127
13, 131699, Note_on_c, 12, 72, 0
13, 131700, Note_on_c, 12, 70, 127
13, 131729, Note_on_c, 12, 70, 0
13, 131730, Note_on_c, 12, 69, 127
13, 131759, Note_on_c, 12, 69, 0
13, 131760, Note_on_c, 12, 67, 127
13, 131789, Note_on_c, 12, 67, 0
13, 131790, Note_on_c, 12, 70, 127
13, 131819, Note_on_c, 12, 70, 0
13, 131820, Note_on_c, 12, 69, 127
13, 131849, Note_on_c, 12, 69, 0
13, 131850, Note_on_c, 12, 67, 127
13, 131879, Note_on_c, 12, 67, 0
13, 131880, Note_on_c, 12, 69, 127
13, 131909, Note_on_c, 12, 69, 0
13, 131910, Note_on_c, 12, 70, 127
13, 131939, Note_on_c, 12, 70, 0
13, 131940, Note_on_c, 12, 69, 127
13, 131969, Note_on_c, 12, 69, 0
13, 131970, Note_on_c, 12, 67, 127
13, 131999, Note_on_c, 12, 67, 0
13, 132000, Note_on_c, 12, 65, 127
13, 132029, Note_on_c, 12, 65, 0
13, 132030, Note_on_c, 12, 69, 127
13, 132059, Note_on_c, 12, 69, 0
13, 132060, Note_on_c, 12, 67, 127
13, 132089, Note_on_c, 12, 67, 0
13, 132090, Note_on_c, 12, 65, 127
13, 132119, Note_on_c, 12, 65, 0
13, 132120, Note_on_c, 12, 67, 127
13, 132149, Note_on_c, 12, 67, 0
13, 132150, Note_on_c, 12, 69, 127
13, 132179, Note_on_c, 12, 69, 0
13, 132180, Note_on_c, 12, 67, 127
13, 132209, Note_on_c, 12, 67, 0
13, 132210, Note_on_c, 12, 65, 127
13, 132239, Note_on_c, 12, 65, 0
13, 132240, Note_on_c, 12, 64, 127
13, 132269, Note_on_c, 12, 64, 0
13, 132270, Note_on_c, 12, 67, 127
13, 132299, Note_on_c, 12, 67, 0
13, 132300, Note_on_c, 12, 65, 127
13, 132359, Note_on_c, 12, 65, 0
13, 132360, Note_on_c, 12, 62, 127
13, 132419, Note_on_c, 12, 62, 0
13, 132480, Note_on_c, 12, 77, 127
13, 132540, Note_on_c, 12, 77, 0
13, 132540, Note_on_c, 12, 76, 127
13, 132600, Note_on_c, 12, 76, 0
13, 132600, Note_on_c, 12, 74, 127
13, 132660, Note_on_c, 12, 74, 0
13, 132660, Note_on_c, 12, 76, 127
13, 132720, Note_on_c, 12, 76, 0
13, 132720, Note_on_c, 12, 73, 127
13, 132780, Note_on_c, 12, 73, 0
13, 132780, Note_on_c, 12, 74, 127
13, 132840, Note_on_c, 12, 74, 0
13, 132840, Note_on_c, 12, 69, 127
13, 132900, Note_on_c, 12, 69, 0
13, 132900, Note_on_c, 12, 74, 127
13, 133049, Note_on_c, 12, 74, 0
13, 133050, Note_on_c, 12, 77, 127
13, 133079, Note_on_c, 12, 77, 0
13, 133080, Note_on_c, 12, 76, 127
13, 133109, Note_on_c, 12, 76, 0
13, 133110, Note_on_c, 12, 74, 127
13, 133139, Note_on_c, 12, 74, 0
13, 133140, Note_on_c, 12, 76, 127
13, 133289, Note_on_c, 12, 76, 0
13, 133290, Note_on_c, 12, 79, 127
13, 133319, Note_on_c, 12, 79, 0
13, 133320, Note_on_c, 12, 78, 127
13, 133349, Note_on_c, 12, 78, 0
13, 133350, Note_on_c, 12, 76, 127
13, 133379, Note_on_c, 12, 76, 0
13, 133380, Note_on_c, 12, 78, 127
13, 133439, Note_on_c, 12, 78, 0
13, 133440, Note_on_c, 12, 74, 127
13, 133499, Note_on_c, 12, 74, 0
13, 133500, Note_on_c, 12, 79, 127
13, 133619, Note_on_c, 12, 79, 0
13, 133680, Note_on_c, 12, 70, 127
13, 133739, Note_on_c, 12, 70, 0
13, 133740, Note_on_c, 12, 69, 127
13, 133799, Note_on_c, 12, 69, 0
13, 133800, Note_on_c, 12, 73, 127
13, 133859, Note_on_c, 12, 73, 0
13, 133860, Note_on_c, 12, 76, 127
13, 133919, Note_on_c, 12, 76, 0
13, 133920, Note_on_c, 12, 79, 127
13, 133979, Note_on_c, 12, 79, 0
13, 133980, Note_on_c, 12, 77, 127
13, 134009, Note_on_c, 12, 77, 0
13, 134010, Note_on_c, 12, 76, 127
13, 134039, Note_on_c, 12, 76, 0
13, 134040, Note_on_c, 12, 74, 127
13, 134069, Note_on_c, 12, 74, 0
13, 134070, Note_on_c, 12, 73, 127
13, 134099, Note_on_c, 12, 73, 0
13, 134100, Note_on_c, 12, 74, 127
13, 134159, Note_on_c, 12, 74, 0
13, 134160, Note_on_c, 12, 71, 127
13, 134219, Note_on_c, 12, 71, 0
13, 134220, Note_on_c, 12, 74, 127
13, 134339, Note_on_c, 12, 74, 0
13, 134340, Note_on_c, 12, 73, 127
13, 134359, Note_on_c, 12, 73, 0
13, 134360, Note_on_c, 12, 74, 127
13, 134379, Note_on_c, 12, 74, 0
13, 134380, Note_on_c, 12, 73, 127
13, 134399, Note_on_c, 12, 73, 0
13, 134400, Note_on_c, 12, 74, 127
13, 134414, Note_on_c, 12, 74, 0
13, 134415, Note_on_c, 12, 73, 127
13, 134429, Note_on_c, 12, 73, 0
13, 134430, Note_on_c, 12, 74, 127
13, 134459, Note_on_c, 12, 74, 0
13, 134460, Note_on_c, 12, 74, 127
13, 134579, Note_on_c, 12, 74, 0
13, 157980, Control_c, 12, 0, 20
13, 157980, Program_c, 12, 57
13, 157980, Note_on_c, 12, 74, 127
13, 158039, Note_on_c, 12, 74, 0
13, 158040, Note_on_c, 12, 62, 127
13, 158129, Note_on_c, 12, 62, 0
13, 158130, Note_on_c, 12, 64, 127
13, 158159, Note_on_c, 12, 64, 0
13, 158160, Note_on_c, 12, 65, 127
13, 158189, Note_on_c, 12, 65, 0
13, 158190, Note_on_c, 12, 67, 127
13, 158219, Note_on_c, 12, 67, 0
13, 158220, Note_on_c, 12, 69, 127
13, 158279, Note_on_c, 12, 69, 0
13, 158280, Note_on_c, 12, 69, 127
13, 158339, Note_on_c, 12, 69, 0
13, 158340, Note_on_c, 12, 69, 127
13, 158399, Note_on_c, 12, 69, 0
13, 158400, Note_on_c, 12, 69, 127
13, 158459, Note_on_c, 12, 69, 0
13, 158460, Note_on_c, 12, 70, 127
13, 158489, Note_on_c, 12, 70, 0
13, 158490, Note_on_c, 12, 69, 127
13, 158519, Note_on_c, 12, 69, 0
13, 158520, Note_on_c, 12, 70, 127
13, 158549, Note_on_c, 12, 70, 0
13, 158550, Note_on_c, 12, 72, 127
13, 158579, Note_on_c, 12, 72, 0
13, 158580, Note_on_c, 12, 70, 127
13, 158609, Note_on_c, 12, 70, 0
13, 158610, Note_on_c, 12, 69, 127
13, 158639, Note_on_c, 12, 69, 0
13, 158640, Note_on_c, 12, 67, 127
13, 158669, Note_on_c, 12, 67, 0
13, 158670, Note_on_c, 12, 70, 127
13, 158699, Note_on_c, 12, 70, 0
13, 158700, Note_on_c, 12, 69, 127
13, 158729, Note_on_c, 12, 69, 0
13, 158730, Note_on_c, 12, 67, 127
13, 158759, Note_on_c, 12, 67, 0
13, 158760, Note_on_c, 12, 69, 127
13, 158789, Note_on_c, 12, 69, 0
13, 158790, Note_on_c, 12, 70, 127
13, 158819, Note_on_c, 12, 70, 0
13, 158820, Note_on_c, 12, 69, 127
13, 158849, Note_on_c, 12, 69, 0
13, 158850, Note_on_c, 12, 67, 127
13, 158879, Note_on_c, 12, 67, 0
13, 158880, Note_on_c, 12, 65, 127
13, 158909, Note_on_c, 12, 65, 0
13, 158910, Note_on_c, 12, 69, 127
13, 158939, Note_on_c, 12, 69, 0
13, 158940, Note_on_c, 12, 67, 127
13, 158969, Note_on_c, 12, 67, 0
13, 158970, Note_on_c, 12, 65, 127
13, 158999, Note_on_c, 12, 65, 0
13, 159000, Note_on_c, 12, 67, 127
13, 159029, Note_on_c, 12, 67, 0
13, 159030, Note_on_c, 12, 69, 127
13, 159059, Note_on_c, 12, 69, 0
13, 159060, Note_on_c, 12, 67, 127
13, 159089, Note_on_c, 12, 67, 0
13, 159090, Note_on_c, 12, 65, 127
13, 159119, Note_on_c, 12, 65, 0
13, 159120, Note_on_c, 12, 64, 127
13, 159149, Note_on_c, 12, 64, 0
13, 159150, Note_on_c, 12, 67, 127
13, 159179, Note_on_c, 12, 67, 0
13, 159180, Note_on_c, 12, 65, 127
13, 159209, Note_on_c, 12, 65, 0
13, 159210, Note_on_c, 12, 64, 127
13, 159239, Note_on_c, 12, 64, 0
13, 159240, Note_on_c, 12, 62, 127
13, 159269, Note_on_c, 12, 62, 0
13, 159270, Note_on_c, 12, 64, 127
13, 159299, Note_on_c, 12, 64, 0
13, 159300, Note_on_c, 12, 66, 127
13, 159329, Note_on_c, 12, 66, 0
13, 159330, Note_on_c, 12, 68, 127
13, 159359, Note_on_c, 12, 68, 0
13, 159360, Note_on_c, 12, 69, 127
13, 159389, Note_on_c, 12, 69, 0
13, 159390, Note_on_c, 12, 71, 127
13, 159419, Note_on_c, 12, 71, 0
13, 159420, Note_on_c, 12, 72, 127
13, 159449, Note_on_c, 12, 72, 0
13, 159450, Note_on_c, 12, 71, 127
13, 159479, Note_on_c, 12, 71, 0
13, 159480, Note_on_c, 12, 72, 127
13, 159509, Note_on_c, 12, 72, 0
13, 159510, Note_on_c, 12, 76, 127
13, 159539, Note_on_c, 12, 76, 0
13, 159540, Note_on_c, 12, 74, 127
13, 159569, Note_on_c, 12, 74, 0
13, 159570, Note_on_c, 12, 72, 127
13, 159599, Note_on_c, 12, 72, 0
13, 159600, Note_on_c, 12, 71, 127
13, 159629, Note_on_c, 12, 71, 0
13, 159630, Note_on_c, 12, 69, 127
13, 159659, Note_on_c, 12, 69, 0
13, 159660, Note_on_c, 12, 68, 127
13, 159719, Note_on_c, 12, 68, 0
13, 159720, Note_on_c, 12, 64, 127
13, 159779, Note_on_c, 12, 64, 0
13, 159840, Note_on_c, 12, 76, 127
13, 159899, Note_on_c, 12, 76, 0
13, 159900, Note_on_c, 12, 76, 127
13, 159959, Note_on_c, 12, 76, 0
13, 159960, Note_on_c, 12, 69, 127
13, 160019, Note_on_c, 12, 69, 0
13, 160020, Note_on_c, 12, 74, 127
13, 160199, Note_on_c, 12, 74, 0
13, 160200, Note_on_c, 12, 67, 127
13, 160259, Note_on_c, 12, 67, 0
13, 160260, Note_on_c, 12, 72, 127
13, 160289, Note_on_c, 12, 72, 0
13, 160290, Note_on_c, 12, 74, 127
13, 160319, Note_on_c, 12, 74, 0
13, 160320, Note_on_c, 12, 76, 127
13, 160349, Note_on_c, 12, 76, 0
13, 160350, Note_on_c, 12, 72, 127
13, 160379, Note_on_c, 12, 72, 0
13, 160380, Note_on_c, 12, 77, 127
13, 160409, Note_on_c, 12, 77, 0
13, 160410, Note_on_c, 12, 76, 127
13, 160439, Note_on_c, 12, 76, 0
13, 160440, Note_on_c, 12, 77, 127
13, 160469, Note_on_c, 12, 77, 0
13, 160470, Note_on_c, 12, 79, 127
13, 160499, Note_on_c, 12, 79, 0
13, 160500, Note_on_c, 12, 77, 127
13, 160529, Note_on_c, 12, 77, 0
13, 160530, Note_on_c, 12, 76, 127
13, 160559, Note_on_c, 12, 76, 0
13, 160560, Note_on_c, 12, 74, 127
13, 160589, Note_on_c, 12, 74, 0
13, 160590, Note_on_c, 12, 77, 127
13, 160619, Note_on_c, 12, 77, 0
13, 160620, Note_on_c, 12, 76, 127
13, 160679, Note_on_c, 12, 76, 0
13, 160680, Note_on_c, 12, 74, 127
13, 160739, Note_on_c, 12, 74, 0
13, 160740, Note_on_c, 12, 76, 127
13, 160799, Note_on_c, 12, 76, 0
13, 160800, Note_on_c, 12, 72, 127
13, 160859, Note_on_c, 12, 72, 0
13, 160860, Note_on_c, 12, 74, 127
13, 160919, Note_on_c, 12, 74, 0
13, 160920, Note_on_c, 12, 72, 127
13, 160979, Note_on_c, 12, 72, 0
13, 160980, Note_on_c, 12, 74, 127
13, 161039, Note_on_c, 12, 74, 0
13, 161040, Note_on_c, 12, 71, 127
13, 161099, Note_on_c, 12, 71, 0
13, 161100, Note_on_c, 12, 72, 127
13, 161159, Note_on_c, 12, 72, 0
13, 161160, Note_on_c, 12, 77, 127
13, 161219, Note_on_c, 12, 77, 0
13, 161220, Note_on_c, 12, 76, 127
13, 161279, Note_on_c, 12, 76, 0
13, 161280, Note_on_c, 12, 74, 127
13, 161339, Note_on_c, 12, 74, 0
13, 161340, Note_on_c, 12, 72, 127
13, 161459, Note_on_c, 12, 72, 0
13, 161460, Note_on_c, 12, 71, 127
13, 161479, Note_on_c, 12, 71, 0
13, 161480, Note_on_c, 12, 72, 127
13, 161499, Note_on_c, 12, 72, 0
13, 161500, Note_on_c, 12, 71, 127
13, 161519, Note_on_c, 12, 71, 0
13, 161520, Note_on_c, 12, 72, 127
13, 161534, Note_on_c, 12, 72, 0
13, 161535, Note_on_c, 12, 71, 127
13, 161549, Note_on_c, 12, 71, 0
13, 161550, Note_on_c, 12, 72, 127
13, 161564, Note_on_c, 12, 72, 0
13, 161565, Note_on_c, 12, 71, 127
13, 161579, Note_on_c, 12, 71, 0
13, 161580, Note_on_c, 12, 69, 127
13, 161699, Note_on_c, 12, 69, 0
13, 162540, Note_on_c, 12, 77, 127
13, 162599, Note_on_c, 12, 77, 0
13, 162600, Note_on_c, 12, 65, 127
13, 162689, Note_on_c, 12, 65, 0
13, 162690, Note_on_c, 12, 67, 127
13, 162719, Note_on_c, 12, 67, 0
13, 162720, Note_on_c, 12, 69, 127
13, 162749, Note_on_c, 12, 69, 0
13, 162750, Note_on_c, 12, 70, 127
13, 162779, Note_on_c, 12, 70, 0
13, 162780, Note_on_c, 12, 72, 127
13, 162839, Note_on_c, 12, 72, 0
13, 162840, Note_on_c, 12, 72, 127
13, 162899, Note_on_c, 12, 72, 0
13, 162900, Note_on_c, 12, 72, 127
13, 162959, Note_on_c, 12, 72, 0
13, 162960, Note_on_c, 12, 72, 127
13, 163019, Note_on_c, 12, 72, 0
13, 163020, Note_on_c, 12, 74, 127
13, 163049, Note_on_c, 12, 74, 0
13, 163050, Note_on_c, 12, 72, 127
13, 163079, Note_on_c, 12, 72, 0
13, 163080, Note_on_c, 12, 74, 127
13, 163109, Note_on_c, 12, 74, 0
13, 163110, Note_on_c, 12, 75, 127
13, 163139, Note_on_c, 12, 75, 0
13, 163140, Note_on_c, 12, 74, 127
13, 163169, Note_on_c, 12, 74, 0
13, 163170, Note_on_c, 12, 72, 127
13, 163199, Note_on_c, 12, 72, 0
13, 163200, Note_on_c, 12, 70, 127
13, 163229, Note_on_c, 12, 70, 0
13, 163230, Note_on_c, 12, 74, 127
13, 163259, Note_on_c, 12, 74, 0
13, 163260, Note_on_c, 12, 72, 127
13, 163289, Note_on_c, 12, 72, 0
13, 163290, Note_on_c, 12, 70, 127
13, 163319, Note_on_c, 12, 70, 0
13, 163320, Note_on_c, 12, 72, 127
13, 163349, Note_on_c, 12, 72, 0
13, 163350, Note_on_c, 12, 74, 127
13, 163379, Note_on_c, 12, 74, 0
13, 163380, Note_on_c, 12, 72, 127
13, 163409, Note_on_c, 12, 72, 0
13, 163410, Note_on_c, 12, 70, 127
13, 163439, Note_on_c, 12, 70, 0
13, 163440, Note_on_c, 12, 69, 127
13, 163469, Note_on_c, 12, 69, 0
13, 163470, Note_on_c, 12, 72, 127
13, 163499, Note_on_c, 12, 72, 0
13, 163500, Note_on_c, 12, 70, 127
13, 163529, Note_on_c, 12, 70, 0
13, 163530, Note_on_c, 12, 69, 127
13, 163559, Note_on_c, 12, 69, 0
13, 163560, Note_on_c, 12, 70, 127
13, 163589, Note_on_c, 12, 70, 0
13, 163590, Note_on_c, 12, 72, 127
13, 163619, Note_on_c, 12, 72, 0
13, 163620, Note_on_c, 12, 70, 127
13, 163649, Note_on_c, 12, 70, 0
13, 163650, Note_on_c, 12, 69, 127
13, 163679, Note_on_c, 12, 69, 0
13, 163680, Note_on_c, 12, 67, 127
13, 163709, Note_on_c, 12, 67, 0
13, 163710, Note_on_c, 12, 70, 127
13, 163739, Note_on_c, 12, 70, 0
13, 163740, Note_on_c, 12, 69, 127
13, 163799, Note_on_c, 12, 69, 0
13, 163800, Note_on_c, 12, 65, 127
13, 163859, Note_on_c, 12, 65, 0
13, 164700, Note_on_c, 12, 74, 127
13, 164759, Note_on_c, 12, 74, 0
13, 164760, Note_on_c, 12, 62, 127
13, 164849, Note_on_c, 12, 62, 0
13, 164850, Note_on_c, 12, 64, 127
13, 164879, Note_on_c, 12, 64, 0
13, 164880, Note_on_c, 12, 65, 127
13, 164909, Note_on_c, 12, 65, 0
13, 164910, Note_on_c, 12, 67, 127
13, 164939, Note_on_c, 12, 67, 0
13, 164940, Note_on_c, 12, 69, 127
13, 164999, Note_on_c, 12, 69, 0
13, 165000, Note_on_c, 12, 69, 127
13, 165059, Note_on_c, 12, 69, 0
13, 165060, Note_on_c, 12, 69, 127
13, 165119, Note_on_c, 12, 69, 0
13, 165120, Note_on_c, 12, 69, 127
13, 165179, Note_on_c, 12, 69, 0
13, 165180, Note_on_c, 12, 70, 127
13, 165209, Note_on_c, 12, 70, 0
13, 165210, Note_on_c, 12, 69, 127
13, 165239, Note_on_c, 12, 69, 0
13, 165240, Note_on_c, 12, 70, 127
13, 165269, Note_on_c, 12, 70, 0
13, 165270, Note_on_c, 12, 72, 127
13, 165299, Note_on_c, 12, 72, 0
13, 165300, Note_on_c, 12, 70, 127
13, 165329, Note_on_c, 12, 70, 0
13, 165330, Note_on_c, 12, 69, 127
13, 165359, Note_on_c, 12, 69, 0
13, 165360, Note_on_c, 12, 67, 127
13, 165389, Note_on_c, 12, 67, 0
13, 165390, Note_on_c, 12, 70, 127
13, 165419, Note_on_c, 12, 70, 0
13, 165420, Note_on_c, 12, 69, 127
13, 165449, Note_on_c, 12, 69, 0
13, 165450, Note_on_c, 12, 67, 127
13, 165479, Note_on_c, 12, 67, 0
13, 165480, Note_on_c, 12, 69, 127
13, 165509, Note_on_c, 12, 69, 0
13, 165510, Note_on_c, 12, 70, 127
13, 165539, Note_on_c, 12, 70, 0
13, 165540, Note_on_c, 12, 69, 127
13, 165569, Note_on_c, 12, 69, 0
13, 165570, Note_on_c, 12, 67, 127
13, 165599, Note_on_c, 12, 67, 0
13, 165600, Note_on_c, 12, 65, 127
13, 165629, Note_on_c, 12, 65, 0
13, 165630, Note_on_c, 12, 69, 127
13, 165659, Note_on_c, 12, 69, 0
13, 165660, Note_on_c, 12, 67, 127
13, 165689, Note_on_c, 12, 67, 0
13, 165690, Note_on_c, 12, 65, 127
13, 165719, Note_on_c, 12, 65, 0
13, 165720, Note_on_c, 12, 67, 127
13, 165749, Note_on_c, 12, 67, 0
13, 165750, Note_on_c, 12, 69, 127
13, 165779, Note_on_c, 12, 69, 0
13, 165780, Note_on_c, 12, 67, 127
13, 165809, Note_on_c, 12, 67, 0
13, 165810, Note_on_c, 12, 65, 127
13, 165839, Note_on_c, 12, 65, 0
13, 165840, Note_on_c, 12, 64, 127
13, 165869, Note_on_c, 12, 64, 0
13, 165870, Note_on_c, 12, 67, 127
13, 165899, Note_on_c, 12, 67, 0
13, 165900, Note_on_c, 12, 65, 127
13, 165959, Note_on_c, 12, 65, 0
13, 165960, Note_on_c, 12, 62, 127
13, 166019, Note_on_c, 12, 62, 0
13, 166080, Note_on_c, 12, 77, 127
13, 166140, Note_on_c, 12, 77, 0
13, 166140, Note_on_c, 12, 76, 127
13, 166200, Note_on_c, 12, 76, 0
13, 166200, Note_on_c, 12, 74, 127
13, 166260, Note_on_c, 12, 74, 0
13, 166260, Note_on_c, 12, 76, 127
13, 166320, Note_on_c, 12, 76, 0
13, 166320, Note_on_c, 12, 73, 127
13, 166380, Note_on_c, 12, 73, 0
13, 166380, Note_on_c, 12, 74, 127
13, 166440, Note_on_c, 12, 74, 0
13, 166440, Note_on_c, 12, 69, 127
13, 166500, Note_on_c, 12, 69, 0
13, 166500, Note_on_c, 12, 74, 127
13, 166649, Note_on_c, 12, 74, 0
13, 166650, Note_on_c, 12, 77, 127
13, 166679, Note_on_c, 12, 77, 0
13, 166680, Note_on_c, 12, 76, 127
13, 166709, Note_on_c, 12, 76, 0
13, 166710, Note_on_c, 12, 74, 127
13, 166739, Note_on_c, 12, 74, 0
13, 166740, Note_on_c, 12, 76, 127
13, 166889, Note_on_c, 12, 76, 0
13, 166890, Note_on_c, 12, 79, 127
13, 166919, Note_on_c, 12, 79, 0
13, 166920, Note_on_c, 12, 78, 127
13, 166949, Note_on_c, 12, 78, 0
13, 166950, Note_on_c, 12, 76, 127
13, 166979, Note_on_c, 12, 76, 0
13, 166980, Note_on_c, 12, 78, 127
13, 167039, Note_on_c, 12, 78, 0
13, 167040, Note_on_c, 12, 74, 127
13, 167099, Note_on_c, 12, 74, 0
13, 167100, Note_on_c, 12, 79, 127
13, 167219, Note_on_c, 12, 79, 0
13, 167280, Note_on_c, 12, 70, 127
13, 167339, Note_on_c, 12, 70, 0
13, 167340, Note_on_c, 12, 69, 127
13, 167399, Note_on_c, 12, 69, 0
13, 167400, Note_on_c, 12, 73, 127
13, 167459, Note_on_c, 12, 73, 0
13, 167460, Note_on_c, 12, 76, 127
13, 167519, Note_on_c, 12, 76, 0
13, 167520, Note_on_c, 12, 79, 127
13, 167579, Note_on_c, 12, 79, 0
13, 167580, Note_on_c, 12, 77, 127
13, 167609, Note_on_c, 12, 77, 0
13, 167610, Note_on_c, 12, 76, 127
13, 167639, Note_on_c, 12, 76, 0
13, 167640, Note_on_c, 12, 74, 127
13, 167669, Note_on_c, 12, 74, 0
13, 167670, Note_on_c, 12, 73, 127
13, 167699, Note_on_c, 12, 73, 0
13, 167700, Note_on_c, 12, 74, 127
13, 167759, Note_on_c, 12, 74, 0
13, 167760, Note_on_c, 12, 71, 127
13, 167819, Note_on_c, 12, 71, 0
13, 167820, Note_on_c, 12, 74, 127
13, 167939, Note_on_c, 12, 74, 0
13, 167940, Note_on_c, 12, 73, 127
13, 167959, Note_on_c, 12, 73, 0
13, 167960, Note_on_c, 12, 74, 127
13, 167979, Note_on_c, 12, 74, 0
13, 167980, Note_on_c, 12, 73, 127
13, 167999, Note_on_c, 12, 73, 0
13, 168000, Note_on_c, 12, 74, 127
13, 168014, Note_on_c, 12, 74, 0
13, 168015, Note_on_c, 12, 73, 127
13, 168029, Note_on_c, 12, 73, 0
13, 168030, Note_on_c, 12, 74, 127
13, 168059, Note_on_c, 12, 74, 0
13, 168060, Note_on_c, 12, 74, 127
13, 168179, Note_on_c, 12, 74, 0
13, 175740, Note_on_c, 12, 65, 127
13, 175859, Note_on_c, 12, 65, 0
13, 175860, Note_on_c, 12, 60, 127
13, 176099, Note_on_c, 12, 60, 0
13, 176100, Note_on_c, 12, 60, 127
13, 176279, Note_on_c, 12, 60, 0
13, 176280, Note_on_c, 12, 58, 127
13, 176339, Note_on_c, 12, 58, 0
13, 176340, Note_on_c, 12, 57, 127
13, 176459, Note_on_c, 12, 57, 0
13, 176460, Note_on_c, 12, 58, 127
13, 176699, Note_on_c, 12, 58, 0
13, 176700, Note_on_c, 12, 57, 127
13, 176759, Note_on_c, 12, 57, 0
13, 176760, Note_on_c, 12, 58, 127
13, 176789, Note_on_c, 12, 58, 0
13, 176790, Note_on_c, 12, 60, 127
13, 176819, Note_on_c, 12, 60, 0
13, 176820, Note_on_c, 12, 60, 127
13, 176939, Note_on_c, 12, 60, 0
13, 176940, Note_on_c, 12, 58, 127
13, 176999, Note_on_c, 12, 58, 0
13, 177000, Note_on_c, 12, 57, 127
13, 177059, Note_on_c, 12, 57, 0
13, 177060, Note_on_c, 12, 58, 127
13, 177179, Note_on_c, 12, 58, 0
13, 177180, Note_on_c, 12, 57, 127
13, 177419, Note_on_c, 12, 57, 0
13, 178620, Note_on_c, 12, 65, 127
13, 178739, Note_on_c, 12, 65, 0
13, 178740, Note_on_c, 12, 62, 127
13, 178979, Note_on_c, 12, 62, 0
13, 178980, Note_on_c, 12, 60, 127
13, 179039, Note_on_c, 12, 60, 0
13, 179040, Note_on_c, 12, 58, 127
13, 179099, Note_on_c, 12, 58, 0
13, 179100, Note_on_c, 12, 57, 127
13, 179219, Note_on_c, 12, 57, 0
13, 179220, Note_on_c, 12, 57, 127
13, 179339, Note_on_c, 12, 57, 0
13, 179340, Note_on_c, 12, 62, 127
13, 179399, Note_on_c, 12, 62, 0
13, 179400, Note_on_c, 12, 60, 127
13, 179459, Note_on_c, 12, 60, 0
13, 179460, Note_on_c, 12, 60, 127
13, 179699, Note_on_c, 12, 60, 0
13, 179700, Note_on_c, 12, 60, 127
13, 180059, Note_on_c, 12, 60, 0
13, 181500, Note_on_c, 12, 65, 127
13, 181619, Note_on_c, 12, 65, 0
13, 181620, Note_on_c, 12, 60, 127
13, 181859, Note_on_c, 12, 60, 0
13, 181860, Note_on_c, 12, 60, 127
13, 182039, Note_on_c, 12, 60, 0
13, 182040, Note_on_c, 12, 58, 127
13, 182099, Note_on_c, 12, 58, 0
13, 182100, Note_on_c, 12, 57, 127
13, 182219, Note_on_c, 12, 57, 0
13, 182220, Note_on_c, 12, 58, 127
13, 182459, Note_on_c, 12, 58, 0
13, 182460, Note_on_c, 12, 57, 127
13, 182519, Note_on_c, 12, 57, 0
13, 182520, Note_on_c, 12, 58, 127
13, 182549, Note_on_c, 12, 58, 0
13, 182550, Note_on_c, 12, 60, 127
13, 182579, Note_on_c, 12, 60, 0
13, 182580, Note_on_c, 12, 60, 127
13, 182699, Note_on_c, 12, 60, 0
13, 182700, Note_on_c, 12, 58, 127
13, 182759, Note_on_c, 12, 58, 0
13, 182760, Note_on_c, 12, 57, 127
13, 182819, Note_on_c, 12, 57, 0
13, 182820, Note_on_c, 12, 58, 127
13, 182939, Note_on_c, 12, 58, 0
13, 182940, Note_on_c, 12, 57, 127
13, 183179, Note_on_c, 12, 57, 0
13, 184380, Note_on_c, 12, 65, 127
13, 184499, Note_on_c, 12, 65, 0
13, 184500, Note_on_c, 12, 62, 127
13, 184739, Note_on_c, 12, 62, 0
13, 184740, Note_on_c, 12, 60, 127
13, 184799, Note_on_c, 12, 60, 0
13, 184800, Note_on_c, 12, 58, 127
13, 184859, Note_on_c, 12, 58, 0
13, 184860, Note_on_c, 12, 57, 127
13, 184979, Note_on_c, 12, 57, 0
13, 184980, Note_on_c, 12, 57, 127
13, 185099, Note_on_c, 12, 57, 0
13, 185100, Note_on_c, 12, 62, 127
13, 185159, Note_on_c, 12, 62, 0
13, 185160, Note_on_c, 12, 60, 127
13, 185219, Note_on_c, 12, 60, 0
13, 185220, Note_on_c, 12, 60, 127
13, 185459, Note_on_c, 12, 60, 0
13, 185460, Note_on_c, 12, 60, 127
13, 185819, Note_on_c, 12, 60, 0
13, 187260, Note_on_c, 12, 60, 127
13, 187499, Note_on_c, 12, 60, 0
13, 187500, Note_on_c, 12, 64, 127
13, 187619, Note_on_c, 12, 64, 0
13, 187620, Note_on_c, 12, 60, 127
13, 187859, Note_on_c, 12, 60, 0
13, 187860, Note_on_c, 12, 58, 127
13, 188099, Note_on_c, 12, 58, 0
13, 188100, Note_on_c, 12, 57, 127
13, 188219, Note_on_c, 12, 57, 0
13, 188220, Note_on_c, 12, 62, 127
13, 188279, Note_on_c, 12, 62, 0
13, 188280, Note_on_c, 12, 60, 127
13, 188339, Note_on_c, 12, 60, 0
13, 188340, Note_on_c, 12, 58, 127
13, 188459, Note_on_c, 12, 58, 0
13, 188460, Note_on_c, 12, 57, 127
13, 188519, Note_on_c, 12, 57, 0
13, 188520, Note_on_c, 12, 55, 127
13, 188579, Note_on_c, 12, 55, 0
13, 188580, Note_on_c, 12, 57, 127
13, 188699, Note_on_c, 12, 57, 0
13, 188700, Note_on_c, 12, 57, 127
13, 188939, Note_on_c, 12, 57, 0
13, 190140, Note_on_c, 12, 58, 127
13, 190319, Note_on_c, 12, 58, 0
13, 190320, Note_on_c, 12, 55, 127
13, 190379, Note_on_c, 12, 55, 0
13, 190380, Note_on_c, 12, 60, 127
13, 190499, Note_on_c, 12, 60, 0
13, 190500, Note_on_c, 12, 60, 127
13, 190739, Note_on_c, 12, 60, 0
13, 190740, Note_on_c, 12, 55, 127
13, 190859, Note_on_c, 12, 55, 0
13, 190860, Note_on_c, 12, 53, 127
13, 191099, Note_on_c, 12, 53, 0
13, 191100, Note_on_c, 12, 62, 127
13, 191219, Note_on_c, 12, 62, 0
13, 191220, Note_on_c, 12, 55, 127
13, 191339, Note_on_c, 12, 55, 0
13, 191340, Note_on_c, 12, 60, 127
13, 191459, Note_on_c, 12, 60, 0
13, 191460, Note_on_c, 12, 58, 127
13, 191579, Note_on_c, 12, 58, 0
13, 191580, Note_on_c, 12, 57, 127
13, 191819, Note_on_c, 12, 57, 0
13, 191819, End_track
14, 0, Start_track
14, 0, MIDI_port, 0
14, 0, Title_t, "Basso Coro/Solo"
14, 0, Program_c, 13, 52
14, 0, Control_c, 13, 7, 127
14, 0, Control_c, 13, 10, 87
14, 4320, Note_on_c, 13, 53, 127
14, 4440, Note_on_c, 13, 53, 0
14, 4440, Note_on_c, 13, 53, 127
14, 4500, Note_on_c, 13, 53, 0
14, 4500, Note_on_c, 13, 53, 127
14, 6780, Note_on_c, 13, 53, 0
14, 6780, Note_on_c, 13, 53, 127
14, 6839, Note_on_c, 13, 53, 0
14, 6840, Note_on_c, 13, 51, 127
14, 6899, Note_on_c, 13, 51, 0
14, 6900, Note_on_c, 13, 50, 127
14, 6959, Note_on_c, 13, 50, 0
14, 6960, Note_on_c, 13, 48, 127
14, 7019, Note_on_c, 13, 48, 0
14, 7020, Note_on_c, 13, 46, 127
14, 7049, Note_on_c, 13, 46, 0
14, 7080, Note_on_c, 13, 53, 127
14, 7109, Note_on_c, 13, 53, 0
14, 7200, Note_on_c, 13, 58, 127
14, 7259, Note_on_c, 13, 58, 0
14, 7260, Note_on_c, 13, 58, 127
14, 7289, Note_on_c, 13, 58, 0
14, 7290, Note_on_c, 13, 57, 127
14, 7319, Note_on_c, 13, 57, 0
14, 7320, Note_on_c, 13, 58, 127
14, 7349, Note_on_c, 13, 58, 0
14, 7350, Note_on_c, 13, 55, 127
14, 7379, Note_on_c, 13, 55, 0
14, 7380, Note_on_c, 13, 57, 127
14, 7499, Note_on_c, 13, 57, 0
14, 7500, Note_on_c, 13, 52, 127
14, 7559, Note_on_c, 13, 52, 0
14, 7560, Note_on_c, 13, 53, 127
14, 7619, Note_on_c, 13, 53, 0
14, 7620, Note_on_c, 13, 58, 127
14, 7679, Note_on_c, 13, 58, 0
14, 7680, Note_on_c, 13, 55, 127
14, 7739, Note_on_c, 13, 55, 0
14, 7740, Note_on_c, 13, 60, 127
14, 7919, Note_on_c, 13, 60, 0
14, 8280, Note_on_c, 13, 58, 127
14, 8339, Note_on_c, 13, 58, 0
14, 8340, Note_on_c, 13, 57, 127
14, 8399, Note_on_c, 13, 57, 0
14, 8400, Note_on_c, 13, 55, 127
14, 8459, Note_on_c, 13, 55, 0
14, 8460, Note_on_c, 13, 53, 127
14, 8519, Note_on_c, 13, 53, 0
14, 8520, Note_on_c, 13, 52, 127
14, 8579, Note_on_c, 13, 52, 0
14, 8580, Note_on_c, 13, 53, 127
14, 8639, Note_on_c, 13, 53, 0
14, 8640, Note_on_c, 13, 57, 127
14, 8759, Note_on_c, 13, 57, 0
14, 8760, Note_on_c, 13, 58, 127
14, 8819, Note_on_c, 13, 58, 0
14, 8820, Note_on_c, 13, 51, 127
14, 8939, Note_on_c, 13, 51, 0
14, 8940, Note_on_c, 13, 50, 127
14, 8999, Note_on_c, 13, 50, 0
14, 9000, Note_on_c, 13, 48, 127
14, 9059, Note_on_c, 13, 48, 0
14, 9060, Note_on_c, 13, 58, 127
14, 9119, Note_on_c, 13, 58, 0
14, 9120, Note_on_c, 13, 57, 127
14, 9179, Note_on_c, 13, 57, 0
14, 9180, Note_on_c, 13, 58, 127
14, 9239, Note_on_c, 13, 58, 0
14, 9240, Note_on_c, 13, 53, 127
14, 9299, Note_on_c, 13, 53, 0
14, 9300, Note_on_c, 13, 46, 127
14, 9359, Note_on_c, 13, 46, 0
14, 9360, Note_on_c, 13, 58, 127
14, 9479, Note_on_c, 13, 58, 0
14, 9480, Note_on_c, 13, 57, 127
14, 9539, Note_on_c, 13, 57, 0
14, 9540, Note_on_c, 13, 55, 127
14, 9569, Note_on_c, 13, 55, 0
14, 9570, Note_on_c, 13, 53, 127
14, 9599, Note_on_c, 13, 53, 0
14, 9600, Note_on_c, 13, 55, 127
14, 9659, Note_on_c, 13, 55, 0
14, 9660, Note_on_c, 13, 52, 127
14, 9719, Note_on_c, 13, 52, 0
14, 9720, Note_on_c, 13, 57, 127
14, 9839, Note_on_c, 13, 57, 0
14, 9840, Note_on_c, 13, 55, 127
14, 9899, Note_on_c, 13, 55, 0
14, 9900, Note_on_c, 13, 54, 127
14, 9929, Note_on_c, 13, 54, 0
14, 9930, Note_on_c, 13, 52, 127
14, 9959, Note_on_c, 13, 52, 0
14, 9960, Note_on_c, 13, 54, 127
14, 10019, Note_on_c, 13, 54, 0
14, 10020, Note_on_c, 13, 50, 127
14, 10079, Note_on_c, 13, 50, 0
14, 10080, Note_on_c, 13, 55, 127
14, 10199, Note_on_c, 13, 55, 0
14, 10200, Note_on_c, 13, 53, 127
14, 10259, Note_on_c, 13, 53, 0
14, 10260, Note_on_c, 13, 52, 127
14, 10289, Note_on_c, 13, 52, 0
14, 10290, Note_on_c, 13, 50, 127
14, 10319, Note_on_c, 13, 50, 0
14, 10320, Note_on_c, 13, 52, 127
14, 10379, Note_on_c, 13, 52, 0
14, 10380, Note_on_c, 13, 48, 127
14, 10439, Note_on_c, 13, 48, 0
14, 10440, Note_on_c, 13, 53, 127
14, 10499, Note_on_c, 13, 53, 0
14, 10500, Note_on_c, 13, 50, 127
14, 10559, Note_on_c, 13, 50, 0
14, 10560, Note_on_c, 13, 48, 127
14, 10619, Note_on_c, 13, 48, 0
14, 10620, Note_on_c, 13, 55, 127
14, 10739, Note_on_c, 13, 55, 0
14, 10800, Note_on_c, 13, 60, 127
14, 10919, Note_on_c, 13, 60, 0
14, 10920, Note_on_c, 13, 57, 127
14, 10979, Note_on_c, 13, 57, 0
14, 10980, Note_on_c, 13, 53, 127
14, 11039, Note_on_c, 13, 53, 0
14, 11040, Note_on_c, 13, 50, 127
14, 11099, Note_on_c, 13, 50, 0
14, 11100, Note_on_c, 13, 52, 127
14, 11159, Note_on_c, 13, 52, 0
14, 11160, Note_on_c, 13, 48, 127
14, 11219, Note_on_c, 13, 48, 0
14, 11220, Note_on_c, 13, 50, 127
14, 11279, Note_on_c, 13, 50, 0
14, 11280, Note_on_c, 13, 52, 127
14, 11339, Note_on_c, 13, 52, 0
14, 11340, Note_on_c, 13, 53, 127
14, 11369, Note_on_c, 13, 53, 0
14, 11400, Note_on_c, 13, 48, 127
14, 11429, Note_on_c, 13, 48, 0
14, 11880, Note_on_c, 13, 57, 127
14, 11939, Note_on_c, 13, 57, 0
14, 11940, Note_on_c, 13, 58, 127
14, 11999, Note_on_c, 13, 58, 0
14, 12000, Note_on_c, 13, 60, 127
14, 12059, Note_on_c, 13, 60, 0
14, 12060, Note_on_c, 13, 60, 127
14, 12119, Note_on_c, 13, 60, 0
14, 12120, Note_on_c, 13, 58, 127
14, 12179, Note_on_c, 13, 58, 0
14, 12180, Note_on_c, 13, 57, 127
14, 12239, Note_on_c, 13, 57, 0
14, 12240, Note_on_c, 13, 55, 127
14, 12359, Note_on_c, 13, 55, 0
14, 12360, Note_on_c, 13, 52, 127
14, 12419, Note_on_c, 13, 52, 0
14, 12420, Note_on_c, 13, 60, 127
14, 12539, Note_on_c, 13, 60, 0
14, 12540, Note_on_c, 13, 55, 127
14, 12599, Note_on_c, 13, 55, 0
14, 12600, Note_on_c, 13, 53, 127
14, 12659, Note_on_c, 13, 53, 0
14, 12660, Note_on_c, 13, 52, 127
14, 12719, Note_on_c, 13, 52, 0
14, 12720, Note_on_c, 13, 50, 127
14, 12779, Note_on_c, 13, 50, 0
14, 12780, Note_on_c, 13, 59, 127
14, 12839, Note_on_c, 13, 59, 0
14, 12840, Note_on_c, 13, 60, 127
14, 12899, Note_on_c, 13, 60, 0
14, 12900, Note_on_c, 13, 62, 127
14, 12959, Note_on_c, 13, 62, 0
14, 12960, Note_on_c, 13, 60, 127
14, 13079, Note_on_c, 13, 60, 0
14, 13080, Note_on_c, 13, 53, 127
14, 13139, Note_on_c, 13, 53, 0
14, 13140, Note_on_c, 13, 55, 127
14, 13259, Note_on_c, 13, 55, 0
14, 13260, Note_on_c, 13, 57, 127
14, 13319, Note_on_c, 13, 57, 0
14, 13320, Note_on_c, 13, 58, 127
14, 13379, Note_on_c, 13, 58, 0
14, 13380, Note_on_c, 13, 57, 127
14, 13439, Note_on_c, 13, 57, 0
14, 13440, Note_on_c, 13, 55, 127
14, 13499, Note_on_c, 13, 55, 0
14, 13500, Note_on_c, 13, 53, 127
14, 13529, Note_on_c, 13, 53, 0
14, 13560, Note_on_c, 13, 48, 127
14, 13589, Note_on_c, 13, 48, 0
14, 13680, Note_on_c, 13, 53, 127
14, 13799, Note_on_c, 13, 53, 0
14, 13800, Note_on_c, 13, 53, 127
14, 13859, Note_on_c, 13, 53, 0
14, 13860, Note_on_c, 13, 53, 127
14, 13919, Note_on_c, 13, 53, 0
14, 13920, Note_on_c, 13, 52, 127
14, 13979, Note_on_c, 13, 52, 0
14, 13980, Note_on_c, 13, 57, 127
14, 14039, Note_on_c, 13, 57, 0
14, 14040, Note_on_c, 13, 55, 127
14, 14099, Note_on_c, 13, 55, 0
14, 14100, Note_on_c, 13, 53, 127
14, 14159, Note_on_c, 13, 53, 0
14, 14160, Note_on_c, 13, 55, 127
14, 14219, Note_on_c, 13, 55, 0
14, 14220, Note_on_c, 13, 48, 127
14, 14339, Note_on_c, 13, 48, 0
14, 17280, Note_on_c, 13, 60, 127
14, 17339, Note_on_c, 13, 60, 0
14, 17340, Note_on_c, 13, 58, 127
14, 17399, Note_on_c, 13, 58, 0
14, 17400, Note_on_c, 13, 57, 127
14, 17459, Note_on_c, 13, 57, 0
14, 17460, Note_on_c, 13, 58, 127
14, 17519, Note_on_c, 13, 58, 0
14, 17520, Note_on_c, 13, 57, 127
14, 17579, Note_on_c, 13, 57, 0
14, 17580, Note_on_c, 13, 55, 127
14, 17639, Note_on_c, 13, 55, 0
14, 17640, Note_on_c, 13, 57, 127
14, 17699, Note_on_c, 13, 57, 0
14, 17700, Note_on_c, 13, 55, 127
14, 17759, Note_on_c, 13, 55, 0
14, 17760, Note_on_c, 13, 54, 127
14, 17819, Note_on_c, 13, 54, 0
14, 17820, Note_on_c, 13, 55, 127
14, 17879, Note_on_c, 13, 55, 0
14, 17880, Note_on_c, 13, 53, 127
14, 17939, Note_on_c, 13, 53, 0
14, 17940, Note_on_c, 13, 52, 127
14, 17999, Note_on_c, 13, 52, 0
14, 18000, Note_on_c, 13, 53, 127
14, 18059, Note_on_c, 13, 53, 0
14, 18060, Note_on_c, 13, 55, 127
14, 18119, Note_on_c, 13, 55, 0
14, 18120, Note_on_c, 13, 57, 127
14, 18179, Note_on_c, 13, 57, 0
14, 18180, Note_on_c, 13, 58, 127
14, 18299, Note_on_c, 13, 58, 0
14, 18300, Note_on_c, 13, 57, 127
14, 18359, Note_on_c, 13, 57, 0
14, 18360, Note_on_c, 13, 55, 127
14, 18419, Note_on_c, 13, 55, 0
14, 18420, Note_on_c, 13, 52, 127
14, 18479, Note_on_c, 13, 52, 0
14, 18480, Note_on_c, 13, 55, 127
14, 18539, Note_on_c, 13, 55, 0
14, 18540, Note_on_c, 13, 57, 127
14, 18659, Note_on_c, 13, 57, 0
14, 18660, Note_on_c, 13, 55, 127
14, 18719, Note_on_c, 13, 55, 0
14, 18720, Note_on_c, 13, 53, 127
14, 18779, Note_on_c, 13, 53, 0
14, 18780, Note_on_c, 13, 50, 127
14, 18839, Note_on_c, 13, 50, 0
14, 18840, Note_on_c, 13, 57, 127
14, 18899, Note_on_c, 13, 57, 0
14, 18900, Note_on_c, 13, 53, 127
14, 18959, Note_on_c, 13, 53, 0
14, 18960, Note_on_c, 13, 50, 127
14, 19019, Note_on_c, 13, 50, 0
14, 19020, Note_on_c, 13, 53, 127
14, 19079, Note_on_c, 13, 53, 0
14, 19080, Note_on_c, 13, 55, 127
14, 19109, Note_on_c, 13, 55, 0
14, 19110, Note_on_c, 13, 54, 127
14, 19139, Note_on_c, 13, 54, 0
14, 19140, Note_on_c, 13, 55, 127
14, 19169, Note_on_c, 13, 55, 0
14, 19170, Note_on_c, 13, 57, 127
14, 19199, Note_on_c, 13, 57, 0
14, 19200, Note_on_c, 13, 54, 127
14, 19229, Note_on_c, 13, 54, 0
14, 19230, Note_on_c, 13, 57, 127
14, 19259, Note_on_c, 13, 57, 0
14, 19260, Note_on_c, 13, 55, 127
14, 19289, Note_on_c, 13, 55, 0
14, 19290, Note_on_c, 13, 57, 127
14, 19319, Note_on_c, 13, 57, 0
14, 19320, Note_on_c, 13, 58, 127
14, 19349, Note_on_c, 13, 58, 0
14, 19350, Note_on_c, 13, 57, 127
14, 19379, Note_on_c, 13, 57, 0
14, 19380, Note_on_c, 13, 55, 127
14, 19409, Note_on_c, 13, 55, 0
14, 19410, Note_on_c, 13, 53, 127
14, 19439, Note_on_c, 13, 53, 0
14, 19440, Note_on_c, 13, 52, 127
14, 19499, Note_on_c, 13, 52, 0
14, 19500, Note_on_c, 13, 48, 127
14, 19559, Note_on_c, 13, 48, 0
14, 19560, Note_on_c, 13, 55, 127
14, 19619, Note_on_c, 13, 55, 0
14, 19620, Note_on_c, 13, 52, 127
14, 19679, Note_on_c, 13, 52, 0
14, 19680, Note_on_c, 13, 48, 127
14, 19739, Note_on_c, 13, 48, 0
14, 19740, Note_on_c, 13, 52, 127
14, 19799, Note_on_c, 13, 52, 0
14, 19800, Note_on_c, 13, 53, 127
14, 19829, Note_on_c, 13, 53, 0
14, 19830, Note_on_c, 13, 52, 127
14, 19859, Note_on_c, 13, 52, 0
14, 19860, Note_on_c, 13, 53, 127
14, 19889, Note_on_c, 13, 53, 0
14, 19890, Note_on_c, 13, 55, 127
14, 19919, Note_on_c, 13, 55, 0
14, 19920, Note_on_c, 13, 52, 127
14, 19949, Note_on_c, 13, 52, 0
14, 19950, Note_on_c, 13, 55, 127
14, 19979, Note_on_c, 13, 55, 0
14, 19980, Note_on_c, 13, 53, 127
14, 20009, Note_on_c, 13, 53, 0
14, 20010, Note_on_c, 13, 55, 127
14, 20039, Note_on_c, 13, 55, 0
14, 20040, Note_on_c, 13, 57, 127
14, 20069, Note_on_c, 13, 57, 0
14, 20070, Note_on_c, 13, 55, 127
14, 20099, Note_on_c, 13, 55, 0
14, 20100, Note_on_c, 13, 53, 127
14, 20129, Note_on_c, 13, 53, 0
14, 20130, Note_on_c, 13, 52, 127
14, 20159, Note_on_c, 13, 52, 0
14, 20160, Note_on_c, 13, 50, 127
14, 20219, Note_on_c, 13, 50, 0
14, 20220, Note_on_c, 13, 49, 127
14, 20279, Note_on_c, 13, 49, 0
14, 20280, Note_on_c, 13, 50, 127
14, 20339, Note_on_c, 13, 50, 0
14, 20340, Note_on_c, 13, 52, 127
14, 20399, Note_on_c, 13, 52, 0
14, 20400, Note_on_c, 13, 50, 127
14, 20459, Note_on_c, 13, 50, 0
14, 20460, Note_on_c, 13, 52, 127
14, 20519, Note_on_c, 13, 52, 0
14, 20520, Note_on_c, 13, 49, 127
14, 20579, Note_on_c, 13, 49, 0
14, 20580, Note_on_c, 13, 47, 127
14, 20639, Note_on_c, 13, 47, 0
14, 20640, Note_on_c, 13, 49, 127
14, 20699, Note_on_c, 13, 49, 0
14, 20700, Note_on_c, 13, 50, 127
14, 20729, Note_on_c, 13, 50, 0
14, 20730, Note_on_c, 13, 52, 127
14, 20759, Note_on_c, 13, 52, 0
14, 20760, Note_on_c, 13, 50, 127
14, 20789, Note_on_c, 13, 50, 0
14, 20790, Note_on_c, 13, 48, 127
14, 20819, Note_on_c, 13, 48, 0
14, 20820, Note_on_c, 13, 46, 127
14, 20849, Note_on_c, 13, 46, 0
14, 20850, Note_on_c, 13, 45, 127
14, 20879, Note_on_c, 13, 45, 0
14, 20880, Note_on_c, 13, 43, 127
14, 20939, Note_on_c, 13, 43, 0
14, 20940, Note_on_c, 13, 55, 127
14, 20999, Note_on_c, 13, 55, 0
14, 21000, Note_on_c, 13, 55, 127
14, 21059, Note_on_c, 13, 55, 0
14, 21060, Note_on_c, 13, 55, 127
14, 21119, Note_on_c, 13, 55, 0
14, 21120, Note_on_c, 13, 53, 127
14, 21179, Note_on_c, 13, 53, 0
14, 21180, Note_on_c, 13, 58, 127
14, 21239, Note_on_c, 13, 58, 0
14, 21240, Note_on_c, 13, 55, 127
14, 21299, Note_on_c, 13, 55, 0
14, 21300, Note_on_c, 13, 57, 127
14, 21359, Note_on_c, 13, 57, 0
14, 21360, Note_on_c, 13, 45, 127
14, 21419, Note_on_c, 13, 45, 0
14, 21420, Note_on_c, 13, 50, 127
14, 21539, Note_on_c, 13, 50, 0
14, 24480, Note_on_c, 13, 50, 127
14, 24539, Note_on_c, 13, 50, 0
14, 24540, Note_on_c, 13, 55, 127
14, 24599, Note_on_c, 13, 55, 0
14, 24600, Note_on_c, 13, 53, 127
14, 24659, Note_on_c, 13, 53, 0
14, 24660, Note_on_c, 13, 52, 127
14, 24719, Note_on_c, 13, 52, 0
14, 24720, Note_on_c, 13, 50, 127
14, 24779, Note_on_c, 13, 50, 0
14, 24780, Note_on_c, 13, 48, 127
14, 24839, Note_on_c, 13, 48, 0
14, 24840, Note_on_c, 13, 50, 127
14, 24899, Note_on_c, 13, 50, 0
14, 24900, Note_on_c, 13, 55, 127
14, 24959, Note_on_c, 13, 55, 0
14, 24960, Note_on_c, 13, 43, 127
14, 25019, Note_on_c, 13, 43, 0
14, 25020, Note_on_c, 13, 48, 127
14, 25079, Note_on_c, 13, 48, 0
14, 25080, Note_on_c, 13, 50, 127
14, 25139, Note_on_c, 13, 50, 0
14, 25140, Note_on_c, 13, 52, 127
14, 25199, Note_on_c, 13, 52, 0
14, 25200, Note_on_c, 13, 45, 127
14, 25319, Note_on_c, 13, 45, 0
14, 25320, Note_on_c, 13, 47, 127
14, 25379, Note_on_c, 13, 47, 0
14, 25380, Note_on_c, 13, 48, 127
14, 25439, Note_on_c, 13, 48, 0
14, 25440, Note_on_c, 13, 47, 127
14, 25499, Note_on_c, 13, 47, 0
14, 25500, Note_on_c, 13, 45, 127
14, 25559, Note_on_c, 13, 45, 0
14, 25560, Note_on_c, 13, 50, 127
14, 25619, Note_on_c, 13, 50, 0
14, 25620, Note_on_c, 13, 52, 127
14, 25679, Note_on_c, 13, 52, 0
14, 25680, Note_on_c, 13, 53, 127
14, 25739, Note_on_c, 13, 53, 0
14, 25740, Note_on_c, 13, 52, 127
14, 25799, Note_on_c, 13, 52, 0
14, 25800, Note_on_c, 13, 54, 127
14, 25859, Note_on_c, 13, 54, 0
14, 25860, Note_on_c, 13, 56, 127
14, 25919, Note_on_c, 13, 56, 0
14, 25920, Note_on_c, 13, 57, 127
14, 25949, Note_on_c, 13, 57, 0
14, 25950, Note_on_c, 13, 56, 127
14, 25979, Note_on_c, 13, 56, 0
14, 25980, Note_on_c, 13, 57, 127
14, 26009, Note_on_c, 13, 57, 0
14, 26010, Note_on_c, 13, 59, 127
14, 26039, Note_on_c, 13, 59, 0
14, 26040, Note_on_c, 13, 56, 127
14, 26069, Note_on_c, 13, 56, 0
14, 26070, Note_on_c, 13, 59, 127
14, 26099, Note_on_c, 13, 59, 0
14, 26100, Note_on_c, 13, 57, 127
14, 26129, Note_on_c, 13, 57, 0
14, 26130, Note_on_c, 13, 59, 127
14, 26159, Note_on_c, 13, 59, 0
14, 26160, Note_on_c, 13, 60, 127
14, 26189, Note_on_c, 13, 60, 0
14, 26190, Note_on_c, 13, 59, 127
14, 26219, Note_on_c, 13, 59, 0
14, 26220, Note_on_c, 13, 57, 127
14, 26249, Note_on_c, 13, 57, 0
14, 26250, Note_on_c, 13, 55, 127
14, 26279, Note_on_c, 13, 55, 0
14, 26280, Note_on_c, 13, 53, 127
14, 26339, Note_on_c, 13, 53, 0
14, 26340, Note_on_c, 13, 50, 127
14, 26399, Note_on_c, 13, 50, 0
14, 26400, Note_on_c, 13, 57, 127
14, 26459, Note_on_c, 13, 57, 0
14, 26460, Note_on_c, 13, 53, 127
14, 26519, Note_on_c, 13, 53, 0
14, 26520, Note_on_c, 13, 50, 127
14, 26579, Note_on_c, 13, 50, 0
14, 26580, Note_on_c, 13, 53, 127
14, 26639, Note_on_c, 13, 53, 0
14, 26640, Note_on_c, 13, 55, 127
14, 26669, Note_on_c, 13, 55, 0
14, 26670, Note_on_c, 13, 54, 127
14, 26699, Note_on_c, 13, 54, 0
14, 26700, Note_on_c, 13, 55, 127
14, 26729, Note_on_c, 13, 55, 0
14, 26730, Note_on_c, 13, 57, 127
14, 26759, Note_on_c, 13, 57, 0
14, 26760, Note_on_c, 13, 54, 127
14, 26789, Note_on_c, 13, 54, 0
14, 26790, Note_on_c, 13, 57, 127
14, 26819, Note_on_c, 13, 57, 0
14, 26820, Note_on_c, 13, 55, 127
14, 26849, Note_on_c, 13, 55, 0
14, 26850, Note_on_c, 13, 57, 127
14, 26879, Note_on_c, 13, 57, 0
14, 26880, Note_on_c, 13, 59, 127
14, 26909, Note_on_c, 13, 59, 0
14, 26910, Note_on_c, 13, 57, 127
14, 26939, Note_on_c, 13, 57, 0
14, 26940, Note_on_c, 13, 55, 127
14, 26969, Note_on_c, 13, 55, 0
14, 26970, Note_on_c, 13, 53, 127
14, 26999, Note_on_c, 13, 53, 0
14, 27000, Note_on_c, 13, 52, 127
14, 27059, Note_on_c, 13, 52, 0
14, 27060, Note_on_c, 13, 48, 127
14, 27119, Note_on_c, 13, 48, 0
14, 27120, Note_on_c, 13, 55, 127
14, 27179, Note_on_c, 13, 55, 0
14, 27180, Note_on_c, 13, 52, 127
14, 27239, Note_on_c, 13, 52, 0
14, 27240, Note_on_c, 13, 48, 127
14, 27299, Note_on_c, 13, 48, 0
14, 27300, Note_on_c, 13, 52, 127
14, 27359, Note_on_c, 13, 52, 0
14, 27360, Note_on_c, 13, 53, 127
14, 27419, Note_on_c, 13, 53, 0
14, 27420, Note_on_c, 13, 52, 127
14, 27479, Note_on_c, 13, 52, 0
14, 27480, Note_on_c, 13, 53, 127
14, 27539, Note_on_c, 13, 53, 0
14, 27540, Note_on_c, 13, 50, 127
14, 27599, Note_on_c, 13, 50, 0
14, 27600, Note_on_c, 13, 49, 127
14, 27659, Note_on_c, 13, 49, 0
14, 27660, Note_on_c, 13, 50, 127
14, 27719, Note_on_c, 13, 50, 0
14, 27720, Note_on_c, 13, 52, 127
14, 27779, Note_on_c, 13, 52, 0
14, 27780, Note_on_c, 13, 50, 127
14, 27839, Note_on_c, 13, 50, 0
14, 27840, Note_on_c, 13, 52, 127
14, 27899, Note_on_c, 13, 52, 0
14, 27900, Note_on_c, 13, 49, 127
14, 28079, Note_on_c, 13, 49, 0
14, 28080, Note_on_c, 13, 50, 127
14, 28199, Note_on_c, 13, 50, 0
14, 28200, Note_on_c, 13, 52, 127
14, 28259, Note_on_c, 13, 52, 0
14, 28260, Note_on_c, 13, 53, 127
14, 28319, Note_on_c, 13, 53, 0
14, 28320, Note_on_c, 13, 47, 127
14, 28379, Note_on_c, 13, 47, 0
14, 28380, Note_on_c, 13, 48, 127
14, 28439, Note_on_c, 13, 48, 0
14, 28440, Note_on_c, 13, 50, 127
14, 28499, Note_on_c, 13, 50, 0
14, 28500, Note_on_c, 13, 52, 127
14, 28619, Note_on_c, 13, 52, 0
14, 28620, Note_on_c, 13, 45, 127
14, 28739, Note_on_c, 13, 45, 0
14, 28800, Note_on_c, 13, 53, 127
14, 28919, Note_on_c, 13, 53, 0
14, 28920, Note_on_c, 13, 53, 127
14, 28979, Note_on_c, 13, 53, 0
14, 28980, Note_on_c, 13, 53, 127
14, 29039, Note_on_c, 13, 53, 0
14, 29040, Note_on_c, 13, 52, 127
14, 29099, Note_on_c, 13, 52, 0
14, 29100, Note_on_c, 13, 53, 127
14, 29159, Note_on_c, 13, 53, 0
14, 29520, Note_on_c, 13, 51, 127
14, 29579, Note_on_c, 13, 51, 0
14, 29580, Note_on_c, 13, 50, 127
14, 29639, Note_on_c, 13, 50, 0
14, 29640, Note_on_c, 13, 48, 127
14, 29699, Note_on_c, 13, 48, 0
14, 29700, Note_on_c, 13, 46, 127
14, 29729, Note_on_c, 13, 46, 0
14, 29760, Note_on_c, 13, 53, 127
14, 29789, Note_on_c, 13, 53, 0
14, 30240, Note_on_c, 13, 58, 127
14, 30299, Note_on_c, 13, 58, 0
14, 30300, Note_on_c, 13, 55, 127
14, 30359, Note_on_c, 13, 55, 0
14, 30360, Note_on_c, 13, 60, 127
14, 30419, Note_on_c, 13, 60, 0
14, 30420, Note_on_c, 13, 57, 127
14, 30479, Note_on_c, 13, 57, 0
14, 30480, Note_on_c, 13, 58, 127
14, 30539, Note_on_c, 13, 58, 0
14, 30540, Note_on_c, 13, 60, 127
14, 30599, Note_on_c, 13, 60, 0
14, 30600, Note_on_c, 13, 53, 127
14, 30659, Note_on_c, 13, 53, 0
14, 30660, Note_on_c, 13, 58, 127
14, 30719, Note_on_c, 13, 58, 0
14, 30720, Note_on_c, 13, 55, 127
14, 30779, Note_on_c, 13, 55, 0
14, 30780, Note_on_c, 13, 60, 127
14, 30899, Note_on_c, 13, 60, 0
14, 31320, Note_on_c, 13, 57, 127
14, 31379, Note_on_c, 13, 57, 0
14, 31380, Note_on_c, 13, 58, 127
14, 31439, Note_on_c, 13, 58, 0
14, 31440, Note_on_c, 13, 60, 127
14, 31499, Note_on_c, 13, 60, 0
14, 31500, Note_on_c, 13, 60, 127
14, 31559, Note_on_c, 13, 60, 0
14, 31560, Note_on_c, 13, 58, 127
14, 31619, Note_on_c, 13, 58, 0
14, 31620, Note_on_c, 13, 57, 127
14, 31679, Note_on_c, 13, 57, 0
14, 31680, Note_on_c, 13, 55, 127
14, 31739, Note_on_c, 13, 55, 0
14, 31740, Note_on_c, 13, 57, 127
14, 31799, Note_on_c, 13, 57, 0
14, 31800, Note_on_c, 13, 58, 127
14, 31919, Note_on_c, 13, 58, 0
14, 31920, Note_on_c, 13, 57, 127
14, 31979, Note_on_c, 13, 57, 0
14, 31980, Note_on_c, 13, 55, 127
14, 32039, Note_on_c, 13, 55, 0
14, 32040, Note_on_c, 13, 53, 127
14, 32099, Note_on_c, 13, 53, 0
14, 32100, Note_on_c, 13, 55, 127
14, 32159, Note_on_c, 13, 55, 0
14, 32160, Note_on_c, 13, 57, 127
14, 32219, Note_on_c, 13, 57, 0
14, 32220, Note_on_c, 13, 57, 127
14, 32279, Note_on_c, 13, 57, 0
14, 32280, Note_on_c, 13, 55, 127
14, 32339, Note_on_c, 13, 55, 0
14, 32340, Note_on_c, 13, 53, 127
14, 32399, Note_on_c, 13, 53, 0
14, 32400, Note_on_c, 13, 52, 127
14, 32459, Note_on_c, 13, 52, 0
14, 32460, Note_on_c, 13, 50, 127
14, 32519, Note_on_c, 13, 50, 0
14, 32520, Note_on_c, 13, 48, 127
14, 32579, Note_on_c, 13, 48, 0
14, 32580, Note_on_c, 13, 58, 127
14, 32699, Note_on_c, 13, 58, 0
14, 32700, Note_on_c, 13, 58, 127
14, 32759, Note_on_c, 13, 58, 0
14, 32760, Note_on_c, 13, 57, 127
14, 32819, Note_on_c, 13, 57, 0
14, 32820, Note_on_c, 13, 55, 127
14, 32879, Note_on_c, 13, 55, 0
14, 32880, Note_on_c, 13, 53, 127
14, 32939, Note_on_c, 13, 53, 0
14, 32940, Note_on_c, 13, 58, 127
14, 32969, Note_on_c, 13, 58, 0
14, 33000, Note_on_c, 13, 46, 127
14, 33029, Note_on_c, 13, 46, 0
14, 33120, Note_on_c, 13, 54, 127
14, 33239, Note_on_c, 13, 54, 0
14, 33240, Note_on_c, 13, 50, 127
14, 33299, Note_on_c, 13, 50, 0
14, 33300, Note_on_c, 13, 55, 127
14, 33419, Note_on_c, 13, 55, 0
14, 33420, Note_on_c, 13, 53, 127
14, 33479, Note_on_c, 13, 53, 0
14, 33480, Note_on_c, 13, 52, 127
14, 33599, Note_on_c, 13, 52, 0
14, 33600, Note_on_c, 13, 48, 127
14, 33659, Note_on_c, 13, 48, 0
14, 33660, Note_on_c, 13, 53, 127
14, 33779, Note_on_c, 13, 53, 0
14, 33840, Note_on_c, 13, 55, 127
14, 33959, Note_on_c, 13, 55, 0
14, 33960, Note_on_c, 13, 57, 127
14, 34019, Note_on_c, 13, 57, 0
14, 34020, Note_on_c, 13, 52, 127
14, 34139, Note_on_c, 13, 52, 0
14, 34140, Note_on_c, 13, 53, 127
14, 34199, Note_on_c, 13, 53, 0
14, 34200, Note_on_c, 13, 58, 127
14, 34259, Note_on_c, 13, 58, 0
14, 34260, Note_on_c, 13, 57, 127
14, 34319, Note_on_c, 13, 57, 0
14, 34320, Note_on_c, 13, 55, 127
14, 34379, Note_on_c, 13, 55, 0
14, 34380, Note_on_c, 13, 53, 127
14, 34439, Note_on_c, 13, 53, 0
14, 34440, Note_on_c, 13, 52, 127
14, 34499, Note_on_c, 13, 52, 0
14, 34500, Note_on_c, 13, 53, 127
14, 34559, Note_on_c, 13, 53, 0
14, 34920, Note_on_c, 13, 51, 127
14, 34979, Note_on_c, 13, 51, 0
14, 34980, Note_on_c, 13, 50, 127
14, 35039, Note_on_c, 13, 50, 0
14, 35040, Note_on_c, 13, 48, 127
14, 35099, Note_on_c, 13, 48, 0
14, 35100, Note_on_c, 13, 46, 127
14, 35159, Note_on_c, 13, 46, 0
14, 35160, Note_on_c, 13, 53, 127
14, 35219, Note_on_c, 13, 53, 0
14, 35220, Note_on_c, 13, 58, 127
14, 35279, Note_on_c, 13, 58, 0
14, 35340, Note_on_c, 13, 58, 127
14, 35399, Note_on_c, 13, 58, 0
14, 35400, Note_on_c, 13, 57, 127
14, 35459, Note_on_c, 13, 57, 0
14, 35460, Note_on_c, 13, 55, 127
14, 35489, Note_on_c, 13, 55, 0
14, 35490, Note_on_c, 13, 53, 127
14, 35519, Note_on_c, 13, 53, 0
14, 35520, Note_on_c, 13, 55, 127
14, 35579, Note_on_c, 13, 55, 0
14, 35580, Note_on_c, 13, 52, 127
14, 35639, Note_on_c, 13, 52, 0
14, 35700, Note_on_c, 13, 57, 127
14, 35759, Note_on_c, 13, 57, 0
14, 35760, Note_on_c, 13, 55, 127
14, 35819, Note_on_c, 13, 55, 0
14, 35820, Note_on_c, 13, 54, 127
14, 35849, Note_on_c, 13, 54, 0
14, 35850, Note_on_c, 13, 52, 127
14, 35879, Note_on_c, 13, 52, 0
14, 35880, Note_on_c, 13, 54, 127
14, 35939, Note_on_c, 13, 54, 0
14, 35940, Note_on_c, 13, 50, 127
14, 35999, Note_on_c, 13, 50, 0
14, 36060, Note_on_c, 13, 55, 127
14, 36119, Note_on_c, 13, 55, 0
14, 36120, Note_on_c, 13, 53, 127
14, 36179, Note_on_c, 13, 53, 0
14, 36180, Note_on_c, 13, 52, 127
14, 36209, Note_on_c, 13, 52, 0
14, 36210, Note_on_c, 13, 50, 127
14, 36239, Note_on_c, 13, 50, 0
14, 36240, Note_on_c, 13, 52, 127
14, 36299, Note_on_c, 13, 52, 0
14, 36300, Note_on_c, 13, 48, 127
14, 36359, Note_on_c, 13, 48, 0
14, 36360, Note_on_c, 13, 53, 127
14, 36419, Note_on_c, 13, 53, 0
14, 36420, Note_on_c, 13, 50, 127
14, 36479, Note_on_c, 13, 50, 0
14, 36480, Note_on_c, 13, 46, 127
14, 36539, Note_on_c, 13, 46, 0
14, 36540, Note_on_c, 13, 48, 127
14, 36659, Note_on_c, 13, 48, 0
14, 36720, Note_on_c, 13, 53, 127
14, 36779, Note_on_c, 13, 53, 0
14, 36780, Note_on_c, 13, 52, 127
14, 36839, Note_on_c, 13, 52, 0
14, 36840, Note_on_c, 13, 50, 127
14, 36899, Note_on_c, 13, 50, 0
14, 36900, Note_on_c, 13, 52, 127
14, 36959, Note_on_c, 13, 52, 0
14, 36960, Note_on_c, 13, 45, 127
14, 37019, Note_on_c, 13, 45, 0
14, 37020, Note_on_c, 13, 50, 127
14, 37079, Note_on_c, 13, 50, 0
14, 37080, Note_on_c, 13, 62, 127
14, 37199, Note_on_c, 13, 62, 0
14, 37200, Note_on_c, 13, 60, 127
14, 37259, Note_on_c, 13, 60, 0
14, 37260, Note_on_c, 13, 58, 127
14, 37289, Note_on_c, 13, 58, 0
14, 37320, Note_on_c, 13, 53, 127
14, 37349, Note_on_c, 13, 53, 0
14, 37620, Note_on_c, 13, 46, 127
14, 37739, Note_on_c, 13, 46, 0
14, 37740, Note_on_c, 13, 50, 127
14, 37799, Note_on_c, 13, 50, 0
14, 37800, Note_on_c, 13, 53, 127
14, 37919, Note_on_c, 13, 53, 0
14, 37920, Note_on_c, 13, 41, 127
14, 37979, Note_on_c, 13, 41, 0
14, 38160, Note_on_c, 13, 58, 127
14, 38219, Note_on_c, 13, 58, 0
14, 38220, Note_on_c, 13, 60, 127
14, 38279, Note_on_c, 13, 60, 0
14, 38280, Note_on_c, 13, 62, 127
14, 38339, Note_on_c, 13, 62, 0
14, 38340, Note_on_c, 13, 62, 127
14, 38399, Note_on_c, 13, 62, 0
14, 38400, Note_on_c, 13, 60, 127
14, 38459, Note_on_c, 13, 60, 0
14, 38460, Note_on_c, 13, 58, 127
14, 38519, Note_on_c, 13, 58, 0
14, 38520, Note_on_c, 13, 57, 127
14, 38579, Note_on_c, 13, 57, 0
14, 38580, Note_on_c, 13, 58, 127
14, 38639, Note_on_c, 13, 58, 0
14, 38640, Note_on_c, 13, 60, 127
14, 38759, Note_on_c, 13, 60, 0
14, 38760, Note_on_c, 13, 58, 127
14, 38819, Note_on_c, 13, 58, 0
14, 38820, Note_on_c, 13, 57, 127
14, 38879, Note_on_c, 13, 57, 0
14, 38880, Note_on_c, 13, 58, 127
14, 38999, Note_on_c, 13, 58, 0
14, 39000, Note_on_c, 13, 58, 127
14, 39059, Note_on_c, 13, 58, 0
14, 39060, Note_on_c, 13, 58, 127
14, 39119, Note_on_c, 13, 58, 0
14, 39120, Note_on_c, 13, 57, 127
14, 39179, Note_on_c, 13, 57, 0
14, 39180, Note_on_c, 13, 55, 127
14, 39239, Note_on_c, 13, 55, 0
14, 39240, Note_on_c, 13, 55, 127
14, 39359, Note_on_c, 13, 55, 0
14, 39360, Note_on_c, 13, 53, 127
14, 39419, Note_on_c, 13, 53, 0
14, 39420, Note_on_c, 13, 52, 127
14, 39449, Note_on_c, 13, 52, 0
14, 39480, Note_on_c, 13, 60, 127
14, 39509, Note_on_c, 13, 60, 0
14, 39600, Note_on_c, 13, 53, 127
14, 39659, Note_on_c, 13, 53, 0
14, 39660, Note_on_c, 13, 58, 127
14, 39719, Note_on_c, 13, 58, 0
14, 39720, Note_on_c, 13, 57, 127
14, 39779, Note_on_c, 13, 57, 0
14, 39780, Note_on_c, 13, 55, 127
14, 39839, Note_on_c, 13, 55, 0
14, 39840, Note_on_c, 13, 57, 127
14, 39899, Note_on_c, 13, 57, 0
14, 39900, Note_on_c, 13, 50, 127
14, 39959, Note_on_c, 13, 50, 0
14, 39960, Note_on_c, 13, 46, 127
14, 40019, Note_on_c, 13, 46, 0
14, 40020, Note_on_c, 13, 48, 127
14, 40139, Note_on_c, 13, 48, 0
14, 40140, Note_on_c, 13, 53, 127
14, 40259, Note_on_c, 13, 53, 0
14, 46800, Control_c, 13, 0, 20
14, 46800, Program_c, 13, 67
14, 46800, Note_on_c, 13, 62, 127
14, 46859, Note_on_c, 13, 62, 0
14, 46860, Note_on_c, 13, 62, 127
14, 46919, Note_on_c, 13, 62, 0
14, 46920, Note_on_c, 13, 58, 127
14, 46979, Note_on_c, 13, 58, 0
14, 46980, Note_on_c, 13, 57, 127
14, 47009, Note_on_c, 13, 57, 0
14, 47010, Note_on_c, 13, 55, 127
14, 47039, Note_on_c, 13, 55, 0
14, 47070, Note_on_c, 13, 55, 127
14, 47099, Note_on_c, 13, 55, 0
14, 47100, Note_on_c, 13, 58, 127
14, 47159, Note_on_c, 13, 58, 0
14, 47160, Note_on_c, 13, 57, 127
14, 47219, Note_on_c, 13, 57, 0
14, 47220, Note_on_c, 13, 55, 127
14, 47279, Note_on_c, 13, 55, 0
14, 47280, Note_on_c, 13, 53, 127
14, 47339, Note_on_c, 13, 53, 0
14, 47400, Note_on_c, 13, 57, 127
14, 47459, Note_on_c, 13, 57, 0
14, 47460, Note_on_c, 13, 53, 127
14, 47519, Note_on_c, 13, 53, 0
14, 47520, Note_on_c, 13, 53, 127
14, 47579, Note_on_c, 13, 53, 0
14, 47580, Note_on_c, 13, 52, 127
14, 47639, Note_on_c, 13, 52, 0
14, 47640, Note_on_c, 13, 50, 127
14, 47699, Note_on_c, 13, 50, 0
14, 47700, Note_on_c, 13, 59, 127
14, 47819, Note_on_c, 13, 59, 0
14, 47880, Note_on_c, 13, 59, 127
14, 47939, Note_on_c, 13, 59, 0
14, 47940, Note_on_c, 13, 62, 127
14, 47999, Note_on_c, 13, 62, 0
14, 48000, Note_on_c, 13, 59, 127
14, 48059, Note_on_c, 13, 59, 0
14, 48060, Note_on_c, 13, 55, 127
14, 48119, Note_on_c, 13, 55, 0
14, 48120, Note_on_c, 13, 59, 127
14, 48179, Note_on_c, 13, 59, 0
14, 48180, Note_on_c, 13, 60, 127
14, 48239, Note_on_c, 13, 60, 0
14, 48240, Note_on_c, 13, 60, 127
14, 48299, Note_on_c, 13, 60, 0
14, 48360, Note_on_c, 13, 60, 127
14, 48419, Note_on_c, 13, 60, 0
14, 48420, Note_on_c, 13, 60, 127
14, 48479, Note_on_c, 13, 60, 0
14, 48480, Note_on_c, 13, 55, 127
14, 48539, Note_on_c, 13, 55, 0
14, 48540, Note_on_c, 13, 52, 127
14, 48569, Note_on_c, 13, 52, 0
14, 48570, Note_on_c, 13, 52, 127
14, 48599, Note_on_c, 13, 52, 0
14, 48600, Note_on_c, 13, 55, 127
14, 48629, Note_on_c, 13, 55, 0
14, 48630, Note_on_c, 13, 52, 127
14, 48659, Note_on_c, 13, 52, 0
14, 48660, Note_on_c, 13, 48, 127
14, 48719, Note_on_c, 13, 48, 0
14, 48720, Note_on_c, 13, 48, 127
14, 48779, Note_on_c, 13, 48, 0
14, 48840, Note_on_c, 13, 45, 127
14, 48899, Note_on_c, 13, 45, 0
14, 48900, Note_on_c, 13, 54, 127
14, 48959, Note_on_c, 13, 54, 0
14, 48960, Note_on_c, 13, 54, 127
14, 49019, Note_on_c, 13, 54, 0
14, 49020, Note_on_c, 13, 54, 127
14, 49079, Note_on_c, 13, 54, 0
14, 49080, Note_on_c, 13, 55, 127
14, 49139, Note_on_c, 13, 55, 0
14, 49140, Note_on_c, 13, 57, 127
14, 49229, Note_on_c, 13, 57, 0
14, 49230, Note_on_c, 13, 58, 127
14, 49259, Note_on_c, 13, 58, 0
14, 49260, Note_on_c, 13, 60, 127
14, 49319, Note_on_c, 13, 60, 0
14, 49320, Note_on_c, 13, 57, 127
14, 49379, Note_on_c, 13, 57, 0
14, 49380, Note_on_c, 13, 54, 127
14, 49439, Note_on_c, 13, 54, 0
14, 49440, Note_on_c, 13, 54, 127
14, 49499, Note_on_c, 13, 54, 0
14, 49500, Note_on_c, 13, 63, 127
14, 49559, Note_on_c, 13, 63, 0
14, 49560, Note_on_c, 13, 62, 127
14, 49619, Note_on_c, 13, 62, 0
14, 49620, Note_on_c, 13, 58, 127
14, 49679, Note_on_c, 13, 58, 0
14, 49680, Note_on_c, 13, 58, 127
14, 49739, Note_on_c, 13, 58, 0
14, 49920, Note_on_c, 13, 62, 127
14, 49979, Note_on_c, 13, 62, 0
14, 49980, Note_on_c, 13, 62, 127
14, 50039, Note_on_c, 13, 62, 0
14, 50040, Note_on_c, 13, 58, 127
14, 50099, Note_on_c, 13, 58, 0
14, 50100, Note_on_c, 13, 55, 127
14, 50159, Note_on_c, 13, 55, 0
14, 50160, Note_on_c, 13, 55, 127
14, 50219, Note_on_c, 13, 55, 0
14, 50220, Note_on_c, 13, 57, 127
14, 50279, Note_on_c, 13, 57, 0
14, 50280, Note_on_c, 13, 58, 127
14, 50339, Note_on_c, 13, 58, 0
14, 50340, Note_on_c, 13, 60, 127
14, 50399, Note_on_c, 13, 60, 0
14, 50430, Note_on_c, 13, 48, 127
14, 50459, Note_on_c, 13, 48, 0
14, 50460, Note_on_c, 13, 51, 127
14, 50519, Note_on_c, 13, 51, 0
14, 50520, Note_on_c, 13, 50, 127
14, 50579, Note_on_c, 13, 50, 0
14, 50580, Note_on_c, 13, 50, 127
14, 50639, Note_on_c, 13, 50, 0
14, 50640, Note_on_c, 13, 53, 127
14, 50699, Note_on_c, 13, 53, 0
14, 50700, Note_on_c, 13, 58, 127
14, 50759, Note_on_c, 13, 58, 0
14, 50760, Note_on_c, 13, 57, 127
14, 50819, Note_on_c, 13, 57, 0
14, 50820, Note_on_c, 13, 55, 127
14, 50879, Note_on_c, 13, 55, 0
14, 50880, Note_on_c, 13, 53, 127
14, 50939, Note_on_c, 13, 53, 0
14, 51180, Note_on_c, 13, 57, 127
14, 51299, Note_on_c, 13, 57, 0
14, 51360, Note_on_c, 13, 60, 127
14, 51419, Note_on_c, 13, 60, 0
14, 51420, Note_on_c, 13, 58, 127
14, 51449, Note_on_c, 13, 58, 0
14, 51450, Note_on_c, 13, 57, 127
14, 51479, Note_on_c, 13, 57, 0
14, 51480, Note_on_c, 13, 55, 127
14, 51509, Note_on_c, 13, 55, 0
14, 51510, Note_on_c, 13, 53, 127
14, 51539, Note_on_c, 13, 53, 0
14, 51540, Note_on_c, 13, 58, 127
14, 51599, Note_on_c, 13, 58, 0
14, 51600, Note_on_c, 13, 58, 127
14, 51659, Note_on_c, 13, 58, 0
14, 51660, Note_on_c, 13, 58, 127
14, 51719, Note_on_c, 13, 58, 0
14, 51720, Note_on_c, 13, 57, 127
14, 51779, Note_on_c, 13, 57, 0
14, 51840, Note_on_c, 13, 48, 127
14, 51899, Note_on_c, 13, 48, 0
14, 51900, Note_on_c, 13, 53, 127
14, 51959, Note_on_c, 13, 53, 0
14, 51960, Note_on_c, 13, 57, 127
14, 52019, Note_on_c, 13, 57, 0
14, 52020, Note_on_c, 13, 50, 127
14, 52079, Note_on_c, 13, 50, 0
14, 52080, Note_on_c, 13, 50, 127
14, 52139, Note_on_c, 13, 50, 0
14, 52140, Note_on_c, 13, 52, 127
14, 52199, Note_on_c, 13, 52, 0
14, 52200, Note_on_c, 13, 53, 127
14, 52259, Note_on_c, 13, 53, 0
14, 52260, Note_on_c, 13, 53, 127
14, 52319, Note_on_c, 13, 53, 0
14, 52320, Note_on_c, 13, 48, 127
14, 52379, Note_on_c, 13, 48, 0
14, 52860, Note_on_c, 13, 58, 127
14, 52979, Note_on_c, 13, 58, 0
14, 53040, Note_on_c, 13, 57, 127
14, 53099, Note_on_c, 13, 57, 0
14, 53100, Note_on_c, 13, 55, 127
14, 53159, Note_on_c, 13, 55, 0
14, 53160, Note_on_c, 13, 57, 127
14, 53189, Note_on_c, 13, 57, 0
14, 53190, Note_on_c, 13, 53, 127
14, 53219, Note_on_c, 13, 53, 0
14, 53220, Note_on_c, 13, 62, 127
14, 53279, Note_on_c, 13, 62, 0
14, 53280, Note_on_c, 13, 55, 127
14, 53339, Note_on_c, 13, 55, 0
14, 53340, Note_on_c, 13, 57, 127
14, 53359, Note_on_c, 13, 57, 0
14, 53360, Note_on_c, 13, 58, 127
14, 53379, Note_on_c, 13, 58, 0
14, 53380, Note_on_c, 13, 60, 127
14, 53399, Note_on_c, 13, 60, 0
14, 53400, Note_on_c, 13, 58, 127
14, 53429, Note_on_c, 13, 58, 0
14, 53430, Note_on_c, 13, 57, 127
14, 53459, Note_on_c, 13, 57, 0
14, 53460, Note_on_c, 13, 55, 127
14, 53579, Note_on_c, 13, 55, 0
14, 53760, Note_on_c, 13, 60, 127
14, 53819, Note_on_c, 13, 60, 0
14, 53820, Note_on_c, 13, 57, 127
14, 53879, Note_on_c, 13, 57, 0
14, 53880, Note_on_c, 13, 55, 127
14, 53909, Note_on_c, 13, 55, 0
14, 53910, Note_on_c, 13, 53, 127
14, 53939, Note_on_c, 13, 53, 0
14, 53940, Note_on_c, 13, 52, 127
14, 53999, Note_on_c, 13, 52, 0
14, 54000, Note_on_c, 13, 48, 127
14, 54059, Note_on_c, 13, 48, 0
14, 54060, Note_on_c, 13, 58, 127
14, 54089, Note_on_c, 13, 58, 0
14, 54090, Note_on_c, 13, 57, 127
14, 54119, Note_on_c, 13, 57, 0
14, 54120, Note_on_c, 13, 58, 127
14, 54179, Note_on_c, 13, 58, 0
14, 54240, Note_on_c, 13, 57, 127
14, 54299, Note_on_c, 13, 57, 0
14, 54300, Note_on_c, 13, 59, 127
14, 54359, Note_on_c, 13, 59, 0
14, 54360, Note_on_c, 13, 60, 127
14, 54419, Note_on_c, 13, 60, 0
14, 54420, Note_on_c, 13, 60, 127
14, 54479, Note_on_c, 13, 60, 0
14, 54480, Note_on_c, 13, 55, 127
14, 54539, Note_on_c, 13, 55, 0
14, 54720, Note_on_c, 13, 55, 127
14, 54779, Note_on_c, 13, 55, 0
14, 54780, Note_on_c, 13, 55, 127
14, 54839, Note_on_c, 13, 55, 0
14, 54840, Note_on_c, 13, 52, 127
14, 54899, Note_on_c, 13, 52, 0
14, 54900, Note_on_c, 13, 50, 127
14, 54959, Note_on_c, 13, 50, 0
14, 54960, Note_on_c, 13, 49, 127
14, 55019, Note_on_c, 13, 49, 0
14, 55020, Note_on_c, 13, 49, 127
14, 55139, Note_on_c, 13, 49, 0
14, 55200, Note_on_c, 13, 49, 127
14, 55229, Note_on_c, 13, 49, 0
14, 55230, Note_on_c, 13, 50, 127
14, 55259, Note_on_c, 13, 50, 0
14, 55260, Note_on_c, 13, 52, 127
14, 55319, Note_on_c, 13, 52, 0
14, 55320, Note_on_c, 13, 53, 127
14, 55379, Note_on_c, 13, 53, 0
14, 55380, Note_on_c, 13, 55, 127
14, 55439, Note_on_c, 13, 55, 0
14, 55440, Note_on_c, 13, 55, 127
14, 55499, Note_on_c, 13, 55, 0
14, 55500, Note_on_c, 13, 55, 127
14, 55514, Note_on_c, 13, 55, 0
14, 55515, Note_on_c, 13, 57, 127
14, 55529, Note_on_c, 13, 57, 0
14, 55530, Note_on_c, 13, 58, 127
14, 55559, Note_on_c, 13, 58, 0
14, 55560, Note_on_c, 13, 57, 127
14, 55619, Note_on_c, 13, 57, 0
14, 55620, Note_on_c, 13, 55, 127
14, 55679, Note_on_c, 13, 55, 0
14, 55680, Note_on_c, 13, 53, 127
14, 55739, Note_on_c, 13, 53, 0
14, 55800, Note_on_c, 13, 57, 127
14, 55859, Note_on_c, 13, 57, 0
14, 55860, Note_on_c, 13, 62, 127
14, 55979, Note_on_c, 13, 62, 0
14, 56040, Note_on_c, 13, 59, 127
14, 56099, Note_on_c, 13, 59, 0
14, 56100, Note_on_c, 13, 56, 127
14, 56219, Note_on_c, 13, 56, 0
14, 56280, Note_on_c, 13, 59, 127
14, 56339, Note_on_c, 13, 59, 0
14, 56340, Note_on_c, 13, 59, 127
14, 56369, Note_on_c, 13, 59, 0
14, 56370, Note_on_c, 13, 50, 127
14, 56399, Note_on_c, 13, 50, 0
14, 56400, Note_on_c, 13, 50, 127
14, 56459, Note_on_c, 13, 50, 0
14, 56520, Note_on_c, 13, 52, 127
14, 56579, Note_on_c, 13, 52, 0
14, 56580, Note_on_c, 13, 56, 127
14, 56639, Note_on_c, 13, 56, 0
14, 56640, Note_on_c, 13, 59, 127
14, 56699, Note_on_c, 13, 59, 0
14, 56700, Note_on_c, 13, 62, 127
14, 56759, Note_on_c, 13, 62, 0
14, 56760, Note_on_c, 13, 60, 127
14, 56819, Note_on_c, 13, 60, 0
14, 56820, Note_on_c, 13, 60, 127
14, 56939, Note_on_c, 13, 60, 0
14, 56970, Note_on_c, 13, 57, 127
14, 56999, Note_on_c, 13, 57, 0
14, 57000, Note_on_c, 13, 60, 127
14, 57029, Note_on_c, 13, 60, 0
14, 57030, Note_on_c, 13, 57, 127
14, 57059, Note_on_c, 13, 57, 0
14, 57060, Note_on_c, 13, 54, 127
14, 57119, Note_on_c, 13, 54, 0
14, 57120, Note_on_c, 13, 57, 127
14, 57179, Note_on_c, 13, 57, 0
14, 57180, Note_on_c, 13, 60, 127
14, 57239, Note_on_c, 13, 60, 0
14, 57240, Note_on_c, 13, 62, 127
14, 57299, Note_on_c, 13, 62, 0
14, 57300, Note_on_c, 13, 63, 127
14, 57359, Note_on_c, 13, 63, 0
14, 57360, Note_on_c, 13, 55, 127
14, 57419, Note_on_c, 13, 55, 0
14, 57420, Note_on_c, 13, 57, 127
14, 57434, Note_on_c, 13, 57, 0
14, 57435, Note_on_c, 13, 55, 127
14, 57449, Note_on_c, 13, 55, 0
14, 57450, Note_on_c, 13, 54, 127
14, 57479, Note_on_c, 13, 54, 0
14, 57480, Note_on_c, 13, 55, 127
14, 57539, Note_on_c, 13, 55, 0
14, 57540, Note_on_c, 13, 57, 127
14, 57659, Note_on_c, 13, 57, 0
14, 57720, Note_on_c, 13, 62, 127
14, 57779, Note_on_c, 13, 62, 0
14, 57780, Note_on_c, 13, 62, 127
14, 57839, Note_on_c, 13, 62, 0
14, 57840, Note_on_c, 13, 53, 127
14, 57899, Note_on_c, 13, 53, 0
14, 57960, Note_on_c, 13, 53, 127
14, 57989, Note_on_c, 13, 53, 0
14, 57990, Note_on_c, 13, 55, 127
14, 58019, Note_on_c, 13, 55, 0
14, 58020, Note_on_c, 13, 56, 127
14, 58079, Note_on_c, 13, 56, 0
14, 58080, Note_on_c, 13, 56, 127
14, 58139, Note_on_c, 13, 56, 0
14, 58200, Note_on_c, 13, 53, 127
14, 58259, Note_on_c, 13, 53, 0
14, 58260, Note_on_c, 13, 50, 127
14, 58319, Note_on_c, 13, 50, 0
14, 58320, Note_on_c, 13, 50, 127
14, 58379, Note_on_c, 13, 50, 0
14, 58380, Note_on_c, 13, 55, 127
14, 58409, Note_on_c, 13, 55, 0
14, 58410, Note_on_c, 13, 50, 127
14, 58439, Note_on_c, 13, 50, 0
14, 58440, Note_on_c, 13, 53, 127
14, 58469, Note_on_c, 13, 53, 0
14, 58470, Note_on_c, 13, 51, 127
14, 58499, Note_on_c, 13, 51, 0
14, 58500, Note_on_c, 13, 51, 127
14, 58559, Note_on_c, 13, 51, 0
14, 58560, Note_on_c, 13, 51, 127
14, 58619, Note_on_c, 13, 51, 0
14, 58680, Note_on_c, 13, 55, 127
14, 58739, Note_on_c, 13, 55, 0
14, 58740, Note_on_c, 13, 60, 127
14, 58799, Note_on_c, 13, 60, 0
14, 58800, Note_on_c, 13, 60, 127
14, 58859, Note_on_c, 13, 60, 0
14, 58860, Note_on_c, 13, 54, 127
14, 58889, Note_on_c, 13, 54, 0
14, 58890, Note_on_c, 13, 54, 127
14, 58919, Note_on_c, 13, 54, 0
14, 58920, Note_on_c, 13, 55, 127
14, 58949, Note_on_c, 13, 55, 0
14, 58950, Note_on_c, 13, 57, 127
14, 58979, Note_on_c, 13, 57, 0
14, 58980, Note_on_c, 13, 50, 127
14, 59039, Note_on_c, 13, 50, 0
14, 59040, Note_on_c, 13, 50, 127
14, 59099, Note_on_c, 13, 50, 0
14, 59160, Note_on_c, 13, 50, 127
14, 59219, Note_on_c, 13, 50, 0
14, 59220, Note_on_c, 13, 57, 127
14, 59279, Note_on_c, 13, 57, 0
14, 59280, Note_on_c, 13, 57, 127
14, 59339, Note_on_c, 13, 57, 0
14, 59340, Note_on_c, 13, 63, 127
14, 59399, Note_on_c, 13, 63, 0
14, 59400, Note_on_c, 13, 62, 127
14, 59459, Note_on_c, 13, 62, 0
14, 59460, Note_on_c, 13, 60, 127
14, 59519, Note_on_c, 13, 60, 0
14, 59520, Note_on_c, 13, 59, 127
14, 59579, Note_on_c, 13, 59, 0
14, 59640, Note_on_c, 13, 60, 127
14, 59699, Note_on_c, 13, 60, 0
14, 59700, Note_on_c, 13, 60, 127
14, 59759, Note_on_c, 13, 60, 0
14, 59760, Note_on_c, 13, 55, 127
14, 59819, Note_on_c, 13, 55, 0
14, 109980, Control_c, 13, 0, 20
14, 109980, Program_c, 13, 67
14, 110040, Note_on_c, 13, 55, 127
14, 110099, Note_on_c, 13, 55, 0
14, 110100, Note_on_c, 13, 62, 127
14, 110159, Note_on_c, 13, 62, 0
14, 110190, Note_on_c, 13, 62, 127
14, 110219, Note_on_c, 13, 62, 0
14, 110220, Note_on_c, 13, 62, 127
14, 110279, Note_on_c, 13, 62, 0
14, 110280, Note_on_c, 13, 53, 127
14, 110339, Note_on_c, 13, 53, 0
14, 110340, Note_on_c, 13, 57, 127
14, 110399, Note_on_c, 13, 57, 0
14, 110400, Note_on_c, 13, 55, 127
14, 110459, Note_on_c, 13, 55, 0
14, 110460, Note_on_c, 13, 52, 127
14, 110579, Note_on_c, 13, 52, 0
14, 110640, Note_on_c, 13, 52, 127
14, 110699, Note_on_c, 13, 52, 0
14, 110700, Note_on_c, 13, 52, 127
14, 110759, Note_on_c, 13, 52, 0
14, 110760, Note_on_c, 13, 50, 127
14, 110819, Note_on_c, 13, 50, 0
14, 110820, Note_on_c, 13, 62, 127
14, 110849, Note_on_c, 13, 62, 0
14, 110850, Note_on_c, 13, 61, 127
14, 110909, Note_on_c, 13, 61, 0
14, 110910, Note_on_c, 13, 62, 127
14, 110939, Note_on_c, 13, 62, 0
14, 110940, Note_on_c, 13, 62, 127
14, 111059, Note_on_c, 13, 62, 0
14, 111120, Note_on_c, 13, 60, 127
14, 111179, Note_on_c, 13, 60, 0
14, 111180, Note_on_c, 13, 60, 127
14, 111239, Note_on_c, 13, 60, 0
14, 111240, Note_on_c, 13, 59, 127
14, 111299, Note_on_c, 13, 59, 0
14, 111360, Note_on_c, 13, 62, 127
14, 111419, Note_on_c, 13, 62, 0
14, 111420, Note_on_c, 13, 62, 127
14, 111479, Note_on_c, 13, 62, 0
14, 111480, Note_on_c, 13, 59, 127
14, 111539, Note_on_c, 13, 59, 0
14, 111540, Note_on_c, 13, 56, 127
14, 111659, Note_on_c, 13, 56, 0
14, 111780, Note_on_c, 13, 52, 127
14, 111839, Note_on_c, 13, 52, 0
14, 111840, Note_on_c, 13, 57, 127
14, 111899, Note_on_c, 13, 57, 0
14, 111900, Note_on_c, 13, 53, 127
14, 111959, Note_on_c, 13, 53, 0
14, 111960, Note_on_c, 13, 52, 127
14, 112019, Note_on_c, 13, 52, 0
14, 112020, Note_on_c, 13, 50, 127
14, 112079, Note_on_c, 13, 50, 0
14, 112080, Note_on_c, 13, 48, 127
14, 112139, Note_on_c, 13, 48, 0
14, 112140, Note_on_c, 13, 47, 127
14, 112199, Note_on_c, 13, 47, 0
14, 112200, Note_on_c, 13, 45, 127
14, 112259, Note_on_c, 13, 45, 0
14, 112320, Note_on_c, 13, 57, 127
14, 112379, Note_on_c, 13, 57, 0
14, 112380, Note_on_c, 13, 54, 127
14, 112439, Note_on_c, 13, 54, 0
14, 112470, Note_on_c, 13, 50, 127
14, 112499, Note_on_c, 13, 50, 0
14, 112500, Note_on_c, 13, 57, 127
14, 112559, Note_on_c, 13, 57, 0
14, 112560, Note_on_c, 13, 58, 127
14, 112619, Note_on_c, 13, 58, 0
14, 112620, Note_on_c, 13, 60, 127
14, 112679, Note_on_c, 13, 60, 0
14, 112680, Note_on_c, 13, 60, 127
14, 112739, Note_on_c, 13, 60, 0
14, 112740, Note_on_c, 13, 63, 127
14, 112799, Note_on_c, 13, 63, 0
14, 112800, Note_on_c, 13, 62, 127
14, 112859, Note_on_c, 13, 62, 0
14, 112860, Note_on_c, 13, 62, 127
14, 112919, Note_on_c, 13, 62, 0
14, 112920, Note_on_c, 13, 62, 127
14, 112949, Note_on_c, 13, 62, 0
14, 112950, Note_on_c, 13, 57, 127
14, 112979, Note_on_c, 13, 57, 0
14, 112980, Note_on_c, 13, 58, 127
14, 113039, Note_on_c, 13, 58, 0
14, 113040, Note_on_c, 13, 55, 127
14, 113099, Note_on_c, 13, 55, 0
14, 113100, Note_on_c, 13, 57, 127
14, 113159, Note_on_c, 13, 57, 0
14, 113160, Note_on_c, 13, 50, 127
14, 113219, Note_on_c, 13, 50, 0
14, 113220, Note_on_c, 13, 55, 127
14, 113279, Note_on_c, 13, 55, 0
14, 113400, Note_on_c, 13, 60, 127
14, 113459, Note_on_c, 13, 60, 0
14, 113460, Note_on_c, 13, 54, 127
14, 113519, Note_on_c, 13, 54, 0
14, 113520, Note_on_c, 13, 55, 127
14, 113579, Note_on_c, 13, 55, 0
14, 113580, Note_on_c, 13, 55, 127
14, 113639, Note_on_c, 13, 55, 0
14, 113640, Note_on_c, 13, 50, 127
14, 113699, Note_on_c, 13, 50, 0
14, 113760, Note_on_c, 13, 62, 127
14, 113819, Note_on_c, 13, 62, 0
14, 113820, Note_on_c, 13, 60, 127
14, 113849, Note_on_c, 13, 60, 0
14, 113850, Note_on_c, 13, 59, 127
14, 113879, Note_on_c, 13, 59, 0
14, 113880, Note_on_c, 13, 59, 127
14, 113939, Note_on_c, 13, 59, 0
14, 114000, Note_on_c, 13, 62, 127
14, 114029, Note_on_c, 13, 62, 0
14, 114030, Note_on_c, 13, 53, 127
14, 114059, Note_on_c, 13, 53, 0
14, 114060, Note_on_c, 13, 53, 127
14, 114119, Note_on_c, 13, 53, 0
14, 114150, Note_on_c, 13, 53, 127
14, 114179, Note_on_c, 13, 53, 0
14, 114180, Note_on_c, 13, 57, 127
14, 114239, Note_on_c, 13, 57, 0
14, 114240, Note_on_c, 13, 55, 127
14, 114299, Note_on_c, 13, 55, 0
14, 114300, Note_on_c, 13, 53, 127
14, 114359, Note_on_c, 13, 53, 0
14, 114360, Note_on_c, 13, 52, 127
14, 114419, Note_on_c, 13, 52, 0
14, 114480, Note_on_c, 13, 55, 127
14, 114539, Note_on_c, 13, 55, 0
14, 114540, Note_on_c, 13, 60, 127
14, 114599, Note_on_c, 13, 60, 0
14, 114600, Note_on_c, 13, 57, 127
14, 114659, Note_on_c, 13, 57, 0
14, 114660, Note_on_c, 13, 53, 127
14, 114779, Note_on_c, 13, 53, 0
14, 114840, Note_on_c, 13, 62, 127
14, 114959, Note_on_c, 13, 62, 0
14, 114960, Note_on_c, 13, 58, 127
14, 115019, Note_on_c, 13, 58, 0
14, 115020, Note_on_c, 13, 55, 127
14, 115139, Note_on_c, 13, 55, 0
14, 115200, Note_on_c, 13, 48, 127
14, 115259, Note_on_c, 13, 48, 0
14, 115260, Note_on_c, 13, 55, 127
14, 115319, Note_on_c, 13, 55, 0
14, 115320, Note_on_c, 13, 57, 127
14, 115379, Note_on_c, 13, 57, 0
14, 115380, Note_on_c, 13, 58, 127
14, 115439, Note_on_c, 13, 58, 0
14, 115500, Note_on_c, 13, 62, 127
14, 115559, Note_on_c, 13, 62, 0
14, 115590, Note_on_c, 13, 55, 127
14, 115619, Note_on_c, 13, 55, 0
14, 115620, Note_on_c, 13, 58, 127
14, 115679, Note_on_c, 13, 58, 0
14, 115680, Note_on_c, 13, 57, 127
14, 115739, Note_on_c, 13, 57, 0
14, 115740, Note_on_c, 13, 57, 127
14, 115799, Note_on_c, 13, 57, 0
14, 115860, Note_on_c, 13, 60, 127
14, 115919, Note_on_c, 13, 60, 0
14, 116040, Note_on_c, 13, 58, 127
14, 116099, Note_on_c, 13, 58, 0
14, 116100, Note_on_c, 13, 57, 127
14, 116159, Note_on_c, 13, 57, 0
14, 116160, Note_on_c, 13, 55, 127
14, 116219, Note_on_c, 13, 55, 0
14, 116220, Note_on_c, 13, 53, 127
14, 116279, Note_on_c, 13, 53, 0
14, 116280, Note_on_c, 13, 52, 127
14, 116339, Note_on_c, 13, 52, 0
14, 116340, Note_on_c, 13, 53, 127
14, 116399, Note_on_c, 13, 53, 0
14, 116400, Note_on_c, 13, 55, 127
14, 116459, Note_on_c, 13, 55, 0
14, 116460, Note_on_c, 13, 48, 127
14, 116519, Note_on_c, 13, 48, 0
14, 116550, Note_on_c, 13, 53, 127
14, 116579, Note_on_c, 13, 53, 0
14, 116580, Note_on_c, 13, 60, 127
14, 116639, Note_on_c, 13, 60, 0
14, 116640, Note_on_c, 13, 62, 127
14, 116699, Note_on_c, 13, 62, 0
14, 116700, Note_on_c, 13, 63, 127
14, 116759, Note_on_c, 13, 63, 0
14, 116880, Note_on_c, 13, 51, 127
14, 116939, Note_on_c, 13, 51, 0
14, 116940, Note_on_c, 13, 50, 127
14, 116999, Note_on_c, 13, 50, 0
14, 117000, Note_on_c, 13, 55, 127
14, 117059, Note_on_c, 13, 55, 0
14, 117060, Note_on_c, 13, 52, 127
14, 117119, Note_on_c, 13, 52, 0
14, 117120, Note_on_c, 13, 53, 127
14, 117179, Note_on_c, 13, 53, 0
14, 117240, Note_on_c, 13, 48, 127
14, 117299, Note_on_c, 13, 48, 0
14, 117300, Note_on_c, 13, 58, 127
14, 117329, Note_on_c, 13, 58, 0
14, 117330, Note_on_c, 13, 57, 127
14, 117359, Note_on_c, 13, 57, 0
14, 117360, Note_on_c, 13, 58, 127
14, 117419, Note_on_c, 13, 58, 0
14, 117420, Note_on_c, 13, 58, 127
14, 117479, Note_on_c, 13, 58, 0
14, 117480, Note_on_c, 13, 57, 127
14, 117539, Note_on_c, 13, 57, 0
14, 175740, Note_on_c, 13, 53, 127
14, 175799, Note_on_c, 13, 53, 0
14, 175800, Note_on_c, 13, 55, 127
14, 175859, Note_on_c, 13, 55, 0
14, 175860, Note_on_c, 13, 57, 127
14, 175979, Note_on_c, 13, 57, 0
14, 175980, Note_on_c, 13, 53, 127
14, 176099, Note_on_c, 13, 53, 0
14, 176100, Note_on_c, 13, 48, 127
14, 176339, Note_on_c, 13, 48, 0
14, 176340, Note_on_c, 13, 50, 127
14, 176459, Note_on_c, 13, 50, 0
14, 176460, Note_on_c, 13, 55, 127
14, 176519, Note_on_c, 13, 55, 0
14, 176520, Note_on_c, 13, 53, 127
14, 176579, Note_on_c, 13, 53, 0
14, 176580, Note_on_c, 13, 51, 127
14, 176699, Note_on_c, 13, 51, 0
14, 176700, Note_on_c, 13, 53, 127
14, 176819, Note_on_c, 13, 53, 0
14, 176820, Note_on_c, 13, 46, 127
14, 176879, Note_on_c, 13, 46, 0
14, 176880, Note_on_c, 13, 48, 127
14, 176939, Note_on_c, 13, 48, 0
14, 176940, Note_on_c, 13, 50, 127
14, 177059, Note_on_c, 13, 50, 0
14, 177060, Note_on_c, 13, 46, 127
14, 177179, Note_on_c, 13, 46, 0
14, 177180, Note_on_c, 13, 53, 127
14, 177419, Note_on_c, 13, 53, 0
14, 178620, Note_on_c, 13, 50, 127
14, 178739, Note_on_c, 13, 50, 0
14, 178740, Note_on_c, 13, 55, 127
14, 178859, Note_on_c, 13, 55, 0
14, 178860, Note_on_c, 13, 53, 127
14, 178979, Note_on_c, 13, 53, 0
14, 178980, Note_on_c, 13, 52, 127
14, 179099, Note_on_c, 13, 52, 0
14, 179100, Note_on_c, 13, 53, 127
14, 179159, Note_on_c, 13, 53, 0
14, 179160, Note_on_c, 13, 52, 127
14, 179219, Note_on_c, 13, 52, 0
14, 179220, Note_on_c, 13, 50, 127
14, 179279, Note_on_c, 13, 50, 0
14, 179280, Note_on_c, 13, 48, 127
14, 179339, Note_on_c, 13, 48, 0
14, 179340, Note_on_c, 13, 50, 127
14, 179399, Note_on_c, 13, 50, 0
14, 179400, Note_on_c, 13, 52, 127
14, 179459, Note_on_c, 13, 52, 0
14, 179460, Note_on_c, 13, 53, 127
14, 179579, Note_on_c, 13, 53, 0
14, 179580, Note_on_c, 13, 53, 127
14, 179699, Note_on_c, 13, 53, 0
14, 179700, Note_on_c, 13, 48, 127
14, 180059, Note_on_c, 13, 48, 0
14, 181500, Note_on_c, 13, 53, 127
14, 181559, Note_on_c, 13, 53, 0
14, 181560, Note_on_c, 13, 55, 127
14, 181619, Note_on_c, 13, 55, 0
14, 181620, Note_on_c, 13, 57, 127
14, 181739, Note_on_c, 13, 57, 0
14, 181740, Note_on_c, 13, 53, 127
14, 181859, Note_on_c, 13, 53, 0
14, 181860, Note_on_c, 13, 48, 127
14, 182099, Note_on_c, 13, 48, 0
14, 182100, Note_on_c, 13, 50, 127
14, 182219, Note_on_c, 13, 50, 0
14, 182220, Note_on_c, 13, 55, 127
14, 182279, Note_on_c, 13, 55, 0
14, 182280, Note_on_c, 13, 53, 127
14, 182339, Note_on_c, 13, 53, 0
14, 182340, Note_on_c, 13, 51, 127
14, 182459, Note_on_c, 13, 51, 0
14, 182460, Note_on_c, 13, 53, 127
14, 182579, Note_on_c, 13, 53, 0
14, 182580, Note_on_c, 13, 46, 127
14, 182639, Note_on_c, 13, 46, 0
14, 182640, Note_on_c, 13, 48, 127
14, 182699, Note_on_c, 13, 48, 0
14, 182700, Note_on_c, 13, 50, 127
14, 182819, Note_on_c, 13, 50, 0
14, 182820, Note_on_c, 13, 46, 127
14, 182939, Note_on_c, 13, 46, 0
14, 182940, Note_on_c, 13, 53, 127
14, 183179, Note_on_c, 13, 53, 0
14, 184380, Note_on_c, 13, 50, 127
14, 184499, Note_on_c, 13, 50, 0
14, 184500, Note_on_c, 13, 55, 127
14, 184619, Note_on_c, 13, 55, 0
14, 184620, Note_on_c, 13, 53, 127
14, 184739, Note_on_c, 13, 53, 0
14, 184740, Note_on_c, 13, 52, 127
14, 184859, Note_on_c, 13, 52, 0
14, 184860, Note_on_c, 13, 53, 127
14, 184919, Note_on_c, 13, 53, 0
14, 184920, Note_on_c, 13, 52, 127
14, 184979, Note_on_c, 13, 52, 0
14, 184980, Note_on_c, 13, 50, 127
14, 185039, Note_on_c, 13, 50, 0
14, 185040, Note_on_c, 13, 48, 127
14, 185099, Note_on_c, 13, 48, 0
14, 185100, Note_on_c, 13, 50, 127
14, 185159, Note_on_c, 13, 50, 0
14, 185160, Note_on_c, 13, 52, 127
14, 185219, Note_on_c, 13, 52, 0
14, 185220, Note_on_c, 13, 53, 127
14, 185339, Note_on_c, 13, 53, 0
14, 185340, Note_on_c, 13, 53, 127
14, 185459, Note_on_c, 13, 53, 0
14, 185460, Note_on_c, 13, 48, 127
14, 185819, Note_on_c, 13, 48, 0
14, 187260, Note_on_c, 13, 48, 127
14, 187319, Note_on_c, 13, 48, 0
14, 187320, Note_on_c, 13, 50, 127
14, 187379, Note_on_c, 13, 50, 0
14, 187380, Note_on_c, 13, 52, 127
14, 187499, Note_on_c, 13, 52, 0
14, 187500, Note_on_c, 13, 48, 127
14, 187619, Note_on_c, 13, 48, 0
14, 187620, Note_on_c, 13, 53, 127
14, 187679, Note_on_c, 13, 53, 0
14, 187680, Note_on_c, 13, 52, 127
14, 187739, Note_on_c, 13, 52, 0
14, 187740, Note_on_c, 13, 53, 127
14, 187859, Note_on_c, 13, 53, 0
14, 187860, Note_on_c, 13, 58, 127
14, 187979, Note_on_c, 13, 58, 0
14, 187980, Note_on_c, 13, 52, 127
14, 188099, Note_on_c, 13, 52, 0
14, 188100, Note_on_c, 13, 53, 127
14, 188219, Note_on_c, 13, 53, 0
14, 188220, Note_on_c, 13, 50, 127
14, 188339, Note_on_c, 13, 50, 0
14, 188340, Note_on_c, 13, 50, 127
14, 188459, Note_on_c, 13, 50, 0
14, 188460, Note_on_c, 13, 49, 127
14, 188519, Note_on_c, 13, 49, 0
14, 188520, Note_on_c, 13, 47, 127
14, 188579, Note_on_c, 13, 47, 0
14, 188580, Note_on_c, 13, 49, 127
14, 188699, Note_on_c, 13, 49, 0
14, 188700, Note_on_c, 13, 50, 127
14, 188939, Note_on_c, 13, 50, 0
14, 190140, Note_on_c, 13, 58, 127
14, 190199, Note_on_c, 13, 58, 0
14, 190200, Note_on_c, 13, 57, 127
14, 190259, Note_on_c, 13, 57, 0
14, 190260, Note_on_c, 13, 55, 127
14, 190379, Note_on_c, 13, 55, 0
14, 190380, Note_on_c, 13, 53, 127
14, 190499, Note_on_c, 13, 53, 0
14, 190500, Note_on_c, 13, 52, 127
14, 190559, Note_on_c, 13, 52, 0
14, 190560, Note_on_c, 13, 50, 127
14, 190619, Note_on_c, 13, 50, 0
14, 190620, Note_on_c, 13, 52, 127
14, 190739, Note_on_c, 13, 52, 0
14, 190740, Note_on_c, 13, 48, 127
14, 190859, Note_on_c, 13, 48, 0
14, 190860, Note_on_c, 13, 53, 127
14, 190979, Note_on_c, 13, 53, 0
14, 190980, Note_on_c, 13, 46, 127
14, 191219, Note_on_c, 13, 46, 0
14, 191220, Note_on_c, 13, 48, 127
14, 191279, Note_on_c, 13, 48, 0
14, 191280, Note_on_c, 13, 46, 127
14, 191339, Note_on_c, 13, 46, 0
14, 191340, Note_on_c, 13, 48, 127
14, 191579, Note_on_c, 13, 48, 0
14, 191580, Note_on_c, 13, 41, 127
14, 191819, Note_on_c, 13, 41, 0
14, 191819, End_track
15, 0, Start_track
15, 0, MIDI_port, 0
15, 0, Title_t, "Cello"
15, 0, Program_c, 14, 42
15, 0, Control_c, 14, 7, 127
15, 0, Control_c, 14, 10, 43
15, 0, Note_on_c, 14, 53, 90
15, 359, Note_on_c, 14, 53, 0
15, 360, Note_on_c, 14, 51, 90
15, 419, Note_on_c, 14, 51, 0
15, 420, Note_on_c, 14, 50, 90
15, 479, Note_on_c, 14, 50, 0
15, 480, Note_on_c, 14, 48, 90
15, 539, Note_on_c, 14, 48, 0
15, 540, Note_on_c, 14, 46, 90
15, 570, Note_on_c, 14, 46, 0
15, 600, Note_on_c, 14, 53, 90
15, 630, Note_on_c, 14, 53, 0
15, 720, Note_on_c, 14, 58, 90
15, 749, Note_on_c, 14, 58, 0
15, 750, Note_on_c, 14, 60, 90
15, 779, Note_on_c, 14, 60, 0
15, 780, Note_on_c, 14, 58, 90
15, 809, Note_on_c, 14, 58, 0
15, 810, Note_on_c, 14, 57, 90
15, 839, Note_on_c, 14, 57, 0
15, 840, Note_on_c, 14, 58, 90
15, 869, Note_on_c, 14, 58, 0
15, 870, Note_on_c, 14, 55, 90
15, 899, Note_on_c, 14, 55, 0
15, 900, Note_on_c, 14, 57, 90
15, 1019, Note_on_c, 14, 57, 0
15, 1020, Note_on_c, 14, 52, 90
15, 1079, Note_on_c, 14, 52, 0
15, 1080, Note_on_c, 14, 53, 90
15, 1139, Note_on_c, 14, 53, 0
15, 1140, Note_on_c, 14, 46, 90
15, 1199, Note_on_c, 14, 46, 0
15, 1200, Note_on_c, 14, 43, 90
15, 1259, Note_on_c, 14, 43, 0
15, 1260, Note_on_c, 14, 48, 90
15, 1439, Note_on_c, 14, 48, 0
15, 1500, Note_on_c, 14, 46, 90
15, 1530, Note_on_c, 14, 46, 0
15, 1560, Note_on_c, 14, 45, 90
15, 1590, Note_on_c, 14, 45, 0
15, 1680, Note_on_c, 14, 40, 90
15, 1710, Note_on_c, 14, 40, 0
15, 1740, Note_on_c, 14, 41, 90
15, 1770, Note_on_c, 14, 41, 0
15, 1800, Note_on_c, 14, 58, 90
15, 1859, Note_on_c, 14, 58, 0
15, 1860, Note_on_c, 14, 57, 90
15, 1919, Note_on_c, 14, 57, 0
15, 1920, Note_on_c, 14, 55, 90
15, 1979, Note_on_c, 14, 55, 0
15, 1980, Note_on_c, 14, 53, 90
15, 2010, Note_on_c, 14, 53, 0
15, 2040, Note_on_c, 14, 48, 90
15, 2070, Note_on_c, 14, 48, 0
15, 2100, Note_on_c, 14, 41, 90
15, 2130, Note_on_c, 14, 41, 0
15, 2220, Note_on_c, 14, 51, 90
15, 2250, Note_on_c, 14, 51, 0
15, 2280, Note_on_c, 14, 50, 90
15, 2310, Note_on_c, 14, 50, 0
15, 2400, Note_on_c, 14, 45, 90
15, 2430, Note_on_c, 14, 45, 0
15, 2460, Note_on_c, 14, 46, 90
15, 2490, Note_on_c, 14, 46, 0
15, 2520, Note_on_c, 14, 60, 90
15, 2579, Note_on_c, 14, 60, 0
15, 2580, Note_on_c, 14, 58, 90
15, 2639, Note_on_c, 14, 58, 0
15, 2640, Note_on_c, 14, 57, 90
15, 2699, Note_on_c, 14, 57, 0
15, 2700, Note_on_c, 14, 55, 90
15, 2730, Note_on_c, 14, 55, 0
15, 2760, Note_on_c, 14, 50, 90
15, 2790, Note_on_c, 14, 50, 0
15, 2820, Note_on_c, 14, 43, 90
15, 2850, Note_on_c, 14, 43, 0
15, 2880, Note_on_c, 14, 55, 90
15, 2910, Note_on_c, 14, 55, 0
15, 2940, Note_on_c, 14, 53, 90
15, 2970, Note_on_c, 14, 53, 0
15, 3060, Note_on_c, 14, 52, 90
15, 3089, Note_on_c, 14, 52, 0
15, 3090, Note_on_c, 14, 50, 90
15, 3119, Note_on_c, 14, 50, 0
15, 3120, Note_on_c, 14, 52, 90
15, 3179, Note_on_c, 14, 52, 0
15, 3180, Note_on_c, 14, 48, 90
15, 3239, Note_on_c, 14, 48, 0
15, 3240, Note_on_c, 14, 53, 90
15, 3270, Note_on_c, 14, 53, 0
15, 3300, Note_on_c, 14, 52, 90
15, 3330, Note_on_c, 14, 52, 0
15, 3420, Note_on_c, 14, 50, 90
15, 3449, Note_on_c, 14, 50, 0
15, 3450, Note_on_c, 14, 48, 90
15, 3479, Note_on_c, 14, 48, 0
15, 3480, Note_on_c, 14, 50, 90
15, 3538, Note_on_c, 14, 50, 0
15, 3540, Note_on_c, 14, 46, 90
15, 3599, Note_on_c, 14, 46, 0
15, 3600, Note_on_c, 14, 40, 90
15, 3659, Note_on_c, 14, 40, 0
15, 3660, Note_on_c, 14, 52, 90
15, 3689, Note_on_c, 14, 52, 0
15, 3690, Note_on_c, 14, 50, 90
15, 3719, Note_on_c, 14, 50, 0
15, 3720, Note_on_c, 14, 52, 90
15, 3749, Note_on_c, 14, 52, 0
15, 3750, Note_on_c, 14, 48, 90
15, 3779, Note_on_c, 14, 48, 0
15, 3780, Note_on_c, 14, 53, 90
15, 3839, Note_on_c, 14, 53, 0
15, 3840, Note_on_c, 14, 41, 90
15, 3869, Note_on_c, 14, 41, 0
15, 3870, Note_on_c, 14, 40, 90
15, 3899, Note_on_c, 14, 40, 0
15, 3900, Note_on_c, 14, 41, 90
15, 3929, Note_on_c, 14, 41, 0
15, 3930, Note_on_c, 14, 43, 90
15, 3959, Note_on_c, 14, 43, 0
15, 3960, Note_on_c, 14, 45, 90
15, 4019, Note_on_c, 14, 45, 0
15, 4020, Note_on_c, 14, 46, 90
15, 4079, Note_on_c, 14, 46, 0
15, 4080, Note_on_c, 14, 48, 90
15, 4139, Note_on_c, 14, 48, 0
15, 4140, Note_on_c, 14, 41, 90
15, 4199, Note_on_c, 14, 41, 0
15, 4200, Note_on_c, 14, 45, 90
15, 4259, Note_on_c, 14, 45, 0
15, 4260, Note_on_c, 14, 48, 90
15, 4319, Note_on_c, 14, 48, 0
15, 4320, Note_on_c, 14, 53, 90
15, 4679, Note_on_c, 14, 53, 0
15, 4680, Note_on_c, 14, 51, 90
15, 4739, Note_on_c, 14, 51, 0
15, 4740, Note_on_c, 14, 50, 90
15, 4799, Note_on_c, 14, 50, 0
15, 4800, Note_on_c, 14, 48, 90
15, 4859, Note_on_c, 14, 48, 0
15, 4860, Note_on_c, 14, 46, 90
15, 4890, Note_on_c, 14, 46, 0
15, 4920, Note_on_c, 14, 53, 90
15, 4950, Note_on_c, 14, 53, 0
15, 5040, Note_on_c, 14, 45, 90
15, 5099, Note_on_c, 14, 45, 0
15, 5160, Note_on_c, 14, 41, 90
15, 5219, Note_on_c, 14, 41, 0
15, 5220, Note_on_c, 14, 46, 90
15, 5279, Note_on_c, 14, 46, 0
15, 5340, Note_on_c, 14, 48, 90
15, 5399, Note_on_c, 14, 48, 0
15, 5400, Note_on_c, 14, 50, 90
15, 5459, Note_on_c, 14, 50, 0
15, 5520, Note_on_c, 14, 46, 90
15, 5579, Note_on_c, 14, 46, 0
15, 5580, Note_on_c, 14, 53, 90
15, 5639, Note_on_c, 14, 53, 0
15, 5760, Note_on_c, 14, 41, 90
15, 5819, Note_on_c, 14, 41, 0
15, 5940, Note_on_c, 14, 53, 90
15, 5999, Note_on_c, 14, 53, 0
15, 6120, Note_on_c, 14, 41, 90
15, 6179, Note_on_c, 14, 41, 0
15, 6300, Note_on_c, 14, 53, 90
15, 6359, Note_on_c, 14, 53, 0
15, 6480, Note_on_c, 14, 41, 90
15, 6839, Note_on_c, 14, 41, 0
15, 6840, Note_on_c, 14, 51, 90
15, 6899, Note_on_c, 14, 51, 0
15, 6900, Note_on_c, 14, 50, 90
15, 6959, Note_on_c, 14, 50, 0
15, 6960, Note_on_c, 14, 48, 90
15, 7019, Note_on_c, 14, 48, 0
15, 7020, Note_on_c, 14, 46, 90
15, 7050, Note_on_c, 14, 46, 0
15, 7080, Note_on_c, 14, 53, 90
15, 7110, Note_on_c, 14, 53, 0
15, 7200, Note_on_c, 14, 58, 90
15, 7229, Note_on_c, 14, 58, 0
15, 7230, Note_on_c, 14, 60, 90
15, 7259, Note_on_c, 14, 60, 0
15, 7260, Note_on_c, 14, 58, 90
15, 7289, Note_on_c, 14, 58, 0
15, 7290, Note_on_c, 14, 57, 90
15, 7319, Note_on_c, 14, 57, 0
15, 7320, Note_on_c, 14, 58, 90
15, 7349, Note_on_c, 14, 58, 0
15, 7350, Note_on_c, 14, 55, 90
15, 7379, Note_on_c, 14, 55, 0
15, 7380, Note_on_c, 14, 57, 90
15, 7499, Note_on_c, 14, 57, 0
15, 7500, Note_on_c, 14, 52, 90
15, 7559, Note_on_c, 14, 52, 0
15, 7560, Note_on_c, 14, 53, 90
15, 7619, Note_on_c, 14, 53, 0
15, 7620, Note_on_c, 14, 46, 90
15, 7679, Note_on_c, 14, 46, 0
15, 7680, Note_on_c, 14, 43, 90
15, 7739, Note_on_c, 14, 43, 0
15, 7740, Note_on_c, 14, 48, 90
15, 7799, Note_on_c, 14, 48, 0
15, 7800, Note_on_c, 14, 43, 90
15, 7859, Note_on_c, 14, 43, 0
15, 7860, Note_on_c, 14, 36, 90
15, 7919, Note_on_c, 14, 36, 0
15, 7980, Note_on_c, 14, 46, 90
15, 8010, Note_on_c, 14, 46, 0
15, 8040, Note_on_c, 14, 45, 90
15, 8070, Note_on_c, 14, 45, 0
15, 8160, Note_on_c, 14, 48, 90
15, 8190, Note_on_c, 14, 48, 0
15, 8220, Note_on_c, 14, 53, 90
15, 8250, Note_on_c, 14, 53, 0
15, 8280, Note_on_c, 14, 58, 90
15, 8339, Note_on_c, 14, 58, 0
15, 8340, Note_on_c, 14, 57, 90
15, 8399, Note_on_c, 14, 57, 0
15, 8400, Note_on_c, 14, 55, 90
15, 8459, Note_on_c, 14, 55, 0
15, 8460, Note_on_c, 14, 53, 90
15, 8490, Note_on_c, 14, 53, 0
15, 8520, Note_on_c, 14, 48, 90
15, 8550, Note_on_c, 14, 48, 0
15, 8580, Note_on_c, 14, 41, 90
15, 8610, Note_on_c, 14, 41, 0
15, 8700, Note_on_c, 14, 51, 90
15, 8730, Note_on_c, 14, 51, 0
15, 8760, Note_on_c, 14, 50, 90
15, 8790, Note_on_c, 14, 50, 0
15, 8880, Note_on_c, 14, 53, 90
15, 8910, Note_on_c, 14, 53, 0
15, 8940, Note_on_c, 14, 46, 90
15, 8970, Note_on_c, 14, 46, 0
15, 9000, Note_on_c, 14, 51, 90
15, 9059, Note_on_c, 14, 51, 0
15, 9060, Note_on_c, 14, 50, 90
15, 9119, Note_on_c, 14, 50, 0
15, 9120, Note_on_c, 14, 48, 90
15, 9179, Note_on_c, 14, 48, 0
15, 9180, Note_on_c, 14, 46, 90
15, 9210, Note_on_c, 14, 46, 0
15, 9240, Note_on_c, 14, 53, 90
15, 9270, Note_on_c, 14, 53, 0
15, 9300, Note_on_c, 14, 58, 90
15, 9330, Note_on_c, 14, 58, 0
15, 9360, Note_on_c, 14, 46, 90
15, 9390, Note_on_c, 14, 46, 0
15, 9420, Note_on_c, 14, 45, 90
15, 9450, Note_on_c, 14, 45, 0
15, 9540, Note_on_c, 14, 43, 90
15, 9569, Note_on_c, 14, 43, 0
15, 9570, Note_on_c, 14, 41, 90
15, 9599, Note_on_c, 14, 41, 0
15, 9600, Note_on_c, 14, 43, 90
15, 9659, Note_on_c, 14, 43, 0
15, 9660, Note_on_c, 14, 40, 90
15, 9719, Note_on_c, 14, 40, 0
15, 9720, Note_on_c, 14, 45, 90
15, 9750, Note_on_c, 14, 45, 0
15, 9780, Note_on_c, 14, 43, 90
15, 9810, Note_on_c, 14, 43, 0
15, 9900, Note_on_c, 14, 42, 90
15, 9929, Note_on_c, 14, 42, 0
15, 9930, Note_on_c, 14, 40, 90
15, 9959, Note_on_c, 14, 40, 0
15, 9960, Note_on_c, 14, 42, 90
15, 10019, Note_on_c, 14, 42, 0
15, 10020, Note_on_c, 14, 38, 90
15, 10079, Note_on_c, 14, 38, 0
15, 10080, Note_on_c, 14, 43, 90
15, 10110, Note_on_c, 14, 43, 0
15, 10140, Note_on_c, 14, 41, 90
15, 10170, Note_on_c, 14, 41, 0
15, 10260, Note_on_c, 14, 40, 90
15, 10289, Note_on_c, 14, 40, 0
15, 10290, Note_on_c, 14, 38, 90
15, 10319, Note_on_c, 14, 38, 0
15, 10320, Note_on_c, 14, 40, 90
15, 10379, Note_on_c, 14, 40, 0
15, 10380, Note_on_c, 14, 36, 90
15, 10439, Note_on_c, 14, 36, 0
15, 10440, Note_on_c, 14, 41, 90
15, 10499, Note_on_c, 14, 41, 0
15, 10500, Note_on_c, 14, 38, 90
15, 10559, Note_on_c, 14, 38, 0
15, 10560, Note_on_c, 14, 36, 90
15, 10619, Note_on_c, 14, 36, 0
15, 10620, Note_on_c, 14, 43, 90
15, 10679, Note_on_c, 14, 43, 0
15, 10680, Note_on_c, 14, 45, 90
15, 10739, Note_on_c, 14, 45, 0
15, 10740, Note_on_c, 14, 47, 90
15, 10799, Note_on_c, 14, 47, 0
15, 10800, Note_on_c, 14, 48, 90
15, 10859, Note_on_c, 14, 48, 0
15, 10860, Note_on_c, 14, 60, 90
15, 10919, Note_on_c, 14, 60, 0
15, 10920, Note_on_c, 14, 57, 90
15, 10979, Note_on_c, 14, 57, 0
15, 10980, Note_on_c, 14, 53, 90
15, 11039, Note_on_c, 14, 53, 0
15, 11040, Note_on_c, 14, 50, 90
15, 11099, Note_on_c, 14, 50, 0
15, 11100, Note_on_c, 14, 52, 90
15, 11159, Note_on_c, 14, 52, 0
15, 11160, Note_on_c, 14, 48, 90
15, 11219, Note_on_c, 14, 48, 0
15, 11220, Note_on_c, 14, 50, 90
15, 11279, Note_on_c, 14, 50, 0
15, 11280, Note_on_c, 14, 52, 90
15, 11339, Note_on_c, 14, 52, 0
15, 11340, Note_on_c, 14, 53, 90
15, 11370, Note_on_c, 14, 53, 0
15, 11400, Note_on_c, 14, 48, 90
15, 11430, Note_on_c, 14, 48, 0
15, 11520, Note_on_c, 14, 60, 90
15, 11579, Note_on_c, 14, 60, 0
15, 11640, Note_on_c, 14, 52, 90
15, 11699, Note_on_c, 14, 52, 0
15, 11700, Note_on_c, 14, 53, 90
15, 11759, Note_on_c, 14, 53, 0
15, 11820, Note_on_c, 14, 55, 90
15, 11879, Note_on_c, 14, 55, 0
15, 11880, Note_on_c, 14, 57, 90
15, 11939, Note_on_c, 14, 57, 0
15, 12000, Note_on_c, 14, 53, 90
15, 12059, Note_on_c, 14, 53, 0
15, 12060, Note_on_c, 14, 60, 90
15, 12119, Note_on_c, 14, 60, 0
15, 12240, Note_on_c, 14, 48, 90
15, 12299, Note_on_c, 14, 48, 0
15, 12420, Note_on_c, 14, 60, 90
15, 12479, Note_on_c, 14, 60, 0
15, 12600, Note_on_c, 14, 48, 90
15, 12659, Note_on_c, 14, 48, 0
15, 12780, Note_on_c, 14, 60, 90
15, 12839, Note_on_c, 14, 60, 0
15, 12960, Note_on_c, 14, 48, 90
15, 13079, Note_on_c, 14, 48, 0
15, 13080, Note_on_c, 14, 53, 90
15, 13139, Note_on_c, 14, 53, 0
15, 13140, Note_on_c, 14, 55, 90
15, 13259, Note_on_c, 14, 55, 0
15, 13260, Note_on_c, 14, 57, 90
15, 13319, Note_on_c, 14, 57, 0
15, 13320, Note_on_c, 14, 46, 90
15, 13379, Note_on_c, 14, 46, 0
15, 13380, Note_on_c, 14, 45, 90
15, 13439, Note_on_c, 14, 45, 0
15, 13440, Note_on_c, 14, 43, 90
15, 13499, Note_on_c, 14, 43, 0
15, 13500, Note_on_c, 14, 41, 90
15, 13530, Note_on_c, 14, 41, 0
15, 13560, Note_on_c, 14, 48, 90
15, 13590, Note_on_c, 14, 48, 0
15, 13680, Note_on_c, 14, 53, 90
15, 13739, Note_on_c, 14, 53, 0
15, 13740, Note_on_c, 14, 41, 90
15, 13799, Note_on_c, 14, 41, 0
15, 13800, Note_on_c, 14, 53, 90
15, 13919, Note_on_c, 14, 53, 0
15, 13920, Note_on_c, 14, 52, 90
15, 13979, Note_on_c, 14, 52, 0
15, 13980, Note_on_c, 14, 57, 90
15, 14039, Note_on_c, 14, 57, 0
15, 14040, Note_on_c, 14, 55, 90
15, 14099, Note_on_c, 14, 55, 0
15, 14100, Note_on_c, 14, 53, 90
15, 14159, Note_on_c, 14, 53, 0
15, 14160, Note_on_c, 14, 55, 90
15, 14219, Note_on_c, 14, 55, 0
15, 14220, Note_on_c, 14, 48, 90
15, 14249, Note_on_c, 14, 48, 0
15, 14250, Note_on_c, 14, 47, 90
15, 14279, Note_on_c, 14, 47, 0
15, 14280, Note_on_c, 14, 48, 90
15, 14309, Note_on_c, 14, 48, 0
15, 14310, Note_on_c, 14, 50, 90
15, 14339, Note_on_c, 14, 50, 0
15, 14340, Note_on_c, 14, 52, 90
15, 14369, Note_on_c, 14, 52, 0
15, 14370, Note_on_c, 14, 53, 90
15, 14399, Note_on_c, 14, 53, 0
15, 14400, Note_on_c, 14, 55, 90
15, 14459, Note_on_c, 14, 55, 0
15, 14460, Note_on_c, 14, 41, 90
15, 14490, Note_on_c, 14, 41, 0
15, 14520, Note_on_c, 14, 40, 90
15, 14550, Note_on_c, 14, 40, 0
15, 14640, Note_on_c, 14, 47, 90
15, 14670, Note_on_c, 14, 47, 0
15, 14700, Note_on_c, 14, 48, 90
15, 14730, Note_on_c, 14, 48, 0
15, 14760, Note_on_c, 14, 53, 90
15, 14819, Note_on_c, 14, 53, 0
15, 14820, Note_on_c, 14, 52, 90
15, 14879, Note_on_c, 14, 52, 0
15, 14880, Note_on_c, 14, 50, 90
15, 14939, Note_on_c, 14, 50, 0
15, 14940, Note_on_c, 14, 48, 90
15, 14970, Note_on_c, 14, 48, 0
15, 15000, Note_on_c, 14, 43, 90
15, 15030, Note_on_c, 14, 43, 0
15, 15060, Note_on_c, 14, 36, 90
15, 15090, Note_on_c, 14, 36, 0
15, 15180, Note_on_c, 14, 58, 90
15, 15210, Note_on_c, 14, 58, 0
15, 15240, Note_on_c, 14, 57, 90
15, 15270, Note_on_c, 14, 57, 0
15, 15360, Note_on_c, 14, 52, 90
15, 15390, Note_on_c, 14, 52, 0
15, 15420, Note_on_c, 14, 53, 90
15, 15450, Note_on_c, 14, 53, 0
15, 15480, Note_on_c, 14, 55, 90
15, 15539, Note_on_c, 14, 55, 0
15, 15540, Note_on_c, 14, 53, 90
15, 15599, Note_on_c, 14, 53, 0
15, 15600, Note_on_c, 14, 52, 90
15, 15659, Note_on_c, 14, 52, 0
15, 15660, Note_on_c, 14, 50, 90
15, 15690, Note_on_c, 14, 50, 0
15, 15720, Note_on_c, 14, 45, 90
15, 15750, Note_on_c, 14, 45, 0
15, 15780, Note_on_c, 14, 38, 90
15, 15810, Note_on_c, 14, 38, 0
15, 15840, Note_on_c, 14, 50, 90
15, 15870, Note_on_c, 14, 50, 0
15, 15900, Note_on_c, 14, 48, 90
15, 15930, Note_on_c, 14, 48, 0
15, 16020, Note_on_c, 14, 47, 90
15, 16049, Note_on_c, 14, 47, 0
15, 16050, Note_on_c, 14, 45, 90
15, 16079, Note_on_c, 14, 45, 0
15, 16080, Note_on_c, 14, 47, 90
15, 16139, Note_on_c, 14, 47, 0
15, 16140, Note_on_c, 14, 43, 90
15, 16199, Note_on_c, 14, 43, 0
15, 16200, Note_on_c, 14, 48, 90
15, 16230, Note_on_c, 14, 48, 0
15, 16260, Note_on_c, 14, 47, 90
15, 16290, Note_on_c, 14, 47, 0
15, 16380, Note_on_c, 14, 45, 90
15, 16409, Note_on_c, 14, 45, 0
15, 16410, Note_on_c, 14, 43, 90
15, 16439, Note_on_c, 14, 43, 0
15, 16440, Note_on_c, 14, 45, 90
15, 16499, Note_on_c, 14, 45, 0
15, 16500, Note_on_c, 14, 41, 90
15, 16559, Note_on_c, 14, 41, 0
15, 16560, Note_on_c, 14, 47, 90
15, 16619, Note_on_c, 14, 47, 0
15, 16620, Note_on_c, 14, 59, 90
15, 16649, Note_on_c, 14, 59, 0
15, 16650, Note_on_c, 14, 57, 90
15, 16679, Note_on_c, 14, 57, 0
15, 16680, Note_on_c, 14, 59, 90
15, 16709, Note_on_c, 14, 59, 0
15, 16710, Note_on_c, 14, 55, 90
15, 16739, Note_on_c, 14, 55, 0
15, 16740, Note_on_c, 14, 60, 90
15, 16799, Note_on_c, 14, 60, 0
15, 16800, Note_on_c, 14, 48, 90
15, 16829, Note_on_c, 14, 48, 0
15, 16830, Note_on_c, 14, 47, 90
15, 16859, Note_on_c, 14, 47, 0
15, 16860, Note_on_c, 14, 48, 90
15, 16889, Note_on_c, 14, 48, 0
15, 16890, Note_on_c, 14, 50, 90
15, 16919, Note_on_c, 14, 50, 0
15, 16920, Note_on_c, 14, 52, 90
15, 16979, Note_on_c, 14, 52, 0
15, 16980, Note_on_c, 14, 53, 90
15, 17039, Note_on_c, 14, 53, 0
15, 17040, Note_on_c, 14, 55, 90
15, 17099, Note_on_c, 14, 55, 0
15, 17100, Note_on_c, 14, 48, 90
15, 17129, Note_on_c, 14, 48, 0
15, 17130, Note_on_c, 14, 52, 90
15, 17159, Note_on_c, 14, 52, 0
15, 17160, Note_on_c, 14, 53, 90
15, 17189, Note_on_c, 14, 53, 0
15, 17190, Note_on_c, 14, 55, 90
15, 17219, Note_on_c, 14, 55, 0
15, 17220, Note_on_c, 14, 57, 90
15, 17249, Note_on_c, 14, 57, 0
15, 17250, Note_on_c, 14, 59, 90
15, 17279, Note_on_c, 14, 59, 0
15, 17280, Note_on_c, 14, 60, 90
15, 17339, Note_on_c, 14, 60, 0
15, 17340, Note_on_c, 14, 58, 90
15, 17399, Note_on_c, 14, 58, 0
15, 17400, Note_on_c, 14, 57, 90
15, 17459, Note_on_c, 14, 57, 0
15, 17460, Note_on_c, 14, 58, 90
15, 17519, Note_on_c, 14, 58, 0
15, 17520, Note_on_c, 14, 57, 90
15, 17579, Note_on_c, 14, 57, 0
15, 17580, Note_on_c, 14, 55, 90
15, 17639, Note_on_c, 14, 55, 0
15, 17640, Note_on_c, 14, 57, 90
15, 17699, Note_on_c, 14, 57, 0
15, 17700, Note_on_c, 14, 55, 90
15, 17759, Note_on_c, 14, 55, 0
15, 17760, Note_on_c, 14, 54, 90
15, 17819, Note_on_c, 14, 54, 0
15, 17820, Note_on_c, 14, 55, 90
15, 17879, Note_on_c, 14, 55, 0
15, 17880, Note_on_c, 14, 53, 90
15, 17939, Note_on_c, 14, 53, 0
15, 17940, Note_on_c, 14, 52, 90
15, 17999, Note_on_c, 14, 52, 0
15, 18000, Note_on_c, 14, 53, 90
15, 18059, Note_on_c, 14, 53, 0
15, 18060, Note_on_c, 14, 55, 90
15, 18119, Note_on_c, 14, 55, 0
15, 18120, Note_on_c, 14, 57, 90
15, 18179, Note_on_c, 14, 57, 0
15, 18180, Note_on_c, 14, 58, 90
15, 18299, Note_on_c, 14, 58, 0
15, 18300, Note_on_c, 14, 57, 90
15, 18359, Note_on_c, 14, 57, 0
15, 18360, Note_on_c, 14, 55, 90
15, 18419, Note_on_c, 14, 55, 0
15, 18420, Note_on_c, 14, 52, 90
15, 18479, Note_on_c, 14, 52, 0
15, 18480, Note_on_c, 14, 55, 90
15, 18539, Note_on_c, 14, 55, 0
15, 18540, Note_on_c, 14, 57, 90
15, 18659, Note_on_c, 14, 57, 0
15, 18660, Note_on_c, 14, 55, 90
15, 18719, Note_on_c, 14, 55, 0
15, 18720, Note_on_c, 14, 53, 90
15, 18767, Note_on_c, 14, 53, 0
15, 18780, Note_on_c, 14, 50, 90
15, 18827, Note_on_c, 14, 50, 0
15, 18840, Note_on_c, 14, 57, 90
15, 18887, Note_on_c, 14, 57, 0
15, 18900, Note_on_c, 14, 53, 90
15, 18947, Note_on_c, 14, 53, 0
15, 18960, Note_on_c, 14, 50, 90
15, 19007, Note_on_c, 14, 50, 0
15, 19020, Note_on_c, 14, 53, 90
15, 19067, Note_on_c, 14, 53, 0
15, 19080, Note_on_c, 14, 55, 90
15, 19127, Note_on_c, 14, 55, 0
15, 19140, Note_on_c, 14, 43, 90
15, 19199, Note_on_c, 14, 43, 0
15, 19200, Note_on_c, 14, 42, 90
15, 19259, Note_on_c, 14, 42, 0
15, 19260, Note_on_c, 14, 43, 90
15, 19307, Note_on_c, 14, 43, 0
15, 19320, Note_on_c, 14, 55, 90
15, 19379, Note_on_c, 14, 55, 0
15, 19380, Note_on_c, 14, 53, 90
15, 19439, Note_on_c, 14, 53, 0
15, 19440, Note_on_c, 14, 52, 90
15, 19487, Note_on_c, 14, 52, 0
15, 19500, Note_on_c, 14, 48, 90
15, 19547, Note_on_c, 14, 48, 0
15, 19560, Note_on_c, 14, 55, 90
15, 19607, Note_on_c, 14, 55, 0
15, 19620, Note_on_c, 14, 52, 90
15, 19667, Note_on_c, 14, 52, 0
15, 19680, Note_on_c, 14, 48, 90
15, 19727, Note_on_c, 14, 48, 0
15, 19740, Note_on_c, 14, 52, 90
15, 19787, Note_on_c, 14, 52, 0
15, 19800, Note_on_c, 14, 53, 90
15, 19847, Note_on_c, 14, 53, 0
15, 19860, Note_on_c, 14, 41, 90
15, 19919, Note_on_c, 14, 41, 0
15, 19920, Note_on_c, 14, 40, 90
15, 19979, Note_on_c, 14, 40, 0
15, 19980, Note_on_c, 14, 41, 90
15, 20027, Note_on_c, 14, 41, 0
15, 20040, Note_on_c, 14, 53, 90
15, 20099, Note_on_c, 14, 53, 0
15, 20100, Note_on_c, 14, 52, 90
15, 20159, Note_on_c, 14, 52, 0
15, 20160, Note_on_c, 14, 50, 90
15, 20219, Note_on_c, 14, 50, 0
15, 20220, Note_on_c, 14, 49, 90
15, 20279, Note_on_c, 14, 49, 0
15, 20280, Note_on_c, 14, 50, 90
15, 20327, Note_on_c, 14, 50, 0
15, 20340, Note_on_c, 14, 52, 90
15, 20399, Note_on_c, 14, 52, 0
15, 20400, Note_on_c, 14, 50, 90
15, 20459, Note_on_c, 14, 50, 0
15, 20460, Note_on_c, 14, 52, 90
15, 20507, Note_on_c, 14, 52, 0
15, 20520, Note_on_c, 14, 49, 90
15, 20579, Note_on_c, 14, 49, 0
15, 20580, Note_on_c, 14, 47, 90
15, 20639, Note_on_c, 14, 47, 0
15, 20640, Note_on_c, 14, 49, 90
15, 20687, Note_on_c, 14, 49, 0
15, 20700, Note_on_c, 14, 50, 90
15, 20729, Note_on_c, 14, 50, 0
15, 20730, Note_on_c, 14, 52, 90
15, 20759, Note_on_c, 14, 52, 0
15, 20760, Note_on_c, 14, 50, 90
15, 20789, Note_on_c, 14, 50, 0
15, 20790, Note_on_c, 14, 48, 90
15, 20819, Note_on_c, 14, 48, 0
15, 20820, Note_on_c, 14, 46, 90
15, 20849, Note_on_c, 14, 46, 0
15, 20850, Note_on_c, 14, 45, 90
15, 20879, Note_on_c, 14, 45, 0
15, 20880, Note_on_c, 14, 43, 90
15, 20939, Note_on_c, 14, 43, 0
15, 20940, Note_on_c, 14, 55, 90
15, 20969, Note_on_c, 14, 55, 0
15, 20970, Note_on_c, 14, 53, 90
15, 20999, Note_on_c, 14, 53, 0
15, 21000, Note_on_c, 14, 55, 90
15, 21119, Note_on_c, 14, 55, 0
15, 21120, Note_on_c, 14, 53, 90
15, 21179, Note_on_c, 14, 53, 0
15, 21180, Note_on_c, 14, 58, 90
15, 21239, Note_on_c, 14, 58, 0
15, 21240, Note_on_c, 14, 55, 90
15, 21299, Note_on_c, 14, 55, 0
15, 21300, Note_on_c, 14, 57, 90
15, 21359, Note_on_c, 14, 57, 0
15, 21360, Note_on_c, 14, 45, 90
15, 21419, Note_on_c, 14, 45, 0
15, 21420, Note_on_c, 14, 50, 90
15, 21449, Note_on_c, 14, 50, 0
15, 21450, Note_on_c, 14, 49, 90
15, 21479, Note_on_c, 14, 49, 0
15, 21480, Note_on_c, 14, 50, 90
15, 21509, Note_on_c, 14, 50, 0
15, 21510, Note_on_c, 14, 52, 90
15, 21539, Note_on_c, 14, 52, 0
15, 21540, Note_on_c, 14, 53, 90
15, 21569, Note_on_c, 14, 53, 0
15, 21570, Note_on_c, 14, 55, 90
15, 21599, Note_on_c, 14, 55, 0
15, 21600, Note_on_c, 14, 57, 90
15, 21659, Note_on_c, 14, 57, 0
15, 21660, Note_on_c, 14, 55, 90
15, 21719, Note_on_c, 14, 55, 0
15, 21720, Note_on_c, 14, 53, 90
15, 21779, Note_on_c, 14, 53, 0
15, 21840, Note_on_c, 14, 49, 90
15, 21887, Note_on_c, 14, 49, 0
15, 21900, Note_on_c, 14, 50, 90
15, 21947, Note_on_c, 14, 50, 0
15, 21960, Note_on_c, 14, 48, 90
15, 22019, Note_on_c, 14, 48, 0
15, 22020, Note_on_c, 14, 46, 90
15, 22079, Note_on_c, 14, 46, 0
15, 22080, Note_on_c, 14, 45, 90
15, 22139, Note_on_c, 14, 45, 0
15, 22140, Note_on_c, 14, 43, 90
15, 22199, Note_on_c, 14, 43, 0
15, 22200, Note_on_c, 14, 45, 90
15, 22259, Note_on_c, 14, 45, 0
15, 22260, Note_on_c, 14, 46, 90
15, 22319, Note_on_c, 14, 46, 0
15, 22320, Note_on_c, 14, 48, 90
15, 22379, Note_on_c, 14, 48, 0
15, 22380, Note_on_c, 14, 46, 90
15, 22439, Note_on_c, 14, 46, 0
15, 22440, Note_on_c, 14, 45, 90
15, 22499, Note_on_c, 14, 45, 0
15, 22560, Note_on_c, 14, 52, 90
15, 22607, Note_on_c, 14, 52, 0
15, 22620, Note_on_c, 14, 53, 90
15, 22667, Note_on_c, 14, 53, 0
15, 22680, Note_on_c, 14, 50, 90
15, 22739, Note_on_c, 14, 50, 0
15, 22740, Note_on_c, 14, 55, 90
15, 22799, Note_on_c, 14, 55, 0
15, 22800, Note_on_c, 14, 58, 90
15, 22859, Note_on_c, 14, 58, 0
15, 22860, Note_on_c, 14, 57, 90
15, 22889, Note_on_c, 14, 57, 0
15, 22890, Note_on_c, 14, 58, 90
15, 22919, Note_on_c, 14, 58, 0
15, 22920, Note_on_c, 14, 57, 90
15, 22949, Note_on_c, 14, 57, 0
15, 22950, Note_on_c, 14, 55, 90
15, 22979, Note_on_c, 14, 55, 0
15, 22980, Note_on_c, 14, 53, 90
15, 23009, Note_on_c, 14, 53, 0
15, 23010, Note_on_c, 14, 52, 90
15, 23039, Note_on_c, 14, 52, 0
15, 23040, Note_on_c, 14, 50, 90
15, 23087, Note_on_c, 14, 50, 0
15, 23100, Note_on_c, 14, 48, 90
15, 23147, Note_on_c, 14, 48, 0
15, 23220, Note_on_c, 14, 47, 90
15, 23249, Note_on_c, 14, 47, 0
15, 23250, Note_on_c, 14, 45, 90
15, 23279, Note_on_c, 14, 45, 0
15, 23280, Note_on_c, 14, 47, 90
15, 23339, Note_on_c, 14, 47, 0
15, 23340, Note_on_c, 14, 43, 90
15, 23399, Note_on_c, 14, 43, 0
15, 23400, Note_on_c, 14, 48, 90
15, 23447, Note_on_c, 14, 48, 0
15, 23460, Note_on_c, 14, 46, 90
15, 23507, Note_on_c, 14, 46, 0
15, 23580, Note_on_c, 14, 45, 90
15, 23609, Note_on_c, 14, 45, 0
15, 23610, Note_on_c, 14, 43, 90
15, 23639, Note_on_c, 14, 43, 0
15, 23640, Note_on_c, 14, 45, 90
15, 23699, Note_on_c, 14, 45, 0
15, 23700, Note_on_c, 14, 41, 90
15, 23759, Note_on_c, 14, 41, 0
15, 23760, Note_on_c, 14, 46, 90
15, 23807, Note_on_c, 14, 46, 0
15, 23820, Note_on_c, 14, 45, 90
15, 23867, Note_on_c, 14, 45, 0
15, 23940, Note_on_c, 14, 43, 90
15, 23999, Note_on_c, 14, 43, 0
15, 24000, Note_on_c, 14, 55, 90
15, 24029, Note_on_c, 14, 55, 0
15, 24030, Note_on_c, 14, 53, 90
15, 24059, Note_on_c, 14, 53, 0
15, 24060, Note_on_c, 14, 55, 90
15, 24089, Note_on_c, 14, 55, 0
15, 24090, Note_on_c, 14, 52, 90
15, 24119, Note_on_c, 14, 52, 0
15, 24120, Note_on_c, 14, 53, 90
15, 24179, Note_on_c, 14, 53, 0
15, 24180, Note_on_c, 14, 55, 90
15, 24239, Note_on_c, 14, 55, 0
15, 24240, Note_on_c, 14, 57, 90
15, 24299, Note_on_c, 14, 57, 0
15, 24300, Note_on_c, 14, 50, 90
15, 24359, Note_on_c, 14, 50, 0
15, 24360, Note_on_c, 14, 45, 90
15, 24389, Note_on_c, 14, 45, 0
15, 24390, Note_on_c, 14, 43, 90
15, 24419, Note_on_c, 14, 43, 0
15, 24420, Note_on_c, 14, 41, 90
15, 24449, Note_on_c, 14, 41, 0
15, 24450, Note_on_c, 14, 40, 90
15, 24479, Note_on_c, 14, 40, 0
15, 24480, Note_on_c, 14, 38, 90
15, 24539, Note_on_c, 14, 38, 0
15, 24540, Note_on_c, 14, 43, 90
15, 24599, Note_on_c, 14, 43, 0
15, 24600, Note_on_c, 14, 41, 90
15, 24659, Note_on_c, 14, 41, 0
15, 24660, Note_on_c, 14, 40, 90
15, 24719, Note_on_c, 14, 40, 0
15, 24720, Note_on_c, 14, 38, 90
15, 24779, Note_on_c, 14, 38, 0
15, 24780, Note_on_c, 14, 36, 90
15, 24839, Note_on_c, 14, 36, 0
15, 24840, Note_on_c, 14, 38, 90
15, 24899, Note_on_c, 14, 38, 0
15, 24900, Note_on_c, 14, 43, 90
15, 24929, Note_on_c, 14, 43, 0
15, 24930, Note_on_c, 14, 41, 90
15, 24959, Note_on_c, 14, 41, 0
15, 24960, Note_on_c, 14, 43, 90
15, 25019, Note_on_c, 14, 43, 0
15, 25020, Note_on_c, 14, 48, 90
15, 25079, Note_on_c, 14, 48, 0
15, 25080, Note_on_c, 14, 50, 90
15, 25139, Note_on_c, 14, 50, 0
15, 25140, Note_on_c, 14, 52, 90
15, 25199, Note_on_c, 14, 52, 0
15, 25200, Note_on_c, 14, 45, 90
15, 25319, Note_on_c, 14, 45, 0
15, 25320, Note_on_c, 14, 47, 90
15, 25379, Note_on_c, 14, 47, 0
15, 25380, Note_on_c, 14, 48, 90
15, 25439, Note_on_c, 14, 48, 0
15, 25440, Note_on_c, 14, 47, 90
15, 25499, Note_on_c, 14, 47, 0
15, 25500, Note_on_c, 14, 45, 90
15, 25559, Note_on_c, 14, 45, 0
15, 25560, Note_on_c, 14, 50, 90
15, 25619, Note_on_c, 14, 50, 0
15, 25620, Note_on_c, 14, 52, 90
15, 25679, Note_on_c, 14, 52, 0
15, 25680, Note_on_c, 14, 53, 90
15, 25727, Note_on_c, 14, 53, 0
15, 25740, Note_on_c, 14, 52, 90
15, 25799, Note_on_c, 14, 52, 0
15, 25800, Note_on_c, 14, 54, 90
15, 25859, Note_on_c, 14, 54, 0
15, 25860, Note_on_c, 14, 56, 90
15, 25907, Note_on_c, 14, 56, 0
15, 25920, Note_on_c, 14, 57, 90
15, 25967, Note_on_c, 14, 57, 0
15, 25980, Note_on_c, 14, 45, 90
15, 26039, Note_on_c, 14, 45, 0
15, 26040, Note_on_c, 14, 44, 90
15, 26099, Note_on_c, 14, 44, 0
15, 26100, Note_on_c, 14, 45, 90
15, 26147, Note_on_c, 14, 45, 0
15, 26160, Note_on_c, 14, 57, 90
15, 26219, Note_on_c, 14, 57, 0
15, 26220, Note_on_c, 14, 55, 90
15, 26279, Note_on_c, 14, 55, 0
15, 26280, Note_on_c, 14, 53, 90
15, 26327, Note_on_c, 14, 53, 0
15, 26340, Note_on_c, 14, 50, 90
15, 26387, Note_on_c, 14, 50, 0
15, 26400, Note_on_c, 14, 57, 90
15, 26447, Note_on_c, 14, 57, 0
15, 26460, Note_on_c, 14, 53, 90
15, 26507, Note_on_c, 14, 53, 0
15, 26520, Note_on_c, 14, 50, 90
15, 26567, Note_on_c, 14, 50, 0
15, 26580, Note_on_c, 14, 53, 90
15, 26627, Note_on_c, 14, 53, 0
15, 26640, Note_on_c, 14, 55, 90
15, 26687, Note_on_c, 14, 55, 0
15, 26700, Note_on_c, 14, 43, 90
15, 26759, Note_on_c, 14, 43, 0
15, 26760, Note_on_c, 14, 42, 90
15, 26819, Note_on_c, 14, 42, 0
15, 26820, Note_on_c, 14, 43, 90
15, 26867, Note_on_c, 14, 43, 0
15, 26880, Note_on_c, 14, 55, 90
15, 26939, Note_on_c, 14, 55, 0
15, 26940, Note_on_c, 14, 53, 90
15, 26999, Note_on_c, 14, 53, 0
15, 27000, Note_on_c, 14, 52, 90
15, 27047, Note_on_c, 14, 52, 0
15, 27060, Note_on_c, 14, 48, 90
15, 27107, Note_on_c, 14, 48, 0
15, 27120, Note_on_c, 14, 55, 90
15, 27167, Note_on_c, 14, 55, 0
15, 27180, Note_on_c, 14, 52, 90
15, 27227, Note_on_c, 14, 52, 0
15, 27240, Note_on_c, 14, 48, 90
15, 27287, Note_on_c, 14, 48, 0
15, 27300, Note_on_c, 14, 52, 90
15, 27347, Note_on_c, 14, 52, 0
15, 27360, Note_on_c, 14, 53, 90
15, 27419, Note_on_c, 14, 53, 0
15, 27420, Note_on_c, 14, 52, 90
15, 27479, Note_on_c, 14, 52, 0
15, 27480, Note_on_c, 14, 53, 90
15, 27527, Note_on_c, 14, 53, 0
15, 27540, Note_on_c, 14, 50, 90
15, 27599, Note_on_c, 14, 50, 0
15, 27600, Note_on_c, 14, 49, 90
15, 27659, Note_on_c, 14, 49, 0
15, 27660, Note_on_c, 14, 50, 90
15, 27707, Note_on_c, 14, 50, 0
15, 27720, Note_on_c, 14, 52, 90
15, 27779, Note_on_c, 14, 52, 0
15, 27780, Note_on_c, 14, 50, 90
15, 27839, Note_on_c, 14, 50, 0
15, 27840, Note_on_c, 14, 52, 90
15, 27887, Note_on_c, 14, 52, 0
15, 27900, Note_on_c, 14, 49, 90
15, 27959, Note_on_c, 14, 49, 0
15, 27960, Note_on_c, 14, 47, 90
15, 28019, Note_on_c, 14, 47, 0
15, 28020, Note_on_c, 14, 49, 90
15, 28067, Note_on_c, 14, 49, 0
15, 28080, Note_on_c, 14, 50, 90
15, 28199, Note_on_c, 14, 50, 0
15, 28200, Note_on_c, 14, 52, 90
15, 28259, Note_on_c, 14, 52, 0
15, 28260, Note_on_c, 14, 53, 90
15, 28319, Note_on_c, 14, 53, 0
15, 28320, Note_on_c, 14, 47, 90
15, 28379, Note_on_c, 14, 47, 0
15, 28380, Note_on_c, 14, 48, 90
15, 28439, Note_on_c, 14, 48, 0
15, 28440, Note_on_c, 14, 50, 90
15, 28499, Note_on_c, 14, 50, 0
15, 28500, Note_on_c, 14, 52, 90
15, 28559, Note_on_c, 14, 52, 0
15, 28560, Note_on_c, 14, 40, 90
15, 28619, Note_on_c, 14, 40, 0
15, 28620, Note_on_c, 14, 45, 90
15, 28739, Note_on_c, 14, 45, 0
15, 28800, Note_on_c, 14, 53, 90
15, 29159, Note_on_c, 14, 53, 0
15, 29220, Note_on_c, 14, 46, 90
15, 29267, Note_on_c, 14, 46, 0
15, 29280, Note_on_c, 14, 45, 90
15, 29327, Note_on_c, 14, 45, 0
15, 29400, Note_on_c, 14, 40, 90
15, 29447, Note_on_c, 14, 40, 0
15, 29460, Note_on_c, 14, 41, 90
15, 29507, Note_on_c, 14, 41, 0
15, 29520, Note_on_c, 14, 51, 90
15, 29579, Note_on_c, 14, 51, 0
15, 29580, Note_on_c, 14, 50, 90
15, 29639, Note_on_c, 14, 50, 0
15, 29640, Note_on_c, 14, 48, 90
15, 29699, Note_on_c, 14, 48, 0
15, 29700, Note_on_c, 14, 46, 90
15, 29747, Note_on_c, 14, 46, 0
15, 29760, Note_on_c, 14, 53, 90
15, 29807, Note_on_c, 14, 53, 0
15, 29940, Note_on_c, 14, 51, 90
15, 29987, Note_on_c, 14, 51, 0
15, 30000, Note_on_c, 14, 50, 90
15, 30047, Note_on_c, 14, 50, 0
15, 30120, Note_on_c, 14, 45, 90
15, 30167, Note_on_c, 14, 45, 0
15, 30180, Note_on_c, 14, 46, 90
15, 30227, Note_on_c, 14, 46, 0
15, 30240, Note_on_c, 14, 45, 90
15, 30299, Note_on_c, 14, 45, 0
15, 30300, Note_on_c, 14, 43, 90
15, 30359, Note_on_c, 14, 43, 0
15, 30360, Note_on_c, 14, 48, 90
15, 30419, Note_on_c, 14, 48, 0
15, 30420, Note_on_c, 14, 45, 90
15, 30479, Note_on_c, 14, 45, 0
15, 30480, Note_on_c, 14, 46, 90
15, 30539, Note_on_c, 14, 46, 0
15, 30540, Note_on_c, 14, 48, 90
15, 30599, Note_on_c, 14, 48, 0
15, 30600, Note_on_c, 14, 41, 90
15, 30659, Note_on_c, 14, 41, 0
15, 30660, Note_on_c, 14, 46, 90
15, 30719, Note_on_c, 14, 46, 0
15, 30720, Note_on_c, 14, 43, 90
15, 30779, Note_on_c, 14, 43, 0
15, 30780, Note_on_c, 14, 48, 90
15, 30839, Note_on_c, 14, 48, 0
15, 30840, Note_on_c, 14, 43, 90
15, 30869, Note_on_c, 14, 43, 0
15, 30870, Note_on_c, 14, 41, 90
15, 30899, Note_on_c, 14, 41, 0
15, 30900, Note_on_c, 14, 40, 90
15, 30929, Note_on_c, 14, 40, 0
15, 30930, Note_on_c, 14, 38, 90
15, 30959, Note_on_c, 14, 38, 0
15, 30960, Note_on_c, 14, 36, 90
15, 31019, Note_on_c, 14, 36, 0
15, 31080, Note_on_c, 14, 40, 90
15, 31139, Note_on_c, 14, 40, 0
15, 31140, Note_on_c, 14, 41, 90
15, 31199, Note_on_c, 14, 41, 0
15, 31260, Note_on_c, 14, 43, 90
15, 31319, Note_on_c, 14, 43, 0
15, 31320, Note_on_c, 14, 45, 90
15, 31379, Note_on_c, 14, 45, 0
15, 31440, Note_on_c, 14, 41, 90
15, 31499, Note_on_c, 14, 41, 0
15, 31500, Note_on_c, 14, 48, 90
15, 31619, Note_on_c, 14, 48, 0
15, 31620, Note_on_c, 14, 50, 90
15, 31679, Note_on_c, 14, 50, 0
15, 31680, Note_on_c, 14, 52, 90
15, 31739, Note_on_c, 14, 52, 0
15, 31740, Note_on_c, 14, 50, 90
15, 31799, Note_on_c, 14, 50, 0
15, 31800, Note_on_c, 14, 48, 90
15, 31859, Note_on_c, 14, 48, 0
15, 31860, Note_on_c, 14, 53, 90
15, 31979, Note_on_c, 14, 53, 0
15, 31980, Note_on_c, 14, 46, 90
15, 32039, Note_on_c, 14, 46, 0
15, 32040, Note_on_c, 14, 45, 90
15, 32099, Note_on_c, 14, 45, 0
15, 32100, Note_on_c, 14, 43, 90
15, 32159, Note_on_c, 14, 43, 0
15, 32160, Note_on_c, 14, 41, 90
15, 32219, Note_on_c, 14, 41, 0
15, 32220, Note_on_c, 14, 48, 90
15, 32339, Note_on_c, 14, 48, 0
15, 32340, Note_on_c, 14, 50, 90
15, 32399, Note_on_c, 14, 50, 0
15, 32400, Note_on_c, 14, 52, 90
15, 32459, Note_on_c, 14, 52, 0
15, 32460, Note_on_c, 14, 50, 90
15, 32519, Note_on_c, 14, 50, 0
15, 32520, Note_on_c, 14, 48, 90
15, 32579, Note_on_c, 14, 48, 0
15, 32580, Note_on_c, 14, 58, 90
15, 32699, Note_on_c, 14, 58, 0
15, 32700, Note_on_c, 14, 58, 90
15, 32759, Note_on_c, 14, 58, 0
15, 32760, Note_on_c, 14, 57, 90
15, 32819, Note_on_c, 14, 57, 0
15, 32820, Note_on_c, 14, 55, 90
15, 32879, Note_on_c, 14, 55, 0
15, 32880, Note_on_c, 14, 53, 90
15, 32939, Note_on_c, 14, 53, 0
15, 32940, Note_on_c, 14, 58, 90
15, 32987, Note_on_c, 14, 58, 0
15, 33000, Note_on_c, 14, 46, 90
15, 33047, Note_on_c, 14, 46, 0
15, 33120, Note_on_c, 14, 54, 90
15, 33239, Note_on_c, 14, 54, 0
15, 33240, Note_on_c, 14, 50, 90
15, 33299, Note_on_c, 14, 50, 0
15, 33300, Note_on_c, 14, 55, 90
15, 33419, Note_on_c, 14, 55, 0
15, 33420, Note_on_c, 14, 53, 90
15, 33479, Note_on_c, 14, 53, 0
15, 33480, Note_on_c, 14, 52, 90
15, 33599, Note_on_c, 14, 52, 0
15, 33600, Note_on_c, 14, 48, 90
15, 33659, Note_on_c, 14, 48, 0
15, 33660, Note_on_c, 14, 53, 90
15, 33719, Note_on_c, 14, 53, 0
15, 33720, Note_on_c, 14, 52, 90
15, 33779, Note_on_c, 14, 52, 0
15, 33780, Note_on_c, 14, 50, 90
15, 33839, Note_on_c, 14, 50, 0
15, 33840, Note_on_c, 14, 48, 90
15, 33899, Note_on_c, 14, 48, 0
15, 33900, Note_on_c, 14, 46, 90
15, 33959, Note_on_c, 14, 46, 0
15, 33960, Note_on_c, 14, 45, 90
15, 34019, Note_on_c, 14, 45, 0
15, 34080, Note_on_c, 14, 48, 90
15, 34127, Note_on_c, 14, 48, 0
15, 34140, Note_on_c, 14, 53, 90
15, 34187, Note_on_c, 14, 53, 0
15, 34200, Note_on_c, 14, 46, 90
15, 34259, Note_on_c, 14, 46, 0
15, 34260, Note_on_c, 14, 45, 90
15, 34319, Note_on_c, 14, 45, 0
15, 34320, Note_on_c, 14, 43, 90
15, 34379, Note_on_c, 14, 43, 0
15, 34380, Note_on_c, 14, 41, 90
15, 34427, Note_on_c, 14, 41, 0
15, 34440, Note_on_c, 14, 48, 90
15, 34487, Note_on_c, 14, 48, 0
15, 34500, Note_on_c, 14, 53, 90
15, 34547, Note_on_c, 14, 53, 0
15, 34620, Note_on_c, 14, 51, 90
15, 34667, Note_on_c, 14, 51, 0
15, 34680, Note_on_c, 14, 50, 90
15, 34727, Note_on_c, 14, 50, 0
15, 34800, Note_on_c, 14, 53, 90
15, 34847, Note_on_c, 14, 53, 0
15, 34860, Note_on_c, 14, 58, 90
15, 34907, Note_on_c, 14, 58, 0
15, 34920, Note_on_c, 14, 51, 90
15, 34979, Note_on_c, 14, 51, 0
15, 34980, Note_on_c, 14, 50, 90
15, 35039, Note_on_c, 14, 50, 0
15, 35040, Note_on_c, 14, 48, 90
15, 35099, Note_on_c, 14, 48, 0
15, 35100, Note_on_c, 14, 46, 90
15, 35147, Note_on_c, 14, 46, 0
15, 35160, Note_on_c, 14, 53, 90
15, 35207, Note_on_c, 14, 53, 0
15, 35220, Note_on_c, 14, 58, 90
15, 35267, Note_on_c, 14, 58, 0
15, 35280, Note_on_c, 14, 46, 90
15, 35327, Note_on_c, 14, 46, 0
15, 35340, Note_on_c, 14, 45, 90
15, 35387, Note_on_c, 14, 45, 0
15, 35460, Note_on_c, 14, 43, 90
15, 35489, Note_on_c, 14, 43, 0
15, 35490, Note_on_c, 14, 41, 90
15, 35519, Note_on_c, 14, 41, 0
15, 35520, Note_on_c, 14, 43, 90
15, 35579, Note_on_c, 14, 43, 0
15, 35580, Note_on_c, 14, 40, 90
15, 35639, Note_on_c, 14, 40, 0
15, 35640, Note_on_c, 14, 45, 90
15, 35687, Note_on_c, 14, 45, 0
15, 35700, Note_on_c, 14, 43, 90
15, 35747, Note_on_c, 14, 43, 0
15, 35820, Note_on_c, 14, 42, 90
15, 35849, Note_on_c, 14, 42, 0
15, 35850, Note_on_c, 14, 40, 90
15, 35879, Note_on_c, 14, 40, 0
15, 35880, Note_on_c, 14, 42, 90
15, 35939, Note_on_c, 14, 42, 0
15, 35940, Note_on_c, 14, 38, 90
15, 35999, Note_on_c, 14, 38, 0
15, 36000, Note_on_c, 14, 43, 90
15, 36047, Note_on_c, 14, 43, 0
15, 36060, Note_on_c, 14, 41, 90
15, 36107, Note_on_c, 14, 41, 0
15, 36180, Note_on_c, 14, 40, 90
15, 36209, Note_on_c, 14, 40, 0
15, 36210, Note_on_c, 14, 38, 90
15, 36239, Note_on_c, 14, 38, 0
15, 36240, Note_on_c, 14, 40, 90
15, 36299, Note_on_c, 14, 40, 0
15, 36300, Note_on_c, 14, 36, 90
15, 36359, Note_on_c, 14, 36, 0
15, 36360, Note_on_c, 14, 41, 90
15, 36419, Note_on_c, 14, 41, 0
15, 36420, Note_on_c, 14, 38, 90
15, 36479, Note_on_c, 14, 38, 0
15, 36480, Note_on_c, 14, 46, 90
15, 36539, Note_on_c, 14, 46, 0
15, 36540, Note_on_c, 14, 48, 90
15, 36599, Note_on_c, 14, 48, 0
15, 36600, Note_on_c, 14, 50, 90
15, 36659, Note_on_c, 14, 50, 0
15, 36660, Note_on_c, 14, 52, 90
15, 36719, Note_on_c, 14, 52, 0
15, 36720, Note_on_c, 14, 53, 90
15, 36779, Note_on_c, 14, 53, 0
15, 36780, Note_on_c, 14, 52, 90
15, 36839, Note_on_c, 14, 52, 0
15, 36840, Note_on_c, 14, 50, 90
15, 36899, Note_on_c, 14, 50, 0
15, 36900, Note_on_c, 14, 52, 90
15, 36959, Note_on_c, 14, 52, 0
15, 36960, Note_on_c, 14, 45, 90
15, 37019, Note_on_c, 14, 45, 0
15, 37020, Note_on_c, 14, 38, 90
15, 37079, Note_on_c, 14, 38, 0
15, 37080, Note_on_c, 14, 50, 90
15, 37199, Note_on_c, 14, 50, 0
15, 37200, Note_on_c, 14, 48, 90
15, 37259, Note_on_c, 14, 48, 0
15, 37260, Note_on_c, 14, 46, 90
15, 37307, Note_on_c, 14, 46, 0
15, 37320, Note_on_c, 14, 53, 90
15, 37367, Note_on_c, 14, 53, 0
15, 37620, Note_on_c, 14, 46, 90
15, 37649, Note_on_c, 14, 46, 0
15, 37650, Note_on_c, 14, 45, 90
15, 37679, Note_on_c, 14, 45, 0
15, 37680, Note_on_c, 14, 46, 90
15, 37709, Note_on_c, 14, 46, 0
15, 37710, Note_on_c, 14, 48, 90
15, 37739, Note_on_c, 14, 48, 0
15, 37740, Note_on_c, 14, 50, 90
15, 37769, Note_on_c, 14, 50, 0
15, 37770, Note_on_c, 14, 51, 90
15, 37799, Note_on_c, 14, 51, 0
15, 37800, Note_on_c, 14, 53, 90
15, 37859, Note_on_c, 14, 53, 0
15, 37860, Note_on_c, 14, 41, 90
15, 37919, Note_on_c, 14, 41, 0
15, 37980, Note_on_c, 14, 53, 90
15, 38009, Note_on_c, 14, 53, 0
15, 38010, Note_on_c, 14, 52, 90
15, 38039, Note_on_c, 14, 52, 0
15, 38040, Note_on_c, 14, 53, 90
15, 38069, Note_on_c, 14, 53, 0
15, 38070, Note_on_c, 14, 55, 90
15, 38099, Note_on_c, 14, 55, 0
15, 38100, Note_on_c, 14, 57, 90
15, 38129, Note_on_c, 14, 57, 0
15, 38130, Note_on_c, 14, 53, 90
15, 38159, Note_on_c, 14, 53, 0
15, 38160, Note_on_c, 14, 58, 90
15, 38219, Note_on_c, 14, 58, 0
15, 38220, Note_on_c, 14, 46, 90
15, 38279, Note_on_c, 14, 46, 0
15, 38340, Note_on_c, 14, 46, 90
15, 38399, Note_on_c, 14, 46, 0
15, 38400, Note_on_c, 14, 45, 90
15, 38459, Note_on_c, 14, 45, 0
15, 38460, Note_on_c, 14, 46, 90
15, 38519, Note_on_c, 14, 46, 0
15, 38520, Note_on_c, 14, 41, 90
15, 38567, Note_on_c, 14, 41, 0
15, 38580, Note_on_c, 14, 53, 90
15, 38627, Note_on_c, 14, 53, 0
15, 38700, Note_on_c, 14, 53, 90
15, 38759, Note_on_c, 14, 53, 0
15, 38760, Note_on_c, 14, 55, 90
15, 38819, Note_on_c, 14, 55, 0
15, 38820, Note_on_c, 14, 57, 90
15, 38879, Note_on_c, 14, 57, 0
15, 38880, Note_on_c, 14, 58, 90
15, 39119, Note_on_c, 14, 58, 0
15, 39120, Note_on_c, 14, 57, 90
15, 39179, Note_on_c, 14, 57, 0
15, 39180, Note_on_c, 14, 55, 90
15, 39269, Note_on_c, 14, 55, 0
15, 39270, Note_on_c, 14, 53, 90
15, 39299, Note_on_c, 14, 53, 0
15, 39300, Note_on_c, 14, 55, 90
15, 39329, Note_on_c, 14, 55, 0
15, 39330, Note_on_c, 14, 57, 90
15, 39359, Note_on_c, 14, 57, 0
15, 39360, Note_on_c, 14, 55, 90
15, 39389, Note_on_c, 14, 55, 0
15, 39390, Note_on_c, 14, 53, 90
15, 39419, Note_on_c, 14, 53, 0
15, 39420, Note_on_c, 14, 52, 90
15, 39449, Note_on_c, 14, 52, 0
15, 39450, Note_on_c, 14, 50, 90
15, 39479, Note_on_c, 14, 50, 0
15, 39480, Note_on_c, 14, 52, 90
15, 39509, Note_on_c, 14, 52, 0
15, 39510, Note_on_c, 14, 48, 90
15, 39539, Note_on_c, 14, 48, 0
15, 39540, Note_on_c, 14, 50, 90
15, 39569, Note_on_c, 14, 50, 0
15, 39570, Note_on_c, 14, 52, 90
15, 39599, Note_on_c, 14, 52, 0
15, 39600, Note_on_c, 14, 53, 90
15, 39659, Note_on_c, 14, 53, 0
15, 39660, Note_on_c, 14, 46, 90
15, 39719, Note_on_c, 14, 46, 0
15, 39720, Note_on_c, 14, 45, 90
15, 39779, Note_on_c, 14, 45, 0
15, 39780, Note_on_c, 14, 43, 90
15, 39839, Note_on_c, 14, 43, 0
15, 39840, Note_on_c, 14, 45, 90
15, 39899, Note_on_c, 14, 45, 0
15, 39900, Note_on_c, 14, 50, 90
15, 39959, Note_on_c, 14, 50, 0
15, 39960, Note_on_c, 14, 46, 90
15, 40019, Note_on_c, 14, 46, 0
15, 40020, Note_on_c, 14, 48, 90
15, 40079, Note_on_c, 14, 48, 0
15, 40080, Note_on_c, 14, 36, 90
15, 40139, Note_on_c, 14, 36, 0
15, 40140, Note_on_c, 14, 41, 90
15, 40169, Note_on_c, 14, 41, 0
15, 40170, Note_on_c, 14, 40, 90
15, 40199, Note_on_c, 14, 40, 0
15, 40200, Note_on_c, 14, 41, 90
15, 40229, Note_on_c, 14, 41, 0
15, 40230, Note_on_c, 14, 43, 90
15, 40259, Note_on_c, 14, 43, 0
15, 40260, Note_on_c, 14, 45, 90
15, 40289, Note_on_c, 14, 45, 0
15, 40290, Note_on_c, 14, 46, 90
15, 40319, Note_on_c, 14, 46, 0
15, 40320, Note_on_c, 14, 48, 90
15, 40379, Note_on_c, 14, 48, 0
15, 40380, Note_on_c, 14, 58, 90
15, 40427, Note_on_c, 14, 58, 0
15, 40440, Note_on_c, 14, 57, 90
15, 40487, Note_on_c, 14, 57, 0
15, 40560, Note_on_c, 14, 52, 90
15, 40607, Note_on_c, 14, 52, 0
15, 40620, Note_on_c, 14, 53, 90
15, 40667, Note_on_c, 14, 53, 0
15, 40680, Note_on_c, 14, 46, 90
15, 40739, Note_on_c, 14, 46, 0
15, 40740, Note_on_c, 14, 45, 90
15, 40799, Note_on_c, 14, 45, 0
15, 40800, Note_on_c, 14, 43, 90
15, 40859, Note_on_c, 14, 43, 0
15, 40860, Note_on_c, 14, 41, 90
15, 40907, Note_on_c, 14, 41, 0
15, 40920, Note_on_c, 14, 48, 90
15, 40967, Note_on_c, 14, 48, 0
15, 40980, Note_on_c, 14, 53, 90
15, 41027, Note_on_c, 14, 53, 0
15, 41100, Note_on_c, 14, 51, 90
15, 41147, Note_on_c, 14, 51, 0
15, 41160, Note_on_c, 14, 50, 90
15, 41207, Note_on_c, 14, 50, 0
15, 41280, Note_on_c, 14, 45, 90
15, 41327, Note_on_c, 14, 45, 0
15, 41340, Note_on_c, 14, 46, 90
15, 41387, Note_on_c, 14, 46, 0
15, 41400, Note_on_c, 14, 60, 90
15, 41459, Note_on_c, 14, 60, 0
15, 41460, Note_on_c, 14, 58, 90
15, 41519, Note_on_c, 14, 58, 0
15, 41520, Note_on_c, 14, 57, 90
15, 41579, Note_on_c, 14, 57, 0
15, 41580, Note_on_c, 14, 55, 90
15, 41627, Note_on_c, 14, 55, 0
15, 41640, Note_on_c, 14, 50, 90
15, 41687, Note_on_c, 14, 50, 0
15, 41700, Note_on_c, 14, 43, 90
15, 41747, Note_on_c, 14, 43, 0
15, 41760, Note_on_c, 14, 55, 90
15, 41807, Note_on_c, 14, 55, 0
15, 41820, Note_on_c, 14, 53, 90
15, 41867, Note_on_c, 14, 53, 0
15, 41940, Note_on_c, 14, 52, 90
15, 41969, Note_on_c, 14, 52, 0
15, 41970, Note_on_c, 14, 50, 90
15, 41999, Note_on_c, 14, 50, 0
15, 42000, Note_on_c, 14, 52, 90
15, 42059, Note_on_c, 14, 52, 0
15, 42060, Note_on_c, 14, 48, 90
15, 42119, Note_on_c, 14, 48, 0
15, 42120, Note_on_c, 14, 53, 90
15, 42167, Note_on_c, 14, 53, 0
15, 42180, Note_on_c, 14, 52, 90
15, 42227, Note_on_c, 14, 52, 0
15, 42300, Note_on_c, 14, 50, 90
15, 42329, Note_on_c, 14, 50, 0
15, 42330, Note_on_c, 14, 48, 90
15, 42359, Note_on_c, 14, 48, 0
15, 42360, Note_on_c, 14, 50, 90
15, 42419, Note_on_c, 14, 50, 0
15, 42420, Note_on_c, 14, 46, 90
15, 42479, Note_on_c, 14, 46, 0
15, 42480, Note_on_c, 14, 40, 90
15, 42539, Note_on_c, 14, 40, 0
15, 42540, Note_on_c, 14, 52, 90
15, 42569, Note_on_c, 14, 52, 0
15, 42570, Note_on_c, 14, 50, 90
15, 42599, Note_on_c, 14, 50, 0
15, 42600, Note_on_c, 14, 52, 90
15, 42629, Note_on_c, 14, 52, 0
15, 42630, Note_on_c, 14, 48, 90
15, 42659, Note_on_c, 14, 48, 0
15, 42660, Note_on_c, 14, 53, 90
15, 42719, Note_on_c, 14, 53, 0
15, 42720, Note_on_c, 14, 41, 90
15, 42749, Note_on_c, 14, 41, 0
15, 42750, Note_on_c, 14, 40, 90
15, 42779, Note_on_c, 14, 40, 0
15, 42780, Note_on_c, 14, 41, 90
15, 42809, Note_on_c, 14, 41, 0
15, 42810, Note_on_c, 14, 43, 90
15, 42839, Note_on_c, 14, 43, 0
15, 42840, Note_on_c, 14, 45, 90
15, 42899, Note_on_c, 14, 45, 0
15, 42900, Note_on_c, 14, 46, 90
15, 42959, Note_on_c, 14, 46, 0
15, 42960, Note_on_c, 14, 48, 90
15, 43019, Note_on_c, 14, 48, 0
15, 43020, Note_on_c, 14, 41, 90
15, 43199, Note_on_c, 14, 41, 0
15, 60180, Note_on_c, 14, 48, 100
15, 60300, Note_on_c, 14, 48, 0
15, 60300, Note_on_c, 14, 50, 100
15, 60360, Note_on_c, 14, 50, 0
15, 60360, Note_on_c, 14, 52, 100
15, 60480, Note_on_c, 14, 52, 0
15, 60480, Note_on_c, 14, 48, 100
15, 60540, Note_on_c, 14, 48, 0
15, 60540, Note_on_c, 14, 53, 100
15, 60660, Note_on_c, 14, 53, 0
15, 60660, Note_on_c, 14, 48, 100
15, 60720, Note_on_c, 14, 48, 0
15, 61020, Note_on_c, 14, 48, 100
15, 61080, Note_on_c, 14, 48, 0
15, 61080, Note_on_c, 14, 52, 100
15, 61200, Note_on_c, 14, 52, 0
15, 61200, Note_on_c, 14, 55, 100
15, 61260, Note_on_c, 14, 55, 0
15, 61260, Note_on_c, 14, 60, 100
15, 61380, Note_on_c, 14, 60, 0
15, 61380, Note_on_c, 14, 55, 100
15, 61440, Note_on_c, 14, 55, 0
15, 61620, Note_on_c, 14, 48, 100
15, 61740, Note_on_c, 14, 48, 0
15, 61740, Note_on_c, 14, 50, 100
15, 61800, Note_on_c, 14, 50, 0
15, 61800, Note_on_c, 14, 52, 100
15, 61920, Note_on_c, 14, 52, 0
15, 61920, Note_on_c, 14, 53, 100
15, 61980, Note_on_c, 14, 53, 0
15, 61980, Note_on_c, 14, 52, 100
15, 62100, Note_on_c, 14, 52, 0
15, 62100, Note_on_c, 14, 57, 100
15, 62160, Note_on_c, 14, 57, 0
15, 62160, Note_on_c, 14, 50, 100
15, 62280, Note_on_c, 14, 50, 0
15, 62280, Note_on_c, 14, 55, 100
15, 62340, Note_on_c, 14, 55, 0
15, 62340, Note_on_c, 14, 48, 100
15, 62460, Note_on_c, 14, 48, 0
15, 62460, Note_on_c, 14, 50, 100
15, 62520, Note_on_c, 14, 50, 0
15, 62520, Note_on_c, 14, 52, 100
15, 62640, Note_on_c, 14, 52, 0
15, 62640, Note_on_c, 14, 53, 100
15, 62700, Note_on_c, 14, 53, 0
15, 62700, Note_on_c, 14, 48, 100
15, 62820, Note_on_c, 14, 48, 0
15, 62820, Note_on_c, 14, 52, 100
15, 62880, Note_on_c, 14, 52, 0
15, 62880, Note_on_c, 14, 50, 100
15, 63000, Note_on_c, 14, 50, 0
15, 63000, Note_on_c, 14, 55, 100
15, 63060, Note_on_c, 14, 55, 0
15, 63060, Note_on_c, 14, 48, 100
15, 63180, Note_on_c, 14, 48, 0
15, 63180, Note_on_c, 14, 50, 100
15, 63240, Note_on_c, 14, 50, 0
15, 63240, Note_on_c, 14, 52, 100
15, 63360, Note_on_c, 14, 52, 0
15, 63360, Note_on_c, 14, 48, 100
15, 63420, Note_on_c, 14, 48, 0
15, 63420, Note_on_c, 14, 53, 100
15, 63540, Note_on_c, 14, 53, 0
15, 63540, Note_on_c, 14, 52, 100
15, 63600, Note_on_c, 14, 52, 0
15, 63600, Note_on_c, 14, 50, 100
15, 63720, Note_on_c, 14, 50, 0
15, 63720, Note_on_c, 14, 48, 100
15, 63780, Note_on_c, 14, 48, 0
15, 63780, Note_on_c, 14, 47, 100
15, 63840, Note_on_c, 14, 47, 0
15, 63840, Note_on_c, 14, 45, 100
15, 63900, Note_on_c, 14, 45, 0
15, 63900, Note_on_c, 14, 43, 100
15, 63960, Note_on_c, 14, 43, 0
15, 63960, Note_on_c, 14, 42, 100
15, 64080, Note_on_c, 14, 42, 0
15, 64080, Note_on_c, 14, 38, 100
15, 64140, Note_on_c, 14, 38, 0
15, 64140, Note_on_c, 14, 43, 100
15, 64260, Note_on_c, 14, 43, 0
15, 64260, Note_on_c, 14, 40, 100
15, 64320, Note_on_c, 14, 40, 0
15, 64320, Note_on_c, 14, 36, 100
15, 64440, Note_on_c, 14, 36, 0
15, 64440, Note_on_c, 14, 38, 100
15, 64500, Note_on_c, 14, 38, 0
15, 64500, Note_on_c, 14, 43, 100
15, 64620, Note_on_c, 14, 43, 0
15, 64860, Note_on_c, 14, 48, 100
15, 64980, Note_on_c, 14, 48, 0
15, 65220, Note_on_c, 14, 45, 100
15, 65340, Note_on_c, 14, 45, 0
15, 65580, Note_on_c, 14, 50, 100
15, 65700, Note_on_c, 14, 50, 0
15, 65940, Note_on_c, 14, 54, 100
15, 66060, Note_on_c, 14, 54, 0
15, 66060, Note_on_c, 14, 50, 100
15, 66120, Note_on_c, 14, 50, 0
15, 66120, Note_on_c, 14, 55, 100
15, 66240, Note_on_c, 14, 55, 0
15, 66240, Note_on_c, 14, 52, 100
15, 66300, Note_on_c, 14, 52, 0
15, 66300, Note_on_c, 14, 48, 100
15, 66420, Note_on_c, 14, 48, 0
15, 66420, Note_on_c, 14, 50, 100
15, 66480, Note_on_c, 14, 50, 0
15, 66480, Note_on_c, 14, 43, 100
15, 66540, Note_on_c, 14, 43, 0
15, 66540, Note_on_c, 14, 55, 100
15, 66570, Note_on_c, 14, 55, 0
15, 66570, Note_on_c, 14, 53, 100
15, 66600, Note_on_c, 14, 53, 0
15, 66600, Note_on_c, 14, 52, 100
15, 66630, Note_on_c, 14, 52, 0
15, 66630, Note_on_c, 14, 50, 100
15, 66660, Note_on_c, 14, 50, 0
15, 66660, Note_on_c, 14, 48, 100
15, 66780, Note_on_c, 14, 48, 0
15, 66780, Note_on_c, 14, 50, 100
15, 66840, Note_on_c, 14, 50, 0
15, 66840, Note_on_c, 14, 52, 100
15, 66960, Note_on_c, 14, 52, 0
15, 66960, Note_on_c, 14, 48, 100
15, 67020, Note_on_c, 14, 48, 0
15, 67020, Note_on_c, 14, 53, 100
15, 67140, Note_on_c, 14, 53, 0
15, 67140, Note_on_c, 14, 48, 100
15, 67200, Note_on_c, 14, 48, 0
15, 67500, Note_on_c, 14, 48, 100
15, 67560, Note_on_c, 14, 48, 0
15, 67560, Note_on_c, 14, 52, 100
15, 67680, Note_on_c, 14, 52, 0
15, 67680, Note_on_c, 14, 55, 100
15, 67740, Note_on_c, 14, 55, 0
15, 67740, Note_on_c, 14, 60, 100
15, 67860, Note_on_c, 14, 60, 0
15, 67860, Note_on_c, 14, 55, 100
15, 67920, Note_on_c, 14, 55, 0
15, 68100, Note_on_c, 14, 60, 100
15, 68160, Note_on_c, 14, 60, 0
15, 68160, Note_on_c, 14, 59, 100
15, 68190, Note_on_c, 14, 59, 0
15, 68190, Note_on_c, 14, 57, 100
15, 68220, Note_on_c, 14, 57, 0
15, 68220, Note_on_c, 14, 55, 100
15, 68250, Note_on_c, 14, 55, 0
15, 68250, Note_on_c, 14, 53, 100
15, 68280, Note_on_c, 14, 53, 0
15, 68280, Note_on_c, 14, 52, 100
15, 68400, Note_on_c, 14, 52, 0
15, 68400, Note_on_c, 14, 53, 100
15, 68460, Note_on_c, 14, 53, 0
15, 68460, Note_on_c, 14, 52, 100
15, 68580, Note_on_c, 14, 52, 0
15, 68580, Note_on_c, 14, 48, 100
15, 68640, Note_on_c, 14, 48, 0
15, 68640, Note_on_c, 14, 55, 100
15, 68760, Note_on_c, 14, 55, 0
15, 68760, Note_on_c, 14, 43, 100
15, 68820, Note_on_c, 14, 43, 0
15, 68820, Note_on_c, 14, 48, 100
15, 68939, Note_on_c, 14, 48, 0
15, 68940, Note_on_c, 14, 50, 100
15, 68999, Note_on_c, 14, 50, 0
15, 69000, Note_on_c, 14, 52, 100
15, 69119, Note_on_c, 14, 52, 0
15, 69120, Note_on_c, 14, 53, 100
15, 69179, Note_on_c, 14, 53, 0
15, 69180, Note_on_c, 14, 52, 100
15, 69299, Note_on_c, 14, 52, 0
15, 69300, Note_on_c, 14, 48, 100
15, 69359, Note_on_c, 14, 48, 0
15, 69360, Note_on_c, 14, 55, 100
15, 69479, Note_on_c, 14, 55, 0
15, 69480, Note_on_c, 14, 43, 100
15, 69539, Note_on_c, 14, 43, 0
15, 69540, Note_on_c, 14, 48, 100
15, 69659, Note_on_c, 14, 48, 0
15, 69660, Note_on_c, 14, 50, 100
15, 69719, Note_on_c, 14, 50, 0
15, 69720, Note_on_c, 14, 52, 100
15, 69839, Note_on_c, 14, 52, 0
15, 69840, Note_on_c, 14, 48, 100
15, 69899, Note_on_c, 14, 48, 0
15, 69900, Note_on_c, 14, 53, 100
15, 70019, Note_on_c, 14, 53, 0
15, 70020, Note_on_c, 14, 52, 100
15, 70079, Note_on_c, 14, 52, 0
15, 70080, Note_on_c, 14, 50, 100
15, 70199, Note_on_c, 14, 50, 0
15, 70200, Note_on_c, 14, 48, 100
15, 70259, Note_on_c, 14, 48, 0
15, 70260, Note_on_c, 14, 55, 100
15, 70379, Note_on_c, 14, 55, 0
15, 70380, Note_on_c, 14, 57, 100
15, 70439, Note_on_c, 14, 57, 0
15, 70440, Note_on_c, 14, 59, 100
15, 70559, Note_on_c, 14, 59, 0
15, 70560, Note_on_c, 14, 55, 100
15, 70619, Note_on_c, 14, 55, 0
15, 70620, Note_on_c, 14, 60, 100
15, 70739, Note_on_c, 14, 60, 0
15, 70740, Note_on_c, 14, 55, 100
15, 70799, Note_on_c, 14, 55, 0
15, 71100, Note_on_c, 14, 55, 100
15, 71159, Note_on_c, 14, 55, 0
15, 71160, Note_on_c, 14, 54, 100
15, 71279, Note_on_c, 14, 54, 0
15, 71280, Note_on_c, 14, 50, 100
15, 71339, Note_on_c, 14, 50, 0
15, 71340, Note_on_c, 14, 43, 100
15, 71459, Note_on_c, 14, 43, 0
15, 71460, Note_on_c, 14, 55, 100
15, 71519, Note_on_c, 14, 55, 0
15, 71520, Note_on_c, 14, 53, 100
15, 71579, Note_on_c, 14, 53, 0
15, 71580, Note_on_c, 14, 47, 100
15, 71639, Note_on_c, 14, 47, 0
15, 71640, Note_on_c, 14, 49, 100
15, 71699, Note_on_c, 14, 49, 0
15, 71700, Note_on_c, 14, 50, 100
15, 71819, Note_on_c, 14, 50, 0
15, 71820, Note_on_c, 14, 52, 100
15, 71879, Note_on_c, 14, 52, 0
15, 71880, Note_on_c, 14, 53, 100
15, 71999, Note_on_c, 14, 53, 0
15, 72000, Note_on_c, 14, 55, 100
15, 72059, Note_on_c, 14, 55, 0
15, 72060, Note_on_c, 14, 53, 100
15, 72179, Note_on_c, 14, 53, 0
15, 72180, Note_on_c, 14, 55, 100
15, 72239, Note_on_c, 14, 55, 0
15, 72240, Note_on_c, 14, 57, 100
15, 72359, Note_on_c, 14, 57, 0
15, 72360, Note_on_c, 14, 45, 100
15, 72419, Note_on_c, 14, 45, 0
15, 72420, Note_on_c, 14, 50, 100
15, 72659, Note_on_c, 14, 50, 0
15, 72660, Note_on_c, 14, 52, 100
15, 72719, Note_on_c, 14, 52, 0
15, 72720, Note_on_c, 14, 53, 100
15, 72779, Note_on_c, 14, 53, 0
15, 72780, Note_on_c, 14, 52, 100
15, 72899, Note_on_c, 14, 52, 0
15, 72900, Note_on_c, 14, 57, 100
15, 72959, Note_on_c, 14, 57, 0
15, 72960, Note_on_c, 14, 50, 100
15, 73079, Note_on_c, 14, 50, 0
15, 73080, Note_on_c, 14, 55, 100
15, 73139, Note_on_c, 14, 55, 0
15, 73140, Note_on_c, 14, 48, 100
15, 73259, Note_on_c, 14, 48, 0
15, 73260, Note_on_c, 14, 47, 100
15, 73319, Note_on_c, 14, 47, 0
15, 73320, Note_on_c, 14, 45, 100
15, 73439, Note_on_c, 14, 45, 0
15, 73440, Note_on_c, 14, 44, 100
15, 73499, Note_on_c, 14, 44, 0
15, 73500, Note_on_c, 14, 45, 100
15, 73619, Note_on_c, 14, 45, 0
15, 73620, Note_on_c, 14, 48, 100
15, 73679, Note_on_c, 14, 48, 0
15, 73680, Note_on_c, 14, 47, 100
15, 73799, Note_on_c, 14, 47, 0
15, 73800, Note_on_c, 14, 56, 100
15, 73859, Note_on_c, 14, 56, 0
15, 73860, Note_on_c, 14, 57, 100
15, 73979, Note_on_c, 14, 57, 0
15, 73980, Note_on_c, 14, 55, 100
15, 74039, Note_on_c, 14, 55, 0
15, 74040, Note_on_c, 14, 54, 100
15, 74159, Note_on_c, 14, 54, 0
15, 74160, Note_on_c, 14, 42, 100
15, 74219, Note_on_c, 14, 42, 0
15, 74220, Note_on_c, 14, 43, 100
15, 74339, Note_on_c, 14, 43, 0
15, 74340, Note_on_c, 14, 47, 100
15, 74399, Note_on_c, 14, 47, 0
15, 74400, Note_on_c, 14, 50, 100
15, 74519, Note_on_c, 14, 50, 0
15, 74520, Note_on_c, 14, 62, 100
15, 74579, Note_on_c, 14, 62, 0
15, 74580, Note_on_c, 14, 55, 100
15, 74699, Note_on_c, 14, 55, 0
15, 74700, Note_on_c, 14, 57, 100
15, 74759, Note_on_c, 14, 57, 0
15, 74760, Note_on_c, 14, 59, 100
15, 74879, Note_on_c, 14, 59, 0
15, 74880, Note_on_c, 14, 55, 100
15, 74939, Note_on_c, 14, 55, 0
15, 74940, Note_on_c, 14, 60, 100
15, 75059, Note_on_c, 14, 60, 0
15, 75060, Note_on_c, 14, 59, 100
15, 75119, Note_on_c, 14, 59, 0
15, 75120, Note_on_c, 14, 57, 100
15, 75239, Note_on_c, 14, 57, 0
15, 75240, Note_on_c, 14, 55, 100
15, 75299, Note_on_c, 14, 55, 0
15, 75300, Note_on_c, 14, 62, 100
15, 75419, Note_on_c, 14, 62, 0
15, 75420, Note_on_c, 14, 57, 100
15, 75479, Note_on_c, 14, 57, 0
15, 75480, Note_on_c, 14, 54, 100
15, 75599, Note_on_c, 14, 54, 0
15, 75600, Note_on_c, 14, 50, 100
15, 75659, Note_on_c, 14, 50, 0
15, 75660, Note_on_c, 14, 55, 100
15, 75779, Note_on_c, 14, 55, 0
15, 75780, Note_on_c, 14, 52, 100
15, 75839, Note_on_c, 14, 52, 0
15, 75840, Note_on_c, 14, 48, 100
15, 75959, Note_on_c, 14, 48, 0
15, 75960, Note_on_c, 14, 50, 100
15, 76019, Note_on_c, 14, 50, 0
15, 76020, Note_on_c, 14, 43, 100
15, 76139, Note_on_c, 14, 43, 0
15, 76500, Note_on_c, 14, 43, 100
15, 76559, Note_on_c, 14, 43, 0
15, 76560, Note_on_c, 14, 47, 100
15, 76679, Note_on_c, 14, 47, 0
15, 76680, Note_on_c, 14, 43, 100
15, 76739, Note_on_c, 14, 43, 0
15, 76740, Note_on_c, 14, 48, 100
15, 76859, Note_on_c, 14, 48, 0
15, 77100, Note_on_c, 14, 46, 100
15, 77219, Note_on_c, 14, 46, 0
15, 77460, Note_on_c, 14, 45, 100
15, 77579, Note_on_c, 14, 45, 0
15, 77640, Note_on_c, 14, 49, 100
15, 77759, Note_on_c, 14, 49, 0
15, 77760, Note_on_c, 14, 45, 100
15, 77819, Note_on_c, 14, 45, 0
15, 77820, Note_on_c, 14, 50, 100
15, 77939, Note_on_c, 14, 50, 0
15, 77940, Note_on_c, 14, 62, 100
15, 77999, Note_on_c, 14, 62, 0
15, 78000, Note_on_c, 14, 57, 100
15, 78119, Note_on_c, 14, 57, 0
15, 78120, Note_on_c, 14, 54, 100
15, 78179, Note_on_c, 14, 54, 0
15, 78180, Note_on_c, 14, 50, 100
15, 78299, Note_on_c, 14, 50, 0
15, 78300, Note_on_c, 14, 45, 100
15, 78359, Note_on_c, 14, 45, 0
15, 78360, Note_on_c, 14, 42, 100
15, 78479, Note_on_c, 14, 42, 0
15, 78480, Note_on_c, 14, 54, 100
15, 78539, Note_on_c, 14, 54, 0
15, 78540, Note_on_c, 14, 55, 100
15, 78659, Note_on_c, 14, 55, 0
15, 78720, Note_on_c, 14, 43, 100
15, 78839, Note_on_c, 14, 43, 0
15, 78900, Note_on_c, 14, 48, 100
15, 79019, Note_on_c, 14, 48, 0
15, 79020, Note_on_c, 14, 52, 100
15, 79079, Note_on_c, 14, 52, 0
15, 79080, Note_on_c, 14, 48, 100
15, 79199, Note_on_c, 14, 48, 0
15, 79200, Note_on_c, 14, 45, 100
15, 79259, Note_on_c, 14, 45, 0
15, 79260, Note_on_c, 14, 50, 100
15, 79379, Note_on_c, 14, 50, 0
15, 79620, Note_on_c, 14, 55, 100
15, 79739, Note_on_c, 14, 55, 0
15, 80160, Note_on_c, 14, 52, 100
15, 80279, Note_on_c, 14, 52, 0
15, 80700, Note_on_c, 14, 50, 100
15, 80819, Note_on_c, 14, 50, 0
15, 81240, Note_on_c, 14, 54, 100
15, 81359, Note_on_c, 14, 54, 0
15, 81360, Note_on_c, 14, 50, 100
15, 81419, Note_on_c, 14, 50, 0
15, 81420, Note_on_c, 14, 55, 100
15, 81539, Note_on_c, 14, 55, 0
15, 81540, Note_on_c, 14, 52, 100
15, 81599, Note_on_c, 14, 52, 0
15, 81600, Note_on_c, 14, 48, 100
15, 81719, Note_on_c, 14, 48, 0
15, 81720, Note_on_c, 14, 50, 100
15, 81779, Note_on_c, 14, 50, 0
15, 81780, Note_on_c, 14, 43, 100
15, 81899, Note_on_c, 14, 43, 0
15, 81900, Note_on_c, 14, 45, 100
15, 81959, Note_on_c, 14, 45, 0
15, 81960, Note_on_c, 14, 47, 100
15, 82079, Note_on_c, 14, 47, 0
15, 82080, Note_on_c, 14, 48, 100
15, 82139, Note_on_c, 14, 48, 0
15, 82140, Note_on_c, 14, 47, 100
15, 82259, Note_on_c, 14, 47, 0
15, 82260, Note_on_c, 14, 52, 100
15, 82319, Note_on_c, 14, 52, 0
15, 82320, Note_on_c, 14, 45, 100
15, 82439, Note_on_c, 14, 45, 0
15, 82440, Note_on_c, 14, 50, 100
15, 82499, Note_on_c, 14, 50, 0
15, 82500, Note_on_c, 14, 43, 100
15, 82559, Note_on_c, 14, 43, 0
15, 82560, Note_on_c, 14, 45, 100
15, 82619, Note_on_c, 14, 45, 0
15, 82620, Note_on_c, 14, 47, 100
15, 82679, Note_on_c, 14, 47, 0
15, 82680, Note_on_c, 14, 48, 100
15, 82799, Note_on_c, 14, 48, 0
15, 82800, Note_on_c, 14, 47, 100
15, 82859, Note_on_c, 14, 47, 0
15, 82860, Note_on_c, 14, 48, 100
15, 82979, Note_on_c, 14, 48, 0
15, 82980, Note_on_c, 14, 50, 100
15, 83039, Note_on_c, 14, 50, 0
15, 83040, Note_on_c, 14, 52, 100
15, 83159, Note_on_c, 14, 52, 0
15, 83160, Note_on_c, 14, 40, 100
15, 83219, Note_on_c, 14, 40, 0
15, 83220, Note_on_c, 14, 45, 100
15, 83459, Note_on_c, 14, 45, 0
15, 83460, Note_on_c, 14, 57, 100
15, 83519, Note_on_c, 14, 57, 0
15, 83520, Note_on_c, 14, 55, 100
15, 83579, Note_on_c, 14, 55, 0
15, 83580, Note_on_c, 14, 54, 100
15, 83639, Note_on_c, 14, 54, 0
15, 83640, Note_on_c, 14, 52, 100
15, 83699, Note_on_c, 14, 52, 0
15, 83700, Note_on_c, 14, 54, 100
15, 83759, Note_on_c, 14, 54, 0
15, 83760, Note_on_c, 14, 55, 100
15, 83819, Note_on_c, 14, 55, 0
15, 83820, Note_on_c, 14, 54, 100
15, 83879, Note_on_c, 14, 54, 0
15, 83880, Note_on_c, 14, 52, 100
15, 83939, Note_on_c, 14, 52, 0
15, 83940, Note_on_c, 14, 54, 100
15, 83999, Note_on_c, 14, 54, 0
15, 84000, Note_on_c, 14, 57, 100
15, 84059, Note_on_c, 14, 57, 0
15, 84060, Note_on_c, 14, 55, 100
15, 84119, Note_on_c, 14, 55, 0
15, 84120, Note_on_c, 14, 54, 100
15, 84179, Note_on_c, 14, 54, 0
15, 84180, Note_on_c, 14, 52, 100
15, 84239, Note_on_c, 14, 52, 0
15, 84240, Note_on_c, 14, 50, 100
15, 84299, Note_on_c, 14, 50, 0
15, 84300, Note_on_c, 14, 55, 100
15, 84419, Note_on_c, 14, 55, 0
15, 84420, Note_on_c, 14, 52, 100
15, 84479, Note_on_c, 14, 52, 0
15, 84480, Note_on_c, 14, 48, 100
15, 84599, Note_on_c, 14, 48, 0
15, 84600, Note_on_c, 14, 50, 100
15, 84659, Note_on_c, 14, 50, 0
15, 84660, Note_on_c, 14, 43, 100
15, 84779, Note_on_c, 14, 43, 0
15, 84780, Note_on_c, 14, 55, 100
15, 84839, Note_on_c, 14, 55, 0
15, 84840, Note_on_c, 14, 54, 100
15, 84899, Note_on_c, 14, 54, 0
15, 84900, Note_on_c, 14, 52, 100
15, 84959, Note_on_c, 14, 52, 0
15, 84960, Note_on_c, 14, 50, 100
15, 85019, Note_on_c, 14, 50, 0
15, 85020, Note_on_c, 14, 55, 100
15, 85139, Note_on_c, 14, 55, 0
15, 85140, Note_on_c, 14, 53, 100
15, 85199, Note_on_c, 14, 53, 0
15, 85200, Note_on_c, 14, 52, 100
15, 85259, Note_on_c, 14, 52, 0
15, 85260, Note_on_c, 14, 53, 100
15, 85319, Note_on_c, 14, 53, 0
15, 85320, Note_on_c, 14, 55, 100
15, 85379, Note_on_c, 14, 55, 0
15, 85380, Note_on_c, 14, 48, 100
15, 85499, Note_on_c, 14, 48, 0
15, 85500, Note_on_c, 14, 52, 100
15, 85559, Note_on_c, 14, 52, 0
15, 85560, Note_on_c, 14, 50, 100
15, 85679, Note_on_c, 14, 50, 0
15, 85680, Note_on_c, 14, 48, 100
15, 85739, Note_on_c, 14, 48, 0
15, 85740, Note_on_c, 14, 47, 100
15, 85859, Note_on_c, 14, 47, 0
15, 85860, Note_on_c, 14, 48, 100
15, 85919, Note_on_c, 14, 48, 0
15, 85920, Note_on_c, 14, 50, 100
15, 86039, Note_on_c, 14, 50, 0
15, 86040, Note_on_c, 14, 47, 100
15, 86099, Note_on_c, 14, 47, 0
15, 86100, Note_on_c, 14, 52, 100
15, 86219, Note_on_c, 14, 52, 0
15, 86220, Note_on_c, 14, 64, 100
15, 86279, Note_on_c, 14, 64, 0
15, 86280, Note_on_c, 14, 62, 100
15, 86399, Note_on_c, 14, 62, 0
15, 86400, Note_on_c, 14, 59, 100
15, 86459, Note_on_c, 14, 59, 0
15, 86460, Note_on_c, 14, 60, 100
15, 86579, Note_on_c, 14, 60, 0
15, 86580, Note_on_c, 14, 57, 100
15, 86639, Note_on_c, 14, 57, 0
15, 86640, Note_on_c, 14, 56, 100
15, 86759, Note_on_c, 14, 56, 0
15, 86760, Note_on_c, 14, 52, 100
15, 86819, Note_on_c, 14, 52, 0
15, 86820, Note_on_c, 14, 57, 100
15, 86939, Note_on_c, 14, 57, 0
15, 86940, Note_on_c, 14, 55, 100
15, 86999, Note_on_c, 14, 55, 0
15, 87000, Note_on_c, 14, 53, 100
15, 87059, Note_on_c, 14, 53, 0
15, 87060, Note_on_c, 14, 55, 100
15, 87119, Note_on_c, 14, 55, 0
15, 87120, Note_on_c, 14, 57, 100
15, 87179, Note_on_c, 14, 57, 0
15, 87180, Note_on_c, 14, 58, 100
15, 87299, Note_on_c, 14, 58, 0
15, 87300, Note_on_c, 14, 57, 100
15, 87359, Note_on_c, 14, 57, 0
15, 87360, Note_on_c, 14, 55, 100
15, 87479, Note_on_c, 14, 55, 0
15, 87480, Note_on_c, 14, 57, 100
15, 87539, Note_on_c, 14, 57, 0
15, 87540, Note_on_c, 14, 50, 100
15, 87659, Note_on_c, 14, 50, 0
15, 87660, Note_on_c, 14, 53, 100
15, 87719, Note_on_c, 14, 53, 0
15, 87720, Note_on_c, 14, 57, 100
15, 87839, Note_on_c, 14, 57, 0
15, 87840, Note_on_c, 14, 62, 100
15, 87899, Note_on_c, 14, 62, 0
15, 87900, Note_on_c, 14, 55, 100
15, 88019, Note_on_c, 14, 55, 0
15, 88020, Note_on_c, 14, 58, 100
15, 88079, Note_on_c, 14, 58, 0
15, 88080, Note_on_c, 14, 50, 100
15, 88199, Note_on_c, 14, 50, 0
15, 88200, Note_on_c, 14, 54, 100
15, 88259, Note_on_c, 14, 54, 0
15, 88260, Note_on_c, 14, 55, 100
15, 88379, Note_on_c, 14, 55, 0
15, 88380, Note_on_c, 14, 62, 100
15, 88439, Note_on_c, 14, 62, 0
15, 88440, Note_on_c, 14, 58, 100
15, 88559, Note_on_c, 14, 58, 0
15, 88560, Note_on_c, 14, 55, 100
15, 88619, Note_on_c, 14, 55, 0
15, 88620, Note_on_c, 14, 52, 100
15, 88739, Note_on_c, 14, 52, 0
15, 88740, Note_on_c, 14, 55, 100
15, 88799, Note_on_c, 14, 55, 0
15, 88800, Note_on_c, 14, 48, 100
15, 88919, Note_on_c, 14, 48, 0
15, 88920, Note_on_c, 14, 55, 100
15, 88979, Note_on_c, 14, 55, 0
15, 88980, Note_on_c, 14, 60, 100
15, 89099, Note_on_c, 14, 60, 0
15, 89100, Note_on_c, 14, 48, 100
15, 89159, Note_on_c, 14, 48, 0
15, 89160, Note_on_c, 14, 53, 100
15, 89279, Note_on_c, 14, 53, 0
15, 89280, Note_on_c, 14, 52, 100
15, 89339, Note_on_c, 14, 52, 0
15, 89340, Note_on_c, 14, 53, 100
15, 89459, Note_on_c, 14, 53, 0
15, 89880, Note_on_c, 14, 47, 100
15, 89999, Note_on_c, 14, 47, 0
15, 90000, Note_on_c, 14, 45, 100
15, 90060, Note_on_c, 14, 45, 0
15, 90060, Note_on_c, 14, 44, 100
15, 90179, Note_on_c, 14, 44, 0
15, 90180, Note_on_c, 14, 56, 100
15, 90240, Note_on_c, 14, 56, 0
15, 90240, Note_on_c, 14, 57, 100
15, 90359, Note_on_c, 14, 57, 0
15, 90360, Note_on_c, 14, 50, 100
15, 90420, Note_on_c, 14, 50, 0
15, 90420, Note_on_c, 14, 52, 100
15, 90539, Note_on_c, 14, 52, 0
15, 90960, Note_on_c, 14, 50, 100
15, 91079, Note_on_c, 14, 50, 0
15, 91500, Note_on_c, 14, 48, 100
15, 91619, Note_on_c, 14, 48, 0
15, 91980, Note_on_c, 14, 60, 100
15, 92039, Note_on_c, 14, 60, 0
15, 92040, Note_on_c, 14, 59, 100
15, 92099, Note_on_c, 14, 59, 0
15, 92100, Note_on_c, 14, 57, 100
15, 92159, Note_on_c, 14, 57, 0
15, 92160, Note_on_c, 14, 56, 100
15, 92219, Note_on_c, 14, 56, 0
15, 92220, Note_on_c, 14, 57, 100
15, 92339, Note_on_c, 14, 57, 0
15, 92340, Note_on_c, 14, 60, 100
15, 92399, Note_on_c, 14, 60, 0
15, 92400, Note_on_c, 14, 64, 100
15, 92519, Note_on_c, 14, 64, 0
15, 92520, Note_on_c, 14, 52, 100
15, 92579, Note_on_c, 14, 52, 0
15, 92580, Note_on_c, 14, 57, 100
15, 92699, Note_on_c, 14, 57, 0
15, 92700, Note_on_c, 14, 59, 100
15, 92759, Note_on_c, 14, 59, 0
15, 92760, Note_on_c, 14, 60, 100
15, 92879, Note_on_c, 14, 60, 0
15, 92880, Note_on_c, 14, 57, 100
15, 92939, Note_on_c, 14, 57, 0
15, 92940, Note_on_c, 14, 62, 100
15, 93059, Note_on_c, 14, 62, 0
15, 93060, Note_on_c, 14, 60, 100
15, 93119, Note_on_c, 14, 60, 0
15, 93120, Note_on_c, 14, 59, 100
15, 93239, Note_on_c, 14, 59, 0
15, 93240, Note_on_c, 14, 57, 100
15, 93299, Note_on_c, 14, 57, 0
15, 93300, Note_on_c, 14, 56, 100
15, 93359, Note_on_c, 14, 56, 0
15, 93360, Note_on_c, 14, 59, 100
15, 93419, Note_on_c, 14, 59, 0
15, 93420, Note_on_c, 14, 57, 100
15, 93479, Note_on_c, 14, 57, 0
15, 93480, Note_on_c, 14, 56, 100
15, 93539, Note_on_c, 14, 56, 0
15, 93540, Note_on_c, 14, 54, 100
15, 93599, Note_on_c, 14, 54, 0
15, 93600, Note_on_c, 14, 52, 100
15, 93659, Note_on_c, 14, 52, 0
15, 93660, Note_on_c, 14, 57, 100
15, 93780, Note_on_c, 14, 57, 0
15, 93780, Note_on_c, 14, 55, 100
15, 93839, Note_on_c, 14, 55, 0
15, 93840, Note_on_c, 14, 53, 100
15, 93960, Note_on_c, 14, 53, 0
15, 93960, Note_on_c, 14, 52, 100
15, 94019, Note_on_c, 14, 52, 0
15, 94020, Note_on_c, 14, 50, 100
15, 94079, Note_on_c, 14, 50, 0
15, 94080, Note_on_c, 14, 52, 100
15, 94139, Note_on_c, 14, 52, 0
15, 94140, Note_on_c, 14, 53, 100
15, 94199, Note_on_c, 14, 53, 0
15, 94200, Note_on_c, 14, 47, 100
15, 94259, Note_on_c, 14, 47, 0
15, 94260, Note_on_c, 14, 48, 100
15, 94319, Note_on_c, 14, 48, 0
15, 94320, Note_on_c, 14, 50, 100
15, 94379, Note_on_c, 14, 50, 0
15, 94380, Note_on_c, 14, 52, 100
15, 94499, Note_on_c, 14, 52, 0
15, 94500, Note_on_c, 14, 50, 100
15, 94559, Note_on_c, 14, 50, 0
15, 94560, Note_on_c, 14, 48, 100
15, 94619, Note_on_c, 14, 48, 0
15, 94620, Note_on_c, 14, 50, 100
15, 94679, Note_on_c, 14, 50, 0
15, 94680, Note_on_c, 14, 52, 100
15, 94739, Note_on_c, 14, 52, 0
15, 94740, Note_on_c, 14, 53, 100
15, 94919, Note_on_c, 14, 53, 0
15, 95040, Note_on_c, 14, 53, 100
15, 95099, Note_on_c, 14, 53, 0
15, 95100, Note_on_c, 14, 47, 100
15, 95219, Note_on_c, 14, 47, 0
15, 95220, Note_on_c, 14, 45, 100
15, 95279, Note_on_c, 14, 45, 0
15, 95280, Note_on_c, 14, 52, 100
15, 95399, Note_on_c, 14, 52, 0
15, 95400, Note_on_c, 14, 40, 100
15, 95459, Note_on_c, 14, 40, 0
15, 95460, Note_on_c, 14, 45, 100
15, 95579, Note_on_c, 14, 45, 0
15, 95580, Note_on_c, 14, 52, 100
15, 95639, Note_on_c, 14, 52, 0
15, 95640, Note_on_c, 14, 57, 100
15, 95759, Note_on_c, 14, 57, 0
15, 95760, Note_on_c, 14, 55, 100
15, 95819, Note_on_c, 14, 55, 0
15, 95820, Note_on_c, 14, 54, 100
15, 95939, Note_on_c, 14, 54, 0
15, 95940, Note_on_c, 14, 55, 100
15, 95999, Note_on_c, 14, 55, 0
15, 96000, Note_on_c, 14, 57, 100
15, 96119, Note_on_c, 14, 57, 0
15, 96120, Note_on_c, 14, 50, 100
15, 96179, Note_on_c, 14, 50, 0
15, 96180, Note_on_c, 14, 55, 100
15, 96299, Note_on_c, 14, 55, 0
15, 96300, Note_on_c, 14, 57, 100
15, 96359, Note_on_c, 14, 57, 0
15, 96360, Note_on_c, 14, 58, 100
15, 96479, Note_on_c, 14, 58, 0
15, 96480, Note_on_c, 14, 55, 100
15, 96539, Note_on_c, 14, 55, 0
15, 96540, Note_on_c, 14, 52, 100
15, 96659, Note_on_c, 14, 52, 0
15, 96660, Note_on_c, 14, 50, 100
15, 96719, Note_on_c, 14, 50, 0
15, 96720, Note_on_c, 14, 52, 100
15, 96779, Note_on_c, 14, 52, 0
15, 96780, Note_on_c, 14, 50, 100
15, 96839, Note_on_c, 14, 50, 0
15, 96840, Note_on_c, 14, 49, 100
15, 96899, Note_on_c, 14, 49, 0
15, 96900, Note_on_c, 14, 50, 100
15, 97019, Note_on_c, 14, 50, 0
15, 97020, Note_on_c, 14, 57, 100
15, 97079, Note_on_c, 14, 57, 0
15, 97080, Note_on_c, 14, 62, 100
15, 97199, Note_on_c, 14, 62, 0
15, 97200, Note_on_c, 14, 50, 100
15, 97259, Note_on_c, 14, 50, 0
15, 97260, Note_on_c, 14, 55, 100
15, 97379, Note_on_c, 14, 55, 0
15, 97380, Note_on_c, 14, 45, 100
15, 97439, Note_on_c, 14, 45, 0
15, 97440, Note_on_c, 14, 48, 100
15, 97499, Note_on_c, 14, 48, 0
15, 97500, Note_on_c, 14, 47, 100
15, 97559, Note_on_c, 14, 47, 0
15, 97560, Note_on_c, 14, 45, 100
15, 97619, Note_on_c, 14, 45, 0
15, 97620, Note_on_c, 14, 43, 100
15, 97739, Note_on_c, 14, 43, 0
15, 97740, Note_on_c, 14, 45, 100
15, 97799, Note_on_c, 14, 45, 0
15, 97800, Note_on_c, 14, 47, 100
15, 97919, Note_on_c, 14, 47, 0
15, 97920, Note_on_c, 14, 43, 100
15, 97979, Note_on_c, 14, 43, 0
15, 97980, Note_on_c, 14, 48, 100
15, 98099, Note_on_c, 14, 48, 0
15, 98100, Note_on_c, 14, 55, 100
15, 98159, Note_on_c, 14, 55, 0
15, 98160, Note_on_c, 14, 52, 100
15, 98219, Note_on_c, 14, 52, 0
15, 98220, Note_on_c, 14, 48, 100
15, 98279, Note_on_c, 14, 48, 0
15, 98280, Note_on_c, 14, 52, 100
15, 98339, Note_on_c, 14, 52, 0
15, 98340, Note_on_c, 14, 53, 100
15, 98519, Note_on_c, 14, 53, 0
15, 98640, Note_on_c, 14, 52, 100
15, 98699, Note_on_c, 14, 52, 0
15, 98700, Note_on_c, 14, 50, 100
15, 98819, Note_on_c, 14, 50, 0
15, 98820, Note_on_c, 14, 45, 100
15, 98879, Note_on_c, 14, 45, 0
15, 98880, Note_on_c, 14, 50, 100
15, 98939, Note_on_c, 14, 50, 0
15, 98940, Note_on_c, 14, 52, 100
15, 98999, Note_on_c, 14, 52, 0
15, 99000, Note_on_c, 14, 54, 100
15, 99059, Note_on_c, 14, 54, 0
15, 99060, Note_on_c, 14, 55, 100
15, 99239, Note_on_c, 14, 55, 0
15, 99360, Note_on_c, 14, 62, 100
15, 99419, Note_on_c, 14, 62, 0
15, 99420, Note_on_c, 14, 59, 100
15, 99539, Note_on_c, 14, 59, 0
15, 99540, Note_on_c, 14, 55, 100
15, 99599, Note_on_c, 14, 55, 0
15, 99600, Note_on_c, 14, 57, 100
15, 99719, Note_on_c, 14, 57, 0
15, 99720, Note_on_c, 14, 59, 100
15, 99779, Note_on_c, 14, 59, 0
15, 99780, Note_on_c, 14, 60, 100
15, 99899, Note_on_c, 14, 60, 0
15, 99900, Note_on_c, 14, 48, 100
15, 99959, Note_on_c, 14, 48, 0
15, 99960, Note_on_c, 14, 50, 100
15, 100079, Note_on_c, 14, 50, 0
15, 100080, Note_on_c, 14, 52, 100
15, 100139, Note_on_c, 14, 52, 0
15, 100140, Note_on_c, 14, 53, 100
15, 100259, Note_on_c, 14, 53, 0
15, 100440, Note_on_c, 14, 50, 100
15, 100499, Note_on_c, 14, 50, 0
15, 100500, Note_on_c, 14, 53, 100
15, 100619, Note_on_c, 14, 53, 0
15, 100620, Note_on_c, 14, 57, 100
15, 100679, Note_on_c, 14, 57, 0
15, 100680, Note_on_c, 14, 50, 100
15, 100799, Note_on_c, 14, 50, 0
15, 100800, Note_on_c, 14, 53, 100
15, 100859, Note_on_c, 14, 53, 0
15, 100860, Note_on_c, 14, 55, 100
15, 100979, Note_on_c, 14, 55, 0
15, 100980, Note_on_c, 14, 43, 100
15, 101039, Note_on_c, 14, 43, 0
15, 101040, Note_on_c, 14, 55, 100
15, 101159, Note_on_c, 14, 55, 0
15, 101160, Note_on_c, 14, 53, 100
15, 101219, Note_on_c, 14, 53, 0
15, 101220, Note_on_c, 14, 52, 100
15, 101339, Note_on_c, 14, 52, 0
15, 101400, Note_on_c, 14, 54, 100
15, 101519, Note_on_c, 14, 54, 0
15, 101580, Note_on_c, 14, 55, 100
15, 101699, Note_on_c, 14, 55, 0
15, 101760, Note_on_c, 14, 56, 100
15, 101879, Note_on_c, 14, 56, 0
15, 101940, Note_on_c, 14, 57, 100
15, 102059, Note_on_c, 14, 57, 0
15, 102480, Note_on_c, 14, 59, 100
15, 102539, Note_on_c, 14, 59, 0
15, 102540, Note_on_c, 14, 57, 100
15, 102599, Note_on_c, 14, 57, 0
15, 102600, Note_on_c, 14, 55, 100
15, 102659, Note_on_c, 14, 55, 0
15, 102660, Note_on_c, 14, 60, 100
15, 102719, Note_on_c, 14, 60, 0
15, 102720, Note_on_c, 14, 59, 100
15, 102779, Note_on_c, 14, 59, 0
15, 102780, Note_on_c, 14, 57, 100
15, 102839, Note_on_c, 14, 57, 0
15, 102840, Note_on_c, 14, 55, 100
15, 102899, Note_on_c, 14, 55, 0
15, 102900, Note_on_c, 14, 53, 100
15, 102959, Note_on_c, 14, 53, 0
15, 102960, Note_on_c, 14, 52, 100
15, 103019, Note_on_c, 14, 52, 0
15, 103020, Note_on_c, 14, 53, 100
15, 103139, Note_on_c, 14, 53, 0
15, 103560, Note_on_c, 14, 52, 100
15, 103679, Note_on_c, 14, 52, 0
15, 104100, Note_on_c, 14, 45, 100
15, 104219, Note_on_c, 14, 45, 0
15, 104640, Note_on_c, 14, 40, 100
15, 104759, Note_on_c, 14, 40, 0
15, 105120, Note_on_c, 14, 55, 100
15, 105179, Note_on_c, 14, 55, 0
15, 105180, Note_on_c, 14, 57, 100
15, 105299, Note_on_c, 14, 57, 0
15, 105300, Note_on_c, 14, 53, 100
15, 105359, Note_on_c, 14, 53, 0
15, 105360, Note_on_c, 14, 55, 100
15, 105479, Note_on_c, 14, 55, 0
15, 105480, Note_on_c, 14, 43, 100
15, 105539, Note_on_c, 14, 43, 0
15, 105540, Note_on_c, 14, 48, 100
15, 105659, Note_on_c, 14, 48, 0
15, 105660, Note_on_c, 14, 50, 100
15, 105719, Note_on_c, 14, 50, 0
15, 105720, Note_on_c, 14, 52, 100
15, 105839, Note_on_c, 14, 52, 0
15, 105840, Note_on_c, 14, 45, 100
15, 105899, Note_on_c, 14, 45, 0
15, 105900, Note_on_c, 14, 47, 100
15, 106019, Note_on_c, 14, 47, 0
15, 106020, Note_on_c, 14, 48, 100
15, 106079, Note_on_c, 14, 48, 0
15, 106080, Note_on_c, 14, 50, 100
15, 106199, Note_on_c, 14, 50, 0
15, 106200, Note_on_c, 14, 38, 100
15, 106259, Note_on_c, 14, 38, 0
15, 106260, Note_on_c, 14, 43, 100
15, 106379, Note_on_c, 14, 43, 0
15, 106380, Note_on_c, 14, 45, 100
15, 106439, Note_on_c, 14, 45, 0
15, 106440, Note_on_c, 14, 47, 100
15, 106559, Note_on_c, 14, 47, 0
15, 106560, Note_on_c, 14, 43, 100
15, 106619, Note_on_c, 14, 43, 0
15, 106620, Note_on_c, 14, 48, 100
15, 106739, Note_on_c, 14, 48, 0
15, 106740, Note_on_c, 14, 50, 100
15, 106799, Note_on_c, 14, 50, 0
15, 106800, Note_on_c, 14, 52, 100
15, 106919, Note_on_c, 14, 52, 0
15, 106920, Note_on_c, 14, 40, 100
15, 106979, Note_on_c, 14, 40, 0
15, 106980, Note_on_c, 14, 45, 100
15, 107039, Note_on_c, 14, 45, 0
15, 107040, Note_on_c, 14, 47, 100
15, 107099, Note_on_c, 14, 47, 0
15, 107100, Note_on_c, 14, 48, 100
15, 107159, Note_on_c, 14, 48, 0
15, 107160, Note_on_c, 14, 47, 100
15, 107219, Note_on_c, 14, 47, 0
15, 107220, Note_on_c, 14, 45, 100
15, 107279, Note_on_c, 14, 45, 0
15, 107280, Note_on_c, 14, 43, 100
15, 107339, Note_on_c, 14, 43, 0
15, 107340, Note_on_c, 14, 48, 100
15, 107459, Note_on_c, 14, 48, 0
15, 107460, Note_on_c, 14, 45, 100
15, 107519, Note_on_c, 14, 45, 0
15, 107520, Note_on_c, 14, 41, 100
15, 107639, Note_on_c, 14, 41, 0
15, 107640, Note_on_c, 14, 43, 100
15, 107699, Note_on_c, 14, 43, 0
15, 107700, Note_on_c, 14, 36, 100
15, 107819, Note_on_c, 14, 36, 0
15, 108060, Note_on_c, 14, 41, 100
15, 108179, Note_on_c, 14, 41, 0
15, 108420, Note_on_c, 14, 38, 100
15, 108539, Note_on_c, 14, 38, 0
15, 108780, Note_on_c, 14, 43, 100
15, 108899, Note_on_c, 14, 43, 0
15, 109140, Note_on_c, 14, 59, 100
15, 109199, Note_on_c, 14, 59, 0
15, 109200, Note_on_c, 14, 57, 100
15, 109259, Note_on_c, 14, 57, 0
15, 109260, Note_on_c, 14, 55, 100
15, 109319, Note_on_c, 14, 55, 0
15, 109320, Note_on_c, 14, 60, 100
15, 109379, Note_on_c, 14, 60, 0
15, 109380, Note_on_c, 14, 55, 100
15, 109439, Note_on_c, 14, 55, 0
15, 109440, Note_on_c, 14, 57, 100
15, 109499, Note_on_c, 14, 57, 0
15, 109500, Note_on_c, 14, 53, 100
15, 109559, Note_on_c, 14, 53, 0
15, 109560, Note_on_c, 14, 55, 100
15, 109619, Note_on_c, 14, 55, 0
15, 109620, Note_on_c, 14, 43, 100
15, 109679, Note_on_c, 14, 43, 0
15, 109680, Note_on_c, 14, 36, 100
15, 109859, Note_on_c, 14, 36, 0
15, 118620, Note_on_c, 14, 38, 90
15, 118679, Note_on_c, 14, 38, 0
15, 118740, Note_on_c, 14, 50, 90
15, 118799, Note_on_c, 14, 50, 0
15, 118860, Note_on_c, 14, 49, 90
15, 118919, Note_on_c, 14, 49, 0
15, 118980, Note_on_c, 14, 50, 90
15, 119039, Note_on_c, 14, 50, 0
15, 119100, Note_on_c, 14, 43, 90
15, 119159, Note_on_c, 14, 43, 0
15, 119220, Note_on_c, 14, 48, 90
15, 119279, Note_on_c, 14, 48, 0
15, 119340, Note_on_c, 14, 41, 90
15, 119399, Note_on_c, 14, 41, 0
15, 119460, Note_on_c, 14, 46, 90
15, 119519, Note_on_c, 14, 46, 0
15, 119580, Note_on_c, 14, 40, 90
15, 119639, Note_on_c, 14, 40, 0
15, 119700, Note_on_c, 14, 45, 90
15, 119759, Note_on_c, 14, 45, 0
15, 119820, Note_on_c, 14, 38, 90
15, 119879, Note_on_c, 14, 38, 0
15, 119880, Note_on_c, 14, 50, 90
15, 119939, Note_on_c, 14, 50, 0
15, 119940, Note_on_c, 14, 48, 90
15, 119999, Note_on_c, 14, 48, 0
15, 120000, Note_on_c, 14, 47, 90
15, 120059, Note_on_c, 14, 47, 0
15, 120060, Note_on_c, 14, 45, 90
15, 120119, Note_on_c, 14, 45, 0
15, 120180, Note_on_c, 14, 57, 90
15, 120239, Note_on_c, 14, 57, 0
15, 120300, Note_on_c, 14, 56, 90
15, 120359, Note_on_c, 14, 56, 0
15, 120420, Note_on_c, 14, 57, 90
15, 120479, Note_on_c, 14, 57, 0
15, 120540, Note_on_c, 14, 50, 90
15, 120599, Note_on_c, 14, 50, 0
15, 120660, Note_on_c, 14, 55, 90
15, 120719, Note_on_c, 14, 55, 0
15, 120780, Note_on_c, 14, 48, 90
15, 120839, Note_on_c, 14, 48, 0
15, 120900, Note_on_c, 14, 53, 90
15, 120959, Note_on_c, 14, 53, 0
15, 121020, Note_on_c, 14, 47, 90
15, 121079, Note_on_c, 14, 47, 0
15, 121140, Note_on_c, 14, 52, 90
15, 121199, Note_on_c, 14, 52, 0
15, 121260, Note_on_c, 14, 45, 90
15, 121319, Note_on_c, 14, 45, 0
15, 121320, Note_on_c, 14, 57, 90
15, 121379, Note_on_c, 14, 57, 0
15, 121380, Note_on_c, 14, 55, 90
15, 121439, Note_on_c, 14, 55, 0
15, 121440, Note_on_c, 14, 53, 90
15, 121499, Note_on_c, 14, 53, 0
15, 121500, Note_on_c, 14, 52, 90
15, 121559, Note_on_c, 14, 52, 0
15, 121620, Note_on_c, 14, 57, 90
15, 121679, Note_on_c, 14, 57, 0
15, 121740, Note_on_c, 14, 50, 90
15, 121799, Note_on_c, 14, 50, 0
15, 121800, Note_on_c, 14, 62, 90
15, 121859, Note_on_c, 14, 62, 0
15, 121860, Note_on_c, 14, 60, 90
15, 121919, Note_on_c, 14, 60, 0
15, 121920, Note_on_c, 14, 58, 90
15, 121979, Note_on_c, 14, 58, 0
15, 121980, Note_on_c, 14, 57, 90
15, 122039, Note_on_c, 14, 57, 0
15, 122100, Note_on_c, 14, 50, 90
15, 122159, Note_on_c, 14, 50, 0
15, 122220, Note_on_c, 14, 43, 90
15, 122279, Note_on_c, 14, 43, 0
15, 122280, Note_on_c, 14, 55, 90
15, 122339, Note_on_c, 14, 55, 0
15, 122340, Note_on_c, 14, 53, 90
15, 122399, Note_on_c, 14, 53, 0
15, 122400, Note_on_c, 14, 52, 90
15, 122459, Note_on_c, 14, 52, 0
15, 122460, Note_on_c, 14, 50, 90
15, 122519, Note_on_c, 14, 50, 0
15, 122520, Note_on_c, 14, 38, 90
15, 122609, Note_on_c, 14, 38, 0
15, 122610, Note_on_c, 14, 40, 90
15, 122639, Note_on_c, 14, 40, 0
15, 122640, Note_on_c, 14, 41, 90
15, 122669, Note_on_c, 14, 41, 0
15, 122670, Note_on_c, 14, 43, 90
15, 122699, Note_on_c, 14, 43, 0
15, 122700, Note_on_c, 14, 45, 90
15, 122759, Note_on_c, 14, 45, 0
15, 122760, Note_on_c, 14, 45, 90
15, 122819, Note_on_c, 14, 45, 0
15, 122820, Note_on_c, 14, 45, 90
15, 122879, Note_on_c, 14, 45, 0
15, 122880, Note_on_c, 14, 45, 90
15, 122939, Note_on_c, 14, 45, 0
15, 122940, Note_on_c, 14, 46, 90
15, 122969, Note_on_c, 14, 46, 0
15, 122970, Note_on_c, 14, 45, 90
15, 122999, Note_on_c, 14, 45, 0
15, 123000, Note_on_c, 14, 46, 90
15, 123029, Note_on_c, 14, 46, 0
15, 123030, Note_on_c, 14, 48, 90
15, 123059, Note_on_c, 14, 48, 0
15, 123060, Note_on_c, 14, 46, 90
15, 123089, Note_on_c, 14, 46, 0
15, 123090, Note_on_c, 14, 45, 90
15, 123119, Note_on_c, 14, 45, 0
15, 123120, Note_on_c, 14, 43, 90
15, 123149, Note_on_c, 14, 43, 0
15, 123150, Note_on_c, 14, 46, 90
15, 123179, Note_on_c, 14, 46, 0
15, 123180, Note_on_c, 14, 45, 90
15, 123209, Note_on_c, 14, 45, 0
15, 123210, Note_on_c, 14, 43, 90
15, 123239, Note_on_c, 14, 43, 0
15, 123240, Note_on_c, 14, 45, 90
15, 123269, Note_on_c, 14, 45, 0
15, 123270, Note_on_c, 14, 46, 90
15, 123299, Note_on_c, 14, 46, 0
15, 123300, Note_on_c, 14, 45, 90
15, 123329, Note_on_c, 14, 45, 0
15, 123330, Note_on_c, 14, 43, 90
15, 123359, Note_on_c, 14, 43, 0
15, 123360, Note_on_c, 14, 41, 90
15, 123389, Note_on_c, 14, 41, 0
15, 123390, Note_on_c, 14, 45, 90
15, 123419, Note_on_c, 14, 45, 0
15, 123420, Note_on_c, 14, 43, 90
15, 123449, Note_on_c, 14, 43, 0
15, 123450, Note_on_c, 14, 41, 90
15, 123479, Note_on_c, 14, 41, 0
15, 123480, Note_on_c, 14, 43, 90
15, 123509, Note_on_c, 14, 43, 0
15, 123510, Note_on_c, 14, 45, 90
15, 123539, Note_on_c, 14, 45, 0
15, 123540, Note_on_c, 14, 43, 90
15, 123569, Note_on_c, 14, 43, 0
15, 123570, Note_on_c, 14, 41, 90
15, 123599, Note_on_c, 14, 41, 0
15, 123600, Note_on_c, 14, 40, 90
15, 123629, Note_on_c, 14, 40, 0
15, 123630, Note_on_c, 14, 43, 90
15, 123659, Note_on_c, 14, 43, 0
15, 123660, Note_on_c, 14, 41, 90
15, 123689, Note_on_c, 14, 41, 0
15, 123690, Note_on_c, 14, 40, 90
15, 123719, Note_on_c, 14, 40, 0
15, 123720, Note_on_c, 14, 41, 90
15, 123749, Note_on_c, 14, 41, 0
15, 123750, Note_on_c, 14, 43, 90
15, 123779, Note_on_c, 14, 43, 0
15, 123780, Note_on_c, 14, 45, 90
15, 123809, Note_on_c, 14, 45, 0
15, 123810, Note_on_c, 14, 47, 90
15, 123839, Note_on_c, 14, 47, 0
15, 123840, Note_on_c, 14, 49, 90
15, 123869, Note_on_c, 14, 49, 0
15, 123870, Note_on_c, 14, 50, 90
15, 123899, Note_on_c, 14, 50, 0
15, 123900, Note_on_c, 14, 52, 90
15, 123929, Note_on_c, 14, 52, 0
15, 123930, Note_on_c, 14, 50, 90
15, 123959, Note_on_c, 14, 50, 0
15, 123960, Note_on_c, 14, 52, 90
15, 123989, Note_on_c, 14, 52, 0
15, 123990, Note_on_c, 14, 53, 90
15, 124019, Note_on_c, 14, 53, 0
15, 124020, Note_on_c, 14, 55, 90
15, 124049, Note_on_c, 14, 55, 0
15, 124050, Note_on_c, 14, 57, 90
15, 124079, Note_on_c, 14, 57, 0
15, 124080, Note_on_c, 14, 59, 90
15, 124109, Note_on_c, 14, 59, 0
15, 124110, Note_on_c, 14, 61, 90
15, 124139, Note_on_c, 14, 61, 0
15, 124140, Note_on_c, 14, 62, 90
15, 124199, Note_on_c, 14, 62, 0
15, 124200, Note_on_c, 14, 55, 90
15, 124259, Note_on_c, 14, 55, 0
15, 124260, Note_on_c, 14, 57, 90
15, 124319, Note_on_c, 14, 57, 0
15, 124320, Note_on_c, 14, 45, 90
15, 124379, Note_on_c, 14, 45, 0
15, 124380, Note_on_c, 14, 38, 90
15, 124439, Note_on_c, 14, 38, 0
15, 124500, Note_on_c, 14, 50, 90
15, 124559, Note_on_c, 14, 50, 0
15, 124620, Note_on_c, 14, 49, 90
15, 124679, Note_on_c, 14, 49, 0
15, 124740, Note_on_c, 14, 50, 90
15, 124799, Note_on_c, 14, 50, 0
15, 124860, Note_on_c, 14, 43, 90
15, 124919, Note_on_c, 14, 43, 0
15, 124980, Note_on_c, 14, 48, 90
15, 125039, Note_on_c, 14, 48, 0
15, 125100, Note_on_c, 14, 41, 90
15, 125159, Note_on_c, 14, 41, 0
15, 125220, Note_on_c, 14, 46, 90
15, 125279, Note_on_c, 14, 46, 0
15, 125340, Note_on_c, 14, 40, 90
15, 125399, Note_on_c, 14, 40, 0
15, 125460, Note_on_c, 14, 45, 90
15, 125519, Note_on_c, 14, 45, 0
15, 125580, Note_on_c, 14, 38, 90
15, 125639, Note_on_c, 14, 38, 0
15, 125640, Note_on_c, 14, 50, 90
15, 125699, Note_on_c, 14, 50, 0
15, 125700, Note_on_c, 14, 48, 90
15, 125759, Note_on_c, 14, 48, 0
15, 125760, Note_on_c, 14, 47, 90
15, 125819, Note_on_c, 14, 47, 0
15, 125820, Note_on_c, 14, 57, 90
15, 125879, Note_on_c, 14, 57, 0
15, 125880, Note_on_c, 14, 45, 90
15, 125969, Note_on_c, 14, 45, 0
15, 125970, Note_on_c, 14, 47, 90
15, 125999, Note_on_c, 14, 47, 0
15, 126000, Note_on_c, 14, 48, 90
15, 126029, Note_on_c, 14, 48, 0
15, 126030, Note_on_c, 14, 50, 90
15, 126059, Note_on_c, 14, 50, 0
15, 126060, Note_on_c, 14, 52, 90
15, 126119, Note_on_c, 14, 52, 0
15, 126120, Note_on_c, 14, 52, 90
15, 126179, Note_on_c, 14, 52, 0
15, 126180, Note_on_c, 14, 52, 90
15, 126239, Note_on_c, 14, 52, 0
15, 126240, Note_on_c, 14, 52, 90
15, 126299, Note_on_c, 14, 52, 0
15, 126300, Note_on_c, 14, 53, 90
15, 126329, Note_on_c, 14, 53, 0
15, 126330, Note_on_c, 14, 52, 90
15, 126359, Note_on_c, 14, 52, 0
15, 126360, Note_on_c, 14, 53, 90
15, 126389, Note_on_c, 14, 53, 0
15, 126390, Note_on_c, 14, 55, 90
15, 126419, Note_on_c, 14, 55, 0
15, 126420, Note_on_c, 14, 53, 90
15, 126449, Note_on_c, 14, 53, 0
15, 126450, Note_on_c, 14, 52, 90
15, 126479, Note_on_c, 14, 52, 0
15, 126480, Note_on_c, 14, 50, 90
15, 126509, Note_on_c, 14, 50, 0
15, 126510, Note_on_c, 14, 53, 90
15, 126539, Note_on_c, 14, 53, 0
15, 126540, Note_on_c, 14, 52, 90
15, 126569, Note_on_c, 14, 52, 0
15, 126570, Note_on_c, 14, 50, 90
15, 126599, Note_on_c, 14, 50, 0
15, 126600, Note_on_c, 14, 52, 90
15, 126629, Note_on_c, 14, 52, 0
15, 126630, Note_on_c, 14, 53, 90
15, 126659, Note_on_c, 14, 53, 0
15, 126660, Note_on_c, 14, 52, 90
15, 126689, Note_on_c, 14, 52, 0
15, 126690, Note_on_c, 14, 50, 90
15, 126719, Note_on_c, 14, 50, 0
15, 126720, Note_on_c, 14, 48, 90
15, 126749, Note_on_c, 14, 48, 0
15, 126750, Note_on_c, 14, 52, 90
15, 126779, Note_on_c, 14, 52, 0
15, 126780, Note_on_c, 14, 50, 90
15, 126809, Note_on_c, 14, 50, 0
15, 126810, Note_on_c, 14, 48, 90
15, 126839, Note_on_c, 14, 48, 0
15, 126840, Note_on_c, 14, 50, 90
15, 126869, Note_on_c, 14, 50, 0
15, 126870, Note_on_c, 14, 52, 90
15, 126899, Note_on_c, 14, 52, 0
15, 126900, Note_on_c, 14, 50, 90
15, 126929, Note_on_c, 14, 50, 0
15, 126930, Note_on_c, 14, 48, 90
15, 126959, Note_on_c, 14, 48, 0
15, 126960, Note_on_c, 14, 47, 90
15, 126989, Note_on_c, 14, 47, 0
15, 126990, Note_on_c, 14, 50, 90
15, 127019, Note_on_c, 14, 50, 0
15, 127020, Note_on_c, 14, 48, 90
15, 127049, Note_on_c, 14, 48, 0
15, 127050, Note_on_c, 14, 47, 90
15, 127079, Note_on_c, 14, 47, 0
15, 127080, Note_on_c, 14, 48, 90
15, 127109, Note_on_c, 14, 48, 0
15, 127110, Note_on_c, 14, 50, 90
15, 127139, Note_on_c, 14, 50, 0
15, 127140, Note_on_c, 14, 48, 90
15, 127169, Note_on_c, 14, 48, 0
15, 127170, Note_on_c, 14, 47, 90
15, 127199, Note_on_c, 14, 47, 0
15, 127200, Note_on_c, 14, 45, 90
15, 127229, Note_on_c, 14, 45, 0
15, 127230, Note_on_c, 14, 48, 90
15, 127259, Note_on_c, 14, 48, 0
15, 127260, Note_on_c, 14, 47, 90
15, 127289, Note_on_c, 14, 47, 0
15, 127290, Note_on_c, 14, 45, 90
15, 127319, Note_on_c, 14, 45, 0
15, 127320, Note_on_c, 14, 47, 90
15, 127349, Note_on_c, 14, 47, 0
15, 127350, Note_on_c, 14, 48, 90
15, 127379, Note_on_c, 14, 48, 0
15, 127380, Note_on_c, 14, 47, 90
15, 127409, Note_on_c, 14, 47, 0
15, 127410, Note_on_c, 14, 45, 90
15, 127439, Note_on_c, 14, 45, 0
15, 127440, Note_on_c, 14, 44, 90
15, 127469, Note_on_c, 14, 44, 0
15, 127470, Note_on_c, 14, 47, 90
15, 127499, Note_on_c, 14, 47, 0
15, 127500, Note_on_c, 14, 45, 90
15, 127529, Note_on_c, 14, 45, 0
15, 127530, Note_on_c, 14, 44, 90
15, 127559, Note_on_c, 14, 44, 0
15, 127560, Note_on_c, 14, 45, 90
15, 127589, Note_on_c, 14, 45, 0
15, 127590, Note_on_c, 14, 47, 90
15, 127619, Note_on_c, 14, 47, 0
15, 127620, Note_on_c, 14, 48, 90
15, 127649, Note_on_c, 14, 48, 0
15, 127650, Note_on_c, 14, 47, 90
15, 127679, Note_on_c, 14, 47, 0
15, 127680, Note_on_c, 14, 48, 90
15, 127709, Note_on_c, 14, 48, 0
15, 127710, Note_on_c, 14, 50, 90
15, 127739, Note_on_c, 14, 50, 0
15, 127740, Note_on_c, 14, 52, 90
15, 127799, Note_on_c, 14, 52, 0
15, 127800, Note_on_c, 14, 50, 90
15, 127859, Note_on_c, 14, 50, 0
15, 127860, Note_on_c, 14, 52, 90
15, 127919, Note_on_c, 14, 52, 0
15, 127920, Note_on_c, 14, 40, 90
15, 127979, Note_on_c, 14, 40, 0
15, 127980, Note_on_c, 14, 45, 90
15, 128039, Note_on_c, 14, 45, 0
15, 128100, Note_on_c, 14, 57, 90
15, 128159, Note_on_c, 14, 57, 0
15, 128220, Note_on_c, 14, 56, 90
15, 128279, Note_on_c, 14, 56, 0
15, 128340, Note_on_c, 14, 57, 90
15, 128399, Note_on_c, 14, 57, 0
15, 128460, Note_on_c, 14, 50, 90
15, 128519, Note_on_c, 14, 50, 0
15, 128580, Note_on_c, 14, 47, 90
15, 128639, Note_on_c, 14, 47, 0
15, 128700, Note_on_c, 14, 49, 90
15, 128759, Note_on_c, 14, 49, 0
15, 128820, Note_on_c, 14, 45, 90
15, 128879, Note_on_c, 14, 45, 0
15, 128940, Note_on_c, 14, 50, 90
15, 128999, Note_on_c, 14, 50, 0
15, 129060, Note_on_c, 14, 46, 90
15, 129119, Note_on_c, 14, 46, 0
15, 129180, Note_on_c, 14, 41, 90
15, 129239, Note_on_c, 14, 41, 0
15, 129240, Note_on_c, 14, 48, 90
15, 129299, Note_on_c, 14, 48, 0
15, 129300, Note_on_c, 14, 53, 90
15, 129479, Note_on_c, 14, 53, 0
15, 129480, Note_on_c, 14, 46, 90
15, 129539, Note_on_c, 14, 46, 0
15, 129540, Note_on_c, 14, 40, 90
15, 129599, Note_on_c, 14, 40, 0
15, 129600, Note_on_c, 14, 52, 90
15, 129719, Note_on_c, 14, 52, 0
15, 129720, Note_on_c, 14, 45, 90
15, 129779, Note_on_c, 14, 45, 0
15, 129780, Note_on_c, 14, 38, 90
15, 129839, Note_on_c, 14, 38, 0
15, 129840, Note_on_c, 14, 50, 90
15, 129959, Note_on_c, 14, 50, 0
15, 129960, Note_on_c, 14, 43, 90
15, 130019, Note_on_c, 14, 43, 0
15, 130020, Note_on_c, 14, 36, 90
15, 130079, Note_on_c, 14, 36, 0
15, 130080, Note_on_c, 14, 48, 90
15, 130139, Note_on_c, 14, 48, 0
15, 130140, Note_on_c, 14, 41, 90
15, 130199, Note_on_c, 14, 41, 0
15, 130200, Note_on_c, 14, 53, 90
15, 130229, Note_on_c, 14, 53, 0
15, 130230, Note_on_c, 14, 52, 90
15, 130259, Note_on_c, 14, 52, 0
15, 130260, Note_on_c, 14, 53, 90
15, 130319, Note_on_c, 14, 53, 0
15, 130320, Note_on_c, 14, 50, 90
15, 130379, Note_on_c, 14, 50, 0
15, 130380, Note_on_c, 14, 40, 90
15, 130439, Note_on_c, 14, 40, 0
15, 130440, Note_on_c, 14, 52, 90
15, 130469, Note_on_c, 14, 52, 0
15, 130470, Note_on_c, 14, 50, 90
15, 130499, Note_on_c, 14, 50, 0
15, 130500, Note_on_c, 14, 52, 90
15, 130559, Note_on_c, 14, 52, 0
15, 130560, Note_on_c, 14, 40, 90
15, 130619, Note_on_c, 14, 40, 0
15, 130620, Note_on_c, 14, 41, 90
15, 130679, Note_on_c, 14, 41, 0
15, 130740, Note_on_c, 14, 46, 90
15, 130799, Note_on_c, 14, 46, 0
15, 130860, Note_on_c, 14, 40, 90
15, 130919, Note_on_c, 14, 40, 0
15, 130980, Note_on_c, 14, 45, 90
15, 131039, Note_on_c, 14, 45, 0
15, 131100, Note_on_c, 14, 38, 90
15, 131159, Note_on_c, 14, 38, 0
15, 131220, Note_on_c, 14, 55, 90
15, 131399, Note_on_c, 14, 55, 0
15, 131400, Note_on_c, 14, 52, 90
15, 131459, Note_on_c, 14, 52, 0
15, 131460, Note_on_c, 14, 49, 90
15, 131519, Note_on_c, 14, 49, 0
15, 131520, Note_on_c, 14, 57, 90
15, 131639, Note_on_c, 14, 57, 0
15, 131640, Note_on_c, 14, 55, 90
15, 131669, Note_on_c, 14, 55, 0
15, 131670, Note_on_c, 14, 53, 90
15, 131699, Note_on_c, 14, 53, 0
15, 131700, Note_on_c, 14, 55, 90
15, 131759, Note_on_c, 14, 55, 0
15, 131760, Note_on_c, 14, 52, 90
15, 131819, Note_on_c, 14, 52, 0
15, 131820, Note_on_c, 14, 53, 90
15, 131879, Note_on_c, 14, 53, 0
15, 131880, Note_on_c, 14, 45, 90
15, 131939, Note_on_c, 14, 45, 0
15, 131940, Note_on_c, 14, 50, 90
15, 132179, Note_on_c, 14, 50, 0
15, 132180, Note_on_c, 14, 49, 90
15, 132299, Note_on_c, 14, 49, 0
15, 132300, Note_on_c, 14, 38, 90
15, 132359, Note_on_c, 14, 38, 0
15, 132360, Note_on_c, 14, 50, 90
15, 132449, Note_on_c, 14, 50, 0
15, 132450, Note_on_c, 14, 48, 90
15, 132479, Note_on_c, 14, 48, 0
15, 132480, Note_on_c, 14, 47, 90
15, 132509, Note_on_c, 14, 47, 0
15, 132510, Note_on_c, 14, 45, 90
15, 132539, Note_on_c, 14, 45, 0
15, 132540, Note_on_c, 14, 43, 90
15, 132599, Note_on_c, 14, 43, 0
15, 132600, Note_on_c, 14, 43, 90
15, 132659, Note_on_c, 14, 43, 0
15, 132660, Note_on_c, 14, 43, 90
15, 132719, Note_on_c, 14, 43, 0
15, 132720, Note_on_c, 14, 43, 90
15, 132779, Note_on_c, 14, 43, 0
15, 132780, Note_on_c, 14, 41, 90
15, 132809, Note_on_c, 14, 41, 0
15, 132810, Note_on_c, 14, 43, 90
15, 132839, Note_on_c, 14, 43, 0
15, 132840, Note_on_c, 14, 41, 90
15, 132869, Note_on_c, 14, 41, 0
15, 132870, Note_on_c, 14, 40, 90
15, 132899, Note_on_c, 14, 40, 0
15, 132900, Note_on_c, 14, 41, 90
15, 132929, Note_on_c, 14, 41, 0
15, 132930, Note_on_c, 14, 43, 90
15, 132959, Note_on_c, 14, 43, 0
15, 132960, Note_on_c, 14, 45, 90
15, 132989, Note_on_c, 14, 45, 0
15, 132990, Note_on_c, 14, 41, 90
15, 133019, Note_on_c, 14, 41, 0
15, 133020, Note_on_c, 14, 43, 90
15, 133049, Note_on_c, 14, 43, 0
15, 133050, Note_on_c, 14, 45, 90
15, 133079, Note_on_c, 14, 45, 0
15, 133080, Note_on_c, 14, 43, 90
15, 133109, Note_on_c, 14, 43, 0
15, 133110, Note_on_c, 14, 41, 90
15, 133139, Note_on_c, 14, 41, 0
15, 133140, Note_on_c, 14, 43, 90
15, 133169, Note_on_c, 14, 43, 0
15, 133170, Note_on_c, 14, 45, 90
15, 133199, Note_on_c, 14, 45, 0
15, 133200, Note_on_c, 14, 46, 90
15, 133229, Note_on_c, 14, 46, 0
15, 133230, Note_on_c, 14, 43, 90
15, 133259, Note_on_c, 14, 43, 0
15, 133260, Note_on_c, 14, 45, 90
15, 133289, Note_on_c, 14, 45, 0
15, 133290, Note_on_c, 14, 46, 90
15, 133319, Note_on_c, 14, 46, 0
15, 133320, Note_on_c, 14, 45, 90
15, 133349, Note_on_c, 14, 45, 0
15, 133350, Note_on_c, 14, 43, 90
15, 133379, Note_on_c, 14, 43, 0
15, 133380, Note_on_c, 14, 45, 90
15, 133409, Note_on_c, 14, 45, 0
15, 133410, Note_on_c, 14, 46, 90
15, 133439, Note_on_c, 14, 46, 0
15, 133440, Note_on_c, 14, 48, 90
15, 133469, Note_on_c, 14, 48, 0
15, 133470, Note_on_c, 14, 45, 90
15, 133499, Note_on_c, 14, 45, 0
15, 133500, Note_on_c, 14, 46, 90
15, 133529, Note_on_c, 14, 46, 0
15, 133530, Note_on_c, 14, 48, 90
15, 133559, Note_on_c, 14, 48, 0
15, 133560, Note_on_c, 14, 46, 90
15, 133589, Note_on_c, 14, 46, 0
15, 133590, Note_on_c, 14, 45, 90
15, 133619, Note_on_c, 14, 45, 0
15, 133620, Note_on_c, 14, 43, 90
15, 133649, Note_on_c, 14, 43, 0
15, 133650, Note_on_c, 14, 41, 90
15, 133679, Note_on_c, 14, 41, 0
15, 133680, Note_on_c, 14, 40, 90
15, 133709, Note_on_c, 14, 40, 0
15, 133710, Note_on_c, 14, 38, 90
15, 133739, Note_on_c, 14, 38, 0
15, 133740, Note_on_c, 14, 37, 90
15, 133769, Note_on_c, 14, 37, 0
15, 133770, Note_on_c, 14, 38, 90
15, 133799, Note_on_c, 14, 38, 0
15, 133800, Note_on_c, 14, 40, 90
15, 133829, Note_on_c, 14, 40, 0
15, 133830, Note_on_c, 14, 41, 90
15, 133859, Note_on_c, 14, 41, 0
15, 133860, Note_on_c, 14, 43, 90
15, 133889, Note_on_c, 14, 43, 0
15, 133890, Note_on_c, 14, 45, 90
15, 133919, Note_on_c, 14, 45, 0
15, 133920, Note_on_c, 14, 47, 90
15, 133949, Note_on_c, 14, 47, 0
15, 133950, Note_on_c, 14, 49, 90
15, 133979, Note_on_c, 14, 49, 0
15, 133980, Note_on_c, 14, 50, 90
15, 134009, Note_on_c, 14, 50, 0
15, 134010, Note_on_c, 14, 49, 90
15, 134039, Note_on_c, 14, 49, 0
15, 134040, Note_on_c, 14, 50, 90
15, 134069, Note_on_c, 14, 50, 0
15, 134070, Note_on_c, 14, 52, 90
15, 134099, Note_on_c, 14, 52, 0
15, 134100, Note_on_c, 14, 53, 90
15, 134129, Note_on_c, 14, 53, 0
15, 134130, Note_on_c, 14, 52, 90
15, 134159, Note_on_c, 14, 52, 0
15, 134160, Note_on_c, 14, 53, 90
15, 134189, Note_on_c, 14, 53, 0
15, 134190, Note_on_c, 14, 55, 90
15, 134219, Note_on_c, 14, 55, 0
15, 134220, Note_on_c, 14, 57, 90
15, 134279, Note_on_c, 14, 57, 0
15, 134280, Note_on_c, 14, 55, 90
15, 134339, Note_on_c, 14, 55, 0
15, 134340, Note_on_c, 14, 57, 90
15, 134399, Note_on_c, 14, 57, 0
15, 134400, Note_on_c, 14, 45, 90
15, 134459, Note_on_c, 14, 45, 0
15, 134460, Note_on_c, 14, 38, 90
15, 134519, Note_on_c, 14, 38, 0
15, 134580, Note_on_c, 14, 50, 90
15, 134639, Note_on_c, 14, 50, 0
15, 134700, Note_on_c, 14, 49, 90
15, 134759, Note_on_c, 14, 49, 0
15, 134820, Note_on_c, 14, 50, 90
15, 134879, Note_on_c, 14, 50, 0
15, 134940, Note_on_c, 14, 43, 90
15, 134999, Note_on_c, 14, 43, 0
15, 135060, Note_on_c, 14, 48, 90
15, 135119, Note_on_c, 14, 48, 0
15, 135180, Note_on_c, 14, 41, 90
15, 135239, Note_on_c, 14, 41, 0
15, 135300, Note_on_c, 14, 46, 90
15, 135359, Note_on_c, 14, 46, 0
15, 135420, Note_on_c, 14, 40, 90
15, 135479, Note_on_c, 14, 40, 0
15, 135540, Note_on_c, 14, 45, 90
15, 135599, Note_on_c, 14, 45, 0
15, 135660, Note_on_c, 14, 38, 90
15, 135719, Note_on_c, 14, 38, 0
15, 135720, Note_on_c, 14, 50, 90
15, 135779, Note_on_c, 14, 50, 0
15, 135780, Note_on_c, 14, 48, 90
15, 135839, Note_on_c, 14, 48, 0
15, 135840, Note_on_c, 14, 47, 90
15, 135899, Note_on_c, 14, 47, 0
15, 135900, Note_on_c, 14, 45, 90
15, 135959, Note_on_c, 14, 45, 0
15, 136020, Note_on_c, 14, 57, 90
15, 136079, Note_on_c, 14, 57, 0
15, 136140, Note_on_c, 14, 56, 90
15, 136199, Note_on_c, 14, 56, 0
15, 136260, Note_on_c, 14, 57, 90
15, 136319, Note_on_c, 14, 57, 0
15, 136380, Note_on_c, 14, 50, 90
15, 136439, Note_on_c, 14, 50, 0
15, 136500, Note_on_c, 14, 55, 90
15, 136559, Note_on_c, 14, 55, 0
15, 136620, Note_on_c, 14, 48, 90
15, 136679, Note_on_c, 14, 48, 0
15, 136740, Note_on_c, 14, 53, 90
15, 136799, Note_on_c, 14, 53, 0
15, 136860, Note_on_c, 14, 47, 90
15, 136919, Note_on_c, 14, 47, 0
15, 136980, Note_on_c, 14, 52, 90
15, 137039, Note_on_c, 14, 52, 0
15, 137100, Note_on_c, 14, 45, 90
15, 137159, Note_on_c, 14, 45, 0
15, 137160, Note_on_c, 14, 57, 90
15, 137219, Note_on_c, 14, 57, 0
15, 137220, Note_on_c, 14, 55, 90
15, 137279, Note_on_c, 14, 55, 0
15, 137280, Note_on_c, 14, 53, 90
15, 137339, Note_on_c, 14, 53, 0
15, 137340, Note_on_c, 14, 52, 90
15, 137399, Note_on_c, 14, 52, 0
15, 137460, Note_on_c, 14, 57, 90
15, 137519, Note_on_c, 14, 57, 0
15, 137580, Note_on_c, 14, 50, 90
15, 137639, Note_on_c, 14, 50, 0
15, 137640, Note_on_c, 14, 62, 90
15, 137699, Note_on_c, 14, 62, 0
15, 137700, Note_on_c, 14, 60, 90
15, 137759, Note_on_c, 14, 60, 0
15, 137760, Note_on_c, 14, 59, 90
15, 137819, Note_on_c, 14, 59, 0
15, 137820, Note_on_c, 14, 57, 90
15, 137879, Note_on_c, 14, 57, 0
15, 137940, Note_on_c, 14, 50, 90
15, 137999, Note_on_c, 14, 50, 0
15, 138060, Note_on_c, 14, 43, 90
15, 138119, Note_on_c, 14, 43, 0
15, 138120, Note_on_c, 14, 55, 90
15, 138179, Note_on_c, 14, 55, 0
15, 138180, Note_on_c, 14, 53, 90
15, 138239, Note_on_c, 14, 53, 0
15, 138240, Note_on_c, 14, 52, 90
15, 138299, Note_on_c, 14, 52, 0
15, 138300, Note_on_c, 14, 50, 90
15, 138359, Note_on_c, 14, 50, 0
15, 138360, Note_on_c, 14, 38, 90
15, 138449, Note_on_c, 14, 38, 0
15, 138450, Note_on_c, 14, 40, 90
15, 138479, Note_on_c, 14, 40, 0
15, 138480, Note_on_c, 14, 41, 90
15, 138509, Note_on_c, 14, 41, 0
15, 138510, Note_on_c, 14, 43, 90
15, 138539, Note_on_c, 14, 43, 0
15, 138540, Note_on_c, 14, 45, 90
15, 138599, Note_on_c, 14, 45, 0
15, 138600, Note_on_c, 14, 45, 90
15, 138659, Note_on_c, 14, 45, 0
15, 138660, Note_on_c, 14, 45, 90
15, 138719, Note_on_c, 14, 45, 0
15, 138720, Note_on_c, 14, 45, 90
15, 138779, Note_on_c, 14, 45, 0
15, 138780, Note_on_c, 14, 46, 90
15, 138809, Note_on_c, 14, 46, 0
15, 138810, Note_on_c, 14, 45, 90
15, 138839, Note_on_c, 14, 45, 0
15, 138840, Note_on_c, 14, 46, 90
15, 138869, Note_on_c, 14, 46, 0
15, 138870, Note_on_c, 14, 48, 90
15, 138899, Note_on_c, 14, 48, 0
15, 138900, Note_on_c, 14, 46, 90
15, 138929, Note_on_c, 14, 46, 0
15, 138930, Note_on_c, 14, 45, 90
15, 138959, Note_on_c, 14, 45, 0
15, 138960, Note_on_c, 14, 43, 90
15, 138989, Note_on_c, 14, 43, 0
15, 138990, Note_on_c, 14, 46, 90
15, 139019, Note_on_c, 14, 46, 0
15, 139020, Note_on_c, 14, 45, 90
15, 139049, Note_on_c, 14, 45, 0
15, 139050, Note_on_c, 14, 43, 90
15, 139079, Note_on_c, 14, 43, 0
15, 139080, Note_on_c, 14, 45, 90
15, 139109, Note_on_c, 14, 45, 0
15, 139110, Note_on_c, 14, 46, 90
15, 139139, Note_on_c, 14, 46, 0
15, 139140, Note_on_c, 14, 45, 90
15, 139169, Note_on_c, 14, 45, 0
15, 139170, Note_on_c, 14, 43, 90
15, 139199, Note_on_c, 14, 43, 0
15, 139200, Note_on_c, 14, 41, 90
15, 139229, Note_on_c, 14, 41, 0
15, 139230, Note_on_c, 14, 45, 90
15, 139259, Note_on_c, 14, 45, 0
15, 139260, Note_on_c, 14, 43, 90
15, 139289, Note_on_c, 14, 43, 0
15, 139290, Note_on_c, 14, 41, 90
15, 139319, Note_on_c, 14, 41, 0
15, 139320, Note_on_c, 14, 43, 90
15, 139349, Note_on_c, 14, 43, 0
15, 139350, Note_on_c, 14, 45, 90
15, 139379, Note_on_c, 14, 45, 0
15, 139380, Note_on_c, 14, 43, 90
15, 139409, Note_on_c, 14, 43, 0
15, 139410, Note_on_c, 14, 41, 90
15, 139439, Note_on_c, 14, 41, 0
15, 139440, Note_on_c, 14, 40, 90
15, 139469, Note_on_c, 14, 40, 0
15, 139470, Note_on_c, 14, 43, 90
15, 139499, Note_on_c, 14, 43, 0
15, 139500, Note_on_c, 14, 41, 90
15, 139529, Note_on_c, 14, 41, 0
15, 139530, Note_on_c, 14, 40, 90
15, 139559, Note_on_c, 14, 40, 0
15, 139560, Note_on_c, 14, 41, 90
15, 139589, Note_on_c, 14, 41, 0
15, 139590, Note_on_c, 14, 43, 90
15, 139619, Note_on_c, 14, 43, 0
15, 139620, Note_on_c, 14, 45, 90
15, 139649, Note_on_c, 14, 45, 0
15, 139650, Note_on_c, 14, 47, 90
15, 139679, Note_on_c, 14, 47, 0
15, 139680, Note_on_c, 14, 49, 90
15, 139709, Note_on_c, 14, 49, 0
15, 139710, Note_on_c, 14, 50, 90
15, 139739, Note_on_c, 14, 50, 0
15, 139740, Note_on_c, 14, 52, 90
15, 139769, Note_on_c, 14, 52, 0
15, 139770, Note_on_c, 14, 50, 90
15, 139799, Note_on_c, 14, 50, 0
15, 139800, Note_on_c, 14, 52, 90
15, 139829, Note_on_c, 14, 52, 0
15, 139830, Note_on_c, 14, 53, 90
15, 139859, Note_on_c, 14, 53, 0
15, 139860, Note_on_c, 14, 55, 90
15, 139889, Note_on_c, 14, 55, 0
15, 139890, Note_on_c, 14, 57, 90
15, 139919, Note_on_c, 14, 57, 0
15, 139920, Note_on_c, 14, 59, 90
15, 139949, Note_on_c, 14, 59, 0
15, 139950, Note_on_c, 14, 61, 90
15, 139979, Note_on_c, 14, 61, 0
15, 139980, Note_on_c, 14, 62, 90
15, 140039, Note_on_c, 14, 62, 0
15, 140040, Note_on_c, 14, 55, 90
15, 140099, Note_on_c, 14, 55, 0
15, 140100, Note_on_c, 14, 57, 90
15, 140159, Note_on_c, 14, 57, 0
15, 140160, Note_on_c, 14, 45, 90
15, 140219, Note_on_c, 14, 45, 0
15, 140220, Note_on_c, 14, 50, 90
15, 140279, Note_on_c, 14, 50, 0
15, 140280, Note_on_c, 14, 38, 90
15, 140369, Note_on_c, 14, 38, 0
15, 140370, Note_on_c, 14, 40, 90
15, 140399, Note_on_c, 14, 40, 0
15, 140400, Note_on_c, 14, 41, 90
15, 140429, Note_on_c, 14, 41, 0
15, 140430, Note_on_c, 14, 43, 90
15, 140459, Note_on_c, 14, 43, 0
15, 140460, Note_on_c, 14, 45, 90
15, 140519, Note_on_c, 14, 45, 0
15, 140520, Note_on_c, 14, 45, 90
15, 140579, Note_on_c, 14, 45, 0
15, 140580, Note_on_c, 14, 45, 90
15, 140639, Note_on_c, 14, 45, 0
15, 140640, Note_on_c, 14, 46, 90
15, 140699, Note_on_c, 14, 46, 0
15, 140700, Note_on_c, 14, 48, 90
15, 140759, Note_on_c, 14, 48, 0
15, 140760, Note_on_c, 14, 36, 90
15, 140849, Note_on_c, 14, 36, 0
15, 140850, Note_on_c, 14, 38, 90
15, 140879, Note_on_c, 14, 38, 0
15, 140880, Note_on_c, 14, 40, 90
15, 140909, Note_on_c, 14, 40, 0
15, 140910, Note_on_c, 14, 41, 90
15, 140939, Note_on_c, 14, 41, 0
15, 140940, Note_on_c, 14, 43, 90
15, 140999, Note_on_c, 14, 43, 0
15, 141000, Note_on_c, 14, 43, 90
15, 141059, Note_on_c, 14, 43, 0
15, 141060, Note_on_c, 14, 43, 90
15, 141119, Note_on_c, 14, 43, 0
15, 141120, Note_on_c, 14, 45, 90
15, 141179, Note_on_c, 14, 45, 0
15, 141180, Note_on_c, 14, 46, 90
15, 141239, Note_on_c, 14, 46, 0
15, 141240, Note_on_c, 14, 46, 90
15, 141299, Note_on_c, 14, 46, 0
15, 141300, Note_on_c, 14, 46, 90
15, 141359, Note_on_c, 14, 46, 0
15, 141360, Note_on_c, 14, 48, 90
15, 141419, Note_on_c, 14, 48, 0
15, 141420, Note_on_c, 14, 50, 90
15, 141479, Note_on_c, 14, 50, 0
15, 141480, Note_on_c, 14, 50, 90
15, 141539, Note_on_c, 14, 50, 0
15, 141540, Note_on_c, 14, 50, 90
15, 141599, Note_on_c, 14, 50, 0
15, 141600, Note_on_c, 14, 52, 90
15, 141659, Note_on_c, 14, 52, 0
15, 141660, Note_on_c, 14, 53, 90
15, 141719, Note_on_c, 14, 53, 0
15, 141720, Note_on_c, 14, 41, 90
15, 141809, Note_on_c, 14, 41, 0
15, 141810, Note_on_c, 14, 43, 90
15, 141839, Note_on_c, 14, 43, 0
15, 141840, Note_on_c, 14, 45, 90
15, 141869, Note_on_c, 14, 45, 0
15, 141870, Note_on_c, 14, 46, 90
15, 141899, Note_on_c, 14, 46, 0
15, 141900, Note_on_c, 14, 48, 90
15, 141959, Note_on_c, 14, 48, 0
15, 141960, Note_on_c, 14, 48, 90
15, 142019, Note_on_c, 14, 48, 0
15, 142020, Note_on_c, 14, 48, 90
15, 142079, Note_on_c, 14, 48, 0
15, 142080, Note_on_c, 14, 48, 90
15, 142139, Note_on_c, 14, 48, 0
15, 142140, Note_on_c, 14, 50, 90
15, 142169, Note_on_c, 14, 50, 0
15, 142170, Note_on_c, 14, 48, 90
15, 142199, Note_on_c, 14, 48, 0
15, 142200, Note_on_c, 14, 50, 90
15, 142229, Note_on_c, 14, 50, 0
15, 142230, Note_on_c, 14, 51, 90
15, 142259, Note_on_c, 14, 51, 0
15, 142260, Note_on_c, 14, 50, 90
15, 142289, Note_on_c, 14, 50, 0
15, 142290, Note_on_c, 14, 48, 90
15, 142319, Note_on_c, 14, 48, 0
15, 142320, Note_on_c, 14, 46, 90
15, 142349, Note_on_c, 14, 46, 0
15, 142350, Note_on_c, 14, 50, 90
15, 142379, Note_on_c, 14, 50, 0
15, 142380, Note_on_c, 14, 48, 90
15, 142409, Note_on_c, 14, 48, 0
15, 142410, Note_on_c, 14, 46, 90
15, 142439, Note_on_c, 14, 46, 0
15, 142440, Note_on_c, 14, 48, 90
15, 142469, Note_on_c, 14, 48, 0
15, 142470, Note_on_c, 14, 50, 90
15, 142499, Note_on_c, 14, 50, 0
15, 142500, Note_on_c, 14, 48, 90
15, 142529, Note_on_c, 14, 48, 0
15, 142530, Note_on_c, 14, 46, 90
15, 142559, Note_on_c, 14, 46, 0
15, 142560, Note_on_c, 14, 45, 90
15, 142589, Note_on_c, 14, 45, 0
15, 142590, Note_on_c, 14, 48, 90
15, 142619, Note_on_c, 14, 48, 0
15, 142620, Note_on_c, 14, 46, 90
15, 142649, Note_on_c, 14, 46, 0
15, 142650, Note_on_c, 14, 45, 90
15, 142679, Note_on_c, 14, 45, 0
15, 142680, Note_on_c, 14, 46, 90
15, 142709, Note_on_c, 14, 46, 0
15, 142710, Note_on_c, 14, 48, 90
15, 142739, Note_on_c, 14, 48, 0
15, 142740, Note_on_c, 14, 46, 90
15, 142769, Note_on_c, 14, 46, 0
15, 142770, Note_on_c, 14, 45, 90
15, 142799, Note_on_c, 14, 45, 0
15, 142800, Note_on_c, 14, 43, 90
15, 142829, Note_on_c, 14, 43, 0
15, 142830, Note_on_c, 14, 46, 90
15, 142859, Note_on_c, 14, 46, 0
15, 142860, Note_on_c, 14, 45, 90
15, 142889, Note_on_c, 14, 45, 0
15, 142890, Note_on_c, 14, 43, 90
15, 142919, Note_on_c, 14, 43, 0
15, 142920, Note_on_c, 14, 45, 90
15, 142949, Note_on_c, 14, 45, 0
15, 142950, Note_on_c, 14, 46, 90
15, 142979, Note_on_c, 14, 46, 0
15, 142980, Note_on_c, 14, 45, 90
15, 143009, Note_on_c, 14, 45, 0
15, 143010, Note_on_c, 14, 43, 90
15, 143039, Note_on_c, 14, 43, 0
15, 143040, Note_on_c, 14, 42, 90
15, 143069, Note_on_c, 14, 42, 0
15, 143070, Note_on_c, 14, 45, 90
15, 143099, Note_on_c, 14, 45, 0
15, 143100, Note_on_c, 14, 43, 90
15, 143159, Note_on_c, 14, 43, 0
15, 143160, Note_on_c, 14, 42, 90
15, 143219, Note_on_c, 14, 42, 0
15, 143220, Note_on_c, 14, 43, 90
15, 143279, Note_on_c, 14, 43, 0
15, 143280, Note_on_c, 14, 45, 90
15, 143339, Note_on_c, 14, 45, 0
15, 143340, Note_on_c, 14, 46, 90
15, 143399, Note_on_c, 14, 46, 0
15, 143400, Note_on_c, 14, 45, 90
15, 143459, Note_on_c, 14, 45, 0
15, 143460, Note_on_c, 14, 46, 90
15, 143519, Note_on_c, 14, 46, 0
15, 143520, Note_on_c, 14, 48, 90
15, 143579, Note_on_c, 14, 48, 0
15, 143580, Note_on_c, 14, 50, 90
15, 143639, Note_on_c, 14, 50, 0
15, 143640, Note_on_c, 14, 48, 90
15, 143699, Note_on_c, 14, 48, 0
15, 143700, Note_on_c, 14, 50, 90
15, 143759, Note_on_c, 14, 50, 0
15, 143760, Note_on_c, 14, 38, 90
15, 143819, Note_on_c, 14, 38, 0
15, 143820, Note_on_c, 14, 43, 90
15, 143879, Note_on_c, 14, 43, 0
15, 143940, Note_on_c, 14, 55, 90
15, 143999, Note_on_c, 14, 55, 0
15, 144060, Note_on_c, 14, 54, 90
15, 144119, Note_on_c, 14, 54, 0
15, 144180, Note_on_c, 14, 55, 90
15, 144239, Note_on_c, 14, 55, 0
15, 144300, Note_on_c, 14, 48, 90
15, 144359, Note_on_c, 14, 48, 0
15, 144420, Note_on_c, 14, 45, 90
15, 144479, Note_on_c, 14, 45, 0
15, 144540, Note_on_c, 14, 44, 90
15, 144599, Note_on_c, 14, 44, 0
15, 144660, Note_on_c, 14, 51, 90
15, 144719, Note_on_c, 14, 51, 0
15, 144780, Note_on_c, 14, 45, 90
15, 144839, Note_on_c, 14, 45, 0
15, 144900, Note_on_c, 14, 50, 90
15, 144959, Note_on_c, 14, 50, 0
15, 145020, Note_on_c, 14, 55, 90
15, 145079, Note_on_c, 14, 55, 0
15, 145080, Note_on_c, 14, 43, 90
15, 145169, Note_on_c, 14, 43, 0
15, 145170, Note_on_c, 14, 45, 90
15, 145199, Note_on_c, 14, 45, 0
15, 145200, Note_on_c, 14, 46, 90
15, 145229, Note_on_c, 14, 46, 0
15, 145230, Note_on_c, 14, 48, 90
15, 145259, Note_on_c, 14, 48, 0
15, 145260, Note_on_c, 14, 50, 90
15, 145319, Note_on_c, 14, 50, 0
15, 145320, Note_on_c, 14, 50, 90
15, 145379, Note_on_c, 14, 50, 0
15, 145380, Note_on_c, 14, 50, 90
15, 145439, Note_on_c, 14, 50, 0
15, 145440, Note_on_c, 14, 50, 90
15, 145499, Note_on_c, 14, 50, 0
15, 145500, Note_on_c, 14, 51, 90
15, 145529, Note_on_c, 14, 51, 0
15, 145530, Note_on_c, 14, 50, 90
15, 145559, Note_on_c, 14, 50, 0
15, 145560, Note_on_c, 14, 51, 90
15, 145589, Note_on_c, 14, 51, 0
15, 145590, Note_on_c, 14, 53, 90
15, 145619, Note_on_c, 14, 53, 0
15, 145620, Note_on_c, 14, 51, 90
15, 145649, Note_on_c, 14, 51, 0
15, 145650, Note_on_c, 14, 50, 90
15, 145679, Note_on_c, 14, 50, 0
15, 145680, Note_on_c, 14, 48, 90
15, 145709, Note_on_c, 14, 48, 0
15, 145710, Note_on_c, 14, 51, 90
15, 145739, Note_on_c, 14, 51, 0
15, 145740, Note_on_c, 14, 50, 90
15, 145769, Note_on_c, 14, 50, 0
15, 145770, Note_on_c, 14, 48, 90
15, 145799, Note_on_c, 14, 48, 0
15, 145800, Note_on_c, 14, 50, 90
15, 145829, Note_on_c, 14, 50, 0
15, 145830, Note_on_c, 14, 51, 90
15, 145859, Note_on_c, 14, 51, 0
15, 145860, Note_on_c, 14, 50, 90
15, 145889, Note_on_c, 14, 50, 0
15, 145890, Note_on_c, 14, 48, 90
15, 145919, Note_on_c, 14, 48, 0
15, 145920, Note_on_c, 14, 46, 90
15, 145949, Note_on_c, 14, 46, 0
15, 145950, Note_on_c, 14, 50, 90
15, 145979, Note_on_c, 14, 50, 0
15, 145980, Note_on_c, 14, 48, 90
15, 146009, Note_on_c, 14, 48, 0
15, 146010, Note_on_c, 14, 46, 90
15, 146039, Note_on_c, 14, 46, 0
15, 146040, Note_on_c, 14, 48, 90
15, 146069, Note_on_c, 14, 48, 0
15, 146070, Note_on_c, 14, 50, 90
15, 146099, Note_on_c, 14, 50, 0
15, 146100, Note_on_c, 14, 48, 90
15, 146129, Note_on_c, 14, 48, 0
15, 146130, Note_on_c, 14, 46, 90
15, 146159, Note_on_c, 14, 46, 0
15, 146160, Note_on_c, 14, 45, 90
15, 146189, Note_on_c, 14, 45, 0
15, 146190, Note_on_c, 14, 48, 90
15, 146219, Note_on_c, 14, 48, 0
15, 146220, Note_on_c, 14, 46, 90
15, 146249, Note_on_c, 14, 46, 0
15, 146250, Note_on_c, 14, 45, 90
15, 146279, Note_on_c, 14, 45, 0
15, 146280, Note_on_c, 14, 46, 90
15, 146309, Note_on_c, 14, 46, 0
15, 146310, Note_on_c, 14, 48, 90
15, 146339, Note_on_c, 14, 48, 0
15, 146340, Note_on_c, 14, 46, 90
15, 146369, Note_on_c, 14, 46, 0
15, 146370, Note_on_c, 14, 43, 90
15, 146399, Note_on_c, 14, 43, 0
15, 146400, Note_on_c, 14, 51, 90
15, 146429, Note_on_c, 14, 51, 0
15, 146430, Note_on_c, 14, 48, 90
15, 146459, Note_on_c, 14, 48, 0
15, 146460, Note_on_c, 14, 50, 90
15, 146489, Note_on_c, 14, 50, 0
15, 146490, Note_on_c, 14, 48, 90
15, 146519, Note_on_c, 14, 48, 0
15, 146520, Note_on_c, 14, 46, 90
15, 146549, Note_on_c, 14, 46, 0
15, 146550, Note_on_c, 14, 48, 90
15, 146579, Note_on_c, 14, 48, 0
15, 146580, Note_on_c, 14, 50, 90
15, 146639, Note_on_c, 14, 50, 0
15, 146640, Note_on_c, 14, 38, 90
15, 146699, Note_on_c, 14, 38, 0
15, 146700, Note_on_c, 14, 43, 90
15, 146759, Note_on_c, 14, 43, 0
15, 146760, Note_on_c, 14, 55, 90
15, 146819, Note_on_c, 14, 55, 0
15, 146820, Note_on_c, 14, 57, 90
15, 146879, Note_on_c, 14, 57, 0
15, 146880, Note_on_c, 14, 58, 90
15, 146939, Note_on_c, 14, 58, 0
15, 146940, Note_on_c, 14, 48, 90
15, 146969, Note_on_c, 14, 48, 0
15, 146970, Note_on_c, 14, 46, 90
15, 146999, Note_on_c, 14, 46, 0
15, 147000, Note_on_c, 14, 48, 90
15, 147029, Note_on_c, 14, 48, 0
15, 147030, Note_on_c, 14, 50, 90
15, 147059, Note_on_c, 14, 50, 0
15, 147060, Note_on_c, 14, 52, 90
15, 147089, Note_on_c, 14, 52, 0
15, 147090, Note_on_c, 14, 53, 90
15, 147119, Note_on_c, 14, 53, 0
15, 147120, Note_on_c, 14, 55, 90
15, 147149, Note_on_c, 14, 55, 0
15, 147150, Note_on_c, 14, 52, 90
15, 147179, Note_on_c, 14, 52, 0
15, 147180, Note_on_c, 14, 53, 90
15, 147239, Note_on_c, 14, 53, 0
15, 147300, Note_on_c, 14, 46, 90
15, 147359, Note_on_c, 14, 46, 0
15, 147420, Note_on_c, 14, 52, 90
15, 147479, Note_on_c, 14, 52, 0
15, 147540, Note_on_c, 14, 45, 90
15, 147599, Note_on_c, 14, 45, 0
15, 147660, Note_on_c, 14, 62, 90
15, 147719, Note_on_c, 14, 62, 0
15, 147720, Note_on_c, 14, 50, 90
15, 147809, Note_on_c, 14, 50, 0
15, 147810, Note_on_c, 14, 52, 90
15, 147839, Note_on_c, 14, 52, 0
15, 147840, Note_on_c, 14, 53, 90
15, 147869, Note_on_c, 14, 53, 0
15, 147870, Note_on_c, 14, 55, 90
15, 147899, Note_on_c, 14, 55, 0
15, 147900, Note_on_c, 14, 57, 90
15, 147959, Note_on_c, 14, 57, 0
15, 147960, Note_on_c, 14, 57, 90
15, 148019, Note_on_c, 14, 57, 0
15, 148020, Note_on_c, 14, 57, 90
15, 148079, Note_on_c, 14, 57, 0
15, 148080, Note_on_c, 14, 57, 90
15, 148139, Note_on_c, 14, 57, 0
15, 148140, Note_on_c, 14, 58, 90
15, 148169, Note_on_c, 14, 58, 0
15, 148170, Note_on_c, 14, 57, 90
15, 148199, Note_on_c, 14, 57, 0
15, 148200, Note_on_c, 14, 58, 90
15, 148229, Note_on_c, 14, 58, 0
15, 148230, Note_on_c, 14, 60, 90
15, 148259, Note_on_c, 14, 60, 0
15, 148260, Note_on_c, 14, 58, 90
15, 148289, Note_on_c, 14, 58, 0
15, 148290, Note_on_c, 14, 57, 90
15, 148319, Note_on_c, 14, 57, 0
15, 148320, Note_on_c, 14, 55, 90
15, 148349, Note_on_c, 14, 55, 0
15, 148350, Note_on_c, 14, 58, 90
15, 148379, Note_on_c, 14, 58, 0
15, 148380, Note_on_c, 14, 57, 90
15, 148409, Note_on_c, 14, 57, 0
15, 148410, Note_on_c, 14, 55, 90
15, 148439, Note_on_c, 14, 55, 0
15, 148440, Note_on_c, 14, 57, 90
15, 148469, Note_on_c, 14, 57, 0
15, 148470, Note_on_c, 14, 58, 90
15, 148499, Note_on_c, 14, 58, 0
15, 148500, Note_on_c, 14, 57, 90
15, 148529, Note_on_c, 14, 57, 0
15, 148530, Note_on_c, 14, 55, 90
15, 148559, Note_on_c, 14, 55, 0
15, 148560, Note_on_c, 14, 53, 90
15, 148589, Note_on_c, 14, 53, 0
15, 148590, Note_on_c, 14, 57, 90
15, 148619, Note_on_c, 14, 57, 0
15, 148620, Note_on_c, 14, 55, 90
15, 148649, Note_on_c, 14, 55, 0
15, 148650, Note_on_c, 14, 53, 90
15, 148679, Note_on_c, 14, 53, 0
15, 148680, Note_on_c, 14, 55, 90
15, 148709, Note_on_c, 14, 55, 0
15, 148710, Note_on_c, 14, 57, 90
15, 148739, Note_on_c, 14, 57, 0
15, 148740, Note_on_c, 14, 55, 90
15, 148769, Note_on_c, 14, 55, 0
15, 148770, Note_on_c, 14, 53, 90
15, 148799, Note_on_c, 14, 53, 0
15, 148800, Note_on_c, 14, 52, 90
15, 148829, Note_on_c, 14, 52, 0
15, 148830, Note_on_c, 14, 55, 90
15, 148859, Note_on_c, 14, 55, 0
15, 148860, Note_on_c, 14, 53, 90
15, 148889, Note_on_c, 14, 53, 0
15, 148890, Note_on_c, 14, 52, 90
15, 148919, Note_on_c, 14, 52, 0
15, 148920, Note_on_c, 14, 53, 90
15, 148949, Note_on_c, 14, 53, 0
15, 148950, Note_on_c, 14, 55, 90
15, 148979, Note_on_c, 14, 55, 0
15, 148980, Note_on_c, 14, 53, 90
15, 149009, Note_on_c, 14, 53, 0
15, 149010, Note_on_c, 14, 52, 90
15, 149039, Note_on_c, 14, 52, 0
15, 149040, Note_on_c, 14, 50, 90
15, 149069, Note_on_c, 14, 50, 0
15, 149070, Note_on_c, 14, 53, 90
15, 149099, Note_on_c, 14, 53, 0
15, 149100, Note_on_c, 14, 52, 90
15, 149129, Note_on_c, 14, 52, 0
15, 149130, Note_on_c, 14, 50, 90
15, 149159, Note_on_c, 14, 50, 0
15, 149160, Note_on_c, 14, 52, 90
15, 149189, Note_on_c, 14, 52, 0
15, 149190, Note_on_c, 14, 53, 90
15, 149219, Note_on_c, 14, 53, 0
15, 149220, Note_on_c, 14, 52, 90
15, 149249, Note_on_c, 14, 52, 0
15, 149250, Note_on_c, 14, 50, 90
15, 149279, Note_on_c, 14, 50, 0
15, 149280, Note_on_c, 14, 49, 90
15, 149309, Note_on_c, 14, 49, 0
15, 149310, Note_on_c, 14, 52, 90
15, 149339, Note_on_c, 14, 52, 0
15, 149340, Note_on_c, 14, 50, 90
15, 149369, Note_on_c, 14, 50, 0
15, 149370, Note_on_c, 14, 49, 90
15, 149399, Note_on_c, 14, 49, 0
15, 149400, Note_on_c, 14, 50, 90
15, 149429, Note_on_c, 14, 50, 0
15, 149430, Note_on_c, 14, 52, 90
15, 149459, Note_on_c, 14, 52, 0
15, 149460, Note_on_c, 14, 50, 90
15, 149489, Note_on_c, 14, 50, 0
15, 149490, Note_on_c, 14, 48, 90
15, 149519, Note_on_c, 14, 48, 0
15, 149520, Note_on_c, 14, 46, 90
15, 149549, Note_on_c, 14, 46, 0
15, 149550, Note_on_c, 14, 50, 90
15, 149579, Note_on_c, 14, 50, 0
15, 149580, Note_on_c, 14, 48, 90
15, 149609, Note_on_c, 14, 48, 0
15, 149610, Note_on_c, 14, 46, 90
15, 149639, Note_on_c, 14, 46, 0
15, 149640, Note_on_c, 14, 48, 90
15, 149669, Note_on_c, 14, 48, 0
15, 149670, Note_on_c, 14, 50, 90
15, 149699, Note_on_c, 14, 50, 0
15, 149700, Note_on_c, 14, 48, 90
15, 149729, Note_on_c, 14, 48, 0
15, 149730, Note_on_c, 14, 46, 90
15, 149759, Note_on_c, 14, 46, 0
15, 149760, Note_on_c, 14, 45, 90
15, 149789, Note_on_c, 14, 45, 0
15, 149790, Note_on_c, 14, 48, 90
15, 149819, Note_on_c, 14, 48, 0
15, 149820, Note_on_c, 14, 46, 90
15, 149880, Note_on_c, 14, 46, 0
15, 149880, Note_on_c, 14, 58, 90
15, 149969, Note_on_c, 14, 58, 0
15, 149970, Note_on_c, 14, 56, 90
15, 149999, Note_on_c, 14, 56, 0
15, 150000, Note_on_c, 14, 55, 90
15, 150029, Note_on_c, 14, 55, 0
15, 150030, Note_on_c, 14, 53, 90
15, 150059, Note_on_c, 14, 53, 0
15, 150060, Note_on_c, 14, 51, 90
15, 150119, Note_on_c, 14, 51, 0
15, 150120, Note_on_c, 14, 51, 90
15, 150179, Note_on_c, 14, 51, 0
15, 150180, Note_on_c, 14, 51, 90
15, 150239, Note_on_c, 14, 51, 0
15, 150240, Note_on_c, 14, 51, 90
15, 150299, Note_on_c, 14, 51, 0
15, 150300, Note_on_c, 14, 50, 90
15, 150329, Note_on_c, 14, 50, 0
15, 150330, Note_on_c, 14, 51, 90
15, 150359, Note_on_c, 14, 51, 0
15, 150360, Note_on_c, 14, 50, 90
15, 150389, Note_on_c, 14, 50, 0
15, 150390, Note_on_c, 14, 48, 90
15, 150419, Note_on_c, 14, 48, 0
15, 150420, Note_on_c, 14, 50, 90
15, 150449, Note_on_c, 14, 50, 0
15, 150450, Note_on_c, 14, 51, 90
15, 150479, Note_on_c, 14, 51, 0
15, 150480, Note_on_c, 14, 53, 90
15, 150509, Note_on_c, 14, 53, 0
15, 150510, Note_on_c, 14, 50, 90
15, 150539, Note_on_c, 14, 50, 0
15, 150540, Note_on_c, 14, 51, 90
15, 150569, Note_on_c, 14, 51, 0
15, 150570, Note_on_c, 14, 53, 90
15, 150599, Note_on_c, 14, 53, 0
15, 150600, Note_on_c, 14, 51, 90
15, 150629, Note_on_c, 14, 51, 0
15, 150630, Note_on_c, 14, 50, 90
15, 150659, Note_on_c, 14, 50, 0
15, 150660, Note_on_c, 14, 51, 90
15, 150689, Note_on_c, 14, 51, 0
15, 150690, Note_on_c, 14, 53, 90
15, 150719, Note_on_c, 14, 53, 0
15, 150720, Note_on_c, 14, 55, 90
15, 150749, Note_on_c, 14, 55, 0
15, 150750, Note_on_c, 14, 51, 90
15, 150779, Note_on_c, 14, 51, 0
15, 150780, Note_on_c, 14, 53, 90
15, 150809, Note_on_c, 14, 53, 0
15, 150810, Note_on_c, 14, 55, 90
15, 150839, Note_on_c, 14, 55, 0
15, 150840, Note_on_c, 14, 53, 90
15, 150869, Note_on_c, 14, 53, 0
15, 150870, Note_on_c, 14, 51, 90
15, 150899, Note_on_c, 14, 51, 0
15, 150900, Note_on_c, 14, 53, 90
15, 150929, Note_on_c, 14, 53, 0
15, 150930, Note_on_c, 14, 55, 90
15, 150959, Note_on_c, 14, 55, 0
15, 150960, Note_on_c, 14, 57, 90
15, 150989, Note_on_c, 14, 57, 0
15, 150990, Note_on_c, 14, 53, 90
15, 151019, Note_on_c, 14, 53, 0
15, 151020, Note_on_c, 14, 55, 90
15, 151049, Note_on_c, 14, 55, 0
15, 151050, Note_on_c, 14, 57, 90
15, 151079, Note_on_c, 14, 57, 0
15, 151080, Note_on_c, 14, 55, 90
15, 151109, Note_on_c, 14, 55, 0
15, 151110, Note_on_c, 14, 53, 90
15, 151139, Note_on_c, 14, 53, 0
15, 151140, Note_on_c, 14, 55, 90
15, 151169, Note_on_c, 14, 55, 0
15, 151170, Note_on_c, 14, 57, 90
15, 151199, Note_on_c, 14, 57, 0
15, 151200, Note_on_c, 14, 58, 90
15, 151229, Note_on_c, 14, 58, 0
15, 151230, Note_on_c, 14, 55, 90
15, 151259, Note_on_c, 14, 55, 0
15, 151260, Note_on_c, 14, 57, 90
15, 151289, Note_on_c, 14, 57, 0
15, 151290, Note_on_c, 14, 58, 90
15, 151319, Note_on_c, 14, 58, 0
15, 151320, Note_on_c, 14, 57, 90
15, 151349, Note_on_c, 14, 57, 0
15, 151350, Note_on_c, 14, 55, 90
15, 151379, Note_on_c, 14, 55, 0
15, 151380, Note_on_c, 14, 57, 90
15, 151409, Note_on_c, 14, 57, 0
15, 151410, Note_on_c, 14, 58, 90
15, 151439, Note_on_c, 14, 58, 0
15, 151440, Note_on_c, 14, 60, 90
15, 151469, Note_on_c, 14, 60, 0
15, 151470, Note_on_c, 14, 57, 90
15, 151499, Note_on_c, 14, 57, 0
15, 151500, Note_on_c, 14, 58, 90
15, 151559, Note_on_c, 14, 58, 0
15, 151560, Note_on_c, 14, 53, 90
15, 151619, Note_on_c, 14, 53, 0
15, 151620, Note_on_c, 14, 55, 90
15, 151679, Note_on_c, 14, 55, 0
15, 151680, Note_on_c, 14, 51, 90
15, 151739, Note_on_c, 14, 51, 0
15, 151740, Note_on_c, 14, 53, 90
15, 151859, Note_on_c, 14, 53, 0
15, 151860, Note_on_c, 14, 41, 90
15, 151979, Note_on_c, 14, 41, 0
15, 151980, Note_on_c, 14, 46, 90
15, 152099, Note_on_c, 14, 46, 0
15, 152220, Note_on_c, 14, 38, 90
15, 152279, Note_on_c, 14, 38, 0
15, 152340, Note_on_c, 14, 50, 90
15, 152399, Note_on_c, 14, 50, 0
15, 152460, Note_on_c, 14, 49, 90
15, 152519, Note_on_c, 14, 49, 0
15, 152580, Note_on_c, 14, 50, 90
15, 152639, Note_on_c, 14, 50, 0
15, 152700, Note_on_c, 14, 43, 90
15, 152759, Note_on_c, 14, 43, 0
15, 152820, Note_on_c, 14, 48, 90
15, 152879, Note_on_c, 14, 48, 0
15, 152940, Note_on_c, 14, 41, 90
15, 152999, Note_on_c, 14, 41, 0
15, 153060, Note_on_c, 14, 46, 90
15, 153119, Note_on_c, 14, 46, 0
15, 153180, Note_on_c, 14, 40, 90
15, 153239, Note_on_c, 14, 40, 0
15, 153300, Note_on_c, 14, 45, 90
15, 153359, Note_on_c, 14, 45, 0
15, 153420, Note_on_c, 14, 38, 90
15, 153479, Note_on_c, 14, 38, 0
15, 153480, Note_on_c, 14, 50, 90
15, 153539, Note_on_c, 14, 50, 0
15, 153540, Note_on_c, 14, 48, 90
15, 153599, Note_on_c, 14, 48, 0
15, 153600, Note_on_c, 14, 47, 90
15, 153659, Note_on_c, 14, 47, 0
15, 153660, Note_on_c, 14, 45, 90
15, 153719, Note_on_c, 14, 45, 0
15, 153780, Note_on_c, 14, 57, 90
15, 153839, Note_on_c, 14, 57, 0
15, 153900, Note_on_c, 14, 56, 90
15, 153959, Note_on_c, 14, 56, 0
15, 154020, Note_on_c, 14, 57, 90
15, 154079, Note_on_c, 14, 57, 0
15, 154140, Note_on_c, 14, 50, 90
15, 154199, Note_on_c, 14, 50, 0
15, 154260, Note_on_c, 14, 55, 90
15, 154319, Note_on_c, 14, 55, 0
15, 154380, Note_on_c, 14, 48, 90
15, 154439, Note_on_c, 14, 48, 0
15, 154500, Note_on_c, 14, 53, 90
15, 154559, Note_on_c, 14, 53, 0
15, 154620, Note_on_c, 14, 47, 90
15, 154679, Note_on_c, 14, 47, 0
15, 154740, Note_on_c, 14, 52, 90
15, 154799, Note_on_c, 14, 52, 0
15, 154860, Note_on_c, 14, 45, 90
15, 154919, Note_on_c, 14, 45, 0
15, 154920, Note_on_c, 14, 57, 90
15, 154979, Note_on_c, 14, 57, 0
15, 154980, Note_on_c, 14, 55, 90
15, 155039, Note_on_c, 14, 55, 0
15, 155040, Note_on_c, 14, 53, 90
15, 155099, Note_on_c, 14, 53, 0
15, 155100, Note_on_c, 14, 52, 90
15, 155159, Note_on_c, 14, 52, 0
15, 155220, Note_on_c, 14, 57, 90
15, 155279, Note_on_c, 14, 57, 0
15, 155340, Note_on_c, 14, 50, 90
15, 155399, Note_on_c, 14, 50, 0
15, 155400, Note_on_c, 14, 62, 90
15, 155459, Note_on_c, 14, 62, 0
15, 155460, Note_on_c, 14, 60, 90
15, 155519, Note_on_c, 14, 60, 0
15, 155520, Note_on_c, 14, 58, 90
15, 155579, Note_on_c, 14, 58, 0
15, 155580, Note_on_c, 14, 57, 90
15, 155639, Note_on_c, 14, 57, 0
15, 155700, Note_on_c, 14, 50, 90
15, 155759, Note_on_c, 14, 50, 0
15, 155820, Note_on_c, 14, 43, 90
15, 155879, Note_on_c, 14, 43, 0
15, 155880, Note_on_c, 14, 55, 90
15, 155939, Note_on_c, 14, 55, 0
15, 155940, Note_on_c, 14, 53, 90
15, 155999, Note_on_c, 14, 53, 0
15, 156000, Note_on_c, 14, 52, 90
15, 156059, Note_on_c, 14, 52, 0
15, 156060, Note_on_c, 14, 50, 90
15, 156119, Note_on_c, 14, 50, 0
15, 156120, Note_on_c, 14, 38, 90
15, 156209, Note_on_c, 14, 38, 0
15, 156210, Note_on_c, 14, 40, 90
15, 156239, Note_on_c, 14, 40, 0
15, 156240, Note_on_c, 14, 41, 90
15, 156269, Note_on_c, 14, 41, 0
15, 156270, Note_on_c, 14, 43, 90
15, 156299, Note_on_c, 14, 43, 0
15, 156300, Note_on_c, 14, 45, 90
15, 156359, Note_on_c, 14, 45, 0
15, 156360, Note_on_c, 14, 45, 90
15, 156419, Note_on_c, 14, 45, 0
15, 156420, Note_on_c, 14, 45, 90
15, 156479, Note_on_c, 14, 45, 0
15, 156480, Note_on_c, 14, 45, 90
15, 156539, Note_on_c, 14, 45, 0
15, 156540, Note_on_c, 14, 46, 90
15, 156569, Note_on_c, 14, 46, 0
15, 156570, Note_on_c, 14, 45, 90
15, 156599, Note_on_c, 14, 45, 0
15, 156600, Note_on_c, 14, 46, 90
15, 156629, Note_on_c, 14, 46, 0
15, 156630, Note_on_c, 14, 48, 90
15, 156659, Note_on_c, 14, 48, 0
15, 156660, Note_on_c, 14, 46, 90
15, 156689, Note_on_c, 14, 46, 0
15, 156690, Note_on_c, 14, 45, 90
15, 156719, Note_on_c, 14, 45, 0
15, 156720, Note_on_c, 14, 43, 90
15, 156749, Note_on_c, 14, 43, 0
15, 156750, Note_on_c, 14, 46, 90
15, 156779, Note_on_c, 14, 46, 0
15, 156780, Note_on_c, 14, 45, 90
15, 156809, Note_on_c, 14, 45, 0
15, 156810, Note_on_c, 14, 43, 90
15, 156839, Note_on_c, 14, 43, 0
15, 156840, Note_on_c, 14, 45, 90
15, 156869, Note_on_c, 14, 45, 0
15, 156870, Note_on_c, 14, 46, 90
15, 156899, Note_on_c, 14, 46, 0
15, 156900, Note_on_c, 14, 45, 90
15, 156929, Note_on_c, 14, 45, 0
15, 156930, Note_on_c, 14, 43, 90
15, 156959, Note_on_c, 14, 43, 0
15, 156960, Note_on_c, 14, 41, 90
15, 156989, Note_on_c, 14, 41, 0
15, 156990, Note_on_c, 14, 45, 90
15, 157019, Note_on_c, 14, 45, 0
15, 157020, Note_on_c, 14, 43, 90
15, 157049, Note_on_c, 14, 43, 0
15, 157050, Note_on_c, 14, 41, 90
15, 157079, Note_on_c, 14, 41, 0
15, 157080, Note_on_c, 14, 43, 90
15, 157109, Note_on_c, 14, 43, 0
15, 157110, Note_on_c, 14, 45, 90
15, 157139, Note_on_c, 14, 45, 0
15, 157140, Note_on_c, 14, 43, 90
15, 157169, Note_on_c, 14, 43, 0
15, 157170, Note_on_c, 14, 41, 90
15, 157199, Note_on_c, 14, 41, 0
15, 157200, Note_on_c, 14, 40, 90
15, 157229, Note_on_c, 14, 40, 0
15, 157230, Note_on_c, 14, 43, 90
15, 157259, Note_on_c, 14, 43, 0
15, 157260, Note_on_c, 14, 41, 90
15, 157289, Note_on_c, 14, 41, 0
15, 157290, Note_on_c, 14, 40, 90
15, 157319, Note_on_c, 14, 40, 0
15, 157320, Note_on_c, 14, 41, 90
15, 157349, Note_on_c, 14, 41, 0
15, 157350, Note_on_c, 14, 43, 90
15, 157379, Note_on_c, 14, 43, 0
15, 157380, Note_on_c, 14, 45, 90
15, 157409, Note_on_c, 14, 45, 0
15, 157410, Note_on_c, 14, 47, 90
15, 157439, Note_on_c, 14, 47, 0
15, 157440, Note_on_c, 14, 49, 90
15, 157469, Note_on_c, 14, 49, 0
15, 157470, Note_on_c, 14, 50, 90
15, 157499, Note_on_c, 14, 50, 0
15, 157500, Note_on_c, 14, 52, 90
15, 157529, Note_on_c, 14, 52, 0
15, 157530, Note_on_c, 14, 50, 90
15, 157559, Note_on_c, 14, 50, 0
15, 157560, Note_on_c, 14, 52, 90
15, 157589, Note_on_c, 14, 52, 0
15, 157590, Note_on_c, 14, 53, 90
15, 157619, Note_on_c, 14, 53, 0
15, 157620, Note_on_c, 14, 55, 90
15, 157649, Note_on_c, 14, 55, 0
15, 157650, Note_on_c, 14, 57, 90
15, 157679, Note_on_c, 14, 57, 0
15, 157680, Note_on_c, 14, 59, 90
15, 157709, Note_on_c, 14, 59, 0
15, 157710, Note_on_c, 14, 61, 90
15, 157739, Note_on_c, 14, 61, 0
15, 157740, Note_on_c, 14, 62, 90
15, 157799, Note_on_c, 14, 62, 0
15, 157800, Note_on_c, 14, 55, 90
15, 157859, Note_on_c, 14, 55, 0
15, 157860, Note_on_c, 14, 57, 90
15, 157919, Note_on_c, 14, 57, 0
15, 157920, Note_on_c, 14, 45, 90
15, 157979, Note_on_c, 14, 45, 0
15, 157980, Note_on_c, 14, 38, 90
15, 158039, Note_on_c, 14, 38, 0
15, 158100, Note_on_c, 14, 50, 90
15, 158159, Note_on_c, 14, 50, 0
15, 158220, Note_on_c, 14, 49, 90
15, 158279, Note_on_c, 14, 49, 0
15, 158340, Note_on_c, 14, 50, 90
15, 158399, Note_on_c, 14, 50, 0
15, 158460, Note_on_c, 14, 43, 90
15, 158519, Note_on_c, 14, 43, 0
15, 158580, Note_on_c, 14, 48, 90
15, 158639, Note_on_c, 14, 48, 0
15, 158700, Note_on_c, 14, 41, 90
15, 158759, Note_on_c, 14, 41, 0
15, 158820, Note_on_c, 14, 46, 90
15, 158879, Note_on_c, 14, 46, 0
15, 158940, Note_on_c, 14, 40, 90
15, 158999, Note_on_c, 14, 40, 0
15, 159060, Note_on_c, 14, 45, 90
15, 159119, Note_on_c, 14, 45, 0
15, 159180, Note_on_c, 14, 38, 90
15, 159239, Note_on_c, 14, 38, 0
15, 159240, Note_on_c, 14, 50, 90
15, 159299, Note_on_c, 14, 50, 0
15, 159300, Note_on_c, 14, 48, 90
15, 159359, Note_on_c, 14, 48, 0
15, 159360, Note_on_c, 14, 47, 90
15, 159419, Note_on_c, 14, 47, 0
15, 159420, Note_on_c, 14, 57, 90
15, 159479, Note_on_c, 14, 57, 0
15, 159480, Note_on_c, 14, 45, 90
15, 159569, Note_on_c, 14, 45, 0
15, 159570, Note_on_c, 14, 47, 90
15, 159599, Note_on_c, 14, 47, 0
15, 159600, Note_on_c, 14, 48, 90
15, 159629, Note_on_c, 14, 48, 0
15, 159630, Note_on_c, 14, 50, 90
15, 159659, Note_on_c, 14, 50, 0
15, 159660, Note_on_c, 14, 52, 90
15, 159719, Note_on_c, 14, 52, 0
15, 159720, Note_on_c, 14, 52, 90
15, 159779, Note_on_c, 14, 52, 0
15, 159780, Note_on_c, 14, 52, 90
15, 159839, Note_on_c, 14, 52, 0
15, 159840, Note_on_c, 14, 52, 90
15, 159899, Note_on_c, 14, 52, 0
15, 159900, Note_on_c, 14, 53, 90
15, 159929, Note_on_c, 14, 53, 0
15, 159930, Note_on_c, 14, 52, 90
15, 159959, Note_on_c, 14, 52, 0
15, 159960, Note_on_c, 14, 53, 90
15, 159989, Note_on_c, 14, 53, 0
15, 159990, Note_on_c, 14, 55, 90
15, 160019, Note_on_c, 14, 55, 0
15, 160020, Note_on_c, 14, 53, 90
15, 160049, Note_on_c, 14, 53, 0
15, 160050, Note_on_c, 14, 52, 90
15, 160079, Note_on_c, 14, 52, 0
15, 160080, Note_on_c, 14, 50, 90
15, 160109, Note_on_c, 14, 50, 0
15, 160110, Note_on_c, 14, 53, 90
15, 160139, Note_on_c, 14, 53, 0
15, 160140, Note_on_c, 14, 52, 90
15, 160169, Note_on_c, 14, 52, 0
15, 160170, Note_on_c, 14, 50, 90
15, 160199, Note_on_c, 14, 50, 0
15, 160200, Note_on_c, 14, 52, 90
15, 160229, Note_on_c, 14, 52, 0
15, 160230, Note_on_c, 14, 53, 90
15, 160259, Note_on_c, 14, 53, 0
15, 160260, Note_on_c, 14, 52, 90
15, 160289, Note_on_c, 14, 52, 0
15, 160290, Note_on_c, 14, 50, 90
15, 160319, Note_on_c, 14, 50, 0
15, 160320, Note_on_c, 14, 48, 90
15, 160349, Note_on_c, 14, 48, 0
15, 160350, Note_on_c, 14, 52, 90
15, 160379, Note_on_c, 14, 52, 0
15, 160380, Note_on_c, 14, 50, 90
15, 160409, Note_on_c, 14, 50, 0
15, 160410, Note_on_c, 14, 48, 90
15, 160439, Note_on_c, 14, 48, 0
15, 160440, Note_on_c, 14, 50, 90
15, 160469, Note_on_c, 14, 50, 0
15, 160470, Note_on_c, 14, 52, 90
15, 160499, Note_on_c, 14, 52, 0
15, 160500, Note_on_c, 14, 50, 90
15, 160529, Note_on_c, 14, 50, 0
15, 160530, Note_on_c, 14, 48, 90
15, 160559, Note_on_c, 14, 48, 0
15, 160560, Note_on_c, 14, 47, 90
15, 160589, Note_on_c, 14, 47, 0
15, 160590, Note_on_c, 14, 50, 90
15, 160619, Note_on_c, 14, 50, 0
15, 160620, Note_on_c, 14, 48, 90
15, 160649, Note_on_c, 14, 48, 0
15, 160650, Note_on_c, 14, 47, 90
15, 160679, Note_on_c, 14, 47, 0
15, 160680, Note_on_c, 14, 48, 90
15, 160709, Note_on_c, 14, 48, 0
15, 160710, Note_on_c, 14, 50, 90
15, 160739, Note_on_c, 14, 50, 0
15, 160740, Note_on_c, 14, 48, 90
15, 160769, Note_on_c, 14, 48, 0
15, 160770, Note_on_c, 14, 47, 90
15, 160799, Note_on_c, 14, 47, 0
15, 160800, Note_on_c, 14, 45, 90
15, 160829, Note_on_c, 14, 45, 0
15, 160830, Note_on_c, 14, 48, 90
15, 160859, Note_on_c, 14, 48, 0
15, 160860, Note_on_c, 14, 47, 90
15, 160889, Note_on_c, 14, 47, 0
15, 160890, Note_on_c, 14, 45, 90
15, 160919, Note_on_c, 14, 45, 0
15, 160920, Note_on_c, 14, 47, 90
15, 160949, Note_on_c, 14, 47, 0
15, 160950, Note_on_c, 14, 48, 90
15, 160979, Note_on_c, 14, 48, 0
15, 160980, Note_on_c, 14, 47, 90
15, 161009, Note_on_c, 14, 47, 0
15, 161010, Note_on_c, 14, 45, 90
15, 161039, Note_on_c, 14, 45, 0
15, 161040, Note_on_c, 14, 44, 90
15, 161069, Note_on_c, 14, 44, 0
15, 161070, Note_on_c, 14, 47, 90
15, 161099, Note_on_c, 14, 47, 0
15, 161100, Note_on_c, 14, 45, 90
15, 161129, Note_on_c, 14, 45, 0
15, 161130, Note_on_c, 14, 44, 90
15, 161159, Note_on_c, 14, 44, 0
15, 161160, Note_on_c, 14, 45, 90
15, 161189, Note_on_c, 14, 45, 0
15, 161190, Note_on_c, 14, 47, 90
15, 161219, Note_on_c, 14, 47, 0
15, 161220, Note_on_c, 14, 48, 90
15, 161249, Note_on_c, 14, 48, 0
15, 161250, Note_on_c, 14, 47, 90
15, 161279, Note_on_c, 14, 47, 0
15, 161280, Note_on_c, 14, 48, 90
15, 161309, Note_on_c, 14, 48, 0
15, 161310, Note_on_c, 14, 50, 90
15, 161339, Note_on_c, 14, 50, 0
15, 161340, Note_on_c, 14, 52, 90
15, 161399, Note_on_c, 14, 52, 0
15, 161400, Note_on_c, 14, 50, 90
15, 161459, Note_on_c, 14, 50, 0
15, 161460, Note_on_c, 14, 52, 90
15, 161519, Note_on_c, 14, 52, 0
15, 161520, Note_on_c, 14, 40, 90
15, 161579, Note_on_c, 14, 40, 0
15, 161580, Note_on_c, 14, 45, 90
15, 161639, Note_on_c, 14, 45, 0
15, 161700, Note_on_c, 14, 57, 90
15, 161759, Note_on_c, 14, 57, 0
15, 161820, Note_on_c, 14, 56, 90
15, 161879, Note_on_c, 14, 56, 0
15, 161940, Note_on_c, 14, 57, 90
15, 161999, Note_on_c, 14, 57, 0
15, 162060, Note_on_c, 14, 50, 90
15, 162119, Note_on_c, 14, 50, 0
15, 162180, Note_on_c, 14, 47, 90
15, 162239, Note_on_c, 14, 47, 0
15, 162300, Note_on_c, 14, 49, 90
15, 162359, Note_on_c, 14, 49, 0
15, 162420, Note_on_c, 14, 45, 90
15, 162479, Note_on_c, 14, 45, 0
15, 162540, Note_on_c, 14, 50, 90
15, 162599, Note_on_c, 14, 50, 0
15, 162660, Note_on_c, 14, 46, 90
15, 162719, Note_on_c, 14, 46, 0
15, 162780, Note_on_c, 14, 41, 90
15, 162839, Note_on_c, 14, 41, 0
15, 162840, Note_on_c, 14, 48, 90
15, 162899, Note_on_c, 14, 48, 0
15, 162900, Note_on_c, 14, 53, 90
15, 163079, Note_on_c, 14, 53, 0
15, 163080, Note_on_c, 14, 46, 90
15, 163139, Note_on_c, 14, 46, 0
15, 163140, Note_on_c, 14, 40, 90
15, 163199, Note_on_c, 14, 40, 0
15, 163200, Note_on_c, 14, 52, 90
15, 163319, Note_on_c, 14, 52, 0
15, 163320, Note_on_c, 14, 45, 90
15, 163379, Note_on_c, 14, 45, 0
15, 163380, Note_on_c, 14, 38, 90
15, 163439, Note_on_c, 14, 38, 0
15, 163440, Note_on_c, 14, 50, 90
15, 163559, Note_on_c, 14, 50, 0
15, 163560, Note_on_c, 14, 43, 90
15, 163619, Note_on_c, 14, 43, 0
15, 163620, Note_on_c, 14, 36, 90
15, 163679, Note_on_c, 14, 36, 0
15, 163680, Note_on_c, 14, 48, 90
15, 163739, Note_on_c, 14, 48, 0
15, 163740, Note_on_c, 14, 41, 90
15, 163799, Note_on_c, 14, 41, 0
15, 163800, Note_on_c, 14, 53, 90
15, 163829, Note_on_c, 14, 53, 0
15, 163830, Note_on_c, 14, 52, 90
15, 163859, Note_on_c, 14, 52, 0
15, 163860, Note_on_c, 14, 53, 90
15, 163919, Note_on_c, 14, 53, 0
15, 163920, Note_on_c, 14, 50, 90
15, 163979, Note_on_c, 14, 50, 0
15, 163980, Note_on_c, 14, 40, 90
15, 164039, Note_on_c, 14, 40, 0
15, 164040, Note_on_c, 14, 52, 90
15, 164069, Note_on_c, 14, 52, 0
15, 164070, Note_on_c, 14, 50, 90
15, 164099, Note_on_c, 14, 50, 0
15, 164100, Note_on_c, 14, 52, 90
15, 164159, Note_on_c, 14, 52, 0
15, 164160, Note_on_c, 14, 40, 90
15, 164219, Note_on_c, 14, 40, 0
15, 164220, Note_on_c, 14, 41, 90
15, 164279, Note_on_c, 14, 41, 0
15, 164340, Note_on_c, 14, 46, 90
15, 164399, Note_on_c, 14, 46, 0
15, 164460, Note_on_c, 14, 40, 90
15, 164519, Note_on_c, 14, 40, 0
15, 164580, Note_on_c, 14, 45, 90
15, 164639, Note_on_c, 14, 45, 0
15, 164700, Note_on_c, 14, 38, 90
15, 164759, Note_on_c, 14, 38, 0
15, 164820, Note_on_c, 14, 55, 90
15, 164999, Note_on_c, 14, 55, 0
15, 165000, Note_on_c, 14, 52, 90
15, 165059, Note_on_c, 14, 52, 0
15, 165060, Note_on_c, 14, 49, 90
15, 165119, Note_on_c, 14, 49, 0
15, 165120, Note_on_c, 14, 57, 90
15, 165239, Note_on_c, 14, 57, 0
15, 165240, Note_on_c, 14, 55, 90
15, 165269, Note_on_c, 14, 55, 0
15, 165270, Note_on_c, 14, 53, 90
15, 165299, Note_on_c, 14, 53, 0
15, 165300, Note_on_c, 14, 55, 90
15, 165359, Note_on_c, 14, 55, 0
15, 165360, Note_on_c, 14, 52, 90
15, 165419, Note_on_c, 14, 52, 0
15, 165420, Note_on_c, 14, 53, 90
15, 165479, Note_on_c, 14, 53, 0
15, 165480, Note_on_c, 14, 45, 90
15, 165539, Note_on_c, 14, 45, 0
15, 165540, Note_on_c, 14, 50, 90
15, 165779, Note_on_c, 14, 50, 0
15, 165780, Note_on_c, 14, 49, 90
15, 165899, Note_on_c, 14, 49, 0
15, 165900, Note_on_c, 14, 38, 90
15, 165959, Note_on_c, 14, 38, 0
15, 165960, Note_on_c, 14, 50, 90
15, 166049, Note_on_c, 14, 50, 0
15, 166050, Note_on_c, 14, 48, 90
15, 166079, Note_on_c, 14, 48, 0
15, 166080, Note_on_c, 14, 47, 90
15, 166109, Note_on_c, 14, 47, 0
15, 166110, Note_on_c, 14, 45, 90
15, 166139, Note_on_c, 14, 45, 0
15, 166140, Note_on_c, 14, 43, 90
15, 166199, Note_on_c, 14, 43, 0
15, 166200, Note_on_c, 14, 43, 90
15, 166259, Note_on_c, 14, 43, 0
15, 166260, Note_on_c, 14, 43, 90
15, 166319, Note_on_c, 14, 43, 0
15, 166320, Note_on_c, 14, 43, 90
15, 166379, Note_on_c, 14, 43, 0
15, 166380, Note_on_c, 14, 41, 90
15, 166409, Note_on_c, 14, 41, 0
15, 166410, Note_on_c, 14, 43, 90
15, 166439, Note_on_c, 14, 43, 0
15, 166440, Note_on_c, 14, 41, 90
15, 166469, Note_on_c, 14, 41, 0
15, 166470, Note_on_c, 14, 40, 90
15, 166499, Note_on_c, 14, 40, 0
15, 166500, Note_on_c, 14, 41, 90
15, 166529, Note_on_c, 14, 41, 0
15, 166530, Note_on_c, 14, 43, 90
15, 166559, Note_on_c, 14, 43, 0
15, 166560, Note_on_c, 14, 45, 90
15, 166589, Note_on_c, 14, 45, 0
15, 166590, Note_on_c, 14, 41, 90
15, 166619, Note_on_c, 14, 41, 0
15, 166620, Note_on_c, 14, 43, 90
15, 166649, Note_on_c, 14, 43, 0
15, 166650, Note_on_c, 14, 45, 90
15, 166679, Note_on_c, 14, 45, 0
15, 166680, Note_on_c, 14, 43, 90
15, 166709, Note_on_c, 14, 43, 0
15, 166710, Note_on_c, 14, 41, 90
15, 166739, Note_on_c, 14, 41, 0
15, 166740, Note_on_c, 14, 43, 90
15, 166769, Note_on_c, 14, 43, 0
15, 166770, Note_on_c, 14, 45, 90
15, 166799, Note_on_c, 14, 45, 0
15, 166800, Note_on_c, 14, 46, 90
15, 166829, Note_on_c, 14, 46, 0
15, 166830, Note_on_c, 14, 43, 90
15, 166859, Note_on_c, 14, 43, 0
15, 166860, Note_on_c, 14, 45, 90
15, 166889, Note_on_c, 14, 45, 0
15, 166890, Note_on_c, 14, 46, 90
15, 166919, Note_on_c, 14, 46, 0
15, 166920, Note_on_c, 14, 45, 90
15, 166949, Note_on_c, 14, 45, 0
15, 166950, Note_on_c, 14, 43, 90
15, 166979, Note_on_c, 14, 43, 0
15, 166980, Note_on_c, 14, 45, 90
15, 167009, Note_on_c, 14, 45, 0
15, 167010, Note_on_c, 14, 46, 90
15, 167039, Note_on_c, 14, 46, 0
15, 167040, Note_on_c, 14, 48, 90
15, 167069, Note_on_c, 14, 48, 0
15, 167070, Note_on_c, 14, 45, 90
15, 167099, Note_on_c, 14, 45, 0
15, 167100, Note_on_c, 14, 46, 90
15, 167129, Note_on_c, 14, 46, 0
15, 167130, Note_on_c, 14, 48, 90
15, 167159, Note_on_c, 14, 48, 0
15, 167160, Note_on_c, 14, 46, 90
15, 167189, Note_on_c, 14, 46, 0
15, 167190, Note_on_c, 14, 45, 90
15, 167219, Note_on_c, 14, 45, 0
15, 167220, Note_on_c, 14, 43, 90
15, 167249, Note_on_c, 14, 43, 0
15, 167250, Note_on_c, 14, 41, 90
15, 167279, Note_on_c, 14, 41, 0
15, 167280, Note_on_c, 14, 40, 90
15, 167309, Note_on_c, 14, 40, 0
15, 167310, Note_on_c, 14, 38, 90
15, 167339, Note_on_c, 14, 38, 0
15, 167340, Note_on_c, 14, 37, 90
15, 167369, Note_on_c, 14, 37, 0
15, 167370, Note_on_c, 14, 38, 90
15, 167399, Note_on_c, 14, 38, 0
15, 167400, Note_on_c, 14, 40, 90
15, 167429, Note_on_c, 14, 40, 0
15, 167430, Note_on_c, 14, 41, 90
15, 167459, Note_on_c, 14, 41, 0
15, 167460, Note_on_c, 14, 43, 90
15, 167489, Note_on_c, 14, 43, 0
15, 167490, Note_on_c, 14, 45, 90
15, 167519, Note_on_c, 14, 45, 0
15, 167520, Note_on_c, 14, 47, 90
15, 167549, Note_on_c, 14, 47, 0
15, 167550, Note_on_c, 14, 49, 90
15, 167579, Note_on_c, 14, 49, 0
15, 167580, Note_on_c, 14, 50, 90
15, 167609, Note_on_c, 14, 50, 0
15, 167610, Note_on_c, 14, 49, 90
15, 167639, Note_on_c, 14, 49, 0
15, 167640, Note_on_c, 14, 50, 90
15, 167669, Note_on_c, 14, 50, 0
15, 167670, Note_on_c, 14, 52, 90
15, 167699, Note_on_c, 14, 52, 0
15, 167700, Note_on_c, 14, 53, 90
15, 167729, Note_on_c, 14, 53, 0
15, 167730, Note_on_c, 14, 52, 90
15, 167759, Note_on_c, 14, 52, 0
15, 167760, Note_on_c, 14, 53, 90
15, 167789, Note_on_c, 14, 53, 0
15, 167790, Note_on_c, 14, 55, 90
15, 167819, Note_on_c, 14, 55, 0
15, 167820, Note_on_c, 14, 57, 90
15, 167879, Note_on_c, 14, 57, 0
15, 167880, Note_on_c, 14, 55, 90
15, 167939, Note_on_c, 14, 55, 0
15, 167940, Note_on_c, 14, 57, 90
15, 167999, Note_on_c, 14, 57, 0
15, 168000, Note_on_c, 14, 45, 90
15, 168059, Note_on_c, 14, 45, 0
15, 168060, Note_on_c, 14, 38, 90
15, 168119, Note_on_c, 14, 38, 0
15, 168180, Note_on_c, 14, 50, 90
15, 168239, Note_on_c, 14, 50, 0
15, 168300, Note_on_c, 14, 49, 90
15, 168359, Note_on_c, 14, 49, 0
15, 168420, Note_on_c, 14, 50, 90
15, 168479, Note_on_c, 14, 50, 0
15, 168540, Note_on_c, 14, 43, 90
15, 168599, Note_on_c, 14, 43, 0
15, 168660, Note_on_c, 14, 48, 90
15, 168719, Note_on_c, 14, 48, 0
15, 168780, Note_on_c, 14, 41, 90
15, 168839, Note_on_c, 14, 41, 0
15, 168900, Note_on_c, 14, 46, 90
15, 168959, Note_on_c, 14, 46, 0
15, 169020, Note_on_c, 14, 40, 90
15, 169079, Note_on_c, 14, 40, 0
15, 169140, Note_on_c, 14, 45, 90
15, 169199, Note_on_c, 14, 45, 0
15, 169260, Note_on_c, 14, 38, 90
15, 169319, Note_on_c, 14, 38, 0
15, 169320, Note_on_c, 14, 50, 90
15, 169379, Note_on_c, 14, 50, 0
15, 169380, Note_on_c, 14, 48, 90
15, 169439, Note_on_c, 14, 48, 0
15, 169440, Note_on_c, 14, 47, 90
15, 169499, Note_on_c, 14, 47, 0
15, 169500, Note_on_c, 14, 45, 90
15, 169559, Note_on_c, 14, 45, 0
15, 169620, Note_on_c, 14, 57, 90
15, 169679, Note_on_c, 14, 57, 0
15, 169740, Note_on_c, 14, 56, 90
15, 169799, Note_on_c, 14, 56, 0
15, 169860, Note_on_c, 14, 57, 90
15, 169919, Note_on_c, 14, 57, 0
15, 169980, Note_on_c, 14, 50, 90
15, 170039, Note_on_c, 14, 50, 0
15, 170100, Note_on_c, 14, 55, 90
15, 170159, Note_on_c, 14, 55, 0
15, 170220, Note_on_c, 14, 48, 90
15, 170279, Note_on_c, 14, 48, 0
15, 170340, Note_on_c, 14, 53, 90
15, 170399, Note_on_c, 14, 53, 0
15, 170460, Note_on_c, 14, 47, 90
15, 170519, Note_on_c, 14, 47, 0
15, 170580, Note_on_c, 14, 52, 90
15, 170639, Note_on_c, 14, 52, 0
15, 170700, Note_on_c, 14, 45, 90
15, 170759, Note_on_c, 14, 45, 0
15, 170760, Note_on_c, 14, 57, 90
15, 170819, Note_on_c, 14, 57, 0
15, 170820, Note_on_c, 14, 55, 90
15, 170879, Note_on_c, 14, 55, 0
15, 170880, Note_on_c, 14, 53, 90
15, 170939, Note_on_c, 14, 53, 0
15, 170940, Note_on_c, 14, 52, 90
15, 170999, Note_on_c, 14, 52, 0
15, 171060, Note_on_c, 14, 57, 90
15, 171119, Note_on_c, 14, 57, 0
15, 171180, Note_on_c, 14, 50, 90
15, 171239, Note_on_c, 14, 50, 0
15, 171240, Note_on_c, 14, 62, 90
15, 171299, Note_on_c, 14, 62, 0
15, 171300, Note_on_c, 14, 60, 90
15, 171359, Note_on_c, 14, 60, 0
15, 171360, Note_on_c, 14, 59, 90
15, 171419, Note_on_c, 14, 59, 0
15, 171420, Note_on_c, 14, 57, 90
15, 171479, Note_on_c, 14, 57, 0
15, 171540, Note_on_c, 14, 50, 90
15, 171599, Note_on_c, 14, 50, 0
15, 171660, Note_on_c, 14, 43, 90
15, 171719, Note_on_c, 14, 43, 0
15, 171720, Note_on_c, 14, 55, 90
15, 171779, Note_on_c, 14, 55, 0
15, 171780, Note_on_c, 14, 53, 90
15, 171839, Note_on_c, 14, 53, 0
15, 171840, Note_on_c, 14, 52, 90
15, 171899, Note_on_c, 14, 52, 0
15, 171900, Note_on_c, 14, 50, 90
15, 171959, Note_on_c, 14, 50, 0
15, 171960, Note_on_c, 14, 38, 90
15, 172049, Note_on_c, 14, 38, 0
15, 172050, Note_on_c, 14, 40, 90
15, 172079, Note_on_c, 14, 40, 0
15, 172080, Note_on_c, 14, 41, 90
15, 172109, Note_on_c, 14, 41, 0
15, 172110, Note_on_c, 14, 43, 90
15, 172139, Note_on_c, 14, 43, 0
15, 172140, Note_on_c, 14, 45, 90
15, 172199, Note_on_c, 14, 45, 0
15, 172200, Note_on_c, 14, 45, 90
15, 172259, Note_on_c, 14, 45, 0
15, 172260, Note_on_c, 14, 45, 90
15, 172319, Note_on_c, 14, 45, 0
15, 172320, Note_on_c, 14, 45, 90
15, 172379, Note_on_c, 14, 45, 0
15, 172380, Note_on_c, 14, 46, 90
15, 172409, Note_on_c, 14, 46, 0
15, 172410, Note_on_c, 14, 45, 90
15, 172439, Note_on_c, 14, 45, 0
15, 172440, Note_on_c, 14, 46, 90
15, 172469, Note_on_c, 14, 46, 0
15, 172470, Note_on_c, 14, 48, 90
15, 172499, Note_on_c, 14, 48, 0
15, 172500, Note_on_c, 14, 46, 90
15, 172529, Note_on_c, 14, 46, 0
15, 172530, Note_on_c, 14, 45, 90
15, 172559, Note_on_c, 14, 45, 0
15, 172560, Note_on_c, 14, 43, 90
15, 172589, Note_on_c, 14, 43, 0
15, 172590, Note_on_c, 14, 46, 90
15, 172619, Note_on_c, 14, 46, 0
15, 172620, Note_on_c, 14, 45, 90
15, 172649, Note_on_c, 14, 45, 0
15, 172650, Note_on_c, 14, 43, 90
15, 172679, Note_on_c, 14, 43, 0
15, 172680, Note_on_c, 14, 45, 90
15, 172709, Note_on_c, 14, 45, 0
15, 172710, Note_on_c, 14, 46, 90
15, 172739, Note_on_c, 14, 46, 0
15, 172740, Note_on_c, 14, 45, 90
15, 172769, Note_on_c, 14, 45, 0
15, 172770, Note_on_c, 14, 43, 90
15, 172799, Note_on_c, 14, 43, 0
15, 172800, Note_on_c, 14, 41, 90
15, 172829, Note_on_c, 14, 41, 0
15, 172830, Note_on_c, 14, 45, 90
15, 172859, Note_on_c, 14, 45, 0
15, 172860, Note_on_c, 14, 43, 90
15, 172889, Note_on_c, 14, 43, 0
15, 172890, Note_on_c, 14, 41, 90
15, 172919, Note_on_c, 14, 41, 0
15, 172920, Note_on_c, 14, 43, 90
15, 172949, Note_on_c, 14, 43, 0
15, 172950, Note_on_c, 14, 45, 90
15, 172979, Note_on_c, 14, 45, 0
15, 172980, Note_on_c, 14, 43, 90
15, 173009, Note_on_c, 14, 43, 0
15, 173010, Note_on_c, 14, 41, 90
15, 173039, Note_on_c, 14, 41, 0
15, 173040, Note_on_c, 14, 40, 90
15, 173069, Note_on_c, 14, 40, 0
15, 173070, Note_on_c, 14, 43, 90
15, 173099, Note_on_c, 14, 43, 0
15, 173100, Note_on_c, 14, 41, 90
15, 173129, Note_on_c, 14, 41, 0
15, 173130, Note_on_c, 14, 40, 90
15, 173159, Note_on_c, 14, 40, 0
15, 173160, Note_on_c, 14, 41, 90
15, 173189, Note_on_c, 14, 41, 0
15, 173190, Note_on_c, 14, 43, 90
15, 173219, Note_on_c, 14, 43, 0
15, 173220, Note_on_c, 14, 45, 90
15, 173249, Note_on_c, 14, 45, 0
15, 173250, Note_on_c, 14, 47, 90
15, 173279, Note_on_c, 14, 47, 0
15, 173280, Note_on_c, 14, 49, 90
15, 173309, Note_on_c, 14, 49, 0
15, 173310, Note_on_c, 14, 50, 90
15, 173339, Note_on_c, 14, 50, 0
15, 173340, Note_on_c, 14, 52, 90
15, 173369, Note_on_c, 14, 52, 0
15, 173370, Note_on_c, 14, 50, 90
15, 173399, Note_on_c, 14, 50, 0
15, 173400, Note_on_c, 14, 52, 90
15, 173429, Note_on_c, 14, 52, 0
15, 173430, Note_on_c, 14, 53, 90
15, 173459, Note_on_c, 14, 53, 0
15, 173460, Note_on_c, 14, 55, 90
15, 173489, Note_on_c, 14, 55, 0
15, 173490, Note_on_c, 14, 57, 90
15, 173519, Note_on_c, 14, 57, 0
15, 173520, Note_on_c, 14, 59, 90
15, 173549, Note_on_c, 14, 59, 0
15, 173550, Note_on_c, 14, 61, 90
15, 173579, Note_on_c, 14, 61, 0
15, 173580, Note_on_c, 14, 62, 90
15, 173639, Note_on_c, 14, 62, 0
15, 173640, Note_on_c, 14, 55, 90
15, 173699, Note_on_c, 14, 55, 0
15, 173700, Note_on_c, 14, 57, 90
15, 173759, Note_on_c, 14, 57, 0
15, 173760, Note_on_c, 14, 45, 90
15, 173819, Note_on_c, 14, 45, 0
15, 173820, Note_on_c, 14, 50, 90
15, 173940, Note_on_c, 14, 50, 0
15, 174300, Note_on_c, 14, 53, 90
15, 174419, Note_on_c, 14, 53, 0
15, 174660, Note_on_c, 14, 41, 90
15, 174779, Note_on_c, 14, 41, 0
15, 175020, Note_on_c, 14, 53, 90
15, 175079, Note_on_c, 14, 53, 0
15, 175080, Note_on_c, 14, 57, 90
15, 175109, Note_on_c, 14, 57, 0
15, 175110, Note_on_c, 14, 55, 90
15, 175139, Note_on_c, 14, 55, 0
15, 175140, Note_on_c, 14, 53, 90
15, 175199, Note_on_c, 14, 53, 0
15, 175200, Note_on_c, 14, 52, 90
15, 175259, Note_on_c, 14, 52, 0
15, 175260, Note_on_c, 14, 50, 90
15, 175319, Note_on_c, 14, 50, 0
15, 175320, Note_on_c, 14, 48, 90
15, 175379, Note_on_c, 14, 48, 0
15, 175380, Note_on_c, 14, 46, 90
15, 175439, Note_on_c, 14, 46, 0
15, 175440, Note_on_c, 14, 43, 90
15, 175499, Note_on_c, 14, 43, 0
15, 175500, Note_on_c, 14, 48, 90
15, 175619, Note_on_c, 14, 48, 0
15, 175620, Note_on_c, 14, 36, 90
15, 175739, Note_on_c, 14, 36, 0
15, 175740, Note_on_c, 14, 41, 90
15, 175799, Note_on_c, 14, 41, 0
15, 175800, Note_on_c, 14, 43, 90
15, 175859, Note_on_c, 14, 43, 0
15, 175860, Note_on_c, 14, 45, 90
15, 175919, Note_on_c, 14, 45, 0
15, 175920, Note_on_c, 14, 43, 90
15, 175979, Note_on_c, 14, 43, 0
15, 175980, Note_on_c, 14, 45, 90
15, 176039, Note_on_c, 14, 45, 0
15, 176040, Note_on_c, 14, 41, 90
15, 176099, Note_on_c, 14, 41, 0
15, 176100, Note_on_c, 14, 48, 90
15, 176159, Note_on_c, 14, 48, 0
15, 176160, Note_on_c, 14, 46, 90
15, 176219, Note_on_c, 14, 46, 0
15, 176220, Note_on_c, 14, 48, 90
15, 176279, Note_on_c, 14, 48, 0
15, 176280, Note_on_c, 14, 36, 90
15, 176339, Note_on_c, 14, 36, 0
15, 176340, Note_on_c, 14, 38, 90
15, 176399, Note_on_c, 14, 38, 0
15, 176400, Note_on_c, 14, 50, 90
15, 176459, Note_on_c, 14, 50, 0
15, 176460, Note_on_c, 14, 55, 90
15, 176519, Note_on_c, 14, 55, 0
15, 176520, Note_on_c, 14, 53, 90
15, 176579, Note_on_c, 14, 53, 0
15, 176580, Note_on_c, 14, 51, 90
15, 176639, Note_on_c, 14, 51, 0
15, 176640, Note_on_c, 14, 48, 90
15, 176699, Note_on_c, 14, 48, 0
15, 176700, Note_on_c, 14, 53, 90
15, 176759, Note_on_c, 14, 53, 0
15, 176760, Note_on_c, 14, 41, 90
15, 176819, Note_on_c, 14, 41, 0
15, 176820, Note_on_c, 14, 46, 90
15, 176879, Note_on_c, 14, 46, 0
15, 176880, Note_on_c, 14, 48, 90
15, 176939, Note_on_c, 14, 48, 0
15, 176940, Note_on_c, 14, 50, 90
15, 176999, Note_on_c, 14, 50, 0
15, 177000, Note_on_c, 14, 48, 90
15, 177059, Note_on_c, 14, 48, 0
15, 177060, Note_on_c, 14, 50, 90
15, 177119, Note_on_c, 14, 50, 0
15, 177120, Note_on_c, 14, 46, 90
15, 177179, Note_on_c, 14, 46, 0
15, 177180, Note_on_c, 14, 53, 90
15, 177299, Note_on_c, 14, 53, 0
15, 177540, Note_on_c, 14, 41, 90
15, 177659, Note_on_c, 14, 41, 0
15, 177900, Note_on_c, 14, 53, 90
15, 177959, Note_on_c, 14, 53, 0
15, 177960, Note_on_c, 14, 57, 90
15, 177989, Note_on_c, 14, 57, 0
15, 177990, Note_on_c, 14, 55, 90
15, 178019, Note_on_c, 14, 55, 0
15, 178020, Note_on_c, 14, 53, 90
15, 178079, Note_on_c, 14, 53, 0
15, 178080, Note_on_c, 14, 52, 90
15, 178139, Note_on_c, 14, 52, 0
15, 178140, Note_on_c, 14, 50, 90
15, 178199, Note_on_c, 14, 50, 0
15, 178200, Note_on_c, 14, 48, 90
15, 178259, Note_on_c, 14, 48, 0
15, 178260, Note_on_c, 14, 46, 90
15, 178319, Note_on_c, 14, 46, 0
15, 178320, Note_on_c, 14, 43, 90
15, 178379, Note_on_c, 14, 43, 0
15, 178380, Note_on_c, 14, 40, 90
15, 178439, Note_on_c, 14, 40, 0
15, 178440, Note_on_c, 14, 45, 90
15, 178469, Note_on_c, 14, 45, 0
15, 178470, Note_on_c, 14, 43, 90
15, 178499, Note_on_c, 14, 43, 0
15, 178500, Note_on_c, 14, 45, 90
15, 178559, Note_on_c, 14, 45, 0
15, 178560, Note_on_c, 14, 45, 90
15, 178619, Note_on_c, 14, 45, 0
15, 178620, Note_on_c, 14, 38, 90
15, 178679, Note_on_c, 14, 38, 0
15, 178680, Note_on_c, 14, 50, 90
15, 178739, Note_on_c, 14, 50, 0
15, 178740, Note_on_c, 14, 55, 90
15, 178799, Note_on_c, 14, 55, 0
15, 178800, Note_on_c, 14, 57, 90
15, 178859, Note_on_c, 14, 57, 0
15, 178860, Note_on_c, 14, 55, 90
15, 178919, Note_on_c, 14, 55, 0
15, 178920, Note_on_c, 14, 53, 90
15, 178979, Note_on_c, 14, 53, 0
15, 178980, Note_on_c, 14, 52, 90
15, 179039, Note_on_c, 14, 52, 0
15, 179040, Note_on_c, 14, 48, 90
15, 179099, Note_on_c, 14, 48, 0
15, 179100, Note_on_c, 14, 53, 90
15, 179159, Note_on_c, 14, 53, 0
15, 179160, Note_on_c, 14, 52, 90
15, 179219, Note_on_c, 14, 52, 0
15, 179220, Note_on_c, 14, 50, 90
15, 179279, Note_on_c, 14, 50, 0
15, 179280, Note_on_c, 14, 48, 90
15, 179339, Note_on_c, 14, 48, 0
15, 179340, Note_on_c, 14, 50, 90
15, 179399, Note_on_c, 14, 50, 0
15, 179400, Note_on_c, 14, 52, 90
15, 179459, Note_on_c, 14, 52, 0
15, 179460, Note_on_c, 14, 53, 90
15, 179519, Note_on_c, 14, 53, 0
15, 179520, Note_on_c, 14, 52, 90
15, 179579, Note_on_c, 14, 52, 0
15, 179580, Note_on_c, 14, 53, 90
15, 179639, Note_on_c, 14, 53, 0
15, 179640, Note_on_c, 14, 41, 90
15, 179699, Note_on_c, 14, 41, 0
15, 179700, Note_on_c, 14, 48, 90
15, 179759, Note_on_c, 14, 48, 0
15, 179760, Note_on_c, 14, 52, 90
15, 179789, Note_on_c, 14, 52, 0
15, 179790, Note_on_c, 14, 50, 90
15, 179819, Note_on_c, 14, 50, 0
15, 179820, Note_on_c, 14, 52, 90
15, 179879, Note_on_c, 14, 52, 0
15, 179880, Note_on_c, 14, 55, 90
15, 179939, Note_on_c, 14, 55, 0
15, 179940, Note_on_c, 14, 60, 90
15, 179999, Note_on_c, 14, 60, 0
15, 180000, Note_on_c, 14, 48, 90
15, 180059, Note_on_c, 14, 48, 0
15, 180060, Note_on_c, 14, 53, 90
15, 180179, Note_on_c, 14, 53, 0
15, 180420, Note_on_c, 14, 41, 90
15, 180539, Note_on_c, 14, 41, 0
15, 180780, Note_on_c, 14, 53, 90
15, 180839, Note_on_c, 14, 53, 0
15, 180840, Note_on_c, 14, 57, 90
15, 180869, Note_on_c, 14, 57, 0
15, 180870, Note_on_c, 14, 55, 90
15, 180899, Note_on_c, 14, 55, 0
15, 180900, Note_on_c, 14, 53, 90
15, 180959, Note_on_c, 14, 53, 0
15, 180960, Note_on_c, 14, 52, 90
15, 181019, Note_on_c, 14, 52, 0
15, 181020, Note_on_c, 14, 50, 90
15, 181079, Note_on_c, 14, 50, 0
15, 181080, Note_on_c, 14, 48, 90
15, 181139, Note_on_c, 14, 48, 0
15, 181140, Note_on_c, 14, 46, 90
15, 181199, Note_on_c, 14, 46, 0
15, 181200, Note_on_c, 14, 43, 90
15, 181259, Note_on_c, 14, 43, 0
15, 181260, Note_on_c, 14, 48, 90
15, 181379, Note_on_c, 14, 48, 0
15, 181380, Note_on_c, 14, 36, 90
15, 181499, Note_on_c, 14, 36, 0
15, 181500, Note_on_c, 14, 41, 90
15, 181559, Note_on_c, 14, 41, 0
15, 181560, Note_on_c, 14, 43, 90
15, 181619, Note_on_c, 14, 43, 0
15, 181620, Note_on_c, 14, 45, 90
15, 181679, Note_on_c, 14, 45, 0
15, 181680, Note_on_c, 14, 43, 90
15, 181739, Note_on_c, 14, 43, 0
15, 181740, Note_on_c, 14, 45, 90
15, 181799, Note_on_c, 14, 45, 0
15, 181800, Note_on_c, 14, 41, 90
15, 181859, Note_on_c, 14, 41, 0
15, 181860, Note_on_c, 14, 48, 90
15, 181919, Note_on_c, 14, 48, 0
15, 181920, Note_on_c, 14, 46, 90
15, 181979, Note_on_c, 14, 46, 0
15, 181980, Note_on_c, 14, 48, 90
15, 182039, Note_on_c, 14, 48, 0
15, 182040, Note_on_c, 14, 36, 90
15, 182099, Note_on_c, 14, 36, 0
15, 182100, Note_on_c, 14, 38, 90
15, 182159, Note_on_c, 14, 38, 0
15, 182160, Note_on_c, 14, 50, 90
15, 182219, Note_on_c, 14, 50, 0
15, 182220, Note_on_c, 14, 55, 90
15, 182279, Note_on_c, 14, 55, 0
15, 182280, Note_on_c, 14, 53, 90
15, 182339, Note_on_c, 14, 53, 0
15, 182340, Note_on_c, 14, 51, 90
15, 182399, Note_on_c, 14, 51, 0
15, 182400, Note_on_c, 14, 48, 90
15, 182459, Note_on_c, 14, 48, 0
15, 182460, Note_on_c, 14, 53, 90
15, 182519, Note_on_c, 14, 53, 0
15, 182520, Note_on_c, 14, 41, 90
15, 182579, Note_on_c, 14, 41, 0
15, 182580, Note_on_c, 14, 46, 90
15, 182639, Note_on_c, 14, 46, 0
15, 182640, Note_on_c, 14, 48, 90
15, 182699, Note_on_c, 14, 48, 0
15, 182700, Note_on_c, 14, 50, 90
15, 182759, Note_on_c, 14, 50, 0
15, 182760, Note_on_c, 14, 48, 90
15, 182819, Note_on_c, 14, 48, 0
15, 182820, Note_on_c, 14, 50, 90
15, 182879, Note_on_c, 14, 50, 0
15, 182880, Note_on_c, 14, 46, 90
15, 182939, Note_on_c, 14, 46, 0
15, 182940, Note_on_c, 14, 53, 90
15, 183059, Note_on_c, 14, 53, 0
15, 183300, Note_on_c, 14, 41, 90
15, 183419, Note_on_c, 14, 41, 0
15, 183660, Note_on_c, 14, 53, 90
15, 183719, Note_on_c, 14, 53, 0
15, 183720, Note_on_c, 14, 57, 90
15, 183749, Note_on_c, 14, 57, 0
15, 183750, Note_on_c, 14, 55, 90
15, 183779, Note_on_c, 14, 55, 0
15, 183780, Note_on_c, 14, 53, 90
15, 183839, Note_on_c, 14, 53, 0
15, 183840, Note_on_c, 14, 52, 90
15, 183899, Note_on_c, 14, 52, 0
15, 183900, Note_on_c, 14, 50, 90
15, 183959, Note_on_c, 14, 50, 0
15, 183960, Note_on_c, 14, 48, 90
15, 184019, Note_on_c, 14, 48, 0
15, 184020, Note_on_c, 14, 46, 90
15, 184079, Note_on_c, 14, 46, 0
15, 184080, Note_on_c, 14, 43, 90
15, 184139, Note_on_c, 14, 43, 0
15, 184140, Note_on_c, 14, 40, 90
15, 184199, Note_on_c, 14, 40, 0
15, 184200, Note_on_c, 14, 45, 90
15, 184229, Note_on_c, 14, 45, 0
15, 184230, Note_on_c, 14, 43, 90
15, 184259, Note_on_c, 14, 43, 0
15, 184260, Note_on_c, 14, 45, 90
15, 184319, Note_on_c, 14, 45, 0
15, 184320, Note_on_c, 14, 45, 90
15, 184379, Note_on_c, 14, 45, 0
15, 184380, Note_on_c, 14, 38, 90
15, 184439, Note_on_c, 14, 38, 0
15, 184440, Note_on_c, 14, 50, 90
15, 184499, Note_on_c, 14, 50, 0
15, 184500, Note_on_c, 14, 55, 90
15, 184559, Note_on_c, 14, 55, 0
15, 184560, Note_on_c, 14, 57, 90
15, 184619, Note_on_c, 14, 57, 0
15, 184620, Note_on_c, 14, 55, 90
15, 184679, Note_on_c, 14, 55, 0
15, 184680, Note_on_c, 14, 53, 90
15, 184739, Note_on_c, 14, 53, 0
15, 184740, Note_on_c, 14, 52, 90
15, 184799, Note_on_c, 14, 52, 0
15, 184800, Note_on_c, 14, 48, 90
15, 184859, Note_on_c, 14, 48, 0
15, 184860, Note_on_c, 14, 53, 90
15, 184919, Note_on_c, 14, 53, 0
15, 184920, Note_on_c, 14, 52, 90
15, 184979, Note_on_c, 14, 52, 0
15, 184980, Note_on_c, 14, 50, 90
15, 185039, Note_on_c, 14, 50, 0
15, 185040, Note_on_c, 14, 48, 90
15, 185099, Note_on_c, 14, 48, 0
15, 185100, Note_on_c, 14, 50, 90
15, 185159, Note_on_c, 14, 50, 0
15, 185160, Note_on_c, 14, 52, 90
15, 185219, Note_on_c, 14, 52, 0
15, 185220, Note_on_c, 14, 53, 90
15, 185279, Note_on_c, 14, 53, 0
15, 185280, Note_on_c, 14, 52, 90
15, 185339, Note_on_c, 14, 52, 0
15, 185340, Note_on_c, 14, 53, 90
15, 185399, Note_on_c, 14, 53, 0
15, 185400, Note_on_c, 14, 41, 90
15, 185459, Note_on_c, 14, 41, 0
15, 185460, Note_on_c, 14, 48, 90
15, 185519, Note_on_c, 14, 48, 0
15, 185520, Note_on_c, 14, 52, 90
15, 185549, Note_on_c, 14, 52, 0
15, 185550, Note_on_c, 14, 50, 90
15, 185579, Note_on_c, 14, 50, 0
15, 185580, Note_on_c, 14, 52, 90
15, 185639, Note_on_c, 14, 52, 0
15, 185640, Note_on_c, 14, 55, 90
15, 185699, Note_on_c, 14, 55, 0
15, 185700, Note_on_c, 14, 60, 90
15, 185759, Note_on_c, 14, 60, 0
15, 185760, Note_on_c, 14, 48, 90
15, 185819, Note_on_c, 14, 48, 0
15, 185820, Note_on_c, 14, 53, 90
15, 185879, Note_on_c, 14, 53, 0
15, 185880, Note_on_c, 14, 57, 90
15, 185939, Note_on_c, 14, 57, 0
15, 185940, Note_on_c, 14, 50, 90
15, 185999, Note_on_c, 14, 50, 0
15, 186000, Note_on_c, 14, 57, 90
15, 186059, Note_on_c, 14, 57, 0
15, 186060, Note_on_c, 14, 62, 90
15, 186119, Note_on_c, 14, 62, 0
15, 186120, Note_on_c, 14, 50, 90
15, 186179, Note_on_c, 14, 50, 0
15, 186180, Note_on_c, 14, 55, 90
15, 186239, Note_on_c, 14, 55, 0
15, 186240, Note_on_c, 14, 50, 90
15, 186299, Note_on_c, 14, 50, 0
15, 186300, Note_on_c, 14, 43, 90
15, 186359, Note_on_c, 14, 43, 0
15, 186360, Note_on_c, 14, 50, 90
15, 186419, Note_on_c, 14, 50, 0
15, 186420, Note_on_c, 14, 55, 90
15, 186479, Note_on_c, 14, 55, 0
15, 186480, Note_on_c, 14, 43, 90
15, 186539, Note_on_c, 14, 43, 0
15, 186540, Note_on_c, 14, 48, 90
15, 186659, Note_on_c, 14, 48, 0
15, 186900, Note_on_c, 14, 36, 90
15, 187019, Note_on_c, 14, 36, 0
15, 187260, Note_on_c, 14, 48, 90
15, 187319, Note_on_c, 14, 48, 0
15, 187320, Note_on_c, 14, 50, 90
15, 187379, Note_on_c, 14, 50, 0
15, 187380, Note_on_c, 14, 52, 90
15, 187439, Note_on_c, 14, 52, 0
15, 187440, Note_on_c, 14, 50, 90
15, 187499, Note_on_c, 14, 50, 0
15, 187500, Note_on_c, 14, 52, 90
15, 187559, Note_on_c, 14, 52, 0
15, 187560, Note_on_c, 14, 48, 90
15, 187619, Note_on_c, 14, 48, 0
15, 187620, Note_on_c, 14, 53, 90
15, 187679, Note_on_c, 14, 53, 0
15, 187680, Note_on_c, 14, 52, 90
15, 187739, Note_on_c, 14, 52, 0
15, 187740, Note_on_c, 14, 53, 90
15, 187799, Note_on_c, 14, 53, 0
15, 187800, Note_on_c, 14, 41, 90
15, 187859, Note_on_c, 14, 41, 0
15, 187860, Note_on_c, 14, 46, 90
15, 187919, Note_on_c, 14, 46, 0
15, 187920, Note_on_c, 14, 58, 90
15, 187979, Note_on_c, 14, 58, 0
15, 187980, Note_on_c, 14, 52, 90
15, 188039, Note_on_c, 14, 52, 0
15, 188040, Note_on_c, 14, 55, 90
15, 188099, Note_on_c, 14, 55, 0
15, 188100, Note_on_c, 14, 53, 90
15, 188159, Note_on_c, 14, 53, 0
15, 188160, Note_on_c, 14, 52, 90
15, 188219, Note_on_c, 14, 52, 0
15, 188220, Note_on_c, 14, 50, 90
15, 188459, Note_on_c, 14, 50, 0
15, 188460, Note_on_c, 14, 49, 90
15, 188519, Note_on_c, 14, 49, 0
15, 188520, Note_on_c, 14, 47, 90
15, 188579, Note_on_c, 14, 47, 0
15, 188580, Note_on_c, 14, 49, 90
15, 188699, Note_on_c, 14, 49, 0
15, 188700, Note_on_c, 14, 50, 90
15, 188819, Note_on_c, 14, 50, 0
15, 189060, Note_on_c, 14, 38, 90
15, 189179, Note_on_c, 14, 38, 0
15, 189420, Note_on_c, 14, 50, 90
15, 189479, Note_on_c, 14, 50, 0
15, 189480, Note_on_c, 14, 53, 90
15, 189509, Note_on_c, 14, 53, 0
15, 189510, Note_on_c, 14, 52, 90
15, 189539, Note_on_c, 14, 52, 0
15, 189540, Note_on_c, 14, 50, 90
15, 189599, Note_on_c, 14, 50, 0
15, 189600, Note_on_c, 14, 46, 90
15, 189659, Note_on_c, 14, 46, 0
15, 189660, Note_on_c, 14, 43, 90
15, 189719, Note_on_c, 14, 43, 0
15, 189720, Note_on_c, 14, 55, 90
15, 189779, Note_on_c, 14, 55, 0
15, 189780, Note_on_c, 14, 48, 90
15, 189839, Note_on_c, 14, 48, 0
15, 189840, Note_on_c, 14, 46, 90
15, 189899, Note_on_c, 14, 46, 0
15, 189900, Note_on_c, 14, 45, 90
15, 189959, Note_on_c, 14, 45, 0
15, 189960, Note_on_c, 14, 48, 90
15, 190019, Note_on_c, 14, 48, 0
15, 190020, Note_on_c, 14, 41, 90
15, 190079, Note_on_c, 14, 41, 0
15, 190080, Note_on_c, 14, 53, 90
15, 190139, Note_on_c, 14, 53, 0
15, 190140, Note_on_c, 14, 46, 90
15, 190199, Note_on_c, 14, 46, 0
15, 190200, Note_on_c, 14, 45, 90
15, 190259, Note_on_c, 14, 45, 0
15, 190260, Note_on_c, 14, 43, 90
15, 190319, Note_on_c, 14, 43, 0
15, 190320, Note_on_c, 14, 48, 90
15, 190379, Note_on_c, 14, 48, 0
15, 190380, Note_on_c, 14, 45, 90
15, 190439, Note_on_c, 14, 45, 0
15, 190440, Note_on_c, 14, 41, 90
15, 190499, Note_on_c, 14, 41, 0
15, 190500, Note_on_c, 14, 40, 90
15, 190559, Note_on_c, 14, 40, 0
15, 190560, Note_on_c, 14, 38, 90
15, 190619, Note_on_c, 14, 38, 0
15, 190620, Note_on_c, 14, 40, 90
15, 190679, Note_on_c, 14, 40, 0
15, 190680, Note_on_c, 14, 36, 90
15, 190739, Note_on_c, 14, 36, 0
15, 190740, Note_on_c, 14, 48, 90
15, 190799, Note_on_c, 14, 48, 0
15, 190800, Note_on_c, 14, 52, 90
15, 190859, Note_on_c, 14, 52, 0
15, 190860, Note_on_c, 14, 53, 90
15, 190919, Note_on_c, 14, 53, 0
15, 190920, Note_on_c, 14, 41, 90
15, 190979, Note_on_c, 14, 41, 0
15, 190980, Note_on_c, 14, 46, 90
15, 191039, Note_on_c, 14, 46, 0
15, 191040, Note_on_c, 14, 48, 90
15, 191099, Note_on_c, 14, 48, 0
15, 191100, Note_on_c, 14, 50, 90
15, 191159, Note_on_c, 14, 50, 0
15, 191160, Note_on_c, 14, 46, 90
15, 191219, Note_on_c, 14, 46, 0
15, 191220, Note_on_c, 14, 48, 90
15, 191279, Note_on_c, 14, 48, 0
15, 191280, Note_on_c, 14, 46, 90
15, 191339, Note_on_c, 14, 46, 0
15, 191340, Note_on_c, 14, 48, 90
15, 191459, Note_on_c, 14, 48, 0
15, 191460, Note_on_c, 14, 36, 90
15, 191579, Note_on_c, 14, 36, 0
15, 191580, Note_on_c, 14, 41, 90
15, 191699, Note_on_c, 14, 41, 0
15, 191940, Note_on_c, 14, 41, 90
15, 192059, Note_on_c, 14, 41, 0
15, 192300, Note_on_c, 14, 53, 90
15, 192359, Note_on_c, 14, 53, 0
15, 192360, Note_on_c, 14, 57, 90
15, 192389, Note_on_c, 14, 57, 0
15, 192390, Note_on_c, 14, 55, 90
15, 192419, Note_on_c, 14, 55, 0
15, 192420, Note_on_c, 14, 53, 90
15, 192479, Note_on_c, 14, 53, 0
15, 192480, Note_on_c, 14, 52, 90
15, 192539, Note_on_c, 14, 52, 0
15, 192540, Note_on_c, 14, 50, 90
15, 192599, Note_on_c, 14, 50, 0
15, 192600, Note_on_c, 14, 48, 90
15, 192659, Note_on_c, 14, 48, 0
15, 192660, Note_on_c, 14, 46, 90
15, 192719, Note_on_c, 14, 46, 0
15, 192720, Note_on_c, 14, 45, 90
15, 192779, Note_on_c, 14, 45, 0
15, 192780, Note_on_c, 14, 48, 90
15, 192899, Note_on_c, 14, 48, 0
15, 192900, Note_on_c, 14, 36, 90
15, 193019, Note_on_c, 14, 36, 0
15, 193020, Note_on_c, 14, 41, 90
15, 193139, Note_on_c, 14, 41, 0
15, 193139, End_track
16, 0, Start_track
16, 0, MIDI_port, 0
16, 0, Title_t, "Organ/Clave H"
16, 0, Program_c, 15, 20
16, 0, Control_c, 15, 7, 127
16, 0, Control_c, 15, 10, 70
16, 43380, Note_on_c, 15, 60, 90
16, 43380, Note_on_c, 15, 64, 90
16, 43380, Note_on_c, 15, 67, 90
16, 43859, Note_on_c, 15, 67, 0
16, 43859, Note_on_c, 15, 64, 0
16, 43859, Note_on_c, 15, 60, 0
16, 43860, Note_on_c, 15, 70, 90
16, 43860, Note_on_c, 15, 65, 90
16, 43860, Note_on_c, 15, 62, 90
16, 44099, Note_on_c, 15, 62, 0
16, 44099, Note_on_c, 15, 65, 0
16, 44099, Note_on_c, 15, 70, 0
16, 44100, Note_on_c, 15, 62, 90
16, 44100, Note_on_c, 15, 65, 90
16, 44100, Note_on_c, 15, 67, 90
16, 44339, Note_on_c, 15, 67, 0
16, 44339, Note_on_c, 15, 65, 0
16, 44339, Note_on_c, 15, 62, 0
16, 44340, Note_on_c, 15, 60, 90
16, 44340, Note_on_c, 15, 64, 90
16, 44340, Note_on_c, 15, 67, 90
16, 44699, Note_on_c, 15, 67, 0
16, 44699, Note_on_c, 15, 64, 0
16, 44699, Note_on_c, 15, 60, 0
16, 44700, Note_on_c, 15, 67, 90
16, 44700, Note_on_c, 15, 64, 90
16, 44939, Note_on_c, 15, 64, 0
16, 44939, Note_on_c, 15, 67, 0
16, 44940, Note_on_c, 15, 60, 90
16, 44940, Note_on_c, 15, 65, 90
16, 44940, Note_on_c, 15, 69, 90
16, 45299, Note_on_c, 15, 69, 0
16, 45299, Note_on_c, 15, 65, 0
16, 45299, Note_on_c, 15, 60, 0
16, 45300, Note_on_c, 15, 61, 90
16, 45300, Note_on_c, 15, 64, 90
16, 45300, Note_on_c, 15, 69, 90
16, 45419, Note_on_c, 15, 69, 0
16, 45420, Note_on_c, 15, 67, 90
16, 45539, Note_on_c, 15, 67, 0
16, 45539, Note_on_c, 15, 64, 0
16, 45539, Note_on_c, 15, 61, 0
16, 45540, Note_on_c, 15, 57, 90
16, 45540, Note_on_c, 15, 62, 90
16, 45540, Note_on_c, 15, 65, 90
16, 45779, Note_on_c, 15, 65, 0
16, 45779, Note_on_c, 15, 62, 0
16, 45779, Note_on_c, 15, 57, 0
16, 45780, Note_on_c, 15, 68, 90
16, 45780, Note_on_c, 15, 71, 90
16, 45780, Note_on_c, 15, 65, 90
16, 45899, Note_on_c, 15, 65, 0
16, 45900, Note_on_c, 15, 64, 90
16, 46019, Note_on_c, 15, 64, 0
16, 46019, Note_on_c, 15, 71, 0
16, 46019, Note_on_c, 15, 68, 0
16, 46020, Note_on_c, 15, 60, 90
16, 46020, Note_on_c, 15, 64, 90
16, 46020, Note_on_c, 15, 69, 90
16, 46139, Note_on_c, 15, 69, 0
16, 46139, Note_on_c, 15, 64, 0
16, 46139, Note_on_c, 15, 60, 0
16, 46140, Note_on_c, 15, 62, 90
16, 46140, Note_on_c, 15, 65, 90
16, 46140, Note_on_c, 15, 69, 90
16, 46259, Note_on_c, 15, 69, 0
16, 46259, Note_on_c, 15, 65, 0
16, 46259, Note_on_c, 15, 62, 0
16, 46380, Note_on_c, 15, 68, 90
16, 46380, Note_on_c, 15, 62, 90
16, 46380, Note_on_c, 15, 64, 90
16, 46499, Note_on_c, 15, 64, 0
16, 46499, Note_on_c, 15, 62, 0
16, 46499, Note_on_c, 15, 68, 0
16, 46500, Note_on_c, 15, 60, 90
16, 46500, Note_on_c, 15, 64, 90
16, 46500, Note_on_c, 15, 69, 90
16, 46620, Note_on_c, 15, 69, 0
16, 46620, Note_on_c, 15, 64, 0
16, 46620, Note_on_c, 15, 60, 0
16, 46740, Note_on_c, 15, 65, 100
16, 46740, Note_on_c, 15, 74, 100
16, 46980, Note_on_c, 15, 74, 0
16, 46980, Note_on_c, 15, 65, 0
16, 46980, Note_on_c, 15, 67, 100
16, 46980, Note_on_c, 15, 64, 100
16, 46980, Note_on_c, 15, 73, 100
16, 47220, Note_on_c, 15, 73, 0
16, 47220, Note_on_c, 15, 64, 0
16, 47220, Note_on_c, 15, 67, 0
16, 47220, Note_on_c, 15, 65, 100
16, 47220, Note_on_c, 15, 69, 100
16, 47220, Note_on_c, 15, 74, 100
16, 47700, Note_on_c, 15, 74, 0
16, 47700, Note_on_c, 15, 69, 0
16, 47700, Note_on_c, 15, 65, 0
16, 47700, Note_on_c, 15, 71, 100
16, 47700, Note_on_c, 15, 62, 100
16, 47700, Note_on_c, 15, 67, 100
16, 48180, Note_on_c, 15, 62, 0
16, 48180, Note_on_c, 15, 71, 0
16, 48180, Note_on_c, 15, 72, 100
16, 48180, Note_on_c, 15, 64, 100
16, 48660, Note_on_c, 15, 64, 0
16, 48660, Note_on_c, 15, 72, 0
16, 48660, Note_on_c, 15, 67, 0
16, 48660, Note_on_c, 15, 66, 100
16, 48660, Note_on_c, 15, 60, 100
16, 48660, Note_on_c, 15, 64, 100
16, 49620, Note_on_c, 15, 64, 0
16, 49620, Note_on_c, 15, 60, 0
16, 49620, Note_on_c, 15, 66, 0
16, 49620, Note_on_c, 15, 62, 100
16, 49620, Note_on_c, 15, 70, 100
16, 49620, Note_on_c, 15, 67, 100
16, 50340, Note_on_c, 15, 67, 0
16, 50340, Note_on_c, 15, 70, 0
16, 50340, Note_on_c, 15, 62, 0
16, 50340, Note_on_c, 15, 72, 90
16, 50340, Note_on_c, 15, 65, 90
16, 50460, Note_on_c, 15, 65, 0
16, 50460, Note_on_c, 15, 63, 90
16, 50579, Note_on_c, 15, 72, 0
16, 50580, Note_on_c, 15, 63, 0
16, 50580, Note_on_c, 15, 65, 90
16, 50580, Note_on_c, 15, 62, 90
16, 50699, Note_on_c, 15, 62, 0
16, 50699, Note_on_c, 15, 65, 0
16, 50700, Note_on_c, 15, 65, 90
16, 50700, Note_on_c, 15, 70, 90
16, 50819, Note_on_c, 15, 70, 0
16, 50819, Note_on_c, 15, 65, 0
16, 50940, Note_on_c, 15, 70, 90
16, 50940, Note_on_c, 15, 72, 90
16, 51059, Note_on_c, 15, 72, 0
16, 51059, Note_on_c, 15, 70, 0
16, 51060, Note_on_c, 15, 69, 90
16, 51060, Note_on_c, 15, 72, 90
16, 51179, Note_on_c, 15, 72, 0
16, 51179, Note_on_c, 15, 69, 0
16, 54660, Note_on_c, 15, 67, 90
16, 54660, Note_on_c, 15, 64, 90
16, 54899, Note_on_c, 15, 64, 0
16, 54899, Note_on_c, 15, 67, 0
16, 54900, Note_on_c, 15, 73, 90
16, 54900, Note_on_c, 15, 64, 90
16, 54900, Note_on_c, 15, 67, 90
16, 55619, Note_on_c, 15, 67, 0
16, 55619, Note_on_c, 15, 64, 0
16, 55619, Note_on_c, 15, 73, 0
16, 55620, Note_on_c, 15, 62, 90
16, 55620, Note_on_c, 15, 65, 90
16, 55620, Note_on_c, 15, 69, 90
16, 55859, Note_on_c, 15, 69, 0
16, 55859, Note_on_c, 15, 65, 0
16, 55859, Note_on_c, 15, 62, 0
16, 55860, Note_on_c, 15, 65, 90
16, 55860, Note_on_c, 15, 62, 90
16, 55860, Note_on_c, 15, 68, 90
16, 56099, Note_on_c, 15, 68, 0
16, 56099, Note_on_c, 15, 62, 0
16, 56099, Note_on_c, 15, 65, 0
16, 56100, Note_on_c, 15, 62, 90
16, 56100, Note_on_c, 15, 65, 90
16, 56100, Note_on_c, 15, 59, 90
16, 56339, Note_on_c, 15, 59, 0
16, 56339, Note_on_c, 15, 65, 0
16, 56339, Note_on_c, 15, 62, 0
16, 56340, Note_on_c, 15, 62, 90
16, 56340, Note_on_c, 15, 64, 90
16, 56699, Note_on_c, 15, 64, 0
16, 56699, Note_on_c, 15, 62, 0
16, 56700, Note_on_c, 15, 68, 90
16, 56700, Note_on_c, 15, 62, 90
16, 56819, Note_on_c, 15, 62, 0
16, 56819, Note_on_c, 15, 68, 0
16, 56820, Note_on_c, 15, 60, 90
16, 56820, Note_on_c, 15, 64, 90
16, 56820, Note_on_c, 15, 69, 90
16, 56939, Note_on_c, 15, 69, 0
16, 56939, Note_on_c, 15, 64, 0
16, 56939, Note_on_c, 15, 60, 0
16, 56940, Note_on_c, 15, 66, 100
16, 56940, Note_on_c, 15, 60, 100
16, 56940, Note_on_c, 15, 69, 100
16, 57180, Note_on_c, 15, 66, 0
16, 57420, Note_on_c, 15, 60, 0
16, 57420, Note_on_c, 15, 67, 100
16, 57420, Note_on_c, 15, 61, 100
16, 57540, Note_on_c, 15, 61, 0
16, 57540, Note_on_c, 15, 67, 0
16, 57540, Note_on_c, 15, 69, 0
16, 57540, Note_on_c, 15, 62, 100
16, 57540, Note_on_c, 15, 66, 100
16, 57540, Note_on_c, 15, 69, 100
16, 57660, Note_on_c, 15, 69, 0
16, 57660, Note_on_c, 15, 66, 0
16, 57660, Note_on_c, 15, 62, 0
16, 57660, Note_on_c, 15, 68, 90
16, 57660, Note_on_c, 15, 62, 90
16, 57660, Note_on_c, 15, 65, 90
16, 58379, Note_on_c, 15, 65, 0
16, 58379, Note_on_c, 15, 62, 0
16, 58379, Note_on_c, 15, 68, 0
16, 58380, Note_on_c, 15, 62, 90
16, 58380, Note_on_c, 15, 71, 90
16, 58380, Note_on_c, 15, 67, 90
16, 58380, Note_on_c, 15, 65, 90
16, 58499, Note_on_c, 15, 65, 0
16, 58499, Note_on_c, 15, 62, 0
16, 58499, Note_on_c, 15, 71, 0
16, 58499, Note_on_c, 15, 67, 0
16, 58500, Note_on_c, 15, 72, 90
16, 58500, Note_on_c, 15, 67, 90
16, 58500, Note_on_c, 15, 60, 90
16, 58500, Note_on_c, 15, 63, 90
16, 58739, Note_on_c, 15, 63, 0
16, 58739, Note_on_c, 15, 72, 0
16, 58739, Note_on_c, 15, 67, 0
16, 58739, Note_on_c, 15, 60, 0
16, 58740, Note_on_c, 15, 69, 90
16, 58740, Note_on_c, 15, 67, 90
16, 58740, Note_on_c, 15, 63, 90
16, 58979, Note_on_c, 15, 63, 0
16, 58979, Note_on_c, 15, 67, 0
16, 58979, Note_on_c, 15, 69, 0
16, 58980, Note_on_c, 15, 62, 90
16, 58980, Note_on_c, 15, 72, 90
16, 59340, Note_on_c, 15, 72, 0
16, 59340, Note_on_c, 15, 62, 0
16, 59340, Note_on_c, 15, 72, 90
16, 59340, Note_on_c, 15, 63, 90
16, 59459, Note_on_c, 15, 63, 0
16, 59459, Note_on_c, 15, 72, 0
16, 59460, Note_on_c, 15, 68, 90
16, 59460, Note_on_c, 15, 65, 90
16, 59460, Note_on_c, 15, 62, 90
16, 59579, Note_on_c, 15, 62, 0
16, 59579, Note_on_c, 15, 65, 0
16, 59579, Note_on_c, 15, 68, 0
16, 59580, Note_on_c, 15, 72, 90
16, 59580, Note_on_c, 15, 66, 90
16, 59580, Note_on_c, 15, 63, 90
16, 59699, Note_on_c, 15, 63, 0
16, 59699, Note_on_c, 15, 66, 0
16, 59699, Note_on_c, 15, 72, 0
16, 59820, Note_on_c, 15, 72, 90
16, 59820, Note_on_c, 15, 64, 90
16, 59880, Note_on_c, 15, 64, 0
16, 59880, Note_on_c, 15, 72, 0
16, 59880, Note_on_c, 15, 71, 90
16, 59880, Note_on_c, 15, 62, 90
16, 59940, Note_on_c, 15, 62, 0
16, 59940, Note_on_c, 15, 71, 0
16, 59940, Note_on_c, 15, 67, 90
16, 59940, Note_on_c, 15, 60, 90
16, 59940, Note_on_c, 15, 72, 90
16, 60060, Note_on_c, 15, 72, 0
16, 60060, Note_on_c, 15, 60, 0
16, 60060, Note_on_c, 15, 67, 0
16, 60180, Program_c, 15, 6
16, 60180, Note_on_c, 15, 67, 100
16, 60180, Note_on_c, 15, 64, 100
16, 60180, Note_on_c, 15, 60, 100
16, 60300, Note_on_c, 15, 60, 0
16, 60300, Note_on_c, 15, 64, 0
16, 60300, Note_on_c, 15, 67, 0
16, 60300, Note_on_c, 15, 59, 100
16, 60300, Note_on_c, 15, 62, 100
16, 60300, Note_on_c, 15, 65, 100
16, 60360, Note_on_c, 15, 65, 0
16, 60360, Note_on_c, 15, 62, 0
16, 60360, Note_on_c, 15, 59, 0
16, 60360, Note_on_c, 15, 60, 100
16, 60360, Note_on_c, 15, 64, 100
16, 60360, Note_on_c, 15, 67, 100
16, 60480, Note_on_c, 15, 67, 0
16, 60480, Note_on_c, 15, 64, 0
16, 60480, Note_on_c, 15, 60, 0
16, 60480, Note_on_c, 15, 60, 100
16, 60480, Note_on_c, 15, 64, 100
16, 60480, Note_on_c, 15, 67, 100
16, 60540, Note_on_c, 15, 67, 0
16, 60540, Note_on_c, 15, 64, 0
16, 60540, Note_on_c, 15, 60, 0
16, 60540, Note_on_c, 15, 72, 100
16, 60540, Note_on_c, 15, 60, 100
16, 60540, Note_on_c, 15, 65, 100
16, 60600, Note_on_c, 15, 72, 0
16, 60600, Note_on_c, 15, 69, 100
16, 60660, Note_on_c, 15, 69, 0
16, 60660, Note_on_c, 15, 65, 0
16, 60660, Note_on_c, 15, 60, 0
16, 60660, Note_on_c, 15, 65, 100
16, 60720, Note_on_c, 15, 65, 0
16, 61020, Note_on_c, 15, 67, 100
16, 61020, Note_on_c, 15, 64, 100
16, 61020, Note_on_c, 15, 60, 100
16, 61080, Note_on_c, 15, 60, 0
16, 61080, Note_on_c, 15, 64, 0
16, 61080, Note_on_c, 15, 67, 0
16, 61080, Note_on_c, 15, 72, 100
16, 61080, Note_on_c, 15, 64, 100
16, 61080, Note_on_c, 15, 67, 100
16, 61200, Note_on_c, 15, 67, 0
16, 61200, Note_on_c, 15, 64, 0
16, 61200, Note_on_c, 15, 72, 0
16, 61200, Note_on_c, 15, 67, 100
16, 61200, Note_on_c, 15, 64, 100
16, 61200, Note_on_c, 15, 72, 100
16, 61260, Note_on_c, 15, 72, 0
16, 61260, Note_on_c, 15, 64, 0
16, 61260, Note_on_c, 15, 67, 0
16, 61260, Note_on_c, 15, 72, 100
16, 61260, Note_on_c, 15, 76, 100
16, 61260, Note_on_c, 15, 67, 100
16, 61380, Note_on_c, 15, 67, 0
16, 61380, Note_on_c, 15, 76, 0
16, 61380, Note_on_c, 15, 72, 0
16, 61380, Note_on_c, 15, 67, 100
16, 61500, Note_on_c, 15, 67, 0
16, 61620, Note_on_c, 15, 60, 100
16, 61620, Note_on_c, 15, 64, 100
16, 61620, Note_on_c, 15, 67, 100
16, 61740, Note_on_c, 15, 67, 0
16, 61740, Note_on_c, 15, 64, 0
16, 61740, Note_on_c, 15, 60, 0
16, 61740, Note_on_c, 15, 59, 100
16, 61800, Note_on_c, 15, 59, 0
16, 61800, Note_on_c, 15, 60, 100
16, 61800, Note_on_c, 15, 64, 100
16, 61800, Note_on_c, 15, 67, 100
16, 61920, Note_on_c, 15, 67, 0
16, 61920, Note_on_c, 15, 64, 0
16, 61920, Note_on_c, 15, 60, 0
16, 61920, Note_on_c, 15, 62, 100
16, 61980, Note_on_c, 15, 62, 0
16, 61980, Note_on_c, 15, 67, 100
16, 61980, Note_on_c, 15, 60, 100
16, 61980, Note_on_c, 15, 64, 100
16, 62040, Note_on_c, 15, 67, 0
16, 62040, Note_on_c, 15, 69, 100
16, 62100, Note_on_c, 15, 69, 0
16, 62100, Note_on_c, 15, 64, 0
16, 62100, Note_on_c, 15, 60, 0
16, 62100, Note_on_c, 15, 60, 100
16, 62100, Note_on_c, 15, 67, 100
16, 62160, Note_on_c, 15, 67, 0
16, 62160, Note_on_c, 15, 60, 0
16, 62160, Note_on_c, 15, 71, 100
16, 62160, Note_on_c, 15, 62, 100
16, 62160, Note_on_c, 15, 65, 100
16, 62220, Note_on_c, 15, 71, 0
16, 62220, Note_on_c, 15, 69, 100
16, 62280, Note_on_c, 15, 69, 0
16, 62280, Note_on_c, 15, 65, 0
16, 62280, Note_on_c, 15, 62, 0
16, 62280, Note_on_c, 15, 62, 100
16, 62280, Note_on_c, 15, 65, 100
16, 62340, Note_on_c, 15, 65, 0
16, 62340, Note_on_c, 15, 62, 0
16, 62340, Note_on_c, 15, 64, 100
16, 62340, Note_on_c, 15, 67, 100
16, 62460, Note_on_c, 15, 67, 0
16, 62460, Note_on_c, 15, 64, 0
16, 62460, Note_on_c, 15, 67, 100
16, 62490, Note_on_c, 15, 67, 0
16, 62490, Note_on_c, 15, 65, 100
16, 62520, Note_on_c, 15, 65, 0
16, 62520, Note_on_c, 15, 67, 100
16, 62520, Note_on_c, 15, 64, 100
16, 62520, Note_on_c, 15, 60, 100
16, 62640, Note_on_c, 15, 60, 0
16, 62640, Note_on_c, 15, 64, 0
16, 62640, Note_on_c, 15, 67, 0
16, 62640, Note_on_c, 15, 65, 100
16, 62700, Note_on_c, 15, 65, 0
16, 62700, Note_on_c, 15, 67, 100
16, 62700, Note_on_c, 15, 64, 100
16, 62700, Note_on_c, 15, 60, 100
16, 62760, Note_on_c, 15, 67, 0
16, 62760, Note_on_c, 15, 72, 100
16, 62790, Note_on_c, 15, 72, 0
16, 62790, Note_on_c, 15, 71, 100
16, 62820, Note_on_c, 15, 71, 0
16, 62820, Note_on_c, 15, 60, 0
16, 62820, Note_on_c, 15, 64, 0
16, 62820, Note_on_c, 15, 64, 100
16, 62820, Note_on_c, 15, 67, 100
16, 62820, Note_on_c, 15, 72, 100
16, 62880, Note_on_c, 15, 72, 0
16, 62880, Note_on_c, 15, 67, 0
16, 62880, Note_on_c, 15, 64, 0
16, 62880, Note_on_c, 15, 62, 100
16, 62880, Note_on_c, 15, 65, 100
16, 62880, Note_on_c, 15, 71, 100
16, 63000, Note_on_c, 15, 71, 0
16, 63000, Note_on_c, 15, 65, 0
16, 63000, Note_on_c, 15, 62, 0
16, 63000, Note_on_c, 15, 62, 100
16, 63000, Note_on_c, 15, 71, 100
16, 63000, Note_on_c, 15, 65, 100
16, 63060, Note_on_c, 15, 65, 0
16, 63060, Note_on_c, 15, 71, 0
16, 63060, Note_on_c, 15, 62, 0
16, 63060, Note_on_c, 15, 64, 100
16, 63060, Note_on_c, 15, 67, 100
16, 63060, Note_on_c, 15, 72, 100
16, 63180, Note_on_c, 15, 72, 0
16, 63180, Note_on_c, 15, 67, 0
16, 63180, Note_on_c, 15, 64, 0
16, 63180, Note_on_c, 15, 59, 100
16, 63180, Note_on_c, 15, 62, 100
16, 63240, Note_on_c, 15, 62, 0
16, 63240, Note_on_c, 15, 59, 0
16, 63240, Note_on_c, 15, 64, 100
16, 63240, Note_on_c, 15, 67, 100
16, 63240, Note_on_c, 15, 72, 100
16, 63360, Note_on_c, 15, 72, 0
16, 63360, Note_on_c, 15, 67, 0
16, 63360, Note_on_c, 15, 64, 0
16, 63360, Note_on_c, 15, 64, 100
16, 63360, Note_on_c, 15, 67, 100
16, 63360, Note_on_c, 15, 70, 100
16, 63420, Note_on_c, 15, 70, 0
16, 63420, Note_on_c, 15, 67, 0
16, 63420, Note_on_c, 15, 64, 0
16, 63420, Note_on_c, 15, 69, 100
16, 63420, Note_on_c, 15, 65, 100
16, 63420, Note_on_c, 15, 72, 100
16, 63540, Note_on_c, 15, 72, 0
16, 63540, Note_on_c, 15, 65, 0
16, 63540, Note_on_c, 15, 69, 0
16, 63540, Note_on_c, 15, 64, 100
16, 63540, Note_on_c, 15, 67, 100
16, 63540, Note_on_c, 15, 72, 100
16, 63600, Note_on_c, 15, 72, 0
16, 63600, Note_on_c, 15, 67, 0
16, 63600, Note_on_c, 15, 64, 0
16, 63600, Note_on_c, 15, 71, 100
16, 63600, Note_on_c, 15, 62, 100
16, 63600, Note_on_c, 15, 65, 100
16, 63720, Note_on_c, 15, 65, 0
16, 63720, Note_on_c, 15, 62, 0
16, 63720, Note_on_c, 15, 71, 0
16, 63720, Note_on_c, 15, 64, 100
16, 63720, Note_on_c, 15, 67, 100
16, 63720, Note_on_c, 15, 72, 100
16, 63780, Note_on_c, 15, 72, 0
16, 63780, Note_on_c, 15, 67, 0
16, 63780, Note_on_c, 15, 64, 0
16, 63780, Note_on_c, 15, 62, 100
16, 63780, Note_on_c, 15, 67, 100
16, 63840, Note_on_c, 15, 67, 0
16, 63840, Note_on_c, 15, 65, 100
16, 63900, Note_on_c, 15, 65, 0
16, 63900, Note_on_c, 15, 62, 0
16, 63900, Note_on_c, 15, 64, 100
16, 63960, Note_on_c, 15, 64, 0
16, 63960, Note_on_c, 15, 62, 100
16, 63960, Note_on_c, 15, 69, 100
16, 63960, Note_on_c, 15, 66, 100
16, 64020, Note_on_c, 15, 62, 0
16, 64020, Note_on_c, 15, 60, 100
16, 64080, Note_on_c, 15, 60, 0
16, 64080, Note_on_c, 15, 66, 0
16, 64080, Note_on_c, 15, 69, 0
16, 64080, Note_on_c, 15, 66, 100
16, 64080, Note_on_c, 15, 57, 100
16, 64080, Note_on_c, 15, 60, 100
16, 64140, Note_on_c, 15, 60, 0
16, 64140, Note_on_c, 15, 57, 0
16, 64140, Note_on_c, 15, 66, 0
16, 64140, Note_on_c, 15, 59, 100
16, 64140, Note_on_c, 15, 67, 100
16, 64140, Note_on_c, 15, 62, 100
16, 64260, Note_on_c, 15, 62, 0
16, 64260, Note_on_c, 15, 67, 0
16, 64260, Note_on_c, 15, 59, 0
16, 64260, Note_on_c, 15, 60, 100
16, 64260, Note_on_c, 15, 64, 100
16, 64320, Note_on_c, 15, 64, 0
16, 64320, Note_on_c, 15, 60, 0
16, 64320, Note_on_c, 15, 64, 100
16, 64320, Note_on_c, 15, 67, 100
16, 64320, Note_on_c, 15, 69, 100
16, 64440, Note_on_c, 15, 69, 0
16, 64440, Note_on_c, 15, 67, 0
16, 64440, Note_on_c, 15, 64, 0
16, 64440, Note_on_c, 15, 69, 100
16, 64440, Note_on_c, 15, 62, 100
16, 64440, Note_on_c, 15, 66, 100
16, 64500, Note_on_c, 15, 66, 0
16, 64500, Note_on_c, 15, 62, 0
16, 64500, Note_on_c, 15, 69, 0
16, 64500, Note_on_c, 15, 72, 100
16, 64500, Note_on_c, 15, 62, 100
16, 64500, Note_on_c, 15, 71, 100
16, 64500, Note_on_c, 15, 67, 100
16, 64560, Note_on_c, 15, 72, 0
16, 64560, Note_on_c, 15, 71, 100
16, 64620, Note_on_c, 15, 71, 0
16, 64620, Note_on_c, 15, 67, 0
16, 64620, Note_on_c, 15, 71, 0
16, 64620, Note_on_c, 15, 62, 0
16, 64860, Note_on_c, 15, 77, 100
16, 64860, Note_on_c, 15, 64, 100
16, 64860, Note_on_c, 15, 67, 100
16, 64860, Note_on_c, 15, 72, 100
16, 64920, Note_on_c, 15, 77, 0
16, 64920, Note_on_c, 15, 76, 100
16, 64980, Note_on_c, 15, 76, 0
16, 64980, Note_on_c, 15, 72, 0
16, 64980, Note_on_c, 15, 67, 0
16, 64980, Note_on_c, 15, 64, 0
16, 65220, Note_on_c, 15, 78, 100
16, 65220, Note_on_c, 15, 64, 100
16, 65220, Note_on_c, 15, 73, 100
16, 65220, Note_on_c, 15, 67, 100
16, 65280, Note_on_c, 15, 78, 0
16, 65280, Note_on_c, 15, 79, 100
16, 65340, Note_on_c, 15, 79, 0
16, 65340, Note_on_c, 15, 67, 0
16, 65340, Note_on_c, 15, 73, 0
16, 65340, Note_on_c, 15, 64, 0
16, 65580, Note_on_c, 15, 73, 100
16, 65580, Note_on_c, 15, 66, 100
16, 65580, Note_on_c, 15, 69, 100
16, 65580, Note_on_c, 15, 74, 100
16, 65640, Note_on_c, 15, 73, 0
16, 65640, Note_on_c, 15, 74, 100
16, 65700, Note_on_c, 15, 74, 0
16, 65700, Note_on_c, 15, 74, 0
16, 65700, Note_on_c, 15, 69, 0
16, 65700, Note_on_c, 15, 66, 0
16, 65940, Note_on_c, 15, 74, 100
16, 65940, Note_on_c, 15, 66, 100
16, 65940, Note_on_c, 15, 69, 100
16, 65940, Note_on_c, 15, 62, 100
16, 66000, Note_on_c, 15, 74, 0
16, 66000, Note_on_c, 15, 72, 100
16, 66060, Note_on_c, 15, 72, 0
16, 66060, Note_on_c, 15, 62, 0
16, 66060, Note_on_c, 15, 69, 0
16, 66060, Note_on_c, 15, 66, 0
16, 66060, Note_on_c, 15, 69, 100
16, 66060, Note_on_c, 15, 66, 100
16, 66060, Note_on_c, 15, 60, 100
16, 66120, Note_on_c, 15, 60, 0
16, 66120, Note_on_c, 15, 66, 0
16, 66120, Note_on_c, 15, 69, 0
16, 66120, Note_on_c, 15, 71, 100
16, 66120, Note_on_c, 15, 62, 100
16, 66120, Note_on_c, 15, 67, 100
16, 66180, Note_on_c, 15, 71, 0
16, 66180, Note_on_c, 15, 69, 100
16, 66240, Note_on_c, 15, 69, 0
16, 66240, Note_on_c, 15, 67, 0
16, 66240, Note_on_c, 15, 62, 0
16, 66240, Note_on_c, 15, 64, 100
16, 66240, Note_on_c, 15, 67, 100
16, 66300, Note_on_c, 15, 67, 0
16, 66300, Note_on_c, 15, 64, 0
16, 66300, Note_on_c, 15, 64, 100
16, 66300, Note_on_c, 15, 67, 100
16, 66300, Note_on_c, 15, 69, 100
16, 66360, Note_on_c, 15, 65, 100
16, 66390, Note_on_c, 15, 65, 0
16, 66390, Note_on_c, 15, 64, 100
16, 66420, Note_on_c, 15, 64, 0
16, 66420, Note_on_c, 15, 69, 0
16, 66420, Note_on_c, 15, 67, 0
16, 66420, Note_on_c, 15, 64, 0
16, 66420, Note_on_c, 15, 62, 100
16, 66420, Note_on_c, 15, 69, 100
16, 66420, Note_on_c, 15, 66, 100
16, 66450, Note_on_c, 15, 60, 100
16, 66480, Note_on_c, 15, 60, 0
16, 66480, Note_on_c, 15, 62, 0
16, 66480, Note_on_c, 15, 69, 0
16, 66480, Note_on_c, 15, 66, 0
16, 66480, Note_on_c, 15, 71, 100
16, 66480, Note_on_c, 15, 67, 100
16, 66480, Note_on_c, 15, 62, 100
16, 66540, Note_on_c, 15, 71, 100
16, 66540, Note_on_c, 15, 67, 100
16, 66570, Note_on_c, 15, 67, 0
16, 66570, Note_on_c, 15, 71, 0
16, 66570, Note_on_c, 15, 69, 100
16, 66570, Note_on_c, 15, 65, 100
16, 66600, Note_on_c, 15, 65, 0
16, 66600, Note_on_c, 15, 71, 0
16, 66600, Note_on_c, 15, 62, 0
16, 66600, Note_on_c, 15, 67, 0
16, 66600, Note_on_c, 15, 69, 0
16, 66600, Note_on_c, 15, 67, 100
16, 66600, Note_on_c, 15, 64, 100
16, 66630, Note_on_c, 15, 64, 0
16, 66630, Note_on_c, 15, 67, 0
16, 66630, Note_on_c, 15, 65, 100
16, 66630, Note_on_c, 15, 62, 100
16, 66660, Note_on_c, 15, 62, 0
16, 66660, Note_on_c, 15, 65, 0
16, 66660, Note_on_c, 15, 60, 100
16, 66660, Note_on_c, 15, 67, 100
16, 66660, Note_on_c, 15, 64, 100
16, 66780, Note_on_c, 15, 64, 0
16, 66780, Note_on_c, 15, 67, 0
16, 66780, Note_on_c, 15, 60, 0
16, 66780, Note_on_c, 15, 65, 100
16, 66840, Note_on_c, 15, 65, 0
16, 66840, Note_on_c, 15, 67, 100
16, 66960, Note_on_c, 15, 67, 0
16, 66960, Note_on_c, 15, 64, 100
16, 67020, Note_on_c, 15, 64, 0
16, 67020, Note_on_c, 15, 60, 100
16, 67140, Note_on_c, 15, 60, 0
16, 67140, Note_on_c, 15, 64, 100
16, 67200, Note_on_c, 15, 64, 0
16, 67500, Note_on_c, 15, 64, 100
16, 67560, Note_on_c, 15, 64, 0
16, 67560, Note_on_c, 15, 67, 100
16, 67680, Note_on_c, 15, 67, 0
16, 67680, Note_on_c, 15, 71, 100
16, 67740, Note_on_c, 15, 71, 0
16, 67740, Note_on_c, 15, 72, 100
16, 67860, Note_on_c, 15, 72, 0
16, 67860, Note_on_c, 15, 71, 100
16, 67920, Note_on_c, 15, 71, 0
16, 68100, Note_on_c, 15, 67, 100
16, 68100, Note_on_c, 15, 64, 100
16, 68160, Note_on_c, 15, 64, 0
16, 68160, Note_on_c, 15, 67, 0
16, 68220, Note_on_c, 15, 67, 100
16, 68220, Note_on_c, 15, 71, 100
16, 68280, Note_on_c, 15, 71, 0
16, 68280, Note_on_c, 15, 67, 0
16, 68280, Note_on_c, 15, 64, 100
16, 68280, Note_on_c, 15, 72, 100
16, 68340, Note_on_c, 15, 72, 0
16, 68340, Note_on_c, 15, 64, 0
16, 68340, Note_on_c, 15, 67, 100
16, 68370, Note_on_c, 15, 67, 0
16, 68370, Note_on_c, 15, 65, 100
16, 68400, Note_on_c, 15, 65, 0
16, 68400, Note_on_c, 15, 64, 100
16, 68430, Note_on_c, 15, 64, 0
16, 68430, Note_on_c, 15, 62, 100
16, 68460, Note_on_c, 15, 62, 0
16, 68460, Note_on_c, 15, 60, 100
16, 68580, Note_on_c, 15, 60, 0
16, 68580, Note_on_c, 15, 64, 100
16, 68640, Note_on_c, 15, 64, 0
16, 68640, Note_on_c, 15, 67, 100
16, 68760, Note_on_c, 15, 67, 0
16, 68760, Note_on_c, 15, 65, 115
16, 68790, Note_on_c, 15, 65, 0
16, 68790, Note_on_c, 15, 64, 115
16, 68820, Note_on_c, 15, 64, 0
16, 68820, Note_on_c, 15, 62, 115
16, 68879, Note_on_c, 15, 62, 0
16, 68880, Note_on_c, 15, 60, 115
16, 68939, Note_on_c, 15, 60, 0
16, 68940, Note_on_c, 15, 62, 115
16, 68999, Note_on_c, 15, 62, 0
16, 69000, Note_on_c, 15, 60, 100
16, 69119, Note_on_c, 15, 60, 0
16, 69120, Note_on_c, 15, 60, 100
16, 69179, Note_on_c, 15, 60, 0
16, 69180, Note_on_c, 15, 72, 100
16, 69180, Note_on_c, 15, 64, 100
16, 69299, Note_on_c, 15, 64, 0
16, 69299, Note_on_c, 15, 72, 0
16, 69360, Note_on_c, 15, 71, 115
16, 69360, Note_on_c, 15, 67, 100
16, 69419, Note_on_c, 15, 71, 0
16, 69420, Note_on_c, 15, 69, 115
16, 69449, Note_on_c, 15, 69, 0
16, 69450, Note_on_c, 15, 67, 115
16, 69479, Note_on_c, 15, 67, 0
16, 69479, Note_on_c, 15, 67, 0
16, 69480, Note_on_c, 15, 65, 115
16, 69509, Note_on_c, 15, 65, 0
16, 69510, Note_on_c, 15, 64, 115
16, 69539, Note_on_c, 15, 64, 0
16, 69540, Note_on_c, 15, 62, 100
16, 69659, Note_on_c, 15, 62, 0
16, 69720, Note_on_c, 15, 70, 100
16, 69720, Note_on_c, 15, 64, 100
16, 69720, Note_on_c, 15, 67, 100
16, 69839, Note_on_c, 15, 67, 0
16, 69839, Note_on_c, 15, 64, 0
16, 69839, Note_on_c, 15, 70, 0
16, 69900, Note_on_c, 15, 69, 100
16, 69900, Note_on_c, 15, 60, 100
16, 69900, Note_on_c, 15, 65, 100
16, 70019, Note_on_c, 15, 65, 0
16, 70019, Note_on_c, 15, 60, 0
16, 70019, Note_on_c, 15, 69, 0
16, 70080, Note_on_c, 15, 65, 100
16, 70080, Note_on_c, 15, 71, 100
16, 70199, Note_on_c, 15, 71, 0
16, 70199, Note_on_c, 15, 65, 0
16, 70200, Note_on_c, 15, 64, 100
16, 70200, Note_on_c, 15, 72, 100
16, 70259, Note_on_c, 15, 72, 0
16, 70259, Note_on_c, 15, 64, 0
16, 70260, Note_on_c, 15, 62, 100
16, 70260, Note_on_c, 15, 71, 100
16, 70379, Note_on_c, 15, 71, 0
16, 70379, Note_on_c, 15, 62, 0
16, 70440, Note_on_c, 15, 67, 100
16, 70440, Note_on_c, 15, 71, 100
16, 70559, Note_on_c, 15, 71, 0
16, 70559, Note_on_c, 15, 67, 0
16, 70620, Note_on_c, 15, 67, 100
16, 70620, Note_on_c, 15, 64, 100
16, 70739, Note_on_c, 15, 64, 0
16, 70739, Note_on_c, 15, 67, 0
16, 70740, Note_on_c, 15, 62, 100
16, 70740, Note_on_c, 15, 67, 100
16, 70799, Note_on_c, 15, 67, 0
16, 70799, Note_on_c, 15, 62, 0
16, 71160, Note_on_c, 15, 66, 100
16, 71160, Note_on_c, 15, 62, 100
16, 71279, Note_on_c, 15, 62, 0
16, 71279, Note_on_c, 15, 66, 0
16, 71340, Note_on_c, 15, 62, 100
16, 71340, Note_on_c, 15, 67, 100
16, 71459, Note_on_c, 15, 67, 0
16, 71459, Note_on_c, 15, 62, 0
16, 71700, Note_on_c, 15, 62, 100
16, 71700, Note_on_c, 15, 65, 100
16, 71819, Note_on_c, 15, 65, 0
16, 71819, Note_on_c, 15, 62, 0
16, 71880, Note_on_c, 15, 69, 100
16, 71880, Note_on_c, 15, 65, 100
16, 71999, Note_on_c, 15, 65, 0
16, 71999, Note_on_c, 15, 69, 0
16, 72060, Note_on_c, 15, 62, 100
16, 72060, Note_on_c, 15, 65, 100
16, 72179, Note_on_c, 15, 65, 0
16, 72179, Note_on_c, 15, 62, 0
16, 72240, Note_on_c, 15, 67, 100
16, 72240, Note_on_c, 15, 64, 100
16, 72359, Note_on_c, 15, 64, 0
16, 72359, Note_on_c, 15, 67, 0
16, 72420, Note_on_c, 15, 69, 100
16, 72420, Note_on_c, 15, 62, 100
16, 72420, Note_on_c, 15, 65, 100
16, 72539, Note_on_c, 15, 65, 0
16, 72539, Note_on_c, 15, 62, 0
16, 72539, Note_on_c, 15, 69, 0
16, 72660, Note_on_c, 15, 67, 100
16, 72719, Note_on_c, 15, 67, 0
16, 72720, Note_on_c, 15, 65, 100
16, 72779, Note_on_c, 15, 65, 0
16, 109980, Note_on_c, 15, 67, 90
16, 109980, Note_on_c, 15, 62, 90
16, 110459, Note_on_c, 15, 62, 0
16, 110459, Note_on_c, 15, 67, 0
16, 112380, Note_on_c, 15, 60, 90
16, 112380, Note_on_c, 15, 66, 90
16, 112739, Note_on_c, 15, 66, 0
16, 112739, Note_on_c, 15, 60, 0
16, 112740, Note_on_c, 15, 66, 90
16, 112740, Note_on_c, 15, 63, 90
16, 112859, Note_on_c, 15, 63, 0
16, 112859, Note_on_c, 15, 66, 0
16, 112860, Note_on_c, 15, 62, 90
16, 112860, Note_on_c, 15, 60, 90
16, 112919, Note_on_c, 15, 60, 0
16, 112919, Note_on_c, 15, 62, 0
16, 113820, Note_on_c, 15, 71, 90
16, 113820, Note_on_c, 15, 65, 90
16, 113820, Note_on_c, 15, 62, 90
16, 114299, Note_on_c, 15, 62, 0
16, 114299, Note_on_c, 15, 65, 0
16, 114299, Note_on_c, 15, 71, 0
16, 115140, Note_on_c, 15, 72, 90
16, 115140, Note_on_c, 15, 64, 90
16, 115140, Note_on_c, 15, 67, 90
16, 115260, Note_on_c, 15, 67, 0
16, 115260, Note_on_c, 15, 64, 0
16, 115260, Note_on_c, 15, 70, 90
16, 115740, Note_on_c, 15, 70, 0
16, 115740, Note_on_c, 15, 72, 0
16, 115740, Note_on_c, 15, 72, 90
16, 115740, Note_on_c, 15, 69, 90
16, 115740, Note_on_c, 15, 65, 90
16, 115860, Note_on_c, 15, 65, 0
16, 115860, Note_on_c, 15, 69, 0
16, 115860, Note_on_c, 15, 72, 0
16, 118620, Note_on_c, 15, 62, 90
16, 118620, Note_on_c, 15, 65, 90
16, 118679, Note_on_c, 15, 65, 0
16, 118679, Note_on_c, 15, 62, 0
16, 118740, Note_on_c, 15, 65, 90
16, 118740, Note_on_c, 15, 69, 90
16, 118799, Note_on_c, 15, 69, 0
16, 118799, Note_on_c, 15, 65, 0
16, 118860, Note_on_c, 15, 67, 90
16, 118860, Note_on_c, 15, 64, 90
16, 118919, Note_on_c, 15, 64, 0
16, 118919, Note_on_c, 15, 67, 0
16, 118980, Note_on_c, 15, 62, 90
16, 118980, Note_on_c, 15, 65, 90
16, 119039, Note_on_c, 15, 65, 0
16, 119039, Note_on_c, 15, 62, 0
16, 119100, Note_on_c, 15, 62, 90
16, 119100, Note_on_c, 15, 65, 90
16, 119159, Note_on_c, 15, 65, 0
16, 119159, Note_on_c, 15, 62, 0
16, 119220, Note_on_c, 15, 70, 90
16, 119220, Note_on_c, 15, 67, 90
16, 119279, Note_on_c, 15, 67, 0
16, 119279, Note_on_c, 15, 70, 0
16, 119340, Note_on_c, 15, 65, 90
16, 119340, Note_on_c, 15, 69, 90
16, 119340, Note_on_c, 15, 64, 90
16, 119399, Note_on_c, 15, 64, 0
16, 119399, Note_on_c, 15, 69, 0
16, 119399, Note_on_c, 15, 65, 0
16, 119460, Note_on_c, 15, 65, 90
16, 119460, Note_on_c, 15, 70, 90
16, 119519, Note_on_c, 15, 70, 0
16, 119519, Note_on_c, 15, 65, 0
16, 119580, Note_on_c, 15, 62, 90
16, 119580, Note_on_c, 15, 67, 90
16, 119639, Note_on_c, 15, 67, 0
16, 119639, Note_on_c, 15, 62, 0
16, 119700, Note_on_c, 15, 67, 90
16, 119700, Note_on_c, 15, 61, 90
16, 119759, Note_on_c, 15, 61, 0
16, 119759, Note_on_c, 15, 67, 0
16, 119820, Note_on_c, 15, 62, 90
16, 119820, Note_on_c, 15, 65, 90
16, 119879, Note_on_c, 15, 65, 0
16, 119879, Note_on_c, 15, 62, 0
16, 119880, Note_on_c, 15, 65, 90
16, 119939, Note_on_c, 15, 65, 0
16, 119940, Note_on_c, 15, 64, 90
16, 119999, Note_on_c, 15, 64, 0
16, 120000, Note_on_c, 15, 68, 90
16, 120000, Note_on_c, 15, 71, 90
16, 120000, Note_on_c, 15, 62, 90
16, 120059, Note_on_c, 15, 62, 0
16, 120059, Note_on_c, 15, 71, 0
16, 120059, Note_on_c, 15, 68, 0
16, 120060, Note_on_c, 15, 60, 90
16, 120060, Note_on_c, 15, 64, 90
16, 120060, Note_on_c, 15, 69, 90
16, 120119, Note_on_c, 15, 69, 0
16, 120119, Note_on_c, 15, 64, 0
16, 120119, Note_on_c, 15, 60, 0
16, 120180, Note_on_c, 15, 69, 90
16, 120180, Note_on_c, 15, 72, 90
16, 120239, Note_on_c, 15, 72, 0
16, 120239, Note_on_c, 15, 69, 0
16, 120300, Note_on_c, 15, 68, 90
16, 120300, Note_on_c, 15, 71, 90
16, 120359, Note_on_c, 15, 71, 0
16, 120359, Note_on_c, 15, 68, 0
16, 120420, Note_on_c, 15, 64, 90
16, 120420, Note_on_c, 15, 69, 90
16, 120479, Note_on_c, 15, 69, 0
16, 120479, Note_on_c, 15, 64, 0
16, 120540, Note_on_c, 15, 65, 90
16, 120540, Note_on_c, 15, 69, 90
16, 120599, Note_on_c, 15, 69, 0
16, 120599, Note_on_c, 15, 65, 0
16, 120660, Note_on_c, 15, 67, 90
16, 120660, Note_on_c, 15, 65, 90
16, 120719, Note_on_c, 15, 65, 0
16, 120719, Note_on_c, 15, 67, 0
16, 120780, Note_on_c, 15, 71, 90
16, 120780, Note_on_c, 15, 67, 90
16, 120780, Note_on_c, 15, 64, 90
16, 120839, Note_on_c, 15, 64, 0
16, 120839, Note_on_c, 15, 67, 0
16, 120839, Note_on_c, 15, 71, 0
16, 120900, Note_on_c, 15, 72, 90
16, 120900, Note_on_c, 15, 69, 90
16, 120900, Note_on_c, 15, 64, 90
16, 120959, Note_on_c, 15, 64, 0
16, 120959, Note_on_c, 15, 69, 0
16, 120959, Note_on_c, 15, 72, 0
16, 121020, Note_on_c, 15, 65, 90
16, 121020, Note_on_c, 15, 69, 90
16, 121020, Note_on_c, 15, 71, 90
16, 121079, Note_on_c, 15, 71, 0
16, 121079, Note_on_c, 15, 69, 0
16, 121079, Note_on_c, 15, 65, 0
16, 121140, Note_on_c, 15, 62, 90
16, 121140, Note_on_c, 15, 71, 90
16, 121140, Note_on_c, 15, 68, 90
16, 121199, Note_on_c, 15, 68, 0
16, 121199, Note_on_c, 15, 71, 0
16, 121199, Note_on_c, 15, 62, 0
16, 121260, Note_on_c, 15, 69, 90
16, 121260, Note_on_c, 15, 60, 90
16, 121319, Note_on_c, 15, 60, 0
16, 121319, Note_on_c, 15, 69, 0
16, 121320, Note_on_c, 15, 64, 90
16, 121320, Note_on_c, 15, 69, 90
16, 121379, Note_on_c, 15, 69, 0
16, 121379, Note_on_c, 15, 64, 0
16, 121380, Note_on_c, 15, 69, 90
16, 121380, Note_on_c, 15, 61, 90
16, 121439, Note_on_c, 15, 61, 0
16, 121439, Note_on_c, 15, 69, 0
16, 121440, Note_on_c, 15, 69, 90
16, 121440, Note_on_c, 15, 62, 90
16, 121499, Note_on_c, 15, 62, 0
16, 121499, Note_on_c, 15, 69, 0
16, 121500, Note_on_c, 15, 67, 90
16, 121500, Note_on_c, 15, 62, 90
16, 121559, Note_on_c, 15, 62, 0
16, 121559, Note_on_c, 15, 67, 0
16, 121620, Note_on_c, 15, 67, 90
16, 121620, Note_on_c, 15, 69, 90
16, 121620, Note_on_c, 15, 61, 90
16, 121679, Note_on_c, 15, 61, 0
16, 121679, Note_on_c, 15, 69, 0
16, 121679, Note_on_c, 15, 67, 0
16, 121740, Note_on_c, 15, 62, 90
16, 121740, Note_on_c, 15, 65, 90
16, 121740, Note_on_c, 15, 69, 90
16, 121799, Note_on_c, 15, 69, 0
16, 121799, Note_on_c, 15, 65, 0
16, 121799, Note_on_c, 15, 62, 0
16, 121800, Note_on_c, 15, 62, 90
16, 121800, Note_on_c, 15, 65, 90
16, 121859, Note_on_c, 15, 65, 0
16, 121859, Note_on_c, 15, 62, 0
16, 121860, Note_on_c, 15, 66, 90
16, 121860, Note_on_c, 15, 62, 90
16, 121919, Note_on_c, 15, 62, 0
16, 121919, Note_on_c, 15, 66, 0
16, 121920, Note_on_c, 15, 67, 90
16, 121979, Note_on_c, 15, 67, 0
16, 121980, Note_on_c, 15, 63, 90
16, 121980, Note_on_c, 15, 67, 90
16, 122039, Note_on_c, 15, 67, 0
16, 122039, Note_on_c, 15, 63, 0
16, 122100, Note_on_c, 15, 60, 90
16, 122100, Note_on_c, 15, 66, 90
16, 122159, Note_on_c, 15, 66, 0
16, 122159, Note_on_c, 15, 60, 0
16, 122220, Note_on_c, 15, 62, 90
16, 122220, Note_on_c, 15, 67, 90
16, 122279, Note_on_c, 15, 67, 0
16, 122279, Note_on_c, 15, 62, 0
16, 122280, Note_on_c, 15, 67, 90
16, 122280, Note_on_c, 15, 71, 90
16, 122339, Note_on_c, 15, 71, 0
16, 122339, Note_on_c, 15, 67, 0
16, 122340, Note_on_c, 15, 71, 90
16, 122340, Note_on_c, 15, 67, 90
16, 122399, Note_on_c, 15, 67, 0
16, 122399, Note_on_c, 15, 71, 0
16, 122400, Note_on_c, 15, 67, 90
16, 122400, Note_on_c, 15, 73, 90
16, 122459, Note_on_c, 15, 73, 0
16, 122459, Note_on_c, 15, 67, 0
16, 122460, Note_on_c, 15, 65, 90
16, 122460, Note_on_c, 15, 69, 90
16, 122460, Note_on_c, 15, 74, 90
16, 122580, Note_on_c, 15, 74, 0
16, 122580, Note_on_c, 15, 69, 0
16, 122580, Note_on_c, 15, 65, 0
16, 122580, Note_on_c, 15, 65, 90
16, 122580, Note_on_c, 15, 69, 90
16, 122700, Note_on_c, 15, 69, 0
16, 122700, Note_on_c, 15, 65, 0
16, 122700, Note_on_c, 15, 64, 90
16, 122700, Note_on_c, 15, 69, 90
16, 122700, Note_on_c, 15, 73, 90
16, 122820, Note_on_c, 15, 73, 0
16, 122820, Note_on_c, 15, 69, 0
16, 122820, Note_on_c, 15, 64, 0
16, 122820, Note_on_c, 15, 64, 90
16, 122820, Note_on_c, 15, 69, 90
16, 122820, Note_on_c, 15, 73, 90
16, 122940, Note_on_c, 15, 73, 0
16, 122940, Note_on_c, 15, 69, 0
16, 122940, Note_on_c, 15, 64, 0
16, 122940, Note_on_c, 15, 70, 90
16, 122940, Note_on_c, 15, 69, 90
16, 123060, Note_on_c, 15, 69, 0
16, 123060, Note_on_c, 15, 79, 90
16, 123180, Note_on_c, 15, 70, 0
16, 123180, Note_on_c, 15, 69, 90
16, 123300, Note_on_c, 15, 79, 0
16, 123300, Note_on_c, 15, 77, 90
16, 123420, Note_on_c, 15, 69, 0
16, 123420, Note_on_c, 15, 67, 90
16, 123540, Note_on_c, 15, 77, 0
16, 123540, Note_on_c, 15, 76, 90
16, 123660, Note_on_c, 15, 67, 0
16, 123660, Note_on_c, 15, 65, 90
16, 123780, Note_on_c, 15, 76, 0
16, 123780, Note_on_c, 15, 74, 90
16, 123900, Note_on_c, 15, 65, 0
16, 123900, Note_on_c, 15, 64, 90
16, 124020, Note_on_c, 15, 74, 0
16, 124020, Note_on_c, 15, 73, 90
16, 124140, Note_on_c, 15, 73, 0
16, 124140, Note_on_c, 15, 64, 0
16, 124140, Note_on_c, 15, 69, 90
16, 124140, Note_on_c, 15, 65, 90
16, 124260, Note_on_c, 15, 65, 0
16, 124260, Note_on_c, 15, 69, 0
16, 124260, Note_on_c, 15, 73, 90
16, 124260, Note_on_c, 15, 67, 90
16, 124380, Note_on_c, 15, 67, 0
16, 124380, Note_on_c, 15, 73, 0
16, 124380, Note_on_c, 15, 74, 90
16, 124380, Note_on_c, 15, 65, 90
16, 124380, Note_on_c, 15, 69, 90
16, 124439, Note_on_c, 15, 69, 0
16, 124439, Note_on_c, 15, 65, 0
16, 124439, Note_on_c, 15, 74, 0
16, 152220, Note_on_c, 15, 62, 90
16, 152220, Note_on_c, 15, 65, 90
16, 152279, Note_on_c, 15, 65, 0
16, 152279, Note_on_c, 15, 62, 0
16, 152340, Note_on_c, 15, 65, 90
16, 152340, Note_on_c, 15, 69, 90
16, 152399, Note_on_c, 15, 69, 0
16, 152399, Note_on_c, 15, 65, 0
16, 152460, Note_on_c, 15, 67, 90
16, 152460, Note_on_c, 15, 64, 90
16, 152519, Note_on_c, 15, 64, 0
16, 152519, Note_on_c, 15, 67, 0
16, 152580, Note_on_c, 15, 62, 90
16, 152580, Note_on_c, 15, 65, 90
16, 152639, Note_on_c, 15, 65, 0
16, 152639, Note_on_c, 15, 62, 0
16, 152700, Note_on_c, 15, 62, 90
16, 152700, Note_on_c, 15, 65, 90
16, 152759, Note_on_c, 15, 65, 0
16, 152759, Note_on_c, 15, 62, 0
16, 152820, Note_on_c, 15, 70, 90
16, 152820, Note_on_c, 15, 67, 90
16, 152879, Note_on_c, 15, 67, 0
16, 152879, Note_on_c, 15, 70, 0
16, 152940, Note_on_c, 15, 65, 90
16, 152940, Note_on_c, 15, 69, 90
16, 152940, Note_on_c, 15, 64, 90
16, 152999, Note_on_c, 15, 64, 0
16, 152999, Note_on_c, 15, 69, 0
16, 152999, Note_on_c, 15, 65, 0
16, 153060, Note_on_c, 15, 65, 90
16, 153060, Note_on_c, 15, 70, 90
16, 153119, Note_on_c, 15, 70, 0
16, 153119, Note_on_c, 15, 65, 0
16, 153180, Note_on_c, 15, 62, 90
16, 153180, Note_on_c, 15, 67, 90
16, 153239, Note_on_c, 15, 67, 0
16, 153239, Note_on_c, 15, 62, 0
16, 153300, Note_on_c, 15, 67, 90
16, 153300, Note_on_c, 15, 61, 90
16, 153359, Note_on_c, 15, 61, 0
16, 153359, Note_on_c, 15, 67, 0
16, 153420, Note_on_c, 15, 62, 90
16, 153420, Note_on_c, 15, 65, 90
16, 153479, Note_on_c, 15, 65, 0
16, 153479, Note_on_c, 15, 62, 0
16, 153480, Note_on_c, 15, 65, 90
16, 153539, Note_on_c, 15, 65, 0
16, 153540, Note_on_c, 15, 64, 90
16, 153599, Note_on_c, 15, 64, 0
16, 153600, Note_on_c, 15, 68, 90
16, 153600, Note_on_c, 15, 71, 90
16, 153600, Note_on_c, 15, 62, 90
16, 153659, Note_on_c, 15, 62, 0
16, 153659, Note_on_c, 15, 71, 0
16, 153659, Note_on_c, 15, 68, 0
16, 153660, Note_on_c, 15, 60, 90
16, 153660, Note_on_c, 15, 64, 90
16, 153660, Note_on_c, 15, 69, 90
16, 153719, Note_on_c, 15, 69, 0
16, 153719, Note_on_c, 15, 64, 0
16, 153719, Note_on_c, 15, 60, 0
16, 153780, Note_on_c, 15, 69, 90
16, 153780, Note_on_c, 15, 72, 90
16, 153839, Note_on_c, 15, 72, 0
16, 153839, Note_on_c, 15, 69, 0
16, 153900, Note_on_c, 15, 68, 90
16, 153900, Note_on_c, 15, 71, 90
16, 153959, Note_on_c, 15, 71, 0
16, 153959, Note_on_c, 15, 68, 0
16, 154020, Note_on_c, 15, 64, 90
16, 154020, Note_on_c, 15, 69, 90
16, 154079, Note_on_c, 15, 69, 0
16, 154079, Note_on_c, 15, 64, 0
16, 154140, Note_on_c, 15, 65, 90
16, 154140, Note_on_c, 15, 69, 90
16, 154199, Note_on_c, 15, 69, 0
16, 154199, Note_on_c, 15, 65, 0
16, 154260, Note_on_c, 15, 67, 90
16, 154260, Note_on_c, 15, 65, 90
16, 154319, Note_on_c, 15, 65, 0
16, 154319, Note_on_c, 15, 67, 0
16, 154380, Note_on_c, 15, 71, 90
16, 154380, Note_on_c, 15, 67, 90
16, 154380, Note_on_c, 15, 64, 90
16, 154439, Note_on_c, 15, 64, 0
16, 154439, Note_on_c, 15, 67, 0
16, 154439, Note_on_c, 15, 71, 0
16, 154500, Note_on_c, 15, 72, 90
16, 154500, Note_on_c, 15, 69, 90
16, 154500, Note_on_c, 15, 64, 90
16, 154559, Note_on_c, 15, 64, 0
16, 154559, Note_on_c, 15, 69, 0
16, 154559, Note_on_c, 15, 72, 0
16, 154620, Note_on_c, 15, 65, 90
16, 154620, Note_on_c, 15, 69, 90
16, 154620, Note_on_c, 15, 71, 90
16, 154679, Note_on_c, 15, 71, 0
16, 154679, Note_on_c, 15, 69, 0
16, 154679, Note_on_c, 15, 65, 0
16, 154740, Note_on_c, 15, 62, 90
16, 154740, Note_on_c, 15, 71, 90
16, 154740, Note_on_c, 15, 68, 90
16, 154799, Note_on_c, 15, 68, 0
16, 154799, Note_on_c, 15, 71, 0
16, 154799, Note_on_c, 15, 62, 0
16, 154860, Note_on_c, 15, 69, 90
16, 154860, Note_on_c, 15, 60, 90
16, 154919, Note_on_c, 15, 60, 0
16, 154919, Note_on_c, 15, 69, 0
16, 154920, Note_on_c, 15, 64, 90
16, 154920, Note_on_c, 15, 69, 90
16, 154979, Note_on_c, 15, 69, 0
16, 154979, Note_on_c, 15, 64, 0
16, 154980, Note_on_c, 15, 69, 90
16, 154980, Note_on_c, 15, 61, 90
16, 155039, Note_on_c, 15, 61, 0
16, 155039, Note_on_c, 15, 69, 0
16, 155040, Note_on_c, 15, 69, 90
16, 155040, Note_on_c, 15, 62, 90
16, 155099, Note_on_c, 15, 62, 0
16, 155099, Note_on_c, 15, 69, 0
16, 155100, Note_on_c, 15, 67, 90
16, 155100, Note_on_c, 15, 62, 90
16, 155159, Note_on_c, 15, 62, 0
16, 155159, Note_on_c, 15, 67, 0
16, 155220, Note_on_c, 15, 67, 90
16, 155220, Note_on_c, 15, 69, 90
16, 155220, Note_on_c, 15, 61, 90
16, 155279, Note_on_c, 15, 61, 0
16, 155279, Note_on_c, 15, 69, 0
16, 155279, Note_on_c, 15, 67, 0
16, 155340, Note_on_c, 15, 62, 90
16, 155340, Note_on_c, 15, 65, 90
16, 155340, Note_on_c, 15, 69, 90
16, 155399, Note_on_c, 15, 69, 0
16, 155399, Note_on_c, 15, 65, 0
16, 155399, Note_on_c, 15, 62, 0
16, 155400, Note_on_c, 15, 62, 90
16, 155400, Note_on_c, 15, 65, 90
16, 155459, Note_on_c, 15, 65, 0
16, 155459, Note_on_c, 15, 62, 0
16, 155460, Note_on_c, 15, 66, 90
16, 155460, Note_on_c, 15, 62, 90
16, 155519, Note_on_c, 15, 62, 0
16, 155519, Note_on_c, 15, 66, 0
16, 155520, Note_on_c, 15, 67, 90
16, 155579, Note_on_c, 15, 67, 0
16, 155580, Note_on_c, 15, 63, 90
16, 155580, Note_on_c, 15, 67, 90
16, 155639, Note_on_c, 15, 67, 0
16, 155639, Note_on_c, 15, 63, 0
16, 155700, Note_on_c, 15, 60, 90
16, 155700, Note_on_c, 15, 66, 90
16, 155759, Note_on_c, 15, 66, 0
16, 155759, Note_on_c, 15, 60, 0
16, 155820, Note_on_c, 15, 62, 90
16, 155820, Note_on_c, 15, 67, 90
16, 155879, Note_on_c, 15, 67, 0
16, 155879, Note_on_c, 15, 62, 0
16, 155880, Note_on_c, 15, 67, 90
16, 155880, Note_on_c, 15, 71, 90
16, 155939, Note_on_c, 15, 71, 0
16, 155939, Note_on_c, 15, 67, 0
16, 155940, Note_on_c, 15, 71, 90
16, 155940, Note_on_c, 15, 67, 90
16, 155999, Note_on_c, 15, 67, 0
16, 155999, Note_on_c, 15, 71, 0
16, 156000, Note_on_c, 15, 67, 90
16, 156000, Note_on_c, 15, 73, 90
16, 156059, Note_on_c, 15, 73, 0
16, 156059, Note_on_c, 15, 67, 0
16, 156060, Note_on_c, 15, 65, 90
16, 156060, Note_on_c, 15, 69, 90
16, 156060, Note_on_c, 15, 74, 90
16, 156180, Note_on_c, 15, 74, 0
16, 156180, Note_on_c, 15, 69, 0
16, 156180, Note_on_c, 15, 65, 0
16, 156180, Note_on_c, 15, 65, 90
16, 156180, Note_on_c, 15, 69, 90
16, 156300, Note_on_c, 15, 69, 0
16, 156300, Note_on_c, 15, 65, 0
16, 156300, Note_on_c, 15, 64, 90
16, 156300, Note_on_c, 15, 69, 90
16, 156300, Note_on_c, 15, 73, 90
16, 156420, Note_on_c, 15, 73, 0
16, 156420, Note_on_c, 15, 69, 0
16, 156420, Note_on_c, 15, 64, 0
16, 156420, Note_on_c, 15, 64, 90
16, 156420, Note_on_c, 15, 69, 90
16, 156420, Note_on_c, 15, 73, 90
16, 156540, Note_on_c, 15, 73, 0
16, 156540, Note_on_c, 15, 69, 0
16, 156540, Note_on_c, 15, 64, 0
16, 156540, Note_on_c, 15, 70, 90
16, 156540, Note_on_c, 15, 69, 90
16, 156660, Note_on_c, 15, 69, 0
16, 156660, Note_on_c, 15, 79, 90
16, 156780, Note_on_c, 15, 70, 0
16, 156780, Note_on_c, 15, 69, 90
16, 156900, Note_on_c, 15, 79, 0
16, 156900, Note_on_c, 15, 77, 90
16, 157020, Note_on_c, 15, 69, 0
16, 157020, Note_on_c, 15, 67, 90
16, 157140, Note_on_c, 15, 77, 0
16, 157140, Note_on_c, 15, 76, 90
16, 157260, Note_on_c, 15, 67, 0
16, 157260, Note_on_c, 15, 65, 90
16, 157380, Note_on_c, 15, 76, 0
16, 157380, Note_on_c, 15, 74, 90
16, 157500, Note_on_c, 15, 65, 0
16, 157500, Note_on_c, 15, 64, 90
16, 157620, Note_on_c, 15, 74, 0
16, 157620, Note_on_c, 15, 73, 90
16, 157740, Note_on_c, 15, 73, 0
16, 157740, Note_on_c, 15, 64, 0
16, 157740, Note_on_c, 15, 69, 90
16, 157740, Note_on_c, 15, 65, 90
16, 157860, Note_on_c, 15, 65, 0
16, 157860, Note_on_c, 15, 69, 0
16, 157860, Note_on_c, 15, 73, 90
16, 157860, Note_on_c, 15, 67, 90
16, 157980, Note_on_c, 15, 67, 0
16, 157980, Note_on_c, 15, 73, 0
16, 157980, Note_on_c, 15, 74, 90
16, 157980, Note_on_c, 15, 65, 90
16, 157980, Note_on_c, 15, 69, 90
16, 158039, Note_on_c, 15, 69, 0
16, 158039, Note_on_c, 15, 65, 0
16, 158039, Note_on_c, 15, 74, 0
16, 174480, Note_on_c, 15, 65, 110
16, 174509, Note_on_c, 15, 65, 0
16, 174510, Note_on_c, 15, 64, 110
16, 174539, Note_on_c, 15, 64, 0
16, 174540, Note_on_c, 15, 65, 110
16, 174599, Note_on_c, 15, 65, 0
16, 174600, Note_on_c, 15, 65, 110
16, 174659, Note_on_c, 15, 65, 0
16, 174660, Note_on_c, 15, 65, 110
16, 174719, Note_on_c, 15, 65, 0
16, 174720, Note_on_c, 15, 60, 110
16, 174779, Note_on_c, 15, 60, 0
16, 174840, Note_on_c, 15, 60, 110
16, 174869, Note_on_c, 15, 60, 0
16, 174870, Note_on_c, 15, 58, 110
16, 174899, Note_on_c, 15, 58, 0
16, 174900, Note_on_c, 15, 60, 110
16, 174959, Note_on_c, 15, 60, 0
16, 174960, Note_on_c, 15, 60, 110
16, 175019, Note_on_c, 15, 60, 0
16, 175020, Note_on_c, 15, 60, 110
16, 175079, Note_on_c, 15, 60, 0
16, 175080, Note_on_c, 15, 57, 110
16, 175139, Note_on_c, 15, 57, 0
16, 175200, Note_on_c, 15, 81, 110
16, 175229, Note_on_c, 15, 81, 0
16, 175230, Note_on_c, 15, 79, 110
16, 175259, Note_on_c, 15, 79, 0
16, 175260, Note_on_c, 15, 81, 110
16, 175319, Note_on_c, 15, 81, 0
16, 175320, Note_on_c, 15, 74, 110
16, 175320, Note_on_c, 15, 77, 110
16, 175349, Note_on_c, 15, 77, 0
16, 175350, Note_on_c, 15, 76, 110
16, 175379, Note_on_c, 15, 76, 0
16, 175379, Note_on_c, 15, 74, 0
16, 175380, Note_on_c, 15, 77, 110
16, 175380, Note_on_c, 15, 74, 110
16, 175439, Note_on_c, 15, 74, 0
16, 175439, Note_on_c, 15, 77, 0
16, 175440, Note_on_c, 15, 79, 110
16, 175469, Note_on_c, 15, 79, 0
16, 175470, Note_on_c, 15, 77, 110
16, 175499, Note_on_c, 15, 77, 0
16, 175500, Note_on_c, 15, 79, 110
16, 175559, Note_on_c, 15, 79, 0
16, 175560, Note_on_c, 15, 76, 110
16, 175619, Note_on_c, 15, 76, 0
16, 175620, Note_on_c, 15, 72, 110
16, 175679, Note_on_c, 15, 72, 0
16, 175680, Note_on_c, 15, 77, 110
16, 175680, Note_on_c, 15, 72, 110
16, 175739, Note_on_c, 15, 72, 0
16, 175739, Note_on_c, 15, 77, 0
16, 175740, Note_on_c, 15, 77, 110
16, 175740, Note_on_c, 15, 69, 110
16, 175859, Note_on_c, 15, 69, 0
16, 175859, Note_on_c, 15, 77, 0
16, 175860, Note_on_c, 15, 72, 110
16, 175860, Note_on_c, 15, 65, 110
16, 176099, Note_on_c, 15, 65, 0
16, 176099, Note_on_c, 15, 72, 0
16, 176100, Note_on_c, 15, 72, 110
16, 176100, Note_on_c, 15, 65, 110
16, 176219, Note_on_c, 15, 65, 0
16, 176220, Note_on_c, 15, 64, 110
16, 176279, Note_on_c, 15, 72, 0
16, 176280, Note_on_c, 15, 70, 110
16, 176339, Note_on_c, 15, 70, 0
16, 176339, Note_on_c, 15, 64, 0
16, 176340, Note_on_c, 15, 69, 110
16, 176340, Note_on_c, 15, 65, 110
16, 176459, Note_on_c, 15, 65, 0
16, 176459, Note_on_c, 15, 69, 0
16, 176460, Note_on_c, 15, 70, 110
16, 176460, Note_on_c, 15, 62, 110
16, 176579, Note_on_c, 15, 62, 0
16, 176580, Note_on_c, 15, 67, 110
16, 176699, Note_on_c, 15, 67, 0
16, 176699, Note_on_c, 15, 70, 0
16, 176700, Note_on_c, 15, 69, 110
16, 176700, Note_on_c, 15, 65, 110
16, 176759, Note_on_c, 15, 69, 0
16, 176760, Note_on_c, 15, 70, 110
16, 176789, Note_on_c, 15, 70, 0
16, 176790, Note_on_c, 15, 72, 110
16, 176819, Note_on_c, 15, 72, 0
16, 176819, Note_on_c, 15, 65, 0
16, 176820, Note_on_c, 15, 72, 110
16, 176820, Note_on_c, 15, 65, 110
16, 176939, Note_on_c, 15, 72, 0
16, 176940, Note_on_c, 15, 70, 110
16, 176999, Note_on_c, 15, 70, 0
16, 177000, Note_on_c, 15, 69, 110
16, 177059, Note_on_c, 15, 69, 0
16, 177060, Note_on_c, 15, 70, 110
16, 177179, Note_on_c, 15, 70, 0
16, 177179, Note_on_c, 15, 65, 0
16, 177180, Note_on_c, 15, 69, 110
16, 177180, Note_on_c, 15, 65, 110
16, 177419, Note_on_c, 15, 65, 0
16, 177419, Note_on_c, 15, 69, 0
16, 177960, Note_on_c, 15, 77, 110
16, 177960, Note_on_c, 15, 72, 110
16, 177989, Note_on_c, 15, 72, 0
16, 177989, Note_on_c, 15, 77, 0
16, 177990, Note_on_c, 15, 76, 110
16, 177990, Note_on_c, 15, 70, 110
16, 178019, Note_on_c, 15, 70, 0
16, 178019, Note_on_c, 15, 76, 0
16, 178020, Note_on_c, 15, 77, 110
16, 178020, Note_on_c, 15, 69, 110
16, 178079, Note_on_c, 15, 69, 0
16, 178079, Note_on_c, 15, 77, 0
16, 178080, Note_on_c, 15, 81, 110
16, 178080, Note_on_c, 15, 72, 110
16, 178109, Note_on_c, 15, 81, 0
16, 178110, Note_on_c, 15, 79, 110
16, 178139, Note_on_c, 15, 79, 0
16, 178139, Note_on_c, 15, 72, 0
16, 178140, Note_on_c, 15, 77, 110
16, 178140, Note_on_c, 15, 81, 110
16, 178199, Note_on_c, 15, 81, 0
16, 178199, Note_on_c, 15, 77, 0
16, 178200, Note_on_c, 15, 77, 110
16, 178200, Note_on_c, 15, 74, 110
16, 178259, Note_on_c, 15, 74, 0
16, 178259, Note_on_c, 15, 77, 0
16, 178260, Note_on_c, 15, 77, 110
16, 178260, Note_on_c, 15, 74, 110
16, 178319, Note_on_c, 15, 74, 0
16, 178319, Note_on_c, 15, 77, 0
16, 178320, Note_on_c, 15, 79, 110
16, 178320, Note_on_c, 15, 76, 110
16, 178349, Note_on_c, 15, 76, 0
16, 178349, Note_on_c, 15, 79, 0
16, 178350, Note_on_c, 15, 77, 110
16, 178350, Note_on_c, 15, 74, 110
16, 178379, Note_on_c, 15, 74, 0
16, 178379, Note_on_c, 15, 77, 0
16, 178380, Note_on_c, 15, 79, 110
16, 178380, Note_on_c, 15, 73, 110
16, 178439, Note_on_c, 15, 79, 0
16, 178440, Note_on_c, 15, 76, 110
16, 178499, Note_on_c, 15, 76, 0
16, 178500, Note_on_c, 15, 76, 110
16, 178559, Note_on_c, 15, 76, 0
16, 178559, Note_on_c, 15, 73, 0
16, 178560, Note_on_c, 15, 77, 110
16, 178560, Note_on_c, 15, 74, 110
16, 178619, Note_on_c, 15, 74, 0
16, 178619, Note_on_c, 15, 77, 0
16, 178620, Note_on_c, 15, 77, 110
16, 178620, Note_on_c, 15, 69, 110
16, 178739, Note_on_c, 15, 69, 0
16, 178739, Note_on_c, 15, 77, 0
16, 178740, Note_on_c, 15, 74, 110
16, 178740, Note_on_c, 15, 67, 110
16, 178979, Note_on_c, 15, 67, 0
16, 178979, Note_on_c, 15, 74, 0
16, 178980, Note_on_c, 15, 72, 110
16, 178980, Note_on_c, 15, 67, 110
16, 179039, Note_on_c, 15, 72, 0
16, 179040, Note_on_c, 15, 70, 110
16, 179099, Note_on_c, 15, 70, 0
16, 179099, Note_on_c, 15, 67, 0
16, 179100, Note_on_c, 15, 69, 110
16, 179100, Note_on_c, 15, 65, 110
16, 179339, Note_on_c, 15, 69, 0
16, 179340, Note_on_c, 15, 74, 110
16, 179399, Note_on_c, 15, 74, 0
16, 179400, Note_on_c, 15, 65, 0
16, 179400, Note_on_c, 15, 72, 110
16, 179400, Note_on_c, 15, 67, 110
16, 179459, Note_on_c, 15, 67, 0
16, 179460, Note_on_c, 15, 67, 110
16, 179579, Note_on_c, 15, 67, 0
16, 179580, Note_on_c, 15, 65, 110
16, 179699, Note_on_c, 15, 65, 0
16, 179700, Note_on_c, 15, 72, 0
16, 179700, Note_on_c, 15, 72, 110
16, 179700, Note_on_c, 15, 64, 110
16, 180059, Note_on_c, 15, 64, 0
16, 180059, Note_on_c, 15, 72, 0
16, 180060, Note_on_c, 15, 72, 110
16, 180119, Note_on_c, 15, 72, 0
16, 180120, Note_on_c, 15, 65, 110
16, 180179, Note_on_c, 15, 65, 0
16, 180240, Note_on_c, 15, 65, 110
16, 180269, Note_on_c, 15, 65, 0
16, 180270, Note_on_c, 15, 64, 110
16, 180299, Note_on_c, 15, 64, 0
16, 180300, Note_on_c, 15, 65, 110
16, 180359, Note_on_c, 15, 65, 0
16, 180360, Note_on_c, 15, 65, 110
16, 180419, Note_on_c, 15, 65, 0
16, 180420, Note_on_c, 15, 65, 110
16, 180479, Note_on_c, 15, 65, 0
16, 180480, Note_on_c, 15, 60, 110
16, 180539, Note_on_c, 15, 60, 0
16, 180600, Note_on_c, 15, 60, 110
16, 180629, Note_on_c, 15, 60, 0
16, 180630, Note_on_c, 15, 58, 110
16, 180659, Note_on_c, 15, 58, 0
16, 180660, Note_on_c, 15, 60, 110
16, 180719, Note_on_c, 15, 60, 0
16, 180720, Note_on_c, 15, 60, 110
16, 180779, Note_on_c, 15, 60, 0
16, 180780, Note_on_c, 15, 60, 110
16, 180839, Note_on_c, 15, 60, 0
16, 180840, Note_on_c, 15, 57, 110
16, 180899, Note_on_c, 15, 57, 0
16, 180960, Note_on_c, 15, 81, 110
16, 180989, Note_on_c, 15, 81, 0
16, 180990, Note_on_c, 15, 79, 110
16, 181019, Note_on_c, 15, 79, 0
16, 181020, Note_on_c, 15, 81, 110
16, 181079, Note_on_c, 15, 81, 0
16, 181080, Note_on_c, 15, 74, 110
16, 181080, Note_on_c, 15, 77, 110
16, 181109, Note_on_c, 15, 77, 0
16, 181110, Note_on_c, 15, 76, 110
16, 181139, Note_on_c, 15, 76, 0
16, 181139, Note_on_c, 15, 74, 0
16, 181140, Note_on_c, 15, 77, 110
16, 181140, Note_on_c, 15, 74, 110
16, 181199, Note_on_c, 15, 74, 0
16, 181199, Note_on_c, 15, 77, 0
16, 181200, Note_on_c, 15, 79, 110
16, 181229, Note_on_c, 15, 79, 0
16, 181230, Note_on_c, 15, 77, 110
16, 181259, Note_on_c, 15, 77, 0
16, 181260, Note_on_c, 15, 79, 110
16, 181319, Note_on_c, 15, 79, 0
16, 181320, Note_on_c, 15, 76, 110
16, 181379, Note_on_c, 15, 76, 0
16, 181380, Note_on_c, 15, 72, 110
16, 181439, Note_on_c, 15, 72, 0
16, 181440, Note_on_c, 15, 77, 110
16, 181440, Note_on_c, 15, 72, 110
16, 181499, Note_on_c, 15, 72, 0
16, 181499, Note_on_c, 15, 77, 0
16, 181500, Note_on_c, 15, 76, 110
16, 181500, Note_on_c, 15, 69, 110
16, 181619, Note_on_c, 15, 69, 0
16, 181619, Note_on_c, 15, 76, 0
16, 181620, Note_on_c, 15, 72, 110
16, 181620, Note_on_c, 15, 65, 110
16, 181859, Note_on_c, 15, 65, 0
16, 181859, Note_on_c, 15, 72, 0
16, 181860, Note_on_c, 15, 72, 110
16, 181860, Note_on_c, 15, 65, 110
16, 181979, Note_on_c, 15, 65, 0
16, 181980, Note_on_c, 15, 64, 110
16, 182039, Note_on_c, 15, 72, 0
16, 182040, Note_on_c, 15, 70, 110
16, 182099, Note_on_c, 15, 70, 0
16, 182099, Note_on_c, 15, 64, 0
16, 182100, Note_on_c, 15, 69, 110
16, 182100, Note_on_c, 15, 65, 110
16, 182219, Note_on_c, 15, 65, 0
16, 182219, Note_on_c, 15, 69, 0
16, 182220, Note_on_c, 15, 70, 110
16, 182220, Note_on_c, 15, 62, 110
16, 182339, Note_on_c, 15, 62, 0
16, 182340, Note_on_c, 15, 67, 110
16, 182459, Note_on_c, 15, 67, 0
16, 182459, Note_on_c, 15, 70, 0
16, 182460, Note_on_c, 15, 69, 110
16, 182460, Note_on_c, 15, 65, 110
16, 182519, Note_on_c, 15, 69, 0
16, 182520, Note_on_c, 15, 70, 110
16, 182549, Note_on_c, 15, 70, 0
16, 182550, Note_on_c, 15, 72, 110
16, 182579, Note_on_c, 15, 72, 0
16, 182579, Note_on_c, 15, 65, 0
16, 182580, Note_on_c, 15, 72, 110
16, 182580, Note_on_c, 15, 65, 110
16, 182699, Note_on_c, 15, 72, 0
16, 182700, Note_on_c, 15, 70, 110
16, 182759, Note_on_c, 15, 70, 0
16, 182760, Note_on_c, 15, 69, 110
16, 182819, Note_on_c, 15, 69, 0
16, 182820, Note_on_c, 15, 70, 110
16, 182939, Note_on_c, 15, 70, 0
16, 182939, Note_on_c, 15, 65, 0
16, 182940, Note_on_c, 15, 69, 110
16, 182940, Note_on_c, 15, 65, 110
16, 183179, Note_on_c, 15, 65, 0
16, 183179, Note_on_c, 15, 69, 0
16, 183180, Note_on_c, 15, 65, 110
16, 183240, Note_on_c, 15, 65, 0
16, 183240, Note_on_c, 15, 65, 110
16, 183300, Note_on_c, 15, 65, 0
16, 183360, Note_on_c, 15, 65, 110
16, 183420, Note_on_c, 15, 65, 0
16, 183420, Note_on_c, 15, 65, 110
16, 183480, Note_on_c, 15, 65, 0
16, 183480, Note_on_c, 15, 65, 110
16, 183540, Note_on_c, 15, 65, 0
16, 183540, Note_on_c, 15, 65, 110
16, 183600, Note_on_c, 15, 65, 0
16, 183600, Note_on_c, 15, 65, 110
16, 183660, Note_on_c, 15, 65, 0
16, 183720, Note_on_c, 15, 77, 110
16, 183720, Note_on_c, 15, 72, 110
16, 183749, Note_on_c, 15, 72, 0
16, 183749, Note_on_c, 15, 77, 0
16, 183750, Note_on_c, 15, 76, 110
16, 183750, Note_on_c, 15, 70, 110
16, 183779, Note_on_c, 15, 70, 0
16, 183779, Note_on_c, 15, 76, 0
16, 183780, Note_on_c, 15, 77, 110
16, 183780, Note_on_c, 15, 69, 110
16, 183839, Note_on_c, 15, 69, 0
16, 183839, Note_on_c, 15, 77, 0
16, 183840, Note_on_c, 15, 81, 110
16, 183840, Note_on_c, 15, 72, 110
16, 183869, Note_on_c, 15, 81, 0
16, 183870, Note_on_c, 15, 79, 110
16, 183899, Note_on_c, 15, 79, 0
16, 183899, Note_on_c, 15, 72, 0
16, 183900, Note_on_c, 15, 77, 110
16, 183900, Note_on_c, 15, 81, 110
16, 183959, Note_on_c, 15, 81, 0
16, 183959, Note_on_c, 15, 77, 0
16, 183960, Note_on_c, 15, 77, 110
16, 183960, Note_on_c, 15, 74, 110
16, 184019, Note_on_c, 15, 74, 0
16, 184019, Note_on_c, 15, 77, 0
16, 184020, Note_on_c, 15, 77, 110
16, 184020, Note_on_c, 15, 74, 110
16, 184079, Note_on_c, 15, 74, 0
16, 184079, Note_on_c, 15, 77, 0
16, 184080, Note_on_c, 15, 79, 110
16, 184080, Note_on_c, 15, 76, 110
16, 184109, Note_on_c, 15, 76, 0
16, 184109, Note_on_c, 15, 79, 0
16, 184110, Note_on_c, 15, 77, 110
16, 184110, Note_on_c, 15, 74, 110
16, 184139, Note_on_c, 15, 74, 0
16, 184139, Note_on_c, 15, 77, 0
16, 184140, Note_on_c, 15, 79, 110
16, 184140, Note_on_c, 15, 73, 110
16, 184199, Note_on_c, 15, 79, 0
16, 184200, Note_on_c, 15, 76, 110
16, 184259, Note_on_c, 15, 76, 0
16, 184260, Note_on_c, 15, 76, 110
16, 184319, Note_on_c, 15, 76, 0
16, 184319, Note_on_c, 15, 73, 0
16, 184320, Note_on_c, 15, 77, 110
16, 184320, Note_on_c, 15, 74, 110
16, 184379, Note_on_c, 15, 74, 0
16, 184379, Note_on_c, 15, 77, 0
16, 184380, Note_on_c, 15, 77, 110
16, 184380, Note_on_c, 15, 69, 110
16, 184499, Note_on_c, 15, 69, 0
16, 184499, Note_on_c, 15, 77, 0
16, 184500, Note_on_c, 15, 74, 110
16, 184500, Note_on_c, 15, 67, 110
16, 184739, Note_on_c, 15, 67, 0
16, 184739, Note_on_c, 15, 74, 0
16, 184740, Note_on_c, 15, 72, 110
16, 184740, Note_on_c, 15, 67, 110
16, 184799, Note_on_c, 15, 72, 0
16, 184800, Note_on_c, 15, 70, 110
16, 184859, Note_on_c, 15, 70, 0
16, 184859, Note_on_c, 15, 67, 0
16, 184860, Note_on_c, 15, 69, 110
16, 184860, Note_on_c, 15, 65, 110
16, 185099, Note_on_c, 15, 69, 0
16, 185100, Note_on_c, 15, 74, 110
16, 185159, Note_on_c, 15, 74, 0
16, 185160, Note_on_c, 15, 65, 0
16, 185160, Note_on_c, 15, 72, 110
16, 185160, Note_on_c, 15, 67, 110
16, 185219, Note_on_c, 15, 67, 0
16, 185220, Note_on_c, 15, 67, 110
16, 185339, Note_on_c, 15, 67, 0
16, 185340, Note_on_c, 15, 65, 110
16, 185459, Note_on_c, 15, 65, 0
16, 185460, Note_on_c, 15, 72, 0
16, 185460, Note_on_c, 15, 72, 110
16, 185460, Note_on_c, 15, 64, 110
16, 185819, Note_on_c, 15, 64, 0
16, 185819, Note_on_c, 15, 72, 0
16, 185820, Note_on_c, 15, 60, 110
16, 185879, Note_on_c, 15, 60, 0
16, 185880, Note_on_c, 15, 65, 110
16, 185939, Note_on_c, 15, 65, 0
16, 186000, Note_on_c, 15, 62, 110
16, 186029, Note_on_c, 15, 62, 0
16, 186030, Note_on_c, 15, 62, 110
16, 186059, Note_on_c, 15, 62, 0
16, 186060, Note_on_c, 15, 62, 110
16, 186119, Note_on_c, 15, 62, 0
16, 186120, Note_on_c, 15, 62, 110
16, 186179, Note_on_c, 15, 62, 0
16, 186180, Note_on_c, 15, 62, 110
16, 186239, Note_on_c, 15, 62, 0
16, 186240, Note_on_c, 15, 67, 110
16, 186299, Note_on_c, 15, 67, 0
16, 186360, Note_on_c, 15, 71, 110
16, 186360, Note_on_c, 15, 67, 110
16, 186389, Note_on_c, 15, 67, 0
16, 186389, Note_on_c, 15, 71, 0
16, 186390, Note_on_c, 15, 69, 110
16, 186390, Note_on_c, 15, 65, 110
16, 186419, Note_on_c, 15, 65, 0
16, 186419, Note_on_c, 15, 69, 0
16, 186420, Note_on_c, 15, 71, 110
16, 186420, Note_on_c, 15, 67, 110
16, 186479, Note_on_c, 15, 67, 0
16, 186479, Note_on_c, 15, 71, 0
16, 186480, Note_on_c, 15, 72, 110
16, 186480, Note_on_c, 15, 67, 110
16, 186539, Note_on_c, 15, 67, 0
16, 186539, Note_on_c, 15, 72, 0
16, 186540, Note_on_c, 15, 72, 110
16, 186540, Note_on_c, 15, 67, 110
16, 186599, Note_on_c, 15, 67, 0
16, 186599, Note_on_c, 15, 72, 0
16, 186600, Note_on_c, 15, 79, 110
16, 186600, Note_on_c, 15, 76, 110
16, 186629, Note_on_c, 15, 76, 0
16, 186629, Note_on_c, 15, 79, 0
16, 186630, Note_on_c, 15, 77, 110
16, 186630, Note_on_c, 15, 74, 110
16, 186659, Note_on_c, 15, 74, 0
16, 186659, Note_on_c, 15, 77, 0
16, 186660, Note_on_c, 15, 79, 110
16, 186660, Note_on_c, 15, 76, 110
16, 186719, Note_on_c, 15, 76, 0
16, 186719, Note_on_c, 15, 79, 0
16, 186720, Note_on_c, 15, 81, 110
16, 186720, Note_on_c, 15, 77, 110
16, 186779, Note_on_c, 15, 77, 0
16, 186779, Note_on_c, 15, 81, 0
16, 186780, Note_on_c, 15, 81, 110
16, 186780, Note_on_c, 15, 77, 110
16, 186839, Note_on_c, 15, 77, 0
16, 186839, Note_on_c, 15, 81, 0
16, 186840, Note_on_c, 15, 77, 110
16, 186840, Note_on_c, 15, 74, 110
16, 186899, Note_on_c, 15, 74, 0
16, 186899, Note_on_c, 15, 77, 0
16, 186900, Note_on_c, 15, 79, 110
16, 186900, Note_on_c, 15, 76, 110
16, 186959, Note_on_c, 15, 76, 0
16, 186959, Note_on_c, 15, 79, 0
16, 186960, Note_on_c, 15, 76, 110
16, 186960, Note_on_c, 15, 72, 110
16, 187019, Note_on_c, 15, 72, 0
16, 187019, Note_on_c, 15, 76, 0
16, 187020, Note_on_c, 15, 76, 110
16, 187020, Note_on_c, 15, 72, 110
16, 187079, Note_on_c, 15, 72, 0
16, 187079, Note_on_c, 15, 76, 0
16, 187080, Note_on_c, 15, 77, 110
16, 187080, Note_on_c, 15, 74, 110
16, 187139, Note_on_c, 15, 74, 0
16, 187139, Note_on_c, 15, 77, 0
16, 187140, Note_on_c, 15, 77, 110
16, 187140, Note_on_c, 15, 74, 110
16, 187199, Note_on_c, 15, 74, 0
16, 187199, Note_on_c, 15, 77, 0
16, 187200, Note_on_c, 15, 74, 110
16, 187200, Note_on_c, 15, 71, 110
16, 187259, Note_on_c, 15, 71, 0
16, 187259, Note_on_c, 15, 74, 0
16, 187260, Note_on_c, 15, 72, 110
16, 187260, Note_on_c, 15, 67, 110
16, 187319, Note_on_c, 15, 67, 0
16, 187320, Note_on_c, 15, 65, 110
16, 187379, Note_on_c, 15, 65, 0
16, 187380, Note_on_c, 15, 67, 110
16, 187499, Note_on_c, 15, 67, 0
16, 187500, Note_on_c, 15, 64, 110
16, 187500, Note_on_c, 15, 67, 110
16, 187619, Note_on_c, 15, 67, 0
16, 187619, Note_on_c, 15, 64, 0
16, 187620, Note_on_c, 15, 67, 110
16, 187739, Note_on_c, 15, 67, 0
16, 187740, Note_on_c, 15, 65, 110
16, 187859, Note_on_c, 15, 65, 0
16, 187860, Note_on_c, 15, 70, 110
16, 187860, Note_on_c, 15, 65, 110
16, 187979, Note_on_c, 15, 65, 0
16, 187980, Note_on_c, 15, 72, 0
16, 187980, Note_on_c, 15, 67, 110
16, 188099, Note_on_c, 15, 67, 0
16, 188099, Note_on_c, 15, 70, 0
16, 188100, Note_on_c, 15, 65, 110
16, 188100, Note_on_c, 15, 69, 110
16, 188219, Note_on_c, 15, 69, 0
16, 188219, Note_on_c, 15, 65, 0
16, 188220, Note_on_c, 15, 62, 110
16, 188220, Note_on_c, 15, 70, 110
16, 188279, Note_on_c, 15, 70, 0
16, 188279, Note_on_c, 15, 62, 0
16, 188280, Note_on_c, 15, 60, 110
16, 188280, Note_on_c, 15, 69, 110
16, 188339, Note_on_c, 15, 69, 0
16, 188339, Note_on_c, 15, 60, 0
16, 188340, Note_on_c, 15, 70, 110
16, 188340, Note_on_c, 15, 67, 110
16, 188399, Note_on_c, 15, 67, 0
16, 188400, Note_on_c, 15, 65, 110
16, 188459, Note_on_c, 15, 65, 0
16, 188459, Note_on_c, 15, 70, 0
16, 188460, Note_on_c, 15, 69, 110
16, 188519, Note_on_c, 15, 69, 0
16, 188520, Note_on_c, 15, 67, 110
16, 188579, Note_on_c, 15, 67, 0
16, 188580, Note_on_c, 15, 69, 110
16, 188640, Note_on_c, 15, 64, 110
16, 188699, Note_on_c, 15, 64, 0
16, 188699, Note_on_c, 15, 69, 0
16, 188700, Note_on_c, 15, 69, 110
16, 188700, Note_on_c, 15, 65, 110
16, 188939, Note_on_c, 15, 65, 0
16, 188939, Note_on_c, 15, 69, 0
16, 189060, Note_on_c, 15, 62, 110
16, 189060, Note_on_c, 15, 74, 110
16, 189119, Note_on_c, 15, 74, 0
16, 189119, Note_on_c, 15, 62, 0
16, 189120, Note_on_c, 15, 74, 110
16, 189120, Note_on_c, 15, 65, 110
16, 189149, Note_on_c, 15, 65, 0
16, 189149, Note_on_c, 15, 74, 0
16, 189150, Note_on_c, 15, 73, 110
16, 189150, Note_on_c, 15, 64, 110
16, 189179, Note_on_c, 15, 64, 0
16, 189179, Note_on_c, 15, 73, 0
16, 189180, Note_on_c, 15, 74, 110
16, 189180, Note_on_c, 15, 65, 110
16, 189239, Note_on_c, 15, 65, 0
16, 189239, Note_on_c, 15, 74, 0
16, 189240, Note_on_c, 15, 76, 110
16, 189240, Note_on_c, 15, 67, 110
16, 189299, Note_on_c, 15, 67, 0
16, 189299, Note_on_c, 15, 76, 0
16, 189300, Note_on_c, 15, 76, 110
16, 189300, Note_on_c, 15, 67, 110
16, 189359, Note_on_c, 15, 67, 0
16, 189359, Note_on_c, 15, 76, 0
16, 189360, Note_on_c, 15, 73, 110
16, 189360, Note_on_c, 15, 64, 110
16, 189419, Note_on_c, 15, 64, 0
16, 189419, Note_on_c, 15, 73, 0
16, 189420, Note_on_c, 15, 74, 110
16, 189420, Note_on_c, 15, 65, 110
16, 189539, Note_on_c, 15, 65, 0
16, 189539, Note_on_c, 15, 74, 0
16, 189600, Note_on_c, 15, 74, 110
16, 189629, Note_on_c, 15, 74, 0
16, 189630, Note_on_c, 15, 72, 110
16, 189659, Note_on_c, 15, 72, 0
16, 189660, Note_on_c, 15, 74, 110
16, 189719, Note_on_c, 15, 74, 0
16, 189720, Note_on_c, 15, 79, 110
16, 189720, Note_on_c, 15, 75, 110
16, 189749, Note_on_c, 15, 75, 0
16, 189750, Note_on_c, 15, 74, 110
16, 189779, Note_on_c, 15, 74, 0
16, 189779, Note_on_c, 15, 79, 0
16, 189780, Note_on_c, 15, 79, 110
16, 189780, Note_on_c, 15, 75, 110
16, 189839, Note_on_c, 15, 79, 0
16, 189840, Note_on_c, 15, 72, 110
16, 189869, Note_on_c, 15, 72, 0
16, 189870, Note_on_c, 15, 70, 110
16, 189899, Note_on_c, 15, 70, 0
16, 189899, Note_on_c, 15, 75, 0
16, 189900, Note_on_c, 15, 72, 110
16, 189959, Note_on_c, 15, 72, 0
16, 189960, Note_on_c, 15, 69, 110
16, 190019, Note_on_c, 15, 69, 0
16, 190020, Note_on_c, 15, 69, 110
16, 190079, Note_on_c, 15, 69, 0
16, 190080, Note_on_c, 15, 70, 110
16, 190080, Note_on_c, 15, 74, 110
16, 190109, Note_on_c, 15, 74, 0
16, 190110, Note_on_c, 15, 72, 110
16, 190139, Note_on_c, 15, 72, 0
16, 190139, Note_on_c, 15, 70, 0
16, 190140, Note_on_c, 15, 70, 110
16, 190140, Note_on_c, 15, 65, 110
16, 190259, Note_on_c, 15, 65, 0
16, 190260, Note_on_c, 15, 67, 110
16, 190319, Note_on_c, 15, 70, 0
16, 190320, Note_on_c, 15, 79, 110
16, 190379, Note_on_c, 15, 79, 0
16, 190379, Note_on_c, 15, 67, 0
16, 190380, Note_on_c, 15, 72, 110
16, 190380, Note_on_c, 15, 69, 110
16, 190499, Note_on_c, 15, 69, 0
16, 190499, Note_on_c, 15, 72, 0
16, 190500, Note_on_c, 15, 72, 110
16, 190500, Note_on_c, 15, 67, 110
16, 190559, Note_on_c, 15, 67, 0
16, 190560, Note_on_c, 15, 65, 110
16, 190619, Note_on_c, 15, 65, 0
16, 190620, Note_on_c, 15, 67, 110
16, 190739, Note_on_c, 15, 67, 0
16, 190739, Note_on_c, 15, 72, 0
16, 190740, Note_on_c, 15, 67, 110
16, 190740, Note_on_c, 15, 64, 110
16, 190859, Note_on_c, 15, 64, 0
16, 190859, Note_on_c, 15, 67, 0
16, 190860, Note_on_c, 15, 65, 110
16, 190860, Note_on_c, 15, 60, 110
16, 190979, Note_on_c, 15, 60, 0
16, 190980, Note_on_c, 15, 58, 110
16, 191099, Note_on_c, 15, 58, 0
16, 191099, Note_on_c, 15, 65, 0
16, 191100, Note_on_c, 15, 62, 110
16, 191100, Note_on_c, 15, 65, 110
16, 191219, Note_on_c, 15, 65, 0
16, 191219, Note_on_c, 15, 62, 0
16, 191220, Note_on_c, 15, 67, 110
16, 191220, Note_on_c, 15, 65, 110
16, 191339, Note_on_c, 15, 65, 0
16, 191339, Note_on_c, 15, 67, 0
16, 191340, Note_on_c, 15, 60, 110
16, 191340, Note_on_c, 15, 64, 110
16, 191399, Note_on_c, 15, 64, 0
16, 191400, Note_on_c, 15, 62, 110
16, 191459, Note_on_c, 15, 62, 0
16, 191459, Note_on_c, 15, 60, 0
16, 191460, Note_on_c, 15, 58, 110
16, 191460, Note_on_c, 15, 64, 110
16, 191579, Note_on_c, 15, 64, 0
16, 191579, Note_on_c, 15, 58, 0
16, 191580, Note_on_c, 15, 57, 110
16, 191580, Note_on_c, 15, 60, 110
16, 191819, Note_on_c, 15, 60, 0
16, 191819, Note_on_c, 15, 57, 0
16, 191940, Note_on_c, 15, 65, 110
16, 191999, Note_on_c, 15, 65, 0
16, 192000, Note_on_c, 15, 60, 110
16, 192059, Note_on_c, 15, 60, 0
16, 192120, Note_on_c, 15, 60, 110
16, 192149, Note_on_c, 15, 60, 0
16, 192150, Note_on_c, 15, 58, 110
16, 192179, Note_on_c, 15, 58, 0
16, 192180, Note_on_c, 15, 60, 110
16, 192239, Note_on_c, 15, 60, 0
16, 192240, Note_on_c, 15, 60, 110
16, 192299, Note_on_c, 15, 60, 0
16, 192300, Note_on_c, 15, 60, 110
16, 192359, Note_on_c, 15, 60, 0
16, 192360, Note_on_c, 15, 57, 110
16, 192419, Note_on_c, 15, 57, 0
16, 192480, Note_on_c, 15, 81, 110
16, 192509, Note_on_c, 15, 81, 0
16, 192510, Note_on_c, 15, 79, 110
16, 192539, Note_on_c, 15, 79, 0
16, 192540, Note_on_c, 15, 81, 110
16, 192599, Note_on_c, 15, 81, 0
16, 192600, Note_on_c, 15, 74, 110
16, 192600, Note_on_c, 15, 77, 110
16, 192629, Note_on_c, 15, 77, 0
16, 192630, Note_on_c, 15, 76, 110
16, 192659, Note_on_c, 15, 76, 0
16, 192659, Note_on_c, 15, 74, 0
16, 192660, Note_on_c, 15, 74, 110
16, 192660, Note_on_c, 15, 77, 110
16, 192719, Note_on_c, 15, 74, 0
16, 192720, Note_on_c, 15, 79, 110
16, 192749, Note_on_c, 15, 79, 0
16, 192750, Note_on_c, 15, 77, 110
16, 192779, Note_on_c, 15, 77, 0
16, 192779, Note_on_c, 15, 77, 0
16, 192780, Note_on_c, 15, 79, 110
16, 192839, Note_on_c, 15, 79, 0
16, 192840, Note_on_c, 15, 76, 110
16, 192899, Note_on_c, 15, 76, 0
16, 192900, Note_on_c, 15, 76, 110
16, 192959, Note_on_c, 15, 76, 0
16, 192960, Note_on_c, 15, 69, 110
16, 192960, Note_on_c, 15, 77, 110
16, 192960, Note_on_c, 15, 72, 110
16, 193019, Note_on_c, 15, 72, 0
16, 193019, Note_on_c, 15, 77, 0
16, 193020, Note_on_c, 15, 69, 0
16, 193020, Note_on_c, 15, 69, 110
16, 193020, Note_on_c, 15, 77, 110
16, 193020, Note_on_c, 15, 72, 110
16, 193139, Note_on_c, 15, 72, 0
16, 193139, Note_on_c, 15, 77, 0
16, 193140, Note_on_c, 15, 69, 0
16, 193140, End_track
17, 0, Start_track
17, 0, MIDI_port, 0
17, 0, Title_t, "Organ/Clave L"
17, 0, Program_c, 15, 20
17, 0, Control_c, 15, 7, 127
17, 0, Control_c, 15, 10, 70
17, 0, Note_on_c, 15, 53, 90
17, 359, Note_on_c, 15, 53, 0
17, 360, Note_on_c, 15, 51, 90
17, 419, Note_on_c, 15, 51, 0
17, 420, Note_on_c, 15, 50, 90
17, 479, Note_on_c, 15, 50, 0
17, 480, Note_on_c, 15, 48, 90
17, 539, Note_on_c, 15, 48, 0
17, 540, Note_on_c, 15, 46, 90
17, 570, Note_on_c, 15, 46, 0
17, 600, Note_on_c, 15, 53, 90
17, 630, Note_on_c, 15, 53, 0
17, 720, Note_on_c, 15, 58, 90
17, 749, Note_on_c, 15, 58, 0
17, 750, Note_on_c, 15, 60, 90
17, 779, Note_on_c, 15, 60, 0
17, 780, Note_on_c, 15, 58, 90
17, 809, Note_on_c, 15, 58, 0
17, 810, Note_on_c, 15, 57, 90
17, 839, Note_on_c, 15, 57, 0
17, 840, Note_on_c, 15, 58, 90
17, 869, Note_on_c, 15, 58, 0
17, 870, Note_on_c, 15, 55, 90
17, 899, Note_on_c, 15, 55, 0
17, 900, Note_on_c, 15, 57, 90
17, 1019, Note_on_c, 15, 57, 0
17, 1020, Note_on_c, 15, 52, 90
17, 1079, Note_on_c, 15, 52, 0
17, 1080, Note_on_c, 15, 53, 90
17, 1139, Note_on_c, 15, 53, 0
17, 1140, Note_on_c, 15, 46, 90
17, 1199, Note_on_c, 15, 46, 0
17, 1200, Note_on_c, 15, 43, 90
17, 1259, Note_on_c, 15, 43, 0
17, 1260, Note_on_c, 15, 48, 90
17, 1439, Note_on_c, 15, 48, 0
17, 1500, Note_on_c, 15, 46, 90
17, 1530, Note_on_c, 15, 46, 0
17, 1560, Note_on_c, 15, 45, 90
17, 1590, Note_on_c, 15, 45, 0
17, 1680, Note_on_c, 15, 40, 90
17, 1710, Note_on_c, 15, 40, 0
17, 1740, Note_on_c, 15, 41, 90
17, 1770, Note_on_c, 15, 41, 0
17, 1800, Note_on_c, 15, 58, 90
17, 1859, Note_on_c, 15, 58, 0
17, 1860, Note_on_c, 15, 57, 90
17, 1919, Note_on_c, 15, 57, 0
17, 1920, Note_on_c, 15, 55, 90
17, 1979, Note_on_c, 15, 55, 0
17, 1980, Note_on_c, 15, 53, 90
17, 2010, Note_on_c, 15, 53, 0
17, 2040, Note_on_c, 15, 48, 90
17, 2070, Note_on_c, 15, 48, 0
17, 2100, Note_on_c, 15, 41, 90
17, 2130, Note_on_c, 15, 41, 0
17, 2220, Note_on_c, 15, 51, 90
17, 2250, Note_on_c, 15, 51, 0
17, 2280, Note_on_c, 15, 50, 90
17, 2310, Note_on_c, 15, 50, 0
17, 2400, Note_on_c, 15, 45, 90
17, 2430, Note_on_c, 15, 45, 0
17, 2460, Note_on_c, 15, 46, 90
17, 2490, Note_on_c, 15, 46, 0
17, 2520, Note_on_c, 15, 60, 90
17, 2579, Note_on_c, 15, 60, 0
17, 2580, Note_on_c, 15, 58, 90
17, 2639, Note_on_c, 15, 58, 0
17, 2640, Note_on_c, 15, 57, 90
17, 2699, Note_on_c, 15, 57, 0
17, 2700, Note_on_c, 15, 55, 90
17, 2730, Note_on_c, 15, 55, 0
17, 2760, Note_on_c, 15, 50, 90
17, 2790, Note_on_c, 15, 50, 0
17, 2820, Note_on_c, 15, 43, 90
17, 2850, Note_on_c, 15, 43, 0
17, 2880, Note_on_c, 15, 55, 90
17, 2910, Note_on_c, 15, 55, 0
17, 2940, Note_on_c, 15, 53, 90
17, 2970, Note_on_c, 15, 53, 0
17, 3060, Note_on_c, 15, 52, 90
17, 3089, Note_on_c, 15, 52, 0
17, 3090, Note_on_c, 15, 50, 90
17, 3119, Note_on_c, 15, 50, 0
17, 3120, Note_on_c, 15, 52, 90
17, 3179, Note_on_c, 15, 52, 0
17, 3180, Note_on_c, 15, 48, 90
17, 3239, Note_on_c, 15, 48, 0
17, 3240, Note_on_c, 15, 53, 90
17, 3270, Note_on_c, 15, 53, 0
17, 3300, Note_on_c, 15, 52, 90
17, 3330, Note_on_c, 15, 52, 0
17, 3420, Note_on_c, 15, 50, 90
17, 3449, Note_on_c, 15, 50, 0
17, 3450, Note_on_c, 15, 48, 90
17, 3479, Note_on_c, 15, 48, 0
17, 3480, Note_on_c, 15, 50, 90
17, 3538, Note_on_c, 15, 50, 0
17, 3540, Note_on_c, 15, 46, 90
17, 3599, Note_on_c, 15, 46, 0
17, 3600, Note_on_c, 15, 40, 90
17, 3659, Note_on_c, 15, 40, 0
17, 3660, Note_on_c, 15, 52, 90
17, 3689, Note_on_c, 15, 52, 0
17, 3690, Note_on_c, 15, 50, 90
17, 3719, Note_on_c, 15, 50, 0
17, 3720, Note_on_c, 15, 52, 90
17, 3749, Note_on_c, 15, 52, 0
17, 3750, Note_on_c, 15, 48, 90
17, 3779, Note_on_c, 15, 48, 0
17, 3780, Note_on_c, 15, 53, 90
17, 3839, Note_on_c, 15, 53, 0
17, 3840, Note_on_c, 15, 41, 90
17, 3869, Note_on_c, 15, 41, 0
17, 3870, Note_on_c, 15, 40, 90
17, 3899, Note_on_c, 15, 40, 0
17, 3900, Note_on_c, 15, 41, 90
17, 3929, Note_on_c, 15, 41, 0
17, 3930, Note_on_c, 15, 43, 90
17, 3959, Note_on_c, 15, 43, 0
17, 3960, Note_on_c, 15, 45, 90
17, 4019, Note_on_c, 15, 45, 0
17, 4020, Note_on_c, 15, 46, 90
17, 4079, Note_on_c, 15, 46, 0
17, 4080, Note_on_c, 15, 48, 90
17, 4139, Note_on_c, 15, 48, 0
17, 4140, Note_on_c, 15, 41, 90
17, 4199, Note_on_c, 15, 41, 0
17, 4200, Note_on_c, 15, 45, 90
17, 4259, Note_on_c, 15, 45, 0
17, 4260, Note_on_c, 15, 48, 90
17, 4319, Note_on_c, 15, 48, 0
17, 4320, Note_on_c, 15, 53, 90
17, 4679, Note_on_c, 15, 53, 0
17, 4680, Note_on_c, 15, 51, 90
17, 4739, Note_on_c, 15, 51, 0
17, 4740, Note_on_c, 15, 50, 90
17, 4799, Note_on_c, 15, 50, 0
17, 4800, Note_on_c, 15, 48, 90
17, 4859, Note_on_c, 15, 48, 0
17, 4860, Note_on_c, 15, 46, 90
17, 4890, Note_on_c, 15, 46, 0
17, 4920, Note_on_c, 15, 53, 90
17, 4950, Note_on_c, 15, 53, 0
17, 5040, Note_on_c, 15, 45, 90
17, 5099, Note_on_c, 15, 45, 0
17, 5160, Note_on_c, 15, 41, 90
17, 5219, Note_on_c, 15, 41, 0
17, 5220, Note_on_c, 15, 46, 90
17, 5279, Note_on_c, 15, 46, 0
17, 5340, Note_on_c, 15, 48, 90
17, 5399, Note_on_c, 15, 48, 0
17, 5400, Note_on_c, 15, 50, 90
17, 5459, Note_on_c, 15, 50, 0
17, 5520, Note_on_c, 15, 46, 90
17, 5579, Note_on_c, 15, 46, 0
17, 5580, Note_on_c, 15, 53, 90
17, 5639, Note_on_c, 15, 53, 0
17, 5760, Note_on_c, 15, 41, 90
17, 5819, Note_on_c, 15, 41, 0
17, 5940, Note_on_c, 15, 53, 90
17, 5999, Note_on_c, 15, 53, 0
17, 6120, Note_on_c, 15, 41, 90
17, 6179, Note_on_c, 15, 41, 0
17, 6300, Note_on_c, 15, 53, 90
17, 6359, Note_on_c, 15, 53, 0
17, 6480, Note_on_c, 15, 41, 90
17, 6839, Note_on_c, 15, 41, 0
17, 6840, Note_on_c, 15, 51, 90
17, 6899, Note_on_c, 15, 51, 0
17, 6900, Note_on_c, 15, 50, 90
17, 6959, Note_on_c, 15, 50, 0
17, 6960, Note_on_c, 15, 48, 90
17, 7019, Note_on_c, 15, 48, 0
17, 7020, Note_on_c, 15, 46, 90
17, 7050, Note_on_c, 15, 46, 0
17, 7080, Note_on_c, 15, 53, 90
17, 7110, Note_on_c, 15, 53, 0
17, 7200, Note_on_c, 15, 58, 90
17, 7229, Note_on_c, 15, 58, 0
17, 7230, Note_on_c, 15, 60, 90
17, 7259, Note_on_c, 15, 60, 0
17, 7260, Note_on_c, 15, 58, 90
17, 7289, Note_on_c, 15, 58, 0
17, 7290, Note_on_c, 15, 57, 90
17, 7319, Note_on_c, 15, 57, 0
17, 7320, Note_on_c, 15, 58, 90
17, 7349, Note_on_c, 15, 58, 0
17, 7350, Note_on_c, 15, 55, 90
17, 7379, Note_on_c, 15, 55, 0
17, 7380, Note_on_c, 15, 57, 90
17, 7499, Note_on_c, 15, 57, 0
17, 7500, Note_on_c, 15, 52, 90
17, 7559, Note_on_c, 15, 52, 0
17, 7560, Note_on_c, 15, 53, 90
17, 7619, Note_on_c, 15, 53, 0
17, 7620, Note_on_c, 15, 46, 90
17, 7679, Note_on_c, 15, 46, 0
17, 7680, Note_on_c, 15, 43, 90
17, 7739, Note_on_c, 15, 43, 0
17, 7740, Note_on_c, 15, 48, 90
17, 7799, Note_on_c, 15, 48, 0
17, 7800, Note_on_c, 15, 43, 90
17, 7859, Note_on_c, 15, 43, 0
17, 7860, Note_on_c, 15, 36, 90
17, 7919, Note_on_c, 15, 36, 0
17, 7980, Note_on_c, 15, 46, 90
17, 8010, Note_on_c, 15, 46, 0
17, 8040, Note_on_c, 15, 45, 90
17, 8070, Note_on_c, 15, 45, 0
17, 8160, Note_on_c, 15, 48, 90
17, 8190, Note_on_c, 15, 48, 0
17, 8220, Note_on_c, 15, 53, 90
17, 8250, Note_on_c, 15, 53, 0
17, 8280, Note_on_c, 15, 58, 90
17, 8339, Note_on_c, 15, 58, 0
17, 8340, Note_on_c, 15, 57, 90
17, 8399, Note_on_c, 15, 57, 0
17, 8400, Note_on_c, 15, 55, 90
17, 8459, Note_on_c, 15, 55, 0
17, 8460, Note_on_c, 15, 53, 90
17, 8490, Note_on_c, 15, 53, 0
17, 8520, Note_on_c, 15, 48, 90
17, 8550, Note_on_c, 15, 48, 0
17, 8580, Note_on_c, 15, 41, 90
17, 8610, Note_on_c, 15, 41, 0
17, 8700, Note_on_c, 15, 51, 90
17, 8730, Note_on_c, 15, 51, 0
17, 8760, Note_on_c, 15, 50, 90
17, 8790, Note_on_c, 15, 50, 0
17, 8880, Note_on_c, 15, 53, 90
17, 8910, Note_on_c, 15, 53, 0
17, 8940, Note_on_c, 15, 46, 90
17, 8970, Note_on_c, 15, 46, 0
17, 9000, Note_on_c, 15, 51, 90
17, 9059, Note_on_c, 15, 51, 0
17, 9060, Note_on_c, 15, 50, 90
17, 9119, Note_on_c, 15, 50, 0
17, 9120, Note_on_c, 15, 48, 90
17, 9179, Note_on_c, 15, 48, 0
17, 9180, Note_on_c, 15, 46, 90
17, 9210, Note_on_c, 15, 46, 0
17, 9240, Note_on_c, 15, 53, 90
17, 9270, Note_on_c, 15, 53, 0
17, 9300, Note_on_c, 15, 58, 90
17, 9330, Note_on_c, 15, 58, 0
17, 9360, Note_on_c, 15, 46, 90
17, 9390, Note_on_c, 15, 46, 0
17, 9420, Note_on_c, 15, 45, 90
17, 9450, Note_on_c, 15, 45, 0
17, 9540, Note_on_c, 15, 43, 90
17, 9569, Note_on_c, 15, 43, 0
17, 9570, Note_on_c, 15, 41, 90
17, 9599, Note_on_c, 15, 41, 0
17, 9600, Note_on_c, 15, 43, 90
17, 9659, Note_on_c, 15, 43, 0
17, 9660, Note_on_c, 15, 40, 90
17, 9719, Note_on_c, 15, 40, 0
17, 9720, Note_on_c, 15, 45, 90
17, 9750, Note_on_c, 15, 45, 0
17, 9780, Note_on_c, 15, 43, 90
17, 9810, Note_on_c, 15, 43, 0
17, 9900, Note_on_c, 15, 42, 90
17, 9929, Note_on_c, 15, 42, 0
17, 9930, Note_on_c, 15, 40, 90
17, 9959, Note_on_c, 15, 40, 0
17, 9960, Note_on_c, 15, 42, 90
17, 10019, Note_on_c, 15, 42, 0
17, 10020, Note_on_c, 15, 38, 90
17, 10079, Note_on_c, 15, 38, 0
17, 10080, Note_on_c, 15, 43, 90
17, 10110, Note_on_c, 15, 43, 0
17, 10140, Note_on_c, 15, 41, 90
17, 10170, Note_on_c, 15, 41, 0
17, 10260, Note_on_c, 15, 40, 90
17, 10289, Note_on_c, 15, 40, 0
17, 10290, Note_on_c, 15, 38, 90
17, 10319, Note_on_c, 15, 38, 0
17, 10320, Note_on_c, 15, 40, 90
17, 10379, Note_on_c, 15, 40, 0
17, 10380, Note_on_c, 15, 36, 90
17, 10439, Note_on_c, 15, 36, 0
17, 10440, Note_on_c, 15, 41, 90
17, 10499, Note_on_c, 15, 41, 0
17, 10500, Note_on_c, 15, 38, 90
17, 10559, Note_on_c, 15, 38, 0
17, 10560, Note_on_c, 15, 36, 90
17, 10619, Note_on_c, 15, 36, 0
17, 10620, Note_on_c, 15, 43, 90
17, 10679, Note_on_c, 15, 43, 0
17, 10680, Note_on_c, 15, 45, 90
17, 10739, Note_on_c, 15, 45, 0
17, 10740, Note_on_c, 15, 47, 90
17, 10799, Note_on_c, 15, 47, 0
17, 10800, Note_on_c, 15, 48, 90
17, 10859, Note_on_c, 15, 48, 0
17, 10860, Note_on_c, 15, 60, 90
17, 10919, Note_on_c, 15, 60, 0
17, 10920, Note_on_c, 15, 57, 90
17, 10979, Note_on_c, 15, 57, 0
17, 10980, Note_on_c, 15, 53, 90
17, 11039, Note_on_c, 15, 53, 0
17, 11040, Note_on_c, 15, 50, 90
17, 11099, Note_on_c, 15, 50, 0
17, 11100, Note_on_c, 15, 52, 90
17, 11159, Note_on_c, 15, 52, 0
17, 11160, Note_on_c, 15, 48, 90
17, 11219, Note_on_c, 15, 48, 0
17, 11220, Note_on_c, 15, 50, 90
17, 11279, Note_on_c, 15, 50, 0
17, 11280, Note_on_c, 15, 52, 90
17, 11339, Note_on_c, 15, 52, 0
17, 11340, Note_on_c, 15, 53, 90
17, 11370, Note_on_c, 15, 53, 0
17, 11400, Note_on_c, 15, 48, 90
17, 11430, Note_on_c, 15, 48, 0
17, 11520, Note_on_c, 15, 60, 90
17, 11579, Note_on_c, 15, 60, 0
17, 11640, Note_on_c, 15, 52, 90
17, 11699, Note_on_c, 15, 52, 0
17, 11700, Note_on_c, 15, 53, 90
17, 11759, Note_on_c, 15, 53, 0
17, 11820, Note_on_c, 15, 55, 90
17, 11879, Note_on_c, 15, 55, 0
17, 11880, Note_on_c, 15, 57, 90
17, 11939, Note_on_c, 15, 57, 0
17, 12000, Note_on_c, 15, 53, 90
17, 12059, Note_on_c, 15, 53, 0
17, 12060, Note_on_c, 15, 60, 90
17, 12119, Note_on_c, 15, 60, 0
17, 12240, Note_on_c, 15, 48, 90
17, 12299, Note_on_c, 15, 48, 0
17, 12420, Note_on_c, 15, 60, 90
17, 12479, Note_on_c, 15, 60, 0
17, 12600, Note_on_c, 15, 48, 90
17, 12659, Note_on_c, 15, 48, 0
17, 12780, Note_on_c, 15, 60, 90
17, 12839, Note_on_c, 15, 60, 0
17, 12960, Note_on_c, 15, 48, 90
17, 13079, Note_on_c, 15, 48, 0
17, 13080, Note_on_c, 15, 53, 90
17, 13139, Note_on_c, 15, 53, 0
17, 13140, Note_on_c, 15, 55, 90
17, 13259, Note_on_c, 15, 55, 0
17, 13260, Note_on_c, 15, 57, 90
17, 13319, Note_on_c, 15, 57, 0
17, 13320, Note_on_c, 15, 46, 90
17, 13379, Note_on_c, 15, 46, 0
17, 13380, Note_on_c, 15, 45, 90
17, 13439, Note_on_c, 15, 45, 0
17, 13440, Note_on_c, 15, 43, 90
17, 13499, Note_on_c, 15, 43, 0
17, 13500, Note_on_c, 15, 41, 90
17, 13530, Note_on_c, 15, 41, 0
17, 13560, Note_on_c, 15, 48, 90
17, 13590, Note_on_c, 15, 48, 0
17, 13680, Note_on_c, 15, 53, 90
17, 13739, Note_on_c, 15, 53, 0
17, 13740, Note_on_c, 15, 41, 90
17, 13799, Note_on_c, 15, 41, 0
17, 13800, Note_on_c, 15, 53, 90
17, 13919, Note_on_c, 15, 53, 0
17, 13920, Note_on_c, 15, 52, 90
17, 13979, Note_on_c, 15, 52, 0
17, 13980, Note_on_c, 15, 57, 90
17, 14039, Note_on_c, 15, 57, 0
17, 14040, Note_on_c, 15, 55, 90
17, 14099, Note_on_c, 15, 55, 0
17, 14100, Note_on_c, 15, 53, 90
17, 14159, Note_on_c, 15, 53, 0
17, 14160, Note_on_c, 15, 55, 90
17, 14219, Note_on_c, 15, 55, 0
17, 14220, Note_on_c, 15, 48, 90
17, 14249, Note_on_c, 15, 48, 0
17, 14250, Note_on_c, 15, 47, 90
17, 14279, Note_on_c, 15, 47, 0
17, 14280, Note_on_c, 15, 48, 90
17, 14309, Note_on_c, 15, 48, 0
17, 14310, Note_on_c, 15, 50, 90
17, 14339, Note_on_c, 15, 50, 0
17, 14340, Note_on_c, 15, 52, 90
17, 14369, Note_on_c, 15, 52, 0
17, 14370, Note_on_c, 15, 53, 90
17, 14399, Note_on_c, 15, 53, 0
17, 14400, Note_on_c, 15, 55, 90
17, 14459, Note_on_c, 15, 55, 0
17, 14460, Note_on_c, 15, 41, 90
17, 14490, Note_on_c, 15, 41, 0
17, 14520, Note_on_c, 15, 40, 90
17, 14550, Note_on_c, 15, 40, 0
17, 14640, Note_on_c, 15, 47, 90
17, 14670, Note_on_c, 15, 47, 0
17, 14700, Note_on_c, 15, 48, 90
17, 14730, Note_on_c, 15, 48, 0
17, 14760, Note_on_c, 15, 53, 90
17, 14819, Note_on_c, 15, 53, 0
17, 14820, Note_on_c, 15, 52, 90
17, 14879, Note_on_c, 15, 52, 0
17, 14880, Note_on_c, 15, 50, 90
17, 14939, Note_on_c, 15, 50, 0
17, 14940, Note_on_c, 15, 48, 90
17, 14970, Note_on_c, 15, 48, 0
17, 15000, Note_on_c, 15, 43, 90
17, 15030, Note_on_c, 15, 43, 0
17, 15060, Note_on_c, 15, 36, 90
17, 15090, Note_on_c, 15, 36, 0
17, 15180, Note_on_c, 15, 58, 90
17, 15210, Note_on_c, 15, 58, 0
17, 15240, Note_on_c, 15, 57, 90
17, 15270, Note_on_c, 15, 57, 0
17, 15360, Note_on_c, 15, 52, 90
17, 15390, Note_on_c, 15, 52, 0
17, 15420, Note_on_c, 15, 53, 90
17, 15450, Note_on_c, 15, 53, 0
17, 15480, Note_on_c, 15, 55, 90
17, 15539, Note_on_c, 15, 55, 0
17, 15540, Note_on_c, 15, 53, 90
17, 15599, Note_on_c, 15, 53, 0
17, 15600, Note_on_c, 15, 52, 90
17, 15659, Note_on_c, 15, 52, 0
17, 15660, Note_on_c, 15, 50, 90
17, 15690, Note_on_c, 15, 50, 0
17, 15720, Note_on_c, 15, 45, 90
17, 15750, Note_on_c, 15, 45, 0
17, 15780, Note_on_c, 15, 38, 90
17, 15810, Note_on_c, 15, 38, 0
17, 15840, Note_on_c, 15, 50, 90
17, 15870, Note_on_c, 15, 50, 0
17, 15900, Note_on_c, 15, 48, 90
17, 15930, Note_on_c, 15, 48, 0
17, 16020, Note_on_c, 15, 47, 90
17, 16049, Note_on_c, 15, 47, 0
17, 16050, Note_on_c, 15, 45, 90
17, 16079, Note_on_c, 15, 45, 0
17, 16080, Note_on_c, 15, 47, 90
17, 16139, Note_on_c, 15, 47, 0
17, 16140, Note_on_c, 15, 43, 90
17, 16199, Note_on_c, 15, 43, 0
17, 16200, Note_on_c, 15, 48, 90
17, 16230, Note_on_c, 15, 48, 0
17, 16260, Note_on_c, 15, 47, 90
17, 16290, Note_on_c, 15, 47, 0
17, 16380, Note_on_c, 15, 45, 90
17, 16409, Note_on_c, 15, 45, 0
17, 16410, Note_on_c, 15, 43, 90
17, 16439, Note_on_c, 15, 43, 0
17, 16440, Note_on_c, 15, 45, 90
17, 16499, Note_on_c, 15, 45, 0
17, 16500, Note_on_c, 15, 41, 90
17, 16559, Note_on_c, 15, 41, 0
17, 16560, Note_on_c, 15, 47, 90
17, 16619, Note_on_c, 15, 47, 0
17, 16620, Note_on_c, 15, 59, 90
17, 16649, Note_on_c, 15, 59, 0
17, 16650, Note_on_c, 15, 57, 90
17, 16679, Note_on_c, 15, 57, 0
17, 16680, Note_on_c, 15, 59, 90
17, 16709, Note_on_c, 15, 59, 0
17, 16710, Note_on_c, 15, 55, 90
17, 16739, Note_on_c, 15, 55, 0
17, 16740, Note_on_c, 15, 60, 90
17, 16799, Note_on_c, 15, 60, 0
17, 16800, Note_on_c, 15, 48, 90
17, 16829, Note_on_c, 15, 48, 0
17, 16830, Note_on_c, 15, 47, 90
17, 16859, Note_on_c, 15, 47, 0
17, 16860, Note_on_c, 15, 48, 90
17, 16889, Note_on_c, 15, 48, 0
17, 16890, Note_on_c, 15, 50, 90
17, 16919, Note_on_c, 15, 50, 0
17, 16920, Note_on_c, 15, 52, 90
17, 16979, Note_on_c, 15, 52, 0
17, 16980, Note_on_c, 15, 53, 90
17, 17039, Note_on_c, 15, 53, 0
17, 17040, Note_on_c, 15, 55, 90
17, 17099, Note_on_c, 15, 55, 0
17, 17100, Note_on_c, 15, 48, 90
17, 17129, Note_on_c, 15, 48, 0
17, 17130, Note_on_c, 15, 52, 90
17, 17159, Note_on_c, 15, 52, 0
17, 17160, Note_on_c, 15, 53, 90
17, 17189, Note_on_c, 15, 53, 0
17, 17190, Note_on_c, 15, 55, 90
17, 17219, Note_on_c, 15, 55, 0
17, 17220, Note_on_c, 15, 57, 90
17, 17249, Note_on_c, 15, 57, 0
17, 17250, Note_on_c, 15, 59, 90
17, 17279, Note_on_c, 15, 59, 0
17, 17280, Note_on_c, 15, 60, 90
17, 17339, Note_on_c, 15, 60, 0
17, 17340, Note_on_c, 15, 58, 90
17, 17399, Note_on_c, 15, 58, 0
17, 17400, Note_on_c, 15, 57, 90
17, 17459, Note_on_c, 15, 57, 0
17, 17460, Note_on_c, 15, 58, 90
17, 17519, Note_on_c, 15, 58, 0
17, 17520, Note_on_c, 15, 57, 90
17, 17579, Note_on_c, 15, 57, 0
17, 17580, Note_on_c, 15, 55, 90
17, 17639, Note_on_c, 15, 55, 0
17, 17640, Note_on_c, 15, 57, 90
17, 17699, Note_on_c, 15, 57, 0
17, 17700, Note_on_c, 15, 55, 90
17, 17759, Note_on_c, 15, 55, 0
17, 17760, Note_on_c, 15, 54, 90
17, 17819, Note_on_c, 15, 54, 0
17, 17820, Note_on_c, 15, 55, 90
17, 17879, Note_on_c, 15, 55, 0
17, 17880, Note_on_c, 15, 53, 90
17, 17939, Note_on_c, 15, 53, 0
17, 17940, Note_on_c, 15, 52, 90
17, 17999, Note_on_c, 15, 52, 0
17, 18000, Note_on_c, 15, 53, 90
17, 18059, Note_on_c, 15, 53, 0
17, 18060, Note_on_c, 15, 55, 90
17, 18119, Note_on_c, 15, 55, 0
17, 18120, Note_on_c, 15, 57, 90
17, 18179, Note_on_c, 15, 57, 0
17, 18180, Note_on_c, 15, 58, 90
17, 18299, Note_on_c, 15, 58, 0
17, 18300, Note_on_c, 15, 57, 90
17, 18359, Note_on_c, 15, 57, 0
17, 18360, Note_on_c, 15, 55, 90
17, 18419, Note_on_c, 15, 55, 0
17, 18420, Note_on_c, 15, 52, 90
17, 18479, Note_on_c, 15, 52, 0
17, 18480, Note_on_c, 15, 55, 90
17, 18539, Note_on_c, 15, 55, 0
17, 18540, Note_on_c, 15, 57, 90
17, 18659, Note_on_c, 15, 57, 0
17, 18660, Note_on_c, 15, 55, 90
17, 18719, Note_on_c, 15, 55, 0
17, 18720, Note_on_c, 15, 53, 90
17, 18767, Note_on_c, 15, 53, 0
17, 18780, Note_on_c, 15, 50, 90
17, 18827, Note_on_c, 15, 50, 0
17, 18840, Note_on_c, 15, 57, 90
17, 18887, Note_on_c, 15, 57, 0
17, 18900, Note_on_c, 15, 53, 90
17, 18947, Note_on_c, 15, 53, 0
17, 18960, Note_on_c, 15, 50, 90
17, 19007, Note_on_c, 15, 50, 0
17, 19020, Note_on_c, 15, 53, 90
17, 19067, Note_on_c, 15, 53, 0
17, 19080, Note_on_c, 15, 55, 90
17, 19127, Note_on_c, 15, 55, 0
17, 19140, Note_on_c, 15, 43, 90
17, 19199, Note_on_c, 15, 43, 0
17, 19200, Note_on_c, 15, 42, 90
17, 19259, Note_on_c, 15, 42, 0
17, 19260, Note_on_c, 15, 43, 90
17, 19307, Note_on_c, 15, 43, 0
17, 19320, Note_on_c, 15, 55, 90
17, 19379, Note_on_c, 15, 55, 0
17, 19380, Note_on_c, 15, 53, 90
17, 19439, Note_on_c, 15, 53, 0
17, 19440, Note_on_c, 15, 52, 90
17, 19487, Note_on_c, 15, 52, 0
17, 19500, Note_on_c, 15, 48, 90
17, 19547, Note_on_c, 15, 48, 0
17, 19560, Note_on_c, 15, 55, 90
17, 19607, Note_on_c, 15, 55, 0
17, 19620, Note_on_c, 15, 52, 90
17, 19667, Note_on_c, 15, 52, 0
17, 19680, Note_on_c, 15, 48, 90
17, 19727, Note_on_c, 15, 48, 0
17, 19740, Note_on_c, 15, 52, 90
17, 19787, Note_on_c, 15, 52, 0
17, 19800, Note_on_c, 15, 53, 90
17, 19847, Note_on_c, 15, 53, 0
17, 19860, Note_on_c, 15, 41, 90
17, 19919, Note_on_c, 15, 41, 0
17, 19920, Note_on_c, 15, 40, 90
17, 19979, Note_on_c, 15, 40, 0
17, 19980, Note_on_c, 15, 41, 90
17, 20027, Note_on_c, 15, 41, 0
17, 20040, Note_on_c, 15, 53, 90
17, 20099, Note_on_c, 15, 53, 0
17, 20100, Note_on_c, 15, 52, 90
17, 20159, Note_on_c, 15, 52, 0
17, 20160, Note_on_c, 15, 50, 90
17, 20219, Note_on_c, 15, 50, 0
17, 20220, Note_on_c, 15, 49, 90
17, 20279, Note_on_c, 15, 49, 0
17, 20280, Note_on_c, 15, 50, 90
17, 20327, Note_on_c, 15, 50, 0
17, 20340, Note_on_c, 15, 52, 90
17, 20399, Note_on_c, 15, 52, 0
17, 20400, Note_on_c, 15, 50, 90
17, 20459, Note_on_c, 15, 50, 0
17, 20460, Note_on_c, 15, 52, 90
17, 20507, Note_on_c, 15, 52, 0
17, 20520, Note_on_c, 15, 49, 90
17, 20579, Note_on_c, 15, 49, 0
17, 20580, Note_on_c, 15, 47, 90
17, 20639, Note_on_c, 15, 47, 0
17, 20640, Note_on_c, 15, 49, 90
17, 20687, Note_on_c, 15, 49, 0
17, 20700, Note_on_c, 15, 50, 90
17, 20729, Note_on_c, 15, 50, 0
17, 20730, Note_on_c, 15, 52, 90
17, 20759, Note_on_c, 15, 52, 0
17, 20760, Note_on_c, 15, 50, 90
17, 20789, Note_on_c, 15, 50, 0
17, 20790, Note_on_c, 15, 48, 90
17, 20819, Note_on_c, 15, 48, 0
17, 20820, Note_on_c, 15, 46, 90
17, 20849, Note_on_c, 15, 46, 0
17, 20850, Note_on_c, 15, 45, 90
17, 20879, Note_on_c, 15, 45, 0
17, 20880, Note_on_c, 15, 43, 90
17, 20939, Note_on_c, 15, 43, 0
17, 20940, Note_on_c, 15, 55, 90
17, 20969, Note_on_c, 15, 55, 0
17, 20970, Note_on_c, 15, 53, 90
17, 20999, Note_on_c, 15, 53, 0
17, 21000, Note_on_c, 15, 55, 90
17, 21119, Note_on_c, 15, 55, 0
17, 21120, Note_on_c, 15, 53, 90
17, 21179, Note_on_c, 15, 53, 0
17, 21180, Note_on_c, 15, 58, 90
17, 21239, Note_on_c, 15, 58, 0
17, 21240, Note_on_c, 15, 55, 90
17, 21299, Note_on_c, 15, 55, 0
17, 21300, Note_on_c, 15, 57, 90
17, 21359, Note_on_c, 15, 57, 0
17, 21360, Note_on_c, 15, 45, 90
17, 21419, Note_on_c, 15, 45, 0
17, 21420, Note_on_c, 15, 50, 90
17, 21449, Note_on_c, 15, 50, 0
17, 21450, Note_on_c, 15, 49, 90
17, 21479, Note_on_c, 15, 49, 0
17, 21480, Note_on_c, 15, 50, 90
17, 21509, Note_on_c, 15, 50, 0
17, 21510, Note_on_c, 15, 52, 90
17, 21539, Note_on_c, 15, 52, 0
17, 21540, Note_on_c, 15, 53, 90
17, 21569, Note_on_c, 15, 53, 0
17, 21570, Note_on_c, 15, 55, 90
17, 21599, Note_on_c, 15, 55, 0
17, 21600, Note_on_c, 15, 57, 90
17, 21659, Note_on_c, 15, 57, 0
17, 21660, Note_on_c, 15, 55, 90
17, 21719, Note_on_c, 15, 55, 0
17, 21720, Note_on_c, 15, 53, 90
17, 21779, Note_on_c, 15, 53, 0
17, 21840, Note_on_c, 15, 49, 90
17, 21887, Note_on_c, 15, 49, 0
17, 21900, Note_on_c, 15, 50, 90
17, 21947, Note_on_c, 15, 50, 0
17, 21960, Note_on_c, 15, 48, 90
17, 22019, Note_on_c, 15, 48, 0
17, 22020, Note_on_c, 15, 46, 90
17, 22079, Note_on_c, 15, 46, 0
17, 22080, Note_on_c, 15, 45, 90
17, 22139, Note_on_c, 15, 45, 0
17, 22140, Note_on_c, 15, 43, 90
17, 22199, Note_on_c, 15, 43, 0
17, 22200, Note_on_c, 15, 45, 90
17, 22259, Note_on_c, 15, 45, 0
17, 22260, Note_on_c, 15, 46, 90
17, 22319, Note_on_c, 15, 46, 0
17, 22320, Note_on_c, 15, 48, 90
17, 22379, Note_on_c, 15, 48, 0
17, 22380, Note_on_c, 15, 46, 90
17, 22439, Note_on_c, 15, 46, 0
17, 22440, Note_on_c, 15, 45, 90
17, 22499, Note_on_c, 15, 45, 0
17, 22560, Note_on_c, 15, 52, 90
17, 22607, Note_on_c, 15, 52, 0
17, 22620, Note_on_c, 15, 53, 90
17, 22667, Note_on_c, 15, 53, 0
17, 22680, Note_on_c, 15, 50, 90
17, 22739, Note_on_c, 15, 50, 0
17, 22740, Note_on_c, 15, 55, 90
17, 22799, Note_on_c, 15, 55, 0
17, 22800, Note_on_c, 15, 58, 90
17, 22859, Note_on_c, 15, 58, 0
17, 22860, Note_on_c, 15, 57, 90
17, 22889, Note_on_c, 15, 57, 0
17, 22890, Note_on_c, 15, 58, 90
17, 22919, Note_on_c, 15, 58, 0
17, 22920, Note_on_c, 15, 57, 90
17, 22949, Note_on_c, 15, 57, 0
17, 22950, Note_on_c, 15, 55, 90
17, 22979, Note_on_c, 15, 55, 0
17, 22980, Note_on_c, 15, 53, 90
17, 23009, Note_on_c, 15, 53, 0
17, 23010, Note_on_c, 15, 52, 90
17, 23039, Note_on_c, 15, 52, 0
17, 23040, Note_on_c, 15, 50, 90
17, 23087, Note_on_c, 15, 50, 0
17, 23100, Note_on_c, 15, 48, 90
17, 23147, Note_on_c, 15, 48, 0
17, 23220, Note_on_c, 15, 47, 90
17, 23249, Note_on_c, 15, 47, 0
17, 23250, Note_on_c, 15, 45, 90
17, 23279, Note_on_c, 15, 45, 0
17, 23280, Note_on_c, 15, 47, 90
17, 23339, Note_on_c, 15, 47, 0
17, 23340, Note_on_c, 15, 43, 90
17, 23399, Note_on_c, 15, 43, 0
17, 23400, Note_on_c, 15, 48, 90
17, 23447, Note_on_c, 15, 48, 0
17, 23460, Note_on_c, 15, 46, 90
17, 23507, Note_on_c, 15, 46, 0
17, 23580, Note_on_c, 15, 45, 90
17, 23609, Note_on_c, 15, 45, 0
17, 23610, Note_on_c, 15, 43, 90
17, 23639, Note_on_c, 15, 43, 0
17, 23640, Note_on_c, 15, 45, 90
17, 23699, Note_on_c, 15, 45, 0
17, 23700, Note_on_c, 15, 41, 90
17, 23759, Note_on_c, 15, 41, 0
17, 23760, Note_on_c, 15, 46, 90
17, 23807, Note_on_c, 15, 46, 0
17, 23820, Note_on_c, 15, 45, 90
17, 23867, Note_on_c, 15, 45, 0
17, 23940, Note_on_c, 15, 43, 90
17, 23999, Note_on_c, 15, 43, 0
17, 24000, Note_on_c, 15, 55, 90
17, 24029, Note_on_c, 15, 55, 0
17, 24030, Note_on_c, 15, 53, 90
17, 24059, Note_on_c, 15, 53, 0
17, 24060, Note_on_c, 15, 55, 90
17, 24089, Note_on_c, 15, 55, 0
17, 24090, Note_on_c, 15, 52, 90
17, 24119, Note_on_c, 15, 52, 0
17, 24120, Note_on_c, 15, 53, 90
17, 24179, Note_on_c, 15, 53, 0
17, 24180, Note_on_c, 15, 55, 90
17, 24239, Note_on_c, 15, 55, 0
17, 24240, Note_on_c, 15, 57, 90
17, 24299, Note_on_c, 15, 57, 0
17, 24300, Note_on_c, 15, 50, 90
17, 24359, Note_on_c, 15, 50, 0
17, 24360, Note_on_c, 15, 45, 90
17, 24389, Note_on_c, 15, 45, 0
17, 24390, Note_on_c, 15, 43, 90
17, 24419, Note_on_c, 15, 43, 0
17, 24420, Note_on_c, 15, 41, 90
17, 24449, Note_on_c, 15, 41, 0
17, 24450, Note_on_c, 15, 40, 90
17, 24479, Note_on_c, 15, 40, 0
17, 24480, Note_on_c, 15, 38, 90
17, 24539, Note_on_c, 15, 38, 0
17, 24540, Note_on_c, 15, 43, 90
17, 24599, Note_on_c, 15, 43, 0
17, 24600, Note_on_c, 15, 41, 90
17, 24659, Note_on_c, 15, 41, 0
17, 24660, Note_on_c, 15, 40, 90
17, 24719, Note_on_c, 15, 40, 0
17, 24720, Note_on_c, 15, 38, 90
17, 24779, Note_on_c, 15, 38, 0
17, 24780, Note_on_c, 15, 36, 90
17, 24839, Note_on_c, 15, 36, 0
17, 24840, Note_on_c, 15, 38, 90
17, 24899, Note_on_c, 15, 38, 0
17, 24900, Note_on_c, 15, 43, 90
17, 24929, Note_on_c, 15, 43, 0
17, 24930, Note_on_c, 15, 41, 90
17, 24959, Note_on_c, 15, 41, 0
17, 24960, Note_on_c, 15, 43, 90
17, 25019, Note_on_c, 15, 43, 0
17, 25020, Note_on_c, 15, 48, 90
17, 25079, Note_on_c, 15, 48, 0
17, 25080, Note_on_c, 15, 50, 90
17, 25139, Note_on_c, 15, 50, 0
17, 25140, Note_on_c, 15, 52, 90
17, 25199, Note_on_c, 15, 52, 0
17, 25200, Note_on_c, 15, 45, 90
17, 25319, Note_on_c, 15, 45, 0
17, 25320, Note_on_c, 15, 47, 90
17, 25379, Note_on_c, 15, 47, 0
17, 25380, Note_on_c, 15, 48, 90
17, 25439, Note_on_c, 15, 48, 0
17, 25440, Note_on_c, 15, 47, 90
17, 25499, Note_on_c, 15, 47, 0
17, 25500, Note_on_c, 15, 45, 90
17, 25559, Note_on_c, 15, 45, 0
17, 25560, Note_on_c, 15, 50, 90
17, 25619, Note_on_c, 15, 50, 0
17, 25620, Note_on_c, 15, 52, 90
17, 25679, Note_on_c, 15, 52, 0
17, 25680, Note_on_c, 15, 53, 90
17, 25727, Note_on_c, 15, 53, 0
17, 25740, Note_on_c, 15, 52, 90
17, 25799, Note_on_c, 15, 52, 0
17, 25800, Note_on_c, 15, 54, 90
17, 25859, Note_on_c, 15, 54, 0
17, 25860, Note_on_c, 15, 56, 90
17, 25907, Note_on_c, 15, 56, 0
17, 25920, Note_on_c, 15, 57, 90
17, 25967, Note_on_c, 15, 57, 0
17, 25980, Note_on_c, 15, 45, 90
17, 26039, Note_on_c, 15, 45, 0
17, 26040, Note_on_c, 15, 44, 90
17, 26099, Note_on_c, 15, 44, 0
17, 26100, Note_on_c, 15, 45, 90
17, 26147, Note_on_c, 15, 45, 0
17, 26160, Note_on_c, 15, 57, 90
17, 26219, Note_on_c, 15, 57, 0
17, 26220, Note_on_c, 15, 55, 90
17, 26279, Note_on_c, 15, 55, 0
17, 26280, Note_on_c, 15, 53, 90
17, 26327, Note_on_c, 15, 53, 0
17, 26340, Note_on_c, 15, 50, 90
17, 26387, Note_on_c, 15, 50, 0
17, 26400, Note_on_c, 15, 57, 90
17, 26447, Note_on_c, 15, 57, 0
17, 26460, Note_on_c, 15, 53, 90
17, 26507, Note_on_c, 15, 53, 0
17, 26520, Note_on_c, 15, 50, 90
17, 26567, Note_on_c, 15, 50, 0
17, 26580, Note_on_c, 15, 53, 90
17, 26627, Note_on_c, 15, 53, 0
17, 26640, Note_on_c, 15, 55, 90
17, 26687, Note_on_c, 15, 55, 0
17, 26700, Note_on_c, 15, 43, 90
17, 26759, Note_on_c, 15, 43, 0
17, 26760, Note_on_c, 15, 42, 90
17, 26819, Note_on_c, 15, 42, 0
17, 26820, Note_on_c, 15, 43, 90
17, 26867, Note_on_c, 15, 43, 0
17, 26880, Note_on_c, 15, 55, 90
17, 26939, Note_on_c, 15, 55, 0
17, 26940, Note_on_c, 15, 53, 90
17, 26999, Note_on_c, 15, 53, 0
17, 27000, Note_on_c, 15, 52, 90
17, 27047, Note_on_c, 15, 52, 0
17, 27060, Note_on_c, 15, 48, 90
17, 27107, Note_on_c, 15, 48, 0
17, 27120, Note_on_c, 15, 55, 90
17, 27167, Note_on_c, 15, 55, 0
17, 27180, Note_on_c, 15, 52, 90
17, 27227, Note_on_c, 15, 52, 0
17, 27240, Note_on_c, 15, 48, 90
17, 27287, Note_on_c, 15, 48, 0
17, 27300, Note_on_c, 15, 52, 90
17, 27347, Note_on_c, 15, 52, 0
17, 27360, Note_on_c, 15, 53, 90
17, 27419, Note_on_c, 15, 53, 0
17, 27420, Note_on_c, 15, 52, 90
17, 27479, Note_on_c, 15, 52, 0
17, 27480, Note_on_c, 15, 53, 90
17, 27527, Note_on_c, 15, 53, 0
17, 27540, Note_on_c, 15, 50, 90
17, 27599, Note_on_c, 15, 50, 0
17, 27600, Note_on_c, 15, 49, 90
17, 27659, Note_on_c, 15, 49, 0
17, 27660, Note_on_c, 15, 50, 90
17, 27707, Note_on_c, 15, 50, 0
17, 27720, Note_on_c, 15, 52, 90
17, 27779, Note_on_c, 15, 52, 0
17, 27780, Note_on_c, 15, 50, 90
17, 27839, Note_on_c, 15, 50, 0
17, 27840, Note_on_c, 15, 52, 90
17, 27887, Note_on_c, 15, 52, 0
17, 27900, Note_on_c, 15, 49, 90
17, 27959, Note_on_c, 15, 49, 0
17, 27960, Note_on_c, 15, 47, 90
17, 28019, Note_on_c, 15, 47, 0
17, 28020, Note_on_c, 15, 49, 90
17, 28067, Note_on_c, 15, 49, 0
17, 28080, Note_on_c, 15, 50, 90
17, 28199, Note_on_c, 15, 50, 0
17, 28200, Note_on_c, 15, 52, 90
17, 28259, Note_on_c, 15, 52, 0
17, 28260, Note_on_c, 15, 53, 90
17, 28319, Note_on_c, 15, 53, 0
17, 28320, Note_on_c, 15, 47, 90
17, 28379, Note_on_c, 15, 47, 0
17, 28380, Note_on_c, 15, 48, 90
17, 28439, Note_on_c, 15, 48, 0
17, 28440, Note_on_c, 15, 50, 90
17, 28499, Note_on_c, 15, 50, 0
17, 28500, Note_on_c, 15, 52, 90
17, 28559, Note_on_c, 15, 52, 0
17, 28560, Note_on_c, 15, 40, 90
17, 28619, Note_on_c, 15, 40, 0
17, 28620, Note_on_c, 15, 45, 90
17, 28739, Note_on_c, 15, 45, 0
17, 28800, Note_on_c, 15, 53, 90
17, 29159, Note_on_c, 15, 53, 0
17, 29220, Note_on_c, 15, 46, 90
17, 29267, Note_on_c, 15, 46, 0
17, 29280, Note_on_c, 15, 45, 90
17, 29327, Note_on_c, 15, 45, 0
17, 29400, Note_on_c, 15, 40, 90
17, 29447, Note_on_c, 15, 40, 0
17, 29460, Note_on_c, 15, 41, 90
17, 29507, Note_on_c, 15, 41, 0
17, 29520, Note_on_c, 15, 51, 90
17, 29579, Note_on_c, 15, 51, 0
17, 29580, Note_on_c, 15, 50, 90
17, 29639, Note_on_c, 15, 50, 0
17, 29640, Note_on_c, 15, 48, 90
17, 29699, Note_on_c, 15, 48, 0
17, 29700, Note_on_c, 15, 46, 90
17, 29747, Note_on_c, 15, 46, 0
17, 29760, Note_on_c, 15, 53, 90
17, 29807, Note_on_c, 15, 53, 0
17, 29940, Note_on_c, 15, 51, 90
17, 29987, Note_on_c, 15, 51, 0
17, 30000, Note_on_c, 15, 50, 90
17, 30047, Note_on_c, 15, 50, 0
17, 30120, Note_on_c, 15, 45, 90
17, 30167, Note_on_c, 15, 45, 0
17, 30180, Note_on_c, 15, 46, 90
17, 30227, Note_on_c, 15, 46, 0
17, 30240, Note_on_c, 15, 45, 90
17, 30299, Note_on_c, 15, 45, 0
17, 30300, Note_on_c, 15, 43, 90
17, 30359, Note_on_c, 15, 43, 0
17, 30360, Note_on_c, 15, 48, 90
17, 30419, Note_on_c, 15, 48, 0
17, 30420, Note_on_c, 15, 45, 90
17, 30479, Note_on_c, 15, 45, 0
17, 30480, Note_on_c, 15, 46, 90
17, 30539, Note_on_c, 15, 46, 0
17, 30540, Note_on_c, 15, 48, 90
17, 30599, Note_on_c, 15, 48, 0
17, 30600, Note_on_c, 15, 41, 90
17, 30659, Note_on_c, 15, 41, 0
17, 30660, Note_on_c, 15, 46, 90
17, 30719, Note_on_c, 15, 46, 0
17, 30720, Note_on_c, 15, 43, 90
17, 30779, Note_on_c, 15, 43, 0
17, 30780, Note_on_c, 15, 48, 90
17, 30839, Note_on_c, 15, 48, 0
17, 30840, Note_on_c, 15, 43, 90
17, 30869, Note_on_c, 15, 43, 0
17, 30870, Note_on_c, 15, 41, 90
17, 30899, Note_on_c, 15, 41, 0
17, 30900, Note_on_c, 15, 40, 90
17, 30929, Note_on_c, 15, 40, 0
17, 30930, Note_on_c, 15, 38, 90
17, 30959, Note_on_c, 15, 38, 0
17, 30960, Note_on_c, 15, 36, 90
17, 31019, Note_on_c, 15, 36, 0
17, 31080, Note_on_c, 15, 40, 90
17, 31139, Note_on_c, 15, 40, 0
17, 31140, Note_on_c, 15, 41, 90
17, 31199, Note_on_c, 15, 41, 0
17, 31260, Note_on_c, 15, 43, 90
17, 31319, Note_on_c, 15, 43, 0
17, 31320, Note_on_c, 15, 45, 90
17, 31379, Note_on_c, 15, 45, 0
17, 31440, Note_on_c, 15, 41, 90
17, 31499, Note_on_c, 15, 41, 0
17, 31500, Note_on_c, 15, 48, 90
17, 31619, Note_on_c, 15, 48, 0
17, 31620, Note_on_c, 15, 50, 90
17, 31679, Note_on_c, 15, 50, 0
17, 31680, Note_on_c, 15, 52, 90
17, 31739, Note_on_c, 15, 52, 0
17, 31740, Note_on_c, 15, 50, 90
17, 31799, Note_on_c, 15, 50, 0
17, 31800, Note_on_c, 15, 48, 90
17, 31859, Note_on_c, 15, 48, 0
17, 31860, Note_on_c, 15, 53, 90
17, 31979, Note_on_c, 15, 53, 0
17, 31980, Note_on_c, 15, 46, 90
17, 32039, Note_on_c, 15, 46, 0
17, 32040, Note_on_c, 15, 45, 90
17, 32099, Note_on_c, 15, 45, 0
17, 32100, Note_on_c, 15, 43, 90
17, 32159, Note_on_c, 15, 43, 0
17, 32160, Note_on_c, 15, 41, 90
17, 32219, Note_on_c, 15, 41, 0
17, 32220, Note_on_c, 15, 48, 90
17, 32339, Note_on_c, 15, 48, 0
17, 32340, Note_on_c, 15, 50, 90
17, 32399, Note_on_c, 15, 50, 0
17, 32400, Note_on_c, 15, 52, 90
17, 32459, Note_on_c, 15, 52, 0
17, 32460, Note_on_c, 15, 50, 90
17, 32519, Note_on_c, 15, 50, 0
17, 32520, Note_on_c, 15, 48, 90
17, 32579, Note_on_c, 15, 48, 0
17, 32580, Note_on_c, 15, 58, 90
17, 32699, Note_on_c, 15, 58, 0
17, 32700, Note_on_c, 15, 58, 90
17, 32759, Note_on_c, 15, 58, 0
17, 32760, Note_on_c, 15, 57, 90
17, 32819, Note_on_c, 15, 57, 0
17, 32820, Note_on_c, 15, 55, 90
17, 32879, Note_on_c, 15, 55, 0
17, 32880, Note_on_c, 15, 53, 90
17, 32939, Note_on_c, 15, 53, 0
17, 32940, Note_on_c, 15, 58, 90
17, 32987, Note_on_c, 15, 58, 0
17, 33000, Note_on_c, 15, 46, 90
17, 33047, Note_on_c, 15, 46, 0
17, 33120, Note_on_c, 15, 54, 90
17, 33239, Note_on_c, 15, 54, 0
17, 33240, Note_on_c, 15, 50, 90
17, 33299, Note_on_c, 15, 50, 0
17, 33300, Note_on_c, 15, 55, 90
17, 33419, Note_on_c, 15, 55, 0
17, 33420, Note_on_c, 15, 53, 90
17, 33479, Note_on_c, 15, 53, 0
17, 33480, Note_on_c, 15, 52, 90
17, 33599, Note_on_c, 15, 52, 0
17, 33600, Note_on_c, 15, 48, 90
17, 33659, Note_on_c, 15, 48, 0
17, 33660, Note_on_c, 15, 53, 90
17, 33719, Note_on_c, 15, 53, 0
17, 33720, Note_on_c, 15, 52, 90
17, 33779, Note_on_c, 15, 52, 0
17, 33780, Note_on_c, 15, 50, 90
17, 33839, Note_on_c, 15, 50, 0
17, 33840, Note_on_c, 15, 48, 90
17, 33899, Note_on_c, 15, 48, 0
17, 33900, Note_on_c, 15, 46, 90
17, 33959, Note_on_c, 15, 46, 0
17, 33960, Note_on_c, 15, 45, 90
17, 34019, Note_on_c, 15, 45, 0
17, 34080, Note_on_c, 15, 48, 90
17, 34127, Note_on_c, 15, 48, 0
17, 34140, Note_on_c, 15, 53, 90
17, 34187, Note_on_c, 15, 53, 0
17, 34200, Note_on_c, 15, 46, 90
17, 34259, Note_on_c, 15, 46, 0
17, 34260, Note_on_c, 15, 45, 90
17, 34319, Note_on_c, 15, 45, 0
17, 34320, Note_on_c, 15, 43, 90
17, 34379, Note_on_c, 15, 43, 0
17, 34380, Note_on_c, 15, 41, 90
17, 34427, Note_on_c, 15, 41, 0
17, 34440, Note_on_c, 15, 48, 90
17, 34487, Note_on_c, 15, 48, 0
17, 34500, Note_on_c, 15, 53, 90
17, 34547, Note_on_c, 15, 53, 0
17, 34620, Note_on_c, 15, 51, 90
17, 34667, Note_on_c, 15, 51, 0
17, 34680, Note_on_c, 15, 50, 90
17, 34727, Note_on_c, 15, 50, 0
17, 34800, Note_on_c, 15, 53, 90
17, 34847, Note_on_c, 15, 53, 0
17, 34860, Note_on_c, 15, 58, 90
17, 34907, Note_on_c, 15, 58, 0
17, 34920, Note_on_c, 15, 51, 90
17, 34979, Note_on_c, 15, 51, 0
17, 34980, Note_on_c, 15, 50, 90
17, 35039, Note_on_c, 15, 50, 0
17, 35040, Note_on_c, 15, 48, 90
17, 35099, Note_on_c, 15, 48, 0
17, 35100, Note_on_c, 15, 46, 90
17, 35147, Note_on_c, 15, 46, 0
17, 35160, Note_on_c, 15, 53, 90
17, 35207, Note_on_c, 15, 53, 0
17, 35220, Note_on_c, 15, 58, 90
17, 35267, Note_on_c, 15, 58, 0
17, 35280, Note_on_c, 15, 46, 90
17, 35327, Note_on_c, 15, 46, 0
17, 35340, Note_on_c, 15, 45, 90
17, 35387, Note_on_c, 15, 45, 0
17, 35460, Note_on_c, 15, 43, 90
17, 35489, Note_on_c, 15, 43, 0
17, 35490, Note_on_c, 15, 41, 90
17, 35519, Note_on_c, 15, 41, 0
17, 35520, Note_on_c, 15, 43, 90
17, 35579, Note_on_c, 15, 43, 0
17, 35580, Note_on_c, 15, 40, 90
17, 35639, Note_on_c, 15, 40, 0
17, 35640, Note_on_c, 15, 45, 90
17, 35687, Note_on_c, 15, 45, 0
17, 35700, Note_on_c, 15, 43, 90
17, 35747, Note_on_c, 15, 43, 0
17, 35820, Note_on_c, 15, 42, 90
17, 35849, Note_on_c, 15, 42, 0
17, 35850, Note_on_c, 15, 40, 90
17, 35879, Note_on_c, 15, 40, 0
17, 35880, Note_on_c, 15, 42, 90
17, 35939, Note_on_c, 15, 42, 0
17, 35940, Note_on_c, 15, 38, 90
17, 35999, Note_on_c, 15, 38, 0
17, 36000, Note_on_c, 15, 43, 90
17, 36047, Note_on_c, 15, 43, 0
17, 36060, Note_on_c, 15, 41, 90
17, 36107, Note_on_c, 15, 41, 0
17, 36180, Note_on_c, 15, 40, 90
17, 36209, Note_on_c, 15, 40, 0
17, 36210, Note_on_c, 15, 38, 90
17, 36239, Note_on_c, 15, 38, 0
17, 36240, Note_on_c, 15, 40, 90
17, 36299, Note_on_c, 15, 40, 0
17, 36300, Note_on_c, 15, 36, 90
17, 36359, Note_on_c, 15, 36, 0
17, 36360, Note_on_c, 15, 41, 90
17, 36419, Note_on_c, 15, 41, 0
17, 36420, Note_on_c, 15, 38, 90
17, 36479, Note_on_c, 15, 38, 0
17, 36480, Note_on_c, 15, 46, 90
17, 36539, Note_on_c, 15, 46, 0
17, 36540, Note_on_c, 15, 48, 90
17, 36599, Note_on_c, 15, 48, 0
17, 36600, Note_on_c, 15, 50, 90
17, 36659, Note_on_c, 15, 50, 0
17, 36660, Note_on_c, 15, 52, 90
17, 36719, Note_on_c, 15, 52, 0
17, 36720, Note_on_c, 15, 53, 90
17, 36779, Note_on_c, 15, 53, 0
17, 36780, Note_on_c, 15, 52, 90
17, 36839, Note_on_c, 15, 52, 0
17, 36840, Note_on_c, 15, 50, 90
17, 36899, Note_on_c, 15, 50, 0
17, 36900, Note_on_c, 15, 52, 90
17, 36959, Note_on_c, 15, 52, 0
17, 36960, Note_on_c, 15, 45, 90
17, 37019, Note_on_c, 15, 45, 0
17, 37020, Note_on_c, 15, 38, 90
17, 37079, Note_on_c, 15, 38, 0
17, 37080, Note_on_c, 15, 50, 90
17, 37199, Note_on_c, 15, 50, 0
17, 37200, Note_on_c, 15, 48, 90
17, 37259, Note_on_c, 15, 48, 0
17, 37260, Note_on_c, 15, 46, 90
17, 37307, Note_on_c, 15, 46, 0
17, 37320, Note_on_c, 15, 53, 90
17, 37367, Note_on_c, 15, 53, 0
17, 37620, Note_on_c, 15, 46, 90
17, 37649, Note_on_c, 15, 46, 0
17, 37650, Note_on_c, 15, 45, 90
17, 37679, Note_on_c, 15, 45, 0
17, 37680, Note_on_c, 15, 46, 90
17, 37709, Note_on_c, 15, 46, 0
17, 37710, Note_on_c, 15, 48, 90
17, 37739, Note_on_c, 15, 48, 0
17, 37740, Note_on_c, 15, 50, 90
17, 37769, Note_on_c, 15, 50, 0
17, 37770, Note_on_c, 15, 51, 90
17, 37799, Note_on_c, 15, 51, 0
17, 37800, Note_on_c, 15, 53, 90
17, 37859, Note_on_c, 15, 53, 0
17, 37860, Note_on_c, 15, 41, 90
17, 37919, Note_on_c, 15, 41, 0
17, 37980, Note_on_c, 15, 53, 90
17, 38009, Note_on_c, 15, 53, 0
17, 38010, Note_on_c, 15, 52, 90
17, 38039, Note_on_c, 15, 52, 0
17, 38040, Note_on_c, 15, 53, 90
17, 38069, Note_on_c, 15, 53, 0
17, 38070, Note_on_c, 15, 55, 90
17, 38099, Note_on_c, 15, 55, 0
17, 38100, Note_on_c, 15, 57, 90
17, 38129, Note_on_c, 15, 57, 0
17, 38130, Note_on_c, 15, 53, 90
17, 38159, Note_on_c, 15, 53, 0
17, 38160, Note_on_c, 15, 58, 90
17, 38219, Note_on_c, 15, 58, 0
17, 38220, Note_on_c, 15, 46, 90
17, 38279, Note_on_c, 15, 46, 0
17, 38340, Note_on_c, 15, 46, 90
17, 38399, Note_on_c, 15, 46, 0
17, 38400, Note_on_c, 15, 45, 90
17, 38459, Note_on_c, 15, 45, 0
17, 38460, Note_on_c, 15, 46, 90
17, 38519, Note_on_c, 15, 46, 0
17, 38520, Note_on_c, 15, 41, 90
17, 38567, Note_on_c, 15, 41, 0
17, 38580, Note_on_c, 15, 53, 90
17, 38627, Note_on_c, 15, 53, 0
17, 38700, Note_on_c, 15, 53, 90
17, 38759, Note_on_c, 15, 53, 0
17, 38760, Note_on_c, 15, 55, 90
17, 38819, Note_on_c, 15, 55, 0
17, 38820, Note_on_c, 15, 57, 90
17, 38879, Note_on_c, 15, 57, 0
17, 38880, Note_on_c, 15, 58, 90
17, 39119, Note_on_c, 15, 58, 0
17, 39120, Note_on_c, 15, 57, 90
17, 39179, Note_on_c, 15, 57, 0
17, 39180, Note_on_c, 15, 55, 90
17, 39269, Note_on_c, 15, 55, 0
17, 39270, Note_on_c, 15, 53, 90
17, 39299, Note_on_c, 15, 53, 0
17, 39300, Note_on_c, 15, 55, 90
17, 39329, Note_on_c, 15, 55, 0
17, 39330, Note_on_c, 15, 57, 90
17, 39359, Note_on_c, 15, 57, 0
17, 39360, Note_on_c, 15, 55, 90
17, 39389, Note_on_c, 15, 55, 0
17, 39390, Note_on_c, 15, 53, 90
17, 39419, Note_on_c, 15, 53, 0
17, 39420, Note_on_c, 15, 52, 90
17, 39449, Note_on_c, 15, 52, 0
17, 39450, Note_on_c, 15, 50, 90
17, 39479, Note_on_c, 15, 50, 0
17, 39480, Note_on_c, 15, 52, 90
17, 39509, Note_on_c, 15, 52, 0
17, 39510, Note_on_c, 15, 48, 90
17, 39539, Note_on_c, 15, 48, 0
17, 39540, Note_on_c, 15, 50, 90
17, 39569, Note_on_c, 15, 50, 0
17, 39570, Note_on_c, 15, 52, 90
17, 39599, Note_on_c, 15, 52, 0
17, 39600, Note_on_c, 15, 53, 90
17, 39659, Note_on_c, 15, 53, 0
17, 39660, Note_on_c, 15, 46, 90
17, 39719, Note_on_c, 15, 46, 0
17, 39720, Note_on_c, 15, 45, 90
17, 39779, Note_on_c, 15, 45, 0
17, 39780, Note_on_c, 15, 43, 90
17, 39839, Note_on_c, 15, 43, 0
17, 39840, Note_on_c, 15, 45, 90
17, 39899, Note_on_c, 15, 45, 0
17, 39900, Note_on_c, 15, 50, 90
17, 39959, Note_on_c, 15, 50, 0
17, 39960, Note_on_c, 15, 46, 90
17, 40019, Note_on_c, 15, 46, 0
17, 40020, Note_on_c, 15, 48, 90
17, 40079, Note_on_c, 15, 48, 0
17, 40080, Note_on_c, 15, 36, 90
17, 40139, Note_on_c, 15, 36, 0
17, 40140, Note_on_c, 15, 41, 90
17, 40169, Note_on_c, 15, 41, 0
17, 40170, Note_on_c, 15, 40, 90
17, 40199, Note_on_c, 15, 40, 0
17, 40200, Note_on_c, 15, 41, 90
17, 40229, Note_on_c, 15, 41, 0
17, 40230, Note_on_c, 15, 43, 90
17, 40259, Note_on_c, 15, 43, 0
17, 40260, Note_on_c, 15, 45, 90
17, 40289, Note_on_c, 15, 45, 0
17, 40290, Note_on_c, 15, 46, 90
17, 40319, Note_on_c, 15, 46, 0
17, 40320, Note_on_c, 15, 48, 90
17, 40379, Note_on_c, 15, 48, 0
17, 40380, Note_on_c, 15, 58, 90
17, 40427, Note_on_c, 15, 58, 0
17, 40440, Note_on_c, 15, 57, 90
17, 40487, Note_on_c, 15, 57, 0
17, 40560, Note_on_c, 15, 52, 90
17, 40607, Note_on_c, 15, 52, 0
17, 40620, Note_on_c, 15, 53, 90
17, 40667, Note_on_c, 15, 53, 0
17, 40680, Note_on_c, 15, 46, 90
17, 40739, Note_on_c, 15, 46, 0
17, 40740, Note_on_c, 15, 45, 90
17, 40799, Note_on_c, 15, 45, 0
17, 40800, Note_on_c, 15, 43, 90
17, 40859, Note_on_c, 15, 43, 0
17, 40860, Note_on_c, 15, 41, 90
17, 40907, Note_on_c, 15, 41, 0
17, 40920, Note_on_c, 15, 48, 90
17, 40967, Note_on_c, 15, 48, 0
17, 40980, Note_on_c, 15, 53, 90
17, 41027, Note_on_c, 15, 53, 0
17, 41100, Note_on_c, 15, 51, 90
17, 41147, Note_on_c, 15, 51, 0
17, 41160, Note_on_c, 15, 50, 90
17, 41207, Note_on_c, 15, 50, 0
17, 41280, Note_on_c, 15, 45, 90
17, 41327, Note_on_c, 15, 45, 0
17, 41340, Note_on_c, 15, 46, 90
17, 41387, Note_on_c, 15, 46, 0
17, 41400, Note_on_c, 15, 60, 90
17, 41459, Note_on_c, 15, 60, 0
17, 41460, Note_on_c, 15, 58, 90
17, 41519, Note_on_c, 15, 58, 0
17, 41520, Note_on_c, 15, 57, 90
17, 41579, Note_on_c, 15, 57, 0
17, 41580, Note_on_c, 15, 55, 90
17, 41627, Note_on_c, 15, 55, 0
17, 41640, Note_on_c, 15, 50, 90
17, 41687, Note_on_c, 15, 50, 0
17, 41700, Note_on_c, 15, 43, 90
17, 41747, Note_on_c, 15, 43, 0
17, 41760, Note_on_c, 15, 55, 90
17, 41807, Note_on_c, 15, 55, 0
17, 41820, Note_on_c, 15, 53, 90
17, 41867, Note_on_c, 15, 53, 0
17, 41940, Note_on_c, 15, 52, 90
17, 41969, Note_on_c, 15, 52, 0
17, 41970, Note_on_c, 15, 50, 90
17, 41999, Note_on_c, 15, 50, 0
17, 42000, Note_on_c, 15, 52, 90
17, 42059, Note_on_c, 15, 52, 0
17, 42060, Note_on_c, 15, 48, 90
17, 42119, Note_on_c, 15, 48, 0
17, 42120, Note_on_c, 15, 53, 90
17, 42167, Note_on_c, 15, 53, 0
17, 42180, Note_on_c, 15, 52, 90
17, 42227, Note_on_c, 15, 52, 0
17, 42300, Note_on_c, 15, 50, 90
17, 42329, Note_on_c, 15, 50, 0
17, 42330, Note_on_c, 15, 48, 90
17, 42359, Note_on_c, 15, 48, 0
17, 42360, Note_on_c, 15, 50, 90
17, 42419, Note_on_c, 15, 50, 0
17, 42420, Note_on_c, 15, 46, 90
17, 42479, Note_on_c, 15, 46, 0
17, 42480, Note_on_c, 15, 40, 90
17, 42539, Note_on_c, 15, 40, 0
17, 42540, Note_on_c, 15, 52, 90
17, 42569, Note_on_c, 15, 52, 0
17, 42570, Note_on_c, 15, 50, 90
17, 42599, Note_on_c, 15, 50, 0
17, 42600, Note_on_c, 15, 52, 90
17, 42629, Note_on_c, 15, 52, 0
17, 42630, Note_on_c, 15, 48, 90
17, 42659, Note_on_c, 15, 48, 0
17, 42660, Note_on_c, 15, 53, 90
17, 42719, Note_on_c, 15, 53, 0
17, 42720, Note_on_c, 15, 41, 90
17, 42749, Note_on_c, 15, 41, 0
17, 42750, Note_on_c, 15, 40, 90
17, 42779, Note_on_c, 15, 40, 0
17, 42780, Note_on_c, 15, 41, 90
17, 42809, Note_on_c, 15, 41, 0
17, 42810, Note_on_c, 15, 43, 90
17, 42839, Note_on_c, 15, 43, 0
17, 42840, Note_on_c, 15, 45, 90
17, 42899, Note_on_c, 15, 45, 0
17, 42900, Note_on_c, 15, 46, 90
17, 42959, Note_on_c, 15, 46, 0
17, 42960, Note_on_c, 15, 48, 90
17, 43019, Note_on_c, 15, 48, 0
17, 43020, Note_on_c, 15, 41, 90
17, 43199, Note_on_c, 15, 41, 0
17, 43380, Note_on_c, 15, 48, 90
17, 44099, Note_on_c, 15, 48, 0
17, 44100, Note_on_c, 15, 47, 90
17, 44339, Note_on_c, 15, 47, 0
17, 44340, Note_on_c, 15, 48, 90
17, 44699, Note_on_c, 15, 48, 0
17, 44700, Note_on_c, 15, 52, 90
17, 44939, Note_on_c, 15, 52, 0
17, 44940, Note_on_c, 15, 53, 90
17, 45299, Note_on_c, 15, 53, 0
17, 45300, Note_on_c, 15, 49, 90
17, 45539, Note_on_c, 15, 49, 0
17, 45540, Note_on_c, 15, 50, 90
17, 45779, Note_on_c, 15, 50, 0
17, 45780, Note_on_c, 15, 44, 90
17, 46019, Note_on_c, 15, 44, 0
17, 46020, Note_on_c, 15, 48, 90
17, 46139, Note_on_c, 15, 48, 0
17, 46140, Note_on_c, 15, 41, 90
17, 46259, Note_on_c, 15, 41, 0
17, 46380, Note_on_c, 15, 40, 90
17, 46499, Note_on_c, 15, 40, 0
17, 46500, Note_on_c, 15, 45, 90
17, 46620, Note_on_c, 15, 45, 0
17, 46740, Note_on_c, 15, 50, 100
17, 47700, Note_on_c, 15, 50, 0
17, 47700, Note_on_c, 15, 53, 100
17, 48180, Note_on_c, 15, 53, 0
17, 48180, Note_on_c, 15, 52, 100
17, 48660, Note_on_c, 15, 52, 0
17, 48660, Note_on_c, 15, 45, 100
17, 49620, Note_on_c, 15, 45, 0
17, 49620, Note_on_c, 15, 43, 100
17, 50340, Note_on_c, 15, 43, 0
17, 50340, Note_on_c, 15, 45, 90
17, 50579, Note_on_c, 15, 45, 0
17, 50580, Note_on_c, 15, 46, 90
17, 50699, Note_on_c, 15, 46, 0
17, 50700, Note_on_c, 15, 50, 90
17, 50819, Note_on_c, 15, 50, 0
17, 50940, Note_on_c, 15, 48, 90
17, 51059, Note_on_c, 15, 48, 0
17, 51060, Note_on_c, 15, 41, 90
17, 51179, Note_on_c, 15, 41, 0
17, 51360, Note_on_c, 15, 45, 90
17, 51389, Note_on_c, 15, 45, 0
17, 51390, Note_on_c, 15, 46, 90
17, 51419, Note_on_c, 15, 46, 0
17, 51420, Note_on_c, 15, 48, 90
17, 51479, Note_on_c, 15, 48, 0
17, 51480, Note_on_c, 15, 45, 90
17, 51539, Note_on_c, 15, 45, 0
17, 51540, Note_on_c, 15, 46, 90
17, 51599, Note_on_c, 15, 46, 0
17, 51600, Note_on_c, 15, 43, 90
17, 51659, Note_on_c, 15, 43, 0
17, 51660, Note_on_c, 15, 38, 90
17, 51719, Note_on_c, 15, 38, 0
17, 51720, Note_on_c, 15, 41, 90
17, 51839, Note_on_c, 15, 41, 0
17, 51840, Note_on_c, 15, 40, 90
17, 51899, Note_on_c, 15, 40, 0
17, 51900, Note_on_c, 15, 41, 90
17, 51959, Note_on_c, 15, 41, 0
17, 51960, Note_on_c, 15, 38, 90
17, 52019, Note_on_c, 15, 38, 0
17, 52020, Note_on_c, 15, 46, 90
17, 52079, Note_on_c, 15, 46, 0
17, 52080, Note_on_c, 15, 43, 90
17, 52139, Note_on_c, 15, 43, 0
17, 52140, Note_on_c, 15, 48, 90
17, 52199, Note_on_c, 15, 48, 0
17, 52200, Note_on_c, 15, 46, 90
17, 52259, Note_on_c, 15, 46, 0
17, 52260, Note_on_c, 15, 45, 90
17, 52319, Note_on_c, 15, 45, 0
17, 52320, Note_on_c, 15, 48, 90
17, 52379, Note_on_c, 15, 48, 0
17, 52380, Note_on_c, 15, 50, 90
17, 52439, Note_on_c, 15, 50, 0
17, 52440, Note_on_c, 15, 46, 90
17, 52499, Note_on_c, 15, 46, 0
17, 52500, Note_on_c, 15, 40, 90
17, 52559, Note_on_c, 15, 40, 0
17, 52560, Note_on_c, 15, 52, 90
17, 52619, Note_on_c, 15, 52, 0
17, 52620, Note_on_c, 15, 53, 90
17, 52679, Note_on_c, 15, 53, 0
17, 52680, Note_on_c, 15, 50, 90
17, 52739, Note_on_c, 15, 50, 0
17, 52740, Note_on_c, 15, 46, 90
17, 52799, Note_on_c, 15, 46, 0
17, 52800, Note_on_c, 15, 43, 90
17, 52859, Note_on_c, 15, 43, 0
17, 52860, Note_on_c, 15, 48, 90
17, 52919, Note_on_c, 15, 48, 0
17, 52920, Note_on_c, 15, 46, 90
17, 52979, Note_on_c, 15, 46, 0
17, 52980, Note_on_c, 15, 45, 90
17, 53039, Note_on_c, 15, 45, 0
17, 53040, Note_on_c, 15, 41, 90
17, 53099, Note_on_c, 15, 41, 0
17, 53100, Note_on_c, 15, 53, 90
17, 53279, Note_on_c, 15, 53, 0
17, 53280, Note_on_c, 15, 52, 90
17, 53339, Note_on_c, 15, 52, 0
17, 53340, Note_on_c, 15, 57, 90
17, 53399, Note_on_c, 15, 57, 0
17, 53400, Note_on_c, 15, 50, 90
17, 53459, Note_on_c, 15, 50, 0
17, 53460, Note_on_c, 15, 55, 90
17, 53519, Note_on_c, 15, 55, 0
17, 53520, Note_on_c, 15, 57, 90
17, 53549, Note_on_c, 15, 57, 0
17, 53550, Note_on_c, 15, 58, 90
17, 53579, Note_on_c, 15, 58, 0
17, 53580, Note_on_c, 15, 60, 90
17, 53639, Note_on_c, 15, 60, 0
17, 53640, Note_on_c, 15, 48, 90
17, 53699, Note_on_c, 15, 48, 0
17, 53700, Note_on_c, 15, 53, 90
17, 53759, Note_on_c, 15, 53, 0
17, 53760, Note_on_c, 15, 41, 90
17, 53789, Note_on_c, 15, 41, 0
17, 53790, Note_on_c, 15, 43, 90
17, 53819, Note_on_c, 15, 43, 0
17, 53820, Note_on_c, 15, 45, 90
17, 53879, Note_on_c, 15, 45, 0
17, 53880, Note_on_c, 15, 46, 90
17, 53999, Note_on_c, 15, 46, 0
17, 54000, Note_on_c, 15, 58, 90
17, 54059, Note_on_c, 15, 58, 0
17, 54060, Note_on_c, 15, 52, 90
17, 54119, Note_on_c, 15, 52, 0
17, 54120, Note_on_c, 15, 48, 90
17, 54179, Note_on_c, 15, 48, 0
17, 54180, Note_on_c, 15, 53, 90
17, 54239, Note_on_c, 15, 53, 0
17, 54240, Note_on_c, 15, 57, 90
17, 54299, Note_on_c, 15, 57, 0
17, 54300, Note_on_c, 15, 55, 90
17, 54359, Note_on_c, 15, 55, 0
17, 54360, Note_on_c, 15, 54, 90
17, 54419, Note_on_c, 15, 54, 0
17, 54420, Note_on_c, 15, 55, 90
17, 54539, Note_on_c, 15, 55, 0
17, 54540, Note_on_c, 15, 43, 90
17, 54659, Note_on_c, 15, 43, 0
17, 54660, Note_on_c, 15, 48, 90
17, 54899, Note_on_c, 15, 48, 0
17, 54900, Note_on_c, 15, 45, 90
17, 55619, Note_on_c, 15, 45, 0
17, 55620, Note_on_c, 15, 50, 90
17, 55859, Note_on_c, 15, 50, 0
17, 55860, Note_on_c, 15, 47, 90
17, 56099, Note_on_c, 15, 47, 0
17, 56100, Note_on_c, 15, 53, 90
17, 56339, Note_on_c, 15, 53, 0
17, 56340, Note_on_c, 15, 44, 90
17, 56699, Note_on_c, 15, 44, 0
17, 56700, Note_on_c, 15, 40, 90
17, 56819, Note_on_c, 15, 40, 0
17, 56820, Note_on_c, 15, 45, 90
17, 56939, Note_on_c, 15, 45, 0
17, 56940, Note_on_c, 15, 39, 100
17, 57540, Note_on_c, 15, 39, 0
17, 57540, Note_on_c, 15, 38, 100
17, 57660, Note_on_c, 15, 38, 0
17, 57660, Note_on_c, 15, 47, 90
17, 58379, Note_on_c, 15, 47, 0
17, 58380, Note_on_c, 15, 43, 90
17, 58499, Note_on_c, 15, 43, 0
17, 58500, Note_on_c, 15, 48, 90
17, 58739, Note_on_c, 15, 48, 0
17, 58740, Note_on_c, 15, 45, 90
17, 58979, Note_on_c, 15, 45, 0
17, 58980, Note_on_c, 15, 42, 90
17, 59459, Note_on_c, 15, 42, 0
17, 59460, Note_on_c, 15, 44, 90
17, 59579, Note_on_c, 15, 44, 0
17, 59580, Note_on_c, 15, 45, 90
17, 59699, Note_on_c, 15, 45, 0
17, 59820, Note_on_c, 15, 43, 90
17, 59939, Note_on_c, 15, 43, 0
17, 59940, Note_on_c, 15, 48, 90
17, 60060, Note_on_c, 15, 48, 0
17, 60180, Program_c, 15, 6
17, 60180, Note_on_c, 15, 48, 100
17, 60300, Note_on_c, 15, 48, 0
17, 60300, Note_on_c, 15, 50, 100
17, 60360, Note_on_c, 15, 50, 0
17, 60360, Note_on_c, 15, 52, 100
17, 60480, Note_on_c, 15, 52, 0
17, 60480, Note_on_c, 15, 48, 100
17, 60540, Note_on_c, 15, 48, 0
17, 60540, Note_on_c, 15, 53, 100
17, 60660, Note_on_c, 15, 53, 0
17, 60660, Note_on_c, 15, 48, 100
17, 60720, Note_on_c, 15, 48, 0
17, 61020, Note_on_c, 15, 48, 100
17, 61080, Note_on_c, 15, 48, 0
17, 61080, Note_on_c, 15, 52, 100
17, 61200, Note_on_c, 15, 52, 0
17, 61200, Note_on_c, 15, 55, 100
17, 61260, Note_on_c, 15, 55, 0
17, 61260, Note_on_c, 15, 60, 100
17, 61380, Note_on_c, 15, 60, 0
17, 61380, Note_on_c, 15, 55, 100
17, 61440, Note_on_c, 15, 55, 0
17, 61620, Note_on_c, 15, 48, 100
17, 61740, Note_on_c, 15, 48, 0
17, 61740, Note_on_c, 15, 50, 100
17, 61800, Note_on_c, 15, 50, 0
17, 61800, Note_on_c, 15, 52, 100
17, 61920, Note_on_c, 15, 52, 0
17, 61920, Note_on_c, 15, 53, 100
17, 61980, Note_on_c, 15, 53, 0
17, 61980, Note_on_c, 15, 52, 100
17, 62100, Note_on_c, 15, 52, 0
17, 62100, Note_on_c, 15, 57, 100
17, 62160, Note_on_c, 15, 57, 0
17, 62160, Note_on_c, 15, 50, 100
17, 62280, Note_on_c, 15, 50, 0
17, 62280, Note_on_c, 15, 55, 100
17, 62340, Note_on_c, 15, 55, 0
17, 62340, Note_on_c, 15, 48, 100
17, 62460, Note_on_c, 15, 48, 0
17, 62460, Note_on_c, 15, 50, 100
17, 62520, Note_on_c, 15, 50, 0
17, 62520, Note_on_c, 15, 52, 100
17, 62640, Note_on_c, 15, 52, 0
17, 62640, Note_on_c, 15, 53, 100
17, 62700, Note_on_c, 15, 53, 0
17, 62700, Note_on_c, 15, 48, 100
17, 62820, Note_on_c, 15, 48, 0
17, 62820, Note_on_c, 15, 52, 100
17, 62880, Note_on_c, 15, 52, 0
17, 62880, Note_on_c, 15, 50, 100
17, 63000, Note_on_c, 15, 50, 0
17, 63000, Note_on_c, 15, 55, 100
17, 63060, Note_on_c, 15, 55, 0
17, 63060, Note_on_c, 15, 48, 100
17, 63180, Note_on_c, 15, 48, 0
17, 63180, Note_on_c, 15, 50, 100
17, 63240, Note_on_c, 15, 50, 0
17, 63240, Note_on_c, 15, 52, 100
17, 63360, Note_on_c, 15, 52, 0
17, 63360, Note_on_c, 15, 48, 100
17, 63420, Note_on_c, 15, 48, 0
17, 63420, Note_on_c, 15, 53, 100
17, 63540, Note_on_c, 15, 53, 0
17, 63540, Note_on_c, 15, 52, 100
17, 63600, Note_on_c, 15, 52, 0
17, 63600, Note_on_c, 15, 50, 100
17, 63720, Note_on_c, 15, 50, 0
17, 63720, Note_on_c, 15, 48, 100
17, 63780, Note_on_c, 15, 48, 0
17, 63780, Note_on_c, 15, 47, 100
17, 63840, Note_on_c, 15, 47, 0
17, 63840, Note_on_c, 15, 45, 100
17, 63900, Note_on_c, 15, 45, 0
17, 63900, Note_on_c, 15, 43, 100
17, 63960, Note_on_c, 15, 43, 0
17, 63960, Note_on_c, 15, 42, 100
17, 64080, Note_on_c, 15, 42, 0
17, 64080, Note_on_c, 15, 38, 100
17, 64140, Note_on_c, 15, 38, 0
17, 64140, Note_on_c, 15, 43, 100
17, 64260, Note_on_c, 15, 43, 0
17, 64260, Note_on_c, 15, 40, 100
17, 64320, Note_on_c, 15, 40, 0
17, 64320, Note_on_c, 15, 36, 100
17, 64440, Note_on_c, 15, 36, 0
17, 64440, Note_on_c, 15, 38, 100
17, 64500, Note_on_c, 15, 38, 0
17, 64500, Note_on_c, 15, 43, 100
17, 64620, Note_on_c, 15, 43, 0
17, 64860, Note_on_c, 15, 48, 100
17, 64980, Note_on_c, 15, 48, 0
17, 65220, Note_on_c, 15, 45, 100
17, 65340, Note_on_c, 15, 45, 0
17, 65580, Note_on_c, 15, 50, 100
17, 65700, Note_on_c, 15, 50, 0
17, 65940, Note_on_c, 15, 54, 100
17, 66060, Note_on_c, 15, 54, 0
17, 66060, Note_on_c, 15, 50, 100
17, 66120, Note_on_c, 15, 50, 0
17, 66120, Note_on_c, 15, 55, 100
17, 66240, Note_on_c, 15, 55, 0
17, 66240, Note_on_c, 15, 52, 100
17, 66300, Note_on_c, 15, 52, 0
17, 66300, Note_on_c, 15, 48, 100
17, 66420, Note_on_c, 15, 48, 0
17, 66420, Note_on_c, 15, 50, 100
17, 66480, Note_on_c, 15, 50, 0
17, 66480, Note_on_c, 15, 43, 100
17, 66540, Note_on_c, 15, 43, 0
17, 66540, Note_on_c, 15, 55, 100
17, 66570, Note_on_c, 15, 55, 0
17, 66570, Note_on_c, 15, 53, 100
17, 66600, Note_on_c, 15, 53, 0
17, 66600, Note_on_c, 15, 52, 100
17, 66630, Note_on_c, 15, 52, 0
17, 66630, Note_on_c, 15, 50, 100
17, 66660, Note_on_c, 15, 50, 0
17, 66660, Note_on_c, 15, 48, 100
17, 66780, Note_on_c, 15, 48, 0
17, 66780, Note_on_c, 15, 50, 100
17, 66840, Note_on_c, 15, 50, 0
17, 66840, Note_on_c, 15, 52, 100
17, 66960, Note_on_c, 15, 52, 0
17, 66960, Note_on_c, 15, 48, 100
17, 67020, Note_on_c, 15, 48, 0
17, 67020, Note_on_c, 15, 53, 100
17, 67140, Note_on_c, 15, 53, 0
17, 67140, Note_on_c, 15, 48, 100
17, 67200, Note_on_c, 15, 48, 0
17, 67500, Note_on_c, 15, 48, 100
17, 67560, Note_on_c, 15, 48, 0
17, 67560, Note_on_c, 15, 52, 100
17, 67680, Note_on_c, 15, 52, 0
17, 67680, Note_on_c, 15, 55, 100
17, 67740, Note_on_c, 15, 55, 0
17, 67740, Note_on_c, 15, 60, 100
17, 67860, Note_on_c, 15, 60, 0
17, 67860, Note_on_c, 15, 55, 100
17, 67920, Note_on_c, 15, 55, 0
17, 68100, Note_on_c, 15, 60, 100
17, 68160, Note_on_c, 15, 60, 0
17, 68160, Note_on_c, 15, 59, 100
17, 68190, Note_on_c, 15, 59, 0
17, 68190, Note_on_c, 15, 57, 100
17, 68220, Note_on_c, 15, 57, 0
17, 68220, Note_on_c, 15, 55, 100
17, 68250, Note_on_c, 15, 55, 0
17, 68250, Note_on_c, 15, 53, 100
17, 68280, Note_on_c, 15, 53, 0
17, 68280, Note_on_c, 15, 52, 100
17, 68400, Note_on_c, 15, 52, 0
17, 68400, Note_on_c, 15, 53, 100
17, 68460, Note_on_c, 15, 53, 0
17, 68460, Note_on_c, 15, 52, 100
17, 68580, Note_on_c, 15, 52, 0
17, 68580, Note_on_c, 15, 48, 100
17, 68640, Note_on_c, 15, 48, 0
17, 68640, Note_on_c, 15, 55, 100
17, 68760, Note_on_c, 15, 55, 0
17, 68760, Note_on_c, 15, 43, 100
17, 68820, Note_on_c, 15, 43, 0
17, 68820, Note_on_c, 15, 48, 100
17, 68939, Note_on_c, 15, 48, 0
17, 68940, Note_on_c, 15, 50, 100
17, 68999, Note_on_c, 15, 50, 0
17, 69000, Note_on_c, 15, 52, 100
17, 69119, Note_on_c, 15, 52, 0
17, 69120, Note_on_c, 15, 53, 100
17, 69179, Note_on_c, 15, 53, 0
17, 69180, Note_on_c, 15, 52, 100
17, 69299, Note_on_c, 15, 52, 0
17, 69300, Note_on_c, 15, 48, 100
17, 69359, Note_on_c, 15, 48, 0
17, 69360, Note_on_c, 15, 55, 100
17, 69479, Note_on_c, 15, 55, 0
17, 69480, Note_on_c, 15, 43, 100
17, 69539, Note_on_c, 15, 43, 0
17, 69540, Note_on_c, 15, 48, 100
17, 69659, Note_on_c, 15, 48, 0
17, 69660, Note_on_c, 15, 50, 100
17, 69719, Note_on_c, 15, 50, 0
17, 69720, Note_on_c, 15, 52, 100
17, 69839, Note_on_c, 15, 52, 0
17, 69840, Note_on_c, 15, 48, 100
17, 69899, Note_on_c, 15, 48, 0
17, 69900, Note_on_c, 15, 53, 100
17, 70019, Note_on_c, 15, 53, 0
17, 70020, Note_on_c, 15, 52, 100
17, 70079, Note_on_c, 15, 52, 0
17, 70080, Note_on_c, 15, 50, 100
17, 70199, Note_on_c, 15, 50, 0
17, 70200, Note_on_c, 15, 48, 100
17, 70259, Note_on_c, 15, 48, 0
17, 70260, Note_on_c, 15, 55, 100
17, 70379, Note_on_c, 15, 55, 0
17, 70380, Note_on_c, 15, 57, 100
17, 70439, Note_on_c, 15, 57, 0
17, 70440, Note_on_c, 15, 59, 100
17, 70559, Note_on_c, 15, 59, 0
17, 70560, Note_on_c, 15, 55, 100
17, 70619, Note_on_c, 15, 55, 0
17, 70620, Note_on_c, 15, 60, 100
17, 70739, Note_on_c, 15, 60, 0
17, 70740, Note_on_c, 15, 55, 100
17, 70799, Note_on_c, 15, 55, 0
17, 71100, Note_on_c, 15, 55, 100
17, 71159, Note_on_c, 15, 55, 0
17, 71160, Note_on_c, 15, 54, 100
17, 71279, Note_on_c, 15, 54, 0
17, 71280, Note_on_c, 15, 50, 100
17, 71339, Note_on_c, 15, 50, 0
17, 71340, Note_on_c, 15, 43, 100
17, 71459, Note_on_c, 15, 43, 0
17, 71460, Note_on_c, 15, 55, 100
17, 71519, Note_on_c, 15, 55, 0
17, 71520, Note_on_c, 15, 53, 100
17, 71579, Note_on_c, 15, 53, 0
17, 71580, Note_on_c, 15, 47, 100
17, 71639, Note_on_c, 15, 47, 0
17, 71640, Note_on_c, 15, 49, 100
17, 71699, Note_on_c, 15, 49, 0
17, 71700, Note_on_c, 15, 50, 100
17, 71819, Note_on_c, 15, 50, 0
17, 71820, Note_on_c, 15, 52, 100
17, 71879, Note_on_c, 15, 52, 0
17, 71880, Note_on_c, 15, 53, 100
17, 71999, Note_on_c, 15, 53, 0
17, 72000, Note_on_c, 15, 55, 100
17, 72059, Note_on_c, 15, 55, 0
17, 72060, Note_on_c, 15, 53, 100
17, 72179, Note_on_c, 15, 53, 0
17, 72180, Note_on_c, 15, 55, 100
17, 72239, Note_on_c, 15, 55, 0
17, 72240, Note_on_c, 15, 57, 100
17, 72359, Note_on_c, 15, 57, 0
17, 72360, Note_on_c, 15, 45, 100
17, 72419, Note_on_c, 15, 45, 0
17, 72420, Note_on_c, 15, 50, 100
17, 72659, Note_on_c, 15, 50, 0
17, 72660, Note_on_c, 15, 52, 100
17, 72719, Note_on_c, 15, 52, 0
17, 72720, Note_on_c, 15, 53, 100
17, 72779, Note_on_c, 15, 53, 0
17, 72780, Note_on_c, 15, 52, 100
17, 72899, Note_on_c, 15, 52, 0
17, 72900, Note_on_c, 15, 57, 100
17, 72959, Note_on_c, 15, 57, 0
17, 72960, Note_on_c, 15, 50, 100
17, 73079, Note_on_c, 15, 50, 0
17, 73080, Note_on_c, 15, 55, 100
17, 73139, Note_on_c, 15, 55, 0
17, 73140, Note_on_c, 15, 48, 100
17, 73259, Note_on_c, 15, 48, 0
17, 73260, Note_on_c, 15, 47, 100
17, 73319, Note_on_c, 15, 47, 0
17, 73320, Note_on_c, 15, 45, 100
17, 73439, Note_on_c, 15, 45, 0
17, 73440, Note_on_c, 15, 44, 100
17, 73499, Note_on_c, 15, 44, 0
17, 73500, Note_on_c, 15, 45, 100
17, 73619, Note_on_c, 15, 45, 0
17, 73620, Note_on_c, 15, 48, 100
17, 73679, Note_on_c, 15, 48, 0
17, 73680, Note_on_c, 15, 47, 100
17, 73799, Note_on_c, 15, 47, 0
17, 73800, Note_on_c, 15, 56, 100
17, 73859, Note_on_c, 15, 56, 0
17, 73860, Note_on_c, 15, 57, 100
17, 73979, Note_on_c, 15, 57, 0
17, 73980, Note_on_c, 15, 55, 100
17, 74039, Note_on_c, 15, 55, 0
17, 74040, Note_on_c, 15, 54, 100
17, 74159, Note_on_c, 15, 54, 0
17, 74160, Note_on_c, 15, 42, 100
17, 74219, Note_on_c, 15, 42, 0
17, 74220, Note_on_c, 15, 43, 100
17, 74339, Note_on_c, 15, 43, 0
17, 74340, Note_on_c, 15, 47, 100
17, 74399, Note_on_c, 15, 47, 0
17, 74400, Note_on_c, 15, 50, 100
17, 74519, Note_on_c, 15, 50, 0
17, 74520, Note_on_c, 15, 62, 100
17, 74579, Note_on_c, 15, 62, 0
17, 74580, Note_on_c, 15, 55, 100
17, 74699, Note_on_c, 15, 55, 0
17, 74700, Note_on_c, 15, 57, 100
17, 74759, Note_on_c, 15, 57, 0
17, 74760, Note_on_c, 15, 59, 100
17, 74879, Note_on_c, 15, 59, 0
17, 74880, Note_on_c, 15, 55, 100
17, 74939, Note_on_c, 15, 55, 0
17, 74940, Note_on_c, 15, 60, 100
17, 75059, Note_on_c, 15, 60, 0
17, 75060, Note_on_c, 15, 59, 100
17, 75119, Note_on_c, 15, 59, 0
17, 75120, Note_on_c, 15, 57, 100
17, 75239, Note_on_c, 15, 57, 0
17, 75240, Note_on_c, 15, 55, 100
17, 75299, Note_on_c, 15, 55, 0
17, 75300, Note_on_c, 15, 62, 100
17, 75419, Note_on_c, 15, 62, 0
17, 75420, Note_on_c, 15, 57, 100
17, 75479, Note_on_c, 15, 57, 0
17, 75480, Note_on_c, 15, 54, 100
17, 75599, Note_on_c, 15, 54, 0
17, 75600, Note_on_c, 15, 50, 100
17, 75659, Note_on_c, 15, 50, 0
17, 75660, Note_on_c, 15, 55, 100
17, 75779, Note_on_c, 15, 55, 0
17, 75780, Note_on_c, 15, 52, 100
17, 75839, Note_on_c, 15, 52, 0
17, 75840, Note_on_c, 15, 48, 100
17, 75959, Note_on_c, 15, 48, 0
17, 75960, Note_on_c, 15, 50, 100
17, 76019, Note_on_c, 15, 50, 0
17, 76020, Note_on_c, 15, 43, 100
17, 76139, Note_on_c, 15, 43, 0
17, 76500, Note_on_c, 15, 43, 100
17, 76559, Note_on_c, 15, 43, 0
17, 76560, Note_on_c, 15, 47, 100
17, 76679, Note_on_c, 15, 47, 0
17, 76680, Note_on_c, 15, 43, 100
17, 76739, Note_on_c, 15, 43, 0
17, 76740, Note_on_c, 15, 48, 100
17, 76859, Note_on_c, 15, 48, 0
17, 77100, Note_on_c, 15, 46, 100
17, 77219, Note_on_c, 15, 46, 0
17, 77460, Note_on_c, 15, 45, 100
17, 77579, Note_on_c, 15, 45, 0
17, 77640, Note_on_c, 15, 49, 100
17, 77759, Note_on_c, 15, 49, 0
17, 77760, Note_on_c, 15, 45, 100
17, 77819, Note_on_c, 15, 45, 0
17, 77820, Note_on_c, 15, 50, 100
17, 77939, Note_on_c, 15, 50, 0
17, 77940, Note_on_c, 15, 62, 100
17, 77999, Note_on_c, 15, 62, 0
17, 78000, Note_on_c, 15, 57, 100
17, 78119, Note_on_c, 15, 57, 0
17, 78120, Note_on_c, 15, 54, 100
17, 78179, Note_on_c, 15, 54, 0
17, 78180, Note_on_c, 15, 50, 100
17, 78299, Note_on_c, 15, 50, 0
17, 78300, Note_on_c, 15, 45, 100
17, 78359, Note_on_c, 15, 45, 0
17, 78360, Note_on_c, 15, 42, 100
17, 78479, Note_on_c, 15, 42, 0
17, 78480, Note_on_c, 15, 54, 100
17, 78539, Note_on_c, 15, 54, 0
17, 78540, Note_on_c, 15, 55, 100
17, 78659, Note_on_c, 15, 55, 0
17, 78720, Note_on_c, 15, 43, 100
17, 78839, Note_on_c, 15, 43, 0
17, 78900, Note_on_c, 15, 48, 100
17, 79019, Note_on_c, 15, 48, 0
17, 79020, Note_on_c, 15, 52, 100
17, 79079, Note_on_c, 15, 52, 0
17, 79080, Note_on_c, 15, 48, 100
17, 79199, Note_on_c, 15, 48, 0
17, 79200, Note_on_c, 15, 45, 100
17, 79259, Note_on_c, 15, 45, 0
17, 79260, Note_on_c, 15, 50, 100
17, 79379, Note_on_c, 15, 50, 0
17, 79620, Note_on_c, 15, 55, 100
17, 79739, Note_on_c, 15, 55, 0
17, 80160, Note_on_c, 15, 52, 100
17, 80279, Note_on_c, 15, 52, 0
17, 80700, Note_on_c, 15, 50, 100
17, 80819, Note_on_c, 15, 50, 0
17, 81240, Note_on_c, 15, 54, 100
17, 81359, Note_on_c, 15, 54, 0
17, 81360, Note_on_c, 15, 50, 100
17, 81419, Note_on_c, 15, 50, 0
17, 81420, Note_on_c, 15, 55, 100
17, 81539, Note_on_c, 15, 55, 0
17, 81540, Note_on_c, 15, 52, 100
17, 81599, Note_on_c, 15, 52, 0
17, 81600, Note_on_c, 15, 48, 100
17, 81719, Note_on_c, 15, 48, 0
17, 81720, Note_on_c, 15, 50, 100
17, 81779, Note_on_c, 15, 50, 0
17, 81780, Note_on_c, 15, 43, 100
17, 81899, Note_on_c, 15, 43, 0
17, 81900, Note_on_c, 15, 45, 100
17, 81959, Note_on_c, 15, 45, 0
17, 81960, Note_on_c, 15, 47, 100
17, 82079, Note_on_c, 15, 47, 0
17, 82080, Note_on_c, 15, 48, 100
17, 82139, Note_on_c, 15, 48, 0
17, 82140, Note_on_c, 15, 47, 100
17, 82259, Note_on_c, 15, 47, 0
17, 82260, Note_on_c, 15, 52, 100
17, 82319, Note_on_c, 15, 52, 0
17, 82320, Note_on_c, 15, 45, 100
17, 82439, Note_on_c, 15, 45, 0
17, 82440, Note_on_c, 15, 50, 100
17, 82499, Note_on_c, 15, 50, 0
17, 82500, Note_on_c, 15, 43, 100
17, 82559, Note_on_c, 15, 43, 0
17, 82560, Note_on_c, 15, 45, 100
17, 82619, Note_on_c, 15, 45, 0
17, 82620, Note_on_c, 15, 47, 100
17, 82679, Note_on_c, 15, 47, 0
17, 82680, Note_on_c, 15, 48, 100
17, 82799, Note_on_c, 15, 48, 0
17, 82800, Note_on_c, 15, 47, 100
17, 82859, Note_on_c, 15, 47, 0
17, 82860, Note_on_c, 15, 48, 100
17, 82979, Note_on_c, 15, 48, 0
17, 82980, Note_on_c, 15, 50, 100
17, 83039, Note_on_c, 15, 50, 0
17, 83040, Note_on_c, 15, 52, 100
17, 83159, Note_on_c, 15, 52, 0
17, 83160, Note_on_c, 15, 40, 100
17, 83219, Note_on_c, 15, 40, 0
17, 83220, Note_on_c, 15, 45, 100
17, 83459, Note_on_c, 15, 45, 0
17, 83460, Note_on_c, 15, 57, 100
17, 83519, Note_on_c, 15, 57, 0
17, 83520, Note_on_c, 15, 55, 100
17, 83579, Note_on_c, 15, 55, 0
17, 83580, Note_on_c, 15, 54, 100
17, 83639, Note_on_c, 15, 54, 0
17, 83640, Note_on_c, 15, 52, 100
17, 83699, Note_on_c, 15, 52, 0
17, 83700, Note_on_c, 15, 54, 100
17, 83759, Note_on_c, 15, 54, 0
17, 83760, Note_on_c, 15, 55, 100
17, 83819, Note_on_c, 15, 55, 0
17, 83820, Note_on_c, 15, 54, 100
17, 83879, Note_on_c, 15, 54, 0
17, 83880, Note_on_c, 15, 52, 100
17, 83939, Note_on_c, 15, 52, 0
17, 83940, Note_on_c, 15, 54, 100
17, 83999, Note_on_c, 15, 54, 0
17, 84000, Note_on_c, 15, 57, 100
17, 84059, Note_on_c, 15, 57, 0
17, 84060, Note_on_c, 15, 55, 100
17, 84119, Note_on_c, 15, 55, 0
17, 84120, Note_on_c, 15, 54, 100
17, 84179, Note_on_c, 15, 54, 0
17, 84180, Note_on_c, 15, 52, 100
17, 84239, Note_on_c, 15, 52, 0
17, 84240, Note_on_c, 15, 50, 100
17, 84299, Note_on_c, 15, 50, 0
17, 84300, Note_on_c, 15, 55, 100
17, 84419, Note_on_c, 15, 55, 0
17, 84420, Note_on_c, 15, 52, 100
17, 84479, Note_on_c, 15, 52, 0
17, 84480, Note_on_c, 15, 48, 100
17, 84599, Note_on_c, 15, 48, 0
17, 84600, Note_on_c, 15, 50, 100
17, 84659, Note_on_c, 15, 50, 0
17, 84660, Note_on_c, 15, 43, 100
17, 84779, Note_on_c, 15, 43, 0
17, 84780, Note_on_c, 15, 55, 100
17, 84839, Note_on_c, 15, 55, 0
17, 84840, Note_on_c, 15, 54, 100
17, 84899, Note_on_c, 15, 54, 0
17, 84900, Note_on_c, 15, 52, 100
17, 84959, Note_on_c, 15, 52, 0
17, 84960, Note_on_c, 15, 50, 100
17, 85019, Note_on_c, 15, 50, 0
17, 85020, Note_on_c, 15, 55, 100
17, 85139, Note_on_c, 15, 55, 0
17, 85140, Note_on_c, 15, 53, 100
17, 85199, Note_on_c, 15, 53, 0
17, 85200, Note_on_c, 15, 52, 100
17, 85259, Note_on_c, 15, 52, 0
17, 85260, Note_on_c, 15, 53, 100
17, 85319, Note_on_c, 15, 53, 0
17, 85320, Note_on_c, 15, 55, 100
17, 85379, Note_on_c, 15, 55, 0
17, 85380, Note_on_c, 15, 48, 100
17, 85499, Note_on_c, 15, 48, 0
17, 85500, Note_on_c, 15, 52, 100
17, 85559, Note_on_c, 15, 52, 0
17, 85560, Note_on_c, 15, 50, 100
17, 85679, Note_on_c, 15, 50, 0
17, 85680, Note_on_c, 15, 48, 100
17, 85739, Note_on_c, 15, 48, 0
17, 85740, Note_on_c, 15, 47, 100
17, 85859, Note_on_c, 15, 47, 0
17, 85860, Note_on_c, 15, 48, 100
17, 85919, Note_on_c, 15, 48, 0
17, 85920, Note_on_c, 15, 50, 100
17, 86039, Note_on_c, 15, 50, 0
17, 86040, Note_on_c, 15, 47, 100
17, 86099, Note_on_c, 15, 47, 0
17, 86100, Note_on_c, 15, 52, 100
17, 86219, Note_on_c, 15, 52, 0
17, 86220, Note_on_c, 15, 64, 100
17, 86279, Note_on_c, 15, 64, 0
17, 86280, Note_on_c, 15, 62, 100
17, 86399, Note_on_c, 15, 62, 0
17, 86400, Note_on_c, 15, 59, 100
17, 86459, Note_on_c, 15, 59, 0
17, 86460, Note_on_c, 15, 60, 100
17, 86579, Note_on_c, 15, 60, 0
17, 86580, Note_on_c, 15, 57, 100
17, 86639, Note_on_c, 15, 57, 0
17, 86640, Note_on_c, 15, 56, 100
17, 86759, Note_on_c, 15, 56, 0
17, 86760, Note_on_c, 15, 52, 100
17, 86819, Note_on_c, 15, 52, 0
17, 86820, Note_on_c, 15, 57, 100
17, 86939, Note_on_c, 15, 57, 0
17, 86940, Note_on_c, 15, 55, 100
17, 86999, Note_on_c, 15, 55, 0
17, 87000, Note_on_c, 15, 53, 100
17, 87059, Note_on_c, 15, 53, 0
17, 87060, Note_on_c, 15, 55, 100
17, 87119, Note_on_c, 15, 55, 0
17, 87120, Note_on_c, 15, 57, 100
17, 87179, Note_on_c, 15, 57, 0
17, 87180, Note_on_c, 15, 58, 100
17, 87299, Note_on_c, 15, 58, 0
17, 87300, Note_on_c, 15, 57, 100
17, 87359, Note_on_c, 15, 57, 0
17, 87360, Note_on_c, 15, 55, 100
17, 87479, Note_on_c, 15, 55, 0
17, 87480, Note_on_c, 15, 57, 100
17, 87539, Note_on_c, 15, 57, 0
17, 87540, Note_on_c, 15, 50, 100
17, 87659, Note_on_c, 15, 50, 0
17, 87660, Note_on_c, 15, 53, 100
17, 87719, Note_on_c, 15, 53, 0
17, 87720, Note_on_c, 15, 57, 100
17, 87839, Note_on_c, 15, 57, 0
17, 87840, Note_on_c, 15, 62, 100
17, 87899, Note_on_c, 15, 62, 0
17, 87900, Note_on_c, 15, 55, 100
17, 88019, Note_on_c, 15, 55, 0
17, 88020, Note_on_c, 15, 58, 100
17, 88079, Note_on_c, 15, 58, 0
17, 88080, Note_on_c, 15, 50, 100
17, 88199, Note_on_c, 15, 50, 0
17, 88200, Note_on_c, 15, 54, 100
17, 88259, Note_on_c, 15, 54, 0
17, 88260, Note_on_c, 15, 55, 100
17, 88379, Note_on_c, 15, 55, 0
17, 88380, Note_on_c, 15, 62, 100
17, 88439, Note_on_c, 15, 62, 0
17, 88440, Note_on_c, 15, 58, 100
17, 88559, Note_on_c, 15, 58, 0
17, 88560, Note_on_c, 15, 55, 100
17, 88619, Note_on_c, 15, 55, 0
17, 88620, Note_on_c, 15, 52, 100
17, 88739, Note_on_c, 15, 52, 0
17, 88740, Note_on_c, 15, 55, 100
17, 88799, Note_on_c, 15, 55, 0
17, 88800, Note_on_c, 15, 48, 100
17, 88919, Note_on_c, 15, 48, 0
17, 88920, Note_on_c, 15, 55, 100
17, 88979, Note_on_c, 15, 55, 0
17, 88980, Note_on_c, 15, 60, 100
17, 89099, Note_on_c, 15, 60, 0
17, 89100, Note_on_c, 15, 48, 100
17, 89159, Note_on_c, 15, 48, 0
17, 89160, Note_on_c, 15, 53, 100
17, 89279, Note_on_c, 15, 53, 0
17, 89280, Note_on_c, 15, 52, 100
17, 89339, Note_on_c, 15, 52, 0
17, 89340, Note_on_c, 15, 53, 100
17, 89459, Note_on_c, 15, 53, 0
17, 89880, Note_on_c, 15, 47, 100
17, 89999, Note_on_c, 15, 47, 0
17, 90000, Note_on_c, 15, 45, 100
17, 90060, Note_on_c, 15, 45, 0
17, 90060, Note_on_c, 15, 44, 100
17, 90179, Note_on_c, 15, 44, 0
17, 90180, Note_on_c, 15, 56, 100
17, 90240, Note_on_c, 15, 56, 0
17, 90240, Note_on_c, 15, 57, 100
17, 90359, Note_on_c, 15, 57, 0
17, 90360, Note_on_c, 15, 50, 100
17, 90420, Note_on_c, 15, 50, 0
17, 90420, Note_on_c, 15, 52, 100
17, 90539, Note_on_c, 15, 52, 0
17, 90960, Note_on_c, 15, 50, 100
17, 91079, Note_on_c, 15, 50, 0
17, 91500, Note_on_c, 15, 48, 100
17, 91619, Note_on_c, 15, 48, 0
17, 91980, Note_on_c, 15, 60, 100
17, 92039, Note_on_c, 15, 60, 0
17, 92040, Note_on_c, 15, 59, 100
17, 92099, Note_on_c, 15, 59, 0
17, 92100, Note_on_c, 15, 57, 100
17, 92159, Note_on_c, 15, 57, 0
17, 92160, Note_on_c, 15, 56, 100
17, 92219, Note_on_c, 15, 56, 0
17, 92220, Note_on_c, 15, 57, 100
17, 92339, Note_on_c, 15, 57, 0
17, 92340, Note_on_c, 15, 60, 100
17, 92399, Note_on_c, 15, 60, 0
17, 92400, Note_on_c, 15, 64, 100
17, 92519, Note_on_c, 15, 64, 0
17, 92520, Note_on_c, 15, 52, 100
17, 92579, Note_on_c, 15, 52, 0
17, 92580, Note_on_c, 15, 57, 100
17, 92699, Note_on_c, 15, 57, 0
17, 92700, Note_on_c, 15, 59, 100
17, 92759, Note_on_c, 15, 59, 0
17, 92760, Note_on_c, 15, 60, 100
17, 92879, Note_on_c, 15, 60, 0
17, 92880, Note_on_c, 15, 57, 100
17, 92939, Note_on_c, 15, 57, 0
17, 92940, Note_on_c, 15, 62, 100
17, 93059, Note_on_c, 15, 62, 0
17, 93060, Note_on_c, 15, 60, 100
17, 93119, Note_on_c, 15, 60, 0
17, 93120, Note_on_c, 15, 59, 100
17, 93239, Note_on_c, 15, 59, 0
17, 93240, Note_on_c, 15, 57, 100
17, 93299, Note_on_c, 15, 57, 0
17, 93300, Note_on_c, 15, 56, 100
17, 93359, Note_on_c, 15, 56, 0
17, 93360, Note_on_c, 15, 59, 100
17, 93419, Note_on_c, 15, 59, 0
17, 93420, Note_on_c, 15, 57, 100
17, 93479, Note_on_c, 15, 57, 0
17, 93480, Note_on_c, 15, 56, 100
17, 93539, Note_on_c, 15, 56, 0
17, 93540, Note_on_c, 15, 54, 100
17, 93599, Note_on_c, 15, 54, 0
17, 93600, Note_on_c, 15, 52, 100
17, 93659, Note_on_c, 15, 52, 0
17, 93660, Note_on_c, 15, 57, 100
17, 93780, Note_on_c, 15, 57, 0
17, 93780, Note_on_c, 15, 55, 100
17, 93839, Note_on_c, 15, 55, 0
17, 93840, Note_on_c, 15, 53, 100
17, 93960, Note_on_c, 15, 53, 0
17, 93960, Note_on_c, 15, 52, 100
17, 94019, Note_on_c, 15, 52, 0
17, 94020, Note_on_c, 15, 50, 100
17, 94079, Note_on_c, 15, 50, 0
17, 94080, Note_on_c, 15, 52, 100
17, 94139, Note_on_c, 15, 52, 0
17, 94140, Note_on_c, 15, 53, 100
17, 94199, Note_on_c, 15, 53, 0
17, 94200, Note_on_c, 15, 47, 100
17, 94259, Note_on_c, 15, 47, 0
17, 94260, Note_on_c, 15, 48, 100
17, 94319, Note_on_c, 15, 48, 0
17, 94320, Note_on_c, 15, 50, 100
17, 94379, Note_on_c, 15, 50, 0
17, 94380, Note_on_c, 15, 52, 100
17, 94499, Note_on_c, 15, 52, 0
17, 94500, Note_on_c, 15, 50, 100
17, 94559, Note_on_c, 15, 50, 0
17, 94560, Note_on_c, 15, 48, 100
17, 94619, Note_on_c, 15, 48, 0
17, 94620, Note_on_c, 15, 50, 100
17, 94679, Note_on_c, 15, 50, 0
17, 94680, Note_on_c, 15, 52, 100
17, 94739, Note_on_c, 15, 52, 0
17, 94740, Note_on_c, 15, 53, 100
17, 94919, Note_on_c, 15, 53, 0
17, 95040, Note_on_c, 15, 53, 100
17, 95099, Note_on_c, 15, 53, 0
17, 95100, Note_on_c, 15, 47, 100
17, 95219, Note_on_c, 15, 47, 0
17, 95220, Note_on_c, 15, 45, 100
17, 95279, Note_on_c, 15, 45, 0
17, 95280, Note_on_c, 15, 52, 100
17, 95399, Note_on_c, 15, 52, 0
17, 95400, Note_on_c, 15, 40, 100
17, 95459, Note_on_c, 15, 40, 0
17, 95460, Note_on_c, 15, 45, 100
17, 95579, Note_on_c, 15, 45, 0
17, 95580, Note_on_c, 15, 52, 100
17, 95639, Note_on_c, 15, 52, 0
17, 95640, Note_on_c, 15, 57, 100
17, 95759, Note_on_c, 15, 57, 0
17, 95760, Note_on_c, 15, 55, 100
17, 95819, Note_on_c, 15, 55, 0
17, 95820, Note_on_c, 15, 54, 100
17, 95939, Note_on_c, 15, 54, 0
17, 95940, Note_on_c, 15, 55, 100
17, 95999, Note_on_c, 15, 55, 0
17, 96000, Note_on_c, 15, 57, 100
17, 96119, Note_on_c, 15, 57, 0
17, 96120, Note_on_c, 15, 50, 100
17, 96179, Note_on_c, 15, 50, 0
17, 96180, Note_on_c, 15, 55, 100
17, 96299, Note_on_c, 15, 55, 0
17, 96300, Note_on_c, 15, 57, 100
17, 96359, Note_on_c, 15, 57, 0
17, 96360, Note_on_c, 15, 58, 100
17, 96479, Note_on_c, 15, 58, 0
17, 96480, Note_on_c, 15, 55, 100
17, 96539, Note_on_c, 15, 55, 0
17, 96540, Note_on_c, 15, 52, 100
17, 96659, Note_on_c, 15, 52, 0
17, 96660, Note_on_c, 15, 50, 100
17, 96719, Note_on_c, 15, 50, 0
17, 96720, Note_on_c, 15, 52, 100
17, 96779, Note_on_c, 15, 52, 0
17, 96780, Note_on_c, 15, 50, 100
17, 96839, Note_on_c, 15, 50, 0
17, 96840, Note_on_c, 15, 49, 100
17, 96899, Note_on_c, 15, 49, 0
17, 96900, Note_on_c, 15, 50, 100
17, 97019, Note_on_c, 15, 50, 0
17, 97020, Note_on_c, 15, 57, 100
17, 97079, Note_on_c, 15, 57, 0
17, 97080, Note_on_c, 15, 62, 100
17, 97199, Note_on_c, 15, 62, 0
17, 97200, Note_on_c, 15, 50, 100
17, 97259, Note_on_c, 15, 50, 0
17, 97260, Note_on_c, 15, 55, 100
17, 97379, Note_on_c, 15, 55, 0
17, 97380, Note_on_c, 15, 45, 100
17, 97439, Note_on_c, 15, 45, 0
17, 97440, Note_on_c, 15, 48, 100
17, 97499, Note_on_c, 15, 48, 0
17, 97500, Note_on_c, 15, 47, 100
17, 97559, Note_on_c, 15, 47, 0
17, 97560, Note_on_c, 15, 45, 100
17, 97619, Note_on_c, 15, 45, 0
17, 97620, Note_on_c, 15, 43, 100
17, 97739, Note_on_c, 15, 43, 0
17, 97740, Note_on_c, 15, 45, 100
17, 97799, Note_on_c, 15, 45, 0
17, 97800, Note_on_c, 15, 47, 100
17, 97919, Note_on_c, 15, 47, 0
17, 97920, Note_on_c, 15, 43, 100
17, 97979, Note_on_c, 15, 43, 0
17, 97980, Note_on_c, 15, 48, 100
17, 98099, Note_on_c, 15, 48, 0
17, 98100, Note_on_c, 15, 55, 100
17, 98159, Note_on_c, 15, 55, 0
17, 98160, Note_on_c, 15, 52, 100
17, 98219, Note_on_c, 15, 52, 0
17, 98220, Note_on_c, 15, 48, 100
17, 98279, Note_on_c, 15, 48, 0
17, 98280, Note_on_c, 15, 52, 100
17, 98339, Note_on_c, 15, 52, 0
17, 98340, Note_on_c, 15, 53, 100
17, 98519, Note_on_c, 15, 53, 0
17, 98640, Note_on_c, 15, 52, 100
17, 98699, Note_on_c, 15, 52, 0
17, 98700, Note_on_c, 15, 50, 100
17, 98819, Note_on_c, 15, 50, 0
17, 98820, Note_on_c, 15, 45, 100
17, 98879, Note_on_c, 15, 45, 0
17, 98880, Note_on_c, 15, 50, 100
17, 98939, Note_on_c, 15, 50, 0
17, 98940, Note_on_c, 15, 52, 100
17, 98999, Note_on_c, 15, 52, 0
17, 99000, Note_on_c, 15, 54, 100
17, 99059, Note_on_c, 15, 54, 0
17, 99060, Note_on_c, 15, 55, 100
17, 99239, Note_on_c, 15, 55, 0
17, 99360, Note_on_c, 15, 62, 100
17, 99419, Note_on_c, 15, 62, 0
17, 99420, Note_on_c, 15, 59, 100
17, 99539, Note_on_c, 15, 59, 0
17, 99540, Note_on_c, 15, 55, 100
17, 99599, Note_on_c, 15, 55, 0
17, 99600, Note_on_c, 15, 57, 100
17, 99719, Note_on_c, 15, 57, 0
17, 99720, Note_on_c, 15, 59, 100
17, 99779, Note_on_c, 15, 59, 0
17, 99780, Note_on_c, 15, 60, 100
17, 99899, Note_on_c, 15, 60, 0
17, 99900, Note_on_c, 15, 48, 100
17, 99959, Note_on_c, 15, 48, 0
17, 99960, Note_on_c, 15, 50, 100
17, 100079, Note_on_c, 15, 50, 0
17, 100080, Note_on_c, 15, 52, 100
17, 100139, Note_on_c, 15, 52, 0
17, 100140, Note_on_c, 15, 53, 100
17, 100259, Note_on_c, 15, 53, 0
17, 100440, Note_on_c, 15, 50, 100
17, 100499, Note_on_c, 15, 50, 0
17, 100500, Note_on_c, 15, 53, 100
17, 100619, Note_on_c, 15, 53, 0
17, 100620, Note_on_c, 15, 57, 100
17, 100679, Note_on_c, 15, 57, 0
17, 100680, Note_on_c, 15, 50, 100
17, 100799, Note_on_c, 15, 50, 0
17, 100800, Note_on_c, 15, 53, 100
17, 100859, Note_on_c, 15, 53, 0
17, 100860, Note_on_c, 15, 55, 100
17, 100979, Note_on_c, 15, 55, 0
17, 100980, Note_on_c, 15, 43, 100
17, 101039, Note_on_c, 15, 43, 0
17, 101040, Note_on_c, 15, 55, 100
17, 101159, Note_on_c, 15, 55, 0
17, 101160, Note_on_c, 15, 53, 100
17, 101219, Note_on_c, 15, 53, 0
17, 101220, Note_on_c, 15, 52, 100
17, 101339, Note_on_c, 15, 52, 0
17, 101400, Note_on_c, 15, 54, 100
17, 101519, Note_on_c, 15, 54, 0
17, 101580, Note_on_c, 15, 55, 100
17, 101699, Note_on_c, 15, 55, 0
17, 101760, Note_on_c, 15, 56, 100
17, 101879, Note_on_c, 15, 56, 0
17, 101940, Note_on_c, 15, 57, 100
17, 102059, Note_on_c, 15, 57, 0
17, 102480, Note_on_c, 15, 59, 100
17, 102539, Note_on_c, 15, 59, 0
17, 102540, Note_on_c, 15, 57, 100
17, 102599, Note_on_c, 15, 57, 0
17, 102600, Note_on_c, 15, 55, 100
17, 102659, Note_on_c, 15, 55, 0
17, 102660, Note_on_c, 15, 60, 100
17, 102719, Note_on_c, 15, 60, 0
17, 102720, Note_on_c, 15, 59, 100
17, 102779, Note_on_c, 15, 59, 0
17, 102780, Note_on_c, 15, 57, 100
17, 102839, Note_on_c, 15, 57, 0
17, 102840, Note_on_c, 15, 55, 100
17, 102899, Note_on_c, 15, 55, 0
17, 102900, Note_on_c, 15, 53, 100
17, 102959, Note_on_c, 15, 53, 0
17, 102960, Note_on_c, 15, 52, 100
17, 103019, Note_on_c, 15, 52, 0
17, 103020, Note_on_c, 15, 53, 100
17, 103139, Note_on_c, 15, 53, 0
17, 103560, Note_on_c, 15, 52, 100
17, 103679, Note_on_c, 15, 52, 0
17, 104100, Note_on_c, 15, 45, 100
17, 104219, Note_on_c, 15, 45, 0
17, 104640, Note_on_c, 15, 40, 100
17, 104759, Note_on_c, 15, 40, 0
17, 105120, Note_on_c, 15, 55, 100
17, 105179, Note_on_c, 15, 55, 0
17, 105180, Note_on_c, 15, 57, 100
17, 105299, Note_on_c, 15, 57, 0
17, 105300, Note_on_c, 15, 53, 100
17, 105359, Note_on_c, 15, 53, 0
17, 105360, Note_on_c, 15, 55, 100
17, 105479, Note_on_c, 15, 55, 0
17, 105480, Note_on_c, 15, 43, 100
17, 105539, Note_on_c, 15, 43, 0
17, 105540, Note_on_c, 15, 48, 100
17, 105659, Note_on_c, 15, 48, 0
17, 105660, Note_on_c, 15, 50, 100
17, 105719, Note_on_c, 15, 50, 0
17, 105720, Note_on_c, 15, 52, 100
17, 105839, Note_on_c, 15, 52, 0
17, 105840, Note_on_c, 15, 45, 100
17, 105899, Note_on_c, 15, 45, 0
17, 105900, Note_on_c, 15, 47, 100
17, 106019, Note_on_c, 15, 47, 0
17, 106020, Note_on_c, 15, 48, 100
17, 106079, Note_on_c, 15, 48, 0
17, 106080, Note_on_c, 15, 50, 100
17, 106199, Note_on_c, 15, 50, 0
17, 106200, Note_on_c, 15, 38, 100
17, 106259, Note_on_c, 15, 38, 0
17, 106260, Note_on_c, 15, 43, 100
17, 106379, Note_on_c, 15, 43, 0
17, 106380, Note_on_c, 15, 45, 100
17, 106439, Note_on_c, 15, 45, 0
17, 106440, Note_on_c, 15, 47, 100
17, 106559, Note_on_c, 15, 47, 0
17, 106560, Note_on_c, 15, 43, 100
17, 106619, Note_on_c, 15, 43, 0
17, 106620, Note_on_c, 15, 48, 100
17, 106739, Note_on_c, 15, 48, 0
17, 106740, Note_on_c, 15, 50, 100
17, 106799, Note_on_c, 15, 50, 0
17, 106800, Note_on_c, 15, 52, 100
17, 106919, Note_on_c, 15, 52, 0
17, 106920, Note_on_c, 15, 40, 100
17, 106979, Note_on_c, 15, 40, 0
17, 106980, Note_on_c, 15, 45, 100
17, 107039, Note_on_c, 15, 45, 0
17, 107040, Note_on_c, 15, 47, 100
17, 107099, Note_on_c, 15, 47, 0
17, 107100, Note_on_c, 15, 48, 100
17, 107159, Note_on_c, 15, 48, 0
17, 107160, Note_on_c, 15, 47, 100
17, 107219, Note_on_c, 15, 47, 0
17, 107220, Note_on_c, 15, 45, 100
17, 107279, Note_on_c, 15, 45, 0
17, 107280, Note_on_c, 15, 43, 100
17, 107339, Note_on_c, 15, 43, 0
17, 107340, Note_on_c, 15, 48, 100
17, 107459, Note_on_c, 15, 48, 0
17, 107460, Note_on_c, 15, 45, 100
17, 107519, Note_on_c, 15, 45, 0
17, 107520, Note_on_c, 15, 41, 100
17, 107639, Note_on_c, 15, 41, 0
17, 107640, Note_on_c, 15, 43, 100
17, 107699, Note_on_c, 15, 43, 0
17, 107700, Note_on_c, 15, 36, 100
17, 107819, Note_on_c, 15, 36, 0
17, 108060, Note_on_c, 15, 41, 100
17, 108179, Note_on_c, 15, 41, 0
17, 108420, Note_on_c, 15, 38, 100
17, 108539, Note_on_c, 15, 38, 0
17, 108780, Note_on_c, 15, 43, 100
17, 108899, Note_on_c, 15, 43, 0
17, 109140, Note_on_c, 15, 59, 100
17, 109199, Note_on_c, 15, 59, 0
17, 109200, Note_on_c, 15, 57, 100
17, 109259, Note_on_c, 15, 57, 0
17, 109260, Note_on_c, 15, 55, 100
17, 109319, Note_on_c, 15, 55, 0
17, 109320, Note_on_c, 15, 60, 100
17, 109379, Note_on_c, 15, 60, 0
17, 109380, Note_on_c, 15, 55, 100
17, 109439, Note_on_c, 15, 55, 0
17, 109440, Note_on_c, 15, 57, 100
17, 109499, Note_on_c, 15, 57, 0
17, 109500, Note_on_c, 15, 53, 100
17, 109559, Note_on_c, 15, 53, 0
17, 109560, Note_on_c, 15, 55, 100
17, 109619, Note_on_c, 15, 55, 0
17, 109620, Note_on_c, 15, 43, 100
17, 109679, Note_on_c, 15, 43, 0
17, 109680, Note_on_c, 15, 36, 100
17, 109859, Note_on_c, 15, 36, 0
17, 109980, Note_on_c, 15, 47, 90
17, 110459, Note_on_c, 15, 47, 0
17, 110460, Note_on_c, 15, 48, 90
17, 110519, Note_on_c, 15, 48, 0
17, 110520, Note_on_c, 15, 50, 90
17, 110579, Note_on_c, 15, 50, 0
17, 110580, Note_on_c, 15, 52, 90
17, 110639, Note_on_c, 15, 52, 0
17, 110640, Note_on_c, 15, 48, 90
17, 110699, Note_on_c, 15, 48, 0
17, 110700, Note_on_c, 15, 53, 90
17, 110759, Note_on_c, 15, 53, 0
17, 110760, Note_on_c, 15, 55, 90
17, 110819, Note_on_c, 15, 55, 0
17, 110820, Note_on_c, 15, 57, 90
17, 110879, Note_on_c, 15, 57, 0
17, 110880, Note_on_c, 15, 53, 90
17, 110939, Note_on_c, 15, 53, 0
17, 110940, Note_on_c, 15, 58, 90
17, 110999, Note_on_c, 15, 58, 0
17, 111000, Note_on_c, 15, 57, 90
17, 111059, Note_on_c, 15, 57, 0
17, 111060, Note_on_c, 15, 55, 90
17, 111119, Note_on_c, 15, 55, 0
17, 111120, Note_on_c, 15, 57, 90
17, 111179, Note_on_c, 15, 57, 0
17, 111180, Note_on_c, 15, 50, 90
17, 111239, Note_on_c, 15, 50, 0
17, 111240, Note_on_c, 15, 52, 90
17, 111299, Note_on_c, 15, 52, 0
17, 111300, Note_on_c, 15, 53, 90
17, 111359, Note_on_c, 15, 53, 0
17, 111360, Note_on_c, 15, 50, 90
17, 111419, Note_on_c, 15, 50, 0
17, 111420, Note_on_c, 15, 56, 90
17, 111479, Note_on_c, 15, 56, 0
17, 111480, Note_on_c, 15, 59, 90
17, 111539, Note_on_c, 15, 59, 0
17, 111540, Note_on_c, 15, 52, 90
17, 111599, Note_on_c, 15, 52, 0
17, 111600, Note_on_c, 15, 56, 90
17, 111659, Note_on_c, 15, 56, 0
17, 111660, Note_on_c, 15, 57, 90
17, 111719, Note_on_c, 15, 57, 0
17, 111720, Note_on_c, 15, 59, 90
17, 111779, Note_on_c, 15, 59, 0
17, 111780, Note_on_c, 15, 60, 90
17, 111839, Note_on_c, 15, 60, 0
17, 111840, Note_on_c, 15, 48, 90
17, 111899, Note_on_c, 15, 48, 0
17, 111900, Note_on_c, 15, 50, 90
17, 112019, Note_on_c, 15, 50, 0
17, 112080, Note_on_c, 15, 52, 90
17, 112139, Note_on_c, 15, 52, 0
17, 112140, Note_on_c, 15, 45, 90
17, 112199, Note_on_c, 15, 45, 0
17, 112200, Note_on_c, 15, 47, 90
17, 112259, Note_on_c, 15, 47, 0
17, 112260, Note_on_c, 15, 48, 90
17, 112319, Note_on_c, 15, 48, 0
17, 112320, Note_on_c, 15, 45, 90
17, 112379, Note_on_c, 15, 45, 0
17, 112380, Note_on_c, 15, 50, 90
17, 112739, Note_on_c, 15, 50, 0
17, 112740, Note_on_c, 15, 45, 90
17, 112859, Note_on_c, 15, 45, 0
17, 112860, Note_on_c, 15, 42, 90
17, 112919, Note_on_c, 15, 42, 0
17, 112920, Note_on_c, 15, 38, 90
17, 112979, Note_on_c, 15, 38, 0
17, 112980, Note_on_c, 15, 43, 90
17, 113039, Note_on_c, 15, 43, 0
17, 113040, Note_on_c, 15, 48, 90
17, 113159, Note_on_c, 15, 48, 0
17, 113160, Note_on_c, 15, 45, 90
17, 113219, Note_on_c, 15, 45, 0
17, 113220, Note_on_c, 15, 46, 90
17, 113279, Note_on_c, 15, 46, 0
17, 113280, Note_on_c, 15, 51, 90
17, 113339, Note_on_c, 15, 51, 0
17, 113340, Note_on_c, 15, 50, 90
17, 113399, Note_on_c, 15, 50, 0
17, 113400, Note_on_c, 15, 48, 90
17, 113459, Note_on_c, 15, 48, 0
17, 113460, Note_on_c, 15, 50, 90
17, 113519, Note_on_c, 15, 50, 0
17, 113520, Note_on_c, 15, 51, 90
17, 113579, Note_on_c, 15, 51, 0
17, 113580, Note_on_c, 15, 46, 90
17, 113639, Note_on_c, 15, 46, 0
17, 113640, Note_on_c, 15, 48, 90
17, 113699, Note_on_c, 15, 48, 0
17, 113700, Note_on_c, 15, 50, 90
17, 113759, Note_on_c, 15, 50, 0
17, 113760, Note_on_c, 15, 38, 90
17, 113819, Note_on_c, 15, 38, 0
17, 113820, Note_on_c, 15, 43, 90
17, 114299, Note_on_c, 15, 43, 0
17, 114300, Note_on_c, 15, 48, 90
17, 114359, Note_on_c, 15, 48, 0
17, 114360, Note_on_c, 15, 50, 90
17, 114419, Note_on_c, 15, 50, 0
17, 114420, Note_on_c, 15, 52, 90
17, 114479, Note_on_c, 15, 52, 0
17, 114480, Note_on_c, 15, 48, 90
17, 114539, Note_on_c, 15, 48, 0
17, 114540, Note_on_c, 15, 45, 90
17, 114599, Note_on_c, 15, 45, 0
17, 114600, Note_on_c, 15, 41, 90
17, 114659, Note_on_c, 15, 41, 0
17, 114660, Note_on_c, 15, 53, 90
17, 114719, Note_on_c, 15, 53, 0
17, 114720, Note_on_c, 15, 57, 90
17, 114779, Note_on_c, 15, 57, 0
17, 114780, Note_on_c, 15, 58, 90
17, 114839, Note_on_c, 15, 58, 0
17, 114840, Note_on_c, 15, 46, 90
17, 114899, Note_on_c, 15, 46, 0
17, 114900, Note_on_c, 15, 45, 90
17, 114959, Note_on_c, 15, 45, 0
17, 114960, Note_on_c, 15, 43, 90
17, 115019, Note_on_c, 15, 43, 0
17, 115020, Note_on_c, 15, 48, 90
17, 115079, Note_on_c, 15, 48, 0
17, 115080, Note_on_c, 15, 50, 90
17, 115139, Note_on_c, 15, 50, 0
17, 115140, Note_on_c, 15, 52, 90
17, 115740, Note_on_c, 15, 52, 0
17, 115740, Note_on_c, 15, 53, 90
17, 115799, Note_on_c, 15, 53, 0
17, 115800, Note_on_c, 15, 48, 90
17, 115859, Note_on_c, 15, 48, 0
17, 115860, Note_on_c, 15, 45, 90
17, 115919, Note_on_c, 15, 45, 0
17, 115920, Note_on_c, 15, 41, 90
17, 115979, Note_on_c, 15, 41, 0
17, 115980, Note_on_c, 15, 46, 90
17, 116099, Note_on_c, 15, 46, 0
17, 116160, Note_on_c, 15, 48, 90
17, 116219, Note_on_c, 15, 48, 0
17, 116220, Note_on_c, 15, 50, 90
17, 116339, Note_on_c, 15, 50, 0
17, 116400, Note_on_c, 15, 46, 90
17, 116459, Note_on_c, 15, 46, 0
17, 116460, Note_on_c, 15, 51, 90
17, 116699, Note_on_c, 15, 51, 0
17, 116700, Note_on_c, 15, 45, 90
17, 116759, Note_on_c, 15, 45, 0
17, 116760, Note_on_c, 15, 41, 90
17, 116819, Note_on_c, 15, 41, 0
17, 116820, Note_on_c, 15, 46, 90
17, 116999, Note_on_c, 15, 46, 0
17, 117000, Note_on_c, 15, 43, 90
17, 117059, Note_on_c, 15, 43, 0
17, 117060, Note_on_c, 15, 45, 90
17, 117119, Note_on_c, 15, 45, 0
17, 117120, Note_on_c, 15, 50, 90
17, 117179, Note_on_c, 15, 50, 0
17, 117180, Note_on_c, 15, 48, 90
17, 117239, Note_on_c, 15, 48, 0
17, 117240, Note_on_c, 15, 45, 90
17, 117299, Note_on_c, 15, 45, 0
17, 117300, Note_on_c, 15, 46, 90
17, 117359, Note_on_c, 15, 46, 0
17, 117360, Note_on_c, 15, 48, 90
17, 117419, Note_on_c, 15, 48, 0
17, 117420, Note_on_c, 15, 41, 90
17, 118260, Note_on_c, 15, 41, 0
17, 118620, Note_on_c, 15, 38, 90
17, 118679, Note_on_c, 15, 38, 0
17, 118740, Note_on_c, 15, 50, 90
17, 118799, Note_on_c, 15, 50, 0
17, 118860, Note_on_c, 15, 49, 90
17, 118919, Note_on_c, 15, 49, 0
17, 118980, Note_on_c, 15, 50, 90
17, 119039, Note_on_c, 15, 50, 0
17, 119100, Note_on_c, 15, 43, 90
17, 119159, Note_on_c, 15, 43, 0
17, 119220, Note_on_c, 15, 48, 90
17, 119279, Note_on_c, 15, 48, 0
17, 119340, Note_on_c, 15, 41, 90
17, 119399, Note_on_c, 15, 41, 0
17, 119460, Note_on_c, 15, 46, 90
17, 119519, Note_on_c, 15, 46, 0
17, 119580, Note_on_c, 15, 40, 90
17, 119639, Note_on_c, 15, 40, 0
17, 119700, Note_on_c, 15, 45, 90
17, 119759, Note_on_c, 15, 45, 0
17, 119820, Note_on_c, 15, 38, 90
17, 119879, Note_on_c, 15, 38, 0
17, 119880, Note_on_c, 15, 50, 90
17, 119939, Note_on_c, 15, 50, 0
17, 119940, Note_on_c, 15, 48, 90
17, 119999, Note_on_c, 15, 48, 0
17, 120000, Note_on_c, 15, 47, 90
17, 120059, Note_on_c, 15, 47, 0
17, 120060, Note_on_c, 15, 45, 90
17, 120119, Note_on_c, 15, 45, 0
17, 120180, Note_on_c, 15, 57, 90
17, 120239, Note_on_c, 15, 57, 0
17, 120300, Note_on_c, 15, 56, 90
17, 120359, Note_on_c, 15, 56, 0
17, 120420, Note_on_c, 15, 57, 90
17, 120479, Note_on_c, 15, 57, 0
17, 120540, Note_on_c, 15, 50, 90
17, 120599, Note_on_c, 15, 50, 0
17, 120660, Note_on_c, 15, 55, 90
17, 120719, Note_on_c, 15, 55, 0
17, 120780, Note_on_c, 15, 48, 90
17, 120839, Note_on_c, 15, 48, 0
17, 120900, Note_on_c, 15, 53, 90
17, 120959, Note_on_c, 15, 53, 0
17, 121020, Note_on_c, 15, 47, 90
17, 121079, Note_on_c, 15, 47, 0
17, 121140, Note_on_c, 15, 52, 90
17, 121199, Note_on_c, 15, 52, 0
17, 121260, Note_on_c, 15, 45, 90
17, 121319, Note_on_c, 15, 45, 0
17, 121320, Note_on_c, 15, 57, 90
17, 121379, Note_on_c, 15, 57, 0
17, 121380, Note_on_c, 15, 55, 90
17, 121439, Note_on_c, 15, 55, 0
17, 121440, Note_on_c, 15, 53, 90
17, 121499, Note_on_c, 15, 53, 0
17, 121500, Note_on_c, 15, 52, 90
17, 121559, Note_on_c, 15, 52, 0
17, 121620, Note_on_c, 15, 57, 90
17, 121679, Note_on_c, 15, 57, 0
17, 121740, Note_on_c, 15, 50, 90
17, 121799, Note_on_c, 15, 50, 0
17, 121800, Note_on_c, 15, 62, 90
17, 121859, Note_on_c, 15, 62, 0
17, 121860, Note_on_c, 15, 60, 90
17, 121919, Note_on_c, 15, 60, 0
17, 121920, Note_on_c, 15, 58, 90
17, 121979, Note_on_c, 15, 58, 0
17, 121980, Note_on_c, 15, 57, 90
17, 122039, Note_on_c, 15, 57, 0
17, 122100, Note_on_c, 15, 50, 90
17, 122159, Note_on_c, 15, 50, 0
17, 122220, Note_on_c, 15, 43, 90
17, 122279, Note_on_c, 15, 43, 0
17, 122280, Note_on_c, 15, 55, 90
17, 122339, Note_on_c, 15, 55, 0
17, 122340, Note_on_c, 15, 53, 90
17, 122399, Note_on_c, 15, 53, 0
17, 122400, Note_on_c, 15, 52, 90
17, 122459, Note_on_c, 15, 52, 0
17, 122460, Note_on_c, 15, 50, 90
17, 122519, Note_on_c, 15, 50, 0
17, 122520, Note_on_c, 15, 38, 90
17, 122609, Note_on_c, 15, 38, 0
17, 122610, Note_on_c, 15, 40, 90
17, 122639, Note_on_c, 15, 40, 0
17, 122640, Note_on_c, 15, 41, 90
17, 122669, Note_on_c, 15, 41, 0
17, 122670, Note_on_c, 15, 43, 90
17, 122699, Note_on_c, 15, 43, 0
17, 122700, Note_on_c, 15, 45, 90
17, 122759, Note_on_c, 15, 45, 0
17, 122760, Note_on_c, 15, 45, 90
17, 122819, Note_on_c, 15, 45, 0
17, 122820, Note_on_c, 15, 45, 90
17, 122879, Note_on_c, 15, 45, 0
17, 122880, Note_on_c, 15, 45, 90
17, 122939, Note_on_c, 15, 45, 0
17, 122940, Note_on_c, 15, 46, 90
17, 122969, Note_on_c, 15, 46, 0
17, 122970, Note_on_c, 15, 45, 90
17, 122999, Note_on_c, 15, 45, 0
17, 123000, Note_on_c, 15, 46, 90
17, 123029, Note_on_c, 15, 46, 0
17, 123030, Note_on_c, 15, 48, 90
17, 123059, Note_on_c, 15, 48, 0
17, 123060, Note_on_c, 15, 46, 90
17, 123089, Note_on_c, 15, 46, 0
17, 123090, Note_on_c, 15, 45, 90
17, 123119, Note_on_c, 15, 45, 0
17, 123120, Note_on_c, 15, 43, 90
17, 123149, Note_on_c, 15, 43, 0
17, 123150, Note_on_c, 15, 46, 90
17, 123179, Note_on_c, 15, 46, 0
17, 123180, Note_on_c, 15, 45, 90
17, 123209, Note_on_c, 15, 45, 0
17, 123210, Note_on_c, 15, 43, 90
17, 123239, Note_on_c, 15, 43, 0
17, 123240, Note_on_c, 15, 45, 90
17, 123269, Note_on_c, 15, 45, 0
17, 123270, Note_on_c, 15, 46, 90
17, 123299, Note_on_c, 15, 46, 0
17, 123300, Note_on_c, 15, 45, 90
17, 123329, Note_on_c, 15, 45, 0
17, 123330, Note_on_c, 15, 43, 90
17, 123359, Note_on_c, 15, 43, 0
17, 123360, Note_on_c, 15, 41, 90
17, 123389, Note_on_c, 15, 41, 0
17, 123390, Note_on_c, 15, 45, 90
17, 123419, Note_on_c, 15, 45, 0
17, 123420, Note_on_c, 15, 43, 90
17, 123449, Note_on_c, 15, 43, 0
17, 123450, Note_on_c, 15, 41, 90
17, 123479, Note_on_c, 15, 41, 0
17, 123480, Note_on_c, 15, 43, 90
17, 123509, Note_on_c, 15, 43, 0
17, 123510, Note_on_c, 15, 45, 90
17, 123539, Note_on_c, 15, 45, 0
17, 123540, Note_on_c, 15, 43, 90
17, 123569, Note_on_c, 15, 43, 0
17, 123570, Note_on_c, 15, 41, 90
17, 123599, Note_on_c, 15, 41, 0
17, 123600, Note_on_c, 15, 40, 90
17, 123629, Note_on_c, 15, 40, 0
17, 123630, Note_on_c, 15, 43, 90
17, 123659, Note_on_c, 15, 43, 0
17, 123660, Note_on_c, 15, 41, 90
17, 123689, Note_on_c, 15, 41, 0
17, 123690, Note_on_c, 15, 40, 90
17, 123719, Note_on_c, 15, 40, 0
17, 123720, Note_on_c, 15, 41, 90
17, 123749, Note_on_c, 15, 41, 0
17, 123750, Note_on_c, 15, 43, 90
17, 123779, Note_on_c, 15, 43, 0
17, 123780, Note_on_c, 15, 45, 90
17, 123809, Note_on_c, 15, 45, 0
17, 123810, Note_on_c, 15, 47, 90
17, 123839, Note_on_c, 15, 47, 0
17, 123840, Note_on_c, 15, 49, 90
17, 123869, Note_on_c, 15, 49, 0
17, 123870, Note_on_c, 15, 50, 90
17, 123899, Note_on_c, 15, 50, 0
17, 123900, Note_on_c, 15, 52, 90
17, 123929, Note_on_c, 15, 52, 0
17, 123930, Note_on_c, 15, 50, 90
17, 123959, Note_on_c, 15, 50, 0
17, 123960, Note_on_c, 15, 52, 90
17, 123989, Note_on_c, 15, 52, 0
17, 123990, Note_on_c, 15, 53, 90
17, 124019, Note_on_c, 15, 53, 0
17, 124020, Note_on_c, 15, 55, 90
17, 124049, Note_on_c, 15, 55, 0
17, 124050, Note_on_c, 15, 57, 90
17, 124079, Note_on_c, 15, 57, 0
17, 124080, Note_on_c, 15, 59, 90
17, 124109, Note_on_c, 15, 59, 0
17, 124110, Note_on_c, 15, 61, 90
17, 124139, Note_on_c, 15, 61, 0
17, 124140, Note_on_c, 15, 62, 90
17, 124199, Note_on_c, 15, 62, 0
17, 124200, Note_on_c, 15, 55, 90
17, 124259, Note_on_c, 15, 55, 0
17, 124260, Note_on_c, 15, 57, 90
17, 124319, Note_on_c, 15, 57, 0
17, 124320, Note_on_c, 15, 45, 90
17, 124379, Note_on_c, 15, 45, 0
17, 124380, Note_on_c, 15, 38, 90
17, 124439, Note_on_c, 15, 38, 0
17, 124500, Note_on_c, 15, 50, 90
17, 124559, Note_on_c, 15, 50, 0
17, 124620, Note_on_c, 15, 49, 90
17, 124679, Note_on_c, 15, 49, 0
17, 124740, Note_on_c, 15, 50, 90
17, 124799, Note_on_c, 15, 50, 0
17, 124860, Note_on_c, 15, 43, 90
17, 124919, Note_on_c, 15, 43, 0
17, 124980, Note_on_c, 15, 48, 90
17, 125039, Note_on_c, 15, 48, 0
17, 125100, Note_on_c, 15, 41, 90
17, 125159, Note_on_c, 15, 41, 0
17, 125220, Note_on_c, 15, 46, 90
17, 125279, Note_on_c, 15, 46, 0
17, 125340, Note_on_c, 15, 40, 90
17, 125399, Note_on_c, 15, 40, 0
17, 125460, Note_on_c, 15, 45, 90
17, 125519, Note_on_c, 15, 45, 0
17, 125580, Note_on_c, 15, 38, 90
17, 125639, Note_on_c, 15, 38, 0
17, 125640, Note_on_c, 15, 50, 90
17, 125699, Note_on_c, 15, 50, 0
17, 125700, Note_on_c, 15, 48, 90
17, 125759, Note_on_c, 15, 48, 0
17, 125760, Note_on_c, 15, 47, 90
17, 125819, Note_on_c, 15, 47, 0
17, 125820, Note_on_c, 15, 57, 90
17, 125879, Note_on_c, 15, 57, 0
17, 125880, Note_on_c, 15, 45, 90
17, 125969, Note_on_c, 15, 45, 0
17, 125970, Note_on_c, 15, 47, 90
17, 125999, Note_on_c, 15, 47, 0
17, 126000, Note_on_c, 15, 48, 90
17, 126029, Note_on_c, 15, 48, 0
17, 126030, Note_on_c, 15, 50, 90
17, 126059, Note_on_c, 15, 50, 0
17, 126060, Note_on_c, 15, 52, 90
17, 126119, Note_on_c, 15, 52, 0
17, 126120, Note_on_c, 15, 52, 90
17, 126179, Note_on_c, 15, 52, 0
17, 126180, Note_on_c, 15, 52, 90
17, 126239, Note_on_c, 15, 52, 0
17, 126240, Note_on_c, 15, 52, 90
17, 126299, Note_on_c, 15, 52, 0
17, 126300, Note_on_c, 15, 53, 90
17, 126329, Note_on_c, 15, 53, 0
17, 126330, Note_on_c, 15, 52, 90
17, 126359, Note_on_c, 15, 52, 0
17, 126360, Note_on_c, 15, 53, 90
17, 126389, Note_on_c, 15, 53, 0
17, 126390, Note_on_c, 15, 55, 90
17, 126419, Note_on_c, 15, 55, 0
17, 126420, Note_on_c, 15, 53, 90
17, 126449, Note_on_c, 15, 53, 0
17, 126450, Note_on_c, 15, 52, 90
17, 126479, Note_on_c, 15, 52, 0
17, 126480, Note_on_c, 15, 50, 90
17, 126509, Note_on_c, 15, 50, 0
17, 126510, Note_on_c, 15, 53, 90
17, 126539, Note_on_c, 15, 53, 0
17, 126540, Note_on_c, 15, 52, 90
17, 126569, Note_on_c, 15, 52, 0
17, 126570, Note_on_c, 15, 50, 90
17, 126599, Note_on_c, 15, 50, 0
17, 126600, Note_on_c, 15, 52, 90
17, 126629, Note_on_c, 15, 52, 0
17, 126630, Note_on_c, 15, 53, 90
17, 126659, Note_on_c, 15, 53, 0
17, 126660, Note_on_c, 15, 52, 90
17, 126689, Note_on_c, 15, 52, 0
17, 126690, Note_on_c, 15, 50, 90
17, 126719, Note_on_c, 15, 50, 0
17, 126720, Note_on_c, 15, 48, 90
17, 126749, Note_on_c, 15, 48, 0
17, 126750, Note_on_c, 15, 52, 90
17, 126779, Note_on_c, 15, 52, 0
17, 126780, Note_on_c, 15, 50, 90
17, 126809, Note_on_c, 15, 50, 0
17, 126810, Note_on_c, 15, 48, 90
17, 126839, Note_on_c, 15, 48, 0
17, 126840, Note_on_c, 15, 50, 90
17, 126869, Note_on_c, 15, 50, 0
17, 126870, Note_on_c, 15, 52, 90
17, 126899, Note_on_c, 15, 52, 0
17, 126900, Note_on_c, 15, 50, 90
17, 126929, Note_on_c, 15, 50, 0
17, 126930, Note_on_c, 15, 48, 90
17, 126959, Note_on_c, 15, 48, 0
17, 126960, Note_on_c, 15, 47, 90
17, 126989, Note_on_c, 15, 47, 0
17, 126990, Note_on_c, 15, 50, 90
17, 127019, Note_on_c, 15, 50, 0
17, 127020, Note_on_c, 15, 48, 90
17, 127049, Note_on_c, 15, 48, 0
17, 127050, Note_on_c, 15, 47, 90
17, 127079, Note_on_c, 15, 47, 0
17, 127080, Note_on_c, 15, 48, 90
17, 127109, Note_on_c, 15, 48, 0
17, 127110, Note_on_c, 15, 50, 90
17, 127139, Note_on_c, 15, 50, 0
17, 127140, Note_on_c, 15, 48, 90
17, 127169, Note_on_c, 15, 48, 0
17, 127170, Note_on_c, 15, 47, 90
17, 127199, Note_on_c, 15, 47, 0
17, 127200, Note_on_c, 15, 45, 90
17, 127229, Note_on_c, 15, 45, 0
17, 127230, Note_on_c, 15, 48, 90
17, 127259, Note_on_c, 15, 48, 0
17, 127260, Note_on_c, 15, 47, 90
17, 127289, Note_on_c, 15, 47, 0
17, 127290, Note_on_c, 15, 45, 90
17, 127319, Note_on_c, 15, 45, 0
17, 127320, Note_on_c, 15, 47, 90
17, 127349, Note_on_c, 15, 47, 0
17, 127350, Note_on_c, 15, 48, 90
17, 127379, Note_on_c, 15, 48, 0
17, 127380, Note_on_c, 15, 47, 90
17, 127409, Note_on_c, 15, 47, 0
17, 127410, Note_on_c, 15, 45, 90
17, 127439, Note_on_c, 15, 45, 0
17, 127440, Note_on_c, 15, 44, 90
17, 127469, Note_on_c, 15, 44, 0
17, 127470, Note_on_c, 15, 47, 90
17, 127499, Note_on_c, 15, 47, 0
17, 127500, Note_on_c, 15, 45, 90
17, 127529, Note_on_c, 15, 45, 0
17, 127530, Note_on_c, 15, 44, 90
17, 127559, Note_on_c, 15, 44, 0
17, 127560, Note_on_c, 15, 45, 90
17, 127589, Note_on_c, 15, 45, 0
17, 127590, Note_on_c, 15, 47, 90
17, 127619, Note_on_c, 15, 47, 0
17, 127620, Note_on_c, 15, 48, 90
17, 127649, Note_on_c, 15, 48, 0
17, 127650, Note_on_c, 15, 47, 90
17, 127679, Note_on_c, 15, 47, 0
17, 127680, Note_on_c, 15, 48, 90
17, 127709, Note_on_c, 15, 48, 0
17, 127710, Note_on_c, 15, 50, 90
17, 127739, Note_on_c, 15, 50, 0
17, 127740, Note_on_c, 15, 52, 90
17, 127799, Note_on_c, 15, 52, 0
17, 127800, Note_on_c, 15, 50, 90
17, 127859, Note_on_c, 15, 50, 0
17, 127860, Note_on_c, 15, 52, 90
17, 127919, Note_on_c, 15, 52, 0
17, 127920, Note_on_c, 15, 40, 90
17, 127979, Note_on_c, 15, 40, 0
17, 127980, Note_on_c, 15, 45, 90
17, 128039, Note_on_c, 15, 45, 0
17, 128100, Note_on_c, 15, 57, 90
17, 128159, Note_on_c, 15, 57, 0
17, 128220, Note_on_c, 15, 56, 90
17, 128279, Note_on_c, 15, 56, 0
17, 128340, Note_on_c, 15, 57, 90
17, 128399, Note_on_c, 15, 57, 0
17, 128460, Note_on_c, 15, 50, 90
17, 128519, Note_on_c, 15, 50, 0
17, 128580, Note_on_c, 15, 47, 90
17, 128639, Note_on_c, 15, 47, 0
17, 128700, Note_on_c, 15, 49, 90
17, 128759, Note_on_c, 15, 49, 0
17, 128820, Note_on_c, 15, 45, 90
17, 128879, Note_on_c, 15, 45, 0
17, 128940, Note_on_c, 15, 50, 90
17, 128999, Note_on_c, 15, 50, 0
17, 129060, Note_on_c, 15, 46, 90
17, 129119, Note_on_c, 15, 46, 0
17, 129180, Note_on_c, 15, 41, 90
17, 129239, Note_on_c, 15, 41, 0
17, 129240, Note_on_c, 15, 48, 90
17, 129299, Note_on_c, 15, 48, 0
17, 129300, Note_on_c, 15, 53, 90
17, 129479, Note_on_c, 15, 53, 0
17, 129480, Note_on_c, 15, 46, 90
17, 129539, Note_on_c, 15, 46, 0
17, 129540, Note_on_c, 15, 40, 90
17, 129599, Note_on_c, 15, 40, 0
17, 129600, Note_on_c, 15, 52, 90
17, 129719, Note_on_c, 15, 52, 0
17, 129720, Note_on_c, 15, 45, 90
17, 129779, Note_on_c, 15, 45, 0
17, 129780, Note_on_c, 15, 38, 90
17, 129839, Note_on_c, 15, 38, 0
17, 129840, Note_on_c, 15, 50, 90
17, 129959, Note_on_c, 15, 50, 0
17, 129960, Note_on_c, 15, 43, 90
17, 130019, Note_on_c, 15, 43, 0
17, 130020, Note_on_c, 15, 36, 90
17, 130079, Note_on_c, 15, 36, 0
17, 130080, Note_on_c, 15, 48, 90
17, 130139, Note_on_c, 15, 48, 0
17, 130140, Note_on_c, 15, 41, 90
17, 130199, Note_on_c, 15, 41, 0
17, 130200, Note_on_c, 15, 53, 90
17, 130229, Note_on_c, 15, 53, 0
17, 130230, Note_on_c, 15, 52, 90
17, 130259, Note_on_c, 15, 52, 0
17, 130260, Note_on_c, 15, 53, 90
17, 130319, Note_on_c, 15, 53, 0
17, 130320, Note_on_c, 15, 50, 90
17, 130379, Note_on_c, 15, 50, 0
17, 130380, Note_on_c, 15, 40, 90
17, 130439, Note_on_c, 15, 40, 0
17, 130440, Note_on_c, 15, 52, 90
17, 130469, Note_on_c, 15, 52, 0
17, 130470, Note_on_c, 15, 50, 90
17, 130499, Note_on_c, 15, 50, 0
17, 130500, Note_on_c, 15, 52, 90
17, 130559, Note_on_c, 15, 52, 0
17, 130560, Note_on_c, 15, 40, 90
17, 130619, Note_on_c, 15, 40, 0
17, 130620, Note_on_c, 15, 41, 90
17, 130679, Note_on_c, 15, 41, 0
17, 130740, Note_on_c, 15, 46, 90
17, 130799, Note_on_c, 15, 46, 0
17, 130860, Note_on_c, 15, 40, 90
17, 130919, Note_on_c, 15, 40, 0
17, 130980, Note_on_c, 15, 45, 90
17, 131039, Note_on_c, 15, 45, 0
17, 131100, Note_on_c, 15, 38, 90
17, 131159, Note_on_c, 15, 38, 0
17, 131220, Note_on_c, 15, 55, 90
17, 131399, Note_on_c, 15, 55, 0
17, 131400, Note_on_c, 15, 52, 90
17, 131459, Note_on_c, 15, 52, 0
17, 131460, Note_on_c, 15, 49, 90
17, 131519, Note_on_c, 15, 49, 0
17, 131520, Note_on_c, 15, 57, 90
17, 131639, Note_on_c, 15, 57, 0
17, 131640, Note_on_c, 15, 55, 90
17, 131669, Note_on_c, 15, 55, 0
17, 131670, Note_on_c, 15, 53, 90
17, 131699, Note_on_c, 15, 53, 0
17, 131700, Note_on_c, 15, 55, 90
17, 131759, Note_on_c, 15, 55, 0
17, 131760, Note_on_c, 15, 52, 90
17, 131819, Note_on_c, 15, 52, 0
17, 131820, Note_on_c, 15, 53, 90
17, 131879, Note_on_c, 15, 53, 0
17, 131880, Note_on_c, 15, 45, 90
17, 131939, Note_on_c, 15, 45, 0
17, 131940, Note_on_c, 15, 50, 90
17, 132179, Note_on_c, 15, 50, 0
17, 132180, Note_on_c, 15, 49, 90
17, 132299, Note_on_c, 15, 49, 0
17, 132300, Note_on_c, 15, 38, 90
17, 132359, Note_on_c, 15, 38, 0
17, 132360, Note_on_c, 15, 50, 90
17, 132449, Note_on_c, 15, 50, 0
17, 132450, Note_on_c, 15, 48, 90
17, 132479, Note_on_c, 15, 48, 0
17, 132480, Note_on_c, 15, 47, 90
17, 132509, Note_on_c, 15, 47, 0
17, 132510, Note_on_c, 15, 45, 90
17, 132539, Note_on_c, 15, 45, 0
17, 132540, Note_on_c, 15, 43, 90
17, 132599, Note_on_c, 15, 43, 0
17, 132600, Note_on_c, 15, 43, 90
17, 132659, Note_on_c, 15, 43, 0
17, 132660, Note_on_c, 15, 43, 90
17, 132719, Note_on_c, 15, 43, 0
17, 132720, Note_on_c, 15, 43, 90
17, 132779, Note_on_c, 15, 43, 0
17, 132780, Note_on_c, 15, 41, 90
17, 132809, Note_on_c, 15, 41, 0
17, 132810, Note_on_c, 15, 43, 90
17, 132839, Note_on_c, 15, 43, 0
17, 132840, Note_on_c, 15, 41, 90
17, 132869, Note_on_c, 15, 41, 0
17, 132870, Note_on_c, 15, 40, 90
17, 132899, Note_on_c, 15, 40, 0
17, 132900, Note_on_c, 15, 41, 90
17, 132929, Note_on_c, 15, 41, 0
17, 132930, Note_on_c, 15, 43, 90
17, 132959, Note_on_c, 15, 43, 0
17, 132960, Note_on_c, 15, 45, 90
17, 132989, Note_on_c, 15, 45, 0
17, 132990, Note_on_c, 15, 41, 90
17, 133019, Note_on_c, 15, 41, 0
17, 133020, Note_on_c, 15, 43, 90
17, 133049, Note_on_c, 15, 43, 0
17, 133050, Note_on_c, 15, 45, 90
17, 133079, Note_on_c, 15, 45, 0
17, 133080, Note_on_c, 15, 43, 90
17, 133109, Note_on_c, 15, 43, 0
17, 133110, Note_on_c, 15, 41, 90
17, 133139, Note_on_c, 15, 41, 0
17, 133140, Note_on_c, 15, 43, 90
17, 133169, Note_on_c, 15, 43, 0
17, 133170, Note_on_c, 15, 45, 90
17, 133199, Note_on_c, 15, 45, 0
17, 133200, Note_on_c, 15, 46, 90
17, 133229, Note_on_c, 15, 46, 0
17, 133230, Note_on_c, 15, 43, 90
17, 133259, Note_on_c, 15, 43, 0
17, 133260, Note_on_c, 15, 45, 90
17, 133289, Note_on_c, 15, 45, 0
17, 133290, Note_on_c, 15, 46, 90
17, 133319, Note_on_c, 15, 46, 0
17, 133320, Note_on_c, 15, 45, 90
17, 133349, Note_on_c, 15, 45, 0
17, 133350, Note_on_c, 15, 43, 90
17, 133379, Note_on_c, 15, 43, 0
17, 133380, Note_on_c, 15, 45, 90
17, 133409, Note_on_c, 15, 45, 0
17, 133410, Note_on_c, 15, 46, 90
17, 133439, Note_on_c, 15, 46, 0
17, 133440, Note_on_c, 15, 48, 90
17, 133469, Note_on_c, 15, 48, 0
17, 133470, Note_on_c, 15, 45, 90
17, 133499, Note_on_c, 15, 45, 0
17, 133500, Note_on_c, 15, 46, 90
17, 133529, Note_on_c, 15, 46, 0
17, 133530, Note_on_c, 15, 48, 90
17, 133559, Note_on_c, 15, 48, 0
17, 133560, Note_on_c, 15, 46, 90
17, 133589, Note_on_c, 15, 46, 0
17, 133590, Note_on_c, 15, 45, 90
17, 133619, Note_on_c, 15, 45, 0
17, 133620, Note_on_c, 15, 43, 90
17, 133649, Note_on_c, 15, 43, 0
17, 133650, Note_on_c, 15, 41, 90
17, 133679, Note_on_c, 15, 41, 0
17, 133680, Note_on_c, 15, 40, 90
17, 133709, Note_on_c, 15, 40, 0
17, 133710, Note_on_c, 15, 38, 90
17, 133739, Note_on_c, 15, 38, 0
17, 133740, Note_on_c, 15, 37, 90
17, 133769, Note_on_c, 15, 37, 0
17, 133770, Note_on_c, 15, 38, 90
17, 133799, Note_on_c, 15, 38, 0
17, 133800, Note_on_c, 15, 40, 90
17, 133829, Note_on_c, 15, 40, 0
17, 133830, Note_on_c, 15, 41, 90
17, 133859, Note_on_c, 15, 41, 0
17, 133860, Note_on_c, 15, 43, 90
17, 133889, Note_on_c, 15, 43, 0
17, 133890, Note_on_c, 15, 45, 90
17, 133919, Note_on_c, 15, 45, 0
17, 133920, Note_on_c, 15, 47, 90
17, 133949, Note_on_c, 15, 47, 0
17, 133950, Note_on_c, 15, 49, 90
17, 133979, Note_on_c, 15, 49, 0
17, 133980, Note_on_c, 15, 50, 90
17, 134009, Note_on_c, 15, 50, 0
17, 134010, Note_on_c, 15, 49, 90
17, 134039, Note_on_c, 15, 49, 0
17, 134040, Note_on_c, 15, 50, 90
17, 134069, Note_on_c, 15, 50, 0
17, 134070, Note_on_c, 15, 52, 90
17, 134099, Note_on_c, 15, 52, 0
17, 134100, Note_on_c, 15, 53, 90
17, 134129, Note_on_c, 15, 53, 0
17, 134130, Note_on_c, 15, 52, 90
17, 134159, Note_on_c, 15, 52, 0
17, 134160, Note_on_c, 15, 53, 90
17, 134189, Note_on_c, 15, 53, 0
17, 134190, Note_on_c, 15, 55, 90
17, 134219, Note_on_c, 15, 55, 0
17, 134220, Note_on_c, 15, 57, 90
17, 134279, Note_on_c, 15, 57, 0
17, 134280, Note_on_c, 15, 55, 90
17, 134339, Note_on_c, 15, 55, 0
17, 134340, Note_on_c, 15, 57, 90
17, 134399, Note_on_c, 15, 57, 0
17, 134400, Note_on_c, 15, 45, 90
17, 134459, Note_on_c, 15, 45, 0
17, 134460, Note_on_c, 15, 38, 90
17, 134519, Note_on_c, 15, 38, 0
17, 134580, Note_on_c, 15, 50, 90
17, 134639, Note_on_c, 15, 50, 0
17, 134700, Note_on_c, 15, 49, 90
17, 134759, Note_on_c, 15, 49, 0
17, 134820, Note_on_c, 15, 50, 90
17, 134879, Note_on_c, 15, 50, 0
17, 134940, Note_on_c, 15, 43, 90
17, 134999, Note_on_c, 15, 43, 0
17, 135060, Note_on_c, 15, 48, 90
17, 135119, Note_on_c, 15, 48, 0
17, 135180, Note_on_c, 15, 41, 90
17, 135239, Note_on_c, 15, 41, 0
17, 135300, Note_on_c, 15, 46, 90
17, 135359, Note_on_c, 15, 46, 0
17, 135420, Note_on_c, 15, 40, 90
17, 135479, Note_on_c, 15, 40, 0
17, 135540, Note_on_c, 15, 45, 90
17, 135599, Note_on_c, 15, 45, 0
17, 135660, Note_on_c, 15, 38, 90
17, 135719, Note_on_c, 15, 38, 0
17, 135720, Note_on_c, 15, 50, 90
17, 135779, Note_on_c, 15, 50, 0
17, 135780, Note_on_c, 15, 48, 90
17, 135839, Note_on_c, 15, 48, 0
17, 135840, Note_on_c, 15, 47, 90
17, 135899, Note_on_c, 15, 47, 0
17, 135900, Note_on_c, 15, 45, 90
17, 135959, Note_on_c, 15, 45, 0
17, 136020, Note_on_c, 15, 57, 90
17, 136079, Note_on_c, 15, 57, 0
17, 136140, Note_on_c, 15, 56, 90
17, 136199, Note_on_c, 15, 56, 0
17, 136260, Note_on_c, 15, 57, 90
17, 136319, Note_on_c, 15, 57, 0
17, 136380, Note_on_c, 15, 50, 90
17, 136439, Note_on_c, 15, 50, 0
17, 136500, Note_on_c, 15, 55, 90
17, 136559, Note_on_c, 15, 55, 0
17, 136620, Note_on_c, 15, 48, 90
17, 136679, Note_on_c, 15, 48, 0
17, 136740, Note_on_c, 15, 53, 90
17, 136799, Note_on_c, 15, 53, 0
17, 136860, Note_on_c, 15, 47, 90
17, 136919, Note_on_c, 15, 47, 0
17, 136980, Note_on_c, 15, 52, 90
17, 137039, Note_on_c, 15, 52, 0
17, 137100, Note_on_c, 15, 45, 90
17, 137159, Note_on_c, 15, 45, 0
17, 137160, Note_on_c, 15, 57, 90
17, 137219, Note_on_c, 15, 57, 0
17, 137220, Note_on_c, 15, 55, 90
17, 137279, Note_on_c, 15, 55, 0
17, 137280, Note_on_c, 15, 53, 90
17, 137339, Note_on_c, 15, 53, 0
17, 137340, Note_on_c, 15, 52, 90
17, 137399, Note_on_c, 15, 52, 0
17, 137460, Note_on_c, 15, 57, 90
17, 137519, Note_on_c, 15, 57, 0
17, 137580, Note_on_c, 15, 50, 90
17, 137639, Note_on_c, 15, 50, 0
17, 137640, Note_on_c, 15, 62, 90
17, 137699, Note_on_c, 15, 62, 0
17, 137700, Note_on_c, 15, 60, 90
17, 137759, Note_on_c, 15, 60, 0
17, 137760, Note_on_c, 15, 59, 90
17, 137819, Note_on_c, 15, 59, 0
17, 137820, Note_on_c, 15, 57, 90
17, 137879, Note_on_c, 15, 57, 0
17, 137940, Note_on_c, 15, 50, 90
17, 137999, Note_on_c, 15, 50, 0
17, 138060, Note_on_c, 15, 43, 90
17, 138119, Note_on_c, 15, 43, 0
17, 138120, Note_on_c, 15, 55, 90
17, 138179, Note_on_c, 15, 55, 0
17, 138180, Note_on_c, 15, 53, 90
17, 138239, Note_on_c, 15, 53, 0
17, 138240, Note_on_c, 15, 52, 90
17, 138299, Note_on_c, 15, 52, 0
17, 138300, Note_on_c, 15, 50, 90
17, 138359, Note_on_c, 15, 50, 0
17, 138360, Note_on_c, 15, 38, 90
17, 138449, Note_on_c, 15, 38, 0
17, 138450, Note_on_c, 15, 40, 90
17, 138479, Note_on_c, 15, 40, 0
17, 138480, Note_on_c, 15, 41, 90
17, 138509, Note_on_c, 15, 41, 0
17, 138510, Note_on_c, 15, 43, 90
17, 138539, Note_on_c, 15, 43, 0
17, 138540, Note_on_c, 15, 45, 90
17, 138599, Note_on_c, 15, 45, 0
17, 138600, Note_on_c, 15, 45, 90
17, 138659, Note_on_c, 15, 45, 0
17, 138660, Note_on_c, 15, 45, 90
17, 138719, Note_on_c, 15, 45, 0
17, 138720, Note_on_c, 15, 45, 90
17, 138779, Note_on_c, 15, 45, 0
17, 138780, Note_on_c, 15, 46, 90
17, 138809, Note_on_c, 15, 46, 0
17, 138810, Note_on_c, 15, 45, 90
17, 138839, Note_on_c, 15, 45, 0
17, 138840, Note_on_c, 15, 46, 90
17, 138869, Note_on_c, 15, 46, 0
17, 138870, Note_on_c, 15, 48, 90
17, 138899, Note_on_c, 15, 48, 0
17, 138900, Note_on_c, 15, 46, 90
17, 138929, Note_on_c, 15, 46, 0
17, 138930, Note_on_c, 15, 45, 90
17, 138959, Note_on_c, 15, 45, 0
17, 138960, Note_on_c, 15, 43, 90
17, 138989, Note_on_c, 15, 43, 0
17, 138990, Note_on_c, 15, 46, 90
17, 139019, Note_on_c, 15, 46, 0
17, 139020, Note_on_c, 15, 45, 90
17, 139049, Note_on_c, 15, 45, 0
17, 139050, Note_on_c, 15, 43, 90
17, 139079, Note_on_c, 15, 43, 0
17, 139080, Note_on_c, 15, 45, 90
17, 139109, Note_on_c, 15, 45, 0
17, 139110, Note_on_c, 15, 46, 90
17, 139139, Note_on_c, 15, 46, 0
17, 139140, Note_on_c, 15, 45, 90
17, 139169, Note_on_c, 15, 45, 0
17, 139170, Note_on_c, 15, 43, 90
17, 139199, Note_on_c, 15, 43, 0
17, 139200, Note_on_c, 15, 41, 90
17, 139229, Note_on_c, 15, 41, 0
17, 139230, Note_on_c, 15, 45, 90
17, 139259, Note_on_c, 15, 45, 0
17, 139260, Note_on_c, 15, 43, 90
17, 139289, Note_on_c, 15, 43, 0
17, 139290, Note_on_c, 15, 41, 90
17, 139319, Note_on_c, 15, 41, 0
17, 139320, Note_on_c, 15, 43, 90
17, 139349, Note_on_c, 15, 43, 0
17, 139350, Note_on_c, 15, 45, 90
17, 139379, Note_on_c, 15, 45, 0
17, 139380, Note_on_c, 15, 43, 90
17, 139409, Note_on_c, 15, 43, 0
17, 139410, Note_on_c, 15, 41, 90
17, 139439, Note_on_c, 15, 41, 0
17, 139440, Note_on_c, 15, 40, 90
17, 139469, Note_on_c, 15, 40, 0
17, 139470, Note_on_c, 15, 43, 90
17, 139499, Note_on_c, 15, 43, 0
17, 139500, Note_on_c, 15, 41, 90
17, 139529, Note_on_c, 15, 41, 0
17, 139530, Note_on_c, 15, 40, 90
17, 139559, Note_on_c, 15, 40, 0
17, 139560, Note_on_c, 15, 41, 90
17, 139589, Note_on_c, 15, 41, 0
17, 139590, Note_on_c, 15, 43, 90
17, 139619, Note_on_c, 15, 43, 0
17, 139620, Note_on_c, 15, 45, 90
17, 139649, Note_on_c, 15, 45, 0
17, 139650, Note_on_c, 15, 47, 90
17, 139679, Note_on_c, 15, 47, 0
17, 139680, Note_on_c, 15, 49, 90
17, 139709, Note_on_c, 15, 49, 0
17, 139710, Note_on_c, 15, 50, 90
17, 139739, Note_on_c, 15, 50, 0
17, 139740, Note_on_c, 15, 52, 90
17, 139769, Note_on_c, 15, 52, 0
17, 139770, Note_on_c, 15, 50, 90
17, 139799, Note_on_c, 15, 50, 0
17, 139800, Note_on_c, 15, 52, 90
17, 139829, Note_on_c, 15, 52, 0
17, 139830, Note_on_c, 15, 53, 90
17, 139859, Note_on_c, 15, 53, 0
17, 139860, Note_on_c, 15, 55, 90
17, 139889, Note_on_c, 15, 55, 0
17, 139890, Note_on_c, 15, 57, 90
17, 139919, Note_on_c, 15, 57, 0
17, 139920, Note_on_c, 15, 59, 90
17, 139949, Note_on_c, 15, 59, 0
17, 139950, Note_on_c, 15, 61, 90
17, 139979, Note_on_c, 15, 61, 0
17, 139980, Note_on_c, 15, 62, 90
17, 140039, Note_on_c, 15, 62, 0
17, 140040, Note_on_c, 15, 55, 90
17, 140099, Note_on_c, 15, 55, 0
17, 140100, Note_on_c, 15, 57, 90
17, 140159, Note_on_c, 15, 57, 0
17, 140160, Note_on_c, 15, 45, 90
17, 140219, Note_on_c, 15, 45, 0
17, 140220, Note_on_c, 15, 50, 90
17, 140279, Note_on_c, 15, 50, 0
17, 140280, Note_on_c, 15, 38, 90
17, 140369, Note_on_c, 15, 38, 0
17, 140370, Note_on_c, 15, 40, 90
17, 140399, Note_on_c, 15, 40, 0
17, 140400, Note_on_c, 15, 41, 90
17, 140429, Note_on_c, 15, 41, 0
17, 140430, Note_on_c, 15, 43, 90
17, 140459, Note_on_c, 15, 43, 0
17, 140460, Note_on_c, 15, 45, 90
17, 140519, Note_on_c, 15, 45, 0
17, 140520, Note_on_c, 15, 45, 90
17, 140579, Note_on_c, 15, 45, 0
17, 140580, Note_on_c, 15, 45, 90
17, 140639, Note_on_c, 15, 45, 0
17, 140640, Note_on_c, 15, 46, 90
17, 140699, Note_on_c, 15, 46, 0
17, 140700, Note_on_c, 15, 48, 90
17, 140759, Note_on_c, 15, 48, 0
17, 140760, Note_on_c, 15, 36, 90
17, 140849, Note_on_c, 15, 36, 0
17, 140850, Note_on_c, 15, 38, 90
17, 140879, Note_on_c, 15, 38, 0
17, 140880, Note_on_c, 15, 40, 90
17, 140909, Note_on_c, 15, 40, 0
17, 140910, Note_on_c, 15, 41, 90
17, 140939, Note_on_c, 15, 41, 0
17, 140940, Note_on_c, 15, 43, 90
17, 140999, Note_on_c, 15, 43, 0
17, 141000, Note_on_c, 15, 43, 90
17, 141059, Note_on_c, 15, 43, 0
17, 141060, Note_on_c, 15, 43, 90
17, 141119, Note_on_c, 15, 43, 0
17, 141120, Note_on_c, 15, 45, 90
17, 141179, Note_on_c, 15, 45, 0
17, 141180, Note_on_c, 15, 46, 90
17, 141239, Note_on_c, 15, 46, 0
17, 141240, Note_on_c, 15, 46, 90
17, 141299, Note_on_c, 15, 46, 0
17, 141300, Note_on_c, 15, 46, 90
17, 141359, Note_on_c, 15, 46, 0
17, 141360, Note_on_c, 15, 48, 90
17, 141419, Note_on_c, 15, 48, 0
17, 141420, Note_on_c, 15, 50, 90
17, 141479, Note_on_c, 15, 50, 0
17, 141480, Note_on_c, 15, 50, 90
17, 141539, Note_on_c, 15, 50, 0
17, 141540, Note_on_c, 15, 50, 90
17, 141599, Note_on_c, 15, 50, 0
17, 141600, Note_on_c, 15, 52, 90
17, 141659, Note_on_c, 15, 52, 0
17, 141660, Note_on_c, 15, 53, 90
17, 141719, Note_on_c, 15, 53, 0
17, 141720, Note_on_c, 15, 41, 90
17, 141809, Note_on_c, 15, 41, 0
17, 141810, Note_on_c, 15, 43, 90
17, 141839, Note_on_c, 15, 43, 0
17, 141840, Note_on_c, 15, 45, 90
17, 141869, Note_on_c, 15, 45, 0
17, 141870, Note_on_c, 15, 46, 90
17, 141899, Note_on_c, 15, 46, 0
17, 141900, Note_on_c, 15, 48, 90
17, 141959, Note_on_c, 15, 48, 0
17, 141960, Note_on_c, 15, 48, 90
17, 142019, Note_on_c, 15, 48, 0
17, 142020, Note_on_c, 15, 48, 90
17, 142079, Note_on_c, 15, 48, 0
17, 142080, Note_on_c, 15, 48, 90
17, 142139, Note_on_c, 15, 48, 0
17, 142140, Note_on_c, 15, 50, 90
17, 142169, Note_on_c, 15, 50, 0
17, 142170, Note_on_c, 15, 48, 90
17, 142199, Note_on_c, 15, 48, 0
17, 142200, Note_on_c, 15, 50, 90
17, 142229, Note_on_c, 15, 50, 0
17, 142230, Note_on_c, 15, 51, 90
17, 142259, Note_on_c, 15, 51, 0
17, 142260, Note_on_c, 15, 50, 90
17, 142289, Note_on_c, 15, 50, 0
17, 142290, Note_on_c, 15, 48, 90
17, 142319, Note_on_c, 15, 48, 0
17, 142320, Note_on_c, 15, 46, 90
17, 142349, Note_on_c, 15, 46, 0
17, 142350, Note_on_c, 15, 50, 90
17, 142379, Note_on_c, 15, 50, 0
17, 142380, Note_on_c, 15, 48, 90
17, 142409, Note_on_c, 15, 48, 0
17, 142410, Note_on_c, 15, 46, 90
17, 142439, Note_on_c, 15, 46, 0
17, 142440, Note_on_c, 15, 48, 90
17, 142469, Note_on_c, 15, 48, 0
17, 142470, Note_on_c, 15, 50, 90
17, 142499, Note_on_c, 15, 50, 0
17, 142500, Note_on_c, 15, 48, 90
17, 142529, Note_on_c, 15, 48, 0
17, 142530, Note_on_c, 15, 46, 90
17, 142559, Note_on_c, 15, 46, 0
17, 142560, Note_on_c, 15, 45, 90
17, 142589, Note_on_c, 15, 45, 0
17, 142590, Note_on_c, 15, 48, 90
17, 142619, Note_on_c, 15, 48, 0
17, 142620, Note_on_c, 15, 46, 90
17, 142649, Note_on_c, 15, 46, 0
17, 142650, Note_on_c, 15, 45, 90
17, 142679, Note_on_c, 15, 45, 0
17, 142680, Note_on_c, 15, 46, 90
17, 142709, Note_on_c, 15, 46, 0
17, 142710, Note_on_c, 15, 48, 90
17, 142739, Note_on_c, 15, 48, 0
17, 142740, Note_on_c, 15, 46, 90
17, 142769, Note_on_c, 15, 46, 0
17, 142770, Note_on_c, 15, 45, 90
17, 142799, Note_on_c, 15, 45, 0
17, 142800, Note_on_c, 15, 43, 90
17, 142829, Note_on_c, 15, 43, 0
17, 142830, Note_on_c, 15, 46, 90
17, 142859, Note_on_c, 15, 46, 0
17, 142860, Note_on_c, 15, 45, 90
17, 142889, Note_on_c, 15, 45, 0
17, 142890, Note_on_c, 15, 43, 90
17, 142919, Note_on_c, 15, 43, 0
17, 142920, Note_on_c, 15, 45, 90
17, 142949, Note_on_c, 15, 45, 0
17, 142950, Note_on_c, 15, 46, 90
17, 142979, Note_on_c, 15, 46, 0
17, 142980, Note_on_c, 15, 45, 90
17, 143009, Note_on_c, 15, 45, 0
17, 143010, Note_on_c, 15, 43, 90
17, 143039, Note_on_c, 15, 43, 0
17, 143040, Note_on_c, 15, 42, 90
17, 143069, Note_on_c, 15, 42, 0
17, 143070, Note_on_c, 15, 45, 90
17, 143099, Note_on_c, 15, 45, 0
17, 143100, Note_on_c, 15, 43, 90
17, 143159, Note_on_c, 15, 43, 0
17, 143160, Note_on_c, 15, 42, 90
17, 143219, Note_on_c, 15, 42, 0
17, 143220, Note_on_c, 15, 43, 90
17, 143279, Note_on_c, 15, 43, 0
17, 143280, Note_on_c, 15, 45, 90
17, 143339, Note_on_c, 15, 45, 0
17, 143340, Note_on_c, 15, 46, 90
17, 143399, Note_on_c, 15, 46, 0
17, 143400, Note_on_c, 15, 45, 90
17, 143459, Note_on_c, 15, 45, 0
17, 143460, Note_on_c, 15, 46, 90
17, 143519, Note_on_c, 15, 46, 0
17, 143520, Note_on_c, 15, 48, 90
17, 143579, Note_on_c, 15, 48, 0
17, 143580, Note_on_c, 15, 50, 90
17, 143639, Note_on_c, 15, 50, 0
17, 143640, Note_on_c, 15, 48, 90
17, 143699, Note_on_c, 15, 48, 0
17, 143700, Note_on_c, 15, 50, 90
17, 143759, Note_on_c, 15, 50, 0
17, 143760, Note_on_c, 15, 38, 90
17, 143819, Note_on_c, 15, 38, 0
17, 143820, Note_on_c, 15, 43, 90
17, 143879, Note_on_c, 15, 43, 0
17, 143940, Note_on_c, 15, 55, 90
17, 143999, Note_on_c, 15, 55, 0
17, 144060, Note_on_c, 15, 54, 90
17, 144119, Note_on_c, 15, 54, 0
17, 144180, Note_on_c, 15, 55, 90
17, 144239, Note_on_c, 15, 55, 0
17, 144300, Note_on_c, 15, 48, 90
17, 144359, Note_on_c, 15, 48, 0
17, 144420, Note_on_c, 15, 45, 90
17, 144479, Note_on_c, 15, 45, 0
17, 144540, Note_on_c, 15, 44, 90
17, 144599, Note_on_c, 15, 44, 0
17, 144660, Note_on_c, 15, 51, 90
17, 144719, Note_on_c, 15, 51, 0
17, 144780, Note_on_c, 15, 45, 90
17, 144839, Note_on_c, 15, 45, 0
17, 144900, Note_on_c, 15, 50, 90
17, 144959, Note_on_c, 15, 50, 0
17, 145020, Note_on_c, 15, 55, 90
17, 145079, Note_on_c, 15, 55, 0
17, 145080, Note_on_c, 15, 43, 90
17, 145169, Note_on_c, 15, 43, 0
17, 145170, Note_on_c, 15, 45, 90
17, 145199, Note_on_c, 15, 45, 0
17, 145200, Note_on_c, 15, 46, 90
17, 145229, Note_on_c, 15, 46, 0
17, 145230, Note_on_c, 15, 48, 90
17, 145259, Note_on_c, 15, 48, 0
17, 145260, Note_on_c, 15, 50, 90
17, 145319, Note_on_c, 15, 50, 0
17, 145320, Note_on_c, 15, 50, 90
17, 145379, Note_on_c, 15, 50, 0
17, 145380, Note_on_c, 15, 50, 90
17, 145439, Note_on_c, 15, 50, 0
17, 145440, Note_on_c, 15, 50, 90
17, 145499, Note_on_c, 15, 50, 0
17, 145500, Note_on_c, 15, 51, 90
17, 145529, Note_on_c, 15, 51, 0
17, 145530, Note_on_c, 15, 50, 90
17, 145559, Note_on_c, 15, 50, 0
17, 145560, Note_on_c, 15, 51, 90
17, 145589, Note_on_c, 15, 51, 0
17, 145590, Note_on_c, 15, 53, 90
17, 145619, Note_on_c, 15, 53, 0
17, 145620, Note_on_c, 15, 51, 90
17, 145649, Note_on_c, 15, 51, 0
17, 145650, Note_on_c, 15, 50, 90
17, 145679, Note_on_c, 15, 50, 0
17, 145680, Note_on_c, 15, 48, 90
17, 145709, Note_on_c, 15, 48, 0
17, 145710, Note_on_c, 15, 51, 90
17, 145739, Note_on_c, 15, 51, 0
17, 145740, Note_on_c, 15, 50, 90
17, 145769, Note_on_c, 15, 50, 0
17, 145770, Note_on_c, 15, 48, 90
17, 145799, Note_on_c, 15, 48, 0
17, 145800, Note_on_c, 15, 50, 90
17, 145829, Note_on_c, 15, 50, 0
17, 145830, Note_on_c, 15, 51, 90
17, 145859, Note_on_c, 15, 51, 0
17, 145860, Note_on_c, 15, 50, 90
17, 145889, Note_on_c, 15, 50, 0
17, 145890, Note_on_c, 15, 48, 90
17, 145919, Note_on_c, 15, 48, 0
17, 145920, Note_on_c, 15, 46, 90
17, 145949, Note_on_c, 15, 46, 0
17, 145950, Note_on_c, 15, 50, 90
17, 145979, Note_on_c, 15, 50, 0
17, 145980, Note_on_c, 15, 48, 90
17, 146009, Note_on_c, 15, 48, 0
17, 146010, Note_on_c, 15, 46, 90
17, 146039, Note_on_c, 15, 46, 0
17, 146040, Note_on_c, 15, 48, 90
17, 146069, Note_on_c, 15, 48, 0
17, 146070, Note_on_c, 15, 50, 90
17, 146099, Note_on_c, 15, 50, 0
17, 146100, Note_on_c, 15, 48, 90
17, 146129, Note_on_c, 15, 48, 0
17, 146130, Note_on_c, 15, 46, 90
17, 146159, Note_on_c, 15, 46, 0
17, 146160, Note_on_c, 15, 45, 90
17, 146189, Note_on_c, 15, 45, 0
17, 146190, Note_on_c, 15, 48, 90
17, 146219, Note_on_c, 15, 48, 0
17, 146220, Note_on_c, 15, 46, 90
17, 146249, Note_on_c, 15, 46, 0
17, 146250, Note_on_c, 15, 45, 90
17, 146279, Note_on_c, 15, 45, 0
17, 146280, Note_on_c, 15, 46, 90
17, 146309, Note_on_c, 15, 46, 0
17, 146310, Note_on_c, 15, 48, 90
17, 146339, Note_on_c, 15, 48, 0
17, 146340, Note_on_c, 15, 46, 90
17, 146369, Note_on_c, 15, 46, 0
17, 146370, Note_on_c, 15, 43, 90
17, 146399, Note_on_c, 15, 43, 0
17, 146400, Note_on_c, 15, 51, 90
17, 146429, Note_on_c, 15, 51, 0
17, 146430, Note_on_c, 15, 48, 90
17, 146459, Note_on_c, 15, 48, 0
17, 146460, Note_on_c, 15, 50, 90
17, 146489, Note_on_c, 15, 50, 0
17, 146490, Note_on_c, 15, 48, 90
17, 146519, Note_on_c, 15, 48, 0
17, 146520, Note_on_c, 15, 46, 90
17, 146549, Note_on_c, 15, 46, 0
17, 146550, Note_on_c, 15, 48, 90
17, 146579, Note_on_c, 15, 48, 0
17, 146580, Note_on_c, 15, 50, 90
17, 146639, Note_on_c, 15, 50, 0
17, 146640, Note_on_c, 15, 38, 90
17, 146699, Note_on_c, 15, 38, 0
17, 146700, Note_on_c, 15, 43, 90
17, 146759, Note_on_c, 15, 43, 0
17, 146760, Note_on_c, 15, 55, 90
17, 146819, Note_on_c, 15, 55, 0
17, 146820, Note_on_c, 15, 57, 90
17, 146879, Note_on_c, 15, 57, 0
17, 146880, Note_on_c, 15, 58, 90
17, 146939, Note_on_c, 15, 58, 0
17, 146940, Note_on_c, 15, 48, 90
17, 146969, Note_on_c, 15, 48, 0
17, 146970, Note_on_c, 15, 46, 90
17, 146999, Note_on_c, 15, 46, 0
17, 147000, Note_on_c, 15, 48, 90
17, 147029, Note_on_c, 15, 48, 0
17, 147030, Note_on_c, 15, 50, 90
17, 147059, Note_on_c, 15, 50, 0
17, 147060, Note_on_c, 15, 52, 90
17, 147089, Note_on_c, 15, 52, 0
17, 147090, Note_on_c, 15, 53, 90
17, 147119, Note_on_c, 15, 53, 0
17, 147120, Note_on_c, 15, 55, 90
17, 147149, Note_on_c, 15, 55, 0
17, 147150, Note_on_c, 15, 52, 90
17, 147179, Note_on_c, 15, 52, 0
17, 147180, Note_on_c, 15, 53, 90
17, 147239, Note_on_c, 15, 53, 0
17, 147300, Note_on_c, 15, 46, 90
17, 147359, Note_on_c, 15, 46, 0
17, 147420, Note_on_c, 15, 52, 90
17, 147479, Note_on_c, 15, 52, 0
17, 147540, Note_on_c, 15, 45, 90
17, 147599, Note_on_c, 15, 45, 0
17, 147660, Note_on_c, 15, 62, 90
17, 147719, Note_on_c, 15, 62, 0
17, 147720, Note_on_c, 15, 50, 90
17, 147809, Note_on_c, 15, 50, 0
17, 147810, Note_on_c, 15, 52, 90
17, 147839, Note_on_c, 15, 52, 0
17, 147840, Note_on_c, 15, 53, 90
17, 147869, Note_on_c, 15, 53, 0
17, 147870, Note_on_c, 15, 55, 90
17, 147899, Note_on_c, 15, 55, 0
17, 147900, Note_on_c, 15, 57, 90
17, 147959, Note_on_c, 15, 57, 0
17, 147960, Note_on_c, 15, 57, 90
17, 148019, Note_on_c, 15, 57, 0
17, 148020, Note_on_c, 15, 57, 90
17, 148079, Note_on_c, 15, 57, 0
17, 148080, Note_on_c, 15, 57, 90
17, 148139, Note_on_c, 15, 57, 0
17, 148140, Note_on_c, 15, 58, 90
17, 148169, Note_on_c, 15, 58, 0
17, 148170, Note_on_c, 15, 57, 90
17, 148199, Note_on_c, 15, 57, 0
17, 148200, Note_on_c, 15, 58, 90
17, 148229, Note_on_c, 15, 58, 0
17, 148230, Note_on_c, 15, 60, 90
17, 148259, Note_on_c, 15, 60, 0
17, 148260, Note_on_c, 15, 58, 90
17, 148289, Note_on_c, 15, 58, 0
17, 148290, Note_on_c, 15, 57, 90
17, 148319, Note_on_c, 15, 57, 0
17, 148320, Note_on_c, 15, 55, 90
17, 148349, Note_on_c, 15, 55, 0
17, 148350, Note_on_c, 15, 58, 90
17, 148379, Note_on_c, 15, 58, 0
17, 148380, Note_on_c, 15, 57, 90
17, 148409, Note_on_c, 15, 57, 0
17, 148410, Note_on_c, 15, 55, 90
17, 148439, Note_on_c, 15, 55, 0
17, 148440, Note_on_c, 15, 57, 90
17, 148469, Note_on_c, 15, 57, 0
17, 148470, Note_on_c, 15, 58, 90
17, 148499, Note_on_c, 15, 58, 0
17, 148500, Note_on_c, 15, 57, 90
17, 148529, Note_on_c, 15, 57, 0
17, 148530, Note_on_c, 15, 55, 90
17, 148559, Note_on_c, 15, 55, 0
17, 148560, Note_on_c, 15, 53, 90
17, 148589, Note_on_c, 15, 53, 0
17, 148590, Note_on_c, 15, 57, 90
17, 148619, Note_on_c, 15, 57, 0
17, 148620, Note_on_c, 15, 55, 90
17, 148649, Note_on_c, 15, 55, 0
17, 148650, Note_on_c, 15, 53, 90
17, 148679, Note_on_c, 15, 53, 0
17, 148680, Note_on_c, 15, 55, 90
17, 148709, Note_on_c, 15, 55, 0
17, 148710, Note_on_c, 15, 57, 90
17, 148739, Note_on_c, 15, 57, 0
17, 148740, Note_on_c, 15, 55, 90
17, 148769, Note_on_c, 15, 55, 0
17, 148770, Note_on_c, 15, 53, 90
17, 148799, Note_on_c, 15, 53, 0
17, 148800, Note_on_c, 15, 52, 90
17, 148829, Note_on_c, 15, 52, 0
17, 148830, Note_on_c, 15, 55, 90
17, 148859, Note_on_c, 15, 55, 0
17, 148860, Note_on_c, 15, 53, 90
17, 148889, Note_on_c, 15, 53, 0
17, 148890, Note_on_c, 15, 52, 90
17, 148919, Note_on_c, 15, 52, 0
17, 148920, Note_on_c, 15, 53, 90
17, 148949, Note_on_c, 15, 53, 0
17, 148950, Note_on_c, 15, 55, 90
17, 148979, Note_on_c, 15, 55, 0
17, 148980, Note_on_c, 15, 53, 90
17, 149009, Note_on_c, 15, 53, 0
17, 149010, Note_on_c, 15, 52, 90
17, 149039, Note_on_c, 15, 52, 0
17, 149040, Note_on_c, 15, 50, 90
17, 149069, Note_on_c, 15, 50, 0
17, 149070, Note_on_c, 15, 53, 90
17, 149099, Note_on_c, 15, 53, 0
17, 149100, Note_on_c, 15, 52, 90
17, 149129, Note_on_c, 15, 52, 0
17, 149130, Note_on_c, 15, 50, 90
17, 149159, Note_on_c, 15, 50, 0
17, 149160, Note_on_c, 15, 52, 90
17, 149189, Note_on_c, 15, 52, 0
17, 149190, Note_on_c, 15, 53, 90
17, 149219, Note_on_c, 15, 53, 0
17, 149220, Note_on_c, 15, 52, 90
17, 149249, Note_on_c, 15, 52, 0
17, 149250, Note_on_c, 15, 50, 90
17, 149279, Note_on_c, 15, 50, 0
17, 149280, Note_on_c, 15, 49, 90
17, 149309, Note_on_c, 15, 49, 0
17, 149310, Note_on_c, 15, 52, 90
17, 149339, Note_on_c, 15, 52, 0
17, 149340, Note_on_c, 15, 50, 90
17, 149369, Note_on_c, 15, 50, 0
17, 149370, Note_on_c, 15, 49, 90
17, 149399, Note_on_c, 15, 49, 0
17, 149400, Note_on_c, 15, 50, 90
17, 149429, Note_on_c, 15, 50, 0
17, 149430, Note_on_c, 15, 52, 90
17, 149459, Note_on_c, 15, 52, 0
17, 149460, Note_on_c, 15, 50, 90
17, 149489, Note_on_c, 15, 50, 0
17, 149490, Note_on_c, 15, 48, 90
17, 149519, Note_on_c, 15, 48, 0
17, 149520, Note_on_c, 15, 46, 90
17, 149549, Note_on_c, 15, 46, 0
17, 149550, Note_on_c, 15, 50, 90
17, 149579, Note_on_c, 15, 50, 0
17, 149580, Note_on_c, 15, 48, 90
17, 149609, Note_on_c, 15, 48, 0
17, 149610, Note_on_c, 15, 46, 90
17, 149639, Note_on_c, 15, 46, 0
17, 149640, Note_on_c, 15, 48, 90
17, 149669, Note_on_c, 15, 48, 0
17, 149670, Note_on_c, 15, 50, 90
17, 149699, Note_on_c, 15, 50, 0
17, 149700, Note_on_c, 15, 48, 90
17, 149729, Note_on_c, 15, 48, 0
17, 149730, Note_on_c, 15, 46, 90
17, 149759, Note_on_c, 15, 46, 0
17, 149760, Note_on_c, 15, 45, 90
17, 149789, Note_on_c, 15, 45, 0
17, 149790, Note_on_c, 15, 48, 90
17, 149819, Note_on_c, 15, 48, 0
17, 149820, Note_on_c, 15, 46, 90
17, 149880, Note_on_c, 15, 46, 0
17, 149880, Note_on_c, 15, 58, 90
17, 149969, Note_on_c, 15, 58, 0
17, 149970, Note_on_c, 15, 56, 90
17, 149999, Note_on_c, 15, 56, 0
17, 150000, Note_on_c, 15, 55, 90
17, 150029, Note_on_c, 15, 55, 0
17, 150030, Note_on_c, 15, 53, 90
17, 150059, Note_on_c, 15, 53, 0
17, 150060, Note_on_c, 15, 51, 90
17, 150119, Note_on_c, 15, 51, 0
17, 150120, Note_on_c, 15, 51, 90
17, 150179, Note_on_c, 15, 51, 0
17, 150180, Note_on_c, 15, 51, 90
17, 150239, Note_on_c, 15, 51, 0
17, 150240, Note_on_c, 15, 51, 90
17, 150299, Note_on_c, 15, 51, 0
17, 150300, Note_on_c, 15, 50, 90
17, 150329, Note_on_c, 15, 50, 0
17, 150330, Note_on_c, 15, 51, 90
17, 150359, Note_on_c, 15, 51, 0
17, 150360, Note_on_c, 15, 50, 90
17, 150389, Note_on_c, 15, 50, 0
17, 150390, Note_on_c, 15, 48, 90
17, 150419, Note_on_c, 15, 48, 0
17, 150420, Note_on_c, 15, 50, 90
17, 150449, Note_on_c, 15, 50, 0
17, 150450, Note_on_c, 15, 51, 90
17, 150479, Note_on_c, 15, 51, 0
17, 150480, Note_on_c, 15, 53, 90
17, 150509, Note_on_c, 15, 53, 0
17, 150510, Note_on_c, 15, 50, 90
17, 150539, Note_on_c, 15, 50, 0
17, 150540, Note_on_c, 15, 51, 90
17, 150569, Note_on_c, 15, 51, 0
17, 150570, Note_on_c, 15, 53, 90
17, 150599, Note_on_c, 15, 53, 0
17, 150600, Note_on_c, 15, 51, 90
17, 150629, Note_on_c, 15, 51, 0
17, 150630, Note_on_c, 15, 50, 90
17, 150659, Note_on_c, 15, 50, 0
17, 150660, Note_on_c, 15, 51, 90
17, 150689, Note_on_c, 15, 51, 0
17, 150690, Note_on_c, 15, 53, 90
17, 150719, Note_on_c, 15, 53, 0
17, 150720, Note_on_c, 15, 55, 90
17, 150749, Note_on_c, 15, 55, 0
17, 150750, Note_on_c, 15, 51, 90
17, 150779, Note_on_c, 15, 51, 0
17, 150780, Note_on_c, 15, 53, 90
17, 150809, Note_on_c, 15, 53, 0
17, 150810, Note_on_c, 15, 55, 90
17, 150839, Note_on_c, 15, 55, 0
17, 150840, Note_on_c, 15, 53, 90
17, 150869, Note_on_c, 15, 53, 0
17, 150870, Note_on_c, 15, 51, 90
17, 150899, Note_on_c, 15, 51, 0
17, 150900, Note_on_c, 15, 53, 90
17, 150929, Note_on_c, 15, 53, 0
17, 150930, Note_on_c, 15, 55, 90
17, 150959, Note_on_c, 15, 55, 0
17, 150960, Note_on_c, 15, 57, 90
17, 150989, Note_on_c, 15, 57, 0
17, 150990, Note_on_c, 15, 53, 90
17, 151019, Note_on_c, 15, 53, 0
17, 151020, Note_on_c, 15, 55, 90
17, 151049, Note_on_c, 15, 55, 0
17, 151050, Note_on_c, 15, 57, 90
17, 151079, Note_on_c, 15, 57, 0
17, 151080, Note_on_c, 15, 55, 90
17, 151109, Note_on_c, 15, 55, 0
17, 151110, Note_on_c, 15, 53, 90
17, 151139, Note_on_c, 15, 53, 0
17, 151140, Note_on_c, 15, 55, 90
17, 151169, Note_on_c, 15, 55, 0
17, 151170, Note_on_c, 15, 57, 90
17, 151199, Note_on_c, 15, 57, 0
17, 151200, Note_on_c, 15, 58, 90
17, 151229, Note_on_c, 15, 58, 0
17, 151230, Note_on_c, 15, 55, 90
17, 151259, Note_on_c, 15, 55, 0
17, 151260, Note_on_c, 15, 57, 90
17, 151289, Note_on_c, 15, 57, 0
17, 151290, Note_on_c, 15, 58, 90
17, 151319, Note_on_c, 15, 58, 0
17, 151320, Note_on_c, 15, 57, 90
17, 151349, Note_on_c, 15, 57, 0
17, 151350, Note_on_c, 15, 55, 90
17, 151379, Note_on_c, 15, 55, 0
17, 151380, Note_on_c, 15, 57, 90
17, 151409, Note_on_c, 15, 57, 0
17, 151410, Note_on_c, 15, 58, 90
17, 151439, Note_on_c, 15, 58, 0
17, 151440, Note_on_c, 15, 60, 90
17, 151469, Note_on_c, 15, 60, 0
17, 151470, Note_on_c, 15, 57, 90
17, 151499, Note_on_c, 15, 57, 0
17, 151500, Note_on_c, 15, 58, 90
17, 151559, Note_on_c, 15, 58, 0
17, 151560, Note_on_c, 15, 53, 90
17, 151619, Note_on_c, 15, 53, 0
17, 151620, Note_on_c, 15, 55, 90
17, 151679, Note_on_c, 15, 55, 0
17, 151680, Note_on_c, 15, 51, 90
17, 151739, Note_on_c, 15, 51, 0
17, 151740, Note_on_c, 15, 53, 90
17, 151859, Note_on_c, 15, 53, 0
17, 151860, Note_on_c, 15, 41, 90
17, 151979, Note_on_c, 15, 41, 0
17, 151980, Note_on_c, 15, 46, 90
17, 152099, Note_on_c, 15, 46, 0
17, 152220, Note_on_c, 15, 38, 90
17, 152279, Note_on_c, 15, 38, 0
17, 152340, Note_on_c, 15, 50, 90
17, 152399, Note_on_c, 15, 50, 0
17, 152460, Note_on_c, 15, 49, 90
17, 152519, Note_on_c, 15, 49, 0
17, 152580, Note_on_c, 15, 50, 90
17, 152639, Note_on_c, 15, 50, 0
17, 152700, Note_on_c, 15, 43, 90
17, 152759, Note_on_c, 15, 43, 0
17, 152820, Note_on_c, 15, 48, 90
17, 152879, Note_on_c, 15, 48, 0
17, 152940, Note_on_c, 15, 41, 90
17, 152999, Note_on_c, 15, 41, 0
17, 153060, Note_on_c, 15, 46, 90
17, 153119, Note_on_c, 15, 46, 0
17, 153180, Note_on_c, 15, 40, 90
17, 153239, Note_on_c, 15, 40, 0
17, 153300, Note_on_c, 15, 45, 90
17, 153359, Note_on_c, 15, 45, 0
17, 153420, Note_on_c, 15, 38, 90
17, 153479, Note_on_c, 15, 38, 0
17, 153480, Note_on_c, 15, 50, 90
17, 153539, Note_on_c, 15, 50, 0
17, 153540, Note_on_c, 15, 48, 90
17, 153599, Note_on_c, 15, 48, 0
17, 153600, Note_on_c, 15, 47, 90
17, 153659, Note_on_c, 15, 47, 0
17, 153660, Note_on_c, 15, 45, 90
17, 153719, Note_on_c, 15, 45, 0
17, 153780, Note_on_c, 15, 57, 90
17, 153839, Note_on_c, 15, 57, 0
17, 153900, Note_on_c, 15, 56, 90
17, 153959, Note_on_c, 15, 56, 0
17, 154020, Note_on_c, 15, 57, 90
17, 154079, Note_on_c, 15, 57, 0
17, 154140, Note_on_c, 15, 50, 90
17, 154199, Note_on_c, 15, 50, 0
17, 154260, Note_on_c, 15, 55, 90
17, 154319, Note_on_c, 15, 55, 0
17, 154380, Note_on_c, 15, 48, 90
17, 154439, Note_on_c, 15, 48, 0
17, 154500, Note_on_c, 15, 53, 90
17, 154559, Note_on_c, 15, 53, 0
17, 154620, Note_on_c, 15, 47, 90
17, 154679, Note_on_c, 15, 47, 0
17, 154740, Note_on_c, 15, 52, 90
17, 154799, Note_on_c, 15, 52, 0
17, 154860, Note_on_c, 15, 45, 90
17, 154919, Note_on_c, 15, 45, 0
17, 154920, Note_on_c, 15, 57, 90
17, 154979, Note_on_c, 15, 57, 0
17, 154980, Note_on_c, 15, 55, 90
17, 155039, Note_on_c, 15, 55, 0
17, 155040, Note_on_c, 15, 53, 90
17, 155099, Note_on_c, 15, 53, 0
17, 155100, Note_on_c, 15, 52, 90
17, 155159, Note_on_c, 15, 52, 0
17, 155220, Note_on_c, 15, 57, 90
17, 155279, Note_on_c, 15, 57, 0
17, 155340, Note_on_c, 15, 50, 90
17, 155399, Note_on_c, 15, 50, 0
17, 155400, Note_on_c, 15, 62, 90
17, 155459, Note_on_c, 15, 62, 0
17, 155460, Note_on_c, 15, 60, 90
17, 155519, Note_on_c, 15, 60, 0
17, 155520, Note_on_c, 15, 58, 90
17, 155579, Note_on_c, 15, 58, 0
17, 155580, Note_on_c, 15, 57, 90
17, 155639, Note_on_c, 15, 57, 0
17, 155700, Note_on_c, 15, 50, 90
17, 155759, Note_on_c, 15, 50, 0
17, 155820, Note_on_c, 15, 43, 90
17, 155879, Note_on_c, 15, 43, 0
17, 155880, Note_on_c, 15, 55, 90
17, 155939, Note_on_c, 15, 55, 0
17, 155940, Note_on_c, 15, 53, 90
17, 155999, Note_on_c, 15, 53, 0
17, 156000, Note_on_c, 15, 52, 90
17, 156059, Note_on_c, 15, 52, 0
17, 156060, Note_on_c, 15, 50, 90
17, 156119, Note_on_c, 15, 50, 0
17, 156120, Note_on_c, 15, 38, 90
17, 156209, Note_on_c, 15, 38, 0
17, 156210, Note_on_c, 15, 40, 90
17, 156239, Note_on_c, 15, 40, 0
17, 156240, Note_on_c, 15, 41, 90
17, 156269, Note_on_c, 15, 41, 0
17, 156270, Note_on_c, 15, 43, 90
17, 156299, Note_on_c, 15, 43, 0
17, 156300, Note_on_c, 15, 45, 90
17, 156359, Note_on_c, 15, 45, 0
17, 156360, Note_on_c, 15, 45, 90
17, 156419, Note_on_c, 15, 45, 0
17, 156420, Note_on_c, 15, 45, 90
17, 156479, Note_on_c, 15, 45, 0
17, 156480, Note_on_c, 15, 45, 90
17, 156539, Note_on_c, 15, 45, 0
17, 156540, Note_on_c, 15, 46, 90
17, 156569, Note_on_c, 15, 46, 0
17, 156570, Note_on_c, 15, 45, 90
17, 156599, Note_on_c, 15, 45, 0
17, 156600, Note_on_c, 15, 46, 90
17, 156629, Note_on_c, 15, 46, 0
17, 156630, Note_on_c, 15, 48, 90
17, 156659, Note_on_c, 15, 48, 0
17, 156660, Note_on_c, 15, 46, 90
17, 156689, Note_on_c, 15, 46, 0
17, 156690, Note_on_c, 15, 45, 90
17, 156719, Note_on_c, 15, 45, 0
17, 156720, Note_on_c, 15, 43, 90
17, 156749, Note_on_c, 15, 43, 0
17, 156750, Note_on_c, 15, 46, 90
17, 156779, Note_on_c, 15, 46, 0
17, 156780, Note_on_c, 15, 45, 90
17, 156809, Note_on_c, 15, 45, 0
17, 156810, Note_on_c, 15, 43, 90
17, 156839, Note_on_c, 15, 43, 0
17, 156840, Note_on_c, 15, 45, 90
17, 156869, Note_on_c, 15, 45, 0
17, 156870, Note_on_c, 15, 46, 90
17, 156899, Note_on_c, 15, 46, 0
17, 156900, Note_on_c, 15, 45, 90
17, 156929, Note_on_c, 15, 45, 0
17, 156930, Note_on_c, 15, 43, 90
17, 156959, Note_on_c, 15, 43, 0
17, 156960, Note_on_c, 15, 41, 90
17, 156989, Note_on_c, 15, 41, 0
17, 156990, Note_on_c, 15, 45, 90
17, 157019, Note_on_c, 15, 45, 0
17, 157020, Note_on_c, 15, 43, 90
17, 157049, Note_on_c, 15, 43, 0
17, 157050, Note_on_c, 15, 41, 90
17, 157079, Note_on_c, 15, 41, 0
17, 157080, Note_on_c, 15, 43, 90
17, 157109, Note_on_c, 15, 43, 0
17, 157110, Note_on_c, 15, 45, 90
17, 157139, Note_on_c, 15, 45, 0
17, 157140, Note_on_c, 15, 43, 90
17, 157169, Note_on_c, 15, 43, 0
17, 157170, Note_on_c, 15, 41, 90
17, 157199, Note_on_c, 15, 41, 0
17, 157200, Note_on_c, 15, 40, 90
17, 157229, Note_on_c, 15, 40, 0
17, 157230, Note_on_c, 15, 43, 90
17, 157259, Note_on_c, 15, 43, 0
17, 157260, Note_on_c, 15, 41, 90
17, 157289, Note_on_c, 15, 41, 0
17, 157290, Note_on_c, 15, 40, 90
17, 157319, Note_on_c, 15, 40, 0
17, 157320, Note_on_c, 15, 41, 90
17, 157349, Note_on_c, 15, 41, 0
17, 157350, Note_on_c, 15, 43, 90
17, 157379, Note_on_c, 15, 43, 0
17, 157380, Note_on_c, 15, 45, 90
17, 157409, Note_on_c, 15, 45, 0
17, 157410, Note_on_c, 15, 47, 90
17, 157439, Note_on_c, 15, 47, 0
17, 157440, Note_on_c, 15, 49, 90
17, 157469, Note_on_c, 15, 49, 0
17, 157470, Note_on_c, 15, 50, 90
17, 157499, Note_on_c, 15, 50, 0
17, 157500, Note_on_c, 15, 52, 90
17, 157529, Note_on_c, 15, 52, 0
17, 157530, Note_on_c, 15, 50, 90
17, 157559, Note_on_c, 15, 50, 0
17, 157560, Note_on_c, 15, 52, 90
17, 157589, Note_on_c, 15, 52, 0
17, 157590, Note_on_c, 15, 53, 90
17, 157619, Note_on_c, 15, 53, 0
17, 157620, Note_on_c, 15, 55, 90
17, 157649, Note_on_c, 15, 55, 0
17, 157650, Note_on_c, 15, 57, 90
17, 157679, Note_on_c, 15, 57, 0
17, 157680, Note_on_c, 15, 59, 90
17, 157709, Note_on_c, 15, 59, 0
17, 157710, Note_on_c, 15, 61, 90
17, 157739, Note_on_c, 15, 61, 0
17, 157740, Note_on_c, 15, 62, 90
17, 157799, Note_on_c, 15, 62, 0
17, 157800, Note_on_c, 15, 55, 90
17, 157859, Note_on_c, 15, 55, 0
17, 157860, Note_on_c, 15, 57, 90
17, 157919, Note_on_c, 15, 57, 0
17, 157920, Note_on_c, 15, 45, 90
17, 157979, Note_on_c, 15, 45, 0
17, 157980, Note_on_c, 15, 38, 90
17, 158039, Note_on_c, 15, 38, 0
17, 158100, Note_on_c, 15, 50, 90
17, 158159, Note_on_c, 15, 50, 0
17, 158220, Note_on_c, 15, 49, 90
17, 158279, Note_on_c, 15, 49, 0
17, 158340, Note_on_c, 15, 50, 90
17, 158399, Note_on_c, 15, 50, 0
17, 158460, Note_on_c, 15, 43, 90
17, 158519, Note_on_c, 15, 43, 0
17, 158580, Note_on_c, 15, 48, 90
17, 158639, Note_on_c, 15, 48, 0
17, 158700, Note_on_c, 15, 41, 90
17, 158759, Note_on_c, 15, 41, 0
17, 158820, Note_on_c, 15, 46, 90
17, 158879, Note_on_c, 15, 46, 0
17, 158940, Note_on_c, 15, 40, 90
17, 158999, Note_on_c, 15, 40, 0
17, 159060, Note_on_c, 15, 45, 90
17, 159119, Note_on_c, 15, 45, 0
17, 159180, Note_on_c, 15, 38, 90
17, 159239, Note_on_c, 15, 38, 0
17, 159240, Note_on_c, 15, 50, 90
17, 159299, Note_on_c, 15, 50, 0
17, 159300, Note_on_c, 15, 48, 90
17, 159359, Note_on_c, 15, 48, 0
17, 159360, Note_on_c, 15, 47, 90
17, 159419, Note_on_c, 15, 47, 0
17, 159420, Note_on_c, 15, 57, 90
17, 159479, Note_on_c, 15, 57, 0
17, 159480, Note_on_c, 15, 45, 90
17, 159569, Note_on_c, 15, 45, 0
17, 159570, Note_on_c, 15, 47, 90
17, 159599, Note_on_c, 15, 47, 0
17, 159600, Note_on_c, 15, 48, 90
17, 159629, Note_on_c, 15, 48, 0
17, 159630, Note_on_c, 15, 50, 90
17, 159659, Note_on_c, 15, 50, 0
17, 159660, Note_on_c, 15, 52, 90
17, 159719, Note_on_c, 15, 52, 0
17, 159720, Note_on_c, 15, 52, 90
17, 159779, Note_on_c, 15, 52, 0
17, 159780, Note_on_c, 15, 52, 90
17, 159839, Note_on_c, 15, 52, 0
17, 159840, Note_on_c, 15, 52, 90
17, 159899, Note_on_c, 15, 52, 0
17, 159900, Note_on_c, 15, 53, 90
17, 159929, Note_on_c, 15, 53, 0
17, 159930, Note_on_c, 15, 52, 90
17, 159959, Note_on_c, 15, 52, 0
17, 159960, Note_on_c, 15, 53, 90
17, 159989, Note_on_c, 15, 53, 0
17, 159990, Note_on_c, 15, 55, 90
17, 160019, Note_on_c, 15, 55, 0
17, 160020, Note_on_c, 15, 53, 90
17, 160049, Note_on_c, 15, 53, 0
17, 160050, Note_on_c, 15, 52, 90
17, 160079, Note_on_c, 15, 52, 0
17, 160080, Note_on_c, 15, 50, 90
17, 160109, Note_on_c, 15, 50, 0
17, 160110, Note_on_c, 15, 53, 90
17, 160139, Note_on_c, 15, 53, 0
17, 160140, Note_on_c, 15, 52, 90
17, 160169, Note_on_c, 15, 52, 0
17, 160170, Note_on_c, 15, 50, 90
17, 160199, Note_on_c, 15, 50, 0
17, 160200, Note_on_c, 15, 52, 90
17, 160229, Note_on_c, 15, 52, 0
17, 160230, Note_on_c, 15, 53, 90
17, 160259, Note_on_c, 15, 53, 0
17, 160260, Note_on_c, 15, 52, 90
17, 160289, Note_on_c, 15, 52, 0
17, 160290, Note_on_c, 15, 50, 90
17, 160319, Note_on_c, 15, 50, 0
17, 160320, Note_on_c, 15, 48, 90
17, 160349, Note_on_c, 15, 48, 0
17, 160350, Note_on_c, 15, 52, 90
17, 160379, Note_on_c, 15, 52, 0
17, 160380, Note_on_c, 15, 50, 90
17, 160409, Note_on_c, 15, 50, 0
17, 160410, Note_on_c, 15, 48, 90
17, 160439, Note_on_c, 15, 48, 0
17, 160440, Note_on_c, 15, 50, 90
17, 160469, Note_on_c, 15, 50, 0
17, 160470, Note_on_c, 15, 52, 90
17, 160499, Note_on_c, 15, 52, 0
17, 160500, Note_on_c, 15, 50, 90
17, 160529, Note_on_c, 15, 50, 0
17, 160530, Note_on_c, 15, 48, 90
17, 160559, Note_on_c, 15, 48, 0
17, 160560, Note_on_c, 15, 47, 90
17, 160589, Note_on_c, 15, 47, 0
17, 160590, Note_on_c, 15, 50, 90
17, 160619, Note_on_c, 15, 50, 0
17, 160620, Note_on_c, 15, 48, 90
17, 160649, Note_on_c, 15, 48, 0
17, 160650, Note_on_c, 15, 47, 90
17, 160679, Note_on_c, 15, 47, 0
17, 160680, Note_on_c, 15, 48, 90
17, 160709, Note_on_c, 15, 48, 0
17, 160710, Note_on_c, 15, 50, 90
17, 160739, Note_on_c, 15, 50, 0
17, 160740, Note_on_c, 15, 48, 90
17, 160769, Note_on_c, 15, 48, 0
17, 160770, Note_on_c, 15, 47, 90
17, 160799, Note_on_c, 15, 47, 0
17, 160800, Note_on_c, 15, 45, 90
17, 160829, Note_on_c, 15, 45, 0
17, 160830, Note_on_c, 15, 48, 90
17, 160859, Note_on_c, 15, 48, 0
17, 160860, Note_on_c, 15, 47, 90
17, 160889, Note_on_c, 15, 47, 0
17, 160890, Note_on_c, 15, 45, 90
17, 160919, Note_on_c, 15, 45, 0
17, 160920, Note_on_c, 15, 47, 90
17, 160949, Note_on_c, 15, 47, 0
17, 160950, Note_on_c, 15, 48, 90
17, 160979, Note_on_c, 15, 48, 0
17, 160980, Note_on_c, 15, 47, 90
17, 161009, Note_on_c, 15, 47, 0
17, 161010, Note_on_c, 15, 45, 90
17, 161039, Note_on_c, 15, 45, 0
17, 161040, Note_on_c, 15, 44, 90
17, 161069, Note_on_c, 15, 44, 0
17, 161070, Note_on_c, 15, 47, 90
17, 161099, Note_on_c, 15, 47, 0
17, 161100, Note_on_c, 15, 45, 90
17, 161129, Note_on_c, 15, 45, 0
17, 161130, Note_on_c, 15, 44, 90
17, 161159, Note_on_c, 15, 44, 0
17, 161160, Note_on_c, 15, 45, 90
17, 161189, Note_on_c, 15, 45, 0
17, 161190, Note_on_c, 15, 47, 90
17, 161219, Note_on_c, 15, 47, 0
17, 161220, Note_on_c, 15, 48, 90
17, 161249, Note_on_c, 15, 48, 0
17, 161250, Note_on_c, 15, 47, 90
17, 161279, Note_on_c, 15, 47, 0
17, 161280, Note_on_c, 15, 48, 90
17, 161309, Note_on_c, 15, 48, 0
17, 161310, Note_on_c, 15, 50, 90
17, 161339, Note_on_c, 15, 50, 0
17, 161340, Note_on_c, 15, 52, 90
17, 161399, Note_on_c, 15, 52, 0
17, 161400, Note_on_c, 15, 50, 90
17, 161459, Note_on_c, 15, 50, 0
17, 161460, Note_on_c, 15, 52, 90
17, 161519, Note_on_c, 15, 52, 0
17, 161520, Note_on_c, 15, 40, 90
17, 161579, Note_on_c, 15, 40, 0
17, 161580, Note_on_c, 15, 45, 90
17, 161639, Note_on_c, 15, 45, 0
17, 161700, Note_on_c, 15, 57, 90
17, 161759, Note_on_c, 15, 57, 0
17, 161820, Note_on_c, 15, 56, 90
17, 161879, Note_on_c, 15, 56, 0
17, 161940, Note_on_c, 15, 57, 90
17, 161999, Note_on_c, 15, 57, 0
17, 162060, Note_on_c, 15, 50, 90
17, 162119, Note_on_c, 15, 50, 0
17, 162180, Note_on_c, 15, 47, 90
17, 162239, Note_on_c, 15, 47, 0
17, 162300, Note_on_c, 15, 49, 90
17, 162359, Note_on_c, 15, 49, 0
17, 162420, Note_on_c, 15, 45, 90
17, 162479, Note_on_c, 15, 45, 0
17, 162540, Note_on_c, 15, 50, 90
17, 162599, Note_on_c, 15, 50, 0
17, 162660, Note_on_c, 15, 46, 90
17, 162719, Note_on_c, 15, 46, 0
17, 162780, Note_on_c, 15, 41, 90
17, 162839, Note_on_c, 15, 41, 0
17, 162840, Note_on_c, 15, 48, 90
17, 162899, Note_on_c, 15, 48, 0
17, 162900, Note_on_c, 15, 53, 90
17, 163079, Note_on_c, 15, 53, 0
17, 163080, Note_on_c, 15, 46, 90
17, 163139, Note_on_c, 15, 46, 0
17, 163140, Note_on_c, 15, 40, 90
17, 163199, Note_on_c, 15, 40, 0
17, 163200, Note_on_c, 15, 52, 90
17, 163319, Note_on_c, 15, 52, 0
17, 163320, Note_on_c, 15, 45, 90
17, 163379, Note_on_c, 15, 45, 0
17, 163380, Note_on_c, 15, 38, 90
17, 163439, Note_on_c, 15, 38, 0
17, 163440, Note_on_c, 15, 50, 90
17, 163559, Note_on_c, 15, 50, 0
17, 163560, Note_on_c, 15, 43, 90
17, 163619, Note_on_c, 15, 43, 0
17, 163620, Note_on_c, 15, 36, 90
17, 163679, Note_on_c, 15, 36, 0
17, 163680, Note_on_c, 15, 48, 90
17, 163739, Note_on_c, 15, 48, 0
17, 163740, Note_on_c, 15, 41, 90
17, 163799, Note_on_c, 15, 41, 0
17, 163800, Note_on_c, 15, 53, 90
17, 163829, Note_on_c, 15, 53, 0
17, 163830, Note_on_c, 15, 52, 90
17, 163859, Note_on_c, 15, 52, 0
17, 163860, Note_on_c, 15, 53, 90
17, 163919, Note_on_c, 15, 53, 0
17, 163920, Note_on_c, 15, 50, 90
17, 163979, Note_on_c, 15, 50, 0
17, 163980, Note_on_c, 15, 40, 90
17, 164039, Note_on_c, 15, 40, 0
17, 164040, Note_on_c, 15, 52, 90
17, 164069, Note_on_c, 15, 52, 0
17, 164070, Note_on_c, 15, 50, 90
17, 164099, Note_on_c, 15, 50, 0
17, 164100, Note_on_c, 15, 52, 90
17, 164159, Note_on_c, 15, 52, 0
17, 164160, Note_on_c, 15, 40, 90
17, 164219, Note_on_c, 15, 40, 0
17, 164220, Note_on_c, 15, 41, 90
17, 164279, Note_on_c, 15, 41, 0
17, 164340, Note_on_c, 15, 46, 90
17, 164399, Note_on_c, 15, 46, 0
17, 164460, Note_on_c, 15, 40, 90
17, 164519, Note_on_c, 15, 40, 0
17, 164580, Note_on_c, 15, 45, 90
17, 164639, Note_on_c, 15, 45, 0
17, 164700, Note_on_c, 15, 38, 90
17, 164759, Note_on_c, 15, 38, 0
17, 164820, Note_on_c, 15, 55, 90
17, 164999, Note_on_c, 15, 55, 0
17, 165000, Note_on_c, 15, 52, 90
17, 165059, Note_on_c, 15, 52, 0
17, 165060, Note_on_c, 15, 49, 90
17, 165119, Note_on_c, 15, 49, 0
17, 165120, Note_on_c, 15, 57, 90
17, 165239, Note_on_c, 15, 57, 0
17, 165240, Note_on_c, 15, 55, 90
17, 165269, Note_on_c, 15, 55, 0
17, 165270, Note_on_c, 15, 53, 90
17, 165299, Note_on_c, 15, 53, 0
17, 165300, Note_on_c, 15, 55, 90
17, 165359, Note_on_c, 15, 55, 0
17, 165360, Note_on_c, 15, 52, 90
17, 165419, Note_on_c, 15, 52, 0
17, 165420, Note_on_c, 15, 53, 90
17, 165479, Note_on_c, 15, 53, 0
17, 165480, Note_on_c, 15, 45, 90
17, 165539, Note_on_c, 15, 45, 0
17, 165540, Note_on_c, 15, 50, 90
17, 165779, Note_on_c, 15, 50, 0
17, 165780, Note_on_c, 15, 49, 90
17, 165899, Note_on_c, 15, 49, 0
17, 165900, Note_on_c, 15, 38, 90
17, 165959, Note_on_c, 15, 38, 0
17, 165960, Note_on_c, 15, 50, 90
17, 166049, Note_on_c, 15, 50, 0
17, 166050, Note_on_c, 15, 48, 90
17, 166079, Note_on_c, 15, 48, 0
17, 166080, Note_on_c, 15, 47, 90
17, 166109, Note_on_c, 15, 47, 0
17, 166110, Note_on_c, 15, 45, 90
17, 166139, Note_on_c, 15, 45, 0
17, 166140, Note_on_c, 15, 43, 90
17, 166199, Note_on_c, 15, 43, 0
17, 166200, Note_on_c, 15, 43, 90
17, 166259, Note_on_c, 15, 43, 0
17, 166260, Note_on_c, 15, 43, 90
17, 166319, Note_on_c, 15, 43, 0
17, 166320, Note_on_c, 15, 43, 90
17, 166379, Note_on_c, 15, 43, 0
17, 166380, Note_on_c, 15, 41, 90
17, 166409, Note_on_c, 15, 41, 0
17, 166410, Note_on_c, 15, 43, 90
17, 166439, Note_on_c, 15, 43, 0
17, 166440, Note_on_c, 15, 41, 90
17, 166469, Note_on_c, 15, 41, 0
17, 166470, Note_on_c, 15, 40, 90
17, 166499, Note_on_c, 15, 40, 0
17, 166500, Note_on_c, 15, 41, 90
17, 166529, Note_on_c, 15, 41, 0
17, 166530, Note_on_c, 15, 43, 90
17, 166559, Note_on_c, 15, 43, 0
17, 166560, Note_on_c, 15, 45, 90
17, 166589, Note_on_c, 15, 45, 0
17, 166590, Note_on_c, 15, 41, 90
17, 166619, Note_on_c, 15, 41, 0
17, 166620, Note_on_c, 15, 43, 90
17, 166649, Note_on_c, 15, 43, 0
17, 166650, Note_on_c, 15, 45, 90
17, 166679, Note_on_c, 15, 45, 0
17, 166680, Note_on_c, 15, 43, 90
17, 166709, Note_on_c, 15, 43, 0
17, 166710, Note_on_c, 15, 41, 90
17, 166739, Note_on_c, 15, 41, 0
17, 166740, Note_on_c, 15, 43, 90
17, 166769, Note_on_c, 15, 43, 0
17, 166770, Note_on_c, 15, 45, 90
17, 166799, Note_on_c, 15, 45, 0
17, 166800, Note_on_c, 15, 46, 90
17, 166829, Note_on_c, 15, 46, 0
17, 166830, Note_on_c, 15, 43, 90
17, 166859, Note_on_c, 15, 43, 0
17, 166860, Note_on_c, 15, 45, 90
17, 166889, Note_on_c, 15, 45, 0
17, 166890, Note_on_c, 15, 46, 90
17, 166919, Note_on_c, 15, 46, 0
17, 166920, Note_on_c, 15, 45, 90
17, 166949, Note_on_c, 15, 45, 0
17, 166950, Note_on_c, 15, 43, 90
17, 166979, Note_on_c, 15, 43, 0
17, 166980, Note_on_c, 15, 45, 90
17, 167009, Note_on_c, 15, 45, 0
17, 167010, Note_on_c, 15, 46, 90
17, 167039, Note_on_c, 15, 46, 0
17, 167040, Note_on_c, 15, 48, 90
17, 167069, Note_on_c, 15, 48, 0
17, 167070, Note_on_c, 15, 45, 90
17, 167099, Note_on_c, 15, 45, 0
17, 167100, Note_on_c, 15, 46, 90
17, 167129, Note_on_c, 15, 46, 0
17, 167130, Note_on_c, 15, 48, 90
17, 167159, Note_on_c, 15, 48, 0
17, 167160, Note_on_c, 15, 46, 90
17, 167189, Note_on_c, 15, 46, 0
17, 167190, Note_on_c, 15, 45, 90
17, 167219, Note_on_c, 15, 45, 0
17, 167220, Note_on_c, 15, 43, 90
17, 167249, Note_on_c, 15, 43, 0
17, 167250, Note_on_c, 15, 41, 90
17, 167279, Note_on_c, 15, 41, 0
17, 167280, Note_on_c, 15, 40, 90
17, 167309, Note_on_c, 15, 40, 0
17, 167310, Note_on_c, 15, 38, 90
17, 167339, Note_on_c, 15, 38, 0
17, 167340, Note_on_c, 15, 37, 90
17, 167369, Note_on_c, 15, 37, 0
17, 167370, Note_on_c, 15, 38, 90
17, 167399, Note_on_c, 15, 38, 0
17, 167400, Note_on_c, 15, 40, 90
17, 167429, Note_on_c, 15, 40, 0
17, 167430, Note_on_c, 15, 41, 90
17, 167459, Note_on_c, 15, 41, 0
17, 167460, Note_on_c, 15, 43, 90
17, 167489, Note_on_c, 15, 43, 0
17, 167490, Note_on_c, 15, 45, 90
17, 167519, Note_on_c, 15, 45, 0
17, 167520, Note_on_c, 15, 47, 90
17, 167549, Note_on_c, 15, 47, 0
17, 167550, Note_on_c, 15, 49, 90
17, 167579, Note_on_c, 15, 49, 0
17, 167580, Note_on_c, 15, 50, 90
17, 167609, Note_on_c, 15, 50, 0
17, 167610, Note_on_c, 15, 49, 90
17, 167639, Note_on_c, 15, 49, 0
17, 167640, Note_on_c, 15, 50, 90
17, 167669, Note_on_c, 15, 50, 0
17, 167670, Note_on_c, 15, 52, 90
17, 167699, Note_on_c, 15, 52, 0
17, 167700, Note_on_c, 15, 53, 90
17, 167729, Note_on_c, 15, 53, 0
17, 167730, Note_on_c, 15, 52, 90
17, 167759, Note_on_c, 15, 52, 0
17, 167760, Note_on_c, 15, 53, 90
17, 167789, Note_on_c, 15, 53, 0
17, 167790, Note_on_c, 15, 55, 90
17, 167819, Note_on_c, 15, 55, 0
17, 167820, Note_on_c, 15, 57, 90
17, 167879, Note_on_c, 15, 57, 0
17, 167880, Note_on_c, 15, 55, 90
17, 167939, Note_on_c, 15, 55, 0
17, 167940, Note_on_c, 15, 57, 90
17, 167999, Note_on_c, 15, 57, 0
17, 168000, Note_on_c, 15, 45, 90
17, 168059, Note_on_c, 15, 45, 0
17, 168060, Note_on_c, 15, 38, 90
17, 168119, Note_on_c, 15, 38, 0
17, 168180, Note_on_c, 15, 50, 90
17, 168239, Note_on_c, 15, 50, 0
17, 168300, Note_on_c, 15, 49, 90
17, 168359, Note_on_c, 15, 49, 0
17, 168420, Note_on_c, 15, 50, 90
17, 168479, Note_on_c, 15, 50, 0
17, 168540, Note_on_c, 15, 43, 90
17, 168599, Note_on_c, 15, 43, 0
17, 168660, Note_on_c, 15, 48, 90
17, 168719, Note_on_c, 15, 48, 0
17, 168780, Note_on_c, 15, 41, 90
17, 168839, Note_on_c, 15, 41, 0
17, 168900, Note_on_c, 15, 46, 90
17, 168959, Note_on_c, 15, 46, 0
17, 169020, Note_on_c, 15, 40, 90
17, 169079, Note_on_c, 15, 40, 0
17, 169140, Note_on_c, 15, 45, 90
17, 169199, Note_on_c, 15, 45, 0
17, 169260, Note_on_c, 15, 38, 90
17, 169319, Note_on_c, 15, 38, 0
17, 169320, Note_on_c, 15, 50, 90
17, 169379, Note_on_c, 15, 50, 0
17, 169380, Note_on_c, 15, 48, 90
17, 169439, Note_on_c, 15, 48, 0
17, 169440, Note_on_c, 15, 47, 90
17, 169499, Note_on_c, 15, 47, 0
17, 169500, Note_on_c, 15, 45, 90
17, 169559, Note_on_c, 15, 45, 0
17, 169620, Note_on_c, 15, 57, 90
17, 169679, Note_on_c, 15, 57, 0
17, 169740, Note_on_c, 15, 56, 90
17, 169799, Note_on_c, 15, 56, 0
17, 169860, Note_on_c, 15, 57, 90
17, 169919, Note_on_c, 15, 57, 0
17, 169980, Note_on_c, 15, 50, 90
17, 170039, Note_on_c, 15, 50, 0
17, 170100, Note_on_c, 15, 55, 90
17, 170159, Note_on_c, 15, 55, 0
17, 170220, Note_on_c, 15, 48, 90
17, 170279, Note_on_c, 15, 48, 0
17, 170340, Note_on_c, 15, 53, 90
17, 170399, Note_on_c, 15, 53, 0
17, 170460, Note_on_c, 15, 47, 90
17, 170519, Note_on_c, 15, 47, 0
17, 170580, Note_on_c, 15, 52, 90
17, 170639, Note_on_c, 15, 52, 0
17, 170700, Note_on_c, 15, 45, 90
17, 170759, Note_on_c, 15, 45, 0
17, 170760, Note_on_c, 15, 57, 90
17, 170819, Note_on_c, 15, 57, 0
17, 170820, Note_on_c, 15, 55, 90
17, 170879, Note_on_c, 15, 55, 0
17, 170880, Note_on_c, 15, 53, 90
17, 170939, Note_on_c, 15, 53, 0
17, 170940, Note_on_c, 15, 52, 90
17, 170999, Note_on_c, 15, 52, 0
17, 171060, Note_on_c, 15, 57, 90
17, 171119, Note_on_c, 15, 57, 0
17, 171180, Note_on_c, 15, 50, 90
17, 171239, Note_on_c, 15, 50, 0
17, 171240, Note_on_c, 15, 62, 90
17, 171299, Note_on_c, 15, 62, 0
17, 171300, Note_on_c, 15, 60, 90
17, 171359, Note_on_c, 15, 60, 0
17, 171360, Note_on_c, 15, 59, 90
17, 171419, Note_on_c, 15, 59, 0
17, 171420, Note_on_c, 15, 57, 90
17, 171479, Note_on_c, 15, 57, 0
17, 171540, Note_on_c, 15, 50, 90
17, 171599, Note_on_c, 15, 50, 0
17, 171660, Note_on_c, 15, 43, 90
17, 171719, Note_on_c, 15, 43, 0
17, 171720, Note_on_c, 15, 55, 90
17, 171779, Note_on_c, 15, 55, 0
17, 171780, Note_on_c, 15, 53, 90
17, 171839, Note_on_c, 15, 53, 0
17, 171840, Note_on_c, 15, 52, 90
17, 171899, Note_on_c, 15, 52, 0
17, 171900, Note_on_c, 15, 50, 90
17, 171959, Note_on_c, 15, 50, 0
17, 171960, Note_on_c, 15, 38, 90
17, 172049, Note_on_c, 15, 38, 0
17, 172050, Note_on_c, 15, 40, 90
17, 172079, Note_on_c, 15, 40, 0
17, 172080, Note_on_c, 15, 41, 90
17, 172109, Note_on_c, 15, 41, 0
17, 172110, Note_on_c, 15, 43, 90
17, 172139, Note_on_c, 15, 43, 0
17, 172140, Note_on_c, 15, 45, 90
17, 172199, Note_on_c, 15, 45, 0
17, 172200, Note_on_c, 15, 45, 90
17, 172259, Note_on_c, 15, 45, 0
17, 172260, Note_on_c, 15, 45, 90
17, 172319, Note_on_c, 15, 45, 0
17, 172320, Note_on_c, 15, 45, 90
17, 172379, Note_on_c, 15, 45, 0
17, 172380, Note_on_c, 15, 46, 90
17, 172409, Note_on_c, 15, 46, 0
17, 172410, Note_on_c, 15, 45, 90
17, 172439, Note_on_c, 15, 45, 0
17, 172440, Note_on_c, 15, 46, 90
17, 172469, Note_on_c, 15, 46, 0
17, 172470, Note_on_c, 15, 48, 90
17, 172499, Note_on_c, 15, 48, 0
17, 172500, Note_on_c, 15, 46, 90
17, 172529, Note_on_c, 15, 46, 0
17, 172530, Note_on_c, 15, 45, 90
17, 172559, Note_on_c, 15, 45, 0
17, 172560, Note_on_c, 15, 43, 90
17, 172589, Note_on_c, 15, 43, 0
17, 172590, Note_on_c, 15, 46, 90
17, 172619, Note_on_c, 15, 46, 0
17, 172620, Note_on_c, 15, 45, 90
17, 172649, Note_on_c, 15, 45, 0
17, 172650, Note_on_c, 15, 43, 90
17, 172679, Note_on_c, 15, 43, 0
17, 172680, Note_on_c, 15, 45, 90
17, 172709, Note_on_c, 15, 45, 0
17, 172710, Note_on_c, 15, 46, 90
17, 172739, Note_on_c, 15, 46, 0
17, 172740, Note_on_c, 15, 45, 90
17, 172769, Note_on_c, 15, 45, 0
17, 172770, Note_on_c, 15, 43, 90
17, 172799, Note_on_c, 15, 43, 0
17, 172800, Note_on_c, 15, 41, 90
17, 172829, Note_on_c, 15, 41, 0
17, 172830, Note_on_c, 15, 45, 90
17, 172859, Note_on_c, 15, 45, 0
17, 172860, Note_on_c, 15, 43, 90
17, 172889, Note_on_c, 15, 43, 0
17, 172890, Note_on_c, 15, 41, 90
17, 172919, Note_on_c, 15, 41, 0
17, 172920, Note_on_c, 15, 43, 90
17, 172949, Note_on_c, 15, 43, 0
17, 172950, Note_on_c, 15, 45, 90
17, 172979, Note_on_c, 15, 45, 0
17, 172980, Note_on_c, 15, 43, 90
17, 173009, Note_on_c, 15, 43, 0
17, 173010, Note_on_c, 15, 41, 90
17, 173039, Note_on_c, 15, 41, 0
17, 173040, Note_on_c, 15, 40, 90
17, 173069, Note_on_c, 15, 40, 0
17, 173070, Note_on_c, 15, 43, 90
17, 173099, Note_on_c, 15, 43, 0
17, 173100, Note_on_c, 15, 41, 90
17, 173129, Note_on_c, 15, 41, 0
17, 173130, Note_on_c, 15, 40, 90
17, 173159, Note_on_c, 15, 40, 0
17, 173160, Note_on_c, 15, 41, 90
17, 173189, Note_on_c, 15, 41, 0
17, 173190, Note_on_c, 15, 43, 90
17, 173219, Note_on_c, 15, 43, 0
17, 173220, Note_on_c, 15, 45, 90
17, 173249, Note_on_c, 15, 45, 0
17, 173250, Note_on_c, 15, 47, 90
17, 173279, Note_on_c, 15, 47, 0
17, 173280, Note_on_c, 15, 49, 90
17, 173309, Note_on_c, 15, 49, 0
17, 173310, Note_on_c, 15, 50, 90
17, 173339, Note_on_c, 15, 50, 0
17, 173340, Note_on_c, 15, 52, 90
17, 173369, Note_on_c, 15, 52, 0
17, 173370, Note_on_c, 15, 50, 90
17, 173399, Note_on_c, 15, 50, 0
17, 173400, Note_on_c, 15, 52, 90
17, 173429, Note_on_c, 15, 52, 0
17, 173430, Note_on_c, 15, 53, 90
17, 173459, Note_on_c, 15, 53, 0
17, 173460, Note_on_c, 15, 55, 90
17, 173489, Note_on_c, 15, 55, 0
17, 173490, Note_on_c, 15, 57, 90
17, 173519, Note_on_c, 15, 57, 0
17, 173520, Note_on_c, 15, 59, 90
17, 173549, Note_on_c, 15, 59, 0
17, 173550, Note_on_c, 15, 61, 90
17, 173579, Note_on_c, 15, 61, 0
17, 173580, Note_on_c, 15, 62, 90
17, 173639, Note_on_c, 15, 62, 0
17, 173640, Note_on_c, 15, 55, 90
17, 173699, Note_on_c, 15, 55, 0
17, 173700, Note_on_c, 15, 57, 90
17, 173759, Note_on_c, 15, 57, 0
17, 173760, Note_on_c, 15, 45, 90
17, 173819, Note_on_c, 15, 45, 0
17, 173820, Note_on_c, 15, 50, 90
17, 173940, Note_on_c, 15, 50, 0
17, 174300, Note_on_c, 15, 41, 110
17, 174300, Note_on_c, 15, 53, 110
17, 174419, Note_on_c, 15, 53, 0
17, 174419, Note_on_c, 15, 41, 0
17, 174660, Note_on_c, 15, 53, 110
17, 174660, Note_on_c, 15, 41, 110
17, 174779, Note_on_c, 15, 41, 0
17, 174779, Note_on_c, 15, 53, 0
17, 175020, Note_on_c, 15, 53, 110
17, 175079, Note_on_c, 15, 53, 0
17, 175080, Note_on_c, 15, 57, 110
17, 175109, Note_on_c, 15, 57, 0
17, 175110, Note_on_c, 15, 55, 110
17, 175139, Note_on_c, 15, 55, 0
17, 175140, Note_on_c, 15, 53, 110
17, 175199, Note_on_c, 15, 53, 0
17, 175200, Note_on_c, 15, 52, 110
17, 175259, Note_on_c, 15, 52, 0
17, 175260, Note_on_c, 15, 50, 110
17, 175319, Note_on_c, 15, 50, 0
17, 175320, Note_on_c, 15, 48, 110
17, 175379, Note_on_c, 15, 48, 0
17, 175380, Note_on_c, 15, 46, 110
17, 175439, Note_on_c, 15, 46, 0
17, 175440, Note_on_c, 15, 43, 110
17, 175499, Note_on_c, 15, 43, 0
17, 175500, Note_on_c, 15, 48, 110
17, 175619, Note_on_c, 15, 48, 0
17, 175620, Note_on_c, 15, 36, 110
17, 175739, Note_on_c, 15, 36, 0
17, 175740, Note_on_c, 15, 41, 110
17, 175799, Note_on_c, 15, 41, 0
17, 175800, Note_on_c, 15, 43, 110
17, 175859, Note_on_c, 15, 43, 0
17, 175860, Note_on_c, 15, 45, 110
17, 175919, Note_on_c, 15, 45, 0
17, 175920, Note_on_c, 15, 43, 110
17, 175979, Note_on_c, 15, 43, 0
17, 175980, Note_on_c, 15, 45, 110
17, 176039, Note_on_c, 15, 45, 0
17, 176040, Note_on_c, 15, 41, 110
17, 176099, Note_on_c, 15, 41, 0
17, 176100, Note_on_c, 15, 48, 110
17, 176159, Note_on_c, 15, 48, 0
17, 176160, Note_on_c, 15, 46, 110
17, 176219, Note_on_c, 15, 46, 0
17, 176220, Note_on_c, 15, 48, 110
17, 176279, Note_on_c, 15, 48, 0
17, 176280, Note_on_c, 15, 36, 110
17, 176339, Note_on_c, 15, 36, 0
17, 176340, Note_on_c, 15, 38, 110
17, 176399, Note_on_c, 15, 38, 0
17, 176400, Note_on_c, 15, 50, 110
17, 176459, Note_on_c, 15, 50, 0
17, 176460, Note_on_c, 15, 55, 110
17, 176519, Note_on_c, 15, 55, 0
17, 176520, Note_on_c, 15, 53, 110
17, 176579, Note_on_c, 15, 53, 0
17, 176580, Note_on_c, 15, 51, 110
17, 176639, Note_on_c, 15, 51, 0
17, 176640, Note_on_c, 15, 48, 110
17, 176699, Note_on_c, 15, 48, 0
17, 176700, Note_on_c, 15, 53, 110
17, 176759, Note_on_c, 15, 53, 0
17, 176760, Note_on_c, 15, 41, 110
17, 176819, Note_on_c, 15, 41, 0
17, 176820, Note_on_c, 15, 46, 110
17, 176879, Note_on_c, 15, 46, 0
17, 176880, Note_on_c, 15, 48, 110
17, 176939, Note_on_c, 15, 48, 0
17, 176940, Note_on_c, 15, 50, 110
17, 176999, Note_on_c, 15, 50, 0
17, 177000, Note_on_c, 15, 48, 110
17, 177059, Note_on_c, 15, 48, 0
17, 177060, Note_on_c, 15, 50, 110
17, 177119, Note_on_c, 15, 50, 0
17, 177120, Note_on_c, 15, 46, 110
17, 177179, Note_on_c, 15, 46, 0
17, 177180, Note_on_c, 15, 41, 110
17, 177180, Note_on_c, 15, 53, 110
17, 177299, Note_on_c, 15, 53, 0
17, 177299, Note_on_c, 15, 41, 0
17, 177540, Note_on_c, 15, 53, 110
17, 177540, Note_on_c, 15, 41, 110
17, 177659, Note_on_c, 15, 41, 0
17, 177659, Note_on_c, 15, 53, 0
17, 177900, Note_on_c, 15, 53, 110
17, 177959, Note_on_c, 15, 53, 0
17, 177960, Note_on_c, 15, 57, 110
17, 177989, Note_on_c, 15, 57, 0
17, 177990, Note_on_c, 15, 55, 110
17, 178019, Note_on_c, 15, 55, 0
17, 178020, Note_on_c, 15, 53, 110
17, 178079, Note_on_c, 15, 53, 0
17, 178080, Note_on_c, 15, 52, 110
17, 178139, Note_on_c, 15, 52, 0
17, 178140, Note_on_c, 15, 50, 110
17, 178199, Note_on_c, 15, 50, 0
17, 178200, Note_on_c, 15, 48, 110
17, 178259, Note_on_c, 15, 48, 0
17, 178260, Note_on_c, 15, 46, 110
17, 178319, Note_on_c, 15, 46, 0
17, 178320, Note_on_c, 15, 43, 110
17, 178379, Note_on_c, 15, 43, 0
17, 178380, Note_on_c, 15, 40, 110
17, 178439, Note_on_c, 15, 40, 0
17, 178440, Note_on_c, 15, 45, 110
17, 178469, Note_on_c, 15, 45, 0
17, 178470, Note_on_c, 15, 43, 110
17, 178499, Note_on_c, 15, 43, 0
17, 178500, Note_on_c, 15, 45, 110
17, 178559, Note_on_c, 15, 45, 0
17, 178560, Note_on_c, 15, 45, 110
17, 178619, Note_on_c, 15, 45, 0
17, 178620, Note_on_c, 15, 38, 110
17, 178679, Note_on_c, 15, 38, 0
17, 178680, Note_on_c, 15, 50, 110
17, 178739, Note_on_c, 15, 50, 0
17, 178740, Note_on_c, 15, 55, 110
17, 178799, Note_on_c, 15, 55, 0
17, 178800, Note_on_c, 15, 57, 110
17, 178859, Note_on_c, 15, 57, 0
17, 178860, Note_on_c, 15, 55, 110
17, 178919, Note_on_c, 15, 55, 0
17, 178920, Note_on_c, 15, 53, 110
17, 178979, Note_on_c, 15, 53, 0
17, 178980, Note_on_c, 15, 52, 110
17, 179039, Note_on_c, 15, 52, 0
17, 179040, Note_on_c, 15, 48, 110
17, 179099, Note_on_c, 15, 48, 0
17, 179100, Note_on_c, 15, 53, 110
17, 179159, Note_on_c, 15, 53, 0
17, 179160, Note_on_c, 15, 52, 110
17, 179219, Note_on_c, 15, 52, 0
17, 179220, Note_on_c, 15, 50, 110
17, 179279, Note_on_c, 15, 50, 0
17, 179280, Note_on_c, 15, 48, 110
17, 179339, Note_on_c, 15, 48, 0
17, 179340, Note_on_c, 15, 50, 110
17, 179399, Note_on_c, 15, 50, 0
17, 179400, Note_on_c, 15, 52, 110
17, 179459, Note_on_c, 15, 52, 0
17, 179460, Note_on_c, 15, 53, 110
17, 179519, Note_on_c, 15, 53, 0
17, 179520, Note_on_c, 15, 52, 110
17, 179579, Note_on_c, 15, 52, 0
17, 179580, Note_on_c, 15, 53, 110
17, 179639, Note_on_c, 15, 53, 0
17, 179640, Note_on_c, 15, 41, 110
17, 179699, Note_on_c, 15, 41, 0
17, 179700, Note_on_c, 15, 48, 110
17, 179759, Note_on_c, 15, 48, 0
17, 179760, Note_on_c, 15, 52, 110
17, 179789, Note_on_c, 15, 52, 0
17, 179790, Note_on_c, 15, 50, 110
17, 179819, Note_on_c, 15, 50, 0
17, 179820, Note_on_c, 15, 52, 110
17, 179879, Note_on_c, 15, 52, 0
17, 179880, Note_on_c, 15, 55, 110
17, 179939, Note_on_c, 15, 55, 0
17, 179940, Note_on_c, 15, 60, 110
17, 179999, Note_on_c, 15, 60, 0
17, 180000, Note_on_c, 15, 48, 110
17, 180059, Note_on_c, 15, 48, 0
17, 180060, Note_on_c, 15, 41, 110
17, 180060, Note_on_c, 15, 53, 110
17, 180179, Note_on_c, 15, 53, 0
17, 180179, Note_on_c, 15, 41, 0
17, 180420, Note_on_c, 15, 53, 110
17, 180420, Note_on_c, 15, 41, 110
17, 180539, Note_on_c, 15, 41, 0
17, 180539, Note_on_c, 15, 53, 0
17, 180780, Note_on_c, 15, 53, 110
17, 180839, Note_on_c, 15, 53, 0
17, 180840, Note_on_c, 15, 57, 110
17, 180869, Note_on_c, 15, 57, 0
17, 180870, Note_on_c, 15, 55, 110
17, 180899, Note_on_c, 15, 55, 0
17, 180900, Note_on_c, 15, 53, 110
17, 180959, Note_on_c, 15, 53, 0
17, 180960, Note_on_c, 15, 52, 110
17, 181019, Note_on_c, 15, 52, 0
17, 181020, Note_on_c, 15, 50, 110
17, 181079, Note_on_c, 15, 50, 0
17, 181080, Note_on_c, 15, 48, 110
17, 181139, Note_on_c, 15, 48, 0
17, 181140, Note_on_c, 15, 46, 110
17, 181199, Note_on_c, 15, 46, 0
17, 181200, Note_on_c, 15, 43, 110
17, 181259, Note_on_c, 15, 43, 0
17, 181260, Note_on_c, 15, 48, 110
17, 181379, Note_on_c, 15, 48, 0
17, 181380, Note_on_c, 15, 36, 110
17, 181499, Note_on_c, 15, 36, 0
17, 181500, Note_on_c, 15, 41, 110
17, 181559, Note_on_c, 15, 41, 0
17, 181560, Note_on_c, 15, 43, 110
17, 181619, Note_on_c, 15, 43, 0
17, 181620, Note_on_c, 15, 45, 110
17, 181679, Note_on_c, 15, 45, 0
17, 181680, Note_on_c, 15, 43, 110
17, 181739, Note_on_c, 15, 43, 0
17, 181740, Note_on_c, 15, 45, 110
17, 181799, Note_on_c, 15, 45, 0
17, 181800, Note_on_c, 15, 41, 110
17, 181859, Note_on_c, 15, 41, 0
17, 181860, Note_on_c, 15, 48, 110
17, 181919, Note_on_c, 15, 48, 0
17, 181920, Note_on_c, 15, 46, 110
17, 181979, Note_on_c, 15, 46, 0
17, 181980, Note_on_c, 15, 48, 110
17, 182039, Note_on_c, 15, 48, 0
17, 182040, Note_on_c, 15, 36, 110
17, 182099, Note_on_c, 15, 36, 0
17, 182100, Note_on_c, 15, 38, 110
17, 182159, Note_on_c, 15, 38, 0
17, 182160, Note_on_c, 15, 50, 110
17, 182219, Note_on_c, 15, 50, 0
17, 182220, Note_on_c, 15, 55, 110
17, 182279, Note_on_c, 15, 55, 0
17, 182280, Note_on_c, 15, 53, 110
17, 182339, Note_on_c, 15, 53, 0
17, 182340, Note_on_c, 15, 51, 110
17, 182399, Note_on_c, 15, 51, 0
17, 182400, Note_on_c, 15, 48, 110
17, 182459, Note_on_c, 15, 48, 0
17, 182460, Note_on_c, 15, 53, 110
17, 182519, Note_on_c, 15, 53, 0
17, 182520, Note_on_c, 15, 41, 110
17, 182579, Note_on_c, 15, 41, 0
17, 182580, Note_on_c, 15, 46, 110
17, 182639, Note_on_c, 15, 46, 0
17, 182640, Note_on_c, 15, 48, 110
17, 182699, Note_on_c, 15, 48, 0
17, 182700, Note_on_c, 15, 50, 110
17, 182759, Note_on_c, 15, 50, 0
17, 182760, Note_on_c, 15, 48, 110
17, 182819, Note_on_c, 15, 48, 0
17, 182820, Note_on_c, 15, 50, 110
17, 182879, Note_on_c, 15, 50, 0
17, 182880, Note_on_c, 15, 46, 110
17, 182939, Note_on_c, 15, 46, 0
17, 182940, Note_on_c, 15, 41, 110
17, 182940, Note_on_c, 15, 53, 110
17, 183059, Note_on_c, 15, 53, 0
17, 183059, Note_on_c, 15, 41, 0
17, 183300, Note_on_c, 15, 53, 110
17, 183300, Note_on_c, 15, 41, 110
17, 183419, Note_on_c, 15, 41, 0
17, 183419, Note_on_c, 15, 53, 0
17, 183660, Note_on_c, 15, 53, 110
17, 183719, Note_on_c, 15, 53, 0
17, 183720, Note_on_c, 15, 57, 110
17, 183749, Note_on_c, 15, 57, 0
17, 183750, Note_on_c, 15, 55, 110
17, 183779, Note_on_c, 15, 55, 0
17, 183780, Note_on_c, 15, 53, 110
17, 183839, Note_on_c, 15, 53, 0
17, 183840, Note_on_c, 15, 52, 110
17, 183899, Note_on_c, 15, 52, 0
17, 183900, Note_on_c, 15, 50, 110
17, 183959, Note_on_c, 15, 50, 0
17, 183960, Note_on_c, 15, 48, 110
17, 184019, Note_on_c, 15, 48, 0
17, 184020, Note_on_c, 15, 46, 110
17, 184079, Note_on_c, 15, 46, 0
17, 184080, Note_on_c, 15, 43, 110
17, 184139, Note_on_c, 15, 43, 0
17, 184140, Note_on_c, 15, 40, 110
17, 184199, Note_on_c, 15, 40, 0
17, 184200, Note_on_c, 15, 45, 110
17, 184229, Note_on_c, 15, 45, 0
17, 184230, Note_on_c, 15, 43, 110
17, 184259, Note_on_c, 15, 43, 0
17, 184260, Note_on_c, 15, 45, 110
17, 184319, Note_on_c, 15, 45, 0
17, 184320, Note_on_c, 15, 45, 110
17, 184379, Note_on_c, 15, 45, 0
17, 184380, Note_on_c, 15, 38, 110
17, 184439, Note_on_c, 15, 38, 0
17, 184440, Note_on_c, 15, 50, 110
17, 184499, Note_on_c, 15, 50, 0
17, 184500, Note_on_c, 15, 55, 110
17, 184559, Note_on_c, 15, 55, 0
17, 184560, Note_on_c, 15, 57, 110
17, 184619, Note_on_c, 15, 57, 0
17, 184620, Note_on_c, 15, 55, 110
17, 184679, Note_on_c, 15, 55, 0
17, 184680, Note_on_c, 15, 53, 110
17, 184739, Note_on_c, 15, 53, 0
17, 184740, Note_on_c, 15, 52, 110
17, 184799, Note_on_c, 15, 52, 0
17, 184800, Note_on_c, 15, 48, 110
17, 184859, Note_on_c, 15, 48, 0
17, 184860, Note_on_c, 15, 53, 110
17, 184919, Note_on_c, 15, 53, 0
17, 184920, Note_on_c, 15, 52, 110
17, 184979, Note_on_c, 15, 52, 0
17, 184980, Note_on_c, 15, 50, 110
17, 185039, Note_on_c, 15, 50, 0
17, 185040, Note_on_c, 15, 48, 110
17, 185099, Note_on_c, 15, 48, 0
17, 185100, Note_on_c, 15, 50, 110
17, 185159, Note_on_c, 15, 50, 0
17, 185160, Note_on_c, 15, 52, 110
17, 185219, Note_on_c, 15, 52, 0
17, 185220, Note_on_c, 15, 53, 110
17, 185279, Note_on_c, 15, 53, 0
17, 185280, Note_on_c, 15, 52, 110
17, 185339, Note_on_c, 15, 52, 0
17, 185340, Note_on_c, 15, 53, 110
17, 185399, Note_on_c, 15, 53, 0
17, 185400, Note_on_c, 15, 41, 110
17, 185459, Note_on_c, 15, 41, 0
17, 185460, Note_on_c, 15, 48, 110
17, 185519, Note_on_c, 15, 48, 0
17, 185520, Note_on_c, 15, 52, 110
17, 185549, Note_on_c, 15, 52, 0
17, 185550, Note_on_c, 15, 50, 110
17, 185579, Note_on_c, 15, 50, 0
17, 185580, Note_on_c, 15, 52, 110
17, 185639, Note_on_c, 15, 52, 0
17, 185640, Note_on_c, 15, 55, 110
17, 185699, Note_on_c, 15, 55, 0
17, 185700, Note_on_c, 15, 60, 110
17, 185759, Note_on_c, 15, 60, 0
17, 185760, Note_on_c, 15, 48, 110
17, 185819, Note_on_c, 15, 48, 0
17, 185820, Note_on_c, 15, 53, 110
17, 185879, Note_on_c, 15, 53, 0
17, 185880, Note_on_c, 15, 57, 110
17, 185939, Note_on_c, 15, 57, 0
17, 185940, Note_on_c, 15, 50, 110
17, 185999, Note_on_c, 15, 50, 0
17, 186000, Note_on_c, 15, 57, 110
17, 186059, Note_on_c, 15, 57, 0
17, 186060, Note_on_c, 15, 62, 110
17, 186119, Note_on_c, 15, 62, 0
17, 186120, Note_on_c, 15, 50, 110
17, 186179, Note_on_c, 15, 50, 0
17, 186180, Note_on_c, 15, 55, 110
17, 186239, Note_on_c, 15, 55, 0
17, 186240, Note_on_c, 15, 50, 110
17, 186299, Note_on_c, 15, 50, 0
17, 186300, Note_on_c, 15, 43, 110
17, 186359, Note_on_c, 15, 43, 0
17, 186360, Note_on_c, 15, 50, 110
17, 186419, Note_on_c, 15, 50, 0
17, 186420, Note_on_c, 15, 55, 110
17, 186479, Note_on_c, 15, 55, 0
17, 186480, Note_on_c, 15, 43, 110
17, 186539, Note_on_c, 15, 43, 0
17, 186540, Note_on_c, 15, 36, 110
17, 186540, Note_on_c, 15, 48, 110
17, 186659, Note_on_c, 15, 48, 0
17, 186659, Note_on_c, 15, 36, 0
17, 186900, Note_on_c, 15, 48, 110
17, 186900, Note_on_c, 15, 36, 110
17, 187019, Note_on_c, 15, 36, 0
17, 187019, Note_on_c, 15, 48, 0
17, 187260, Note_on_c, 15, 48, 110
17, 187319, Note_on_c, 15, 48, 0
17, 187320, Note_on_c, 15, 50, 110
17, 187379, Note_on_c, 15, 50, 0
17, 187380, Note_on_c, 15, 52, 110
17, 187439, Note_on_c, 15, 52, 0
17, 187440, Note_on_c, 15, 50, 110
17, 187499, Note_on_c, 15, 50, 0
17, 187500, Note_on_c, 15, 52, 110
17, 187559, Note_on_c, 15, 52, 0
17, 187560, Note_on_c, 15, 48, 110
17, 187619, Note_on_c, 15, 48, 0
17, 187620, Note_on_c, 15, 53, 110
17, 187679, Note_on_c, 15, 53, 0
17, 187680, Note_on_c, 15, 52, 110
17, 187739, Note_on_c, 15, 52, 0
17, 187740, Note_on_c, 15, 53, 110
17, 187799, Note_on_c, 15, 53, 0
17, 187800, Note_on_c, 15, 41, 110
17, 187859, Note_on_c, 15, 41, 0
17, 187860, Note_on_c, 15, 46, 110
17, 187919, Note_on_c, 15, 46, 0
17, 187920, Note_on_c, 15, 58, 110
17, 187979, Note_on_c, 15, 58, 0
17, 187980, Note_on_c, 15, 52, 110
17, 188039, Note_on_c, 15, 52, 0
17, 188040, Note_on_c, 15, 55, 110
17, 188099, Note_on_c, 15, 55, 0
17, 188100, Note_on_c, 15, 53, 110
17, 188159, Note_on_c, 15, 53, 0
17, 188160, Note_on_c, 15, 52, 110
17, 188219, Note_on_c, 15, 52, 0
17, 188220, Note_on_c, 15, 50, 110
17, 188459, Note_on_c, 15, 50, 0
17, 188460, Note_on_c, 15, 49, 110
17, 188519, Note_on_c, 15, 49, 0
17, 188520, Note_on_c, 15, 47, 110
17, 188579, Note_on_c, 15, 47, 0
17, 188580, Note_on_c, 15, 49, 110
17, 188699, Note_on_c, 15, 49, 0
17, 188700, Note_on_c, 15, 38, 110
17, 188700, Note_on_c, 15, 50, 110
17, 188819, Note_on_c, 15, 50, 0
17, 188819, Note_on_c, 15, 38, 0
17, 189060, Note_on_c, 15, 50, 110
17, 189060, Note_on_c, 15, 38, 110
17, 189179, Note_on_c, 15, 38, 0
17, 189179, Note_on_c, 15, 50, 0
17, 189420, Note_on_c, 15, 50, 110
17, 189479, Note_on_c, 15, 50, 0
17, 189480, Note_on_c, 15, 53, 110
17, 189509, Note_on_c, 15, 53, 0
17, 189510, Note_on_c, 15, 52, 110
17, 189539, Note_on_c, 15, 52, 0
17, 189540, Note_on_c, 15, 50, 110
17, 189599, Note_on_c, 15, 50, 0
17, 189600, Note_on_c, 15, 46, 110
17, 189659, Note_on_c, 15, 46, 0
17, 189660, Note_on_c, 15, 43, 110
17, 189719, Note_on_c, 15, 43, 0
17, 189720, Note_on_c, 15, 55, 110
17, 189779, Note_on_c, 15, 55, 0
17, 189780, Note_on_c, 15, 48, 110
17, 189839, Note_on_c, 15, 48, 0
17, 189840, Note_on_c, 15, 46, 110
17, 189899, Note_on_c, 15, 46, 0
17, 189900, Note_on_c, 15, 45, 110
17, 189959, Note_on_c, 15, 45, 0
17, 189960, Note_on_c, 15, 48, 110
17, 190019, Note_on_c, 15, 48, 0
17, 190020, Note_on_c, 15, 41, 110
17, 190079, Note_on_c, 15, 41, 0
17, 190080, Note_on_c, 15, 53, 110
17, 190139, Note_on_c, 15, 53, 0
17, 190140, Note_on_c, 15, 46, 110
17, 190199, Note_on_c, 15, 46, 0
17, 190200, Note_on_c, 15, 45, 110
17, 190259, Note_on_c, 15, 45, 0
17, 190260, Note_on_c, 15, 43, 110
17, 190319, Note_on_c, 15, 43, 0
17, 190320, Note_on_c, 15, 48, 110
17, 190379, Note_on_c, 15, 48, 0
17, 190380, Note_on_c, 15, 45, 110
17, 190439, Note_on_c, 15, 45, 0
17, 190440, Note_on_c, 15, 41, 110
17, 190499, Note_on_c, 15, 41, 0
17, 190500, Note_on_c, 15, 40, 110
17, 190559, Note_on_c, 15, 40, 0
17, 190560, Note_on_c, 15, 38, 110
17, 190619, Note_on_c, 15, 38, 0
17, 190620, Note_on_c, 15, 40, 110
17, 190679, Note_on_c, 15, 40, 0
17, 190680, Note_on_c, 15, 36, 110
17, 190739, Note_on_c, 15, 36, 0
17, 190740, Note_on_c, 15, 48, 110
17, 190799, Note_on_c, 15, 48, 0
17, 190800, Note_on_c, 15, 52, 110
17, 190859, Note_on_c, 15, 52, 0
17, 190860, Note_on_c, 15, 53, 110
17, 190919, Note_on_c, 15, 53, 0
17, 190920, Note_on_c, 15, 41, 110
17, 190979, Note_on_c, 15, 41, 0
17, 190980, Note_on_c, 15, 46, 110
17, 191039, Note_on_c, 15, 46, 0
17, 191040, Note_on_c, 15, 48, 110
17, 191099, Note_on_c, 15, 48, 0
17, 191100, Note_on_c, 15, 50, 110
17, 191159, Note_on_c, 15, 50, 0
17, 191160, Note_on_c, 15, 46, 110
17, 191219, Note_on_c, 15, 46, 0
17, 191220, Note_on_c, 15, 48, 110
17, 191279, Note_on_c, 15, 48, 0
17, 191280, Note_on_c, 15, 46, 110
17, 191339, Note_on_c, 15, 46, 0
17, 191340, Note_on_c, 15, 48, 110
17, 191459, Note_on_c, 15, 48, 0
17, 191460, Note_on_c, 15, 36, 110
17, 191579, Note_on_c, 15, 36, 0
17, 191580, Note_on_c, 15, 53, 110
17, 191580, Note_on_c, 15, 41, 110
17, 191699, Note_on_c, 15, 41, 0
17, 191699, Note_on_c, 15, 53, 0
17, 191940, Note_on_c, 15, 53, 110
17, 191940, Note_on_c, 15, 41, 110
17, 192059, Note_on_c, 15, 41, 0
17, 192059, Note_on_c, 15, 53, 0
17, 192300, Note_on_c, 15, 53, 110
17, 192359, Note_on_c, 15, 53, 0
17, 192360, Note_on_c, 15, 57, 110
17, 192389, Note_on_c, 15, 57, 0
17, 192390, Note_on_c, 15, 55, 110
17, 192419, Note_on_c, 15, 55, 0
17, 192420, Note_on_c, 15, 53, 110
17, 192479, Note_on_c, 15, 53, 0
17, 192480, Note_on_c, 15, 52, 110
17, 192539, Note_on_c, 15, 52, 0
17, 192540, Note_on_c, 15, 50, 110
17, 192599, Note_on_c, 15, 50, 0
17, 192600, Note_on_c, 15, 48, 110
17, 192659, Note_on_c, 15, 48, 0
17, 192660, Note_on_c, 15, 46, 110
17, 192719, Note_on_c, 15, 46, 0
17, 192720, Note_on_c, 15, 45, 110
17, 192779, Note_on_c, 15, 45, 0
17, 192780, Note_on_c, 15, 48, 110
17, 192899, Note_on_c, 15, 48, 0
17, 192900, Note_on_c, 15, 48, 110
17, 192900, Note_on_c, 15, 36, 110
17, 193019, Note_on_c, 15, 36, 0
17, 193019, Note_on_c, 15, 48, 0
17, 193020, Note_on_c, 15, 53, 110
17, 193020, Note_on_c, 15, 41, 110
17, 193139, Note_on_c, 15, 41, 0
17, 193139, Note_on_c, 15, 53, 0
17, 193139, End_track
18, 0, Start_track
18, 0, MIDI_port, 0
18, 0, Title_t, "J.S.BACH"
18, 0, End_track
19, 0, Start_track
19, 0, MIDI_port, 0
19, 0, Title_t, "CHRISTMAS ORATORIO"
19, 0, End_track
20, 0, Start_track
20, 0, MIDI_port, 0
20, 0, Title_t, "BWV 248"
20, 0, End_track
21, 0, Start_track
21, 0, MIDI_port, 0
21, 0, Title_t, "CANTATA Nº4"
21, 0, End_track
22, 0, Start_track
22, 0, MIDI_port, 0
22, 0, Title_t, "Falt mit Danken, falt mit Loben"
22, 0, End_track
23, 0, Start_track
23, 0, MIDI_port, 0
23, 0, Title_t, "SECUENCED BY"
23, 0, End_track
24, 0, Start_track
24, 0, MIDI_port, 0
24, 0, Title_t, "MARCELO COPIA M."
24, 0, End_track
25, 0, Start_track
25, 0, MIDI_port, 0
25, 0, Title_t, "mcopia@entelchile.net"
25, 0, End_track
0, 0, End_of_file
