0, 0, Header, 1, 28, 120
1, 0, Start_track
1, 0, Time_signature, 3, 3, 12, 8
1, 0, Key_signature, 2, "major"
1, 0, Tempo, 750000
1, 0, Marker_t, "Coro: Herrscher des Himmels erhöre das Lallen"
1, 17460, Time_signature, 4, 2, 24, 8
1, 17460, Marker_t, "Recit:"
1, 18900, Time_signature, 3, 2, 24, 8
1, 18900, Key_signature, 3, "major"
1, 18900, Tempo, 600000
1, 18900, Marker_t, "Coro:"
1, 28620, Time_signature, 4, 2, 24, 8
1, 28620, Tempo, 857143
1, 29100, Marker_t, "Recit Bass"
1, 32460, Time_signature, 1, 2, 24, 8
1, 32460, Key_signature, 2, "major"
1, 32460, Marker_t, "choral"
1, 32580, Time_signature, 4, 2, 24, 8
1, 37380, Time_signature, 3, 3, 12, 8
1, 37380, Key_signature, 3, "major"
1, 37380, Tempo, 1000000
1, 37380, Marker_t, "Duetto Soprano & Bass: Herr, dein Mitleid, dein Erbarmen"
1, 67202, Tempo, 1000000
1, 67204, Tempo, 1016949
1, 67206, Tempo, 1052632
1, 67208, Tempo, 1071429
1, 67210, Tempo, 1111111
1, 67212, Tempo, 1153846
1, 67214, Tempo, 1176471
1, 67216, Tempo, 1224490
1, 67218, Tempo, 1276596
1, 67220, Tempo, 1304348
1, 67222, Tempo, 1363636
1, 67224, Tempo, 1428571
1, 67226, Tempo, 1463415
1, 67228, Tempo, 1538462
1, 67230, Tempo, 1621622
1, 67232, Tempo, 1666667
1, 67234, Tempo, 1764706
1, 67236, Tempo, 1875000
1, 67238, Tempo, 1935484
1, 67240, Tempo, 2068966
1, 67242, Tempo, 2222222
1, 67244, Tempo, 2307692
1, 67246, Tempo, 2500000
1, 67248, Tempo, 2727273
1, 67250, Tempo, 2857143
1, 67252, Tempo, 3157895
1, 67254, Tempo, 3529412
1, 67262, Tempo, 983607
1, 87780, Time_signature, 4, 2, 24, 8
1, 87780, Key_signature, 2, "major"
1, 87780, Marker_t, "Recit Evangelist"
1, 94980, Time_signature, 2, 2, 24, 8
1, 94980, Tempo, 1000000
1, 94980, Marker_t, "aria Alto: Schliesse, mein Herze, dies selige Wunder"
1, 130020, Time_signature, 1, 2, 24, 8
1, 130140, Time_signature, 4, 2, 24, 8
1, 130140, Marker_t, "Recit Alto"
1, 132540, Time_signature, 1, 2, 24, 8
1, 132660, Time_signature, 4, 2, 24, 8
1, 132660, Key_signature, 1, "major"
1, 132660, Marker_t, "Choral"
1, 138900, Time_signature, 1, 2, 24, 8
1, 139020, Time_signature, 4, 2, 24, 8
1, 139020, Key_signature, 2, "major"
1, 139020, Marker_t, "Recit Evangelist"
1, 141900, Time_signature, 1, 2, 24, 8
1, 141900, Key_signature, 3, "major"
1, 141900, Marker_t, "Choral"
1, 142020, Time_signature, 4, 2, 24, 8
1, 147300, Tempo, 750000
1, 147300, Marker_t, "Coro: Herrscher des Himmels erhöre das Lallen"
1, 147300, End_track
2, 0, Start_track
2, 0, MIDI_port, 0
2, 0, Title_t, "trompeta i"
2, 0, Program_c, 0, 56
2, 0, Control_c, 0, 7, 127
2, 0, Control_c, 0, 10, 43
2, 0, Note_on_c, 0, 78, 90
2, 59, Note_on_c, 0, 78, 0
2, 60, Note_on_c, 0, 78, 90
2, 119, Note_on_c, 0, 78, 0
2, 120, Note_on_c, 0, 78, 90
2, 179, Note_on_c, 0, 78, 0
2, 180, Note_on_c, 0, 78, 90
2, 239, Note_on_c, 0, 78, 0
2, 240, Note_on_c, 0, 74, 90
2, 269, Note_on_c, 0, 74, 0
2, 270, Note_on_c, 0, 76, 90
2, 299, Note_on_c, 0, 76, 0
2, 300, Note_on_c, 0, 78, 90
2, 329, Note_on_c, 0, 78, 0
2, 330, Note_on_c, 0, 79, 90
2, 359, Note_on_c, 0, 79, 0
2, 360, Note_on_c, 0, 81, 90
2, 419, Note_on_c, 0, 81, 0
2, 420, Note_on_c, 0, 79, 90
2, 479, Note_on_c, 0, 79, 0
2, 480, Note_on_c, 0, 78, 90
2, 539, Note_on_c, 0, 78, 0
2, 540, Note_on_c, 0, 79, 90
2, 629, Note_on_c, 0, 79, 0
2, 630, Note_on_c, 0, 81, 90
2, 644, Note_on_c, 0, 81, 0
2, 645, Note_on_c, 0, 83, 90
2, 659, Note_on_c, 0, 83, 0
2, 660, Note_on_c, 0, 81, 90
2, 719, Note_on_c, 0, 81, 0
2, 720, Note_on_c, 0, 79, 90
2, 779, Note_on_c, 0, 79, 0
2, 780, Note_on_c, 0, 79, 90
2, 839, Note_on_c, 0, 79, 0
2, 840, Note_on_c, 0, 79, 90
2, 899, Note_on_c, 0, 79, 0
2, 900, Note_on_c, 0, 79, 90
2, 959, Note_on_c, 0, 79, 0
2, 960, Note_on_c, 0, 76, 90
2, 989, Note_on_c, 0, 76, 0
2, 990, Note_on_c, 0, 74, 90
2, 1019, Note_on_c, 0, 74, 0
2, 1020, Note_on_c, 0, 76, 90
2, 1049, Note_on_c, 0, 76, 0
2, 1050, Note_on_c, 0, 78, 90
2, 1079, Note_on_c, 0, 78, 0
2, 1080, Note_on_c, 0, 79, 90
2, 1109, Note_on_c, 0, 79, 0
2, 1110, Note_on_c, 0, 78, 90
2, 1139, Note_on_c, 0, 78, 0
2, 1140, Note_on_c, 0, 81, 90
2, 1169, Note_on_c, 0, 81, 0
2, 1170, Note_on_c, 0, 79, 90
2, 1199, Note_on_c, 0, 79, 0
2, 1200, Note_on_c, 0, 78, 90
2, 1229, Note_on_c, 0, 78, 0
2, 1230, Note_on_c, 0, 76, 90
2, 1259, Note_on_c, 0, 76, 0
2, 1260, Note_on_c, 0, 78, 90
2, 1349, Note_on_c, 0, 78, 0
2, 1350, Note_on_c, 0, 79, 90
2, 1364, Note_on_c, 0, 79, 0
2, 1365, Note_on_c, 0, 81, 90
2, 1379, Note_on_c, 0, 81, 0
2, 1380, Note_on_c, 0, 79, 90
2, 1439, Note_on_c, 0, 79, 0
2, 1440, Note_on_c, 0, 78, 90
2, 1499, Note_on_c, 0, 78, 0
2, 1500, Note_on_c, 0, 80, 90
2, 1559, Note_on_c, 0, 80, 0
2, 1560, Note_on_c, 0, 81, 90
2, 1619, Note_on_c, 0, 81, 0
2, 1620, Note_on_c, 0, 83, 90
2, 1649, Note_on_c, 0, 83, 0
2, 1650, Note_on_c, 0, 85, 90
2, 1679, Note_on_c, 0, 85, 0
2, 1680, Note_on_c, 0, 86, 90
2, 1739, Note_on_c, 0, 86, 0
2, 1740, Note_on_c, 0, 85, 90
2, 1799, Note_on_c, 0, 85, 0
2, 1800, Note_on_c, 0, 83, 90
2, 1859, Note_on_c, 0, 83, 0
2, 1860, Note_on_c, 0, 81, 90
2, 1919, Note_on_c, 0, 81, 0
2, 1920, Note_on_c, 0, 80, 90
2, 1979, Note_on_c, 0, 80, 0
2, 1980, Note_on_c, 0, 81, 90
2, 2880, Note_on_c, 0, 81, 0
2, 5760, Note_on_c, 0, 78, 90
2, 5819, Note_on_c, 0, 78, 0
2, 5820, Note_on_c, 0, 78, 90
2, 5879, Note_on_c, 0, 78, 0
2, 5880, Note_on_c, 0, 78, 90
2, 5939, Note_on_c, 0, 78, 0
2, 5940, Note_on_c, 0, 78, 90
2, 5999, Note_on_c, 0, 78, 0
2, 6000, Note_on_c, 0, 74, 90
2, 6029, Note_on_c, 0, 74, 0
2, 6030, Note_on_c, 0, 76, 90
2, 6059, Note_on_c, 0, 76, 0
2, 6060, Note_on_c, 0, 78, 90
2, 6089, Note_on_c, 0, 78, 0
2, 6090, Note_on_c, 0, 79, 90
2, 6119, Note_on_c, 0, 79, 0
2, 6120, Note_on_c, 0, 81, 90
2, 6179, Note_on_c, 0, 81, 0
2, 6180, Note_on_c, 0, 79, 90
2, 6239, Note_on_c, 0, 79, 0
2, 6240, Note_on_c, 0, 78, 90
2, 6299, Note_on_c, 0, 78, 0
2, 6300, Note_on_c, 0, 79, 90
2, 6389, Note_on_c, 0, 79, 0
2, 6390, Note_on_c, 0, 81, 90
2, 6404, Note_on_c, 0, 81, 0
2, 6405, Note_on_c, 0, 83, 90
2, 6419, Note_on_c, 0, 83, 0
2, 6420, Note_on_c, 0, 81, 90
2, 6479, Note_on_c, 0, 81, 0
2, 6480, Note_on_c, 0, 79, 90
2, 6539, Note_on_c, 0, 79, 0
2, 6540, Note_on_c, 0, 79, 90
2, 6599, Note_on_c, 0, 79, 0
2, 6600, Note_on_c, 0, 79, 90
2, 6659, Note_on_c, 0, 79, 0
2, 6660, Note_on_c, 0, 79, 90
2, 6719, Note_on_c, 0, 79, 0
2, 6720, Note_on_c, 0, 76, 90
2, 6749, Note_on_c, 0, 76, 0
2, 6750, Note_on_c, 0, 74, 90
2, 6779, Note_on_c, 0, 74, 0
2, 6780, Note_on_c, 0, 76, 90
2, 6809, Note_on_c, 0, 76, 0
2, 6810, Note_on_c, 0, 78, 90
2, 6839, Note_on_c, 0, 78, 0
2, 6840, Note_on_c, 0, 79, 90
2, 6869, Note_on_c, 0, 79, 0
2, 6870, Note_on_c, 0, 78, 90
2, 6899, Note_on_c, 0, 78, 0
2, 6900, Note_on_c, 0, 81, 90
2, 6929, Note_on_c, 0, 81, 0
2, 6930, Note_on_c, 0, 79, 90
2, 6959, Note_on_c, 0, 79, 0
2, 6960, Note_on_c, 0, 78, 90
2, 6989, Note_on_c, 0, 78, 0
2, 6990, Note_on_c, 0, 76, 90
2, 7019, Note_on_c, 0, 76, 0
2, 7020, Note_on_c, 0, 78, 90
2, 7109, Note_on_c, 0, 78, 0
2, 7110, Note_on_c, 0, 79, 90
2, 7124, Note_on_c, 0, 79, 0
2, 7125, Note_on_c, 0, 81, 90
2, 7139, Note_on_c, 0, 81, 0
2, 7140, Note_on_c, 0, 79, 90
2, 7199, Note_on_c, 0, 79, 0
2, 7200, Note_on_c, 0, 78, 90
2, 7259, Note_on_c, 0, 78, 0
2, 7260, Note_on_c, 0, 80, 90
2, 7319, Note_on_c, 0, 80, 0
2, 7320, Note_on_c, 0, 81, 90
2, 7379, Note_on_c, 0, 81, 0
2, 7380, Note_on_c, 0, 83, 90
2, 7409, Note_on_c, 0, 83, 0
2, 7410, Note_on_c, 0, 85, 90
2, 7439, Note_on_c, 0, 85, 0
2, 7440, Note_on_c, 0, 86, 90
2, 7499, Note_on_c, 0, 86, 0
2, 7500, Note_on_c, 0, 85, 90
2, 7559, Note_on_c, 0, 85, 0
2, 7560, Note_on_c, 0, 83, 90
2, 7619, Note_on_c, 0, 83, 0
2, 7620, Note_on_c, 0, 81, 90
2, 7679, Note_on_c, 0, 81, 0
2, 7680, Note_on_c, 0, 80, 90
2, 7739, Note_on_c, 0, 80, 0
2, 7740, Note_on_c, 0, 81, 90
2, 8640, Note_on_c, 0, 81, 0
2, 8640, Note_on_c, 0, 76, 90
2, 8699, Note_on_c, 0, 76, 0
2, 8700, Note_on_c, 0, 76, 90
2, 8759, Note_on_c, 0, 76, 0
2, 8760, Note_on_c, 0, 76, 90
2, 8819, Note_on_c, 0, 76, 0
2, 8820, Note_on_c, 0, 76, 90
2, 9059, Note_on_c, 0, 76, 0
2, 9060, Note_on_c, 0, 74, 90
2, 9119, Note_on_c, 0, 74, 0
2, 9120, Note_on_c, 0, 76, 90
2, 9179, Note_on_c, 0, 76, 0
2, 9180, Note_on_c, 0, 78, 90
2, 9239, Note_on_c, 0, 78, 0
2, 9240, Note_on_c, 0, 76, 90
2, 9329, Note_on_c, 0, 76, 0
2, 9330, Note_on_c, 0, 78, 90
2, 9344, Note_on_c, 0, 78, 0
2, 9345, Note_on_c, 0, 79, 90
2, 9359, Note_on_c, 0, 79, 0
2, 9360, Note_on_c, 0, 78, 90
2, 9419, Note_on_c, 0, 78, 0
2, 9420, Note_on_c, 0, 78, 90
2, 9479, Note_on_c, 0, 78, 0
2, 9480, Note_on_c, 0, 78, 90
2, 9539, Note_on_c, 0, 78, 0
2, 9540, Note_on_c, 0, 78, 90
2, 9599, Note_on_c, 0, 78, 0
2, 9600, Note_on_c, 0, 81, 90
2, 9629, Note_on_c, 0, 81, 0
2, 9630, Note_on_c, 0, 79, 90
2, 9659, Note_on_c, 0, 79, 0
2, 9660, Note_on_c, 0, 78, 90
2, 9689, Note_on_c, 0, 78, 0
2, 9690, Note_on_c, 0, 76, 90
2, 9719, Note_on_c, 0, 76, 0
2, 9720, Note_on_c, 0, 74, 90
2, 9779, Note_on_c, 0, 74, 0
2, 9780, Note_on_c, 0, 79, 90
2, 9839, Note_on_c, 0, 79, 0
2, 9840, Note_on_c, 0, 81, 90
2, 9899, Note_on_c, 0, 81, 0
2, 9900, Note_on_c, 0, 83, 90
2, 9959, Note_on_c, 0, 83, 0
2, 9960, Note_on_c, 0, 81, 90
2, 10049, Note_on_c, 0, 81, 0
2, 10050, Note_on_c, 0, 83, 90
2, 10064, Note_on_c, 0, 83, 0
2, 10065, Note_on_c, 0, 84, 90
2, 10079, Note_on_c, 0, 84, 0
2, 10080, Note_on_c, 0, 83, 90
2, 10139, Note_on_c, 0, 83, 0
2, 10140, Note_on_c, 0, 81, 90
2, 10169, Note_on_c, 0, 81, 0
2, 10170, Note_on_c, 0, 79, 90
2, 10199, Note_on_c, 0, 79, 0
2, 10200, Note_on_c, 0, 78, 90
2, 10229, Note_on_c, 0, 78, 0
2, 10230, Note_on_c, 0, 76, 90
2, 10259, Note_on_c, 0, 76, 0
2, 10260, Note_on_c, 0, 81, 90
2, 10319, Note_on_c, 0, 81, 0
2, 10320, Note_on_c, 0, 74, 90
2, 10379, Note_on_c, 0, 74, 0
2, 10380, Note_on_c, 0, 79, 90
2, 10439, Note_on_c, 0, 79, 0
2, 10440, Note_on_c, 0, 78, 90
2, 10499, Note_on_c, 0, 78, 0
2, 10500, Note_on_c, 0, 79, 90
2, 10559, Note_on_c, 0, 79, 0
2, 10560, Note_on_c, 0, 76, 90
2, 10619, Note_on_c, 0, 76, 0
2, 10620, Note_on_c, 0, 74, 90
2, 11520, Note_on_c, 0, 74, 0
2, 14400, Note_on_c, 0, 76, 90
2, 14459, Note_on_c, 0, 76, 0
2, 14460, Note_on_c, 0, 76, 90
2, 14519, Note_on_c, 0, 76, 0
2, 14520, Note_on_c, 0, 76, 90
2, 14579, Note_on_c, 0, 76, 0
2, 14580, Note_on_c, 0, 76, 90
2, 14819, Note_on_c, 0, 76, 0
2, 14820, Note_on_c, 0, 74, 90
2, 14879, Note_on_c, 0, 74, 0
2, 14880, Note_on_c, 0, 76, 90
2, 14939, Note_on_c, 0, 76, 0
2, 14940, Note_on_c, 0, 78, 90
2, 14999, Note_on_c, 0, 78, 0
2, 15000, Note_on_c, 0, 76, 90
2, 15089, Note_on_c, 0, 76, 0
2, 15090, Note_on_c, 0, 78, 90
2, 15104, Note_on_c, 0, 78, 0
2, 15105, Note_on_c, 0, 79, 90
2, 15119, Note_on_c, 0, 79, 0
2, 15120, Note_on_c, 0, 78, 90
2, 15179, Note_on_c, 0, 78, 0
2, 15180, Note_on_c, 0, 78, 90
2, 15239, Note_on_c, 0, 78, 0
2, 15240, Note_on_c, 0, 78, 90
2, 15299, Note_on_c, 0, 78, 0
2, 15300, Note_on_c, 0, 78, 90
2, 15359, Note_on_c, 0, 78, 0
2, 15360, Note_on_c, 0, 81, 90
2, 15389, Note_on_c, 0, 81, 0
2, 15390, Note_on_c, 0, 79, 90
2, 15419, Note_on_c, 0, 79, 0
2, 15420, Note_on_c, 0, 78, 90
2, 15449, Note_on_c, 0, 78, 0
2, 15450, Note_on_c, 0, 76, 90
2, 15479, Note_on_c, 0, 76, 0
2, 15480, Note_on_c, 0, 74, 90
2, 15539, Note_on_c, 0, 74, 0
2, 15540, Note_on_c, 0, 79, 90
2, 15599, Note_on_c, 0, 79, 0
2, 15600, Note_on_c, 0, 81, 90
2, 15659, Note_on_c, 0, 81, 0
2, 15660, Note_on_c, 0, 83, 90
2, 15719, Note_on_c, 0, 83, 0
2, 15720, Note_on_c, 0, 81, 90
2, 15809, Note_on_c, 0, 81, 0
2, 15810, Note_on_c, 0, 83, 90
2, 15824, Note_on_c, 0, 83, 0
2, 15825, Note_on_c, 0, 84, 90
2, 15839, Note_on_c, 0, 84, 0
2, 15840, Note_on_c, 0, 83, 90
2, 15899, Note_on_c, 0, 83, 0
2, 15900, Note_on_c, 0, 81, 90
2, 15929, Note_on_c, 0, 81, 0
2, 15930, Note_on_c, 0, 79, 90
2, 15959, Note_on_c, 0, 79, 0
2, 15960, Note_on_c, 0, 78, 90
2, 15989, Note_on_c, 0, 78, 0
2, 15990, Note_on_c, 0, 76, 90
2, 16019, Note_on_c, 0, 76, 0
2, 16020, Note_on_c, 0, 81, 90
2, 16079, Note_on_c, 0, 81, 0
2, 16080, Note_on_c, 0, 74, 90
2, 16139, Note_on_c, 0, 74, 0
2, 16140, Note_on_c, 0, 79, 90
2, 16199, Note_on_c, 0, 79, 0
2, 16200, Note_on_c, 0, 78, 90
2, 16259, Note_on_c, 0, 78, 0
2, 16260, Note_on_c, 0, 79, 90
2, 16319, Note_on_c, 0, 79, 0
2, 16320, Note_on_c, 0, 76, 90
2, 16379, Note_on_c, 0, 76, 0
2, 16380, Note_on_c, 0, 74, 90
2, 17280, Note_on_c, 0, 74, 0
2, 147300, Note_on_c, 0, 78, 90
2, 147359, Note_on_c, 0, 78, 0
2, 147360, Note_on_c, 0, 78, 90
2, 147419, Note_on_c, 0, 78, 0
2, 147420, Note_on_c, 0, 78, 90
2, 147479, Note_on_c, 0, 78, 0
2, 147480, Note_on_c, 0, 78, 90
2, 147539, Note_on_c, 0, 78, 0
2, 147540, Note_on_c, 0, 74, 90
2, 147569, Note_on_c, 0, 74, 0
2, 147570, Note_on_c, 0, 76, 90
2, 147599, Note_on_c, 0, 76, 0
2, 147600, Note_on_c, 0, 78, 90
2, 147629, Note_on_c, 0, 78, 0
2, 147630, Note_on_c, 0, 79, 90
2, 147659, Note_on_c, 0, 79, 0
2, 147660, Note_on_c, 0, 81, 90
2, 147719, Note_on_c, 0, 81, 0
2, 147720, Note_on_c, 0, 79, 90
2, 147779, Note_on_c, 0, 79, 0
2, 147780, Note_on_c, 0, 78, 90
2, 147839, Note_on_c, 0, 78, 0
2, 147840, Note_on_c, 0, 79, 90
2, 147929, Note_on_c, 0, 79, 0
2, 147930, Note_on_c, 0, 81, 90
2, 147944, Note_on_c, 0, 81, 0
2, 147945, Note_on_c, 0, 83, 90
2, 147959, Note_on_c, 0, 83, 0
2, 147960, Note_on_c, 0, 81, 90
2, 148019, Note_on_c, 0, 81, 0
2, 148020, Note_on_c, 0, 79, 90
2, 148079, Note_on_c, 0, 79, 0
2, 148080, Note_on_c, 0, 79, 90
2, 148139, Note_on_c, 0, 79, 0
2, 148140, Note_on_c, 0, 79, 90
2, 148199, Note_on_c, 0, 79, 0
2, 148200, Note_on_c, 0, 79, 90
2, 148259, Note_on_c, 0, 79, 0
2, 148260, Note_on_c, 0, 76, 90
2, 148289, Note_on_c, 0, 76, 0
2, 148290, Note_on_c, 0, 74, 90
2, 148319, Note_on_c, 0, 74, 0
2, 148320, Note_on_c, 0, 76, 90
2, 148349, Note_on_c, 0, 76, 0
2, 148350, Note_on_c, 0, 78, 90
2, 148379, Note_on_c, 0, 78, 0
2, 148380, Note_on_c, 0, 79, 90
2, 148409, Note_on_c, 0, 79, 0
2, 148410, Note_on_c, 0, 78, 90
2, 148439, Note_on_c, 0, 78, 0
2, 148440, Note_on_c, 0, 81, 90
2, 148469, Note_on_c, 0, 81, 0
2, 148470, Note_on_c, 0, 79, 90
2, 148499, Note_on_c, 0, 79, 0
2, 148500, Note_on_c, 0, 78, 90
2, 148529, Note_on_c, 0, 78, 0
2, 148530, Note_on_c, 0, 76, 90
2, 148559, Note_on_c, 0, 76, 0
2, 148560, Note_on_c, 0, 78, 90
2, 148649, Note_on_c, 0, 78, 0
2, 148650, Note_on_c, 0, 79, 90
2, 148664, Note_on_c, 0, 79, 0
2, 148665, Note_on_c, 0, 81, 90
2, 148679, Note_on_c, 0, 81, 0
2, 148680, Note_on_c, 0, 79, 90
2, 148739, Note_on_c, 0, 79, 0
2, 148740, Note_on_c, 0, 78, 90
2, 148799, Note_on_c, 0, 78, 0
2, 148800, Note_on_c, 0, 80, 90
2, 148859, Note_on_c, 0, 80, 0
2, 148860, Note_on_c, 0, 81, 90
2, 148919, Note_on_c, 0, 81, 0
2, 148920, Note_on_c, 0, 83, 90
2, 148949, Note_on_c, 0, 83, 0
2, 148950, Note_on_c, 0, 85, 90
2, 148979, Note_on_c, 0, 85, 0
2, 148980, Note_on_c, 0, 86, 90
2, 149039, Note_on_c, 0, 86, 0
2, 149040, Note_on_c, 0, 85, 90
2, 149099, Note_on_c, 0, 85, 0
2, 149100, Note_on_c, 0, 83, 90
2, 149159, Note_on_c, 0, 83, 0
2, 149160, Note_on_c, 0, 81, 90
2, 149219, Note_on_c, 0, 81, 0
2, 149220, Note_on_c, 0, 80, 90
2, 149279, Note_on_c, 0, 80, 0
2, 149280, Note_on_c, 0, 81, 90
2, 150180, Note_on_c, 0, 81, 0
2, 153060, Note_on_c, 0, 78, 90
2, 153119, Note_on_c, 0, 78, 0
2, 153120, Note_on_c, 0, 78, 90
2, 153179, Note_on_c, 0, 78, 0
2, 153180, Note_on_c, 0, 78, 90
2, 153239, Note_on_c, 0, 78, 0
2, 153240, Note_on_c, 0, 78, 90
2, 153299, Note_on_c, 0, 78, 0
2, 153300, Note_on_c, 0, 74, 90
2, 153329, Note_on_c, 0, 74, 0
2, 153330, Note_on_c, 0, 76, 90
2, 153359, Note_on_c, 0, 76, 0
2, 153360, Note_on_c, 0, 78, 90
2, 153389, Note_on_c, 0, 78, 0
2, 153390, Note_on_c, 0, 79, 90
2, 153419, Note_on_c, 0, 79, 0
2, 153420, Note_on_c, 0, 81, 90
2, 153479, Note_on_c, 0, 81, 0
2, 153480, Note_on_c, 0, 79, 90
2, 153539, Note_on_c, 0, 79, 0
2, 153540, Note_on_c, 0, 78, 90
2, 153599, Note_on_c, 0, 78, 0
2, 153600, Note_on_c, 0, 79, 90
2, 153689, Note_on_c, 0, 79, 0
2, 153690, Note_on_c, 0, 81, 90
2, 153704, Note_on_c, 0, 81, 0
2, 153705, Note_on_c, 0, 83, 90
2, 153719, Note_on_c, 0, 83, 0
2, 153720, Note_on_c, 0, 81, 90
2, 153779, Note_on_c, 0, 81, 0
2, 153780, Note_on_c, 0, 79, 90
2, 153839, Note_on_c, 0, 79, 0
2, 153840, Note_on_c, 0, 79, 90
2, 153899, Note_on_c, 0, 79, 0
2, 153900, Note_on_c, 0, 79, 90
2, 153959, Note_on_c, 0, 79, 0
2, 153960, Note_on_c, 0, 79, 90
2, 154019, Note_on_c, 0, 79, 0
2, 154020, Note_on_c, 0, 76, 90
2, 154049, Note_on_c, 0, 76, 0
2, 154050, Note_on_c, 0, 74, 90
2, 154079, Note_on_c, 0, 74, 0
2, 154080, Note_on_c, 0, 76, 90
2, 154109, Note_on_c, 0, 76, 0
2, 154110, Note_on_c, 0, 78, 90
2, 154139, Note_on_c, 0, 78, 0
2, 154140, Note_on_c, 0, 79, 90
2, 154169, Note_on_c, 0, 79, 0
2, 154170, Note_on_c, 0, 78, 90
2, 154199, Note_on_c, 0, 78, 0
2, 154200, Note_on_c, 0, 81, 90
2, 154229, Note_on_c, 0, 81, 0
2, 154230, Note_on_c, 0, 79, 90
2, 154259, Note_on_c, 0, 79, 0
2, 154260, Note_on_c, 0, 78, 90
2, 154289, Note_on_c, 0, 78, 0
2, 154290, Note_on_c, 0, 76, 90
2, 154319, Note_on_c, 0, 76, 0
2, 154320, Note_on_c, 0, 78, 90
2, 154409, Note_on_c, 0, 78, 0
2, 154410, Note_on_c, 0, 79, 90
2, 154424, Note_on_c, 0, 79, 0
2, 154425, Note_on_c, 0, 81, 90
2, 154439, Note_on_c, 0, 81, 0
2, 154440, Note_on_c, 0, 79, 90
2, 154499, Note_on_c, 0, 79, 0
2, 154500, Note_on_c, 0, 78, 90
2, 154559, Note_on_c, 0, 78, 0
2, 154560, Note_on_c, 0, 80, 90
2, 154619, Note_on_c, 0, 80, 0
2, 154620, Note_on_c, 0, 81, 90
2, 154679, Note_on_c, 0, 81, 0
2, 154680, Note_on_c, 0, 83, 90
2, 154709, Note_on_c, 0, 83, 0
2, 154710, Note_on_c, 0, 85, 90
2, 154739, Note_on_c, 0, 85, 0
2, 154740, Note_on_c, 0, 86, 90
2, 154799, Note_on_c, 0, 86, 0
2, 154800, Note_on_c, 0, 85, 90
2, 154859, Note_on_c, 0, 85, 0
2, 154860, Note_on_c, 0, 83, 90
2, 154919, Note_on_c, 0, 83, 0
2, 154920, Note_on_c, 0, 81, 90
2, 154979, Note_on_c, 0, 81, 0
2, 154980, Note_on_c, 0, 80, 90
2, 155039, Note_on_c, 0, 80, 0
2, 155040, Note_on_c, 0, 81, 90
2, 155940, Note_on_c, 0, 81, 0
2, 155940, Note_on_c, 0, 76, 90
2, 155999, Note_on_c, 0, 76, 0
2, 156000, Note_on_c, 0, 76, 90
2, 156059, Note_on_c, 0, 76, 0
2, 156060, Note_on_c, 0, 76, 90
2, 156119, Note_on_c, 0, 76, 0
2, 156120, Note_on_c, 0, 76, 90
2, 156359, Note_on_c, 0, 76, 0
2, 156360, Note_on_c, 0, 74, 90
2, 156419, Note_on_c, 0, 74, 0
2, 156420, Note_on_c, 0, 76, 90
2, 156479, Note_on_c, 0, 76, 0
2, 156480, Note_on_c, 0, 78, 90
2, 156539, Note_on_c, 0, 78, 0
2, 156540, Note_on_c, 0, 76, 90
2, 156629, Note_on_c, 0, 76, 0
2, 156630, Note_on_c, 0, 78, 90
2, 156644, Note_on_c, 0, 78, 0
2, 156645, Note_on_c, 0, 79, 90
2, 156659, Note_on_c, 0, 79, 0
2, 156660, Note_on_c, 0, 78, 90
2, 156719, Note_on_c, 0, 78, 0
2, 156720, Note_on_c, 0, 78, 90
2, 156779, Note_on_c, 0, 78, 0
2, 156780, Note_on_c, 0, 78, 90
2, 156839, Note_on_c, 0, 78, 0
2, 156840, Note_on_c, 0, 78, 90
2, 156899, Note_on_c, 0, 78, 0
2, 156900, Note_on_c, 0, 81, 90
2, 156929, Note_on_c, 0, 81, 0
2, 156930, Note_on_c, 0, 79, 90
2, 156959, Note_on_c, 0, 79, 0
2, 156960, Note_on_c, 0, 78, 90
2, 156989, Note_on_c, 0, 78, 0
2, 156990, Note_on_c, 0, 76, 90
2, 157019, Note_on_c, 0, 76, 0
2, 157020, Note_on_c, 0, 74, 90
2, 157079, Note_on_c, 0, 74, 0
2, 157080, Note_on_c, 0, 79, 90
2, 157139, Note_on_c, 0, 79, 0
2, 157140, Note_on_c, 0, 81, 90
2, 157199, Note_on_c, 0, 81, 0
2, 157200, Note_on_c, 0, 83, 90
2, 157259, Note_on_c, 0, 83, 0
2, 157260, Note_on_c, 0, 81, 90
2, 157349, Note_on_c, 0, 81, 0
2, 157350, Note_on_c, 0, 83, 90
2, 157364, Note_on_c, 0, 83, 0
2, 157365, Note_on_c, 0, 84, 90
2, 157379, Note_on_c, 0, 84, 0
2, 157380, Note_on_c, 0, 83, 90
2, 157439, Note_on_c, 0, 83, 0
2, 157440, Note_on_c, 0, 81, 90
2, 157469, Note_on_c, 0, 81, 0
2, 157470, Note_on_c, 0, 79, 90
2, 157499, Note_on_c, 0, 79, 0
2, 157500, Note_on_c, 0, 78, 90
2, 157529, Note_on_c, 0, 78, 0
2, 157530, Note_on_c, 0, 76, 90
2, 157559, Note_on_c, 0, 76, 0
2, 157560, Note_on_c, 0, 81, 90
2, 157619, Note_on_c, 0, 81, 0
2, 157620, Note_on_c, 0, 74, 90
2, 157679, Note_on_c, 0, 74, 0
2, 157680, Note_on_c, 0, 79, 90
2, 157739, Note_on_c, 0, 79, 0
2, 157740, Note_on_c, 0, 78, 90
2, 157799, Note_on_c, 0, 78, 0
2, 157800, Note_on_c, 0, 79, 90
2, 157859, Note_on_c, 0, 79, 0
2, 157860, Note_on_c, 0, 76, 90
2, 157919, Note_on_c, 0, 76, 0
2, 157920, Note_on_c, 0, 74, 90
2, 158820, Note_on_c, 0, 74, 0
2, 161700, Note_on_c, 0, 76, 90
2, 161759, Note_on_c, 0, 76, 0
2, 161760, Note_on_c, 0, 76, 90
2, 161819, Note_on_c, 0, 76, 0
2, 161820, Note_on_c, 0, 76, 90
2, 161879, Note_on_c, 0, 76, 0
2, 161880, Note_on_c, 0, 76, 90
2, 162119, Note_on_c, 0, 76, 0
2, 162120, Note_on_c, 0, 74, 90
2, 162179, Note_on_c, 0, 74, 0
2, 162180, Note_on_c, 0, 76, 90
2, 162239, Note_on_c, 0, 76, 0
2, 162240, Note_on_c, 0, 78, 90
2, 162299, Note_on_c, 0, 78, 0
2, 162300, Note_on_c, 0, 76, 90
2, 162389, Note_on_c, 0, 76, 0
2, 162390, Note_on_c, 0, 78, 90
2, 162404, Note_on_c, 0, 78, 0
2, 162405, Note_on_c, 0, 79, 90
2, 162419, Note_on_c, 0, 79, 0
2, 162420, Note_on_c, 0, 78, 90
2, 162479, Note_on_c, 0, 78, 0
2, 162480, Note_on_c, 0, 78, 90
2, 162539, Note_on_c, 0, 78, 0
2, 162540, Note_on_c, 0, 78, 90
2, 162599, Note_on_c, 0, 78, 0
2, 162600, Note_on_c, 0, 78, 90
2, 162659, Note_on_c, 0, 78, 0
2, 162660, Note_on_c, 0, 81, 90
2, 162689, Note_on_c, 0, 81, 0
2, 162690, Note_on_c, 0, 79, 90
2, 162719, Note_on_c, 0, 79, 0
2, 162720, Note_on_c, 0, 78, 90
2, 162749, Note_on_c, 0, 78, 0
2, 162750, Note_on_c, 0, 76, 90
2, 162779, Note_on_c, 0, 76, 0
2, 162780, Note_on_c, 0, 74, 90
2, 162839, Note_on_c, 0, 74, 0
2, 162840, Note_on_c, 0, 79, 90
2, 162899, Note_on_c, 0, 79, 0
2, 162900, Note_on_c, 0, 81, 90
2, 162959, Note_on_c, 0, 81, 0
2, 162960, Note_on_c, 0, 83, 90
2, 163019, Note_on_c, 0, 83, 0
2, 163020, Note_on_c, 0, 81, 90
2, 163109, Note_on_c, 0, 81, 0
2, 163110, Note_on_c, 0, 83, 90
2, 163124, Note_on_c, 0, 83, 0
2, 163125, Note_on_c, 0, 84, 90
2, 163139, Note_on_c, 0, 84, 0
2, 163140, Note_on_c, 0, 83, 90
2, 163199, Note_on_c, 0, 83, 0
2, 163200, Note_on_c, 0, 81, 90
2, 163229, Note_on_c, 0, 81, 0
2, 163230, Note_on_c, 0, 79, 90
2, 163259, Note_on_c, 0, 79, 0
2, 163260, Note_on_c, 0, 78, 90
2, 163289, Note_on_c, 0, 78, 0
2, 163290, Note_on_c, 0, 76, 90
2, 163319, Note_on_c, 0, 76, 0
2, 163320, Note_on_c, 0, 81, 90
2, 163379, Note_on_c, 0, 81, 0
2, 163380, Note_on_c, 0, 74, 90
2, 163439, Note_on_c, 0, 74, 0
2, 163440, Note_on_c, 0, 79, 90
2, 163499, Note_on_c, 0, 79, 0
2, 163500, Note_on_c, 0, 78, 90
2, 163559, Note_on_c, 0, 78, 0
2, 163560, Note_on_c, 0, 79, 90
2, 163619, Note_on_c, 0, 79, 0
2, 163620, Note_on_c, 0, 76, 90
2, 163679, Note_on_c, 0, 76, 0
2, 163680, Note_on_c, 0, 74, 90
2, 164580, Note_on_c, 0, 74, 0
2, 164580, End_track
3, 0, Start_track
3, 0, MIDI_port, 0
3, 0, Title_t, "trompeta ii"
3, 0, Program_c, 1, 56
3, 0, Control_c, 1, 7, 127
3, 0, Control_c, 1, 10, 81
3, 0, Note_on_c, 1, 74, 90
3, 59, Note_on_c, 1, 74, 0
3, 60, Note_on_c, 1, 74, 90
3, 119, Note_on_c, 1, 74, 0
3, 120, Note_on_c, 1, 74, 90
3, 179, Note_on_c, 1, 74, 0
3, 180, Note_on_c, 1, 74, 90
3, 239, Note_on_c, 1, 74, 0
3, 1080, Note_on_c, 1, 76, 90
3, 1139, Note_on_c, 1, 76, 0
3, 1140, Note_on_c, 1, 78, 90
3, 1169, Note_on_c, 1, 78, 0
3, 1170, Note_on_c, 1, 76, 90
3, 1199, Note_on_c, 1, 76, 0
3, 1200, Note_on_c, 1, 74, 90
3, 1229, Note_on_c, 1, 74, 0
3, 1230, Note_on_c, 1, 73, 90
3, 1259, Note_on_c, 1, 73, 0
3, 1260, Note_on_c, 1, 74, 90
3, 1319, Note_on_c, 1, 74, 0
3, 2220, Note_on_c, 1, 79, 90
3, 2279, Note_on_c, 1, 79, 0
3, 2280, Note_on_c, 1, 78, 90
3, 2339, Note_on_c, 1, 78, 0
3, 2340, Note_on_c, 1, 76, 90
3, 2399, Note_on_c, 1, 76, 0
3, 2580, Note_on_c, 1, 76, 90
3, 2639, Note_on_c, 1, 76, 0
3, 2640, Note_on_c, 1, 74, 90
3, 2699, Note_on_c, 1, 74, 0
3, 2700, Note_on_c, 1, 76, 90
3, 2879, Note_on_c, 1, 76, 0
3, 5760, Note_on_c, 1, 74, 90
3, 5819, Note_on_c, 1, 74, 0
3, 5820, Note_on_c, 1, 74, 90
3, 5879, Note_on_c, 1, 74, 0
3, 5880, Note_on_c, 1, 74, 90
3, 5939, Note_on_c, 1, 74, 0
3, 5940, Note_on_c, 1, 74, 90
3, 5999, Note_on_c, 1, 74, 0
3, 6840, Note_on_c, 1, 76, 90
3, 6899, Note_on_c, 1, 76, 0
3, 6900, Note_on_c, 1, 78, 90
3, 6930, Note_on_c, 1, 78, 0
3, 6930, Note_on_c, 1, 76, 90
3, 6960, Note_on_c, 1, 76, 0
3, 6960, Note_on_c, 1, 74, 90
3, 6990, Note_on_c, 1, 74, 0
3, 6990, Note_on_c, 1, 73, 90
3, 7020, Note_on_c, 1, 73, 0
3, 7020, Note_on_c, 1, 74, 90
3, 7079, Note_on_c, 1, 74, 0
3, 7980, Note_on_c, 1, 79, 90
3, 8040, Note_on_c, 1, 79, 0
3, 8040, Note_on_c, 1, 78, 90
3, 8100, Note_on_c, 1, 78, 0
3, 8100, Note_on_c, 1, 76, 90
3, 8160, Note_on_c, 1, 76, 0
3, 8340, Note_on_c, 1, 76, 90
3, 8400, Note_on_c, 1, 76, 0
3, 8400, Note_on_c, 1, 74, 90
3, 8460, Note_on_c, 1, 74, 0
3, 8460, Note_on_c, 1, 76, 90
3, 8640, Note_on_c, 1, 76, 0
3, 8640, Note_on_c, 1, 81, 90
3, 8700, Note_on_c, 1, 81, 0
3, 8700, Note_on_c, 1, 81, 90
3, 8760, Note_on_c, 1, 81, 0
3, 8760, Note_on_c, 1, 81, 90
3, 8820, Note_on_c, 1, 81, 0
3, 8820, Note_on_c, 1, 81, 90
3, 8880, Note_on_c, 1, 81, 0
3, 9360, Note_on_c, 1, 74, 90
3, 9420, Note_on_c, 1, 74, 0
3, 9420, Note_on_c, 1, 74, 90
3, 9480, Note_on_c, 1, 74, 0
3, 9480, Note_on_c, 1, 74, 90
3, 9540, Note_on_c, 1, 74, 0
3, 9540, Note_on_c, 1, 74, 90
3, 9960, Note_on_c, 1, 74, 0
3, 9960, Note_on_c, 1, 76, 90
3, 10020, Note_on_c, 1, 76, 0
3, 10020, Note_on_c, 1, 74, 90
3, 10080, Note_on_c, 1, 74, 0
3, 10080, Note_on_c, 1, 79, 90
3, 10140, Note_on_c, 1, 79, 0
3, 10260, Note_on_c, 1, 76, 90
3, 10320, Note_on_c, 1, 76, 0
3, 10380, Note_on_c, 1, 74, 90
3, 10440, Note_on_c, 1, 74, 0
3, 10440, Note_on_c, 1, 74, 90
3, 10500, Note_on_c, 1, 74, 0
3, 10500, Note_on_c, 1, 76, 90
3, 10560, Note_on_c, 1, 76, 0
3, 10560, Note_on_c, 1, 69, 90
3, 10620, Note_on_c, 1, 69, 0
3, 10620, Note_on_c, 1, 69, 90
3, 10740, Note_on_c, 1, 69, 0
3, 10860, Note_on_c, 1, 81, 90
3, 10920, Note_on_c, 1, 81, 0
3, 10920, Note_on_c, 1, 79, 90
3, 10980, Note_on_c, 1, 79, 0
3, 10980, Note_on_c, 1, 78, 90
3, 11040, Note_on_c, 1, 78, 0
3, 11220, Note_on_c, 1, 69, 90
3, 11280, Note_on_c, 1, 69, 0
3, 11280, Note_on_c, 1, 74, 90
3, 11340, Note_on_c, 1, 74, 0
3, 11340, Note_on_c, 1, 66, 90
3, 11520, Note_on_c, 1, 66, 0
3, 14400, Note_on_c, 1, 81, 90
3, 14460, Note_on_c, 1, 81, 0
3, 14460, Note_on_c, 1, 81, 90
3, 14520, Note_on_c, 1, 81, 0
3, 14520, Note_on_c, 1, 81, 90
3, 14580, Note_on_c, 1, 81, 0
3, 14580, Note_on_c, 1, 81, 90
3, 14640, Note_on_c, 1, 81, 0
3, 15120, Note_on_c, 1, 74, 90
3, 15180, Note_on_c, 1, 74, 0
3, 15180, Note_on_c, 1, 74, 90
3, 15240, Note_on_c, 1, 74, 0
3, 15240, Note_on_c, 1, 74, 90
3, 15300, Note_on_c, 1, 74, 0
3, 15300, Note_on_c, 1, 74, 90
3, 15720, Note_on_c, 1, 74, 0
3, 15720, Note_on_c, 1, 76, 90
3, 15780, Note_on_c, 1, 76, 0
3, 15780, Note_on_c, 1, 74, 90
3, 15840, Note_on_c, 1, 74, 0
3, 15840, Note_on_c, 1, 79, 90
3, 15900, Note_on_c, 1, 79, 0
3, 16020, Note_on_c, 1, 76, 90
3, 16080, Note_on_c, 1, 76, 0
3, 16140, Note_on_c, 1, 74, 90
3, 16200, Note_on_c, 1, 74, 0
3, 16200, Note_on_c, 1, 74, 90
3, 16260, Note_on_c, 1, 74, 0
3, 16260, Note_on_c, 1, 76, 90
3, 16320, Note_on_c, 1, 76, 0
3, 16320, Note_on_c, 1, 69, 90
3, 16380, Note_on_c, 1, 69, 0
3, 16380, Note_on_c, 1, 69, 90
3, 16500, Note_on_c, 1, 69, 0
3, 16620, Note_on_c, 1, 81, 90
3, 16680, Note_on_c, 1, 81, 0
3, 16680, Note_on_c, 1, 79, 90
3, 16740, Note_on_c, 1, 79, 0
3, 16740, Note_on_c, 1, 78, 90
3, 16800, Note_on_c, 1, 78, 0
3, 16980, Note_on_c, 1, 69, 90
3, 17040, Note_on_c, 1, 69, 0
3, 17040, Note_on_c, 1, 74, 90
3, 17100, Note_on_c, 1, 74, 0
3, 17100, Note_on_c, 1, 66, 90
3, 17280, Note_on_c, 1, 66, 0
3, 147300, Note_on_c, 1, 74, 90
3, 147359, Note_on_c, 1, 74, 0
3, 147360, Note_on_c, 1, 74, 90
3, 147419, Note_on_c, 1, 74, 0
3, 147420, Note_on_c, 1, 74, 90
3, 147479, Note_on_c, 1, 74, 0
3, 147480, Note_on_c, 1, 74, 90
3, 147539, Note_on_c, 1, 74, 0
3, 148380, Note_on_c, 1, 76, 90
3, 148439, Note_on_c, 1, 76, 0
3, 148440, Note_on_c, 1, 78, 90
3, 148469, Note_on_c, 1, 78, 0
3, 148470, Note_on_c, 1, 76, 90
3, 148499, Note_on_c, 1, 76, 0
3, 148500, Note_on_c, 1, 74, 90
3, 148529, Note_on_c, 1, 74, 0
3, 148530, Note_on_c, 1, 73, 90
3, 148559, Note_on_c, 1, 73, 0
3, 148560, Note_on_c, 1, 74, 90
3, 148619, Note_on_c, 1, 74, 0
3, 149520, Note_on_c, 1, 79, 90
3, 149579, Note_on_c, 1, 79, 0
3, 149580, Note_on_c, 1, 78, 90
3, 149639, Note_on_c, 1, 78, 0
3, 149640, Note_on_c, 1, 76, 90
3, 149699, Note_on_c, 1, 76, 0
3, 149880, Note_on_c, 1, 76, 90
3, 149939, Note_on_c, 1, 76, 0
3, 149940, Note_on_c, 1, 74, 90
3, 149999, Note_on_c, 1, 74, 0
3, 150000, Note_on_c, 1, 76, 90
3, 150179, Note_on_c, 1, 76, 0
3, 153060, Note_on_c, 1, 74, 90
3, 153119, Note_on_c, 1, 74, 0
3, 153120, Note_on_c, 1, 74, 90
3, 153179, Note_on_c, 1, 74, 0
3, 153180, Note_on_c, 1, 74, 90
3, 153239, Note_on_c, 1, 74, 0
3, 153240, Note_on_c, 1, 74, 90
3, 153299, Note_on_c, 1, 74, 0
3, 154140, Note_on_c, 1, 76, 90
3, 154199, Note_on_c, 1, 76, 0
3, 154200, Note_on_c, 1, 78, 90
3, 154230, Note_on_c, 1, 78, 0
3, 154230, Note_on_c, 1, 76, 90
3, 154260, Note_on_c, 1, 76, 0
3, 154260, Note_on_c, 1, 74, 90
3, 154290, Note_on_c, 1, 74, 0
3, 154290, Note_on_c, 1, 73, 90
3, 154320, Note_on_c, 1, 73, 0
3, 154320, Note_on_c, 1, 74, 90
3, 154379, Note_on_c, 1, 74, 0
3, 155280, Note_on_c, 1, 79, 90
3, 155340, Note_on_c, 1, 79, 0
3, 155340, Note_on_c, 1, 78, 90
3, 155400, Note_on_c, 1, 78, 0
3, 155400, Note_on_c, 1, 76, 90
3, 155460, Note_on_c, 1, 76, 0
3, 155640, Note_on_c, 1, 76, 90
3, 155700, Note_on_c, 1, 76, 0
3, 155700, Note_on_c, 1, 74, 90
3, 155760, Note_on_c, 1, 74, 0
3, 155760, Note_on_c, 1, 76, 90
3, 155940, Note_on_c, 1, 76, 0
3, 155940, Note_on_c, 1, 81, 90
3, 156000, Note_on_c, 1, 81, 0
3, 156000, Note_on_c, 1, 81, 90
3, 156060, Note_on_c, 1, 81, 0
3, 156060, Note_on_c, 1, 81, 90
3, 156120, Note_on_c, 1, 81, 0
3, 156120, Note_on_c, 1, 81, 90
3, 156180, Note_on_c, 1, 81, 0
3, 156660, Note_on_c, 1, 74, 90
3, 156720, Note_on_c, 1, 74, 0
3, 156720, Note_on_c, 1, 74, 90
3, 156780, Note_on_c, 1, 74, 0
3, 156780, Note_on_c, 1, 74, 90
3, 156840, Note_on_c, 1, 74, 0
3, 156840, Note_on_c, 1, 74, 90
3, 157260, Note_on_c, 1, 74, 0
3, 157260, Note_on_c, 1, 76, 90
3, 157320, Note_on_c, 1, 76, 0
3, 157320, Note_on_c, 1, 74, 90
3, 157380, Note_on_c, 1, 74, 0
3, 157380, Note_on_c, 1, 79, 90
3, 157440, Note_on_c, 1, 79, 0
3, 157560, Note_on_c, 1, 76, 90
3, 157620, Note_on_c, 1, 76, 0
3, 157680, Note_on_c, 1, 74, 90
3, 157740, Note_on_c, 1, 74, 0
3, 157740, Note_on_c, 1, 74, 90
3, 157800, Note_on_c, 1, 74, 0
3, 157800, Note_on_c, 1, 76, 90
3, 157860, Note_on_c, 1, 76, 0
3, 157860, Note_on_c, 1, 69, 90
3, 157920, Note_on_c, 1, 69, 0
3, 157920, Note_on_c, 1, 69, 90
3, 158040, Note_on_c, 1, 69, 0
3, 158160, Note_on_c, 1, 81, 90
3, 158220, Note_on_c, 1, 81, 0
3, 158220, Note_on_c, 1, 79, 90
3, 158280, Note_on_c, 1, 79, 0
3, 158280, Note_on_c, 1, 78, 90
3, 158340, Note_on_c, 1, 78, 0
3, 158520, Note_on_c, 1, 69, 90
3, 158580, Note_on_c, 1, 69, 0
3, 158580, Note_on_c, 1, 74, 90
3, 158640, Note_on_c, 1, 74, 0
3, 158640, Note_on_c, 1, 66, 90
3, 158820, Note_on_c, 1, 66, 0
3, 161700, Note_on_c, 1, 81, 90
3, 161760, Note_on_c, 1, 81, 0
3, 161760, Note_on_c, 1, 81, 90
3, 161820, Note_on_c, 1, 81, 0
3, 161820, Note_on_c, 1, 81, 90
3, 161880, Note_on_c, 1, 81, 0
3, 161880, Note_on_c, 1, 81, 90
3, 161940, Note_on_c, 1, 81, 0
3, 162420, Note_on_c, 1, 74, 90
3, 162480, Note_on_c, 1, 74, 0
3, 162480, Note_on_c, 1, 74, 90
3, 162540, Note_on_c, 1, 74, 0
3, 162540, Note_on_c, 1, 74, 90
3, 162600, Note_on_c, 1, 74, 0
3, 162600, Note_on_c, 1, 74, 90
3, 163020, Note_on_c, 1, 74, 0
3, 163020, Note_on_c, 1, 76, 90
3, 163080, Note_on_c, 1, 76, 0
3, 163080, Note_on_c, 1, 74, 90
3, 163140, Note_on_c, 1, 74, 0
3, 163140, Note_on_c, 1, 79, 90
3, 163200, Note_on_c, 1, 79, 0
3, 163320, Note_on_c, 1, 76, 90
3, 163380, Note_on_c, 1, 76, 0
3, 163440, Note_on_c, 1, 74, 90
3, 163500, Note_on_c, 1, 74, 0
3, 163500, Note_on_c, 1, 74, 90
3, 163560, Note_on_c, 1, 74, 0
3, 163560, Note_on_c, 1, 76, 90
3, 163620, Note_on_c, 1, 76, 0
3, 163620, Note_on_c, 1, 69, 90
3, 163680, Note_on_c, 1, 69, 0
3, 163680, Note_on_c, 1, 69, 90
3, 163800, Note_on_c, 1, 69, 0
3, 163920, Note_on_c, 1, 81, 90
3, 163980, Note_on_c, 1, 81, 0
3, 163980, Note_on_c, 1, 79, 90
3, 164040, Note_on_c, 1, 79, 0
3, 164040, Note_on_c, 1, 78, 90
3, 164100, Note_on_c, 1, 78, 0
3, 164280, Note_on_c, 1, 69, 90
3, 164340, Note_on_c, 1, 69, 0
3, 164340, Note_on_c, 1, 74, 90
3, 164400, Note_on_c, 1, 74, 0
3, 164400, Note_on_c, 1, 66, 90
3, 164580, Note_on_c, 1, 66, 0
3, 164580, End_track
4, 0, Start_track
4, 0, MIDI_port, 0
4, 0, Title_t, "trompeta iii"
4, 0, Program_c, 0, 56
4, 0, Control_c, 0, 7, 127
4, 0, Control_c, 0, 10, 42
4, 0, Note_on_c, 0, 69, 90
4, 59, Note_on_c, 0, 69, 0
4, 60, Note_on_c, 0, 69, 90
4, 119, Note_on_c, 0, 69, 0
4, 120, Note_on_c, 0, 69, 90
4, 179, Note_on_c, 0, 69, 0
4, 180, Note_on_c, 0, 62, 90
4, 239, Note_on_c, 0, 62, 0
4, 1080, Note_on_c, 0, 69, 90
4, 1139, Note_on_c, 0, 69, 0
4, 1140, Note_on_c, 0, 62, 90
4, 1199, Note_on_c, 0, 62, 0
4, 1200, Note_on_c, 0, 69, 90
4, 1259, Note_on_c, 0, 69, 0
4, 1260, Note_on_c, 0, 69, 90
4, 1319, Note_on_c, 0, 69, 0
4, 2220, Note_on_c, 0, 76, 90
4, 2279, Note_on_c, 0, 76, 0
4, 2280, Note_on_c, 0, 74, 90
4, 2339, Note_on_c, 0, 74, 0
4, 2340, Note_on_c, 0, 69, 90
4, 2399, Note_on_c, 0, 69, 0
4, 2580, Note_on_c, 0, 69, 90
4, 2639, Note_on_c, 0, 69, 0
4, 2640, Note_on_c, 0, 69, 90
4, 2699, Note_on_c, 0, 69, 0
4, 2700, Note_on_c, 0, 69, 90
4, 2879, Note_on_c, 0, 69, 0
4, 5760, Note_on_c, 0, 69, 90
4, 5819, Note_on_c, 0, 69, 0
4, 5820, Note_on_c, 0, 69, 90
4, 5879, Note_on_c, 0, 69, 0
4, 5880, Note_on_c, 0, 69, 90
4, 5939, Note_on_c, 0, 69, 0
4, 5940, Note_on_c, 0, 62, 90
4, 5999, Note_on_c, 0, 62, 0
4, 6840, Note_on_c, 0, 69, 90
4, 6899, Note_on_c, 0, 69, 0
4, 6900, Note_on_c, 0, 62, 90
4, 6959, Note_on_c, 0, 62, 0
4, 6960, Note_on_c, 0, 69, 90
4, 7019, Note_on_c, 0, 69, 0
4, 7020, Note_on_c, 0, 69, 90
4, 7079, Note_on_c, 0, 69, 0
4, 7980, Note_on_c, 0, 76, 90
4, 8040, Note_on_c, 0, 76, 0
4, 8040, Note_on_c, 0, 74, 90
4, 8100, Note_on_c, 0, 74, 0
4, 8100, Note_on_c, 0, 69, 90
4, 8160, Note_on_c, 0, 69, 0
4, 8340, Note_on_c, 0, 69, 90
4, 8400, Note_on_c, 0, 69, 0
4, 8400, Note_on_c, 0, 62, 90
4, 8460, Note_on_c, 0, 62, 0
4, 8460, Note_on_c, 0, 69, 90
4, 8640, Note_on_c, 0, 69, 0
4, 8640, Note_on_c, 0, 69, 90
4, 8700, Note_on_c, 0, 69, 0
4, 8700, Note_on_c, 0, 69, 90
4, 8760, Note_on_c, 0, 69, 0
4, 8760, Note_on_c, 0, 69, 90
4, 8820, Note_on_c, 0, 69, 0
4, 8820, Note_on_c, 0, 69, 90
4, 8880, Note_on_c, 0, 69, 0
4, 9360, Note_on_c, 0, 69, 90
4, 9420, Note_on_c, 0, 69, 0
4, 9420, Note_on_c, 0, 69, 90
4, 9480, Note_on_c, 0, 69, 0
4, 9480, Note_on_c, 0, 69, 90
4, 9540, Note_on_c, 0, 69, 0
4, 9540, Note_on_c, 0, 69, 90
4, 9600, Note_on_c, 0, 69, 0
4, 10080, Note_on_c, 0, 62, 90
4, 10140, Note_on_c, 0, 62, 0
4, 10260, Note_on_c, 0, 69, 90
4, 10320, Note_on_c, 0, 69, 0
4, 10380, Note_on_c, 0, 62, 90
4, 10440, Note_on_c, 0, 62, 0
4, 10440, Note_on_c, 0, 69, 90
4, 10500, Note_on_c, 0, 69, 0
4, 10560, Note_on_c, 0, 69, 90
4, 10620, Note_on_c, 0, 69, 0
4, 10620, Note_on_c, 0, 66, 90
4, 10740, Note_on_c, 0, 66, 0
4, 10860, Note_on_c, 0, 66, 90
4, 10920, Note_on_c, 0, 66, 0
4, 10920, Note_on_c, 0, 62, 90
4, 10980, Note_on_c, 0, 62, 0
4, 10980, Note_on_c, 0, 69, 90
4, 11040, Note_on_c, 0, 69, 0
4, 11220, Note_on_c, 0, 74, 90
4, 11280, Note_on_c, 0, 74, 0
4, 11280, Note_on_c, 0, 62, 90
4, 11340, Note_on_c, 0, 62, 0
4, 11340, Note_on_c, 0, 69, 90
4, 11520, Note_on_c, 0, 69, 0
4, 14400, Note_on_c, 0, 69, 90
4, 14460, Note_on_c, 0, 69, 0
4, 14460, Note_on_c, 0, 69, 90
4, 14520, Note_on_c, 0, 69, 0
4, 14520, Note_on_c, 0, 69, 90
4, 14580, Note_on_c, 0, 69, 0
4, 14580, Note_on_c, 0, 69, 90
4, 14640, Note_on_c, 0, 69, 0
4, 15120, Note_on_c, 0, 69, 90
4, 15180, Note_on_c, 0, 69, 0
4, 15180, Note_on_c, 0, 69, 90
4, 15240, Note_on_c, 0, 69, 0
4, 15240, Note_on_c, 0, 69, 90
4, 15300, Note_on_c, 0, 69, 0
4, 15300, Note_on_c, 0, 69, 90
4, 15360, Note_on_c, 0, 69, 0
4, 15840, Note_on_c, 0, 62, 90
4, 15900, Note_on_c, 0, 62, 0
4, 16020, Note_on_c, 0, 69, 90
4, 16080, Note_on_c, 0, 69, 0
4, 16140, Note_on_c, 0, 62, 90
4, 16200, Note_on_c, 0, 62, 0
4, 16200, Note_on_c, 0, 69, 90
4, 16260, Note_on_c, 0, 69, 0
4, 16320, Note_on_c, 0, 69, 90
4, 16380, Note_on_c, 0, 69, 0
4, 16380, Note_on_c, 0, 66, 90
4, 16500, Note_on_c, 0, 66, 0
4, 16620, Note_on_c, 0, 66, 90
4, 16680, Note_on_c, 0, 66, 0
4, 16680, Note_on_c, 0, 62, 90
4, 16740, Note_on_c, 0, 62, 0
4, 16740, Note_on_c, 0, 69, 90
4, 16800, Note_on_c, 0, 69, 0
4, 16980, Note_on_c, 0, 74, 90
4, 17040, Note_on_c, 0, 74, 0
4, 17040, Note_on_c, 0, 62, 90
4, 17100, Note_on_c, 0, 62, 0
4, 17100, Note_on_c, 0, 69, 90
4, 17280, Note_on_c, 0, 69, 0
4, 147300, Note_on_c, 0, 69, 90
4, 147359, Note_on_c, 0, 69, 0
4, 147360, Note_on_c, 0, 69, 90
4, 147419, Note_on_c, 0, 69, 0
4, 147420, Note_on_c, 0, 69, 90
4, 147479, Note_on_c, 0, 69, 0
4, 147480, Note_on_c, 0, 62, 90
4, 147539, Note_on_c, 0, 62, 0
4, 148380, Note_on_c, 0, 69, 90
4, 148439, Note_on_c, 0, 69, 0
4, 148440, Note_on_c, 0, 62, 90
4, 148499, Note_on_c, 0, 62, 0
4, 148500, Note_on_c, 0, 69, 90
4, 148559, Note_on_c, 0, 69, 0
4, 148560, Note_on_c, 0, 69, 90
4, 148619, Note_on_c, 0, 69, 0
4, 149520, Note_on_c, 0, 76, 90
4, 149579, Note_on_c, 0, 76, 0
4, 149580, Note_on_c, 0, 74, 90
4, 149639, Note_on_c, 0, 74, 0
4, 149640, Note_on_c, 0, 69, 90
4, 149699, Note_on_c, 0, 69, 0
4, 149880, Note_on_c, 0, 69, 90
4, 149939, Note_on_c, 0, 69, 0
4, 149940, Note_on_c, 0, 69, 90
4, 149999, Note_on_c, 0, 69, 0
4, 150000, Note_on_c, 0, 69, 90
4, 150179, Note_on_c, 0, 69, 0
4, 153060, Note_on_c, 0, 69, 90
4, 153119, Note_on_c, 0, 69, 0
4, 153120, Note_on_c, 0, 69, 90
4, 153179, Note_on_c, 0, 69, 0
4, 153180, Note_on_c, 0, 69, 90
4, 153239, Note_on_c, 0, 69, 0
4, 153240, Note_on_c, 0, 62, 90
4, 153299, Note_on_c, 0, 62, 0
4, 154140, Note_on_c, 0, 69, 90
4, 154199, Note_on_c, 0, 69, 0
4, 154200, Note_on_c, 0, 62, 90
4, 154259, Note_on_c, 0, 62, 0
4, 154260, Note_on_c, 0, 69, 90
4, 154319, Note_on_c, 0, 69, 0
4, 154320, Note_on_c, 0, 69, 90
4, 154379, Note_on_c, 0, 69, 0
4, 155280, Note_on_c, 0, 76, 90
4, 155340, Note_on_c, 0, 76, 0
4, 155340, Note_on_c, 0, 74, 90
4, 155400, Note_on_c, 0, 74, 0
4, 155400, Note_on_c, 0, 69, 90
4, 155460, Note_on_c, 0, 69, 0
4, 155640, Note_on_c, 0, 69, 90
4, 155700, Note_on_c, 0, 69, 0
4, 155700, Note_on_c, 0, 62, 90
4, 155760, Note_on_c, 0, 62, 0
4, 155760, Note_on_c, 0, 69, 90
4, 155940, Note_on_c, 0, 69, 0
4, 155940, Note_on_c, 0, 69, 90
4, 156000, Note_on_c, 0, 69, 0
4, 156000, Note_on_c, 0, 69, 90
4, 156060, Note_on_c, 0, 69, 0
4, 156060, Note_on_c, 0, 69, 90
4, 156120, Note_on_c, 0, 69, 0
4, 156120, Note_on_c, 0, 69, 90
4, 156180, Note_on_c, 0, 69, 0
4, 156660, Note_on_c, 0, 69, 90
4, 156720, Note_on_c, 0, 69, 0
4, 156720, Note_on_c, 0, 69, 90
4, 156780, Note_on_c, 0, 69, 0
4, 156780, Note_on_c, 0, 69, 90
4, 156840, Note_on_c, 0, 69, 0
4, 156840, Note_on_c, 0, 69, 90
4, 156900, Note_on_c, 0, 69, 0
4, 157380, Note_on_c, 0, 62, 90
4, 157440, Note_on_c, 0, 62, 0
4, 157560, Note_on_c, 0, 69, 90
4, 157620, Note_on_c, 0, 69, 0
4, 157680, Note_on_c, 0, 62, 90
4, 157740, Note_on_c, 0, 62, 0
4, 157740, Note_on_c, 0, 69, 90
4, 157800, Note_on_c, 0, 69, 0
4, 157860, Note_on_c, 0, 69, 90
4, 157920, Note_on_c, 0, 69, 0
4, 157920, Note_on_c, 0, 66, 90
4, 158040, Note_on_c, 0, 66, 0
4, 158160, Note_on_c, 0, 66, 90
4, 158220, Note_on_c, 0, 66, 0
4, 158220, Note_on_c, 0, 62, 90
4, 158280, Note_on_c, 0, 62, 0
4, 158280, Note_on_c, 0, 69, 90
4, 158340, Note_on_c, 0, 69, 0
4, 158520, Note_on_c, 0, 74, 90
4, 158580, Note_on_c, 0, 74, 0
4, 158580, Note_on_c, 0, 62, 90
4, 158640, Note_on_c, 0, 62, 0
4, 158640, Note_on_c, 0, 69, 90
4, 158820, Note_on_c, 0, 69, 0
4, 161700, Note_on_c, 0, 69, 90
4, 161760, Note_on_c, 0, 69, 0
4, 161760, Note_on_c, 0, 69, 90
4, 161820, Note_on_c, 0, 69, 0
4, 161820, Note_on_c, 0, 69, 90
4, 161880, Note_on_c, 0, 69, 0
4, 161880, Note_on_c, 0, 69, 90
4, 161940, Note_on_c, 0, 69, 0
4, 162420, Note_on_c, 0, 69, 90
4, 162480, Note_on_c, 0, 69, 0
4, 162480, Note_on_c, 0, 69, 90
4, 162540, Note_on_c, 0, 69, 0
4, 162540, Note_on_c, 0, 69, 90
4, 162600, Note_on_c, 0, 69, 0
4, 162600, Note_on_c, 0, 69, 90
4, 162660, Note_on_c, 0, 69, 0
4, 163140, Note_on_c, 0, 62, 90
4, 163200, Note_on_c, 0, 62, 0
4, 163320, Note_on_c, 0, 69, 90
4, 163380, Note_on_c, 0, 69, 0
4, 163440, Note_on_c, 0, 62, 90
4, 163500, Note_on_c, 0, 62, 0
4, 163500, Note_on_c, 0, 69, 90
4, 163560, Note_on_c, 0, 69, 0
4, 163620, Note_on_c, 0, 69, 90
4, 163680, Note_on_c, 0, 69, 0
4, 163680, Note_on_c, 0, 66, 90
4, 163800, Note_on_c, 0, 66, 0
4, 163920, Note_on_c, 0, 66, 90
4, 163980, Note_on_c, 0, 66, 0
4, 163980, Note_on_c, 0, 62, 90
4, 164040, Note_on_c, 0, 62, 0
4, 164040, Note_on_c, 0, 69, 90
4, 164100, Note_on_c, 0, 69, 0
4, 164280, Note_on_c, 0, 74, 90
4, 164340, Note_on_c, 0, 74, 0
4, 164340, Note_on_c, 0, 62, 90
4, 164400, Note_on_c, 0, 62, 0
4, 164400, Note_on_c, 0, 69, 90
4, 164580, Note_on_c, 0, 69, 0
4, 164580, End_track
5, 0, Start_track
5, 0, MIDI_port, 0
5, 0, Title_t, "timbal"
5, 0, Program_c, 9, 2
5, 0, Control_c, 9, 7, 127
5, 0, Control_c, 9, 10, 108
5, 0, Note_on_c, 9, 50, 90
5, 59, Note_on_c, 9, 50, 0
5, 60, Note_on_c, 9, 50, 90
5, 119, Note_on_c, 9, 50, 0
5, 120, Note_on_c, 9, 50, 90
5, 179, Note_on_c, 9, 50, 0
5, 180, Note_on_c, 9, 50, 90
5, 239, Note_on_c, 9, 50, 0
5, 1080, Note_on_c, 9, 45, 90
5, 1139, Note_on_c, 9, 45, 0
5, 1140, Note_on_c, 9, 50, 90
5, 1199, Note_on_c, 9, 50, 0
5, 1200, Note_on_c, 9, 45, 90
5, 1259, Note_on_c, 9, 45, 0
5, 1260, Note_on_c, 9, 50, 90
5, 1319, Note_on_c, 9, 50, 0
5, 2220, Note_on_c, 9, 45, 90
5, 2279, Note_on_c, 9, 45, 0
5, 2280, Note_on_c, 9, 50, 90
5, 2339, Note_on_c, 9, 50, 0
5, 2340, Note_on_c, 9, 45, 90
5, 2399, Note_on_c, 9, 45, 0
5, 2580, Note_on_c, 9, 45, 90
5, 2639, Note_on_c, 9, 45, 0
5, 2640, Note_on_c, 9, 50, 90
5, 2699, Note_on_c, 9, 50, 0
5, 2700, Note_on_c, 9, 45, 90
5, 2879, Note_on_c, 9, 45, 0
5, 5760, Note_on_c, 9, 50, 90
5, 5819, Note_on_c, 9, 50, 0
5, 5820, Note_on_c, 9, 50, 90
5, 5879, Note_on_c, 9, 50, 0
5, 5880, Note_on_c, 9, 50, 90
5, 5939, Note_on_c, 9, 50, 0
5, 5940, Note_on_c, 9, 50, 90
5, 5999, Note_on_c, 9, 50, 0
5, 6840, Note_on_c, 9, 45, 90
5, 6899, Note_on_c, 9, 45, 0
5, 6900, Note_on_c, 9, 50, 90
5, 6959, Note_on_c, 9, 50, 0
5, 6960, Note_on_c, 9, 45, 90
5, 7019, Note_on_c, 9, 45, 0
5, 7020, Note_on_c, 9, 50, 90
5, 7079, Note_on_c, 9, 50, 0
5, 7980, Note_on_c, 9, 45, 90
5, 8040, Note_on_c, 9, 45, 0
5, 8040, Note_on_c, 9, 50, 90
5, 8100, Note_on_c, 9, 50, 0
5, 8100, Note_on_c, 9, 45, 90
5, 8160, Note_on_c, 9, 45, 0
5, 8340, Note_on_c, 9, 45, 90
5, 8400, Note_on_c, 9, 45, 0
5, 8400, Note_on_c, 9, 50, 90
5, 8460, Note_on_c, 9, 50, 0
5, 8460, Note_on_c, 9, 45, 90
5, 8640, Note_on_c, 9, 45, 0
5, 8640, Note_on_c, 9, 45, 90
5, 8700, Note_on_c, 9, 45, 0
5, 8700, Note_on_c, 9, 45, 90
5, 8760, Note_on_c, 9, 45, 0
5, 8760, Note_on_c, 9, 45, 90
5, 8820, Note_on_c, 9, 45, 0
5, 8820, Note_on_c, 9, 45, 90
5, 8880, Note_on_c, 9, 45, 0
5, 9360, Note_on_c, 9, 50, 90
5, 9420, Note_on_c, 9, 50, 0
5, 9420, Note_on_c, 9, 50, 90
5, 9480, Note_on_c, 9, 50, 0
5, 9480, Note_on_c, 9, 50, 90
5, 9540, Note_on_c, 9, 50, 0
5, 9540, Note_on_c, 9, 50, 90
5, 9600, Note_on_c, 9, 50, 0
5, 10080, Note_on_c, 9, 50, 90
5, 10140, Note_on_c, 9, 50, 0
5, 10260, Note_on_c, 9, 45, 90
5, 10320, Note_on_c, 9, 45, 0
5, 10380, Note_on_c, 9, 50, 90
5, 10440, Note_on_c, 9, 50, 0
5, 10440, Note_on_c, 9, 50, 90
5, 10500, Note_on_c, 9, 50, 0
5, 10560, Note_on_c, 9, 45, 90
5, 10620, Note_on_c, 9, 45, 0
5, 10620, Note_on_c, 9, 50, 90
5, 10740, Note_on_c, 9, 50, 0
5, 10860, Note_on_c, 9, 50, 90
5, 10920, Note_on_c, 9, 50, 0
5, 10920, Note_on_c, 9, 50, 90
5, 10980, Note_on_c, 9, 50, 0
5, 10980, Note_on_c, 9, 50, 90
5, 11040, Note_on_c, 9, 50, 0
5, 11220, Note_on_c, 9, 50, 90
5, 11280, Note_on_c, 9, 50, 0
5, 11280, Note_on_c, 9, 50, 90
5, 11340, Note_on_c, 9, 50, 0
5, 11340, Note_on_c, 9, 50, 90
5, 11520, Note_on_c, 9, 50, 0
5, 14400, Note_on_c, 9, 45, 90
5, 14460, Note_on_c, 9, 45, 0
5, 14460, Note_on_c, 9, 45, 90
5, 14520, Note_on_c, 9, 45, 0
5, 14520, Note_on_c, 9, 45, 90
5, 14580, Note_on_c, 9, 45, 0
5, 14580, Note_on_c, 9, 45, 90
5, 14640, Note_on_c, 9, 45, 0
5, 15120, Note_on_c, 9, 50, 90
5, 15180, Note_on_c, 9, 50, 0
5, 15180, Note_on_c, 9, 50, 90
5, 15240, Note_on_c, 9, 50, 0
5, 15240, Note_on_c, 9, 50, 90
5, 15300, Note_on_c, 9, 50, 0
5, 15300, Note_on_c, 9, 50, 90
5, 15360, Note_on_c, 9, 50, 0
5, 15840, Note_on_c, 9, 50, 90
5, 15900, Note_on_c, 9, 50, 0
5, 16020, Note_on_c, 9, 45, 90
5, 16080, Note_on_c, 9, 45, 0
5, 16140, Note_on_c, 9, 50, 90
5, 16200, Note_on_c, 9, 50, 0
5, 16200, Note_on_c, 9, 50, 90
5, 16260, Note_on_c, 9, 50, 0
5, 16320, Note_on_c, 9, 45, 90
5, 16380, Note_on_c, 9, 45, 0
5, 16380, Note_on_c, 9, 50, 90
5, 16500, Note_on_c, 9, 50, 0
5, 16620, Note_on_c, 9, 50, 90
5, 16680, Note_on_c, 9, 50, 0
5, 16680, Note_on_c, 9, 50, 90
5, 16740, Note_on_c, 9, 50, 0
5, 16740, Note_on_c, 9, 50, 90
5, 16800, Note_on_c, 9, 50, 0
5, 16980, Note_on_c, 9, 50, 90
5, 17040, Note_on_c, 9, 50, 0
5, 17040, Note_on_c, 9, 50, 90
5, 17100, Note_on_c, 9, 50, 0
5, 17100, Note_on_c, 9, 50, 90
5, 17280, Note_on_c, 9, 50, 0
5, 147300, Note_on_c, 9, 50, 90
5, 147359, Note_on_c, 9, 50, 0
5, 147360, Note_on_c, 9, 50, 90
5, 147419, Note_on_c, 9, 50, 0
5, 147420, Note_on_c, 9, 50, 90
5, 147479, Note_on_c, 9, 50, 0
5, 147480, Note_on_c, 9, 50, 90
5, 147539, Note_on_c, 9, 50, 0
5, 148380, Note_on_c, 9, 45, 90
5, 148439, Note_on_c, 9, 45, 0
5, 148440, Note_on_c, 9, 50, 90
5, 148499, Note_on_c, 9, 50, 0
5, 148500, Note_on_c, 9, 45, 90
5, 148559, Note_on_c, 9, 45, 0
5, 148560, Note_on_c, 9, 50, 90
5, 148619, Note_on_c, 9, 50, 0
5, 149520, Note_on_c, 9, 45, 90
5, 149579, Note_on_c, 9, 45, 0
5, 149580, Note_on_c, 9, 50, 90
5, 149639, Note_on_c, 9, 50, 0
5, 149640, Note_on_c, 9, 45, 90
5, 149699, Note_on_c, 9, 45, 0
5, 149880, Note_on_c, 9, 45, 90
5, 149939, Note_on_c, 9, 45, 0
5, 149940, Note_on_c, 9, 50, 90
5, 149999, Note_on_c, 9, 50, 0
5, 150000, Note_on_c, 9, 45, 90
5, 150179, Note_on_c, 9, 45, 0
5, 153060, Note_on_c, 9, 50, 90
5, 153119, Note_on_c, 9, 50, 0
5, 153120, Note_on_c, 9, 50, 90
5, 153179, Note_on_c, 9, 50, 0
5, 153180, Note_on_c, 9, 50, 90
5, 153239, Note_on_c, 9, 50, 0
5, 153240, Note_on_c, 9, 50, 90
5, 153299, Note_on_c, 9, 50, 0
5, 154140, Note_on_c, 9, 45, 90
5, 154199, Note_on_c, 9, 45, 0
5, 154200, Note_on_c, 9, 50, 90
5, 154259, Note_on_c, 9, 50, 0
5, 154260, Note_on_c, 9, 45, 90
5, 154319, Note_on_c, 9, 45, 0
5, 154320, Note_on_c, 9, 50, 90
5, 154379, Note_on_c, 9, 50, 0
5, 155280, Note_on_c, 9, 45, 90
5, 155340, Note_on_c, 9, 45, 0
5, 155340, Note_on_c, 9, 50, 90
5, 155400, Note_on_c, 9, 50, 0
5, 155400, Note_on_c, 9, 45, 90
5, 155460, Note_on_c, 9, 45, 0
5, 155640, Note_on_c, 9, 45, 90
5, 155700, Note_on_c, 9, 45, 0
5, 155700, Note_on_c, 9, 50, 90
5, 155760, Note_on_c, 9, 50, 0
5, 155760, Note_on_c, 9, 45, 90
5, 155940, Note_on_c, 9, 45, 0
5, 155940, Note_on_c, 9, 45, 90
5, 156000, Note_on_c, 9, 45, 0
5, 156000, Note_on_c, 9, 45, 90
5, 156060, Note_on_c, 9, 45, 0
5, 156060, Note_on_c, 9, 45, 90
5, 156120, Note_on_c, 9, 45, 0
5, 156120, Note_on_c, 9, 45, 90
5, 156180, Note_on_c, 9, 45, 0
5, 156660, Note_on_c, 9, 50, 90
5, 156720, Note_on_c, 9, 50, 0
5, 156720, Note_on_c, 9, 50, 90
5, 156780, Note_on_c, 9, 50, 0
5, 156780, Note_on_c, 9, 50, 90
5, 156840, Note_on_c, 9, 50, 0
5, 156840, Note_on_c, 9, 50, 90
5, 156900, Note_on_c, 9, 50, 0
5, 157380, Note_on_c, 9, 50, 90
5, 157440, Note_on_c, 9, 50, 0
5, 157560, Note_on_c, 9, 45, 90
5, 157620, Note_on_c, 9, 45, 0
5, 157680, Note_on_c, 9, 50, 90
5, 157740, Note_on_c, 9, 50, 0
5, 157740, Note_on_c, 9, 50, 90
5, 157800, Note_on_c, 9, 50, 0
5, 157860, Note_on_c, 9, 45, 90
5, 157920, Note_on_c, 9, 45, 0
5, 157920, Note_on_c, 9, 50, 90
5, 158040, Note_on_c, 9, 50, 0
5, 158160, Note_on_c, 9, 50, 90
5, 158220, Note_on_c, 9, 50, 0
5, 158220, Note_on_c, 9, 50, 90
5, 158280, Note_on_c, 9, 50, 0
5, 158280, Note_on_c, 9, 50, 90
5, 158340, Note_on_c, 9, 50, 0
5, 158520, Note_on_c, 9, 50, 90
5, 158580, Note_on_c, 9, 50, 0
5, 158580, Note_on_c, 9, 50, 90
5, 158640, Note_on_c, 9, 50, 0
5, 158640, Note_on_c, 9, 50, 90
5, 158820, Note_on_c, 9, 50, 0
5, 161700, Note_on_c, 9, 45, 90
5, 161760, Note_on_c, 9, 45, 0
5, 161760, Note_on_c, 9, 45, 90
5, 161820, Note_on_c, 9, 45, 0
5, 161820, Note_on_c, 9, 45, 90
5, 161880, Note_on_c, 9, 45, 0
5, 161880, Note_on_c, 9, 45, 90
5, 161940, Note_on_c, 9, 45, 0
5, 162420, Note_on_c, 9, 50, 90
5, 162480, Note_on_c, 9, 50, 0
5, 162480, Note_on_c, 9, 50, 90
5, 162540, Note_on_c, 9, 50, 0
5, 162540, Note_on_c, 9, 50, 90
5, 162600, Note_on_c, 9, 50, 0
5, 162600, Note_on_c, 9, 50, 90
5, 162660, Note_on_c, 9, 50, 0
5, 163140, Note_on_c, 9, 50, 90
5, 163200, Note_on_c, 9, 50, 0
5, 163320, Note_on_c, 9, 45, 90
5, 163380, Note_on_c, 9, 45, 0
5, 163440, Note_on_c, 9, 50, 90
5, 163500, Note_on_c, 9, 50, 0
5, 163500, Note_on_c, 9, 50, 90
5, 163560, Note_on_c, 9, 50, 0
5, 163620, Note_on_c, 9, 45, 90
5, 163680, Note_on_c, 9, 45, 0
5, 163680, Note_on_c, 9, 50, 90
5, 163800, Note_on_c, 9, 50, 0
5, 163920, Note_on_c, 9, 50, 90
5, 163980, Note_on_c, 9, 50, 0
5, 163980, Note_on_c, 9, 50, 90
5, 164040, Note_on_c, 9, 50, 0
5, 164040, Note_on_c, 9, 50, 90
5, 164100, Note_on_c, 9, 50, 0
5, 164280, Note_on_c, 9, 50, 90
5, 164340, Note_on_c, 9, 50, 0
5, 164340, Note_on_c, 9, 50, 90
5, 164400, Note_on_c, 9, 50, 0
5, 164400, Note_on_c, 9, 50, 90
5, 164580, Note_on_c, 9, 50, 0
5, 164580, End_track
6, 0, Start_track
6, 0, MIDI_port, 0
6, 0, Title_t, "flauta i"
6, 0, Program_c, 2, 73
6, 0, Control_c, 2, 7, 127
6, 0, Control_c, 2, 10, 82
6, 0, Note_on_c, 2, 78, 90
6, 59, Note_on_c, 2, 78, 0
6, 60, Note_on_c, 2, 78, 90
6, 119, Note_on_c, 2, 78, 0
6, 120, Note_on_c, 2, 78, 90
6, 179, Note_on_c, 2, 78, 0
6, 180, Note_on_c, 2, 78, 90
6, 239, Note_on_c, 2, 78, 0
6, 240, Note_on_c, 2, 74, 90
6, 269, Note_on_c, 2, 74, 0
6, 270, Note_on_c, 2, 76, 90
6, 299, Note_on_c, 2, 76, 0
6, 300, Note_on_c, 2, 78, 90
6, 329, Note_on_c, 2, 78, 0
6, 330, Note_on_c, 2, 79, 90
6, 359, Note_on_c, 2, 79, 0
6, 360, Note_on_c, 2, 81, 90
6, 419, Note_on_c, 2, 81, 0
6, 420, Note_on_c, 2, 79, 90
6, 479, Note_on_c, 2, 79, 0
6, 480, Note_on_c, 2, 78, 90
6, 539, Note_on_c, 2, 78, 0
6, 540, Note_on_c, 2, 79, 90
6, 629, Note_on_c, 2, 79, 0
6, 630, Note_on_c, 2, 81, 90
6, 644, Note_on_c, 2, 81, 0
6, 645, Note_on_c, 2, 83, 90
6, 659, Note_on_c, 2, 83, 0
6, 660, Note_on_c, 2, 81, 90
6, 719, Note_on_c, 2, 81, 0
6, 720, Note_on_c, 2, 79, 90
6, 779, Note_on_c, 2, 79, 0
6, 780, Note_on_c, 2, 79, 90
6, 839, Note_on_c, 2, 79, 0
6, 840, Note_on_c, 2, 79, 90
6, 899, Note_on_c, 2, 79, 0
6, 900, Note_on_c, 2, 79, 90
6, 959, Note_on_c, 2, 79, 0
6, 960, Note_on_c, 2, 76, 90
6, 989, Note_on_c, 2, 76, 0
6, 990, Note_on_c, 2, 74, 90
6, 1019, Note_on_c, 2, 74, 0
6, 1020, Note_on_c, 2, 76, 90
6, 1049, Note_on_c, 2, 76, 0
6, 1050, Note_on_c, 2, 78, 90
6, 1079, Note_on_c, 2, 78, 0
6, 1080, Note_on_c, 2, 79, 90
6, 1109, Note_on_c, 2, 79, 0
6, 1110, Note_on_c, 2, 78, 90
6, 1139, Note_on_c, 2, 78, 0
6, 1140, Note_on_c, 2, 81, 90
6, 1169, Note_on_c, 2, 81, 0
6, 1170, Note_on_c, 2, 79, 90
6, 1199, Note_on_c, 2, 79, 0
6, 1200, Note_on_c, 2, 78, 90
6, 1229, Note_on_c, 2, 78, 0
6, 1230, Note_on_c, 2, 76, 90
6, 1259, Note_on_c, 2, 76, 0
6, 1260, Note_on_c, 2, 78, 90
6, 1349, Note_on_c, 2, 78, 0
6, 1350, Note_on_c, 2, 79, 90
6, 1364, Note_on_c, 2, 79, 0
6, 1365, Note_on_c, 2, 81, 90
6, 1379, Note_on_c, 2, 81, 0
6, 1380, Note_on_c, 2, 79, 90
6, 1439, Note_on_c, 2, 79, 0
6, 1440, Note_on_c, 2, 78, 90
6, 1499, Note_on_c, 2, 78, 0
6, 1500, Note_on_c, 2, 80, 90
6, 1559, Note_on_c, 2, 80, 0
6, 1560, Note_on_c, 2, 81, 90
6, 1619, Note_on_c, 2, 81, 0
6, 1620, Note_on_c, 2, 83, 90
6, 1649, Note_on_c, 2, 83, 0
6, 1650, Note_on_c, 2, 85, 90
6, 1679, Note_on_c, 2, 85, 0
6, 1680, Note_on_c, 2, 86, 90
6, 1739, Note_on_c, 2, 86, 0
6, 1740, Note_on_c, 2, 85, 90
6, 1799, Note_on_c, 2, 85, 0
6, 1800, Note_on_c, 2, 83, 90
6, 1859, Note_on_c, 2, 83, 0
6, 1860, Note_on_c, 2, 81, 90
6, 1919, Note_on_c, 2, 81, 0
6, 1920, Note_on_c, 2, 80, 90
6, 1979, Note_on_c, 2, 80, 0
6, 1980, Note_on_c, 2, 81, 90
6, 2039, Note_on_c, 2, 81, 0
6, 2040, Note_on_c, 2, 73, 90
6, 2069, Note_on_c, 2, 73, 0
6, 2070, Note_on_c, 2, 71, 90
6, 2099, Note_on_c, 2, 71, 0
6, 2100, Note_on_c, 2, 73, 90
6, 2129, Note_on_c, 2, 73, 0
6, 2130, Note_on_c, 2, 74, 90
6, 2159, Note_on_c, 2, 74, 0
6, 2160, Note_on_c, 2, 76, 90
6, 2219, Note_on_c, 2, 76, 0
6, 2220, Note_on_c, 2, 79, 90
6, 2279, Note_on_c, 2, 79, 0
6, 2280, Note_on_c, 2, 78, 90
6, 2339, Note_on_c, 2, 78, 0
6, 2340, Note_on_c, 2, 76, 90
6, 2399, Note_on_c, 2, 76, 0
6, 2400, Note_on_c, 2, 69, 90
6, 2429, Note_on_c, 2, 69, 0
6, 2430, Note_on_c, 2, 68, 90
6, 2459, Note_on_c, 2, 68, 0
6, 2460, Note_on_c, 2, 69, 90
6, 2489, Note_on_c, 2, 69, 0
6, 2490, Note_on_c, 2, 71, 90
6, 2519, Note_on_c, 2, 71, 0
6, 2520, Note_on_c, 2, 73, 90
6, 2579, Note_on_c, 2, 73, 0
6, 2580, Note_on_c, 2, 76, 90
6, 2639, Note_on_c, 2, 76, 0
6, 2640, Note_on_c, 2, 74, 90
6, 2699, Note_on_c, 2, 74, 0
6, 2700, Note_on_c, 2, 73, 90
6, 2879, Note_on_c, 2, 73, 0
6, 2880, Note_on_c, 2, 74, 90
6, 2939, Note_on_c, 2, 74, 0
6, 3060, Note_on_c, 2, 78, 90
6, 3119, Note_on_c, 2, 78, 0
6, 3240, Note_on_c, 2, 81, 90
6, 3299, Note_on_c, 2, 81, 0
6, 3300, Note_on_c, 2, 83, 90
6, 3359, Note_on_c, 2, 83, 0
6, 3360, Note_on_c, 2, 85, 90
6, 3419, Note_on_c, 2, 85, 0
6, 3420, Note_on_c, 2, 86, 90
6, 3479, Note_on_c, 2, 86, 0
6, 3480, Note_on_c, 2, 85, 90
6, 3539, Note_on_c, 2, 85, 0
6, 3540, Note_on_c, 2, 86, 90
6, 3599, Note_on_c, 2, 86, 0
6, 3600, Note_on_c, 2, 88, 90
6, 3659, Note_on_c, 2, 88, 0
6, 5610, Note_on_c, 2, 69, 90
6, 5639, Note_on_c, 2, 69, 0
6, 5640, Note_on_c, 2, 81, 90
6, 5669, Note_on_c, 2, 81, 0
6, 5670, Note_on_c, 2, 78, 90
6, 5699, Note_on_c, 2, 78, 0
6, 5700, Note_on_c, 2, 79, 90
6, 5729, Note_on_c, 2, 79, 0
6, 5730, Note_on_c, 2, 76, 90
6, 5759, Note_on_c, 2, 76, 0
6, 5760, Note_on_c, 2, 78, 90
6, 5819, Note_on_c, 2, 78, 0
6, 5820, Note_on_c, 2, 78, 90
6, 5879, Note_on_c, 2, 78, 0
6, 5880, Note_on_c, 2, 78, 90
6, 5939, Note_on_c, 2, 78, 0
6, 5940, Note_on_c, 2, 78, 90
6, 5999, Note_on_c, 2, 78, 0
6, 6000, Note_on_c, 2, 74, 90
6, 6029, Note_on_c, 2, 74, 0
6, 6030, Note_on_c, 2, 76, 90
6, 6059, Note_on_c, 2, 76, 0
6, 6060, Note_on_c, 2, 78, 90
6, 6089, Note_on_c, 2, 78, 0
6, 6090, Note_on_c, 2, 79, 90
6, 6119, Note_on_c, 2, 79, 0
6, 6120, Note_on_c, 2, 81, 90
6, 6179, Note_on_c, 2, 81, 0
6, 6180, Note_on_c, 2, 79, 90
6, 6239, Note_on_c, 2, 79, 0
6, 6240, Note_on_c, 2, 78, 90
6, 6299, Note_on_c, 2, 78, 0
6, 6300, Note_on_c, 2, 79, 90
6, 6389, Note_on_c, 2, 79, 0
6, 6390, Note_on_c, 2, 81, 90
6, 6404, Note_on_c, 2, 81, 0
6, 6405, Note_on_c, 2, 83, 90
6, 6419, Note_on_c, 2, 83, 0
6, 6420, Note_on_c, 2, 81, 90
6, 6479, Note_on_c, 2, 81, 0
6, 6480, Note_on_c, 2, 79, 90
6, 6539, Note_on_c, 2, 79, 0
6, 6540, Note_on_c, 2, 79, 90
6, 6599, Note_on_c, 2, 79, 0
6, 6600, Note_on_c, 2, 79, 90
6, 6659, Note_on_c, 2, 79, 0
6, 6660, Note_on_c, 2, 79, 90
6, 6719, Note_on_c, 2, 79, 0
6, 6720, Note_on_c, 2, 76, 90
6, 6749, Note_on_c, 2, 76, 0
6, 6750, Note_on_c, 2, 74, 90
6, 6779, Note_on_c, 2, 74, 0
6, 6780, Note_on_c, 2, 76, 90
6, 6809, Note_on_c, 2, 76, 0
6, 6810, Note_on_c, 2, 78, 90
6, 6839, Note_on_c, 2, 78, 0
6, 6840, Note_on_c, 2, 79, 90
6, 6869, Note_on_c, 2, 79, 0
6, 6870, Note_on_c, 2, 78, 90
6, 6899, Note_on_c, 2, 78, 0
6, 6900, Note_on_c, 2, 81, 90
6, 6929, Note_on_c, 2, 81, 0
6, 6930, Note_on_c, 2, 79, 90
6, 6959, Note_on_c, 2, 79, 0
6, 6960, Note_on_c, 2, 78, 90
6, 6989, Note_on_c, 2, 78, 0
6, 6990, Note_on_c, 2, 76, 90
6, 7019, Note_on_c, 2, 76, 0
6, 7020, Note_on_c, 2, 78, 90
6, 7109, Note_on_c, 2, 78, 0
6, 7110, Note_on_c, 2, 79, 90
6, 7124, Note_on_c, 2, 79, 0
6, 7125, Note_on_c, 2, 81, 90
6, 7139, Note_on_c, 2, 81, 0
6, 7140, Note_on_c, 2, 79, 90
6, 7199, Note_on_c, 2, 79, 0
6, 7200, Note_on_c, 2, 78, 90
6, 7259, Note_on_c, 2, 78, 0
6, 7260, Note_on_c, 2, 80, 90
6, 7319, Note_on_c, 2, 80, 0
6, 7320, Note_on_c, 2, 81, 90
6, 7379, Note_on_c, 2, 81, 0
6, 7380, Note_on_c, 2, 83, 90
6, 7409, Note_on_c, 2, 83, 0
6, 7410, Note_on_c, 2, 85, 90
6, 7439, Note_on_c, 2, 85, 0
6, 7440, Note_on_c, 2, 86, 90
6, 7499, Note_on_c, 2, 86, 0
6, 7500, Note_on_c, 2, 85, 90
6, 7559, Note_on_c, 2, 85, 0
6, 7560, Note_on_c, 2, 83, 90
6, 7619, Note_on_c, 2, 83, 0
6, 7620, Note_on_c, 2, 81, 90
6, 7679, Note_on_c, 2, 81, 0
6, 7680, Note_on_c, 2, 80, 90
6, 7739, Note_on_c, 2, 80, 0
6, 7740, Note_on_c, 2, 81, 90
6, 7799, Note_on_c, 2, 81, 0
6, 7800, Note_on_c, 2, 73, 90
6, 7829, Note_on_c, 2, 73, 0
6, 7830, Note_on_c, 2, 71, 90
6, 7859, Note_on_c, 2, 71, 0
6, 7860, Note_on_c, 2, 73, 90
6, 7889, Note_on_c, 2, 73, 0
6, 7890, Note_on_c, 2, 74, 90
6, 7919, Note_on_c, 2, 74, 0
6, 7920, Note_on_c, 2, 76, 90
6, 7979, Note_on_c, 2, 76, 0
6, 7980, Note_on_c, 2, 79, 90
6, 8039, Note_on_c, 2, 79, 0
6, 8040, Note_on_c, 2, 78, 90
6, 8099, Note_on_c, 2, 78, 0
6, 8100, Note_on_c, 2, 76, 90
6, 8159, Note_on_c, 2, 76, 0
6, 8160, Note_on_c, 2, 69, 90
6, 8189, Note_on_c, 2, 69, 0
6, 8190, Note_on_c, 2, 68, 90
6, 8219, Note_on_c, 2, 68, 0
6, 8220, Note_on_c, 2, 69, 90
6, 8249, Note_on_c, 2, 69, 0
6, 8250, Note_on_c, 2, 71, 90
6, 8279, Note_on_c, 2, 71, 0
6, 8280, Note_on_c, 2, 73, 90
6, 8339, Note_on_c, 2, 73, 0
6, 8340, Note_on_c, 2, 76, 90
6, 8399, Note_on_c, 2, 76, 0
6, 8400, Note_on_c, 2, 74, 90
6, 8459, Note_on_c, 2, 74, 0
6, 8460, Note_on_c, 2, 73, 90
6, 8639, Note_on_c, 2, 73, 0
6, 8640, Note_on_c, 2, 73, 90
6, 8699, Note_on_c, 2, 73, 0
6, 8700, Note_on_c, 2, 73, 90
6, 8759, Note_on_c, 2, 73, 0
6, 8760, Note_on_c, 2, 73, 90
6, 8819, Note_on_c, 2, 73, 0
6, 8820, Note_on_c, 2, 73, 90
6, 8879, Note_on_c, 2, 73, 0
6, 8880, Note_on_c, 2, 76, 90
6, 8909, Note_on_c, 2, 76, 0
6, 8910, Note_on_c, 2, 74, 90
6, 8939, Note_on_c, 2, 74, 0
6, 8940, Note_on_c, 2, 73, 90
6, 8969, Note_on_c, 2, 73, 0
6, 8970, Note_on_c, 2, 71, 90
6, 8999, Note_on_c, 2, 71, 0
6, 9000, Note_on_c, 2, 69, 90
6, 9059, Note_on_c, 2, 69, 0
6, 9060, Note_on_c, 2, 74, 90
6, 9119, Note_on_c, 2, 74, 0
6, 9120, Note_on_c, 2, 76, 90
6, 9179, Note_on_c, 2, 76, 0
6, 9180, Note_on_c, 2, 78, 90
6, 9239, Note_on_c, 2, 78, 0
6, 9240, Note_on_c, 2, 76, 90
6, 9329, Note_on_c, 2, 76, 0
6, 9330, Note_on_c, 2, 78, 90
6, 9344, Note_on_c, 2, 78, 0
6, 9345, Note_on_c, 2, 79, 90
6, 9359, Note_on_c, 2, 79, 0
6, 9360, Note_on_c, 2, 78, 90
6, 9419, Note_on_c, 2, 78, 0
6, 9420, Note_on_c, 2, 78, 90
6, 9479, Note_on_c, 2, 78, 0
6, 9480, Note_on_c, 2, 78, 90
6, 9539, Note_on_c, 2, 78, 0
6, 9540, Note_on_c, 2, 78, 90
6, 9599, Note_on_c, 2, 78, 0
6, 9600, Note_on_c, 2, 81, 90
6, 9629, Note_on_c, 2, 81, 0
6, 9630, Note_on_c, 2, 79, 90
6, 9659, Note_on_c, 2, 79, 0
6, 9660, Note_on_c, 2, 78, 90
6, 9689, Note_on_c, 2, 78, 0
6, 9690, Note_on_c, 2, 76, 90
6, 9719, Note_on_c, 2, 76, 0
6, 9720, Note_on_c, 2, 74, 90
6, 9779, Note_on_c, 2, 74, 0
6, 9780, Note_on_c, 2, 79, 90
6, 9839, Note_on_c, 2, 79, 0
6, 9840, Note_on_c, 2, 81, 90
6, 9899, Note_on_c, 2, 81, 0
6, 9900, Note_on_c, 2, 83, 90
6, 9959, Note_on_c, 2, 83, 0
6, 9960, Note_on_c, 2, 81, 90
6, 10049, Note_on_c, 2, 81, 0
6, 10050, Note_on_c, 2, 83, 90
6, 10065, Note_on_c, 2, 83, 0
6, 10065, Note_on_c, 2, 84, 90
6, 10080, Note_on_c, 2, 84, 0
6, 10080, Note_on_c, 2, 83, 90
6, 10140, Note_on_c, 2, 83, 0
6, 10140, Note_on_c, 2, 81, 90
6, 10170, Note_on_c, 2, 81, 0
6, 10170, Note_on_c, 2, 79, 90
6, 10200, Note_on_c, 2, 79, 0
6, 10200, Note_on_c, 2, 78, 90
6, 10230, Note_on_c, 2, 78, 0
6, 10230, Note_on_c, 2, 76, 90
6, 10260, Note_on_c, 2, 76, 0
6, 10260, Note_on_c, 2, 81, 90
6, 10320, Note_on_c, 2, 81, 0
6, 10320, Note_on_c, 2, 74, 90
6, 10380, Note_on_c, 2, 74, 0
6, 10380, Note_on_c, 2, 79, 90
6, 10440, Note_on_c, 2, 79, 0
6, 10440, Note_on_c, 2, 78, 90
6, 10500, Note_on_c, 2, 78, 0
6, 10500, Note_on_c, 2, 79, 90
6, 10560, Note_on_c, 2, 79, 0
6, 10560, Note_on_c, 2, 76, 90
6, 10620, Note_on_c, 2, 76, 0
6, 10620, Note_on_c, 2, 74, 90
6, 10650, Note_on_c, 2, 74, 0
6, 10650, Note_on_c, 2, 76, 90
6, 10680, Note_on_c, 2, 76, 0
6, 10680, Note_on_c, 2, 78, 90
6, 10710, Note_on_c, 2, 78, 0
6, 10710, Note_on_c, 2, 76, 90
6, 10740, Note_on_c, 2, 76, 0
6, 10740, Note_on_c, 2, 78, 90
6, 10770, Note_on_c, 2, 78, 0
6, 10770, Note_on_c, 2, 79, 90
6, 10800, Note_on_c, 2, 79, 0
6, 10800, Note_on_c, 2, 81, 90
6, 10860, Note_on_c, 2, 81, 0
6, 10860, Note_on_c, 2, 84, 90
6, 10920, Note_on_c, 2, 84, 0
6, 10920, Note_on_c, 2, 83, 90
6, 10980, Note_on_c, 2, 83, 0
6, 10980, Note_on_c, 2, 81, 90
6, 11040, Note_on_c, 2, 81, 0
6, 11040, Note_on_c, 2, 69, 90
6, 11100, Note_on_c, 2, 69, 0
6, 11100, Note_on_c, 2, 71, 90
6, 11160, Note_on_c, 2, 71, 0
6, 11160, Note_on_c, 2, 72, 90
6, 11220, Note_on_c, 2, 72, 0
6, 11220, Note_on_c, 2, 71, 90
6, 11250, Note_on_c, 2, 71, 0
6, 11250, Note_on_c, 2, 69, 90
6, 11280, Note_on_c, 2, 69, 0
6, 11280, Note_on_c, 2, 71, 90
6, 11310, Note_on_c, 2, 71, 0
6, 11310, Note_on_c, 2, 73, 90
6, 11340, Note_on_c, 2, 73, 0
6, 11340, Note_on_c, 2, 74, 90
6, 11519, Note_on_c, 2, 74, 0
6, 11520, Note_on_c, 2, 73, 90
6, 11579, Note_on_c, 2, 73, 0
6, 11700, Note_on_c, 2, 76, 90
6, 11759, Note_on_c, 2, 76, 0
6, 11880, Note_on_c, 2, 78, 90
6, 11939, Note_on_c, 2, 78, 0
6, 11940, Note_on_c, 2, 80, 90
6, 11969, Note_on_c, 2, 80, 0
6, 11970, Note_on_c, 2, 81, 90
6, 11999, Note_on_c, 2, 81, 0
6, 12000, Note_on_c, 2, 83, 90
6, 12119, Note_on_c, 2, 83, 0
6, 12120, Note_on_c, 2, 83, 90
6, 12179, Note_on_c, 2, 83, 0
6, 12180, Note_on_c, 2, 82, 90
6, 12239, Note_on_c, 2, 82, 0
6, 12240, Note_on_c, 2, 83, 90
6, 12299, Note_on_c, 2, 83, 0
6, 14250, Note_on_c, 2, 64, 90
6, 14280, Note_on_c, 2, 64, 0
6, 14280, Note_on_c, 2, 76, 90
6, 14310, Note_on_c, 2, 76, 0
6, 14310, Note_on_c, 2, 73, 90
6, 14340, Note_on_c, 2, 73, 0
6, 14340, Note_on_c, 2, 74, 90
6, 14370, Note_on_c, 2, 74, 0
6, 14370, Note_on_c, 2, 71, 90
6, 14400, Note_on_c, 2, 71, 0
6, 14400, Note_on_c, 2, 73, 90
6, 14459, Note_on_c, 2, 73, 0
6, 14460, Note_on_c, 2, 73, 90
6, 14519, Note_on_c, 2, 73, 0
6, 14520, Note_on_c, 2, 73, 90
6, 14579, Note_on_c, 2, 73, 0
6, 14580, Note_on_c, 2, 73, 90
6, 14639, Note_on_c, 2, 73, 0
6, 14640, Note_on_c, 2, 76, 90
6, 14669, Note_on_c, 2, 76, 0
6, 14670, Note_on_c, 2, 74, 90
6, 14699, Note_on_c, 2, 74, 0
6, 14700, Note_on_c, 2, 73, 90
6, 14729, Note_on_c, 2, 73, 0
6, 14730, Note_on_c, 2, 71, 90
6, 14759, Note_on_c, 2, 71, 0
6, 14760, Note_on_c, 2, 69, 90
6, 14819, Note_on_c, 2, 69, 0
6, 14820, Note_on_c, 2, 74, 90
6, 14879, Note_on_c, 2, 74, 0
6, 14880, Note_on_c, 2, 76, 90
6, 14939, Note_on_c, 2, 76, 0
6, 14940, Note_on_c, 2, 78, 90
6, 14999, Note_on_c, 2, 78, 0
6, 15000, Note_on_c, 2, 76, 90
6, 15089, Note_on_c, 2, 76, 0
6, 15090, Note_on_c, 2, 78, 90
6, 15104, Note_on_c, 2, 78, 0
6, 15105, Note_on_c, 2, 79, 90
6, 15119, Note_on_c, 2, 79, 0
6, 15120, Note_on_c, 2, 78, 90
6, 15179, Note_on_c, 2, 78, 0
6, 15180, Note_on_c, 2, 78, 90
6, 15239, Note_on_c, 2, 78, 0
6, 15240, Note_on_c, 2, 78, 90
6, 15299, Note_on_c, 2, 78, 0
6, 15300, Note_on_c, 2, 78, 90
6, 15359, Note_on_c, 2, 78, 0
6, 15360, Note_on_c, 2, 81, 90
6, 15389, Note_on_c, 2, 81, 0
6, 15390, Note_on_c, 2, 79, 90
6, 15419, Note_on_c, 2, 79, 0
6, 15420, Note_on_c, 2, 78, 90
6, 15449, Note_on_c, 2, 78, 0
6, 15450, Note_on_c, 2, 76, 90
6, 15479, Note_on_c, 2, 76, 0
6, 15480, Note_on_c, 2, 74, 90
6, 15539, Note_on_c, 2, 74, 0
6, 15540, Note_on_c, 2, 79, 90
6, 15599, Note_on_c, 2, 79, 0
6, 15600, Note_on_c, 2, 81, 90
6, 15659, Note_on_c, 2, 81, 0
6, 15660, Note_on_c, 2, 83, 90
6, 15719, Note_on_c, 2, 83, 0
6, 15720, Note_on_c, 2, 81, 90
6, 15809, Note_on_c, 2, 81, 0
6, 15810, Note_on_c, 2, 83, 90
6, 15825, Note_on_c, 2, 83, 0
6, 15825, Note_on_c, 2, 84, 90
6, 15840, Note_on_c, 2, 84, 0
6, 15840, Note_on_c, 2, 83, 90
6, 15900, Note_on_c, 2, 83, 0
6, 15900, Note_on_c, 2, 81, 90
6, 15930, Note_on_c, 2, 81, 0
6, 15930, Note_on_c, 2, 79, 90
6, 15960, Note_on_c, 2, 79, 0
6, 15960, Note_on_c, 2, 78, 90
6, 15990, Note_on_c, 2, 78, 0
6, 15990, Note_on_c, 2, 76, 90
6, 16020, Note_on_c, 2, 76, 0
6, 16020, Note_on_c, 2, 81, 90
6, 16080, Note_on_c, 2, 81, 0
6, 16080, Note_on_c, 2, 74, 90
6, 16140, Note_on_c, 2, 74, 0
6, 16140, Note_on_c, 2, 79, 90
6, 16200, Note_on_c, 2, 79, 0
6, 16200, Note_on_c, 2, 78, 90
6, 16260, Note_on_c, 2, 78, 0
6, 16260, Note_on_c, 2, 79, 90
6, 16320, Note_on_c, 2, 79, 0
6, 16320, Note_on_c, 2, 76, 90
6, 16380, Note_on_c, 2, 76, 0
6, 16380, Note_on_c, 2, 74, 90
6, 16410, Note_on_c, 2, 74, 0
6, 16410, Note_on_c, 2, 76, 90
6, 16440, Note_on_c, 2, 76, 0
6, 16440, Note_on_c, 2, 78, 90
6, 16470, Note_on_c, 2, 78, 0
6, 16470, Note_on_c, 2, 76, 90
6, 16500, Note_on_c, 2, 76, 0
6, 16500, Note_on_c, 2, 78, 90
6, 16530, Note_on_c, 2, 78, 0
6, 16530, Note_on_c, 2, 79, 90
6, 16560, Note_on_c, 2, 79, 0
6, 16560, Note_on_c, 2, 81, 90
6, 16620, Note_on_c, 2, 81, 0
6, 16620, Note_on_c, 2, 84, 90
6, 16680, Note_on_c, 2, 84, 0
6, 16680, Note_on_c, 2, 83, 90
6, 16740, Note_on_c, 2, 83, 0
6, 16740, Note_on_c, 2, 81, 90
6, 16800, Note_on_c, 2, 81, 0
6, 16800, Note_on_c, 2, 69, 90
6, 16860, Note_on_c, 2, 69, 0
6, 16860, Note_on_c, 2, 71, 90
6, 16920, Note_on_c, 2, 71, 0
6, 16920, Note_on_c, 2, 72, 90
6, 16980, Note_on_c, 2, 72, 0
6, 16980, Note_on_c, 2, 71, 90
6, 17010, Note_on_c, 2, 71, 0
6, 17010, Note_on_c, 2, 69, 90
6, 17040, Note_on_c, 2, 69, 0
6, 17040, Note_on_c, 2, 71, 90
6, 17070, Note_on_c, 2, 71, 0
6, 17070, Note_on_c, 2, 73, 90
6, 17100, Note_on_c, 2, 73, 0
6, 17100, Note_on_c, 2, 74, 90
6, 17279, Note_on_c, 2, 74, 0
6, 18900, Note_on_c, 2, 81, 90
6, 18959, Note_on_c, 2, 81, 0
6, 18960, Note_on_c, 2, 80, 90
6, 18989, Note_on_c, 2, 80, 0
6, 18990, Note_on_c, 2, 78, 90
6, 19019, Note_on_c, 2, 78, 0
6, 19020, Note_on_c, 2, 76, 90
6, 19049, Note_on_c, 2, 76, 0
6, 19050, Note_on_c, 2, 74, 90
6, 19079, Note_on_c, 2, 74, 0
6, 19080, Note_on_c, 2, 73, 90
6, 19109, Note_on_c, 2, 73, 0
6, 19110, Note_on_c, 2, 71, 90
6, 19139, Note_on_c, 2, 71, 0
6, 19140, Note_on_c, 2, 69, 90
6, 19169, Note_on_c, 2, 69, 0
6, 19170, Note_on_c, 2, 76, 90
6, 19199, Note_on_c, 2, 76, 0
6, 19200, Note_on_c, 2, 74, 90
6, 19229, Note_on_c, 2, 74, 0
6, 19230, Note_on_c, 2, 73, 90
6, 19259, Note_on_c, 2, 73, 0
6, 19260, Note_on_c, 2, 71, 90
6, 19289, Note_on_c, 2, 71, 0
6, 19290, Note_on_c, 2, 74, 90
6, 19319, Note_on_c, 2, 74, 0
6, 19320, Note_on_c, 2, 73, 90
6, 19349, Note_on_c, 2, 73, 0
6, 19350, Note_on_c, 2, 71, 90
6, 19379, Note_on_c, 2, 71, 0
6, 19380, Note_on_c, 2, 73, 90
6, 19409, Note_on_c, 2, 73, 0
6, 19410, Note_on_c, 2, 69, 90
6, 19439, Note_on_c, 2, 69, 0
6, 19440, Note_on_c, 2, 71, 90
6, 19469, Note_on_c, 2, 71, 0
6, 19470, Note_on_c, 2, 73, 90
6, 19499, Note_on_c, 2, 73, 0
6, 19500, Note_on_c, 2, 74, 90
6, 19529, Note_on_c, 2, 74, 0
6, 19530, Note_on_c, 2, 76, 90
6, 19559, Note_on_c, 2, 76, 0
6, 19560, Note_on_c, 2, 78, 90
6, 19589, Note_on_c, 2, 78, 0
6, 19590, Note_on_c, 2, 79, 90
6, 19619, Note_on_c, 2, 79, 0
6, 19620, Note_on_c, 2, 81, 90
6, 19649, Note_on_c, 2, 81, 0
6, 19650, Note_on_c, 2, 79, 90
6, 19679, Note_on_c, 2, 79, 0
6, 19680, Note_on_c, 2, 78, 90
6, 19709, Note_on_c, 2, 78, 0
6, 19710, Note_on_c, 2, 76, 90
6, 19739, Note_on_c, 2, 76, 0
6, 19740, Note_on_c, 2, 74, 90
6, 19769, Note_on_c, 2, 74, 0
6, 19770, Note_on_c, 2, 73, 90
6, 19799, Note_on_c, 2, 73, 0
6, 19800, Note_on_c, 2, 71, 90
6, 19829, Note_on_c, 2, 71, 0
6, 19830, Note_on_c, 2, 69, 90
6, 19859, Note_on_c, 2, 69, 0
6, 19860, Note_on_c, 2, 68, 90
6, 19889, Note_on_c, 2, 68, 0
6, 19890, Note_on_c, 2, 66, 90
6, 19919, Note_on_c, 2, 66, 0
6, 19920, Note_on_c, 2, 64, 90
6, 19949, Note_on_c, 2, 64, 0
6, 19950, Note_on_c, 2, 62, 90
6, 19979, Note_on_c, 2, 62, 0
6, 19980, Note_on_c, 2, 69, 90
6, 20009, Note_on_c, 2, 69, 0
6, 20010, Note_on_c, 2, 64, 90
6, 20039, Note_on_c, 2, 64, 0
6, 20040, Note_on_c, 2, 66, 90
6, 20069, Note_on_c, 2, 66, 0
6, 20070, Note_on_c, 2, 68, 90
6, 20099, Note_on_c, 2, 68, 0
6, 20100, Note_on_c, 2, 69, 90
6, 20129, Note_on_c, 2, 69, 0
6, 20130, Note_on_c, 2, 71, 90
6, 20159, Note_on_c, 2, 71, 0
6, 20160, Note_on_c, 2, 73, 90
6, 20189, Note_on_c, 2, 73, 0
6, 20190, Note_on_c, 2, 74, 90
6, 20219, Note_on_c, 2, 74, 0
6, 20220, Note_on_c, 2, 76, 90
6, 20279, Note_on_c, 2, 76, 0
6, 20370, Note_on_c, 2, 73, 90
6, 20399, Note_on_c, 2, 73, 0
6, 20400, Note_on_c, 2, 74, 90
6, 20429, Note_on_c, 2, 74, 0
6, 20430, Note_on_c, 2, 76, 90
6, 20459, Note_on_c, 2, 76, 0
6, 20460, Note_on_c, 2, 78, 90
6, 20489, Note_on_c, 2, 78, 0
6, 20490, Note_on_c, 2, 76, 90
6, 20519, Note_on_c, 2, 76, 0
6, 20520, Note_on_c, 2, 78, 90
6, 20549, Note_on_c, 2, 78, 0
6, 20550, Note_on_c, 2, 80, 90
6, 20579, Note_on_c, 2, 80, 0
6, 20580, Note_on_c, 2, 81, 90
6, 20609, Note_on_c, 2, 81, 0
6, 20610, Note_on_c, 2, 80, 90
6, 20639, Note_on_c, 2, 80, 0
6, 20640, Note_on_c, 2, 81, 90
6, 20669, Note_on_c, 2, 81, 0
6, 20670, Note_on_c, 2, 83, 90
6, 20699, Note_on_c, 2, 83, 0
6, 20700, Note_on_c, 2, 85, 90
6, 20729, Note_on_c, 2, 85, 0
6, 20730, Note_on_c, 2, 83, 90
6, 20759, Note_on_c, 2, 83, 0
6, 20760, Note_on_c, 2, 81, 90
6, 20789, Note_on_c, 2, 81, 0
6, 20790, Note_on_c, 2, 80, 90
6, 20819, Note_on_c, 2, 80, 0
6, 20820, Note_on_c, 2, 78, 90
6, 20849, Note_on_c, 2, 78, 0
6, 20850, Note_on_c, 2, 76, 90
6, 20879, Note_on_c, 2, 76, 0
6, 20880, Note_on_c, 2, 74, 90
6, 20909, Note_on_c, 2, 74, 0
6, 20910, Note_on_c, 2, 73, 90
6, 20939, Note_on_c, 2, 73, 0
6, 20940, Note_on_c, 2, 71, 90
6, 20969, Note_on_c, 2, 71, 0
6, 20970, Note_on_c, 2, 69, 90
6, 20999, Note_on_c, 2, 69, 0
6, 21000, Note_on_c, 2, 68, 90
6, 21029, Note_on_c, 2, 68, 0
6, 21030, Note_on_c, 2, 66, 90
6, 21059, Note_on_c, 2, 66, 0
6, 21060, Note_on_c, 2, 64, 90
6, 21089, Note_on_c, 2, 64, 0
6, 21090, Note_on_c, 2, 62, 90
6, 21119, Note_on_c, 2, 62, 0
6, 21120, Note_on_c, 2, 64, 90
6, 21149, Note_on_c, 2, 64, 0
6, 21150, Note_on_c, 2, 66, 90
6, 21179, Note_on_c, 2, 66, 0
6, 21180, Note_on_c, 2, 68, 90
6, 21209, Note_on_c, 2, 68, 0
6, 21210, Note_on_c, 2, 66, 90
6, 21239, Note_on_c, 2, 66, 0
6, 21240, Note_on_c, 2, 68, 90
6, 21269, Note_on_c, 2, 68, 0
6, 21270, Note_on_c, 2, 69, 90
6, 21299, Note_on_c, 2, 69, 0
6, 21300, Note_on_c, 2, 71, 90
6, 21329, Note_on_c, 2, 71, 0
6, 21330, Note_on_c, 2, 73, 90
6, 21359, Note_on_c, 2, 73, 0
6, 21360, Note_on_c, 2, 74, 90
6, 21389, Note_on_c, 2, 74, 0
6, 21390, Note_on_c, 2, 71, 90
6, 21419, Note_on_c, 2, 71, 0
6, 21420, Note_on_c, 2, 73, 90
6, 21449, Note_on_c, 2, 73, 0
6, 21450, Note_on_c, 2, 81, 90
6, 21479, Note_on_c, 2, 81, 0
6, 21480, Note_on_c, 2, 80, 90
6, 21509, Note_on_c, 2, 80, 0
6, 21510, Note_on_c, 2, 78, 90
6, 21539, Note_on_c, 2, 78, 0
6, 21540, Note_on_c, 2, 76, 90
6, 21569, Note_on_c, 2, 76, 0
6, 21570, Note_on_c, 2, 78, 90
6, 21599, Note_on_c, 2, 78, 0
6, 21600, Note_on_c, 2, 76, 90
6, 21629, Note_on_c, 2, 76, 0
6, 21630, Note_on_c, 2, 74, 90
6, 21659, Note_on_c, 2, 74, 0
6, 21660, Note_on_c, 2, 73, 90
6, 21719, Note_on_c, 2, 73, 0
6, 21810, Note_on_c, 2, 86, 90
6, 21839, Note_on_c, 2, 86, 0
6, 21840, Note_on_c, 2, 85, 90
6, 21869, Note_on_c, 2, 85, 0
6, 21870, Note_on_c, 2, 83, 90
6, 21899, Note_on_c, 2, 83, 0
6, 21900, Note_on_c, 2, 82, 90
6, 21929, Note_on_c, 2, 82, 0
6, 21930, Note_on_c, 2, 83, 90
6, 21959, Note_on_c, 2, 83, 0
6, 21960, Note_on_c, 2, 82, 90
6, 21989, Note_on_c, 2, 82, 0
6, 21990, Note_on_c, 2, 80, 90
6, 22019, Note_on_c, 2, 80, 0
6, 22020, Note_on_c, 2, 78, 90
6, 22079, Note_on_c, 2, 78, 0
6, 22170, Note_on_c, 2, 70, 90
6, 22199, Note_on_c, 2, 70, 0
6, 22200, Note_on_c, 2, 71, 90
6, 22229, Note_on_c, 2, 71, 0
6, 22230, Note_on_c, 2, 73, 90
6, 22259, Note_on_c, 2, 73, 0
6, 22260, Note_on_c, 2, 74, 90
6, 22289, Note_on_c, 2, 74, 0
6, 22290, Note_on_c, 2, 73, 90
6, 22319, Note_on_c, 2, 73, 0
6, 22320, Note_on_c, 2, 74, 90
6, 22349, Note_on_c, 2, 74, 0
6, 22350, Note_on_c, 2, 76, 90
6, 22379, Note_on_c, 2, 76, 0
6, 22380, Note_on_c, 2, 78, 90
6, 22409, Note_on_c, 2, 78, 0
6, 22410, Note_on_c, 2, 74, 90
6, 22439, Note_on_c, 2, 74, 0
6, 22440, Note_on_c, 2, 76, 90
6, 22469, Note_on_c, 2, 76, 0
6, 22470, Note_on_c, 2, 78, 90
6, 22499, Note_on_c, 2, 78, 0
6, 22500, Note_on_c, 2, 80, 90
6, 22529, Note_on_c, 2, 80, 0
6, 22530, Note_on_c, 2, 75, 90
6, 22559, Note_on_c, 2, 75, 0
6, 22560, Note_on_c, 2, 76, 90
6, 22589, Note_on_c, 2, 76, 0
6, 22590, Note_on_c, 2, 78, 90
6, 22619, Note_on_c, 2, 78, 0
6, 22620, Note_on_c, 2, 80, 90
6, 22649, Note_on_c, 2, 80, 0
6, 22650, Note_on_c, 2, 78, 90
6, 22679, Note_on_c, 2, 78, 0
6, 22680, Note_on_c, 2, 80, 90
6, 22709, Note_on_c, 2, 80, 0
6, 22710, Note_on_c, 2, 81, 90
6, 22739, Note_on_c, 2, 81, 0
6, 22740, Note_on_c, 2, 83, 90
6, 22769, Note_on_c, 2, 83, 0
6, 22770, Note_on_c, 2, 80, 90
6, 22799, Note_on_c, 2, 80, 0
6, 22800, Note_on_c, 2, 81, 90
6, 22829, Note_on_c, 2, 81, 0
6, 22830, Note_on_c, 2, 83, 90
6, 22859, Note_on_c, 2, 83, 0
6, 22860, Note_on_c, 2, 76, 90
6, 22889, Note_on_c, 2, 76, 0
6, 22890, Note_on_c, 2, 74, 90
6, 22919, Note_on_c, 2, 74, 0
6, 22920, Note_on_c, 2, 76, 90
6, 22949, Note_on_c, 2, 76, 0
6, 22950, Note_on_c, 2, 78, 90
6, 22979, Note_on_c, 2, 78, 0
6, 22980, Note_on_c, 2, 76, 90
6, 23009, Note_on_c, 2, 76, 0
6, 23010, Note_on_c, 2, 81, 90
6, 23039, Note_on_c, 2, 81, 0
6, 23040, Note_on_c, 2, 80, 90
6, 23069, Note_on_c, 2, 80, 0
6, 23070, Note_on_c, 2, 81, 90
6, 23099, Note_on_c, 2, 81, 0
6, 23100, Note_on_c, 2, 73, 90
6, 23129, Note_on_c, 2, 73, 0
6, 23130, Note_on_c, 2, 81, 90
6, 23159, Note_on_c, 2, 81, 0
6, 23160, Note_on_c, 2, 80, 90
6, 23189, Note_on_c, 2, 80, 0
6, 23190, Note_on_c, 2, 81, 90
6, 23219, Note_on_c, 2, 81, 0
6, 23220, Note_on_c, 2, 71, 90
6, 23249, Note_on_c, 2, 71, 0
6, 23250, Note_on_c, 2, 69, 90
6, 23279, Note_on_c, 2, 69, 0
6, 23280, Note_on_c, 2, 71, 90
6, 23309, Note_on_c, 2, 71, 0
6, 23310, Note_on_c, 2, 73, 90
6, 23339, Note_on_c, 2, 73, 0
6, 23340, Note_on_c, 2, 69, 90
6, 23369, Note_on_c, 2, 69, 0
6, 23370, Note_on_c, 2, 76, 90
6, 23399, Note_on_c, 2, 76, 0
6, 23400, Note_on_c, 2, 74, 90
6, 23429, Note_on_c, 2, 74, 0
6, 23430, Note_on_c, 2, 76, 90
6, 23459, Note_on_c, 2, 76, 0
6, 23460, Note_on_c, 2, 64, 90
6, 23489, Note_on_c, 2, 64, 0
6, 23490, Note_on_c, 2, 76, 90
6, 23519, Note_on_c, 2, 76, 0
6, 23520, Note_on_c, 2, 74, 90
6, 23549, Note_on_c, 2, 74, 0
6, 23550, Note_on_c, 2, 76, 90
6, 23579, Note_on_c, 2, 76, 0
6, 23580, Note_on_c, 2, 69, 90
6, 23609, Note_on_c, 2, 69, 0
6, 23610, Note_on_c, 2, 68, 90
6, 23639, Note_on_c, 2, 68, 0
6, 23640, Note_on_c, 2, 69, 90
6, 23669, Note_on_c, 2, 69, 0
6, 23670, Note_on_c, 2, 71, 90
6, 23699, Note_on_c, 2, 71, 0
6, 23700, Note_on_c, 2, 69, 90
6, 23729, Note_on_c, 2, 69, 0
6, 23730, Note_on_c, 2, 78, 90
6, 23759, Note_on_c, 2, 78, 0
6, 23760, Note_on_c, 2, 76, 90
6, 23789, Note_on_c, 2, 76, 0
6, 23790, Note_on_c, 2, 78, 90
6, 23819, Note_on_c, 2, 78, 0
6, 23820, Note_on_c, 2, 75, 90
6, 23849, Note_on_c, 2, 75, 0
6, 23850, Note_on_c, 2, 69, 90
6, 23879, Note_on_c, 2, 69, 0
6, 23880, Note_on_c, 2, 68, 90
6, 23909, Note_on_c, 2, 68, 0
6, 23910, Note_on_c, 2, 66, 90
6, 23939, Note_on_c, 2, 66, 0
6, 23940, Note_on_c, 2, 68, 90
6, 23969, Note_on_c, 2, 68, 0
6, 23970, Note_on_c, 2, 71, 90
6, 23999, Note_on_c, 2, 71, 0
6, 24000, Note_on_c, 2, 76, 90
6, 24029, Note_on_c, 2, 76, 0
6, 24030, Note_on_c, 2, 78, 90
6, 24059, Note_on_c, 2, 78, 0
6, 24060, Note_on_c, 2, 80, 90
6, 24089, Note_on_c, 2, 80, 0
6, 24090, Note_on_c, 2, 81, 90
6, 24119, Note_on_c, 2, 81, 0
6, 24120, Note_on_c, 2, 83, 90
6, 24149, Note_on_c, 2, 83, 0
6, 24150, Note_on_c, 2, 80, 90
6, 24179, Note_on_c, 2, 80, 0
6, 24180, Note_on_c, 2, 76, 90
6, 24209, Note_on_c, 2, 76, 0
6, 24210, Note_on_c, 2, 78, 90
6, 24239, Note_on_c, 2, 78, 0
6, 24240, Note_on_c, 2, 80, 90
6, 24269, Note_on_c, 2, 80, 0
6, 24270, Note_on_c, 2, 76, 90
6, 24299, Note_on_c, 2, 76, 0
6, 24300, Note_on_c, 2, 73, 90
6, 24329, Note_on_c, 2, 73, 0
6, 24330, Note_on_c, 2, 78, 90
6, 24359, Note_on_c, 2, 78, 0
6, 24360, Note_on_c, 2, 79, 90
6, 24389, Note_on_c, 2, 79, 0
6, 24390, Note_on_c, 2, 78, 90
6, 24419, Note_on_c, 2, 78, 0
6, 24420, Note_on_c, 2, 76, 90
6, 24449, Note_on_c, 2, 76, 0
6, 24450, Note_on_c, 2, 74, 90
6, 24479, Note_on_c, 2, 74, 0
6, 24480, Note_on_c, 2, 73, 90
6, 24509, Note_on_c, 2, 73, 0
6, 24510, Note_on_c, 2, 71, 90
6, 24539, Note_on_c, 2, 71, 0
6, 24540, Note_on_c, 2, 70, 90
6, 24569, Note_on_c, 2, 70, 0
6, 24570, Note_on_c, 2, 71, 90
6, 24599, Note_on_c, 2, 71, 0
6, 24600, Note_on_c, 2, 73, 90
6, 24629, Note_on_c, 2, 73, 0
6, 24630, Note_on_c, 2, 70, 90
6, 24659, Note_on_c, 2, 70, 0
6, 24660, Note_on_c, 2, 66, 90
6, 24689, Note_on_c, 2, 66, 0
6, 24690, Note_on_c, 2, 70, 90
6, 24719, Note_on_c, 2, 70, 0
6, 24720, Note_on_c, 2, 71, 90
6, 24749, Note_on_c, 2, 71, 0
6, 24750, Note_on_c, 2, 73, 90
6, 24779, Note_on_c, 2, 73, 0
6, 24780, Note_on_c, 2, 74, 90
6, 24809, Note_on_c, 2, 74, 0
6, 24810, Note_on_c, 2, 76, 90
6, 24839, Note_on_c, 2, 76, 0
6, 24840, Note_on_c, 2, 78, 90
6, 24869, Note_on_c, 2, 78, 0
6, 24870, Note_on_c, 2, 74, 90
6, 24899, Note_on_c, 2, 74, 0
6, 24900, Note_on_c, 2, 71, 90
6, 24929, Note_on_c, 2, 71, 0
6, 24930, Note_on_c, 2, 73, 90
6, 24959, Note_on_c, 2, 73, 0
6, 24960, Note_on_c, 2, 74, 90
6, 24989, Note_on_c, 2, 74, 0
6, 24990, Note_on_c, 2, 71, 90
6, 25019, Note_on_c, 2, 71, 0
6, 25020, Note_on_c, 2, 68, 90
6, 25049, Note_on_c, 2, 68, 0
6, 25050, Note_on_c, 2, 73, 90
6, 25079, Note_on_c, 2, 73, 0
6, 25080, Note_on_c, 2, 74, 90
6, 25109, Note_on_c, 2, 74, 0
6, 25110, Note_on_c, 2, 73, 90
6, 25139, Note_on_c, 2, 73, 0
6, 25140, Note_on_c, 2, 71, 90
6, 25169, Note_on_c, 2, 71, 0
6, 25170, Note_on_c, 2, 69, 90
6, 25199, Note_on_c, 2, 69, 0
6, 25200, Note_on_c, 2, 68, 90
6, 25229, Note_on_c, 2, 68, 0
6, 25230, Note_on_c, 2, 66, 90
6, 25259, Note_on_c, 2, 66, 0
6, 25260, Note_on_c, 2, 65, 90
6, 25289, Note_on_c, 2, 65, 0
6, 25290, Note_on_c, 2, 66, 90
6, 25319, Note_on_c, 2, 66, 0
6, 25320, Note_on_c, 2, 68, 90
6, 25349, Note_on_c, 2, 68, 0
6, 25350, Note_on_c, 2, 65, 90
6, 25379, Note_on_c, 2, 65, 0
6, 25380, Note_on_c, 2, 69, 90
6, 25409, Note_on_c, 2, 69, 0
6, 25410, Note_on_c, 2, 86, 90
6, 25439, Note_on_c, 2, 86, 0
6, 25440, Note_on_c, 2, 85, 90
6, 25469, Note_on_c, 2, 85, 0
6, 25470, Note_on_c, 2, 83, 90
6, 25499, Note_on_c, 2, 83, 0
6, 25500, Note_on_c, 2, 81, 90
6, 25529, Note_on_c, 2, 81, 0
6, 25530, Note_on_c, 2, 83, 90
6, 25559, Note_on_c, 2, 83, 0
6, 25560, Note_on_c, 2, 85, 90
6, 25589, Note_on_c, 2, 85, 0
6, 25590, Note_on_c, 2, 81, 90
6, 25619, Note_on_c, 2, 81, 0
6, 25620, Note_on_c, 2, 78, 90
6, 25649, Note_on_c, 2, 78, 0
6, 25650, Note_on_c, 2, 80, 90
6, 25679, Note_on_c, 2, 80, 0
6, 25680, Note_on_c, 2, 81, 90
6, 25709, Note_on_c, 2, 81, 0
6, 25710, Note_on_c, 2, 78, 90
6, 25739, Note_on_c, 2, 78, 0
6, 25740, Note_on_c, 2, 75, 90
6, 25769, Note_on_c, 2, 75, 0
6, 25770, Note_on_c, 2, 80, 90
6, 25799, Note_on_c, 2, 80, 0
6, 25800, Note_on_c, 2, 81, 90
6, 25829, Note_on_c, 2, 81, 0
6, 25830, Note_on_c, 2, 80, 90
6, 25859, Note_on_c, 2, 80, 0
6, 25860, Note_on_c, 2, 78, 90
6, 25889, Note_on_c, 2, 78, 0
6, 25890, Note_on_c, 2, 76, 90
6, 25919, Note_on_c, 2, 76, 0
6, 25920, Note_on_c, 2, 75, 90
6, 25949, Note_on_c, 2, 75, 0
6, 25950, Note_on_c, 2, 73, 90
6, 25979, Note_on_c, 2, 73, 0
6, 25980, Note_on_c, 2, 72, 90
6, 26009, Note_on_c, 2, 72, 0
6, 26010, Note_on_c, 2, 75, 90
6, 26039, Note_on_c, 2, 75, 0
6, 26040, Note_on_c, 2, 68, 90
6, 26129, Note_on_c, 2, 68, 0
6, 26130, Note_on_c, 2, 78, 90
6, 26159, Note_on_c, 2, 78, 0
6, 26160, Note_on_c, 2, 76, 90
6, 26189, Note_on_c, 2, 76, 0
6, 26190, Note_on_c, 2, 75, 90
6, 26219, Note_on_c, 2, 75, 0
6, 26220, Note_on_c, 2, 73, 90
6, 26249, Note_on_c, 2, 73, 0
6, 26250, Note_on_c, 2, 81, 90
6, 26279, Note_on_c, 2, 81, 0
6, 26280, Note_on_c, 2, 80, 90
6, 26309, Note_on_c, 2, 80, 0
6, 26310, Note_on_c, 2, 78, 90
6, 26339, Note_on_c, 2, 78, 0
6, 26340, Note_on_c, 2, 76, 90
6, 26369, Note_on_c, 2, 76, 0
6, 26370, Note_on_c, 2, 80, 90
6, 26399, Note_on_c, 2, 80, 0
6, 26400, Note_on_c, 2, 73, 90
6, 26489, Note_on_c, 2, 73, 0
6, 26490, Note_on_c, 2, 76, 90
6, 26519, Note_on_c, 2, 76, 0
6, 26520, Note_on_c, 2, 75, 90
6, 26549, Note_on_c, 2, 75, 0
6, 26550, Note_on_c, 2, 73, 90
6, 26579, Note_on_c, 2, 73, 0
6, 26580, Note_on_c, 2, 71, 90
6, 26609, Note_on_c, 2, 71, 0
6, 26610, Note_on_c, 2, 80, 90
6, 26639, Note_on_c, 2, 80, 0
6, 26640, Note_on_c, 2, 78, 90
6, 26669, Note_on_c, 2, 78, 0
6, 26670, Note_on_c, 2, 76, 90
6, 26699, Note_on_c, 2, 76, 0
6, 26700, Note_on_c, 2, 75, 90
6, 26729, Note_on_c, 2, 75, 0
6, 26730, Note_on_c, 2, 78, 90
6, 26759, Note_on_c, 2, 78, 0
6, 26760, Note_on_c, 2, 71, 90
6, 26849, Note_on_c, 2, 71, 0
6, 26850, Note_on_c, 2, 68, 90
6, 26879, Note_on_c, 2, 68, 0
6, 26880, Note_on_c, 2, 73, 90
6, 26909, Note_on_c, 2, 73, 0
6, 26910, Note_on_c, 2, 76, 90
6, 26939, Note_on_c, 2, 76, 0
6, 26940, Note_on_c, 2, 81, 90
6, 26969, Note_on_c, 2, 81, 0
6, 26970, Note_on_c, 2, 83, 90
6, 26999, Note_on_c, 2, 83, 0
6, 27000, Note_on_c, 2, 81, 90
6, 27029, Note_on_c, 2, 81, 0
6, 27030, Note_on_c, 2, 80, 90
6, 27059, Note_on_c, 2, 80, 0
6, 27060, Note_on_c, 2, 78, 90
6, 27089, Note_on_c, 2, 78, 0
6, 27090, Note_on_c, 2, 80, 90
6, 27119, Note_on_c, 2, 80, 0
6, 27120, Note_on_c, 2, 78, 90
6, 27149, Note_on_c, 2, 78, 0
6, 27150, Note_on_c, 2, 76, 90
6, 27179, Note_on_c, 2, 76, 0
6, 27180, Note_on_c, 2, 75, 90
6, 27209, Note_on_c, 2, 75, 0
6, 27210, Note_on_c, 2, 68, 90
6, 27239, Note_on_c, 2, 68, 0
6, 27240, Note_on_c, 2, 72, 90
6, 27269, Note_on_c, 2, 72, 0
6, 27270, Note_on_c, 2, 75, 90
6, 27299, Note_on_c, 2, 75, 0
6, 27300, Note_on_c, 2, 80, 90
6, 27329, Note_on_c, 2, 80, 0
6, 27330, Note_on_c, 2, 81, 90
6, 27359, Note_on_c, 2, 81, 0
6, 27360, Note_on_c, 2, 80, 90
6, 27389, Note_on_c, 2, 80, 0
6, 27390, Note_on_c, 2, 78, 90
6, 27419, Note_on_c, 2, 78, 0
6, 27420, Note_on_c, 2, 76, 90
6, 27449, Note_on_c, 2, 76, 0
6, 27450, Note_on_c, 2, 78, 90
6, 27479, Note_on_c, 2, 78, 0
6, 27480, Note_on_c, 2, 76, 90
6, 27509, Note_on_c, 2, 76, 0
6, 27510, Note_on_c, 2, 74, 90
6, 27539, Note_on_c, 2, 74, 0
6, 27540, Note_on_c, 2, 73, 90
6, 27569, Note_on_c, 2, 73, 0
6, 27570, Note_on_c, 2, 76, 90
6, 27599, Note_on_c, 2, 76, 0
6, 27600, Note_on_c, 2, 78, 90
6, 27629, Note_on_c, 2, 78, 0
6, 27630, Note_on_c, 2, 80, 90
6, 27659, Note_on_c, 2, 80, 0
6, 27660, Note_on_c, 2, 81, 90
6, 27689, Note_on_c, 2, 81, 0
6, 27690, Note_on_c, 2, 83, 90
6, 27719, Note_on_c, 2, 83, 0
6, 27720, Note_on_c, 2, 85, 90
6, 27749, Note_on_c, 2, 85, 0
6, 27750, Note_on_c, 2, 83, 90
6, 27779, Note_on_c, 2, 83, 0
6, 27780, Note_on_c, 2, 81, 90
6, 27809, Note_on_c, 2, 81, 0
6, 27810, Note_on_c, 2, 85, 90
6, 27839, Note_on_c, 2, 85, 0
6, 27840, Note_on_c, 2, 81, 90
6, 27869, Note_on_c, 2, 81, 0
6, 27870, Note_on_c, 2, 78, 90
6, 27899, Note_on_c, 2, 78, 0
6, 27900, Note_on_c, 2, 87, 90
6, 27929, Note_on_c, 2, 87, 0
6, 27930, Note_on_c, 2, 85, 90
6, 27959, Note_on_c, 2, 85, 0
6, 27960, Note_on_c, 2, 84, 90
6, 27989, Note_on_c, 2, 84, 0
6, 27990, Note_on_c, 2, 82, 90
6, 28019, Note_on_c, 2, 82, 0
6, 28020, Note_on_c, 2, 80, 90
6, 28049, Note_on_c, 2, 80, 0
6, 28050, Note_on_c, 2, 73, 90
6, 28079, Note_on_c, 2, 73, 0
6, 28080, Note_on_c, 2, 76, 90
6, 28109, Note_on_c, 2, 76, 0
6, 28110, Note_on_c, 2, 80, 90
6, 28139, Note_on_c, 2, 80, 0
6, 28140, Note_on_c, 2, 85, 90
6, 28169, Note_on_c, 2, 85, 0
6, 28170, Note_on_c, 2, 83, 90
6, 28199, Note_on_c, 2, 83, 0
6, 28200, Note_on_c, 2, 81, 90
6, 28229, Note_on_c, 2, 81, 0
6, 28230, Note_on_c, 2, 80, 90
6, 28259, Note_on_c, 2, 80, 0
6, 28260, Note_on_c, 2, 78, 90
6, 28289, Note_on_c, 2, 78, 0
6, 28290, Note_on_c, 2, 80, 90
6, 28319, Note_on_c, 2, 80, 0
6, 28320, Note_on_c, 2, 81, 90
6, 28379, Note_on_c, 2, 81, 0
6, 28410, Note_on_c, 2, 80, 90
6, 28439, Note_on_c, 2, 80, 0
6, 28440, Note_on_c, 2, 78, 90
6, 28469, Note_on_c, 2, 78, 0
6, 28470, Note_on_c, 2, 76, 90
6, 28499, Note_on_c, 2, 76, 0
6, 28500, Note_on_c, 2, 78, 90
6, 28529, Note_on_c, 2, 78, 0
6, 28530, Note_on_c, 2, 75, 90
6, 28559, Note_on_c, 2, 75, 0
6, 28560, Note_on_c, 2, 72, 90
6, 28589, Note_on_c, 2, 72, 0
6, 28590, Note_on_c, 2, 68, 90
6, 28619, Note_on_c, 2, 68, 0
6, 28620, Note_on_c, 2, 76, 90
6, 28739, Note_on_c, 2, 76, 0
6, 28740, Note_on_c, 2, 76, 90
6, 29099, Note_on_c, 2, 76, 0
6, 29100, Note_on_c, 2, 78, 90
6, 30060, Note_on_c, 2, 78, 0
6, 30060, Note_on_c, 2, 76, 90
6, 30540, Note_on_c, 2, 76, 0
6, 30660, Note_on_c, 2, 75, 90
6, 30750, Note_on_c, 2, 75, 0
6, 30750, Note_on_c, 2, 76, 90
6, 30765, Note_on_c, 2, 76, 0
6, 30765, Note_on_c, 2, 78, 90
6, 30780, Note_on_c, 2, 78, 0
6, 30780, Note_on_c, 2, 76, 90
6, 31500, Note_on_c, 2, 76, 0
6, 31500, Note_on_c, 2, 81, 90
6, 31620, Note_on_c, 2, 81, 0
6, 31860, Note_on_c, 2, 80, 90
6, 31950, Note_on_c, 2, 80, 0
6, 31950, Note_on_c, 2, 81, 90
6, 31965, Note_on_c, 2, 81, 0
6, 31965, Note_on_c, 2, 83, 90
6, 31980, Note_on_c, 2, 83, 0
6, 31980, Note_on_c, 2, 81, 90
6, 32220, Note_on_c, 2, 81, 0
6, 32460, Note_on_c, 2, 81, 90
6, 32579, Note_on_c, 2, 81, 0
6, 32580, Note_on_c, 2, 81, 90
6, 32699, Note_on_c, 2, 81, 0
6, 32700, Note_on_c, 2, 81, 90
6, 32819, Note_on_c, 2, 81, 0
6, 32820, Note_on_c, 2, 83, 90
6, 32939, Note_on_c, 2, 83, 0
6, 32940, Note_on_c, 2, 81, 90
6, 33059, Note_on_c, 2, 81, 0
6, 33060, Note_on_c, 2, 86, 90
6, 33179, Note_on_c, 2, 86, 0
6, 33180, Note_on_c, 2, 88, 90
6, 33299, Note_on_c, 2, 88, 0
6, 33300, Note_on_c, 2, 86, 90
6, 33539, Note_on_c, 2, 86, 0
6, 33540, Note_on_c, 2, 85, 90
6, 33599, Note_on_c, 2, 85, 0
6, 33600, Note_on_c, 2, 86, 90
6, 33659, Note_on_c, 2, 86, 0
6, 33660, Note_on_c, 2, 88, 90
6, 33779, Note_on_c, 2, 88, 0
6, 33780, Note_on_c, 2, 90, 90
6, 33899, Note_on_c, 2, 90, 0
6, 33900, Note_on_c, 2, 88, 90
6, 33959, Note_on_c, 2, 88, 0
6, 33960, Note_on_c, 2, 86, 90
6, 34019, Note_on_c, 2, 86, 0
6, 34020, Note_on_c, 2, 85, 90
6, 34139, Note_on_c, 2, 85, 0
6, 34140, Note_on_c, 2, 83, 90
6, 34259, Note_on_c, 2, 83, 0
6, 34260, Note_on_c, 2, 81, 90
6, 34379, Note_on_c, 2, 81, 0
6, 34380, Note_on_c, 2, 81, 90
6, 34499, Note_on_c, 2, 81, 0
6, 34500, Note_on_c, 2, 86, 90
6, 34619, Note_on_c, 2, 86, 0
6, 34620, Note_on_c, 2, 85, 90
6, 34679, Note_on_c, 2, 85, 0
6, 34680, Note_on_c, 2, 86, 90
6, 34739, Note_on_c, 2, 86, 0
6, 34740, Note_on_c, 2, 88, 90
6, 34859, Note_on_c, 2, 88, 0
6, 34860, Note_on_c, 2, 83, 90
6, 34979, Note_on_c, 2, 83, 0
6, 34980, Note_on_c, 2, 81, 90
6, 35039, Note_on_c, 2, 81, 0
6, 35040, Note_on_c, 2, 80, 90
6, 35099, Note_on_c, 2, 80, 0
6, 35100, Note_on_c, 2, 78, 90
6, 35219, Note_on_c, 2, 78, 0
6, 35220, Note_on_c, 2, 76, 90
6, 35339, Note_on_c, 2, 76, 0
6, 35340, Note_on_c, 2, 76, 90
6, 35459, Note_on_c, 2, 76, 0
6, 35460, Note_on_c, 2, 83, 90
6, 35579, Note_on_c, 2, 83, 0
6, 35580, Note_on_c, 2, 83, 90
6, 35699, Note_on_c, 2, 83, 0
6, 35700, Note_on_c, 2, 83, 90
6, 35819, Note_on_c, 2, 83, 0
6, 35820, Note_on_c, 2, 85, 90
6, 35939, Note_on_c, 2, 85, 0
6, 35940, Note_on_c, 2, 86, 90
6, 35999, Note_on_c, 2, 86, 0
6, 36000, Note_on_c, 2, 85, 90
6, 36059, Note_on_c, 2, 85, 0
6, 36060, Note_on_c, 2, 83, 90
6, 36179, Note_on_c, 2, 83, 0
6, 36180, Note_on_c, 2, 81, 90
6, 36239, Note_on_c, 2, 81, 0
6, 36240, Note_on_c, 2, 83, 90
6, 36299, Note_on_c, 2, 83, 0
6, 36300, Note_on_c, 2, 85, 90
6, 36419, Note_on_c, 2, 85, 0
6, 36420, Note_on_c, 2, 83, 90
6, 36659, Note_on_c, 2, 83, 0
6, 36660, Note_on_c, 2, 81, 90
6, 36779, Note_on_c, 2, 81, 0
6, 36780, Note_on_c, 2, 81, 90
6, 36899, Note_on_c, 2, 81, 0
6, 36900, Note_on_c, 2, 81, 90
6, 37259, Note_on_c, 2, 81, 0
6, 130140, Note_on_c, 2, 81, 100
6, 130740, Note_on_c, 2, 81, 0
6, 130740, Note_on_c, 2, 78, 100
6, 131100, Note_on_c, 2, 78, 0
6, 131100, Note_on_c, 2, 76, 100
6, 131580, Note_on_c, 2, 76, 0
6, 131580, Note_on_c, 2, 74, 100
6, 132180, Note_on_c, 2, 74, 0
6, 132180, Note_on_c, 2, 79, 100
6, 132300, Note_on_c, 2, 79, 0
6, 132300, Note_on_c, 2, 78, 100
6, 132420, Note_on_c, 2, 78, 0
6, 132420, Note_on_c, 2, 79, 100
6, 132540, Note_on_c, 2, 79, 0
6, 132660, Note_on_c, 2, 79, 90
6, 132779, Note_on_c, 2, 79, 0
6, 132780, Note_on_c, 2, 79, 90
6, 132899, Note_on_c, 2, 79, 0
6, 132900, Note_on_c, 2, 81, 90
6, 133019, Note_on_c, 2, 81, 0
6, 133020, Note_on_c, 2, 79, 90
6, 133139, Note_on_c, 2, 79, 0
6, 133140, Note_on_c, 2, 81, 90
6, 133199, Note_on_c, 2, 81, 0
6, 133200, Note_on_c, 2, 83, 90
6, 133259, Note_on_c, 2, 83, 0
6, 133260, Note_on_c, 2, 84, 90
6, 133379, Note_on_c, 2, 84, 0
6, 133380, Note_on_c, 2, 84, 90
6, 133499, Note_on_c, 2, 84, 0
6, 133500, Note_on_c, 2, 83, 90
6, 133619, Note_on_c, 2, 83, 0
6, 133620, Note_on_c, 2, 84, 90
6, 133859, Note_on_c, 2, 84, 0
6, 133860, Note_on_c, 2, 86, 90
6, 133979, Note_on_c, 2, 86, 0
6, 133980, Note_on_c, 2, 88, 90
6, 134099, Note_on_c, 2, 88, 0
6, 134100, Note_on_c, 2, 84, 90
6, 134339, Note_on_c, 2, 84, 0
6, 134340, Note_on_c, 2, 83, 90
6, 134399, Note_on_c, 2, 83, 0
6, 134400, Note_on_c, 2, 84, 90
6, 134459, Note_on_c, 2, 84, 0
6, 134460, Note_on_c, 2, 86, 90
6, 134579, Note_on_c, 2, 86, 0
6, 134580, Note_on_c, 2, 81, 90
6, 134819, Note_on_c, 2, 81, 0
6, 134820, Note_on_c, 2, 86, 90
6, 134939, Note_on_c, 2, 86, 0
6, 134940, Note_on_c, 2, 86, 90
6, 135059, Note_on_c, 2, 86, 0
6, 135060, Note_on_c, 2, 84, 90
6, 135179, Note_on_c, 2, 84, 0
6, 135180, Note_on_c, 2, 83, 90
6, 135239, Note_on_c, 2, 83, 0
6, 135240, Note_on_c, 2, 81, 90
6, 135299, Note_on_c, 2, 81, 0
6, 135300, Note_on_c, 2, 81, 90
6, 135539, Note_on_c, 2, 81, 0
6, 135540, Note_on_c, 2, 79, 90
6, 135779, Note_on_c, 2, 79, 0
6, 135780, Note_on_c, 2, 79, 90
6, 135899, Note_on_c, 2, 79, 0
6, 135900, Note_on_c, 2, 79, 90
6, 136019, Note_on_c, 2, 79, 0
6, 136020, Note_on_c, 2, 81, 90
6, 136139, Note_on_c, 2, 81, 0
6, 136140, Note_on_c, 2, 79, 90
6, 136259, Note_on_c, 2, 79, 0
6, 136260, Note_on_c, 2, 81, 90
6, 136319, Note_on_c, 2, 81, 0
6, 136320, Note_on_c, 2, 83, 90
6, 136379, Note_on_c, 2, 83, 0
6, 136380, Note_on_c, 2, 84, 90
6, 136499, Note_on_c, 2, 84, 0
6, 136500, Note_on_c, 2, 84, 90
6, 136619, Note_on_c, 2, 84, 0
6, 136620, Note_on_c, 2, 83, 90
6, 136739, Note_on_c, 2, 83, 0
6, 136740, Note_on_c, 2, 84, 90
6, 136979, Note_on_c, 2, 84, 0
6, 136980, Note_on_c, 2, 86, 90
6, 137099, Note_on_c, 2, 86, 0
6, 137100, Note_on_c, 2, 88, 90
6, 137219, Note_on_c, 2, 88, 0
6, 137220, Note_on_c, 2, 84, 90
6, 137459, Note_on_c, 2, 84, 0
6, 137460, Note_on_c, 2, 83, 90
6, 137519, Note_on_c, 2, 83, 0
6, 137520, Note_on_c, 2, 84, 90
6, 137579, Note_on_c, 2, 84, 0
6, 137580, Note_on_c, 2, 86, 90
6, 137699, Note_on_c, 2, 86, 0
6, 137700, Note_on_c, 2, 81, 90
6, 137939, Note_on_c, 2, 81, 0
6, 137940, Note_on_c, 2, 86, 90
6, 138059, Note_on_c, 2, 86, 0
6, 138060, Note_on_c, 2, 86, 90
6, 138179, Note_on_c, 2, 86, 0
6, 138180, Note_on_c, 2, 84, 90
6, 138299, Note_on_c, 2, 84, 0
6, 138300, Note_on_c, 2, 83, 90
6, 138359, Note_on_c, 2, 83, 0
6, 138360, Note_on_c, 2, 81, 90
6, 138419, Note_on_c, 2, 81, 0
6, 138420, Note_on_c, 2, 81, 90
6, 138659, Note_on_c, 2, 81, 0
6, 138660, Note_on_c, 2, 79, 90
6, 138899, Note_on_c, 2, 79, 0
6, 141900, Note_on_c, 2, 78, 90
6, 141959, Note_on_c, 2, 78, 0
6, 141960, Note_on_c, 2, 80, 90
6, 142019, Note_on_c, 2, 80, 0
6, 142020, Note_on_c, 2, 81, 90
6, 142139, Note_on_c, 2, 81, 0
6, 142140, Note_on_c, 2, 80, 90
6, 142259, Note_on_c, 2, 80, 0
6, 142260, Note_on_c, 2, 78, 90
6, 142379, Note_on_c, 2, 78, 0
6, 142380, Note_on_c, 2, 78, 90
6, 142439, Note_on_c, 2, 78, 0
6, 142440, Note_on_c, 2, 80, 90
6, 142499, Note_on_c, 2, 80, 0
6, 142500, Note_on_c, 2, 81, 90
6, 142619, Note_on_c, 2, 81, 0
6, 142620, Note_on_c, 2, 80, 90
6, 142739, Note_on_c, 2, 80, 0
6, 142740, Note_on_c, 2, 78, 90
6, 142859, Note_on_c, 2, 78, 0
6, 142860, Note_on_c, 2, 85, 90
6, 142979, Note_on_c, 2, 85, 0
6, 142980, Note_on_c, 2, 83, 90
6, 143099, Note_on_c, 2, 83, 0
6, 143100, Note_on_c, 2, 81, 90
6, 143219, Note_on_c, 2, 81, 0
6, 143220, Note_on_c, 2, 80, 90
6, 143339, Note_on_c, 2, 80, 0
6, 143340, Note_on_c, 2, 80, 90
6, 143459, Note_on_c, 2, 80, 0
6, 143460, Note_on_c, 2, 81, 90
6, 143579, Note_on_c, 2, 81, 0
6, 143580, Note_on_c, 2, 81, 90
6, 143699, Note_on_c, 2, 81, 0
6, 143700, Note_on_c, 2, 83, 90
6, 143819, Note_on_c, 2, 83, 0
6, 143820, Note_on_c, 2, 83, 90
6, 143939, Note_on_c, 2, 83, 0
6, 143940, Note_on_c, 2, 85, 90
6, 144059, Note_on_c, 2, 85, 0
6, 144060, Note_on_c, 2, 85, 90
6, 144179, Note_on_c, 2, 85, 0
6, 144180, Note_on_c, 2, 83, 90
6, 144299, Note_on_c, 2, 83, 0
6, 144300, Note_on_c, 2, 81, 90
6, 144419, Note_on_c, 2, 81, 0
6, 144420, Note_on_c, 2, 80, 90
6, 144659, Note_on_c, 2, 80, 0
6, 144660, Note_on_c, 2, 73, 90
6, 144779, Note_on_c, 2, 73, 0
6, 144780, Note_on_c, 2, 85, 90
6, 144899, Note_on_c, 2, 85, 0
6, 144900, Note_on_c, 2, 83, 90
6, 145019, Note_on_c, 2, 83, 0
6, 145020, Note_on_c, 2, 81, 90
6, 145079, Note_on_c, 2, 81, 0
6, 145080, Note_on_c, 2, 80, 90
6, 145139, Note_on_c, 2, 80, 0
6, 145140, Note_on_c, 2, 80, 90
6, 145259, Note_on_c, 2, 80, 0
6, 145260, Note_on_c, 2, 85, 90
6, 145379, Note_on_c, 2, 85, 0
6, 145380, Note_on_c, 2, 83, 90
6, 145499, Note_on_c, 2, 83, 0
6, 145500, Note_on_c, 2, 81, 90
6, 145619, Note_on_c, 2, 81, 0
6, 145620, Note_on_c, 2, 80, 90
6, 145739, Note_on_c, 2, 80, 0
6, 145740, Note_on_c, 2, 80, 90
6, 145859, Note_on_c, 2, 80, 0
6, 145860, Note_on_c, 2, 81, 90
6, 145979, Note_on_c, 2, 81, 0
6, 145980, Note_on_c, 2, 81, 90
6, 146099, Note_on_c, 2, 81, 0
6, 146100, Note_on_c, 2, 83, 90
6, 146219, Note_on_c, 2, 83, 0
6, 146220, Note_on_c, 2, 83, 90
6, 146339, Note_on_c, 2, 83, 0
6, 146340, Note_on_c, 2, 85, 90
6, 146459, Note_on_c, 2, 85, 0
6, 146460, Note_on_c, 2, 85, 90
6, 146579, Note_on_c, 2, 85, 0
6, 146580, Note_on_c, 2, 83, 90
6, 146699, Note_on_c, 2, 83, 0
6, 146700, Note_on_c, 2, 81, 90
6, 146759, Note_on_c, 2, 81, 0
6, 146760, Note_on_c, 2, 80, 90
6, 146819, Note_on_c, 2, 80, 0
6, 146820, Note_on_c, 2, 80, 90
6, 147059, Note_on_c, 2, 80, 0
6, 147060, Note_on_c, 2, 78, 90
6, 147179, Note_on_c, 2, 78, 0
6, 147300, Note_on_c, 2, 78, 90
6, 147359, Note_on_c, 2, 78, 0
6, 147360, Note_on_c, 2, 78, 90
6, 147419, Note_on_c, 2, 78, 0
6, 147420, Note_on_c, 2, 78, 90
6, 147479, Note_on_c, 2, 78, 0
6, 147480, Note_on_c, 2, 78, 90
6, 147539, Note_on_c, 2, 78, 0
6, 147540, Note_on_c, 2, 74, 90
6, 147569, Note_on_c, 2, 74, 0
6, 147570, Note_on_c, 2, 76, 90
6, 147599, Note_on_c, 2, 76, 0
6, 147600, Note_on_c, 2, 78, 90
6, 147629, Note_on_c, 2, 78, 0
6, 147630, Note_on_c, 2, 79, 90
6, 147659, Note_on_c, 2, 79, 0
6, 147660, Note_on_c, 2, 81, 90
6, 147719, Note_on_c, 2, 81, 0
6, 147720, Note_on_c, 2, 79, 90
6, 147779, Note_on_c, 2, 79, 0
6, 147780, Note_on_c, 2, 78, 90
6, 147839, Note_on_c, 2, 78, 0
6, 147840, Note_on_c, 2, 79, 90
6, 147929, Note_on_c, 2, 79, 0
6, 147930, Note_on_c, 2, 81, 90
6, 147944, Note_on_c, 2, 81, 0
6, 147945, Note_on_c, 2, 83, 90
6, 147959, Note_on_c, 2, 83, 0
6, 147960, Note_on_c, 2, 81, 90
6, 148019, Note_on_c, 2, 81, 0
6, 148020, Note_on_c, 2, 79, 90
6, 148079, Note_on_c, 2, 79, 0
6, 148080, Note_on_c, 2, 79, 90
6, 148139, Note_on_c, 2, 79, 0
6, 148140, Note_on_c, 2, 79, 90
6, 148199, Note_on_c, 2, 79, 0
6, 148200, Note_on_c, 2, 79, 90
6, 148259, Note_on_c, 2, 79, 0
6, 148260, Note_on_c, 2, 76, 90
6, 148289, Note_on_c, 2, 76, 0
6, 148290, Note_on_c, 2, 74, 90
6, 148319, Note_on_c, 2, 74, 0
6, 148320, Note_on_c, 2, 76, 90
6, 148349, Note_on_c, 2, 76, 0
6, 148350, Note_on_c, 2, 78, 90
6, 148379, Note_on_c, 2, 78, 0
6, 148380, Note_on_c, 2, 79, 90
6, 148409, Note_on_c, 2, 79, 0
6, 148410, Note_on_c, 2, 78, 90
6, 148439, Note_on_c, 2, 78, 0
6, 148440, Note_on_c, 2, 81, 90
6, 148469, Note_on_c, 2, 81, 0
6, 148470, Note_on_c, 2, 79, 90
6, 148499, Note_on_c, 2, 79, 0
6, 148500, Note_on_c, 2, 78, 90
6, 148529, Note_on_c, 2, 78, 0
6, 148530, Note_on_c, 2, 76, 90
6, 148559, Note_on_c, 2, 76, 0
6, 148560, Note_on_c, 2, 78, 90
6, 148649, Note_on_c, 2, 78, 0
6, 148650, Note_on_c, 2, 79, 90
6, 148664, Note_on_c, 2, 79, 0
6, 148665, Note_on_c, 2, 81, 90
6, 148679, Note_on_c, 2, 81, 0
6, 148680, Note_on_c, 2, 79, 90
6, 148739, Note_on_c, 2, 79, 0
6, 148740, Note_on_c, 2, 78, 90
6, 148799, Note_on_c, 2, 78, 0
6, 148800, Note_on_c, 2, 80, 90
6, 148859, Note_on_c, 2, 80, 0
6, 148860, Note_on_c, 2, 81, 90
6, 148919, Note_on_c, 2, 81, 0
6, 148920, Note_on_c, 2, 83, 90
6, 148949, Note_on_c, 2, 83, 0
6, 148950, Note_on_c, 2, 85, 90
6, 148979, Note_on_c, 2, 85, 0
6, 148980, Note_on_c, 2, 86, 90
6, 149039, Note_on_c, 2, 86, 0
6, 149040, Note_on_c, 2, 85, 90
6, 149099, Note_on_c, 2, 85, 0
6, 149100, Note_on_c, 2, 83, 90
6, 149159, Note_on_c, 2, 83, 0
6, 149160, Note_on_c, 2, 81, 90
6, 149219, Note_on_c, 2, 81, 0
6, 149220, Note_on_c, 2, 80, 90
6, 149279, Note_on_c, 2, 80, 0
6, 149280, Note_on_c, 2, 81, 90
6, 149339, Note_on_c, 2, 81, 0
6, 149340, Note_on_c, 2, 73, 90
6, 149369, Note_on_c, 2, 73, 0
6, 149370, Note_on_c, 2, 71, 90
6, 149399, Note_on_c, 2, 71, 0
6, 149400, Note_on_c, 2, 73, 90
6, 149429, Note_on_c, 2, 73, 0
6, 149430, Note_on_c, 2, 74, 90
6, 149459, Note_on_c, 2, 74, 0
6, 149460, Note_on_c, 2, 76, 90
6, 149519, Note_on_c, 2, 76, 0
6, 149520, Note_on_c, 2, 79, 90
6, 149579, Note_on_c, 2, 79, 0
6, 149580, Note_on_c, 2, 78, 90
6, 149639, Note_on_c, 2, 78, 0
6, 149640, Note_on_c, 2, 76, 90
6, 149699, Note_on_c, 2, 76, 0
6, 149700, Note_on_c, 2, 69, 90
6, 149729, Note_on_c, 2, 69, 0
6, 149730, Note_on_c, 2, 68, 90
6, 149759, Note_on_c, 2, 68, 0
6, 149760, Note_on_c, 2, 69, 90
6, 149789, Note_on_c, 2, 69, 0
6, 149790, Note_on_c, 2, 71, 90
6, 149819, Note_on_c, 2, 71, 0
6, 149820, Note_on_c, 2, 73, 90
6, 149879, Note_on_c, 2, 73, 0
6, 149880, Note_on_c, 2, 76, 90
6, 149939, Note_on_c, 2, 76, 0
6, 149940, Note_on_c, 2, 74, 90
6, 149999, Note_on_c, 2, 74, 0
6, 150000, Note_on_c, 2, 73, 90
6, 150179, Note_on_c, 2, 73, 0
6, 150180, Note_on_c, 2, 74, 90
6, 150239, Note_on_c, 2, 74, 0
6, 150360, Note_on_c, 2, 78, 90
6, 150419, Note_on_c, 2, 78, 0
6, 150540, Note_on_c, 2, 81, 90
6, 150599, Note_on_c, 2, 81, 0
6, 150600, Note_on_c, 2, 83, 90
6, 150659, Note_on_c, 2, 83, 0
6, 150660, Note_on_c, 2, 85, 90
6, 150719, Note_on_c, 2, 85, 0
6, 150720, Note_on_c, 2, 86, 90
6, 150779, Note_on_c, 2, 86, 0
6, 150780, Note_on_c, 2, 85, 90
6, 150839, Note_on_c, 2, 85, 0
6, 150840, Note_on_c, 2, 86, 90
6, 150899, Note_on_c, 2, 86, 0
6, 150900, Note_on_c, 2, 88, 90
6, 150959, Note_on_c, 2, 88, 0
6, 152910, Note_on_c, 2, 69, 90
6, 152939, Note_on_c, 2, 69, 0
6, 152940, Note_on_c, 2, 81, 90
6, 152969, Note_on_c, 2, 81, 0
6, 152970, Note_on_c, 2, 78, 90
6, 152999, Note_on_c, 2, 78, 0
6, 153000, Note_on_c, 2, 79, 90
6, 153029, Note_on_c, 2, 79, 0
6, 153030, Note_on_c, 2, 76, 90
6, 153059, Note_on_c, 2, 76, 0
6, 153060, Note_on_c, 2, 78, 90
6, 153119, Note_on_c, 2, 78, 0
6, 153120, Note_on_c, 2, 78, 90
6, 153179, Note_on_c, 2, 78, 0
6, 153180, Note_on_c, 2, 78, 90
6, 153239, Note_on_c, 2, 78, 0
6, 153240, Note_on_c, 2, 78, 90
6, 153299, Note_on_c, 2, 78, 0
6, 153300, Note_on_c, 2, 74, 90
6, 153329, Note_on_c, 2, 74, 0
6, 153330, Note_on_c, 2, 76, 90
6, 153359, Note_on_c, 2, 76, 0
6, 153360, Note_on_c, 2, 78, 90
6, 153389, Note_on_c, 2, 78, 0
6, 153390, Note_on_c, 2, 79, 90
6, 153419, Note_on_c, 2, 79, 0
6, 153420, Note_on_c, 2, 81, 90
6, 153479, Note_on_c, 2, 81, 0
6, 153480, Note_on_c, 2, 79, 90
6, 153539, Note_on_c, 2, 79, 0
6, 153540, Note_on_c, 2, 78, 90
6, 153599, Note_on_c, 2, 78, 0
6, 153600, Note_on_c, 2, 79, 90
6, 153689, Note_on_c, 2, 79, 0
6, 153690, Note_on_c, 2, 81, 90
6, 153704, Note_on_c, 2, 81, 0
6, 153705, Note_on_c, 2, 83, 90
6, 153719, Note_on_c, 2, 83, 0
6, 153720, Note_on_c, 2, 81, 90
6, 153779, Note_on_c, 2, 81, 0
6, 153780, Note_on_c, 2, 79, 90
6, 153839, Note_on_c, 2, 79, 0
6, 153840, Note_on_c, 2, 79, 90
6, 153899, Note_on_c, 2, 79, 0
6, 153900, Note_on_c, 2, 79, 90
6, 153959, Note_on_c, 2, 79, 0
6, 153960, Note_on_c, 2, 79, 90
6, 154019, Note_on_c, 2, 79, 0
6, 154020, Note_on_c, 2, 76, 90
6, 154049, Note_on_c, 2, 76, 0
6, 154050, Note_on_c, 2, 74, 90
6, 154079, Note_on_c, 2, 74, 0
6, 154080, Note_on_c, 2, 76, 90
6, 154109, Note_on_c, 2, 76, 0
6, 154110, Note_on_c, 2, 78, 90
6, 154139, Note_on_c, 2, 78, 0
6, 154140, Note_on_c, 2, 79, 90
6, 154169, Note_on_c, 2, 79, 0
6, 154170, Note_on_c, 2, 78, 90
6, 154199, Note_on_c, 2, 78, 0
6, 154200, Note_on_c, 2, 81, 90
6, 154229, Note_on_c, 2, 81, 0
6, 154230, Note_on_c, 2, 79, 90
6, 154259, Note_on_c, 2, 79, 0
6, 154260, Note_on_c, 2, 78, 90
6, 154289, Note_on_c, 2, 78, 0
6, 154290, Note_on_c, 2, 76, 90
6, 154319, Note_on_c, 2, 76, 0
6, 154320, Note_on_c, 2, 78, 90
6, 154409, Note_on_c, 2, 78, 0
6, 154410, Note_on_c, 2, 79, 90
6, 154424, Note_on_c, 2, 79, 0
6, 154425, Note_on_c, 2, 81, 90
6, 154439, Note_on_c, 2, 81, 0
6, 154440, Note_on_c, 2, 79, 90
6, 154499, Note_on_c, 2, 79, 0
6, 154500, Note_on_c, 2, 78, 90
6, 154559, Note_on_c, 2, 78, 0
6, 154560, Note_on_c, 2, 80, 90
6, 154619, Note_on_c, 2, 80, 0
6, 154620, Note_on_c, 2, 81, 90
6, 154679, Note_on_c, 2, 81, 0
6, 154680, Note_on_c, 2, 83, 90
6, 154709, Note_on_c, 2, 83, 0
6, 154710, Note_on_c, 2, 85, 90
6, 154739, Note_on_c, 2, 85, 0
6, 154740, Note_on_c, 2, 86, 90
6, 154799, Note_on_c, 2, 86, 0
6, 154800, Note_on_c, 2, 85, 90
6, 154859, Note_on_c, 2, 85, 0
6, 154860, Note_on_c, 2, 83, 90
6, 154919, Note_on_c, 2, 83, 0
6, 154920, Note_on_c, 2, 81, 90
6, 154979, Note_on_c, 2, 81, 0
6, 154980, Note_on_c, 2, 80, 90
6, 155039, Note_on_c, 2, 80, 0
6, 155040, Note_on_c, 2, 81, 90
6, 155099, Note_on_c, 2, 81, 0
6, 155100, Note_on_c, 2, 73, 90
6, 155129, Note_on_c, 2, 73, 0
6, 155130, Note_on_c, 2, 71, 90
6, 155159, Note_on_c, 2, 71, 0
6, 155160, Note_on_c, 2, 73, 90
6, 155189, Note_on_c, 2, 73, 0
6, 155190, Note_on_c, 2, 74, 90
6, 155219, Note_on_c, 2, 74, 0
6, 155220, Note_on_c, 2, 76, 90
6, 155279, Note_on_c, 2, 76, 0
6, 155280, Note_on_c, 2, 79, 90
6, 155339, Note_on_c, 2, 79, 0
6, 155340, Note_on_c, 2, 78, 90
6, 155399, Note_on_c, 2, 78, 0
6, 155400, Note_on_c, 2, 76, 90
6, 155459, Note_on_c, 2, 76, 0
6, 155460, Note_on_c, 2, 69, 90
6, 155489, Note_on_c, 2, 69, 0
6, 155490, Note_on_c, 2, 68, 90
6, 155519, Note_on_c, 2, 68, 0
6, 155520, Note_on_c, 2, 69, 90
6, 155549, Note_on_c, 2, 69, 0
6, 155550, Note_on_c, 2, 71, 90
6, 155579, Note_on_c, 2, 71, 0
6, 155580, Note_on_c, 2, 73, 90
6, 155639, Note_on_c, 2, 73, 0
6, 155640, Note_on_c, 2, 76, 90
6, 155699, Note_on_c, 2, 76, 0
6, 155700, Note_on_c, 2, 74, 90
6, 155759, Note_on_c, 2, 74, 0
6, 155760, Note_on_c, 2, 73, 90
6, 155939, Note_on_c, 2, 73, 0
6, 155940, Note_on_c, 2, 73, 90
6, 155999, Note_on_c, 2, 73, 0
6, 156000, Note_on_c, 2, 73, 90
6, 156059, Note_on_c, 2, 73, 0
6, 156060, Note_on_c, 2, 73, 90
6, 156119, Note_on_c, 2, 73, 0
6, 156120, Note_on_c, 2, 73, 90
6, 156179, Note_on_c, 2, 73, 0
6, 156180, Note_on_c, 2, 76, 90
6, 156209, Note_on_c, 2, 76, 0
6, 156210, Note_on_c, 2, 74, 90
6, 156239, Note_on_c, 2, 74, 0
6, 156240, Note_on_c, 2, 73, 90
6, 156269, Note_on_c, 2, 73, 0
6, 156270, Note_on_c, 2, 71, 90
6, 156299, Note_on_c, 2, 71, 0
6, 156300, Note_on_c, 2, 69, 90
6, 156359, Note_on_c, 2, 69, 0
6, 156360, Note_on_c, 2, 74, 90
6, 156419, Note_on_c, 2, 74, 0
6, 156420, Note_on_c, 2, 76, 90
6, 156479, Note_on_c, 2, 76, 0
6, 156480, Note_on_c, 2, 78, 90
6, 156539, Note_on_c, 2, 78, 0
6, 156540, Note_on_c, 2, 76, 90
6, 156629, Note_on_c, 2, 76, 0
6, 156630, Note_on_c, 2, 78, 90
6, 156644, Note_on_c, 2, 78, 0
6, 156645, Note_on_c, 2, 79, 90
6, 156659, Note_on_c, 2, 79, 0
6, 156660, Note_on_c, 2, 78, 90
6, 156719, Note_on_c, 2, 78, 0
6, 156720, Note_on_c, 2, 78, 90
6, 156779, Note_on_c, 2, 78, 0
6, 156780, Note_on_c, 2, 78, 90
6, 156839, Note_on_c, 2, 78, 0
6, 156840, Note_on_c, 2, 78, 90
6, 156899, Note_on_c, 2, 78, 0
6, 156900, Note_on_c, 2, 81, 90
6, 156929, Note_on_c, 2, 81, 0
6, 156930, Note_on_c, 2, 79, 90
6, 156959, Note_on_c, 2, 79, 0
6, 156960, Note_on_c, 2, 78, 90
6, 156989, Note_on_c, 2, 78, 0
6, 156990, Note_on_c, 2, 76, 90
6, 157019, Note_on_c, 2, 76, 0
6, 157020, Note_on_c, 2, 74, 90
6, 157079, Note_on_c, 2, 74, 0
6, 157080, Note_on_c, 2, 79, 90
6, 157139, Note_on_c, 2, 79, 0
6, 157140, Note_on_c, 2, 81, 90
6, 157199, Note_on_c, 2, 81, 0
6, 157200, Note_on_c, 2, 83, 90
6, 157259, Note_on_c, 2, 83, 0
6, 157260, Note_on_c, 2, 81, 90
6, 157349, Note_on_c, 2, 81, 0
6, 157350, Note_on_c, 2, 83, 90
6, 157365, Note_on_c, 2, 83, 0
6, 157365, Note_on_c, 2, 84, 90
6, 157380, Note_on_c, 2, 84, 0
6, 157380, Note_on_c, 2, 83, 90
6, 157440, Note_on_c, 2, 83, 0
6, 157440, Note_on_c, 2, 81, 90
6, 157470, Note_on_c, 2, 81, 0
6, 157470, Note_on_c, 2, 79, 90
6, 157500, Note_on_c, 2, 79, 0
6, 157500, Note_on_c, 2, 78, 90
6, 157530, Note_on_c, 2, 78, 0
6, 157530, Note_on_c, 2, 76, 90
6, 157560, Note_on_c, 2, 76, 0
6, 157560, Note_on_c, 2, 81, 90
6, 157620, Note_on_c, 2, 81, 0
6, 157620, Note_on_c, 2, 74, 90
6, 157680, Note_on_c, 2, 74, 0
6, 157680, Note_on_c, 2, 79, 90
6, 157740, Note_on_c, 2, 79, 0
6, 157740, Note_on_c, 2, 78, 90
6, 157800, Note_on_c, 2, 78, 0
6, 157800, Note_on_c, 2, 79, 90
6, 157860, Note_on_c, 2, 79, 0
6, 157860, Note_on_c, 2, 76, 90
6, 157920, Note_on_c, 2, 76, 0
6, 157920, Note_on_c, 2, 74, 90
6, 157950, Note_on_c, 2, 74, 0
6, 157950, Note_on_c, 2, 76, 90
6, 157980, Note_on_c, 2, 76, 0
6, 157980, Note_on_c, 2, 78, 90
6, 158010, Note_on_c, 2, 78, 0
6, 158010, Note_on_c, 2, 76, 90
6, 158040, Note_on_c, 2, 76, 0
6, 158040, Note_on_c, 2, 78, 90
6, 158070, Note_on_c, 2, 78, 0
6, 158070, Note_on_c, 2, 79, 90
6, 158100, Note_on_c, 2, 79, 0
6, 158100, Note_on_c, 2, 81, 90
6, 158160, Note_on_c, 2, 81, 0
6, 158160, Note_on_c, 2, 84, 90
6, 158220, Note_on_c, 2, 84, 0
6, 158220, Note_on_c, 2, 83, 90
6, 158280, Note_on_c, 2, 83, 0
6, 158280, Note_on_c, 2, 81, 90
6, 158340, Note_on_c, 2, 81, 0
6, 158340, Note_on_c, 2, 69, 90
6, 158400, Note_on_c, 2, 69, 0
6, 158400, Note_on_c, 2, 71, 90
6, 158460, Note_on_c, 2, 71, 0
6, 158460, Note_on_c, 2, 72, 90
6, 158520, Note_on_c, 2, 72, 0
6, 158520, Note_on_c, 2, 71, 90
6, 158550, Note_on_c, 2, 71, 0
6, 158550, Note_on_c, 2, 69, 90
6, 158580, Note_on_c, 2, 69, 0
6, 158580, Note_on_c, 2, 71, 90
6, 158610, Note_on_c, 2, 71, 0
6, 158610, Note_on_c, 2, 73, 90
6, 158640, Note_on_c, 2, 73, 0
6, 158640, Note_on_c, 2, 74, 90
6, 158819, Note_on_c, 2, 74, 0
6, 158820, Note_on_c, 2, 73, 90
6, 158879, Note_on_c, 2, 73, 0
6, 159000, Note_on_c, 2, 76, 90
6, 159059, Note_on_c, 2, 76, 0
6, 159180, Note_on_c, 2, 78, 90
6, 159239, Note_on_c, 2, 78, 0
6, 159240, Note_on_c, 2, 80, 90
6, 159269, Note_on_c, 2, 80, 0
6, 159270, Note_on_c, 2, 81, 90
6, 159299, Note_on_c, 2, 81, 0
6, 159300, Note_on_c, 2, 83, 90
6, 159419, Note_on_c, 2, 83, 0
6, 159420, Note_on_c, 2, 83, 90
6, 159479, Note_on_c, 2, 83, 0
6, 159480, Note_on_c, 2, 82, 90
6, 159539, Note_on_c, 2, 82, 0
6, 159540, Note_on_c, 2, 83, 90
6, 159599, Note_on_c, 2, 83, 0
6, 161550, Note_on_c, 2, 64, 90
6, 161580, Note_on_c, 2, 64, 0
6, 161580, Note_on_c, 2, 76, 90
6, 161610, Note_on_c, 2, 76, 0
6, 161610, Note_on_c, 2, 73, 90
6, 161640, Note_on_c, 2, 73, 0
6, 161640, Note_on_c, 2, 74, 90
6, 161670, Note_on_c, 2, 74, 0
6, 161670, Note_on_c, 2, 71, 90
6, 161700, Note_on_c, 2, 71, 0
6, 161700, Note_on_c, 2, 73, 90
6, 161759, Note_on_c, 2, 73, 0
6, 161760, Note_on_c, 2, 73, 90
6, 161819, Note_on_c, 2, 73, 0
6, 161820, Note_on_c, 2, 73, 90
6, 161879, Note_on_c, 2, 73, 0
6, 161880, Note_on_c, 2, 73, 90
6, 161939, Note_on_c, 2, 73, 0
6, 161940, Note_on_c, 2, 76, 90
6, 161969, Note_on_c, 2, 76, 0
6, 161970, Note_on_c, 2, 74, 90
6, 161999, Note_on_c, 2, 74, 0
6, 162000, Note_on_c, 2, 73, 90
6, 162029, Note_on_c, 2, 73, 0
6, 162030, Note_on_c, 2, 71, 90
6, 162059, Note_on_c, 2, 71, 0
6, 162060, Note_on_c, 2, 69, 90
6, 162119, Note_on_c, 2, 69, 0
6, 162120, Note_on_c, 2, 74, 90
6, 162179, Note_on_c, 2, 74, 0
6, 162180, Note_on_c, 2, 76, 90
6, 162239, Note_on_c, 2, 76, 0
6, 162240, Note_on_c, 2, 78, 90
6, 162299, Note_on_c, 2, 78, 0
6, 162300, Note_on_c, 2, 76, 90
6, 162389, Note_on_c, 2, 76, 0
6, 162390, Note_on_c, 2, 78, 90
6, 162404, Note_on_c, 2, 78, 0
6, 162405, Note_on_c, 2, 79, 90
6, 162419, Note_on_c, 2, 79, 0
6, 162420, Note_on_c, 2, 78, 90
6, 162479, Note_on_c, 2, 78, 0
6, 162480, Note_on_c, 2, 78, 90
6, 162539, Note_on_c, 2, 78, 0
6, 162540, Note_on_c, 2, 78, 90
6, 162599, Note_on_c, 2, 78, 0
6, 162600, Note_on_c, 2, 78, 90
6, 162659, Note_on_c, 2, 78, 0
6, 162660, Note_on_c, 2, 81, 90
6, 162689, Note_on_c, 2, 81, 0
6, 162690, Note_on_c, 2, 79, 90
6, 162719, Note_on_c, 2, 79, 0
6, 162720, Note_on_c, 2, 78, 90
6, 162749, Note_on_c, 2, 78, 0
6, 162750, Note_on_c, 2, 76, 90
6, 162779, Note_on_c, 2, 76, 0
6, 162780, Note_on_c, 2, 74, 90
6, 162839, Note_on_c, 2, 74, 0
6, 162840, Note_on_c, 2, 79, 90
6, 162899, Note_on_c, 2, 79, 0
6, 162900, Note_on_c, 2, 81, 90
6, 162959, Note_on_c, 2, 81, 0
6, 162960, Note_on_c, 2, 83, 90
6, 163019, Note_on_c, 2, 83, 0
6, 163020, Note_on_c, 2, 81, 90
6, 163109, Note_on_c, 2, 81, 0
6, 163110, Note_on_c, 2, 83, 90
6, 163125, Note_on_c, 2, 83, 0
6, 163125, Note_on_c, 2, 84, 90
6, 163140, Note_on_c, 2, 84, 0
6, 163140, Note_on_c, 2, 83, 90
6, 163200, Note_on_c, 2, 83, 0
6, 163200, Note_on_c, 2, 81, 90
6, 163230, Note_on_c, 2, 81, 0
6, 163230, Note_on_c, 2, 79, 90
6, 163260, Note_on_c, 2, 79, 0
6, 163260, Note_on_c, 2, 78, 90
6, 163290, Note_on_c, 2, 78, 0
6, 163290, Note_on_c, 2, 76, 90
6, 163320, Note_on_c, 2, 76, 0
6, 163320, Note_on_c, 2, 81, 90
6, 163380, Note_on_c, 2, 81, 0
6, 163380, Note_on_c, 2, 74, 90
6, 163440, Note_on_c, 2, 74, 0
6, 163440, Note_on_c, 2, 79, 90
6, 163500, Note_on_c, 2, 79, 0
6, 163500, Note_on_c, 2, 78, 90
6, 163560, Note_on_c, 2, 78, 0
6, 163560, Note_on_c, 2, 79, 90
6, 163620, Note_on_c, 2, 79, 0
6, 163620, Note_on_c, 2, 76, 90
6, 163680, Note_on_c, 2, 76, 0
6, 163680, Note_on_c, 2, 74, 90
6, 163710, Note_on_c, 2, 74, 0
6, 163710, Note_on_c, 2, 76, 90
6, 163740, Note_on_c, 2, 76, 0
6, 163740, Note_on_c, 2, 78, 90
6, 163770, Note_on_c, 2, 78, 0
6, 163770, Note_on_c, 2, 76, 90
6, 163800, Note_on_c, 2, 76, 0
6, 163800, Note_on_c, 2, 78, 90
6, 163830, Note_on_c, 2, 78, 0
6, 163830, Note_on_c, 2, 79, 90
6, 163860, Note_on_c, 2, 79, 0
6, 163860, Note_on_c, 2, 81, 90
6, 163920, Note_on_c, 2, 81, 0
6, 163920, Note_on_c, 2, 84, 90
6, 163980, Note_on_c, 2, 84, 0
6, 163980, Note_on_c, 2, 83, 90
6, 164040, Note_on_c, 2, 83, 0
6, 164040, Note_on_c, 2, 81, 90
6, 164100, Note_on_c, 2, 81, 0
6, 164100, Note_on_c, 2, 69, 90
6, 164160, Note_on_c, 2, 69, 0
6, 164160, Note_on_c, 2, 71, 90
6, 164220, Note_on_c, 2, 71, 0
6, 164220, Note_on_c, 2, 72, 90
6, 164280, Note_on_c, 2, 72, 0
6, 164280, Note_on_c, 2, 71, 90
6, 164310, Note_on_c, 2, 71, 0
6, 164310, Note_on_c, 2, 69, 90
6, 164340, Note_on_c, 2, 69, 0
6, 164340, Note_on_c, 2, 71, 90
6, 164370, Note_on_c, 2, 71, 0
6, 164370, Note_on_c, 2, 73, 90
6, 164400, Note_on_c, 2, 73, 0
6, 164400, Note_on_c, 2, 74, 90
6, 164579, Note_on_c, 2, 74, 0
6, 164579, End_track
7, 0, Start_track
7, 0, MIDI_port, 0
7, 0, Title_t, "flauta ii"
7, 0, Program_c, 3, 73
7, 0, Control_c, 3, 7, 127
7, 0, Control_c, 3, 10, 43
7, 0, Note_on_c, 3, 78, 90
7, 59, Note_on_c, 3, 78, 0
7, 60, Note_on_c, 3, 78, 90
7, 119, Note_on_c, 3, 78, 0
7, 120, Note_on_c, 3, 78, 90
7, 179, Note_on_c, 3, 78, 0
7, 180, Note_on_c, 3, 78, 90
7, 239, Note_on_c, 3, 78, 0
7, 240, Note_on_c, 3, 74, 90
7, 269, Note_on_c, 3, 74, 0
7, 270, Note_on_c, 3, 76, 90
7, 299, Note_on_c, 3, 76, 0
7, 300, Note_on_c, 3, 78, 90
7, 329, Note_on_c, 3, 78, 0
7, 330, Note_on_c, 3, 79, 90
7, 359, Note_on_c, 3, 79, 0
7, 360, Note_on_c, 3, 81, 90
7, 419, Note_on_c, 3, 81, 0
7, 420, Note_on_c, 3, 79, 90
7, 479, Note_on_c, 3, 79, 0
7, 480, Note_on_c, 3, 78, 90
7, 539, Note_on_c, 3, 78, 0
7, 540, Note_on_c, 3, 79, 90
7, 629, Note_on_c, 3, 79, 0
7, 630, Note_on_c, 3, 81, 90
7, 644, Note_on_c, 3, 81, 0
7, 645, Note_on_c, 3, 83, 90
7, 659, Note_on_c, 3, 83, 0
7, 660, Note_on_c, 3, 81, 90
7, 719, Note_on_c, 3, 81, 0
7, 720, Note_on_c, 3, 79, 90
7, 779, Note_on_c, 3, 79, 0
7, 780, Note_on_c, 3, 79, 90
7, 839, Note_on_c, 3, 79, 0
7, 840, Note_on_c, 3, 79, 90
7, 899, Note_on_c, 3, 79, 0
7, 900, Note_on_c, 3, 79, 90
7, 959, Note_on_c, 3, 79, 0
7, 960, Note_on_c, 3, 76, 90
7, 989, Note_on_c, 3, 76, 0
7, 990, Note_on_c, 3, 74, 90
7, 1019, Note_on_c, 3, 74, 0
7, 1020, Note_on_c, 3, 76, 90
7, 1049, Note_on_c, 3, 76, 0
7, 1050, Note_on_c, 3, 78, 90
7, 1079, Note_on_c, 3, 78, 0
7, 1080, Note_on_c, 3, 79, 90
7, 1109, Note_on_c, 3, 79, 0
7, 1110, Note_on_c, 3, 78, 90
7, 1139, Note_on_c, 3, 78, 0
7, 1140, Note_on_c, 3, 81, 90
7, 1169, Note_on_c, 3, 81, 0
7, 1170, Note_on_c, 3, 79, 90
7, 1199, Note_on_c, 3, 79, 0
7, 1200, Note_on_c, 3, 78, 90
7, 1229, Note_on_c, 3, 78, 0
7, 1230, Note_on_c, 3, 76, 90
7, 1259, Note_on_c, 3, 76, 0
7, 1260, Note_on_c, 3, 78, 90
7, 1349, Note_on_c, 3, 78, 0
7, 1350, Note_on_c, 3, 79, 90
7, 1364, Note_on_c, 3, 79, 0
7, 1365, Note_on_c, 3, 81, 90
7, 1379, Note_on_c, 3, 81, 0
7, 1380, Note_on_c, 3, 79, 90
7, 1439, Note_on_c, 3, 79, 0
7, 1440, Note_on_c, 3, 78, 90
7, 1499, Note_on_c, 3, 78, 0
7, 1500, Note_on_c, 3, 80, 90
7, 1559, Note_on_c, 3, 80, 0
7, 1560, Note_on_c, 3, 81, 90
7, 1619, Note_on_c, 3, 81, 0
7, 1620, Note_on_c, 3, 83, 90
7, 1649, Note_on_c, 3, 83, 0
7, 1650, Note_on_c, 3, 85, 90
7, 1679, Note_on_c, 3, 85, 0
7, 1680, Note_on_c, 3, 86, 90
7, 1739, Note_on_c, 3, 86, 0
7, 1740, Note_on_c, 3, 85, 90
7, 1799, Note_on_c, 3, 85, 0
7, 1800, Note_on_c, 3, 83, 90
7, 1859, Note_on_c, 3, 83, 0
7, 1860, Note_on_c, 3, 81, 90
7, 1919, Note_on_c, 3, 81, 0
7, 1920, Note_on_c, 3, 80, 90
7, 1979, Note_on_c, 3, 80, 0
7, 2040, Note_on_c, 3, 69, 90
7, 2069, Note_on_c, 3, 69, 0
7, 2070, Note_on_c, 3, 68, 90
7, 2099, Note_on_c, 3, 68, 0
7, 2100, Note_on_c, 3, 69, 90
7, 2129, Note_on_c, 3, 69, 0
7, 2130, Note_on_c, 3, 71, 90
7, 2159, Note_on_c, 3, 71, 0
7, 2160, Note_on_c, 3, 73, 90
7, 2219, Note_on_c, 3, 73, 0
7, 2220, Note_on_c, 3, 76, 90
7, 2279, Note_on_c, 3, 76, 0
7, 2280, Note_on_c, 3, 74, 90
7, 2339, Note_on_c, 3, 74, 0
7, 2340, Note_on_c, 3, 76, 90
7, 2399, Note_on_c, 3, 76, 0
7, 2520, Note_on_c, 3, 73, 90
7, 2579, Note_on_c, 3, 73, 0
7, 2580, Note_on_c, 3, 76, 90
7, 2639, Note_on_c, 3, 76, 0
7, 2640, Note_on_c, 3, 74, 90
7, 2699, Note_on_c, 3, 74, 0
7, 2700, Note_on_c, 3, 73, 90
7, 2879, Note_on_c, 3, 73, 0
7, 2880, Note_on_c, 3, 66, 100
7, 2940, Note_on_c, 3, 66, 0
7, 3060, Note_on_c, 3, 71, 100
7, 3120, Note_on_c, 3, 71, 0
7, 3240, Note_on_c, 3, 78, 100
7, 3300, Note_on_c, 3, 78, 0
7, 3300, Note_on_c, 3, 76, 100
7, 3330, Note_on_c, 3, 76, 0
7, 3330, Note_on_c, 3, 74, 100
7, 3360, Note_on_c, 3, 74, 0
7, 3360, Note_on_c, 3, 73, 100
7, 3390, Note_on_c, 3, 73, 0
7, 3390, Note_on_c, 3, 71, 100
7, 3420, Note_on_c, 3, 71, 0
7, 3420, Note_on_c, 3, 69, 100
7, 3480, Note_on_c, 3, 69, 0
7, 3480, Note_on_c, 3, 67, 100
7, 3540, Note_on_c, 3, 67, 0
7, 3540, Note_on_c, 3, 66, 100
7, 3600, Note_on_c, 3, 66, 0
7, 3600, Note_on_c, 3, 64, 100
7, 3660, Note_on_c, 3, 64, 0
7, 5610, Note_on_c, 3, 69, 90
7, 5639, Note_on_c, 3, 69, 0
7, 5640, Note_on_c, 3, 78, 90
7, 5669, Note_on_c, 3, 78, 0
7, 5670, Note_on_c, 3, 74, 90
7, 5699, Note_on_c, 3, 74, 0
7, 5700, Note_on_c, 3, 76, 90
7, 5729, Note_on_c, 3, 76, 0
7, 5730, Note_on_c, 3, 73, 90
7, 5759, Note_on_c, 3, 73, 0
7, 5760, Note_on_c, 3, 74, 90
7, 5789, Note_on_c, 3, 74, 0
7, 5790, Note_on_c, 3, 76, 90
7, 5819, Note_on_c, 3, 76, 0
7, 5820, Note_on_c, 3, 78, 90
7, 5879, Note_on_c, 3, 78, 0
7, 5880, Note_on_c, 3, 78, 90
7, 5939, Note_on_c, 3, 78, 0
7, 5940, Note_on_c, 3, 78, 90
7, 5999, Note_on_c, 3, 78, 0
7, 6000, Note_on_c, 3, 74, 90
7, 6029, Note_on_c, 3, 74, 0
7, 6030, Note_on_c, 3, 76, 90
7, 6059, Note_on_c, 3, 76, 0
7, 6060, Note_on_c, 3, 78, 90
7, 6089, Note_on_c, 3, 78, 0
7, 6090, Note_on_c, 3, 79, 90
7, 6119, Note_on_c, 3, 79, 0
7, 6120, Note_on_c, 3, 81, 90
7, 6179, Note_on_c, 3, 81, 0
7, 6180, Note_on_c, 3, 79, 90
7, 6239, Note_on_c, 3, 79, 0
7, 6240, Note_on_c, 3, 78, 90
7, 6299, Note_on_c, 3, 78, 0
7, 6300, Note_on_c, 3, 79, 90
7, 6389, Note_on_c, 3, 79, 0
7, 6390, Note_on_c, 3, 81, 90
7, 6404, Note_on_c, 3, 81, 0
7, 6405, Note_on_c, 3, 83, 90
7, 6419, Note_on_c, 3, 83, 0
7, 6420, Note_on_c, 3, 81, 90
7, 6479, Note_on_c, 3, 81, 0
7, 6480, Note_on_c, 3, 79, 90
7, 6539, Note_on_c, 3, 79, 0
7, 6540, Note_on_c, 3, 79, 90
7, 6599, Note_on_c, 3, 79, 0
7, 6600, Note_on_c, 3, 79, 90
7, 6659, Note_on_c, 3, 79, 0
7, 6660, Note_on_c, 3, 79, 90
7, 6719, Note_on_c, 3, 79, 0
7, 6720, Note_on_c, 3, 76, 90
7, 6749, Note_on_c, 3, 76, 0
7, 6750, Note_on_c, 3, 74, 90
7, 6779, Note_on_c, 3, 74, 0
7, 6780, Note_on_c, 3, 76, 90
7, 6809, Note_on_c, 3, 76, 0
7, 6810, Note_on_c, 3, 78, 90
7, 6839, Note_on_c, 3, 78, 0
7, 6840, Note_on_c, 3, 79, 90
7, 6869, Note_on_c, 3, 79, 0
7, 6870, Note_on_c, 3, 78, 90
7, 6899, Note_on_c, 3, 78, 0
7, 6900, Note_on_c, 3, 81, 90
7, 6929, Note_on_c, 3, 81, 0
7, 6930, Note_on_c, 3, 79, 90
7, 6959, Note_on_c, 3, 79, 0
7, 6960, Note_on_c, 3, 78, 90
7, 6989, Note_on_c, 3, 78, 0
7, 6990, Note_on_c, 3, 76, 90
7, 7019, Note_on_c, 3, 76, 0
7, 7020, Note_on_c, 3, 78, 90
7, 7109, Note_on_c, 3, 78, 0
7, 7110, Note_on_c, 3, 79, 90
7, 7124, Note_on_c, 3, 79, 0
7, 7125, Note_on_c, 3, 81, 90
7, 7139, Note_on_c, 3, 81, 0
7, 7140, Note_on_c, 3, 79, 90
7, 7199, Note_on_c, 3, 79, 0
7, 7200, Note_on_c, 3, 78, 90
7, 7259, Note_on_c, 3, 78, 0
7, 7260, Note_on_c, 3, 80, 90
7, 7319, Note_on_c, 3, 80, 0
7, 7320, Note_on_c, 3, 81, 90
7, 7379, Note_on_c, 3, 81, 0
7, 7380, Note_on_c, 3, 83, 90
7, 7409, Note_on_c, 3, 83, 0
7, 7410, Note_on_c, 3, 85, 90
7, 7439, Note_on_c, 3, 85, 0
7, 7440, Note_on_c, 3, 86, 90
7, 7499, Note_on_c, 3, 86, 0
7, 7500, Note_on_c, 3, 85, 90
7, 7559, Note_on_c, 3, 85, 0
7, 7560, Note_on_c, 3, 83, 90
7, 7619, Note_on_c, 3, 83, 0
7, 7620, Note_on_c, 3, 81, 90
7, 7679, Note_on_c, 3, 81, 0
7, 7680, Note_on_c, 3, 80, 90
7, 7739, Note_on_c, 3, 80, 0
7, 7740, Note_on_c, 3, 81, 90
7, 7799, Note_on_c, 3, 81, 0
7, 7800, Note_on_c, 3, 69, 90
7, 7829, Note_on_c, 3, 69, 0
7, 7830, Note_on_c, 3, 68, 90
7, 7859, Note_on_c, 3, 68, 0
7, 7860, Note_on_c, 3, 69, 90
7, 7889, Note_on_c, 3, 69, 0
7, 7890, Note_on_c, 3, 71, 90
7, 7919, Note_on_c, 3, 71, 0
7, 7920, Note_on_c, 3, 73, 90
7, 7979, Note_on_c, 3, 73, 0
7, 7980, Note_on_c, 3, 76, 90
7, 8039, Note_on_c, 3, 76, 0
7, 8040, Note_on_c, 3, 74, 90
7, 8099, Note_on_c, 3, 74, 0
7, 8100, Note_on_c, 3, 73, 90
7, 8159, Note_on_c, 3, 73, 0
7, 8160, Note_on_c, 3, 69, 90
7, 8189, Note_on_c, 3, 69, 0
7, 8190, Note_on_c, 3, 68, 90
7, 8219, Note_on_c, 3, 68, 0
7, 8220, Note_on_c, 3, 69, 90
7, 8249, Note_on_c, 3, 69, 0
7, 8250, Note_on_c, 3, 71, 90
7, 8279, Note_on_c, 3, 71, 0
7, 8280, Note_on_c, 3, 73, 90
7, 8339, Note_on_c, 3, 73, 0
7, 8340, Note_on_c, 3, 76, 90
7, 8399, Note_on_c, 3, 76, 0
7, 8400, Note_on_c, 3, 74, 90
7, 8459, Note_on_c, 3, 74, 0
7, 8460, Note_on_c, 3, 73, 90
7, 8639, Note_on_c, 3, 73, 0
7, 8640, Note_on_c, 3, 73, 90
7, 8699, Note_on_c, 3, 73, 0
7, 8700, Note_on_c, 3, 73, 90
7, 8759, Note_on_c, 3, 73, 0
7, 8760, Note_on_c, 3, 73, 90
7, 8819, Note_on_c, 3, 73, 0
7, 8820, Note_on_c, 3, 73, 90
7, 8879, Note_on_c, 3, 73, 0
7, 8880, Note_on_c, 3, 76, 90
7, 8909, Note_on_c, 3, 76, 0
7, 8910, Note_on_c, 3, 74, 90
7, 8939, Note_on_c, 3, 74, 0
7, 8940, Note_on_c, 3, 73, 90
7, 8969, Note_on_c, 3, 73, 0
7, 8970, Note_on_c, 3, 71, 90
7, 8999, Note_on_c, 3, 71, 0
7, 9000, Note_on_c, 3, 69, 90
7, 9059, Note_on_c, 3, 69, 0
7, 9060, Note_on_c, 3, 74, 90
7, 9119, Note_on_c, 3, 74, 0
7, 9120, Note_on_c, 3, 76, 90
7, 9179, Note_on_c, 3, 76, 0
7, 9180, Note_on_c, 3, 78, 90
7, 9239, Note_on_c, 3, 78, 0
7, 9240, Note_on_c, 3, 76, 90
7, 9329, Note_on_c, 3, 76, 0
7, 9330, Note_on_c, 3, 78, 90
7, 9344, Note_on_c, 3, 78, 0
7, 9345, Note_on_c, 3, 79, 90
7, 9359, Note_on_c, 3, 79, 0
7, 9360, Note_on_c, 3, 78, 90
7, 9419, Note_on_c, 3, 78, 0
7, 9420, Note_on_c, 3, 78, 90
7, 9479, Note_on_c, 3, 78, 0
7, 9480, Note_on_c, 3, 78, 90
7, 9539, Note_on_c, 3, 78, 0
7, 9540, Note_on_c, 3, 78, 90
7, 9599, Note_on_c, 3, 78, 0
7, 9600, Note_on_c, 3, 81, 90
7, 9629, Note_on_c, 3, 81, 0
7, 9630, Note_on_c, 3, 79, 90
7, 9659, Note_on_c, 3, 79, 0
7, 9660, Note_on_c, 3, 78, 90
7, 9689, Note_on_c, 3, 78, 0
7, 9690, Note_on_c, 3, 76, 90
7, 9719, Note_on_c, 3, 76, 0
7, 9720, Note_on_c, 3, 74, 90
7, 9779, Note_on_c, 3, 74, 0
7, 9780, Note_on_c, 3, 79, 90
7, 9839, Note_on_c, 3, 79, 0
7, 9840, Note_on_c, 3, 81, 90
7, 9899, Note_on_c, 3, 81, 0
7, 9900, Note_on_c, 3, 83, 90
7, 9959, Note_on_c, 3, 83, 0
7, 9960, Note_on_c, 3, 81, 90
7, 10049, Note_on_c, 3, 81, 0
7, 10050, Note_on_c, 3, 83, 90
7, 10065, Note_on_c, 3, 83, 0
7, 10065, Note_on_c, 3, 84, 90
7, 10080, Note_on_c, 3, 84, 0
7, 10080, Note_on_c, 3, 83, 90
7, 10140, Note_on_c, 3, 83, 0
7, 10140, Note_on_c, 3, 81, 90
7, 10170, Note_on_c, 3, 81, 0
7, 10170, Note_on_c, 3, 79, 90
7, 10200, Note_on_c, 3, 79, 0
7, 10200, Note_on_c, 3, 78, 90
7, 10230, Note_on_c, 3, 78, 0
7, 10230, Note_on_c, 3, 76, 90
7, 10260, Note_on_c, 3, 76, 0
7, 10260, Note_on_c, 3, 81, 90
7, 10320, Note_on_c, 3, 81, 0
7, 10320, Note_on_c, 3, 74, 90
7, 10380, Note_on_c, 3, 74, 0
7, 10380, Note_on_c, 3, 79, 90
7, 10440, Note_on_c, 3, 79, 0
7, 10440, Note_on_c, 3, 78, 90
7, 10500, Note_on_c, 3, 78, 0
7, 10500, Note_on_c, 3, 79, 90
7, 10560, Note_on_c, 3, 79, 0
7, 10560, Note_on_c, 3, 76, 90
7, 10620, Note_on_c, 3, 76, 0
7, 10620, Note_on_c, 3, 74, 90
7, 10650, Note_on_c, 3, 74, 0
7, 10650, Note_on_c, 3, 76, 90
7, 10680, Note_on_c, 3, 76, 0
7, 10680, Note_on_c, 3, 74, 90
7, 10710, Note_on_c, 3, 74, 0
7, 10710, Note_on_c, 3, 73, 90
7, 10740, Note_on_c, 3, 73, 0
7, 10740, Note_on_c, 3, 74, 90
7, 10770, Note_on_c, 3, 74, 0
7, 10770, Note_on_c, 3, 76, 90
7, 10800, Note_on_c, 3, 76, 0
7, 10800, Note_on_c, 3, 78, 90
7, 10860, Note_on_c, 3, 78, 0
7, 10860, Note_on_c, 3, 81, 90
7, 10920, Note_on_c, 3, 81, 0
7, 10920, Note_on_c, 3, 79, 90
7, 10980, Note_on_c, 3, 79, 0
7, 10980, Note_on_c, 3, 78, 90
7, 11040, Note_on_c, 3, 78, 0
7, 11040, Note_on_c, 3, 69, 90
7, 11100, Note_on_c, 3, 69, 0
7, 11100, Note_on_c, 3, 71, 90
7, 11160, Note_on_c, 3, 71, 0
7, 11160, Note_on_c, 3, 72, 90
7, 11220, Note_on_c, 3, 72, 0
7, 11220, Note_on_c, 3, 71, 90
7, 11250, Note_on_c, 3, 71, 0
7, 11250, Note_on_c, 3, 69, 90
7, 11280, Note_on_c, 3, 69, 0
7, 11280, Note_on_c, 3, 71, 90
7, 11310, Note_on_c, 3, 71, 0
7, 11310, Note_on_c, 3, 73, 90
7, 11340, Note_on_c, 3, 73, 0
7, 11340, Note_on_c, 3, 74, 90
7, 11519, Note_on_c, 3, 74, 0
7, 11520, Note_on_c, 3, 69, 90
7, 11579, Note_on_c, 3, 69, 0
7, 11700, Note_on_c, 3, 81, 90
7, 11759, Note_on_c, 3, 81, 0
7, 11880, Note_on_c, 3, 69, 90
7, 11939, Note_on_c, 3, 69, 0
7, 11940, Note_on_c, 3, 73, 90
7, 11999, Note_on_c, 3, 73, 0
7, 12000, Note_on_c, 3, 74, 90
7, 12119, Note_on_c, 3, 74, 0
7, 12120, Note_on_c, 3, 79, 90
7, 12179, Note_on_c, 3, 79, 0
7, 12180, Note_on_c, 3, 78, 90
7, 12239, Note_on_c, 3, 78, 0
7, 12240, Note_on_c, 3, 78, 90
7, 12299, Note_on_c, 3, 78, 0
7, 14250, Note_on_c, 3, 76, 90
7, 14280, Note_on_c, 3, 76, 0
7, 14280, Note_on_c, 3, 73, 90
7, 14310, Note_on_c, 3, 73, 0
7, 14310, Note_on_c, 3, 69, 90
7, 14340, Note_on_c, 3, 69, 0
7, 14340, Note_on_c, 3, 71, 90
7, 14370, Note_on_c, 3, 71, 0
7, 14370, Note_on_c, 3, 68, 90
7, 14400, Note_on_c, 3, 68, 0
7, 14400, Note_on_c, 3, 69, 90
7, 14430, Note_on_c, 3, 69, 0
7, 14430, Note_on_c, 3, 71, 90
7, 14460, Note_on_c, 3, 71, 0
7, 14460, Note_on_c, 3, 73, 90
7, 14519, Note_on_c, 3, 73, 0
7, 14520, Note_on_c, 3, 73, 90
7, 14579, Note_on_c, 3, 73, 0
7, 14580, Note_on_c, 3, 73, 90
7, 14639, Note_on_c, 3, 73, 0
7, 14640, Note_on_c, 3, 76, 90
7, 14669, Note_on_c, 3, 76, 0
7, 14670, Note_on_c, 3, 74, 90
7, 14699, Note_on_c, 3, 74, 0
7, 14700, Note_on_c, 3, 73, 90
7, 14729, Note_on_c, 3, 73, 0
7, 14730, Note_on_c, 3, 71, 90
7, 14759, Note_on_c, 3, 71, 0
7, 14760, Note_on_c, 3, 69, 90
7, 14819, Note_on_c, 3, 69, 0
7, 14820, Note_on_c, 3, 74, 90
7, 14879, Note_on_c, 3, 74, 0
7, 14880, Note_on_c, 3, 76, 90
7, 14939, Note_on_c, 3, 76, 0
7, 14940, Note_on_c, 3, 78, 90
7, 14999, Note_on_c, 3, 78, 0
7, 15000, Note_on_c, 3, 76, 90
7, 15089, Note_on_c, 3, 76, 0
7, 15090, Note_on_c, 3, 78, 90
7, 15104, Note_on_c, 3, 78, 0
7, 15105, Note_on_c, 3, 79, 90
7, 15119, Note_on_c, 3, 79, 0
7, 15120, Note_on_c, 3, 78, 90
7, 15179, Note_on_c, 3, 78, 0
7, 15180, Note_on_c, 3, 78, 90
7, 15239, Note_on_c, 3, 78, 0
7, 15240, Note_on_c, 3, 78, 90
7, 15299, Note_on_c, 3, 78, 0
7, 15300, Note_on_c, 3, 78, 90
7, 15359, Note_on_c, 3, 78, 0
7, 15360, Note_on_c, 3, 81, 90
7, 15389, Note_on_c, 3, 81, 0
7, 15390, Note_on_c, 3, 79, 90
7, 15419, Note_on_c, 3, 79, 0
7, 15420, Note_on_c, 3, 78, 90
7, 15449, Note_on_c, 3, 78, 0
7, 15450, Note_on_c, 3, 76, 90
7, 15479, Note_on_c, 3, 76, 0
7, 15480, Note_on_c, 3, 74, 90
7, 15539, Note_on_c, 3, 74, 0
7, 15540, Note_on_c, 3, 79, 90
7, 15599, Note_on_c, 3, 79, 0
7, 15600, Note_on_c, 3, 81, 90
7, 15659, Note_on_c, 3, 81, 0
7, 15660, Note_on_c, 3, 83, 90
7, 15719, Note_on_c, 3, 83, 0
7, 15720, Note_on_c, 3, 81, 90
7, 15809, Note_on_c, 3, 81, 0
7, 15810, Note_on_c, 3, 83, 90
7, 15825, Note_on_c, 3, 83, 0
7, 15825, Note_on_c, 3, 84, 90
7, 15840, Note_on_c, 3, 84, 0
7, 15840, Note_on_c, 3, 83, 90
7, 15900, Note_on_c, 3, 83, 0
7, 15900, Note_on_c, 3, 81, 90
7, 15930, Note_on_c, 3, 81, 0
7, 15930, Note_on_c, 3, 79, 90
7, 15960, Note_on_c, 3, 79, 0
7, 15960, Note_on_c, 3, 78, 90
7, 15990, Note_on_c, 3, 78, 0
7, 15990, Note_on_c, 3, 76, 90
7, 16020, Note_on_c, 3, 76, 0
7, 16020, Note_on_c, 3, 81, 90
7, 16080, Note_on_c, 3, 81, 0
7, 16080, Note_on_c, 3, 74, 90
7, 16140, Note_on_c, 3, 74, 0
7, 16140, Note_on_c, 3, 79, 90
7, 16200, Note_on_c, 3, 79, 0
7, 16200, Note_on_c, 3, 78, 90
7, 16260, Note_on_c, 3, 78, 0
7, 16260, Note_on_c, 3, 79, 90
7, 16320, Note_on_c, 3, 79, 0
7, 16320, Note_on_c, 3, 76, 90
7, 16380, Note_on_c, 3, 76, 0
7, 16380, Note_on_c, 3, 74, 90
7, 16410, Note_on_c, 3, 74, 0
7, 16410, Note_on_c, 3, 76, 90
7, 16440, Note_on_c, 3, 76, 0
7, 16440, Note_on_c, 3, 74, 90
7, 16470, Note_on_c, 3, 74, 0
7, 16470, Note_on_c, 3, 73, 90
7, 16500, Note_on_c, 3, 73, 0
7, 16500, Note_on_c, 3, 74, 90
7, 16530, Note_on_c, 3, 74, 0
7, 16530, Note_on_c, 3, 76, 90
7, 16560, Note_on_c, 3, 76, 0
7, 16560, Note_on_c, 3, 78, 90
7, 16620, Note_on_c, 3, 78, 0
7, 16620, Note_on_c, 3, 81, 90
7, 16680, Note_on_c, 3, 81, 0
7, 16680, Note_on_c, 3, 79, 90
7, 16740, Note_on_c, 3, 79, 0
7, 16740, Note_on_c, 3, 78, 90
7, 16800, Note_on_c, 3, 78, 0
7, 16800, Note_on_c, 3, 69, 90
7, 16860, Note_on_c, 3, 69, 0
7, 16860, Note_on_c, 3, 71, 90
7, 16920, Note_on_c, 3, 71, 0
7, 16920, Note_on_c, 3, 72, 90
7, 16980, Note_on_c, 3, 72, 0
7, 16980, Note_on_c, 3, 71, 90
7, 17010, Note_on_c, 3, 71, 0
7, 17010, Note_on_c, 3, 69, 90
7, 17040, Note_on_c, 3, 69, 0
7, 17040, Note_on_c, 3, 71, 90
7, 17070, Note_on_c, 3, 71, 0
7, 17070, Note_on_c, 3, 73, 90
7, 17100, Note_on_c, 3, 73, 0
7, 17100, Note_on_c, 3, 74, 90
7, 17279, Note_on_c, 3, 74, 0
7, 18900, Note_on_c, 3, 81, 90
7, 18959, Note_on_c, 3, 81, 0
7, 18960, Note_on_c, 3, 80, 90
7, 18989, Note_on_c, 3, 80, 0
7, 18990, Note_on_c, 3, 78, 90
7, 19019, Note_on_c, 3, 78, 0
7, 19020, Note_on_c, 3, 76, 90
7, 19049, Note_on_c, 3, 76, 0
7, 19050, Note_on_c, 3, 74, 90
7, 19079, Note_on_c, 3, 74, 0
7, 19080, Note_on_c, 3, 73, 90
7, 19109, Note_on_c, 3, 73, 0
7, 19110, Note_on_c, 3, 71, 90
7, 19139, Note_on_c, 3, 71, 0
7, 19140, Note_on_c, 3, 69, 90
7, 19169, Note_on_c, 3, 69, 0
7, 19170, Note_on_c, 3, 76, 90
7, 19199, Note_on_c, 3, 76, 0
7, 19200, Note_on_c, 3, 74, 90
7, 19229, Note_on_c, 3, 74, 0
7, 19230, Note_on_c, 3, 73, 90
7, 19259, Note_on_c, 3, 73, 0
7, 19260, Note_on_c, 3, 71, 90
7, 19289, Note_on_c, 3, 71, 0
7, 19290, Note_on_c, 3, 74, 90
7, 19319, Note_on_c, 3, 74, 0
7, 19320, Note_on_c, 3, 73, 90
7, 19349, Note_on_c, 3, 73, 0
7, 19350, Note_on_c, 3, 71, 90
7, 19379, Note_on_c, 3, 71, 0
7, 19380, Note_on_c, 3, 73, 90
7, 19409, Note_on_c, 3, 73, 0
7, 19410, Note_on_c, 3, 69, 90
7, 19439, Note_on_c, 3, 69, 0
7, 19440, Note_on_c, 3, 71, 90
7, 19469, Note_on_c, 3, 71, 0
7, 19470, Note_on_c, 3, 73, 90
7, 19499, Note_on_c, 3, 73, 0
7, 19500, Note_on_c, 3, 74, 90
7, 19529, Note_on_c, 3, 74, 0
7, 19530, Note_on_c, 3, 76, 90
7, 19559, Note_on_c, 3, 76, 0
7, 19560, Note_on_c, 3, 78, 90
7, 19589, Note_on_c, 3, 78, 0
7, 19590, Note_on_c, 3, 79, 90
7, 19619, Note_on_c, 3, 79, 0
7, 19620, Note_on_c, 3, 81, 90
7, 19649, Note_on_c, 3, 81, 0
7, 19650, Note_on_c, 3, 79, 90
7, 19679, Note_on_c, 3, 79, 0
7, 19680, Note_on_c, 3, 78, 90
7, 19709, Note_on_c, 3, 78, 0
7, 19710, Note_on_c, 3, 76, 90
7, 19739, Note_on_c, 3, 76, 0
7, 19740, Note_on_c, 3, 74, 90
7, 19769, Note_on_c, 3, 74, 0
7, 19770, Note_on_c, 3, 73, 90
7, 19799, Note_on_c, 3, 73, 0
7, 19800, Note_on_c, 3, 71, 90
7, 19829, Note_on_c, 3, 71, 0
7, 19830, Note_on_c, 3, 69, 90
7, 19859, Note_on_c, 3, 69, 0
7, 19860, Note_on_c, 3, 68, 90
7, 19889, Note_on_c, 3, 68, 0
7, 19890, Note_on_c, 3, 66, 90
7, 19919, Note_on_c, 3, 66, 0
7, 19920, Note_on_c, 3, 64, 90
7, 19949, Note_on_c, 3, 64, 0
7, 19950, Note_on_c, 3, 62, 90
7, 19979, Note_on_c, 3, 62, 0
7, 19980, Note_on_c, 3, 69, 90
7, 20009, Note_on_c, 3, 69, 0
7, 20010, Note_on_c, 3, 64, 90
7, 20039, Note_on_c, 3, 64, 0
7, 20040, Note_on_c, 3, 66, 90
7, 20069, Note_on_c, 3, 66, 0
7, 20070, Note_on_c, 3, 68, 90
7, 20099, Note_on_c, 3, 68, 0
7, 20100, Note_on_c, 3, 69, 90
7, 20129, Note_on_c, 3, 69, 0
7, 20130, Note_on_c, 3, 71, 90
7, 20159, Note_on_c, 3, 71, 0
7, 20160, Note_on_c, 3, 73, 90
7, 20189, Note_on_c, 3, 73, 0
7, 20190, Note_on_c, 3, 74, 90
7, 20219, Note_on_c, 3, 74, 0
7, 20220, Note_on_c, 3, 76, 90
7, 20279, Note_on_c, 3, 76, 0
7, 20370, Note_on_c, 3, 73, 90
7, 20399, Note_on_c, 3, 73, 0
7, 20400, Note_on_c, 3, 74, 90
7, 20429, Note_on_c, 3, 74, 0
7, 20430, Note_on_c, 3, 76, 90
7, 20459, Note_on_c, 3, 76, 0
7, 20460, Note_on_c, 3, 78, 90
7, 20489, Note_on_c, 3, 78, 0
7, 20490, Note_on_c, 3, 76, 90
7, 20519, Note_on_c, 3, 76, 0
7, 20520, Note_on_c, 3, 78, 90
7, 20549, Note_on_c, 3, 78, 0
7, 20550, Note_on_c, 3, 80, 90
7, 20579, Note_on_c, 3, 80, 0
7, 20580, Note_on_c, 3, 81, 90
7, 20609, Note_on_c, 3, 81, 0
7, 20610, Note_on_c, 3, 80, 90
7, 20639, Note_on_c, 3, 80, 0
7, 20640, Note_on_c, 3, 81, 90
7, 20669, Note_on_c, 3, 81, 0
7, 20670, Note_on_c, 3, 83, 90
7, 20699, Note_on_c, 3, 83, 0
7, 20700, Note_on_c, 3, 85, 90
7, 20729, Note_on_c, 3, 85, 0
7, 20730, Note_on_c, 3, 83, 90
7, 20759, Note_on_c, 3, 83, 0
7, 20760, Note_on_c, 3, 81, 90
7, 20789, Note_on_c, 3, 81, 0
7, 20790, Note_on_c, 3, 80, 90
7, 20819, Note_on_c, 3, 80, 0
7, 20820, Note_on_c, 3, 78, 90
7, 20849, Note_on_c, 3, 78, 0
7, 20850, Note_on_c, 3, 76, 90
7, 20879, Note_on_c, 3, 76, 0
7, 20880, Note_on_c, 3, 74, 90
7, 20909, Note_on_c, 3, 74, 0
7, 20910, Note_on_c, 3, 73, 90
7, 20939, Note_on_c, 3, 73, 0
7, 20940, Note_on_c, 3, 71, 90
7, 20969, Note_on_c, 3, 71, 0
7, 20970, Note_on_c, 3, 69, 90
7, 20999, Note_on_c, 3, 69, 0
7, 21000, Note_on_c, 3, 68, 90
7, 21029, Note_on_c, 3, 68, 0
7, 21030, Note_on_c, 3, 66, 90
7, 21059, Note_on_c, 3, 66, 0
7, 21060, Note_on_c, 3, 64, 90
7, 21089, Note_on_c, 3, 64, 0
7, 21090, Note_on_c, 3, 62, 90
7, 21119, Note_on_c, 3, 62, 0
7, 21120, Note_on_c, 3, 64, 90
7, 21149, Note_on_c, 3, 64, 0
7, 21150, Note_on_c, 3, 66, 90
7, 21179, Note_on_c, 3, 66, 0
7, 21180, Note_on_c, 3, 68, 90
7, 21209, Note_on_c, 3, 68, 0
7, 21210, Note_on_c, 3, 66, 90
7, 21239, Note_on_c, 3, 66, 0
7, 21240, Note_on_c, 3, 68, 90
7, 21269, Note_on_c, 3, 68, 0
7, 21270, Note_on_c, 3, 69, 90
7, 21299, Note_on_c, 3, 69, 0
7, 21300, Note_on_c, 3, 71, 90
7, 21329, Note_on_c, 3, 71, 0
7, 21330, Note_on_c, 3, 73, 90
7, 21359, Note_on_c, 3, 73, 0
7, 21360, Note_on_c, 3, 74, 90
7, 21389, Note_on_c, 3, 74, 0
7, 21390, Note_on_c, 3, 71, 90
7, 21419, Note_on_c, 3, 71, 0
7, 21420, Note_on_c, 3, 73, 90
7, 21449, Note_on_c, 3, 73, 0
7, 21450, Note_on_c, 3, 81, 90
7, 21479, Note_on_c, 3, 81, 0
7, 21480, Note_on_c, 3, 80, 90
7, 21509, Note_on_c, 3, 80, 0
7, 21510, Note_on_c, 3, 78, 90
7, 21539, Note_on_c, 3, 78, 0
7, 21540, Note_on_c, 3, 76, 90
7, 21569, Note_on_c, 3, 76, 0
7, 21570, Note_on_c, 3, 78, 90
7, 21599, Note_on_c, 3, 78, 0
7, 21600, Note_on_c, 3, 76, 90
7, 21629, Note_on_c, 3, 76, 0
7, 21630, Note_on_c, 3, 74, 90
7, 21659, Note_on_c, 3, 74, 0
7, 21660, Note_on_c, 3, 73, 90
7, 21719, Note_on_c, 3, 73, 0
7, 21810, Note_on_c, 3, 86, 90
7, 21839, Note_on_c, 3, 86, 0
7, 21840, Note_on_c, 3, 85, 90
7, 21869, Note_on_c, 3, 85, 0
7, 21870, Note_on_c, 3, 83, 90
7, 21899, Note_on_c, 3, 83, 0
7, 21900, Note_on_c, 3, 82, 90
7, 21929, Note_on_c, 3, 82, 0
7, 21930, Note_on_c, 3, 83, 90
7, 21959, Note_on_c, 3, 83, 0
7, 21960, Note_on_c, 3, 82, 90
7, 21989, Note_on_c, 3, 82, 0
7, 21990, Note_on_c, 3, 80, 90
7, 22019, Note_on_c, 3, 80, 0
7, 22020, Note_on_c, 3, 78, 90
7, 22079, Note_on_c, 3, 78, 0
7, 22170, Note_on_c, 3, 70, 90
7, 22199, Note_on_c, 3, 70, 0
7, 22200, Note_on_c, 3, 71, 90
7, 22229, Note_on_c, 3, 71, 0
7, 22230, Note_on_c, 3, 73, 90
7, 22259, Note_on_c, 3, 73, 0
7, 22260, Note_on_c, 3, 74, 90
7, 22289, Note_on_c, 3, 74, 0
7, 22290, Note_on_c, 3, 73, 90
7, 22319, Note_on_c, 3, 73, 0
7, 22320, Note_on_c, 3, 74, 90
7, 22349, Note_on_c, 3, 74, 0
7, 22350, Note_on_c, 3, 76, 90
7, 22379, Note_on_c, 3, 76, 0
7, 22380, Note_on_c, 3, 78, 90
7, 22409, Note_on_c, 3, 78, 0
7, 22410, Note_on_c, 3, 74, 90
7, 22439, Note_on_c, 3, 74, 0
7, 22440, Note_on_c, 3, 76, 90
7, 22469, Note_on_c, 3, 76, 0
7, 22470, Note_on_c, 3, 78, 90
7, 22499, Note_on_c, 3, 78, 0
7, 22500, Note_on_c, 3, 80, 90
7, 22529, Note_on_c, 3, 80, 0
7, 22530, Note_on_c, 3, 75, 90
7, 22559, Note_on_c, 3, 75, 0
7, 22560, Note_on_c, 3, 76, 90
7, 22589, Note_on_c, 3, 76, 0
7, 22590, Note_on_c, 3, 78, 90
7, 22619, Note_on_c, 3, 78, 0
7, 22620, Note_on_c, 3, 80, 90
7, 22649, Note_on_c, 3, 80, 0
7, 22650, Note_on_c, 3, 78, 90
7, 22679, Note_on_c, 3, 78, 0
7, 22680, Note_on_c, 3, 80, 90
7, 22709, Note_on_c, 3, 80, 0
7, 22710, Note_on_c, 3, 81, 90
7, 22739, Note_on_c, 3, 81, 0
7, 22740, Note_on_c, 3, 83, 90
7, 22769, Note_on_c, 3, 83, 0
7, 22770, Note_on_c, 3, 80, 90
7, 22799, Note_on_c, 3, 80, 0
7, 22800, Note_on_c, 3, 81, 90
7, 22829, Note_on_c, 3, 81, 0
7, 22830, Note_on_c, 3, 83, 90
7, 22859, Note_on_c, 3, 83, 0
7, 22860, Note_on_c, 3, 76, 90
7, 22889, Note_on_c, 3, 76, 0
7, 22890, Note_on_c, 3, 74, 90
7, 22919, Note_on_c, 3, 74, 0
7, 22920, Note_on_c, 3, 76, 90
7, 22949, Note_on_c, 3, 76, 0
7, 22950, Note_on_c, 3, 78, 90
7, 22979, Note_on_c, 3, 78, 0
7, 22980, Note_on_c, 3, 76, 90
7, 23009, Note_on_c, 3, 76, 0
7, 23010, Note_on_c, 3, 81, 90
7, 23039, Note_on_c, 3, 81, 0
7, 23040, Note_on_c, 3, 80, 90
7, 23069, Note_on_c, 3, 80, 0
7, 23070, Note_on_c, 3, 81, 90
7, 23099, Note_on_c, 3, 81, 0
7, 23100, Note_on_c, 3, 73, 90
7, 23129, Note_on_c, 3, 73, 0
7, 23130, Note_on_c, 3, 81, 90
7, 23159, Note_on_c, 3, 81, 0
7, 23160, Note_on_c, 3, 80, 90
7, 23189, Note_on_c, 3, 80, 0
7, 23190, Note_on_c, 3, 81, 90
7, 23219, Note_on_c, 3, 81, 0
7, 23220, Note_on_c, 3, 71, 90
7, 23249, Note_on_c, 3, 71, 0
7, 23250, Note_on_c, 3, 69, 90
7, 23279, Note_on_c, 3, 69, 0
7, 23280, Note_on_c, 3, 71, 90
7, 23309, Note_on_c, 3, 71, 0
7, 23310, Note_on_c, 3, 73, 90
7, 23339, Note_on_c, 3, 73, 0
7, 23340, Note_on_c, 3, 69, 90
7, 23369, Note_on_c, 3, 69, 0
7, 23370, Note_on_c, 3, 76, 90
7, 23399, Note_on_c, 3, 76, 0
7, 23400, Note_on_c, 3, 74, 90
7, 23429, Note_on_c, 3, 74, 0
7, 23430, Note_on_c, 3, 76, 90
7, 23459, Note_on_c, 3, 76, 0
7, 23460, Note_on_c, 3, 64, 90
7, 23489, Note_on_c, 3, 64, 0
7, 23490, Note_on_c, 3, 76, 90
7, 23519, Note_on_c, 3, 76, 0
7, 23520, Note_on_c, 3, 74, 90
7, 23549, Note_on_c, 3, 74, 0
7, 23550, Note_on_c, 3, 76, 90
7, 23579, Note_on_c, 3, 76, 0
7, 23580, Note_on_c, 3, 69, 90
7, 23609, Note_on_c, 3, 69, 0
7, 23610, Note_on_c, 3, 68, 90
7, 23639, Note_on_c, 3, 68, 0
7, 23640, Note_on_c, 3, 69, 90
7, 23669, Note_on_c, 3, 69, 0
7, 23670, Note_on_c, 3, 71, 90
7, 23699, Note_on_c, 3, 71, 0
7, 23700, Note_on_c, 3, 69, 90
7, 23729, Note_on_c, 3, 69, 0
7, 23730, Note_on_c, 3, 78, 90
7, 23759, Note_on_c, 3, 78, 0
7, 23760, Note_on_c, 3, 76, 90
7, 23789, Note_on_c, 3, 76, 0
7, 23790, Note_on_c, 3, 78, 90
7, 23819, Note_on_c, 3, 78, 0
7, 23820, Note_on_c, 3, 75, 90
7, 23849, Note_on_c, 3, 75, 0
7, 23850, Note_on_c, 3, 69, 90
7, 23879, Note_on_c, 3, 69, 0
7, 23880, Note_on_c, 3, 68, 90
7, 23909, Note_on_c, 3, 68, 0
7, 23910, Note_on_c, 3, 66, 90
7, 23939, Note_on_c, 3, 66, 0
7, 23940, Note_on_c, 3, 68, 90
7, 23969, Note_on_c, 3, 68, 0
7, 23970, Note_on_c, 3, 71, 90
7, 23999, Note_on_c, 3, 71, 0
7, 24000, Note_on_c, 3, 76, 90
7, 24029, Note_on_c, 3, 76, 0
7, 24030, Note_on_c, 3, 78, 90
7, 24059, Note_on_c, 3, 78, 0
7, 24060, Note_on_c, 3, 80, 90
7, 24089, Note_on_c, 3, 80, 0
7, 24090, Note_on_c, 3, 81, 90
7, 24119, Note_on_c, 3, 81, 0
7, 24120, Note_on_c, 3, 83, 90
7, 24149, Note_on_c, 3, 83, 0
7, 24150, Note_on_c, 3, 80, 90
7, 24179, Note_on_c, 3, 80, 0
7, 24180, Note_on_c, 3, 76, 90
7, 24209, Note_on_c, 3, 76, 0
7, 24210, Note_on_c, 3, 78, 90
7, 24239, Note_on_c, 3, 78, 0
7, 24240, Note_on_c, 3, 80, 90
7, 24269, Note_on_c, 3, 80, 0
7, 24270, Note_on_c, 3, 76, 90
7, 24299, Note_on_c, 3, 76, 0
7, 24300, Note_on_c, 3, 73, 90
7, 24329, Note_on_c, 3, 73, 0
7, 24330, Note_on_c, 3, 78, 90
7, 24359, Note_on_c, 3, 78, 0
7, 24360, Note_on_c, 3, 79, 90
7, 24389, Note_on_c, 3, 79, 0
7, 24390, Note_on_c, 3, 78, 90
7, 24419, Note_on_c, 3, 78, 0
7, 24420, Note_on_c, 3, 76, 90
7, 24449, Note_on_c, 3, 76, 0
7, 24450, Note_on_c, 3, 74, 90
7, 24479, Note_on_c, 3, 74, 0
7, 24480, Note_on_c, 3, 73, 90
7, 24509, Note_on_c, 3, 73, 0
7, 24510, Note_on_c, 3, 71, 90
7, 24539, Note_on_c, 3, 71, 0
7, 24540, Note_on_c, 3, 70, 90
7, 24569, Note_on_c, 3, 70, 0
7, 24570, Note_on_c, 3, 71, 90
7, 24599, Note_on_c, 3, 71, 0
7, 24600, Note_on_c, 3, 73, 90
7, 24629, Note_on_c, 3, 73, 0
7, 24630, Note_on_c, 3, 70, 90
7, 24659, Note_on_c, 3, 70, 0
7, 24660, Note_on_c, 3, 66, 90
7, 24689, Note_on_c, 3, 66, 0
7, 24690, Note_on_c, 3, 70, 90
7, 24719, Note_on_c, 3, 70, 0
7, 24720, Note_on_c, 3, 71, 90
7, 24749, Note_on_c, 3, 71, 0
7, 24750, Note_on_c, 3, 73, 90
7, 24779, Note_on_c, 3, 73, 0
7, 24780, Note_on_c, 3, 74, 90
7, 24809, Note_on_c, 3, 74, 0
7, 24810, Note_on_c, 3, 76, 90
7, 24839, Note_on_c, 3, 76, 0
7, 24840, Note_on_c, 3, 78, 90
7, 24869, Note_on_c, 3, 78, 0
7, 24870, Note_on_c, 3, 74, 90
7, 24899, Note_on_c, 3, 74, 0
7, 24900, Note_on_c, 3, 71, 90
7, 24929, Note_on_c, 3, 71, 0
7, 24930, Note_on_c, 3, 73, 90
7, 24959, Note_on_c, 3, 73, 0
7, 24960, Note_on_c, 3, 74, 90
7, 24989, Note_on_c, 3, 74, 0
7, 24990, Note_on_c, 3, 71, 90
7, 25019, Note_on_c, 3, 71, 0
7, 25020, Note_on_c, 3, 68, 90
7, 25049, Note_on_c, 3, 68, 0
7, 25050, Note_on_c, 3, 73, 90
7, 25079, Note_on_c, 3, 73, 0
7, 25080, Note_on_c, 3, 74, 90
7, 25109, Note_on_c, 3, 74, 0
7, 25110, Note_on_c, 3, 73, 90
7, 25139, Note_on_c, 3, 73, 0
7, 25140, Note_on_c, 3, 71, 90
7, 25169, Note_on_c, 3, 71, 0
7, 25170, Note_on_c, 3, 69, 90
7, 25199, Note_on_c, 3, 69, 0
7, 25200, Note_on_c, 3, 68, 90
7, 25229, Note_on_c, 3, 68, 0
7, 25230, Note_on_c, 3, 66, 90
7, 25259, Note_on_c, 3, 66, 0
7, 25260, Note_on_c, 3, 65, 90
7, 25289, Note_on_c, 3, 65, 0
7, 25290, Note_on_c, 3, 66, 90
7, 25319, Note_on_c, 3, 66, 0
7, 25320, Note_on_c, 3, 68, 90
7, 25349, Note_on_c, 3, 68, 0
7, 25350, Note_on_c, 3, 65, 90
7, 25379, Note_on_c, 3, 65, 0
7, 25380, Note_on_c, 3, 69, 90
7, 25409, Note_on_c, 3, 69, 0
7, 25410, Note_on_c, 3, 86, 90
7, 25439, Note_on_c, 3, 86, 0
7, 25440, Note_on_c, 3, 85, 90
7, 25469, Note_on_c, 3, 85, 0
7, 25470, Note_on_c, 3, 83, 90
7, 25499, Note_on_c, 3, 83, 0
7, 25500, Note_on_c, 3, 81, 90
7, 25529, Note_on_c, 3, 81, 0
7, 25530, Note_on_c, 3, 83, 90
7, 25559, Note_on_c, 3, 83, 0
7, 25560, Note_on_c, 3, 85, 90
7, 25589, Note_on_c, 3, 85, 0
7, 25590, Note_on_c, 3, 81, 90
7, 25619, Note_on_c, 3, 81, 0
7, 25620, Note_on_c, 3, 78, 90
7, 25649, Note_on_c, 3, 78, 0
7, 25650, Note_on_c, 3, 80, 90
7, 25679, Note_on_c, 3, 80, 0
7, 25680, Note_on_c, 3, 81, 90
7, 25709, Note_on_c, 3, 81, 0
7, 25710, Note_on_c, 3, 78, 90
7, 25739, Note_on_c, 3, 78, 0
7, 25740, Note_on_c, 3, 75, 90
7, 25769, Note_on_c, 3, 75, 0
7, 25770, Note_on_c, 3, 80, 90
7, 25799, Note_on_c, 3, 80, 0
7, 25800, Note_on_c, 3, 81, 90
7, 25829, Note_on_c, 3, 81, 0
7, 25830, Note_on_c, 3, 80, 90
7, 25859, Note_on_c, 3, 80, 0
7, 25860, Note_on_c, 3, 78, 90
7, 25889, Note_on_c, 3, 78, 0
7, 25890, Note_on_c, 3, 76, 90
7, 25919, Note_on_c, 3, 76, 0
7, 25920, Note_on_c, 3, 75, 90
7, 25949, Note_on_c, 3, 75, 0
7, 25950, Note_on_c, 3, 73, 90
7, 25979, Note_on_c, 3, 73, 0
7, 25980, Note_on_c, 3, 72, 90
7, 26009, Note_on_c, 3, 72, 0
7, 26010, Note_on_c, 3, 75, 90
7, 26039, Note_on_c, 3, 75, 0
7, 26040, Note_on_c, 3, 68, 90
7, 26129, Note_on_c, 3, 68, 0
7, 26130, Note_on_c, 3, 78, 90
7, 26159, Note_on_c, 3, 78, 0
7, 26160, Note_on_c, 3, 76, 90
7, 26189, Note_on_c, 3, 76, 0
7, 26190, Note_on_c, 3, 75, 90
7, 26219, Note_on_c, 3, 75, 0
7, 26220, Note_on_c, 3, 73, 90
7, 26249, Note_on_c, 3, 73, 0
7, 26250, Note_on_c, 3, 81, 90
7, 26279, Note_on_c, 3, 81, 0
7, 26280, Note_on_c, 3, 80, 90
7, 26309, Note_on_c, 3, 80, 0
7, 26310, Note_on_c, 3, 78, 90
7, 26339, Note_on_c, 3, 78, 0
7, 26340, Note_on_c, 3, 76, 90
7, 26369, Note_on_c, 3, 76, 0
7, 26370, Note_on_c, 3, 80, 90
7, 26399, Note_on_c, 3, 80, 0
7, 26400, Note_on_c, 3, 73, 90
7, 26489, Note_on_c, 3, 73, 0
7, 26490, Note_on_c, 3, 76, 90
7, 26519, Note_on_c, 3, 76, 0
7, 26520, Note_on_c, 3, 75, 90
7, 26549, Note_on_c, 3, 75, 0
7, 26550, Note_on_c, 3, 73, 90
7, 26579, Note_on_c, 3, 73, 0
7, 26580, Note_on_c, 3, 71, 90
7, 26609, Note_on_c, 3, 71, 0
7, 26610, Note_on_c, 3, 80, 90
7, 26639, Note_on_c, 3, 80, 0
7, 26640, Note_on_c, 3, 78, 90
7, 26669, Note_on_c, 3, 78, 0
7, 26670, Note_on_c, 3, 76, 90
7, 26699, Note_on_c, 3, 76, 0
7, 26700, Note_on_c, 3, 75, 90
7, 26729, Note_on_c, 3, 75, 0
7, 26730, Note_on_c, 3, 78, 90
7, 26759, Note_on_c, 3, 78, 0
7, 26760, Note_on_c, 3, 71, 90
7, 26849, Note_on_c, 3, 71, 0
7, 26850, Note_on_c, 3, 68, 90
7, 26879, Note_on_c, 3, 68, 0
7, 26880, Note_on_c, 3, 73, 90
7, 26909, Note_on_c, 3, 73, 0
7, 26910, Note_on_c, 3, 76, 90
7, 26939, Note_on_c, 3, 76, 0
7, 26940, Note_on_c, 3, 81, 90
7, 26969, Note_on_c, 3, 81, 0
7, 26970, Note_on_c, 3, 83, 90
7, 26999, Note_on_c, 3, 83, 0
7, 27000, Note_on_c, 3, 81, 90
7, 27029, Note_on_c, 3, 81, 0
7, 27030, Note_on_c, 3, 80, 90
7, 27059, Note_on_c, 3, 80, 0
7, 27060, Note_on_c, 3, 78, 90
7, 27089, Note_on_c, 3, 78, 0
7, 27090, Note_on_c, 3, 80, 90
7, 27119, Note_on_c, 3, 80, 0
7, 27120, Note_on_c, 3, 78, 90
7, 27149, Note_on_c, 3, 78, 0
7, 27150, Note_on_c, 3, 76, 90
7, 27179, Note_on_c, 3, 76, 0
7, 27180, Note_on_c, 3, 75, 90
7, 27209, Note_on_c, 3, 75, 0
7, 27210, Note_on_c, 3, 68, 90
7, 27239, Note_on_c, 3, 68, 0
7, 27240, Note_on_c, 3, 72, 90
7, 27269, Note_on_c, 3, 72, 0
7, 27270, Note_on_c, 3, 75, 90
7, 27299, Note_on_c, 3, 75, 0
7, 27300, Note_on_c, 3, 80, 90
7, 27329, Note_on_c, 3, 80, 0
7, 27330, Note_on_c, 3, 81, 90
7, 27359, Note_on_c, 3, 81, 0
7, 27360, Note_on_c, 3, 80, 90
7, 27389, Note_on_c, 3, 80, 0
7, 27390, Note_on_c, 3, 78, 90
7, 27419, Note_on_c, 3, 78, 0
7, 27420, Note_on_c, 3, 76, 90
7, 27449, Note_on_c, 3, 76, 0
7, 27450, Note_on_c, 3, 78, 90
7, 27479, Note_on_c, 3, 78, 0
7, 27480, Note_on_c, 3, 76, 90
7, 27509, Note_on_c, 3, 76, 0
7, 27510, Note_on_c, 3, 74, 90
7, 27539, Note_on_c, 3, 74, 0
7, 27540, Note_on_c, 3, 73, 90
7, 27569, Note_on_c, 3, 73, 0
7, 27570, Note_on_c, 3, 76, 90
7, 27599, Note_on_c, 3, 76, 0
7, 27600, Note_on_c, 3, 78, 90
7, 27629, Note_on_c, 3, 78, 0
7, 27630, Note_on_c, 3, 80, 90
7, 27659, Note_on_c, 3, 80, 0
7, 27660, Note_on_c, 3, 81, 90
7, 27689, Note_on_c, 3, 81, 0
7, 27690, Note_on_c, 3, 83, 90
7, 27719, Note_on_c, 3, 83, 0
7, 27720, Note_on_c, 3, 85, 90
7, 27749, Note_on_c, 3, 85, 0
7, 27750, Note_on_c, 3, 83, 90
7, 27779, Note_on_c, 3, 83, 0
7, 27780, Note_on_c, 3, 81, 90
7, 27809, Note_on_c, 3, 81, 0
7, 27810, Note_on_c, 3, 85, 90
7, 27839, Note_on_c, 3, 85, 0
7, 27840, Note_on_c, 3, 81, 90
7, 27869, Note_on_c, 3, 81, 0
7, 27870, Note_on_c, 3, 78, 90
7, 27899, Note_on_c, 3, 78, 0
7, 27900, Note_on_c, 3, 87, 90
7, 27929, Note_on_c, 3, 87, 0
7, 27930, Note_on_c, 3, 85, 90
7, 27959, Note_on_c, 3, 85, 0
7, 27960, Note_on_c, 3, 84, 90
7, 27989, Note_on_c, 3, 84, 0
7, 27990, Note_on_c, 3, 82, 90
7, 28019, Note_on_c, 3, 82, 0
7, 28020, Note_on_c, 3, 80, 90
7, 28049, Note_on_c, 3, 80, 0
7, 28050, Note_on_c, 3, 73, 90
7, 28079, Note_on_c, 3, 73, 0
7, 28080, Note_on_c, 3, 76, 90
7, 28109, Note_on_c, 3, 76, 0
7, 28110, Note_on_c, 3, 80, 90
7, 28139, Note_on_c, 3, 80, 0
7, 28140, Note_on_c, 3, 85, 90
7, 28169, Note_on_c, 3, 85, 0
7, 28170, Note_on_c, 3, 83, 90
7, 28199, Note_on_c, 3, 83, 0
7, 28200, Note_on_c, 3, 81, 90
7, 28229, Note_on_c, 3, 81, 0
7, 28230, Note_on_c, 3, 80, 90
7, 28259, Note_on_c, 3, 80, 0
7, 28260, Note_on_c, 3, 78, 90
7, 28289, Note_on_c, 3, 78, 0
7, 28290, Note_on_c, 3, 80, 90
7, 28319, Note_on_c, 3, 80, 0
7, 28320, Note_on_c, 3, 81, 90
7, 28379, Note_on_c, 3, 81, 0
7, 28410, Note_on_c, 3, 80, 90
7, 28439, Note_on_c, 3, 80, 0
7, 28440, Note_on_c, 3, 78, 90
7, 28469, Note_on_c, 3, 78, 0
7, 28470, Note_on_c, 3, 76, 90
7, 28499, Note_on_c, 3, 76, 0
7, 28500, Note_on_c, 3, 78, 90
7, 28529, Note_on_c, 3, 78, 0
7, 28530, Note_on_c, 3, 75, 90
7, 28559, Note_on_c, 3, 75, 0
7, 28560, Note_on_c, 3, 72, 90
7, 28589, Note_on_c, 3, 72, 0
7, 28590, Note_on_c, 3, 68, 90
7, 28619, Note_on_c, 3, 68, 0
7, 28620, Note_on_c, 3, 76, 90
7, 28739, Note_on_c, 3, 76, 0
7, 28740, Note_on_c, 3, 68, 90
7, 29099, Note_on_c, 3, 68, 0
7, 29100, Note_on_c, 3, 73, 90
7, 29580, Note_on_c, 3, 73, 0
7, 29580, Note_on_c, 3, 71, 90
7, 30300, Note_on_c, 3, 71, 0
7, 30300, Note_on_c, 3, 73, 90
7, 30540, Note_on_c, 3, 73, 0
7, 30660, Note_on_c, 3, 66, 90
7, 30750, Note_on_c, 3, 66, 0
7, 30750, Note_on_c, 3, 68, 90
7, 30765, Note_on_c, 3, 68, 0
7, 30765, Note_on_c, 3, 69, 90
7, 30780, Note_on_c, 3, 69, 0
7, 30780, Note_on_c, 3, 68, 90
7, 31260, Note_on_c, 3, 68, 0
7, 31260, Note_on_c, 3, 73, 90
7, 31500, Note_on_c, 3, 73, 0
7, 31500, Note_on_c, 3, 74, 90
7, 31620, Note_on_c, 3, 74, 0
7, 31860, Note_on_c, 3, 71, 90
7, 31950, Note_on_c, 3, 71, 0
7, 31950, Note_on_c, 3, 73, 90
7, 31965, Note_on_c, 3, 73, 0
7, 31965, Note_on_c, 3, 74, 90
7, 31980, Note_on_c, 3, 74, 0
7, 31980, Note_on_c, 3, 73, 90
7, 32220, Note_on_c, 3, 73, 0
7, 32460, Note_on_c, 3, 81, 90
7, 32579, Note_on_c, 3, 81, 0
7, 32580, Note_on_c, 3, 81, 90
7, 32699, Note_on_c, 3, 81, 0
7, 32700, Note_on_c, 3, 81, 90
7, 32819, Note_on_c, 3, 81, 0
7, 32820, Note_on_c, 3, 83, 90
7, 32939, Note_on_c, 3, 83, 0
7, 32940, Note_on_c, 3, 81, 90
7, 33059, Note_on_c, 3, 81, 0
7, 33060, Note_on_c, 3, 86, 90
7, 33179, Note_on_c, 3, 86, 0
7, 33180, Note_on_c, 3, 88, 90
7, 33299, Note_on_c, 3, 88, 0
7, 33300, Note_on_c, 3, 86, 90
7, 33539, Note_on_c, 3, 86, 0
7, 33540, Note_on_c, 3, 85, 90
7, 33599, Note_on_c, 3, 85, 0
7, 33600, Note_on_c, 3, 86, 90
7, 33659, Note_on_c, 3, 86, 0
7, 33660, Note_on_c, 3, 88, 90
7, 33779, Note_on_c, 3, 88, 0
7, 33780, Note_on_c, 3, 90, 90
7, 33899, Note_on_c, 3, 90, 0
7, 33900, Note_on_c, 3, 88, 90
7, 33959, Note_on_c, 3, 88, 0
7, 33960, Note_on_c, 3, 86, 90
7, 34019, Note_on_c, 3, 86, 0
7, 34020, Note_on_c, 3, 85, 90
7, 34139, Note_on_c, 3, 85, 0
7, 34140, Note_on_c, 3, 83, 90
7, 34259, Note_on_c, 3, 83, 0
7, 34260, Note_on_c, 3, 81, 90
7, 34379, Note_on_c, 3, 81, 0
7, 34380, Note_on_c, 3, 81, 90
7, 34499, Note_on_c, 3, 81, 0
7, 34500, Note_on_c, 3, 86, 90
7, 34619, Note_on_c, 3, 86, 0
7, 34620, Note_on_c, 3, 85, 90
7, 34679, Note_on_c, 3, 85, 0
7, 34680, Note_on_c, 3, 86, 90
7, 34739, Note_on_c, 3, 86, 0
7, 34740, Note_on_c, 3, 88, 90
7, 34859, Note_on_c, 3, 88, 0
7, 34860, Note_on_c, 3, 83, 90
7, 34979, Note_on_c, 3, 83, 0
7, 34980, Note_on_c, 3, 81, 90
7, 35039, Note_on_c, 3, 81, 0
7, 35040, Note_on_c, 3, 80, 90
7, 35099, Note_on_c, 3, 80, 0
7, 35100, Note_on_c, 3, 78, 90
7, 35219, Note_on_c, 3, 78, 0
7, 35220, Note_on_c, 3, 76, 90
7, 35339, Note_on_c, 3, 76, 0
7, 35340, Note_on_c, 3, 76, 90
7, 35459, Note_on_c, 3, 76, 0
7, 35460, Note_on_c, 3, 83, 90
7, 35579, Note_on_c, 3, 83, 0
7, 35580, Note_on_c, 3, 83, 90
7, 35699, Note_on_c, 3, 83, 0
7, 35700, Note_on_c, 3, 83, 90
7, 35819, Note_on_c, 3, 83, 0
7, 35820, Note_on_c, 3, 85, 90
7, 35939, Note_on_c, 3, 85, 0
7, 35940, Note_on_c, 3, 86, 90
7, 35999, Note_on_c, 3, 86, 0
7, 36000, Note_on_c, 3, 85, 90
7, 36059, Note_on_c, 3, 85, 0
7, 36060, Note_on_c, 3, 83, 90
7, 36179, Note_on_c, 3, 83, 0
7, 36180, Note_on_c, 3, 81, 90
7, 36239, Note_on_c, 3, 81, 0
7, 36240, Note_on_c, 3, 83, 90
7, 36299, Note_on_c, 3, 83, 0
7, 36300, Note_on_c, 3, 85, 90
7, 36419, Note_on_c, 3, 85, 0
7, 36420, Note_on_c, 3, 83, 90
7, 36659, Note_on_c, 3, 83, 0
7, 36660, Note_on_c, 3, 81, 90
7, 36779, Note_on_c, 3, 81, 0
7, 36780, Note_on_c, 3, 81, 90
7, 36899, Note_on_c, 3, 81, 0
7, 36900, Note_on_c, 3, 81, 90
7, 37259, Note_on_c, 3, 81, 0
7, 130140, Note_on_c, 3, 76, 100
7, 130620, Note_on_c, 3, 76, 0
7, 130620, Note_on_c, 3, 74, 100
7, 131100, Note_on_c, 3, 74, 0
7, 131100, Note_on_c, 3, 67, 100
7, 131580, Note_on_c, 3, 67, 0
7, 131580, Note_on_c, 3, 69, 100
7, 132060, Note_on_c, 3, 69, 0
7, 132060, Note_on_c, 3, 71, 100
7, 132180, Note_on_c, 3, 71, 0
7, 132180, Note_on_c, 3, 74, 100
7, 132300, Note_on_c, 3, 74, 0
7, 132300, Note_on_c, 3, 69, 100
7, 132420, Note_on_c, 3, 69, 0
7, 132420, Note_on_c, 3, 71, 100
7, 132540, Note_on_c, 3, 71, 0
7, 132660, Note_on_c, 3, 79, 90
7, 132779, Note_on_c, 3, 79, 0
7, 132780, Note_on_c, 3, 79, 90
7, 132899, Note_on_c, 3, 79, 0
7, 132900, Note_on_c, 3, 81, 90
7, 133019, Note_on_c, 3, 81, 0
7, 133020, Note_on_c, 3, 79, 90
7, 133139, Note_on_c, 3, 79, 0
7, 133140, Note_on_c, 3, 81, 90
7, 133199, Note_on_c, 3, 81, 0
7, 133200, Note_on_c, 3, 83, 90
7, 133259, Note_on_c, 3, 83, 0
7, 133260, Note_on_c, 3, 84, 90
7, 133379, Note_on_c, 3, 84, 0
7, 133380, Note_on_c, 3, 84, 90
7, 133499, Note_on_c, 3, 84, 0
7, 133500, Note_on_c, 3, 83, 90
7, 133619, Note_on_c, 3, 83, 0
7, 133620, Note_on_c, 3, 84, 90
7, 133859, Note_on_c, 3, 84, 0
7, 133860, Note_on_c, 3, 86, 90
7, 133979, Note_on_c, 3, 86, 0
7, 133980, Note_on_c, 3, 88, 90
7, 134099, Note_on_c, 3, 88, 0
7, 134100, Note_on_c, 3, 84, 90
7, 134339, Note_on_c, 3, 84, 0
7, 134340, Note_on_c, 3, 83, 90
7, 134399, Note_on_c, 3, 83, 0
7, 134400, Note_on_c, 3, 84, 90
7, 134459, Note_on_c, 3, 84, 0
7, 134460, Note_on_c, 3, 86, 90
7, 134579, Note_on_c, 3, 86, 0
7, 134580, Note_on_c, 3, 81, 90
7, 134819, Note_on_c, 3, 81, 0
7, 134820, Note_on_c, 3, 86, 90
7, 134939, Note_on_c, 3, 86, 0
7, 134940, Note_on_c, 3, 86, 90
7, 135059, Note_on_c, 3, 86, 0
7, 135060, Note_on_c, 3, 84, 90
7, 135179, Note_on_c, 3, 84, 0
7, 135180, Note_on_c, 3, 83, 90
7, 135239, Note_on_c, 3, 83, 0
7, 135240, Note_on_c, 3, 81, 90
7, 135299, Note_on_c, 3, 81, 0
7, 135300, Note_on_c, 3, 81, 90
7, 135539, Note_on_c, 3, 81, 0
7, 135540, Note_on_c, 3, 79, 90
7, 135779, Note_on_c, 3, 79, 0
7, 135780, Note_on_c, 3, 79, 90
7, 135899, Note_on_c, 3, 79, 0
7, 135900, Note_on_c, 3, 79, 90
7, 136019, Note_on_c, 3, 79, 0
7, 136020, Note_on_c, 3, 81, 90
7, 136139, Note_on_c, 3, 81, 0
7, 136140, Note_on_c, 3, 79, 90
7, 136259, Note_on_c, 3, 79, 0
7, 136260, Note_on_c, 3, 81, 90
7, 136319, Note_on_c, 3, 81, 0
7, 136320, Note_on_c, 3, 83, 90
7, 136379, Note_on_c, 3, 83, 0
7, 136380, Note_on_c, 3, 84, 90
7, 136499, Note_on_c, 3, 84, 0
7, 136500, Note_on_c, 3, 84, 90
7, 136619, Note_on_c, 3, 84, 0
7, 136620, Note_on_c, 3, 83, 90
7, 136739, Note_on_c, 3, 83, 0
7, 136740, Note_on_c, 3, 84, 90
7, 136979, Note_on_c, 3, 84, 0
7, 136980, Note_on_c, 3, 86, 90
7, 137099, Note_on_c, 3, 86, 0
7, 137100, Note_on_c, 3, 88, 90
7, 137219, Note_on_c, 3, 88, 0
7, 137220, Note_on_c, 3, 84, 90
7, 137459, Note_on_c, 3, 84, 0
7, 137460, Note_on_c, 3, 83, 90
7, 137519, Note_on_c, 3, 83, 0
7, 137520, Note_on_c, 3, 84, 90
7, 137579, Note_on_c, 3, 84, 0
7, 137580, Note_on_c, 3, 86, 90
7, 137699, Note_on_c, 3, 86, 0
7, 137700, Note_on_c, 3, 81, 90
7, 137939, Note_on_c, 3, 81, 0
7, 137940, Note_on_c, 3, 86, 90
7, 138059, Note_on_c, 3, 86, 0
7, 138060, Note_on_c, 3, 86, 90
7, 138179, Note_on_c, 3, 86, 0
7, 138180, Note_on_c, 3, 84, 90
7, 138299, Note_on_c, 3, 84, 0
7, 138300, Note_on_c, 3, 83, 90
7, 138359, Note_on_c, 3, 83, 0
7, 138360, Note_on_c, 3, 81, 90
7, 138419, Note_on_c, 3, 81, 0
7, 138420, Note_on_c, 3, 81, 90
7, 138659, Note_on_c, 3, 81, 0
7, 138660, Note_on_c, 3, 79, 90
7, 138899, Note_on_c, 3, 79, 0
7, 141900, Note_on_c, 3, 78, 90
7, 141959, Note_on_c, 3, 78, 0
7, 141960, Note_on_c, 3, 80, 90
7, 142019, Note_on_c, 3, 80, 0
7, 142020, Note_on_c, 3, 81, 90
7, 142139, Note_on_c, 3, 81, 0
7, 142140, Note_on_c, 3, 80, 90
7, 142259, Note_on_c, 3, 80, 0
7, 142260, Note_on_c, 3, 78, 90
7, 142379, Note_on_c, 3, 78, 0
7, 142380, Note_on_c, 3, 78, 90
7, 142439, Note_on_c, 3, 78, 0
7, 142440, Note_on_c, 3, 80, 90
7, 142499, Note_on_c, 3, 80, 0
7, 142500, Note_on_c, 3, 81, 90
7, 142619, Note_on_c, 3, 81, 0
7, 142620, Note_on_c, 3, 80, 90
7, 142739, Note_on_c, 3, 80, 0
7, 142740, Note_on_c, 3, 78, 90
7, 142859, Note_on_c, 3, 78, 0
7, 142860, Note_on_c, 3, 85, 90
7, 142979, Note_on_c, 3, 85, 0
7, 142980, Note_on_c, 3, 83, 90
7, 143099, Note_on_c, 3, 83, 0
7, 143100, Note_on_c, 3, 81, 90
7, 143219, Note_on_c, 3, 81, 0
7, 143220, Note_on_c, 3, 80, 90
7, 143339, Note_on_c, 3, 80, 0
7, 143340, Note_on_c, 3, 80, 90
7, 143459, Note_on_c, 3, 80, 0
7, 143460, Note_on_c, 3, 81, 90
7, 143579, Note_on_c, 3, 81, 0
7, 143580, Note_on_c, 3, 81, 90
7, 143699, Note_on_c, 3, 81, 0
7, 143700, Note_on_c, 3, 83, 90
7, 143819, Note_on_c, 3, 83, 0
7, 143820, Note_on_c, 3, 83, 90
7, 143939, Note_on_c, 3, 83, 0
7, 143940, Note_on_c, 3, 85, 90
7, 144059, Note_on_c, 3, 85, 0
7, 144060, Note_on_c, 3, 85, 90
7, 144179, Note_on_c, 3, 85, 0
7, 144180, Note_on_c, 3, 83, 90
7, 144299, Note_on_c, 3, 83, 0
7, 144300, Note_on_c, 3, 81, 90
7, 144419, Note_on_c, 3, 81, 0
7, 144420, Note_on_c, 3, 80, 90
7, 144659, Note_on_c, 3, 80, 0
7, 144660, Note_on_c, 3, 73, 90
7, 144779, Note_on_c, 3, 73, 0
7, 144780, Note_on_c, 3, 85, 90
7, 144899, Note_on_c, 3, 85, 0
7, 144900, Note_on_c, 3, 83, 90
7, 145019, Note_on_c, 3, 83, 0
7, 145020, Note_on_c, 3, 81, 90
7, 145079, Note_on_c, 3, 81, 0
7, 145080, Note_on_c, 3, 80, 90
7, 145139, Note_on_c, 3, 80, 0
7, 145140, Note_on_c, 3, 80, 90
7, 145259, Note_on_c, 3, 80, 0
7, 145260, Note_on_c, 3, 85, 90
7, 145379, Note_on_c, 3, 85, 0
7, 145380, Note_on_c, 3, 83, 90
7, 145499, Note_on_c, 3, 83, 0
7, 145500, Note_on_c, 3, 81, 90
7, 145619, Note_on_c, 3, 81, 0
7, 145620, Note_on_c, 3, 80, 90
7, 145739, Note_on_c, 3, 80, 0
7, 145740, Note_on_c, 3, 80, 90
7, 145859, Note_on_c, 3, 80, 0
7, 145860, Note_on_c, 3, 81, 90
7, 145979, Note_on_c, 3, 81, 0
7, 145980, Note_on_c, 3, 81, 90
7, 146099, Note_on_c, 3, 81, 0
7, 146100, Note_on_c, 3, 83, 90
7, 146219, Note_on_c, 3, 83, 0
7, 146220, Note_on_c, 3, 83, 90
7, 146339, Note_on_c, 3, 83, 0
7, 146340, Note_on_c, 3, 85, 90
7, 146459, Note_on_c, 3, 85, 0
7, 146460, Note_on_c, 3, 85, 90
7, 146579, Note_on_c, 3, 85, 0
7, 146580, Note_on_c, 3, 83, 90
7, 146699, Note_on_c, 3, 83, 0
7, 146700, Note_on_c, 3, 81, 90
7, 146759, Note_on_c, 3, 81, 0
7, 146760, Note_on_c, 3, 80, 90
7, 146819, Note_on_c, 3, 80, 0
7, 146820, Note_on_c, 3, 80, 90
7, 147059, Note_on_c, 3, 80, 0
7, 147060, Note_on_c, 3, 78, 90
7, 147179, Note_on_c, 3, 78, 0
7, 147300, Note_on_c, 3, 78, 90
7, 147359, Note_on_c, 3, 78, 0
7, 147360, Note_on_c, 3, 78, 90
7, 147419, Note_on_c, 3, 78, 0
7, 147420, Note_on_c, 3, 78, 90
7, 147479, Note_on_c, 3, 78, 0
7, 147480, Note_on_c, 3, 78, 90
7, 147539, Note_on_c, 3, 78, 0
7, 147540, Note_on_c, 3, 74, 90
7, 147569, Note_on_c, 3, 74, 0
7, 147570, Note_on_c, 3, 76, 90
7, 147599, Note_on_c, 3, 76, 0
7, 147600, Note_on_c, 3, 78, 90
7, 147629, Note_on_c, 3, 78, 0
7, 147630, Note_on_c, 3, 79, 90
7, 147659, Note_on_c, 3, 79, 0
7, 147660, Note_on_c, 3, 81, 90
7, 147719, Note_on_c, 3, 81, 0
7, 147720, Note_on_c, 3, 79, 90
7, 147779, Note_on_c, 3, 79, 0
7, 147780, Note_on_c, 3, 78, 90
7, 147839, Note_on_c, 3, 78, 0
7, 147840, Note_on_c, 3, 79, 90
7, 147929, Note_on_c, 3, 79, 0
7, 147930, Note_on_c, 3, 81, 90
7, 147944, Note_on_c, 3, 81, 0
7, 147945, Note_on_c, 3, 83, 90
7, 147959, Note_on_c, 3, 83, 0
7, 147960, Note_on_c, 3, 81, 90
7, 148019, Note_on_c, 3, 81, 0
7, 148020, Note_on_c, 3, 79, 90
7, 148079, Note_on_c, 3, 79, 0
7, 148080, Note_on_c, 3, 79, 90
7, 148139, Note_on_c, 3, 79, 0
7, 148140, Note_on_c, 3, 79, 90
7, 148199, Note_on_c, 3, 79, 0
7, 148200, Note_on_c, 3, 79, 90
7, 148259, Note_on_c, 3, 79, 0
7, 148260, Note_on_c, 3, 76, 90
7, 148289, Note_on_c, 3, 76, 0
7, 148290, Note_on_c, 3, 74, 90
7, 148319, Note_on_c, 3, 74, 0
7, 148320, Note_on_c, 3, 76, 90
7, 148349, Note_on_c, 3, 76, 0
7, 148350, Note_on_c, 3, 78, 90
7, 148379, Note_on_c, 3, 78, 0
7, 148380, Note_on_c, 3, 79, 90
7, 148409, Note_on_c, 3, 79, 0
7, 148410, Note_on_c, 3, 78, 90
7, 148439, Note_on_c, 3, 78, 0
7, 148440, Note_on_c, 3, 81, 90
7, 148469, Note_on_c, 3, 81, 0
7, 148470, Note_on_c, 3, 79, 90
7, 148499, Note_on_c, 3, 79, 0
7, 148500, Note_on_c, 3, 78, 90
7, 148529, Note_on_c, 3, 78, 0
7, 148530, Note_on_c, 3, 76, 90
7, 148559, Note_on_c, 3, 76, 0
7, 148560, Note_on_c, 3, 78, 90
7, 148649, Note_on_c, 3, 78, 0
7, 148650, Note_on_c, 3, 79, 90
7, 148664, Note_on_c, 3, 79, 0
7, 148665, Note_on_c, 3, 81, 90
7, 148679, Note_on_c, 3, 81, 0
7, 148680, Note_on_c, 3, 79, 90
7, 148739, Note_on_c, 3, 79, 0
7, 148740, Note_on_c, 3, 78, 90
7, 148799, Note_on_c, 3, 78, 0
7, 148800, Note_on_c, 3, 80, 90
7, 148859, Note_on_c, 3, 80, 0
7, 148860, Note_on_c, 3, 81, 90
7, 148919, Note_on_c, 3, 81, 0
7, 148920, Note_on_c, 3, 83, 90
7, 148949, Note_on_c, 3, 83, 0
7, 148950, Note_on_c, 3, 85, 90
7, 148979, Note_on_c, 3, 85, 0
7, 148980, Note_on_c, 3, 86, 90
7, 149039, Note_on_c, 3, 86, 0
7, 149040, Note_on_c, 3, 85, 90
7, 149099, Note_on_c, 3, 85, 0
7, 149100, Note_on_c, 3, 83, 90
7, 149159, Note_on_c, 3, 83, 0
7, 149160, Note_on_c, 3, 81, 90
7, 149219, Note_on_c, 3, 81, 0
7, 149220, Note_on_c, 3, 80, 90
7, 149279, Note_on_c, 3, 80, 0
7, 149340, Note_on_c, 3, 69, 90
7, 149369, Note_on_c, 3, 69, 0
7, 149370, Note_on_c, 3, 68, 90
7, 149399, Note_on_c, 3, 68, 0
7, 149400, Note_on_c, 3, 69, 90
7, 149429, Note_on_c, 3, 69, 0
7, 149430, Note_on_c, 3, 71, 90
7, 149459, Note_on_c, 3, 71, 0
7, 149460, Note_on_c, 3, 73, 90
7, 149519, Note_on_c, 3, 73, 0
7, 149520, Note_on_c, 3, 76, 90
7, 149579, Note_on_c, 3, 76, 0
7, 149580, Note_on_c, 3, 74, 90
7, 149639, Note_on_c, 3, 74, 0
7, 149640, Note_on_c, 3, 76, 90
7, 149699, Note_on_c, 3, 76, 0
7, 149820, Note_on_c, 3, 73, 90
7, 149879, Note_on_c, 3, 73, 0
7, 149880, Note_on_c, 3, 76, 90
7, 149939, Note_on_c, 3, 76, 0
7, 149940, Note_on_c, 3, 74, 90
7, 149999, Note_on_c, 3, 74, 0
7, 150000, Note_on_c, 3, 73, 90
7, 150179, Note_on_c, 3, 73, 0
7, 150180, Note_on_c, 3, 66, 100
7, 150240, Note_on_c, 3, 66, 0
7, 150360, Note_on_c, 3, 71, 100
7, 150420, Note_on_c, 3, 71, 0
7, 150540, Note_on_c, 3, 78, 100
7, 150600, Note_on_c, 3, 78, 0
7, 150600, Note_on_c, 3, 76, 100
7, 150630, Note_on_c, 3, 76, 0
7, 150630, Note_on_c, 3, 74, 100
7, 150660, Note_on_c, 3, 74, 0
7, 150660, Note_on_c, 3, 73, 100
7, 150690, Note_on_c, 3, 73, 0
7, 150690, Note_on_c, 3, 71, 100
7, 150720, Note_on_c, 3, 71, 0
7, 150720, Note_on_c, 3, 69, 100
7, 150780, Note_on_c, 3, 69, 0
7, 150780, Note_on_c, 3, 67, 100
7, 150840, Note_on_c, 3, 67, 0
7, 150840, Note_on_c, 3, 66, 100
7, 150900, Note_on_c, 3, 66, 0
7, 150900, Note_on_c, 3, 64, 100
7, 150960, Note_on_c, 3, 64, 0
7, 152910, Note_on_c, 3, 69, 90
7, 152939, Note_on_c, 3, 69, 0
7, 152940, Note_on_c, 3, 78, 90
7, 152969, Note_on_c, 3, 78, 0
7, 152970, Note_on_c, 3, 74, 90
7, 152999, Note_on_c, 3, 74, 0
7, 153000, Note_on_c, 3, 76, 90
7, 153029, Note_on_c, 3, 76, 0
7, 153030, Note_on_c, 3, 73, 90
7, 153059, Note_on_c, 3, 73, 0
7, 153060, Note_on_c, 3, 74, 90
7, 153089, Note_on_c, 3, 74, 0
7, 153090, Note_on_c, 3, 76, 90
7, 153119, Note_on_c, 3, 76, 0
7, 153120, Note_on_c, 3, 78, 90
7, 153179, Note_on_c, 3, 78, 0
7, 153180, Note_on_c, 3, 78, 90
7, 153239, Note_on_c, 3, 78, 0
7, 153240, Note_on_c, 3, 78, 90
7, 153299, Note_on_c, 3, 78, 0
7, 153300, Note_on_c, 3, 74, 90
7, 153329, Note_on_c, 3, 74, 0
7, 153330, Note_on_c, 3, 76, 90
7, 153359, Note_on_c, 3, 76, 0
7, 153360, Note_on_c, 3, 78, 90
7, 153389, Note_on_c, 3, 78, 0
7, 153390, Note_on_c, 3, 79, 90
7, 153419, Note_on_c, 3, 79, 0
7, 153420, Note_on_c, 3, 81, 90
7, 153479, Note_on_c, 3, 81, 0
7, 153480, Note_on_c, 3, 79, 90
7, 153539, Note_on_c, 3, 79, 0
7, 153540, Note_on_c, 3, 78, 90
7, 153599, Note_on_c, 3, 78, 0
7, 153600, Note_on_c, 3, 79, 90
7, 153689, Note_on_c, 3, 79, 0
7, 153690, Note_on_c, 3, 81, 90
7, 153704, Note_on_c, 3, 81, 0
7, 153705, Note_on_c, 3, 83, 90
7, 153719, Note_on_c, 3, 83, 0
7, 153720, Note_on_c, 3, 81, 90
7, 153779, Note_on_c, 3, 81, 0
7, 153780, Note_on_c, 3, 79, 90
7, 153839, Note_on_c, 3, 79, 0
7, 153840, Note_on_c, 3, 79, 90
7, 153899, Note_on_c, 3, 79, 0
7, 153900, Note_on_c, 3, 79, 90
7, 153959, Note_on_c, 3, 79, 0
7, 153960, Note_on_c, 3, 79, 90
7, 154019, Note_on_c, 3, 79, 0
7, 154020, Note_on_c, 3, 76, 90
7, 154049, Note_on_c, 3, 76, 0
7, 154050, Note_on_c, 3, 74, 90
7, 154079, Note_on_c, 3, 74, 0
7, 154080, Note_on_c, 3, 76, 90
7, 154109, Note_on_c, 3, 76, 0
7, 154110, Note_on_c, 3, 78, 90
7, 154139, Note_on_c, 3, 78, 0
7, 154140, Note_on_c, 3, 79, 90
7, 154169, Note_on_c, 3, 79, 0
7, 154170, Note_on_c, 3, 78, 90
7, 154199, Note_on_c, 3, 78, 0
7, 154200, Note_on_c, 3, 81, 90
7, 154229, Note_on_c, 3, 81, 0
7, 154230, Note_on_c, 3, 79, 90
7, 154259, Note_on_c, 3, 79, 0
7, 154260, Note_on_c, 3, 78, 90
7, 154289, Note_on_c, 3, 78, 0
7, 154290, Note_on_c, 3, 76, 90
7, 154319, Note_on_c, 3, 76, 0
7, 154320, Note_on_c, 3, 78, 90
7, 154409, Note_on_c, 3, 78, 0
7, 154410, Note_on_c, 3, 79, 90
7, 154424, Note_on_c, 3, 79, 0
7, 154425, Note_on_c, 3, 81, 90
7, 154439, Note_on_c, 3, 81, 0
7, 154440, Note_on_c, 3, 79, 90
7, 154499, Note_on_c, 3, 79, 0
7, 154500, Note_on_c, 3, 78, 90
7, 154559, Note_on_c, 3, 78, 0
7, 154560, Note_on_c, 3, 80, 90
7, 154619, Note_on_c, 3, 80, 0
7, 154620, Note_on_c, 3, 81, 90
7, 154679, Note_on_c, 3, 81, 0
7, 154680, Note_on_c, 3, 83, 90
7, 154709, Note_on_c, 3, 83, 0
7, 154710, Note_on_c, 3, 85, 90
7, 154739, Note_on_c, 3, 85, 0
7, 154740, Note_on_c, 3, 86, 90
7, 154799, Note_on_c, 3, 86, 0
7, 154800, Note_on_c, 3, 85, 90
7, 154859, Note_on_c, 3, 85, 0
7, 154860, Note_on_c, 3, 83, 90
7, 154919, Note_on_c, 3, 83, 0
7, 154920, Note_on_c, 3, 81, 90
7, 154979, Note_on_c, 3, 81, 0
7, 154980, Note_on_c, 3, 80, 90
7, 155039, Note_on_c, 3, 80, 0
7, 155040, Note_on_c, 3, 81, 90
7, 155099, Note_on_c, 3, 81, 0
7, 155100, Note_on_c, 3, 69, 90
7, 155129, Note_on_c, 3, 69, 0
7, 155130, Note_on_c, 3, 68, 90
7, 155159, Note_on_c, 3, 68, 0
7, 155160, Note_on_c, 3, 69, 90
7, 155189, Note_on_c, 3, 69, 0
7, 155190, Note_on_c, 3, 71, 90
7, 155219, Note_on_c, 3, 71, 0
7, 155220, Note_on_c, 3, 73, 90
7, 155279, Note_on_c, 3, 73, 0
7, 155280, Note_on_c, 3, 76, 90
7, 155339, Note_on_c, 3, 76, 0
7, 155340, Note_on_c, 3, 74, 90
7, 155399, Note_on_c, 3, 74, 0
7, 155400, Note_on_c, 3, 73, 90
7, 155459, Note_on_c, 3, 73, 0
7, 155460, Note_on_c, 3, 69, 90
7, 155489, Note_on_c, 3, 69, 0
7, 155490, Note_on_c, 3, 68, 90
7, 155519, Note_on_c, 3, 68, 0
7, 155520, Note_on_c, 3, 69, 90
7, 155549, Note_on_c, 3, 69, 0
7, 155550, Note_on_c, 3, 71, 90
7, 155579, Note_on_c, 3, 71, 0
7, 155580, Note_on_c, 3, 73, 90
7, 155639, Note_on_c, 3, 73, 0
7, 155640, Note_on_c, 3, 76, 90
7, 155699, Note_on_c, 3, 76, 0
7, 155700, Note_on_c, 3, 74, 90
7, 155759, Note_on_c, 3, 74, 0
7, 155760, Note_on_c, 3, 73, 90
7, 155939, Note_on_c, 3, 73, 0
7, 155940, Note_on_c, 3, 73, 90
7, 155999, Note_on_c, 3, 73, 0
7, 156000, Note_on_c, 3, 73, 90
7, 156059, Note_on_c, 3, 73, 0
7, 156060, Note_on_c, 3, 73, 90
7, 156119, Note_on_c, 3, 73, 0
7, 156120, Note_on_c, 3, 73, 90
7, 156179, Note_on_c, 3, 73, 0
7, 156180, Note_on_c, 3, 76, 90
7, 156209, Note_on_c, 3, 76, 0
7, 156210, Note_on_c, 3, 74, 90
7, 156239, Note_on_c, 3, 74, 0
7, 156240, Note_on_c, 3, 73, 90
7, 156269, Note_on_c, 3, 73, 0
7, 156270, Note_on_c, 3, 71, 90
7, 156299, Note_on_c, 3, 71, 0
7, 156300, Note_on_c, 3, 69, 90
7, 156359, Note_on_c, 3, 69, 0
7, 156360, Note_on_c, 3, 74, 90
7, 156419, Note_on_c, 3, 74, 0
7, 156420, Note_on_c, 3, 76, 90
7, 156479, Note_on_c, 3, 76, 0
7, 156480, Note_on_c, 3, 78, 90
7, 156539, Note_on_c, 3, 78, 0
7, 156540, Note_on_c, 3, 76, 90
7, 156629, Note_on_c, 3, 76, 0
7, 156630, Note_on_c, 3, 78, 90
7, 156644, Note_on_c, 3, 78, 0
7, 156645, Note_on_c, 3, 79, 90
7, 156659, Note_on_c, 3, 79, 0
7, 156660, Note_on_c, 3, 78, 90
7, 156719, Note_on_c, 3, 78, 0
7, 156720, Note_on_c, 3, 78, 90
7, 156779, Note_on_c, 3, 78, 0
7, 156780, Note_on_c, 3, 78, 90
7, 156839, Note_on_c, 3, 78, 0
7, 156840, Note_on_c, 3, 78, 90
7, 156899, Note_on_c, 3, 78, 0
7, 156900, Note_on_c, 3, 81, 90
7, 156929, Note_on_c, 3, 81, 0
7, 156930, Note_on_c, 3, 79, 90
7, 156959, Note_on_c, 3, 79, 0
7, 156960, Note_on_c, 3, 78, 90
7, 156989, Note_on_c, 3, 78, 0
7, 156990, Note_on_c, 3, 76, 90
7, 157019, Note_on_c, 3, 76, 0
7, 157020, Note_on_c, 3, 74, 90
7, 157079, Note_on_c, 3, 74, 0
7, 157080, Note_on_c, 3, 79, 90
7, 157139, Note_on_c, 3, 79, 0
7, 157140, Note_on_c, 3, 81, 90
7, 157199, Note_on_c, 3, 81, 0
7, 157200, Note_on_c, 3, 83, 90
7, 157259, Note_on_c, 3, 83, 0
7, 157260, Note_on_c, 3, 81, 90
7, 157349, Note_on_c, 3, 81, 0
7, 157350, Note_on_c, 3, 83, 90
7, 157365, Note_on_c, 3, 83, 0
7, 157365, Note_on_c, 3, 84, 90
7, 157380, Note_on_c, 3, 84, 0
7, 157380, Note_on_c, 3, 83, 90
7, 157440, Note_on_c, 3, 83, 0
7, 157440, Note_on_c, 3, 81, 90
7, 157470, Note_on_c, 3, 81, 0
7, 157470, Note_on_c, 3, 79, 90
7, 157500, Note_on_c, 3, 79, 0
7, 157500, Note_on_c, 3, 78, 90
7, 157530, Note_on_c, 3, 78, 0
7, 157530, Note_on_c, 3, 76, 90
7, 157560, Note_on_c, 3, 76, 0
7, 157560, Note_on_c, 3, 81, 90
7, 157620, Note_on_c, 3, 81, 0
7, 157620, Note_on_c, 3, 74, 90
7, 157680, Note_on_c, 3, 74, 0
7, 157680, Note_on_c, 3, 79, 90
7, 157740, Note_on_c, 3, 79, 0
7, 157740, Note_on_c, 3, 78, 90
7, 157800, Note_on_c, 3, 78, 0
7, 157800, Note_on_c, 3, 79, 90
7, 157860, Note_on_c, 3, 79, 0
7, 157860, Note_on_c, 3, 76, 90
7, 157920, Note_on_c, 3, 76, 0
7, 157920, Note_on_c, 3, 74, 90
7, 157950, Note_on_c, 3, 74, 0
7, 157950, Note_on_c, 3, 76, 90
7, 157980, Note_on_c, 3, 76, 0
7, 157980, Note_on_c, 3, 74, 90
7, 158010, Note_on_c, 3, 74, 0
7, 158010, Note_on_c, 3, 73, 90
7, 158040, Note_on_c, 3, 73, 0
7, 158040, Note_on_c, 3, 74, 90
7, 158070, Note_on_c, 3, 74, 0
7, 158070, Note_on_c, 3, 76, 90
7, 158100, Note_on_c, 3, 76, 0
7, 158100, Note_on_c, 3, 78, 90
7, 158160, Note_on_c, 3, 78, 0
7, 158160, Note_on_c, 3, 81, 90
7, 158220, Note_on_c, 3, 81, 0
7, 158220, Note_on_c, 3, 79, 90
7, 158280, Note_on_c, 3, 79, 0
7, 158280, Note_on_c, 3, 78, 90
7, 158340, Note_on_c, 3, 78, 0
7, 158340, Note_on_c, 3, 69, 90
7, 158400, Note_on_c, 3, 69, 0
7, 158400, Note_on_c, 3, 71, 90
7, 158460, Note_on_c, 3, 71, 0
7, 158460, Note_on_c, 3, 72, 90
7, 158520, Note_on_c, 3, 72, 0
7, 158520, Note_on_c, 3, 71, 90
7, 158550, Note_on_c, 3, 71, 0
7, 158550, Note_on_c, 3, 69, 90
7, 158580, Note_on_c, 3, 69, 0
7, 158580, Note_on_c, 3, 71, 90
7, 158610, Note_on_c, 3, 71, 0
7, 158610, Note_on_c, 3, 73, 90
7, 158640, Note_on_c, 3, 73, 0
7, 158640, Note_on_c, 3, 74, 90
7, 158819, Note_on_c, 3, 74, 0
7, 158820, Note_on_c, 3, 69, 90
7, 158879, Note_on_c, 3, 69, 0
7, 159000, Note_on_c, 3, 81, 90
7, 159059, Note_on_c, 3, 81, 0
7, 159180, Note_on_c, 3, 69, 90
7, 159239, Note_on_c, 3, 69, 0
7, 159240, Note_on_c, 3, 73, 90
7, 159299, Note_on_c, 3, 73, 0
7, 159300, Note_on_c, 3, 74, 90
7, 159419, Note_on_c, 3, 74, 0
7, 159420, Note_on_c, 3, 79, 90
7, 159479, Note_on_c, 3, 79, 0
7, 159480, Note_on_c, 3, 78, 90
7, 159539, Note_on_c, 3, 78, 0
7, 159540, Note_on_c, 3, 78, 90
7, 159599, Note_on_c, 3, 78, 0
7, 161550, Note_on_c, 3, 76, 90
7, 161580, Note_on_c, 3, 76, 0
7, 161580, Note_on_c, 3, 73, 90
7, 161610, Note_on_c, 3, 73, 0
7, 161610, Note_on_c, 3, 69, 90
7, 161640, Note_on_c, 3, 69, 0
7, 161640, Note_on_c, 3, 71, 90
7, 161670, Note_on_c, 3, 71, 0
7, 161670, Note_on_c, 3, 68, 90
7, 161700, Note_on_c, 3, 68, 0
7, 161700, Note_on_c, 3, 69, 90
7, 161730, Note_on_c, 3, 69, 0
7, 161730, Note_on_c, 3, 71, 90
7, 161760, Note_on_c, 3, 71, 0
7, 161760, Note_on_c, 3, 73, 90
7, 161819, Note_on_c, 3, 73, 0
7, 161820, Note_on_c, 3, 73, 90
7, 161879, Note_on_c, 3, 73, 0
7, 161880, Note_on_c, 3, 73, 90
7, 161939, Note_on_c, 3, 73, 0
7, 161940, Note_on_c, 3, 76, 90
7, 161969, Note_on_c, 3, 76, 0
7, 161970, Note_on_c, 3, 74, 90
7, 161999, Note_on_c, 3, 74, 0
7, 162000, Note_on_c, 3, 73, 90
7, 162029, Note_on_c, 3, 73, 0
7, 162030, Note_on_c, 3, 71, 90
7, 162059, Note_on_c, 3, 71, 0
7, 162060, Note_on_c, 3, 69, 90
7, 162119, Note_on_c, 3, 69, 0
7, 162120, Note_on_c, 3, 74, 90
7, 162179, Note_on_c, 3, 74, 0
7, 162180, Note_on_c, 3, 76, 90
7, 162239, Note_on_c, 3, 76, 0
7, 162240, Note_on_c, 3, 78, 90
7, 162299, Note_on_c, 3, 78, 0
7, 162300, Note_on_c, 3, 76, 90
7, 162389, Note_on_c, 3, 76, 0
7, 162390, Note_on_c, 3, 78, 90
7, 162404, Note_on_c, 3, 78, 0
7, 162405, Note_on_c, 3, 79, 90
7, 162419, Note_on_c, 3, 79, 0
7, 162420, Note_on_c, 3, 78, 90
7, 162479, Note_on_c, 3, 78, 0
7, 162480, Note_on_c, 3, 78, 90
7, 162539, Note_on_c, 3, 78, 0
7, 162540, Note_on_c, 3, 78, 90
7, 162599, Note_on_c, 3, 78, 0
7, 162600, Note_on_c, 3, 78, 90
7, 162659, Note_on_c, 3, 78, 0
7, 162660, Note_on_c, 3, 81, 90
7, 162689, Note_on_c, 3, 81, 0
7, 162690, Note_on_c, 3, 79, 90
7, 162719, Note_on_c, 3, 79, 0
7, 162720, Note_on_c, 3, 78, 90
7, 162749, Note_on_c, 3, 78, 0
7, 162750, Note_on_c, 3, 76, 90
7, 162779, Note_on_c, 3, 76, 0
7, 162780, Note_on_c, 3, 74, 90
7, 162839, Note_on_c, 3, 74, 0
7, 162840, Note_on_c, 3, 79, 90
7, 162899, Note_on_c, 3, 79, 0
7, 162900, Note_on_c, 3, 81, 90
7, 162959, Note_on_c, 3, 81, 0
7, 162960, Note_on_c, 3, 83, 90
7, 163019, Note_on_c, 3, 83, 0
7, 163020, Note_on_c, 3, 81, 90
7, 163109, Note_on_c, 3, 81, 0
7, 163110, Note_on_c, 3, 83, 90
7, 163125, Note_on_c, 3, 83, 0
7, 163125, Note_on_c, 3, 84, 90
7, 163140, Note_on_c, 3, 84, 0
7, 163140, Note_on_c, 3, 83, 90
7, 163200, Note_on_c, 3, 83, 0
7, 163200, Note_on_c, 3, 81, 90
7, 163230, Note_on_c, 3, 81, 0
7, 163230, Note_on_c, 3, 79, 90
7, 163260, Note_on_c, 3, 79, 0
7, 163260, Note_on_c, 3, 78, 90
7, 163290, Note_on_c, 3, 78, 0
7, 163290, Note_on_c, 3, 76, 90
7, 163320, Note_on_c, 3, 76, 0
7, 163320, Note_on_c, 3, 81, 90
7, 163380, Note_on_c, 3, 81, 0
7, 163380, Note_on_c, 3, 74, 90
7, 163440, Note_on_c, 3, 74, 0
7, 163440, Note_on_c, 3, 79, 90
7, 163500, Note_on_c, 3, 79, 0
7, 163500, Note_on_c, 3, 78, 90
7, 163560, Note_on_c, 3, 78, 0
7, 163560, Note_on_c, 3, 79, 90
7, 163620, Note_on_c, 3, 79, 0
7, 163620, Note_on_c, 3, 76, 90
7, 163680, Note_on_c, 3, 76, 0
7, 163680, Note_on_c, 3, 74, 90
7, 163710, Note_on_c, 3, 74, 0
7, 163710, Note_on_c, 3, 76, 90
7, 163740, Note_on_c, 3, 76, 0
7, 163740, Note_on_c, 3, 74, 90
7, 163770, Note_on_c, 3, 74, 0
7, 163770, Note_on_c, 3, 73, 90
7, 163800, Note_on_c, 3, 73, 0
7, 163800, Note_on_c, 3, 74, 90
7, 163830, Note_on_c, 3, 74, 0
7, 163830, Note_on_c, 3, 76, 90
7, 163860, Note_on_c, 3, 76, 0
7, 163860, Note_on_c, 3, 78, 90
7, 163920, Note_on_c, 3, 78, 0
7, 163920, Note_on_c, 3, 81, 90
7, 163980, Note_on_c, 3, 81, 0
7, 163980, Note_on_c, 3, 79, 90
7, 164040, Note_on_c, 3, 79, 0
7, 164040, Note_on_c, 3, 78, 90
7, 164100, Note_on_c, 3, 78, 0
7, 164100, Note_on_c, 3, 69, 90
7, 164160, Note_on_c, 3, 69, 0
7, 164160, Note_on_c, 3, 71, 90
7, 164220, Note_on_c, 3, 71, 0
7, 164220, Note_on_c, 3, 72, 90
7, 164280, Note_on_c, 3, 72, 0
7, 164280, Note_on_c, 3, 71, 90
7, 164310, Note_on_c, 3, 71, 0
7, 164310, Note_on_c, 3, 69, 90
7, 164340, Note_on_c, 3, 69, 0
7, 164340, Note_on_c, 3, 71, 90
7, 164370, Note_on_c, 3, 71, 0
7, 164370, Note_on_c, 3, 73, 90
7, 164400, Note_on_c, 3, 73, 0
7, 164400, Note_on_c, 3, 74, 90
7, 164579, Note_on_c, 3, 74, 0
7, 164579, End_track
8, 0, Start_track
8, 0, MIDI_port, 0
8, 0, Title_t, "oboe i"
8, 0, Program_c, 4, 68
8, 0, Control_c, 4, 7, 127
8, 0, Control_c, 4, 10, 46
8, 0, Note_on_c, 4, 78, 90
8, 59, Note_on_c, 4, 78, 0
8, 60, Note_on_c, 4, 78, 90
8, 119, Note_on_c, 4, 78, 0
8, 120, Note_on_c, 4, 78, 90
8, 179, Note_on_c, 4, 78, 0
8, 180, Note_on_c, 4, 78, 90
8, 239, Note_on_c, 4, 78, 0
8, 240, Note_on_c, 4, 74, 90
8, 269, Note_on_c, 4, 74, 0
8, 270, Note_on_c, 4, 76, 90
8, 299, Note_on_c, 4, 76, 0
8, 300, Note_on_c, 4, 78, 90
8, 329, Note_on_c, 4, 78, 0
8, 330, Note_on_c, 4, 79, 90
8, 359, Note_on_c, 4, 79, 0
8, 360, Note_on_c, 4, 81, 90
8, 419, Note_on_c, 4, 81, 0
8, 420, Note_on_c, 4, 79, 90
8, 479, Note_on_c, 4, 79, 0
8, 480, Note_on_c, 4, 78, 90
8, 539, Note_on_c, 4, 78, 0
8, 540, Note_on_c, 4, 79, 90
8, 629, Note_on_c, 4, 79, 0
8, 630, Note_on_c, 4, 81, 90
8, 644, Note_on_c, 4, 81, 0
8, 645, Note_on_c, 4, 83, 90
8, 659, Note_on_c, 4, 83, 0
8, 660, Note_on_c, 4, 81, 90
8, 719, Note_on_c, 4, 81, 0
8, 720, Note_on_c, 4, 79, 90
8, 779, Note_on_c, 4, 79, 0
8, 780, Note_on_c, 4, 79, 90
8, 839, Note_on_c, 4, 79, 0
8, 840, Note_on_c, 4, 79, 90
8, 899, Note_on_c, 4, 79, 0
8, 900, Note_on_c, 4, 79, 90
8, 959, Note_on_c, 4, 79, 0
8, 960, Note_on_c, 4, 76, 90
8, 989, Note_on_c, 4, 76, 0
8, 990, Note_on_c, 4, 74, 90
8, 1019, Note_on_c, 4, 74, 0
8, 1020, Note_on_c, 4, 76, 90
8, 1049, Note_on_c, 4, 76, 0
8, 1050, Note_on_c, 4, 78, 90
8, 1079, Note_on_c, 4, 78, 0
8, 1080, Note_on_c, 4, 79, 90
8, 1109, Note_on_c, 4, 79, 0
8, 1110, Note_on_c, 4, 78, 90
8, 1139, Note_on_c, 4, 78, 0
8, 1140, Note_on_c, 4, 81, 90
8, 1169, Note_on_c, 4, 81, 0
8, 1170, Note_on_c, 4, 79, 90
8, 1199, Note_on_c, 4, 79, 0
8, 1200, Note_on_c, 4, 78, 90
8, 1229, Note_on_c, 4, 78, 0
8, 1230, Note_on_c, 4, 76, 90
8, 1259, Note_on_c, 4, 76, 0
8, 1260, Note_on_c, 4, 78, 90
8, 1349, Note_on_c, 4, 78, 0
8, 1350, Note_on_c, 4, 79, 90
8, 1364, Note_on_c, 4, 79, 0
8, 1365, Note_on_c, 4, 81, 90
8, 1379, Note_on_c, 4, 81, 0
8, 1380, Note_on_c, 4, 79, 90
8, 1439, Note_on_c, 4, 79, 0
8, 1440, Note_on_c, 4, 78, 90
8, 1499, Note_on_c, 4, 78, 0
8, 1500, Note_on_c, 4, 80, 90
8, 1559, Note_on_c, 4, 80, 0
8, 1560, Note_on_c, 4, 81, 90
8, 1619, Note_on_c, 4, 81, 0
8, 1620, Note_on_c, 4, 83, 90
8, 1649, Note_on_c, 4, 83, 0
8, 1650, Note_on_c, 4, 85, 90
8, 1679, Note_on_c, 4, 85, 0
8, 1680, Note_on_c, 4, 86, 90
8, 1739, Note_on_c, 4, 86, 0
8, 1740, Note_on_c, 4, 85, 90
8, 1799, Note_on_c, 4, 85, 0
8, 1800, Note_on_c, 4, 83, 90
8, 1859, Note_on_c, 4, 83, 0
8, 1860, Note_on_c, 4, 81, 90
8, 1919, Note_on_c, 4, 81, 0
8, 1920, Note_on_c, 4, 80, 90
8, 1979, Note_on_c, 4, 80, 0
8, 1980, Note_on_c, 4, 81, 90
8, 2039, Note_on_c, 4, 81, 0
8, 2220, Note_on_c, 4, 79, 90
8, 2280, Note_on_c, 4, 79, 0
8, 2280, Note_on_c, 4, 78, 90
8, 2340, Note_on_c, 4, 78, 0
8, 2340, Note_on_c, 4, 76, 90
8, 2399, Note_on_c, 4, 76, 0
8, 2400, Note_on_c, 4, 73, 90
8, 2429, Note_on_c, 4, 73, 0
8, 2430, Note_on_c, 4, 71, 90
8, 2459, Note_on_c, 4, 71, 0
8, 2460, Note_on_c, 4, 73, 90
8, 2489, Note_on_c, 4, 73, 0
8, 2490, Note_on_c, 4, 74, 90
8, 2519, Note_on_c, 4, 74, 0
8, 2520, Note_on_c, 4, 76, 90
8, 2579, Note_on_c, 4, 76, 0
8, 2580, Note_on_c, 4, 76, 90
8, 2639, Note_on_c, 4, 76, 0
8, 2640, Note_on_c, 4, 74, 90
8, 2699, Note_on_c, 4, 74, 0
8, 2700, Note_on_c, 4, 73, 90
8, 2879, Note_on_c, 4, 73, 0
8, 3600, Note_on_c, 4, 69, 90
8, 3659, Note_on_c, 4, 69, 0
8, 3660, Note_on_c, 4, 73, 90
8, 3719, Note_on_c, 4, 73, 0
8, 3720, Note_on_c, 4, 76, 90
8, 3779, Note_on_c, 4, 76, 0
8, 3780, Note_on_c, 4, 81, 90
8, 3839, Note_on_c, 4, 81, 0
8, 3960, Note_on_c, 4, 76, 90
8, 4019, Note_on_c, 4, 76, 0
8, 4140, Note_on_c, 4, 73, 90
8, 4199, Note_on_c, 4, 73, 0
8, 4200, Note_on_c, 4, 74, 90
8, 4259, Note_on_c, 4, 74, 0
8, 4260, Note_on_c, 4, 69, 90
8, 4319, Note_on_c, 4, 69, 0
8, 4320, Note_on_c, 4, 66, 90
8, 4379, Note_on_c, 4, 66, 0
8, 5760, Note_on_c, 4, 78, 90
8, 5819, Note_on_c, 4, 78, 0
8, 5820, Note_on_c, 4, 78, 90
8, 5879, Note_on_c, 4, 78, 0
8, 5880, Note_on_c, 4, 78, 90
8, 5939, Note_on_c, 4, 78, 0
8, 5940, Note_on_c, 4, 78, 90
8, 5999, Note_on_c, 4, 78, 0
8, 6000, Note_on_c, 4, 74, 90
8, 6029, Note_on_c, 4, 74, 0
8, 6030, Note_on_c, 4, 76, 90
8, 6059, Note_on_c, 4, 76, 0
8, 6060, Note_on_c, 4, 78, 90
8, 6089, Note_on_c, 4, 78, 0
8, 6090, Note_on_c, 4, 79, 90
8, 6119, Note_on_c, 4, 79, 0
8, 6120, Note_on_c, 4, 81, 90
8, 6179, Note_on_c, 4, 81, 0
8, 6180, Note_on_c, 4, 79, 90
8, 6239, Note_on_c, 4, 79, 0
8, 6240, Note_on_c, 4, 78, 90
8, 6299, Note_on_c, 4, 78, 0
8, 6300, Note_on_c, 4, 79, 90
8, 6389, Note_on_c, 4, 79, 0
8, 6390, Note_on_c, 4, 81, 90
8, 6404, Note_on_c, 4, 81, 0
8, 6405, Note_on_c, 4, 83, 90
8, 6419, Note_on_c, 4, 83, 0
8, 6420, Note_on_c, 4, 81, 90
8, 6479, Note_on_c, 4, 81, 0
8, 6480, Note_on_c, 4, 79, 90
8, 6539, Note_on_c, 4, 79, 0
8, 6540, Note_on_c, 4, 79, 90
8, 6599, Note_on_c, 4, 79, 0
8, 6600, Note_on_c, 4, 79, 90
8, 6659, Note_on_c, 4, 79, 0
8, 6660, Note_on_c, 4, 79, 90
8, 6719, Note_on_c, 4, 79, 0
8, 6720, Note_on_c, 4, 76, 90
8, 6749, Note_on_c, 4, 76, 0
8, 6750, Note_on_c, 4, 74, 90
8, 6779, Note_on_c, 4, 74, 0
8, 6780, Note_on_c, 4, 76, 90
8, 6809, Note_on_c, 4, 76, 0
8, 6810, Note_on_c, 4, 78, 90
8, 6839, Note_on_c, 4, 78, 0
8, 6840, Note_on_c, 4, 79, 90
8, 6869, Note_on_c, 4, 79, 0
8, 6870, Note_on_c, 4, 78, 90
8, 6899, Note_on_c, 4, 78, 0
8, 6900, Note_on_c, 4, 81, 90
8, 6929, Note_on_c, 4, 81, 0
8, 6930, Note_on_c, 4, 79, 90
8, 6959, Note_on_c, 4, 79, 0
8, 6960, Note_on_c, 4, 78, 90
8, 6989, Note_on_c, 4, 78, 0
8, 6990, Note_on_c, 4, 76, 90
8, 7019, Note_on_c, 4, 76, 0
8, 7020, Note_on_c, 4, 78, 90
8, 7109, Note_on_c, 4, 78, 0
8, 7110, Note_on_c, 4, 79, 90
8, 7124, Note_on_c, 4, 79, 0
8, 7125, Note_on_c, 4, 81, 90
8, 7139, Note_on_c, 4, 81, 0
8, 7140, Note_on_c, 4, 79, 90
8, 7199, Note_on_c, 4, 79, 0
8, 7200, Note_on_c, 4, 78, 90
8, 7259, Note_on_c, 4, 78, 0
8, 7260, Note_on_c, 4, 80, 90
8, 7319, Note_on_c, 4, 80, 0
8, 7320, Note_on_c, 4, 81, 90
8, 7379, Note_on_c, 4, 81, 0
8, 7380, Note_on_c, 4, 83, 90
8, 7409, Note_on_c, 4, 83, 0
8, 7410, Note_on_c, 4, 85, 90
8, 7439, Note_on_c, 4, 85, 0
8, 7440, Note_on_c, 4, 86, 90
8, 7499, Note_on_c, 4, 86, 0
8, 7500, Note_on_c, 4, 85, 90
8, 7559, Note_on_c, 4, 85, 0
8, 7560, Note_on_c, 4, 83, 90
8, 7619, Note_on_c, 4, 83, 0
8, 7620, Note_on_c, 4, 81, 90
8, 7679, Note_on_c, 4, 81, 0
8, 7680, Note_on_c, 4, 80, 90
8, 7739, Note_on_c, 4, 80, 0
8, 7740, Note_on_c, 4, 81, 90
8, 7799, Note_on_c, 4, 81, 0
8, 7980, Note_on_c, 4, 79, 90
8, 8039, Note_on_c, 4, 79, 0
8, 8040, Note_on_c, 4, 78, 90
8, 8099, Note_on_c, 4, 78, 0
8, 8100, Note_on_c, 4, 76, 90
8, 8159, Note_on_c, 4, 76, 0
8, 8160, Note_on_c, 4, 73, 90
8, 8189, Note_on_c, 4, 73, 0
8, 8190, Note_on_c, 4, 71, 90
8, 8219, Note_on_c, 4, 71, 0
8, 8220, Note_on_c, 4, 73, 90
8, 8249, Note_on_c, 4, 73, 0
8, 8250, Note_on_c, 4, 74, 90
8, 8279, Note_on_c, 4, 74, 0
8, 8280, Note_on_c, 4, 76, 90
8, 8339, Note_on_c, 4, 76, 0
8, 8340, Note_on_c, 4, 76, 90
8, 8399, Note_on_c, 4, 76, 0
8, 8400, Note_on_c, 4, 74, 90
8, 8459, Note_on_c, 4, 74, 0
8, 8460, Note_on_c, 4, 73, 90
8, 8639, Note_on_c, 4, 73, 0
8, 8640, Note_on_c, 4, 73, 90
8, 8699, Note_on_c, 4, 73, 0
8, 8700, Note_on_c, 4, 73, 90
8, 8759, Note_on_c, 4, 73, 0
8, 8760, Note_on_c, 4, 73, 90
8, 8819, Note_on_c, 4, 73, 0
8, 8820, Note_on_c, 4, 73, 90
8, 8879, Note_on_c, 4, 73, 0
8, 8880, Note_on_c, 4, 76, 90
8, 8909, Note_on_c, 4, 76, 0
8, 8910, Note_on_c, 4, 74, 90
8, 8939, Note_on_c, 4, 74, 0
8, 8940, Note_on_c, 4, 73, 90
8, 8969, Note_on_c, 4, 73, 0
8, 8970, Note_on_c, 4, 71, 90
8, 8999, Note_on_c, 4, 71, 0
8, 9000, Note_on_c, 4, 69, 90
8, 9059, Note_on_c, 4, 69, 0
8, 9060, Note_on_c, 4, 74, 90
8, 9119, Note_on_c, 4, 74, 0
8, 9120, Note_on_c, 4, 76, 90
8, 9179, Note_on_c, 4, 76, 0
8, 9180, Note_on_c, 4, 78, 90
8, 9239, Note_on_c, 4, 78, 0
8, 9240, Note_on_c, 4, 76, 90
8, 9329, Note_on_c, 4, 76, 0
8, 9330, Note_on_c, 4, 78, 90
8, 9344, Note_on_c, 4, 78, 0
8, 9345, Note_on_c, 4, 79, 90
8, 9359, Note_on_c, 4, 79, 0
8, 9360, Note_on_c, 4, 78, 90
8, 9419, Note_on_c, 4, 78, 0
8, 9420, Note_on_c, 4, 78, 90
8, 9479, Note_on_c, 4, 78, 0
8, 9480, Note_on_c, 4, 78, 90
8, 9539, Note_on_c, 4, 78, 0
8, 9540, Note_on_c, 4, 78, 90
8, 9599, Note_on_c, 4, 78, 0
8, 9600, Note_on_c, 4, 81, 90
8, 9629, Note_on_c, 4, 81, 0
8, 9630, Note_on_c, 4, 79, 90
8, 9659, Note_on_c, 4, 79, 0
8, 9660, Note_on_c, 4, 78, 90
8, 9689, Note_on_c, 4, 78, 0
8, 9690, Note_on_c, 4, 76, 90
8, 9719, Note_on_c, 4, 76, 0
8, 9720, Note_on_c, 4, 74, 90
8, 9779, Note_on_c, 4, 74, 0
8, 9780, Note_on_c, 4, 79, 90
8, 9839, Note_on_c, 4, 79, 0
8, 9840, Note_on_c, 4, 81, 90
8, 9899, Note_on_c, 4, 81, 0
8, 9900, Note_on_c, 4, 83, 90
8, 9959, Note_on_c, 4, 83, 0
8, 9960, Note_on_c, 4, 81, 90
8, 10049, Note_on_c, 4, 81, 0
8, 10050, Note_on_c, 4, 83, 90
8, 10065, Note_on_c, 4, 83, 0
8, 10065, Note_on_c, 4, 84, 90
8, 10080, Note_on_c, 4, 84, 0
8, 10080, Note_on_c, 4, 83, 90
8, 10140, Note_on_c, 4, 83, 0
8, 10140, Note_on_c, 4, 81, 90
8, 10170, Note_on_c, 4, 81, 0
8, 10170, Note_on_c, 4, 79, 90
8, 10200, Note_on_c, 4, 79, 0
8, 10200, Note_on_c, 4, 78, 90
8, 10230, Note_on_c, 4, 78, 0
8, 10230, Note_on_c, 4, 76, 90
8, 10260, Note_on_c, 4, 76, 0
8, 10260, Note_on_c, 4, 81, 90
8, 10320, Note_on_c, 4, 81, 0
8, 10320, Note_on_c, 4, 74, 90
8, 10380, Note_on_c, 4, 74, 0
8, 10380, Note_on_c, 4, 79, 90
8, 10440, Note_on_c, 4, 79, 0
8, 10440, Note_on_c, 4, 78, 90
8, 10500, Note_on_c, 4, 78, 0
8, 10500, Note_on_c, 4, 79, 90
8, 10560, Note_on_c, 4, 79, 0
8, 10560, Note_on_c, 4, 76, 90
8, 10620, Note_on_c, 4, 76, 0
8, 10620, Note_on_c, 4, 74, 90
8, 10740, Note_on_c, 4, 74, 0
8, 10860, Note_on_c, 4, 84, 90
8, 10920, Note_on_c, 4, 84, 0
8, 10920, Note_on_c, 4, 83, 90
8, 10980, Note_on_c, 4, 83, 0
8, 10980, Note_on_c, 4, 81, 90
8, 11040, Note_on_c, 4, 81, 0
8, 11040, Note_on_c, 4, 74, 90
8, 11070, Note_on_c, 4, 74, 0
8, 11070, Note_on_c, 4, 73, 90
8, 11100, Note_on_c, 4, 73, 0
8, 11100, Note_on_c, 4, 74, 90
8, 11130, Note_on_c, 4, 74, 0
8, 11130, Note_on_c, 4, 76, 90
8, 11160, Note_on_c, 4, 76, 0
8, 11160, Note_on_c, 4, 78, 90
8, 11220, Note_on_c, 4, 78, 0
8, 11220, Note_on_c, 4, 81, 90
8, 11280, Note_on_c, 4, 81, 0
8, 11280, Note_on_c, 4, 79, 90
8, 11340, Note_on_c, 4, 79, 0
8, 11340, Note_on_c, 4, 78, 90
8, 11519, Note_on_c, 4, 78, 0
8, 12240, Note_on_c, 4, 74, 90
8, 12299, Note_on_c, 4, 74, 0
8, 12300, Note_on_c, 4, 78, 90
8, 12359, Note_on_c, 4, 78, 0
8, 12360, Note_on_c, 4, 74, 90
8, 12419, Note_on_c, 4, 74, 0
8, 12420, Note_on_c, 4, 69, 90
8, 12479, Note_on_c, 4, 69, 0
8, 12480, Note_on_c, 4, 66, 90
8, 12539, Note_on_c, 4, 66, 0
8, 12540, Note_on_c, 4, 74, 90
8, 12599, Note_on_c, 4, 74, 0
8, 12600, Note_on_c, 4, 71, 90
8, 12659, Note_on_c, 4, 71, 0
8, 12720, Note_on_c, 4, 79, 90
8, 12779, Note_on_c, 4, 79, 0
8, 12780, Note_on_c, 4, 78, 90
8, 12839, Note_on_c, 4, 78, 0
8, 12900, Note_on_c, 4, 83, 90
8, 12959, Note_on_c, 4, 83, 0
8, 12960, Note_on_c, 4, 76, 90
8, 13019, Note_on_c, 4, 76, 0
8, 14400, Note_on_c, 4, 73, 90
8, 14459, Note_on_c, 4, 73, 0
8, 14460, Note_on_c, 4, 73, 90
8, 14519, Note_on_c, 4, 73, 0
8, 14520, Note_on_c, 4, 73, 90
8, 14579, Note_on_c, 4, 73, 0
8, 14580, Note_on_c, 4, 73, 90
8, 14639, Note_on_c, 4, 73, 0
8, 14640, Note_on_c, 4, 76, 90
8, 14669, Note_on_c, 4, 76, 0
8, 14670, Note_on_c, 4, 74, 90
8, 14699, Note_on_c, 4, 74, 0
8, 14700, Note_on_c, 4, 73, 90
8, 14729, Note_on_c, 4, 73, 0
8, 14730, Note_on_c, 4, 71, 90
8, 14759, Note_on_c, 4, 71, 0
8, 14760, Note_on_c, 4, 69, 90
8, 14819, Note_on_c, 4, 69, 0
8, 14820, Note_on_c, 4, 74, 90
8, 14879, Note_on_c, 4, 74, 0
8, 14880, Note_on_c, 4, 76, 90
8, 14939, Note_on_c, 4, 76, 0
8, 14940, Note_on_c, 4, 78, 90
8, 14999, Note_on_c, 4, 78, 0
8, 15000, Note_on_c, 4, 76, 90
8, 15089, Note_on_c, 4, 76, 0
8, 15090, Note_on_c, 4, 78, 90
8, 15104, Note_on_c, 4, 78, 0
8, 15105, Note_on_c, 4, 79, 90
8, 15119, Note_on_c, 4, 79, 0
8, 15120, Note_on_c, 4, 78, 90
8, 15179, Note_on_c, 4, 78, 0
8, 15180, Note_on_c, 4, 78, 90
8, 15239, Note_on_c, 4, 78, 0
8, 15240, Note_on_c, 4, 78, 90
8, 15299, Note_on_c, 4, 78, 0
8, 15300, Note_on_c, 4, 78, 90
8, 15359, Note_on_c, 4, 78, 0
8, 15360, Note_on_c, 4, 81, 90
8, 15389, Note_on_c, 4, 81, 0
8, 15390, Note_on_c, 4, 79, 90
8, 15419, Note_on_c, 4, 79, 0
8, 15420, Note_on_c, 4, 78, 90
8, 15449, Note_on_c, 4, 78, 0
8, 15450, Note_on_c, 4, 76, 90
8, 15479, Note_on_c, 4, 76, 0
8, 15480, Note_on_c, 4, 74, 90
8, 15539, Note_on_c, 4, 74, 0
8, 15540, Note_on_c, 4, 79, 90
8, 15599, Note_on_c, 4, 79, 0
8, 15600, Note_on_c, 4, 81, 90
8, 15659, Note_on_c, 4, 81, 0
8, 15660, Note_on_c, 4, 83, 90
8, 15719, Note_on_c, 4, 83, 0
8, 15720, Note_on_c, 4, 81, 90
8, 15809, Note_on_c, 4, 81, 0
8, 15810, Note_on_c, 4, 83, 90
8, 15825, Note_on_c, 4, 83, 0
8, 15825, Note_on_c, 4, 84, 90
8, 15840, Note_on_c, 4, 84, 0
8, 15840, Note_on_c, 4, 83, 90
8, 15900, Note_on_c, 4, 83, 0
8, 15900, Note_on_c, 4, 81, 90
8, 15930, Note_on_c, 4, 81, 0
8, 15930, Note_on_c, 4, 79, 90
8, 15960, Note_on_c, 4, 79, 0
8, 15960, Note_on_c, 4, 78, 90
8, 15990, Note_on_c, 4, 78, 0
8, 15990, Note_on_c, 4, 76, 90
8, 16020, Note_on_c, 4, 76, 0
8, 16020, Note_on_c, 4, 81, 90
8, 16080, Note_on_c, 4, 81, 0
8, 16080, Note_on_c, 4, 74, 90
8, 16140, Note_on_c, 4, 74, 0
8, 16140, Note_on_c, 4, 79, 90
8, 16200, Note_on_c, 4, 79, 0
8, 16200, Note_on_c, 4, 78, 90
8, 16260, Note_on_c, 4, 78, 0
8, 16260, Note_on_c, 4, 79, 90
8, 16320, Note_on_c, 4, 79, 0
8, 16320, Note_on_c, 4, 76, 90
8, 16380, Note_on_c, 4, 76, 0
8, 16380, Note_on_c, 4, 74, 90
8, 16500, Note_on_c, 4, 74, 0
8, 16620, Note_on_c, 4, 84, 90
8, 16680, Note_on_c, 4, 84, 0
8, 16680, Note_on_c, 4, 83, 90
8, 16740, Note_on_c, 4, 83, 0
8, 16740, Note_on_c, 4, 81, 90
8, 16800, Note_on_c, 4, 81, 0
8, 16800, Note_on_c, 4, 74, 90
8, 16830, Note_on_c, 4, 74, 0
8, 16830, Note_on_c, 4, 73, 90
8, 16860, Note_on_c, 4, 73, 0
8, 16860, Note_on_c, 4, 74, 90
8, 16890, Note_on_c, 4, 74, 0
8, 16890, Note_on_c, 4, 76, 90
8, 16920, Note_on_c, 4, 76, 0
8, 16920, Note_on_c, 4, 78, 90
8, 16980, Note_on_c, 4, 78, 0
8, 16980, Note_on_c, 4, 81, 90
8, 17040, Note_on_c, 4, 81, 0
8, 17040, Note_on_c, 4, 79, 90
8, 17100, Note_on_c, 4, 79, 0
8, 17100, Note_on_c, 4, 78, 90
8, 17279, Note_on_c, 4, 78, 0
8, 19740, Note_on_c, 4, 69, 90
8, 19799, Note_on_c, 4, 69, 0
8, 19800, Note_on_c, 4, 71, 90
8, 19859, Note_on_c, 4, 71, 0
8, 19860, Note_on_c, 4, 73, 90
8, 19919, Note_on_c, 4, 73, 0
8, 19920, Note_on_c, 4, 74, 90
8, 19979, Note_on_c, 4, 74, 0
8, 19980, Note_on_c, 4, 76, 90
8, 20099, Note_on_c, 4, 76, 0
8, 20100, Note_on_c, 4, 76, 90
8, 20219, Note_on_c, 4, 76, 0
8, 20220, Note_on_c, 4, 69, 90
8, 20339, Note_on_c, 4, 69, 0
8, 20340, Note_on_c, 4, 78, 90
8, 20579, Note_on_c, 4, 78, 0
8, 20580, Note_on_c, 4, 78, 90
8, 20699, Note_on_c, 4, 78, 0
8, 20700, Note_on_c, 4, 76, 90
8, 20819, Note_on_c, 4, 76, 0
8, 20940, Note_on_c, 4, 68, 90
8, 20999, Note_on_c, 4, 68, 0
8, 21000, Note_on_c, 4, 69, 90
8, 21059, Note_on_c, 4, 69, 0
8, 21060, Note_on_c, 4, 71, 90
8, 21119, Note_on_c, 4, 71, 0
8, 21120, Note_on_c, 4, 73, 90
8, 21179, Note_on_c, 4, 73, 0
8, 21180, Note_on_c, 4, 74, 90
8, 21299, Note_on_c, 4, 74, 0
8, 21300, Note_on_c, 4, 74, 90
8, 21419, Note_on_c, 4, 74, 0
8, 21540, Note_on_c, 4, 69, 90
8, 21599, Note_on_c, 4, 69, 0
8, 21600, Note_on_c, 4, 71, 90
8, 21659, Note_on_c, 4, 71, 0
8, 21660, Note_on_c, 4, 73, 90
8, 21719, Note_on_c, 4, 73, 0
8, 21720, Note_on_c, 4, 74, 90
8, 21779, Note_on_c, 4, 74, 0
8, 21780, Note_on_c, 4, 76, 90
8, 21839, Note_on_c, 4, 76, 0
8, 21840, Note_on_c, 4, 74, 90
8, 21899, Note_on_c, 4, 74, 0
8, 21900, Note_on_c, 4, 76, 90
8, 22019, Note_on_c, 4, 76, 0
8, 22140, Note_on_c, 4, 78, 90
8, 22199, Note_on_c, 4, 78, 0
8, 22200, Note_on_c, 4, 76, 90
8, 22259, Note_on_c, 4, 76, 0
8, 22260, Note_on_c, 4, 74, 90
8, 22319, Note_on_c, 4, 74, 0
8, 22320, Note_on_c, 4, 73, 90
8, 22379, Note_on_c, 4, 73, 0
8, 22380, Note_on_c, 4, 71, 90
8, 22439, Note_on_c, 4, 71, 0
8, 22440, Note_on_c, 4, 69, 90
8, 22499, Note_on_c, 4, 69, 0
8, 22500, Note_on_c, 4, 68, 90
8, 22619, Note_on_c, 4, 68, 0
8, 22620, Note_on_c, 4, 71, 90
8, 22739, Note_on_c, 4, 71, 0
8, 22740, Note_on_c, 4, 74, 90
8, 22979, Note_on_c, 4, 74, 0
8, 22980, Note_on_c, 4, 73, 90
8, 23039, Note_on_c, 4, 73, 0
8, 23040, Note_on_c, 4, 71, 90
8, 23099, Note_on_c, 4, 71, 0
8, 23100, Note_on_c, 4, 69, 90
8, 23219, Note_on_c, 4, 69, 0
8, 23280, Note_on_c, 4, 68, 90
8, 23339, Note_on_c, 4, 68, 0
8, 23340, Note_on_c, 4, 69, 90
8, 23399, Note_on_c, 4, 69, 0
8, 23400, Note_on_c, 4, 71, 90
8, 23459, Note_on_c, 4, 71, 0
8, 23460, Note_on_c, 4, 73, 90
8, 23519, Note_on_c, 4, 73, 0
8, 23520, Note_on_c, 4, 71, 90
8, 23579, Note_on_c, 4, 71, 0
8, 23580, Note_on_c, 4, 73, 90
8, 23639, Note_on_c, 4, 73, 0
8, 23640, Note_on_c, 4, 75, 90
8, 23699, Note_on_c, 4, 75, 0
8, 23700, Note_on_c, 4, 76, 90
8, 23819, Note_on_c, 4, 76, 0
8, 23820, Note_on_c, 4, 75, 90
8, 23909, Note_on_c, 4, 75, 0
8, 23910, Note_on_c, 4, 76, 90
8, 23939, Note_on_c, 4, 76, 0
8, 23940, Note_on_c, 4, 76, 90
8, 24059, Note_on_c, 4, 76, 0
8, 24060, Note_on_c, 4, 71, 90
8, 24179, Note_on_c, 4, 71, 0
8, 24180, Note_on_c, 4, 76, 90
8, 24359, Note_on_c, 4, 76, 0
8, 24360, Note_on_c, 4, 74, 90
8, 24419, Note_on_c, 4, 74, 0
8, 24420, Note_on_c, 4, 76, 90
8, 24599, Note_on_c, 4, 76, 0
8, 24600, Note_on_c, 4, 78, 90
8, 24659, Note_on_c, 4, 78, 0
8, 24660, Note_on_c, 4, 74, 90
8, 24779, Note_on_c, 4, 74, 0
8, 24780, Note_on_c, 4, 74, 90
8, 24839, Note_on_c, 4, 74, 0
8, 24840, Note_on_c, 4, 73, 90
8, 24899, Note_on_c, 4, 73, 0
8, 24900, Note_on_c, 4, 74, 90
8, 24959, Note_on_c, 4, 74, 0
8, 24960, Note_on_c, 4, 71, 90
8, 25019, Note_on_c, 4, 71, 0
8, 25020, Note_on_c, 4, 73, 90
8, 25139, Note_on_c, 4, 73, 0
8, 25140, Note_on_c, 4, 77, 90
8, 25259, Note_on_c, 4, 77, 0
8, 25260, Note_on_c, 4, 80, 90
8, 25439, Note_on_c, 4, 80, 0
8, 25440, Note_on_c, 4, 77, 90
8, 25499, Note_on_c, 4, 77, 0
8, 25500, Note_on_c, 4, 78, 90
8, 25619, Note_on_c, 4, 78, 0
8, 25620, Note_on_c, 4, 72, 90
8, 25679, Note_on_c, 4, 72, 0
8, 25680, Note_on_c, 4, 73, 90
8, 25739, Note_on_c, 4, 73, 0
8, 25740, Note_on_c, 4, 75, 90
8, 25859, Note_on_c, 4, 75, 0
8, 25860, Note_on_c, 4, 68, 90
8, 25979, Note_on_c, 4, 68, 0
8, 25980, Note_on_c, 4, 78, 90
8, 26219, Note_on_c, 4, 78, 0
8, 26220, Note_on_c, 4, 76, 90
8, 26279, Note_on_c, 4, 76, 0
8, 26280, Note_on_c, 4, 75, 90
8, 26339, Note_on_c, 4, 75, 0
8, 26340, Note_on_c, 4, 76, 90
8, 26399, Note_on_c, 4, 76, 0
8, 26400, Note_on_c, 4, 78, 90
8, 26459, Note_on_c, 4, 78, 0
8, 26460, Note_on_c, 4, 75, 90
8, 26639, Note_on_c, 4, 75, 0
8, 26640, Note_on_c, 4, 73, 90
8, 26699, Note_on_c, 4, 73, 0
8, 26700, Note_on_c, 4, 75, 90
8, 26759, Note_on_c, 4, 75, 0
8, 26760, Note_on_c, 4, 76, 90
8, 26819, Note_on_c, 4, 76, 0
8, 26820, Note_on_c, 4, 73, 90
8, 26939, Note_on_c, 4, 73, 0
8, 26940, Note_on_c, 4, 75, 90
8, 26999, Note_on_c, 4, 75, 0
8, 27000, Note_on_c, 4, 76, 90
8, 27059, Note_on_c, 4, 76, 0
8, 27060, Note_on_c, 4, 78, 90
8, 27239, Note_on_c, 4, 78, 0
8, 27240, Note_on_c, 4, 72, 90
8, 27269, Note_on_c, 4, 72, 0
8, 27270, Note_on_c, 4, 73, 90
8, 27299, Note_on_c, 4, 73, 0
8, 27300, Note_on_c, 4, 75, 90
8, 27359, Note_on_c, 4, 75, 0
8, 27360, Note_on_c, 4, 68, 90
8, 27419, Note_on_c, 4, 68, 0
8, 27420, Note_on_c, 4, 76, 90
8, 27659, Note_on_c, 4, 76, 0
8, 27660, Note_on_c, 4, 75, 90
8, 27719, Note_on_c, 4, 75, 0
8, 27720, Note_on_c, 4, 73, 90
8, 27779, Note_on_c, 4, 73, 0
8, 27780, Note_on_c, 4, 75, 90
8, 27839, Note_on_c, 4, 75, 0
8, 27840, Note_on_c, 4, 78, 90
8, 27899, Note_on_c, 4, 78, 0
8, 27900, Note_on_c, 4, 72, 90
8, 28019, Note_on_c, 4, 72, 0
8, 28080, Note_on_c, 4, 80, 90
8, 28139, Note_on_c, 4, 80, 0
8, 28140, Note_on_c, 4, 73, 90
8, 28259, Note_on_c, 4, 73, 0
8, 28260, Note_on_c, 4, 78, 90
8, 28319, Note_on_c, 4, 78, 0
8, 28320, Note_on_c, 4, 75, 90
8, 28379, Note_on_c, 4, 75, 0
8, 28380, Note_on_c, 4, 76, 90
8, 28499, Note_on_c, 4, 76, 0
8, 28500, Note_on_c, 4, 75, 90
8, 28619, Note_on_c, 4, 75, 0
8, 28620, Note_on_c, 4, 73, 90
8, 28739, Note_on_c, 4, 73, 0
8, 32460, Note_on_c, 4, 69, 90
8, 32579, Note_on_c, 4, 69, 0
8, 32580, Note_on_c, 4, 69, 90
8, 32699, Note_on_c, 4, 69, 0
8, 32700, Note_on_c, 4, 69, 90
8, 32819, Note_on_c, 4, 69, 0
8, 32820, Note_on_c, 4, 71, 90
8, 32939, Note_on_c, 4, 71, 0
8, 32940, Note_on_c, 4, 69, 90
8, 33059, Note_on_c, 4, 69, 0
8, 33060, Note_on_c, 4, 74, 90
8, 33179, Note_on_c, 4, 74, 0
8, 33180, Note_on_c, 4, 76, 90
8, 33299, Note_on_c, 4, 76, 0
8, 33300, Note_on_c, 4, 74, 90
8, 33539, Note_on_c, 4, 74, 0
8, 33540, Note_on_c, 4, 73, 90
8, 33599, Note_on_c, 4, 73, 0
8, 33600, Note_on_c, 4, 74, 90
8, 33659, Note_on_c, 4, 74, 0
8, 33660, Note_on_c, 4, 76, 90
8, 33779, Note_on_c, 4, 76, 0
8, 33780, Note_on_c, 4, 78, 90
8, 33899, Note_on_c, 4, 78, 0
8, 33900, Note_on_c, 4, 76, 90
8, 33959, Note_on_c, 4, 76, 0
8, 33960, Note_on_c, 4, 74, 90
8, 34019, Note_on_c, 4, 74, 0
8, 34020, Note_on_c, 4, 73, 90
8, 34139, Note_on_c, 4, 73, 0
8, 34140, Note_on_c, 4, 71, 90
8, 34259, Note_on_c, 4, 71, 0
8, 34260, Note_on_c, 4, 69, 90
8, 34379, Note_on_c, 4, 69, 0
8, 34380, Note_on_c, 4, 69, 90
8, 34499, Note_on_c, 4, 69, 0
8, 34500, Note_on_c, 4, 74, 90
8, 34619, Note_on_c, 4, 74, 0
8, 34620, Note_on_c, 4, 73, 90
8, 34679, Note_on_c, 4, 73, 0
8, 34680, Note_on_c, 4, 74, 90
8, 34739, Note_on_c, 4, 74, 0
8, 34740, Note_on_c, 4, 76, 90
8, 34859, Note_on_c, 4, 76, 0
8, 34860, Note_on_c, 4, 71, 90
8, 34979, Note_on_c, 4, 71, 0
8, 34980, Note_on_c, 4, 69, 90
8, 35039, Note_on_c, 4, 69, 0
8, 35040, Note_on_c, 4, 68, 90
8, 35099, Note_on_c, 4, 68, 0
8, 35100, Note_on_c, 4, 66, 90
8, 35219, Note_on_c, 4, 66, 0
8, 35220, Note_on_c, 4, 64, 90
8, 35339, Note_on_c, 4, 64, 0
8, 35340, Note_on_c, 4, 64, 90
8, 35459, Note_on_c, 4, 64, 0
8, 35460, Note_on_c, 4, 71, 90
8, 35579, Note_on_c, 4, 71, 0
8, 35580, Note_on_c, 4, 71, 90
8, 35699, Note_on_c, 4, 71, 0
8, 35700, Note_on_c, 4, 71, 90
8, 35819, Note_on_c, 4, 71, 0
8, 35820, Note_on_c, 4, 73, 90
8, 35939, Note_on_c, 4, 73, 0
8, 35940, Note_on_c, 4, 74, 90
8, 35999, Note_on_c, 4, 74, 0
8, 36000, Note_on_c, 4, 73, 90
8, 36059, Note_on_c, 4, 73, 0
8, 36060, Note_on_c, 4, 71, 90
8, 36179, Note_on_c, 4, 71, 0
8, 36180, Note_on_c, 4, 69, 90
8, 36239, Note_on_c, 4, 69, 0
8, 36240, Note_on_c, 4, 71, 90
8, 36299, Note_on_c, 4, 71, 0
8, 36300, Note_on_c, 4, 73, 90
8, 36419, Note_on_c, 4, 73, 0
8, 36420, Note_on_c, 4, 71, 90
8, 36659, Note_on_c, 4, 71, 0
8, 36660, Note_on_c, 4, 69, 90
8, 36779, Note_on_c, 4, 69, 0
8, 36780, Note_on_c, 4, 69, 90
8, 36899, Note_on_c, 4, 69, 0
8, 36900, Note_on_c, 4, 69, 90
8, 37259, Note_on_c, 4, 69, 0
8, 37380, Note_on_c, 4, 73, 110
8, 37469, Note_on_c, 4, 73, 0
8, 37470, Note_on_c, 4, 74, 110
8, 37484, Note_on_c, 4, 74, 0
8, 37485, Note_on_c, 4, 76, 110
8, 37499, Note_on_c, 4, 76, 0
8, 37500, Note_on_c, 4, 74, 110
8, 37559, Note_on_c, 4, 74, 0
8, 37560, Note_on_c, 4, 73, 110
8, 37574, Note_on_c, 4, 73, 0
8, 37575, Note_on_c, 4, 71, 110
8, 37589, Note_on_c, 4, 71, 0
8, 37590, Note_on_c, 4, 69, 110
8, 37619, Note_on_c, 4, 69, 0
8, 37620, Note_on_c, 4, 69, 110
8, 37679, Note_on_c, 4, 69, 0
8, 37680, Note_on_c, 4, 71, 110
8, 37739, Note_on_c, 4, 71, 0
8, 37740, Note_on_c, 4, 69, 110
8, 37829, Note_on_c, 4, 69, 0
8, 37830, Note_on_c, 4, 71, 110
8, 37844, Note_on_c, 4, 71, 0
8, 37845, Note_on_c, 4, 73, 110
8, 37859, Note_on_c, 4, 73, 0
8, 37860, Note_on_c, 4, 71, 110
8, 37919, Note_on_c, 4, 71, 0
8, 37920, Note_on_c, 4, 69, 110
8, 37934, Note_on_c, 4, 69, 0
8, 37935, Note_on_c, 4, 68, 110
8, 37949, Note_on_c, 4, 68, 0
8, 37950, Note_on_c, 4, 66, 110
8, 37979, Note_on_c, 4, 66, 0
8, 37980, Note_on_c, 4, 66, 110
8, 38010, Note_on_c, 4, 66, 0
8, 38010, Note_on_c, 4, 68, 110
8, 38040, Note_on_c, 4, 68, 0
8, 38040, Note_on_c, 4, 64, 110
8, 38129, Note_on_c, 4, 64, 0
8, 38130, Note_on_c, 4, 66, 110
8, 38159, Note_on_c, 4, 66, 0
8, 38160, Note_on_c, 4, 66, 110
8, 38189, Note_on_c, 4, 66, 0
8, 38190, Note_on_c, 4, 68, 110
8, 38219, Note_on_c, 4, 68, 0
8, 38220, Note_on_c, 4, 68, 110
8, 38249, Note_on_c, 4, 68, 0
8, 38250, Note_on_c, 4, 69, 110
8, 38279, Note_on_c, 4, 69, 0
8, 38280, Note_on_c, 4, 69, 110
8, 38294, Note_on_c, 4, 69, 0
8, 38295, Note_on_c, 4, 71, 110
8, 38309, Note_on_c, 4, 71, 0
8, 38310, Note_on_c, 4, 73, 110
8, 38339, Note_on_c, 4, 73, 0
8, 38340, Note_on_c, 4, 73, 110
8, 38399, Note_on_c, 4, 73, 0
8, 38400, Note_on_c, 4, 63, 110
8, 38489, Note_on_c, 4, 63, 0
8, 38490, Note_on_c, 4, 64, 110
8, 38519, Note_on_c, 4, 64, 0
8, 38520, Note_on_c, 4, 64, 110
8, 38549, Note_on_c, 4, 64, 0
8, 38550, Note_on_c, 4, 66, 110
8, 38579, Note_on_c, 4, 66, 0
8, 38580, Note_on_c, 4, 66, 110
8, 38609, Note_on_c, 4, 66, 0
8, 38610, Note_on_c, 4, 68, 110
8, 38639, Note_on_c, 4, 68, 0
8, 38640, Note_on_c, 4, 68, 110
8, 38654, Note_on_c, 4, 68, 0
8, 38655, Note_on_c, 4, 69, 110
8, 38669, Note_on_c, 4, 69, 0
8, 38670, Note_on_c, 4, 71, 110
8, 38699, Note_on_c, 4, 71, 0
8, 38700, Note_on_c, 4, 71, 110
8, 38789, Note_on_c, 4, 71, 0
8, 38790, Note_on_c, 4, 76, 110
8, 38819, Note_on_c, 4, 76, 0
8, 38820, Note_on_c, 4, 75, 110
8, 38834, Note_on_c, 4, 75, 0
8, 38835, Note_on_c, 4, 73, 110
8, 38849, Note_on_c, 4, 73, 0
8, 38850, Note_on_c, 4, 71, 110
8, 38879, Note_on_c, 4, 71, 0
8, 38880, Note_on_c, 4, 71, 110
8, 38909, Note_on_c, 4, 71, 0
8, 38910, Note_on_c, 4, 70, 110
8, 38970, Note_on_c, 4, 70, 0
8, 38970, Note_on_c, 4, 71, 110
8, 38999, Note_on_c, 4, 71, 0
8, 39000, Note_on_c, 4, 69, 110
8, 39014, Note_on_c, 4, 69, 0
8, 39015, Note_on_c, 4, 68, 110
8, 39029, Note_on_c, 4, 68, 0
8, 39030, Note_on_c, 4, 66, 110
8, 39059, Note_on_c, 4, 66, 0
8, 39060, Note_on_c, 4, 64, 110
8, 39375, Note_on_c, 4, 64, 0
8, 39375, Note_on_c, 4, 63, 110
8, 39389, Note_on_c, 4, 63, 0
8, 39390, Note_on_c, 4, 61, 110
8, 39420, Note_on_c, 4, 61, 0
8, 39420, Note_on_c, 4, 69, 110
8, 39540, Note_on_c, 4, 69, 0
8, 39540, Note_on_c, 4, 68, 110
8, 39554, Note_on_c, 4, 68, 0
8, 39555, Note_on_c, 4, 69, 110
8, 39569, Note_on_c, 4, 69, 0
8, 39570, Note_on_c, 4, 71, 110
8, 39584, Note_on_c, 4, 71, 0
8, 39600, Note_on_c, 4, 71, 110
8, 39614, Note_on_c, 4, 71, 0
8, 39630, Note_on_c, 4, 71, 110
8, 39644, Note_on_c, 4, 71, 0
8, 39660, Note_on_c, 4, 71, 110
8, 39674, Note_on_c, 4, 71, 0
8, 39690, Note_on_c, 4, 71, 110
8, 39704, Note_on_c, 4, 71, 0
8, 39720, Note_on_c, 4, 76, 110
8, 39734, Note_on_c, 4, 76, 0
8, 39735, Note_on_c, 4, 75, 110
8, 39749, Note_on_c, 4, 75, 0
8, 39750, Note_on_c, 4, 73, 110
8, 39764, Note_on_c, 4, 73, 0
8, 39780, Note_on_c, 4, 71, 110
8, 39794, Note_on_c, 4, 71, 0
8, 39810, Note_on_c, 4, 71, 110
8, 39824, Note_on_c, 4, 71, 0
8, 39840, Note_on_c, 4, 71, 110
8, 39854, Note_on_c, 4, 71, 0
8, 39870, Note_on_c, 4, 69, 110
8, 39884, Note_on_c, 4, 69, 0
8, 39900, Note_on_c, 4, 68, 110
8, 39914, Note_on_c, 4, 68, 0
8, 39915, Note_on_c, 4, 66, 110
8, 39929, Note_on_c, 4, 66, 0
8, 39930, Note_on_c, 4, 64, 110
8, 39959, Note_on_c, 4, 64, 0
8, 39960, Note_on_c, 4, 68, 110
8, 39989, Note_on_c, 4, 68, 0
8, 40020, Note_on_c, 4, 66, 110
8, 40030, Note_on_c, 4, 66, 0
8, 40030, Note_on_c, 4, 68, 110
8, 40040, Note_on_c, 4, 68, 0
8, 40040, Note_on_c, 4, 66, 110
8, 40050, Note_on_c, 4, 66, 0
8, 40050, Note_on_c, 4, 68, 110
8, 40057, Note_on_c, 4, 66, 110
8, 40058, Note_on_c, 4, 68, 0
8, 40080, Note_on_c, 4, 66, 0
8, 40080, Note_on_c, 4, 64, 110
8, 40199, Note_on_c, 4, 64, 0
8, 40440, Note_on_c, 4, 73, 90
8, 40454, Note_on_c, 4, 73, 0
8, 40455, Note_on_c, 4, 74, 90
8, 40469, Note_on_c, 4, 74, 0
8, 40470, Note_on_c, 4, 76, 90
8, 40484, Note_on_c, 4, 76, 0
8, 40500, Note_on_c, 4, 76, 90
8, 40514, Note_on_c, 4, 76, 0
8, 40530, Note_on_c, 4, 76, 90
8, 40544, Note_on_c, 4, 76, 0
8, 40560, Note_on_c, 4, 76, 90
8, 40574, Note_on_c, 4, 76, 0
8, 40590, Note_on_c, 4, 76, 90
8, 40604, Note_on_c, 4, 76, 0
8, 40620, Note_on_c, 4, 81, 90
8, 40634, Note_on_c, 4, 81, 0
8, 40635, Note_on_c, 4, 80, 90
8, 40649, Note_on_c, 4, 80, 0
8, 40650, Note_on_c, 4, 78, 90
8, 40664, Note_on_c, 4, 78, 0
8, 40680, Note_on_c, 4, 78, 90
8, 40740, Note_on_c, 4, 78, 0
8, 40740, Note_on_c, 4, 76, 90
8, 40860, Note_on_c, 4, 76, 0
8, 40860, Note_on_c, 4, 76, 90
8, 40874, Note_on_c, 4, 76, 0
8, 40875, Note_on_c, 4, 81, 90
8, 40889, Note_on_c, 4, 81, 0
8, 40890, Note_on_c, 4, 80, 90
8, 40904, Note_on_c, 4, 80, 0
8, 40905, Note_on_c, 4, 78, 90
8, 40919, Note_on_c, 4, 78, 0
8, 40920, Note_on_c, 4, 76, 90
8, 40950, Note_on_c, 4, 76, 0
8, 40950, Note_on_c, 4, 74, 90
8, 40980, Note_on_c, 4, 74, 0
8, 40980, Note_on_c, 4, 73, 90
8, 41039, Note_on_c, 4, 73, 0
8, 41100, Note_on_c, 4, 69, 90
8, 41114, Note_on_c, 4, 69, 0
8, 41115, Note_on_c, 4, 71, 90
8, 41129, Note_on_c, 4, 71, 0
8, 41130, Note_on_c, 4, 73, 90
8, 41159, Note_on_c, 4, 73, 0
8, 41160, Note_on_c, 4, 73, 90
8, 41219, Note_on_c, 4, 73, 0
8, 41340, Note_on_c, 4, 74, 90
8, 41429, Note_on_c, 4, 74, 0
8, 41430, Note_on_c, 4, 76, 90
8, 41444, Note_on_c, 4, 76, 0
8, 41445, Note_on_c, 4, 78, 90
8, 41459, Note_on_c, 4, 78, 0
8, 41460, Note_on_c, 4, 76, 90
8, 41519, Note_on_c, 4, 76, 0
8, 41520, Note_on_c, 4, 74, 90
8, 41579, Note_on_c, 4, 74, 0
8, 41640, Note_on_c, 4, 71, 90
8, 41654, Note_on_c, 4, 71, 0
8, 41655, Note_on_c, 4, 73, 90
8, 41669, Note_on_c, 4, 73, 0
8, 41670, Note_on_c, 4, 74, 90
8, 41699, Note_on_c, 4, 74, 0
8, 41700, Note_on_c, 4, 74, 90
8, 41760, Note_on_c, 4, 74, 0
8, 42060, Note_on_c, 4, 73, 90
8, 42149, Note_on_c, 4, 73, 0
8, 42150, Note_on_c, 4, 74, 90
8, 42164, Note_on_c, 4, 74, 0
8, 42165, Note_on_c, 4, 76, 90
8, 42179, Note_on_c, 4, 76, 0
8, 42180, Note_on_c, 4, 74, 90
8, 42239, Note_on_c, 4, 74, 0
8, 42240, Note_on_c, 4, 73, 90
8, 42254, Note_on_c, 4, 73, 0
8, 42255, Note_on_c, 4, 71, 90
8, 42269, Note_on_c, 4, 71, 0
8, 42270, Note_on_c, 4, 69, 90
8, 42299, Note_on_c, 4, 69, 0
8, 42300, Note_on_c, 4, 69, 90
8, 42359, Note_on_c, 4, 69, 0
8, 42360, Note_on_c, 4, 71, 90
8, 42419, Note_on_c, 4, 71, 0
8, 42420, Note_on_c, 4, 69, 90
8, 42509, Note_on_c, 4, 69, 0
8, 42510, Note_on_c, 4, 71, 90
8, 42524, Note_on_c, 4, 71, 0
8, 42525, Note_on_c, 4, 73, 90
8, 42539, Note_on_c, 4, 73, 0
8, 42540, Note_on_c, 4, 71, 90
8, 42599, Note_on_c, 4, 71, 0
8, 42600, Note_on_c, 4, 69, 90
8, 42614, Note_on_c, 4, 69, 0
8, 42615, Note_on_c, 4, 68, 90
8, 42629, Note_on_c, 4, 68, 0
8, 42630, Note_on_c, 4, 66, 90
8, 42659, Note_on_c, 4, 66, 0
8, 42660, Note_on_c, 4, 66, 90
8, 42689, Note_on_c, 4, 66, 0
8, 42690, Note_on_c, 4, 68, 90
8, 42719, Note_on_c, 4, 68, 0
8, 42720, Note_on_c, 4, 64, 90
8, 42809, Note_on_c, 4, 64, 0
8, 42810, Note_on_c, 4, 66, 90
8, 42839, Note_on_c, 4, 66, 0
8, 42840, Note_on_c, 4, 66, 90
8, 42869, Note_on_c, 4, 66, 0
8, 42870, Note_on_c, 4, 68, 90
8, 42899, Note_on_c, 4, 68, 0
8, 42900, Note_on_c, 4, 68, 90
8, 42929, Note_on_c, 4, 68, 0
8, 42930, Note_on_c, 4, 69, 90
8, 42959, Note_on_c, 4, 69, 0
8, 42960, Note_on_c, 4, 69, 90
8, 42974, Note_on_c, 4, 69, 0
8, 42975, Note_on_c, 4, 71, 90
8, 42989, Note_on_c, 4, 71, 0
8, 42990, Note_on_c, 4, 73, 90
8, 43019, Note_on_c, 4, 73, 0
8, 43020, Note_on_c, 4, 73, 90
8, 43079, Note_on_c, 4, 73, 0
8, 43080, Note_on_c, 4, 63, 90
8, 43169, Note_on_c, 4, 63, 0
8, 43170, Note_on_c, 4, 64, 90
8, 43199, Note_on_c, 4, 64, 0
8, 43200, Note_on_c, 4, 64, 90
8, 43229, Note_on_c, 4, 64, 0
8, 43230, Note_on_c, 4, 66, 90
8, 43259, Note_on_c, 4, 66, 0
8, 43260, Note_on_c, 4, 66, 90
8, 43289, Note_on_c, 4, 66, 0
8, 43290, Note_on_c, 4, 68, 90
8, 43319, Note_on_c, 4, 68, 0
8, 43320, Note_on_c, 4, 68, 90
8, 43334, Note_on_c, 4, 68, 0
8, 43335, Note_on_c, 4, 69, 90
8, 43349, Note_on_c, 4, 69, 0
8, 43350, Note_on_c, 4, 71, 90
8, 43379, Note_on_c, 4, 71, 0
8, 43380, Note_on_c, 4, 71, 90
8, 43469, Note_on_c, 4, 71, 0
8, 43470, Note_on_c, 4, 76, 90
8, 43499, Note_on_c, 4, 76, 0
8, 43500, Note_on_c, 4, 75, 90
8, 43514, Note_on_c, 4, 75, 0
8, 43515, Note_on_c, 4, 73, 90
8, 43529, Note_on_c, 4, 73, 0
8, 43530, Note_on_c, 4, 71, 90
8, 43559, Note_on_c, 4, 71, 0
8, 43560, Note_on_c, 4, 71, 90
8, 43589, Note_on_c, 4, 71, 0
8, 43590, Note_on_c, 4, 70, 90
8, 43649, Note_on_c, 4, 70, 0
8, 43650, Note_on_c, 4, 71, 90
8, 43679, Note_on_c, 4, 71, 0
8, 43680, Note_on_c, 4, 69, 90
8, 43694, Note_on_c, 4, 69, 0
8, 43695, Note_on_c, 4, 68, 90
8, 43709, Note_on_c, 4, 68, 0
8, 43710, Note_on_c, 4, 66, 90
8, 43739, Note_on_c, 4, 66, 0
8, 43740, Note_on_c, 4, 64, 90
8, 44055, Note_on_c, 4, 64, 0
8, 44055, Note_on_c, 4, 63, 90
8, 44070, Note_on_c, 4, 63, 0
8, 44070, Note_on_c, 4, 61, 90
8, 44100, Note_on_c, 4, 61, 0
8, 44100, Note_on_c, 4, 69, 90
8, 44220, Note_on_c, 4, 69, 0
8, 44280, Note_on_c, 4, 71, 90
8, 44294, Note_on_c, 4, 71, 0
8, 44295, Note_on_c, 4, 69, 90
8, 44309, Note_on_c, 4, 69, 0
8, 44310, Note_on_c, 4, 68, 90
8, 44339, Note_on_c, 4, 68, 0
8, 44340, Note_on_c, 4, 68, 90
8, 44399, Note_on_c, 4, 68, 0
8, 44460, Note_on_c, 4, 66, 90
8, 44474, Note_on_c, 4, 66, 0
8, 44475, Note_on_c, 4, 68, 90
8, 44489, Note_on_c, 4, 68, 0
8, 44490, Note_on_c, 4, 69, 90
8, 44519, Note_on_c, 4, 69, 0
8, 44520, Note_on_c, 4, 69, 90
8, 44579, Note_on_c, 4, 69, 0
8, 44940, Note_on_c, 4, 71, 110
8, 45029, Note_on_c, 4, 71, 0
8, 45030, Note_on_c, 4, 73, 110
8, 45044, Note_on_c, 4, 73, 0
8, 45045, Note_on_c, 4, 74, 110
8, 45059, Note_on_c, 4, 74, 0
8, 45060, Note_on_c, 4, 73, 110
8, 45119, Note_on_c, 4, 73, 0
8, 45120, Note_on_c, 4, 71, 110
8, 45134, Note_on_c, 4, 71, 0
8, 45135, Note_on_c, 4, 69, 110
8, 45149, Note_on_c, 4, 69, 0
8, 45150, Note_on_c, 4, 68, 110
8, 45179, Note_on_c, 4, 68, 0
8, 45180, Note_on_c, 4, 68, 110
8, 45209, Note_on_c, 4, 68, 0
8, 45210, Note_on_c, 4, 69, 110
8, 45239, Note_on_c, 4, 69, 0
8, 45300, Note_on_c, 4, 76, 110
8, 45389, Note_on_c, 4, 76, 0
8, 45390, Note_on_c, 4, 78, 110
8, 45404, Note_on_c, 4, 78, 0
8, 45405, Note_on_c, 4, 79, 110
8, 45419, Note_on_c, 4, 79, 0
8, 45420, Note_on_c, 4, 78, 110
8, 45479, Note_on_c, 4, 78, 0
8, 45480, Note_on_c, 4, 76, 110
8, 45494, Note_on_c, 4, 76, 0
8, 45495, Note_on_c, 4, 74, 110
8, 45509, Note_on_c, 4, 74, 0
8, 45510, Note_on_c, 4, 73, 110
8, 45539, Note_on_c, 4, 73, 0
8, 45540, Note_on_c, 4, 73, 110
8, 45569, Note_on_c, 4, 73, 0
8, 45570, Note_on_c, 4, 74, 110
8, 45599, Note_on_c, 4, 74, 0
8, 45600, Note_on_c, 4, 64, 110
8, 45689, Note_on_c, 4, 64, 0
8, 45690, Note_on_c, 4, 66, 110
8, 45719, Note_on_c, 4, 66, 0
8, 45720, Note_on_c, 4, 66, 110
8, 45749, Note_on_c, 4, 66, 0
8, 45750, Note_on_c, 4, 68, 110
8, 45779, Note_on_c, 4, 68, 0
8, 45780, Note_on_c, 4, 68, 110
8, 45809, Note_on_c, 4, 68, 0
8, 45810, Note_on_c, 4, 69, 110
8, 45839, Note_on_c, 4, 69, 0
8, 45840, Note_on_c, 4, 69, 110
8, 45854, Note_on_c, 4, 69, 0
8, 45855, Note_on_c, 4, 71, 110
8, 45869, Note_on_c, 4, 71, 0
8, 45870, Note_on_c, 4, 73, 110
8, 45899, Note_on_c, 4, 73, 0
8, 45900, Note_on_c, 4, 73, 110
8, 45959, Note_on_c, 4, 73, 0
8, 45960, Note_on_c, 4, 63, 110
8, 46049, Note_on_c, 4, 63, 0
8, 46050, Note_on_c, 4, 64, 110
8, 46079, Note_on_c, 4, 64, 0
8, 46080, Note_on_c, 4, 64, 110
8, 46109, Note_on_c, 4, 64, 0
8, 46110, Note_on_c, 4, 66, 110
8, 46139, Note_on_c, 4, 66, 0
8, 46140, Note_on_c, 4, 66, 110
8, 46169, Note_on_c, 4, 66, 0
8, 46170, Note_on_c, 4, 68, 110
8, 46199, Note_on_c, 4, 68, 0
8, 46200, Note_on_c, 4, 68, 110
8, 46214, Note_on_c, 4, 68, 0
8, 46215, Note_on_c, 4, 69, 110
8, 46229, Note_on_c, 4, 69, 0
8, 46230, Note_on_c, 4, 71, 110
8, 46259, Note_on_c, 4, 71, 0
8, 46260, Note_on_c, 4, 71, 110
8, 46349, Note_on_c, 4, 71, 0
8, 46350, Note_on_c, 4, 76, 110
8, 46379, Note_on_c, 4, 76, 0
8, 46380, Note_on_c, 4, 75, 110
8, 46394, Note_on_c, 4, 75, 0
8, 46395, Note_on_c, 4, 73, 110
8, 46409, Note_on_c, 4, 73, 0
8, 46410, Note_on_c, 4, 71, 110
8, 46439, Note_on_c, 4, 71, 0
8, 46440, Note_on_c, 4, 71, 110
8, 46469, Note_on_c, 4, 71, 0
8, 46470, Note_on_c, 4, 70, 110
8, 46529, Note_on_c, 4, 70, 0
8, 46530, Note_on_c, 4, 71, 110
8, 46559, Note_on_c, 4, 71, 0
8, 46560, Note_on_c, 4, 69, 110
8, 46574, Note_on_c, 4, 69, 0
8, 46575, Note_on_c, 4, 68, 110
8, 46589, Note_on_c, 4, 68, 0
8, 46590, Note_on_c, 4, 66, 110
8, 46619, Note_on_c, 4, 66, 0
8, 46620, Note_on_c, 4, 64, 110
8, 46935, Note_on_c, 4, 64, 0
8, 46935, Note_on_c, 4, 63, 110
8, 46950, Note_on_c, 4, 63, 0
8, 46950, Note_on_c, 4, 61, 110
8, 46980, Note_on_c, 4, 61, 0
8, 46980, Note_on_c, 4, 69, 110
8, 47100, Note_on_c, 4, 69, 0
8, 47100, Note_on_c, 4, 68, 110
8, 47114, Note_on_c, 4, 68, 0
8, 47115, Note_on_c, 4, 69, 110
8, 47129, Note_on_c, 4, 69, 0
8, 47130, Note_on_c, 4, 71, 110
8, 47144, Note_on_c, 4, 71, 0
8, 47160, Note_on_c, 4, 71, 110
8, 47174, Note_on_c, 4, 71, 0
8, 47190, Note_on_c, 4, 71, 110
8, 47204, Note_on_c, 4, 71, 0
8, 47220, Note_on_c, 4, 71, 110
8, 47234, Note_on_c, 4, 71, 0
8, 47250, Note_on_c, 4, 71, 110
8, 47264, Note_on_c, 4, 71, 0
8, 47280, Note_on_c, 4, 76, 110
8, 47294, Note_on_c, 4, 76, 0
8, 47295, Note_on_c, 4, 75, 110
8, 47309, Note_on_c, 4, 75, 0
8, 47310, Note_on_c, 4, 73, 110
8, 47324, Note_on_c, 4, 73, 0
8, 47340, Note_on_c, 4, 71, 110
8, 47354, Note_on_c, 4, 71, 0
8, 47370, Note_on_c, 4, 71, 110
8, 47384, Note_on_c, 4, 71, 0
8, 47400, Note_on_c, 4, 71, 110
8, 47414, Note_on_c, 4, 71, 0
8, 47430, Note_on_c, 4, 69, 110
8, 47444, Note_on_c, 4, 69, 0
8, 47460, Note_on_c, 4, 68, 110
8, 47474, Note_on_c, 4, 68, 0
8, 47475, Note_on_c, 4, 66, 110
8, 47489, Note_on_c, 4, 66, 0
8, 47490, Note_on_c, 4, 64, 110
8, 47519, Note_on_c, 4, 64, 0
8, 47520, Note_on_c, 4, 68, 110
8, 47579, Note_on_c, 4, 68, 0
8, 47580, Note_on_c, 4, 66, 110
8, 47639, Note_on_c, 4, 66, 0
8, 47640, Note_on_c, 4, 64, 90
8, 47759, Note_on_c, 4, 64, 0
8, 47820, Note_on_c, 4, 71, 90
8, 47834, Note_on_c, 4, 71, 0
8, 47835, Note_on_c, 4, 73, 90
8, 47849, Note_on_c, 4, 73, 0
8, 47850, Note_on_c, 4, 74, 90
8, 47864, Note_on_c, 4, 74, 0
8, 47880, Note_on_c, 4, 74, 90
8, 47894, Note_on_c, 4, 74, 0
8, 47910, Note_on_c, 4, 74, 90
8, 47924, Note_on_c, 4, 74, 0
8, 47940, Note_on_c, 4, 74, 90
8, 47954, Note_on_c, 4, 74, 0
8, 47970, Note_on_c, 4, 80, 90
8, 47984, Note_on_c, 4, 80, 0
8, 48000, Note_on_c, 4, 81, 90
8, 48014, Note_on_c, 4, 81, 0
8, 48015, Note_on_c, 4, 80, 90
8, 48029, Note_on_c, 4, 80, 0
8, 48030, Note_on_c, 4, 78, 90
8, 48059, Note_on_c, 4, 78, 0
8, 48060, Note_on_c, 4, 76, 90
8, 48119, Note_on_c, 4, 76, 0
8, 48180, Note_on_c, 4, 73, 90
8, 48194, Note_on_c, 4, 73, 0
8, 48195, Note_on_c, 4, 74, 90
8, 48209, Note_on_c, 4, 74, 0
8, 48210, Note_on_c, 4, 76, 90
8, 48224, Note_on_c, 4, 76, 0
8, 48240, Note_on_c, 4, 76, 90
8, 48254, Note_on_c, 4, 76, 0
8, 48270, Note_on_c, 4, 76, 90
8, 48284, Note_on_c, 4, 76, 0
8, 48300, Note_on_c, 4, 76, 90
8, 48314, Note_on_c, 4, 76, 0
8, 48330, Note_on_c, 4, 76, 90
8, 48344, Note_on_c, 4, 76, 0
8, 48360, Note_on_c, 4, 78, 90
8, 48419, Note_on_c, 4, 78, 0
8, 48480, Note_on_c, 4, 73, 90
8, 48539, Note_on_c, 4, 73, 0
8, 48540, Note_on_c, 4, 66, 90
8, 48599, Note_on_c, 4, 66, 0
8, 48600, Note_on_c, 4, 78, 90
8, 48659, Note_on_c, 4, 78, 0
8, 48660, Note_on_c, 4, 76, 90
8, 48749, Note_on_c, 4, 76, 0
8, 48750, Note_on_c, 4, 74, 90
8, 48779, Note_on_c, 4, 74, 0
8, 48780, Note_on_c, 4, 73, 90
8, 48809, Note_on_c, 4, 73, 0
8, 48810, Note_on_c, 4, 71, 90
8, 48839, Note_on_c, 4, 71, 0
8, 48840, Note_on_c, 4, 71, 90
8, 48869, Note_on_c, 4, 71, 0
8, 48870, Note_on_c, 4, 69, 90
8, 48899, Note_on_c, 4, 69, 0
8, 48900, Note_on_c, 4, 69, 90
8, 48959, Note_on_c, 4, 69, 0
8, 49140, Note_on_c, 4, 66, 90
8, 49154, Note_on_c, 4, 66, 0
8, 49155, Note_on_c, 4, 68, 90
8, 49169, Note_on_c, 4, 68, 0
8, 49170, Note_on_c, 4, 69, 90
8, 49199, Note_on_c, 4, 69, 0
8, 49200, Note_on_c, 4, 69, 90
8, 49260, Note_on_c, 4, 69, 0
8, 49320, Note_on_c, 4, 76, 90
8, 49379, Note_on_c, 4, 76, 0
8, 49380, Note_on_c, 4, 74, 90
8, 49394, Note_on_c, 4, 74, 0
8, 49395, Note_on_c, 4, 73, 90
8, 49409, Note_on_c, 4, 73, 0
8, 49410, Note_on_c, 4, 74, 90
8, 49439, Note_on_c, 4, 74, 0
8, 49440, Note_on_c, 4, 73, 90
8, 49454, Note_on_c, 4, 73, 0
8, 49455, Note_on_c, 4, 74, 90
8, 49469, Note_on_c, 4, 74, 0
8, 49470, Note_on_c, 4, 76, 90
8, 49484, Note_on_c, 4, 76, 0
8, 49500, Note_on_c, 4, 76, 90
8, 49514, Note_on_c, 4, 76, 0
8, 49530, Note_on_c, 4, 76, 90
8, 49544, Note_on_c, 4, 76, 0
8, 49560, Note_on_c, 4, 76, 90
8, 49574, Note_on_c, 4, 76, 0
8, 49575, Note_on_c, 4, 74, 90
8, 49589, Note_on_c, 4, 74, 0
8, 49590, Note_on_c, 4, 73, 90
8, 49619, Note_on_c, 4, 73, 0
8, 49620, Note_on_c, 4, 78, 90
8, 49679, Note_on_c, 4, 78, 0
8, 49800, Note_on_c, 4, 71, 90
8, 49889, Note_on_c, 4, 71, 0
8, 49890, Note_on_c, 4, 73, 90
8, 49904, Note_on_c, 4, 73, 0
8, 49905, Note_on_c, 4, 74, 90
8, 49919, Note_on_c, 4, 74, 0
8, 49920, Note_on_c, 4, 73, 90
8, 49979, Note_on_c, 4, 73, 0
8, 49980, Note_on_c, 4, 71, 90
8, 50039, Note_on_c, 4, 71, 0
8, 50100, Note_on_c, 4, 68, 90
8, 50114, Note_on_c, 4, 68, 0
8, 50115, Note_on_c, 4, 69, 90
8, 50129, Note_on_c, 4, 69, 0
8, 50130, Note_on_c, 4, 71, 90
8, 50159, Note_on_c, 4, 71, 0
8, 50160, Note_on_c, 4, 71, 90
8, 50219, Note_on_c, 4, 71, 0
8, 50340, Note_on_c, 4, 73, 90
8, 50354, Note_on_c, 4, 73, 0
8, 50355, Note_on_c, 4, 74, 90
8, 50369, Note_on_c, 4, 74, 0
8, 50370, Note_on_c, 4, 76, 90
8, 50384, Note_on_c, 4, 76, 0
8, 50400, Note_on_c, 4, 76, 90
8, 50414, Note_on_c, 4, 76, 0
8, 50430, Note_on_c, 4, 76, 90
8, 50444, Note_on_c, 4, 76, 0
8, 50460, Note_on_c, 4, 76, 90
8, 50474, Note_on_c, 4, 76, 0
8, 50490, Note_on_c, 4, 76, 90
8, 50504, Note_on_c, 4, 76, 0
8, 50520, Note_on_c, 4, 81, 90
8, 50534, Note_on_c, 4, 81, 0
8, 50535, Note_on_c, 4, 80, 90
8, 50549, Note_on_c, 4, 80, 0
8, 50550, Note_on_c, 4, 78, 90
8, 50579, Note_on_c, 4, 78, 0
8, 50580, Note_on_c, 4, 76, 90
8, 50759, Note_on_c, 4, 76, 0
8, 50880, Note_on_c, 4, 73, 90
8, 50969, Note_on_c, 4, 73, 0
8, 50970, Note_on_c, 4, 74, 90
8, 50984, Note_on_c, 4, 74, 0
8, 50985, Note_on_c, 4, 76, 90
8, 50999, Note_on_c, 4, 76, 0
8, 51000, Note_on_c, 4, 74, 90
8, 51059, Note_on_c, 4, 74, 0
8, 51060, Note_on_c, 4, 73, 90
8, 51074, Note_on_c, 4, 73, 0
8, 51075, Note_on_c, 4, 71, 90
8, 51089, Note_on_c, 4, 71, 0
8, 51090, Note_on_c, 4, 69, 90
8, 51119, Note_on_c, 4, 69, 0
8, 51120, Note_on_c, 4, 71, 90
8, 51179, Note_on_c, 4, 71, 0
8, 51540, Note_on_c, 4, 69, 90
8, 51629, Note_on_c, 4, 69, 0
8, 51630, Note_on_c, 4, 71, 90
8, 51659, Note_on_c, 4, 71, 0
8, 51660, Note_on_c, 4, 71, 90
8, 51689, Note_on_c, 4, 71, 0
8, 51690, Note_on_c, 4, 73, 90
8, 51719, Note_on_c, 4, 73, 0
8, 51720, Note_on_c, 4, 73, 90
8, 51749, Note_on_c, 4, 73, 0
8, 51750, Note_on_c, 4, 74, 90
8, 51779, Note_on_c, 4, 74, 0
8, 51780, Note_on_c, 4, 74, 90
8, 51794, Note_on_c, 4, 74, 0
8, 51795, Note_on_c, 4, 76, 90
8, 51809, Note_on_c, 4, 76, 0
8, 51810, Note_on_c, 4, 78, 90
8, 51839, Note_on_c, 4, 78, 0
8, 51840, Note_on_c, 4, 78, 90
8, 51899, Note_on_c, 4, 78, 0
8, 52260, Note_on_c, 4, 71, 90
8, 52349, Note_on_c, 4, 71, 0
8, 52350, Note_on_c, 4, 73, 90
8, 52379, Note_on_c, 4, 73, 0
8, 52380, Note_on_c, 4, 73, 90
8, 52409, Note_on_c, 4, 73, 0
8, 52410, Note_on_c, 4, 74, 90
8, 52439, Note_on_c, 4, 74, 0
8, 52440, Note_on_c, 4, 74, 90
8, 52469, Note_on_c, 4, 74, 0
8, 52470, Note_on_c, 4, 76, 90
8, 52499, Note_on_c, 4, 76, 0
8, 52500, Note_on_c, 4, 76, 90
8, 52514, Note_on_c, 4, 76, 0
8, 52515, Note_on_c, 4, 78, 90
8, 52529, Note_on_c, 4, 78, 0
8, 52530, Note_on_c, 4, 79, 90
8, 52559, Note_on_c, 4, 79, 0
8, 52560, Note_on_c, 4, 79, 90
8, 52619, Note_on_c, 4, 79, 0
8, 52620, Note_on_c, 4, 69, 90
8, 52709, Note_on_c, 4, 69, 0
8, 52710, Note_on_c, 4, 71, 90
8, 52739, Note_on_c, 4, 71, 0
8, 52740, Note_on_c, 4, 71, 90
8, 52769, Note_on_c, 4, 71, 0
8, 52770, Note_on_c, 4, 73, 90
8, 52799, Note_on_c, 4, 73, 0
8, 52800, Note_on_c, 4, 73, 90
8, 52829, Note_on_c, 4, 73, 0
8, 52830, Note_on_c, 4, 74, 90
8, 52859, Note_on_c, 4, 74, 0
8, 52860, Note_on_c, 4, 74, 90
8, 52874, Note_on_c, 4, 74, 0
8, 52875, Note_on_c, 4, 76, 90
8, 52889, Note_on_c, 4, 76, 0
8, 52890, Note_on_c, 4, 78, 90
8, 52919, Note_on_c, 4, 78, 0
8, 52920, Note_on_c, 4, 78, 90
8, 52979, Note_on_c, 4, 78, 0
8, 52980, Note_on_c, 4, 68, 90
8, 53069, Note_on_c, 4, 68, 0
8, 53070, Note_on_c, 4, 69, 90
8, 53099, Note_on_c, 4, 69, 0
8, 53100, Note_on_c, 4, 69, 90
8, 53129, Note_on_c, 4, 69, 0
8, 53130, Note_on_c, 4, 71, 90
8, 53159, Note_on_c, 4, 71, 0
8, 53160, Note_on_c, 4, 71, 90
8, 53189, Note_on_c, 4, 71, 0
8, 53190, Note_on_c, 4, 73, 90
8, 53219, Note_on_c, 4, 73, 0
8, 53220, Note_on_c, 4, 73, 90
8, 53234, Note_on_c, 4, 73, 0
8, 53235, Note_on_c, 4, 74, 90
8, 53249, Note_on_c, 4, 74, 0
8, 53250, Note_on_c, 4, 76, 90
8, 53279, Note_on_c, 4, 76, 0
8, 53280, Note_on_c, 4, 76, 90
8, 53369, Note_on_c, 4, 76, 0
8, 53370, Note_on_c, 4, 81, 90
8, 53399, Note_on_c, 4, 81, 0
8, 53400, Note_on_c, 4, 80, 90
8, 53414, Note_on_c, 4, 80, 0
8, 53415, Note_on_c, 4, 78, 90
8, 53429, Note_on_c, 4, 78, 0
8, 53430, Note_on_c, 4, 76, 90
8, 53459, Note_on_c, 4, 76, 0
8, 53460, Note_on_c, 4, 76, 90
8, 53489, Note_on_c, 4, 76, 0
8, 53490, Note_on_c, 4, 75, 90
8, 53549, Note_on_c, 4, 75, 0
8, 53550, Note_on_c, 4, 76, 90
8, 53579, Note_on_c, 4, 76, 0
8, 53580, Note_on_c, 4, 74, 90
8, 53594, Note_on_c, 4, 74, 0
8, 53595, Note_on_c, 4, 73, 90
8, 53609, Note_on_c, 4, 73, 0
8, 53610, Note_on_c, 4, 71, 90
8, 53639, Note_on_c, 4, 71, 0
8, 53640, Note_on_c, 4, 69, 90
8, 53955, Note_on_c, 4, 69, 0
8, 53955, Note_on_c, 4, 68, 90
8, 53970, Note_on_c, 4, 68, 0
8, 53970, Note_on_c, 4, 66, 90
8, 54000, Note_on_c, 4, 66, 0
8, 54000, Note_on_c, 4, 74, 90
8, 54120, Note_on_c, 4, 74, 0
8, 54180, Note_on_c, 4, 73, 90
8, 54194, Note_on_c, 4, 73, 0
8, 54195, Note_on_c, 4, 71, 90
8, 54209, Note_on_c, 4, 71, 0
8, 54210, Note_on_c, 4, 69, 90
8, 54239, Note_on_c, 4, 69, 0
8, 54240, Note_on_c, 4, 69, 90
8, 54299, Note_on_c, 4, 69, 0
8, 54360, Note_on_c, 4, 68, 90
8, 54374, Note_on_c, 4, 68, 0
8, 54375, Note_on_c, 4, 69, 90
8, 54389, Note_on_c, 4, 69, 0
8, 54390, Note_on_c, 4, 71, 90
8, 54419, Note_on_c, 4, 71, 0
8, 54420, Note_on_c, 4, 71, 90
8, 54479, Note_on_c, 4, 71, 0
8, 54840, Note_on_c, 4, 73, 90
8, 54929, Note_on_c, 4, 73, 0
8, 54930, Note_on_c, 4, 74, 90
8, 54944, Note_on_c, 4, 74, 0
8, 54945, Note_on_c, 4, 76, 90
8, 54959, Note_on_c, 4, 76, 0
8, 54960, Note_on_c, 4, 74, 90
8, 55019, Note_on_c, 4, 74, 0
8, 55020, Note_on_c, 4, 73, 110
8, 55034, Note_on_c, 4, 73, 0
8, 55035, Note_on_c, 4, 71, 110
8, 55049, Note_on_c, 4, 71, 0
8, 55050, Note_on_c, 4, 69, 110
8, 55079, Note_on_c, 4, 69, 0
8, 55080, Note_on_c, 4, 69, 110
8, 55139, Note_on_c, 4, 69, 0
8, 55140, Note_on_c, 4, 71, 110
8, 55199, Note_on_c, 4, 71, 0
8, 55200, Note_on_c, 4, 69, 110
8, 55289, Note_on_c, 4, 69, 0
8, 55290, Note_on_c, 4, 71, 110
8, 55304, Note_on_c, 4, 71, 0
8, 55305, Note_on_c, 4, 73, 110
8, 55319, Note_on_c, 4, 73, 0
8, 55320, Note_on_c, 4, 71, 110
8, 55379, Note_on_c, 4, 71, 0
8, 55380, Note_on_c, 4, 69, 110
8, 55394, Note_on_c, 4, 69, 0
8, 55395, Note_on_c, 4, 68, 110
8, 55409, Note_on_c, 4, 68, 0
8, 55410, Note_on_c, 4, 66, 110
8, 55439, Note_on_c, 4, 66, 0
8, 55440, Note_on_c, 4, 66, 110
8, 55470, Note_on_c, 4, 66, 0
8, 55470, Note_on_c, 4, 68, 110
8, 55500, Note_on_c, 4, 68, 0
8, 55500, Note_on_c, 4, 64, 110
8, 55589, Note_on_c, 4, 64, 0
8, 55590, Note_on_c, 4, 66, 110
8, 55619, Note_on_c, 4, 66, 0
8, 55620, Note_on_c, 4, 66, 110
8, 55649, Note_on_c, 4, 66, 0
8, 55650, Note_on_c, 4, 68, 110
8, 55679, Note_on_c, 4, 68, 0
8, 55680, Note_on_c, 4, 68, 110
8, 55709, Note_on_c, 4, 68, 0
8, 55710, Note_on_c, 4, 69, 110
8, 55739, Note_on_c, 4, 69, 0
8, 55740, Note_on_c, 4, 69, 110
8, 55950, Note_on_c, 4, 69, 0
8, 55950, Note_on_c, 4, 71, 110
8, 55979, Note_on_c, 4, 71, 0
8, 55980, Note_on_c, 4, 71, 110
8, 56009, Note_on_c, 4, 71, 0
8, 56010, Note_on_c, 4, 73, 110
8, 56039, Note_on_c, 4, 73, 0
8, 56040, Note_on_c, 4, 73, 110
8, 56069, Note_on_c, 4, 73, 0
8, 56070, Note_on_c, 4, 74, 110
8, 56099, Note_on_c, 4, 74, 0
8, 56100, Note_on_c, 4, 74, 110
8, 56309, Note_on_c, 4, 74, 0
8, 56310, Note_on_c, 4, 71, 110
8, 56339, Note_on_c, 4, 71, 0
8, 56340, Note_on_c, 4, 73, 110
8, 56354, Note_on_c, 4, 73, 0
8, 56355, Note_on_c, 4, 74, 110
8, 56369, Note_on_c, 4, 74, 0
8, 56370, Note_on_c, 4, 76, 110
8, 56399, Note_on_c, 4, 76, 0
8, 56400, Note_on_c, 4, 76, 110
8, 56429, Note_on_c, 4, 76, 0
8, 56430, Note_on_c, 4, 81, 110
8, 56459, Note_on_c, 4, 81, 0
8, 56460, Note_on_c, 4, 80, 110
8, 56474, Note_on_c, 4, 80, 0
8, 56475, Note_on_c, 4, 78, 110
8, 56489, Note_on_c, 4, 78, 0
8, 56490, Note_on_c, 4, 76, 110
8, 56519, Note_on_c, 4, 76, 0
8, 56520, Note_on_c, 4, 76, 110
8, 56549, Note_on_c, 4, 76, 0
8, 56550, Note_on_c, 4, 75, 110
8, 56609, Note_on_c, 4, 75, 0
8, 56610, Note_on_c, 4, 76, 110
8, 56639, Note_on_c, 4, 76, 0
8, 56640, Note_on_c, 4, 74, 110
8, 56654, Note_on_c, 4, 74, 0
8, 56655, Note_on_c, 4, 73, 110
8, 56669, Note_on_c, 4, 73, 0
8, 56670, Note_on_c, 4, 71, 110
8, 56699, Note_on_c, 4, 71, 0
8, 56700, Note_on_c, 4, 69, 110
8, 57015, Note_on_c, 4, 69, 0
8, 57015, Note_on_c, 4, 68, 110
8, 57029, Note_on_c, 4, 68, 0
8, 57030, Note_on_c, 4, 66, 110
8, 57059, Note_on_c, 4, 66, 0
8, 57060, Note_on_c, 4, 74, 110
8, 57179, Note_on_c, 4, 74, 0
8, 57180, Note_on_c, 4, 73, 110
8, 57194, Note_on_c, 4, 73, 0
8, 57195, Note_on_c, 4, 74, 110
8, 57209, Note_on_c, 4, 74, 0
8, 57210, Note_on_c, 4, 76, 110
8, 57224, Note_on_c, 4, 76, 0
8, 57240, Note_on_c, 4, 76, 110
8, 57254, Note_on_c, 4, 76, 0
8, 57270, Note_on_c, 4, 76, 110
8, 57284, Note_on_c, 4, 76, 0
8, 57300, Note_on_c, 4, 76, 110
8, 57314, Note_on_c, 4, 76, 0
8, 57330, Note_on_c, 4, 76, 110
8, 57344, Note_on_c, 4, 76, 0
8, 57360, Note_on_c, 4, 81, 110
8, 57374, Note_on_c, 4, 81, 0
8, 57375, Note_on_c, 4, 80, 110
8, 57389, Note_on_c, 4, 80, 0
8, 57390, Note_on_c, 4, 78, 110
8, 57404, Note_on_c, 4, 78, 0
8, 57420, Note_on_c, 4, 76, 110
8, 57434, Note_on_c, 4, 76, 0
8, 57450, Note_on_c, 4, 76, 110
8, 57464, Note_on_c, 4, 76, 0
8, 57480, Note_on_c, 4, 76, 110
8, 57494, Note_on_c, 4, 76, 0
8, 57510, Note_on_c, 4, 74, 110
8, 57524, Note_on_c, 4, 74, 0
8, 57540, Note_on_c, 4, 73, 110
8, 57554, Note_on_c, 4, 73, 0
8, 57555, Note_on_c, 4, 71, 110
8, 57569, Note_on_c, 4, 71, 0
8, 57570, Note_on_c, 4, 69, 110
8, 57599, Note_on_c, 4, 69, 0
8, 57600, Note_on_c, 4, 73, 110
8, 57659, Note_on_c, 4, 73, 0
8, 57660, Note_on_c, 4, 71, 110
8, 57719, Note_on_c, 4, 71, 0
8, 57720, Note_on_c, 4, 69, 110
8, 57839, Note_on_c, 4, 69, 0
8, 57900, Note_on_c, 4, 78, 90
8, 57959, Note_on_c, 4, 78, 0
8, 58020, Note_on_c, 4, 77, 90
8, 58079, Note_on_c, 4, 77, 0
8, 58080, Note_on_c, 4, 78, 90
8, 58139, Note_on_c, 4, 78, 0
8, 58200, Note_on_c, 4, 80, 90
8, 58259, Note_on_c, 4, 80, 0
8, 58260, Note_on_c, 4, 78, 90
8, 58319, Note_on_c, 4, 78, 0
8, 58380, Note_on_c, 4, 76, 90
8, 58439, Note_on_c, 4, 76, 0
8, 58440, Note_on_c, 4, 74, 90
8, 58499, Note_on_c, 4, 74, 0
8, 58560, Note_on_c, 4, 73, 90
8, 58619, Note_on_c, 4, 73, 0
8, 58620, Note_on_c, 4, 71, 90
8, 58679, Note_on_c, 4, 71, 0
8, 58740, Note_on_c, 4, 71, 90
8, 58799, Note_on_c, 4, 71, 0
8, 58800, Note_on_c, 4, 71, 90
8, 58859, Note_on_c, 4, 71, 0
8, 58920, Note_on_c, 4, 74, 90
8, 58979, Note_on_c, 4, 74, 0
8, 58980, Note_on_c, 4, 73, 90
8, 59039, Note_on_c, 4, 73, 0
8, 59100, Note_on_c, 4, 71, 90
8, 59159, Note_on_c, 4, 71, 0
8, 59160, Note_on_c, 4, 69, 90
8, 59219, Note_on_c, 4, 69, 0
8, 59280, Note_on_c, 4, 67, 90
8, 59339, Note_on_c, 4, 67, 0
8, 59340, Note_on_c, 4, 69, 90
8, 59399, Note_on_c, 4, 69, 0
8, 59460, Note_on_c, 4, 76, 90
8, 59519, Note_on_c, 4, 76, 0
8, 59520, Note_on_c, 4, 74, 90
8, 59579, Note_on_c, 4, 74, 0
8, 59640, Note_on_c, 4, 78, 90
8, 59699, Note_on_c, 4, 78, 0
8, 59700, Note_on_c, 4, 74, 90
8, 59759, Note_on_c, 4, 74, 0
8, 59820, Note_on_c, 4, 74, 90
8, 59879, Note_on_c, 4, 74, 0
8, 59880, Note_on_c, 4, 74, 90
8, 59939, Note_on_c, 4, 74, 0
8, 60000, Note_on_c, 4, 71, 90
8, 60059, Note_on_c, 4, 71, 0
8, 60060, Note_on_c, 4, 71, 90
8, 60119, Note_on_c, 4, 71, 0
8, 60180, Note_on_c, 4, 72, 90
8, 60239, Note_on_c, 4, 72, 0
8, 60240, Note_on_c, 4, 71, 90
8, 60299, Note_on_c, 4, 71, 0
8, 60360, Note_on_c, 4, 71, 90
8, 60419, Note_on_c, 4, 71, 0
8, 60420, Note_on_c, 4, 79, 90
8, 60479, Note_on_c, 4, 79, 0
8, 60540, Note_on_c, 4, 79, 90
8, 60599, Note_on_c, 4, 79, 0
8, 60600, Note_on_c, 4, 78, 90
8, 60659, Note_on_c, 4, 78, 0
8, 60720, Note_on_c, 4, 78, 90
8, 60779, Note_on_c, 4, 78, 0
8, 60780, Note_on_c, 4, 78, 90
8, 60839, Note_on_c, 4, 78, 0
8, 60900, Note_on_c, 4, 73, 90
8, 60959, Note_on_c, 4, 73, 0
8, 60960, Note_on_c, 4, 73, 90
8, 61019, Note_on_c, 4, 73, 0
8, 61080, Note_on_c, 4, 73, 90
8, 61139, Note_on_c, 4, 73, 0
8, 61140, Note_on_c, 4, 71, 90
8, 61199, Note_on_c, 4, 71, 0
8, 61830, Note_on_c, 4, 81, 110
8, 61859, Note_on_c, 4, 81, 0
8, 61860, Note_on_c, 4, 79, 110
8, 61874, Note_on_c, 4, 79, 0
8, 61875, Note_on_c, 4, 78, 110
8, 61889, Note_on_c, 4, 78, 0
8, 61890, Note_on_c, 4, 76, 110
8, 61919, Note_on_c, 4, 76, 0
8, 61920, Note_on_c, 4, 76, 110
8, 61949, Note_on_c, 4, 76, 0
8, 61950, Note_on_c, 4, 75, 110
8, 62009, Note_on_c, 4, 75, 0
8, 62010, Note_on_c, 4, 76, 110
8, 62039, Note_on_c, 4, 76, 0
8, 62040, Note_on_c, 4, 74, 110
8, 62054, Note_on_c, 4, 74, 0
8, 62055, Note_on_c, 4, 73, 110
8, 62069, Note_on_c, 4, 73, 0
8, 62070, Note_on_c, 4, 71, 110
8, 62099, Note_on_c, 4, 71, 0
8, 62100, Note_on_c, 4, 70, 110
8, 62219, Note_on_c, 4, 70, 0
8, 62220, Note_on_c, 4, 71, 110
8, 62279, Note_on_c, 4, 71, 0
8, 62280, Note_on_c, 4, 74, 110
8, 62339, Note_on_c, 4, 74, 0
8, 62340, Note_on_c, 4, 73, 110
8, 62399, Note_on_c, 4, 73, 0
8, 62400, Note_on_c, 4, 74, 110
8, 62459, Note_on_c, 4, 74, 0
8, 62460, Note_on_c, 4, 71, 110
8, 62519, Note_on_c, 4, 71, 0
8, 62520, Note_on_c, 4, 70, 110
8, 62579, Note_on_c, 4, 70, 0
8, 62580, Note_on_c, 4, 78, 110
8, 62639, Note_on_c, 4, 78, 0
8, 62640, Note_on_c, 4, 66, 110
8, 62699, Note_on_c, 4, 66, 0
8, 62700, Note_on_c, 4, 70, 110
8, 62759, Note_on_c, 4, 70, 0
8, 62760, Note_on_c, 4, 71, 110
8, 62819, Note_on_c, 4, 71, 0
8, 63300, Note_on_c, 4, 69, 90
8, 63314, Note_on_c, 4, 69, 0
8, 63315, Note_on_c, 4, 71, 90
8, 63329, Note_on_c, 4, 71, 0
8, 63330, Note_on_c, 4, 73, 90
8, 63344, Note_on_c, 4, 73, 0
8, 63360, Note_on_c, 4, 73, 90
8, 63374, Note_on_c, 4, 73, 0
8, 63390, Note_on_c, 4, 73, 90
8, 63404, Note_on_c, 4, 73, 0
8, 63420, Note_on_c, 4, 73, 90
8, 63434, Note_on_c, 4, 73, 0
8, 63450, Note_on_c, 4, 73, 90
8, 63464, Note_on_c, 4, 73, 0
8, 63480, Note_on_c, 4, 78, 90
8, 63494, Note_on_c, 4, 78, 0
8, 63495, Note_on_c, 4, 76, 90
8, 63509, Note_on_c, 4, 76, 0
8, 63510, Note_on_c, 4, 74, 90
8, 63524, Note_on_c, 4, 74, 0
8, 63540, Note_on_c, 4, 73, 90
8, 63554, Note_on_c, 4, 73, 0
8, 63570, Note_on_c, 4, 73, 90
8, 63584, Note_on_c, 4, 73, 0
8, 63600, Note_on_c, 4, 73, 90
8, 63614, Note_on_c, 4, 73, 0
8, 63630, Note_on_c, 4, 71, 90
8, 63644, Note_on_c, 4, 71, 0
8, 63660, Note_on_c, 4, 69, 90
8, 63719, Note_on_c, 4, 69, 0
8, 64200, Note_on_c, 4, 76, 90
8, 64289, Note_on_c, 4, 76, 0
8, 64290, Note_on_c, 4, 78, 90
8, 64304, Note_on_c, 4, 78, 0
8, 64305, Note_on_c, 4, 80, 90
8, 64319, Note_on_c, 4, 80, 0
8, 64320, Note_on_c, 4, 78, 90
8, 64379, Note_on_c, 4, 78, 0
8, 64380, Note_on_c, 4, 76, 90
8, 64394, Note_on_c, 4, 76, 0
8, 64395, Note_on_c, 4, 78, 90
8, 64409, Note_on_c, 4, 78, 0
8, 64410, Note_on_c, 4, 80, 90
8, 64424, Note_on_c, 4, 80, 0
8, 64440, Note_on_c, 4, 80, 90
8, 64454, Note_on_c, 4, 80, 0
8, 64470, Note_on_c, 4, 80, 90
8, 64484, Note_on_c, 4, 80, 0
8, 64500, Note_on_c, 4, 80, 90
8, 64514, Note_on_c, 4, 80, 0
8, 64530, Note_on_c, 4, 80, 90
8, 64544, Note_on_c, 4, 80, 0
8, 64560, Note_on_c, 4, 80, 90
8, 64589, Note_on_c, 4, 80, 0
8, 64620, Note_on_c, 4, 78, 90
8, 64649, Note_on_c, 4, 78, 0
8, 64680, Note_on_c, 4, 76, 90
8, 64709, Note_on_c, 4, 76, 0
8, 64740, Note_on_c, 4, 75, 90
8, 64799, Note_on_c, 4, 75, 0
8, 65280, Note_on_c, 4, 76, 90
8, 65294, Note_on_c, 4, 76, 0
8, 65295, Note_on_c, 4, 78, 90
8, 65309, Note_on_c, 4, 78, 0
8, 65310, Note_on_c, 4, 80, 90
8, 65324, Note_on_c, 4, 80, 0
8, 65340, Note_on_c, 4, 80, 90
8, 65354, Note_on_c, 4, 80, 0
8, 65370, Note_on_c, 4, 80, 90
8, 65384, Note_on_c, 4, 80, 0
8, 65400, Note_on_c, 4, 80, 90
8, 65414, Note_on_c, 4, 80, 0
8, 65430, Note_on_c, 4, 80, 90
8, 65444, Note_on_c, 4, 80, 0
8, 65460, Note_on_c, 4, 81, 90
8, 65519, Note_on_c, 4, 81, 0
8, 65700, Note_on_c, 4, 78, 90
8, 65729, Note_on_c, 4, 78, 0
8, 65760, Note_on_c, 4, 80, 90
8, 65789, Note_on_c, 4, 80, 0
8, 65880, Note_on_c, 4, 72, 90
8, 65909, Note_on_c, 4, 72, 0
8, 65940, Note_on_c, 4, 68, 90
8, 65969, Note_on_c, 4, 68, 0
8, 66060, Note_on_c, 4, 80, 90
8, 66089, Note_on_c, 4, 80, 0
8, 66120, Note_on_c, 4, 77, 90
8, 66149, Note_on_c, 4, 77, 0
8, 66240, Note_on_c, 4, 77, 90
8, 66269, Note_on_c, 4, 77, 0
8, 66300, Note_on_c, 4, 73, 90
8, 66329, Note_on_c, 4, 73, 0
8, 66420, Note_on_c, 4, 78, 90
8, 66449, Note_on_c, 4, 78, 0
8, 66480, Note_on_c, 4, 69, 90
8, 66509, Note_on_c, 4, 69, 0
8, 66540, Note_on_c, 4, 68, 90
8, 66569, Note_on_c, 4, 68, 0
8, 66840, Note_on_c, 4, 76, 90
8, 66854, Note_on_c, 4, 76, 0
8, 66855, Note_on_c, 4, 75, 90
8, 66869, Note_on_c, 4, 75, 0
8, 66870, Note_on_c, 4, 73, 90
8, 66899, Note_on_c, 4, 73, 0
8, 66900, Note_on_c, 4, 73, 90
8, 66959, Note_on_c, 4, 73, 0
8, 67260, Note_on_c, 4, 73, 110
8, 67349, Note_on_c, 4, 73, 0
8, 67350, Note_on_c, 4, 74, 110
8, 67364, Note_on_c, 4, 74, 0
8, 67365, Note_on_c, 4, 76, 110
8, 67379, Note_on_c, 4, 76, 0
8, 67380, Note_on_c, 4, 74, 110
8, 67439, Note_on_c, 4, 74, 0
8, 67440, Note_on_c, 4, 73, 110
8, 67454, Note_on_c, 4, 73, 0
8, 67455, Note_on_c, 4, 71, 110
8, 67469, Note_on_c, 4, 71, 0
8, 67470, Note_on_c, 4, 69, 110
8, 67499, Note_on_c, 4, 69, 0
8, 67500, Note_on_c, 4, 69, 110
8, 67559, Note_on_c, 4, 69, 0
8, 67560, Note_on_c, 4, 71, 110
8, 67619, Note_on_c, 4, 71, 0
8, 67620, Note_on_c, 4, 69, 110
8, 67709, Note_on_c, 4, 69, 0
8, 67710, Note_on_c, 4, 71, 110
8, 67724, Note_on_c, 4, 71, 0
8, 67725, Note_on_c, 4, 73, 110
8, 67739, Note_on_c, 4, 73, 0
8, 67740, Note_on_c, 4, 71, 110
8, 67799, Note_on_c, 4, 71, 0
8, 67800, Note_on_c, 4, 69, 110
8, 67814, Note_on_c, 4, 69, 0
8, 67815, Note_on_c, 4, 68, 110
8, 67829, Note_on_c, 4, 68, 0
8, 67830, Note_on_c, 4, 66, 110
8, 67859, Note_on_c, 4, 66, 0
8, 67860, Note_on_c, 4, 66, 110
8, 67890, Note_on_c, 4, 66, 0
8, 67890, Note_on_c, 4, 68, 110
8, 67920, Note_on_c, 4, 68, 0
8, 67920, Note_on_c, 4, 64, 110
8, 68009, Note_on_c, 4, 64, 0
8, 68010, Note_on_c, 4, 66, 110
8, 68039, Note_on_c, 4, 66, 0
8, 68040, Note_on_c, 4, 66, 110
8, 68069, Note_on_c, 4, 66, 0
8, 68070, Note_on_c, 4, 68, 110
8, 68099, Note_on_c, 4, 68, 0
8, 68100, Note_on_c, 4, 68, 110
8, 68129, Note_on_c, 4, 68, 0
8, 68130, Note_on_c, 4, 69, 110
8, 68159, Note_on_c, 4, 69, 0
8, 68160, Note_on_c, 4, 69, 110
8, 68174, Note_on_c, 4, 69, 0
8, 68175, Note_on_c, 4, 71, 110
8, 68189, Note_on_c, 4, 71, 0
8, 68190, Note_on_c, 4, 73, 110
8, 68219, Note_on_c, 4, 73, 0
8, 68220, Note_on_c, 4, 73, 110
8, 68279, Note_on_c, 4, 73, 0
8, 68280, Note_on_c, 4, 63, 110
8, 68369, Note_on_c, 4, 63, 0
8, 68370, Note_on_c, 4, 64, 110
8, 68399, Note_on_c, 4, 64, 0
8, 68400, Note_on_c, 4, 64, 110
8, 68429, Note_on_c, 4, 64, 0
8, 68430, Note_on_c, 4, 66, 110
8, 68459, Note_on_c, 4, 66, 0
8, 68460, Note_on_c, 4, 66, 110
8, 68489, Note_on_c, 4, 66, 0
8, 68490, Note_on_c, 4, 68, 110
8, 68519, Note_on_c, 4, 68, 0
8, 68520, Note_on_c, 4, 68, 110
8, 68534, Note_on_c, 4, 68, 0
8, 68535, Note_on_c, 4, 69, 110
8, 68549, Note_on_c, 4, 69, 0
8, 68550, Note_on_c, 4, 71, 110
8, 68579, Note_on_c, 4, 71, 0
8, 68580, Note_on_c, 4, 71, 110
8, 68669, Note_on_c, 4, 71, 0
8, 68670, Note_on_c, 4, 76, 110
8, 68699, Note_on_c, 4, 76, 0
8, 68700, Note_on_c, 4, 75, 110
8, 68714, Note_on_c, 4, 75, 0
8, 68715, Note_on_c, 4, 73, 110
8, 68729, Note_on_c, 4, 73, 0
8, 68730, Note_on_c, 4, 71, 110
8, 68759, Note_on_c, 4, 71, 0
8, 68760, Note_on_c, 4, 71, 110
8, 68789, Note_on_c, 4, 71, 0
8, 68790, Note_on_c, 4, 70, 110
8, 68850, Note_on_c, 4, 70, 0
8, 68850, Note_on_c, 4, 71, 110
8, 68879, Note_on_c, 4, 71, 0
8, 68880, Note_on_c, 4, 69, 110
8, 68894, Note_on_c, 4, 69, 0
8, 68895, Note_on_c, 4, 68, 110
8, 68909, Note_on_c, 4, 68, 0
8, 68910, Note_on_c, 4, 66, 110
8, 68939, Note_on_c, 4, 66, 0
8, 68940, Note_on_c, 4, 64, 110
8, 69255, Note_on_c, 4, 64, 0
8, 69255, Note_on_c, 4, 63, 110
8, 69269, Note_on_c, 4, 63, 0
8, 69270, Note_on_c, 4, 61, 110
8, 69300, Note_on_c, 4, 61, 0
8, 69300, Note_on_c, 4, 69, 110
8, 69420, Note_on_c, 4, 69, 0
8, 69420, Note_on_c, 4, 68, 110
8, 69434, Note_on_c, 4, 68, 0
8, 69435, Note_on_c, 4, 69, 110
8, 69449, Note_on_c, 4, 69, 0
8, 69450, Note_on_c, 4, 71, 110
8, 69464, Note_on_c, 4, 71, 0
8, 69480, Note_on_c, 4, 71, 110
8, 69494, Note_on_c, 4, 71, 0
8, 69510, Note_on_c, 4, 71, 110
8, 69524, Note_on_c, 4, 71, 0
8, 69540, Note_on_c, 4, 71, 110
8, 69554, Note_on_c, 4, 71, 0
8, 69570, Note_on_c, 4, 71, 110
8, 69584, Note_on_c, 4, 71, 0
8, 69600, Note_on_c, 4, 76, 110
8, 69614, Note_on_c, 4, 76, 0
8, 69615, Note_on_c, 4, 75, 110
8, 69629, Note_on_c, 4, 75, 0
8, 69630, Note_on_c, 4, 73, 110
8, 69644, Note_on_c, 4, 73, 0
8, 69660, Note_on_c, 4, 71, 110
8, 69674, Note_on_c, 4, 71, 0
8, 69690, Note_on_c, 4, 71, 110
8, 69704, Note_on_c, 4, 71, 0
8, 69720, Note_on_c, 4, 71, 110
8, 69734, Note_on_c, 4, 71, 0
8, 69750, Note_on_c, 4, 69, 110
8, 69764, Note_on_c, 4, 69, 0
8, 69780, Note_on_c, 4, 68, 110
8, 69794, Note_on_c, 4, 68, 0
8, 69795, Note_on_c, 4, 66, 110
8, 69809, Note_on_c, 4, 66, 0
8, 69810, Note_on_c, 4, 64, 110
8, 69839, Note_on_c, 4, 64, 0
8, 69840, Note_on_c, 4, 68, 110
8, 69869, Note_on_c, 4, 68, 0
8, 69900, Note_on_c, 4, 66, 110
8, 69910, Note_on_c, 4, 66, 0
8, 69910, Note_on_c, 4, 68, 110
8, 69920, Note_on_c, 4, 68, 0
8, 69920, Note_on_c, 4, 66, 110
8, 69930, Note_on_c, 4, 66, 0
8, 69930, Note_on_c, 4, 68, 110
8, 69937, Note_on_c, 4, 66, 110
8, 69938, Note_on_c, 4, 68, 0
8, 69960, Note_on_c, 4, 66, 0
8, 69960, Note_on_c, 4, 64, 110
8, 70079, Note_on_c, 4, 64, 0
8, 70320, Note_on_c, 4, 73, 90
8, 70334, Note_on_c, 4, 73, 0
8, 70335, Note_on_c, 4, 74, 90
8, 70349, Note_on_c, 4, 74, 0
8, 70350, Note_on_c, 4, 76, 90
8, 70364, Note_on_c, 4, 76, 0
8, 70380, Note_on_c, 4, 76, 90
8, 70394, Note_on_c, 4, 76, 0
8, 70410, Note_on_c, 4, 76, 90
8, 70424, Note_on_c, 4, 76, 0
8, 70440, Note_on_c, 4, 76, 90
8, 70454, Note_on_c, 4, 76, 0
8, 70470, Note_on_c, 4, 76, 90
8, 70484, Note_on_c, 4, 76, 0
8, 70500, Note_on_c, 4, 81, 90
8, 70514, Note_on_c, 4, 81, 0
8, 70515, Note_on_c, 4, 80, 90
8, 70529, Note_on_c, 4, 80, 0
8, 70530, Note_on_c, 4, 78, 90
8, 70544, Note_on_c, 4, 78, 0
8, 70560, Note_on_c, 4, 78, 90
8, 70620, Note_on_c, 4, 78, 0
8, 70620, Note_on_c, 4, 76, 90
8, 70740, Note_on_c, 4, 76, 0
8, 70740, Note_on_c, 4, 76, 90
8, 70754, Note_on_c, 4, 76, 0
8, 70755, Note_on_c, 4, 81, 90
8, 70769, Note_on_c, 4, 81, 0
8, 70770, Note_on_c, 4, 80, 90
8, 70784, Note_on_c, 4, 80, 0
8, 70785, Note_on_c, 4, 78, 90
8, 70799, Note_on_c, 4, 78, 0
8, 70800, Note_on_c, 4, 76, 90
8, 70830, Note_on_c, 4, 76, 0
8, 70830, Note_on_c, 4, 74, 90
8, 70860, Note_on_c, 4, 74, 0
8, 70860, Note_on_c, 4, 73, 90
8, 70919, Note_on_c, 4, 73, 0
8, 70980, Note_on_c, 4, 69, 90
8, 70994, Note_on_c, 4, 69, 0
8, 70995, Note_on_c, 4, 71, 90
8, 71009, Note_on_c, 4, 71, 0
8, 71010, Note_on_c, 4, 73, 90
8, 71039, Note_on_c, 4, 73, 0
8, 71040, Note_on_c, 4, 73, 90
8, 71099, Note_on_c, 4, 73, 0
8, 71220, Note_on_c, 4, 74, 90
8, 71309, Note_on_c, 4, 74, 0
8, 71310, Note_on_c, 4, 76, 90
8, 71324, Note_on_c, 4, 76, 0
8, 71325, Note_on_c, 4, 78, 90
8, 71339, Note_on_c, 4, 78, 0
8, 71340, Note_on_c, 4, 76, 90
8, 71399, Note_on_c, 4, 76, 0
8, 71400, Note_on_c, 4, 74, 90
8, 71459, Note_on_c, 4, 74, 0
8, 71520, Note_on_c, 4, 71, 90
8, 71534, Note_on_c, 4, 71, 0
8, 71535, Note_on_c, 4, 73, 90
8, 71549, Note_on_c, 4, 73, 0
8, 71550, Note_on_c, 4, 74, 90
8, 71579, Note_on_c, 4, 74, 0
8, 71580, Note_on_c, 4, 74, 90
8, 71640, Note_on_c, 4, 74, 0
8, 71940, Note_on_c, 4, 73, 90
8, 72029, Note_on_c, 4, 73, 0
8, 72030, Note_on_c, 4, 74, 90
8, 72044, Note_on_c, 4, 74, 0
8, 72045, Note_on_c, 4, 76, 90
8, 72059, Note_on_c, 4, 76, 0
8, 72060, Note_on_c, 4, 74, 90
8, 72119, Note_on_c, 4, 74, 0
8, 72120, Note_on_c, 4, 73, 90
8, 72134, Note_on_c, 4, 73, 0
8, 72135, Note_on_c, 4, 71, 90
8, 72149, Note_on_c, 4, 71, 0
8, 72150, Note_on_c, 4, 69, 90
8, 72179, Note_on_c, 4, 69, 0
8, 72180, Note_on_c, 4, 69, 90
8, 72239, Note_on_c, 4, 69, 0
8, 72240, Note_on_c, 4, 71, 90
8, 72299, Note_on_c, 4, 71, 0
8, 72300, Note_on_c, 4, 69, 90
8, 72389, Note_on_c, 4, 69, 0
8, 72390, Note_on_c, 4, 71, 90
8, 72404, Note_on_c, 4, 71, 0
8, 72405, Note_on_c, 4, 73, 90
8, 72419, Note_on_c, 4, 73, 0
8, 72420, Note_on_c, 4, 71, 90
8, 72479, Note_on_c, 4, 71, 0
8, 72480, Note_on_c, 4, 69, 90
8, 72494, Note_on_c, 4, 69, 0
8, 72495, Note_on_c, 4, 68, 90
8, 72509, Note_on_c, 4, 68, 0
8, 72510, Note_on_c, 4, 66, 90
8, 72539, Note_on_c, 4, 66, 0
8, 72540, Note_on_c, 4, 66, 90
8, 72569, Note_on_c, 4, 66, 0
8, 72570, Note_on_c, 4, 68, 90
8, 72599, Note_on_c, 4, 68, 0
8, 72600, Note_on_c, 4, 64, 90
8, 72689, Note_on_c, 4, 64, 0
8, 72690, Note_on_c, 4, 66, 90
8, 72719, Note_on_c, 4, 66, 0
8, 72720, Note_on_c, 4, 66, 90
8, 72749, Note_on_c, 4, 66, 0
8, 72750, Note_on_c, 4, 68, 90
8, 72779, Note_on_c, 4, 68, 0
8, 72780, Note_on_c, 4, 68, 90
8, 72809, Note_on_c, 4, 68, 0
8, 72810, Note_on_c, 4, 69, 90
8, 72839, Note_on_c, 4, 69, 0
8, 72840, Note_on_c, 4, 69, 90
8, 72854, Note_on_c, 4, 69, 0
8, 72855, Note_on_c, 4, 71, 90
8, 72869, Note_on_c, 4, 71, 0
8, 72870, Note_on_c, 4, 73, 90
8, 72899, Note_on_c, 4, 73, 0
8, 72900, Note_on_c, 4, 73, 90
8, 72959, Note_on_c, 4, 73, 0
8, 72960, Note_on_c, 4, 63, 90
8, 73049, Note_on_c, 4, 63, 0
8, 73050, Note_on_c, 4, 64, 90
8, 73079, Note_on_c, 4, 64, 0
8, 73080, Note_on_c, 4, 64, 90
8, 73109, Note_on_c, 4, 64, 0
8, 73110, Note_on_c, 4, 66, 90
8, 73139, Note_on_c, 4, 66, 0
8, 73140, Note_on_c, 4, 66, 90
8, 73169, Note_on_c, 4, 66, 0
8, 73170, Note_on_c, 4, 68, 90
8, 73199, Note_on_c, 4, 68, 0
8, 73200, Note_on_c, 4, 68, 90
8, 73214, Note_on_c, 4, 68, 0
8, 73215, Note_on_c, 4, 69, 90
8, 73229, Note_on_c, 4, 69, 0
8, 73230, Note_on_c, 4, 71, 90
8, 73259, Note_on_c, 4, 71, 0
8, 73260, Note_on_c, 4, 71, 90
8, 73349, Note_on_c, 4, 71, 0
8, 73350, Note_on_c, 4, 76, 90
8, 73379, Note_on_c, 4, 76, 0
8, 73380, Note_on_c, 4, 75, 90
8, 73394, Note_on_c, 4, 75, 0
8, 73395, Note_on_c, 4, 73, 90
8, 73409, Note_on_c, 4, 73, 0
8, 73410, Note_on_c, 4, 71, 90
8, 73439, Note_on_c, 4, 71, 0
8, 73440, Note_on_c, 4, 71, 90
8, 73469, Note_on_c, 4, 71, 0
8, 73470, Note_on_c, 4, 70, 90
8, 73529, Note_on_c, 4, 70, 0
8, 73530, Note_on_c, 4, 71, 90
8, 73559, Note_on_c, 4, 71, 0
8, 73560, Note_on_c, 4, 69, 90
8, 73574, Note_on_c, 4, 69, 0
8, 73575, Note_on_c, 4, 68, 90
8, 73589, Note_on_c, 4, 68, 0
8, 73590, Note_on_c, 4, 66, 90
8, 73619, Note_on_c, 4, 66, 0
8, 73620, Note_on_c, 4, 64, 90
8, 73935, Note_on_c, 4, 64, 0
8, 73935, Note_on_c, 4, 63, 90
8, 73950, Note_on_c, 4, 63, 0
8, 73950, Note_on_c, 4, 61, 90
8, 73980, Note_on_c, 4, 61, 0
8, 73980, Note_on_c, 4, 69, 90
8, 74100, Note_on_c, 4, 69, 0
8, 74160, Note_on_c, 4, 71, 90
8, 74174, Note_on_c, 4, 71, 0
8, 74175, Note_on_c, 4, 69, 90
8, 74189, Note_on_c, 4, 69, 0
8, 74190, Note_on_c, 4, 68, 90
8, 74219, Note_on_c, 4, 68, 0
8, 74220, Note_on_c, 4, 68, 90
8, 74279, Note_on_c, 4, 68, 0
8, 74340, Note_on_c, 4, 66, 90
8, 74354, Note_on_c, 4, 66, 0
8, 74355, Note_on_c, 4, 68, 90
8, 74369, Note_on_c, 4, 68, 0
8, 74370, Note_on_c, 4, 69, 90
8, 74399, Note_on_c, 4, 69, 0
8, 74400, Note_on_c, 4, 69, 90
8, 74459, Note_on_c, 4, 69, 0
8, 74820, Note_on_c, 4, 71, 110
8, 74909, Note_on_c, 4, 71, 0
8, 74910, Note_on_c, 4, 73, 110
8, 74924, Note_on_c, 4, 73, 0
8, 74925, Note_on_c, 4, 74, 110
8, 74939, Note_on_c, 4, 74, 0
8, 74940, Note_on_c, 4, 73, 110
8, 74999, Note_on_c, 4, 73, 0
8, 75000, Note_on_c, 4, 71, 110
8, 75014, Note_on_c, 4, 71, 0
8, 75015, Note_on_c, 4, 69, 110
8, 75029, Note_on_c, 4, 69, 0
8, 75030, Note_on_c, 4, 68, 110
8, 75059, Note_on_c, 4, 68, 0
8, 75060, Note_on_c, 4, 68, 110
8, 75089, Note_on_c, 4, 68, 0
8, 75090, Note_on_c, 4, 69, 110
8, 75119, Note_on_c, 4, 69, 0
8, 75180, Note_on_c, 4, 76, 110
8, 75269, Note_on_c, 4, 76, 0
8, 75270, Note_on_c, 4, 78, 110
8, 75284, Note_on_c, 4, 78, 0
8, 75285, Note_on_c, 4, 79, 110
8, 75299, Note_on_c, 4, 79, 0
8, 75300, Note_on_c, 4, 78, 110
8, 75359, Note_on_c, 4, 78, 0
8, 75360, Note_on_c, 4, 76, 110
8, 75374, Note_on_c, 4, 76, 0
8, 75375, Note_on_c, 4, 74, 110
8, 75389, Note_on_c, 4, 74, 0
8, 75390, Note_on_c, 4, 73, 110
8, 75419, Note_on_c, 4, 73, 0
8, 75420, Note_on_c, 4, 73, 110
8, 75449, Note_on_c, 4, 73, 0
8, 75450, Note_on_c, 4, 74, 110
8, 75479, Note_on_c, 4, 74, 0
8, 75480, Note_on_c, 4, 64, 110
8, 75569, Note_on_c, 4, 64, 0
8, 75570, Note_on_c, 4, 66, 110
8, 75599, Note_on_c, 4, 66, 0
8, 75600, Note_on_c, 4, 66, 110
8, 75629, Note_on_c, 4, 66, 0
8, 75630, Note_on_c, 4, 68, 110
8, 75659, Note_on_c, 4, 68, 0
8, 75660, Note_on_c, 4, 68, 110
8, 75689, Note_on_c, 4, 68, 0
8, 75690, Note_on_c, 4, 69, 110
8, 75719, Note_on_c, 4, 69, 0
8, 75720, Note_on_c, 4, 69, 110
8, 75734, Note_on_c, 4, 69, 0
8, 75735, Note_on_c, 4, 71, 110
8, 75749, Note_on_c, 4, 71, 0
8, 75750, Note_on_c, 4, 73, 110
8, 75779, Note_on_c, 4, 73, 0
8, 75780, Note_on_c, 4, 73, 110
8, 75839, Note_on_c, 4, 73, 0
8, 75840, Note_on_c, 4, 63, 110
8, 75929, Note_on_c, 4, 63, 0
8, 75930, Note_on_c, 4, 64, 110
8, 75959, Note_on_c, 4, 64, 0
8, 75960, Note_on_c, 4, 64, 110
8, 75989, Note_on_c, 4, 64, 0
8, 75990, Note_on_c, 4, 66, 110
8, 76019, Note_on_c, 4, 66, 0
8, 76020, Note_on_c, 4, 66, 110
8, 76049, Note_on_c, 4, 66, 0
8, 76050, Note_on_c, 4, 68, 110
8, 76079, Note_on_c, 4, 68, 0
8, 76080, Note_on_c, 4, 68, 110
8, 76094, Note_on_c, 4, 68, 0
8, 76095, Note_on_c, 4, 69, 110
8, 76109, Note_on_c, 4, 69, 0
8, 76110, Note_on_c, 4, 71, 110
8, 76139, Note_on_c, 4, 71, 0
8, 76140, Note_on_c, 4, 71, 110
8, 76229, Note_on_c, 4, 71, 0
8, 76230, Note_on_c, 4, 76, 110
8, 76259, Note_on_c, 4, 76, 0
8, 76260, Note_on_c, 4, 75, 110
8, 76274, Note_on_c, 4, 75, 0
8, 76275, Note_on_c, 4, 73, 110
8, 76289, Note_on_c, 4, 73, 0
8, 76290, Note_on_c, 4, 71, 110
8, 76319, Note_on_c, 4, 71, 0
8, 76320, Note_on_c, 4, 71, 110
8, 76349, Note_on_c, 4, 71, 0
8, 76350, Note_on_c, 4, 70, 110
8, 76409, Note_on_c, 4, 70, 0
8, 76410, Note_on_c, 4, 71, 110
8, 76439, Note_on_c, 4, 71, 0
8, 76440, Note_on_c, 4, 69, 110
8, 76454, Note_on_c, 4, 69, 0
8, 76455, Note_on_c, 4, 68, 110
8, 76469, Note_on_c, 4, 68, 0
8, 76470, Note_on_c, 4, 66, 110
8, 76499, Note_on_c, 4, 66, 0
8, 76500, Note_on_c, 4, 64, 110
8, 76815, Note_on_c, 4, 64, 0
8, 76815, Note_on_c, 4, 63, 110
8, 76830, Note_on_c, 4, 63, 0
8, 76830, Note_on_c, 4, 61, 110
8, 76860, Note_on_c, 4, 61, 0
8, 76860, Note_on_c, 4, 69, 110
8, 76980, Note_on_c, 4, 69, 0
8, 76980, Note_on_c, 4, 68, 110
8, 76994, Note_on_c, 4, 68, 0
8, 76995, Note_on_c, 4, 69, 110
8, 77009, Note_on_c, 4, 69, 0
8, 77010, Note_on_c, 4, 71, 110
8, 77024, Note_on_c, 4, 71, 0
8, 77040, Note_on_c, 4, 71, 110
8, 77054, Note_on_c, 4, 71, 0
8, 77070, Note_on_c, 4, 71, 110
8, 77084, Note_on_c, 4, 71, 0
8, 77100, Note_on_c, 4, 71, 110
8, 77114, Note_on_c, 4, 71, 0
8, 77130, Note_on_c, 4, 71, 110
8, 77144, Note_on_c, 4, 71, 0
8, 77160, Note_on_c, 4, 76, 110
8, 77174, Note_on_c, 4, 76, 0
8, 77175, Note_on_c, 4, 75, 110
8, 77189, Note_on_c, 4, 75, 0
8, 77190, Note_on_c, 4, 73, 110
8, 77204, Note_on_c, 4, 73, 0
8, 77220, Note_on_c, 4, 71, 110
8, 77234, Note_on_c, 4, 71, 0
8, 77250, Note_on_c, 4, 71, 110
8, 77264, Note_on_c, 4, 71, 0
8, 77280, Note_on_c, 4, 71, 110
8, 77294, Note_on_c, 4, 71, 0
8, 77310, Note_on_c, 4, 69, 110
8, 77324, Note_on_c, 4, 69, 0
8, 77340, Note_on_c, 4, 68, 110
8, 77354, Note_on_c, 4, 68, 0
8, 77355, Note_on_c, 4, 66, 110
8, 77369, Note_on_c, 4, 66, 0
8, 77370, Note_on_c, 4, 64, 110
8, 77399, Note_on_c, 4, 64, 0
8, 77400, Note_on_c, 4, 68, 110
8, 77459, Note_on_c, 4, 68, 0
8, 77460, Note_on_c, 4, 66, 110
8, 77519, Note_on_c, 4, 66, 0
8, 77520, Note_on_c, 4, 64, 90
8, 77639, Note_on_c, 4, 64, 0
8, 77700, Note_on_c, 4, 71, 90
8, 77714, Note_on_c, 4, 71, 0
8, 77715, Note_on_c, 4, 73, 90
8, 77729, Note_on_c, 4, 73, 0
8, 77730, Note_on_c, 4, 74, 90
8, 77744, Note_on_c, 4, 74, 0
8, 77760, Note_on_c, 4, 74, 90
8, 77774, Note_on_c, 4, 74, 0
8, 77790, Note_on_c, 4, 74, 90
8, 77804, Note_on_c, 4, 74, 0
8, 77820, Note_on_c, 4, 74, 90
8, 77834, Note_on_c, 4, 74, 0
8, 77850, Note_on_c, 4, 80, 90
8, 77864, Note_on_c, 4, 80, 0
8, 77880, Note_on_c, 4, 81, 90
8, 77894, Note_on_c, 4, 81, 0
8, 77895, Note_on_c, 4, 80, 90
8, 77909, Note_on_c, 4, 80, 0
8, 77910, Note_on_c, 4, 78, 90
8, 77939, Note_on_c, 4, 78, 0
8, 77940, Note_on_c, 4, 76, 90
8, 77999, Note_on_c, 4, 76, 0
8, 78060, Note_on_c, 4, 73, 90
8, 78074, Note_on_c, 4, 73, 0
8, 78075, Note_on_c, 4, 74, 90
8, 78089, Note_on_c, 4, 74, 0
8, 78090, Note_on_c, 4, 76, 90
8, 78104, Note_on_c, 4, 76, 0
8, 78120, Note_on_c, 4, 76, 90
8, 78134, Note_on_c, 4, 76, 0
8, 78150, Note_on_c, 4, 76, 90
8, 78164, Note_on_c, 4, 76, 0
8, 78180, Note_on_c, 4, 76, 90
8, 78194, Note_on_c, 4, 76, 0
8, 78210, Note_on_c, 4, 76, 90
8, 78224, Note_on_c, 4, 76, 0
8, 78240, Note_on_c, 4, 78, 90
8, 78299, Note_on_c, 4, 78, 0
8, 78360, Note_on_c, 4, 73, 90
8, 78419, Note_on_c, 4, 73, 0
8, 78420, Note_on_c, 4, 66, 90
8, 78479, Note_on_c, 4, 66, 0
8, 78480, Note_on_c, 4, 78, 90
8, 78539, Note_on_c, 4, 78, 0
8, 78540, Note_on_c, 4, 76, 90
8, 78629, Note_on_c, 4, 76, 0
8, 78630, Note_on_c, 4, 74, 90
8, 78659, Note_on_c, 4, 74, 0
8, 78660, Note_on_c, 4, 73, 90
8, 78689, Note_on_c, 4, 73, 0
8, 78690, Note_on_c, 4, 71, 90
8, 78719, Note_on_c, 4, 71, 0
8, 78720, Note_on_c, 4, 71, 90
8, 78749, Note_on_c, 4, 71, 0
8, 78750, Note_on_c, 4, 69, 90
8, 78779, Note_on_c, 4, 69, 0
8, 78780, Note_on_c, 4, 69, 90
8, 78839, Note_on_c, 4, 69, 0
8, 79020, Note_on_c, 4, 66, 90
8, 79034, Note_on_c, 4, 66, 0
8, 79035, Note_on_c, 4, 68, 90
8, 79049, Note_on_c, 4, 68, 0
8, 79050, Note_on_c, 4, 69, 90
8, 79079, Note_on_c, 4, 69, 0
8, 79080, Note_on_c, 4, 69, 90
8, 79140, Note_on_c, 4, 69, 0
8, 79200, Note_on_c, 4, 76, 90
8, 79259, Note_on_c, 4, 76, 0
8, 79260, Note_on_c, 4, 74, 90
8, 79274, Note_on_c, 4, 74, 0
8, 79275, Note_on_c, 4, 73, 90
8, 79289, Note_on_c, 4, 73, 0
8, 79290, Note_on_c, 4, 74, 90
8, 79319, Note_on_c, 4, 74, 0
8, 79320, Note_on_c, 4, 73, 90
8, 79334, Note_on_c, 4, 73, 0
8, 79335, Note_on_c, 4, 74, 90
8, 79349, Note_on_c, 4, 74, 0
8, 79350, Note_on_c, 4, 76, 90
8, 79364, Note_on_c, 4, 76, 0
8, 79380, Note_on_c, 4, 76, 90
8, 79394, Note_on_c, 4, 76, 0
8, 79410, Note_on_c, 4, 76, 90
8, 79424, Note_on_c, 4, 76, 0
8, 79440, Note_on_c, 4, 76, 90
8, 79454, Note_on_c, 4, 76, 0
8, 79455, Note_on_c, 4, 74, 90
8, 79469, Note_on_c, 4, 74, 0
8, 79470, Note_on_c, 4, 73, 90
8, 79499, Note_on_c, 4, 73, 0
8, 79500, Note_on_c, 4, 78, 90
8, 79559, Note_on_c, 4, 78, 0
8, 79680, Note_on_c, 4, 71, 90
8, 79769, Note_on_c, 4, 71, 0
8, 79770, Note_on_c, 4, 73, 90
8, 79784, Note_on_c, 4, 73, 0
8, 79785, Note_on_c, 4, 74, 90
8, 79799, Note_on_c, 4, 74, 0
8, 79800, Note_on_c, 4, 73, 90
8, 79859, Note_on_c, 4, 73, 0
8, 79860, Note_on_c, 4, 71, 90
8, 79919, Note_on_c, 4, 71, 0
8, 79980, Note_on_c, 4, 68, 90
8, 79994, Note_on_c, 4, 68, 0
8, 79995, Note_on_c, 4, 69, 90
8, 80009, Note_on_c, 4, 69, 0
8, 80010, Note_on_c, 4, 71, 90
8, 80039, Note_on_c, 4, 71, 0
8, 80040, Note_on_c, 4, 71, 90
8, 80099, Note_on_c, 4, 71, 0
8, 80220, Note_on_c, 4, 73, 90
8, 80234, Note_on_c, 4, 73, 0
8, 80235, Note_on_c, 4, 74, 90
8, 80249, Note_on_c, 4, 74, 0
8, 80250, Note_on_c, 4, 76, 90
8, 80264, Note_on_c, 4, 76, 0
8, 80280, Note_on_c, 4, 76, 90
8, 80294, Note_on_c, 4, 76, 0
8, 80310, Note_on_c, 4, 76, 90
8, 80324, Note_on_c, 4, 76, 0
8, 80340, Note_on_c, 4, 76, 90
8, 80354, Note_on_c, 4, 76, 0
8, 80370, Note_on_c, 4, 76, 90
8, 80384, Note_on_c, 4, 76, 0
8, 80400, Note_on_c, 4, 81, 90
8, 80414, Note_on_c, 4, 81, 0
8, 80415, Note_on_c, 4, 80, 90
8, 80429, Note_on_c, 4, 80, 0
8, 80430, Note_on_c, 4, 78, 90
8, 80459, Note_on_c, 4, 78, 0
8, 80460, Note_on_c, 4, 76, 90
8, 80639, Note_on_c, 4, 76, 0
8, 80760, Note_on_c, 4, 73, 90
8, 80849, Note_on_c, 4, 73, 0
8, 80850, Note_on_c, 4, 74, 90
8, 80864, Note_on_c, 4, 74, 0
8, 80865, Note_on_c, 4, 76, 90
8, 80879, Note_on_c, 4, 76, 0
8, 80880, Note_on_c, 4, 74, 90
8, 80939, Note_on_c, 4, 74, 0
8, 80940, Note_on_c, 4, 73, 90
8, 80954, Note_on_c, 4, 73, 0
8, 80955, Note_on_c, 4, 71, 90
8, 80969, Note_on_c, 4, 71, 0
8, 80970, Note_on_c, 4, 69, 90
8, 80999, Note_on_c, 4, 69, 0
8, 81000, Note_on_c, 4, 71, 90
8, 81059, Note_on_c, 4, 71, 0
8, 81420, Note_on_c, 4, 69, 90
8, 81509, Note_on_c, 4, 69, 0
8, 81510, Note_on_c, 4, 71, 90
8, 81539, Note_on_c, 4, 71, 0
8, 81540, Note_on_c, 4, 71, 90
8, 81569, Note_on_c, 4, 71, 0
8, 81570, Note_on_c, 4, 73, 90
8, 81599, Note_on_c, 4, 73, 0
8, 81600, Note_on_c, 4, 73, 90
8, 81629, Note_on_c, 4, 73, 0
8, 81630, Note_on_c, 4, 74, 90
8, 81659, Note_on_c, 4, 74, 0
8, 81660, Note_on_c, 4, 74, 90
8, 81674, Note_on_c, 4, 74, 0
8, 81675, Note_on_c, 4, 76, 90
8, 81689, Note_on_c, 4, 76, 0
8, 81690, Note_on_c, 4, 78, 90
8, 81719, Note_on_c, 4, 78, 0
8, 81720, Note_on_c, 4, 78, 90
8, 81779, Note_on_c, 4, 78, 0
8, 82140, Note_on_c, 4, 71, 90
8, 82229, Note_on_c, 4, 71, 0
8, 82230, Note_on_c, 4, 73, 90
8, 82259, Note_on_c, 4, 73, 0
8, 82260, Note_on_c, 4, 73, 90
8, 82289, Note_on_c, 4, 73, 0
8, 82290, Note_on_c, 4, 74, 90
8, 82319, Note_on_c, 4, 74, 0
8, 82320, Note_on_c, 4, 74, 90
8, 82349, Note_on_c, 4, 74, 0
8, 82350, Note_on_c, 4, 76, 90
8, 82379, Note_on_c, 4, 76, 0
8, 82380, Note_on_c, 4, 76, 90
8, 82394, Note_on_c, 4, 76, 0
8, 82395, Note_on_c, 4, 78, 90
8, 82409, Note_on_c, 4, 78, 0
8, 82410, Note_on_c, 4, 79, 90
8, 82439, Note_on_c, 4, 79, 0
8, 82440, Note_on_c, 4, 79, 90
8, 82499, Note_on_c, 4, 79, 0
8, 82500, Note_on_c, 4, 69, 90
8, 82589, Note_on_c, 4, 69, 0
8, 82590, Note_on_c, 4, 71, 90
8, 82619, Note_on_c, 4, 71, 0
8, 82620, Note_on_c, 4, 71, 90
8, 82649, Note_on_c, 4, 71, 0
8, 82650, Note_on_c, 4, 73, 90
8, 82679, Note_on_c, 4, 73, 0
8, 82680, Note_on_c, 4, 73, 90
8, 82709, Note_on_c, 4, 73, 0
8, 82710, Note_on_c, 4, 74, 90
8, 82739, Note_on_c, 4, 74, 0
8, 82740, Note_on_c, 4, 74, 90
8, 82754, Note_on_c, 4, 74, 0
8, 82755, Note_on_c, 4, 76, 90
8, 82769, Note_on_c, 4, 76, 0
8, 82770, Note_on_c, 4, 78, 90
8, 82799, Note_on_c, 4, 78, 0
8, 82800, Note_on_c, 4, 78, 90
8, 82859, Note_on_c, 4, 78, 0
8, 82860, Note_on_c, 4, 68, 90
8, 82949, Note_on_c, 4, 68, 0
8, 82950, Note_on_c, 4, 69, 90
8, 82979, Note_on_c, 4, 69, 0
8, 82980, Note_on_c, 4, 69, 90
8, 83009, Note_on_c, 4, 69, 0
8, 83010, Note_on_c, 4, 71, 90
8, 83039, Note_on_c, 4, 71, 0
8, 83040, Note_on_c, 4, 71, 90
8, 83069, Note_on_c, 4, 71, 0
8, 83070, Note_on_c, 4, 73, 90
8, 83099, Note_on_c, 4, 73, 0
8, 83100, Note_on_c, 4, 73, 90
8, 83114, Note_on_c, 4, 73, 0
8, 83115, Note_on_c, 4, 74, 90
8, 83129, Note_on_c, 4, 74, 0
8, 83130, Note_on_c, 4, 76, 90
8, 83159, Note_on_c, 4, 76, 0
8, 83160, Note_on_c, 4, 76, 90
8, 83249, Note_on_c, 4, 76, 0
8, 83250, Note_on_c, 4, 81, 90
8, 83279, Note_on_c, 4, 81, 0
8, 83280, Note_on_c, 4, 80, 90
8, 83294, Note_on_c, 4, 80, 0
8, 83295, Note_on_c, 4, 78, 90
8, 83309, Note_on_c, 4, 78, 0
8, 83310, Note_on_c, 4, 76, 90
8, 83339, Note_on_c, 4, 76, 0
8, 83340, Note_on_c, 4, 76, 90
8, 83369, Note_on_c, 4, 76, 0
8, 83370, Note_on_c, 4, 75, 90
8, 83429, Note_on_c, 4, 75, 0
8, 83430, Note_on_c, 4, 76, 90
8, 83459, Note_on_c, 4, 76, 0
8, 83460, Note_on_c, 4, 74, 90
8, 83474, Note_on_c, 4, 74, 0
8, 83475, Note_on_c, 4, 73, 90
8, 83489, Note_on_c, 4, 73, 0
8, 83490, Note_on_c, 4, 71, 90
8, 83519, Note_on_c, 4, 71, 0
8, 83520, Note_on_c, 4, 69, 90
8, 83835, Note_on_c, 4, 69, 0
8, 83835, Note_on_c, 4, 68, 90
8, 83850, Note_on_c, 4, 68, 0
8, 83850, Note_on_c, 4, 66, 90
8, 83880, Note_on_c, 4, 66, 0
8, 83880, Note_on_c, 4, 74, 90
8, 84000, Note_on_c, 4, 74, 0
8, 84060, Note_on_c, 4, 73, 90
8, 84074, Note_on_c, 4, 73, 0
8, 84075, Note_on_c, 4, 71, 90
8, 84089, Note_on_c, 4, 71, 0
8, 84090, Note_on_c, 4, 69, 90
8, 84119, Note_on_c, 4, 69, 0
8, 84120, Note_on_c, 4, 69, 90
8, 84179, Note_on_c, 4, 69, 0
8, 84240, Note_on_c, 4, 68, 90
8, 84254, Note_on_c, 4, 68, 0
8, 84255, Note_on_c, 4, 69, 90
8, 84269, Note_on_c, 4, 69, 0
8, 84270, Note_on_c, 4, 71, 90
8, 84299, Note_on_c, 4, 71, 0
8, 84300, Note_on_c, 4, 71, 90
8, 84359, Note_on_c, 4, 71, 0
8, 84720, Note_on_c, 4, 73, 90
8, 84809, Note_on_c, 4, 73, 0
8, 84810, Note_on_c, 4, 74, 90
8, 84824, Note_on_c, 4, 74, 0
8, 84825, Note_on_c, 4, 76, 90
8, 84839, Note_on_c, 4, 76, 0
8, 84840, Note_on_c, 4, 74, 90
8, 84899, Note_on_c, 4, 74, 0
8, 84900, Note_on_c, 4, 73, 110
8, 84914, Note_on_c, 4, 73, 0
8, 84915, Note_on_c, 4, 71, 110
8, 84929, Note_on_c, 4, 71, 0
8, 84930, Note_on_c, 4, 69, 110
8, 84959, Note_on_c, 4, 69, 0
8, 84960, Note_on_c, 4, 69, 110
8, 85019, Note_on_c, 4, 69, 0
8, 85020, Note_on_c, 4, 71, 110
8, 85079, Note_on_c, 4, 71, 0
8, 85080, Note_on_c, 4, 69, 110
8, 85169, Note_on_c, 4, 69, 0
8, 85170, Note_on_c, 4, 71, 110
8, 85184, Note_on_c, 4, 71, 0
8, 85185, Note_on_c, 4, 73, 110
8, 85199, Note_on_c, 4, 73, 0
8, 85200, Note_on_c, 4, 71, 110
8, 85259, Note_on_c, 4, 71, 0
8, 85260, Note_on_c, 4, 69, 110
8, 85274, Note_on_c, 4, 69, 0
8, 85275, Note_on_c, 4, 68, 110
8, 85289, Note_on_c, 4, 68, 0
8, 85290, Note_on_c, 4, 66, 110
8, 85319, Note_on_c, 4, 66, 0
8, 85320, Note_on_c, 4, 66, 110
8, 85350, Note_on_c, 4, 66, 0
8, 85350, Note_on_c, 4, 68, 110
8, 85380, Note_on_c, 4, 68, 0
8, 85380, Note_on_c, 4, 64, 110
8, 85469, Note_on_c, 4, 64, 0
8, 85470, Note_on_c, 4, 66, 110
8, 85499, Note_on_c, 4, 66, 0
8, 85500, Note_on_c, 4, 66, 110
8, 85529, Note_on_c, 4, 66, 0
8, 85530, Note_on_c, 4, 68, 110
8, 85559, Note_on_c, 4, 68, 0
8, 85560, Note_on_c, 4, 68, 110
8, 85589, Note_on_c, 4, 68, 0
8, 85590, Note_on_c, 4, 69, 110
8, 85619, Note_on_c, 4, 69, 0
8, 85620, Note_on_c, 4, 69, 110
8, 85830, Note_on_c, 4, 69, 0
8, 85830, Note_on_c, 4, 71, 110
8, 85859, Note_on_c, 4, 71, 0
8, 85860, Note_on_c, 4, 71, 110
8, 85889, Note_on_c, 4, 71, 0
8, 85890, Note_on_c, 4, 73, 110
8, 85919, Note_on_c, 4, 73, 0
8, 85920, Note_on_c, 4, 73, 110
8, 85949, Note_on_c, 4, 73, 0
8, 85950, Note_on_c, 4, 74, 110
8, 85979, Note_on_c, 4, 74, 0
8, 85980, Note_on_c, 4, 74, 110
8, 86189, Note_on_c, 4, 74, 0
8, 86190, Note_on_c, 4, 71, 110
8, 86219, Note_on_c, 4, 71, 0
8, 86220, Note_on_c, 4, 73, 110
8, 86234, Note_on_c, 4, 73, 0
8, 86235, Note_on_c, 4, 74, 110
8, 86249, Note_on_c, 4, 74, 0
8, 86250, Note_on_c, 4, 76, 110
8, 86279, Note_on_c, 4, 76, 0
8, 86280, Note_on_c, 4, 76, 110
8, 86309, Note_on_c, 4, 76, 0
8, 86310, Note_on_c, 4, 81, 110
8, 86339, Note_on_c, 4, 81, 0
8, 86340, Note_on_c, 4, 80, 110
8, 86354, Note_on_c, 4, 80, 0
8, 86355, Note_on_c, 4, 78, 110
8, 86369, Note_on_c, 4, 78, 0
8, 86370, Note_on_c, 4, 76, 110
8, 86399, Note_on_c, 4, 76, 0
8, 86400, Note_on_c, 4, 76, 110
8, 86429, Note_on_c, 4, 76, 0
8, 86430, Note_on_c, 4, 75, 110
8, 86489, Note_on_c, 4, 75, 0
8, 86490, Note_on_c, 4, 76, 110
8, 86519, Note_on_c, 4, 76, 0
8, 86520, Note_on_c, 4, 74, 110
8, 86534, Note_on_c, 4, 74, 0
8, 86535, Note_on_c, 4, 73, 110
8, 86549, Note_on_c, 4, 73, 0
8, 86550, Note_on_c, 4, 71, 110
8, 86579, Note_on_c, 4, 71, 0
8, 86580, Note_on_c, 4, 69, 110
8, 86895, Note_on_c, 4, 69, 0
8, 86895, Note_on_c, 4, 68, 110
8, 86909, Note_on_c, 4, 68, 0
8, 86910, Note_on_c, 4, 66, 110
8, 86939, Note_on_c, 4, 66, 0
8, 86940, Note_on_c, 4, 74, 110
8, 87059, Note_on_c, 4, 74, 0
8, 87060, Note_on_c, 4, 73, 110
8, 87074, Note_on_c, 4, 73, 0
8, 87075, Note_on_c, 4, 74, 110
8, 87089, Note_on_c, 4, 74, 0
8, 87090, Note_on_c, 4, 76, 110
8, 87104, Note_on_c, 4, 76, 0
8, 87120, Note_on_c, 4, 76, 110
8, 87134, Note_on_c, 4, 76, 0
8, 87150, Note_on_c, 4, 76, 110
8, 87164, Note_on_c, 4, 76, 0
8, 87180, Note_on_c, 4, 76, 110
8, 87194, Note_on_c, 4, 76, 0
8, 87210, Note_on_c, 4, 76, 110
8, 87224, Note_on_c, 4, 76, 0
8, 87240, Note_on_c, 4, 81, 110
8, 87254, Note_on_c, 4, 81, 0
8, 87255, Note_on_c, 4, 80, 110
8, 87269, Note_on_c, 4, 80, 0
8, 87270, Note_on_c, 4, 78, 110
8, 87284, Note_on_c, 4, 78, 0
8, 87300, Note_on_c, 4, 76, 110
8, 87314, Note_on_c, 4, 76, 0
8, 87330, Note_on_c, 4, 76, 110
8, 87344, Note_on_c, 4, 76, 0
8, 87360, Note_on_c, 4, 76, 110
8, 87374, Note_on_c, 4, 76, 0
8, 87390, Note_on_c, 4, 74, 110
8, 87404, Note_on_c, 4, 74, 0
8, 87420, Note_on_c, 4, 73, 110
8, 87434, Note_on_c, 4, 73, 0
8, 87435, Note_on_c, 4, 71, 110
8, 87449, Note_on_c, 4, 71, 0
8, 87450, Note_on_c, 4, 69, 110
8, 87479, Note_on_c, 4, 69, 0
8, 87480, Note_on_c, 4, 73, 110
8, 87539, Note_on_c, 4, 73, 0
8, 87540, Note_on_c, 4, 71, 110
8, 87550, Note_on_c, 4, 71, 0
8, 87550, Note_on_c, 4, 73, 110
8, 87560, Note_on_c, 4, 73, 0
8, 87560, Note_on_c, 4, 71, 110
8, 87570, Note_on_c, 4, 71, 0
8, 87570, Note_on_c, 4, 73, 110
8, 87585, Note_on_c, 4, 73, 0
8, 87585, Note_on_c, 4, 71, 110
8, 87600, Note_on_c, 4, 71, 0
8, 87600, Note_on_c, 4, 69, 110
8, 87719, Note_on_c, 4, 69, 0
8, 132660, Note_on_c, 4, 67, 90
8, 132779, Note_on_c, 4, 67, 0
8, 132780, Note_on_c, 4, 67, 90
8, 132899, Note_on_c, 4, 67, 0
8, 132900, Note_on_c, 4, 69, 90
8, 133019, Note_on_c, 4, 69, 0
8, 133020, Note_on_c, 4, 67, 90
8, 133139, Note_on_c, 4, 67, 0
8, 133140, Note_on_c, 4, 69, 90
8, 133199, Note_on_c, 4, 69, 0
8, 133200, Note_on_c, 4, 71, 90
8, 133259, Note_on_c, 4, 71, 0
8, 133260, Note_on_c, 4, 72, 90
8, 133379, Note_on_c, 4, 72, 0
8, 133380, Note_on_c, 4, 72, 90
8, 133499, Note_on_c, 4, 72, 0
8, 133500, Note_on_c, 4, 71, 90
8, 133619, Note_on_c, 4, 71, 0
8, 133620, Note_on_c, 4, 72, 90
8, 133859, Note_on_c, 4, 72, 0
8, 133860, Note_on_c, 4, 74, 90
8, 133979, Note_on_c, 4, 74, 0
8, 133980, Note_on_c, 4, 76, 90
8, 134099, Note_on_c, 4, 76, 0
8, 134100, Note_on_c, 4, 72, 90
8, 134339, Note_on_c, 4, 72, 0
8, 134340, Note_on_c, 4, 71, 90
8, 134399, Note_on_c, 4, 71, 0
8, 134400, Note_on_c, 4, 72, 90
8, 134459, Note_on_c, 4, 72, 0
8, 134460, Note_on_c, 4, 74, 90
8, 134579, Note_on_c, 4, 74, 0
8, 134580, Note_on_c, 4, 69, 90
8, 134819, Note_on_c, 4, 69, 0
8, 134820, Note_on_c, 4, 74, 90
8, 134939, Note_on_c, 4, 74, 0
8, 134940, Note_on_c, 4, 74, 90
8, 135059, Note_on_c, 4, 74, 0
8, 135060, Note_on_c, 4, 72, 90
8, 135179, Note_on_c, 4, 72, 0
8, 135180, Note_on_c, 4, 71, 90
8, 135239, Note_on_c, 4, 71, 0
8, 135240, Note_on_c, 4, 69, 90
8, 135299, Note_on_c, 4, 69, 0
8, 135300, Note_on_c, 4, 69, 90
8, 135539, Note_on_c, 4, 69, 0
8, 135540, Note_on_c, 4, 67, 90
8, 135779, Note_on_c, 4, 67, 0
8, 135780, Note_on_c, 4, 67, 90
8, 135899, Note_on_c, 4, 67, 0
8, 135900, Note_on_c, 4, 67, 90
8, 136019, Note_on_c, 4, 67, 0
8, 136020, Note_on_c, 4, 69, 90
8, 136139, Note_on_c, 4, 69, 0
8, 136140, Note_on_c, 4, 67, 90
8, 136259, Note_on_c, 4, 67, 0
8, 136260, Note_on_c, 4, 69, 90
8, 136319, Note_on_c, 4, 69, 0
8, 136320, Note_on_c, 4, 71, 90
8, 136379, Note_on_c, 4, 71, 0
8, 136380, Note_on_c, 4, 72, 90
8, 136499, Note_on_c, 4, 72, 0
8, 136500, Note_on_c, 4, 72, 90
8, 136619, Note_on_c, 4, 72, 0
8, 136620, Note_on_c, 4, 71, 90
8, 136739, Note_on_c, 4, 71, 0
8, 136740, Note_on_c, 4, 72, 90
8, 136979, Note_on_c, 4, 72, 0
8, 136980, Note_on_c, 4, 74, 90
8, 137099, Note_on_c, 4, 74, 0
8, 137100, Note_on_c, 4, 76, 90
8, 137219, Note_on_c, 4, 76, 0
8, 137220, Note_on_c, 4, 72, 90
8, 137459, Note_on_c, 4, 72, 0
8, 137460, Note_on_c, 4, 71, 90
8, 137519, Note_on_c, 4, 71, 0
8, 137520, Note_on_c, 4, 72, 90
8, 137579, Note_on_c, 4, 72, 0
8, 137580, Note_on_c, 4, 74, 90
8, 137699, Note_on_c, 4, 74, 0
8, 137700, Note_on_c, 4, 69, 90
8, 137939, Note_on_c, 4, 69, 0
8, 137940, Note_on_c, 4, 74, 90
8, 138059, Note_on_c, 4, 74, 0
8, 138060, Note_on_c, 4, 74, 90
8, 138179, Note_on_c, 4, 74, 0
8, 138180, Note_on_c, 4, 72, 90
8, 138299, Note_on_c, 4, 72, 0
8, 138300, Note_on_c, 4, 71, 90
8, 138359, Note_on_c, 4, 71, 0
8, 138360, Note_on_c, 4, 69, 90
8, 138419, Note_on_c, 4, 69, 0
8, 138420, Note_on_c, 4, 69, 90
8, 138659, Note_on_c, 4, 69, 0
8, 138660, Note_on_c, 4, 67, 90
8, 138899, Note_on_c, 4, 67, 0
8, 141900, Note_on_c, 4, 66, 90
8, 141959, Note_on_c, 4, 66, 0
8, 141960, Note_on_c, 4, 68, 90
8, 142019, Note_on_c, 4, 68, 0
8, 142020, Note_on_c, 4, 69, 90
8, 142139, Note_on_c, 4, 69, 0
8, 142140, Note_on_c, 4, 68, 90
8, 142259, Note_on_c, 4, 68, 0
8, 142260, Note_on_c, 4, 66, 90
8, 142379, Note_on_c, 4, 66, 0
8, 142380, Note_on_c, 4, 66, 90
8, 142439, Note_on_c, 4, 66, 0
8, 142440, Note_on_c, 4, 68, 90
8, 142499, Note_on_c, 4, 68, 0
8, 142500, Note_on_c, 4, 69, 90
8, 142619, Note_on_c, 4, 69, 0
8, 142620, Note_on_c, 4, 68, 90
8, 142739, Note_on_c, 4, 68, 0
8, 142740, Note_on_c, 4, 66, 90
8, 142859, Note_on_c, 4, 66, 0
8, 142860, Note_on_c, 4, 73, 90
8, 142979, Note_on_c, 4, 73, 0
8, 142980, Note_on_c, 4, 71, 90
8, 143099, Note_on_c, 4, 71, 0
8, 143100, Note_on_c, 4, 69, 90
8, 143219, Note_on_c, 4, 69, 0
8, 143220, Note_on_c, 4, 68, 90
8, 143339, Note_on_c, 4, 68, 0
8, 143340, Note_on_c, 4, 68, 90
8, 143459, Note_on_c, 4, 68, 0
8, 143460, Note_on_c, 4, 69, 90
8, 143579, Note_on_c, 4, 69, 0
8, 143580, Note_on_c, 4, 69, 90
8, 143699, Note_on_c, 4, 69, 0
8, 143700, Note_on_c, 4, 71, 90
8, 143819, Note_on_c, 4, 71, 0
8, 143820, Note_on_c, 4, 71, 90
8, 143939, Note_on_c, 4, 71, 0
8, 143940, Note_on_c, 4, 73, 90
8, 144059, Note_on_c, 4, 73, 0
8, 144060, Note_on_c, 4, 73, 90
8, 144179, Note_on_c, 4, 73, 0
8, 144180, Note_on_c, 4, 71, 90
8, 144299, Note_on_c, 4, 71, 0
8, 144300, Note_on_c, 4, 69, 90
8, 144419, Note_on_c, 4, 69, 0
8, 144420, Note_on_c, 4, 68, 90
8, 144659, Note_on_c, 4, 68, 0
8, 144660, Note_on_c, 4, 61, 90
8, 144779, Note_on_c, 4, 61, 0
8, 144780, Note_on_c, 4, 73, 90
8, 144899, Note_on_c, 4, 73, 0
8, 144900, Note_on_c, 4, 71, 90
8, 145019, Note_on_c, 4, 71, 0
8, 145020, Note_on_c, 4, 69, 90
8, 145079, Note_on_c, 4, 69, 0
8, 145080, Note_on_c, 4, 68, 90
8, 145139, Note_on_c, 4, 68, 0
8, 145140, Note_on_c, 4, 68, 90
8, 145259, Note_on_c, 4, 68, 0
8, 145260, Note_on_c, 4, 73, 90
8, 145379, Note_on_c, 4, 73, 0
8, 145380, Note_on_c, 4, 71, 90
8, 145499, Note_on_c, 4, 71, 0
8, 145500, Note_on_c, 4, 69, 90
8, 145619, Note_on_c, 4, 69, 0
8, 145620, Note_on_c, 4, 68, 90
8, 145739, Note_on_c, 4, 68, 0
8, 145740, Note_on_c, 4, 68, 90
8, 145859, Note_on_c, 4, 68, 0
8, 145860, Note_on_c, 4, 69, 90
8, 145979, Note_on_c, 4, 69, 0
8, 145980, Note_on_c, 4, 69, 90
8, 146099, Note_on_c, 4, 69, 0
8, 146100, Note_on_c, 4, 71, 90
8, 146219, Note_on_c, 4, 71, 0
8, 146220, Note_on_c, 4, 71, 90
8, 146339, Note_on_c, 4, 71, 0
8, 146340, Note_on_c, 4, 73, 90
8, 146459, Note_on_c, 4, 73, 0
8, 146460, Note_on_c, 4, 73, 90
8, 146579, Note_on_c, 4, 73, 0
8, 146580, Note_on_c, 4, 71, 90
8, 146699, Note_on_c, 4, 71, 0
8, 146700, Note_on_c, 4, 69, 90
8, 146759, Note_on_c, 4, 69, 0
8, 146760, Note_on_c, 4, 68, 90
8, 146819, Note_on_c, 4, 68, 0
8, 146820, Note_on_c, 4, 68, 90
8, 147059, Note_on_c, 4, 68, 0
8, 147060, Note_on_c, 4, 66, 90
8, 147179, Note_on_c, 4, 66, 0
8, 147300, Note_on_c, 4, 78, 90
8, 147359, Note_on_c, 4, 78, 0
8, 147360, Note_on_c, 4, 78, 90
8, 147419, Note_on_c, 4, 78, 0
8, 147420, Note_on_c, 4, 78, 90
8, 147479, Note_on_c, 4, 78, 0
8, 147480, Note_on_c, 4, 78, 90
8, 147539, Note_on_c, 4, 78, 0
8, 147540, Note_on_c, 4, 74, 90
8, 147569, Note_on_c, 4, 74, 0
8, 147570, Note_on_c, 4, 76, 90
8, 147599, Note_on_c, 4, 76, 0
8, 147600, Note_on_c, 4, 78, 90
8, 147629, Note_on_c, 4, 78, 0
8, 147630, Note_on_c, 4, 79, 90
8, 147659, Note_on_c, 4, 79, 0
8, 147660, Note_on_c, 4, 81, 90
8, 147719, Note_on_c, 4, 81, 0
8, 147720, Note_on_c, 4, 79, 90
8, 147779, Note_on_c, 4, 79, 0
8, 147780, Note_on_c, 4, 78, 90
8, 147839, Note_on_c, 4, 78, 0
8, 147840, Note_on_c, 4, 79, 90
8, 147929, Note_on_c, 4, 79, 0
8, 147930, Note_on_c, 4, 81, 90
8, 147944, Note_on_c, 4, 81, 0
8, 147945, Note_on_c, 4, 83, 90
8, 147959, Note_on_c, 4, 83, 0
8, 147960, Note_on_c, 4, 81, 90
8, 148019, Note_on_c, 4, 81, 0
8, 148020, Note_on_c, 4, 79, 90
8, 148079, Note_on_c, 4, 79, 0
8, 148080, Note_on_c, 4, 79, 90
8, 148139, Note_on_c, 4, 79, 0
8, 148140, Note_on_c, 4, 79, 90
8, 148199, Note_on_c, 4, 79, 0
8, 148200, Note_on_c, 4, 79, 90
8, 148259, Note_on_c, 4, 79, 0
8, 148260, Note_on_c, 4, 76, 90
8, 148289, Note_on_c, 4, 76, 0
8, 148290, Note_on_c, 4, 74, 90
8, 148319, Note_on_c, 4, 74, 0
8, 148320, Note_on_c, 4, 76, 90
8, 148349, Note_on_c, 4, 76, 0
8, 148350, Note_on_c, 4, 78, 90
8, 148379, Note_on_c, 4, 78, 0
8, 148380, Note_on_c, 4, 79, 90
8, 148409, Note_on_c, 4, 79, 0
8, 148410, Note_on_c, 4, 78, 90
8, 148439, Note_on_c, 4, 78, 0
8, 148440, Note_on_c, 4, 81, 90
8, 148469, Note_on_c, 4, 81, 0
8, 148470, Note_on_c, 4, 79, 90
8, 148499, Note_on_c, 4, 79, 0
8, 148500, Note_on_c, 4, 78, 90
8, 148529, Note_on_c, 4, 78, 0
8, 148530, Note_on_c, 4, 76, 90
8, 148559, Note_on_c, 4, 76, 0
8, 148560, Note_on_c, 4, 78, 90
8, 148649, Note_on_c, 4, 78, 0
8, 148650, Note_on_c, 4, 79, 90
8, 148664, Note_on_c, 4, 79, 0
8, 148665, Note_on_c, 4, 81, 90
8, 148679, Note_on_c, 4, 81, 0
8, 148680, Note_on_c, 4, 79, 90
8, 148739, Note_on_c, 4, 79, 0
8, 148740, Note_on_c, 4, 78, 90
8, 148799, Note_on_c, 4, 78, 0
8, 148800, Note_on_c, 4, 80, 90
8, 148859, Note_on_c, 4, 80, 0
8, 148860, Note_on_c, 4, 81, 90
8, 148919, Note_on_c, 4, 81, 0
8, 148920, Note_on_c, 4, 83, 90
8, 148949, Note_on_c, 4, 83, 0
8, 148950, Note_on_c, 4, 85, 90
8, 148979, Note_on_c, 4, 85, 0
8, 148980, Note_on_c, 4, 86, 90
8, 149039, Note_on_c, 4, 86, 0
8, 149040, Note_on_c, 4, 85, 90
8, 149099, Note_on_c, 4, 85, 0
8, 149100, Note_on_c, 4, 83, 90
8, 149159, Note_on_c, 4, 83, 0
8, 149160, Note_on_c, 4, 81, 90
8, 149219, Note_on_c, 4, 81, 0
8, 149220, Note_on_c, 4, 80, 90
8, 149279, Note_on_c, 4, 80, 0
8, 149280, Note_on_c, 4, 81, 90
8, 149339, Note_on_c, 4, 81, 0
8, 149520, Note_on_c, 4, 79, 90
8, 149580, Note_on_c, 4, 79, 0
8, 149580, Note_on_c, 4, 78, 90
8, 149640, Note_on_c, 4, 78, 0
8, 149640, Note_on_c, 4, 76, 90
8, 149699, Note_on_c, 4, 76, 0
8, 149700, Note_on_c, 4, 73, 90
8, 149729, Note_on_c, 4, 73, 0
8, 149730, Note_on_c, 4, 71, 90
8, 149759, Note_on_c, 4, 71, 0
8, 149760, Note_on_c, 4, 73, 90
8, 149789, Note_on_c, 4, 73, 0
8, 149790, Note_on_c, 4, 74, 90
8, 149819, Note_on_c, 4, 74, 0
8, 149820, Note_on_c, 4, 76, 90
8, 149879, Note_on_c, 4, 76, 0
8, 149880, Note_on_c, 4, 76, 90
8, 149939, Note_on_c, 4, 76, 0
8, 149940, Note_on_c, 4, 74, 90
8, 149999, Note_on_c, 4, 74, 0
8, 150000, Note_on_c, 4, 73, 90
8, 150179, Note_on_c, 4, 73, 0
8, 150900, Note_on_c, 4, 69, 90
8, 150959, Note_on_c, 4, 69, 0
8, 150960, Note_on_c, 4, 73, 90
8, 151019, Note_on_c, 4, 73, 0
8, 151020, Note_on_c, 4, 76, 90
8, 151079, Note_on_c, 4, 76, 0
8, 151080, Note_on_c, 4, 81, 90
8, 151139, Note_on_c, 4, 81, 0
8, 151260, Note_on_c, 4, 76, 90
8, 151319, Note_on_c, 4, 76, 0
8, 151440, Note_on_c, 4, 73, 90
8, 151499, Note_on_c, 4, 73, 0
8, 151500, Note_on_c, 4, 74, 90
8, 151559, Note_on_c, 4, 74, 0
8, 151560, Note_on_c, 4, 69, 90
8, 151619, Note_on_c, 4, 69, 0
8, 151620, Note_on_c, 4, 66, 90
8, 151679, Note_on_c, 4, 66, 0
8, 153060, Note_on_c, 4, 78, 90
8, 153119, Note_on_c, 4, 78, 0
8, 153120, Note_on_c, 4, 78, 90
8, 153179, Note_on_c, 4, 78, 0
8, 153180, Note_on_c, 4, 78, 90
8, 153239, Note_on_c, 4, 78, 0
8, 153240, Note_on_c, 4, 78, 90
8, 153299, Note_on_c, 4, 78, 0
8, 153300, Note_on_c, 4, 74, 90
8, 153329, Note_on_c, 4, 74, 0
8, 153330, Note_on_c, 4, 76, 90
8, 153359, Note_on_c, 4, 76, 0
8, 153360, Note_on_c, 4, 78, 90
8, 153389, Note_on_c, 4, 78, 0
8, 153390, Note_on_c, 4, 79, 90
8, 153419, Note_on_c, 4, 79, 0
8, 153420, Note_on_c, 4, 81, 90
8, 153479, Note_on_c, 4, 81, 0
8, 153480, Note_on_c, 4, 79, 90
8, 153539, Note_on_c, 4, 79, 0
8, 153540, Note_on_c, 4, 78, 90
8, 153599, Note_on_c, 4, 78, 0
8, 153600, Note_on_c, 4, 79, 90
8, 153689, Note_on_c, 4, 79, 0
8, 153690, Note_on_c, 4, 81, 90
8, 153704, Note_on_c, 4, 81, 0
8, 153705, Note_on_c, 4, 83, 90
8, 153719, Note_on_c, 4, 83, 0
8, 153720, Note_on_c, 4, 81, 90
8, 153779, Note_on_c, 4, 81, 0
8, 153780, Note_on_c, 4, 79, 90
8, 153839, Note_on_c, 4, 79, 0
8, 153840, Note_on_c, 4, 79, 90
8, 153899, Note_on_c, 4, 79, 0
8, 153900, Note_on_c, 4, 79, 90
8, 153959, Note_on_c, 4, 79, 0
8, 153960, Note_on_c, 4, 79, 90
8, 154019, Note_on_c, 4, 79, 0
8, 154020, Note_on_c, 4, 76, 90
8, 154049, Note_on_c, 4, 76, 0
8, 154050, Note_on_c, 4, 74, 90
8, 154079, Note_on_c, 4, 74, 0
8, 154080, Note_on_c, 4, 76, 90
8, 154109, Note_on_c, 4, 76, 0
8, 154110, Note_on_c, 4, 78, 90
8, 154139, Note_on_c, 4, 78, 0
8, 154140, Note_on_c, 4, 79, 90
8, 154169, Note_on_c, 4, 79, 0
8, 154170, Note_on_c, 4, 78, 90
8, 154199, Note_on_c, 4, 78, 0
8, 154200, Note_on_c, 4, 81, 90
8, 154229, Note_on_c, 4, 81, 0
8, 154230, Note_on_c, 4, 79, 90
8, 154259, Note_on_c, 4, 79, 0
8, 154260, Note_on_c, 4, 78, 90
8, 154289, Note_on_c, 4, 78, 0
8, 154290, Note_on_c, 4, 76, 90
8, 154319, Note_on_c, 4, 76, 0
8, 154320, Note_on_c, 4, 78, 90
8, 154409, Note_on_c, 4, 78, 0
8, 154410, Note_on_c, 4, 79, 90
8, 154424, Note_on_c, 4, 79, 0
8, 154425, Note_on_c, 4, 81, 90
8, 154439, Note_on_c, 4, 81, 0
8, 154440, Note_on_c, 4, 79, 90
8, 154499, Note_on_c, 4, 79, 0
8, 154500, Note_on_c, 4, 78, 90
8, 154559, Note_on_c, 4, 78, 0
8, 154560, Note_on_c, 4, 80, 90
8, 154619, Note_on_c, 4, 80, 0
8, 154620, Note_on_c, 4, 81, 90
8, 154679, Note_on_c, 4, 81, 0
8, 154680, Note_on_c, 4, 83, 90
8, 154709, Note_on_c, 4, 83, 0
8, 154710, Note_on_c, 4, 85, 90
8, 154739, Note_on_c, 4, 85, 0
8, 154740, Note_on_c, 4, 86, 90
8, 154799, Note_on_c, 4, 86, 0
8, 154800, Note_on_c, 4, 85, 90
8, 154859, Note_on_c, 4, 85, 0
8, 154860, Note_on_c, 4, 83, 90
8, 154919, Note_on_c, 4, 83, 0
8, 154920, Note_on_c, 4, 81, 90
8, 154979, Note_on_c, 4, 81, 0
8, 154980, Note_on_c, 4, 80, 90
8, 155039, Note_on_c, 4, 80, 0
8, 155040, Note_on_c, 4, 81, 90
8, 155099, Note_on_c, 4, 81, 0
8, 155280, Note_on_c, 4, 79, 90
8, 155339, Note_on_c, 4, 79, 0
8, 155340, Note_on_c, 4, 78, 90
8, 155399, Note_on_c, 4, 78, 0
8, 155400, Note_on_c, 4, 76, 90
8, 155459, Note_on_c, 4, 76, 0
8, 155460, Note_on_c, 4, 73, 90
8, 155489, Note_on_c, 4, 73, 0
8, 155490, Note_on_c, 4, 71, 90
8, 155519, Note_on_c, 4, 71, 0
8, 155520, Note_on_c, 4, 73, 90
8, 155549, Note_on_c, 4, 73, 0
8, 155550, Note_on_c, 4, 74, 90
8, 155579, Note_on_c, 4, 74, 0
8, 155580, Note_on_c, 4, 76, 90
8, 155639, Note_on_c, 4, 76, 0
8, 155640, Note_on_c, 4, 76, 90
8, 155699, Note_on_c, 4, 76, 0
8, 155700, Note_on_c, 4, 74, 90
8, 155759, Note_on_c, 4, 74, 0
8, 155760, Note_on_c, 4, 73, 90
8, 155939, Note_on_c, 4, 73, 0
8, 155940, Note_on_c, 4, 73, 90
8, 155999, Note_on_c, 4, 73, 0
8, 156000, Note_on_c, 4, 73, 90
8, 156059, Note_on_c, 4, 73, 0
8, 156060, Note_on_c, 4, 73, 90
8, 156119, Note_on_c, 4, 73, 0
8, 156120, Note_on_c, 4, 73, 90
8, 156179, Note_on_c, 4, 73, 0
8, 156180, Note_on_c, 4, 76, 90
8, 156209, Note_on_c, 4, 76, 0
8, 156210, Note_on_c, 4, 74, 90
8, 156239, Note_on_c, 4, 74, 0
8, 156240, Note_on_c, 4, 73, 90
8, 156269, Note_on_c, 4, 73, 0
8, 156270, Note_on_c, 4, 71, 90
8, 156299, Note_on_c, 4, 71, 0
8, 156300, Note_on_c, 4, 69, 90
8, 156359, Note_on_c, 4, 69, 0
8, 156360, Note_on_c, 4, 74, 90
8, 156419, Note_on_c, 4, 74, 0
8, 156420, Note_on_c, 4, 76, 90
8, 156479, Note_on_c, 4, 76, 0
8, 156480, Note_on_c, 4, 78, 90
8, 156539, Note_on_c, 4, 78, 0
8, 156540, Note_on_c, 4, 76, 90
8, 156629, Note_on_c, 4, 76, 0
8, 156630, Note_on_c, 4, 78, 90
8, 156644, Note_on_c, 4, 78, 0
8, 156645, Note_on_c, 4, 79, 90
8, 156659, Note_on_c, 4, 79, 0
8, 156660, Note_on_c, 4, 78, 90
8, 156719, Note_on_c, 4, 78, 0
8, 156720, Note_on_c, 4, 78, 90
8, 156779, Note_on_c, 4, 78, 0
8, 156780, Note_on_c, 4, 78, 90
8, 156839, Note_on_c, 4, 78, 0
8, 156840, Note_on_c, 4, 78, 90
8, 156899, Note_on_c, 4, 78, 0
8, 156900, Note_on_c, 4, 81, 90
8, 156929, Note_on_c, 4, 81, 0
8, 156930, Note_on_c, 4, 79, 90
8, 156959, Note_on_c, 4, 79, 0
8, 156960, Note_on_c, 4, 78, 90
8, 156989, Note_on_c, 4, 78, 0
8, 156990, Note_on_c, 4, 76, 90
8, 157019, Note_on_c, 4, 76, 0
8, 157020, Note_on_c, 4, 74, 90
8, 157079, Note_on_c, 4, 74, 0
8, 157080, Note_on_c, 4, 79, 90
8, 157139, Note_on_c, 4, 79, 0
8, 157140, Note_on_c, 4, 81, 90
8, 157199, Note_on_c, 4, 81, 0
8, 157200, Note_on_c, 4, 83, 90
8, 157259, Note_on_c, 4, 83, 0
8, 157260, Note_on_c, 4, 81, 90
8, 157349, Note_on_c, 4, 81, 0
8, 157350, Note_on_c, 4, 83, 90
8, 157365, Note_on_c, 4, 83, 0
8, 157365, Note_on_c, 4, 84, 90
8, 157380, Note_on_c, 4, 84, 0
8, 157380, Note_on_c, 4, 83, 90
8, 157440, Note_on_c, 4, 83, 0
8, 157440, Note_on_c, 4, 81, 90
8, 157470, Note_on_c, 4, 81, 0
8, 157470, Note_on_c, 4, 79, 90
8, 157500, Note_on_c, 4, 79, 0
8, 157500, Note_on_c, 4, 78, 90
8, 157530, Note_on_c, 4, 78, 0
8, 157530, Note_on_c, 4, 76, 90
8, 157560, Note_on_c, 4, 76, 0
8, 157560, Note_on_c, 4, 81, 90
8, 157620, Note_on_c, 4, 81, 0
8, 157620, Note_on_c, 4, 74, 90
8, 157680, Note_on_c, 4, 74, 0
8, 157680, Note_on_c, 4, 79, 90
8, 157740, Note_on_c, 4, 79, 0
8, 157740, Note_on_c, 4, 78, 90
8, 157800, Note_on_c, 4, 78, 0
8, 157800, Note_on_c, 4, 79, 90
8, 157860, Note_on_c, 4, 79, 0
8, 157860, Note_on_c, 4, 76, 90
8, 157920, Note_on_c, 4, 76, 0
8, 157920, Note_on_c, 4, 74, 90
8, 158040, Note_on_c, 4, 74, 0
8, 158160, Note_on_c, 4, 84, 90
8, 158220, Note_on_c, 4, 84, 0
8, 158220, Note_on_c, 4, 83, 90
8, 158280, Note_on_c, 4, 83, 0
8, 158280, Note_on_c, 4, 81, 90
8, 158340, Note_on_c, 4, 81, 0
8, 158340, Note_on_c, 4, 74, 90
8, 158370, Note_on_c, 4, 74, 0
8, 158370, Note_on_c, 4, 73, 90
8, 158400, Note_on_c, 4, 73, 0
8, 158400, Note_on_c, 4, 74, 90
8, 158430, Note_on_c, 4, 74, 0
8, 158430, Note_on_c, 4, 76, 90
8, 158460, Note_on_c, 4, 76, 0
8, 158460, Note_on_c, 4, 78, 90
8, 158520, Note_on_c, 4, 78, 0
8, 158520, Note_on_c, 4, 81, 90
8, 158580, Note_on_c, 4, 81, 0
8, 158580, Note_on_c, 4, 79, 90
8, 158640, Note_on_c, 4, 79, 0
8, 158640, Note_on_c, 4, 78, 90
8, 158819, Note_on_c, 4, 78, 0
8, 159540, Note_on_c, 4, 74, 90
8, 159599, Note_on_c, 4, 74, 0
8, 159600, Note_on_c, 4, 78, 90
8, 159659, Note_on_c, 4, 78, 0
8, 159660, Note_on_c, 4, 74, 90
8, 159719, Note_on_c, 4, 74, 0
8, 159720, Note_on_c, 4, 69, 90
8, 159779, Note_on_c, 4, 69, 0
8, 159780, Note_on_c, 4, 66, 90
8, 159839, Note_on_c, 4, 66, 0
8, 159840, Note_on_c, 4, 74, 90
8, 159899, Note_on_c, 4, 74, 0
8, 159900, Note_on_c, 4, 71, 90
8, 159959, Note_on_c, 4, 71, 0
8, 160020, Note_on_c, 4, 79, 90
8, 160079, Note_on_c, 4, 79, 0
8, 160080, Note_on_c, 4, 78, 90
8, 160139, Note_on_c, 4, 78, 0
8, 160200, Note_on_c, 4, 83, 90
8, 160259, Note_on_c, 4, 83, 0
8, 160260, Note_on_c, 4, 76, 90
8, 160319, Note_on_c, 4, 76, 0
8, 161700, Note_on_c, 4, 73, 90
8, 161759, Note_on_c, 4, 73, 0
8, 161760, Note_on_c, 4, 73, 90
8, 161819, Note_on_c, 4, 73, 0
8, 161820, Note_on_c, 4, 73, 90
8, 161879, Note_on_c, 4, 73, 0
8, 161880, Note_on_c, 4, 73, 90
8, 161939, Note_on_c, 4, 73, 0
8, 161940, Note_on_c, 4, 76, 90
8, 161969, Note_on_c, 4, 76, 0
8, 161970, Note_on_c, 4, 74, 90
8, 161999, Note_on_c, 4, 74, 0
8, 162000, Note_on_c, 4, 73, 90
8, 162029, Note_on_c, 4, 73, 0
8, 162030, Note_on_c, 4, 71, 90
8, 162059, Note_on_c, 4, 71, 0
8, 162060, Note_on_c, 4, 69, 90
8, 162119, Note_on_c, 4, 69, 0
8, 162120, Note_on_c, 4, 74, 90
8, 162179, Note_on_c, 4, 74, 0
8, 162180, Note_on_c, 4, 76, 90
8, 162239, Note_on_c, 4, 76, 0
8, 162240, Note_on_c, 4, 78, 90
8, 162299, Note_on_c, 4, 78, 0
8, 162300, Note_on_c, 4, 76, 90
8, 162389, Note_on_c, 4, 76, 0
8, 162390, Note_on_c, 4, 78, 90
8, 162404, Note_on_c, 4, 78, 0
8, 162405, Note_on_c, 4, 79, 90
8, 162419, Note_on_c, 4, 79, 0
8, 162420, Note_on_c, 4, 78, 90
8, 162479, Note_on_c, 4, 78, 0
8, 162480, Note_on_c, 4, 78, 90
8, 162539, Note_on_c, 4, 78, 0
8, 162540, Note_on_c, 4, 78, 90
8, 162599, Note_on_c, 4, 78, 0
8, 162600, Note_on_c, 4, 78, 90
8, 162659, Note_on_c, 4, 78, 0
8, 162660, Note_on_c, 4, 81, 90
8, 162689, Note_on_c, 4, 81, 0
8, 162690, Note_on_c, 4, 79, 90
8, 162719, Note_on_c, 4, 79, 0
8, 162720, Note_on_c, 4, 78, 90
8, 162749, Note_on_c, 4, 78, 0
8, 162750, Note_on_c, 4, 76, 90
8, 162779, Note_on_c, 4, 76, 0
8, 162780, Note_on_c, 4, 74, 90
8, 162839, Note_on_c, 4, 74, 0
8, 162840, Note_on_c, 4, 79, 90
8, 162899, Note_on_c, 4, 79, 0
8, 162900, Note_on_c, 4, 81, 90
8, 162959, Note_on_c, 4, 81, 0
8, 162960, Note_on_c, 4, 83, 90
8, 163019, Note_on_c, 4, 83, 0
8, 163020, Note_on_c, 4, 81, 90
8, 163109, Note_on_c, 4, 81, 0
8, 163110, Note_on_c, 4, 83, 90
8, 163125, Note_on_c, 4, 83, 0
8, 163125, Note_on_c, 4, 84, 90
8, 163140, Note_on_c, 4, 84, 0
8, 163140, Note_on_c, 4, 83, 90
8, 163200, Note_on_c, 4, 83, 0
8, 163200, Note_on_c, 4, 81, 90
8, 163230, Note_on_c, 4, 81, 0
8, 163230, Note_on_c, 4, 79, 90
8, 163260, Note_on_c, 4, 79, 0
8, 163260, Note_on_c, 4, 78, 90
8, 163290, Note_on_c, 4, 78, 0
8, 163290, Note_on_c, 4, 76, 90
8, 163320, Note_on_c, 4, 76, 0
8, 163320, Note_on_c, 4, 81, 90
8, 163380, Note_on_c, 4, 81, 0
8, 163380, Note_on_c, 4, 74, 90
8, 163440, Note_on_c, 4, 74, 0
8, 163440, Note_on_c, 4, 79, 90
8, 163500, Note_on_c, 4, 79, 0
8, 163500, Note_on_c, 4, 78, 90
8, 163560, Note_on_c, 4, 78, 0
8, 163560, Note_on_c, 4, 79, 90
8, 163620, Note_on_c, 4, 79, 0
8, 163620, Note_on_c, 4, 76, 90
8, 163680, Note_on_c, 4, 76, 0
8, 163680, Note_on_c, 4, 74, 90
8, 163800, Note_on_c, 4, 74, 0
8, 163920, Note_on_c, 4, 84, 90
8, 163980, Note_on_c, 4, 84, 0
8, 163980, Note_on_c, 4, 83, 90
8, 164040, Note_on_c, 4, 83, 0
8, 164040, Note_on_c, 4, 81, 90
8, 164100, Note_on_c, 4, 81, 0
8, 164100, Note_on_c, 4, 74, 90
8, 164130, Note_on_c, 4, 74, 0
8, 164130, Note_on_c, 4, 73, 90
8, 164160, Note_on_c, 4, 73, 0
8, 164160, Note_on_c, 4, 74, 90
8, 164190, Note_on_c, 4, 74, 0
8, 164190, Note_on_c, 4, 76, 90
8, 164220, Note_on_c, 4, 76, 0
8, 164220, Note_on_c, 4, 78, 90
8, 164280, Note_on_c, 4, 78, 0
8, 164280, Note_on_c, 4, 81, 90
8, 164340, Note_on_c, 4, 81, 0
8, 164340, Note_on_c, 4, 79, 90
8, 164400, Note_on_c, 4, 79, 0
8, 164400, Note_on_c, 4, 78, 90
8, 164579, Note_on_c, 4, 78, 0
8, 164579, End_track
9, 0, Start_track
9, 0, MIDI_port, 0
9, 0, Title_t, "oboe ii"
9, 0, Program_c, 5, 68
9, 0, Control_c, 5, 7, 127
9, 0, Control_c, 5, 10, 83
9, 0, Note_on_c, 5, 74, 90
9, 59, Note_on_c, 5, 74, 0
9, 60, Note_on_c, 5, 74, 90
9, 119, Note_on_c, 5, 74, 0
9, 120, Note_on_c, 5, 74, 90
9, 179, Note_on_c, 5, 74, 0
9, 180, Note_on_c, 5, 74, 90
9, 239, Note_on_c, 5, 74, 0
9, 240, Note_on_c, 5, 71, 90
9, 269, Note_on_c, 5, 71, 0
9, 270, Note_on_c, 5, 73, 90
9, 299, Note_on_c, 5, 73, 0
9, 300, Note_on_c, 5, 74, 90
9, 329, Note_on_c, 5, 74, 0
9, 330, Note_on_c, 5, 71, 90
9, 359, Note_on_c, 5, 71, 0
9, 360, Note_on_c, 5, 76, 90
9, 389, Note_on_c, 5, 76, 0
9, 390, Note_on_c, 5, 75, 90
9, 419, Note_on_c, 5, 75, 0
9, 420, Note_on_c, 5, 76, 90
9, 479, Note_on_c, 5, 76, 0
9, 480, Note_on_c, 5, 78, 90
9, 599, Note_on_c, 5, 78, 0
9, 600, Note_on_c, 5, 76, 90
9, 659, Note_on_c, 5, 76, 0
9, 660, Note_on_c, 5, 75, 90
9, 719, Note_on_c, 5, 75, 0
9, 720, Note_on_c, 5, 76, 90
9, 779, Note_on_c, 5, 76, 0
9, 780, Note_on_c, 5, 76, 90
9, 839, Note_on_c, 5, 76, 0
9, 840, Note_on_c, 5, 76, 90
9, 899, Note_on_c, 5, 76, 0
9, 900, Note_on_c, 5, 76, 90
9, 959, Note_on_c, 5, 76, 0
9, 960, Note_on_c, 5, 69, 90
9, 1019, Note_on_c, 5, 69, 0
9, 1020, Note_on_c, 5, 74, 90
9, 1079, Note_on_c, 5, 74, 0
9, 1080, Note_on_c, 5, 73, 90
9, 1139, Note_on_c, 5, 73, 0
9, 1140, Note_on_c, 5, 78, 90
9, 1169, Note_on_c, 5, 78, 0
9, 1170, Note_on_c, 5, 76, 90
9, 1199, Note_on_c, 5, 76, 0
9, 1200, Note_on_c, 5, 74, 90
9, 1229, Note_on_c, 5, 74, 0
9, 1230, Note_on_c, 5, 73, 90
9, 1259, Note_on_c, 5, 73, 0
9, 1260, Note_on_c, 5, 74, 90
9, 1319, Note_on_c, 5, 74, 0
9, 1320, Note_on_c, 5, 69, 90
9, 1379, Note_on_c, 5, 69, 0
9, 1380, Note_on_c, 5, 73, 90
9, 1439, Note_on_c, 5, 73, 0
9, 1440, Note_on_c, 5, 74, 90
9, 1499, Note_on_c, 5, 74, 0
9, 1500, Note_on_c, 5, 71, 90
9, 1559, Note_on_c, 5, 71, 0
9, 1560, Note_on_c, 5, 76, 90
9, 1589, Note_on_c, 5, 76, 0
9, 1590, Note_on_c, 5, 78, 90
9, 1619, Note_on_c, 5, 78, 0
9, 1620, Note_on_c, 5, 80, 90
9, 1649, Note_on_c, 5, 80, 0
9, 1650, Note_on_c, 5, 81, 90
9, 1679, Note_on_c, 5, 81, 0
9, 1680, Note_on_c, 5, 83, 90
9, 1739, Note_on_c, 5, 83, 0
9, 1740, Note_on_c, 5, 81, 90
9, 1799, Note_on_c, 5, 81, 0
9, 1800, Note_on_c, 5, 78, 90
9, 1859, Note_on_c, 5, 78, 0
9, 1860, Note_on_c, 5, 71, 90
9, 1889, Note_on_c, 5, 71, 0
9, 1890, Note_on_c, 5, 73, 90
9, 1919, Note_on_c, 5, 73, 0
9, 1920, Note_on_c, 5, 74, 90
9, 1979, Note_on_c, 5, 74, 0
9, 1980, Note_on_c, 5, 73, 90
9, 2039, Note_on_c, 5, 73, 0
9, 2220, Note_on_c, 5, 76, 90
9, 2279, Note_on_c, 5, 76, 0
9, 2280, Note_on_c, 5, 74, 90
9, 2339, Note_on_c, 5, 74, 0
9, 2340, Note_on_c, 5, 73, 90
9, 2399, Note_on_c, 5, 73, 0
9, 2400, Note_on_c, 5, 64, 90
9, 2429, Note_on_c, 5, 64, 0
9, 2430, Note_on_c, 5, 62, 90
9, 2459, Note_on_c, 5, 62, 0
9, 2460, Note_on_c, 5, 64, 90
9, 2489, Note_on_c, 5, 64, 0
9, 2490, Note_on_c, 5, 66, 90
9, 2519, Note_on_c, 5, 66, 0
9, 2520, Note_on_c, 5, 67, 90
9, 2579, Note_on_c, 5, 67, 0
9, 2580, Note_on_c, 5, 67, 90
9, 2639, Note_on_c, 5, 67, 0
9, 2640, Note_on_c, 5, 66, 90
9, 2699, Note_on_c, 5, 66, 0
9, 2700, Note_on_c, 5, 64, 90
9, 2879, Note_on_c, 5, 64, 0
9, 3600, Note_on_c, 5, 64, 90
9, 3659, Note_on_c, 5, 64, 0
9, 3660, Note_on_c, 5, 69, 90
9, 3719, Note_on_c, 5, 69, 0
9, 3720, Note_on_c, 5, 73, 90
9, 3779, Note_on_c, 5, 73, 0
9, 3780, Note_on_c, 5, 76, 90
9, 3839, Note_on_c, 5, 76, 0
9, 3960, Note_on_c, 5, 73, 90
9, 4019, Note_on_c, 5, 73, 0
9, 4140, Note_on_c, 5, 64, 90
9, 4199, Note_on_c, 5, 64, 0
9, 4200, Note_on_c, 5, 74, 90
9, 4259, Note_on_c, 5, 74, 0
9, 4260, Note_on_c, 5, 69, 90
9, 4319, Note_on_c, 5, 69, 0
9, 4320, Note_on_c, 5, 66, 90
9, 4379, Note_on_c, 5, 66, 0
9, 5760, Note_on_c, 5, 74, 90
9, 5819, Note_on_c, 5, 74, 0
9, 5820, Note_on_c, 5, 74, 90
9, 5879, Note_on_c, 5, 74, 0
9, 5880, Note_on_c, 5, 74, 90
9, 5939, Note_on_c, 5, 74, 0
9, 5940, Note_on_c, 5, 74, 90
9, 5999, Note_on_c, 5, 74, 0
9, 6000, Note_on_c, 5, 71, 90
9, 6029, Note_on_c, 5, 71, 0
9, 6030, Note_on_c, 5, 73, 90
9, 6059, Note_on_c, 5, 73, 0
9, 6060, Note_on_c, 5, 74, 90
9, 6089, Note_on_c, 5, 74, 0
9, 6090, Note_on_c, 5, 71, 90
9, 6119, Note_on_c, 5, 71, 0
9, 6120, Note_on_c, 5, 76, 90
9, 6149, Note_on_c, 5, 76, 0
9, 6150, Note_on_c, 5, 75, 90
9, 6179, Note_on_c, 5, 75, 0
9, 6180, Note_on_c, 5, 76, 90
9, 6239, Note_on_c, 5, 76, 0
9, 6240, Note_on_c, 5, 78, 90
9, 6359, Note_on_c, 5, 78, 0
9, 6360, Note_on_c, 5, 76, 90
9, 6419, Note_on_c, 5, 76, 0
9, 6420, Note_on_c, 5, 75, 90
9, 6479, Note_on_c, 5, 75, 0
9, 6480, Note_on_c, 5, 76, 90
9, 6539, Note_on_c, 5, 76, 0
9, 6540, Note_on_c, 5, 76, 90
9, 6599, Note_on_c, 5, 76, 0
9, 6600, Note_on_c, 5, 76, 90
9, 6659, Note_on_c, 5, 76, 0
9, 6660, Note_on_c, 5, 76, 90
9, 6719, Note_on_c, 5, 76, 0
9, 6720, Note_on_c, 5, 69, 90
9, 6779, Note_on_c, 5, 69, 0
9, 6780, Note_on_c, 5, 74, 90
9, 6839, Note_on_c, 5, 74, 0
9, 6840, Note_on_c, 5, 73, 90
9, 6899, Note_on_c, 5, 73, 0
9, 6900, Note_on_c, 5, 78, 90
9, 6929, Note_on_c, 5, 78, 0
9, 6930, Note_on_c, 5, 76, 90
9, 6959, Note_on_c, 5, 76, 0
9, 6960, Note_on_c, 5, 74, 90
9, 6989, Note_on_c, 5, 74, 0
9, 6990, Note_on_c, 5, 73, 90
9, 7019, Note_on_c, 5, 73, 0
9, 7020, Note_on_c, 5, 74, 90
9, 7079, Note_on_c, 5, 74, 0
9, 7080, Note_on_c, 5, 69, 90
9, 7139, Note_on_c, 5, 69, 0
9, 7140, Note_on_c, 5, 73, 90
9, 7199, Note_on_c, 5, 73, 0
9, 7200, Note_on_c, 5, 74, 90
9, 7259, Note_on_c, 5, 74, 0
9, 7260, Note_on_c, 5, 71, 90
9, 7319, Note_on_c, 5, 71, 0
9, 7320, Note_on_c, 5, 76, 90
9, 7349, Note_on_c, 5, 76, 0
9, 7350, Note_on_c, 5, 78, 90
9, 7379, Note_on_c, 5, 78, 0
9, 7380, Note_on_c, 5, 80, 90
9, 7409, Note_on_c, 5, 80, 0
9, 7410, Note_on_c, 5, 81, 90
9, 7439, Note_on_c, 5, 81, 0
9, 7440, Note_on_c, 5, 83, 90
9, 7499, Note_on_c, 5, 83, 0
9, 7500, Note_on_c, 5, 81, 90
9, 7559, Note_on_c, 5, 81, 0
9, 7560, Note_on_c, 5, 78, 90
9, 7619, Note_on_c, 5, 78, 0
9, 7620, Note_on_c, 5, 71, 90
9, 7649, Note_on_c, 5, 71, 0
9, 7650, Note_on_c, 5, 73, 90
9, 7679, Note_on_c, 5, 73, 0
9, 7680, Note_on_c, 5, 74, 90
9, 7739, Note_on_c, 5, 74, 0
9, 7740, Note_on_c, 5, 73, 90
9, 7799, Note_on_c, 5, 73, 0
9, 7980, Note_on_c, 5, 76, 90
9, 8039, Note_on_c, 5, 76, 0
9, 8040, Note_on_c, 5, 74, 90
9, 8099, Note_on_c, 5, 74, 0
9, 8100, Note_on_c, 5, 73, 90
9, 8159, Note_on_c, 5, 73, 0
9, 8160, Note_on_c, 5, 64, 90
9, 8189, Note_on_c, 5, 64, 0
9, 8190, Note_on_c, 5, 62, 90
9, 8219, Note_on_c, 5, 62, 0
9, 8220, Note_on_c, 5, 64, 90
9, 8249, Note_on_c, 5, 64, 0
9, 8250, Note_on_c, 5, 66, 90
9, 8279, Note_on_c, 5, 66, 0
9, 8280, Note_on_c, 5, 67, 90
9, 8339, Note_on_c, 5, 67, 0
9, 8340, Note_on_c, 5, 67, 90
9, 8399, Note_on_c, 5, 67, 0
9, 8400, Note_on_c, 5, 66, 90
9, 8459, Note_on_c, 5, 66, 0
9, 8460, Note_on_c, 5, 64, 90
9, 8639, Note_on_c, 5, 64, 0
9, 8640, Note_on_c, 5, 69, 90
9, 8699, Note_on_c, 5, 69, 0
9, 8700, Note_on_c, 5, 69, 90
9, 8759, Note_on_c, 5, 69, 0
9, 8760, Note_on_c, 5, 69, 90
9, 8819, Note_on_c, 5, 69, 0
9, 8820, Note_on_c, 5, 69, 90
9, 8849, Note_on_c, 5, 69, 0
9, 8850, Note_on_c, 5, 71, 90
9, 8879, Note_on_c, 5, 71, 0
9, 8880, Note_on_c, 5, 73, 90
9, 8909, Note_on_c, 5, 73, 0
9, 8910, Note_on_c, 5, 74, 90
9, 8939, Note_on_c, 5, 74, 0
9, 8940, Note_on_c, 5, 76, 90
9, 9059, Note_on_c, 5, 76, 0
9, 9060, Note_on_c, 5, 74, 90
9, 9119, Note_on_c, 5, 74, 0
9, 9120, Note_on_c, 5, 73, 90
9, 9179, Note_on_c, 5, 73, 0
9, 9180, Note_on_c, 5, 74, 90
9, 9239, Note_on_c, 5, 74, 0
9, 9240, Note_on_c, 5, 71, 90
9, 9299, Note_on_c, 5, 71, 0
9, 9300, Note_on_c, 5, 69, 90
9, 9419, Note_on_c, 5, 69, 0
9, 9420, Note_on_c, 5, 74, 90
9, 9479, Note_on_c, 5, 74, 0
9, 9480, Note_on_c, 5, 74, 90
9, 9539, Note_on_c, 5, 74, 0
9, 9540, Note_on_c, 5, 74, 90
9, 9569, Note_on_c, 5, 74, 0
9, 9570, Note_on_c, 5, 76, 90
9, 9599, Note_on_c, 5, 76, 0
9, 9600, Note_on_c, 5, 78, 90
9, 9629, Note_on_c, 5, 78, 0
9, 9630, Note_on_c, 5, 79, 90
9, 9659, Note_on_c, 5, 79, 0
9, 9660, Note_on_c, 5, 81, 90
9, 9779, Note_on_c, 5, 81, 0
9, 9780, Note_on_c, 5, 79, 90
9, 9839, Note_on_c, 5, 79, 0
9, 9840, Note_on_c, 5, 78, 90
9, 9899, Note_on_c, 5, 78, 0
9, 9900, Note_on_c, 5, 79, 90
9, 9959, Note_on_c, 5, 79, 0
9, 9960, Note_on_c, 5, 72, 90
9, 10019, Note_on_c, 5, 72, 0
9, 10020, Note_on_c, 5, 74, 90
9, 10139, Note_on_c, 5, 74, 0
9, 10140, Note_on_c, 5, 76, 90
9, 10199, Note_on_c, 5, 76, 0
9, 10200, Note_on_c, 5, 71, 90
9, 10259, Note_on_c, 5, 71, 0
9, 10260, Note_on_c, 5, 73, 90
9, 10319, Note_on_c, 5, 73, 0
9, 10320, Note_on_c, 5, 74, 90
9, 10349, Note_on_c, 5, 74, 0
9, 10350, Note_on_c, 5, 73, 90
9, 10379, Note_on_c, 5, 73, 0
9, 10380, Note_on_c, 5, 74, 90
9, 10499, Note_on_c, 5, 74, 0
9, 10500, Note_on_c, 5, 76, 90
9, 10559, Note_on_c, 5, 76, 0
9, 10560, Note_on_c, 5, 73, 90
9, 10619, Note_on_c, 5, 73, 0
9, 10620, Note_on_c, 5, 74, 90
9, 10739, Note_on_c, 5, 74, 0
9, 10860, Note_on_c, 5, 81, 90
9, 10919, Note_on_c, 5, 81, 0
9, 10920, Note_on_c, 5, 79, 90
9, 10979, Note_on_c, 5, 79, 0
9, 10980, Note_on_c, 5, 78, 90
9, 11039, Note_on_c, 5, 78, 0
9, 11040, Note_on_c, 5, 66, 90
9, 11069, Note_on_c, 5, 66, 0
9, 11070, Note_on_c, 5, 64, 90
9, 11099, Note_on_c, 5, 64, 0
9, 11100, Note_on_c, 5, 66, 90
9, 11129, Note_on_c, 5, 66, 0
9, 11130, Note_on_c, 5, 67, 90
9, 11159, Note_on_c, 5, 67, 0
9, 11160, Note_on_c, 5, 69, 90
9, 11219, Note_on_c, 5, 69, 0
9, 11220, Note_on_c, 5, 72, 90
9, 11279, Note_on_c, 5, 72, 0
9, 11280, Note_on_c, 5, 71, 90
9, 11339, Note_on_c, 5, 71, 0
9, 11340, Note_on_c, 5, 69, 90
9, 11519, Note_on_c, 5, 69, 0
9, 12240, Note_on_c, 5, 71, 90
9, 12299, Note_on_c, 5, 71, 0
9, 12300, Note_on_c, 5, 74, 90
9, 12359, Note_on_c, 5, 74, 0
9, 12360, Note_on_c, 5, 71, 90
9, 12419, Note_on_c, 5, 71, 0
9, 12420, Note_on_c, 5, 74, 90
9, 12479, Note_on_c, 5, 74, 0
9, 12480, Note_on_c, 5, 69, 90
9, 12539, Note_on_c, 5, 69, 0
9, 12540, Note_on_c, 5, 66, 90
9, 12599, Note_on_c, 5, 66, 0
9, 12600, Note_on_c, 5, 62, 90
9, 12659, Note_on_c, 5, 62, 0
9, 12720, Note_on_c, 5, 73, 90
9, 12779, Note_on_c, 5, 73, 0
9, 12780, Note_on_c, 5, 74, 90
9, 12839, Note_on_c, 5, 74, 0
9, 12900, Note_on_c, 5, 62, 90
9, 12959, Note_on_c, 5, 62, 0
9, 12960, Note_on_c, 5, 69, 90
9, 13019, Note_on_c, 5, 69, 0
9, 14400, Note_on_c, 5, 69, 90
9, 14459, Note_on_c, 5, 69, 0
9, 14460, Note_on_c, 5, 69, 90
9, 14519, Note_on_c, 5, 69, 0
9, 14520, Note_on_c, 5, 69, 90
9, 14579, Note_on_c, 5, 69, 0
9, 14580, Note_on_c, 5, 69, 90
9, 14609, Note_on_c, 5, 69, 0
9, 14610, Note_on_c, 5, 71, 90
9, 14639, Note_on_c, 5, 71, 0
9, 14640, Note_on_c, 5, 73, 90
9, 14669, Note_on_c, 5, 73, 0
9, 14670, Note_on_c, 5, 74, 90
9, 14699, Note_on_c, 5, 74, 0
9, 14700, Note_on_c, 5, 76, 90
9, 14819, Note_on_c, 5, 76, 0
9, 14820, Note_on_c, 5, 74, 90
9, 14879, Note_on_c, 5, 74, 0
9, 14880, Note_on_c, 5, 73, 90
9, 14939, Note_on_c, 5, 73, 0
9, 14940, Note_on_c, 5, 74, 90
9, 14999, Note_on_c, 5, 74, 0
9, 15000, Note_on_c, 5, 71, 90
9, 15059, Note_on_c, 5, 71, 0
9, 15060, Note_on_c, 5, 69, 90
9, 15179, Note_on_c, 5, 69, 0
9, 15180, Note_on_c, 5, 74, 90
9, 15239, Note_on_c, 5, 74, 0
9, 15240, Note_on_c, 5, 74, 90
9, 15299, Note_on_c, 5, 74, 0
9, 15300, Note_on_c, 5, 74, 90
9, 15329, Note_on_c, 5, 74, 0
9, 15330, Note_on_c, 5, 76, 90
9, 15359, Note_on_c, 5, 76, 0
9, 15360, Note_on_c, 5, 78, 90
9, 15389, Note_on_c, 5, 78, 0
9, 15390, Note_on_c, 5, 79, 90
9, 15419, Note_on_c, 5, 79, 0
9, 15420, Note_on_c, 5, 81, 90
9, 15539, Note_on_c, 5, 81, 0
9, 15540, Note_on_c, 5, 79, 90
9, 15599, Note_on_c, 5, 79, 0
9, 15600, Note_on_c, 5, 78, 90
9, 15659, Note_on_c, 5, 78, 0
9, 15660, Note_on_c, 5, 79, 90
9, 15719, Note_on_c, 5, 79, 0
9, 15720, Note_on_c, 5, 72, 90
9, 15779, Note_on_c, 5, 72, 0
9, 15780, Note_on_c, 5, 74, 90
9, 15899, Note_on_c, 5, 74, 0
9, 15900, Note_on_c, 5, 76, 90
9, 15959, Note_on_c, 5, 76, 0
9, 15960, Note_on_c, 5, 71, 90
9, 16019, Note_on_c, 5, 71, 0
9, 16020, Note_on_c, 5, 73, 90
9, 16079, Note_on_c, 5, 73, 0
9, 16080, Note_on_c, 5, 74, 90
9, 16109, Note_on_c, 5, 74, 0
9, 16110, Note_on_c, 5, 73, 90
9, 16139, Note_on_c, 5, 73, 0
9, 16140, Note_on_c, 5, 74, 90
9, 16259, Note_on_c, 5, 74, 0
9, 16260, Note_on_c, 5, 76, 90
9, 16319, Note_on_c, 5, 76, 0
9, 16320, Note_on_c, 5, 73, 90
9, 16379, Note_on_c, 5, 73, 0
9, 16380, Note_on_c, 5, 74, 90
9, 16499, Note_on_c, 5, 74, 0
9, 16620, Note_on_c, 5, 81, 90
9, 16679, Note_on_c, 5, 81, 0
9, 16680, Note_on_c, 5, 79, 90
9, 16739, Note_on_c, 5, 79, 0
9, 16740, Note_on_c, 5, 78, 90
9, 16799, Note_on_c, 5, 78, 0
9, 16800, Note_on_c, 5, 66, 90
9, 16829, Note_on_c, 5, 66, 0
9, 16830, Note_on_c, 5, 64, 90
9, 16859, Note_on_c, 5, 64, 0
9, 16860, Note_on_c, 5, 66, 90
9, 16889, Note_on_c, 5, 66, 0
9, 16890, Note_on_c, 5, 67, 90
9, 16919, Note_on_c, 5, 67, 0
9, 16920, Note_on_c, 5, 69, 90
9, 16979, Note_on_c, 5, 69, 0
9, 16980, Note_on_c, 5, 72, 90
9, 17039, Note_on_c, 5, 72, 0
9, 17040, Note_on_c, 5, 71, 90
9, 17099, Note_on_c, 5, 71, 0
9, 17100, Note_on_c, 5, 69, 90
9, 17279, Note_on_c, 5, 69, 0
9, 20100, Note_on_c, 5, 69, 90
9, 20159, Note_on_c, 5, 69, 0
9, 20160, Note_on_c, 5, 67, 90
9, 20219, Note_on_c, 5, 67, 0
9, 20220, Note_on_c, 5, 66, 90
9, 20279, Note_on_c, 5, 66, 0
9, 20280, Note_on_c, 5, 64, 90
9, 20339, Note_on_c, 5, 64, 0
9, 20340, Note_on_c, 5, 62, 90
9, 20459, Note_on_c, 5, 62, 0
9, 20460, Note_on_c, 5, 62, 90
9, 20579, Note_on_c, 5, 62, 0
9, 20580, Note_on_c, 5, 69, 90
9, 20699, Note_on_c, 5, 69, 0
9, 20700, Note_on_c, 5, 61, 90
9, 20939, Note_on_c, 5, 61, 0
9, 20940, Note_on_c, 5, 61, 90
9, 21059, Note_on_c, 5, 61, 0
9, 21060, Note_on_c, 5, 62, 90
9, 21179, Note_on_c, 5, 62, 0
9, 21180, Note_on_c, 5, 62, 90
9, 21239, Note_on_c, 5, 62, 0
9, 21240, Note_on_c, 5, 64, 90
9, 21299, Note_on_c, 5, 64, 0
9, 21300, Note_on_c, 5, 66, 90
9, 21359, Note_on_c, 5, 66, 0
9, 21360, Note_on_c, 5, 68, 90
9, 21419, Note_on_c, 5, 68, 0
9, 21420, Note_on_c, 5, 69, 90
9, 21539, Note_on_c, 5, 69, 0
9, 21540, Note_on_c, 5, 69, 90
9, 21659, Note_on_c, 5, 69, 0
9, 21660, Note_on_c, 5, 64, 90
9, 21779, Note_on_c, 5, 64, 0
9, 21780, Note_on_c, 5, 73, 90
9, 22019, Note_on_c, 5, 73, 0
9, 22020, Note_on_c, 5, 73, 90
9, 22139, Note_on_c, 5, 73, 0
9, 22140, Note_on_c, 5, 73, 90
9, 22259, Note_on_c, 5, 73, 0
9, 22260, Note_on_c, 5, 66, 90
9, 22379, Note_on_c, 5, 66, 0
9, 22380, Note_on_c, 5, 71, 90
9, 22559, Note_on_c, 5, 71, 0
9, 22560, Note_on_c, 5, 69, 90
9, 22619, Note_on_c, 5, 69, 0
9, 22620, Note_on_c, 5, 68, 90
9, 22679, Note_on_c, 5, 68, 0
9, 22680, Note_on_c, 5, 66, 90
9, 22739, Note_on_c, 5, 66, 0
9, 22740, Note_on_c, 5, 64, 90
9, 22859, Note_on_c, 5, 64, 0
9, 23100, Note_on_c, 5, 64, 90
9, 23159, Note_on_c, 5, 64, 0
9, 23160, Note_on_c, 5, 66, 90
9, 23219, Note_on_c, 5, 66, 0
9, 23220, Note_on_c, 5, 68, 90
9, 23279, Note_on_c, 5, 68, 0
9, 23280, Note_on_c, 5, 71, 90
9, 23339, Note_on_c, 5, 71, 0
9, 23340, Note_on_c, 5, 69, 90
9, 23399, Note_on_c, 5, 69, 0
9, 23400, Note_on_c, 5, 68, 90
9, 23459, Note_on_c, 5, 68, 0
9, 23460, Note_on_c, 5, 69, 90
9, 23519, Note_on_c, 5, 69, 0
9, 23520, Note_on_c, 5, 64, 90
9, 23579, Note_on_c, 5, 64, 0
9, 23580, Note_on_c, 5, 69, 90
9, 23699, Note_on_c, 5, 69, 0
9, 23700, Note_on_c, 5, 69, 90
9, 23759, Note_on_c, 5, 69, 0
9, 23760, Note_on_c, 5, 68, 90
9, 23819, Note_on_c, 5, 68, 0
9, 23820, Note_on_c, 5, 69, 90
9, 23939, Note_on_c, 5, 69, 0
9, 23940, Note_on_c, 5, 68, 90
9, 24119, Note_on_c, 5, 68, 0
9, 24120, Note_on_c, 5, 66, 90
9, 24179, Note_on_c, 5, 66, 0
9, 24180, Note_on_c, 5, 68, 90
9, 24239, Note_on_c, 5, 68, 0
9, 24240, Note_on_c, 5, 64, 90
9, 24299, Note_on_c, 5, 64, 0
9, 24300, Note_on_c, 5, 66, 90
9, 24419, Note_on_c, 5, 66, 0
9, 24420, Note_on_c, 5, 66, 90
9, 24539, Note_on_c, 5, 66, 0
9, 24540, Note_on_c, 5, 66, 90
9, 24659, Note_on_c, 5, 66, 0
9, 24660, Note_on_c, 5, 66, 90
9, 24779, Note_on_c, 5, 66, 0
9, 24780, Note_on_c, 5, 66, 90
9, 24899, Note_on_c, 5, 66, 0
9, 24900, Note_on_c, 5, 71, 90
9, 25079, Note_on_c, 5, 71, 0
9, 25080, Note_on_c, 5, 69, 90
9, 25139, Note_on_c, 5, 69, 0
9, 25140, Note_on_c, 5, 71, 90
9, 25319, Note_on_c, 5, 71, 0
9, 25320, Note_on_c, 5, 73, 90
9, 25379, Note_on_c, 5, 73, 0
9, 25380, Note_on_c, 5, 69, 90
9, 25499, Note_on_c, 5, 69, 0
9, 25500, Note_on_c, 5, 69, 90
9, 25559, Note_on_c, 5, 69, 0
9, 25560, Note_on_c, 5, 68, 90
9, 25619, Note_on_c, 5, 68, 0
9, 25620, Note_on_c, 5, 69, 90
9, 25679, Note_on_c, 5, 69, 0
9, 25680, Note_on_c, 5, 66, 90
9, 25739, Note_on_c, 5, 66, 0
9, 25740, Note_on_c, 5, 68, 90
9, 25859, Note_on_c, 5, 68, 0
9, 25860, Note_on_c, 5, 72, 90
9, 25979, Note_on_c, 5, 72, 0
9, 25980, Note_on_c, 5, 75, 90
9, 26159, Note_on_c, 5, 75, 0
9, 26160, Note_on_c, 5, 72, 90
9, 26219, Note_on_c, 5, 72, 0
9, 26220, Note_on_c, 5, 73, 90
9, 26339, Note_on_c, 5, 73, 0
9, 26340, Note_on_c, 5, 73, 90
9, 26459, Note_on_c, 5, 73, 0
9, 26460, Note_on_c, 5, 66, 90
9, 26519, Note_on_c, 5, 66, 0
9, 26520, Note_on_c, 5, 66, 90
9, 26579, Note_on_c, 5, 66, 0
9, 26580, Note_on_c, 5, 71, 90
9, 26699, Note_on_c, 5, 71, 0
9, 26760, Note_on_c, 5, 68, 90
9, 26819, Note_on_c, 5, 68, 0
9, 26820, Note_on_c, 5, 73, 90
9, 26939, Note_on_c, 5, 73, 0
9, 26940, Note_on_c, 5, 72, 90
9, 26999, Note_on_c, 5, 72, 0
9, 27000, Note_on_c, 5, 73, 90
9, 27059, Note_on_c, 5, 73, 0
9, 27060, Note_on_c, 5, 75, 90
9, 27179, Note_on_c, 5, 75, 0
9, 27180, Note_on_c, 5, 63, 90
9, 27299, Note_on_c, 5, 63, 0
9, 27360, Note_on_c, 5, 72, 90
9, 27419, Note_on_c, 5, 72, 0
9, 27420, Note_on_c, 5, 73, 90
9, 27479, Note_on_c, 5, 73, 0
9, 27480, Note_on_c, 5, 68, 90
9, 27539, Note_on_c, 5, 68, 0
9, 27540, Note_on_c, 5, 69, 90
9, 27659, Note_on_c, 5, 69, 0
9, 27660, Note_on_c, 5, 69, 90
9, 27719, Note_on_c, 5, 69, 0
9, 27720, Note_on_c, 5, 68, 90
9, 27779, Note_on_c, 5, 68, 0
9, 27780, Note_on_c, 5, 69, 90
9, 27899, Note_on_c, 5, 69, 0
9, 27900, Note_on_c, 5, 68, 90
9, 27959, Note_on_c, 5, 68, 0
9, 27960, Note_on_c, 5, 66, 90
9, 28019, Note_on_c, 5, 66, 0
9, 28020, Note_on_c, 5, 68, 90
9, 28079, Note_on_c, 5, 68, 0
9, 28080, Note_on_c, 5, 64, 90
9, 28139, Note_on_c, 5, 64, 0
9, 28140, Note_on_c, 5, 64, 90
9, 28259, Note_on_c, 5, 64, 0
9, 28260, Note_on_c, 5, 69, 90
9, 28319, Note_on_c, 5, 69, 0
9, 28320, Note_on_c, 5, 69, 90
9, 28379, Note_on_c, 5, 69, 0
9, 28380, Note_on_c, 5, 68, 90
9, 28559, Note_on_c, 5, 68, 0
9, 28560, Note_on_c, 5, 66, 90
9, 28619, Note_on_c, 5, 66, 0
9, 28620, Note_on_c, 5, 64, 90
9, 28739, Note_on_c, 5, 64, 0
9, 32460, Note_on_c, 5, 69, 90
9, 32579, Note_on_c, 5, 69, 0
9, 32580, Note_on_c, 5, 69, 90
9, 32699, Note_on_c, 5, 69, 0
9, 32700, Note_on_c, 5, 69, 90
9, 32819, Note_on_c, 5, 69, 0
9, 32820, Note_on_c, 5, 71, 90
9, 32939, Note_on_c, 5, 71, 0
9, 32940, Note_on_c, 5, 69, 90
9, 33059, Note_on_c, 5, 69, 0
9, 33060, Note_on_c, 5, 74, 90
9, 33179, Note_on_c, 5, 74, 0
9, 33180, Note_on_c, 5, 76, 90
9, 33299, Note_on_c, 5, 76, 0
9, 33300, Note_on_c, 5, 74, 90
9, 33539, Note_on_c, 5, 74, 0
9, 33540, Note_on_c, 5, 73, 90
9, 33599, Note_on_c, 5, 73, 0
9, 33600, Note_on_c, 5, 74, 90
9, 33659, Note_on_c, 5, 74, 0
9, 33660, Note_on_c, 5, 76, 90
9, 33779, Note_on_c, 5, 76, 0
9, 33780, Note_on_c, 5, 78, 90
9, 33899, Note_on_c, 5, 78, 0
9, 33900, Note_on_c, 5, 76, 90
9, 33959, Note_on_c, 5, 76, 0
9, 33960, Note_on_c, 5, 74, 90
9, 34019, Note_on_c, 5, 74, 0
9, 34020, Note_on_c, 5, 73, 90
9, 34139, Note_on_c, 5, 73, 0
9, 34140, Note_on_c, 5, 71, 90
9, 34259, Note_on_c, 5, 71, 0
9, 34260, Note_on_c, 5, 69, 90
9, 34379, Note_on_c, 5, 69, 0
9, 34380, Note_on_c, 5, 69, 90
9, 34499, Note_on_c, 5, 69, 0
9, 34500, Note_on_c, 5, 74, 90
9, 34619, Note_on_c, 5, 74, 0
9, 34620, Note_on_c, 5, 73, 90
9, 34679, Note_on_c, 5, 73, 0
9, 34680, Note_on_c, 5, 74, 90
9, 34739, Note_on_c, 5, 74, 0
9, 34740, Note_on_c, 5, 76, 90
9, 34859, Note_on_c, 5, 76, 0
9, 34860, Note_on_c, 5, 71, 90
9, 34979, Note_on_c, 5, 71, 0
9, 34980, Note_on_c, 5, 69, 90
9, 35039, Note_on_c, 5, 69, 0
9, 35040, Note_on_c, 5, 68, 90
9, 35099, Note_on_c, 5, 68, 0
9, 35100, Note_on_c, 5, 66, 90
9, 35219, Note_on_c, 5, 66, 0
9, 35220, Note_on_c, 5, 64, 90
9, 35339, Note_on_c, 5, 64, 0
9, 35340, Note_on_c, 5, 64, 90
9, 35459, Note_on_c, 5, 64, 0
9, 35460, Note_on_c, 5, 71, 90
9, 35579, Note_on_c, 5, 71, 0
9, 35580, Note_on_c, 5, 71, 90
9, 35699, Note_on_c, 5, 71, 0
9, 35700, Note_on_c, 5, 71, 90
9, 35819, Note_on_c, 5, 71, 0
9, 35820, Note_on_c, 5, 73, 90
9, 35939, Note_on_c, 5, 73, 0
9, 35940, Note_on_c, 5, 74, 90
9, 35999, Note_on_c, 5, 74, 0
9, 36000, Note_on_c, 5, 73, 90
9, 36059, Note_on_c, 5, 73, 0
9, 36060, Note_on_c, 5, 71, 90
9, 36179, Note_on_c, 5, 71, 0
9, 36180, Note_on_c, 5, 69, 90
9, 36239, Note_on_c, 5, 69, 0
9, 36240, Note_on_c, 5, 71, 90
9, 36299, Note_on_c, 5, 71, 0
9, 36300, Note_on_c, 5, 73, 90
9, 36419, Note_on_c, 5, 73, 0
9, 36420, Note_on_c, 5, 71, 90
9, 36659, Note_on_c, 5, 71, 0
9, 36660, Note_on_c, 5, 69, 90
9, 36779, Note_on_c, 5, 69, 0
9, 36780, Note_on_c, 5, 69, 90
9, 36899, Note_on_c, 5, 69, 0
9, 36900, Note_on_c, 5, 69, 90
9, 37259, Note_on_c, 5, 69, 0
9, 37740, Note_on_c, 5, 61, 110
9, 37829, Note_on_c, 5, 61, 0
9, 37830, Note_on_c, 5, 62, 110
9, 37844, Note_on_c, 5, 62, 0
9, 37845, Note_on_c, 5, 64, 110
9, 37859, Note_on_c, 5, 64, 0
9, 37860, Note_on_c, 5, 62, 110
9, 37919, Note_on_c, 5, 62, 0
9, 37920, Note_on_c, 5, 61, 110
9, 37934, Note_on_c, 5, 61, 0
9, 37935, Note_on_c, 5, 59, 110
9, 37949, Note_on_c, 5, 59, 0
9, 37950, Note_on_c, 5, 57, 110
9, 37979, Note_on_c, 5, 57, 0
9, 37980, Note_on_c, 5, 59, 110
9, 38100, Note_on_c, 5, 59, 0
9, 38100, Note_on_c, 5, 61, 110
9, 38129, Note_on_c, 5, 61, 0
9, 38130, Note_on_c, 5, 63, 110
9, 38159, Note_on_c, 5, 63, 0
9, 38160, Note_on_c, 5, 63, 110
9, 38189, Note_on_c, 5, 63, 0
9, 38190, Note_on_c, 5, 65, 110
9, 38219, Note_on_c, 5, 65, 0
9, 38220, Note_on_c, 5, 65, 110
9, 38249, Note_on_c, 5, 65, 0
9, 38250, Note_on_c, 5, 66, 110
9, 38279, Note_on_c, 5, 66, 0
9, 38280, Note_on_c, 5, 66, 110
9, 38294, Note_on_c, 5, 66, 0
9, 38295, Note_on_c, 5, 68, 110
9, 38309, Note_on_c, 5, 68, 0
9, 38310, Note_on_c, 5, 69, 110
9, 38339, Note_on_c, 5, 69, 0
9, 38340, Note_on_c, 5, 69, 110
9, 38399, Note_on_c, 5, 69, 0
9, 38400, Note_on_c, 5, 59, 110
9, 38489, Note_on_c, 5, 59, 0
9, 38490, Note_on_c, 5, 61, 110
9, 38519, Note_on_c, 5, 61, 0
9, 38520, Note_on_c, 5, 61, 110
9, 38549, Note_on_c, 5, 61, 0
9, 38550, Note_on_c, 5, 63, 110
9, 38579, Note_on_c, 5, 63, 0
9, 38580, Note_on_c, 5, 63, 110
9, 38609, Note_on_c, 5, 63, 0
9, 38610, Note_on_c, 5, 64, 110
9, 38639, Note_on_c, 5, 64, 0
9, 38640, Note_on_c, 5, 64, 110
9, 38654, Note_on_c, 5, 64, 0
9, 38655, Note_on_c, 5, 66, 110
9, 38669, Note_on_c, 5, 66, 0
9, 38670, Note_on_c, 5, 68, 110
9, 38699, Note_on_c, 5, 68, 0
9, 38700, Note_on_c, 5, 68, 110
9, 38759, Note_on_c, 5, 68, 0
9, 39150, Note_on_c, 5, 74, 110
9, 39179, Note_on_c, 5, 74, 0
9, 39180, Note_on_c, 5, 73, 110
9, 39194, Note_on_c, 5, 73, 0
9, 39195, Note_on_c, 5, 71, 110
9, 39209, Note_on_c, 5, 71, 0
9, 39210, Note_on_c, 5, 69, 110
9, 39239, Note_on_c, 5, 69, 0
9, 39240, Note_on_c, 5, 69, 110
9, 39269, Note_on_c, 5, 69, 0
9, 39270, Note_on_c, 5, 68, 110
9, 39329, Note_on_c, 5, 68, 0
9, 39330, Note_on_c, 5, 69, 110
9, 39359, Note_on_c, 5, 69, 0
9, 39360, Note_on_c, 5, 67, 110
9, 39374, Note_on_c, 5, 67, 0
9, 39375, Note_on_c, 5, 66, 110
9, 39389, Note_on_c, 5, 66, 0
9, 39390, Note_on_c, 5, 64, 110
9, 39419, Note_on_c, 5, 64, 0
9, 39420, Note_on_c, 5, 63, 110
9, 39539, Note_on_c, 5, 63, 0
9, 39540, Note_on_c, 5, 64, 110
9, 39599, Note_on_c, 5, 64, 0
9, 39600, Note_on_c, 5, 68, 110
9, 39659, Note_on_c, 5, 68, 0
9, 39660, Note_on_c, 5, 66, 110
9, 39719, Note_on_c, 5, 66, 0
9, 39720, Note_on_c, 5, 68, 110
9, 39779, Note_on_c, 5, 68, 0
9, 39780, Note_on_c, 5, 66, 110
9, 39809, Note_on_c, 5, 66, 0
9, 39810, Note_on_c, 5, 64, 110
9, 39839, Note_on_c, 5, 64, 0
9, 39840, Note_on_c, 5, 66, 110
9, 39869, Note_on_c, 5, 66, 0
9, 39870, Note_on_c, 5, 63, 110
9, 39899, Note_on_c, 5, 63, 0
9, 39900, Note_on_c, 5, 64, 110
9, 39929, Note_on_c, 5, 64, 0
9, 39960, Note_on_c, 5, 64, 110
9, 39989, Note_on_c, 5, 64, 0
9, 40020, Note_on_c, 5, 63, 110
9, 40079, Note_on_c, 5, 63, 0
9, 40080, Note_on_c, 5, 64, 110
9, 40199, Note_on_c, 5, 64, 0
9, 40800, Note_on_c, 5, 61, 90
9, 40814, Note_on_c, 5, 61, 0
9, 40815, Note_on_c, 5, 62, 90
9, 40829, Note_on_c, 5, 62, 0
9, 40830, Note_on_c, 5, 64, 90
9, 40844, Note_on_c, 5, 64, 0
9, 40860, Note_on_c, 5, 64, 90
9, 40874, Note_on_c, 5, 64, 0
9, 40890, Note_on_c, 5, 64, 90
9, 40904, Note_on_c, 5, 64, 0
9, 40920, Note_on_c, 5, 64, 90
9, 40934, Note_on_c, 5, 64, 0
9, 40950, Note_on_c, 5, 64, 90
9, 40964, Note_on_c, 5, 64, 0
9, 40980, Note_on_c, 5, 64, 90
9, 41039, Note_on_c, 5, 64, 0
9, 41100, Note_on_c, 5, 66, 90
9, 41114, Note_on_c, 5, 66, 0
9, 41115, Note_on_c, 5, 68, 90
9, 41129, Note_on_c, 5, 68, 0
9, 41130, Note_on_c, 5, 69, 90
9, 41159, Note_on_c, 5, 69, 0
9, 41160, Note_on_c, 5, 69, 90
9, 41219, Note_on_c, 5, 69, 0
9, 41340, Note_on_c, 5, 71, 90
9, 41429, Note_on_c, 5, 71, 0
9, 41430, Note_on_c, 5, 73, 90
9, 41444, Note_on_c, 5, 73, 0
9, 41445, Note_on_c, 5, 74, 90
9, 41459, Note_on_c, 5, 74, 0
9, 41460, Note_on_c, 5, 73, 90
9, 41519, Note_on_c, 5, 73, 0
9, 41520, Note_on_c, 5, 71, 90
9, 41579, Note_on_c, 5, 71, 0
9, 41640, Note_on_c, 5, 68, 90
9, 41654, Note_on_c, 5, 68, 0
9, 41655, Note_on_c, 5, 69, 90
9, 41669, Note_on_c, 5, 69, 0
9, 41670, Note_on_c, 5, 71, 90
9, 41699, Note_on_c, 5, 71, 0
9, 41700, Note_on_c, 5, 71, 90
9, 41759, Note_on_c, 5, 71, 0
9, 41880, Note_on_c, 5, 61, 90
9, 41894, Note_on_c, 5, 61, 0
9, 41895, Note_on_c, 5, 62, 90
9, 41909, Note_on_c, 5, 62, 0
9, 41910, Note_on_c, 5, 64, 90
9, 41924, Note_on_c, 5, 64, 0
9, 41940, Note_on_c, 5, 64, 90
9, 41954, Note_on_c, 5, 64, 0
9, 41970, Note_on_c, 5, 64, 90
9, 41984, Note_on_c, 5, 64, 0
9, 42000, Note_on_c, 5, 64, 90
9, 42014, Note_on_c, 5, 64, 0
9, 42030, Note_on_c, 5, 64, 90
9, 42044, Note_on_c, 5, 64, 0
9, 42060, Note_on_c, 5, 69, 90
9, 42074, Note_on_c, 5, 69, 0
9, 42075, Note_on_c, 5, 68, 90
9, 42089, Note_on_c, 5, 68, 0
9, 42090, Note_on_c, 5, 66, 90
9, 42119, Note_on_c, 5, 66, 0
9, 42120, Note_on_c, 5, 64, 90
9, 42299, Note_on_c, 5, 64, 0
9, 42420, Note_on_c, 5, 61, 90
9, 42509, Note_on_c, 5, 61, 0
9, 42510, Note_on_c, 5, 62, 90
9, 42524, Note_on_c, 5, 62, 0
9, 42525, Note_on_c, 5, 64, 90
9, 42539, Note_on_c, 5, 64, 0
9, 42540, Note_on_c, 5, 62, 90
9, 42599, Note_on_c, 5, 62, 0
9, 42600, Note_on_c, 5, 61, 90
9, 42614, Note_on_c, 5, 61, 0
9, 42615, Note_on_c, 5, 59, 90
9, 42629, Note_on_c, 5, 59, 0
9, 42630, Note_on_c, 5, 57, 90
9, 42659, Note_on_c, 5, 57, 0
9, 42660, Note_on_c, 5, 57, 90
9, 42719, Note_on_c, 5, 57, 0
9, 42720, Note_on_c, 5, 59, 90
9, 42779, Note_on_c, 5, 59, 0
9, 42780, Note_on_c, 5, 61, 90
9, 42809, Note_on_c, 5, 61, 0
9, 42810, Note_on_c, 5, 63, 90
9, 42839, Note_on_c, 5, 63, 0
9, 42840, Note_on_c, 5, 63, 90
9, 42869, Note_on_c, 5, 63, 0
9, 42870, Note_on_c, 5, 65, 90
9, 42899, Note_on_c, 5, 65, 0
9, 42900, Note_on_c, 5, 65, 90
9, 42929, Note_on_c, 5, 65, 0
9, 42930, Note_on_c, 5, 66, 90
9, 42959, Note_on_c, 5, 66, 0
9, 42960, Note_on_c, 5, 66, 90
9, 42974, Note_on_c, 5, 66, 0
9, 42975, Note_on_c, 5, 68, 90
9, 42989, Note_on_c, 5, 68, 0
9, 42990, Note_on_c, 5, 69, 90
9, 43019, Note_on_c, 5, 69, 0
9, 43020, Note_on_c, 5, 69, 90
9, 43079, Note_on_c, 5, 69, 0
9, 43080, Note_on_c, 5, 59, 90
9, 43169, Note_on_c, 5, 59, 0
9, 43170, Note_on_c, 5, 61, 90
9, 43199, Note_on_c, 5, 61, 0
9, 43200, Note_on_c, 5, 61, 90
9, 43229, Note_on_c, 5, 61, 0
9, 43230, Note_on_c, 5, 63, 90
9, 43259, Note_on_c, 5, 63, 0
9, 43260, Note_on_c, 5, 63, 90
9, 43289, Note_on_c, 5, 63, 0
9, 43290, Note_on_c, 5, 64, 90
9, 43319, Note_on_c, 5, 64, 0
9, 43320, Note_on_c, 5, 64, 90
9, 43334, Note_on_c, 5, 64, 0
9, 43335, Note_on_c, 5, 66, 90
9, 43349, Note_on_c, 5, 66, 0
9, 43350, Note_on_c, 5, 68, 90
9, 43379, Note_on_c, 5, 68, 0
9, 43380, Note_on_c, 5, 68, 90
9, 43439, Note_on_c, 5, 68, 0
9, 43830, Note_on_c, 5, 74, 90
9, 43859, Note_on_c, 5, 74, 0
9, 43860, Note_on_c, 5, 73, 90
9, 43874, Note_on_c, 5, 73, 0
9, 43875, Note_on_c, 5, 71, 90
9, 43889, Note_on_c, 5, 71, 0
9, 43890, Note_on_c, 5, 69, 90
9, 43919, Note_on_c, 5, 69, 0
9, 43920, Note_on_c, 5, 69, 90
9, 43949, Note_on_c, 5, 69, 0
9, 43950, Note_on_c, 5, 68, 90
9, 44009, Note_on_c, 5, 68, 0
9, 44010, Note_on_c, 5, 69, 90
9, 44039, Note_on_c, 5, 69, 0
9, 44040, Note_on_c, 5, 67, 90
9, 44054, Note_on_c, 5, 67, 0
9, 44055, Note_on_c, 5, 66, 90
9, 44069, Note_on_c, 5, 66, 0
9, 44070, Note_on_c, 5, 64, 90
9, 44099, Note_on_c, 5, 64, 0
9, 44100, Note_on_c, 5, 63, 90
9, 44219, Note_on_c, 5, 63, 0
9, 44280, Note_on_c, 5, 68, 90
9, 44294, Note_on_c, 5, 68, 0
9, 44295, Note_on_c, 5, 66, 90
9, 44309, Note_on_c, 5, 66, 0
9, 44310, Note_on_c, 5, 64, 90
9, 44339, Note_on_c, 5, 64, 0
9, 44340, Note_on_c, 5, 64, 90
9, 44399, Note_on_c, 5, 64, 0
9, 44460, Note_on_c, 5, 63, 90
9, 44474, Note_on_c, 5, 63, 0
9, 44475, Note_on_c, 5, 64, 90
9, 44489, Note_on_c, 5, 64, 0
9, 44490, Note_on_c, 5, 66, 90
9, 44519, Note_on_c, 5, 66, 0
9, 44520, Note_on_c, 5, 66, 90
9, 44579, Note_on_c, 5, 66, 0
9, 44760, Note_on_c, 5, 68, 90
9, 44849, Note_on_c, 5, 68, 0
9, 44850, Note_on_c, 5, 69, 90
9, 44864, Note_on_c, 5, 69, 0
9, 44865, Note_on_c, 5, 71, 90
9, 44879, Note_on_c, 5, 71, 0
9, 44880, Note_on_c, 5, 69, 90
9, 44939, Note_on_c, 5, 69, 0
9, 44940, Note_on_c, 5, 68, 110
9, 44954, Note_on_c, 5, 68, 0
9, 44955, Note_on_c, 5, 66, 110
9, 44969, Note_on_c, 5, 66, 0
9, 44970, Note_on_c, 5, 64, 110
9, 44999, Note_on_c, 5, 64, 0
9, 45000, Note_on_c, 5, 64, 110
9, 45029, Note_on_c, 5, 64, 0
9, 45030, Note_on_c, 5, 66, 110
9, 45059, Note_on_c, 5, 66, 0
9, 45120, Note_on_c, 5, 73, 110
9, 45209, Note_on_c, 5, 73, 0
9, 45210, Note_on_c, 5, 74, 110
9, 45224, Note_on_c, 5, 74, 0
9, 45225, Note_on_c, 5, 76, 110
9, 45239, Note_on_c, 5, 76, 0
9, 45240, Note_on_c, 5, 74, 110
9, 45299, Note_on_c, 5, 74, 0
9, 45300, Note_on_c, 5, 73, 110
9, 45314, Note_on_c, 5, 73, 0
9, 45315, Note_on_c, 5, 71, 110
9, 45329, Note_on_c, 5, 71, 0
9, 45330, Note_on_c, 5, 69, 110
9, 45359, Note_on_c, 5, 69, 0
9, 45360, Note_on_c, 5, 69, 110
9, 45389, Note_on_c, 5, 69, 0
9, 45390, Note_on_c, 5, 71, 110
9, 45419, Note_on_c, 5, 71, 0
9, 45480, Note_on_c, 5, 59, 110
9, 45569, Note_on_c, 5, 59, 0
9, 45570, Note_on_c, 5, 61, 110
9, 45599, Note_on_c, 5, 61, 0
9, 45600, Note_on_c, 5, 62, 110
9, 45614, Note_on_c, 5, 62, 0
9, 45615, Note_on_c, 5, 61, 110
9, 45629, Note_on_c, 5, 61, 0
9, 45630, Note_on_c, 5, 59, 110
9, 45659, Note_on_c, 5, 59, 0
9, 45660, Note_on_c, 5, 61, 110
9, 45689, Note_on_c, 5, 61, 0
9, 45690, Note_on_c, 5, 63, 110
9, 45719, Note_on_c, 5, 63, 0
9, 45720, Note_on_c, 5, 63, 110
9, 45749, Note_on_c, 5, 63, 0
9, 45750, Note_on_c, 5, 65, 110
9, 45779, Note_on_c, 5, 65, 0
9, 45780, Note_on_c, 5, 65, 110
9, 45809, Note_on_c, 5, 65, 0
9, 45810, Note_on_c, 5, 66, 110
9, 45839, Note_on_c, 5, 66, 0
9, 45840, Note_on_c, 5, 66, 110
9, 45854, Note_on_c, 5, 66, 0
9, 45855, Note_on_c, 5, 68, 110
9, 45869, Note_on_c, 5, 68, 0
9, 45870, Note_on_c, 5, 69, 110
9, 45899, Note_on_c, 5, 69, 0
9, 45900, Note_on_c, 5, 69, 110
9, 45959, Note_on_c, 5, 69, 0
9, 45960, Note_on_c, 5, 59, 110
9, 46049, Note_on_c, 5, 59, 0
9, 46050, Note_on_c, 5, 61, 110
9, 46079, Note_on_c, 5, 61, 0
9, 46080, Note_on_c, 5, 61, 110
9, 46109, Note_on_c, 5, 61, 0
9, 46110, Note_on_c, 5, 63, 110
9, 46139, Note_on_c, 5, 63, 0
9, 46140, Note_on_c, 5, 63, 110
9, 46169, Note_on_c, 5, 63, 0
9, 46170, Note_on_c, 5, 64, 110
9, 46199, Note_on_c, 5, 64, 0
9, 46200, Note_on_c, 5, 64, 110
9, 46214, Note_on_c, 5, 64, 0
9, 46215, Note_on_c, 5, 66, 110
9, 46229, Note_on_c, 5, 66, 0
9, 46230, Note_on_c, 5, 68, 110
9, 46259, Note_on_c, 5, 68, 0
9, 46260, Note_on_c, 5, 68, 110
9, 46319, Note_on_c, 5, 68, 0
9, 46710, Note_on_c, 5, 74, 110
9, 46739, Note_on_c, 5, 74, 0
9, 46740, Note_on_c, 5, 73, 110
9, 46754, Note_on_c, 5, 73, 0
9, 46755, Note_on_c, 5, 71, 110
9, 46769, Note_on_c, 5, 71, 0
9, 46770, Note_on_c, 5, 69, 110
9, 46799, Note_on_c, 5, 69, 0
9, 46800, Note_on_c, 5, 69, 110
9, 46829, Note_on_c, 5, 69, 0
9, 46830, Note_on_c, 5, 68, 110
9, 46889, Note_on_c, 5, 68, 0
9, 46890, Note_on_c, 5, 69, 110
9, 46919, Note_on_c, 5, 69, 0
9, 46920, Note_on_c, 5, 67, 110
9, 46934, Note_on_c, 5, 67, 0
9, 46935, Note_on_c, 5, 66, 110
9, 46949, Note_on_c, 5, 66, 0
9, 46950, Note_on_c, 5, 64, 110
9, 46979, Note_on_c, 5, 64, 0
9, 46980, Note_on_c, 5, 63, 110
9, 47099, Note_on_c, 5, 63, 0
9, 47100, Note_on_c, 5, 64, 110
9, 47159, Note_on_c, 5, 64, 0
9, 47160, Note_on_c, 5, 68, 110
9, 47219, Note_on_c, 5, 68, 0
9, 47220, Note_on_c, 5, 66, 110
9, 47279, Note_on_c, 5, 66, 0
9, 47280, Note_on_c, 5, 68, 110
9, 47339, Note_on_c, 5, 68, 0
9, 47340, Note_on_c, 5, 66, 110
9, 47369, Note_on_c, 5, 66, 0
9, 47370, Note_on_c, 5, 64, 110
9, 47399, Note_on_c, 5, 64, 0
9, 47400, Note_on_c, 5, 66, 110
9, 47429, Note_on_c, 5, 66, 0
9, 47430, Note_on_c, 5, 63, 110
9, 47459, Note_on_c, 5, 63, 0
9, 47460, Note_on_c, 5, 64, 110
9, 47489, Note_on_c, 5, 64, 0
9, 47520, Note_on_c, 5, 64, 110
9, 47549, Note_on_c, 5, 64, 0
9, 47580, Note_on_c, 5, 63, 110
9, 47639, Note_on_c, 5, 63, 0
9, 47640, Note_on_c, 5, 64, 90
9, 47759, Note_on_c, 5, 64, 0
9, 47820, Note_on_c, 5, 68, 90
9, 47834, Note_on_c, 5, 68, 0
9, 47835, Note_on_c, 5, 69, 90
9, 47849, Note_on_c, 5, 69, 0
9, 47850, Note_on_c, 5, 71, 90
9, 47864, Note_on_c, 5, 71, 0
9, 47880, Note_on_c, 5, 71, 90
9, 47894, Note_on_c, 5, 71, 0
9, 47910, Note_on_c, 5, 71, 90
9, 47924, Note_on_c, 5, 71, 0
9, 47940, Note_on_c, 5, 71, 90
9, 47954, Note_on_c, 5, 71, 0
9, 47970, Note_on_c, 5, 71, 90
9, 47984, Note_on_c, 5, 71, 0
9, 48000, Note_on_c, 5, 73, 90
9, 48059, Note_on_c, 5, 73, 0
9, 48180, Note_on_c, 5, 64, 90
9, 48194, Note_on_c, 5, 64, 0
9, 48195, Note_on_c, 5, 66, 90
9, 48209, Note_on_c, 5, 66, 0
9, 48210, Note_on_c, 5, 67, 90
9, 48224, Note_on_c, 5, 67, 0
9, 48240, Note_on_c, 5, 67, 90
9, 48254, Note_on_c, 5, 67, 0
9, 48270, Note_on_c, 5, 67, 90
9, 48284, Note_on_c, 5, 67, 0
9, 48300, Note_on_c, 5, 67, 90
9, 48314, Note_on_c, 5, 67, 0
9, 48330, Note_on_c, 5, 73, 90
9, 48344, Note_on_c, 5, 73, 0
9, 48360, Note_on_c, 5, 74, 90
9, 48374, Note_on_c, 5, 74, 0
9, 48375, Note_on_c, 5, 73, 90
9, 48389, Note_on_c, 5, 73, 0
9, 48390, Note_on_c, 5, 71, 90
9, 48419, Note_on_c, 5, 71, 0
9, 48420, Note_on_c, 5, 69, 90
9, 48479, Note_on_c, 5, 69, 0
9, 48660, Note_on_c, 5, 71, 90
9, 48719, Note_on_c, 5, 71, 0
9, 48720, Note_on_c, 5, 64, 90
9, 48779, Note_on_c, 5, 64, 0
9, 48780, Note_on_c, 5, 76, 90
9, 48839, Note_on_c, 5, 76, 0
9, 48840, Note_on_c, 5, 68, 90
9, 48899, Note_on_c, 5, 68, 0
9, 48900, Note_on_c, 5, 64, 90
9, 48959, Note_on_c, 5, 64, 0
9, 49140, Note_on_c, 5, 63, 90
9, 49154, Note_on_c, 5, 63, 0
9, 49155, Note_on_c, 5, 64, 90
9, 49169, Note_on_c, 5, 64, 0
9, 49170, Note_on_c, 5, 66, 90
9, 49184, Note_on_c, 5, 66, 0
9, 49200, Note_on_c, 5, 66, 90
9, 49214, Note_on_c, 5, 66, 0
9, 49230, Note_on_c, 5, 66, 90
9, 49244, Note_on_c, 5, 66, 0
9, 49260, Note_on_c, 5, 68, 90
9, 49274, Note_on_c, 5, 68, 0
9, 49275, Note_on_c, 5, 69, 90
9, 49289, Note_on_c, 5, 69, 0
9, 49290, Note_on_c, 5, 71, 90
9, 49304, Note_on_c, 5, 71, 0
9, 49320, Note_on_c, 5, 71, 90
9, 49334, Note_on_c, 5, 71, 0
9, 49350, Note_on_c, 5, 71, 90
9, 49364, Note_on_c, 5, 71, 0
9, 49380, Note_on_c, 5, 71, 90
9, 49394, Note_on_c, 5, 71, 0
9, 49410, Note_on_c, 5, 71, 90
9, 49424, Note_on_c, 5, 71, 0
9, 49440, Note_on_c, 5, 69, 90
9, 49499, Note_on_c, 5, 69, 0
9, 49620, Note_on_c, 5, 61, 90
9, 49634, Note_on_c, 5, 61, 0
9, 49635, Note_on_c, 5, 62, 90
9, 49649, Note_on_c, 5, 62, 0
9, 49650, Note_on_c, 5, 64, 90
9, 49664, Note_on_c, 5, 64, 0
9, 49680, Note_on_c, 5, 64, 90
9, 49694, Note_on_c, 5, 64, 0
9, 49710, Note_on_c, 5, 64, 90
9, 49724, Note_on_c, 5, 64, 0
9, 49740, Note_on_c, 5, 64, 90
9, 49754, Note_on_c, 5, 64, 0
9, 49770, Note_on_c, 5, 64, 90
9, 49784, Note_on_c, 5, 64, 0
9, 49800, Note_on_c, 5, 62, 90
9, 49889, Note_on_c, 5, 62, 0
9, 49890, Note_on_c, 5, 64, 90
9, 49904, Note_on_c, 5, 64, 0
9, 49905, Note_on_c, 5, 66, 90
9, 49919, Note_on_c, 5, 66, 0
9, 49920, Note_on_c, 5, 64, 90
9, 49979, Note_on_c, 5, 64, 0
9, 49980, Note_on_c, 5, 62, 90
9, 50039, Note_on_c, 5, 62, 0
9, 50100, Note_on_c, 5, 59, 90
9, 50114, Note_on_c, 5, 59, 0
9, 50115, Note_on_c, 5, 61, 90
9, 50129, Note_on_c, 5, 61, 0
9, 50130, Note_on_c, 5, 62, 90
9, 50159, Note_on_c, 5, 62, 0
9, 50160, Note_on_c, 5, 62, 90
9, 50219, Note_on_c, 5, 62, 0
9, 50520, Note_on_c, 5, 73, 90
9, 50609, Note_on_c, 5, 73, 0
9, 50610, Note_on_c, 5, 74, 90
9, 50624, Note_on_c, 5, 74, 0
9, 50625, Note_on_c, 5, 76, 90
9, 50639, Note_on_c, 5, 76, 0
9, 50640, Note_on_c, 5, 74, 90
9, 50699, Note_on_c, 5, 74, 0
9, 50700, Note_on_c, 5, 73, 90
9, 50714, Note_on_c, 5, 73, 0
9, 50715, Note_on_c, 5, 71, 90
9, 50729, Note_on_c, 5, 71, 0
9, 50730, Note_on_c, 5, 69, 90
9, 50759, Note_on_c, 5, 69, 0
9, 50760, Note_on_c, 5, 69, 90
9, 50819, Note_on_c, 5, 69, 0
9, 50820, Note_on_c, 5, 71, 90
9, 50879, Note_on_c, 5, 71, 0
9, 50880, Note_on_c, 5, 69, 90
9, 50969, Note_on_c, 5, 69, 0
9, 50970, Note_on_c, 5, 71, 90
9, 50984, Note_on_c, 5, 71, 0
9, 50985, Note_on_c, 5, 73, 90
9, 50999, Note_on_c, 5, 73, 0
9, 51000, Note_on_c, 5, 71, 90
9, 51059, Note_on_c, 5, 71, 0
9, 51060, Note_on_c, 5, 69, 90
9, 51074, Note_on_c, 5, 69, 0
9, 51075, Note_on_c, 5, 68, 90
9, 51089, Note_on_c, 5, 68, 0
9, 51090, Note_on_c, 5, 66, 90
9, 51119, Note_on_c, 5, 66, 0
9, 51120, Note_on_c, 5, 68, 90
9, 51179, Note_on_c, 5, 68, 0
9, 51180, Note_on_c, 5, 64, 90
9, 51269, Note_on_c, 5, 64, 0
9, 51270, Note_on_c, 5, 66, 90
9, 51299, Note_on_c, 5, 66, 0
9, 51300, Note_on_c, 5, 66, 90
9, 51329, Note_on_c, 5, 66, 0
9, 51330, Note_on_c, 5, 68, 90
9, 51359, Note_on_c, 5, 68, 0
9, 51360, Note_on_c, 5, 68, 90
9, 51389, Note_on_c, 5, 68, 0
9, 51390, Note_on_c, 5, 69, 90
9, 51419, Note_on_c, 5, 69, 0
9, 51420, Note_on_c, 5, 69, 90
9, 51434, Note_on_c, 5, 69, 0
9, 51435, Note_on_c, 5, 71, 90
9, 51449, Note_on_c, 5, 71, 0
9, 51450, Note_on_c, 5, 73, 90
9, 51479, Note_on_c, 5, 73, 0
9, 51480, Note_on_c, 5, 73, 90
9, 51539, Note_on_c, 5, 73, 0
9, 51900, Note_on_c, 5, 66, 90
9, 51989, Note_on_c, 5, 66, 0
9, 51990, Note_on_c, 5, 68, 90
9, 52019, Note_on_c, 5, 68, 0
9, 52020, Note_on_c, 5, 68, 90
9, 52049, Note_on_c, 5, 68, 0
9, 52050, Note_on_c, 5, 69, 90
9, 52079, Note_on_c, 5, 69, 0
9, 52080, Note_on_c, 5, 69, 90
9, 52109, Note_on_c, 5, 69, 0
9, 52110, Note_on_c, 5, 71, 90
9, 52139, Note_on_c, 5, 71, 0
9, 52140, Note_on_c, 5, 71, 90
9, 52154, Note_on_c, 5, 71, 0
9, 52155, Note_on_c, 5, 73, 90
9, 52169, Note_on_c, 5, 73, 0
9, 52170, Note_on_c, 5, 74, 90
9, 52199, Note_on_c, 5, 74, 0
9, 52200, Note_on_c, 5, 74, 90
9, 52229, Note_on_c, 5, 74, 0
9, 52230, Note_on_c, 5, 73, 90
9, 52259, Note_on_c, 5, 73, 0
9, 52260, Note_on_c, 5, 74, 90
9, 52289, Note_on_c, 5, 74, 0
9, 52290, Note_on_c, 5, 76, 90
9, 52319, Note_on_c, 5, 76, 0
9, 52320, Note_on_c, 5, 73, 90
9, 52379, Note_on_c, 5, 73, 0
9, 52380, Note_on_c, 5, 81, 90
9, 52439, Note_on_c, 5, 81, 0
9, 52440, Note_on_c, 5, 80, 90
9, 52499, Note_on_c, 5, 80, 0
9, 52500, Note_on_c, 5, 81, 90
9, 52559, Note_on_c, 5, 81, 0
9, 52560, Note_on_c, 5, 73, 90
9, 52619, Note_on_c, 5, 73, 0
9, 52620, Note_on_c, 5, 64, 90
9, 52679, Note_on_c, 5, 64, 0
9, 52680, Note_on_c, 5, 66, 90
9, 52709, Note_on_c, 5, 66, 0
9, 52710, Note_on_c, 5, 68, 90
9, 52739, Note_on_c, 5, 68, 0
9, 52740, Note_on_c, 5, 68, 90
9, 52769, Note_on_c, 5, 68, 0
9, 52770, Note_on_c, 5, 70, 90
9, 52799, Note_on_c, 5, 70, 0
9, 52800, Note_on_c, 5, 70, 90
9, 52829, Note_on_c, 5, 70, 0
9, 52830, Note_on_c, 5, 71, 90
9, 52859, Note_on_c, 5, 71, 0
9, 52860, Note_on_c, 5, 71, 90
9, 52874, Note_on_c, 5, 71, 0
9, 52875, Note_on_c, 5, 73, 90
9, 52889, Note_on_c, 5, 73, 0
9, 52890, Note_on_c, 5, 74, 90
9, 52919, Note_on_c, 5, 74, 0
9, 52920, Note_on_c, 5, 74, 90
9, 52979, Note_on_c, 5, 74, 0
9, 52980, Note_on_c, 5, 64, 90
9, 53069, Note_on_c, 5, 64, 0
9, 53070, Note_on_c, 5, 66, 90
9, 53099, Note_on_c, 5, 66, 0
9, 53100, Note_on_c, 5, 66, 90
9, 53129, Note_on_c, 5, 66, 0
9, 53130, Note_on_c, 5, 68, 90
9, 53159, Note_on_c, 5, 68, 0
9, 53160, Note_on_c, 5, 68, 90
9, 53189, Note_on_c, 5, 68, 0
9, 53190, Note_on_c, 5, 69, 90
9, 53219, Note_on_c, 5, 69, 0
9, 53220, Note_on_c, 5, 69, 90
9, 53234, Note_on_c, 5, 69, 0
9, 53235, Note_on_c, 5, 71, 90
9, 53249, Note_on_c, 5, 71, 0
9, 53250, Note_on_c, 5, 73, 90
9, 53279, Note_on_c, 5, 73, 0
9, 53280, Note_on_c, 5, 73, 90
9, 53339, Note_on_c, 5, 73, 0
9, 53730, Note_on_c, 5, 79, 90
9, 53759, Note_on_c, 5, 79, 0
9, 53760, Note_on_c, 5, 78, 90
9, 53774, Note_on_c, 5, 78, 0
9, 53775, Note_on_c, 5, 76, 90
9, 53789, Note_on_c, 5, 76, 0
9, 53790, Note_on_c, 5, 74, 90
9, 53819, Note_on_c, 5, 74, 0
9, 53820, Note_on_c, 5, 74, 90
9, 53849, Note_on_c, 5, 74, 0
9, 53850, Note_on_c, 5, 73, 90
9, 53909, Note_on_c, 5, 73, 0
9, 53910, Note_on_c, 5, 74, 90
9, 53939, Note_on_c, 5, 74, 0
9, 53940, Note_on_c, 5, 72, 90
9, 53954, Note_on_c, 5, 72, 0
9, 53955, Note_on_c, 5, 71, 90
9, 53969, Note_on_c, 5, 71, 0
9, 53970, Note_on_c, 5, 69, 90
9, 53999, Note_on_c, 5, 69, 0
9, 54000, Note_on_c, 5, 68, 90
9, 54059, Note_on_c, 5, 68, 0
9, 54180, Note_on_c, 5, 64, 90
9, 54194, Note_on_c, 5, 64, 0
9, 54195, Note_on_c, 5, 62, 90
9, 54209, Note_on_c, 5, 62, 0
9, 54210, Note_on_c, 5, 61, 90
9, 54239, Note_on_c, 5, 61, 0
9, 54240, Note_on_c, 5, 61, 90
9, 54299, Note_on_c, 5, 61, 0
9, 54360, Note_on_c, 5, 59, 90
9, 54374, Note_on_c, 5, 59, 0
9, 54375, Note_on_c, 5, 61, 90
9, 54389, Note_on_c, 5, 61, 0
9, 54390, Note_on_c, 5, 62, 90
9, 54419, Note_on_c, 5, 62, 0
9, 54420, Note_on_c, 5, 62, 90
9, 54479, Note_on_c, 5, 62, 0
9, 55200, Note_on_c, 5, 61, 110
9, 55289, Note_on_c, 5, 61, 0
9, 55290, Note_on_c, 5, 62, 110
9, 55304, Note_on_c, 5, 62, 0
9, 55305, Note_on_c, 5, 64, 110
9, 55319, Note_on_c, 5, 64, 0
9, 55320, Note_on_c, 5, 62, 110
9, 55379, Note_on_c, 5, 62, 0
9, 55380, Note_on_c, 5, 61, 110
9, 55394, Note_on_c, 5, 61, 0
9, 55395, Note_on_c, 5, 59, 110
9, 55409, Note_on_c, 5, 59, 0
9, 55410, Note_on_c, 5, 57, 110
9, 55439, Note_on_c, 5, 57, 0
9, 55440, Note_on_c, 5, 57, 110
9, 55469, Note_on_c, 5, 57, 0
9, 55470, Note_on_c, 5, 59, 110
9, 55499, Note_on_c, 5, 59, 0
9, 55680, Note_on_c, 5, 61, 110
9, 55769, Note_on_c, 5, 61, 0
9, 55770, Note_on_c, 5, 62, 110
9, 55799, Note_on_c, 5, 62, 0
9, 55800, Note_on_c, 5, 62, 110
9, 55829, Note_on_c, 5, 62, 0
9, 55830, Note_on_c, 5, 64, 110
9, 55859, Note_on_c, 5, 64, 0
9, 55860, Note_on_c, 5, 64, 110
9, 55889, Note_on_c, 5, 64, 0
9, 55890, Note_on_c, 5, 66, 110
9, 55919, Note_on_c, 5, 66, 0
9, 55920, Note_on_c, 5, 66, 110
9, 56129, Note_on_c, 5, 66, 0
9, 56130, Note_on_c, 5, 68, 110
9, 56159, Note_on_c, 5, 68, 0
9, 56160, Note_on_c, 5, 68, 110
9, 56189, Note_on_c, 5, 68, 0
9, 56190, Note_on_c, 5, 69, 110
9, 56219, Note_on_c, 5, 69, 0
9, 56220, Note_on_c, 5, 69, 110
9, 56249, Note_on_c, 5, 69, 0
9, 56250, Note_on_c, 5, 71, 110
9, 56279, Note_on_c, 5, 71, 0
9, 56280, Note_on_c, 5, 71, 110
9, 56309, Note_on_c, 5, 71, 0
9, 56310, Note_on_c, 5, 68, 110
9, 56339, Note_on_c, 5, 68, 0
9, 56340, Note_on_c, 5, 69, 110
9, 56354, Note_on_c, 5, 69, 0
9, 56355, Note_on_c, 5, 71, 110
9, 56369, Note_on_c, 5, 71, 0
9, 56370, Note_on_c, 5, 73, 110
9, 56384, Note_on_c, 5, 73, 0
9, 56400, Note_on_c, 5, 73, 110
9, 56414, Note_on_c, 5, 73, 0
9, 56430, Note_on_c, 5, 73, 110
9, 56444, Note_on_c, 5, 73, 0
9, 56460, Note_on_c, 5, 71, 110
9, 56474, Note_on_c, 5, 71, 0
9, 56475, Note_on_c, 5, 69, 110
9, 56489, Note_on_c, 5, 69, 0
9, 56490, Note_on_c, 5, 68, 110
9, 56519, Note_on_c, 5, 68, 0
9, 56520, Note_on_c, 5, 68, 110
9, 56549, Note_on_c, 5, 68, 0
9, 56550, Note_on_c, 5, 66, 110
9, 56609, Note_on_c, 5, 66, 0
9, 56610, Note_on_c, 5, 68, 110
9, 56639, Note_on_c, 5, 68, 0
9, 56640, Note_on_c, 5, 68, 110
9, 56699, Note_on_c, 5, 68, 0
9, 56790, Note_on_c, 5, 79, 110
9, 56819, Note_on_c, 5, 79, 0
9, 56820, Note_on_c, 5, 78, 110
9, 56834, Note_on_c, 5, 78, 0
9, 56835, Note_on_c, 5, 76, 110
9, 56849, Note_on_c, 5, 76, 0
9, 56850, Note_on_c, 5, 74, 110
9, 56879, Note_on_c, 5, 74, 0
9, 56880, Note_on_c, 5, 74, 110
9, 56909, Note_on_c, 5, 74, 0
9, 56910, Note_on_c, 5, 73, 110
9, 56969, Note_on_c, 5, 73, 0
9, 56970, Note_on_c, 5, 74, 110
9, 56999, Note_on_c, 5, 74, 0
9, 57000, Note_on_c, 5, 72, 110
9, 57014, Note_on_c, 5, 72, 0
9, 57015, Note_on_c, 5, 71, 110
9, 57029, Note_on_c, 5, 71, 0
9, 57030, Note_on_c, 5, 69, 110
9, 57059, Note_on_c, 5, 69, 0
9, 57060, Note_on_c, 5, 68, 110
9, 57179, Note_on_c, 5, 68, 0
9, 57180, Note_on_c, 5, 69, 110
9, 57239, Note_on_c, 5, 69, 0
9, 57240, Note_on_c, 5, 73, 110
9, 57299, Note_on_c, 5, 73, 0
9, 57300, Note_on_c, 5, 71, 110
9, 57359, Note_on_c, 5, 71, 0
9, 57360, Note_on_c, 5, 73, 110
9, 57419, Note_on_c, 5, 73, 0
9, 57420, Note_on_c, 5, 71, 110
9, 57449, Note_on_c, 5, 71, 0
9, 57450, Note_on_c, 5, 69, 110
9, 57479, Note_on_c, 5, 69, 0
9, 57480, Note_on_c, 5, 71, 110
9, 57509, Note_on_c, 5, 71, 0
9, 57510, Note_on_c, 5, 68, 110
9, 57539, Note_on_c, 5, 68, 0
9, 57540, Note_on_c, 5, 69, 110
9, 57569, Note_on_c, 5, 69, 0
9, 57600, Note_on_c, 5, 69, 110
9, 57629, Note_on_c, 5, 69, 0
9, 57660, Note_on_c, 5, 68, 110
9, 57719, Note_on_c, 5, 68, 0
9, 57720, Note_on_c, 5, 69, 110
9, 57839, Note_on_c, 5, 69, 0
9, 57900, Note_on_c, 5, 73, 90
9, 57959, Note_on_c, 5, 73, 0
9, 58020, Note_on_c, 5, 73, 90
9, 58079, Note_on_c, 5, 73, 0
9, 58080, Note_on_c, 5, 73, 90
9, 58139, Note_on_c, 5, 73, 0
9, 58200, Note_on_c, 5, 71, 90
9, 58259, Note_on_c, 5, 71, 0
9, 58260, Note_on_c, 5, 69, 90
9, 58319, Note_on_c, 5, 69, 0
9, 58380, Note_on_c, 5, 66, 90
9, 58439, Note_on_c, 5, 66, 0
9, 58440, Note_on_c, 5, 66, 90
9, 58499, Note_on_c, 5, 66, 0
9, 58560, Note_on_c, 5, 64, 90
9, 58619, Note_on_c, 5, 64, 0
9, 58620, Note_on_c, 5, 62, 90
9, 58679, Note_on_c, 5, 62, 0
9, 58740, Note_on_c, 5, 66, 90
9, 58799, Note_on_c, 5, 66, 0
9, 58800, Note_on_c, 5, 64, 90
9, 58859, Note_on_c, 5, 64, 0
9, 58920, Note_on_c, 5, 71, 90
9, 58979, Note_on_c, 5, 71, 0
9, 58980, Note_on_c, 5, 64, 90
9, 59039, Note_on_c, 5, 64, 0
9, 59100, Note_on_c, 5, 64, 90
9, 59159, Note_on_c, 5, 64, 0
9, 59160, Note_on_c, 5, 64, 90
9, 59219, Note_on_c, 5, 64, 0
9, 59280, Note_on_c, 5, 76, 90
9, 59339, Note_on_c, 5, 76, 0
9, 59340, Note_on_c, 5, 74, 90
9, 59399, Note_on_c, 5, 74, 0
9, 59460, Note_on_c, 5, 69, 90
9, 59519, Note_on_c, 5, 69, 0
9, 59520, Note_on_c, 5, 69, 90
9, 59579, Note_on_c, 5, 69, 0
9, 59640, Note_on_c, 5, 72, 90
9, 59699, Note_on_c, 5, 72, 0
9, 59700, Note_on_c, 5, 71, 90
9, 59759, Note_on_c, 5, 71, 0
9, 59820, Note_on_c, 5, 69, 90
9, 59879, Note_on_c, 5, 69, 0
9, 59880, Note_on_c, 5, 67, 90
9, 59939, Note_on_c, 5, 67, 0
9, 60000, Note_on_c, 5, 66, 90
9, 60059, Note_on_c, 5, 66, 0
9, 60060, Note_on_c, 5, 64, 90
9, 60119, Note_on_c, 5, 64, 0
9, 60180, Note_on_c, 5, 63, 90
9, 60239, Note_on_c, 5, 63, 0
9, 60240, Note_on_c, 5, 64, 90
9, 60299, Note_on_c, 5, 64, 0
9, 60360, Note_on_c, 5, 67, 90
9, 60419, Note_on_c, 5, 67, 0
9, 60420, Note_on_c, 5, 76, 90
9, 60479, Note_on_c, 5, 76, 0
9, 60540, Note_on_c, 5, 71, 90
9, 60599, Note_on_c, 5, 71, 0
9, 60600, Note_on_c, 5, 73, 90
9, 60659, Note_on_c, 5, 73, 0
9, 60720, Note_on_c, 5, 66, 90
9, 60779, Note_on_c, 5, 66, 0
9, 60780, Note_on_c, 5, 71, 90
9, 60839, Note_on_c, 5, 71, 0
9, 60900, Note_on_c, 5, 66, 90
9, 60959, Note_on_c, 5, 66, 0
9, 60960, Note_on_c, 5, 64, 90
9, 61019, Note_on_c, 5, 64, 0
9, 61080, Note_on_c, 5, 67, 90
9, 61139, Note_on_c, 5, 67, 0
9, 61140, Note_on_c, 5, 68, 90
9, 61199, Note_on_c, 5, 68, 0
9, 61440, Note_on_c, 5, 71, 90
9, 61499, Note_on_c, 5, 71, 0
9, 61500, Note_on_c, 5, 70, 110
9, 61514, Note_on_c, 5, 70, 0
9, 61515, Note_on_c, 5, 68, 110
9, 61529, Note_on_c, 5, 68, 0
9, 61530, Note_on_c, 5, 66, 110
9, 61559, Note_on_c, 5, 66, 0
9, 61560, Note_on_c, 5, 66, 110
9, 61589, Note_on_c, 5, 66, 0
9, 61590, Note_on_c, 5, 65, 110
9, 61649, Note_on_c, 5, 65, 0
9, 61650, Note_on_c, 5, 66, 110
9, 61679, Note_on_c, 5, 66, 0
9, 61680, Note_on_c, 5, 64, 110
9, 61694, Note_on_c, 5, 64, 0
9, 61695, Note_on_c, 5, 62, 110
9, 61709, Note_on_c, 5, 62, 0
9, 61710, Note_on_c, 5, 61, 110
9, 61739, Note_on_c, 5, 61, 0
9, 61740, Note_on_c, 5, 59, 110
9, 62055, Note_on_c, 5, 59, 0
9, 62055, Note_on_c, 5, 61, 110
9, 62069, Note_on_c, 5, 61, 0
9, 62070, Note_on_c, 5, 62, 110
9, 62099, Note_on_c, 5, 62, 0
9, 62100, Note_on_c, 5, 61, 110
9, 62114, Note_on_c, 5, 61, 0
9, 62115, Note_on_c, 5, 62, 110
9, 62129, Note_on_c, 5, 62, 0
9, 62130, Note_on_c, 5, 64, 110
9, 62144, Note_on_c, 5, 64, 0
9, 62160, Note_on_c, 5, 64, 110
9, 62174, Note_on_c, 5, 64, 0
9, 62190, Note_on_c, 5, 64, 110
9, 62204, Note_on_c, 5, 64, 0
9, 62220, Note_on_c, 5, 62, 110
9, 62234, Note_on_c, 5, 62, 0
9, 62235, Note_on_c, 5, 64, 110
9, 62249, Note_on_c, 5, 64, 0
9, 62250, Note_on_c, 5, 66, 110
9, 62264, Note_on_c, 5, 66, 0
9, 62280, Note_on_c, 5, 66, 110
9, 62294, Note_on_c, 5, 66, 0
9, 62310, Note_on_c, 5, 66, 110
9, 62324, Note_on_c, 5, 66, 0
9, 62340, Note_on_c, 5, 66, 110
9, 62354, Note_on_c, 5, 66, 0
9, 62370, Note_on_c, 5, 66, 110
9, 62384, Note_on_c, 5, 66, 0
9, 62400, Note_on_c, 5, 71, 110
9, 62414, Note_on_c, 5, 71, 0
9, 62415, Note_on_c, 5, 69, 110
9, 62429, Note_on_c, 5, 69, 0
9, 62430, Note_on_c, 5, 67, 110
9, 62444, Note_on_c, 5, 67, 0
9, 62460, Note_on_c, 5, 66, 110
9, 62474, Note_on_c, 5, 66, 0
9, 62490, Note_on_c, 5, 66, 110
9, 62504, Note_on_c, 5, 66, 0
9, 62520, Note_on_c, 5, 66, 110
9, 62534, Note_on_c, 5, 66, 0
9, 62550, Note_on_c, 5, 64, 110
9, 62564, Note_on_c, 5, 64, 0
9, 62580, Note_on_c, 5, 62, 110
9, 62594, Note_on_c, 5, 62, 0
9, 62595, Note_on_c, 5, 61, 110
9, 62609, Note_on_c, 5, 61, 0
9, 62610, Note_on_c, 5, 59, 110
9, 62639, Note_on_c, 5, 59, 0
9, 62640, Note_on_c, 5, 62, 110
9, 62699, Note_on_c, 5, 62, 0
9, 62700, Note_on_c, 5, 61, 110
9, 62759, Note_on_c, 5, 61, 0
9, 62760, Note_on_c, 5, 59, 110
9, 62819, Note_on_c, 5, 59, 0
9, 63360, Note_on_c, 5, 69, 90
9, 63390, Note_on_c, 5, 69, 0
9, 63420, Note_on_c, 5, 65, 90
9, 63450, Note_on_c, 5, 65, 0
9, 63540, Note_on_c, 5, 68, 90
9, 63570, Note_on_c, 5, 68, 0
9, 63600, Note_on_c, 5, 65, 90
9, 63630, Note_on_c, 5, 65, 0
9, 63660, Note_on_c, 5, 66, 90
9, 63720, Note_on_c, 5, 66, 0
9, 64200, Note_on_c, 5, 73, 90
9, 64289, Note_on_c, 5, 73, 0
9, 64290, Note_on_c, 5, 75, 90
9, 64304, Note_on_c, 5, 75, 0
9, 64305, Note_on_c, 5, 76, 90
9, 64319, Note_on_c, 5, 76, 0
9, 64320, Note_on_c, 5, 75, 90
9, 64379, Note_on_c, 5, 75, 0
9, 64380, Note_on_c, 5, 73, 90
9, 64439, Note_on_c, 5, 73, 0
9, 64560, Note_on_c, 5, 64, 90
9, 64574, Note_on_c, 5, 64, 0
9, 64575, Note_on_c, 5, 66, 90
9, 64589, Note_on_c, 5, 66, 0
9, 64590, Note_on_c, 5, 68, 90
9, 64604, Note_on_c, 5, 68, 0
9, 64620, Note_on_c, 5, 68, 90
9, 64634, Note_on_c, 5, 68, 0
9, 64650, Note_on_c, 5, 68, 90
9, 64664, Note_on_c, 5, 68, 0
9, 64680, Note_on_c, 5, 68, 90
9, 64694, Note_on_c, 5, 68, 0
9, 64710, Note_on_c, 5, 68, 90
9, 64724, Note_on_c, 5, 68, 0
9, 64740, Note_on_c, 5, 69, 90
9, 64799, Note_on_c, 5, 69, 0
9, 65100, Note_on_c, 5, 64, 90
9, 65114, Note_on_c, 5, 64, 0
9, 65115, Note_on_c, 5, 66, 90
9, 65129, Note_on_c, 5, 66, 0
9, 65130, Note_on_c, 5, 68, 90
9, 65144, Note_on_c, 5, 68, 0
9, 65160, Note_on_c, 5, 68, 90
9, 65174, Note_on_c, 5, 68, 0
9, 65190, Note_on_c, 5, 68, 90
9, 65204, Note_on_c, 5, 68, 0
9, 65220, Note_on_c, 5, 68, 90
9, 65234, Note_on_c, 5, 68, 0
9, 65250, Note_on_c, 5, 68, 90
9, 65264, Note_on_c, 5, 68, 0
9, 65280, Note_on_c, 5, 69, 90
9, 65309, Note_on_c, 5, 69, 0
9, 65340, Note_on_c, 5, 66, 90
9, 65369, Note_on_c, 5, 66, 0
9, 65400, Note_on_c, 5, 64, 90
9, 65429, Note_on_c, 5, 64, 0
9, 65460, Note_on_c, 5, 63, 90
9, 65519, Note_on_c, 5, 63, 0
9, 65700, Note_on_c, 5, 75, 90
9, 65729, Note_on_c, 5, 75, 0
9, 65760, Note_on_c, 5, 72, 90
9, 65789, Note_on_c, 5, 72, 0
9, 65880, Note_on_c, 5, 68, 90
9, 65909, Note_on_c, 5, 68, 0
9, 65940, Note_on_c, 5, 63, 90
9, 65969, Note_on_c, 5, 63, 0
9, 66060, Note_on_c, 5, 61, 90
9, 66089, Note_on_c, 5, 61, 0
9, 66120, Note_on_c, 5, 71, 90
9, 66149, Note_on_c, 5, 71, 0
9, 66240, Note_on_c, 5, 71, 90
9, 66269, Note_on_c, 5, 71, 0
9, 66300, Note_on_c, 5, 68, 90
9, 66329, Note_on_c, 5, 68, 0
9, 66420, Note_on_c, 5, 69, 90
9, 66449, Note_on_c, 5, 69, 0
9, 66480, Note_on_c, 5, 66, 90
9, 66509, Note_on_c, 5, 66, 0
9, 66540, Note_on_c, 5, 63, 90
9, 66569, Note_on_c, 5, 63, 0
9, 66840, Note_on_c, 5, 68, 90
9, 66854, Note_on_c, 5, 68, 0
9, 66855, Note_on_c, 5, 66, 90
9, 66869, Note_on_c, 5, 66, 0
9, 66870, Note_on_c, 5, 64, 90
9, 66899, Note_on_c, 5, 64, 0
9, 66900, Note_on_c, 5, 64, 90
9, 66959, Note_on_c, 5, 64, 0
9, 67620, Note_on_c, 5, 61, 110
9, 67709, Note_on_c, 5, 61, 0
9, 67710, Note_on_c, 5, 62, 110
9, 67724, Note_on_c, 5, 62, 0
9, 67725, Note_on_c, 5, 64, 110
9, 67739, Note_on_c, 5, 64, 0
9, 67740, Note_on_c, 5, 62, 110
9, 67799, Note_on_c, 5, 62, 0
9, 67800, Note_on_c, 5, 61, 110
9, 67814, Note_on_c, 5, 61, 0
9, 67815, Note_on_c, 5, 59, 110
9, 67829, Note_on_c, 5, 59, 0
9, 67830, Note_on_c, 5, 57, 110
9, 67859, Note_on_c, 5, 57, 0
9, 67860, Note_on_c, 5, 59, 110
9, 67980, Note_on_c, 5, 59, 0
9, 67980, Note_on_c, 5, 61, 110
9, 68009, Note_on_c, 5, 61, 0
9, 68010, Note_on_c, 5, 63, 110
9, 68039, Note_on_c, 5, 63, 0
9, 68040, Note_on_c, 5, 63, 110
9, 68069, Note_on_c, 5, 63, 0
9, 68070, Note_on_c, 5, 65, 110
9, 68099, Note_on_c, 5, 65, 0
9, 68100, Note_on_c, 5, 65, 110
9, 68129, Note_on_c, 5, 65, 0
9, 68130, Note_on_c, 5, 66, 110
9, 68159, Note_on_c, 5, 66, 0
9, 68160, Note_on_c, 5, 66, 110
9, 68174, Note_on_c, 5, 66, 0
9, 68175, Note_on_c, 5, 68, 110
9, 68189, Note_on_c, 5, 68, 0
9, 68190, Note_on_c, 5, 69, 110
9, 68219, Note_on_c, 5, 69, 0
9, 68220, Note_on_c, 5, 69, 110
9, 68279, Note_on_c, 5, 69, 0
9, 68280, Note_on_c, 5, 59, 110
9, 68369, Note_on_c, 5, 59, 0
9, 68370, Note_on_c, 5, 61, 110
9, 68399, Note_on_c, 5, 61, 0
9, 68400, Note_on_c, 5, 61, 110
9, 68429, Note_on_c, 5, 61, 0
9, 68430, Note_on_c, 5, 63, 110
9, 68459, Note_on_c, 5, 63, 0
9, 68460, Note_on_c, 5, 63, 110
9, 68489, Note_on_c, 5, 63, 0
9, 68490, Note_on_c, 5, 64, 110
9, 68519, Note_on_c, 5, 64, 0
9, 68520, Note_on_c, 5, 64, 110
9, 68534, Note_on_c, 5, 64, 0
9, 68535, Note_on_c, 5, 66, 110
9, 68549, Note_on_c, 5, 66, 0
9, 68550, Note_on_c, 5, 68, 110
9, 68579, Note_on_c, 5, 68, 0
9, 68580, Note_on_c, 5, 68, 110
9, 68639, Note_on_c, 5, 68, 0
9, 69030, Note_on_c, 5, 74, 110
9, 69059, Note_on_c, 5, 74, 0
9, 69060, Note_on_c, 5, 73, 110
9, 69074, Note_on_c, 5, 73, 0
9, 69075, Note_on_c, 5, 71, 110
9, 69089, Note_on_c, 5, 71, 0
9, 69090, Note_on_c, 5, 69, 110
9, 69119, Note_on_c, 5, 69, 0
9, 69120, Note_on_c, 5, 69, 110
9, 69149, Note_on_c, 5, 69, 0
9, 69150, Note_on_c, 5, 68, 110
9, 69209, Note_on_c, 5, 68, 0
9, 69210, Note_on_c, 5, 69, 110
9, 69239, Note_on_c, 5, 69, 0
9, 69240, Note_on_c, 5, 67, 110
9, 69254, Note_on_c, 5, 67, 0
9, 69255, Note_on_c, 5, 66, 110
9, 69269, Note_on_c, 5, 66, 0
9, 69270, Note_on_c, 5, 64, 110
9, 69299, Note_on_c, 5, 64, 0
9, 69300, Note_on_c, 5, 63, 110
9, 69419, Note_on_c, 5, 63, 0
9, 69420, Note_on_c, 5, 64, 110
9, 69479, Note_on_c, 5, 64, 0
9, 69480, Note_on_c, 5, 68, 110
9, 69539, Note_on_c, 5, 68, 0
9, 69540, Note_on_c, 5, 66, 110
9, 69599, Note_on_c, 5, 66, 0
9, 69600, Note_on_c, 5, 68, 110
9, 69659, Note_on_c, 5, 68, 0
9, 69660, Note_on_c, 5, 66, 110
9, 69689, Note_on_c, 5, 66, 0
9, 69690, Note_on_c, 5, 64, 110
9, 69719, Note_on_c, 5, 64, 0
9, 69720, Note_on_c, 5, 66, 110
9, 69749, Note_on_c, 5, 66, 0
9, 69750, Note_on_c, 5, 63, 110
9, 69779, Note_on_c, 5, 63, 0
9, 69780, Note_on_c, 5, 64, 110
9, 69809, Note_on_c, 5, 64, 0
9, 69840, Note_on_c, 5, 64, 110
9, 69869, Note_on_c, 5, 64, 0
9, 69900, Note_on_c, 5, 63, 110
9, 69959, Note_on_c, 5, 63, 0
9, 69960, Note_on_c, 5, 64, 110
9, 70079, Note_on_c, 5, 64, 0
9, 70680, Note_on_c, 5, 61, 90
9, 70694, Note_on_c, 5, 61, 0
9, 70695, Note_on_c, 5, 62, 90
9, 70709, Note_on_c, 5, 62, 0
9, 70710, Note_on_c, 5, 64, 90
9, 70724, Note_on_c, 5, 64, 0
9, 70740, Note_on_c, 5, 64, 90
9, 70754, Note_on_c, 5, 64, 0
9, 70770, Note_on_c, 5, 64, 90
9, 70784, Note_on_c, 5, 64, 0
9, 70800, Note_on_c, 5, 64, 90
9, 70814, Note_on_c, 5, 64, 0
9, 70830, Note_on_c, 5, 64, 90
9, 70844, Note_on_c, 5, 64, 0
9, 70860, Note_on_c, 5, 64, 90
9, 70919, Note_on_c, 5, 64, 0
9, 70980, Note_on_c, 5, 66, 90
9, 70994, Note_on_c, 5, 66, 0
9, 70995, Note_on_c, 5, 68, 90
9, 71009, Note_on_c, 5, 68, 0
9, 71010, Note_on_c, 5, 69, 90
9, 71039, Note_on_c, 5, 69, 0
9, 71040, Note_on_c, 5, 69, 90
9, 71099, Note_on_c, 5, 69, 0
9, 71220, Note_on_c, 5, 71, 90
9, 71309, Note_on_c, 5, 71, 0
9, 71310, Note_on_c, 5, 73, 90
9, 71324, Note_on_c, 5, 73, 0
9, 71325, Note_on_c, 5, 74, 90
9, 71339, Note_on_c, 5, 74, 0
9, 71340, Note_on_c, 5, 73, 90
9, 71399, Note_on_c, 5, 73, 0
9, 71400, Note_on_c, 5, 71, 90
9, 71459, Note_on_c, 5, 71, 0
9, 71520, Note_on_c, 5, 68, 90
9, 71534, Note_on_c, 5, 68, 0
9, 71535, Note_on_c, 5, 69, 90
9, 71549, Note_on_c, 5, 69, 0
9, 71550, Note_on_c, 5, 71, 90
9, 71579, Note_on_c, 5, 71, 0
9, 71580, Note_on_c, 5, 71, 90
9, 71639, Note_on_c, 5, 71, 0
9, 71760, Note_on_c, 5, 61, 90
9, 71774, Note_on_c, 5, 61, 0
9, 71775, Note_on_c, 5, 62, 90
9, 71789, Note_on_c, 5, 62, 0
9, 71790, Note_on_c, 5, 64, 90
9, 71804, Note_on_c, 5, 64, 0
9, 71820, Note_on_c, 5, 64, 90
9, 71834, Note_on_c, 5, 64, 0
9, 71850, Note_on_c, 5, 64, 90
9, 71864, Note_on_c, 5, 64, 0
9, 71880, Note_on_c, 5, 64, 90
9, 71894, Note_on_c, 5, 64, 0
9, 71910, Note_on_c, 5, 64, 90
9, 71924, Note_on_c, 5, 64, 0
9, 71940, Note_on_c, 5, 69, 90
9, 71954, Note_on_c, 5, 69, 0
9, 71955, Note_on_c, 5, 68, 90
9, 71969, Note_on_c, 5, 68, 0
9, 71970, Note_on_c, 5, 66, 90
9, 71999, Note_on_c, 5, 66, 0
9, 72000, Note_on_c, 5, 64, 90
9, 72179, Note_on_c, 5, 64, 0
9, 72300, Note_on_c, 5, 61, 90
9, 72389, Note_on_c, 5, 61, 0
9, 72390, Note_on_c, 5, 62, 90
9, 72404, Note_on_c, 5, 62, 0
9, 72405, Note_on_c, 5, 64, 90
9, 72419, Note_on_c, 5, 64, 0
9, 72420, Note_on_c, 5, 62, 90
9, 72479, Note_on_c, 5, 62, 0
9, 72480, Note_on_c, 5, 61, 90
9, 72494, Note_on_c, 5, 61, 0
9, 72495, Note_on_c, 5, 59, 90
9, 72509, Note_on_c, 5, 59, 0
9, 72510, Note_on_c, 5, 57, 90
9, 72539, Note_on_c, 5, 57, 0
9, 72540, Note_on_c, 5, 57, 90
9, 72599, Note_on_c, 5, 57, 0
9, 72600, Note_on_c, 5, 59, 90
9, 72659, Note_on_c, 5, 59, 0
9, 72660, Note_on_c, 5, 61, 90
9, 72689, Note_on_c, 5, 61, 0
9, 72690, Note_on_c, 5, 63, 90
9, 72719, Note_on_c, 5, 63, 0
9, 72720, Note_on_c, 5, 63, 90
9, 72749, Note_on_c, 5, 63, 0
9, 72750, Note_on_c, 5, 65, 90
9, 72779, Note_on_c, 5, 65, 0
9, 72780, Note_on_c, 5, 65, 90
9, 72809, Note_on_c, 5, 65, 0
9, 72810, Note_on_c, 5, 66, 90
9, 72839, Note_on_c, 5, 66, 0
9, 72840, Note_on_c, 5, 66, 90
9, 72854, Note_on_c, 5, 66, 0
9, 72855, Note_on_c, 5, 68, 90
9, 72869, Note_on_c, 5, 68, 0
9, 72870, Note_on_c, 5, 69, 90
9, 72899, Note_on_c, 5, 69, 0
9, 72900, Note_on_c, 5, 69, 90
9, 72959, Note_on_c, 5, 69, 0
9, 72960, Note_on_c, 5, 59, 90
9, 73049, Note_on_c, 5, 59, 0
9, 73050, Note_on_c, 5, 61, 90
9, 73079, Note_on_c, 5, 61, 0
9, 73080, Note_on_c, 5, 61, 90
9, 73109, Note_on_c, 5, 61, 0
9, 73110, Note_on_c, 5, 63, 90
9, 73139, Note_on_c, 5, 63, 0
9, 73140, Note_on_c, 5, 63, 90
9, 73169, Note_on_c, 5, 63, 0
9, 73170, Note_on_c, 5, 64, 90
9, 73199, Note_on_c, 5, 64, 0
9, 73200, Note_on_c, 5, 64, 90
9, 73214, Note_on_c, 5, 64, 0
9, 73215, Note_on_c, 5, 66, 90
9, 73229, Note_on_c, 5, 66, 0
9, 73230, Note_on_c, 5, 68, 90
9, 73259, Note_on_c, 5, 68, 0
9, 73260, Note_on_c, 5, 68, 90
9, 73319, Note_on_c, 5, 68, 0
9, 73710, Note_on_c, 5, 74, 90
9, 73739, Note_on_c, 5, 74, 0
9, 73740, Note_on_c, 5, 73, 90
9, 73754, Note_on_c, 5, 73, 0
9, 73755, Note_on_c, 5, 71, 90
9, 73769, Note_on_c, 5, 71, 0
9, 73770, Note_on_c, 5, 69, 90
9, 73799, Note_on_c, 5, 69, 0
9, 73800, Note_on_c, 5, 69, 90
9, 73829, Note_on_c, 5, 69, 0
9, 73830, Note_on_c, 5, 68, 90
9, 73889, Note_on_c, 5, 68, 0
9, 73890, Note_on_c, 5, 69, 90
9, 73919, Note_on_c, 5, 69, 0
9, 73920, Note_on_c, 5, 67, 90
9, 73934, Note_on_c, 5, 67, 0
9, 73935, Note_on_c, 5, 66, 90
9, 73949, Note_on_c, 5, 66, 0
9, 73950, Note_on_c, 5, 64, 90
9, 73979, Note_on_c, 5, 64, 0
9, 73980, Note_on_c, 5, 63, 90
9, 74099, Note_on_c, 5, 63, 0
9, 74160, Note_on_c, 5, 68, 90
9, 74174, Note_on_c, 5, 68, 0
9, 74175, Note_on_c, 5, 66, 90
9, 74189, Note_on_c, 5, 66, 0
9, 74190, Note_on_c, 5, 64, 90
9, 74219, Note_on_c, 5, 64, 0
9, 74220, Note_on_c, 5, 64, 90
9, 74279, Note_on_c, 5, 64, 0
9, 74340, Note_on_c, 5, 63, 90
9, 74354, Note_on_c, 5, 63, 0
9, 74355, Note_on_c, 5, 64, 90
9, 74369, Note_on_c, 5, 64, 0
9, 74370, Note_on_c, 5, 66, 90
9, 74399, Note_on_c, 5, 66, 0
9, 74400, Note_on_c, 5, 66, 90
9, 74459, Note_on_c, 5, 66, 0
9, 74640, Note_on_c, 5, 68, 90
9, 74729, Note_on_c, 5, 68, 0
9, 74730, Note_on_c, 5, 69, 90
9, 74744, Note_on_c, 5, 69, 0
9, 74745, Note_on_c, 5, 71, 90
9, 74759, Note_on_c, 5, 71, 0
9, 74760, Note_on_c, 5, 69, 90
9, 74819, Note_on_c, 5, 69, 0
9, 74820, Note_on_c, 5, 68, 110
9, 74834, Note_on_c, 5, 68, 0
9, 74835, Note_on_c, 5, 66, 110
9, 74849, Note_on_c, 5, 66, 0
9, 74850, Note_on_c, 5, 64, 110
9, 74879, Note_on_c, 5, 64, 0
9, 74880, Note_on_c, 5, 64, 110
9, 74909, Note_on_c, 5, 64, 0
9, 74910, Note_on_c, 5, 66, 110
9, 74939, Note_on_c, 5, 66, 0
9, 75000, Note_on_c, 5, 73, 110
9, 75089, Note_on_c, 5, 73, 0
9, 75090, Note_on_c, 5, 74, 110
9, 75104, Note_on_c, 5, 74, 0
9, 75105, Note_on_c, 5, 76, 110
9, 75119, Note_on_c, 5, 76, 0
9, 75120, Note_on_c, 5, 74, 110
9, 75179, Note_on_c, 5, 74, 0
9, 75180, Note_on_c, 5, 73, 110
9, 75194, Note_on_c, 5, 73, 0
9, 75195, Note_on_c, 5, 71, 110
9, 75209, Note_on_c, 5, 71, 0
9, 75210, Note_on_c, 5, 69, 110
9, 75239, Note_on_c, 5, 69, 0
9, 75240, Note_on_c, 5, 69, 110
9, 75269, Note_on_c, 5, 69, 0
9, 75270, Note_on_c, 5, 71, 110
9, 75299, Note_on_c, 5, 71, 0
9, 75360, Note_on_c, 5, 59, 110
9, 75449, Note_on_c, 5, 59, 0
9, 75450, Note_on_c, 5, 61, 110
9, 75479, Note_on_c, 5, 61, 0
9, 75480, Note_on_c, 5, 62, 110
9, 75494, Note_on_c, 5, 62, 0
9, 75495, Note_on_c, 5, 61, 110
9, 75509, Note_on_c, 5, 61, 0
9, 75510, Note_on_c, 5, 59, 110
9, 75539, Note_on_c, 5, 59, 0
9, 75540, Note_on_c, 5, 61, 110
9, 75569, Note_on_c, 5, 61, 0
9, 75570, Note_on_c, 5, 63, 110
9, 75599, Note_on_c, 5, 63, 0
9, 75600, Note_on_c, 5, 63, 110
9, 75629, Note_on_c, 5, 63, 0
9, 75630, Note_on_c, 5, 65, 110
9, 75659, Note_on_c, 5, 65, 0
9, 75660, Note_on_c, 5, 65, 110
9, 75689, Note_on_c, 5, 65, 0
9, 75690, Note_on_c, 5, 66, 110
9, 75719, Note_on_c, 5, 66, 0
9, 75720, Note_on_c, 5, 66, 110
9, 75734, Note_on_c, 5, 66, 0
9, 75735, Note_on_c, 5, 68, 110
9, 75749, Note_on_c, 5, 68, 0
9, 75750, Note_on_c, 5, 69, 110
9, 75779, Note_on_c, 5, 69, 0
9, 75780, Note_on_c, 5, 69, 110
9, 75839, Note_on_c, 5, 69, 0
9, 75840, Note_on_c, 5, 59, 110
9, 75929, Note_on_c, 5, 59, 0
9, 75930, Note_on_c, 5, 61, 110
9, 75959, Note_on_c, 5, 61, 0
9, 75960, Note_on_c, 5, 61, 110
9, 75989, Note_on_c, 5, 61, 0
9, 75990, Note_on_c, 5, 63, 110
9, 76019, Note_on_c, 5, 63, 0
9, 76020, Note_on_c, 5, 63, 110
9, 76049, Note_on_c, 5, 63, 0
9, 76050, Note_on_c, 5, 64, 110
9, 76079, Note_on_c, 5, 64, 0
9, 76080, Note_on_c, 5, 64, 110
9, 76094, Note_on_c, 5, 64, 0
9, 76095, Note_on_c, 5, 66, 110
9, 76109, Note_on_c, 5, 66, 0
9, 76110, Note_on_c, 5, 68, 110
9, 76139, Note_on_c, 5, 68, 0
9, 76140, Note_on_c, 5, 68, 110
9, 76199, Note_on_c, 5, 68, 0
9, 76590, Note_on_c, 5, 74, 110
9, 76619, Note_on_c, 5, 74, 0
9, 76620, Note_on_c, 5, 73, 110
9, 76634, Note_on_c, 5, 73, 0
9, 76635, Note_on_c, 5, 71, 110
9, 76649, Note_on_c, 5, 71, 0
9, 76650, Note_on_c, 5, 69, 110
9, 76679, Note_on_c, 5, 69, 0
9, 76680, Note_on_c, 5, 69, 110
9, 76709, Note_on_c, 5, 69, 0
9, 76710, Note_on_c, 5, 68, 110
9, 76769, Note_on_c, 5, 68, 0
9, 76770, Note_on_c, 5, 69, 110
9, 76799, Note_on_c, 5, 69, 0
9, 76800, Note_on_c, 5, 67, 110
9, 76814, Note_on_c, 5, 67, 0
9, 76815, Note_on_c, 5, 66, 110
9, 76829, Note_on_c, 5, 66, 0
9, 76830, Note_on_c, 5, 64, 110
9, 76859, Note_on_c, 5, 64, 0
9, 76860, Note_on_c, 5, 63, 110
9, 76979, Note_on_c, 5, 63, 0
9, 76980, Note_on_c, 5, 64, 110
9, 77039, Note_on_c, 5, 64, 0
9, 77040, Note_on_c, 5, 68, 110
9, 77099, Note_on_c, 5, 68, 0
9, 77100, Note_on_c, 5, 66, 110
9, 77159, Note_on_c, 5, 66, 0
9, 77160, Note_on_c, 5, 68, 110
9, 77219, Note_on_c, 5, 68, 0
9, 77220, Note_on_c, 5, 66, 110
9, 77249, Note_on_c, 5, 66, 0
9, 77250, Note_on_c, 5, 64, 110
9, 77279, Note_on_c, 5, 64, 0
9, 77280, Note_on_c, 5, 66, 110
9, 77309, Note_on_c, 5, 66, 0
9, 77310, Note_on_c, 5, 63, 110
9, 77339, Note_on_c, 5, 63, 0
9, 77340, Note_on_c, 5, 64, 110
9, 77369, Note_on_c, 5, 64, 0
9, 77400, Note_on_c, 5, 64, 110
9, 77429, Note_on_c, 5, 64, 0
9, 77460, Note_on_c, 5, 63, 110
9, 77519, Note_on_c, 5, 63, 0
9, 77520, Note_on_c, 5, 64, 90
9, 77639, Note_on_c, 5, 64, 0
9, 77700, Note_on_c, 5, 68, 90
9, 77714, Note_on_c, 5, 68, 0
9, 77715, Note_on_c, 5, 69, 90
9, 77729, Note_on_c, 5, 69, 0
9, 77730, Note_on_c, 5, 71, 90
9, 77744, Note_on_c, 5, 71, 0
9, 77760, Note_on_c, 5, 71, 90
9, 77774, Note_on_c, 5, 71, 0
9, 77790, Note_on_c, 5, 71, 90
9, 77804, Note_on_c, 5, 71, 0
9, 77820, Note_on_c, 5, 71, 90
9, 77834, Note_on_c, 5, 71, 0
9, 77850, Note_on_c, 5, 71, 90
9, 77864, Note_on_c, 5, 71, 0
9, 77880, Note_on_c, 5, 73, 90
9, 77939, Note_on_c, 5, 73, 0
9, 78060, Note_on_c, 5, 64, 90
9, 78074, Note_on_c, 5, 64, 0
9, 78075, Note_on_c, 5, 66, 90
9, 78089, Note_on_c, 5, 66, 0
9, 78090, Note_on_c, 5, 67, 90
9, 78104, Note_on_c, 5, 67, 0
9, 78120, Note_on_c, 5, 67, 90
9, 78134, Note_on_c, 5, 67, 0
9, 78150, Note_on_c, 5, 67, 90
9, 78164, Note_on_c, 5, 67, 0
9, 78180, Note_on_c, 5, 67, 90
9, 78194, Note_on_c, 5, 67, 0
9, 78210, Note_on_c, 5, 73, 90
9, 78224, Note_on_c, 5, 73, 0
9, 78240, Note_on_c, 5, 74, 90
9, 78254, Note_on_c, 5, 74, 0
9, 78255, Note_on_c, 5, 73, 90
9, 78269, Note_on_c, 5, 73, 0
9, 78270, Note_on_c, 5, 71, 90
9, 78299, Note_on_c, 5, 71, 0
9, 78300, Note_on_c, 5, 69, 90
9, 78359, Note_on_c, 5, 69, 0
9, 78540, Note_on_c, 5, 71, 90
9, 78599, Note_on_c, 5, 71, 0
9, 78600, Note_on_c, 5, 64, 90
9, 78659, Note_on_c, 5, 64, 0
9, 78660, Note_on_c, 5, 76, 90
9, 78719, Note_on_c, 5, 76, 0
9, 78720, Note_on_c, 5, 68, 90
9, 78779, Note_on_c, 5, 68, 0
9, 78780, Note_on_c, 5, 64, 90
9, 78839, Note_on_c, 5, 64, 0
9, 79020, Note_on_c, 5, 63, 90
9, 79034, Note_on_c, 5, 63, 0
9, 79035, Note_on_c, 5, 64, 90
9, 79049, Note_on_c, 5, 64, 0
9, 79050, Note_on_c, 5, 66, 90
9, 79064, Note_on_c, 5, 66, 0
9, 79080, Note_on_c, 5, 66, 90
9, 79094, Note_on_c, 5, 66, 0
9, 79110, Note_on_c, 5, 66, 90
9, 79124, Note_on_c, 5, 66, 0
9, 79140, Note_on_c, 5, 68, 90
9, 79154, Note_on_c, 5, 68, 0
9, 79155, Note_on_c, 5, 69, 90
9, 79169, Note_on_c, 5, 69, 0
9, 79170, Note_on_c, 5, 71, 90
9, 79184, Note_on_c, 5, 71, 0
9, 79200, Note_on_c, 5, 71, 90
9, 79214, Note_on_c, 5, 71, 0
9, 79230, Note_on_c, 5, 71, 90
9, 79244, Note_on_c, 5, 71, 0
9, 79260, Note_on_c, 5, 71, 90
9, 79274, Note_on_c, 5, 71, 0
9, 79290, Note_on_c, 5, 71, 90
9, 79304, Note_on_c, 5, 71, 0
9, 79320, Note_on_c, 5, 69, 90
9, 79379, Note_on_c, 5, 69, 0
9, 79500, Note_on_c, 5, 61, 90
9, 79514, Note_on_c, 5, 61, 0
9, 79515, Note_on_c, 5, 62, 90
9, 79529, Note_on_c, 5, 62, 0
9, 79530, Note_on_c, 5, 64, 90
9, 79544, Note_on_c, 5, 64, 0
9, 79560, Note_on_c, 5, 64, 90
9, 79574, Note_on_c, 5, 64, 0
9, 79590, Note_on_c, 5, 64, 90
9, 79604, Note_on_c, 5, 64, 0
9, 79620, Note_on_c, 5, 64, 90
9, 79634, Note_on_c, 5, 64, 0
9, 79650, Note_on_c, 5, 64, 90
9, 79664, Note_on_c, 5, 64, 0
9, 79680, Note_on_c, 5, 62, 90
9, 79769, Note_on_c, 5, 62, 0
9, 79770, Note_on_c, 5, 64, 90
9, 79784, Note_on_c, 5, 64, 0
9, 79785, Note_on_c, 5, 66, 90
9, 79799, Note_on_c, 5, 66, 0
9, 79800, Note_on_c, 5, 64, 90
9, 79859, Note_on_c, 5, 64, 0
9, 79860, Note_on_c, 5, 62, 90
9, 79919, Note_on_c, 5, 62, 0
9, 79980, Note_on_c, 5, 59, 90
9, 79994, Note_on_c, 5, 59, 0
9, 79995, Note_on_c, 5, 61, 90
9, 80009, Note_on_c, 5, 61, 0
9, 80010, Note_on_c, 5, 62, 90
9, 80039, Note_on_c, 5, 62, 0
9, 80040, Note_on_c, 5, 62, 90
9, 80099, Note_on_c, 5, 62, 0
9, 80400, Note_on_c, 5, 73, 90
9, 80489, Note_on_c, 5, 73, 0
9, 80490, Note_on_c, 5, 74, 90
9, 80504, Note_on_c, 5, 74, 0
9, 80505, Note_on_c, 5, 76, 90
9, 80519, Note_on_c, 5, 76, 0
9, 80520, Note_on_c, 5, 74, 90
9, 80579, Note_on_c, 5, 74, 0
9, 80580, Note_on_c, 5, 73, 90
9, 80594, Note_on_c, 5, 73, 0
9, 80595, Note_on_c, 5, 71, 90
9, 80609, Note_on_c, 5, 71, 0
9, 80610, Note_on_c, 5, 69, 90
9, 80639, Note_on_c, 5, 69, 0
9, 80640, Note_on_c, 5, 69, 90
9, 80699, Note_on_c, 5, 69, 0
9, 80700, Note_on_c, 5, 71, 90
9, 80759, Note_on_c, 5, 71, 0
9, 80760, Note_on_c, 5, 69, 90
9, 80849, Note_on_c, 5, 69, 0
9, 80850, Note_on_c, 5, 71, 90
9, 80864, Note_on_c, 5, 71, 0
9, 80865, Note_on_c, 5, 73, 90
9, 80879, Note_on_c, 5, 73, 0
9, 80880, Note_on_c, 5, 71, 90
9, 80939, Note_on_c, 5, 71, 0
9, 80940, Note_on_c, 5, 69, 90
9, 80954, Note_on_c, 5, 69, 0
9, 80955, Note_on_c, 5, 68, 90
9, 80969, Note_on_c, 5, 68, 0
9, 80970, Note_on_c, 5, 66, 90
9, 80999, Note_on_c, 5, 66, 0
9, 81000, Note_on_c, 5, 68, 90
9, 81059, Note_on_c, 5, 68, 0
9, 81060, Note_on_c, 5, 64, 90
9, 81149, Note_on_c, 5, 64, 0
9, 81150, Note_on_c, 5, 66, 90
9, 81179, Note_on_c, 5, 66, 0
9, 81180, Note_on_c, 5, 66, 90
9, 81209, Note_on_c, 5, 66, 0
9, 81210, Note_on_c, 5, 68, 90
9, 81239, Note_on_c, 5, 68, 0
9, 81240, Note_on_c, 5, 68, 90
9, 81269, Note_on_c, 5, 68, 0
9, 81270, Note_on_c, 5, 69, 90
9, 81299, Note_on_c, 5, 69, 0
9, 81300, Note_on_c, 5, 69, 90
9, 81314, Note_on_c, 5, 69, 0
9, 81315, Note_on_c, 5, 71, 90
9, 81329, Note_on_c, 5, 71, 0
9, 81330, Note_on_c, 5, 73, 90
9, 81359, Note_on_c, 5, 73, 0
9, 81360, Note_on_c, 5, 73, 90
9, 81419, Note_on_c, 5, 73, 0
9, 81780, Note_on_c, 5, 66, 90
9, 81869, Note_on_c, 5, 66, 0
9, 81870, Note_on_c, 5, 68, 90
9, 81899, Note_on_c, 5, 68, 0
9, 81900, Note_on_c, 5, 68, 90
9, 81929, Note_on_c, 5, 68, 0
9, 81930, Note_on_c, 5, 69, 90
9, 81959, Note_on_c, 5, 69, 0
9, 81960, Note_on_c, 5, 69, 90
9, 81989, Note_on_c, 5, 69, 0
9, 81990, Note_on_c, 5, 71, 90
9, 82019, Note_on_c, 5, 71, 0
9, 82020, Note_on_c, 5, 71, 90
9, 82034, Note_on_c, 5, 71, 0
9, 82035, Note_on_c, 5, 73, 90
9, 82049, Note_on_c, 5, 73, 0
9, 82050, Note_on_c, 5, 74, 90
9, 82079, Note_on_c, 5, 74, 0
9, 82080, Note_on_c, 5, 74, 90
9, 82109, Note_on_c, 5, 74, 0
9, 82110, Note_on_c, 5, 73, 90
9, 82139, Note_on_c, 5, 73, 0
9, 82140, Note_on_c, 5, 74, 90
9, 82169, Note_on_c, 5, 74, 0
9, 82170, Note_on_c, 5, 76, 90
9, 82199, Note_on_c, 5, 76, 0
9, 82200, Note_on_c, 5, 73, 90
9, 82259, Note_on_c, 5, 73, 0
9, 82260, Note_on_c, 5, 81, 90
9, 82319, Note_on_c, 5, 81, 0
9, 82320, Note_on_c, 5, 80, 90
9, 82379, Note_on_c, 5, 80, 0
9, 82380, Note_on_c, 5, 81, 90
9, 82439, Note_on_c, 5, 81, 0
9, 82440, Note_on_c, 5, 73, 90
9, 82499, Note_on_c, 5, 73, 0
9, 82500, Note_on_c, 5, 64, 90
9, 82559, Note_on_c, 5, 64, 0
9, 82560, Note_on_c, 5, 66, 90
9, 82589, Note_on_c, 5, 66, 0
9, 82590, Note_on_c, 5, 68, 90
9, 82619, Note_on_c, 5, 68, 0
9, 82620, Note_on_c, 5, 68, 90
9, 82649, Note_on_c, 5, 68, 0
9, 82650, Note_on_c, 5, 70, 90
9, 82679, Note_on_c, 5, 70, 0
9, 82680, Note_on_c, 5, 70, 90
9, 82709, Note_on_c, 5, 70, 0
9, 82710, Note_on_c, 5, 71, 90
9, 82739, Note_on_c, 5, 71, 0
9, 82740, Note_on_c, 5, 71, 90
9, 82754, Note_on_c, 5, 71, 0
9, 82755, Note_on_c, 5, 73, 90
9, 82769, Note_on_c, 5, 73, 0
9, 82770, Note_on_c, 5, 74, 90
9, 82799, Note_on_c, 5, 74, 0
9, 82800, Note_on_c, 5, 74, 90
9, 82859, Note_on_c, 5, 74, 0
9, 82860, Note_on_c, 5, 64, 90
9, 82949, Note_on_c, 5, 64, 0
9, 82950, Note_on_c, 5, 66, 90
9, 82979, Note_on_c, 5, 66, 0
9, 82980, Note_on_c, 5, 66, 90
9, 83009, Note_on_c, 5, 66, 0
9, 83010, Note_on_c, 5, 68, 90
9, 83039, Note_on_c, 5, 68, 0
9, 83040, Note_on_c, 5, 68, 90
9, 83069, Note_on_c, 5, 68, 0
9, 83070, Note_on_c, 5, 69, 90
9, 83099, Note_on_c, 5, 69, 0
9, 83100, Note_on_c, 5, 69, 90
9, 83114, Note_on_c, 5, 69, 0
9, 83115, Note_on_c, 5, 71, 90
9, 83129, Note_on_c, 5, 71, 0
9, 83130, Note_on_c, 5, 73, 90
9, 83159, Note_on_c, 5, 73, 0
9, 83160, Note_on_c, 5, 73, 90
9, 83219, Note_on_c, 5, 73, 0
9, 83610, Note_on_c, 5, 79, 90
9, 83639, Note_on_c, 5, 79, 0
9, 83640, Note_on_c, 5, 78, 90
9, 83654, Note_on_c, 5, 78, 0
9, 83655, Note_on_c, 5, 76, 90
9, 83669, Note_on_c, 5, 76, 0
9, 83670, Note_on_c, 5, 74, 90
9, 83699, Note_on_c, 5, 74, 0
9, 83700, Note_on_c, 5, 74, 90
9, 83729, Note_on_c, 5, 74, 0
9, 83730, Note_on_c, 5, 73, 90
9, 83789, Note_on_c, 5, 73, 0
9, 83790, Note_on_c, 5, 74, 90
9, 83819, Note_on_c, 5, 74, 0
9, 83820, Note_on_c, 5, 72, 90
9, 83834, Note_on_c, 5, 72, 0
9, 83835, Note_on_c, 5, 71, 90
9, 83849, Note_on_c, 5, 71, 0
9, 83850, Note_on_c, 5, 69, 90
9, 83879, Note_on_c, 5, 69, 0
9, 83880, Note_on_c, 5, 68, 90
9, 83939, Note_on_c, 5, 68, 0
9, 84060, Note_on_c, 5, 64, 90
9, 84074, Note_on_c, 5, 64, 0
9, 84075, Note_on_c, 5, 62, 90
9, 84089, Note_on_c, 5, 62, 0
9, 84090, Note_on_c, 5, 61, 90
9, 84119, Note_on_c, 5, 61, 0
9, 84120, Note_on_c, 5, 61, 90
9, 84179, Note_on_c, 5, 61, 0
9, 84240, Note_on_c, 5, 59, 90
9, 84254, Note_on_c, 5, 59, 0
9, 84255, Note_on_c, 5, 61, 90
9, 84269, Note_on_c, 5, 61, 0
9, 84270, Note_on_c, 5, 62, 90
9, 84299, Note_on_c, 5, 62, 0
9, 84300, Note_on_c, 5, 62, 90
9, 84359, Note_on_c, 5, 62, 0
9, 85080, Note_on_c, 5, 61, 110
9, 85169, Note_on_c, 5, 61, 0
9, 85170, Note_on_c, 5, 62, 110
9, 85184, Note_on_c, 5, 62, 0
9, 85185, Note_on_c, 5, 64, 110
9, 85199, Note_on_c, 5, 64, 0
9, 85200, Note_on_c, 5, 62, 110
9, 85259, Note_on_c, 5, 62, 0
9, 85260, Note_on_c, 5, 61, 110
9, 85274, Note_on_c, 5, 61, 0
9, 85275, Note_on_c, 5, 59, 110
9, 85289, Note_on_c, 5, 59, 0
9, 85290, Note_on_c, 5, 57, 110
9, 85319, Note_on_c, 5, 57, 0
9, 85320, Note_on_c, 5, 57, 110
9, 85349, Note_on_c, 5, 57, 0
9, 85350, Note_on_c, 5, 59, 110
9, 85379, Note_on_c, 5, 59, 0
9, 85560, Note_on_c, 5, 61, 110
9, 85649, Note_on_c, 5, 61, 0
9, 85650, Note_on_c, 5, 62, 110
9, 85679, Note_on_c, 5, 62, 0
9, 85680, Note_on_c, 5, 62, 110
9, 85709, Note_on_c, 5, 62, 0
9, 85710, Note_on_c, 5, 64, 110
9, 85739, Note_on_c, 5, 64, 0
9, 85740, Note_on_c, 5, 64, 110
9, 85769, Note_on_c, 5, 64, 0
9, 85770, Note_on_c, 5, 66, 110
9, 85799, Note_on_c, 5, 66, 0
9, 85800, Note_on_c, 5, 66, 110
9, 86009, Note_on_c, 5, 66, 0
9, 86010, Note_on_c, 5, 68, 110
9, 86039, Note_on_c, 5, 68, 0
9, 86040, Note_on_c, 5, 68, 110
9, 86069, Note_on_c, 5, 68, 0
9, 86070, Note_on_c, 5, 69, 110
9, 86099, Note_on_c, 5, 69, 0
9, 86100, Note_on_c, 5, 69, 110
9, 86129, Note_on_c, 5, 69, 0
9, 86130, Note_on_c, 5, 71, 110
9, 86159, Note_on_c, 5, 71, 0
9, 86160, Note_on_c, 5, 71, 110
9, 86189, Note_on_c, 5, 71, 0
9, 86190, Note_on_c, 5, 68, 110
9, 86219, Note_on_c, 5, 68, 0
9, 86220, Note_on_c, 5, 69, 110
9, 86234, Note_on_c, 5, 69, 0
9, 86235, Note_on_c, 5, 71, 110
9, 86249, Note_on_c, 5, 71, 0
9, 86250, Note_on_c, 5, 73, 110
9, 86264, Note_on_c, 5, 73, 0
9, 86280, Note_on_c, 5, 73, 110
9, 86294, Note_on_c, 5, 73, 0
9, 86310, Note_on_c, 5, 73, 110
9, 86324, Note_on_c, 5, 73, 0
9, 86340, Note_on_c, 5, 71, 110
9, 86354, Note_on_c, 5, 71, 0
9, 86355, Note_on_c, 5, 69, 110
9, 86369, Note_on_c, 5, 69, 0
9, 86370, Note_on_c, 5, 68, 110
9, 86399, Note_on_c, 5, 68, 0
9, 86400, Note_on_c, 5, 68, 110
9, 86429, Note_on_c, 5, 68, 0
9, 86430, Note_on_c, 5, 66, 110
9, 86489, Note_on_c, 5, 66, 0
9, 86490, Note_on_c, 5, 68, 110
9, 86519, Note_on_c, 5, 68, 0
9, 86520, Note_on_c, 5, 68, 110
9, 86579, Note_on_c, 5, 68, 0
9, 86670, Note_on_c, 5, 79, 110
9, 86699, Note_on_c, 5, 79, 0
9, 86700, Note_on_c, 5, 78, 110
9, 86714, Note_on_c, 5, 78, 0
9, 86715, Note_on_c, 5, 76, 110
9, 86729, Note_on_c, 5, 76, 0
9, 86730, Note_on_c, 5, 74, 110
9, 86759, Note_on_c, 5, 74, 0
9, 86760, Note_on_c, 5, 74, 110
9, 86789, Note_on_c, 5, 74, 0
9, 86790, Note_on_c, 5, 73, 110
9, 86849, Note_on_c, 5, 73, 0
9, 86850, Note_on_c, 5, 74, 110
9, 86879, Note_on_c, 5, 74, 0
9, 86880, Note_on_c, 5, 72, 110
9, 86894, Note_on_c, 5, 72, 0
9, 86895, Note_on_c, 5, 71, 110
9, 86909, Note_on_c, 5, 71, 0
9, 86910, Note_on_c, 5, 69, 110
9, 86939, Note_on_c, 5, 69, 0
9, 86940, Note_on_c, 5, 68, 110
9, 87059, Note_on_c, 5, 68, 0
9, 87060, Note_on_c, 5, 69, 110
9, 87119, Note_on_c, 5, 69, 0
9, 87120, Note_on_c, 5, 73, 110
9, 87179, Note_on_c, 5, 73, 0
9, 87180, Note_on_c, 5, 71, 110
9, 87239, Note_on_c, 5, 71, 0
9, 87240, Note_on_c, 5, 73, 110
9, 87299, Note_on_c, 5, 73, 0
9, 87300, Note_on_c, 5, 71, 110
9, 87329, Note_on_c, 5, 71, 0
9, 87330, Note_on_c, 5, 69, 110
9, 87359, Note_on_c, 5, 69, 0
9, 87360, Note_on_c, 5, 71, 110
9, 87389, Note_on_c, 5, 71, 0
9, 87390, Note_on_c, 5, 68, 110
9, 87419, Note_on_c, 5, 68, 0
9, 87420, Note_on_c, 5, 69, 110
9, 87449, Note_on_c, 5, 69, 0
9, 87480, Note_on_c, 5, 69, 110
9, 87509, Note_on_c, 5, 69, 0
9, 87540, Note_on_c, 5, 68, 110
9, 87550, Note_on_c, 5, 68, 0
9, 87550, Note_on_c, 5, 69, 110
9, 87560, Note_on_c, 5, 69, 0
9, 87560, Note_on_c, 5, 68, 110
9, 87570, Note_on_c, 5, 68, 0
9, 87570, Note_on_c, 5, 69, 110
9, 87585, Note_on_c, 5, 69, 0
9, 87585, Note_on_c, 5, 68, 110
9, 87600, Note_on_c, 5, 68, 0
9, 87600, Note_on_c, 5, 69, 110
9, 87719, Note_on_c, 5, 69, 0
9, 132660, Note_on_c, 5, 67, 90
9, 132779, Note_on_c, 5, 67, 0
9, 132780, Note_on_c, 5, 67, 90
9, 132899, Note_on_c, 5, 67, 0
9, 132900, Note_on_c, 5, 69, 90
9, 133019, Note_on_c, 5, 69, 0
9, 133020, Note_on_c, 5, 67, 90
9, 133139, Note_on_c, 5, 67, 0
9, 133140, Note_on_c, 5, 69, 90
9, 133199, Note_on_c, 5, 69, 0
9, 133200, Note_on_c, 5, 71, 90
9, 133259, Note_on_c, 5, 71, 0
9, 133260, Note_on_c, 5, 72, 90
9, 133379, Note_on_c, 5, 72, 0
9, 133380, Note_on_c, 5, 72, 90
9, 133499, Note_on_c, 5, 72, 0
9, 133500, Note_on_c, 5, 71, 90
9, 133619, Note_on_c, 5, 71, 0
9, 133620, Note_on_c, 5, 72, 90
9, 133859, Note_on_c, 5, 72, 0
9, 133860, Note_on_c, 5, 74, 90
9, 133979, Note_on_c, 5, 74, 0
9, 133980, Note_on_c, 5, 76, 90
9, 134099, Note_on_c, 5, 76, 0
9, 134100, Note_on_c, 5, 72, 90
9, 134339, Note_on_c, 5, 72, 0
9, 134340, Note_on_c, 5, 71, 90
9, 134399, Note_on_c, 5, 71, 0
9, 134400, Note_on_c, 5, 72, 90
9, 134459, Note_on_c, 5, 72, 0
9, 134460, Note_on_c, 5, 74, 90
9, 134579, Note_on_c, 5, 74, 0
9, 134580, Note_on_c, 5, 69, 90
9, 134819, Note_on_c, 5, 69, 0
9, 134820, Note_on_c, 5, 74, 90
9, 134939, Note_on_c, 5, 74, 0
9, 134940, Note_on_c, 5, 74, 90
9, 135059, Note_on_c, 5, 74, 0
9, 135060, Note_on_c, 5, 72, 90
9, 135179, Note_on_c, 5, 72, 0
9, 135180, Note_on_c, 5, 71, 90
9, 135239, Note_on_c, 5, 71, 0
9, 135240, Note_on_c, 5, 69, 90
9, 135299, Note_on_c, 5, 69, 0
9, 135300, Note_on_c, 5, 69, 90
9, 135539, Note_on_c, 5, 69, 0
9, 135540, Note_on_c, 5, 67, 90
9, 135779, Note_on_c, 5, 67, 0
9, 135780, Note_on_c, 5, 67, 90
9, 135899, Note_on_c, 5, 67, 0
9, 135900, Note_on_c, 5, 67, 90
9, 136019, Note_on_c, 5, 67, 0
9, 136020, Note_on_c, 5, 69, 90
9, 136139, Note_on_c, 5, 69, 0
9, 136140, Note_on_c, 5, 67, 90
9, 136259, Note_on_c, 5, 67, 0
9, 136260, Note_on_c, 5, 69, 90
9, 136319, Note_on_c, 5, 69, 0
9, 136320, Note_on_c, 5, 71, 90
9, 136379, Note_on_c, 5, 71, 0
9, 136380, Note_on_c, 5, 72, 90
9, 136499, Note_on_c, 5, 72, 0
9, 136500, Note_on_c, 5, 72, 90
9, 136619, Note_on_c, 5, 72, 0
9, 136620, Note_on_c, 5, 71, 90
9, 136739, Note_on_c, 5, 71, 0
9, 136740, Note_on_c, 5, 72, 90
9, 136979, Note_on_c, 5, 72, 0
9, 136980, Note_on_c, 5, 74, 90
9, 137099, Note_on_c, 5, 74, 0
9, 137100, Note_on_c, 5, 76, 90
9, 137219, Note_on_c, 5, 76, 0
9, 137220, Note_on_c, 5, 72, 90
9, 137459, Note_on_c, 5, 72, 0
9, 137460, Note_on_c, 5, 71, 90
9, 137519, Note_on_c, 5, 71, 0
9, 137520, Note_on_c, 5, 72, 90
9, 137579, Note_on_c, 5, 72, 0
9, 137580, Note_on_c, 5, 74, 90
9, 137699, Note_on_c, 5, 74, 0
9, 137700, Note_on_c, 5, 69, 90
9, 137939, Note_on_c, 5, 69, 0
9, 137940, Note_on_c, 5, 74, 90
9, 138059, Note_on_c, 5, 74, 0
9, 138060, Note_on_c, 5, 74, 90
9, 138179, Note_on_c, 5, 74, 0
9, 138180, Note_on_c, 5, 72, 90
9, 138299, Note_on_c, 5, 72, 0
9, 138300, Note_on_c, 5, 71, 90
9, 138359, Note_on_c, 5, 71, 0
9, 138360, Note_on_c, 5, 69, 90
9, 138419, Note_on_c, 5, 69, 0
9, 138420, Note_on_c, 5, 69, 90
9, 138659, Note_on_c, 5, 69, 0
9, 138660, Note_on_c, 5, 67, 90
9, 138899, Note_on_c, 5, 67, 0
9, 141900, Note_on_c, 5, 66, 90
9, 141959, Note_on_c, 5, 66, 0
9, 141960, Note_on_c, 5, 68, 90
9, 142019, Note_on_c, 5, 68, 0
9, 142020, Note_on_c, 5, 69, 90
9, 142139, Note_on_c, 5, 69, 0
9, 142140, Note_on_c, 5, 68, 90
9, 142259, Note_on_c, 5, 68, 0
9, 142260, Note_on_c, 5, 66, 90
9, 142379, Note_on_c, 5, 66, 0
9, 142380, Note_on_c, 5, 66, 90
9, 142439, Note_on_c, 5, 66, 0
9, 142440, Note_on_c, 5, 68, 90
9, 142499, Note_on_c, 5, 68, 0
9, 142500, Note_on_c, 5, 69, 90
9, 142619, Note_on_c, 5, 69, 0
9, 142620, Note_on_c, 5, 68, 90
9, 142739, Note_on_c, 5, 68, 0
9, 142740, Note_on_c, 5, 66, 90
9, 142859, Note_on_c, 5, 66, 0
9, 142860, Note_on_c, 5, 73, 90
9, 142979, Note_on_c, 5, 73, 0
9, 142980, Note_on_c, 5, 71, 90
9, 143099, Note_on_c, 5, 71, 0
9, 143100, Note_on_c, 5, 69, 90
9, 143219, Note_on_c, 5, 69, 0
9, 143220, Note_on_c, 5, 68, 90
9, 143339, Note_on_c, 5, 68, 0
9, 143340, Note_on_c, 5, 68, 90
9, 143459, Note_on_c, 5, 68, 0
9, 143460, Note_on_c, 5, 69, 90
9, 143579, Note_on_c, 5, 69, 0
9, 143580, Note_on_c, 5, 69, 90
9, 143699, Note_on_c, 5, 69, 0
9, 143700, Note_on_c, 5, 71, 90
9, 143819, Note_on_c, 5, 71, 0
9, 143820, Note_on_c, 5, 71, 90
9, 143939, Note_on_c, 5, 71, 0
9, 143940, Note_on_c, 5, 73, 90
9, 144059, Note_on_c, 5, 73, 0
9, 144060, Note_on_c, 5, 73, 90
9, 144179, Note_on_c, 5, 73, 0
9, 144180, Note_on_c, 5, 71, 90
9, 144299, Note_on_c, 5, 71, 0
9, 144300, Note_on_c, 5, 69, 90
9, 144419, Note_on_c, 5, 69, 0
9, 144420, Note_on_c, 5, 68, 90
9, 144659, Note_on_c, 5, 68, 0
9, 144660, Note_on_c, 5, 61, 90
9, 144779, Note_on_c, 5, 61, 0
9, 144780, Note_on_c, 5, 73, 90
9, 144899, Note_on_c, 5, 73, 0
9, 144900, Note_on_c, 5, 71, 90
9, 145019, Note_on_c, 5, 71, 0
9, 145020, Note_on_c, 5, 69, 90
9, 145079, Note_on_c, 5, 69, 0
9, 145080, Note_on_c, 5, 68, 90
9, 145139, Note_on_c, 5, 68, 0
9, 145140, Note_on_c, 5, 68, 90
9, 145259, Note_on_c, 5, 68, 0
9, 145260, Note_on_c, 5, 73, 90
9, 145379, Note_on_c, 5, 73, 0
9, 145380, Note_on_c, 5, 71, 90
9, 145499, Note_on_c, 5, 71, 0
9, 145500, Note_on_c, 5, 69, 90
9, 145619, Note_on_c, 5, 69, 0
9, 145620, Note_on_c, 5, 68, 90
9, 145739, Note_on_c, 5, 68, 0
9, 145740, Note_on_c, 5, 68, 90
9, 145859, Note_on_c, 5, 68, 0
9, 145860, Note_on_c, 5, 69, 90
9, 145979, Note_on_c, 5, 69, 0
9, 145980, Note_on_c, 5, 69, 90
9, 146099, Note_on_c, 5, 69, 0
9, 146100, Note_on_c, 5, 71, 90
9, 146219, Note_on_c, 5, 71, 0
9, 146220, Note_on_c, 5, 71, 90
9, 146339, Note_on_c, 5, 71, 0
9, 146340, Note_on_c, 5, 73, 90
9, 146459, Note_on_c, 5, 73, 0
9, 146460, Note_on_c, 5, 73, 90
9, 146579, Note_on_c, 5, 73, 0
9, 146580, Note_on_c, 5, 71, 90
9, 146699, Note_on_c, 5, 71, 0
9, 146700, Note_on_c, 5, 69, 90
9, 146759, Note_on_c, 5, 69, 0
9, 146760, Note_on_c, 5, 68, 90
9, 146819, Note_on_c, 5, 68, 0
9, 146820, Note_on_c, 5, 68, 90
9, 147059, Note_on_c, 5, 68, 0
9, 147060, Note_on_c, 5, 66, 90
9, 147179, Note_on_c, 5, 66, 0
9, 147300, Note_on_c, 5, 74, 90
9, 147359, Note_on_c, 5, 74, 0
9, 147360, Note_on_c, 5, 74, 90
9, 147419, Note_on_c, 5, 74, 0
9, 147420, Note_on_c, 5, 74, 90
9, 147479, Note_on_c, 5, 74, 0
9, 147480, Note_on_c, 5, 74, 90
9, 147539, Note_on_c, 5, 74, 0
9, 147540, Note_on_c, 5, 71, 90
9, 147569, Note_on_c, 5, 71, 0
9, 147570, Note_on_c, 5, 73, 90
9, 147599, Note_on_c, 5, 73, 0
9, 147600, Note_on_c, 5, 74, 90
9, 147629, Note_on_c, 5, 74, 0
9, 147630, Note_on_c, 5, 71, 90
9, 147659, Note_on_c, 5, 71, 0
9, 147660, Note_on_c, 5, 76, 90
9, 147689, Note_on_c, 5, 76, 0
9, 147690, Note_on_c, 5, 75, 90
9, 147719, Note_on_c, 5, 75, 0
9, 147720, Note_on_c, 5, 76, 90
9, 147779, Note_on_c, 5, 76, 0
9, 147780, Note_on_c, 5, 78, 90
9, 147899, Note_on_c, 5, 78, 0
9, 147900, Note_on_c, 5, 76, 90
9, 147959, Note_on_c, 5, 76, 0
9, 147960, Note_on_c, 5, 75, 90
9, 148019, Note_on_c, 5, 75, 0
9, 148020, Note_on_c, 5, 76, 90
9, 148079, Note_on_c, 5, 76, 0
9, 148080, Note_on_c, 5, 76, 90
9, 148139, Note_on_c, 5, 76, 0
9, 148140, Note_on_c, 5, 76, 90
9, 148199, Note_on_c, 5, 76, 0
9, 148200, Note_on_c, 5, 76, 90
9, 148259, Note_on_c, 5, 76, 0
9, 148260, Note_on_c, 5, 69, 90
9, 148319, Note_on_c, 5, 69, 0
9, 148320, Note_on_c, 5, 74, 90
9, 148379, Note_on_c, 5, 74, 0
9, 148380, Note_on_c, 5, 73, 90
9, 148439, Note_on_c, 5, 73, 0
9, 148440, Note_on_c, 5, 78, 90
9, 148469, Note_on_c, 5, 78, 0
9, 148470, Note_on_c, 5, 76, 90
9, 148499, Note_on_c, 5, 76, 0
9, 148500, Note_on_c, 5, 74, 90
9, 148529, Note_on_c, 5, 74, 0
9, 148530, Note_on_c, 5, 73, 90
9, 148559, Note_on_c, 5, 73, 0
9, 148560, Note_on_c, 5, 74, 90
9, 148619, Note_on_c, 5, 74, 0
9, 148620, Note_on_c, 5, 69, 90
9, 148679, Note_on_c, 5, 69, 0
9, 148680, Note_on_c, 5, 73, 90
9, 148739, Note_on_c, 5, 73, 0
9, 148740, Note_on_c, 5, 74, 90
9, 148799, Note_on_c, 5, 74, 0
9, 148800, Note_on_c, 5, 71, 90
9, 148859, Note_on_c, 5, 71, 0
9, 148860, Note_on_c, 5, 76, 90
9, 148889, Note_on_c, 5, 76, 0
9, 148890, Note_on_c, 5, 78, 90
9, 148919, Note_on_c, 5, 78, 0
9, 148920, Note_on_c, 5, 80, 90
9, 148949, Note_on_c, 5, 80, 0
9, 148950, Note_on_c, 5, 81, 90
9, 148979, Note_on_c, 5, 81, 0
9, 148980, Note_on_c, 5, 83, 90
9, 149039, Note_on_c, 5, 83, 0
9, 149040, Note_on_c, 5, 81, 90
9, 149099, Note_on_c, 5, 81, 0
9, 149100, Note_on_c, 5, 78, 90
9, 149159, Note_on_c, 5, 78, 0
9, 149160, Note_on_c, 5, 71, 90
9, 149189, Note_on_c, 5, 71, 0
9, 149190, Note_on_c, 5, 73, 90
9, 149219, Note_on_c, 5, 73, 0
9, 149220, Note_on_c, 5, 74, 90
9, 149279, Note_on_c, 5, 74, 0
9, 149280, Note_on_c, 5, 73, 90
9, 149339, Note_on_c, 5, 73, 0
9, 149520, Note_on_c, 5, 76, 90
9, 149579, Note_on_c, 5, 76, 0
9, 149580, Note_on_c, 5, 74, 90
9, 149639, Note_on_c, 5, 74, 0
9, 149640, Note_on_c, 5, 73, 90
9, 149699, Note_on_c, 5, 73, 0
9, 149700, Note_on_c, 5, 64, 90
9, 149729, Note_on_c, 5, 64, 0
9, 149730, Note_on_c, 5, 62, 90
9, 149759, Note_on_c, 5, 62, 0
9, 149760, Note_on_c, 5, 64, 90
9, 149789, Note_on_c, 5, 64, 0
9, 149790, Note_on_c, 5, 66, 90
9, 149819, Note_on_c, 5, 66, 0
9, 149820, Note_on_c, 5, 67, 90
9, 149879, Note_on_c, 5, 67, 0
9, 149880, Note_on_c, 5, 67, 90
9, 149939, Note_on_c, 5, 67, 0
9, 149940, Note_on_c, 5, 66, 90
9, 149999, Note_on_c, 5, 66, 0
9, 150000, Note_on_c, 5, 64, 90
9, 150179, Note_on_c, 5, 64, 0
9, 150900, Note_on_c, 5, 64, 90
9, 150959, Note_on_c, 5, 64, 0
9, 150960, Note_on_c, 5, 69, 90
9, 151019, Note_on_c, 5, 69, 0
9, 151020, Note_on_c, 5, 73, 90
9, 151079, Note_on_c, 5, 73, 0
9, 151080, Note_on_c, 5, 76, 90
9, 151139, Note_on_c, 5, 76, 0
9, 151260, Note_on_c, 5, 73, 90
9, 151319, Note_on_c, 5, 73, 0
9, 151440, Note_on_c, 5, 64, 90
9, 151499, Note_on_c, 5, 64, 0
9, 151500, Note_on_c, 5, 74, 90
9, 151559, Note_on_c, 5, 74, 0
9, 151560, Note_on_c, 5, 69, 90
9, 151619, Note_on_c, 5, 69, 0
9, 151620, Note_on_c, 5, 66, 90
9, 151679, Note_on_c, 5, 66, 0
9, 153060, Note_on_c, 5, 74, 90
9, 153119, Note_on_c, 5, 74, 0
9, 153120, Note_on_c, 5, 74, 90
9, 153179, Note_on_c, 5, 74, 0
9, 153180, Note_on_c, 5, 74, 90
9, 153239, Note_on_c, 5, 74, 0
9, 153240, Note_on_c, 5, 74, 90
9, 153299, Note_on_c, 5, 74, 0
9, 153300, Note_on_c, 5, 71, 90
9, 153329, Note_on_c, 5, 71, 0
9, 153330, Note_on_c, 5, 73, 90
9, 153359, Note_on_c, 5, 73, 0
9, 153360, Note_on_c, 5, 74, 90
9, 153389, Note_on_c, 5, 74, 0
9, 153390, Note_on_c, 5, 71, 90
9, 153419, Note_on_c, 5, 71, 0
9, 153420, Note_on_c, 5, 76, 90
9, 153449, Note_on_c, 5, 76, 0
9, 153450, Note_on_c, 5, 75, 90
9, 153479, Note_on_c, 5, 75, 0
9, 153480, Note_on_c, 5, 76, 90
9, 153539, Note_on_c, 5, 76, 0
9, 153540, Note_on_c, 5, 78, 90
9, 153659, Note_on_c, 5, 78, 0
9, 153660, Note_on_c, 5, 76, 90
9, 153719, Note_on_c, 5, 76, 0
9, 153720, Note_on_c, 5, 75, 90
9, 153779, Note_on_c, 5, 75, 0
9, 153780, Note_on_c, 5, 76, 90
9, 153839, Note_on_c, 5, 76, 0
9, 153840, Note_on_c, 5, 76, 90
9, 153899, Note_on_c, 5, 76, 0
9, 153900, Note_on_c, 5, 76, 90
9, 153959, Note_on_c, 5, 76, 0
9, 153960, Note_on_c, 5, 76, 90
9, 154019, Note_on_c, 5, 76, 0
9, 154020, Note_on_c, 5, 69, 90
9, 154079, Note_on_c, 5, 69, 0
9, 154080, Note_on_c, 5, 74, 90
9, 154139, Note_on_c, 5, 74, 0
9, 154140, Note_on_c, 5, 73, 90
9, 154199, Note_on_c, 5, 73, 0
9, 154200, Note_on_c, 5, 78, 90
9, 154229, Note_on_c, 5, 78, 0
9, 154230, Note_on_c, 5, 76, 90
9, 154259, Note_on_c, 5, 76, 0
9, 154260, Note_on_c, 5, 74, 90
9, 154289, Note_on_c, 5, 74, 0
9, 154290, Note_on_c, 5, 73, 90
9, 154319, Note_on_c, 5, 73, 0
9, 154320, Note_on_c, 5, 74, 90
9, 154379, Note_on_c, 5, 74, 0
9, 154380, Note_on_c, 5, 69, 90
9, 154439, Note_on_c, 5, 69, 0
9, 154440, Note_on_c, 5, 73, 90
9, 154499, Note_on_c, 5, 73, 0
9, 154500, Note_on_c, 5, 74, 90
9, 154559, Note_on_c, 5, 74, 0
9, 154560, Note_on_c, 5, 71, 90
9, 154619, Note_on_c, 5, 71, 0
9, 154620, Note_on_c, 5, 76, 90
9, 154649, Note_on_c, 5, 76, 0
9, 154650, Note_on_c, 5, 78, 90
9, 154679, Note_on_c, 5, 78, 0
9, 154680, Note_on_c, 5, 80, 90
9, 154709, Note_on_c, 5, 80, 0
9, 154710, Note_on_c, 5, 81, 90
9, 154739, Note_on_c, 5, 81, 0
9, 154740, Note_on_c, 5, 83, 90
9, 154799, Note_on_c, 5, 83, 0
9, 154800, Note_on_c, 5, 81, 90
9, 154859, Note_on_c, 5, 81, 0
9, 154860, Note_on_c, 5, 78, 90
9, 154919, Note_on_c, 5, 78, 0
9, 154920, Note_on_c, 5, 71, 90
9, 154949, Note_on_c, 5, 71, 0
9, 154950, Note_on_c, 5, 73, 90
9, 154979, Note_on_c, 5, 73, 0
9, 154980, Note_on_c, 5, 74, 90
9, 155039, Note_on_c, 5, 74, 0
9, 155040, Note_on_c, 5, 73, 90
9, 155099, Note_on_c, 5, 73, 0
9, 155280, Note_on_c, 5, 76, 90
9, 155339, Note_on_c, 5, 76, 0
9, 155340, Note_on_c, 5, 74, 90
9, 155399, Note_on_c, 5, 74, 0
9, 155400, Note_on_c, 5, 73, 90
9, 155459, Note_on_c, 5, 73, 0
9, 155460, Note_on_c, 5, 64, 90
9, 155489, Note_on_c, 5, 64, 0
9, 155490, Note_on_c, 5, 62, 90
9, 155519, Note_on_c, 5, 62, 0
9, 155520, Note_on_c, 5, 64, 90
9, 155549, Note_on_c, 5, 64, 0
9, 155550, Note_on_c, 5, 66, 90
9, 155579, Note_on_c, 5, 66, 0
9, 155580, Note_on_c, 5, 67, 90
9, 155639, Note_on_c, 5, 67, 0
9, 155640, Note_on_c, 5, 67, 90
9, 155699, Note_on_c, 5, 67, 0
9, 155700, Note_on_c, 5, 66, 90
9, 155759, Note_on_c, 5, 66, 0
9, 155760, Note_on_c, 5, 64, 90
9, 155939, Note_on_c, 5, 64, 0
9, 155940, Note_on_c, 5, 69, 90
9, 155999, Note_on_c, 5, 69, 0
9, 156000, Note_on_c, 5, 69, 90
9, 156059, Note_on_c, 5, 69, 0
9, 156060, Note_on_c, 5, 69, 90
9, 156119, Note_on_c, 5, 69, 0
9, 156120, Note_on_c, 5, 69, 90
9, 156149, Note_on_c, 5, 69, 0
9, 156150, Note_on_c, 5, 71, 90
9, 156179, Note_on_c, 5, 71, 0
9, 156180, Note_on_c, 5, 73, 90
9, 156209, Note_on_c, 5, 73, 0
9, 156210, Note_on_c, 5, 74, 90
9, 156239, Note_on_c, 5, 74, 0
9, 156240, Note_on_c, 5, 76, 90
9, 156359, Note_on_c, 5, 76, 0
9, 156360, Note_on_c, 5, 74, 90
9, 156419, Note_on_c, 5, 74, 0
9, 156420, Note_on_c, 5, 73, 90
9, 156479, Note_on_c, 5, 73, 0
9, 156480, Note_on_c, 5, 74, 90
9, 156539, Note_on_c, 5, 74, 0
9, 156540, Note_on_c, 5, 71, 90
9, 156599, Note_on_c, 5, 71, 0
9, 156600, Note_on_c, 5, 69, 90
9, 156719, Note_on_c, 5, 69, 0
9, 156720, Note_on_c, 5, 74, 90
9, 156779, Note_on_c, 5, 74, 0
9, 156780, Note_on_c, 5, 74, 90
9, 156839, Note_on_c, 5, 74, 0
9, 156840, Note_on_c, 5, 74, 90
9, 156869, Note_on_c, 5, 74, 0
9, 156870, Note_on_c, 5, 76, 90
9, 156899, Note_on_c, 5, 76, 0
9, 156900, Note_on_c, 5, 78, 90
9, 156929, Note_on_c, 5, 78, 0
9, 156930, Note_on_c, 5, 79, 90
9, 156959, Note_on_c, 5, 79, 0
9, 156960, Note_on_c, 5, 81, 90
9, 157079, Note_on_c, 5, 81, 0
9, 157080, Note_on_c, 5, 79, 90
9, 157139, Note_on_c, 5, 79, 0
9, 157140, Note_on_c, 5, 78, 90
9, 157199, Note_on_c, 5, 78, 0
9, 157200, Note_on_c, 5, 79, 90
9, 157259, Note_on_c, 5, 79, 0
9, 157260, Note_on_c, 5, 72, 90
9, 157319, Note_on_c, 5, 72, 0
9, 157320, Note_on_c, 5, 74, 90
9, 157439, Note_on_c, 5, 74, 0
9, 157440, Note_on_c, 5, 76, 90
9, 157499, Note_on_c, 5, 76, 0
9, 157500, Note_on_c, 5, 71, 90
9, 157559, Note_on_c, 5, 71, 0
9, 157560, Note_on_c, 5, 73, 90
9, 157619, Note_on_c, 5, 73, 0
9, 157620, Note_on_c, 5, 74, 90
9, 157649, Note_on_c, 5, 74, 0
9, 157650, Note_on_c, 5, 73, 90
9, 157679, Note_on_c, 5, 73, 0
9, 157680, Note_on_c, 5, 74, 90
9, 157799, Note_on_c, 5, 74, 0
9, 157800, Note_on_c, 5, 76, 90
9, 157859, Note_on_c, 5, 76, 0
9, 157860, Note_on_c, 5, 73, 90
9, 157919, Note_on_c, 5, 73, 0
9, 157920, Note_on_c, 5, 74, 90
9, 158039, Note_on_c, 5, 74, 0
9, 158160, Note_on_c, 5, 81, 90
9, 158219, Note_on_c, 5, 81, 0
9, 158220, Note_on_c, 5, 79, 90
9, 158279, Note_on_c, 5, 79, 0
9, 158280, Note_on_c, 5, 78, 90
9, 158339, Note_on_c, 5, 78, 0
9, 158340, Note_on_c, 5, 66, 90
9, 158369, Note_on_c, 5, 66, 0
9, 158370, Note_on_c, 5, 64, 90
9, 158399, Note_on_c, 5, 64, 0
9, 158400, Note_on_c, 5, 66, 90
9, 158429, Note_on_c, 5, 66, 0
9, 158430, Note_on_c, 5, 67, 90
9, 158459, Note_on_c, 5, 67, 0
9, 158460, Note_on_c, 5, 69, 90
9, 158519, Note_on_c, 5, 69, 0
9, 158520, Note_on_c, 5, 72, 90
9, 158579, Note_on_c, 5, 72, 0
9, 158580, Note_on_c, 5, 71, 90
9, 158639, Note_on_c, 5, 71, 0
9, 158640, Note_on_c, 5, 69, 90
9, 158819, Note_on_c, 5, 69, 0
9, 159540, Note_on_c, 5, 71, 90
9, 159599, Note_on_c, 5, 71, 0
9, 159600, Note_on_c, 5, 74, 90
9, 159659, Note_on_c, 5, 74, 0
9, 159660, Note_on_c, 5, 71, 90
9, 159719, Note_on_c, 5, 71, 0
9, 159720, Note_on_c, 5, 74, 90
9, 159779, Note_on_c, 5, 74, 0
9, 159780, Note_on_c, 5, 69, 90
9, 159839, Note_on_c, 5, 69, 0
9, 159840, Note_on_c, 5, 66, 90
9, 159899, Note_on_c, 5, 66, 0
9, 159900, Note_on_c, 5, 62, 90
9, 159959, Note_on_c, 5, 62, 0
9, 160020, Note_on_c, 5, 73, 90
9, 160079, Note_on_c, 5, 73, 0
9, 160080, Note_on_c, 5, 74, 90
9, 160139, Note_on_c, 5, 74, 0
9, 160200, Note_on_c, 5, 62, 90
9, 160259, Note_on_c, 5, 62, 0
9, 160260, Note_on_c, 5, 69, 90
9, 160319, Note_on_c, 5, 69, 0
9, 161700, Note_on_c, 5, 69, 90
9, 161759, Note_on_c, 5, 69, 0
9, 161760, Note_on_c, 5, 69, 90
9, 161819, Note_on_c, 5, 69, 0
9, 161820, Note_on_c, 5, 69, 90
9, 161879, Note_on_c, 5, 69, 0
9, 161880, Note_on_c, 5, 69, 90
9, 161909, Note_on_c, 5, 69, 0
9, 161910, Note_on_c, 5, 71, 90
9, 161939, Note_on_c, 5, 71, 0
9, 161940, Note_on_c, 5, 73, 90
9, 161969, Note_on_c, 5, 73, 0
9, 161970, Note_on_c, 5, 74, 90
9, 161999, Note_on_c, 5, 74, 0
9, 162000, Note_on_c, 5, 76, 90
9, 162119, Note_on_c, 5, 76, 0
9, 162120, Note_on_c, 5, 74, 90
9, 162179, Note_on_c, 5, 74, 0
9, 162180, Note_on_c, 5, 73, 90
9, 162239, Note_on_c, 5, 73, 0
9, 162240, Note_on_c, 5, 74, 90
9, 162299, Note_on_c, 5, 74, 0
9, 162300, Note_on_c, 5, 71, 90
9, 162359, Note_on_c, 5, 71, 0
9, 162360, Note_on_c, 5, 69, 90
9, 162479, Note_on_c, 5, 69, 0
9, 162480, Note_on_c, 5, 74, 90
9, 162539, Note_on_c, 5, 74, 0
9, 162540, Note_on_c, 5, 74, 90
9, 162599, Note_on_c, 5, 74, 0
9, 162600, Note_on_c, 5, 74, 90
9, 162629, Note_on_c, 5, 74, 0
9, 162630, Note_on_c, 5, 76, 90
9, 162659, Note_on_c, 5, 76, 0
9, 162660, Note_on_c, 5, 78, 90
9, 162689, Note_on_c, 5, 78, 0
9, 162690, Note_on_c, 5, 79, 90
9, 162719, Note_on_c, 5, 79, 0
9, 162720, Note_on_c, 5, 81, 90
9, 162839, Note_on_c, 5, 81, 0
9, 162840, Note_on_c, 5, 79, 90
9, 162899, Note_on_c, 5, 79, 0
9, 162900, Note_on_c, 5, 78, 90
9, 162959, Note_on_c, 5, 78, 0
9, 162960, Note_on_c, 5, 79, 90
9, 163019, Note_on_c, 5, 79, 0
9, 163020, Note_on_c, 5, 72, 90
9, 163079, Note_on_c, 5, 72, 0
9, 163080, Note_on_c, 5, 74, 90
9, 163199, Note_on_c, 5, 74, 0
9, 163200, Note_on_c, 5, 76, 90
9, 163259, Note_on_c, 5, 76, 0
9, 163260, Note_on_c, 5, 71, 90
9, 163319, Note_on_c, 5, 71, 0
9, 163320, Note_on_c, 5, 73, 90
9, 163379, Note_on_c, 5, 73, 0
9, 163380, Note_on_c, 5, 74, 90
9, 163409, Note_on_c, 5, 74, 0
9, 163410, Note_on_c, 5, 73, 90
9, 163439, Note_on_c, 5, 73, 0
9, 163440, Note_on_c, 5, 74, 90
9, 163559, Note_on_c, 5, 74, 0
9, 163560, Note_on_c, 5, 76, 90
9, 163619, Note_on_c, 5, 76, 0
9, 163620, Note_on_c, 5, 73, 90
9, 163679, Note_on_c, 5, 73, 0
9, 163680, Note_on_c, 5, 74, 90
9, 163799, Note_on_c, 5, 74, 0
9, 163920, Note_on_c, 5, 81, 90
9, 163979, Note_on_c, 5, 81, 0
9, 163980, Note_on_c, 5, 79, 90
9, 164039, Note_on_c, 5, 79, 0
9, 164040, Note_on_c, 5, 78, 90
9, 164099, Note_on_c, 5, 78, 0
9, 164100, Note_on_c, 5, 66, 90
9, 164129, Note_on_c, 5, 66, 0
9, 164130, Note_on_c, 5, 64, 90
9, 164159, Note_on_c, 5, 64, 0
9, 164160, Note_on_c, 5, 66, 90
9, 164189, Note_on_c, 5, 66, 0
9, 164190, Note_on_c, 5, 67, 90
9, 164219, Note_on_c, 5, 67, 0
9, 164220, Note_on_c, 5, 69, 90
9, 164279, Note_on_c, 5, 69, 0
9, 164280, Note_on_c, 5, 72, 90
9, 164339, Note_on_c, 5, 72, 0
9, 164340, Note_on_c, 5, 71, 90
9, 164399, Note_on_c, 5, 71, 0
9, 164400, Note_on_c, 5, 69, 90
9, 164579, Note_on_c, 5, 69, 0
9, 164579, End_track
10, 0, Start_track
10, 0, MIDI_port, 0
10, 0, Title_t, "violin i"
10, 0, Program_c, 6, 48
10, 0, Control_c, 6, 7, 127
10, 0, Control_c, 6, 10, 86
10, 0, Note_on_c, 6, 78, 90
10, 59, Note_on_c, 6, 78, 0
10, 60, Note_on_c, 6, 78, 90
10, 119, Note_on_c, 6, 78, 0
10, 120, Note_on_c, 6, 78, 90
10, 179, Note_on_c, 6, 78, 0
10, 180, Note_on_c, 6, 78, 90
10, 239, Note_on_c, 6, 78, 0
10, 240, Note_on_c, 6, 74, 90
10, 269, Note_on_c, 6, 74, 0
10, 270, Note_on_c, 6, 76, 90
10, 299, Note_on_c, 6, 76, 0
10, 300, Note_on_c, 6, 78, 90
10, 329, Note_on_c, 6, 78, 0
10, 330, Note_on_c, 6, 79, 90
10, 359, Note_on_c, 6, 79, 0
10, 360, Note_on_c, 6, 81, 90
10, 419, Note_on_c, 6, 81, 0
10, 420, Note_on_c, 6, 79, 90
10, 479, Note_on_c, 6, 79, 0
10, 480, Note_on_c, 6, 78, 90
10, 539, Note_on_c, 6, 78, 0
10, 540, Note_on_c, 6, 79, 90
10, 629, Note_on_c, 6, 79, 0
10, 630, Note_on_c, 6, 81, 90
10, 644, Note_on_c, 6, 81, 0
10, 645, Note_on_c, 6, 83, 90
10, 659, Note_on_c, 6, 83, 0
10, 660, Note_on_c, 6, 81, 90
10, 719, Note_on_c, 6, 81, 0
10, 720, Note_on_c, 6, 79, 90
10, 779, Note_on_c, 6, 79, 0
10, 780, Note_on_c, 6, 79, 90
10, 839, Note_on_c, 6, 79, 0
10, 840, Note_on_c, 6, 79, 90
10, 899, Note_on_c, 6, 79, 0
10, 900, Note_on_c, 6, 79, 90
10, 959, Note_on_c, 6, 79, 0
10, 960, Note_on_c, 6, 76, 90
10, 989, Note_on_c, 6, 76, 0
10, 990, Note_on_c, 6, 74, 90
10, 1019, Note_on_c, 6, 74, 0
10, 1020, Note_on_c, 6, 76, 90
10, 1049, Note_on_c, 6, 76, 0
10, 1050, Note_on_c, 6, 78, 90
10, 1079, Note_on_c, 6, 78, 0
10, 1080, Note_on_c, 6, 79, 90
10, 1109, Note_on_c, 6, 79, 0
10, 1110, Note_on_c, 6, 78, 90
10, 1139, Note_on_c, 6, 78, 0
10, 1140, Note_on_c, 6, 81, 90
10, 1169, Note_on_c, 6, 81, 0
10, 1170, Note_on_c, 6, 79, 90
10, 1199, Note_on_c, 6, 79, 0
10, 1200, Note_on_c, 6, 78, 90
10, 1229, Note_on_c, 6, 78, 0
10, 1230, Note_on_c, 6, 76, 90
10, 1259, Note_on_c, 6, 76, 0
10, 1260, Note_on_c, 6, 78, 90
10, 1349, Note_on_c, 6, 78, 0
10, 1350, Note_on_c, 6, 79, 90
10, 1364, Note_on_c, 6, 79, 0
10, 1365, Note_on_c, 6, 81, 90
10, 1379, Note_on_c, 6, 81, 0
10, 1380, Note_on_c, 6, 79, 90
10, 1439, Note_on_c, 6, 79, 0
10, 1440, Note_on_c, 6, 78, 90
10, 1499, Note_on_c, 6, 78, 0
10, 1500, Note_on_c, 6, 80, 90
10, 1559, Note_on_c, 6, 80, 0
10, 1560, Note_on_c, 6, 81, 90
10, 1619, Note_on_c, 6, 81, 0
10, 1620, Note_on_c, 6, 83, 90
10, 1649, Note_on_c, 6, 83, 0
10, 1650, Note_on_c, 6, 85, 90
10, 1679, Note_on_c, 6, 85, 0
10, 1680, Note_on_c, 6, 86, 90
10, 1739, Note_on_c, 6, 86, 0
10, 1740, Note_on_c, 6, 85, 90
10, 1799, Note_on_c, 6, 85, 0
10, 1800, Note_on_c, 6, 83, 90
10, 1859, Note_on_c, 6, 83, 0
10, 1860, Note_on_c, 6, 81, 90
10, 1919, Note_on_c, 6, 81, 0
10, 1920, Note_on_c, 6, 80, 90
10, 1979, Note_on_c, 6, 80, 0
10, 1980, Note_on_c, 6, 81, 90
10, 2039, Note_on_c, 6, 81, 0
10, 2220, Note_on_c, 6, 79, 90
10, 2280, Note_on_c, 6, 79, 0
10, 2280, Note_on_c, 6, 78, 90
10, 2340, Note_on_c, 6, 78, 0
10, 2340, Note_on_c, 6, 76, 90
10, 2399, Note_on_c, 6, 76, 0
10, 2580, Note_on_c, 6, 76, 90
10, 2639, Note_on_c, 6, 76, 0
10, 2640, Note_on_c, 6, 74, 90
10, 2699, Note_on_c, 6, 74, 0
10, 2700, Note_on_c, 6, 73, 90
10, 2879, Note_on_c, 6, 73, 0
10, 4320, Note_on_c, 6, 78, 100
10, 4380, Note_on_c, 6, 78, 0
10, 4380, Note_on_c, 6, 74, 100
10, 4440, Note_on_c, 6, 74, 0
10, 4440, Note_on_c, 6, 76, 100
10, 4500, Note_on_c, 6, 76, 0
10, 4500, Note_on_c, 6, 78, 90
10, 4559, Note_on_c, 6, 78, 0
10, 4560, Note_on_c, 6, 81, 90
10, 4619, Note_on_c, 6, 81, 0
10, 4620, Note_on_c, 6, 78, 90
10, 4679, Note_on_c, 6, 78, 0
10, 4680, Note_on_c, 6, 79, 90
10, 4739, Note_on_c, 6, 79, 0
10, 4740, Note_on_c, 6, 74, 90
10, 4799, Note_on_c, 6, 74, 0
10, 4800, Note_on_c, 6, 79, 90
10, 4859, Note_on_c, 6, 79, 0
10, 4860, Note_on_c, 6, 78, 90
10, 4919, Note_on_c, 6, 78, 0
10, 4920, Note_on_c, 6, 81, 90
10, 4979, Note_on_c, 6, 81, 0
10, 4980, Note_on_c, 6, 78, 90
10, 5039, Note_on_c, 6, 78, 0
10, 5040, Note_on_c, 6, 74, 90
10, 5099, Note_on_c, 6, 74, 0
10, 5220, Note_on_c, 6, 73, 90
10, 5279, Note_on_c, 6, 73, 0
10, 5400, Note_on_c, 6, 79, 90
10, 5459, Note_on_c, 6, 79, 0
10, 5580, Note_on_c, 6, 78, 90
10, 5639, Note_on_c, 6, 78, 0
10, 5760, Note_on_c, 6, 78, 90
10, 5819, Note_on_c, 6, 78, 0
10, 5820, Note_on_c, 6, 78, 90
10, 5879, Note_on_c, 6, 78, 0
10, 5880, Note_on_c, 6, 78, 90
10, 5939, Note_on_c, 6, 78, 0
10, 5940, Note_on_c, 6, 78, 90
10, 5999, Note_on_c, 6, 78, 0
10, 6000, Note_on_c, 6, 74, 90
10, 6029, Note_on_c, 6, 74, 0
10, 6030, Note_on_c, 6, 76, 90
10, 6059, Note_on_c, 6, 76, 0
10, 6060, Note_on_c, 6, 78, 90
10, 6089, Note_on_c, 6, 78, 0
10, 6090, Note_on_c, 6, 79, 90
10, 6119, Note_on_c, 6, 79, 0
10, 6120, Note_on_c, 6, 81, 90
10, 6179, Note_on_c, 6, 81, 0
10, 6180, Note_on_c, 6, 79, 90
10, 6239, Note_on_c, 6, 79, 0
10, 6240, Note_on_c, 6, 78, 90
10, 6299, Note_on_c, 6, 78, 0
10, 6300, Note_on_c, 6, 79, 90
10, 6389, Note_on_c, 6, 79, 0
10, 6390, Note_on_c, 6, 81, 90
10, 6404, Note_on_c, 6, 81, 0
10, 6405, Note_on_c, 6, 83, 90
10, 6419, Note_on_c, 6, 83, 0
10, 6420, Note_on_c, 6, 81, 90
10, 6479, Note_on_c, 6, 81, 0
10, 6480, Note_on_c, 6, 79, 90
10, 6539, Note_on_c, 6, 79, 0
10, 6540, Note_on_c, 6, 79, 90
10, 6599, Note_on_c, 6, 79, 0
10, 6600, Note_on_c, 6, 79, 90
10, 6659, Note_on_c, 6, 79, 0
10, 6660, Note_on_c, 6, 79, 90
10, 6719, Note_on_c, 6, 79, 0
10, 6720, Note_on_c, 6, 76, 90
10, 6749, Note_on_c, 6, 76, 0
10, 6750, Note_on_c, 6, 74, 90
10, 6779, Note_on_c, 6, 74, 0
10, 6780, Note_on_c, 6, 76, 90
10, 6809, Note_on_c, 6, 76, 0
10, 6810, Note_on_c, 6, 78, 90
10, 6839, Note_on_c, 6, 78, 0
10, 6840, Note_on_c, 6, 79, 90
10, 6869, Note_on_c, 6, 79, 0
10, 6870, Note_on_c, 6, 78, 90
10, 6899, Note_on_c, 6, 78, 0
10, 6900, Note_on_c, 6, 81, 90
10, 6929, Note_on_c, 6, 81, 0
10, 6930, Note_on_c, 6, 79, 90
10, 6959, Note_on_c, 6, 79, 0
10, 6960, Note_on_c, 6, 78, 90
10, 6989, Note_on_c, 6, 78, 0
10, 6990, Note_on_c, 6, 76, 90
10, 7019, Note_on_c, 6, 76, 0
10, 7020, Note_on_c, 6, 78, 90
10, 7109, Note_on_c, 6, 78, 0
10, 7110, Note_on_c, 6, 79, 90
10, 7124, Note_on_c, 6, 79, 0
10, 7125, Note_on_c, 6, 81, 90
10, 7139, Note_on_c, 6, 81, 0
10, 7140, Note_on_c, 6, 79, 90
10, 7199, Note_on_c, 6, 79, 0
10, 7200, Note_on_c, 6, 78, 90
10, 7259, Note_on_c, 6, 78, 0
10, 7260, Note_on_c, 6, 80, 90
10, 7319, Note_on_c, 6, 80, 0
10, 7320, Note_on_c, 6, 81, 90
10, 7379, Note_on_c, 6, 81, 0
10, 7380, Note_on_c, 6, 83, 90
10, 7409, Note_on_c, 6, 83, 0
10, 7410, Note_on_c, 6, 85, 90
10, 7439, Note_on_c, 6, 85, 0
10, 7440, Note_on_c, 6, 86, 90
10, 7499, Note_on_c, 6, 86, 0
10, 7500, Note_on_c, 6, 85, 90
10, 7559, Note_on_c, 6, 85, 0
10, 7560, Note_on_c, 6, 83, 90
10, 7619, Note_on_c, 6, 83, 0
10, 7620, Note_on_c, 6, 81, 90
10, 7679, Note_on_c, 6, 81, 0
10, 7680, Note_on_c, 6, 80, 90
10, 7739, Note_on_c, 6, 80, 0
10, 7740, Note_on_c, 6, 81, 90
10, 7799, Note_on_c, 6, 81, 0
10, 7980, Note_on_c, 6, 79, 90
10, 8039, Note_on_c, 6, 79, 0
10, 8040, Note_on_c, 6, 78, 90
10, 8099, Note_on_c, 6, 78, 0
10, 8100, Note_on_c, 6, 76, 90
10, 8159, Note_on_c, 6, 76, 0
10, 8340, Note_on_c, 6, 76, 90
10, 8399, Note_on_c, 6, 76, 0
10, 8400, Note_on_c, 6, 74, 90
10, 8459, Note_on_c, 6, 74, 0
10, 8460, Note_on_c, 6, 73, 90
10, 8639, Note_on_c, 6, 73, 0
10, 8640, Note_on_c, 6, 73, 90
10, 8699, Note_on_c, 6, 73, 0
10, 8700, Note_on_c, 6, 73, 90
10, 8759, Note_on_c, 6, 73, 0
10, 8760, Note_on_c, 6, 73, 90
10, 8819, Note_on_c, 6, 73, 0
10, 8820, Note_on_c, 6, 73, 90
10, 8879, Note_on_c, 6, 73, 0
10, 8880, Note_on_c, 6, 76, 90
10, 8909, Note_on_c, 6, 76, 0
10, 8910, Note_on_c, 6, 74, 90
10, 8939, Note_on_c, 6, 74, 0
10, 8940, Note_on_c, 6, 73, 90
10, 8969, Note_on_c, 6, 73, 0
10, 8970, Note_on_c, 6, 71, 90
10, 8999, Note_on_c, 6, 71, 0
10, 9000, Note_on_c, 6, 69, 90
10, 9059, Note_on_c, 6, 69, 0
10, 9060, Note_on_c, 6, 74, 90
10, 9119, Note_on_c, 6, 74, 0
10, 9120, Note_on_c, 6, 76, 90
10, 9179, Note_on_c, 6, 76, 0
10, 9180, Note_on_c, 6, 78, 90
10, 9239, Note_on_c, 6, 78, 0
10, 9240, Note_on_c, 6, 76, 90
10, 9329, Note_on_c, 6, 76, 0
10, 9330, Note_on_c, 6, 78, 90
10, 9344, Note_on_c, 6, 78, 0
10, 9345, Note_on_c, 6, 79, 90
10, 9359, Note_on_c, 6, 79, 0
10, 9360, Note_on_c, 6, 78, 90
10, 9419, Note_on_c, 6, 78, 0
10, 9420, Note_on_c, 6, 78, 90
10, 9479, Note_on_c, 6, 78, 0
10, 9480, Note_on_c, 6, 78, 90
10, 9539, Note_on_c, 6, 78, 0
10, 9540, Note_on_c, 6, 78, 90
10, 9599, Note_on_c, 6, 78, 0
10, 9600, Note_on_c, 6, 81, 90
10, 9629, Note_on_c, 6, 81, 0
10, 9630, Note_on_c, 6, 79, 90
10, 9659, Note_on_c, 6, 79, 0
10, 9660, Note_on_c, 6, 78, 90
10, 9689, Note_on_c, 6, 78, 0
10, 9690, Note_on_c, 6, 76, 90
10, 9719, Note_on_c, 6, 76, 0
10, 9720, Note_on_c, 6, 74, 90
10, 9779, Note_on_c, 6, 74, 0
10, 9780, Note_on_c, 6, 79, 90
10, 9839, Note_on_c, 6, 79, 0
10, 9840, Note_on_c, 6, 81, 90
10, 9899, Note_on_c, 6, 81, 0
10, 9900, Note_on_c, 6, 83, 90
10, 9959, Note_on_c, 6, 83, 0
10, 9960, Note_on_c, 6, 81, 90
10, 10049, Note_on_c, 6, 81, 0
10, 10050, Note_on_c, 6, 83, 90
10, 10065, Note_on_c, 6, 83, 0
10, 10065, Note_on_c, 6, 84, 90
10, 10080, Note_on_c, 6, 84, 0
10, 10080, Note_on_c, 6, 83, 90
10, 10140, Note_on_c, 6, 83, 0
10, 10140, Note_on_c, 6, 81, 90
10, 10170, Note_on_c, 6, 81, 0
10, 10170, Note_on_c, 6, 79, 90
10, 10200, Note_on_c, 6, 79, 0
10, 10200, Note_on_c, 6, 78, 90
10, 10230, Note_on_c, 6, 78, 0
10, 10230, Note_on_c, 6, 76, 90
10, 10260, Note_on_c, 6, 76, 0
10, 10260, Note_on_c, 6, 81, 90
10, 10320, Note_on_c, 6, 81, 0
10, 10320, Note_on_c, 6, 74, 90
10, 10380, Note_on_c, 6, 74, 0
10, 10380, Note_on_c, 6, 79, 90
10, 10440, Note_on_c, 6, 79, 0
10, 10440, Note_on_c, 6, 78, 90
10, 10500, Note_on_c, 6, 78, 0
10, 10500, Note_on_c, 6, 79, 90
10, 10560, Note_on_c, 6, 79, 0
10, 10560, Note_on_c, 6, 76, 90
10, 10620, Note_on_c, 6, 76, 0
10, 10620, Note_on_c, 6, 74, 100
10, 10680, Note_on_c, 6, 74, 0
10, 10680, Note_on_c, 6, 72, 100
10, 10710, Note_on_c, 6, 72, 0
10, 10740, Note_on_c, 6, 71, 100
10, 10770, Note_on_c, 6, 71, 0
10, 10800, Note_on_c, 6, 69, 100
10, 10830, Note_on_c, 6, 69, 0
10, 10830, Note_on_c, 6, 67, 100
10, 10860, Note_on_c, 6, 67, 0
10, 10860, Note_on_c, 6, 66, 100
10, 10890, Note_on_c, 6, 66, 0
10, 10890, Note_on_c, 6, 64, 100
10, 10920, Note_on_c, 6, 64, 0
10, 10920, Note_on_c, 6, 66, 100
10, 10950, Note_on_c, 6, 66, 0
10, 10950, Note_on_c, 6, 67, 100
10, 10980, Note_on_c, 6, 67, 0
10, 10980, Note_on_c, 6, 69, 100
10, 11040, Note_on_c, 6, 69, 0
10, 11040, Note_on_c, 6, 72, 100
10, 11100, Note_on_c, 6, 72, 0
10, 11100, Note_on_c, 6, 71, 100
10, 11160, Note_on_c, 6, 71, 0
10, 11160, Note_on_c, 6, 69, 100
10, 11220, Note_on_c, 6, 69, 0
10, 11220, Note_on_c, 6, 67, 100
10, 11250, Note_on_c, 6, 67, 0
10, 11250, Note_on_c, 6, 66, 100
10, 11280, Note_on_c, 6, 66, 0
10, 11280, Note_on_c, 6, 67, 100
10, 11340, Note_on_c, 6, 67, 0
10, 11340, Note_on_c, 6, 69, 100
10, 11520, Note_on_c, 6, 69, 0
10, 12960, Note_on_c, 6, 73, 90
10, 13019, Note_on_c, 6, 73, 0
10, 13020, Note_on_c, 6, 69, 90
10, 13079, Note_on_c, 6, 69, 0
10, 13080, Note_on_c, 6, 71, 90
10, 13139, Note_on_c, 6, 71, 0
10, 13140, Note_on_c, 6, 73, 90
10, 13199, Note_on_c, 6, 73, 0
10, 13200, Note_on_c, 6, 76, 90
10, 13259, Note_on_c, 6, 76, 0
10, 13260, Note_on_c, 6, 74, 90
10, 13319, Note_on_c, 6, 74, 0
10, 13320, Note_on_c, 6, 76, 90
10, 13379, Note_on_c, 6, 76, 0
10, 13380, Note_on_c, 6, 78, 90
10, 13439, Note_on_c, 6, 78, 0
10, 13440, Note_on_c, 6, 79, 90
10, 13499, Note_on_c, 6, 79, 0
10, 13500, Note_on_c, 6, 78, 90
10, 13559, Note_on_c, 6, 78, 0
10, 13560, Note_on_c, 6, 81, 90
10, 13619, Note_on_c, 6, 81, 0
10, 13620, Note_on_c, 6, 73, 90
10, 13679, Note_on_c, 6, 73, 0
10, 13680, Note_on_c, 6, 74, 90
10, 13739, Note_on_c, 6, 74, 0
10, 13860, Note_on_c, 6, 74, 90
10, 13919, Note_on_c, 6, 74, 0
10, 14040, Note_on_c, 6, 68, 90
10, 14099, Note_on_c, 6, 68, 0
10, 14220, Note_on_c, 6, 69, 90
10, 14279, Note_on_c, 6, 69, 0
10, 14400, Note_on_c, 6, 73, 90
10, 14459, Note_on_c, 6, 73, 0
10, 14460, Note_on_c, 6, 73, 90
10, 14519, Note_on_c, 6, 73, 0
10, 14520, Note_on_c, 6, 73, 90
10, 14579, Note_on_c, 6, 73, 0
10, 14580, Note_on_c, 6, 73, 90
10, 14639, Note_on_c, 6, 73, 0
10, 14640, Note_on_c, 6, 76, 90
10, 14669, Note_on_c, 6, 76, 0
10, 14670, Note_on_c, 6, 74, 90
10, 14699, Note_on_c, 6, 74, 0
10, 14700, Note_on_c, 6, 73, 90
10, 14729, Note_on_c, 6, 73, 0
10, 14730, Note_on_c, 6, 71, 90
10, 14759, Note_on_c, 6, 71, 0
10, 14760, Note_on_c, 6, 69, 90
10, 14819, Note_on_c, 6, 69, 0
10, 14820, Note_on_c, 6, 74, 90
10, 14879, Note_on_c, 6, 74, 0
10, 14880, Note_on_c, 6, 76, 90
10, 14939, Note_on_c, 6, 76, 0
10, 14940, Note_on_c, 6, 78, 90
10, 14999, Note_on_c, 6, 78, 0
10, 15000, Note_on_c, 6, 76, 90
10, 15089, Note_on_c, 6, 76, 0
10, 15090, Note_on_c, 6, 78, 90
10, 15104, Note_on_c, 6, 78, 0
10, 15105, Note_on_c, 6, 79, 90
10, 15119, Note_on_c, 6, 79, 0
10, 15120, Note_on_c, 6, 78, 90
10, 15179, Note_on_c, 6, 78, 0
10, 15180, Note_on_c, 6, 78, 90
10, 15239, Note_on_c, 6, 78, 0
10, 15240, Note_on_c, 6, 78, 90
10, 15299, Note_on_c, 6, 78, 0
10, 15300, Note_on_c, 6, 78, 90
10, 15359, Note_on_c, 6, 78, 0
10, 15360, Note_on_c, 6, 81, 90
10, 15389, Note_on_c, 6, 81, 0
10, 15390, Note_on_c, 6, 79, 90
10, 15419, Note_on_c, 6, 79, 0
10, 15420, Note_on_c, 6, 78, 90
10, 15449, Note_on_c, 6, 78, 0
10, 15450, Note_on_c, 6, 76, 90
10, 15479, Note_on_c, 6, 76, 0
10, 15480, Note_on_c, 6, 74, 90
10, 15539, Note_on_c, 6, 74, 0
10, 15540, Note_on_c, 6, 79, 90
10, 15599, Note_on_c, 6, 79, 0
10, 15600, Note_on_c, 6, 81, 90
10, 15659, Note_on_c, 6, 81, 0
10, 15660, Note_on_c, 6, 83, 90
10, 15719, Note_on_c, 6, 83, 0
10, 15720, Note_on_c, 6, 81, 90
10, 15809, Note_on_c, 6, 81, 0
10, 15810, Note_on_c, 6, 83, 90
10, 15825, Note_on_c, 6, 83, 0
10, 15825, Note_on_c, 6, 84, 90
10, 15840, Note_on_c, 6, 84, 0
10, 15840, Note_on_c, 6, 83, 90
10, 15900, Note_on_c, 6, 83, 0
10, 15900, Note_on_c, 6, 81, 90
10, 15930, Note_on_c, 6, 81, 0
10, 15930, Note_on_c, 6, 79, 90
10, 15960, Note_on_c, 6, 79, 0
10, 15960, Note_on_c, 6, 78, 90
10, 15990, Note_on_c, 6, 78, 0
10, 15990, Note_on_c, 6, 76, 90
10, 16020, Note_on_c, 6, 76, 0
10, 16020, Note_on_c, 6, 81, 90
10, 16080, Note_on_c, 6, 81, 0
10, 16080, Note_on_c, 6, 74, 90
10, 16140, Note_on_c, 6, 74, 0
10, 16140, Note_on_c, 6, 79, 90
10, 16200, Note_on_c, 6, 79, 0
10, 16200, Note_on_c, 6, 78, 90
10, 16260, Note_on_c, 6, 78, 0
10, 16260, Note_on_c, 6, 79, 90
10, 16320, Note_on_c, 6, 79, 0
10, 16320, Note_on_c, 6, 76, 90
10, 16380, Note_on_c, 6, 76, 0
10, 16380, Note_on_c, 6, 74, 100
10, 16440, Note_on_c, 6, 74, 0
10, 16440, Note_on_c, 6, 72, 100
10, 16470, Note_on_c, 6, 72, 0
10, 16500, Note_on_c, 6, 71, 100
10, 16530, Note_on_c, 6, 71, 0
10, 16560, Note_on_c, 6, 69, 100
10, 16590, Note_on_c, 6, 69, 0
10, 16590, Note_on_c, 6, 67, 100
10, 16620, Note_on_c, 6, 67, 0
10, 16620, Note_on_c, 6, 66, 100
10, 16650, Note_on_c, 6, 66, 0
10, 16650, Note_on_c, 6, 64, 100
10, 16680, Note_on_c, 6, 64, 0
10, 16680, Note_on_c, 6, 66, 100
10, 16710, Note_on_c, 6, 66, 0
10, 16710, Note_on_c, 6, 67, 100
10, 16740, Note_on_c, 6, 67, 0
10, 16740, Note_on_c, 6, 69, 90
10, 16800, Note_on_c, 6, 69, 0
10, 16800, Note_on_c, 6, 72, 90
10, 16860, Note_on_c, 6, 72, 0
10, 16860, Note_on_c, 6, 71, 90
10, 16920, Note_on_c, 6, 71, 0
10, 16920, Note_on_c, 6, 69, 90
10, 16980, Note_on_c, 6, 69, 0
10, 16980, Note_on_c, 6, 67, 100
10, 17010, Note_on_c, 6, 67, 0
10, 17010, Note_on_c, 6, 66, 100
10, 17040, Note_on_c, 6, 66, 0
10, 17040, Note_on_c, 6, 67, 90
10, 17100, Note_on_c, 6, 67, 0
10, 17100, Note_on_c, 6, 69, 90
10, 17280, Note_on_c, 6, 69, 0
10, 18900, Note_on_c, 6, 81, 90
10, 18959, Note_on_c, 6, 81, 0
10, 18960, Note_on_c, 6, 80, 90
10, 18989, Note_on_c, 6, 80, 0
10, 18990, Note_on_c, 6, 78, 90
10, 19019, Note_on_c, 6, 78, 0
10, 19020, Note_on_c, 6, 76, 90
10, 19049, Note_on_c, 6, 76, 0
10, 19050, Note_on_c, 6, 74, 90
10, 19079, Note_on_c, 6, 74, 0
10, 19080, Note_on_c, 6, 73, 90
10, 19109, Note_on_c, 6, 73, 0
10, 19110, Note_on_c, 6, 71, 90
10, 19139, Note_on_c, 6, 71, 0
10, 19140, Note_on_c, 6, 69, 90
10, 19169, Note_on_c, 6, 69, 0
10, 19170, Note_on_c, 6, 76, 90
10, 19199, Note_on_c, 6, 76, 0
10, 19200, Note_on_c, 6, 74, 90
10, 19229, Note_on_c, 6, 74, 0
10, 19230, Note_on_c, 6, 73, 90
10, 19259, Note_on_c, 6, 73, 0
10, 19260, Note_on_c, 6, 71, 90
10, 19289, Note_on_c, 6, 71, 0
10, 19290, Note_on_c, 6, 74, 90
10, 19319, Note_on_c, 6, 74, 0
10, 19320, Note_on_c, 6, 73, 90
10, 19349, Note_on_c, 6, 73, 0
10, 19350, Note_on_c, 6, 71, 90
10, 19379, Note_on_c, 6, 71, 0
10, 19380, Note_on_c, 6, 73, 90
10, 19409, Note_on_c, 6, 73, 0
10, 19410, Note_on_c, 6, 69, 90
10, 19439, Note_on_c, 6, 69, 0
10, 19440, Note_on_c, 6, 71, 90
10, 19469, Note_on_c, 6, 71, 0
10, 19470, Note_on_c, 6, 73, 90
10, 19499, Note_on_c, 6, 73, 0
10, 19500, Note_on_c, 6, 74, 90
10, 19529, Note_on_c, 6, 74, 0
10, 19530, Note_on_c, 6, 76, 90
10, 19559, Note_on_c, 6, 76, 0
10, 19560, Note_on_c, 6, 78, 90
10, 19589, Note_on_c, 6, 78, 0
10, 19590, Note_on_c, 6, 79, 90
10, 19619, Note_on_c, 6, 79, 0
10, 19620, Note_on_c, 6, 81, 90
10, 19649, Note_on_c, 6, 81, 0
10, 19650, Note_on_c, 6, 79, 90
10, 19679, Note_on_c, 6, 79, 0
10, 19680, Note_on_c, 6, 78, 90
10, 19709, Note_on_c, 6, 78, 0
10, 19710, Note_on_c, 6, 76, 90
10, 19739, Note_on_c, 6, 76, 0
10, 19740, Note_on_c, 6, 74, 90
10, 19769, Note_on_c, 6, 74, 0
10, 19770, Note_on_c, 6, 73, 90
10, 19799, Note_on_c, 6, 73, 0
10, 19800, Note_on_c, 6, 71, 90
10, 19829, Note_on_c, 6, 71, 0
10, 19830, Note_on_c, 6, 69, 90
10, 19859, Note_on_c, 6, 69, 0
10, 19860, Note_on_c, 6, 68, 90
10, 19889, Note_on_c, 6, 68, 0
10, 19890, Note_on_c, 6, 66, 90
10, 19919, Note_on_c, 6, 66, 0
10, 19920, Note_on_c, 6, 64, 90
10, 19949, Note_on_c, 6, 64, 0
10, 19950, Note_on_c, 6, 62, 90
10, 19979, Note_on_c, 6, 62, 0
10, 19980, Note_on_c, 6, 69, 90
10, 20009, Note_on_c, 6, 69, 0
10, 20010, Note_on_c, 6, 64, 90
10, 20039, Note_on_c, 6, 64, 0
10, 20040, Note_on_c, 6, 66, 90
10, 20069, Note_on_c, 6, 66, 0
10, 20070, Note_on_c, 6, 68, 90
10, 20099, Note_on_c, 6, 68, 0
10, 20100, Note_on_c, 6, 69, 90
10, 20129, Note_on_c, 6, 69, 0
10, 20130, Note_on_c, 6, 71, 90
10, 20159, Note_on_c, 6, 71, 0
10, 20160, Note_on_c, 6, 73, 90
10, 20189, Note_on_c, 6, 73, 0
10, 20190, Note_on_c, 6, 74, 90
10, 20219, Note_on_c, 6, 74, 0
10, 20220, Note_on_c, 6, 76, 90
10, 20279, Note_on_c, 6, 76, 0
10, 20370, Note_on_c, 6, 73, 90
10, 20399, Note_on_c, 6, 73, 0
10, 20400, Note_on_c, 6, 74, 90
10, 20429, Note_on_c, 6, 74, 0
10, 20430, Note_on_c, 6, 76, 90
10, 20459, Note_on_c, 6, 76, 0
10, 20460, Note_on_c, 6, 78, 90
10, 20489, Note_on_c, 6, 78, 0
10, 20490, Note_on_c, 6, 76, 90
10, 20519, Note_on_c, 6, 76, 0
10, 20520, Note_on_c, 6, 78, 90
10, 20549, Note_on_c, 6, 78, 0
10, 20550, Note_on_c, 6, 80, 90
10, 20579, Note_on_c, 6, 80, 0
10, 20580, Note_on_c, 6, 81, 90
10, 20609, Note_on_c, 6, 81, 0
10, 20610, Note_on_c, 6, 80, 90
10, 20639, Note_on_c, 6, 80, 0
10, 20640, Note_on_c, 6, 81, 90
10, 20669, Note_on_c, 6, 81, 0
10, 20670, Note_on_c, 6, 83, 90
10, 20699, Note_on_c, 6, 83, 0
10, 20700, Note_on_c, 6, 85, 90
10, 20729, Note_on_c, 6, 85, 0
10, 20730, Note_on_c, 6, 83, 90
10, 20759, Note_on_c, 6, 83, 0
10, 20760, Note_on_c, 6, 81, 90
10, 20789, Note_on_c, 6, 81, 0
10, 20790, Note_on_c, 6, 80, 90
10, 20819, Note_on_c, 6, 80, 0
10, 20820, Note_on_c, 6, 78, 90
10, 20849, Note_on_c, 6, 78, 0
10, 20850, Note_on_c, 6, 76, 90
10, 20879, Note_on_c, 6, 76, 0
10, 20880, Note_on_c, 6, 74, 90
10, 20909, Note_on_c, 6, 74, 0
10, 20910, Note_on_c, 6, 73, 90
10, 20939, Note_on_c, 6, 73, 0
10, 20940, Note_on_c, 6, 71, 90
10, 20969, Note_on_c, 6, 71, 0
10, 20970, Note_on_c, 6, 69, 90
10, 20999, Note_on_c, 6, 69, 0
10, 21000, Note_on_c, 6, 68, 90
10, 21029, Note_on_c, 6, 68, 0
10, 21030, Note_on_c, 6, 66, 90
10, 21059, Note_on_c, 6, 66, 0
10, 21060, Note_on_c, 6, 64, 90
10, 21089, Note_on_c, 6, 64, 0
10, 21090, Note_on_c, 6, 62, 90
10, 21119, Note_on_c, 6, 62, 0
10, 21120, Note_on_c, 6, 64, 90
10, 21149, Note_on_c, 6, 64, 0
10, 21150, Note_on_c, 6, 66, 90
10, 21179, Note_on_c, 6, 66, 0
10, 21180, Note_on_c, 6, 68, 90
10, 21209, Note_on_c, 6, 68, 0
10, 21210, Note_on_c, 6, 66, 90
10, 21239, Note_on_c, 6, 66, 0
10, 21240, Note_on_c, 6, 68, 90
10, 21269, Note_on_c, 6, 68, 0
10, 21270, Note_on_c, 6, 69, 90
10, 21299, Note_on_c, 6, 69, 0
10, 21300, Note_on_c, 6, 71, 90
10, 21329, Note_on_c, 6, 71, 0
10, 21330, Note_on_c, 6, 73, 90
10, 21359, Note_on_c, 6, 73, 0
10, 21360, Note_on_c, 6, 74, 90
10, 21389, Note_on_c, 6, 74, 0
10, 21390, Note_on_c, 6, 71, 90
10, 21419, Note_on_c, 6, 71, 0
10, 21420, Note_on_c, 6, 73, 90
10, 21449, Note_on_c, 6, 73, 0
10, 21450, Note_on_c, 6, 81, 90
10, 21479, Note_on_c, 6, 81, 0
10, 21480, Note_on_c, 6, 80, 90
10, 21509, Note_on_c, 6, 80, 0
10, 21510, Note_on_c, 6, 78, 90
10, 21539, Note_on_c, 6, 78, 0
10, 21540, Note_on_c, 6, 76, 90
10, 21569, Note_on_c, 6, 76, 0
10, 21570, Note_on_c, 6, 78, 90
10, 21599, Note_on_c, 6, 78, 0
10, 21600, Note_on_c, 6, 76, 90
10, 21629, Note_on_c, 6, 76, 0
10, 21630, Note_on_c, 6, 74, 90
10, 21659, Note_on_c, 6, 74, 0
10, 21660, Note_on_c, 6, 73, 90
10, 21719, Note_on_c, 6, 73, 0
10, 21810, Note_on_c, 6, 86, 90
10, 21839, Note_on_c, 6, 86, 0
10, 21840, Note_on_c, 6, 85, 90
10, 21869, Note_on_c, 6, 85, 0
10, 21870, Note_on_c, 6, 83, 90
10, 21899, Note_on_c, 6, 83, 0
10, 21900, Note_on_c, 6, 82, 90
10, 21929, Note_on_c, 6, 82, 0
10, 21930, Note_on_c, 6, 83, 90
10, 21959, Note_on_c, 6, 83, 0
10, 21960, Note_on_c, 6, 82, 90
10, 21989, Note_on_c, 6, 82, 0
10, 21990, Note_on_c, 6, 80, 90
10, 22019, Note_on_c, 6, 80, 0
10, 22020, Note_on_c, 6, 78, 90
10, 22079, Note_on_c, 6, 78, 0
10, 22170, Note_on_c, 6, 70, 90
10, 22199, Note_on_c, 6, 70, 0
10, 22200, Note_on_c, 6, 71, 90
10, 22229, Note_on_c, 6, 71, 0
10, 22230, Note_on_c, 6, 73, 90
10, 22259, Note_on_c, 6, 73, 0
10, 22260, Note_on_c, 6, 74, 90
10, 22289, Note_on_c, 6, 74, 0
10, 22290, Note_on_c, 6, 73, 90
10, 22319, Note_on_c, 6, 73, 0
10, 22320, Note_on_c, 6, 74, 90
10, 22349, Note_on_c, 6, 74, 0
10, 22350, Note_on_c, 6, 76, 90
10, 22379, Note_on_c, 6, 76, 0
10, 22380, Note_on_c, 6, 78, 90
10, 22409, Note_on_c, 6, 78, 0
10, 22410, Note_on_c, 6, 74, 90
10, 22439, Note_on_c, 6, 74, 0
10, 22440, Note_on_c, 6, 76, 90
10, 22469, Note_on_c, 6, 76, 0
10, 22470, Note_on_c, 6, 78, 90
10, 22499, Note_on_c, 6, 78, 0
10, 22500, Note_on_c, 6, 80, 90
10, 22529, Note_on_c, 6, 80, 0
10, 22530, Note_on_c, 6, 75, 90
10, 22559, Note_on_c, 6, 75, 0
10, 22560, Note_on_c, 6, 76, 90
10, 22589, Note_on_c, 6, 76, 0
10, 22590, Note_on_c, 6, 78, 90
10, 22619, Note_on_c, 6, 78, 0
10, 22620, Note_on_c, 6, 80, 90
10, 22649, Note_on_c, 6, 80, 0
10, 22650, Note_on_c, 6, 78, 90
10, 22679, Note_on_c, 6, 78, 0
10, 22680, Note_on_c, 6, 80, 90
10, 22709, Note_on_c, 6, 80, 0
10, 22710, Note_on_c, 6, 81, 90
10, 22739, Note_on_c, 6, 81, 0
10, 22740, Note_on_c, 6, 83, 90
10, 22769, Note_on_c, 6, 83, 0
10, 22770, Note_on_c, 6, 80, 90
10, 22799, Note_on_c, 6, 80, 0
10, 22800, Note_on_c, 6, 81, 90
10, 22829, Note_on_c, 6, 81, 0
10, 22830, Note_on_c, 6, 83, 90
10, 22859, Note_on_c, 6, 83, 0
10, 22860, Note_on_c, 6, 76, 90
10, 22889, Note_on_c, 6, 76, 0
10, 22890, Note_on_c, 6, 74, 90
10, 22919, Note_on_c, 6, 74, 0
10, 22920, Note_on_c, 6, 76, 90
10, 22949, Note_on_c, 6, 76, 0
10, 22950, Note_on_c, 6, 78, 90
10, 22979, Note_on_c, 6, 78, 0
10, 22980, Note_on_c, 6, 76, 90
10, 23009, Note_on_c, 6, 76, 0
10, 23010, Note_on_c, 6, 81, 90
10, 23039, Note_on_c, 6, 81, 0
10, 23040, Note_on_c, 6, 80, 90
10, 23069, Note_on_c, 6, 80, 0
10, 23070, Note_on_c, 6, 81, 90
10, 23099, Note_on_c, 6, 81, 0
10, 23100, Note_on_c, 6, 73, 90
10, 23129, Note_on_c, 6, 73, 0
10, 23130, Note_on_c, 6, 81, 90
10, 23159, Note_on_c, 6, 81, 0
10, 23160, Note_on_c, 6, 80, 90
10, 23189, Note_on_c, 6, 80, 0
10, 23190, Note_on_c, 6, 81, 90
10, 23219, Note_on_c, 6, 81, 0
10, 23220, Note_on_c, 6, 71, 90
10, 23249, Note_on_c, 6, 71, 0
10, 23250, Note_on_c, 6, 69, 90
10, 23279, Note_on_c, 6, 69, 0
10, 23280, Note_on_c, 6, 71, 90
10, 23309, Note_on_c, 6, 71, 0
10, 23310, Note_on_c, 6, 73, 90
10, 23339, Note_on_c, 6, 73, 0
10, 23340, Note_on_c, 6, 69, 90
10, 23369, Note_on_c, 6, 69, 0
10, 23370, Note_on_c, 6, 76, 90
10, 23399, Note_on_c, 6, 76, 0
10, 23400, Note_on_c, 6, 74, 90
10, 23429, Note_on_c, 6, 74, 0
10, 23430, Note_on_c, 6, 76, 90
10, 23459, Note_on_c, 6, 76, 0
10, 23460, Note_on_c, 6, 64, 90
10, 23489, Note_on_c, 6, 64, 0
10, 23490, Note_on_c, 6, 76, 90
10, 23519, Note_on_c, 6, 76, 0
10, 23520, Note_on_c, 6, 74, 90
10, 23549, Note_on_c, 6, 74, 0
10, 23550, Note_on_c, 6, 76, 90
10, 23579, Note_on_c, 6, 76, 0
10, 23580, Note_on_c, 6, 69, 90
10, 23609, Note_on_c, 6, 69, 0
10, 23610, Note_on_c, 6, 68, 90
10, 23639, Note_on_c, 6, 68, 0
10, 23640, Note_on_c, 6, 69, 90
10, 23669, Note_on_c, 6, 69, 0
10, 23670, Note_on_c, 6, 71, 90
10, 23699, Note_on_c, 6, 71, 0
10, 23700, Note_on_c, 6, 69, 90
10, 23729, Note_on_c, 6, 69, 0
10, 23730, Note_on_c, 6, 78, 90
10, 23759, Note_on_c, 6, 78, 0
10, 23760, Note_on_c, 6, 76, 90
10, 23789, Note_on_c, 6, 76, 0
10, 23790, Note_on_c, 6, 78, 90
10, 23819, Note_on_c, 6, 78, 0
10, 23820, Note_on_c, 6, 75, 90
10, 23849, Note_on_c, 6, 75, 0
10, 23850, Note_on_c, 6, 69, 90
10, 23879, Note_on_c, 6, 69, 0
10, 23880, Note_on_c, 6, 68, 90
10, 23909, Note_on_c, 6, 68, 0
10, 23910, Note_on_c, 6, 66, 90
10, 23939, Note_on_c, 6, 66, 0
10, 23940, Note_on_c, 6, 68, 90
10, 23969, Note_on_c, 6, 68, 0
10, 23970, Note_on_c, 6, 71, 90
10, 23999, Note_on_c, 6, 71, 0
10, 24000, Note_on_c, 6, 76, 90
10, 24029, Note_on_c, 6, 76, 0
10, 24030, Note_on_c, 6, 78, 90
10, 24059, Note_on_c, 6, 78, 0
10, 24060, Note_on_c, 6, 80, 90
10, 24089, Note_on_c, 6, 80, 0
10, 24090, Note_on_c, 6, 81, 90
10, 24119, Note_on_c, 6, 81, 0
10, 24120, Note_on_c, 6, 83, 90
10, 24149, Note_on_c, 6, 83, 0
10, 24150, Note_on_c, 6, 80, 90
10, 24179, Note_on_c, 6, 80, 0
10, 24180, Note_on_c, 6, 76, 90
10, 24209, Note_on_c, 6, 76, 0
10, 24210, Note_on_c, 6, 78, 90
10, 24239, Note_on_c, 6, 78, 0
10, 24240, Note_on_c, 6, 80, 90
10, 24269, Note_on_c, 6, 80, 0
10, 24270, Note_on_c, 6, 76, 90
10, 24299, Note_on_c, 6, 76, 0
10, 24300, Note_on_c, 6, 73, 90
10, 24329, Note_on_c, 6, 73, 0
10, 24330, Note_on_c, 6, 78, 90
10, 24359, Note_on_c, 6, 78, 0
10, 24360, Note_on_c, 6, 79, 90
10, 24389, Note_on_c, 6, 79, 0
10, 24390, Note_on_c, 6, 78, 90
10, 24419, Note_on_c, 6, 78, 0
10, 24420, Note_on_c, 6, 76, 90
10, 24449, Note_on_c, 6, 76, 0
10, 24450, Note_on_c, 6, 74, 90
10, 24479, Note_on_c, 6, 74, 0
10, 24480, Note_on_c, 6, 73, 90
10, 24509, Note_on_c, 6, 73, 0
10, 24510, Note_on_c, 6, 71, 90
10, 24539, Note_on_c, 6, 71, 0
10, 24540, Note_on_c, 6, 70, 90
10, 24569, Note_on_c, 6, 70, 0
10, 24570, Note_on_c, 6, 71, 90
10, 24599, Note_on_c, 6, 71, 0
10, 24600, Note_on_c, 6, 73, 90
10, 24629, Note_on_c, 6, 73, 0
10, 24630, Note_on_c, 6, 70, 90
10, 24659, Note_on_c, 6, 70, 0
10, 24660, Note_on_c, 6, 66, 90
10, 24689, Note_on_c, 6, 66, 0
10, 24690, Note_on_c, 6, 70, 90
10, 24719, Note_on_c, 6, 70, 0
10, 24720, Note_on_c, 6, 71, 90
10, 24749, Note_on_c, 6, 71, 0
10, 24750, Note_on_c, 6, 73, 90
10, 24779, Note_on_c, 6, 73, 0
10, 24780, Note_on_c, 6, 74, 90
10, 24809, Note_on_c, 6, 74, 0
10, 24810, Note_on_c, 6, 76, 90
10, 24839, Note_on_c, 6, 76, 0
10, 24840, Note_on_c, 6, 78, 90
10, 24869, Note_on_c, 6, 78, 0
10, 24870, Note_on_c, 6, 74, 90
10, 24899, Note_on_c, 6, 74, 0
10, 24900, Note_on_c, 6, 71, 90
10, 24929, Note_on_c, 6, 71, 0
10, 24930, Note_on_c, 6, 73, 90
10, 24959, Note_on_c, 6, 73, 0
10, 24960, Note_on_c, 6, 74, 90
10, 24989, Note_on_c, 6, 74, 0
10, 24990, Note_on_c, 6, 71, 90
10, 25019, Note_on_c, 6, 71, 0
10, 25020, Note_on_c, 6, 68, 90
10, 25049, Note_on_c, 6, 68, 0
10, 25050, Note_on_c, 6, 73, 90
10, 25079, Note_on_c, 6, 73, 0
10, 25080, Note_on_c, 6, 74, 90
10, 25109, Note_on_c, 6, 74, 0
10, 25110, Note_on_c, 6, 73, 90
10, 25139, Note_on_c, 6, 73, 0
10, 25140, Note_on_c, 6, 71, 90
10, 25169, Note_on_c, 6, 71, 0
10, 25170, Note_on_c, 6, 69, 90
10, 25199, Note_on_c, 6, 69, 0
10, 25200, Note_on_c, 6, 68, 90
10, 25229, Note_on_c, 6, 68, 0
10, 25230, Note_on_c, 6, 66, 90
10, 25259, Note_on_c, 6, 66, 0
10, 25260, Note_on_c, 6, 65, 90
10, 25289, Note_on_c, 6, 65, 0
10, 25290, Note_on_c, 6, 66, 90
10, 25319, Note_on_c, 6, 66, 0
10, 25320, Note_on_c, 6, 68, 90
10, 25349, Note_on_c, 6, 68, 0
10, 25350, Note_on_c, 6, 65, 90
10, 25379, Note_on_c, 6, 65, 0
10, 25380, Note_on_c, 6, 69, 90
10, 25409, Note_on_c, 6, 69, 0
10, 25410, Note_on_c, 6, 86, 90
10, 25439, Note_on_c, 6, 86, 0
10, 25440, Note_on_c, 6, 85, 90
10, 25469, Note_on_c, 6, 85, 0
10, 25470, Note_on_c, 6, 83, 90
10, 25499, Note_on_c, 6, 83, 0
10, 25500, Note_on_c, 6, 81, 90
10, 25529, Note_on_c, 6, 81, 0
10, 25530, Note_on_c, 6, 83, 90
10, 25559, Note_on_c, 6, 83, 0
10, 25560, Note_on_c, 6, 85, 90
10, 25589, Note_on_c, 6, 85, 0
10, 25590, Note_on_c, 6, 81, 90
10, 25619, Note_on_c, 6, 81, 0
10, 25620, Note_on_c, 6, 78, 90
10, 25649, Note_on_c, 6, 78, 0
10, 25650, Note_on_c, 6, 80, 90
10, 25679, Note_on_c, 6, 80, 0
10, 25680, Note_on_c, 6, 81, 90
10, 25709, Note_on_c, 6, 81, 0
10, 25710, Note_on_c, 6, 78, 90
10, 25739, Note_on_c, 6, 78, 0
10, 25740, Note_on_c, 6, 75, 90
10, 25769, Note_on_c, 6, 75, 0
10, 25770, Note_on_c, 6, 80, 90
10, 25799, Note_on_c, 6, 80, 0
10, 25800, Note_on_c, 6, 81, 90
10, 25829, Note_on_c, 6, 81, 0
10, 25830, Note_on_c, 6, 80, 90
10, 25859, Note_on_c, 6, 80, 0
10, 25860, Note_on_c, 6, 78, 90
10, 25889, Note_on_c, 6, 78, 0
10, 25890, Note_on_c, 6, 76, 90
10, 25919, Note_on_c, 6, 76, 0
10, 25920, Note_on_c, 6, 75, 90
10, 25949, Note_on_c, 6, 75, 0
10, 25950, Note_on_c, 6, 73, 90
10, 25979, Note_on_c, 6, 73, 0
10, 25980, Note_on_c, 6, 72, 90
10, 26009, Note_on_c, 6, 72, 0
10, 26010, Note_on_c, 6, 75, 90
10, 26039, Note_on_c, 6, 75, 0
10, 26040, Note_on_c, 6, 68, 90
10, 26129, Note_on_c, 6, 68, 0
10, 26130, Note_on_c, 6, 78, 90
10, 26159, Note_on_c, 6, 78, 0
10, 26160, Note_on_c, 6, 76, 90
10, 26189, Note_on_c, 6, 76, 0
10, 26190, Note_on_c, 6, 75, 90
10, 26219, Note_on_c, 6, 75, 0
10, 26220, Note_on_c, 6, 73, 90
10, 26249, Note_on_c, 6, 73, 0
10, 26250, Note_on_c, 6, 81, 90
10, 26279, Note_on_c, 6, 81, 0
10, 26280, Note_on_c, 6, 80, 90
10, 26309, Note_on_c, 6, 80, 0
10, 26310, Note_on_c, 6, 78, 90
10, 26339, Note_on_c, 6, 78, 0
10, 26340, Note_on_c, 6, 76, 90
10, 26369, Note_on_c, 6, 76, 0
10, 26370, Note_on_c, 6, 80, 90
10, 26399, Note_on_c, 6, 80, 0
10, 26400, Note_on_c, 6, 73, 90
10, 26489, Note_on_c, 6, 73, 0
10, 26490, Note_on_c, 6, 76, 90
10, 26519, Note_on_c, 6, 76, 0
10, 26520, Note_on_c, 6, 75, 90
10, 26549, Note_on_c, 6, 75, 0
10, 26550, Note_on_c, 6, 73, 90
10, 26579, Note_on_c, 6, 73, 0
10, 26580, Note_on_c, 6, 71, 90
10, 26609, Note_on_c, 6, 71, 0
10, 26610, Note_on_c, 6, 80, 90
10, 26639, Note_on_c, 6, 80, 0
10, 26640, Note_on_c, 6, 78, 90
10, 26669, Note_on_c, 6, 78, 0
10, 26670, Note_on_c, 6, 76, 90
10, 26699, Note_on_c, 6, 76, 0
10, 26700, Note_on_c, 6, 75, 90
10, 26729, Note_on_c, 6, 75, 0
10, 26730, Note_on_c, 6, 78, 90
10, 26759, Note_on_c, 6, 78, 0
10, 26760, Note_on_c, 6, 71, 90
10, 26849, Note_on_c, 6, 71, 0
10, 26850, Note_on_c, 6, 68, 90
10, 26879, Note_on_c, 6, 68, 0
10, 26880, Note_on_c, 6, 73, 90
10, 26909, Note_on_c, 6, 73, 0
10, 26910, Note_on_c, 6, 76, 90
10, 26939, Note_on_c, 6, 76, 0
10, 26940, Note_on_c, 6, 81, 90
10, 26969, Note_on_c, 6, 81, 0
10, 26970, Note_on_c, 6, 83, 90
10, 26999, Note_on_c, 6, 83, 0
10, 27000, Note_on_c, 6, 81, 90
10, 27029, Note_on_c, 6, 81, 0
10, 27030, Note_on_c, 6, 80, 90
10, 27059, Note_on_c, 6, 80, 0
10, 27060, Note_on_c, 6, 78, 90
10, 27089, Note_on_c, 6, 78, 0
10, 27090, Note_on_c, 6, 80, 90
10, 27119, Note_on_c, 6, 80, 0
10, 27120, Note_on_c, 6, 78, 90
10, 27149, Note_on_c, 6, 78, 0
10, 27150, Note_on_c, 6, 76, 90
10, 27179, Note_on_c, 6, 76, 0
10, 27180, Note_on_c, 6, 75, 90
10, 27209, Note_on_c, 6, 75, 0
10, 27210, Note_on_c, 6, 68, 90
10, 27239, Note_on_c, 6, 68, 0
10, 27240, Note_on_c, 6, 72, 90
10, 27269, Note_on_c, 6, 72, 0
10, 27270, Note_on_c, 6, 75, 90
10, 27299, Note_on_c, 6, 75, 0
10, 27300, Note_on_c, 6, 80, 90
10, 27329, Note_on_c, 6, 80, 0
10, 27330, Note_on_c, 6, 81, 90
10, 27359, Note_on_c, 6, 81, 0
10, 27360, Note_on_c, 6, 80, 90
10, 27389, Note_on_c, 6, 80, 0
10, 27390, Note_on_c, 6, 78, 90
10, 27419, Note_on_c, 6, 78, 0
10, 27420, Note_on_c, 6, 76, 90
10, 27449, Note_on_c, 6, 76, 0
10, 27450, Note_on_c, 6, 78, 90
10, 27479, Note_on_c, 6, 78, 0
10, 27480, Note_on_c, 6, 76, 90
10, 27509, Note_on_c, 6, 76, 0
10, 27510, Note_on_c, 6, 74, 90
10, 27539, Note_on_c, 6, 74, 0
10, 27540, Note_on_c, 6, 73, 90
10, 27569, Note_on_c, 6, 73, 0
10, 27570, Note_on_c, 6, 76, 90
10, 27599, Note_on_c, 6, 76, 0
10, 27600, Note_on_c, 6, 78, 90
10, 27629, Note_on_c, 6, 78, 0
10, 27630, Note_on_c, 6, 80, 90
10, 27659, Note_on_c, 6, 80, 0
10, 27660, Note_on_c, 6, 81, 90
10, 27689, Note_on_c, 6, 81, 0
10, 27690, Note_on_c, 6, 83, 90
10, 27719, Note_on_c, 6, 83, 0
10, 27720, Note_on_c, 6, 85, 90
10, 27749, Note_on_c, 6, 85, 0
10, 27750, Note_on_c, 6, 83, 90
10, 27779, Note_on_c, 6, 83, 0
10, 27780, Note_on_c, 6, 81, 90
10, 27809, Note_on_c, 6, 81, 0
10, 27810, Note_on_c, 6, 85, 90
10, 27839, Note_on_c, 6, 85, 0
10, 27840, Note_on_c, 6, 81, 90
10, 27869, Note_on_c, 6, 81, 0
10, 27870, Note_on_c, 6, 78, 90
10, 27899, Note_on_c, 6, 78, 0
10, 27900, Note_on_c, 6, 87, 90
10, 27929, Note_on_c, 6, 87, 0
10, 27930, Note_on_c, 6, 85, 90
10, 27959, Note_on_c, 6, 85, 0
10, 27960, Note_on_c, 6, 84, 90
10, 27989, Note_on_c, 6, 84, 0
10, 27990, Note_on_c, 6, 82, 90
10, 28019, Note_on_c, 6, 82, 0
10, 28020, Note_on_c, 6, 80, 90
10, 28049, Note_on_c, 6, 80, 0
10, 28050, Note_on_c, 6, 73, 90
10, 28079, Note_on_c, 6, 73, 0
10, 28080, Note_on_c, 6, 76, 90
10, 28109, Note_on_c, 6, 76, 0
10, 28110, Note_on_c, 6, 80, 90
10, 28139, Note_on_c, 6, 80, 0
10, 28140, Note_on_c, 6, 85, 90
10, 28169, Note_on_c, 6, 85, 0
10, 28170, Note_on_c, 6, 83, 90
10, 28199, Note_on_c, 6, 83, 0
10, 28200, Note_on_c, 6, 81, 90
10, 28229, Note_on_c, 6, 81, 0
10, 28230, Note_on_c, 6, 80, 90
10, 28259, Note_on_c, 6, 80, 0
10, 28260, Note_on_c, 6, 78, 90
10, 28289, Note_on_c, 6, 78, 0
10, 28290, Note_on_c, 6, 80, 90
10, 28319, Note_on_c, 6, 80, 0
10, 28320, Note_on_c, 6, 81, 90
10, 28379, Note_on_c, 6, 81, 0
10, 28410, Note_on_c, 6, 80, 90
10, 28439, Note_on_c, 6, 80, 0
10, 28440, Note_on_c, 6, 78, 90
10, 28469, Note_on_c, 6, 78, 0
10, 28470, Note_on_c, 6, 76, 90
10, 28499, Note_on_c, 6, 76, 0
10, 28500, Note_on_c, 6, 78, 90
10, 28529, Note_on_c, 6, 78, 0
10, 28530, Note_on_c, 6, 75, 90
10, 28559, Note_on_c, 6, 75, 0
10, 28560, Note_on_c, 6, 72, 90
10, 28589, Note_on_c, 6, 72, 0
10, 28590, Note_on_c, 6, 68, 90
10, 28619, Note_on_c, 6, 68, 0
10, 28620, Note_on_c, 6, 76, 90
10, 28739, Note_on_c, 6, 76, 0
10, 32460, Note_on_c, 6, 69, 90
10, 32579, Note_on_c, 6, 69, 0
10, 32580, Note_on_c, 6, 69, 90
10, 32699, Note_on_c, 6, 69, 0
10, 32700, Note_on_c, 6, 69, 90
10, 32819, Note_on_c, 6, 69, 0
10, 32820, Note_on_c, 6, 71, 90
10, 32939, Note_on_c, 6, 71, 0
10, 32940, Note_on_c, 6, 69, 90
10, 33059, Note_on_c, 6, 69, 0
10, 33060, Note_on_c, 6, 74, 90
10, 33179, Note_on_c, 6, 74, 0
10, 33180, Note_on_c, 6, 76, 90
10, 33299, Note_on_c, 6, 76, 0
10, 33300, Note_on_c, 6, 74, 90
10, 33539, Note_on_c, 6, 74, 0
10, 33540, Note_on_c, 6, 73, 90
10, 33599, Note_on_c, 6, 73, 0
10, 33600, Note_on_c, 6, 74, 90
10, 33659, Note_on_c, 6, 74, 0
10, 33660, Note_on_c, 6, 76, 90
10, 33779, Note_on_c, 6, 76, 0
10, 33780, Note_on_c, 6, 78, 90
10, 33899, Note_on_c, 6, 78, 0
10, 33900, Note_on_c, 6, 76, 90
10, 33959, Note_on_c, 6, 76, 0
10, 33960, Note_on_c, 6, 74, 90
10, 34019, Note_on_c, 6, 74, 0
10, 34020, Note_on_c, 6, 73, 90
10, 34139, Note_on_c, 6, 73, 0
10, 34140, Note_on_c, 6, 71, 90
10, 34259, Note_on_c, 6, 71, 0
10, 34260, Note_on_c, 6, 69, 90
10, 34379, Note_on_c, 6, 69, 0
10, 34380, Note_on_c, 6, 69, 90
10, 34499, Note_on_c, 6, 69, 0
10, 34500, Note_on_c, 6, 74, 90
10, 34619, Note_on_c, 6, 74, 0
10, 34620, Note_on_c, 6, 73, 90
10, 34679, Note_on_c, 6, 73, 0
10, 34680, Note_on_c, 6, 74, 90
10, 34739, Note_on_c, 6, 74, 0
10, 34740, Note_on_c, 6, 76, 90
10, 34859, Note_on_c, 6, 76, 0
10, 34860, Note_on_c, 6, 71, 90
10, 34979, Note_on_c, 6, 71, 0
10, 34980, Note_on_c, 6, 69, 90
10, 35039, Note_on_c, 6, 69, 0
10, 35040, Note_on_c, 6, 68, 90
10, 35099, Note_on_c, 6, 68, 0
10, 35100, Note_on_c, 6, 66, 90
10, 35219, Note_on_c, 6, 66, 0
10, 35220, Note_on_c, 6, 64, 90
10, 35339, Note_on_c, 6, 64, 0
10, 35340, Note_on_c, 6, 64, 90
10, 35459, Note_on_c, 6, 64, 0
10, 35460, Note_on_c, 6, 71, 90
10, 35579, Note_on_c, 6, 71, 0
10, 35580, Note_on_c, 6, 71, 90
10, 35699, Note_on_c, 6, 71, 0
10, 35700, Note_on_c, 6, 71, 90
10, 35819, Note_on_c, 6, 71, 0
10, 35820, Note_on_c, 6, 73, 90
10, 35939, Note_on_c, 6, 73, 0
10, 35940, Note_on_c, 6, 74, 90
10, 35999, Note_on_c, 6, 74, 0
10, 36000, Note_on_c, 6, 73, 90
10, 36059, Note_on_c, 6, 73, 0
10, 36060, Note_on_c, 6, 71, 90
10, 36179, Note_on_c, 6, 71, 0
10, 36180, Note_on_c, 6, 69, 90
10, 36239, Note_on_c, 6, 69, 0
10, 36240, Note_on_c, 6, 71, 90
10, 36299, Note_on_c, 6, 71, 0
10, 36300, Note_on_c, 6, 73, 90
10, 36419, Note_on_c, 6, 73, 0
10, 36420, Note_on_c, 6, 71, 90
10, 36659, Note_on_c, 6, 71, 0
10, 36660, Note_on_c, 6, 69, 90
10, 36779, Note_on_c, 6, 69, 0
10, 36780, Note_on_c, 6, 69, 90
10, 36899, Note_on_c, 6, 69, 0
10, 36900, Note_on_c, 6, 69, 90
10, 37259, Note_on_c, 6, 69, 0
10, 94980, Control_c, 6, 0, 0
10, 94980, Program_c, 6, 40
10, 94980, Note_on_c, 6, 66, 90
10, 95039, Note_on_c, 6, 66, 0
10, 95040, Note_on_c, 6, 67, 90
10, 95159, Note_on_c, 6, 67, 0
10, 95160, Note_on_c, 6, 66, 90
10, 95189, Note_on_c, 6, 66, 0
10, 95190, Note_on_c, 6, 64, 90
10, 95219, Note_on_c, 6, 64, 0
10, 95220, Note_on_c, 6, 66, 90
10, 95265, Note_on_c, 6, 66, 0
10, 95280, Note_on_c, 6, 62, 90
10, 95325, Note_on_c, 6, 62, 0
10, 95340, Note_on_c, 6, 59, 90
10, 95385, Note_on_c, 6, 59, 0
10, 95400, Note_on_c, 6, 71, 90
10, 95429, Note_on_c, 6, 71, 0
10, 95460, Note_on_c, 6, 70, 90
10, 95519, Note_on_c, 6, 70, 0
10, 95520, Note_on_c, 6, 71, 90
10, 95639, Note_on_c, 6, 71, 0
10, 95640, Note_on_c, 6, 73, 90
10, 95669, Note_on_c, 6, 73, 0
10, 95670, Note_on_c, 6, 74, 90
10, 95699, Note_on_c, 6, 74, 0
10, 95700, Note_on_c, 6, 73, 90
10, 95729, Note_on_c, 6, 73, 0
10, 95730, Note_on_c, 6, 71, 90
10, 95759, Note_on_c, 6, 71, 0
10, 95760, Note_on_c, 6, 70, 90
10, 95789, Note_on_c, 6, 70, 0
10, 95790, Note_on_c, 6, 68, 90
10, 95819, Note_on_c, 6, 68, 0
10, 95820, Note_on_c, 6, 66, 90
10, 95879, Note_on_c, 6, 66, 0
10, 95880, Note_on_c, 6, 69, 90
10, 95999, Note_on_c, 6, 69, 0
10, 96000, Note_on_c, 6, 71, 90
10, 96029, Note_on_c, 6, 71, 0
10, 96030, Note_on_c, 6, 72, 90
10, 96059, Note_on_c, 6, 72, 0
10, 96060, Note_on_c, 6, 71, 90
10, 96119, Note_on_c, 6, 71, 0
10, 96120, Note_on_c, 6, 69, 90
10, 96149, Note_on_c, 6, 69, 0
10, 96180, Note_on_c, 6, 75, 90
10, 96239, Note_on_c, 6, 75, 0
10, 96240, Note_on_c, 6, 76, 90
10, 96299, Note_on_c, 6, 76, 0
10, 96300, Note_on_c, 6, 64, 90
10, 96329, Note_on_c, 6, 64, 0
10, 96360, Note_on_c, 6, 66, 90
10, 96389, Note_on_c, 6, 66, 0
10, 96420, Note_on_c, 6, 67, 90
10, 96449, Note_on_c, 6, 67, 0
10, 96480, Note_on_c, 6, 69, 90
10, 96509, Note_on_c, 6, 69, 0
10, 96510, Note_on_c, 6, 67, 90
10, 96539, Note_on_c, 6, 67, 0
10, 96540, Note_on_c, 6, 66, 90
10, 96599, Note_on_c, 6, 66, 0
10, 96600, Note_on_c, 6, 64, 90
10, 96629, Note_on_c, 6, 64, 0
10, 96660, Note_on_c, 6, 73, 90
10, 96779, Note_on_c, 6, 73, 0
10, 96780, Note_on_c, 6, 74, 90
10, 96839, Note_on_c, 6, 74, 0
10, 96840, Note_on_c, 6, 68, 90
10, 96959, Note_on_c, 6, 68, 0
10, 96960, Note_on_c, 6, 69, 90
10, 96989, Note_on_c, 6, 69, 0
10, 96990, Note_on_c, 6, 71, 90
10, 97019, Note_on_c, 6, 71, 0
10, 97020, Note_on_c, 6, 69, 90
10, 97079, Note_on_c, 6, 69, 0
10, 97080, Note_on_c, 6, 68, 90
10, 97110, Note_on_c, 6, 68, 0
10, 97140, Note_on_c, 6, 69, 90
10, 97170, Note_on_c, 6, 69, 0
10, 97200, Note_on_c, 6, 62, 90
10, 97259, Note_on_c, 6, 62, 0
10, 97260, Note_on_c, 6, 61, 90
10, 97319, Note_on_c, 6, 61, 0
10, 97320, Note_on_c, 6, 67, 90
10, 97350, Note_on_c, 6, 67, 0
10, 97380, Note_on_c, 6, 66, 90
10, 97410, Note_on_c, 6, 66, 0
10, 97440, Note_on_c, 6, 69, 90
10, 97469, Note_on_c, 6, 69, 0
10, 97470, Note_on_c, 6, 67, 90
10, 97499, Note_on_c, 6, 67, 0
10, 97500, Note_on_c, 6, 66, 90
10, 97559, Note_on_c, 6, 66, 0
10, 97560, Note_on_c, 6, 64, 90
10, 97619, Note_on_c, 6, 64, 0
10, 97620, Note_on_c, 6, 64, 90
10, 97679, Note_on_c, 6, 64, 0
10, 97680, Note_on_c, 6, 62, 90
10, 97739, Note_on_c, 6, 62, 0
10, 97860, Note_on_c, 6, 62, 90
10, 97889, Note_on_c, 6, 62, 0
10, 97890, Note_on_c, 6, 69, 90
10, 97919, Note_on_c, 6, 69, 0
10, 97920, Note_on_c, 6, 78, 90
10, 98039, Note_on_c, 6, 78, 0
10, 98040, Note_on_c, 6, 76, 90
10, 98069, Note_on_c, 6, 76, 0
10, 98070, Note_on_c, 6, 74, 90
10, 98099, Note_on_c, 6, 74, 0
10, 98100, Note_on_c, 6, 76, 90
10, 98129, Note_on_c, 6, 76, 0
10, 98130, Note_on_c, 6, 74, 90
10, 98159, Note_on_c, 6, 74, 0
10, 98160, Note_on_c, 6, 73, 90
10, 98189, Note_on_c, 6, 73, 0
10, 98190, Note_on_c, 6, 71, 90
10, 98219, Note_on_c, 6, 71, 0
10, 98220, Note_on_c, 6, 69, 90
10, 98279, Note_on_c, 6, 69, 0
10, 98280, Note_on_c, 6, 67, 90
10, 98339, Note_on_c, 6, 67, 0
10, 98340, Note_on_c, 6, 58, 90
10, 98369, Note_on_c, 6, 58, 0
10, 98370, Note_on_c, 6, 66, 90
10, 98399, Note_on_c, 6, 66, 0
10, 98400, Note_on_c, 6, 76, 90
10, 98519, Note_on_c, 6, 76, 0
10, 98520, Note_on_c, 6, 74, 90
10, 98549, Note_on_c, 6, 74, 0
10, 98550, Note_on_c, 6, 73, 90
10, 98579, Note_on_c, 6, 73, 0
10, 98580, Note_on_c, 6, 74, 90
10, 98609, Note_on_c, 6, 74, 0
10, 98610, Note_on_c, 6, 73, 90
10, 98639, Note_on_c, 6, 73, 0
10, 98640, Note_on_c, 6, 71, 90
10, 98729, Note_on_c, 6, 71, 0
10, 98730, Note_on_c, 6, 69, 90
10, 98759, Note_on_c, 6, 69, 0
10, 98760, Note_on_c, 6, 67, 90
10, 98789, Note_on_c, 6, 67, 0
10, 98790, Note_on_c, 6, 66, 90
10, 98819, Note_on_c, 6, 66, 0
10, 98820, Note_on_c, 6, 67, 90
10, 98835, Note_on_c, 6, 67, 0
10, 98850, Note_on_c, 6, 76, 90
10, 98879, Note_on_c, 6, 76, 0
10, 98880, Note_on_c, 6, 74, 90
10, 98909, Note_on_c, 6, 74, 0
10, 98910, Note_on_c, 6, 73, 90
10, 98939, Note_on_c, 6, 73, 0
10, 98940, Note_on_c, 6, 74, 90
10, 98969, Note_on_c, 6, 74, 0
10, 98970, Note_on_c, 6, 71, 90
10, 98999, Note_on_c, 6, 71, 0
10, 99000, Note_on_c, 6, 67, 90
10, 99029, Note_on_c, 6, 67, 0
10, 99030, Note_on_c, 6, 66, 90
10, 99045, Note_on_c, 6, 66, 0
10, 99060, Note_on_c, 6, 64, 90
10, 99075, Note_on_c, 6, 64, 0
10, 99090, Note_on_c, 6, 73, 90
10, 99119, Note_on_c, 6, 73, 0
10, 99120, Note_on_c, 6, 71, 90
10, 99149, Note_on_c, 6, 71, 0
10, 99150, Note_on_c, 6, 70, 90
10, 99179, Note_on_c, 6, 70, 0
10, 99180, Note_on_c, 6, 71, 90
10, 99209, Note_on_c, 6, 71, 0
10, 99210, Note_on_c, 6, 67, 90
10, 99239, Note_on_c, 6, 67, 0
10, 99240, Note_on_c, 6, 64, 90
10, 99269, Note_on_c, 6, 64, 0
10, 99270, Note_on_c, 6, 62, 90
10, 99285, Note_on_c, 6, 62, 0
10, 99300, Note_on_c, 6, 61, 90
10, 99315, Note_on_c, 6, 61, 0
10, 99330, Note_on_c, 6, 64, 90
10, 99359, Note_on_c, 6, 64, 0
10, 99360, Note_on_c, 6, 66, 90
10, 99389, Note_on_c, 6, 66, 0
10, 99390, Note_on_c, 6, 67, 90
10, 99419, Note_on_c, 6, 67, 0
10, 99420, Note_on_c, 6, 59, 90
10, 99435, Note_on_c, 6, 59, 0
10, 99450, Note_on_c, 6, 64, 90
10, 99479, Note_on_c, 6, 64, 0
10, 99480, Note_on_c, 6, 66, 90
10, 99509, Note_on_c, 6, 66, 0
10, 99510, Note_on_c, 6, 67, 90
10, 99539, Note_on_c, 6, 67, 0
10, 99540, Note_on_c, 6, 58, 90
10, 99569, Note_on_c, 6, 58, 0
10, 99570, Note_on_c, 6, 61, 90
10, 99599, Note_on_c, 6, 61, 0
10, 99600, Note_on_c, 6, 64, 90
10, 99629, Note_on_c, 6, 64, 0
10, 99630, Note_on_c, 6, 67, 90
10, 99645, Note_on_c, 6, 67, 0
10, 99660, Note_on_c, 6, 73, 90
10, 99675, Note_on_c, 6, 73, 0
10, 99690, Note_on_c, 6, 67, 90
10, 99719, Note_on_c, 6, 67, 0
10, 99720, Note_on_c, 6, 66, 90
10, 99749, Note_on_c, 6, 66, 0
10, 99750, Note_on_c, 6, 64, 90
10, 99779, Note_on_c, 6, 64, 0
10, 99780, Note_on_c, 6, 63, 90
10, 99809, Note_on_c, 6, 63, 0
10, 99810, Note_on_c, 6, 66, 90
10, 99839, Note_on_c, 6, 66, 0
10, 99840, Note_on_c, 6, 69, 90
10, 99869, Note_on_c, 6, 69, 0
10, 99870, Note_on_c, 6, 72, 90
10, 99885, Note_on_c, 6, 72, 0
10, 99900, Note_on_c, 6, 78, 90
10, 99915, Note_on_c, 6, 78, 0
10, 99930, Note_on_c, 6, 72, 90
10, 99959, Note_on_c, 6, 72, 0
10, 99960, Note_on_c, 6, 71, 90
10, 99989, Note_on_c, 6, 71, 0
10, 99990, Note_on_c, 6, 69, 90
10, 100019, Note_on_c, 6, 69, 0
10, 100020, Note_on_c, 6, 68, 90
10, 100049, Note_on_c, 6, 68, 0
10, 100050, Note_on_c, 6, 71, 90
10, 100079, Note_on_c, 6, 71, 0
10, 100080, Note_on_c, 6, 74, 90
10, 100109, Note_on_c, 6, 74, 0
10, 100110, Note_on_c, 6, 77, 90
10, 100139, Note_on_c, 6, 77, 0
10, 100140, Note_on_c, 6, 83, 90
10, 100319, Note_on_c, 6, 83, 0
10, 100320, Note_on_c, 6, 81, 90
10, 100349, Note_on_c, 6, 81, 0
10, 100350, Note_on_c, 6, 79, 90
10, 100379, Note_on_c, 6, 79, 0
10, 100380, Note_on_c, 6, 78, 90
10, 100409, Note_on_c, 6, 78, 0
10, 100410, Note_on_c, 6, 76, 90
10, 100439, Note_on_c, 6, 76, 0
10, 100440, Note_on_c, 6, 74, 90
10, 100469, Note_on_c, 6, 74, 0
10, 100470, Note_on_c, 6, 73, 90
10, 100499, Note_on_c, 6, 73, 0
10, 100500, Note_on_c, 6, 71, 90
10, 100559, Note_on_c, 6, 71, 0
10, 100560, Note_on_c, 6, 69, 90
10, 100589, Note_on_c, 6, 69, 0
10, 100590, Note_on_c, 6, 67, 90
10, 100619, Note_on_c, 6, 67, 0
10, 100620, Note_on_c, 6, 66, 90
10, 100649, Note_on_c, 6, 66, 0
10, 100650, Note_on_c, 6, 64, 90
10, 100679, Note_on_c, 6, 64, 0
10, 100680, Note_on_c, 6, 62, 90
10, 100709, Note_on_c, 6, 62, 0
10, 100710, Note_on_c, 6, 61, 90
10, 100739, Note_on_c, 6, 61, 0
10, 100740, Note_on_c, 6, 62, 90
10, 100799, Note_on_c, 6, 62, 0
10, 100800, Note_on_c, 6, 64, 90
10, 100919, Note_on_c, 6, 64, 0
10, 100920, Note_on_c, 6, 62, 90
10, 100949, Note_on_c, 6, 62, 0
10, 100950, Note_on_c, 6, 61, 90
10, 100979, Note_on_c, 6, 61, 0
10, 100980, Note_on_c, 6, 62, 90
10, 101009, Note_on_c, 6, 62, 0
10, 101010, Note_on_c, 6, 66, 90
10, 101039, Note_on_c, 6, 66, 0
10, 101040, Note_on_c, 6, 71, 90
10, 101069, Note_on_c, 6, 71, 0
10, 101070, Note_on_c, 6, 74, 90
10, 101099, Note_on_c, 6, 74, 0
10, 101100, Note_on_c, 6, 78, 90
10, 101279, Note_on_c, 6, 78, 0
10, 101280, Note_on_c, 6, 79, 90
10, 101309, Note_on_c, 6, 79, 0
10, 101310, Note_on_c, 6, 78, 90
10, 101339, Note_on_c, 6, 78, 0
10, 101340, Note_on_c, 6, 76, 90
10, 101369, Note_on_c, 6, 76, 0
10, 101370, Note_on_c, 6, 74, 90
10, 101399, Note_on_c, 6, 74, 0
10, 101400, Note_on_c, 6, 73, 90
10, 101429, Note_on_c, 6, 73, 0
10, 101430, Note_on_c, 6, 71, 90
10, 101459, Note_on_c, 6, 71, 0
10, 101460, Note_on_c, 6, 70, 90
10, 101489, Note_on_c, 6, 70, 0
10, 101490, Note_on_c, 6, 73, 90
10, 101519, Note_on_c, 6, 73, 0
10, 101520, Note_on_c, 6, 78, 90
10, 101579, Note_on_c, 6, 78, 0
10, 101640, Note_on_c, 6, 69, 90
10, 101759, Note_on_c, 6, 69, 0
10, 101760, Note_on_c, 6, 71, 90
10, 101789, Note_on_c, 6, 71, 0
10, 101790, Note_on_c, 6, 72, 90
10, 101819, Note_on_c, 6, 72, 0
10, 101820, Note_on_c, 6, 71, 90
10, 101879, Note_on_c, 6, 71, 0
10, 101880, Note_on_c, 6, 69, 90
10, 101939, Note_on_c, 6, 69, 0
10, 101940, Note_on_c, 6, 75, 90
10, 101999, Note_on_c, 6, 75, 0
10, 102000, Note_on_c, 6, 76, 90
10, 102059, Note_on_c, 6, 76, 0
10, 102060, Note_on_c, 6, 64, 90
10, 102090, Note_on_c, 6, 64, 0
10, 102120, Note_on_c, 6, 66, 90
10, 102150, Note_on_c, 6, 66, 0
10, 102180, Note_on_c, 6, 67, 90
10, 102210, Note_on_c, 6, 67, 0
10, 102240, Note_on_c, 6, 69, 90
10, 102269, Note_on_c, 6, 69, 0
10, 102270, Note_on_c, 6, 67, 90
10, 102299, Note_on_c, 6, 67, 0
10, 102300, Note_on_c, 6, 66, 90
10, 102359, Note_on_c, 6, 66, 0
10, 102360, Note_on_c, 6, 64, 90
10, 102419, Note_on_c, 6, 64, 0
10, 102420, Note_on_c, 6, 73, 90
10, 102539, Note_on_c, 6, 73, 0
10, 102540, Note_on_c, 6, 74, 90
10, 102599, Note_on_c, 6, 74, 0
10, 102600, Note_on_c, 6, 68, 90
10, 102719, Note_on_c, 6, 68, 0
10, 102720, Note_on_c, 6, 69, 90
10, 102749, Note_on_c, 6, 69, 0
10, 102750, Note_on_c, 6, 71, 90
10, 102779, Note_on_c, 6, 71, 0
10, 102780, Note_on_c, 6, 69, 90
10, 102839, Note_on_c, 6, 69, 0
10, 102840, Note_on_c, 6, 68, 90
10, 102899, Note_on_c, 6, 68, 0
10, 102900, Note_on_c, 6, 69, 90
10, 102959, Note_on_c, 6, 69, 0
10, 102960, Note_on_c, 6, 62, 90
10, 103019, Note_on_c, 6, 62, 0
10, 103020, Note_on_c, 6, 61, 90
10, 103079, Note_on_c, 6, 61, 0
10, 103080, Note_on_c, 6, 67, 90
10, 103139, Note_on_c, 6, 67, 0
10, 103140, Note_on_c, 6, 66, 90
10, 103199, Note_on_c, 6, 66, 0
10, 103200, Note_on_c, 6, 69, 90
10, 103229, Note_on_c, 6, 69, 0
10, 103230, Note_on_c, 6, 67, 90
10, 103259, Note_on_c, 6, 67, 0
10, 103260, Note_on_c, 6, 66, 90
10, 103319, Note_on_c, 6, 66, 0
10, 103320, Note_on_c, 6, 64, 90
10, 103379, Note_on_c, 6, 64, 0
10, 103380, Note_on_c, 6, 62, 90
10, 103409, Note_on_c, 6, 62, 0
10, 103410, Note_on_c, 6, 69, 90
10, 103439, Note_on_c, 6, 69, 0
10, 103440, Note_on_c, 6, 78, 90
10, 103559, Note_on_c, 6, 78, 0
10, 103560, Note_on_c, 6, 76, 90
10, 103589, Note_on_c, 6, 76, 0
10, 103590, Note_on_c, 6, 74, 90
10, 103619, Note_on_c, 6, 74, 0
10, 103620, Note_on_c, 6, 76, 90
10, 103649, Note_on_c, 6, 76, 0
10, 103650, Note_on_c, 6, 74, 90
10, 103679, Note_on_c, 6, 74, 0
10, 103680, Note_on_c, 6, 73, 90
10, 103709, Note_on_c, 6, 73, 0
10, 103710, Note_on_c, 6, 71, 90
10, 103739, Note_on_c, 6, 71, 0
10, 103740, Note_on_c, 6, 69, 90
10, 103799, Note_on_c, 6, 69, 0
10, 103800, Note_on_c, 6, 74, 90
10, 103919, Note_on_c, 6, 74, 0
10, 103920, Note_on_c, 6, 73, 90
10, 103949, Note_on_c, 6, 73, 0
10, 103950, Note_on_c, 6, 71, 90
10, 103979, Note_on_c, 6, 71, 0
10, 103980, Note_on_c, 6, 73, 90
10, 104009, Note_on_c, 6, 73, 0
10, 104010, Note_on_c, 6, 75, 90
10, 104039, Note_on_c, 6, 75, 0
10, 104040, Note_on_c, 6, 76, 90
10, 104129, Note_on_c, 6, 76, 0
10, 104130, Note_on_c, 6, 75, 90
10, 104159, Note_on_c, 6, 75, 0
10, 104160, Note_on_c, 6, 73, 90
10, 104189, Note_on_c, 6, 73, 0
10, 104190, Note_on_c, 6, 71, 90
10, 104219, Note_on_c, 6, 71, 0
10, 104220, Note_on_c, 6, 76, 90
10, 104399, Note_on_c, 6, 76, 0
10, 104400, Note_on_c, 6, 74, 90
10, 104429, Note_on_c, 6, 74, 0
10, 104430, Note_on_c, 6, 73, 90
10, 104459, Note_on_c, 6, 73, 0
10, 104460, Note_on_c, 6, 74, 90
10, 104489, Note_on_c, 6, 74, 0
10, 104490, Note_on_c, 6, 73, 90
10, 104519, Note_on_c, 6, 73, 0
10, 104520, Note_on_c, 6, 71, 90
10, 104549, Note_on_c, 6, 71, 0
10, 104550, Note_on_c, 6, 69, 90
10, 104579, Note_on_c, 6, 69, 0
10, 104580, Note_on_c, 6, 68, 90
10, 104609, Note_on_c, 6, 68, 0
10, 104610, Note_on_c, 6, 71, 90
10, 104639, Note_on_c, 6, 71, 0
10, 104640, Note_on_c, 6, 73, 90
10, 104669, Note_on_c, 6, 73, 0
10, 104670, Note_on_c, 6, 77, 90
10, 104699, Note_on_c, 6, 77, 0
10, 104700, Note_on_c, 6, 80, 90
10, 104879, Note_on_c, 6, 80, 0
10, 104880, Note_on_c, 6, 78, 90
10, 104909, Note_on_c, 6, 78, 0
10, 104910, Note_on_c, 6, 77, 90
10, 104939, Note_on_c, 6, 77, 0
10, 104940, Note_on_c, 6, 78, 90
10, 104999, Note_on_c, 6, 78, 0
10, 105300, Note_on_c, 6, 65, 90
10, 105329, Note_on_c, 6, 65, 0
10, 105330, Note_on_c, 6, 73, 90
10, 105359, Note_on_c, 6, 73, 0
10, 105360, Note_on_c, 6, 83, 90
10, 105479, Note_on_c, 6, 83, 0
10, 105480, Note_on_c, 6, 81, 90
10, 105509, Note_on_c, 6, 81, 0
10, 105510, Note_on_c, 6, 80, 90
10, 105539, Note_on_c, 6, 80, 0
10, 105540, Note_on_c, 6, 81, 90
10, 105569, Note_on_c, 6, 81, 0
10, 105570, Note_on_c, 6, 80, 90
10, 105599, Note_on_c, 6, 80, 0
10, 105600, Note_on_c, 6, 78, 90
10, 105629, Note_on_c, 6, 78, 0
10, 105630, Note_on_c, 6, 81, 90
10, 105659, Note_on_c, 6, 81, 0
10, 105660, Note_on_c, 6, 80, 90
10, 105689, Note_on_c, 6, 80, 0
10, 105690, Note_on_c, 6, 71, 90
10, 105719, Note_on_c, 6, 71, 0
10, 105720, Note_on_c, 6, 69, 90
10, 105749, Note_on_c, 6, 69, 0
10, 105750, Note_on_c, 6, 68, 90
10, 105779, Note_on_c, 6, 68, 0
10, 105780, Note_on_c, 6, 69, 90
10, 105809, Note_on_c, 6, 69, 0
10, 105810, Note_on_c, 6, 71, 90
10, 105839, Note_on_c, 6, 71, 0
10, 105840, Note_on_c, 6, 73, 90
10, 105899, Note_on_c, 6, 73, 0
10, 105960, Note_on_c, 6, 78, 90
10, 106019, Note_on_c, 6, 78, 0
10, 106020, Note_on_c, 6, 77, 90
10, 106079, Note_on_c, 6, 77, 0
10, 106080, Note_on_c, 6, 78, 90
10, 106199, Note_on_c, 6, 78, 0
10, 106200, Note_on_c, 6, 80, 90
10, 106229, Note_on_c, 6, 80, 0
10, 106230, Note_on_c, 6, 81, 90
10, 106259, Note_on_c, 6, 81, 0
10, 106260, Note_on_c, 6, 80, 90
10, 106289, Note_on_c, 6, 80, 0
10, 106290, Note_on_c, 6, 78, 90
10, 106319, Note_on_c, 6, 78, 0
10, 106320, Note_on_c, 6, 77, 90
10, 106349, Note_on_c, 6, 77, 0
10, 106350, Note_on_c, 6, 75, 90
10, 106379, Note_on_c, 6, 75, 0
10, 106380, Note_on_c, 6, 73, 90
10, 106439, Note_on_c, 6, 73, 0
10, 106500, Note_on_c, 6, 68, 90
10, 106529, Note_on_c, 6, 68, 0
10, 106530, Note_on_c, 6, 77, 90
10, 106559, Note_on_c, 6, 77, 0
10, 106560, Note_on_c, 6, 86, 90
10, 106679, Note_on_c, 6, 86, 0
10, 106680, Note_on_c, 6, 85, 90
10, 106709, Note_on_c, 6, 85, 0
10, 106710, Note_on_c, 6, 83, 90
10, 106739, Note_on_c, 6, 83, 0
10, 106740, Note_on_c, 6, 81, 90
10, 106769, Note_on_c, 6, 81, 0
10, 106770, Note_on_c, 6, 80, 90
10, 106799, Note_on_c, 6, 80, 0
10, 106800, Note_on_c, 6, 78, 90
10, 106829, Note_on_c, 6, 78, 0
10, 106830, Note_on_c, 6, 77, 90
10, 106859, Note_on_c, 6, 77, 0
10, 106860, Note_on_c, 6, 78, 90
10, 106889, Note_on_c, 6, 78, 0
10, 106890, Note_on_c, 6, 85, 90
10, 106919, Note_on_c, 6, 85, 0
10, 106920, Note_on_c, 6, 76, 90
10, 107039, Note_on_c, 6, 76, 0
10, 107040, Note_on_c, 6, 78, 90
10, 107069, Note_on_c, 6, 78, 0
10, 107070, Note_on_c, 6, 79, 90
10, 107099, Note_on_c, 6, 79, 0
10, 107100, Note_on_c, 6, 78, 90
10, 107159, Note_on_c, 6, 78, 0
10, 107160, Note_on_c, 6, 76, 90
10, 107219, Note_on_c, 6, 76, 0
10, 107220, Note_on_c, 6, 82, 90
10, 107279, Note_on_c, 6, 82, 0
10, 107280, Note_on_c, 6, 83, 90
10, 107339, Note_on_c, 6, 83, 0
10, 107340, Note_on_c, 6, 71, 90
10, 107399, Note_on_c, 6, 71, 0
10, 107400, Note_on_c, 6, 73, 90
10, 107459, Note_on_c, 6, 73, 0
10, 107460, Note_on_c, 6, 74, 90
10, 107519, Note_on_c, 6, 74, 0
10, 107520, Note_on_c, 6, 76, 90
10, 107549, Note_on_c, 6, 76, 0
10, 107550, Note_on_c, 6, 74, 90
10, 107579, Note_on_c, 6, 74, 0
10, 107580, Note_on_c, 6, 73, 90
10, 107639, Note_on_c, 6, 73, 0
10, 107640, Note_on_c, 6, 71, 90
10, 107699, Note_on_c, 6, 71, 0
10, 107700, Note_on_c, 6, 80, 90
10, 107819, Note_on_c, 6, 80, 0
10, 107820, Note_on_c, 6, 81, 90
10, 107879, Note_on_c, 6, 81, 0
10, 107880, Note_on_c, 6, 72, 90
10, 107999, Note_on_c, 6, 72, 0
10, 108000, Note_on_c, 6, 73, 90
10, 108029, Note_on_c, 6, 73, 0
10, 108030, Note_on_c, 6, 75, 90
10, 108059, Note_on_c, 6, 75, 0
10, 108060, Note_on_c, 6, 73, 90
10, 108119, Note_on_c, 6, 73, 0
10, 108120, Note_on_c, 6, 72, 90
10, 108179, Note_on_c, 6, 72, 0
10, 108180, Note_on_c, 6, 73, 90
10, 108239, Note_on_c, 6, 73, 0
10, 108240, Note_on_c, 6, 66, 90
10, 108299, Note_on_c, 6, 66, 0
10, 108300, Note_on_c, 6, 65, 90
10, 108359, Note_on_c, 6, 65, 0
10, 108360, Note_on_c, 6, 71, 90
10, 108419, Note_on_c, 6, 71, 0
10, 108420, Note_on_c, 6, 69, 90
10, 108479, Note_on_c, 6, 69, 0
10, 108480, Note_on_c, 6, 73, 90
10, 108509, Note_on_c, 6, 73, 0
10, 108510, Note_on_c, 6, 71, 90
10, 108539, Note_on_c, 6, 71, 0
10, 108540, Note_on_c, 6, 69, 90
10, 108599, Note_on_c, 6, 69, 0
10, 108600, Note_on_c, 6, 68, 90
10, 108659, Note_on_c, 6, 68, 0
10, 108660, Note_on_c, 6, 66, 90
10, 108719, Note_on_c, 6, 66, 0
10, 109380, Note_on_c, 6, 73, 90
10, 109439, Note_on_c, 6, 73, 0
10, 109440, Note_on_c, 6, 74, 90
10, 109559, Note_on_c, 6, 74, 0
10, 109560, Note_on_c, 6, 73, 90
10, 109589, Note_on_c, 6, 73, 0
10, 109590, Note_on_c, 6, 71, 90
10, 109619, Note_on_c, 6, 71, 0
10, 109620, Note_on_c, 6, 73, 90
10, 109679, Note_on_c, 6, 73, 0
10, 109680, Note_on_c, 6, 69, 90
10, 109739, Note_on_c, 6, 69, 0
10, 109740, Note_on_c, 6, 66, 90
10, 109799, Note_on_c, 6, 66, 0
10, 109800, Note_on_c, 6, 78, 90
10, 109859, Note_on_c, 6, 78, 0
10, 109860, Note_on_c, 6, 77, 90
10, 109919, Note_on_c, 6, 77, 0
10, 109920, Note_on_c, 6, 78, 90
10, 110039, Note_on_c, 6, 78, 0
10, 110040, Note_on_c, 6, 80, 90
10, 110069, Note_on_c, 6, 80, 0
10, 110070, Note_on_c, 6, 81, 90
10, 110099, Note_on_c, 6, 81, 0
10, 110100, Note_on_c, 6, 80, 90
10, 110129, Note_on_c, 6, 80, 0
10, 110130, Note_on_c, 6, 78, 90
10, 110159, Note_on_c, 6, 78, 0
10, 110160, Note_on_c, 6, 77, 90
10, 110189, Note_on_c, 6, 77, 0
10, 110190, Note_on_c, 6, 75, 90
10, 110219, Note_on_c, 6, 75, 0
10, 110220, Note_on_c, 6, 73, 90
10, 110279, Note_on_c, 6, 73, 0
10, 110280, Note_on_c, 6, 76, 90
10, 110399, Note_on_c, 6, 76, 0
10, 110400, Note_on_c, 6, 78, 90
10, 110429, Note_on_c, 6, 78, 0
10, 110430, Note_on_c, 6, 79, 90
10, 110459, Note_on_c, 6, 79, 0
10, 110460, Note_on_c, 6, 78, 90
10, 110519, Note_on_c, 6, 78, 0
10, 110520, Note_on_c, 6, 76, 90
10, 110579, Note_on_c, 6, 76, 0
10, 110580, Note_on_c, 6, 82, 90
10, 110639, Note_on_c, 6, 82, 0
10, 110640, Note_on_c, 6, 83, 90
10, 110699, Note_on_c, 6, 83, 0
10, 110700, Note_on_c, 6, 71, 90
10, 110759, Note_on_c, 6, 71, 0
10, 110760, Note_on_c, 6, 73, 90
10, 110819, Note_on_c, 6, 73, 0
10, 110820, Note_on_c, 6, 74, 90
10, 110879, Note_on_c, 6, 74, 0
10, 110880, Note_on_c, 6, 76, 90
10, 110909, Note_on_c, 6, 76, 0
10, 110910, Note_on_c, 6, 74, 90
10, 110939, Note_on_c, 6, 74, 0
10, 110940, Note_on_c, 6, 73, 90
10, 110999, Note_on_c, 6, 73, 0
10, 111000, Note_on_c, 6, 71, 90
10, 111059, Note_on_c, 6, 71, 0
10, 111060, Note_on_c, 6, 80, 90
10, 111179, Note_on_c, 6, 80, 0
10, 111180, Note_on_c, 6, 81, 90
10, 111209, Note_on_c, 6, 81, 0
10, 111210, Note_on_c, 6, 68, 90
10, 111239, Note_on_c, 6, 68, 0
10, 111240, Note_on_c, 6, 66, 90
10, 111269, Note_on_c, 6, 66, 0
10, 111270, Note_on_c, 6, 64, 90
10, 111299, Note_on_c, 6, 64, 0
10, 111300, Note_on_c, 6, 63, 90
10, 111329, Note_on_c, 6, 63, 0
10, 111330, Note_on_c, 6, 66, 90
10, 111359, Note_on_c, 6, 66, 0
10, 111360, Note_on_c, 6, 69, 90
10, 111389, Note_on_c, 6, 69, 0
10, 111390, Note_on_c, 6, 72, 90
10, 111419, Note_on_c, 6, 72, 0
10, 111420, Note_on_c, 6, 78, 90
10, 111449, Note_on_c, 6, 78, 0
10, 111450, Note_on_c, 6, 69, 90
10, 111479, Note_on_c, 6, 69, 0
10, 111480, Note_on_c, 6, 68, 90
10, 111509, Note_on_c, 6, 68, 0
10, 111510, Note_on_c, 6, 66, 90
10, 111539, Note_on_c, 6, 66, 0
10, 111540, Note_on_c, 6, 65, 90
10, 111569, Note_on_c, 6, 65, 0
10, 111570, Note_on_c, 6, 68, 90
10, 111599, Note_on_c, 6, 68, 0
10, 111600, Note_on_c, 6, 71, 90
10, 111629, Note_on_c, 6, 71, 0
10, 111630, Note_on_c, 6, 74, 90
10, 111659, Note_on_c, 6, 74, 0
10, 111660, Note_on_c, 6, 80, 90
10, 111689, Note_on_c, 6, 80, 0
10, 111690, Note_on_c, 6, 74, 90
10, 111719, Note_on_c, 6, 74, 0
10, 111720, Note_on_c, 6, 73, 90
10, 111749, Note_on_c, 6, 73, 0
10, 111750, Note_on_c, 6, 71, 90
10, 111779, Note_on_c, 6, 71, 0
10, 111780, Note_on_c, 6, 69, 90
10, 111809, Note_on_c, 6, 69, 0
10, 111810, Note_on_c, 6, 73, 90
10, 111839, Note_on_c, 6, 73, 0
10, 111840, Note_on_c, 6, 78, 90
10, 111869, Note_on_c, 6, 78, 0
10, 111870, Note_on_c, 6, 80, 90
10, 111899, Note_on_c, 6, 80, 0
10, 111900, Note_on_c, 6, 81, 90
10, 111959, Note_on_c, 6, 81, 0
10, 111960, Note_on_c, 6, 80, 90
10, 111975, Note_on_c, 6, 80, 0
10, 111975, Note_on_c, 6, 81, 90
10, 111990, Note_on_c, 6, 81, 0
10, 111990, Note_on_c, 6, 80, 90
10, 112019, Note_on_c, 6, 80, 0
10, 112020, Note_on_c, 6, 78, 90
10, 112079, Note_on_c, 6, 78, 0
10, 112080, Note_on_c, 6, 76, 90
10, 112109, Note_on_c, 6, 76, 0
10, 112110, Note_on_c, 6, 74, 90
10, 112139, Note_on_c, 6, 74, 0
10, 112140, Note_on_c, 6, 73, 90
10, 112169, Note_on_c, 6, 73, 0
10, 112170, Note_on_c, 6, 71, 90
10, 112199, Note_on_c, 6, 71, 0
10, 112200, Note_on_c, 6, 69, 90
10, 112229, Note_on_c, 6, 69, 0
10, 112230, Note_on_c, 6, 68, 90
10, 112259, Note_on_c, 6, 68, 0
10, 112260, Note_on_c, 6, 66, 90
10, 112319, Note_on_c, 6, 66, 0
10, 112320, Note_on_c, 6, 78, 90
10, 112349, Note_on_c, 6, 78, 0
10, 112350, Note_on_c, 6, 77, 90
10, 112379, Note_on_c, 6, 77, 0
10, 112380, Note_on_c, 6, 78, 90
10, 112439, Note_on_c, 6, 78, 0
10, 112440, Note_on_c, 6, 66, 90
10, 112469, Note_on_c, 6, 66, 0
10, 112470, Note_on_c, 6, 65, 90
10, 112499, Note_on_c, 6, 65, 0
10, 112500, Note_on_c, 6, 66, 90
10, 112559, Note_on_c, 6, 66, 0
10, 112560, Note_on_c, 6, 78, 90
10, 112589, Note_on_c, 6, 78, 0
10, 112590, Note_on_c, 6, 77, 90
10, 112619, Note_on_c, 6, 77, 0
10, 112620, Note_on_c, 6, 78, 90
10, 112679, Note_on_c, 6, 78, 0
10, 112800, Note_on_c, 6, 76, 90
10, 112919, Note_on_c, 6, 76, 0
10, 112920, Note_on_c, 6, 75, 90
10, 112979, Note_on_c, 6, 75, 0
10, 112980, Note_on_c, 6, 76, 90
10, 113039, Note_on_c, 6, 76, 0
10, 113040, Note_on_c, 6, 64, 90
10, 113069, Note_on_c, 6, 64, 0
10, 113070, Note_on_c, 6, 63, 90
10, 113099, Note_on_c, 6, 63, 0
10, 113100, Note_on_c, 6, 64, 90
10, 113159, Note_on_c, 6, 64, 0
10, 113160, Note_on_c, 6, 76, 90
10, 113189, Note_on_c, 6, 76, 0
10, 113190, Note_on_c, 6, 75, 90
10, 113219, Note_on_c, 6, 75, 0
10, 113220, Note_on_c, 6, 76, 90
10, 113279, Note_on_c, 6, 76, 0
10, 113520, Note_on_c, 6, 57, 90
10, 113549, Note_on_c, 6, 57, 0
10, 113550, Note_on_c, 6, 55, 90
10, 113579, Note_on_c, 6, 55, 0
10, 113580, Note_on_c, 6, 57, 90
10, 113639, Note_on_c, 6, 57, 0
10, 113640, Note_on_c, 6, 69, 90
10, 113669, Note_on_c, 6, 69, 0
10, 113670, Note_on_c, 6, 67, 90
10, 113699, Note_on_c, 6, 67, 0
10, 113700, Note_on_c, 6, 69, 90
10, 113759, Note_on_c, 6, 69, 0
10, 113760, Note_on_c, 6, 62, 90
10, 113789, Note_on_c, 6, 62, 0
10, 113790, Note_on_c, 6, 61, 90
10, 113819, Note_on_c, 6, 61, 0
10, 113820, Note_on_c, 6, 62, 90
10, 113879, Note_on_c, 6, 62, 0
10, 113880, Note_on_c, 6, 74, 90
10, 113909, Note_on_c, 6, 74, 0
10, 113910, Note_on_c, 6, 73, 90
10, 113939, Note_on_c, 6, 73, 0
10, 113940, Note_on_c, 6, 74, 90
10, 114059, Note_on_c, 6, 74, 0
10, 114120, Note_on_c, 6, 64, 90
10, 114149, Note_on_c, 6, 64, 0
10, 114150, Note_on_c, 6, 62, 90
10, 114179, Note_on_c, 6, 62, 0
10, 114180, Note_on_c, 6, 64, 90
10, 114239, Note_on_c, 6, 64, 0
10, 114240, Note_on_c, 6, 62, 90
10, 114269, Note_on_c, 6, 62, 0
10, 114270, Note_on_c, 6, 61, 90
10, 114299, Note_on_c, 6, 61, 0
10, 114300, Note_on_c, 6, 62, 90
10, 114359, Note_on_c, 6, 62, 0
10, 114360, Note_on_c, 6, 61, 90
10, 114389, Note_on_c, 6, 61, 0
10, 114390, Note_on_c, 6, 59, 90
10, 114419, Note_on_c, 6, 59, 0
10, 114420, Note_on_c, 6, 61, 90
10, 114449, Note_on_c, 6, 61, 0
10, 114450, Note_on_c, 6, 64, 90
10, 114479, Note_on_c, 6, 64, 0
10, 114480, Note_on_c, 6, 69, 90
10, 114509, Note_on_c, 6, 69, 0
10, 114510, Note_on_c, 6, 73, 90
10, 114539, Note_on_c, 6, 73, 0
10, 114540, Note_on_c, 6, 76, 90
10, 114569, Note_on_c, 6, 76, 0
10, 114570, Note_on_c, 6, 67, 90
10, 114599, Note_on_c, 6, 67, 0
10, 114600, Note_on_c, 6, 66, 90
10, 114629, Note_on_c, 6, 66, 0
10, 114630, Note_on_c, 6, 74, 90
10, 114659, Note_on_c, 6, 74, 0
10, 114660, Note_on_c, 6, 73, 90
10, 114719, Note_on_c, 6, 73, 0
10, 114720, Note_on_c, 6, 61, 90
10, 114749, Note_on_c, 6, 61, 0
10, 114750, Note_on_c, 6, 59, 90
10, 114779, Note_on_c, 6, 59, 0
10, 114780, Note_on_c, 6, 61, 90
10, 114839, Note_on_c, 6, 61, 0
10, 114840, Note_on_c, 6, 73, 90
10, 114869, Note_on_c, 6, 73, 0
10, 114870, Note_on_c, 6, 71, 90
10, 114899, Note_on_c, 6, 71, 0
10, 114900, Note_on_c, 6, 73, 90
10, 114959, Note_on_c, 6, 73, 0
10, 114960, Note_on_c, 6, 64, 90
10, 114989, Note_on_c, 6, 64, 0
10, 114990, Note_on_c, 6, 62, 90
10, 115019, Note_on_c, 6, 62, 0
10, 115020, Note_on_c, 6, 64, 90
10, 115079, Note_on_c, 6, 64, 0
10, 115080, Note_on_c, 6, 71, 90
10, 115109, Note_on_c, 6, 71, 0
10, 115110, Note_on_c, 6, 70, 90
10, 115139, Note_on_c, 6, 70, 0
10, 115140, Note_on_c, 6, 71, 90
10, 115199, Note_on_c, 6, 71, 0
10, 115320, Note_on_c, 6, 66, 90
10, 115349, Note_on_c, 6, 66, 0
10, 115350, Note_on_c, 6, 64, 90
10, 115379, Note_on_c, 6, 64, 0
10, 115380, Note_on_c, 6, 66, 90
10, 115439, Note_on_c, 6, 66, 0
10, 115440, Note_on_c, 6, 78, 90
10, 115469, Note_on_c, 6, 78, 0
10, 115470, Note_on_c, 6, 76, 90
10, 115499, Note_on_c, 6, 76, 0
10, 115500, Note_on_c, 6, 78, 90
10, 115559, Note_on_c, 6, 78, 0
10, 115800, Note_on_c, 6, 64, 90
10, 115829, Note_on_c, 6, 64, 0
10, 115830, Note_on_c, 6, 62, 90
10, 115859, Note_on_c, 6, 62, 0
10, 115860, Note_on_c, 6, 64, 90
10, 115919, Note_on_c, 6, 64, 0
10, 115920, Note_on_c, 6, 73, 90
10, 115949, Note_on_c, 6, 73, 0
10, 115950, Note_on_c, 6, 71, 90
10, 115979, Note_on_c, 6, 71, 0
10, 115980, Note_on_c, 6, 73, 90
10, 116039, Note_on_c, 6, 73, 0
10, 116100, Note_on_c, 6, 63, 90
10, 116129, Note_on_c, 6, 63, 0
10, 116130, Note_on_c, 6, 66, 90
10, 116159, Note_on_c, 6, 66, 0
10, 116160, Note_on_c, 6, 69, 90
10, 116189, Note_on_c, 6, 69, 0
10, 116190, Note_on_c, 6, 72, 90
10, 116219, Note_on_c, 6, 72, 0
10, 116220, Note_on_c, 6, 78, 90
10, 116249, Note_on_c, 6, 78, 0
10, 116250, Note_on_c, 6, 69, 90
10, 116279, Note_on_c, 6, 69, 0
10, 116280, Note_on_c, 6, 67, 90
10, 116309, Note_on_c, 6, 67, 0
10, 116310, Note_on_c, 6, 66, 90
10, 116339, Note_on_c, 6, 66, 0
10, 116340, Note_on_c, 6, 64, 90
10, 116369, Note_on_c, 6, 64, 0
10, 116370, Note_on_c, 6, 67, 90
10, 116399, Note_on_c, 6, 67, 0
10, 116400, Note_on_c, 6, 71, 90
10, 116429, Note_on_c, 6, 71, 0
10, 116430, Note_on_c, 6, 75, 90
10, 116459, Note_on_c, 6, 75, 0
10, 116460, Note_on_c, 6, 76, 90
10, 116489, Note_on_c, 6, 76, 0
10, 116490, Note_on_c, 6, 71, 90
10, 116519, Note_on_c, 6, 71, 0
10, 116520, Note_on_c, 6, 69, 90
10, 116549, Note_on_c, 6, 69, 0
10, 116550, Note_on_c, 6, 67, 90
10, 116579, Note_on_c, 6, 67, 0
10, 116580, Note_on_c, 6, 66, 90
10, 116609, Note_on_c, 6, 66, 0
10, 116610, Note_on_c, 6, 69, 90
10, 116639, Note_on_c, 6, 69, 0
10, 116640, Note_on_c, 6, 72, 90
10, 116669, Note_on_c, 6, 72, 0
10, 116670, Note_on_c, 6, 76, 90
10, 116699, Note_on_c, 6, 76, 0
10, 116700, Note_on_c, 6, 75, 90
10, 116729, Note_on_c, 6, 75, 0
10, 116730, Note_on_c, 6, 72, 90
10, 116759, Note_on_c, 6, 72, 0
10, 116760, Note_on_c, 6, 71, 90
10, 116789, Note_on_c, 6, 71, 0
10, 116790, Note_on_c, 6, 69, 90
10, 116819, Note_on_c, 6, 69, 0
10, 116820, Note_on_c, 6, 67, 90
10, 116849, Note_on_c, 6, 67, 0
10, 116850, Note_on_c, 6, 66, 90
10, 116879, Note_on_c, 6, 66, 0
10, 116880, Note_on_c, 6, 64, 90
10, 116999, Note_on_c, 6, 64, 0
10, 117000, Note_on_c, 6, 62, 90
10, 117059, Note_on_c, 6, 62, 0
10, 117060, Note_on_c, 6, 61, 90
10, 117119, Note_on_c, 6, 61, 0
10, 117120, Note_on_c, 6, 76, 90
10, 117179, Note_on_c, 6, 76, 0
10, 117180, Note_on_c, 6, 74, 90
10, 117239, Note_on_c, 6, 74, 0
10, 117240, Note_on_c, 6, 73, 90
10, 117299, Note_on_c, 6, 73, 0
10, 117300, Note_on_c, 6, 71, 90
10, 117359, Note_on_c, 6, 71, 0
10, 117360, Note_on_c, 6, 81, 90
10, 117419, Note_on_c, 6, 81, 0
10, 117420, Note_on_c, 6, 79, 90
10, 117479, Note_on_c, 6, 79, 0
10, 117480, Note_on_c, 6, 78, 90
10, 117539, Note_on_c, 6, 78, 0
10, 117540, Note_on_c, 6, 76, 90
10, 117599, Note_on_c, 6, 76, 0
10, 117600, Note_on_c, 6, 86, 90
10, 117659, Note_on_c, 6, 86, 0
10, 117660, Note_on_c, 6, 85, 90
10, 117719, Note_on_c, 6, 85, 0
10, 117720, Note_on_c, 6, 83, 90
10, 117779, Note_on_c, 6, 83, 0
10, 117780, Note_on_c, 6, 82, 90
10, 117839, Note_on_c, 6, 82, 0
10, 117840, Note_on_c, 6, 76, 90
10, 117899, Note_on_c, 6, 76, 0
10, 117900, Note_on_c, 6, 74, 90
10, 117959, Note_on_c, 6, 74, 0
10, 117960, Note_on_c, 6, 82, 90
10, 118019, Note_on_c, 6, 82, 0
10, 118020, Note_on_c, 6, 83, 90
10, 118079, Note_on_c, 6, 83, 0
10, 118080, Note_on_c, 6, 74, 90
10, 118139, Note_on_c, 6, 74, 0
10, 118140, Note_on_c, 6, 73, 90
10, 118199, Note_on_c, 6, 73, 0
10, 118200, Note_on_c, 6, 71, 90
10, 118259, Note_on_c, 6, 71, 0
10, 118260, Note_on_c, 6, 71, 90
10, 118319, Note_on_c, 6, 71, 0
10, 118320, Note_on_c, 6, 70, 90
10, 118379, Note_on_c, 6, 70, 0
10, 118500, Note_on_c, 6, 66, 90
10, 118559, Note_on_c, 6, 66, 0
10, 118560, Note_on_c, 6, 67, 90
10, 118679, Note_on_c, 6, 67, 0
10, 118680, Note_on_c, 6, 66, 90
10, 118709, Note_on_c, 6, 66, 0
10, 118710, Note_on_c, 6, 64, 90
10, 118739, Note_on_c, 6, 64, 0
10, 118740, Note_on_c, 6, 66, 90
10, 118799, Note_on_c, 6, 66, 0
10, 118800, Note_on_c, 6, 62, 90
10, 118859, Note_on_c, 6, 62, 0
10, 118860, Note_on_c, 6, 59, 90
10, 118919, Note_on_c, 6, 59, 0
10, 118920, Note_on_c, 6, 71, 90
10, 118979, Note_on_c, 6, 71, 0
10, 118980, Note_on_c, 6, 70, 90
10, 119039, Note_on_c, 6, 70, 0
10, 119040, Note_on_c, 6, 71, 90
10, 119159, Note_on_c, 6, 71, 0
10, 119160, Note_on_c, 6, 73, 90
10, 119189, Note_on_c, 6, 73, 0
10, 119190, Note_on_c, 6, 74, 90
10, 119219, Note_on_c, 6, 74, 0
10, 119220, Note_on_c, 6, 73, 90
10, 119249, Note_on_c, 6, 73, 0
10, 119250, Note_on_c, 6, 71, 90
10, 119279, Note_on_c, 6, 71, 0
10, 119280, Note_on_c, 6, 70, 90
10, 119309, Note_on_c, 6, 70, 0
10, 119310, Note_on_c, 6, 68, 90
10, 119339, Note_on_c, 6, 68, 0
10, 119340, Note_on_c, 6, 66, 90
10, 119369, Note_on_c, 6, 66, 0
10, 119370, Note_on_c, 6, 64, 90
10, 119399, Note_on_c, 6, 64, 0
10, 119400, Note_on_c, 6, 62, 90
10, 119429, Note_on_c, 6, 62, 0
10, 119430, Note_on_c, 6, 61, 90
10, 119459, Note_on_c, 6, 61, 0
10, 119460, Note_on_c, 6, 62, 90
10, 119519, Note_on_c, 6, 62, 0
10, 119520, Note_on_c, 6, 64, 90
10, 119639, Note_on_c, 6, 64, 0
10, 119640, Note_on_c, 6, 62, 90
10, 119669, Note_on_c, 6, 62, 0
10, 119670, Note_on_c, 6, 61, 90
10, 119699, Note_on_c, 6, 61, 0
10, 119700, Note_on_c, 6, 62, 90
10, 119729, Note_on_c, 6, 62, 0
10, 119730, Note_on_c, 6, 66, 90
10, 119759, Note_on_c, 6, 66, 0
10, 119760, Note_on_c, 6, 71, 90
10, 119789, Note_on_c, 6, 71, 0
10, 119790, Note_on_c, 6, 74, 90
10, 119819, Note_on_c, 6, 74, 0
10, 119820, Note_on_c, 6, 78, 90
10, 119999, Note_on_c, 6, 78, 0
10, 120000, Note_on_c, 6, 79, 90
10, 120029, Note_on_c, 6, 79, 0
10, 120030, Note_on_c, 6, 78, 90
10, 120059, Note_on_c, 6, 78, 0
10, 120060, Note_on_c, 6, 76, 90
10, 120089, Note_on_c, 6, 76, 0
10, 120090, Note_on_c, 6, 74, 90
10, 120119, Note_on_c, 6, 74, 0
10, 120120, Note_on_c, 6, 73, 90
10, 120149, Note_on_c, 6, 73, 0
10, 120150, Note_on_c, 6, 71, 90
10, 120179, Note_on_c, 6, 71, 0
10, 120180, Note_on_c, 6, 70, 90
10, 120209, Note_on_c, 6, 70, 0
10, 120210, Note_on_c, 6, 73, 90
10, 120239, Note_on_c, 6, 73, 0
10, 120240, Note_on_c, 6, 78, 90
10, 120299, Note_on_c, 6, 78, 0
10, 120540, Note_on_c, 6, 78, 90
10, 120719, Note_on_c, 6, 78, 0
10, 120720, Note_on_c, 6, 79, 90
10, 120749, Note_on_c, 6, 79, 0
10, 120750, Note_on_c, 6, 81, 90
10, 120779, Note_on_c, 6, 81, 0
10, 120780, Note_on_c, 6, 79, 90
10, 120839, Note_on_c, 6, 79, 0
10, 120840, Note_on_c, 6, 78, 90
10, 120899, Note_on_c, 6, 78, 0
10, 120900, Note_on_c, 6, 78, 90
10, 121019, Note_on_c, 6, 78, 0
10, 121020, Note_on_c, 6, 76, 90
10, 121199, Note_on_c, 6, 76, 0
10, 121200, Note_on_c, 6, 78, 90
10, 121229, Note_on_c, 6, 78, 0
10, 121230, Note_on_c, 6, 79, 90
10, 121259, Note_on_c, 6, 79, 0
10, 121260, Note_on_c, 6, 78, 90
10, 121319, Note_on_c, 6, 78, 0
10, 121320, Note_on_c, 6, 76, 90
10, 121379, Note_on_c, 6, 76, 0
10, 121380, Note_on_c, 6, 76, 90
10, 121499, Note_on_c, 6, 76, 0
10, 121500, Note_on_c, 6, 74, 90
10, 121679, Note_on_c, 6, 74, 0
10, 121680, Note_on_c, 6, 73, 90
10, 121709, Note_on_c, 6, 73, 0
10, 121710, Note_on_c, 6, 71, 90
10, 121739, Note_on_c, 6, 71, 0
10, 121740, Note_on_c, 6, 69, 90
10, 121799, Note_on_c, 6, 69, 0
10, 121800, Note_on_c, 6, 67, 90
10, 121859, Note_on_c, 6, 67, 0
10, 121860, Note_on_c, 6, 66, 90
10, 121919, Note_on_c, 6, 66, 0
10, 121920, Note_on_c, 6, 69, 90
10, 121949, Note_on_c, 6, 69, 0
10, 121950, Note_on_c, 6, 67, 90
10, 121979, Note_on_c, 6, 67, 0
10, 121980, Note_on_c, 6, 66, 90
10, 122039, Note_on_c, 6, 66, 0
10, 122040, Note_on_c, 6, 64, 90
10, 122099, Note_on_c, 6, 64, 0
10, 122100, Note_on_c, 6, 62, 90
10, 122129, Note_on_c, 6, 62, 0
10, 122130, Note_on_c, 6, 69, 90
10, 122159, Note_on_c, 6, 69, 0
10, 122160, Note_on_c, 6, 78, 90
10, 122249, Note_on_c, 6, 78, 0
10, 122250, Note_on_c, 6, 76, 90
10, 122279, Note_on_c, 6, 76, 0
10, 122280, Note_on_c, 6, 74, 90
10, 122309, Note_on_c, 6, 74, 0
10, 122310, Note_on_c, 6, 73, 90
10, 122339, Note_on_c, 6, 73, 0
10, 122340, Note_on_c, 6, 74, 90
10, 122399, Note_on_c, 6, 74, 0
10, 122400, Note_on_c, 6, 62, 90
10, 122429, Note_on_c, 6, 62, 0
10, 122430, Note_on_c, 6, 61, 90
10, 122459, Note_on_c, 6, 61, 0
10, 122460, Note_on_c, 6, 62, 90
10, 122519, Note_on_c, 6, 62, 0
10, 122520, Note_on_c, 6, 74, 90
10, 122549, Note_on_c, 6, 74, 0
10, 122550, Note_on_c, 6, 73, 90
10, 122579, Note_on_c, 6, 73, 0
10, 122580, Note_on_c, 6, 74, 90
10, 122639, Note_on_c, 6, 74, 0
10, 122640, Note_on_c, 6, 64, 90
10, 122699, Note_on_c, 6, 64, 0
10, 122700, Note_on_c, 6, 69, 90
10, 122759, Note_on_c, 6, 69, 0
10, 122760, Note_on_c, 6, 67, 90
10, 122819, Note_on_c, 6, 67, 0
10, 122820, Note_on_c, 6, 66, 90
10, 122849, Note_on_c, 6, 66, 0
10, 122850, Note_on_c, 6, 69, 90
10, 122879, Note_on_c, 6, 69, 0
10, 122880, Note_on_c, 6, 72, 90
10, 122909, Note_on_c, 6, 72, 0
10, 122910, Note_on_c, 6, 75, 90
10, 122939, Note_on_c, 6, 75, 0
10, 122940, Note_on_c, 6, 78, 90
10, 123089, Note_on_c, 6, 78, 0
10, 123090, Note_on_c, 6, 69, 90
10, 123119, Note_on_c, 6, 69, 0
10, 123120, Note_on_c, 6, 67, 90
10, 123149, Note_on_c, 6, 67, 0
10, 123150, Note_on_c, 6, 66, 90
10, 123179, Note_on_c, 6, 66, 0
10, 123180, Note_on_c, 6, 64, 90
10, 123209, Note_on_c, 6, 64, 0
10, 123210, Note_on_c, 6, 62, 90
10, 123239, Note_on_c, 6, 62, 0
10, 123240, Note_on_c, 6, 61, 90
10, 123269, Note_on_c, 6, 61, 0
10, 123270, Note_on_c, 6, 59, 90
10, 123299, Note_on_c, 6, 59, 0
10, 123300, Note_on_c, 6, 58, 90
10, 123329, Note_on_c, 6, 58, 0
10, 123330, Note_on_c, 6, 61, 90
10, 123359, Note_on_c, 6, 61, 0
10, 123360, Note_on_c, 6, 64, 90
10, 123389, Note_on_c, 6, 64, 0
10, 123390, Note_on_c, 6, 67, 90
10, 123419, Note_on_c, 6, 67, 0
10, 123420, Note_on_c, 6, 73, 90
10, 123599, Note_on_c, 6, 73, 0
10, 123600, Note_on_c, 6, 71, 90
10, 123629, Note_on_c, 6, 71, 0
10, 123630, Note_on_c, 6, 70, 90
10, 123659, Note_on_c, 6, 70, 0
10, 123660, Note_on_c, 6, 71, 90
10, 123689, Note_on_c, 6, 71, 0
10, 123690, Note_on_c, 6, 78, 90
10, 123719, Note_on_c, 6, 78, 0
10, 123720, Note_on_c, 6, 69, 90
10, 123839, Note_on_c, 6, 69, 0
10, 123840, Note_on_c, 6, 71, 90
10, 123869, Note_on_c, 6, 71, 0
10, 123870, Note_on_c, 6, 72, 90
10, 123899, Note_on_c, 6, 72, 0
10, 123900, Note_on_c, 6, 71, 90
10, 123959, Note_on_c, 6, 71, 0
10, 123960, Note_on_c, 6, 69, 90
10, 124019, Note_on_c, 6, 69, 0
10, 124020, Note_on_c, 6, 75, 90
10, 124079, Note_on_c, 6, 75, 0
10, 124080, Note_on_c, 6, 76, 90
10, 124139, Note_on_c, 6, 76, 0
10, 124140, Note_on_c, 6, 64, 90
10, 124199, Note_on_c, 6, 64, 0
10, 124200, Note_on_c, 6, 66, 90
10, 124259, Note_on_c, 6, 66, 0
10, 124260, Note_on_c, 6, 67, 90
10, 124319, Note_on_c, 6, 67, 0
10, 124320, Note_on_c, 6, 69, 90
10, 124349, Note_on_c, 6, 69, 0
10, 124350, Note_on_c, 6, 67, 90
10, 124379, Note_on_c, 6, 67, 0
10, 124380, Note_on_c, 6, 66, 90
10, 124439, Note_on_c, 6, 66, 0
10, 124440, Note_on_c, 6, 64, 90
10, 124499, Note_on_c, 6, 64, 0
10, 124500, Note_on_c, 6, 73, 90
10, 124619, Note_on_c, 6, 73, 0
10, 124620, Note_on_c, 6, 74, 90
10, 124679, Note_on_c, 6, 74, 0
10, 124680, Note_on_c, 6, 65, 90
10, 124799, Note_on_c, 6, 65, 0
10, 124800, Note_on_c, 6, 66, 90
10, 124829, Note_on_c, 6, 66, 0
10, 124830, Note_on_c, 6, 68, 90
10, 124859, Note_on_c, 6, 68, 0
10, 124860, Note_on_c, 6, 66, 90
10, 124919, Note_on_c, 6, 66, 0
10, 124920, Note_on_c, 6, 65, 90
10, 124979, Note_on_c, 6, 65, 0
10, 124980, Note_on_c, 6, 66, 90
10, 125010, Note_on_c, 6, 66, 0
10, 125010, Note_on_c, 6, 70, 90
10, 125040, Note_on_c, 6, 70, 0
10, 125040, Note_on_c, 6, 73, 90
10, 125070, Note_on_c, 6, 73, 0
10, 125070, Note_on_c, 6, 76, 90
10, 125100, Note_on_c, 6, 76, 0
10, 125100, Note_on_c, 6, 74, 90
10, 125189, Note_on_c, 6, 74, 0
10, 125190, Note_on_c, 6, 73, 90
10, 125219, Note_on_c, 6, 73, 0
10, 125220, Note_on_c, 6, 74, 90
10, 125234, Note_on_c, 6, 74, 0
10, 125235, Note_on_c, 6, 73, 90
10, 125249, Note_on_c, 6, 73, 0
10, 125250, Note_on_c, 6, 71, 90
10, 125279, Note_on_c, 6, 71, 0
10, 125280, Note_on_c, 6, 76, 90
10, 125399, Note_on_c, 6, 76, 0
10, 125400, Note_on_c, 6, 74, 90
10, 125429, Note_on_c, 6, 74, 0
10, 125430, Note_on_c, 6, 73, 90
10, 125459, Note_on_c, 6, 73, 0
10, 125460, Note_on_c, 6, 74, 90
10, 125519, Note_on_c, 6, 74, 0
10, 125520, Note_on_c, 6, 71, 90
10, 125579, Note_on_c, 6, 71, 0
10, 125580, Note_on_c, 6, 66, 90
10, 125639, Note_on_c, 6, 66, 0
10, 125640, Note_on_c, 6, 74, 90
10, 125699, Note_on_c, 6, 74, 0
10, 125700, Note_on_c, 6, 73, 90
10, 125714, Note_on_c, 6, 73, 0
10, 125715, Note_on_c, 6, 74, 90
10, 125729, Note_on_c, 6, 74, 0
10, 125730, Note_on_c, 6, 76, 90
10, 125759, Note_on_c, 6, 76, 0
10, 125760, Note_on_c, 6, 74, 90
10, 125879, Note_on_c, 6, 74, 0
10, 125880, Note_on_c, 6, 73, 90
10, 125909, Note_on_c, 6, 73, 0
10, 125910, Note_on_c, 6, 71, 90
10, 125939, Note_on_c, 6, 71, 0
10, 125940, Note_on_c, 6, 73, 90
10, 125999, Note_on_c, 6, 73, 0
10, 126000, Note_on_c, 6, 70, 90
10, 126059, Note_on_c, 6, 70, 0
10, 126060, Note_on_c, 6, 64, 90
10, 126119, Note_on_c, 6, 64, 0
10, 126240, Note_on_c, 6, 67, 90
10, 126269, Note_on_c, 6, 67, 0
10, 126270, Note_on_c, 6, 66, 90
10, 126299, Note_on_c, 6, 66, 0
10, 126300, Note_on_c, 6, 67, 90
10, 126359, Note_on_c, 6, 67, 0
10, 126360, Note_on_c, 6, 79, 90
10, 126389, Note_on_c, 6, 79, 0
10, 126390, Note_on_c, 6, 78, 90
10, 126419, Note_on_c, 6, 78, 0
10, 126420, Note_on_c, 6, 79, 90
10, 126479, Note_on_c, 6, 79, 0
10, 126480, Note_on_c, 6, 67, 90
10, 126539, Note_on_c, 6, 67, 0
10, 126540, Note_on_c, 6, 66, 90
10, 126599, Note_on_c, 6, 66, 0
10, 126960, Note_on_c, 6, 59, 90
10, 126989, Note_on_c, 6, 59, 0
10, 126990, Note_on_c, 6, 61, 90
10, 127019, Note_on_c, 6, 61, 0
10, 127020, Note_on_c, 6, 62, 90
10, 127049, Note_on_c, 6, 62, 0
10, 127050, Note_on_c, 6, 64, 90
10, 127079, Note_on_c, 6, 64, 0
10, 127080, Note_on_c, 6, 66, 90
10, 127109, Note_on_c, 6, 66, 0
10, 127110, Note_on_c, 6, 67, 90
10, 127139, Note_on_c, 6, 67, 0
10, 127140, Note_on_c, 6, 69, 90
10, 127169, Note_on_c, 6, 69, 0
10, 127170, Note_on_c, 6, 75, 90
10, 127199, Note_on_c, 6, 75, 0
10, 127200, Note_on_c, 6, 78, 90
10, 127289, Note_on_c, 6, 78, 0
10, 127290, Note_on_c, 6, 72, 90
10, 127319, Note_on_c, 6, 72, 0
10, 127320, Note_on_c, 6, 71, 90
10, 127349, Note_on_c, 6, 71, 0
10, 127350, Note_on_c, 6, 69, 90
10, 127379, Note_on_c, 6, 69, 0
10, 127380, Note_on_c, 6, 67, 90
10, 127409, Note_on_c, 6, 67, 0
10, 127410, Note_on_c, 6, 66, 90
10, 127439, Note_on_c, 6, 66, 0
10, 127440, Note_on_c, 6, 64, 90
10, 127529, Note_on_c, 6, 64, 0
10, 127530, Note_on_c, 6, 62, 90
10, 127559, Note_on_c, 6, 62, 0
10, 127560, Note_on_c, 6, 61, 90
10, 127589, Note_on_c, 6, 61, 0
10, 127590, Note_on_c, 6, 59, 90
10, 127619, Note_on_c, 6, 59, 0
10, 127620, Note_on_c, 6, 58, 90
10, 127649, Note_on_c, 6, 58, 0
10, 127650, Note_on_c, 6, 66, 90
10, 127679, Note_on_c, 6, 66, 0
10, 127680, Note_on_c, 6, 76, 90
10, 127799, Note_on_c, 6, 76, 0
10, 127800, Note_on_c, 6, 74, 90
10, 127829, Note_on_c, 6, 74, 0
10, 127830, Note_on_c, 6, 73, 90
10, 127859, Note_on_c, 6, 73, 0
10, 127860, Note_on_c, 6, 74, 90
10, 127889, Note_on_c, 6, 74, 0
10, 127890, Note_on_c, 6, 73, 90
10, 127919, Note_on_c, 6, 73, 0
10, 127920, Note_on_c, 6, 71, 90
10, 128009, Note_on_c, 6, 71, 0
10, 128010, Note_on_c, 6, 69, 90
10, 128039, Note_on_c, 6, 69, 0
10, 128040, Note_on_c, 6, 67, 90
10, 128069, Note_on_c, 6, 67, 0
10, 128070, Note_on_c, 6, 66, 90
10, 128099, Note_on_c, 6, 66, 0
10, 128100, Note_on_c, 6, 67, 90
10, 128129, Note_on_c, 6, 67, 0
10, 128130, Note_on_c, 6, 76, 90
10, 128159, Note_on_c, 6, 76, 0
10, 128160, Note_on_c, 6, 74, 90
10, 128189, Note_on_c, 6, 74, 0
10, 128190, Note_on_c, 6, 73, 90
10, 128219, Note_on_c, 6, 73, 0
10, 128220, Note_on_c, 6, 74, 90
10, 128249, Note_on_c, 6, 74, 0
10, 128250, Note_on_c, 6, 71, 90
10, 128279, Note_on_c, 6, 71, 0
10, 128280, Note_on_c, 6, 67, 90
10, 128309, Note_on_c, 6, 67, 0
10, 128310, Note_on_c, 6, 66, 90
10, 128339, Note_on_c, 6, 66, 0
10, 128340, Note_on_c, 6, 64, 90
10, 128369, Note_on_c, 6, 64, 0
10, 128370, Note_on_c, 6, 73, 90
10, 128399, Note_on_c, 6, 73, 0
10, 128400, Note_on_c, 6, 71, 90
10, 128429, Note_on_c, 6, 71, 0
10, 128430, Note_on_c, 6, 70, 90
10, 128459, Note_on_c, 6, 70, 0
10, 128460, Note_on_c, 6, 71, 90
10, 128489, Note_on_c, 6, 71, 0
10, 128490, Note_on_c, 6, 67, 90
10, 128519, Note_on_c, 6, 67, 0
10, 128520, Note_on_c, 6, 64, 90
10, 128549, Note_on_c, 6, 64, 0
10, 128550, Note_on_c, 6, 62, 90
10, 128579, Note_on_c, 6, 62, 0
10, 128580, Note_on_c, 6, 61, 90
10, 128609, Note_on_c, 6, 61, 0
10, 128610, Note_on_c, 6, 64, 90
10, 128639, Note_on_c, 6, 64, 0
10, 128640, Note_on_c, 6, 66, 90
10, 128669, Note_on_c, 6, 66, 0
10, 128670, Note_on_c, 6, 67, 90
10, 128699, Note_on_c, 6, 67, 0
10, 128700, Note_on_c, 6, 59, 90
10, 128729, Note_on_c, 6, 59, 0
10, 128730, Note_on_c, 6, 64, 90
10, 128759, Note_on_c, 6, 64, 0
10, 128760, Note_on_c, 6, 66, 90
10, 128789, Note_on_c, 6, 66, 0
10, 128790, Note_on_c, 6, 67, 90
10, 128819, Note_on_c, 6, 67, 0
10, 128820, Note_on_c, 6, 58, 90
10, 128849, Note_on_c, 6, 58, 0
10, 128850, Note_on_c, 6, 61, 90
10, 128879, Note_on_c, 6, 61, 0
10, 128880, Note_on_c, 6, 64, 90
10, 128909, Note_on_c, 6, 64, 0
10, 128910, Note_on_c, 6, 67, 90
10, 128939, Note_on_c, 6, 67, 0
10, 128940, Note_on_c, 6, 73, 90
10, 128969, Note_on_c, 6, 73, 0
10, 128970, Note_on_c, 6, 67, 90
10, 128999, Note_on_c, 6, 67, 0
10, 129000, Note_on_c, 6, 66, 90
10, 129029, Note_on_c, 6, 66, 0
10, 129030, Note_on_c, 6, 64, 90
10, 129059, Note_on_c, 6, 64, 0
10, 129060, Note_on_c, 6, 63, 90
10, 129089, Note_on_c, 6, 63, 0
10, 129090, Note_on_c, 6, 66, 90
10, 129119, Note_on_c, 6, 66, 0
10, 129120, Note_on_c, 6, 69, 90
10, 129149, Note_on_c, 6, 69, 0
10, 129150, Note_on_c, 6, 72, 90
10, 129179, Note_on_c, 6, 72, 0
10, 129180, Note_on_c, 6, 78, 90
10, 129209, Note_on_c, 6, 78, 0
10, 129210, Note_on_c, 6, 72, 90
10, 129239, Note_on_c, 6, 72, 0
10, 129240, Note_on_c, 6, 71, 90
10, 129269, Note_on_c, 6, 71, 0
10, 129270, Note_on_c, 6, 69, 90
10, 129299, Note_on_c, 6, 69, 0
10, 129300, Note_on_c, 6, 68, 90
10, 129329, Note_on_c, 6, 68, 0
10, 129330, Note_on_c, 6, 71, 90
10, 129359, Note_on_c, 6, 71, 0
10, 129360, Note_on_c, 6, 74, 90
10, 129389, Note_on_c, 6, 74, 0
10, 129390, Note_on_c, 6, 77, 90
10, 129419, Note_on_c, 6, 77, 0
10, 129420, Note_on_c, 6, 83, 90
10, 129599, Note_on_c, 6, 83, 0
10, 129600, Note_on_c, 6, 81, 90
10, 129629, Note_on_c, 6, 81, 0
10, 129630, Note_on_c, 6, 79, 90
10, 129659, Note_on_c, 6, 79, 0
10, 129660, Note_on_c, 6, 78, 90
10, 129689, Note_on_c, 6, 78, 0
10, 129690, Note_on_c, 6, 76, 90
10, 129719, Note_on_c, 6, 76, 0
10, 129720, Note_on_c, 6, 74, 90
10, 129749, Note_on_c, 6, 74, 0
10, 129750, Note_on_c, 6, 73, 90
10, 129779, Note_on_c, 6, 73, 0
10, 129780, Note_on_c, 6, 71, 90
10, 130019, Note_on_c, 6, 71, 0
10, 132660, Control_c, 6, 0, 0
10, 132660, Program_c, 6, 48
10, 132660, Note_on_c, 6, 67, 90
10, 132779, Note_on_c, 6, 67, 0
10, 132780, Note_on_c, 6, 67, 90
10, 132899, Note_on_c, 6, 67, 0
10, 132900, Note_on_c, 6, 69, 90
10, 133019, Note_on_c, 6, 69, 0
10, 133020, Note_on_c, 6, 67, 90
10, 133139, Note_on_c, 6, 67, 0
10, 133140, Note_on_c, 6, 69, 90
10, 133199, Note_on_c, 6, 69, 0
10, 133200, Note_on_c, 6, 71, 90
10, 133259, Note_on_c, 6, 71, 0
10, 133260, Note_on_c, 6, 72, 90
10, 133379, Note_on_c, 6, 72, 0
10, 133380, Note_on_c, 6, 72, 90
10, 133499, Note_on_c, 6, 72, 0
10, 133500, Note_on_c, 6, 71, 90
10, 133619, Note_on_c, 6, 71, 0
10, 133620, Note_on_c, 6, 72, 90
10, 133859, Note_on_c, 6, 72, 0
10, 133860, Note_on_c, 6, 74, 90
10, 133979, Note_on_c, 6, 74, 0
10, 133980, Note_on_c, 6, 76, 90
10, 134099, Note_on_c, 6, 76, 0
10, 134100, Note_on_c, 6, 72, 90
10, 134339, Note_on_c, 6, 72, 0
10, 134340, Note_on_c, 6, 71, 90
10, 134399, Note_on_c, 6, 71, 0
10, 134400, Note_on_c, 6, 72, 90
10, 134459, Note_on_c, 6, 72, 0
10, 134460, Note_on_c, 6, 74, 90
10, 134579, Note_on_c, 6, 74, 0
10, 134580, Note_on_c, 6, 69, 90
10, 134819, Note_on_c, 6, 69, 0
10, 134820, Note_on_c, 6, 74, 90
10, 134939, Note_on_c, 6, 74, 0
10, 134940, Note_on_c, 6, 74, 90
10, 135059, Note_on_c, 6, 74, 0
10, 135060, Note_on_c, 6, 72, 90
10, 135179, Note_on_c, 6, 72, 0
10, 135180, Note_on_c, 6, 71, 90
10, 135239, Note_on_c, 6, 71, 0
10, 135240, Note_on_c, 6, 69, 90
10, 135299, Note_on_c, 6, 69, 0
10, 135300, Note_on_c, 6, 69, 90
10, 135539, Note_on_c, 6, 69, 0
10, 135540, Note_on_c, 6, 67, 90
10, 135779, Note_on_c, 6, 67, 0
10, 135780, Note_on_c, 6, 67, 90
10, 135899, Note_on_c, 6, 67, 0
10, 135900, Note_on_c, 6, 67, 90
10, 136019, Note_on_c, 6, 67, 0
10, 136020, Note_on_c, 6, 69, 90
10, 136139, Note_on_c, 6, 69, 0
10, 136140, Note_on_c, 6, 67, 90
10, 136259, Note_on_c, 6, 67, 0
10, 136260, Note_on_c, 6, 69, 90
10, 136319, Note_on_c, 6, 69, 0
10, 136320, Note_on_c, 6, 71, 90
10, 136379, Note_on_c, 6, 71, 0
10, 136380, Note_on_c, 6, 72, 90
10, 136499, Note_on_c, 6, 72, 0
10, 136500, Note_on_c, 6, 72, 90
10, 136619, Note_on_c, 6, 72, 0
10, 136620, Note_on_c, 6, 71, 90
10, 136739, Note_on_c, 6, 71, 0
10, 136740, Note_on_c, 6, 72, 90
10, 136979, Note_on_c, 6, 72, 0
10, 136980, Note_on_c, 6, 74, 90
10, 137099, Note_on_c, 6, 74, 0
10, 137100, Note_on_c, 6, 76, 90
10, 137219, Note_on_c, 6, 76, 0
10, 137220, Note_on_c, 6, 72, 90
10, 137459, Note_on_c, 6, 72, 0
10, 137460, Note_on_c, 6, 71, 90
10, 137519, Note_on_c, 6, 71, 0
10, 137520, Note_on_c, 6, 72, 90
10, 137579, Note_on_c, 6, 72, 0
10, 137580, Note_on_c, 6, 74, 90
10, 137699, Note_on_c, 6, 74, 0
10, 137700, Note_on_c, 6, 69, 90
10, 137939, Note_on_c, 6, 69, 0
10, 137940, Note_on_c, 6, 74, 90
10, 138059, Note_on_c, 6, 74, 0
10, 138060, Note_on_c, 6, 74, 90
10, 138179, Note_on_c, 6, 74, 0
10, 138180, Note_on_c, 6, 72, 90
10, 138299, Note_on_c, 6, 72, 0
10, 138300, Note_on_c, 6, 71, 90
10, 138359, Note_on_c, 6, 71, 0
10, 138360, Note_on_c, 6, 69, 90
10, 138419, Note_on_c, 6, 69, 0
10, 138420, Note_on_c, 6, 69, 90
10, 138659, Note_on_c, 6, 69, 0
10, 138660, Note_on_c, 6, 67, 90
10, 138899, Note_on_c, 6, 67, 0
10, 141900, Note_on_c, 6, 66, 90
10, 141959, Note_on_c, 6, 66, 0
10, 141960, Note_on_c, 6, 68, 90
10, 142019, Note_on_c, 6, 68, 0
10, 142020, Note_on_c, 6, 69, 90
10, 142139, Note_on_c, 6, 69, 0
10, 142140, Note_on_c, 6, 68, 90
10, 142259, Note_on_c, 6, 68, 0
10, 142260, Note_on_c, 6, 66, 90
10, 142379, Note_on_c, 6, 66, 0
10, 142380, Note_on_c, 6, 66, 90
10, 142439, Note_on_c, 6, 66, 0
10, 142440, Note_on_c, 6, 68, 90
10, 142499, Note_on_c, 6, 68, 0
10, 142500, Note_on_c, 6, 69, 90
10, 142619, Note_on_c, 6, 69, 0
10, 142620, Note_on_c, 6, 68, 90
10, 142739, Note_on_c, 6, 68, 0
10, 142740, Note_on_c, 6, 66, 90
10, 142859, Note_on_c, 6, 66, 0
10, 142860, Note_on_c, 6, 73, 90
10, 142979, Note_on_c, 6, 73, 0
10, 142980, Note_on_c, 6, 71, 90
10, 143099, Note_on_c, 6, 71, 0
10, 143100, Note_on_c, 6, 69, 90
10, 143219, Note_on_c, 6, 69, 0
10, 143220, Note_on_c, 6, 68, 90
10, 143339, Note_on_c, 6, 68, 0
10, 143340, Note_on_c, 6, 68, 90
10, 143459, Note_on_c, 6, 68, 0
10, 143460, Note_on_c, 6, 69, 90
10, 143579, Note_on_c, 6, 69, 0
10, 143580, Note_on_c, 6, 69, 90
10, 143699, Note_on_c, 6, 69, 0
10, 143700, Note_on_c, 6, 71, 90
10, 143819, Note_on_c, 6, 71, 0
10, 143820, Note_on_c, 6, 71, 90
10, 143939, Note_on_c, 6, 71, 0
10, 143940, Note_on_c, 6, 73, 90
10, 144059, Note_on_c, 6, 73, 0
10, 144060, Note_on_c, 6, 73, 90
10, 144179, Note_on_c, 6, 73, 0
10, 144180, Note_on_c, 6, 71, 90
10, 144299, Note_on_c, 6, 71, 0
10, 144300, Note_on_c, 6, 69, 90
10, 144419, Note_on_c, 6, 69, 0
10, 144420, Note_on_c, 6, 68, 90
10, 144659, Note_on_c, 6, 68, 0
10, 144660, Note_on_c, 6, 61, 90
10, 144779, Note_on_c, 6, 61, 0
10, 144780, Note_on_c, 6, 73, 90
10, 144899, Note_on_c, 6, 73, 0
10, 144900, Note_on_c, 6, 71, 90
10, 145019, Note_on_c, 6, 71, 0
10, 145020, Note_on_c, 6, 69, 90
10, 145079, Note_on_c, 6, 69, 0
10, 145080, Note_on_c, 6, 68, 90
10, 145139, Note_on_c, 6, 68, 0
10, 145140, Note_on_c, 6, 68, 90
10, 145259, Note_on_c, 6, 68, 0
10, 145260, Note_on_c, 6, 73, 90
10, 145379, Note_on_c, 6, 73, 0
10, 145380, Note_on_c, 6, 71, 90
10, 145499, Note_on_c, 6, 71, 0
10, 145500, Note_on_c, 6, 69, 90
10, 145619, Note_on_c, 6, 69, 0
10, 145620, Note_on_c, 6, 68, 90
10, 145739, Note_on_c, 6, 68, 0
10, 145740, Note_on_c, 6, 68, 90
10, 145859, Note_on_c, 6, 68, 0
10, 145860, Note_on_c, 6, 69, 90
10, 145979, Note_on_c, 6, 69, 0
10, 145980, Note_on_c, 6, 69, 90
10, 146099, Note_on_c, 6, 69, 0
10, 146100, Note_on_c, 6, 71, 90
10, 146219, Note_on_c, 6, 71, 0
10, 146220, Note_on_c, 6, 71, 90
10, 146339, Note_on_c, 6, 71, 0
10, 146340, Note_on_c, 6, 73, 90
10, 146459, Note_on_c, 6, 73, 0
10, 146460, Note_on_c, 6, 73, 90
10, 146579, Note_on_c, 6, 73, 0
10, 146580, Note_on_c, 6, 71, 90
10, 146699, Note_on_c, 6, 71, 0
10, 146700, Note_on_c, 6, 69, 90
10, 146759, Note_on_c, 6, 69, 0
10, 146760, Note_on_c, 6, 68, 90
10, 146819, Note_on_c, 6, 68, 0
10, 146820, Note_on_c, 6, 68, 90
10, 147059, Note_on_c, 6, 68, 0
10, 147060, Note_on_c, 6, 66, 90
10, 147179, Note_on_c, 6, 66, 0
10, 147300, Note_on_c, 6, 78, 90
10, 147359, Note_on_c, 6, 78, 0
10, 147360, Note_on_c, 6, 78, 90
10, 147419, Note_on_c, 6, 78, 0
10, 147420, Note_on_c, 6, 78, 90
10, 147479, Note_on_c, 6, 78, 0
10, 147480, Note_on_c, 6, 78, 90
10, 147539, Note_on_c, 6, 78, 0
10, 147540, Note_on_c, 6, 74, 90
10, 147569, Note_on_c, 6, 74, 0
10, 147570, Note_on_c, 6, 76, 90
10, 147599, Note_on_c, 6, 76, 0
10, 147600, Note_on_c, 6, 78, 90
10, 147629, Note_on_c, 6, 78, 0
10, 147630, Note_on_c, 6, 79, 90
10, 147659, Note_on_c, 6, 79, 0
10, 147660, Note_on_c, 6, 81, 90
10, 147719, Note_on_c, 6, 81, 0
10, 147720, Note_on_c, 6, 79, 90
10, 147779, Note_on_c, 6, 79, 0
10, 147780, Note_on_c, 6, 78, 90
10, 147839, Note_on_c, 6, 78, 0
10, 147840, Note_on_c, 6, 79, 90
10, 147929, Note_on_c, 6, 79, 0
10, 147930, Note_on_c, 6, 81, 90
10, 147944, Note_on_c, 6, 81, 0
10, 147945, Note_on_c, 6, 83, 90
10, 147959, Note_on_c, 6, 83, 0
10, 147960, Note_on_c, 6, 81, 90
10, 148019, Note_on_c, 6, 81, 0
10, 148020, Note_on_c, 6, 79, 90
10, 148079, Note_on_c, 6, 79, 0
10, 148080, Note_on_c, 6, 79, 90
10, 148139, Note_on_c, 6, 79, 0
10, 148140, Note_on_c, 6, 79, 90
10, 148199, Note_on_c, 6, 79, 0
10, 148200, Note_on_c, 6, 79, 90
10, 148259, Note_on_c, 6, 79, 0
10, 148260, Note_on_c, 6, 76, 90
10, 148289, Note_on_c, 6, 76, 0
10, 148290, Note_on_c, 6, 74, 90
10, 148319, Note_on_c, 6, 74, 0
10, 148320, Note_on_c, 6, 76, 90
10, 148349, Note_on_c, 6, 76, 0
10, 148350, Note_on_c, 6, 78, 90
10, 148379, Note_on_c, 6, 78, 0
10, 148380, Note_on_c, 6, 79, 90
10, 148409, Note_on_c, 6, 79, 0
10, 148410, Note_on_c, 6, 78, 90
10, 148439, Note_on_c, 6, 78, 0
10, 148440, Note_on_c, 6, 81, 90
10, 148469, Note_on_c, 6, 81, 0
10, 148470, Note_on_c, 6, 79, 90
10, 148499, Note_on_c, 6, 79, 0
10, 148500, Note_on_c, 6, 78, 90
10, 148529, Note_on_c, 6, 78, 0
10, 148530, Note_on_c, 6, 76, 90
10, 148559, Note_on_c, 6, 76, 0
10, 148560, Note_on_c, 6, 78, 90
10, 148649, Note_on_c, 6, 78, 0
10, 148650, Note_on_c, 6, 79, 90
10, 148664, Note_on_c, 6, 79, 0
10, 148665, Note_on_c, 6, 81, 90
10, 148679, Note_on_c, 6, 81, 0
10, 148680, Note_on_c, 6, 79, 90
10, 148739, Note_on_c, 6, 79, 0
10, 148740, Note_on_c, 6, 78, 90
10, 148799, Note_on_c, 6, 78, 0
10, 148800, Note_on_c, 6, 80, 90
10, 148859, Note_on_c, 6, 80, 0
10, 148860, Note_on_c, 6, 81, 90
10, 148919, Note_on_c, 6, 81, 0
10, 148920, Note_on_c, 6, 83, 90
10, 148949, Note_on_c, 6, 83, 0
10, 148950, Note_on_c, 6, 85, 90
10, 148979, Note_on_c, 6, 85, 0
10, 148980, Note_on_c, 6, 86, 90
10, 149039, Note_on_c, 6, 86, 0
10, 149040, Note_on_c, 6, 85, 90
10, 149099, Note_on_c, 6, 85, 0
10, 149100, Note_on_c, 6, 83, 90
10, 149159, Note_on_c, 6, 83, 0
10, 149160, Note_on_c, 6, 81, 90
10, 149219, Note_on_c, 6, 81, 0
10, 149220, Note_on_c, 6, 80, 90
10, 149279, Note_on_c, 6, 80, 0
10, 149280, Note_on_c, 6, 81, 90
10, 149339, Note_on_c, 6, 81, 0
10, 149520, Note_on_c, 6, 79, 90
10, 149580, Note_on_c, 6, 79, 0
10, 149580, Note_on_c, 6, 78, 90
10, 149640, Note_on_c, 6, 78, 0
10, 149640, Note_on_c, 6, 76, 90
10, 149699, Note_on_c, 6, 76, 0
10, 149880, Note_on_c, 6, 76, 90
10, 149939, Note_on_c, 6, 76, 0
10, 149940, Note_on_c, 6, 74, 90
10, 149999, Note_on_c, 6, 74, 0
10, 150000, Note_on_c, 6, 73, 90
10, 150179, Note_on_c, 6, 73, 0
10, 151620, Note_on_c, 6, 78, 100
10, 151680, Note_on_c, 6, 78, 0
10, 151680, Note_on_c, 6, 74, 100
10, 151740, Note_on_c, 6, 74, 0
10, 151740, Note_on_c, 6, 76, 100
10, 151800, Note_on_c, 6, 76, 0
10, 151800, Note_on_c, 6, 78, 90
10, 151859, Note_on_c, 6, 78, 0
10, 151860, Note_on_c, 6, 81, 90
10, 151919, Note_on_c, 6, 81, 0
10, 151920, Note_on_c, 6, 78, 90
10, 151979, Note_on_c, 6, 78, 0
10, 151980, Note_on_c, 6, 79, 90
10, 152039, Note_on_c, 6, 79, 0
10, 152040, Note_on_c, 6, 74, 90
10, 152099, Note_on_c, 6, 74, 0
10, 152100, Note_on_c, 6, 79, 90
10, 152159, Note_on_c, 6, 79, 0
10, 152160, Note_on_c, 6, 78, 90
10, 152219, Note_on_c, 6, 78, 0
10, 152220, Note_on_c, 6, 81, 90
10, 152279, Note_on_c, 6, 81, 0
10, 152280, Note_on_c, 6, 78, 90
10, 152339, Note_on_c, 6, 78, 0
10, 152340, Note_on_c, 6, 74, 90
10, 152399, Note_on_c, 6, 74, 0
10, 152520, Note_on_c, 6, 73, 90
10, 152579, Note_on_c, 6, 73, 0
10, 152700, Note_on_c, 6, 79, 90
10, 152759, Note_on_c, 6, 79, 0
10, 152880, Note_on_c, 6, 78, 90
10, 152939, Note_on_c, 6, 78, 0
10, 153060, Note_on_c, 6, 78, 90
10, 153119, Note_on_c, 6, 78, 0
10, 153120, Note_on_c, 6, 78, 90
10, 153179, Note_on_c, 6, 78, 0
10, 153180, Note_on_c, 6, 78, 90
10, 153239, Note_on_c, 6, 78, 0
10, 153240, Note_on_c, 6, 78, 90
10, 153299, Note_on_c, 6, 78, 0
10, 153300, Note_on_c, 6, 74, 90
10, 153329, Note_on_c, 6, 74, 0
10, 153330, Note_on_c, 6, 76, 90
10, 153359, Note_on_c, 6, 76, 0
10, 153360, Note_on_c, 6, 78, 90
10, 153389, Note_on_c, 6, 78, 0
10, 153390, Note_on_c, 6, 79, 90
10, 153419, Note_on_c, 6, 79, 0
10, 153420, Note_on_c, 6, 81, 90
10, 153479, Note_on_c, 6, 81, 0
10, 153480, Note_on_c, 6, 79, 90
10, 153539, Note_on_c, 6, 79, 0
10, 153540, Note_on_c, 6, 78, 90
10, 153599, Note_on_c, 6, 78, 0
10, 153600, Note_on_c, 6, 79, 90
10, 153689, Note_on_c, 6, 79, 0
10, 153690, Note_on_c, 6, 81, 90
10, 153704, Note_on_c, 6, 81, 0
10, 153705, Note_on_c, 6, 83, 90
10, 153719, Note_on_c, 6, 83, 0
10, 153720, Note_on_c, 6, 81, 90
10, 153779, Note_on_c, 6, 81, 0
10, 153780, Note_on_c, 6, 79, 90
10, 153839, Note_on_c, 6, 79, 0
10, 153840, Note_on_c, 6, 79, 90
10, 153899, Note_on_c, 6, 79, 0
10, 153900, Note_on_c, 6, 79, 90
10, 153959, Note_on_c, 6, 79, 0
10, 153960, Note_on_c, 6, 79, 90
10, 154019, Note_on_c, 6, 79, 0
10, 154020, Note_on_c, 6, 76, 90
10, 154049, Note_on_c, 6, 76, 0
10, 154050, Note_on_c, 6, 74, 90
10, 154079, Note_on_c, 6, 74, 0
10, 154080, Note_on_c, 6, 76, 90
10, 154109, Note_on_c, 6, 76, 0
10, 154110, Note_on_c, 6, 78, 90
10, 154139, Note_on_c, 6, 78, 0
10, 154140, Note_on_c, 6, 79, 90
10, 154169, Note_on_c, 6, 79, 0
10, 154170, Note_on_c, 6, 78, 90
10, 154199, Note_on_c, 6, 78, 0
10, 154200, Note_on_c, 6, 81, 90
10, 154229, Note_on_c, 6, 81, 0
10, 154230, Note_on_c, 6, 79, 90
10, 154259, Note_on_c, 6, 79, 0
10, 154260, Note_on_c, 6, 78, 90
10, 154289, Note_on_c, 6, 78, 0
10, 154290, Note_on_c, 6, 76, 90
10, 154319, Note_on_c, 6, 76, 0
10, 154320, Note_on_c, 6, 78, 90
10, 154409, Note_on_c, 6, 78, 0
10, 154410, Note_on_c, 6, 79, 90
10, 154424, Note_on_c, 6, 79, 0
10, 154425, Note_on_c, 6, 81, 90
10, 154439, Note_on_c, 6, 81, 0
10, 154440, Note_on_c, 6, 79, 90
10, 154499, Note_on_c, 6, 79, 0
10, 154500, Note_on_c, 6, 78, 90
10, 154559, Note_on_c, 6, 78, 0
10, 154560, Note_on_c, 6, 80, 90
10, 154619, Note_on_c, 6, 80, 0
10, 154620, Note_on_c, 6, 81, 90
10, 154679, Note_on_c, 6, 81, 0
10, 154680, Note_on_c, 6, 83, 90
10, 154709, Note_on_c, 6, 83, 0
10, 154710, Note_on_c, 6, 85, 90
10, 154739, Note_on_c, 6, 85, 0
10, 154740, Note_on_c, 6, 86, 90
10, 154799, Note_on_c, 6, 86, 0
10, 154800, Note_on_c, 6, 85, 90
10, 154859, Note_on_c, 6, 85, 0
10, 154860, Note_on_c, 6, 83, 90
10, 154919, Note_on_c, 6, 83, 0
10, 154920, Note_on_c, 6, 81, 90
10, 154979, Note_on_c, 6, 81, 0
10, 154980, Note_on_c, 6, 80, 90
10, 155039, Note_on_c, 6, 80, 0
10, 155040, Note_on_c, 6, 81, 90
10, 155099, Note_on_c, 6, 81, 0
10, 155280, Note_on_c, 6, 79, 90
10, 155339, Note_on_c, 6, 79, 0
10, 155340, Note_on_c, 6, 78, 90
10, 155399, Note_on_c, 6, 78, 0
10, 155400, Note_on_c, 6, 76, 90
10, 155459, Note_on_c, 6, 76, 0
10, 155640, Note_on_c, 6, 76, 90
10, 155699, Note_on_c, 6, 76, 0
10, 155700, Note_on_c, 6, 74, 90
10, 155759, Note_on_c, 6, 74, 0
10, 155760, Note_on_c, 6, 73, 90
10, 155939, Note_on_c, 6, 73, 0
10, 155940, Note_on_c, 6, 73, 90
10, 155999, Note_on_c, 6, 73, 0
10, 156000, Note_on_c, 6, 73, 90
10, 156059, Note_on_c, 6, 73, 0
10, 156060, Note_on_c, 6, 73, 90
10, 156119, Note_on_c, 6, 73, 0
10, 156120, Note_on_c, 6, 73, 90
10, 156179, Note_on_c, 6, 73, 0
10, 156180, Note_on_c, 6, 76, 90
10, 156209, Note_on_c, 6, 76, 0
10, 156210, Note_on_c, 6, 74, 90
10, 156239, Note_on_c, 6, 74, 0
10, 156240, Note_on_c, 6, 73, 90
10, 156269, Note_on_c, 6, 73, 0
10, 156270, Note_on_c, 6, 71, 90
10, 156299, Note_on_c, 6, 71, 0
10, 156300, Note_on_c, 6, 69, 90
10, 156359, Note_on_c, 6, 69, 0
10, 156360, Note_on_c, 6, 74, 90
10, 156419, Note_on_c, 6, 74, 0
10, 156420, Note_on_c, 6, 76, 90
10, 156479, Note_on_c, 6, 76, 0
10, 156480, Note_on_c, 6, 78, 90
10, 156539, Note_on_c, 6, 78, 0
10, 156540, Note_on_c, 6, 76, 90
10, 156629, Note_on_c, 6, 76, 0
10, 156630, Note_on_c, 6, 78, 90
10, 156644, Note_on_c, 6, 78, 0
10, 156645, Note_on_c, 6, 79, 90
10, 156659, Note_on_c, 6, 79, 0
10, 156660, Note_on_c, 6, 78, 90
10, 156719, Note_on_c, 6, 78, 0
10, 156720, Note_on_c, 6, 78, 90
10, 156779, Note_on_c, 6, 78, 0
10, 156780, Note_on_c, 6, 78, 90
10, 156839, Note_on_c, 6, 78, 0
10, 156840, Note_on_c, 6, 78, 90
10, 156899, Note_on_c, 6, 78, 0
10, 156900, Note_on_c, 6, 81, 90
10, 156929, Note_on_c, 6, 81, 0
10, 156930, Note_on_c, 6, 79, 90
10, 156959, Note_on_c, 6, 79, 0
10, 156960, Note_on_c, 6, 78, 90
10, 156989, Note_on_c, 6, 78, 0
10, 156990, Note_on_c, 6, 76, 90
10, 157019, Note_on_c, 6, 76, 0
10, 157020, Note_on_c, 6, 74, 90
10, 157079, Note_on_c, 6, 74, 0
10, 157080, Note_on_c, 6, 79, 90
10, 157139, Note_on_c, 6, 79, 0
10, 157140, Note_on_c, 6, 81, 90
10, 157199, Note_on_c, 6, 81, 0
10, 157200, Note_on_c, 6, 83, 90
10, 157259, Note_on_c, 6, 83, 0
10, 157260, Note_on_c, 6, 81, 90
10, 157349, Note_on_c, 6, 81, 0
10, 157350, Note_on_c, 6, 83, 90
10, 157365, Note_on_c, 6, 83, 0
10, 157365, Note_on_c, 6, 84, 90
10, 157380, Note_on_c, 6, 84, 0
10, 157380, Note_on_c, 6, 83, 90
10, 157440, Note_on_c, 6, 83, 0
10, 157440, Note_on_c, 6, 81, 90
10, 157470, Note_on_c, 6, 81, 0
10, 157470, Note_on_c, 6, 79, 90
10, 157500, Note_on_c, 6, 79, 0
10, 157500, Note_on_c, 6, 78, 90
10, 157530, Note_on_c, 6, 78, 0
10, 157530, Note_on_c, 6, 76, 90
10, 157560, Note_on_c, 6, 76, 0
10, 157560, Note_on_c, 6, 81, 90
10, 157620, Note_on_c, 6, 81, 0
10, 157620, Note_on_c, 6, 74, 90
10, 157680, Note_on_c, 6, 74, 0
10, 157680, Note_on_c, 6, 79, 90
10, 157740, Note_on_c, 6, 79, 0
10, 157740, Note_on_c, 6, 78, 90
10, 157800, Note_on_c, 6, 78, 0
10, 157800, Note_on_c, 6, 79, 90
10, 157860, Note_on_c, 6, 79, 0
10, 157860, Note_on_c, 6, 76, 90
10, 157920, Note_on_c, 6, 76, 0
10, 157920, Note_on_c, 6, 74, 100
10, 157980, Note_on_c, 6, 74, 0
10, 157980, Note_on_c, 6, 72, 100
10, 158010, Note_on_c, 6, 72, 0
10, 158040, Note_on_c, 6, 71, 100
10, 158070, Note_on_c, 6, 71, 0
10, 158100, Note_on_c, 6, 69, 100
10, 158130, Note_on_c, 6, 69, 0
10, 158130, Note_on_c, 6, 67, 100
10, 158160, Note_on_c, 6, 67, 0
10, 158160, Note_on_c, 6, 66, 100
10, 158190, Note_on_c, 6, 66, 0
10, 158190, Note_on_c, 6, 64, 100
10, 158220, Note_on_c, 6, 64, 0
10, 158220, Note_on_c, 6, 66, 100
10, 158250, Note_on_c, 6, 66, 0
10, 158250, Note_on_c, 6, 67, 100
10, 158280, Note_on_c, 6, 67, 0
10, 158280, Note_on_c, 6, 69, 100
10, 158340, Note_on_c, 6, 69, 0
10, 158340, Note_on_c, 6, 72, 100
10, 158400, Note_on_c, 6, 72, 0
10, 158400, Note_on_c, 6, 71, 100
10, 158460, Note_on_c, 6, 71, 0
10, 158460, Note_on_c, 6, 69, 100
10, 158520, Note_on_c, 6, 69, 0
10, 158520, Note_on_c, 6, 67, 100
10, 158550, Note_on_c, 6, 67, 0
10, 158550, Note_on_c, 6, 66, 100
10, 158580, Note_on_c, 6, 66, 0
10, 158580, Note_on_c, 6, 67, 100
10, 158640, Note_on_c, 6, 67, 0
10, 158640, Note_on_c, 6, 69, 100
10, 158820, Note_on_c, 6, 69, 0
10, 160260, Note_on_c, 6, 73, 90
10, 160319, Note_on_c, 6, 73, 0
10, 160320, Note_on_c, 6, 69, 90
10, 160379, Note_on_c, 6, 69, 0
10, 160380, Note_on_c, 6, 71, 90
10, 160439, Note_on_c, 6, 71, 0
10, 160440, Note_on_c, 6, 73, 90
10, 160499, Note_on_c, 6, 73, 0
10, 160500, Note_on_c, 6, 76, 90
10, 160559, Note_on_c, 6, 76, 0
10, 160560, Note_on_c, 6, 74, 90
10, 160619, Note_on_c, 6, 74, 0
10, 160620, Note_on_c, 6, 76, 90
10, 160679, Note_on_c, 6, 76, 0
10, 160680, Note_on_c, 6, 78, 90
10, 160739, Note_on_c, 6, 78, 0
10, 160740, Note_on_c, 6, 79, 90
10, 160799, Note_on_c, 6, 79, 0
10, 160800, Note_on_c, 6, 78, 90
10, 160859, Note_on_c, 6, 78, 0
10, 160860, Note_on_c, 6, 81, 90
10, 160919, Note_on_c, 6, 81, 0
10, 160920, Note_on_c, 6, 73, 90
10, 160979, Note_on_c, 6, 73, 0
10, 160980, Note_on_c, 6, 74, 90
10, 161039, Note_on_c, 6, 74, 0
10, 161160, Note_on_c, 6, 74, 90
10, 161219, Note_on_c, 6, 74, 0
10, 161340, Note_on_c, 6, 68, 90
10, 161399, Note_on_c, 6, 68, 0
10, 161520, Note_on_c, 6, 69, 90
10, 161579, Note_on_c, 6, 69, 0
10, 161700, Note_on_c, 6, 73, 90
10, 161759, Note_on_c, 6, 73, 0
10, 161760, Note_on_c, 6, 73, 90
10, 161819, Note_on_c, 6, 73, 0
10, 161820, Note_on_c, 6, 73, 90
10, 161879, Note_on_c, 6, 73, 0
10, 161880, Note_on_c, 6, 73, 90
10, 161939, Note_on_c, 6, 73, 0
10, 161940, Note_on_c, 6, 76, 90
10, 161969, Note_on_c, 6, 76, 0
10, 161970, Note_on_c, 6, 74, 90
10, 161999, Note_on_c, 6, 74, 0
10, 162000, Note_on_c, 6, 73, 90
10, 162029, Note_on_c, 6, 73, 0
10, 162030, Note_on_c, 6, 71, 90
10, 162059, Note_on_c, 6, 71, 0
10, 162060, Note_on_c, 6, 69, 90
10, 162119, Note_on_c, 6, 69, 0
10, 162120, Note_on_c, 6, 74, 90
10, 162179, Note_on_c, 6, 74, 0
10, 162180, Note_on_c, 6, 76, 90
10, 162239, Note_on_c, 6, 76, 0
10, 162240, Note_on_c, 6, 78, 90
10, 162299, Note_on_c, 6, 78, 0
10, 162300, Note_on_c, 6, 76, 90
10, 162389, Note_on_c, 6, 76, 0
10, 162390, Note_on_c, 6, 78, 90
10, 162404, Note_on_c, 6, 78, 0
10, 162405, Note_on_c, 6, 79, 90
10, 162419, Note_on_c, 6, 79, 0
10, 162420, Note_on_c, 6, 78, 90
10, 162479, Note_on_c, 6, 78, 0
10, 162480, Note_on_c, 6, 78, 90
10, 162539, Note_on_c, 6, 78, 0
10, 162540, Note_on_c, 6, 78, 90
10, 162599, Note_on_c, 6, 78, 0
10, 162600, Note_on_c, 6, 78, 90
10, 162659, Note_on_c, 6, 78, 0
10, 162660, Note_on_c, 6, 81, 90
10, 162689, Note_on_c, 6, 81, 0
10, 162690, Note_on_c, 6, 79, 90
10, 162719, Note_on_c, 6, 79, 0
10, 162720, Note_on_c, 6, 78, 90
10, 162749, Note_on_c, 6, 78, 0
10, 162750, Note_on_c, 6, 76, 90
10, 162779, Note_on_c, 6, 76, 0
10, 162780, Note_on_c, 6, 74, 90
10, 162839, Note_on_c, 6, 74, 0
10, 162840, Note_on_c, 6, 79, 90
10, 162899, Note_on_c, 6, 79, 0
10, 162900, Note_on_c, 6, 81, 90
10, 162959, Note_on_c, 6, 81, 0
10, 162960, Note_on_c, 6, 83, 90
10, 163019, Note_on_c, 6, 83, 0
10, 163020, Note_on_c, 6, 81, 90
10, 163109, Note_on_c, 6, 81, 0
10, 163110, Note_on_c, 6, 83, 90
10, 163125, Note_on_c, 6, 83, 0
10, 163125, Note_on_c, 6, 84, 90
10, 163140, Note_on_c, 6, 84, 0
10, 163140, Note_on_c, 6, 83, 90
10, 163200, Note_on_c, 6, 83, 0
10, 163200, Note_on_c, 6, 81, 90
10, 163230, Note_on_c, 6, 81, 0
10, 163230, Note_on_c, 6, 79, 90
10, 163260, Note_on_c, 6, 79, 0
10, 163260, Note_on_c, 6, 78, 90
10, 163290, Note_on_c, 6, 78, 0
10, 163290, Note_on_c, 6, 76, 90
10, 163320, Note_on_c, 6, 76, 0
10, 163320, Note_on_c, 6, 81, 90
10, 163380, Note_on_c, 6, 81, 0
10, 163380, Note_on_c, 6, 74, 90
10, 163440, Note_on_c, 6, 74, 0
10, 163440, Note_on_c, 6, 79, 90
10, 163500, Note_on_c, 6, 79, 0
10, 163500, Note_on_c, 6, 78, 90
10, 163560, Note_on_c, 6, 78, 0
10, 163560, Note_on_c, 6, 79, 90
10, 163620, Note_on_c, 6, 79, 0
10, 163620, Note_on_c, 6, 76, 90
10, 163680, Note_on_c, 6, 76, 0
10, 163680, Note_on_c, 6, 74, 100
10, 163740, Note_on_c, 6, 74, 0
10, 163740, Note_on_c, 6, 72, 100
10, 163770, Note_on_c, 6, 72, 0
10, 163800, Note_on_c, 6, 71, 100
10, 163830, Note_on_c, 6, 71, 0
10, 163860, Note_on_c, 6, 69, 100
10, 163890, Note_on_c, 6, 69, 0
10, 163890, Note_on_c, 6, 67, 100
10, 163920, Note_on_c, 6, 67, 0
10, 163920, Note_on_c, 6, 66, 100
10, 163950, Note_on_c, 6, 66, 0
10, 163950, Note_on_c, 6, 64, 100
10, 163980, Note_on_c, 6, 64, 0
10, 163980, Note_on_c, 6, 66, 100
10, 164010, Note_on_c, 6, 66, 0
10, 164010, Note_on_c, 6, 67, 100
10, 164040, Note_on_c, 6, 67, 0
10, 164040, Note_on_c, 6, 69, 90
10, 164100, Note_on_c, 6, 69, 0
10, 164100, Note_on_c, 6, 72, 90
10, 164160, Note_on_c, 6, 72, 0
10, 164160, Note_on_c, 6, 71, 90
10, 164220, Note_on_c, 6, 71, 0
10, 164220, Note_on_c, 6, 69, 90
10, 164280, Note_on_c, 6, 69, 0
10, 164280, Note_on_c, 6, 67, 100
10, 164310, Note_on_c, 6, 67, 0
10, 164310, Note_on_c, 6, 66, 100
10, 164340, Note_on_c, 6, 66, 0
10, 164340, Note_on_c, 6, 67, 90
10, 164400, Note_on_c, 6, 67, 0
10, 164400, Note_on_c, 6, 69, 90
10, 164580, Note_on_c, 6, 69, 0
10, 164580, End_track
11, 0, Start_track
11, 0, MIDI_port, 0
11, 0, Title_t, "violin ii"
11, 0, Program_c, 7, 48
11, 0, Control_c, 7, 7, 127
11, 0, Control_c, 7, 10, 40
11, 0, Note_on_c, 7, 74, 90
11, 59, Note_on_c, 7, 74, 0
11, 60, Note_on_c, 7, 74, 90
11, 119, Note_on_c, 7, 74, 0
11, 120, Note_on_c, 7, 74, 90
11, 179, Note_on_c, 7, 74, 0
11, 180, Note_on_c, 7, 74, 90
11, 239, Note_on_c, 7, 74, 0
11, 240, Note_on_c, 7, 71, 90
11, 269, Note_on_c, 7, 71, 0
11, 270, Note_on_c, 7, 73, 90
11, 299, Note_on_c, 7, 73, 0
11, 300, Note_on_c, 7, 74, 90
11, 329, Note_on_c, 7, 74, 0
11, 330, Note_on_c, 7, 71, 90
11, 359, Note_on_c, 7, 71, 0
11, 360, Note_on_c, 7, 76, 90
11, 389, Note_on_c, 7, 76, 0
11, 390, Note_on_c, 7, 75, 90
11, 419, Note_on_c, 7, 75, 0
11, 420, Note_on_c, 7, 76, 90
11, 479, Note_on_c, 7, 76, 0
11, 480, Note_on_c, 7, 78, 90
11, 599, Note_on_c, 7, 78, 0
11, 600, Note_on_c, 7, 76, 90
11, 659, Note_on_c, 7, 76, 0
11, 660, Note_on_c, 7, 75, 90
11, 719, Note_on_c, 7, 75, 0
11, 720, Note_on_c, 7, 76, 90
11, 779, Note_on_c, 7, 76, 0
11, 780, Note_on_c, 7, 76, 90
11, 839, Note_on_c, 7, 76, 0
11, 840, Note_on_c, 7, 76, 90
11, 899, Note_on_c, 7, 76, 0
11, 900, Note_on_c, 7, 76, 90
11, 959, Note_on_c, 7, 76, 0
11, 960, Note_on_c, 7, 69, 90
11, 1019, Note_on_c, 7, 69, 0
11, 1020, Note_on_c, 7, 74, 90
11, 1079, Note_on_c, 7, 74, 0
11, 1080, Note_on_c, 7, 73, 90
11, 1139, Note_on_c, 7, 73, 0
11, 1140, Note_on_c, 7, 78, 90
11, 1169, Note_on_c, 7, 78, 0
11, 1170, Note_on_c, 7, 76, 90
11, 1199, Note_on_c, 7, 76, 0
11, 1200, Note_on_c, 7, 74, 90
11, 1229, Note_on_c, 7, 74, 0
11, 1230, Note_on_c, 7, 73, 90
11, 1259, Note_on_c, 7, 73, 0
11, 1260, Note_on_c, 7, 74, 90
11, 1319, Note_on_c, 7, 74, 0
11, 1320, Note_on_c, 7, 69, 90
11, 1379, Note_on_c, 7, 69, 0
11, 1380, Note_on_c, 7, 73, 90
11, 1439, Note_on_c, 7, 73, 0
11, 1440, Note_on_c, 7, 74, 90
11, 1499, Note_on_c, 7, 74, 0
11, 1500, Note_on_c, 7, 71, 90
11, 1559, Note_on_c, 7, 71, 0
11, 1560, Note_on_c, 7, 76, 90
11, 1589, Note_on_c, 7, 76, 0
11, 1590, Note_on_c, 7, 78, 90
11, 1619, Note_on_c, 7, 78, 0
11, 1620, Note_on_c, 7, 80, 90
11, 1649, Note_on_c, 7, 80, 0
11, 1650, Note_on_c, 7, 81, 90
11, 1679, Note_on_c, 7, 81, 0
11, 1680, Note_on_c, 7, 83, 90
11, 1739, Note_on_c, 7, 83, 0
11, 1740, Note_on_c, 7, 81, 90
11, 1799, Note_on_c, 7, 81, 0
11, 1800, Note_on_c, 7, 78, 90
11, 1859, Note_on_c, 7, 78, 0
11, 1860, Note_on_c, 7, 71, 90
11, 1889, Note_on_c, 7, 71, 0
11, 1890, Note_on_c, 7, 73, 90
11, 1919, Note_on_c, 7, 73, 0
11, 1920, Note_on_c, 7, 74, 90
11, 1979, Note_on_c, 7, 74, 0
11, 1980, Note_on_c, 7, 73, 90
11, 2039, Note_on_c, 7, 73, 0
11, 2220, Note_on_c, 7, 76, 90
11, 2279, Note_on_c, 7, 76, 0
11, 2280, Note_on_c, 7, 74, 90
11, 2339, Note_on_c, 7, 74, 0
11, 2340, Note_on_c, 7, 73, 90
11, 2399, Note_on_c, 7, 73, 0
11, 2580, Note_on_c, 7, 67, 90
11, 2639, Note_on_c, 7, 67, 0
11, 2640, Note_on_c, 7, 66, 90
11, 2699, Note_on_c, 7, 66, 0
11, 2700, Note_on_c, 7, 64, 90
11, 2879, Note_on_c, 7, 64, 0
11, 4320, Note_on_c, 7, 69, 100
11, 4380, Note_on_c, 7, 69, 0
11, 4380, Note_on_c, 7, 66, 100
11, 4440, Note_on_c, 7, 66, 0
11, 4440, Note_on_c, 7, 67, 100
11, 4500, Note_on_c, 7, 67, 0
11, 4500, Note_on_c, 7, 69, 90
11, 4559, Note_on_c, 7, 69, 0
11, 4560, Note_on_c, 7, 74, 90
11, 4619, Note_on_c, 7, 74, 0
11, 4620, Note_on_c, 7, 69, 90
11, 4679, Note_on_c, 7, 69, 0
11, 4680, Note_on_c, 7, 71, 90
11, 4739, Note_on_c, 7, 71, 0
11, 4740, Note_on_c, 7, 67, 90
11, 4799, Note_on_c, 7, 67, 0
11, 4800, Note_on_c, 7, 71, 90
11, 4859, Note_on_c, 7, 71, 0
11, 4860, Note_on_c, 7, 74, 90
11, 4919, Note_on_c, 7, 74, 0
11, 4920, Note_on_c, 7, 78, 90
11, 4979, Note_on_c, 7, 78, 0
11, 4980, Note_on_c, 7, 74, 90
11, 5039, Note_on_c, 7, 74, 0
11, 5040, Note_on_c, 7, 69, 90
11, 5099, Note_on_c, 7, 69, 0
11, 5220, Note_on_c, 7, 64, 90
11, 5279, Note_on_c, 7, 64, 0
11, 5400, Note_on_c, 7, 73, 90
11, 5459, Note_on_c, 7, 73, 0
11, 5580, Note_on_c, 7, 69, 90
11, 5639, Note_on_c, 7, 69, 0
11, 5760, Note_on_c, 7, 74, 90
11, 5819, Note_on_c, 7, 74, 0
11, 5820, Note_on_c, 7, 74, 90
11, 5879, Note_on_c, 7, 74, 0
11, 5880, Note_on_c, 7, 74, 90
11, 5939, Note_on_c, 7, 74, 0
11, 5940, Note_on_c, 7, 74, 90
11, 5999, Note_on_c, 7, 74, 0
11, 6000, Note_on_c, 7, 71, 90
11, 6029, Note_on_c, 7, 71, 0
11, 6030, Note_on_c, 7, 73, 90
11, 6059, Note_on_c, 7, 73, 0
11, 6060, Note_on_c, 7, 74, 90
11, 6089, Note_on_c, 7, 74, 0
11, 6090, Note_on_c, 7, 71, 90
11, 6119, Note_on_c, 7, 71, 0
11, 6120, Note_on_c, 7, 76, 90
11, 6149, Note_on_c, 7, 76, 0
11, 6150, Note_on_c, 7, 75, 90
11, 6179, Note_on_c, 7, 75, 0
11, 6180, Note_on_c, 7, 76, 90
11, 6239, Note_on_c, 7, 76, 0
11, 6240, Note_on_c, 7, 78, 90
11, 6359, Note_on_c, 7, 78, 0
11, 6360, Note_on_c, 7, 76, 90
11, 6419, Note_on_c, 7, 76, 0
11, 6420, Note_on_c, 7, 75, 90
11, 6479, Note_on_c, 7, 75, 0
11, 6480, Note_on_c, 7, 76, 90
11, 6539, Note_on_c, 7, 76, 0
11, 6540, Note_on_c, 7, 76, 90
11, 6599, Note_on_c, 7, 76, 0
11, 6600, Note_on_c, 7, 76, 90
11, 6659, Note_on_c, 7, 76, 0
11, 6660, Note_on_c, 7, 76, 90
11, 6719, Note_on_c, 7, 76, 0
11, 6720, Note_on_c, 7, 69, 90
11, 6779, Note_on_c, 7, 69, 0
11, 6780, Note_on_c, 7, 74, 90
11, 6839, Note_on_c, 7, 74, 0
11, 6840, Note_on_c, 7, 73, 90
11, 6899, Note_on_c, 7, 73, 0
11, 6900, Note_on_c, 7, 78, 90
11, 6929, Note_on_c, 7, 78, 0
11, 6930, Note_on_c, 7, 76, 90
11, 6959, Note_on_c, 7, 76, 0
11, 6960, Note_on_c, 7, 74, 90
11, 6989, Note_on_c, 7, 74, 0
11, 6990, Note_on_c, 7, 73, 90
11, 7019, Note_on_c, 7, 73, 0
11, 7020, Note_on_c, 7, 74, 90
11, 7079, Note_on_c, 7, 74, 0
11, 7080, Note_on_c, 7, 69, 90
11, 7139, Note_on_c, 7, 69, 0
11, 7140, Note_on_c, 7, 73, 90
11, 7199, Note_on_c, 7, 73, 0
11, 7200, Note_on_c, 7, 74, 90
11, 7259, Note_on_c, 7, 74, 0
11, 7260, Note_on_c, 7, 71, 90
11, 7319, Note_on_c, 7, 71, 0
11, 7320, Note_on_c, 7, 76, 90
11, 7349, Note_on_c, 7, 76, 0
11, 7350, Note_on_c, 7, 78, 90
11, 7379, Note_on_c, 7, 78, 0
11, 7380, Note_on_c, 7, 80, 90
11, 7409, Note_on_c, 7, 80, 0
11, 7410, Note_on_c, 7, 81, 90
11, 7439, Note_on_c, 7, 81, 0
11, 7440, Note_on_c, 7, 83, 90
11, 7499, Note_on_c, 7, 83, 0
11, 7500, Note_on_c, 7, 81, 90
11, 7559, Note_on_c, 7, 81, 0
11, 7560, Note_on_c, 7, 78, 90
11, 7619, Note_on_c, 7, 78, 0
11, 7620, Note_on_c, 7, 71, 90
11, 7649, Note_on_c, 7, 71, 0
11, 7650, Note_on_c, 7, 73, 90
11, 7679, Note_on_c, 7, 73, 0
11, 7680, Note_on_c, 7, 74, 90
11, 7739, Note_on_c, 7, 74, 0
11, 7740, Note_on_c, 7, 73, 90
11, 7799, Note_on_c, 7, 73, 0
11, 7980, Note_on_c, 7, 76, 90
11, 8039, Note_on_c, 7, 76, 0
11, 8040, Note_on_c, 7, 74, 90
11, 8099, Note_on_c, 7, 74, 0
11, 8100, Note_on_c, 7, 73, 90
11, 8159, Note_on_c, 7, 73, 0
11, 8340, Note_on_c, 7, 67, 90
11, 8399, Note_on_c, 7, 67, 0
11, 8400, Note_on_c, 7, 66, 90
11, 8459, Note_on_c, 7, 66, 0
11, 8460, Note_on_c, 7, 64, 90
11, 8639, Note_on_c, 7, 64, 0
11, 8640, Note_on_c, 7, 69, 90
11, 8699, Note_on_c, 7, 69, 0
11, 8700, Note_on_c, 7, 69, 90
11, 8759, Note_on_c, 7, 69, 0
11, 8760, Note_on_c, 7, 69, 90
11, 8819, Note_on_c, 7, 69, 0
11, 8820, Note_on_c, 7, 69, 90
11, 8849, Note_on_c, 7, 69, 0
11, 8850, Note_on_c, 7, 71, 90
11, 8879, Note_on_c, 7, 71, 0
11, 8880, Note_on_c, 7, 73, 90
11, 8909, Note_on_c, 7, 73, 0
11, 8910, Note_on_c, 7, 74, 90
11, 8939, Note_on_c, 7, 74, 0
11, 8940, Note_on_c, 7, 76, 90
11, 9059, Note_on_c, 7, 76, 0
11, 9060, Note_on_c, 7, 74, 90
11, 9119, Note_on_c, 7, 74, 0
11, 9120, Note_on_c, 7, 73, 90
11, 9179, Note_on_c, 7, 73, 0
11, 9180, Note_on_c, 7, 74, 90
11, 9239, Note_on_c, 7, 74, 0
11, 9240, Note_on_c, 7, 71, 90
11, 9299, Note_on_c, 7, 71, 0
11, 9300, Note_on_c, 7, 69, 90
11, 9419, Note_on_c, 7, 69, 0
11, 9420, Note_on_c, 7, 74, 90
11, 9479, Note_on_c, 7, 74, 0
11, 9480, Note_on_c, 7, 74, 90
11, 9539, Note_on_c, 7, 74, 0
11, 9540, Note_on_c, 7, 74, 90
11, 9569, Note_on_c, 7, 74, 0
11, 9570, Note_on_c, 7, 76, 90
11, 9599, Note_on_c, 7, 76, 0
11, 9600, Note_on_c, 7, 78, 90
11, 9629, Note_on_c, 7, 78, 0
11, 9630, Note_on_c, 7, 79, 90
11, 9659, Note_on_c, 7, 79, 0
11, 9660, Note_on_c, 7, 81, 90
11, 9779, Note_on_c, 7, 81, 0
11, 9780, Note_on_c, 7, 79, 90
11, 9839, Note_on_c, 7, 79, 0
11, 9840, Note_on_c, 7, 78, 90
11, 9899, Note_on_c, 7, 78, 0
11, 9900, Note_on_c, 7, 79, 90
11, 9959, Note_on_c, 7, 79, 0
11, 9960, Note_on_c, 7, 72, 90
11, 10019, Note_on_c, 7, 72, 0
11, 10020, Note_on_c, 7, 74, 90
11, 10139, Note_on_c, 7, 74, 0
11, 10140, Note_on_c, 7, 76, 90
11, 10199, Note_on_c, 7, 76, 0
11, 10200, Note_on_c, 7, 71, 90
11, 10259, Note_on_c, 7, 71, 0
11, 10260, Note_on_c, 7, 73, 90
11, 10319, Note_on_c, 7, 73, 0
11, 10320, Note_on_c, 7, 74, 90
11, 10349, Note_on_c, 7, 74, 0
11, 10350, Note_on_c, 7, 73, 90
11, 10379, Note_on_c, 7, 73, 0
11, 10380, Note_on_c, 7, 74, 90
11, 10499, Note_on_c, 7, 74, 0
11, 10500, Note_on_c, 7, 76, 90
11, 10559, Note_on_c, 7, 76, 0
11, 10560, Note_on_c, 7, 73, 90
11, 10619, Note_on_c, 7, 73, 0
11, 10620, Note_on_c, 7, 69, 100
11, 10680, Note_on_c, 7, 69, 0
11, 10680, Note_on_c, 7, 69, 100
11, 10710, Note_on_c, 7, 69, 0
11, 10740, Note_on_c, 7, 67, 100
11, 10770, Note_on_c, 7, 67, 0
11, 10800, Note_on_c, 7, 66, 100
11, 10830, Note_on_c, 7, 66, 0
11, 10830, Note_on_c, 7, 64, 100
11, 10860, Note_on_c, 7, 64, 0
11, 10860, Note_on_c, 7, 62, 100
11, 10890, Note_on_c, 7, 62, 0
11, 10890, Note_on_c, 7, 61, 100
11, 10920, Note_on_c, 7, 61, 0
11, 10920, Note_on_c, 7, 62, 100
11, 10950, Note_on_c, 7, 62, 0
11, 10950, Note_on_c, 7, 64, 100
11, 10980, Note_on_c, 7, 64, 0
11, 10980, Note_on_c, 7, 66, 100
11, 11040, Note_on_c, 7, 66, 0
11, 11040, Note_on_c, 7, 69, 100
11, 11100, Note_on_c, 7, 69, 0
11, 11100, Note_on_c, 7, 67, 100
11, 11160, Note_on_c, 7, 67, 0
11, 11160, Note_on_c, 7, 66, 100
11, 11220, Note_on_c, 7, 66, 0
11, 11220, Note_on_c, 7, 62, 100
11, 11250, Note_on_c, 7, 62, 0
11, 11250, Note_on_c, 7, 61, 100
11, 11280, Note_on_c, 7, 61, 0
11, 11280, Note_on_c, 7, 62, 100
11, 11310, Note_on_c, 7, 62, 0
11, 11310, Note_on_c, 7, 64, 100
11, 11340, Note_on_c, 7, 64, 0
11, 11340, Note_on_c, 7, 66, 100
11, 11520, Note_on_c, 7, 66, 0
11, 12960, Note_on_c, 7, 64, 90
11, 13019, Note_on_c, 7, 64, 0
11, 13020, Note_on_c, 7, 61, 90
11, 13079, Note_on_c, 7, 61, 0
11, 13080, Note_on_c, 7, 62, 90
11, 13139, Note_on_c, 7, 62, 0
11, 13140, Note_on_c, 7, 64, 90
11, 13199, Note_on_c, 7, 64, 0
11, 13200, Note_on_c, 7, 67, 90
11, 13259, Note_on_c, 7, 67, 0
11, 13260, Note_on_c, 7, 66, 90
11, 13319, Note_on_c, 7, 66, 0
11, 13320, Note_on_c, 7, 67, 90
11, 13379, Note_on_c, 7, 67, 0
11, 13380, Note_on_c, 7, 62, 90
11, 13439, Note_on_c, 7, 62, 0
11, 13440, Note_on_c, 7, 69, 90
11, 13499, Note_on_c, 7, 69, 0
11, 13500, Note_on_c, 7, 69, 90
11, 13559, Note_on_c, 7, 69, 0
11, 13560, Note_on_c, 7, 74, 90
11, 13619, Note_on_c, 7, 74, 0
11, 13620, Note_on_c, 7, 69, 90
11, 13679, Note_on_c, 7, 69, 0
11, 13680, Note_on_c, 7, 69, 90
11, 13739, Note_on_c, 7, 69, 0
11, 13860, Note_on_c, 7, 71, 90
11, 13919, Note_on_c, 7, 71, 0
11, 14040, Note_on_c, 7, 62, 90
11, 14099, Note_on_c, 7, 62, 0
11, 14220, Note_on_c, 7, 64, 90
11, 14279, Note_on_c, 7, 64, 0
11, 14400, Note_on_c, 7, 69, 90
11, 14459, Note_on_c, 7, 69, 0
11, 14460, Note_on_c, 7, 69, 90
11, 14519, Note_on_c, 7, 69, 0
11, 14520, Note_on_c, 7, 69, 90
11, 14579, Note_on_c, 7, 69, 0
11, 14580, Note_on_c, 7, 69, 90
11, 14609, Note_on_c, 7, 69, 0
11, 14610, Note_on_c, 7, 71, 90
11, 14639, Note_on_c, 7, 71, 0
11, 14640, Note_on_c, 7, 73, 90
11, 14669, Note_on_c, 7, 73, 0
11, 14670, Note_on_c, 7, 74, 90
11, 14699, Note_on_c, 7, 74, 0
11, 14700, Note_on_c, 7, 76, 90
11, 14819, Note_on_c, 7, 76, 0
11, 14820, Note_on_c, 7, 74, 90
11, 14879, Note_on_c, 7, 74, 0
11, 14880, Note_on_c, 7, 73, 90
11, 14939, Note_on_c, 7, 73, 0
11, 14940, Note_on_c, 7, 74, 90
11, 14999, Note_on_c, 7, 74, 0
11, 15000, Note_on_c, 7, 71, 90
11, 15059, Note_on_c, 7, 71, 0
11, 15060, Note_on_c, 7, 69, 90
11, 15179, Note_on_c, 7, 69, 0
11, 15180, Note_on_c, 7, 74, 90
11, 15239, Note_on_c, 7, 74, 0
11, 15240, Note_on_c, 7, 74, 90
11, 15299, Note_on_c, 7, 74, 0
11, 15300, Note_on_c, 7, 74, 90
11, 15329, Note_on_c, 7, 74, 0
11, 15330, Note_on_c, 7, 76, 90
11, 15359, Note_on_c, 7, 76, 0
11, 15360, Note_on_c, 7, 78, 90
11, 15389, Note_on_c, 7, 78, 0
11, 15390, Note_on_c, 7, 79, 90
11, 15419, Note_on_c, 7, 79, 0
11, 15420, Note_on_c, 7, 81, 90
11, 15539, Note_on_c, 7, 81, 0
11, 15540, Note_on_c, 7, 79, 90
11, 15599, Note_on_c, 7, 79, 0
11, 15600, Note_on_c, 7, 78, 90
11, 15659, Note_on_c, 7, 78, 0
11, 15660, Note_on_c, 7, 79, 90
11, 15719, Note_on_c, 7, 79, 0
11, 15720, Note_on_c, 7, 72, 90
11, 15779, Note_on_c, 7, 72, 0
11, 15780, Note_on_c, 7, 74, 90
11, 15899, Note_on_c, 7, 74, 0
11, 15900, Note_on_c, 7, 76, 90
11, 15959, Note_on_c, 7, 76, 0
11, 15960, Note_on_c, 7, 71, 90
11, 16019, Note_on_c, 7, 71, 0
11, 16020, Note_on_c, 7, 73, 90
11, 16079, Note_on_c, 7, 73, 0
11, 16080, Note_on_c, 7, 74, 90
11, 16109, Note_on_c, 7, 74, 0
11, 16110, Note_on_c, 7, 73, 90
11, 16139, Note_on_c, 7, 73, 0
11, 16140, Note_on_c, 7, 74, 90
11, 16259, Note_on_c, 7, 74, 0
11, 16260, Note_on_c, 7, 76, 90
11, 16319, Note_on_c, 7, 76, 0
11, 16320, Note_on_c, 7, 73, 90
11, 16379, Note_on_c, 7, 73, 0
11, 16380, Note_on_c, 7, 69, 100
11, 16440, Note_on_c, 7, 69, 0
11, 16440, Note_on_c, 7, 69, 100
11, 16470, Note_on_c, 7, 69, 0
11, 16500, Note_on_c, 7, 67, 100
11, 16530, Note_on_c, 7, 67, 0
11, 16560, Note_on_c, 7, 66, 100
11, 16590, Note_on_c, 7, 66, 0
11, 16590, Note_on_c, 7, 64, 100
11, 16620, Note_on_c, 7, 64, 0
11, 16620, Note_on_c, 7, 62, 100
11, 16650, Note_on_c, 7, 62, 0
11, 16650, Note_on_c, 7, 61, 100
11, 16680, Note_on_c, 7, 61, 0
11, 16680, Note_on_c, 7, 62, 100
11, 16710, Note_on_c, 7, 62, 0
11, 16710, Note_on_c, 7, 64, 100
11, 16740, Note_on_c, 7, 64, 0
11, 16740, Note_on_c, 7, 66, 100
11, 16800, Note_on_c, 7, 66, 0
11, 16800, Note_on_c, 7, 69, 100
11, 16860, Note_on_c, 7, 69, 0
11, 16860, Note_on_c, 7, 67, 100
11, 16920, Note_on_c, 7, 67, 0
11, 16920, Note_on_c, 7, 66, 100
11, 16980, Note_on_c, 7, 66, 0
11, 16980, Note_on_c, 7, 62, 100
11, 17010, Note_on_c, 7, 62, 0
11, 17010, Note_on_c, 7, 61, 100
11, 17040, Note_on_c, 7, 61, 0
11, 17040, Note_on_c, 7, 62, 100
11, 17070, Note_on_c, 7, 62, 0
11, 17070, Note_on_c, 7, 64, 100
11, 17100, Note_on_c, 7, 64, 0
11, 17100, Note_on_c, 7, 66, 90
11, 17279, Note_on_c, 7, 66, 0
11, 19740, Note_on_c, 7, 69, 90
11, 19799, Note_on_c, 7, 69, 0
11, 19800, Note_on_c, 7, 71, 90
11, 19859, Note_on_c, 7, 71, 0
11, 19860, Note_on_c, 7, 73, 90
11, 19919, Note_on_c, 7, 73, 0
11, 19920, Note_on_c, 7, 74, 90
11, 19979, Note_on_c, 7, 74, 0
11, 19980, Note_on_c, 7, 76, 90
11, 20099, Note_on_c, 7, 76, 0
11, 20100, Note_on_c, 7, 76, 90
11, 20219, Note_on_c, 7, 76, 0
11, 20220, Note_on_c, 7, 69, 90
11, 20339, Note_on_c, 7, 69, 0
11, 20340, Note_on_c, 7, 78, 90
11, 20579, Note_on_c, 7, 78, 0
11, 20580, Note_on_c, 7, 78, 90
11, 20699, Note_on_c, 7, 78, 0
11, 20700, Note_on_c, 7, 76, 90
11, 20819, Note_on_c, 7, 76, 0
11, 20940, Note_on_c, 7, 68, 90
11, 20999, Note_on_c, 7, 68, 0
11, 21000, Note_on_c, 7, 69, 90
11, 21059, Note_on_c, 7, 69, 0
11, 21060, Note_on_c, 7, 71, 90
11, 21119, Note_on_c, 7, 71, 0
11, 21120, Note_on_c, 7, 73, 90
11, 21179, Note_on_c, 7, 73, 0
11, 21180, Note_on_c, 7, 74, 90
11, 21299, Note_on_c, 7, 74, 0
11, 21300, Note_on_c, 7, 74, 90
11, 21419, Note_on_c, 7, 74, 0
11, 21540, Note_on_c, 7, 69, 90
11, 21599, Note_on_c, 7, 69, 0
11, 21600, Note_on_c, 7, 71, 90
11, 21659, Note_on_c, 7, 71, 0
11, 21660, Note_on_c, 7, 73, 90
11, 21719, Note_on_c, 7, 73, 0
11, 21720, Note_on_c, 7, 74, 90
11, 21779, Note_on_c, 7, 74, 0
11, 21780, Note_on_c, 7, 76, 90
11, 21839, Note_on_c, 7, 76, 0
11, 21840, Note_on_c, 7, 74, 90
11, 21899, Note_on_c, 7, 74, 0
11, 21900, Note_on_c, 7, 76, 90
11, 22019, Note_on_c, 7, 76, 0
11, 22140, Note_on_c, 7, 78, 90
11, 22199, Note_on_c, 7, 78, 0
11, 22200, Note_on_c, 7, 76, 90
11, 22259, Note_on_c, 7, 76, 0
11, 22260, Note_on_c, 7, 74, 90
11, 22319, Note_on_c, 7, 74, 0
11, 22320, Note_on_c, 7, 73, 90
11, 22379, Note_on_c, 7, 73, 0
11, 22380, Note_on_c, 7, 71, 90
11, 22439, Note_on_c, 7, 71, 0
11, 22440, Note_on_c, 7, 69, 90
11, 22499, Note_on_c, 7, 69, 0
11, 22500, Note_on_c, 7, 68, 90
11, 22619, Note_on_c, 7, 68, 0
11, 22620, Note_on_c, 7, 71, 90
11, 22739, Note_on_c, 7, 71, 0
11, 22740, Note_on_c, 7, 74, 90
11, 22979, Note_on_c, 7, 74, 0
11, 22980, Note_on_c, 7, 73, 90
11, 23039, Note_on_c, 7, 73, 0
11, 23040, Note_on_c, 7, 71, 90
11, 23099, Note_on_c, 7, 71, 0
11, 23100, Note_on_c, 7, 69, 90
11, 23219, Note_on_c, 7, 69, 0
11, 23280, Note_on_c, 7, 68, 90
11, 23339, Note_on_c, 7, 68, 0
11, 23340, Note_on_c, 7, 69, 90
11, 23399, Note_on_c, 7, 69, 0
11, 23400, Note_on_c, 7, 71, 90
11, 23459, Note_on_c, 7, 71, 0
11, 23460, Note_on_c, 7, 73, 90
11, 23519, Note_on_c, 7, 73, 0
11, 23520, Note_on_c, 7, 71, 90
11, 23579, Note_on_c, 7, 71, 0
11, 23580, Note_on_c, 7, 73, 90
11, 23639, Note_on_c, 7, 73, 0
11, 23640, Note_on_c, 7, 75, 90
11, 23699, Note_on_c, 7, 75, 0
11, 23700, Note_on_c, 7, 76, 90
11, 23819, Note_on_c, 7, 76, 0
11, 23820, Note_on_c, 7, 75, 90
11, 23909, Note_on_c, 7, 75, 0
11, 23910, Note_on_c, 7, 76, 90
11, 23939, Note_on_c, 7, 76, 0
11, 23940, Note_on_c, 7, 76, 90
11, 24059, Note_on_c, 7, 76, 0
11, 24060, Note_on_c, 7, 71, 90
11, 24179, Note_on_c, 7, 71, 0
11, 24180, Note_on_c, 7, 76, 90
11, 24359, Note_on_c, 7, 76, 0
11, 24360, Note_on_c, 7, 74, 90
11, 24419, Note_on_c, 7, 74, 0
11, 24420, Note_on_c, 7, 76, 90
11, 24599, Note_on_c, 7, 76, 0
11, 24600, Note_on_c, 7, 78, 90
11, 24659, Note_on_c, 7, 78, 0
11, 24660, Note_on_c, 7, 74, 90
11, 24779, Note_on_c, 7, 74, 0
11, 24780, Note_on_c, 7, 74, 90
11, 24839, Note_on_c, 7, 74, 0
11, 24840, Note_on_c, 7, 73, 90
11, 24899, Note_on_c, 7, 73, 0
11, 24900, Note_on_c, 7, 74, 90
11, 24959, Note_on_c, 7, 74, 0
11, 24960, Note_on_c, 7, 71, 90
11, 25019, Note_on_c, 7, 71, 0
11, 25020, Note_on_c, 7, 73, 90
11, 25139, Note_on_c, 7, 73, 0
11, 25140, Note_on_c, 7, 77, 90
11, 25259, Note_on_c, 7, 77, 0
11, 25260, Note_on_c, 7, 80, 90
11, 25439, Note_on_c, 7, 80, 0
11, 25440, Note_on_c, 7, 77, 90
11, 25499, Note_on_c, 7, 77, 0
11, 25500, Note_on_c, 7, 78, 90
11, 25619, Note_on_c, 7, 78, 0
11, 25620, Note_on_c, 7, 72, 90
11, 25679, Note_on_c, 7, 72, 0
11, 25680, Note_on_c, 7, 73, 90
11, 25739, Note_on_c, 7, 73, 0
11, 25740, Note_on_c, 7, 75, 90
11, 25859, Note_on_c, 7, 75, 0
11, 25860, Note_on_c, 7, 68, 90
11, 25979, Note_on_c, 7, 68, 0
11, 25980, Note_on_c, 7, 78, 90
11, 26219, Note_on_c, 7, 78, 0
11, 26220, Note_on_c, 7, 76, 90
11, 26279, Note_on_c, 7, 76, 0
11, 26280, Note_on_c, 7, 75, 90
11, 26339, Note_on_c, 7, 75, 0
11, 26340, Note_on_c, 7, 76, 90
11, 26399, Note_on_c, 7, 76, 0
11, 26400, Note_on_c, 7, 78, 90
11, 26459, Note_on_c, 7, 78, 0
11, 26460, Note_on_c, 7, 75, 90
11, 26639, Note_on_c, 7, 75, 0
11, 26640, Note_on_c, 7, 73, 90
11, 26699, Note_on_c, 7, 73, 0
11, 26700, Note_on_c, 7, 75, 90
11, 26759, Note_on_c, 7, 75, 0
11, 26760, Note_on_c, 7, 76, 90
11, 26819, Note_on_c, 7, 76, 0
11, 26820, Note_on_c, 7, 73, 90
11, 26939, Note_on_c, 7, 73, 0
11, 26940, Note_on_c, 7, 75, 90
11, 26999, Note_on_c, 7, 75, 0
11, 27000, Note_on_c, 7, 76, 90
11, 27059, Note_on_c, 7, 76, 0
11, 27060, Note_on_c, 7, 78, 90
11, 27239, Note_on_c, 7, 78, 0
11, 27240, Note_on_c, 7, 72, 90
11, 27269, Note_on_c, 7, 72, 0
11, 27270, Note_on_c, 7, 73, 90
11, 27299, Note_on_c, 7, 73, 0
11, 27300, Note_on_c, 7, 75, 90
11, 27359, Note_on_c, 7, 75, 0
11, 27360, Note_on_c, 7, 68, 90
11, 27419, Note_on_c, 7, 68, 0
11, 27420, Note_on_c, 7, 76, 90
11, 27659, Note_on_c, 7, 76, 0
11, 27660, Note_on_c, 7, 75, 90
11, 27719, Note_on_c, 7, 75, 0
11, 27720, Note_on_c, 7, 73, 90
11, 27779, Note_on_c, 7, 73, 0
11, 27780, Note_on_c, 7, 75, 90
11, 27839, Note_on_c, 7, 75, 0
11, 27840, Note_on_c, 7, 78, 90
11, 27899, Note_on_c, 7, 78, 0
11, 27900, Note_on_c, 7, 72, 90
11, 28019, Note_on_c, 7, 72, 0
11, 28080, Note_on_c, 7, 80, 90
11, 28139, Note_on_c, 7, 80, 0
11, 28140, Note_on_c, 7, 73, 90
11, 28259, Note_on_c, 7, 73, 0
11, 28260, Note_on_c, 7, 78, 90
11, 28319, Note_on_c, 7, 78, 0
11, 28320, Note_on_c, 7, 75, 90
11, 28379, Note_on_c, 7, 75, 0
11, 28380, Note_on_c, 7, 76, 90
11, 28499, Note_on_c, 7, 76, 0
11, 28500, Note_on_c, 7, 75, 90
11, 28619, Note_on_c, 7, 75, 0
11, 28620, Note_on_c, 7, 73, 90
11, 28739, Note_on_c, 7, 73, 0
11, 32460, Note_on_c, 7, 64, 90
11, 32579, Note_on_c, 7, 64, 0
11, 32580, Note_on_c, 7, 66, 90
11, 32699, Note_on_c, 7, 66, 0
11, 32700, Note_on_c, 7, 66, 90
11, 32759, Note_on_c, 7, 66, 0
11, 32760, Note_on_c, 7, 64, 90
11, 32819, Note_on_c, 7, 64, 0
11, 32820, Note_on_c, 7, 62, 90
11, 32879, Note_on_c, 7, 62, 0
11, 32880, Note_on_c, 7, 67, 90
11, 32939, Note_on_c, 7, 67, 0
11, 32940, Note_on_c, 7, 64, 90
11, 32999, Note_on_c, 7, 64, 0
11, 33000, Note_on_c, 7, 61, 90
11, 33059, Note_on_c, 7, 61, 0
11, 33060, Note_on_c, 7, 69, 90
11, 33119, Note_on_c, 7, 69, 0
11, 33120, Note_on_c, 7, 67, 90
11, 33149, Note_on_c, 7, 67, 0
11, 33150, Note_on_c, 7, 66, 90
11, 33179, Note_on_c, 7, 66, 0
11, 33180, Note_on_c, 7, 67, 90
11, 33239, Note_on_c, 7, 67, 0
11, 33240, Note_on_c, 7, 64, 90
11, 33299, Note_on_c, 7, 64, 0
11, 33300, Note_on_c, 7, 66, 90
11, 33539, Note_on_c, 7, 66, 0
11, 33540, Note_on_c, 7, 69, 90
11, 33659, Note_on_c, 7, 69, 0
11, 33660, Note_on_c, 7, 69, 90
11, 33779, Note_on_c, 7, 69, 0
11, 33780, Note_on_c, 7, 74, 90
11, 33839, Note_on_c, 7, 74, 0
11, 33840, Note_on_c, 7, 73, 90
11, 33899, Note_on_c, 7, 73, 0
11, 33900, Note_on_c, 7, 71, 90
11, 34019, Note_on_c, 7, 71, 0
11, 34020, Note_on_c, 7, 71, 90
11, 34079, Note_on_c, 7, 71, 0
11, 34080, Note_on_c, 7, 69, 90
11, 34199, Note_on_c, 7, 69, 0
11, 34200, Note_on_c, 7, 68, 90
11, 34259, Note_on_c, 7, 68, 0
11, 34260, Note_on_c, 7, 64, 90
11, 34379, Note_on_c, 7, 64, 0
11, 34380, Note_on_c, 7, 66, 90
11, 34439, Note_on_c, 7, 66, 0
11, 34440, Note_on_c, 7, 67, 90
11, 34499, Note_on_c, 7, 67, 0
11, 34500, Note_on_c, 7, 69, 90
11, 34559, Note_on_c, 7, 69, 0
11, 34560, Note_on_c, 7, 71, 90
11, 34679, Note_on_c, 7, 71, 0
11, 34680, Note_on_c, 7, 69, 90
11, 34709, Note_on_c, 7, 69, 0
11, 34710, Note_on_c, 7, 68, 90
11, 34739, Note_on_c, 7, 68, 0
11, 34740, Note_on_c, 7, 69, 90
11, 34859, Note_on_c, 7, 69, 0
11, 34860, Note_on_c, 7, 68, 100
11, 34920, Note_on_c, 7, 68, 0
11, 34920, Note_on_c, 7, 66, 100
11, 34980, Note_on_c, 7, 66, 0
11, 34980, Note_on_c, 7, 64, 90
11, 35159, Note_on_c, 7, 64, 0
11, 35160, Note_on_c, 7, 63, 90
11, 35219, Note_on_c, 7, 63, 0
11, 35220, Note_on_c, 7, 59, 90
11, 35339, Note_on_c, 7, 59, 0
11, 35340, Note_on_c, 7, 61, 90
11, 35399, Note_on_c, 7, 61, 0
11, 35400, Note_on_c, 7, 63, 90
11, 35459, Note_on_c, 7, 63, 0
11, 35460, Note_on_c, 7, 64, 90
11, 35579, Note_on_c, 7, 64, 0
11, 35580, Note_on_c, 7, 66, 90
11, 35699, Note_on_c, 7, 66, 0
11, 35700, Note_on_c, 7, 64, 90
11, 35819, Note_on_c, 7, 64, 0
11, 35820, Note_on_c, 7, 64, 90
11, 35879, Note_on_c, 7, 64, 0
11, 35880, Note_on_c, 7, 67, 90
11, 35939, Note_on_c, 7, 67, 0
11, 35940, Note_on_c, 7, 66, 90
11, 35999, Note_on_c, 7, 66, 0
11, 36000, Note_on_c, 7, 64, 90
11, 36059, Note_on_c, 7, 64, 0
11, 36060, Note_on_c, 7, 63, 90
11, 36119, Note_on_c, 7, 63, 0
11, 36120, Note_on_c, 7, 65, 90
11, 36179, Note_on_c, 7, 65, 0
11, 36180, Note_on_c, 7, 66, 90
11, 36239, Note_on_c, 7, 66, 0
11, 36240, Note_on_c, 7, 68, 90
11, 36299, Note_on_c, 7, 68, 0
11, 36300, Note_on_c, 7, 69, 90
11, 36539, Note_on_c, 7, 69, 0
11, 36540, Note_on_c, 7, 67, 90
11, 36779, Note_on_c, 7, 67, 0
11, 36780, Note_on_c, 7, 66, 90
11, 37019, Note_on_c, 7, 66, 0
11, 37020, Note_on_c, 7, 64, 90
11, 37079, Note_on_c, 7, 64, 0
11, 37080, Note_on_c, 7, 62, 90
11, 37139, Note_on_c, 7, 62, 0
11, 37140, Note_on_c, 7, 64, 90
11, 37259, Note_on_c, 7, 64, 0
11, 132660, Note_on_c, 7, 62, 90
11, 132779, Note_on_c, 7, 62, 0
11, 132780, Note_on_c, 7, 64, 90
11, 132899, Note_on_c, 7, 64, 0
11, 132900, Note_on_c, 7, 62, 90
11, 133019, Note_on_c, 7, 62, 0
11, 133020, Note_on_c, 7, 62, 90
11, 133139, Note_on_c, 7, 62, 0
11, 133140, Note_on_c, 7, 64, 90
11, 133259, Note_on_c, 7, 64, 0
11, 133260, Note_on_c, 7, 65, 90
11, 133379, Note_on_c, 7, 65, 0
11, 133380, Note_on_c, 7, 67, 90
11, 133619, Note_on_c, 7, 67, 0
11, 133620, Note_on_c, 7, 67, 90
11, 133859, Note_on_c, 7, 67, 0
11, 133860, Note_on_c, 7, 71, 90
11, 133919, Note_on_c, 7, 71, 0
11, 133920, Note_on_c, 7, 69, 90
11, 133979, Note_on_c, 7, 69, 0
11, 133980, Note_on_c, 7, 71, 90
11, 134099, Note_on_c, 7, 71, 0
11, 134100, Note_on_c, 7, 69, 90
11, 134339, Note_on_c, 7, 69, 0
11, 134340, Note_on_c, 7, 67, 90
11, 134459, Note_on_c, 7, 67, 0
11, 134460, Note_on_c, 7, 67, 90
11, 134579, Note_on_c, 7, 67, 0
11, 134580, Note_on_c, 7, 66, 90
11, 134819, Note_on_c, 7, 66, 0
11, 134820, Note_on_c, 7, 66, 90
11, 134939, Note_on_c, 7, 66, 0
11, 134940, Note_on_c, 7, 67, 90
11, 135059, Note_on_c, 7, 67, 0
11, 135060, Note_on_c, 7, 67, 90
11, 135179, Note_on_c, 7, 67, 0
11, 135180, Note_on_c, 7, 67, 90
11, 135299, Note_on_c, 7, 67, 0
11, 135300, Note_on_c, 7, 67, 90
11, 135419, Note_on_c, 7, 67, 0
11, 135420, Note_on_c, 7, 66, 90
11, 135539, Note_on_c, 7, 66, 0
11, 135540, Note_on_c, 7, 62, 90
11, 135779, Note_on_c, 7, 62, 0
11, 135780, Note_on_c, 7, 64, 90
11, 135899, Note_on_c, 7, 64, 0
11, 135900, Note_on_c, 7, 59, 90
11, 135959, Note_on_c, 7, 59, 0
11, 135960, Note_on_c, 7, 61, 90
11, 136019, Note_on_c, 7, 61, 0
11, 136020, Note_on_c, 7, 62, 90
11, 136079, Note_on_c, 7, 62, 0
11, 136080, Note_on_c, 7, 60, 90
11, 136139, Note_on_c, 7, 60, 0
11, 136140, Note_on_c, 7, 59, 90
11, 136259, Note_on_c, 7, 59, 0
11, 136260, Note_on_c, 7, 60, 90
11, 136319, Note_on_c, 7, 60, 0
11, 136320, Note_on_c, 7, 62, 90
11, 136379, Note_on_c, 7, 62, 0
11, 136380, Note_on_c, 7, 60, 90
11, 136439, Note_on_c, 7, 60, 0
11, 136440, Note_on_c, 7, 62, 90
11, 136499, Note_on_c, 7, 62, 0
11, 136500, Note_on_c, 7, 64, 90
11, 136619, Note_on_c, 7, 64, 0
11, 136620, Note_on_c, 7, 62, 90
11, 136739, Note_on_c, 7, 62, 0
11, 136740, Note_on_c, 7, 60, 90
11, 136979, Note_on_c, 7, 60, 0
11, 136980, Note_on_c, 7, 66, 90
11, 137099, Note_on_c, 7, 66, 0
11, 137100, Note_on_c, 7, 68, 90
11, 137219, Note_on_c, 7, 68, 0
11, 137220, Note_on_c, 7, 64, 90
11, 137459, Note_on_c, 7, 64, 0
11, 137460, Note_on_c, 7, 67, 90
11, 137579, Note_on_c, 7, 67, 0
11, 137580, Note_on_c, 7, 66, 90
11, 137639, Note_on_c, 7, 66, 0
11, 137640, Note_on_c, 7, 67, 90
11, 137699, Note_on_c, 7, 67, 0
11, 137700, Note_on_c, 7, 69, 90
11, 137939, Note_on_c, 7, 69, 0
11, 137940, Note_on_c, 7, 67, 90
11, 138059, Note_on_c, 7, 67, 0
11, 138060, Note_on_c, 7, 67, 90
11, 138119, Note_on_c, 7, 67, 0
11, 138120, Note_on_c, 7, 66, 90
11, 138179, Note_on_c, 7, 66, 0
11, 138180, Note_on_c, 7, 67, 90
11, 138239, Note_on_c, 7, 67, 0
11, 138240, Note_on_c, 7, 69, 90
11, 138299, Note_on_c, 7, 69, 0
11, 138300, Note_on_c, 7, 62, 90
11, 138359, Note_on_c, 7, 62, 0
11, 138360, Note_on_c, 7, 64, 90
11, 138419, Note_on_c, 7, 64, 0
11, 138420, Note_on_c, 7, 66, 90
11, 138479, Note_on_c, 7, 66, 0
11, 138480, Note_on_c, 7, 67, 90
11, 138599, Note_on_c, 7, 67, 0
11, 138600, Note_on_c, 7, 66, 90
11, 138659, Note_on_c, 7, 66, 0
11, 138660, Note_on_c, 7, 62, 90
11, 138899, Note_on_c, 7, 62, 0
11, 141900, Note_on_c, 7, 61, 90
11, 142019, Note_on_c, 7, 61, 0
11, 142020, Note_on_c, 7, 66, 90
11, 142139, Note_on_c, 7, 66, 0
11, 142140, Note_on_c, 7, 65, 90
11, 142259, Note_on_c, 7, 65, 0
11, 142260, Note_on_c, 7, 66, 90
11, 142379, Note_on_c, 7, 66, 0
11, 142380, Note_on_c, 7, 66, 90
11, 142499, Note_on_c, 7, 66, 0
11, 142500, Note_on_c, 7, 66, 90
11, 142619, Note_on_c, 7, 66, 0
11, 142620, Note_on_c, 7, 65, 90
11, 142739, Note_on_c, 7, 65, 0
11, 142740, Note_on_c, 7, 61, 90
11, 142859, Note_on_c, 7, 61, 0
11, 142860, Note_on_c, 7, 66, 90
11, 142979, Note_on_c, 7, 66, 0
11, 142980, Note_on_c, 7, 66, 90
11, 143039, Note_on_c, 7, 66, 0
11, 143040, Note_on_c, 7, 65, 90
11, 143099, Note_on_c, 7, 65, 0
11, 143100, Note_on_c, 7, 66, 90
11, 143219, Note_on_c, 7, 66, 0
11, 143220, Note_on_c, 7, 65, 90
11, 143339, Note_on_c, 7, 65, 0
11, 143340, Note_on_c, 7, 65, 90
11, 143459, Note_on_c, 7, 65, 0
11, 143460, Note_on_c, 7, 66, 90
11, 143579, Note_on_c, 7, 66, 0
11, 143580, Note_on_c, 7, 66, 90
11, 143699, Note_on_c, 7, 66, 0
11, 143700, Note_on_c, 7, 66, 90
11, 143759, Note_on_c, 7, 66, 0
11, 143760, Note_on_c, 7, 68, 90
11, 143789, Note_on_c, 7, 68, 0
11, 143790, Note_on_c, 7, 69, 90
11, 143819, Note_on_c, 7, 69, 0
11, 143820, Note_on_c, 7, 68, 90
11, 143939, Note_on_c, 7, 68, 0
11, 143940, Note_on_c, 7, 68, 90
11, 143999, Note_on_c, 7, 68, 0
11, 144000, Note_on_c, 7, 66, 90
11, 144059, Note_on_c, 7, 66, 0
11, 144060, Note_on_c, 7, 65, 90
11, 144119, Note_on_c, 7, 65, 0
11, 144120, Note_on_c, 7, 66, 90
11, 144179, Note_on_c, 7, 66, 0
11, 144180, Note_on_c, 7, 68, 90
11, 144359, Note_on_c, 7, 68, 0
11, 144360, Note_on_c, 7, 66, 90
11, 144419, Note_on_c, 7, 66, 0
11, 144420, Note_on_c, 7, 66, 90
11, 144539, Note_on_c, 7, 66, 0
11, 144540, Note_on_c, 7, 65, 90
11, 144659, Note_on_c, 7, 65, 0
11, 144660, Note_on_c, 7, 61, 90
11, 144779, Note_on_c, 7, 61, 0
11, 144780, Note_on_c, 7, 66, 90
11, 144899, Note_on_c, 7, 66, 0
11, 144900, Note_on_c, 7, 66, 90
11, 144959, Note_on_c, 7, 66, 0
11, 144960, Note_on_c, 7, 65, 90
11, 145019, Note_on_c, 7, 65, 0
11, 145020, Note_on_c, 7, 66, 90
11, 145139, Note_on_c, 7, 66, 0
11, 145140, Note_on_c, 7, 65, 90
11, 145259, Note_on_c, 7, 65, 0
11, 145260, Note_on_c, 7, 66, 90
11, 145319, Note_on_c, 7, 66, 0
11, 145320, Note_on_c, 7, 64, 90
11, 145379, Note_on_c, 7, 64, 0
11, 145380, Note_on_c, 7, 63, 90
11, 145439, Note_on_c, 7, 63, 0
11, 145440, Note_on_c, 7, 64, 90
11, 145499, Note_on_c, 7, 64, 0
11, 145500, Note_on_c, 7, 66, 90
11, 145559, Note_on_c, 7, 66, 0
11, 145560, Note_on_c, 7, 63, 90
11, 145619, Note_on_c, 7, 63, 0
11, 145620, Note_on_c, 7, 64, 90
11, 145739, Note_on_c, 7, 64, 0
11, 145740, Note_on_c, 7, 68, 90
11, 145799, Note_on_c, 7, 68, 0
11, 145800, Note_on_c, 7, 65, 90
11, 145859, Note_on_c, 7, 65, 0
11, 145860, Note_on_c, 7, 66, 90
11, 145979, Note_on_c, 7, 66, 0
11, 145980, Note_on_c, 7, 69, 90
11, 146039, Note_on_c, 7, 69, 0
11, 146040, Note_on_c, 7, 66, 90
11, 146099, Note_on_c, 7, 66, 0
11, 146100, Note_on_c, 7, 62, 90
11, 146219, Note_on_c, 7, 62, 0
11, 146220, Note_on_c, 7, 71, 90
11, 146279, Note_on_c, 7, 71, 0
11, 146280, Note_on_c, 7, 68, 90
11, 146339, Note_on_c, 7, 68, 0
11, 146340, Note_on_c, 7, 69, 90
11, 146399, Note_on_c, 7, 69, 0
11, 146400, Note_on_c, 7, 68, 90
11, 146459, Note_on_c, 7, 68, 0
11, 146460, Note_on_c, 7, 66, 90
11, 146639, Note_on_c, 7, 66, 0
11, 146640, Note_on_c, 7, 65, 90
11, 146699, Note_on_c, 7, 65, 0
11, 146700, Note_on_c, 7, 66, 90
11, 146879, Note_on_c, 7, 66, 0
11, 146880, Note_on_c, 7, 65, 90
11, 146910, Note_on_c, 7, 65, 0
11, 146910, Note_on_c, 7, 63, 90
11, 146940, Note_on_c, 7, 63, 0
11, 146940, Note_on_c, 7, 65, 90
11, 147060, Note_on_c, 7, 65, 0
11, 147060, Note_on_c, 7, 61, 90
11, 147180, Note_on_c, 7, 61, 0
11, 147300, Note_on_c, 7, 74, 90
11, 147359, Note_on_c, 7, 74, 0
11, 147360, Note_on_c, 7, 74, 90
11, 147419, Note_on_c, 7, 74, 0
11, 147420, Note_on_c, 7, 74, 90
11, 147479, Note_on_c, 7, 74, 0
11, 147480, Note_on_c, 7, 74, 90
11, 147539, Note_on_c, 7, 74, 0
11, 147540, Note_on_c, 7, 71, 90
11, 147569, Note_on_c, 7, 71, 0
11, 147570, Note_on_c, 7, 73, 90
11, 147599, Note_on_c, 7, 73, 0
11, 147600, Note_on_c, 7, 74, 90
11, 147629, Note_on_c, 7, 74, 0
11, 147630, Note_on_c, 7, 71, 90
11, 147659, Note_on_c, 7, 71, 0
11, 147660, Note_on_c, 7, 76, 90
11, 147689, Note_on_c, 7, 76, 0
11, 147690, Note_on_c, 7, 75, 90
11, 147719, Note_on_c, 7, 75, 0
11, 147720, Note_on_c, 7, 76, 90
11, 147779, Note_on_c, 7, 76, 0
11, 147780, Note_on_c, 7, 78, 90
11, 147899, Note_on_c, 7, 78, 0
11, 147900, Note_on_c, 7, 76, 90
11, 147959, Note_on_c, 7, 76, 0
11, 147960, Note_on_c, 7, 75, 90
11, 148019, Note_on_c, 7, 75, 0
11, 148020, Note_on_c, 7, 76, 90
11, 148079, Note_on_c, 7, 76, 0
11, 148080, Note_on_c, 7, 76, 90
11, 148139, Note_on_c, 7, 76, 0
11, 148140, Note_on_c, 7, 76, 90
11, 148199, Note_on_c, 7, 76, 0
11, 148200, Note_on_c, 7, 76, 90
11, 148259, Note_on_c, 7, 76, 0
11, 148260, Note_on_c, 7, 69, 90
11, 148319, Note_on_c, 7, 69, 0
11, 148320, Note_on_c, 7, 74, 90
11, 148379, Note_on_c, 7, 74, 0
11, 148380, Note_on_c, 7, 73, 90
11, 148439, Note_on_c, 7, 73, 0
11, 148440, Note_on_c, 7, 78, 90
11, 148469, Note_on_c, 7, 78, 0
11, 148470, Note_on_c, 7, 76, 90
11, 148499, Note_on_c, 7, 76, 0
11, 148500, Note_on_c, 7, 74, 90
11, 148529, Note_on_c, 7, 74, 0
11, 148530, Note_on_c, 7, 73, 90
11, 148559, Note_on_c, 7, 73, 0
11, 148560, Note_on_c, 7, 74, 90
11, 148619, Note_on_c, 7, 74, 0
11, 148620, Note_on_c, 7, 69, 90
11, 148679, Note_on_c, 7, 69, 0
11, 148680, Note_on_c, 7, 73, 90
11, 148739, Note_on_c, 7, 73, 0
11, 148740, Note_on_c, 7, 74, 90
11, 148799, Note_on_c, 7, 74, 0
11, 148800, Note_on_c, 7, 71, 90
11, 148859, Note_on_c, 7, 71, 0
11, 148860, Note_on_c, 7, 76, 90
11, 148889, Note_on_c, 7, 76, 0
11, 148890, Note_on_c, 7, 78, 90
11, 148919, Note_on_c, 7, 78, 0
11, 148920, Note_on_c, 7, 80, 90
11, 148949, Note_on_c, 7, 80, 0
11, 148950, Note_on_c, 7, 81, 90
11, 148979, Note_on_c, 7, 81, 0
11, 148980, Note_on_c, 7, 83, 90
11, 149039, Note_on_c, 7, 83, 0
11, 149040, Note_on_c, 7, 81, 90
11, 149099, Note_on_c, 7, 81, 0
11, 149100, Note_on_c, 7, 78, 90
11, 149159, Note_on_c, 7, 78, 0
11, 149160, Note_on_c, 7, 71, 90
11, 149189, Note_on_c, 7, 71, 0
11, 149190, Note_on_c, 7, 73, 90
11, 149219, Note_on_c, 7, 73, 0
11, 149220, Note_on_c, 7, 74, 90
11, 149279, Note_on_c, 7, 74, 0
11, 149280, Note_on_c, 7, 73, 90
11, 149339, Note_on_c, 7, 73, 0
11, 149520, Note_on_c, 7, 76, 90
11, 149579, Note_on_c, 7, 76, 0
11, 149580, Note_on_c, 7, 74, 90
11, 149639, Note_on_c, 7, 74, 0
11, 149640, Note_on_c, 7, 73, 90
11, 149699, Note_on_c, 7, 73, 0
11, 149880, Note_on_c, 7, 67, 90
11, 149939, Note_on_c, 7, 67, 0
11, 149940, Note_on_c, 7, 66, 90
11, 149999, Note_on_c, 7, 66, 0
11, 150000, Note_on_c, 7, 64, 90
11, 150179, Note_on_c, 7, 64, 0
11, 151620, Note_on_c, 7, 69, 100
11, 151680, Note_on_c, 7, 69, 0
11, 151680, Note_on_c, 7, 66, 100
11, 151740, Note_on_c, 7, 66, 0
11, 151740, Note_on_c, 7, 67, 100
11, 151800, Note_on_c, 7, 67, 0
11, 151800, Note_on_c, 7, 69, 90
11, 151859, Note_on_c, 7, 69, 0
11, 151860, Note_on_c, 7, 74, 90
11, 151919, Note_on_c, 7, 74, 0
11, 151920, Note_on_c, 7, 69, 90
11, 151979, Note_on_c, 7, 69, 0
11, 151980, Note_on_c, 7, 71, 90
11, 152039, Note_on_c, 7, 71, 0
11, 152040, Note_on_c, 7, 67, 90
11, 152099, Note_on_c, 7, 67, 0
11, 152100, Note_on_c, 7, 71, 90
11, 152159, Note_on_c, 7, 71, 0
11, 152160, Note_on_c, 7, 74, 90
11, 152219, Note_on_c, 7, 74, 0
11, 152220, Note_on_c, 7, 78, 90
11, 152279, Note_on_c, 7, 78, 0
11, 152280, Note_on_c, 7, 74, 90
11, 152339, Note_on_c, 7, 74, 0
11, 152340, Note_on_c, 7, 69, 90
11, 152399, Note_on_c, 7, 69, 0
11, 152520, Note_on_c, 7, 64, 90
11, 152579, Note_on_c, 7, 64, 0
11, 152700, Note_on_c, 7, 73, 90
11, 152759, Note_on_c, 7, 73, 0
11, 152880, Note_on_c, 7, 69, 90
11, 152939, Note_on_c, 7, 69, 0
11, 153060, Note_on_c, 7, 74, 90
11, 153119, Note_on_c, 7, 74, 0
11, 153120, Note_on_c, 7, 74, 90
11, 153179, Note_on_c, 7, 74, 0
11, 153180, Note_on_c, 7, 74, 90
11, 153239, Note_on_c, 7, 74, 0
11, 153240, Note_on_c, 7, 74, 90
11, 153299, Note_on_c, 7, 74, 0
11, 153300, Note_on_c, 7, 71, 90
11, 153329, Note_on_c, 7, 71, 0
11, 153330, Note_on_c, 7, 73, 90
11, 153359, Note_on_c, 7, 73, 0
11, 153360, Note_on_c, 7, 74, 90
11, 153389, Note_on_c, 7, 74, 0
11, 153390, Note_on_c, 7, 71, 90
11, 153419, Note_on_c, 7, 71, 0
11, 153420, Note_on_c, 7, 76, 90
11, 153449, Note_on_c, 7, 76, 0
11, 153450, Note_on_c, 7, 75, 90
11, 153479, Note_on_c, 7, 75, 0
11, 153480, Note_on_c, 7, 76, 90
11, 153539, Note_on_c, 7, 76, 0
11, 153540, Note_on_c, 7, 78, 90
11, 153659, Note_on_c, 7, 78, 0
11, 153660, Note_on_c, 7, 76, 90
11, 153719, Note_on_c, 7, 76, 0
11, 153720, Note_on_c, 7, 75, 90
11, 153779, Note_on_c, 7, 75, 0
11, 153780, Note_on_c, 7, 76, 90
11, 153839, Note_on_c, 7, 76, 0
11, 153840, Note_on_c, 7, 76, 90
11, 153899, Note_on_c, 7, 76, 0
11, 153900, Note_on_c, 7, 76, 90
11, 153959, Note_on_c, 7, 76, 0
11, 153960, Note_on_c, 7, 76, 90
11, 154019, Note_on_c, 7, 76, 0
11, 154020, Note_on_c, 7, 69, 90
11, 154079, Note_on_c, 7, 69, 0
11, 154080, Note_on_c, 7, 74, 90
11, 154139, Note_on_c, 7, 74, 0
11, 154140, Note_on_c, 7, 73, 90
11, 154199, Note_on_c, 7, 73, 0
11, 154200, Note_on_c, 7, 78, 90
11, 154229, Note_on_c, 7, 78, 0
11, 154230, Note_on_c, 7, 76, 90
11, 154259, Note_on_c, 7, 76, 0
11, 154260, Note_on_c, 7, 74, 90
11, 154289, Note_on_c, 7, 74, 0
11, 154290, Note_on_c, 7, 73, 90
11, 154319, Note_on_c, 7, 73, 0
11, 154320, Note_on_c, 7, 74, 90
11, 154379, Note_on_c, 7, 74, 0
11, 154380, Note_on_c, 7, 69, 90
11, 154439, Note_on_c, 7, 69, 0
11, 154440, Note_on_c, 7, 73, 90
11, 154499, Note_on_c, 7, 73, 0
11, 154500, Note_on_c, 7, 74, 90
11, 154559, Note_on_c, 7, 74, 0
11, 154560, Note_on_c, 7, 71, 90
11, 154619, Note_on_c, 7, 71, 0
11, 154620, Note_on_c, 7, 76, 90
11, 154649, Note_on_c, 7, 76, 0
11, 154650, Note_on_c, 7, 78, 90
11, 154679, Note_on_c, 7, 78, 0
11, 154680, Note_on_c, 7, 80, 90
11, 154709, Note_on_c, 7, 80, 0
11, 154710, Note_on_c, 7, 81, 90
11, 154739, Note_on_c, 7, 81, 0
11, 154740, Note_on_c, 7, 83, 90
11, 154799, Note_on_c, 7, 83, 0
11, 154800, Note_on_c, 7, 81, 90
11, 154859, Note_on_c, 7, 81, 0
11, 154860, Note_on_c, 7, 78, 90
11, 154919, Note_on_c, 7, 78, 0
11, 154920, Note_on_c, 7, 71, 90
11, 154949, Note_on_c, 7, 71, 0
11, 154950, Note_on_c, 7, 73, 90
11, 154979, Note_on_c, 7, 73, 0
11, 154980, Note_on_c, 7, 74, 90
11, 155039, Note_on_c, 7, 74, 0
11, 155040, Note_on_c, 7, 73, 90
11, 155099, Note_on_c, 7, 73, 0
11, 155280, Note_on_c, 7, 76, 90
11, 155339, Note_on_c, 7, 76, 0
11, 155340, Note_on_c, 7, 74, 90
11, 155399, Note_on_c, 7, 74, 0
11, 155400, Note_on_c, 7, 73, 90
11, 155459, Note_on_c, 7, 73, 0
11, 155640, Note_on_c, 7, 67, 90
11, 155699, Note_on_c, 7, 67, 0
11, 155700, Note_on_c, 7, 66, 90
11, 155759, Note_on_c, 7, 66, 0
11, 155760, Note_on_c, 7, 64, 90
11, 155939, Note_on_c, 7, 64, 0
11, 155940, Note_on_c, 7, 69, 90
11, 155999, Note_on_c, 7, 69, 0
11, 156000, Note_on_c, 7, 69, 90
11, 156059, Note_on_c, 7, 69, 0
11, 156060, Note_on_c, 7, 69, 90
11, 156119, Note_on_c, 7, 69, 0
11, 156120, Note_on_c, 7, 69, 90
11, 156149, Note_on_c, 7, 69, 0
11, 156150, Note_on_c, 7, 71, 90
11, 156179, Note_on_c, 7, 71, 0
11, 156180, Note_on_c, 7, 73, 90
11, 156209, Note_on_c, 7, 73, 0
11, 156210, Note_on_c, 7, 74, 90
11, 156239, Note_on_c, 7, 74, 0
11, 156240, Note_on_c, 7, 76, 90
11, 156359, Note_on_c, 7, 76, 0
11, 156360, Note_on_c, 7, 74, 90
11, 156419, Note_on_c, 7, 74, 0
11, 156420, Note_on_c, 7, 73, 90
11, 156479, Note_on_c, 7, 73, 0
11, 156480, Note_on_c, 7, 74, 90
11, 156539, Note_on_c, 7, 74, 0
11, 156540, Note_on_c, 7, 71, 90
11, 156599, Note_on_c, 7, 71, 0
11, 156600, Note_on_c, 7, 69, 90
11, 156719, Note_on_c, 7, 69, 0
11, 156720, Note_on_c, 7, 74, 90
11, 156779, Note_on_c, 7, 74, 0
11, 156780, Note_on_c, 7, 74, 90
11, 156839, Note_on_c, 7, 74, 0
11, 156840, Note_on_c, 7, 74, 90
11, 156869, Note_on_c, 7, 74, 0
11, 156870, Note_on_c, 7, 76, 90
11, 156899, Note_on_c, 7, 76, 0
11, 156900, Note_on_c, 7, 78, 90
11, 156929, Note_on_c, 7, 78, 0
11, 156930, Note_on_c, 7, 79, 90
11, 156959, Note_on_c, 7, 79, 0
11, 156960, Note_on_c, 7, 81, 90
11, 157079, Note_on_c, 7, 81, 0
11, 157080, Note_on_c, 7, 79, 90
11, 157139, Note_on_c, 7, 79, 0
11, 157140, Note_on_c, 7, 78, 90
11, 157199, Note_on_c, 7, 78, 0
11, 157200, Note_on_c, 7, 79, 90
11, 157259, Note_on_c, 7, 79, 0
11, 157260, Note_on_c, 7, 72, 90
11, 157319, Note_on_c, 7, 72, 0
11, 157320, Note_on_c, 7, 74, 90
11, 157439, Note_on_c, 7, 74, 0
11, 157440, Note_on_c, 7, 76, 90
11, 157499, Note_on_c, 7, 76, 0
11, 157500, Note_on_c, 7, 71, 90
11, 157559, Note_on_c, 7, 71, 0
11, 157560, Note_on_c, 7, 73, 90
11, 157619, Note_on_c, 7, 73, 0
11, 157620, Note_on_c, 7, 74, 90
11, 157649, Note_on_c, 7, 74, 0
11, 157650, Note_on_c, 7, 73, 90
11, 157679, Note_on_c, 7, 73, 0
11, 157680, Note_on_c, 7, 74, 90
11, 157799, Note_on_c, 7, 74, 0
11, 157800, Note_on_c, 7, 76, 90
11, 157859, Note_on_c, 7, 76, 0
11, 157860, Note_on_c, 7, 73, 90
11, 157919, Note_on_c, 7, 73, 0
11, 157920, Note_on_c, 7, 69, 100
11, 157980, Note_on_c, 7, 69, 0
11, 157980, Note_on_c, 7, 69, 100
11, 158010, Note_on_c, 7, 69, 0
11, 158040, Note_on_c, 7, 67, 100
11, 158070, Note_on_c, 7, 67, 0
11, 158100, Note_on_c, 7, 66, 100
11, 158130, Note_on_c, 7, 66, 0
11, 158130, Note_on_c, 7, 64, 100
11, 158160, Note_on_c, 7, 64, 0
11, 158160, Note_on_c, 7, 62, 100
11, 158190, Note_on_c, 7, 62, 0
11, 158190, Note_on_c, 7, 61, 100
11, 158220, Note_on_c, 7, 61, 0
11, 158220, Note_on_c, 7, 62, 100
11, 158250, Note_on_c, 7, 62, 0
11, 158250, Note_on_c, 7, 64, 100
11, 158280, Note_on_c, 7, 64, 0
11, 158280, Note_on_c, 7, 66, 100
11, 158340, Note_on_c, 7, 66, 0
11, 158340, Note_on_c, 7, 69, 100
11, 158400, Note_on_c, 7, 69, 0
11, 158400, Note_on_c, 7, 67, 100
11, 158460, Note_on_c, 7, 67, 0
11, 158460, Note_on_c, 7, 66, 100
11, 158520, Note_on_c, 7, 66, 0
11, 158520, Note_on_c, 7, 62, 100
11, 158550, Note_on_c, 7, 62, 0
11, 158550, Note_on_c, 7, 61, 100
11, 158580, Note_on_c, 7, 61, 0
11, 158580, Note_on_c, 7, 62, 100
11, 158610, Note_on_c, 7, 62, 0
11, 158610, Note_on_c, 7, 64, 100
11, 158640, Note_on_c, 7, 64, 0
11, 158640, Note_on_c, 7, 66, 100
11, 158820, Note_on_c, 7, 66, 0
11, 160260, Note_on_c, 7, 64, 90
11, 160319, Note_on_c, 7, 64, 0
11, 160320, Note_on_c, 7, 61, 90
11, 160379, Note_on_c, 7, 61, 0
11, 160380, Note_on_c, 7, 62, 90
11, 160439, Note_on_c, 7, 62, 0
11, 160440, Note_on_c, 7, 64, 90
11, 160499, Note_on_c, 7, 64, 0
11, 160500, Note_on_c, 7, 67, 90
11, 160559, Note_on_c, 7, 67, 0
11, 160560, Note_on_c, 7, 66, 90
11, 160619, Note_on_c, 7, 66, 0
11, 160620, Note_on_c, 7, 67, 90
11, 160679, Note_on_c, 7, 67, 0
11, 160680, Note_on_c, 7, 62, 90
11, 160739, Note_on_c, 7, 62, 0
11, 160740, Note_on_c, 7, 69, 90
11, 160799, Note_on_c, 7, 69, 0
11, 160800, Note_on_c, 7, 69, 90
11, 160859, Note_on_c, 7, 69, 0
11, 160860, Note_on_c, 7, 74, 90
11, 160919, Note_on_c, 7, 74, 0
11, 160920, Note_on_c, 7, 69, 90
11, 160979, Note_on_c, 7, 69, 0
11, 160980, Note_on_c, 7, 69, 90
11, 161039, Note_on_c, 7, 69, 0
11, 161160, Note_on_c, 7, 71, 90
11, 161219, Note_on_c, 7, 71, 0
11, 161340, Note_on_c, 7, 62, 90
11, 161399, Note_on_c, 7, 62, 0
11, 161520, Note_on_c, 7, 64, 90
11, 161579, Note_on_c, 7, 64, 0
11, 161700, Note_on_c, 7, 69, 90
11, 161759, Note_on_c, 7, 69, 0
11, 161760, Note_on_c, 7, 69, 90
11, 161819, Note_on_c, 7, 69, 0
11, 161820, Note_on_c, 7, 69, 90
11, 161879, Note_on_c, 7, 69, 0
11, 161880, Note_on_c, 7, 69, 90
11, 161909, Note_on_c, 7, 69, 0
11, 161910, Note_on_c, 7, 71, 90
11, 161939, Note_on_c, 7, 71, 0
11, 161940, Note_on_c, 7, 73, 90
11, 161969, Note_on_c, 7, 73, 0
11, 161970, Note_on_c, 7, 74, 90
11, 161999, Note_on_c, 7, 74, 0
11, 162000, Note_on_c, 7, 76, 90
11, 162119, Note_on_c, 7, 76, 0
11, 162120, Note_on_c, 7, 74, 90
11, 162179, Note_on_c, 7, 74, 0
11, 162180, Note_on_c, 7, 73, 90
11, 162239, Note_on_c, 7, 73, 0
11, 162240, Note_on_c, 7, 74, 90
11, 162299, Note_on_c, 7, 74, 0
11, 162300, Note_on_c, 7, 71, 90
11, 162359, Note_on_c, 7, 71, 0
11, 162360, Note_on_c, 7, 69, 90
11, 162479, Note_on_c, 7, 69, 0
11, 162480, Note_on_c, 7, 74, 90
11, 162539, Note_on_c, 7, 74, 0
11, 162540, Note_on_c, 7, 74, 90
11, 162599, Note_on_c, 7, 74, 0
11, 162600, Note_on_c, 7, 74, 90
11, 162629, Note_on_c, 7, 74, 0
11, 162630, Note_on_c, 7, 76, 90
11, 162659, Note_on_c, 7, 76, 0
11, 162660, Note_on_c, 7, 78, 90
11, 162689, Note_on_c, 7, 78, 0
11, 162690, Note_on_c, 7, 79, 90
11, 162719, Note_on_c, 7, 79, 0
11, 162720, Note_on_c, 7, 81, 90
11, 162839, Note_on_c, 7, 81, 0
11, 162840, Note_on_c, 7, 79, 90
11, 162899, Note_on_c, 7, 79, 0
11, 162900, Note_on_c, 7, 78, 90
11, 162959, Note_on_c, 7, 78, 0
11, 162960, Note_on_c, 7, 79, 90
11, 163019, Note_on_c, 7, 79, 0
11, 163020, Note_on_c, 7, 72, 90
11, 163079, Note_on_c, 7, 72, 0
11, 163080, Note_on_c, 7, 74, 90
11, 163199, Note_on_c, 7, 74, 0
11, 163200, Note_on_c, 7, 76, 90
11, 163259, Note_on_c, 7, 76, 0
11, 163260, Note_on_c, 7, 71, 90
11, 163319, Note_on_c, 7, 71, 0
11, 163320, Note_on_c, 7, 73, 90
11, 163379, Note_on_c, 7, 73, 0
11, 163380, Note_on_c, 7, 74, 90
11, 163409, Note_on_c, 7, 74, 0
11, 163410, Note_on_c, 7, 73, 90
11, 163439, Note_on_c, 7, 73, 0
11, 163440, Note_on_c, 7, 74, 90
11, 163559, Note_on_c, 7, 74, 0
11, 163560, Note_on_c, 7, 76, 90
11, 163619, Note_on_c, 7, 76, 0
11, 163620, Note_on_c, 7, 73, 90
11, 163679, Note_on_c, 7, 73, 0
11, 163680, Note_on_c, 7, 69, 100
11, 163740, Note_on_c, 7, 69, 0
11, 163740, Note_on_c, 7, 69, 100
11, 163770, Note_on_c, 7, 69, 0
11, 163800, Note_on_c, 7, 67, 100
11, 163830, Note_on_c, 7, 67, 0
11, 163860, Note_on_c, 7, 66, 100
11, 163890, Note_on_c, 7, 66, 0
11, 163890, Note_on_c, 7, 64, 100
11, 163920, Note_on_c, 7, 64, 0
11, 163920, Note_on_c, 7, 62, 100
11, 163950, Note_on_c, 7, 62, 0
11, 163950, Note_on_c, 7, 61, 100
11, 163980, Note_on_c, 7, 61, 0
11, 163980, Note_on_c, 7, 62, 100
11, 164010, Note_on_c, 7, 62, 0
11, 164010, Note_on_c, 7, 64, 100
11, 164040, Note_on_c, 7, 64, 0
11, 164040, Note_on_c, 7, 66, 100
11, 164100, Note_on_c, 7, 66, 0
11, 164100, Note_on_c, 7, 69, 100
11, 164160, Note_on_c, 7, 69, 0
11, 164160, Note_on_c, 7, 67, 100
11, 164220, Note_on_c, 7, 67, 0
11, 164220, Note_on_c, 7, 66, 100
11, 164280, Note_on_c, 7, 66, 0
11, 164280, Note_on_c, 7, 62, 100
11, 164310, Note_on_c, 7, 62, 0
11, 164310, Note_on_c, 7, 61, 100
11, 164340, Note_on_c, 7, 61, 0
11, 164340, Note_on_c, 7, 62, 100
11, 164370, Note_on_c, 7, 62, 0
11, 164370, Note_on_c, 7, 64, 100
11, 164400, Note_on_c, 7, 64, 0
11, 164400, Note_on_c, 7, 66, 90
11, 164579, Note_on_c, 7, 66, 0
11, 164579, End_track
12, 0, Start_track
12, 0, MIDI_port, 0
12, 0, Title_t, "viola"
12, 0, Program_c, 8, 48
12, 0, Control_c, 8, 7, 127
12, 0, Control_c, 8, 10, 64
12, 0, Note_on_c, 8, 69, 90
12, 59, Note_on_c, 8, 69, 0
12, 60, Note_on_c, 8, 69, 90
12, 119, Note_on_c, 8, 69, 0
12, 120, Note_on_c, 8, 69, 90
12, 179, Note_on_c, 8, 69, 0
12, 180, Note_on_c, 8, 71, 90
12, 239, Note_on_c, 8, 71, 0
12, 240, Note_on_c, 8, 66, 90
12, 299, Note_on_c, 8, 66, 0
12, 300, Note_on_c, 8, 71, 90
12, 359, Note_on_c, 8, 71, 0
12, 360, Note_on_c, 8, 69, 90
12, 419, Note_on_c, 8, 69, 0
12, 420, Note_on_c, 8, 64, 90
12, 479, Note_on_c, 8, 64, 0
12, 480, Note_on_c, 8, 71, 90
12, 539, Note_on_c, 8, 71, 0
12, 540, Note_on_c, 8, 71, 90
12, 599, Note_on_c, 8, 71, 0
12, 600, Note_on_c, 8, 59, 90
12, 659, Note_on_c, 8, 59, 0
12, 660, Note_on_c, 8, 71, 90
12, 719, Note_on_c, 8, 71, 0
12, 720, Note_on_c, 8, 71, 90
12, 779, Note_on_c, 8, 71, 0
12, 780, Note_on_c, 8, 71, 90
12, 839, Note_on_c, 8, 71, 0
12, 840, Note_on_c, 8, 71, 90
12, 899, Note_on_c, 8, 71, 0
12, 900, Note_on_c, 8, 69, 90
12, 959, Note_on_c, 8, 69, 0
12, 960, Note_on_c, 8, 69, 90
12, 1019, Note_on_c, 8, 69, 0
12, 1020, Note_on_c, 8, 67, 90
12, 1079, Note_on_c, 8, 67, 0
12, 1080, Note_on_c, 8, 64, 90
12, 1139, Note_on_c, 8, 64, 0
12, 1140, Note_on_c, 8, 62, 90
12, 1199, Note_on_c, 8, 62, 0
12, 1200, Note_on_c, 8, 69, 90
12, 1259, Note_on_c, 8, 69, 0
12, 1260, Note_on_c, 8, 69, 90
12, 1319, Note_on_c, 8, 69, 0
12, 1320, Note_on_c, 8, 74, 90
12, 1379, Note_on_c, 8, 74, 0
12, 1380, Note_on_c, 8, 69, 90
12, 1439, Note_on_c, 8, 69, 0
12, 1440, Note_on_c, 8, 57, 90
12, 1499, Note_on_c, 8, 57, 0
12, 1500, Note_on_c, 8, 64, 90
12, 1559, Note_on_c, 8, 64, 0
12, 1560, Note_on_c, 8, 64, 90
12, 1619, Note_on_c, 8, 64, 0
12, 1620, Note_on_c, 8, 64, 90
12, 1679, Note_on_c, 8, 64, 0
12, 1680, Note_on_c, 8, 64, 90
12, 1739, Note_on_c, 8, 64, 0
12, 1740, Note_on_c, 8, 64, 90
12, 1799, Note_on_c, 8, 64, 0
12, 1800, Note_on_c, 8, 66, 90
12, 1859, Note_on_c, 8, 66, 0
12, 1860, Note_on_c, 8, 64, 90
12, 1919, Note_on_c, 8, 64, 0
12, 1920, Note_on_c, 8, 64, 90
12, 1979, Note_on_c, 8, 64, 0
12, 1980, Note_on_c, 8, 64, 90
12, 2039, Note_on_c, 8, 64, 0
12, 2220, Note_on_c, 8, 69, 90
12, 2279, Note_on_c, 8, 69, 0
12, 2280, Note_on_c, 8, 69, 90
12, 2339, Note_on_c, 8, 69, 0
12, 2340, Note_on_c, 8, 69, 90
12, 2399, Note_on_c, 8, 69, 0
12, 2580, Note_on_c, 8, 57, 90
12, 2639, Note_on_c, 8, 57, 0
12, 2640, Note_on_c, 8, 57, 90
12, 2699, Note_on_c, 8, 57, 0
12, 2700, Note_on_c, 8, 57, 90
12, 2879, Note_on_c, 8, 57, 0
12, 5760, Note_on_c, 8, 69, 90
12, 5819, Note_on_c, 8, 69, 0
12, 5820, Note_on_c, 8, 69, 90
12, 5879, Note_on_c, 8, 69, 0
12, 5880, Note_on_c, 8, 69, 90
12, 5939, Note_on_c, 8, 69, 0
12, 5940, Note_on_c, 8, 71, 90
12, 5999, Note_on_c, 8, 71, 0
12, 6000, Note_on_c, 8, 66, 90
12, 6059, Note_on_c, 8, 66, 0
12, 6060, Note_on_c, 8, 71, 90
12, 6119, Note_on_c, 8, 71, 0
12, 6120, Note_on_c, 8, 69, 90
12, 6179, Note_on_c, 8, 69, 0
12, 6180, Note_on_c, 8, 64, 90
12, 6239, Note_on_c, 8, 64, 0
12, 6240, Note_on_c, 8, 71, 90
12, 6299, Note_on_c, 8, 71, 0
12, 6300, Note_on_c, 8, 71, 90
12, 6359, Note_on_c, 8, 71, 0
12, 6360, Note_on_c, 8, 71, 90
12, 6419, Note_on_c, 8, 71, 0
12, 6420, Note_on_c, 8, 71, 90
12, 6479, Note_on_c, 8, 71, 0
12, 6480, Note_on_c, 8, 71, 90
12, 6539, Note_on_c, 8, 71, 0
12, 6540, Note_on_c, 8, 71, 90
12, 6599, Note_on_c, 8, 71, 0
12, 6600, Note_on_c, 8, 71, 90
12, 6659, Note_on_c, 8, 71, 0
12, 6660, Note_on_c, 8, 69, 90
12, 6719, Note_on_c, 8, 69, 0
12, 6720, Note_on_c, 8, 69, 90
12, 6779, Note_on_c, 8, 69, 0
12, 6780, Note_on_c, 8, 67, 90
12, 6839, Note_on_c, 8, 67, 0
12, 6840, Note_on_c, 8, 64, 90
12, 6899, Note_on_c, 8, 64, 0
12, 6900, Note_on_c, 8, 62, 90
12, 6959, Note_on_c, 8, 62, 0
12, 6960, Note_on_c, 8, 69, 90
12, 7019, Note_on_c, 8, 69, 0
12, 7020, Note_on_c, 8, 69, 90
12, 7079, Note_on_c, 8, 69, 0
12, 7080, Note_on_c, 8, 74, 90
12, 7139, Note_on_c, 8, 74, 0
12, 7140, Note_on_c, 8, 69, 90
12, 7199, Note_on_c, 8, 69, 0
12, 7200, Note_on_c, 8, 57, 90
12, 7259, Note_on_c, 8, 57, 0
12, 7260, Note_on_c, 8, 64, 90
12, 7319, Note_on_c, 8, 64, 0
12, 7320, Note_on_c, 8, 64, 90
12, 7379, Note_on_c, 8, 64, 0
12, 7380, Note_on_c, 8, 64, 90
12, 7439, Note_on_c, 8, 64, 0
12, 7440, Note_on_c, 8, 64, 90
12, 7499, Note_on_c, 8, 64, 0
12, 7500, Note_on_c, 8, 64, 90
12, 7559, Note_on_c, 8, 64, 0
12, 7560, Note_on_c, 8, 66, 90
12, 7619, Note_on_c, 8, 66, 0
12, 7620, Note_on_c, 8, 64, 90
12, 7679, Note_on_c, 8, 64, 0
12, 7680, Note_on_c, 8, 64, 90
12, 7739, Note_on_c, 8, 64, 0
12, 7740, Note_on_c, 8, 64, 90
12, 7799, Note_on_c, 8, 64, 0
12, 7980, Note_on_c, 8, 69, 90
12, 8039, Note_on_c, 8, 69, 0
12, 8040, Note_on_c, 8, 69, 90
12, 8099, Note_on_c, 8, 69, 0
12, 8100, Note_on_c, 8, 69, 90
12, 8159, Note_on_c, 8, 69, 0
12, 8340, Note_on_c, 8, 57, 90
12, 8399, Note_on_c, 8, 57, 0
12, 8400, Note_on_c, 8, 57, 90
12, 8459, Note_on_c, 8, 57, 0
12, 8460, Note_on_c, 8, 57, 90
12, 8639, Note_on_c, 8, 57, 0
12, 8640, Note_on_c, 8, 64, 90
12, 8699, Note_on_c, 8, 64, 0
12, 8700, Note_on_c, 8, 64, 90
12, 8759, Note_on_c, 8, 64, 0
12, 8760, Note_on_c, 8, 64, 90
12, 8819, Note_on_c, 8, 64, 0
12, 8820, Note_on_c, 8, 64, 90
12, 8879, Note_on_c, 8, 64, 0
12, 8880, Note_on_c, 8, 69, 90
12, 8939, Note_on_c, 8, 69, 0
12, 8940, Note_on_c, 8, 64, 90
12, 8999, Note_on_c, 8, 64, 0
12, 9000, Note_on_c, 8, 66, 90
12, 9029, Note_on_c, 8, 66, 0
12, 9030, Note_on_c, 8, 67, 90
12, 9059, Note_on_c, 8, 67, 0
12, 9060, Note_on_c, 8, 69, 90
12, 9119, Note_on_c, 8, 69, 0
12, 9120, Note_on_c, 8, 67, 90
12, 9179, Note_on_c, 8, 67, 0
12, 9180, Note_on_c, 8, 69, 90
12, 9239, Note_on_c, 8, 69, 0
12, 9240, Note_on_c, 8, 67, 90
12, 9299, Note_on_c, 8, 67, 0
12, 9300, Note_on_c, 8, 64, 90
12, 9359, Note_on_c, 8, 64, 0
12, 9360, Note_on_c, 8, 62, 90
12, 9419, Note_on_c, 8, 62, 0
12, 9420, Note_on_c, 8, 69, 90
12, 9479, Note_on_c, 8, 69, 0
12, 9480, Note_on_c, 8, 69, 90
12, 9539, Note_on_c, 8, 69, 0
12, 9540, Note_on_c, 8, 69, 90
12, 9599, Note_on_c, 8, 69, 0
12, 9600, Note_on_c, 8, 74, 90
12, 9659, Note_on_c, 8, 74, 0
12, 9660, Note_on_c, 8, 69, 90
12, 9719, Note_on_c, 8, 69, 0
12, 9720, Note_on_c, 8, 71, 90
12, 9749, Note_on_c, 8, 71, 0
12, 9750, Note_on_c, 8, 72, 90
12, 9779, Note_on_c, 8, 72, 0
12, 9780, Note_on_c, 8, 74, 90
12, 9839, Note_on_c, 8, 74, 0
12, 9840, Note_on_c, 8, 72, 90
12, 9899, Note_on_c, 8, 72, 0
12, 9900, Note_on_c, 8, 74, 90
12, 9959, Note_on_c, 8, 74, 0
12, 9960, Note_on_c, 8, 72, 90
12, 10019, Note_on_c, 8, 72, 0
12, 10020, Note_on_c, 8, 69, 90
12, 10079, Note_on_c, 8, 69, 0
12, 10080, Note_on_c, 8, 67, 90
12, 10139, Note_on_c, 8, 67, 0
12, 10140, Note_on_c, 8, 71, 90
12, 10199, Note_on_c, 8, 71, 0
12, 10200, Note_on_c, 8, 67, 90
12, 10259, Note_on_c, 8, 67, 0
12, 10260, Note_on_c, 8, 64, 90
12, 10319, Note_on_c, 8, 64, 0
12, 10320, Note_on_c, 8, 69, 90
12, 10379, Note_on_c, 8, 69, 0
12, 10380, Note_on_c, 8, 67, 90
12, 10439, Note_on_c, 8, 67, 0
12, 10440, Note_on_c, 8, 69, 90
12, 10499, Note_on_c, 8, 69, 0
12, 10500, Note_on_c, 8, 71, 90
12, 10559, Note_on_c, 8, 71, 0
12, 10560, Note_on_c, 8, 69, 90
12, 10619, Note_on_c, 8, 69, 0
12, 10620, Note_on_c, 8, 66, 90
12, 10739, Note_on_c, 8, 66, 0
12, 10860, Note_on_c, 8, 66, 90
12, 10919, Note_on_c, 8, 66, 0
12, 10920, Note_on_c, 8, 62, 90
12, 10979, Note_on_c, 8, 62, 0
12, 10980, Note_on_c, 8, 62, 90
12, 11099, Note_on_c, 8, 62, 0
12, 11220, Note_on_c, 8, 62, 90
12, 11279, Note_on_c, 8, 62, 0
12, 11280, Note_on_c, 8, 62, 90
12, 11339, Note_on_c, 8, 62, 0
12, 11340, Note_on_c, 8, 62, 90
12, 11519, Note_on_c, 8, 62, 0
12, 14400, Note_on_c, 8, 64, 90
12, 14459, Note_on_c, 8, 64, 0
12, 14460, Note_on_c, 8, 64, 90
12, 14519, Note_on_c, 8, 64, 0
12, 14520, Note_on_c, 8, 64, 90
12, 14579, Note_on_c, 8, 64, 0
12, 14580, Note_on_c, 8, 64, 90
12, 14639, Note_on_c, 8, 64, 0
12, 14640, Note_on_c, 8, 69, 90
12, 14699, Note_on_c, 8, 69, 0
12, 14700, Note_on_c, 8, 64, 90
12, 14759, Note_on_c, 8, 64, 0
12, 14760, Note_on_c, 8, 66, 90
12, 14789, Note_on_c, 8, 66, 0
12, 14790, Note_on_c, 8, 67, 90
12, 14819, Note_on_c, 8, 67, 0
12, 14820, Note_on_c, 8, 69, 90
12, 14879, Note_on_c, 8, 69, 0
12, 14880, Note_on_c, 8, 67, 90
12, 14939, Note_on_c, 8, 67, 0
12, 14940, Note_on_c, 8, 69, 90
12, 14999, Note_on_c, 8, 69, 0
12, 15000, Note_on_c, 8, 67, 90
12, 15059, Note_on_c, 8, 67, 0
12, 15060, Note_on_c, 8, 64, 90
12, 15119, Note_on_c, 8, 64, 0
12, 15120, Note_on_c, 8, 62, 90
12, 15179, Note_on_c, 8, 62, 0
12, 15180, Note_on_c, 8, 69, 90
12, 15239, Note_on_c, 8, 69, 0
12, 15240, Note_on_c, 8, 69, 90
12, 15299, Note_on_c, 8, 69, 0
12, 15300, Note_on_c, 8, 69, 90
12, 15359, Note_on_c, 8, 69, 0
12, 15360, Note_on_c, 8, 74, 90
12, 15419, Note_on_c, 8, 74, 0
12, 15420, Note_on_c, 8, 69, 90
12, 15479, Note_on_c, 8, 69, 0
12, 15480, Note_on_c, 8, 71, 90
12, 15509, Note_on_c, 8, 71, 0
12, 15510, Note_on_c, 8, 72, 90
12, 15539, Note_on_c, 8, 72, 0
12, 15540, Note_on_c, 8, 74, 90
12, 15599, Note_on_c, 8, 74, 0
12, 15600, Note_on_c, 8, 72, 90
12, 15659, Note_on_c, 8, 72, 0
12, 15660, Note_on_c, 8, 74, 90
12, 15719, Note_on_c, 8, 74, 0
12, 15720, Note_on_c, 8, 72, 90
12, 15779, Note_on_c, 8, 72, 0
12, 15780, Note_on_c, 8, 69, 90
12, 15839, Note_on_c, 8, 69, 0
12, 15840, Note_on_c, 8, 67, 90
12, 15899, Note_on_c, 8, 67, 0
12, 15900, Note_on_c, 8, 71, 90
12, 15959, Note_on_c, 8, 71, 0
12, 15960, Note_on_c, 8, 67, 90
12, 16019, Note_on_c, 8, 67, 0
12, 16020, Note_on_c, 8, 64, 90
12, 16079, Note_on_c, 8, 64, 0
12, 16080, Note_on_c, 8, 69, 90
12, 16139, Note_on_c, 8, 69, 0
12, 16140, Note_on_c, 8, 67, 90
12, 16199, Note_on_c, 8, 67, 0
12, 16200, Note_on_c, 8, 69, 90
12, 16259, Note_on_c, 8, 69, 0
12, 16260, Note_on_c, 8, 71, 90
12, 16319, Note_on_c, 8, 71, 0
12, 16320, Note_on_c, 8, 69, 90
12, 16379, Note_on_c, 8, 69, 0
12, 16380, Note_on_c, 8, 66, 90
12, 16499, Note_on_c, 8, 66, 0
12, 16620, Note_on_c, 8, 66, 90
12, 16679, Note_on_c, 8, 66, 0
12, 16680, Note_on_c, 8, 62, 90
12, 16739, Note_on_c, 8, 62, 0
12, 16740, Note_on_c, 8, 62, 90
12, 16859, Note_on_c, 8, 62, 0
12, 16980, Note_on_c, 8, 62, 90
12, 17039, Note_on_c, 8, 62, 0
12, 17040, Note_on_c, 8, 62, 90
12, 17099, Note_on_c, 8, 62, 0
12, 17100, Note_on_c, 8, 62, 90
12, 17279, Note_on_c, 8, 62, 0
12, 19020, Note_on_c, 8, 57, 90
12, 19079, Note_on_c, 8, 57, 0
12, 19080, Note_on_c, 8, 59, 90
12, 19139, Note_on_c, 8, 59, 0
12, 19140, Note_on_c, 8, 61, 90
12, 19199, Note_on_c, 8, 61, 0
12, 19200, Note_on_c, 8, 62, 90
12, 19259, Note_on_c, 8, 62, 0
12, 19260, Note_on_c, 8, 64, 90
12, 19379, Note_on_c, 8, 64, 0
12, 19380, Note_on_c, 8, 64, 90
12, 19499, Note_on_c, 8, 64, 0
12, 19500, Note_on_c, 8, 57, 90
12, 19619, Note_on_c, 8, 57, 0
12, 19620, Note_on_c, 8, 66, 90
12, 19859, Note_on_c, 8, 66, 0
12, 19860, Note_on_c, 8, 66, 90
12, 19979, Note_on_c, 8, 66, 0
12, 19980, Note_on_c, 8, 64, 90
12, 20099, Note_on_c, 8, 64, 0
12, 20220, Note_on_c, 8, 69, 90
12, 20279, Note_on_c, 8, 69, 0
12, 20280, Note_on_c, 8, 67, 90
12, 20339, Note_on_c, 8, 67, 0
12, 20340, Note_on_c, 8, 66, 90
12, 20399, Note_on_c, 8, 66, 0
12, 20400, Note_on_c, 8, 64, 90
12, 20459, Note_on_c, 8, 64, 0
12, 20460, Note_on_c, 8, 62, 90
12, 20579, Note_on_c, 8, 62, 0
12, 20580, Note_on_c, 8, 62, 90
12, 20699, Note_on_c, 8, 62, 0
12, 20820, Note_on_c, 8, 61, 90
12, 20879, Note_on_c, 8, 61, 0
12, 20880, Note_on_c, 8, 62, 90
12, 20939, Note_on_c, 8, 62, 0
12, 20940, Note_on_c, 8, 64, 90
12, 20999, Note_on_c, 8, 64, 0
12, 21000, Note_on_c, 8, 66, 90
12, 21059, Note_on_c, 8, 66, 0
12, 21060, Note_on_c, 8, 68, 90
12, 21179, Note_on_c, 8, 68, 0
12, 21180, Note_on_c, 8, 68, 90
12, 21299, Note_on_c, 8, 68, 0
12, 21420, Note_on_c, 8, 57, 90
12, 21479, Note_on_c, 8, 57, 0
12, 21480, Note_on_c, 8, 59, 90
12, 21539, Note_on_c, 8, 59, 0
12, 21540, Note_on_c, 8, 61, 90
12, 21599, Note_on_c, 8, 61, 0
12, 21600, Note_on_c, 8, 62, 90
12, 21659, Note_on_c, 8, 62, 0
12, 21660, Note_on_c, 8, 64, 90
12, 21779, Note_on_c, 8, 64, 0
12, 21780, Note_on_c, 8, 58, 90
12, 21959, Note_on_c, 8, 58, 0
12, 21960, Note_on_c, 8, 61, 90
12, 22019, Note_on_c, 8, 61, 0
12, 22020, Note_on_c, 8, 66, 90
12, 22079, Note_on_c, 8, 66, 0
12, 22080, Note_on_c, 8, 64, 90
12, 22139, Note_on_c, 8, 64, 0
12, 22140, Note_on_c, 8, 62, 90
12, 22199, Note_on_c, 8, 62, 0
12, 22200, Note_on_c, 8, 61, 90
12, 22259, Note_on_c, 8, 61, 0
12, 22260, Note_on_c, 8, 59, 90
12, 22319, Note_on_c, 8, 59, 0
12, 22320, Note_on_c, 8, 61, 90
12, 22379, Note_on_c, 8, 61, 0
12, 22380, Note_on_c, 8, 62, 90
12, 22499, Note_on_c, 8, 62, 0
12, 22500, Note_on_c, 8, 62, 90
12, 22619, Note_on_c, 8, 62, 0
12, 22860, Note_on_c, 8, 57, 90
12, 22919, Note_on_c, 8, 57, 0
12, 22920, Note_on_c, 8, 59, 90
12, 22979, Note_on_c, 8, 59, 0
12, 22980, Note_on_c, 8, 61, 90
12, 23039, Note_on_c, 8, 61, 0
12, 23040, Note_on_c, 8, 62, 90
12, 23099, Note_on_c, 8, 62, 0
12, 23100, Note_on_c, 8, 64, 90
12, 23159, Note_on_c, 8, 64, 0
12, 23160, Note_on_c, 8, 62, 90
12, 23219, Note_on_c, 8, 62, 0
12, 23220, Note_on_c, 8, 61, 90
12, 23279, Note_on_c, 8, 61, 0
12, 23280, Note_on_c, 8, 59, 90
12, 23339, Note_on_c, 8, 59, 0
12, 23340, Note_on_c, 8, 64, 90
12, 23579, Note_on_c, 8, 64, 0
12, 23640, Note_on_c, 8, 63, 90
12, 23699, Note_on_c, 8, 63, 0
12, 23700, Note_on_c, 8, 61, 90
12, 23759, Note_on_c, 8, 61, 0
12, 23760, Note_on_c, 8, 59, 90
12, 23819, Note_on_c, 8, 59, 0
12, 23820, Note_on_c, 8, 57, 90
12, 23939, Note_on_c, 8, 57, 0
12, 23940, Note_on_c, 8, 59, 90
12, 24059, Note_on_c, 8, 59, 0
12, 24060, Note_on_c, 8, 56, 90
12, 24179, Note_on_c, 8, 56, 0
12, 24180, Note_on_c, 8, 61, 90
12, 24359, Note_on_c, 8, 61, 0
12, 24360, Note_on_c, 8, 59, 90
12, 24419, Note_on_c, 8, 59, 0
12, 24420, Note_on_c, 8, 61, 90
12, 24599, Note_on_c, 8, 61, 0
12, 24600, Note_on_c, 8, 54, 90
12, 24659, Note_on_c, 8, 54, 0
12, 24660, Note_on_c, 8, 61, 90
12, 24719, Note_on_c, 8, 61, 0
12, 24720, Note_on_c, 8, 58, 90
12, 24779, Note_on_c, 8, 58, 0
12, 24780, Note_on_c, 8, 59, 90
12, 24899, Note_on_c, 8, 59, 0
12, 24900, Note_on_c, 8, 65, 90
12, 24959, Note_on_c, 8, 65, 0
12, 24960, Note_on_c, 8, 66, 90
12, 25019, Note_on_c, 8, 66, 0
12, 25020, Note_on_c, 8, 68, 90
12, 25139, Note_on_c, 8, 68, 0
12, 25140, Note_on_c, 8, 61, 90
12, 25259, Note_on_c, 8, 61, 0
12, 25500, Note_on_c, 8, 61, 90
12, 25619, Note_on_c, 8, 61, 0
12, 25620, Note_on_c, 8, 66, 90
12, 25799, Note_on_c, 8, 66, 0
12, 25800, Note_on_c, 8, 64, 90
12, 25859, Note_on_c, 8, 64, 0
12, 25860, Note_on_c, 8, 66, 90
12, 26039, Note_on_c, 8, 66, 0
12, 26040, Note_on_c, 8, 68, 90
12, 26069, Note_on_c, 8, 68, 0
12, 26070, Note_on_c, 8, 69, 90
12, 26099, Note_on_c, 8, 69, 0
12, 26100, Note_on_c, 8, 68, 90
12, 26219, Note_on_c, 8, 68, 0
12, 26220, Note_on_c, 8, 56, 90
12, 26339, Note_on_c, 8, 56, 0
12, 26400, Note_on_c, 8, 54, 90
12, 26459, Note_on_c, 8, 54, 0
12, 26460, Note_on_c, 8, 59, 90
12, 26579, Note_on_c, 8, 59, 0
12, 26760, Note_on_c, 8, 59, 90
12, 26819, Note_on_c, 8, 59, 0
12, 26820, Note_on_c, 8, 64, 90
12, 26939, Note_on_c, 8, 64, 0
12, 27000, Note_on_c, 8, 61, 90
12, 27059, Note_on_c, 8, 61, 0
12, 27060, Note_on_c, 8, 69, 90
12, 27119, Note_on_c, 8, 69, 0
12, 27120, Note_on_c, 8, 61, 90
12, 27179, Note_on_c, 8, 61, 0
12, 27180, Note_on_c, 8, 58, 90
12, 27239, Note_on_c, 8, 58, 0
12, 27240, Note_on_c, 8, 63, 90
12, 27299, Note_on_c, 8, 63, 0
12, 27300, Note_on_c, 8, 56, 90
12, 27359, Note_on_c, 8, 56, 0
12, 27360, Note_on_c, 8, 56, 90
12, 27419, Note_on_c, 8, 56, 0
12, 27420, Note_on_c, 8, 68, 90
12, 27539, Note_on_c, 8, 68, 0
12, 27540, Note_on_c, 8, 66, 90
12, 27599, Note_on_c, 8, 66, 0
12, 27720, Note_on_c, 8, 61, 90
12, 27779, Note_on_c, 8, 61, 0
12, 27780, Note_on_c, 8, 66, 90
12, 27839, Note_on_c, 8, 66, 0
12, 27840, Note_on_c, 8, 64, 90
12, 27899, Note_on_c, 8, 64, 0
12, 27900, Note_on_c, 8, 63, 90
12, 28019, Note_on_c, 8, 63, 0
12, 28080, Note_on_c, 8, 56, 90
12, 28139, Note_on_c, 8, 56, 0
12, 28140, Note_on_c, 8, 57, 90
12, 28199, Note_on_c, 8, 57, 0
12, 28200, Note_on_c, 8, 59, 90
12, 28259, Note_on_c, 8, 59, 0
12, 28260, Note_on_c, 8, 61, 90
12, 28319, Note_on_c, 8, 61, 0
12, 28320, Note_on_c, 8, 61, 90
12, 28349, Note_on_c, 8, 61, 0
12, 28350, Note_on_c, 8, 60, 90
12, 28379, Note_on_c, 8, 60, 0
12, 28380, Note_on_c, 8, 61, 90
12, 28439, Note_on_c, 8, 61, 0
12, 28440, Note_on_c, 8, 63, 90
12, 28499, Note_on_c, 8, 63, 0
12, 28500, Note_on_c, 8, 60, 90
12, 28619, Note_on_c, 8, 60, 0
12, 28620, Note_on_c, 8, 61, 90
12, 28739, Note_on_c, 8, 61, 0
12, 32460, Note_on_c, 8, 61, 90
12, 32579, Note_on_c, 8, 61, 0
12, 32580, Note_on_c, 8, 61, 90
12, 32699, Note_on_c, 8, 61, 0
12, 32700, Note_on_c, 8, 62, 90
12, 32759, Note_on_c, 8, 62, 0
12, 32760, Note_on_c, 8, 61, 90
12, 32819, Note_on_c, 8, 61, 0
12, 32820, Note_on_c, 8, 59, 90
12, 32879, Note_on_c, 8, 59, 0
12, 32880, Note_on_c, 8, 64, 90
12, 32939, Note_on_c, 8, 64, 0
12, 32940, Note_on_c, 8, 61, 90
12, 32999, Note_on_c, 8, 61, 0
12, 33000, Note_on_c, 8, 64, 90
12, 33059, Note_on_c, 8, 64, 0
12, 33060, Note_on_c, 8, 57, 90
12, 33119, Note_on_c, 8, 57, 0
12, 33120, Note_on_c, 8, 62, 90
12, 33239, Note_on_c, 8, 62, 0
12, 33240, Note_on_c, 8, 61, 90
12, 33299, Note_on_c, 8, 61, 0
12, 33300, Note_on_c, 8, 57, 90
12, 33539, Note_on_c, 8, 57, 0
12, 33540, Note_on_c, 8, 66, 90
12, 33659, Note_on_c, 8, 66, 0
12, 33660, Note_on_c, 8, 64, 90
12, 33779, Note_on_c, 8, 64, 0
12, 33780, Note_on_c, 8, 62, 90
12, 33899, Note_on_c, 8, 62, 0
12, 33900, Note_on_c, 8, 64, 90
12, 34019, Note_on_c, 8, 64, 0
12, 34020, Note_on_c, 8, 64, 90
12, 34079, Note_on_c, 8, 64, 0
12, 34080, Note_on_c, 8, 66, 90
12, 34199, Note_on_c, 8, 66, 0
12, 34200, Note_on_c, 8, 64, 90
12, 34229, Note_on_c, 8, 64, 0
12, 34230, Note_on_c, 8, 62, 90
12, 34259, Note_on_c, 8, 62, 0
12, 34260, Note_on_c, 8, 61, 90
12, 34379, Note_on_c, 8, 61, 0
12, 34380, Note_on_c, 8, 57, 90
12, 34499, Note_on_c, 8, 57, 0
12, 34500, Note_on_c, 8, 66, 90
12, 34559, Note_on_c, 8, 66, 0
12, 34560, Note_on_c, 8, 64, 90
12, 34619, Note_on_c, 8, 64, 0
12, 34620, Note_on_c, 8, 64, 90
12, 34739, Note_on_c, 8, 64, 0
12, 34740, Note_on_c, 8, 64, 90
12, 34859, Note_on_c, 8, 64, 0
12, 34860, Note_on_c, 8, 64, 90
12, 34919, Note_on_c, 8, 64, 0
12, 34920, Note_on_c, 8, 59, 90
12, 34979, Note_on_c, 8, 59, 0
12, 34980, Note_on_c, 8, 61, 90
12, 35039, Note_on_c, 8, 61, 0
12, 35040, Note_on_c, 8, 64, 90
12, 35099, Note_on_c, 8, 64, 0
12, 35100, Note_on_c, 8, 59, 90
12, 35159, Note_on_c, 8, 59, 0
12, 35160, Note_on_c, 8, 57, 90
12, 35219, Note_on_c, 8, 57, 0
12, 35220, Note_on_c, 8, 56, 90
12, 35339, Note_on_c, 8, 56, 0
12, 35340, Note_on_c, 8, 57, 90
12, 35399, Note_on_c, 8, 57, 0
12, 35400, Note_on_c, 8, 54, 90
12, 35459, Note_on_c, 8, 54, 0
12, 35460, Note_on_c, 8, 56, 90
12, 35579, Note_on_c, 8, 56, 0
12, 35580, Note_on_c, 8, 57, 90
12, 35699, Note_on_c, 8, 57, 0
12, 35700, Note_on_c, 8, 56, 90
12, 35819, Note_on_c, 8, 56, 0
12, 35820, Note_on_c, 8, 57, 90
12, 35939, Note_on_c, 8, 57, 0
12, 35940, Note_on_c, 8, 57, 90
12, 35999, Note_on_c, 8, 57, 0
12, 36000, Note_on_c, 8, 56, 90
12, 36059, Note_on_c, 8, 56, 0
12, 36060, Note_on_c, 8, 54, 90
12, 36119, Note_on_c, 8, 54, 0
12, 36120, Note_on_c, 8, 59, 90
12, 36179, Note_on_c, 8, 59, 0
12, 36180, Note_on_c, 8, 61, 90
12, 36239, Note_on_c, 8, 61, 0
12, 36240, Note_on_c, 8, 62, 90
12, 36299, Note_on_c, 8, 62, 0
12, 36300, Note_on_c, 8, 64, 90
12, 36419, Note_on_c, 8, 64, 0
12, 36420, Note_on_c, 8, 66, 90
12, 36539, Note_on_c, 8, 66, 0
12, 36540, Note_on_c, 8, 64, 90
12, 36779, Note_on_c, 8, 64, 0
12, 36780, Note_on_c, 8, 62, 90
12, 37019, Note_on_c, 8, 62, 0
12, 37020, Note_on_c, 8, 61, 90
12, 37079, Note_on_c, 8, 61, 0
12, 37080, Note_on_c, 8, 59, 90
12, 37139, Note_on_c, 8, 59, 0
12, 37140, Note_on_c, 8, 61, 90
12, 37259, Note_on_c, 8, 61, 0
12, 132660, Note_on_c, 8, 59, 90
12, 132779, Note_on_c, 8, 59, 0
12, 132780, Note_on_c, 8, 60, 90
12, 132899, Note_on_c, 8, 60, 0
12, 132900, Note_on_c, 8, 54, 90
12, 133019, Note_on_c, 8, 54, 0
12, 133020, Note_on_c, 8, 55, 90
12, 133139, Note_on_c, 8, 55, 0
12, 133140, Note_on_c, 8, 60, 90
12, 133259, Note_on_c, 8, 60, 0
12, 133260, Note_on_c, 8, 60, 90
12, 133319, Note_on_c, 8, 60, 0
12, 133320, Note_on_c, 8, 62, 90
12, 133379, Note_on_c, 8, 62, 0
12, 133380, Note_on_c, 8, 64, 90
12, 133499, Note_on_c, 8, 64, 0
12, 133500, Note_on_c, 8, 62, 90
12, 133619, Note_on_c, 8, 62, 0
12, 133620, Note_on_c, 8, 64, 90
12, 133859, Note_on_c, 8, 64, 0
12, 133860, Note_on_c, 8, 67, 90
12, 133919, Note_on_c, 8, 67, 0
12, 133920, Note_on_c, 8, 65, 90
12, 133979, Note_on_c, 8, 65, 0
12, 133980, Note_on_c, 8, 64, 90
12, 134099, Note_on_c, 8, 64, 0
12, 134100, Note_on_c, 8, 64, 90
12, 134339, Note_on_c, 8, 64, 0
12, 134340, Note_on_c, 8, 64, 90
12, 134459, Note_on_c, 8, 64, 0
12, 134460, Note_on_c, 8, 62, 90
12, 134579, Note_on_c, 8, 62, 0
12, 134580, Note_on_c, 8, 62, 90
12, 134819, Note_on_c, 8, 62, 0
12, 134820, Note_on_c, 8, 57, 90
12, 134939, Note_on_c, 8, 57, 0
12, 134940, Note_on_c, 8, 59, 90
12, 135059, Note_on_c, 8, 59, 0
12, 135060, Note_on_c, 8, 60, 90
12, 135179, Note_on_c, 8, 60, 0
12, 135180, Note_on_c, 8, 62, 90
12, 135299, Note_on_c, 8, 62, 0
12, 135300, Note_on_c, 8, 64, 90
12, 135419, Note_on_c, 8, 64, 0
12, 135420, Note_on_c, 8, 62, 90
12, 135479, Note_on_c, 8, 62, 0
12, 135480, Note_on_c, 8, 60, 90
12, 135539, Note_on_c, 8, 60, 0
12, 135540, Note_on_c, 8, 59, 90
12, 135779, Note_on_c, 8, 59, 0
12, 135780, Note_on_c, 8, 60, 90
12, 135899, Note_on_c, 8, 60, 0
12, 135900, Note_on_c, 8, 55, 90
12, 136019, Note_on_c, 8, 55, 0
12, 136020, Note_on_c, 8, 54, 90
12, 136139, Note_on_c, 8, 54, 0
12, 136140, Note_on_c, 8, 55, 90
12, 136259, Note_on_c, 8, 55, 0
12, 136260, Note_on_c, 8, 55, 90
12, 136319, Note_on_c, 8, 55, 0
12, 136320, Note_on_c, 8, 53, 90
12, 136379, Note_on_c, 8, 53, 0
12, 136380, Note_on_c, 8, 55, 90
12, 136439, Note_on_c, 8, 55, 0
12, 136440, Note_on_c, 8, 57, 90
12, 136499, Note_on_c, 8, 57, 0
12, 136500, Note_on_c, 8, 55, 90
12, 136619, Note_on_c, 8, 55, 0
12, 136620, Note_on_c, 8, 64, 90
12, 136739, Note_on_c, 8, 64, 0
12, 136740, Note_on_c, 8, 64, 90
12, 136979, Note_on_c, 8, 64, 0
12, 136980, Note_on_c, 8, 62, 90
12, 137039, Note_on_c, 8, 62, 0
12, 137040, Note_on_c, 8, 60, 90
12, 137099, Note_on_c, 8, 60, 0
12, 137100, Note_on_c, 8, 59, 90
12, 137219, Note_on_c, 8, 59, 0
12, 137220, Note_on_c, 8, 57, 90
12, 137459, Note_on_c, 8, 57, 0
12, 137460, Note_on_c, 8, 55, 90
12, 137519, Note_on_c, 8, 55, 0
12, 137520, Note_on_c, 8, 57, 90
12, 137579, Note_on_c, 8, 57, 0
12, 137580, Note_on_c, 8, 59, 90
12, 137639, Note_on_c, 8, 59, 0
12, 137640, Note_on_c, 8, 55, 90
12, 137699, Note_on_c, 8, 55, 0
12, 137700, Note_on_c, 8, 62, 90
12, 137939, Note_on_c, 8, 62, 0
12, 137940, Note_on_c, 8, 59, 90
12, 137999, Note_on_c, 8, 59, 0
12, 138000, Note_on_c, 8, 60, 90
12, 138059, Note_on_c, 8, 60, 0
12, 138060, Note_on_c, 8, 62, 90
12, 138179, Note_on_c, 8, 62, 0
12, 138180, Note_on_c, 8, 64, 90
12, 138239, Note_on_c, 8, 64, 0
12, 138240, Note_on_c, 8, 66, 90
12, 138299, Note_on_c, 8, 66, 0
12, 138300, Note_on_c, 8, 67, 90
12, 138419, Note_on_c, 8, 67, 0
12, 138420, Note_on_c, 8, 62, 90
12, 138479, Note_on_c, 8, 62, 0
12, 138480, Note_on_c, 8, 60, 90
12, 138509, Note_on_c, 8, 60, 0
12, 138510, Note_on_c, 8, 59, 90
12, 138539, Note_on_c, 8, 59, 0
12, 138540, Note_on_c, 8, 60, 90
12, 138659, Note_on_c, 8, 60, 0
12, 138660, Note_on_c, 8, 59, 90
12, 138899, Note_on_c, 8, 59, 0
12, 141900, Note_on_c, 8, 57, 90
12, 141959, Note_on_c, 8, 57, 0
12, 141960, Note_on_c, 8, 59, 90
12, 142019, Note_on_c, 8, 59, 0
12, 142020, Note_on_c, 8, 61, 90
12, 142139, Note_on_c, 8, 61, 0
12, 142140, Note_on_c, 8, 61, 90
12, 142199, Note_on_c, 8, 61, 0
12, 142200, Note_on_c, 8, 59, 90
12, 142259, Note_on_c, 8, 59, 0
12, 142260, Note_on_c, 8, 57, 90
12, 142379, Note_on_c, 8, 57, 0
12, 142380, Note_on_c, 8, 59, 90
12, 142499, Note_on_c, 8, 59, 0
12, 142500, Note_on_c, 8, 61, 90
12, 142619, Note_on_c, 8, 61, 0
12, 142620, Note_on_c, 8, 61, 90
12, 142679, Note_on_c, 8, 61, 0
12, 142680, Note_on_c, 8, 59, 90
12, 142739, Note_on_c, 8, 59, 0
12, 142740, Note_on_c, 8, 57, 90
12, 142859, Note_on_c, 8, 57, 0
12, 142860, Note_on_c, 8, 57, 90
12, 142979, Note_on_c, 8, 57, 0
12, 142980, Note_on_c, 8, 59, 90
12, 143099, Note_on_c, 8, 59, 0
12, 143100, Note_on_c, 8, 61, 90
12, 143219, Note_on_c, 8, 61, 0
12, 143220, Note_on_c, 8, 61, 90
12, 143339, Note_on_c, 8, 61, 0
12, 143340, Note_on_c, 8, 61, 90
12, 143459, Note_on_c, 8, 61, 0
12, 143460, Note_on_c, 8, 61, 90
12, 143579, Note_on_c, 8, 61, 0
12, 143580, Note_on_c, 8, 62, 90
12, 143699, Note_on_c, 8, 62, 0
12, 143700, Note_on_c, 8, 62, 90
12, 143759, Note_on_c, 8, 62, 0
12, 143760, Note_on_c, 8, 64, 90
12, 143789, Note_on_c, 8, 64, 0
12, 143790, Note_on_c, 8, 66, 90
12, 143819, Note_on_c, 8, 66, 0
12, 143820, Note_on_c, 8, 64, 90
12, 143879, Note_on_c, 8, 64, 0
12, 143880, Note_on_c, 8, 62, 90
12, 143939, Note_on_c, 8, 62, 0
12, 143940, Note_on_c, 8, 61, 90
12, 144059, Note_on_c, 8, 61, 0
12, 144060, Note_on_c, 8, 59, 90
12, 144119, Note_on_c, 8, 59, 0
12, 144120, Note_on_c, 8, 57, 90
12, 144179, Note_on_c, 8, 57, 0
12, 144180, Note_on_c, 8, 62, 90
12, 144239, Note_on_c, 8, 62, 0
12, 144240, Note_on_c, 8, 61, 90
12, 144299, Note_on_c, 8, 61, 0
12, 144300, Note_on_c, 8, 61, 90
12, 144359, Note_on_c, 8, 61, 0
12, 144360, Note_on_c, 8, 62, 90
12, 144419, Note_on_c, 8, 62, 0
12, 144420, Note_on_c, 8, 62, 90
12, 144479, Note_on_c, 8, 62, 0
12, 144480, Note_on_c, 8, 59, 90
12, 144539, Note_on_c, 8, 59, 0
12, 144540, Note_on_c, 8, 56, 90
12, 144599, Note_on_c, 8, 56, 0
12, 144600, Note_on_c, 8, 61, 90
12, 144659, Note_on_c, 8, 61, 0
12, 144660, Note_on_c, 8, 57, 90
12, 144779, Note_on_c, 8, 57, 0
12, 144780, Note_on_c, 8, 57, 90
12, 144899, Note_on_c, 8, 57, 0
12, 144900, Note_on_c, 8, 59, 90
12, 144959, Note_on_c, 8, 59, 0
12, 144960, Note_on_c, 8, 61, 90
12, 145019, Note_on_c, 8, 61, 0
12, 145020, Note_on_c, 8, 63, 90
12, 145139, Note_on_c, 8, 63, 0
12, 145140, Note_on_c, 8, 61, 90
12, 145259, Note_on_c, 8, 61, 0
12, 145260, Note_on_c, 8, 61, 90
12, 145379, Note_on_c, 8, 61, 0
12, 145380, Note_on_c, 8, 54, 90
12, 145499, Note_on_c, 8, 54, 0
12, 145500, Note_on_c, 8, 59, 90
12, 145619, Note_on_c, 8, 59, 0
12, 145620, Note_on_c, 8, 59, 90
12, 145739, Note_on_c, 8, 59, 0
12, 145740, Note_on_c, 8, 61, 90
12, 145919, Note_on_c, 8, 61, 0
12, 145920, Note_on_c, 8, 57, 90
12, 145979, Note_on_c, 8, 57, 0
12, 145980, Note_on_c, 8, 62, 90
12, 146159, Note_on_c, 8, 62, 0
12, 146160, Note_on_c, 8, 59, 90
12, 146219, Note_on_c, 8, 59, 0
12, 146220, Note_on_c, 8, 64, 90
12, 146399, Note_on_c, 8, 64, 0
12, 146400, Note_on_c, 8, 61, 90
12, 146459, Note_on_c, 8, 61, 0
12, 146460, Note_on_c, 8, 66, 90
12, 146519, Note_on_c, 8, 66, 0
12, 146520, Note_on_c, 8, 64, 90
12, 146579, Note_on_c, 8, 64, 0
12, 146580, Note_on_c, 8, 62, 90
12, 146639, Note_on_c, 8, 62, 0
12, 146640, Note_on_c, 8, 61, 90
12, 146699, Note_on_c, 8, 61, 0
12, 146700, Note_on_c, 8, 63, 90
12, 146819, Note_on_c, 8, 63, 0
12, 146820, Note_on_c, 8, 61, 90
12, 146879, Note_on_c, 8, 61, 0
12, 146880, Note_on_c, 8, 56, 90
12, 146939, Note_on_c, 8, 56, 0
12, 146940, Note_on_c, 8, 61, 90
12, 146999, Note_on_c, 8, 61, 0
12, 147000, Note_on_c, 8, 59, 90
12, 147059, Note_on_c, 8, 59, 0
12, 147060, Note_on_c, 8, 57, 90
12, 147179, Note_on_c, 8, 57, 0
12, 147300, Note_on_c, 8, 69, 90
12, 147359, Note_on_c, 8, 69, 0
12, 147360, Note_on_c, 8, 69, 90
12, 147419, Note_on_c, 8, 69, 0
12, 147420, Note_on_c, 8, 69, 90
12, 147479, Note_on_c, 8, 69, 0
12, 147480, Note_on_c, 8, 71, 90
12, 147539, Note_on_c, 8, 71, 0
12, 147540, Note_on_c, 8, 66, 90
12, 147599, Note_on_c, 8, 66, 0
12, 147600, Note_on_c, 8, 71, 90
12, 147659, Note_on_c, 8, 71, 0
12, 147660, Note_on_c, 8, 69, 90
12, 147719, Note_on_c, 8, 69, 0
12, 147720, Note_on_c, 8, 64, 90
12, 147779, Note_on_c, 8, 64, 0
12, 147780, Note_on_c, 8, 71, 90
12, 147839, Note_on_c, 8, 71, 0
12, 147840, Note_on_c, 8, 71, 90
12, 147899, Note_on_c, 8, 71, 0
12, 147900, Note_on_c, 8, 59, 90
12, 147959, Note_on_c, 8, 59, 0
12, 147960, Note_on_c, 8, 71, 90
12, 148019, Note_on_c, 8, 71, 0
12, 148020, Note_on_c, 8, 71, 90
12, 148079, Note_on_c, 8, 71, 0
12, 148080, Note_on_c, 8, 71, 90
12, 148139, Note_on_c, 8, 71, 0
12, 148140, Note_on_c, 8, 71, 90
12, 148199, Note_on_c, 8, 71, 0
12, 148200, Note_on_c, 8, 69, 90
12, 148259, Note_on_c, 8, 69, 0
12, 148260, Note_on_c, 8, 69, 90
12, 148319, Note_on_c, 8, 69, 0
12, 148320, Note_on_c, 8, 67, 90
12, 148379, Note_on_c, 8, 67, 0
12, 148380, Note_on_c, 8, 64, 90
12, 148439, Note_on_c, 8, 64, 0
12, 148440, Note_on_c, 8, 62, 90
12, 148499, Note_on_c, 8, 62, 0
12, 148500, Note_on_c, 8, 69, 90
12, 148559, Note_on_c, 8, 69, 0
12, 148560, Note_on_c, 8, 69, 90
12, 148619, Note_on_c, 8, 69, 0
12, 148620, Note_on_c, 8, 74, 90
12, 148679, Note_on_c, 8, 74, 0
12, 148680, Note_on_c, 8, 69, 90
12, 148739, Note_on_c, 8, 69, 0
12, 148740, Note_on_c, 8, 57, 90
12, 148799, Note_on_c, 8, 57, 0
12, 148800, Note_on_c, 8, 64, 90
12, 148859, Note_on_c, 8, 64, 0
12, 148860, Note_on_c, 8, 64, 90
12, 148919, Note_on_c, 8, 64, 0
12, 148920, Note_on_c, 8, 64, 90
12, 148979, Note_on_c, 8, 64, 0
12, 148980, Note_on_c, 8, 64, 90
12, 149039, Note_on_c, 8, 64, 0
12, 149040, Note_on_c, 8, 64, 90
12, 149099, Note_on_c, 8, 64, 0
12, 149100, Note_on_c, 8, 66, 90
12, 149159, Note_on_c, 8, 66, 0
12, 149160, Note_on_c, 8, 64, 90
12, 149219, Note_on_c, 8, 64, 0
12, 149220, Note_on_c, 8, 64, 90
12, 149279, Note_on_c, 8, 64, 0
12, 149280, Note_on_c, 8, 64, 90
12, 149339, Note_on_c, 8, 64, 0
12, 149520, Note_on_c, 8, 69, 90
12, 149579, Note_on_c, 8, 69, 0
12, 149580, Note_on_c, 8, 69, 90
12, 149639, Note_on_c, 8, 69, 0
12, 149640, Note_on_c, 8, 69, 90
12, 149699, Note_on_c, 8, 69, 0
12, 149880, Note_on_c, 8, 57, 90
12, 149939, Note_on_c, 8, 57, 0
12, 149940, Note_on_c, 8, 57, 90
12, 149999, Note_on_c, 8, 57, 0
12, 150000, Note_on_c, 8, 57, 90
12, 150179, Note_on_c, 8, 57, 0
12, 153060, Note_on_c, 8, 69, 90
12, 153119, Note_on_c, 8, 69, 0
12, 153120, Note_on_c, 8, 69, 90
12, 153179, Note_on_c, 8, 69, 0
12, 153180, Note_on_c, 8, 69, 90
12, 153239, Note_on_c, 8, 69, 0
12, 153240, Note_on_c, 8, 71, 90
12, 153299, Note_on_c, 8, 71, 0
12, 153300, Note_on_c, 8, 66, 90
12, 153359, Note_on_c, 8, 66, 0
12, 153360, Note_on_c, 8, 71, 90
12, 153419, Note_on_c, 8, 71, 0
12, 153420, Note_on_c, 8, 69, 90
12, 153479, Note_on_c, 8, 69, 0
12, 153480, Note_on_c, 8, 64, 90
12, 153539, Note_on_c, 8, 64, 0
12, 153540, Note_on_c, 8, 71, 90
12, 153599, Note_on_c, 8, 71, 0
12, 153600, Note_on_c, 8, 71, 90
12, 153659, Note_on_c, 8, 71, 0
12, 153660, Note_on_c, 8, 71, 90
12, 153719, Note_on_c, 8, 71, 0
12, 153720, Note_on_c, 8, 71, 90
12, 153779, Note_on_c, 8, 71, 0
12, 153780, Note_on_c, 8, 71, 90
12, 153839, Note_on_c, 8, 71, 0
12, 153840, Note_on_c, 8, 71, 90
12, 153899, Note_on_c, 8, 71, 0
12, 153900, Note_on_c, 8, 71, 90
12, 153959, Note_on_c, 8, 71, 0
12, 153960, Note_on_c, 8, 69, 90
12, 154019, Note_on_c, 8, 69, 0
12, 154020, Note_on_c, 8, 69, 90
12, 154079, Note_on_c, 8, 69, 0
12, 154080, Note_on_c, 8, 67, 90
12, 154139, Note_on_c, 8, 67, 0
12, 154140, Note_on_c, 8, 64, 90
12, 154199, Note_on_c, 8, 64, 0
12, 154200, Note_on_c, 8, 62, 90
12, 154259, Note_on_c, 8, 62, 0
12, 154260, Note_on_c, 8, 69, 90
12, 154319, Note_on_c, 8, 69, 0
12, 154320, Note_on_c, 8, 69, 90
12, 154379, Note_on_c, 8, 69, 0
12, 154380, Note_on_c, 8, 74, 90
12, 154439, Note_on_c, 8, 74, 0
12, 154440, Note_on_c, 8, 69, 90
12, 154499, Note_on_c, 8, 69, 0
12, 154500, Note_on_c, 8, 57, 90
12, 154559, Note_on_c, 8, 57, 0
12, 154560, Note_on_c, 8, 64, 90
12, 154619, Note_on_c, 8, 64, 0
12, 154620, Note_on_c, 8, 64, 90
12, 154679, Note_on_c, 8, 64, 0
12, 154680, Note_on_c, 8, 64, 90
12, 154739, Note_on_c, 8, 64, 0
12, 154740, Note_on_c, 8, 64, 90
12, 154799, Note_on_c, 8, 64, 0
12, 154800, Note_on_c, 8, 64, 90
12, 154859, Note_on_c, 8, 64, 0
12, 154860, Note_on_c, 8, 66, 90
12, 154919, Note_on_c, 8, 66, 0
12, 154920, Note_on_c, 8, 64, 90
12, 154979, Note_on_c, 8, 64, 0
12, 154980, Note_on_c, 8, 64, 90
12, 155039, Note_on_c, 8, 64, 0
12, 155040, Note_on_c, 8, 64, 90
12, 155099, Note_on_c, 8, 64, 0
12, 155280, Note_on_c, 8, 69, 90
12, 155339, Note_on_c, 8, 69, 0
12, 155340, Note_on_c, 8, 69, 90
12, 155399, Note_on_c, 8, 69, 0
12, 155400, Note_on_c, 8, 69, 90
12, 155459, Note_on_c, 8, 69, 0
12, 155640, Note_on_c, 8, 57, 90
12, 155699, Note_on_c, 8, 57, 0
12, 155700, Note_on_c, 8, 57, 90
12, 155759, Note_on_c, 8, 57, 0
12, 155760, Note_on_c, 8, 57, 90
12, 155939, Note_on_c, 8, 57, 0
12, 155940, Note_on_c, 8, 64, 90
12, 155999, Note_on_c, 8, 64, 0
12, 156000, Note_on_c, 8, 64, 90
12, 156059, Note_on_c, 8, 64, 0
12, 156060, Note_on_c, 8, 64, 90
12, 156119, Note_on_c, 8, 64, 0
12, 156120, Note_on_c, 8, 64, 90
12, 156179, Note_on_c, 8, 64, 0
12, 156180, Note_on_c, 8, 69, 90
12, 156239, Note_on_c, 8, 69, 0
12, 156240, Note_on_c, 8, 64, 90
12, 156299, Note_on_c, 8, 64, 0
12, 156300, Note_on_c, 8, 66, 90
12, 156329, Note_on_c, 8, 66, 0
12, 156330, Note_on_c, 8, 67, 90
12, 156359, Note_on_c, 8, 67, 0
12, 156360, Note_on_c, 8, 69, 90
12, 156419, Note_on_c, 8, 69, 0
12, 156420, Note_on_c, 8, 67, 90
12, 156479, Note_on_c, 8, 67, 0
12, 156480, Note_on_c, 8, 69, 90
12, 156539, Note_on_c, 8, 69, 0
12, 156540, Note_on_c, 8, 67, 90
12, 156599, Note_on_c, 8, 67, 0
12, 156600, Note_on_c, 8, 64, 90
12, 156659, Note_on_c, 8, 64, 0
12, 156660, Note_on_c, 8, 62, 90
12, 156719, Note_on_c, 8, 62, 0
12, 156720, Note_on_c, 8, 69, 90
12, 156779, Note_on_c, 8, 69, 0
12, 156780, Note_on_c, 8, 69, 90
12, 156839, Note_on_c, 8, 69, 0
12, 156840, Note_on_c, 8, 69, 90
12, 156899, Note_on_c, 8, 69, 0
12, 156900, Note_on_c, 8, 74, 90
12, 156959, Note_on_c, 8, 74, 0
12, 156960, Note_on_c, 8, 69, 90
12, 157019, Note_on_c, 8, 69, 0
12, 157020, Note_on_c, 8, 71, 90
12, 157049, Note_on_c, 8, 71, 0
12, 157050, Note_on_c, 8, 72, 90
12, 157079, Note_on_c, 8, 72, 0
12, 157080, Note_on_c, 8, 74, 90
12, 157139, Note_on_c, 8, 74, 0
12, 157140, Note_on_c, 8, 72, 90
12, 157199, Note_on_c, 8, 72, 0
12, 157200, Note_on_c, 8, 74, 90
12, 157259, Note_on_c, 8, 74, 0
12, 157260, Note_on_c, 8, 72, 90
12, 157319, Note_on_c, 8, 72, 0
12, 157320, Note_on_c, 8, 69, 90
12, 157379, Note_on_c, 8, 69, 0
12, 157380, Note_on_c, 8, 67, 90
12, 157439, Note_on_c, 8, 67, 0
12, 157440, Note_on_c, 8, 71, 90
12, 157499, Note_on_c, 8, 71, 0
12, 157500, Note_on_c, 8, 67, 90
12, 157559, Note_on_c, 8, 67, 0
12, 157560, Note_on_c, 8, 64, 90
12, 157619, Note_on_c, 8, 64, 0
12, 157620, Note_on_c, 8, 69, 90
12, 157679, Note_on_c, 8, 69, 0
12, 157680, Note_on_c, 8, 67, 90
12, 157739, Note_on_c, 8, 67, 0
12, 157740, Note_on_c, 8, 69, 90
12, 157799, Note_on_c, 8, 69, 0
12, 157800, Note_on_c, 8, 71, 90
12, 157859, Note_on_c, 8, 71, 0
12, 157860, Note_on_c, 8, 69, 90
12, 157919, Note_on_c, 8, 69, 0
12, 157920, Note_on_c, 8, 66, 90
12, 158039, Note_on_c, 8, 66, 0
12, 158160, Note_on_c, 8, 66, 90
12, 158219, Note_on_c, 8, 66, 0
12, 158220, Note_on_c, 8, 62, 90
12, 158279, Note_on_c, 8, 62, 0
12, 158280, Note_on_c, 8, 62, 90
12, 158399, Note_on_c, 8, 62, 0
12, 158520, Note_on_c, 8, 62, 90
12, 158579, Note_on_c, 8, 62, 0
12, 158580, Note_on_c, 8, 62, 90
12, 158639, Note_on_c, 8, 62, 0
12, 158640, Note_on_c, 8, 62, 90
12, 158819, Note_on_c, 8, 62, 0
12, 161700, Note_on_c, 8, 64, 90
12, 161759, Note_on_c, 8, 64, 0
12, 161760, Note_on_c, 8, 64, 90
12, 161819, Note_on_c, 8, 64, 0
12, 161820, Note_on_c, 8, 64, 90
12, 161879, Note_on_c, 8, 64, 0
12, 161880, Note_on_c, 8, 64, 90
12, 161939, Note_on_c, 8, 64, 0
12, 161940, Note_on_c, 8, 69, 90
12, 161999, Note_on_c, 8, 69, 0
12, 162000, Note_on_c, 8, 64, 90
12, 162059, Note_on_c, 8, 64, 0
12, 162060, Note_on_c, 8, 66, 90
12, 162089, Note_on_c, 8, 66, 0
12, 162090, Note_on_c, 8, 67, 90
12, 162119, Note_on_c, 8, 67, 0
12, 162120, Note_on_c, 8, 69, 90
12, 162179, Note_on_c, 8, 69, 0
12, 162180, Note_on_c, 8, 67, 90
12, 162239, Note_on_c, 8, 67, 0
12, 162240, Note_on_c, 8, 69, 90
12, 162299, Note_on_c, 8, 69, 0
12, 162300, Note_on_c, 8, 67, 90
12, 162359, Note_on_c, 8, 67, 0
12, 162360, Note_on_c, 8, 64, 90
12, 162419, Note_on_c, 8, 64, 0
12, 162420, Note_on_c, 8, 62, 90
12, 162479, Note_on_c, 8, 62, 0
12, 162480, Note_on_c, 8, 69, 90
12, 162539, Note_on_c, 8, 69, 0
12, 162540, Note_on_c, 8, 69, 90
12, 162599, Note_on_c, 8, 69, 0
12, 162600, Note_on_c, 8, 69, 90
12, 162659, Note_on_c, 8, 69, 0
12, 162660, Note_on_c, 8, 74, 90
12, 162719, Note_on_c, 8, 74, 0
12, 162720, Note_on_c, 8, 69, 90
12, 162779, Note_on_c, 8, 69, 0
12, 162780, Note_on_c, 8, 71, 90
12, 162809, Note_on_c, 8, 71, 0
12, 162810, Note_on_c, 8, 72, 90
12, 162839, Note_on_c, 8, 72, 0
12, 162840, Note_on_c, 8, 74, 90
12, 162899, Note_on_c, 8, 74, 0
12, 162900, Note_on_c, 8, 72, 90
12, 162959, Note_on_c, 8, 72, 0
12, 162960, Note_on_c, 8, 74, 90
12, 163019, Note_on_c, 8, 74, 0
12, 163020, Note_on_c, 8, 72, 90
12, 163079, Note_on_c, 8, 72, 0
12, 163080, Note_on_c, 8, 69, 90
12, 163139, Note_on_c, 8, 69, 0
12, 163140, Note_on_c, 8, 67, 90
12, 163199, Note_on_c, 8, 67, 0
12, 163200, Note_on_c, 8, 71, 90
12, 163259, Note_on_c, 8, 71, 0
12, 163260, Note_on_c, 8, 67, 90
12, 163319, Note_on_c, 8, 67, 0
12, 163320, Note_on_c, 8, 64, 90
12, 163379, Note_on_c, 8, 64, 0
12, 163380, Note_on_c, 8, 69, 90
12, 163439, Note_on_c, 8, 69, 0
12, 163440, Note_on_c, 8, 67, 90
12, 163499, Note_on_c, 8, 67, 0
12, 163500, Note_on_c, 8, 69, 90
12, 163559, Note_on_c, 8, 69, 0
12, 163560, Note_on_c, 8, 71, 90
12, 163619, Note_on_c, 8, 71, 0
12, 163620, Note_on_c, 8, 69, 90
12, 163679, Note_on_c, 8, 69, 0
12, 163680, Note_on_c, 8, 66, 90
12, 163799, Note_on_c, 8, 66, 0
12, 163920, Note_on_c, 8, 66, 90
12, 163979, Note_on_c, 8, 66, 0
12, 163980, Note_on_c, 8, 62, 90
12, 164039, Note_on_c, 8, 62, 0
12, 164040, Note_on_c, 8, 62, 90
12, 164159, Note_on_c, 8, 62, 0
12, 164280, Note_on_c, 8, 62, 90
12, 164339, Note_on_c, 8, 62, 0
12, 164340, Note_on_c, 8, 62, 90
12, 164399, Note_on_c, 8, 62, 0
12, 164400, Note_on_c, 8, 62, 90
12, 164579, Note_on_c, 8, 62, 0
12, 164579, End_track
13, 0, Start_track
13, 0, MIDI_port, 0
13, 0, Title_t, "Evangelist"
13, 0, Control_c, 12, 7, 127
13, 0, Control_c, 12, 10, 87
13, 17640, Control_c, 12, 0, 20
13, 17640, Program_c, 12, 57
13, 17640, Note_on_c, 12, 76, 110
13, 17699, Note_on_c, 12, 76, 0
13, 17700, Note_on_c, 12, 76, 110
13, 17759, Note_on_c, 12, 76, 0
13, 17760, Note_on_c, 12, 71, 110
13, 17819, Note_on_c, 12, 71, 0
13, 17820, Note_on_c, 12, 71, 110
13, 17879, Note_on_c, 12, 71, 0
13, 17880, Note_on_c, 12, 71, 110
13, 17909, Note_on_c, 12, 71, 0
13, 17910, Note_on_c, 12, 69, 110
13, 17939, Note_on_c, 12, 69, 0
13, 17940, Note_on_c, 12, 71, 110
13, 17999, Note_on_c, 12, 71, 0
13, 18000, Note_on_c, 12, 68, 110
13, 18029, Note_on_c, 12, 68, 0
13, 18030, Note_on_c, 12, 64, 110
13, 18059, Note_on_c, 12, 64, 0
13, 18060, Note_on_c, 12, 74, 110
13, 18119, Note_on_c, 12, 74, 0
13, 18120, Note_on_c, 12, 73, 110
13, 18179, Note_on_c, 12, 73, 0
13, 18180, Note_on_c, 12, 73, 110
13, 18239, Note_on_c, 12, 73, 0
13, 18240, Note_on_c, 12, 73, 110
13, 18299, Note_on_c, 12, 73, 0
13, 18300, Note_on_c, 12, 69, 110
13, 18359, Note_on_c, 12, 69, 0
13, 18360, Note_on_c, 12, 69, 110
13, 18389, Note_on_c, 12, 69, 0
13, 18390, Note_on_c, 12, 64, 110
13, 18419, Note_on_c, 12, 64, 0
13, 18420, Note_on_c, 12, 66, 110
13, 18479, Note_on_c, 12, 66, 0
13, 18480, Note_on_c, 12, 66, 110
13, 18539, Note_on_c, 12, 66, 0
13, 18540, Note_on_c, 12, 66, 110
13, 18599, Note_on_c, 12, 66, 0
13, 18600, Note_on_c, 12, 68, 110
13, 18629, Note_on_c, 12, 68, 0
13, 18630, Note_on_c, 12, 69, 110
13, 18659, Note_on_c, 12, 69, 0
13, 18660, Note_on_c, 12, 69, 110
13, 18719, Note_on_c, 12, 69, 0
13, 18720, Note_on_c, 12, 64, 110
13, 18779, Note_on_c, 12, 64, 0
13, 87840, Control_c, 12, 0, 20
13, 87840, Program_c, 12, 57
13, 87840, Note_on_c, 12, 73, 110
13, 87869, Note_on_c, 12, 73, 0
13, 87870, Note_on_c, 12, 73, 110
13, 87899, Note_on_c, 12, 73, 0
13, 87900, Note_on_c, 12, 78, 110
13, 87959, Note_on_c, 12, 78, 0
13, 87960, Note_on_c, 12, 80, 110
13, 88019, Note_on_c, 12, 80, 0
13, 88020, Note_on_c, 12, 81, 110
13, 88079, Note_on_c, 12, 81, 0
13, 88080, Note_on_c, 12, 81, 110
13, 88139, Note_on_c, 12, 81, 0
13, 88200, Note_on_c, 12, 78, 110
13, 88259, Note_on_c, 12, 78, 0
13, 88260, Note_on_c, 12, 74, 110
13, 88319, Note_on_c, 12, 74, 0
13, 88320, Note_on_c, 12, 74, 110
13, 88379, Note_on_c, 12, 74, 0
13, 88380, Note_on_c, 12, 78, 110
13, 88439, Note_on_c, 12, 78, 0
13, 88440, Note_on_c, 12, 78, 110
13, 88469, Note_on_c, 12, 78, 0
13, 88470, Note_on_c, 12, 74, 110
13, 88499, Note_on_c, 12, 74, 0
13, 88500, Note_on_c, 12, 71, 110
13, 88559, Note_on_c, 12, 71, 0
13, 88560, Note_on_c, 12, 71, 110
13, 88589, Note_on_c, 12, 71, 0
13, 88590, Note_on_c, 12, 73, 110
13, 88619, Note_on_c, 12, 73, 0
13, 88620, Note_on_c, 12, 74, 110
13, 88679, Note_on_c, 12, 74, 0
13, 88680, Note_on_c, 12, 68, 110
13, 88739, Note_on_c, 12, 68, 0
13, 88800, Note_on_c, 12, 68, 110
13, 88859, Note_on_c, 12, 68, 0
13, 88860, Note_on_c, 12, 68, 110
13, 88919, Note_on_c, 12, 68, 0
13, 88920, Note_on_c, 12, 69, 110
13, 88979, Note_on_c, 12, 69, 0
13, 88980, Note_on_c, 12, 71, 110
13, 89039, Note_on_c, 12, 71, 0
13, 89040, Note_on_c, 12, 71, 110
13, 89069, Note_on_c, 12, 71, 0
13, 89070, Note_on_c, 12, 68, 110
13, 89099, Note_on_c, 12, 68, 0
13, 89100, Note_on_c, 12, 65, 110
13, 89159, Note_on_c, 12, 65, 0
13, 89160, Note_on_c, 12, 68, 110
13, 89219, Note_on_c, 12, 68, 0
13, 89220, Note_on_c, 12, 69, 110
13, 89279, Note_on_c, 12, 69, 0
13, 89280, Note_on_c, 12, 69, 110
13, 89339, Note_on_c, 12, 69, 0
13, 89520, Note_on_c, 12, 66, 110
13, 89579, Note_on_c, 12, 66, 0
13, 89580, Note_on_c, 12, 71, 110
13, 89639, Note_on_c, 12, 71, 0
13, 89640, Note_on_c, 12, 73, 110
13, 89699, Note_on_c, 12, 73, 0
13, 89700, Note_on_c, 12, 75, 110
13, 89759, Note_on_c, 12, 75, 0
13, 89760, Note_on_c, 12, 75, 110
13, 89789, Note_on_c, 12, 75, 0
13, 89790, Note_on_c, 12, 76, 110
13, 89819, Note_on_c, 12, 76, 0
13, 89820, Note_on_c, 12, 78, 110
13, 89879, Note_on_c, 12, 78, 0
13, 89880, Note_on_c, 12, 71, 110
13, 89939, Note_on_c, 12, 71, 0
13, 89940, Note_on_c, 12, 76, 110
13, 89999, Note_on_c, 12, 76, 0
13, 90000, Note_on_c, 12, 76, 110
13, 90059, Note_on_c, 12, 76, 0
13, 90120, Note_on_c, 12, 68, 110
13, 90149, Note_on_c, 12, 68, 0
13, 90150, Note_on_c, 12, 68, 110
13, 90179, Note_on_c, 12, 68, 0
13, 90180, Note_on_c, 12, 68, 110
13, 90239, Note_on_c, 12, 68, 0
13, 90240, Note_on_c, 12, 68, 110
13, 90269, Note_on_c, 12, 68, 0
13, 90270, Note_on_c, 12, 69, 110
13, 90299, Note_on_c, 12, 69, 0
13, 90300, Note_on_c, 12, 71, 110
13, 90359, Note_on_c, 12, 71, 0
13, 90360, Note_on_c, 12, 64, 110
13, 90419, Note_on_c, 12, 64, 0
13, 90540, Note_on_c, 12, 74, 110
13, 90599, Note_on_c, 12, 74, 0
13, 90600, Note_on_c, 12, 74, 110
13, 90629, Note_on_c, 12, 74, 0
13, 90630, Note_on_c, 12, 76, 110
13, 90659, Note_on_c, 12, 76, 0
13, 90660, Note_on_c, 12, 78, 110
13, 90719, Note_on_c, 12, 78, 0
13, 90720, Note_on_c, 12, 78, 110
13, 90749, Note_on_c, 12, 78, 0
13, 90750, Note_on_c, 12, 74, 110
13, 90779, Note_on_c, 12, 74, 0
13, 90780, Note_on_c, 12, 71, 110
13, 90839, Note_on_c, 12, 71, 0
13, 90840, Note_on_c, 12, 71, 110
13, 90899, Note_on_c, 12, 71, 0
13, 90900, Note_on_c, 12, 76, 110
13, 90959, Note_on_c, 12, 76, 0
13, 90960, Note_on_c, 12, 71, 110
13, 91019, Note_on_c, 12, 71, 0
13, 91020, Note_on_c, 12, 74, 110
13, 91079, Note_on_c, 12, 74, 0
13, 91080, Note_on_c, 12, 73, 110
13, 91139, Note_on_c, 12, 73, 0
13, 91140, Note_on_c, 12, 73, 110
13, 91259, Note_on_c, 12, 73, 0
13, 91560, Note_on_c, 12, 69, 110
13, 91619, Note_on_c, 12, 69, 0
13, 91620, Note_on_c, 12, 74, 110
13, 91679, Note_on_c, 12, 74, 0
13, 91680, Note_on_c, 12, 74, 110
13, 91739, Note_on_c, 12, 74, 0
13, 91800, Note_on_c, 12, 69, 110
13, 91859, Note_on_c, 12, 69, 0
13, 91860, Note_on_c, 12, 66, 110
13, 91919, Note_on_c, 12, 66, 0
13, 91920, Note_on_c, 12, 69, 110
13, 91979, Note_on_c, 12, 69, 0
13, 91980, Note_on_c, 12, 62, 110
13, 92039, Note_on_c, 12, 62, 0
13, 92100, Note_on_c, 12, 72, 110
13, 92159, Note_on_c, 12, 72, 0
13, 92160, Note_on_c, 12, 72, 110
13, 92189, Note_on_c, 12, 72, 0
13, 92190, Note_on_c, 12, 72, 110
13, 92219, Note_on_c, 12, 72, 0
13, 92220, Note_on_c, 12, 69, 110
13, 92279, Note_on_c, 12, 69, 0
13, 92280, Note_on_c, 12, 74, 110
13, 92339, Note_on_c, 12, 74, 0
13, 92340, Note_on_c, 12, 71, 110
13, 92399, Note_on_c, 12, 71, 0
13, 92400, Note_on_c, 12, 71, 110
13, 92459, Note_on_c, 12, 71, 0
13, 92520, Note_on_c, 12, 71, 110
13, 92579, Note_on_c, 12, 71, 0
13, 92580, Note_on_c, 12, 78, 110
13, 92639, Note_on_c, 12, 78, 0
13, 92640, Note_on_c, 12, 78, 110
13, 92669, Note_on_c, 12, 78, 0
13, 92670, Note_on_c, 12, 79, 110
13, 92699, Note_on_c, 12, 79, 0
13, 92700, Note_on_c, 12, 81, 110
13, 92759, Note_on_c, 12, 81, 0
13, 92760, Note_on_c, 12, 79, 110
13, 92789, Note_on_c, 12, 79, 0
13, 92790, Note_on_c, 12, 78, 110
13, 92819, Note_on_c, 12, 78, 0
13, 92820, Note_on_c, 12, 79, 110
13, 92879, Note_on_c, 12, 79, 0
13, 92880, Note_on_c, 12, 76, 110
13, 92939, Note_on_c, 12, 76, 0
13, 92940, Note_on_c, 12, 76, 110
13, 92999, Note_on_c, 12, 76, 0
13, 93000, Note_on_c, 12, 71, 110
13, 93059, Note_on_c, 12, 71, 0
13, 93240, Note_on_c, 12, 76, 110
13, 93299, Note_on_c, 12, 76, 0
13, 93300, Note_on_c, 12, 73, 110
13, 93359, Note_on_c, 12, 73, 0
13, 93360, Note_on_c, 12, 73, 110
13, 93419, Note_on_c, 12, 73, 0
13, 93420, Note_on_c, 12, 78, 110
13, 93479, Note_on_c, 12, 78, 0
13, 93480, Note_on_c, 12, 78, 110
13, 93509, Note_on_c, 12, 78, 0
13, 93510, Note_on_c, 12, 73, 110
13, 93539, Note_on_c, 12, 73, 0
13, 93540, Note_on_c, 12, 70, 110
13, 93599, Note_on_c, 12, 70, 0
13, 93600, Note_on_c, 12, 70, 110
13, 93629, Note_on_c, 12, 70, 0
13, 93630, Note_on_c, 12, 71, 110
13, 93659, Note_on_c, 12, 71, 0
13, 93660, Note_on_c, 12, 73, 110
13, 93719, Note_on_c, 12, 73, 0
13, 93720, Note_on_c, 12, 66, 110
13, 93779, Note_on_c, 12, 66, 0
13, 93780, Note_on_c, 12, 74, 110
13, 93839, Note_on_c, 12, 74, 0
13, 93840, Note_on_c, 12, 74, 110
13, 93899, Note_on_c, 12, 74, 0
13, 93960, Note_on_c, 12, 74, 110
13, 93989, Note_on_c, 12, 74, 0
13, 93990, Note_on_c, 12, 78, 110
13, 94019, Note_on_c, 12, 78, 0
13, 94020, Note_on_c, 12, 77, 110
13, 94079, Note_on_c, 12, 77, 0
13, 94080, Note_on_c, 12, 77, 110
13, 94139, Note_on_c, 12, 77, 0
13, 94140, Note_on_c, 12, 77, 110
13, 94199, Note_on_c, 12, 77, 0
13, 94200, Note_on_c, 12, 78, 110
13, 94259, Note_on_c, 12, 78, 0
13, 94260, Note_on_c, 12, 80, 110
13, 94319, Note_on_c, 12, 80, 0
13, 94320, Note_on_c, 12, 71, 110
13, 94379, Note_on_c, 12, 71, 0
13, 94380, Note_on_c, 12, 71, 110
13, 94439, Note_on_c, 12, 71, 0
13, 94440, Note_on_c, 12, 66, 110
13, 94499, Note_on_c, 12, 66, 0
13, 139020, Control_c, 12, 0, 20
13, 139020, Program_c, 12, 57
13, 139080, Note_on_c, 12, 71, 110
13, 139109, Note_on_c, 12, 71, 0
13, 139110, Note_on_c, 12, 71, 110
13, 139139, Note_on_c, 12, 71, 0
13, 139140, Note_on_c, 12, 76, 110
13, 139199, Note_on_c, 12, 76, 0
13, 139200, Note_on_c, 12, 72, 110
13, 139259, Note_on_c, 12, 72, 0
13, 139260, Note_on_c, 12, 69, 110
13, 139319, Note_on_c, 12, 69, 0
13, 139320, Note_on_c, 12, 69, 110
13, 139379, Note_on_c, 12, 69, 0
13, 139380, Note_on_c, 12, 71, 110
13, 139439, Note_on_c, 12, 71, 0
13, 139440, Note_on_c, 12, 66, 110
13, 139499, Note_on_c, 12, 66, 0
13, 139500, Note_on_c, 12, 67, 110
13, 139619, Note_on_c, 12, 67, 0
13, 139740, Note_on_c, 12, 79, 110
13, 139769, Note_on_c, 12, 79, 0
13, 139770, Note_on_c, 12, 79, 110
13, 139799, Note_on_c, 12, 79, 0
13, 139800, Note_on_c, 12, 79, 110
13, 139829, Note_on_c, 12, 79, 0
13, 139830, Note_on_c, 12, 76, 110
13, 139859, Note_on_c, 12, 76, 0
13, 139860, Note_on_c, 12, 73, 110
13, 139919, Note_on_c, 12, 73, 0
13, 139920, Note_on_c, 12, 76, 110
13, 139979, Note_on_c, 12, 76, 0
13, 139980, Note_on_c, 12, 78, 110
13, 140039, Note_on_c, 12, 78, 0
13, 140070, Note_on_c, 12, 66, 110
13, 140099, Note_on_c, 12, 66, 0
13, 140100, Note_on_c, 12, 76, 110
13, 140159, Note_on_c, 12, 76, 0
13, 140160, Note_on_c, 12, 76, 110
13, 140219, Note_on_c, 12, 76, 0
13, 140220, Note_on_c, 12, 73, 110
13, 140279, Note_on_c, 12, 73, 0
13, 140280, Note_on_c, 12, 70, 110
13, 140309, Note_on_c, 12, 70, 0
13, 140310, Note_on_c, 12, 70, 110
13, 140339, Note_on_c, 12, 70, 0
13, 140340, Note_on_c, 12, 71, 110
13, 140399, Note_on_c, 12, 71, 0
13, 140400, Note_on_c, 12, 73, 110
13, 140459, Note_on_c, 12, 73, 0
13, 140460, Note_on_c, 12, 74, 110
13, 140519, Note_on_c, 12, 74, 0
13, 140520, Note_on_c, 12, 74, 110
13, 140579, Note_on_c, 12, 74, 0
13, 140580, Note_on_c, 12, 78, 110
13, 140639, Note_on_c, 12, 78, 0
13, 140640, Note_on_c, 12, 73, 110
13, 140699, Note_on_c, 12, 73, 0
13, 140700, Note_on_c, 12, 74, 110
13, 140759, Note_on_c, 12, 74, 0
13, 140760, Note_on_c, 12, 74, 110
13, 140819, Note_on_c, 12, 74, 0
13, 140880, Note_on_c, 12, 71, 110
13, 140939, Note_on_c, 12, 71, 0
13, 140940, Note_on_c, 12, 68, 110
13, 140999, Note_on_c, 12, 68, 0
13, 141000, Note_on_c, 12, 68, 110
13, 141059, Note_on_c, 12, 68, 0
13, 141060, Note_on_c, 12, 73, 110
13, 141119, Note_on_c, 12, 73, 0
13, 141120, Note_on_c, 12, 73, 110
13, 141149, Note_on_c, 12, 73, 0
13, 141150, Note_on_c, 12, 66, 110
13, 141179, Note_on_c, 12, 66, 0
13, 141180, Note_on_c, 12, 71, 110
13, 141239, Note_on_c, 12, 71, 0
13, 141240, Note_on_c, 12, 69, 110
13, 141299, Note_on_c, 12, 69, 0
13, 141300, Note_on_c, 12, 68, 110
13, 141359, Note_on_c, 12, 68, 0
13, 141360, Note_on_c, 12, 66, 110
13, 141419, Note_on_c, 12, 66, 0
13, 141419, End_track
14, 0, Start_track
14, 0, MIDI_port, 0
14, 0, Title_t, "soprano"
14, 0, Program_c, 10, 52
14, 0, Control_c, 10, 7, 127
14, 0, Control_c, 10, 10, 47
14, 3600, Note_on_c, 10, 76, 100
14, 3635, Note_on_c, 10, 76, 0
14, 3660, Note_on_c, 10, 76, 100
14, 3695, Note_on_c, 10, 76, 0
14, 3720, Note_on_c, 10, 76, 100
14, 3755, Note_on_c, 10, 76, 0
14, 3780, Note_on_c, 10, 73, 100
14, 3815, Note_on_c, 10, 73, 0
14, 3840, Note_on_c, 10, 69, 83
14, 3870, Note_on_c, 10, 69, 0
14, 3870, Note_on_c, 10, 71, 83
14, 3900, Note_on_c, 10, 71, 0
14, 3900, Note_on_c, 10, 73, 83
14, 3930, Note_on_c, 10, 73, 0
14, 3930, Note_on_c, 10, 74, 83
14, 3960, Note_on_c, 10, 74, 0
14, 3960, Note_on_c, 10, 76, 83
14, 4020, Note_on_c, 10, 76, 0
14, 4020, Note_on_c, 10, 73, 83
14, 4050, Note_on_c, 10, 73, 0
14, 4050, Note_on_c, 10, 74, 83
14, 4080, Note_on_c, 10, 74, 0
14, 4080, Note_on_c, 10, 76, 83
14, 4110, Note_on_c, 10, 76, 0
14, 4110, Note_on_c, 10, 78, 83
14, 4140, Note_on_c, 10, 78, 0
14, 4140, Note_on_c, 10, 79, 83
14, 4200, Note_on_c, 10, 79, 0
14, 4200, Note_on_c, 10, 81, 83
14, 4230, Note_on_c, 10, 81, 0
14, 4230, Note_on_c, 10, 79, 83
14, 4260, Note_on_c, 10, 79, 0
14, 4260, Note_on_c, 10, 78, 83
14, 4290, Note_on_c, 10, 78, 0
14, 4290, Note_on_c, 10, 76, 83
14, 4320, Note_on_c, 10, 76, 0
14, 4320, Note_on_c, 10, 78, 83
14, 4350, Note_on_c, 10, 78, 0
14, 4350, Note_on_c, 10, 76, 83
14, 4380, Note_on_c, 10, 76, 0
14, 4380, Note_on_c, 10, 74, 83
14, 4410, Note_on_c, 10, 74, 0
14, 4410, Note_on_c, 10, 78, 83
14, 4440, Note_on_c, 10, 78, 0
14, 4440, Note_on_c, 10, 76, 83
14, 4470, Note_on_c, 10, 76, 0
14, 4470, Note_on_c, 10, 79, 83
14, 4500, Note_on_c, 10, 79, 0
14, 4500, Note_on_c, 10, 78, 83
14, 4530, Note_on_c, 10, 78, 0
14, 4530, Note_on_c, 10, 76, 83
14, 4560, Note_on_c, 10, 76, 0
14, 4560, Note_on_c, 10, 78, 83
14, 4590, Note_on_c, 10, 78, 0
14, 4590, Note_on_c, 10, 79, 83
14, 4620, Note_on_c, 10, 79, 0
14, 4620, Note_on_c, 10, 76, 83
14, 4650, Note_on_c, 10, 76, 0
14, 4650, Note_on_c, 10, 78, 83
14, 4680, Note_on_c, 10, 78, 0
14, 4680, Note_on_c, 10, 79, 83
14, 4740, Note_on_c, 10, 79, 0
14, 4740, Note_on_c, 10, 74, 83
14, 4800, Note_on_c, 10, 74, 0
14, 4800, Note_on_c, 10, 79, 83
14, 4860, Note_on_c, 10, 79, 0
14, 4860, Note_on_c, 10, 78, 83
14, 4890, Note_on_c, 10, 78, 0
14, 4890, Note_on_c, 10, 76, 83
14, 4920, Note_on_c, 10, 76, 0
14, 4920, Note_on_c, 10, 74, 83
14, 4950, Note_on_c, 10, 74, 0
14, 4950, Note_on_c, 10, 73, 83
14, 4980, Note_on_c, 10, 73, 0
14, 4980, Note_on_c, 10, 74, 83
14, 5010, Note_on_c, 10, 74, 0
14, 5010, Note_on_c, 10, 76, 83
14, 5040, Note_on_c, 10, 76, 0
14, 5040, Note_on_c, 10, 78, 83
14, 5070, Note_on_c, 10, 78, 0
14, 5070, Note_on_c, 10, 76, 83
14, 5100, Note_on_c, 10, 76, 0
14, 5100, Note_on_c, 10, 79, 83
14, 5130, Note_on_c, 10, 79, 0
14, 5130, Note_on_c, 10, 78, 83
14, 5160, Note_on_c, 10, 78, 0
14, 5160, Note_on_c, 10, 76, 83
14, 5190, Note_on_c, 10, 76, 0
14, 5190, Note_on_c, 10, 74, 83
14, 5220, Note_on_c, 10, 74, 0
14, 5220, Note_on_c, 10, 76, 83
14, 5250, Note_on_c, 10, 76, 0
14, 5250, Note_on_c, 10, 74, 83
14, 5280, Note_on_c, 10, 74, 0
14, 5280, Note_on_c, 10, 73, 83
14, 5310, Note_on_c, 10, 73, 0
14, 5310, Note_on_c, 10, 71, 83
14, 5340, Note_on_c, 10, 71, 0
14, 5340, Note_on_c, 10, 73, 83
14, 5370, Note_on_c, 10, 73, 0
14, 5370, Note_on_c, 10, 74, 83
14, 5400, Note_on_c, 10, 74, 0
14, 5400, Note_on_c, 10, 76, 83
14, 5430, Note_on_c, 10, 76, 0
14, 5430, Note_on_c, 10, 74, 83
14, 5460, Note_on_c, 10, 74, 0
14, 5460, Note_on_c, 10, 78, 83
14, 5490, Note_on_c, 10, 78, 0
14, 5490, Note_on_c, 10, 76, 83
14, 5520, Note_on_c, 10, 76, 0
14, 5520, Note_on_c, 10, 74, 83
14, 5550, Note_on_c, 10, 74, 0
14, 5550, Note_on_c, 10, 73, 83
14, 5580, Note_on_c, 10, 73, 0
14, 5580, Note_on_c, 10, 74, 83
14, 5700, Note_on_c, 10, 74, 0
14, 5700, Note_on_c, 10, 73, 83
14, 5760, Note_on_c, 10, 73, 0
14, 5760, Note_on_c, 10, 74, 100
14, 5820, Note_on_c, 10, 74, 0
14, 5820, Note_on_c, 10, 74, 83
14, 5880, Note_on_c, 10, 74, 0
14, 5880, Note_on_c, 10, 74, 83
14, 5940, Note_on_c, 10, 74, 0
14, 5940, Note_on_c, 10, 74, 100
14, 6000, Note_on_c, 10, 74, 0
14, 6000, Note_on_c, 10, 71, 83
14, 6030, Note_on_c, 10, 71, 0
14, 6030, Note_on_c, 10, 73, 83
14, 6060, Note_on_c, 10, 73, 0
14, 6060, Note_on_c, 10, 74, 83
14, 6090, Note_on_c, 10, 74, 0
14, 6090, Note_on_c, 10, 71, 83
14, 6120, Note_on_c, 10, 71, 0
14, 6120, Note_on_c, 10, 76, 100
14, 6150, Note_on_c, 10, 76, 0
14, 6150, Note_on_c, 10, 75, 83
14, 6180, Note_on_c, 10, 75, 0
14, 6180, Note_on_c, 10, 76, 83
14, 6240, Note_on_c, 10, 76, 0
14, 6240, Note_on_c, 10, 78, 83
14, 6300, Note_on_c, 10, 78, 0
14, 6300, Note_on_c, 10, 78, 100
14, 6360, Note_on_c, 10, 78, 0
14, 6360, Note_on_c, 10, 76, 83
14, 6420, Note_on_c, 10, 76, 0
14, 6420, Note_on_c, 10, 75, 83
14, 6480, Note_on_c, 10, 75, 0
14, 6480, Note_on_c, 10, 76, 100
14, 6540, Note_on_c, 10, 76, 0
14, 6540, Note_on_c, 10, 76, 83
14, 6600, Note_on_c, 10, 76, 0
14, 6600, Note_on_c, 10, 76, 83
14, 6660, Note_on_c, 10, 76, 0
14, 6660, Note_on_c, 10, 76, 100
14, 6720, Note_on_c, 10, 76, 0
14, 6720, Note_on_c, 10, 69, 83
14, 6780, Note_on_c, 10, 69, 0
14, 6780, Note_on_c, 10, 74, 83
14, 6840, Note_on_c, 10, 74, 0
14, 6840, Note_on_c, 10, 73, 100
14, 6900, Note_on_c, 10, 73, 0
14, 6900, Note_on_c, 10, 78, 83
14, 6930, Note_on_c, 10, 78, 0
14, 6930, Note_on_c, 10, 76, 83
14, 6960, Note_on_c, 10, 76, 0
14, 6960, Note_on_c, 10, 74, 83
14, 6990, Note_on_c, 10, 74, 0
14, 6990, Note_on_c, 10, 73, 83
14, 7020, Note_on_c, 10, 73, 0
14, 7020, Note_on_c, 10, 74, 100
14, 7080, Note_on_c, 10, 74, 0
14, 7080, Note_on_c, 10, 69, 83
14, 7140, Note_on_c, 10, 69, 0
14, 7140, Note_on_c, 10, 73, 83
14, 7175, Note_on_c, 10, 73, 0
14, 7200, Note_on_c, 10, 74, 100
14, 7260, Note_on_c, 10, 74, 0
14, 7260, Note_on_c, 10, 71, 83
14, 7320, Note_on_c, 10, 71, 0
14, 7320, Note_on_c, 10, 73, 83
14, 7380, Note_on_c, 10, 73, 0
14, 7380, Note_on_c, 10, 74, 100
14, 7440, Note_on_c, 10, 74, 0
14, 7440, Note_on_c, 10, 71, 83
14, 7500, Note_on_c, 10, 71, 0
14, 7500, Note_on_c, 10, 73, 83
14, 7560, Note_on_c, 10, 73, 0
14, 7560, Note_on_c, 10, 78, 83
14, 7620, Note_on_c, 10, 78, 0
14, 7620, Note_on_c, 10, 71, 100
14, 7650, Note_on_c, 10, 71, 0
14, 7650, Note_on_c, 10, 73, 83
14, 7680, Note_on_c, 10, 73, 0
14, 7680, Note_on_c, 10, 74, 83
14, 7740, Note_on_c, 10, 74, 0
14, 7740, Note_on_c, 10, 73, 83
14, 7860, Note_on_c, 10, 73, 0
14, 8040, Note_on_c, 10, 69, 83
14, 8100, Note_on_c, 10, 69, 0
14, 8100, Note_on_c, 10, 81, 100
14, 8340, Note_on_c, 10, 81, 0
14, 8340, Note_on_c, 10, 76, 83
14, 8400, Note_on_c, 10, 76, 0
14, 8400, Note_on_c, 10, 74, 83
14, 8460, Note_on_c, 10, 74, 0
14, 8460, Note_on_c, 10, 73, 83
14, 8640, Note_on_c, 10, 73, 0
14, 12240, Note_on_c, 10, 66, 100
14, 12300, Note_on_c, 10, 66, 0
14, 12300, Note_on_c, 10, 62, 100
14, 12330, Note_on_c, 10, 62, 0
14, 12330, Note_on_c, 10, 64, 100
14, 12360, Note_on_c, 10, 64, 0
14, 12360, Note_on_c, 10, 66, 100
14, 12390, Note_on_c, 10, 66, 0
14, 12390, Note_on_c, 10, 67, 100
14, 12420, Note_on_c, 10, 67, 0
14, 12420, Note_on_c, 10, 69, 100
14, 12480, Note_on_c, 10, 69, 0
14, 12480, Note_on_c, 10, 74, 83
14, 12540, Note_on_c, 10, 74, 0
14, 12540, Note_on_c, 10, 69, 83
14, 12600, Note_on_c, 10, 69, 0
14, 12600, Note_on_c, 10, 71, 83
14, 12630, Note_on_c, 10, 71, 0
14, 12630, Note_on_c, 10, 69, 83
14, 12660, Note_on_c, 10, 69, 0
14, 12660, Note_on_c, 10, 71, 83
14, 12690, Note_on_c, 10, 71, 0
14, 12690, Note_on_c, 10, 73, 83
14, 12720, Note_on_c, 10, 73, 0
14, 12720, Note_on_c, 10, 74, 83
14, 12750, Note_on_c, 10, 74, 0
14, 12750, Note_on_c, 10, 76, 83
14, 12780, Note_on_c, 10, 76, 0
14, 12780, Note_on_c, 10, 78, 83
14, 12840, Note_on_c, 10, 78, 0
14, 12840, Note_on_c, 10, 79, 83
14, 12870, Note_on_c, 10, 79, 0
14, 12870, Note_on_c, 10, 78, 83
14, 12900, Note_on_c, 10, 78, 0
14, 12900, Note_on_c, 10, 76, 83
14, 12930, Note_on_c, 10, 76, 0
14, 12930, Note_on_c, 10, 74, 83
14, 12960, Note_on_c, 10, 74, 0
14, 12960, Note_on_c, 10, 73, 83
14, 12990, Note_on_c, 10, 73, 0
14, 12990, Note_on_c, 10, 71, 83
14, 13020, Note_on_c, 10, 71, 0
14, 13020, Note_on_c, 10, 69, 83
14, 13050, Note_on_c, 10, 69, 0
14, 13050, Note_on_c, 10, 73, 83
14, 13080, Note_on_c, 10, 73, 0
14, 13080, Note_on_c, 10, 71, 83
14, 13110, Note_on_c, 10, 71, 0
14, 13110, Note_on_c, 10, 74, 83
14, 13140, Note_on_c, 10, 74, 0
14, 13140, Note_on_c, 10, 73, 83
14, 13170, Note_on_c, 10, 73, 0
14, 13170, Note_on_c, 10, 71, 83
14, 13200, Note_on_c, 10, 71, 0
14, 13200, Note_on_c, 10, 73, 83
14, 13230, Note_on_c, 10, 73, 0
14, 13230, Note_on_c, 10, 76, 83
14, 13260, Note_on_c, 10, 76, 0
14, 13260, Note_on_c, 10, 74, 83
14, 13290, Note_on_c, 10, 74, 0
14, 13290, Note_on_c, 10, 78, 83
14, 13320, Note_on_c, 10, 78, 0
14, 13320, Note_on_c, 10, 76, 83
14, 13350, Note_on_c, 10, 76, 0
14, 13350, Note_on_c, 10, 74, 83
14, 13380, Note_on_c, 10, 74, 0
14, 13380, Note_on_c, 10, 78, 83
14, 13410, Note_on_c, 10, 78, 0
14, 13410, Note_on_c, 10, 76, 83
14, 13440, Note_on_c, 10, 76, 0
14, 13440, Note_on_c, 10, 74, 83
14, 13470, Note_on_c, 10, 74, 0
14, 13470, Note_on_c, 10, 73, 83
14, 13500, Note_on_c, 10, 73, 0
14, 13500, Note_on_c, 10, 74, 83
14, 13560, Note_on_c, 10, 74, 0
14, 13560, Note_on_c, 10, 73, 83
14, 13590, Note_on_c, 10, 73, 0
14, 13590, Note_on_c, 10, 71, 83
14, 13620, Note_on_c, 10, 71, 0
14, 13620, Note_on_c, 10, 69, 83
14, 13650, Note_on_c, 10, 69, 0
14, 13650, Note_on_c, 10, 67, 83
14, 13680, Note_on_c, 10, 67, 0
14, 13680, Note_on_c, 10, 66, 83
14, 13710, Note_on_c, 10, 66, 0
14, 13710, Note_on_c, 10, 64, 83
14, 13740, Note_on_c, 10, 64, 0
14, 13740, Note_on_c, 10, 67, 83
14, 13770, Note_on_c, 10, 67, 0
14, 13770, Note_on_c, 10, 66, 83
14, 13800, Note_on_c, 10, 66, 0
14, 13800, Note_on_c, 10, 64, 83
14, 13830, Note_on_c, 10, 64, 0
14, 13830, Note_on_c, 10, 62, 83
14, 13860, Note_on_c, 10, 62, 0
14, 13860, Note_on_c, 10, 71, 83
14, 13890, Note_on_c, 10, 71, 0
14, 13890, Note_on_c, 10, 69, 83
14, 13920, Note_on_c, 10, 69, 0
14, 13920, Note_on_c, 10, 68, 83
14, 13950, Note_on_c, 10, 68, 0
14, 13950, Note_on_c, 10, 69, 83
14, 13980, Note_on_c, 10, 69, 0
14, 13980, Note_on_c, 10, 71, 83
14, 14010, Note_on_c, 10, 71, 0
14, 14010, Note_on_c, 10, 73, 83
14, 14040, Note_on_c, 10, 73, 0
14, 14040, Note_on_c, 10, 74, 83
14, 14070, Note_on_c, 10, 74, 0
14, 14070, Note_on_c, 10, 73, 83
14, 14100, Note_on_c, 10, 73, 0
14, 14100, Note_on_c, 10, 76, 83
14, 14130, Note_on_c, 10, 76, 0
14, 14130, Note_on_c, 10, 74, 83
14, 14160, Note_on_c, 10, 74, 0
14, 14160, Note_on_c, 10, 73, 83
14, 14190, Note_on_c, 10, 73, 0
14, 14190, Note_on_c, 10, 71, 83
14, 14220, Note_on_c, 10, 71, 0
14, 14220, Note_on_c, 10, 73, 83
14, 14250, Note_on_c, 10, 73, 0
14, 14250, Note_on_c, 10, 71, 83
14, 14280, Note_on_c, 10, 71, 0
14, 14280, Note_on_c, 10, 69, 83
14, 14340, Note_on_c, 10, 69, 0
14, 14340, Note_on_c, 10, 71, 83
14, 14400, Note_on_c, 10, 71, 0
14, 14400, Note_on_c, 10, 73, 100
14, 14460, Note_on_c, 10, 73, 0
14, 14460, Note_on_c, 10, 73, 83
14, 14520, Note_on_c, 10, 73, 0
14, 14520, Note_on_c, 10, 73, 83
14, 14580, Note_on_c, 10, 73, 0
14, 14580, Note_on_c, 10, 73, 100
14, 14640, Note_on_c, 10, 73, 0
14, 14640, Note_on_c, 10, 76, 83
14, 14670, Note_on_c, 10, 76, 0
14, 14670, Note_on_c, 10, 74, 83
14, 14700, Note_on_c, 10, 74, 0
14, 14700, Note_on_c, 10, 73, 83
14, 14730, Note_on_c, 10, 73, 0
14, 14730, Note_on_c, 10, 71, 83
14, 14760, Note_on_c, 10, 71, 0
14, 14760, Note_on_c, 10, 69, 100
14, 14820, Note_on_c, 10, 69, 0
14, 14820, Note_on_c, 10, 74, 83
14, 14880, Note_on_c, 10, 74, 0
14, 14880, Note_on_c, 10, 76, 83
14, 14940, Note_on_c, 10, 76, 0
14, 14940, Note_on_c, 10, 78, 100
14, 15000, Note_on_c, 10, 78, 0
14, 15000, Note_on_c, 10, 76, 83
14, 15030, Note_on_c, 10, 76, 0
14, 15030, Note_on_c, 10, 78, 83
14, 15060, Note_on_c, 10, 78, 0
14, 15060, Note_on_c, 10, 79, 83
14, 15120, Note_on_c, 10, 79, 0
14, 15120, Note_on_c, 10, 78, 100
14, 15180, Note_on_c, 10, 78, 0
14, 15180, Note_on_c, 10, 74, 83
14, 15240, Note_on_c, 10, 74, 0
14, 15240, Note_on_c, 10, 74, 83
14, 15300, Note_on_c, 10, 74, 0
14, 15300, Note_on_c, 10, 74, 100
14, 15360, Note_on_c, 10, 74, 0
14, 15360, Note_on_c, 10, 78, 83
14, 15420, Note_on_c, 10, 78, 0
14, 15420, Note_on_c, 10, 74, 83
14, 15480, Note_on_c, 10, 74, 0
14, 15480, Note_on_c, 10, 74, 100
14, 15540, Note_on_c, 10, 74, 0
14, 15540, Note_on_c, 10, 71, 83
14, 15600, Note_on_c, 10, 71, 0
14, 15600, Note_on_c, 10, 72, 83
14, 15660, Note_on_c, 10, 72, 0
14, 15660, Note_on_c, 10, 74, 100
14, 15720, Note_on_c, 10, 74, 0
14, 15720, Note_on_c, 10, 72, 83
14, 15750, Note_on_c, 10, 72, 0
14, 15750, Note_on_c, 10, 71, 83
14, 15780, Note_on_c, 10, 71, 0
14, 15780, Note_on_c, 10, 69, 83
14, 15840, Note_on_c, 10, 69, 0
14, 15840, Note_on_c, 10, 67, 100
14, 15900, Note_on_c, 10, 67, 0
14, 15900, Note_on_c, 10, 76, 83
14, 15960, Note_on_c, 10, 76, 0
14, 15960, Note_on_c, 10, 71, 83
14, 16020, Note_on_c, 10, 71, 0
14, 16020, Note_on_c, 10, 73, 83
14, 16080, Note_on_c, 10, 73, 0
14, 16080, Note_on_c, 10, 74, 83
14, 16110, Note_on_c, 10, 74, 0
14, 16110, Note_on_c, 10, 73, 83
14, 16140, Note_on_c, 10, 73, 0
14, 16140, Note_on_c, 10, 74, 100
14, 16200, Note_on_c, 10, 74, 0
14, 16200, Note_on_c, 10, 74, 83
14, 16260, Note_on_c, 10, 74, 0
14, 16260, Note_on_c, 10, 76, 83
14, 16320, Note_on_c, 10, 76, 0
14, 16320, Note_on_c, 10, 73, 83
14, 16380, Note_on_c, 10, 73, 0
14, 16380, Note_on_c, 10, 74, 83
14, 16500, Note_on_c, 10, 74, 0
14, 16500, Note_on_c, 10, 69, 100
14, 16560, Note_on_c, 10, 69, 0
14, 16560, Note_on_c, 10, 74, 100
14, 16980, Note_on_c, 10, 74, 0
14, 16980, Note_on_c, 10, 74, 83
14, 17040, Note_on_c, 10, 74, 0
14, 17040, Note_on_c, 10, 74, 83
14, 17100, Note_on_c, 10, 74, 0
14, 17100, Note_on_c, 10, 74, 83
14, 17280, Note_on_c, 10, 74, 0
14, 19740, Note_on_c, 10, 69, 90
14, 19799, Note_on_c, 10, 69, 0
14, 19800, Note_on_c, 10, 71, 90
14, 19859, Note_on_c, 10, 71, 0
14, 19860, Note_on_c, 10, 73, 90
14, 19919, Note_on_c, 10, 73, 0
14, 19920, Note_on_c, 10, 74, 90
14, 19979, Note_on_c, 10, 74, 0
14, 19980, Note_on_c, 10, 76, 90
14, 20099, Note_on_c, 10, 76, 0
14, 20100, Note_on_c, 10, 76, 90
14, 20219, Note_on_c, 10, 76, 0
14, 20220, Note_on_c, 10, 69, 90
14, 20339, Note_on_c, 10, 69, 0
14, 20340, Note_on_c, 10, 78, 90
14, 20579, Note_on_c, 10, 78, 0
14, 20580, Note_on_c, 10, 78, 90
14, 20699, Note_on_c, 10, 78, 0
14, 20700, Note_on_c, 10, 76, 90
14, 20819, Note_on_c, 10, 76, 0
14, 20940, Note_on_c, 10, 68, 90
14, 20999, Note_on_c, 10, 68, 0
14, 21000, Note_on_c, 10, 69, 90
14, 21059, Note_on_c, 10, 69, 0
14, 21060, Note_on_c, 10, 71, 90
14, 21119, Note_on_c, 10, 71, 0
14, 21120, Note_on_c, 10, 73, 90
14, 21179, Note_on_c, 10, 73, 0
14, 21180, Note_on_c, 10, 74, 90
14, 21299, Note_on_c, 10, 74, 0
14, 21300, Note_on_c, 10, 74, 90
14, 21419, Note_on_c, 10, 74, 0
14, 21540, Note_on_c, 10, 69, 90
14, 21599, Note_on_c, 10, 69, 0
14, 21600, Note_on_c, 10, 71, 90
14, 21659, Note_on_c, 10, 71, 0
14, 21660, Note_on_c, 10, 73, 90
14, 21719, Note_on_c, 10, 73, 0
14, 21720, Note_on_c, 10, 74, 90
14, 21779, Note_on_c, 10, 74, 0
14, 21780, Note_on_c, 10, 76, 90
14, 21839, Note_on_c, 10, 76, 0
14, 21840, Note_on_c, 10, 74, 90
14, 21899, Note_on_c, 10, 74, 0
14, 21900, Note_on_c, 10, 76, 90
14, 22019, Note_on_c, 10, 76, 0
14, 22140, Note_on_c, 10, 78, 90
14, 22199, Note_on_c, 10, 78, 0
14, 22200, Note_on_c, 10, 76, 90
14, 22259, Note_on_c, 10, 76, 0
14, 22260, Note_on_c, 10, 74, 90
14, 22319, Note_on_c, 10, 74, 0
14, 22320, Note_on_c, 10, 73, 90
14, 22379, Note_on_c, 10, 73, 0
14, 22380, Note_on_c, 10, 71, 90
14, 22439, Note_on_c, 10, 71, 0
14, 22440, Note_on_c, 10, 69, 90
14, 22499, Note_on_c, 10, 69, 0
14, 22500, Note_on_c, 10, 68, 90
14, 22619, Note_on_c, 10, 68, 0
14, 22620, Note_on_c, 10, 71, 90
14, 22739, Note_on_c, 10, 71, 0
14, 22740, Note_on_c, 10, 74, 90
14, 22979, Note_on_c, 10, 74, 0
14, 22980, Note_on_c, 10, 73, 90
14, 23039, Note_on_c, 10, 73, 0
14, 23040, Note_on_c, 10, 71, 90
14, 23099, Note_on_c, 10, 71, 0
14, 23100, Note_on_c, 10, 69, 90
14, 23219, Note_on_c, 10, 69, 0
14, 23280, Note_on_c, 10, 68, 90
14, 23339, Note_on_c, 10, 68, 0
14, 23340, Note_on_c, 10, 69, 90
14, 23399, Note_on_c, 10, 69, 0
14, 23400, Note_on_c, 10, 71, 90
14, 23459, Note_on_c, 10, 71, 0
14, 23460, Note_on_c, 10, 73, 90
14, 23519, Note_on_c, 10, 73, 0
14, 23520, Note_on_c, 10, 71, 90
14, 23579, Note_on_c, 10, 71, 0
14, 23580, Note_on_c, 10, 73, 90
14, 23639, Note_on_c, 10, 73, 0
14, 23640, Note_on_c, 10, 75, 90
14, 23699, Note_on_c, 10, 75, 0
14, 23700, Note_on_c, 10, 76, 90
14, 23819, Note_on_c, 10, 76, 0
14, 23820, Note_on_c, 10, 75, 90
14, 23909, Note_on_c, 10, 75, 0
14, 23910, Note_on_c, 10, 76, 90
14, 23939, Note_on_c, 10, 76, 0
14, 23940, Note_on_c, 10, 76, 90
14, 24059, Note_on_c, 10, 76, 0
14, 24060, Note_on_c, 10, 71, 90
14, 24179, Note_on_c, 10, 71, 0
14, 24180, Note_on_c, 10, 76, 90
14, 24359, Note_on_c, 10, 76, 0
14, 24360, Note_on_c, 10, 74, 90
14, 24419, Note_on_c, 10, 74, 0
14, 24420, Note_on_c, 10, 76, 90
14, 24599, Note_on_c, 10, 76, 0
14, 24600, Note_on_c, 10, 78, 90
14, 24659, Note_on_c, 10, 78, 0
14, 24660, Note_on_c, 10, 74, 90
14, 24779, Note_on_c, 10, 74, 0
14, 24780, Note_on_c, 10, 74, 90
14, 24839, Note_on_c, 10, 74, 0
14, 24840, Note_on_c, 10, 73, 90
14, 24899, Note_on_c, 10, 73, 0
14, 24900, Note_on_c, 10, 74, 90
14, 24959, Note_on_c, 10, 74, 0
14, 24960, Note_on_c, 10, 71, 90
14, 25019, Note_on_c, 10, 71, 0
14, 25020, Note_on_c, 10, 73, 90
14, 25139, Note_on_c, 10, 73, 0
14, 25140, Note_on_c, 10, 77, 90
14, 25259, Note_on_c, 10, 77, 0
14, 25260, Note_on_c, 10, 80, 90
14, 25439, Note_on_c, 10, 80, 0
14, 25440, Note_on_c, 10, 77, 90
14, 25499, Note_on_c, 10, 77, 0
14, 25500, Note_on_c, 10, 78, 90
14, 25619, Note_on_c, 10, 78, 0
14, 25620, Note_on_c, 10, 72, 90
14, 25679, Note_on_c, 10, 72, 0
14, 25680, Note_on_c, 10, 73, 90
14, 25739, Note_on_c, 10, 73, 0
14, 25740, Note_on_c, 10, 75, 90
14, 25859, Note_on_c, 10, 75, 0
14, 25860, Note_on_c, 10, 68, 90
14, 25979, Note_on_c, 10, 68, 0
14, 25980, Note_on_c, 10, 78, 90
14, 26219, Note_on_c, 10, 78, 0
14, 26220, Note_on_c, 10, 76, 90
14, 26279, Note_on_c, 10, 76, 0
14, 26280, Note_on_c, 10, 75, 90
14, 26339, Note_on_c, 10, 75, 0
14, 26340, Note_on_c, 10, 76, 90
14, 26399, Note_on_c, 10, 76, 0
14, 26400, Note_on_c, 10, 78, 90
14, 26459, Note_on_c, 10, 78, 0
14, 26460, Note_on_c, 10, 75, 90
14, 26639, Note_on_c, 10, 75, 0
14, 26640, Note_on_c, 10, 73, 90
14, 26699, Note_on_c, 10, 73, 0
14, 26700, Note_on_c, 10, 75, 90
14, 26759, Note_on_c, 10, 75, 0
14, 26760, Note_on_c, 10, 76, 90
14, 26819, Note_on_c, 10, 76, 0
14, 26820, Note_on_c, 10, 73, 90
14, 26939, Note_on_c, 10, 73, 0
14, 26940, Note_on_c, 10, 75, 90
14, 26999, Note_on_c, 10, 75, 0
14, 27000, Note_on_c, 10, 76, 90
14, 27059, Note_on_c, 10, 76, 0
14, 27060, Note_on_c, 10, 78, 90
14, 27239, Note_on_c, 10, 78, 0
14, 27240, Note_on_c, 10, 72, 90
14, 27269, Note_on_c, 10, 72, 0
14, 27270, Note_on_c, 10, 73, 90
14, 27299, Note_on_c, 10, 73, 0
14, 27300, Note_on_c, 10, 75, 90
14, 27359, Note_on_c, 10, 75, 0
14, 27360, Note_on_c, 10, 68, 90
14, 27419, Note_on_c, 10, 68, 0
14, 27420, Note_on_c, 10, 76, 90
14, 27659, Note_on_c, 10, 76, 0
14, 27660, Note_on_c, 10, 75, 90
14, 27719, Note_on_c, 10, 75, 0
14, 27720, Note_on_c, 10, 73, 90
14, 27779, Note_on_c, 10, 73, 0
14, 27780, Note_on_c, 10, 75, 90
14, 27839, Note_on_c, 10, 75, 0
14, 27840, Note_on_c, 10, 78, 90
14, 27899, Note_on_c, 10, 78, 0
14, 27900, Note_on_c, 10, 72, 90
14, 28019, Note_on_c, 10, 72, 0
14, 28080, Note_on_c, 10, 80, 90
14, 28139, Note_on_c, 10, 80, 0
14, 28140, Note_on_c, 10, 73, 90
14, 28259, Note_on_c, 10, 73, 0
14, 28260, Note_on_c, 10, 78, 90
14, 28319, Note_on_c, 10, 78, 0
14, 28320, Note_on_c, 10, 75, 90
14, 28379, Note_on_c, 10, 75, 0
14, 28380, Note_on_c, 10, 76, 90
14, 28499, Note_on_c, 10, 76, 0
14, 28500, Note_on_c, 10, 75, 90
14, 28619, Note_on_c, 10, 75, 0
14, 28620, Note_on_c, 10, 73, 90
14, 28739, Note_on_c, 10, 73, 0
14, 32460, Note_on_c, 10, 69, 90
14, 32579, Note_on_c, 10, 69, 0
14, 32580, Note_on_c, 10, 69, 90
14, 32699, Note_on_c, 10, 69, 0
14, 32700, Note_on_c, 10, 69, 90
14, 32819, Note_on_c, 10, 69, 0
14, 32820, Note_on_c, 10, 71, 90
14, 32939, Note_on_c, 10, 71, 0
14, 32940, Note_on_c, 10, 69, 90
14, 33059, Note_on_c, 10, 69, 0
14, 33060, Note_on_c, 10, 74, 90
14, 33179, Note_on_c, 10, 74, 0
14, 33180, Note_on_c, 10, 76, 90
14, 33299, Note_on_c, 10, 76, 0
14, 33300, Note_on_c, 10, 74, 90
14, 33539, Note_on_c, 10, 74, 0
14, 33540, Note_on_c, 10, 73, 90
14, 33599, Note_on_c, 10, 73, 0
14, 33600, Note_on_c, 10, 74, 90
14, 33659, Note_on_c, 10, 74, 0
14, 33660, Note_on_c, 10, 76, 90
14, 33779, Note_on_c, 10, 76, 0
14, 33780, Note_on_c, 10, 78, 90
14, 33899, Note_on_c, 10, 78, 0
14, 33900, Note_on_c, 10, 76, 90
14, 33959, Note_on_c, 10, 76, 0
14, 33960, Note_on_c, 10, 74, 90
14, 34019, Note_on_c, 10, 74, 0
14, 34020, Note_on_c, 10, 73, 90
14, 34139, Note_on_c, 10, 73, 0
14, 34140, Note_on_c, 10, 71, 90
14, 34259, Note_on_c, 10, 71, 0
14, 34260, Note_on_c, 10, 69, 90
14, 34379, Note_on_c, 10, 69, 0
14, 34380, Note_on_c, 10, 69, 90
14, 34499, Note_on_c, 10, 69, 0
14, 34500, Note_on_c, 10, 74, 90
14, 34619, Note_on_c, 10, 74, 0
14, 34620, Note_on_c, 10, 73, 90
14, 34679, Note_on_c, 10, 73, 0
14, 34680, Note_on_c, 10, 74, 90
14, 34739, Note_on_c, 10, 74, 0
14, 34740, Note_on_c, 10, 76, 90
14, 34859, Note_on_c, 10, 76, 0
14, 34860, Note_on_c, 10, 71, 90
14, 34979, Note_on_c, 10, 71, 0
14, 34980, Note_on_c, 10, 69, 90
14, 35039, Note_on_c, 10, 69, 0
14, 35040, Note_on_c, 10, 68, 90
14, 35099, Note_on_c, 10, 68, 0
14, 35100, Note_on_c, 10, 66, 90
14, 35219, Note_on_c, 10, 66, 0
14, 35220, Note_on_c, 10, 64, 90
14, 35339, Note_on_c, 10, 64, 0
14, 35340, Note_on_c, 10, 64, 90
14, 35459, Note_on_c, 10, 64, 0
14, 35460, Note_on_c, 10, 71, 90
14, 35579, Note_on_c, 10, 71, 0
14, 35580, Note_on_c, 10, 71, 90
14, 35699, Note_on_c, 10, 71, 0
14, 35700, Note_on_c, 10, 71, 90
14, 35819, Note_on_c, 10, 71, 0
14, 35820, Note_on_c, 10, 73, 90
14, 35939, Note_on_c, 10, 73, 0
14, 35940, Note_on_c, 10, 74, 90
14, 35999, Note_on_c, 10, 74, 0
14, 36000, Note_on_c, 10, 73, 90
14, 36059, Note_on_c, 10, 73, 0
14, 36060, Note_on_c, 10, 71, 90
14, 36179, Note_on_c, 10, 71, 0
14, 36180, Note_on_c, 10, 69, 90
14, 36239, Note_on_c, 10, 69, 0
14, 36240, Note_on_c, 10, 71, 90
14, 36299, Note_on_c, 10, 71, 0
14, 36300, Note_on_c, 10, 73, 90
14, 36419, Note_on_c, 10, 73, 0
14, 36420, Note_on_c, 10, 71, 90
14, 36659, Note_on_c, 10, 71, 0
14, 36660, Note_on_c, 10, 69, 90
14, 36779, Note_on_c, 10, 69, 0
14, 36780, Note_on_c, 10, 69, 90
14, 36899, Note_on_c, 10, 69, 0
14, 36900, Note_on_c, 10, 69, 90
14, 37259, Note_on_c, 10, 69, 0
14, 40260, Control_c, 10, 0, 0
14, 40260, Program_c, 10, 65
14, 40260, Note_on_c, 10, 73, 115
14, 40349, Note_on_c, 10, 73, 0
14, 40350, Note_on_c, 10, 74, 115
14, 40364, Note_on_c, 10, 74, 0
14, 40365, Note_on_c, 10, 76, 115
14, 40379, Note_on_c, 10, 76, 0
14, 40380, Note_on_c, 10, 74, 115
14, 40439, Note_on_c, 10, 74, 0
14, 40440, Note_on_c, 10, 73, 115
14, 40454, Note_on_c, 10, 73, 0
14, 40455, Note_on_c, 10, 71, 115
14, 40469, Note_on_c, 10, 71, 0
14, 40470, Note_on_c, 10, 69, 115
14, 40499, Note_on_c, 10, 69, 0
14, 40500, Note_on_c, 10, 69, 115
14, 40559, Note_on_c, 10, 69, 0
14, 40560, Note_on_c, 10, 71, 115
14, 40619, Note_on_c, 10, 71, 0
14, 40620, Note_on_c, 10, 69, 115
14, 40709, Note_on_c, 10, 69, 0
14, 40710, Note_on_c, 10, 71, 115
14, 40724, Note_on_c, 10, 71, 0
14, 40725, Note_on_c, 10, 73, 115
14, 40739, Note_on_c, 10, 73, 0
14, 40740, Note_on_c, 10, 71, 115
14, 40799, Note_on_c, 10, 71, 0
14, 40800, Note_on_c, 10, 69, 115
14, 40814, Note_on_c, 10, 69, 0
14, 40815, Note_on_c, 10, 68, 115
14, 40829, Note_on_c, 10, 68, 0
14, 40830, Note_on_c, 10, 66, 115
14, 40860, Note_on_c, 10, 66, 0
14, 40860, Note_on_c, 10, 68, 115
14, 40979, Note_on_c, 10, 68, 0
14, 40980, Note_on_c, 10, 69, 115
14, 41009, Note_on_c, 10, 69, 0
14, 41010, Note_on_c, 10, 68, 115
14, 41039, Note_on_c, 10, 68, 0
14, 41040, Note_on_c, 10, 68, 115
14, 41069, Note_on_c, 10, 68, 0
14, 41070, Note_on_c, 10, 66, 115
14, 41099, Note_on_c, 10, 66, 0
14, 41100, Note_on_c, 10, 66, 115
14, 41189, Note_on_c, 10, 66, 0
14, 41190, Note_on_c, 10, 66, 115
14, 41219, Note_on_c, 10, 66, 0
14, 41220, Note_on_c, 10, 68, 115
14, 41249, Note_on_c, 10, 68, 0
14, 41250, Note_on_c, 10, 70, 115
14, 41279, Note_on_c, 10, 70, 0
14, 41280, Note_on_c, 10, 70, 115
14, 41309, Note_on_c, 10, 70, 0
14, 41310, Note_on_c, 10, 71, 115
14, 41339, Note_on_c, 10, 71, 0
14, 41340, Note_on_c, 10, 71, 115
14, 41369, Note_on_c, 10, 71, 0
14, 41370, Note_on_c, 10, 70, 115
14, 41399, Note_on_c, 10, 70, 0
14, 41400, Note_on_c, 10, 71, 115
14, 41459, Note_on_c, 10, 71, 0
14, 41520, Note_on_c, 10, 74, 115
14, 41549, Note_on_c, 10, 74, 0
14, 41550, Note_on_c, 10, 73, 115
14, 41579, Note_on_c, 10, 73, 0
14, 41580, Note_on_c, 10, 73, 115
14, 41609, Note_on_c, 10, 73, 0
14, 41610, Note_on_c, 10, 71, 115
14, 41639, Note_on_c, 10, 71, 0
14, 41640, Note_on_c, 10, 71, 115
14, 41729, Note_on_c, 10, 71, 0
14, 41730, Note_on_c, 10, 71, 115
14, 41759, Note_on_c, 10, 71, 0
14, 41760, Note_on_c, 10, 73, 115
14, 41789, Note_on_c, 10, 73, 0
14, 41790, Note_on_c, 10, 74, 115
14, 41819, Note_on_c, 10, 74, 0
14, 41820, Note_on_c, 10, 74, 115
14, 41849, Note_on_c, 10, 74, 0
14, 41850, Note_on_c, 10, 76, 115
14, 41879, Note_on_c, 10, 76, 0
14, 41880, Note_on_c, 10, 76, 115
14, 42300, Note_on_c, 10, 76, 0
14, 42300, Note_on_c, 10, 71, 115
14, 42329, Note_on_c, 10, 71, 0
14, 42330, Note_on_c, 10, 73, 115
14, 42359, Note_on_c, 10, 73, 0
14, 42360, Note_on_c, 10, 74, 115
14, 42389, Note_on_c, 10, 74, 0
14, 42390, Note_on_c, 10, 71, 115
14, 42419, Note_on_c, 10, 71, 0
14, 42420, Note_on_c, 10, 73, 115
14, 42449, Note_on_c, 10, 73, 0
14, 42450, Note_on_c, 10, 71, 115
14, 42479, Note_on_c, 10, 71, 0
14, 42480, Note_on_c, 10, 69, 115
14, 42509, Note_on_c, 10, 69, 0
14, 42510, Note_on_c, 10, 68, 115
14, 42539, Note_on_c, 10, 68, 0
14, 42540, Note_on_c, 10, 69, 115
14, 42569, Note_on_c, 10, 69, 0
14, 42570, Note_on_c, 10, 71, 115
14, 42599, Note_on_c, 10, 71, 0
14, 42600, Note_on_c, 10, 64, 115
14, 42719, Note_on_c, 10, 64, 0
14, 42780, Note_on_c, 10, 73, 115
14, 42900, Note_on_c, 10, 73, 0
14, 42900, Note_on_c, 10, 71, 115
14, 42959, Note_on_c, 10, 71, 0
14, 42960, Note_on_c, 10, 69, 115
14, 42989, Note_on_c, 10, 69, 0
14, 42990, Note_on_c, 10, 68, 115
14, 43019, Note_on_c, 10, 68, 0
14, 43020, Note_on_c, 10, 69, 115
14, 43079, Note_on_c, 10, 69, 0
14, 43140, Note_on_c, 10, 71, 115
14, 43259, Note_on_c, 10, 71, 0
14, 43260, Note_on_c, 10, 69, 115
14, 43319, Note_on_c, 10, 69, 0
14, 43320, Note_on_c, 10, 68, 115
14, 43349, Note_on_c, 10, 68, 0
14, 43350, Note_on_c, 10, 66, 115
14, 43379, Note_on_c, 10, 66, 0
14, 43380, Note_on_c, 10, 68, 115
14, 43439, Note_on_c, 10, 68, 0
14, 43620, Note_on_c, 10, 73, 115
14, 43709, Note_on_c, 10, 73, 0
14, 43710, Note_on_c, 10, 71, 115
14, 43739, Note_on_c, 10, 71, 0
14, 43740, Note_on_c, 10, 69, 115
14, 43769, Note_on_c, 10, 69, 0
14, 43770, Note_on_c, 10, 68, 115
14, 43799, Note_on_c, 10, 68, 0
14, 43800, Note_on_c, 10, 69, 115
14, 43829, Note_on_c, 10, 69, 0
14, 43830, Note_on_c, 10, 71, 115
14, 43859, Note_on_c, 10, 71, 0
14, 43860, Note_on_c, 10, 73, 115
14, 43919, Note_on_c, 10, 73, 0
14, 43920, Note_on_c, 10, 74, 115
14, 43949, Note_on_c, 10, 74, 0
14, 43950, Note_on_c, 10, 71, 115
14, 43979, Note_on_c, 10, 71, 0
14, 43980, Note_on_c, 10, 76, 115
14, 44009, Note_on_c, 10, 76, 0
14, 44010, Note_on_c, 10, 74, 115
14, 44039, Note_on_c, 10, 74, 0
14, 44040, Note_on_c, 10, 73, 115
14, 44099, Note_on_c, 10, 73, 0
14, 44100, Note_on_c, 10, 66, 115
14, 44219, Note_on_c, 10, 66, 0
14, 44220, Note_on_c, 10, 68, 115
14, 44234, Note_on_c, 10, 68, 0
14, 44235, Note_on_c, 10, 69, 115
14, 44249, Note_on_c, 10, 69, 0
14, 44250, Note_on_c, 10, 71, 115
14, 44309, Note_on_c, 10, 71, 0
14, 44310, Note_on_c, 10, 71, 115
14, 44339, Note_on_c, 10, 71, 0
14, 44340, Note_on_c, 10, 71, 115
14, 44369, Note_on_c, 10, 71, 0
14, 44370, Note_on_c, 10, 71, 115
14, 44399, Note_on_c, 10, 71, 0
14, 44400, Note_on_c, 10, 76, 115
14, 44414, Note_on_c, 10, 76, 0
14, 44415, Note_on_c, 10, 75, 115
14, 44429, Note_on_c, 10, 75, 0
14, 44430, Note_on_c, 10, 73, 115
14, 44459, Note_on_c, 10, 73, 0
14, 44460, Note_on_c, 10, 71, 115
14, 44549, Note_on_c, 10, 71, 0
14, 44550, Note_on_c, 10, 69, 115
14, 44579, Note_on_c, 10, 69, 0
14, 44580, Note_on_c, 10, 68, 115
14, 44594, Note_on_c, 10, 68, 0
14, 44595, Note_on_c, 10, 66, 115
14, 44609, Note_on_c, 10, 66, 0
14, 44610, Note_on_c, 10, 64, 115
14, 44639, Note_on_c, 10, 64, 0
14, 44640, Note_on_c, 10, 68, 115
14, 44699, Note_on_c, 10, 68, 0
14, 44700, Note_on_c, 10, 66, 115
14, 44759, Note_on_c, 10, 66, 0
14, 44760, Note_on_c, 10, 64, 115
14, 44879, Note_on_c, 10, 64, 0
14, 47640, Note_on_c, 10, 71, 115
14, 47729, Note_on_c, 10, 71, 0
14, 47730, Note_on_c, 10, 73, 115
14, 47744, Note_on_c, 10, 73, 0
14, 47745, Note_on_c, 10, 74, 115
14, 47759, Note_on_c, 10, 74, 0
14, 47760, Note_on_c, 10, 73, 115
14, 47819, Note_on_c, 10, 73, 0
14, 47820, Note_on_c, 10, 71, 115
14, 47834, Note_on_c, 10, 71, 0
14, 47835, Note_on_c, 10, 69, 115
14, 47849, Note_on_c, 10, 69, 0
14, 47850, Note_on_c, 10, 68, 115
14, 47879, Note_on_c, 10, 68, 0
14, 47880, Note_on_c, 10, 68, 115
14, 47939, Note_on_c, 10, 68, 0
14, 48000, Note_on_c, 10, 73, 115
14, 48089, Note_on_c, 10, 73, 0
14, 48090, Note_on_c, 10, 74, 115
14, 48104, Note_on_c, 10, 74, 0
14, 48105, Note_on_c, 10, 76, 115
14, 48119, Note_on_c, 10, 76, 0
14, 48120, Note_on_c, 10, 74, 115
14, 48179, Note_on_c, 10, 74, 0
14, 48180, Note_on_c, 10, 73, 115
14, 48194, Note_on_c, 10, 73, 0
14, 48195, Note_on_c, 10, 71, 115
14, 48209, Note_on_c, 10, 71, 0
14, 48210, Note_on_c, 10, 69, 115
14, 48239, Note_on_c, 10, 69, 0
14, 48240, Note_on_c, 10, 69, 115
14, 48299, Note_on_c, 10, 69, 0
14, 48360, Note_on_c, 10, 74, 115
14, 48449, Note_on_c, 10, 74, 0
14, 48450, Note_on_c, 10, 76, 115
14, 48464, Note_on_c, 10, 76, 0
14, 48465, Note_on_c, 10, 78, 115
14, 48479, Note_on_c, 10, 78, 0
14, 48480, Note_on_c, 10, 78, 115
14, 48509, Note_on_c, 10, 78, 0
14, 48510, Note_on_c, 10, 76, 115
14, 48539, Note_on_c, 10, 76, 0
14, 48540, Note_on_c, 10, 76, 115
14, 48554, Note_on_c, 10, 76, 0
14, 48555, Note_on_c, 10, 74, 115
14, 48569, Note_on_c, 10, 74, 0
14, 48570, Note_on_c, 10, 73, 115
14, 48599, Note_on_c, 10, 73, 0
14, 48600, Note_on_c, 10, 74, 115
14, 48659, Note_on_c, 10, 74, 0
14, 48720, Note_on_c, 10, 73, 115
14, 48809, Note_on_c, 10, 73, 0
14, 48810, Note_on_c, 10, 74, 115
14, 48824, Note_on_c, 10, 74, 0
14, 48825, Note_on_c, 10, 76, 115
14, 48839, Note_on_c, 10, 76, 0
14, 48840, Note_on_c, 10, 76, 115
14, 48869, Note_on_c, 10, 76, 0
14, 48870, Note_on_c, 10, 74, 115
14, 48899, Note_on_c, 10, 74, 0
14, 48900, Note_on_c, 10, 74, 115
14, 48914, Note_on_c, 10, 74, 0
14, 48915, Note_on_c, 10, 73, 115
14, 48929, Note_on_c, 10, 73, 0
14, 48930, Note_on_c, 10, 71, 115
14, 48959, Note_on_c, 10, 71, 0
14, 48960, Note_on_c, 10, 73, 115
14, 49019, Note_on_c, 10, 73, 0
14, 49020, Note_on_c, 10, 74, 115
14, 49079, Note_on_c, 10, 74, 0
14, 49080, Note_on_c, 10, 73, 115
14, 49095, Note_on_c, 10, 73, 0
14, 49095, Note_on_c, 10, 74, 115
14, 49110, Note_on_c, 10, 74, 0
14, 49110, Note_on_c, 10, 73, 115
14, 49120, Note_on_c, 10, 73, 0
14, 49120, Note_on_c, 10, 74, 115
14, 49130, Note_on_c, 10, 74, 0
14, 49130, Note_on_c, 10, 73, 115
14, 49140, Note_on_c, 10, 73, 0
14, 49140, Note_on_c, 10, 74, 115
14, 49150, Note_on_c, 10, 74, 0
14, 49150, Note_on_c, 10, 73, 115
14, 49160, Note_on_c, 10, 73, 0
14, 49160, Note_on_c, 10, 74, 115
14, 49170, Note_on_c, 10, 74, 0
14, 49170, Note_on_c, 10, 73, 115
14, 49180, Note_on_c, 10, 73, 0
14, 49180, Note_on_c, 10, 74, 115
14, 49190, Note_on_c, 10, 74, 0
14, 49190, Note_on_c, 10, 73, 115
14, 49200, Note_on_c, 10, 73, 0
14, 49200, Note_on_c, 10, 74, 115
14, 49210, Note_on_c, 10, 74, 0
14, 49210, Note_on_c, 10, 73, 115
14, 49220, Note_on_c, 10, 73, 0
14, 49220, Note_on_c, 10, 74, 115
14, 49230, Note_on_c, 10, 74, 0
14, 49230, Note_on_c, 10, 73, 115
14, 49240, Note_on_c, 10, 73, 0
14, 49240, Note_on_c, 10, 74, 115
14, 49250, Note_on_c, 10, 74, 0
14, 49250, Note_on_c, 10, 73, 115
14, 49260, Note_on_c, 10, 73, 0
14, 49260, Note_on_c, 10, 71, 115
14, 49379, Note_on_c, 10, 71, 0
14, 49440, Note_on_c, 10, 73, 115
14, 49469, Note_on_c, 10, 73, 0
14, 49470, Note_on_c, 10, 71, 115
14, 49499, Note_on_c, 10, 71, 0
14, 49500, Note_on_c, 10, 71, 115
14, 49529, Note_on_c, 10, 71, 0
14, 49530, Note_on_c, 10, 69, 115
14, 49559, Note_on_c, 10, 69, 0
14, 49560, Note_on_c, 10, 69, 115
14, 49649, Note_on_c, 10, 69, 0
14, 49650, Note_on_c, 10, 69, 115
14, 49679, Note_on_c, 10, 69, 0
14, 49680, Note_on_c, 10, 71, 115
14, 49709, Note_on_c, 10, 71, 0
14, 49710, Note_on_c, 10, 73, 115
14, 49739, Note_on_c, 10, 73, 0
14, 49740, Note_on_c, 10, 73, 115
14, 49769, Note_on_c, 10, 73, 0
14, 49770, Note_on_c, 10, 74, 115
14, 49799, Note_on_c, 10, 74, 0
14, 49800, Note_on_c, 10, 74, 115
14, 49919, Note_on_c, 10, 74, 0
14, 49980, Note_on_c, 10, 71, 115
14, 50009, Note_on_c, 10, 71, 0
14, 50010, Note_on_c, 10, 69, 115
14, 50039, Note_on_c, 10, 69, 0
14, 50040, Note_on_c, 10, 69, 115
14, 50069, Note_on_c, 10, 69, 0
14, 50070, Note_on_c, 10, 68, 115
14, 50099, Note_on_c, 10, 68, 0
14, 50100, Note_on_c, 10, 68, 115
14, 50189, Note_on_c, 10, 68, 0
14, 50190, Note_on_c, 10, 68, 115
14, 50219, Note_on_c, 10, 68, 0
14, 50220, Note_on_c, 10, 69, 115
14, 50249, Note_on_c, 10, 69, 0
14, 50250, Note_on_c, 10, 71, 115
14, 50279, Note_on_c, 10, 71, 0
14, 50280, Note_on_c, 10, 71, 115
14, 50309, Note_on_c, 10, 71, 0
14, 50310, Note_on_c, 10, 73, 115
14, 50339, Note_on_c, 10, 73, 0
14, 50340, Note_on_c, 10, 73, 115
14, 50399, Note_on_c, 10, 73, 0
14, 50400, Note_on_c, 10, 71, 115
14, 50429, Note_on_c, 10, 71, 0
14, 50430, Note_on_c, 10, 73, 115
14, 50459, Note_on_c, 10, 73, 0
14, 50460, Note_on_c, 10, 74, 115
14, 50489, Note_on_c, 10, 74, 0
14, 50490, Note_on_c, 10, 71, 115
14, 50519, Note_on_c, 10, 71, 0
14, 50520, Note_on_c, 10, 73, 115
14, 50549, Note_on_c, 10, 73, 0
14, 50550, Note_on_c, 10, 71, 115
14, 50579, Note_on_c, 10, 71, 0
14, 50580, Note_on_c, 10, 69, 115
14, 50609, Note_on_c, 10, 69, 0
14, 50610, Note_on_c, 10, 68, 115
14, 50639, Note_on_c, 10, 68, 0
14, 50640, Note_on_c, 10, 69, 115
14, 50669, Note_on_c, 10, 69, 0
14, 50670, Note_on_c, 10, 71, 115
14, 50699, Note_on_c, 10, 71, 0
14, 50700, Note_on_c, 10, 64, 115
14, 51120, Note_on_c, 10, 64, 0
14, 51300, Note_on_c, 10, 73, 115
14, 51359, Note_on_c, 10, 73, 0
14, 51360, Note_on_c, 10, 71, 115
14, 51419, Note_on_c, 10, 71, 0
14, 51420, Note_on_c, 10, 69, 115
14, 51449, Note_on_c, 10, 69, 0
14, 51450, Note_on_c, 10, 68, 115
14, 51479, Note_on_c, 10, 68, 0
14, 51480, Note_on_c, 10, 66, 115
14, 51539, Note_on_c, 10, 66, 0
14, 51600, Note_on_c, 10, 66, 115
14, 51629, Note_on_c, 10, 66, 0
14, 51630, Note_on_c, 10, 68, 115
14, 51659, Note_on_c, 10, 68, 0
14, 51660, Note_on_c, 10, 68, 115
14, 51689, Note_on_c, 10, 68, 0
14, 51690, Note_on_c, 10, 70, 115
14, 51719, Note_on_c, 10, 70, 0
14, 51720, Note_on_c, 10, 70, 115
14, 51749, Note_on_c, 10, 70, 0
14, 51750, Note_on_c, 10, 71, 115
14, 51779, Note_on_c, 10, 71, 0
14, 51780, Note_on_c, 10, 71, 115
14, 51794, Note_on_c, 10, 71, 0
14, 51795, Note_on_c, 10, 73, 115
14, 51809, Note_on_c, 10, 73, 0
14, 51810, Note_on_c, 10, 74, 115
14, 51839, Note_on_c, 10, 74, 0
14, 51840, Note_on_c, 10, 74, 115
14, 51869, Note_on_c, 10, 74, 0
14, 51870, Note_on_c, 10, 73, 115
14, 51899, Note_on_c, 10, 73, 0
14, 51900, Note_on_c, 10, 71, 115
14, 51929, Note_on_c, 10, 71, 0
14, 51930, Note_on_c, 10, 69, 115
14, 51959, Note_on_c, 10, 69, 0
14, 51960, Note_on_c, 10, 68, 115
14, 52019, Note_on_c, 10, 68, 0
14, 52020, Note_on_c, 10, 71, 115
14, 52079, Note_on_c, 10, 71, 0
14, 52080, Note_on_c, 10, 69, 115
14, 52139, Note_on_c, 10, 69, 0
14, 52140, Note_on_c, 10, 68, 115
14, 52169, Note_on_c, 10, 68, 0
14, 52170, Note_on_c, 10, 66, 115
14, 52199, Note_on_c, 10, 66, 0
14, 52200, Note_on_c, 10, 64, 115
14, 52259, Note_on_c, 10, 64, 0
14, 52380, Note_on_c, 10, 69, 115
14, 52409, Note_on_c, 10, 69, 0
14, 52410, Note_on_c, 10, 71, 115
14, 52439, Note_on_c, 10, 71, 0
14, 52440, Note_on_c, 10, 71, 115
14, 52469, Note_on_c, 10, 71, 0
14, 52470, Note_on_c, 10, 73, 115
14, 52499, Note_on_c, 10, 73, 0
14, 52500, Note_on_c, 10, 73, 115
14, 52514, Note_on_c, 10, 73, 0
14, 52515, Note_on_c, 10, 74, 115
14, 52529, Note_on_c, 10, 74, 0
14, 52530, Note_on_c, 10, 76, 115
14, 52559, Note_on_c, 10, 76, 0
14, 52560, Note_on_c, 10, 76, 115
14, 52589, Note_on_c, 10, 76, 0
14, 52590, Note_on_c, 10, 74, 115
14, 52619, Note_on_c, 10, 74, 0
14, 52620, Note_on_c, 10, 76, 115
14, 52649, Note_on_c, 10, 76, 0
14, 52650, Note_on_c, 10, 73, 115
14, 52679, Note_on_c, 10, 73, 0
14, 52680, Note_on_c, 10, 74, 115
14, 52739, Note_on_c, 10, 74, 0
14, 52740, Note_on_c, 10, 78, 115
14, 52799, Note_on_c, 10, 78, 0
14, 52800, Note_on_c, 10, 76, 115
14, 52859, Note_on_c, 10, 76, 0
14, 52860, Note_on_c, 10, 74, 115
14, 52889, Note_on_c, 10, 74, 0
14, 52890, Note_on_c, 10, 73, 115
14, 52919, Note_on_c, 10, 73, 0
14, 52920, Note_on_c, 10, 74, 115
14, 52979, Note_on_c, 10, 74, 0
14, 53040, Note_on_c, 10, 76, 115
14, 53159, Note_on_c, 10, 76, 0
14, 53160, Note_on_c, 10, 74, 115
14, 53219, Note_on_c, 10, 74, 0
14, 53220, Note_on_c, 10, 73, 115
14, 53249, Note_on_c, 10, 73, 0
14, 53250, Note_on_c, 10, 71, 115
14, 53279, Note_on_c, 10, 71, 0
14, 53280, Note_on_c, 10, 73, 115
14, 53339, Note_on_c, 10, 73, 0
14, 53520, Note_on_c, 10, 78, 115
14, 53609, Note_on_c, 10, 78, 0
14, 53610, Note_on_c, 10, 76, 115
14, 53639, Note_on_c, 10, 76, 0
14, 53640, Note_on_c, 10, 74, 115
14, 53669, Note_on_c, 10, 74, 0
14, 53670, Note_on_c, 10, 73, 115
14, 53699, Note_on_c, 10, 73, 0
14, 53700, Note_on_c, 10, 74, 115
14, 53729, Note_on_c, 10, 74, 0
14, 53730, Note_on_c, 10, 76, 115
14, 53759, Note_on_c, 10, 76, 0
14, 53760, Note_on_c, 10, 78, 115
14, 53819, Note_on_c, 10, 78, 0
14, 53820, Note_on_c, 10, 80, 115
14, 53849, Note_on_c, 10, 80, 0
14, 53850, Note_on_c, 10, 81, 115
14, 53879, Note_on_c, 10, 81, 0
14, 53880, Note_on_c, 10, 69, 115
14, 53909, Note_on_c, 10, 69, 0
14, 53910, Note_on_c, 10, 71, 115
14, 53939, Note_on_c, 10, 71, 0
14, 53940, Note_on_c, 10, 72, 115
14, 53999, Note_on_c, 10, 72, 0
14, 54000, Note_on_c, 10, 71, 115
14, 54119, Note_on_c, 10, 71, 0
14, 54120, Note_on_c, 10, 73, 115
14, 54134, Note_on_c, 10, 73, 0
14, 54135, Note_on_c, 10, 74, 115
14, 54149, Note_on_c, 10, 74, 0
14, 54150, Note_on_c, 10, 76, 115
14, 54209, Note_on_c, 10, 76, 0
14, 54210, Note_on_c, 10, 76, 115
14, 54239, Note_on_c, 10, 76, 0
14, 54240, Note_on_c, 10, 76, 115
14, 54269, Note_on_c, 10, 76, 0
14, 54270, Note_on_c, 10, 76, 115
14, 54299, Note_on_c, 10, 76, 0
14, 54300, Note_on_c, 10, 81, 115
14, 54314, Note_on_c, 10, 81, 0
14, 54315, Note_on_c, 10, 80, 115
14, 54329, Note_on_c, 10, 80, 0
14, 54330, Note_on_c, 10, 78, 115
14, 54359, Note_on_c, 10, 78, 0
14, 54360, Note_on_c, 10, 76, 115
14, 54449, Note_on_c, 10, 76, 0
14, 54450, Note_on_c, 10, 74, 115
14, 54479, Note_on_c, 10, 74, 0
14, 54480, Note_on_c, 10, 73, 115
14, 54494, Note_on_c, 10, 73, 0
14, 54495, Note_on_c, 10, 71, 115
14, 54509, Note_on_c, 10, 71, 0
14, 54510, Note_on_c, 10, 69, 115
14, 54539, Note_on_c, 10, 69, 0
14, 54540, Note_on_c, 10, 73, 115
14, 54569, Note_on_c, 10, 73, 0
14, 54600, Note_on_c, 10, 71, 115
14, 54609, Note_on_c, 10, 71, 0
14, 54610, Note_on_c, 10, 73, 115
14, 54619, Note_on_c, 10, 73, 0
14, 54620, Note_on_c, 10, 71, 115
14, 54629, Note_on_c, 10, 71, 0
14, 54630, Note_on_c, 10, 73, 115
14, 54637, Note_on_c, 10, 71, 115
14, 54638, Note_on_c, 10, 73, 0
14, 54645, Note_on_c, 10, 71, 0
14, 54645, Note_on_c, 10, 73, 115
14, 54652, Note_on_c, 10, 71, 115
14, 54653, Note_on_c, 10, 73, 0
14, 54660, Note_on_c, 10, 71, 0
14, 54660, Note_on_c, 10, 69, 115
14, 54689, Note_on_c, 10, 69, 0
14, 54690, Note_on_c, 10, 66, 115
14, 54719, Note_on_c, 10, 66, 0
14, 54720, Note_on_c, 10, 64, 115
14, 54749, Note_on_c, 10, 64, 0
14, 54750, Note_on_c, 10, 62, 115
14, 54779, Note_on_c, 10, 62, 0
14, 54780, Note_on_c, 10, 62, 115
14, 54809, Note_on_c, 10, 62, 0
14, 54810, Note_on_c, 10, 61, 115
14, 54839, Note_on_c, 10, 61, 0
14, 54840, Note_on_c, 10, 61, 115
14, 54899, Note_on_c, 10, 61, 0
14, 58260, Note_on_c, 10, 78, 115
14, 58274, Note_on_c, 10, 78, 0
14, 58275, Note_on_c, 10, 76, 115
14, 58289, Note_on_c, 10, 76, 0
14, 58290, Note_on_c, 10, 74, 115
14, 58319, Note_on_c, 10, 74, 0
14, 58320, Note_on_c, 10, 74, 115
14, 58349, Note_on_c, 10, 74, 0
14, 58350, Note_on_c, 10, 73, 115
14, 58439, Note_on_c, 10, 73, 0
14, 58440, Note_on_c, 10, 74, 115
14, 58454, Note_on_c, 10, 74, 0
14, 58455, Note_on_c, 10, 73, 115
14, 58469, Note_on_c, 10, 73, 0
14, 58470, Note_on_c, 10, 71, 115
14, 58499, Note_on_c, 10, 71, 0
14, 58500, Note_on_c, 10, 71, 115
14, 58529, Note_on_c, 10, 71, 0
14, 58530, Note_on_c, 10, 70, 115
14, 58619, Note_on_c, 10, 70, 0
14, 58620, Note_on_c, 10, 71, 115
14, 58679, Note_on_c, 10, 71, 0
14, 58680, Note_on_c, 10, 75, 115
14, 58694, Note_on_c, 10, 75, 0
14, 58695, Note_on_c, 10, 76, 115
14, 58709, Note_on_c, 10, 76, 0
14, 58710, Note_on_c, 10, 75, 115
14, 58719, Note_on_c, 10, 75, 0
14, 58720, Note_on_c, 10, 76, 115
14, 58729, Note_on_c, 10, 76, 0
14, 58730, Note_on_c, 10, 75, 115
14, 58739, Note_on_c, 10, 75, 0
14, 58740, Note_on_c, 10, 76, 115
14, 58749, Note_on_c, 10, 76, 0
14, 58750, Note_on_c, 10, 75, 115
14, 58759, Note_on_c, 10, 75, 0
14, 58760, Note_on_c, 10, 76, 115
14, 58769, Note_on_c, 10, 76, 0
14, 58770, Note_on_c, 10, 75, 115
14, 58779, Note_on_c, 10, 75, 0
14, 58780, Note_on_c, 10, 76, 115
14, 58789, Note_on_c, 10, 76, 0
14, 58790, Note_on_c, 10, 75, 115
14, 58799, Note_on_c, 10, 75, 0
14, 58800, Note_on_c, 10, 76, 115
14, 58859, Note_on_c, 10, 76, 0
14, 58860, Note_on_c, 10, 78, 115
14, 58889, Note_on_c, 10, 78, 0
14, 58890, Note_on_c, 10, 76, 115
14, 58919, Note_on_c, 10, 76, 0
14, 58920, Note_on_c, 10, 78, 115
14, 58979, Note_on_c, 10, 78, 0
14, 59040, Note_on_c, 10, 76, 115
14, 59099, Note_on_c, 10, 76, 0
14, 59100, Note_on_c, 10, 74, 115
14, 59159, Note_on_c, 10, 74, 0
14, 59160, Note_on_c, 10, 73, 115
14, 59219, Note_on_c, 10, 73, 0
14, 59220, Note_on_c, 10, 74, 115
14, 59249, Note_on_c, 10, 74, 0
14, 59250, Note_on_c, 10, 73, 115
14, 59279, Note_on_c, 10, 73, 0
14, 59280, Note_on_c, 10, 71, 115
14, 59309, Note_on_c, 10, 71, 0
14, 59310, Note_on_c, 10, 73, 115
14, 59339, Note_on_c, 10, 73, 0
14, 59340, Note_on_c, 10, 74, 115
14, 59399, Note_on_c, 10, 74, 0
14, 59400, Note_on_c, 10, 76, 115
14, 59429, Note_on_c, 10, 76, 0
14, 59430, Note_on_c, 10, 74, 115
14, 59459, Note_on_c, 10, 74, 0
14, 59460, Note_on_c, 10, 76, 115
14, 59519, Note_on_c, 10, 76, 0
14, 59520, Note_on_c, 10, 69, 115
14, 59579, Note_on_c, 10, 69, 0
14, 59580, Note_on_c, 10, 73, 115
14, 59639, Note_on_c, 10, 73, 0
14, 59640, Note_on_c, 10, 74, 115
14, 59699, Note_on_c, 10, 74, 0
14, 59760, Note_on_c, 10, 74, 115
14, 59819, Note_on_c, 10, 74, 0
14, 59820, Note_on_c, 10, 72, 115
14, 59879, Note_on_c, 10, 72, 0
14, 59880, Note_on_c, 10, 71, 115
14, 60089, Note_on_c, 10, 71, 0
14, 60090, Note_on_c, 10, 73, 115
14, 60119, Note_on_c, 10, 73, 0
14, 60120, Note_on_c, 10, 75, 115
14, 60149, Note_on_c, 10, 75, 0
14, 60150, Note_on_c, 10, 76, 115
14, 60179, Note_on_c, 10, 76, 0
14, 60180, Note_on_c, 10, 78, 115
14, 60209, Note_on_c, 10, 78, 0
14, 60210, Note_on_c, 10, 75, 115
14, 60239, Note_on_c, 10, 75, 0
14, 60240, Note_on_c, 10, 71, 115
14, 60269, Note_on_c, 10, 71, 0
14, 60270, Note_on_c, 10, 76, 115
14, 60329, Note_on_c, 10, 76, 0
14, 60330, Note_on_c, 10, 78, 115
14, 60344, Note_on_c, 10, 78, 0
14, 60345, Note_on_c, 10, 76, 115
14, 60359, Note_on_c, 10, 76, 0
14, 60360, Note_on_c, 10, 74, 115
14, 60389, Note_on_c, 10, 74, 0
14, 60390, Note_on_c, 10, 76, 115
14, 60404, Note_on_c, 10, 76, 0
14, 60405, Note_on_c, 10, 74, 115
14, 60419, Note_on_c, 10, 74, 0
14, 60420, Note_on_c, 10, 73, 115
14, 60449, Note_on_c, 10, 73, 0
14, 60450, Note_on_c, 10, 74, 115
14, 60464, Note_on_c, 10, 74, 0
14, 60465, Note_on_c, 10, 73, 115
14, 60479, Note_on_c, 10, 73, 0
14, 60480, Note_on_c, 10, 71, 115
14, 60509, Note_on_c, 10, 71, 0
14, 60510, Note_on_c, 10, 76, 115
14, 60539, Note_on_c, 10, 76, 0
14, 60540, Note_on_c, 10, 74, 115
14, 60569, Note_on_c, 10, 74, 0
14, 60570, Note_on_c, 10, 76, 115
14, 60599, Note_on_c, 10, 76, 0
14, 60600, Note_on_c, 10, 70, 115
14, 60659, Note_on_c, 10, 70, 0
14, 60660, Note_on_c, 10, 70, 115
14, 60689, Note_on_c, 10, 70, 0
14, 60690, Note_on_c, 10, 71, 115
14, 60719, Note_on_c, 10, 71, 0
14, 60720, Note_on_c, 10, 73, 115
14, 60749, Note_on_c, 10, 73, 0
14, 60750, Note_on_c, 10, 66, 115
14, 60779, Note_on_c, 10, 66, 0
14, 60780, Note_on_c, 10, 78, 115
14, 60839, Note_on_c, 10, 78, 0
14, 60840, Note_on_c, 10, 79, 115
14, 60899, Note_on_c, 10, 79, 0
14, 60900, Note_on_c, 10, 76, 115
14, 60959, Note_on_c, 10, 76, 0
14, 60960, Note_on_c, 10, 73, 115
14, 61019, Note_on_c, 10, 73, 0
14, 61020, Note_on_c, 10, 74, 115
14, 61049, Note_on_c, 10, 74, 0
14, 61050, Note_on_c, 10, 73, 115
14, 61079, Note_on_c, 10, 73, 0
14, 61080, Note_on_c, 10, 73, 115
14, 61139, Note_on_c, 10, 73, 0
14, 61140, Note_on_c, 10, 74, 115
14, 61169, Note_on_c, 10, 74, 0
14, 61170, Note_on_c, 10, 73, 115
14, 61199, Note_on_c, 10, 73, 0
14, 61200, Note_on_c, 10, 76, 115
14, 61229, Note_on_c, 10, 76, 0
14, 61230, Note_on_c, 10, 74, 115
14, 61259, Note_on_c, 10, 74, 0
14, 61260, Note_on_c, 10, 73, 115
14, 61289, Note_on_c, 10, 73, 0
14, 61290, Note_on_c, 10, 74, 115
14, 61319, Note_on_c, 10, 74, 0
14, 61320, Note_on_c, 10, 71, 115
14, 61439, Note_on_c, 10, 71, 0
14, 62760, Note_on_c, 10, 74, 115
14, 62819, Note_on_c, 10, 74, 0
14, 62820, Note_on_c, 10, 73, 115
14, 62849, Note_on_c, 10, 73, 0
14, 62850, Note_on_c, 10, 71, 115
14, 62939, Note_on_c, 10, 71, 0
14, 62940, Note_on_c, 10, 73, 115
14, 62999, Note_on_c, 10, 73, 0
14, 63000, Note_on_c, 10, 71, 115
14, 63029, Note_on_c, 10, 71, 0
14, 63030, Note_on_c, 10, 70, 115
14, 63119, Note_on_c, 10, 70, 0
14, 63120, Note_on_c, 10, 71, 115
14, 63179, Note_on_c, 10, 71, 0
14, 63180, Note_on_c, 10, 69, 115
14, 63209, Note_on_c, 10, 69, 0
14, 63210, Note_on_c, 10, 68, 115
14, 63299, Note_on_c, 10, 68, 0
14, 63300, Note_on_c, 10, 69, 115
14, 63329, Note_on_c, 10, 69, 0
14, 63330, Note_on_c, 10, 68, 115
14, 63359, Note_on_c, 10, 68, 0
14, 63360, Note_on_c, 10, 66, 115
14, 63419, Note_on_c, 10, 66, 0
14, 63660, Note_on_c, 10, 73, 115
14, 63719, Note_on_c, 10, 73, 0
14, 63720, Note_on_c, 10, 76, 115
14, 63749, Note_on_c, 10, 76, 0
14, 63750, Note_on_c, 10, 75, 115
14, 63839, Note_on_c, 10, 75, 0
14, 63840, Note_on_c, 10, 76, 115
14, 63899, Note_on_c, 10, 76, 0
14, 63900, Note_on_c, 10, 75, 115
14, 63929, Note_on_c, 10, 75, 0
14, 63930, Note_on_c, 10, 73, 115
14, 64019, Note_on_c, 10, 73, 0
14, 64020, Note_on_c, 10, 75, 115
14, 64079, Note_on_c, 10, 75, 0
14, 64080, Note_on_c, 10, 73, 115
14, 64109, Note_on_c, 10, 73, 0
14, 64110, Note_on_c, 10, 72, 115
14, 64199, Note_on_c, 10, 72, 0
14, 64200, Note_on_c, 10, 73, 115
14, 64229, Note_on_c, 10, 73, 0
14, 64230, Note_on_c, 10, 72, 115
14, 64259, Note_on_c, 10, 72, 0
14, 64260, Note_on_c, 10, 73, 115
14, 64319, Note_on_c, 10, 73, 0
14, 64380, Note_on_c, 10, 73, 115
14, 64439, Note_on_c, 10, 73, 0
14, 64440, Note_on_c, 10, 72, 115
14, 64499, Note_on_c, 10, 72, 0
14, 64500, Note_on_c, 10, 73, 115
14, 64559, Note_on_c, 10, 73, 0
14, 64560, Note_on_c, 10, 73, 115
14, 64619, Note_on_c, 10, 73, 0
14, 64620, Note_on_c, 10, 72, 115
14, 64679, Note_on_c, 10, 72, 0
14, 64680, Note_on_c, 10, 73, 115
14, 64739, Note_on_c, 10, 73, 0
14, 64740, Note_on_c, 10, 75, 115
14, 64799, Note_on_c, 10, 75, 0
14, 64800, Note_on_c, 10, 73, 115
14, 64829, Note_on_c, 10, 73, 0
14, 64830, Note_on_c, 10, 72, 115
14, 64859, Note_on_c, 10, 72, 0
14, 64860, Note_on_c, 10, 73, 115
14, 64919, Note_on_c, 10, 73, 0
14, 64920, Note_on_c, 10, 72, 115
14, 64949, Note_on_c, 10, 72, 0
14, 64950, Note_on_c, 10, 73, 115
14, 64979, Note_on_c, 10, 73, 0
14, 64980, Note_on_c, 10, 75, 115
14, 65039, Note_on_c, 10, 75, 0
14, 65040, Note_on_c, 10, 68, 115
14, 65099, Note_on_c, 10, 68, 0
14, 65100, Note_on_c, 10, 76, 115
14, 65159, Note_on_c, 10, 76, 0
14, 65160, Note_on_c, 10, 75, 115
14, 65219, Note_on_c, 10, 75, 0
14, 65220, Note_on_c, 10, 76, 115
14, 65279, Note_on_c, 10, 76, 0
14, 65280, Note_on_c, 10, 76, 115
14, 65339, Note_on_c, 10, 76, 0
14, 65340, Note_on_c, 10, 75, 115
14, 65399, Note_on_c, 10, 75, 0
14, 65400, Note_on_c, 10, 76, 115
14, 65459, Note_on_c, 10, 76, 0
14, 65460, Note_on_c, 10, 78, 115
14, 65519, Note_on_c, 10, 78, 0
14, 65520, Note_on_c, 10, 76, 115
14, 65579, Note_on_c, 10, 76, 0
14, 65580, Note_on_c, 10, 78, 115
14, 65639, Note_on_c, 10, 78, 0
14, 65640, Note_on_c, 10, 80, 115
14, 65654, Note_on_c, 10, 80, 0
14, 65655, Note_on_c, 10, 78, 115
14, 65669, Note_on_c, 10, 78, 0
14, 65670, Note_on_c, 10, 76, 115
14, 65699, Note_on_c, 10, 76, 0
14, 65700, Note_on_c, 10, 78, 115
14, 65729, Note_on_c, 10, 78, 0
14, 65730, Note_on_c, 10, 75, 115
14, 65789, Note_on_c, 10, 75, 0
14, 65790, Note_on_c, 10, 76, 115
14, 65804, Note_on_c, 10, 76, 0
14, 65805, Note_on_c, 10, 78, 115
14, 65819, Note_on_c, 10, 78, 0
14, 65820, Note_on_c, 10, 76, 115
14, 65834, Note_on_c, 10, 76, 0
14, 65835, Note_on_c, 10, 75, 115
14, 65849, Note_on_c, 10, 75, 0
14, 65850, Note_on_c, 10, 73, 115
14, 65879, Note_on_c, 10, 73, 0
14, 65880, Note_on_c, 10, 75, 115
14, 65909, Note_on_c, 10, 75, 0
14, 65910, Note_on_c, 10, 72, 115
14, 65969, Note_on_c, 10, 72, 0
14, 65970, Note_on_c, 10, 73, 115
14, 65984, Note_on_c, 10, 73, 0
14, 65985, Note_on_c, 10, 75, 115
14, 65999, Note_on_c, 10, 75, 0
14, 66000, Note_on_c, 10, 73, 115
14, 66390, Note_on_c, 10, 73, 0
14, 66390, Note_on_c, 10, 72, 115
14, 66419, Note_on_c, 10, 72, 0
14, 66420, Note_on_c, 10, 73, 115
14, 66449, Note_on_c, 10, 73, 0
14, 66450, Note_on_c, 10, 76, 115
14, 66479, Note_on_c, 10, 76, 0
14, 66480, Note_on_c, 10, 75, 115
14, 66509, Note_on_c, 10, 75, 0
14, 66510, Note_on_c, 10, 73, 115
14, 66539, Note_on_c, 10, 73, 0
14, 66540, Note_on_c, 10, 72, 115
14, 66569, Note_on_c, 10, 72, 0
14, 66570, Note_on_c, 10, 73, 115
14, 66599, Note_on_c, 10, 73, 0
14, 66600, Note_on_c, 10, 75, 115
14, 66779, Note_on_c, 10, 75, 0
14, 66780, Note_on_c, 10, 73, 115
14, 66809, Note_on_c, 10, 73, 0
14, 66810, Note_on_c, 10, 75, 115
14, 66839, Note_on_c, 10, 75, 0
14, 66840, Note_on_c, 10, 76, 115
14, 66929, Note_on_c, 10, 76, 0
14, 66930, Note_on_c, 10, 75, 115
14, 66959, Note_on_c, 10, 75, 0
14, 66960, Note_on_c, 10, 72, 115
14, 67049, Note_on_c, 10, 72, 0
14, 67050, Note_on_c, 10, 73, 115
14, 67079, Note_on_c, 10, 73, 0
14, 67080, Note_on_c, 10, 73, 115
14, 67199, Note_on_c, 10, 73, 0
14, 70140, Control_c, 10, 0, 20
14, 70140, Program_c, 10, 65
14, 70140, Note_on_c, 10, 73, 115
14, 70229, Note_on_c, 10, 73, 0
14, 70230, Note_on_c, 10, 74, 115
14, 70244, Note_on_c, 10, 74, 0
14, 70245, Note_on_c, 10, 76, 115
14, 70259, Note_on_c, 10, 76, 0
14, 70260, Note_on_c, 10, 74, 115
14, 70319, Note_on_c, 10, 74, 0
14, 70320, Note_on_c, 10, 73, 115
14, 70334, Note_on_c, 10, 73, 0
14, 70335, Note_on_c, 10, 71, 115
14, 70349, Note_on_c, 10, 71, 0
14, 70350, Note_on_c, 10, 69, 115
14, 70379, Note_on_c, 10, 69, 0
14, 70380, Note_on_c, 10, 69, 115
14, 70439, Note_on_c, 10, 69, 0
14, 70440, Note_on_c, 10, 71, 115
14, 70499, Note_on_c, 10, 71, 0
14, 70500, Note_on_c, 10, 69, 115
14, 70589, Note_on_c, 10, 69, 0
14, 70590, Note_on_c, 10, 71, 115
14, 70604, Note_on_c, 10, 71, 0
14, 70605, Note_on_c, 10, 73, 115
14, 70619, Note_on_c, 10, 73, 0
14, 70620, Note_on_c, 10, 71, 115
14, 70679, Note_on_c, 10, 71, 0
14, 70680, Note_on_c, 10, 69, 115
14, 70694, Note_on_c, 10, 69, 0
14, 70695, Note_on_c, 10, 68, 115
14, 70709, Note_on_c, 10, 68, 0
14, 70710, Note_on_c, 10, 66, 115
14, 70740, Note_on_c, 10, 66, 0
14, 70740, Note_on_c, 10, 68, 115
14, 70859, Note_on_c, 10, 68, 0
14, 70860, Note_on_c, 10, 69, 115
14, 70889, Note_on_c, 10, 69, 0
14, 70890, Note_on_c, 10, 68, 115
14, 70919, Note_on_c, 10, 68, 0
14, 70920, Note_on_c, 10, 68, 115
14, 70949, Note_on_c, 10, 68, 0
14, 70950, Note_on_c, 10, 66, 115
14, 70979, Note_on_c, 10, 66, 0
14, 70980, Note_on_c, 10, 66, 115
14, 71069, Note_on_c, 10, 66, 0
14, 71070, Note_on_c, 10, 66, 115
14, 71099, Note_on_c, 10, 66, 0
14, 71100, Note_on_c, 10, 68, 115
14, 71129, Note_on_c, 10, 68, 0
14, 71130, Note_on_c, 10, 70, 115
14, 71159, Note_on_c, 10, 70, 0
14, 71160, Note_on_c, 10, 70, 115
14, 71189, Note_on_c, 10, 70, 0
14, 71190, Note_on_c, 10, 71, 115
14, 71219, Note_on_c, 10, 71, 0
14, 71220, Note_on_c, 10, 71, 115
14, 71249, Note_on_c, 10, 71, 0
14, 71250, Note_on_c, 10, 70, 115
14, 71279, Note_on_c, 10, 70, 0
14, 71280, Note_on_c, 10, 71, 115
14, 71339, Note_on_c, 10, 71, 0
14, 71400, Note_on_c, 10, 74, 115
14, 71429, Note_on_c, 10, 74, 0
14, 71430, Note_on_c, 10, 73, 115
14, 71459, Note_on_c, 10, 73, 0
14, 71460, Note_on_c, 10, 73, 115
14, 71489, Note_on_c, 10, 73, 0
14, 71490, Note_on_c, 10, 71, 115
14, 71519, Note_on_c, 10, 71, 0
14, 71520, Note_on_c, 10, 71, 115
14, 71609, Note_on_c, 10, 71, 0
14, 71610, Note_on_c, 10, 71, 115
14, 71639, Note_on_c, 10, 71, 0
14, 71640, Note_on_c, 10, 73, 115
14, 71669, Note_on_c, 10, 73, 0
14, 71670, Note_on_c, 10, 74, 115
14, 71699, Note_on_c, 10, 74, 0
14, 71700, Note_on_c, 10, 74, 115
14, 71729, Note_on_c, 10, 74, 0
14, 71730, Note_on_c, 10, 76, 115
14, 71759, Note_on_c, 10, 76, 0
14, 71760, Note_on_c, 10, 76, 115
14, 72180, Note_on_c, 10, 76, 0
14, 72180, Note_on_c, 10, 71, 115
14, 72209, Note_on_c, 10, 71, 0
14, 72210, Note_on_c, 10, 73, 115
14, 72239, Note_on_c, 10, 73, 0
14, 72240, Note_on_c, 10, 74, 115
14, 72269, Note_on_c, 10, 74, 0
14, 72270, Note_on_c, 10, 71, 115
14, 72299, Note_on_c, 10, 71, 0
14, 72300, Note_on_c, 10, 73, 115
14, 72329, Note_on_c, 10, 73, 0
14, 72330, Note_on_c, 10, 71, 115
14, 72359, Note_on_c, 10, 71, 0
14, 72360, Note_on_c, 10, 69, 115
14, 72389, Note_on_c, 10, 69, 0
14, 72390, Note_on_c, 10, 68, 115
14, 72419, Note_on_c, 10, 68, 0
14, 72420, Note_on_c, 10, 69, 115
14, 72449, Note_on_c, 10, 69, 0
14, 72450, Note_on_c, 10, 71, 115
14, 72479, Note_on_c, 10, 71, 0
14, 72480, Note_on_c, 10, 64, 115
14, 72599, Note_on_c, 10, 64, 0
14, 72660, Note_on_c, 10, 73, 115
14, 72780, Note_on_c, 10, 73, 0
14, 72780, Note_on_c, 10, 71, 115
14, 72839, Note_on_c, 10, 71, 0
14, 72840, Note_on_c, 10, 69, 115
14, 72869, Note_on_c, 10, 69, 0
14, 72870, Note_on_c, 10, 68, 115
14, 72899, Note_on_c, 10, 68, 0
14, 72900, Note_on_c, 10, 69, 115
14, 72959, Note_on_c, 10, 69, 0
14, 73020, Note_on_c, 10, 71, 115
14, 73139, Note_on_c, 10, 71, 0
14, 73140, Note_on_c, 10, 69, 115
14, 73199, Note_on_c, 10, 69, 0
14, 73200, Note_on_c, 10, 68, 115
14, 73229, Note_on_c, 10, 68, 0
14, 73230, Note_on_c, 10, 66, 115
14, 73259, Note_on_c, 10, 66, 0
14, 73260, Note_on_c, 10, 68, 115
14, 73319, Note_on_c, 10, 68, 0
14, 73500, Note_on_c, 10, 73, 115
14, 73589, Note_on_c, 10, 73, 0
14, 73590, Note_on_c, 10, 71, 115
14, 73619, Note_on_c, 10, 71, 0
14, 73620, Note_on_c, 10, 69, 115
14, 73649, Note_on_c, 10, 69, 0
14, 73650, Note_on_c, 10, 68, 115
14, 73679, Note_on_c, 10, 68, 0
14, 73680, Note_on_c, 10, 69, 115
14, 73709, Note_on_c, 10, 69, 0
14, 73710, Note_on_c, 10, 71, 115
14, 73739, Note_on_c, 10, 71, 0
14, 73740, Note_on_c, 10, 73, 115
14, 73799, Note_on_c, 10, 73, 0
14, 73800, Note_on_c, 10, 74, 115
14, 73829, Note_on_c, 10, 74, 0
14, 73830, Note_on_c, 10, 71, 115
14, 73859, Note_on_c, 10, 71, 0
14, 73860, Note_on_c, 10, 76, 115
14, 73889, Note_on_c, 10, 76, 0
14, 73890, Note_on_c, 10, 74, 115
14, 73919, Note_on_c, 10, 74, 0
14, 73920, Note_on_c, 10, 73, 115
14, 73979, Note_on_c, 10, 73, 0
14, 73980, Note_on_c, 10, 66, 115
14, 74099, Note_on_c, 10, 66, 0
14, 74100, Note_on_c, 10, 68, 115
14, 74114, Note_on_c, 10, 68, 0
14, 74115, Note_on_c, 10, 69, 115
14, 74129, Note_on_c, 10, 69, 0
14, 74130, Note_on_c, 10, 71, 115
14, 74189, Note_on_c, 10, 71, 0
14, 74190, Note_on_c, 10, 71, 115
14, 74219, Note_on_c, 10, 71, 0
14, 74220, Note_on_c, 10, 71, 115
14, 74249, Note_on_c, 10, 71, 0
14, 74250, Note_on_c, 10, 71, 115
14, 74279, Note_on_c, 10, 71, 0
14, 74280, Note_on_c, 10, 76, 115
14, 74294, Note_on_c, 10, 76, 0
14, 74295, Note_on_c, 10, 75, 115
14, 74309, Note_on_c, 10, 75, 0
14, 74310, Note_on_c, 10, 73, 115
14, 74339, Note_on_c, 10, 73, 0
14, 74340, Note_on_c, 10, 71, 115
14, 74429, Note_on_c, 10, 71, 0
14, 74430, Note_on_c, 10, 69, 115
14, 74459, Note_on_c, 10, 69, 0
14, 74460, Note_on_c, 10, 68, 115
14, 74474, Note_on_c, 10, 68, 0
14, 74475, Note_on_c, 10, 66, 115
14, 74489, Note_on_c, 10, 66, 0
14, 74490, Note_on_c, 10, 64, 115
14, 74519, Note_on_c, 10, 64, 0
14, 74520, Note_on_c, 10, 68, 115
14, 74579, Note_on_c, 10, 68, 0
14, 74580, Note_on_c, 10, 66, 115
14, 74639, Note_on_c, 10, 66, 0
14, 74640, Note_on_c, 10, 64, 115
14, 74759, Note_on_c, 10, 64, 0
14, 77520, Note_on_c, 10, 71, 115
14, 77609, Note_on_c, 10, 71, 0
14, 77610, Note_on_c, 10, 73, 115
14, 77624, Note_on_c, 10, 73, 0
14, 77625, Note_on_c, 10, 74, 115
14, 77639, Note_on_c, 10, 74, 0
14, 77640, Note_on_c, 10, 73, 115
14, 77699, Note_on_c, 10, 73, 0
14, 77700, Note_on_c, 10, 71, 115
14, 77714, Note_on_c, 10, 71, 0
14, 77715, Note_on_c, 10, 69, 115
14, 77729, Note_on_c, 10, 69, 0
14, 77730, Note_on_c, 10, 68, 115
14, 77759, Note_on_c, 10, 68, 0
14, 77760, Note_on_c, 10, 68, 115
14, 77819, Note_on_c, 10, 68, 0
14, 77880, Note_on_c, 10, 73, 115
14, 77969, Note_on_c, 10, 73, 0
14, 77970, Note_on_c, 10, 74, 115
14, 77984, Note_on_c, 10, 74, 0
14, 77985, Note_on_c, 10, 76, 115
14, 77999, Note_on_c, 10, 76, 0
14, 78000, Note_on_c, 10, 74, 115
14, 78059, Note_on_c, 10, 74, 0
14, 78060, Note_on_c, 10, 73, 115
14, 78074, Note_on_c, 10, 73, 0
14, 78075, Note_on_c, 10, 71, 115
14, 78089, Note_on_c, 10, 71, 0
14, 78090, Note_on_c, 10, 69, 115
14, 78119, Note_on_c, 10, 69, 0
14, 78120, Note_on_c, 10, 69, 115
14, 78179, Note_on_c, 10, 69, 0
14, 78240, Note_on_c, 10, 74, 115
14, 78329, Note_on_c, 10, 74, 0
14, 78330, Note_on_c, 10, 76, 115
14, 78344, Note_on_c, 10, 76, 0
14, 78345, Note_on_c, 10, 78, 115
14, 78359, Note_on_c, 10, 78, 0
14, 78360, Note_on_c, 10, 78, 115
14, 78389, Note_on_c, 10, 78, 0
14, 78390, Note_on_c, 10, 76, 115
14, 78419, Note_on_c, 10, 76, 0
14, 78420, Note_on_c, 10, 76, 115
14, 78434, Note_on_c, 10, 76, 0
14, 78435, Note_on_c, 10, 74, 115
14, 78449, Note_on_c, 10, 74, 0
14, 78450, Note_on_c, 10, 73, 115
14, 78479, Note_on_c, 10, 73, 0
14, 78480, Note_on_c, 10, 74, 115
14, 78539, Note_on_c, 10, 74, 0
14, 78600, Note_on_c, 10, 73, 115
14, 78689, Note_on_c, 10, 73, 0
14, 78690, Note_on_c, 10, 74, 115
14, 78704, Note_on_c, 10, 74, 0
14, 78705, Note_on_c, 10, 76, 115
14, 78719, Note_on_c, 10, 76, 0
14, 78720, Note_on_c, 10, 76, 115
14, 78749, Note_on_c, 10, 76, 0
14, 78750, Note_on_c, 10, 74, 115
14, 78779, Note_on_c, 10, 74, 0
14, 78780, Note_on_c, 10, 74, 115
14, 78794, Note_on_c, 10, 74, 0
14, 78795, Note_on_c, 10, 73, 115
14, 78809, Note_on_c, 10, 73, 0
14, 78810, Note_on_c, 10, 71, 115
14, 78839, Note_on_c, 10, 71, 0
14, 78840, Note_on_c, 10, 73, 115
14, 78899, Note_on_c, 10, 73, 0
14, 78900, Note_on_c, 10, 74, 115
14, 78959, Note_on_c, 10, 74, 0
14, 78960, Note_on_c, 10, 73, 115
14, 78975, Note_on_c, 10, 73, 0
14, 78975, Note_on_c, 10, 74, 115
14, 78990, Note_on_c, 10, 74, 0
14, 78990, Note_on_c, 10, 73, 115
14, 79000, Note_on_c, 10, 73, 0
14, 79000, Note_on_c, 10, 74, 115
14, 79010, Note_on_c, 10, 74, 0
14, 79010, Note_on_c, 10, 73, 115
14, 79020, Note_on_c, 10, 73, 0
14, 79020, Note_on_c, 10, 74, 115
14, 79030, Note_on_c, 10, 74, 0
14, 79030, Note_on_c, 10, 73, 115
14, 79040, Note_on_c, 10, 73, 0
14, 79040, Note_on_c, 10, 74, 115
14, 79050, Note_on_c, 10, 74, 0
14, 79050, Note_on_c, 10, 73, 115
14, 79060, Note_on_c, 10, 73, 0
14, 79060, Note_on_c, 10, 74, 115
14, 79070, Note_on_c, 10, 74, 0
14, 79070, Note_on_c, 10, 73, 115
14, 79080, Note_on_c, 10, 73, 0
14, 79080, Note_on_c, 10, 74, 115
14, 79090, Note_on_c, 10, 74, 0
14, 79090, Note_on_c, 10, 73, 115
14, 79100, Note_on_c, 10, 73, 0
14, 79100, Note_on_c, 10, 74, 115
14, 79110, Note_on_c, 10, 74, 0
14, 79110, Note_on_c, 10, 73, 115
14, 79120, Note_on_c, 10, 73, 0
14, 79120, Note_on_c, 10, 74, 115
14, 79130, Note_on_c, 10, 74, 0
14, 79130, Note_on_c, 10, 73, 115
14, 79140, Note_on_c, 10, 73, 0
14, 79140, Note_on_c, 10, 71, 115
14, 79259, Note_on_c, 10, 71, 0
14, 79320, Note_on_c, 10, 73, 115
14, 79349, Note_on_c, 10, 73, 0
14, 79350, Note_on_c, 10, 71, 115
14, 79379, Note_on_c, 10, 71, 0
14, 79380, Note_on_c, 10, 71, 115
14, 79409, Note_on_c, 10, 71, 0
14, 79410, Note_on_c, 10, 69, 115
14, 79439, Note_on_c, 10, 69, 0
14, 79440, Note_on_c, 10, 69, 115
14, 79529, Note_on_c, 10, 69, 0
14, 79530, Note_on_c, 10, 69, 115
14, 79559, Note_on_c, 10, 69, 0
14, 79560, Note_on_c, 10, 71, 115
14, 79589, Note_on_c, 10, 71, 0
14, 79590, Note_on_c, 10, 73, 115
14, 79619, Note_on_c, 10, 73, 0
14, 79620, Note_on_c, 10, 73, 115
14, 79649, Note_on_c, 10, 73, 0
14, 79650, Note_on_c, 10, 74, 115
14, 79679, Note_on_c, 10, 74, 0
14, 79680, Note_on_c, 10, 74, 115
14, 79799, Note_on_c, 10, 74, 0
14, 79860, Note_on_c, 10, 71, 115
14, 79889, Note_on_c, 10, 71, 0
14, 79890, Note_on_c, 10, 69, 115
14, 79919, Note_on_c, 10, 69, 0
14, 79920, Note_on_c, 10, 69, 115
14, 79949, Note_on_c, 10, 69, 0
14, 79950, Note_on_c, 10, 68, 115
14, 79979, Note_on_c, 10, 68, 0
14, 79980, Note_on_c, 10, 68, 115
14, 80069, Note_on_c, 10, 68, 0
14, 80070, Note_on_c, 10, 68, 115
14, 80099, Note_on_c, 10, 68, 0
14, 80100, Note_on_c, 10, 69, 115
14, 80129, Note_on_c, 10, 69, 0
14, 80130, Note_on_c, 10, 71, 115
14, 80159, Note_on_c, 10, 71, 0
14, 80160, Note_on_c, 10, 71, 115
14, 80189, Note_on_c, 10, 71, 0
14, 80190, Note_on_c, 10, 73, 115
14, 80219, Note_on_c, 10, 73, 0
14, 80220, Note_on_c, 10, 73, 115
14, 80279, Note_on_c, 10, 73, 0
14, 80280, Note_on_c, 10, 71, 115
14, 80309, Note_on_c, 10, 71, 0
14, 80310, Note_on_c, 10, 73, 115
14, 80339, Note_on_c, 10, 73, 0
14, 80340, Note_on_c, 10, 74, 115
14, 80369, Note_on_c, 10, 74, 0
14, 80370, Note_on_c, 10, 71, 115
14, 80399, Note_on_c, 10, 71, 0
14, 80400, Note_on_c, 10, 73, 115
14, 80429, Note_on_c, 10, 73, 0
14, 80430, Note_on_c, 10, 71, 115
14, 80459, Note_on_c, 10, 71, 0
14, 80460, Note_on_c, 10, 69, 115
14, 80489, Note_on_c, 10, 69, 0
14, 80490, Note_on_c, 10, 68, 115
14, 80519, Note_on_c, 10, 68, 0
14, 80520, Note_on_c, 10, 69, 115
14, 80549, Note_on_c, 10, 69, 0
14, 80550, Note_on_c, 10, 71, 115
14, 80579, Note_on_c, 10, 71, 0
14, 80580, Note_on_c, 10, 64, 115
14, 81000, Note_on_c, 10, 64, 0
14, 81180, Note_on_c, 10, 73, 115
14, 81239, Note_on_c, 10, 73, 0
14, 81240, Note_on_c, 10, 71, 115
14, 81299, Note_on_c, 10, 71, 0
14, 81300, Note_on_c, 10, 69, 115
14, 81329, Note_on_c, 10, 69, 0
14, 81330, Note_on_c, 10, 68, 115
14, 81359, Note_on_c, 10, 68, 0
14, 81360, Note_on_c, 10, 66, 115
14, 81419, Note_on_c, 10, 66, 0
14, 81480, Note_on_c, 10, 66, 115
14, 81509, Note_on_c, 10, 66, 0
14, 81510, Note_on_c, 10, 68, 115
14, 81539, Note_on_c, 10, 68, 0
14, 81540, Note_on_c, 10, 68, 115
14, 81569, Note_on_c, 10, 68, 0
14, 81570, Note_on_c, 10, 70, 115
14, 81599, Note_on_c, 10, 70, 0
14, 81600, Note_on_c, 10, 70, 115
14, 81629, Note_on_c, 10, 70, 0
14, 81630, Note_on_c, 10, 71, 115
14, 81659, Note_on_c, 10, 71, 0
14, 81660, Note_on_c, 10, 71, 115
14, 81674, Note_on_c, 10, 71, 0
14, 81675, Note_on_c, 10, 73, 115
14, 81689, Note_on_c, 10, 73, 0
14, 81690, Note_on_c, 10, 74, 115
14, 81719, Note_on_c, 10, 74, 0
14, 81720, Note_on_c, 10, 74, 115
14, 81749, Note_on_c, 10, 74, 0
14, 81750, Note_on_c, 10, 73, 115
14, 81779, Note_on_c, 10, 73, 0
14, 81780, Note_on_c, 10, 71, 115
14, 81809, Note_on_c, 10, 71, 0
14, 81810, Note_on_c, 10, 69, 115
14, 81839, Note_on_c, 10, 69, 0
14, 81840, Note_on_c, 10, 68, 115
14, 81899, Note_on_c, 10, 68, 0
14, 81900, Note_on_c, 10, 71, 115
14, 81959, Note_on_c, 10, 71, 0
14, 81960, Note_on_c, 10, 69, 115
14, 82019, Note_on_c, 10, 69, 0
14, 82020, Note_on_c, 10, 68, 115
14, 82049, Note_on_c, 10, 68, 0
14, 82050, Note_on_c, 10, 66, 115
14, 82079, Note_on_c, 10, 66, 0
14, 82080, Note_on_c, 10, 64, 115
14, 82139, Note_on_c, 10, 64, 0
14, 82260, Note_on_c, 10, 69, 115
14, 82289, Note_on_c, 10, 69, 0
14, 82290, Note_on_c, 10, 71, 115
14, 82319, Note_on_c, 10, 71, 0
14, 82320, Note_on_c, 10, 71, 115
14, 82349, Note_on_c, 10, 71, 0
14, 82350, Note_on_c, 10, 73, 115
14, 82379, Note_on_c, 10, 73, 0
14, 82380, Note_on_c, 10, 73, 115
14, 82394, Note_on_c, 10, 73, 0
14, 82395, Note_on_c, 10, 74, 115
14, 82409, Note_on_c, 10, 74, 0
14, 82410, Note_on_c, 10, 76, 115
14, 82439, Note_on_c, 10, 76, 0
14, 82440, Note_on_c, 10, 76, 115
14, 82469, Note_on_c, 10, 76, 0
14, 82470, Note_on_c, 10, 74, 115
14, 82499, Note_on_c, 10, 74, 0
14, 82500, Note_on_c, 10, 76, 115
14, 82529, Note_on_c, 10, 76, 0
14, 82530, Note_on_c, 10, 73, 115
14, 82559, Note_on_c, 10, 73, 0
14, 82560, Note_on_c, 10, 74, 115
14, 82619, Note_on_c, 10, 74, 0
14, 82620, Note_on_c, 10, 78, 115
14, 82679, Note_on_c, 10, 78, 0
14, 82680, Note_on_c, 10, 76, 115
14, 82739, Note_on_c, 10, 76, 0
14, 82740, Note_on_c, 10, 74, 115
14, 82769, Note_on_c, 10, 74, 0
14, 82770, Note_on_c, 10, 73, 115
14, 82799, Note_on_c, 10, 73, 0
14, 82800, Note_on_c, 10, 74, 115
14, 82859, Note_on_c, 10, 74, 0
14, 82920, Note_on_c, 10, 76, 115
14, 83039, Note_on_c, 10, 76, 0
14, 83040, Note_on_c, 10, 74, 115
14, 83099, Note_on_c, 10, 74, 0
14, 83100, Note_on_c, 10, 73, 115
14, 83129, Note_on_c, 10, 73, 0
14, 83130, Note_on_c, 10, 71, 115
14, 83159, Note_on_c, 10, 71, 0
14, 83160, Note_on_c, 10, 73, 115
14, 83219, Note_on_c, 10, 73, 0
14, 83400, Note_on_c, 10, 78, 115
14, 83489, Note_on_c, 10, 78, 0
14, 83490, Note_on_c, 10, 76, 115
14, 83519, Note_on_c, 10, 76, 0
14, 83520, Note_on_c, 10, 74, 115
14, 83549, Note_on_c, 10, 74, 0
14, 83550, Note_on_c, 10, 73, 115
14, 83579, Note_on_c, 10, 73, 0
14, 83580, Note_on_c, 10, 74, 115
14, 83609, Note_on_c, 10, 74, 0
14, 83610, Note_on_c, 10, 76, 115
14, 83639, Note_on_c, 10, 76, 0
14, 83640, Note_on_c, 10, 78, 115
14, 83699, Note_on_c, 10, 78, 0
14, 83700, Note_on_c, 10, 80, 115
14, 83729, Note_on_c, 10, 80, 0
14, 83730, Note_on_c, 10, 81, 115
14, 83759, Note_on_c, 10, 81, 0
14, 83760, Note_on_c, 10, 69, 115
14, 83789, Note_on_c, 10, 69, 0
14, 83790, Note_on_c, 10, 71, 115
14, 83819, Note_on_c, 10, 71, 0
14, 83820, Note_on_c, 10, 72, 115
14, 83879, Note_on_c, 10, 72, 0
14, 83880, Note_on_c, 10, 71, 115
14, 83999, Note_on_c, 10, 71, 0
14, 84000, Note_on_c, 10, 73, 115
14, 84014, Note_on_c, 10, 73, 0
14, 84015, Note_on_c, 10, 74, 115
14, 84029, Note_on_c, 10, 74, 0
14, 84030, Note_on_c, 10, 76, 115
14, 84089, Note_on_c, 10, 76, 0
14, 84090, Note_on_c, 10, 76, 115
14, 84119, Note_on_c, 10, 76, 0
14, 84120, Note_on_c, 10, 76, 115
14, 84149, Note_on_c, 10, 76, 0
14, 84150, Note_on_c, 10, 76, 115
14, 84179, Note_on_c, 10, 76, 0
14, 84180, Note_on_c, 10, 81, 115
14, 84194, Note_on_c, 10, 81, 0
14, 84195, Note_on_c, 10, 80, 115
14, 84209, Note_on_c, 10, 80, 0
14, 84210, Note_on_c, 10, 78, 115
14, 84239, Note_on_c, 10, 78, 0
14, 84240, Note_on_c, 10, 76, 115
14, 84329, Note_on_c, 10, 76, 0
14, 84330, Note_on_c, 10, 74, 115
14, 84359, Note_on_c, 10, 74, 0
14, 84360, Note_on_c, 10, 73, 115
14, 84374, Note_on_c, 10, 73, 0
14, 84375, Note_on_c, 10, 71, 115
14, 84389, Note_on_c, 10, 71, 0
14, 84390, Note_on_c, 10, 69, 115
14, 84419, Note_on_c, 10, 69, 0
14, 84420, Note_on_c, 10, 73, 115
14, 84449, Note_on_c, 10, 73, 0
14, 84480, Note_on_c, 10, 71, 115
14, 84489, Note_on_c, 10, 71, 0
14, 84490, Note_on_c, 10, 73, 115
14, 84499, Note_on_c, 10, 73, 0
14, 84500, Note_on_c, 10, 71, 115
14, 84509, Note_on_c, 10, 71, 0
14, 84510, Note_on_c, 10, 73, 115
14, 84517, Note_on_c, 10, 71, 115
14, 84518, Note_on_c, 10, 73, 0
14, 84525, Note_on_c, 10, 71, 0
14, 84525, Note_on_c, 10, 73, 115
14, 84532, Note_on_c, 10, 71, 115
14, 84533, Note_on_c, 10, 73, 0
14, 84540, Note_on_c, 10, 71, 0
14, 84540, Note_on_c, 10, 69, 115
14, 84569, Note_on_c, 10, 69, 0
14, 84570, Note_on_c, 10, 66, 115
14, 84599, Note_on_c, 10, 66, 0
14, 84600, Note_on_c, 10, 64, 115
14, 84629, Note_on_c, 10, 64, 0
14, 84630, Note_on_c, 10, 62, 115
14, 84659, Note_on_c, 10, 62, 0
14, 84660, Note_on_c, 10, 62, 115
14, 84689, Note_on_c, 10, 62, 0
14, 84690, Note_on_c, 10, 61, 115
14, 84719, Note_on_c, 10, 61, 0
14, 84720, Note_on_c, 10, 61, 115
14, 84779, Note_on_c, 10, 61, 0
14, 132660, Note_on_c, 10, 67, 90
14, 132779, Note_on_c, 10, 67, 0
14, 132780, Note_on_c, 10, 67, 90
14, 132899, Note_on_c, 10, 67, 0
14, 132900, Note_on_c, 10, 69, 90
14, 133019, Note_on_c, 10, 69, 0
14, 133020, Note_on_c, 10, 67, 90
14, 133139, Note_on_c, 10, 67, 0
14, 133140, Note_on_c, 10, 69, 90
14, 133199, Note_on_c, 10, 69, 0
14, 133200, Note_on_c, 10, 71, 90
14, 133259, Note_on_c, 10, 71, 0
14, 133260, Note_on_c, 10, 72, 90
14, 133379, Note_on_c, 10, 72, 0
14, 133380, Note_on_c, 10, 72, 90
14, 133499, Note_on_c, 10, 72, 0
14, 133500, Note_on_c, 10, 71, 90
14, 133619, Note_on_c, 10, 71, 0
14, 133620, Note_on_c, 10, 72, 90
14, 133859, Note_on_c, 10, 72, 0
14, 133860, Note_on_c, 10, 74, 90
14, 133979, Note_on_c, 10, 74, 0
14, 133980, Note_on_c, 10, 76, 90
14, 134099, Note_on_c, 10, 76, 0
14, 134100, Note_on_c, 10, 72, 90
14, 134339, Note_on_c, 10, 72, 0
14, 134340, Note_on_c, 10, 71, 90
14, 134399, Note_on_c, 10, 71, 0
14, 134400, Note_on_c, 10, 72, 90
14, 134459, Note_on_c, 10, 72, 0
14, 134460, Note_on_c, 10, 74, 90
14, 134579, Note_on_c, 10, 74, 0
14, 134580, Note_on_c, 10, 69, 90
14, 134819, Note_on_c, 10, 69, 0
14, 134820, Note_on_c, 10, 74, 90
14, 134939, Note_on_c, 10, 74, 0
14, 134940, Note_on_c, 10, 74, 90
14, 135059, Note_on_c, 10, 74, 0
14, 135060, Note_on_c, 10, 72, 90
14, 135179, Note_on_c, 10, 72, 0
14, 135180, Note_on_c, 10, 71, 90
14, 135239, Note_on_c, 10, 71, 0
14, 135240, Note_on_c, 10, 69, 90
14, 135299, Note_on_c, 10, 69, 0
14, 135300, Note_on_c, 10, 69, 90
14, 135539, Note_on_c, 10, 69, 0
14, 135540, Note_on_c, 10, 67, 90
14, 135779, Note_on_c, 10, 67, 0
14, 135780, Note_on_c, 10, 67, 90
14, 135899, Note_on_c, 10, 67, 0
14, 135900, Note_on_c, 10, 67, 90
14, 136019, Note_on_c, 10, 67, 0
14, 136020, Note_on_c, 10, 69, 90
14, 136139, Note_on_c, 10, 69, 0
14, 136140, Note_on_c, 10, 67, 90
14, 136259, Note_on_c, 10, 67, 0
14, 136260, Note_on_c, 10, 69, 90
14, 136319, Note_on_c, 10, 69, 0
14, 136320, Note_on_c, 10, 71, 90
14, 136379, Note_on_c, 10, 71, 0
14, 136380, Note_on_c, 10, 72, 90
14, 136499, Note_on_c, 10, 72, 0
14, 136500, Note_on_c, 10, 72, 90
14, 136619, Note_on_c, 10, 72, 0
14, 136620, Note_on_c, 10, 71, 90
14, 136739, Note_on_c, 10, 71, 0
14, 136740, Note_on_c, 10, 72, 90
14, 136979, Note_on_c, 10, 72, 0
14, 136980, Note_on_c, 10, 74, 90
14, 137099, Note_on_c, 10, 74, 0
14, 137100, Note_on_c, 10, 76, 90
14, 137219, Note_on_c, 10, 76, 0
14, 137220, Note_on_c, 10, 72, 90
14, 137459, Note_on_c, 10, 72, 0
14, 137460, Note_on_c, 10, 71, 90
14, 137519, Note_on_c, 10, 71, 0
14, 137520, Note_on_c, 10, 72, 90
14, 137579, Note_on_c, 10, 72, 0
14, 137580, Note_on_c, 10, 74, 90
14, 137699, Note_on_c, 10, 74, 0
14, 137700, Note_on_c, 10, 69, 90
14, 137939, Note_on_c, 10, 69, 0
14, 137940, Note_on_c, 10, 74, 90
14, 138059, Note_on_c, 10, 74, 0
14, 138060, Note_on_c, 10, 74, 90
14, 138179, Note_on_c, 10, 74, 0
14, 138180, Note_on_c, 10, 72, 90
14, 138299, Note_on_c, 10, 72, 0
14, 138300, Note_on_c, 10, 71, 90
14, 138359, Note_on_c, 10, 71, 0
14, 138360, Note_on_c, 10, 69, 90
14, 138419, Note_on_c, 10, 69, 0
14, 138420, Note_on_c, 10, 69, 90
14, 138659, Note_on_c, 10, 69, 0
14, 138660, Note_on_c, 10, 67, 90
14, 138899, Note_on_c, 10, 67, 0
14, 141900, Note_on_c, 10, 66, 90
14, 141959, Note_on_c, 10, 66, 0
14, 141960, Note_on_c, 10, 68, 90
14, 142019, Note_on_c, 10, 68, 0
14, 142020, Note_on_c, 10, 69, 90
14, 142139, Note_on_c, 10, 69, 0
14, 142140, Note_on_c, 10, 68, 90
14, 142259, Note_on_c, 10, 68, 0
14, 142260, Note_on_c, 10, 66, 90
14, 142379, Note_on_c, 10, 66, 0
14, 142380, Note_on_c, 10, 66, 90
14, 142439, Note_on_c, 10, 66, 0
14, 142440, Note_on_c, 10, 68, 90
14, 142499, Note_on_c, 10, 68, 0
14, 142500, Note_on_c, 10, 69, 90
14, 142619, Note_on_c, 10, 69, 0
14, 142620, Note_on_c, 10, 68, 90
14, 142739, Note_on_c, 10, 68, 0
14, 142740, Note_on_c, 10, 66, 90
14, 142859, Note_on_c, 10, 66, 0
14, 142860, Note_on_c, 10, 73, 90
14, 142979, Note_on_c, 10, 73, 0
14, 142980, Note_on_c, 10, 71, 90
14, 143099, Note_on_c, 10, 71, 0
14, 143100, Note_on_c, 10, 69, 90
14, 143219, Note_on_c, 10, 69, 0
14, 143220, Note_on_c, 10, 68, 90
14, 143339, Note_on_c, 10, 68, 0
14, 143340, Note_on_c, 10, 68, 90
14, 143459, Note_on_c, 10, 68, 0
14, 143460, Note_on_c, 10, 69, 90
14, 143579, Note_on_c, 10, 69, 0
14, 143580, Note_on_c, 10, 69, 90
14, 143699, Note_on_c, 10, 69, 0
14, 143700, Note_on_c, 10, 71, 90
14, 143819, Note_on_c, 10, 71, 0
14, 143820, Note_on_c, 10, 71, 90
14, 143939, Note_on_c, 10, 71, 0
14, 143940, Note_on_c, 10, 73, 90
14, 144059, Note_on_c, 10, 73, 0
14, 144060, Note_on_c, 10, 73, 90
14, 144179, Note_on_c, 10, 73, 0
14, 144180, Note_on_c, 10, 71, 90
14, 144299, Note_on_c, 10, 71, 0
14, 144300, Note_on_c, 10, 69, 90
14, 144419, Note_on_c, 10, 69, 0
14, 144420, Note_on_c, 10, 68, 90
14, 144659, Note_on_c, 10, 68, 0
14, 144660, Note_on_c, 10, 61, 90
14, 144779, Note_on_c, 10, 61, 0
14, 144780, Note_on_c, 10, 73, 90
14, 144899, Note_on_c, 10, 73, 0
14, 144900, Note_on_c, 10, 71, 90
14, 145019, Note_on_c, 10, 71, 0
14, 145020, Note_on_c, 10, 69, 90
14, 145079, Note_on_c, 10, 69, 0
14, 145080, Note_on_c, 10, 68, 90
14, 145139, Note_on_c, 10, 68, 0
14, 145140, Note_on_c, 10, 68, 90
14, 145259, Note_on_c, 10, 68, 0
14, 145260, Note_on_c, 10, 73, 90
14, 145379, Note_on_c, 10, 73, 0
14, 145380, Note_on_c, 10, 71, 90
14, 145499, Note_on_c, 10, 71, 0
14, 145500, Note_on_c, 10, 69, 90
14, 145619, Note_on_c, 10, 69, 0
14, 145620, Note_on_c, 10, 68, 90
14, 145739, Note_on_c, 10, 68, 0
14, 145740, Note_on_c, 10, 68, 90
14, 145859, Note_on_c, 10, 68, 0
14, 145860, Note_on_c, 10, 69, 90
14, 145979, Note_on_c, 10, 69, 0
14, 145980, Note_on_c, 10, 69, 90
14, 146099, Note_on_c, 10, 69, 0
14, 146100, Note_on_c, 10, 71, 90
14, 146219, Note_on_c, 10, 71, 0
14, 146220, Note_on_c, 10, 71, 90
14, 146339, Note_on_c, 10, 71, 0
14, 146340, Note_on_c, 10, 73, 90
14, 146459, Note_on_c, 10, 73, 0
14, 146460, Note_on_c, 10, 73, 90
14, 146579, Note_on_c, 10, 73, 0
14, 146580, Note_on_c, 10, 71, 90
14, 146699, Note_on_c, 10, 71, 0
14, 146700, Note_on_c, 10, 69, 90
14, 146759, Note_on_c, 10, 69, 0
14, 146760, Note_on_c, 10, 68, 90
14, 146819, Note_on_c, 10, 68, 0
14, 146820, Note_on_c, 10, 68, 90
14, 147059, Note_on_c, 10, 68, 0
14, 147060, Note_on_c, 10, 66, 90
14, 147179, Note_on_c, 10, 66, 0
14, 150900, Note_on_c, 10, 76, 100
14, 150935, Note_on_c, 10, 76, 0
14, 150960, Note_on_c, 10, 76, 100
14, 150995, Note_on_c, 10, 76, 0
14, 151020, Note_on_c, 10, 76, 100
14, 151055, Note_on_c, 10, 76, 0
14, 151080, Note_on_c, 10, 73, 100
14, 151115, Note_on_c, 10, 73, 0
14, 151140, Note_on_c, 10, 69, 83
14, 151170, Note_on_c, 10, 69, 0
14, 151170, Note_on_c, 10, 71, 83
14, 151200, Note_on_c, 10, 71, 0
14, 151200, Note_on_c, 10, 73, 83
14, 151230, Note_on_c, 10, 73, 0
14, 151230, Note_on_c, 10, 74, 83
14, 151260, Note_on_c, 10, 74, 0
14, 151260, Note_on_c, 10, 76, 83
14, 151320, Note_on_c, 10, 76, 0
14, 151320, Note_on_c, 10, 73, 83
14, 151350, Note_on_c, 10, 73, 0
14, 151350, Note_on_c, 10, 74, 83
14, 151380, Note_on_c, 10, 74, 0
14, 151380, Note_on_c, 10, 76, 83
14, 151410, Note_on_c, 10, 76, 0
14, 151410, Note_on_c, 10, 78, 83
14, 151440, Note_on_c, 10, 78, 0
14, 151440, Note_on_c, 10, 79, 83
14, 151500, Note_on_c, 10, 79, 0
14, 151500, Note_on_c, 10, 81, 83
14, 151530, Note_on_c, 10, 81, 0
14, 151530, Note_on_c, 10, 79, 83
14, 151560, Note_on_c, 10, 79, 0
14, 151560, Note_on_c, 10, 78, 83
14, 151590, Note_on_c, 10, 78, 0
14, 151590, Note_on_c, 10, 76, 83
14, 151620, Note_on_c, 10, 76, 0
14, 151620, Note_on_c, 10, 78, 83
14, 151650, Note_on_c, 10, 78, 0
14, 151650, Note_on_c, 10, 76, 83
14, 151680, Note_on_c, 10, 76, 0
14, 151680, Note_on_c, 10, 74, 83
14, 151710, Note_on_c, 10, 74, 0
14, 151710, Note_on_c, 10, 78, 83
14, 151740, Note_on_c, 10, 78, 0
14, 151740, Note_on_c, 10, 76, 83
14, 151770, Note_on_c, 10, 76, 0
14, 151770, Note_on_c, 10, 79, 83
14, 151800, Note_on_c, 10, 79, 0
14, 151800, Note_on_c, 10, 78, 83
14, 151830, Note_on_c, 10, 78, 0
14, 151830, Note_on_c, 10, 76, 83
14, 151860, Note_on_c, 10, 76, 0
14, 151860, Note_on_c, 10, 78, 83
14, 151890, Note_on_c, 10, 78, 0
14, 151890, Note_on_c, 10, 79, 83
14, 151920, Note_on_c, 10, 79, 0
14, 151920, Note_on_c, 10, 76, 83
14, 151950, Note_on_c, 10, 76, 0
14, 151950, Note_on_c, 10, 78, 83
14, 151980, Note_on_c, 10, 78, 0
14, 151980, Note_on_c, 10, 79, 83
14, 152040, Note_on_c, 10, 79, 0
14, 152040, Note_on_c, 10, 74, 83
14, 152100, Note_on_c, 10, 74, 0
14, 152100, Note_on_c, 10, 79, 83
14, 152160, Note_on_c, 10, 79, 0
14, 152160, Note_on_c, 10, 78, 83
14, 152190, Note_on_c, 10, 78, 0
14, 152190, Note_on_c, 10, 76, 83
14, 152220, Note_on_c, 10, 76, 0
14, 152220, Note_on_c, 10, 74, 83
14, 152250, Note_on_c, 10, 74, 0
14, 152250, Note_on_c, 10, 73, 83
14, 152280, Note_on_c, 10, 73, 0
14, 152280, Note_on_c, 10, 74, 83
14, 152310, Note_on_c, 10, 74, 0
14, 152310, Note_on_c, 10, 76, 83
14, 152340, Note_on_c, 10, 76, 0
14, 152340, Note_on_c, 10, 78, 83
14, 152370, Note_on_c, 10, 78, 0
14, 152370, Note_on_c, 10, 76, 83
14, 152400, Note_on_c, 10, 76, 0
14, 152400, Note_on_c, 10, 79, 83
14, 152430, Note_on_c, 10, 79, 0
14, 152430, Note_on_c, 10, 78, 83
14, 152460, Note_on_c, 10, 78, 0
14, 152460, Note_on_c, 10, 76, 83
14, 152490, Note_on_c, 10, 76, 0
14, 152490, Note_on_c, 10, 74, 83
14, 152520, Note_on_c, 10, 74, 0
14, 152520, Note_on_c, 10, 76, 83
14, 152550, Note_on_c, 10, 76, 0
14, 152550, Note_on_c, 10, 74, 83
14, 152580, Note_on_c, 10, 74, 0
14, 152580, Note_on_c, 10, 73, 83
14, 152610, Note_on_c, 10, 73, 0
14, 152610, Note_on_c, 10, 71, 83
14, 152640, Note_on_c, 10, 71, 0
14, 152640, Note_on_c, 10, 73, 83
14, 152670, Note_on_c, 10, 73, 0
14, 152670, Note_on_c, 10, 74, 83
14, 152700, Note_on_c, 10, 74, 0
14, 152700, Note_on_c, 10, 76, 83
14, 152730, Note_on_c, 10, 76, 0
14, 152730, Note_on_c, 10, 74, 83
14, 152760, Note_on_c, 10, 74, 0
14, 152760, Note_on_c, 10, 78, 83
14, 152790, Note_on_c, 10, 78, 0
14, 152790, Note_on_c, 10, 76, 83
14, 152820, Note_on_c, 10, 76, 0
14, 152820, Note_on_c, 10, 74, 83
14, 152850, Note_on_c, 10, 74, 0
14, 152850, Note_on_c, 10, 73, 83
14, 152880, Note_on_c, 10, 73, 0
14, 152880, Note_on_c, 10, 74, 83
14, 153000, Note_on_c, 10, 74, 0
14, 153000, Note_on_c, 10, 73, 83
14, 153060, Note_on_c, 10, 73, 0
14, 153060, Note_on_c, 10, 74, 100
14, 153120, Note_on_c, 10, 74, 0
14, 153120, Note_on_c, 10, 74, 83
14, 153180, Note_on_c, 10, 74, 0
14, 153180, Note_on_c, 10, 74, 83
14, 153240, Note_on_c, 10, 74, 0
14, 153240, Note_on_c, 10, 74, 100
14, 153300, Note_on_c, 10, 74, 0
14, 153300, Note_on_c, 10, 71, 83
14, 153330, Note_on_c, 10, 71, 0
14, 153330, Note_on_c, 10, 73, 83
14, 153360, Note_on_c, 10, 73, 0
14, 153360, Note_on_c, 10, 74, 83
14, 153390, Note_on_c, 10, 74, 0
14, 153390, Note_on_c, 10, 71, 83
14, 153420, Note_on_c, 10, 71, 0
14, 153420, Note_on_c, 10, 76, 100
14, 153450, Note_on_c, 10, 76, 0
14, 153450, Note_on_c, 10, 75, 83
14, 153480, Note_on_c, 10, 75, 0
14, 153480, Note_on_c, 10, 76, 83
14, 153540, Note_on_c, 10, 76, 0
14, 153540, Note_on_c, 10, 78, 83
14, 153600, Note_on_c, 10, 78, 0
14, 153600, Note_on_c, 10, 78, 100
14, 153660, Note_on_c, 10, 78, 0
14, 153660, Note_on_c, 10, 76, 83
14, 153720, Note_on_c, 10, 76, 0
14, 153720, Note_on_c, 10, 75, 83
14, 153780, Note_on_c, 10, 75, 0
14, 153780, Note_on_c, 10, 76, 100
14, 153840, Note_on_c, 10, 76, 0
14, 153840, Note_on_c, 10, 76, 83
14, 153900, Note_on_c, 10, 76, 0
14, 153900, Note_on_c, 10, 76, 83
14, 153960, Note_on_c, 10, 76, 0
14, 153960, Note_on_c, 10, 76, 100
14, 154020, Note_on_c, 10, 76, 0
14, 154020, Note_on_c, 10, 69, 83
14, 154080, Note_on_c, 10, 69, 0
14, 154080, Note_on_c, 10, 74, 83
14, 154140, Note_on_c, 10, 74, 0
14, 154140, Note_on_c, 10, 73, 100
14, 154200, Note_on_c, 10, 73, 0
14, 154200, Note_on_c, 10, 78, 83
14, 154230, Note_on_c, 10, 78, 0
14, 154230, Note_on_c, 10, 76, 83
14, 154260, Note_on_c, 10, 76, 0
14, 154260, Note_on_c, 10, 74, 83
14, 154290, Note_on_c, 10, 74, 0
14, 154290, Note_on_c, 10, 73, 83
14, 154320, Note_on_c, 10, 73, 0
14, 154320, Note_on_c, 10, 74, 100
14, 154380, Note_on_c, 10, 74, 0
14, 154380, Note_on_c, 10, 69, 83
14, 154440, Note_on_c, 10, 69, 0
14, 154440, Note_on_c, 10, 73, 83
14, 154475, Note_on_c, 10, 73, 0
14, 154500, Note_on_c, 10, 74, 100
14, 154560, Note_on_c, 10, 74, 0
14, 154560, Note_on_c, 10, 71, 83
14, 154620, Note_on_c, 10, 71, 0
14, 154620, Note_on_c, 10, 73, 83
14, 154680, Note_on_c, 10, 73, 0
14, 154680, Note_on_c, 10, 74, 100
14, 154740, Note_on_c, 10, 74, 0
14, 154740, Note_on_c, 10, 71, 83
14, 154800, Note_on_c, 10, 71, 0
14, 154800, Note_on_c, 10, 73, 83
14, 154860, Note_on_c, 10, 73, 0
14, 154860, Note_on_c, 10, 78, 83
14, 154920, Note_on_c, 10, 78, 0
14, 154920, Note_on_c, 10, 71, 100
14, 154950, Note_on_c, 10, 71, 0
14, 154950, Note_on_c, 10, 73, 83
14, 154980, Note_on_c, 10, 73, 0
14, 154980, Note_on_c, 10, 74, 83
14, 155040, Note_on_c, 10, 74, 0
14, 155040, Note_on_c, 10, 73, 83
14, 155160, Note_on_c, 10, 73, 0
14, 155340, Note_on_c, 10, 69, 83
14, 155400, Note_on_c, 10, 69, 0
14, 155400, Note_on_c, 10, 81, 100
14, 155640, Note_on_c, 10, 81, 0
14, 155640, Note_on_c, 10, 76, 83
14, 155700, Note_on_c, 10, 76, 0
14, 155700, Note_on_c, 10, 74, 83
14, 155760, Note_on_c, 10, 74, 0
14, 155760, Note_on_c, 10, 73, 83
14, 155940, Note_on_c, 10, 73, 0
14, 159540, Note_on_c, 10, 66, 100
14, 159600, Note_on_c, 10, 66, 0
14, 159600, Note_on_c, 10, 62, 100
14, 159630, Note_on_c, 10, 62, 0
14, 159630, Note_on_c, 10, 64, 100
14, 159660, Note_on_c, 10, 64, 0
14, 159660, Note_on_c, 10, 66, 100
14, 159690, Note_on_c, 10, 66, 0
14, 159690, Note_on_c, 10, 67, 100
14, 159720, Note_on_c, 10, 67, 0
14, 159720, Note_on_c, 10, 69, 100
14, 159780, Note_on_c, 10, 69, 0
14, 159780, Note_on_c, 10, 74, 83
14, 159840, Note_on_c, 10, 74, 0
14, 159840, Note_on_c, 10, 69, 83
14, 159900, Note_on_c, 10, 69, 0
14, 159900, Note_on_c, 10, 71, 83
14, 159930, Note_on_c, 10, 71, 0
14, 159930, Note_on_c, 10, 69, 83
14, 159960, Note_on_c, 10, 69, 0
14, 159960, Note_on_c, 10, 71, 83
14, 159990, Note_on_c, 10, 71, 0
14, 159990, Note_on_c, 10, 73, 83
14, 160020, Note_on_c, 10, 73, 0
14, 160020, Note_on_c, 10, 74, 83
14, 160050, Note_on_c, 10, 74, 0
14, 160050, Note_on_c, 10, 76, 83
14, 160080, Note_on_c, 10, 76, 0
14, 160080, Note_on_c, 10, 78, 83
14, 160140, Note_on_c, 10, 78, 0
14, 160140, Note_on_c, 10, 79, 83
14, 160170, Note_on_c, 10, 79, 0
14, 160170, Note_on_c, 10, 78, 83
14, 160200, Note_on_c, 10, 78, 0
14, 160200, Note_on_c, 10, 76, 83
14, 160230, Note_on_c, 10, 76, 0
14, 160230, Note_on_c, 10, 74, 83
14, 160260, Note_on_c, 10, 74, 0
14, 160260, Note_on_c, 10, 73, 83
14, 160290, Note_on_c, 10, 73, 0
14, 160290, Note_on_c, 10, 71, 83
14, 160320, Note_on_c, 10, 71, 0
14, 160320, Note_on_c, 10, 69, 83
14, 160350, Note_on_c, 10, 69, 0
14, 160350, Note_on_c, 10, 73, 83
14, 160380, Note_on_c, 10, 73, 0
14, 160380, Note_on_c, 10, 71, 83
14, 160410, Note_on_c, 10, 71, 0
14, 160410, Note_on_c, 10, 74, 83
14, 160440, Note_on_c, 10, 74, 0
14, 160440, Note_on_c, 10, 73, 83
14, 160470, Note_on_c, 10, 73, 0
14, 160470, Note_on_c, 10, 71, 83
14, 160500, Note_on_c, 10, 71, 0
14, 160500, Note_on_c, 10, 73, 83
14, 160530, Note_on_c, 10, 73, 0
14, 160530, Note_on_c, 10, 76, 83
14, 160560, Note_on_c, 10, 76, 0
14, 160560, Note_on_c, 10, 74, 83
14, 160590, Note_on_c, 10, 74, 0
14, 160590, Note_on_c, 10, 78, 83
14, 160620, Note_on_c, 10, 78, 0
14, 160620, Note_on_c, 10, 76, 83
14, 160650, Note_on_c, 10, 76, 0
14, 160650, Note_on_c, 10, 74, 83
14, 160680, Note_on_c, 10, 74, 0
14, 160680, Note_on_c, 10, 78, 83
14, 160710, Note_on_c, 10, 78, 0
14, 160710, Note_on_c, 10, 76, 83
14, 160740, Note_on_c, 10, 76, 0
14, 160740, Note_on_c, 10, 74, 83
14, 160770, Note_on_c, 10, 74, 0
14, 160770, Note_on_c, 10, 73, 83
14, 160800, Note_on_c, 10, 73, 0
14, 160800, Note_on_c, 10, 74, 83
14, 160860, Note_on_c, 10, 74, 0
14, 160860, Note_on_c, 10, 73, 83
14, 160890, Note_on_c, 10, 73, 0
14, 160890, Note_on_c, 10, 71, 83
14, 160920, Note_on_c, 10, 71, 0
14, 160920, Note_on_c, 10, 69, 83
14, 160950, Note_on_c, 10, 69, 0
14, 160950, Note_on_c, 10, 67, 83
14, 160980, Note_on_c, 10, 67, 0
14, 160980, Note_on_c, 10, 66, 83
14, 161010, Note_on_c, 10, 66, 0
14, 161010, Note_on_c, 10, 64, 83
14, 161040, Note_on_c, 10, 64, 0
14, 161040, Note_on_c, 10, 67, 83
14, 161070, Note_on_c, 10, 67, 0
14, 161070, Note_on_c, 10, 66, 83
14, 161100, Note_on_c, 10, 66, 0
14, 161100, Note_on_c, 10, 64, 83
14, 161130, Note_on_c, 10, 64, 0
14, 161130, Note_on_c, 10, 62, 83
14, 161160, Note_on_c, 10, 62, 0
14, 161160, Note_on_c, 10, 71, 83
14, 161190, Note_on_c, 10, 71, 0
14, 161190, Note_on_c, 10, 69, 83
14, 161220, Note_on_c, 10, 69, 0
14, 161220, Note_on_c, 10, 68, 83
14, 161250, Note_on_c, 10, 68, 0
14, 161250, Note_on_c, 10, 69, 83
14, 161280, Note_on_c, 10, 69, 0
14, 161280, Note_on_c, 10, 71, 83
14, 161310, Note_on_c, 10, 71, 0
14, 161310, Note_on_c, 10, 73, 83
14, 161340, Note_on_c, 10, 73, 0
14, 161340, Note_on_c, 10, 74, 83
14, 161370, Note_on_c, 10, 74, 0
14, 161370, Note_on_c, 10, 73, 83
14, 161400, Note_on_c, 10, 73, 0
14, 161400, Note_on_c, 10, 76, 83
14, 161430, Note_on_c, 10, 76, 0
14, 161430, Note_on_c, 10, 74, 83
14, 161460, Note_on_c, 10, 74, 0
14, 161460, Note_on_c, 10, 73, 83
14, 161490, Note_on_c, 10, 73, 0
14, 161490, Note_on_c, 10, 71, 83
14, 161520, Note_on_c, 10, 71, 0
14, 161520, Note_on_c, 10, 73, 83
14, 161550, Note_on_c, 10, 73, 0
14, 161550, Note_on_c, 10, 71, 83
14, 161580, Note_on_c, 10, 71, 0
14, 161580, Note_on_c, 10, 69, 83
14, 161640, Note_on_c, 10, 69, 0
14, 161640, Note_on_c, 10, 71, 83
14, 161700, Note_on_c, 10, 71, 0
14, 161700, Note_on_c, 10, 73, 100
14, 161760, Note_on_c, 10, 73, 0
14, 161760, Note_on_c, 10, 73, 83
14, 161820, Note_on_c, 10, 73, 0
14, 161820, Note_on_c, 10, 73, 83
14, 161880, Note_on_c, 10, 73, 0
14, 161880, Note_on_c, 10, 73, 100
14, 161940, Note_on_c, 10, 73, 0
14, 161940, Note_on_c, 10, 76, 83
14, 161970, Note_on_c, 10, 76, 0
14, 161970, Note_on_c, 10, 74, 83
14, 162000, Note_on_c, 10, 74, 0
14, 162000, Note_on_c, 10, 73, 83
14, 162030, Note_on_c, 10, 73, 0
14, 162030, Note_on_c, 10, 71, 83
14, 162060, Note_on_c, 10, 71, 0
14, 162060, Note_on_c, 10, 69, 100
14, 162120, Note_on_c, 10, 69, 0
14, 162120, Note_on_c, 10, 74, 83
14, 162180, Note_on_c, 10, 74, 0
14, 162180, Note_on_c, 10, 76, 83
14, 162240, Note_on_c, 10, 76, 0
14, 162240, Note_on_c, 10, 78, 100
14, 162300, Note_on_c, 10, 78, 0
14, 162300, Note_on_c, 10, 76, 83
14, 162330, Note_on_c, 10, 76, 0
14, 162330, Note_on_c, 10, 78, 83
14, 162360, Note_on_c, 10, 78, 0
14, 162360, Note_on_c, 10, 79, 83
14, 162420, Note_on_c, 10, 79, 0
14, 162420, Note_on_c, 10, 78, 100
14, 162480, Note_on_c, 10, 78, 0
14, 162480, Note_on_c, 10, 74, 83
14, 162540, Note_on_c, 10, 74, 0
14, 162540, Note_on_c, 10, 74, 83
14, 162600, Note_on_c, 10, 74, 0
14, 162600, Note_on_c, 10, 74, 100
14, 162660, Note_on_c, 10, 74, 0
14, 162660, Note_on_c, 10, 78, 83
14, 162720, Note_on_c, 10, 78, 0
14, 162720, Note_on_c, 10, 74, 83
14, 162780, Note_on_c, 10, 74, 0
14, 162780, Note_on_c, 10, 74, 100
14, 162840, Note_on_c, 10, 74, 0
14, 162840, Note_on_c, 10, 71, 83
14, 162900, Note_on_c, 10, 71, 0
14, 162900, Note_on_c, 10, 72, 83
14, 162960, Note_on_c, 10, 72, 0
14, 162960, Note_on_c, 10, 74, 100
14, 163020, Note_on_c, 10, 74, 0
14, 163020, Note_on_c, 10, 72, 83
14, 163050, Note_on_c, 10, 72, 0
14, 163050, Note_on_c, 10, 71, 83
14, 163080, Note_on_c, 10, 71, 0
14, 163080, Note_on_c, 10, 69, 83
14, 163140, Note_on_c, 10, 69, 0
14, 163140, Note_on_c, 10, 67, 100
14, 163200, Note_on_c, 10, 67, 0
14, 163200, Note_on_c, 10, 76, 83
14, 163260, Note_on_c, 10, 76, 0
14, 163260, Note_on_c, 10, 71, 83
14, 163320, Note_on_c, 10, 71, 0
14, 163320, Note_on_c, 10, 73, 83
14, 163380, Note_on_c, 10, 73, 0
14, 163380, Note_on_c, 10, 74, 83
14, 163410, Note_on_c, 10, 74, 0
14, 163410, Note_on_c, 10, 73, 83
14, 163440, Note_on_c, 10, 73, 0
14, 163440, Note_on_c, 10, 74, 100
14, 163500, Note_on_c, 10, 74, 0
14, 163500, Note_on_c, 10, 74, 83
14, 163560, Note_on_c, 10, 74, 0
14, 163560, Note_on_c, 10, 76, 83
14, 163620, Note_on_c, 10, 76, 0
14, 163620, Note_on_c, 10, 73, 83
14, 163680, Note_on_c, 10, 73, 0
14, 163680, Note_on_c, 10, 74, 83
14, 163800, Note_on_c, 10, 74, 0
14, 163800, Note_on_c, 10, 69, 100
14, 163860, Note_on_c, 10, 69, 0
14, 163860, Note_on_c, 10, 74, 100
14, 164280, Note_on_c, 10, 74, 0
14, 164280, Note_on_c, 10, 74, 83
14, 164340, Note_on_c, 10, 74, 0
14, 164340, Note_on_c, 10, 74, 83
14, 164400, Note_on_c, 10, 74, 0
14, 164400, Note_on_c, 10, 74, 83
14, 164580, Note_on_c, 10, 74, 0
14, 164580, End_track
15, 0, Start_track
15, 0, MIDI_port, 0
15, 0, Title_t, "alto"
15, 0, Program_c, 11, 52
15, 0, Control_c, 11, 7, 127
15, 0, Control_c, 11, 10, 89
15, 4320, Note_on_c, 11, 69, 100
15, 4380, Note_on_c, 11, 69, 0
15, 4380, Note_on_c, 11, 66, 100
15, 4440, Note_on_c, 11, 66, 0
15, 4440, Note_on_c, 11, 67, 100
15, 4500, Note_on_c, 11, 67, 0
15, 4500, Note_on_c, 11, 69, 100
15, 4560, Note_on_c, 11, 69, 0
15, 4560, Note_on_c, 11, 74, 83
15, 4620, Note_on_c, 11, 74, 0
15, 4620, Note_on_c, 11, 69, 83
15, 4680, Note_on_c, 11, 69, 0
15, 4680, Note_on_c, 11, 71, 83
15, 4740, Note_on_c, 11, 71, 0
15, 4740, Note_on_c, 11, 72, 83
15, 4770, Note_on_c, 11, 72, 0
15, 4770, Note_on_c, 11, 71, 83
15, 4800, Note_on_c, 11, 71, 0
15, 4800, Note_on_c, 11, 69, 83
15, 4830, Note_on_c, 11, 69, 0
15, 4830, Note_on_c, 11, 67, 83
15, 4860, Note_on_c, 11, 67, 0
15, 4860, Note_on_c, 11, 69, 83
15, 4920, Note_on_c, 11, 69, 0
15, 4920, Note_on_c, 11, 66, 83
15, 4950, Note_on_c, 11, 66, 0
15, 4950, Note_on_c, 11, 64, 83
15, 4980, Note_on_c, 11, 64, 0
15, 4980, Note_on_c, 11, 66, 83
15, 5010, Note_on_c, 11, 66, 0
15, 5010, Note_on_c, 11, 67, 83
15, 5040, Note_on_c, 11, 67, 0
15, 5040, Note_on_c, 11, 69, 83
15, 5070, Note_on_c, 11, 69, 0
15, 5070, Note_on_c, 11, 67, 83
15, 5100, Note_on_c, 11, 67, 0
15, 5100, Note_on_c, 11, 71, 83
15, 5130, Note_on_c, 11, 71, 0
15, 5130, Note_on_c, 11, 69, 83
15, 5160, Note_on_c, 11, 69, 0
15, 5160, Note_on_c, 11, 67, 83
15, 5190, Note_on_c, 11, 67, 0
15, 5190, Note_on_c, 11, 66, 83
15, 5220, Note_on_c, 11, 66, 0
15, 5220, Note_on_c, 11, 67, 83
15, 5250, Note_on_c, 11, 67, 0
15, 5250, Note_on_c, 11, 66, 83
15, 5280, Note_on_c, 11, 66, 0
15, 5280, Note_on_c, 11, 64, 83
15, 5310, Note_on_c, 11, 64, 0
15, 5310, Note_on_c, 11, 62, 83
15, 5340, Note_on_c, 11, 62, 0
15, 5340, Note_on_c, 11, 64, 83
15, 5370, Note_on_c, 11, 64, 0
15, 5370, Note_on_c, 11, 66, 83
15, 5400, Note_on_c, 11, 66, 0
15, 5400, Note_on_c, 11, 67, 83
15, 5430, Note_on_c, 11, 67, 0
15, 5430, Note_on_c, 11, 66, 83
15, 5460, Note_on_c, 11, 66, 0
15, 5460, Note_on_c, 11, 69, 83
15, 5490, Note_on_c, 11, 69, 0
15, 5490, Note_on_c, 11, 67, 83
15, 5520, Note_on_c, 11, 67, 0
15, 5520, Note_on_c, 11, 66, 83
15, 5550, Note_on_c, 11, 66, 0
15, 5550, Note_on_c, 11, 64, 83
15, 5580, Note_on_c, 11, 64, 0
15, 5580, Note_on_c, 11, 66, 83
15, 5610, Note_on_c, 11, 66, 0
15, 5610, Note_on_c, 11, 64, 83
15, 5640, Note_on_c, 11, 64, 0
15, 5640, Note_on_c, 11, 62, 83
15, 5670, Note_on_c, 11, 62, 0
15, 5670, Note_on_c, 11, 66, 83
15, 5700, Note_on_c, 11, 66, 0
15, 5700, Note_on_c, 11, 64, 83
15, 5730, Note_on_c, 11, 64, 0
15, 5730, Note_on_c, 11, 67, 83
15, 5760, Note_on_c, 11, 67, 0
15, 5760, Note_on_c, 11, 66, 100
15, 5820, Note_on_c, 11, 66, 0
15, 5820, Note_on_c, 11, 66, 83
15, 5850, Note_on_c, 11, 66, 0
15, 5850, Note_on_c, 11, 66, 83
15, 5880, Note_on_c, 11, 66, 0
15, 5880, Note_on_c, 11, 66, 83
15, 5940, Note_on_c, 11, 66, 0
15, 5940, Note_on_c, 11, 66, 100
15, 6000, Note_on_c, 11, 66, 0
15, 6000, Note_on_c, 11, 62, 83
15, 6030, Note_on_c, 11, 62, 0
15, 6030, Note_on_c, 11, 64, 83
15, 6060, Note_on_c, 11, 64, 0
15, 6060, Note_on_c, 11, 66, 83
15, 6090, Note_on_c, 11, 66, 0
15, 6090, Note_on_c, 11, 67, 83
15, 6120, Note_on_c, 11, 67, 0
15, 6120, Note_on_c, 11, 69, 100
15, 6180, Note_on_c, 11, 69, 0
15, 6180, Note_on_c, 11, 67, 83
15, 6240, Note_on_c, 11, 67, 0
15, 6240, Note_on_c, 11, 66, 83
15, 6300, Note_on_c, 11, 66, 0
15, 6300, Note_on_c, 11, 67, 100
15, 6390, Note_on_c, 11, 67, 0
15, 6390, Note_on_c, 11, 69, 83
15, 6405, Note_on_c, 11, 69, 0
15, 6405, Note_on_c, 11, 71, 83
15, 6420, Note_on_c, 11, 71, 0
15, 6420, Note_on_c, 11, 69, 83
15, 6480, Note_on_c, 11, 69, 0
15, 6480, Note_on_c, 11, 67, 100
15, 6540, Note_on_c, 11, 67, 0
15, 6540, Note_on_c, 11, 67, 83
15, 6600, Note_on_c, 11, 67, 0
15, 6600, Note_on_c, 11, 67, 83
15, 6660, Note_on_c, 11, 67, 0
15, 6660, Note_on_c, 11, 67, 100
15, 6720, Note_on_c, 11, 67, 0
15, 6720, Note_on_c, 11, 64, 83
15, 6750, Note_on_c, 11, 64, 0
15, 6750, Note_on_c, 11, 62, 83
15, 6780, Note_on_c, 11, 62, 0
15, 6780, Note_on_c, 11, 64, 83
15, 6810, Note_on_c, 11, 64, 0
15, 6810, Note_on_c, 11, 66, 83
15, 6840, Note_on_c, 11, 66, 0
15, 6840, Note_on_c, 11, 67, 100
15, 6870, Note_on_c, 11, 67, 0
15, 6870, Note_on_c, 11, 66, 83
15, 6900, Note_on_c, 11, 66, 0
15, 6900, Note_on_c, 11, 69, 83
15, 6930, Note_on_c, 11, 69, 0
15, 6930, Note_on_c, 11, 67, 83
15, 6960, Note_on_c, 11, 67, 0
15, 6960, Note_on_c, 11, 66, 83
15, 6990, Note_on_c, 11, 66, 0
15, 6990, Note_on_c, 11, 64, 83
15, 7020, Note_on_c, 11, 64, 0
15, 7020, Note_on_c, 11, 66, 100
15, 7110, Note_on_c, 11, 66, 0
15, 7110, Note_on_c, 11, 67, 83
15, 7125, Note_on_c, 11, 67, 0
15, 7125, Note_on_c, 11, 69, 83
15, 7140, Note_on_c, 11, 69, 0
15, 7140, Note_on_c, 11, 67, 83
15, 7175, Note_on_c, 11, 67, 0
15, 7200, Note_on_c, 11, 66, 100
15, 7260, Note_on_c, 11, 66, 0
15, 7260, Note_on_c, 11, 68, 83
15, 7320, Note_on_c, 11, 68, 0
15, 7320, Note_on_c, 11, 69, 83
15, 7380, Note_on_c, 11, 69, 0
15, 7380, Note_on_c, 11, 71, 100
15, 7410, Note_on_c, 11, 71, 0
15, 7410, Note_on_c, 11, 73, 83
15, 7440, Note_on_c, 11, 73, 0
15, 7440, Note_on_c, 11, 74, 83
15, 7500, Note_on_c, 11, 74, 0
15, 7500, Note_on_c, 11, 73, 83
15, 7560, Note_on_c, 11, 73, 0
15, 7560, Note_on_c, 11, 71, 83
15, 7620, Note_on_c, 11, 71, 0
15, 7620, Note_on_c, 11, 69, 100
15, 7680, Note_on_c, 11, 69, 0
15, 7680, Note_on_c, 11, 68, 83
15, 7740, Note_on_c, 11, 68, 0
15, 7740, Note_on_c, 11, 69, 83
15, 7860, Note_on_c, 11, 69, 0
15, 7860, Note_on_c, 11, 64, 83
15, 7920, Note_on_c, 11, 64, 0
15, 7920, Note_on_c, 11, 69, 100
15, 8160, Note_on_c, 11, 69, 0
15, 8160, Note_on_c, 11, 64, 83
15, 8190, Note_on_c, 11, 64, 0
15, 8190, Note_on_c, 11, 62, 83
15, 8220, Note_on_c, 11, 62, 0
15, 8220, Note_on_c, 11, 64, 83
15, 8250, Note_on_c, 11, 64, 0
15, 8250, Note_on_c, 11, 66, 83
15, 8280, Note_on_c, 11, 66, 0
15, 8280, Note_on_c, 11, 67, 83
15, 8400, Note_on_c, 11, 67, 0
15, 8400, Note_on_c, 11, 66, 83
15, 8460, Note_on_c, 11, 66, 0
15, 8460, Note_on_c, 11, 64, 83
15, 8640, Note_on_c, 11, 64, 0
15, 12960, Note_on_c, 11, 64, 100
15, 13020, Note_on_c, 11, 64, 0
15, 13020, Note_on_c, 11, 61, 100
15, 13080, Note_on_c, 11, 61, 0
15, 13080, Note_on_c, 11, 62, 100
15, 13140, Note_on_c, 11, 62, 0
15, 13140, Note_on_c, 11, 64, 100
15, 13200, Note_on_c, 11, 64, 0
15, 13200, Note_on_c, 11, 67, 83
15, 13260, Note_on_c, 11, 67, 0
15, 13260, Note_on_c, 11, 66, 83
15, 13320, Note_on_c, 11, 66, 0
15, 13320, Note_on_c, 11, 67, 83
15, 13380, Note_on_c, 11, 67, 0
15, 13380, Note_on_c, 11, 69, 83
15, 13410, Note_on_c, 11, 69, 0
15, 13410, Note_on_c, 11, 67, 83
15, 13440, Note_on_c, 11, 67, 0
15, 13440, Note_on_c, 11, 66, 83
15, 13470, Note_on_c, 11, 66, 0
15, 13470, Note_on_c, 11, 64, 83
15, 13500, Note_on_c, 11, 64, 0
15, 13500, Note_on_c, 11, 66, 83
15, 13530, Note_on_c, 11, 66, 0
15, 13530, Note_on_c, 11, 64, 83
15, 13560, Note_on_c, 11, 64, 0
15, 13560, Note_on_c, 11, 62, 83
15, 13590, Note_on_c, 11, 62, 0
15, 13590, Note_on_c, 11, 64, 83
15, 13620, Note_on_c, 11, 64, 0
15, 13620, Note_on_c, 11, 66, 83
15, 13650, Note_on_c, 11, 66, 0
15, 13650, Note_on_c, 11, 67, 83
15, 13680, Note_on_c, 11, 67, 0
15, 13680, Note_on_c, 11, 69, 83
15, 13710, Note_on_c, 11, 69, 0
15, 13710, Note_on_c, 11, 67, 83
15, 13740, Note_on_c, 11, 67, 0
15, 13740, Note_on_c, 11, 71, 83
15, 13770, Note_on_c, 11, 71, 0
15, 13770, Note_on_c, 11, 69, 83
15, 13800, Note_on_c, 11, 69, 0
15, 13800, Note_on_c, 11, 67, 83
15, 13830, Note_on_c, 11, 67, 0
15, 13830, Note_on_c, 11, 66, 83
15, 13860, Note_on_c, 11, 66, 0
15, 13860, Note_on_c, 11, 68, 83
15, 13890, Note_on_c, 11, 68, 0
15, 13890, Note_on_c, 11, 66, 83
15, 13920, Note_on_c, 11, 66, 0
15, 13920, Note_on_c, 11, 64, 83
15, 13950, Note_on_c, 11, 64, 0
15, 13950, Note_on_c, 11, 66, 83
15, 13980, Note_on_c, 11, 66, 0
15, 13980, Note_on_c, 11, 68, 83
15, 14010, Note_on_c, 11, 68, 0
15, 14010, Note_on_c, 11, 69, 83
15, 14040, Note_on_c, 11, 69, 0
15, 14040, Note_on_c, 11, 71, 83
15, 14070, Note_on_c, 11, 71, 0
15, 14070, Note_on_c, 11, 69, 83
15, 14100, Note_on_c, 11, 69, 0
15, 14100, Note_on_c, 11, 73, 83
15, 14130, Note_on_c, 11, 73, 0
15, 14130, Note_on_c, 11, 71, 83
15, 14160, Note_on_c, 11, 71, 0
15, 14160, Note_on_c, 11, 69, 83
15, 14190, Note_on_c, 11, 69, 0
15, 14190, Note_on_c, 11, 68, 83
15, 14220, Note_on_c, 11, 68, 0
15, 14220, Note_on_c, 11, 69, 83
15, 14280, Note_on_c, 11, 69, 0
15, 14280, Note_on_c, 11, 64, 83
15, 14340, Note_on_c, 11, 64, 0
15, 14340, Note_on_c, 11, 68, 83
15, 14400, Note_on_c, 11, 68, 0
15, 14400, Note_on_c, 11, 69, 83
15, 14460, Note_on_c, 11, 69, 0
15, 14460, Note_on_c, 11, 69, 100
15, 14490, Note_on_c, 11, 69, 0
15, 14490, Note_on_c, 11, 69, 83
15, 14520, Note_on_c, 11, 69, 0
15, 14520, Note_on_c, 11, 69, 83
15, 14580, Note_on_c, 11, 69, 0
15, 14580, Note_on_c, 11, 69, 100
15, 14640, Note_on_c, 11, 69, 0
15, 14640, Note_on_c, 11, 64, 83
15, 14700, Note_on_c, 11, 64, 0
15, 14700, Note_on_c, 11, 64, 83
15, 14760, Note_on_c, 11, 64, 0
15, 14760, Note_on_c, 11, 66, 100
15, 14820, Note_on_c, 11, 66, 0
15, 14820, Note_on_c, 11, 66, 83
15, 14880, Note_on_c, 11, 66, 0
15, 14880, Note_on_c, 11, 67, 83
15, 14940, Note_on_c, 11, 67, 0
15, 14940, Note_on_c, 11, 69, 100
15, 15000, Note_on_c, 11, 69, 0
15, 15000, Note_on_c, 11, 71, 83
15, 15060, Note_on_c, 11, 71, 0
15, 15060, Note_on_c, 11, 69, 83
15, 15120, Note_on_c, 11, 69, 0
15, 15120, Note_on_c, 11, 69, 100
15, 15180, Note_on_c, 11, 69, 0
15, 15180, Note_on_c, 11, 66, 83
15, 15240, Note_on_c, 11, 66, 0
15, 15240, Note_on_c, 11, 66, 83
15, 15300, Note_on_c, 11, 66, 0
15, 15300, Note_on_c, 11, 66, 100
15, 15360, Note_on_c, 11, 66, 0
15, 15360, Note_on_c, 11, 69, 83
15, 15390, Note_on_c, 11, 69, 0
15, 15390, Note_on_c, 11, 67, 83
15, 15420, Note_on_c, 11, 67, 0
15, 15420, Note_on_c, 11, 66, 83
15, 15450, Note_on_c, 11, 66, 0
15, 15450, Note_on_c, 11, 64, 83
15, 15480, Note_on_c, 11, 64, 0
15, 15480, Note_on_c, 11, 62, 100
15, 15540, Note_on_c, 11, 62, 0
15, 15540, Note_on_c, 11, 67, 83
15, 15600, Note_on_c, 11, 67, 0
15, 15600, Note_on_c, 11, 69, 83
15, 15660, Note_on_c, 11, 69, 0
15, 15660, Note_on_c, 11, 71, 100
15, 15720, Note_on_c, 11, 71, 0
15, 15720, Note_on_c, 11, 69, 83
15, 15750, Note_on_c, 11, 69, 0
15, 15750, Note_on_c, 11, 71, 83
15, 15780, Note_on_c, 11, 71, 0
15, 15780, Note_on_c, 11, 72, 83
15, 15840, Note_on_c, 11, 72, 0
15, 15840, Note_on_c, 11, 71, 100
15, 15900, Note_on_c, 11, 71, 0
15, 15900, Note_on_c, 11, 69, 83
15, 15930, Note_on_c, 11, 69, 0
15, 15930, Note_on_c, 11, 67, 83
15, 15960, Note_on_c, 11, 67, 0
15, 15960, Note_on_c, 11, 66, 83
15, 15990, Note_on_c, 11, 66, 0
15, 15990, Note_on_c, 11, 64, 83
15, 16020, Note_on_c, 11, 64, 0
15, 16020, Note_on_c, 11, 69, 83
15, 16080, Note_on_c, 11, 69, 0
15, 16080, Note_on_c, 11, 62, 83
15, 16140, Note_on_c, 11, 62, 0
15, 16140, Note_on_c, 11, 67, 100
15, 16200, Note_on_c, 11, 67, 0
15, 16200, Note_on_c, 11, 66, 83
15, 16260, Note_on_c, 11, 66, 0
15, 16260, Note_on_c, 11, 67, 83
15, 16320, Note_on_c, 11, 67, 0
15, 16320, Note_on_c, 11, 66, 83
15, 16380, Note_on_c, 11, 66, 0
15, 16380, Note_on_c, 11, 62, 83
15, 16500, Note_on_c, 11, 62, 0
15, 16680, Note_on_c, 11, 71, 100
15, 16740, Note_on_c, 11, 71, 0
15, 16740, Note_on_c, 11, 69, 100
15, 16800, Note_on_c, 11, 69, 0
15, 16800, Note_on_c, 11, 72, 83
15, 16860, Note_on_c, 11, 72, 0
15, 16860, Note_on_c, 11, 71, 83
15, 16920, Note_on_c, 11, 71, 0
15, 16920, Note_on_c, 11, 69, 83
15, 16980, Note_on_c, 11, 69, 0
15, 16980, Note_on_c, 11, 67, 83
15, 17010, Note_on_c, 11, 67, 0
15, 17010, Note_on_c, 11, 66, 83
15, 17040, Note_on_c, 11, 66, 0
15, 17040, Note_on_c, 11, 67, 83
15, 17100, Note_on_c, 11, 67, 0
15, 17100, Note_on_c, 11, 69, 83
15, 17280, Note_on_c, 11, 69, 0
15, 20100, Note_on_c, 11, 69, 90
15, 20159, Note_on_c, 11, 69, 0
15, 20160, Note_on_c, 11, 67, 90
15, 20219, Note_on_c, 11, 67, 0
15, 20220, Note_on_c, 11, 66, 90
15, 20279, Note_on_c, 11, 66, 0
15, 20280, Note_on_c, 11, 64, 90
15, 20339, Note_on_c, 11, 64, 0
15, 20340, Note_on_c, 11, 62, 90
15, 20459, Note_on_c, 11, 62, 0
15, 20460, Note_on_c, 11, 62, 90
15, 20579, Note_on_c, 11, 62, 0
15, 20580, Note_on_c, 11, 69, 90
15, 20699, Note_on_c, 11, 69, 0
15, 20700, Note_on_c, 11, 61, 90
15, 20939, Note_on_c, 11, 61, 0
15, 20940, Note_on_c, 11, 61, 90
15, 21059, Note_on_c, 11, 61, 0
15, 21060, Note_on_c, 11, 62, 90
15, 21179, Note_on_c, 11, 62, 0
15, 21180, Note_on_c, 11, 62, 90
15, 21239, Note_on_c, 11, 62, 0
15, 21240, Note_on_c, 11, 64, 90
15, 21299, Note_on_c, 11, 64, 0
15, 21300, Note_on_c, 11, 66, 90
15, 21359, Note_on_c, 11, 66, 0
15, 21360, Note_on_c, 11, 68, 90
15, 21419, Note_on_c, 11, 68, 0
15, 21420, Note_on_c, 11, 69, 90
15, 21539, Note_on_c, 11, 69, 0
15, 21540, Note_on_c, 11, 69, 90
15, 21659, Note_on_c, 11, 69, 0
15, 21660, Note_on_c, 11, 64, 90
15, 21779, Note_on_c, 11, 64, 0
15, 21780, Note_on_c, 11, 73, 90
15, 22019, Note_on_c, 11, 73, 0
15, 22020, Note_on_c, 11, 73, 90
15, 22139, Note_on_c, 11, 73, 0
15, 22140, Note_on_c, 11, 73, 90
15, 22259, Note_on_c, 11, 73, 0
15, 22260, Note_on_c, 11, 66, 90
15, 22379, Note_on_c, 11, 66, 0
15, 22380, Note_on_c, 11, 71, 90
15, 22559, Note_on_c, 11, 71, 0
15, 22560, Note_on_c, 11, 69, 90
15, 22619, Note_on_c, 11, 69, 0
15, 22620, Note_on_c, 11, 68, 90
15, 22679, Note_on_c, 11, 68, 0
15, 22680, Note_on_c, 11, 66, 90
15, 22739, Note_on_c, 11, 66, 0
15, 22740, Note_on_c, 11, 64, 90
15, 22859, Note_on_c, 11, 64, 0
15, 23100, Note_on_c, 11, 64, 90
15, 23159, Note_on_c, 11, 64, 0
15, 23160, Note_on_c, 11, 66, 90
15, 23219, Note_on_c, 11, 66, 0
15, 23220, Note_on_c, 11, 68, 90
15, 23279, Note_on_c, 11, 68, 0
15, 23280, Note_on_c, 11, 71, 90
15, 23339, Note_on_c, 11, 71, 0
15, 23340, Note_on_c, 11, 69, 90
15, 23399, Note_on_c, 11, 69, 0
15, 23400, Note_on_c, 11, 68, 90
15, 23459, Note_on_c, 11, 68, 0
15, 23460, Note_on_c, 11, 69, 90
15, 23519, Note_on_c, 11, 69, 0
15, 23520, Note_on_c, 11, 64, 90
15, 23579, Note_on_c, 11, 64, 0
15, 23580, Note_on_c, 11, 69, 90
15, 23699, Note_on_c, 11, 69, 0
15, 23700, Note_on_c, 11, 69, 90
15, 23759, Note_on_c, 11, 69, 0
15, 23760, Note_on_c, 11, 68, 90
15, 23819, Note_on_c, 11, 68, 0
15, 23820, Note_on_c, 11, 69, 90
15, 23939, Note_on_c, 11, 69, 0
15, 23940, Note_on_c, 11, 68, 90
15, 24119, Note_on_c, 11, 68, 0
15, 24120, Note_on_c, 11, 66, 90
15, 24179, Note_on_c, 11, 66, 0
15, 24180, Note_on_c, 11, 68, 90
15, 24239, Note_on_c, 11, 68, 0
15, 24240, Note_on_c, 11, 64, 90
15, 24299, Note_on_c, 11, 64, 0
15, 24300, Note_on_c, 11, 66, 90
15, 24419, Note_on_c, 11, 66, 0
15, 24420, Note_on_c, 11, 66, 90
15, 24539, Note_on_c, 11, 66, 0
15, 24540, Note_on_c, 11, 66, 90
15, 24659, Note_on_c, 11, 66, 0
15, 24660, Note_on_c, 11, 66, 90
15, 24779, Note_on_c, 11, 66, 0
15, 24780, Note_on_c, 11, 66, 90
15, 24899, Note_on_c, 11, 66, 0
15, 24900, Note_on_c, 11, 71, 90
15, 25079, Note_on_c, 11, 71, 0
15, 25080, Note_on_c, 11, 69, 90
15, 25139, Note_on_c, 11, 69, 0
15, 25140, Note_on_c, 11, 71, 90
15, 25319, Note_on_c, 11, 71, 0
15, 25320, Note_on_c, 11, 73, 90
15, 25379, Note_on_c, 11, 73, 0
15, 25380, Note_on_c, 11, 69, 90
15, 25499, Note_on_c, 11, 69, 0
15, 25500, Note_on_c, 11, 69, 90
15, 25559, Note_on_c, 11, 69, 0
15, 25560, Note_on_c, 11, 68, 90
15, 25619, Note_on_c, 11, 68, 0
15, 25620, Note_on_c, 11, 69, 90
15, 25679, Note_on_c, 11, 69, 0
15, 25680, Note_on_c, 11, 66, 90
15, 25739, Note_on_c, 11, 66, 0
15, 25740, Note_on_c, 11, 68, 90
15, 25859, Note_on_c, 11, 68, 0
15, 25860, Note_on_c, 11, 72, 90
15, 25979, Note_on_c, 11, 72, 0
15, 25980, Note_on_c, 11, 75, 90
15, 26159, Note_on_c, 11, 75, 0
15, 26160, Note_on_c, 11, 72, 90
15, 26219, Note_on_c, 11, 72, 0
15, 26220, Note_on_c, 11, 73, 90
15, 26339, Note_on_c, 11, 73, 0
15, 26340, Note_on_c, 11, 73, 90
15, 26459, Note_on_c, 11, 73, 0
15, 26460, Note_on_c, 11, 66, 90
15, 26519, Note_on_c, 11, 66, 0
15, 26520, Note_on_c, 11, 66, 90
15, 26579, Note_on_c, 11, 66, 0
15, 26580, Note_on_c, 11, 71, 90
15, 26699, Note_on_c, 11, 71, 0
15, 26760, Note_on_c, 11, 68, 90
15, 26819, Note_on_c, 11, 68, 0
15, 26820, Note_on_c, 11, 73, 90
15, 26939, Note_on_c, 11, 73, 0
15, 26940, Note_on_c, 11, 72, 90
15, 26999, Note_on_c, 11, 72, 0
15, 27000, Note_on_c, 11, 73, 90
15, 27059, Note_on_c, 11, 73, 0
15, 27060, Note_on_c, 11, 75, 90
15, 27179, Note_on_c, 11, 75, 0
15, 27180, Note_on_c, 11, 63, 90
15, 27299, Note_on_c, 11, 63, 0
15, 27360, Note_on_c, 11, 72, 90
15, 27419, Note_on_c, 11, 72, 0
15, 27420, Note_on_c, 11, 73, 90
15, 27479, Note_on_c, 11, 73, 0
15, 27480, Note_on_c, 11, 68, 90
15, 27539, Note_on_c, 11, 68, 0
15, 27540, Note_on_c, 11, 69, 90
15, 27659, Note_on_c, 11, 69, 0
15, 27660, Note_on_c, 11, 69, 90
15, 27719, Note_on_c, 11, 69, 0
15, 27720, Note_on_c, 11, 68, 90
15, 27779, Note_on_c, 11, 68, 0
15, 27780, Note_on_c, 11, 69, 90
15, 27899, Note_on_c, 11, 69, 0
15, 27900, Note_on_c, 11, 68, 90
15, 27959, Note_on_c, 11, 68, 0
15, 27960, Note_on_c, 11, 66, 90
15, 28019, Note_on_c, 11, 66, 0
15, 28020, Note_on_c, 11, 68, 90
15, 28079, Note_on_c, 11, 68, 0
15, 28080, Note_on_c, 11, 64, 90
15, 28139, Note_on_c, 11, 64, 0
15, 28140, Note_on_c, 11, 64, 90
15, 28259, Note_on_c, 11, 64, 0
15, 28260, Note_on_c, 11, 69, 90
15, 28319, Note_on_c, 11, 69, 0
15, 28320, Note_on_c, 11, 69, 90
15, 28379, Note_on_c, 11, 69, 0
15, 28380, Note_on_c, 11, 68, 90
15, 28559, Note_on_c, 11, 68, 0
15, 28560, Note_on_c, 11, 66, 90
15, 28619, Note_on_c, 11, 66, 0
15, 28620, Note_on_c, 11, 64, 90
15, 28739, Note_on_c, 11, 64, 0
15, 32460, Note_on_c, 11, 64, 90
15, 32579, Note_on_c, 11, 64, 0
15, 32580, Note_on_c, 11, 66, 90
15, 32699, Note_on_c, 11, 66, 0
15, 32700, Note_on_c, 11, 66, 90
15, 32759, Note_on_c, 11, 66, 0
15, 32760, Note_on_c, 11, 64, 90
15, 32819, Note_on_c, 11, 64, 0
15, 32820, Note_on_c, 11, 62, 90
15, 32879, Note_on_c, 11, 62, 0
15, 32880, Note_on_c, 11, 67, 90
15, 32939, Note_on_c, 11, 67, 0
15, 32940, Note_on_c, 11, 64, 90
15, 32999, Note_on_c, 11, 64, 0
15, 33000, Note_on_c, 11, 61, 90
15, 33059, Note_on_c, 11, 61, 0
15, 33060, Note_on_c, 11, 69, 90
15, 33119, Note_on_c, 11, 69, 0
15, 33120, Note_on_c, 11, 67, 90
15, 33149, Note_on_c, 11, 67, 0
15, 33150, Note_on_c, 11, 66, 90
15, 33179, Note_on_c, 11, 66, 0
15, 33180, Note_on_c, 11, 67, 90
15, 33239, Note_on_c, 11, 67, 0
15, 33240, Note_on_c, 11, 64, 90
15, 33299, Note_on_c, 11, 64, 0
15, 33300, Note_on_c, 11, 66, 90
15, 33539, Note_on_c, 11, 66, 0
15, 33540, Note_on_c, 11, 69, 90
15, 33659, Note_on_c, 11, 69, 0
15, 33660, Note_on_c, 11, 69, 90
15, 33779, Note_on_c, 11, 69, 0
15, 33780, Note_on_c, 11, 74, 90
15, 33839, Note_on_c, 11, 74, 0
15, 33840, Note_on_c, 11, 73, 90
15, 33899, Note_on_c, 11, 73, 0
15, 33900, Note_on_c, 11, 71, 90
15, 34019, Note_on_c, 11, 71, 0
15, 34020, Note_on_c, 11, 71, 90
15, 34079, Note_on_c, 11, 71, 0
15, 34080, Note_on_c, 11, 69, 90
15, 34199, Note_on_c, 11, 69, 0
15, 34200, Note_on_c, 11, 68, 90
15, 34259, Note_on_c, 11, 68, 0
15, 34260, Note_on_c, 11, 64, 90
15, 34379, Note_on_c, 11, 64, 0
15, 34380, Note_on_c, 11, 66, 90
15, 34439, Note_on_c, 11, 66, 0
15, 34440, Note_on_c, 11, 67, 90
15, 34499, Note_on_c, 11, 67, 0
15, 34500, Note_on_c, 11, 69, 90
15, 34559, Note_on_c, 11, 69, 0
15, 34560, Note_on_c, 11, 71, 90
15, 34679, Note_on_c, 11, 71, 0
15, 34680, Note_on_c, 11, 69, 90
15, 34709, Note_on_c, 11, 69, 0
15, 34710, Note_on_c, 11, 68, 90
15, 34739, Note_on_c, 11, 68, 0
15, 34740, Note_on_c, 11, 69, 90
15, 34859, Note_on_c, 11, 69, 0
15, 34860, Note_on_c, 11, 68, 100
15, 34920, Note_on_c, 11, 68, 0
15, 34920, Note_on_c, 11, 66, 100
15, 34980, Note_on_c, 11, 66, 0
15, 34980, Note_on_c, 11, 64, 90
15, 35159, Note_on_c, 11, 64, 0
15, 35160, Note_on_c, 11, 63, 90
15, 35219, Note_on_c, 11, 63, 0
15, 35220, Note_on_c, 11, 59, 90
15, 35339, Note_on_c, 11, 59, 0
15, 35340, Note_on_c, 11, 61, 90
15, 35399, Note_on_c, 11, 61, 0
15, 35400, Note_on_c, 11, 63, 90
15, 35459, Note_on_c, 11, 63, 0
15, 35460, Note_on_c, 11, 64, 90
15, 35579, Note_on_c, 11, 64, 0
15, 35580, Note_on_c, 11, 66, 90
15, 35699, Note_on_c, 11, 66, 0
15, 35700, Note_on_c, 11, 64, 90
15, 35819, Note_on_c, 11, 64, 0
15, 35820, Note_on_c, 11, 64, 90
15, 35879, Note_on_c, 11, 64, 0
15, 35880, Note_on_c, 11, 67, 90
15, 35939, Note_on_c, 11, 67, 0
15, 35940, Note_on_c, 11, 66, 90
15, 35999, Note_on_c, 11, 66, 0
15, 36000, Note_on_c, 11, 64, 90
15, 36059, Note_on_c, 11, 64, 0
15, 36060, Note_on_c, 11, 63, 90
15, 36119, Note_on_c, 11, 63, 0
15, 36120, Note_on_c, 11, 65, 90
15, 36179, Note_on_c, 11, 65, 0
15, 36180, Note_on_c, 11, 66, 90
15, 36239, Note_on_c, 11, 66, 0
15, 36240, Note_on_c, 11, 68, 90
15, 36299, Note_on_c, 11, 68, 0
15, 36300, Note_on_c, 11, 69, 90
15, 36539, Note_on_c, 11, 69, 0
15, 36540, Note_on_c, 11, 67, 90
15, 36779, Note_on_c, 11, 67, 0
15, 36780, Note_on_c, 11, 66, 90
15, 37019, Note_on_c, 11, 66, 0
15, 37020, Note_on_c, 11, 64, 90
15, 37079, Note_on_c, 11, 64, 0
15, 37080, Note_on_c, 11, 62, 90
15, 37139, Note_on_c, 11, 62, 0
15, 37140, Note_on_c, 11, 64, 90
15, 37259, Note_on_c, 11, 64, 0
15, 100740, Control_c, 11, 0, 20
15, 100740, Program_c, 11, 71
15, 100740, Note_on_c, 11, 66, 90
15, 100799, Note_on_c, 11, 66, 0
15, 100800, Note_on_c, 11, 67, 90
15, 100919, Note_on_c, 11, 67, 0
15, 100920, Note_on_c, 11, 66, 90
15, 100949, Note_on_c, 11, 66, 0
15, 100950, Note_on_c, 11, 64, 90
15, 100979, Note_on_c, 11, 64, 0
15, 100980, Note_on_c, 11, 66, 90
15, 101039, Note_on_c, 11, 66, 0
15, 101040, Note_on_c, 11, 62, 90
15, 101099, Note_on_c, 11, 62, 0
15, 101100, Note_on_c, 11, 59, 90
15, 101159, Note_on_c, 11, 59, 0
15, 101160, Note_on_c, 11, 71, 90
15, 101219, Note_on_c, 11, 71, 0
15, 101220, Note_on_c, 11, 70, 90
15, 101279, Note_on_c, 11, 70, 0
15, 101280, Note_on_c, 11, 71, 90
15, 101399, Note_on_c, 11, 71, 0
15, 101400, Note_on_c, 11, 73, 90
15, 101429, Note_on_c, 11, 73, 0
15, 101430, Note_on_c, 11, 74, 90
15, 101459, Note_on_c, 11, 74, 0
15, 101460, Note_on_c, 11, 73, 90
15, 101519, Note_on_c, 11, 73, 0
15, 101520, Note_on_c, 11, 70, 90
15, 101579, Note_on_c, 11, 70, 0
15, 101580, Note_on_c, 11, 66, 90
15, 101639, Note_on_c, 11, 66, 0
15, 101820, Note_on_c, 11, 66, 90
15, 101999, Note_on_c, 11, 66, 0
15, 102000, Note_on_c, 11, 67, 90
15, 102029, Note_on_c, 11, 67, 0
15, 102030, Note_on_c, 11, 69, 90
15, 102059, Note_on_c, 11, 69, 0
15, 102060, Note_on_c, 11, 67, 90
15, 102119, Note_on_c, 11, 67, 0
15, 102120, Note_on_c, 11, 66, 90
15, 102179, Note_on_c, 11, 66, 0
15, 102180, Note_on_c, 11, 64, 90
15, 102480, Note_on_c, 11, 64, 0
15, 102480, Note_on_c, 11, 66, 90
15, 102509, Note_on_c, 11, 66, 0
15, 102510, Note_on_c, 11, 67, 90
15, 102539, Note_on_c, 11, 67, 0
15, 102540, Note_on_c, 11, 66, 90
15, 102599, Note_on_c, 11, 66, 0
15, 102600, Note_on_c, 11, 64, 90
15, 102659, Note_on_c, 11, 64, 0
15, 102660, Note_on_c, 11, 62, 90
15, 102779, Note_on_c, 11, 62, 0
15, 102780, Note_on_c, 11, 74, 90
15, 102959, Note_on_c, 11, 74, 0
15, 102960, Note_on_c, 11, 73, 90
15, 102989, Note_on_c, 11, 73, 0
15, 102990, Note_on_c, 11, 71, 90
15, 103019, Note_on_c, 11, 71, 0
15, 103020, Note_on_c, 11, 69, 90
15, 103079, Note_on_c, 11, 69, 0
15, 103080, Note_on_c, 11, 67, 90
15, 103139, Note_on_c, 11, 67, 0
15, 103140, Note_on_c, 11, 66, 90
15, 103199, Note_on_c, 11, 66, 0
15, 103200, Note_on_c, 11, 69, 90
15, 103229, Note_on_c, 11, 69, 0
15, 103230, Note_on_c, 11, 67, 90
15, 103259, Note_on_c, 11, 67, 0
15, 103260, Note_on_c, 11, 66, 90
15, 103319, Note_on_c, 11, 66, 0
15, 103320, Note_on_c, 11, 64, 90
15, 103379, Note_on_c, 11, 64, 0
15, 103380, Note_on_c, 11, 62, 90
15, 103499, Note_on_c, 11, 62, 0
15, 103620, Note_on_c, 11, 64, 90
15, 103679, Note_on_c, 11, 64, 0
15, 103680, Note_on_c, 11, 66, 90
15, 103799, Note_on_c, 11, 66, 0
15, 103800, Note_on_c, 11, 64, 90
15, 103829, Note_on_c, 11, 64, 0
15, 103830, Note_on_c, 11, 62, 90
15, 103859, Note_on_c, 11, 62, 0
15, 103860, Note_on_c, 11, 64, 90
15, 103919, Note_on_c, 11, 64, 0
15, 103920, Note_on_c, 11, 68, 90
15, 103979, Note_on_c, 11, 68, 0
15, 103980, Note_on_c, 11, 69, 90
15, 104039, Note_on_c, 11, 69, 0
15, 104040, Note_on_c, 11, 67, 90
15, 104099, Note_on_c, 11, 67, 0
15, 104100, Note_on_c, 11, 66, 90
15, 104159, Note_on_c, 11, 66, 0
15, 104160, Note_on_c, 11, 67, 90
15, 104279, Note_on_c, 11, 67, 0
15, 104280, Note_on_c, 11, 66, 90
15, 104309, Note_on_c, 11, 66, 0
15, 104310, Note_on_c, 11, 64, 90
15, 104339, Note_on_c, 11, 64, 0
15, 104340, Note_on_c, 11, 66, 90
15, 104399, Note_on_c, 11, 66, 0
15, 104400, Note_on_c, 11, 70, 90
15, 104459, Note_on_c, 11, 70, 0
15, 104460, Note_on_c, 11, 71, 90
15, 104519, Note_on_c, 11, 71, 0
15, 104520, Note_on_c, 11, 74, 90
15, 104639, Note_on_c, 11, 74, 0
15, 104640, Note_on_c, 11, 73, 90
15, 104669, Note_on_c, 11, 73, 0
15, 104670, Note_on_c, 11, 71, 90
15, 104699, Note_on_c, 11, 71, 0
15, 104700, Note_on_c, 11, 69, 90
15, 104759, Note_on_c, 11, 69, 0
15, 104760, Note_on_c, 11, 68, 90
15, 104819, Note_on_c, 11, 68, 0
15, 104820, Note_on_c, 11, 69, 90
15, 104879, Note_on_c, 11, 69, 0
15, 104880, Note_on_c, 11, 71, 90
15, 104939, Note_on_c, 11, 71, 0
15, 104940, Note_on_c, 11, 73, 90
15, 104999, Note_on_c, 11, 73, 0
15, 105000, Note_on_c, 11, 65, 90
15, 105059, Note_on_c, 11, 65, 0
15, 105060, Note_on_c, 11, 66, 90
15, 105119, Note_on_c, 11, 66, 0
15, 105120, Note_on_c, 11, 71, 90
15, 105179, Note_on_c, 11, 71, 0
15, 105180, Note_on_c, 11, 69, 90
15, 105239, Note_on_c, 11, 69, 0
15, 105240, Note_on_c, 11, 68, 90
15, 105299, Note_on_c, 11, 68, 0
15, 105300, Note_on_c, 11, 66, 90
15, 105359, Note_on_c, 11, 66, 0
15, 105360, Note_on_c, 11, 65, 90
15, 105419, Note_on_c, 11, 65, 0
15, 105540, Note_on_c, 11, 73, 90
15, 105599, Note_on_c, 11, 73, 0
15, 105600, Note_on_c, 11, 74, 90
15, 105719, Note_on_c, 11, 74, 0
15, 105720, Note_on_c, 11, 73, 90
15, 105749, Note_on_c, 11, 73, 0
15, 105750, Note_on_c, 11, 71, 90
15, 105779, Note_on_c, 11, 71, 0
15, 105780, Note_on_c, 11, 73, 90
15, 105839, Note_on_c, 11, 73, 0
15, 105840, Note_on_c, 11, 69, 90
15, 105899, Note_on_c, 11, 69, 0
15, 105900, Note_on_c, 11, 66, 90
15, 105959, Note_on_c, 11, 66, 0
15, 105960, Note_on_c, 11, 69, 90
15, 106019, Note_on_c, 11, 69, 0
15, 106020, Note_on_c, 11, 68, 90
15, 106079, Note_on_c, 11, 68, 0
15, 106080, Note_on_c, 11, 69, 90
15, 106109, Note_on_c, 11, 69, 0
15, 106110, Note_on_c, 11, 71, 90
15, 106139, Note_on_c, 11, 71, 0
15, 106140, Note_on_c, 11, 69, 90
15, 106199, Note_on_c, 11, 69, 0
15, 106200, Note_on_c, 11, 66, 90
15, 106259, Note_on_c, 11, 66, 0
15, 106260, Note_on_c, 11, 65, 90
15, 106319, Note_on_c, 11, 65, 0
15, 106320, Note_on_c, 11, 68, 90
15, 106379, Note_on_c, 11, 68, 0
15, 106380, Note_on_c, 11, 71, 90
15, 106439, Note_on_c, 11, 71, 0
15, 106440, Note_on_c, 11, 62, 90
15, 106559, Note_on_c, 11, 62, 0
15, 106560, Note_on_c, 11, 61, 90
15, 106619, Note_on_c, 11, 61, 0
15, 106620, Note_on_c, 11, 71, 90
15, 106679, Note_on_c, 11, 71, 0
15, 106680, Note_on_c, 11, 69, 90
15, 106709, Note_on_c, 11, 69, 0
15, 106710, Note_on_c, 11, 68, 90
15, 106739, Note_on_c, 11, 68, 0
15, 106740, Note_on_c, 11, 73, 90
15, 106769, Note_on_c, 11, 73, 0
15, 106770, Note_on_c, 11, 71, 90
15, 106799, Note_on_c, 11, 71, 0
15, 106800, Note_on_c, 11, 69, 90
15, 106829, Note_on_c, 11, 69, 0
15, 106830, Note_on_c, 11, 68, 90
15, 106859, Note_on_c, 11, 68, 0
15, 106860, Note_on_c, 11, 66, 90
15, 106919, Note_on_c, 11, 66, 0
15, 107100, Note_on_c, 11, 73, 90
15, 107279, Note_on_c, 11, 73, 0
15, 107280, Note_on_c, 11, 74, 90
15, 107309, Note_on_c, 11, 74, 0
15, 107310, Note_on_c, 11, 76, 90
15, 107339, Note_on_c, 11, 76, 0
15, 107340, Note_on_c, 11, 74, 90
15, 107399, Note_on_c, 11, 74, 0
15, 107400, Note_on_c, 11, 73, 90
15, 107459, Note_on_c, 11, 73, 0
15, 107460, Note_on_c, 11, 71, 90
15, 107760, Note_on_c, 11, 71, 0
15, 107760, Note_on_c, 11, 62, 90
15, 107819, Note_on_c, 11, 62, 0
15, 107820, Note_on_c, 11, 61, 90
15, 107879, Note_on_c, 11, 61, 0
15, 107880, Note_on_c, 11, 72, 90
15, 107999, Note_on_c, 11, 72, 0
15, 108000, Note_on_c, 11, 73, 90
15, 108029, Note_on_c, 11, 73, 0
15, 108030, Note_on_c, 11, 75, 90
15, 108059, Note_on_c, 11, 75, 0
15, 108060, Note_on_c, 11, 73, 90
15, 108119, Note_on_c, 11, 73, 0
15, 108120, Note_on_c, 11, 72, 90
15, 108179, Note_on_c, 11, 72, 0
15, 108180, Note_on_c, 11, 73, 90
15, 108239, Note_on_c, 11, 73, 0
15, 108240, Note_on_c, 11, 66, 90
15, 108299, Note_on_c, 11, 66, 0
15, 108300, Note_on_c, 11, 65, 90
15, 108359, Note_on_c, 11, 65, 0
15, 108360, Note_on_c, 11, 71, 90
15, 108419, Note_on_c, 11, 71, 0
15, 108420, Note_on_c, 11, 69, 90
15, 108479, Note_on_c, 11, 69, 0
15, 108480, Note_on_c, 11, 73, 90
15, 108509, Note_on_c, 11, 73, 0
15, 108510, Note_on_c, 11, 71, 90
15, 108539, Note_on_c, 11, 71, 0
15, 108540, Note_on_c, 11, 69, 90
15, 108599, Note_on_c, 11, 69, 0
15, 108600, Note_on_c, 11, 68, 90
15, 108659, Note_on_c, 11, 68, 0
15, 108660, Note_on_c, 11, 66, 90
15, 108719, Note_on_c, 11, 66, 0
15, 108720, Note_on_c, 11, 62, 90
15, 108839, Note_on_c, 11, 62, 0
15, 108840, Note_on_c, 11, 61, 90
15, 108959, Note_on_c, 11, 61, 0
15, 108960, Note_on_c, 11, 71, 90
15, 109019, Note_on_c, 11, 71, 0
15, 109020, Note_on_c, 11, 69, 90
15, 109079, Note_on_c, 11, 69, 0
15, 109080, Note_on_c, 11, 68, 90
15, 109139, Note_on_c, 11, 68, 0
15, 109140, Note_on_c, 11, 66, 90
15, 109259, Note_on_c, 11, 66, 0
15, 109260, Note_on_c, 11, 65, 90
15, 109349, Note_on_c, 11, 65, 0
15, 109350, Note_on_c, 11, 66, 90
15, 109379, Note_on_c, 11, 66, 0
15, 109380, Note_on_c, 11, 66, 90
15, 109499, Note_on_c, 11, 66, 0
15, 112260, Note_on_c, 11, 69, 90
15, 112319, Note_on_c, 11, 69, 0
15, 112320, Note_on_c, 11, 69, 90
15, 112349, Note_on_c, 11, 69, 0
15, 112350, Note_on_c, 11, 68, 90
15, 112379, Note_on_c, 11, 68, 0
15, 112380, Note_on_c, 11, 69, 90
15, 112439, Note_on_c, 11, 69, 0
15, 112440, Note_on_c, 11, 69, 90
15, 112499, Note_on_c, 11, 69, 0
15, 112500, Note_on_c, 11, 69, 90
15, 112529, Note_on_c, 11, 69, 0
15, 112530, Note_on_c, 11, 71, 90
15, 112559, Note_on_c, 11, 71, 0
15, 112560, Note_on_c, 11, 72, 90
15, 112679, Note_on_c, 11, 72, 0
15, 112680, Note_on_c, 11, 71, 90
15, 112739, Note_on_c, 11, 71, 0
15, 112740, Note_on_c, 11, 76, 90
15, 112799, Note_on_c, 11, 76, 0
15, 112800, Note_on_c, 11, 74, 90
15, 112829, Note_on_c, 11, 74, 0
15, 112830, Note_on_c, 11, 72, 90
15, 112859, Note_on_c, 11, 72, 0
15, 112860, Note_on_c, 11, 71, 90
15, 112919, Note_on_c, 11, 71, 0
15, 112920, Note_on_c, 11, 69, 90
15, 112979, Note_on_c, 11, 69, 0
15, 112980, Note_on_c, 11, 67, 90
15, 113039, Note_on_c, 11, 67, 0
15, 113040, Note_on_c, 11, 66, 90
15, 113099, Note_on_c, 11, 66, 0
15, 113100, Note_on_c, 11, 64, 90
15, 113159, Note_on_c, 11, 64, 0
15, 113160, Note_on_c, 11, 66, 90
15, 113219, Note_on_c, 11, 66, 0
15, 113220, Note_on_c, 11, 67, 90
15, 113279, Note_on_c, 11, 67, 0
15, 113280, Note_on_c, 11, 69, 90
15, 113309, Note_on_c, 11, 69, 0
15, 113310, Note_on_c, 11, 71, 90
15, 113339, Note_on_c, 11, 71, 0
15, 113340, Note_on_c, 11, 69, 90
15, 113399, Note_on_c, 11, 69, 0
15, 113400, Note_on_c, 11, 67, 90
15, 113459, Note_on_c, 11, 67, 0
15, 113460, Note_on_c, 11, 66, 90
15, 113519, Note_on_c, 11, 66, 0
15, 113520, Note_on_c, 11, 74, 90
15, 113639, Note_on_c, 11, 74, 0
15, 113640, Note_on_c, 11, 73, 90
15, 113669, Note_on_c, 11, 73, 0
15, 113670, Note_on_c, 11, 71, 90
15, 113699, Note_on_c, 11, 71, 0
15, 113700, Note_on_c, 11, 69, 90
15, 113759, Note_on_c, 11, 69, 0
15, 113760, Note_on_c, 11, 67, 90
15, 113819, Note_on_c, 11, 67, 0
15, 113820, Note_on_c, 11, 66, 90
15, 113879, Note_on_c, 11, 66, 0
15, 113880, Note_on_c, 11, 64, 90
15, 113939, Note_on_c, 11, 64, 0
15, 113940, Note_on_c, 11, 66, 90
15, 113999, Note_on_c, 11, 66, 0
15, 114000, Note_on_c, 11, 64, 90
15, 114059, Note_on_c, 11, 64, 0
15, 114060, Note_on_c, 11, 62, 90
15, 114119, Note_on_c, 11, 62, 0
15, 114120, Note_on_c, 11, 64, 90
15, 114179, Note_on_c, 11, 64, 0
15, 114180, Note_on_c, 11, 66, 90
15, 114239, Note_on_c, 11, 66, 0
15, 114240, Note_on_c, 11, 68, 90
15, 114299, Note_on_c, 11, 68, 0
15, 114300, Note_on_c, 11, 68, 90
15, 114359, Note_on_c, 11, 68, 0
15, 114360, Note_on_c, 11, 69, 90
15, 114419, Note_on_c, 11, 69, 0
15, 114420, Note_on_c, 11, 69, 90
15, 114539, Note_on_c, 11, 69, 0
15, 114660, Note_on_c, 11, 64, 90
15, 114719, Note_on_c, 11, 64, 0
15, 114720, Note_on_c, 11, 64, 90
15, 114749, Note_on_c, 11, 64, 0
15, 114750, Note_on_c, 11, 62, 90
15, 114779, Note_on_c, 11, 62, 0
15, 114780, Note_on_c, 11, 64, 90
15, 114839, Note_on_c, 11, 64, 0
15, 114840, Note_on_c, 11, 64, 90
15, 114899, Note_on_c, 11, 64, 0
15, 114900, Note_on_c, 11, 64, 90
15, 114959, Note_on_c, 11, 64, 0
15, 114960, Note_on_c, 11, 73, 90
15, 115019, Note_on_c, 11, 73, 0
15, 115020, Note_on_c, 11, 70, 90
15, 115079, Note_on_c, 11, 70, 0
15, 115080, Note_on_c, 11, 64, 90
15, 115139, Note_on_c, 11, 64, 0
15, 115140, Note_on_c, 11, 62, 90
15, 115199, Note_on_c, 11, 62, 0
15, 115200, Note_on_c, 11, 61, 90
15, 115259, Note_on_c, 11, 61, 0
15, 115260, Note_on_c, 11, 71, 90
15, 115319, Note_on_c, 11, 71, 0
15, 115320, Note_on_c, 11, 70, 90
15, 115379, Note_on_c, 11, 70, 0
15, 115380, Note_on_c, 11, 71, 90
15, 115439, Note_on_c, 11, 71, 0
15, 115440, Note_on_c, 11, 71, 90
15, 115469, Note_on_c, 11, 71, 0
15, 115470, Note_on_c, 11, 73, 90
15, 115499, Note_on_c, 11, 73, 0
15, 115500, Note_on_c, 11, 74, 90
15, 115559, Note_on_c, 11, 74, 0
15, 115560, Note_on_c, 11, 68, 90
15, 115679, Note_on_c, 11, 68, 0
15, 115680, Note_on_c, 11, 69, 90
15, 115709, Note_on_c, 11, 69, 0
15, 115710, Note_on_c, 11, 71, 90
15, 115739, Note_on_c, 11, 71, 0
15, 115740, Note_on_c, 11, 69, 90
15, 115799, Note_on_c, 11, 69, 0
15, 115800, Note_on_c, 11, 68, 90
15, 115859, Note_on_c, 11, 68, 0
15, 115860, Note_on_c, 11, 73, 90
15, 115919, Note_on_c, 11, 73, 0
15, 115920, Note_on_c, 11, 69, 90
15, 115979, Note_on_c, 11, 69, 0
15, 115980, Note_on_c, 11, 66, 90
15, 116039, Note_on_c, 11, 66, 0
15, 116040, Note_on_c, 11, 64, 90
15, 116099, Note_on_c, 11, 64, 0
15, 116100, Note_on_c, 11, 63, 90
15, 116159, Note_on_c, 11, 63, 0
15, 116160, Note_on_c, 11, 72, 90
15, 116219, Note_on_c, 11, 72, 0
15, 116220, Note_on_c, 11, 71, 90
15, 116279, Note_on_c, 11, 71, 0
15, 116280, Note_on_c, 11, 70, 90
15, 116339, Note_on_c, 11, 70, 0
15, 116340, Note_on_c, 11, 71, 90
15, 116399, Note_on_c, 11, 71, 0
15, 116400, Note_on_c, 11, 67, 90
15, 116459, Note_on_c, 11, 67, 0
15, 116460, Note_on_c, 11, 66, 90
15, 116519, Note_on_c, 11, 66, 0
15, 116520, Note_on_c, 11, 64, 90
15, 116579, Note_on_c, 11, 64, 0
15, 116580, Note_on_c, 11, 69, 90
15, 116639, Note_on_c, 11, 69, 0
15, 116640, Note_on_c, 11, 67, 90
15, 116759, Note_on_c, 11, 67, 0
15, 116760, Note_on_c, 11, 66, 90
15, 116819, Note_on_c, 11, 66, 0
15, 116820, Note_on_c, 11, 67, 90
15, 116939, Note_on_c, 11, 67, 0
15, 117060, Note_on_c, 11, 66, 90
15, 117119, Note_on_c, 11, 66, 0
15, 117120, Note_on_c, 11, 68, 90
15, 117149, Note_on_c, 11, 68, 0
15, 117150, Note_on_c, 11, 70, 90
15, 117179, Note_on_c, 11, 70, 0
15, 117180, Note_on_c, 11, 71, 90
15, 117239, Note_on_c, 11, 71, 0
15, 117240, Note_on_c, 11, 73, 90
15, 117299, Note_on_c, 11, 73, 0
15, 117300, Note_on_c, 11, 74, 90
15, 117329, Note_on_c, 11, 74, 0
15, 117330, Note_on_c, 11, 73, 90
15, 117359, Note_on_c, 11, 73, 0
15, 117360, Note_on_c, 11, 71, 90
15, 117479, Note_on_c, 11, 71, 0
15, 117480, Note_on_c, 11, 69, 90
15, 117539, Note_on_c, 11, 69, 0
15, 117540, Note_on_c, 11, 67, 90
15, 117599, Note_on_c, 11, 67, 0
15, 117600, Note_on_c, 11, 66, 90
15, 117659, Note_on_c, 11, 66, 0
15, 117660, Note_on_c, 11, 64, 90
15, 117719, Note_on_c, 11, 64, 0
15, 117720, Note_on_c, 11, 62, 90
15, 117779, Note_on_c, 11, 62, 0
15, 117780, Note_on_c, 11, 61, 90
15, 117839, Note_on_c, 11, 61, 0
15, 117840, Note_on_c, 11, 70, 90
15, 117899, Note_on_c, 11, 70, 0
15, 117900, Note_on_c, 11, 71, 90
15, 117959, Note_on_c, 11, 71, 0
15, 117960, Note_on_c, 11, 67, 90
15, 118019, Note_on_c, 11, 67, 0
15, 118020, Note_on_c, 11, 66, 90
15, 118139, Note_on_c, 11, 66, 0
15, 118140, Note_on_c, 11, 64, 90
15, 118229, Note_on_c, 11, 64, 0
15, 118230, Note_on_c, 11, 66, 90
15, 118259, Note_on_c, 11, 66, 0
15, 118260, Note_on_c, 11, 66, 90
15, 118379, Note_on_c, 11, 66, 0
15, 119460, Note_on_c, 11, 66, 90
15, 119519, Note_on_c, 11, 66, 0
15, 119520, Note_on_c, 11, 67, 90
15, 119639, Note_on_c, 11, 67, 0
15, 119640, Note_on_c, 11, 66, 90
15, 119669, Note_on_c, 11, 66, 0
15, 119670, Note_on_c, 11, 64, 90
15, 119699, Note_on_c, 11, 64, 0
15, 119700, Note_on_c, 11, 66, 90
15, 119759, Note_on_c, 11, 66, 0
15, 119760, Note_on_c, 11, 62, 90
15, 119819, Note_on_c, 11, 62, 0
15, 119820, Note_on_c, 11, 59, 90
15, 119879, Note_on_c, 11, 59, 0
15, 119880, Note_on_c, 11, 71, 90
15, 119939, Note_on_c, 11, 71, 0
15, 119940, Note_on_c, 11, 70, 90
15, 119999, Note_on_c, 11, 70, 0
15, 120000, Note_on_c, 11, 71, 90
15, 120119, Note_on_c, 11, 71, 0
15, 120120, Note_on_c, 11, 73, 90
15, 120149, Note_on_c, 11, 73, 0
15, 120150, Note_on_c, 11, 74, 90
15, 120179, Note_on_c, 11, 74, 0
15, 120180, Note_on_c, 11, 73, 90
15, 120239, Note_on_c, 11, 73, 0
15, 120240, Note_on_c, 11, 70, 90
15, 120299, Note_on_c, 11, 70, 0
15, 120300, Note_on_c, 11, 66, 90
15, 120359, Note_on_c, 11, 66, 0
15, 120360, Note_on_c, 11, 69, 90
15, 120479, Note_on_c, 11, 69, 0
15, 120480, Note_on_c, 11, 71, 90
15, 120509, Note_on_c, 11, 71, 0
15, 120510, Note_on_c, 11, 72, 90
15, 120539, Note_on_c, 11, 72, 0
15, 120540, Note_on_c, 11, 71, 90
15, 120599, Note_on_c, 11, 71, 0
15, 120600, Note_on_c, 11, 69, 90
15, 120659, Note_on_c, 11, 69, 0
15, 120660, Note_on_c, 11, 75, 90
15, 120719, Note_on_c, 11, 75, 0
15, 120720, Note_on_c, 11, 76, 90
15, 120779, Note_on_c, 11, 76, 0
15, 120780, Note_on_c, 11, 64, 90
15, 120839, Note_on_c, 11, 64, 0
15, 120840, Note_on_c, 11, 66, 90
15, 120899, Note_on_c, 11, 66, 0
15, 120900, Note_on_c, 11, 67, 90
15, 120959, Note_on_c, 11, 67, 0
15, 120960, Note_on_c, 11, 69, 90
15, 120989, Note_on_c, 11, 69, 0
15, 120990, Note_on_c, 11, 67, 90
15, 121019, Note_on_c, 11, 67, 0
15, 121020, Note_on_c, 11, 66, 90
15, 121079, Note_on_c, 11, 66, 0
15, 121080, Note_on_c, 11, 64, 90
15, 121139, Note_on_c, 11, 64, 0
15, 121140, Note_on_c, 11, 73, 90
15, 121259, Note_on_c, 11, 73, 0
15, 121260, Note_on_c, 11, 74, 90
15, 121319, Note_on_c, 11, 74, 0
15, 121320, Note_on_c, 11, 68, 90
15, 121439, Note_on_c, 11, 68, 0
15, 121440, Note_on_c, 11, 69, 90
15, 121469, Note_on_c, 11, 69, 0
15, 121470, Note_on_c, 11, 71, 90
15, 121499, Note_on_c, 11, 71, 0
15, 121500, Note_on_c, 11, 69, 90
15, 121559, Note_on_c, 11, 69, 0
15, 121560, Note_on_c, 11, 68, 90
15, 121619, Note_on_c, 11, 68, 0
15, 121620, Note_on_c, 11, 69, 90
15, 121679, Note_on_c, 11, 69, 0
15, 121680, Note_on_c, 11, 62, 90
15, 121739, Note_on_c, 11, 62, 0
15, 121740, Note_on_c, 11, 61, 90
15, 121799, Note_on_c, 11, 61, 0
15, 121800, Note_on_c, 11, 67, 90
15, 121859, Note_on_c, 11, 67, 0
15, 121860, Note_on_c, 11, 66, 90
15, 121919, Note_on_c, 11, 66, 0
15, 121920, Note_on_c, 11, 69, 90
15, 121949, Note_on_c, 11, 69, 0
15, 121950, Note_on_c, 11, 67, 90
15, 121979, Note_on_c, 11, 67, 0
15, 121980, Note_on_c, 11, 66, 90
15, 122039, Note_on_c, 11, 66, 0
15, 122040, Note_on_c, 11, 64, 90
15, 122099, Note_on_c, 11, 64, 0
15, 122100, Note_on_c, 11, 62, 90
15, 122220, Note_on_c, 11, 62, 0
15, 122340, Note_on_c, 11, 69, 90
15, 122399, Note_on_c, 11, 69, 0
15, 122400, Note_on_c, 11, 71, 90
15, 122519, Note_on_c, 11, 71, 0
15, 122520, Note_on_c, 11, 69, 90
15, 122549, Note_on_c, 11, 69, 0
15, 122550, Note_on_c, 11, 67, 90
15, 122579, Note_on_c, 11, 67, 0
15, 122580, Note_on_c, 11, 69, 90
15, 122639, Note_on_c, 11, 69, 0
15, 122640, Note_on_c, 11, 73, 90
15, 122699, Note_on_c, 11, 73, 0
15, 122700, Note_on_c, 11, 74, 90
15, 122759, Note_on_c, 11, 74, 0
15, 122760, Note_on_c, 11, 72, 90
15, 122819, Note_on_c, 11, 72, 0
15, 122820, Note_on_c, 11, 71, 90
15, 122879, Note_on_c, 11, 71, 0
15, 122880, Note_on_c, 11, 69, 90
15, 122999, Note_on_c, 11, 69, 0
15, 123000, Note_on_c, 11, 67, 90
15, 123029, Note_on_c, 11, 67, 0
15, 123030, Note_on_c, 11, 66, 90
15, 123059, Note_on_c, 11, 66, 0
15, 123060, Note_on_c, 11, 67, 90
15, 123119, Note_on_c, 11, 67, 0
15, 123120, Note_on_c, 11, 63, 90
15, 123179, Note_on_c, 11, 63, 0
15, 123180, Note_on_c, 11, 64, 90
15, 123239, Note_on_c, 11, 64, 0
15, 123240, Note_on_c, 11, 67, 90
15, 123359, Note_on_c, 11, 67, 0
15, 123360, Note_on_c, 11, 66, 90
15, 123419, Note_on_c, 11, 66, 0
15, 123420, Note_on_c, 11, 64, 90
15, 123479, Note_on_c, 11, 64, 0
15, 123480, Note_on_c, 11, 62, 90
15, 123509, Note_on_c, 11, 62, 0
15, 123510, Note_on_c, 11, 61, 90
15, 123539, Note_on_c, 11, 61, 0
15, 123540, Note_on_c, 11, 62, 90
15, 123569, Note_on_c, 11, 62, 0
15, 123570, Note_on_c, 11, 64, 90
15, 123599, Note_on_c, 11, 64, 0
15, 123600, Note_on_c, 11, 66, 90
15, 123659, Note_on_c, 11, 66, 0
15, 123660, Note_on_c, 11, 59, 90
15, 123719, Note_on_c, 11, 59, 0
15, 123900, Note_on_c, 11, 66, 90
15, 124079, Note_on_c, 11, 66, 0
15, 124080, Note_on_c, 11, 67, 90
15, 124109, Note_on_c, 11, 67, 0
15, 124110, Note_on_c, 11, 69, 90
15, 124139, Note_on_c, 11, 69, 0
15, 124140, Note_on_c, 11, 67, 90
15, 124199, Note_on_c, 11, 67, 0
15, 124200, Note_on_c, 11, 66, 90
15, 124259, Note_on_c, 11, 66, 0
15, 124260, Note_on_c, 11, 64, 90
15, 124560, Note_on_c, 11, 64, 0
15, 124560, Note_on_c, 11, 70, 90
15, 124619, Note_on_c, 11, 70, 0
15, 124620, Note_on_c, 11, 71, 90
15, 124679, Note_on_c, 11, 71, 0
15, 124680, Note_on_c, 11, 74, 90
15, 124739, Note_on_c, 11, 74, 0
15, 124740, Note_on_c, 11, 65, 90
15, 124799, Note_on_c, 11, 65, 0
15, 124800, Note_on_c, 11, 66, 90
15, 124829, Note_on_c, 11, 66, 0
15, 124830, Note_on_c, 11, 68, 90
15, 124859, Note_on_c, 11, 68, 0
15, 124860, Note_on_c, 11, 66, 90
15, 124919, Note_on_c, 11, 66, 0
15, 124920, Note_on_c, 11, 65, 90
15, 124979, Note_on_c, 11, 65, 0
15, 124980, Note_on_c, 11, 66, 90
15, 125339, Note_on_c, 11, 66, 0
15, 125340, Note_on_c, 11, 66, 90
15, 125519, Note_on_c, 11, 66, 0
15, 125520, Note_on_c, 11, 62, 90
15, 125579, Note_on_c, 11, 62, 0
15, 125580, Note_on_c, 11, 71, 90
15, 125609, Note_on_c, 11, 71, 0
15, 125610, Note_on_c, 11, 69, 90
15, 125639, Note_on_c, 11, 69, 0
15, 125640, Note_on_c, 11, 67, 90
15, 125669, Note_on_c, 11, 67, 0
15, 125670, Note_on_c, 11, 66, 90
15, 125699, Note_on_c, 11, 66, 0
15, 125700, Note_on_c, 11, 64, 90
15, 126000, Note_on_c, 11, 64, 0
15, 126000, Note_on_c, 11, 73, 90
15, 126029, Note_on_c, 11, 73, 0
15, 126030, Note_on_c, 11, 71, 90
15, 126059, Note_on_c, 11, 71, 0
15, 126060, Note_on_c, 11, 70, 90
15, 126089, Note_on_c, 11, 70, 0
15, 126090, Note_on_c, 11, 67, 90
15, 126119, Note_on_c, 11, 67, 0
15, 126120, Note_on_c, 11, 66, 90
15, 126149, Note_on_c, 11, 66, 0
15, 126150, Note_on_c, 11, 64, 90
15, 126179, Note_on_c, 11, 64, 0
15, 126180, Note_on_c, 11, 62, 90
15, 126239, Note_on_c, 11, 62, 0
15, 126240, Note_on_c, 11, 72, 90
15, 126359, Note_on_c, 11, 72, 0
15, 126360, Note_on_c, 11, 71, 90
15, 126419, Note_on_c, 11, 71, 0
15, 126420, Note_on_c, 11, 70, 90
15, 126479, Note_on_c, 11, 70, 0
15, 126480, Note_on_c, 11, 71, 90
15, 126599, Note_on_c, 11, 71, 0
15, 126600, Note_on_c, 11, 64, 90
15, 126659, Note_on_c, 11, 64, 0
15, 126660, Note_on_c, 11, 62, 90
15, 126779, Note_on_c, 11, 62, 0
15, 126780, Note_on_c, 11, 61, 90
15, 126839, Note_on_c, 11, 61, 0
15, 126840, Note_on_c, 11, 59, 90
15, 126899, Note_on_c, 11, 59, 0
15, 126900, Note_on_c, 11, 59, 90
15, 127019, Note_on_c, 11, 59, 0
15, 130200, Control_c, 11, 0, 0
15, 130200, Program_c, 11, 71
15, 130200, Note_on_c, 11, 64, 110
15, 130259, Note_on_c, 11, 64, 0
15, 130260, Note_on_c, 11, 69, 110
15, 130319, Note_on_c, 11, 69, 0
15, 130350, Note_on_c, 11, 71, 110
15, 130379, Note_on_c, 11, 71, 0
15, 130380, Note_on_c, 11, 67, 110
15, 130439, Note_on_c, 11, 67, 0
15, 130440, Note_on_c, 11, 64, 110
15, 130499, Note_on_c, 11, 64, 0
15, 130500, Note_on_c, 11, 66, 110
15, 130559, Note_on_c, 11, 66, 0
15, 130560, Note_on_c, 11, 67, 110
15, 130619, Note_on_c, 11, 67, 0
15, 130620, Note_on_c, 11, 66, 110
15, 130679, Note_on_c, 11, 66, 0
15, 130680, Note_on_c, 11, 66, 110
15, 130739, Note_on_c, 11, 66, 0
15, 130800, Note_on_c, 11, 62, 110
15, 130859, Note_on_c, 11, 62, 0
15, 130860, Note_on_c, 11, 69, 110
15, 130919, Note_on_c, 11, 69, 0
15, 130920, Note_on_c, 11, 69, 110
15, 130979, Note_on_c, 11, 69, 0
15, 130980, Note_on_c, 11, 69, 110
15, 131039, Note_on_c, 11, 69, 0
15, 131040, Note_on_c, 11, 71, 110
15, 131099, Note_on_c, 11, 71, 0
15, 131100, Note_on_c, 11, 72, 110
15, 131159, Note_on_c, 11, 72, 0
15, 131160, Note_on_c, 11, 67, 110
15, 131219, Note_on_c, 11, 67, 0
15, 131220, Note_on_c, 11, 64, 110
15, 131279, Note_on_c, 11, 64, 0
15, 131310, Note_on_c, 11, 67, 110
15, 131339, Note_on_c, 11, 67, 0
15, 131340, Note_on_c, 11, 72, 110
15, 131399, Note_on_c, 11, 72, 0
15, 131400, Note_on_c, 11, 72, 110
15, 131459, Note_on_c, 11, 72, 0
15, 131460, Note_on_c, 11, 76, 110
15, 131519, Note_on_c, 11, 76, 0
15, 131520, Note_on_c, 11, 72, 110
15, 131579, Note_on_c, 11, 72, 0
15, 131580, Note_on_c, 11, 69, 110
15, 131639, Note_on_c, 11, 69, 0
15, 131760, Note_on_c, 11, 69, 110
15, 131819, Note_on_c, 11, 69, 0
15, 131820, Note_on_c, 11, 74, 110
15, 131879, Note_on_c, 11, 74, 0
15, 131880, Note_on_c, 11, 69, 110
15, 131939, Note_on_c, 11, 69, 0
15, 131940, Note_on_c, 11, 69, 110
15, 131999, Note_on_c, 11, 69, 0
15, 132000, Note_on_c, 11, 72, 110
15, 132059, Note_on_c, 11, 72, 0
15, 132060, Note_on_c, 11, 71, 110
15, 132119, Note_on_c, 11, 71, 0
15, 132120, Note_on_c, 11, 67, 110
15, 132179, Note_on_c, 11, 67, 0
15, 132180, Note_on_c, 11, 67, 110
15, 132239, Note_on_c, 11, 67, 0
15, 132240, Note_on_c, 11, 62, 110
15, 132299, Note_on_c, 11, 62, 0
15, 132660, Control_c, 11, 0, 40
15, 132660, Control_c, 11, 0, 40
15, 132660, Control_c, 11, 0, 40
15, 132660, Program_c, 11, 52
15, 132660, Note_on_c, 11, 62, 90
15, 132779, Note_on_c, 11, 62, 0
15, 132780, Note_on_c, 11, 64, 90
15, 132899, Note_on_c, 11, 64, 0
15, 132900, Note_on_c, 11, 62, 90
15, 133019, Note_on_c, 11, 62, 0
15, 133020, Note_on_c, 11, 62, 90
15, 133139, Note_on_c, 11, 62, 0
15, 133140, Note_on_c, 11, 64, 90
15, 133259, Note_on_c, 11, 64, 0
15, 133260, Note_on_c, 11, 65, 90
15, 133379, Note_on_c, 11, 65, 0
15, 133380, Note_on_c, 11, 67, 90
15, 133619, Note_on_c, 11, 67, 0
15, 133620, Note_on_c, 11, 67, 90
15, 133859, Note_on_c, 11, 67, 0
15, 133860, Note_on_c, 11, 71, 90
15, 133919, Note_on_c, 11, 71, 0
15, 133920, Note_on_c, 11, 69, 90
15, 133979, Note_on_c, 11, 69, 0
15, 133980, Note_on_c, 11, 71, 90
15, 134099, Note_on_c, 11, 71, 0
15, 134100, Note_on_c, 11, 69, 90
15, 134339, Note_on_c, 11, 69, 0
15, 134340, Note_on_c, 11, 67, 90
15, 134459, Note_on_c, 11, 67, 0
15, 134460, Note_on_c, 11, 67, 90
15, 134579, Note_on_c, 11, 67, 0
15, 134580, Note_on_c, 11, 66, 90
15, 134819, Note_on_c, 11, 66, 0
15, 134820, Note_on_c, 11, 66, 90
15, 134939, Note_on_c, 11, 66, 0
15, 134940, Note_on_c, 11, 67, 90
15, 135059, Note_on_c, 11, 67, 0
15, 135060, Note_on_c, 11, 67, 90
15, 135179, Note_on_c, 11, 67, 0
15, 135180, Note_on_c, 11, 67, 90
15, 135299, Note_on_c, 11, 67, 0
15, 135300, Note_on_c, 11, 67, 90
15, 135419, Note_on_c, 11, 67, 0
15, 135420, Note_on_c, 11, 66, 90
15, 135539, Note_on_c, 11, 66, 0
15, 135540, Note_on_c, 11, 62, 90
15, 135779, Note_on_c, 11, 62, 0
15, 135780, Note_on_c, 11, 64, 90
15, 135899, Note_on_c, 11, 64, 0
15, 135900, Note_on_c, 11, 59, 90
15, 135959, Note_on_c, 11, 59, 0
15, 135960, Note_on_c, 11, 61, 90
15, 136019, Note_on_c, 11, 61, 0
15, 136020, Note_on_c, 11, 62, 90
15, 136079, Note_on_c, 11, 62, 0
15, 136080, Note_on_c, 11, 60, 90
15, 136139, Note_on_c, 11, 60, 0
15, 136140, Note_on_c, 11, 59, 90
15, 136259, Note_on_c, 11, 59, 0
15, 136260, Note_on_c, 11, 60, 90
15, 136319, Note_on_c, 11, 60, 0
15, 136320, Note_on_c, 11, 62, 90
15, 136379, Note_on_c, 11, 62, 0
15, 136380, Note_on_c, 11, 60, 90
15, 136439, Note_on_c, 11, 60, 0
15, 136440, Note_on_c, 11, 62, 90
15, 136499, Note_on_c, 11, 62, 0
15, 136500, Note_on_c, 11, 64, 90
15, 136619, Note_on_c, 11, 64, 0
15, 136620, Note_on_c, 11, 62, 90
15, 136739, Note_on_c, 11, 62, 0
15, 136740, Note_on_c, 11, 60, 90
15, 136979, Note_on_c, 11, 60, 0
15, 136980, Note_on_c, 11, 66, 90
15, 137099, Note_on_c, 11, 66, 0
15, 137100, Note_on_c, 11, 68, 90
15, 137219, Note_on_c, 11, 68, 0
15, 137220, Note_on_c, 11, 64, 90
15, 137459, Note_on_c, 11, 64, 0
15, 137460, Note_on_c, 11, 67, 90
15, 137579, Note_on_c, 11, 67, 0
15, 137580, Note_on_c, 11, 66, 90
15, 137639, Note_on_c, 11, 66, 0
15, 137640, Note_on_c, 11, 67, 90
15, 137699, Note_on_c, 11, 67, 0
15, 137700, Note_on_c, 11, 69, 90
15, 137939, Note_on_c, 11, 69, 0
15, 137940, Note_on_c, 11, 67, 90
15, 138059, Note_on_c, 11, 67, 0
15, 138060, Note_on_c, 11, 67, 90
15, 138119, Note_on_c, 11, 67, 0
15, 138120, Note_on_c, 11, 66, 90
15, 138179, Note_on_c, 11, 66, 0
15, 138180, Note_on_c, 11, 67, 90
15, 138239, Note_on_c, 11, 67, 0
15, 138240, Note_on_c, 11, 69, 90
15, 138299, Note_on_c, 11, 69, 0
15, 138300, Note_on_c, 11, 62, 90
15, 138359, Note_on_c, 11, 62, 0
15, 138360, Note_on_c, 11, 64, 90
15, 138419, Note_on_c, 11, 64, 0
15, 138420, Note_on_c, 11, 66, 90
15, 138479, Note_on_c, 11, 66, 0
15, 138480, Note_on_c, 11, 67, 90
15, 138599, Note_on_c, 11, 67, 0
15, 138600, Note_on_c, 11, 66, 90
15, 138659, Note_on_c, 11, 66, 0
15, 138660, Note_on_c, 11, 62, 90
15, 138899, Note_on_c, 11, 62, 0
15, 141900, Note_on_c, 11, 61, 90
15, 142019, Note_on_c, 11, 61, 0
15, 142020, Note_on_c, 11, 66, 90
15, 142139, Note_on_c, 11, 66, 0
15, 142140, Note_on_c, 11, 65, 90
15, 142259, Note_on_c, 11, 65, 0
15, 142260, Note_on_c, 11, 66, 90
15, 142379, Note_on_c, 11, 66, 0
15, 142380, Note_on_c, 11, 66, 90
15, 142499, Note_on_c, 11, 66, 0
15, 142500, Note_on_c, 11, 66, 90
15, 142619, Note_on_c, 11, 66, 0
15, 142620, Note_on_c, 11, 65, 90
15, 142739, Note_on_c, 11, 65, 0
15, 142740, Note_on_c, 11, 61, 90
15, 142859, Note_on_c, 11, 61, 0
15, 142860, Note_on_c, 11, 66, 90
15, 142979, Note_on_c, 11, 66, 0
15, 142980, Note_on_c, 11, 66, 90
15, 143039, Note_on_c, 11, 66, 0
15, 143040, Note_on_c, 11, 65, 90
15, 143099, Note_on_c, 11, 65, 0
15, 143100, Note_on_c, 11, 66, 90
15, 143219, Note_on_c, 11, 66, 0
15, 143220, Note_on_c, 11, 65, 90
15, 143339, Note_on_c, 11, 65, 0
15, 143340, Note_on_c, 11, 65, 90
15, 143459, Note_on_c, 11, 65, 0
15, 143460, Note_on_c, 11, 66, 90
15, 143579, Note_on_c, 11, 66, 0
15, 143580, Note_on_c, 11, 66, 90
15, 143699, Note_on_c, 11, 66, 0
15, 143700, Note_on_c, 11, 66, 90
15, 143759, Note_on_c, 11, 66, 0
15, 143760, Note_on_c, 11, 68, 90
15, 143789, Note_on_c, 11, 68, 0
15, 143790, Note_on_c, 11, 69, 90
15, 143819, Note_on_c, 11, 69, 0
15, 143820, Note_on_c, 11, 68, 90
15, 143939, Note_on_c, 11, 68, 0
15, 143940, Note_on_c, 11, 68, 90
15, 143999, Note_on_c, 11, 68, 0
15, 144000, Note_on_c, 11, 66, 90
15, 144059, Note_on_c, 11, 66, 0
15, 144060, Note_on_c, 11, 65, 90
15, 144119, Note_on_c, 11, 65, 0
15, 144120, Note_on_c, 11, 66, 90
15, 144179, Note_on_c, 11, 66, 0
15, 144180, Note_on_c, 11, 68, 90
15, 144359, Note_on_c, 11, 68, 0
15, 144360, Note_on_c, 11, 66, 90
15, 144419, Note_on_c, 11, 66, 0
15, 144420, Note_on_c, 11, 66, 90
15, 144539, Note_on_c, 11, 66, 0
15, 144540, Note_on_c, 11, 65, 90
15, 144659, Note_on_c, 11, 65, 0
15, 144660, Note_on_c, 11, 61, 90
15, 144779, Note_on_c, 11, 61, 0
15, 144780, Note_on_c, 11, 66, 90
15, 144899, Note_on_c, 11, 66, 0
15, 144900, Note_on_c, 11, 66, 90
15, 144959, Note_on_c, 11, 66, 0
15, 144960, Note_on_c, 11, 65, 90
15, 145019, Note_on_c, 11, 65, 0
15, 145020, Note_on_c, 11, 66, 90
15, 145139, Note_on_c, 11, 66, 0
15, 145140, Note_on_c, 11, 65, 90
15, 145259, Note_on_c, 11, 65, 0
15, 145260, Note_on_c, 11, 66, 90
15, 145319, Note_on_c, 11, 66, 0
15, 145320, Note_on_c, 11, 64, 90
15, 145379, Note_on_c, 11, 64, 0
15, 145380, Note_on_c, 11, 63, 90
15, 145439, Note_on_c, 11, 63, 0
15, 145440, Note_on_c, 11, 64, 90
15, 145499, Note_on_c, 11, 64, 0
15, 145500, Note_on_c, 11, 66, 90
15, 145559, Note_on_c, 11, 66, 0
15, 145560, Note_on_c, 11, 63, 90
15, 145619, Note_on_c, 11, 63, 0
15, 145620, Note_on_c, 11, 64, 90
15, 145739, Note_on_c, 11, 64, 0
15, 145740, Note_on_c, 11, 68, 90
15, 145799, Note_on_c, 11, 68, 0
15, 145800, Note_on_c, 11, 65, 90
15, 145859, Note_on_c, 11, 65, 0
15, 145860, Note_on_c, 11, 66, 90
15, 145979, Note_on_c, 11, 66, 0
15, 145980, Note_on_c, 11, 69, 90
15, 146039, Note_on_c, 11, 69, 0
15, 146040, Note_on_c, 11, 66, 90
15, 146099, Note_on_c, 11, 66, 0
15, 146100, Note_on_c, 11, 62, 90
15, 146219, Note_on_c, 11, 62, 0
15, 146220, Note_on_c, 11, 71, 90
15, 146279, Note_on_c, 11, 71, 0
15, 146280, Note_on_c, 11, 68, 90
15, 146339, Note_on_c, 11, 68, 0
15, 146340, Note_on_c, 11, 69, 90
15, 146399, Note_on_c, 11, 69, 0
15, 146400, Note_on_c, 11, 68, 90
15, 146459, Note_on_c, 11, 68, 0
15, 146460, Note_on_c, 11, 66, 90
15, 146639, Note_on_c, 11, 66, 0
15, 146640, Note_on_c, 11, 65, 90
15, 146699, Note_on_c, 11, 65, 0
15, 146700, Note_on_c, 11, 66, 90
15, 146879, Note_on_c, 11, 66, 0
15, 146880, Note_on_c, 11, 65, 90
15, 146910, Note_on_c, 11, 65, 0
15, 146910, Note_on_c, 11, 63, 90
15, 146940, Note_on_c, 11, 63, 0
15, 146940, Note_on_c, 11, 65, 90
15, 147060, Note_on_c, 11, 65, 0
15, 147060, Note_on_c, 11, 61, 90
15, 147180, Note_on_c, 11, 61, 0
15, 151620, Note_on_c, 11, 69, 100
15, 151680, Note_on_c, 11, 69, 0
15, 151680, Note_on_c, 11, 66, 100
15, 151740, Note_on_c, 11, 66, 0
15, 151740, Note_on_c, 11, 67, 100
15, 151800, Note_on_c, 11, 67, 0
15, 151800, Note_on_c, 11, 69, 100
15, 151860, Note_on_c, 11, 69, 0
15, 151860, Note_on_c, 11, 74, 83
15, 151920, Note_on_c, 11, 74, 0
15, 151920, Note_on_c, 11, 69, 83
15, 151980, Note_on_c, 11, 69, 0
15, 151980, Note_on_c, 11, 71, 83
15, 152040, Note_on_c, 11, 71, 0
15, 152040, Note_on_c, 11, 72, 83
15, 152070, Note_on_c, 11, 72, 0
15, 152070, Note_on_c, 11, 71, 83
15, 152100, Note_on_c, 11, 71, 0
15, 152100, Note_on_c, 11, 69, 83
15, 152130, Note_on_c, 11, 69, 0
15, 152130, Note_on_c, 11, 67, 83
15, 152160, Note_on_c, 11, 67, 0
15, 152160, Note_on_c, 11, 69, 83
15, 152220, Note_on_c, 11, 69, 0
15, 152220, Note_on_c, 11, 66, 83
15, 152250, Note_on_c, 11, 66, 0
15, 152250, Note_on_c, 11, 64, 83
15, 152280, Note_on_c, 11, 64, 0
15, 152280, Note_on_c, 11, 66, 83
15, 152310, Note_on_c, 11, 66, 0
15, 152310, Note_on_c, 11, 67, 83
15, 152340, Note_on_c, 11, 67, 0
15, 152340, Note_on_c, 11, 69, 83
15, 152370, Note_on_c, 11, 69, 0
15, 152370, Note_on_c, 11, 67, 83
15, 152400, Note_on_c, 11, 67, 0
15, 152400, Note_on_c, 11, 71, 83
15, 152430, Note_on_c, 11, 71, 0
15, 152430, Note_on_c, 11, 69, 83
15, 152460, Note_on_c, 11, 69, 0
15, 152460, Note_on_c, 11, 67, 83
15, 152490, Note_on_c, 11, 67, 0
15, 152490, Note_on_c, 11, 66, 83
15, 152520, Note_on_c, 11, 66, 0
15, 152520, Note_on_c, 11, 67, 83
15, 152550, Note_on_c, 11, 67, 0
15, 152550, Note_on_c, 11, 66, 83
15, 152580, Note_on_c, 11, 66, 0
15, 152580, Note_on_c, 11, 64, 83
15, 152610, Note_on_c, 11, 64, 0
15, 152610, Note_on_c, 11, 62, 83
15, 152640, Note_on_c, 11, 62, 0
15, 152640, Note_on_c, 11, 64, 83
15, 152670, Note_on_c, 11, 64, 0
15, 152670, Note_on_c, 11, 66, 83
15, 152700, Note_on_c, 11, 66, 0
15, 152700, Note_on_c, 11, 67, 83
15, 152730, Note_on_c, 11, 67, 0
15, 152730, Note_on_c, 11, 66, 83
15, 152760, Note_on_c, 11, 66, 0
15, 152760, Note_on_c, 11, 69, 83
15, 152790, Note_on_c, 11, 69, 0
15, 152790, Note_on_c, 11, 67, 83
15, 152820, Note_on_c, 11, 67, 0
15, 152820, Note_on_c, 11, 66, 83
15, 152850, Note_on_c, 11, 66, 0
15, 152850, Note_on_c, 11, 64, 83
15, 152880, Note_on_c, 11, 64, 0
15, 152880, Note_on_c, 11, 66, 83
15, 152910, Note_on_c, 11, 66, 0
15, 152910, Note_on_c, 11, 64, 83
15, 152940, Note_on_c, 11, 64, 0
15, 152940, Note_on_c, 11, 62, 83
15, 152970, Note_on_c, 11, 62, 0
15, 152970, Note_on_c, 11, 66, 83
15, 153000, Note_on_c, 11, 66, 0
15, 153000, Note_on_c, 11, 64, 83
15, 153030, Note_on_c, 11, 64, 0
15, 153030, Note_on_c, 11, 67, 83
15, 153060, Note_on_c, 11, 67, 0
15, 153060, Note_on_c, 11, 66, 100
15, 153120, Note_on_c, 11, 66, 0
15, 153120, Note_on_c, 11, 66, 83
15, 153150, Note_on_c, 11, 66, 0
15, 153150, Note_on_c, 11, 66, 83
15, 153180, Note_on_c, 11, 66, 0
15, 153180, Note_on_c, 11, 66, 83
15, 153240, Note_on_c, 11, 66, 0
15, 153240, Note_on_c, 11, 66, 100
15, 153300, Note_on_c, 11, 66, 0
15, 153300, Note_on_c, 11, 62, 83
15, 153330, Note_on_c, 11, 62, 0
15, 153330, Note_on_c, 11, 64, 83
15, 153360, Note_on_c, 11, 64, 0
15, 153360, Note_on_c, 11, 66, 83
15, 153390, Note_on_c, 11, 66, 0
15, 153390, Note_on_c, 11, 67, 83
15, 153420, Note_on_c, 11, 67, 0
15, 153420, Note_on_c, 11, 69, 100
15, 153480, Note_on_c, 11, 69, 0
15, 153480, Note_on_c, 11, 67, 83
15, 153540, Note_on_c, 11, 67, 0
15, 153540, Note_on_c, 11, 66, 83
15, 153600, Note_on_c, 11, 66, 0
15, 153600, Note_on_c, 11, 67, 100
15, 153690, Note_on_c, 11, 67, 0
15, 153690, Note_on_c, 11, 69, 83
15, 153705, Note_on_c, 11, 69, 0
15, 153705, Note_on_c, 11, 71, 83
15, 153720, Note_on_c, 11, 71, 0
15, 153720, Note_on_c, 11, 69, 83
15, 153780, Note_on_c, 11, 69, 0
15, 153780, Note_on_c, 11, 67, 100
15, 153840, Note_on_c, 11, 67, 0
15, 153840, Note_on_c, 11, 67, 83
15, 153900, Note_on_c, 11, 67, 0
15, 153900, Note_on_c, 11, 67, 83
15, 153960, Note_on_c, 11, 67, 0
15, 153960, Note_on_c, 11, 67, 100
15, 154020, Note_on_c, 11, 67, 0
15, 154020, Note_on_c, 11, 64, 83
15, 154050, Note_on_c, 11, 64, 0
15, 154050, Note_on_c, 11, 62, 83
15, 154080, Note_on_c, 11, 62, 0
15, 154080, Note_on_c, 11, 64, 83
15, 154110, Note_on_c, 11, 64, 0
15, 154110, Note_on_c, 11, 66, 83
15, 154140, Note_on_c, 11, 66, 0
15, 154140, Note_on_c, 11, 67, 100
15, 154170, Note_on_c, 11, 67, 0
15, 154170, Note_on_c, 11, 66, 83
15, 154200, Note_on_c, 11, 66, 0
15, 154200, Note_on_c, 11, 69, 83
15, 154230, Note_on_c, 11, 69, 0
15, 154230, Note_on_c, 11, 67, 83
15, 154260, Note_on_c, 11, 67, 0
15, 154260, Note_on_c, 11, 66, 83
15, 154290, Note_on_c, 11, 66, 0
15, 154290, Note_on_c, 11, 64, 83
15, 154320, Note_on_c, 11, 64, 0
15, 154320, Note_on_c, 11, 66, 100
15, 154410, Note_on_c, 11, 66, 0
15, 154410, Note_on_c, 11, 67, 83
15, 154425, Note_on_c, 11, 67, 0
15, 154425, Note_on_c, 11, 69, 83
15, 154440, Note_on_c, 11, 69, 0
15, 154440, Note_on_c, 11, 67, 83
15, 154475, Note_on_c, 11, 67, 0
15, 154500, Note_on_c, 11, 66, 100
15, 154560, Note_on_c, 11, 66, 0
15, 154560, Note_on_c, 11, 68, 83
15, 154620, Note_on_c, 11, 68, 0
15, 154620, Note_on_c, 11, 69, 83
15, 154680, Note_on_c, 11, 69, 0
15, 154680, Note_on_c, 11, 71, 100
15, 154710, Note_on_c, 11, 71, 0
15, 154710, Note_on_c, 11, 73, 83
15, 154740, Note_on_c, 11, 73, 0
15, 154740, Note_on_c, 11, 74, 83
15, 154800, Note_on_c, 11, 74, 0
15, 154800, Note_on_c, 11, 73, 83
15, 154860, Note_on_c, 11, 73, 0
15, 154860, Note_on_c, 11, 71, 83
15, 154920, Note_on_c, 11, 71, 0
15, 154920, Note_on_c, 11, 69, 100
15, 154980, Note_on_c, 11, 69, 0
15, 154980, Note_on_c, 11, 68, 83
15, 155040, Note_on_c, 11, 68, 0
15, 155040, Note_on_c, 11, 69, 83
15, 155160, Note_on_c, 11, 69, 0
15, 155160, Note_on_c, 11, 64, 83
15, 155220, Note_on_c, 11, 64, 0
15, 155220, Note_on_c, 11, 69, 100
15, 155460, Note_on_c, 11, 69, 0
15, 155460, Note_on_c, 11, 64, 83
15, 155490, Note_on_c, 11, 64, 0
15, 155490, Note_on_c, 11, 62, 83
15, 155520, Note_on_c, 11, 62, 0
15, 155520, Note_on_c, 11, 64, 83
15, 155550, Note_on_c, 11, 64, 0
15, 155550, Note_on_c, 11, 66, 83
15, 155580, Note_on_c, 11, 66, 0
15, 155580, Note_on_c, 11, 67, 83
15, 155700, Note_on_c, 11, 67, 0
15, 155700, Note_on_c, 11, 66, 83
15, 155760, Note_on_c, 11, 66, 0
15, 155760, Note_on_c, 11, 64, 83
15, 155940, Note_on_c, 11, 64, 0
15, 160260, Note_on_c, 11, 64, 100
15, 160320, Note_on_c, 11, 64, 0
15, 160320, Note_on_c, 11, 61, 100
15, 160380, Note_on_c, 11, 61, 0
15, 160380, Note_on_c, 11, 62, 100
15, 160440, Note_on_c, 11, 62, 0
15, 160440, Note_on_c, 11, 64, 100
15, 160500, Note_on_c, 11, 64, 0
15, 160500, Note_on_c, 11, 67, 83
15, 160560, Note_on_c, 11, 67, 0
15, 160560, Note_on_c, 11, 66, 83
15, 160620, Note_on_c, 11, 66, 0
15, 160620, Note_on_c, 11, 67, 83
15, 160680, Note_on_c, 11, 67, 0
15, 160680, Note_on_c, 11, 69, 83
15, 160710, Note_on_c, 11, 69, 0
15, 160710, Note_on_c, 11, 67, 83
15, 160740, Note_on_c, 11, 67, 0
15, 160740, Note_on_c, 11, 66, 83
15, 160770, Note_on_c, 11, 66, 0
15, 160770, Note_on_c, 11, 64, 83
15, 160800, Note_on_c, 11, 64, 0
15, 160800, Note_on_c, 11, 66, 83
15, 160830, Note_on_c, 11, 66, 0
15, 160830, Note_on_c, 11, 64, 83
15, 160860, Note_on_c, 11, 64, 0
15, 160860, Note_on_c, 11, 62, 83
15, 160890, Note_on_c, 11, 62, 0
15, 160890, Note_on_c, 11, 64, 83
15, 160920, Note_on_c, 11, 64, 0
15, 160920, Note_on_c, 11, 66, 83
15, 160950, Note_on_c, 11, 66, 0
15, 160950, Note_on_c, 11, 67, 83
15, 160980, Note_on_c, 11, 67, 0
15, 160980, Note_on_c, 11, 69, 83
15, 161010, Note_on_c, 11, 69, 0
15, 161010, Note_on_c, 11, 67, 83
15, 161040, Note_on_c, 11, 67, 0
15, 161040, Note_on_c, 11, 71, 83
15, 161070, Note_on_c, 11, 71, 0
15, 161070, Note_on_c, 11, 69, 83
15, 161100, Note_on_c, 11, 69, 0
15, 161100, Note_on_c, 11, 67, 83
15, 161130, Note_on_c, 11, 67, 0
15, 161130, Note_on_c, 11, 66, 83
15, 161160, Note_on_c, 11, 66, 0
15, 161160, Note_on_c, 11, 68, 83
15, 161190, Note_on_c, 11, 68, 0
15, 161190, Note_on_c, 11, 66, 83
15, 161220, Note_on_c, 11, 66, 0
15, 161220, Note_on_c, 11, 64, 83
15, 161250, Note_on_c, 11, 64, 0
15, 161250, Note_on_c, 11, 66, 83
15, 161280, Note_on_c, 11, 66, 0
15, 161280, Note_on_c, 11, 68, 83
15, 161310, Note_on_c, 11, 68, 0
15, 161310, Note_on_c, 11, 69, 83
15, 161340, Note_on_c, 11, 69, 0
15, 161340, Note_on_c, 11, 71, 83
15, 161370, Note_on_c, 11, 71, 0
15, 161370, Note_on_c, 11, 69, 83
15, 161400, Note_on_c, 11, 69, 0
15, 161400, Note_on_c, 11, 73, 83
15, 161430, Note_on_c, 11, 73, 0
15, 161430, Note_on_c, 11, 71, 83
15, 161460, Note_on_c, 11, 71, 0
15, 161460, Note_on_c, 11, 69, 83
15, 161490, Note_on_c, 11, 69, 0
15, 161490, Note_on_c, 11, 68, 83
15, 161520, Note_on_c, 11, 68, 0
15, 161520, Note_on_c, 11, 69, 83
15, 161580, Note_on_c, 11, 69, 0
15, 161580, Note_on_c, 11, 64, 83
15, 161640, Note_on_c, 11, 64, 0
15, 161640, Note_on_c, 11, 68, 83
15, 161700, Note_on_c, 11, 68, 0
15, 161700, Note_on_c, 11, 69, 83
15, 161760, Note_on_c, 11, 69, 0
15, 161760, Note_on_c, 11, 69, 100
15, 161790, Note_on_c, 11, 69, 0
15, 161790, Note_on_c, 11, 69, 83
15, 161820, Note_on_c, 11, 69, 0
15, 161820, Note_on_c, 11, 69, 83
15, 161880, Note_on_c, 11, 69, 0
15, 161880, Note_on_c, 11, 69, 100
15, 161940, Note_on_c, 11, 69, 0
15, 161940, Note_on_c, 11, 64, 83
15, 162000, Note_on_c, 11, 64, 0
15, 162000, Note_on_c, 11, 64, 83
15, 162060, Note_on_c, 11, 64, 0
15, 162060, Note_on_c, 11, 66, 100
15, 162120, Note_on_c, 11, 66, 0
15, 162120, Note_on_c, 11, 66, 83
15, 162180, Note_on_c, 11, 66, 0
15, 162180, Note_on_c, 11, 67, 83
15, 162240, Note_on_c, 11, 67, 0
15, 162240, Note_on_c, 11, 69, 100
15, 162300, Note_on_c, 11, 69, 0
15, 162300, Note_on_c, 11, 71, 83
15, 162360, Note_on_c, 11, 71, 0
15, 162360, Note_on_c, 11, 69, 83
15, 162420, Note_on_c, 11, 69, 0
15, 162420, Note_on_c, 11, 69, 100
15, 162480, Note_on_c, 11, 69, 0
15, 162480, Note_on_c, 11, 66, 83
15, 162540, Note_on_c, 11, 66, 0
15, 162540, Note_on_c, 11, 66, 83
15, 162600, Note_on_c, 11, 66, 0
15, 162600, Note_on_c, 11, 66, 100
15, 162660, Note_on_c, 11, 66, 0
15, 162660, Note_on_c, 11, 69, 83
15, 162690, Note_on_c, 11, 69, 0
15, 162690, Note_on_c, 11, 67, 83
15, 162720, Note_on_c, 11, 67, 0
15, 162720, Note_on_c, 11, 66, 83
15, 162750, Note_on_c, 11, 66, 0
15, 162750, Note_on_c, 11, 64, 83
15, 162780, Note_on_c, 11, 64, 0
15, 162780, Note_on_c, 11, 62, 100
15, 162840, Note_on_c, 11, 62, 0
15, 162840, Note_on_c, 11, 67, 83
15, 162900, Note_on_c, 11, 67, 0
15, 162900, Note_on_c, 11, 69, 83
15, 162960, Note_on_c, 11, 69, 0
15, 162960, Note_on_c, 11, 71, 100
15, 163020, Note_on_c, 11, 71, 0
15, 163020, Note_on_c, 11, 69, 83
15, 163050, Note_on_c, 11, 69, 0
15, 163050, Note_on_c, 11, 71, 83
15, 163080, Note_on_c, 11, 71, 0
15, 163080, Note_on_c, 11, 72, 83
15, 163140, Note_on_c, 11, 72, 0
15, 163140, Note_on_c, 11, 71, 100
15, 163200, Note_on_c, 11, 71, 0
15, 163200, Note_on_c, 11, 69, 83
15, 163230, Note_on_c, 11, 69, 0
15, 163230, Note_on_c, 11, 67, 83
15, 163260, Note_on_c, 11, 67, 0
15, 163260, Note_on_c, 11, 66, 83
15, 163290, Note_on_c, 11, 66, 0
15, 163290, Note_on_c, 11, 64, 83
15, 163320, Note_on_c, 11, 64, 0
15, 163320, Note_on_c, 11, 69, 83
15, 163380, Note_on_c, 11, 69, 0
15, 163380, Note_on_c, 11, 62, 83
15, 163440, Note_on_c, 11, 62, 0
15, 163440, Note_on_c, 11, 67, 100
15, 163500, Note_on_c, 11, 67, 0
15, 163500, Note_on_c, 11, 66, 83
15, 163560, Note_on_c, 11, 66, 0
15, 163560, Note_on_c, 11, 67, 83
15, 163620, Note_on_c, 11, 67, 0
15, 163620, Note_on_c, 11, 66, 83
15, 163680, Note_on_c, 11, 66, 0
15, 163680, Note_on_c, 11, 62, 83
15, 163800, Note_on_c, 11, 62, 0
15, 163980, Note_on_c, 11, 71, 100
15, 164040, Note_on_c, 11, 71, 0
15, 164040, Note_on_c, 11, 69, 100
15, 164100, Note_on_c, 11, 69, 0
15, 164100, Note_on_c, 11, 72, 83
15, 164160, Note_on_c, 11, 72, 0
15, 164160, Note_on_c, 11, 71, 83
15, 164220, Note_on_c, 11, 71, 0
15, 164220, Note_on_c, 11, 69, 83
15, 164280, Note_on_c, 11, 69, 0
15, 164280, Note_on_c, 11, 67, 83
15, 164310, Note_on_c, 11, 67, 0
15, 164310, Note_on_c, 11, 66, 83
15, 164340, Note_on_c, 11, 66, 0
15, 164340, Note_on_c, 11, 67, 83
15, 164400, Note_on_c, 11, 67, 0
15, 164400, Note_on_c, 11, 69, 83
15, 164580, Note_on_c, 11, 69, 0
15, 164580, End_track
16, 0, Start_track
16, 0, MIDI_port, 0
16, 0, Title_t, "tenor"
16, 0, Program_c, 12, 52
16, 0, Control_c, 12, 7, 127
16, 0, Control_c, 12, 10, 87
16, 2880, Note_on_c, 12, 62, 100
16, 2915, Note_on_c, 12, 62, 0
16, 2940, Note_on_c, 12, 62, 100
16, 2975, Note_on_c, 12, 62, 0
16, 3000, Note_on_c, 12, 62, 100
16, 3035, Note_on_c, 12, 62, 0
16, 3060, Note_on_c, 12, 62, 100
16, 3120, Note_on_c, 12, 62, 0
16, 3120, Note_on_c, 12, 66, 83
16, 3150, Note_on_c, 12, 66, 0
16, 3150, Note_on_c, 12, 64, 83
16, 3180, Note_on_c, 12, 64, 0
16, 3180, Note_on_c, 12, 62, 83
16, 3210, Note_on_c, 12, 62, 0
16, 3210, Note_on_c, 12, 61, 83
16, 3240, Note_on_c, 12, 61, 0
16, 3240, Note_on_c, 12, 62, 83
16, 3300, Note_on_c, 12, 62, 0
16, 3300, Note_on_c, 12, 61, 83
16, 3330, Note_on_c, 12, 61, 0
16, 3330, Note_on_c, 12, 59, 83
16, 3360, Note_on_c, 12, 59, 0
16, 3360, Note_on_c, 12, 57, 83
16, 3390, Note_on_c, 12, 57, 0
16, 3390, Note_on_c, 12, 55, 83
16, 3420, Note_on_c, 12, 55, 0
16, 3420, Note_on_c, 12, 54, 83
16, 3480, Note_on_c, 12, 54, 0
16, 3480, Note_on_c, 12, 52, 83
16, 3510, Note_on_c, 12, 52, 0
16, 3510, Note_on_c, 12, 50, 83
16, 3540, Note_on_c, 12, 50, 0
16, 3540, Note_on_c, 12, 57, 83
16, 3600, Note_on_c, 12, 57, 0
16, 3600, Note_on_c, 12, 57, 83
16, 3990, Note_on_c, 12, 57, 0
16, 3990, Note_on_c, 12, 56, 83
16, 4020, Note_on_c, 12, 56, 0
16, 4020, Note_on_c, 12, 57, 83
16, 4050, Note_on_c, 12, 57, 0
16, 4050, Note_on_c, 12, 59, 83
16, 4080, Note_on_c, 12, 59, 0
16, 4080, Note_on_c, 12, 61, 83
16, 4110, Note_on_c, 12, 61, 0
16, 4110, Note_on_c, 12, 62, 83
16, 4140, Note_on_c, 12, 62, 0
16, 4140, Note_on_c, 12, 64, 83
16, 4170, Note_on_c, 12, 64, 0
16, 4170, Note_on_c, 12, 67, 83
16, 4200, Note_on_c, 12, 67, 0
16, 4200, Note_on_c, 12, 66, 83
16, 4230, Note_on_c, 12, 66, 0
16, 4230, Note_on_c, 12, 64, 83
16, 4260, Note_on_c, 12, 64, 0
16, 4260, Note_on_c, 12, 62, 83
16, 4290, Note_on_c, 12, 62, 0
16, 4290, Note_on_c, 12, 61, 83
16, 4320, Note_on_c, 12, 61, 0
16, 4320, Note_on_c, 12, 62, 83
16, 5460, Note_on_c, 12, 62, 0
16, 5460, Note_on_c, 12, 62, 83
16, 5520, Note_on_c, 12, 62, 0
16, 5520, Note_on_c, 12, 62, 83
16, 5580, Note_on_c, 12, 62, 0
16, 5580, Note_on_c, 12, 62, 83
16, 5700, Note_on_c, 12, 62, 0
16, 5700, Note_on_c, 12, 57, 83
16, 5760, Note_on_c, 12, 57, 0
16, 5760, Note_on_c, 12, 57, 100
16, 5820, Note_on_c, 12, 57, 0
16, 5820, Note_on_c, 12, 57, 83
16, 5880, Note_on_c, 12, 57, 0
16, 5880, Note_on_c, 12, 57, 83
16, 5940, Note_on_c, 12, 57, 0
16, 5940, Note_on_c, 12, 62, 100
16, 6000, Note_on_c, 12, 62, 0
16, 6000, Note_on_c, 12, 66, 83
16, 6060, Note_on_c, 12, 66, 0
16, 6060, Note_on_c, 12, 62, 83
16, 6120, Note_on_c, 12, 62, 0
16, 6120, Note_on_c, 12, 61, 100
16, 6180, Note_on_c, 12, 61, 0
16, 6180, Note_on_c, 12, 64, 83
16, 6240, Note_on_c, 12, 64, 0
16, 6240, Note_on_c, 12, 59, 83
16, 6300, Note_on_c, 12, 59, 0
16, 6300, Note_on_c, 12, 59, 100
16, 6360, Note_on_c, 12, 59, 0
16, 6360, Note_on_c, 12, 64, 83
16, 6420, Note_on_c, 12, 64, 0
16, 6420, Note_on_c, 12, 66, 83
16, 6480, Note_on_c, 12, 66, 0
16, 6480, Note_on_c, 12, 64, 100
16, 6540, Note_on_c, 12, 64, 0
16, 6540, Note_on_c, 12, 59, 83
16, 6600, Note_on_c, 12, 59, 0
16, 6600, Note_on_c, 12, 64, 83
16, 6660, Note_on_c, 12, 64, 0
16, 6660, Note_on_c, 12, 57, 100
16, 6720, Note_on_c, 12, 57, 0
16, 6720, Note_on_c, 12, 61, 83
16, 6750, Note_on_c, 12, 61, 0
16, 6750, Note_on_c, 12, 59, 83
16, 6780, Note_on_c, 12, 59, 0
16, 6780, Note_on_c, 12, 61, 83
16, 6810, Note_on_c, 12, 61, 0
16, 6810, Note_on_c, 12, 62, 83
16, 6840, Note_on_c, 12, 62, 0
16, 6840, Note_on_c, 12, 64, 100
16, 6900, Note_on_c, 12, 64, 0
16, 6900, Note_on_c, 12, 62, 83
16, 6960, Note_on_c, 12, 62, 0
16, 6960, Note_on_c, 12, 57, 83
16, 7020, Note_on_c, 12, 57, 0
16, 7020, Note_on_c, 12, 57, 100
16, 7080, Note_on_c, 12, 57, 0
16, 7080, Note_on_c, 12, 66, 83
16, 7140, Note_on_c, 12, 66, 0
16, 7140, Note_on_c, 12, 64, 83
16, 7175, Note_on_c, 12, 64, 0
16, 7200, Note_on_c, 12, 62, 100
16, 7260, Note_on_c, 12, 62, 0
16, 7260, Note_on_c, 12, 64, 83
16, 7320, Note_on_c, 12, 64, 0
16, 7320, Note_on_c, 12, 64, 83
16, 7380, Note_on_c, 12, 64, 0
16, 7380, Note_on_c, 12, 64, 100
16, 7440, Note_on_c, 12, 64, 0
16, 7440, Note_on_c, 12, 64, 83
16, 7500, Note_on_c, 12, 64, 0
16, 7500, Note_on_c, 12, 64, 83
16, 7560, Note_on_c, 12, 64, 0
16, 7560, Note_on_c, 12, 66, 83
16, 7620, Note_on_c, 12, 66, 0
16, 7620, Note_on_c, 12, 64, 100
16, 7680, Note_on_c, 12, 64, 0
16, 7680, Note_on_c, 12, 64, 83
16, 7740, Note_on_c, 12, 64, 0
16, 7740, Note_on_c, 12, 64, 83
16, 7860, Note_on_c, 12, 64, 0
16, 8040, Note_on_c, 12, 66, 83
16, 8100, Note_on_c, 12, 66, 0
16, 8100, Note_on_c, 12, 61, 83
16, 8130, Note_on_c, 12, 61, 0
16, 8130, Note_on_c, 12, 59, 83
16, 8160, Note_on_c, 12, 59, 0
16, 8160, Note_on_c, 12, 57, 83
16, 8190, Note_on_c, 12, 57, 0
16, 8190, Note_on_c, 12, 59, 83
16, 8220, Note_on_c, 12, 59, 0
16, 8220, Note_on_c, 12, 61, 83
16, 8250, Note_on_c, 12, 61, 0
16, 8250, Note_on_c, 12, 62, 83
16, 8280, Note_on_c, 12, 62, 0
16, 8280, Note_on_c, 12, 64, 83
16, 8340, Note_on_c, 12, 64, 0
16, 8340, Note_on_c, 12, 57, 83
16, 8400, Note_on_c, 12, 57, 0
16, 8400, Note_on_c, 12, 57, 83
16, 8460, Note_on_c, 12, 57, 0
16, 8460, Note_on_c, 12, 57, 83
16, 8640, Note_on_c, 12, 57, 0
16, 11520, Note_on_c, 12, 64, 100
16, 11555, Note_on_c, 12, 64, 0
16, 11580, Note_on_c, 12, 64, 100
16, 11615, Note_on_c, 12, 64, 0
16, 11640, Note_on_c, 12, 64, 100
16, 11675, Note_on_c, 12, 64, 0
16, 11700, Note_on_c, 12, 61, 100
16, 11760, Note_on_c, 12, 61, 0
16, 11760, Note_on_c, 12, 62, 83
16, 11790, Note_on_c, 12, 62, 0
16, 11790, Note_on_c, 12, 61, 83
16, 11820, Note_on_c, 12, 61, 0
16, 11820, Note_on_c, 12, 59, 83
16, 11850, Note_on_c, 12, 59, 0
16, 11850, Note_on_c, 12, 57, 83
16, 11880, Note_on_c, 12, 57, 0
16, 11880, Note_on_c, 12, 62, 83
16, 11940, Note_on_c, 12, 62, 0
16, 11940, Note_on_c, 12, 64, 83
16, 12000, Note_on_c, 12, 64, 0
16, 12000, Note_on_c, 12, 66, 83
16, 12060, Note_on_c, 12, 66, 0
16, 12060, Note_on_c, 12, 59, 83
16, 12120, Note_on_c, 12, 59, 0
16, 12120, Note_on_c, 12, 61, 83
16, 12150, Note_on_c, 12, 61, 0
16, 12150, Note_on_c, 12, 62, 83
16, 12180, Note_on_c, 12, 62, 0
16, 12180, Note_on_c, 12, 64, 83
16, 12210, Note_on_c, 12, 64, 0
16, 12210, Note_on_c, 12, 61, 83
16, 12240, Note_on_c, 12, 61, 0
16, 12240, Note_on_c, 12, 62, 83
16, 12630, Note_on_c, 12, 62, 0
16, 12630, Note_on_c, 12, 61, 83
16, 12660, Note_on_c, 12, 61, 0
16, 12660, Note_on_c, 12, 62, 83
16, 12690, Note_on_c, 12, 62, 0
16, 12690, Note_on_c, 12, 64, 83
16, 12720, Note_on_c, 12, 64, 0
16, 12720, Note_on_c, 12, 66, 83
16, 12750, Note_on_c, 12, 66, 0
16, 12750, Note_on_c, 12, 67, 83
16, 12780, Note_on_c, 12, 67, 0
16, 12780, Note_on_c, 12, 69, 83
16, 12840, Note_on_c, 12, 69, 0
16, 12840, Note_on_c, 12, 57, 83
16, 12900, Note_on_c, 12, 57, 0
16, 12900, Note_on_c, 12, 56, 83
16, 12960, Note_on_c, 12, 56, 0
16, 12960, Note_on_c, 12, 57, 83
16, 13380, Note_on_c, 12, 57, 0
16, 13380, Note_on_c, 12, 57, 83
16, 13440, Note_on_c, 12, 57, 0
16, 13440, Note_on_c, 12, 57, 83
16, 13500, Note_on_c, 12, 57, 0
16, 13500, Note_on_c, 12, 57, 83
16, 13920, Note_on_c, 12, 57, 0
16, 13920, Note_on_c, 12, 57, 83
16, 13980, Note_on_c, 12, 57, 0
16, 13980, Note_on_c, 12, 57, 83
16, 14040, Note_on_c, 12, 57, 0
16, 14040, Note_on_c, 12, 57, 83
16, 14250, Note_on_c, 12, 57, 0
16, 14250, Note_on_c, 12, 56, 83
16, 14280, Note_on_c, 12, 56, 0
16, 14280, Note_on_c, 12, 57, 83
16, 14340, Note_on_c, 12, 57, 0
16, 14340, Note_on_c, 12, 52, 83
16, 14400, Note_on_c, 12, 52, 0
16, 14400, Note_on_c, 12, 64, 100
16, 14460, Note_on_c, 12, 64, 0
16, 14460, Note_on_c, 12, 64, 83
16, 14520, Note_on_c, 12, 64, 0
16, 14520, Note_on_c, 12, 64, 83
16, 14580, Note_on_c, 12, 64, 0
16, 14580, Note_on_c, 12, 64, 100
16, 14640, Note_on_c, 12, 64, 0
16, 14640, Note_on_c, 12, 61, 83
16, 14700, Note_on_c, 12, 61, 0
16, 14700, Note_on_c, 12, 61, 83
16, 14760, Note_on_c, 12, 61, 0
16, 14760, Note_on_c, 12, 61, 100
16, 14820, Note_on_c, 12, 61, 0
16, 14820, Note_on_c, 12, 57, 83
16, 14880, Note_on_c, 12, 57, 0
16, 14880, Note_on_c, 12, 55, 83
16, 14940, Note_on_c, 12, 55, 0
16, 14940, Note_on_c, 12, 62, 100
16, 15000, Note_on_c, 12, 62, 0
16, 15000, Note_on_c, 12, 67, 83
16, 15060, Note_on_c, 12, 67, 0
16, 15060, Note_on_c, 12, 64, 83
16, 15120, Note_on_c, 12, 64, 0
16, 15120, Note_on_c, 12, 62, 100
16, 15180, Note_on_c, 12, 62, 0
16, 15180, Note_on_c, 12, 57, 83
16, 15240, Note_on_c, 12, 57, 0
16, 15240, Note_on_c, 12, 57, 83
16, 15300, Note_on_c, 12, 57, 0
16, 15300, Note_on_c, 12, 57, 100
16, 15360, Note_on_c, 12, 57, 0
16, 15360, Note_on_c, 12, 62, 83
16, 15420, Note_on_c, 12, 62, 0
16, 15420, Note_on_c, 12, 66, 83
16, 15480, Note_on_c, 12, 66, 0
16, 15480, Note_on_c, 12, 66, 100
16, 15540, Note_on_c, 12, 66, 0
16, 15540, Note_on_c, 12, 62, 83
16, 15600, Note_on_c, 12, 62, 0
16, 15600, Note_on_c, 12, 62, 83
16, 15660, Note_on_c, 12, 62, 0
16, 15660, Note_on_c, 12, 62, 100
16, 15720, Note_on_c, 12, 62, 0
16, 15720, Note_on_c, 12, 64, 83
16, 15780, Note_on_c, 12, 64, 0
16, 15780, Note_on_c, 12, 57, 83
16, 15840, Note_on_c, 12, 57, 0
16, 15840, Note_on_c, 12, 62, 100
16, 15900, Note_on_c, 12, 62, 0
16, 15900, Note_on_c, 12, 59, 83
16, 15960, Note_on_c, 12, 59, 0
16, 15960, Note_on_c, 12, 67, 83
16, 16020, Note_on_c, 12, 67, 0
16, 16020, Note_on_c, 12, 64, 83
16, 16080, Note_on_c, 12, 64, 0
16, 16080, Note_on_c, 12, 57, 83
16, 16140, Note_on_c, 12, 57, 0
16, 16140, Note_on_c, 12, 62, 100
16, 16200, Note_on_c, 12, 62, 0
16, 16200, Note_on_c, 12, 57, 83
16, 16260, Note_on_c, 12, 57, 0
16, 16260, Note_on_c, 12, 52, 83
16, 16320, Note_on_c, 12, 52, 0
16, 16320, Note_on_c, 12, 57, 83
16, 16380, Note_on_c, 12, 57, 0
16, 16380, Note_on_c, 12, 57, 83
16, 16500, Note_on_c, 12, 57, 0
16, 16680, Note_on_c, 12, 62, 100
16, 16740, Note_on_c, 12, 62, 0
16, 16740, Note_on_c, 12, 66, 100
16, 16800, Note_on_c, 12, 66, 0
16, 16800, Note_on_c, 12, 69, 83
16, 16860, Note_on_c, 12, 69, 0
16, 16860, Note_on_c, 12, 67, 83
16, 16920, Note_on_c, 12, 67, 0
16, 16920, Note_on_c, 12, 66, 83
16, 16980, Note_on_c, 12, 66, 0
16, 16980, Note_on_c, 12, 62, 83
16, 17010, Note_on_c, 12, 62, 0
16, 17010, Note_on_c, 12, 61, 83
16, 17040, Note_on_c, 12, 61, 0
16, 17040, Note_on_c, 12, 62, 83
16, 17070, Note_on_c, 12, 62, 0
16, 17070, Note_on_c, 12, 64, 83
16, 17100, Note_on_c, 12, 64, 0
16, 17100, Note_on_c, 12, 66, 83
16, 17280, Note_on_c, 12, 66, 0
16, 19020, Program_c, 12, 52
16, 19020, Note_on_c, 12, 57, 90
16, 19079, Note_on_c, 12, 57, 0
16, 19080, Note_on_c, 12, 59, 90
16, 19139, Note_on_c, 12, 59, 0
16, 19140, Note_on_c, 12, 61, 90
16, 19199, Note_on_c, 12, 61, 0
16, 19200, Note_on_c, 12, 62, 90
16, 19259, Note_on_c, 12, 62, 0
16, 19260, Note_on_c, 12, 64, 90
16, 19379, Note_on_c, 12, 64, 0
16, 19380, Note_on_c, 12, 64, 90
16, 19499, Note_on_c, 12, 64, 0
16, 19500, Note_on_c, 12, 57, 90
16, 19619, Note_on_c, 12, 57, 0
16, 19620, Note_on_c, 12, 66, 90
16, 19859, Note_on_c, 12, 66, 0
16, 19860, Note_on_c, 12, 66, 90
16, 19979, Note_on_c, 12, 66, 0
16, 19980, Note_on_c, 12, 64, 90
16, 20099, Note_on_c, 12, 64, 0
16, 20220, Note_on_c, 12, 69, 90
16, 20279, Note_on_c, 12, 69, 0
16, 20280, Note_on_c, 12, 67, 90
16, 20339, Note_on_c, 12, 67, 0
16, 20340, Note_on_c, 12, 66, 90
16, 20399, Note_on_c, 12, 66, 0
16, 20400, Note_on_c, 12, 64, 90
16, 20459, Note_on_c, 12, 64, 0
16, 20460, Note_on_c, 12, 62, 90
16, 20579, Note_on_c, 12, 62, 0
16, 20580, Note_on_c, 12, 62, 90
16, 20699, Note_on_c, 12, 62, 0
16, 20820, Note_on_c, 12, 61, 90
16, 20879, Note_on_c, 12, 61, 0
16, 20880, Note_on_c, 12, 62, 90
16, 20939, Note_on_c, 12, 62, 0
16, 20940, Note_on_c, 12, 64, 90
16, 20999, Note_on_c, 12, 64, 0
16, 21000, Note_on_c, 12, 66, 90
16, 21059, Note_on_c, 12, 66, 0
16, 21060, Note_on_c, 12, 68, 90
16, 21179, Note_on_c, 12, 68, 0
16, 21180, Note_on_c, 12, 68, 90
16, 21299, Note_on_c, 12, 68, 0
16, 21420, Note_on_c, 12, 57, 90
16, 21479, Note_on_c, 12, 57, 0
16, 21480, Note_on_c, 12, 59, 90
16, 21539, Note_on_c, 12, 59, 0
16, 21540, Note_on_c, 12, 61, 90
16, 21599, Note_on_c, 12, 61, 0
16, 21600, Note_on_c, 12, 62, 90
16, 21659, Note_on_c, 12, 62, 0
16, 21660, Note_on_c, 12, 64, 90
16, 21779, Note_on_c, 12, 64, 0
16, 21780, Note_on_c, 12, 58, 90
16, 21959, Note_on_c, 12, 58, 0
16, 21960, Note_on_c, 12, 61, 90
16, 22019, Note_on_c, 12, 61, 0
16, 22020, Note_on_c, 12, 66, 90
16, 22079, Note_on_c, 12, 66, 0
16, 22080, Note_on_c, 12, 64, 90
16, 22139, Note_on_c, 12, 64, 0
16, 22140, Note_on_c, 12, 62, 90
16, 22199, Note_on_c, 12, 62, 0
16, 22200, Note_on_c, 12, 61, 90
16, 22259, Note_on_c, 12, 61, 0
16, 22260, Note_on_c, 12, 59, 90
16, 22319, Note_on_c, 12, 59, 0
16, 22320, Note_on_c, 12, 61, 90
16, 22379, Note_on_c, 12, 61, 0
16, 22380, Note_on_c, 12, 62, 90
16, 22499, Note_on_c, 12, 62, 0
16, 22500, Note_on_c, 12, 62, 90
16, 22619, Note_on_c, 12, 62, 0
16, 22860, Note_on_c, 12, 57, 90
16, 22919, Note_on_c, 12, 57, 0
16, 22920, Note_on_c, 12, 59, 90
16, 22979, Note_on_c, 12, 59, 0
16, 22980, Note_on_c, 12, 61, 90
16, 23039, Note_on_c, 12, 61, 0
16, 23040, Note_on_c, 12, 62, 90
16, 23099, Note_on_c, 12, 62, 0
16, 23100, Note_on_c, 12, 64, 90
16, 23159, Note_on_c, 12, 64, 0
16, 23160, Note_on_c, 12, 62, 90
16, 23219, Note_on_c, 12, 62, 0
16, 23220, Note_on_c, 12, 61, 90
16, 23279, Note_on_c, 12, 61, 0
16, 23280, Note_on_c, 12, 59, 90
16, 23339, Note_on_c, 12, 59, 0
16, 23340, Note_on_c, 12, 64, 90
16, 23579, Note_on_c, 12, 64, 0
16, 23640, Note_on_c, 12, 63, 90
16, 23699, Note_on_c, 12, 63, 0
16, 23700, Note_on_c, 12, 61, 90
16, 23759, Note_on_c, 12, 61, 0
16, 23760, Note_on_c, 12, 59, 90
16, 23819, Note_on_c, 12, 59, 0
16, 23820, Note_on_c, 12, 57, 90
16, 23939, Note_on_c, 12, 57, 0
16, 23940, Note_on_c, 12, 59, 90
16, 24059, Note_on_c, 12, 59, 0
16, 24060, Note_on_c, 12, 56, 90
16, 24179, Note_on_c, 12, 56, 0
16, 24180, Note_on_c, 12, 61, 90
16, 24359, Note_on_c, 12, 61, 0
16, 24360, Note_on_c, 12, 59, 90
16, 24419, Note_on_c, 12, 59, 0
16, 24420, Note_on_c, 12, 61, 90
16, 24599, Note_on_c, 12, 61, 0
16, 24600, Note_on_c, 12, 54, 90
16, 24659, Note_on_c, 12, 54, 0
16, 24660, Note_on_c, 12, 61, 90
16, 24719, Note_on_c, 12, 61, 0
16, 24720, Note_on_c, 12, 58, 90
16, 24779, Note_on_c, 12, 58, 0
16, 24780, Note_on_c, 12, 59, 90
16, 24899, Note_on_c, 12, 59, 0
16, 24900, Note_on_c, 12, 65, 90
16, 24959, Note_on_c, 12, 65, 0
16, 24960, Note_on_c, 12, 66, 90
16, 25019, Note_on_c, 12, 66, 0
16, 25020, Note_on_c, 12, 68, 90
16, 25139, Note_on_c, 12, 68, 0
16, 25140, Note_on_c, 12, 61, 90
16, 25259, Note_on_c, 12, 61, 0
16, 25500, Note_on_c, 12, 61, 90
16, 25619, Note_on_c, 12, 61, 0
16, 25620, Note_on_c, 12, 66, 90
16, 25799, Note_on_c, 12, 66, 0
16, 25800, Note_on_c, 12, 64, 90
16, 25859, Note_on_c, 12, 64, 0
16, 25860, Note_on_c, 12, 66, 90
16, 26039, Note_on_c, 12, 66, 0
16, 26040, Note_on_c, 12, 68, 90
16, 26069, Note_on_c, 12, 68, 0
16, 26070, Note_on_c, 12, 69, 90
16, 26099, Note_on_c, 12, 69, 0
16, 26100, Note_on_c, 12, 68, 90
16, 26219, Note_on_c, 12, 68, 0
16, 26220, Note_on_c, 12, 56, 90
16, 26339, Note_on_c, 12, 56, 0
16, 26400, Note_on_c, 12, 54, 90
16, 26459, Note_on_c, 12, 54, 0
16, 26460, Note_on_c, 12, 59, 90
16, 26579, Note_on_c, 12, 59, 0
16, 26760, Note_on_c, 12, 59, 90
16, 26819, Note_on_c, 12, 59, 0
16, 26820, Note_on_c, 12, 64, 90
16, 26939, Note_on_c, 12, 64, 0
16, 27000, Note_on_c, 12, 61, 90
16, 27059, Note_on_c, 12, 61, 0
16, 27060, Note_on_c, 12, 69, 90
16, 27119, Note_on_c, 12, 69, 0
16, 27120, Note_on_c, 12, 61, 90
16, 27179, Note_on_c, 12, 61, 0
16, 27180, Note_on_c, 12, 58, 90
16, 27239, Note_on_c, 12, 58, 0
16, 27240, Note_on_c, 12, 63, 90
16, 27299, Note_on_c, 12, 63, 0
16, 27300, Note_on_c, 12, 56, 90
16, 27359, Note_on_c, 12, 56, 0
16, 27360, Note_on_c, 12, 56, 90
16, 27419, Note_on_c, 12, 56, 0
16, 27420, Note_on_c, 12, 68, 90
16, 27539, Note_on_c, 12, 68, 0
16, 27540, Note_on_c, 12, 66, 90
16, 27599, Note_on_c, 12, 66, 0
16, 27720, Note_on_c, 12, 61, 90
16, 27779, Note_on_c, 12, 61, 0
16, 27780, Note_on_c, 12, 66, 90
16, 27839, Note_on_c, 12, 66, 0
16, 27840, Note_on_c, 12, 64, 90
16, 27899, Note_on_c, 12, 64, 0
16, 27900, Note_on_c, 12, 63, 90
16, 28019, Note_on_c, 12, 63, 0
16, 28080, Note_on_c, 12, 56, 90
16, 28139, Note_on_c, 12, 56, 0
16, 28140, Note_on_c, 12, 57, 90
16, 28199, Note_on_c, 12, 57, 0
16, 28200, Note_on_c, 12, 59, 90
16, 28259, Note_on_c, 12, 59, 0
16, 28260, Note_on_c, 12, 61, 90
16, 28319, Note_on_c, 12, 61, 0
16, 28320, Note_on_c, 12, 61, 90
16, 28349, Note_on_c, 12, 61, 0
16, 28350, Note_on_c, 12, 60, 90
16, 28379, Note_on_c, 12, 60, 0
16, 28380, Note_on_c, 12, 61, 90
16, 28439, Note_on_c, 12, 61, 0
16, 28440, Note_on_c, 12, 63, 90
16, 28499, Note_on_c, 12, 63, 0
16, 28500, Note_on_c, 12, 60, 90
16, 28619, Note_on_c, 12, 60, 0
16, 28620, Note_on_c, 12, 61, 90
16, 28739, Note_on_c, 12, 61, 0
16, 32460, Note_on_c, 12, 61, 90
16, 32579, Note_on_c, 12, 61, 0
16, 32580, Note_on_c, 12, 61, 90
16, 32699, Note_on_c, 12, 61, 0
16, 32700, Note_on_c, 12, 62, 90
16, 32759, Note_on_c, 12, 62, 0
16, 32760, Note_on_c, 12, 61, 90
16, 32819, Note_on_c, 12, 61, 0
16, 32820, Note_on_c, 12, 59, 90
16, 32879, Note_on_c, 12, 59, 0
16, 32880, Note_on_c, 12, 64, 90
16, 32939, Note_on_c, 12, 64, 0
16, 32940, Note_on_c, 12, 61, 90
16, 32999, Note_on_c, 12, 61, 0
16, 33000, Note_on_c, 12, 64, 90
16, 33059, Note_on_c, 12, 64, 0
16, 33060, Note_on_c, 12, 57, 90
16, 33119, Note_on_c, 12, 57, 0
16, 33120, Note_on_c, 12, 62, 90
16, 33239, Note_on_c, 12, 62, 0
16, 33240, Note_on_c, 12, 61, 90
16, 33299, Note_on_c, 12, 61, 0
16, 33300, Note_on_c, 12, 57, 90
16, 33539, Note_on_c, 12, 57, 0
16, 33540, Note_on_c, 12, 66, 90
16, 33659, Note_on_c, 12, 66, 0
16, 33660, Note_on_c, 12, 64, 90
16, 33779, Note_on_c, 12, 64, 0
16, 33780, Note_on_c, 12, 62, 90
16, 33899, Note_on_c, 12, 62, 0
16, 33900, Note_on_c, 12, 64, 90
16, 34019, Note_on_c, 12, 64, 0
16, 34020, Note_on_c, 12, 64, 90
16, 34079, Note_on_c, 12, 64, 0
16, 34080, Note_on_c, 12, 66, 90
16, 34199, Note_on_c, 12, 66, 0
16, 34200, Note_on_c, 12, 64, 90
16, 34229, Note_on_c, 12, 64, 0
16, 34230, Note_on_c, 12, 62, 90
16, 34259, Note_on_c, 12, 62, 0
16, 34260, Note_on_c, 12, 61, 90
16, 34379, Note_on_c, 12, 61, 0
16, 34380, Note_on_c, 12, 57, 90
16, 34499, Note_on_c, 12, 57, 0
16, 34500, Note_on_c, 12, 66, 90
16, 34559, Note_on_c, 12, 66, 0
16, 34560, Note_on_c, 12, 64, 90
16, 34619, Note_on_c, 12, 64, 0
16, 34620, Note_on_c, 12, 64, 90
16, 34739, Note_on_c, 12, 64, 0
16, 34740, Note_on_c, 12, 64, 90
16, 34859, Note_on_c, 12, 64, 0
16, 34860, Note_on_c, 12, 64, 90
16, 34919, Note_on_c, 12, 64, 0
16, 34920, Note_on_c, 12, 59, 90
16, 34979, Note_on_c, 12, 59, 0
16, 34980, Note_on_c, 12, 61, 90
16, 35039, Note_on_c, 12, 61, 0
16, 35040, Note_on_c, 12, 64, 90
16, 35099, Note_on_c, 12, 64, 0
16, 35100, Note_on_c, 12, 59, 90
16, 35159, Note_on_c, 12, 59, 0
16, 35160, Note_on_c, 12, 57, 90
16, 35219, Note_on_c, 12, 57, 0
16, 35220, Note_on_c, 12, 56, 90
16, 35339, Note_on_c, 12, 56, 0
16, 35340, Note_on_c, 12, 57, 90
16, 35399, Note_on_c, 12, 57, 0
16, 35400, Note_on_c, 12, 54, 90
16, 35459, Note_on_c, 12, 54, 0
16, 35460, Note_on_c, 12, 56, 90
16, 35579, Note_on_c, 12, 56, 0
16, 35580, Note_on_c, 12, 57, 90
16, 35699, Note_on_c, 12, 57, 0
16, 35700, Note_on_c, 12, 56, 90
16, 35819, Note_on_c, 12, 56, 0
16, 35820, Note_on_c, 12, 57, 90
16, 35939, Note_on_c, 12, 57, 0
16, 35940, Note_on_c, 12, 57, 90
16, 35999, Note_on_c, 12, 57, 0
16, 36000, Note_on_c, 12, 56, 90
16, 36059, Note_on_c, 12, 56, 0
16, 36060, Note_on_c, 12, 54, 90
16, 36119, Note_on_c, 12, 54, 0
16, 36120, Note_on_c, 12, 59, 90
16, 36179, Note_on_c, 12, 59, 0
16, 36180, Note_on_c, 12, 61, 90
16, 36239, Note_on_c, 12, 61, 0
16, 36240, Note_on_c, 12, 62, 90
16, 36299, Note_on_c, 12, 62, 0
16, 36300, Note_on_c, 12, 64, 90
16, 36419, Note_on_c, 12, 64, 0
16, 36420, Note_on_c, 12, 66, 90
16, 36539, Note_on_c, 12, 66, 0
16, 36540, Note_on_c, 12, 64, 90
16, 36779, Note_on_c, 12, 64, 0
16, 36780, Note_on_c, 12, 62, 90
16, 37019, Note_on_c, 12, 62, 0
16, 37020, Note_on_c, 12, 61, 90
16, 37079, Note_on_c, 12, 61, 0
16, 37080, Note_on_c, 12, 59, 90
16, 37139, Note_on_c, 12, 59, 0
16, 37140, Note_on_c, 12, 61, 90
16, 37259, Note_on_c, 12, 61, 0
16, 132660, Note_on_c, 12, 59, 90
16, 132779, Note_on_c, 12, 59, 0
16, 132780, Note_on_c, 12, 60, 90
16, 132899, Note_on_c, 12, 60, 0
16, 132900, Note_on_c, 12, 54, 90
16, 133019, Note_on_c, 12, 54, 0
16, 133020, Note_on_c, 12, 55, 90
16, 133139, Note_on_c, 12, 55, 0
16, 133140, Note_on_c, 12, 60, 90
16, 133259, Note_on_c, 12, 60, 0
16, 133260, Note_on_c, 12, 60, 90
16, 133319, Note_on_c, 12, 60, 0
16, 133320, Note_on_c, 12, 62, 90
16, 133379, Note_on_c, 12, 62, 0
16, 133380, Note_on_c, 12, 64, 90
16, 133499, Note_on_c, 12, 64, 0
16, 133500, Note_on_c, 12, 62, 90
16, 133619, Note_on_c, 12, 62, 0
16, 133620, Note_on_c, 12, 64, 90
16, 133859, Note_on_c, 12, 64, 0
16, 133860, Note_on_c, 12, 67, 90
16, 133919, Note_on_c, 12, 67, 0
16, 133920, Note_on_c, 12, 65, 90
16, 133979, Note_on_c, 12, 65, 0
16, 133980, Note_on_c, 12, 64, 90
16, 134099, Note_on_c, 12, 64, 0
16, 134100, Note_on_c, 12, 64, 90
16, 134339, Note_on_c, 12, 64, 0
16, 134340, Note_on_c, 12, 64, 90
16, 134459, Note_on_c, 12, 64, 0
16, 134460, Note_on_c, 12, 62, 90
16, 134579, Note_on_c, 12, 62, 0
16, 134580, Note_on_c, 12, 62, 90
16, 134819, Note_on_c, 12, 62, 0
16, 134820, Note_on_c, 12, 57, 90
16, 134939, Note_on_c, 12, 57, 0
16, 134940, Note_on_c, 12, 59, 90
16, 135059, Note_on_c, 12, 59, 0
16, 135060, Note_on_c, 12, 60, 90
16, 135179, Note_on_c, 12, 60, 0
16, 135180, Note_on_c, 12, 62, 90
16, 135299, Note_on_c, 12, 62, 0
16, 135300, Note_on_c, 12, 64, 90
16, 135419, Note_on_c, 12, 64, 0
16, 135420, Note_on_c, 12, 62, 90
16, 135479, Note_on_c, 12, 62, 0
16, 135480, Note_on_c, 12, 60, 90
16, 135539, Note_on_c, 12, 60, 0
16, 135540, Note_on_c, 12, 59, 90
16, 135779, Note_on_c, 12, 59, 0
16, 135780, Note_on_c, 12, 60, 90
16, 135899, Note_on_c, 12, 60, 0
16, 135900, Note_on_c, 12, 55, 90
16, 136019, Note_on_c, 12, 55, 0
16, 136020, Note_on_c, 12, 54, 90
16, 136139, Note_on_c, 12, 54, 0
16, 136140, Note_on_c, 12, 55, 90
16, 136259, Note_on_c, 12, 55, 0
16, 136260, Note_on_c, 12, 55, 90
16, 136319, Note_on_c, 12, 55, 0
16, 136320, Note_on_c, 12, 53, 90
16, 136379, Note_on_c, 12, 53, 0
16, 136380, Note_on_c, 12, 55, 90
16, 136439, Note_on_c, 12, 55, 0
16, 136440, Note_on_c, 12, 57, 90
16, 136499, Note_on_c, 12, 57, 0
16, 136500, Note_on_c, 12, 55, 90
16, 136619, Note_on_c, 12, 55, 0
16, 136620, Note_on_c, 12, 64, 90
16, 136739, Note_on_c, 12, 64, 0
16, 136740, Note_on_c, 12, 64, 90
16, 136979, Note_on_c, 12, 64, 0
16, 136980, Note_on_c, 12, 62, 90
16, 137039, Note_on_c, 12, 62, 0
16, 137040, Note_on_c, 12, 60, 90
16, 137099, Note_on_c, 12, 60, 0
16, 137100, Note_on_c, 12, 59, 90
16, 137219, Note_on_c, 12, 59, 0
16, 137220, Note_on_c, 12, 57, 90
16, 137459, Note_on_c, 12, 57, 0
16, 137460, Note_on_c, 12, 55, 90
16, 137519, Note_on_c, 12, 55, 0
16, 137520, Note_on_c, 12, 57, 90
16, 137579, Note_on_c, 12, 57, 0
16, 137580, Note_on_c, 12, 59, 90
16, 137639, Note_on_c, 12, 59, 0
16, 137640, Note_on_c, 12, 55, 90
16, 137699, Note_on_c, 12, 55, 0
16, 137700, Note_on_c, 12, 62, 90
16, 137939, Note_on_c, 12, 62, 0
16, 137940, Note_on_c, 12, 59, 90
16, 137999, Note_on_c, 12, 59, 0
16, 138000, Note_on_c, 12, 60, 90
16, 138059, Note_on_c, 12, 60, 0
16, 138060, Note_on_c, 12, 62, 90
16, 138179, Note_on_c, 12, 62, 0
16, 138180, Note_on_c, 12, 64, 90
16, 138239, Note_on_c, 12, 64, 0
16, 138240, Note_on_c, 12, 66, 90
16, 138299, Note_on_c, 12, 66, 0
16, 138300, Note_on_c, 12, 67, 90
16, 138419, Note_on_c, 12, 67, 0
16, 138420, Note_on_c, 12, 62, 90
16, 138479, Note_on_c, 12, 62, 0
16, 138480, Note_on_c, 12, 60, 90
16, 138509, Note_on_c, 12, 60, 0
16, 138510, Note_on_c, 12, 59, 90
16, 138539, Note_on_c, 12, 59, 0
16, 138540, Note_on_c, 12, 60, 90
16, 138659, Note_on_c, 12, 60, 0
16, 138660, Note_on_c, 12, 59, 90
16, 138899, Note_on_c, 12, 59, 0
16, 141900, Program_c, 12, 52
16, 141900, Note_on_c, 12, 57, 90
16, 141959, Note_on_c, 12, 57, 0
16, 141960, Note_on_c, 12, 59, 90
16, 142019, Note_on_c, 12, 59, 0
16, 142020, Note_on_c, 12, 61, 90
16, 142139, Note_on_c, 12, 61, 0
16, 142140, Note_on_c, 12, 61, 90
16, 142199, Note_on_c, 12, 61, 0
16, 142200, Note_on_c, 12, 59, 90
16, 142259, Note_on_c, 12, 59, 0
16, 142260, Note_on_c, 12, 57, 90
16, 142379, Note_on_c, 12, 57, 0
16, 142380, Note_on_c, 12, 59, 90
16, 142499, Note_on_c, 12, 59, 0
16, 142500, Note_on_c, 12, 61, 90
16, 142619, Note_on_c, 12, 61, 0
16, 142620, Note_on_c, 12, 61, 90
16, 142679, Note_on_c, 12, 61, 0
16, 142680, Note_on_c, 12, 59, 90
16, 142739, Note_on_c, 12, 59, 0
16, 142740, Note_on_c, 12, 57, 90
16, 142859, Note_on_c, 12, 57, 0
16, 142860, Note_on_c, 12, 57, 90
16, 142979, Note_on_c, 12, 57, 0
16, 142980, Note_on_c, 12, 59, 90
16, 143099, Note_on_c, 12, 59, 0
16, 143100, Note_on_c, 12, 61, 90
16, 143219, Note_on_c, 12, 61, 0
16, 143220, Note_on_c, 12, 61, 90
16, 143339, Note_on_c, 12, 61, 0
16, 143340, Note_on_c, 12, 61, 90
16, 143459, Note_on_c, 12, 61, 0
16, 143460, Note_on_c, 12, 61, 90
16, 143579, Note_on_c, 12, 61, 0
16, 143580, Note_on_c, 12, 62, 90
16, 143699, Note_on_c, 12, 62, 0
16, 143700, Note_on_c, 12, 62, 90
16, 143759, Note_on_c, 12, 62, 0
16, 143760, Note_on_c, 12, 64, 90
16, 143789, Note_on_c, 12, 64, 0
16, 143790, Note_on_c, 12, 66, 90
16, 143819, Note_on_c, 12, 66, 0
16, 143820, Note_on_c, 12, 64, 90
16, 143879, Note_on_c, 12, 64, 0
16, 143880, Note_on_c, 12, 62, 90
16, 143939, Note_on_c, 12, 62, 0
16, 143940, Note_on_c, 12, 61, 90
16, 144059, Note_on_c, 12, 61, 0
16, 144060, Note_on_c, 12, 59, 90
16, 144119, Note_on_c, 12, 59, 0
16, 144120, Note_on_c, 12, 57, 90
16, 144179, Note_on_c, 12, 57, 0
16, 144180, Note_on_c, 12, 62, 90
16, 144239, Note_on_c, 12, 62, 0
16, 144240, Note_on_c, 12, 61, 90
16, 144299, Note_on_c, 12, 61, 0
16, 144300, Note_on_c, 12, 61, 90
16, 144359, Note_on_c, 12, 61, 0
16, 144360, Note_on_c, 12, 62, 90
16, 144419, Note_on_c, 12, 62, 0
16, 144420, Note_on_c, 12, 62, 90
16, 144479, Note_on_c, 12, 62, 0
16, 144480, Note_on_c, 12, 59, 90
16, 144539, Note_on_c, 12, 59, 0
16, 144540, Note_on_c, 12, 56, 90
16, 144599, Note_on_c, 12, 56, 0
16, 144600, Note_on_c, 12, 61, 90
16, 144659, Note_on_c, 12, 61, 0
16, 144660, Note_on_c, 12, 57, 90
16, 144779, Note_on_c, 12, 57, 0
16, 144780, Note_on_c, 12, 57, 90
16, 144899, Note_on_c, 12, 57, 0
16, 144900, Note_on_c, 12, 59, 90
16, 144959, Note_on_c, 12, 59, 0
16, 144960, Note_on_c, 12, 61, 90
16, 145019, Note_on_c, 12, 61, 0
16, 145020, Note_on_c, 12, 63, 90
16, 145139, Note_on_c, 12, 63, 0
16, 145140, Note_on_c, 12, 61, 90
16, 145259, Note_on_c, 12, 61, 0
16, 145260, Note_on_c, 12, 61, 90
16, 145379, Note_on_c, 12, 61, 0
16, 145380, Note_on_c, 12, 54, 90
16, 145499, Note_on_c, 12, 54, 0
16, 145500, Note_on_c, 12, 59, 90
16, 145619, Note_on_c, 12, 59, 0
16, 145620, Note_on_c, 12, 59, 90
16, 145739, Note_on_c, 12, 59, 0
16, 145740, Note_on_c, 12, 61, 90
16, 145919, Note_on_c, 12, 61, 0
16, 145920, Note_on_c, 12, 57, 90
16, 145979, Note_on_c, 12, 57, 0
16, 145980, Note_on_c, 12, 62, 90
16, 146159, Note_on_c, 12, 62, 0
16, 146160, Note_on_c, 12, 59, 90
16, 146219, Note_on_c, 12, 59, 0
16, 146220, Note_on_c, 12, 64, 90
16, 146399, Note_on_c, 12, 64, 0
16, 146400, Note_on_c, 12, 61, 90
16, 146459, Note_on_c, 12, 61, 0
16, 146460, Note_on_c, 12, 66, 90
16, 146519, Note_on_c, 12, 66, 0
16, 146520, Note_on_c, 12, 64, 90
16, 146579, Note_on_c, 12, 64, 0
16, 146580, Note_on_c, 12, 62, 90
16, 146639, Note_on_c, 12, 62, 0
16, 146640, Note_on_c, 12, 61, 90
16, 146699, Note_on_c, 12, 61, 0
16, 146700, Note_on_c, 12, 63, 90
16, 146819, Note_on_c, 12, 63, 0
16, 146820, Note_on_c, 12, 61, 90
16, 146879, Note_on_c, 12, 61, 0
16, 146880, Note_on_c, 12, 56, 90
16, 146939, Note_on_c, 12, 56, 0
16, 146940, Note_on_c, 12, 61, 90
16, 146999, Note_on_c, 12, 61, 0
16, 147000, Note_on_c, 12, 59, 90
16, 147059, Note_on_c, 12, 59, 0
16, 147060, Note_on_c, 12, 57, 90
16, 147179, Note_on_c, 12, 57, 0
16, 150180, Note_on_c, 12, 62, 100
16, 150215, Note_on_c, 12, 62, 0
16, 150240, Note_on_c, 12, 62, 100
16, 150275, Note_on_c, 12, 62, 0
16, 150300, Note_on_c, 12, 62, 100
16, 150335, Note_on_c, 12, 62, 0
16, 150360, Note_on_c, 12, 62, 100
16, 150420, Note_on_c, 12, 62, 0
16, 150420, Note_on_c, 12, 66, 83
16, 150450, Note_on_c, 12, 66, 0
16, 150450, Note_on_c, 12, 64, 83
16, 150480, Note_on_c, 12, 64, 0
16, 150480, Note_on_c, 12, 62, 83
16, 150510, Note_on_c, 12, 62, 0
16, 150510, Note_on_c, 12, 61, 83
16, 150540, Note_on_c, 12, 61, 0
16, 150540, Note_on_c, 12, 62, 83
16, 150600, Note_on_c, 12, 62, 0
16, 150600, Note_on_c, 12, 61, 83
16, 150630, Note_on_c, 12, 61, 0
16, 150630, Note_on_c, 12, 59, 83
16, 150660, Note_on_c, 12, 59, 0
16, 150660, Note_on_c, 12, 57, 83
16, 150690, Note_on_c, 12, 57, 0
16, 150690, Note_on_c, 12, 55, 83
16, 150720, Note_on_c, 12, 55, 0
16, 150720, Note_on_c, 12, 54, 83
16, 150780, Note_on_c, 12, 54, 0
16, 150780, Note_on_c, 12, 52, 83
16, 150810, Note_on_c, 12, 52, 0
16, 150810, Note_on_c, 12, 50, 83
16, 150840, Note_on_c, 12, 50, 0
16, 150840, Note_on_c, 12, 57, 83
16, 150900, Note_on_c, 12, 57, 0
16, 150900, Note_on_c, 12, 57, 83
16, 151290, Note_on_c, 12, 57, 0
16, 151290, Note_on_c, 12, 56, 83
16, 151320, Note_on_c, 12, 56, 0
16, 151320, Note_on_c, 12, 57, 83
16, 151350, Note_on_c, 12, 57, 0
16, 151350, Note_on_c, 12, 59, 83
16, 151380, Note_on_c, 12, 59, 0
16, 151380, Note_on_c, 12, 61, 83
16, 151410, Note_on_c, 12, 61, 0
16, 151410, Note_on_c, 12, 62, 83
16, 151440, Note_on_c, 12, 62, 0
16, 151440, Note_on_c, 12, 64, 83
16, 151470, Note_on_c, 12, 64, 0
16, 151470, Note_on_c, 12, 67, 83
16, 151500, Note_on_c, 12, 67, 0
16, 151500, Note_on_c, 12, 66, 83
16, 151530, Note_on_c, 12, 66, 0
16, 151530, Note_on_c, 12, 64, 83
16, 151560, Note_on_c, 12, 64, 0
16, 151560, Note_on_c, 12, 62, 83
16, 151590, Note_on_c, 12, 62, 0
16, 151590, Note_on_c, 12, 61, 83
16, 151620, Note_on_c, 12, 61, 0
16, 151620, Note_on_c, 12, 62, 83
16, 152760, Note_on_c, 12, 62, 0
16, 152760, Note_on_c, 12, 62, 83
16, 152820, Note_on_c, 12, 62, 0
16, 152820, Note_on_c, 12, 62, 83
16, 152880, Note_on_c, 12, 62, 0
16, 152880, Note_on_c, 12, 62, 83
16, 153000, Note_on_c, 12, 62, 0
16, 153000, Note_on_c, 12, 57, 83
16, 153060, Note_on_c, 12, 57, 0
16, 153060, Note_on_c, 12, 57, 100
16, 153120, Note_on_c, 12, 57, 0
16, 153120, Note_on_c, 12, 57, 83
16, 153180, Note_on_c, 12, 57, 0
16, 153180, Note_on_c, 12, 57, 83
16, 153240, Note_on_c, 12, 57, 0
16, 153240, Note_on_c, 12, 62, 100
16, 153300, Note_on_c, 12, 62, 0
16, 153300, Note_on_c, 12, 66, 83
16, 153360, Note_on_c, 12, 66, 0
16, 153360, Note_on_c, 12, 62, 83
16, 153420, Note_on_c, 12, 62, 0
16, 153420, Note_on_c, 12, 61, 100
16, 153480, Note_on_c, 12, 61, 0
16, 153480, Note_on_c, 12, 64, 83
16, 153540, Note_on_c, 12, 64, 0
16, 153540, Note_on_c, 12, 59, 83
16, 153600, Note_on_c, 12, 59, 0
16, 153600, Note_on_c, 12, 59, 100
16, 153660, Note_on_c, 12, 59, 0
16, 153660, Note_on_c, 12, 64, 83
16, 153720, Note_on_c, 12, 64, 0
16, 153720, Note_on_c, 12, 66, 83
16, 153780, Note_on_c, 12, 66, 0
16, 153780, Note_on_c, 12, 64, 100
16, 153840, Note_on_c, 12, 64, 0
16, 153840, Note_on_c, 12, 59, 83
16, 153900, Note_on_c, 12, 59, 0
16, 153900, Note_on_c, 12, 64, 83
16, 153960, Note_on_c, 12, 64, 0
16, 153960, Note_on_c, 12, 57, 100
16, 154020, Note_on_c, 12, 57, 0
16, 154020, Note_on_c, 12, 61, 83
16, 154050, Note_on_c, 12, 61, 0
16, 154050, Note_on_c, 12, 59, 83
16, 154080, Note_on_c, 12, 59, 0
16, 154080, Note_on_c, 12, 61, 83
16, 154110, Note_on_c, 12, 61, 0
16, 154110, Note_on_c, 12, 62, 83
16, 154140, Note_on_c, 12, 62, 0
16, 154140, Note_on_c, 12, 64, 100
16, 154200, Note_on_c, 12, 64, 0
16, 154200, Note_on_c, 12, 62, 83
16, 154260, Note_on_c, 12, 62, 0
16, 154260, Note_on_c, 12, 57, 83
16, 154320, Note_on_c, 12, 57, 0
16, 154320, Note_on_c, 12, 57, 100
16, 154380, Note_on_c, 12, 57, 0
16, 154380, Note_on_c, 12, 66, 83
16, 154440, Note_on_c, 12, 66, 0
16, 154440, Note_on_c, 12, 64, 83
16, 154475, Note_on_c, 12, 64, 0
16, 154500, Note_on_c, 12, 62, 100
16, 154560, Note_on_c, 12, 62, 0
16, 154560, Note_on_c, 12, 64, 83
16, 154620, Note_on_c, 12, 64, 0
16, 154620, Note_on_c, 12, 64, 83
16, 154680, Note_on_c, 12, 64, 0
16, 154680, Note_on_c, 12, 64, 100
16, 154740, Note_on_c, 12, 64, 0
16, 154740, Note_on_c, 12, 64, 83
16, 154800, Note_on_c, 12, 64, 0
16, 154800, Note_on_c, 12, 64, 83
16, 154860, Note_on_c, 12, 64, 0
16, 154860, Note_on_c, 12, 66, 83
16, 154920, Note_on_c, 12, 66, 0
16, 154920, Note_on_c, 12, 64, 100
16, 154980, Note_on_c, 12, 64, 0
16, 154980, Note_on_c, 12, 64, 83
16, 155040, Note_on_c, 12, 64, 0
16, 155040, Note_on_c, 12, 64, 83
16, 155160, Note_on_c, 12, 64, 0
16, 155340, Note_on_c, 12, 66, 83
16, 155400, Note_on_c, 12, 66, 0
16, 155400, Note_on_c, 12, 61, 83
16, 155430, Note_on_c, 12, 61, 0
16, 155430, Note_on_c, 12, 59, 83
16, 155460, Note_on_c, 12, 59, 0
16, 155460, Note_on_c, 12, 57, 83
16, 155490, Note_on_c, 12, 57, 0
16, 155490, Note_on_c, 12, 59, 83
16, 155520, Note_on_c, 12, 59, 0
16, 155520, Note_on_c, 12, 61, 83
16, 155550, Note_on_c, 12, 61, 0
16, 155550, Note_on_c, 12, 62, 83
16, 155580, Note_on_c, 12, 62, 0
16, 155580, Note_on_c, 12, 64, 83
16, 155640, Note_on_c, 12, 64, 0
16, 155640, Note_on_c, 12, 57, 83
16, 155700, Note_on_c, 12, 57, 0
16, 155700, Note_on_c, 12, 57, 83
16, 155760, Note_on_c, 12, 57, 0
16, 155760, Note_on_c, 12, 57, 83
16, 155940, Note_on_c, 12, 57, 0
16, 158820, Note_on_c, 12, 64, 100
16, 158855, Note_on_c, 12, 64, 0
16, 158880, Note_on_c, 12, 64, 100
16, 158915, Note_on_c, 12, 64, 0
16, 158940, Note_on_c, 12, 64, 100
16, 158975, Note_on_c, 12, 64, 0
16, 159000, Note_on_c, 12, 61, 100
16, 159060, Note_on_c, 12, 61, 0
16, 159060, Note_on_c, 12, 62, 83
16, 159090, Note_on_c, 12, 62, 0
16, 159090, Note_on_c, 12, 61, 83
16, 159120, Note_on_c, 12, 61, 0
16, 159120, Note_on_c, 12, 59, 83
16, 159150, Note_on_c, 12, 59, 0
16, 159150, Note_on_c, 12, 57, 83
16, 159180, Note_on_c, 12, 57, 0
16, 159180, Note_on_c, 12, 62, 83
16, 159240, Note_on_c, 12, 62, 0
16, 159240, Note_on_c, 12, 64, 83
16, 159300, Note_on_c, 12, 64, 0
16, 159300, Note_on_c, 12, 66, 83
16, 159360, Note_on_c, 12, 66, 0
16, 159360, Note_on_c, 12, 59, 83
16, 159420, Note_on_c, 12, 59, 0
16, 159420, Note_on_c, 12, 61, 83
16, 159450, Note_on_c, 12, 61, 0
16, 159450, Note_on_c, 12, 62, 83
16, 159480, Note_on_c, 12, 62, 0
16, 159480, Note_on_c, 12, 64, 83
16, 159510, Note_on_c, 12, 64, 0
16, 159510, Note_on_c, 12, 61, 83
16, 159540, Note_on_c, 12, 61, 0
16, 159540, Note_on_c, 12, 62, 83
16, 159930, Note_on_c, 12, 62, 0
16, 159930, Note_on_c, 12, 61, 83
16, 159960, Note_on_c, 12, 61, 0
16, 159960, Note_on_c, 12, 62, 83
16, 159990, Note_on_c, 12, 62, 0
16, 159990, Note_on_c, 12, 64, 83
16, 160020, Note_on_c, 12, 64, 0
16, 160020, Note_on_c, 12, 66, 83
16, 160050, Note_on_c, 12, 66, 0
16, 160050, Note_on_c, 12, 67, 83
16, 160080, Note_on_c, 12, 67, 0
16, 160080, Note_on_c, 12, 69, 83
16, 160140, Note_on_c, 12, 69, 0
16, 160140, Note_on_c, 12, 57, 83
16, 160200, Note_on_c, 12, 57, 0
16, 160200, Note_on_c, 12, 56, 83
16, 160260, Note_on_c, 12, 56, 0
16, 160260, Note_on_c, 12, 57, 83
16, 160680, Note_on_c, 12, 57, 0
16, 160680, Note_on_c, 12, 57, 83
16, 160740, Note_on_c, 12, 57, 0
16, 160740, Note_on_c, 12, 57, 83
16, 160800, Note_on_c, 12, 57, 0
16, 160800, Note_on_c, 12, 57, 83
16, 161220, Note_on_c, 12, 57, 0
16, 161220, Note_on_c, 12, 57, 83
16, 161280, Note_on_c, 12, 57, 0
16, 161280, Note_on_c, 12, 57, 83
16, 161340, Note_on_c, 12, 57, 0
16, 161340, Note_on_c, 12, 57, 83
16, 161550, Note_on_c, 12, 57, 0
16, 161550, Note_on_c, 12, 56, 83
16, 161580, Note_on_c, 12, 56, 0
16, 161580, Note_on_c, 12, 57, 83
16, 161640, Note_on_c, 12, 57, 0
16, 161640, Note_on_c, 12, 52, 83
16, 161700, Note_on_c, 12, 52, 0
16, 161700, Note_on_c, 12, 64, 100
16, 161760, Note_on_c, 12, 64, 0
16, 161760, Note_on_c, 12, 64, 83
16, 161820, Note_on_c, 12, 64, 0
16, 161820, Note_on_c, 12, 64, 83
16, 161880, Note_on_c, 12, 64, 0
16, 161880, Note_on_c, 12, 64, 100
16, 161940, Note_on_c, 12, 64, 0
16, 161940, Note_on_c, 12, 61, 83
16, 162000, Note_on_c, 12, 61, 0
16, 162000, Note_on_c, 12, 61, 83
16, 162060, Note_on_c, 12, 61, 0
16, 162060, Note_on_c, 12, 61, 100
16, 162120, Note_on_c, 12, 61, 0
16, 162120, Note_on_c, 12, 57, 83
16, 162180, Note_on_c, 12, 57, 0
16, 162180, Note_on_c, 12, 55, 83
16, 162240, Note_on_c, 12, 55, 0
16, 162240, Note_on_c, 12, 62, 100
16, 162300, Note_on_c, 12, 62, 0
16, 162300, Note_on_c, 12, 67, 83
16, 162360, Note_on_c, 12, 67, 0
16, 162360, Note_on_c, 12, 64, 83
16, 162420, Note_on_c, 12, 64, 0
16, 162420, Note_on_c, 12, 62, 100
16, 162480, Note_on_c, 12, 62, 0
16, 162480, Note_on_c, 12, 57, 83
16, 162540, Note_on_c, 12, 57, 0
16, 162540, Note_on_c, 12, 57, 83
16, 162600, Note_on_c, 12, 57, 0
16, 162600, Note_on_c, 12, 57, 100
16, 162660, Note_on_c, 12, 57, 0
16, 162660, Note_on_c, 12, 62, 83
16, 162720, Note_on_c, 12, 62, 0
16, 162720, Note_on_c, 12, 66, 83
16, 162780, Note_on_c, 12, 66, 0
16, 162780, Note_on_c, 12, 66, 100
16, 162840, Note_on_c, 12, 66, 0
16, 162840, Note_on_c, 12, 62, 83
16, 162900, Note_on_c, 12, 62, 0
16, 162900, Note_on_c, 12, 62, 83
16, 162960, Note_on_c, 12, 62, 0
16, 162960, Note_on_c, 12, 62, 100
16, 163020, Note_on_c, 12, 62, 0
16, 163020, Note_on_c, 12, 64, 83
16, 163080, Note_on_c, 12, 64, 0
16, 163080, Note_on_c, 12, 57, 83
16, 163140, Note_on_c, 12, 57, 0
16, 163140, Note_on_c, 12, 62, 100
16, 163200, Note_on_c, 12, 62, 0
16, 163200, Note_on_c, 12, 59, 83
16, 163260, Note_on_c, 12, 59, 0
16, 163260, Note_on_c, 12, 67, 83
16, 163320, Note_on_c, 12, 67, 0
16, 163320, Note_on_c, 12, 64, 83
16, 163380, Note_on_c, 12, 64, 0
16, 163380, Note_on_c, 12, 57, 83
16, 163440, Note_on_c, 12, 57, 0
16, 163440, Note_on_c, 12, 62, 100
16, 163500, Note_on_c, 12, 62, 0
16, 163500, Note_on_c, 12, 57, 83
16, 163560, Note_on_c, 12, 57, 0
16, 163560, Note_on_c, 12, 52, 83
16, 163620, Note_on_c, 12, 52, 0
16, 163620, Note_on_c, 12, 57, 83
16, 163680, Note_on_c, 12, 57, 0
16, 163680, Note_on_c, 12, 57, 83
16, 163800, Note_on_c, 12, 57, 0
16, 163980, Note_on_c, 12, 62, 100
16, 164040, Note_on_c, 12, 62, 0
16, 164040, Note_on_c, 12, 66, 100
16, 164100, Note_on_c, 12, 66, 0
16, 164100, Note_on_c, 12, 69, 83
16, 164160, Note_on_c, 12, 69, 0
16, 164160, Note_on_c, 12, 67, 83
16, 164220, Note_on_c, 12, 67, 0
16, 164220, Note_on_c, 12, 66, 83
16, 164280, Note_on_c, 12, 66, 0
16, 164280, Note_on_c, 12, 62, 83
16, 164310, Note_on_c, 12, 62, 0
16, 164310, Note_on_c, 12, 61, 83
16, 164340, Note_on_c, 12, 61, 0
16, 164340, Note_on_c, 12, 62, 83
16, 164370, Note_on_c, 12, 62, 0
16, 164370, Note_on_c, 12, 64, 83
16, 164400, Note_on_c, 12, 64, 0
16, 164400, Note_on_c, 12, 66, 83
16, 164580, Note_on_c, 12, 66, 0
16, 164580, End_track
17, 0, Start_track
17, 0, MIDI_port, 0
17, 0, Title_t, "bass"
17, 0, Program_c, 13, 52
17, 0, Control_c, 13, 7, 127
17, 0, Control_c, 13, 10, 37
17, 5760, Note_on_c, 13, 62, 100
17, 5820, Note_on_c, 13, 62, 0
17, 5820, Note_on_c, 13, 62, 83
17, 5880, Note_on_c, 13, 62, 0
17, 5880, Note_on_c, 13, 61, 83
17, 5940, Note_on_c, 13, 61, 0
17, 5940, Note_on_c, 13, 59, 100
17, 6000, Note_on_c, 13, 59, 0
17, 6000, Note_on_c, 13, 59, 83
17, 6060, Note_on_c, 13, 59, 0
17, 6060, Note_on_c, 13, 59, 83
17, 6120, Note_on_c, 13, 59, 0
17, 6120, Note_on_c, 13, 61, 100
17, 6180, Note_on_c, 13, 61, 0
17, 6180, Note_on_c, 13, 49, 83
17, 6240, Note_on_c, 13, 49, 0
17, 6240, Note_on_c, 13, 51, 83
17, 6300, Note_on_c, 13, 51, 0
17, 6300, Note_on_c, 13, 52, 100
17, 6360, Note_on_c, 13, 52, 0
17, 6360, Note_on_c, 13, 55, 83
17, 6420, Note_on_c, 13, 55, 0
17, 6420, Note_on_c, 13, 59, 83
17, 6480, Note_on_c, 13, 59, 0
17, 6480, Note_on_c, 13, 64, 100
17, 6540, Note_on_c, 13, 64, 0
17, 6540, Note_on_c, 13, 64, 83
17, 6600, Note_on_c, 13, 64, 0
17, 6600, Note_on_c, 13, 62, 83
17, 6660, Note_on_c, 13, 62, 0
17, 6660, Note_on_c, 13, 61, 100
17, 6720, Note_on_c, 13, 61, 0
17, 6720, Note_on_c, 13, 61, 83
17, 6780, Note_on_c, 13, 61, 0
17, 6780, Note_on_c, 13, 59, 83
17, 6840, Note_on_c, 13, 59, 0
17, 6840, Note_on_c, 13, 57, 100
17, 6900, Note_on_c, 13, 57, 0
17, 6900, Note_on_c, 13, 54, 83
17, 6960, Note_on_c, 13, 54, 0
17, 6960, Note_on_c, 13, 57, 83
17, 7020, Note_on_c, 13, 57, 0
17, 7020, Note_on_c, 13, 50, 100
17, 7080, Note_on_c, 13, 50, 0
17, 7080, Note_on_c, 13, 54, 83
17, 7140, Note_on_c, 13, 54, 0
17, 7140, Note_on_c, 13, 57, 83
17, 7175, Note_on_c, 13, 57, 0
17, 7200, Note_on_c, 13, 62, 100
17, 7260, Note_on_c, 13, 62, 0
17, 7260, Note_on_c, 13, 62, 83
17, 7320, Note_on_c, 13, 62, 0
17, 7320, Note_on_c, 13, 61, 83
17, 7380, Note_on_c, 13, 61, 0
17, 7380, Note_on_c, 13, 59, 100
17, 7440, Note_on_c, 13, 59, 0
17, 7440, Note_on_c, 13, 56, 83
17, 7500, Note_on_c, 13, 56, 0
17, 7500, Note_on_c, 13, 57, 83
17, 7560, Note_on_c, 13, 57, 0
17, 7560, Note_on_c, 13, 50, 83
17, 7620, Note_on_c, 13, 50, 0
17, 7620, Note_on_c, 13, 52, 100
17, 7680, Note_on_c, 13, 52, 0
17, 7680, Note_on_c, 13, 52, 83
17, 7740, Note_on_c, 13, 52, 0
17, 7740, Note_on_c, 13, 57, 83
17, 7860, Note_on_c, 13, 57, 0
17, 8040, Note_on_c, 13, 50, 83
17, 8100, Note_on_c, 13, 50, 0
17, 8100, Note_on_c, 13, 57, 83
17, 8160, Note_on_c, 13, 57, 0
17, 8160, Note_on_c, 13, 61, 83
17, 8220, Note_on_c, 13, 61, 0
17, 8220, Note_on_c, 13, 57, 83
17, 8280, Note_on_c, 13, 57, 0
17, 8280, Note_on_c, 13, 52, 83
17, 8340, Note_on_c, 13, 52, 0
17, 8340, Note_on_c, 13, 49, 83
17, 8400, Note_on_c, 13, 49, 0
17, 8400, Note_on_c, 13, 50, 83
17, 8460, Note_on_c, 13, 50, 0
17, 8460, Note_on_c, 13, 57, 83
17, 8640, Note_on_c, 13, 57, 0
17, 14400, Note_on_c, 13, 57, 100
17, 14460, Note_on_c, 13, 57, 0
17, 14460, Note_on_c, 13, 57, 83
17, 14520, Note_on_c, 13, 57, 0
17, 14520, Note_on_c, 13, 57, 83
17, 14580, Note_on_c, 13, 57, 0
17, 14580, Note_on_c, 13, 55, 100
17, 14640, Note_on_c, 13, 55, 0
17, 14640, Note_on_c, 13, 55, 83
17, 14700, Note_on_c, 13, 55, 0
17, 14700, Note_on_c, 13, 55, 83
17, 14760, Note_on_c, 13, 55, 0
17, 14760, Note_on_c, 13, 54, 100
17, 14820, Note_on_c, 13, 54, 0
17, 14820, Note_on_c, 13, 54, 83
17, 14880, Note_on_c, 13, 54, 0
17, 14880, Note_on_c, 13, 52, 83
17, 14940, Note_on_c, 13, 52, 0
17, 14940, Note_on_c, 13, 50, 100
17, 15000, Note_on_c, 13, 50, 0
17, 15000, Note_on_c, 13, 62, 83
17, 15060, Note_on_c, 13, 62, 0
17, 15060, Note_on_c, 13, 61, 83
17, 15120, Note_on_c, 13, 61, 0
17, 15120, Note_on_c, 13, 62, 100
17, 15180, Note_on_c, 13, 62, 0
17, 15180, Note_on_c, 13, 62, 83
17, 15240, Note_on_c, 13, 62, 0
17, 15240, Note_on_c, 13, 62, 83
17, 15300, Note_on_c, 13, 62, 0
17, 15300, Note_on_c, 13, 60, 100
17, 15360, Note_on_c, 13, 60, 0
17, 15360, Note_on_c, 13, 60, 83
17, 15420, Note_on_c, 13, 60, 0
17, 15420, Note_on_c, 13, 60, 83
17, 15480, Note_on_c, 13, 60, 0
17, 15480, Note_on_c, 13, 59, 100
17, 15540, Note_on_c, 13, 59, 0
17, 15540, Note_on_c, 13, 59, 83
17, 15600, Note_on_c, 13, 59, 0
17, 15600, Note_on_c, 13, 57, 83
17, 15660, Note_on_c, 13, 57, 0
17, 15660, Note_on_c, 13, 55, 100
17, 15720, Note_on_c, 13, 55, 0
17, 15720, Note_on_c, 13, 55, 83
17, 15780, Note_on_c, 13, 55, 0
17, 15780, Note_on_c, 13, 54, 83
17, 15840, Note_on_c, 13, 54, 0
17, 15840, Note_on_c, 13, 55, 100
17, 15900, Note_on_c, 13, 55, 0
17, 15900, Note_on_c, 13, 55, 83
17, 15960, Note_on_c, 13, 55, 0
17, 15960, Note_on_c, 13, 55, 83
17, 16020, Note_on_c, 13, 55, 0
17, 16020, Note_on_c, 13, 55, 83
17, 16080, Note_on_c, 13, 55, 0
17, 16080, Note_on_c, 13, 54, 83
17, 16140, Note_on_c, 13, 54, 0
17, 16140, Note_on_c, 13, 59, 100
17, 16200, Note_on_c, 13, 59, 0
17, 16200, Note_on_c, 13, 57, 83
17, 16260, Note_on_c, 13, 57, 0
17, 16260, Note_on_c, 13, 55, 83
17, 16320, Note_on_c, 13, 55, 0
17, 16320, Note_on_c, 13, 57, 83
17, 16380, Note_on_c, 13, 57, 0
17, 16380, Note_on_c, 13, 50, 83
17, 16500, Note_on_c, 13, 50, 0
17, 16680, Note_on_c, 13, 55, 100
17, 16740, Note_on_c, 13, 55, 0
17, 16740, Note_on_c, 13, 62, 100
17, 16980, Note_on_c, 13, 62, 0
17, 16980, Note_on_c, 13, 62, 83
17, 17040, Note_on_c, 13, 62, 0
17, 17040, Note_on_c, 13, 55, 83
17, 17100, Note_on_c, 13, 55, 0
17, 17100, Note_on_c, 13, 50, 83
17, 17280, Note_on_c, 13, 50, 0
17, 19380, Note_on_c, 13, 57, 90
17, 19439, Note_on_c, 13, 57, 0
17, 19440, Note_on_c, 13, 55, 90
17, 19499, Note_on_c, 13, 55, 0
17, 19500, Note_on_c, 13, 54, 90
17, 19559, Note_on_c, 13, 54, 0
17, 19560, Note_on_c, 13, 52, 90
17, 19619, Note_on_c, 13, 52, 0
17, 19620, Note_on_c, 13, 50, 90
17, 19739, Note_on_c, 13, 50, 0
17, 19740, Note_on_c, 13, 50, 90
17, 19859, Note_on_c, 13, 50, 0
17, 19860, Note_on_c, 13, 57, 90
17, 19979, Note_on_c, 13, 57, 0
17, 19980, Note_on_c, 13, 49, 90
17, 20219, Note_on_c, 13, 49, 0
17, 20220, Note_on_c, 13, 49, 90
17, 20339, Note_on_c, 13, 49, 0
17, 20340, Note_on_c, 13, 50, 90
17, 20459, Note_on_c, 13, 50, 0
17, 20460, Note_on_c, 13, 50, 90
17, 20519, Note_on_c, 13, 50, 0
17, 20520, Note_on_c, 13, 52, 90
17, 20579, Note_on_c, 13, 52, 0
17, 20580, Note_on_c, 13, 54, 90
17, 20639, Note_on_c, 13, 54, 0
17, 20640, Note_on_c, 13, 56, 90
17, 20699, Note_on_c, 13, 56, 0
17, 20700, Note_on_c, 13, 57, 90
17, 20819, Note_on_c, 13, 57, 0
17, 20820, Note_on_c, 13, 57, 90
17, 20939, Note_on_c, 13, 57, 0
17, 20940, Note_on_c, 13, 52, 90
17, 21059, Note_on_c, 13, 52, 0
17, 21060, Note_on_c, 13, 59, 90
17, 21299, Note_on_c, 13, 59, 0
17, 21300, Note_on_c, 13, 59, 90
17, 21419, Note_on_c, 13, 59, 0
17, 21420, Note_on_c, 13, 57, 90
17, 21539, Note_on_c, 13, 57, 0
17, 21540, Note_on_c, 13, 61, 90
17, 21599, Note_on_c, 13, 61, 0
17, 21600, Note_on_c, 13, 59, 90
17, 21659, Note_on_c, 13, 59, 0
17, 21660, Note_on_c, 13, 57, 90
17, 21719, Note_on_c, 13, 57, 0
17, 21720, Note_on_c, 13, 56, 90
17, 21779, Note_on_c, 13, 56, 0
17, 21780, Note_on_c, 13, 54, 90
17, 21899, Note_on_c, 13, 54, 0
17, 21900, Note_on_c, 13, 54, 90
17, 22019, Note_on_c, 13, 54, 0
17, 22260, Note_on_c, 13, 59, 90
17, 22319, Note_on_c, 13, 59, 0
17, 22320, Note_on_c, 13, 57, 90
17, 22379, Note_on_c, 13, 57, 0
17, 22380, Note_on_c, 13, 56, 90
17, 22439, Note_on_c, 13, 56, 0
17, 22440, Note_on_c, 13, 54, 90
17, 22499, Note_on_c, 13, 54, 0
17, 22500, Note_on_c, 13, 52, 90
17, 22619, Note_on_c, 13, 52, 0
17, 22620, Note_on_c, 13, 52, 90
17, 22739, Note_on_c, 13, 52, 0
17, 22980, Note_on_c, 13, 45, 90
17, 23039, Note_on_c, 13, 45, 0
17, 23040, Note_on_c, 13, 47, 90
17, 23099, Note_on_c, 13, 47, 0
17, 23100, Note_on_c, 13, 49, 90
17, 23159, Note_on_c, 13, 49, 0
17, 23160, Note_on_c, 13, 50, 90
17, 23219, Note_on_c, 13, 50, 0
17, 23220, Note_on_c, 13, 52, 90
17, 23339, Note_on_c, 13, 52, 0
17, 23340, Note_on_c, 13, 52, 90
17, 23459, Note_on_c, 13, 52, 0
17, 23460, Note_on_c, 13, 45, 90
17, 23579, Note_on_c, 13, 45, 0
17, 23580, Note_on_c, 13, 54, 90
17, 23819, Note_on_c, 13, 54, 0
17, 23820, Note_on_c, 13, 54, 90
17, 23939, Note_on_c, 13, 54, 0
17, 23940, Note_on_c, 13, 52, 90
17, 24179, Note_on_c, 13, 52, 0
17, 24180, Note_on_c, 13, 49, 90
17, 24299, Note_on_c, 13, 49, 0
17, 24300, Note_on_c, 13, 58, 90
17, 24479, Note_on_c, 13, 58, 0
17, 24480, Note_on_c, 13, 61, 90
17, 24539, Note_on_c, 13, 61, 0
17, 24540, Note_on_c, 13, 54, 90
17, 24599, Note_on_c, 13, 54, 0
17, 24600, Note_on_c, 13, 58, 90
17, 24659, Note_on_c, 13, 58, 0
17, 24660, Note_on_c, 13, 59, 90
17, 24719, Note_on_c, 13, 59, 0
17, 24720, Note_on_c, 13, 47, 90
17, 24779, Note_on_c, 13, 47, 0
17, 24780, Note_on_c, 13, 59, 90
17, 24839, Note_on_c, 13, 59, 0
17, 24840, Note_on_c, 13, 57, 90
17, 24899, Note_on_c, 13, 57, 0
17, 24900, Note_on_c, 13, 56, 90
17, 24959, Note_on_c, 13, 56, 0
17, 24960, Note_on_c, 13, 54, 90
17, 25019, Note_on_c, 13, 54, 0
17, 25020, Note_on_c, 13, 53, 90
17, 25079, Note_on_c, 13, 53, 0
17, 25080, Note_on_c, 13, 54, 90
17, 25139, Note_on_c, 13, 54, 0
17, 25140, Note_on_c, 13, 56, 90
17, 25199, Note_on_c, 13, 56, 0
17, 25200, Note_on_c, 13, 52, 90
17, 25259, Note_on_c, 13, 52, 0
17, 25260, Note_on_c, 13, 49, 90
17, 25319, Note_on_c, 13, 49, 0
17, 25320, Note_on_c, 13, 52, 90
17, 25379, Note_on_c, 13, 52, 0
17, 25380, Note_on_c, 13, 54, 90
17, 25499, Note_on_c, 13, 54, 0
17, 26220, Note_on_c, 13, 52, 90
17, 26339, Note_on_c, 13, 52, 0
17, 26340, Note_on_c, 13, 57, 90
17, 26579, Note_on_c, 13, 57, 0
17, 26580, Note_on_c, 13, 51, 90
17, 26699, Note_on_c, 13, 51, 0
17, 26700, Note_on_c, 13, 56, 90
17, 26879, Note_on_c, 13, 56, 0
17, 26880, Note_on_c, 13, 57, 90
17, 26939, Note_on_c, 13, 57, 0
17, 26940, Note_on_c, 13, 56, 90
17, 26999, Note_on_c, 13, 56, 0
17, 27000, Note_on_c, 13, 54, 90
17, 27059, Note_on_c, 13, 54, 0
17, 27060, Note_on_c, 13, 52, 90
17, 27119, Note_on_c, 13, 52, 0
17, 27120, Note_on_c, 13, 51, 90
17, 27179, Note_on_c, 13, 51, 0
17, 27180, Note_on_c, 13, 56, 90
17, 27239, Note_on_c, 13, 56, 0
17, 27240, Note_on_c, 13, 56, 90
17, 27299, Note_on_c, 13, 56, 0
17, 27300, Note_on_c, 13, 54, 90
17, 27359, Note_on_c, 13, 54, 0
17, 27360, Note_on_c, 13, 52, 90
17, 27419, Note_on_c, 13, 52, 0
17, 27420, Note_on_c, 13, 51, 90
17, 27479, Note_on_c, 13, 51, 0
17, 27480, Note_on_c, 13, 49, 90
17, 27539, Note_on_c, 13, 49, 0
17, 27540, Note_on_c, 13, 54, 90
17, 27599, Note_on_c, 13, 54, 0
17, 27600, Note_on_c, 13, 49, 90
17, 27659, Note_on_c, 13, 49, 0
17, 27660, Note_on_c, 13, 54, 90
17, 27719, Note_on_c, 13, 54, 0
17, 27720, Note_on_c, 13, 52, 90
17, 27779, Note_on_c, 13, 52, 0
17, 27780, Note_on_c, 13, 54, 90
17, 27959, Note_on_c, 13, 54, 0
17, 27960, Note_on_c, 13, 51, 90
17, 28019, Note_on_c, 13, 51, 0
17, 28020, Note_on_c, 13, 52, 90
17, 28079, Note_on_c, 13, 52, 0
17, 28080, Note_on_c, 13, 49, 90
17, 28139, Note_on_c, 13, 49, 0
17, 28140, Note_on_c, 13, 57, 90
17, 28199, Note_on_c, 13, 57, 0
17, 28200, Note_on_c, 13, 56, 90
17, 28259, Note_on_c, 13, 56, 0
17, 28260, Note_on_c, 13, 57, 90
17, 28319, Note_on_c, 13, 57, 0
17, 28320, Note_on_c, 13, 54, 90
17, 28379, Note_on_c, 13, 54, 0
17, 28380, Note_on_c, 13, 56, 90
17, 28619, Note_on_c, 13, 56, 0
17, 28620, Note_on_c, 13, 49, 90
17, 28739, Note_on_c, 13, 49, 0
17, 28800, Control_c, 13, 0, 20
17, 28800, Control_c, 13, 0, 20
17, 28800, Control_c, 13, 0, 20
17, 28800, Program_c, 13, 67
17, 28800, Note_on_c, 13, 56, 90
17, 28859, Note_on_c, 13, 56, 0
17, 28860, Note_on_c, 13, 61, 90
17, 28919, Note_on_c, 13, 61, 0
17, 28920, Note_on_c, 13, 61, 90
17, 28979, Note_on_c, 13, 61, 0
17, 28980, Note_on_c, 13, 64, 90
17, 29039, Note_on_c, 13, 64, 0
17, 29040, Note_on_c, 13, 61, 90
17, 29099, Note_on_c, 13, 61, 0
17, 29100, Note_on_c, 13, 58, 90
17, 29159, Note_on_c, 13, 58, 0
17, 29190, Note_on_c, 13, 58, 90
17, 29219, Note_on_c, 13, 58, 0
17, 29220, Note_on_c, 13, 61, 90
17, 29279, Note_on_c, 13, 61, 0
17, 29280, Note_on_c, 13, 58, 90
17, 29339, Note_on_c, 13, 58, 0
17, 29340, Note_on_c, 13, 54, 90
17, 29399, Note_on_c, 13, 54, 0
17, 29400, Note_on_c, 13, 54, 90
17, 29459, Note_on_c, 13, 54, 0
17, 29460, Note_on_c, 13, 56, 90
17, 29519, Note_on_c, 13, 56, 0
17, 29520, Note_on_c, 13, 58, 90
17, 29579, Note_on_c, 13, 58, 0
17, 29580, Note_on_c, 13, 59, 90
17, 29639, Note_on_c, 13, 59, 0
17, 29670, Note_on_c, 13, 47, 90
17, 29699, Note_on_c, 13, 47, 0
17, 29700, Note_on_c, 13, 51, 90
17, 29759, Note_on_c, 13, 51, 0
17, 29760, Note_on_c, 13, 54, 90
17, 29819, Note_on_c, 13, 54, 0
17, 29820, Note_on_c, 13, 57, 90
17, 29879, Note_on_c, 13, 57, 0
17, 29880, Note_on_c, 13, 57, 90
17, 29939, Note_on_c, 13, 57, 0
17, 29940, Note_on_c, 13, 54, 90
17, 29999, Note_on_c, 13, 54, 0
17, 30000, Note_on_c, 13, 59, 90
17, 30059, Note_on_c, 13, 59, 0
17, 30060, Note_on_c, 13, 56, 90
17, 30119, Note_on_c, 13, 56, 0
17, 30120, Note_on_c, 13, 56, 90
17, 30179, Note_on_c, 13, 56, 0
17, 30240, Note_on_c, 13, 56, 90
17, 30299, Note_on_c, 13, 56, 0
17, 30300, Note_on_c, 13, 56, 90
17, 30359, Note_on_c, 13, 56, 0
17, 30360, Note_on_c, 13, 49, 90
17, 30419, Note_on_c, 13, 49, 0
17, 30420, Note_on_c, 13, 51, 90
17, 30479, Note_on_c, 13, 51, 0
17, 30480, Note_on_c, 13, 52, 90
17, 30539, Note_on_c, 13, 52, 0
17, 30540, Note_on_c, 13, 52, 90
17, 30599, Note_on_c, 13, 52, 0
17, 30600, Note_on_c, 13, 47, 90
17, 30659, Note_on_c, 13, 47, 0
17, 30840, Note_on_c, 13, 59, 90
17, 30899, Note_on_c, 13, 59, 0
17, 30900, Note_on_c, 13, 64, 90
17, 30959, Note_on_c, 13, 64, 0
17, 30960, Note_on_c, 13, 59, 90
17, 31019, Note_on_c, 13, 59, 0
17, 31080, Note_on_c, 13, 56, 90
17, 31139, Note_on_c, 13, 56, 0
17, 31140, Note_on_c, 13, 59, 90
17, 31199, Note_on_c, 13, 59, 0
17, 31200, Note_on_c, 13, 56, 90
17, 31229, Note_on_c, 13, 56, 0
17, 31230, Note_on_c, 13, 52, 90
17, 31259, Note_on_c, 13, 52, 0
17, 31260, Note_on_c, 13, 57, 90
17, 31379, Note_on_c, 13, 57, 0
17, 31440, Note_on_c, 13, 61, 90
17, 31499, Note_on_c, 13, 61, 0
17, 31560, Note_on_c, 13, 62, 90
17, 31589, Note_on_c, 13, 62, 0
17, 31590, Note_on_c, 13, 59, 90
17, 31619, Note_on_c, 13, 59, 0
17, 31620, Note_on_c, 13, 56, 90
17, 31679, Note_on_c, 13, 56, 0
17, 31680, Note_on_c, 13, 57, 90
17, 31739, Note_on_c, 13, 57, 0
17, 31740, Note_on_c, 13, 57, 90
17, 31799, Note_on_c, 13, 57, 0
17, 31800, Note_on_c, 13, 52, 90
17, 31859, Note_on_c, 13, 52, 0
17, 32460, Control_c, 13, 0, 40
17, 32460, Program_c, 13, 52
17, 32460, Note_on_c, 13, 57, 90
17, 32519, Note_on_c, 13, 57, 0
17, 32520, Note_on_c, 13, 55, 90
17, 32579, Note_on_c, 13, 55, 0
17, 32580, Note_on_c, 13, 54, 90
17, 32639, Note_on_c, 13, 54, 0
17, 32640, Note_on_c, 13, 52, 90
17, 32699, Note_on_c, 13, 52, 0
17, 32700, Note_on_c, 13, 50, 90
17, 32819, Note_on_c, 13, 50, 0
17, 32820, Note_on_c, 13, 55, 90
17, 32999, Note_on_c, 13, 55, 0
17, 33000, Note_on_c, 13, 54, 90
17, 33029, Note_on_c, 13, 54, 0
17, 33030, Note_on_c, 13, 52, 90
17, 33059, Note_on_c, 13, 52, 0
17, 33060, Note_on_c, 13, 54, 90
17, 33119, Note_on_c, 13, 54, 0
17, 33120, Note_on_c, 13, 50, 90
17, 33179, Note_on_c, 13, 50, 0
17, 33180, Note_on_c, 13, 57, 90
17, 33239, Note_on_c, 13, 57, 0
17, 33240, Note_on_c, 13, 45, 90
17, 33299, Note_on_c, 13, 45, 0
17, 33300, Note_on_c, 13, 50, 90
17, 33539, Note_on_c, 13, 50, 0
17, 33540, Note_on_c, 13, 54, 90
17, 33599, Note_on_c, 13, 54, 0
17, 33600, Note_on_c, 13, 52, 90
17, 33659, Note_on_c, 13, 52, 0
17, 33660, Note_on_c, 13, 50, 90
17, 33719, Note_on_c, 13, 50, 0
17, 33720, Note_on_c, 13, 49, 90
17, 33779, Note_on_c, 13, 49, 0
17, 33780, Note_on_c, 13, 47, 90
17, 33839, Note_on_c, 13, 47, 0
17, 33840, Note_on_c, 13, 57, 90
17, 33899, Note_on_c, 13, 57, 0
17, 33900, Note_on_c, 13, 56, 90
17, 33959, Note_on_c, 13, 56, 0
17, 33960, Note_on_c, 13, 52, 90
17, 34019, Note_on_c, 13, 52, 0
17, 34020, Note_on_c, 13, 57, 90
17, 34079, Note_on_c, 13, 57, 0
17, 34080, Note_on_c, 13, 54, 90
17, 34139, Note_on_c, 13, 54, 0
17, 34140, Note_on_c, 13, 50, 90
17, 34199, Note_on_c, 13, 50, 0
17, 34200, Note_on_c, 13, 52, 90
17, 34259, Note_on_c, 13, 52, 0
17, 34260, Note_on_c, 13, 57, 90
17, 34379, Note_on_c, 13, 57, 0
17, 34380, Note_on_c, 13, 50, 90
17, 34439, Note_on_c, 13, 50, 0
17, 34440, Note_on_c, 13, 52, 90
17, 34499, Note_on_c, 13, 52, 0
17, 34500, Note_on_c, 13, 54, 90
17, 34559, Note_on_c, 13, 54, 0
17, 34560, Note_on_c, 13, 56, 90
17, 34619, Note_on_c, 13, 56, 0
17, 34620, Note_on_c, 13, 57, 90
17, 34679, Note_on_c, 13, 57, 0
17, 34680, Note_on_c, 13, 59, 90
17, 34739, Note_on_c, 13, 59, 0
17, 34740, Note_on_c, 13, 61, 90
17, 34799, Note_on_c, 13, 61, 0
17, 34800, Note_on_c, 13, 62, 90
17, 34859, Note_on_c, 13, 62, 0
17, 34860, Note_on_c, 13, 64, 90
17, 34919, Note_on_c, 13, 64, 0
17, 34920, Note_on_c, 13, 63, 90
17, 34979, Note_on_c, 13, 63, 0
17, 34980, Note_on_c, 13, 61, 90
17, 35039, Note_on_c, 13, 61, 0
17, 35040, Note_on_c, 13, 57, 90
17, 35099, Note_on_c, 13, 57, 0
17, 35100, Note_on_c, 13, 59, 90
17, 35219, Note_on_c, 13, 59, 0
17, 35220, Note_on_c, 13, 52, 90
17, 35339, Note_on_c, 13, 52, 0
17, 35340, Note_on_c, 13, 57, 90
17, 35459, Note_on_c, 13, 57, 0
17, 35460, Note_on_c, 13, 56, 90
17, 35519, Note_on_c, 13, 56, 0
17, 35520, Note_on_c, 13, 54, 90
17, 35579, Note_on_c, 13, 54, 0
17, 35580, Note_on_c, 13, 52, 90
17, 35639, Note_on_c, 13, 52, 0
17, 35640, Note_on_c, 13, 51, 90
17, 35699, Note_on_c, 13, 51, 0
17, 35700, Note_on_c, 13, 52, 90
17, 35759, Note_on_c, 13, 52, 0
17, 35760, Note_on_c, 13, 54, 90
17, 35819, Note_on_c, 13, 54, 0
17, 35820, Note_on_c, 13, 55, 90
17, 35879, Note_on_c, 13, 55, 0
17, 35880, Note_on_c, 13, 52, 90
17, 35939, Note_on_c, 13, 52, 0
17, 35940, Note_on_c, 13, 54, 90
17, 35999, Note_on_c, 13, 54, 0
17, 36000, Note_on_c, 13, 56, 90
17, 36059, Note_on_c, 13, 56, 0
17, 36060, Note_on_c, 13, 57, 90
17, 36119, Note_on_c, 13, 57, 0
17, 36120, Note_on_c, 13, 56, 90
17, 36179, Note_on_c, 13, 56, 0
17, 36180, Note_on_c, 13, 54, 90
17, 36239, Note_on_c, 13, 54, 0
17, 36240, Note_on_c, 13, 52, 90
17, 36299, Note_on_c, 13, 52, 0
17, 36300, Note_on_c, 13, 50, 90
17, 36359, Note_on_c, 13, 50, 0
17, 36360, Note_on_c, 13, 49, 90
17, 36419, Note_on_c, 13, 49, 0
17, 36420, Note_on_c, 13, 51, 90
17, 36479, Note_on_c, 13, 51, 0
17, 36480, Note_on_c, 13, 47, 90
17, 36539, Note_on_c, 13, 47, 0
17, 36540, Note_on_c, 13, 52, 90
17, 36599, Note_on_c, 13, 52, 0
17, 36600, Note_on_c, 13, 50, 90
17, 36659, Note_on_c, 13, 50, 0
17, 36660, Note_on_c, 13, 49, 90
17, 36719, Note_on_c, 13, 49, 0
17, 36720, Note_on_c, 13, 45, 90
17, 36779, Note_on_c, 13, 45, 0
17, 36780, Note_on_c, 13, 50, 90
17, 36899, Note_on_c, 13, 50, 0
17, 36900, Note_on_c, 13, 45, 90
17, 37259, Note_on_c, 13, 45, 0
17, 40620, Control_c, 13, 0, 20
17, 40620, Program_c, 13, 67
17, 40620, Note_on_c, 13, 61, 85
17, 40709, Note_on_c, 13, 61, 0
17, 40710, Note_on_c, 13, 62, 85
17, 40724, Note_on_c, 13, 62, 0
17, 40725, Note_on_c, 13, 64, 85
17, 40739, Note_on_c, 13, 64, 0
17, 40740, Note_on_c, 13, 62, 85
17, 40799, Note_on_c, 13, 62, 0
17, 40800, Note_on_c, 13, 61, 85
17, 40814, Note_on_c, 13, 61, 0
17, 40815, Note_on_c, 13, 59, 85
17, 40829, Note_on_c, 13, 59, 0
17, 40830, Note_on_c, 13, 57, 85
17, 40859, Note_on_c, 13, 57, 0
17, 40860, Note_on_c, 13, 57, 85
17, 40919, Note_on_c, 13, 57, 0
17, 40920, Note_on_c, 13, 59, 85
17, 40979, Note_on_c, 13, 59, 0
17, 40980, Note_on_c, 13, 61, 85
17, 41009, Note_on_c, 13, 61, 0
17, 41010, Note_on_c, 13, 59, 85
17, 41039, Note_on_c, 13, 59, 0
17, 41040, Note_on_c, 13, 59, 85
17, 41069, Note_on_c, 13, 59, 0
17, 41070, Note_on_c, 13, 57, 85
17, 41099, Note_on_c, 13, 57, 0
17, 41100, Note_on_c, 13, 57, 85
17, 41189, Note_on_c, 13, 57, 0
17, 41190, Note_on_c, 13, 57, 85
17, 41219, Note_on_c, 13, 57, 0
17, 41220, Note_on_c, 13, 59, 85
17, 41249, Note_on_c, 13, 59, 0
17, 41250, Note_on_c, 13, 61, 85
17, 41279, Note_on_c, 13, 61, 0
17, 41280, Note_on_c, 13, 61, 85
17, 41309, Note_on_c, 13, 61, 0
17, 41310, Note_on_c, 13, 62, 85
17, 41339, Note_on_c, 13, 62, 0
17, 41340, Note_on_c, 13, 62, 85
17, 41369, Note_on_c, 13, 62, 0
17, 41370, Note_on_c, 13, 61, 85
17, 41399, Note_on_c, 13, 61, 0
17, 41400, Note_on_c, 13, 62, 85
17, 41459, Note_on_c, 13, 62, 0
17, 41520, Note_on_c, 13, 59, 85
17, 41549, Note_on_c, 13, 59, 0
17, 41550, Note_on_c, 13, 57, 85
17, 41579, Note_on_c, 13, 57, 0
17, 41580, Note_on_c, 13, 57, 85
17, 41609, Note_on_c, 13, 57, 0
17, 41610, Note_on_c, 13, 56, 85
17, 41639, Note_on_c, 13, 56, 0
17, 41640, Note_on_c, 13, 56, 85
17, 41729, Note_on_c, 13, 56, 0
17, 41730, Note_on_c, 13, 56, 85
17, 41759, Note_on_c, 13, 56, 0
17, 41760, Note_on_c, 13, 57, 85
17, 41789, Note_on_c, 13, 57, 0
17, 41790, Note_on_c, 13, 59, 85
17, 41819, Note_on_c, 13, 59, 0
17, 41820, Note_on_c, 13, 59, 85
17, 41849, Note_on_c, 13, 59, 0
17, 41850, Note_on_c, 13, 61, 85
17, 41879, Note_on_c, 13, 61, 0
17, 41880, Note_on_c, 13, 61, 85
17, 41939, Note_on_c, 13, 61, 0
17, 41940, Note_on_c, 13, 59, 85
17, 41969, Note_on_c, 13, 59, 0
17, 41970, Note_on_c, 13, 61, 85
17, 41999, Note_on_c, 13, 61, 0
17, 42000, Note_on_c, 13, 62, 85
17, 42029, Note_on_c, 13, 62, 0
17, 42030, Note_on_c, 13, 59, 85
17, 42059, Note_on_c, 13, 59, 0
17, 42060, Note_on_c, 13, 61, 85
17, 42089, Note_on_c, 13, 61, 0
17, 42090, Note_on_c, 13, 59, 85
17, 42119, Note_on_c, 13, 59, 0
17, 42120, Note_on_c, 13, 57, 85
17, 42149, Note_on_c, 13, 57, 0
17, 42150, Note_on_c, 13, 56, 85
17, 42179, Note_on_c, 13, 56, 0
17, 42180, Note_on_c, 13, 57, 85
17, 42209, Note_on_c, 13, 57, 0
17, 42210, Note_on_c, 13, 59, 85
17, 42239, Note_on_c, 13, 59, 0
17, 42240, Note_on_c, 13, 52, 85
17, 42720, Note_on_c, 13, 52, 0
17, 42780, Note_on_c, 13, 57, 85
17, 42899, Note_on_c, 13, 57, 0
17, 42900, Note_on_c, 13, 56, 85
17, 42959, Note_on_c, 13, 56, 0
17, 42960, Note_on_c, 13, 54, 85
17, 42989, Note_on_c, 13, 54, 0
17, 42990, Note_on_c, 13, 53, 85
17, 43019, Note_on_c, 13, 53, 0
17, 43020, Note_on_c, 13, 54, 85
17, 43079, Note_on_c, 13, 54, 0
17, 43140, Note_on_c, 13, 56, 85
17, 43259, Note_on_c, 13, 56, 0
17, 43260, Note_on_c, 13, 54, 85
17, 43319, Note_on_c, 13, 54, 0
17, 43320, Note_on_c, 13, 52, 85
17, 43349, Note_on_c, 13, 52, 0
17, 43350, Note_on_c, 13, 51, 85
17, 43379, Note_on_c, 13, 51, 0
17, 43380, Note_on_c, 13, 52, 85
17, 43439, Note_on_c, 13, 52, 0
17, 43440, Note_on_c, 13, 59, 85
17, 43529, Note_on_c, 13, 59, 0
17, 43530, Note_on_c, 13, 57, 85
17, 43559, Note_on_c, 13, 57, 0
17, 43560, Note_on_c, 13, 55, 85
17, 43589, Note_on_c, 13, 55, 0
17, 43590, Note_on_c, 13, 54, 85
17, 43619, Note_on_c, 13, 54, 0
17, 43620, Note_on_c, 13, 55, 85
17, 43649, Note_on_c, 13, 55, 0
17, 43650, Note_on_c, 13, 52, 85
17, 43679, Note_on_c, 13, 52, 0
17, 43680, Note_on_c, 13, 51, 85
17, 43739, Note_on_c, 13, 51, 0
17, 43740, Note_on_c, 13, 52, 85
17, 43769, Note_on_c, 13, 52, 0
17, 43770, Note_on_c, 13, 52, 85
17, 43799, Note_on_c, 13, 52, 0
17, 43800, Note_on_c, 13, 54, 85
17, 43829, Note_on_c, 13, 54, 0
17, 43830, Note_on_c, 13, 56, 85
17, 43859, Note_on_c, 13, 56, 0
17, 43860, Note_on_c, 13, 57, 85
17, 43919, Note_on_c, 13, 57, 0
17, 43980, Note_on_c, 13, 61, 85
17, 44009, Note_on_c, 13, 61, 0
17, 44010, Note_on_c, 13, 59, 85
17, 44039, Note_on_c, 13, 59, 0
17, 44040, Note_on_c, 13, 59, 85
17, 44069, Note_on_c, 13, 59, 0
17, 44070, Note_on_c, 13, 58, 85
17, 44099, Note_on_c, 13, 58, 0
17, 44100, Note_on_c, 13, 59, 85
17, 44219, Note_on_c, 13, 59, 0
17, 44220, Note_on_c, 13, 52, 85
17, 44234, Note_on_c, 13, 52, 0
17, 44235, Note_on_c, 13, 54, 85
17, 44249, Note_on_c, 13, 54, 0
17, 44250, Note_on_c, 13, 56, 85
17, 44309, Note_on_c, 13, 56, 0
17, 44310, Note_on_c, 13, 56, 85
17, 44339, Note_on_c, 13, 56, 0
17, 44340, Note_on_c, 13, 56, 85
17, 44369, Note_on_c, 13, 56, 0
17, 44370, Note_on_c, 13, 56, 85
17, 44399, Note_on_c, 13, 56, 0
17, 44400, Note_on_c, 13, 56, 85
17, 44414, Note_on_c, 13, 56, 0
17, 44415, Note_on_c, 13, 54, 85
17, 44429, Note_on_c, 13, 54, 0
17, 44430, Note_on_c, 13, 52, 85
17, 44459, Note_on_c, 13, 52, 0
17, 44460, Note_on_c, 13, 54, 85
17, 44519, Note_on_c, 13, 54, 0
17, 44520, Note_on_c, 13, 47, 85
17, 44579, Note_on_c, 13, 47, 0
17, 44580, Note_on_c, 13, 52, 85
17, 44669, Note_on_c, 13, 52, 0
17, 44670, Note_on_c, 13, 54, 85
17, 44699, Note_on_c, 13, 54, 0
17, 44700, Note_on_c, 13, 51, 85
17, 44759, Note_on_c, 13, 51, 0
17, 44760, Note_on_c, 13, 52, 85
17, 44879, Note_on_c, 13, 52, 0
17, 47640, Note_on_c, 13, 56, 85
17, 47729, Note_on_c, 13, 56, 0
17, 47730, Note_on_c, 13, 57, 85
17, 47744, Note_on_c, 13, 57, 0
17, 47745, Note_on_c, 13, 59, 85
17, 47759, Note_on_c, 13, 59, 0
17, 47760, Note_on_c, 13, 57, 85
17, 47819, Note_on_c, 13, 57, 0
17, 47820, Note_on_c, 13, 56, 85
17, 47834, Note_on_c, 13, 56, 0
17, 47835, Note_on_c, 13, 54, 85
17, 47849, Note_on_c, 13, 54, 0
17, 47850, Note_on_c, 13, 52, 85
17, 47879, Note_on_c, 13, 52, 0
17, 47880, Note_on_c, 13, 52, 85
17, 47939, Note_on_c, 13, 52, 0
17, 48000, Note_on_c, 13, 52, 85
17, 48089, Note_on_c, 13, 52, 0
17, 48090, Note_on_c, 13, 54, 85
17, 48104, Note_on_c, 13, 54, 0
17, 48105, Note_on_c, 13, 55, 85
17, 48119, Note_on_c, 13, 55, 0
17, 48120, Note_on_c, 13, 54, 85
17, 48179, Note_on_c, 13, 54, 0
17, 48180, Note_on_c, 13, 52, 85
17, 48194, Note_on_c, 13, 52, 0
17, 48195, Note_on_c, 13, 50, 85
17, 48209, Note_on_c, 13, 50, 0
17, 48210, Note_on_c, 13, 49, 85
17, 48239, Note_on_c, 13, 49, 0
17, 48240, Note_on_c, 13, 49, 85
17, 48299, Note_on_c, 13, 49, 0
17, 48540, Note_on_c, 13, 59, 85
17, 48629, Note_on_c, 13, 59, 0
17, 48630, Note_on_c, 13, 61, 85
17, 48644, Note_on_c, 13, 61, 0
17, 48645, Note_on_c, 13, 62, 85
17, 48659, Note_on_c, 13, 62, 0
17, 48660, Note_on_c, 13, 61, 85
17, 48689, Note_on_c, 13, 61, 0
17, 48690, Note_on_c, 13, 59, 85
17, 48719, Note_on_c, 13, 59, 0
17, 48720, Note_on_c, 13, 59, 85
17, 48734, Note_on_c, 13, 59, 0
17, 48735, Note_on_c, 13, 57, 85
17, 48749, Note_on_c, 13, 57, 0
17, 48750, Note_on_c, 13, 56, 85
17, 48779, Note_on_c, 13, 56, 0
17, 48780, Note_on_c, 13, 57, 85
17, 48839, Note_on_c, 13, 57, 0
17, 48900, Note_on_c, 13, 57, 85
17, 48989, Note_on_c, 13, 57, 0
17, 48990, Note_on_c, 13, 59, 85
17, 49004, Note_on_c, 13, 59, 0
17, 49005, Note_on_c, 13, 61, 85
17, 49019, Note_on_c, 13, 61, 0
17, 49020, Note_on_c, 13, 59, 85
17, 49049, Note_on_c, 13, 59, 0
17, 49050, Note_on_c, 13, 57, 85
17, 49079, Note_on_c, 13, 57, 0
17, 49080, Note_on_c, 13, 57, 85
17, 49259, Note_on_c, 13, 57, 0
17, 49260, Note_on_c, 13, 56, 85
17, 49379, Note_on_c, 13, 56, 0
17, 49440, Note_on_c, 13, 57, 85
17, 49469, Note_on_c, 13, 57, 0
17, 49470, Note_on_c, 13, 56, 85
17, 49499, Note_on_c, 13, 56, 0
17, 49500, Note_on_c, 13, 56, 85
17, 49529, Note_on_c, 13, 56, 0
17, 49530, Note_on_c, 13, 54, 85
17, 49559, Note_on_c, 13, 54, 0
17, 49560, Note_on_c, 13, 54, 85
17, 49649, Note_on_c, 13, 54, 0
17, 49650, Note_on_c, 13, 54, 85
17, 49679, Note_on_c, 13, 54, 0
17, 49680, Note_on_c, 13, 56, 85
17, 49709, Note_on_c, 13, 56, 0
17, 49710, Note_on_c, 13, 58, 85
17, 49739, Note_on_c, 13, 58, 0
17, 49740, Note_on_c, 13, 58, 85
17, 49769, Note_on_c, 13, 58, 0
17, 49770, Note_on_c, 13, 59, 85
17, 49799, Note_on_c, 13, 59, 0
17, 49800, Note_on_c, 13, 59, 85
17, 49919, Note_on_c, 13, 59, 0
17, 49980, Note_on_c, 13, 62, 85
17, 50009, Note_on_c, 13, 62, 0
17, 50010, Note_on_c, 13, 61, 85
17, 50039, Note_on_c, 13, 61, 0
17, 50040, Note_on_c, 13, 61, 85
17, 50069, Note_on_c, 13, 61, 0
17, 50070, Note_on_c, 13, 59, 85
17, 50099, Note_on_c, 13, 59, 0
17, 50100, Note_on_c, 13, 59, 85
17, 50189, Note_on_c, 13, 59, 0
17, 50190, Note_on_c, 13, 59, 85
17, 50219, Note_on_c, 13, 59, 0
17, 50220, Note_on_c, 13, 61, 85
17, 50249, Note_on_c, 13, 61, 0
17, 50250, Note_on_c, 13, 62, 85
17, 50279, Note_on_c, 13, 62, 0
17, 50280, Note_on_c, 13, 62, 85
17, 50309, Note_on_c, 13, 62, 0
17, 50310, Note_on_c, 13, 64, 85
17, 50339, Note_on_c, 13, 64, 0
17, 50340, Note_on_c, 13, 64, 85
17, 50760, Note_on_c, 13, 64, 0
17, 50760, Note_on_c, 13, 59, 85
17, 50789, Note_on_c, 13, 59, 0
17, 50790, Note_on_c, 13, 61, 85
17, 50819, Note_on_c, 13, 61, 0
17, 50820, Note_on_c, 13, 62, 85
17, 50849, Note_on_c, 13, 62, 0
17, 50850, Note_on_c, 13, 59, 85
17, 50879, Note_on_c, 13, 59, 0
17, 50880, Note_on_c, 13, 61, 85
17, 50909, Note_on_c, 13, 61, 0
17, 50910, Note_on_c, 13, 59, 85
17, 50939, Note_on_c, 13, 59, 0
17, 50940, Note_on_c, 13, 57, 85
17, 50969, Note_on_c, 13, 57, 0
17, 50970, Note_on_c, 13, 56, 85
17, 50999, Note_on_c, 13, 56, 0
17, 51000, Note_on_c, 13, 57, 85
17, 51029, Note_on_c, 13, 57, 0
17, 51030, Note_on_c, 13, 59, 85
17, 51059, Note_on_c, 13, 59, 0
17, 51060, Note_on_c, 13, 52, 85
17, 51179, Note_on_c, 13, 52, 0
17, 51240, Note_on_c, 13, 49, 85
17, 51269, Note_on_c, 13, 49, 0
17, 51270, Note_on_c, 13, 51, 85
17, 51299, Note_on_c, 13, 51, 0
17, 51300, Note_on_c, 13, 51, 85
17, 51329, Note_on_c, 13, 51, 0
17, 51330, Note_on_c, 13, 53, 85
17, 51359, Note_on_c, 13, 53, 0
17, 51360, Note_on_c, 13, 53, 85
17, 51389, Note_on_c, 13, 53, 0
17, 51390, Note_on_c, 13, 54, 85
17, 51419, Note_on_c, 13, 54, 0
17, 51420, Note_on_c, 13, 54, 85
17, 51434, Note_on_c, 13, 54, 0
17, 51435, Note_on_c, 13, 56, 85
17, 51449, Note_on_c, 13, 56, 0
17, 51450, Note_on_c, 13, 57, 85
17, 51479, Note_on_c, 13, 57, 0
17, 51480, Note_on_c, 13, 57, 85
17, 51509, Note_on_c, 13, 57, 0
17, 51510, Note_on_c, 13, 56, 85
17, 51539, Note_on_c, 13, 56, 0
17, 51540, Note_on_c, 13, 54, 85
17, 51569, Note_on_c, 13, 54, 0
17, 51570, Note_on_c, 13, 53, 85
17, 51599, Note_on_c, 13, 53, 0
17, 51600, Note_on_c, 13, 54, 85
17, 51659, Note_on_c, 13, 54, 0
17, 51660, Note_on_c, 13, 54, 85
17, 51719, Note_on_c, 13, 54, 0
17, 51720, Note_on_c, 13, 52, 85
17, 51779, Note_on_c, 13, 52, 0
17, 51780, Note_on_c, 13, 50, 85
17, 51809, Note_on_c, 13, 50, 0
17, 51810, Note_on_c, 13, 49, 85
17, 51839, Note_on_c, 13, 49, 0
17, 51840, Note_on_c, 13, 47, 85
17, 51899, Note_on_c, 13, 47, 0
17, 52020, Note_on_c, 13, 52, 85
17, 52049, Note_on_c, 13, 52, 0
17, 52050, Note_on_c, 13, 54, 85
17, 52079, Note_on_c, 13, 54, 0
17, 52080, Note_on_c, 13, 54, 85
17, 52109, Note_on_c, 13, 54, 0
17, 52110, Note_on_c, 13, 56, 85
17, 52139, Note_on_c, 13, 56, 0
17, 52140, Note_on_c, 13, 56, 85
17, 52154, Note_on_c, 13, 56, 0
17, 52155, Note_on_c, 13, 57, 85
17, 52169, Note_on_c, 13, 57, 0
17, 52170, Note_on_c, 13, 59, 85
17, 52199, Note_on_c, 13, 59, 0
17, 52200, Note_on_c, 13, 59, 85
17, 52229, Note_on_c, 13, 59, 0
17, 52230, Note_on_c, 13, 57, 85
17, 52259, Note_on_c, 13, 57, 0
17, 52260, Note_on_c, 13, 56, 85
17, 52289, Note_on_c, 13, 56, 0
17, 52290, Note_on_c, 13, 54, 85
17, 52319, Note_on_c, 13, 54, 0
17, 52320, Note_on_c, 13, 52, 85
17, 52379, Note_on_c, 13, 52, 0
17, 52380, Note_on_c, 13, 64, 85
17, 52439, Note_on_c, 13, 64, 0
17, 52440, Note_on_c, 13, 62, 85
17, 52499, Note_on_c, 13, 62, 0
17, 52500, Note_on_c, 13, 61, 85
17, 52529, Note_on_c, 13, 61, 0
17, 52530, Note_on_c, 13, 59, 85
17, 52559, Note_on_c, 13, 59, 0
17, 52560, Note_on_c, 13, 57, 85
17, 52619, Note_on_c, 13, 57, 0
17, 52740, Note_on_c, 13, 62, 85
17, 52799, Note_on_c, 13, 62, 0
17, 52800, Note_on_c, 13, 61, 85
17, 52859, Note_on_c, 13, 61, 0
17, 52860, Note_on_c, 13, 59, 85
17, 52889, Note_on_c, 13, 59, 0
17, 52890, Note_on_c, 13, 58, 85
17, 52919, Note_on_c, 13, 58, 0
17, 52920, Note_on_c, 13, 59, 85
17, 52979, Note_on_c, 13, 59, 0
17, 53040, Note_on_c, 13, 61, 85
17, 53159, Note_on_c, 13, 61, 0
17, 53160, Note_on_c, 13, 59, 85
17, 53219, Note_on_c, 13, 59, 0
17, 53220, Note_on_c, 13, 57, 85
17, 53249, Note_on_c, 13, 57, 0
17, 53250, Note_on_c, 13, 56, 85
17, 53279, Note_on_c, 13, 56, 0
17, 53280, Note_on_c, 13, 57, 85
17, 53339, Note_on_c, 13, 57, 0
17, 53340, Note_on_c, 13, 64, 85
17, 53429, Note_on_c, 13, 64, 0
17, 53430, Note_on_c, 13, 62, 85
17, 53459, Note_on_c, 13, 62, 0
17, 53460, Note_on_c, 13, 60, 85
17, 53489, Note_on_c, 13, 60, 0
17, 53490, Note_on_c, 13, 59, 85
17, 53519, Note_on_c, 13, 59, 0
17, 53520, Note_on_c, 13, 60, 85
17, 53549, Note_on_c, 13, 60, 0
17, 53550, Note_on_c, 13, 57, 85
17, 53579, Note_on_c, 13, 57, 0
17, 53580, Note_on_c, 13, 56, 85
17, 53639, Note_on_c, 13, 56, 0
17, 53640, Note_on_c, 13, 57, 85
17, 53669, Note_on_c, 13, 57, 0
17, 53670, Note_on_c, 13, 57, 85
17, 53699, Note_on_c, 13, 57, 0
17, 53700, Note_on_c, 13, 59, 85
17, 53729, Note_on_c, 13, 59, 0
17, 53730, Note_on_c, 13, 61, 85
17, 53759, Note_on_c, 13, 61, 0
17, 53760, Note_on_c, 13, 62, 85
17, 53819, Note_on_c, 13, 62, 0
17, 53880, Note_on_c, 13, 54, 85
17, 53909, Note_on_c, 13, 54, 0
17, 53910, Note_on_c, 13, 52, 85
17, 53939, Note_on_c, 13, 52, 0
17, 53940, Note_on_c, 13, 52, 85
17, 53969, Note_on_c, 13, 52, 0
17, 53970, Note_on_c, 13, 51, 85
17, 53999, Note_on_c, 13, 51, 0
17, 54000, Note_on_c, 13, 52, 85
17, 54119, Note_on_c, 13, 52, 0
17, 54120, Note_on_c, 13, 57, 85
17, 54134, Note_on_c, 13, 57, 0
17, 54135, Note_on_c, 13, 59, 85
17, 54149, Note_on_c, 13, 59, 0
17, 54150, Note_on_c, 13, 61, 85
17, 54209, Note_on_c, 13, 61, 0
17, 54210, Note_on_c, 13, 61, 85
17, 54239, Note_on_c, 13, 61, 0
17, 54240, Note_on_c, 13, 61, 85
17, 54269, Note_on_c, 13, 61, 0
17, 54270, Note_on_c, 13, 61, 85
17, 54299, Note_on_c, 13, 61, 0
17, 54300, Note_on_c, 13, 61, 85
17, 54314, Note_on_c, 13, 61, 0
17, 54315, Note_on_c, 13, 59, 85
17, 54329, Note_on_c, 13, 59, 0
17, 54330, Note_on_c, 13, 57, 85
17, 54359, Note_on_c, 13, 57, 0
17, 54360, Note_on_c, 13, 59, 85
17, 54419, Note_on_c, 13, 59, 0
17, 54420, Note_on_c, 13, 52, 85
17, 54479, Note_on_c, 13, 52, 0
17, 54480, Note_on_c, 13, 57, 85
17, 54569, Note_on_c, 13, 57, 0
17, 54570, Note_on_c, 13, 59, 85
17, 54599, Note_on_c, 13, 59, 0
17, 54600, Note_on_c, 13, 56, 85
17, 54659, Note_on_c, 13, 56, 0
17, 54660, Note_on_c, 13, 57, 85
17, 54689, Note_on_c, 13, 57, 0
17, 54690, Note_on_c, 13, 50, 85
17, 54719, Note_on_c, 13, 50, 0
17, 54720, Note_on_c, 13, 49, 85
17, 54749, Note_on_c, 13, 49, 0
17, 54750, Note_on_c, 13, 47, 85
17, 54779, Note_on_c, 13, 47, 0
17, 54780, Note_on_c, 13, 47, 85
17, 54809, Note_on_c, 13, 47, 0
17, 54810, Note_on_c, 13, 45, 85
17, 54839, Note_on_c, 13, 45, 0
17, 54840, Note_on_c, 13, 45, 85
17, 54899, Note_on_c, 13, 45, 0
17, 57900, Note_on_c, 13, 61, 85
17, 57914, Note_on_c, 13, 61, 0
17, 57915, Note_on_c, 13, 59, 85
17, 57929, Note_on_c, 13, 59, 0
17, 57930, Note_on_c, 13, 57, 85
17, 57959, Note_on_c, 13, 57, 0
17, 57960, Note_on_c, 13, 57, 85
17, 57990, Note_on_c, 13, 57, 0
17, 57990, Note_on_c, 13, 56, 85
17, 58080, Note_on_c, 13, 56, 0
17, 58080, Note_on_c, 13, 57, 85
17, 58094, Note_on_c, 13, 57, 0
17, 58095, Note_on_c, 13, 56, 85
17, 58109, Note_on_c, 13, 56, 0
17, 58110, Note_on_c, 13, 54, 85
17, 58139, Note_on_c, 13, 54, 0
17, 58140, Note_on_c, 13, 54, 85
17, 58170, Note_on_c, 13, 54, 0
17, 58170, Note_on_c, 13, 53, 85
17, 58260, Note_on_c, 13, 53, 0
17, 58260, Note_on_c, 13, 54, 85
17, 58319, Note_on_c, 13, 54, 0
17, 58320, Note_on_c, 13, 58, 85
17, 58439, Note_on_c, 13, 58, 0
17, 58440, Note_on_c, 13, 59, 85
17, 58499, Note_on_c, 13, 59, 0
17, 58500, Note_on_c, 13, 61, 85
17, 58529, Note_on_c, 13, 61, 0
17, 58530, Note_on_c, 13, 59, 85
17, 58559, Note_on_c, 13, 59, 0
17, 58560, Note_on_c, 13, 61, 85
17, 58619, Note_on_c, 13, 61, 0
17, 58680, Note_on_c, 13, 59, 85
17, 58739, Note_on_c, 13, 59, 0
17, 58740, Note_on_c, 13, 57, 85
17, 58799, Note_on_c, 13, 57, 0
17, 58800, Note_on_c, 13, 56, 85
17, 58859, Note_on_c, 13, 56, 0
17, 58860, Note_on_c, 13, 57, 85
17, 58889, Note_on_c, 13, 57, 0
17, 58890, Note_on_c, 13, 56, 85
17, 58919, Note_on_c, 13, 56, 0
17, 58920, Note_on_c, 13, 54, 85
17, 58949, Note_on_c, 13, 54, 0
17, 58950, Note_on_c, 13, 56, 85
17, 58979, Note_on_c, 13, 56, 0
17, 58980, Note_on_c, 13, 57, 85
17, 59039, Note_on_c, 13, 57, 0
17, 59040, Note_on_c, 13, 59, 85
17, 59069, Note_on_c, 13, 59, 0
17, 59070, Note_on_c, 13, 57, 85
17, 59099, Note_on_c, 13, 57, 0
17, 59100, Note_on_c, 13, 59, 85
17, 59159, Note_on_c, 13, 59, 0
17, 59160, Note_on_c, 13, 52, 85
17, 59218, Note_on_c, 13, 52, 0
17, 59220, Note_on_c, 13, 56, 85
17, 59278, Note_on_c, 13, 56, 0
17, 59280, Note_on_c, 13, 57, 85
17, 59338, Note_on_c, 13, 57, 0
17, 59400, Note_on_c, 13, 57, 85
17, 59458, Note_on_c, 13, 57, 0
17, 59460, Note_on_c, 13, 55, 85
17, 59518, Note_on_c, 13, 55, 0
17, 59520, Note_on_c, 13, 54, 85
17, 59729, Note_on_c, 13, 54, 0
17, 59730, Note_on_c, 13, 55, 85
17, 59759, Note_on_c, 13, 55, 0
17, 59760, Note_on_c, 13, 57, 85
17, 59789, Note_on_c, 13, 57, 0
17, 59790, Note_on_c, 13, 55, 85
17, 59819, Note_on_c, 13, 55, 0
17, 59820, Note_on_c, 13, 57, 85
17, 59849, Note_on_c, 13, 57, 0
17, 59850, Note_on_c, 13, 54, 85
17, 59879, Note_on_c, 13, 54, 0
17, 59880, Note_on_c, 13, 50, 85
17, 59909, Note_on_c, 13, 50, 0
17, 59910, Note_on_c, 13, 59, 85
17, 59969, Note_on_c, 13, 59, 0
17, 59970, Note_on_c, 13, 60, 85
17, 59984, Note_on_c, 13, 60, 0
17, 59985, Note_on_c, 13, 59, 85
17, 59999, Note_on_c, 13, 59, 0
17, 60000, Note_on_c, 13, 57, 85
17, 60029, Note_on_c, 13, 57, 0
17, 60030, Note_on_c, 13, 59, 85
17, 60044, Note_on_c, 13, 59, 0
17, 60045, Note_on_c, 13, 57, 85
17, 60059, Note_on_c, 13, 57, 0
17, 60060, Note_on_c, 13, 55, 85
17, 60089, Note_on_c, 13, 55, 0
17, 60090, Note_on_c, 13, 57, 85
17, 60104, Note_on_c, 13, 57, 0
17, 60105, Note_on_c, 13, 55, 85
17, 60119, Note_on_c, 13, 55, 0
17, 60120, Note_on_c, 13, 54, 85
17, 60149, Note_on_c, 13, 54, 0
17, 60150, Note_on_c, 13, 59, 85
17, 60179, Note_on_c, 13, 59, 0
17, 60180, Note_on_c, 13, 57, 85
17, 60209, Note_on_c, 13, 57, 0
17, 60210, Note_on_c, 13, 59, 85
17, 60239, Note_on_c, 13, 59, 0
17, 60240, Note_on_c, 13, 55, 85
17, 60299, Note_on_c, 13, 55, 0
17, 60300, Note_on_c, 13, 55, 85
17, 60329, Note_on_c, 13, 55, 0
17, 60330, Note_on_c, 13, 57, 85
17, 60359, Note_on_c, 13, 57, 0
17, 60360, Note_on_c, 13, 59, 85
17, 60389, Note_on_c, 13, 59, 0
17, 60390, Note_on_c, 13, 52, 85
17, 60419, Note_on_c, 13, 52, 0
17, 60420, Note_on_c, 13, 64, 85
17, 60479, Note_on_c, 13, 64, 0
17, 60660, Note_on_c, 13, 61, 85
17, 60719, Note_on_c, 13, 61, 0
17, 60720, Note_on_c, 13, 58, 85
17, 60779, Note_on_c, 13, 58, 0
17, 60780, Note_on_c, 13, 54, 85
17, 60839, Note_on_c, 13, 54, 0
17, 60840, Note_on_c, 13, 59, 85
17, 60869, Note_on_c, 13, 59, 0
17, 60870, Note_on_c, 13, 58, 85
17, 60899, Note_on_c, 13, 58, 0
17, 60900, Note_on_c, 13, 59, 85
17, 60959, Note_on_c, 13, 59, 0
17, 60960, Note_on_c, 13, 59, 85
17, 61169, Note_on_c, 13, 59, 0
17, 61170, Note_on_c, 13, 61, 85
17, 61199, Note_on_c, 13, 61, 0
17, 61200, Note_on_c, 13, 58, 85
17, 61289, Note_on_c, 13, 58, 0
17, 61290, Note_on_c, 13, 59, 85
17, 61319, Note_on_c, 13, 59, 0
17, 61320, Note_on_c, 13, 59, 85
17, 61439, Note_on_c, 13, 59, 0
17, 62760, Note_on_c, 13, 54, 85
17, 62819, Note_on_c, 13, 54, 0
17, 62820, Note_on_c, 13, 57, 85
17, 62850, Note_on_c, 13, 57, 0
17, 62850, Note_on_c, 13, 56, 85
17, 62940, Note_on_c, 13, 56, 0
17, 62940, Note_on_c, 13, 57, 85
17, 62999, Note_on_c, 13, 57, 0
17, 63000, Note_on_c, 13, 56, 85
17, 63030, Note_on_c, 13, 56, 0
17, 63030, Note_on_c, 13, 54, 85
17, 63120, Note_on_c, 13, 54, 0
17, 63120, Note_on_c, 13, 56, 85
17, 63179, Note_on_c, 13, 56, 0
17, 63180, Note_on_c, 13, 54, 85
17, 63210, Note_on_c, 13, 54, 0
17, 63210, Note_on_c, 13, 53, 85
17, 63300, Note_on_c, 13, 53, 0
17, 63300, Note_on_c, 13, 54, 85
17, 63329, Note_on_c, 13, 54, 0
17, 63330, Note_on_c, 13, 53, 85
17, 63359, Note_on_c, 13, 53, 0
17, 63360, Note_on_c, 13, 54, 85
17, 63419, Note_on_c, 13, 54, 0
17, 63660, Note_on_c, 13, 57, 85
17, 63719, Note_on_c, 13, 57, 0
17, 63720, Note_on_c, 13, 56, 85
17, 63750, Note_on_c, 13, 56, 0
17, 63750, Note_on_c, 13, 54, 85
17, 63840, Note_on_c, 13, 54, 0
17, 63840, Note_on_c, 13, 56, 85
17, 63899, Note_on_c, 13, 56, 0
17, 63900, Note_on_c, 13, 54, 85
17, 63930, Note_on_c, 13, 54, 0
17, 63930, Note_on_c, 13, 52, 85
17, 64020, Note_on_c, 13, 52, 0
17, 64020, Note_on_c, 13, 54, 85
17, 64079, Note_on_c, 13, 54, 0
17, 64080, Note_on_c, 13, 52, 85
17, 64110, Note_on_c, 13, 52, 0
17, 64110, Note_on_c, 13, 51, 85
17, 64200, Note_on_c, 13, 51, 0
17, 64200, Note_on_c, 13, 52, 85
17, 64229, Note_on_c, 13, 52, 0
17, 64230, Note_on_c, 13, 51, 85
17, 64259, Note_on_c, 13, 51, 0
17, 64260, Note_on_c, 13, 49, 85
17, 64319, Note_on_c, 13, 49, 0
17, 64380, Note_on_c, 13, 52, 85
17, 64439, Note_on_c, 13, 52, 0
17, 64440, Note_on_c, 13, 51, 85
17, 64499, Note_on_c, 13, 51, 0
17, 64500, Note_on_c, 13, 52, 85
17, 64559, Note_on_c, 13, 52, 0
17, 64560, Note_on_c, 13, 52, 85
17, 64619, Note_on_c, 13, 52, 0
17, 64620, Note_on_c, 13, 51, 85
17, 64679, Note_on_c, 13, 51, 0
17, 64680, Note_on_c, 13, 52, 85
17, 64739, Note_on_c, 13, 52, 0
17, 64740, Note_on_c, 13, 54, 85
17, 64799, Note_on_c, 13, 54, 0
17, 64800, Note_on_c, 13, 52, 85
17, 64859, Note_on_c, 13, 52, 0
17, 64860, Note_on_c, 13, 54, 85
17, 64919, Note_on_c, 13, 54, 0
17, 64920, Note_on_c, 13, 56, 85
17, 64979, Note_on_c, 13, 56, 0
17, 64980, Note_on_c, 13, 58, 85
17, 65039, Note_on_c, 13, 58, 0
17, 65040, Note_on_c, 13, 60, 85
17, 65099, Note_on_c, 13, 60, 0
17, 65100, Note_on_c, 13, 61, 85
17, 65159, Note_on_c, 13, 61, 0
17, 65160, Note_on_c, 13, 60, 85
17, 65219, Note_on_c, 13, 60, 0
17, 65220, Note_on_c, 13, 61, 85
17, 65279, Note_on_c, 13, 61, 0
17, 65280, Note_on_c, 13, 61, 85
17, 65339, Note_on_c, 13, 61, 0
17, 65340, Note_on_c, 13, 60, 85
17, 65399, Note_on_c, 13, 60, 0
17, 65400, Note_on_c, 13, 61, 85
17, 65459, Note_on_c, 13, 61, 0
17, 65460, Note_on_c, 13, 63, 85
17, 65519, Note_on_c, 13, 63, 0
17, 65520, Note_on_c, 13, 61, 85
17, 65549, Note_on_c, 13, 61, 0
17, 65550, Note_on_c, 13, 60, 85
17, 65579, Note_on_c, 13, 60, 0
17, 65580, Note_on_c, 13, 61, 85
17, 65639, Note_on_c, 13, 61, 0
17, 65640, Note_on_c, 13, 60, 85
17, 65699, Note_on_c, 13, 60, 0
17, 65700, Note_on_c, 13, 63, 85
17, 65759, Note_on_c, 13, 63, 0
17, 65760, Note_on_c, 13, 56, 85
17, 65819, Note_on_c, 13, 56, 0
17, 65820, Note_on_c, 13, 56, 85
17, 65939, Note_on_c, 13, 56, 0
17, 65940, Note_on_c, 13, 56, 85
17, 65999, Note_on_c, 13, 56, 0
17, 66000, Note_on_c, 13, 61, 85
17, 66014, Note_on_c, 13, 61, 0
17, 66015, Note_on_c, 13, 59, 85
17, 66029, Note_on_c, 13, 59, 0
17, 66030, Note_on_c, 13, 57, 85
17, 66059, Note_on_c, 13, 57, 0
17, 66060, Note_on_c, 13, 59, 85
17, 66089, Note_on_c, 13, 59, 0
17, 66090, Note_on_c, 13, 56, 85
17, 66149, Note_on_c, 13, 56, 0
17, 66150, Note_on_c, 13, 57, 85
17, 66164, Note_on_c, 13, 57, 0
17, 66165, Note_on_c, 13, 59, 85
17, 66179, Note_on_c, 13, 59, 0
17, 66180, Note_on_c, 13, 57, 85
17, 66194, Note_on_c, 13, 57, 0
17, 66195, Note_on_c, 13, 56, 85
17, 66209, Note_on_c, 13, 56, 0
17, 66210, Note_on_c, 13, 54, 85
17, 66239, Note_on_c, 13, 54, 0
17, 66240, Note_on_c, 13, 56, 85
17, 66269, Note_on_c, 13, 56, 0
17, 66270, Note_on_c, 13, 53, 85
17, 66329, Note_on_c, 13, 53, 0
17, 66330, Note_on_c, 13, 54, 85
17, 66344, Note_on_c, 13, 54, 0
17, 66345, Note_on_c, 13, 56, 85
17, 66359, Note_on_c, 13, 56, 0
17, 66360, Note_on_c, 13, 54, 85
17, 66569, Note_on_c, 13, 54, 0
17, 66570, Note_on_c, 13, 52, 85
17, 66599, Note_on_c, 13, 52, 0
17, 66600, Note_on_c, 13, 54, 85
17, 66629, Note_on_c, 13, 54, 0
17, 66630, Note_on_c, 13, 57, 85
17, 66659, Note_on_c, 13, 57, 0
17, 66660, Note_on_c, 13, 56, 85
17, 66689, Note_on_c, 13, 56, 0
17, 66690, Note_on_c, 13, 54, 85
17, 66719, Note_on_c, 13, 54, 0
17, 66720, Note_on_c, 13, 52, 85
17, 66749, Note_on_c, 13, 52, 0
17, 66750, Note_on_c, 13, 54, 85
17, 66779, Note_on_c, 13, 54, 0
17, 66780, Note_on_c, 13, 56, 85
17, 66930, Note_on_c, 13, 56, 0
17, 66930, Note_on_c, 13, 54, 85
17, 66959, Note_on_c, 13, 54, 0
17, 66960, Note_on_c, 13, 51, 85
17, 67049, Note_on_c, 13, 51, 0
17, 67050, Note_on_c, 13, 49, 85
17, 67079, Note_on_c, 13, 49, 0
17, 67080, Note_on_c, 13, 49, 85
17, 67199, Note_on_c, 13, 49, 0
17, 70500, Control_c, 13, 0, 20
17, 70500, Program_c, 13, 67
17, 70500, Note_on_c, 13, 61, 85
17, 70589, Note_on_c, 13, 61, 0
17, 70590, Note_on_c, 13, 62, 85
17, 70604, Note_on_c, 13, 62, 0
17, 70605, Note_on_c, 13, 64, 85
17, 70619, Note_on_c, 13, 64, 0
17, 70620, Note_on_c, 13, 62, 85
17, 70679, Note_on_c, 13, 62, 0
17, 70680, Note_on_c, 13, 61, 85
17, 70694, Note_on_c, 13, 61, 0
17, 70695, Note_on_c, 13, 59, 85
17, 70709, Note_on_c, 13, 59, 0
17, 70710, Note_on_c, 13, 57, 85
17, 70739, Note_on_c, 13, 57, 0
17, 70740, Note_on_c, 13, 57, 85
17, 70799, Note_on_c, 13, 57, 0
17, 70800, Note_on_c, 13, 59, 85
17, 70859, Note_on_c, 13, 59, 0
17, 70860, Note_on_c, 13, 61, 85
17, 70889, Note_on_c, 13, 61, 0
17, 70890, Note_on_c, 13, 59, 85
17, 70919, Note_on_c, 13, 59, 0
17, 70920, Note_on_c, 13, 59, 85
17, 70949, Note_on_c, 13, 59, 0
17, 70950, Note_on_c, 13, 57, 85
17, 70979, Note_on_c, 13, 57, 0
17, 70980, Note_on_c, 13, 57, 85
17, 71069, Note_on_c, 13, 57, 0
17, 71070, Note_on_c, 13, 57, 85
17, 71099, Note_on_c, 13, 57, 0
17, 71100, Note_on_c, 13, 59, 85
17, 71129, Note_on_c, 13, 59, 0
17, 71130, Note_on_c, 13, 61, 85
17, 71159, Note_on_c, 13, 61, 0
17, 71160, Note_on_c, 13, 61, 85
17, 71189, Note_on_c, 13, 61, 0
17, 71190, Note_on_c, 13, 62, 85
17, 71219, Note_on_c, 13, 62, 0
17, 71220, Note_on_c, 13, 62, 85
17, 71249, Note_on_c, 13, 62, 0
17, 71250, Note_on_c, 13, 61, 85
17, 71279, Note_on_c, 13, 61, 0
17, 71280, Note_on_c, 13, 62, 85
17, 71339, Note_on_c, 13, 62, 0
17, 71400, Note_on_c, 13, 59, 85
17, 71429, Note_on_c, 13, 59, 0
17, 71430, Note_on_c, 13, 57, 85
17, 71459, Note_on_c, 13, 57, 0
17, 71460, Note_on_c, 13, 57, 85
17, 71489, Note_on_c, 13, 57, 0
17, 71490, Note_on_c, 13, 56, 85
17, 71519, Note_on_c, 13, 56, 0
17, 71520, Note_on_c, 13, 56, 85
17, 71609, Note_on_c, 13, 56, 0
17, 71610, Note_on_c, 13, 56, 85
17, 71639, Note_on_c, 13, 56, 0
17, 71640, Note_on_c, 13, 57, 85
17, 71669, Note_on_c, 13, 57, 0
17, 71670, Note_on_c, 13, 59, 85
17, 71699, Note_on_c, 13, 59, 0
17, 71700, Note_on_c, 13, 59, 85
17, 71729, Note_on_c, 13, 59, 0
17, 71730, Note_on_c, 13, 61, 85
17, 71759, Note_on_c, 13, 61, 0
17, 71760, Note_on_c, 13, 61, 85
17, 71819, Note_on_c, 13, 61, 0
17, 71820, Note_on_c, 13, 59, 85
17, 71849, Note_on_c, 13, 59, 0
17, 71850, Note_on_c, 13, 61, 85
17, 71879, Note_on_c, 13, 61, 0
17, 71880, Note_on_c, 13, 62, 85
17, 71909, Note_on_c, 13, 62, 0
17, 71910, Note_on_c, 13, 59, 85
17, 71939, Note_on_c, 13, 59, 0
17, 71940, Note_on_c, 13, 61, 85
17, 71969, Note_on_c, 13, 61, 0
17, 71970, Note_on_c, 13, 59, 85
17, 71999, Note_on_c, 13, 59, 0
17, 72000, Note_on_c, 13, 57, 85
17, 72029, Note_on_c, 13, 57, 0
17, 72030, Note_on_c, 13, 56, 85
17, 72059, Note_on_c, 13, 56, 0
17, 72060, Note_on_c, 13, 57, 85
17, 72089, Note_on_c, 13, 57, 0
17, 72090, Note_on_c, 13, 59, 85
17, 72119, Note_on_c, 13, 59, 0
17, 72120, Note_on_c, 13, 52, 85
17, 72600, Note_on_c, 13, 52, 0
17, 72660, Note_on_c, 13, 57, 85
17, 72779, Note_on_c, 13, 57, 0
17, 72780, Note_on_c, 13, 56, 85
17, 72839, Note_on_c, 13, 56, 0
17, 72840, Note_on_c, 13, 54, 85
17, 72869, Note_on_c, 13, 54, 0
17, 72870, Note_on_c, 13, 53, 85
17, 72899, Note_on_c, 13, 53, 0
17, 72900, Note_on_c, 13, 54, 85
17, 72959, Note_on_c, 13, 54, 0
17, 73020, Note_on_c, 13, 56, 85
17, 73139, Note_on_c, 13, 56, 0
17, 73140, Note_on_c, 13, 54, 85
17, 73199, Note_on_c, 13, 54, 0
17, 73200, Note_on_c, 13, 52, 85
17, 73229, Note_on_c, 13, 52, 0
17, 73230, Note_on_c, 13, 51, 85
17, 73259, Note_on_c, 13, 51, 0
17, 73260, Note_on_c, 13, 52, 85
17, 73319, Note_on_c, 13, 52, 0
17, 73320, Note_on_c, 13, 59, 85
17, 73409, Note_on_c, 13, 59, 0
17, 73410, Note_on_c, 13, 57, 85
17, 73439, Note_on_c, 13, 57, 0
17, 73440, Note_on_c, 13, 55, 85
17, 73469, Note_on_c, 13, 55, 0
17, 73470, Note_on_c, 13, 54, 85
17, 73499, Note_on_c, 13, 54, 0
17, 73500, Note_on_c, 13, 55, 85
17, 73529, Note_on_c, 13, 55, 0
17, 73530, Note_on_c, 13, 52, 85
17, 73559, Note_on_c, 13, 52, 0
17, 73560, Note_on_c, 13, 51, 85
17, 73619, Note_on_c, 13, 51, 0
17, 73620, Note_on_c, 13, 52, 85
17, 73649, Note_on_c, 13, 52, 0
17, 73650, Note_on_c, 13, 52, 85
17, 73679, Note_on_c, 13, 52, 0
17, 73680, Note_on_c, 13, 54, 85
17, 73709, Note_on_c, 13, 54, 0
17, 73710, Note_on_c, 13, 56, 85
17, 73739, Note_on_c, 13, 56, 0
17, 73740, Note_on_c, 13, 57, 85
17, 73799, Note_on_c, 13, 57, 0
17, 73860, Note_on_c, 13, 61, 85
17, 73889, Note_on_c, 13, 61, 0
17, 73890, Note_on_c, 13, 59, 85
17, 73919, Note_on_c, 13, 59, 0
17, 73920, Note_on_c, 13, 59, 85
17, 73949, Note_on_c, 13, 59, 0
17, 73950, Note_on_c, 13, 58, 85
17, 73979, Note_on_c, 13, 58, 0
17, 73980, Note_on_c, 13, 59, 85
17, 74099, Note_on_c, 13, 59, 0
17, 74100, Note_on_c, 13, 52, 85
17, 74114, Note_on_c, 13, 52, 0
17, 74115, Note_on_c, 13, 54, 85
17, 74129, Note_on_c, 13, 54, 0
17, 74130, Note_on_c, 13, 56, 85
17, 74189, Note_on_c, 13, 56, 0
17, 74190, Note_on_c, 13, 56, 85
17, 74219, Note_on_c, 13, 56, 0
17, 74220, Note_on_c, 13, 56, 85
17, 74249, Note_on_c, 13, 56, 0
17, 74250, Note_on_c, 13, 56, 85
17, 74279, Note_on_c, 13, 56, 0
17, 74280, Note_on_c, 13, 56, 85
17, 74294, Note_on_c, 13, 56, 0
17, 74295, Note_on_c, 13, 54, 85
17, 74309, Note_on_c, 13, 54, 0
17, 74310, Note_on_c, 13, 52, 85
17, 74339, Note_on_c, 13, 52, 0
17, 74340, Note_on_c, 13, 54, 85
17, 74399, Note_on_c, 13, 54, 0
17, 74400, Note_on_c, 13, 47, 85
17, 74459, Note_on_c, 13, 47, 0
17, 74460, Note_on_c, 13, 52, 85
17, 74549, Note_on_c, 13, 52, 0
17, 74550, Note_on_c, 13, 54, 85
17, 74579, Note_on_c, 13, 54, 0
17, 74580, Note_on_c, 13, 51, 85
17, 74639, Note_on_c, 13, 51, 0
17, 74640, Note_on_c, 13, 52, 85
17, 74759, Note_on_c, 13, 52, 0
17, 77520, Note_on_c, 13, 56, 85
17, 77609, Note_on_c, 13, 56, 0
17, 77610, Note_on_c, 13, 57, 85
17, 77624, Note_on_c, 13, 57, 0
17, 77625, Note_on_c, 13, 59, 85
17, 77639, Note_on_c, 13, 59, 0
17, 77640, Note_on_c, 13, 57, 85
17, 77699, Note_on_c, 13, 57, 0
17, 77700, Note_on_c, 13, 56, 85
17, 77714, Note_on_c, 13, 56, 0
17, 77715, Note_on_c, 13, 54, 85
17, 77729, Note_on_c, 13, 54, 0
17, 77730, Note_on_c, 13, 52, 85
17, 77759, Note_on_c, 13, 52, 0
17, 77760, Note_on_c, 13, 52, 85
17, 77819, Note_on_c, 13, 52, 0
17, 77880, Note_on_c, 13, 52, 85
17, 77969, Note_on_c, 13, 52, 0
17, 77970, Note_on_c, 13, 54, 85
17, 77984, Note_on_c, 13, 54, 0
17, 77985, Note_on_c, 13, 55, 85
17, 77999, Note_on_c, 13, 55, 0
17, 78000, Note_on_c, 13, 54, 85
17, 78059, Note_on_c, 13, 54, 0
17, 78060, Note_on_c, 13, 52, 85
17, 78074, Note_on_c, 13, 52, 0
17, 78075, Note_on_c, 13, 50, 85
17, 78089, Note_on_c, 13, 50, 0
17, 78090, Note_on_c, 13, 49, 85
17, 78119, Note_on_c, 13, 49, 0
17, 78120, Note_on_c, 13, 49, 85
17, 78179, Note_on_c, 13, 49, 0
17, 78420, Note_on_c, 13, 59, 85
17, 78509, Note_on_c, 13, 59, 0
17, 78510, Note_on_c, 13, 61, 85
17, 78524, Note_on_c, 13, 61, 0
17, 78525, Note_on_c, 13, 62, 85
17, 78539, Note_on_c, 13, 62, 0
17, 78540, Note_on_c, 13, 61, 85
17, 78569, Note_on_c, 13, 61, 0
17, 78570, Note_on_c, 13, 59, 85
17, 78599, Note_on_c, 13, 59, 0
17, 78600, Note_on_c, 13, 59, 85
17, 78614, Note_on_c, 13, 59, 0
17, 78615, Note_on_c, 13, 57, 85
17, 78629, Note_on_c, 13, 57, 0
17, 78630, Note_on_c, 13, 56, 85
17, 78659, Note_on_c, 13, 56, 0
17, 78660, Note_on_c, 13, 57, 85
17, 78719, Note_on_c, 13, 57, 0
17, 78780, Note_on_c, 13, 57, 85
17, 78869, Note_on_c, 13, 57, 0
17, 78870, Note_on_c, 13, 59, 85
17, 78884, Note_on_c, 13, 59, 0
17, 78885, Note_on_c, 13, 61, 85
17, 78899, Note_on_c, 13, 61, 0
17, 78900, Note_on_c, 13, 59, 85
17, 78929, Note_on_c, 13, 59, 0
17, 78930, Note_on_c, 13, 57, 85
17, 78959, Note_on_c, 13, 57, 0
17, 78960, Note_on_c, 13, 57, 85
17, 79139, Note_on_c, 13, 57, 0
17, 79140, Note_on_c, 13, 56, 85
17, 79259, Note_on_c, 13, 56, 0
17, 79320, Note_on_c, 13, 57, 85
17, 79349, Note_on_c, 13, 57, 0
17, 79350, Note_on_c, 13, 56, 85
17, 79379, Note_on_c, 13, 56, 0
17, 79380, Note_on_c, 13, 56, 85
17, 79409, Note_on_c, 13, 56, 0
17, 79410, Note_on_c, 13, 54, 85
17, 79439, Note_on_c, 13, 54, 0
17, 79440, Note_on_c, 13, 54, 85
17, 79529, Note_on_c, 13, 54, 0
17, 79530, Note_on_c, 13, 54, 85
17, 79559, Note_on_c, 13, 54, 0
17, 79560, Note_on_c, 13, 56, 85
17, 79589, Note_on_c, 13, 56, 0
17, 79590, Note_on_c, 13, 58, 85
17, 79619, Note_on_c, 13, 58, 0
17, 79620, Note_on_c, 13, 58, 85
17, 79649, Note_on_c, 13, 58, 0
17, 79650, Note_on_c, 13, 59, 85
17, 79679, Note_on_c, 13, 59, 0
17, 79680, Note_on_c, 13, 59, 85
17, 79799, Note_on_c, 13, 59, 0
17, 79860, Note_on_c, 13, 62, 85
17, 79889, Note_on_c, 13, 62, 0
17, 79890, Note_on_c, 13, 61, 85
17, 79919, Note_on_c, 13, 61, 0
17, 79920, Note_on_c, 13, 61, 85
17, 79949, Note_on_c, 13, 61, 0
17, 79950, Note_on_c, 13, 59, 85
17, 79979, Note_on_c, 13, 59, 0
17, 79980, Note_on_c, 13, 59, 85
17, 80069, Note_on_c, 13, 59, 0
17, 80070, Note_on_c, 13, 59, 85
17, 80099, Note_on_c, 13, 59, 0
17, 80100, Note_on_c, 13, 61, 85
17, 80129, Note_on_c, 13, 61, 0
17, 80130, Note_on_c, 13, 62, 85
17, 80159, Note_on_c, 13, 62, 0
17, 80160, Note_on_c, 13, 62, 85
17, 80189, Note_on_c, 13, 62, 0
17, 80190, Note_on_c, 13, 64, 85
17, 80219, Note_on_c, 13, 64, 0
17, 80220, Note_on_c, 13, 64, 85
17, 80640, Note_on_c, 13, 64, 0
17, 80640, Note_on_c, 13, 59, 85
17, 80669, Note_on_c, 13, 59, 0
17, 80670, Note_on_c, 13, 61, 85
17, 80699, Note_on_c, 13, 61, 0
17, 80700, Note_on_c, 13, 62, 85
17, 80729, Note_on_c, 13, 62, 0
17, 80730, Note_on_c, 13, 59, 85
17, 80759, Note_on_c, 13, 59, 0
17, 80760, Note_on_c, 13, 61, 85
17, 80789, Note_on_c, 13, 61, 0
17, 80790, Note_on_c, 13, 59, 85
17, 80819, Note_on_c, 13, 59, 0
17, 80820, Note_on_c, 13, 57, 85
17, 80849, Note_on_c, 13, 57, 0
17, 80850, Note_on_c, 13, 56, 85
17, 80879, Note_on_c, 13, 56, 0
17, 80880, Note_on_c, 13, 57, 85
17, 80909, Note_on_c, 13, 57, 0
17, 80910, Note_on_c, 13, 59, 85
17, 80939, Note_on_c, 13, 59, 0
17, 80940, Note_on_c, 13, 52, 85
17, 81059, Note_on_c, 13, 52, 0
17, 81120, Note_on_c, 13, 49, 85
17, 81149, Note_on_c, 13, 49, 0
17, 81150, Note_on_c, 13, 51, 85
17, 81179, Note_on_c, 13, 51, 0
17, 81180, Note_on_c, 13, 51, 85
17, 81209, Note_on_c, 13, 51, 0
17, 81210, Note_on_c, 13, 53, 85
17, 81239, Note_on_c, 13, 53, 0
17, 81240, Note_on_c, 13, 53, 85
17, 81269, Note_on_c, 13, 53, 0
17, 81270, Note_on_c, 13, 54, 85
17, 81299, Note_on_c, 13, 54, 0
17, 81300, Note_on_c, 13, 54, 85
17, 81314, Note_on_c, 13, 54, 0
17, 81315, Note_on_c, 13, 56, 85
17, 81329, Note_on_c, 13, 56, 0
17, 81330, Note_on_c, 13, 57, 85
17, 81359, Note_on_c, 13, 57, 0
17, 81360, Note_on_c, 13, 57, 85
17, 81389, Note_on_c, 13, 57, 0
17, 81390, Note_on_c, 13, 56, 85
17, 81419, Note_on_c, 13, 56, 0
17, 81420, Note_on_c, 13, 54, 85
17, 81449, Note_on_c, 13, 54, 0
17, 81450, Note_on_c, 13, 53, 85
17, 81479, Note_on_c, 13, 53, 0
17, 81480, Note_on_c, 13, 54, 85
17, 81539, Note_on_c, 13, 54, 0
17, 81540, Note_on_c, 13, 54, 85
17, 81599, Note_on_c, 13, 54, 0
17, 81600, Note_on_c, 13, 52, 85
17, 81659, Note_on_c, 13, 52, 0
17, 81660, Note_on_c, 13, 50, 85
17, 81689, Note_on_c, 13, 50, 0
17, 81690, Note_on_c, 13, 49, 85
17, 81719, Note_on_c, 13, 49, 0
17, 81720, Note_on_c, 13, 47, 85
17, 81779, Note_on_c, 13, 47, 0
17, 81900, Note_on_c, 13, 52, 85
17, 81929, Note_on_c, 13, 52, 0
17, 81930, Note_on_c, 13, 54, 85
17, 81959, Note_on_c, 13, 54, 0
17, 81960, Note_on_c, 13, 54, 85
17, 81989, Note_on_c, 13, 54, 0
17, 81990, Note_on_c, 13, 56, 85
17, 82019, Note_on_c, 13, 56, 0
17, 82020, Note_on_c, 13, 56, 85
17, 82034, Note_on_c, 13, 56, 0
17, 82035, Note_on_c, 13, 57, 85
17, 82049, Note_on_c, 13, 57, 0
17, 82050, Note_on_c, 13, 59, 85
17, 82079, Note_on_c, 13, 59, 0
17, 82080, Note_on_c, 13, 59, 85
17, 82109, Note_on_c, 13, 59, 0
17, 82110, Note_on_c, 13, 57, 85
17, 82139, Note_on_c, 13, 57, 0
17, 82140, Note_on_c, 13, 56, 85
17, 82169, Note_on_c, 13, 56, 0
17, 82170, Note_on_c, 13, 54, 85
17, 82199, Note_on_c, 13, 54, 0
17, 82200, Note_on_c, 13, 52, 85
17, 82259, Note_on_c, 13, 52, 0
17, 82260, Note_on_c, 13, 64, 85
17, 82319, Note_on_c, 13, 64, 0
17, 82320, Note_on_c, 13, 62, 85
17, 82379, Note_on_c, 13, 62, 0
17, 82380, Note_on_c, 13, 61, 85
17, 82409, Note_on_c, 13, 61, 0
17, 82410, Note_on_c, 13, 59, 85
17, 82439, Note_on_c, 13, 59, 0
17, 82440, Note_on_c, 13, 57, 85
17, 82499, Note_on_c, 13, 57, 0
17, 82620, Note_on_c, 13, 62, 85
17, 82679, Note_on_c, 13, 62, 0
17, 82680, Note_on_c, 13, 61, 85
17, 82739, Note_on_c, 13, 61, 0
17, 82740, Note_on_c, 13, 59, 85
17, 82769, Note_on_c, 13, 59, 0
17, 82770, Note_on_c, 13, 58, 85
17, 82799, Note_on_c, 13, 58, 0
17, 82800, Note_on_c, 13, 59, 85
17, 82859, Note_on_c, 13, 59, 0
17, 82920, Note_on_c, 13, 61, 85
17, 83039, Note_on_c, 13, 61, 0
17, 83040, Note_on_c, 13, 59, 85
17, 83099, Note_on_c, 13, 59, 0
17, 83100, Note_on_c, 13, 57, 85
17, 83129, Note_on_c, 13, 57, 0
17, 83130, Note_on_c, 13, 56, 85
17, 83159, Note_on_c, 13, 56, 0
17, 83160, Note_on_c, 13, 57, 85
17, 83219, Note_on_c, 13, 57, 0
17, 83220, Note_on_c, 13, 64, 85
17, 83309, Note_on_c, 13, 64, 0
17, 83310, Note_on_c, 13, 62, 85
17, 83339, Note_on_c, 13, 62, 0
17, 83340, Note_on_c, 13, 60, 85
17, 83369, Note_on_c, 13, 60, 0
17, 83370, Note_on_c, 13, 59, 85
17, 83399, Note_on_c, 13, 59, 0
17, 83400, Note_on_c, 13, 60, 85
17, 83429, Note_on_c, 13, 60, 0
17, 83430, Note_on_c, 13, 57, 85
17, 83459, Note_on_c, 13, 57, 0
17, 83460, Note_on_c, 13, 56, 85
17, 83519, Note_on_c, 13, 56, 0
17, 83520, Note_on_c, 13, 57, 85
17, 83549, Note_on_c, 13, 57, 0
17, 83550, Note_on_c, 13, 57, 85
17, 83579, Note_on_c, 13, 57, 0
17, 83580, Note_on_c, 13, 59, 85
17, 83609, Note_on_c, 13, 59, 0
17, 83610, Note_on_c, 13, 61, 85
17, 83639, Note_on_c, 13, 61, 0
17, 83640, Note_on_c, 13, 62, 85
17, 83699, Note_on_c, 13, 62, 0
17, 83760, Note_on_c, 13, 54, 85
17, 83789, Note_on_c, 13, 54, 0
17, 83790, Note_on_c, 13, 52, 85
17, 83819, Note_on_c, 13, 52, 0
17, 83820, Note_on_c, 13, 52, 85
17, 83849, Note_on_c, 13, 52, 0
17, 83850, Note_on_c, 13, 51, 85
17, 83879, Note_on_c, 13, 51, 0
17, 83880, Note_on_c, 13, 52, 85
17, 83999, Note_on_c, 13, 52, 0
17, 84000, Note_on_c, 13, 57, 85
17, 84014, Note_on_c, 13, 57, 0
17, 84015, Note_on_c, 13, 59, 85
17, 84029, Note_on_c, 13, 59, 0
17, 84030, Note_on_c, 13, 61, 85
17, 84089, Note_on_c, 13, 61, 0
17, 84090, Note_on_c, 13, 61, 85
17, 84119, Note_on_c, 13, 61, 0
17, 84120, Note_on_c, 13, 61, 85
17, 84149, Note_on_c, 13, 61, 0
17, 84150, Note_on_c, 13, 61, 85
17, 84179, Note_on_c, 13, 61, 0
17, 84180, Note_on_c, 13, 61, 85
17, 84194, Note_on_c, 13, 61, 0
17, 84195, Note_on_c, 13, 59, 85
17, 84209, Note_on_c, 13, 59, 0
17, 84210, Note_on_c, 13, 57, 85
17, 84239, Note_on_c, 13, 57, 0
17, 84240, Note_on_c, 13, 59, 85
17, 84299, Note_on_c, 13, 59, 0
17, 84300, Note_on_c, 13, 52, 85
17, 84359, Note_on_c, 13, 52, 0
17, 84360, Note_on_c, 13, 57, 85
17, 84449, Note_on_c, 13, 57, 0
17, 84450, Note_on_c, 13, 59, 85
17, 84479, Note_on_c, 13, 59, 0
17, 84480, Note_on_c, 13, 56, 85
17, 84539, Note_on_c, 13, 56, 0
17, 84540, Note_on_c, 13, 57, 85
17, 84569, Note_on_c, 13, 57, 0
17, 84570, Note_on_c, 13, 50, 85
17, 84599, Note_on_c, 13, 50, 0
17, 84600, Note_on_c, 13, 49, 85
17, 84629, Note_on_c, 13, 49, 0
17, 84630, Note_on_c, 13, 47, 85
17, 84659, Note_on_c, 13, 47, 0
17, 84660, Note_on_c, 13, 47, 85
17, 84689, Note_on_c, 13, 47, 0
17, 84690, Note_on_c, 13, 45, 85
17, 84719, Note_on_c, 13, 45, 0
17, 84720, Note_on_c, 13, 45, 85
17, 84779, Note_on_c, 13, 45, 0
17, 132660, Note_on_c, 13, 55, 90
17, 132779, Note_on_c, 13, 55, 0
17, 132780, Note_on_c, 13, 48, 90
17, 132899, Note_on_c, 13, 48, 0
17, 132900, Note_on_c, 13, 60, 90
17, 133019, Note_on_c, 13, 60, 0
17, 133020, Note_on_c, 13, 59, 90
17, 133139, Note_on_c, 13, 59, 0
17, 133140, Note_on_c, 13, 57, 90
17, 133259, Note_on_c, 13, 57, 0
17, 133260, Note_on_c, 13, 56, 90
17, 133379, Note_on_c, 13, 56, 0
17, 133380, Note_on_c, 13, 55, 90
17, 133619, Note_on_c, 13, 55, 0
17, 133620, Note_on_c, 13, 48, 90
17, 133859, Note_on_c, 13, 48, 0
17, 133860, Note_on_c, 13, 55, 90
17, 133979, Note_on_c, 13, 55, 0
17, 133980, Note_on_c, 13, 56, 90
17, 134099, Note_on_c, 13, 56, 0
17, 134100, Note_on_c, 13, 57, 90
17, 134339, Note_on_c, 13, 57, 0
17, 134340, Note_on_c, 13, 52, 90
17, 134459, Note_on_c, 13, 52, 0
17, 134460, Note_on_c, 13, 47, 90
17, 134519, Note_on_c, 13, 47, 0
17, 134520, Note_on_c, 13, 48, 90
17, 134579, Note_on_c, 13, 48, 0
17, 134580, Note_on_c, 13, 50, 90
17, 134819, Note_on_c, 13, 50, 0
17, 134820, Note_on_c, 13, 50, 90
17, 134939, Note_on_c, 13, 50, 0
17, 134940, Note_on_c, 13, 55, 90
17, 134999, Note_on_c, 13, 55, 0
17, 135000, Note_on_c, 13, 54, 90
17, 135059, Note_on_c, 13, 54, 0
17, 135060, Note_on_c, 13, 52, 90
17, 135179, Note_on_c, 13, 52, 0
17, 135180, Note_on_c, 13, 50, 90
17, 135299, Note_on_c, 13, 50, 0
17, 135300, Note_on_c, 13, 48, 90
17, 135419, Note_on_c, 13, 48, 0
17, 135420, Note_on_c, 13, 50, 90
17, 135539, Note_on_c, 13, 50, 0
17, 135540, Note_on_c, 13, 43, 90
17, 135779, Note_on_c, 13, 43, 0
17, 135780, Note_on_c, 13, 48, 90
17, 135839, Note_on_c, 13, 48, 0
17, 135840, Note_on_c, 13, 50, 90
17, 135899, Note_on_c, 13, 50, 0
17, 135900, Note_on_c, 13, 52, 90
17, 136019, Note_on_c, 13, 52, 0
17, 136020, Note_on_c, 13, 50, 90
17, 136079, Note_on_c, 13, 50, 0
17, 136080, Note_on_c, 13, 52, 90
17, 136139, Note_on_c, 13, 52, 0
17, 136140, Note_on_c, 13, 53, 90
17, 136259, Note_on_c, 13, 53, 0
17, 136260, Note_on_c, 13, 52, 90
17, 136319, Note_on_c, 13, 52, 0
17, 136320, Note_on_c, 13, 50, 90
17, 136379, Note_on_c, 13, 50, 0
17, 136380, Note_on_c, 13, 52, 90
17, 136439, Note_on_c, 13, 52, 0
17, 136440, Note_on_c, 13, 54, 90
17, 136499, Note_on_c, 13, 54, 0
17, 136500, Note_on_c, 13, 55, 90
17, 136619, Note_on_c, 13, 55, 0
17, 136620, Note_on_c, 13, 56, 90
17, 136739, Note_on_c, 13, 56, 0
17, 136740, Note_on_c, 13, 57, 90
17, 136979, Note_on_c, 13, 57, 0
17, 136980, Note_on_c, 13, 59, 90
17, 137099, Note_on_c, 13, 59, 0
17, 137100, Note_on_c, 13, 52, 90
17, 137219, Note_on_c, 13, 52, 0
17, 137220, Note_on_c, 13, 57, 90
17, 137459, Note_on_c, 13, 57, 0
17, 137460, Note_on_c, 13, 52, 90
17, 137579, Note_on_c, 13, 52, 0
17, 137580, Note_on_c, 13, 50, 90
17, 137639, Note_on_c, 13, 50, 0
17, 137640, Note_on_c, 13, 52, 90
17, 137699, Note_on_c, 13, 52, 0
17, 137700, Note_on_c, 13, 54, 90
17, 137939, Note_on_c, 13, 54, 0
17, 137940, Note_on_c, 13, 55, 90
17, 137999, Note_on_c, 13, 55, 0
17, 138000, Note_on_c, 13, 57, 90
17, 138059, Note_on_c, 13, 57, 0
17, 138060, Note_on_c, 13, 59, 90
17, 138179, Note_on_c, 13, 59, 0
17, 138180, Note_on_c, 13, 59, 90
17, 138239, Note_on_c, 13, 59, 0
17, 138240, Note_on_c, 13, 57, 90
17, 138299, Note_on_c, 13, 57, 0
17, 138300, Note_on_c, 13, 59, 90
17, 138359, Note_on_c, 13, 59, 0
17, 138360, Note_on_c, 13, 60, 90
17, 138419, Note_on_c, 13, 60, 0
17, 138420, Note_on_c, 13, 62, 90
17, 138539, Note_on_c, 13, 62, 0
17, 138540, Note_on_c, 13, 50, 90
17, 138659, Note_on_c, 13, 50, 0
17, 138660, Note_on_c, 13, 55, 90
17, 138899, Note_on_c, 13, 55, 0
17, 141900, Note_on_c, 13, 54, 90
17, 142019, Note_on_c, 13, 54, 0
17, 142020, Note_on_c, 13, 54, 90
17, 142049, Note_on_c, 13, 54, 0
17, 142050, Note_on_c, 13, 56, 90
17, 142079, Note_on_c, 13, 56, 0
17, 142080, Note_on_c, 13, 57, 90
17, 142109, Note_on_c, 13, 57, 0
17, 142110, Note_on_c, 13, 59, 90
17, 142139, Note_on_c, 13, 59, 0
17, 142140, Note_on_c, 13, 61, 90
17, 142199, Note_on_c, 13, 61, 0
17, 142200, Note_on_c, 13, 49, 90
17, 142259, Note_on_c, 13, 49, 0
17, 142260, Note_on_c, 13, 50, 90
17, 142379, Note_on_c, 13, 50, 0
17, 142380, Note_on_c, 13, 50, 90
17, 142499, Note_on_c, 13, 50, 0
17, 142500, Note_on_c, 13, 49, 90
17, 142559, Note_on_c, 13, 49, 0
17, 142560, Note_on_c, 13, 47, 90
17, 142619, Note_on_c, 13, 47, 0
17, 142620, Note_on_c, 13, 49, 90
17, 142739, Note_on_c, 13, 49, 0
17, 142740, Note_on_c, 13, 42, 90
17, 142859, Note_on_c, 13, 42, 0
17, 142860, Note_on_c, 13, 54, 90
17, 142979, Note_on_c, 13, 54, 0
17, 142980, Note_on_c, 13, 56, 90
17, 143099, Note_on_c, 13, 56, 0
17, 143100, Note_on_c, 13, 57, 90
17, 143159, Note_on_c, 13, 57, 0
17, 143160, Note_on_c, 13, 59, 90
17, 143219, Note_on_c, 13, 59, 0
17, 143220, Note_on_c, 13, 61, 90
17, 143339, Note_on_c, 13, 61, 0
17, 143340, Note_on_c, 13, 49, 90
17, 143459, Note_on_c, 13, 49, 0
17, 143460, Note_on_c, 13, 54, 90
17, 143519, Note_on_c, 13, 54, 0
17, 143520, Note_on_c, 13, 52, 90
17, 143579, Note_on_c, 13, 52, 0
17, 143580, Note_on_c, 13, 50, 90
17, 143639, Note_on_c, 13, 50, 0
17, 143640, Note_on_c, 13, 49, 90
17, 143699, Note_on_c, 13, 49, 0
17, 143700, Note_on_c, 13, 50, 90
17, 143759, Note_on_c, 13, 50, 0
17, 143760, Note_on_c, 13, 47, 90
17, 143819, Note_on_c, 13, 47, 0
17, 143820, Note_on_c, 13, 52, 90
17, 143939, Note_on_c, 13, 52, 0
17, 143940, Note_on_c, 13, 45, 90
17, 143999, Note_on_c, 13, 45, 0
17, 144000, Note_on_c, 13, 57, 90
17, 144059, Note_on_c, 13, 57, 0
17, 144060, Note_on_c, 13, 56, 90
17, 144119, Note_on_c, 13, 56, 0
17, 144120, Note_on_c, 13, 54, 90
17, 144179, Note_on_c, 13, 54, 0
17, 144180, Note_on_c, 13, 54, 90
17, 144239, Note_on_c, 13, 54, 0
17, 144240, Note_on_c, 13, 53, 90
17, 144299, Note_on_c, 13, 53, 0
17, 144300, Note_on_c, 13, 54, 90
17, 144359, Note_on_c, 13, 54, 0
17, 144360, Note_on_c, 13, 50, 90
17, 144419, Note_on_c, 13, 50, 0
17, 144420, Note_on_c, 13, 47, 90
17, 144479, Note_on_c, 13, 47, 0
17, 144480, Note_on_c, 13, 44, 90
17, 144539, Note_on_c, 13, 44, 0
17, 144540, Note_on_c, 13, 49, 90
17, 144659, Note_on_c, 13, 49, 0
17, 144660, Note_on_c, 13, 42, 90
17, 144779, Note_on_c, 13, 42, 0
17, 144780, Note_on_c, 13, 54, 90
17, 144839, Note_on_c, 13, 54, 0
17, 144840, Note_on_c, 13, 52, 90
17, 144899, Note_on_c, 13, 52, 0
17, 144900, Note_on_c, 13, 50, 90
17, 144959, Note_on_c, 13, 50, 0
17, 144960, Note_on_c, 13, 49, 90
17, 145019, Note_on_c, 13, 49, 0
17, 145020, Note_on_c, 13, 48, 90
17, 145139, Note_on_c, 13, 48, 0
17, 145140, Note_on_c, 13, 49, 90
17, 145259, Note_on_c, 13, 49, 0
17, 145260, Note_on_c, 13, 45, 90
17, 145379, Note_on_c, 13, 45, 0
17, 145380, Note_on_c, 13, 47, 90
17, 145439, Note_on_c, 13, 47, 0
17, 145440, Note_on_c, 13, 49, 90
17, 145499, Note_on_c, 13, 49, 0
17, 145500, Note_on_c, 13, 51, 90
17, 145559, Note_on_c, 13, 51, 0
17, 145560, Note_on_c, 13, 47, 90
17, 145619, Note_on_c, 13, 47, 0
17, 145620, Note_on_c, 13, 52, 90
17, 145739, Note_on_c, 13, 52, 0
17, 145740, Note_on_c, 13, 53, 90
17, 145799, Note_on_c, 13, 53, 0
17, 145800, Note_on_c, 13, 49, 90
17, 145859, Note_on_c, 13, 49, 0
17, 145860, Note_on_c, 13, 54, 90
17, 145979, Note_on_c, 13, 54, 0
17, 145980, Note_on_c, 13, 54, 90
17, 146039, Note_on_c, 13, 54, 0
17, 146040, Note_on_c, 13, 50, 90
17, 146099, Note_on_c, 13, 50, 0
17, 146100, Note_on_c, 13, 55, 90
17, 146219, Note_on_c, 13, 55, 0
17, 146220, Note_on_c, 13, 56, 90
17, 146279, Note_on_c, 13, 56, 0
17, 146280, Note_on_c, 13, 52, 90
17, 146339, Note_on_c, 13, 52, 0
17, 146340, Note_on_c, 13, 57, 90
17, 146459, Note_on_c, 13, 57, 0
17, 146460, Note_on_c, 13, 58, 90
17, 146519, Note_on_c, 13, 58, 0
17, 146520, Note_on_c, 13, 54, 90
17, 146579, Note_on_c, 13, 54, 0
17, 146580, Note_on_c, 13, 59, 90
17, 146699, Note_on_c, 13, 59, 0
17, 146700, Note_on_c, 13, 60, 90
17, 146759, Note_on_c, 13, 60, 0
17, 146760, Note_on_c, 13, 56, 90
17, 146819, Note_on_c, 13, 56, 0
17, 146820, Note_on_c, 13, 61, 90
17, 146939, Note_on_c, 13, 61, 0
17, 146940, Note_on_c, 13, 49, 90
17, 147059, Note_on_c, 13, 49, 0
17, 147060, Note_on_c, 13, 54, 90
17, 147179, Note_on_c, 13, 54, 0
17, 153060, Note_on_c, 13, 62, 100
17, 153120, Note_on_c, 13, 62, 0
17, 153120, Note_on_c, 13, 62, 83
17, 153180, Note_on_c, 13, 62, 0
17, 153180, Note_on_c, 13, 61, 83
17, 153240, Note_on_c, 13, 61, 0
17, 153240, Note_on_c, 13, 59, 100
17, 153300, Note_on_c, 13, 59, 0
17, 153300, Note_on_c, 13, 59, 83
17, 153360, Note_on_c, 13, 59, 0
17, 153360, Note_on_c, 13, 59, 83
17, 153420, Note_on_c, 13, 59, 0
17, 153420, Note_on_c, 13, 61, 100
17, 153480, Note_on_c, 13, 61, 0
17, 153480, Note_on_c, 13, 49, 83
17, 153540, Note_on_c, 13, 49, 0
17, 153540, Note_on_c, 13, 51, 83
17, 153600, Note_on_c, 13, 51, 0
17, 153600, Note_on_c, 13, 52, 100
17, 153660, Note_on_c, 13, 52, 0
17, 153660, Note_on_c, 13, 55, 83
17, 153720, Note_on_c, 13, 55, 0
17, 153720, Note_on_c, 13, 59, 83
17, 153780, Note_on_c, 13, 59, 0
17, 153780, Note_on_c, 13, 64, 100
17, 153840, Note_on_c, 13, 64, 0
17, 153840, Note_on_c, 13, 64, 83
17, 153900, Note_on_c, 13, 64, 0
17, 153900, Note_on_c, 13, 62, 83
17, 153960, Note_on_c, 13, 62, 0
17, 153960, Note_on_c, 13, 61, 100
17, 154020, Note_on_c, 13, 61, 0
17, 154020, Note_on_c, 13, 61, 83
17, 154080, Note_on_c, 13, 61, 0
17, 154080, Note_on_c, 13, 59, 83
17, 154140, Note_on_c, 13, 59, 0
17, 154140, Note_on_c, 13, 57, 100
17, 154200, Note_on_c, 13, 57, 0
17, 154200, Note_on_c, 13, 54, 83
17, 154260, Note_on_c, 13, 54, 0
17, 154260, Note_on_c, 13, 57, 83
17, 154320, Note_on_c, 13, 57, 0
17, 154320, Note_on_c, 13, 50, 100
17, 154380, Note_on_c, 13, 50, 0
17, 154380, Note_on_c, 13, 54, 83
17, 154440, Note_on_c, 13, 54, 0
17, 154440, Note_on_c, 13, 57, 83
17, 154475, Note_on_c, 13, 57, 0
17, 154500, Note_on_c, 13, 62, 100
17, 154560, Note_on_c, 13, 62, 0
17, 154560, Note_on_c, 13, 62, 83
17, 154620, Note_on_c, 13, 62, 0
17, 154620, Note_on_c, 13, 61, 83
17, 154680, Note_on_c, 13, 61, 0
17, 154680, Note_on_c, 13, 59, 100
17, 154740, Note_on_c, 13, 59, 0
17, 154740, Note_on_c, 13, 56, 83
17, 154800, Note_on_c, 13, 56, 0
17, 154800, Note_on_c, 13, 57, 83
17, 154860, Note_on_c, 13, 57, 0
17, 154860, Note_on_c, 13, 50, 83
17, 154920, Note_on_c, 13, 50, 0
17, 154920, Note_on_c, 13, 52, 100
17, 154980, Note_on_c, 13, 52, 0
17, 154980, Note_on_c, 13, 52, 83
17, 155040, Note_on_c, 13, 52, 0
17, 155040, Note_on_c, 13, 57, 83
17, 155160, Note_on_c, 13, 57, 0
17, 155340, Note_on_c, 13, 50, 83
17, 155400, Note_on_c, 13, 50, 0
17, 155400, Note_on_c, 13, 57, 83
17, 155460, Note_on_c, 13, 57, 0
17, 155460, Note_on_c, 13, 61, 83
17, 155520, Note_on_c, 13, 61, 0
17, 155520, Note_on_c, 13, 57, 83
17, 155580, Note_on_c, 13, 57, 0
17, 155580, Note_on_c, 13, 52, 83
17, 155640, Note_on_c, 13, 52, 0
17, 155640, Note_on_c, 13, 49, 83
17, 155700, Note_on_c, 13, 49, 0
17, 155700, Note_on_c, 13, 50, 83
17, 155760, Note_on_c, 13, 50, 0
17, 155760, Note_on_c, 13, 57, 83
17, 155940, Note_on_c, 13, 57, 0
17, 161700, Note_on_c, 13, 57, 100
17, 161760, Note_on_c, 13, 57, 0
17, 161760, Note_on_c, 13, 57, 83
17, 161820, Note_on_c, 13, 57, 0
17, 161820, Note_on_c, 13, 57, 83
17, 161880, Note_on_c, 13, 57, 0
17, 161880, Note_on_c, 13, 55, 100
17, 161940, Note_on_c, 13, 55, 0
17, 161940, Note_on_c, 13, 55, 83
17, 162000, Note_on_c, 13, 55, 0
17, 162000, Note_on_c, 13, 55, 83
17, 162060, Note_on_c, 13, 55, 0
17, 162060, Note_on_c, 13, 54, 100
17, 162120, Note_on_c, 13, 54, 0
17, 162120, Note_on_c, 13, 54, 83
17, 162180, Note_on_c, 13, 54, 0
17, 162180, Note_on_c, 13, 52, 83
17, 162240, Note_on_c, 13, 52, 0
17, 162240, Note_on_c, 13, 50, 100
17, 162300, Note_on_c, 13, 50, 0
17, 162300, Note_on_c, 13, 62, 83
17, 162360, Note_on_c, 13, 62, 0
17, 162360, Note_on_c, 13, 61, 83
17, 162420, Note_on_c, 13, 61, 0
17, 162420, Note_on_c, 13, 62, 100
17, 162480, Note_on_c, 13, 62, 0
17, 162480, Note_on_c, 13, 62, 83
17, 162540, Note_on_c, 13, 62, 0
17, 162540, Note_on_c, 13, 62, 83
17, 162600, Note_on_c, 13, 62, 0
17, 162600, Note_on_c, 13, 60, 100
17, 162660, Note_on_c, 13, 60, 0
17, 162660, Note_on_c, 13, 60, 83
17, 162720, Note_on_c, 13, 60, 0
17, 162720, Note_on_c, 13, 60, 83
17, 162780, Note_on_c, 13, 60, 0
17, 162780, Note_on_c, 13, 59, 100
17, 162840, Note_on_c, 13, 59, 0
17, 162840, Note_on_c, 13, 59, 83
17, 162900, Note_on_c, 13, 59, 0
17, 162900, Note_on_c, 13, 57, 83
17, 162960, Note_on_c, 13, 57, 0
17, 162960, Note_on_c, 13, 55, 100
17, 163020, Note_on_c, 13, 55, 0
17, 163020, Note_on_c, 13, 55, 83
17, 163080, Note_on_c, 13, 55, 0
17, 163080, Note_on_c, 13, 54, 83
17, 163140, Note_on_c, 13, 54, 0
17, 163140, Note_on_c, 13, 55, 100
17, 163200, Note_on_c, 13, 55, 0
17, 163200, Note_on_c, 13, 55, 83
17, 163260, Note_on_c, 13, 55, 0
17, 163260, Note_on_c, 13, 55, 83
17, 163320, Note_on_c, 13, 55, 0
17, 163320, Note_on_c, 13, 55, 83
17, 163380, Note_on_c, 13, 55, 0
17, 163380, Note_on_c, 13, 54, 83
17, 163440, Note_on_c, 13, 54, 0
17, 163440, Note_on_c, 13, 59, 100
17, 163500, Note_on_c, 13, 59, 0
17, 163500, Note_on_c, 13, 57, 83
17, 163560, Note_on_c, 13, 57, 0
17, 163560, Note_on_c, 13, 55, 83
17, 163620, Note_on_c, 13, 55, 0
17, 163620, Note_on_c, 13, 57, 83
17, 163680, Note_on_c, 13, 57, 0
17, 163680, Note_on_c, 13, 50, 83
17, 163800, Note_on_c, 13, 50, 0
17, 163980, Note_on_c, 13, 55, 100
17, 164040, Note_on_c, 13, 55, 0
17, 164040, Note_on_c, 13, 62, 100
17, 164280, Note_on_c, 13, 62, 0
17, 164280, Note_on_c, 13, 62, 83
17, 164340, Note_on_c, 13, 62, 0
17, 164340, Note_on_c, 13, 55, 83
17, 164400, Note_on_c, 13, 55, 0
17, 164400, Note_on_c, 13, 50, 83
17, 164580, Note_on_c, 13, 50, 0
17, 164580, End_track
18, 0, Start_track
18, 0, MIDI_port, 0
18, 0, Title_t, "cello"
18, 0, Program_c, 14, 42
18, 0, Control_c, 14, 7, 127
18, 0, Control_c, 14, 10, 63
18, 0, Note_on_c, 14, 62, 90
18, 59, Note_on_c, 14, 62, 0
18, 60, Note_on_c, 14, 50, 90
18, 119, Note_on_c, 14, 50, 0
18, 120, Note_on_c, 14, 61, 90
18, 179, Note_on_c, 14, 61, 0
18, 180, Note_on_c, 14, 59, 90
18, 239, Note_on_c, 14, 59, 0
18, 240, Note_on_c, 14, 47, 90
18, 299, Note_on_c, 14, 47, 0
18, 300, Note_on_c, 14, 59, 90
18, 359, Note_on_c, 14, 59, 0
18, 360, Note_on_c, 14, 61, 90
18, 419, Note_on_c, 14, 61, 0
18, 420, Note_on_c, 14, 49, 90
18, 479, Note_on_c, 14, 49, 0
18, 480, Note_on_c, 14, 51, 90
18, 539, Note_on_c, 14, 51, 0
18, 540, Note_on_c, 14, 52, 90
18, 599, Note_on_c, 14, 52, 0
18, 600, Note_on_c, 14, 55, 90
18, 659, Note_on_c, 14, 55, 0
18, 660, Note_on_c, 14, 59, 90
18, 719, Note_on_c, 14, 59, 0
18, 720, Note_on_c, 14, 64, 90
18, 779, Note_on_c, 14, 64, 0
18, 780, Note_on_c, 14, 52, 90
18, 839, Note_on_c, 14, 52, 0
18, 840, Note_on_c, 14, 62, 90
18, 899, Note_on_c, 14, 62, 0
18, 900, Note_on_c, 14, 61, 90
18, 959, Note_on_c, 14, 61, 0
18, 960, Note_on_c, 14, 49, 90
18, 1019, Note_on_c, 14, 49, 0
18, 1020, Note_on_c, 14, 59, 90
18, 1079, Note_on_c, 14, 59, 0
18, 1080, Note_on_c, 14, 57, 90
18, 1139, Note_on_c, 14, 57, 0
18, 1140, Note_on_c, 14, 54, 90
18, 1199, Note_on_c, 14, 54, 0
18, 1200, Note_on_c, 14, 57, 90
18, 1259, Note_on_c, 14, 57, 0
18, 1260, Note_on_c, 14, 50, 90
18, 1319, Note_on_c, 14, 50, 0
18, 1320, Note_on_c, 14, 54, 90
18, 1379, Note_on_c, 14, 54, 0
18, 1380, Note_on_c, 14, 57, 90
18, 1439, Note_on_c, 14, 57, 0
18, 1440, Note_on_c, 14, 62, 90
18, 1499, Note_on_c, 14, 62, 0
18, 1500, Note_on_c, 14, 50, 90
18, 1559, Note_on_c, 14, 50, 0
18, 1560, Note_on_c, 14, 61, 90
18, 1619, Note_on_c, 14, 61, 0
18, 1620, Note_on_c, 14, 59, 90
18, 1679, Note_on_c, 14, 59, 0
18, 1680, Note_on_c, 14, 56, 90
18, 1739, Note_on_c, 14, 56, 0
18, 1740, Note_on_c, 14, 57, 90
18, 1799, Note_on_c, 14, 57, 0
18, 1800, Note_on_c, 14, 50, 90
18, 1859, Note_on_c, 14, 50, 0
18, 1860, Note_on_c, 14, 52, 90
18, 1919, Note_on_c, 14, 52, 0
18, 1920, Note_on_c, 14, 40, 90
18, 1979, Note_on_c, 14, 40, 0
18, 1980, Note_on_c, 14, 45, 90
18, 2039, Note_on_c, 14, 45, 0
18, 2220, Note_on_c, 14, 61, 90
18, 2279, Note_on_c, 14, 61, 0
18, 2280, Note_on_c, 14, 62, 90
18, 2339, Note_on_c, 14, 62, 0
18, 2340, Note_on_c, 14, 57, 90
18, 2399, Note_on_c, 14, 57, 0
18, 2580, Note_on_c, 14, 49, 90
18, 2639, Note_on_c, 14, 49, 0
18, 2640, Note_on_c, 14, 50, 90
18, 2699, Note_on_c, 14, 50, 0
18, 2700, Note_on_c, 14, 45, 90
18, 2759, Note_on_c, 14, 45, 0
18, 2760, Note_on_c, 14, 57, 90
18, 2789, Note_on_c, 14, 57, 0
18, 2790, Note_on_c, 14, 55, 90
18, 2819, Note_on_c, 14, 55, 0
18, 2820, Note_on_c, 14, 54, 90
18, 2849, Note_on_c, 14, 54, 0
18, 2850, Note_on_c, 14, 52, 90
18, 2879, Note_on_c, 14, 52, 0
18, 2880, Note_on_c, 14, 50, 90
18, 2939, Note_on_c, 14, 50, 0
18, 3060, Note_on_c, 14, 47, 90
18, 3119, Note_on_c, 14, 47, 0
18, 3240, Note_on_c, 14, 42, 90
18, 3299, Note_on_c, 14, 42, 0
18, 3300, Note_on_c, 14, 43, 90
18, 3359, Note_on_c, 14, 43, 0
18, 3360, Note_on_c, 14, 45, 90
18, 3419, Note_on_c, 14, 45, 0
18, 3420, Note_on_c, 14, 38, 90
18, 3479, Note_on_c, 14, 38, 0
18, 3480, Note_on_c, 14, 55, 90
18, 3509, Note_on_c, 14, 55, 0
18, 3510, Note_on_c, 14, 54, 90
18, 3539, Note_on_c, 14, 54, 0
18, 3540, Note_on_c, 14, 52, 90
18, 3569, Note_on_c, 14, 52, 0
18, 3570, Note_on_c, 14, 50, 90
18, 3599, Note_on_c, 14, 50, 0
18, 3600, Note_on_c, 14, 49, 90
18, 3659, Note_on_c, 14, 49, 0
18, 3660, Note_on_c, 14, 52, 90
18, 3689, Note_on_c, 14, 52, 0
18, 3690, Note_on_c, 14, 50, 90
18, 3719, Note_on_c, 14, 50, 0
18, 3720, Note_on_c, 14, 49, 90
18, 3749, Note_on_c, 14, 49, 0
18, 3750, Note_on_c, 14, 47, 90
18, 3779, Note_on_c, 14, 47, 0
18, 3780, Note_on_c, 14, 45, 90
18, 3839, Note_on_c, 14, 45, 0
18, 3840, Note_on_c, 14, 49, 90
18, 3899, Note_on_c, 14, 49, 0
18, 3900, Note_on_c, 14, 52, 90
18, 3959, Note_on_c, 14, 52, 0
18, 3960, Note_on_c, 14, 57, 90
18, 4019, Note_on_c, 14, 57, 0
18, 4020, Note_on_c, 14, 52, 90
18, 4079, Note_on_c, 14, 52, 0
18, 4080, Note_on_c, 14, 49, 90
18, 4139, Note_on_c, 14, 49, 0
18, 4140, Note_on_c, 14, 45, 90
18, 4199, Note_on_c, 14, 45, 0
18, 4200, Note_on_c, 14, 42, 90
18, 4259, Note_on_c, 14, 42, 0
18, 4260, Note_on_c, 14, 45, 90
18, 4319, Note_on_c, 14, 45, 0
18, 4320, Note_on_c, 14, 50, 90
18, 4379, Note_on_c, 14, 50, 0
18, 4500, Note_on_c, 14, 48, 90
18, 4559, Note_on_c, 14, 48, 0
18, 4680, Note_on_c, 14, 47, 90
18, 4739, Note_on_c, 14, 47, 0
18, 4800, Note_on_c, 14, 43, 90
18, 4859, Note_on_c, 14, 43, 0
18, 4860, Note_on_c, 14, 50, 90
18, 4919, Note_on_c, 14, 50, 0
18, 5040, Note_on_c, 14, 38, 90
18, 5099, Note_on_c, 14, 38, 0
18, 5580, Note_on_c, 14, 50, 90
18, 5639, Note_on_c, 14, 50, 0
18, 5640, Note_on_c, 14, 54, 90
18, 5699, Note_on_c, 14, 54, 0
18, 5700, Note_on_c, 14, 57, 90
18, 5759, Note_on_c, 14, 57, 0
18, 5760, Note_on_c, 14, 62, 90
18, 5819, Note_on_c, 14, 62, 0
18, 5820, Note_on_c, 14, 50, 90
18, 5879, Note_on_c, 14, 50, 0
18, 5880, Note_on_c, 14, 61, 90
18, 5939, Note_on_c, 14, 61, 0
18, 5940, Note_on_c, 14, 59, 90
18, 5999, Note_on_c, 14, 59, 0
18, 6000, Note_on_c, 14, 47, 90
18, 6059, Note_on_c, 14, 47, 0
18, 6060, Note_on_c, 14, 59, 90
18, 6119, Note_on_c, 14, 59, 0
18, 6120, Note_on_c, 14, 61, 90
18, 6179, Note_on_c, 14, 61, 0
18, 6180, Note_on_c, 14, 49, 90
18, 6239, Note_on_c, 14, 49, 0
18, 6240, Note_on_c, 14, 51, 90
18, 6299, Note_on_c, 14, 51, 0
18, 6300, Note_on_c, 14, 52, 90
18, 6359, Note_on_c, 14, 52, 0
18, 6360, Note_on_c, 14, 55, 90
18, 6419, Note_on_c, 14, 55, 0
18, 6420, Note_on_c, 14, 59, 90
18, 6479, Note_on_c, 14, 59, 0
18, 6480, Note_on_c, 14, 64, 90
18, 6539, Note_on_c, 14, 64, 0
18, 6540, Note_on_c, 14, 52, 90
18, 6599, Note_on_c, 14, 52, 0
18, 6600, Note_on_c, 14, 62, 90
18, 6659, Note_on_c, 14, 62, 0
18, 6660, Note_on_c, 14, 61, 90
18, 6719, Note_on_c, 14, 61, 0
18, 6720, Note_on_c, 14, 49, 90
18, 6779, Note_on_c, 14, 49, 0
18, 6780, Note_on_c, 14, 59, 90
18, 6839, Note_on_c, 14, 59, 0
18, 6840, Note_on_c, 14, 57, 90
18, 6899, Note_on_c, 14, 57, 0
18, 6900, Note_on_c, 14, 54, 90
18, 6959, Note_on_c, 14, 54, 0
18, 6960, Note_on_c, 14, 57, 90
18, 7019, Note_on_c, 14, 57, 0
18, 7020, Note_on_c, 14, 50, 90
18, 7079, Note_on_c, 14, 50, 0
18, 7080, Note_on_c, 14, 54, 90
18, 7139, Note_on_c, 14, 54, 0
18, 7140, Note_on_c, 14, 57, 90
18, 7199, Note_on_c, 14, 57, 0
18, 7200, Note_on_c, 14, 62, 90
18, 7259, Note_on_c, 14, 62, 0
18, 7260, Note_on_c, 14, 50, 90
18, 7319, Note_on_c, 14, 50, 0
18, 7320, Note_on_c, 14, 61, 90
18, 7379, Note_on_c, 14, 61, 0
18, 7380, Note_on_c, 14, 59, 90
18, 7439, Note_on_c, 14, 59, 0
18, 7440, Note_on_c, 14, 56, 90
18, 7499, Note_on_c, 14, 56, 0
18, 7500, Note_on_c, 14, 57, 90
18, 7559, Note_on_c, 14, 57, 0
18, 7560, Note_on_c, 14, 50, 90
18, 7619, Note_on_c, 14, 50, 0
18, 7620, Note_on_c, 14, 52, 90
18, 7679, Note_on_c, 14, 52, 0
18, 7680, Note_on_c, 14, 40, 90
18, 7739, Note_on_c, 14, 40, 0
18, 7740, Note_on_c, 14, 45, 90
18, 7799, Note_on_c, 14, 45, 0
18, 7980, Note_on_c, 14, 61, 90
18, 8039, Note_on_c, 14, 61, 0
18, 8040, Note_on_c, 14, 62, 90
18, 8099, Note_on_c, 14, 62, 0
18, 8100, Note_on_c, 14, 57, 90
18, 8159, Note_on_c, 14, 57, 0
18, 8340, Note_on_c, 14, 49, 90
18, 8399, Note_on_c, 14, 49, 0
18, 8400, Note_on_c, 14, 50, 90
18, 8459, Note_on_c, 14, 50, 0
18, 8460, Note_on_c, 14, 45, 90
18, 8519, Note_on_c, 14, 45, 0
18, 8520, Note_on_c, 14, 49, 90
18, 8579, Note_on_c, 14, 49, 0
18, 8580, Note_on_c, 14, 52, 90
18, 8639, Note_on_c, 14, 52, 0
18, 8640, Note_on_c, 14, 57, 90
18, 8699, Note_on_c, 14, 57, 0
18, 8700, Note_on_c, 14, 45, 90
18, 8759, Note_on_c, 14, 45, 0
18, 8760, Note_on_c, 14, 57, 90
18, 8819, Note_on_c, 14, 57, 0
18, 8820, Note_on_c, 14, 55, 90
18, 8879, Note_on_c, 14, 55, 0
18, 8880, Note_on_c, 14, 43, 90
18, 8939, Note_on_c, 14, 43, 0
18, 8940, Note_on_c, 14, 55, 90
18, 8999, Note_on_c, 14, 55, 0
18, 9000, Note_on_c, 14, 54, 90
18, 9059, Note_on_c, 14, 54, 0
18, 9060, Note_on_c, 14, 42, 90
18, 9119, Note_on_c, 14, 42, 0
18, 9120, Note_on_c, 14, 52, 90
18, 9179, Note_on_c, 14, 52, 0
18, 9180, Note_on_c, 14, 50, 90
18, 9239, Note_on_c, 14, 50, 0
18, 9240, Note_on_c, 14, 38, 90
18, 9299, Note_on_c, 14, 38, 0
18, 9300, Note_on_c, 14, 49, 90
18, 9359, Note_on_c, 14, 49, 0
18, 9360, Note_on_c, 14, 50, 90
18, 9419, Note_on_c, 14, 50, 0
18, 9420, Note_on_c, 14, 38, 90
18, 9479, Note_on_c, 14, 38, 0
18, 9480, Note_on_c, 14, 62, 90
18, 9539, Note_on_c, 14, 62, 0
18, 9540, Note_on_c, 14, 60, 90
18, 9599, Note_on_c, 14, 60, 0
18, 9600, Note_on_c, 14, 48, 90
18, 9659, Note_on_c, 14, 48, 0
18, 9660, Note_on_c, 14, 60, 90
18, 9719, Note_on_c, 14, 60, 0
18, 9720, Note_on_c, 14, 59, 90
18, 9779, Note_on_c, 14, 59, 0
18, 9780, Note_on_c, 14, 47, 90
18, 9839, Note_on_c, 14, 47, 0
18, 9840, Note_on_c, 14, 57, 90
18, 9899, Note_on_c, 14, 57, 0
18, 9900, Note_on_c, 14, 55, 90
18, 9959, Note_on_c, 14, 55, 0
18, 9960, Note_on_c, 14, 43, 90
18, 10019, Note_on_c, 14, 43, 0
18, 10020, Note_on_c, 14, 54, 90
18, 10079, Note_on_c, 14, 54, 0
18, 10080, Note_on_c, 14, 55, 90
18, 10139, Note_on_c, 14, 55, 0
18, 10140, Note_on_c, 14, 43, 90
18, 10199, Note_on_c, 14, 43, 0
18, 10200, Note_on_c, 14, 55, 90
18, 10319, Note_on_c, 14, 55, 0
18, 10320, Note_on_c, 14, 54, 90
18, 10379, Note_on_c, 14, 54, 0
18, 10380, Note_on_c, 14, 59, 90
18, 10439, Note_on_c, 14, 59, 0
18, 10440, Note_on_c, 14, 57, 90
18, 10499, Note_on_c, 14, 57, 0
18, 10500, Note_on_c, 14, 55, 90
18, 10559, Note_on_c, 14, 55, 0
18, 10560, Note_on_c, 14, 57, 90
18, 10619, Note_on_c, 14, 57, 0
18, 10620, Note_on_c, 14, 50, 90
18, 10739, Note_on_c, 14, 50, 0
18, 10860, Note_on_c, 14, 62, 90
18, 10919, Note_on_c, 14, 62, 0
18, 10920, Note_on_c, 14, 55, 90
18, 10979, Note_on_c, 14, 55, 0
18, 10980, Note_on_c, 14, 50, 90
18, 11099, Note_on_c, 14, 50, 0
18, 11220, Note_on_c, 14, 50, 90
18, 11279, Note_on_c, 14, 50, 0
18, 11280, Note_on_c, 14, 43, 90
18, 11339, Note_on_c, 14, 43, 0
18, 11340, Note_on_c, 14, 38, 90
18, 11399, Note_on_c, 14, 38, 0
18, 11400, Note_on_c, 14, 50, 90
18, 11429, Note_on_c, 14, 50, 0
18, 11430, Note_on_c, 14, 52, 90
18, 11459, Note_on_c, 14, 52, 0
18, 11460, Note_on_c, 14, 54, 90
18, 11489, Note_on_c, 14, 54, 0
18, 11490, Note_on_c, 14, 55, 90
18, 11519, Note_on_c, 14, 55, 0
18, 11520, Note_on_c, 14, 57, 90
18, 11579, Note_on_c, 14, 57, 0
18, 11700, Note_on_c, 14, 55, 90
18, 11759, Note_on_c, 14, 55, 0
18, 11880, Note_on_c, 14, 54, 90
18, 11939, Note_on_c, 14, 54, 0
18, 11940, Note_on_c, 14, 52, 90
18, 11999, Note_on_c, 14, 52, 0
18, 12000, Note_on_c, 14, 50, 90
18, 12059, Note_on_c, 14, 50, 0
18, 12060, Note_on_c, 14, 55, 90
18, 12119, Note_on_c, 14, 55, 0
18, 12120, Note_on_c, 14, 52, 90
18, 12179, Note_on_c, 14, 52, 0
18, 12180, Note_on_c, 14, 54, 90
18, 12239, Note_on_c, 14, 54, 0
18, 12240, Note_on_c, 14, 47, 90
18, 12299, Note_on_c, 14, 47, 0
18, 12420, Note_on_c, 14, 42, 90
18, 12479, Note_on_c, 14, 42, 0
18, 12600, Note_on_c, 14, 43, 90
18, 12659, Note_on_c, 14, 43, 0
18, 12660, Note_on_c, 14, 42, 90
18, 12719, Note_on_c, 14, 42, 0
18, 12720, Note_on_c, 14, 40, 90
18, 12779, Note_on_c, 14, 40, 0
18, 12780, Note_on_c, 14, 38, 90
18, 12839, Note_on_c, 14, 38, 0
18, 12840, Note_on_c, 14, 49, 90
18, 12899, Note_on_c, 14, 49, 0
18, 12900, Note_on_c, 14, 47, 90
18, 12959, Note_on_c, 14, 47, 0
18, 12960, Note_on_c, 14, 45, 90
18, 13079, Note_on_c, 14, 45, 0
18, 13140, Note_on_c, 14, 57, 90
18, 13199, Note_on_c, 14, 57, 0
18, 13200, Note_on_c, 14, 52, 90
18, 13259, Note_on_c, 14, 52, 0
18, 13260, Note_on_c, 14, 54, 90
18, 13319, Note_on_c, 14, 54, 0
18, 13320, Note_on_c, 14, 49, 90
18, 13379, Note_on_c, 14, 49, 0
18, 13380, Note_on_c, 14, 47, 90
18, 13439, Note_on_c, 14, 47, 0
18, 13440, Note_on_c, 14, 45, 90
18, 13499, Note_on_c, 14, 45, 0
18, 13500, Note_on_c, 14, 50, 90
18, 13559, Note_on_c, 14, 50, 0
18, 13560, Note_on_c, 14, 54, 90
18, 13619, Note_on_c, 14, 54, 0
18, 13620, Note_on_c, 14, 57, 90
18, 13679, Note_on_c, 14, 57, 0
18, 13680, Note_on_c, 14, 62, 90
18, 13739, Note_on_c, 14, 62, 0
18, 14220, Note_on_c, 14, 45, 90
18, 14279, Note_on_c, 14, 45, 0
18, 14280, Note_on_c, 14, 49, 90
18, 14339, Note_on_c, 14, 49, 0
18, 14340, Note_on_c, 14, 52, 90
18, 14399, Note_on_c, 14, 52, 0
18, 14400, Note_on_c, 14, 57, 90
18, 14459, Note_on_c, 14, 57, 0
18, 14460, Note_on_c, 14, 45, 90
18, 14519, Note_on_c, 14, 45, 0
18, 14520, Note_on_c, 14, 57, 90
18, 14579, Note_on_c, 14, 57, 0
18, 14580, Note_on_c, 14, 55, 90
18, 14639, Note_on_c, 14, 55, 0
18, 14640, Note_on_c, 14, 43, 90
18, 14699, Note_on_c, 14, 43, 0
18, 14700, Note_on_c, 14, 55, 90
18, 14759, Note_on_c, 14, 55, 0
18, 14760, Note_on_c, 14, 54, 90
18, 14819, Note_on_c, 14, 54, 0
18, 14820, Note_on_c, 14, 42, 90
18, 14879, Note_on_c, 14, 42, 0
18, 14880, Note_on_c, 14, 52, 90
18, 14939, Note_on_c, 14, 52, 0
18, 14940, Note_on_c, 14, 50, 90
18, 14999, Note_on_c, 14, 50, 0
18, 15000, Note_on_c, 14, 38, 90
18, 15059, Note_on_c, 14, 38, 0
18, 15060, Note_on_c, 14, 49, 90
18, 15119, Note_on_c, 14, 49, 0
18, 15120, Note_on_c, 14, 50, 90
18, 15179, Note_on_c, 14, 50, 0
18, 15180, Note_on_c, 14, 38, 90
18, 15239, Note_on_c, 14, 38, 0
18, 15240, Note_on_c, 14, 62, 90
18, 15299, Note_on_c, 14, 62, 0
18, 15300, Note_on_c, 14, 60, 90
18, 15359, Note_on_c, 14, 60, 0
18, 15360, Note_on_c, 14, 48, 90
18, 15419, Note_on_c, 14, 48, 0
18, 15420, Note_on_c, 14, 60, 90
18, 15479, Note_on_c, 14, 60, 0
18, 15480, Note_on_c, 14, 59, 90
18, 15539, Note_on_c, 14, 59, 0
18, 15540, Note_on_c, 14, 47, 90
18, 15599, Note_on_c, 14, 47, 0
18, 15600, Note_on_c, 14, 57, 90
18, 15659, Note_on_c, 14, 57, 0
18, 15660, Note_on_c, 14, 55, 90
18, 15719, Note_on_c, 14, 55, 0
18, 15720, Note_on_c, 14, 43, 90
18, 15779, Note_on_c, 14, 43, 0
18, 15780, Note_on_c, 14, 54, 90
18, 15839, Note_on_c, 14, 54, 0
18, 15840, Note_on_c, 14, 55, 90
18, 15899, Note_on_c, 14, 55, 0
18, 15900, Note_on_c, 14, 43, 90
18, 15959, Note_on_c, 14, 43, 0
18, 15960, Note_on_c, 14, 55, 90
18, 16079, Note_on_c, 14, 55, 0
18, 16080, Note_on_c, 14, 54, 90
18, 16139, Note_on_c, 14, 54, 0
18, 16140, Note_on_c, 14, 59, 90
18, 16199, Note_on_c, 14, 59, 0
18, 16200, Note_on_c, 14, 57, 90
18, 16259, Note_on_c, 14, 57, 0
18, 16260, Note_on_c, 14, 55, 90
18, 16319, Note_on_c, 14, 55, 0
18, 16320, Note_on_c, 14, 57, 90
18, 16379, Note_on_c, 14, 57, 0
18, 16380, Note_on_c, 14, 50, 90
18, 16499, Note_on_c, 14, 50, 0
18, 16620, Note_on_c, 14, 62, 90
18, 16679, Note_on_c, 14, 62, 0
18, 16680, Note_on_c, 14, 55, 90
18, 16739, Note_on_c, 14, 55, 0
18, 16740, Note_on_c, 14, 50, 90
18, 16859, Note_on_c, 14, 50, 0
18, 16980, Note_on_c, 14, 50, 90
18, 17039, Note_on_c, 14, 50, 0
18, 17040, Note_on_c, 14, 43, 90
18, 17099, Note_on_c, 14, 43, 0
18, 17100, Note_on_c, 14, 38, 90
18, 17279, Note_on_c, 14, 38, 0
18, 17460, Note_on_c, 14, 44, 90
18, 18180, Note_on_c, 14, 44, 0
18, 18180, Note_on_c, 14, 45, 90
18, 18300, Note_on_c, 14, 45, 0
18, 18300, Note_on_c, 14, 49, 90
18, 18420, Note_on_c, 14, 49, 0
18, 18420, Note_on_c, 14, 50, 90
18, 18540, Note_on_c, 14, 50, 0
18, 18540, Note_on_c, 14, 47, 90
18, 18660, Note_on_c, 14, 47, 0
18, 18780, Note_on_c, 14, 52, 90
18, 18900, Note_on_c, 14, 52, 0
18, 18900, Note_on_c, 14, 45, 90
18, 18959, Note_on_c, 14, 45, 0
18, 18960, Note_on_c, 14, 47, 90
18, 19019, Note_on_c, 14, 47, 0
18, 19020, Note_on_c, 14, 49, 90
18, 19079, Note_on_c, 14, 49, 0
18, 19080, Note_on_c, 14, 50, 90
18, 19139, Note_on_c, 14, 50, 0
18, 19140, Note_on_c, 14, 52, 90
18, 19199, Note_on_c, 14, 52, 0
18, 19200, Note_on_c, 14, 54, 90
18, 19259, Note_on_c, 14, 54, 0
18, 19260, Note_on_c, 14, 56, 90
18, 19319, Note_on_c, 14, 56, 0
18, 19320, Note_on_c, 14, 59, 90
18, 19379, Note_on_c, 14, 59, 0
18, 19380, Note_on_c, 14, 57, 90
18, 19439, Note_on_c, 14, 57, 0
18, 19440, Note_on_c, 14, 55, 90
18, 19499, Note_on_c, 14, 55, 0
18, 19500, Note_on_c, 14, 54, 90
18, 19559, Note_on_c, 14, 54, 0
18, 19560, Note_on_c, 14, 52, 90
18, 19619, Note_on_c, 14, 52, 0
18, 19620, Note_on_c, 14, 50, 90
18, 19679, Note_on_c, 14, 50, 0
18, 19680, Note_on_c, 14, 52, 90
18, 19739, Note_on_c, 14, 52, 0
18, 19740, Note_on_c, 14, 54, 90
18, 19799, Note_on_c, 14, 54, 0
18, 19800, Note_on_c, 14, 56, 90
18, 19859, Note_on_c, 14, 56, 0
18, 19860, Note_on_c, 14, 57, 90
18, 19919, Note_on_c, 14, 57, 0
18, 19920, Note_on_c, 14, 59, 90
18, 19979, Note_on_c, 14, 59, 0
18, 19980, Note_on_c, 14, 61, 90
18, 20039, Note_on_c, 14, 61, 0
18, 20040, Note_on_c, 14, 59, 90
18, 20099, Note_on_c, 14, 59, 0
18, 20100, Note_on_c, 14, 61, 90
18, 20159, Note_on_c, 14, 61, 0
18, 20160, Note_on_c, 14, 57, 90
18, 20219, Note_on_c, 14, 57, 0
18, 20220, Note_on_c, 14, 59, 90
18, 20279, Note_on_c, 14, 59, 0
18, 20280, Note_on_c, 14, 61, 90
18, 20339, Note_on_c, 14, 61, 0
18, 20340, Note_on_c, 14, 50, 90
18, 20399, Note_on_c, 14, 50, 0
18, 20400, Note_on_c, 14, 49, 90
18, 20459, Note_on_c, 14, 49, 0
18, 20460, Note_on_c, 14, 50, 90
18, 20519, Note_on_c, 14, 50, 0
18, 20520, Note_on_c, 14, 52, 90
18, 20579, Note_on_c, 14, 52, 0
18, 20580, Note_on_c, 14, 54, 90
18, 20639, Note_on_c, 14, 54, 0
18, 20640, Note_on_c, 14, 56, 90
18, 20699, Note_on_c, 14, 56, 0
18, 20700, Note_on_c, 14, 57, 90
18, 20819, Note_on_c, 14, 57, 0
18, 20820, Note_on_c, 14, 57, 90
18, 20939, Note_on_c, 14, 57, 0
18, 20940, Note_on_c, 14, 52, 90
18, 21059, Note_on_c, 14, 52, 0
18, 21060, Note_on_c, 14, 59, 90
18, 21299, Note_on_c, 14, 59, 0
18, 21300, Note_on_c, 14, 59, 90
18, 21419, Note_on_c, 14, 59, 0
18, 21420, Note_on_c, 14, 57, 90
18, 21479, Note_on_c, 14, 57, 0
18, 21480, Note_on_c, 14, 59, 90
18, 21539, Note_on_c, 14, 59, 0
18, 21540, Note_on_c, 14, 61, 90
18, 21599, Note_on_c, 14, 61, 0
18, 21600, Note_on_c, 14, 59, 90
18, 21659, Note_on_c, 14, 59, 0
18, 21660, Note_on_c, 14, 57, 90
18, 21719, Note_on_c, 14, 57, 0
18, 21720, Note_on_c, 14, 56, 90
18, 21779, Note_on_c, 14, 56, 0
18, 21780, Note_on_c, 14, 54, 90
18, 21839, Note_on_c, 14, 54, 0
18, 21840, Note_on_c, 14, 55, 90
18, 21899, Note_on_c, 14, 55, 0
18, 21900, Note_on_c, 14, 54, 90
18, 21959, Note_on_c, 14, 54, 0
18, 21960, Note_on_c, 14, 52, 90
18, 22019, Note_on_c, 14, 52, 0
18, 22020, Note_on_c, 14, 50, 90
18, 22079, Note_on_c, 14, 50, 0
18, 22080, Note_on_c, 14, 49, 90
18, 22139, Note_on_c, 14, 49, 0
18, 22140, Note_on_c, 14, 47, 90
18, 22199, Note_on_c, 14, 47, 0
18, 22200, Note_on_c, 14, 54, 90
18, 22259, Note_on_c, 14, 54, 0
18, 22260, Note_on_c, 14, 59, 90
18, 22319, Note_on_c, 14, 59, 0
18, 22320, Note_on_c, 14, 57, 90
18, 22379, Note_on_c, 14, 57, 0
18, 22380, Note_on_c, 14, 56, 90
18, 22439, Note_on_c, 14, 56, 0
18, 22440, Note_on_c, 14, 54, 90
18, 22499, Note_on_c, 14, 54, 0
18, 22500, Note_on_c, 14, 52, 90
18, 22559, Note_on_c, 14, 52, 0
18, 22560, Note_on_c, 14, 54, 90
18, 22619, Note_on_c, 14, 54, 0
18, 22620, Note_on_c, 14, 52, 90
18, 22679, Note_on_c, 14, 52, 0
18, 22680, Note_on_c, 14, 50, 90
18, 22739, Note_on_c, 14, 50, 0
18, 22740, Note_on_c, 14, 49, 90
18, 22799, Note_on_c, 14, 49, 0
18, 22800, Note_on_c, 14, 47, 90
18, 22859, Note_on_c, 14, 47, 0
18, 22860, Note_on_c, 14, 45, 90
18, 22919, Note_on_c, 14, 45, 0
18, 22920, Note_on_c, 14, 44, 90
18, 22979, Note_on_c, 14, 44, 0
18, 22980, Note_on_c, 14, 45, 90
18, 23039, Note_on_c, 14, 45, 0
18, 23040, Note_on_c, 14, 47, 90
18, 23099, Note_on_c, 14, 47, 0
18, 23100, Note_on_c, 14, 49, 90
18, 23159, Note_on_c, 14, 49, 0
18, 23160, Note_on_c, 14, 50, 90
18, 23219, Note_on_c, 14, 50, 0
18, 23220, Note_on_c, 14, 52, 90
18, 23279, Note_on_c, 14, 52, 0
18, 23280, Note_on_c, 14, 50, 90
18, 23339, Note_on_c, 14, 50, 0
18, 23340, Note_on_c, 14, 49, 90
18, 23399, Note_on_c, 14, 49, 0
18, 23400, Note_on_c, 14, 47, 90
18, 23459, Note_on_c, 14, 47, 0
18, 23460, Note_on_c, 14, 45, 90
18, 23519, Note_on_c, 14, 45, 0
18, 23520, Note_on_c, 14, 44, 90
18, 23579, Note_on_c, 14, 44, 0
18, 23580, Note_on_c, 14, 42, 90
18, 23639, Note_on_c, 14, 42, 0
18, 23640, Note_on_c, 14, 40, 90
18, 23699, Note_on_c, 14, 40, 0
18, 23700, Note_on_c, 14, 42, 90
18, 23819, Note_on_c, 14, 42, 0
18, 23820, Note_on_c, 14, 54, 90
18, 23939, Note_on_c, 14, 54, 0
18, 23940, Note_on_c, 14, 52, 90
18, 23999, Note_on_c, 14, 52, 0
18, 24000, Note_on_c, 14, 54, 90
18, 24059, Note_on_c, 14, 54, 0
18, 24060, Note_on_c, 14, 52, 90
18, 24119, Note_on_c, 14, 52, 0
18, 24120, Note_on_c, 14, 50, 90
18, 24179, Note_on_c, 14, 50, 0
18, 24180, Note_on_c, 14, 49, 90
18, 24239, Note_on_c, 14, 49, 0
18, 24240, Note_on_c, 14, 47, 90
18, 24299, Note_on_c, 14, 47, 0
18, 24300, Note_on_c, 14, 46, 90
18, 24359, Note_on_c, 14, 46, 0
18, 24360, Note_on_c, 14, 47, 90
18, 24419, Note_on_c, 14, 47, 0
18, 24420, Note_on_c, 14, 49, 90
18, 24479, Note_on_c, 14, 49, 0
18, 24480, Note_on_c, 14, 46, 90
18, 24539, Note_on_c, 14, 46, 0
18, 24540, Note_on_c, 14, 42, 90
18, 24599, Note_on_c, 14, 42, 0
18, 24600, Note_on_c, 14, 46, 90
18, 24659, Note_on_c, 14, 46, 0
18, 24660, Note_on_c, 14, 47, 90
18, 24719, Note_on_c, 14, 47, 0
18, 24720, Note_on_c, 14, 54, 90
18, 24779, Note_on_c, 14, 54, 0
18, 24780, Note_on_c, 14, 59, 90
18, 24839, Note_on_c, 14, 59, 0
18, 24840, Note_on_c, 14, 57, 90
18, 24899, Note_on_c, 14, 57, 0
18, 24900, Note_on_c, 14, 56, 90
18, 24959, Note_on_c, 14, 56, 0
18, 24960, Note_on_c, 14, 54, 90
18, 25019, Note_on_c, 14, 54, 0
18, 25020, Note_on_c, 14, 53, 90
18, 25079, Note_on_c, 14, 53, 0
18, 25080, Note_on_c, 14, 54, 90
18, 25139, Note_on_c, 14, 54, 0
18, 25140, Note_on_c, 14, 56, 90
18, 25199, Note_on_c, 14, 56, 0
18, 25200, Note_on_c, 14, 53, 90
18, 25259, Note_on_c, 14, 53, 0
18, 25260, Note_on_c, 14, 49, 90
18, 25319, Note_on_c, 14, 49, 0
18, 25320, Note_on_c, 14, 53, 90
18, 25379, Note_on_c, 14, 53, 0
18, 25380, Note_on_c, 14, 54, 90
18, 25439, Note_on_c, 14, 54, 0
18, 25440, Note_on_c, 14, 56, 90
18, 25499, Note_on_c, 14, 56, 0
18, 25500, Note_on_c, 14, 54, 90
18, 25559, Note_on_c, 14, 54, 0
18, 25560, Note_on_c, 14, 52, 90
18, 25619, Note_on_c, 14, 52, 0
18, 25620, Note_on_c, 14, 51, 90
18, 25679, Note_on_c, 14, 51, 0
18, 25680, Note_on_c, 14, 49, 90
18, 25739, Note_on_c, 14, 49, 0
18, 25740, Note_on_c, 14, 48, 90
18, 25799, Note_on_c, 14, 48, 0
18, 25800, Note_on_c, 14, 49, 90
18, 25859, Note_on_c, 14, 49, 0
18, 25860, Note_on_c, 14, 51, 90
18, 25919, Note_on_c, 14, 51, 0
18, 25920, Note_on_c, 14, 48, 90
18, 25979, Note_on_c, 14, 48, 0
18, 25980, Note_on_c, 14, 44, 90
18, 26039, Note_on_c, 14, 44, 0
18, 26040, Note_on_c, 14, 48, 90
18, 26099, Note_on_c, 14, 48, 0
18, 26100, Note_on_c, 14, 49, 90
18, 26159, Note_on_c, 14, 49, 0
18, 26160, Note_on_c, 14, 51, 90
18, 26219, Note_on_c, 14, 51, 0
18, 26220, Note_on_c, 14, 52, 90
18, 26279, Note_on_c, 14, 52, 0
18, 26280, Note_on_c, 14, 54, 90
18, 26339, Note_on_c, 14, 54, 0
18, 26340, Note_on_c, 14, 56, 90
18, 26399, Note_on_c, 14, 56, 0
18, 26400, Note_on_c, 14, 57, 90
18, 26459, Note_on_c, 14, 57, 0
18, 26460, Note_on_c, 14, 47, 90
18, 26519, Note_on_c, 14, 47, 0
18, 26520, Note_on_c, 14, 49, 90
18, 26579, Note_on_c, 14, 49, 0
18, 26580, Note_on_c, 14, 51, 90
18, 26639, Note_on_c, 14, 51, 0
18, 26640, Note_on_c, 14, 52, 90
18, 26699, Note_on_c, 14, 52, 0
18, 26700, Note_on_c, 14, 54, 90
18, 26759, Note_on_c, 14, 54, 0
18, 26760, Note_on_c, 14, 56, 90
18, 26819, Note_on_c, 14, 56, 0
18, 26820, Note_on_c, 14, 45, 90
18, 26879, Note_on_c, 14, 45, 0
18, 26880, Note_on_c, 14, 57, 90
18, 26939, Note_on_c, 14, 57, 0
18, 26940, Note_on_c, 14, 56, 90
18, 26999, Note_on_c, 14, 56, 0
18, 27000, Note_on_c, 14, 54, 90
18, 27059, Note_on_c, 14, 54, 0
18, 27060, Note_on_c, 14, 52, 90
18, 27119, Note_on_c, 14, 52, 0
18, 27120, Note_on_c, 14, 51, 90
18, 27179, Note_on_c, 14, 51, 0
18, 27180, Note_on_c, 14, 44, 90
18, 27239, Note_on_c, 14, 44, 0
18, 27240, Note_on_c, 14, 56, 90
18, 27299, Note_on_c, 14, 56, 0
18, 27300, Note_on_c, 14, 54, 90
18, 27359, Note_on_c, 14, 54, 0
18, 27360, Note_on_c, 14, 52, 90
18, 27419, Note_on_c, 14, 52, 0
18, 27420, Note_on_c, 14, 51, 90
18, 27479, Note_on_c, 14, 51, 0
18, 27480, Note_on_c, 14, 49, 90
18, 27539, Note_on_c, 14, 49, 0
18, 27540, Note_on_c, 14, 54, 90
18, 27599, Note_on_c, 14, 54, 0
18, 27600, Note_on_c, 14, 42, 90
18, 27659, Note_on_c, 14, 42, 0
18, 27660, Note_on_c, 14, 54, 90
18, 27719, Note_on_c, 14, 54, 0
18, 27720, Note_on_c, 14, 52, 90
18, 27779, Note_on_c, 14, 52, 0
18, 27780, Note_on_c, 14, 54, 90
18, 27959, Note_on_c, 14, 54, 0
18, 27960, Note_on_c, 14, 51, 90
18, 28019, Note_on_c, 14, 51, 0
18, 28020, Note_on_c, 14, 52, 90
18, 28079, Note_on_c, 14, 52, 0
18, 28080, Note_on_c, 14, 49, 90
18, 28139, Note_on_c, 14, 49, 0
18, 28140, Note_on_c, 14, 57, 90
18, 28199, Note_on_c, 14, 57, 0
18, 28200, Note_on_c, 14, 56, 90
18, 28259, Note_on_c, 14, 56, 0
18, 28260, Note_on_c, 14, 57, 90
18, 28319, Note_on_c, 14, 57, 0
18, 28320, Note_on_c, 14, 54, 90
18, 28379, Note_on_c, 14, 54, 0
18, 28380, Note_on_c, 14, 56, 90
18, 28499, Note_on_c, 14, 56, 0
18, 28500, Note_on_c, 14, 44, 90
18, 28619, Note_on_c, 14, 44, 0
18, 28620, Note_on_c, 14, 49, 90
18, 29099, Note_on_c, 14, 49, 0
18, 29100, Note_on_c, 14, 52, 90
18, 29579, Note_on_c, 14, 52, 0
18, 29580, Note_on_c, 14, 51, 90
18, 30059, Note_on_c, 14, 51, 0
18, 30060, Note_on_c, 14, 52, 90
18, 30299, Note_on_c, 14, 52, 0
18, 30300, Note_on_c, 14, 46, 90
18, 30539, Note_on_c, 14, 46, 0
18, 30660, Note_on_c, 14, 47, 90
18, 30779, Note_on_c, 14, 47, 0
18, 30780, Note_on_c, 14, 40, 90
18, 31019, Note_on_c, 14, 40, 0
18, 31020, Note_on_c, 14, 50, 90
18, 31259, Note_on_c, 14, 50, 0
18, 31260, Note_on_c, 14, 49, 90
18, 31379, Note_on_c, 14, 49, 0
18, 31380, Note_on_c, 14, 45, 90
18, 31499, Note_on_c, 14, 45, 0
18, 31500, Note_on_c, 14, 42, 90
18, 31619, Note_on_c, 14, 42, 0
18, 31860, Note_on_c, 14, 40, 90
18, 31979, Note_on_c, 14, 40, 0
18, 31980, Note_on_c, 14, 45, 90
18, 32220, Note_on_c, 14, 45, 0
18, 32460, Note_on_c, 14, 57, 90
18, 32519, Note_on_c, 14, 57, 0
18, 32520, Note_on_c, 14, 55, 90
18, 32579, Note_on_c, 14, 55, 0
18, 32580, Note_on_c, 14, 54, 90
18, 32639, Note_on_c, 14, 54, 0
18, 32640, Note_on_c, 14, 52, 90
18, 32699, Note_on_c, 14, 52, 0
18, 32700, Note_on_c, 14, 50, 90
18, 32819, Note_on_c, 14, 50, 0
18, 32820, Note_on_c, 14, 55, 90
18, 32999, Note_on_c, 14, 55, 0
18, 33000, Note_on_c, 14, 54, 90
18, 33029, Note_on_c, 14, 54, 0
18, 33030, Note_on_c, 14, 52, 90
18, 33059, Note_on_c, 14, 52, 0
18, 33060, Note_on_c, 14, 54, 90
18, 33119, Note_on_c, 14, 54, 0
18, 33120, Note_on_c, 14, 50, 90
18, 33179, Note_on_c, 14, 50, 0
18, 33180, Note_on_c, 14, 57, 90
18, 33239, Note_on_c, 14, 57, 0
18, 33240, Note_on_c, 14, 45, 90
18, 33299, Note_on_c, 14, 45, 0
18, 33300, Note_on_c, 14, 50, 90
18, 33539, Note_on_c, 14, 50, 0
18, 33540, Note_on_c, 14, 54, 90
18, 33599, Note_on_c, 14, 54, 0
18, 33600, Note_on_c, 14, 52, 90
18, 33659, Note_on_c, 14, 52, 0
18, 33660, Note_on_c, 14, 50, 90
18, 33719, Note_on_c, 14, 50, 0
18, 33720, Note_on_c, 14, 49, 90
18, 33779, Note_on_c, 14, 49, 0
18, 33780, Note_on_c, 14, 47, 90
18, 33839, Note_on_c, 14, 47, 0
18, 33840, Note_on_c, 14, 45, 90
18, 33899, Note_on_c, 14, 45, 0
18, 33900, Note_on_c, 14, 44, 90
18, 33959, Note_on_c, 14, 44, 0
18, 33960, Note_on_c, 14, 40, 90
18, 34019, Note_on_c, 14, 40, 0
18, 34020, Note_on_c, 14, 45, 90
18, 34079, Note_on_c, 14, 45, 0
18, 34080, Note_on_c, 14, 42, 90
18, 34139, Note_on_c, 14, 42, 0
18, 34140, Note_on_c, 14, 38, 90
18, 34199, Note_on_c, 14, 38, 0
18, 34200, Note_on_c, 14, 40, 90
18, 34259, Note_on_c, 14, 40, 0
18, 34260, Note_on_c, 14, 45, 90
18, 34379, Note_on_c, 14, 45, 0
18, 34380, Note_on_c, 14, 50, 90
18, 34439, Note_on_c, 14, 50, 0
18, 34440, Note_on_c, 14, 52, 90
18, 34499, Note_on_c, 14, 52, 0
18, 34500, Note_on_c, 14, 54, 90
18, 34559, Note_on_c, 14, 54, 0
18, 34560, Note_on_c, 14, 56, 90
18, 34619, Note_on_c, 14, 56, 0
18, 34620, Note_on_c, 14, 57, 90
18, 34679, Note_on_c, 14, 57, 0
18, 34680, Note_on_c, 14, 59, 90
18, 34739, Note_on_c, 14, 59, 0
18, 34740, Note_on_c, 14, 61, 90
18, 34799, Note_on_c, 14, 61, 0
18, 34800, Note_on_c, 14, 62, 90
18, 34859, Note_on_c, 14, 62, 0
18, 34860, Note_on_c, 14, 64, 90
18, 34919, Note_on_c, 14, 64, 0
18, 34920, Note_on_c, 14, 63, 90
18, 34979, Note_on_c, 14, 63, 0
18, 34980, Note_on_c, 14, 61, 90
18, 35039, Note_on_c, 14, 61, 0
18, 35040, Note_on_c, 14, 57, 90
18, 35099, Note_on_c, 14, 57, 0
18, 35100, Note_on_c, 14, 59, 90
18, 35159, Note_on_c, 14, 59, 0
18, 35160, Note_on_c, 14, 47, 90
18, 35219, Note_on_c, 14, 47, 0
18, 35220, Note_on_c, 14, 52, 90
18, 35339, Note_on_c, 14, 52, 0
18, 35340, Note_on_c, 14, 57, 90
18, 35459, Note_on_c, 14, 57, 0
18, 35460, Note_on_c, 14, 56, 90
18, 35519, Note_on_c, 14, 56, 0
18, 35520, Note_on_c, 14, 54, 90
18, 35579, Note_on_c, 14, 54, 0
18, 35580, Note_on_c, 14, 52, 90
18, 35639, Note_on_c, 14, 52, 0
18, 35640, Note_on_c, 14, 51, 90
18, 35699, Note_on_c, 14, 51, 0
18, 35700, Note_on_c, 14, 52, 90
18, 35759, Note_on_c, 14, 52, 0
18, 35760, Note_on_c, 14, 54, 90
18, 35819, Note_on_c, 14, 54, 0
18, 35820, Note_on_c, 14, 55, 90
18, 35879, Note_on_c, 14, 55, 0
18, 35880, Note_on_c, 14, 52, 90
18, 35939, Note_on_c, 14, 52, 0
18, 35940, Note_on_c, 14, 54, 90
18, 35999, Note_on_c, 14, 54, 0
18, 36000, Note_on_c, 14, 56, 90
18, 36059, Note_on_c, 14, 56, 0
18, 36060, Note_on_c, 14, 57, 90
18, 36119, Note_on_c, 14, 57, 0
18, 36120, Note_on_c, 14, 56, 90
18, 36179, Note_on_c, 14, 56, 0
18, 36180, Note_on_c, 14, 54, 90
18, 36239, Note_on_c, 14, 54, 0
18, 36240, Note_on_c, 14, 52, 90
18, 36299, Note_on_c, 14, 52, 0
18, 36300, Note_on_c, 14, 50, 90
18, 36359, Note_on_c, 14, 50, 0
18, 36360, Note_on_c, 14, 49, 90
18, 36419, Note_on_c, 14, 49, 0
18, 36420, Note_on_c, 14, 51, 90
18, 36479, Note_on_c, 14, 51, 0
18, 36480, Note_on_c, 14, 47, 90
18, 36539, Note_on_c, 14, 47, 0
18, 36540, Note_on_c, 14, 52, 90
18, 36599, Note_on_c, 14, 52, 0
18, 36600, Note_on_c, 14, 50, 90
18, 36659, Note_on_c, 14, 50, 0
18, 36660, Note_on_c, 14, 49, 90
18, 36719, Note_on_c, 14, 49, 0
18, 36720, Note_on_c, 14, 45, 90
18, 36779, Note_on_c, 14, 45, 0
18, 36780, Note_on_c, 14, 50, 90
18, 36839, Note_on_c, 14, 50, 0
18, 36840, Note_on_c, 14, 38, 90
18, 36899, Note_on_c, 14, 38, 0
18, 36900, Note_on_c, 14, 45, 90
18, 37259, Note_on_c, 14, 45, 0
18, 37380, Control_c, 14, 0, 10
18, 37380, Control_c, 14, 0, 10
18, 37380, Control_c, 14, 0, 10
18, 37380, Program_c, 14, 70
18, 37380, Note_on_c, 14, 57, 90
18, 37439, Note_on_c, 14, 57, 0
18, 37440, Note_on_c, 14, 61, 90
18, 37499, Note_on_c, 14, 61, 0
18, 37500, Note_on_c, 14, 59, 90
18, 37559, Note_on_c, 14, 59, 0
18, 37560, Note_on_c, 14, 57, 90
18, 37619, Note_on_c, 14, 57, 0
18, 37620, Note_on_c, 14, 52, 90
18, 37649, Note_on_c, 14, 52, 0
18, 37650, Note_on_c, 14, 54, 90
18, 37679, Note_on_c, 14, 54, 0
18, 37680, Note_on_c, 14, 56, 90
18, 37709, Note_on_c, 14, 56, 0
18, 37710, Note_on_c, 14, 52, 90
18, 37739, Note_on_c, 14, 52, 0
18, 37740, Note_on_c, 14, 57, 90
18, 37799, Note_on_c, 14, 57, 0
18, 37800, Note_on_c, 14, 49, 90
18, 37859, Note_on_c, 14, 49, 0
18, 37860, Note_on_c, 14, 52, 90
18, 37919, Note_on_c, 14, 52, 0
18, 37920, Note_on_c, 14, 45, 90
18, 37979, Note_on_c, 14, 45, 0
18, 37980, Note_on_c, 14, 52, 90
18, 38009, Note_on_c, 14, 52, 0
18, 38010, Note_on_c, 14, 54, 90
18, 38039, Note_on_c, 14, 54, 0
18, 38040, Note_on_c, 14, 56, 90
18, 38069, Note_on_c, 14, 56, 0
18, 38070, Note_on_c, 14, 52, 90
18, 38099, Note_on_c, 14, 52, 0
18, 38100, Note_on_c, 14, 57, 90
18, 38159, Note_on_c, 14, 57, 0
18, 38160, Note_on_c, 14, 45, 90
18, 38219, Note_on_c, 14, 45, 0
18, 38220, Note_on_c, 14, 44, 90
18, 38279, Note_on_c, 14, 44, 0
18, 38280, Note_on_c, 14, 42, 90
18, 38339, Note_on_c, 14, 42, 0
18, 38340, Note_on_c, 14, 54, 90
18, 38369, Note_on_c, 14, 54, 0
18, 38370, Note_on_c, 14, 56, 90
18, 38399, Note_on_c, 14, 56, 0
18, 38400, Note_on_c, 14, 57, 90
18, 38429, Note_on_c, 14, 57, 0
18, 38430, Note_on_c, 14, 54, 90
18, 38459, Note_on_c, 14, 54, 0
18, 38460, Note_on_c, 14, 56, 90
18, 38519, Note_on_c, 14, 56, 0
18, 38520, Note_on_c, 14, 44, 90
18, 38579, Note_on_c, 14, 44, 0
18, 38580, Note_on_c, 14, 42, 90
18, 38639, Note_on_c, 14, 42, 0
18, 38640, Note_on_c, 14, 40, 90
18, 38699, Note_on_c, 14, 40, 0
18, 38700, Note_on_c, 14, 52, 90
18, 38729, Note_on_c, 14, 52, 0
18, 38730, Note_on_c, 14, 54, 90
18, 38759, Note_on_c, 14, 54, 0
18, 38760, Note_on_c, 14, 56, 90
18, 38789, Note_on_c, 14, 56, 0
18, 38790, Note_on_c, 14, 52, 90
18, 38819, Note_on_c, 14, 52, 0
18, 38820, Note_on_c, 14, 59, 90
18, 38849, Note_on_c, 14, 59, 0
18, 38850, Note_on_c, 14, 47, 90
18, 38879, Note_on_c, 14, 47, 0
18, 38880, Note_on_c, 14, 47, 90
18, 38909, Note_on_c, 14, 47, 0
18, 38910, Note_on_c, 14, 47, 90
18, 38939, Note_on_c, 14, 47, 0
18, 38940, Note_on_c, 14, 47, 90
18, 38969, Note_on_c, 14, 47, 0
18, 38970, Note_on_c, 14, 47, 90
18, 38999, Note_on_c, 14, 47, 0
18, 39000, Note_on_c, 14, 47, 90
18, 39029, Note_on_c, 14, 47, 0
18, 39030, Note_on_c, 14, 49, 90
18, 39059, Note_on_c, 14, 49, 0
18, 39060, Note_on_c, 14, 49, 90
18, 39089, Note_on_c, 14, 49, 0
18, 39090, Note_on_c, 14, 47, 90
18, 39119, Note_on_c, 14, 47, 0
18, 39120, Note_on_c, 14, 47, 90
18, 39149, Note_on_c, 14, 47, 0
18, 39150, Note_on_c, 14, 45, 90
18, 39179, Note_on_c, 14, 45, 0
18, 39180, Note_on_c, 14, 45, 90
18, 39209, Note_on_c, 14, 45, 0
18, 39210, Note_on_c, 14, 47, 90
18, 39239, Note_on_c, 14, 47, 0
18, 39240, Note_on_c, 14, 47, 90
18, 39269, Note_on_c, 14, 47, 0
18, 39270, Note_on_c, 14, 49, 90
18, 39299, Note_on_c, 14, 49, 0
18, 39300, Note_on_c, 14, 49, 90
18, 39329, Note_on_c, 14, 49, 0
18, 39330, Note_on_c, 14, 47, 90
18, 39359, Note_on_c, 14, 47, 0
18, 39360, Note_on_c, 14, 47, 90
18, 39389, Note_on_c, 14, 47, 0
18, 39390, Note_on_c, 14, 46, 90
18, 39419, Note_on_c, 14, 46, 0
18, 39420, Note_on_c, 14, 47, 90
18, 39449, Note_on_c, 14, 47, 0
18, 39450, Note_on_c, 14, 45, 90
18, 39479, Note_on_c, 14, 45, 0
18, 39480, Note_on_c, 14, 44, 90
18, 39509, Note_on_c, 14, 44, 0
18, 39510, Note_on_c, 14, 42, 90
18, 39539, Note_on_c, 14, 42, 0
18, 39540, Note_on_c, 14, 40, 90
18, 39599, Note_on_c, 14, 40, 0
18, 39600, Note_on_c, 14, 52, 90
18, 39659, Note_on_c, 14, 52, 0
18, 39660, Note_on_c, 14, 51, 90
18, 39719, Note_on_c, 14, 51, 0
18, 39720, Note_on_c, 14, 49, 90
18, 39779, Note_on_c, 14, 49, 0
18, 39780, Note_on_c, 14, 51, 90
18, 39809, Note_on_c, 14, 51, 0
18, 39810, Note_on_c, 14, 49, 90
18, 39839, Note_on_c, 14, 49, 0
18, 39840, Note_on_c, 14, 51, 90
18, 39869, Note_on_c, 14, 51, 0
18, 39870, Note_on_c, 14, 47, 90
18, 39899, Note_on_c, 14, 47, 0
18, 39900, Note_on_c, 14, 52, 90
18, 39959, Note_on_c, 14, 52, 0
18, 39960, Note_on_c, 14, 59, 90
18, 40019, Note_on_c, 14, 59, 0
18, 40020, Note_on_c, 14, 47, 90
18, 40079, Note_on_c, 14, 47, 0
18, 40080, Note_on_c, 14, 40, 90
18, 40139, Note_on_c, 14, 40, 0
18, 40140, Note_on_c, 14, 52, 90
18, 40169, Note_on_c, 14, 52, 0
18, 40170, Note_on_c, 14, 54, 90
18, 40199, Note_on_c, 14, 54, 0
18, 40200, Note_on_c, 14, 56, 90
18, 40229, Note_on_c, 14, 56, 0
18, 40230, Note_on_c, 14, 52, 90
18, 40259, Note_on_c, 14, 52, 0
18, 40260, Note_on_c, 14, 57, 90
18, 40319, Note_on_c, 14, 57, 0
18, 40320, Note_on_c, 14, 61, 90
18, 40379, Note_on_c, 14, 61, 0
18, 40380, Note_on_c, 14, 59, 90
18, 40439, Note_on_c, 14, 59, 0
18, 40440, Note_on_c, 14, 57, 90
18, 40499, Note_on_c, 14, 57, 0
18, 40500, Note_on_c, 14, 56, 90
18, 40559, Note_on_c, 14, 56, 0
18, 40620, Note_on_c, 14, 57, 90
18, 40679, Note_on_c, 14, 57, 0
18, 40680, Note_on_c, 14, 49, 90
18, 40739, Note_on_c, 14, 49, 0
18, 40740, Note_on_c, 14, 52, 90
18, 40799, Note_on_c, 14, 52, 0
18, 40800, Note_on_c, 14, 45, 90
18, 40859, Note_on_c, 14, 45, 0
18, 40860, Note_on_c, 14, 40, 90
18, 40919, Note_on_c, 14, 40, 0
18, 40980, Note_on_c, 14, 45, 90
18, 41039, Note_on_c, 14, 45, 0
18, 41040, Note_on_c, 14, 49, 90
18, 41099, Note_on_c, 14, 49, 0
18, 41100, Note_on_c, 14, 54, 90
18, 41159, Note_on_c, 14, 54, 0
18, 41160, Note_on_c, 14, 52, 90
18, 41219, Note_on_c, 14, 52, 0
18, 41220, Note_on_c, 14, 50, 90
18, 41279, Note_on_c, 14, 50, 0
18, 41280, Note_on_c, 14, 49, 90
18, 41339, Note_on_c, 14, 49, 0
18, 41340, Note_on_c, 14, 47, 90
18, 41399, Note_on_c, 14, 47, 0
18, 41400, Note_on_c, 14, 54, 90
18, 41429, Note_on_c, 14, 54, 0
18, 41430, Note_on_c, 14, 56, 90
18, 41459, Note_on_c, 14, 56, 0
18, 41460, Note_on_c, 14, 58, 90
18, 41489, Note_on_c, 14, 58, 0
18, 41490, Note_on_c, 14, 54, 90
18, 41519, Note_on_c, 14, 54, 0
18, 41520, Note_on_c, 14, 59, 90
18, 41579, Note_on_c, 14, 59, 0
18, 41580, Note_on_c, 14, 61, 90
18, 41639, Note_on_c, 14, 61, 0
18, 41640, Note_on_c, 14, 62, 90
18, 41699, Note_on_c, 14, 62, 0
18, 41700, Note_on_c, 14, 52, 90
18, 41759, Note_on_c, 14, 52, 0
18, 41760, Note_on_c, 14, 64, 90
18, 41819, Note_on_c, 14, 64, 0
18, 41820, Note_on_c, 14, 62, 90
18, 41879, Note_on_c, 14, 62, 0
18, 41880, Note_on_c, 14, 61, 90
18, 41939, Note_on_c, 14, 61, 0
18, 41940, Note_on_c, 14, 56, 90
18, 41969, Note_on_c, 14, 56, 0
18, 41970, Note_on_c, 14, 57, 90
18, 41999, Note_on_c, 14, 57, 0
18, 42000, Note_on_c, 14, 59, 90
18, 42029, Note_on_c, 14, 59, 0
18, 42030, Note_on_c, 14, 56, 90
18, 42059, Note_on_c, 14, 56, 0
18, 42060, Note_on_c, 14, 57, 90
18, 42119, Note_on_c, 14, 57, 0
18, 42120, Note_on_c, 14, 49, 90
18, 42179, Note_on_c, 14, 49, 0
18, 42180, Note_on_c, 14, 47, 90
18, 42239, Note_on_c, 14, 47, 0
18, 42240, Note_on_c, 14, 45, 90
18, 42299, Note_on_c, 14, 45, 0
18, 42300, Note_on_c, 14, 44, 90
18, 42329, Note_on_c, 14, 44, 0
18, 42330, Note_on_c, 14, 45, 90
18, 42359, Note_on_c, 14, 45, 0
18, 42360, Note_on_c, 14, 47, 90
18, 42389, Note_on_c, 14, 47, 0
18, 42390, Note_on_c, 14, 44, 90
18, 42419, Note_on_c, 14, 44, 0
18, 42420, Note_on_c, 14, 45, 90
18, 42449, Note_on_c, 14, 45, 0
18, 42450, Note_on_c, 14, 40, 90
18, 42479, Note_on_c, 14, 40, 0
18, 42480, Note_on_c, 14, 40, 90
18, 42509, Note_on_c, 14, 40, 0
18, 42510, Note_on_c, 14, 40, 90
18, 42539, Note_on_c, 14, 40, 0
18, 42540, Note_on_c, 14, 40, 90
18, 42569, Note_on_c, 14, 40, 0
18, 42570, Note_on_c, 14, 40, 90
18, 42599, Note_on_c, 14, 40, 0
18, 42600, Note_on_c, 14, 40, 90
18, 42659, Note_on_c, 14, 40, 0
18, 42660, Note_on_c, 14, 52, 90
18, 42689, Note_on_c, 14, 52, 0
18, 42690, Note_on_c, 14, 54, 90
18, 42719, Note_on_c, 14, 54, 0
18, 42720, Note_on_c, 14, 56, 90
18, 42749, Note_on_c, 14, 56, 0
18, 42750, Note_on_c, 14, 52, 90
18, 42779, Note_on_c, 14, 52, 0
18, 42780, Note_on_c, 14, 57, 90
18, 42839, Note_on_c, 14, 57, 0
18, 42840, Note_on_c, 14, 54, 90
18, 42899, Note_on_c, 14, 54, 0
18, 42900, Note_on_c, 14, 49, 90
18, 42959, Note_on_c, 14, 49, 0
18, 42960, Note_on_c, 14, 42, 90
18, 43019, Note_on_c, 14, 42, 0
18, 43020, Note_on_c, 14, 54, 90
18, 43049, Note_on_c, 14, 54, 0
18, 43050, Note_on_c, 14, 56, 90
18, 43079, Note_on_c, 14, 56, 0
18, 43080, Note_on_c, 14, 57, 90
18, 43109, Note_on_c, 14, 57, 0
18, 43110, Note_on_c, 14, 54, 90
18, 43139, Note_on_c, 14, 54, 0
18, 43140, Note_on_c, 14, 56, 90
18, 43199, Note_on_c, 14, 56, 0
18, 43200, Note_on_c, 14, 52, 90
18, 43259, Note_on_c, 14, 52, 0
18, 43260, Note_on_c, 14, 47, 90
18, 43319, Note_on_c, 14, 47, 0
18, 43320, Note_on_c, 14, 40, 90
18, 43379, Note_on_c, 14, 40, 0
18, 43380, Note_on_c, 14, 52, 90
18, 43409, Note_on_c, 14, 52, 0
18, 43410, Note_on_c, 14, 54, 90
18, 43439, Note_on_c, 14, 54, 0
18, 43440, Note_on_c, 14, 56, 90
18, 43469, Note_on_c, 14, 56, 0
18, 43470, Note_on_c, 14, 52, 90
18, 43499, Note_on_c, 14, 52, 0
18, 43500, Note_on_c, 14, 59, 90
18, 43529, Note_on_c, 14, 59, 0
18, 43530, Note_on_c, 14, 47, 90
18, 43559, Note_on_c, 14, 47, 0
18, 43560, Note_on_c, 14, 47, 90
18, 43589, Note_on_c, 14, 47, 0
18, 43590, Note_on_c, 14, 47, 90
18, 43619, Note_on_c, 14, 47, 0
18, 43620, Note_on_c, 14, 47, 90
18, 43649, Note_on_c, 14, 47, 0
18, 43650, Note_on_c, 14, 47, 90
18, 43679, Note_on_c, 14, 47, 0
18, 43680, Note_on_c, 14, 47, 90
18, 43709, Note_on_c, 14, 47, 0
18, 43710, Note_on_c, 14, 49, 90
18, 43739, Note_on_c, 14, 49, 0
18, 43740, Note_on_c, 14, 49, 90
18, 43769, Note_on_c, 14, 49, 0
18, 43770, Note_on_c, 14, 47, 90
18, 43799, Note_on_c, 14, 47, 0
18, 43800, Note_on_c, 14, 47, 90
18, 43829, Note_on_c, 14, 47, 0
18, 43830, Note_on_c, 14, 45, 90
18, 43859, Note_on_c, 14, 45, 0
18, 43860, Note_on_c, 14, 45, 90
18, 43889, Note_on_c, 14, 45, 0
18, 43890, Note_on_c, 14, 47, 90
18, 43919, Note_on_c, 14, 47, 0
18, 43920, Note_on_c, 14, 47, 90
18, 43949, Note_on_c, 14, 47, 0
18, 43950, Note_on_c, 14, 49, 90
18, 43979, Note_on_c, 14, 49, 0
18, 43980, Note_on_c, 14, 49, 90
18, 44009, Note_on_c, 14, 49, 0
18, 44010, Note_on_c, 14, 47, 90
18, 44039, Note_on_c, 14, 47, 0
18, 44040, Note_on_c, 14, 47, 90
18, 44069, Note_on_c, 14, 47, 0
18, 44070, Note_on_c, 14, 46, 90
18, 44099, Note_on_c, 14, 46, 0
18, 44100, Note_on_c, 14, 47, 90
18, 44129, Note_on_c, 14, 47, 0
18, 44130, Note_on_c, 14, 45, 90
18, 44159, Note_on_c, 14, 45, 0
18, 44160, Note_on_c, 14, 44, 90
18, 44189, Note_on_c, 14, 44, 0
18, 44190, Note_on_c, 14, 42, 90
18, 44219, Note_on_c, 14, 42, 0
18, 44220, Note_on_c, 14, 40, 90
18, 44279, Note_on_c, 14, 40, 0
18, 44280, Note_on_c, 14, 52, 90
18, 44339, Note_on_c, 14, 52, 0
18, 44340, Note_on_c, 14, 51, 90
18, 44399, Note_on_c, 14, 51, 0
18, 44400, Note_on_c, 14, 49, 90
18, 44459, Note_on_c, 14, 49, 0
18, 44460, Note_on_c, 14, 51, 90
18, 44489, Note_on_c, 14, 51, 0
18, 44490, Note_on_c, 14, 47, 90
18, 44519, Note_on_c, 14, 47, 0
18, 44520, Note_on_c, 14, 49, 90
18, 44549, Note_on_c, 14, 49, 0
18, 44550, Note_on_c, 14, 51, 90
18, 44579, Note_on_c, 14, 51, 0
18, 44580, Note_on_c, 14, 52, 90
18, 44639, Note_on_c, 14, 52, 0
18, 44640, Note_on_c, 14, 59, 90
18, 44699, Note_on_c, 14, 59, 0
18, 44700, Note_on_c, 14, 47, 90
18, 44759, Note_on_c, 14, 47, 0
18, 44760, Note_on_c, 14, 40, 90
18, 44819, Note_on_c, 14, 40, 0
18, 44820, Note_on_c, 14, 44, 90
18, 44879, Note_on_c, 14, 44, 0
18, 44880, Note_on_c, 14, 47, 90
18, 44939, Note_on_c, 14, 47, 0
18, 44940, Note_on_c, 14, 52, 90
18, 44999, Note_on_c, 14, 52, 0
18, 45000, Note_on_c, 14, 51, 90
18, 45059, Note_on_c, 14, 51, 0
18, 45060, Note_on_c, 14, 53, 90
18, 45119, Note_on_c, 14, 53, 0
18, 45120, Note_on_c, 14, 54, 90
18, 45149, Note_on_c, 14, 54, 0
18, 45150, Note_on_c, 14, 42, 90
18, 45179, Note_on_c, 14, 42, 0
18, 45180, Note_on_c, 14, 42, 90
18, 45209, Note_on_c, 14, 42, 0
18, 45210, Note_on_c, 14, 44, 90
18, 45239, Note_on_c, 14, 44, 0
18, 45240, Note_on_c, 14, 44, 90
18, 45269, Note_on_c, 14, 44, 0
18, 45270, Note_on_c, 14, 45, 90
18, 45299, Note_on_c, 14, 45, 0
18, 45300, Note_on_c, 14, 45, 90
18, 45359, Note_on_c, 14, 45, 0
18, 45360, Note_on_c, 14, 44, 90
18, 45419, Note_on_c, 14, 44, 0
18, 45420, Note_on_c, 14, 46, 90
18, 45479, Note_on_c, 14, 46, 0
18, 45480, Note_on_c, 14, 47, 90
18, 45509, Note_on_c, 14, 47, 0
18, 45510, Note_on_c, 14, 59, 90
18, 45539, Note_on_c, 14, 59, 0
18, 45540, Note_on_c, 14, 59, 90
18, 45569, Note_on_c, 14, 59, 0
18, 45570, Note_on_c, 14, 57, 90
18, 45599, Note_on_c, 14, 57, 0
18, 45600, Note_on_c, 14, 57, 90
18, 45629, Note_on_c, 14, 57, 0
18, 45630, Note_on_c, 14, 56, 90
18, 45659, Note_on_c, 14, 56, 0
18, 45660, Note_on_c, 14, 57, 90
18, 45719, Note_on_c, 14, 57, 0
18, 45720, Note_on_c, 14, 45, 90
18, 45779, Note_on_c, 14, 45, 0
18, 45780, Note_on_c, 14, 44, 90
18, 45839, Note_on_c, 14, 44, 0
18, 45840, Note_on_c, 14, 42, 90
18, 45899, Note_on_c, 14, 42, 0
18, 45900, Note_on_c, 14, 54, 90
18, 45929, Note_on_c, 14, 54, 0
18, 45930, Note_on_c, 14, 56, 90
18, 45959, Note_on_c, 14, 56, 0
18, 45960, Note_on_c, 14, 57, 90
18, 45989, Note_on_c, 14, 57, 0
18, 45990, Note_on_c, 14, 54, 90
18, 46019, Note_on_c, 14, 54, 0
18, 46020, Note_on_c, 14, 56, 90
18, 46079, Note_on_c, 14, 56, 0
18, 46080, Note_on_c, 14, 44, 90
18, 46139, Note_on_c, 14, 44, 0
18, 46140, Note_on_c, 14, 42, 90
18, 46199, Note_on_c, 14, 42, 0
18, 46200, Note_on_c, 14, 40, 90
18, 46259, Note_on_c, 14, 40, 0
18, 46260, Note_on_c, 14, 52, 90
18, 46289, Note_on_c, 14, 52, 0
18, 46290, Note_on_c, 14, 54, 90
18, 46319, Note_on_c, 14, 54, 0
18, 46320, Note_on_c, 14, 56, 90
18, 46349, Note_on_c, 14, 56, 0
18, 46350, Note_on_c, 14, 52, 90
18, 46379, Note_on_c, 14, 52, 0
18, 46380, Note_on_c, 14, 59, 90
18, 46409, Note_on_c, 14, 59, 0
18, 46410, Note_on_c, 14, 47, 90
18, 46439, Note_on_c, 14, 47, 0
18, 46440, Note_on_c, 14, 47, 90
18, 46469, Note_on_c, 14, 47, 0
18, 46470, Note_on_c, 14, 47, 90
18, 46499, Note_on_c, 14, 47, 0
18, 46500, Note_on_c, 14, 47, 90
18, 46529, Note_on_c, 14, 47, 0
18, 46530, Note_on_c, 14, 47, 90
18, 46559, Note_on_c, 14, 47, 0
18, 46560, Note_on_c, 14, 47, 90
18, 46589, Note_on_c, 14, 47, 0
18, 46590, Note_on_c, 14, 49, 90
18, 46619, Note_on_c, 14, 49, 0
18, 46620, Note_on_c, 14, 49, 90
18, 46649, Note_on_c, 14, 49, 0
18, 46650, Note_on_c, 14, 47, 90
18, 46679, Note_on_c, 14, 47, 0
18, 46680, Note_on_c, 14, 47, 90
18, 46709, Note_on_c, 14, 47, 0
18, 46710, Note_on_c, 14, 45, 90
18, 46739, Note_on_c, 14, 45, 0
18, 46740, Note_on_c, 14, 45, 90
18, 46769, Note_on_c, 14, 45, 0
18, 46770, Note_on_c, 14, 47, 90
18, 46799, Note_on_c, 14, 47, 0
18, 46800, Note_on_c, 14, 47, 90
18, 46829, Note_on_c, 14, 47, 0
18, 46830, Note_on_c, 14, 49, 90
18, 46859, Note_on_c, 14, 49, 0
18, 46860, Note_on_c, 14, 49, 90
18, 46889, Note_on_c, 14, 49, 0
18, 46890, Note_on_c, 14, 47, 90
18, 46919, Note_on_c, 14, 47, 0
18, 46920, Note_on_c, 14, 47, 90
18, 46949, Note_on_c, 14, 47, 0
18, 46950, Note_on_c, 14, 46, 90
18, 46979, Note_on_c, 14, 46, 0
18, 46980, Note_on_c, 14, 47, 90
18, 47009, Note_on_c, 14, 47, 0
18, 47010, Note_on_c, 14, 45, 90
18, 47039, Note_on_c, 14, 45, 0
18, 47040, Note_on_c, 14, 44, 90
18, 47069, Note_on_c, 14, 44, 0
18, 47070, Note_on_c, 14, 42, 90
18, 47099, Note_on_c, 14, 42, 0
18, 47100, Note_on_c, 14, 40, 90
18, 47159, Note_on_c, 14, 40, 0
18, 47160, Note_on_c, 14, 52, 90
18, 47219, Note_on_c, 14, 52, 0
18, 47220, Note_on_c, 14, 51, 90
18, 47279, Note_on_c, 14, 51, 0
18, 47280, Note_on_c, 14, 49, 90
18, 47339, Note_on_c, 14, 49, 0
18, 47340, Note_on_c, 14, 51, 90
18, 47369, Note_on_c, 14, 51, 0
18, 47370, Note_on_c, 14, 49, 90
18, 47399, Note_on_c, 14, 49, 0
18, 47400, Note_on_c, 14, 51, 90
18, 47429, Note_on_c, 14, 51, 0
18, 47430, Note_on_c, 14, 47, 90
18, 47459, Note_on_c, 14, 47, 0
18, 47460, Note_on_c, 14, 52, 90
18, 47519, Note_on_c, 14, 52, 0
18, 47520, Note_on_c, 14, 59, 90
18, 47579, Note_on_c, 14, 59, 0
18, 47580, Note_on_c, 14, 47, 90
18, 47639, Note_on_c, 14, 47, 0
18, 47640, Note_on_c, 14, 52, 90
18, 47669, Note_on_c, 14, 52, 0
18, 47670, Note_on_c, 14, 40, 90
18, 47699, Note_on_c, 14, 40, 0
18, 47700, Note_on_c, 14, 40, 90
18, 47729, Note_on_c, 14, 40, 0
18, 47730, Note_on_c, 14, 40, 90
18, 47759, Note_on_c, 14, 40, 0
18, 47760, Note_on_c, 14, 40, 90
18, 47789, Note_on_c, 14, 40, 0
18, 47790, Note_on_c, 14, 40, 90
18, 47819, Note_on_c, 14, 40, 0
18, 47820, Note_on_c, 14, 40, 90
18, 47879, Note_on_c, 14, 40, 0
18, 47880, Note_on_c, 14, 52, 90
18, 47909, Note_on_c, 14, 52, 0
18, 47910, Note_on_c, 14, 54, 90
18, 47939, Note_on_c, 14, 54, 0
18, 47940, Note_on_c, 14, 56, 90
18, 47969, Note_on_c, 14, 56, 0
18, 47970, Note_on_c, 14, 52, 90
18, 47999, Note_on_c, 14, 52, 0
18, 48000, Note_on_c, 14, 57, 90
18, 48029, Note_on_c, 14, 57, 0
18, 48030, Note_on_c, 14, 45, 90
18, 48059, Note_on_c, 14, 45, 0
18, 48060, Note_on_c, 14, 45, 90
18, 48089, Note_on_c, 14, 45, 0
18, 48090, Note_on_c, 14, 45, 90
18, 48119, Note_on_c, 14, 45, 0
18, 48120, Note_on_c, 14, 45, 90
18, 48149, Note_on_c, 14, 45, 0
18, 48150, Note_on_c, 14, 45, 90
18, 48179, Note_on_c, 14, 45, 0
18, 48180, Note_on_c, 14, 45, 90
18, 48239, Note_on_c, 14, 45, 0
18, 48240, Note_on_c, 14, 56, 90
18, 48269, Note_on_c, 14, 56, 0
18, 48270, Note_on_c, 14, 57, 90
18, 48299, Note_on_c, 14, 57, 0
18, 48300, Note_on_c, 14, 59, 90
18, 48329, Note_on_c, 14, 59, 0
18, 48330, Note_on_c, 14, 56, 90
18, 48359, Note_on_c, 14, 56, 0
18, 48360, Note_on_c, 14, 62, 90
18, 48419, Note_on_c, 14, 62, 0
18, 48420, Note_on_c, 14, 50, 90
18, 48479, Note_on_c, 14, 50, 0
18, 48480, Note_on_c, 14, 46, 90
18, 48539, Note_on_c, 14, 46, 0
18, 48540, Note_on_c, 14, 47, 90
18, 48599, Note_on_c, 14, 47, 0
18, 48600, Note_on_c, 14, 45, 90
18, 48659, Note_on_c, 14, 45, 0
18, 48660, Note_on_c, 14, 44, 90
18, 48719, Note_on_c, 14, 44, 0
18, 48720, Note_on_c, 14, 45, 90
18, 48779, Note_on_c, 14, 45, 0
18, 48780, Note_on_c, 14, 49, 90
18, 48839, Note_on_c, 14, 49, 0
18, 48840, Note_on_c, 14, 52, 90
18, 48899, Note_on_c, 14, 52, 0
18, 48900, Note_on_c, 14, 57, 90
18, 48959, Note_on_c, 14, 57, 0
18, 48960, Note_on_c, 14, 54, 90
18, 49019, Note_on_c, 14, 54, 0
18, 49020, Note_on_c, 14, 50, 90
18, 49079, Note_on_c, 14, 50, 0
18, 49080, Note_on_c, 14, 51, 90
18, 49109, Note_on_c, 14, 51, 0
18, 49110, Note_on_c, 14, 39, 90
18, 49139, Note_on_c, 14, 39, 0
18, 49140, Note_on_c, 14, 39, 90
18, 49169, Note_on_c, 14, 39, 0
18, 49170, Note_on_c, 14, 39, 90
18, 49199, Note_on_c, 14, 39, 0
18, 49200, Note_on_c, 14, 39, 90
18, 49229, Note_on_c, 14, 39, 0
18, 49230, Note_on_c, 14, 39, 90
18, 49259, Note_on_c, 14, 39, 0
18, 49260, Note_on_c, 14, 40, 90
18, 49318, Note_on_c, 14, 40, 0
18, 49320, Note_on_c, 14, 44, 90
18, 49378, Note_on_c, 14, 44, 0
18, 49380, Note_on_c, 14, 40, 90
18, 49438, Note_on_c, 14, 40, 0
18, 49440, Note_on_c, 14, 45, 90
18, 49498, Note_on_c, 14, 45, 0
18, 49500, Note_on_c, 14, 49, 90
18, 49558, Note_on_c, 14, 49, 0
18, 49560, Note_on_c, 14, 54, 90
18, 49618, Note_on_c, 14, 54, 0
18, 49620, Note_on_c, 14, 52, 90
18, 49678, Note_on_c, 14, 52, 0
18, 49680, Note_on_c, 14, 50, 90
18, 49738, Note_on_c, 14, 50, 0
18, 49740, Note_on_c, 14, 49, 90
18, 49798, Note_on_c, 14, 49, 0
18, 49800, Note_on_c, 14, 47, 90
18, 49858, Note_on_c, 14, 47, 0
18, 49860, Note_on_c, 14, 42, 90
18, 49889, Note_on_c, 14, 42, 0
18, 49890, Note_on_c, 14, 44, 90
18, 49919, Note_on_c, 14, 44, 0
18, 49920, Note_on_c, 14, 46, 90
18, 49949, Note_on_c, 14, 46, 0
18, 49950, Note_on_c, 14, 42, 90
18, 49979, Note_on_c, 14, 42, 0
18, 49980, Note_on_c, 14, 47, 90
18, 50039, Note_on_c, 14, 47, 0
18, 50040, Note_on_c, 14, 49, 90
18, 50099, Note_on_c, 14, 49, 0
18, 50100, Note_on_c, 14, 50, 90
18, 50159, Note_on_c, 14, 50, 0
18, 50160, Note_on_c, 14, 40, 90
18, 50219, Note_on_c, 14, 40, 0
18, 50220, Note_on_c, 14, 52, 90
18, 50279, Note_on_c, 14, 52, 0
18, 50280, Note_on_c, 14, 50, 90
18, 50339, Note_on_c, 14, 50, 0
18, 50340, Note_on_c, 14, 49, 90
18, 50399, Note_on_c, 14, 49, 0
18, 50400, Note_on_c, 14, 44, 90
18, 50429, Note_on_c, 14, 44, 0
18, 50430, Note_on_c, 14, 45, 90
18, 50459, Note_on_c, 14, 45, 0
18, 50460, Note_on_c, 14, 47, 90
18, 50489, Note_on_c, 14, 47, 0
18, 50490, Note_on_c, 14, 44, 90
18, 50519, Note_on_c, 14, 44, 0
18, 50520, Note_on_c, 14, 45, 90
18, 50579, Note_on_c, 14, 45, 0
18, 50580, Note_on_c, 14, 49, 90
18, 50639, Note_on_c, 14, 49, 0
18, 50640, Note_on_c, 14, 47, 90
18, 50699, Note_on_c, 14, 47, 0
18, 50700, Note_on_c, 14, 45, 90
18, 50759, Note_on_c, 14, 45, 0
18, 50760, Note_on_c, 14, 44, 90
18, 50789, Note_on_c, 14, 44, 0
18, 50790, Note_on_c, 14, 45, 90
18, 50819, Note_on_c, 14, 45, 0
18, 50820, Note_on_c, 14, 47, 90
18, 50849, Note_on_c, 14, 47, 0
18, 50850, Note_on_c, 14, 44, 90
18, 50879, Note_on_c, 14, 44, 0
18, 50880, Note_on_c, 14, 45, 90
18, 50909, Note_on_c, 14, 45, 0
18, 50910, Note_on_c, 14, 40, 90
18, 50939, Note_on_c, 14, 40, 0
18, 50940, Note_on_c, 14, 40, 90
18, 50969, Note_on_c, 14, 40, 0
18, 50970, Note_on_c, 14, 40, 90
18, 50999, Note_on_c, 14, 40, 0
18, 51000, Note_on_c, 14, 40, 90
18, 51029, Note_on_c, 14, 40, 0
18, 51030, Note_on_c, 14, 40, 90
18, 51059, Note_on_c, 14, 40, 0
18, 51060, Note_on_c, 14, 40, 90
18, 51119, Note_on_c, 14, 40, 0
18, 51120, Note_on_c, 14, 52, 90
18, 51149, Note_on_c, 14, 52, 0
18, 51150, Note_on_c, 14, 54, 90
18, 51179, Note_on_c, 14, 54, 0
18, 51180, Note_on_c, 14, 56, 90
18, 51209, Note_on_c, 14, 56, 0
18, 51210, Note_on_c, 14, 52, 90
18, 51239, Note_on_c, 14, 52, 0
18, 51240, Note_on_c, 14, 57, 90
18, 51299, Note_on_c, 14, 57, 0
18, 51300, Note_on_c, 14, 45, 90
18, 51359, Note_on_c, 14, 45, 0
18, 51360, Note_on_c, 14, 44, 90
18, 51419, Note_on_c, 14, 44, 0
18, 51420, Note_on_c, 14, 42, 90
18, 51479, Note_on_c, 14, 42, 0
18, 51480, Note_on_c, 14, 54, 90
18, 51539, Note_on_c, 14, 54, 0
18, 51540, Note_on_c, 14, 49, 90
18, 51599, Note_on_c, 14, 49, 0
18, 51600, Note_on_c, 14, 50, 90
18, 51659, Note_on_c, 14, 50, 0
18, 51660, Note_on_c, 14, 62, 90
18, 51719, Note_on_c, 14, 62, 0
18, 51720, Note_on_c, 14, 61, 90
18, 51779, Note_on_c, 14, 61, 0
18, 51780, Note_on_c, 14, 59, 90
18, 51839, Note_on_c, 14, 59, 0
18, 51840, Note_on_c, 14, 47, 90
18, 51869, Note_on_c, 14, 47, 0
18, 51870, Note_on_c, 14, 49, 90
18, 51899, Note_on_c, 14, 49, 0
18, 51900, Note_on_c, 14, 50, 90
18, 51929, Note_on_c, 14, 50, 0
18, 51930, Note_on_c, 14, 47, 90
18, 51959, Note_on_c, 14, 47, 0
18, 51960, Note_on_c, 14, 52, 90
18, 52019, Note_on_c, 14, 52, 0
18, 52020, Note_on_c, 14, 44, 90
18, 52079, Note_on_c, 14, 44, 0
18, 52080, Note_on_c, 14, 42, 90
18, 52139, Note_on_c, 14, 42, 0
18, 52140, Note_on_c, 14, 40, 90
18, 52199, Note_on_c, 14, 40, 0
18, 52200, Note_on_c, 14, 44, 90
18, 52259, Note_on_c, 14, 44, 0
18, 52260, Note_on_c, 14, 40, 90
18, 52319, Note_on_c, 14, 40, 0
18, 52320, Note_on_c, 14, 45, 90
18, 52439, Note_on_c, 14, 45, 0
18, 52560, Note_on_c, 14, 45, 90
18, 52589, Note_on_c, 14, 45, 0
18, 52590, Note_on_c, 14, 47, 90
18, 52619, Note_on_c, 14, 47, 0
18, 52620, Note_on_c, 14, 49, 90
18, 52649, Note_on_c, 14, 49, 0
18, 52650, Note_on_c, 14, 45, 90
18, 52679, Note_on_c, 14, 45, 0
18, 52680, Note_on_c, 14, 50, 90
18, 52739, Note_on_c, 14, 50, 0
18, 52740, Note_on_c, 14, 47, 90
18, 52799, Note_on_c, 14, 47, 0
18, 52800, Note_on_c, 14, 54, 90
18, 52859, Note_on_c, 14, 54, 0
18, 52860, Note_on_c, 14, 59, 90
18, 52919, Note_on_c, 14, 59, 0
18, 52920, Note_on_c, 14, 47, 90
18, 52949, Note_on_c, 14, 47, 0
18, 52950, Note_on_c, 14, 49, 90
18, 52979, Note_on_c, 14, 49, 0
18, 52980, Note_on_c, 14, 50, 90
18, 53009, Note_on_c, 14, 50, 0
18, 53010, Note_on_c, 14, 47, 90
18, 53039, Note_on_c, 14, 47, 0
18, 53040, Note_on_c, 14, 49, 90
18, 53099, Note_on_c, 14, 49, 0
18, 53100, Note_on_c, 14, 45, 90
18, 53159, Note_on_c, 14, 45, 0
18, 53160, Note_on_c, 14, 52, 90
18, 53219, Note_on_c, 14, 52, 0
18, 53220, Note_on_c, 14, 57, 90
18, 53279, Note_on_c, 14, 57, 0
18, 53280, Note_on_c, 14, 45, 90
18, 53309, Note_on_c, 14, 45, 0
18, 53310, Note_on_c, 14, 47, 90
18, 53339, Note_on_c, 14, 47, 0
18, 53340, Note_on_c, 14, 49, 90
18, 53369, Note_on_c, 14, 49, 0
18, 53370, Note_on_c, 14, 45, 90
18, 53399, Note_on_c, 14, 45, 0
18, 53400, Note_on_c, 14, 40, 90
18, 53429, Note_on_c, 14, 40, 0
18, 53430, Note_on_c, 14, 52, 90
18, 53459, Note_on_c, 14, 52, 0
18, 53460, Note_on_c, 14, 52, 90
18, 53489, Note_on_c, 14, 52, 0
18, 53490, Note_on_c, 14, 52, 90
18, 53519, Note_on_c, 14, 52, 0
18, 53520, Note_on_c, 14, 52, 90
18, 53549, Note_on_c, 14, 52, 0
18, 53550, Note_on_c, 14, 52, 90
18, 53579, Note_on_c, 14, 52, 0
18, 53580, Note_on_c, 14, 52, 90
18, 53609, Note_on_c, 14, 52, 0
18, 53610, Note_on_c, 14, 54, 90
18, 53639, Note_on_c, 14, 54, 0
18, 53640, Note_on_c, 14, 54, 90
18, 53669, Note_on_c, 14, 54, 0
18, 53670, Note_on_c, 14, 52, 90
18, 53699, Note_on_c, 14, 52, 0
18, 53700, Note_on_c, 14, 52, 90
18, 53729, Note_on_c, 14, 52, 0
18, 53730, Note_on_c, 14, 50, 90
18, 53759, Note_on_c, 14, 50, 0
18, 53760, Note_on_c, 14, 50, 90
18, 53789, Note_on_c, 14, 50, 0
18, 53790, Note_on_c, 14, 52, 90
18, 53819, Note_on_c, 14, 52, 0
18, 53820, Note_on_c, 14, 52, 90
18, 53849, Note_on_c, 14, 52, 0
18, 53850, Note_on_c, 14, 54, 90
18, 53879, Note_on_c, 14, 54, 0
18, 53880, Note_on_c, 14, 54, 90
18, 53909, Note_on_c, 14, 54, 0
18, 53910, Note_on_c, 14, 52, 90
18, 53939, Note_on_c, 14, 52, 0
18, 53940, Note_on_c, 14, 52, 90
18, 53969, Note_on_c, 14, 52, 0
18, 53970, Note_on_c, 14, 51, 90
18, 53999, Note_on_c, 14, 51, 0
18, 54000, Note_on_c, 14, 52, 90
18, 54029, Note_on_c, 14, 52, 0
18, 54030, Note_on_c, 14, 50, 90
18, 54059, Note_on_c, 14, 50, 0
18, 54060, Note_on_c, 14, 49, 90
18, 54089, Note_on_c, 14, 49, 0
18, 54090, Note_on_c, 14, 47, 90
18, 54119, Note_on_c, 14, 47, 0
18, 54120, Note_on_c, 14, 45, 90
18, 54179, Note_on_c, 14, 45, 0
18, 54180, Note_on_c, 14, 57, 90
18, 54239, Note_on_c, 14, 57, 0
18, 54240, Note_on_c, 14, 56, 90
18, 54299, Note_on_c, 14, 56, 0
18, 54300, Note_on_c, 14, 54, 90
18, 54359, Note_on_c, 14, 54, 0
18, 54360, Note_on_c, 14, 56, 90
18, 54389, Note_on_c, 14, 56, 0
18, 54390, Note_on_c, 14, 52, 90
18, 54419, Note_on_c, 14, 52, 0
18, 54420, Note_on_c, 14, 54, 90
18, 54449, Note_on_c, 14, 54, 0
18, 54450, Note_on_c, 14, 56, 90
18, 54479, Note_on_c, 14, 56, 0
18, 54480, Note_on_c, 14, 57, 90
18, 54539, Note_on_c, 14, 57, 0
18, 54540, Note_on_c, 14, 52, 90
18, 54599, Note_on_c, 14, 52, 0
18, 54600, Note_on_c, 14, 40, 90
18, 54659, Note_on_c, 14, 40, 0
18, 54660, Note_on_c, 14, 45, 90
18, 54719, Note_on_c, 14, 45, 0
18, 54720, Note_on_c, 14, 49, 90
18, 54779, Note_on_c, 14, 49, 0
18, 54780, Note_on_c, 14, 52, 90
18, 54839, Note_on_c, 14, 52, 0
18, 54840, Note_on_c, 14, 57, 90
18, 54899, Note_on_c, 14, 57, 0
18, 54900, Note_on_c, 14, 61, 90
18, 54959, Note_on_c, 14, 61, 0
18, 54960, Note_on_c, 14, 59, 90
18, 55019, Note_on_c, 14, 59, 0
18, 55020, Note_on_c, 14, 57, 90
18, 55079, Note_on_c, 14, 57, 0
18, 55080, Note_on_c, 14, 52, 90
18, 55109, Note_on_c, 14, 52, 0
18, 55110, Note_on_c, 14, 54, 90
18, 55139, Note_on_c, 14, 54, 0
18, 55140, Note_on_c, 14, 56, 90
18, 55169, Note_on_c, 14, 56, 0
18, 55170, Note_on_c, 14, 52, 90
18, 55199, Note_on_c, 14, 52, 0
18, 55200, Note_on_c, 14, 57, 90
18, 55259, Note_on_c, 14, 57, 0
18, 55260, Note_on_c, 14, 49, 90
18, 55319, Note_on_c, 14, 49, 0
18, 55320, Note_on_c, 14, 52, 90
18, 55379, Note_on_c, 14, 52, 0
18, 55380, Note_on_c, 14, 45, 90
18, 55439, Note_on_c, 14, 45, 0
18, 55440, Note_on_c, 14, 52, 90
18, 55469, Note_on_c, 14, 52, 0
18, 55470, Note_on_c, 14, 54, 90
18, 55499, Note_on_c, 14, 54, 0
18, 55500, Note_on_c, 14, 56, 90
18, 55529, Note_on_c, 14, 56, 0
18, 55530, Note_on_c, 14, 52, 90
18, 55559, Note_on_c, 14, 52, 0
18, 55560, Note_on_c, 14, 57, 90
18, 55619, Note_on_c, 14, 57, 0
18, 55620, Note_on_c, 14, 45, 90
18, 55679, Note_on_c, 14, 45, 0
18, 55680, Note_on_c, 14, 41, 90
18, 55739, Note_on_c, 14, 41, 0
18, 55740, Note_on_c, 14, 42, 90
18, 55799, Note_on_c, 14, 42, 0
18, 55800, Note_on_c, 14, 54, 90
18, 55859, Note_on_c, 14, 54, 0
18, 55860, Note_on_c, 14, 49, 90
18, 55919, Note_on_c, 14, 49, 0
18, 55920, Note_on_c, 14, 50, 90
18, 55979, Note_on_c, 14, 50, 0
18, 55980, Note_on_c, 14, 62, 90
18, 56039, Note_on_c, 14, 62, 0
18, 56040, Note_on_c, 14, 58, 90
18, 56099, Note_on_c, 14, 58, 0
18, 56100, Note_on_c, 14, 59, 90
18, 56159, Note_on_c, 14, 59, 0
18, 56160, Note_on_c, 14, 47, 90
18, 56219, Note_on_c, 14, 47, 0
18, 56220, Note_on_c, 14, 42, 90
18, 56279, Note_on_c, 14, 42, 0
18, 56280, Note_on_c, 14, 44, 90
18, 56294, Note_on_c, 14, 44, 0
18, 56295, Note_on_c, 14, 45, 90
18, 56309, Note_on_c, 14, 45, 0
18, 56310, Note_on_c, 14, 47, 90
18, 56339, Note_on_c, 14, 47, 0
18, 56340, Note_on_c, 14, 40, 90
18, 56355, Note_on_c, 14, 40, 0
18, 56370, Note_on_c, 14, 40, 90
18, 56385, Note_on_c, 14, 40, 0
18, 56400, Note_on_c, 14, 40, 90
18, 56415, Note_on_c, 14, 40, 0
18, 56430, Note_on_c, 14, 40, 90
18, 56445, Note_on_c, 14, 40, 0
18, 56460, Note_on_c, 14, 40, 90
18, 56489, Note_on_c, 14, 40, 0
18, 56490, Note_on_c, 14, 52, 90
18, 56519, Note_on_c, 14, 52, 0
18, 56520, Note_on_c, 14, 52, 90
18, 56549, Note_on_c, 14, 52, 0
18, 56550, Note_on_c, 14, 52, 90
18, 56579, Note_on_c, 14, 52, 0
18, 56580, Note_on_c, 14, 52, 90
18, 56609, Note_on_c, 14, 52, 0
18, 56610, Note_on_c, 14, 52, 90
18, 56639, Note_on_c, 14, 52, 0
18, 56640, Note_on_c, 14, 52, 90
18, 56669, Note_on_c, 14, 52, 0
18, 56670, Note_on_c, 14, 54, 90
18, 56699, Note_on_c, 14, 54, 0
18, 56700, Note_on_c, 14, 54, 90
18, 56729, Note_on_c, 14, 54, 0
18, 56730, Note_on_c, 14, 52, 90
18, 56759, Note_on_c, 14, 52, 0
18, 56760, Note_on_c, 14, 52, 90
18, 56789, Note_on_c, 14, 52, 0
18, 56790, Note_on_c, 14, 50, 90
18, 56819, Note_on_c, 14, 50, 0
18, 56820, Note_on_c, 14, 50, 90
18, 56849, Note_on_c, 14, 50, 0
18, 56850, Note_on_c, 14, 52, 90
18, 56879, Note_on_c, 14, 52, 0
18, 56880, Note_on_c, 14, 52, 90
18, 56909, Note_on_c, 14, 52, 0
18, 56910, Note_on_c, 14, 54, 90
18, 56939, Note_on_c, 14, 54, 0
18, 56940, Note_on_c, 14, 54, 90
18, 56969, Note_on_c, 14, 54, 0
18, 56970, Note_on_c, 14, 52, 90
18, 56999, Note_on_c, 14, 52, 0
18, 57000, Note_on_c, 14, 52, 90
18, 57029, Note_on_c, 14, 52, 0
18, 57030, Note_on_c, 14, 51, 90
18, 57059, Note_on_c, 14, 51, 0
18, 57060, Note_on_c, 14, 52, 90
18, 57089, Note_on_c, 14, 52, 0
18, 57090, Note_on_c, 14, 50, 90
18, 57119, Note_on_c, 14, 50, 0
18, 57120, Note_on_c, 14, 49, 90
18, 57149, Note_on_c, 14, 49, 0
18, 57150, Note_on_c, 14, 47, 90
18, 57179, Note_on_c, 14, 47, 0
18, 57180, Note_on_c, 14, 45, 90
18, 57239, Note_on_c, 14, 45, 0
18, 57240, Note_on_c, 14, 57, 90
18, 57299, Note_on_c, 14, 57, 0
18, 57300, Note_on_c, 14, 56, 90
18, 57359, Note_on_c, 14, 56, 0
18, 57360, Note_on_c, 14, 54, 90
18, 57419, Note_on_c, 14, 54, 0
18, 57420, Note_on_c, 14, 56, 90
18, 57449, Note_on_c, 14, 56, 0
18, 57450, Note_on_c, 14, 54, 90
18, 57479, Note_on_c, 14, 54, 0
18, 57480, Note_on_c, 14, 56, 90
18, 57509, Note_on_c, 14, 56, 0
18, 57510, Note_on_c, 14, 52, 90
18, 57539, Note_on_c, 14, 52, 0
18, 57540, Note_on_c, 14, 57, 90
18, 57599, Note_on_c, 14, 57, 0
18, 57600, Note_on_c, 14, 64, 90
18, 57659, Note_on_c, 14, 64, 0
18, 57660, Note_on_c, 14, 52, 90
18, 57719, Note_on_c, 14, 52, 0
18, 57720, Note_on_c, 14, 57, 90
18, 57749, Note_on_c, 14, 57, 0
18, 57750, Note_on_c, 14, 56, 90
18, 57764, Note_on_c, 14, 56, 0
18, 57765, Note_on_c, 14, 54, 90
18, 57779, Note_on_c, 14, 54, 0
18, 57780, Note_on_c, 14, 52, 90
18, 57809, Note_on_c, 14, 52, 0
18, 57810, Note_on_c, 14, 50, 90
18, 57839, Note_on_c, 14, 50, 0
18, 57840, Note_on_c, 14, 49, 90
18, 57869, Note_on_c, 14, 49, 0
18, 57870, Note_on_c, 14, 47, 90
18, 57899, Note_on_c, 14, 47, 0
18, 57900, Note_on_c, 14, 45, 90
18, 57915, Note_on_c, 14, 45, 0
18, 57915, Note_on_c, 14, 47, 90
18, 57930, Note_on_c, 14, 47, 0
18, 57930, Note_on_c, 14, 49, 90
18, 57945, Note_on_c, 14, 49, 0
18, 57960, Note_on_c, 14, 49, 90
18, 57975, Note_on_c, 14, 49, 0
18, 57990, Note_on_c, 14, 49, 90
18, 58005, Note_on_c, 14, 49, 0
18, 58020, Note_on_c, 14, 49, 90
18, 58035, Note_on_c, 14, 49, 0
18, 58050, Note_on_c, 14, 49, 90
18, 58065, Note_on_c, 14, 49, 0
18, 58080, Note_on_c, 14, 54, 90
18, 58095, Note_on_c, 14, 54, 0
18, 58095, Note_on_c, 14, 52, 90
18, 58110, Note_on_c, 14, 52, 0
18, 58110, Note_on_c, 14, 50, 90
18, 58125, Note_on_c, 14, 50, 0
18, 58140, Note_on_c, 14, 49, 90
18, 58155, Note_on_c, 14, 49, 0
18, 58170, Note_on_c, 14, 49, 90
18, 58185, Note_on_c, 14, 49, 0
18, 58200, Note_on_c, 14, 49, 90
18, 58215, Note_on_c, 14, 49, 0
18, 58230, Note_on_c, 14, 49, 90
18, 58245, Note_on_c, 14, 49, 0
18, 58260, Note_on_c, 14, 50, 90
18, 58275, Note_on_c, 14, 50, 0
18, 58275, Note_on_c, 14, 52, 90
18, 58290, Note_on_c, 14, 52, 0
18, 58290, Note_on_c, 14, 54, 90
18, 58305, Note_on_c, 14, 54, 0
18, 58320, Note_on_c, 14, 54, 90
18, 58335, Note_on_c, 14, 54, 0
18, 58350, Note_on_c, 14, 54, 90
18, 58365, Note_on_c, 14, 54, 0
18, 58380, Note_on_c, 14, 54, 90
18, 58395, Note_on_c, 14, 54, 0
18, 58410, Note_on_c, 14, 54, 90
18, 58425, Note_on_c, 14, 54, 0
18, 58440, Note_on_c, 14, 59, 90
18, 58455, Note_on_c, 14, 59, 0
18, 58455, Note_on_c, 14, 57, 90
18, 58470, Note_on_c, 14, 57, 0
18, 58470, Note_on_c, 14, 55, 90
18, 58485, Note_on_c, 14, 55, 0
18, 58500, Note_on_c, 14, 54, 90
18, 58515, Note_on_c, 14, 54, 0
18, 58530, Note_on_c, 14, 54, 90
18, 58545, Note_on_c, 14, 54, 0
18, 58560, Note_on_c, 14, 54, 90
18, 58575, Note_on_c, 14, 54, 0
18, 58590, Note_on_c, 14, 54, 90
18, 58605, Note_on_c, 14, 54, 0
18, 58620, Note_on_c, 14, 55, 90
18, 58635, Note_on_c, 14, 55, 0
18, 58635, Note_on_c, 14, 57, 90
18, 58650, Note_on_c, 14, 57, 0
18, 58650, Note_on_c, 14, 59, 90
18, 58665, Note_on_c, 14, 59, 0
18, 58680, Note_on_c, 14, 59, 90
18, 58695, Note_on_c, 14, 59, 0
18, 58710, Note_on_c, 14, 59, 90
18, 58725, Note_on_c, 14, 59, 0
18, 58740, Note_on_c, 14, 59, 90
18, 58755, Note_on_c, 14, 59, 0
18, 58770, Note_on_c, 14, 59, 90
18, 58785, Note_on_c, 14, 59, 0
18, 58800, Note_on_c, 14, 64, 90
18, 58815, Note_on_c, 14, 64, 0
18, 58815, Note_on_c, 14, 62, 90
18, 58830, Note_on_c, 14, 62, 0
18, 58830, Note_on_c, 14, 61, 90
18, 58845, Note_on_c, 14, 61, 0
18, 58860, Note_on_c, 14, 59, 90
18, 58875, Note_on_c, 14, 59, 0
18, 58890, Note_on_c, 14, 59, 90
18, 58905, Note_on_c, 14, 59, 0
18, 58920, Note_on_c, 14, 59, 90
18, 58935, Note_on_c, 14, 59, 0
18, 58950, Note_on_c, 14, 59, 90
18, 58965, Note_on_c, 14, 59, 0
18, 58980, Note_on_c, 14, 61, 90
18, 58995, Note_on_c, 14, 61, 0
18, 58995, Note_on_c, 14, 59, 90
18, 59010, Note_on_c, 14, 59, 0
18, 59010, Note_on_c, 14, 57, 90
18, 59025, Note_on_c, 14, 57, 0
18, 59040, Note_on_c, 14, 56, 90
18, 59055, Note_on_c, 14, 56, 0
18, 59070, Note_on_c, 14, 56, 90
18, 59085, Note_on_c, 14, 56, 0
18, 59100, Note_on_c, 14, 56, 90
18, 59115, Note_on_c, 14, 56, 0
18, 59130, Note_on_c, 14, 56, 90
18, 59145, Note_on_c, 14, 56, 0
18, 59160, Note_on_c, 14, 57, 90
18, 59175, Note_on_c, 14, 57, 0
18, 59175, Note_on_c, 14, 56, 90
18, 59190, Note_on_c, 14, 56, 0
18, 59190, Note_on_c, 14, 54, 90
18, 59205, Note_on_c, 14, 54, 0
18, 59220, Note_on_c, 14, 52, 90
18, 59235, Note_on_c, 14, 52, 0
18, 59250, Note_on_c, 14, 52, 90
18, 59265, Note_on_c, 14, 52, 0
18, 59280, Note_on_c, 14, 52, 90
18, 59295, Note_on_c, 14, 52, 0
18, 59310, Note_on_c, 14, 52, 90
18, 59325, Note_on_c, 14, 52, 0
18, 59340, Note_on_c, 14, 54, 90
18, 59355, Note_on_c, 14, 54, 0
18, 59355, Note_on_c, 14, 52, 90
18, 59370, Note_on_c, 14, 52, 0
18, 59370, Note_on_c, 14, 50, 90
18, 59385, Note_on_c, 14, 50, 0
18, 59400, Note_on_c, 14, 49, 90
18, 59415, Note_on_c, 14, 49, 0
18, 59430, Note_on_c, 14, 49, 90
18, 59445, Note_on_c, 14, 49, 0
18, 59460, Note_on_c, 14, 49, 90
18, 59475, Note_on_c, 14, 49, 0
18, 59490, Note_on_c, 14, 49, 90
18, 59505, Note_on_c, 14, 49, 0
18, 59520, Note_on_c, 14, 50, 90
18, 59535, Note_on_c, 14, 50, 0
18, 59535, Note_on_c, 14, 49, 90
18, 59550, Note_on_c, 14, 49, 0
18, 59550, Note_on_c, 14, 47, 90
18, 59565, Note_on_c, 14, 47, 0
18, 59580, Note_on_c, 14, 45, 90
18, 59595, Note_on_c, 14, 45, 0
18, 59610, Note_on_c, 14, 45, 90
18, 59625, Note_on_c, 14, 45, 0
18, 59640, Note_on_c, 14, 45, 90
18, 59655, Note_on_c, 14, 45, 0
18, 59670, Note_on_c, 14, 45, 90
18, 59685, Note_on_c, 14, 45, 0
18, 59700, Note_on_c, 14, 47, 90
18, 59715, Note_on_c, 14, 47, 0
18, 59715, Note_on_c, 14, 45, 90
18, 59730, Note_on_c, 14, 45, 0
18, 59730, Note_on_c, 14, 43, 90
18, 59745, Note_on_c, 14, 43, 0
18, 59760, Note_on_c, 14, 42, 90
18, 59775, Note_on_c, 14, 42, 0
18, 59790, Note_on_c, 14, 42, 90
18, 59805, Note_on_c, 14, 42, 0
18, 59820, Note_on_c, 14, 42, 90
18, 59835, Note_on_c, 14, 42, 0
18, 59850, Note_on_c, 14, 42, 90
18, 59865, Note_on_c, 14, 42, 0
18, 59880, Note_on_c, 14, 43, 90
18, 59895, Note_on_c, 14, 43, 0
18, 59895, Note_on_c, 14, 42, 90
18, 59910, Note_on_c, 14, 42, 0
18, 59910, Note_on_c, 14, 40, 90
18, 59925, Note_on_c, 14, 40, 0
18, 59940, Note_on_c, 14, 39, 90
18, 59955, Note_on_c, 14, 39, 0
18, 59970, Note_on_c, 14, 39, 90
18, 59985, Note_on_c, 14, 39, 0
18, 60000, Note_on_c, 14, 39, 90
18, 60015, Note_on_c, 14, 39, 0
18, 60030, Note_on_c, 14, 39, 90
18, 60045, Note_on_c, 14, 39, 0
18, 60060, Note_on_c, 14, 40, 90
18, 60089, Note_on_c, 14, 40, 0
18, 60090, Note_on_c, 14, 40, 90
18, 60119, Note_on_c, 14, 40, 0
18, 60120, Note_on_c, 14, 40, 90
18, 60149, Note_on_c, 14, 40, 0
18, 60150, Note_on_c, 14, 40, 90
18, 60179, Note_on_c, 14, 40, 0
18, 60180, Note_on_c, 14, 40, 90
18, 60209, Note_on_c, 14, 40, 0
18, 60210, Note_on_c, 14, 40, 90
18, 60239, Note_on_c, 14, 40, 0
18, 60240, Note_on_c, 14, 40, 90
18, 60269, Note_on_c, 14, 40, 0
18, 60270, Note_on_c, 14, 40, 90
18, 60299, Note_on_c, 14, 40, 0
18, 60300, Note_on_c, 14, 40, 90
18, 60329, Note_on_c, 14, 40, 0
18, 60330, Note_on_c, 14, 40, 90
18, 60359, Note_on_c, 14, 40, 0
18, 60360, Note_on_c, 14, 40, 90
18, 60389, Note_on_c, 14, 40, 0
18, 60390, Note_on_c, 14, 40, 90
18, 60419, Note_on_c, 14, 40, 0
18, 60420, Note_on_c, 14, 40, 90
18, 60449, Note_on_c, 14, 40, 0
18, 60450, Note_on_c, 14, 40, 90
18, 60479, Note_on_c, 14, 40, 0
18, 60480, Note_on_c, 14, 40, 90
18, 60509, Note_on_c, 14, 40, 0
18, 60510, Note_on_c, 14, 40, 90
18, 60539, Note_on_c, 14, 40, 0
18, 60540, Note_on_c, 14, 40, 90
18, 60569, Note_on_c, 14, 40, 0
18, 60570, Note_on_c, 14, 40, 90
18, 60599, Note_on_c, 14, 40, 0
18, 60600, Note_on_c, 14, 40, 90
18, 60629, Note_on_c, 14, 40, 0
18, 60630, Note_on_c, 14, 42, 90
18, 60659, Note_on_c, 14, 42, 0
18, 60660, Note_on_c, 14, 42, 90
18, 60689, Note_on_c, 14, 42, 0
18, 60690, Note_on_c, 14, 40, 90
18, 60719, Note_on_c, 14, 40, 0
18, 60720, Note_on_c, 14, 40, 90
18, 60749, Note_on_c, 14, 40, 0
18, 60750, Note_on_c, 14, 38, 90
18, 60779, Note_on_c, 14, 38, 0
18, 60780, Note_on_c, 14, 38, 90
18, 60809, Note_on_c, 14, 38, 0
18, 60810, Note_on_c, 14, 40, 90
18, 60839, Note_on_c, 14, 40, 0
18, 60840, Note_on_c, 14, 40, 90
18, 60869, Note_on_c, 14, 40, 0
18, 60870, Note_on_c, 14, 42, 90
18, 60899, Note_on_c, 14, 42, 0
18, 60900, Note_on_c, 14, 42, 90
18, 60929, Note_on_c, 14, 42, 0
18, 60930, Note_on_c, 14, 43, 90
18, 60959, Note_on_c, 14, 43, 0
18, 60960, Note_on_c, 14, 43, 90
18, 60989, Note_on_c, 14, 43, 0
18, 60990, Note_on_c, 14, 42, 90
18, 61019, Note_on_c, 14, 42, 0
18, 61020, Note_on_c, 14, 42, 90
18, 61049, Note_on_c, 14, 42, 0
18, 61050, Note_on_c, 14, 40, 90
18, 61079, Note_on_c, 14, 40, 0
18, 61080, Note_on_c, 14, 40, 90
18, 61109, Note_on_c, 14, 40, 0
18, 61110, Note_on_c, 14, 41, 90
18, 61139, Note_on_c, 14, 41, 0
18, 61140, Note_on_c, 14, 41, 90
18, 61199, Note_on_c, 14, 41, 0
18, 61200, Note_on_c, 14, 42, 90
18, 61259, Note_on_c, 14, 42, 0
18, 61260, Note_on_c, 14, 42, 90
18, 61319, Note_on_c, 14, 42, 0
18, 61320, Note_on_c, 14, 47, 90
18, 61349, Note_on_c, 14, 47, 0
18, 61350, Note_on_c, 14, 46, 90
18, 61379, Note_on_c, 14, 46, 0
18, 61380, Note_on_c, 14, 47, 90
18, 61409, Note_on_c, 14, 47, 0
18, 61410, Note_on_c, 14, 49, 90
18, 61439, Note_on_c, 14, 49, 0
18, 61440, Note_on_c, 14, 50, 90
18, 61469, Note_on_c, 14, 50, 0
18, 61470, Note_on_c, 14, 52, 90
18, 61499, Note_on_c, 14, 52, 0
18, 61500, Note_on_c, 14, 54, 90
18, 61529, Note_on_c, 14, 54, 0
18, 61530, Note_on_c, 14, 54, 90
18, 61559, Note_on_c, 14, 54, 0
18, 61560, Note_on_c, 14, 54, 90
18, 61589, Note_on_c, 14, 54, 0
18, 61590, Note_on_c, 14, 54, 90
18, 61619, Note_on_c, 14, 54, 0
18, 61620, Note_on_c, 14, 54, 90
18, 61649, Note_on_c, 14, 54, 0
18, 61650, Note_on_c, 14, 54, 90
18, 61679, Note_on_c, 14, 54, 0
18, 61680, Note_on_c, 14, 54, 90
18, 61709, Note_on_c, 14, 54, 0
18, 61710, Note_on_c, 14, 55, 90
18, 61739, Note_on_c, 14, 55, 0
18, 61740, Note_on_c, 14, 55, 90
18, 61769, Note_on_c, 14, 55, 0
18, 61770, Note_on_c, 14, 54, 90
18, 61799, Note_on_c, 14, 54, 0
18, 61800, Note_on_c, 14, 54, 90
18, 61829, Note_on_c, 14, 54, 0
18, 61830, Note_on_c, 14, 52, 90
18, 61859, Note_on_c, 14, 52, 0
18, 61860, Note_on_c, 14, 52, 90
18, 61889, Note_on_c, 14, 52, 0
18, 61890, Note_on_c, 14, 54, 90
18, 61919, Note_on_c, 14, 54, 0
18, 61920, Note_on_c, 14, 54, 90
18, 61949, Note_on_c, 14, 54, 0
18, 61950, Note_on_c, 14, 55, 90
18, 61979, Note_on_c, 14, 55, 0
18, 61980, Note_on_c, 14, 55, 90
18, 62009, Note_on_c, 14, 55, 0
18, 62010, Note_on_c, 14, 54, 90
18, 62039, Note_on_c, 14, 54, 0
18, 62040, Note_on_c, 14, 54, 90
18, 62069, Note_on_c, 14, 54, 0
18, 62070, Note_on_c, 14, 53, 90
18, 62099, Note_on_c, 14, 53, 0
18, 62100, Note_on_c, 14, 54, 90
18, 62129, Note_on_c, 14, 54, 0
18, 62130, Note_on_c, 14, 52, 90
18, 62159, Note_on_c, 14, 52, 0
18, 62160, Note_on_c, 14, 50, 90
18, 62189, Note_on_c, 14, 50, 0
18, 62190, Note_on_c, 14, 49, 90
18, 62219, Note_on_c, 14, 49, 0
18, 62220, Note_on_c, 14, 47, 90
18, 62279, Note_on_c, 14, 47, 0
18, 62280, Note_on_c, 14, 59, 90
18, 62339, Note_on_c, 14, 59, 0
18, 62340, Note_on_c, 14, 58, 90
18, 62399, Note_on_c, 14, 58, 0
18, 62400, Note_on_c, 14, 59, 90
18, 62459, Note_on_c, 14, 59, 0
18, 62460, Note_on_c, 14, 50, 90
18, 62519, Note_on_c, 14, 50, 0
18, 62520, Note_on_c, 14, 49, 90
18, 62579, Note_on_c, 14, 49, 0
18, 62580, Note_on_c, 14, 47, 90
18, 62639, Note_on_c, 14, 47, 0
18, 62640, Note_on_c, 14, 54, 90
18, 62699, Note_on_c, 14, 54, 0
18, 62700, Note_on_c, 14, 42, 90
18, 62759, Note_on_c, 14, 42, 0
18, 62760, Note_on_c, 14, 47, 90
18, 62775, Note_on_c, 14, 47, 0
18, 62775, Note_on_c, 14, 49, 90
18, 62790, Note_on_c, 14, 49, 0
18, 62790, Note_on_c, 14, 50, 90
18, 62805, Note_on_c, 14, 50, 0
18, 62820, Note_on_c, 14, 52, 90
18, 62835, Note_on_c, 14, 52, 0
18, 62850, Note_on_c, 14, 52, 90
18, 62865, Note_on_c, 14, 52, 0
18, 62880, Note_on_c, 14, 52, 90
18, 62895, Note_on_c, 14, 52, 0
18, 62910, Note_on_c, 14, 52, 90
18, 62925, Note_on_c, 14, 52, 0
18, 62940, Note_on_c, 14, 45, 90
18, 62955, Note_on_c, 14, 45, 0
18, 62955, Note_on_c, 14, 47, 90
18, 62970, Note_on_c, 14, 47, 0
18, 62970, Note_on_c, 14, 49, 90
18, 62985, Note_on_c, 14, 49, 0
18, 63000, Note_on_c, 14, 50, 90
18, 63015, Note_on_c, 14, 50, 0
18, 63030, Note_on_c, 14, 50, 90
18, 63045, Note_on_c, 14, 50, 0
18, 63060, Note_on_c, 14, 50, 90
18, 63075, Note_on_c, 14, 50, 0
18, 63090, Note_on_c, 14, 50, 90
18, 63105, Note_on_c, 14, 50, 0
18, 63120, Note_on_c, 14, 44, 90
18, 63135, Note_on_c, 14, 44, 0
18, 63135, Note_on_c, 14, 45, 90
18, 63150, Note_on_c, 14, 45, 0
18, 63150, Note_on_c, 14, 47, 90
18, 63165, Note_on_c, 14, 47, 0
18, 63180, Note_on_c, 14, 49, 90
18, 63195, Note_on_c, 14, 49, 0
18, 63210, Note_on_c, 14, 49, 90
18, 63225, Note_on_c, 14, 49, 0
18, 63240, Note_on_c, 14, 49, 90
18, 63255, Note_on_c, 14, 49, 0
18, 63270, Note_on_c, 14, 49, 90
18, 63285, Note_on_c, 14, 49, 0
18, 63300, Note_on_c, 14, 42, 90
18, 63359, Note_on_c, 14, 42, 0
18, 63360, Note_on_c, 14, 54, 90
18, 63419, Note_on_c, 14, 54, 0
18, 63420, Note_on_c, 14, 56, 90
18, 63479, Note_on_c, 14, 56, 0
18, 63480, Note_on_c, 14, 57, 90
18, 63539, Note_on_c, 14, 57, 0
18, 63540, Note_on_c, 14, 53, 90
18, 63599, Note_on_c, 14, 53, 0
18, 63600, Note_on_c, 14, 49, 90
18, 63659, Note_on_c, 14, 49, 0
18, 63660, Note_on_c, 14, 54, 90
18, 63675, Note_on_c, 14, 54, 0
18, 63675, Note_on_c, 14, 56, 90
18, 63690, Note_on_c, 14, 56, 0
18, 63690, Note_on_c, 14, 57, 90
18, 63705, Note_on_c, 14, 57, 0
18, 63720, Note_on_c, 14, 59, 90
18, 63735, Note_on_c, 14, 59, 0
18, 63750, Note_on_c, 14, 59, 90
18, 63765, Note_on_c, 14, 59, 0
18, 63780, Note_on_c, 14, 59, 90
18, 63795, Note_on_c, 14, 59, 0
18, 63810, Note_on_c, 14, 59, 90
18, 63825, Note_on_c, 14, 59, 0
18, 63840, Note_on_c, 14, 52, 90
18, 63855, Note_on_c, 14, 52, 0
18, 63855, Note_on_c, 14, 54, 90
18, 63870, Note_on_c, 14, 54, 0
18, 63870, Note_on_c, 14, 56, 90
18, 63885, Note_on_c, 14, 56, 0
18, 63900, Note_on_c, 14, 57, 90
18, 63915, Note_on_c, 14, 57, 0
18, 63930, Note_on_c, 14, 57, 90
18, 63945, Note_on_c, 14, 57, 0
18, 63960, Note_on_c, 14, 57, 90
18, 63975, Note_on_c, 14, 57, 0
18, 63990, Note_on_c, 14, 57, 90
18, 64005, Note_on_c, 14, 57, 0
18, 64020, Note_on_c, 14, 51, 90
18, 64035, Note_on_c, 14, 51, 0
18, 64035, Note_on_c, 14, 52, 90
18, 64050, Note_on_c, 14, 52, 0
18, 64050, Note_on_c, 14, 54, 90
18, 64065, Note_on_c, 14, 54, 0
18, 64080, Note_on_c, 14, 56, 90
18, 64095, Note_on_c, 14, 56, 0
18, 64110, Note_on_c, 14, 56, 90
18, 64125, Note_on_c, 14, 56, 0
18, 64140, Note_on_c, 14, 56, 90
18, 64155, Note_on_c, 14, 56, 0
18, 64170, Note_on_c, 14, 56, 90
18, 64185, Note_on_c, 14, 56, 0
18, 64200, Note_on_c, 14, 49, 90
18, 64259, Note_on_c, 14, 49, 0
18, 64260, Note_on_c, 14, 52, 90
18, 64319, Note_on_c, 14, 52, 0
18, 64320, Note_on_c, 14, 56, 90
18, 64379, Note_on_c, 14, 56, 0
18, 64380, Note_on_c, 14, 61, 90
18, 64439, Note_on_c, 14, 61, 0
18, 64500, Note_on_c, 14, 59, 90
18, 64559, Note_on_c, 14, 59, 0
18, 64560, Note_on_c, 14, 57, 90
18, 64619, Note_on_c, 14, 57, 0
18, 64680, Note_on_c, 14, 56, 90
18, 64739, Note_on_c, 14, 56, 0
18, 64740, Note_on_c, 14, 54, 90
18, 64754, Note_on_c, 14, 54, 0
18, 64755, Note_on_c, 14, 56, 90
18, 64769, Note_on_c, 14, 56, 0
18, 64770, Note_on_c, 14, 57, 90
18, 64799, Note_on_c, 14, 57, 0
18, 64800, Note_on_c, 14, 57, 90
18, 64815, Note_on_c, 14, 57, 0
18, 64830, Note_on_c, 14, 57, 90
18, 64845, Note_on_c, 14, 57, 0
18, 64860, Note_on_c, 14, 57, 90
18, 64875, Note_on_c, 14, 57, 0
18, 64890, Note_on_c, 14, 57, 90
18, 64905, Note_on_c, 14, 57, 0
18, 64920, Note_on_c, 14, 56, 90
18, 64949, Note_on_c, 14, 56, 0
18, 64950, Note_on_c, 14, 57, 90
18, 64979, Note_on_c, 14, 57, 0
18, 64980, Note_on_c, 14, 56, 90
18, 65009, Note_on_c, 14, 56, 0
18, 65010, Note_on_c, 14, 54, 90
18, 65039, Note_on_c, 14, 54, 0
18, 65040, Note_on_c, 14, 52, 90
18, 65069, Note_on_c, 14, 52, 0
18, 65070, Note_on_c, 14, 51, 90
18, 65099, Note_on_c, 14, 51, 0
18, 65100, Note_on_c, 14, 49, 90
18, 65159, Note_on_c, 14, 49, 0
18, 65220, Note_on_c, 14, 47, 90
18, 65279, Note_on_c, 14, 47, 0
18, 65280, Note_on_c, 14, 45, 90
18, 65339, Note_on_c, 14, 45, 0
18, 65400, Note_on_c, 14, 44, 90
18, 65459, Note_on_c, 14, 44, 0
18, 65460, Note_on_c, 14, 42, 90
18, 65474, Note_on_c, 14, 42, 0
18, 65475, Note_on_c, 14, 44, 90
18, 65489, Note_on_c, 14, 44, 0
18, 65490, Note_on_c, 14, 45, 90
18, 65505, Note_on_c, 14, 45, 0
18, 65520, Note_on_c, 14, 45, 90
18, 65535, Note_on_c, 14, 45, 0
18, 65550, Note_on_c, 14, 45, 90
18, 65565, Note_on_c, 14, 45, 0
18, 65580, Note_on_c, 14, 45, 90
18, 65595, Note_on_c, 14, 45, 0
18, 65610, Note_on_c, 14, 45, 90
18, 65625, Note_on_c, 14, 45, 0
18, 65640, Note_on_c, 14, 44, 90
18, 65699, Note_on_c, 14, 44, 0
18, 65700, Note_on_c, 14, 48, 90
18, 65759, Note_on_c, 14, 48, 0
18, 65760, Note_on_c, 14, 44, 90
18, 65819, Note_on_c, 14, 44, 0
18, 65820, Note_on_c, 14, 49, 90
18, 65879, Note_on_c, 14, 49, 0
18, 65880, Note_on_c, 14, 56, 90
18, 65939, Note_on_c, 14, 56, 0
18, 65940, Note_on_c, 14, 54, 90
18, 65999, Note_on_c, 14, 54, 0
18, 66000, Note_on_c, 14, 52, 90
18, 66059, Note_on_c, 14, 52, 0
18, 66060, Note_on_c, 14, 53, 90
18, 66119, Note_on_c, 14, 53, 0
18, 66120, Note_on_c, 14, 49, 90
18, 66179, Note_on_c, 14, 49, 0
18, 66180, Note_on_c, 14, 54, 90
18, 66239, Note_on_c, 14, 54, 0
18, 66240, Note_on_c, 14, 61, 90
18, 66299, Note_on_c, 14, 61, 0
18, 66300, Note_on_c, 14, 59, 90
18, 66359, Note_on_c, 14, 59, 0
18, 66360, Note_on_c, 14, 57, 90
18, 66375, Note_on_c, 14, 57, 0
18, 66375, Note_on_c, 14, 56, 90
18, 66390, Note_on_c, 14, 56, 0
18, 66390, Note_on_c, 14, 54, 90
18, 66405, Note_on_c, 14, 54, 0
18, 66420, Note_on_c, 14, 54, 90
18, 66435, Note_on_c, 14, 54, 0
18, 66450, Note_on_c, 14, 54, 90
18, 66465, Note_on_c, 14, 54, 0
18, 66480, Note_on_c, 14, 54, 90
18, 66495, Note_on_c, 14, 54, 0
18, 66510, Note_on_c, 14, 54, 90
18, 66525, Note_on_c, 14, 54, 0
18, 66540, Note_on_c, 14, 56, 90
18, 66555, Note_on_c, 14, 56, 0
18, 66555, Note_on_c, 14, 58, 90
18, 66570, Note_on_c, 14, 58, 0
18, 66570, Note_on_c, 14, 60, 90
18, 66585, Note_on_c, 14, 60, 0
18, 66600, Note_on_c, 14, 60, 90
18, 66615, Note_on_c, 14, 60, 0
18, 66630, Note_on_c, 14, 60, 90
18, 66645, Note_on_c, 14, 60, 0
18, 66660, Note_on_c, 14, 60, 90
18, 66675, Note_on_c, 14, 60, 0
18, 66690, Note_on_c, 14, 60, 90
18, 66705, Note_on_c, 14, 60, 0
18, 66720, Note_on_c, 14, 61, 90
18, 66779, Note_on_c, 14, 61, 0
18, 66780, Note_on_c, 14, 57, 90
18, 66839, Note_on_c, 14, 57, 0
18, 66840, Note_on_c, 14, 52, 90
18, 66899, Note_on_c, 14, 52, 0
18, 66900, Note_on_c, 14, 54, 90
18, 66959, Note_on_c, 14, 54, 0
18, 66960, Note_on_c, 14, 56, 90
18, 67019, Note_on_c, 14, 56, 0
18, 67020, Note_on_c, 14, 44, 90
18, 67079, Note_on_c, 14, 44, 0
18, 67080, Note_on_c, 14, 49, 90
18, 67199, Note_on_c, 14, 49, 0
18, 67260, Note_on_c, 14, 57, 90
18, 67319, Note_on_c, 14, 57, 0
18, 67320, Note_on_c, 14, 61, 90
18, 67379, Note_on_c, 14, 61, 0
18, 67380, Note_on_c, 14, 59, 90
18, 67439, Note_on_c, 14, 59, 0
18, 67440, Note_on_c, 14, 57, 90
18, 67499, Note_on_c, 14, 57, 0
18, 67500, Note_on_c, 14, 52, 90
18, 67529, Note_on_c, 14, 52, 0
18, 67530, Note_on_c, 14, 54, 90
18, 67559, Note_on_c, 14, 54, 0
18, 67560, Note_on_c, 14, 56, 90
18, 67589, Note_on_c, 14, 56, 0
18, 67590, Note_on_c, 14, 52, 90
18, 67619, Note_on_c, 14, 52, 0
18, 67620, Note_on_c, 14, 57, 90
18, 67679, Note_on_c, 14, 57, 0
18, 67680, Note_on_c, 14, 49, 90
18, 67739, Note_on_c, 14, 49, 0
18, 67740, Note_on_c, 14, 52, 90
18, 67799, Note_on_c, 14, 52, 0
18, 67800, Note_on_c, 14, 45, 90
18, 67859, Note_on_c, 14, 45, 0
18, 67860, Note_on_c, 14, 52, 90
18, 67889, Note_on_c, 14, 52, 0
18, 67890, Note_on_c, 14, 54, 90
18, 67919, Note_on_c, 14, 54, 0
18, 67920, Note_on_c, 14, 56, 90
18, 67949, Note_on_c, 14, 56, 0
18, 67950, Note_on_c, 14, 52, 90
18, 67979, Note_on_c, 14, 52, 0
18, 67980, Note_on_c, 14, 57, 90
18, 68039, Note_on_c, 14, 57, 0
18, 68040, Note_on_c, 14, 45, 90
18, 68099, Note_on_c, 14, 45, 0
18, 68100, Note_on_c, 14, 44, 90
18, 68159, Note_on_c, 14, 44, 0
18, 68160, Note_on_c, 14, 42, 90
18, 68219, Note_on_c, 14, 42, 0
18, 68220, Note_on_c, 14, 54, 90
18, 68249, Note_on_c, 14, 54, 0
18, 68250, Note_on_c, 14, 56, 90
18, 68279, Note_on_c, 14, 56, 0
18, 68280, Note_on_c, 14, 57, 90
18, 68309, Note_on_c, 14, 57, 0
18, 68310, Note_on_c, 14, 54, 90
18, 68339, Note_on_c, 14, 54, 0
18, 68340, Note_on_c, 14, 56, 90
18, 68399, Note_on_c, 14, 56, 0
18, 68400, Note_on_c, 14, 44, 90
18, 68459, Note_on_c, 14, 44, 0
18, 68460, Note_on_c, 14, 42, 90
18, 68519, Note_on_c, 14, 42, 0
18, 68520, Note_on_c, 14, 40, 90
18, 68579, Note_on_c, 14, 40, 0
18, 68580, Note_on_c, 14, 52, 90
18, 68609, Note_on_c, 14, 52, 0
18, 68610, Note_on_c, 14, 54, 90
18, 68639, Note_on_c, 14, 54, 0
18, 68640, Note_on_c, 14, 56, 90
18, 68669, Note_on_c, 14, 56, 0
18, 68670, Note_on_c, 14, 52, 90
18, 68699, Note_on_c, 14, 52, 0
18, 68700, Note_on_c, 14, 59, 90
18, 68729, Note_on_c, 14, 59, 0
18, 68730, Note_on_c, 14, 47, 90
18, 68759, Note_on_c, 14, 47, 0
18, 68760, Note_on_c, 14, 47, 90
18, 68789, Note_on_c, 14, 47, 0
18, 68790, Note_on_c, 14, 47, 90
18, 68819, Note_on_c, 14, 47, 0
18, 68820, Note_on_c, 14, 47, 90
18, 68849, Note_on_c, 14, 47, 0
18, 68850, Note_on_c, 14, 47, 90
18, 68879, Note_on_c, 14, 47, 0
18, 68880, Note_on_c, 14, 47, 90
18, 68909, Note_on_c, 14, 47, 0
18, 68910, Note_on_c, 14, 49, 90
18, 68939, Note_on_c, 14, 49, 0
18, 68940, Note_on_c, 14, 49, 90
18, 68969, Note_on_c, 14, 49, 0
18, 68970, Note_on_c, 14, 47, 90
18, 68999, Note_on_c, 14, 47, 0
18, 69000, Note_on_c, 14, 47, 90
18, 69029, Note_on_c, 14, 47, 0
18, 69030, Note_on_c, 14, 45, 90
18, 69059, Note_on_c, 14, 45, 0
18, 69060, Note_on_c, 14, 45, 90
18, 69089, Note_on_c, 14, 45, 0
18, 69090, Note_on_c, 14, 47, 90
18, 69119, Note_on_c, 14, 47, 0
18, 69120, Note_on_c, 14, 47, 90
18, 69149, Note_on_c, 14, 47, 0
18, 69150, Note_on_c, 14, 49, 90
18, 69179, Note_on_c, 14, 49, 0
18, 69180, Note_on_c, 14, 49, 90
18, 69209, Note_on_c, 14, 49, 0
18, 69210, Note_on_c, 14, 47, 90
18, 69239, Note_on_c, 14, 47, 0
18, 69240, Note_on_c, 14, 47, 90
18, 69269, Note_on_c, 14, 47, 0
18, 69270, Note_on_c, 14, 46, 90
18, 69299, Note_on_c, 14, 46, 0
18, 69300, Note_on_c, 14, 47, 90
18, 69329, Note_on_c, 14, 47, 0
18, 69330, Note_on_c, 14, 45, 90
18, 69359, Note_on_c, 14, 45, 0
18, 69360, Note_on_c, 14, 44, 90
18, 69389, Note_on_c, 14, 44, 0
18, 69390, Note_on_c, 14, 42, 90
18, 69419, Note_on_c, 14, 42, 0
18, 69420, Note_on_c, 14, 40, 90
18, 69479, Note_on_c, 14, 40, 0
18, 69480, Note_on_c, 14, 52, 90
18, 69539, Note_on_c, 14, 52, 0
18, 69540, Note_on_c, 14, 51, 90
18, 69599, Note_on_c, 14, 51, 0
18, 69600, Note_on_c, 14, 49, 90
18, 69659, Note_on_c, 14, 49, 0
18, 69660, Note_on_c, 14, 51, 90
18, 69689, Note_on_c, 14, 51, 0
18, 69690, Note_on_c, 14, 49, 90
18, 69719, Note_on_c, 14, 49, 0
18, 69720, Note_on_c, 14, 51, 90
18, 69749, Note_on_c, 14, 51, 0
18, 69750, Note_on_c, 14, 47, 90
18, 69779, Note_on_c, 14, 47, 0
18, 69780, Note_on_c, 14, 52, 90
18, 69839, Note_on_c, 14, 52, 0
18, 69840, Note_on_c, 14, 59, 90
18, 69899, Note_on_c, 14, 59, 0
18, 69900, Note_on_c, 14, 47, 90
18, 69959, Note_on_c, 14, 47, 0
18, 69960, Note_on_c, 14, 40, 90
18, 70019, Note_on_c, 14, 40, 0
18, 70020, Note_on_c, 14, 52, 90
18, 70049, Note_on_c, 14, 52, 0
18, 70050, Note_on_c, 14, 54, 90
18, 70079, Note_on_c, 14, 54, 0
18, 70080, Note_on_c, 14, 56, 90
18, 70109, Note_on_c, 14, 56, 0
18, 70110, Note_on_c, 14, 52, 90
18, 70139, Note_on_c, 14, 52, 0
18, 70140, Note_on_c, 14, 57, 90
18, 70199, Note_on_c, 14, 57, 0
18, 70200, Note_on_c, 14, 61, 90
18, 70259, Note_on_c, 14, 61, 0
18, 70260, Note_on_c, 14, 59, 90
18, 70319, Note_on_c, 14, 59, 0
18, 70320, Note_on_c, 14, 57, 90
18, 70379, Note_on_c, 14, 57, 0
18, 70380, Note_on_c, 14, 56, 90
18, 70439, Note_on_c, 14, 56, 0
18, 70500, Note_on_c, 14, 57, 90
18, 70559, Note_on_c, 14, 57, 0
18, 70560, Note_on_c, 14, 49, 90
18, 70619, Note_on_c, 14, 49, 0
18, 70620, Note_on_c, 14, 52, 90
18, 70679, Note_on_c, 14, 52, 0
18, 70680, Note_on_c, 14, 45, 90
18, 70739, Note_on_c, 14, 45, 0
18, 70740, Note_on_c, 14, 40, 90
18, 70799, Note_on_c, 14, 40, 0
18, 70860, Note_on_c, 14, 45, 90
18, 70919, Note_on_c, 14, 45, 0
18, 70920, Note_on_c, 14, 49, 90
18, 70979, Note_on_c, 14, 49, 0
18, 70980, Note_on_c, 14, 54, 90
18, 71039, Note_on_c, 14, 54, 0
18, 71040, Note_on_c, 14, 52, 90
18, 71099, Note_on_c, 14, 52, 0
18, 71100, Note_on_c, 14, 50, 90
18, 71159, Note_on_c, 14, 50, 0
18, 71160, Note_on_c, 14, 49, 90
18, 71219, Note_on_c, 14, 49, 0
18, 71220, Note_on_c, 14, 47, 90
18, 71279, Note_on_c, 14, 47, 0
18, 71280, Note_on_c, 14, 54, 90
18, 71309, Note_on_c, 14, 54, 0
18, 71310, Note_on_c, 14, 56, 90
18, 71339, Note_on_c, 14, 56, 0
18, 71340, Note_on_c, 14, 58, 90
18, 71369, Note_on_c, 14, 58, 0
18, 71370, Note_on_c, 14, 54, 90
18, 71399, Note_on_c, 14, 54, 0
18, 71400, Note_on_c, 14, 59, 90
18, 71459, Note_on_c, 14, 59, 0
18, 71460, Note_on_c, 14, 61, 90
18, 71519, Note_on_c, 14, 61, 0
18, 71520, Note_on_c, 14, 62, 90
18, 71579, Note_on_c, 14, 62, 0
18, 71580, Note_on_c, 14, 52, 90
18, 71639, Note_on_c, 14, 52, 0
18, 71640, Note_on_c, 14, 64, 90
18, 71699, Note_on_c, 14, 64, 0
18, 71700, Note_on_c, 14, 62, 90
18, 71759, Note_on_c, 14, 62, 0
18, 71760, Note_on_c, 14, 61, 90
18, 71819, Note_on_c, 14, 61, 0
18, 71820, Note_on_c, 14, 56, 90
18, 71849, Note_on_c, 14, 56, 0
18, 71850, Note_on_c, 14, 57, 90
18, 71879, Note_on_c, 14, 57, 0
18, 71880, Note_on_c, 14, 59, 90
18, 71909, Note_on_c, 14, 59, 0
18, 71910, Note_on_c, 14, 56, 90
18, 71939, Note_on_c, 14, 56, 0
18, 71940, Note_on_c, 14, 57, 90
18, 71999, Note_on_c, 14, 57, 0
18, 72000, Note_on_c, 14, 49, 90
18, 72059, Note_on_c, 14, 49, 0
18, 72060, Note_on_c, 14, 47, 90
18, 72119, Note_on_c, 14, 47, 0
18, 72120, Note_on_c, 14, 45, 90
18, 72179, Note_on_c, 14, 45, 0
18, 72180, Note_on_c, 14, 44, 90
18, 72209, Note_on_c, 14, 44, 0
18, 72210, Note_on_c, 14, 45, 90
18, 72239, Note_on_c, 14, 45, 0
18, 72240, Note_on_c, 14, 47, 90
18, 72269, Note_on_c, 14, 47, 0
18, 72270, Note_on_c, 14, 44, 90
18, 72299, Note_on_c, 14, 44, 0
18, 72300, Note_on_c, 14, 45, 90
18, 72329, Note_on_c, 14, 45, 0
18, 72330, Note_on_c, 14, 40, 90
18, 72359, Note_on_c, 14, 40, 0
18, 72360, Note_on_c, 14, 40, 90
18, 72389, Note_on_c, 14, 40, 0
18, 72390, Note_on_c, 14, 40, 90
18, 72419, Note_on_c, 14, 40, 0
18, 72420, Note_on_c, 14, 40, 90
18, 72449, Note_on_c, 14, 40, 0
18, 72450, Note_on_c, 14, 40, 90
18, 72479, Note_on_c, 14, 40, 0
18, 72480, Note_on_c, 14, 40, 90
18, 72539, Note_on_c, 14, 40, 0
18, 72540, Note_on_c, 14, 52, 90
18, 72569, Note_on_c, 14, 52, 0
18, 72570, Note_on_c, 14, 54, 90
18, 72599, Note_on_c, 14, 54, 0
18, 72600, Note_on_c, 14, 56, 90
18, 72629, Note_on_c, 14, 56, 0
18, 72630, Note_on_c, 14, 52, 90
18, 72659, Note_on_c, 14, 52, 0
18, 72660, Note_on_c, 14, 57, 90
18, 72719, Note_on_c, 14, 57, 0
18, 72720, Note_on_c, 14, 54, 90
18, 72779, Note_on_c, 14, 54, 0
18, 72780, Note_on_c, 14, 49, 90
18, 72839, Note_on_c, 14, 49, 0
18, 72840, Note_on_c, 14, 42, 90
18, 72899, Note_on_c, 14, 42, 0
18, 72900, Note_on_c, 14, 54, 90
18, 72929, Note_on_c, 14, 54, 0
18, 72930, Note_on_c, 14, 56, 90
18, 72959, Note_on_c, 14, 56, 0
18, 72960, Note_on_c, 14, 57, 90
18, 72989, Note_on_c, 14, 57, 0
18, 72990, Note_on_c, 14, 54, 90
18, 73019, Note_on_c, 14, 54, 0
18, 73020, Note_on_c, 14, 56, 90
18, 73079, Note_on_c, 14, 56, 0
18, 73080, Note_on_c, 14, 52, 90
18, 73139, Note_on_c, 14, 52, 0
18, 73140, Note_on_c, 14, 47, 90
18, 73199, Note_on_c, 14, 47, 0
18, 73200, Note_on_c, 14, 40, 90
18, 73259, Note_on_c, 14, 40, 0
18, 73260, Note_on_c, 14, 52, 90
18, 73289, Note_on_c, 14, 52, 0
18, 73290, Note_on_c, 14, 54, 90
18, 73319, Note_on_c, 14, 54, 0
18, 73320, Note_on_c, 14, 56, 90
18, 73349, Note_on_c, 14, 56, 0
18, 73350, Note_on_c, 14, 52, 90
18, 73379, Note_on_c, 14, 52, 0
18, 73380, Note_on_c, 14, 59, 90
18, 73409, Note_on_c, 14, 59, 0
18, 73410, Note_on_c, 14, 47, 90
18, 73439, Note_on_c, 14, 47, 0
18, 73440, Note_on_c, 14, 47, 90
18, 73469, Note_on_c, 14, 47, 0
18, 73470, Note_on_c, 14, 47, 90
18, 73499, Note_on_c, 14, 47, 0
18, 73500, Note_on_c, 14, 47, 90
18, 73529, Note_on_c, 14, 47, 0
18, 73530, Note_on_c, 14, 47, 90
18, 73559, Note_on_c, 14, 47, 0
18, 73560, Note_on_c, 14, 47, 90
18, 73589, Note_on_c, 14, 47, 0
18, 73590, Note_on_c, 14, 49, 90
18, 73619, Note_on_c, 14, 49, 0
18, 73620, Note_on_c, 14, 49, 90
18, 73649, Note_on_c, 14, 49, 0
18, 73650, Note_on_c, 14, 47, 90
18, 73679, Note_on_c, 14, 47, 0
18, 73680, Note_on_c, 14, 47, 90
18, 73709, Note_on_c, 14, 47, 0
18, 73710, Note_on_c, 14, 45, 90
18, 73739, Note_on_c, 14, 45, 0
18, 73740, Note_on_c, 14, 45, 90
18, 73769, Note_on_c, 14, 45, 0
18, 73770, Note_on_c, 14, 47, 90
18, 73799, Note_on_c, 14, 47, 0
18, 73800, Note_on_c, 14, 47, 90
18, 73829, Note_on_c, 14, 47, 0
18, 73830, Note_on_c, 14, 49, 90
18, 73859, Note_on_c, 14, 49, 0
18, 73860, Note_on_c, 14, 49, 90
18, 73889, Note_on_c, 14, 49, 0
18, 73890, Note_on_c, 14, 47, 90
18, 73919, Note_on_c, 14, 47, 0
18, 73920, Note_on_c, 14, 47, 90
18, 73949, Note_on_c, 14, 47, 0
18, 73950, Note_on_c, 14, 46, 90
18, 73979, Note_on_c, 14, 46, 0
18, 73980, Note_on_c, 14, 47, 90
18, 74009, Note_on_c, 14, 47, 0
18, 74010, Note_on_c, 14, 45, 90
18, 74039, Note_on_c, 14, 45, 0
18, 74040, Note_on_c, 14, 44, 90
18, 74069, Note_on_c, 14, 44, 0
18, 74070, Note_on_c, 14, 42, 90
18, 74099, Note_on_c, 14, 42, 0
18, 74100, Note_on_c, 14, 40, 90
18, 74159, Note_on_c, 14, 40, 0
18, 74160, Note_on_c, 14, 52, 90
18, 74219, Note_on_c, 14, 52, 0
18, 74220, Note_on_c, 14, 51, 90
18, 74279, Note_on_c, 14, 51, 0
18, 74280, Note_on_c, 14, 49, 90
18, 74339, Note_on_c, 14, 49, 0
18, 74340, Note_on_c, 14, 51, 90
18, 74369, Note_on_c, 14, 51, 0
18, 74370, Note_on_c, 14, 47, 90
18, 74399, Note_on_c, 14, 47, 0
18, 74400, Note_on_c, 14, 49, 90
18, 74429, Note_on_c, 14, 49, 0
18, 74430, Note_on_c, 14, 51, 90
18, 74459, Note_on_c, 14, 51, 0
18, 74460, Note_on_c, 14, 52, 90
18, 74519, Note_on_c, 14, 52, 0
18, 74520, Note_on_c, 14, 59, 90
18, 74579, Note_on_c, 14, 59, 0
18, 74580, Note_on_c, 14, 47, 90
18, 74639, Note_on_c, 14, 47, 0
18, 74640, Note_on_c, 14, 40, 90
18, 74699, Note_on_c, 14, 40, 0
18, 74700, Note_on_c, 14, 44, 90
18, 74759, Note_on_c, 14, 44, 0
18, 74760, Note_on_c, 14, 47, 90
18, 74819, Note_on_c, 14, 47, 0
18, 74820, Note_on_c, 14, 52, 90
18, 74879, Note_on_c, 14, 52, 0
18, 74880, Note_on_c, 14, 51, 90
18, 74939, Note_on_c, 14, 51, 0
18, 74940, Note_on_c, 14, 53, 90
18, 74999, Note_on_c, 14, 53, 0
18, 75000, Note_on_c, 14, 54, 90
18, 75029, Note_on_c, 14, 54, 0
18, 75030, Note_on_c, 14, 42, 90
18, 75059, Note_on_c, 14, 42, 0
18, 75060, Note_on_c, 14, 42, 90
18, 75089, Note_on_c, 14, 42, 0
18, 75090, Note_on_c, 14, 44, 90
18, 75119, Note_on_c, 14, 44, 0
18, 75120, Note_on_c, 14, 44, 90
18, 75149, Note_on_c, 14, 44, 0
18, 75150, Note_on_c, 14, 45, 90
18, 75179, Note_on_c, 14, 45, 0
18, 75180, Note_on_c, 14, 45, 90
18, 75239, Note_on_c, 14, 45, 0
18, 75240, Note_on_c, 14, 44, 90
18, 75299, Note_on_c, 14, 44, 0
18, 75300, Note_on_c, 14, 46, 90
18, 75359, Note_on_c, 14, 46, 0
18, 75360, Note_on_c, 14, 47, 90
18, 75389, Note_on_c, 14, 47, 0
18, 75390, Note_on_c, 14, 59, 90
18, 75419, Note_on_c, 14, 59, 0
18, 75420, Note_on_c, 14, 59, 90
18, 75449, Note_on_c, 14, 59, 0
18, 75450, Note_on_c, 14, 57, 90
18, 75479, Note_on_c, 14, 57, 0
18, 75480, Note_on_c, 14, 57, 90
18, 75509, Note_on_c, 14, 57, 0
18, 75510, Note_on_c, 14, 56, 90
18, 75539, Note_on_c, 14, 56, 0
18, 75540, Note_on_c, 14, 57, 90
18, 75599, Note_on_c, 14, 57, 0
18, 75600, Note_on_c, 14, 45, 90
18, 75659, Note_on_c, 14, 45, 0
18, 75660, Note_on_c, 14, 44, 90
18, 75719, Note_on_c, 14, 44, 0
18, 75720, Note_on_c, 14, 42, 90
18, 75779, Note_on_c, 14, 42, 0
18, 75780, Note_on_c, 14, 54, 90
18, 75809, Note_on_c, 14, 54, 0
18, 75810, Note_on_c, 14, 56, 90
18, 75839, Note_on_c, 14, 56, 0
18, 75840, Note_on_c, 14, 57, 90
18, 75869, Note_on_c, 14, 57, 0
18, 75870, Note_on_c, 14, 54, 90
18, 75899, Note_on_c, 14, 54, 0
18, 75900, Note_on_c, 14, 56, 90
18, 75959, Note_on_c, 14, 56, 0
18, 75960, Note_on_c, 14, 44, 90
18, 76019, Note_on_c, 14, 44, 0
18, 76020, Note_on_c, 14, 42, 90
18, 76079, Note_on_c, 14, 42, 0
18, 76080, Note_on_c, 14, 40, 90
18, 76139, Note_on_c, 14, 40, 0
18, 76140, Note_on_c, 14, 52, 90
18, 76169, Note_on_c, 14, 52, 0
18, 76170, Note_on_c, 14, 54, 90
18, 76199, Note_on_c, 14, 54, 0
18, 76200, Note_on_c, 14, 56, 90
18, 76229, Note_on_c, 14, 56, 0
18, 76230, Note_on_c, 14, 52, 90
18, 76259, Note_on_c, 14, 52, 0
18, 76260, Note_on_c, 14, 59, 90
18, 76289, Note_on_c, 14, 59, 0
18, 76290, Note_on_c, 14, 47, 90
18, 76319, Note_on_c, 14, 47, 0
18, 76320, Note_on_c, 14, 47, 90
18, 76349, Note_on_c, 14, 47, 0
18, 76350, Note_on_c, 14, 47, 90
18, 76379, Note_on_c, 14, 47, 0
18, 76380, Note_on_c, 14, 47, 90
18, 76409, Note_on_c, 14, 47, 0
18, 76410, Note_on_c, 14, 47, 90
18, 76439, Note_on_c, 14, 47, 0
18, 76440, Note_on_c, 14, 47, 90
18, 76469, Note_on_c, 14, 47, 0
18, 76470, Note_on_c, 14, 49, 90
18, 76499, Note_on_c, 14, 49, 0
18, 76500, Note_on_c, 14, 49, 90
18, 76529, Note_on_c, 14, 49, 0
18, 76530, Note_on_c, 14, 47, 90
18, 76559, Note_on_c, 14, 47, 0
18, 76560, Note_on_c, 14, 47, 90
18, 76589, Note_on_c, 14, 47, 0
18, 76590, Note_on_c, 14, 45, 90
18, 76619, Note_on_c, 14, 45, 0
18, 76620, Note_on_c, 14, 45, 90
18, 76649, Note_on_c, 14, 45, 0
18, 76650, Note_on_c, 14, 47, 90
18, 76679, Note_on_c, 14, 47, 0
18, 76680, Note_on_c, 14, 47, 90
18, 76709, Note_on_c, 14, 47, 0
18, 76710, Note_on_c, 14, 49, 90
18, 76739, Note_on_c, 14, 49, 0
18, 76740, Note_on_c, 14, 49, 90
18, 76769, Note_on_c, 14, 49, 0
18, 76770, Note_on_c, 14, 47, 90
18, 76799, Note_on_c, 14, 47, 0
18, 76800, Note_on_c, 14, 47, 90
18, 76829, Note_on_c, 14, 47, 0
18, 76830, Note_on_c, 14, 46, 90
18, 76859, Note_on_c, 14, 46, 0
18, 76860, Note_on_c, 14, 47, 90
18, 76889, Note_on_c, 14, 47, 0
18, 76890, Note_on_c, 14, 45, 90
18, 76919, Note_on_c, 14, 45, 0
18, 76920, Note_on_c, 14, 44, 90
18, 76949, Note_on_c, 14, 44, 0
18, 76950, Note_on_c, 14, 42, 90
18, 76979, Note_on_c, 14, 42, 0
18, 76980, Note_on_c, 14, 40, 90
18, 77039, Note_on_c, 14, 40, 0
18, 77040, Note_on_c, 14, 52, 90
18, 77099, Note_on_c, 14, 52, 0
18, 77100, Note_on_c, 14, 51, 90
18, 77159, Note_on_c, 14, 51, 0
18, 77160, Note_on_c, 14, 49, 90
18, 77219, Note_on_c, 14, 49, 0
18, 77220, Note_on_c, 14, 51, 90
18, 77249, Note_on_c, 14, 51, 0
18, 77250, Note_on_c, 14, 49, 90
18, 77279, Note_on_c, 14, 49, 0
18, 77280, Note_on_c, 14, 51, 90
18, 77309, Note_on_c, 14, 51, 0
18, 77310, Note_on_c, 14, 47, 90
18, 77339, Note_on_c, 14, 47, 0
18, 77340, Note_on_c, 14, 52, 90
18, 77399, Note_on_c, 14, 52, 0
18, 77400, Note_on_c, 14, 59, 90
18, 77459, Note_on_c, 14, 59, 0
18, 77460, Note_on_c, 14, 47, 90
18, 77519, Note_on_c, 14, 47, 0
18, 77520, Note_on_c, 14, 52, 90
18, 77549, Note_on_c, 14, 52, 0
18, 77550, Note_on_c, 14, 40, 90
18, 77579, Note_on_c, 14, 40, 0
18, 77580, Note_on_c, 14, 40, 90
18, 77609, Note_on_c, 14, 40, 0
18, 77610, Note_on_c, 14, 40, 90
18, 77639, Note_on_c, 14, 40, 0
18, 77640, Note_on_c, 14, 40, 90
18, 77669, Note_on_c, 14, 40, 0
18, 77670, Note_on_c, 14, 40, 90
18, 77699, Note_on_c, 14, 40, 0
18, 77700, Note_on_c, 14, 40, 90
18, 77759, Note_on_c, 14, 40, 0
18, 77760, Note_on_c, 14, 52, 90
18, 77789, Note_on_c, 14, 52, 0
18, 77790, Note_on_c, 14, 54, 90
18, 77819, Note_on_c, 14, 54, 0
18, 77820, Note_on_c, 14, 56, 90
18, 77849, Note_on_c, 14, 56, 0
18, 77850, Note_on_c, 14, 52, 90
18, 77879, Note_on_c, 14, 52, 0
18, 77880, Note_on_c, 14, 57, 90
18, 77909, Note_on_c, 14, 57, 0
18, 77910, Note_on_c, 14, 45, 90
18, 77939, Note_on_c, 14, 45, 0
18, 77940, Note_on_c, 14, 45, 90
18, 77969, Note_on_c, 14, 45, 0
18, 77970, Note_on_c, 14, 45, 90
18, 77999, Note_on_c, 14, 45, 0
18, 78000, Note_on_c, 14, 45, 90
18, 78029, Note_on_c, 14, 45, 0
18, 78030, Note_on_c, 14, 45, 90
18, 78059, Note_on_c, 14, 45, 0
18, 78060, Note_on_c, 14, 45, 90
18, 78119, Note_on_c, 14, 45, 0
18, 78120, Note_on_c, 14, 56, 90
18, 78149, Note_on_c, 14, 56, 0
18, 78150, Note_on_c, 14, 57, 90
18, 78179, Note_on_c, 14, 57, 0
18, 78180, Note_on_c, 14, 59, 90
18, 78209, Note_on_c, 14, 59, 0
18, 78210, Note_on_c, 14, 56, 90
18, 78239, Note_on_c, 14, 56, 0
18, 78240, Note_on_c, 14, 62, 90
18, 78299, Note_on_c, 14, 62, 0
18, 78300, Note_on_c, 14, 50, 90
18, 78359, Note_on_c, 14, 50, 0
18, 78360, Note_on_c, 14, 46, 90
18, 78419, Note_on_c, 14, 46, 0
18, 78420, Note_on_c, 14, 47, 90
18, 78479, Note_on_c, 14, 47, 0
18, 78480, Note_on_c, 14, 45, 90
18, 78539, Note_on_c, 14, 45, 0
18, 78540, Note_on_c, 14, 44, 90
18, 78599, Note_on_c, 14, 44, 0
18, 78600, Note_on_c, 14, 45, 90
18, 78659, Note_on_c, 14, 45, 0
18, 78660, Note_on_c, 14, 49, 90
18, 78719, Note_on_c, 14, 49, 0
18, 78720, Note_on_c, 14, 52, 90
18, 78779, Note_on_c, 14, 52, 0
18, 78780, Note_on_c, 14, 57, 90
18, 78839, Note_on_c, 14, 57, 0
18, 78840, Note_on_c, 14, 54, 90
18, 78899, Note_on_c, 14, 54, 0
18, 78900, Note_on_c, 14, 50, 90
18, 78959, Note_on_c, 14, 50, 0
18, 78960, Note_on_c, 14, 51, 90
18, 78989, Note_on_c, 14, 51, 0
18, 78990, Note_on_c, 14, 39, 90
18, 79019, Note_on_c, 14, 39, 0
18, 79020, Note_on_c, 14, 39, 90
18, 79049, Note_on_c, 14, 39, 0
18, 79050, Note_on_c, 14, 39, 90
18, 79079, Note_on_c, 14, 39, 0
18, 79080, Note_on_c, 14, 39, 90
18, 79109, Note_on_c, 14, 39, 0
18, 79110, Note_on_c, 14, 39, 90
18, 79139, Note_on_c, 14, 39, 0
18, 79140, Note_on_c, 14, 40, 90
18, 79198, Note_on_c, 14, 40, 0
18, 79200, Note_on_c, 14, 44, 90
18, 79258, Note_on_c, 14, 44, 0
18, 79260, Note_on_c, 14, 40, 90
18, 79318, Note_on_c, 14, 40, 0
18, 79320, Note_on_c, 14, 45, 90
18, 79378, Note_on_c, 14, 45, 0
18, 79380, Note_on_c, 14, 49, 90
18, 79438, Note_on_c, 14, 49, 0
18, 79440, Note_on_c, 14, 54, 90
18, 79498, Note_on_c, 14, 54, 0
18, 79500, Note_on_c, 14, 52, 90
18, 79558, Note_on_c, 14, 52, 0
18, 79560, Note_on_c, 14, 50, 90
18, 79618, Note_on_c, 14, 50, 0
18, 79620, Note_on_c, 14, 49, 90
18, 79678, Note_on_c, 14, 49, 0
18, 79680, Note_on_c, 14, 47, 90
18, 79738, Note_on_c, 14, 47, 0
18, 79740, Note_on_c, 14, 42, 90
18, 79769, Note_on_c, 14, 42, 0
18, 79770, Note_on_c, 14, 44, 90
18, 79799, Note_on_c, 14, 44, 0
18, 79800, Note_on_c, 14, 46, 90
18, 79829, Note_on_c, 14, 46, 0
18, 79830, Note_on_c, 14, 42, 90
18, 79859, Note_on_c, 14, 42, 0
18, 79860, Note_on_c, 14, 47, 90
18, 79919, Note_on_c, 14, 47, 0
18, 79920, Note_on_c, 14, 49, 90
18, 79979, Note_on_c, 14, 49, 0
18, 79980, Note_on_c, 14, 50, 90
18, 80039, Note_on_c, 14, 50, 0
18, 80040, Note_on_c, 14, 40, 90
18, 80099, Note_on_c, 14, 40, 0
18, 80100, Note_on_c, 14, 52, 90
18, 80159, Note_on_c, 14, 52, 0
18, 80160, Note_on_c, 14, 50, 90
18, 80219, Note_on_c, 14, 50, 0
18, 80220, Note_on_c, 14, 49, 90
18, 80279, Note_on_c, 14, 49, 0
18, 80280, Note_on_c, 14, 44, 90
18, 80309, Note_on_c, 14, 44, 0
18, 80310, Note_on_c, 14, 45, 90
18, 80339, Note_on_c, 14, 45, 0
18, 80340, Note_on_c, 14, 47, 90
18, 80369, Note_on_c, 14, 47, 0
18, 80370, Note_on_c, 14, 44, 90
18, 80399, Note_on_c, 14, 44, 0
18, 80400, Note_on_c, 14, 45, 90
18, 80459, Note_on_c, 14, 45, 0
18, 80460, Note_on_c, 14, 49, 90
18, 80519, Note_on_c, 14, 49, 0
18, 80520, Note_on_c, 14, 47, 90
18, 80579, Note_on_c, 14, 47, 0
18, 80580, Note_on_c, 14, 45, 90
18, 80639, Note_on_c, 14, 45, 0
18, 80640, Note_on_c, 14, 44, 90
18, 80669, Note_on_c, 14, 44, 0
18, 80670, Note_on_c, 14, 45, 90
18, 80699, Note_on_c, 14, 45, 0
18, 80700, Note_on_c, 14, 47, 90
18, 80729, Note_on_c, 14, 47, 0
18, 80730, Note_on_c, 14, 44, 90
18, 80759, Note_on_c, 14, 44, 0
18, 80760, Note_on_c, 14, 45, 90
18, 80789, Note_on_c, 14, 45, 0
18, 80790, Note_on_c, 14, 40, 90
18, 80819, Note_on_c, 14, 40, 0
18, 80820, Note_on_c, 14, 40, 90
18, 80849, Note_on_c, 14, 40, 0
18, 80850, Note_on_c, 14, 40, 90
18, 80879, Note_on_c, 14, 40, 0
18, 80880, Note_on_c, 14, 40, 90
18, 80909, Note_on_c, 14, 40, 0
18, 80910, Note_on_c, 14, 40, 90
18, 80939, Note_on_c, 14, 40, 0
18, 80940, Note_on_c, 14, 40, 90
18, 80999, Note_on_c, 14, 40, 0
18, 81000, Note_on_c, 14, 52, 90
18, 81029, Note_on_c, 14, 52, 0
18, 81030, Note_on_c, 14, 54, 90
18, 81059, Note_on_c, 14, 54, 0
18, 81060, Note_on_c, 14, 56, 90
18, 81089, Note_on_c, 14, 56, 0
18, 81090, Note_on_c, 14, 52, 90
18, 81119, Note_on_c, 14, 52, 0
18, 81120, Note_on_c, 14, 57, 90
18, 81179, Note_on_c, 14, 57, 0
18, 81180, Note_on_c, 14, 45, 90
18, 81239, Note_on_c, 14, 45, 0
18, 81240, Note_on_c, 14, 44, 90
18, 81299, Note_on_c, 14, 44, 0
18, 81300, Note_on_c, 14, 42, 90
18, 81359, Note_on_c, 14, 42, 0
18, 81360, Note_on_c, 14, 54, 90
18, 81419, Note_on_c, 14, 54, 0
18, 81420, Note_on_c, 14, 49, 90
18, 81479, Note_on_c, 14, 49, 0
18, 81480, Note_on_c, 14, 50, 90
18, 81539, Note_on_c, 14, 50, 0
18, 81540, Note_on_c, 14, 62, 90
18, 81599, Note_on_c, 14, 62, 0
18, 81600, Note_on_c, 14, 61, 90
18, 81659, Note_on_c, 14, 61, 0
18, 81660, Note_on_c, 14, 59, 90
18, 81719, Note_on_c, 14, 59, 0
18, 81720, Note_on_c, 14, 47, 90
18, 81749, Note_on_c, 14, 47, 0
18, 81750, Note_on_c, 14, 49, 90
18, 81779, Note_on_c, 14, 49, 0
18, 81780, Note_on_c, 14, 50, 90
18, 81809, Note_on_c, 14, 50, 0
18, 81810, Note_on_c, 14, 47, 90
18, 81839, Note_on_c, 14, 47, 0
18, 81840, Note_on_c, 14, 52, 90
18, 81899, Note_on_c, 14, 52, 0
18, 81900, Note_on_c, 14, 44, 90
18, 81959, Note_on_c, 14, 44, 0
18, 81960, Note_on_c, 14, 42, 90
18, 82019, Note_on_c, 14, 42, 0
18, 82020, Note_on_c, 14, 40, 90
18, 82079, Note_on_c, 14, 40, 0
18, 82080, Note_on_c, 14, 44, 90
18, 82139, Note_on_c, 14, 44, 0
18, 82140, Note_on_c, 14, 40, 90
18, 82199, Note_on_c, 14, 40, 0
18, 82200, Note_on_c, 14, 45, 90
18, 82319, Note_on_c, 14, 45, 0
18, 82440, Note_on_c, 14, 45, 90
18, 82469, Note_on_c, 14, 45, 0
18, 82470, Note_on_c, 14, 47, 90
18, 82499, Note_on_c, 14, 47, 0
18, 82500, Note_on_c, 14, 49, 90
18, 82529, Note_on_c, 14, 49, 0
18, 82530, Note_on_c, 14, 45, 90
18, 82559, Note_on_c, 14, 45, 0
18, 82560, Note_on_c, 14, 50, 90
18, 82619, Note_on_c, 14, 50, 0
18, 82620, Note_on_c, 14, 47, 90
18, 82679, Note_on_c, 14, 47, 0
18, 82680, Note_on_c, 14, 54, 90
18, 82739, Note_on_c, 14, 54, 0
18, 82740, Note_on_c, 14, 59, 90
18, 82799, Note_on_c, 14, 59, 0
18, 82800, Note_on_c, 14, 47, 90
18, 82829, Note_on_c, 14, 47, 0
18, 82830, Note_on_c, 14, 49, 90
18, 82859, Note_on_c, 14, 49, 0
18, 82860, Note_on_c, 14, 50, 90
18, 82889, Note_on_c, 14, 50, 0
18, 82890, Note_on_c, 14, 47, 90
18, 82919, Note_on_c, 14, 47, 0
18, 82920, Note_on_c, 14, 49, 90
18, 82979, Note_on_c, 14, 49, 0
18, 82980, Note_on_c, 14, 45, 90
18, 83039, Note_on_c, 14, 45, 0
18, 83040, Note_on_c, 14, 52, 90
18, 83099, Note_on_c, 14, 52, 0
18, 83100, Note_on_c, 14, 57, 90
18, 83159, Note_on_c, 14, 57, 0
18, 83160, Note_on_c, 14, 45, 90
18, 83189, Note_on_c, 14, 45, 0
18, 83190, Note_on_c, 14, 47, 90
18, 83219, Note_on_c, 14, 47, 0
18, 83220, Note_on_c, 14, 49, 90
18, 83249, Note_on_c, 14, 49, 0
18, 83250, Note_on_c, 14, 45, 90
18, 83279, Note_on_c, 14, 45, 0
18, 83280, Note_on_c, 14, 40, 90
18, 83309, Note_on_c, 14, 40, 0
18, 83310, Note_on_c, 14, 52, 90
18, 83339, Note_on_c, 14, 52, 0
18, 83340, Note_on_c, 14, 52, 90
18, 83369, Note_on_c, 14, 52, 0
18, 83370, Note_on_c, 14, 52, 90
18, 83399, Note_on_c, 14, 52, 0
18, 83400, Note_on_c, 14, 52, 90
18, 83429, Note_on_c, 14, 52, 0
18, 83430, Note_on_c, 14, 52, 90
18, 83459, Note_on_c, 14, 52, 0
18, 83460, Note_on_c, 14, 52, 90
18, 83489, Note_on_c, 14, 52, 0
18, 83490, Note_on_c, 14, 54, 90
18, 83519, Note_on_c, 14, 54, 0
18, 83520, Note_on_c, 14, 54, 90
18, 83549, Note_on_c, 14, 54, 0
18, 83550, Note_on_c, 14, 52, 90
18, 83579, Note_on_c, 14, 52, 0
18, 83580, Note_on_c, 14, 52, 90
18, 83609, Note_on_c, 14, 52, 0
18, 83610, Note_on_c, 14, 50, 90
18, 83639, Note_on_c, 14, 50, 0
18, 83640, Note_on_c, 14, 50, 90
18, 83669, Note_on_c, 14, 50, 0
18, 83670, Note_on_c, 14, 52, 90
18, 83699, Note_on_c, 14, 52, 0
18, 83700, Note_on_c, 14, 52, 90
18, 83729, Note_on_c, 14, 52, 0
18, 83730, Note_on_c, 14, 54, 90
18, 83759, Note_on_c, 14, 54, 0
18, 83760, Note_on_c, 14, 54, 90
18, 83789, Note_on_c, 14, 54, 0
18, 83790, Note_on_c, 14, 52, 90
18, 83819, Note_on_c, 14, 52, 0
18, 83820, Note_on_c, 14, 52, 90
18, 83849, Note_on_c, 14, 52, 0
18, 83850, Note_on_c, 14, 51, 90
18, 83879, Note_on_c, 14, 51, 0
18, 83880, Note_on_c, 14, 52, 90
18, 83909, Note_on_c, 14, 52, 0
18, 83910, Note_on_c, 14, 50, 90
18, 83939, Note_on_c, 14, 50, 0
18, 83940, Note_on_c, 14, 49, 90
18, 83969, Note_on_c, 14, 49, 0
18, 83970, Note_on_c, 14, 47, 90
18, 83999, Note_on_c, 14, 47, 0
18, 84000, Note_on_c, 14, 45, 90
18, 84059, Note_on_c, 14, 45, 0
18, 84060, Note_on_c, 14, 57, 90
18, 84119, Note_on_c, 14, 57, 0
18, 84120, Note_on_c, 14, 56, 90
18, 84179, Note_on_c, 14, 56, 0
18, 84180, Note_on_c, 14, 54, 90
18, 84239, Note_on_c, 14, 54, 0
18, 84240, Note_on_c, 14, 56, 90
18, 84269, Note_on_c, 14, 56, 0
18, 84270, Note_on_c, 14, 52, 90
18, 84299, Note_on_c, 14, 52, 0
18, 84300, Note_on_c, 14, 54, 90
18, 84329, Note_on_c, 14, 54, 0
18, 84330, Note_on_c, 14, 56, 90
18, 84359, Note_on_c, 14, 56, 0
18, 84360, Note_on_c, 14, 57, 90
18, 84419, Note_on_c, 14, 57, 0
18, 84420, Note_on_c, 14, 52, 90
18, 84479, Note_on_c, 14, 52, 0
18, 84480, Note_on_c, 14, 40, 90
18, 84539, Note_on_c, 14, 40, 0
18, 84540, Note_on_c, 14, 45, 90
18, 84599, Note_on_c, 14, 45, 0
18, 84600, Note_on_c, 14, 49, 90
18, 84659, Note_on_c, 14, 49, 0
18, 84660, Note_on_c, 14, 52, 90
18, 84719, Note_on_c, 14, 52, 0
18, 84720, Note_on_c, 14, 57, 90
18, 84779, Note_on_c, 14, 57, 0
18, 84780, Note_on_c, 14, 61, 90
18, 84839, Note_on_c, 14, 61, 0
18, 84840, Note_on_c, 14, 59, 90
18, 84899, Note_on_c, 14, 59, 0
18, 84900, Note_on_c, 14, 57, 90
18, 84959, Note_on_c, 14, 57, 0
18, 84960, Note_on_c, 14, 52, 90
18, 84989, Note_on_c, 14, 52, 0
18, 84990, Note_on_c, 14, 54, 90
18, 85019, Note_on_c, 14, 54, 0
18, 85020, Note_on_c, 14, 56, 90
18, 85049, Note_on_c, 14, 56, 0
18, 85050, Note_on_c, 14, 52, 90
18, 85079, Note_on_c, 14, 52, 0
18, 85080, Note_on_c, 14, 57, 90
18, 85139, Note_on_c, 14, 57, 0
18, 85140, Note_on_c, 14, 49, 90
18, 85199, Note_on_c, 14, 49, 0
18, 85200, Note_on_c, 14, 52, 90
18, 85259, Note_on_c, 14, 52, 0
18, 85260, Note_on_c, 14, 45, 90
18, 85319, Note_on_c, 14, 45, 0
18, 85320, Note_on_c, 14, 52, 90
18, 85349, Note_on_c, 14, 52, 0
18, 85350, Note_on_c, 14, 54, 90
18, 85379, Note_on_c, 14, 54, 0
18, 85380, Note_on_c, 14, 56, 90
18, 85409, Note_on_c, 14, 56, 0
18, 85410, Note_on_c, 14, 52, 90
18, 85439, Note_on_c, 14, 52, 0
18, 85440, Note_on_c, 14, 57, 90
18, 85499, Note_on_c, 14, 57, 0
18, 85500, Note_on_c, 14, 45, 90
18, 85559, Note_on_c, 14, 45, 0
18, 85560, Note_on_c, 14, 41, 90
18, 85619, Note_on_c, 14, 41, 0
18, 85620, Note_on_c, 14, 42, 90
18, 85679, Note_on_c, 14, 42, 0
18, 85680, Note_on_c, 14, 54, 90
18, 85739, Note_on_c, 14, 54, 0
18, 85740, Note_on_c, 14, 49, 90
18, 85799, Note_on_c, 14, 49, 0
18, 85800, Note_on_c, 14, 50, 90
18, 85859, Note_on_c, 14, 50, 0
18, 85860, Note_on_c, 14, 62, 90
18, 85919, Note_on_c, 14, 62, 0
18, 85920, Note_on_c, 14, 58, 90
18, 85979, Note_on_c, 14, 58, 0
18, 85980, Note_on_c, 14, 59, 90
18, 86039, Note_on_c, 14, 59, 0
18, 86040, Note_on_c, 14, 47, 90
18, 86099, Note_on_c, 14, 47, 0
18, 86100, Note_on_c, 14, 42, 90
18, 86159, Note_on_c, 14, 42, 0
18, 86160, Note_on_c, 14, 44, 90
18, 86174, Note_on_c, 14, 44, 0
18, 86175, Note_on_c, 14, 45, 90
18, 86189, Note_on_c, 14, 45, 0
18, 86190, Note_on_c, 14, 47, 90
18, 86219, Note_on_c, 14, 47, 0
18, 86220, Note_on_c, 14, 40, 90
18, 86235, Note_on_c, 14, 40, 0
18, 86250, Note_on_c, 14, 40, 90
18, 86265, Note_on_c, 14, 40, 0
18, 86280, Note_on_c, 14, 40, 90
18, 86295, Note_on_c, 14, 40, 0
18, 86310, Note_on_c, 14, 40, 90
18, 86325, Note_on_c, 14, 40, 0
18, 86340, Note_on_c, 14, 40, 90
18, 86369, Note_on_c, 14, 40, 0
18, 86370, Note_on_c, 14, 52, 90
18, 86399, Note_on_c, 14, 52, 0
18, 86400, Note_on_c, 14, 52, 90
18, 86429, Note_on_c, 14, 52, 0
18, 86430, Note_on_c, 14, 52, 90
18, 86459, Note_on_c, 14, 52, 0
18, 86460, Note_on_c, 14, 52, 90
18, 86489, Note_on_c, 14, 52, 0
18, 86490, Note_on_c, 14, 52, 90
18, 86519, Note_on_c, 14, 52, 0
18, 86520, Note_on_c, 14, 52, 90
18, 86549, Note_on_c, 14, 52, 0
18, 86550, Note_on_c, 14, 54, 90
18, 86579, Note_on_c, 14, 54, 0
18, 86580, Note_on_c, 14, 54, 90
18, 86609, Note_on_c, 14, 54, 0
18, 86610, Note_on_c, 14, 52, 90
18, 86639, Note_on_c, 14, 52, 0
18, 86640, Note_on_c, 14, 52, 90
18, 86669, Note_on_c, 14, 52, 0
18, 86670, Note_on_c, 14, 50, 90
18, 86699, Note_on_c, 14, 50, 0
18, 86700, Note_on_c, 14, 50, 90
18, 86729, Note_on_c, 14, 50, 0
18, 86730, Note_on_c, 14, 52, 90
18, 86759, Note_on_c, 14, 52, 0
18, 86760, Note_on_c, 14, 52, 90
18, 86789, Note_on_c, 14, 52, 0
18, 86790, Note_on_c, 14, 54, 90
18, 86819, Note_on_c, 14, 54, 0
18, 86820, Note_on_c, 14, 54, 90
18, 86849, Note_on_c, 14, 54, 0
18, 86850, Note_on_c, 14, 52, 90
18, 86879, Note_on_c, 14, 52, 0
18, 86880, Note_on_c, 14, 52, 90
18, 86909, Note_on_c, 14, 52, 0
18, 86910, Note_on_c, 14, 51, 90
18, 86939, Note_on_c, 14, 51, 0
18, 86940, Note_on_c, 14, 52, 90
18, 86969, Note_on_c, 14, 52, 0
18, 86970, Note_on_c, 14, 50, 90
18, 86999, Note_on_c, 14, 50, 0
18, 87000, Note_on_c, 14, 49, 90
18, 87029, Note_on_c, 14, 49, 0
18, 87030, Note_on_c, 14, 47, 90
18, 87059, Note_on_c, 14, 47, 0
18, 87060, Note_on_c, 14, 45, 90
18, 87119, Note_on_c, 14, 45, 0
18, 87120, Note_on_c, 14, 57, 90
18, 87179, Note_on_c, 14, 57, 0
18, 87180, Note_on_c, 14, 56, 90
18, 87239, Note_on_c, 14, 56, 0
18, 87240, Note_on_c, 14, 54, 90
18, 87299, Note_on_c, 14, 54, 0
18, 87300, Note_on_c, 14, 56, 90
18, 87329, Note_on_c, 14, 56, 0
18, 87330, Note_on_c, 14, 54, 90
18, 87359, Note_on_c, 14, 54, 0
18, 87360, Note_on_c, 14, 56, 90
18, 87389, Note_on_c, 14, 56, 0
18, 87390, Note_on_c, 14, 52, 90
18, 87419, Note_on_c, 14, 52, 0
18, 87420, Note_on_c, 14, 57, 90
18, 87479, Note_on_c, 14, 57, 0
18, 87480, Note_on_c, 14, 64, 90
18, 87539, Note_on_c, 14, 64, 0
18, 87540, Note_on_c, 14, 52, 90
18, 87599, Note_on_c, 14, 52, 0
18, 87600, Note_on_c, 14, 57, 110
18, 87719, Note_on_c, 14, 57, 0
18, 87780, Control_c, 14, 0, 101
18, 87780, Control_c, 14, 0, 101
18, 87780, Control_c, 14, 0, 101
18, 87780, Program_c, 14, 42
18, 87780, Note_on_c, 14, 42, 100
18, 89280, Note_on_c, 14, 42, 0
18, 89280, Note_on_c, 14, 49, 100
18, 89310, Note_on_c, 14, 49, 0
18, 89310, Note_on_c, 14, 47, 100
18, 89340, Note_on_c, 14, 47, 0
18, 89340, Note_on_c, 14, 45, 100
18, 89370, Note_on_c, 14, 45, 0
18, 89370, Note_on_c, 14, 49, 100
18, 89400, Note_on_c, 14, 49, 0
18, 89400, Note_on_c, 14, 42, 100
18, 89430, Note_on_c, 14, 42, 0
18, 89430, Note_on_c, 14, 45, 100
18, 89460, Note_on_c, 14, 45, 0
18, 89460, Note_on_c, 14, 39, 100
18, 89940, Note_on_c, 14, 39, 0
18, 89940, Note_on_c, 14, 44, 100
18, 91140, Note_on_c, 14, 44, 0
18, 91140, Note_on_c, 14, 45, 100
18, 91200, Note_on_c, 14, 45, 0
18, 91200, Note_on_c, 14, 52, 100
18, 91230, Note_on_c, 14, 52, 0
18, 91230, Note_on_c, 14, 50, 100
18, 91260, Note_on_c, 14, 50, 0
18, 91260, Note_on_c, 14, 49, 100
18, 91290, Note_on_c, 14, 49, 0
18, 91290, Note_on_c, 14, 52, 100
18, 91320, Note_on_c, 14, 52, 0
18, 91320, Note_on_c, 14, 45, 100
18, 91350, Note_on_c, 14, 45, 0
18, 91350, Note_on_c, 14, 49, 100
18, 91380, Note_on_c, 14, 49, 0
18, 91380, Note_on_c, 14, 42, 100
18, 92340, Note_on_c, 14, 42, 0
18, 92340, Note_on_c, 14, 51, 100
18, 92820, Note_on_c, 14, 51, 0
18, 92820, Note_on_c, 14, 52, 100
18, 92940, Note_on_c, 14, 52, 0
18, 92940, Note_on_c, 14, 55, 100
18, 93060, Note_on_c, 14, 55, 0
18, 93060, Note_on_c, 14, 59, 100
18, 93180, Note_on_c, 14, 59, 0
18, 93180, Note_on_c, 14, 52, 100
18, 93300, Note_on_c, 14, 52, 0
18, 93300, Note_on_c, 14, 46, 100
18, 93780, Note_on_c, 14, 46, 0
18, 93780, Note_on_c, 14, 47, 100
18, 93840, Note_on_c, 14, 47, 0
18, 93840, Note_on_c, 14, 54, 90
18, 93869, Note_on_c, 14, 54, 0
18, 93870, Note_on_c, 14, 52, 90
18, 93899, Note_on_c, 14, 52, 0
18, 93900, Note_on_c, 14, 50, 90
18, 93929, Note_on_c, 14, 50, 0
18, 93930, Note_on_c, 14, 54, 90
18, 93959, Note_on_c, 14, 54, 0
18, 93960, Note_on_c, 14, 47, 90
18, 93989, Note_on_c, 14, 47, 0
18, 93990, Note_on_c, 14, 50, 90
18, 94019, Note_on_c, 14, 50, 0
18, 94020, Note_on_c, 14, 44, 90
18, 94079, Note_on_c, 14, 44, 0
18, 94080, Note_on_c, 14, 44, 90
18, 94139, Note_on_c, 14, 44, 0
18, 94140, Note_on_c, 14, 43, 90
18, 94199, Note_on_c, 14, 43, 0
18, 94200, Note_on_c, 14, 42, 90
18, 94259, Note_on_c, 14, 42, 0
18, 94260, Note_on_c, 14, 41, 90
18, 94379, Note_on_c, 14, 41, 0
18, 94500, Note_on_c, 14, 42, 90
18, 94619, Note_on_c, 14, 42, 0
18, 94620, Note_on_c, 14, 47, 90
18, 94739, Note_on_c, 14, 47, 0
18, 94980, Note_on_c, 14, 47, 90
18, 95039, Note_on_c, 14, 47, 0
18, 95100, Note_on_c, 14, 40, 90
18, 95159, Note_on_c, 14, 40, 0
18, 95220, Note_on_c, 14, 47, 90
18, 95279, Note_on_c, 14, 47, 0
18, 95340, Note_on_c, 14, 50, 90
18, 95399, Note_on_c, 14, 50, 0
18, 95460, Note_on_c, 14, 49, 90
18, 95519, Note_on_c, 14, 49, 0
18, 95580, Note_on_c, 14, 47, 90
18, 95639, Note_on_c, 14, 47, 0
18, 95700, Note_on_c, 14, 54, 90
18, 95759, Note_on_c, 14, 54, 0
18, 95820, Note_on_c, 14, 52, 90
18, 95879, Note_on_c, 14, 52, 0
18, 95940, Note_on_c, 14, 51, 90
18, 95999, Note_on_c, 14, 51, 0
18, 96000, Note_on_c, 14, 54, 90
18, 96059, Note_on_c, 14, 54, 0
18, 96060, Note_on_c, 14, 57, 90
18, 96240, Note_on_c, 14, 57, 0
18, 96240, Note_on_c, 14, 55, 90
18, 96269, Note_on_c, 14, 55, 0
18, 96270, Note_on_c, 14, 54, 90
18, 96299, Note_on_c, 14, 54, 0
18, 96300, Note_on_c, 14, 55, 90
18, 96329, Note_on_c, 14, 55, 0
18, 96330, Note_on_c, 14, 54, 90
18, 96359, Note_on_c, 14, 54, 0
18, 96360, Note_on_c, 14, 52, 90
18, 96389, Note_on_c, 14, 52, 0
18, 96390, Note_on_c, 14, 50, 90
18, 96419, Note_on_c, 14, 50, 0
18, 96420, Note_on_c, 14, 49, 90
18, 96479, Note_on_c, 14, 49, 0
18, 96480, Note_on_c, 14, 52, 90
18, 96539, Note_on_c, 14, 52, 0
18, 96540, Note_on_c, 14, 55, 90
18, 96719, Note_on_c, 14, 55, 0
18, 96720, Note_on_c, 14, 54, 90
18, 96749, Note_on_c, 14, 54, 0
18, 96750, Note_on_c, 14, 52, 90
18, 96779, Note_on_c, 14, 52, 0
18, 96780, Note_on_c, 14, 54, 90
18, 96809, Note_on_c, 14, 54, 0
18, 96810, Note_on_c, 14, 52, 90
18, 96839, Note_on_c, 14, 52, 0
18, 96840, Note_on_c, 14, 50, 90
18, 96869, Note_on_c, 14, 50, 0
18, 96870, Note_on_c, 14, 49, 90
18, 96899, Note_on_c, 14, 49, 0
18, 96900, Note_on_c, 14, 47, 90
18, 96959, Note_on_c, 14, 47, 0
18, 97020, Note_on_c, 14, 52, 90
18, 97079, Note_on_c, 14, 52, 0
18, 97140, Note_on_c, 14, 49, 90
18, 97199, Note_on_c, 14, 49, 0
18, 97260, Note_on_c, 14, 45, 90
18, 97319, Note_on_c, 14, 45, 0
18, 97380, Note_on_c, 14, 50, 90
18, 97439, Note_on_c, 14, 50, 0
18, 97440, Note_on_c, 14, 42, 90
18, 97499, Note_on_c, 14, 42, 0
18, 97500, Note_on_c, 14, 43, 90
18, 97559, Note_on_c, 14, 43, 0
18, 97560, Note_on_c, 14, 45, 90
18, 97619, Note_on_c, 14, 45, 0
18, 97620, Note_on_c, 14, 38, 90
18, 97679, Note_on_c, 14, 38, 0
18, 97680, Note_on_c, 14, 40, 90
18, 97709, Note_on_c, 14, 40, 0
18, 97710, Note_on_c, 14, 42, 90
18, 97739, Note_on_c, 14, 42, 0
18, 97740, Note_on_c, 14, 43, 90
18, 97769, Note_on_c, 14, 43, 0
18, 97770, Note_on_c, 14, 45, 90
18, 97799, Note_on_c, 14, 45, 0
18, 97800, Note_on_c, 14, 47, 90
18, 97829, Note_on_c, 14, 47, 0
18, 97830, Note_on_c, 14, 49, 90
18, 97859, Note_on_c, 14, 49, 0
18, 97860, Note_on_c, 14, 50, 90
18, 97919, Note_on_c, 14, 50, 0
18, 97980, Note_on_c, 14, 38, 90
18, 98039, Note_on_c, 14, 38, 0
18, 98100, Note_on_c, 14, 45, 90
18, 98159, Note_on_c, 14, 45, 0
18, 98220, Note_on_c, 14, 49, 90
18, 98279, Note_on_c, 14, 49, 0
18, 98340, Note_on_c, 14, 54, 90
18, 98399, Note_on_c, 14, 54, 0
18, 98460, Note_on_c, 14, 42, 90
18, 98519, Note_on_c, 14, 42, 0
18, 98580, Note_on_c, 14, 47, 90
18, 98639, Note_on_c, 14, 47, 0
18, 98700, Note_on_c, 14, 50, 90
18, 98759, Note_on_c, 14, 50, 0
18, 98820, Note_on_c, 14, 55, 90
18, 98879, Note_on_c, 14, 55, 0
18, 98940, Note_on_c, 14, 54, 90
18, 98999, Note_on_c, 14, 54, 0
18, 99060, Note_on_c, 14, 52, 90
18, 99119, Note_on_c, 14, 52, 0
18, 99180, Note_on_c, 14, 50, 90
18, 99239, Note_on_c, 14, 50, 0
18, 99300, Note_on_c, 14, 49, 90
18, 99359, Note_on_c, 14, 49, 0
18, 99420, Note_on_c, 14, 47, 90
18, 99479, Note_on_c, 14, 47, 0
18, 99540, Note_on_c, 14, 46, 90
18, 99599, Note_on_c, 14, 46, 0
18, 99660, Note_on_c, 14, 42, 90
18, 99719, Note_on_c, 14, 42, 0
18, 99780, Note_on_c, 14, 47, 90
18, 99839, Note_on_c, 14, 47, 0
18, 99900, Note_on_c, 14, 51, 90
18, 99959, Note_on_c, 14, 51, 0
18, 100020, Note_on_c, 14, 53, 90
18, 100139, Note_on_c, 14, 53, 0
18, 100200, Note_on_c, 14, 49, 90
18, 100259, Note_on_c, 14, 49, 0
18, 100260, Note_on_c, 14, 50, 90
18, 100319, Note_on_c, 14, 50, 0
18, 100320, Note_on_c, 14, 52, 90
18, 100379, Note_on_c, 14, 52, 0
18, 100380, Note_on_c, 14, 54, 90
18, 100439, Note_on_c, 14, 54, 0
18, 100440, Note_on_c, 14, 42, 90
18, 100499, Note_on_c, 14, 42, 0
18, 100500, Note_on_c, 14, 47, 90
18, 100559, Note_on_c, 14, 47, 0
18, 100560, Note_on_c, 14, 59, 90
18, 100619, Note_on_c, 14, 59, 0
18, 100620, Note_on_c, 14, 50, 90
18, 100679, Note_on_c, 14, 50, 0
18, 100680, Note_on_c, 14, 54, 90
18, 100739, Note_on_c, 14, 54, 0
18, 100740, Note_on_c, 14, 47, 90
18, 100799, Note_on_c, 14, 47, 0
18, 100800, Note_on_c, 14, 59, 90
18, 100859, Note_on_c, 14, 59, 0
18, 100860, Note_on_c, 14, 59, 90
18, 100919, Note_on_c, 14, 59, 0
18, 100920, Note_on_c, 14, 59, 90
18, 100979, Note_on_c, 14, 59, 0
18, 100980, Note_on_c, 14, 47, 90
18, 101039, Note_on_c, 14, 47, 0
18, 101040, Note_on_c, 14, 59, 90
18, 101099, Note_on_c, 14, 59, 0
18, 101100, Note_on_c, 14, 50, 90
18, 101159, Note_on_c, 14, 50, 0
18, 101160, Note_on_c, 14, 52, 90
18, 101189, Note_on_c, 14, 52, 0
18, 101190, Note_on_c, 14, 54, 90
18, 101219, Note_on_c, 14, 54, 0
18, 101220, Note_on_c, 14, 52, 90
18, 101279, Note_on_c, 14, 52, 0
18, 101280, Note_on_c, 14, 50, 90
18, 101339, Note_on_c, 14, 50, 0
18, 101340, Note_on_c, 14, 55, 90
18, 101399, Note_on_c, 14, 55, 0
18, 101400, Note_on_c, 14, 52, 90
18, 101459, Note_on_c, 14, 52, 0
18, 101460, Note_on_c, 14, 54, 90
18, 101519, Note_on_c, 14, 54, 0
18, 101580, Note_on_c, 14, 52, 90
18, 101639, Note_on_c, 14, 52, 0
18, 101700, Note_on_c, 14, 51, 90
18, 101759, Note_on_c, 14, 51, 0
18, 101760, Note_on_c, 14, 54, 90
18, 101819, Note_on_c, 14, 54, 0
18, 101820, Note_on_c, 14, 57, 90
18, 101999, Note_on_c, 14, 57, 0
18, 102000, Note_on_c, 14, 55, 90
18, 102029, Note_on_c, 14, 55, 0
18, 102030, Note_on_c, 14, 54, 90
18, 102059, Note_on_c, 14, 54, 0
18, 102060, Note_on_c, 14, 52, 90
18, 102119, Note_on_c, 14, 52, 0
18, 102120, Note_on_c, 14, 50, 90
18, 102179, Note_on_c, 14, 50, 0
18, 102180, Note_on_c, 14, 49, 90
18, 102239, Note_on_c, 14, 49, 0
18, 102240, Note_on_c, 14, 61, 90
18, 102269, Note_on_c, 14, 61, 0
18, 102270, Note_on_c, 14, 59, 90
18, 102299, Note_on_c, 14, 59, 0
18, 102300, Note_on_c, 14, 57, 90
18, 102359, Note_on_c, 14, 57, 0
18, 102360, Note_on_c, 14, 55, 90
18, 102419, Note_on_c, 14, 55, 0
18, 102420, Note_on_c, 14, 54, 90
18, 102479, Note_on_c, 14, 54, 0
18, 102480, Note_on_c, 14, 52, 90
18, 102539, Note_on_c, 14, 52, 0
18, 102540, Note_on_c, 14, 50, 90
18, 102599, Note_on_c, 14, 50, 0
18, 102600, Note_on_c, 14, 49, 90
18, 102659, Note_on_c, 14, 49, 0
18, 102660, Note_on_c, 14, 47, 90
18, 102719, Note_on_c, 14, 47, 0
18, 102780, Note_on_c, 14, 52, 90
18, 102839, Note_on_c, 14, 52, 0
18, 102900, Note_on_c, 14, 45, 90
18, 102959, Note_on_c, 14, 45, 0
18, 103080, Note_on_c, 14, 49, 90
18, 103139, Note_on_c, 14, 49, 0
18, 103140, Note_on_c, 14, 50, 90
18, 103199, Note_on_c, 14, 50, 0
18, 103200, Note_on_c, 14, 42, 90
18, 103259, Note_on_c, 14, 42, 0
18, 103260, Note_on_c, 14, 43, 90
18, 103319, Note_on_c, 14, 43, 0
18, 103320, Note_on_c, 14, 45, 90
18, 103379, Note_on_c, 14, 45, 0
18, 103380, Note_on_c, 14, 38, 90
18, 103439, Note_on_c, 14, 38, 0
18, 103440, Note_on_c, 14, 50, 90
18, 103499, Note_on_c, 14, 50, 0
18, 103500, Note_on_c, 14, 49, 90
18, 103559, Note_on_c, 14, 49, 0
18, 103560, Note_on_c, 14, 47, 90
18, 103619, Note_on_c, 14, 47, 0
18, 103620, Note_on_c, 14, 45, 90
18, 103679, Note_on_c, 14, 45, 0
18, 103680, Note_on_c, 14, 57, 90
18, 103739, Note_on_c, 14, 57, 0
18, 103740, Note_on_c, 14, 57, 90
18, 103799, Note_on_c, 14, 57, 0
18, 103800, Note_on_c, 14, 57, 90
18, 103859, Note_on_c, 14, 57, 0
18, 103860, Note_on_c, 14, 45, 90
18, 103919, Note_on_c, 14, 45, 0
18, 103920, Note_on_c, 14, 57, 90
18, 103979, Note_on_c, 14, 57, 0
18, 103980, Note_on_c, 14, 45, 90
18, 104039, Note_on_c, 14, 45, 0
18, 104040, Note_on_c, 14, 46, 90
18, 104099, Note_on_c, 14, 46, 0
18, 104100, Note_on_c, 14, 47, 90
18, 104159, Note_on_c, 14, 47, 0
18, 104160, Note_on_c, 14, 59, 90
18, 104219, Note_on_c, 14, 59, 0
18, 104220, Note_on_c, 14, 59, 90
18, 104279, Note_on_c, 14, 59, 0
18, 104280, Note_on_c, 14, 59, 90
18, 104339, Note_on_c, 14, 59, 0
18, 104340, Note_on_c, 14, 47, 90
18, 104399, Note_on_c, 14, 47, 0
18, 104400, Note_on_c, 14, 59, 90
18, 104459, Note_on_c, 14, 59, 0
18, 104460, Note_on_c, 14, 47, 90
18, 104489, Note_on_c, 14, 47, 0
18, 104490, Note_on_c, 14, 45, 90
18, 104519, Note_on_c, 14, 45, 0
18, 104520, Note_on_c, 14, 44, 90
18, 104549, Note_on_c, 14, 44, 0
18, 104550, Note_on_c, 14, 42, 90
18, 104579, Note_on_c, 14, 42, 0
18, 104580, Note_on_c, 14, 41, 90
18, 104639, Note_on_c, 14, 41, 0
18, 104700, Note_on_c, 14, 49, 90
18, 104759, Note_on_c, 14, 49, 0
18, 104820, Note_on_c, 14, 54, 90
18, 104879, Note_on_c, 14, 54, 0
18, 104940, Note_on_c, 14, 45, 90
18, 104999, Note_on_c, 14, 45, 0
18, 105060, Note_on_c, 14, 50, 90
18, 105119, Note_on_c, 14, 50, 0
18, 105180, Note_on_c, 14, 47, 90
18, 105239, Note_on_c, 14, 47, 0
18, 105300, Note_on_c, 14, 49, 90
18, 105359, Note_on_c, 14, 49, 0
18, 105360, Note_on_c, 14, 56, 90
18, 105419, Note_on_c, 14, 56, 0
18, 105420, Note_on_c, 14, 53, 90
18, 105479, Note_on_c, 14, 53, 0
18, 105480, Note_on_c, 14, 49, 90
18, 105539, Note_on_c, 14, 49, 0
18, 105540, Note_on_c, 14, 54, 90
18, 105599, Note_on_c, 14, 54, 0
18, 105600, Note_on_c, 14, 42, 90
18, 105659, Note_on_c, 14, 42, 0
18, 105660, Note_on_c, 14, 42, 90
18, 105719, Note_on_c, 14, 42, 0
18, 105720, Note_on_c, 14, 42, 90
18, 105779, Note_on_c, 14, 42, 0
18, 105780, Note_on_c, 14, 54, 90
18, 105839, Note_on_c, 14, 54, 0
18, 105900, Note_on_c, 14, 57, 90
18, 105959, Note_on_c, 14, 57, 0
18, 106020, Note_on_c, 14, 61, 90
18, 106079, Note_on_c, 14, 61, 0
18, 106080, Note_on_c, 14, 49, 90
18, 106139, Note_on_c, 14, 49, 0
18, 106140, Note_on_c, 14, 49, 90
18, 106199, Note_on_c, 14, 49, 0
18, 106200, Note_on_c, 14, 49, 90
18, 106259, Note_on_c, 14, 49, 0
18, 106260, Note_on_c, 14, 61, 90
18, 106319, Note_on_c, 14, 61, 0
18, 106320, Note_on_c, 14, 56, 90
18, 106379, Note_on_c, 14, 56, 0
18, 106380, Note_on_c, 14, 53, 90
18, 106439, Note_on_c, 14, 53, 0
18, 106440, Note_on_c, 14, 56, 90
18, 106499, Note_on_c, 14, 56, 0
18, 106500, Note_on_c, 14, 49, 90
18, 106559, Note_on_c, 14, 49, 0
18, 106620, Note_on_c, 14, 53, 90
18, 106679, Note_on_c, 14, 53, 0
18, 106740, Note_on_c, 14, 54, 90
18, 106799, Note_on_c, 14, 54, 0
18, 106800, Note_on_c, 14, 56, 90
18, 106859, Note_on_c, 14, 56, 0
18, 106860, Note_on_c, 14, 57, 90
18, 106919, Note_on_c, 14, 57, 0
18, 106920, Note_on_c, 14, 59, 90
18, 106979, Note_on_c, 14, 59, 0
18, 106980, Note_on_c, 14, 61, 90
18, 107039, Note_on_c, 14, 61, 0
18, 107040, Note_on_c, 14, 59, 90
18, 107099, Note_on_c, 14, 59, 0
18, 107100, Note_on_c, 14, 58, 90
18, 107159, Note_on_c, 14, 58, 0
18, 107160, Note_on_c, 14, 54, 90
18, 107219, Note_on_c, 14, 54, 0
18, 107220, Note_on_c, 14, 59, 90
18, 107279, Note_on_c, 14, 59, 0
18, 107340, Note_on_c, 14, 57, 90
18, 107399, Note_on_c, 14, 57, 0
18, 107460, Note_on_c, 14, 56, 90
18, 107519, Note_on_c, 14, 56, 0
18, 107580, Note_on_c, 14, 52, 90
18, 107639, Note_on_c, 14, 52, 0
18, 107700, Note_on_c, 14, 57, 90
18, 107759, Note_on_c, 14, 57, 0
18, 107760, Note_on_c, 14, 45, 90
18, 107819, Note_on_c, 14, 45, 0
18, 107820, Note_on_c, 14, 45, 90
18, 107879, Note_on_c, 14, 45, 0
18, 107880, Note_on_c, 14, 57, 90
18, 107939, Note_on_c, 14, 57, 0
18, 107940, Note_on_c, 14, 51, 90
18, 107999, Note_on_c, 14, 51, 0
18, 108000, Note_on_c, 14, 51, 90
18, 108059, Note_on_c, 14, 51, 0
18, 108060, Note_on_c, 14, 51, 90
18, 108119, Note_on_c, 14, 51, 0
18, 108120, Note_on_c, 14, 51, 90
18, 108179, Note_on_c, 14, 51, 0
18, 108180, Note_on_c, 14, 53, 90
18, 108239, Note_on_c, 14, 53, 0
18, 108240, Note_on_c, 14, 54, 90
18, 108299, Note_on_c, 14, 54, 0
18, 108300, Note_on_c, 14, 56, 90
18, 108359, Note_on_c, 14, 56, 0
18, 108360, Note_on_c, 14, 49, 90
18, 108419, Note_on_c, 14, 49, 0
18, 108420, Note_on_c, 14, 54, 90
18, 108479, Note_on_c, 14, 54, 0
18, 108480, Note_on_c, 14, 45, 90
18, 108539, Note_on_c, 14, 45, 0
18, 108540, Note_on_c, 14, 47, 90
18, 108599, Note_on_c, 14, 47, 0
18, 108600, Note_on_c, 14, 49, 90
18, 108659, Note_on_c, 14, 49, 0
18, 108660, Note_on_c, 14, 54, 90
18, 108719, Note_on_c, 14, 54, 0
18, 108780, Note_on_c, 14, 52, 90
18, 108839, Note_on_c, 14, 52, 0
18, 108900, Note_on_c, 14, 50, 90
18, 108959, Note_on_c, 14, 50, 0
18, 109020, Note_on_c, 14, 47, 90
18, 109079, Note_on_c, 14, 47, 0
18, 109140, Note_on_c, 14, 49, 90
18, 109199, Note_on_c, 14, 49, 0
18, 109200, Note_on_c, 14, 47, 90
18, 109259, Note_on_c, 14, 47, 0
18, 109260, Note_on_c, 14, 49, 90
18, 109319, Note_on_c, 14, 49, 0
18, 109320, Note_on_c, 14, 37, 90
18, 109379, Note_on_c, 14, 37, 0
18, 109380, Note_on_c, 14, 42, 90
18, 109439, Note_on_c, 14, 42, 0
18, 109500, Note_on_c, 14, 47, 90
18, 109559, Note_on_c, 14, 47, 0
18, 109620, Note_on_c, 14, 54, 90
18, 109679, Note_on_c, 14, 54, 0
18, 109740, Note_on_c, 14, 57, 90
18, 109799, Note_on_c, 14, 57, 0
18, 109860, Note_on_c, 14, 56, 90
18, 109919, Note_on_c, 14, 56, 0
18, 109980, Note_on_c, 14, 54, 90
18, 110039, Note_on_c, 14, 54, 0
18, 110100, Note_on_c, 14, 61, 90
18, 110159, Note_on_c, 14, 61, 0
18, 110220, Note_on_c, 14, 59, 90
18, 110279, Note_on_c, 14, 59, 0
18, 110340, Note_on_c, 14, 58, 90
18, 110399, Note_on_c, 14, 58, 0
18, 110400, Note_on_c, 14, 61, 90
18, 110459, Note_on_c, 14, 61, 0
18, 110460, Note_on_c, 14, 64, 90
18, 110639, Note_on_c, 14, 64, 0
18, 110640, Note_on_c, 14, 62, 90
18, 110669, Note_on_c, 14, 62, 0
18, 110670, Note_on_c, 14, 61, 90
18, 110699, Note_on_c, 14, 61, 0
18, 110700, Note_on_c, 14, 62, 90
18, 110729, Note_on_c, 14, 62, 0
18, 110730, Note_on_c, 14, 61, 90
18, 110759, Note_on_c, 14, 61, 0
18, 110760, Note_on_c, 14, 59, 90
18, 110789, Note_on_c, 14, 59, 0
18, 110790, Note_on_c, 14, 57, 90
18, 110819, Note_on_c, 14, 57, 0
18, 110820, Note_on_c, 14, 56, 90
18, 110879, Note_on_c, 14, 56, 0
18, 110880, Note_on_c, 14, 59, 90
18, 110939, Note_on_c, 14, 59, 0
18, 110940, Note_on_c, 14, 62, 90
18, 111119, Note_on_c, 14, 62, 0
18, 111120, Note_on_c, 14, 61, 90
18, 111149, Note_on_c, 14, 61, 0
18, 111150, Note_on_c, 14, 59, 90
18, 111179, Note_on_c, 14, 59, 0
18, 111180, Note_on_c, 14, 61, 90
18, 111209, Note_on_c, 14, 61, 0
18, 111210, Note_on_c, 14, 59, 90
18, 111239, Note_on_c, 14, 59, 0
18, 111240, Note_on_c, 14, 57, 90
18, 111269, Note_on_c, 14, 57, 0
18, 111270, Note_on_c, 14, 56, 90
18, 111299, Note_on_c, 14, 56, 0
18, 111300, Note_on_c, 14, 54, 90
18, 111419, Note_on_c, 14, 54, 0
18, 111480, Note_on_c, 14, 59, 90
18, 111539, Note_on_c, 14, 59, 0
18, 111540, Note_on_c, 14, 56, 90
18, 111659, Note_on_c, 14, 56, 0
18, 111720, Note_on_c, 14, 53, 90
18, 111779, Note_on_c, 14, 53, 0
18, 111780, Note_on_c, 14, 54, 90
18, 111839, Note_on_c, 14, 54, 0
18, 111840, Note_on_c, 14, 50, 90
18, 111899, Note_on_c, 14, 50, 0
18, 111900, Note_on_c, 14, 47, 90
18, 111959, Note_on_c, 14, 47, 0
18, 111960, Note_on_c, 14, 49, 90
18, 112019, Note_on_c, 14, 49, 0
18, 112020, Note_on_c, 14, 42, 90
18, 112079, Note_on_c, 14, 42, 0
18, 112080, Note_on_c, 14, 54, 90
18, 112139, Note_on_c, 14, 54, 0
18, 112140, Note_on_c, 14, 57, 90
18, 112199, Note_on_c, 14, 57, 0
18, 112200, Note_on_c, 14, 61, 90
18, 112259, Note_on_c, 14, 61, 0
18, 112260, Note_on_c, 14, 54, 90
18, 112319, Note_on_c, 14, 54, 0
18, 112380, Note_on_c, 14, 52, 90
18, 112439, Note_on_c, 14, 52, 0
18, 112500, Note_on_c, 14, 51, 90
18, 112559, Note_on_c, 14, 51, 0
18, 112560, Note_on_c, 14, 57, 90
18, 112679, Note_on_c, 14, 57, 0
18, 112680, Note_on_c, 14, 55, 90
18, 112709, Note_on_c, 14, 55, 0
18, 112710, Note_on_c, 14, 54, 90
18, 112739, Note_on_c, 14, 54, 0
18, 112740, Note_on_c, 14, 55, 90
18, 112799, Note_on_c, 14, 55, 0
18, 112800, Note_on_c, 14, 57, 90
18, 112859, Note_on_c, 14, 57, 0
18, 112860, Note_on_c, 14, 59, 90
18, 112919, Note_on_c, 14, 59, 0
18, 112920, Note_on_c, 14, 47, 90
18, 112979, Note_on_c, 14, 47, 0
18, 112980, Note_on_c, 14, 52, 90
18, 113039, Note_on_c, 14, 52, 0
18, 113040, Note_on_c, 14, 54, 90
18, 113099, Note_on_c, 14, 54, 0
18, 113100, Note_on_c, 14, 55, 90
18, 113159, Note_on_c, 14, 55, 0
18, 113160, Note_on_c, 14, 54, 90
18, 113219, Note_on_c, 14, 54, 0
18, 113220, Note_on_c, 14, 52, 90
18, 113279, Note_on_c, 14, 52, 0
18, 113280, Note_on_c, 14, 50, 90
18, 113339, Note_on_c, 14, 50, 0
18, 113340, Note_on_c, 14, 49, 90
18, 113399, Note_on_c, 14, 49, 0
18, 113400, Note_on_c, 14, 45, 90
18, 113459, Note_on_c, 14, 45, 0
18, 113460, Note_on_c, 14, 50, 90
18, 113519, Note_on_c, 14, 50, 0
18, 113520, Note_on_c, 14, 52, 90
18, 113579, Note_on_c, 14, 52, 0
18, 113580, Note_on_c, 14, 54, 90
18, 113639, Note_on_c, 14, 54, 0
18, 113640, Note_on_c, 14, 52, 90
18, 113699, Note_on_c, 14, 52, 0
18, 113700, Note_on_c, 14, 54, 90
18, 113759, Note_on_c, 14, 54, 0
18, 113760, Note_on_c, 14, 55, 90
18, 113819, Note_on_c, 14, 55, 0
18, 113820, Note_on_c, 14, 57, 90
18, 113879, Note_on_c, 14, 57, 0
18, 113880, Note_on_c, 14, 45, 90
18, 113939, Note_on_c, 14, 45, 0
18, 113940, Note_on_c, 14, 50, 90
18, 113999, Note_on_c, 14, 50, 0
18, 114060, Note_on_c, 14, 49, 90
18, 114119, Note_on_c, 14, 49, 0
18, 114180, Note_on_c, 14, 47, 90
18, 114239, Note_on_c, 14, 47, 0
18, 114300, Note_on_c, 14, 40, 90
18, 114359, Note_on_c, 14, 40, 0
18, 114420, Note_on_c, 14, 45, 90
18, 114479, Note_on_c, 14, 45, 0
18, 114480, Note_on_c, 14, 47, 90
18, 114539, Note_on_c, 14, 47, 0
18, 114540, Note_on_c, 14, 49, 90
18, 114599, Note_on_c, 14, 49, 0
18, 114600, Note_on_c, 14, 50, 90
18, 114659, Note_on_c, 14, 50, 0
18, 114660, Note_on_c, 14, 45, 90
18, 114719, Note_on_c, 14, 45, 0
18, 114780, Note_on_c, 14, 43, 90
18, 114839, Note_on_c, 14, 43, 0
18, 114900, Note_on_c, 14, 42, 90
18, 114959, Note_on_c, 14, 42, 0
18, 115020, Note_on_c, 14, 54, 90
18, 115079, Note_on_c, 14, 54, 0
18, 115140, Note_on_c, 14, 55, 90
18, 115199, Note_on_c, 14, 55, 0
18, 115200, Note_on_c, 14, 52, 90
18, 115259, Note_on_c, 14, 52, 0
18, 115260, Note_on_c, 14, 49, 90
18, 115319, Note_on_c, 14, 49, 0
18, 115320, Note_on_c, 14, 54, 90
18, 115379, Note_on_c, 14, 54, 0
18, 115380, Note_on_c, 14, 50, 90
18, 115439, Note_on_c, 14, 50, 0
18, 115440, Note_on_c, 14, 49, 90
18, 115499, Note_on_c, 14, 49, 0
18, 115500, Note_on_c, 14, 47, 90
18, 115559, Note_on_c, 14, 47, 0
18, 115560, Note_on_c, 14, 49, 90
18, 115589, Note_on_c, 14, 49, 0
18, 115590, Note_on_c, 14, 50, 90
18, 115619, Note_on_c, 14, 50, 0
18, 115620, Note_on_c, 14, 52, 90
18, 115679, Note_on_c, 14, 52, 0
18, 115680, Note_on_c, 14, 50, 90
18, 115739, Note_on_c, 14, 50, 0
18, 115740, Note_on_c, 14, 49, 90
18, 115799, Note_on_c, 14, 49, 0
18, 115800, Note_on_c, 14, 47, 90
18, 115859, Note_on_c, 14, 47, 0
18, 115860, Note_on_c, 14, 45, 90
18, 115919, Note_on_c, 14, 45, 0
18, 115920, Note_on_c, 14, 57, 90
18, 115979, Note_on_c, 14, 57, 0
18, 115980, Note_on_c, 14, 57, 90
18, 116039, Note_on_c, 14, 57, 0
18, 116040, Note_on_c, 14, 57, 90
18, 116099, Note_on_c, 14, 57, 0
18, 116100, Note_on_c, 14, 57, 90
18, 116159, Note_on_c, 14, 57, 0
18, 116220, Note_on_c, 14, 51, 90
18, 116279, Note_on_c, 14, 51, 0
18, 116340, Note_on_c, 14, 55, 90
18, 116399, Note_on_c, 14, 55, 0
18, 116460, Note_on_c, 14, 48, 90
18, 116519, Note_on_c, 14, 48, 0
18, 116580, Note_on_c, 14, 54, 90
18, 116639, Note_on_c, 14, 54, 0
18, 116700, Note_on_c, 14, 47, 90
18, 116759, Note_on_c, 14, 47, 0
18, 116820, Note_on_c, 14, 52, 90
18, 116879, Note_on_c, 14, 52, 0
18, 116880, Note_on_c, 14, 50, 90
18, 116939, Note_on_c, 14, 50, 0
18, 116940, Note_on_c, 14, 49, 90
18, 116999, Note_on_c, 14, 49, 0
18, 117000, Note_on_c, 14, 47, 90
18, 117059, Note_on_c, 14, 47, 0
18, 117060, Note_on_c, 14, 46, 90
18, 117119, Note_on_c, 14, 46, 0
18, 117180, Note_on_c, 14, 42, 90
18, 117239, Note_on_c, 14, 42, 0
18, 117300, Note_on_c, 14, 47, 90
18, 117359, Note_on_c, 14, 47, 0
18, 117360, Note_on_c, 14, 59, 90
18, 117419, Note_on_c, 14, 59, 0
18, 117420, Note_on_c, 14, 59, 90
18, 117479, Note_on_c, 14, 59, 0
18, 117480, Note_on_c, 14, 59, 90
18, 117539, Note_on_c, 14, 59, 0
18, 117540, Note_on_c, 14, 47, 90
18, 117599, Note_on_c, 14, 47, 0
18, 117600, Note_on_c, 14, 59, 90
18, 117659, Note_on_c, 14, 59, 0
18, 117660, Note_on_c, 14, 59, 90
18, 117719, Note_on_c, 14, 59, 0
18, 117720, Note_on_c, 14, 59, 90
18, 117779, Note_on_c, 14, 59, 0
18, 117780, Note_on_c, 14, 47, 90
18, 117839, Note_on_c, 14, 47, 0
18, 117840, Note_on_c, 14, 59, 90
18, 117899, Note_on_c, 14, 59, 0
18, 117900, Note_on_c, 14, 59, 90
18, 117959, Note_on_c, 14, 59, 0
18, 117960, Note_on_c, 14, 59, 90
18, 118019, Note_on_c, 14, 59, 0
18, 118020, Note_on_c, 14, 43, 90
18, 118259, Note_on_c, 14, 43, 0
18, 118260, Note_on_c, 14, 42, 90
18, 118319, Note_on_c, 14, 42, 0
18, 118320, Note_on_c, 14, 54, 90
18, 118349, Note_on_c, 14, 54, 0
18, 118350, Note_on_c, 14, 56, 90
18, 118379, Note_on_c, 14, 56, 0
18, 118380, Note_on_c, 14, 58, 90
18, 118439, Note_on_c, 14, 58, 0
18, 118440, Note_on_c, 14, 54, 90
18, 118499, Note_on_c, 14, 54, 0
18, 118500, Note_on_c, 14, 59, 90
18, 118559, Note_on_c, 14, 59, 0
18, 118620, Note_on_c, 14, 52, 90
18, 118679, Note_on_c, 14, 52, 0
18, 118740, Note_on_c, 14, 47, 90
18, 118799, Note_on_c, 14, 47, 0
18, 118860, Note_on_c, 14, 50, 90
18, 118919, Note_on_c, 14, 50, 0
18, 118980, Note_on_c, 14, 49, 90
18, 119039, Note_on_c, 14, 49, 0
18, 119100, Note_on_c, 14, 47, 90
18, 119159, Note_on_c, 14, 47, 0
18, 119220, Note_on_c, 14, 54, 90
18, 119279, Note_on_c, 14, 54, 0
18, 119280, Note_on_c, 14, 56, 90
18, 119339, Note_on_c, 14, 56, 0
18, 119340, Note_on_c, 14, 58, 90
18, 119399, Note_on_c, 14, 58, 0
18, 119400, Note_on_c, 14, 54, 90
18, 119459, Note_on_c, 14, 54, 0
18, 119460, Note_on_c, 14, 59, 90
18, 119519, Note_on_c, 14, 59, 0
18, 119520, Note_on_c, 14, 47, 90
18, 119579, Note_on_c, 14, 47, 0
18, 119580, Note_on_c, 14, 47, 90
18, 119639, Note_on_c, 14, 47, 0
18, 119640, Note_on_c, 14, 47, 90
18, 119699, Note_on_c, 14, 47, 0
18, 119700, Note_on_c, 14, 59, 90
18, 119759, Note_on_c, 14, 59, 0
18, 119760, Note_on_c, 14, 47, 90
18, 119789, Note_on_c, 14, 47, 0
18, 119790, Note_on_c, 14, 49, 90
18, 119819, Note_on_c, 14, 49, 0
18, 119820, Note_on_c, 14, 50, 90
18, 119879, Note_on_c, 14, 50, 0
18, 119880, Note_on_c, 14, 49, 90
18, 119909, Note_on_c, 14, 49, 0
18, 119910, Note_on_c, 14, 50, 90
18, 119939, Note_on_c, 14, 50, 0
18, 119940, Note_on_c, 14, 52, 90
18, 119999, Note_on_c, 14, 52, 0
18, 120000, Note_on_c, 14, 50, 90
18, 120059, Note_on_c, 14, 50, 0
18, 120060, Note_on_c, 14, 55, 90
18, 120119, Note_on_c, 14, 55, 0
18, 120120, Note_on_c, 14, 52, 90
18, 120179, Note_on_c, 14, 52, 0
18, 120180, Note_on_c, 14, 54, 90
18, 120239, Note_on_c, 14, 54, 0
18, 120300, Note_on_c, 14, 52, 90
18, 120359, Note_on_c, 14, 52, 0
18, 120420, Note_on_c, 14, 51, 90
18, 120479, Note_on_c, 14, 51, 0
18, 120480, Note_on_c, 14, 54, 90
18, 120539, Note_on_c, 14, 54, 0
18, 120540, Note_on_c, 14, 57, 90
18, 120719, Note_on_c, 14, 57, 0
18, 120720, Note_on_c, 14, 55, 90
18, 120749, Note_on_c, 14, 55, 0
18, 120750, Note_on_c, 14, 54, 90
18, 120779, Note_on_c, 14, 54, 0
18, 120780, Note_on_c, 14, 52, 90
18, 120839, Note_on_c, 14, 52, 0
18, 120840, Note_on_c, 14, 50, 90
18, 120899, Note_on_c, 14, 50, 0
18, 120900, Note_on_c, 14, 49, 90
18, 120959, Note_on_c, 14, 49, 0
18, 120960, Note_on_c, 14, 61, 90
18, 120989, Note_on_c, 14, 61, 0
18, 120990, Note_on_c, 14, 59, 90
18, 121019, Note_on_c, 14, 59, 0
18, 121020, Note_on_c, 14, 57, 90
18, 121079, Note_on_c, 14, 57, 0
18, 121080, Note_on_c, 14, 55, 90
18, 121139, Note_on_c, 14, 55, 0
18, 121140, Note_on_c, 14, 54, 90
18, 121199, Note_on_c, 14, 54, 0
18, 121200, Note_on_c, 14, 52, 90
18, 121259, Note_on_c, 14, 52, 0
18, 121260, Note_on_c, 14, 50, 90
18, 121319, Note_on_c, 14, 50, 0
18, 121320, Note_on_c, 14, 49, 90
18, 121379, Note_on_c, 14, 49, 0
18, 121380, Note_on_c, 14, 47, 90
18, 121439, Note_on_c, 14, 47, 0
18, 121500, Note_on_c, 14, 52, 90
18, 121559, Note_on_c, 14, 52, 0
18, 121620, Note_on_c, 14, 45, 90
18, 121739, Note_on_c, 14, 45, 0
18, 121800, Note_on_c, 14, 49, 90
18, 121859, Note_on_c, 14, 49, 0
18, 121860, Note_on_c, 14, 50, 90
18, 121919, Note_on_c, 14, 50, 0
18, 121920, Note_on_c, 14, 42, 90
18, 121979, Note_on_c, 14, 42, 0
18, 121980, Note_on_c, 14, 43, 90
18, 122039, Note_on_c, 14, 43, 0
18, 122040, Note_on_c, 14, 45, 90
18, 122099, Note_on_c, 14, 45, 0
18, 122100, Note_on_c, 14, 50, 90
18, 122159, Note_on_c, 14, 50, 0
18, 122160, Note_on_c, 14, 38, 90
18, 122219, Note_on_c, 14, 38, 0
18, 122220, Note_on_c, 14, 50, 90
18, 122279, Note_on_c, 14, 50, 0
18, 122280, Note_on_c, 14, 52, 90
18, 122339, Note_on_c, 14, 52, 0
18, 122340, Note_on_c, 14, 54, 90
18, 122399, Note_on_c, 14, 54, 0
18, 122400, Note_on_c, 14, 55, 90
18, 122519, Note_on_c, 14, 55, 0
18, 122520, Note_on_c, 14, 54, 90
18, 122549, Note_on_c, 14, 54, 0
18, 122550, Note_on_c, 14, 52, 90
18, 122579, Note_on_c, 14, 52, 0
18, 122580, Note_on_c, 14, 54, 90
18, 122639, Note_on_c, 14, 54, 0
18, 122640, Note_on_c, 14, 55, 90
18, 122699, Note_on_c, 14, 55, 0
18, 122700, Note_on_c, 14, 54, 90
18, 122759, Note_on_c, 14, 54, 0
18, 122760, Note_on_c, 14, 52, 90
18, 122819, Note_on_c, 14, 52, 0
18, 122820, Note_on_c, 14, 51, 90
18, 122879, Note_on_c, 14, 51, 0
18, 122880, Note_on_c, 14, 59, 90
18, 122939, Note_on_c, 14, 59, 0
18, 122940, Note_on_c, 14, 59, 90
18, 122999, Note_on_c, 14, 59, 0
18, 123000, Note_on_c, 14, 59, 90
18, 123059, Note_on_c, 14, 59, 0
18, 123060, Note_on_c, 14, 52, 90
18, 123119, Note_on_c, 14, 52, 0
18, 123120, Note_on_c, 14, 59, 90
18, 123179, Note_on_c, 14, 59, 0
18, 123180, Note_on_c, 14, 55, 90
18, 123239, Note_on_c, 14, 55, 0
18, 123240, Note_on_c, 14, 52, 90
18, 123299, Note_on_c, 14, 52, 0
18, 123300, Note_on_c, 14, 49, 90
18, 123359, Note_on_c, 14, 49, 0
18, 123360, Note_on_c, 14, 46, 90
18, 123419, Note_on_c, 14, 46, 0
18, 123420, Note_on_c, 14, 42, 90
18, 123479, Note_on_c, 14, 42, 0
18, 123480, Note_on_c, 14, 46, 90
18, 123539, Note_on_c, 14, 46, 0
18, 123540, Note_on_c, 14, 47, 90
18, 123599, Note_on_c, 14, 47, 0
18, 123600, Note_on_c, 14, 49, 90
18, 123659, Note_on_c, 14, 49, 0
18, 123660, Note_on_c, 14, 50, 90
18, 123719, Note_on_c, 14, 50, 0
18, 123720, Note_on_c, 14, 52, 90
18, 123779, Note_on_c, 14, 52, 0
18, 123780, Note_on_c, 14, 54, 90
18, 123839, Note_on_c, 14, 54, 0
18, 123840, Note_on_c, 14, 52, 90
18, 123899, Note_on_c, 14, 52, 0
18, 123900, Note_on_c, 14, 51, 90
18, 123959, Note_on_c, 14, 51, 0
18, 123960, Note_on_c, 14, 47, 90
18, 124019, Note_on_c, 14, 47, 0
18, 124020, Note_on_c, 14, 52, 90
18, 124079, Note_on_c, 14, 52, 0
18, 124140, Note_on_c, 14, 50, 90
18, 124199, Note_on_c, 14, 50, 0
18, 124260, Note_on_c, 14, 49, 90
18, 124319, Note_on_c, 14, 49, 0
18, 124320, Note_on_c, 14, 47, 90
18, 124379, Note_on_c, 14, 47, 0
18, 124380, Note_on_c, 14, 46, 90
18, 124439, Note_on_c, 14, 46, 0
18, 124440, Note_on_c, 14, 49, 90
18, 124499, Note_on_c, 14, 49, 0
18, 124500, Note_on_c, 14, 42, 90
18, 124559, Note_on_c, 14, 42, 0
18, 124560, Note_on_c, 14, 52, 90
18, 124619, Note_on_c, 14, 52, 0
18, 124620, Note_on_c, 14, 50, 90
18, 124679, Note_on_c, 14, 50, 0
18, 124680, Note_on_c, 14, 47, 90
18, 124739, Note_on_c, 14, 47, 0
18, 124740, Note_on_c, 14, 44, 90
18, 124799, Note_on_c, 14, 44, 0
18, 124800, Note_on_c, 14, 44, 90
18, 124859, Note_on_c, 14, 44, 0
18, 124860, Note_on_c, 14, 44, 90
18, 124919, Note_on_c, 14, 44, 0
18, 124920, Note_on_c, 14, 44, 90
18, 124979, Note_on_c, 14, 44, 0
18, 124980, Note_on_c, 14, 46, 90
18, 125039, Note_on_c, 14, 46, 0
18, 125040, Note_on_c, 14, 42, 90
18, 125099, Note_on_c, 14, 42, 0
18, 125100, Note_on_c, 14, 54, 90
18, 125159, Note_on_c, 14, 54, 0
18, 125160, Note_on_c, 14, 58, 90
18, 125219, Note_on_c, 14, 58, 0
18, 125220, Note_on_c, 14, 59, 90
18, 125279, Note_on_c, 14, 59, 0
18, 125280, Note_on_c, 14, 61, 90
18, 125399, Note_on_c, 14, 61, 0
18, 125400, Note_on_c, 14, 59, 90
18, 125429, Note_on_c, 14, 59, 0
18, 125430, Note_on_c, 14, 58, 90
18, 125459, Note_on_c, 14, 58, 0
18, 125460, Note_on_c, 14, 59, 90
18, 125519, Note_on_c, 14, 59, 0
18, 125520, Note_on_c, 14, 54, 90
18, 125579, Note_on_c, 14, 54, 0
18, 125580, Note_on_c, 14, 50, 90
18, 125639, Note_on_c, 14, 50, 0
18, 125640, Note_on_c, 14, 59, 90
18, 125699, Note_on_c, 14, 59, 0
18, 125700, Note_on_c, 14, 58, 90
18, 125759, Note_on_c, 14, 58, 0
18, 125760, Note_on_c, 14, 59, 90
18, 125879, Note_on_c, 14, 59, 0
18, 125880, Note_on_c, 14, 58, 90
18, 125909, Note_on_c, 14, 58, 0
18, 125910, Note_on_c, 14, 56, 90
18, 125939, Note_on_c, 14, 56, 0
18, 125940, Note_on_c, 14, 58, 90
18, 125999, Note_on_c, 14, 58, 0
18, 126000, Note_on_c, 14, 54, 90
18, 126059, Note_on_c, 14, 54, 0
18, 126060, Note_on_c, 14, 49, 90
18, 126119, Note_on_c, 14, 49, 0
18, 126120, Note_on_c, 14, 58, 90
18, 126179, Note_on_c, 14, 58, 0
18, 126180, Note_on_c, 14, 59, 90
18, 126239, Note_on_c, 14, 59, 0
18, 126300, Note_on_c, 14, 52, 90
18, 126479, Note_on_c, 14, 52, 0
18, 126480, Note_on_c, 14, 50, 90
18, 126509, Note_on_c, 14, 50, 0
18, 126510, Note_on_c, 14, 49, 90
18, 126539, Note_on_c, 14, 49, 0
18, 126540, Note_on_c, 14, 50, 90
18, 126599, Note_on_c, 14, 50, 0
18, 126600, Note_on_c, 14, 55, 90
18, 126659, Note_on_c, 14, 55, 0
18, 126660, Note_on_c, 14, 54, 90
18, 126719, Note_on_c, 14, 54, 0
18, 126720, Note_on_c, 14, 52, 90
18, 126779, Note_on_c, 14, 52, 0
18, 126780, Note_on_c, 14, 54, 90
18, 126839, Note_on_c, 14, 54, 0
18, 126840, Note_on_c, 14, 42, 90
18, 126899, Note_on_c, 14, 42, 0
18, 126900, Note_on_c, 14, 47, 90
18, 126959, Note_on_c, 14, 47, 0
18, 126960, Note_on_c, 14, 59, 90
18, 127019, Note_on_c, 14, 59, 0
18, 127020, Note_on_c, 14, 57, 90
18, 127079, Note_on_c, 14, 57, 0
18, 127080, Note_on_c, 14, 55, 90
18, 127139, Note_on_c, 14, 55, 0
18, 127140, Note_on_c, 14, 54, 90
18, 127199, Note_on_c, 14, 54, 0
18, 127200, Note_on_c, 14, 52, 90
18, 127259, Note_on_c, 14, 52, 0
18, 127260, Note_on_c, 14, 51, 90
18, 127319, Note_on_c, 14, 51, 0
18, 127320, Note_on_c, 14, 47, 90
18, 127379, Note_on_c, 14, 47, 0
18, 127380, Note_on_c, 14, 52, 90
18, 127439, Note_on_c, 14, 52, 0
18, 127440, Note_on_c, 14, 54, 90
18, 127499, Note_on_c, 14, 54, 0
18, 127500, Note_on_c, 14, 55, 90
18, 127559, Note_on_c, 14, 55, 0
18, 127560, Note_on_c, 14, 52, 90
18, 127619, Note_on_c, 14, 52, 0
18, 127620, Note_on_c, 14, 54, 90
18, 127679, Note_on_c, 14, 54, 0
18, 127680, Note_on_c, 14, 49, 90
18, 127739, Note_on_c, 14, 49, 0
18, 127740, Note_on_c, 14, 46, 90
18, 127799, Note_on_c, 14, 46, 0
18, 127800, Note_on_c, 14, 42, 90
18, 127859, Note_on_c, 14, 42, 0
18, 127860, Note_on_c, 14, 47, 90
18, 127919, Note_on_c, 14, 47, 0
18, 127920, Note_on_c, 14, 50, 90
18, 127979, Note_on_c, 14, 50, 0
18, 127980, Note_on_c, 14, 54, 90
18, 128039, Note_on_c, 14, 54, 0
18, 128040, Note_on_c, 14, 59, 90
18, 128099, Note_on_c, 14, 59, 0
18, 128100, Note_on_c, 14, 55, 90
18, 128159, Note_on_c, 14, 55, 0
18, 128220, Note_on_c, 14, 54, 90
18, 128279, Note_on_c, 14, 54, 0
18, 128340, Note_on_c, 14, 52, 90
18, 128399, Note_on_c, 14, 52, 0
18, 128460, Note_on_c, 14, 50, 90
18, 128519, Note_on_c, 14, 50, 0
18, 128580, Note_on_c, 14, 49, 90
18, 128639, Note_on_c, 14, 49, 0
18, 128700, Note_on_c, 14, 47, 90
18, 128759, Note_on_c, 14, 47, 0
18, 128820, Note_on_c, 14, 46, 90
18, 128879, Note_on_c, 14, 46, 0
18, 128940, Note_on_c, 14, 42, 90
18, 128999, Note_on_c, 14, 42, 0
18, 129060, Note_on_c, 14, 47, 90
18, 129119, Note_on_c, 14, 47, 0
18, 129180, Note_on_c, 14, 51, 90
18, 129239, Note_on_c, 14, 51, 0
18, 129300, Note_on_c, 14, 53, 90
18, 129419, Note_on_c, 14, 53, 0
18, 129480, Note_on_c, 14, 49, 90
18, 129539, Note_on_c, 14, 49, 0
18, 129540, Note_on_c, 14, 50, 90
18, 129599, Note_on_c, 14, 50, 0
18, 129600, Note_on_c, 14, 52, 90
18, 129659, Note_on_c, 14, 52, 0
18, 129660, Note_on_c, 14, 54, 90
18, 129719, Note_on_c, 14, 54, 0
18, 129720, Note_on_c, 14, 42, 90
18, 129779, Note_on_c, 14, 42, 0
18, 129780, Note_on_c, 14, 47, 90
18, 130019, Note_on_c, 14, 47, 0
18, 130140, Note_on_c, 14, 49, 80
18, 130619, Note_on_c, 14, 49, 0
18, 130620, Note_on_c, 14, 50, 80
18, 131099, Note_on_c, 14, 50, 0
18, 131100, Note_on_c, 14, 52, 80
18, 131579, Note_on_c, 14, 52, 0
18, 131580, Note_on_c, 14, 54, 80
18, 132059, Note_on_c, 14, 54, 0
18, 132060, Note_on_c, 14, 55, 80
18, 132179, Note_on_c, 14, 55, 0
18, 132180, Note_on_c, 14, 47, 80
18, 132299, Note_on_c, 14, 47, 0
18, 132300, Note_on_c, 14, 50, 80
18, 132419, Note_on_c, 14, 50, 0
18, 132420, Note_on_c, 14, 43, 80
18, 132539, Note_on_c, 14, 43, 0
18, 132660, Note_on_c, 14, 55, 90
18, 132779, Note_on_c, 14, 55, 0
18, 132780, Note_on_c, 14, 48, 90
18, 133019, Note_on_c, 14, 48, 0
18, 133020, Note_on_c, 14, 47, 90
18, 133139, Note_on_c, 14, 47, 0
18, 133140, Note_on_c, 14, 45, 90
18, 133259, Note_on_c, 14, 45, 0
18, 133260, Note_on_c, 14, 44, 90
18, 133379, Note_on_c, 14, 44, 0
18, 133380, Note_on_c, 14, 43, 90
18, 133619, Note_on_c, 14, 43, 0
18, 133620, Note_on_c, 14, 48, 90
18, 133859, Note_on_c, 14, 48, 0
18, 133860, Note_on_c, 14, 55, 90
18, 133979, Note_on_c, 14, 55, 0
18, 133980, Note_on_c, 14, 56, 90
18, 134099, Note_on_c, 14, 56, 0
18, 134100, Note_on_c, 14, 57, 90
18, 134339, Note_on_c, 14, 57, 0
18, 134340, Note_on_c, 14, 52, 90
18, 134459, Note_on_c, 14, 52, 0
18, 134460, Note_on_c, 14, 47, 90
18, 134519, Note_on_c, 14, 47, 0
18, 134520, Note_on_c, 14, 48, 90
18, 134579, Note_on_c, 14, 48, 0
18, 134580, Note_on_c, 14, 50, 90
18, 134819, Note_on_c, 14, 50, 0
18, 134820, Note_on_c, 14, 50, 90
18, 134939, Note_on_c, 14, 50, 0
18, 134940, Note_on_c, 14, 55, 90
18, 134999, Note_on_c, 14, 55, 0
18, 135000, Note_on_c, 14, 54, 90
18, 135059, Note_on_c, 14, 54, 0
18, 135060, Note_on_c, 14, 52, 90
18, 135179, Note_on_c, 14, 52, 0
18, 135180, Note_on_c, 14, 50, 90
18, 135299, Note_on_c, 14, 50, 0
18, 135300, Note_on_c, 14, 48, 90
18, 135419, Note_on_c, 14, 48, 0
18, 135420, Note_on_c, 14, 50, 90
18, 135539, Note_on_c, 14, 50, 0
18, 135540, Note_on_c, 14, 43, 90
18, 135779, Note_on_c, 14, 43, 0
18, 135780, Note_on_c, 14, 48, 90
18, 135839, Note_on_c, 14, 48, 0
18, 135840, Note_on_c, 14, 50, 90
18, 135899, Note_on_c, 14, 50, 0
18, 135900, Note_on_c, 14, 52, 90
18, 136019, Note_on_c, 14, 52, 0
18, 136020, Note_on_c, 14, 50, 90
18, 136079, Note_on_c, 14, 50, 0
18, 136080, Note_on_c, 14, 52, 90
18, 136139, Note_on_c, 14, 52, 0
18, 136140, Note_on_c, 14, 53, 90
18, 136259, Note_on_c, 14, 53, 0
18, 136260, Note_on_c, 14, 52, 90
18, 136319, Note_on_c, 14, 52, 0
18, 136320, Note_on_c, 14, 50, 90
18, 136379, Note_on_c, 14, 50, 0
18, 136380, Note_on_c, 14, 52, 90
18, 136439, Note_on_c, 14, 52, 0
18, 136440, Note_on_c, 14, 54, 90
18, 136499, Note_on_c, 14, 54, 0
18, 136500, Note_on_c, 14, 55, 90
18, 136619, Note_on_c, 14, 55, 0
18, 136620, Note_on_c, 14, 56, 90
18, 136739, Note_on_c, 14, 56, 0
18, 136740, Note_on_c, 14, 57, 90
18, 136979, Note_on_c, 14, 57, 0
18, 136980, Note_on_c, 14, 59, 90
18, 137099, Note_on_c, 14, 59, 0
18, 137100, Note_on_c, 14, 52, 90
18, 137219, Note_on_c, 14, 52, 0
18, 137220, Note_on_c, 14, 57, 90
18, 137459, Note_on_c, 14, 57, 0
18, 137460, Note_on_c, 14, 52, 90
18, 137579, Note_on_c, 14, 52, 0
18, 137580, Note_on_c, 14, 50, 90
18, 137639, Note_on_c, 14, 50, 0
18, 137640, Note_on_c, 14, 52, 90
18, 137699, Note_on_c, 14, 52, 0
18, 137700, Note_on_c, 14, 54, 90
18, 137939, Note_on_c, 14, 54, 0
18, 137940, Note_on_c, 14, 55, 90
18, 137999, Note_on_c, 14, 55, 0
18, 138000, Note_on_c, 14, 57, 90
18, 138059, Note_on_c, 14, 57, 0
18, 138060, Note_on_c, 14, 59, 90
18, 138239, Note_on_c, 14, 59, 0
18, 138240, Note_on_c, 14, 57, 90
18, 138299, Note_on_c, 14, 57, 0
18, 138300, Note_on_c, 14, 59, 90
18, 138359, Note_on_c, 14, 59, 0
18, 138360, Note_on_c, 14, 60, 90
18, 138419, Note_on_c, 14, 60, 0
18, 138420, Note_on_c, 14, 62, 90
18, 138539, Note_on_c, 14, 62, 0
18, 138540, Note_on_c, 14, 50, 90
18, 138659, Note_on_c, 14, 50, 0
18, 138660, Note_on_c, 14, 55, 90
18, 138899, Note_on_c, 14, 55, 0
18, 139020, Note_on_c, 14, 52, 80
18, 139980, Note_on_c, 14, 52, 0
18, 139980, Note_on_c, 14, 46, 80
18, 140700, Note_on_c, 14, 46, 0
18, 140700, Note_on_c, 14, 47, 80
18, 141060, Note_on_c, 14, 47, 0
18, 141060, Note_on_c, 14, 45, 80
18, 141180, Note_on_c, 14, 45, 0
18, 141180, Note_on_c, 14, 50, 80
18, 141300, Note_on_c, 14, 50, 0
18, 141420, Note_on_c, 14, 49, 80
18, 141540, Note_on_c, 14, 49, 0
18, 141540, Note_on_c, 14, 42, 80
18, 141660, Note_on_c, 14, 42, 0
18, 141900, Note_on_c, 14, 54, 90
18, 142019, Note_on_c, 14, 54, 0
18, 142020, Note_on_c, 14, 54, 90
18, 142049, Note_on_c, 14, 54, 0
18, 142050, Note_on_c, 14, 56, 90
18, 142079, Note_on_c, 14, 56, 0
18, 142080, Note_on_c, 14, 57, 90
18, 142109, Note_on_c, 14, 57, 0
18, 142110, Note_on_c, 14, 59, 90
18, 142139, Note_on_c, 14, 59, 0
18, 142140, Note_on_c, 14, 61, 90
18, 142199, Note_on_c, 14, 61, 0
18, 142200, Note_on_c, 14, 49, 90
18, 142259, Note_on_c, 14, 49, 0
18, 142260, Note_on_c, 14, 50, 90
18, 142379, Note_on_c, 14, 50, 0
18, 142380, Note_on_c, 14, 50, 90
18, 142499, Note_on_c, 14, 50, 0
18, 142500, Note_on_c, 14, 49, 90
18, 142559, Note_on_c, 14, 49, 0
18, 142560, Note_on_c, 14, 47, 90
18, 142619, Note_on_c, 14, 47, 0
18, 142620, Note_on_c, 14, 49, 90
18, 142739, Note_on_c, 14, 49, 0
18, 142740, Note_on_c, 14, 42, 90
18, 142859, Note_on_c, 14, 42, 0
18, 142860, Note_on_c, 14, 54, 90
18, 142979, Note_on_c, 14, 54, 0
18, 142980, Note_on_c, 14, 56, 90
18, 143099, Note_on_c, 14, 56, 0
18, 143100, Note_on_c, 14, 57, 90
18, 143159, Note_on_c, 14, 57, 0
18, 143160, Note_on_c, 14, 59, 90
18, 143219, Note_on_c, 14, 59, 0
18, 143220, Note_on_c, 14, 61, 90
18, 143339, Note_on_c, 14, 61, 0
18, 143340, Note_on_c, 14, 49, 90
18, 143459, Note_on_c, 14, 49, 0
18, 143460, Note_on_c, 14, 54, 90
18, 143519, Note_on_c, 14, 54, 0
18, 143520, Note_on_c, 14, 52, 90
18, 143579, Note_on_c, 14, 52, 0
18, 143580, Note_on_c, 14, 50, 90
18, 143639, Note_on_c, 14, 50, 0
18, 143640, Note_on_c, 14, 49, 90
18, 143699, Note_on_c, 14, 49, 0
18, 143700, Note_on_c, 14, 50, 90
18, 143759, Note_on_c, 14, 50, 0
18, 143760, Note_on_c, 14, 47, 90
18, 143819, Note_on_c, 14, 47, 0
18, 143820, Note_on_c, 14, 52, 90
18, 143879, Note_on_c, 14, 52, 0
18, 143880, Note_on_c, 14, 40, 90
18, 143939, Note_on_c, 14, 40, 0
18, 143940, Note_on_c, 14, 45, 90
18, 143999, Note_on_c, 14, 45, 0
18, 144000, Note_on_c, 14, 57, 90
18, 144059, Note_on_c, 14, 57, 0
18, 144060, Note_on_c, 14, 56, 90
18, 144119, Note_on_c, 14, 56, 0
18, 144120, Note_on_c, 14, 54, 90
18, 144239, Note_on_c, 14, 54, 0
18, 144240, Note_on_c, 14, 53, 90
18, 144299, Note_on_c, 14, 53, 0
18, 144300, Note_on_c, 14, 54, 90
18, 144359, Note_on_c, 14, 54, 0
18, 144360, Note_on_c, 14, 50, 90
18, 144419, Note_on_c, 14, 50, 0
18, 144420, Note_on_c, 14, 47, 90
18, 144479, Note_on_c, 14, 47, 0
18, 144480, Note_on_c, 14, 44, 90
18, 144539, Note_on_c, 14, 44, 0
18, 144540, Note_on_c, 14, 49, 90
18, 144659, Note_on_c, 14, 49, 0
18, 144660, Note_on_c, 14, 42, 90
18, 144779, Note_on_c, 14, 42, 0
18, 144780, Note_on_c, 14, 54, 90
18, 144839, Note_on_c, 14, 54, 0
18, 144840, Note_on_c, 14, 52, 90
18, 144899, Note_on_c, 14, 52, 0
18, 144900, Note_on_c, 14, 50, 90
18, 144959, Note_on_c, 14, 50, 0
18, 144960, Note_on_c, 14, 49, 90
18, 145019, Note_on_c, 14, 49, 0
18, 145020, Note_on_c, 14, 48, 90
18, 145139, Note_on_c, 14, 48, 0
18, 145140, Note_on_c, 14, 49, 90
18, 145259, Note_on_c, 14, 49, 0
18, 145260, Note_on_c, 14, 45, 90
18, 145379, Note_on_c, 14, 45, 0
18, 145380, Note_on_c, 14, 47, 90
18, 145439, Note_on_c, 14, 47, 0
18, 145440, Note_on_c, 14, 49, 90
18, 145499, Note_on_c, 14, 49, 0
18, 145500, Note_on_c, 14, 51, 90
18, 145559, Note_on_c, 14, 51, 0
18, 145560, Note_on_c, 14, 47, 90
18, 145619, Note_on_c, 14, 47, 0
18, 145620, Note_on_c, 14, 52, 90
18, 145739, Note_on_c, 14, 52, 0
18, 145740, Note_on_c, 14, 53, 90
18, 145799, Note_on_c, 14, 53, 0
18, 145800, Note_on_c, 14, 49, 90
18, 145859, Note_on_c, 14, 49, 0
18, 145860, Note_on_c, 14, 54, 90
18, 145919, Note_on_c, 14, 54, 0
18, 145920, Note_on_c, 14, 42, 90
18, 145979, Note_on_c, 14, 42, 0
18, 145980, Note_on_c, 14, 54, 90
18, 146039, Note_on_c, 14, 54, 0
18, 146040, Note_on_c, 14, 50, 90
18, 146099, Note_on_c, 14, 50, 0
18, 146100, Note_on_c, 14, 55, 90
18, 146159, Note_on_c, 14, 55, 0
18, 146160, Note_on_c, 14, 43, 90
18, 146219, Note_on_c, 14, 43, 0
18, 146220, Note_on_c, 14, 56, 90
18, 146279, Note_on_c, 14, 56, 0
18, 146280, Note_on_c, 14, 52, 90
18, 146339, Note_on_c, 14, 52, 0
18, 146340, Note_on_c, 14, 57, 90
18, 146399, Note_on_c, 14, 57, 0
18, 146400, Note_on_c, 14, 45, 90
18, 146459, Note_on_c, 14, 45, 0
18, 146460, Note_on_c, 14, 58, 90
18, 146519, Note_on_c, 14, 58, 0
18, 146520, Note_on_c, 14, 54, 90
18, 146579, Note_on_c, 14, 54, 0
18, 146580, Note_on_c, 14, 59, 90
18, 146639, Note_on_c, 14, 59, 0
18, 146640, Note_on_c, 14, 47, 90
18, 146699, Note_on_c, 14, 47, 0
18, 146700, Note_on_c, 14, 60, 90
18, 146759, Note_on_c, 14, 60, 0
18, 146760, Note_on_c, 14, 56, 90
18, 146819, Note_on_c, 14, 56, 0
18, 146820, Note_on_c, 14, 61, 90
18, 146879, Note_on_c, 14, 61, 0
18, 146880, Note_on_c, 14, 60, 90
18, 146939, Note_on_c, 14, 60, 0
18, 146940, Note_on_c, 14, 61, 90
18, 146999, Note_on_c, 14, 61, 0
18, 147000, Note_on_c, 14, 49, 90
18, 147059, Note_on_c, 14, 49, 0
18, 147060, Note_on_c, 14, 42, 90
18, 147179, Note_on_c, 14, 42, 0
18, 147300, Note_on_c, 14, 62, 90
18, 147359, Note_on_c, 14, 62, 0
18, 147360, Note_on_c, 14, 50, 90
18, 147419, Note_on_c, 14, 50, 0
18, 147420, Note_on_c, 14, 61, 90
18, 147479, Note_on_c, 14, 61, 0
18, 147480, Note_on_c, 14, 59, 90
18, 147539, Note_on_c, 14, 59, 0
18, 147540, Note_on_c, 14, 47, 90
18, 147599, Note_on_c, 14, 47, 0
18, 147600, Note_on_c, 14, 59, 90
18, 147659, Note_on_c, 14, 59, 0
18, 147660, Note_on_c, 14, 61, 90
18, 147719, Note_on_c, 14, 61, 0
18, 147720, Note_on_c, 14, 49, 90
18, 147779, Note_on_c, 14, 49, 0
18, 147780, Note_on_c, 14, 51, 90
18, 147839, Note_on_c, 14, 51, 0
18, 147840, Note_on_c, 14, 52, 90
18, 147899, Note_on_c, 14, 52, 0
18, 147900, Note_on_c, 14, 55, 90
18, 147959, Note_on_c, 14, 55, 0
18, 147960, Note_on_c, 14, 59, 90
18, 148019, Note_on_c, 14, 59, 0
18, 148020, Note_on_c, 14, 64, 90
18, 148079, Note_on_c, 14, 64, 0
18, 148080, Note_on_c, 14, 52, 90
18, 148139, Note_on_c, 14, 52, 0
18, 148140, Note_on_c, 14, 62, 90
18, 148199, Note_on_c, 14, 62, 0
18, 148200, Note_on_c, 14, 61, 90
18, 148259, Note_on_c, 14, 61, 0
18, 148260, Note_on_c, 14, 49, 90
18, 148319, Note_on_c, 14, 49, 0
18, 148320, Note_on_c, 14, 59, 90
18, 148379, Note_on_c, 14, 59, 0
18, 148380, Note_on_c, 14, 57, 90
18, 148439, Note_on_c, 14, 57, 0
18, 148440, Note_on_c, 14, 54, 90
18, 148499, Note_on_c, 14, 54, 0
18, 148500, Note_on_c, 14, 57, 90
18, 148559, Note_on_c, 14, 57, 0
18, 148560, Note_on_c, 14, 50, 90
18, 148619, Note_on_c, 14, 50, 0
18, 148620, Note_on_c, 14, 54, 90
18, 148679, Note_on_c, 14, 54, 0
18, 148680, Note_on_c, 14, 57, 90
18, 148739, Note_on_c, 14, 57, 0
18, 148740, Note_on_c, 14, 62, 90
18, 148799, Note_on_c, 14, 62, 0
18, 148800, Note_on_c, 14, 50, 90
18, 148859, Note_on_c, 14, 50, 0
18, 148860, Note_on_c, 14, 61, 90
18, 148919, Note_on_c, 14, 61, 0
18, 148920, Note_on_c, 14, 59, 90
18, 148979, Note_on_c, 14, 59, 0
18, 148980, Note_on_c, 14, 56, 90
18, 149039, Note_on_c, 14, 56, 0
18, 149040, Note_on_c, 14, 57, 90
18, 149099, Note_on_c, 14, 57, 0
18, 149100, Note_on_c, 14, 50, 90
18, 149159, Note_on_c, 14, 50, 0
18, 149160, Note_on_c, 14, 52, 90
18, 149219, Note_on_c, 14, 52, 0
18, 149220, Note_on_c, 14, 40, 90
18, 149279, Note_on_c, 14, 40, 0
18, 149280, Note_on_c, 14, 45, 90
18, 149339, Note_on_c, 14, 45, 0
18, 149520, Note_on_c, 14, 61, 90
18, 149579, Note_on_c, 14, 61, 0
18, 149580, Note_on_c, 14, 62, 90
18, 149639, Note_on_c, 14, 62, 0
18, 149640, Note_on_c, 14, 57, 90
18, 149699, Note_on_c, 14, 57, 0
18, 149880, Note_on_c, 14, 49, 90
18, 149939, Note_on_c, 14, 49, 0
18, 149940, Note_on_c, 14, 50, 90
18, 149999, Note_on_c, 14, 50, 0
18, 150000, Note_on_c, 14, 45, 90
18, 150059, Note_on_c, 14, 45, 0
18, 150060, Note_on_c, 14, 57, 90
18, 150089, Note_on_c, 14, 57, 0
18, 150090, Note_on_c, 14, 55, 90
18, 150119, Note_on_c, 14, 55, 0
18, 150120, Note_on_c, 14, 54, 90
18, 150149, Note_on_c, 14, 54, 0
18, 150150, Note_on_c, 14, 52, 90
18, 150179, Note_on_c, 14, 52, 0
18, 150180, Note_on_c, 14, 50, 90
18, 150239, Note_on_c, 14, 50, 0
18, 150360, Note_on_c, 14, 47, 90
18, 150419, Note_on_c, 14, 47, 0
18, 150540, Note_on_c, 14, 42, 90
18, 150599, Note_on_c, 14, 42, 0
18, 150600, Note_on_c, 14, 43, 90
18, 150659, Note_on_c, 14, 43, 0
18, 150660, Note_on_c, 14, 45, 90
18, 150719, Note_on_c, 14, 45, 0
18, 150720, Note_on_c, 14, 38, 90
18, 150779, Note_on_c, 14, 38, 0
18, 150780, Note_on_c, 14, 55, 90
18, 150809, Note_on_c, 14, 55, 0
18, 150810, Note_on_c, 14, 54, 90
18, 150839, Note_on_c, 14, 54, 0
18, 150840, Note_on_c, 14, 52, 90
18, 150869, Note_on_c, 14, 52, 0
18, 150870, Note_on_c, 14, 50, 90
18, 150899, Note_on_c, 14, 50, 0
18, 150900, Note_on_c, 14, 49, 90
18, 150959, Note_on_c, 14, 49, 0
18, 150960, Note_on_c, 14, 52, 90
18, 150989, Note_on_c, 14, 52, 0
18, 150990, Note_on_c, 14, 50, 90
18, 151019, Note_on_c, 14, 50, 0
18, 151020, Note_on_c, 14, 49, 90
18, 151049, Note_on_c, 14, 49, 0
18, 151050, Note_on_c, 14, 47, 90
18, 151079, Note_on_c, 14, 47, 0
18, 151080, Note_on_c, 14, 45, 90
18, 151139, Note_on_c, 14, 45, 0
18, 151140, Note_on_c, 14, 49, 90
18, 151199, Note_on_c, 14, 49, 0
18, 151200, Note_on_c, 14, 52, 90
18, 151259, Note_on_c, 14, 52, 0
18, 151260, Note_on_c, 14, 57, 90
18, 151319, Note_on_c, 14, 57, 0
18, 151320, Note_on_c, 14, 52, 90
18, 151379, Note_on_c, 14, 52, 0
18, 151380, Note_on_c, 14, 49, 90
18, 151439, Note_on_c, 14, 49, 0
18, 151440, Note_on_c, 14, 45, 90
18, 151499, Note_on_c, 14, 45, 0
18, 151500, Note_on_c, 14, 42, 90
18, 151559, Note_on_c, 14, 42, 0
18, 151560, Note_on_c, 14, 45, 90
18, 151619, Note_on_c, 14, 45, 0
18, 151620, Note_on_c, 14, 50, 90
18, 151679, Note_on_c, 14, 50, 0
18, 151800, Note_on_c, 14, 48, 90
18, 151859, Note_on_c, 14, 48, 0
18, 151980, Note_on_c, 14, 47, 90
18, 152039, Note_on_c, 14, 47, 0
18, 152100, Note_on_c, 14, 43, 90
18, 152159, Note_on_c, 14, 43, 0
18, 152160, Note_on_c, 14, 50, 90
18, 152219, Note_on_c, 14, 50, 0
18, 152340, Note_on_c, 14, 38, 90
18, 152399, Note_on_c, 14, 38, 0
18, 152880, Note_on_c, 14, 50, 90
18, 152939, Note_on_c, 14, 50, 0
18, 152940, Note_on_c, 14, 54, 90
18, 152999, Note_on_c, 14, 54, 0
18, 153000, Note_on_c, 14, 57, 90
18, 153059, Note_on_c, 14, 57, 0
18, 153060, Note_on_c, 14, 62, 90
18, 153119, Note_on_c, 14, 62, 0
18, 153120, Note_on_c, 14, 50, 90
18, 153179, Note_on_c, 14, 50, 0
18, 153180, Note_on_c, 14, 61, 90
18, 153239, Note_on_c, 14, 61, 0
18, 153240, Note_on_c, 14, 59, 90
18, 153299, Note_on_c, 14, 59, 0
18, 153300, Note_on_c, 14, 47, 90
18, 153359, Note_on_c, 14, 47, 0
18, 153360, Note_on_c, 14, 59, 90
18, 153419, Note_on_c, 14, 59, 0
18, 153420, Note_on_c, 14, 61, 90
18, 153479, Note_on_c, 14, 61, 0
18, 153480, Note_on_c, 14, 49, 90
18, 153539, Note_on_c, 14, 49, 0
18, 153540, Note_on_c, 14, 51, 90
18, 153599, Note_on_c, 14, 51, 0
18, 153600, Note_on_c, 14, 52, 90
18, 153659, Note_on_c, 14, 52, 0
18, 153660, Note_on_c, 14, 55, 90
18, 153719, Note_on_c, 14, 55, 0
18, 153720, Note_on_c, 14, 59, 90
18, 153779, Note_on_c, 14, 59, 0
18, 153780, Note_on_c, 14, 64, 90
18, 153839, Note_on_c, 14, 64, 0
18, 153840, Note_on_c, 14, 52, 90
18, 153899, Note_on_c, 14, 52, 0
18, 153900, Note_on_c, 14, 62, 90
18, 153959, Note_on_c, 14, 62, 0
18, 153960, Note_on_c, 14, 61, 90
18, 154019, Note_on_c, 14, 61, 0
18, 154020, Note_on_c, 14, 49, 90
18, 154079, Note_on_c, 14, 49, 0
18, 154080, Note_on_c, 14, 59, 90
18, 154139, Note_on_c, 14, 59, 0
18, 154140, Note_on_c, 14, 57, 90
18, 154199, Note_on_c, 14, 57, 0
18, 154200, Note_on_c, 14, 54, 90
18, 154259, Note_on_c, 14, 54, 0
18, 154260, Note_on_c, 14, 57, 90
18, 154319, Note_on_c, 14, 57, 0
18, 154320, Note_on_c, 14, 50, 90
18, 154379, Note_on_c, 14, 50, 0
18, 154380, Note_on_c, 14, 54, 90
18, 154439, Note_on_c, 14, 54, 0
18, 154440, Note_on_c, 14, 57, 90
18, 154499, Note_on_c, 14, 57, 0
18, 154500, Note_on_c, 14, 62, 90
18, 154559, Note_on_c, 14, 62, 0
18, 154560, Note_on_c, 14, 50, 90
18, 154619, Note_on_c, 14, 50, 0
18, 154620, Note_on_c, 14, 61, 90
18, 154679, Note_on_c, 14, 61, 0
18, 154680, Note_on_c, 14, 59, 90
18, 154739, Note_on_c, 14, 59, 0
18, 154740, Note_on_c, 14, 56, 90
18, 154799, Note_on_c, 14, 56, 0
18, 154800, Note_on_c, 14, 57, 90
18, 154859, Note_on_c, 14, 57, 0
18, 154860, Note_on_c, 14, 50, 90
18, 154919, Note_on_c, 14, 50, 0
18, 154920, Note_on_c, 14, 52, 90
18, 154979, Note_on_c, 14, 52, 0
18, 154980, Note_on_c, 14, 40, 90
18, 155039, Note_on_c, 14, 40, 0
18, 155040, Note_on_c, 14, 45, 90
18, 155099, Note_on_c, 14, 45, 0
18, 155280, Note_on_c, 14, 61, 90
18, 155339, Note_on_c, 14, 61, 0
18, 155340, Note_on_c, 14, 62, 90
18, 155399, Note_on_c, 14, 62, 0
18, 155400, Note_on_c, 14, 57, 90
18, 155459, Note_on_c, 14, 57, 0
18, 155640, Note_on_c, 14, 49, 90
18, 155699, Note_on_c, 14, 49, 0
18, 155700, Note_on_c, 14, 50, 90
18, 155759, Note_on_c, 14, 50, 0
18, 155760, Note_on_c, 14, 45, 90
18, 155819, Note_on_c, 14, 45, 0
18, 155820, Note_on_c, 14, 49, 90
18, 155879, Note_on_c, 14, 49, 0
18, 155880, Note_on_c, 14, 52, 90
18, 155939, Note_on_c, 14, 52, 0
18, 155940, Note_on_c, 14, 57, 90
18, 155999, Note_on_c, 14, 57, 0
18, 156000, Note_on_c, 14, 45, 90
18, 156059, Note_on_c, 14, 45, 0
18, 156060, Note_on_c, 14, 57, 90
18, 156119, Note_on_c, 14, 57, 0
18, 156120, Note_on_c, 14, 55, 90
18, 156179, Note_on_c, 14, 55, 0
18, 156180, Note_on_c, 14, 43, 90
18, 156239, Note_on_c, 14, 43, 0
18, 156240, Note_on_c, 14, 55, 90
18, 156299, Note_on_c, 14, 55, 0
18, 156300, Note_on_c, 14, 54, 90
18, 156359, Note_on_c, 14, 54, 0
18, 156360, Note_on_c, 14, 42, 90
18, 156419, Note_on_c, 14, 42, 0
18, 156420, Note_on_c, 14, 52, 90
18, 156479, Note_on_c, 14, 52, 0
18, 156480, Note_on_c, 14, 50, 90
18, 156539, Note_on_c, 14, 50, 0
18, 156540, Note_on_c, 14, 38, 90
18, 156599, Note_on_c, 14, 38, 0
18, 156600, Note_on_c, 14, 49, 90
18, 156659, Note_on_c, 14, 49, 0
18, 156660, Note_on_c, 14, 50, 90
18, 156719, Note_on_c, 14, 50, 0
18, 156720, Note_on_c, 14, 38, 90
18, 156779, Note_on_c, 14, 38, 0
18, 156780, Note_on_c, 14, 62, 90
18, 156839, Note_on_c, 14, 62, 0
18, 156840, Note_on_c, 14, 60, 90
18, 156899, Note_on_c, 14, 60, 0
18, 156900, Note_on_c, 14, 48, 90
18, 156959, Note_on_c, 14, 48, 0
18, 156960, Note_on_c, 14, 60, 90
18, 157019, Note_on_c, 14, 60, 0
18, 157020, Note_on_c, 14, 59, 90
18, 157079, Note_on_c, 14, 59, 0
18, 157080, Note_on_c, 14, 47, 90
18, 157139, Note_on_c, 14, 47, 0
18, 157140, Note_on_c, 14, 57, 90
18, 157199, Note_on_c, 14, 57, 0
18, 157200, Note_on_c, 14, 55, 90
18, 157259, Note_on_c, 14, 55, 0
18, 157260, Note_on_c, 14, 43, 90
18, 157319, Note_on_c, 14, 43, 0
18, 157320, Note_on_c, 14, 54, 90
18, 157379, Note_on_c, 14, 54, 0
18, 157380, Note_on_c, 14, 55, 90
18, 157439, Note_on_c, 14, 55, 0
18, 157440, Note_on_c, 14, 43, 90
18, 157499, Note_on_c, 14, 43, 0
18, 157500, Note_on_c, 14, 55, 90
18, 157619, Note_on_c, 14, 55, 0
18, 157620, Note_on_c, 14, 54, 90
18, 157679, Note_on_c, 14, 54, 0
18, 157680, Note_on_c, 14, 59, 90
18, 157739, Note_on_c, 14, 59, 0
18, 157740, Note_on_c, 14, 57, 90
18, 157799, Note_on_c, 14, 57, 0
18, 157800, Note_on_c, 14, 55, 90
18, 157859, Note_on_c, 14, 55, 0
18, 157860, Note_on_c, 14, 57, 90
18, 157919, Note_on_c, 14, 57, 0
18, 157920, Note_on_c, 14, 50, 90
18, 158039, Note_on_c, 14, 50, 0
18, 158160, Note_on_c, 14, 62, 90
18, 158219, Note_on_c, 14, 62, 0
18, 158220, Note_on_c, 14, 55, 90
18, 158279, Note_on_c, 14, 55, 0
18, 158280, Note_on_c, 14, 50, 90
18, 158399, Note_on_c, 14, 50, 0
18, 158520, Note_on_c, 14, 50, 90
18, 158579, Note_on_c, 14, 50, 0
18, 158580, Note_on_c, 14, 43, 90
18, 158639, Note_on_c, 14, 43, 0
18, 158640, Note_on_c, 14, 38, 90
18, 158699, Note_on_c, 14, 38, 0
18, 158700, Note_on_c, 14, 50, 90
18, 158729, Note_on_c, 14, 50, 0
18, 158730, Note_on_c, 14, 52, 90
18, 158759, Note_on_c, 14, 52, 0
18, 158760, Note_on_c, 14, 54, 90
18, 158789, Note_on_c, 14, 54, 0
18, 158790, Note_on_c, 14, 55, 90
18, 158819, Note_on_c, 14, 55, 0
18, 158820, Note_on_c, 14, 57, 90
18, 158879, Note_on_c, 14, 57, 0
18, 159000, Note_on_c, 14, 55, 90
18, 159059, Note_on_c, 14, 55, 0
18, 159180, Note_on_c, 14, 54, 90
18, 159239, Note_on_c, 14, 54, 0
18, 159240, Note_on_c, 14, 52, 90
18, 159299, Note_on_c, 14, 52, 0
18, 159300, Note_on_c, 14, 50, 90
18, 159359, Note_on_c, 14, 50, 0
18, 159360, Note_on_c, 14, 55, 90
18, 159419, Note_on_c, 14, 55, 0
18, 159420, Note_on_c, 14, 52, 90
18, 159479, Note_on_c, 14, 52, 0
18, 159480, Note_on_c, 14, 54, 90
18, 159539, Note_on_c, 14, 54, 0
18, 159540, Note_on_c, 14, 47, 90
18, 159599, Note_on_c, 14, 47, 0
18, 159720, Note_on_c, 14, 42, 90
18, 159779, Note_on_c, 14, 42, 0
18, 159900, Note_on_c, 14, 43, 90
18, 159959, Note_on_c, 14, 43, 0
18, 159960, Note_on_c, 14, 42, 90
18, 160019, Note_on_c, 14, 42, 0
18, 160020, Note_on_c, 14, 40, 90
18, 160079, Note_on_c, 14, 40, 0
18, 160080, Note_on_c, 14, 38, 90
18, 160139, Note_on_c, 14, 38, 0
18, 160140, Note_on_c, 14, 49, 90
18, 160199, Note_on_c, 14, 49, 0
18, 160200, Note_on_c, 14, 47, 90
18, 160259, Note_on_c, 14, 47, 0
18, 160260, Note_on_c, 14, 45, 90
18, 160379, Note_on_c, 14, 45, 0
18, 160440, Note_on_c, 14, 57, 90
18, 160499, Note_on_c, 14, 57, 0
18, 160500, Note_on_c, 14, 52, 90
18, 160559, Note_on_c, 14, 52, 0
18, 160560, Note_on_c, 14, 54, 90
18, 160619, Note_on_c, 14, 54, 0
18, 160620, Note_on_c, 14, 49, 90
18, 160679, Note_on_c, 14, 49, 0
18, 160680, Note_on_c, 14, 47, 90
18, 160739, Note_on_c, 14, 47, 0
18, 160740, Note_on_c, 14, 45, 90
18, 160799, Note_on_c, 14, 45, 0
18, 160800, Note_on_c, 14, 50, 90
18, 160859, Note_on_c, 14, 50, 0
18, 160860, Note_on_c, 14, 54, 90
18, 160919, Note_on_c, 14, 54, 0
18, 160920, Note_on_c, 14, 57, 90
18, 160979, Note_on_c, 14, 57, 0
18, 160980, Note_on_c, 14, 62, 90
18, 161039, Note_on_c, 14, 62, 0
18, 161520, Note_on_c, 14, 45, 90
18, 161579, Note_on_c, 14, 45, 0
18, 161580, Note_on_c, 14, 49, 90
18, 161639, Note_on_c, 14, 49, 0
18, 161640, Note_on_c, 14, 52, 90
18, 161699, Note_on_c, 14, 52, 0
18, 161700, Note_on_c, 14, 57, 90
18, 161759, Note_on_c, 14, 57, 0
18, 161760, Note_on_c, 14, 45, 90
18, 161819, Note_on_c, 14, 45, 0
18, 161820, Note_on_c, 14, 57, 90
18, 161879, Note_on_c, 14, 57, 0
18, 161880, Note_on_c, 14, 55, 90
18, 161939, Note_on_c, 14, 55, 0
18, 161940, Note_on_c, 14, 43, 90
18, 161999, Note_on_c, 14, 43, 0
18, 162000, Note_on_c, 14, 55, 90
18, 162059, Note_on_c, 14, 55, 0
18, 162060, Note_on_c, 14, 54, 90
18, 162119, Note_on_c, 14, 54, 0
18, 162120, Note_on_c, 14, 42, 90
18, 162179, Note_on_c, 14, 42, 0
18, 162180, Note_on_c, 14, 52, 90
18, 162239, Note_on_c, 14, 52, 0
18, 162240, Note_on_c, 14, 50, 90
18, 162299, Note_on_c, 14, 50, 0
18, 162300, Note_on_c, 14, 38, 90
18, 162359, Note_on_c, 14, 38, 0
18, 162360, Note_on_c, 14, 49, 90
18, 162419, Note_on_c, 14, 49, 0
18, 162420, Note_on_c, 14, 50, 90
18, 162479, Note_on_c, 14, 50, 0
18, 162480, Note_on_c, 14, 38, 90
18, 162539, Note_on_c, 14, 38, 0
18, 162540, Note_on_c, 14, 62, 90
18, 162599, Note_on_c, 14, 62, 0
18, 162600, Note_on_c, 14, 60, 90
18, 162659, Note_on_c, 14, 60, 0
18, 162660, Note_on_c, 14, 48, 90
18, 162719, Note_on_c, 14, 48, 0
18, 162720, Note_on_c, 14, 60, 90
18, 162779, Note_on_c, 14, 60, 0
18, 162780, Note_on_c, 14, 59, 90
18, 162839, Note_on_c, 14, 59, 0
18, 162840, Note_on_c, 14, 47, 90
18, 162899, Note_on_c, 14, 47, 0
18, 162900, Note_on_c, 14, 57, 90
18, 162959, Note_on_c, 14, 57, 0
18, 162960, Note_on_c, 14, 55, 90
18, 163019, Note_on_c, 14, 55, 0
18, 163020, Note_on_c, 14, 43, 90
18, 163079, Note_on_c, 14, 43, 0
18, 163080, Note_on_c, 14, 54, 90
18, 163139, Note_on_c, 14, 54, 0
18, 163140, Note_on_c, 14, 55, 90
18, 163199, Note_on_c, 14, 55, 0
18, 163200, Note_on_c, 14, 43, 90
18, 163259, Note_on_c, 14, 43, 0
18, 163260, Note_on_c, 14, 55, 90
18, 163379, Note_on_c, 14, 55, 0
18, 163380, Note_on_c, 14, 54, 90
18, 163439, Note_on_c, 14, 54, 0
18, 163440, Note_on_c, 14, 59, 90
18, 163499, Note_on_c, 14, 59, 0
18, 163500, Note_on_c, 14, 57, 90
18, 163559, Note_on_c, 14, 57, 0
18, 163560, Note_on_c, 14, 55, 90
18, 163619, Note_on_c, 14, 55, 0
18, 163620, Note_on_c, 14, 57, 90
18, 163679, Note_on_c, 14, 57, 0
18, 163680, Note_on_c, 14, 50, 90
18, 163799, Note_on_c, 14, 50, 0
18, 163920, Note_on_c, 14, 62, 90
18, 163979, Note_on_c, 14, 62, 0
18, 163980, Note_on_c, 14, 55, 90
18, 164039, Note_on_c, 14, 55, 0
18, 164040, Note_on_c, 14, 50, 90
18, 164159, Note_on_c, 14, 50, 0
18, 164280, Note_on_c, 14, 50, 90
18, 164339, Note_on_c, 14, 50, 0
18, 164340, Note_on_c, 14, 43, 90
18, 164399, Note_on_c, 14, 43, 0
18, 164400, Note_on_c, 14, 38, 90
18, 164579, Note_on_c, 14, 38, 0
18, 164579, End_track
19, 0, Start_track
19, 0, MIDI_port, 0
19, 0, Title_t, "organ"
19, 0, Program_c, 15, 19
19, 0, Control_c, 15, 7, 127
19, 0, Control_c, 15, 10, 63
19, 17460, Note_on_c, 15, 64, 90
19, 17460, Note_on_c, 15, 68, 90
19, 17460, Note_on_c, 15, 59, 90
19, 18060, Note_on_c, 15, 64, 0
19, 18060, Note_on_c, 15, 62, 90
19, 18180, Note_on_c, 15, 62, 0
19, 18180, Note_on_c, 15, 59, 0
19, 18180, Note_on_c, 15, 68, 0
19, 18180, Note_on_c, 15, 64, 90
19, 18180, Note_on_c, 15, 61, 90
19, 18300, Note_on_c, 15, 61, 0
19, 18300, Note_on_c, 15, 64, 0
19, 18300, Note_on_c, 15, 76, 90
19, 18300, Note_on_c, 15, 64, 90
19, 18300, Note_on_c, 15, 69, 90
19, 18420, Note_on_c, 15, 69, 0
19, 18420, Note_on_c, 15, 64, 0
19, 18420, Note_on_c, 15, 76, 0
19, 18420, Note_on_c, 15, 69, 90
19, 18420, Note_on_c, 15, 66, 90
19, 18420, Note_on_c, 15, 76, 90
19, 18540, Note_on_c, 15, 76, 0
19, 18540, Note_on_c, 15, 66, 0
19, 18540, Note_on_c, 15, 69, 0
19, 18540, Note_on_c, 15, 66, 90
19, 18540, Note_on_c, 15, 69, 90
19, 18540, Note_on_c, 15, 74, 90
19, 18660, Note_on_c, 15, 74, 0
19, 18660, Note_on_c, 15, 69, 0
19, 18660, Note_on_c, 15, 66, 0
19, 18780, Note_on_c, 15, 73, 90
19, 18780, Note_on_c, 15, 69, 90
19, 18780, Note_on_c, 15, 64, 90
19, 18840, Note_on_c, 15, 69, 0
19, 18840, Note_on_c, 15, 73, 0
19, 18840, Note_on_c, 15, 68, 90
19, 18840, Note_on_c, 15, 71, 90
19, 18900, Note_on_c, 15, 71, 0
19, 18900, Note_on_c, 15, 68, 0
19, 18900, Note_on_c, 15, 64, 0
19, 28620, Note_on_c, 15, 61, 90
19, 28620, Note_on_c, 15, 68, 90
19, 28620, Note_on_c, 15, 64, 90
19, 29099, Note_on_c, 15, 64, 0
19, 29099, Note_on_c, 15, 68, 0
19, 29099, Note_on_c, 15, 61, 0
19, 29100, Note_on_c, 15, 70, 90
19, 29100, Note_on_c, 15, 66, 90
19, 29100, Note_on_c, 15, 61, 90
19, 29579, Note_on_c, 15, 61, 0
19, 29579, Note_on_c, 15, 66, 0
19, 29579, Note_on_c, 15, 70, 0
19, 29580, Note_on_c, 15, 63, 90
19, 29580, Note_on_c, 15, 66, 90
19, 29580, Note_on_c, 15, 71, 90
19, 29820, Note_on_c, 15, 71, 0
19, 29820, Note_on_c, 15, 69, 90
19, 30059, Note_on_c, 15, 66, 0
19, 30059, Note_on_c, 15, 63, 0
19, 30060, Note_on_c, 15, 69, 0
19, 30060, Note_on_c, 15, 59, 90
19, 30060, Note_on_c, 15, 64, 90
19, 30060, Note_on_c, 15, 68, 90
19, 30299, Note_on_c, 15, 68, 0
19, 30299, Note_on_c, 15, 64, 0
19, 30299, Note_on_c, 15, 59, 0
19, 30300, Note_on_c, 15, 64, 90
19, 30300, Note_on_c, 15, 68, 90
19, 30540, Note_on_c, 15, 68, 0
19, 30540, Note_on_c, 15, 64, 0
19, 30660, Note_on_c, 15, 69, 90
19, 30660, Note_on_c, 15, 66, 90
19, 30660, Note_on_c, 15, 63, 90
19, 30779, Note_on_c, 15, 63, 0
19, 30779, Note_on_c, 15, 66, 0
19, 30779, Note_on_c, 15, 69, 0
19, 30780, Note_on_c, 15, 59, 90
19, 30780, Note_on_c, 15, 64, 90
19, 30780, Note_on_c, 15, 68, 90
19, 31019, Note_on_c, 15, 68, 0
19, 31019, Note_on_c, 15, 64, 0
19, 31019, Note_on_c, 15, 59, 0
19, 31020, Note_on_c, 15, 68, 90
19, 31020, Note_on_c, 15, 64, 90
19, 31020, Note_on_c, 15, 71, 90
19, 31259, Note_on_c, 15, 71, 0
19, 31259, Note_on_c, 15, 64, 0
19, 31259, Note_on_c, 15, 68, 0
19, 31260, Note_on_c, 15, 61, 90
19, 31260, Note_on_c, 15, 69, 90
19, 31320, Note_on_c, 15, 69, 0
19, 31320, Note_on_c, 15, 68, 90
19, 31350, Note_on_c, 15, 68, 0
19, 31350, Note_on_c, 15, 66, 90
19, 31379, Note_on_c, 15, 61, 0
19, 31380, Note_on_c, 15, 66, 0
19, 31380, Note_on_c, 15, 61, 90
19, 31380, Note_on_c, 15, 64, 90
19, 31499, Note_on_c, 15, 64, 0
19, 31499, Note_on_c, 15, 61, 0
19, 31500, Note_on_c, 15, 69, 90
19, 31500, Note_on_c, 15, 62, 90
19, 31619, Note_on_c, 15, 62, 0
19, 31619, Note_on_c, 15, 69, 0
19, 31860, Note_on_c, 15, 71, 90
19, 31860, Note_on_c, 15, 68, 90
19, 31860, Note_on_c, 15, 62, 90
19, 31979, Note_on_c, 15, 62, 0
19, 31979, Note_on_c, 15, 68, 0
19, 31979, Note_on_c, 15, 71, 0
19, 31980, Note_on_c, 15, 61, 90
19, 31980, Note_on_c, 15, 64, 90
19, 31980, Note_on_c, 15, 69, 90
19, 32220, Note_on_c, 15, 69, 0
19, 32220, Note_on_c, 15, 64, 0
19, 32220, Note_on_c, 15, 61, 0
19, 40260, Note_on_c, 15, 61, 90
19, 40260, Note_on_c, 15, 64, 90
19, 40319, Note_on_c, 15, 64, 0
19, 40319, Note_on_c, 15, 61, 0
19, 41040, Note_on_c, 15, 71, 90
19, 41040, Note_on_c, 15, 68, 90
19, 41099, Note_on_c, 15, 68, 0
19, 41099, Note_on_c, 15, 71, 0
19, 41220, Note_on_c, 15, 68, 90
19, 41220, Note_on_c, 15, 71, 90
19, 41279, Note_on_c, 15, 71, 0
19, 41280, Note_on_c, 15, 70, 90
19, 41339, Note_on_c, 15, 70, 0
19, 41340, Note_on_c, 15, 68, 0
19, 41340, Note_on_c, 15, 66, 90
19, 41340, Note_on_c, 15, 71, 90
19, 41399, Note_on_c, 15, 71, 0
19, 41399, Note_on_c, 15, 66, 0
19, 41580, Note_on_c, 15, 64, 90
19, 41580, Note_on_c, 15, 69, 90
19, 41639, Note_on_c, 15, 69, 0
19, 41639, Note_on_c, 15, 64, 0
19, 41760, Note_on_c, 15, 68, 90
19, 41760, Note_on_c, 15, 73, 90
19, 41819, Note_on_c, 15, 73, 0
19, 41819, Note_on_c, 15, 68, 0
19, 41820, Note_on_c, 15, 71, 90
19, 41879, Note_on_c, 15, 71, 0
19, 41880, Note_on_c, 15, 64, 90
19, 41880, Note_on_c, 15, 69, 90
19, 41939, Note_on_c, 15, 69, 0
19, 41939, Note_on_c, 15, 64, 0
19, 44220, Note_on_c, 15, 64, 90
19, 44220, Note_on_c, 15, 68, 90
19, 44279, Note_on_c, 15, 68, 0
19, 44279, Note_on_c, 15, 64, 0
19, 44400, Note_on_c, 15, 64, 90
19, 44400, Note_on_c, 15, 68, 90
19, 44459, Note_on_c, 15, 68, 0
19, 44459, Note_on_c, 15, 64, 0
19, 44580, Note_on_c, 15, 64, 90
19, 44580, Note_on_c, 15, 68, 90
19, 44639, Note_on_c, 15, 68, 0
19, 44639, Note_on_c, 15, 64, 0
19, 44640, Note_on_c, 15, 68, 90
19, 44640, Note_on_c, 15, 64, 90
19, 44699, Note_on_c, 15, 64, 0
19, 44699, Note_on_c, 15, 68, 0
19, 44700, Note_on_c, 15, 63, 90
19, 44700, Note_on_c, 15, 69, 90
19, 44759, Note_on_c, 15, 69, 0
19, 44759, Note_on_c, 15, 63, 0
19, 44760, Note_on_c, 15, 64, 90
19, 44760, Note_on_c, 15, 68, 90
19, 44819, Note_on_c, 15, 68, 0
19, 44819, Note_on_c, 15, 64, 0
19, 48900, Note_on_c, 15, 62, 90
19, 48929, Note_on_c, 15, 62, 0
19, 48930, Note_on_c, 15, 61, 90
19, 48959, Note_on_c, 15, 61, 0
19, 48960, Note_on_c, 15, 61, 90
19, 49019, Note_on_c, 15, 61, 0
19, 49020, Note_on_c, 15, 59, 90
19, 49079, Note_on_c, 15, 59, 0
19, 49080, Note_on_c, 15, 57, 90
19, 49139, Note_on_c, 15, 57, 0
19, 50040, Note_on_c, 15, 64, 90
19, 50040, Note_on_c, 15, 69, 90
19, 50099, Note_on_c, 15, 69, 0
19, 50099, Note_on_c, 15, 64, 0
19, 50220, Note_on_c, 15, 73, 90
19, 50220, Note_on_c, 15, 69, 90
19, 50279, Note_on_c, 15, 69, 0
19, 50279, Note_on_c, 15, 73, 0
19, 50280, Note_on_c, 15, 66, 90
19, 50280, Note_on_c, 15, 71, 90
19, 50339, Note_on_c, 15, 71, 0
19, 50339, Note_on_c, 15, 66, 0
19, 50340, Note_on_c, 15, 64, 90
19, 50340, Note_on_c, 15, 68, 90
19, 50399, Note_on_c, 15, 68, 0
19, 50399, Note_on_c, 15, 64, 0
19, 54120, Note_on_c, 15, 64, 90
19, 54120, Note_on_c, 15, 69, 90
19, 54120, Note_on_c, 15, 73, 90
19, 54179, Note_on_c, 15, 73, 0
19, 54179, Note_on_c, 15, 69, 0
19, 54179, Note_on_c, 15, 64, 0
19, 54300, Note_on_c, 15, 66, 90
19, 54300, Note_on_c, 15, 69, 90
19, 54300, Note_on_c, 15, 73, 90
19, 54359, Note_on_c, 15, 73, 0
19, 54359, Note_on_c, 15, 69, 0
19, 54359, Note_on_c, 15, 66, 0
19, 54480, Note_on_c, 15, 64, 90
19, 54480, Note_on_c, 15, 69, 90
19, 54480, Note_on_c, 15, 73, 90
19, 54539, Note_on_c, 15, 73, 0
19, 54539, Note_on_c, 15, 69, 0
19, 54539, Note_on_c, 15, 64, 0
19, 54540, Note_on_c, 15, 64, 90
19, 54540, Note_on_c, 15, 69, 90
19, 54599, Note_on_c, 15, 69, 0
19, 54599, Note_on_c, 15, 64, 0
19, 54600, Note_on_c, 15, 64, 90
19, 54600, Note_on_c, 15, 68, 90
19, 54659, Note_on_c, 15, 68, 0
19, 54659, Note_on_c, 15, 64, 0
19, 54660, Note_on_c, 15, 61, 90
19, 54660, Note_on_c, 15, 69, 90
19, 54719, Note_on_c, 15, 69, 0
19, 54719, Note_on_c, 15, 61, 0
19, 54720, Note_on_c, 15, 64, 90
19, 54720, Note_on_c, 15, 73, 90
19, 54779, Note_on_c, 15, 73, 0
19, 54779, Note_on_c, 15, 64, 0
19, 54780, Note_on_c, 15, 62, 90
19, 54780, Note_on_c, 15, 68, 90
19, 54780, Note_on_c, 15, 71, 90
19, 54839, Note_on_c, 15, 71, 0
19, 54839, Note_on_c, 15, 68, 0
19, 54839, Note_on_c, 15, 62, 0
19, 54840, Note_on_c, 15, 64, 90
19, 54840, Note_on_c, 15, 69, 90
19, 54899, Note_on_c, 15, 69, 0
19, 54899, Note_on_c, 15, 64, 0
19, 57960, Note_on_c, 15, 68, 90
19, 57960, Note_on_c, 15, 65, 90
19, 58019, Note_on_c, 15, 65, 0
19, 58019, Note_on_c, 15, 68, 0
19, 58140, Note_on_c, 15, 68, 90
19, 58140, Note_on_c, 15, 65, 90
19, 58199, Note_on_c, 15, 65, 0
19, 58199, Note_on_c, 15, 68, 0
19, 58320, Note_on_c, 15, 66, 90
19, 58320, Note_on_c, 15, 70, 90
19, 58379, Note_on_c, 15, 70, 0
19, 58379, Note_on_c, 15, 66, 0
19, 58500, Note_on_c, 15, 66, 90
19, 58500, Note_on_c, 15, 70, 90
19, 58559, Note_on_c, 15, 70, 0
19, 58559, Note_on_c, 15, 66, 0
19, 58680, Note_on_c, 15, 71, 90
19, 58680, Note_on_c, 15, 63, 90
19, 58739, Note_on_c, 15, 63, 0
19, 58739, Note_on_c, 15, 71, 0
19, 58860, Note_on_c, 15, 74, 90
19, 58860, Note_on_c, 15, 66, 90
19, 58919, Note_on_c, 15, 66, 0
19, 58919, Note_on_c, 15, 74, 0
19, 59040, Note_on_c, 15, 71, 90
19, 59040, Note_on_c, 15, 64, 90
19, 59099, Note_on_c, 15, 64, 0
19, 59099, Note_on_c, 15, 71, 0
19, 59220, Note_on_c, 15, 64, 90
19, 59220, Note_on_c, 15, 71, 90
19, 59279, Note_on_c, 15, 71, 0
19, 59279, Note_on_c, 15, 64, 0
19, 59400, Note_on_c, 15, 64, 90
19, 59400, Note_on_c, 15, 69, 90
19, 59459, Note_on_c, 15, 69, 0
19, 59459, Note_on_c, 15, 64, 0
19, 59580, Note_on_c, 15, 66, 90
19, 59580, Note_on_c, 15, 61, 90
19, 59639, Note_on_c, 15, 61, 0
19, 59639, Note_on_c, 15, 66, 0
19, 59760, Note_on_c, 15, 62, 90
19, 59760, Note_on_c, 15, 66, 90
19, 59819, Note_on_c, 15, 66, 0
19, 59819, Note_on_c, 15, 62, 0
19, 59940, Note_on_c, 15, 66, 90
19, 59940, Note_on_c, 15, 71, 90
19, 59999, Note_on_c, 15, 71, 0
19, 59999, Note_on_c, 15, 66, 0
19, 60120, Note_on_c, 15, 69, 90
19, 60120, Note_on_c, 15, 62, 90
19, 60179, Note_on_c, 15, 62, 0
19, 60179, Note_on_c, 15, 69, 0
19, 60300, Note_on_c, 15, 64, 90
19, 60300, Note_on_c, 15, 67, 90
19, 60359, Note_on_c, 15, 67, 0
19, 60359, Note_on_c, 15, 64, 0
19, 60480, Note_on_c, 15, 64, 90
19, 60480, Note_on_c, 15, 71, 90
19, 60539, Note_on_c, 15, 71, 0
19, 60539, Note_on_c, 15, 64, 0
19, 60660, Note_on_c, 15, 73, 90
19, 60660, Note_on_c, 15, 69, 90
19, 60660, Note_on_c, 15, 66, 90
19, 60719, Note_on_c, 15, 66, 0
19, 60719, Note_on_c, 15, 69, 0
19, 60719, Note_on_c, 15, 73, 0
19, 60840, Note_on_c, 15, 64, 90
19, 60840, Note_on_c, 15, 67, 90
19, 60899, Note_on_c, 15, 67, 0
19, 60899, Note_on_c, 15, 64, 0
19, 61020, Note_on_c, 15, 62, 90
19, 61020, Note_on_c, 15, 71, 90
19, 61079, Note_on_c, 15, 71, 0
19, 61079, Note_on_c, 15, 62, 0
19, 61200, Note_on_c, 15, 61, 90
19, 61200, Note_on_c, 15, 70, 90
19, 61259, Note_on_c, 15, 70, 0
19, 61259, Note_on_c, 15, 61, 0
19, 61260, Note_on_c, 15, 61, 90
19, 61260, Note_on_c, 15, 64, 90
19, 61319, Note_on_c, 15, 64, 0
19, 61319, Note_on_c, 15, 61, 0
19, 61320, Note_on_c, 15, 66, 90
19, 61320, Note_on_c, 15, 62, 90
19, 61379, Note_on_c, 15, 62, 0
19, 61379, Note_on_c, 15, 66, 0
19, 62820, Note_on_c, 15, 68, 90
19, 62820, Note_on_c, 15, 62, 90
19, 62940, Note_on_c, 15, 62, 0
19, 62940, Note_on_c, 15, 68, 0
19, 62940, Note_on_c, 15, 64, 90
19, 62940, Note_on_c, 15, 68, 90
19, 63000, Note_on_c, 15, 68, 0
19, 63000, Note_on_c, 15, 64, 0
19, 63000, Note_on_c, 15, 66, 90
19, 63000, Note_on_c, 15, 61, 90
19, 63120, Note_on_c, 15, 61, 0
19, 63120, Note_on_c, 15, 66, 0
19, 63120, Note_on_c, 15, 62, 90
19, 63120, Note_on_c, 15, 66, 90
19, 63180, Note_on_c, 15, 66, 0
19, 63180, Note_on_c, 15, 62, 0
19, 63180, Note_on_c, 15, 59, 90
19, 63180, Note_on_c, 15, 65, 90
19, 63300, Note_on_c, 15, 65, 0
19, 63300, Note_on_c, 15, 59, 0
19, 63300, Note_on_c, 15, 61, 90
19, 63300, Note_on_c, 15, 66, 90
19, 63359, Note_on_c, 15, 66, 0
19, 63359, Note_on_c, 15, 61, 0
19, 63660, Note_on_c, 15, 69, 90
19, 63660, Note_on_c, 15, 66, 90
19, 63720, Note_on_c, 15, 66, 0
19, 63720, Note_on_c, 15, 69, 0
19, 63720, Note_on_c, 15, 63, 90
19, 63720, Note_on_c, 15, 69, 90
19, 63840, Note_on_c, 15, 69, 0
19, 63840, Note_on_c, 15, 63, 0
19, 63840, Note_on_c, 15, 71, 90
19, 63840, Note_on_c, 15, 63, 90
19, 63900, Note_on_c, 15, 63, 0
19, 63900, Note_on_c, 15, 71, 0
19, 63900, Note_on_c, 15, 64, 90
19, 63900, Note_on_c, 15, 68, 90
19, 64020, Note_on_c, 15, 68, 0
19, 64020, Note_on_c, 15, 64, 0
19, 64020, Note_on_c, 15, 69, 90
19, 64020, Note_on_c, 15, 61, 90
19, 64080, Note_on_c, 15, 61, 0
19, 64080, Note_on_c, 15, 69, 0
19, 64080, Note_on_c, 15, 66, 90
19, 64080, Note_on_c, 15, 60, 90
19, 64200, Note_on_c, 15, 60, 0
19, 64200, Note_on_c, 15, 66, 0
19, 64200, Note_on_c, 15, 61, 90
19, 64200, Note_on_c, 15, 64, 90
19, 64259, Note_on_c, 15, 64, 0
19, 64259, Note_on_c, 15, 61, 0
19, 64740, Note_on_c, 15, 63, 90
19, 64740, Note_on_c, 15, 69, 90
19, 64800, Note_on_c, 15, 69, 0
19, 64800, Note_on_c, 15, 63, 0
19, 64800, Note_on_c, 15, 69, 90
19, 64800, Note_on_c, 15, 64, 90
19, 64860, Note_on_c, 15, 64, 0
19, 64860, Note_on_c, 15, 66, 90
19, 64920, Note_on_c, 15, 66, 0
19, 64920, Note_on_c, 15, 69, 0
19, 64920, Note_on_c, 15, 68, 90
19, 64920, Note_on_c, 15, 60, 90
19, 65040, Note_on_c, 15, 66, 90
19, 65099, Note_on_c, 15, 66, 0
19, 65100, Note_on_c, 15, 60, 0
19, 65100, Note_on_c, 15, 68, 0
19, 65100, Note_on_c, 15, 61, 90
19, 65100, Note_on_c, 15, 64, 90
19, 65100, Note_on_c, 15, 68, 90
19, 65159, Note_on_c, 15, 68, 0
19, 65159, Note_on_c, 15, 64, 0
19, 65159, Note_on_c, 15, 61, 0
19, 65460, Note_on_c, 15, 63, 90
19, 65460, Note_on_c, 15, 69, 90
19, 65519, Note_on_c, 15, 69, 0
19, 65519, Note_on_c, 15, 63, 0
19, 65520, Note_on_c, 15, 64, 90
19, 65520, Note_on_c, 15, 61, 90
19, 65580, Note_on_c, 15, 64, 0
19, 65580, Note_on_c, 15, 66, 90
19, 65640, Note_on_c, 15, 66, 0
19, 65640, Note_on_c, 15, 61, 0
19, 65640, Note_on_c, 15, 68, 90
19, 65640, Note_on_c, 15, 60, 90
19, 65700, Note_on_c, 15, 60, 0
19, 65700, Note_on_c, 15, 68, 0
19, 65820, Note_on_c, 15, 64, 90
19, 65820, Note_on_c, 15, 68, 90
19, 65879, Note_on_c, 15, 68, 0
19, 65879, Note_on_c, 15, 64, 0
19, 66000, Note_on_c, 15, 64, 90
19, 66000, Note_on_c, 15, 61, 90
19, 66059, Note_on_c, 15, 61, 0
19, 66059, Note_on_c, 15, 64, 0
19, 66180, Note_on_c, 15, 66, 90
19, 66180, Note_on_c, 15, 69, 90
19, 66239, Note_on_c, 15, 69, 0
19, 66239, Note_on_c, 15, 66, 0
19, 66360, Note_on_c, 15, 69, 90
19, 66360, Note_on_c, 15, 66, 90
19, 66419, Note_on_c, 15, 66, 0
19, 66419, Note_on_c, 15, 69, 0
19, 66420, Note_on_c, 15, 61, 90
19, 66479, Note_on_c, 15, 61, 0
19, 66480, Note_on_c, 15, 63, 90
19, 66539, Note_on_c, 15, 63, 0
19, 66540, Note_on_c, 15, 66, 90
19, 66540, Note_on_c, 15, 63, 90
19, 66599, Note_on_c, 15, 63, 0
19, 66599, Note_on_c, 15, 66, 0
19, 66600, Note_on_c, 15, 68, 90
19, 66600, Note_on_c, 15, 66, 90
19, 66720, Note_on_c, 15, 66, 0
19, 66720, Note_on_c, 15, 68, 0
19, 66720, Note_on_c, 15, 64, 90
19, 66720, Note_on_c, 15, 68, 90
19, 66779, Note_on_c, 15, 68, 0
19, 66779, Note_on_c, 15, 64, 0
19, 66780, Note_on_c, 15, 68, 90
19, 66810, Note_on_c, 15, 68, 0
19, 66810, Note_on_c, 15, 66, 90
19, 66840, Note_on_c, 15, 66, 0
19, 66840, Note_on_c, 15, 61, 90
19, 66840, Note_on_c, 15, 68, 90
19, 66840, Note_on_c, 15, 64, 90
19, 66899, Note_on_c, 15, 64, 0
19, 66899, Note_on_c, 15, 68, 0
19, 66899, Note_on_c, 15, 61, 0
19, 66900, Note_on_c, 15, 64, 90
19, 66900, Note_on_c, 15, 68, 90
19, 66930, Note_on_c, 15, 68, 0
19, 66930, Note_on_c, 15, 64, 0
19, 66930, Note_on_c, 15, 63, 90
19, 66930, Note_on_c, 15, 66, 90
19, 66960, Note_on_c, 15, 66, 0
19, 66960, Note_on_c, 15, 63, 0
19, 66960, Note_on_c, 15, 68, 90
19, 66960, Note_on_c, 15, 60, 90
19, 67019, Note_on_c, 15, 60, 0
19, 67019, Note_on_c, 15, 68, 0
19, 67020, Note_on_c, 15, 68, 90
19, 67020, Note_on_c, 15, 66, 90
19, 67079, Note_on_c, 15, 66, 0
19, 67079, Note_on_c, 15, 68, 0
19, 67080, Note_on_c, 15, 64, 90
19, 67080, Note_on_c, 15, 68, 90
19, 67199, Note_on_c, 15, 68, 0
19, 67199, Note_on_c, 15, 64, 0
19, 70140, Note_on_c, 15, 61, 90
19, 70140, Note_on_c, 15, 64, 90
19, 70199, Note_on_c, 15, 64, 0
19, 70199, Note_on_c, 15, 61, 0
19, 70920, Note_on_c, 15, 71, 90
19, 70920, Note_on_c, 15, 68, 90
19, 70979, Note_on_c, 15, 68, 0
19, 70979, Note_on_c, 15, 71, 0
19, 71100, Note_on_c, 15, 68, 90
19, 71100, Note_on_c, 15, 71, 90
19, 71159, Note_on_c, 15, 71, 0
19, 71160, Note_on_c, 15, 70, 90
19, 71219, Note_on_c, 15, 70, 0
19, 71220, Note_on_c, 15, 68, 0
19, 71220, Note_on_c, 15, 66, 90
19, 71220, Note_on_c, 15, 71, 90
19, 71279, Note_on_c, 15, 71, 0
19, 71279, Note_on_c, 15, 66, 0
19, 71460, Note_on_c, 15, 64, 90
19, 71460, Note_on_c, 15, 69, 90
19, 71519, Note_on_c, 15, 69, 0
19, 71519, Note_on_c, 15, 64, 0
19, 71640, Note_on_c, 15, 68, 90
19, 71640, Note_on_c, 15, 73, 90
19, 71699, Note_on_c, 15, 73, 0
19, 71699, Note_on_c, 15, 68, 0
19, 71700, Note_on_c, 15, 71, 90
19, 71759, Note_on_c, 15, 71, 0
19, 71760, Note_on_c, 15, 64, 90
19, 71760, Note_on_c, 15, 69, 90
19, 71819, Note_on_c, 15, 69, 0
19, 71819, Note_on_c, 15, 64, 0
19, 74100, Note_on_c, 15, 64, 90
19, 74100, Note_on_c, 15, 68, 90
19, 74159, Note_on_c, 15, 68, 0
19, 74159, Note_on_c, 15, 64, 0
19, 74280, Note_on_c, 15, 64, 90
19, 74280, Note_on_c, 15, 68, 90
19, 74339, Note_on_c, 15, 68, 0
19, 74339, Note_on_c, 15, 64, 0
19, 74460, Note_on_c, 15, 64, 90
19, 74460, Note_on_c, 15, 68, 90
19, 74519, Note_on_c, 15, 68, 0
19, 74519, Note_on_c, 15, 64, 0
19, 74520, Note_on_c, 15, 68, 90
19, 74520, Note_on_c, 15, 64, 90
19, 74579, Note_on_c, 15, 64, 0
19, 74579, Note_on_c, 15, 68, 0
19, 74580, Note_on_c, 15, 63, 90
19, 74580, Note_on_c, 15, 69, 90
19, 74639, Note_on_c, 15, 69, 0
19, 74639, Note_on_c, 15, 63, 0
19, 74640, Note_on_c, 15, 64, 90
19, 74640, Note_on_c, 15, 68, 90
19, 74699, Note_on_c, 15, 68, 0
19, 74699, Note_on_c, 15, 64, 0
19, 78780, Note_on_c, 15, 62, 90
19, 78809, Note_on_c, 15, 62, 0
19, 78810, Note_on_c, 15, 61, 90
19, 78839, Note_on_c, 15, 61, 0
19, 78840, Note_on_c, 15, 61, 90
19, 78899, Note_on_c, 15, 61, 0
19, 78900, Note_on_c, 15, 59, 90
19, 78959, Note_on_c, 15, 59, 0
19, 78960, Note_on_c, 15, 57, 90
19, 79019, Note_on_c, 15, 57, 0
19, 79920, Note_on_c, 15, 64, 90
19, 79920, Note_on_c, 15, 69, 90
19, 79979, Note_on_c, 15, 69, 0
19, 79979, Note_on_c, 15, 64, 0
19, 80100, Note_on_c, 15, 73, 90
19, 80100, Note_on_c, 15, 69, 90
19, 80159, Note_on_c, 15, 69, 0
19, 80159, Note_on_c, 15, 73, 0
19, 80160, Note_on_c, 15, 66, 90
19, 80160, Note_on_c, 15, 71, 90
19, 80219, Note_on_c, 15, 71, 0
19, 80219, Note_on_c, 15, 66, 0
19, 80220, Note_on_c, 15, 64, 90
19, 80220, Note_on_c, 15, 68, 90
19, 80279, Note_on_c, 15, 68, 0
19, 80279, Note_on_c, 15, 64, 0
19, 84000, Note_on_c, 15, 64, 90
19, 84000, Note_on_c, 15, 69, 90
19, 84000, Note_on_c, 15, 73, 90
19, 84059, Note_on_c, 15, 73, 0
19, 84059, Note_on_c, 15, 69, 0
19, 84059, Note_on_c, 15, 64, 0
19, 84180, Note_on_c, 15, 66, 90
19, 84180, Note_on_c, 15, 69, 90
19, 84180, Note_on_c, 15, 73, 90
19, 84239, Note_on_c, 15, 73, 0
19, 84239, Note_on_c, 15, 69, 0
19, 84239, Note_on_c, 15, 66, 0
19, 84360, Note_on_c, 15, 64, 90
19, 84360, Note_on_c, 15, 69, 90
19, 84360, Note_on_c, 15, 73, 90
19, 84419, Note_on_c, 15, 73, 0
19, 84419, Note_on_c, 15, 69, 0
19, 84419, Note_on_c, 15, 64, 0
19, 84420, Note_on_c, 15, 64, 90
19, 84420, Note_on_c, 15, 69, 90
19, 84479, Note_on_c, 15, 69, 0
19, 84479, Note_on_c, 15, 64, 0
19, 84480, Note_on_c, 15, 64, 90
19, 84480, Note_on_c, 15, 68, 90
19, 84539, Note_on_c, 15, 68, 0
19, 84539, Note_on_c, 15, 64, 0
19, 84540, Note_on_c, 15, 61, 90
19, 84540, Note_on_c, 15, 69, 90
19, 84599, Note_on_c, 15, 69, 0
19, 84599, Note_on_c, 15, 61, 0
19, 84600, Note_on_c, 15, 64, 90
19, 84600, Note_on_c, 15, 73, 90
19, 84659, Note_on_c, 15, 73, 0
19, 84659, Note_on_c, 15, 64, 0
19, 84660, Note_on_c, 15, 62, 90
19, 84660, Note_on_c, 15, 68, 90
19, 84660, Note_on_c, 15, 71, 90
19, 84719, Note_on_c, 15, 71, 0
19, 84719, Note_on_c, 15, 68, 0
19, 84719, Note_on_c, 15, 62, 0
19, 84720, Note_on_c, 15, 64, 90
19, 84720, Note_on_c, 15, 69, 90
19, 84779, Note_on_c, 15, 69, 0
19, 84779, Note_on_c, 15, 64, 0
19, 87420, Note_on_c, 15, 64, 90
19, 87420, Note_on_c, 15, 69, 90
19, 87479, Note_on_c, 15, 69, 0
19, 87479, Note_on_c, 15, 64, 0
19, 87480, Note_on_c, 15, 73, 90
19, 87480, Note_on_c, 15, 69, 90
19, 87539, Note_on_c, 15, 69, 0
19, 87539, Note_on_c, 15, 73, 0
19, 87540, Note_on_c, 15, 62, 90
19, 87540, Note_on_c, 15, 68, 90
19, 87540, Note_on_c, 15, 71, 90
19, 87599, Note_on_c, 15, 71, 0
19, 87599, Note_on_c, 15, 68, 0
19, 87599, Note_on_c, 15, 62, 0
19, 87600, Note_on_c, 15, 61, 110
19, 87600, Note_on_c, 15, 57, 110
19, 87600, Note_on_c, 15, 64, 110
19, 87719, Note_on_c, 15, 64, 0
19, 87719, Note_on_c, 15, 57, 0
19, 87719, Note_on_c, 15, 61, 0
19, 87780, Note_on_c, 15, 66, 100
19, 87780, Note_on_c, 15, 61, 100
19, 88260, Note_on_c, 15, 61, 0
19, 88260, Note_on_c, 15, 69, 100
19, 88260, Note_on_c, 15, 62, 100
19, 88500, Note_on_c, 15, 62, 0
19, 88500, Note_on_c, 15, 71, 100
19, 88740, Note_on_c, 15, 71, 0
19, 88740, Note_on_c, 15, 69, 0
19, 88740, Note_on_c, 15, 66, 0
19, 88740, Note_on_c, 15, 71, 100
19, 88740, Note_on_c, 15, 65, 100
19, 88740, Note_on_c, 15, 68, 100
19, 89220, Note_on_c, 15, 68, 0
19, 89220, Note_on_c, 15, 65, 0
19, 89220, Note_on_c, 15, 71, 0
19, 89220, Note_on_c, 15, 61, 100
19, 89220, Note_on_c, 15, 66, 100
19, 89220, Note_on_c, 15, 69, 100
19, 89340, Note_on_c, 15, 69, 0
19, 89340, Note_on_c, 15, 66, 0
19, 89340, Note_on_c, 15, 61, 0
19, 89340, Note_on_c, 15, 62, 100
19, 89340, Note_on_c, 15, 66, 100
19, 89340, Note_on_c, 15, 69, 100
19, 89460, Note_on_c, 15, 69, 0
19, 89460, Note_on_c, 15, 66, 0
19, 89460, Note_on_c, 15, 62, 0
19, 89460, Note_on_c, 15, 63, 100
19, 89460, Note_on_c, 15, 66, 100
19, 89460, Note_on_c, 15, 71, 100
19, 89940, Note_on_c, 15, 71, 0
19, 89940, Note_on_c, 15, 66, 0
19, 89940, Note_on_c, 15, 63, 0
19, 89940, Note_on_c, 15, 71, 100
19, 89940, Note_on_c, 15, 68, 100
19, 89940, Note_on_c, 15, 64, 100
19, 90420, Note_on_c, 15, 64, 0
19, 90420, Note_on_c, 15, 68, 0
19, 90420, Note_on_c, 15, 71, 0
19, 90420, Note_on_c, 15, 68, 100
19, 90420, Note_on_c, 15, 71, 100
19, 90420, Note_on_c, 15, 62, 100
19, 90660, Note_on_c, 15, 62, 0
19, 90660, Note_on_c, 15, 71, 0
19, 90660, Note_on_c, 15, 68, 0
19, 90660, Note_on_c, 15, 62, 100
19, 90660, Note_on_c, 15, 66, 100
19, 90900, Note_on_c, 15, 66, 0
19, 90900, Note_on_c, 15, 62, 0
19, 90900, Note_on_c, 15, 62, 100
19, 90900, Note_on_c, 15, 64, 100
19, 91140, Note_on_c, 15, 64, 0
19, 91140, Note_on_c, 15, 62, 0
19, 91140, Note_on_c, 15, 69, 100
19, 91140, Note_on_c, 15, 64, 100
19, 91140, Note_on_c, 15, 61, 100
19, 91260, Note_on_c, 15, 61, 0
19, 91260, Note_on_c, 15, 64, 0
19, 91260, Note_on_c, 15, 69, 0
19, 91260, Note_on_c, 15, 64, 100
19, 91260, Note_on_c, 15, 69, 100
19, 91260, Note_on_c, 15, 73, 100
19, 91380, Note_on_c, 15, 73, 0
19, 91380, Note_on_c, 15, 69, 0
19, 91380, Note_on_c, 15, 64, 0
19, 91380, Note_on_c, 15, 69, 100
19, 91380, Note_on_c, 15, 66, 100
19, 91380, Note_on_c, 15, 62, 100
19, 92100, Note_on_c, 15, 62, 0
19, 92100, Note_on_c, 15, 66, 0
19, 92100, Note_on_c, 15, 69, 0
19, 92100, Note_on_c, 15, 69, 100
19, 92100, Note_on_c, 15, 66, 100
19, 92100, Note_on_c, 15, 60, 100
19, 92340, Note_on_c, 15, 60, 0
19, 92340, Note_on_c, 15, 66, 0
19, 92340, Note_on_c, 15, 69, 0
19, 92340, Note_on_c, 15, 63, 100
19, 92340, Note_on_c, 15, 66, 100
19, 92340, Note_on_c, 15, 71, 100
19, 92580, Note_on_c, 15, 71, 0
19, 92580, Note_on_c, 15, 69, 100
19, 92820, Note_on_c, 15, 69, 0
19, 92820, Note_on_c, 15, 66, 0
19, 92820, Note_on_c, 15, 63, 0
19, 92820, Note_on_c, 15, 67, 100
19, 92820, Note_on_c, 15, 64, 100
19, 92940, Note_on_c, 15, 64, 0
19, 92940, Note_on_c, 15, 67, 0
19, 92940, Note_on_c, 15, 67, 100
19, 92940, Note_on_c, 15, 71, 100
19, 93060, Note_on_c, 15, 71, 0
19, 93060, Note_on_c, 15, 67, 0
19, 93060, Note_on_c, 15, 66, 100
19, 93060, Note_on_c, 15, 76, 100
19, 93120, Note_on_c, 15, 76, 0
19, 93120, Note_on_c, 15, 75, 100
19, 93180, Note_on_c, 15, 75, 0
19, 93180, Note_on_c, 15, 66, 0
19, 93180, Note_on_c, 15, 71, 100
19, 93180, Note_on_c, 15, 76, 100
19, 93300, Note_on_c, 15, 76, 0
19, 93300, Note_on_c, 15, 71, 0
19, 93300, Note_on_c, 15, 61, 100
19, 93300, Note_on_c, 15, 70, 100
19, 93300, Note_on_c, 15, 66, 100
19, 93540, Note_on_c, 15, 66, 0
19, 93540, Note_on_c, 15, 64, 100
19, 93780, Note_on_c, 15, 64, 0
19, 93780, Note_on_c, 15, 70, 0
19, 93780, Note_on_c, 15, 61, 0
19, 93780, Note_on_c, 15, 71, 100
19, 93780, Note_on_c, 15, 66, 100
19, 93780, Note_on_c, 15, 62, 100
19, 93900, Note_on_c, 15, 62, 0
19, 93900, Note_on_c, 15, 66, 0
19, 93900, Note_on_c, 15, 71, 0
19, 93900, Note_on_c, 15, 74, 100
19, 93900, Note_on_c, 15, 62, 100
19, 93900, Note_on_c, 15, 66, 100
19, 94020, Note_on_c, 15, 66, 0
19, 94020, Note_on_c, 15, 62, 0
19, 94020, Note_on_c, 15, 74, 0
19, 94020, Note_on_c, 15, 65, 100
19, 94020, Note_on_c, 15, 68, 100
19, 94020, Note_on_c, 15, 71, 100
19, 94140, Note_on_c, 15, 71, 0
19, 94140, Note_on_c, 15, 68, 0
19, 94140, Note_on_c, 15, 65, 0
19, 94140, Note_on_c, 15, 68, 100
19, 94140, Note_on_c, 15, 65, 100
19, 94200, Note_on_c, 15, 65, 0
19, 94200, Note_on_c, 15, 68, 0
19, 94200, Note_on_c, 15, 62, 100
19, 94200, Note_on_c, 15, 71, 100
19, 94260, Note_on_c, 15, 71, 0
19, 94260, Note_on_c, 15, 62, 0
19, 94260, Note_on_c, 15, 71, 90
19, 94260, Note_on_c, 15, 68, 90
19, 94260, Note_on_c, 15, 62, 90
19, 94379, Note_on_c, 15, 62, 0
19, 94379, Note_on_c, 15, 68, 0
19, 94379, Note_on_c, 15, 71, 0
19, 94500, Note_on_c, 15, 62, 90
19, 94500, Note_on_c, 15, 71, 90
19, 94560, Note_on_c, 15, 71, 0
19, 94560, Note_on_c, 15, 62, 0
19, 94560, Note_on_c, 15, 70, 90
19, 94560, Note_on_c, 15, 61, 90
19, 94620, Note_on_c, 15, 61, 0
19, 94620, Note_on_c, 15, 70, 0
19, 94620, Note_on_c, 15, 62, 90
19, 94620, Note_on_c, 15, 59, 90
19, 94620, Note_on_c, 15, 71, 90
19, 94739, Note_on_c, 15, 71, 0
19, 94739, Note_on_c, 15, 59, 0
19, 94739, Note_on_c, 15, 62, 0
19, 94980, Note_on_c, 15, 62, 90
19, 94980, Note_on_c, 15, 66, 90
19, 95039, Note_on_c, 15, 66, 0
19, 95039, Note_on_c, 15, 62, 0
19, 95100, Note_on_c, 15, 64, 90
19, 95100, Note_on_c, 15, 67, 90
19, 95159, Note_on_c, 15, 67, 0
19, 95159, Note_on_c, 15, 64, 0
19, 95220, Note_on_c, 15, 62, 90
19, 95220, Note_on_c, 15, 66, 90
19, 95279, Note_on_c, 15, 66, 0
19, 95279, Note_on_c, 15, 62, 0
19, 95340, Note_on_c, 15, 59, 90
19, 95340, Note_on_c, 15, 62, 90
19, 95399, Note_on_c, 15, 62, 0
19, 95399, Note_on_c, 15, 59, 0
19, 95460, Note_on_c, 15, 70, 90
19, 95460, Note_on_c, 15, 64, 90
19, 95519, Note_on_c, 15, 64, 0
19, 95519, Note_on_c, 15, 70, 0
19, 95580, Note_on_c, 15, 62, 90
19, 95580, Note_on_c, 15, 66, 90
19, 95639, Note_on_c, 15, 66, 0
19, 95639, Note_on_c, 15, 62, 0
19, 95700, Note_on_c, 15, 70, 90
19, 95700, Note_on_c, 15, 66, 90
19, 95759, Note_on_c, 15, 66, 0
19, 95759, Note_on_c, 15, 70, 0
19, 95820, Note_on_c, 15, 61, 90
19, 95820, Note_on_c, 15, 69, 90
19, 95820, Note_on_c, 15, 66, 90
19, 95879, Note_on_c, 15, 66, 0
19, 95879, Note_on_c, 15, 69, 0
19, 95879, Note_on_c, 15, 61, 0
19, 95940, Note_on_c, 15, 69, 90
19, 95940, Note_on_c, 15, 59, 90
19, 95999, Note_on_c, 15, 59, 0
19, 95999, Note_on_c, 15, 69, 0
19, 96000, Note_on_c, 15, 63, 90
19, 96059, Note_on_c, 15, 63, 0
19, 96060, Note_on_c, 15, 64, 90
19, 96060, Note_on_c, 15, 66, 90
19, 96119, Note_on_c, 15, 66, 0
19, 96119, Note_on_c, 15, 64, 0
19, 96180, Note_on_c, 15, 59, 90
19, 96180, Note_on_c, 15, 63, 90
19, 96180, Note_on_c, 15, 66, 90
19, 96239, Note_on_c, 15, 66, 0
19, 96239, Note_on_c, 15, 63, 0
19, 96239, Note_on_c, 15, 59, 0
19, 96300, Note_on_c, 15, 59, 90
19, 96300, Note_on_c, 15, 64, 90
19, 96359, Note_on_c, 15, 64, 0
19, 96359, Note_on_c, 15, 59, 0
19, 96420, Note_on_c, 15, 69, 90
19, 96420, Note_on_c, 15, 67, 90
19, 96479, Note_on_c, 15, 67, 0
19, 96479, Note_on_c, 15, 69, 0
19, 96480, Note_on_c, 15, 61, 90
19, 96539, Note_on_c, 15, 61, 0
19, 96540, Note_on_c, 15, 62, 90
19, 96540, Note_on_c, 15, 64, 90
19, 96599, Note_on_c, 15, 64, 0
19, 96599, Note_on_c, 15, 62, 0
19, 96660, Note_on_c, 15, 61, 90
19, 96660, Note_on_c, 15, 64, 90
19, 96719, Note_on_c, 15, 64, 0
19, 96719, Note_on_c, 15, 61, 0
19, 96780, Note_on_c, 15, 62, 90
19, 96780, Note_on_c, 15, 66, 90
19, 96839, Note_on_c, 15, 66, 0
19, 96839, Note_on_c, 15, 62, 0
19, 96900, Note_on_c, 15, 62, 90
19, 96900, Note_on_c, 15, 68, 90
19, 96959, Note_on_c, 15, 68, 0
19, 96959, Note_on_c, 15, 62, 0
19, 97020, Note_on_c, 15, 64, 90
19, 97020, Note_on_c, 15, 68, 90
19, 97079, Note_on_c, 15, 68, 0
19, 97079, Note_on_c, 15, 64, 0
19, 97140, Note_on_c, 15, 64, 90
19, 97140, Note_on_c, 15, 69, 90
19, 97199, Note_on_c, 15, 69, 0
19, 97199, Note_on_c, 15, 64, 0
19, 97260, Note_on_c, 15, 61, 90
19, 97260, Note_on_c, 15, 67, 90
19, 97319, Note_on_c, 15, 67, 0
19, 97319, Note_on_c, 15, 61, 0
19, 97380, Note_on_c, 15, 62, 90
19, 97380, Note_on_c, 15, 66, 90
19, 97439, Note_on_c, 15, 66, 0
19, 97439, Note_on_c, 15, 62, 0
19, 97440, Note_on_c, 15, 66, 90
19, 97440, Note_on_c, 15, 57, 90
19, 97499, Note_on_c, 15, 57, 0
19, 97499, Note_on_c, 15, 66, 0
19, 97500, Note_on_c, 15, 62, 90
19, 97500, Note_on_c, 15, 59, 90
19, 97559, Note_on_c, 15, 59, 0
19, 97559, Note_on_c, 15, 62, 0
19, 97560, Note_on_c, 15, 67, 90
19, 97560, Note_on_c, 15, 61, 90
19, 97619, Note_on_c, 15, 61, 0
19, 97619, Note_on_c, 15, 67, 0
19, 97620, Note_on_c, 15, 66, 90
19, 97620, Note_on_c, 15, 64, 90
19, 97679, Note_on_c, 15, 64, 0
19, 97680, Note_on_c, 15, 62, 90
19, 97739, Note_on_c, 15, 62, 0
19, 97740, Note_on_c, 15, 66, 0
19, 97770, Note_on_c, 15, 61, 90
19, 97799, Note_on_c, 15, 61, 0
19, 97800, Note_on_c, 15, 62, 90
19, 97829, Note_on_c, 15, 62, 0
19, 97830, Note_on_c, 15, 64, 90
19, 97859, Note_on_c, 15, 64, 0
19, 97860, Note_on_c, 15, 66, 90
19, 97860, Note_on_c, 15, 69, 90
19, 97919, Note_on_c, 15, 69, 0
19, 97919, Note_on_c, 15, 66, 0
19, 97920, Note_on_c, 15, 59, 90
19, 97949, Note_on_c, 15, 59, 0
19, 97950, Note_on_c, 15, 61, 90
19, 97979, Note_on_c, 15, 61, 0
19, 97980, Note_on_c, 15, 66, 90
19, 97980, Note_on_c, 15, 62, 90
19, 98039, Note_on_c, 15, 62, 0
19, 98100, Note_on_c, 15, 66, 0
19, 98100, Note_on_c, 15, 61, 90
19, 98100, Note_on_c, 15, 64, 90
19, 98159, Note_on_c, 15, 64, 0
19, 98159, Note_on_c, 15, 61, 0
19, 98220, Note_on_c, 15, 64, 90
19, 98220, Note_on_c, 15, 69, 90
19, 98279, Note_on_c, 15, 69, 0
19, 98279, Note_on_c, 15, 64, 0
19, 98280, Note_on_c, 15, 67, 90
19, 98339, Note_on_c, 15, 67, 0
19, 98340, Note_on_c, 15, 64, 90
19, 98340, Note_on_c, 15, 70, 90
19, 98399, Note_on_c, 15, 70, 0
19, 98399, Note_on_c, 15, 64, 0
19, 98400, Note_on_c, 15, 58, 90
19, 98429, Note_on_c, 15, 58, 0
19, 98430, Note_on_c, 15, 59, 90
19, 98459, Note_on_c, 15, 59, 0
19, 98460, Note_on_c, 15, 64, 90
19, 98460, Note_on_c, 15, 61, 90
19, 98519, Note_on_c, 15, 61, 0
19, 98580, Note_on_c, 15, 64, 0
19, 98580, Note_on_c, 15, 62, 90
19, 98580, Note_on_c, 15, 66, 90
19, 98639, Note_on_c, 15, 66, 0
19, 98639, Note_on_c, 15, 62, 0
19, 98700, Note_on_c, 15, 62, 90
19, 98700, Note_on_c, 15, 66, 90
19, 98700, Note_on_c, 15, 71, 90
19, 98759, Note_on_c, 15, 71, 0
19, 98759, Note_on_c, 15, 66, 0
19, 98759, Note_on_c, 15, 62, 0
19, 98820, Note_on_c, 15, 64, 90
19, 98820, Note_on_c, 15, 67, 90
19, 98880, Note_on_c, 15, 67, 0
19, 98880, Note_on_c, 15, 64, 0
19, 98940, Note_on_c, 15, 62, 90
19, 98940, Note_on_c, 15, 71, 90
19, 99000, Note_on_c, 15, 71, 0
19, 99000, Note_on_c, 15, 62, 0
19, 99060, Note_on_c, 15, 58, 90
19, 99060, Note_on_c, 15, 66, 90
19, 99060, Note_on_c, 15, 61, 90
19, 99120, Note_on_c, 15, 61, 0
19, 99120, Note_on_c, 15, 66, 0
19, 99120, Note_on_c, 15, 58, 0
19, 99180, Note_on_c, 15, 66, 90
19, 99180, Note_on_c, 15, 71, 90
19, 99240, Note_on_c, 15, 71, 0
19, 99240, Note_on_c, 15, 66, 0
19, 99300, Note_on_c, 15, 67, 90
19, 99300, Note_on_c, 15, 70, 90
19, 99360, Note_on_c, 15, 70, 0
19, 99360, Note_on_c, 15, 67, 0
19, 99420, Note_on_c, 15, 71, 90
19, 99420, Note_on_c, 15, 64, 90
19, 99420, Note_on_c, 15, 67, 90
19, 99480, Note_on_c, 15, 67, 0
19, 99480, Note_on_c, 15, 64, 0
19, 99480, Note_on_c, 15, 71, 0
19, 99540, Note_on_c, 15, 67, 90
19, 99540, Note_on_c, 15, 64, 90
19, 99600, Note_on_c, 15, 64, 0
19, 99600, Note_on_c, 15, 67, 0
19, 99660, Note_on_c, 15, 64, 90
19, 99660, Note_on_c, 15, 73, 90
19, 99660, Note_on_c, 15, 70, 90
19, 99720, Note_on_c, 15, 70, 0
19, 99720, Note_on_c, 15, 73, 0
19, 99720, Note_on_c, 15, 64, 0
19, 99780, Note_on_c, 15, 63, 90
19, 99780, Note_on_c, 15, 66, 90
19, 99780, Note_on_c, 15, 71, 90
19, 99840, Note_on_c, 15, 71, 0
19, 99840, Note_on_c, 15, 66, 0
19, 99840, Note_on_c, 15, 63, 0
19, 99840, Note_on_c, 15, 69, 90
19, 99900, Note_on_c, 15, 69, 0
19, 99900, Note_on_c, 15, 72, 90
19, 99900, Note_on_c, 15, 69, 90
19, 99960, Note_on_c, 15, 69, 0
19, 99960, Note_on_c, 15, 72, 0
19, 100020, Note_on_c, 15, 71, 90
19, 100020, Note_on_c, 15, 74, 90
19, 100020, Note_on_c, 15, 68, 90
19, 100080, Note_on_c, 15, 68, 0
19, 100080, Note_on_c, 15, 74, 0
19, 100080, Note_on_c, 15, 71, 0
19, 100200, Note_on_c, 15, 73, 90
19, 100200, Note_on_c, 15, 77, 90
19, 100200, Note_on_c, 15, 65, 90
19, 100200, Note_on_c, 15, 71, 90
19, 100260, Note_on_c, 15, 71, 0
19, 100260, Note_on_c, 15, 73, 0
19, 100260, Note_on_c, 15, 77, 0
19, 100260, Note_on_c, 15, 65, 0
19, 100260, Note_on_c, 15, 66, 90
19, 100260, Note_on_c, 15, 74, 90
19, 100260, Note_on_c, 15, 71, 90
19, 100320, Note_on_c, 15, 71, 0
19, 100320, Note_on_c, 15, 74, 0
19, 100320, Note_on_c, 15, 66, 0
19, 100320, Note_on_c, 15, 64, 90
19, 100320, Note_on_c, 15, 67, 90
19, 100320, Note_on_c, 15, 71, 90
19, 100380, Note_on_c, 15, 71, 0
19, 100380, Note_on_c, 15, 67, 0
19, 100380, Note_on_c, 15, 64, 0
19, 100380, Note_on_c, 15, 66, 90
19, 100380, Note_on_c, 15, 71, 90
19, 100440, Note_on_c, 15, 71, 0
19, 100440, Note_on_c, 15, 66, 0
19, 100440, Note_on_c, 15, 61, 90
19, 100440, Note_on_c, 15, 70, 90
19, 100500, Note_on_c, 15, 70, 0
19, 100500, Note_on_c, 15, 61, 0
19, 100500, Note_on_c, 15, 71, 90
19, 100500, Note_on_c, 15, 59, 90
19, 100500, Note_on_c, 15, 62, 90
19, 100560, Note_on_c, 15, 62, 0
19, 100560, Note_on_c, 15, 59, 0
19, 100560, Note_on_c, 15, 71, 0
19, 100620, Note_on_c, 15, 62, 90
19, 100620, Note_on_c, 15, 66, 90
19, 100680, Note_on_c, 15, 66, 0
19, 100680, Note_on_c, 15, 62, 0
19, 100680, Note_on_c, 15, 70, 90
19, 100740, Note_on_c, 15, 70, 0
19, 100740, Note_on_c, 15, 62, 90
19, 100740, Note_on_c, 15, 66, 90
19, 100740, Note_on_c, 15, 71, 90
19, 100800, Note_on_c, 15, 71, 0
19, 100800, Note_on_c, 15, 66, 0
19, 100800, Note_on_c, 15, 62, 0
19, 100860, Note_on_c, 15, 67, 90
19, 100860, Note_on_c, 15, 64, 90
19, 100920, Note_on_c, 15, 64, 0
19, 100920, Note_on_c, 15, 67, 0
19, 100980, Note_on_c, 15, 62, 90
19, 100980, Note_on_c, 15, 66, 90
19, 101039, Note_on_c, 15, 66, 0
19, 101039, Note_on_c, 15, 62, 0
19, 101100, Note_on_c, 15, 71, 90
19, 101100, Note_on_c, 15, 66, 90
19, 101159, Note_on_c, 15, 66, 0
19, 101159, Note_on_c, 15, 71, 0
19, 101220, Note_on_c, 15, 70, 90
19, 101220, Note_on_c, 15, 61, 90
19, 101220, Note_on_c, 15, 66, 90
19, 101279, Note_on_c, 15, 66, 0
19, 101279, Note_on_c, 15, 61, 0
19, 101279, Note_on_c, 15, 70, 0
19, 101280, Note_on_c, 15, 71, 90
19, 101339, Note_on_c, 15, 71, 0
19, 101340, Note_on_c, 15, 67, 90
19, 101340, Note_on_c, 15, 64, 90
19, 101399, Note_on_c, 15, 64, 0
19, 101399, Note_on_c, 15, 67, 0
19, 101400, Note_on_c, 15, 71, 90
19, 101400, Note_on_c, 15, 67, 90
19, 101400, Note_on_c, 15, 62, 90
19, 101459, Note_on_c, 15, 62, 0
19, 101459, Note_on_c, 15, 67, 0
19, 101459, Note_on_c, 15, 71, 0
19, 101460, Note_on_c, 15, 66, 90
19, 101460, Note_on_c, 15, 70, 90
19, 101519, Note_on_c, 15, 70, 0
19, 101519, Note_on_c, 15, 66, 0
19, 101580, Note_on_c, 15, 66, 90
19, 101580, Note_on_c, 15, 69, 90
19, 101639, Note_on_c, 15, 69, 0
19, 101639, Note_on_c, 15, 66, 0
19, 101700, Note_on_c, 15, 69, 90
19, 101700, Note_on_c, 15, 59, 90
19, 101759, Note_on_c, 15, 59, 0
19, 101759, Note_on_c, 15, 69, 0
19, 101760, Note_on_c, 15, 71, 90
19, 101760, Note_on_c, 15, 66, 90
19, 101819, Note_on_c, 15, 66, 0
19, 101819, Note_on_c, 15, 71, 0
19, 101820, Note_on_c, 15, 60, 90
19, 101820, Note_on_c, 15, 66, 90
19, 101820, Note_on_c, 15, 64, 90
19, 101879, Note_on_c, 15, 64, 0
19, 101879, Note_on_c, 15, 66, 0
19, 101879, Note_on_c, 15, 60, 0
19, 101940, Note_on_c, 15, 63, 90
19, 101940, Note_on_c, 15, 59, 90
19, 101999, Note_on_c, 15, 59, 0
19, 101999, Note_on_c, 15, 63, 0
19, 102000, Note_on_c, 15, 64, 90
19, 102029, Note_on_c, 15, 64, 0
19, 102030, Note_on_c, 15, 62, 90
19, 102059, Note_on_c, 15, 62, 0
19, 102060, Note_on_c, 15, 59, 90
19, 102060, Note_on_c, 15, 64, 90
19, 102119, Note_on_c, 15, 64, 0
19, 102119, Note_on_c, 15, 59, 0
19, 102120, Note_on_c, 15, 62, 90
19, 102120, Note_on_c, 15, 66, 90
19, 102179, Note_on_c, 15, 66, 0
19, 102179, Note_on_c, 15, 62, 0
19, 102180, Note_on_c, 15, 66, 90
19, 102180, Note_on_c, 15, 67, 90
19, 102239, Note_on_c, 15, 67, 0
19, 102239, Note_on_c, 15, 66, 0
19, 102240, Note_on_c, 15, 64, 90
19, 102269, Note_on_c, 15, 64, 0
19, 102270, Note_on_c, 15, 62, 90
19, 102299, Note_on_c, 15, 62, 0
19, 102300, Note_on_c, 15, 66, 90
19, 102300, Note_on_c, 15, 64, 90
19, 102359, Note_on_c, 15, 64, 0
19, 102359, Note_on_c, 15, 66, 0
19, 102360, Note_on_c, 15, 59, 90
19, 102360, Note_on_c, 15, 64, 90
19, 102419, Note_on_c, 15, 64, 0
19, 102419, Note_on_c, 15, 59, 0
19, 102420, Note_on_c, 15, 61, 90
19, 102420, Note_on_c, 15, 69, 90
19, 102420, Note_on_c, 15, 64, 90
19, 102479, Note_on_c, 15, 64, 0
19, 102479, Note_on_c, 15, 69, 0
19, 102479, Note_on_c, 15, 61, 0
19, 102540, Note_on_c, 15, 69, 90
19, 102540, Note_on_c, 15, 66, 90
19, 102600, Note_on_c, 15, 66, 0
19, 102600, Note_on_c, 15, 69, 0
19, 102660, Note_on_c, 15, 62, 90
19, 102660, Note_on_c, 15, 68, 90
19, 102720, Note_on_c, 15, 68, 0
19, 102720, Note_on_c, 15, 62, 0
19, 102780, Note_on_c, 15, 68, 90
19, 102780, Note_on_c, 15, 62, 90
19, 102840, Note_on_c, 15, 62, 0
19, 102840, Note_on_c, 15, 68, 0
19, 102900, Note_on_c, 15, 62, 90
19, 102900, Note_on_c, 15, 64, 90
19, 102960, Note_on_c, 15, 64, 0
19, 102960, Note_on_c, 15, 62, 0
19, 102960, Note_on_c, 15, 66, 90
19, 102960, Note_on_c, 15, 62, 90
19, 103020, Note_on_c, 15, 62, 0
19, 103020, Note_on_c, 15, 66, 0
19, 103020, Note_on_c, 15, 64, 90
19, 103020, Note_on_c, 15, 61, 90
19, 103080, Note_on_c, 15, 61, 0
19, 103080, Note_on_c, 15, 64, 0
19, 103080, Note_on_c, 15, 76, 90
19, 103080, Note_on_c, 15, 69, 90
19, 103080, Note_on_c, 15, 67, 90
19, 103140, Note_on_c, 15, 67, 0
19, 103140, Note_on_c, 15, 69, 0
19, 103140, Note_on_c, 15, 76, 0
19, 103140, Note_on_c, 15, 69, 90
19, 103140, Note_on_c, 15, 66, 90
19, 103140, Note_on_c, 15, 76, 90
19, 103200, Note_on_c, 15, 76, 0
19, 103200, Note_on_c, 15, 74, 90
19, 103260, Note_on_c, 15, 69, 0
19, 103260, Note_on_c, 15, 67, 90
19, 103320, Note_on_c, 15, 74, 0
19, 103320, Note_on_c, 15, 66, 0
19, 103320, Note_on_c, 15, 73, 90
19, 103320, Note_on_c, 15, 64, 90
19, 103380, Note_on_c, 15, 64, 0
19, 103380, Note_on_c, 15, 73, 0
19, 103380, Note_on_c, 15, 67, 0
19, 103380, Note_on_c, 15, 62, 90
19, 103380, Note_on_c, 15, 66, 90
19, 103380, Note_on_c, 15, 69, 90
19, 103440, Note_on_c, 15, 69, 0
19, 103440, Note_on_c, 15, 66, 0
19, 103440, Note_on_c, 15, 62, 0
19, 103440, Note_on_c, 15, 59, 100
19, 103470, Note_on_c, 15, 59, 0
19, 103470, Note_on_c, 15, 61, 100
19, 103500, Note_on_c, 15, 61, 0
19, 103500, Note_on_c, 15, 69, 90
19, 103500, Note_on_c, 15, 62, 90
19, 103559, Note_on_c, 15, 62, 0
19, 103559, Note_on_c, 15, 69, 0
19, 103560, Note_on_c, 15, 66, 90
19, 103619, Note_on_c, 15, 66, 0
19, 103620, Note_on_c, 15, 61, 90
19, 103620, Note_on_c, 15, 64, 90
19, 103620, Note_on_c, 15, 69, 90
19, 103679, Note_on_c, 15, 69, 0
19, 103679, Note_on_c, 15, 64, 0
19, 103679, Note_on_c, 15, 61, 0
19, 103740, Note_on_c, 15, 69, 90
19, 103740, Note_on_c, 15, 66, 90
19, 103740, Note_on_c, 15, 62, 90
19, 103799, Note_on_c, 15, 62, 0
19, 103799, Note_on_c, 15, 66, 0
19, 103799, Note_on_c, 15, 69, 0
19, 103860, Note_on_c, 15, 62, 90
19, 103860, Note_on_c, 15, 64, 90
19, 103919, Note_on_c, 15, 64, 0
19, 103919, Note_on_c, 15, 62, 0
19, 103920, Note_on_c, 15, 61, 90
19, 103979, Note_on_c, 15, 61, 0
19, 103980, Note_on_c, 15, 64, 90
19, 103980, Note_on_c, 15, 61, 90
19, 104039, Note_on_c, 15, 61, 0
19, 104039, Note_on_c, 15, 64, 0
19, 104040, Note_on_c, 15, 64, 90
19, 104040, Note_on_c, 15, 67, 90
19, 104099, Note_on_c, 15, 67, 0
19, 104099, Note_on_c, 15, 64, 0
19, 104100, Note_on_c, 15, 66, 90
19, 104100, Note_on_c, 15, 63, 90
19, 104159, Note_on_c, 15, 63, 0
19, 104159, Note_on_c, 15, 66, 0
19, 104220, Note_on_c, 15, 64, 90
19, 104220, Note_on_c, 15, 67, 90
19, 104279, Note_on_c, 15, 67, 0
19, 104279, Note_on_c, 15, 64, 0
19, 104340, Note_on_c, 15, 64, 90
19, 104340, Note_on_c, 15, 66, 90
19, 104399, Note_on_c, 15, 66, 0
19, 104399, Note_on_c, 15, 64, 0
19, 104400, Note_on_c, 15, 62, 90
19, 104459, Note_on_c, 15, 62, 0
19, 104460, Note_on_c, 15, 66, 90
19, 104460, Note_on_c, 15, 62, 90
19, 104489, Note_on_c, 15, 62, 0
19, 104489, Note_on_c, 15, 66, 0
19, 104490, Note_on_c, 15, 64, 90
19, 104490, Note_on_c, 15, 61, 90
19, 104519, Note_on_c, 15, 61, 0
19, 104519, Note_on_c, 15, 64, 0
19, 104520, Note_on_c, 15, 62, 90
19, 104520, Note_on_c, 15, 59, 90
19, 104549, Note_on_c, 15, 59, 0
19, 104549, Note_on_c, 15, 62, 0
19, 104550, Note_on_c, 15, 61, 90
19, 104550, Note_on_c, 15, 57, 90
19, 104579, Note_on_c, 15, 57, 0
19, 104579, Note_on_c, 15, 61, 0
19, 104580, Note_on_c, 15, 61, 90
19, 104580, Note_on_c, 15, 65, 90
19, 104580, Note_on_c, 15, 68, 90
19, 104639, Note_on_c, 15, 68, 0
19, 104639, Note_on_c, 15, 65, 0
19, 104639, Note_on_c, 15, 61, 0
19, 104700, Note_on_c, 15, 71, 90
19, 104700, Note_on_c, 15, 68, 90
19, 104700, Note_on_c, 15, 65, 90
19, 104759, Note_on_c, 15, 65, 0
19, 104759, Note_on_c, 15, 68, 0
19, 104759, Note_on_c, 15, 71, 0
19, 104820, Note_on_c, 15, 61, 90
19, 104820, Note_on_c, 15, 68, 90
19, 104879, Note_on_c, 15, 68, 0
19, 104879, Note_on_c, 15, 61, 0
19, 104940, Note_on_c, 15, 69, 90
19, 104940, Note_on_c, 15, 61, 90
19, 104940, Note_on_c, 15, 66, 90
19, 104999, Note_on_c, 15, 66, 0
19, 104999, Note_on_c, 15, 61, 0
19, 104999, Note_on_c, 15, 69, 0
19, 105060, Note_on_c, 15, 62, 90
19, 105060, Note_on_c, 15, 71, 90
19, 105060, Note_on_c, 15, 66, 90
19, 105119, Note_on_c, 15, 66, 0
19, 105119, Note_on_c, 15, 71, 0
19, 105119, Note_on_c, 15, 62, 0
19, 105180, Note_on_c, 15, 62, 90
19, 105180, Note_on_c, 15, 66, 90
19, 105180, Note_on_c, 15, 69, 90
19, 105239, Note_on_c, 15, 69, 0
19, 105239, Note_on_c, 15, 66, 0
19, 105239, Note_on_c, 15, 62, 0
19, 105300, Note_on_c, 15, 68, 90
19, 105300, Note_on_c, 15, 61, 90
19, 105300, Note_on_c, 15, 65, 90
19, 105359, Note_on_c, 15, 65, 0
19, 105359, Note_on_c, 15, 61, 0
19, 105359, Note_on_c, 15, 68, 0
19, 105420, Note_on_c, 15, 68, 90
19, 105420, Note_on_c, 15, 71, 90
19, 105420, Note_on_c, 15, 61, 90
19, 105479, Note_on_c, 15, 61, 0
19, 105479, Note_on_c, 15, 71, 0
19, 105479, Note_on_c, 15, 68, 0
19, 105540, Note_on_c, 15, 66, 90
19, 105540, Note_on_c, 15, 69, 90
19, 105599, Note_on_c, 15, 69, 0
19, 105599, Note_on_c, 15, 66, 0
19, 105660, Note_on_c, 15, 68, 90
19, 105660, Note_on_c, 15, 62, 90
19, 105660, Note_on_c, 15, 71, 90
19, 105719, Note_on_c, 15, 71, 0
19, 105719, Note_on_c, 15, 62, 0
19, 105719, Note_on_c, 15, 68, 0
19, 105780, Note_on_c, 15, 61, 90
19, 105780, Note_on_c, 15, 66, 90
19, 105780, Note_on_c, 15, 69, 90
19, 105839, Note_on_c, 15, 69, 0
19, 105839, Note_on_c, 15, 66, 0
19, 105839, Note_on_c, 15, 61, 0
19, 105900, Note_on_c, 15, 61, 90
19, 105900, Note_on_c, 15, 66, 90
19, 105959, Note_on_c, 15, 66, 0
19, 105959, Note_on_c, 15, 61, 0
19, 106020, Note_on_c, 15, 68, 90
19, 106020, Note_on_c, 15, 65, 90
19, 106079, Note_on_c, 15, 65, 0
19, 106079, Note_on_c, 15, 68, 0
19, 106140, Note_on_c, 15, 69, 90
19, 106140, Note_on_c, 15, 66, 90
19, 106199, Note_on_c, 15, 66, 0
19, 106199, Note_on_c, 15, 69, 0
19, 106260, Note_on_c, 15, 68, 90
19, 106260, Note_on_c, 15, 65, 90
19, 106319, Note_on_c, 15, 65, 0
19, 106319, Note_on_c, 15, 68, 0
19, 106380, Note_on_c, 15, 61, 90
19, 106380, Note_on_c, 15, 71, 90
19, 106439, Note_on_c, 15, 71, 0
19, 106439, Note_on_c, 15, 61, 0
19, 106440, Note_on_c, 15, 62, 90
19, 106440, Note_on_c, 15, 66, 90
19, 106499, Note_on_c, 15, 66, 0
19, 106499, Note_on_c, 15, 62, 0
19, 106500, Note_on_c, 15, 62, 90
19, 106500, Note_on_c, 15, 65, 90
19, 106500, Note_on_c, 15, 59, 90
19, 106559, Note_on_c, 15, 59, 0
19, 106559, Note_on_c, 15, 65, 0
19, 106559, Note_on_c, 15, 62, 0
19, 106560, Note_on_c, 15, 68, 90
19, 106560, Note_on_c, 15, 61, 90
19, 106590, Note_on_c, 15, 68, 0
19, 106590, Note_on_c, 15, 69, 90
19, 106619, Note_on_c, 15, 61, 0
19, 106620, Note_on_c, 15, 69, 0
19, 106620, Note_on_c, 15, 71, 90
19, 106620, Note_on_c, 15, 61, 90
19, 106679, Note_on_c, 15, 61, 0
19, 106679, Note_on_c, 15, 71, 0
19, 106680, Note_on_c, 15, 73, 90
19, 106740, Note_on_c, 15, 73, 0
19, 106740, Note_on_c, 15, 66, 90
19, 106740, Note_on_c, 15, 69, 90
19, 106799, Note_on_c, 15, 69, 0
19, 106799, Note_on_c, 15, 66, 0
19, 106800, Note_on_c, 15, 68, 90
19, 106800, Note_on_c, 15, 63, 90
19, 106859, Note_on_c, 15, 63, 0
19, 106859, Note_on_c, 15, 68, 0
19, 106860, Note_on_c, 15, 66, 90
19, 106860, Note_on_c, 15, 61, 90
19, 106919, Note_on_c, 15, 61, 0
19, 106919, Note_on_c, 15, 66, 0
19, 106920, Note_on_c, 15, 64, 90
19, 106979, Note_on_c, 15, 64, 0
19, 106980, Note_on_c, 15, 70, 90
19, 106980, Note_on_c, 15, 67, 90
19, 107039, Note_on_c, 15, 67, 0
19, 107039, Note_on_c, 15, 70, 0
19, 107040, Note_on_c, 15, 66, 90
19, 107099, Note_on_c, 15, 66, 0
19, 107100, Note_on_c, 15, 66, 90
19, 107100, Note_on_c, 15, 64, 90
19, 107159, Note_on_c, 15, 64, 0
19, 107159, Note_on_c, 15, 66, 0
19, 107160, Note_on_c, 15, 64, 90
19, 107219, Note_on_c, 15, 64, 0
19, 107220, Note_on_c, 15, 62, 90
19, 107220, Note_on_c, 15, 66, 90
19, 107220, Note_on_c, 15, 73, 90
19, 107279, Note_on_c, 15, 73, 0
19, 107279, Note_on_c, 15, 66, 0
19, 107279, Note_on_c, 15, 62, 0
19, 107280, Note_on_c, 15, 71, 90
19, 107339, Note_on_c, 15, 71, 0
19, 107340, Note_on_c, 15, 66, 90
19, 107340, Note_on_c, 15, 62, 90
19, 107340, Note_on_c, 15, 71, 90
19, 107399, Note_on_c, 15, 71, 0
19, 107399, Note_on_c, 15, 62, 0
19, 107399, Note_on_c, 15, 66, 0
19, 107400, Note_on_c, 15, 70, 90
19, 107459, Note_on_c, 15, 70, 0
19, 107460, Note_on_c, 15, 68, 90
19, 107460, Note_on_c, 15, 62, 90
19, 107460, Note_on_c, 15, 64, 90
19, 107519, Note_on_c, 15, 64, 0
19, 107519, Note_on_c, 15, 62, 0
19, 107519, Note_on_c, 15, 68, 0
19, 107580, Note_on_c, 15, 68, 90
19, 107580, Note_on_c, 15, 62, 90
19, 107639, Note_on_c, 15, 62, 0
19, 107639, Note_on_c, 15, 68, 0
19, 107700, Note_on_c, 15, 61, 90
19, 107700, Note_on_c, 15, 64, 90
19, 107700, Note_on_c, 15, 71, 90
19, 107759, Note_on_c, 15, 71, 0
19, 107759, Note_on_c, 15, 64, 0
19, 107759, Note_on_c, 15, 61, 0
19, 107760, Note_on_c, 15, 69, 90
19, 107819, Note_on_c, 15, 69, 0
19, 107820, Note_on_c, 15, 61, 90
19, 107820, Note_on_c, 15, 64, 90
19, 107879, Note_on_c, 15, 64, 0
19, 107879, Note_on_c, 15, 61, 0
19, 107880, Note_on_c, 15, 62, 90
19, 107880, Note_on_c, 15, 59, 90
19, 107939, Note_on_c, 15, 59, 0
19, 107939, Note_on_c, 15, 62, 0
19, 107940, Note_on_c, 15, 63, 90
19, 107940, Note_on_c, 15, 59, 90
19, 108180, Note_on_c, 15, 59, 0
19, 108180, Note_on_c, 15, 63, 0
19, 108180, Note_on_c, 15, 65, 90
19, 108180, Note_on_c, 15, 61, 90
19, 108239, Note_on_c, 15, 61, 0
19, 108239, Note_on_c, 15, 65, 0
19, 108300, Note_on_c, 15, 62, 90
19, 108300, Note_on_c, 15, 65, 90
19, 108359, Note_on_c, 15, 65, 0
19, 108359, Note_on_c, 15, 62, 0
19, 108420, Note_on_c, 15, 68, 90
19, 108420, Note_on_c, 15, 61, 90
19, 108479, Note_on_c, 15, 61, 0
19, 108479, Note_on_c, 15, 68, 0
19, 108480, Note_on_c, 15, 61, 90
19, 108480, Note_on_c, 15, 66, 90
19, 108539, Note_on_c, 15, 66, 0
19, 108539, Note_on_c, 15, 61, 0
19, 108540, Note_on_c, 15, 69, 90
19, 108540, Note_on_c, 15, 66, 90
19, 108599, Note_on_c, 15, 66, 0
19, 108599, Note_on_c, 15, 69, 0
19, 108600, Note_on_c, 15, 68, 90
19, 108600, Note_on_c, 15, 65, 90
19, 108659, Note_on_c, 15, 65, 0
19, 108659, Note_on_c, 15, 68, 0
19, 108660, Note_on_c, 15, 73, 90
19, 108660, Note_on_c, 15, 66, 90
19, 108719, Note_on_c, 15, 66, 0
19, 108719, Note_on_c, 15, 73, 0
19, 108720, Note_on_c, 15, 74, 90
19, 108780, Note_on_c, 15, 68, 90
19, 108839, Note_on_c, 15, 68, 0
19, 108840, Note_on_c, 15, 74, 0
19, 108840, Note_on_c, 15, 73, 90
19, 108960, Note_on_c, 15, 73, 0
19, 108960, Note_on_c, 15, 71, 90
19, 109019, Note_on_c, 15, 71, 0
19, 109020, Note_on_c, 15, 69, 90
19, 109020, Note_on_c, 15, 66, 90
19, 109079, Note_on_c, 15, 66, 0
19, 109079, Note_on_c, 15, 69, 0
19, 109140, Note_on_c, 15, 68, 90
19, 109140, Note_on_c, 15, 66, 90
19, 109199, Note_on_c, 15, 66, 0
19, 109199, Note_on_c, 15, 68, 0
19, 109200, Note_on_c, 15, 62, 90
19, 109200, Note_on_c, 15, 66, 90
19, 109259, Note_on_c, 15, 66, 0
19, 109259, Note_on_c, 15, 62, 0
19, 109260, Note_on_c, 15, 68, 90
19, 109260, Note_on_c, 15, 65, 90
19, 109319, Note_on_c, 15, 65, 0
19, 109319, Note_on_c, 15, 68, 0
19, 109320, Note_on_c, 15, 65, 90
19, 109320, Note_on_c, 15, 59, 90
19, 109379, Note_on_c, 15, 59, 0
19, 109379, Note_on_c, 15, 65, 0
19, 109380, Note_on_c, 15, 61, 90
19, 109380, Note_on_c, 15, 66, 90
19, 109380, Note_on_c, 15, 57, 90
19, 109439, Note_on_c, 15, 57, 0
19, 109439, Note_on_c, 15, 66, 0
19, 109439, Note_on_c, 15, 61, 0
19, 109500, Note_on_c, 15, 62, 90
19, 109500, Note_on_c, 15, 68, 90
19, 109559, Note_on_c, 15, 68, 0
19, 109559, Note_on_c, 15, 62, 0
19, 109620, Note_on_c, 15, 61, 90
19, 109620, Note_on_c, 15, 66, 90
19, 109679, Note_on_c, 15, 66, 0
19, 109679, Note_on_c, 15, 61, 0
19, 109740, Note_on_c, 15, 69, 90
19, 109740, Note_on_c, 15, 66, 90
19, 109799, Note_on_c, 15, 66, 0
19, 109799, Note_on_c, 15, 69, 0
19, 109860, Note_on_c, 15, 71, 90
19, 109860, Note_on_c, 15, 65, 90
19, 109919, Note_on_c, 15, 65, 0
19, 109919, Note_on_c, 15, 71, 0
19, 109980, Note_on_c, 15, 69, 90
19, 109980, Note_on_c, 15, 66, 90
19, 109980, Note_on_c, 15, 73, 90
19, 110039, Note_on_c, 15, 73, 0
19, 110039, Note_on_c, 15, 66, 0
19, 110039, Note_on_c, 15, 69, 0
19, 110100, Note_on_c, 15, 68, 90
19, 110100, Note_on_c, 15, 73, 90
19, 110100, Note_on_c, 15, 65, 90
19, 110159, Note_on_c, 15, 65, 0
19, 110159, Note_on_c, 15, 73, 0
19, 110159, Note_on_c, 15, 68, 0
19, 110220, Note_on_c, 15, 73, 90
19, 110220, Note_on_c, 15, 64, 90
19, 110279, Note_on_c, 15, 64, 0
19, 110279, Note_on_c, 15, 73, 0
19, 110340, Note_on_c, 15, 64, 90
19, 110340, Note_on_c, 15, 66, 90
19, 110399, Note_on_c, 15, 66, 0
19, 110399, Note_on_c, 15, 64, 0
19, 110400, Note_on_c, 15, 70, 90
19, 110459, Note_on_c, 15, 70, 0
19, 110460, Note_on_c, 15, 71, 90
19, 110460, Note_on_c, 15, 73, 90
19, 110519, Note_on_c, 15, 73, 0
19, 110519, Note_on_c, 15, 71, 0
19, 110520, Note_on_c, 15, 76, 90
19, 110580, Note_on_c, 15, 70, 90
19, 110580, Note_on_c, 15, 66, 90
19, 110639, Note_on_c, 15, 66, 0
19, 110639, Note_on_c, 15, 70, 0
19, 110640, Note_on_c, 15, 76, 0
19, 110700, Note_on_c, 15, 66, 90
19, 110700, Note_on_c, 15, 71, 90
19, 110729, Note_on_c, 15, 71, 0
19, 110730, Note_on_c, 15, 69, 90
19, 110759, Note_on_c, 15, 69, 0
19, 110759, Note_on_c, 15, 66, 0
19, 110760, Note_on_c, 15, 71, 90
19, 110789, Note_on_c, 15, 71, 0
19, 110790, Note_on_c, 15, 73, 90
19, 110819, Note_on_c, 15, 73, 0
19, 110820, Note_on_c, 15, 64, 90
19, 110820, Note_on_c, 15, 74, 90
19, 110879, Note_on_c, 15, 74, 0
19, 110879, Note_on_c, 15, 64, 0
19, 110880, Note_on_c, 15, 68, 90
19, 110939, Note_on_c, 15, 68, 0
19, 110940, Note_on_c, 15, 71, 90
19, 110999, Note_on_c, 15, 71, 0
19, 111000, Note_on_c, 15, 74, 90
19, 111060, Note_on_c, 15, 68, 90
19, 111060, Note_on_c, 15, 64, 90
19, 111119, Note_on_c, 15, 64, 0
19, 111119, Note_on_c, 15, 68, 0
19, 111120, Note_on_c, 15, 74, 0
19, 111180, Note_on_c, 15, 69, 90
19, 111209, Note_on_c, 15, 69, 0
19, 111210, Note_on_c, 15, 68, 90
19, 111239, Note_on_c, 15, 68, 0
19, 111240, Note_on_c, 15, 69, 90
19, 111269, Note_on_c, 15, 69, 0
19, 111270, Note_on_c, 15, 71, 90
19, 111299, Note_on_c, 15, 71, 0
19, 111300, Note_on_c, 15, 61, 90
19, 111300, Note_on_c, 15, 69, 90
19, 111300, Note_on_c, 15, 63, 90
19, 111419, Note_on_c, 15, 63, 0
19, 111419, Note_on_c, 15, 69, 0
19, 111419, Note_on_c, 15, 61, 0
19, 111480, Note_on_c, 15, 68, 90
19, 111480, Note_on_c, 15, 62, 90
19, 111539, Note_on_c, 15, 62, 0
19, 111539, Note_on_c, 15, 68, 0
19, 111540, Note_on_c, 15, 62, 90
19, 111540, Note_on_c, 15, 65, 90
19, 111659, Note_on_c, 15, 65, 0
19, 111659, Note_on_c, 15, 62, 0
19, 111720, Note_on_c, 15, 61, 90
19, 111720, Note_on_c, 15, 71, 90
19, 111720, Note_on_c, 15, 68, 90
19, 111779, Note_on_c, 15, 68, 0
19, 111779, Note_on_c, 15, 71, 0
19, 111779, Note_on_c, 15, 61, 0
19, 111780, Note_on_c, 15, 73, 90
19, 111780, Note_on_c, 15, 68, 90
19, 111839, Note_on_c, 15, 68, 0
19, 111839, Note_on_c, 15, 73, 0
19, 111840, Note_on_c, 15, 66, 90
19, 111899, Note_on_c, 15, 66, 0
19, 111900, Note_on_c, 15, 66, 90
19, 111900, Note_on_c, 15, 69, 90
19, 111959, Note_on_c, 15, 69, 0
19, 111959, Note_on_c, 15, 66, 0
19, 111960, Note_on_c, 15, 68, 90
19, 111960, Note_on_c, 15, 71, 90
19, 112019, Note_on_c, 15, 71, 0
19, 112019, Note_on_c, 15, 68, 0
19, 112020, Note_on_c, 15, 73, 90
19, 112020, Note_on_c, 15, 69, 90
19, 112079, Note_on_c, 15, 69, 0
19, 112079, Note_on_c, 15, 73, 0
19, 112080, Note_on_c, 15, 66, 90
19, 112139, Note_on_c, 15, 66, 0
19, 112140, Note_on_c, 15, 69, 90
19, 112140, Note_on_c, 15, 66, 90
19, 112199, Note_on_c, 15, 66, 0
19, 112199, Note_on_c, 15, 69, 0
19, 112200, Note_on_c, 15, 68, 90
19, 112200, Note_on_c, 15, 65, 90
19, 112259, Note_on_c, 15, 65, 0
19, 112259, Note_on_c, 15, 68, 0
19, 112260, Note_on_c, 15, 61, 90
19, 112260, Note_on_c, 15, 66, 90
19, 112260, Note_on_c, 15, 69, 90
19, 112319, Note_on_c, 15, 69, 0
19, 112319, Note_on_c, 15, 66, 0
19, 112319, Note_on_c, 15, 61, 0
19, 112380, Note_on_c, 15, 61, 90
19, 112380, Note_on_c, 15, 69, 90
19, 112380, Note_on_c, 15, 66, 90
19, 112439, Note_on_c, 15, 66, 0
19, 112439, Note_on_c, 15, 69, 0
19, 112439, Note_on_c, 15, 61, 0
19, 112500, Note_on_c, 15, 69, 90
19, 112500, Note_on_c, 15, 61, 90
19, 112559, Note_on_c, 15, 61, 0
19, 112559, Note_on_c, 15, 69, 0
19, 112620, Note_on_c, 15, 66, 90
19, 112620, Note_on_c, 15, 62, 90
19, 112620, Note_on_c, 15, 59, 90
19, 112679, Note_on_c, 15, 59, 0
19, 112679, Note_on_c, 15, 62, 0
19, 112679, Note_on_c, 15, 66, 0
19, 112740, Note_on_c, 15, 67, 90
19, 112740, Note_on_c, 15, 64, 90
19, 112799, Note_on_c, 15, 64, 0
19, 112799, Note_on_c, 15, 67, 0
19, 112860, Note_on_c, 15, 64, 90
19, 112919, Note_on_c, 15, 64, 0
19, 112920, Note_on_c, 15, 63, 90
19, 112979, Note_on_c, 15, 63, 0
19, 112980, Note_on_c, 15, 59, 90
19, 112980, Note_on_c, 15, 64, 90
19, 113039, Note_on_c, 15, 64, 0
19, 113039, Note_on_c, 15, 59, 0
19, 113100, Note_on_c, 15, 59, 90
19, 113100, Note_on_c, 15, 64, 90
19, 113159, Note_on_c, 15, 64, 0
19, 113159, Note_on_c, 15, 59, 0
19, 113220, Note_on_c, 15, 67, 90
19, 113220, Note_on_c, 15, 64, 90
19, 113279, Note_on_c, 15, 64, 0
19, 113279, Note_on_c, 15, 67, 0
19, 113340, Note_on_c, 15, 67, 90
19, 113340, Note_on_c, 15, 69, 90
19, 113399, Note_on_c, 15, 69, 0
19, 113399, Note_on_c, 15, 67, 0
19, 113460, Note_on_c, 15, 57, 90
19, 113460, Note_on_c, 15, 66, 90
19, 113519, Note_on_c, 15, 66, 0
19, 113519, Note_on_c, 15, 57, 0
19, 113580, Note_on_c, 15, 62, 90
19, 113580, Note_on_c, 15, 66, 90
19, 113639, Note_on_c, 15, 66, 0
19, 113639, Note_on_c, 15, 62, 0
19, 113700, Note_on_c, 15, 62, 90
19, 113760, Note_on_c, 15, 64, 90
19, 113819, Note_on_c, 15, 64, 0
19, 113820, Note_on_c, 15, 66, 90
19, 113879, Note_on_c, 15, 66, 0
19, 113880, Note_on_c, 15, 62, 0
19, 113880, Note_on_c, 15, 61, 90
19, 113880, Note_on_c, 15, 64, 90
19, 113939, Note_on_c, 15, 64, 0
19, 113939, Note_on_c, 15, 61, 0
19, 113940, Note_on_c, 15, 57, 90
19, 113940, Note_on_c, 15, 66, 90
19, 113940, Note_on_c, 15, 62, 90
19, 113999, Note_on_c, 15, 62, 0
19, 113999, Note_on_c, 15, 66, 0
19, 113999, Note_on_c, 15, 57, 0
19, 114060, Note_on_c, 15, 69, 90
19, 114060, Note_on_c, 15, 66, 90
19, 114060, Note_on_c, 15, 62, 90
19, 114119, Note_on_c, 15, 62, 0
19, 114119, Note_on_c, 15, 66, 0
19, 114119, Note_on_c, 15, 69, 0
19, 114180, Note_on_c, 15, 62, 90
19, 114180, Note_on_c, 15, 66, 90
19, 114239, Note_on_c, 15, 66, 0
19, 114239, Note_on_c, 15, 62, 0
19, 114300, Note_on_c, 15, 68, 90
19, 114300, Note_on_c, 15, 62, 90
19, 114359, Note_on_c, 15, 62, 0
19, 114359, Note_on_c, 15, 68, 0
19, 114420, Note_on_c, 15, 61, 90
19, 114479, Note_on_c, 15, 61, 0
19, 114480, Note_on_c, 15, 62, 90
19, 114539, Note_on_c, 15, 62, 0
19, 114540, Note_on_c, 15, 69, 90
19, 114540, Note_on_c, 15, 67, 90
19, 114540, Note_on_c, 15, 64, 90
19, 114599, Note_on_c, 15, 64, 0
19, 114599, Note_on_c, 15, 67, 0
19, 114599, Note_on_c, 15, 69, 0
19, 114600, Note_on_c, 15, 66, 90
19, 114659, Note_on_c, 15, 66, 0
19, 114660, Note_on_c, 15, 61, 90
19, 114660, Note_on_c, 15, 64, 90
19, 114719, Note_on_c, 15, 64, 0
19, 114719, Note_on_c, 15, 61, 0
19, 114780, Note_on_c, 15, 61, 90
19, 114780, Note_on_c, 15, 64, 90
19, 114839, Note_on_c, 15, 64, 0
19, 114839, Note_on_c, 15, 61, 0
19, 114900, Note_on_c, 15, 70, 90
19, 114900, Note_on_c, 15, 64, 90
19, 114959, Note_on_c, 15, 64, 0
19, 114959, Note_on_c, 15, 70, 0
19, 115020, Note_on_c, 15, 73, 90
19, 115020, Note_on_c, 15, 70, 90
19, 115079, Note_on_c, 15, 70, 0
19, 115079, Note_on_c, 15, 73, 0
19, 115140, Note_on_c, 15, 71, 90
19, 115140, Note_on_c, 15, 62, 90
19, 115199, Note_on_c, 15, 62, 0
19, 115200, Note_on_c, 15, 73, 90
19, 115259, Note_on_c, 15, 73, 0
19, 115260, Note_on_c, 15, 71, 0
19, 115260, Note_on_c, 15, 59, 90
19, 115260, Note_on_c, 15, 67, 90
19, 115319, Note_on_c, 15, 67, 0
19, 115319, Note_on_c, 15, 59, 0
19, 115320, Note_on_c, 15, 61, 90
19, 115320, Note_on_c, 15, 70, 90
19, 115380, Note_on_c, 15, 70, 0
19, 115380, Note_on_c, 15, 61, 0
19, 115380, Note_on_c, 15, 62, 90
19, 115380, Note_on_c, 15, 71, 90
19, 115440, Note_on_c, 15, 71, 0
19, 115440, Note_on_c, 15, 62, 0
19, 115500, Note_on_c, 15, 62, 90
19, 115500, Note_on_c, 15, 66, 90
19, 115560, Note_on_c, 15, 66, 0
19, 115560, Note_on_c, 15, 62, 0
19, 115620, Note_on_c, 15, 64, 90
19, 115620, Note_on_c, 15, 68, 90
19, 115680, Note_on_c, 15, 68, 0
19, 115680, Note_on_c, 15, 64, 0
19, 115740, Note_on_c, 15, 71, 90
19, 115740, Note_on_c, 15, 65, 90
19, 115800, Note_on_c, 15, 65, 0
19, 115800, Note_on_c, 15, 71, 0
19, 115860, Note_on_c, 15, 64, 90
19, 115860, Note_on_c, 15, 69, 90
19, 115920, Note_on_c, 15, 69, 0
19, 115920, Note_on_c, 15, 64, 0
19, 115980, Note_on_c, 15, 66, 90
19, 116040, Note_on_c, 15, 66, 0
19, 116040, Note_on_c, 15, 64, 90
19, 116100, Note_on_c, 15, 64, 0
19, 116100, Note_on_c, 15, 60, 90
19, 116100, Note_on_c, 15, 63, 90
19, 116160, Note_on_c, 15, 63, 0
19, 116160, Note_on_c, 15, 60, 0
19, 116220, Note_on_c, 15, 59, 90
19, 116220, Note_on_c, 15, 69, 90
19, 116280, Note_on_c, 15, 69, 0
19, 116280, Note_on_c, 15, 59, 0
19, 116340, Note_on_c, 15, 64, 90
19, 116340, Note_on_c, 15, 71, 90
19, 116400, Note_on_c, 15, 71, 0
19, 116400, Note_on_c, 15, 64, 0
19, 116460, Note_on_c, 15, 64, 90
19, 116460, Note_on_c, 15, 71, 90
19, 116520, Note_on_c, 15, 71, 0
19, 116520, Note_on_c, 15, 64, 0
19, 116580, Note_on_c, 15, 69, 90
19, 116580, Note_on_c, 15, 64, 90
19, 116640, Note_on_c, 15, 64, 0
19, 116640, Note_on_c, 15, 69, 0
19, 116700, Note_on_c, 15, 63, 90
19, 116700, Note_on_c, 15, 69, 90
19, 116760, Note_on_c, 15, 69, 0
19, 116760, Note_on_c, 15, 63, 0
19, 116820, Note_on_c, 15, 59, 90
19, 116820, Note_on_c, 15, 67, 90
19, 116880, Note_on_c, 15, 67, 0
19, 116880, Note_on_c, 15, 59, 0
19, 116880, Note_on_c, 15, 66, 90
19, 116940, Note_on_c, 15, 66, 0
19, 116940, Note_on_c, 15, 67, 90
19, 116940, Note_on_c, 15, 69, 90
19, 116940, Note_on_c, 15, 64, 90
19, 117000, Note_on_c, 15, 64, 0
19, 117000, Note_on_c, 15, 69, 0
19, 117000, Note_on_c, 15, 67, 0
19, 117000, Note_on_c, 15, 62, 90
19, 117060, Note_on_c, 15, 62, 0
19, 117060, Note_on_c, 15, 66, 90
19, 117060, Note_on_c, 15, 64, 90
19, 117120, Note_on_c, 15, 64, 0
19, 117120, Note_on_c, 15, 66, 0
19, 117180, Note_on_c, 15, 64, 90
19, 117180, Note_on_c, 15, 70, 90
19, 117240, Note_on_c, 15, 70, 0
19, 117240, Note_on_c, 15, 64, 0
19, 117300, Note_on_c, 15, 66, 90
19, 117300, Note_on_c, 15, 71, 90
19, 117360, Note_on_c, 15, 71, 0
19, 117360, Note_on_c, 15, 66, 0
19, 117480, Note_on_c, 15, 66, 90
19, 117480, Note_on_c, 15, 69, 90
19, 117540, Note_on_c, 15, 69, 0
19, 117540, Note_on_c, 15, 66, 0
19, 117540, Note_on_c, 15, 64, 90
19, 117540, Note_on_c, 15, 67, 90
19, 117600, Note_on_c, 15, 67, 0
19, 117600, Note_on_c, 15, 64, 0
19, 117600, Note_on_c, 15, 74, 90
19, 117600, Note_on_c, 15, 66, 90
19, 117660, Note_on_c, 15, 66, 0
19, 117660, Note_on_c, 15, 74, 0
19, 117660, Note_on_c, 15, 73, 90
19, 117660, Note_on_c, 15, 64, 90
19, 117660, Note_on_c, 15, 69, 90
19, 117720, Note_on_c, 15, 69, 0
19, 117720, Note_on_c, 15, 64, 0
19, 117720, Note_on_c, 15, 73, 0
19, 117720, Note_on_c, 15, 71, 90
19, 117720, Note_on_c, 15, 66, 90
19, 117780, Note_on_c, 15, 66, 0
19, 117780, Note_on_c, 15, 71, 0
19, 117780, Note_on_c, 15, 64, 90
19, 117780, Note_on_c, 15, 70, 90
19, 117840, Note_on_c, 15, 70, 0
19, 117840, Note_on_c, 15, 64, 0
19, 117900, Note_on_c, 15, 62, 90
19, 117900, Note_on_c, 15, 71, 90
19, 117960, Note_on_c, 15, 71, 0
19, 117960, Note_on_c, 15, 62, 0
19, 117960, Note_on_c, 15, 70, 90
19, 117960, Note_on_c, 15, 64, 90
19, 118020, Note_on_c, 15, 64, 0
19, 118020, Note_on_c, 15, 70, 0
19, 118020, Note_on_c, 15, 62, 90
19, 118020, Note_on_c, 15, 66, 90
19, 118140, Note_on_c, 15, 66, 0
19, 118140, Note_on_c, 15, 62, 0
19, 118140, Note_on_c, 15, 64, 90
19, 118140, Note_on_c, 15, 61, 90
19, 118199, Note_on_c, 15, 61, 0
19, 118200, Note_on_c, 15, 59, 90
19, 118259, Note_on_c, 15, 59, 0
19, 118260, Note_on_c, 15, 64, 0
19, 118260, Note_on_c, 15, 61, 90
19, 118260, Note_on_c, 15, 58, 90
19, 118319, Note_on_c, 15, 58, 0
19, 118319, Note_on_c, 15, 61, 0
19, 118320, Note_on_c, 15, 70, 90
19, 118349, Note_on_c, 15, 70, 0
19, 118350, Note_on_c, 15, 68, 90
19, 118379, Note_on_c, 15, 68, 0
19, 118380, Note_on_c, 15, 66, 90
19, 118439, Note_on_c, 15, 66, 0
19, 118440, Note_on_c, 15, 64, 90
19, 118499, Note_on_c, 15, 64, 0
19, 118500, Note_on_c, 15, 66, 90
19, 118500, Note_on_c, 15, 62, 90
19, 118559, Note_on_c, 15, 62, 0
19, 118559, Note_on_c, 15, 66, 0
19, 118620, Note_on_c, 15, 67, 90
19, 118620, Note_on_c, 15, 64, 90
19, 118679, Note_on_c, 15, 64, 0
19, 118679, Note_on_c, 15, 67, 0
19, 118740, Note_on_c, 15, 62, 90
19, 118740, Note_on_c, 15, 66, 90
19, 118799, Note_on_c, 15, 66, 0
19, 118799, Note_on_c, 15, 62, 0
19, 118860, Note_on_c, 15, 62, 90
19, 118860, Note_on_c, 15, 71, 90
19, 118919, Note_on_c, 15, 71, 0
19, 118919, Note_on_c, 15, 62, 0
19, 118980, Note_on_c, 15, 64, 90
19, 118980, Note_on_c, 15, 70, 90
19, 119039, Note_on_c, 15, 70, 0
19, 119039, Note_on_c, 15, 64, 0
19, 119100, Note_on_c, 15, 66, 90
19, 119100, Note_on_c, 15, 71, 90
19, 119159, Note_on_c, 15, 71, 0
19, 119159, Note_on_c, 15, 66, 0
19, 119220, Note_on_c, 15, 70, 90
19, 119279, Note_on_c, 15, 70, 0
19, 119280, Note_on_c, 15, 64, 90
19, 119280, Note_on_c, 15, 71, 90
19, 119339, Note_on_c, 15, 71, 0
19, 119339, Note_on_c, 15, 64, 0
19, 119340, Note_on_c, 15, 73, 90
19, 119399, Note_on_c, 15, 73, 0
19, 119400, Note_on_c, 15, 70, 90
19, 119459, Note_on_c, 15, 70, 0
19, 119460, Note_on_c, 15, 66, 90
19, 119460, Note_on_c, 15, 71, 90
19, 119519, Note_on_c, 15, 71, 0
19, 119519, Note_on_c, 15, 66, 0
19, 119580, Note_on_c, 15, 64, 90
19, 119580, Note_on_c, 15, 67, 90
19, 119639, Note_on_c, 15, 67, 0
19, 119639, Note_on_c, 15, 64, 0
19, 119700, Note_on_c, 15, 62, 90
19, 119700, Note_on_c, 15, 66, 90
19, 119759, Note_on_c, 15, 66, 0
19, 119759, Note_on_c, 15, 62, 0
19, 119820, Note_on_c, 15, 66, 90
19, 119820, Note_on_c, 15, 71, 90
19, 119879, Note_on_c, 15, 71, 0
19, 119879, Note_on_c, 15, 66, 0
19, 119940, Note_on_c, 15, 61, 90
19, 119940, Note_on_c, 15, 69, 90
19, 119940, Note_on_c, 15, 62, 90
19, 119999, Note_on_c, 15, 62, 0
19, 119999, Note_on_c, 15, 69, 0
19, 119999, Note_on_c, 15, 61, 0
19, 120000, Note_on_c, 15, 59, 90
19, 120059, Note_on_c, 15, 59, 0
19, 120060, Note_on_c, 15, 67, 90
19, 120060, Note_on_c, 15, 64, 90
19, 120119, Note_on_c, 15, 64, 0
19, 120119, Note_on_c, 15, 67, 0
19, 120120, Note_on_c, 15, 62, 90
19, 120179, Note_on_c, 15, 62, 0
19, 120180, Note_on_c, 15, 61, 90
19, 120180, Note_on_c, 15, 70, 90
19, 120239, Note_on_c, 15, 70, 0
19, 120239, Note_on_c, 15, 61, 0
19, 120300, Note_on_c, 15, 58, 90
19, 120300, Note_on_c, 15, 66, 90
19, 120359, Note_on_c, 15, 66, 0
19, 120359, Note_on_c, 15, 58, 0
19, 120420, Note_on_c, 15, 57, 90
19, 120420, Note_on_c, 15, 59, 90
19, 120479, Note_on_c, 15, 59, 0
19, 120479, Note_on_c, 15, 57, 0
19, 120540, Note_on_c, 15, 63, 90
19, 120599, Note_on_c, 15, 63, 0
19, 120600, Note_on_c, 15, 64, 90
19, 120600, Note_on_c, 15, 66, 90
19, 120659, Note_on_c, 15, 66, 0
19, 120659, Note_on_c, 15, 64, 0
19, 120660, Note_on_c, 15, 69, 90
19, 120660, Note_on_c, 15, 63, 90
19, 120660, Note_on_c, 15, 59, 90
19, 120719, Note_on_c, 15, 59, 0
19, 120719, Note_on_c, 15, 63, 0
19, 120719, Note_on_c, 15, 69, 0
19, 120780, Note_on_c, 15, 64, 90
19, 120780, Note_on_c, 15, 67, 90
19, 120839, Note_on_c, 15, 67, 0
19, 120839, Note_on_c, 15, 64, 0
19, 120900, Note_on_c, 15, 57, 90
19, 120900, Note_on_c, 15, 69, 90
19, 120959, Note_on_c, 15, 69, 0
19, 120959, Note_on_c, 15, 57, 0
19, 121020, Note_on_c, 15, 66, 90
19, 121079, Note_on_c, 15, 66, 0
19, 121140, Note_on_c, 15, 64, 90
19, 121140, Note_on_c, 15, 61, 90
19, 121140, Note_on_c, 15, 67, 90
19, 121199, Note_on_c, 15, 67, 0
19, 121199, Note_on_c, 15, 61, 0
19, 121199, Note_on_c, 15, 64, 0
19, 121200, Note_on_c, 15, 66, 90
19, 121259, Note_on_c, 15, 66, 0
19, 121260, Note_on_c, 15, 62, 90
19, 121260, Note_on_c, 15, 66, 90
19, 121319, Note_on_c, 15, 66, 0
19, 121319, Note_on_c, 15, 62, 0
19, 121380, Note_on_c, 15, 64, 90
19, 121380, Note_on_c, 15, 68, 90
19, 121439, Note_on_c, 15, 68, 0
19, 121439, Note_on_c, 15, 64, 0
19, 121500, Note_on_c, 15, 62, 90
19, 121500, Note_on_c, 15, 68, 90
19, 121559, Note_on_c, 15, 68, 0
19, 121559, Note_on_c, 15, 62, 0
19, 121620, Note_on_c, 15, 64, 90
19, 121620, Note_on_c, 15, 62, 90
19, 121679, Note_on_c, 15, 62, 0
19, 121680, Note_on_c, 15, 61, 90
19, 121739, Note_on_c, 15, 61, 0
19, 121739, Note_on_c, 15, 64, 0
19, 121800, Note_on_c, 15, 67, 90
19, 121800, Note_on_c, 15, 69, 90
19, 121859, Note_on_c, 15, 69, 0
19, 121859, Note_on_c, 15, 67, 0
19, 121860, Note_on_c, 15, 76, 90
19, 121919, Note_on_c, 15, 76, 0
19, 121920, Note_on_c, 15, 74, 90
19, 121979, Note_on_c, 15, 74, 0
19, 121980, Note_on_c, 15, 66, 90
19, 121980, Note_on_c, 15, 74, 90
19, 122039, Note_on_c, 15, 74, 0
19, 122039, Note_on_c, 15, 66, 0
19, 122040, Note_on_c, 15, 64, 90
19, 122040, Note_on_c, 15, 73, 90
19, 122099, Note_on_c, 15, 73, 0
19, 122099, Note_on_c, 15, 64, 0
19, 122100, Note_on_c, 15, 62, 90
19, 122100, Note_on_c, 15, 66, 90
19, 122100, Note_on_c, 15, 74, 90
19, 122159, Note_on_c, 15, 74, 0
19, 122159, Note_on_c, 15, 66, 0
19, 122159, Note_on_c, 15, 62, 0
19, 122160, Note_on_c, 15, 62, 90
19, 122190, Note_on_c, 15, 62, 0
19, 122190, Note_on_c, 15, 64, 90
19, 122220, Note_on_c, 15, 64, 0
19, 122220, Note_on_c, 15, 66, 90
19, 122220, Note_on_c, 15, 69, 90
19, 122279, Note_on_c, 15, 69, 0
19, 122279, Note_on_c, 15, 66, 0
19, 122280, Note_on_c, 15, 67, 90
19, 122280, Note_on_c, 15, 73, 90
19, 122339, Note_on_c, 15, 73, 0
19, 122339, Note_on_c, 15, 67, 0
19, 122340, Note_on_c, 15, 66, 90
19, 122340, Note_on_c, 15, 74, 90
19, 122399, Note_on_c, 15, 74, 0
19, 122399, Note_on_c, 15, 66, 0
19, 122520, Note_on_c, 15, 66, 90
19, 122520, Note_on_c, 15, 74, 90
19, 122549, Note_on_c, 15, 74, 0
19, 122549, Note_on_c, 15, 66, 0
19, 122550, Note_on_c, 15, 64, 90
19, 122550, Note_on_c, 15, 73, 90
19, 122579, Note_on_c, 15, 73, 0
19, 122579, Note_on_c, 15, 64, 0
19, 122580, Note_on_c, 15, 66, 90
19, 122580, Note_on_c, 15, 74, 90
19, 122639, Note_on_c, 15, 74, 0
19, 122639, Note_on_c, 15, 66, 0
19, 122640, Note_on_c, 15, 67, 90
19, 122640, Note_on_c, 15, 64, 90
19, 122699, Note_on_c, 15, 64, 0
19, 122699, Note_on_c, 15, 67, 0
19, 122700, Note_on_c, 15, 66, 90
19, 122700, Note_on_c, 15, 62, 90
19, 122759, Note_on_c, 15, 62, 0
19, 122759, Note_on_c, 15, 66, 0
19, 122760, Note_on_c, 15, 64, 90
19, 122760, Note_on_c, 15, 60, 90
19, 122819, Note_on_c, 15, 60, 0
19, 122819, Note_on_c, 15, 64, 0
19, 122820, Note_on_c, 15, 66, 90
19, 122820, Note_on_c, 15, 59, 90
19, 122879, Note_on_c, 15, 59, 0
19, 122879, Note_on_c, 15, 66, 0
19, 122880, Note_on_c, 15, 63, 90
19, 122880, Note_on_c, 15, 69, 90
19, 123060, Note_on_c, 15, 69, 0
19, 123060, Note_on_c, 15, 63, 0
19, 123060, Note_on_c, 15, 64, 90
19, 123060, Note_on_c, 15, 67, 90
19, 123119, Note_on_c, 15, 67, 0
19, 123119, Note_on_c, 15, 64, 0
19, 123120, Note_on_c, 15, 63, 90
19, 123179, Note_on_c, 15, 63, 0
19, 123180, Note_on_c, 15, 67, 90
19, 123180, Note_on_c, 15, 64, 90
19, 123239, Note_on_c, 15, 64, 0
19, 123239, Note_on_c, 15, 67, 0
19, 123300, Note_on_c, 15, 67, 90
19, 123300, Note_on_c, 15, 70, 90
19, 123359, Note_on_c, 15, 70, 0
19, 123359, Note_on_c, 15, 67, 0
19, 123420, Note_on_c, 15, 64, 90
19, 123420, Note_on_c, 15, 70, 90
19, 123479, Note_on_c, 15, 70, 0
19, 123479, Note_on_c, 15, 64, 0
19, 123540, Note_on_c, 15, 66, 90
19, 123540, Note_on_c, 15, 73, 90
19, 123599, Note_on_c, 15, 73, 0
19, 123599, Note_on_c, 15, 66, 0
19, 123600, Note_on_c, 15, 71, 90
19, 123659, Note_on_c, 15, 71, 0
19, 123660, Note_on_c, 15, 62, 90
19, 123660, Note_on_c, 15, 66, 90
19, 123660, Note_on_c, 15, 71, 90
19, 123719, Note_on_c, 15, 71, 0
19, 123719, Note_on_c, 15, 66, 0
19, 123719, Note_on_c, 15, 62, 0
19, 123780, Note_on_c, 15, 72, 90
19, 123780, Note_on_c, 15, 69, 90
19, 123839, Note_on_c, 15, 69, 0
19, 123839, Note_on_c, 15, 72, 0
19, 123900, Note_on_c, 15, 69, 90
19, 123900, Note_on_c, 15, 71, 90
19, 123959, Note_on_c, 15, 71, 0
19, 123959, Note_on_c, 15, 69, 0
19, 124020, Note_on_c, 15, 67, 90
19, 124020, Note_on_c, 15, 66, 90
19, 124079, Note_on_c, 15, 66, 0
19, 124079, Note_on_c, 15, 67, 0
19, 124080, Note_on_c, 15, 64, 90
19, 124139, Note_on_c, 15, 64, 0
19, 124140, Note_on_c, 15, 64, 90
19, 124140, Note_on_c, 15, 67, 90
19, 124199, Note_on_c, 15, 67, 0
19, 124199, Note_on_c, 15, 64, 0
19, 124260, Note_on_c, 15, 64, 90
19, 124260, Note_on_c, 15, 67, 90
19, 124319, Note_on_c, 15, 67, 0
19, 124319, Note_on_c, 15, 64, 0
19, 124380, Note_on_c, 15, 64, 90
19, 124380, Note_on_c, 15, 66, 90
19, 124439, Note_on_c, 15, 66, 0
19, 124439, Note_on_c, 15, 64, 0
19, 124500, Note_on_c, 15, 70, 90
19, 124500, Note_on_c, 15, 64, 90
19, 124559, Note_on_c, 15, 64, 0
19, 124559, Note_on_c, 15, 70, 0
19, 124620, Note_on_c, 15, 66, 90
19, 124620, Note_on_c, 15, 71, 90
19, 124679, Note_on_c, 15, 71, 0
19, 124679, Note_on_c, 15, 66, 0
19, 124740, Note_on_c, 15, 62, 90
19, 124740, Note_on_c, 15, 65, 90
19, 124980, Note_on_c, 15, 65, 0
19, 124980, Note_on_c, 15, 62, 0
19, 124980, Note_on_c, 15, 64, 90
19, 124980, Note_on_c, 15, 61, 90
19, 125039, Note_on_c, 15, 61, 0
19, 125039, Note_on_c, 15, 64, 0
19, 125100, Note_on_c, 15, 70, 90
19, 125100, Note_on_c, 15, 66, 90
19, 125159, Note_on_c, 15, 66, 0
19, 125159, Note_on_c, 15, 70, 0
19, 125220, Note_on_c, 15, 66, 90
19, 125220, Note_on_c, 15, 71, 90
19, 125279, Note_on_c, 15, 71, 0
19, 125279, Note_on_c, 15, 66, 0
19, 125280, Note_on_c, 15, 64, 90
19, 125280, Note_on_c, 15, 70, 90
19, 125460, Note_on_c, 15, 70, 0
19, 125460, Note_on_c, 15, 64, 0
19, 125460, Note_on_c, 15, 66, 90
19, 125460, Note_on_c, 15, 71, 90
19, 125700, Note_on_c, 15, 71, 0
19, 125700, Note_on_c, 15, 66, 0
19, 125700, Note_on_c, 15, 66, 90
19, 125700, Note_on_c, 15, 64, 90
19, 125759, Note_on_c, 15, 64, 0
19, 125759, Note_on_c, 15, 66, 0
19, 125760, Note_on_c, 15, 62, 90
19, 125760, Note_on_c, 15, 66, 90
19, 125940, Note_on_c, 15, 66, 0
19, 125940, Note_on_c, 15, 62, 0
19, 125940, Note_on_c, 15, 61, 90
19, 125940, Note_on_c, 15, 66, 90
19, 126180, Note_on_c, 15, 66, 0
19, 126180, Note_on_c, 15, 61, 0
19, 126180, Note_on_c, 15, 62, 90
19, 126180, Note_on_c, 15, 66, 90
19, 126239, Note_on_c, 15, 66, 0
19, 126239, Note_on_c, 15, 62, 0
19, 126300, Note_on_c, 15, 60, 90
19, 126359, Note_on_c, 15, 60, 0
19, 126360, Note_on_c, 15, 59, 90
19, 126419, Note_on_c, 15, 59, 0
19, 126420, Note_on_c, 15, 60, 90
19, 126479, Note_on_c, 15, 60, 0
19, 126600, Note_on_c, 15, 64, 90
19, 126659, Note_on_c, 15, 64, 0
19, 126660, Note_on_c, 15, 62, 90
19, 126660, Note_on_c, 15, 71, 90
19, 126719, Note_on_c, 15, 71, 0
19, 126719, Note_on_c, 15, 62, 0
19, 126780, Note_on_c, 15, 61, 90
19, 126780, Note_on_c, 15, 70, 90
19, 126839, Note_on_c, 15, 70, 0
19, 126839, Note_on_c, 15, 61, 0
19, 126840, Note_on_c, 15, 64, 90
19, 126899, Note_on_c, 15, 64, 0
19, 126900, Note_on_c, 15, 66, 90
19, 126900, Note_on_c, 15, 62, 90
19, 126959, Note_on_c, 15, 62, 0
19, 126959, Note_on_c, 15, 66, 0
19, 127020, Note_on_c, 15, 62, 90
19, 127020, Note_on_c, 15, 66, 90
19, 127079, Note_on_c, 15, 66, 0
19, 127079, Note_on_c, 15, 62, 0
19, 127140, Note_on_c, 15, 63, 90
19, 127140, Note_on_c, 15, 61, 90
19, 127199, Note_on_c, 15, 61, 0
19, 127199, Note_on_c, 15, 63, 0
19, 127200, Note_on_c, 15, 66, 90
19, 127230, Note_on_c, 15, 66, 0
19, 127230, Note_on_c, 15, 67, 90
19, 127260, Note_on_c, 15, 67, 0
19, 127260, Note_on_c, 15, 59, 90
19, 127260, Note_on_c, 15, 69, 90
19, 127319, Note_on_c, 15, 69, 0
19, 127319, Note_on_c, 15, 59, 0
19, 127320, Note_on_c, 15, 71, 90
19, 127380, Note_on_c, 15, 71, 0
19, 127380, Note_on_c, 15, 59, 90
19, 127380, Note_on_c, 15, 67, 90
19, 127439, Note_on_c, 15, 67, 0
19, 127439, Note_on_c, 15, 59, 0
19, 127500, Note_on_c, 15, 67, 90
19, 127500, Note_on_c, 15, 64, 90
19, 127559, Note_on_c, 15, 64, 0
19, 127559, Note_on_c, 15, 67, 0
19, 127620, Note_on_c, 15, 70, 90
19, 127620, Note_on_c, 15, 66, 90
19, 127679, Note_on_c, 15, 66, 0
19, 127679, Note_on_c, 15, 70, 0
19, 127680, Note_on_c, 15, 62, 90
19, 127709, Note_on_c, 15, 62, 0
19, 127710, Note_on_c, 15, 64, 90
19, 127739, Note_on_c, 15, 64, 0
19, 127740, Note_on_c, 15, 66, 90
19, 127740, Note_on_c, 15, 64, 90
19, 127799, Note_on_c, 15, 64, 0
19, 127799, Note_on_c, 15, 66, 0
19, 127860, Note_on_c, 15, 62, 90
19, 127860, Note_on_c, 15, 66, 90
19, 127919, Note_on_c, 15, 66, 0
19, 127919, Note_on_c, 15, 62, 0
19, 127980, Note_on_c, 15, 62, 90
19, 127980, Note_on_c, 15, 71, 90
19, 128039, Note_on_c, 15, 71, 0
19, 128039, Note_on_c, 15, 62, 0
19, 128100, Note_on_c, 15, 73, 90
19, 128100, Note_on_c, 15, 64, 90
19, 128159, Note_on_c, 15, 64, 0
19, 128159, Note_on_c, 15, 73, 0
19, 128220, Note_on_c, 15, 71, 90
19, 128220, Note_on_c, 15, 62, 90
19, 128279, Note_on_c, 15, 62, 0
19, 128279, Note_on_c, 15, 71, 0
19, 128340, Note_on_c, 15, 61, 90
19, 128340, Note_on_c, 15, 70, 90
19, 128340, Note_on_c, 15, 66, 90
19, 128399, Note_on_c, 15, 66, 0
19, 128399, Note_on_c, 15, 70, 0
19, 128399, Note_on_c, 15, 61, 0
19, 128460, Note_on_c, 15, 62, 90
19, 128460, Note_on_c, 15, 66, 90
19, 128460, Note_on_c, 15, 71, 90
19, 128519, Note_on_c, 15, 71, 0
19, 128519, Note_on_c, 15, 66, 0
19, 128519, Note_on_c, 15, 62, 0
19, 128580, Note_on_c, 15, 70, 90
19, 128580, Note_on_c, 15, 67, 90
19, 128639, Note_on_c, 15, 67, 0
19, 128639, Note_on_c, 15, 70, 0
19, 128700, Note_on_c, 15, 67, 90
19, 128700, Note_on_c, 15, 64, 90
19, 128759, Note_on_c, 15, 64, 0
19, 128759, Note_on_c, 15, 67, 0
19, 128820, Note_on_c, 15, 67, 90
19, 128820, Note_on_c, 15, 64, 90
19, 128879, Note_on_c, 15, 64, 0
19, 128879, Note_on_c, 15, 67, 0
19, 128940, Note_on_c, 15, 64, 90
19, 128940, Note_on_c, 15, 61, 90
19, 128999, Note_on_c, 15, 61, 0
19, 128999, Note_on_c, 15, 64, 0
19, 129060, Note_on_c, 15, 63, 90
19, 129060, Note_on_c, 15, 66, 90
19, 129119, Note_on_c, 15, 66, 0
19, 129119, Note_on_c, 15, 63, 0
19, 129180, Note_on_c, 15, 69, 90
19, 129180, Note_on_c, 15, 60, 90
19, 129239, Note_on_c, 15, 60, 0
19, 129239, Note_on_c, 15, 69, 0
19, 129300, Note_on_c, 15, 62, 90
19, 129300, Note_on_c, 15, 59, 90
19, 129419, Note_on_c, 15, 59, 0
19, 129419, Note_on_c, 15, 62, 0
19, 129480, Note_on_c, 15, 68, 90
19, 129480, Note_on_c, 15, 65, 90
19, 129539, Note_on_c, 15, 65, 0
19, 129539, Note_on_c, 15, 68, 0
19, 129540, Note_on_c, 15, 66, 90
19, 129540, Note_on_c, 15, 71, 90
19, 129599, Note_on_c, 15, 71, 0
19, 129599, Note_on_c, 15, 66, 0
19, 129600, Note_on_c, 15, 71, 90
19, 129600, Note_on_c, 15, 73, 90
19, 129659, Note_on_c, 15, 73, 0
19, 129659, Note_on_c, 15, 71, 0
19, 129660, Note_on_c, 15, 66, 90
19, 129660, Note_on_c, 15, 71, 90
19, 129719, Note_on_c, 15, 71, 0
19, 129719, Note_on_c, 15, 66, 0
19, 129720, Note_on_c, 15, 66, 90
19, 129720, Note_on_c, 15, 70, 90
19, 129779, Note_on_c, 15, 70, 0
19, 129779, Note_on_c, 15, 66, 0
19, 129780, Note_on_c, 15, 62, 90
19, 129780, Note_on_c, 15, 66, 90
19, 129780, Note_on_c, 15, 71, 90
19, 130019, Note_on_c, 15, 71, 0
19, 130019, Note_on_c, 15, 66, 0
19, 130019, Note_on_c, 15, 62, 0
19, 130140, Note_on_c, 15, 61, 80
19, 130140, Note_on_c, 15, 64, 80
19, 130140, Note_on_c, 15, 69, 80
19, 130379, Note_on_c, 15, 69, 0
19, 130379, Note_on_c, 15, 64, 0
19, 130379, Note_on_c, 15, 61, 0
19, 130380, Note_on_c, 15, 61, 80
19, 130380, Note_on_c, 15, 64, 80
19, 130380, Note_on_c, 15, 67, 80
19, 130619, Note_on_c, 15, 67, 0
19, 130619, Note_on_c, 15, 64, 0
19, 130619, Note_on_c, 15, 61, 0
19, 130620, Note_on_c, 15, 62, 80
19, 130620, Note_on_c, 15, 66, 80
19, 130620, Note_on_c, 15, 57, 80
19, 131099, Note_on_c, 15, 57, 0
19, 131099, Note_on_c, 15, 66, 0
19, 131099, Note_on_c, 15, 62, 0
19, 131100, Note_on_c, 15, 60, 80
19, 131100, Note_on_c, 15, 64, 80
19, 131100, Note_on_c, 15, 67, 80
19, 131579, Note_on_c, 15, 67, 0
19, 131579, Note_on_c, 15, 64, 0
19, 131579, Note_on_c, 15, 60, 0
19, 131580, Note_on_c, 15, 66, 80
19, 131580, Note_on_c, 15, 62, 80
19, 131580, Note_on_c, 15, 69, 80
19, 131819, Note_on_c, 15, 69, 0
19, 131819, Note_on_c, 15, 62, 0
19, 131819, Note_on_c, 15, 66, 0
19, 131820, Note_on_c, 15, 60, 80
19, 131820, Note_on_c, 15, 66, 80
19, 131820, Note_on_c, 15, 69, 80
19, 132059, Note_on_c, 15, 69, 0
19, 132059, Note_on_c, 15, 66, 0
19, 132059, Note_on_c, 15, 60, 0
19, 132060, Note_on_c, 15, 62, 80
19, 132060, Note_on_c, 15, 67, 80
19, 132060, Note_on_c, 15, 71, 80
19, 132179, Note_on_c, 15, 71, 0
19, 132179, Note_on_c, 15, 67, 0
19, 132179, Note_on_c, 15, 62, 0
19, 132180, Note_on_c, 15, 67, 80
19, 132180, Note_on_c, 15, 62, 80
19, 132299, Note_on_c, 15, 62, 0
19, 132299, Note_on_c, 15, 67, 0
19, 132300, Note_on_c, 15, 62, 80
19, 132300, Note_on_c, 15, 66, 80
19, 132300, Note_on_c, 15, 69, 80
19, 132419, Note_on_c, 15, 69, 0
19, 132419, Note_on_c, 15, 66, 0
19, 132419, Note_on_c, 15, 62, 0
19, 132420, Note_on_c, 15, 59, 80
19, 132420, Note_on_c, 15, 67, 80
19, 132420, Note_on_c, 15, 62, 80
19, 132539, Note_on_c, 15, 62, 0
19, 132539, Note_on_c, 15, 67, 0
19, 132539, Note_on_c, 15, 59, 0
19, 139020, Note_on_c, 15, 64, 80
19, 139020, Note_on_c, 15, 67, 80
19, 139020, Note_on_c, 15, 71, 80
19, 139260, Note_on_c, 15, 71, 0
19, 139260, Note_on_c, 15, 67, 0
19, 139260, Note_on_c, 15, 64, 0
19, 139260, Note_on_c, 15, 63, 80
19, 139260, Note_on_c, 15, 69, 80
19, 139260, Note_on_c, 15, 66, 80
19, 139500, Note_on_c, 15, 66, 0
19, 139500, Note_on_c, 15, 69, 0
19, 139500, Note_on_c, 15, 63, 0
19, 139500, Note_on_c, 15, 59, 80
19, 139500, Note_on_c, 15, 64, 80
19, 139500, Note_on_c, 15, 67, 80
19, 139860, Note_on_c, 15, 59, 0
19, 139860, Note_on_c, 15, 61, 80
19, 139980, Note_on_c, 15, 61, 0
19, 139980, Note_on_c, 15, 67, 0
19, 139980, Note_on_c, 15, 64, 0
19, 139980, Note_on_c, 15, 61, 80
19, 139980, Note_on_c, 15, 69, 80
19, 139980, Note_on_c, 15, 66, 80
19, 140100, Note_on_c, 15, 66, 0
19, 140100, Note_on_c, 15, 64, 80
19, 140700, Note_on_c, 15, 64, 0
19, 140700, Note_on_c, 15, 69, 0
19, 140700, Note_on_c, 15, 61, 0
19, 140700, Note_on_c, 15, 71, 80
19, 140700, Note_on_c, 15, 62, 80
19, 140700, Note_on_c, 15, 66, 80
19, 140940, Note_on_c, 15, 66, 0
19, 140940, Note_on_c, 15, 62, 0
19, 140940, Note_on_c, 15, 71, 0
19, 140940, Note_on_c, 15, 68, 80
19, 140940, Note_on_c, 15, 64, 80
19, 140940, Note_on_c, 15, 73, 80
19, 141060, Note_on_c, 15, 73, 0
19, 141060, Note_on_c, 15, 64, 0
19, 141060, Note_on_c, 15, 68, 0
19, 141060, Note_on_c, 15, 64, 80
19, 141060, Note_on_c, 15, 69, 80
19, 141060, Note_on_c, 15, 73, 80
19, 141180, Note_on_c, 15, 73, 0
19, 141180, Note_on_c, 15, 69, 0
19, 141180, Note_on_c, 15, 64, 0
19, 141180, Note_on_c, 15, 62, 80
19, 141180, Note_on_c, 15, 66, 80
19, 141180, Note_on_c, 15, 71, 80
19, 141300, Note_on_c, 15, 71, 0
19, 141300, Note_on_c, 15, 66, 0
19, 141300, Note_on_c, 15, 62, 0
19, 141420, Note_on_c, 15, 69, 80
19, 141420, Note_on_c, 15, 66, 80
19, 141480, Note_on_c, 15, 66, 0
19, 141480, Note_on_c, 15, 69, 0
19, 141480, Note_on_c, 15, 68, 80
19, 141480, Note_on_c, 15, 65, 80
19, 141540, Note_on_c, 15, 65, 0
19, 141540, Note_on_c, 15, 68, 0
19, 141540, Note_on_c, 15, 61, 80
19, 141540, Note_on_c, 15, 66, 80
19, 141540, Note_on_c, 15, 69, 80
19, 141660, Note_on_c, 15, 69, 0
19, 141660, Note_on_c, 15, 66, 0
19, 141660, Note_on_c, 15, 61, 0
19, 141660, End_track
20, 0, Start_track
20, 0, MIDI_port, 0
20, 0, Title_t, "Organ L"
20, 0, Program_c, 15, 19
20, 0, Control_c, 15, 7, 127
20, 0, Control_c, 15, 10, 63
20, 0, Note_on_c, 15, 62, 90
20, 59, Note_on_c, 15, 62, 0
20, 60, Note_on_c, 15, 50, 90
20, 119, Note_on_c, 15, 50, 0
20, 120, Note_on_c, 15, 61, 90
20, 179, Note_on_c, 15, 61, 0
20, 180, Note_on_c, 15, 59, 90
20, 239, Note_on_c, 15, 59, 0
20, 240, Note_on_c, 15, 47, 90
20, 299, Note_on_c, 15, 47, 0
20, 300, Note_on_c, 15, 59, 90
20, 359, Note_on_c, 15, 59, 0
20, 360, Note_on_c, 15, 61, 90
20, 419, Note_on_c, 15, 61, 0
20, 420, Note_on_c, 15, 49, 90
20, 479, Note_on_c, 15, 49, 0
20, 480, Note_on_c, 15, 51, 90
20, 539, Note_on_c, 15, 51, 0
20, 540, Note_on_c, 15, 52, 90
20, 599, Note_on_c, 15, 52, 0
20, 600, Note_on_c, 15, 55, 90
20, 659, Note_on_c, 15, 55, 0
20, 660, Note_on_c, 15, 59, 90
20, 719, Note_on_c, 15, 59, 0
20, 720, Note_on_c, 15, 64, 90
20, 779, Note_on_c, 15, 64, 0
20, 780, Note_on_c, 15, 52, 90
20, 839, Note_on_c, 15, 52, 0
20, 840, Note_on_c, 15, 62, 90
20, 899, Note_on_c, 15, 62, 0
20, 900, Note_on_c, 15, 61, 90
20, 959, Note_on_c, 15, 61, 0
20, 960, Note_on_c, 15, 49, 90
20, 1019, Note_on_c, 15, 49, 0
20, 1020, Note_on_c, 15, 59, 90
20, 1079, Note_on_c, 15, 59, 0
20, 1080, Note_on_c, 15, 57, 90
20, 1139, Note_on_c, 15, 57, 0
20, 1140, Note_on_c, 15, 54, 90
20, 1199, Note_on_c, 15, 54, 0
20, 1200, Note_on_c, 15, 57, 90
20, 1259, Note_on_c, 15, 57, 0
20, 1260, Note_on_c, 15, 50, 90
20, 1319, Note_on_c, 15, 50, 0
20, 1320, Note_on_c, 15, 54, 90
20, 1379, Note_on_c, 15, 54, 0
20, 1380, Note_on_c, 15, 57, 90
20, 1439, Note_on_c, 15, 57, 0
20, 1440, Note_on_c, 15, 62, 90
20, 1499, Note_on_c, 15, 62, 0
20, 1500, Note_on_c, 15, 50, 90
20, 1559, Note_on_c, 15, 50, 0
20, 1560, Note_on_c, 15, 61, 90
20, 1619, Note_on_c, 15, 61, 0
20, 1620, Note_on_c, 15, 59, 90
20, 1679, Note_on_c, 15, 59, 0
20, 1680, Note_on_c, 15, 56, 90
20, 1739, Note_on_c, 15, 56, 0
20, 1740, Note_on_c, 15, 57, 90
20, 1799, Note_on_c, 15, 57, 0
20, 1800, Note_on_c, 15, 50, 90
20, 1859, Note_on_c, 15, 50, 0
20, 1860, Note_on_c, 15, 52, 90
20, 1919, Note_on_c, 15, 52, 0
20, 1920, Note_on_c, 15, 40, 90
20, 1979, Note_on_c, 15, 40, 0
20, 1980, Note_on_c, 15, 45, 90
20, 2039, Note_on_c, 15, 45, 0
20, 2220, Note_on_c, 15, 61, 90
20, 2279, Note_on_c, 15, 61, 0
20, 2280, Note_on_c, 15, 62, 90
20, 2339, Note_on_c, 15, 62, 0
20, 2340, Note_on_c, 15, 57, 90
20, 2399, Note_on_c, 15, 57, 0
20, 2580, Note_on_c, 15, 49, 90
20, 2639, Note_on_c, 15, 49, 0
20, 2640, Note_on_c, 15, 50, 90
20, 2699, Note_on_c, 15, 50, 0
20, 2700, Note_on_c, 15, 45, 90
20, 2759, Note_on_c, 15, 45, 0
20, 2760, Note_on_c, 15, 57, 90
20, 2789, Note_on_c, 15, 57, 0
20, 2790, Note_on_c, 15, 55, 90
20, 2819, Note_on_c, 15, 55, 0
20, 2820, Note_on_c, 15, 54, 90
20, 2849, Note_on_c, 15, 54, 0
20, 2850, Note_on_c, 15, 52, 90
20, 2879, Note_on_c, 15, 52, 0
20, 2880, Note_on_c, 15, 50, 90
20, 2939, Note_on_c, 15, 50, 0
20, 3060, Note_on_c, 15, 47, 90
20, 3119, Note_on_c, 15, 47, 0
20, 3240, Note_on_c, 15, 42, 90
20, 3299, Note_on_c, 15, 42, 0
20, 3300, Note_on_c, 15, 43, 90
20, 3359, Note_on_c, 15, 43, 0
20, 3360, Note_on_c, 15, 45, 90
20, 3419, Note_on_c, 15, 45, 0
20, 3420, Note_on_c, 15, 38, 90
20, 3479, Note_on_c, 15, 38, 0
20, 3480, Note_on_c, 15, 55, 90
20, 3509, Note_on_c, 15, 55, 0
20, 3510, Note_on_c, 15, 54, 90
20, 3539, Note_on_c, 15, 54, 0
20, 3540, Note_on_c, 15, 52, 90
20, 3569, Note_on_c, 15, 52, 0
20, 3570, Note_on_c, 15, 50, 90
20, 3599, Note_on_c, 15, 50, 0
20, 3600, Note_on_c, 15, 49, 90
20, 3659, Note_on_c, 15, 49, 0
20, 3660, Note_on_c, 15, 52, 90
20, 3689, Note_on_c, 15, 52, 0
20, 3690, Note_on_c, 15, 50, 90
20, 3719, Note_on_c, 15, 50, 0
20, 3720, Note_on_c, 15, 49, 90
20, 3749, Note_on_c, 15, 49, 0
20, 3750, Note_on_c, 15, 47, 90
20, 3779, Note_on_c, 15, 47, 0
20, 3780, Note_on_c, 15, 45, 90
20, 3839, Note_on_c, 15, 45, 0
20, 3840, Note_on_c, 15, 49, 90
20, 3899, Note_on_c, 15, 49, 0
20, 3900, Note_on_c, 15, 52, 90
20, 3959, Note_on_c, 15, 52, 0
20, 3960, Note_on_c, 15, 57, 90
20, 4019, Note_on_c, 15, 57, 0
20, 4020, Note_on_c, 15, 52, 90
20, 4079, Note_on_c, 15, 52, 0
20, 4080, Note_on_c, 15, 49, 90
20, 4139, Note_on_c, 15, 49, 0
20, 4140, Note_on_c, 15, 45, 90
20, 4199, Note_on_c, 15, 45, 0
20, 4200, Note_on_c, 15, 42, 90
20, 4259, Note_on_c, 15, 42, 0
20, 4260, Note_on_c, 15, 45, 90
20, 4319, Note_on_c, 15, 45, 0
20, 4320, Note_on_c, 15, 50, 90
20, 4379, Note_on_c, 15, 50, 0
20, 4500, Note_on_c, 15, 48, 90
20, 4559, Note_on_c, 15, 48, 0
20, 4680, Note_on_c, 15, 47, 90
20, 4739, Note_on_c, 15, 47, 0
20, 4800, Note_on_c, 15, 43, 90
20, 4859, Note_on_c, 15, 43, 0
20, 4860, Note_on_c, 15, 50, 90
20, 4919, Note_on_c, 15, 50, 0
20, 5040, Note_on_c, 15, 38, 90
20, 5099, Note_on_c, 15, 38, 0
20, 5580, Note_on_c, 15, 50, 90
20, 5639, Note_on_c, 15, 50, 0
20, 5640, Note_on_c, 15, 54, 90
20, 5699, Note_on_c, 15, 54, 0
20, 5700, Note_on_c, 15, 57, 90
20, 5759, Note_on_c, 15, 57, 0
20, 5760, Note_on_c, 15, 62, 90
20, 5819, Note_on_c, 15, 62, 0
20, 5820, Note_on_c, 15, 50, 90
20, 5879, Note_on_c, 15, 50, 0
20, 5880, Note_on_c, 15, 61, 90
20, 5939, Note_on_c, 15, 61, 0
20, 5940, Note_on_c, 15, 59, 90
20, 5999, Note_on_c, 15, 59, 0
20, 6000, Note_on_c, 15, 47, 90
20, 6059, Note_on_c, 15, 47, 0
20, 6060, Note_on_c, 15, 59, 90
20, 6119, Note_on_c, 15, 59, 0
20, 6120, Note_on_c, 15, 61, 90
20, 6179, Note_on_c, 15, 61, 0
20, 6180, Note_on_c, 15, 49, 90
20, 6239, Note_on_c, 15, 49, 0
20, 6240, Note_on_c, 15, 51, 90
20, 6299, Note_on_c, 15, 51, 0
20, 6300, Note_on_c, 15, 52, 90
20, 6359, Note_on_c, 15, 52, 0
20, 6360, Note_on_c, 15, 55, 90
20, 6419, Note_on_c, 15, 55, 0
20, 6420, Note_on_c, 15, 59, 90
20, 6479, Note_on_c, 15, 59, 0
20, 6480, Note_on_c, 15, 64, 90
20, 6539, Note_on_c, 15, 64, 0
20, 6540, Note_on_c, 15, 52, 90
20, 6599, Note_on_c, 15, 52, 0
20, 6600, Note_on_c, 15, 62, 90
20, 6659, Note_on_c, 15, 62, 0
20, 6660, Note_on_c, 15, 61, 90
20, 6719, Note_on_c, 15, 61, 0
20, 6720, Note_on_c, 15, 49, 90
20, 6779, Note_on_c, 15, 49, 0
20, 6780, Note_on_c, 15, 59, 90
20, 6839, Note_on_c, 15, 59, 0
20, 6840, Note_on_c, 15, 57, 90
20, 6899, Note_on_c, 15, 57, 0
20, 6900, Note_on_c, 15, 54, 90
20, 6959, Note_on_c, 15, 54, 0
20, 6960, Note_on_c, 15, 57, 90
20, 7019, Note_on_c, 15, 57, 0
20, 7020, Note_on_c, 15, 50, 90
20, 7079, Note_on_c, 15, 50, 0
20, 7080, Note_on_c, 15, 54, 90
20, 7139, Note_on_c, 15, 54, 0
20, 7140, Note_on_c, 15, 57, 90
20, 7199, Note_on_c, 15, 57, 0
20, 7200, Note_on_c, 15, 62, 90
20, 7259, Note_on_c, 15, 62, 0
20, 7260, Note_on_c, 15, 50, 90
20, 7319, Note_on_c, 15, 50, 0
20, 7320, Note_on_c, 15, 61, 90
20, 7379, Note_on_c, 15, 61, 0
20, 7380, Note_on_c, 15, 59, 90
20, 7439, Note_on_c, 15, 59, 0
20, 7440, Note_on_c, 15, 56, 90
20, 7499, Note_on_c, 15, 56, 0
20, 7500, Note_on_c, 15, 57, 90
20, 7559, Note_on_c, 15, 57, 0
20, 7560, Note_on_c, 15, 50, 90
20, 7619, Note_on_c, 15, 50, 0
20, 7620, Note_on_c, 15, 52, 90
20, 7679, Note_on_c, 15, 52, 0
20, 7680, Note_on_c, 15, 40, 90
20, 7739, Note_on_c, 15, 40, 0
20, 7740, Note_on_c, 15, 45, 90
20, 7799, Note_on_c, 15, 45, 0
20, 7980, Note_on_c, 15, 61, 90
20, 8039, Note_on_c, 15, 61, 0
20, 8040, Note_on_c, 15, 62, 90
20, 8099, Note_on_c, 15, 62, 0
20, 8100, Note_on_c, 15, 57, 90
20, 8159, Note_on_c, 15, 57, 0
20, 8340, Note_on_c, 15, 49, 90
20, 8399, Note_on_c, 15, 49, 0
20, 8400, Note_on_c, 15, 50, 90
20, 8459, Note_on_c, 15, 50, 0
20, 8460, Note_on_c, 15, 45, 90
20, 8519, Note_on_c, 15, 45, 0
20, 8520, Note_on_c, 15, 49, 90
20, 8579, Note_on_c, 15, 49, 0
20, 8580, Note_on_c, 15, 52, 90
20, 8639, Note_on_c, 15, 52, 0
20, 8640, Note_on_c, 15, 57, 90
20, 8699, Note_on_c, 15, 57, 0
20, 8700, Note_on_c, 15, 45, 90
20, 8759, Note_on_c, 15, 45, 0
20, 8760, Note_on_c, 15, 57, 90
20, 8819, Note_on_c, 15, 57, 0
20, 8820, Note_on_c, 15, 55, 90
20, 8879, Note_on_c, 15, 55, 0
20, 8880, Note_on_c, 15, 43, 90
20, 8939, Note_on_c, 15, 43, 0
20, 8940, Note_on_c, 15, 55, 90
20, 8999, Note_on_c, 15, 55, 0
20, 9000, Note_on_c, 15, 54, 90
20, 9059, Note_on_c, 15, 54, 0
20, 9060, Note_on_c, 15, 42, 90
20, 9119, Note_on_c, 15, 42, 0
20, 9120, Note_on_c, 15, 52, 90
20, 9179, Note_on_c, 15, 52, 0
20, 9180, Note_on_c, 15, 50, 90
20, 9239, Note_on_c, 15, 50, 0
20, 9240, Note_on_c, 15, 38, 90
20, 9299, Note_on_c, 15, 38, 0
20, 9300, Note_on_c, 15, 49, 90
20, 9359, Note_on_c, 15, 49, 0
20, 9360, Note_on_c, 15, 50, 90
20, 9419, Note_on_c, 15, 50, 0
20, 9420, Note_on_c, 15, 38, 90
20, 9479, Note_on_c, 15, 38, 0
20, 9480, Note_on_c, 15, 62, 90
20, 9539, Note_on_c, 15, 62, 0
20, 9540, Note_on_c, 15, 60, 90
20, 9599, Note_on_c, 15, 60, 0
20, 9600, Note_on_c, 15, 48, 90
20, 9659, Note_on_c, 15, 48, 0
20, 9660, Note_on_c, 15, 60, 90
20, 9719, Note_on_c, 15, 60, 0
20, 9720, Note_on_c, 15, 59, 90
20, 9779, Note_on_c, 15, 59, 0
20, 9780, Note_on_c, 15, 47, 90
20, 9839, Note_on_c, 15, 47, 0
20, 9840, Note_on_c, 15, 57, 90
20, 9899, Note_on_c, 15, 57, 0
20, 9900, Note_on_c, 15, 55, 90
20, 9959, Note_on_c, 15, 55, 0
20, 9960, Note_on_c, 15, 43, 90
20, 10019, Note_on_c, 15, 43, 0
20, 10020, Note_on_c, 15, 54, 90
20, 10079, Note_on_c, 15, 54, 0
20, 10080, Note_on_c, 15, 55, 90
20, 10139, Note_on_c, 15, 55, 0
20, 10140, Note_on_c, 15, 43, 90
20, 10199, Note_on_c, 15, 43, 0
20, 10200, Note_on_c, 15, 55, 90
20, 10319, Note_on_c, 15, 55, 0
20, 10320, Note_on_c, 15, 54, 90
20, 10379, Note_on_c, 15, 54, 0
20, 10380, Note_on_c, 15, 59, 90
20, 10439, Note_on_c, 15, 59, 0
20, 10440, Note_on_c, 15, 57, 90
20, 10499, Note_on_c, 15, 57, 0
20, 10500, Note_on_c, 15, 55, 90
20, 10559, Note_on_c, 15, 55, 0
20, 10560, Note_on_c, 15, 57, 90
20, 10619, Note_on_c, 15, 57, 0
20, 10620, Note_on_c, 15, 50, 90
20, 10739, Note_on_c, 15, 50, 0
20, 10860, Note_on_c, 15, 62, 90
20, 10919, Note_on_c, 15, 62, 0
20, 10920, Note_on_c, 15, 55, 90
20, 10979, Note_on_c, 15, 55, 0
20, 10980, Note_on_c, 15, 50, 90
20, 11099, Note_on_c, 15, 50, 0
20, 11220, Note_on_c, 15, 50, 90
20, 11279, Note_on_c, 15, 50, 0
20, 11280, Note_on_c, 15, 43, 90
20, 11339, Note_on_c, 15, 43, 0
20, 11340, Note_on_c, 15, 38, 90
20, 11399, Note_on_c, 15, 38, 0
20, 11400, Note_on_c, 15, 50, 90
20, 11429, Note_on_c, 15, 50, 0
20, 11430, Note_on_c, 15, 52, 90
20, 11459, Note_on_c, 15, 52, 0
20, 11460, Note_on_c, 15, 54, 90
20, 11489, Note_on_c, 15, 54, 0
20, 11490, Note_on_c, 15, 55, 90
20, 11519, Note_on_c, 15, 55, 0
20, 11520, Note_on_c, 15, 57, 90
20, 11579, Note_on_c, 15, 57, 0
20, 11700, Note_on_c, 15, 55, 90
20, 11759, Note_on_c, 15, 55, 0
20, 11880, Note_on_c, 15, 54, 90
20, 11939, Note_on_c, 15, 54, 0
20, 11940, Note_on_c, 15, 52, 90
20, 11999, Note_on_c, 15, 52, 0
20, 12000, Note_on_c, 15, 50, 90
20, 12059, Note_on_c, 15, 50, 0
20, 12060, Note_on_c, 15, 55, 90
20, 12119, Note_on_c, 15, 55, 0
20, 12120, Note_on_c, 15, 52, 90
20, 12179, Note_on_c, 15, 52, 0
20, 12180, Note_on_c, 15, 54, 90
20, 12239, Note_on_c, 15, 54, 0
20, 12240, Note_on_c, 15, 47, 90
20, 12299, Note_on_c, 15, 47, 0
20, 12420, Note_on_c, 15, 42, 90
20, 12479, Note_on_c, 15, 42, 0
20, 12600, Note_on_c, 15, 43, 90
20, 12659, Note_on_c, 15, 43, 0
20, 12660, Note_on_c, 15, 42, 90
20, 12719, Note_on_c, 15, 42, 0
20, 12720, Note_on_c, 15, 40, 90
20, 12779, Note_on_c, 15, 40, 0
20, 12780, Note_on_c, 15, 38, 90
20, 12839, Note_on_c, 15, 38, 0
20, 12840, Note_on_c, 15, 49, 90
20, 12899, Note_on_c, 15, 49, 0
20, 12900, Note_on_c, 15, 47, 90
20, 12959, Note_on_c, 15, 47, 0
20, 12960, Note_on_c, 15, 45, 90
20, 13079, Note_on_c, 15, 45, 0
20, 13140, Note_on_c, 15, 57, 90
20, 13199, Note_on_c, 15, 57, 0
20, 13200, Note_on_c, 15, 52, 90
20, 13259, Note_on_c, 15, 52, 0
20, 13260, Note_on_c, 15, 54, 90
20, 13319, Note_on_c, 15, 54, 0
20, 13320, Note_on_c, 15, 49, 90
20, 13379, Note_on_c, 15, 49, 0
20, 13380, Note_on_c, 15, 47, 90
20, 13439, Note_on_c, 15, 47, 0
20, 13440, Note_on_c, 15, 45, 90
20, 13499, Note_on_c, 15, 45, 0
20, 13500, Note_on_c, 15, 50, 90
20, 13559, Note_on_c, 15, 50, 0
20, 13560, Note_on_c, 15, 54, 90
20, 13619, Note_on_c, 15, 54, 0
20, 13620, Note_on_c, 15, 57, 90
20, 13679, Note_on_c, 15, 57, 0
20, 13680, Note_on_c, 15, 62, 90
20, 13739, Note_on_c, 15, 62, 0
20, 14220, Note_on_c, 15, 45, 90
20, 14279, Note_on_c, 15, 45, 0
20, 14280, Note_on_c, 15, 49, 90
20, 14339, Note_on_c, 15, 49, 0
20, 14340, Note_on_c, 15, 52, 90
20, 14399, Note_on_c, 15, 52, 0
20, 14400, Note_on_c, 15, 57, 90
20, 14459, Note_on_c, 15, 57, 0
20, 14460, Note_on_c, 15, 45, 90
20, 14519, Note_on_c, 15, 45, 0
20, 14520, Note_on_c, 15, 57, 90
20, 14579, Note_on_c, 15, 57, 0
20, 14580, Note_on_c, 15, 55, 90
20, 14639, Note_on_c, 15, 55, 0
20, 14640, Note_on_c, 15, 43, 90
20, 14699, Note_on_c, 15, 43, 0
20, 14700, Note_on_c, 15, 55, 90
20, 14759, Note_on_c, 15, 55, 0
20, 14760, Note_on_c, 15, 54, 90
20, 14819, Note_on_c, 15, 54, 0
20, 14820, Note_on_c, 15, 42, 90
20, 14879, Note_on_c, 15, 42, 0
20, 14880, Note_on_c, 15, 52, 90
20, 14939, Note_on_c, 15, 52, 0
20, 14940, Note_on_c, 15, 50, 90
20, 14999, Note_on_c, 15, 50, 0
20, 15000, Note_on_c, 15, 38, 90
20, 15059, Note_on_c, 15, 38, 0
20, 15060, Note_on_c, 15, 49, 90
20, 15119, Note_on_c, 15, 49, 0
20, 15120, Note_on_c, 15, 50, 90
20, 15179, Note_on_c, 15, 50, 0
20, 15180, Note_on_c, 15, 38, 90
20, 15239, Note_on_c, 15, 38, 0
20, 15240, Note_on_c, 15, 62, 90
20, 15299, Note_on_c, 15, 62, 0
20, 15300, Note_on_c, 15, 60, 90
20, 15359, Note_on_c, 15, 60, 0
20, 15360, Note_on_c, 15, 48, 90
20, 15419, Note_on_c, 15, 48, 0
20, 15420, Note_on_c, 15, 60, 90
20, 15479, Note_on_c, 15, 60, 0
20, 15480, Note_on_c, 15, 59, 90
20, 15539, Note_on_c, 15, 59, 0
20, 15540, Note_on_c, 15, 47, 90
20, 15599, Note_on_c, 15, 47, 0
20, 15600, Note_on_c, 15, 57, 90
20, 15659, Note_on_c, 15, 57, 0
20, 15660, Note_on_c, 15, 55, 90
20, 15719, Note_on_c, 15, 55, 0
20, 15720, Note_on_c, 15, 43, 90
20, 15779, Note_on_c, 15, 43, 0
20, 15780, Note_on_c, 15, 54, 90
20, 15839, Note_on_c, 15, 54, 0
20, 15840, Note_on_c, 15, 55, 90
20, 15899, Note_on_c, 15, 55, 0
20, 15900, Note_on_c, 15, 43, 90
20, 15959, Note_on_c, 15, 43, 0
20, 15960, Note_on_c, 15, 55, 90
20, 16079, Note_on_c, 15, 55, 0
20, 16080, Note_on_c, 15, 54, 90
20, 16139, Note_on_c, 15, 54, 0
20, 16140, Note_on_c, 15, 59, 90
20, 16199, Note_on_c, 15, 59, 0
20, 16200, Note_on_c, 15, 57, 90
20, 16259, Note_on_c, 15, 57, 0
20, 16260, Note_on_c, 15, 55, 90
20, 16319, Note_on_c, 15, 55, 0
20, 16320, Note_on_c, 15, 57, 90
20, 16379, Note_on_c, 15, 57, 0
20, 16380, Note_on_c, 15, 50, 90
20, 16499, Note_on_c, 15, 50, 0
20, 16620, Note_on_c, 15, 62, 90
20, 16679, Note_on_c, 15, 62, 0
20, 16680, Note_on_c, 15, 55, 90
20, 16739, Note_on_c, 15, 55, 0
20, 16740, Note_on_c, 15, 50, 90
20, 16859, Note_on_c, 15, 50, 0
20, 16980, Note_on_c, 15, 50, 90
20, 17039, Note_on_c, 15, 50, 0
20, 17040, Note_on_c, 15, 43, 90
20, 17099, Note_on_c, 15, 43, 0
20, 17100, Note_on_c, 15, 38, 90
20, 17279, Note_on_c, 15, 38, 0
20, 17460, Note_on_c, 15, 44, 90
20, 18180, Note_on_c, 15, 44, 0
20, 18180, Note_on_c, 15, 45, 90
20, 18300, Note_on_c, 15, 45, 0
20, 18300, Note_on_c, 15, 49, 90
20, 18420, Note_on_c, 15, 49, 0
20, 18420, Note_on_c, 15, 50, 90
20, 18540, Note_on_c, 15, 50, 0
20, 18540, Note_on_c, 15, 47, 90
20, 18660, Note_on_c, 15, 47, 0
20, 18780, Note_on_c, 15, 52, 90
20, 18900, Note_on_c, 15, 52, 0
20, 18900, Note_on_c, 15, 45, 90
20, 18959, Note_on_c, 15, 45, 0
20, 18960, Note_on_c, 15, 47, 90
20, 19019, Note_on_c, 15, 47, 0
20, 19020, Note_on_c, 15, 49, 90
20, 19079, Note_on_c, 15, 49, 0
20, 19080, Note_on_c, 15, 50, 90
20, 19139, Note_on_c, 15, 50, 0
20, 19140, Note_on_c, 15, 52, 90
20, 19199, Note_on_c, 15, 52, 0
20, 19200, Note_on_c, 15, 54, 90
20, 19259, Note_on_c, 15, 54, 0
20, 19260, Note_on_c, 15, 56, 90
20, 19319, Note_on_c, 15, 56, 0
20, 19320, Note_on_c, 15, 59, 90
20, 19379, Note_on_c, 15, 59, 0
20, 19380, Note_on_c, 15, 57, 90
20, 19439, Note_on_c, 15, 57, 0
20, 19440, Note_on_c, 15, 55, 90
20, 19499, Note_on_c, 15, 55, 0
20, 19500, Note_on_c, 15, 54, 90
20, 19559, Note_on_c, 15, 54, 0
20, 19560, Note_on_c, 15, 52, 90
20, 19619, Note_on_c, 15, 52, 0
20, 19620, Note_on_c, 15, 50, 90
20, 19679, Note_on_c, 15, 50, 0
20, 19680, Note_on_c, 15, 52, 90
20, 19739, Note_on_c, 15, 52, 0
20, 19740, Note_on_c, 15, 54, 90
20, 19799, Note_on_c, 15, 54, 0
20, 19800, Note_on_c, 15, 56, 90
20, 19859, Note_on_c, 15, 56, 0
20, 19860, Note_on_c, 15, 57, 90
20, 19919, Note_on_c, 15, 57, 0
20, 19920, Note_on_c, 15, 59, 90
20, 19979, Note_on_c, 15, 59, 0
20, 19980, Note_on_c, 15, 61, 90
20, 20039, Note_on_c, 15, 61, 0
20, 20040, Note_on_c, 15, 59, 90
20, 20099, Note_on_c, 15, 59, 0
20, 20100, Note_on_c, 15, 61, 90
20, 20159, Note_on_c, 15, 61, 0
20, 20160, Note_on_c, 15, 57, 90
20, 20219, Note_on_c, 15, 57, 0
20, 20220, Note_on_c, 15, 59, 90
20, 20279, Note_on_c, 15, 59, 0
20, 20280, Note_on_c, 15, 61, 90
20, 20339, Note_on_c, 15, 61, 0
20, 20340, Note_on_c, 15, 50, 90
20, 20399, Note_on_c, 15, 50, 0
20, 20400, Note_on_c, 15, 49, 90
20, 20459, Note_on_c, 15, 49, 0
20, 20460, Note_on_c, 15, 50, 90
20, 20519, Note_on_c, 15, 50, 0
20, 20520, Note_on_c, 15, 52, 90
20, 20579, Note_on_c, 15, 52, 0
20, 20580, Note_on_c, 15, 54, 90
20, 20639, Note_on_c, 15, 54, 0
20, 20640, Note_on_c, 15, 56, 90
20, 20699, Note_on_c, 15, 56, 0
20, 20700, Note_on_c, 15, 57, 90
20, 20819, Note_on_c, 15, 57, 0
20, 20820, Note_on_c, 15, 57, 90
20, 20939, Note_on_c, 15, 57, 0
20, 20940, Note_on_c, 15, 52, 90
20, 21059, Note_on_c, 15, 52, 0
20, 21060, Note_on_c, 15, 59, 90
20, 21299, Note_on_c, 15, 59, 0
20, 21300, Note_on_c, 15, 59, 90
20, 21419, Note_on_c, 15, 59, 0
20, 21420, Note_on_c, 15, 57, 90
20, 21479, Note_on_c, 15, 57, 0
20, 21480, Note_on_c, 15, 59, 90
20, 21539, Note_on_c, 15, 59, 0
20, 21540, Note_on_c, 15, 61, 90
20, 21599, Note_on_c, 15, 61, 0
20, 21600, Note_on_c, 15, 59, 90
20, 21659, Note_on_c, 15, 59, 0
20, 21660, Note_on_c, 15, 57, 90
20, 21719, Note_on_c, 15, 57, 0
20, 21720, Note_on_c, 15, 56, 90
20, 21779, Note_on_c, 15, 56, 0
20, 21780, Note_on_c, 15, 54, 90
20, 21839, Note_on_c, 15, 54, 0
20, 21840, Note_on_c, 15, 55, 90
20, 21899, Note_on_c, 15, 55, 0
20, 21900, Note_on_c, 15, 54, 90
20, 21959, Note_on_c, 15, 54, 0
20, 21960, Note_on_c, 15, 52, 90
20, 22019, Note_on_c, 15, 52, 0
20, 22020, Note_on_c, 15, 50, 90
20, 22079, Note_on_c, 15, 50, 0
20, 22080, Note_on_c, 15, 49, 90
20, 22139, Note_on_c, 15, 49, 0
20, 22140, Note_on_c, 15, 47, 90
20, 22199, Note_on_c, 15, 47, 0
20, 22200, Note_on_c, 15, 54, 90
20, 22259, Note_on_c, 15, 54, 0
20, 22260, Note_on_c, 15, 59, 90
20, 22319, Note_on_c, 15, 59, 0
20, 22320, Note_on_c, 15, 57, 90
20, 22379, Note_on_c, 15, 57, 0
20, 22380, Note_on_c, 15, 56, 90
20, 22439, Note_on_c, 15, 56, 0
20, 22440, Note_on_c, 15, 54, 90
20, 22499, Note_on_c, 15, 54, 0
20, 22500, Note_on_c, 15, 52, 90
20, 22559, Note_on_c, 15, 52, 0
20, 22560, Note_on_c, 15, 54, 90
20, 22619, Note_on_c, 15, 54, 0
20, 22620, Note_on_c, 15, 52, 90
20, 22679, Note_on_c, 15, 52, 0
20, 22680, Note_on_c, 15, 50, 90
20, 22739, Note_on_c, 15, 50, 0
20, 22740, Note_on_c, 15, 49, 90
20, 22799, Note_on_c, 15, 49, 0
20, 22800, Note_on_c, 15, 47, 90
20, 22859, Note_on_c, 15, 47, 0
20, 22860, Note_on_c, 15, 45, 90
20, 22919, Note_on_c, 15, 45, 0
20, 22920, Note_on_c, 15, 44, 90
20, 22979, Note_on_c, 15, 44, 0
20, 22980, Note_on_c, 15, 45, 90
20, 23039, Note_on_c, 15, 45, 0
20, 23040, Note_on_c, 15, 47, 90
20, 23099, Note_on_c, 15, 47, 0
20, 23100, Note_on_c, 15, 49, 90
20, 23159, Note_on_c, 15, 49, 0
20, 23160, Note_on_c, 15, 50, 90
20, 23219, Note_on_c, 15, 50, 0
20, 23220, Note_on_c, 15, 52, 90
20, 23279, Note_on_c, 15, 52, 0
20, 23280, Note_on_c, 15, 50, 90
20, 23339, Note_on_c, 15, 50, 0
20, 23340, Note_on_c, 15, 49, 90
20, 23399, Note_on_c, 15, 49, 0
20, 23400, Note_on_c, 15, 47, 90
20, 23459, Note_on_c, 15, 47, 0
20, 23460, Note_on_c, 15, 45, 90
20, 23519, Note_on_c, 15, 45, 0
20, 23520, Note_on_c, 15, 44, 90
20, 23579, Note_on_c, 15, 44, 0
20, 23580, Note_on_c, 15, 42, 90
20, 23639, Note_on_c, 15, 42, 0
20, 23640, Note_on_c, 15, 40, 90
20, 23699, Note_on_c, 15, 40, 0
20, 23700, Note_on_c, 15, 42, 90
20, 23819, Note_on_c, 15, 42, 0
20, 23820, Note_on_c, 15, 54, 90
20, 23939, Note_on_c, 15, 54, 0
20, 23940, Note_on_c, 15, 52, 90
20, 23999, Note_on_c, 15, 52, 0
20, 24000, Note_on_c, 15, 54, 90
20, 24059, Note_on_c, 15, 54, 0
20, 24060, Note_on_c, 15, 52, 90
20, 24119, Note_on_c, 15, 52, 0
20, 24120, Note_on_c, 15, 50, 90
20, 24179, Note_on_c, 15, 50, 0
20, 24180, Note_on_c, 15, 49, 90
20, 24239, Note_on_c, 15, 49, 0
20, 24240, Note_on_c, 15, 47, 90
20, 24299, Note_on_c, 15, 47, 0
20, 24300, Note_on_c, 15, 46, 90
20, 24359, Note_on_c, 15, 46, 0
20, 24360, Note_on_c, 15, 47, 90
20, 24419, Note_on_c, 15, 47, 0
20, 24420, Note_on_c, 15, 49, 90
20, 24479, Note_on_c, 15, 49, 0
20, 24480, Note_on_c, 15, 46, 90
20, 24539, Note_on_c, 15, 46, 0
20, 24540, Note_on_c, 15, 42, 90
20, 24599, Note_on_c, 15, 42, 0
20, 24600, Note_on_c, 15, 46, 90
20, 24659, Note_on_c, 15, 46, 0
20, 24660, Note_on_c, 15, 47, 90
20, 24719, Note_on_c, 15, 47, 0
20, 24720, Note_on_c, 15, 54, 90
20, 24779, Note_on_c, 15, 54, 0
20, 24780, Note_on_c, 15, 59, 90
20, 24839, Note_on_c, 15, 59, 0
20, 24840, Note_on_c, 15, 57, 90
20, 24899, Note_on_c, 15, 57, 0
20, 24900, Note_on_c, 15, 56, 90
20, 24959, Note_on_c, 15, 56, 0
20, 24960, Note_on_c, 15, 54, 90
20, 25019, Note_on_c, 15, 54, 0
20, 25020, Note_on_c, 15, 53, 90
20, 25079, Note_on_c, 15, 53, 0
20, 25080, Note_on_c, 15, 54, 90
20, 25139, Note_on_c, 15, 54, 0
20, 25140, Note_on_c, 15, 56, 90
20, 25199, Note_on_c, 15, 56, 0
20, 25200, Note_on_c, 15, 53, 90
20, 25259, Note_on_c, 15, 53, 0
20, 25260, Note_on_c, 15, 49, 90
20, 25319, Note_on_c, 15, 49, 0
20, 25320, Note_on_c, 15, 53, 90
20, 25379, Note_on_c, 15, 53, 0
20, 25380, Note_on_c, 15, 54, 90
20, 25439, Note_on_c, 15, 54, 0
20, 25440, Note_on_c, 15, 56, 90
20, 25499, Note_on_c, 15, 56, 0
20, 25500, Note_on_c, 15, 54, 90
20, 25559, Note_on_c, 15, 54, 0
20, 25560, Note_on_c, 15, 52, 90
20, 25619, Note_on_c, 15, 52, 0
20, 25620, Note_on_c, 15, 51, 90
20, 25679, Note_on_c, 15, 51, 0
20, 25680, Note_on_c, 15, 49, 90
20, 25739, Note_on_c, 15, 49, 0
20, 25740, Note_on_c, 15, 48, 90
20, 25799, Note_on_c, 15, 48, 0
20, 25800, Note_on_c, 15, 49, 90
20, 25859, Note_on_c, 15, 49, 0
20, 25860, Note_on_c, 15, 51, 90
20, 25919, Note_on_c, 15, 51, 0
20, 25920, Note_on_c, 15, 48, 90
20, 25979, Note_on_c, 15, 48, 0
20, 25980, Note_on_c, 15, 44, 90
20, 26039, Note_on_c, 15, 44, 0
20, 26040, Note_on_c, 15, 48, 90
20, 26099, Note_on_c, 15, 48, 0
20, 26100, Note_on_c, 15, 49, 90
20, 26159, Note_on_c, 15, 49, 0
20, 26160, Note_on_c, 15, 51, 90
20, 26219, Note_on_c, 15, 51, 0
20, 26220, Note_on_c, 15, 52, 90
20, 26279, Note_on_c, 15, 52, 0
20, 26280, Note_on_c, 15, 54, 90
20, 26339, Note_on_c, 15, 54, 0
20, 26340, Note_on_c, 15, 56, 90
20, 26399, Note_on_c, 15, 56, 0
20, 26400, Note_on_c, 15, 57, 90
20, 26459, Note_on_c, 15, 57, 0
20, 26460, Note_on_c, 15, 47, 90
20, 26519, Note_on_c, 15, 47, 0
20, 26520, Note_on_c, 15, 49, 90
20, 26579, Note_on_c, 15, 49, 0
20, 26580, Note_on_c, 15, 51, 90
20, 26639, Note_on_c, 15, 51, 0
20, 26640, Note_on_c, 15, 52, 90
20, 26699, Note_on_c, 15, 52, 0
20, 26700, Note_on_c, 15, 54, 90
20, 26759, Note_on_c, 15, 54, 0
20, 26760, Note_on_c, 15, 56, 90
20, 26819, Note_on_c, 15, 56, 0
20, 26820, Note_on_c, 15, 45, 90
20, 26879, Note_on_c, 15, 45, 0
20, 26880, Note_on_c, 15, 57, 90
20, 26939, Note_on_c, 15, 57, 0
20, 26940, Note_on_c, 15, 56, 90
20, 26999, Note_on_c, 15, 56, 0
20, 27000, Note_on_c, 15, 54, 90
20, 27059, Note_on_c, 15, 54, 0
20, 27060, Note_on_c, 15, 52, 90
20, 27119, Note_on_c, 15, 52, 0
20, 27120, Note_on_c, 15, 51, 90
20, 27179, Note_on_c, 15, 51, 0
20, 27180, Note_on_c, 15, 44, 90
20, 27239, Note_on_c, 15, 44, 0
20, 27240, Note_on_c, 15, 56, 90
20, 27299, Note_on_c, 15, 56, 0
20, 27300, Note_on_c, 15, 54, 90
20, 27359, Note_on_c, 15, 54, 0
20, 27360, Note_on_c, 15, 52, 90
20, 27419, Note_on_c, 15, 52, 0
20, 27420, Note_on_c, 15, 51, 90
20, 27479, Note_on_c, 15, 51, 0
20, 27480, Note_on_c, 15, 49, 90
20, 27539, Note_on_c, 15, 49, 0
20, 27540, Note_on_c, 15, 54, 90
20, 27599, Note_on_c, 15, 54, 0
20, 27600, Note_on_c, 15, 42, 90
20, 27659, Note_on_c, 15, 42, 0
20, 27660, Note_on_c, 15, 54, 90
20, 27719, Note_on_c, 15, 54, 0
20, 27720, Note_on_c, 15, 52, 90
20, 27779, Note_on_c, 15, 52, 0
20, 27780, Note_on_c, 15, 54, 90
20, 27959, Note_on_c, 15, 54, 0
20, 27960, Note_on_c, 15, 51, 90
20, 28019, Note_on_c, 15, 51, 0
20, 28020, Note_on_c, 15, 52, 90
20, 28079, Note_on_c, 15, 52, 0
20, 28080, Note_on_c, 15, 49, 90
20, 28139, Note_on_c, 15, 49, 0
20, 28140, Note_on_c, 15, 57, 90
20, 28199, Note_on_c, 15, 57, 0
20, 28200, Note_on_c, 15, 56, 90
20, 28259, Note_on_c, 15, 56, 0
20, 28260, Note_on_c, 15, 57, 90
20, 28319, Note_on_c, 15, 57, 0
20, 28320, Note_on_c, 15, 54, 90
20, 28379, Note_on_c, 15, 54, 0
20, 28380, Note_on_c, 15, 56, 90
20, 28499, Note_on_c, 15, 56, 0
20, 28500, Note_on_c, 15, 44, 90
20, 28619, Note_on_c, 15, 44, 0
20, 28620, Note_on_c, 15, 49, 90
20, 29099, Note_on_c, 15, 49, 0
20, 29100, Note_on_c, 15, 52, 90
20, 29579, Note_on_c, 15, 52, 0
20, 29580, Note_on_c, 15, 51, 90
20, 30059, Note_on_c, 15, 51, 0
20, 30060, Note_on_c, 15, 52, 90
20, 30299, Note_on_c, 15, 52, 0
20, 30300, Note_on_c, 15, 46, 90
20, 30539, Note_on_c, 15, 46, 0
20, 30660, Note_on_c, 15, 47, 90
20, 30779, Note_on_c, 15, 47, 0
20, 30780, Note_on_c, 15, 40, 90
20, 31019, Note_on_c, 15, 40, 0
20, 31020, Note_on_c, 15, 50, 90
20, 31259, Note_on_c, 15, 50, 0
20, 31260, Note_on_c, 15, 49, 90
20, 31379, Note_on_c, 15, 49, 0
20, 31380, Note_on_c, 15, 45, 90
20, 31499, Note_on_c, 15, 45, 0
20, 31500, Note_on_c, 15, 42, 90
20, 31619, Note_on_c, 15, 42, 0
20, 31860, Note_on_c, 15, 40, 90
20, 31979, Note_on_c, 15, 40, 0
20, 31980, Note_on_c, 15, 45, 90
20, 32220, Note_on_c, 15, 45, 0
20, 37380, Note_on_c, 15, 57, 90
20, 37439, Note_on_c, 15, 57, 0
20, 37440, Note_on_c, 15, 61, 90
20, 37499, Note_on_c, 15, 61, 0
20, 37500, Note_on_c, 15, 59, 90
20, 37559, Note_on_c, 15, 59, 0
20, 37560, Note_on_c, 15, 57, 90
20, 37619, Note_on_c, 15, 57, 0
20, 37620, Note_on_c, 15, 52, 90
20, 37649, Note_on_c, 15, 52, 0
20, 37650, Note_on_c, 15, 54, 90
20, 37679, Note_on_c, 15, 54, 0
20, 37680, Note_on_c, 15, 56, 90
20, 37709, Note_on_c, 15, 56, 0
20, 37710, Note_on_c, 15, 52, 90
20, 37739, Note_on_c, 15, 52, 0
20, 37740, Note_on_c, 15, 57, 90
20, 37799, Note_on_c, 15, 57, 0
20, 37800, Note_on_c, 15, 49, 90
20, 37859, Note_on_c, 15, 49, 0
20, 37860, Note_on_c, 15, 52, 90
20, 37919, Note_on_c, 15, 52, 0
20, 37920, Note_on_c, 15, 45, 90
20, 37979, Note_on_c, 15, 45, 0
20, 37980, Note_on_c, 15, 52, 90
20, 38009, Note_on_c, 15, 52, 0
20, 38010, Note_on_c, 15, 54, 90
20, 38039, Note_on_c, 15, 54, 0
20, 38040, Note_on_c, 15, 56, 90
20, 38069, Note_on_c, 15, 56, 0
20, 38070, Note_on_c, 15, 52, 90
20, 38099, Note_on_c, 15, 52, 0
20, 38100, Note_on_c, 15, 57, 90
20, 38159, Note_on_c, 15, 57, 0
20, 38160, Note_on_c, 15, 45, 90
20, 38219, Note_on_c, 15, 45, 0
20, 38220, Note_on_c, 15, 44, 90
20, 38279, Note_on_c, 15, 44, 0
20, 38280, Note_on_c, 15, 42, 90
20, 38339, Note_on_c, 15, 42, 0
20, 38340, Note_on_c, 15, 54, 90
20, 38369, Note_on_c, 15, 54, 0
20, 38370, Note_on_c, 15, 56, 90
20, 38399, Note_on_c, 15, 56, 0
20, 38400, Note_on_c, 15, 57, 90
20, 38429, Note_on_c, 15, 57, 0
20, 38430, Note_on_c, 15, 54, 90
20, 38459, Note_on_c, 15, 54, 0
20, 38460, Note_on_c, 15, 56, 90
20, 38519, Note_on_c, 15, 56, 0
20, 38520, Note_on_c, 15, 44, 90
20, 38579, Note_on_c, 15, 44, 0
20, 38580, Note_on_c, 15, 42, 90
20, 38639, Note_on_c, 15, 42, 0
20, 38640, Note_on_c, 15, 40, 90
20, 38699, Note_on_c, 15, 40, 0
20, 38700, Note_on_c, 15, 52, 90
20, 38729, Note_on_c, 15, 52, 0
20, 38730, Note_on_c, 15, 54, 90
20, 38759, Note_on_c, 15, 54, 0
20, 38760, Note_on_c, 15, 56, 90
20, 38789, Note_on_c, 15, 56, 0
20, 38790, Note_on_c, 15, 52, 90
20, 38819, Note_on_c, 15, 52, 0
20, 38820, Note_on_c, 15, 59, 90
20, 38849, Note_on_c, 15, 59, 0
20, 38850, Note_on_c, 15, 47, 90
20, 38879, Note_on_c, 15, 47, 0
20, 38880, Note_on_c, 15, 47, 90
20, 38909, Note_on_c, 15, 47, 0
20, 38910, Note_on_c, 15, 47, 90
20, 38939, Note_on_c, 15, 47, 0
20, 38940, Note_on_c, 15, 47, 90
20, 38969, Note_on_c, 15, 47, 0
20, 38970, Note_on_c, 15, 47, 90
20, 38999, Note_on_c, 15, 47, 0
20, 39000, Note_on_c, 15, 47, 90
20, 39029, Note_on_c, 15, 47, 0
20, 39030, Note_on_c, 15, 49, 90
20, 39059, Note_on_c, 15, 49, 0
20, 39060, Note_on_c, 15, 49, 90
20, 39089, Note_on_c, 15, 49, 0
20, 39090, Note_on_c, 15, 47, 90
20, 39119, Note_on_c, 15, 47, 0
20, 39120, Note_on_c, 15, 47, 90
20, 39149, Note_on_c, 15, 47, 0
20, 39150, Note_on_c, 15, 45, 90
20, 39179, Note_on_c, 15, 45, 0
20, 39180, Note_on_c, 15, 45, 90
20, 39209, Note_on_c, 15, 45, 0
20, 39210, Note_on_c, 15, 47, 90
20, 39239, Note_on_c, 15, 47, 0
20, 39240, Note_on_c, 15, 47, 90
20, 39269, Note_on_c, 15, 47, 0
20, 39270, Note_on_c, 15, 49, 90
20, 39299, Note_on_c, 15, 49, 0
20, 39300, Note_on_c, 15, 49, 90
20, 39329, Note_on_c, 15, 49, 0
20, 39330, Note_on_c, 15, 47, 90
20, 39359, Note_on_c, 15, 47, 0
20, 39360, Note_on_c, 15, 47, 90
20, 39389, Note_on_c, 15, 47, 0
20, 39390, Note_on_c, 15, 46, 90
20, 39419, Note_on_c, 15, 46, 0
20, 39420, Note_on_c, 15, 47, 90
20, 39449, Note_on_c, 15, 47, 0
20, 39450, Note_on_c, 15, 45, 90
20, 39479, Note_on_c, 15, 45, 0
20, 39480, Note_on_c, 15, 44, 90
20, 39509, Note_on_c, 15, 44, 0
20, 39510, Note_on_c, 15, 42, 90
20, 39539, Note_on_c, 15, 42, 0
20, 39540, Note_on_c, 15, 40, 90
20, 39599, Note_on_c, 15, 40, 0
20, 39600, Note_on_c, 15, 52, 90
20, 39659, Note_on_c, 15, 52, 0
20, 39660, Note_on_c, 15, 51, 90
20, 39719, Note_on_c, 15, 51, 0
20, 39720, Note_on_c, 15, 49, 90
20, 39779, Note_on_c, 15, 49, 0
20, 39780, Note_on_c, 15, 51, 90
20, 39809, Note_on_c, 15, 51, 0
20, 39810, Note_on_c, 15, 49, 90
20, 39839, Note_on_c, 15, 49, 0
20, 39840, Note_on_c, 15, 51, 90
20, 39869, Note_on_c, 15, 51, 0
20, 39870, Note_on_c, 15, 47, 90
20, 39899, Note_on_c, 15, 47, 0
20, 39900, Note_on_c, 15, 52, 90
20, 39959, Note_on_c, 15, 52, 0
20, 39960, Note_on_c, 15, 59, 90
20, 40019, Note_on_c, 15, 59, 0
20, 40020, Note_on_c, 15, 47, 90
20, 40079, Note_on_c, 15, 47, 0
20, 40080, Note_on_c, 15, 40, 90
20, 40139, Note_on_c, 15, 40, 0
20, 40140, Note_on_c, 15, 52, 90
20, 40169, Note_on_c, 15, 52, 0
20, 40170, Note_on_c, 15, 54, 90
20, 40199, Note_on_c, 15, 54, 0
20, 40200, Note_on_c, 15, 56, 90
20, 40229, Note_on_c, 15, 56, 0
20, 40230, Note_on_c, 15, 52, 90
20, 40259, Note_on_c, 15, 52, 0
20, 40260, Note_on_c, 15, 57, 90
20, 40319, Note_on_c, 15, 57, 0
20, 40320, Note_on_c, 15, 61, 90
20, 40379, Note_on_c, 15, 61, 0
20, 40380, Note_on_c, 15, 59, 90
20, 40439, Note_on_c, 15, 59, 0
20, 40440, Note_on_c, 15, 57, 90
20, 40499, Note_on_c, 15, 57, 0
20, 40500, Note_on_c, 15, 56, 90
20, 40559, Note_on_c, 15, 56, 0
20, 40620, Note_on_c, 15, 57, 90
20, 40679, Note_on_c, 15, 57, 0
20, 40680, Note_on_c, 15, 49, 90
20, 40739, Note_on_c, 15, 49, 0
20, 40740, Note_on_c, 15, 52, 90
20, 40799, Note_on_c, 15, 52, 0
20, 40800, Note_on_c, 15, 45, 90
20, 40859, Note_on_c, 15, 45, 0
20, 40860, Note_on_c, 15, 40, 90
20, 40919, Note_on_c, 15, 40, 0
20, 40980, Note_on_c, 15, 45, 90
20, 41039, Note_on_c, 15, 45, 0
20, 41040, Note_on_c, 15, 49, 90
20, 41099, Note_on_c, 15, 49, 0
20, 41100, Note_on_c, 15, 54, 90
20, 41159, Note_on_c, 15, 54, 0
20, 41160, Note_on_c, 15, 52, 90
20, 41219, Note_on_c, 15, 52, 0
20, 41220, Note_on_c, 15, 50, 90
20, 41279, Note_on_c, 15, 50, 0
20, 41280, Note_on_c, 15, 49, 90
20, 41339, Note_on_c, 15, 49, 0
20, 41340, Note_on_c, 15, 47, 90
20, 41399, Note_on_c, 15, 47, 0
20, 41400, Note_on_c, 15, 54, 90
20, 41429, Note_on_c, 15, 54, 0
20, 41430, Note_on_c, 15, 56, 90
20, 41459, Note_on_c, 15, 56, 0
20, 41460, Note_on_c, 15, 58, 90
20, 41489, Note_on_c, 15, 58, 0
20, 41490, Note_on_c, 15, 54, 90
20, 41519, Note_on_c, 15, 54, 0
20, 41520, Note_on_c, 15, 59, 90
20, 41579, Note_on_c, 15, 59, 0
20, 41580, Note_on_c, 15, 61, 90
20, 41639, Note_on_c, 15, 61, 0
20, 41640, Note_on_c, 15, 62, 90
20, 41699, Note_on_c, 15, 62, 0
20, 41700, Note_on_c, 15, 52, 90
20, 41759, Note_on_c, 15, 52, 0
20, 41760, Note_on_c, 15, 64, 90
20, 41819, Note_on_c, 15, 64, 0
20, 41820, Note_on_c, 15, 62, 90
20, 41879, Note_on_c, 15, 62, 0
20, 41880, Note_on_c, 15, 61, 90
20, 41939, Note_on_c, 15, 61, 0
20, 41940, Note_on_c, 15, 56, 90
20, 41969, Note_on_c, 15, 56, 0
20, 41970, Note_on_c, 15, 57, 90
20, 41999, Note_on_c, 15, 57, 0
20, 42000, Note_on_c, 15, 59, 90
20, 42029, Note_on_c, 15, 59, 0
20, 42030, Note_on_c, 15, 56, 90
20, 42059, Note_on_c, 15, 56, 0
20, 42060, Note_on_c, 15, 57, 90
20, 42119, Note_on_c, 15, 57, 0
20, 42120, Note_on_c, 15, 49, 90
20, 42179, Note_on_c, 15, 49, 0
20, 42180, Note_on_c, 15, 47, 90
20, 42239, Note_on_c, 15, 47, 0
20, 42240, Note_on_c, 15, 45, 90
20, 42299, Note_on_c, 15, 45, 0
20, 42300, Note_on_c, 15, 44, 90
20, 42329, Note_on_c, 15, 44, 0
20, 42330, Note_on_c, 15, 45, 90
20, 42359, Note_on_c, 15, 45, 0
20, 42360, Note_on_c, 15, 47, 90
20, 42389, Note_on_c, 15, 47, 0
20, 42390, Note_on_c, 15, 44, 90
20, 42419, Note_on_c, 15, 44, 0
20, 42420, Note_on_c, 15, 45, 90
20, 42449, Note_on_c, 15, 45, 0
20, 42450, Note_on_c, 15, 40, 90
20, 42479, Note_on_c, 15, 40, 0
20, 42480, Note_on_c, 15, 40, 90
20, 42509, Note_on_c, 15, 40, 0
20, 42510, Note_on_c, 15, 40, 90
20, 42539, Note_on_c, 15, 40, 0
20, 42540, Note_on_c, 15, 40, 90
20, 42569, Note_on_c, 15, 40, 0
20, 42570, Note_on_c, 15, 40, 90
20, 42599, Note_on_c, 15, 40, 0
20, 42600, Note_on_c, 15, 40, 90
20, 42659, Note_on_c, 15, 40, 0
20, 42660, Note_on_c, 15, 52, 90
20, 42689, Note_on_c, 15, 52, 0
20, 42690, Note_on_c, 15, 54, 90
20, 42719, Note_on_c, 15, 54, 0
20, 42720, Note_on_c, 15, 56, 90
20, 42749, Note_on_c, 15, 56, 0
20, 42750, Note_on_c, 15, 52, 90
20, 42779, Note_on_c, 15, 52, 0
20, 42780, Note_on_c, 15, 57, 90
20, 42839, Note_on_c, 15, 57, 0
20, 42840, Note_on_c, 15, 54, 90
20, 42899, Note_on_c, 15, 54, 0
20, 42900, Note_on_c, 15, 49, 90
20, 42959, Note_on_c, 15, 49, 0
20, 42960, Note_on_c, 15, 42, 90
20, 43019, Note_on_c, 15, 42, 0
20, 43020, Note_on_c, 15, 54, 90
20, 43049, Note_on_c, 15, 54, 0
20, 43050, Note_on_c, 15, 56, 90
20, 43079, Note_on_c, 15, 56, 0
20, 43080, Note_on_c, 15, 57, 90
20, 43109, Note_on_c, 15, 57, 0
20, 43110, Note_on_c, 15, 54, 90
20, 43139, Note_on_c, 15, 54, 0
20, 43140, Note_on_c, 15, 56, 90
20, 43199, Note_on_c, 15, 56, 0
20, 43200, Note_on_c, 15, 52, 90
20, 43259, Note_on_c, 15, 52, 0
20, 43260, Note_on_c, 15, 47, 90
20, 43319, Note_on_c, 15, 47, 0
20, 43320, Note_on_c, 15, 40, 90
20, 43379, Note_on_c, 15, 40, 0
20, 43380, Note_on_c, 15, 52, 90
20, 43409, Note_on_c, 15, 52, 0
20, 43410, Note_on_c, 15, 54, 90
20, 43439, Note_on_c, 15, 54, 0
20, 43440, Note_on_c, 15, 56, 90
20, 43469, Note_on_c, 15, 56, 0
20, 43470, Note_on_c, 15, 52, 90
20, 43499, Note_on_c, 15, 52, 0
20, 43500, Note_on_c, 15, 59, 90
20, 43529, Note_on_c, 15, 59, 0
20, 43530, Note_on_c, 15, 47, 90
20, 43559, Note_on_c, 15, 47, 0
20, 43560, Note_on_c, 15, 47, 90
20, 43589, Note_on_c, 15, 47, 0
20, 43590, Note_on_c, 15, 47, 90
20, 43619, Note_on_c, 15, 47, 0
20, 43620, Note_on_c, 15, 47, 90
20, 43649, Note_on_c, 15, 47, 0
20, 43650, Note_on_c, 15, 47, 90
20, 43679, Note_on_c, 15, 47, 0
20, 43680, Note_on_c, 15, 47, 90
20, 43709, Note_on_c, 15, 47, 0
20, 43710, Note_on_c, 15, 49, 90
20, 43739, Note_on_c, 15, 49, 0
20, 43740, Note_on_c, 15, 49, 90
20, 43769, Note_on_c, 15, 49, 0
20, 43770, Note_on_c, 15, 47, 90
20, 43799, Note_on_c, 15, 47, 0
20, 43800, Note_on_c, 15, 47, 90
20, 43829, Note_on_c, 15, 47, 0
20, 43830, Note_on_c, 15, 45, 90
20, 43859, Note_on_c, 15, 45, 0
20, 43860, Note_on_c, 15, 45, 90
20, 43889, Note_on_c, 15, 45, 0
20, 43890, Note_on_c, 15, 47, 90
20, 43919, Note_on_c, 15, 47, 0
20, 43920, Note_on_c, 15, 47, 90
20, 43949, Note_on_c, 15, 47, 0
20, 43950, Note_on_c, 15, 49, 90
20, 43979, Note_on_c, 15, 49, 0
20, 43980, Note_on_c, 15, 49, 90
20, 44009, Note_on_c, 15, 49, 0
20, 44010, Note_on_c, 15, 47, 90
20, 44039, Note_on_c, 15, 47, 0
20, 44040, Note_on_c, 15, 47, 90
20, 44069, Note_on_c, 15, 47, 0
20, 44070, Note_on_c, 15, 46, 90
20, 44099, Note_on_c, 15, 46, 0
20, 44100, Note_on_c, 15, 47, 90
20, 44129, Note_on_c, 15, 47, 0
20, 44130, Note_on_c, 15, 45, 90
20, 44159, Note_on_c, 15, 45, 0
20, 44160, Note_on_c, 15, 44, 90
20, 44189, Note_on_c, 15, 44, 0
20, 44190, Note_on_c, 15, 42, 90
20, 44219, Note_on_c, 15, 42, 0
20, 44220, Note_on_c, 15, 40, 90
20, 44279, Note_on_c, 15, 40, 0
20, 44280, Note_on_c, 15, 52, 90
20, 44339, Note_on_c, 15, 52, 0
20, 44340, Note_on_c, 15, 51, 90
20, 44399, Note_on_c, 15, 51, 0
20, 44400, Note_on_c, 15, 49, 90
20, 44459, Note_on_c, 15, 49, 0
20, 44460, Note_on_c, 15, 51, 90
20, 44489, Note_on_c, 15, 51, 0
20, 44490, Note_on_c, 15, 47, 90
20, 44519, Note_on_c, 15, 47, 0
20, 44520, Note_on_c, 15, 49, 90
20, 44549, Note_on_c, 15, 49, 0
20, 44550, Note_on_c, 15, 51, 90
20, 44579, Note_on_c, 15, 51, 0
20, 44580, Note_on_c, 15, 52, 90
20, 44639, Note_on_c, 15, 52, 0
20, 44640, Note_on_c, 15, 59, 90
20, 44699, Note_on_c, 15, 59, 0
20, 44700, Note_on_c, 15, 47, 90
20, 44759, Note_on_c, 15, 47, 0
20, 44760, Note_on_c, 15, 40, 90
20, 44819, Note_on_c, 15, 40, 0
20, 44820, Note_on_c, 15, 44, 90
20, 44879, Note_on_c, 15, 44, 0
20, 44880, Note_on_c, 15, 47, 90
20, 44939, Note_on_c, 15, 47, 0
20, 44940, Note_on_c, 15, 52, 90
20, 44999, Note_on_c, 15, 52, 0
20, 45000, Note_on_c, 15, 51, 90
20, 45059, Note_on_c, 15, 51, 0
20, 45060, Note_on_c, 15, 53, 90
20, 45119, Note_on_c, 15, 53, 0
20, 45120, Note_on_c, 15, 54, 90
20, 45149, Note_on_c, 15, 54, 0
20, 45150, Note_on_c, 15, 42, 90
20, 45179, Note_on_c, 15, 42, 0
20, 45180, Note_on_c, 15, 42, 90
20, 45209, Note_on_c, 15, 42, 0
20, 45210, Note_on_c, 15, 44, 90
20, 45239, Note_on_c, 15, 44, 0
20, 45240, Note_on_c, 15, 44, 90
20, 45269, Note_on_c, 15, 44, 0
20, 45270, Note_on_c, 15, 45, 90
20, 45299, Note_on_c, 15, 45, 0
20, 45300, Note_on_c, 15, 45, 90
20, 45359, Note_on_c, 15, 45, 0
20, 45360, Note_on_c, 15, 44, 90
20, 45419, Note_on_c, 15, 44, 0
20, 45420, Note_on_c, 15, 46, 90
20, 45479, Note_on_c, 15, 46, 0
20, 45480, Note_on_c, 15, 47, 90
20, 45509, Note_on_c, 15, 47, 0
20, 45510, Note_on_c, 15, 59, 90
20, 45539, Note_on_c, 15, 59, 0
20, 45540, Note_on_c, 15, 59, 90
20, 45569, Note_on_c, 15, 59, 0
20, 45570, Note_on_c, 15, 57, 90
20, 45599, Note_on_c, 15, 57, 0
20, 45600, Note_on_c, 15, 57, 90
20, 45629, Note_on_c, 15, 57, 0
20, 45630, Note_on_c, 15, 56, 90
20, 45659, Note_on_c, 15, 56, 0
20, 45660, Note_on_c, 15, 57, 90
20, 45719, Note_on_c, 15, 57, 0
20, 45720, Note_on_c, 15, 45, 90
20, 45779, Note_on_c, 15, 45, 0
20, 45780, Note_on_c, 15, 44, 90
20, 45839, Note_on_c, 15, 44, 0
20, 45840, Note_on_c, 15, 42, 90
20, 45899, Note_on_c, 15, 42, 0
20, 45900, Note_on_c, 15, 54, 90
20, 45929, Note_on_c, 15, 54, 0
20, 45930, Note_on_c, 15, 56, 90
20, 45959, Note_on_c, 15, 56, 0
20, 45960, Note_on_c, 15, 57, 90
20, 45989, Note_on_c, 15, 57, 0
20, 45990, Note_on_c, 15, 54, 90
20, 46019, Note_on_c, 15, 54, 0
20, 46020, Note_on_c, 15, 56, 90
20, 46079, Note_on_c, 15, 56, 0
20, 46080, Note_on_c, 15, 44, 90
20, 46139, Note_on_c, 15, 44, 0
20, 46140, Note_on_c, 15, 42, 90
20, 46199, Note_on_c, 15, 42, 0
20, 46200, Note_on_c, 15, 40, 90
20, 46259, Note_on_c, 15, 40, 0
20, 46260, Note_on_c, 15, 52, 90
20, 46289, Note_on_c, 15, 52, 0
20, 46290, Note_on_c, 15, 54, 90
20, 46319, Note_on_c, 15, 54, 0
20, 46320, Note_on_c, 15, 56, 90
20, 46349, Note_on_c, 15, 56, 0
20, 46350, Note_on_c, 15, 52, 90
20, 46379, Note_on_c, 15, 52, 0
20, 46380, Note_on_c, 15, 59, 90
20, 46409, Note_on_c, 15, 59, 0
20, 46410, Note_on_c, 15, 47, 90
20, 46439, Note_on_c, 15, 47, 0
20, 46440, Note_on_c, 15, 47, 90
20, 46469, Note_on_c, 15, 47, 0
20, 46470, Note_on_c, 15, 47, 90
20, 46499, Note_on_c, 15, 47, 0
20, 46500, Note_on_c, 15, 47, 90
20, 46529, Note_on_c, 15, 47, 0
20, 46530, Note_on_c, 15, 47, 90
20, 46559, Note_on_c, 15, 47, 0
20, 46560, Note_on_c, 15, 47, 90
20, 46589, Note_on_c, 15, 47, 0
20, 46590, Note_on_c, 15, 49, 90
20, 46619, Note_on_c, 15, 49, 0
20, 46620, Note_on_c, 15, 49, 90
20, 46649, Note_on_c, 15, 49, 0
20, 46650, Note_on_c, 15, 47, 90
20, 46679, Note_on_c, 15, 47, 0
20, 46680, Note_on_c, 15, 47, 90
20, 46709, Note_on_c, 15, 47, 0
20, 46710, Note_on_c, 15, 45, 90
20, 46739, Note_on_c, 15, 45, 0
20, 46740, Note_on_c, 15, 45, 90
20, 46769, Note_on_c, 15, 45, 0
20, 46770, Note_on_c, 15, 47, 90
20, 46799, Note_on_c, 15, 47, 0
20, 46800, Note_on_c, 15, 47, 90
20, 46829, Note_on_c, 15, 47, 0
20, 46830, Note_on_c, 15, 49, 90
20, 46859, Note_on_c, 15, 49, 0
20, 46860, Note_on_c, 15, 49, 90
20, 46889, Note_on_c, 15, 49, 0
20, 46890, Note_on_c, 15, 47, 90
20, 46919, Note_on_c, 15, 47, 0
20, 46920, Note_on_c, 15, 47, 90
20, 46949, Note_on_c, 15, 47, 0
20, 46950, Note_on_c, 15, 46, 90
20, 46979, Note_on_c, 15, 46, 0
20, 46980, Note_on_c, 15, 47, 90
20, 47009, Note_on_c, 15, 47, 0
20, 47010, Note_on_c, 15, 45, 90
20, 47039, Note_on_c, 15, 45, 0
20, 47040, Note_on_c, 15, 44, 90
20, 47069, Note_on_c, 15, 44, 0
20, 47070, Note_on_c, 15, 42, 90
20, 47099, Note_on_c, 15, 42, 0
20, 47100, Note_on_c, 15, 40, 90
20, 47159, Note_on_c, 15, 40, 0
20, 47160, Note_on_c, 15, 52, 90
20, 47219, Note_on_c, 15, 52, 0
20, 47220, Note_on_c, 15, 51, 90
20, 47279, Note_on_c, 15, 51, 0
20, 47280, Note_on_c, 15, 49, 90
20, 47339, Note_on_c, 15, 49, 0
20, 47340, Note_on_c, 15, 51, 90
20, 47369, Note_on_c, 15, 51, 0
20, 47370, Note_on_c, 15, 49, 90
20, 47399, Note_on_c, 15, 49, 0
20, 47400, Note_on_c, 15, 51, 90
20, 47429, Note_on_c, 15, 51, 0
20, 47430, Note_on_c, 15, 47, 90
20, 47459, Note_on_c, 15, 47, 0
20, 47460, Note_on_c, 15, 52, 90
20, 47519, Note_on_c, 15, 52, 0
20, 47520, Note_on_c, 15, 59, 90
20, 47579, Note_on_c, 15, 59, 0
20, 47580, Note_on_c, 15, 47, 90
20, 47639, Note_on_c, 15, 47, 0
20, 47640, Note_on_c, 15, 52, 90
20, 47669, Note_on_c, 15, 52, 0
20, 47670, Note_on_c, 15, 40, 90
20, 47699, Note_on_c, 15, 40, 0
20, 47700, Note_on_c, 15, 40, 90
20, 47729, Note_on_c, 15, 40, 0
20, 47730, Note_on_c, 15, 40, 90
20, 47759, Note_on_c, 15, 40, 0
20, 47760, Note_on_c, 15, 40, 90
20, 47789, Note_on_c, 15, 40, 0
20, 47790, Note_on_c, 15, 40, 90
20, 47819, Note_on_c, 15, 40, 0
20, 47820, Note_on_c, 15, 40, 90
20, 47879, Note_on_c, 15, 40, 0
20, 47880, Note_on_c, 15, 52, 90
20, 47909, Note_on_c, 15, 52, 0
20, 47910, Note_on_c, 15, 54, 90
20, 47939, Note_on_c, 15, 54, 0
20, 47940, Note_on_c, 15, 56, 90
20, 47969, Note_on_c, 15, 56, 0
20, 47970, Note_on_c, 15, 52, 90
20, 47999, Note_on_c, 15, 52, 0
20, 48000, Note_on_c, 15, 57, 90
20, 48029, Note_on_c, 15, 57, 0
20, 48030, Note_on_c, 15, 45, 90
20, 48059, Note_on_c, 15, 45, 0
20, 48060, Note_on_c, 15, 45, 90
20, 48089, Note_on_c, 15, 45, 0
20, 48090, Note_on_c, 15, 45, 90
20, 48119, Note_on_c, 15, 45, 0
20, 48120, Note_on_c, 15, 45, 90
20, 48149, Note_on_c, 15, 45, 0
20, 48150, Note_on_c, 15, 45, 90
20, 48179, Note_on_c, 15, 45, 0
20, 48180, Note_on_c, 15, 45, 90
20, 48239, Note_on_c, 15, 45, 0
20, 48240, Note_on_c, 15, 56, 90
20, 48269, Note_on_c, 15, 56, 0
20, 48270, Note_on_c, 15, 57, 90
20, 48299, Note_on_c, 15, 57, 0
20, 48300, Note_on_c, 15, 59, 90
20, 48329, Note_on_c, 15, 59, 0
20, 48330, Note_on_c, 15, 56, 90
20, 48359, Note_on_c, 15, 56, 0
20, 48360, Note_on_c, 15, 62, 90
20, 48419, Note_on_c, 15, 62, 0
20, 48420, Note_on_c, 15, 50, 90
20, 48479, Note_on_c, 15, 50, 0
20, 48480, Note_on_c, 15, 46, 90
20, 48539, Note_on_c, 15, 46, 0
20, 48540, Note_on_c, 15, 47, 90
20, 48599, Note_on_c, 15, 47, 0
20, 48600, Note_on_c, 15, 45, 90
20, 48659, Note_on_c, 15, 45, 0
20, 48660, Note_on_c, 15, 44, 90
20, 48719, Note_on_c, 15, 44, 0
20, 48720, Note_on_c, 15, 45, 90
20, 48779, Note_on_c, 15, 45, 0
20, 48780, Note_on_c, 15, 49, 90
20, 48839, Note_on_c, 15, 49, 0
20, 48840, Note_on_c, 15, 52, 90
20, 48899, Note_on_c, 15, 52, 0
20, 48900, Note_on_c, 15, 57, 90
20, 48959, Note_on_c, 15, 57, 0
20, 48960, Note_on_c, 15, 54, 90
20, 49019, Note_on_c, 15, 54, 0
20, 49020, Note_on_c, 15, 50, 90
20, 49079, Note_on_c, 15, 50, 0
20, 49080, Note_on_c, 15, 51, 90
20, 49109, Note_on_c, 15, 51, 0
20, 49110, Note_on_c, 15, 39, 90
20, 49139, Note_on_c, 15, 39, 0
20, 49140, Note_on_c, 15, 39, 90
20, 49169, Note_on_c, 15, 39, 0
20, 49170, Note_on_c, 15, 39, 90
20, 49199, Note_on_c, 15, 39, 0
20, 49200, Note_on_c, 15, 39, 90
20, 49229, Note_on_c, 15, 39, 0
20, 49230, Note_on_c, 15, 39, 90
20, 49259, Note_on_c, 15, 39, 0
20, 49260, Note_on_c, 15, 40, 90
20, 49318, Note_on_c, 15, 40, 0
20, 49320, Note_on_c, 15, 44, 90
20, 49378, Note_on_c, 15, 44, 0
20, 49380, Note_on_c, 15, 40, 90
20, 49438, Note_on_c, 15, 40, 0
20, 49440, Note_on_c, 15, 45, 90
20, 49498, Note_on_c, 15, 45, 0
20, 49500, Note_on_c, 15, 49, 90
20, 49558, Note_on_c, 15, 49, 0
20, 49560, Note_on_c, 15, 54, 90
20, 49618, Note_on_c, 15, 54, 0
20, 49620, Note_on_c, 15, 52, 90
20, 49678, Note_on_c, 15, 52, 0
20, 49680, Note_on_c, 15, 50, 90
20, 49738, Note_on_c, 15, 50, 0
20, 49740, Note_on_c, 15, 49, 90
20, 49798, Note_on_c, 15, 49, 0
20, 49800, Note_on_c, 15, 47, 90
20, 49858, Note_on_c, 15, 47, 0
20, 49860, Note_on_c, 15, 42, 90
20, 49889, Note_on_c, 15, 42, 0
20, 49890, Note_on_c, 15, 44, 90
20, 49919, Note_on_c, 15, 44, 0
20, 49920, Note_on_c, 15, 46, 90
20, 49949, Note_on_c, 15, 46, 0
20, 49950, Note_on_c, 15, 42, 90
20, 49979, Note_on_c, 15, 42, 0
20, 49980, Note_on_c, 15, 47, 90
20, 50039, Note_on_c, 15, 47, 0
20, 50040, Note_on_c, 15, 49, 90
20, 50099, Note_on_c, 15, 49, 0
20, 50100, Note_on_c, 15, 50, 90
20, 50159, Note_on_c, 15, 50, 0
20, 50160, Note_on_c, 15, 40, 90
20, 50219, Note_on_c, 15, 40, 0
20, 50220, Note_on_c, 15, 52, 90
20, 50279, Note_on_c, 15, 52, 0
20, 50280, Note_on_c, 15, 50, 90
20, 50339, Note_on_c, 15, 50, 0
20, 50340, Note_on_c, 15, 49, 90
20, 50399, Note_on_c, 15, 49, 0
20, 50400, Note_on_c, 15, 44, 90
20, 50429, Note_on_c, 15, 44, 0
20, 50430, Note_on_c, 15, 45, 90
20, 50459, Note_on_c, 15, 45, 0
20, 50460, Note_on_c, 15, 47, 90
20, 50489, Note_on_c, 15, 47, 0
20, 50490, Note_on_c, 15, 44, 90
20, 50519, Note_on_c, 15, 44, 0
20, 50520, Note_on_c, 15, 45, 90
20, 50579, Note_on_c, 15, 45, 0
20, 50580, Note_on_c, 15, 49, 90
20, 50639, Note_on_c, 15, 49, 0
20, 50640, Note_on_c, 15, 47, 90
20, 50699, Note_on_c, 15, 47, 0
20, 50700, Note_on_c, 15, 45, 90
20, 50759, Note_on_c, 15, 45, 0
20, 50760, Note_on_c, 15, 44, 90
20, 50789, Note_on_c, 15, 44, 0
20, 50790, Note_on_c, 15, 45, 90
20, 50819, Note_on_c, 15, 45, 0
20, 50820, Note_on_c, 15, 47, 90
20, 50849, Note_on_c, 15, 47, 0
20, 50850, Note_on_c, 15, 44, 90
20, 50879, Note_on_c, 15, 44, 0
20, 50880, Note_on_c, 15, 45, 90
20, 50909, Note_on_c, 15, 45, 0
20, 50910, Note_on_c, 15, 40, 90
20, 50939, Note_on_c, 15, 40, 0
20, 50940, Note_on_c, 15, 40, 90
20, 50969, Note_on_c, 15, 40, 0
20, 50970, Note_on_c, 15, 40, 90
20, 50999, Note_on_c, 15, 40, 0
20, 51000, Note_on_c, 15, 40, 90
20, 51029, Note_on_c, 15, 40, 0
20, 51030, Note_on_c, 15, 40, 90
20, 51059, Note_on_c, 15, 40, 0
20, 51060, Note_on_c, 15, 40, 90
20, 51119, Note_on_c, 15, 40, 0
20, 51120, Note_on_c, 15, 52, 90
20, 51149, Note_on_c, 15, 52, 0
20, 51150, Note_on_c, 15, 54, 90
20, 51179, Note_on_c, 15, 54, 0
20, 51180, Note_on_c, 15, 56, 90
20, 51209, Note_on_c, 15, 56, 0
20, 51210, Note_on_c, 15, 52, 90
20, 51239, Note_on_c, 15, 52, 0
20, 51240, Note_on_c, 15, 57, 90
20, 51299, Note_on_c, 15, 57, 0
20, 51300, Note_on_c, 15, 45, 90
20, 51359, Note_on_c, 15, 45, 0
20, 51360, Note_on_c, 15, 44, 90
20, 51419, Note_on_c, 15, 44, 0
20, 51420, Note_on_c, 15, 42, 90
20, 51479, Note_on_c, 15, 42, 0
20, 51480, Note_on_c, 15, 54, 90
20, 51539, Note_on_c, 15, 54, 0
20, 51540, Note_on_c, 15, 49, 90
20, 51599, Note_on_c, 15, 49, 0
20, 51600, Note_on_c, 15, 50, 90
20, 51659, Note_on_c, 15, 50, 0
20, 51660, Note_on_c, 15, 62, 90
20, 51719, Note_on_c, 15, 62, 0
20, 51720, Note_on_c, 15, 61, 90
20, 51779, Note_on_c, 15, 61, 0
20, 51780, Note_on_c, 15, 59, 90
20, 51839, Note_on_c, 15, 59, 0
20, 51840, Note_on_c, 15, 47, 90
20, 51869, Note_on_c, 15, 47, 0
20, 51870, Note_on_c, 15, 49, 90
20, 51899, Note_on_c, 15, 49, 0
20, 51900, Note_on_c, 15, 50, 90
20, 51929, Note_on_c, 15, 50, 0
20, 51930, Note_on_c, 15, 47, 90
20, 51959, Note_on_c, 15, 47, 0
20, 51960, Note_on_c, 15, 52, 90
20, 52019, Note_on_c, 15, 52, 0
20, 52020, Note_on_c, 15, 44, 90
20, 52079, Note_on_c, 15, 44, 0
20, 52080, Note_on_c, 15, 42, 90
20, 52139, Note_on_c, 15, 42, 0
20, 52140, Note_on_c, 15, 40, 90
20, 52199, Note_on_c, 15, 40, 0
20, 52200, Note_on_c, 15, 44, 90
20, 52259, Note_on_c, 15, 44, 0
20, 52260, Note_on_c, 15, 40, 90
20, 52319, Note_on_c, 15, 40, 0
20, 52320, Note_on_c, 15, 45, 90
20, 52439, Note_on_c, 15, 45, 0
20, 52560, Note_on_c, 15, 45, 90
20, 52589, Note_on_c, 15, 45, 0
20, 52590, Note_on_c, 15, 47, 90
20, 52619, Note_on_c, 15, 47, 0
20, 52620, Note_on_c, 15, 49, 90
20, 52649, Note_on_c, 15, 49, 0
20, 52650, Note_on_c, 15, 45, 90
20, 52679, Note_on_c, 15, 45, 0
20, 52680, Note_on_c, 15, 50, 90
20, 52739, Note_on_c, 15, 50, 0
20, 52740, Note_on_c, 15, 47, 90
20, 52799, Note_on_c, 15, 47, 0
20, 52800, Note_on_c, 15, 54, 90
20, 52859, Note_on_c, 15, 54, 0
20, 52860, Note_on_c, 15, 59, 90
20, 52919, Note_on_c, 15, 59, 0
20, 52920, Note_on_c, 15, 47, 90
20, 52949, Note_on_c, 15, 47, 0
20, 52950, Note_on_c, 15, 49, 90
20, 52979, Note_on_c, 15, 49, 0
20, 52980, Note_on_c, 15, 50, 90
20, 53009, Note_on_c, 15, 50, 0
20, 53010, Note_on_c, 15, 47, 90
20, 53039, Note_on_c, 15, 47, 0
20, 53040, Note_on_c, 15, 49, 90
20, 53099, Note_on_c, 15, 49, 0
20, 53100, Note_on_c, 15, 45, 90
20, 53159, Note_on_c, 15, 45, 0
20, 53160, Note_on_c, 15, 52, 90
20, 53219, Note_on_c, 15, 52, 0
20, 53220, Note_on_c, 15, 57, 90
20, 53279, Note_on_c, 15, 57, 0
20, 53280, Note_on_c, 15, 45, 90
20, 53309, Note_on_c, 15, 45, 0
20, 53310, Note_on_c, 15, 47, 90
20, 53339, Note_on_c, 15, 47, 0
20, 53340, Note_on_c, 15, 49, 90
20, 53369, Note_on_c, 15, 49, 0
20, 53370, Note_on_c, 15, 45, 90
20, 53399, Note_on_c, 15, 45, 0
20, 53400, Note_on_c, 15, 40, 90
20, 53429, Note_on_c, 15, 40, 0
20, 53430, Note_on_c, 15, 52, 90
20, 53459, Note_on_c, 15, 52, 0
20, 53460, Note_on_c, 15, 52, 90
20, 53489, Note_on_c, 15, 52, 0
20, 53490, Note_on_c, 15, 52, 90
20, 53519, Note_on_c, 15, 52, 0
20, 53520, Note_on_c, 15, 52, 90
20, 53549, Note_on_c, 15, 52, 0
20, 53550, Note_on_c, 15, 52, 90
20, 53579, Note_on_c, 15, 52, 0
20, 53580, Note_on_c, 15, 52, 90
20, 53609, Note_on_c, 15, 52, 0
20, 53610, Note_on_c, 15, 54, 90
20, 53639, Note_on_c, 15, 54, 0
20, 53640, Note_on_c, 15, 54, 90
20, 53669, Note_on_c, 15, 54, 0
20, 53670, Note_on_c, 15, 52, 90
20, 53699, Note_on_c, 15, 52, 0
20, 53700, Note_on_c, 15, 52, 90
20, 53729, Note_on_c, 15, 52, 0
20, 53730, Note_on_c, 15, 50, 90
20, 53759, Note_on_c, 15, 50, 0
20, 53760, Note_on_c, 15, 50, 90
20, 53789, Note_on_c, 15, 50, 0
20, 53790, Note_on_c, 15, 52, 90
20, 53819, Note_on_c, 15, 52, 0
20, 53820, Note_on_c, 15, 52, 90
20, 53849, Note_on_c, 15, 52, 0
20, 53850, Note_on_c, 15, 54, 90
20, 53879, Note_on_c, 15, 54, 0
20, 53880, Note_on_c, 15, 54, 90
20, 53909, Note_on_c, 15, 54, 0
20, 53910, Note_on_c, 15, 52, 90
20, 53939, Note_on_c, 15, 52, 0
20, 53940, Note_on_c, 15, 52, 90
20, 53969, Note_on_c, 15, 52, 0
20, 53970, Note_on_c, 15, 51, 90
20, 53999, Note_on_c, 15, 51, 0
20, 54000, Note_on_c, 15, 52, 90
20, 54029, Note_on_c, 15, 52, 0
20, 54030, Note_on_c, 15, 50, 90
20, 54059, Note_on_c, 15, 50, 0
20, 54060, Note_on_c, 15, 49, 90
20, 54089, Note_on_c, 15, 49, 0
20, 54090, Note_on_c, 15, 47, 90
20, 54119, Note_on_c, 15, 47, 0
20, 54120, Note_on_c, 15, 45, 90
20, 54179, Note_on_c, 15, 45, 0
20, 54180, Note_on_c, 15, 57, 90
20, 54239, Note_on_c, 15, 57, 0
20, 54240, Note_on_c, 15, 56, 90
20, 54299, Note_on_c, 15, 56, 0
20, 54300, Note_on_c, 15, 54, 90
20, 54359, Note_on_c, 15, 54, 0
20, 54360, Note_on_c, 15, 56, 90
20, 54389, Note_on_c, 15, 56, 0
20, 54390, Note_on_c, 15, 52, 90
20, 54419, Note_on_c, 15, 52, 0
20, 54420, Note_on_c, 15, 54, 90
20, 54449, Note_on_c, 15, 54, 0
20, 54450, Note_on_c, 15, 56, 90
20, 54479, Note_on_c, 15, 56, 0
20, 54480, Note_on_c, 15, 57, 90
20, 54539, Note_on_c, 15, 57, 0
20, 54540, Note_on_c, 15, 52, 90
20, 54599, Note_on_c, 15, 52, 0
20, 54600, Note_on_c, 15, 40, 90
20, 54659, Note_on_c, 15, 40, 0
20, 54660, Note_on_c, 15, 45, 90
20, 54719, Note_on_c, 15, 45, 0
20, 54720, Note_on_c, 15, 49, 90
20, 54779, Note_on_c, 15, 49, 0
20, 54780, Note_on_c, 15, 52, 90
20, 54839, Note_on_c, 15, 52, 0
20, 54840, Note_on_c, 15, 57, 90
20, 54899, Note_on_c, 15, 57, 0
20, 54900, Note_on_c, 15, 61, 90
20, 54959, Note_on_c, 15, 61, 0
20, 54960, Note_on_c, 15, 59, 90
20, 55019, Note_on_c, 15, 59, 0
20, 55020, Note_on_c, 15, 57, 90
20, 55079, Note_on_c, 15, 57, 0
20, 55080, Note_on_c, 15, 52, 90
20, 55109, Note_on_c, 15, 52, 0
20, 55110, Note_on_c, 15, 54, 90
20, 55139, Note_on_c, 15, 54, 0
20, 55140, Note_on_c, 15, 56, 90
20, 55169, Note_on_c, 15, 56, 0
20, 55170, Note_on_c, 15, 52, 90
20, 55199, Note_on_c, 15, 52, 0
20, 55200, Note_on_c, 15, 57, 90
20, 55259, Note_on_c, 15, 57, 0
20, 55260, Note_on_c, 15, 49, 90
20, 55319, Note_on_c, 15, 49, 0
20, 55320, Note_on_c, 15, 52, 90
20, 55379, Note_on_c, 15, 52, 0
20, 55380, Note_on_c, 15, 45, 90
20, 55439, Note_on_c, 15, 45, 0
20, 55440, Note_on_c, 15, 52, 90
20, 55469, Note_on_c, 15, 52, 0
20, 55470, Note_on_c, 15, 54, 90
20, 55499, Note_on_c, 15, 54, 0
20, 55500, Note_on_c, 15, 56, 90
20, 55529, Note_on_c, 15, 56, 0
20, 55530, Note_on_c, 15, 52, 90
20, 55559, Note_on_c, 15, 52, 0
20, 55560, Note_on_c, 15, 57, 90
20, 55619, Note_on_c, 15, 57, 0
20, 55620, Note_on_c, 15, 45, 90
20, 55679, Note_on_c, 15, 45, 0
20, 55680, Note_on_c, 15, 41, 90
20, 55739, Note_on_c, 15, 41, 0
20, 55740, Note_on_c, 15, 42, 90
20, 55799, Note_on_c, 15, 42, 0
20, 55800, Note_on_c, 15, 54, 90
20, 55859, Note_on_c, 15, 54, 0
20, 55860, Note_on_c, 15, 49, 90
20, 55919, Note_on_c, 15, 49, 0
20, 55920, Note_on_c, 15, 50, 90
20, 55979, Note_on_c, 15, 50, 0
20, 55980, Note_on_c, 15, 62, 90
20, 56039, Note_on_c, 15, 62, 0
20, 56040, Note_on_c, 15, 58, 90
20, 56099, Note_on_c, 15, 58, 0
20, 56100, Note_on_c, 15, 59, 90
20, 56159, Note_on_c, 15, 59, 0
20, 56160, Note_on_c, 15, 47, 90
20, 56219, Note_on_c, 15, 47, 0
20, 56220, Note_on_c, 15, 42, 90
20, 56279, Note_on_c, 15, 42, 0
20, 56280, Note_on_c, 15, 44, 90
20, 56294, Note_on_c, 15, 44, 0
20, 56295, Note_on_c, 15, 45, 90
20, 56309, Note_on_c, 15, 45, 0
20, 56310, Note_on_c, 15, 47, 90
20, 56339, Note_on_c, 15, 47, 0
20, 56340, Note_on_c, 15, 40, 90
20, 56355, Note_on_c, 15, 40, 0
20, 56370, Note_on_c, 15, 40, 90
20, 56385, Note_on_c, 15, 40, 0
20, 56400, Note_on_c, 15, 40, 90
20, 56415, Note_on_c, 15, 40, 0
20, 56430, Note_on_c, 15, 40, 90
20, 56445, Note_on_c, 15, 40, 0
20, 56460, Note_on_c, 15, 40, 90
20, 56489, Note_on_c, 15, 40, 0
20, 56490, Note_on_c, 15, 52, 90
20, 56519, Note_on_c, 15, 52, 0
20, 56520, Note_on_c, 15, 52, 90
20, 56549, Note_on_c, 15, 52, 0
20, 56550, Note_on_c, 15, 52, 90
20, 56579, Note_on_c, 15, 52, 0
20, 56580, Note_on_c, 15, 52, 90
20, 56609, Note_on_c, 15, 52, 0
20, 56610, Note_on_c, 15, 52, 90
20, 56639, Note_on_c, 15, 52, 0
20, 56640, Note_on_c, 15, 52, 90
20, 56669, Note_on_c, 15, 52, 0
20, 56670, Note_on_c, 15, 54, 90
20, 56699, Note_on_c, 15, 54, 0
20, 56700, Note_on_c, 15, 54, 90
20, 56729, Note_on_c, 15, 54, 0
20, 56730, Note_on_c, 15, 52, 90
20, 56759, Note_on_c, 15, 52, 0
20, 56760, Note_on_c, 15, 52, 90
20, 56789, Note_on_c, 15, 52, 0
20, 56790, Note_on_c, 15, 50, 90
20, 56819, Note_on_c, 15, 50, 0
20, 56820, Note_on_c, 15, 50, 90
20, 56849, Note_on_c, 15, 50, 0
20, 56850, Note_on_c, 15, 52, 90
20, 56879, Note_on_c, 15, 52, 0
20, 56880, Note_on_c, 15, 52, 90
20, 56909, Note_on_c, 15, 52, 0
20, 56910, Note_on_c, 15, 54, 90
20, 56939, Note_on_c, 15, 54, 0
20, 56940, Note_on_c, 15, 54, 90
20, 56969, Note_on_c, 15, 54, 0
20, 56970, Note_on_c, 15, 52, 90
20, 56999, Note_on_c, 15, 52, 0
20, 57000, Note_on_c, 15, 52, 90
20, 57029, Note_on_c, 15, 52, 0
20, 57030, Note_on_c, 15, 51, 90
20, 57059, Note_on_c, 15, 51, 0
20, 57060, Note_on_c, 15, 52, 90
20, 57089, Note_on_c, 15, 52, 0
20, 57090, Note_on_c, 15, 50, 90
20, 57119, Note_on_c, 15, 50, 0
20, 57120, Note_on_c, 15, 49, 90
20, 57149, Note_on_c, 15, 49, 0
20, 57150, Note_on_c, 15, 47, 90
20, 57179, Note_on_c, 15, 47, 0
20, 57180, Note_on_c, 15, 45, 90
20, 57239, Note_on_c, 15, 45, 0
20, 57240, Note_on_c, 15, 57, 90
20, 57299, Note_on_c, 15, 57, 0
20, 57300, Note_on_c, 15, 56, 90
20, 57359, Note_on_c, 15, 56, 0
20, 57360, Note_on_c, 15, 54, 90
20, 57419, Note_on_c, 15, 54, 0
20, 57420, Note_on_c, 15, 56, 90
20, 57449, Note_on_c, 15, 56, 0
20, 57450, Note_on_c, 15, 54, 90
20, 57479, Note_on_c, 15, 54, 0
20, 57480, Note_on_c, 15, 56, 90
20, 57509, Note_on_c, 15, 56, 0
20, 57510, Note_on_c, 15, 52, 90
20, 57539, Note_on_c, 15, 52, 0
20, 57540, Note_on_c, 15, 57, 90
20, 57599, Note_on_c, 15, 57, 0
20, 57600, Note_on_c, 15, 64, 90
20, 57659, Note_on_c, 15, 64, 0
20, 57660, Note_on_c, 15, 52, 90
20, 57719, Note_on_c, 15, 52, 0
20, 57720, Note_on_c, 15, 57, 90
20, 57749, Note_on_c, 15, 57, 0
20, 57750, Note_on_c, 15, 56, 90
20, 57764, Note_on_c, 15, 56, 0
20, 57765, Note_on_c, 15, 54, 90
20, 57779, Note_on_c, 15, 54, 0
20, 57780, Note_on_c, 15, 52, 90
20, 57809, Note_on_c, 15, 52, 0
20, 57810, Note_on_c, 15, 50, 90
20, 57839, Note_on_c, 15, 50, 0
20, 57840, Note_on_c, 15, 49, 90
20, 57869, Note_on_c, 15, 49, 0
20, 57870, Note_on_c, 15, 47, 90
20, 57899, Note_on_c, 15, 47, 0
20, 57900, Note_on_c, 15, 45, 90
20, 57915, Note_on_c, 15, 45, 0
20, 57915, Note_on_c, 15, 47, 90
20, 57930, Note_on_c, 15, 47, 0
20, 57930, Note_on_c, 15, 49, 90
20, 57945, Note_on_c, 15, 49, 0
20, 57960, Note_on_c, 15, 49, 90
20, 57975, Note_on_c, 15, 49, 0
20, 57990, Note_on_c, 15, 49, 90
20, 58005, Note_on_c, 15, 49, 0
20, 58020, Note_on_c, 15, 49, 90
20, 58035, Note_on_c, 15, 49, 0
20, 58050, Note_on_c, 15, 49, 90
20, 58065, Note_on_c, 15, 49, 0
20, 58080, Note_on_c, 15, 54, 90
20, 58095, Note_on_c, 15, 54, 0
20, 58095, Note_on_c, 15, 52, 90
20, 58110, Note_on_c, 15, 52, 0
20, 58110, Note_on_c, 15, 50, 90
20, 58125, Note_on_c, 15, 50, 0
20, 58140, Note_on_c, 15, 49, 90
20, 58155, Note_on_c, 15, 49, 0
20, 58170, Note_on_c, 15, 49, 90
20, 58185, Note_on_c, 15, 49, 0
20, 58200, Note_on_c, 15, 49, 90
20, 58215, Note_on_c, 15, 49, 0
20, 58230, Note_on_c, 15, 49, 90
20, 58245, Note_on_c, 15, 49, 0
20, 58260, Note_on_c, 15, 50, 90
20, 58275, Note_on_c, 15, 50, 0
20, 58275, Note_on_c, 15, 52, 90
20, 58290, Note_on_c, 15, 52, 0
20, 58290, Note_on_c, 15, 54, 90
20, 58305, Note_on_c, 15, 54, 0
20, 58320, Note_on_c, 15, 54, 90
20, 58335, Note_on_c, 15, 54, 0
20, 58350, Note_on_c, 15, 54, 90
20, 58365, Note_on_c, 15, 54, 0
20, 58380, Note_on_c, 15, 54, 90
20, 58395, Note_on_c, 15, 54, 0
20, 58410, Note_on_c, 15, 54, 90
20, 58425, Note_on_c, 15, 54, 0
20, 58440, Note_on_c, 15, 59, 90
20, 58455, Note_on_c, 15, 59, 0
20, 58455, Note_on_c, 15, 57, 90
20, 58470, Note_on_c, 15, 57, 0
20, 58470, Note_on_c, 15, 55, 90
20, 58485, Note_on_c, 15, 55, 0
20, 58500, Note_on_c, 15, 54, 90
20, 58515, Note_on_c, 15, 54, 0
20, 58530, Note_on_c, 15, 54, 90
20, 58545, Note_on_c, 15, 54, 0
20, 58560, Note_on_c, 15, 54, 90
20, 58575, Note_on_c, 15, 54, 0
20, 58590, Note_on_c, 15, 54, 90
20, 58605, Note_on_c, 15, 54, 0
20, 58620, Note_on_c, 15, 55, 90
20, 58635, Note_on_c, 15, 55, 0
20, 58635, Note_on_c, 15, 57, 90
20, 58650, Note_on_c, 15, 57, 0
20, 58650, Note_on_c, 15, 59, 90
20, 58665, Note_on_c, 15, 59, 0
20, 58680, Note_on_c, 15, 59, 90
20, 58695, Note_on_c, 15, 59, 0
20, 58710, Note_on_c, 15, 59, 90
20, 58725, Note_on_c, 15, 59, 0
20, 58740, Note_on_c, 15, 59, 90
20, 58755, Note_on_c, 15, 59, 0
20, 58770, Note_on_c, 15, 59, 90
20, 58785, Note_on_c, 15, 59, 0
20, 58800, Note_on_c, 15, 64, 90
20, 58815, Note_on_c, 15, 64, 0
20, 58815, Note_on_c, 15, 62, 90
20, 58830, Note_on_c, 15, 62, 0
20, 58830, Note_on_c, 15, 61, 90
20, 58845, Note_on_c, 15, 61, 0
20, 58860, Note_on_c, 15, 59, 90
20, 58875, Note_on_c, 15, 59, 0
20, 58890, Note_on_c, 15, 59, 90
20, 58905, Note_on_c, 15, 59, 0
20, 58920, Note_on_c, 15, 59, 90
20, 58935, Note_on_c, 15, 59, 0
20, 58950, Note_on_c, 15, 59, 90
20, 58965, Note_on_c, 15, 59, 0
20, 58980, Note_on_c, 15, 61, 90
20, 58995, Note_on_c, 15, 61, 0
20, 58995, Note_on_c, 15, 59, 90
20, 59010, Note_on_c, 15, 59, 0
20, 59010, Note_on_c, 15, 57, 90
20, 59025, Note_on_c, 15, 57, 0
20, 59040, Note_on_c, 15, 56, 90
20, 59055, Note_on_c, 15, 56, 0
20, 59070, Note_on_c, 15, 56, 90
20, 59085, Note_on_c, 15, 56, 0
20, 59100, Note_on_c, 15, 56, 90
20, 59115, Note_on_c, 15, 56, 0
20, 59130, Note_on_c, 15, 56, 90
20, 59145, Note_on_c, 15, 56, 0
20, 59160, Note_on_c, 15, 57, 90
20, 59175, Note_on_c, 15, 57, 0
20, 59175, Note_on_c, 15, 56, 90
20, 59190, Note_on_c, 15, 56, 0
20, 59190, Note_on_c, 15, 54, 90
20, 59205, Note_on_c, 15, 54, 0
20, 59220, Note_on_c, 15, 52, 90
20, 59235, Note_on_c, 15, 52, 0
20, 59250, Note_on_c, 15, 52, 90
20, 59265, Note_on_c, 15, 52, 0
20, 59280, Note_on_c, 15, 52, 90
20, 59295, Note_on_c, 15, 52, 0
20, 59310, Note_on_c, 15, 52, 90
20, 59325, Note_on_c, 15, 52, 0
20, 59340, Note_on_c, 15, 54, 90
20, 59355, Note_on_c, 15, 54, 0
20, 59355, Note_on_c, 15, 52, 90
20, 59370, Note_on_c, 15, 52, 0
20, 59370, Note_on_c, 15, 50, 90
20, 59385, Note_on_c, 15, 50, 0
20, 59400, Note_on_c, 15, 49, 90
20, 59415, Note_on_c, 15, 49, 0
20, 59430, Note_on_c, 15, 49, 90
20, 59445, Note_on_c, 15, 49, 0
20, 59460, Note_on_c, 15, 49, 90
20, 59475, Note_on_c, 15, 49, 0
20, 59490, Note_on_c, 15, 49, 90
20, 59505, Note_on_c, 15, 49, 0
20, 59520, Note_on_c, 15, 50, 90
20, 59535, Note_on_c, 15, 50, 0
20, 59535, Note_on_c, 15, 49, 90
20, 59550, Note_on_c, 15, 49, 0
20, 59550, Note_on_c, 15, 47, 90
20, 59565, Note_on_c, 15, 47, 0
20, 59580, Note_on_c, 15, 45, 90
20, 59595, Note_on_c, 15, 45, 0
20, 59610, Note_on_c, 15, 45, 90
20, 59625, Note_on_c, 15, 45, 0
20, 59640, Note_on_c, 15, 45, 90
20, 59655, Note_on_c, 15, 45, 0
20, 59670, Note_on_c, 15, 45, 90
20, 59685, Note_on_c, 15, 45, 0
20, 59700, Note_on_c, 15, 47, 90
20, 59715, Note_on_c, 15, 47, 0
20, 59715, Note_on_c, 15, 45, 90
20, 59730, Note_on_c, 15, 45, 0
20, 59730, Note_on_c, 15, 43, 90
20, 59745, Note_on_c, 15, 43, 0
20, 59760, Note_on_c, 15, 42, 90
20, 59775, Note_on_c, 15, 42, 0
20, 59790, Note_on_c, 15, 42, 90
20, 59805, Note_on_c, 15, 42, 0
20, 59820, Note_on_c, 15, 42, 90
20, 59835, Note_on_c, 15, 42, 0
20, 59850, Note_on_c, 15, 42, 90
20, 59865, Note_on_c, 15, 42, 0
20, 59880, Note_on_c, 15, 43, 90
20, 59895, Note_on_c, 15, 43, 0
20, 59895, Note_on_c, 15, 42, 90
20, 59910, Note_on_c, 15, 42, 0
20, 59910, Note_on_c, 15, 40, 90
20, 59925, Note_on_c, 15, 40, 0
20, 59940, Note_on_c, 15, 39, 90
20, 59955, Note_on_c, 15, 39, 0
20, 59970, Note_on_c, 15, 39, 90
20, 59985, Note_on_c, 15, 39, 0
20, 60000, Note_on_c, 15, 39, 90
20, 60015, Note_on_c, 15, 39, 0
20, 60030, Note_on_c, 15, 39, 90
20, 60045, Note_on_c, 15, 39, 0
20, 60060, Note_on_c, 15, 40, 90
20, 60089, Note_on_c, 15, 40, 0
20, 60090, Note_on_c, 15, 40, 90
20, 60119, Note_on_c, 15, 40, 0
20, 60120, Note_on_c, 15, 40, 90
20, 60149, Note_on_c, 15, 40, 0
20, 60150, Note_on_c, 15, 40, 90
20, 60179, Note_on_c, 15, 40, 0
20, 60180, Note_on_c, 15, 40, 90
20, 60209, Note_on_c, 15, 40, 0
20, 60210, Note_on_c, 15, 40, 90
20, 60239, Note_on_c, 15, 40, 0
20, 60240, Note_on_c, 15, 40, 90
20, 60269, Note_on_c, 15, 40, 0
20, 60270, Note_on_c, 15, 40, 90
20, 60299, Note_on_c, 15, 40, 0
20, 60300, Note_on_c, 15, 40, 90
20, 60329, Note_on_c, 15, 40, 0
20, 60330, Note_on_c, 15, 40, 90
20, 60359, Note_on_c, 15, 40, 0
20, 60360, Note_on_c, 15, 40, 90
20, 60389, Note_on_c, 15, 40, 0
20, 60390, Note_on_c, 15, 40, 90
20, 60419, Note_on_c, 15, 40, 0
20, 60420, Note_on_c, 15, 40, 90
20, 60449, Note_on_c, 15, 40, 0
20, 60450, Note_on_c, 15, 40, 90
20, 60479, Note_on_c, 15, 40, 0
20, 60480, Note_on_c, 15, 40, 90
20, 60509, Note_on_c, 15, 40, 0
20, 60510, Note_on_c, 15, 40, 90
20, 60539, Note_on_c, 15, 40, 0
20, 60540, Note_on_c, 15, 40, 90
20, 60569, Note_on_c, 15, 40, 0
20, 60570, Note_on_c, 15, 40, 90
20, 60599, Note_on_c, 15, 40, 0
20, 60600, Note_on_c, 15, 40, 90
20, 60629, Note_on_c, 15, 40, 0
20, 60630, Note_on_c, 15, 42, 90
20, 60659, Note_on_c, 15, 42, 0
20, 60660, Note_on_c, 15, 42, 90
20, 60689, Note_on_c, 15, 42, 0
20, 60690, Note_on_c, 15, 40, 90
20, 60719, Note_on_c, 15, 40, 0
20, 60720, Note_on_c, 15, 40, 90
20, 60749, Note_on_c, 15, 40, 0
20, 60750, Note_on_c, 15, 38, 90
20, 60779, Note_on_c, 15, 38, 0
20, 60780, Note_on_c, 15, 38, 90
20, 60809, Note_on_c, 15, 38, 0
20, 60810, Note_on_c, 15, 40, 90
20, 60839, Note_on_c, 15, 40, 0
20, 60840, Note_on_c, 15, 40, 90
20, 60869, Note_on_c, 15, 40, 0
20, 60870, Note_on_c, 15, 42, 90
20, 60899, Note_on_c, 15, 42, 0
20, 60900, Note_on_c, 15, 42, 90
20, 60929, Note_on_c, 15, 42, 0
20, 60930, Note_on_c, 15, 43, 90
20, 60959, Note_on_c, 15, 43, 0
20, 60960, Note_on_c, 15, 43, 90
20, 60989, Note_on_c, 15, 43, 0
20, 60990, Note_on_c, 15, 42, 90
20, 61019, Note_on_c, 15, 42, 0
20, 61020, Note_on_c, 15, 42, 90
20, 61049, Note_on_c, 15, 42, 0
20, 61050, Note_on_c, 15, 40, 90
20, 61079, Note_on_c, 15, 40, 0
20, 61080, Note_on_c, 15, 40, 90
20, 61109, Note_on_c, 15, 40, 0
20, 61110, Note_on_c, 15, 41, 90
20, 61139, Note_on_c, 15, 41, 0
20, 61140, Note_on_c, 15, 41, 90
20, 61199, Note_on_c, 15, 41, 0
20, 61200, Note_on_c, 15, 42, 90
20, 61259, Note_on_c, 15, 42, 0
20, 61260, Note_on_c, 15, 42, 90
20, 61319, Note_on_c, 15, 42, 0
20, 61320, Note_on_c, 15, 47, 90
20, 61349, Note_on_c, 15, 47, 0
20, 61350, Note_on_c, 15, 46, 90
20, 61379, Note_on_c, 15, 46, 0
20, 61380, Note_on_c, 15, 47, 90
20, 61409, Note_on_c, 15, 47, 0
20, 61410, Note_on_c, 15, 49, 90
20, 61439, Note_on_c, 15, 49, 0
20, 61440, Note_on_c, 15, 50, 90
20, 61469, Note_on_c, 15, 50, 0
20, 61470, Note_on_c, 15, 52, 90
20, 61499, Note_on_c, 15, 52, 0
20, 61500, Note_on_c, 15, 54, 90
20, 61529, Note_on_c, 15, 54, 0
20, 61530, Note_on_c, 15, 54, 90
20, 61559, Note_on_c, 15, 54, 0
20, 61560, Note_on_c, 15, 54, 90
20, 61589, Note_on_c, 15, 54, 0
20, 61590, Note_on_c, 15, 54, 90
20, 61619, Note_on_c, 15, 54, 0
20, 61620, Note_on_c, 15, 54, 90
20, 61649, Note_on_c, 15, 54, 0
20, 61650, Note_on_c, 15, 54, 90
20, 61679, Note_on_c, 15, 54, 0
20, 61680, Note_on_c, 15, 54, 90
20, 61709, Note_on_c, 15, 54, 0
20, 61710, Note_on_c, 15, 55, 90
20, 61739, Note_on_c, 15, 55, 0
20, 61740, Note_on_c, 15, 55, 90
20, 61769, Note_on_c, 15, 55, 0
20, 61770, Note_on_c, 15, 54, 90
20, 61799, Note_on_c, 15, 54, 0
20, 61800, Note_on_c, 15, 54, 90
20, 61829, Note_on_c, 15, 54, 0
20, 61830, Note_on_c, 15, 52, 90
20, 61859, Note_on_c, 15, 52, 0
20, 61860, Note_on_c, 15, 52, 90
20, 61889, Note_on_c, 15, 52, 0
20, 61890, Note_on_c, 15, 54, 90
20, 61919, Note_on_c, 15, 54, 0
20, 61920, Note_on_c, 15, 54, 90
20, 61949, Note_on_c, 15, 54, 0
20, 61950, Note_on_c, 15, 55, 90
20, 61979, Note_on_c, 15, 55, 0
20, 61980, Note_on_c, 15, 55, 90
20, 62009, Note_on_c, 15, 55, 0
20, 62010, Note_on_c, 15, 54, 90
20, 62039, Note_on_c, 15, 54, 0
20, 62040, Note_on_c, 15, 54, 90
20, 62069, Note_on_c, 15, 54, 0
20, 62070, Note_on_c, 15, 53, 90
20, 62099, Note_on_c, 15, 53, 0
20, 62100, Note_on_c, 15, 54, 90
20, 62129, Note_on_c, 15, 54, 0
20, 62130, Note_on_c, 15, 52, 90
20, 62159, Note_on_c, 15, 52, 0
20, 62160, Note_on_c, 15, 50, 90
20, 62189, Note_on_c, 15, 50, 0
20, 62190, Note_on_c, 15, 49, 90
20, 62219, Note_on_c, 15, 49, 0
20, 62220, Note_on_c, 15, 47, 90
20, 62279, Note_on_c, 15, 47, 0
20, 62280, Note_on_c, 15, 59, 90
20, 62339, Note_on_c, 15, 59, 0
20, 62340, Note_on_c, 15, 58, 90
20, 62399, Note_on_c, 15, 58, 0
20, 62400, Note_on_c, 15, 59, 90
20, 62459, Note_on_c, 15, 59, 0
20, 62460, Note_on_c, 15, 50, 90
20, 62519, Note_on_c, 15, 50, 0
20, 62520, Note_on_c, 15, 49, 90
20, 62579, Note_on_c, 15, 49, 0
20, 62580, Note_on_c, 15, 47, 90
20, 62639, Note_on_c, 15, 47, 0
20, 62640, Note_on_c, 15, 54, 90
20, 62699, Note_on_c, 15, 54, 0
20, 62700, Note_on_c, 15, 42, 90
20, 62759, Note_on_c, 15, 42, 0
20, 62760, Note_on_c, 15, 47, 90
20, 62775, Note_on_c, 15, 47, 0
20, 62775, Note_on_c, 15, 49, 90
20, 62790, Note_on_c, 15, 49, 0
20, 62790, Note_on_c, 15, 50, 90
20, 62805, Note_on_c, 15, 50, 0
20, 62820, Note_on_c, 15, 52, 90
20, 62835, Note_on_c, 15, 52, 0
20, 62850, Note_on_c, 15, 52, 90
20, 62865, Note_on_c, 15, 52, 0
20, 62880, Note_on_c, 15, 52, 90
20, 62895, Note_on_c, 15, 52, 0
20, 62910, Note_on_c, 15, 52, 90
20, 62925, Note_on_c, 15, 52, 0
20, 62940, Note_on_c, 15, 45, 90
20, 62955, Note_on_c, 15, 45, 0
20, 62955, Note_on_c, 15, 47, 90
20, 62970, Note_on_c, 15, 47, 0
20, 62970, Note_on_c, 15, 49, 90
20, 62985, Note_on_c, 15, 49, 0
20, 63000, Note_on_c, 15, 50, 90
20, 63015, Note_on_c, 15, 50, 0
20, 63030, Note_on_c, 15, 50, 90
20, 63045, Note_on_c, 15, 50, 0
20, 63060, Note_on_c, 15, 50, 90
20, 63075, Note_on_c, 15, 50, 0
20, 63090, Note_on_c, 15, 50, 90
20, 63105, Note_on_c, 15, 50, 0
20, 63120, Note_on_c, 15, 44, 90
20, 63135, Note_on_c, 15, 44, 0
20, 63135, Note_on_c, 15, 45, 90
20, 63150, Note_on_c, 15, 45, 0
20, 63150, Note_on_c, 15, 47, 90
20, 63165, Note_on_c, 15, 47, 0
20, 63180, Note_on_c, 15, 49, 90
20, 63195, Note_on_c, 15, 49, 0
20, 63210, Note_on_c, 15, 49, 90
20, 63225, Note_on_c, 15, 49, 0
20, 63240, Note_on_c, 15, 49, 90
20, 63255, Note_on_c, 15, 49, 0
20, 63270, Note_on_c, 15, 49, 90
20, 63285, Note_on_c, 15, 49, 0
20, 63300, Note_on_c, 15, 42, 90
20, 63359, Note_on_c, 15, 42, 0
20, 63360, Note_on_c, 15, 54, 90
20, 63419, Note_on_c, 15, 54, 0
20, 63420, Note_on_c, 15, 56, 90
20, 63479, Note_on_c, 15, 56, 0
20, 63480, Note_on_c, 15, 57, 90
20, 63539, Note_on_c, 15, 57, 0
20, 63540, Note_on_c, 15, 53, 90
20, 63599, Note_on_c, 15, 53, 0
20, 63600, Note_on_c, 15, 49, 90
20, 63659, Note_on_c, 15, 49, 0
20, 63660, Note_on_c, 15, 54, 90
20, 63675, Note_on_c, 15, 54, 0
20, 63675, Note_on_c, 15, 56, 90
20, 63690, Note_on_c, 15, 56, 0
20, 63690, Note_on_c, 15, 57, 90
20, 63705, Note_on_c, 15, 57, 0
20, 63720, Note_on_c, 15, 59, 90
20, 63735, Note_on_c, 15, 59, 0
20, 63750, Note_on_c, 15, 59, 90
20, 63765, Note_on_c, 15, 59, 0
20, 63780, Note_on_c, 15, 59, 90
20, 63795, Note_on_c, 15, 59, 0
20, 63810, Note_on_c, 15, 59, 90
20, 63825, Note_on_c, 15, 59, 0
20, 63840, Note_on_c, 15, 52, 90
20, 63855, Note_on_c, 15, 52, 0
20, 63855, Note_on_c, 15, 54, 90
20, 63870, Note_on_c, 15, 54, 0
20, 63870, Note_on_c, 15, 56, 90
20, 63885, Note_on_c, 15, 56, 0
20, 63900, Note_on_c, 15, 57, 90
20, 63915, Note_on_c, 15, 57, 0
20, 63930, Note_on_c, 15, 57, 90
20, 63945, Note_on_c, 15, 57, 0
20, 63960, Note_on_c, 15, 57, 90
20, 63975, Note_on_c, 15, 57, 0
20, 63990, Note_on_c, 15, 57, 90
20, 64005, Note_on_c, 15, 57, 0
20, 64020, Note_on_c, 15, 51, 90
20, 64035, Note_on_c, 15, 51, 0
20, 64035, Note_on_c, 15, 52, 90
20, 64050, Note_on_c, 15, 52, 0
20, 64050, Note_on_c, 15, 54, 90
20, 64065, Note_on_c, 15, 54, 0
20, 64080, Note_on_c, 15, 56, 90
20, 64095, Note_on_c, 15, 56, 0
20, 64110, Note_on_c, 15, 56, 90
20, 64125, Note_on_c, 15, 56, 0
20, 64140, Note_on_c, 15, 56, 90
20, 64155, Note_on_c, 15, 56, 0
20, 64170, Note_on_c, 15, 56, 90
20, 64185, Note_on_c, 15, 56, 0
20, 64200, Note_on_c, 15, 49, 90
20, 64259, Note_on_c, 15, 49, 0
20, 64260, Note_on_c, 15, 52, 90
20, 64319, Note_on_c, 15, 52, 0
20, 64320, Note_on_c, 15, 56, 90
20, 64379, Note_on_c, 15, 56, 0
20, 64380, Note_on_c, 15, 61, 90
20, 64439, Note_on_c, 15, 61, 0
20, 64500, Note_on_c, 15, 59, 90
20, 64559, Note_on_c, 15, 59, 0
20, 64560, Note_on_c, 15, 57, 90
20, 64619, Note_on_c, 15, 57, 0
20, 64680, Note_on_c, 15, 56, 90
20, 64739, Note_on_c, 15, 56, 0
20, 64740, Note_on_c, 15, 54, 90
20, 64754, Note_on_c, 15, 54, 0
20, 64755, Note_on_c, 15, 56, 90
20, 64769, Note_on_c, 15, 56, 0
20, 64770, Note_on_c, 15, 57, 90
20, 64799, Note_on_c, 15, 57, 0
20, 64800, Note_on_c, 15, 57, 90
20, 64815, Note_on_c, 15, 57, 0
20, 64830, Note_on_c, 15, 57, 90
20, 64845, Note_on_c, 15, 57, 0
20, 64860, Note_on_c, 15, 57, 90
20, 64875, Note_on_c, 15, 57, 0
20, 64890, Note_on_c, 15, 57, 90
20, 64905, Note_on_c, 15, 57, 0
20, 64920, Note_on_c, 15, 56, 90
20, 64949, Note_on_c, 15, 56, 0
20, 64950, Note_on_c, 15, 57, 90
20, 64979, Note_on_c, 15, 57, 0
20, 64980, Note_on_c, 15, 56, 90
20, 65009, Note_on_c, 15, 56, 0
20, 65010, Note_on_c, 15, 54, 90
20, 65039, Note_on_c, 15, 54, 0
20, 65040, Note_on_c, 15, 52, 90
20, 65069, Note_on_c, 15, 52, 0
20, 65070, Note_on_c, 15, 51, 90
20, 65099, Note_on_c, 15, 51, 0
20, 65100, Note_on_c, 15, 49, 90
20, 65159, Note_on_c, 15, 49, 0
20, 65220, Note_on_c, 15, 47, 90
20, 65279, Note_on_c, 15, 47, 0
20, 65280, Note_on_c, 15, 45, 90
20, 65339, Note_on_c, 15, 45, 0
20, 65400, Note_on_c, 15, 44, 90
20, 65459, Note_on_c, 15, 44, 0
20, 65460, Note_on_c, 15, 42, 90
20, 65474, Note_on_c, 15, 42, 0
20, 65475, Note_on_c, 15, 44, 90
20, 65489, Note_on_c, 15, 44, 0
20, 65490, Note_on_c, 15, 45, 90
20, 65505, Note_on_c, 15, 45, 0
20, 65520, Note_on_c, 15, 45, 90
20, 65535, Note_on_c, 15, 45, 0
20, 65550, Note_on_c, 15, 45, 90
20, 65565, Note_on_c, 15, 45, 0
20, 65580, Note_on_c, 15, 45, 90
20, 65595, Note_on_c, 15, 45, 0
20, 65610, Note_on_c, 15, 45, 90
20, 65625, Note_on_c, 15, 45, 0
20, 65640, Note_on_c, 15, 44, 90
20, 65699, Note_on_c, 15, 44, 0
20, 65700, Note_on_c, 15, 48, 90
20, 65759, Note_on_c, 15, 48, 0
20, 65760, Note_on_c, 15, 44, 90
20, 65819, Note_on_c, 15, 44, 0
20, 65820, Note_on_c, 15, 49, 90
20, 65879, Note_on_c, 15, 49, 0
20, 65880, Note_on_c, 15, 56, 90
20, 65939, Note_on_c, 15, 56, 0
20, 65940, Note_on_c, 15, 54, 90
20, 65999, Note_on_c, 15, 54, 0
20, 66000, Note_on_c, 15, 52, 90
20, 66059, Note_on_c, 15, 52, 0
20, 66060, Note_on_c, 15, 53, 90
20, 66119, Note_on_c, 15, 53, 0
20, 66120, Note_on_c, 15, 49, 90
20, 66179, Note_on_c, 15, 49, 0
20, 66180, Note_on_c, 15, 54, 90
20, 66239, Note_on_c, 15, 54, 0
20, 66240, Note_on_c, 15, 61, 90
20, 66299, Note_on_c, 15, 61, 0
20, 66300, Note_on_c, 15, 59, 90
20, 66359, Note_on_c, 15, 59, 0
20, 66360, Note_on_c, 15, 57, 90
20, 66375, Note_on_c, 15, 57, 0
20, 66375, Note_on_c, 15, 56, 90
20, 66390, Note_on_c, 15, 56, 0
20, 66390, Note_on_c, 15, 54, 90
20, 66405, Note_on_c, 15, 54, 0
20, 66420, Note_on_c, 15, 54, 90
20, 66435, Note_on_c, 15, 54, 0
20, 66450, Note_on_c, 15, 54, 90
20, 66465, Note_on_c, 15, 54, 0
20, 66480, Note_on_c, 15, 54, 90
20, 66495, Note_on_c, 15, 54, 0
20, 66510, Note_on_c, 15, 54, 90
20, 66525, Note_on_c, 15, 54, 0
20, 66540, Note_on_c, 15, 56, 90
20, 66555, Note_on_c, 15, 56, 0
20, 66555, Note_on_c, 15, 58, 90
20, 66570, Note_on_c, 15, 58, 0
20, 66570, Note_on_c, 15, 60, 90
20, 66585, Note_on_c, 15, 60, 0
20, 66600, Note_on_c, 15, 60, 90
20, 66615, Note_on_c, 15, 60, 0
20, 66630, Note_on_c, 15, 60, 90
20, 66645, Note_on_c, 15, 60, 0
20, 66660, Note_on_c, 15, 60, 90
20, 66675, Note_on_c, 15, 60, 0
20, 66690, Note_on_c, 15, 60, 90
20, 66705, Note_on_c, 15, 60, 0
20, 66720, Note_on_c, 15, 61, 90
20, 66779, Note_on_c, 15, 61, 0
20, 66780, Note_on_c, 15, 57, 90
20, 66839, Note_on_c, 15, 57, 0
20, 66840, Note_on_c, 15, 52, 90
20, 66899, Note_on_c, 15, 52, 0
20, 66900, Note_on_c, 15, 54, 90
20, 66959, Note_on_c, 15, 54, 0
20, 66960, Note_on_c, 15, 56, 90
20, 67019, Note_on_c, 15, 56, 0
20, 67020, Note_on_c, 15, 44, 90
20, 67079, Note_on_c, 15, 44, 0
20, 67080, Note_on_c, 15, 49, 90
20, 67199, Note_on_c, 15, 49, 0
20, 67260, Note_on_c, 15, 57, 90
20, 67319, Note_on_c, 15, 57, 0
20, 67320, Note_on_c, 15, 61, 90
20, 67379, Note_on_c, 15, 61, 0
20, 67380, Note_on_c, 15, 59, 90
20, 67439, Note_on_c, 15, 59, 0
20, 67440, Note_on_c, 15, 57, 90
20, 67499, Note_on_c, 15, 57, 0
20, 67500, Note_on_c, 15, 52, 90
20, 67529, Note_on_c, 15, 52, 0
20, 67530, Note_on_c, 15, 54, 90
20, 67559, Note_on_c, 15, 54, 0
20, 67560, Note_on_c, 15, 56, 90
20, 67589, Note_on_c, 15, 56, 0
20, 67590, Note_on_c, 15, 52, 90
20, 67619, Note_on_c, 15, 52, 0
20, 67620, Note_on_c, 15, 57, 90
20, 67679, Note_on_c, 15, 57, 0
20, 67680, Note_on_c, 15, 49, 90
20, 67739, Note_on_c, 15, 49, 0
20, 67740, Note_on_c, 15, 52, 90
20, 67799, Note_on_c, 15, 52, 0
20, 67800, Note_on_c, 15, 45, 90
20, 67859, Note_on_c, 15, 45, 0
20, 67860, Note_on_c, 15, 52, 90
20, 67889, Note_on_c, 15, 52, 0
20, 67890, Note_on_c, 15, 54, 90
20, 67919, Note_on_c, 15, 54, 0
20, 67920, Note_on_c, 15, 56, 90
20, 67949, Note_on_c, 15, 56, 0
20, 67950, Note_on_c, 15, 52, 90
20, 67979, Note_on_c, 15, 52, 0
20, 67980, Note_on_c, 15, 57, 90
20, 68039, Note_on_c, 15, 57, 0
20, 68040, Note_on_c, 15, 45, 90
20, 68099, Note_on_c, 15, 45, 0
20, 68100, Note_on_c, 15, 44, 90
20, 68159, Note_on_c, 15, 44, 0
20, 68160, Note_on_c, 15, 42, 90
20, 68219, Note_on_c, 15, 42, 0
20, 68220, Note_on_c, 15, 54, 90
20, 68249, Note_on_c, 15, 54, 0
20, 68250, Note_on_c, 15, 56, 90
20, 68279, Note_on_c, 15, 56, 0
20, 68280, Note_on_c, 15, 57, 90
20, 68309, Note_on_c, 15, 57, 0
20, 68310, Note_on_c, 15, 54, 90
20, 68339, Note_on_c, 15, 54, 0
20, 68340, Note_on_c, 15, 56, 90
20, 68399, Note_on_c, 15, 56, 0
20, 68400, Note_on_c, 15, 44, 90
20, 68459, Note_on_c, 15, 44, 0
20, 68460, Note_on_c, 15, 42, 90
20, 68519, Note_on_c, 15, 42, 0
20, 68520, Note_on_c, 15, 40, 90
20, 68579, Note_on_c, 15, 40, 0
20, 68580, Note_on_c, 15, 52, 90
20, 68609, Note_on_c, 15, 52, 0
20, 68610, Note_on_c, 15, 54, 90
20, 68639, Note_on_c, 15, 54, 0
20, 68640, Note_on_c, 15, 56, 90
20, 68669, Note_on_c, 15, 56, 0
20, 68670, Note_on_c, 15, 52, 90
20, 68699, Note_on_c, 15, 52, 0
20, 68700, Note_on_c, 15, 59, 90
20, 68729, Note_on_c, 15, 59, 0
20, 68730, Note_on_c, 15, 47, 90
20, 68759, Note_on_c, 15, 47, 0
20, 68760, Note_on_c, 15, 47, 90
20, 68789, Note_on_c, 15, 47, 0
20, 68790, Note_on_c, 15, 47, 90
20, 68819, Note_on_c, 15, 47, 0
20, 68820, Note_on_c, 15, 47, 90
20, 68849, Note_on_c, 15, 47, 0
20, 68850, Note_on_c, 15, 47, 90
20, 68879, Note_on_c, 15, 47, 0
20, 68880, Note_on_c, 15, 47, 90
20, 68909, Note_on_c, 15, 47, 0
20, 68910, Note_on_c, 15, 49, 90
20, 68939, Note_on_c, 15, 49, 0
20, 68940, Note_on_c, 15, 49, 90
20, 68969, Note_on_c, 15, 49, 0
20, 68970, Note_on_c, 15, 47, 90
20, 68999, Note_on_c, 15, 47, 0
20, 69000, Note_on_c, 15, 47, 90
20, 69029, Note_on_c, 15, 47, 0
20, 69030, Note_on_c, 15, 45, 90
20, 69059, Note_on_c, 15, 45, 0
20, 69060, Note_on_c, 15, 45, 90
20, 69089, Note_on_c, 15, 45, 0
20, 69090, Note_on_c, 15, 47, 90
20, 69119, Note_on_c, 15, 47, 0
20, 69120, Note_on_c, 15, 47, 90
20, 69149, Note_on_c, 15, 47, 0
20, 69150, Note_on_c, 15, 49, 90
20, 69179, Note_on_c, 15, 49, 0
20, 69180, Note_on_c, 15, 49, 90
20, 69209, Note_on_c, 15, 49, 0
20, 69210, Note_on_c, 15, 47, 90
20, 69239, Note_on_c, 15, 47, 0
20, 69240, Note_on_c, 15, 47, 90
20, 69269, Note_on_c, 15, 47, 0
20, 69270, Note_on_c, 15, 46, 90
20, 69299, Note_on_c, 15, 46, 0
20, 69300, Note_on_c, 15, 47, 90
20, 69329, Note_on_c, 15, 47, 0
20, 69330, Note_on_c, 15, 45, 90
20, 69359, Note_on_c, 15, 45, 0
20, 69360, Note_on_c, 15, 44, 90
20, 69389, Note_on_c, 15, 44, 0
20, 69390, Note_on_c, 15, 42, 90
20, 69419, Note_on_c, 15, 42, 0
20, 69420, Note_on_c, 15, 40, 90
20, 69479, Note_on_c, 15, 40, 0
20, 69480, Note_on_c, 15, 52, 90
20, 69539, Note_on_c, 15, 52, 0
20, 69540, Note_on_c, 15, 51, 90
20, 69599, Note_on_c, 15, 51, 0
20, 69600, Note_on_c, 15, 49, 90
20, 69659, Note_on_c, 15, 49, 0
20, 69660, Note_on_c, 15, 51, 90
20, 69689, Note_on_c, 15, 51, 0
20, 69690, Note_on_c, 15, 49, 90
20, 69719, Note_on_c, 15, 49, 0
20, 69720, Note_on_c, 15, 51, 90
20, 69749, Note_on_c, 15, 51, 0
20, 69750, Note_on_c, 15, 47, 90
20, 69779, Note_on_c, 15, 47, 0
20, 69780, Note_on_c, 15, 52, 90
20, 69839, Note_on_c, 15, 52, 0
20, 69840, Note_on_c, 15, 59, 90
20, 69899, Note_on_c, 15, 59, 0
20, 69900, Note_on_c, 15, 47, 90
20, 69959, Note_on_c, 15, 47, 0
20, 69960, Note_on_c, 15, 40, 90
20, 70019, Note_on_c, 15, 40, 0
20, 70020, Note_on_c, 15, 52, 90
20, 70049, Note_on_c, 15, 52, 0
20, 70050, Note_on_c, 15, 54, 90
20, 70079, Note_on_c, 15, 54, 0
20, 70080, Note_on_c, 15, 56, 90
20, 70109, Note_on_c, 15, 56, 0
20, 70110, Note_on_c, 15, 52, 90
20, 70139, Note_on_c, 15, 52, 0
20, 70140, Note_on_c, 15, 57, 90
20, 70199, Note_on_c, 15, 57, 0
20, 70200, Note_on_c, 15, 61, 90
20, 70259, Note_on_c, 15, 61, 0
20, 70260, Note_on_c, 15, 59, 90
20, 70319, Note_on_c, 15, 59, 0
20, 70320, Note_on_c, 15, 57, 90
20, 70379, Note_on_c, 15, 57, 0
20, 70380, Note_on_c, 15, 56, 90
20, 70439, Note_on_c, 15, 56, 0
20, 70500, Note_on_c, 15, 57, 90
20, 70559, Note_on_c, 15, 57, 0
20, 70560, Note_on_c, 15, 49, 90
20, 70619, Note_on_c, 15, 49, 0
20, 70620, Note_on_c, 15, 52, 90
20, 70679, Note_on_c, 15, 52, 0
20, 70680, Note_on_c, 15, 45, 90
20, 70739, Note_on_c, 15, 45, 0
20, 70740, Note_on_c, 15, 40, 90
20, 70799, Note_on_c, 15, 40, 0
20, 70860, Note_on_c, 15, 45, 90
20, 70919, Note_on_c, 15, 45, 0
20, 70920, Note_on_c, 15, 49, 90
20, 70979, Note_on_c, 15, 49, 0
20, 70980, Note_on_c, 15, 54, 90
20, 71039, Note_on_c, 15, 54, 0
20, 71040, Note_on_c, 15, 52, 90
20, 71099, Note_on_c, 15, 52, 0
20, 71100, Note_on_c, 15, 50, 90
20, 71159, Note_on_c, 15, 50, 0
20, 71160, Note_on_c, 15, 49, 90
20, 71219, Note_on_c, 15, 49, 0
20, 71220, Note_on_c, 15, 47, 90
20, 71279, Note_on_c, 15, 47, 0
20, 71280, Note_on_c, 15, 54, 90
20, 71309, Note_on_c, 15, 54, 0
20, 71310, Note_on_c, 15, 56, 90
20, 71339, Note_on_c, 15, 56, 0
20, 71340, Note_on_c, 15, 58, 90
20, 71369, Note_on_c, 15, 58, 0
20, 71370, Note_on_c, 15, 54, 90
20, 71399, Note_on_c, 15, 54, 0
20, 71400, Note_on_c, 15, 59, 90
20, 71459, Note_on_c, 15, 59, 0
20, 71460, Note_on_c, 15, 61, 90
20, 71519, Note_on_c, 15, 61, 0
20, 71520, Note_on_c, 15, 62, 90
20, 71579, Note_on_c, 15, 62, 0
20, 71580, Note_on_c, 15, 52, 90
20, 71639, Note_on_c, 15, 52, 0
20, 71640, Note_on_c, 15, 64, 90
20, 71699, Note_on_c, 15, 64, 0
20, 71700, Note_on_c, 15, 62, 90
20, 71759, Note_on_c, 15, 62, 0
20, 71760, Note_on_c, 15, 61, 90
20, 71819, Note_on_c, 15, 61, 0
20, 71820, Note_on_c, 15, 56, 90
20, 71849, Note_on_c, 15, 56, 0
20, 71850, Note_on_c, 15, 57, 90
20, 71879, Note_on_c, 15, 57, 0
20, 71880, Note_on_c, 15, 59, 90
20, 71909, Note_on_c, 15, 59, 0
20, 71910, Note_on_c, 15, 56, 90
20, 71939, Note_on_c, 15, 56, 0
20, 71940, Note_on_c, 15, 57, 90
20, 71999, Note_on_c, 15, 57, 0
20, 72000, Note_on_c, 15, 49, 90
20, 72059, Note_on_c, 15, 49, 0
20, 72060, Note_on_c, 15, 47, 90
20, 72119, Note_on_c, 15, 47, 0
20, 72120, Note_on_c, 15, 45, 90
20, 72179, Note_on_c, 15, 45, 0
20, 72180, Note_on_c, 15, 44, 90
20, 72209, Note_on_c, 15, 44, 0
20, 72210, Note_on_c, 15, 45, 90
20, 72239, Note_on_c, 15, 45, 0
20, 72240, Note_on_c, 15, 47, 90
20, 72269, Note_on_c, 15, 47, 0
20, 72270, Note_on_c, 15, 44, 90
20, 72299, Note_on_c, 15, 44, 0
20, 72300, Note_on_c, 15, 45, 90
20, 72329, Note_on_c, 15, 45, 0
20, 72330, Note_on_c, 15, 40, 90
20, 72359, Note_on_c, 15, 40, 0
20, 72360, Note_on_c, 15, 40, 90
20, 72389, Note_on_c, 15, 40, 0
20, 72390, Note_on_c, 15, 40, 90
20, 72419, Note_on_c, 15, 40, 0
20, 72420, Note_on_c, 15, 40, 90
20, 72449, Note_on_c, 15, 40, 0
20, 72450, Note_on_c, 15, 40, 90
20, 72479, Note_on_c, 15, 40, 0
20, 72480, Note_on_c, 15, 40, 90
20, 72539, Note_on_c, 15, 40, 0
20, 72540, Note_on_c, 15, 52, 90
20, 72569, Note_on_c, 15, 52, 0
20, 72570, Note_on_c, 15, 54, 90
20, 72599, Note_on_c, 15, 54, 0
20, 72600, Note_on_c, 15, 56, 90
20, 72629, Note_on_c, 15, 56, 0
20, 72630, Note_on_c, 15, 52, 90
20, 72659, Note_on_c, 15, 52, 0
20, 72660, Note_on_c, 15, 57, 90
20, 72719, Note_on_c, 15, 57, 0
20, 72720, Note_on_c, 15, 54, 90
20, 72779, Note_on_c, 15, 54, 0
20, 72780, Note_on_c, 15, 49, 90
20, 72839, Note_on_c, 15, 49, 0
20, 72840, Note_on_c, 15, 42, 90
20, 72899, Note_on_c, 15, 42, 0
20, 72900, Note_on_c, 15, 54, 90
20, 72929, Note_on_c, 15, 54, 0
20, 72930, Note_on_c, 15, 56, 90
20, 72959, Note_on_c, 15, 56, 0
20, 72960, Note_on_c, 15, 57, 90
20, 72989, Note_on_c, 15, 57, 0
20, 72990, Note_on_c, 15, 54, 90
20, 73019, Note_on_c, 15, 54, 0
20, 73020, Note_on_c, 15, 56, 90
20, 73079, Note_on_c, 15, 56, 0
20, 73080, Note_on_c, 15, 52, 90
20, 73139, Note_on_c, 15, 52, 0
20, 73140, Note_on_c, 15, 47, 90
20, 73199, Note_on_c, 15, 47, 0
20, 73200, Note_on_c, 15, 40, 90
20, 73259, Note_on_c, 15, 40, 0
20, 73260, Note_on_c, 15, 52, 90
20, 73289, Note_on_c, 15, 52, 0
20, 73290, Note_on_c, 15, 54, 90
20, 73319, Note_on_c, 15, 54, 0
20, 73320, Note_on_c, 15, 56, 90
20, 73349, Note_on_c, 15, 56, 0
20, 73350, Note_on_c, 15, 52, 90
20, 73379, Note_on_c, 15, 52, 0
20, 73380, Note_on_c, 15, 59, 90
20, 73409, Note_on_c, 15, 59, 0
20, 73410, Note_on_c, 15, 47, 90
20, 73439, Note_on_c, 15, 47, 0
20, 73440, Note_on_c, 15, 47, 90
20, 73469, Note_on_c, 15, 47, 0
20, 73470, Note_on_c, 15, 47, 90
20, 73499, Note_on_c, 15, 47, 0
20, 73500, Note_on_c, 15, 47, 90
20, 73529, Note_on_c, 15, 47, 0
20, 73530, Note_on_c, 15, 47, 90
20, 73559, Note_on_c, 15, 47, 0
20, 73560, Note_on_c, 15, 47, 90
20, 73589, Note_on_c, 15, 47, 0
20, 73590, Note_on_c, 15, 49, 90
20, 73619, Note_on_c, 15, 49, 0
20, 73620, Note_on_c, 15, 49, 90
20, 73649, Note_on_c, 15, 49, 0
20, 73650, Note_on_c, 15, 47, 90
20, 73679, Note_on_c, 15, 47, 0
20, 73680, Note_on_c, 15, 47, 90
20, 73709, Note_on_c, 15, 47, 0
20, 73710, Note_on_c, 15, 45, 90
20, 73739, Note_on_c, 15, 45, 0
20, 73740, Note_on_c, 15, 45, 90
20, 73769, Note_on_c, 15, 45, 0
20, 73770, Note_on_c, 15, 47, 90
20, 73799, Note_on_c, 15, 47, 0
20, 73800, Note_on_c, 15, 47, 90
20, 73829, Note_on_c, 15, 47, 0
20, 73830, Note_on_c, 15, 49, 90
20, 73859, Note_on_c, 15, 49, 0
20, 73860, Note_on_c, 15, 49, 90
20, 73889, Note_on_c, 15, 49, 0
20, 73890, Note_on_c, 15, 47, 90
20, 73919, Note_on_c, 15, 47, 0
20, 73920, Note_on_c, 15, 47, 90
20, 73949, Note_on_c, 15, 47, 0
20, 73950, Note_on_c, 15, 46, 90
20, 73979, Note_on_c, 15, 46, 0
20, 73980, Note_on_c, 15, 47, 90
20, 74009, Note_on_c, 15, 47, 0
20, 74010, Note_on_c, 15, 45, 90
20, 74039, Note_on_c, 15, 45, 0
20, 74040, Note_on_c, 15, 44, 90
20, 74069, Note_on_c, 15, 44, 0
20, 74070, Note_on_c, 15, 42, 90
20, 74099, Note_on_c, 15, 42, 0
20, 74100, Note_on_c, 15, 40, 90
20, 74159, Note_on_c, 15, 40, 0
20, 74160, Note_on_c, 15, 52, 90
20, 74219, Note_on_c, 15, 52, 0
20, 74220, Note_on_c, 15, 51, 90
20, 74279, Note_on_c, 15, 51, 0
20, 74280, Note_on_c, 15, 49, 90
20, 74339, Note_on_c, 15, 49, 0
20, 74340, Note_on_c, 15, 51, 90
20, 74369, Note_on_c, 15, 51, 0
20, 74370, Note_on_c, 15, 47, 90
20, 74399, Note_on_c, 15, 47, 0
20, 74400, Note_on_c, 15, 49, 90
20, 74429, Note_on_c, 15, 49, 0
20, 74430, Note_on_c, 15, 51, 90
20, 74459, Note_on_c, 15, 51, 0
20, 74460, Note_on_c, 15, 52, 90
20, 74519, Note_on_c, 15, 52, 0
20, 74520, Note_on_c, 15, 59, 90
20, 74579, Note_on_c, 15, 59, 0
20, 74580, Note_on_c, 15, 47, 90
20, 74639, Note_on_c, 15, 47, 0
20, 74640, Note_on_c, 15, 40, 90
20, 74699, Note_on_c, 15, 40, 0
20, 74700, Note_on_c, 15, 44, 90
20, 74759, Note_on_c, 15, 44, 0
20, 74760, Note_on_c, 15, 47, 90
20, 74819, Note_on_c, 15, 47, 0
20, 74820, Note_on_c, 15, 52, 90
20, 74879, Note_on_c, 15, 52, 0
20, 74880, Note_on_c, 15, 51, 90
20, 74939, Note_on_c, 15, 51, 0
20, 74940, Note_on_c, 15, 53, 90
20, 74999, Note_on_c, 15, 53, 0
20, 75000, Note_on_c, 15, 54, 90
20, 75029, Note_on_c, 15, 54, 0
20, 75030, Note_on_c, 15, 42, 90
20, 75059, Note_on_c, 15, 42, 0
20, 75060, Note_on_c, 15, 42, 90
20, 75089, Note_on_c, 15, 42, 0
20, 75090, Note_on_c, 15, 44, 90
20, 75119, Note_on_c, 15, 44, 0
20, 75120, Note_on_c, 15, 44, 90
20, 75149, Note_on_c, 15, 44, 0
20, 75150, Note_on_c, 15, 45, 90
20, 75179, Note_on_c, 15, 45, 0
20, 75180, Note_on_c, 15, 45, 90
20, 75239, Note_on_c, 15, 45, 0
20, 75240, Note_on_c, 15, 44, 90
20, 75299, Note_on_c, 15, 44, 0
20, 75300, Note_on_c, 15, 46, 90
20, 75359, Note_on_c, 15, 46, 0
20, 75360, Note_on_c, 15, 47, 90
20, 75389, Note_on_c, 15, 47, 0
20, 75390, Note_on_c, 15, 59, 90
20, 75419, Note_on_c, 15, 59, 0
20, 75420, Note_on_c, 15, 59, 90
20, 75449, Note_on_c, 15, 59, 0
20, 75450, Note_on_c, 15, 57, 90
20, 75479, Note_on_c, 15, 57, 0
20, 75480, Note_on_c, 15, 57, 90
20, 75509, Note_on_c, 15, 57, 0
20, 75510, Note_on_c, 15, 56, 90
20, 75539, Note_on_c, 15, 56, 0
20, 75540, Note_on_c, 15, 57, 90
20, 75599, Note_on_c, 15, 57, 0
20, 75600, Note_on_c, 15, 45, 90
20, 75659, Note_on_c, 15, 45, 0
20, 75660, Note_on_c, 15, 44, 90
20, 75719, Note_on_c, 15, 44, 0
20, 75720, Note_on_c, 15, 42, 90
20, 75779, Note_on_c, 15, 42, 0
20, 75780, Note_on_c, 15, 54, 90
20, 75809, Note_on_c, 15, 54, 0
20, 75810, Note_on_c, 15, 56, 90
20, 75839, Note_on_c, 15, 56, 0
20, 75840, Note_on_c, 15, 57, 90
20, 75869, Note_on_c, 15, 57, 0
20, 75870, Note_on_c, 15, 54, 90
20, 75899, Note_on_c, 15, 54, 0
20, 75900, Note_on_c, 15, 56, 90
20, 75959, Note_on_c, 15, 56, 0
20, 75960, Note_on_c, 15, 44, 90
20, 76019, Note_on_c, 15, 44, 0
20, 76020, Note_on_c, 15, 42, 90
20, 76079, Note_on_c, 15, 42, 0
20, 76080, Note_on_c, 15, 40, 90
20, 76139, Note_on_c, 15, 40, 0
20, 76140, Note_on_c, 15, 52, 90
20, 76169, Note_on_c, 15, 52, 0
20, 76170, Note_on_c, 15, 54, 90
20, 76199, Note_on_c, 15, 54, 0
20, 76200, Note_on_c, 15, 56, 90
20, 76229, Note_on_c, 15, 56, 0
20, 76230, Note_on_c, 15, 52, 90
20, 76259, Note_on_c, 15, 52, 0
20, 76260, Note_on_c, 15, 59, 90
20, 76289, Note_on_c, 15, 59, 0
20, 76290, Note_on_c, 15, 47, 90
20, 76319, Note_on_c, 15, 47, 0
20, 76320, Note_on_c, 15, 47, 90
20, 76349, Note_on_c, 15, 47, 0
20, 76350, Note_on_c, 15, 47, 90
20, 76379, Note_on_c, 15, 47, 0
20, 76380, Note_on_c, 15, 47, 90
20, 76409, Note_on_c, 15, 47, 0
20, 76410, Note_on_c, 15, 47, 90
20, 76439, Note_on_c, 15, 47, 0
20, 76440, Note_on_c, 15, 47, 90
20, 76469, Note_on_c, 15, 47, 0
20, 76470, Note_on_c, 15, 49, 90
20, 76499, Note_on_c, 15, 49, 0
20, 76500, Note_on_c, 15, 49, 90
20, 76529, Note_on_c, 15, 49, 0
20, 76530, Note_on_c, 15, 47, 90
20, 76559, Note_on_c, 15, 47, 0
20, 76560, Note_on_c, 15, 47, 90
20, 76589, Note_on_c, 15, 47, 0
20, 76590, Note_on_c, 15, 45, 90
20, 76619, Note_on_c, 15, 45, 0
20, 76620, Note_on_c, 15, 45, 90
20, 76649, Note_on_c, 15, 45, 0
20, 76650, Note_on_c, 15, 47, 90
20, 76679, Note_on_c, 15, 47, 0
20, 76680, Note_on_c, 15, 47, 90
20, 76709, Note_on_c, 15, 47, 0
20, 76710, Note_on_c, 15, 49, 90
20, 76739, Note_on_c, 15, 49, 0
20, 76740, Note_on_c, 15, 49, 90
20, 76769, Note_on_c, 15, 49, 0
20, 76770, Note_on_c, 15, 47, 90
20, 76799, Note_on_c, 15, 47, 0
20, 76800, Note_on_c, 15, 47, 90
20, 76829, Note_on_c, 15, 47, 0
20, 76830, Note_on_c, 15, 46, 90
20, 76859, Note_on_c, 15, 46, 0
20, 76860, Note_on_c, 15, 47, 90
20, 76889, Note_on_c, 15, 47, 0
20, 76890, Note_on_c, 15, 45, 90
20, 76919, Note_on_c, 15, 45, 0
20, 76920, Note_on_c, 15, 44, 90
20, 76949, Note_on_c, 15, 44, 0
20, 76950, Note_on_c, 15, 42, 90
20, 76979, Note_on_c, 15, 42, 0
20, 76980, Note_on_c, 15, 40, 90
20, 77039, Note_on_c, 15, 40, 0
20, 77040, Note_on_c, 15, 52, 90
20, 77099, Note_on_c, 15, 52, 0
20, 77100, Note_on_c, 15, 51, 90
20, 77159, Note_on_c, 15, 51, 0
20, 77160, Note_on_c, 15, 49, 90
20, 77219, Note_on_c, 15, 49, 0
20, 77220, Note_on_c, 15, 51, 90
20, 77249, Note_on_c, 15, 51, 0
20, 77250, Note_on_c, 15, 49, 90
20, 77279, Note_on_c, 15, 49, 0
20, 77280, Note_on_c, 15, 51, 90
20, 77309, Note_on_c, 15, 51, 0
20, 77310, Note_on_c, 15, 47, 90
20, 77339, Note_on_c, 15, 47, 0
20, 77340, Note_on_c, 15, 52, 90
20, 77399, Note_on_c, 15, 52, 0
20, 77400, Note_on_c, 15, 59, 90
20, 77459, Note_on_c, 15, 59, 0
20, 77460, Note_on_c, 15, 47, 90
20, 77519, Note_on_c, 15, 47, 0
20, 77520, Note_on_c, 15, 52, 90
20, 77549, Note_on_c, 15, 52, 0
20, 77550, Note_on_c, 15, 40, 90
20, 77579, Note_on_c, 15, 40, 0
20, 77580, Note_on_c, 15, 40, 90
20, 77609, Note_on_c, 15, 40, 0
20, 77610, Note_on_c, 15, 40, 90
20, 77639, Note_on_c, 15, 40, 0
20, 77640, Note_on_c, 15, 40, 90
20, 77669, Note_on_c, 15, 40, 0
20, 77670, Note_on_c, 15, 40, 90
20, 77699, Note_on_c, 15, 40, 0
20, 77700, Note_on_c, 15, 40, 90
20, 77759, Note_on_c, 15, 40, 0
20, 77760, Note_on_c, 15, 52, 90
20, 77789, Note_on_c, 15, 52, 0
20, 77790, Note_on_c, 15, 54, 90
20, 77819, Note_on_c, 15, 54, 0
20, 77820, Note_on_c, 15, 56, 90
20, 77849, Note_on_c, 15, 56, 0
20, 77850, Note_on_c, 15, 52, 90
20, 77879, Note_on_c, 15, 52, 0
20, 77880, Note_on_c, 15, 57, 90
20, 77909, Note_on_c, 15, 57, 0
20, 77910, Note_on_c, 15, 45, 90
20, 77939, Note_on_c, 15, 45, 0
20, 77940, Note_on_c, 15, 45, 90
20, 77969, Note_on_c, 15, 45, 0
20, 77970, Note_on_c, 15, 45, 90
20, 77999, Note_on_c, 15, 45, 0
20, 78000, Note_on_c, 15, 45, 90
20, 78029, Note_on_c, 15, 45, 0
20, 78030, Note_on_c, 15, 45, 90
20, 78059, Note_on_c, 15, 45, 0
20, 78060, Note_on_c, 15, 45, 90
20, 78119, Note_on_c, 15, 45, 0
20, 78120, Note_on_c, 15, 56, 90
20, 78149, Note_on_c, 15, 56, 0
20, 78150, Note_on_c, 15, 57, 90
20, 78179, Note_on_c, 15, 57, 0
20, 78180, Note_on_c, 15, 59, 90
20, 78209, Note_on_c, 15, 59, 0
20, 78210, Note_on_c, 15, 56, 90
20, 78239, Note_on_c, 15, 56, 0
20, 78240, Note_on_c, 15, 62, 90
20, 78299, Note_on_c, 15, 62, 0
20, 78300, Note_on_c, 15, 50, 90
20, 78359, Note_on_c, 15, 50, 0
20, 78360, Note_on_c, 15, 46, 90
20, 78419, Note_on_c, 15, 46, 0
20, 78420, Note_on_c, 15, 47, 90
20, 78479, Note_on_c, 15, 47, 0
20, 78480, Note_on_c, 15, 45, 90
20, 78539, Note_on_c, 15, 45, 0
20, 78540, Note_on_c, 15, 44, 90
20, 78599, Note_on_c, 15, 44, 0
20, 78600, Note_on_c, 15, 45, 90
20, 78659, Note_on_c, 15, 45, 0
20, 78660, Note_on_c, 15, 49, 90
20, 78719, Note_on_c, 15, 49, 0
20, 78720, Note_on_c, 15, 52, 90
20, 78779, Note_on_c, 15, 52, 0
20, 78780, Note_on_c, 15, 57, 90
20, 78839, Note_on_c, 15, 57, 0
20, 78840, Note_on_c, 15, 54, 90
20, 78899, Note_on_c, 15, 54, 0
20, 78900, Note_on_c, 15, 50, 90
20, 78959, Note_on_c, 15, 50, 0
20, 78960, Note_on_c, 15, 51, 90
20, 78989, Note_on_c, 15, 51, 0
20, 78990, Note_on_c, 15, 39, 90
20, 79019, Note_on_c, 15, 39, 0
20, 79020, Note_on_c, 15, 39, 90
20, 79049, Note_on_c, 15, 39, 0
20, 79050, Note_on_c, 15, 39, 90
20, 79079, Note_on_c, 15, 39, 0
20, 79080, Note_on_c, 15, 39, 90
20, 79109, Note_on_c, 15, 39, 0
20, 79110, Note_on_c, 15, 39, 90
20, 79139, Note_on_c, 15, 39, 0
20, 79140, Note_on_c, 15, 40, 90
20, 79198, Note_on_c, 15, 40, 0
20, 79200, Note_on_c, 15, 44, 90
20, 79258, Note_on_c, 15, 44, 0
20, 79260, Note_on_c, 15, 40, 90
20, 79318, Note_on_c, 15, 40, 0
20, 79320, Note_on_c, 15, 45, 90
20, 79378, Note_on_c, 15, 45, 0
20, 79380, Note_on_c, 15, 49, 90
20, 79438, Note_on_c, 15, 49, 0
20, 79440, Note_on_c, 15, 54, 90
20, 79498, Note_on_c, 15, 54, 0
20, 79500, Note_on_c, 15, 52, 90
20, 79558, Note_on_c, 15, 52, 0
20, 79560, Note_on_c, 15, 50, 90
20, 79618, Note_on_c, 15, 50, 0
20, 79620, Note_on_c, 15, 49, 90
20, 79678, Note_on_c, 15, 49, 0
20, 79680, Note_on_c, 15, 47, 90
20, 79738, Note_on_c, 15, 47, 0
20, 79740, Note_on_c, 15, 42, 90
20, 79769, Note_on_c, 15, 42, 0
20, 79770, Note_on_c, 15, 44, 90
20, 79799, Note_on_c, 15, 44, 0
20, 79800, Note_on_c, 15, 46, 90
20, 79829, Note_on_c, 15, 46, 0
20, 79830, Note_on_c, 15, 42, 90
20, 79859, Note_on_c, 15, 42, 0
20, 79860, Note_on_c, 15, 47, 90
20, 79919, Note_on_c, 15, 47, 0
20, 79920, Note_on_c, 15, 49, 90
20, 79979, Note_on_c, 15, 49, 0
20, 79980, Note_on_c, 15, 50, 90
20, 80039, Note_on_c, 15, 50, 0
20, 80040, Note_on_c, 15, 40, 90
20, 80099, Note_on_c, 15, 40, 0
20, 80100, Note_on_c, 15, 52, 90
20, 80159, Note_on_c, 15, 52, 0
20, 80160, Note_on_c, 15, 50, 90
20, 80219, Note_on_c, 15, 50, 0
20, 80220, Note_on_c, 15, 49, 90
20, 80279, Note_on_c, 15, 49, 0
20, 80280, Note_on_c, 15, 44, 90
20, 80309, Note_on_c, 15, 44, 0
20, 80310, Note_on_c, 15, 45, 90
20, 80339, Note_on_c, 15, 45, 0
20, 80340, Note_on_c, 15, 47, 90
20, 80369, Note_on_c, 15, 47, 0
20, 80370, Note_on_c, 15, 44, 90
20, 80399, Note_on_c, 15, 44, 0
20, 80400, Note_on_c, 15, 45, 90
20, 80459, Note_on_c, 15, 45, 0
20, 80460, Note_on_c, 15, 49, 90
20, 80519, Note_on_c, 15, 49, 0
20, 80520, Note_on_c, 15, 47, 90
20, 80579, Note_on_c, 15, 47, 0
20, 80580, Note_on_c, 15, 45, 90
20, 80639, Note_on_c, 15, 45, 0
20, 80640, Note_on_c, 15, 44, 90
20, 80669, Note_on_c, 15, 44, 0
20, 80670, Note_on_c, 15, 45, 90
20, 80699, Note_on_c, 15, 45, 0
20, 80700, Note_on_c, 15, 47, 90
20, 80729, Note_on_c, 15, 47, 0
20, 80730, Note_on_c, 15, 44, 90
20, 80759, Note_on_c, 15, 44, 0
20, 80760, Note_on_c, 15, 45, 90
20, 80789, Note_on_c, 15, 45, 0
20, 80790, Note_on_c, 15, 40, 90
20, 80819, Note_on_c, 15, 40, 0
20, 80820, Note_on_c, 15, 40, 90
20, 80849, Note_on_c, 15, 40, 0
20, 80850, Note_on_c, 15, 40, 90
20, 80879, Note_on_c, 15, 40, 0
20, 80880, Note_on_c, 15, 40, 90
20, 80909, Note_on_c, 15, 40, 0
20, 80910, Note_on_c, 15, 40, 90
20, 80939, Note_on_c, 15, 40, 0
20, 80940, Note_on_c, 15, 40, 90
20, 80999, Note_on_c, 15, 40, 0
20, 81000, Note_on_c, 15, 52, 90
20, 81029, Note_on_c, 15, 52, 0
20, 81030, Note_on_c, 15, 54, 90
20, 81059, Note_on_c, 15, 54, 0
20, 81060, Note_on_c, 15, 56, 90
20, 81089, Note_on_c, 15, 56, 0
20, 81090, Note_on_c, 15, 52, 90
20, 81119, Note_on_c, 15, 52, 0
20, 81120, Note_on_c, 15, 57, 90
20, 81179, Note_on_c, 15, 57, 0
20, 81180, Note_on_c, 15, 45, 90
20, 81239, Note_on_c, 15, 45, 0
20, 81240, Note_on_c, 15, 44, 90
20, 81299, Note_on_c, 15, 44, 0
20, 81300, Note_on_c, 15, 42, 90
20, 81359, Note_on_c, 15, 42, 0
20, 81360, Note_on_c, 15, 54, 90
20, 81419, Note_on_c, 15, 54, 0
20, 81420, Note_on_c, 15, 49, 90
20, 81479, Note_on_c, 15, 49, 0
20, 81480, Note_on_c, 15, 50, 90
20, 81539, Note_on_c, 15, 50, 0
20, 81540, Note_on_c, 15, 62, 90
20, 81599, Note_on_c, 15, 62, 0
20, 81600, Note_on_c, 15, 61, 90
20, 81659, Note_on_c, 15, 61, 0
20, 81660, Note_on_c, 15, 59, 90
20, 81719, Note_on_c, 15, 59, 0
20, 81720, Note_on_c, 15, 47, 90
20, 81749, Note_on_c, 15, 47, 0
20, 81750, Note_on_c, 15, 49, 90
20, 81779, Note_on_c, 15, 49, 0
20, 81780, Note_on_c, 15, 50, 90
20, 81809, Note_on_c, 15, 50, 0
20, 81810, Note_on_c, 15, 47, 90
20, 81839, Note_on_c, 15, 47, 0
20, 81840, Note_on_c, 15, 52, 90
20, 81899, Note_on_c, 15, 52, 0
20, 81900, Note_on_c, 15, 44, 90
20, 81959, Note_on_c, 15, 44, 0
20, 81960, Note_on_c, 15, 42, 90
20, 82019, Note_on_c, 15, 42, 0
20, 82020, Note_on_c, 15, 40, 90
20, 82079, Note_on_c, 15, 40, 0
20, 82080, Note_on_c, 15, 44, 90
20, 82139, Note_on_c, 15, 44, 0
20, 82140, Note_on_c, 15, 40, 90
20, 82199, Note_on_c, 15, 40, 0
20, 82200, Note_on_c, 15, 45, 90
20, 82319, Note_on_c, 15, 45, 0
20, 82440, Note_on_c, 15, 45, 90
20, 82469, Note_on_c, 15, 45, 0
20, 82470, Note_on_c, 15, 47, 90
20, 82499, Note_on_c, 15, 47, 0
20, 82500, Note_on_c, 15, 49, 90
20, 82529, Note_on_c, 15, 49, 0
20, 82530, Note_on_c, 15, 45, 90
20, 82559, Note_on_c, 15, 45, 0
20, 82560, Note_on_c, 15, 50, 90
20, 82619, Note_on_c, 15, 50, 0
20, 82620, Note_on_c, 15, 47, 90
20, 82679, Note_on_c, 15, 47, 0
20, 82680, Note_on_c, 15, 54, 90
20, 82739, Note_on_c, 15, 54, 0
20, 82740, Note_on_c, 15, 59, 90
20, 82799, Note_on_c, 15, 59, 0
20, 82800, Note_on_c, 15, 47, 90
20, 82829, Note_on_c, 15, 47, 0
20, 82830, Note_on_c, 15, 49, 90
20, 82859, Note_on_c, 15, 49, 0
20, 82860, Note_on_c, 15, 50, 90
20, 82889, Note_on_c, 15, 50, 0
20, 82890, Note_on_c, 15, 47, 90
20, 82919, Note_on_c, 15, 47, 0
20, 82920, Note_on_c, 15, 49, 90
20, 82979, Note_on_c, 15, 49, 0
20, 82980, Note_on_c, 15, 45, 90
20, 83039, Note_on_c, 15, 45, 0
20, 83040, Note_on_c, 15, 52, 90
20, 83099, Note_on_c, 15, 52, 0
20, 83100, Note_on_c, 15, 57, 90
20, 83159, Note_on_c, 15, 57, 0
20, 83160, Note_on_c, 15, 45, 90
20, 83189, Note_on_c, 15, 45, 0
20, 83190, Note_on_c, 15, 47, 90
20, 83219, Note_on_c, 15, 47, 0
20, 83220, Note_on_c, 15, 49, 90
20, 83249, Note_on_c, 15, 49, 0
20, 83250, Note_on_c, 15, 45, 90
20, 83279, Note_on_c, 15, 45, 0
20, 83280, Note_on_c, 15, 40, 90
20, 83309, Note_on_c, 15, 40, 0
20, 83310, Note_on_c, 15, 52, 90
20, 83339, Note_on_c, 15, 52, 0
20, 83340, Note_on_c, 15, 52, 90
20, 83369, Note_on_c, 15, 52, 0
20, 83370, Note_on_c, 15, 52, 90
20, 83399, Note_on_c, 15, 52, 0
20, 83400, Note_on_c, 15, 52, 90
20, 83429, Note_on_c, 15, 52, 0
20, 83430, Note_on_c, 15, 52, 90
20, 83459, Note_on_c, 15, 52, 0
20, 83460, Note_on_c, 15, 52, 90
20, 83489, Note_on_c, 15, 52, 0
20, 83490, Note_on_c, 15, 54, 90
20, 83519, Note_on_c, 15, 54, 0
20, 83520, Note_on_c, 15, 54, 90
20, 83549, Note_on_c, 15, 54, 0
20, 83550, Note_on_c, 15, 52, 90
20, 83579, Note_on_c, 15, 52, 0
20, 83580, Note_on_c, 15, 52, 90
20, 83609, Note_on_c, 15, 52, 0
20, 83610, Note_on_c, 15, 50, 90
20, 83639, Note_on_c, 15, 50, 0
20, 83640, Note_on_c, 15, 50, 90
20, 83669, Note_on_c, 15, 50, 0
20, 83670, Note_on_c, 15, 52, 90
20, 83699, Note_on_c, 15, 52, 0
20, 83700, Note_on_c, 15, 52, 90
20, 83729, Note_on_c, 15, 52, 0
20, 83730, Note_on_c, 15, 54, 90
20, 83759, Note_on_c, 15, 54, 0
20, 83760, Note_on_c, 15, 54, 90
20, 83789, Note_on_c, 15, 54, 0
20, 83790, Note_on_c, 15, 52, 90
20, 83819, Note_on_c, 15, 52, 0
20, 83820, Note_on_c, 15, 52, 90
20, 83849, Note_on_c, 15, 52, 0
20, 83850, Note_on_c, 15, 51, 90
20, 83879, Note_on_c, 15, 51, 0
20, 83880, Note_on_c, 15, 52, 90
20, 83909, Note_on_c, 15, 52, 0
20, 83910, Note_on_c, 15, 50, 90
20, 83939, Note_on_c, 15, 50, 0
20, 83940, Note_on_c, 15, 49, 90
20, 83969, Note_on_c, 15, 49, 0
20, 83970, Note_on_c, 15, 47, 90
20, 83999, Note_on_c, 15, 47, 0
20, 84000, Note_on_c, 15, 45, 90
20, 84059, Note_on_c, 15, 45, 0
20, 84060, Note_on_c, 15, 57, 90
20, 84119, Note_on_c, 15, 57, 0
20, 84120, Note_on_c, 15, 56, 90
20, 84179, Note_on_c, 15, 56, 0
20, 84180, Note_on_c, 15, 54, 90
20, 84239, Note_on_c, 15, 54, 0
20, 84240, Note_on_c, 15, 56, 90
20, 84269, Note_on_c, 15, 56, 0
20, 84270, Note_on_c, 15, 52, 90
20, 84299, Note_on_c, 15, 52, 0
20, 84300, Note_on_c, 15, 54, 90
20, 84329, Note_on_c, 15, 54, 0
20, 84330, Note_on_c, 15, 56, 90
20, 84359, Note_on_c, 15, 56, 0
20, 84360, Note_on_c, 15, 57, 90
20, 84419, Note_on_c, 15, 57, 0
20, 84420, Note_on_c, 15, 52, 90
20, 84479, Note_on_c, 15, 52, 0
20, 84480, Note_on_c, 15, 40, 90
20, 84539, Note_on_c, 15, 40, 0
20, 84540, Note_on_c, 15, 45, 90
20, 84599, Note_on_c, 15, 45, 0
20, 84600, Note_on_c, 15, 49, 90
20, 84659, Note_on_c, 15, 49, 0
20, 84660, Note_on_c, 15, 52, 90
20, 84719, Note_on_c, 15, 52, 0
20, 84720, Note_on_c, 15, 57, 90
20, 84779, Note_on_c, 15, 57, 0
20, 84780, Note_on_c, 15, 61, 90
20, 84839, Note_on_c, 15, 61, 0
20, 84840, Note_on_c, 15, 59, 90
20, 84899, Note_on_c, 15, 59, 0
20, 84900, Note_on_c, 15, 57, 90
20, 84959, Note_on_c, 15, 57, 0
20, 84960, Note_on_c, 15, 52, 90
20, 84989, Note_on_c, 15, 52, 0
20, 84990, Note_on_c, 15, 54, 90
20, 85019, Note_on_c, 15, 54, 0
20, 85020, Note_on_c, 15, 56, 90
20, 85049, Note_on_c, 15, 56, 0
20, 85050, Note_on_c, 15, 52, 90
20, 85079, Note_on_c, 15, 52, 0
20, 85080, Note_on_c, 15, 57, 90
20, 85139, Note_on_c, 15, 57, 0
20, 85140, Note_on_c, 15, 49, 90
20, 85199, Note_on_c, 15, 49, 0
20, 85200, Note_on_c, 15, 52, 90
20, 85259, Note_on_c, 15, 52, 0
20, 85260, Note_on_c, 15, 45, 90
20, 85319, Note_on_c, 15, 45, 0
20, 85320, Note_on_c, 15, 52, 90
20, 85349, Note_on_c, 15, 52, 0
20, 85350, Note_on_c, 15, 54, 90
20, 85379, Note_on_c, 15, 54, 0
20, 85380, Note_on_c, 15, 56, 90
20, 85409, Note_on_c, 15, 56, 0
20, 85410, Note_on_c, 15, 52, 90
20, 85439, Note_on_c, 15, 52, 0
20, 85440, Note_on_c, 15, 57, 90
20, 85499, Note_on_c, 15, 57, 0
20, 85500, Note_on_c, 15, 45, 90
20, 85559, Note_on_c, 15, 45, 0
20, 85560, Note_on_c, 15, 41, 90
20, 85619, Note_on_c, 15, 41, 0
20, 85620, Note_on_c, 15, 42, 90
20, 85679, Note_on_c, 15, 42, 0
20, 85680, Note_on_c, 15, 54, 90
20, 85739, Note_on_c, 15, 54, 0
20, 85740, Note_on_c, 15, 49, 90
20, 85799, Note_on_c, 15, 49, 0
20, 85800, Note_on_c, 15, 50, 90
20, 85859, Note_on_c, 15, 50, 0
20, 85860, Note_on_c, 15, 62, 90
20, 85919, Note_on_c, 15, 62, 0
20, 85920, Note_on_c, 15, 58, 90
20, 85979, Note_on_c, 15, 58, 0
20, 85980, Note_on_c, 15, 59, 90
20, 86039, Note_on_c, 15, 59, 0
20, 86040, Note_on_c, 15, 47, 90
20, 86099, Note_on_c, 15, 47, 0
20, 86100, Note_on_c, 15, 42, 90
20, 86159, Note_on_c, 15, 42, 0
20, 86160, Note_on_c, 15, 44, 90
20, 86174, Note_on_c, 15, 44, 0
20, 86175, Note_on_c, 15, 45, 90
20, 86189, Note_on_c, 15, 45, 0
20, 86190, Note_on_c, 15, 47, 90
20, 86219, Note_on_c, 15, 47, 0
20, 86220, Note_on_c, 15, 40, 90
20, 86235, Note_on_c, 15, 40, 0
20, 86250, Note_on_c, 15, 40, 90
20, 86265, Note_on_c, 15, 40, 0
20, 86280, Note_on_c, 15, 40, 90
20, 86295, Note_on_c, 15, 40, 0
20, 86310, Note_on_c, 15, 40, 90
20, 86325, Note_on_c, 15, 40, 0
20, 86340, Note_on_c, 15, 40, 90
20, 86369, Note_on_c, 15, 40, 0
20, 86370, Note_on_c, 15, 52, 90
20, 86399, Note_on_c, 15, 52, 0
20, 86400, Note_on_c, 15, 52, 90
20, 86429, Note_on_c, 15, 52, 0
20, 86430, Note_on_c, 15, 52, 90
20, 86459, Note_on_c, 15, 52, 0
20, 86460, Note_on_c, 15, 52, 90
20, 86489, Note_on_c, 15, 52, 0
20, 86490, Note_on_c, 15, 52, 90
20, 86519, Note_on_c, 15, 52, 0
20, 86520, Note_on_c, 15, 52, 90
20, 86549, Note_on_c, 15, 52, 0
20, 86550, Note_on_c, 15, 54, 90
20, 86579, Note_on_c, 15, 54, 0
20, 86580, Note_on_c, 15, 54, 90
20, 86609, Note_on_c, 15, 54, 0
20, 86610, Note_on_c, 15, 52, 90
20, 86639, Note_on_c, 15, 52, 0
20, 86640, Note_on_c, 15, 52, 90
20, 86669, Note_on_c, 15, 52, 0
20, 86670, Note_on_c, 15, 50, 90
20, 86699, Note_on_c, 15, 50, 0
20, 86700, Note_on_c, 15, 50, 90
20, 86729, Note_on_c, 15, 50, 0
20, 86730, Note_on_c, 15, 52, 90
20, 86759, Note_on_c, 15, 52, 0
20, 86760, Note_on_c, 15, 52, 90
20, 86789, Note_on_c, 15, 52, 0
20, 86790, Note_on_c, 15, 54, 90
20, 86819, Note_on_c, 15, 54, 0
20, 86820, Note_on_c, 15, 54, 90
20, 86849, Note_on_c, 15, 54, 0
20, 86850, Note_on_c, 15, 52, 90
20, 86879, Note_on_c, 15, 52, 0
20, 86880, Note_on_c, 15, 52, 90
20, 86909, Note_on_c, 15, 52, 0
20, 86910, Note_on_c, 15, 51, 90
20, 86939, Note_on_c, 15, 51, 0
20, 86940, Note_on_c, 15, 52, 90
20, 86969, Note_on_c, 15, 52, 0
20, 86970, Note_on_c, 15, 50, 90
20, 86999, Note_on_c, 15, 50, 0
20, 87000, Note_on_c, 15, 49, 90
20, 87029, Note_on_c, 15, 49, 0
20, 87030, Note_on_c, 15, 47, 90
20, 87059, Note_on_c, 15, 47, 0
20, 87060, Note_on_c, 15, 45, 90
20, 87119, Note_on_c, 15, 45, 0
20, 87120, Note_on_c, 15, 57, 90
20, 87179, Note_on_c, 15, 57, 0
20, 87180, Note_on_c, 15, 56, 90
20, 87239, Note_on_c, 15, 56, 0
20, 87240, Note_on_c, 15, 54, 90
20, 87299, Note_on_c, 15, 54, 0
20, 87300, Note_on_c, 15, 56, 90
20, 87329, Note_on_c, 15, 56, 0
20, 87330, Note_on_c, 15, 54, 90
20, 87359, Note_on_c, 15, 54, 0
20, 87360, Note_on_c, 15, 56, 90
20, 87389, Note_on_c, 15, 56, 0
20, 87390, Note_on_c, 15, 52, 90
20, 87419, Note_on_c, 15, 52, 0
20, 87420, Note_on_c, 15, 57, 90
20, 87479, Note_on_c, 15, 57, 0
20, 87480, Note_on_c, 15, 64, 90
20, 87539, Note_on_c, 15, 64, 0
20, 87540, Note_on_c, 15, 52, 90
20, 87599, Note_on_c, 15, 52, 0
20, 87600, Note_on_c, 15, 57, 110
20, 87719, Note_on_c, 15, 57, 0
20, 87780, Note_on_c, 15, 42, 100
20, 89280, Note_on_c, 15, 42, 0
20, 89280, Note_on_c, 15, 49, 100
20, 89310, Note_on_c, 15, 49, 0
20, 89310, Note_on_c, 15, 47, 100
20, 89340, Note_on_c, 15, 47, 0
20, 89340, Note_on_c, 15, 45, 100
20, 89370, Note_on_c, 15, 45, 0
20, 89370, Note_on_c, 15, 49, 100
20, 89400, Note_on_c, 15, 49, 0
20, 89400, Note_on_c, 15, 42, 100
20, 89430, Note_on_c, 15, 42, 0
20, 89430, Note_on_c, 15, 45, 100
20, 89460, Note_on_c, 15, 45, 0
20, 89460, Note_on_c, 15, 39, 100
20, 89940, Note_on_c, 15, 39, 0
20, 89940, Note_on_c, 15, 44, 100
20, 91140, Note_on_c, 15, 44, 0
20, 91140, Note_on_c, 15, 45, 100
20, 91200, Note_on_c, 15, 45, 0
20, 91200, Note_on_c, 15, 52, 100
20, 91230, Note_on_c, 15, 52, 0
20, 91230, Note_on_c, 15, 50, 100
20, 91260, Note_on_c, 15, 50, 0
20, 91260, Note_on_c, 15, 49, 100
20, 91290, Note_on_c, 15, 49, 0
20, 91290, Note_on_c, 15, 52, 100
20, 91320, Note_on_c, 15, 52, 0
20, 91320, Note_on_c, 15, 45, 100
20, 91350, Note_on_c, 15, 45, 0
20, 91350, Note_on_c, 15, 49, 100
20, 91380, Note_on_c, 15, 49, 0
20, 91380, Note_on_c, 15, 42, 100
20, 92340, Note_on_c, 15, 42, 0
20, 92340, Note_on_c, 15, 51, 100
20, 92820, Note_on_c, 15, 51, 0
20, 92820, Note_on_c, 15, 52, 100
20, 92940, Note_on_c, 15, 52, 0
20, 92940, Note_on_c, 15, 55, 100
20, 93060, Note_on_c, 15, 55, 0
20, 93060, Note_on_c, 15, 59, 100
20, 93180, Note_on_c, 15, 59, 0
20, 93180, Note_on_c, 15, 52, 100
20, 93300, Note_on_c, 15, 52, 0
20, 93300, Note_on_c, 15, 46, 100
20, 93780, Note_on_c, 15, 46, 0
20, 93780, Note_on_c, 15, 47, 100
20, 93840, Note_on_c, 15, 47, 0
20, 93840, Note_on_c, 15, 54, 90
20, 93869, Note_on_c, 15, 54, 0
20, 93870, Note_on_c, 15, 52, 90
20, 93899, Note_on_c, 15, 52, 0
20, 93900, Note_on_c, 15, 50, 90
20, 93929, Note_on_c, 15, 50, 0
20, 93930, Note_on_c, 15, 54, 90
20, 93959, Note_on_c, 15, 54, 0
20, 93960, Note_on_c, 15, 47, 90
20, 93989, Note_on_c, 15, 47, 0
20, 93990, Note_on_c, 15, 50, 90
20, 94019, Note_on_c, 15, 50, 0
20, 94020, Note_on_c, 15, 44, 90
20, 94079, Note_on_c, 15, 44, 0
20, 94080, Note_on_c, 15, 44, 90
20, 94139, Note_on_c, 15, 44, 0
20, 94140, Note_on_c, 15, 43, 90
20, 94199, Note_on_c, 15, 43, 0
20, 94200, Note_on_c, 15, 42, 90
20, 94259, Note_on_c, 15, 42, 0
20, 94260, Note_on_c, 15, 41, 90
20, 94379, Note_on_c, 15, 41, 0
20, 94500, Note_on_c, 15, 42, 90
20, 94619, Note_on_c, 15, 42, 0
20, 94620, Note_on_c, 15, 47, 90
20, 94739, Note_on_c, 15, 47, 0
20, 94980, Note_on_c, 15, 47, 90
20, 95039, Note_on_c, 15, 47, 0
20, 95100, Note_on_c, 15, 40, 90
20, 95159, Note_on_c, 15, 40, 0
20, 95220, Note_on_c, 15, 47, 90
20, 95279, Note_on_c, 15, 47, 0
20, 95340, Note_on_c, 15, 50, 90
20, 95399, Note_on_c, 15, 50, 0
20, 95460, Note_on_c, 15, 49, 90
20, 95519, Note_on_c, 15, 49, 0
20, 95580, Note_on_c, 15, 47, 90
20, 95639, Note_on_c, 15, 47, 0
20, 95700, Note_on_c, 15, 54, 90
20, 95759, Note_on_c, 15, 54, 0
20, 95820, Note_on_c, 15, 52, 90
20, 95879, Note_on_c, 15, 52, 0
20, 95940, Note_on_c, 15, 51, 90
20, 95999, Note_on_c, 15, 51, 0
20, 96000, Note_on_c, 15, 54, 90
20, 96059, Note_on_c, 15, 54, 0
20, 96060, Note_on_c, 15, 57, 90
20, 96240, Note_on_c, 15, 57, 0
20, 96240, Note_on_c, 15, 55, 90
20, 96269, Note_on_c, 15, 55, 0
20, 96270, Note_on_c, 15, 54, 90
20, 96299, Note_on_c, 15, 54, 0
20, 96300, Note_on_c, 15, 55, 90
20, 96329, Note_on_c, 15, 55, 0
20, 96330, Note_on_c, 15, 54, 90
20, 96359, Note_on_c, 15, 54, 0
20, 96360, Note_on_c, 15, 52, 90
20, 96389, Note_on_c, 15, 52, 0
20, 96390, Note_on_c, 15, 50, 90
20, 96419, Note_on_c, 15, 50, 0
20, 96420, Note_on_c, 15, 49, 90
20, 96479, Note_on_c, 15, 49, 0
20, 96480, Note_on_c, 15, 52, 90
20, 96539, Note_on_c, 15, 52, 0
20, 96540, Note_on_c, 15, 55, 90
20, 96719, Note_on_c, 15, 55, 0
20, 96720, Note_on_c, 15, 54, 90
20, 96749, Note_on_c, 15, 54, 0
20, 96750, Note_on_c, 15, 52, 90
20, 96779, Note_on_c, 15, 52, 0
20, 96780, Note_on_c, 15, 54, 90
20, 96809, Note_on_c, 15, 54, 0
20, 96810, Note_on_c, 15, 52, 90
20, 96839, Note_on_c, 15, 52, 0
20, 96840, Note_on_c, 15, 50, 90
20, 96869, Note_on_c, 15, 50, 0
20, 96870, Note_on_c, 15, 49, 90
20, 96899, Note_on_c, 15, 49, 0
20, 96900, Note_on_c, 15, 47, 90
20, 96959, Note_on_c, 15, 47, 0
20, 97020, Note_on_c, 15, 52, 90
20, 97079, Note_on_c, 15, 52, 0
20, 97140, Note_on_c, 15, 49, 90
20, 97199, Note_on_c, 15, 49, 0
20, 97260, Note_on_c, 15, 45, 90
20, 97319, Note_on_c, 15, 45, 0
20, 97380, Note_on_c, 15, 50, 90
20, 97439, Note_on_c, 15, 50, 0
20, 97440, Note_on_c, 15, 42, 90
20, 97499, Note_on_c, 15, 42, 0
20, 97500, Note_on_c, 15, 43, 90
20, 97559, Note_on_c, 15, 43, 0
20, 97560, Note_on_c, 15, 45, 90
20, 97619, Note_on_c, 15, 45, 0
20, 97620, Note_on_c, 15, 38, 90
20, 97679, Note_on_c, 15, 38, 0
20, 97680, Note_on_c, 15, 40, 90
20, 97709, Note_on_c, 15, 40, 0
20, 97710, Note_on_c, 15, 42, 90
20, 97739, Note_on_c, 15, 42, 0
20, 97740, Note_on_c, 15, 43, 90
20, 97769, Note_on_c, 15, 43, 0
20, 97770, Note_on_c, 15, 45, 90
20, 97799, Note_on_c, 15, 45, 0
20, 97800, Note_on_c, 15, 47, 90
20, 97829, Note_on_c, 15, 47, 0
20, 97830, Note_on_c, 15, 49, 90
20, 97859, Note_on_c, 15, 49, 0
20, 97860, Note_on_c, 15, 50, 90
20, 97919, Note_on_c, 15, 50, 0
20, 97980, Note_on_c, 15, 38, 90
20, 98039, Note_on_c, 15, 38, 0
20, 98100, Note_on_c, 15, 45, 90
20, 98159, Note_on_c, 15, 45, 0
20, 98220, Note_on_c, 15, 49, 90
20, 98279, Note_on_c, 15, 49, 0
20, 98340, Note_on_c, 15, 54, 90
20, 98399, Note_on_c, 15, 54, 0
20, 98460, Note_on_c, 15, 42, 90
20, 98519, Note_on_c, 15, 42, 0
20, 98580, Note_on_c, 15, 47, 90
20, 98639, Note_on_c, 15, 47, 0
20, 98700, Note_on_c, 15, 50, 90
20, 98759, Note_on_c, 15, 50, 0
20, 98820, Note_on_c, 15, 55, 90
20, 98879, Note_on_c, 15, 55, 0
20, 98940, Note_on_c, 15, 54, 90
20, 98999, Note_on_c, 15, 54, 0
20, 99060, Note_on_c, 15, 52, 90
20, 99119, Note_on_c, 15, 52, 0
20, 99180, Note_on_c, 15, 50, 90
20, 99239, Note_on_c, 15, 50, 0
20, 99300, Note_on_c, 15, 49, 90
20, 99359, Note_on_c, 15, 49, 0
20, 99420, Note_on_c, 15, 47, 90
20, 99479, Note_on_c, 15, 47, 0
20, 99540, Note_on_c, 15, 46, 90
20, 99599, Note_on_c, 15, 46, 0
20, 99660, Note_on_c, 15, 42, 90
20, 99719, Note_on_c, 15, 42, 0
20, 99780, Note_on_c, 15, 47, 90
20, 99839, Note_on_c, 15, 47, 0
20, 99900, Note_on_c, 15, 51, 90
20, 99959, Note_on_c, 15, 51, 0
20, 100020, Note_on_c, 15, 53, 90
20, 100139, Note_on_c, 15, 53, 0
20, 100200, Note_on_c, 15, 49, 90
20, 100259, Note_on_c, 15, 49, 0
20, 100260, Note_on_c, 15, 50, 90
20, 100319, Note_on_c, 15, 50, 0
20, 100320, Note_on_c, 15, 52, 90
20, 100379, Note_on_c, 15, 52, 0
20, 100380, Note_on_c, 15, 54, 90
20, 100439, Note_on_c, 15, 54, 0
20, 100440, Note_on_c, 15, 42, 90
20, 100499, Note_on_c, 15, 42, 0
20, 100500, Note_on_c, 15, 47, 90
20, 100559, Note_on_c, 15, 47, 0
20, 100560, Note_on_c, 15, 59, 90
20, 100619, Note_on_c, 15, 59, 0
20, 100620, Note_on_c, 15, 50, 90
20, 100679, Note_on_c, 15, 50, 0
20, 100680, Note_on_c, 15, 54, 90
20, 100739, Note_on_c, 15, 54, 0
20, 100740, Note_on_c, 15, 47, 90
20, 100799, Note_on_c, 15, 47, 0
20, 100800, Note_on_c, 15, 59, 90
20, 100859, Note_on_c, 15, 59, 0
20, 100860, Note_on_c, 15, 59, 90
20, 100919, Note_on_c, 15, 59, 0
20, 100920, Note_on_c, 15, 59, 90
20, 100979, Note_on_c, 15, 59, 0
20, 100980, Note_on_c, 15, 47, 90
20, 101039, Note_on_c, 15, 47, 0
20, 101040, Note_on_c, 15, 59, 90
20, 101099, Note_on_c, 15, 59, 0
20, 101100, Note_on_c, 15, 50, 90
20, 101159, Note_on_c, 15, 50, 0
20, 101160, Note_on_c, 15, 52, 90
20, 101189, Note_on_c, 15, 52, 0
20, 101190, Note_on_c, 15, 54, 90
20, 101219, Note_on_c, 15, 54, 0
20, 101220, Note_on_c, 15, 52, 90
20, 101279, Note_on_c, 15, 52, 0
20, 101280, Note_on_c, 15, 50, 90
20, 101339, Note_on_c, 15, 50, 0
20, 101340, Note_on_c, 15, 55, 90
20, 101399, Note_on_c, 15, 55, 0
20, 101400, Note_on_c, 15, 52, 90
20, 101459, Note_on_c, 15, 52, 0
20, 101460, Note_on_c, 15, 54, 90
20, 101519, Note_on_c, 15, 54, 0
20, 101580, Note_on_c, 15, 52, 90
20, 101639, Note_on_c, 15, 52, 0
20, 101700, Note_on_c, 15, 51, 90
20, 101759, Note_on_c, 15, 51, 0
20, 101760, Note_on_c, 15, 54, 90
20, 101819, Note_on_c, 15, 54, 0
20, 101820, Note_on_c, 15, 57, 90
20, 101999, Note_on_c, 15, 57, 0
20, 102000, Note_on_c, 15, 55, 90
20, 102029, Note_on_c, 15, 55, 0
20, 102030, Note_on_c, 15, 54, 90
20, 102059, Note_on_c, 15, 54, 0
20, 102060, Note_on_c, 15, 52, 90
20, 102119, Note_on_c, 15, 52, 0
20, 102120, Note_on_c, 15, 50, 90
20, 102179, Note_on_c, 15, 50, 0
20, 102180, Note_on_c, 15, 49, 90
20, 102239, Note_on_c, 15, 49, 0
20, 102240, Note_on_c, 15, 61, 90
20, 102269, Note_on_c, 15, 61, 0
20, 102270, Note_on_c, 15, 59, 90
20, 102299, Note_on_c, 15, 59, 0
20, 102300, Note_on_c, 15, 57, 90
20, 102359, Note_on_c, 15, 57, 0
20, 102360, Note_on_c, 15, 55, 90
20, 102419, Note_on_c, 15, 55, 0
20, 102420, Note_on_c, 15, 54, 90
20, 102479, Note_on_c, 15, 54, 0
20, 102480, Note_on_c, 15, 52, 90
20, 102539, Note_on_c, 15, 52, 0
20, 102540, Note_on_c, 15, 50, 90
20, 102599, Note_on_c, 15, 50, 0
20, 102600, Note_on_c, 15, 49, 90
20, 102659, Note_on_c, 15, 49, 0
20, 102660, Note_on_c, 15, 47, 90
20, 102719, Note_on_c, 15, 47, 0
20, 102780, Note_on_c, 15, 52, 90
20, 102839, Note_on_c, 15, 52, 0
20, 102900, Note_on_c, 15, 45, 90
20, 102959, Note_on_c, 15, 45, 0
20, 103080, Note_on_c, 15, 49, 90
20, 103139, Note_on_c, 15, 49, 0
20, 103140, Note_on_c, 15, 50, 90
20, 103199, Note_on_c, 15, 50, 0
20, 103200, Note_on_c, 15, 42, 90
20, 103259, Note_on_c, 15, 42, 0
20, 103260, Note_on_c, 15, 43, 90
20, 103319, Note_on_c, 15, 43, 0
20, 103320, Note_on_c, 15, 45, 90
20, 103379, Note_on_c, 15, 45, 0
20, 103380, Note_on_c, 15, 38, 90
20, 103439, Note_on_c, 15, 38, 0
20, 103440, Note_on_c, 15, 50, 90
20, 103499, Note_on_c, 15, 50, 0
20, 103500, Note_on_c, 15, 49, 90
20, 103559, Note_on_c, 15, 49, 0
20, 103560, Note_on_c, 15, 47, 90
20, 103619, Note_on_c, 15, 47, 0
20, 103620, Note_on_c, 15, 45, 90
20, 103679, Note_on_c, 15, 45, 0
20, 103680, Note_on_c, 15, 57, 90
20, 103739, Note_on_c, 15, 57, 0
20, 103740, Note_on_c, 15, 57, 90
20, 103799, Note_on_c, 15, 57, 0
20, 103800, Note_on_c, 15, 57, 90
20, 103859, Note_on_c, 15, 57, 0
20, 103860, Note_on_c, 15, 45, 90
20, 103919, Note_on_c, 15, 45, 0
20, 103920, Note_on_c, 15, 57, 90
20, 103979, Note_on_c, 15, 57, 0
20, 103980, Note_on_c, 15, 45, 90
20, 104039, Note_on_c, 15, 45, 0
20, 104040, Note_on_c, 15, 46, 90
20, 104099, Note_on_c, 15, 46, 0
20, 104100, Note_on_c, 15, 47, 90
20, 104159, Note_on_c, 15, 47, 0
20, 104160, Note_on_c, 15, 59, 90
20, 104219, Note_on_c, 15, 59, 0
20, 104220, Note_on_c, 15, 59, 90
20, 104279, Note_on_c, 15, 59, 0
20, 104280, Note_on_c, 15, 59, 90
20, 104339, Note_on_c, 15, 59, 0
20, 104340, Note_on_c, 15, 47, 90
20, 104399, Note_on_c, 15, 47, 0
20, 104400, Note_on_c, 15, 59, 90
20, 104459, Note_on_c, 15, 59, 0
20, 104460, Note_on_c, 15, 47, 90
20, 104489, Note_on_c, 15, 47, 0
20, 104490, Note_on_c, 15, 45, 90
20, 104519, Note_on_c, 15, 45, 0
20, 104520, Note_on_c, 15, 44, 90
20, 104549, Note_on_c, 15, 44, 0
20, 104550, Note_on_c, 15, 42, 90
20, 104579, Note_on_c, 15, 42, 0
20, 104580, Note_on_c, 15, 41, 90
20, 104639, Note_on_c, 15, 41, 0
20, 104700, Note_on_c, 15, 49, 90
20, 104759, Note_on_c, 15, 49, 0
20, 104820, Note_on_c, 15, 54, 90
20, 104879, Note_on_c, 15, 54, 0
20, 104940, Note_on_c, 15, 45, 90
20, 104999, Note_on_c, 15, 45, 0
20, 105060, Note_on_c, 15, 50, 90
20, 105119, Note_on_c, 15, 50, 0
20, 105180, Note_on_c, 15, 47, 90
20, 105239, Note_on_c, 15, 47, 0
20, 105300, Note_on_c, 15, 49, 90
20, 105359, Note_on_c, 15, 49, 0
20, 105360, Note_on_c, 15, 56, 90
20, 105419, Note_on_c, 15, 56, 0
20, 105420, Note_on_c, 15, 53, 90
20, 105479, Note_on_c, 15, 53, 0
20, 105480, Note_on_c, 15, 49, 90
20, 105539, Note_on_c, 15, 49, 0
20, 105540, Note_on_c, 15, 54, 90
20, 105599, Note_on_c, 15, 54, 0
20, 105600, Note_on_c, 15, 42, 90
20, 105659, Note_on_c, 15, 42, 0
20, 105660, Note_on_c, 15, 42, 90
20, 105719, Note_on_c, 15, 42, 0
20, 105720, Note_on_c, 15, 42, 90
20, 105779, Note_on_c, 15, 42, 0
20, 105780, Note_on_c, 15, 54, 90
20, 105839, Note_on_c, 15, 54, 0
20, 105900, Note_on_c, 15, 57, 90
20, 105959, Note_on_c, 15, 57, 0
20, 106020, Note_on_c, 15, 61, 90
20, 106079, Note_on_c, 15, 61, 0
20, 106080, Note_on_c, 15, 49, 90
20, 106139, Note_on_c, 15, 49, 0
20, 106140, Note_on_c, 15, 49, 90
20, 106199, Note_on_c, 15, 49, 0
20, 106200, Note_on_c, 15, 49, 90
20, 106259, Note_on_c, 15, 49, 0
20, 106260, Note_on_c, 15, 61, 90
20, 106319, Note_on_c, 15, 61, 0
20, 106320, Note_on_c, 15, 56, 90
20, 106379, Note_on_c, 15, 56, 0
20, 106380, Note_on_c, 15, 53, 90
20, 106439, Note_on_c, 15, 53, 0
20, 106440, Note_on_c, 15, 56, 90
20, 106499, Note_on_c, 15, 56, 0
20, 106500, Note_on_c, 15, 49, 90
20, 106559, Note_on_c, 15, 49, 0
20, 106620, Note_on_c, 15, 53, 90
20, 106679, Note_on_c, 15, 53, 0
20, 106740, Note_on_c, 15, 54, 90
20, 106799, Note_on_c, 15, 54, 0
20, 106800, Note_on_c, 15, 56, 90
20, 106859, Note_on_c, 15, 56, 0
20, 106860, Note_on_c, 15, 57, 90
20, 106919, Note_on_c, 15, 57, 0
20, 106920, Note_on_c, 15, 59, 90
20, 106979, Note_on_c, 15, 59, 0
20, 106980, Note_on_c, 15, 61, 90
20, 107039, Note_on_c, 15, 61, 0
20, 107040, Note_on_c, 15, 59, 90
20, 107099, Note_on_c, 15, 59, 0
20, 107100, Note_on_c, 15, 58, 90
20, 107159, Note_on_c, 15, 58, 0
20, 107160, Note_on_c, 15, 54, 90
20, 107219, Note_on_c, 15, 54, 0
20, 107220, Note_on_c, 15, 59, 90
20, 107279, Note_on_c, 15, 59, 0
20, 107340, Note_on_c, 15, 57, 90
20, 107399, Note_on_c, 15, 57, 0
20, 107460, Note_on_c, 15, 56, 90
20, 107519, Note_on_c, 15, 56, 0
20, 107580, Note_on_c, 15, 52, 90
20, 107639, Note_on_c, 15, 52, 0
20, 107700, Note_on_c, 15, 57, 90
20, 107759, Note_on_c, 15, 57, 0
20, 107760, Note_on_c, 15, 45, 90
20, 107819, Note_on_c, 15, 45, 0
20, 107820, Note_on_c, 15, 45, 90
20, 107879, Note_on_c, 15, 45, 0
20, 107880, Note_on_c, 15, 57, 90
20, 107939, Note_on_c, 15, 57, 0
20, 107940, Note_on_c, 15, 51, 90
20, 107999, Note_on_c, 15, 51, 0
20, 108000, Note_on_c, 15, 51, 90
20, 108059, Note_on_c, 15, 51, 0
20, 108060, Note_on_c, 15, 51, 90
20, 108119, Note_on_c, 15, 51, 0
20, 108120, Note_on_c, 15, 51, 90
20, 108179, Note_on_c, 15, 51, 0
20, 108180, Note_on_c, 15, 53, 90
20, 108239, Note_on_c, 15, 53, 0
20, 108240, Note_on_c, 15, 54, 90
20, 108299, Note_on_c, 15, 54, 0
20, 108300, Note_on_c, 15, 56, 90
20, 108359, Note_on_c, 15, 56, 0
20, 108360, Note_on_c, 15, 49, 90
20, 108419, Note_on_c, 15, 49, 0
20, 108420, Note_on_c, 15, 54, 90
20, 108479, Note_on_c, 15, 54, 0
20, 108480, Note_on_c, 15, 45, 90
20, 108539, Note_on_c, 15, 45, 0
20, 108540, Note_on_c, 15, 47, 90
20, 108599, Note_on_c, 15, 47, 0
20, 108600, Note_on_c, 15, 49, 90
20, 108659, Note_on_c, 15, 49, 0
20, 108660, Note_on_c, 15, 54, 90
20, 108719, Note_on_c, 15, 54, 0
20, 108780, Note_on_c, 15, 52, 90
20, 108839, Note_on_c, 15, 52, 0
20, 108900, Note_on_c, 15, 50, 90
20, 108959, Note_on_c, 15, 50, 0
20, 109020, Note_on_c, 15, 47, 90
20, 109079, Note_on_c, 15, 47, 0
20, 109140, Note_on_c, 15, 49, 90
20, 109199, Note_on_c, 15, 49, 0
20, 109200, Note_on_c, 15, 47, 90
20, 109259, Note_on_c, 15, 47, 0
20, 109260, Note_on_c, 15, 49, 90
20, 109319, Note_on_c, 15, 49, 0
20, 109320, Note_on_c, 15, 37, 90
20, 109379, Note_on_c, 15, 37, 0
20, 109380, Note_on_c, 15, 42, 90
20, 109439, Note_on_c, 15, 42, 0
20, 109500, Note_on_c, 15, 47, 90
20, 109559, Note_on_c, 15, 47, 0
20, 109620, Note_on_c, 15, 54, 90
20, 109679, Note_on_c, 15, 54, 0
20, 109740, Note_on_c, 15, 57, 90
20, 109799, Note_on_c, 15, 57, 0
20, 109860, Note_on_c, 15, 56, 90
20, 109919, Note_on_c, 15, 56, 0
20, 109980, Note_on_c, 15, 54, 90
20, 110039, Note_on_c, 15, 54, 0
20, 110100, Note_on_c, 15, 61, 90
20, 110159, Note_on_c, 15, 61, 0
20, 110220, Note_on_c, 15, 59, 90
20, 110279, Note_on_c, 15, 59, 0
20, 110340, Note_on_c, 15, 58, 90
20, 110399, Note_on_c, 15, 58, 0
20, 110400, Note_on_c, 15, 61, 90
20, 110459, Note_on_c, 15, 61, 0
20, 110460, Note_on_c, 15, 64, 90
20, 110639, Note_on_c, 15, 64, 0
20, 110640, Note_on_c, 15, 62, 90
20, 110669, Note_on_c, 15, 62, 0
20, 110670, Note_on_c, 15, 61, 90
20, 110699, Note_on_c, 15, 61, 0
20, 110700, Note_on_c, 15, 62, 90
20, 110729, Note_on_c, 15, 62, 0
20, 110730, Note_on_c, 15, 61, 90
20, 110759, Note_on_c, 15, 61, 0
20, 110760, Note_on_c, 15, 59, 90
20, 110789, Note_on_c, 15, 59, 0
20, 110790, Note_on_c, 15, 57, 90
20, 110819, Note_on_c, 15, 57, 0
20, 110820, Note_on_c, 15, 56, 90
20, 110879, Note_on_c, 15, 56, 0
20, 110880, Note_on_c, 15, 59, 90
20, 110939, Note_on_c, 15, 59, 0
20, 110940, Note_on_c, 15, 62, 90
20, 111119, Note_on_c, 15, 62, 0
20, 111120, Note_on_c, 15, 61, 90
20, 111149, Note_on_c, 15, 61, 0
20, 111150, Note_on_c, 15, 59, 90
20, 111179, Note_on_c, 15, 59, 0
20, 111180, Note_on_c, 15, 61, 90
20, 111209, Note_on_c, 15, 61, 0
20, 111210, Note_on_c, 15, 59, 90
20, 111239, Note_on_c, 15, 59, 0
20, 111240, Note_on_c, 15, 57, 90
20, 111269, Note_on_c, 15, 57, 0
20, 111270, Note_on_c, 15, 56, 90
20, 111299, Note_on_c, 15, 56, 0
20, 111300, Note_on_c, 15, 54, 90
20, 111419, Note_on_c, 15, 54, 0
20, 111480, Note_on_c, 15, 59, 90
20, 111539, Note_on_c, 15, 59, 0
20, 111540, Note_on_c, 15, 56, 90
20, 111659, Note_on_c, 15, 56, 0
20, 111720, Note_on_c, 15, 53, 90
20, 111779, Note_on_c, 15, 53, 0
20, 111780, Note_on_c, 15, 54, 90
20, 111839, Note_on_c, 15, 54, 0
20, 111840, Note_on_c, 15, 50, 90
20, 111899, Note_on_c, 15, 50, 0
20, 111900, Note_on_c, 15, 47, 90
20, 111959, Note_on_c, 15, 47, 0
20, 111960, Note_on_c, 15, 49, 90
20, 112019, Note_on_c, 15, 49, 0
20, 112020, Note_on_c, 15, 42, 90
20, 112079, Note_on_c, 15, 42, 0
20, 112080, Note_on_c, 15, 54, 90
20, 112139, Note_on_c, 15, 54, 0
20, 112140, Note_on_c, 15, 57, 90
20, 112199, Note_on_c, 15, 57, 0
20, 112200, Note_on_c, 15, 61, 90
20, 112259, Note_on_c, 15, 61, 0
20, 112260, Note_on_c, 15, 54, 90
20, 112319, Note_on_c, 15, 54, 0
20, 112380, Note_on_c, 15, 52, 90
20, 112439, Note_on_c, 15, 52, 0
20, 112500, Note_on_c, 15, 51, 90
20, 112559, Note_on_c, 15, 51, 0
20, 112560, Note_on_c, 15, 57, 90
20, 112679, Note_on_c, 15, 57, 0
20, 112680, Note_on_c, 15, 55, 90
20, 112709, Note_on_c, 15, 55, 0
20, 112710, Note_on_c, 15, 54, 90
20, 112739, Note_on_c, 15, 54, 0
20, 112740, Note_on_c, 15, 55, 90
20, 112799, Note_on_c, 15, 55, 0
20, 112800, Note_on_c, 15, 57, 90
20, 112859, Note_on_c, 15, 57, 0
20, 112860, Note_on_c, 15, 59, 90
20, 112919, Note_on_c, 15, 59, 0
20, 112920, Note_on_c, 15, 47, 90
20, 112979, Note_on_c, 15, 47, 0
20, 112980, Note_on_c, 15, 52, 90
20, 113039, Note_on_c, 15, 52, 0
20, 113040, Note_on_c, 15, 54, 90
20, 113099, Note_on_c, 15, 54, 0
20, 113100, Note_on_c, 15, 55, 90
20, 113159, Note_on_c, 15, 55, 0
20, 113160, Note_on_c, 15, 54, 90
20, 113219, Note_on_c, 15, 54, 0
20, 113220, Note_on_c, 15, 52, 90
20, 113279, Note_on_c, 15, 52, 0
20, 113280, Note_on_c, 15, 50, 90
20, 113339, Note_on_c, 15, 50, 0
20, 113340, Note_on_c, 15, 49, 90
20, 113399, Note_on_c, 15, 49, 0
20, 113400, Note_on_c, 15, 45, 90
20, 113459, Note_on_c, 15, 45, 0
20, 113460, Note_on_c, 15, 50, 90
20, 113519, Note_on_c, 15, 50, 0
20, 113520, Note_on_c, 15, 52, 90
20, 113579, Note_on_c, 15, 52, 0
20, 113580, Note_on_c, 15, 54, 90
20, 113639, Note_on_c, 15, 54, 0
20, 113640, Note_on_c, 15, 52, 90
20, 113699, Note_on_c, 15, 52, 0
20, 113700, Note_on_c, 15, 54, 90
20, 113759, Note_on_c, 15, 54, 0
20, 113760, Note_on_c, 15, 55, 90
20, 113819, Note_on_c, 15, 55, 0
20, 113820, Note_on_c, 15, 57, 90
20, 113879, Note_on_c, 15, 57, 0
20, 113880, Note_on_c, 15, 45, 90
20, 113939, Note_on_c, 15, 45, 0
20, 113940, Note_on_c, 15, 50, 90
20, 113999, Note_on_c, 15, 50, 0
20, 114060, Note_on_c, 15, 49, 90
20, 114119, Note_on_c, 15, 49, 0
20, 114180, Note_on_c, 15, 47, 90
20, 114239, Note_on_c, 15, 47, 0
20, 114300, Note_on_c, 15, 40, 90
20, 114359, Note_on_c, 15, 40, 0
20, 114420, Note_on_c, 15, 45, 90
20, 114479, Note_on_c, 15, 45, 0
20, 114480, Note_on_c, 15, 47, 90
20, 114539, Note_on_c, 15, 47, 0
20, 114540, Note_on_c, 15, 49, 90
20, 114599, Note_on_c, 15, 49, 0
20, 114600, Note_on_c, 15, 50, 90
20, 114659, Note_on_c, 15, 50, 0
20, 114660, Note_on_c, 15, 45, 90
20, 114719, Note_on_c, 15, 45, 0
20, 114780, Note_on_c, 15, 43, 90
20, 114839, Note_on_c, 15, 43, 0
20, 114900, Note_on_c, 15, 42, 90
20, 114959, Note_on_c, 15, 42, 0
20, 115020, Note_on_c, 15, 54, 90
20, 115079, Note_on_c, 15, 54, 0
20, 115140, Note_on_c, 15, 55, 90
20, 115199, Note_on_c, 15, 55, 0
20, 115200, Note_on_c, 15, 52, 90
20, 115259, Note_on_c, 15, 52, 0
20, 115260, Note_on_c, 15, 49, 90
20, 115319, Note_on_c, 15, 49, 0
20, 115320, Note_on_c, 15, 54, 90
20, 115379, Note_on_c, 15, 54, 0
20, 115380, Note_on_c, 15, 50, 90
20, 115439, Note_on_c, 15, 50, 0
20, 115440, Note_on_c, 15, 49, 90
20, 115499, Note_on_c, 15, 49, 0
20, 115500, Note_on_c, 15, 47, 90
20, 115559, Note_on_c, 15, 47, 0
20, 115560, Note_on_c, 15, 49, 90
20, 115589, Note_on_c, 15, 49, 0
20, 115590, Note_on_c, 15, 50, 90
20, 115619, Note_on_c, 15, 50, 0
20, 115620, Note_on_c, 15, 52, 90
20, 115679, Note_on_c, 15, 52, 0
20, 115680, Note_on_c, 15, 50, 90
20, 115739, Note_on_c, 15, 50, 0
20, 115740, Note_on_c, 15, 49, 90
20, 115799, Note_on_c, 15, 49, 0
20, 115800, Note_on_c, 15, 47, 90
20, 115859, Note_on_c, 15, 47, 0
20, 115860, Note_on_c, 15, 45, 90
20, 115919, Note_on_c, 15, 45, 0
20, 115920, Note_on_c, 15, 57, 90
20, 115979, Note_on_c, 15, 57, 0
20, 115980, Note_on_c, 15, 57, 90
20, 116039, Note_on_c, 15, 57, 0
20, 116040, Note_on_c, 15, 57, 90
20, 116099, Note_on_c, 15, 57, 0
20, 116100, Note_on_c, 15, 57, 90
20, 116159, Note_on_c, 15, 57, 0
20, 116220, Note_on_c, 15, 51, 90
20, 116279, Note_on_c, 15, 51, 0
20, 116340, Note_on_c, 15, 55, 90
20, 116399, Note_on_c, 15, 55, 0
20, 116460, Note_on_c, 15, 48, 90
20, 116519, Note_on_c, 15, 48, 0
20, 116580, Note_on_c, 15, 54, 90
20, 116639, Note_on_c, 15, 54, 0
20, 116700, Note_on_c, 15, 47, 90
20, 116759, Note_on_c, 15, 47, 0
20, 116820, Note_on_c, 15, 52, 90
20, 116879, Note_on_c, 15, 52, 0
20, 116880, Note_on_c, 15, 50, 90
20, 116939, Note_on_c, 15, 50, 0
20, 116940, Note_on_c, 15, 49, 90
20, 116999, Note_on_c, 15, 49, 0
20, 117000, Note_on_c, 15, 47, 90
20, 117059, Note_on_c, 15, 47, 0
20, 117060, Note_on_c, 15, 46, 90
20, 117119, Note_on_c, 15, 46, 0
20, 117180, Note_on_c, 15, 42, 90
20, 117239, Note_on_c, 15, 42, 0
20, 117300, Note_on_c, 15, 47, 90
20, 117359, Note_on_c, 15, 47, 0
20, 117360, Note_on_c, 15, 59, 90
20, 117419, Note_on_c, 15, 59, 0
20, 117420, Note_on_c, 15, 59, 90
20, 117479, Note_on_c, 15, 59, 0
20, 117480, Note_on_c, 15, 59, 90
20, 117539, Note_on_c, 15, 59, 0
20, 117540, Note_on_c, 15, 47, 90
20, 117599, Note_on_c, 15, 47, 0
20, 117600, Note_on_c, 15, 59, 90
20, 117659, Note_on_c, 15, 59, 0
20, 117660, Note_on_c, 15, 59, 90
20, 117719, Note_on_c, 15, 59, 0
20, 117720, Note_on_c, 15, 59, 90
20, 117779, Note_on_c, 15, 59, 0
20, 117780, Note_on_c, 15, 47, 90
20, 117839, Note_on_c, 15, 47, 0
20, 117840, Note_on_c, 15, 59, 90
20, 117899, Note_on_c, 15, 59, 0
20, 117900, Note_on_c, 15, 59, 90
20, 117959, Note_on_c, 15, 59, 0
20, 117960, Note_on_c, 15, 59, 90
20, 118019, Note_on_c, 15, 59, 0
20, 118020, Note_on_c, 15, 43, 90
20, 118259, Note_on_c, 15, 43, 0
20, 118260, Note_on_c, 15, 42, 90
20, 118319, Note_on_c, 15, 42, 0
20, 118320, Note_on_c, 15, 54, 90
20, 118349, Note_on_c, 15, 54, 0
20, 118350, Note_on_c, 15, 56, 90
20, 118379, Note_on_c, 15, 56, 0
20, 118380, Note_on_c, 15, 58, 90
20, 118439, Note_on_c, 15, 58, 0
20, 118440, Note_on_c, 15, 54, 90
20, 118499, Note_on_c, 15, 54, 0
20, 118500, Note_on_c, 15, 59, 90
20, 118559, Note_on_c, 15, 59, 0
20, 118620, Note_on_c, 15, 52, 90
20, 118679, Note_on_c, 15, 52, 0
20, 118740, Note_on_c, 15, 47, 90
20, 118799, Note_on_c, 15, 47, 0
20, 118860, Note_on_c, 15, 50, 90
20, 118919, Note_on_c, 15, 50, 0
20, 118980, Note_on_c, 15, 49, 90
20, 119039, Note_on_c, 15, 49, 0
20, 119100, Note_on_c, 15, 47, 90
20, 119159, Note_on_c, 15, 47, 0
20, 119220, Note_on_c, 15, 54, 90
20, 119279, Note_on_c, 15, 54, 0
20, 119280, Note_on_c, 15, 56, 90
20, 119339, Note_on_c, 15, 56, 0
20, 119340, Note_on_c, 15, 58, 90
20, 119399, Note_on_c, 15, 58, 0
20, 119400, Note_on_c, 15, 54, 90
20, 119459, Note_on_c, 15, 54, 0
20, 119460, Note_on_c, 15, 59, 90
20, 119519, Note_on_c, 15, 59, 0
20, 119520, Note_on_c, 15, 47, 90
20, 119579, Note_on_c, 15, 47, 0
20, 119580, Note_on_c, 15, 47, 90
20, 119639, Note_on_c, 15, 47, 0
20, 119640, Note_on_c, 15, 47, 90
20, 119699, Note_on_c, 15, 47, 0
20, 119700, Note_on_c, 15, 59, 90
20, 119759, Note_on_c, 15, 59, 0
20, 119760, Note_on_c, 15, 47, 90
20, 119789, Note_on_c, 15, 47, 0
20, 119790, Note_on_c, 15, 49, 90
20, 119819, Note_on_c, 15, 49, 0
20, 119820, Note_on_c, 15, 50, 90
20, 119879, Note_on_c, 15, 50, 0
20, 119880, Note_on_c, 15, 49, 90
20, 119909, Note_on_c, 15, 49, 0
20, 119910, Note_on_c, 15, 50, 90
20, 119939, Note_on_c, 15, 50, 0
20, 119940, Note_on_c, 15, 52, 90
20, 119999, Note_on_c, 15, 52, 0
20, 120000, Note_on_c, 15, 50, 90
20, 120059, Note_on_c, 15, 50, 0
20, 120060, Note_on_c, 15, 55, 90
20, 120119, Note_on_c, 15, 55, 0
20, 120120, Note_on_c, 15, 52, 90
20, 120179, Note_on_c, 15, 52, 0
20, 120180, Note_on_c, 15, 54, 90
20, 120239, Note_on_c, 15, 54, 0
20, 120300, Note_on_c, 15, 52, 90
20, 120359, Note_on_c, 15, 52, 0
20, 120420, Note_on_c, 15, 51, 90
20, 120479, Note_on_c, 15, 51, 0
20, 120480, Note_on_c, 15, 54, 90
20, 120539, Note_on_c, 15, 54, 0
20, 120540, Note_on_c, 15, 57, 90
20, 120719, Note_on_c, 15, 57, 0
20, 120720, Note_on_c, 15, 55, 90
20, 120749, Note_on_c, 15, 55, 0
20, 120750, Note_on_c, 15, 54, 90
20, 120779, Note_on_c, 15, 54, 0
20, 120780, Note_on_c, 15, 52, 90
20, 120839, Note_on_c, 15, 52, 0
20, 120840, Note_on_c, 15, 50, 90
20, 120899, Note_on_c, 15, 50, 0
20, 120900, Note_on_c, 15, 49, 90
20, 120959, Note_on_c, 15, 49, 0
20, 120960, Note_on_c, 15, 61, 90
20, 120989, Note_on_c, 15, 61, 0
20, 120990, Note_on_c, 15, 59, 90
20, 121019, Note_on_c, 15, 59, 0
20, 121020, Note_on_c, 15, 57, 90
20, 121079, Note_on_c, 15, 57, 0
20, 121080, Note_on_c, 15, 55, 90
20, 121139, Note_on_c, 15, 55, 0
20, 121140, Note_on_c, 15, 54, 90
20, 121199, Note_on_c, 15, 54, 0
20, 121200, Note_on_c, 15, 52, 90
20, 121259, Note_on_c, 15, 52, 0
20, 121260, Note_on_c, 15, 50, 90
20, 121319, Note_on_c, 15, 50, 0
20, 121320, Note_on_c, 15, 49, 90
20, 121379, Note_on_c, 15, 49, 0
20, 121380, Note_on_c, 15, 47, 90
20, 121439, Note_on_c, 15, 47, 0
20, 121500, Note_on_c, 15, 52, 90
20, 121559, Note_on_c, 15, 52, 0
20, 121620, Note_on_c, 15, 45, 90
20, 121739, Note_on_c, 15, 45, 0
20, 121800, Note_on_c, 15, 49, 90
20, 121859, Note_on_c, 15, 49, 0
20, 121860, Note_on_c, 15, 50, 90
20, 121919, Note_on_c, 15, 50, 0
20, 121920, Note_on_c, 15, 42, 90
20, 121979, Note_on_c, 15, 42, 0
20, 121980, Note_on_c, 15, 43, 90
20, 122039, Note_on_c, 15, 43, 0
20, 122040, Note_on_c, 15, 45, 90
20, 122099, Note_on_c, 15, 45, 0
20, 122100, Note_on_c, 15, 50, 90
20, 122159, Note_on_c, 15, 50, 0
20, 122160, Note_on_c, 15, 38, 90
20, 122219, Note_on_c, 15, 38, 0
20, 122220, Note_on_c, 15, 50, 90
20, 122279, Note_on_c, 15, 50, 0
20, 122280, Note_on_c, 15, 52, 90
20, 122339, Note_on_c, 15, 52, 0
20, 122340, Note_on_c, 15, 54, 90
20, 122399, Note_on_c, 15, 54, 0
20, 122400, Note_on_c, 15, 55, 90
20, 122519, Note_on_c, 15, 55, 0
20, 122520, Note_on_c, 15, 54, 90
20, 122549, Note_on_c, 15, 54, 0
20, 122550, Note_on_c, 15, 52, 90
20, 122579, Note_on_c, 15, 52, 0
20, 122580, Note_on_c, 15, 54, 90
20, 122639, Note_on_c, 15, 54, 0
20, 122640, Note_on_c, 15, 55, 90
20, 122699, Note_on_c, 15, 55, 0
20, 122700, Note_on_c, 15, 54, 90
20, 122759, Note_on_c, 15, 54, 0
20, 122760, Note_on_c, 15, 52, 90
20, 122819, Note_on_c, 15, 52, 0
20, 122820, Note_on_c, 15, 51, 90
20, 122879, Note_on_c, 15, 51, 0
20, 122880, Note_on_c, 15, 59, 90
20, 122939, Note_on_c, 15, 59, 0
20, 122940, Note_on_c, 15, 59, 90
20, 122999, Note_on_c, 15, 59, 0
20, 123000, Note_on_c, 15, 59, 90
20, 123059, Note_on_c, 15, 59, 0
20, 123060, Note_on_c, 15, 52, 90
20, 123119, Note_on_c, 15, 52, 0
20, 123120, Note_on_c, 15, 59, 90
20, 123179, Note_on_c, 15, 59, 0
20, 123180, Note_on_c, 15, 55, 90
20, 123239, Note_on_c, 15, 55, 0
20, 123240, Note_on_c, 15, 52, 90
20, 123299, Note_on_c, 15, 52, 0
20, 123300, Note_on_c, 15, 49, 90
20, 123359, Note_on_c, 15, 49, 0
20, 123360, Note_on_c, 15, 46, 90
20, 123419, Note_on_c, 15, 46, 0
20, 123420, Note_on_c, 15, 42, 90
20, 123479, Note_on_c, 15, 42, 0
20, 123480, Note_on_c, 15, 46, 90
20, 123539, Note_on_c, 15, 46, 0
20, 123540, Note_on_c, 15, 47, 90
20, 123599, Note_on_c, 15, 47, 0
20, 123600, Note_on_c, 15, 49, 90
20, 123659, Note_on_c, 15, 49, 0
20, 123660, Note_on_c, 15, 50, 90
20, 123719, Note_on_c, 15, 50, 0
20, 123720, Note_on_c, 15, 52, 90
20, 123779, Note_on_c, 15, 52, 0
20, 123780, Note_on_c, 15, 54, 90
20, 123839, Note_on_c, 15, 54, 0
20, 123840, Note_on_c, 15, 52, 90
20, 123899, Note_on_c, 15, 52, 0
20, 123900, Note_on_c, 15, 51, 90
20, 123959, Note_on_c, 15, 51, 0
20, 123960, Note_on_c, 15, 47, 90
20, 124019, Note_on_c, 15, 47, 0
20, 124020, Note_on_c, 15, 52, 90
20, 124079, Note_on_c, 15, 52, 0
20, 124140, Note_on_c, 15, 50, 90
20, 124199, Note_on_c, 15, 50, 0
20, 124260, Note_on_c, 15, 49, 90
20, 124319, Note_on_c, 15, 49, 0
20, 124320, Note_on_c, 15, 47, 90
20, 124379, Note_on_c, 15, 47, 0
20, 124380, Note_on_c, 15, 46, 90
20, 124439, Note_on_c, 15, 46, 0
20, 124440, Note_on_c, 15, 49, 90
20, 124499, Note_on_c, 15, 49, 0
20, 124500, Note_on_c, 15, 42, 90
20, 124559, Note_on_c, 15, 42, 0
20, 124560, Note_on_c, 15, 52, 90
20, 124619, Note_on_c, 15, 52, 0
20, 124620, Note_on_c, 15, 50, 90
20, 124679, Note_on_c, 15, 50, 0
20, 124680, Note_on_c, 15, 47, 90
20, 124739, Note_on_c, 15, 47, 0
20, 124740, Note_on_c, 15, 44, 90
20, 124799, Note_on_c, 15, 44, 0
20, 124800, Note_on_c, 15, 44, 90
20, 124859, Note_on_c, 15, 44, 0
20, 124860, Note_on_c, 15, 44, 90
20, 124919, Note_on_c, 15, 44, 0
20, 124920, Note_on_c, 15, 44, 90
20, 124979, Note_on_c, 15, 44, 0
20, 124980, Note_on_c, 15, 46, 90
20, 125039, Note_on_c, 15, 46, 0
20, 125040, Note_on_c, 15, 42, 90
20, 125099, Note_on_c, 15, 42, 0
20, 125100, Note_on_c, 15, 54, 90
20, 125159, Note_on_c, 15, 54, 0
20, 125160, Note_on_c, 15, 58, 90
20, 125219, Note_on_c, 15, 58, 0
20, 125220, Note_on_c, 15, 59, 90
20, 125279, Note_on_c, 15, 59, 0
20, 125280, Note_on_c, 15, 61, 90
20, 125399, Note_on_c, 15, 61, 0
20, 125400, Note_on_c, 15, 59, 90
20, 125429, Note_on_c, 15, 59, 0
20, 125430, Note_on_c, 15, 58, 90
20, 125459, Note_on_c, 15, 58, 0
20, 125460, Note_on_c, 15, 59, 90
20, 125519, Note_on_c, 15, 59, 0
20, 125520, Note_on_c, 15, 54, 90
20, 125579, Note_on_c, 15, 54, 0
20, 125580, Note_on_c, 15, 50, 90
20, 125639, Note_on_c, 15, 50, 0
20, 125640, Note_on_c, 15, 59, 90
20, 125699, Note_on_c, 15, 59, 0
20, 125700, Note_on_c, 15, 58, 90
20, 125759, Note_on_c, 15, 58, 0
20, 125760, Note_on_c, 15, 59, 90
20, 125879, Note_on_c, 15, 59, 0
20, 125880, Note_on_c, 15, 58, 90
20, 125909, Note_on_c, 15, 58, 0
20, 125910, Note_on_c, 15, 56, 90
20, 125939, Note_on_c, 15, 56, 0
20, 125940, Note_on_c, 15, 58, 90
20, 125999, Note_on_c, 15, 58, 0
20, 126000, Note_on_c, 15, 54, 90
20, 126059, Note_on_c, 15, 54, 0
20, 126060, Note_on_c, 15, 49, 90
20, 126119, Note_on_c, 15, 49, 0
20, 126120, Note_on_c, 15, 58, 90
20, 126179, Note_on_c, 15, 58, 0
20, 126180, Note_on_c, 15, 59, 90
20, 126239, Note_on_c, 15, 59, 0
20, 126300, Note_on_c, 15, 52, 90
20, 126479, Note_on_c, 15, 52, 0
20, 126480, Note_on_c, 15, 50, 90
20, 126509, Note_on_c, 15, 50, 0
20, 126510, Note_on_c, 15, 49, 90
20, 126539, Note_on_c, 15, 49, 0
20, 126540, Note_on_c, 15, 50, 90
20, 126599, Note_on_c, 15, 50, 0
20, 126600, Note_on_c, 15, 55, 90
20, 126659, Note_on_c, 15, 55, 0
20, 126660, Note_on_c, 15, 54, 90
20, 126719, Note_on_c, 15, 54, 0
20, 126720, Note_on_c, 15, 52, 90
20, 126779, Note_on_c, 15, 52, 0
20, 126780, Note_on_c, 15, 54, 90
20, 126839, Note_on_c, 15, 54, 0
20, 126840, Note_on_c, 15, 42, 90
20, 126899, Note_on_c, 15, 42, 0
20, 126900, Note_on_c, 15, 47, 90
20, 126959, Note_on_c, 15, 47, 0
20, 126960, Note_on_c, 15, 59, 90
20, 127019, Note_on_c, 15, 59, 0
20, 127020, Note_on_c, 15, 57, 90
20, 127079, Note_on_c, 15, 57, 0
20, 127080, Note_on_c, 15, 55, 90
20, 127139, Note_on_c, 15, 55, 0
20, 127140, Note_on_c, 15, 54, 90
20, 127199, Note_on_c, 15, 54, 0
20, 127200, Note_on_c, 15, 52, 90
20, 127259, Note_on_c, 15, 52, 0
20, 127260, Note_on_c, 15, 51, 90
20, 127319, Note_on_c, 15, 51, 0
20, 127320, Note_on_c, 15, 47, 90
20, 127379, Note_on_c, 15, 47, 0
20, 127380, Note_on_c, 15, 52, 90
20, 127439, Note_on_c, 15, 52, 0
20, 127440, Note_on_c, 15, 54, 90
20, 127499, Note_on_c, 15, 54, 0
20, 127500, Note_on_c, 15, 55, 90
20, 127559, Note_on_c, 15, 55, 0
20, 127560, Note_on_c, 15, 52, 90
20, 127619, Note_on_c, 15, 52, 0
20, 127620, Note_on_c, 15, 54, 90
20, 127679, Note_on_c, 15, 54, 0
20, 127680, Note_on_c, 15, 49, 90
20, 127739, Note_on_c, 15, 49, 0
20, 127740, Note_on_c, 15, 46, 90
20, 127799, Note_on_c, 15, 46, 0
20, 127800, Note_on_c, 15, 42, 90
20, 127859, Note_on_c, 15, 42, 0
20, 127860, Note_on_c, 15, 47, 90
20, 127919, Note_on_c, 15, 47, 0
20, 127920, Note_on_c, 15, 50, 90
20, 127979, Note_on_c, 15, 50, 0
20, 127980, Note_on_c, 15, 54, 90
20, 128039, Note_on_c, 15, 54, 0
20, 128040, Note_on_c, 15, 59, 90
20, 128099, Note_on_c, 15, 59, 0
20, 128100, Note_on_c, 15, 55, 90
20, 128159, Note_on_c, 15, 55, 0
20, 128220, Note_on_c, 15, 54, 90
20, 128279, Note_on_c, 15, 54, 0
20, 128340, Note_on_c, 15, 52, 90
20, 128399, Note_on_c, 15, 52, 0
20, 128460, Note_on_c, 15, 50, 90
20, 128519, Note_on_c, 15, 50, 0
20, 128580, Note_on_c, 15, 49, 90
20, 128639, Note_on_c, 15, 49, 0
20, 128700, Note_on_c, 15, 47, 90
20, 128759, Note_on_c, 15, 47, 0
20, 128820, Note_on_c, 15, 46, 90
20, 128879, Note_on_c, 15, 46, 0
20, 128940, Note_on_c, 15, 42, 90
20, 128999, Note_on_c, 15, 42, 0
20, 129060, Note_on_c, 15, 47, 90
20, 129119, Note_on_c, 15, 47, 0
20, 129180, Note_on_c, 15, 51, 90
20, 129239, Note_on_c, 15, 51, 0
20, 129300, Note_on_c, 15, 53, 90
20, 129419, Note_on_c, 15, 53, 0
20, 129480, Note_on_c, 15, 49, 90
20, 129539, Note_on_c, 15, 49, 0
20, 129540, Note_on_c, 15, 50, 90
20, 129599, Note_on_c, 15, 50, 0
20, 129600, Note_on_c, 15, 52, 90
20, 129659, Note_on_c, 15, 52, 0
20, 129660, Note_on_c, 15, 54, 90
20, 129719, Note_on_c, 15, 54, 0
20, 129720, Note_on_c, 15, 42, 90
20, 129779, Note_on_c, 15, 42, 0
20, 129780, Note_on_c, 15, 47, 90
20, 130019, Note_on_c, 15, 47, 0
20, 130140, Note_on_c, 15, 49, 80
20, 130619, Note_on_c, 15, 49, 0
20, 130620, Note_on_c, 15, 50, 80
20, 131099, Note_on_c, 15, 50, 0
20, 131100, Note_on_c, 15, 52, 80
20, 131579, Note_on_c, 15, 52, 0
20, 131580, Note_on_c, 15, 54, 80
20, 132059, Note_on_c, 15, 54, 0
20, 132060, Note_on_c, 15, 55, 80
20, 132179, Note_on_c, 15, 55, 0
20, 132180, Note_on_c, 15, 47, 80
20, 132299, Note_on_c, 15, 47, 0
20, 132300, Note_on_c, 15, 50, 80
20, 132419, Note_on_c, 15, 50, 0
20, 132420, Note_on_c, 15, 43, 80
20, 132539, Note_on_c, 15, 43, 0
20, 132660, Note_on_c, 15, 55, 90
20, 132779, Note_on_c, 15, 55, 0
20, 132780, Note_on_c, 15, 48, 90
20, 133019, Note_on_c, 15, 48, 0
20, 133020, Note_on_c, 15, 47, 90
20, 133139, Note_on_c, 15, 47, 0
20, 133140, Note_on_c, 15, 45, 90
20, 133259, Note_on_c, 15, 45, 0
20, 133260, Note_on_c, 15, 44, 90
20, 133379, Note_on_c, 15, 44, 0
20, 133380, Note_on_c, 15, 43, 90
20, 133619, Note_on_c, 15, 43, 0
20, 133620, Note_on_c, 15, 48, 90
20, 133859, Note_on_c, 15, 48, 0
20, 133860, Note_on_c, 15, 55, 90
20, 133979, Note_on_c, 15, 55, 0
20, 133980, Note_on_c, 15, 56, 90
20, 134099, Note_on_c, 15, 56, 0
20, 134100, Note_on_c, 15, 57, 90
20, 134339, Note_on_c, 15, 57, 0
20, 134340, Note_on_c, 15, 52, 90
20, 134459, Note_on_c, 15, 52, 0
20, 134460, Note_on_c, 15, 47, 90
20, 134519, Note_on_c, 15, 47, 0
20, 134520, Note_on_c, 15, 48, 90
20, 134579, Note_on_c, 15, 48, 0
20, 134580, Note_on_c, 15, 50, 90
20, 134819, Note_on_c, 15, 50, 0
20, 134820, Note_on_c, 15, 50, 90
20, 134939, Note_on_c, 15, 50, 0
20, 134940, Note_on_c, 15, 55, 90
20, 134999, Note_on_c, 15, 55, 0
20, 135000, Note_on_c, 15, 54, 90
20, 135059, Note_on_c, 15, 54, 0
20, 135060, Note_on_c, 15, 52, 90
20, 135179, Note_on_c, 15, 52, 0
20, 135180, Note_on_c, 15, 50, 90
20, 135299, Note_on_c, 15, 50, 0
20, 135300, Note_on_c, 15, 48, 90
20, 135419, Note_on_c, 15, 48, 0
20, 135420, Note_on_c, 15, 50, 90
20, 135539, Note_on_c, 15, 50, 0
20, 135540, Note_on_c, 15, 43, 90
20, 135779, Note_on_c, 15, 43, 0
20, 135780, Note_on_c, 15, 48, 90
20, 135839, Note_on_c, 15, 48, 0
20, 135840, Note_on_c, 15, 50, 90
20, 135899, Note_on_c, 15, 50, 0
20, 135900, Note_on_c, 15, 52, 90
20, 136019, Note_on_c, 15, 52, 0
20, 136020, Note_on_c, 15, 50, 90
20, 136079, Note_on_c, 15, 50, 0
20, 136080, Note_on_c, 15, 52, 90
20, 136139, Note_on_c, 15, 52, 0
20, 136140, Note_on_c, 15, 53, 90
20, 136259, Note_on_c, 15, 53, 0
20, 136260, Note_on_c, 15, 52, 90
20, 136319, Note_on_c, 15, 52, 0
20, 136320, Note_on_c, 15, 50, 90
20, 136379, Note_on_c, 15, 50, 0
20, 136380, Note_on_c, 15, 52, 90
20, 136439, Note_on_c, 15, 52, 0
20, 136440, Note_on_c, 15, 54, 90
20, 136499, Note_on_c, 15, 54, 0
20, 136500, Note_on_c, 15, 55, 90
20, 136619, Note_on_c, 15, 55, 0
20, 136620, Note_on_c, 15, 56, 90
20, 136739, Note_on_c, 15, 56, 0
20, 136740, Note_on_c, 15, 57, 90
20, 136979, Note_on_c, 15, 57, 0
20, 136980, Note_on_c, 15, 59, 90
20, 137099, Note_on_c, 15, 59, 0
20, 137100, Note_on_c, 15, 52, 90
20, 137219, Note_on_c, 15, 52, 0
20, 137220, Note_on_c, 15, 57, 90
20, 137459, Note_on_c, 15, 57, 0
20, 137460, Note_on_c, 15, 52, 90
20, 137579, Note_on_c, 15, 52, 0
20, 137580, Note_on_c, 15, 50, 90
20, 137639, Note_on_c, 15, 50, 0
20, 137640, Note_on_c, 15, 52, 90
20, 137699, Note_on_c, 15, 52, 0
20, 137700, Note_on_c, 15, 54, 90
20, 137939, Note_on_c, 15, 54, 0
20, 137940, Note_on_c, 15, 55, 90
20, 137999, Note_on_c, 15, 55, 0
20, 138000, Note_on_c, 15, 57, 90
20, 138059, Note_on_c, 15, 57, 0
20, 138060, Note_on_c, 15, 59, 90
20, 138239, Note_on_c, 15, 59, 0
20, 138240, Note_on_c, 15, 57, 90
20, 138299, Note_on_c, 15, 57, 0
20, 138300, Note_on_c, 15, 59, 90
20, 138359, Note_on_c, 15, 59, 0
20, 138360, Note_on_c, 15, 60, 90
20, 138419, Note_on_c, 15, 60, 0
20, 138420, Note_on_c, 15, 62, 90
20, 138539, Note_on_c, 15, 62, 0
20, 138540, Note_on_c, 15, 50, 90
20, 138659, Note_on_c, 15, 50, 0
20, 138660, Note_on_c, 15, 55, 90
20, 138899, Note_on_c, 15, 55, 0
20, 139020, Note_on_c, 15, 52, 80
20, 139980, Note_on_c, 15, 52, 0
20, 139980, Note_on_c, 15, 46, 80
20, 140700, Note_on_c, 15, 46, 0
20, 140700, Note_on_c, 15, 47, 80
20, 141060, Note_on_c, 15, 47, 0
20, 141060, Note_on_c, 15, 45, 80
20, 141180, Note_on_c, 15, 45, 0
20, 141180, Note_on_c, 15, 50, 80
20, 141300, Note_on_c, 15, 50, 0
20, 141420, Note_on_c, 15, 49, 80
20, 141540, Note_on_c, 15, 49, 0
20, 141540, Note_on_c, 15, 42, 80
20, 141660, Note_on_c, 15, 42, 0
20, 141900, Note_on_c, 15, 54, 90
20, 142019, Note_on_c, 15, 54, 0
20, 142020, Note_on_c, 15, 54, 90
20, 142049, Note_on_c, 15, 54, 0
20, 142050, Note_on_c, 15, 56, 90
20, 142079, Note_on_c, 15, 56, 0
20, 142080, Note_on_c, 15, 57, 90
20, 142109, Note_on_c, 15, 57, 0
20, 142110, Note_on_c, 15, 59, 90
20, 142139, Note_on_c, 15, 59, 0
20, 142140, Note_on_c, 15, 61, 90
20, 142199, Note_on_c, 15, 61, 0
20, 142200, Note_on_c, 15, 49, 90
20, 142259, Note_on_c, 15, 49, 0
20, 142260, Note_on_c, 15, 50, 90
20, 142379, Note_on_c, 15, 50, 0
20, 142380, Note_on_c, 15, 50, 90
20, 142499, Note_on_c, 15, 50, 0
20, 142500, Note_on_c, 15, 49, 90
20, 142559, Note_on_c, 15, 49, 0
20, 142560, Note_on_c, 15, 47, 90
20, 142619, Note_on_c, 15, 47, 0
20, 142620, Note_on_c, 15, 49, 90
20, 142739, Note_on_c, 15, 49, 0
20, 142740, Note_on_c, 15, 42, 90
20, 142859, Note_on_c, 15, 42, 0
20, 142860, Note_on_c, 15, 54, 90
20, 142979, Note_on_c, 15, 54, 0
20, 142980, Note_on_c, 15, 56, 90
20, 143099, Note_on_c, 15, 56, 0
20, 143100, Note_on_c, 15, 57, 90
20, 143159, Note_on_c, 15, 57, 0
20, 143160, Note_on_c, 15, 59, 90
20, 143219, Note_on_c, 15, 59, 0
20, 143220, Note_on_c, 15, 61, 90
20, 143339, Note_on_c, 15, 61, 0
20, 143340, Note_on_c, 15, 49, 90
20, 143459, Note_on_c, 15, 49, 0
20, 143460, Note_on_c, 15, 54, 90
20, 143519, Note_on_c, 15, 54, 0
20, 143520, Note_on_c, 15, 52, 90
20, 143579, Note_on_c, 15, 52, 0
20, 143580, Note_on_c, 15, 50, 90
20, 143639, Note_on_c, 15, 50, 0
20, 143640, Note_on_c, 15, 49, 90
20, 143699, Note_on_c, 15, 49, 0
20, 143700, Note_on_c, 15, 50, 90
20, 143759, Note_on_c, 15, 50, 0
20, 143760, Note_on_c, 15, 47, 90
20, 143819, Note_on_c, 15, 47, 0
20, 143820, Note_on_c, 15, 52, 90
20, 143879, Note_on_c, 15, 52, 0
20, 143880, Note_on_c, 15, 40, 90
20, 143939, Note_on_c, 15, 40, 0
20, 143940, Note_on_c, 15, 45, 90
20, 143999, Note_on_c, 15, 45, 0
20, 144000, Note_on_c, 15, 57, 90
20, 144059, Note_on_c, 15, 57, 0
20, 144060, Note_on_c, 15, 56, 90
20, 144119, Note_on_c, 15, 56, 0
20, 144120, Note_on_c, 15, 54, 90
20, 144239, Note_on_c, 15, 54, 0
20, 144240, Note_on_c, 15, 53, 90
20, 144299, Note_on_c, 15, 53, 0
20, 144300, Note_on_c, 15, 54, 90
20, 144359, Note_on_c, 15, 54, 0
20, 144360, Note_on_c, 15, 50, 90
20, 144419, Note_on_c, 15, 50, 0
20, 144420, Note_on_c, 15, 47, 90
20, 144479, Note_on_c, 15, 47, 0
20, 144480, Note_on_c, 15, 44, 90
20, 144539, Note_on_c, 15, 44, 0
20, 144540, Note_on_c, 15, 49, 90
20, 144659, Note_on_c, 15, 49, 0
20, 144660, Note_on_c, 15, 42, 90
20, 144779, Note_on_c, 15, 42, 0
20, 144780, Note_on_c, 15, 54, 90
20, 144839, Note_on_c, 15, 54, 0
20, 144840, Note_on_c, 15, 52, 90
20, 144899, Note_on_c, 15, 52, 0
20, 144900, Note_on_c, 15, 50, 90
20, 144959, Note_on_c, 15, 50, 0
20, 144960, Note_on_c, 15, 49, 90
20, 145019, Note_on_c, 15, 49, 0
20, 145020, Note_on_c, 15, 48, 90
20, 145139, Note_on_c, 15, 48, 0
20, 145140, Note_on_c, 15, 49, 90
20, 145259, Note_on_c, 15, 49, 0
20, 145260, Note_on_c, 15, 45, 90
20, 145379, Note_on_c, 15, 45, 0
20, 145380, Note_on_c, 15, 47, 90
20, 145439, Note_on_c, 15, 47, 0
20, 145440, Note_on_c, 15, 49, 90
20, 145499, Note_on_c, 15, 49, 0
20, 145500, Note_on_c, 15, 51, 90
20, 145559, Note_on_c, 15, 51, 0
20, 145560, Note_on_c, 15, 47, 90
20, 145619, Note_on_c, 15, 47, 0
20, 145620, Note_on_c, 15, 52, 90
20, 145739, Note_on_c, 15, 52, 0
20, 145740, Note_on_c, 15, 53, 90
20, 145799, Note_on_c, 15, 53, 0
20, 145800, Note_on_c, 15, 49, 90
20, 145859, Note_on_c, 15, 49, 0
20, 145860, Note_on_c, 15, 54, 90
20, 145919, Note_on_c, 15, 54, 0
20, 145920, Note_on_c, 15, 42, 90
20, 145979, Note_on_c, 15, 42, 0
20, 145980, Note_on_c, 15, 54, 90
20, 146039, Note_on_c, 15, 54, 0
20, 146040, Note_on_c, 15, 50, 90
20, 146099, Note_on_c, 15, 50, 0
20, 146100, Note_on_c, 15, 55, 90
20, 146159, Note_on_c, 15, 55, 0
20, 146160, Note_on_c, 15, 43, 90
20, 146219, Note_on_c, 15, 43, 0
20, 146220, Note_on_c, 15, 56, 90
20, 146279, Note_on_c, 15, 56, 0
20, 146280, Note_on_c, 15, 52, 90
20, 146339, Note_on_c, 15, 52, 0
20, 146340, Note_on_c, 15, 57, 90
20, 146399, Note_on_c, 15, 57, 0
20, 146400, Note_on_c, 15, 45, 90
20, 146459, Note_on_c, 15, 45, 0
20, 146460, Note_on_c, 15, 58, 90
20, 146519, Note_on_c, 15, 58, 0
20, 146520, Note_on_c, 15, 54, 90
20, 146579, Note_on_c, 15, 54, 0
20, 146580, Note_on_c, 15, 59, 90
20, 146639, Note_on_c, 15, 59, 0
20, 146640, Note_on_c, 15, 47, 90
20, 146699, Note_on_c, 15, 47, 0
20, 146700, Note_on_c, 15, 60, 90
20, 146759, Note_on_c, 15, 60, 0
20, 146760, Note_on_c, 15, 56, 90
20, 146819, Note_on_c, 15, 56, 0
20, 146820, Note_on_c, 15, 61, 90
20, 146879, Note_on_c, 15, 61, 0
20, 146880, Note_on_c, 15, 60, 90
20, 146939, Note_on_c, 15, 60, 0
20, 146940, Note_on_c, 15, 61, 90
20, 146999, Note_on_c, 15, 61, 0
20, 147000, Note_on_c, 15, 49, 90
20, 147059, Note_on_c, 15, 49, 0
20, 147060, Note_on_c, 15, 42, 90
20, 147179, Note_on_c, 15, 42, 0
20, 147300, Note_on_c, 15, 62, 90
20, 147359, Note_on_c, 15, 62, 0
20, 147360, Note_on_c, 15, 50, 90
20, 147419, Note_on_c, 15, 50, 0
20, 147420, Note_on_c, 15, 61, 90
20, 147479, Note_on_c, 15, 61, 0
20, 147480, Note_on_c, 15, 59, 90
20, 147539, Note_on_c, 15, 59, 0
20, 147540, Note_on_c, 15, 47, 90
20, 147599, Note_on_c, 15, 47, 0
20, 147600, Note_on_c, 15, 59, 90
20, 147659, Note_on_c, 15, 59, 0
20, 147660, Note_on_c, 15, 61, 90
20, 147719, Note_on_c, 15, 61, 0
20, 147720, Note_on_c, 15, 49, 90
20, 147779, Note_on_c, 15, 49, 0
20, 147780, Note_on_c, 15, 51, 90
20, 147839, Note_on_c, 15, 51, 0
20, 147840, Note_on_c, 15, 52, 90
20, 147899, Note_on_c, 15, 52, 0
20, 147900, Note_on_c, 15, 55, 90
20, 147959, Note_on_c, 15, 55, 0
20, 147960, Note_on_c, 15, 59, 90
20, 148019, Note_on_c, 15, 59, 0
20, 148020, Note_on_c, 15, 64, 90
20, 148079, Note_on_c, 15, 64, 0
20, 148080, Note_on_c, 15, 52, 90
20, 148139, Note_on_c, 15, 52, 0
20, 148140, Note_on_c, 15, 62, 90
20, 148199, Note_on_c, 15, 62, 0
20, 148200, Note_on_c, 15, 61, 90
20, 148259, Note_on_c, 15, 61, 0
20, 148260, Note_on_c, 15, 49, 90
20, 148319, Note_on_c, 15, 49, 0
20, 148320, Note_on_c, 15, 59, 90
20, 148379, Note_on_c, 15, 59, 0
20, 148380, Note_on_c, 15, 57, 90
20, 148439, Note_on_c, 15, 57, 0
20, 148440, Note_on_c, 15, 54, 90
20, 148499, Note_on_c, 15, 54, 0
20, 148500, Note_on_c, 15, 57, 90
20, 148559, Note_on_c, 15, 57, 0
20, 148560, Note_on_c, 15, 50, 90
20, 148619, Note_on_c, 15, 50, 0
20, 148620, Note_on_c, 15, 54, 90
20, 148679, Note_on_c, 15, 54, 0
20, 148680, Note_on_c, 15, 57, 90
20, 148739, Note_on_c, 15, 57, 0
20, 148740, Note_on_c, 15, 62, 90
20, 148799, Note_on_c, 15, 62, 0
20, 148800, Note_on_c, 15, 50, 90
20, 148859, Note_on_c, 15, 50, 0
20, 148860, Note_on_c, 15, 61, 90
20, 148919, Note_on_c, 15, 61, 0
20, 148920, Note_on_c, 15, 59, 90
20, 148979, Note_on_c, 15, 59, 0
20, 148980, Note_on_c, 15, 56, 90
20, 149039, Note_on_c, 15, 56, 0
20, 149040, Note_on_c, 15, 57, 90
20, 149099, Note_on_c, 15, 57, 0
20, 149100, Note_on_c, 15, 50, 90
20, 149159, Note_on_c, 15, 50, 0
20, 149160, Note_on_c, 15, 52, 90
20, 149219, Note_on_c, 15, 52, 0
20, 149220, Note_on_c, 15, 40, 90
20, 149279, Note_on_c, 15, 40, 0
20, 149280, Note_on_c, 15, 45, 90
20, 149339, Note_on_c, 15, 45, 0
20, 149520, Note_on_c, 15, 61, 90
20, 149579, Note_on_c, 15, 61, 0
20, 149580, Note_on_c, 15, 62, 90
20, 149639, Note_on_c, 15, 62, 0
20, 149640, Note_on_c, 15, 57, 90
20, 149699, Note_on_c, 15, 57, 0
20, 149880, Note_on_c, 15, 49, 90
20, 149939, Note_on_c, 15, 49, 0
20, 149940, Note_on_c, 15, 50, 90
20, 149999, Note_on_c, 15, 50, 0
20, 150000, Note_on_c, 15, 45, 90
20, 150059, Note_on_c, 15, 45, 0
20, 150060, Note_on_c, 15, 57, 90
20, 150089, Note_on_c, 15, 57, 0
20, 150090, Note_on_c, 15, 55, 90
20, 150119, Note_on_c, 15, 55, 0
20, 150120, Note_on_c, 15, 54, 90
20, 150149, Note_on_c, 15, 54, 0
20, 150150, Note_on_c, 15, 52, 90
20, 150179, Note_on_c, 15, 52, 0
20, 150180, Note_on_c, 15, 50, 90
20, 150239, Note_on_c, 15, 50, 0
20, 150360, Note_on_c, 15, 47, 90
20, 150419, Note_on_c, 15, 47, 0
20, 150540, Note_on_c, 15, 42, 90
20, 150599, Note_on_c, 15, 42, 0
20, 150600, Note_on_c, 15, 43, 90
20, 150659, Note_on_c, 15, 43, 0
20, 150660, Note_on_c, 15, 45, 90
20, 150719, Note_on_c, 15, 45, 0
20, 150720, Note_on_c, 15, 38, 90
20, 150779, Note_on_c, 15, 38, 0
20, 150780, Note_on_c, 15, 55, 90
20, 150809, Note_on_c, 15, 55, 0
20, 150810, Note_on_c, 15, 54, 90
20, 150839, Note_on_c, 15, 54, 0
20, 150840, Note_on_c, 15, 52, 90
20, 150869, Note_on_c, 15, 52, 0
20, 150870, Note_on_c, 15, 50, 90
20, 150899, Note_on_c, 15, 50, 0
20, 150900, Note_on_c, 15, 49, 90
20, 150959, Note_on_c, 15, 49, 0
20, 150960, Note_on_c, 15, 52, 90
20, 150989, Note_on_c, 15, 52, 0
20, 150990, Note_on_c, 15, 50, 90
20, 151019, Note_on_c, 15, 50, 0
20, 151020, Note_on_c, 15, 49, 90
20, 151049, Note_on_c, 15, 49, 0
20, 151050, Note_on_c, 15, 47, 90
20, 151079, Note_on_c, 15, 47, 0
20, 151080, Note_on_c, 15, 45, 90
20, 151139, Note_on_c, 15, 45, 0
20, 151140, Note_on_c, 15, 49, 90
20, 151199, Note_on_c, 15, 49, 0
20, 151200, Note_on_c, 15, 52, 90
20, 151259, Note_on_c, 15, 52, 0
20, 151260, Note_on_c, 15, 57, 90
20, 151319, Note_on_c, 15, 57, 0
20, 151320, Note_on_c, 15, 52, 90
20, 151379, Note_on_c, 15, 52, 0
20, 151380, Note_on_c, 15, 49, 90
20, 151439, Note_on_c, 15, 49, 0
20, 151440, Note_on_c, 15, 45, 90
20, 151499, Note_on_c, 15, 45, 0
20, 151500, Note_on_c, 15, 42, 90
20, 151559, Note_on_c, 15, 42, 0
20, 151560, Note_on_c, 15, 45, 90
20, 151619, Note_on_c, 15, 45, 0
20, 151620, Note_on_c, 15, 50, 90
20, 151679, Note_on_c, 15, 50, 0
20, 151800, Note_on_c, 15, 48, 90
20, 151859, Note_on_c, 15, 48, 0
20, 151980, Note_on_c, 15, 47, 90
20, 152039, Note_on_c, 15, 47, 0
20, 152100, Note_on_c, 15, 43, 90
20, 152159, Note_on_c, 15, 43, 0
20, 152160, Note_on_c, 15, 50, 90
20, 152219, Note_on_c, 15, 50, 0
20, 152340, Note_on_c, 15, 38, 90
20, 152399, Note_on_c, 15, 38, 0
20, 152880, Note_on_c, 15, 50, 90
20, 152939, Note_on_c, 15, 50, 0
20, 152940, Note_on_c, 15, 54, 90
20, 152999, Note_on_c, 15, 54, 0
20, 153000, Note_on_c, 15, 57, 90
20, 153059, Note_on_c, 15, 57, 0
20, 153060, Note_on_c, 15, 62, 90
20, 153119, Note_on_c, 15, 62, 0
20, 153120, Note_on_c, 15, 50, 90
20, 153179, Note_on_c, 15, 50, 0
20, 153180, Note_on_c, 15, 61, 90
20, 153239, Note_on_c, 15, 61, 0
20, 153240, Note_on_c, 15, 59, 90
20, 153299, Note_on_c, 15, 59, 0
20, 153300, Note_on_c, 15, 47, 90
20, 153359, Note_on_c, 15, 47, 0
20, 153360, Note_on_c, 15, 59, 90
20, 153419, Note_on_c, 15, 59, 0
20, 153420, Note_on_c, 15, 61, 90
20, 153479, Note_on_c, 15, 61, 0
20, 153480, Note_on_c, 15, 49, 90
20, 153539, Note_on_c, 15, 49, 0
20, 153540, Note_on_c, 15, 51, 90
20, 153599, Note_on_c, 15, 51, 0
20, 153600, Note_on_c, 15, 52, 90
20, 153659, Note_on_c, 15, 52, 0
20, 153660, Note_on_c, 15, 55, 90
20, 153719, Note_on_c, 15, 55, 0
20, 153720, Note_on_c, 15, 59, 90
20, 153779, Note_on_c, 15, 59, 0
20, 153780, Note_on_c, 15, 64, 90
20, 153839, Note_on_c, 15, 64, 0
20, 153840, Note_on_c, 15, 52, 90
20, 153899, Note_on_c, 15, 52, 0
20, 153900, Note_on_c, 15, 62, 90
20, 153959, Note_on_c, 15, 62, 0
20, 153960, Note_on_c, 15, 61, 90
20, 154019, Note_on_c, 15, 61, 0
20, 154020, Note_on_c, 15, 49, 90
20, 154079, Note_on_c, 15, 49, 0
20, 154080, Note_on_c, 15, 59, 90
20, 154139, Note_on_c, 15, 59, 0
20, 154140, Note_on_c, 15, 57, 90
20, 154199, Note_on_c, 15, 57, 0
20, 154200, Note_on_c, 15, 54, 90
20, 154259, Note_on_c, 15, 54, 0
20, 154260, Note_on_c, 15, 57, 90
20, 154319, Note_on_c, 15, 57, 0
20, 154320, Note_on_c, 15, 50, 90
20, 154379, Note_on_c, 15, 50, 0
20, 154380, Note_on_c, 15, 54, 90
20, 154439, Note_on_c, 15, 54, 0
20, 154440, Note_on_c, 15, 57, 90
20, 154499, Note_on_c, 15, 57, 0
20, 154500, Note_on_c, 15, 62, 90
20, 154559, Note_on_c, 15, 62, 0
20, 154560, Note_on_c, 15, 50, 90
20, 154619, Note_on_c, 15, 50, 0
20, 154620, Note_on_c, 15, 61, 90
20, 154679, Note_on_c, 15, 61, 0
20, 154680, Note_on_c, 15, 59, 90
20, 154739, Note_on_c, 15, 59, 0
20, 154740, Note_on_c, 15, 56, 90
20, 154799, Note_on_c, 15, 56, 0
20, 154800, Note_on_c, 15, 57, 90
20, 154859, Note_on_c, 15, 57, 0
20, 154860, Note_on_c, 15, 50, 90
20, 154919, Note_on_c, 15, 50, 0
20, 154920, Note_on_c, 15, 52, 90
20, 154979, Note_on_c, 15, 52, 0
20, 154980, Note_on_c, 15, 40, 90
20, 155039, Note_on_c, 15, 40, 0
20, 155040, Note_on_c, 15, 45, 90
20, 155099, Note_on_c, 15, 45, 0
20, 155280, Note_on_c, 15, 61, 90
20, 155339, Note_on_c, 15, 61, 0
20, 155340, Note_on_c, 15, 62, 90
20, 155399, Note_on_c, 15, 62, 0
20, 155400, Note_on_c, 15, 57, 90
20, 155459, Note_on_c, 15, 57, 0
20, 155640, Note_on_c, 15, 49, 90
20, 155699, Note_on_c, 15, 49, 0
20, 155700, Note_on_c, 15, 50, 90
20, 155759, Note_on_c, 15, 50, 0
20, 155760, Note_on_c, 15, 45, 90
20, 155819, Note_on_c, 15, 45, 0
20, 155820, Note_on_c, 15, 49, 90
20, 155879, Note_on_c, 15, 49, 0
20, 155880, Note_on_c, 15, 52, 90
20, 155939, Note_on_c, 15, 52, 0
20, 155940, Note_on_c, 15, 57, 90
20, 155999, Note_on_c, 15, 57, 0
20, 156000, Note_on_c, 15, 45, 90
20, 156059, Note_on_c, 15, 45, 0
20, 156060, Note_on_c, 15, 57, 90
20, 156119, Note_on_c, 15, 57, 0
20, 156120, Note_on_c, 15, 55, 90
20, 156179, Note_on_c, 15, 55, 0
20, 156180, Note_on_c, 15, 43, 90
20, 156239, Note_on_c, 15, 43, 0
20, 156240, Note_on_c, 15, 55, 90
20, 156299, Note_on_c, 15, 55, 0
20, 156300, Note_on_c, 15, 54, 90
20, 156359, Note_on_c, 15, 54, 0
20, 156360, Note_on_c, 15, 42, 90
20, 156419, Note_on_c, 15, 42, 0
20, 156420, Note_on_c, 15, 52, 90
20, 156479, Note_on_c, 15, 52, 0
20, 156480, Note_on_c, 15, 50, 90
20, 156539, Note_on_c, 15, 50, 0
20, 156540, Note_on_c, 15, 38, 90
20, 156599, Note_on_c, 15, 38, 0
20, 156600, Note_on_c, 15, 49, 90
20, 156659, Note_on_c, 15, 49, 0
20, 156660, Note_on_c, 15, 50, 90
20, 156719, Note_on_c, 15, 50, 0
20, 156720, Note_on_c, 15, 38, 90
20, 156779, Note_on_c, 15, 38, 0
20, 156780, Note_on_c, 15, 62, 90
20, 156839, Note_on_c, 15, 62, 0
20, 156840, Note_on_c, 15, 60, 90
20, 156899, Note_on_c, 15, 60, 0
20, 156900, Note_on_c, 15, 48, 90
20, 156959, Note_on_c, 15, 48, 0
20, 156960, Note_on_c, 15, 60, 90
20, 157019, Note_on_c, 15, 60, 0
20, 157020, Note_on_c, 15, 59, 90
20, 157079, Note_on_c, 15, 59, 0
20, 157080, Note_on_c, 15, 47, 90
20, 157139, Note_on_c, 15, 47, 0
20, 157140, Note_on_c, 15, 57, 90
20, 157199, Note_on_c, 15, 57, 0
20, 157200, Note_on_c, 15, 55, 90
20, 157259, Note_on_c, 15, 55, 0
20, 157260, Note_on_c, 15, 43, 90
20, 157319, Note_on_c, 15, 43, 0
20, 157320, Note_on_c, 15, 54, 90
20, 157379, Note_on_c, 15, 54, 0
20, 157380, Note_on_c, 15, 55, 90
20, 157439, Note_on_c, 15, 55, 0
20, 157440, Note_on_c, 15, 43, 90
20, 157499, Note_on_c, 15, 43, 0
20, 157500, Note_on_c, 15, 55, 90
20, 157619, Note_on_c, 15, 55, 0
20, 157620, Note_on_c, 15, 54, 90
20, 157679, Note_on_c, 15, 54, 0
20, 157680, Note_on_c, 15, 59, 90
20, 157739, Note_on_c, 15, 59, 0
20, 157740, Note_on_c, 15, 57, 90
20, 157799, Note_on_c, 15, 57, 0
20, 157800, Note_on_c, 15, 55, 90
20, 157859, Note_on_c, 15, 55, 0
20, 157860, Note_on_c, 15, 57, 90
20, 157919, Note_on_c, 15, 57, 0
20, 157920, Note_on_c, 15, 50, 90
20, 158039, Note_on_c, 15, 50, 0
20, 158160, Note_on_c, 15, 62, 90
20, 158219, Note_on_c, 15, 62, 0
20, 158220, Note_on_c, 15, 55, 90
20, 158279, Note_on_c, 15, 55, 0
20, 158280, Note_on_c, 15, 50, 90
20, 158399, Note_on_c, 15, 50, 0
20, 158520, Note_on_c, 15, 50, 90
20, 158579, Note_on_c, 15, 50, 0
20, 158580, Note_on_c, 15, 43, 90
20, 158639, Note_on_c, 15, 43, 0
20, 158640, Note_on_c, 15, 38, 90
20, 158699, Note_on_c, 15, 38, 0
20, 158700, Note_on_c, 15, 50, 90
20, 158729, Note_on_c, 15, 50, 0
20, 158730, Note_on_c, 15, 52, 90
20, 158759, Note_on_c, 15, 52, 0
20, 158760, Note_on_c, 15, 54, 90
20, 158789, Note_on_c, 15, 54, 0
20, 158790, Note_on_c, 15, 55, 90
20, 158819, Note_on_c, 15, 55, 0
20, 158820, Note_on_c, 15, 57, 90
20, 158879, Note_on_c, 15, 57, 0
20, 159000, Note_on_c, 15, 55, 90
20, 159059, Note_on_c, 15, 55, 0
20, 159180, Note_on_c, 15, 54, 90
20, 159239, Note_on_c, 15, 54, 0
20, 159240, Note_on_c, 15, 52, 90
20, 159299, Note_on_c, 15, 52, 0
20, 159300, Note_on_c, 15, 50, 90
20, 159359, Note_on_c, 15, 50, 0
20, 159360, Note_on_c, 15, 55, 90
20, 159419, Note_on_c, 15, 55, 0
20, 159420, Note_on_c, 15, 52, 90
20, 159479, Note_on_c, 15, 52, 0
20, 159480, Note_on_c, 15, 54, 90
20, 159539, Note_on_c, 15, 54, 0
20, 159540, Note_on_c, 15, 47, 90
20, 159599, Note_on_c, 15, 47, 0
20, 159720, Note_on_c, 15, 42, 90
20, 159779, Note_on_c, 15, 42, 0
20, 159900, Note_on_c, 15, 43, 90
20, 159959, Note_on_c, 15, 43, 0
20, 159960, Note_on_c, 15, 42, 90
20, 160019, Note_on_c, 15, 42, 0
20, 160020, Note_on_c, 15, 40, 90
20, 160079, Note_on_c, 15, 40, 0
20, 160080, Note_on_c, 15, 38, 90
20, 160139, Note_on_c, 15, 38, 0
20, 160140, Note_on_c, 15, 49, 90
20, 160199, Note_on_c, 15, 49, 0
20, 160200, Note_on_c, 15, 47, 90
20, 160259, Note_on_c, 15, 47, 0
20, 160260, Note_on_c, 15, 45, 90
20, 160379, Note_on_c, 15, 45, 0
20, 160440, Note_on_c, 15, 57, 90
20, 160499, Note_on_c, 15, 57, 0
20, 160500, Note_on_c, 15, 52, 90
20, 160559, Note_on_c, 15, 52, 0
20, 160560, Note_on_c, 15, 54, 90
20, 160619, Note_on_c, 15, 54, 0
20, 160620, Note_on_c, 15, 49, 90
20, 160679, Note_on_c, 15, 49, 0
20, 160680, Note_on_c, 15, 47, 90
20, 160739, Note_on_c, 15, 47, 0
20, 160740, Note_on_c, 15, 45, 90
20, 160799, Note_on_c, 15, 45, 0
20, 160800, Note_on_c, 15, 50, 90
20, 160859, Note_on_c, 15, 50, 0
20, 160860, Note_on_c, 15, 54, 90
20, 160919, Note_on_c, 15, 54, 0
20, 160920, Note_on_c, 15, 57, 90
20, 160979, Note_on_c, 15, 57, 0
20, 160980, Note_on_c, 15, 62, 90
20, 161039, Note_on_c, 15, 62, 0
20, 161520, Note_on_c, 15, 45, 90
20, 161579, Note_on_c, 15, 45, 0
20, 161580, Note_on_c, 15, 49, 90
20, 161639, Note_on_c, 15, 49, 0
20, 161640, Note_on_c, 15, 52, 90
20, 161699, Note_on_c, 15, 52, 0
20, 161700, Note_on_c, 15, 57, 90
20, 161759, Note_on_c, 15, 57, 0
20, 161760, Note_on_c, 15, 45, 90
20, 161819, Note_on_c, 15, 45, 0
20, 161820, Note_on_c, 15, 57, 90
20, 161879, Note_on_c, 15, 57, 0
20, 161880, Note_on_c, 15, 55, 90
20, 161939, Note_on_c, 15, 55, 0
20, 161940, Note_on_c, 15, 43, 90
20, 161999, Note_on_c, 15, 43, 0
20, 162000, Note_on_c, 15, 55, 90
20, 162059, Note_on_c, 15, 55, 0
20, 162060, Note_on_c, 15, 54, 90
20, 162119, Note_on_c, 15, 54, 0
20, 162120, Note_on_c, 15, 42, 90
20, 162179, Note_on_c, 15, 42, 0
20, 162180, Note_on_c, 15, 52, 90
20, 162239, Note_on_c, 15, 52, 0
20, 162240, Note_on_c, 15, 50, 90
20, 162299, Note_on_c, 15, 50, 0
20, 162300, Note_on_c, 15, 38, 90
20, 162359, Note_on_c, 15, 38, 0
20, 162360, Note_on_c, 15, 49, 90
20, 162419, Note_on_c, 15, 49, 0
20, 162420, Note_on_c, 15, 50, 90
20, 162479, Note_on_c, 15, 50, 0
20, 162480, Note_on_c, 15, 38, 90
20, 162539, Note_on_c, 15, 38, 0
20, 162540, Note_on_c, 15, 62, 90
20, 162599, Note_on_c, 15, 62, 0
20, 162600, Note_on_c, 15, 60, 90
20, 162659, Note_on_c, 15, 60, 0
20, 162660, Note_on_c, 15, 48, 90
20, 162719, Note_on_c, 15, 48, 0
20, 162720, Note_on_c, 15, 60, 90
20, 162779, Note_on_c, 15, 60, 0
20, 162780, Note_on_c, 15, 59, 90
20, 162839, Note_on_c, 15, 59, 0
20, 162840, Note_on_c, 15, 47, 90
20, 162899, Note_on_c, 15, 47, 0
20, 162900, Note_on_c, 15, 57, 90
20, 162959, Note_on_c, 15, 57, 0
20, 162960, Note_on_c, 15, 55, 90
20, 163019, Note_on_c, 15, 55, 0
20, 163020, Note_on_c, 15, 43, 90
20, 163079, Note_on_c, 15, 43, 0
20, 163080, Note_on_c, 15, 54, 90
20, 163139, Note_on_c, 15, 54, 0
20, 163140, Note_on_c, 15, 55, 90
20, 163199, Note_on_c, 15, 55, 0
20, 163200, Note_on_c, 15, 43, 90
20, 163259, Note_on_c, 15, 43, 0
20, 163260, Note_on_c, 15, 55, 90
20, 163379, Note_on_c, 15, 55, 0
20, 163380, Note_on_c, 15, 54, 90
20, 163439, Note_on_c, 15, 54, 0
20, 163440, Note_on_c, 15, 59, 90
20, 163499, Note_on_c, 15, 59, 0
20, 163500, Note_on_c, 15, 57, 90
20, 163559, Note_on_c, 15, 57, 0
20, 163560, Note_on_c, 15, 55, 90
20, 163619, Note_on_c, 15, 55, 0
20, 163620, Note_on_c, 15, 57, 90
20, 163679, Note_on_c, 15, 57, 0
20, 163680, Note_on_c, 15, 50, 90
20, 163799, Note_on_c, 15, 50, 0
20, 163920, Note_on_c, 15, 62, 90
20, 163979, Note_on_c, 15, 62, 0
20, 163980, Note_on_c, 15, 55, 90
20, 164039, Note_on_c, 15, 55, 0
20, 164040, Note_on_c, 15, 50, 90
20, 164159, Note_on_c, 15, 50, 0
20, 164280, Note_on_c, 15, 50, 90
20, 164339, Note_on_c, 15, 50, 0
20, 164340, Note_on_c, 15, 43, 90
20, 164399, Note_on_c, 15, 43, 0
20, 164400, Note_on_c, 15, 38, 90
20, 164579, Note_on_c, 15, 38, 0
20, 164579, End_track
21, 0, Start_track
21, 0, MIDI_port, 0
21, 0, Title_t, "J.S.BACH"
21, 0, End_track
22, 0, Start_track
22, 0, MIDI_port, 0
22, 0, Title_t, "CHRISTMAS ORATORIO"
22, 0, End_track
23, 0, Start_track
23, 0, MIDI_port, 0
23, 0, Title_t, "BWV 248"
23, 0, End_track
24, 0, Start_track
24, 0, MIDI_port, 0
24, 0, Title_t, "CANTANTA Nº3"
24, 0, End_track
25, 0, Start_track
25, 0, MIDI_port, 0
25, 0, Title_t, "Herrscher des Himmels erhöre das Lallen"
25, 0, End_track
26, 0, Start_track
26, 0, MIDI_port, 0
26, 0, Title_t, "SECUENCED BY"
26, 0, End_track
27, 0, Start_track
27, 0, MIDI_port, 0
27, 0, Title_t, "MARCELO COPIA M."
27, 0, End_track
28, 0, Start_track
28, 0, MIDI_port, 0
28, 0, Title_t, "mcopia@entelchile.net"
28, 0, End_track
0, 0, End_of_file
