0, 0, Header, 1, 19, 120
1, 0, Start_track
1, 0, Time_signature, 3, 2, 24, 8
1, 0, Key_signature, 3, "major"
1, 0, Tempo, 280374
1, 0, Marker_t, "Sinfonia"
1, 2880, Time_signature, 2, 2, 24, 8
1, 2880, Tempo, 600000
1, 4800, Time_signature, 6, 3, 12, 8
1, 4800, Tempo, 750000
1, 7620, Tempo, 600000
1, 7680, Time_signature, 2, 2, 24, 8
1, 11280, Time_signature, 3, 2, 24, 8
1, 11280, Key_signature, 0, "major"
1, 11280, Tempo, 857143
1, 17040, Time_signature, 2, 2, 24, 8
1, 17040, Tempo, 545455
1, 18720, Time_signature, 3, 2, 24, 8
1, 18720, Key_signature, 3, "major"
1, 18720, Tempo, 300000
1, 28080, Time_signature, 4, 2, 24, 8
1, 28080, Tempo, 400000
1, 28080, Marker_t, "Duetto Mer hahn en neue Oberkeet"
1, 40080, Tempo, 500000
1, 40080, Marker_t, "Recit. Nu, Miecke"
1, 47700, Tempo, 1000000
1, 47760, Time_signature, 3, 2, 24, 8
1, 47760, Tempo, 666667
1, 47760, Marker_t, "Arie Ach es schmeckt doch gar zu gut"
1, 58200, Time_signature, 4, 2, 24, 8
1, 58680, Key_signature, 2, "major"
1, 58680, Marker_t, "Recit. Der Her ist gut"
1, 62040, Time_signature, 3, 2, 24, 8
1, 62040, Marker_t, "Arie Ach Herr Schösser"
1, 74280, Time_signature, 4, 2, 24, 8
1, 74760, Marker_t, "Recit. Es bleibt da bei"
1, 77640, Time_signature, 3, 2, 24, 8
1, 77640, Tempo, 769231
1, 77640, Marker_t, "Arie Unser trefflicher lieber Kammerherr"
1, 97440, Time_signature, 4, 2, 24, 8
1, 97980, Marker_t, "Recit. Er hilft uns allen alt und jung"
1, 101760, Time_signature, 3, 2, 24, 8
1, 101760, Key_signature, 1, "major"
1, 101760, Tempo, 666667
1, 101760, Marker_t, "Arie Das ist galant"
1, 116520, Time_signature, 4, 2, 24, 8
1, 116520, Marker_t, "Recit. Undsre gnäd'ge"
1, 121800, Time_signature, 3, 2, 24, 8
1, 121800, Key_signature, -2, "major"
1, 121800, Marker_t, "Arie Fünfzig Thaler baares Geld"
1, 131160, Time_signature, 1, 2, 24, 8
1, 131280, Time_signature, 4, 2, 24, 8
1, 131280, Key_signature, 0, "major"
1, 131280, Marker_t, "Recit. Im Ernst ein Wort!"
1, 134640, Time_signature, 1, 2, 24, 8
1, 134760, Time_signature, 3, 3, 12, 8
1, 134760, Key_signature, 3, "major"
1, 134760, Tempo, 1000000
1, 134760, Marker_t, "Arie Klein Zschocher müsse so zart und süsse"
1, 177960, Time_signature, 4, 2, 24, 8
1, 177960, Key_signature, 2, "major"
1, 177960, Marker_t, "Recit Das ist zu klug"
1, 178080, Tempo, 750000
1, 180840, Time_signature, 6, 3, 12, 8
1, 180840, Key_signature, 1, "major"
1, 180840, Tempo, 500000
1, 180840, Marker_t, "Arie Es nehme zehtausend Ducaten"
1, 189840, Marker_t, "Recit. Das klingt"
1, 190560, Time_signature, 4, 2, 24, 8
1, 190620, Tempo, 750000
1, 192960, Time_signature, 1, 2, 24, 8
1, 192960, Key_signature, 2, "major"
1, 192960, Tempo, 600000
1, 192960, Marker_t, "Arie Gieb Schöne, viel Shöne"
1, 193080, Time_signature, 3, 2, 24, 8
1, 199560, Time_signature, 4, 2, 24, 8
1, 199560, Marker_t, "Recit Du hast Wohl recht"
1, 201960, Time_signature, 3, 3, 12, 8
1, 201960, Key_signature, 3, "major"
1, 201960, Tempo, 600000
1, 201960, Marker_t, "Aria. Dein Wachsthum sei feste"
1, 223560, Time_signature, 4, 2, 24, 8
1, 247080, Time_signature, 2, 2, 24, 8
1, 247320, Time_signature, 3, 3, 12, 8
1, 269280, Time_signature, 4, 2, 24, 8
1, 269280, Key_signature, 2, "major"
1, 269280, Tempo, 600000
1, 269280, Marker_t, "Recit. Und dammit"
1, 271200, Time_signature, 3, 2, 24, 8
1, 271560, Time_signature, 2, 2, 24, 8
1, 271560, Marker_t, "Aria Und dass ihr's alle wist"
1, 271680, Tempo, 400000
1, 271800, Time_signature, 4, 2, 24, 8
1, 287160, Key_signature, 1, "major"
1, 287160, Tempo, 600000
1, 287160, Marker_t, "Recit. Mein Schatz, errathen"
1, 291480, Time_signature, 2, 2, 24, 8
1, 291480, Key_signature, -1, "major"
1, 291480, Tempo, 461538
1, 291480, Marker_t, "Chor. Wir gehn nun woder Tudelsack"
1, 291720, Time_signature, 4, 2, 24, 8
1, 291720, End_track
2, 0, Start_track
2, 0, MIDI_port, 0
2, 0, Title_t, "Flauta"
2, 0, Program_c, 0, 73
2, 134760, Note_on_c, 0, 64, 110
2, 134761, Control_c, 0, 91, 96
2, 134819, Note_on_c, 0, 64, 0
2, 134820, Note_on_c, 0, 69, 110
2, 134879, Note_on_c, 0, 69, 0
2, 134880, Note_on_c, 0, 71, 110
2, 134939, Note_on_c, 0, 71, 0
2, 134940, Note_on_c, 0, 73, 110
2, 135059, Note_on_c, 0, 73, 0
2, 135060, Note_on_c, 0, 71, 110
2, 135119, Note_on_c, 0, 71, 0
2, 135120, Note_on_c, 0, 64, 110
2, 135179, Note_on_c, 0, 64, 0
2, 135180, Note_on_c, 0, 71, 110
2, 135239, Note_on_c, 0, 71, 0
2, 135240, Note_on_c, 0, 73, 110
2, 135299, Note_on_c, 0, 73, 0
2, 135300, Note_on_c, 0, 74, 110
2, 135419, Note_on_c, 0, 74, 0
2, 135420, Note_on_c, 0, 73, 110
2, 135479, Note_on_c, 0, 73, 0
2, 135480, Note_on_c, 0, 76, 110
2, 135539, Note_on_c, 0, 76, 0
2, 135540, Note_on_c, 0, 76, 110
2, 135599, Note_on_c, 0, 76, 0
2, 135600, Note_on_c, 0, 76, 110
2, 135659, Note_on_c, 0, 76, 0
2, 135660, Note_on_c, 0, 76, 110
2, 135719, Note_on_c, 0, 76, 0
2, 135720, Note_on_c, 0, 74, 110
2, 135749, Note_on_c, 0, 74, 0
2, 135750, Note_on_c, 0, 73, 110
2, 135779, Note_on_c, 0, 73, 0
2, 135780, Note_on_c, 0, 71, 110
2, 135809, Note_on_c, 0, 71, 0
2, 135810, Note_on_c, 0, 69, 110
2, 135839, Note_on_c, 0, 69, 0
2, 135840, Note_on_c, 0, 68, 110
2, 135899, Note_on_c, 0, 68, 0
2, 135900, Note_on_c, 0, 74, 110
2, 135959, Note_on_c, 0, 74, 0
2, 135960, Note_on_c, 0, 73, 110
2, 136019, Note_on_c, 0, 73, 0
2, 136020, Note_on_c, 0, 73, 110
2, 136079, Note_on_c, 0, 73, 0
2, 136080, Note_on_c, 0, 71, 110
2, 136200, Note_on_c, 0, 71, 0
2, 136200, Note_on_c, 0, 64, 110
2, 136229, Note_on_c, 0, 64, 0
2, 136230, Note_on_c, 0, 66, 110
2, 136245, Note_on_c, 0, 66, 0
2, 136245, Note_on_c, 0, 68, 110
2, 136260, Note_on_c, 0, 68, 0
2, 136260, Note_on_c, 0, 69, 110
2, 136289, Note_on_c, 0, 69, 0
2, 136290, Note_on_c, 0, 64, 110
2, 136319, Note_on_c, 0, 64, 0
2, 136320, Note_on_c, 0, 71, 110
2, 136349, Note_on_c, 0, 71, 0
2, 136350, Note_on_c, 0, 64, 110
2, 136379, Note_on_c, 0, 64, 0
2, 136379, Note_on_c, 0, 73, 110
2, 136393, Note_on_c, 0, 73, 0
2, 136394, Note_on_c, 0, 71, 110
2, 136408, Note_on_c, 0, 71, 0
2, 136409, Note_on_c, 0, 69, 110
2, 136423, Note_on_c, 0, 69, 0
2, 136424, Note_on_c, 0, 68, 110
2, 136438, Note_on_c, 0, 68, 0
2, 136439, Note_on_c, 0, 69, 110
2, 136468, Note_on_c, 0, 69, 0
2, 136469, Note_on_c, 0, 73, 110
2, 136498, Note_on_c, 0, 73, 0
2, 136499, Note_on_c, 0, 71, 110
2, 136528, Note_on_c, 0, 71, 0
2, 136529, Note_on_c, 0, 68, 110
2, 136558, Note_on_c, 0, 68, 0
2, 136559, Note_on_c, 0, 64, 110
2, 136573, Note_on_c, 0, 64, 0
2, 136574, Note_on_c, 0, 66, 110
2, 136588, Note_on_c, 0, 66, 0
2, 136589, Note_on_c, 0, 68, 110
2, 136603, Note_on_c, 0, 68, 0
2, 136604, Note_on_c, 0, 69, 110
2, 136618, Note_on_c, 0, 69, 0
2, 136619, Note_on_c, 0, 71, 110
2, 136648, Note_on_c, 0, 71, 0
2, 136649, Note_on_c, 0, 64, 110
2, 136678, Note_on_c, 0, 64, 0
2, 136679, Note_on_c, 0, 73, 110
2, 136708, Note_on_c, 0, 73, 0
2, 136709, Note_on_c, 0, 64, 110
2, 136738, Note_on_c, 0, 64, 0
2, 136739, Note_on_c, 0, 74, 110
2, 136753, Note_on_c, 0, 74, 0
2, 136754, Note_on_c, 0, 73, 110
2, 136768, Note_on_c, 0, 73, 0
2, 136769, Note_on_c, 0, 71, 110
2, 136783, Note_on_c, 0, 71, 0
2, 136784, Note_on_c, 0, 69, 110
2, 136798, Note_on_c, 0, 69, 0
2, 136799, Note_on_c, 0, 71, 110
2, 136828, Note_on_c, 0, 71, 0
2, 136829, Note_on_c, 0, 74, 110
2, 136858, Note_on_c, 0, 74, 0
2, 136859, Note_on_c, 0, 73, 110
2, 136888, Note_on_c, 0, 73, 0
2, 136889, Note_on_c, 0, 69, 110
2, 136918, Note_on_c, 0, 69, 0
2, 136920, Note_on_c, 0, 64, 110
2, 136949, Note_on_c, 0, 64, 0
2, 136950, Note_on_c, 0, 76, 110
2, 136979, Note_on_c, 0, 76, 0
2, 136980, Note_on_c, 0, 69, 110
2, 137009, Note_on_c, 0, 69, 0
2, 137010, Note_on_c, 0, 76, 110
2, 137039, Note_on_c, 0, 76, 0
2, 137040, Note_on_c, 0, 71, 110
2, 137069, Note_on_c, 0, 71, 0
2, 137070, Note_on_c, 0, 76, 110
2, 137099, Note_on_c, 0, 76, 0
2, 137100, Note_on_c, 0, 73, 110
2, 137129, Note_on_c, 0, 73, 0
2, 137130, Note_on_c, 0, 76, 110
2, 137159, Note_on_c, 0, 76, 0
2, 137160, Note_on_c, 0, 74, 110
2, 137189, Note_on_c, 0, 74, 0
2, 137190, Note_on_c, 0, 73, 110
2, 137219, Note_on_c, 0, 73, 0
2, 137220, Note_on_c, 0, 71, 110
2, 137249, Note_on_c, 0, 71, 0
2, 137250, Note_on_c, 0, 69, 110
2, 137279, Note_on_c, 0, 69, 0
2, 137280, Note_on_c, 0, 68, 110
2, 137294, Note_on_c, 0, 68, 0
2, 137295, Note_on_c, 0, 69, 110
2, 137309, Note_on_c, 0, 69, 0
2, 137310, Note_on_c, 0, 71, 110
2, 137324, Note_on_c, 0, 71, 0
2, 137325, Note_on_c, 0, 73, 110
2, 137339, Note_on_c, 0, 73, 0
2, 137340, Note_on_c, 0, 74, 110
2, 137369, Note_on_c, 0, 74, 0
2, 137370, Note_on_c, 0, 71, 110
2, 137399, Note_on_c, 0, 71, 0
2, 137400, Note_on_c, 0, 73, 110
2, 137429, Note_on_c, 0, 73, 0
2, 137430, Note_on_c, 0, 69, 110
2, 137459, Note_on_c, 0, 69, 0
2, 137460, Note_on_c, 0, 71, 110
2, 137474, Note_on_c, 0, 71, 0
2, 137475, Note_on_c, 0, 76, 110
2, 137489, Note_on_c, 0, 76, 0
2, 137490, Note_on_c, 0, 74, 110
2, 137504, Note_on_c, 0, 74, 0
2, 137505, Note_on_c, 0, 73, 110
2, 137519, Note_on_c, 0, 73, 0
2, 137520, Note_on_c, 0, 71, 110
2, 137534, Note_on_c, 0, 71, 0
2, 137535, Note_on_c, 0, 69, 110
2, 137549, Note_on_c, 0, 69, 0
2, 137550, Note_on_c, 0, 68, 110
2, 137564, Note_on_c, 0, 68, 0
2, 137565, Note_on_c, 0, 66, 110
2, 137579, Note_on_c, 0, 66, 0
2, 137580, Note_on_c, 0, 64, 110
2, 137639, Note_on_c, 0, 64, 0
2, 137640, Note_on_c, 0, 76, 110
2, 137699, Note_on_c, 0, 76, 0
2, 137700, Note_on_c, 0, 74, 110
2, 137759, Note_on_c, 0, 74, 0
2, 137760, Note_on_c, 0, 73, 110
2, 137819, Note_on_c, 0, 73, 0
2, 137820, Note_on_c, 0, 74, 110
2, 137909, Note_on_c, 0, 74, 0
2, 137910, Note_on_c, 0, 76, 110
2, 137924, Note_on_c, 0, 76, 0
2, 137925, Note_on_c, 0, 78, 110
2, 137939, Note_on_c, 0, 78, 0
2, 137940, Note_on_c, 0, 76, 110
2, 137999, Note_on_c, 0, 76, 0
2, 138000, Note_on_c, 0, 74, 110
2, 138059, Note_on_c, 0, 74, 0
2, 138060, Note_on_c, 0, 73, 110
2, 138119, Note_on_c, 0, 73, 0
2, 138120, Note_on_c, 0, 71, 110
2, 138179, Note_on_c, 0, 71, 0
2, 138180, Note_on_c, 0, 73, 110
2, 138269, Note_on_c, 0, 73, 0
2, 138270, Note_on_c, 0, 74, 110
2, 138284, Note_on_c, 0, 74, 0
2, 138285, Note_on_c, 0, 76, 110
2, 138299, Note_on_c, 0, 76, 0
2, 138300, Note_on_c, 0, 74, 110
2, 138359, Note_on_c, 0, 74, 0
2, 138360, Note_on_c, 0, 64, 110
2, 138419, Note_on_c, 0, 64, 0
2, 138420, Note_on_c, 0, 64, 110
2, 138479, Note_on_c, 0, 64, 0
2, 138480, Note_on_c, 0, 64, 110
2, 138539, Note_on_c, 0, 64, 0
2, 138540, Note_on_c, 0, 64, 110
2, 138599, Note_on_c, 0, 64, 0
2, 138600, Note_on_c, 0, 66, 110
2, 138629, Note_on_c, 0, 66, 0
2, 138630, Note_on_c, 0, 68, 110
2, 138659, Note_on_c, 0, 68, 0
2, 138660, Note_on_c, 0, 69, 110
2, 138689, Note_on_c, 0, 69, 0
2, 138690, Note_on_c, 0, 71, 110
2, 138719, Note_on_c, 0, 71, 0
2, 138720, Note_on_c, 0, 73, 110
2, 138779, Note_on_c, 0, 73, 0
2, 138780, Note_on_c, 0, 74, 110
2, 138839, Note_on_c, 0, 74, 0
2, 138840, Note_on_c, 0, 71, 110
2, 138849, Note_on_c, 0, 71, 0
2, 138850, Note_on_c, 0, 73, 110
2, 138859, Note_on_c, 0, 73, 0
2, 138860, Note_on_c, 0, 71, 110
2, 138869, Note_on_c, 0, 71, 0
2, 138870, Note_on_c, 0, 73, 110
2, 138879, Note_on_c, 0, 73, 0
2, 138880, Note_on_c, 0, 71, 110
2, 138889, Note_on_c, 0, 71, 0
2, 138900, Note_on_c, 0, 69, 110
2, 139080, Note_on_c, 0, 69, 0
2, 139080, Note_on_c, 0, 76, 110
2, 139094, Note_on_c, 0, 76, 0
2, 139095, Note_on_c, 0, 74, 110
2, 139109, Note_on_c, 0, 74, 0
2, 139110, Note_on_c, 0, 73, 110
2, 139124, Note_on_c, 0, 73, 0
2, 139125, Note_on_c, 0, 76, 110
2, 139139, Note_on_c, 0, 76, 0
2, 139140, Note_on_c, 0, 74, 110
2, 139169, Note_on_c, 0, 74, 0
2, 139170, Note_on_c, 0, 69, 110
2, 139199, Note_on_c, 0, 69, 0
2, 139200, Note_on_c, 0, 73, 110
2, 139229, Note_on_c, 0, 73, 0
2, 139230, Note_on_c, 0, 69, 110
2, 139259, Note_on_c, 0, 69, 0
2, 139260, Note_on_c, 0, 74, 110
2, 139289, Note_on_c, 0, 74, 0
2, 139290, Note_on_c, 0, 69, 110
2, 139319, Note_on_c, 0, 69, 0
2, 139320, Note_on_c, 0, 78, 110
2, 139349, Note_on_c, 0, 78, 0
2, 139350, Note_on_c, 0, 69, 110
2, 139379, Note_on_c, 0, 69, 0
2, 139380, Note_on_c, 0, 76, 110
2, 139409, Note_on_c, 0, 76, 0
2, 139410, Note_on_c, 0, 69, 110
2, 139439, Note_on_c, 0, 69, 0
2, 139440, Note_on_c, 0, 74, 110
2, 139454, Note_on_c, 0, 74, 0
2, 139455, Note_on_c, 0, 73, 110
2, 139469, Note_on_c, 0, 73, 0
2, 139470, Note_on_c, 0, 71, 110
2, 139484, Note_on_c, 0, 71, 0
2, 139485, Note_on_c, 0, 74, 110
2, 139499, Note_on_c, 0, 74, 0
2, 139500, Note_on_c, 0, 73, 110
2, 139529, Note_on_c, 0, 73, 0
2, 139530, Note_on_c, 0, 68, 110
2, 139559, Note_on_c, 0, 68, 0
2, 139560, Note_on_c, 0, 71, 110
2, 139589, Note_on_c, 0, 71, 0
2, 139590, Note_on_c, 0, 68, 110
2, 139619, Note_on_c, 0, 68, 0
2, 139620, Note_on_c, 0, 73, 110
2, 139649, Note_on_c, 0, 73, 0
2, 139650, Note_on_c, 0, 68, 110
2, 139679, Note_on_c, 0, 68, 0
2, 139680, Note_on_c, 0, 76, 110
2, 139709, Note_on_c, 0, 76, 0
2, 139710, Note_on_c, 0, 68, 110
2, 139739, Note_on_c, 0, 68, 0
2, 139740, Note_on_c, 0, 74, 110
2, 139769, Note_on_c, 0, 74, 0
2, 139770, Note_on_c, 0, 68, 110
2, 139799, Note_on_c, 0, 68, 0
2, 139800, Note_on_c, 0, 73, 110
2, 139814, Note_on_c, 0, 73, 0
2, 139815, Note_on_c, 0, 71, 110
2, 139829, Note_on_c, 0, 71, 0
2, 139830, Note_on_c, 0, 69, 110
2, 139844, Note_on_c, 0, 69, 0
2, 139845, Note_on_c, 0, 73, 110
2, 139859, Note_on_c, 0, 73, 0
2, 139860, Note_on_c, 0, 71, 110
2, 139874, Note_on_c, 0, 71, 0
2, 139875, Note_on_c, 0, 69, 110
2, 139889, Note_on_c, 0, 69, 0
2, 139890, Note_on_c, 0, 68, 110
2, 139904, Note_on_c, 0, 68, 0
2, 139905, Note_on_c, 0, 71, 110
2, 139919, Note_on_c, 0, 71, 0
2, 139920, Note_on_c, 0, 69, 110
2, 139934, Note_on_c, 0, 69, 0
2, 139935, Note_on_c, 0, 68, 110
2, 139949, Note_on_c, 0, 68, 0
2, 139950, Note_on_c, 0, 66, 110
2, 139964, Note_on_c, 0, 66, 0
2, 139965, Note_on_c, 0, 69, 110
2, 139979, Note_on_c, 0, 69, 0
2, 139980, Note_on_c, 0, 68, 110
2, 140009, Note_on_c, 0, 68, 0
2, 140010, Note_on_c, 0, 64, 110
2, 140039, Note_on_c, 0, 64, 0
2, 140040, Note_on_c, 0, 66, 110
2, 140069, Note_on_c, 0, 66, 0
2, 140070, Note_on_c, 0, 68, 110
2, 140099, Note_on_c, 0, 68, 0
2, 140100, Note_on_c, 0, 69, 110
2, 140129, Note_on_c, 0, 69, 0
2, 140130, Note_on_c, 0, 71, 110
2, 140159, Note_on_c, 0, 71, 0
2, 140160, Note_on_c, 0, 73, 110
2, 140189, Note_on_c, 0, 73, 0
2, 140190, Note_on_c, 0, 74, 110
2, 140204, Note_on_c, 0, 74, 0
2, 140205, Note_on_c, 0, 76, 110
2, 140219, Note_on_c, 0, 76, 0
2, 140220, Note_on_c, 0, 74, 110
2, 140249, Note_on_c, 0, 74, 0
2, 140250, Note_on_c, 0, 73, 110
2, 140279, Note_on_c, 0, 73, 0
2, 140280, Note_on_c, 0, 71, 110
2, 140309, Note_on_c, 0, 71, 0
2, 140310, Note_on_c, 0, 73, 110
2, 140339, Note_on_c, 0, 73, 0
2, 140340, Note_on_c, 0, 69, 110
2, 140369, Note_on_c, 0, 69, 0
2, 140370, Note_on_c, 0, 71, 110
2, 140384, Note_on_c, 0, 71, 0
2, 140385, Note_on_c, 0, 73, 110
2, 140399, Note_on_c, 0, 73, 0
2, 140400, Note_on_c, 0, 74, 110
2, 140414, Note_on_c, 0, 74, 0
2, 140415, Note_on_c, 0, 76, 110
2, 140429, Note_on_c, 0, 76, 0
2, 140430, Note_on_c, 0, 78, 110
2, 140444, Note_on_c, 0, 78, 0
2, 140445, Note_on_c, 0, 80, 110
2, 140459, Note_on_c, 0, 80, 0
2, 140460, Note_on_c, 0, 81, 110
2, 140519, Note_on_c, 0, 81, 0
2, 140520, Note_on_c, 0, 73, 110
2, 140539, Note_on_c, 0, 73, 0
2, 140540, Note_on_c, 0, 71, 110
2, 140559, Note_on_c, 0, 71, 0
2, 140560, Note_on_c, 0, 69, 110
2, 140579, Note_on_c, 0, 69, 0
2, 140580, Note_on_c, 0, 64, 110
2, 140729, Note_on_c, 0, 64, 0
2, 140730, Note_on_c, 0, 66, 110
2, 140759, Note_on_c, 0, 66, 0
2, 140760, Note_on_c, 0, 68, 110
2, 140789, Note_on_c, 0, 68, 0
2, 140790, Note_on_c, 0, 69, 110
2, 140819, Note_on_c, 0, 69, 0
2, 140820, Note_on_c, 0, 71, 110
2, 140849, Note_on_c, 0, 71, 0
2, 140850, Note_on_c, 0, 73, 110
2, 140879, Note_on_c, 0, 73, 0
2, 140880, Note_on_c, 0, 74, 110
2, 140899, Note_on_c, 0, 74, 0
2, 140900, Note_on_c, 0, 73, 110
2, 140919, Note_on_c, 0, 73, 0
2, 140920, Note_on_c, 0, 71, 110
2, 140939, Note_on_c, 0, 71, 0
2, 140940, Note_on_c, 0, 64, 110
2, 141089, Note_on_c, 0, 64, 0
2, 141090, Note_on_c, 0, 68, 110
2, 141119, Note_on_c, 0, 68, 0
2, 141120, Note_on_c, 0, 69, 110
2, 141149, Note_on_c, 0, 69, 0
2, 141150, Note_on_c, 0, 71, 110
2, 141179, Note_on_c, 0, 71, 0
2, 141180, Note_on_c, 0, 73, 110
2, 141209, Note_on_c, 0, 73, 0
2, 141210, Note_on_c, 0, 74, 110
2, 141239, Note_on_c, 0, 74, 0
2, 141240, Note_on_c, 0, 76, 110
2, 141259, Note_on_c, 0, 76, 0
2, 141260, Note_on_c, 0, 74, 110
2, 141279, Note_on_c, 0, 74, 0
2, 141280, Note_on_c, 0, 73, 110
2, 141299, Note_on_c, 0, 73, 0
2, 141300, Note_on_c, 0, 74, 110
2, 141319, Note_on_c, 0, 74, 0
2, 141320, Note_on_c, 0, 73, 110
2, 141339, Note_on_c, 0, 73, 0
2, 141340, Note_on_c, 0, 71, 110
2, 141359, Note_on_c, 0, 71, 0
2, 141360, Note_on_c, 0, 73, 110
2, 141379, Note_on_c, 0, 73, 0
2, 141380, Note_on_c, 0, 71, 110
2, 141399, Note_on_c, 0, 71, 0
2, 141400, Note_on_c, 0, 69, 110
2, 141419, Note_on_c, 0, 69, 0
2, 141420, Note_on_c, 0, 68, 110
2, 141439, Note_on_c, 0, 68, 0
2, 141440, Note_on_c, 0, 69, 110
2, 141459, Note_on_c, 0, 69, 0
2, 141460, Note_on_c, 0, 71, 110
2, 141479, Note_on_c, 0, 71, 0
2, 141480, Note_on_c, 0, 71, 110
2, 141499, Note_on_c, 0, 71, 0
2, 141500, Note_on_c, 0, 73, 110
2, 141519, Note_on_c, 0, 73, 0
2, 141520, Note_on_c, 0, 74, 110
2, 141539, Note_on_c, 0, 74, 0
2, 141540, Note_on_c, 0, 74, 110
2, 141559, Note_on_c, 0, 74, 0
2, 141560, Note_on_c, 0, 76, 110
2, 141579, Note_on_c, 0, 76, 0
2, 141580, Note_on_c, 0, 78, 110
2, 141599, Note_on_c, 0, 78, 0
2, 141600, Note_on_c, 0, 71, 110
2, 141619, Note_on_c, 0, 71, 0
2, 141620, Note_on_c, 0, 73, 110
2, 141639, Note_on_c, 0, 73, 0
2, 141640, Note_on_c, 0, 74, 110
2, 141659, Note_on_c, 0, 74, 0
2, 141660, Note_on_c, 0, 69, 110
2, 141689, Note_on_c, 0, 69, 0
2, 141690, Note_on_c, 0, 68, 110
2, 141749, Note_on_c, 0, 68, 0
2, 141750, Note_on_c, 0, 69, 110
2, 141779, Note_on_c, 0, 69, 0
2, 141780, Note_on_c, 0, 69, 110
2, 141799, Note_on_c, 0, 69, 0
2, 141800, Note_on_c, 0, 68, 110
2, 141819, Note_on_c, 0, 68, 0
2, 141820, Note_on_c, 0, 66, 110
2, 141839, Note_on_c, 0, 66, 0
2, 141840, Note_on_c, 0, 68, 110
2, 141859, Note_on_c, 0, 68, 0
2, 141860, Note_on_c, 0, 71, 110
2, 141879, Note_on_c, 0, 71, 0
2, 141880, Note_on_c, 0, 69, 110
2, 141899, Note_on_c, 0, 69, 0
2, 141900, Note_on_c, 0, 68, 110
2, 141919, Note_on_c, 0, 68, 0
2, 141920, Note_on_c, 0, 66, 110
2, 141939, Note_on_c, 0, 66, 0
2, 141940, Note_on_c, 0, 64, 110
2, 141959, Note_on_c, 0, 64, 0
2, 141960, Note_on_c, 0, 76, 110
2, 143340, Note_on_c, 0, 76, 0
2, 143400, Note_on_c, 0, 69, 110
2, 143419, Note_on_c, 0, 69, 0
2, 143420, Note_on_c, 0, 71, 110
2, 143439, Note_on_c, 0, 71, 0
2, 143440, Note_on_c, 0, 73, 110
2, 143459, Note_on_c, 0, 73, 0
2, 143460, Note_on_c, 0, 79, 110
2, 143600, Note_on_c, 0, 79, 0
2, 143600, Note_on_c, 0, 81, 110
2, 143619, Note_on_c, 0, 81, 0
2, 143620, Note_on_c, 0, 79, 110
2, 143639, Note_on_c, 0, 79, 0
2, 143640, Note_on_c, 0, 78, 110
2, 143659, Note_on_c, 0, 78, 0
2, 143660, Note_on_c, 0, 76, 110
2, 143679, Note_on_c, 0, 76, 0
2, 143680, Note_on_c, 0, 74, 110
2, 143699, Note_on_c, 0, 74, 0
2, 143700, Note_on_c, 0, 73, 110
2, 143719, Note_on_c, 0, 73, 0
2, 143720, Note_on_c, 0, 71, 110
2, 143739, Note_on_c, 0, 71, 0
2, 143740, Note_on_c, 0, 69, 110
2, 143759, Note_on_c, 0, 69, 0
2, 143760, Note_on_c, 0, 69, 110
2, 143779, Note_on_c, 0, 69, 0
2, 143780, Note_on_c, 0, 71, 110
2, 143799, Note_on_c, 0, 71, 0
2, 143800, Note_on_c, 0, 73, 110
2, 143819, Note_on_c, 0, 73, 0
2, 143820, Note_on_c, 0, 78, 110
2, 143909, Note_on_c, 0, 78, 0
2, 143910, Note_on_c, 0, 79, 110
2, 143924, Note_on_c, 0, 79, 0
2, 143925, Note_on_c, 0, 81, 110
2, 143939, Note_on_c, 0, 81, 0
2, 143940, Note_on_c, 0, 81, 110
2, 143959, Note_on_c, 0, 81, 0
2, 143960, Note_on_c, 0, 79, 110
2, 143979, Note_on_c, 0, 79, 0
2, 143980, Note_on_c, 0, 78, 110
2, 143999, Note_on_c, 0, 78, 0
2, 144000, Note_on_c, 0, 79, 110
2, 144019, Note_on_c, 0, 79, 0
2, 144020, Note_on_c, 0, 78, 110
2, 144039, Note_on_c, 0, 78, 0
2, 144040, Note_on_c, 0, 76, 110
2, 144059, Note_on_c, 0, 76, 0
2, 144060, Note_on_c, 0, 78, 110
2, 144079, Note_on_c, 0, 78, 0
2, 144080, Note_on_c, 0, 76, 110
2, 144099, Note_on_c, 0, 76, 0
2, 144100, Note_on_c, 0, 74, 110
2, 144119, Note_on_c, 0, 74, 0
2, 144120, Note_on_c, 0, 73, 110
2, 144139, Note_on_c, 0, 73, 0
2, 144140, Note_on_c, 0, 71, 110
2, 144159, Note_on_c, 0, 71, 0
2, 144160, Note_on_c, 0, 69, 110
2, 144179, Note_on_c, 0, 69, 0
2, 144180, Note_on_c, 0, 64, 110
2, 144199, Note_on_c, 0, 64, 0
2, 144200, Note_on_c, 0, 69, 110
2, 144219, Note_on_c, 0, 69, 0
2, 144220, Note_on_c, 0, 73, 110
2, 144239, Note_on_c, 0, 73, 0
2, 144240, Note_on_c, 0, 69, 110
2, 144259, Note_on_c, 0, 69, 0
2, 144260, Note_on_c, 0, 73, 110
2, 144279, Note_on_c, 0, 73, 0
2, 144280, Note_on_c, 0, 76, 110
2, 144299, Note_on_c, 0, 76, 0
2, 144300, Note_on_c, 0, 73, 110
2, 144319, Note_on_c, 0, 73, 0
2, 144320, Note_on_c, 0, 76, 110
2, 144339, Note_on_c, 0, 76, 0
2, 144340, Note_on_c, 0, 81, 110
2, 144359, Note_on_c, 0, 81, 0
2, 144360, Note_on_c, 0, 71, 110
2, 144449, Note_on_c, 0, 71, 0
2, 144450, Note_on_c, 0, 73, 110
2, 144464, Note_on_c, 0, 73, 0
2, 144465, Note_on_c, 0, 74, 110
2, 144479, Note_on_c, 0, 74, 0
2, 144480, Note_on_c, 0, 73, 110
2, 144499, Note_on_c, 0, 73, 0
2, 144500, Note_on_c, 0, 71, 110
2, 144519, Note_on_c, 0, 71, 0
2, 144520, Note_on_c, 0, 69, 110
2, 144539, Note_on_c, 0, 69, 0
2, 144540, Note_on_c, 0, 78, 110
2, 144620, Note_on_c, 0, 78, 0
2, 144620, Note_on_c, 0, 76, 110
2, 144640, Note_on_c, 0, 76, 0
2, 144640, Note_on_c, 0, 74, 110
2, 144660, Note_on_c, 0, 74, 0
2, 144660, Note_on_c, 0, 73, 110
2, 144680, Note_on_c, 0, 73, 0
2, 144680, Note_on_c, 0, 74, 110
2, 144700, Note_on_c, 0, 74, 0
2, 144700, Note_on_c, 0, 76, 110
2, 144720, Note_on_c, 0, 76, 0
2, 144720, Note_on_c, 0, 69, 110
2, 144740, Note_on_c, 0, 69, 0
2, 144740, Note_on_c, 0, 73, 110
2, 144760, Note_on_c, 0, 73, 0
2, 144760, Note_on_c, 0, 74, 110
2, 144780, Note_on_c, 0, 74, 0
2, 144780, Note_on_c, 0, 76, 110
2, 144800, Note_on_c, 0, 76, 0
2, 144800, Note_on_c, 0, 78, 110
2, 144820, Note_on_c, 0, 78, 0
2, 144820, Note_on_c, 0, 80, 110
2, 144840, Note_on_c, 0, 80, 0
2, 144840, Note_on_c, 0, 81, 110
2, 145940, Note_on_c, 0, 81, 0
2, 145940, Note_on_c, 0, 80, 110
2, 145959, Note_on_c, 0, 80, 0
2, 145960, Note_on_c, 0, 78, 110
2, 145979, Note_on_c, 0, 78, 0
2, 145980, Note_on_c, 0, 78, 110
2, 145999, Note_on_c, 0, 78, 0
2, 146000, Note_on_c, 0, 76, 110
2, 146019, Note_on_c, 0, 76, 0
2, 146020, Note_on_c, 0, 74, 110
2, 146039, Note_on_c, 0, 74, 0
2, 146040, Note_on_c, 0, 74, 110
2, 146059, Note_on_c, 0, 74, 0
2, 146060, Note_on_c, 0, 73, 110
2, 146079, Note_on_c, 0, 73, 0
2, 146080, Note_on_c, 0, 71, 110
2, 146099, Note_on_c, 0, 71, 0
2, 146100, Note_on_c, 0, 73, 110
2, 146119, Note_on_c, 0, 73, 0
2, 146120, Note_on_c, 0, 69, 110
2, 146139, Note_on_c, 0, 69, 0
2, 146140, Note_on_c, 0, 73, 110
2, 146159, Note_on_c, 0, 73, 0
2, 146160, Note_on_c, 0, 76, 110
2, 146179, Note_on_c, 0, 76, 0
2, 146180, Note_on_c, 0, 73, 110
2, 146199, Note_on_c, 0, 73, 0
2, 146200, Note_on_c, 0, 76, 110
2, 146219, Note_on_c, 0, 76, 0
2, 146220, Note_on_c, 0, 81, 110
2, 146239, Note_on_c, 0, 81, 0
2, 146240, Note_on_c, 0, 76, 110
2, 146259, Note_on_c, 0, 76, 0
2, 146260, Note_on_c, 0, 73, 110
2, 146279, Note_on_c, 0, 73, 0
2, 146280, Note_on_c, 0, 69, 110
2, 146299, Note_on_c, 0, 69, 0
2, 146300, Note_on_c, 0, 73, 110
2, 146319, Note_on_c, 0, 73, 0
2, 146320, Note_on_c, 0, 76, 110
2, 146339, Note_on_c, 0, 76, 0
2, 146340, Note_on_c, 0, 81, 110
2, 146359, Note_on_c, 0, 81, 0
2, 146360, Note_on_c, 0, 76, 110
2, 146379, Note_on_c, 0, 76, 0
2, 146380, Note_on_c, 0, 81, 110
2, 146399, Note_on_c, 0, 81, 0
2, 146400, Note_on_c, 0, 83, 110
2, 146419, Note_on_c, 0, 83, 0
2, 146420, Note_on_c, 0, 76, 110
2, 146439, Note_on_c, 0, 76, 0
2, 146440, Note_on_c, 0, 83, 110
2, 146459, Note_on_c, 0, 83, 0
2, 146460, Note_on_c, 0, 85, 110
2, 146479, Note_on_c, 0, 85, 0
2, 146480, Note_on_c, 0, 76, 110
2, 146499, Note_on_c, 0, 76, 0
2, 146500, Note_on_c, 0, 74, 110
2, 146519, Note_on_c, 0, 74, 0
2, 146520, Note_on_c, 0, 73, 110
2, 146539, Note_on_c, 0, 73, 0
2, 146540, Note_on_c, 0, 71, 110
2, 146559, Note_on_c, 0, 71, 0
2, 146560, Note_on_c, 0, 69, 110
2, 146579, Note_on_c, 0, 69, 0
2, 146580, Note_on_c, 0, 71, 110
2, 146599, Note_on_c, 0, 71, 0
2, 146600, Note_on_c, 0, 64, 110
2, 146619, Note_on_c, 0, 64, 0
2, 146620, Note_on_c, 0, 68, 110
2, 146639, Note_on_c, 0, 68, 0
2, 146640, Note_on_c, 0, 71, 110
2, 146659, Note_on_c, 0, 71, 0
2, 146660, Note_on_c, 0, 76, 110
2, 146679, Note_on_c, 0, 76, 0
2, 146680, Note_on_c, 0, 80, 110
2, 146699, Note_on_c, 0, 80, 0
2, 146700, Note_on_c, 0, 83, 110
2, 146719, Note_on_c, 0, 83, 0
2, 146720, Note_on_c, 0, 76, 110
2, 146739, Note_on_c, 0, 76, 0
2, 146740, Note_on_c, 0, 83, 110
2, 146759, Note_on_c, 0, 83, 0
2, 146760, Note_on_c, 0, 85, 110
2, 146779, Note_on_c, 0, 85, 0
2, 146780, Note_on_c, 0, 81, 110
2, 146799, Note_on_c, 0, 81, 0
2, 146800, Note_on_c, 0, 85, 110
2, 146819, Note_on_c, 0, 85, 0
2, 146820, Note_on_c, 0, 86, 110
2, 146839, Note_on_c, 0, 86, 0
2, 146840, Note_on_c, 0, 78, 110
2, 146859, Note_on_c, 0, 78, 0
2, 146860, Note_on_c, 0, 76, 110
2, 146879, Note_on_c, 0, 76, 0
2, 146880, Note_on_c, 0, 74, 110
2, 146899, Note_on_c, 0, 74, 0
2, 146900, Note_on_c, 0, 73, 110
2, 146919, Note_on_c, 0, 73, 0
2, 146920, Note_on_c, 0, 71, 110
2, 146939, Note_on_c, 0, 71, 0
2, 146940, Note_on_c, 0, 73, 110
2, 146959, Note_on_c, 0, 73, 0
2, 146960, Note_on_c, 0, 64, 110
2, 146979, Note_on_c, 0, 64, 0
2, 146980, Note_on_c, 0, 69, 110
2, 146999, Note_on_c, 0, 69, 0
2, 147000, Note_on_c, 0, 73, 110
2, 147019, Note_on_c, 0, 73, 0
2, 147020, Note_on_c, 0, 76, 110
2, 147039, Note_on_c, 0, 76, 0
2, 147040, Note_on_c, 0, 81, 110
2, 147059, Note_on_c, 0, 81, 0
2, 147060, Note_on_c, 0, 85, 110
2, 147079, Note_on_c, 0, 85, 0
2, 147080, Note_on_c, 0, 69, 110
2, 147099, Note_on_c, 0, 69, 0
2, 147100, Note_on_c, 0, 73, 110
2, 147119, Note_on_c, 0, 73, 0
2, 147120, Note_on_c, 0, 76, 110
2, 147139, Note_on_c, 0, 76, 0
2, 147140, Note_on_c, 0, 73, 110
2, 147159, Note_on_c, 0, 73, 0
2, 147160, Note_on_c, 0, 76, 110
2, 147179, Note_on_c, 0, 76, 0
2, 147180, Note_on_c, 0, 81, 110
2, 147199, Note_on_c, 0, 81, 0
2, 147200, Note_on_c, 0, 76, 110
2, 147219, Note_on_c, 0, 76, 0
2, 147220, Note_on_c, 0, 73, 110
2, 147239, Note_on_c, 0, 73, 0
2, 147240, Note_on_c, 0, 69, 110
2, 147259, Note_on_c, 0, 69, 0
2, 147260, Note_on_c, 0, 74, 110
2, 147279, Note_on_c, 0, 74, 0
2, 147280, Note_on_c, 0, 73, 110
2, 147299, Note_on_c, 0, 73, 0
2, 147300, Note_on_c, 0, 71, 110
2, 147319, Note_on_c, 0, 71, 0
2, 147320, Note_on_c, 0, 73, 110
2, 147339, Note_on_c, 0, 73, 0
2, 147340, Note_on_c, 0, 69, 110
2, 147359, Note_on_c, 0, 69, 0
2, 147360, Note_on_c, 0, 68, 110
2, 147379, Note_on_c, 0, 68, 0
2, 147380, Note_on_c, 0, 69, 110
2, 147399, Note_on_c, 0, 69, 0
2, 147400, Note_on_c, 0, 66, 110
2, 147419, Note_on_c, 0, 66, 0
2, 147420, Note_on_c, 0, 64, 110
2, 147439, Note_on_c, 0, 64, 0
2, 147440, Note_on_c, 0, 68, 110
2, 147459, Note_on_c, 0, 68, 0
2, 147460, Note_on_c, 0, 71, 110
2, 147479, Note_on_c, 0, 71, 0
2, 147480, Note_on_c, 0, 76, 110
2, 147499, Note_on_c, 0, 76, 0
2, 147500, Note_on_c, 0, 74, 110
2, 147519, Note_on_c, 0, 74, 0
2, 147520, Note_on_c, 0, 73, 110
2, 147539, Note_on_c, 0, 73, 0
2, 147540, Note_on_c, 0, 71, 110
2, 147559, Note_on_c, 0, 71, 0
2, 147560, Note_on_c, 0, 76, 110
2, 147579, Note_on_c, 0, 76, 0
2, 147580, Note_on_c, 0, 71, 110
2, 147599, Note_on_c, 0, 71, 0
2, 147600, Note_on_c, 0, 68, 110
2, 147619, Note_on_c, 0, 68, 0
2, 147620, Note_on_c, 0, 71, 110
2, 147639, Note_on_c, 0, 71, 0
2, 147640, Note_on_c, 0, 68, 110
2, 147659, Note_on_c, 0, 68, 0
2, 147660, Note_on_c, 0, 64, 110
2, 147780, Note_on_c, 0, 64, 0
2, 147780, Note_on_c, 0, 69, 110
2, 147840, Note_on_c, 0, 69, 0
2, 147840, Note_on_c, 0, 71, 110
2, 147900, Note_on_c, 0, 71, 0
2, 147900, Note_on_c, 0, 71, 110
2, 147930, Note_on_c, 0, 71, 0
2, 147930, Note_on_c, 0, 73, 110
2, 148020, Note_on_c, 0, 73, 0
2, 148020, Note_on_c, 0, 71, 110
2, 148080, Note_on_c, 0, 71, 0
2, 148080, Note_on_c, 0, 64, 110
2, 148140, Note_on_c, 0, 64, 0
2, 148140, Note_on_c, 0, 71, 110
2, 148200, Note_on_c, 0, 71, 0
2, 148200, Note_on_c, 0, 73, 110
2, 148260, Note_on_c, 0, 73, 0
2, 148260, Note_on_c, 0, 73, 110
2, 148290, Note_on_c, 0, 73, 0
2, 148290, Note_on_c, 0, 74, 110
2, 148380, Note_on_c, 0, 74, 0
2, 148380, Note_on_c, 0, 73, 110
2, 148440, Note_on_c, 0, 73, 0
2, 148440, Note_on_c, 0, 76, 110
2, 148499, Note_on_c, 0, 76, 0
2, 148500, Note_on_c, 0, 76, 110
2, 148559, Note_on_c, 0, 76, 0
2, 148560, Note_on_c, 0, 76, 110
2, 148619, Note_on_c, 0, 76, 0
2, 148620, Note_on_c, 0, 76, 110
2, 148679, Note_on_c, 0, 76, 0
2, 148680, Note_on_c, 0, 74, 110
2, 148709, Note_on_c, 0, 74, 0
2, 148710, Note_on_c, 0, 73, 110
2, 148739, Note_on_c, 0, 73, 0
2, 148740, Note_on_c, 0, 71, 110
2, 148769, Note_on_c, 0, 71, 0
2, 148770, Note_on_c, 0, 69, 110
2, 148799, Note_on_c, 0, 69, 0
2, 148800, Note_on_c, 0, 68, 110
2, 148859, Note_on_c, 0, 68, 0
2, 148860, Note_on_c, 0, 74, 110
2, 148919, Note_on_c, 0, 74, 0
2, 148920, Note_on_c, 0, 73, 110
2, 148979, Note_on_c, 0, 73, 0
2, 148980, Note_on_c, 0, 71, 110
2, 149060, Note_on_c, 0, 71, 0
2, 149060, Note_on_c, 0, 68, 110
2, 149080, Note_on_c, 0, 68, 0
2, 149080, Note_on_c, 0, 69, 110
2, 149100, Note_on_c, 0, 69, 0
2, 149100, Note_on_c, 0, 71, 110
2, 149119, Note_on_c, 0, 71, 0
2, 149120, Note_on_c, 0, 73, 110
2, 149139, Note_on_c, 0, 73, 0
2, 149140, Note_on_c, 0, 74, 110
2, 149159, Note_on_c, 0, 74, 0
2, 149160, Note_on_c, 0, 76, 110
2, 149179, Note_on_c, 0, 76, 0
2, 149180, Note_on_c, 0, 78, 110
2, 149199, Note_on_c, 0, 78, 0
2, 149200, Note_on_c, 0, 76, 110
2, 149219, Note_on_c, 0, 76, 0
2, 149220, Note_on_c, 0, 74, 110
2, 149239, Note_on_c, 0, 74, 0
2, 149240, Note_on_c, 0, 76, 110
2, 149259, Note_on_c, 0, 76, 0
2, 149260, Note_on_c, 0, 74, 110
2, 149279, Note_on_c, 0, 74, 0
2, 149280, Note_on_c, 0, 73, 110
2, 149299, Note_on_c, 0, 73, 0
2, 149300, Note_on_c, 0, 74, 110
2, 149319, Note_on_c, 0, 74, 0
2, 149320, Note_on_c, 0, 73, 110
2, 149339, Note_on_c, 0, 73, 0
2, 149340, Note_on_c, 0, 74, 110
2, 149359, Note_on_c, 0, 74, 0
2, 149360, Note_on_c, 0, 71, 110
2, 149379, Note_on_c, 0, 71, 0
2, 149380, Note_on_c, 0, 73, 110
2, 149399, Note_on_c, 0, 73, 0
2, 149400, Note_on_c, 0, 74, 110
2, 149419, Note_on_c, 0, 74, 0
2, 149420, Note_on_c, 0, 76, 110
2, 149439, Note_on_c, 0, 76, 0
2, 149440, Note_on_c, 0, 78, 110
2, 149459, Note_on_c, 0, 78, 0
2, 149460, Note_on_c, 0, 79, 110
2, 149479, Note_on_c, 0, 79, 0
2, 149480, Note_on_c, 0, 78, 110
2, 149499, Note_on_c, 0, 78, 0
2, 149500, Note_on_c, 0, 76, 110
2, 149519, Note_on_c, 0, 76, 0
2, 149520, Note_on_c, 0, 74, 110
2, 149539, Note_on_c, 0, 74, 0
2, 149540, Note_on_c, 0, 76, 110
2, 149559, Note_on_c, 0, 76, 0
2, 149560, Note_on_c, 0, 74, 110
2, 149579, Note_on_c, 0, 74, 0
2, 149580, Note_on_c, 0, 73, 110
2, 149599, Note_on_c, 0, 73, 0
2, 149600, Note_on_c, 0, 74, 110
2, 149619, Note_on_c, 0, 74, 0
2, 149620, Note_on_c, 0, 73, 110
2, 149639, Note_on_c, 0, 73, 0
2, 149640, Note_on_c, 0, 71, 110
2, 149659, Note_on_c, 0, 71, 0
2, 149660, Note_on_c, 0, 73, 110
2, 149679, Note_on_c, 0, 73, 0
2, 149680, Note_on_c, 0, 71, 110
2, 149699, Note_on_c, 0, 71, 0
2, 149700, Note_on_c, 0, 73, 110
2, 149719, Note_on_c, 0, 73, 0
2, 149720, Note_on_c, 0, 69, 110
2, 149739, Note_on_c, 0, 69, 0
2, 149740, Note_on_c, 0, 71, 110
2, 149759, Note_on_c, 0, 71, 0
2, 149760, Note_on_c, 0, 73, 110
2, 149779, Note_on_c, 0, 73, 0
2, 149780, Note_on_c, 0, 74, 110
2, 149799, Note_on_c, 0, 74, 0
2, 149800, Note_on_c, 0, 76, 110
2, 149819, Note_on_c, 0, 76, 0
2, 149820, Note_on_c, 0, 78, 110
2, 149839, Note_on_c, 0, 78, 0
2, 149840, Note_on_c, 0, 76, 110
2, 149859, Note_on_c, 0, 76, 0
2, 149860, Note_on_c, 0, 74, 110
2, 149879, Note_on_c, 0, 74, 0
2, 149880, Note_on_c, 0, 73, 110
2, 149899, Note_on_c, 0, 73, 0
2, 149900, Note_on_c, 0, 74, 110
2, 149919, Note_on_c, 0, 74, 0
2, 149920, Note_on_c, 0, 73, 110
2, 149939, Note_on_c, 0, 73, 0
2, 149940, Note_on_c, 0, 71, 110
2, 149959, Note_on_c, 0, 71, 0
2, 149960, Note_on_c, 0, 73, 110
2, 149979, Note_on_c, 0, 73, 0
2, 149980, Note_on_c, 0, 71, 110
2, 149999, Note_on_c, 0, 71, 0
2, 150000, Note_on_c, 0, 69, 110
2, 150019, Note_on_c, 0, 69, 0
2, 150020, Note_on_c, 0, 71, 110
2, 150039, Note_on_c, 0, 71, 0
2, 150040, Note_on_c, 0, 69, 110
2, 150059, Note_on_c, 0, 69, 0
2, 150060, Note_on_c, 0, 68, 110
2, 150079, Note_on_c, 0, 68, 0
2, 150080, Note_on_c, 0, 66, 110
2, 150099, Note_on_c, 0, 66, 0
2, 150100, Note_on_c, 0, 68, 110
2, 150119, Note_on_c, 0, 68, 0
2, 150120, Note_on_c, 0, 69, 110
2, 150139, Note_on_c, 0, 69, 0
2, 150140, Note_on_c, 0, 71, 110
2, 150159, Note_on_c, 0, 71, 0
2, 150160, Note_on_c, 0, 73, 110
2, 150179, Note_on_c, 0, 73, 0
2, 150180, Note_on_c, 0, 74, 110
2, 150199, Note_on_c, 0, 74, 0
2, 150200, Note_on_c, 0, 73, 110
2, 150219, Note_on_c, 0, 73, 0
2, 150220, Note_on_c, 0, 71, 110
2, 150239, Note_on_c, 0, 71, 0
2, 150240, Note_on_c, 0, 73, 110
2, 150259, Note_on_c, 0, 73, 0
2, 150260, Note_on_c, 0, 71, 110
2, 150279, Note_on_c, 0, 71, 0
2, 150280, Note_on_c, 0, 69, 110
2, 150299, Note_on_c, 0, 69, 0
2, 150300, Note_on_c, 0, 68, 110
2, 150319, Note_on_c, 0, 68, 0
2, 150320, Note_on_c, 0, 64, 110
2, 150339, Note_on_c, 0, 64, 0
2, 150340, Note_on_c, 0, 68, 110
2, 150359, Note_on_c, 0, 68, 0
2, 150360, Note_on_c, 0, 71, 110
2, 150379, Note_on_c, 0, 71, 0
2, 150380, Note_on_c, 0, 74, 110
2, 150399, Note_on_c, 0, 74, 0
2, 150400, Note_on_c, 0, 71, 110
2, 150419, Note_on_c, 0, 71, 0
2, 150420, Note_on_c, 0, 73, 110
2, 150439, Note_on_c, 0, 73, 0
2, 150440, Note_on_c, 0, 69, 110
2, 150459, Note_on_c, 0, 69, 0
2, 150460, Note_on_c, 0, 73, 110
2, 150479, Note_on_c, 0, 73, 0
2, 150480, Note_on_c, 0, 76, 110
2, 150499, Note_on_c, 0, 76, 0
2, 150500, Note_on_c, 0, 81, 110
2, 150519, Note_on_c, 0, 81, 0
2, 150520, Note_on_c, 0, 76, 110
2, 150539, Note_on_c, 0, 76, 0
2, 150540, Note_on_c, 0, 73, 110
2, 150559, Note_on_c, 0, 73, 0
2, 150560, Note_on_c, 0, 69, 110
2, 150579, Note_on_c, 0, 69, 0
2, 150580, Note_on_c, 0, 73, 110
2, 150599, Note_on_c, 0, 73, 0
2, 150600, Note_on_c, 0, 76, 110
2, 150659, Note_on_c, 0, 76, 0
2, 150660, Note_on_c, 0, 74, 110
2, 150719, Note_on_c, 0, 74, 0
2, 150720, Note_on_c, 0, 73, 110
2, 150779, Note_on_c, 0, 73, 0
2, 150780, Note_on_c, 0, 74, 110
2, 150869, Note_on_c, 0, 74, 0
2, 150870, Note_on_c, 0, 76, 110
2, 150884, Note_on_c, 0, 76, 0
2, 150885, Note_on_c, 0, 78, 110
2, 150899, Note_on_c, 0, 78, 0
2, 150900, Note_on_c, 0, 76, 110
2, 150959, Note_on_c, 0, 76, 0
2, 150960, Note_on_c, 0, 74, 110
2, 151019, Note_on_c, 0, 74, 0
2, 151020, Note_on_c, 0, 73, 110
2, 151079, Note_on_c, 0, 73, 0
2, 151080, Note_on_c, 0, 71, 110
2, 151139, Note_on_c, 0, 71, 0
2, 151140, Note_on_c, 0, 73, 110
2, 151229, Note_on_c, 0, 73, 0
2, 151230, Note_on_c, 0, 74, 110
2, 151244, Note_on_c, 0, 74, 0
2, 151245, Note_on_c, 0, 76, 110
2, 151259, Note_on_c, 0, 76, 0
2, 151260, Note_on_c, 0, 74, 110
2, 151319, Note_on_c, 0, 74, 0
2, 151320, Note_on_c, 0, 64, 110
2, 151379, Note_on_c, 0, 64, 0
2, 151380, Note_on_c, 0, 64, 110
2, 151439, Note_on_c, 0, 64, 0
2, 151440, Note_on_c, 0, 64, 110
2, 151499, Note_on_c, 0, 64, 0
2, 151500, Note_on_c, 0, 64, 110
2, 151559, Note_on_c, 0, 64, 0
2, 151560, Note_on_c, 0, 66, 110
2, 151589, Note_on_c, 0, 66, 0
2, 151590, Note_on_c, 0, 68, 110
2, 151619, Note_on_c, 0, 68, 0
2, 151620, Note_on_c, 0, 69, 110
2, 151649, Note_on_c, 0, 69, 0
2, 151650, Note_on_c, 0, 71, 110
2, 151679, Note_on_c, 0, 71, 0
2, 151680, Note_on_c, 0, 73, 110
2, 151739, Note_on_c, 0, 73, 0
2, 151740, Note_on_c, 0, 74, 110
2, 151799, Note_on_c, 0, 74, 0
2, 151800, Note_on_c, 0, 71, 110
2, 151859, Note_on_c, 0, 71, 0
2, 151860, Note_on_c, 0, 69, 110
2, 151979, Note_on_c, 0, 69, 0
2, 152160, Note_on_c, 0, 73, 110
2, 152219, Note_on_c, 0, 73, 0
2, 152220, Note_on_c, 0, 78, 110
2, 152339, Note_on_c, 0, 78, 0
2, 152340, Note_on_c, 0, 77, 110
2, 152399, Note_on_c, 0, 77, 0
2, 152400, Note_on_c, 0, 78, 110
2, 152459, Note_on_c, 0, 78, 0
2, 152460, Note_on_c, 0, 86, 110
2, 152519, Note_on_c, 0, 86, 0
2, 152520, Note_on_c, 0, 85, 110
2, 152609, Note_on_c, 0, 85, 0
2, 152610, Note_on_c, 0, 83, 110
2, 152639, Note_on_c, 0, 83, 0
2, 152640, Note_on_c, 0, 81, 110
2, 152669, Note_on_c, 0, 81, 0
2, 152670, Note_on_c, 0, 80, 110
2, 152699, Note_on_c, 0, 80, 0
2, 152700, Note_on_c, 0, 78, 110
2, 152759, Note_on_c, 0, 78, 0
2, 152880, Note_on_c, 0, 71, 110
2, 152939, Note_on_c, 0, 71, 0
2, 152940, Note_on_c, 0, 76, 110
2, 153059, Note_on_c, 0, 76, 0
2, 153060, Note_on_c, 0, 75, 110
2, 153119, Note_on_c, 0, 75, 0
2, 153120, Note_on_c, 0, 76, 110
2, 153179, Note_on_c, 0, 76, 0
2, 153180, Note_on_c, 0, 85, 110
2, 153239, Note_on_c, 0, 85, 0
2, 153240, Note_on_c, 0, 83, 110
2, 153329, Note_on_c, 0, 83, 0
2, 153330, Note_on_c, 0, 81, 110
2, 153359, Note_on_c, 0, 81, 0
2, 153360, Note_on_c, 0, 80, 110
2, 153389, Note_on_c, 0, 80, 0
2, 153390, Note_on_c, 0, 78, 110
2, 153419, Note_on_c, 0, 78, 0
2, 153420, Note_on_c, 0, 76, 110
2, 153479, Note_on_c, 0, 76, 0
2, 153600, Note_on_c, 0, 76, 110
2, 153659, Note_on_c, 0, 76, 0
2, 153660, Note_on_c, 0, 81, 110
2, 153779, Note_on_c, 0, 81, 0
2, 153780, Note_on_c, 0, 80, 110
2, 153839, Note_on_c, 0, 80, 0
2, 153840, Note_on_c, 0, 78, 110
2, 154050, Note_on_c, 0, 78, 0
2, 154050, Note_on_c, 0, 76, 110
2, 154079, Note_on_c, 0, 76, 0
2, 154080, Note_on_c, 0, 75, 110
2, 154109, Note_on_c, 0, 75, 0
2, 154110, Note_on_c, 0, 73, 110
2, 154139, Note_on_c, 0, 73, 0
2, 154140, Note_on_c, 0, 72, 110
2, 154169, Note_on_c, 0, 72, 0
2, 154170, Note_on_c, 0, 75, 110
2, 154199, Note_on_c, 0, 75, 0
2, 154200, Note_on_c, 0, 68, 110
2, 154259, Note_on_c, 0, 68, 0
2, 154260, Note_on_c, 0, 73, 110
2, 154319, Note_on_c, 0, 73, 0
2, 154320, Note_on_c, 0, 75, 110
2, 154379, Note_on_c, 0, 75, 0
2, 154380, Note_on_c, 0, 76, 110
2, 154499, Note_on_c, 0, 76, 0
2, 154500, Note_on_c, 0, 75, 110
2, 154559, Note_on_c, 0, 75, 0
2, 154560, Note_on_c, 0, 68, 110
2, 154619, Note_on_c, 0, 68, 0
2, 154620, Note_on_c, 0, 75, 110
2, 154679, Note_on_c, 0, 75, 0
2, 154680, Note_on_c, 0, 76, 110
2, 154739, Note_on_c, 0, 76, 0
2, 154740, Note_on_c, 0, 78, 110
2, 154859, Note_on_c, 0, 78, 0
2, 154860, Note_on_c, 0, 76, 110
2, 154979, Note_on_c, 0, 76, 0
2, 154980, Note_on_c, 0, 78, 110
2, 155009, Note_on_c, 0, 78, 0
2, 155010, Note_on_c, 0, 76, 110
2, 155039, Note_on_c, 0, 76, 0
2, 155040, Note_on_c, 0, 75, 110
2, 155069, Note_on_c, 0, 75, 0
2, 155070, Note_on_c, 0, 73, 110
2, 155099, Note_on_c, 0, 73, 0
2, 155100, Note_on_c, 0, 72, 110
2, 155159, Note_on_c, 0, 72, 0
2, 155160, Note_on_c, 0, 73, 110
2, 155219, Note_on_c, 0, 73, 0
2, 155520, Note_on_c, 0, 80, 110
2, 156420, Note_on_c, 0, 80, 0
2, 156420, Note_on_c, 0, 68, 110
2, 156479, Note_on_c, 0, 68, 0
2, 156480, Note_on_c, 0, 68, 110
2, 156539, Note_on_c, 0, 68, 0
2, 156540, Note_on_c, 0, 68, 110
2, 156599, Note_on_c, 0, 68, 0
2, 156600, Note_on_c, 0, 70, 110
2, 156629, Note_on_c, 0, 70, 0
2, 156630, Note_on_c, 0, 72, 110
2, 156659, Note_on_c, 0, 72, 0
2, 156660, Note_on_c, 0, 73, 110
2, 156689, Note_on_c, 0, 73, 0
2, 156690, Note_on_c, 0, 75, 110
2, 156719, Note_on_c, 0, 75, 0
2, 156720, Note_on_c, 0, 76, 110
2, 156779, Note_on_c, 0, 76, 0
2, 156780, Note_on_c, 0, 78, 110
2, 156839, Note_on_c, 0, 78, 0
2, 156840, Note_on_c, 0, 75, 110
2, 156899, Note_on_c, 0, 75, 0
2, 156900, Note_on_c, 0, 73, 110
2, 157019, Note_on_c, 0, 73, 0
2, 159090, Note_on_c, 0, 81, 110
2, 159119, Note_on_c, 0, 81, 0
2, 159120, Note_on_c, 0, 80, 110
2, 159149, Note_on_c, 0, 80, 0
2, 159150, Note_on_c, 0, 78, 110
2, 159179, Note_on_c, 0, 78, 0
2, 159180, Note_on_c, 0, 77, 110
2, 159209, Note_on_c, 0, 77, 0
2, 159210, Note_on_c, 0, 80, 110
2, 159239, Note_on_c, 0, 80, 0
2, 159240, Note_on_c, 0, 73, 110
2, 159299, Note_on_c, 0, 73, 0
2, 159300, Note_on_c, 0, 78, 110
2, 159359, Note_on_c, 0, 78, 0
2, 159360, Note_on_c, 0, 80, 110
2, 159419, Note_on_c, 0, 80, 0
2, 159420, Note_on_c, 0, 81, 110
2, 159539, Note_on_c, 0, 81, 0
2, 159540, Note_on_c, 0, 80, 110
2, 159599, Note_on_c, 0, 80, 0
2, 159600, Note_on_c, 0, 73, 110
2, 159659, Note_on_c, 0, 73, 0
2, 159660, Note_on_c, 0, 80, 110
2, 159719, Note_on_c, 0, 80, 0
2, 159720, Note_on_c, 0, 81, 110
2, 159779, Note_on_c, 0, 81, 0
2, 159780, Note_on_c, 0, 83, 110
2, 159899, Note_on_c, 0, 83, 0
2, 159900, Note_on_c, 0, 81, 110
2, 159989, Note_on_c, 0, 81, 0
2, 159990, Note_on_c, 0, 80, 110
2, 160019, Note_on_c, 0, 80, 0
2, 160020, Note_on_c, 0, 83, 110
2, 160049, Note_on_c, 0, 83, 0
2, 160050, Note_on_c, 0, 81, 110
2, 160079, Note_on_c, 0, 81, 0
2, 160080, Note_on_c, 0, 80, 110
2, 160109, Note_on_c, 0, 80, 0
2, 160110, Note_on_c, 0, 78, 110
2, 160139, Note_on_c, 0, 78, 0
2, 160140, Note_on_c, 0, 77, 110
2, 160169, Note_on_c, 0, 77, 0
2, 160170, Note_on_c, 0, 80, 110
2, 160199, Note_on_c, 0, 80, 0
2, 160200, Note_on_c, 0, 85, 110
2, 160289, Note_on_c, 0, 85, 0
2, 160290, Note_on_c, 0, 81, 110
2, 160319, Note_on_c, 0, 81, 0
2, 160320, Note_on_c, 0, 78, 110
2, 160439, Note_on_c, 0, 78, 0
2, 160440, Note_on_c, 0, 77, 110
2, 160499, Note_on_c, 0, 77, 0
2, 160500, Note_on_c, 0, 78, 110
2, 160679, Note_on_c, 0, 78, 0
2, 160680, Note_on_c, 0, 64, 110
2, 160681, Control_c, 0, 91, 96
2, 160739, Note_on_c, 0, 64, 0
2, 160740, Note_on_c, 0, 69, 110
2, 160799, Note_on_c, 0, 69, 0
2, 160800, Note_on_c, 0, 71, 110
2, 160859, Note_on_c, 0, 71, 0
2, 160860, Note_on_c, 0, 73, 110
2, 160979, Note_on_c, 0, 73, 0
2, 160980, Note_on_c, 0, 71, 110
2, 161039, Note_on_c, 0, 71, 0
2, 161040, Note_on_c, 0, 64, 110
2, 161099, Note_on_c, 0, 64, 0
2, 161100, Note_on_c, 0, 71, 110
2, 161159, Note_on_c, 0, 71, 0
2, 161160, Note_on_c, 0, 73, 110
2, 161219, Note_on_c, 0, 73, 0
2, 161220, Note_on_c, 0, 74, 110
2, 161339, Note_on_c, 0, 74, 0
2, 161340, Note_on_c, 0, 73, 110
2, 161399, Note_on_c, 0, 73, 0
2, 161400, Note_on_c, 0, 76, 110
2, 161459, Note_on_c, 0, 76, 0
2, 161460, Note_on_c, 0, 76, 110
2, 161519, Note_on_c, 0, 76, 0
2, 161520, Note_on_c, 0, 76, 110
2, 161579, Note_on_c, 0, 76, 0
2, 161580, Note_on_c, 0, 76, 110
2, 161639, Note_on_c, 0, 76, 0
2, 161640, Note_on_c, 0, 74, 110
2, 161669, Note_on_c, 0, 74, 0
2, 161670, Note_on_c, 0, 73, 110
2, 161699, Note_on_c, 0, 73, 0
2, 161700, Note_on_c, 0, 71, 110
2, 161729, Note_on_c, 0, 71, 0
2, 161730, Note_on_c, 0, 69, 110
2, 161759, Note_on_c, 0, 69, 0
2, 161760, Note_on_c, 0, 68, 110
2, 161819, Note_on_c, 0, 68, 0
2, 161820, Note_on_c, 0, 74, 110
2, 161879, Note_on_c, 0, 74, 0
2, 161880, Note_on_c, 0, 73, 110
2, 161939, Note_on_c, 0, 73, 0
2, 161940, Note_on_c, 0, 73, 110
2, 161999, Note_on_c, 0, 73, 0
2, 162000, Note_on_c, 0, 71, 110
2, 162120, Note_on_c, 0, 71, 0
2, 162120, Note_on_c, 0, 64, 110
2, 162149, Note_on_c, 0, 64, 0
2, 162150, Note_on_c, 0, 66, 110
2, 162165, Note_on_c, 0, 66, 0
2, 162165, Note_on_c, 0, 68, 110
2, 162180, Note_on_c, 0, 68, 0
2, 162180, Note_on_c, 0, 69, 110
2, 162209, Note_on_c, 0, 69, 0
2, 162210, Note_on_c, 0, 64, 110
2, 162239, Note_on_c, 0, 64, 0
2, 162240, Note_on_c, 0, 71, 110
2, 162269, Note_on_c, 0, 71, 0
2, 162270, Note_on_c, 0, 64, 110
2, 162299, Note_on_c, 0, 64, 0
2, 162299, Note_on_c, 0, 73, 110
2, 162313, Note_on_c, 0, 73, 0
2, 162314, Note_on_c, 0, 71, 110
2, 162328, Note_on_c, 0, 71, 0
2, 162329, Note_on_c, 0, 69, 110
2, 162343, Note_on_c, 0, 69, 0
2, 162344, Note_on_c, 0, 68, 110
2, 162358, Note_on_c, 0, 68, 0
2, 162359, Note_on_c, 0, 69, 110
2, 162388, Note_on_c, 0, 69, 0
2, 162389, Note_on_c, 0, 73, 110
2, 162418, Note_on_c, 0, 73, 0
2, 162419, Note_on_c, 0, 71, 110
2, 162448, Note_on_c, 0, 71, 0
2, 162449, Note_on_c, 0, 68, 110
2, 162478, Note_on_c, 0, 68, 0
2, 162479, Note_on_c, 0, 64, 110
2, 162493, Note_on_c, 0, 64, 0
2, 162494, Note_on_c, 0, 66, 110
2, 162508, Note_on_c, 0, 66, 0
2, 162509, Note_on_c, 0, 68, 110
2, 162523, Note_on_c, 0, 68, 0
2, 162524, Note_on_c, 0, 69, 110
2, 162538, Note_on_c, 0, 69, 0
2, 162539, Note_on_c, 0, 71, 110
2, 162568, Note_on_c, 0, 71, 0
2, 162569, Note_on_c, 0, 64, 110
2, 162598, Note_on_c, 0, 64, 0
2, 162599, Note_on_c, 0, 73, 110
2, 162628, Note_on_c, 0, 73, 0
2, 162629, Note_on_c, 0, 64, 110
2, 162658, Note_on_c, 0, 64, 0
2, 162659, Note_on_c, 0, 74, 110
2, 162673, Note_on_c, 0, 74, 0
2, 162674, Note_on_c, 0, 73, 110
2, 162688, Note_on_c, 0, 73, 0
2, 162689, Note_on_c, 0, 71, 110
2, 162703, Note_on_c, 0, 71, 0
2, 162704, Note_on_c, 0, 69, 110
2, 162718, Note_on_c, 0, 69, 0
2, 162719, Note_on_c, 0, 71, 110
2, 162748, Note_on_c, 0, 71, 0
2, 162749, Note_on_c, 0, 74, 110
2, 162778, Note_on_c, 0, 74, 0
2, 162779, Note_on_c, 0, 73, 110
2, 162808, Note_on_c, 0, 73, 0
2, 162809, Note_on_c, 0, 69, 110
2, 162838, Note_on_c, 0, 69, 0
2, 162840, Note_on_c, 0, 64, 110
2, 162869, Note_on_c, 0, 64, 0
2, 162870, Note_on_c, 0, 76, 110
2, 162899, Note_on_c, 0, 76, 0
2, 162900, Note_on_c, 0, 69, 110
2, 162929, Note_on_c, 0, 69, 0
2, 162930, Note_on_c, 0, 76, 110
2, 162959, Note_on_c, 0, 76, 0
2, 162960, Note_on_c, 0, 71, 110
2, 162989, Note_on_c, 0, 71, 0
2, 162990, Note_on_c, 0, 76, 110
2, 163019, Note_on_c, 0, 76, 0
2, 163020, Note_on_c, 0, 73, 110
2, 163049, Note_on_c, 0, 73, 0
2, 163050, Note_on_c, 0, 76, 110
2, 163079, Note_on_c, 0, 76, 0
2, 163080, Note_on_c, 0, 74, 110
2, 163109, Note_on_c, 0, 74, 0
2, 163110, Note_on_c, 0, 73, 110
2, 163139, Note_on_c, 0, 73, 0
2, 163140, Note_on_c, 0, 71, 110
2, 163169, Note_on_c, 0, 71, 0
2, 163170, Note_on_c, 0, 69, 110
2, 163199, Note_on_c, 0, 69, 0
2, 163200, Note_on_c, 0, 68, 110
2, 163214, Note_on_c, 0, 68, 0
2, 163215, Note_on_c, 0, 69, 110
2, 163229, Note_on_c, 0, 69, 0
2, 163230, Note_on_c, 0, 71, 110
2, 163244, Note_on_c, 0, 71, 0
2, 163245, Note_on_c, 0, 73, 110
2, 163259, Note_on_c, 0, 73, 0
2, 163260, Note_on_c, 0, 74, 110
2, 163289, Note_on_c, 0, 74, 0
2, 163290, Note_on_c, 0, 71, 110
2, 163319, Note_on_c, 0, 71, 0
2, 163320, Note_on_c, 0, 73, 110
2, 163349, Note_on_c, 0, 73, 0
2, 163350, Note_on_c, 0, 69, 110
2, 163379, Note_on_c, 0, 69, 0
2, 163380, Note_on_c, 0, 71, 110
2, 163394, Note_on_c, 0, 71, 0
2, 163395, Note_on_c, 0, 76, 110
2, 163409, Note_on_c, 0, 76, 0
2, 163410, Note_on_c, 0, 74, 110
2, 163424, Note_on_c, 0, 74, 0
2, 163425, Note_on_c, 0, 73, 110
2, 163439, Note_on_c, 0, 73, 0
2, 163440, Note_on_c, 0, 71, 110
2, 163454, Note_on_c, 0, 71, 0
2, 163455, Note_on_c, 0, 69, 110
2, 163469, Note_on_c, 0, 69, 0
2, 163470, Note_on_c, 0, 68, 110
2, 163484, Note_on_c, 0, 68, 0
2, 163485, Note_on_c, 0, 66, 110
2, 163499, Note_on_c, 0, 66, 0
2, 163500, Note_on_c, 0, 64, 110
2, 163559, Note_on_c, 0, 64, 0
2, 163560, Note_on_c, 0, 76, 110
2, 163619, Note_on_c, 0, 76, 0
2, 163620, Note_on_c, 0, 74, 110
2, 163679, Note_on_c, 0, 74, 0
2, 163680, Note_on_c, 0, 73, 110
2, 163739, Note_on_c, 0, 73, 0
2, 163740, Note_on_c, 0, 74, 110
2, 163829, Note_on_c, 0, 74, 0
2, 163830, Note_on_c, 0, 76, 110
2, 163844, Note_on_c, 0, 76, 0
2, 163845, Note_on_c, 0, 78, 110
2, 163859, Note_on_c, 0, 78, 0
2, 163860, Note_on_c, 0, 76, 110
2, 163919, Note_on_c, 0, 76, 0
2, 163920, Note_on_c, 0, 74, 110
2, 163979, Note_on_c, 0, 74, 0
2, 163980, Note_on_c, 0, 73, 110
2, 164039, Note_on_c, 0, 73, 0
2, 164040, Note_on_c, 0, 71, 110
2, 164099, Note_on_c, 0, 71, 0
2, 164100, Note_on_c, 0, 73, 110
2, 164189, Note_on_c, 0, 73, 0
2, 164190, Note_on_c, 0, 74, 110
2, 164204, Note_on_c, 0, 74, 0
2, 164205, Note_on_c, 0, 76, 110
2, 164219, Note_on_c, 0, 76, 0
2, 164220, Note_on_c, 0, 74, 110
2, 164279, Note_on_c, 0, 74, 0
2, 164280, Note_on_c, 0, 64, 110
2, 164339, Note_on_c, 0, 64, 0
2, 164340, Note_on_c, 0, 64, 110
2, 164399, Note_on_c, 0, 64, 0
2, 164400, Note_on_c, 0, 64, 110
2, 164459, Note_on_c, 0, 64, 0
2, 164460, Note_on_c, 0, 64, 110
2, 164519, Note_on_c, 0, 64, 0
2, 164520, Note_on_c, 0, 66, 110
2, 164549, Note_on_c, 0, 66, 0
2, 164550, Note_on_c, 0, 68, 110
2, 164579, Note_on_c, 0, 68, 0
2, 164580, Note_on_c, 0, 69, 110
2, 164609, Note_on_c, 0, 69, 0
2, 164610, Note_on_c, 0, 71, 110
2, 164639, Note_on_c, 0, 71, 0
2, 164640, Note_on_c, 0, 73, 110
2, 164699, Note_on_c, 0, 73, 0
2, 164700, Note_on_c, 0, 74, 110
2, 164759, Note_on_c, 0, 74, 0
2, 164760, Note_on_c, 0, 71, 110
2, 164769, Note_on_c, 0, 71, 0
2, 164770, Note_on_c, 0, 73, 110
2, 164779, Note_on_c, 0, 73, 0
2, 164780, Note_on_c, 0, 71, 110
2, 164789, Note_on_c, 0, 71, 0
2, 164790, Note_on_c, 0, 73, 110
2, 164799, Note_on_c, 0, 73, 0
2, 164800, Note_on_c, 0, 71, 110
2, 164809, Note_on_c, 0, 71, 0
2, 164820, Note_on_c, 0, 69, 110
2, 165000, Note_on_c, 0, 69, 0
2, 165000, Note_on_c, 0, 76, 110
2, 165014, Note_on_c, 0, 76, 0
2, 165015, Note_on_c, 0, 74, 110
2, 165029, Note_on_c, 0, 74, 0
2, 165030, Note_on_c, 0, 73, 110
2, 165044, Note_on_c, 0, 73, 0
2, 165045, Note_on_c, 0, 76, 110
2, 165059, Note_on_c, 0, 76, 0
2, 165060, Note_on_c, 0, 74, 110
2, 165089, Note_on_c, 0, 74, 0
2, 165090, Note_on_c, 0, 69, 110
2, 165119, Note_on_c, 0, 69, 0
2, 165120, Note_on_c, 0, 73, 110
2, 165149, Note_on_c, 0, 73, 0
2, 165150, Note_on_c, 0, 69, 110
2, 165179, Note_on_c, 0, 69, 0
2, 165180, Note_on_c, 0, 74, 110
2, 165209, Note_on_c, 0, 74, 0
2, 165210, Note_on_c, 0, 69, 110
2, 165239, Note_on_c, 0, 69, 0
2, 165240, Note_on_c, 0, 78, 110
2, 165269, Note_on_c, 0, 78, 0
2, 165270, Note_on_c, 0, 69, 110
2, 165299, Note_on_c, 0, 69, 0
2, 165300, Note_on_c, 0, 76, 110
2, 165329, Note_on_c, 0, 76, 0
2, 165330, Note_on_c, 0, 69, 110
2, 165359, Note_on_c, 0, 69, 0
2, 165360, Note_on_c, 0, 74, 110
2, 165374, Note_on_c, 0, 74, 0
2, 165375, Note_on_c, 0, 73, 110
2, 165389, Note_on_c, 0, 73, 0
2, 165390, Note_on_c, 0, 71, 110
2, 165404, Note_on_c, 0, 71, 0
2, 165405, Note_on_c, 0, 74, 110
2, 165419, Note_on_c, 0, 74, 0
2, 165420, Note_on_c, 0, 73, 110
2, 165449, Note_on_c, 0, 73, 0
2, 165450, Note_on_c, 0, 68, 110
2, 165479, Note_on_c, 0, 68, 0
2, 165480, Note_on_c, 0, 71, 110
2, 165509, Note_on_c, 0, 71, 0
2, 165510, Note_on_c, 0, 68, 110
2, 165539, Note_on_c, 0, 68, 0
2, 165540, Note_on_c, 0, 73, 110
2, 165569, Note_on_c, 0, 73, 0
2, 165570, Note_on_c, 0, 68, 110
2, 165599, Note_on_c, 0, 68, 0
2, 165600, Note_on_c, 0, 76, 110
2, 165629, Note_on_c, 0, 76, 0
2, 165630, Note_on_c, 0, 68, 110
2, 165659, Note_on_c, 0, 68, 0
2, 165660, Note_on_c, 0, 74, 110
2, 165689, Note_on_c, 0, 74, 0
2, 165690, Note_on_c, 0, 68, 110
2, 165719, Note_on_c, 0, 68, 0
2, 165720, Note_on_c, 0, 73, 110
2, 165734, Note_on_c, 0, 73, 0
2, 165735, Note_on_c, 0, 71, 110
2, 165749, Note_on_c, 0, 71, 0
2, 165750, Note_on_c, 0, 69, 110
2, 165764, Note_on_c, 0, 69, 0
2, 165765, Note_on_c, 0, 73, 110
2, 165779, Note_on_c, 0, 73, 0
2, 165780, Note_on_c, 0, 71, 110
2, 165794, Note_on_c, 0, 71, 0
2, 165795, Note_on_c, 0, 69, 110
2, 165809, Note_on_c, 0, 69, 0
2, 165810, Note_on_c, 0, 68, 110
2, 165824, Note_on_c, 0, 68, 0
2, 165825, Note_on_c, 0, 71, 110
2, 165839, Note_on_c, 0, 71, 0
2, 165840, Note_on_c, 0, 69, 110
2, 165854, Note_on_c, 0, 69, 0
2, 165855, Note_on_c, 0, 68, 110
2, 165869, Note_on_c, 0, 68, 0
2, 165870, Note_on_c, 0, 66, 110
2, 165884, Note_on_c, 0, 66, 0
2, 165885, Note_on_c, 0, 69, 110
2, 165899, Note_on_c, 0, 69, 0
2, 165900, Note_on_c, 0, 68, 110
2, 165929, Note_on_c, 0, 68, 0
2, 165930, Note_on_c, 0, 64, 110
2, 165959, Note_on_c, 0, 64, 0
2, 165960, Note_on_c, 0, 66, 110
2, 165989, Note_on_c, 0, 66, 0
2, 165990, Note_on_c, 0, 68, 110
2, 166019, Note_on_c, 0, 68, 0
2, 166020, Note_on_c, 0, 69, 110
2, 166049, Note_on_c, 0, 69, 0
2, 166050, Note_on_c, 0, 71, 110
2, 166079, Note_on_c, 0, 71, 0
2, 166080, Note_on_c, 0, 73, 110
2, 166109, Note_on_c, 0, 73, 0
2, 166110, Note_on_c, 0, 74, 110
2, 166124, Note_on_c, 0, 74, 0
2, 166125, Note_on_c, 0, 76, 110
2, 166139, Note_on_c, 0, 76, 0
2, 166140, Note_on_c, 0, 74, 110
2, 166169, Note_on_c, 0, 74, 0
2, 166170, Note_on_c, 0, 73, 110
2, 166199, Note_on_c, 0, 73, 0
2, 166200, Note_on_c, 0, 71, 110
2, 166229, Note_on_c, 0, 71, 0
2, 166230, Note_on_c, 0, 73, 110
2, 166259, Note_on_c, 0, 73, 0
2, 166260, Note_on_c, 0, 69, 110
2, 166289, Note_on_c, 0, 69, 0
2, 166290, Note_on_c, 0, 71, 110
2, 166304, Note_on_c, 0, 71, 0
2, 166305, Note_on_c, 0, 73, 110
2, 166319, Note_on_c, 0, 73, 0
2, 166320, Note_on_c, 0, 74, 110
2, 166334, Note_on_c, 0, 74, 0
2, 166335, Note_on_c, 0, 76, 110
2, 166349, Note_on_c, 0, 76, 0
2, 166350, Note_on_c, 0, 78, 110
2, 166364, Note_on_c, 0, 78, 0
2, 166365, Note_on_c, 0, 80, 110
2, 166379, Note_on_c, 0, 80, 0
2, 166380, Note_on_c, 0, 81, 110
2, 166439, Note_on_c, 0, 81, 0
2, 166440, Note_on_c, 0, 73, 110
2, 166459, Note_on_c, 0, 73, 0
2, 166460, Note_on_c, 0, 71, 110
2, 166479, Note_on_c, 0, 71, 0
2, 166480, Note_on_c, 0, 69, 110
2, 166499, Note_on_c, 0, 69, 0
2, 166500, Note_on_c, 0, 64, 110
2, 166649, Note_on_c, 0, 64, 0
2, 166650, Note_on_c, 0, 66, 110
2, 166679, Note_on_c, 0, 66, 0
2, 166680, Note_on_c, 0, 68, 110
2, 166709, Note_on_c, 0, 68, 0
2, 166710, Note_on_c, 0, 69, 110
2, 166739, Note_on_c, 0, 69, 0
2, 166740, Note_on_c, 0, 71, 110
2, 166769, Note_on_c, 0, 71, 0
2, 166770, Note_on_c, 0, 73, 110
2, 166799, Note_on_c, 0, 73, 0
2, 166800, Note_on_c, 0, 74, 110
2, 166819, Note_on_c, 0, 74, 0
2, 166820, Note_on_c, 0, 73, 110
2, 166839, Note_on_c, 0, 73, 0
2, 166840, Note_on_c, 0, 71, 110
2, 166859, Note_on_c, 0, 71, 0
2, 166860, Note_on_c, 0, 64, 110
2, 167009, Note_on_c, 0, 64, 0
2, 167010, Note_on_c, 0, 68, 110
2, 167039, Note_on_c, 0, 68, 0
2, 167040, Note_on_c, 0, 69, 110
2, 167069, Note_on_c, 0, 69, 0
2, 167070, Note_on_c, 0, 71, 110
2, 167099, Note_on_c, 0, 71, 0
2, 167100, Note_on_c, 0, 73, 110
2, 167129, Note_on_c, 0, 73, 0
2, 167130, Note_on_c, 0, 74, 110
2, 167159, Note_on_c, 0, 74, 0
2, 167160, Note_on_c, 0, 76, 110
2, 167179, Note_on_c, 0, 76, 0
2, 167180, Note_on_c, 0, 74, 110
2, 167199, Note_on_c, 0, 74, 0
2, 167200, Note_on_c, 0, 73, 110
2, 167219, Note_on_c, 0, 73, 0
2, 167220, Note_on_c, 0, 74, 110
2, 167239, Note_on_c, 0, 74, 0
2, 167240, Note_on_c, 0, 73, 110
2, 167259, Note_on_c, 0, 73, 0
2, 167260, Note_on_c, 0, 71, 110
2, 167279, Note_on_c, 0, 71, 0
2, 167280, Note_on_c, 0, 73, 110
2, 167299, Note_on_c, 0, 73, 0
2, 167300, Note_on_c, 0, 71, 110
2, 167319, Note_on_c, 0, 71, 0
2, 167320, Note_on_c, 0, 69, 110
2, 167339, Note_on_c, 0, 69, 0
2, 167340, Note_on_c, 0, 68, 110
2, 167359, Note_on_c, 0, 68, 0
2, 167360, Note_on_c, 0, 69, 110
2, 167379, Note_on_c, 0, 69, 0
2, 167380, Note_on_c, 0, 71, 110
2, 167399, Note_on_c, 0, 71, 0
2, 167400, Note_on_c, 0, 71, 110
2, 167419, Note_on_c, 0, 71, 0
2, 167420, Note_on_c, 0, 73, 110
2, 167439, Note_on_c, 0, 73, 0
2, 167440, Note_on_c, 0, 74, 110
2, 167459, Note_on_c, 0, 74, 0
2, 167460, Note_on_c, 0, 74, 110
2, 167479, Note_on_c, 0, 74, 0
2, 167480, Note_on_c, 0, 76, 110
2, 167499, Note_on_c, 0, 76, 0
2, 167500, Note_on_c, 0, 78, 110
2, 167519, Note_on_c, 0, 78, 0
2, 167520, Note_on_c, 0, 71, 110
2, 167539, Note_on_c, 0, 71, 0
2, 167540, Note_on_c, 0, 73, 110
2, 167559, Note_on_c, 0, 73, 0
2, 167560, Note_on_c, 0, 74, 110
2, 167579, Note_on_c, 0, 74, 0
2, 167580, Note_on_c, 0, 69, 110
2, 167609, Note_on_c, 0, 69, 0
2, 167610, Note_on_c, 0, 68, 110
2, 167669, Note_on_c, 0, 68, 0
2, 167670, Note_on_c, 0, 69, 110
2, 167699, Note_on_c, 0, 69, 0
2, 167700, Note_on_c, 0, 69, 110
2, 167719, Note_on_c, 0, 69, 0
2, 167720, Note_on_c, 0, 68, 110
2, 167739, Note_on_c, 0, 68, 0
2, 167740, Note_on_c, 0, 66, 110
2, 167759, Note_on_c, 0, 66, 0
2, 167760, Note_on_c, 0, 68, 110
2, 167779, Note_on_c, 0, 68, 0
2, 167780, Note_on_c, 0, 71, 110
2, 167799, Note_on_c, 0, 71, 0
2, 167800, Note_on_c, 0, 69, 110
2, 167819, Note_on_c, 0, 69, 0
2, 167820, Note_on_c, 0, 68, 110
2, 167839, Note_on_c, 0, 68, 0
2, 167840, Note_on_c, 0, 66, 110
2, 167859, Note_on_c, 0, 66, 0
2, 167860, Note_on_c, 0, 64, 110
2, 167879, Note_on_c, 0, 64, 0
2, 167880, Note_on_c, 0, 76, 110
2, 169260, Note_on_c, 0, 76, 0
2, 169320, Note_on_c, 0, 69, 110
2, 169339, Note_on_c, 0, 69, 0
2, 169340, Note_on_c, 0, 71, 110
2, 169359, Note_on_c, 0, 71, 0
2, 169360, Note_on_c, 0, 73, 110
2, 169379, Note_on_c, 0, 73, 0
2, 169380, Note_on_c, 0, 79, 110
2, 169520, Note_on_c, 0, 79, 0
2, 169520, Note_on_c, 0, 81, 110
2, 169539, Note_on_c, 0, 81, 0
2, 169540, Note_on_c, 0, 79, 110
2, 169559, Note_on_c, 0, 79, 0
2, 169560, Note_on_c, 0, 78, 110
2, 169579, Note_on_c, 0, 78, 0
2, 169580, Note_on_c, 0, 76, 110
2, 169599, Note_on_c, 0, 76, 0
2, 169600, Note_on_c, 0, 74, 110
2, 169619, Note_on_c, 0, 74, 0
2, 169620, Note_on_c, 0, 73, 110
2, 169639, Note_on_c, 0, 73, 0
2, 169640, Note_on_c, 0, 71, 110
2, 169659, Note_on_c, 0, 71, 0
2, 169660, Note_on_c, 0, 69, 110
2, 169679, Note_on_c, 0, 69, 0
2, 169680, Note_on_c, 0, 69, 110
2, 169699, Note_on_c, 0, 69, 0
2, 169700, Note_on_c, 0, 71, 110
2, 169719, Note_on_c, 0, 71, 0
2, 169720, Note_on_c, 0, 73, 110
2, 169739, Note_on_c, 0, 73, 0
2, 169740, Note_on_c, 0, 78, 110
2, 169829, Note_on_c, 0, 78, 0
2, 169830, Note_on_c, 0, 79, 110
2, 169844, Note_on_c, 0, 79, 0
2, 169845, Note_on_c, 0, 81, 110
2, 169859, Note_on_c, 0, 81, 0
2, 169860, Note_on_c, 0, 81, 110
2, 169879, Note_on_c, 0, 81, 0
2, 169880, Note_on_c, 0, 79, 110
2, 169899, Note_on_c, 0, 79, 0
2, 169900, Note_on_c, 0, 78, 110
2, 169919, Note_on_c, 0, 78, 0
2, 169920, Note_on_c, 0, 79, 110
2, 169939, Note_on_c, 0, 79, 0
2, 169940, Note_on_c, 0, 78, 110
2, 169959, Note_on_c, 0, 78, 0
2, 169960, Note_on_c, 0, 76, 110
2, 169979, Note_on_c, 0, 76, 0
2, 169980, Note_on_c, 0, 78, 110
2, 169999, Note_on_c, 0, 78, 0
2, 170000, Note_on_c, 0, 76, 110
2, 170019, Note_on_c, 0, 76, 0
2, 170020, Note_on_c, 0, 74, 110
2, 170039, Note_on_c, 0, 74, 0
2, 170040, Note_on_c, 0, 73, 110
2, 170059, Note_on_c, 0, 73, 0
2, 170060, Note_on_c, 0, 71, 110
2, 170079, Note_on_c, 0, 71, 0
2, 170080, Note_on_c, 0, 69, 110
2, 170099, Note_on_c, 0, 69, 0
2, 170100, Note_on_c, 0, 64, 110
2, 170119, Note_on_c, 0, 64, 0
2, 170120, Note_on_c, 0, 69, 110
2, 170139, Note_on_c, 0, 69, 0
2, 170140, Note_on_c, 0, 73, 110
2, 170159, Note_on_c, 0, 73, 0
2, 170160, Note_on_c, 0, 69, 110
2, 170179, Note_on_c, 0, 69, 0
2, 170180, Note_on_c, 0, 73, 110
2, 170199, Note_on_c, 0, 73, 0
2, 170200, Note_on_c, 0, 76, 110
2, 170219, Note_on_c, 0, 76, 0
2, 170220, Note_on_c, 0, 73, 110
2, 170239, Note_on_c, 0, 73, 0
2, 170240, Note_on_c, 0, 76, 110
2, 170259, Note_on_c, 0, 76, 0
2, 170260, Note_on_c, 0, 81, 110
2, 170279, Note_on_c, 0, 81, 0
2, 170280, Note_on_c, 0, 71, 110
2, 170369, Note_on_c, 0, 71, 0
2, 170370, Note_on_c, 0, 73, 110
2, 170384, Note_on_c, 0, 73, 0
2, 170385, Note_on_c, 0, 74, 110
2, 170399, Note_on_c, 0, 74, 0
2, 170400, Note_on_c, 0, 73, 110
2, 170419, Note_on_c, 0, 73, 0
2, 170420, Note_on_c, 0, 71, 110
2, 170439, Note_on_c, 0, 71, 0
2, 170440, Note_on_c, 0, 69, 110
2, 170459, Note_on_c, 0, 69, 0
2, 170460, Note_on_c, 0, 78, 110
2, 170540, Note_on_c, 0, 78, 0
2, 170540, Note_on_c, 0, 76, 110
2, 170560, Note_on_c, 0, 76, 0
2, 170560, Note_on_c, 0, 74, 110
2, 170580, Note_on_c, 0, 74, 0
2, 170580, Note_on_c, 0, 73, 110
2, 170600, Note_on_c, 0, 73, 0
2, 170600, Note_on_c, 0, 74, 110
2, 170620, Note_on_c, 0, 74, 0
2, 170620, Note_on_c, 0, 76, 110
2, 170640, Note_on_c, 0, 76, 0
2, 170640, Note_on_c, 0, 69, 110
2, 170660, Note_on_c, 0, 69, 0
2, 170660, Note_on_c, 0, 73, 110
2, 170680, Note_on_c, 0, 73, 0
2, 170680, Note_on_c, 0, 74, 110
2, 170700, Note_on_c, 0, 74, 0
2, 170700, Note_on_c, 0, 76, 110
2, 170720, Note_on_c, 0, 76, 0
2, 170720, Note_on_c, 0, 78, 110
2, 170740, Note_on_c, 0, 78, 0
2, 170740, Note_on_c, 0, 80, 110
2, 170760, Note_on_c, 0, 80, 0
2, 170760, Note_on_c, 0, 81, 110
2, 171860, Note_on_c, 0, 81, 0
2, 171860, Note_on_c, 0, 80, 110
2, 171879, Note_on_c, 0, 80, 0
2, 171880, Note_on_c, 0, 78, 110
2, 171899, Note_on_c, 0, 78, 0
2, 171900, Note_on_c, 0, 78, 110
2, 171919, Note_on_c, 0, 78, 0
2, 171920, Note_on_c, 0, 76, 110
2, 171939, Note_on_c, 0, 76, 0
2, 171940, Note_on_c, 0, 74, 110
2, 171959, Note_on_c, 0, 74, 0
2, 171960, Note_on_c, 0, 74, 110
2, 171979, Note_on_c, 0, 74, 0
2, 171980, Note_on_c, 0, 73, 110
2, 171999, Note_on_c, 0, 73, 0
2, 172000, Note_on_c, 0, 71, 110
2, 172019, Note_on_c, 0, 71, 0
2, 172020, Note_on_c, 0, 73, 110
2, 172039, Note_on_c, 0, 73, 0
2, 172040, Note_on_c, 0, 69, 110
2, 172059, Note_on_c, 0, 69, 0
2, 172060, Note_on_c, 0, 73, 110
2, 172079, Note_on_c, 0, 73, 0
2, 172080, Note_on_c, 0, 76, 110
2, 172099, Note_on_c, 0, 76, 0
2, 172100, Note_on_c, 0, 73, 110
2, 172119, Note_on_c, 0, 73, 0
2, 172120, Note_on_c, 0, 76, 110
2, 172139, Note_on_c, 0, 76, 0
2, 172140, Note_on_c, 0, 81, 110
2, 172159, Note_on_c, 0, 81, 0
2, 172160, Note_on_c, 0, 76, 110
2, 172179, Note_on_c, 0, 76, 0
2, 172180, Note_on_c, 0, 73, 110
2, 172199, Note_on_c, 0, 73, 0
2, 172200, Note_on_c, 0, 69, 110
2, 172219, Note_on_c, 0, 69, 0
2, 172220, Note_on_c, 0, 73, 110
2, 172239, Note_on_c, 0, 73, 0
2, 172240, Note_on_c, 0, 76, 110
2, 172259, Note_on_c, 0, 76, 0
2, 172260, Note_on_c, 0, 81, 110
2, 172279, Note_on_c, 0, 81, 0
2, 172280, Note_on_c, 0, 76, 110
2, 172299, Note_on_c, 0, 76, 0
2, 172300, Note_on_c, 0, 81, 110
2, 172319, Note_on_c, 0, 81, 0
2, 172320, Note_on_c, 0, 83, 110
2, 172339, Note_on_c, 0, 83, 0
2, 172340, Note_on_c, 0, 76, 110
2, 172359, Note_on_c, 0, 76, 0
2, 172360, Note_on_c, 0, 83, 110
2, 172379, Note_on_c, 0, 83, 0
2, 172380, Note_on_c, 0, 85, 110
2, 172399, Note_on_c, 0, 85, 0
2, 172400, Note_on_c, 0, 76, 110
2, 172419, Note_on_c, 0, 76, 0
2, 172420, Note_on_c, 0, 74, 110
2, 172439, Note_on_c, 0, 74, 0
2, 172440, Note_on_c, 0, 73, 110
2, 172459, Note_on_c, 0, 73, 0
2, 172460, Note_on_c, 0, 71, 110
2, 172479, Note_on_c, 0, 71, 0
2, 172480, Note_on_c, 0, 69, 110
2, 172499, Note_on_c, 0, 69, 0
2, 172500, Note_on_c, 0, 71, 110
2, 172519, Note_on_c, 0, 71, 0
2, 172520, Note_on_c, 0, 64, 110
2, 172539, Note_on_c, 0, 64, 0
2, 172540, Note_on_c, 0, 68, 110
2, 172559, Note_on_c, 0, 68, 0
2, 172560, Note_on_c, 0, 71, 110
2, 172579, Note_on_c, 0, 71, 0
2, 172580, Note_on_c, 0, 76, 110
2, 172599, Note_on_c, 0, 76, 0
2, 172600, Note_on_c, 0, 80, 110
2, 172619, Note_on_c, 0, 80, 0
2, 172620, Note_on_c, 0, 83, 110
2, 172639, Note_on_c, 0, 83, 0
2, 172640, Note_on_c, 0, 76, 110
2, 172659, Note_on_c, 0, 76, 0
2, 172660, Note_on_c, 0, 83, 110
2, 172679, Note_on_c, 0, 83, 0
2, 172680, Note_on_c, 0, 85, 110
2, 172699, Note_on_c, 0, 85, 0
2, 172700, Note_on_c, 0, 81, 110
2, 172719, Note_on_c, 0, 81, 0
2, 172720, Note_on_c, 0, 85, 110
2, 172739, Note_on_c, 0, 85, 0
2, 172740, Note_on_c, 0, 86, 110
2, 172759, Note_on_c, 0, 86, 0
2, 172760, Note_on_c, 0, 78, 110
2, 172779, Note_on_c, 0, 78, 0
2, 172780, Note_on_c, 0, 76, 110
2, 172799, Note_on_c, 0, 76, 0
2, 172800, Note_on_c, 0, 74, 110
2, 172819, Note_on_c, 0, 74, 0
2, 172820, Note_on_c, 0, 73, 110
2, 172839, Note_on_c, 0, 73, 0
2, 172840, Note_on_c, 0, 71, 110
2, 172859, Note_on_c, 0, 71, 0
2, 172860, Note_on_c, 0, 73, 110
2, 172879, Note_on_c, 0, 73, 0
2, 172880, Note_on_c, 0, 64, 110
2, 172899, Note_on_c, 0, 64, 0
2, 172900, Note_on_c, 0, 69, 110
2, 172919, Note_on_c, 0, 69, 0
2, 172920, Note_on_c, 0, 73, 110
2, 172939, Note_on_c, 0, 73, 0
2, 172940, Note_on_c, 0, 76, 110
2, 172959, Note_on_c, 0, 76, 0
2, 172960, Note_on_c, 0, 81, 110
2, 172979, Note_on_c, 0, 81, 0
2, 172980, Note_on_c, 0, 85, 110
2, 172999, Note_on_c, 0, 85, 0
2, 173000, Note_on_c, 0, 69, 110
2, 173019, Note_on_c, 0, 69, 0
2, 173020, Note_on_c, 0, 73, 110
2, 173039, Note_on_c, 0, 73, 0
2, 173040, Note_on_c, 0, 76, 110
2, 173059, Note_on_c, 0, 76, 0
2, 173060, Note_on_c, 0, 73, 110
2, 173079, Note_on_c, 0, 73, 0
2, 173080, Note_on_c, 0, 76, 110
2, 173099, Note_on_c, 0, 76, 0
2, 173100, Note_on_c, 0, 81, 110
2, 173119, Note_on_c, 0, 81, 0
2, 173120, Note_on_c, 0, 76, 110
2, 173139, Note_on_c, 0, 76, 0
2, 173140, Note_on_c, 0, 73, 110
2, 173159, Note_on_c, 0, 73, 0
2, 173160, Note_on_c, 0, 69, 110
2, 173179, Note_on_c, 0, 69, 0
2, 173180, Note_on_c, 0, 74, 110
2, 173199, Note_on_c, 0, 74, 0
2, 173200, Note_on_c, 0, 73, 110
2, 173219, Note_on_c, 0, 73, 0
2, 173220, Note_on_c, 0, 71, 110
2, 173239, Note_on_c, 0, 71, 0
2, 173240, Note_on_c, 0, 73, 110
2, 173259, Note_on_c, 0, 73, 0
2, 173260, Note_on_c, 0, 69, 110
2, 173279, Note_on_c, 0, 69, 0
2, 173280, Note_on_c, 0, 68, 110
2, 173299, Note_on_c, 0, 68, 0
2, 173300, Note_on_c, 0, 69, 110
2, 173319, Note_on_c, 0, 69, 0
2, 173320, Note_on_c, 0, 66, 110
2, 173339, Note_on_c, 0, 66, 0
2, 173340, Note_on_c, 0, 64, 110
2, 173359, Note_on_c, 0, 64, 0
2, 173360, Note_on_c, 0, 68, 110
2, 173379, Note_on_c, 0, 68, 0
2, 173380, Note_on_c, 0, 71, 110
2, 173399, Note_on_c, 0, 71, 0
2, 173400, Note_on_c, 0, 76, 110
2, 173419, Note_on_c, 0, 76, 0
2, 173420, Note_on_c, 0, 74, 110
2, 173439, Note_on_c, 0, 74, 0
2, 173440, Note_on_c, 0, 73, 110
2, 173459, Note_on_c, 0, 73, 0
2, 173460, Note_on_c, 0, 71, 110
2, 173479, Note_on_c, 0, 71, 0
2, 173480, Note_on_c, 0, 76, 110
2, 173499, Note_on_c, 0, 76, 0
2, 173500, Note_on_c, 0, 71, 110
2, 173519, Note_on_c, 0, 71, 0
2, 173520, Note_on_c, 0, 68, 110
2, 173539, Note_on_c, 0, 68, 0
2, 173540, Note_on_c, 0, 71, 110
2, 173559, Note_on_c, 0, 71, 0
2, 173560, Note_on_c, 0, 68, 110
2, 173579, Note_on_c, 0, 68, 0
2, 173580, Note_on_c, 0, 64, 110
2, 173700, Note_on_c, 0, 64, 0
2, 173700, Note_on_c, 0, 69, 110
2, 173760, Note_on_c, 0, 69, 0
2, 173760, Note_on_c, 0, 71, 110
2, 173820, Note_on_c, 0, 71, 0
2, 173820, Note_on_c, 0, 71, 110
2, 173850, Note_on_c, 0, 71, 0
2, 173850, Note_on_c, 0, 73, 110
2, 173940, Note_on_c, 0, 73, 0
2, 173940, Note_on_c, 0, 71, 110
2, 174000, Note_on_c, 0, 71, 0
2, 174000, Note_on_c, 0, 64, 110
2, 174060, Note_on_c, 0, 64, 0
2, 174060, Note_on_c, 0, 71, 110
2, 174120, Note_on_c, 0, 71, 0
2, 174120, Note_on_c, 0, 73, 110
2, 174180, Note_on_c, 0, 73, 0
2, 174180, Note_on_c, 0, 73, 110
2, 174210, Note_on_c, 0, 73, 0
2, 174210, Note_on_c, 0, 74, 110
2, 174300, Note_on_c, 0, 74, 0
2, 174300, Note_on_c, 0, 73, 110
2, 174360, Note_on_c, 0, 73, 0
2, 174360, Note_on_c, 0, 76, 110
2, 174419, Note_on_c, 0, 76, 0
2, 174420, Note_on_c, 0, 76, 110
2, 174479, Note_on_c, 0, 76, 0
2, 174480, Note_on_c, 0, 76, 110
2, 174539, Note_on_c, 0, 76, 0
2, 174540, Note_on_c, 0, 76, 110
2, 174599, Note_on_c, 0, 76, 0
2, 174600, Note_on_c, 0, 74, 110
2, 174629, Note_on_c, 0, 74, 0
2, 174630, Note_on_c, 0, 73, 110
2, 174659, Note_on_c, 0, 73, 0
2, 174660, Note_on_c, 0, 71, 110
2, 174689, Note_on_c, 0, 71, 0
2, 174690, Note_on_c, 0, 69, 110
2, 174719, Note_on_c, 0, 69, 0
2, 174720, Note_on_c, 0, 68, 110
2, 174779, Note_on_c, 0, 68, 0
2, 174780, Note_on_c, 0, 74, 110
2, 174839, Note_on_c, 0, 74, 0
2, 174840, Note_on_c, 0, 73, 110
2, 174899, Note_on_c, 0, 73, 0
2, 174900, Note_on_c, 0, 71, 110
2, 174980, Note_on_c, 0, 71, 0
2, 174980, Note_on_c, 0, 68, 110
2, 175000, Note_on_c, 0, 68, 0
2, 175000, Note_on_c, 0, 69, 110
2, 175020, Note_on_c, 0, 69, 0
2, 175020, Note_on_c, 0, 71, 110
2, 175039, Note_on_c, 0, 71, 0
2, 175040, Note_on_c, 0, 73, 110
2, 175059, Note_on_c, 0, 73, 0
2, 175060, Note_on_c, 0, 74, 110
2, 175079, Note_on_c, 0, 74, 0
2, 175080, Note_on_c, 0, 76, 110
2, 175099, Note_on_c, 0, 76, 0
2, 175100, Note_on_c, 0, 78, 110
2, 175119, Note_on_c, 0, 78, 0
2, 175120, Note_on_c, 0, 76, 110
2, 175139, Note_on_c, 0, 76, 0
2, 175140, Note_on_c, 0, 74, 110
2, 175159, Note_on_c, 0, 74, 0
2, 175160, Note_on_c, 0, 76, 110
2, 175179, Note_on_c, 0, 76, 0
2, 175180, Note_on_c, 0, 74, 110
2, 175199, Note_on_c, 0, 74, 0
2, 175200, Note_on_c, 0, 73, 110
2, 175219, Note_on_c, 0, 73, 0
2, 175220, Note_on_c, 0, 74, 110
2, 175239, Note_on_c, 0, 74, 0
2, 175240, Note_on_c, 0, 73, 110
2, 175259, Note_on_c, 0, 73, 0
2, 175260, Note_on_c, 0, 74, 110
2, 175279, Note_on_c, 0, 74, 0
2, 175280, Note_on_c, 0, 71, 110
2, 175299, Note_on_c, 0, 71, 0
2, 175300, Note_on_c, 0, 73, 110
2, 175319, Note_on_c, 0, 73, 0
2, 175320, Note_on_c, 0, 74, 110
2, 175339, Note_on_c, 0, 74, 0
2, 175340, Note_on_c, 0, 76, 110
2, 175359, Note_on_c, 0, 76, 0
2, 175360, Note_on_c, 0, 78, 110
2, 175379, Note_on_c, 0, 78, 0
2, 175380, Note_on_c, 0, 79, 110
2, 175399, Note_on_c, 0, 79, 0
2, 175400, Note_on_c, 0, 78, 110
2, 175419, Note_on_c, 0, 78, 0
2, 175420, Note_on_c, 0, 76, 110
2, 175439, Note_on_c, 0, 76, 0
2, 175440, Note_on_c, 0, 74, 110
2, 175459, Note_on_c, 0, 74, 0
2, 175460, Note_on_c, 0, 76, 110
2, 175479, Note_on_c, 0, 76, 0
2, 175480, Note_on_c, 0, 74, 110
2, 175499, Note_on_c, 0, 74, 0
2, 175500, Note_on_c, 0, 73, 110
2, 175519, Note_on_c, 0, 73, 0
2, 175520, Note_on_c, 0, 74, 110
2, 175539, Note_on_c, 0, 74, 0
2, 175540, Note_on_c, 0, 73, 110
2, 175559, Note_on_c, 0, 73, 0
2, 175560, Note_on_c, 0, 71, 110
2, 175579, Note_on_c, 0, 71, 0
2, 175580, Note_on_c, 0, 73, 110
2, 175599, Note_on_c, 0, 73, 0
2, 175600, Note_on_c, 0, 71, 110
2, 175619, Note_on_c, 0, 71, 0
2, 175620, Note_on_c, 0, 73, 110
2, 175639, Note_on_c, 0, 73, 0
2, 175640, Note_on_c, 0, 69, 110
2, 175659, Note_on_c, 0, 69, 0
2, 175660, Note_on_c, 0, 71, 110
2, 175679, Note_on_c, 0, 71, 0
2, 175680, Note_on_c, 0, 73, 110
2, 175699, Note_on_c, 0, 73, 0
2, 175700, Note_on_c, 0, 74, 110
2, 175719, Note_on_c, 0, 74, 0
2, 175720, Note_on_c, 0, 76, 110
2, 175739, Note_on_c, 0, 76, 0
2, 175740, Note_on_c, 0, 78, 110
2, 175759, Note_on_c, 0, 78, 0
2, 175760, Note_on_c, 0, 76, 110
2, 175779, Note_on_c, 0, 76, 0
2, 175780, Note_on_c, 0, 74, 110
2, 175799, Note_on_c, 0, 74, 0
2, 175800, Note_on_c, 0, 73, 110
2, 175819, Note_on_c, 0, 73, 0
2, 175820, Note_on_c, 0, 74, 110
2, 175839, Note_on_c, 0, 74, 0
2, 175840, Note_on_c, 0, 73, 110
2, 175859, Note_on_c, 0, 73, 0
2, 175860, Note_on_c, 0, 71, 110
2, 175879, Note_on_c, 0, 71, 0
2, 175880, Note_on_c, 0, 73, 110
2, 175899, Note_on_c, 0, 73, 0
2, 175900, Note_on_c, 0, 71, 110
2, 175919, Note_on_c, 0, 71, 0
2, 175920, Note_on_c, 0, 69, 110
2, 175939, Note_on_c, 0, 69, 0
2, 175940, Note_on_c, 0, 71, 110
2, 175959, Note_on_c, 0, 71, 0
2, 175960, Note_on_c, 0, 69, 110
2, 175979, Note_on_c, 0, 69, 0
2, 175980, Note_on_c, 0, 68, 110
2, 175999, Note_on_c, 0, 68, 0
2, 176000, Note_on_c, 0, 66, 110
2, 176019, Note_on_c, 0, 66, 0
2, 176020, Note_on_c, 0, 68, 110
2, 176039, Note_on_c, 0, 68, 0
2, 176040, Note_on_c, 0, 69, 110
2, 176059, Note_on_c, 0, 69, 0
2, 176060, Note_on_c, 0, 71, 110
2, 176079, Note_on_c, 0, 71, 0
2, 176080, Note_on_c, 0, 73, 110
2, 176099, Note_on_c, 0, 73, 0
2, 176100, Note_on_c, 0, 74, 110
2, 176119, Note_on_c, 0, 74, 0
2, 176120, Note_on_c, 0, 73, 110
2, 176139, Note_on_c, 0, 73, 0
2, 176140, Note_on_c, 0, 71, 110
2, 176159, Note_on_c, 0, 71, 0
2, 176160, Note_on_c, 0, 73, 110
2, 176179, Note_on_c, 0, 73, 0
2, 176180, Note_on_c, 0, 71, 110
2, 176199, Note_on_c, 0, 71, 0
2, 176200, Note_on_c, 0, 69, 110
2, 176219, Note_on_c, 0, 69, 0
2, 176220, Note_on_c, 0, 68, 110
2, 176239, Note_on_c, 0, 68, 0
2, 176240, Note_on_c, 0, 64, 110
2, 176259, Note_on_c, 0, 64, 0
2, 176260, Note_on_c, 0, 68, 110
2, 176279, Note_on_c, 0, 68, 0
2, 176280, Note_on_c, 0, 71, 110
2, 176299, Note_on_c, 0, 71, 0
2, 176300, Note_on_c, 0, 74, 110
2, 176319, Note_on_c, 0, 74, 0
2, 176320, Note_on_c, 0, 71, 110
2, 176339, Note_on_c, 0, 71, 0
2, 176340, Note_on_c, 0, 73, 110
2, 176359, Note_on_c, 0, 73, 0
2, 176360, Note_on_c, 0, 69, 110
2, 176379, Note_on_c, 0, 69, 0
2, 176380, Note_on_c, 0, 73, 110
2, 176399, Note_on_c, 0, 73, 0
2, 176400, Note_on_c, 0, 76, 110
2, 176419, Note_on_c, 0, 76, 0
2, 176420, Note_on_c, 0, 81, 110
2, 176439, Note_on_c, 0, 81, 0
2, 176440, Note_on_c, 0, 76, 110
2, 176459, Note_on_c, 0, 76, 0
2, 176460, Note_on_c, 0, 73, 110
2, 176479, Note_on_c, 0, 73, 0
2, 176480, Note_on_c, 0, 69, 110
2, 176499, Note_on_c, 0, 69, 0
2, 176500, Note_on_c, 0, 73, 110
2, 176519, Note_on_c, 0, 73, 0
2, 176520, Note_on_c, 0, 76, 110
2, 176579, Note_on_c, 0, 76, 0
2, 176580, Note_on_c, 0, 74, 110
2, 176639, Note_on_c, 0, 74, 0
2, 176640, Note_on_c, 0, 73, 110
2, 176699, Note_on_c, 0, 73, 0
2, 176700, Note_on_c, 0, 74, 110
2, 176789, Note_on_c, 0, 74, 0
2, 176790, Note_on_c, 0, 76, 110
2, 176804, Note_on_c, 0, 76, 0
2, 176805, Note_on_c, 0, 78, 110
2, 176819, Note_on_c, 0, 78, 0
2, 176820, Note_on_c, 0, 76, 110
2, 176879, Note_on_c, 0, 76, 0
2, 176880, Note_on_c, 0, 74, 110
2, 176939, Note_on_c, 0, 74, 0
2, 176940, Note_on_c, 0, 73, 110
2, 176999, Note_on_c, 0, 73, 0
2, 177000, Note_on_c, 0, 71, 110
2, 177059, Note_on_c, 0, 71, 0
2, 177060, Note_on_c, 0, 73, 110
2, 177149, Note_on_c, 0, 73, 0
2, 177150, Note_on_c, 0, 74, 110
2, 177164, Note_on_c, 0, 74, 0
2, 177165, Note_on_c, 0, 76, 110
2, 177179, Note_on_c, 0, 76, 0
2, 177180, Note_on_c, 0, 74, 110
2, 177239, Note_on_c, 0, 74, 0
2, 177240, Note_on_c, 0, 64, 110
2, 177299, Note_on_c, 0, 64, 0
2, 177300, Note_on_c, 0, 64, 110
2, 177359, Note_on_c, 0, 64, 0
2, 177360, Note_on_c, 0, 64, 110
2, 177419, Note_on_c, 0, 64, 0
2, 177420, Note_on_c, 0, 64, 110
2, 177479, Note_on_c, 0, 64, 0
2, 177480, Note_on_c, 0, 66, 110
2, 177509, Note_on_c, 0, 66, 0
2, 177510, Note_on_c, 0, 68, 110
2, 177539, Note_on_c, 0, 68, 0
2, 177540, Note_on_c, 0, 69, 110
2, 177569, Note_on_c, 0, 69, 0
2, 177570, Note_on_c, 0, 71, 110
2, 177599, Note_on_c, 0, 71, 0
2, 177600, Note_on_c, 0, 73, 110
2, 177659, Note_on_c, 0, 73, 0
2, 177660, Note_on_c, 0, 74, 110
2, 177719, Note_on_c, 0, 74, 0
2, 177720, Note_on_c, 0, 71, 110
2, 177779, Note_on_c, 0, 71, 0
2, 177780, Note_on_c, 0, 69, 110
2, 177899, Note_on_c, 0, 69, 0
2, 177899, End_track
3, 0, Start_track
3, 0, MIDI_port, 0
3, 0, Title_t, "Corno"
3, 0, Program_c, 1, 60
3, 182281, Control_c, 1, 91, 91
3, 182282, Control_c, 1, 91, 120
3, 182580, Note_on_c, 1, 62, 127
3, 182639, Note_on_c, 1, 62, 0
3, 182640, Note_on_c, 1, 67, 127
3, 182699, Note_on_c, 1, 67, 0
3, 182700, Note_on_c, 1, 62, 127
3, 182759, Note_on_c, 1, 62, 0
3, 182760, Note_on_c, 1, 67, 127
3, 182819, Note_on_c, 1, 67, 0
3, 182820, Note_on_c, 1, 69, 127
3, 182879, Note_on_c, 1, 69, 0
3, 182880, Note_on_c, 1, 67, 127
3, 182939, Note_on_c, 1, 67, 0
3, 182940, Note_on_c, 1, 69, 127
3, 182999, Note_on_c, 1, 69, 0
3, 183000, Note_on_c, 1, 71, 127
3, 183179, Note_on_c, 1, 71, 0
3, 183180, Note_on_c, 1, 69, 127
3, 183299, Note_on_c, 1, 69, 0
3, 183300, Note_on_c, 1, 69, 127
3, 183359, Note_on_c, 1, 69, 0
3, 183360, Note_on_c, 1, 71, 127
3, 183419, Note_on_c, 1, 71, 0
3, 183420, Note_on_c, 1, 72, 127
3, 183479, Note_on_c, 1, 72, 0
3, 183480, Note_on_c, 1, 71, 127
3, 183539, Note_on_c, 1, 71, 0
3, 183540, Note_on_c, 1, 69, 127
3, 183599, Note_on_c, 1, 69, 0
3, 183600, Note_on_c, 1, 67, 127
3, 183659, Note_on_c, 1, 67, 0
3, 183660, Note_on_c, 1, 69, 127
3, 183719, Note_on_c, 1, 69, 0
3, 183720, Note_on_c, 1, 67, 127
3, 184019, Note_on_c, 1, 67, 0
3, 184560, Note_on_c, 1, 62, 127
3, 184589, Note_on_c, 1, 62, 0
3, 184590, Note_on_c, 1, 62, 127
3, 184619, Note_on_c, 1, 62, 0
3, 184620, Note_on_c, 1, 62, 127
3, 184679, Note_on_c, 1, 62, 0
3, 184680, Note_on_c, 1, 62, 127
3, 184709, Note_on_c, 1, 62, 0
3, 184710, Note_on_c, 1, 62, 127
3, 184739, Note_on_c, 1, 62, 0
3, 184740, Note_on_c, 1, 62, 127
3, 184769, Note_on_c, 1, 62, 0
3, 184770, Note_on_c, 1, 62, 127
3, 184799, Note_on_c, 1, 62, 0
3, 184800, Note_on_c, 1, 62, 127
3, 184919, Note_on_c, 1, 62, 0
3, 185280, Note_on_c, 1, 62, 127
3, 185303, Note_on_c, 1, 62, 0
3, 185310, Note_on_c, 1, 62, 127
3, 185333, Note_on_c, 1, 62, 0
3, 185340, Note_on_c, 1, 62, 127
3, 185387, Note_on_c, 1, 62, 0
3, 185400, Note_on_c, 1, 62, 127
3, 185423, Note_on_c, 1, 62, 0
3, 185430, Note_on_c, 1, 62, 127
3, 185453, Note_on_c, 1, 62, 0
3, 185460, Note_on_c, 1, 62, 127
3, 185483, Note_on_c, 1, 62, 0
3, 185490, Note_on_c, 1, 62, 127
3, 185513, Note_on_c, 1, 62, 0
3, 185520, Note_on_c, 1, 62, 127
3, 185567, Note_on_c, 1, 62, 0
3, 185580, Note_on_c, 1, 62, 127
3, 185603, Note_on_c, 1, 62, 0
3, 185610, Note_on_c, 1, 62, 127
3, 185633, Note_on_c, 1, 62, 0
3, 185640, Note_on_c, 1, 62, 127
3, 185663, Note_on_c, 1, 62, 0
3, 185670, Note_on_c, 1, 62, 127
3, 185693, Note_on_c, 1, 62, 0
3, 185700, Note_on_c, 1, 62, 127
3, 185747, Note_on_c, 1, 62, 0
3, 185760, Note_on_c, 1, 62, 127
3, 185783, Note_on_c, 1, 62, 0
3, 185790, Note_on_c, 1, 62, 127
3, 185813, Note_on_c, 1, 62, 0
3, 185820, Note_on_c, 1, 62, 127
3, 185843, Note_on_c, 1, 62, 0
3, 185850, Note_on_c, 1, 62, 127
3, 185873, Note_on_c, 1, 62, 0
3, 185880, Note_on_c, 1, 62, 127
3, 185927, Note_on_c, 1, 62, 0
3, 185940, Note_on_c, 1, 62, 127
3, 185963, Note_on_c, 1, 62, 0
3, 185970, Note_on_c, 1, 62, 127
3, 185993, Note_on_c, 1, 62, 0
3, 186000, Note_on_c, 1, 62, 127
3, 186023, Note_on_c, 1, 62, 0
3, 186030, Note_on_c, 1, 62, 127
3, 186053, Note_on_c, 1, 62, 0
3, 186060, Note_on_c, 1, 62, 127
3, 186107, Note_on_c, 1, 62, 0
3, 186120, Note_on_c, 1, 62, 127
3, 186143, Note_on_c, 1, 62, 0
3, 186150, Note_on_c, 1, 62, 127
3, 186173, Note_on_c, 1, 62, 0
3, 186180, Note_on_c, 1, 62, 127
3, 186203, Note_on_c, 1, 62, 0
3, 186210, Note_on_c, 1, 62, 127
3, 186233, Note_on_c, 1, 62, 0
3, 186240, Note_on_c, 1, 62, 127
3, 186287, Note_on_c, 1, 62, 0
3, 186300, Note_on_c, 1, 62, 127
3, 186323, Note_on_c, 1, 62, 0
3, 186330, Note_on_c, 1, 62, 127
3, 186353, Note_on_c, 1, 62, 0
3, 186360, Note_on_c, 1, 62, 127
3, 186383, Note_on_c, 1, 62, 0
3, 186390, Note_on_c, 1, 62, 127
3, 186413, Note_on_c, 1, 62, 0
3, 186420, Note_on_c, 1, 62, 127
3, 186479, Note_on_c, 1, 62, 0
3, 186480, Note_on_c, 1, 59, 127
3, 186539, Note_on_c, 1, 59, 0
3, 186540, Note_on_c, 1, 62, 127
3, 186599, Note_on_c, 1, 62, 0
3, 186600, Note_on_c, 1, 59, 127
3, 186659, Note_on_c, 1, 59, 0
3, 186660, Note_on_c, 1, 59, 127
3, 186683, Note_on_c, 1, 59, 0
3, 186690, Note_on_c, 1, 59, 127
3, 186713, Note_on_c, 1, 59, 0
3, 186720, Note_on_c, 1, 59, 127
3, 186743, Note_on_c, 1, 59, 0
3, 186750, Note_on_c, 1, 59, 127
3, 186773, Note_on_c, 1, 59, 0
3, 186780, Note_on_c, 1, 59, 127
3, 186899, Note_on_c, 1, 59, 0
3, 186900, Note_on_c, 1, 71, 127
3, 186929, Note_on_c, 1, 71, 0
3, 186930, Note_on_c, 1, 72, 127
3, 186959, Note_on_c, 1, 72, 0
3, 186960, Note_on_c, 1, 74, 127
3, 187019, Note_on_c, 1, 74, 0
3, 187020, Note_on_c, 1, 76, 127
3, 187079, Note_on_c, 1, 76, 0
3, 187080, Note_on_c, 1, 74, 127
3, 187139, Note_on_c, 1, 74, 0
3, 187140, Note_on_c, 1, 69, 127
3, 187199, Note_on_c, 1, 69, 0
3, 187200, Note_on_c, 1, 71, 127
3, 187259, Note_on_c, 1, 71, 0
3, 187260, Note_on_c, 1, 72, 127
3, 187319, Note_on_c, 1, 72, 0
3, 187320, Note_on_c, 1, 71, 127
3, 187379, Note_on_c, 1, 71, 0
3, 187380, Note_on_c, 1, 69, 127
3, 187439, Note_on_c, 1, 69, 0
3, 187440, Note_on_c, 1, 71, 127
3, 187499, Note_on_c, 1, 71, 0
3, 187500, Note_on_c, 1, 69, 127
3, 187619, Note_on_c, 1, 69, 0
3, 187620, Note_on_c, 1, 62, 127
3, 187679, Note_on_c, 1, 62, 0
3, 187680, Note_on_c, 1, 62, 127
3, 187799, Note_on_c, 1, 62, 0
3, 187800, Note_on_c, 1, 62, 127
3, 187859, Note_on_c, 1, 62, 0
3, 187860, Note_on_c, 1, 62, 127
3, 187919, Note_on_c, 1, 62, 0
3, 187920, Note_on_c, 1, 62, 127
3, 187979, Note_on_c, 1, 62, 0
3, 187980, Note_on_c, 1, 62, 127
3, 188039, Note_on_c, 1, 62, 0
3, 188040, Note_on_c, 1, 62, 127
3, 188099, Note_on_c, 1, 62, 0
3, 188100, Note_on_c, 1, 62, 127
3, 188123, Note_on_c, 1, 62, 0
3, 188130, Note_on_c, 1, 62, 127
3, 188153, Note_on_c, 1, 62, 0
3, 188160, Note_on_c, 1, 62, 127
3, 188183, Note_on_c, 1, 62, 0
3, 188190, Note_on_c, 1, 62, 127
3, 188213, Note_on_c, 1, 62, 0
3, 188220, Note_on_c, 1, 62, 127
3, 188339, Note_on_c, 1, 62, 0
3, 188340, Note_on_c, 1, 62, 127
3, 188399, Note_on_c, 1, 62, 0
3, 188400, Note_on_c, 1, 67, 127
3, 188459, Note_on_c, 1, 67, 0
3, 188460, Note_on_c, 1, 62, 127
3, 188519, Note_on_c, 1, 62, 0
3, 188520, Note_on_c, 1, 67, 127
3, 188579, Note_on_c, 1, 67, 0
3, 188580, Note_on_c, 1, 69, 127
3, 188639, Note_on_c, 1, 69, 0
3, 188640, Note_on_c, 1, 62, 127
3, 188699, Note_on_c, 1, 62, 0
3, 188700, Note_on_c, 1, 69, 127
3, 188759, Note_on_c, 1, 69, 0
3, 188760, Note_on_c, 1, 71, 127
3, 188819, Note_on_c, 1, 71, 0
3, 188820, Note_on_c, 1, 62, 127
3, 188879, Note_on_c, 1, 62, 0
3, 188880, Note_on_c, 1, 71, 127
3, 188939, Note_on_c, 1, 71, 0
3, 188940, Note_on_c, 1, 69, 127
3, 188999, Note_on_c, 1, 69, 0
3, 189000, Note_on_c, 1, 62, 127
3, 189059, Note_on_c, 1, 62, 0
3, 189060, Note_on_c, 1, 69, 127
3, 189119, Note_on_c, 1, 69, 0
3, 189120, Note_on_c, 1, 71, 127
3, 189179, Note_on_c, 1, 71, 0
3, 189180, Note_on_c, 1, 72, 127
3, 189239, Note_on_c, 1, 72, 0
3, 189240, Note_on_c, 1, 71, 127
3, 189299, Note_on_c, 1, 71, 0
3, 189300, Note_on_c, 1, 69, 127
3, 189359, Note_on_c, 1, 69, 0
3, 189360, Note_on_c, 1, 67, 127
3, 189419, Note_on_c, 1, 67, 0
3, 189420, Note_on_c, 1, 69, 127
3, 189479, Note_on_c, 1, 69, 0
3, 189480, Note_on_c, 1, 67, 127
3, 189539, Note_on_c, 1, 67, 0
3, 189540, Note_on_c, 1, 55, 127
3, 189563, Note_on_c, 1, 55, 0
3, 189570, Note_on_c, 1, 55, 127
3, 189593, Note_on_c, 1, 55, 0
3, 189600, Note_on_c, 1, 55, 127
3, 189623, Note_on_c, 1, 55, 0
3, 189630, Note_on_c, 1, 55, 127
3, 189653, Note_on_c, 1, 55, 0
3, 189660, Note_on_c, 1, 55, 127
3, 189779, Note_on_c, 1, 55, 0
3, 194400, Note_on_c, 1, 57, 127
3, 194519, Note_on_c, 1, 57, 0
3, 194520, Note_on_c, 1, 54, 127
3, 194639, Note_on_c, 1, 54, 0
3, 194640, Note_on_c, 1, 50, 127
3, 194759, Note_on_c, 1, 50, 0
3, 194760, Note_on_c, 1, 57, 127
3, 194879, Note_on_c, 1, 57, 0
3, 194880, Note_on_c, 1, 54, 127
3, 194999, Note_on_c, 1, 54, 0
3, 195000, Note_on_c, 1, 50, 127
3, 195119, Note_on_c, 1, 50, 0
3, 195120, Note_on_c, 1, 64, 127
3, 195239, Note_on_c, 1, 64, 0
3, 195240, Note_on_c, 1, 64, 127
3, 195359, Note_on_c, 1, 64, 0
3, 195360, Note_on_c, 1, 69, 127
3, 195479, Note_on_c, 1, 69, 0
3, 195480, Note_on_c, 1, 64, 127
3, 195599, Note_on_c, 1, 64, 0
3, 195600, Note_on_c, 1, 64, 127
3, 195839, Note_on_c, 1, 64, 0
3, 198000, Note_on_c, 1, 57, 127
3, 198119, Note_on_c, 1, 57, 0
3, 198120, Note_on_c, 1, 57, 127
3, 198239, Note_on_c, 1, 57, 0
3, 198240, Note_on_c, 1, 57, 127
3, 198299, Note_on_c, 1, 57, 0
3, 198300, Note_on_c, 1, 57, 127
3, 198359, Note_on_c, 1, 57, 0
3, 198360, Note_on_c, 1, 57, 127
3, 198419, Note_on_c, 1, 57, 0
3, 198420, Note_on_c, 1, 57, 127
3, 198479, Note_on_c, 1, 57, 0
3, 198480, Note_on_c, 1, 57, 127
3, 198599, Note_on_c, 1, 57, 0
3, 198600, Note_on_c, 1, 62, 127
3, 198719, Note_on_c, 1, 62, 0
3, 198720, Note_on_c, 1, 57, 127
3, 198839, Note_on_c, 1, 57, 0
3, 198840, Note_on_c, 1, 57, 127
3, 198959, Note_on_c, 1, 57, 0
3, 198960, Note_on_c, 1, 57, 127
3, 199019, Note_on_c, 1, 57, 0
3, 199020, Note_on_c, 1, 57, 127
3, 199079, Note_on_c, 1, 57, 0
3, 199080, Note_on_c, 1, 57, 127
3, 199139, Note_on_c, 1, 57, 0
3, 199140, Note_on_c, 1, 57, 127
3, 199199, Note_on_c, 1, 57, 0
3, 199200, Note_on_c, 1, 54, 127
3, 199439, Note_on_c, 1, 54, 0
3, 199439, End_track
4, 0, Start_track
4, 0, MIDI_port, 0
4, 0, Title_t, "violin I"
4, 0, Program_c, 2, 48
4, 180, Note_on_c, 2, 64, 120
4, 240, Note_on_c, 2, 64, 0
4, 240, Note_on_c, 2, 66, 120
4, 300, Note_on_c, 2, 66, 0
4, 300, Note_on_c, 2, 68, 120
4, 360, Note_on_c, 2, 68, 0
4, 360, Note_on_c, 2, 69, 120
4, 420, Note_on_c, 2, 69, 0
4, 420, Note_on_c, 2, 68, 120
4, 480, Note_on_c, 2, 68, 0
4, 480, Note_on_c, 2, 69, 120
4, 540, Note_on_c, 2, 69, 0
4, 540, Note_on_c, 2, 64, 120
4, 600, Note_on_c, 2, 64, 0
4, 600, Note_on_c, 2, 66, 120
4, 660, Note_on_c, 2, 66, 0
4, 660, Note_on_c, 2, 68, 120
4, 720, Note_on_c, 2, 68, 0
4, 720, Note_on_c, 2, 69, 120
4, 780, Note_on_c, 2, 69, 0
4, 780, Note_on_c, 2, 68, 120
4, 840, Note_on_c, 2, 68, 0
4, 840, Note_on_c, 2, 69, 120
4, 900, Note_on_c, 2, 69, 0
4, 900, Note_on_c, 2, 64, 120
4, 960, Note_on_c, 2, 64, 0
4, 960, Note_on_c, 2, 66, 120
4, 1020, Note_on_c, 2, 66, 0
4, 1020, Note_on_c, 2, 68, 120
4, 1080, Note_on_c, 2, 68, 0
4, 1080, Note_on_c, 2, 69, 120
4, 1140, Note_on_c, 2, 69, 0
4, 1140, Note_on_c, 2, 68, 120
4, 1200, Note_on_c, 2, 68, 0
4, 1200, Note_on_c, 2, 69, 120
4, 1260, Note_on_c, 2, 69, 0
4, 1260, Note_on_c, 2, 71, 120
4, 1320, Note_on_c, 2, 71, 0
4, 1320, Note_on_c, 2, 73, 120
4, 1380, Note_on_c, 2, 73, 0
4, 1380, Note_on_c, 2, 74, 120
4, 1440, Note_on_c, 2, 74, 0
4, 1440, Note_on_c, 2, 76, 120
4, 1620, Note_on_c, 2, 76, 0
4, 1620, Note_on_c, 2, 64, 120
4, 1680, Note_on_c, 2, 64, 0
4, 1680, Note_on_c, 2, 66, 120
4, 1740, Note_on_c, 2, 66, 0
4, 1740, Note_on_c, 2, 68, 120
4, 1800, Note_on_c, 2, 68, 0
4, 1800, Note_on_c, 2, 69, 120
4, 1860, Note_on_c, 2, 69, 0
4, 1860, Note_on_c, 2, 68, 120
4, 1920, Note_on_c, 2, 68, 0
4, 1920, Note_on_c, 2, 69, 120
4, 1980, Note_on_c, 2, 69, 0
4, 1980, Note_on_c, 2, 64, 120
4, 2040, Note_on_c, 2, 64, 0
4, 2040, Note_on_c, 2, 66, 120
4, 2100, Note_on_c, 2, 66, 0
4, 2100, Note_on_c, 2, 68, 120
4, 2160, Note_on_c, 2, 68, 0
4, 2160, Note_on_c, 2, 69, 120
4, 2220, Note_on_c, 2, 69, 0
4, 2220, Note_on_c, 2, 68, 120
4, 2280, Note_on_c, 2, 68, 0
4, 2280, Note_on_c, 2, 69, 120
4, 2340, Note_on_c, 2, 69, 0
4, 2340, Note_on_c, 2, 64, 120
4, 2400, Note_on_c, 2, 64, 0
4, 2400, Note_on_c, 2, 66, 120
4, 2460, Note_on_c, 2, 66, 0
4, 2460, Note_on_c, 2, 68, 120
4, 2520, Note_on_c, 2, 68, 0
4, 2520, Note_on_c, 2, 69, 120
4, 2580, Note_on_c, 2, 69, 0
4, 2580, Note_on_c, 2, 68, 120
4, 2640, Note_on_c, 2, 68, 0
4, 2640, Note_on_c, 2, 69, 120
4, 2700, Note_on_c, 2, 69, 0
4, 2700, Note_on_c, 2, 71, 120
4, 2760, Note_on_c, 2, 71, 0
4, 2760, Note_on_c, 2, 73, 120
4, 2820, Note_on_c, 2, 73, 0
4, 2820, Note_on_c, 2, 74, 120
4, 2880, Note_on_c, 2, 74, 0
4, 2880, Note_on_c, 2, 76, 120
4, 2940, Note_on_c, 2, 76, 0
4, 2940, Note_on_c, 2, 73, 120
4, 3000, Note_on_c, 2, 73, 0
4, 3000, Note_on_c, 2, 73, 120
4, 3060, Note_on_c, 2, 73, 0
4, 3060, Note_on_c, 2, 69, 120
4, 3120, Note_on_c, 2, 69, 0
4, 3120, Note_on_c, 2, 76, 120
4, 3180, Note_on_c, 2, 76, 0
4, 3180, Note_on_c, 2, 74, 120
4, 3240, Note_on_c, 2, 74, 0
4, 3240, Note_on_c, 2, 73, 120
4, 3360, Note_on_c, 2, 73, 0
4, 3360, Note_on_c, 2, 73, 120
4, 3420, Note_on_c, 2, 73, 0
4, 3420, Note_on_c, 2, 71, 120
4, 3450, Note_on_c, 2, 71, 0
4, 3450, Note_on_c, 2, 73, 120
4, 3480, Note_on_c, 2, 73, 0
4, 3480, Note_on_c, 2, 74, 120
4, 3540, Note_on_c, 2, 74, 0
4, 3540, Note_on_c, 2, 73, 120
4, 3600, Note_on_c, 2, 73, 0
4, 3600, Note_on_c, 2, 71, 120
4, 3719, Note_on_c, 2, 71, 0
4, 3720, Note_on_c, 2, 69, 120
4, 3839, Note_on_c, 2, 69, 0
4, 3840, Note_on_c, 2, 73, 120
4, 3899, Note_on_c, 2, 73, 0
4, 3900, Note_on_c, 2, 73, 120
4, 3929, Note_on_c, 2, 73, 0
4, 3930, Note_on_c, 2, 73, 120
4, 3959, Note_on_c, 2, 73, 0
4, 3960, Note_on_c, 2, 73, 120
4, 4019, Note_on_c, 2, 73, 0
4, 4020, Note_on_c, 2, 69, 120
4, 4079, Note_on_c, 2, 69, 0
4, 4080, Note_on_c, 2, 76, 120
4, 4139, Note_on_c, 2, 76, 0
4, 4140, Note_on_c, 2, 74, 120
4, 4199, Note_on_c, 2, 74, 0
4, 4200, Note_on_c, 2, 73, 120
4, 4319, Note_on_c, 2, 73, 0
4, 4320, Note_on_c, 2, 73, 120
4, 4379, Note_on_c, 2, 73, 0
4, 4380, Note_on_c, 2, 71, 120
4, 4409, Note_on_c, 2, 71, 0
4, 4410, Note_on_c, 2, 73, 120
4, 4439, Note_on_c, 2, 73, 0
4, 4440, Note_on_c, 2, 74, 120
4, 4499, Note_on_c, 2, 74, 0
4, 4500, Note_on_c, 2, 73, 120
4, 4559, Note_on_c, 2, 73, 0
4, 4560, Note_on_c, 2, 71, 120
4, 4679, Note_on_c, 2, 71, 0
4, 4680, Note_on_c, 2, 69, 120
4, 4799, Note_on_c, 2, 69, 0
4, 4800, Note_on_c, 2, 73, 120
4, 4919, Note_on_c, 2, 73, 0
4, 4920, Note_on_c, 2, 74, 120
4, 4979, Note_on_c, 2, 74, 0
4, 4980, Note_on_c, 2, 76, 120
4, 5039, Note_on_c, 2, 76, 0
4, 5040, Note_on_c, 2, 73, 120
4, 5099, Note_on_c, 2, 73, 0
4, 5100, Note_on_c, 2, 74, 120
4, 5159, Note_on_c, 2, 74, 0
4, 5160, Note_on_c, 2, 76, 120
4, 5219, Note_on_c, 2, 76, 0
4, 5220, Note_on_c, 2, 69, 120
4, 5279, Note_on_c, 2, 69, 0
4, 5280, Note_on_c, 2, 78, 120
4, 5339, Note_on_c, 2, 78, 0
4, 5340, Note_on_c, 2, 76, 120
4, 5459, Note_on_c, 2, 76, 0
4, 5460, Note_on_c, 2, 69, 120
4, 5489, Note_on_c, 2, 69, 0
4, 5490, Note_on_c, 2, 71, 120
4, 5519, Note_on_c, 2, 71, 0
4, 5520, Note_on_c, 2, 73, 120
4, 5639, Note_on_c, 2, 73, 0
4, 5640, Note_on_c, 2, 74, 120
4, 5699, Note_on_c, 2, 74, 0
4, 5700, Note_on_c, 2, 76, 120
4, 5759, Note_on_c, 2, 76, 0
4, 5760, Note_on_c, 2, 73, 120
4, 5819, Note_on_c, 2, 73, 0
4, 5820, Note_on_c, 2, 74, 120
4, 5879, Note_on_c, 2, 74, 0
4, 5880, Note_on_c, 2, 76, 120
4, 5939, Note_on_c, 2, 76, 0
4, 5940, Note_on_c, 2, 69, 120
4, 5999, Note_on_c, 2, 69, 0
4, 6000, Note_on_c, 2, 78, 120
4, 6059, Note_on_c, 2, 78, 0
4, 6060, Note_on_c, 2, 76, 120
4, 6180, Note_on_c, 2, 76, 0
4, 6180, Note_on_c, 2, 73, 120
4, 6209, Note_on_c, 2, 73, 0
4, 6210, Note_on_c, 2, 76, 120
4, 6239, Note_on_c, 2, 76, 0
4, 6240, Note_on_c, 2, 74, 120
4, 6359, Note_on_c, 2, 74, 0
4, 6360, Note_on_c, 2, 71, 120
4, 6389, Note_on_c, 2, 71, 0
4, 6390, Note_on_c, 2, 74, 120
4, 6419, Note_on_c, 2, 74, 0
4, 6420, Note_on_c, 2, 73, 120
4, 6539, Note_on_c, 2, 73, 0
4, 6540, Note_on_c, 2, 69, 120
4, 6569, Note_on_c, 2, 69, 0
4, 6570, Note_on_c, 2, 73, 120
4, 6599, Note_on_c, 2, 73, 0
4, 6600, Note_on_c, 2, 71, 120
4, 6659, Note_on_c, 2, 71, 0
4, 6660, Note_on_c, 2, 69, 120
4, 6719, Note_on_c, 2, 69, 0
4, 6720, Note_on_c, 2, 68, 120
4, 6779, Note_on_c, 2, 68, 0
4, 6780, Note_on_c, 2, 69, 120
4, 6899, Note_on_c, 2, 69, 0
4, 6900, Note_on_c, 2, 73, 120
4, 6929, Note_on_c, 2, 73, 0
4, 6930, Note_on_c, 2, 76, 120
4, 6959, Note_on_c, 2, 76, 0
4, 6960, Note_on_c, 2, 74, 120
4, 7079, Note_on_c, 2, 74, 0
4, 7080, Note_on_c, 2, 71, 120
4, 7109, Note_on_c, 2, 71, 0
4, 7110, Note_on_c, 2, 74, 120
4, 7139, Note_on_c, 2, 74, 0
4, 7140, Note_on_c, 2, 73, 120
4, 7259, Note_on_c, 2, 73, 0
4, 7260, Note_on_c, 2, 69, 120
4, 7289, Note_on_c, 2, 69, 0
4, 7290, Note_on_c, 2, 73, 120
4, 7319, Note_on_c, 2, 73, 0
4, 7320, Note_on_c, 2, 71, 120
4, 7379, Note_on_c, 2, 71, 0
4, 7380, Note_on_c, 2, 69, 120
4, 7439, Note_on_c, 2, 69, 0
4, 7440, Note_on_c, 2, 68, 120
4, 7499, Note_on_c, 2, 68, 0
4, 7500, Note_on_c, 2, 69, 120
4, 7619, Note_on_c, 2, 69, 0
4, 7620, Note_on_c, 2, 80, 120
4, 7649, Note_on_c, 2, 80, 0
4, 7650, Note_on_c, 2, 81, 120
4, 7679, Note_on_c, 2, 81, 0
4, 7680, Note_on_c, 2, 83, 120
4, 7739, Note_on_c, 2, 83, 0
4, 7740, Note_on_c, 2, 80, 120
4, 7799, Note_on_c, 2, 80, 0
4, 7800, Note_on_c, 2, 76, 120
4, 7859, Note_on_c, 2, 76, 0
4, 7860, Note_on_c, 2, 78, 120
4, 7889, Note_on_c, 2, 78, 0
4, 7890, Note_on_c, 2, 75, 120
4, 7919, Note_on_c, 2, 75, 0
4, 7920, Note_on_c, 2, 76, 120
4, 7979, Note_on_c, 2, 76, 0
4, 7980, Note_on_c, 2, 71, 120
4, 8039, Note_on_c, 2, 71, 0
4, 8040, Note_on_c, 2, 64, 120
4, 8099, Note_on_c, 2, 64, 0
4, 8100, Note_on_c, 2, 80, 120
4, 8129, Note_on_c, 2, 80, 0
4, 8130, Note_on_c, 2, 81, 120
4, 8159, Note_on_c, 2, 81, 0
4, 8160, Note_on_c, 2, 83, 120
4, 8219, Note_on_c, 2, 83, 0
4, 8220, Note_on_c, 2, 80, 120
4, 8279, Note_on_c, 2, 80, 0
4, 8280, Note_on_c, 2, 76, 120
4, 8339, Note_on_c, 2, 76, 0
4, 8340, Note_on_c, 2, 78, 120
4, 8369, Note_on_c, 2, 78, 0
4, 8370, Note_on_c, 2, 75, 120
4, 8399, Note_on_c, 2, 75, 0
4, 8400, Note_on_c, 2, 76, 120
4, 8519, Note_on_c, 2, 76, 0
4, 8520, Note_on_c, 2, 64, 120
4, 8579, Note_on_c, 2, 64, 0
4, 8580, Note_on_c, 2, 80, 120
4, 8609, Note_on_c, 2, 80, 0
4, 8610, Note_on_c, 2, 81, 120
4, 8639, Note_on_c, 2, 81, 0
4, 8640, Note_on_c, 2, 83, 120
4, 8699, Note_on_c, 2, 83, 0
4, 8700, Note_on_c, 2, 80, 120
4, 8759, Note_on_c, 2, 80, 0
4, 8760, Note_on_c, 2, 76, 120
4, 8819, Note_on_c, 2, 76, 0
4, 8820, Note_on_c, 2, 78, 120
4, 8849, Note_on_c, 2, 78, 0
4, 8850, Note_on_c, 2, 75, 120
4, 8879, Note_on_c, 2, 75, 0
4, 8880, Note_on_c, 2, 76, 120
4, 8939, Note_on_c, 2, 76, 0
4, 8940, Note_on_c, 2, 71, 120
4, 8999, Note_on_c, 2, 71, 0
4, 9000, Note_on_c, 2, 64, 120
4, 9059, Note_on_c, 2, 64, 0
4, 9060, Note_on_c, 2, 80, 120
4, 9089, Note_on_c, 2, 80, 0
4, 9090, Note_on_c, 2, 81, 120
4, 9119, Note_on_c, 2, 81, 0
4, 9120, Note_on_c, 2, 83, 120
4, 9179, Note_on_c, 2, 83, 0
4, 9180, Note_on_c, 2, 80, 120
4, 9239, Note_on_c, 2, 80, 0
4, 9240, Note_on_c, 2, 76, 120
4, 9299, Note_on_c, 2, 76, 0
4, 9300, Note_on_c, 2, 78, 120
4, 9329, Note_on_c, 2, 78, 0
4, 9330, Note_on_c, 2, 75, 120
4, 9359, Note_on_c, 2, 75, 0
4, 9360, Note_on_c, 2, 76, 120
4, 9479, Note_on_c, 2, 76, 0
4, 9480, Note_on_c, 2, 64, 120
4, 9539, Note_on_c, 2, 64, 0
4, 9540, Note_on_c, 2, 71, 120
4, 9569, Note_on_c, 2, 71, 0
4, 9570, Note_on_c, 2, 73, 120
4, 9599, Note_on_c, 2, 73, 0
4, 9600, Note_on_c, 2, 74, 120
4, 9659, Note_on_c, 2, 74, 0
4, 9660, Note_on_c, 2, 71, 120
4, 9689, Note_on_c, 2, 71, 0
4, 9690, Note_on_c, 2, 69, 120
4, 9719, Note_on_c, 2, 69, 0
4, 9720, Note_on_c, 2, 71, 120
4, 9839, Note_on_c, 2, 71, 0
4, 9840, Note_on_c, 2, 83, 120
4, 9899, Note_on_c, 2, 83, 0
4, 9900, Note_on_c, 2, 71, 120
4, 9929, Note_on_c, 2, 71, 0
4, 9930, Note_on_c, 2, 69, 120
4, 9959, Note_on_c, 2, 69, 0
4, 9960, Note_on_c, 2, 71, 120
4, 10019, Note_on_c, 2, 71, 0
4, 10020, Note_on_c, 2, 74, 120
4, 10079, Note_on_c, 2, 74, 0
4, 10080, Note_on_c, 2, 73, 120
4, 10139, Note_on_c, 2, 73, 0
4, 10140, Note_on_c, 2, 71, 120
4, 10169, Note_on_c, 2, 71, 0
4, 10170, Note_on_c, 2, 69, 120
4, 10199, Note_on_c, 2, 69, 0
4, 10200, Note_on_c, 2, 71, 120
4, 10259, Note_on_c, 2, 71, 0
4, 10260, Note_on_c, 2, 68, 120
4, 10319, Note_on_c, 2, 68, 0
4, 10320, Note_on_c, 2, 69, 120
4, 10439, Note_on_c, 2, 69, 0
4, 10440, Note_on_c, 2, 57, 120
4, 10499, Note_on_c, 2, 57, 0
4, 10500, Note_on_c, 2, 68, 120
4, 10529, Note_on_c, 2, 68, 0
4, 10530, Note_on_c, 2, 69, 120
4, 10559, Note_on_c, 2, 69, 0
4, 10560, Note_on_c, 2, 71, 120
4, 10619, Note_on_c, 2, 71, 0
4, 10620, Note_on_c, 2, 71, 120
4, 10649, Note_on_c, 2, 71, 0
4, 10650, Note_on_c, 2, 69, 120
4, 10679, Note_on_c, 2, 69, 0
4, 10680, Note_on_c, 2, 71, 120
4, 10799, Note_on_c, 2, 71, 0
4, 10800, Note_on_c, 2, 74, 120
4, 10859, Note_on_c, 2, 74, 0
4, 10860, Note_on_c, 2, 71, 120
4, 10889, Note_on_c, 2, 71, 0
4, 10890, Note_on_c, 2, 69, 120
4, 10919, Note_on_c, 2, 69, 0
4, 10920, Note_on_c, 2, 71, 120
4, 10979, Note_on_c, 2, 71, 0
4, 10980, Note_on_c, 2, 76, 120
4, 11039, Note_on_c, 2, 76, 0
4, 11040, Note_on_c, 2, 73, 120
4, 11099, Note_on_c, 2, 73, 0
4, 11100, Note_on_c, 2, 71, 120
4, 11129, Note_on_c, 2, 71, 0
4, 11130, Note_on_c, 2, 69, 120
4, 11159, Note_on_c, 2, 69, 0
4, 11160, Note_on_c, 2, 71, 120
4, 11219, Note_on_c, 2, 71, 0
4, 11220, Note_on_c, 2, 68, 120
4, 11279, Note_on_c, 2, 68, 0
4, 11280, Note_on_c, 2, 69, 120
4, 11339, Note_on_c, 2, 69, 0
4, 11340, Note_on_c, 2, 69, 120
4, 11369, Note_on_c, 2, 69, 0
4, 11370, Note_on_c, 2, 71, 120
4, 11399, Note_on_c, 2, 71, 0
4, 11400, Note_on_c, 2, 72, 120
4, 11459, Note_on_c, 2, 72, 0
4, 11460, Note_on_c, 2, 71, 120
4, 11519, Note_on_c, 2, 71, 0
4, 11520, Note_on_c, 2, 69, 120
4, 11579, Note_on_c, 2, 69, 0
4, 11580, Note_on_c, 2, 67, 120
4, 11639, Note_on_c, 2, 67, 0
4, 11640, Note_on_c, 2, 65, 120
4, 11699, Note_on_c, 2, 65, 0
4, 11700, Note_on_c, 2, 64, 120
4, 11759, Note_on_c, 2, 64, 0
4, 11760, Note_on_c, 2, 64, 120
4, 11999, Note_on_c, 2, 64, 0
4, 12000, Note_on_c, 2, 62, 120
4, 12059, Note_on_c, 2, 62, 0
4, 12060, Note_on_c, 2, 64, 120
4, 12119, Note_on_c, 2, 64, 0
4, 12120, Note_on_c, 2, 65, 120
4, 12179, Note_on_c, 2, 65, 0
4, 12180, Note_on_c, 2, 64, 120
4, 12239, Note_on_c, 2, 64, 0
4, 12240, Note_on_c, 2, 62, 120
4, 12299, Note_on_c, 2, 62, 0
4, 12300, Note_on_c, 2, 60, 120
4, 12359, Note_on_c, 2, 60, 0
4, 12360, Note_on_c, 2, 59, 120
4, 12419, Note_on_c, 2, 59, 0
4, 12420, Note_on_c, 2, 57, 120
4, 12479, Note_on_c, 2, 57, 0
4, 12480, Note_on_c, 2, 57, 120
4, 12719, Note_on_c, 2, 57, 0
4, 12720, Note_on_c, 2, 69, 120
4, 12779, Note_on_c, 2, 69, 0
4, 12780, Note_on_c, 2, 71, 120
4, 12839, Note_on_c, 2, 71, 0
4, 12840, Note_on_c, 2, 72, 120
4, 12899, Note_on_c, 2, 72, 0
4, 12900, Note_on_c, 2, 71, 120
4, 12959, Note_on_c, 2, 71, 0
4, 12960, Note_on_c, 2, 69, 120
4, 13019, Note_on_c, 2, 69, 0
4, 13020, Note_on_c, 2, 67, 120
4, 13079, Note_on_c, 2, 67, 0
4, 13080, Note_on_c, 2, 65, 120
4, 13139, Note_on_c, 2, 65, 0
4, 13140, Note_on_c, 2, 64, 120
4, 13199, Note_on_c, 2, 64, 0
4, 13200, Note_on_c, 2, 64, 120
4, 13439, Note_on_c, 2, 64, 0
4, 13440, Note_on_c, 2, 62, 120
4, 13499, Note_on_c, 2, 62, 0
4, 13500, Note_on_c, 2, 64, 120
4, 13559, Note_on_c, 2, 64, 0
4, 13560, Note_on_c, 2, 65, 120
4, 13619, Note_on_c, 2, 65, 0
4, 13620, Note_on_c, 2, 64, 120
4, 13679, Note_on_c, 2, 64, 0
4, 13680, Note_on_c, 2, 62, 120
4, 13739, Note_on_c, 2, 62, 0
4, 13740, Note_on_c, 2, 60, 120
4, 13799, Note_on_c, 2, 60, 0
4, 13800, Note_on_c, 2, 59, 120
4, 13859, Note_on_c, 2, 59, 0
4, 13860, Note_on_c, 2, 57, 120
4, 13919, Note_on_c, 2, 57, 0
4, 13920, Note_on_c, 2, 57, 120
4, 14159, Note_on_c, 2, 57, 0
4, 14160, Note_on_c, 2, 65, 120
4, 14219, Note_on_c, 2, 65, 0
4, 14220, Note_on_c, 2, 64, 120
4, 14279, Note_on_c, 2, 64, 0
4, 14280, Note_on_c, 2, 64, 120
4, 14519, Note_on_c, 2, 64, 0
4, 14520, Note_on_c, 2, 58, 120
4, 14579, Note_on_c, 2, 58, 0
4, 14580, Note_on_c, 2, 57, 120
4, 14639, Note_on_c, 2, 57, 0
4, 14640, Note_on_c, 2, 57, 120
4, 14879, Note_on_c, 2, 57, 0
4, 14880, Note_on_c, 2, 62, 120
4, 14939, Note_on_c, 2, 62, 0
4, 14940, Note_on_c, 2, 64, 120
4, 14999, Note_on_c, 2, 64, 0
4, 15000, Note_on_c, 2, 65, 120
4, 15059, Note_on_c, 2, 65, 0
4, 15060, Note_on_c, 2, 64, 120
4, 15119, Note_on_c, 2, 64, 0
4, 15120, Note_on_c, 2, 62, 120
4, 15179, Note_on_c, 2, 62, 0
4, 15180, Note_on_c, 2, 60, 120
4, 15239, Note_on_c, 2, 60, 0
4, 15240, Note_on_c, 2, 59, 120
4, 15299, Note_on_c, 2, 59, 0
4, 15300, Note_on_c, 2, 57, 120
4, 15359, Note_on_c, 2, 57, 0
4, 15360, Note_on_c, 2, 57, 120
4, 15599, Note_on_c, 2, 57, 0
4, 15600, Note_on_c, 2, 65, 120
4, 15659, Note_on_c, 2, 65, 0
4, 15660, Note_on_c, 2, 64, 120
4, 15719, Note_on_c, 2, 64, 0
4, 15720, Note_on_c, 2, 64, 120
4, 15959, Note_on_c, 2, 64, 0
4, 15960, Note_on_c, 2, 58, 120
4, 16019, Note_on_c, 2, 58, 0
4, 16020, Note_on_c, 2, 57, 120
4, 16079, Note_on_c, 2, 57, 0
4, 16080, Note_on_c, 2, 57, 120
4, 16319, Note_on_c, 2, 57, 0
4, 16320, Note_on_c, 2, 62, 120
4, 16379, Note_on_c, 2, 62, 0
4, 16380, Note_on_c, 2, 64, 120
4, 16439, Note_on_c, 2, 64, 0
4, 16440, Note_on_c, 2, 65, 120
4, 16499, Note_on_c, 2, 65, 0
4, 16500, Note_on_c, 2, 64, 120
4, 16559, Note_on_c, 2, 64, 0
4, 16560, Note_on_c, 2, 62, 120
4, 16619, Note_on_c, 2, 62, 0
4, 16620, Note_on_c, 2, 60, 120
4, 16679, Note_on_c, 2, 60, 0
4, 16680, Note_on_c, 2, 59, 120
4, 16739, Note_on_c, 2, 59, 0
4, 16740, Note_on_c, 2, 57, 120
4, 16799, Note_on_c, 2, 57, 0
4, 16800, Note_on_c, 2, 57, 120
4, 17039, Note_on_c, 2, 57, 0
4, 17040, Note_on_c, 2, 69, 120
4, 17069, Note_on_c, 2, 69, 0
4, 17070, Note_on_c, 2, 76, 120
4, 17099, Note_on_c, 2, 76, 0
4, 17100, Note_on_c, 2, 74, 120
4, 17129, Note_on_c, 2, 74, 0
4, 17130, Note_on_c, 2, 76, 120
4, 17159, Note_on_c, 2, 76, 0
4, 17160, Note_on_c, 2, 77, 120
4, 17219, Note_on_c, 2, 77, 0
4, 17220, Note_on_c, 2, 76, 120
4, 17279, Note_on_c, 2, 76, 0
4, 17280, Note_on_c, 2, 74, 120
4, 17339, Note_on_c, 2, 74, 0
4, 17340, Note_on_c, 2, 71, 120
4, 17399, Note_on_c, 2, 71, 0
4, 17400, Note_on_c, 2, 72, 120
4, 17519, Note_on_c, 2, 72, 0
4, 17520, Note_on_c, 2, 70, 120
4, 17579, Note_on_c, 2, 70, 0
4, 17580, Note_on_c, 2, 69, 120
4, 17639, Note_on_c, 2, 69, 0
4, 17640, Note_on_c, 2, 69, 120
4, 17699, Note_on_c, 2, 69, 0
4, 17700, Note_on_c, 2, 68, 120
4, 17759, Note_on_c, 2, 68, 0
4, 17760, Note_on_c, 2, 69, 120
4, 17789, Note_on_c, 2, 69, 0
4, 17790, Note_on_c, 2, 68, 120
4, 17819, Note_on_c, 2, 68, 0
4, 17820, Note_on_c, 2, 69, 120
4, 17849, Note_on_c, 2, 69, 0
4, 17850, Note_on_c, 2, 71, 120
4, 17879, Note_on_c, 2, 71, 0
4, 17880, Note_on_c, 2, 69, 120
4, 17909, Note_on_c, 2, 69, 0
4, 17910, Note_on_c, 2, 71, 120
4, 17939, Note_on_c, 2, 71, 0
4, 17940, Note_on_c, 2, 72, 120
4, 17969, Note_on_c, 2, 72, 0
4, 17970, Note_on_c, 2, 74, 120
4, 17999, Note_on_c, 2, 74, 0
4, 18000, Note_on_c, 2, 76, 120
4, 18059, Note_on_c, 2, 76, 0
4, 18060, Note_on_c, 2, 74, 120
4, 18089, Note_on_c, 2, 74, 0
4, 18090, Note_on_c, 2, 76, 120
4, 18119, Note_on_c, 2, 76, 0
4, 18120, Note_on_c, 2, 77, 120
4, 18179, Note_on_c, 2, 77, 0
4, 18180, Note_on_c, 2, 76, 120
4, 18239, Note_on_c, 2, 76, 0
4, 18240, Note_on_c, 2, 74, 120
4, 18299, Note_on_c, 2, 74, 0
4, 18300, Note_on_c, 2, 71, 120
4, 18359, Note_on_c, 2, 71, 0
4, 18360, Note_on_c, 2, 72, 120
4, 18479, Note_on_c, 2, 72, 0
4, 18480, Note_on_c, 2, 70, 120
4, 18539, Note_on_c, 2, 70, 0
4, 18540, Note_on_c, 2, 69, 120
4, 18599, Note_on_c, 2, 69, 0
4, 18600, Note_on_c, 2, 69, 120
4, 18659, Note_on_c, 2, 69, 0
4, 18660, Note_on_c, 2, 68, 120
4, 18719, Note_on_c, 2, 68, 0
4, 18720, Note_on_c, 2, 69, 120
4, 18779, Note_on_c, 2, 69, 0
4, 18780, Note_on_c, 2, 68, 120
4, 18839, Note_on_c, 2, 68, 0
4, 18840, Note_on_c, 2, 69, 120
4, 18899, Note_on_c, 2, 69, 0
4, 18900, Note_on_c, 2, 64, 120
4, 18959, Note_on_c, 2, 64, 0
4, 18960, Note_on_c, 2, 66, 120
4, 19019, Note_on_c, 2, 66, 0
4, 19020, Note_on_c, 2, 68, 120
4, 19079, Note_on_c, 2, 68, 0
4, 19080, Note_on_c, 2, 69, 120
4, 19139, Note_on_c, 2, 69, 0
4, 19140, Note_on_c, 2, 68, 120
4, 19199, Note_on_c, 2, 68, 0
4, 19200, Note_on_c, 2, 69, 120
4, 19259, Note_on_c, 2, 69, 0
4, 19260, Note_on_c, 2, 64, 120
4, 19319, Note_on_c, 2, 64, 0
4, 19320, Note_on_c, 2, 66, 120
4, 19379, Note_on_c, 2, 66, 0
4, 19380, Note_on_c, 2, 68, 120
4, 19439, Note_on_c, 2, 68, 0
4, 19440, Note_on_c, 2, 69, 120
4, 19499, Note_on_c, 2, 69, 0
4, 19500, Note_on_c, 2, 68, 120
4, 19559, Note_on_c, 2, 68, 0
4, 19560, Note_on_c, 2, 69, 120
4, 19619, Note_on_c, 2, 69, 0
4, 19620, Note_on_c, 2, 71, 120
4, 19679, Note_on_c, 2, 71, 0
4, 19680, Note_on_c, 2, 73, 120
4, 19739, Note_on_c, 2, 73, 0
4, 19740, Note_on_c, 2, 74, 120
4, 19799, Note_on_c, 2, 74, 0
4, 19800, Note_on_c, 2, 76, 120
4, 19979, Note_on_c, 2, 76, 0
4, 19980, Note_on_c, 2, 64, 120
4, 20039, Note_on_c, 2, 64, 0
4, 20040, Note_on_c, 2, 66, 120
4, 20099, Note_on_c, 2, 66, 0
4, 20100, Note_on_c, 2, 68, 120
4, 20159, Note_on_c, 2, 68, 0
4, 20160, Note_on_c, 2, 69, 120
4, 20219, Note_on_c, 2, 69, 0
4, 20220, Note_on_c, 2, 68, 120
4, 20279, Note_on_c, 2, 68, 0
4, 20280, Note_on_c, 2, 69, 120
4, 20339, Note_on_c, 2, 69, 0
4, 20340, Note_on_c, 2, 64, 120
4, 20399, Note_on_c, 2, 64, 0
4, 20400, Note_on_c, 2, 66, 120
4, 20459, Note_on_c, 2, 66, 0
4, 20460, Note_on_c, 2, 68, 120
4, 20519, Note_on_c, 2, 68, 0
4, 20520, Note_on_c, 2, 69, 120
4, 20579, Note_on_c, 2, 69, 0
4, 20580, Note_on_c, 2, 68, 120
4, 20639, Note_on_c, 2, 68, 0
4, 20640, Note_on_c, 2, 69, 120
4, 20699, Note_on_c, 2, 69, 0
4, 20700, Note_on_c, 2, 64, 120
4, 20759, Note_on_c, 2, 64, 0
4, 20760, Note_on_c, 2, 66, 120
4, 20819, Note_on_c, 2, 66, 0
4, 20820, Note_on_c, 2, 68, 120
4, 20879, Note_on_c, 2, 68, 0
4, 20880, Note_on_c, 2, 69, 120
4, 20939, Note_on_c, 2, 69, 0
4, 20940, Note_on_c, 2, 68, 120
4, 20999, Note_on_c, 2, 68, 0
4, 21000, Note_on_c, 2, 69, 120
4, 21059, Note_on_c, 2, 69, 0
4, 21060, Note_on_c, 2, 71, 120
4, 21119, Note_on_c, 2, 71, 0
4, 21120, Note_on_c, 2, 73, 120
4, 21179, Note_on_c, 2, 73, 0
4, 21180, Note_on_c, 2, 74, 120
4, 21239, Note_on_c, 2, 74, 0
4, 21240, Note_on_c, 2, 76, 120
4, 21359, Note_on_c, 2, 76, 0
4, 21480, Note_on_c, 2, 78, 120
4, 21539, Note_on_c, 2, 78, 0
4, 21540, Note_on_c, 2, 76, 120
4, 21599, Note_on_c, 2, 76, 0
4, 21600, Note_on_c, 2, 76, 120
4, 21659, Note_on_c, 2, 76, 0
4, 21660, Note_on_c, 2, 74, 120
4, 21719, Note_on_c, 2, 74, 0
4, 21720, Note_on_c, 2, 62, 120
4, 21779, Note_on_c, 2, 62, 0
4, 21780, Note_on_c, 2, 61, 120
4, 21839, Note_on_c, 2, 61, 0
4, 21840, Note_on_c, 2, 62, 120
4, 21899, Note_on_c, 2, 62, 0
4, 21900, Note_on_c, 2, 61, 120
4, 21959, Note_on_c, 2, 61, 0
4, 21960, Note_on_c, 2, 62, 120
4, 22199, Note_on_c, 2, 62, 0
4, 22200, Note_on_c, 2, 76, 120
4, 22259, Note_on_c, 2, 76, 0
4, 22260, Note_on_c, 2, 74, 120
4, 22319, Note_on_c, 2, 74, 0
4, 22320, Note_on_c, 2, 74, 120
4, 22379, Note_on_c, 2, 74, 0
4, 22380, Note_on_c, 2, 73, 120
4, 22439, Note_on_c, 2, 73, 0
4, 22440, Note_on_c, 2, 61, 120
4, 22499, Note_on_c, 2, 61, 0
4, 22500, Note_on_c, 2, 59, 120
4, 22559, Note_on_c, 2, 59, 0
4, 22560, Note_on_c, 2, 61, 120
4, 22619, Note_on_c, 2, 61, 0
4, 22620, Note_on_c, 2, 59, 120
4, 22679, Note_on_c, 2, 59, 0
4, 22680, Note_on_c, 2, 61, 120
4, 22919, Note_on_c, 2, 61, 0
4, 22920, Note_on_c, 2, 69, 120
4, 22979, Note_on_c, 2, 69, 0
4, 22980, Note_on_c, 2, 73, 120
4, 23039, Note_on_c, 2, 73, 0
4, 23040, Note_on_c, 2, 71, 120
4, 23159, Note_on_c, 2, 71, 0
4, 23160, Note_on_c, 2, 69, 120
4, 23279, Note_on_c, 2, 69, 0
4, 23280, Note_on_c, 2, 61, 120
4, 23339, Note_on_c, 2, 61, 0
4, 23340, Note_on_c, 2, 64, 120
4, 23399, Note_on_c, 2, 64, 0
4, 23400, Note_on_c, 2, 62, 120
4, 23519, Note_on_c, 2, 62, 0
4, 23520, Note_on_c, 2, 61, 120
4, 23639, Note_on_c, 2, 61, 0
4, 23640, Note_on_c, 2, 81, 120
4, 23699, Note_on_c, 2, 81, 0
4, 23700, Note_on_c, 2, 80, 120
4, 23759, Note_on_c, 2, 80, 0
4, 23760, Note_on_c, 2, 78, 120
4, 23819, Note_on_c, 2, 78, 0
4, 23820, Note_on_c, 2, 76, 120
4, 23879, Note_on_c, 2, 76, 0
4, 23880, Note_on_c, 2, 74, 120
4, 23939, Note_on_c, 2, 74, 0
4, 23940, Note_on_c, 2, 73, 120
4, 23999, Note_on_c, 2, 73, 0
4, 24000, Note_on_c, 2, 71, 120
4, 24059, Note_on_c, 2, 71, 0
4, 24060, Note_on_c, 2, 76, 120
4, 24119, Note_on_c, 2, 76, 0
4, 24120, Note_on_c, 2, 69, 120
4, 24239, Note_on_c, 2, 69, 0
4, 24360, Note_on_c, 2, 66, 120
4, 24419, Note_on_c, 2, 66, 0
4, 24420, Note_on_c, 2, 64, 120
4, 24479, Note_on_c, 2, 64, 0
4, 24480, Note_on_c, 2, 64, 120
4, 24539, Note_on_c, 2, 64, 0
4, 24540, Note_on_c, 2, 62, 120
4, 24599, Note_on_c, 2, 62, 0
4, 24600, Note_on_c, 2, 74, 120
4, 24659, Note_on_c, 2, 74, 0
4, 24660, Note_on_c, 2, 73, 120
4, 24719, Note_on_c, 2, 73, 0
4, 24720, Note_on_c, 2, 74, 120
4, 24779, Note_on_c, 2, 74, 0
4, 24780, Note_on_c, 2, 73, 120
4, 24839, Note_on_c, 2, 73, 0
4, 24840, Note_on_c, 2, 74, 120
4, 25079, Note_on_c, 2, 74, 0
4, 25080, Note_on_c, 2, 64, 120
4, 25139, Note_on_c, 2, 64, 0
4, 25140, Note_on_c, 2, 62, 120
4, 25199, Note_on_c, 2, 62, 0
4, 25200, Note_on_c, 2, 62, 120
4, 25259, Note_on_c, 2, 62, 0
4, 25260, Note_on_c, 2, 61, 120
4, 25319, Note_on_c, 2, 61, 0
4, 25320, Note_on_c, 2, 73, 120
4, 25379, Note_on_c, 2, 73, 0
4, 25380, Note_on_c, 2, 71, 120
4, 25439, Note_on_c, 2, 71, 0
4, 25440, Note_on_c, 2, 73, 120
4, 25499, Note_on_c, 2, 73, 0
4, 25500, Note_on_c, 2, 71, 120
4, 25559, Note_on_c, 2, 71, 0
4, 25560, Note_on_c, 2, 73, 120
4, 25799, Note_on_c, 2, 73, 0
4, 25800, Note_on_c, 2, 57, 120
4, 25859, Note_on_c, 2, 57, 0
4, 25860, Note_on_c, 2, 61, 120
4, 25919, Note_on_c, 2, 61, 0
4, 25920, Note_on_c, 2, 59, 120
4, 26039, Note_on_c, 2, 59, 0
4, 26040, Note_on_c, 2, 57, 120
4, 26159, Note_on_c, 2, 57, 0
4, 26160, Note_on_c, 2, 73, 120
4, 26219, Note_on_c, 2, 73, 0
4, 26220, Note_on_c, 2, 76, 120
4, 26279, Note_on_c, 2, 76, 0
4, 26280, Note_on_c, 2, 74, 120
4, 26399, Note_on_c, 2, 74, 0
4, 26400, Note_on_c, 2, 73, 120
4, 26519, Note_on_c, 2, 73, 0
4, 26520, Note_on_c, 2, 81, 120
4, 26579, Note_on_c, 2, 81, 0
4, 26580, Note_on_c, 2, 80, 120
4, 26639, Note_on_c, 2, 80, 0
4, 26640, Note_on_c, 2, 78, 120
4, 26699, Note_on_c, 2, 78, 0
4, 26700, Note_on_c, 2, 76, 120
4, 26759, Note_on_c, 2, 76, 0
4, 26760, Note_on_c, 2, 74, 120
4, 26819, Note_on_c, 2, 74, 0
4, 26820, Note_on_c, 2, 73, 120
4, 26879, Note_on_c, 2, 73, 0
4, 26880, Note_on_c, 2, 71, 120
4, 26939, Note_on_c, 2, 71, 0
4, 26940, Note_on_c, 2, 76, 120
4, 26999, Note_on_c, 2, 76, 0
4, 27000, Note_on_c, 2, 69, 120
4, 27239, Note_on_c, 2, 69, 0
4, 27240, Note_on_c, 2, 69, 120
4, 27299, Note_on_c, 2, 69, 0
4, 27300, Note_on_c, 2, 68, 120
4, 27359, Note_on_c, 2, 68, 0
4, 27360, Note_on_c, 2, 66, 120
4, 27419, Note_on_c, 2, 66, 0
4, 27420, Note_on_c, 2, 64, 120
4, 27479, Note_on_c, 2, 64, 0
4, 27480, Note_on_c, 2, 62, 120
4, 27539, Note_on_c, 2, 62, 0
4, 27540, Note_on_c, 2, 61, 120
4, 27599, Note_on_c, 2, 61, 0
4, 27600, Note_on_c, 2, 59, 120
4, 27659, Note_on_c, 2, 59, 0
4, 27660, Note_on_c, 2, 64, 120
4, 27719, Note_on_c, 2, 64, 0
4, 27720, Note_on_c, 2, 57, 120
4, 27959, Note_on_c, 2, 57, 0
4, 28440, Note_on_c, 2, 69, 120
4, 28499, Note_on_c, 2, 69, 0
4, 28500, Note_on_c, 2, 71, 120
4, 28559, Note_on_c, 2, 71, 0
4, 28560, Note_on_c, 2, 73, 120
4, 28679, Note_on_c, 2, 73, 0
4, 28920, Note_on_c, 2, 74, 120
4, 28979, Note_on_c, 2, 74, 0
4, 28980, Note_on_c, 2, 73, 120
4, 29039, Note_on_c, 2, 73, 0
4, 29040, Note_on_c, 2, 71, 120
4, 29159, Note_on_c, 2, 71, 0
4, 29400, Note_on_c, 2, 73, 120
4, 29519, Note_on_c, 2, 73, 0
4, 29520, Note_on_c, 2, 74, 120
4, 29639, Note_on_c, 2, 74, 0
4, 29640, Note_on_c, 2, 73, 120
4, 29699, Note_on_c, 2, 73, 0
4, 29700, Note_on_c, 2, 71, 120
4, 29759, Note_on_c, 2, 71, 0
4, 29760, Note_on_c, 2, 73, 120
4, 29879, Note_on_c, 2, 73, 0
4, 29880, Note_on_c, 2, 71, 120
4, 29939, Note_on_c, 2, 71, 0
4, 29940, Note_on_c, 2, 69, 120
4, 29999, Note_on_c, 2, 69, 0
4, 30000, Note_on_c, 2, 69, 120
4, 30119, Note_on_c, 2, 69, 0
4, 30120, Note_on_c, 2, 64, 120
4, 30179, Note_on_c, 2, 64, 0
4, 30180, Note_on_c, 2, 61, 120
4, 30239, Note_on_c, 2, 61, 0
4, 30240, Note_on_c, 2, 57, 120
4, 30359, Note_on_c, 2, 57, 0
4, 30360, Note_on_c, 2, 69, 120
4, 30389, Note_on_c, 2, 69, 0
4, 30390, Note_on_c, 2, 71, 120
4, 30419, Note_on_c, 2, 71, 0
4, 30420, Note_on_c, 2, 73, 120
4, 30449, Note_on_c, 2, 73, 0
4, 30450, Note_on_c, 2, 74, 120
4, 30479, Note_on_c, 2, 74, 0
4, 30480, Note_on_c, 2, 76, 120
4, 31080, Note_on_c, 2, 76, 0
4, 31080, Note_on_c, 2, 71, 120
4, 31109, Note_on_c, 2, 71, 0
4, 31110, Note_on_c, 2, 69, 120
4, 31139, Note_on_c, 2, 69, 0
4, 31140, Note_on_c, 2, 68, 120
4, 31169, Note_on_c, 2, 68, 0
4, 31170, Note_on_c, 2, 66, 120
4, 31199, Note_on_c, 2, 66, 0
4, 31200, Note_on_c, 2, 64, 120
4, 31319, Note_on_c, 2, 64, 0
4, 31320, Note_on_c, 2, 73, 120
4, 31439, Note_on_c, 2, 73, 0
4, 31440, Note_on_c, 2, 74, 120
4, 31559, Note_on_c, 2, 74, 0
4, 31560, Note_on_c, 2, 73, 120
4, 31619, Note_on_c, 2, 73, 0
4, 31620, Note_on_c, 2, 71, 120
4, 31679, Note_on_c, 2, 71, 0
4, 31680, Note_on_c, 2, 73, 120
4, 31739, Note_on_c, 2, 73, 0
4, 31740, Note_on_c, 2, 69, 120
4, 31799, Note_on_c, 2, 69, 0
4, 31800, Note_on_c, 2, 71, 120
4, 31859, Note_on_c, 2, 71, 0
4, 31860, Note_on_c, 2, 68, 120
4, 31919, Note_on_c, 2, 68, 0
4, 31920, Note_on_c, 2, 69, 120
4, 32279, Note_on_c, 2, 69, 0
4, 32280, Note_on_c, 2, 76, 120
4, 32399, Note_on_c, 2, 76, 0
4, 32400, Note_on_c, 2, 81, 120
4, 32519, Note_on_c, 2, 81, 0
4, 32520, Note_on_c, 2, 57, 120
4, 32579, Note_on_c, 2, 57, 0
4, 32580, Note_on_c, 2, 57, 120
4, 32639, Note_on_c, 2, 57, 0
4, 32640, Note_on_c, 2, 57, 120
4, 32699, Note_on_c, 2, 57, 0
4, 32700, Note_on_c, 2, 57, 120
4, 32759, Note_on_c, 2, 57, 0
4, 32760, Note_on_c, 2, 57, 120
4, 32819, Note_on_c, 2, 57, 0
4, 32820, Note_on_c, 2, 57, 120
4, 32879, Note_on_c, 2, 57, 0
4, 32880, Note_on_c, 2, 81, 120
4, 32999, Note_on_c, 2, 81, 0
4, 33000, Note_on_c, 2, 57, 120
4, 33059, Note_on_c, 2, 57, 0
4, 33060, Note_on_c, 2, 57, 120
4, 33119, Note_on_c, 2, 57, 0
4, 33120, Note_on_c, 2, 57, 120
4, 33179, Note_on_c, 2, 57, 0
4, 33180, Note_on_c, 2, 57, 120
4, 33239, Note_on_c, 2, 57, 0
4, 33240, Note_on_c, 2, 57, 120
4, 33299, Note_on_c, 2, 57, 0
4, 33300, Note_on_c, 2, 57, 120
4, 33359, Note_on_c, 2, 57, 0
4, 33360, Note_on_c, 2, 81, 120
4, 33479, Note_on_c, 2, 81, 0
4, 33480, Note_on_c, 2, 69, 120
4, 33599, Note_on_c, 2, 69, 0
4, 33600, Note_on_c, 2, 78, 120
4, 33659, Note_on_c, 2, 78, 0
4, 33660, Note_on_c, 2, 76, 120
4, 33719, Note_on_c, 2, 76, 0
4, 33720, Note_on_c, 2, 74, 120
4, 33779, Note_on_c, 2, 74, 0
4, 33780, Note_on_c, 2, 73, 120
4, 33839, Note_on_c, 2, 73, 0
4, 33840, Note_on_c, 2, 71, 120
4, 33959, Note_on_c, 2, 71, 0
4, 33960, Note_on_c, 2, 83, 120
4, 33989, Note_on_c, 2, 83, 0
4, 33990, Note_on_c, 2, 81, 120
4, 34019, Note_on_c, 2, 81, 0
4, 34020, Note_on_c, 2, 80, 120
4, 34049, Note_on_c, 2, 80, 0
4, 34050, Note_on_c, 2, 78, 120
4, 34079, Note_on_c, 2, 78, 0
4, 34080, Note_on_c, 2, 76, 120
4, 34199, Note_on_c, 2, 76, 0
4, 34200, Note_on_c, 2, 69, 120
4, 34259, Note_on_c, 2, 69, 0
4, 34260, Note_on_c, 2, 71, 120
4, 34319, Note_on_c, 2, 71, 0
4, 34320, Note_on_c, 2, 73, 120
4, 34379, Note_on_c, 2, 73, 0
4, 34380, Note_on_c, 2, 74, 120
4, 34439, Note_on_c, 2, 74, 0
4, 34440, Note_on_c, 2, 73, 120
4, 34499, Note_on_c, 2, 73, 0
4, 34500, Note_on_c, 2, 71, 120
4, 34559, Note_on_c, 2, 71, 0
4, 34560, Note_on_c, 2, 73, 120
4, 34619, Note_on_c, 2, 73, 0
4, 34620, Note_on_c, 2, 71, 120
4, 34679, Note_on_c, 2, 71, 0
4, 34680, Note_on_c, 2, 73, 120
4, 34739, Note_on_c, 2, 73, 0
4, 34740, Note_on_c, 2, 69, 120
4, 34799, Note_on_c, 2, 69, 0
4, 34800, Note_on_c, 2, 71, 120
4, 34859, Note_on_c, 2, 71, 0
4, 34860, Note_on_c, 2, 69, 120
4, 34919, Note_on_c, 2, 69, 0
4, 34920, Note_on_c, 2, 71, 120
4, 34979, Note_on_c, 2, 71, 0
4, 34980, Note_on_c, 2, 73, 120
4, 35039, Note_on_c, 2, 73, 0
4, 35040, Note_on_c, 2, 71, 120
4, 35099, Note_on_c, 2, 71, 0
4, 35100, Note_on_c, 2, 74, 120
4, 35159, Note_on_c, 2, 74, 0
4, 35160, Note_on_c, 2, 73, 120
4, 35219, Note_on_c, 2, 73, 0
4, 35220, Note_on_c, 2, 76, 120
4, 35279, Note_on_c, 2, 76, 0
4, 35280, Note_on_c, 2, 74, 120
4, 35399, Note_on_c, 2, 74, 0
4, 35400, Note_on_c, 2, 73, 120
4, 35459, Note_on_c, 2, 73, 0
4, 35460, Note_on_c, 2, 71, 120
4, 35519, Note_on_c, 2, 71, 0
4, 35520, Note_on_c, 2, 73, 120
4, 35639, Note_on_c, 2, 73, 0
4, 35640, Note_on_c, 2, 71, 120
4, 35699, Note_on_c, 2, 71, 0
4, 35700, Note_on_c, 2, 69, 120
4, 35759, Note_on_c, 2, 69, 0
4, 35760, Note_on_c, 2, 69, 120
4, 35879, Note_on_c, 2, 69, 0
4, 35880, Note_on_c, 2, 64, 120
4, 35909, Note_on_c, 2, 64, 0
4, 35910, Note_on_c, 2, 62, 120
4, 35939, Note_on_c, 2, 62, 0
4, 35940, Note_on_c, 2, 61, 120
4, 35969, Note_on_c, 2, 61, 0
4, 35970, Note_on_c, 2, 59, 120
4, 35999, Note_on_c, 2, 59, 0
4, 36000, Note_on_c, 2, 57, 120
4, 36119, Note_on_c, 2, 57, 0
4, 36120, Note_on_c, 2, 76, 120
4, 36239, Note_on_c, 2, 76, 0
4, 36240, Note_on_c, 2, 81, 120
4, 36359, Note_on_c, 2, 81, 0
4, 36360, Note_on_c, 2, 76, 120
4, 36479, Note_on_c, 2, 76, 0
4, 36480, Note_on_c, 2, 76, 120
4, 36599, Note_on_c, 2, 76, 0
4, 36600, Note_on_c, 2, 74, 120
4, 36659, Note_on_c, 2, 74, 0
4, 36660, Note_on_c, 2, 76, 120
4, 36719, Note_on_c, 2, 76, 0
4, 36720, Note_on_c, 2, 78, 120
4, 36839, Note_on_c, 2, 78, 0
4, 36840, Note_on_c, 2, 76, 120
4, 36959, Note_on_c, 2, 76, 0
4, 36960, Note_on_c, 2, 76, 120
4, 37079, Note_on_c, 2, 76, 0
4, 37080, Note_on_c, 2, 73, 120
4, 37139, Note_on_c, 2, 73, 0
4, 37140, Note_on_c, 2, 74, 120
4, 37199, Note_on_c, 2, 74, 0
4, 37200, Note_on_c, 2, 76, 120
4, 37319, Note_on_c, 2, 76, 0
4, 37320, Note_on_c, 2, 74, 120
4, 37379, Note_on_c, 2, 74, 0
4, 37380, Note_on_c, 2, 76, 120
4, 37439, Note_on_c, 2, 76, 0
4, 37440, Note_on_c, 2, 78, 120
4, 37499, Note_on_c, 2, 78, 0
4, 37500, Note_on_c, 2, 76, 120
4, 37559, Note_on_c, 2, 76, 0
4, 37560, Note_on_c, 2, 74, 120
4, 37619, Note_on_c, 2, 74, 0
4, 37620, Note_on_c, 2, 73, 120
4, 37679, Note_on_c, 2, 73, 0
4, 37680, Note_on_c, 2, 71, 120
4, 38039, Note_on_c, 2, 71, 0
4, 38040, Note_on_c, 2, 69, 120
4, 38099, Note_on_c, 2, 69, 0
4, 38100, Note_on_c, 2, 71, 120
4, 38159, Note_on_c, 2, 71, 0
4, 38160, Note_on_c, 2, 73, 120
4, 38279, Note_on_c, 2, 73, 0
4, 38280, Note_on_c, 2, 71, 120
4, 38339, Note_on_c, 2, 71, 0
4, 38340, Note_on_c, 2, 73, 120
4, 38399, Note_on_c, 2, 73, 0
4, 38400, Note_on_c, 2, 74, 120
4, 38459, Note_on_c, 2, 74, 0
4, 38460, Note_on_c, 2, 73, 120
4, 38519, Note_on_c, 2, 73, 0
4, 38520, Note_on_c, 2, 71, 120
4, 38579, Note_on_c, 2, 71, 0
4, 38580, Note_on_c, 2, 69, 120
4, 38639, Note_on_c, 2, 69, 0
4, 38640, Note_on_c, 2, 71, 120
4, 38699, Note_on_c, 2, 71, 0
4, 38700, Note_on_c, 2, 69, 120
4, 38759, Note_on_c, 2, 69, 0
4, 38760, Note_on_c, 2, 71, 120
4, 38819, Note_on_c, 2, 71, 0
4, 38820, Note_on_c, 2, 73, 120
4, 38879, Note_on_c, 2, 73, 0
4, 38880, Note_on_c, 2, 71, 120
4, 38999, Note_on_c, 2, 71, 0
4, 39000, Note_on_c, 2, 76, 120
4, 39119, Note_on_c, 2, 76, 0
4, 39120, Note_on_c, 2, 73, 120
4, 39239, Note_on_c, 2, 73, 0
4, 39240, Note_on_c, 2, 71, 120
4, 39299, Note_on_c, 2, 71, 0
4, 39300, Note_on_c, 2, 69, 120
4, 39359, Note_on_c, 2, 69, 0
4, 39360, Note_on_c, 2, 71, 120
4, 39479, Note_on_c, 2, 71, 0
4, 39480, Note_on_c, 2, 68, 120
4, 39599, Note_on_c, 2, 68, 0
4, 39600, Note_on_c, 2, 69, 120
4, 39959, Note_on_c, 2, 69, 0
4, 42660, Note_on_c, 2, 74, 120
4, 42719, Note_on_c, 2, 74, 0
4, 42720, Note_on_c, 2, 71, 120
4, 42779, Note_on_c, 2, 71, 0
4, 42780, Note_on_c, 2, 67, 120
4, 42839, Note_on_c, 2, 67, 0
4, 42840, Note_on_c, 2, 69, 120
4, 42899, Note_on_c, 2, 69, 0
4, 42900, Note_on_c, 2, 62, 120
4, 42959, Note_on_c, 2, 62, 0
4, 42960, Note_on_c, 2, 67, 120
4, 42989, Note_on_c, 2, 67, 0
4, 42990, Note_on_c, 2, 66, 120
4, 43019, Note_on_c, 2, 66, 0
4, 43020, Note_on_c, 2, 67, 120
4, 43049, Note_on_c, 2, 67, 0
4, 43050, Note_on_c, 2, 69, 120
4, 43079, Note_on_c, 2, 69, 0
4, 43080, Note_on_c, 2, 67, 120
4, 43139, Note_on_c, 2, 67, 0
4, 43140, Note_on_c, 2, 74, 120
4, 43199, Note_on_c, 2, 74, 0
4, 43200, Note_on_c, 2, 71, 120
4, 43259, Note_on_c, 2, 71, 0
4, 43260, Note_on_c, 2, 67, 120
4, 43319, Note_on_c, 2, 67, 0
4, 43320, Note_on_c, 2, 69, 120
4, 43379, Note_on_c, 2, 69, 0
4, 43380, Note_on_c, 2, 62, 120
4, 43439, Note_on_c, 2, 62, 0
4, 43440, Note_on_c, 2, 67, 120
4, 43559, Note_on_c, 2, 67, 0
4, 46740, Note_on_c, 2, 64, 120
4, 46799, Note_on_c, 2, 64, 0
4, 46800, Note_on_c, 2, 69, 120
4, 46859, Note_on_c, 2, 69, 0
4, 46860, Note_on_c, 2, 71, 120
4, 46919, Note_on_c, 2, 71, 0
4, 46920, Note_on_c, 2, 73, 120
4, 46979, Note_on_c, 2, 73, 0
4, 46980, Note_on_c, 2, 74, 120
4, 47039, Note_on_c, 2, 74, 0
4, 47040, Note_on_c, 2, 76, 120
4, 47129, Note_on_c, 2, 76, 0
4, 47130, Note_on_c, 2, 78, 120
4, 47159, Note_on_c, 2, 78, 0
4, 47160, Note_on_c, 2, 76, 120
4, 47219, Note_on_c, 2, 76, 0
4, 47220, Note_on_c, 2, 74, 120
4, 47279, Note_on_c, 2, 74, 0
4, 47280, Note_on_c, 2, 73, 120
4, 47339, Note_on_c, 2, 73, 0
4, 47340, Note_on_c, 2, 69, 120
4, 47399, Note_on_c, 2, 69, 0
4, 47400, Note_on_c, 2, 71, 120
4, 47459, Note_on_c, 2, 71, 0
4, 47460, Note_on_c, 2, 68, 120
4, 47519, Note_on_c, 2, 68, 0
4, 47520, Note_on_c, 2, 69, 120
4, 47699, Note_on_c, 2, 69, 0
4, 49560, Note_on_c, 2, 73, 120
4, 49619, Note_on_c, 2, 73, 0
4, 49620, Note_on_c, 2, 71, 120
4, 49679, Note_on_c, 2, 71, 0
4, 49680, Note_on_c, 2, 69, 120
4, 49799, Note_on_c, 2, 69, 0
4, 49800, Note_on_c, 2, 68, 120
4, 49919, Note_on_c, 2, 68, 0
4, 49920, Note_on_c, 2, 69, 120
4, 49979, Note_on_c, 2, 69, 0
4, 49980, Note_on_c, 2, 73, 120
4, 50039, Note_on_c, 2, 73, 0
4, 50040, Note_on_c, 2, 71, 120
4, 50279, Note_on_c, 2, 71, 0
4, 50280, Note_on_c, 2, 69, 120
4, 50339, Note_on_c, 2, 69, 0
4, 50340, Note_on_c, 2, 73, 120
4, 50399, Note_on_c, 2, 73, 0
4, 50400, Note_on_c, 2, 71, 120
4, 50639, Note_on_c, 2, 71, 0
4, 50640, Note_on_c, 2, 73, 120
4, 50699, Note_on_c, 2, 73, 0
4, 50700, Note_on_c, 2, 71, 120
4, 50759, Note_on_c, 2, 71, 0
4, 50760, Note_on_c, 2, 74, 120
4, 50819, Note_on_c, 2, 74, 0
4, 50820, Note_on_c, 2, 73, 120
4, 50879, Note_on_c, 2, 73, 0
4, 50880, Note_on_c, 2, 71, 120
4, 50939, Note_on_c, 2, 71, 0
4, 50940, Note_on_c, 2, 69, 120
4, 50999, Note_on_c, 2, 69, 0
4, 51000, Note_on_c, 2, 68, 120
4, 51029, Note_on_c, 2, 68, 0
4, 51030, Note_on_c, 2, 69, 120
4, 51059, Note_on_c, 2, 69, 0
4, 51060, Note_on_c, 2, 71, 120
4, 51089, Note_on_c, 2, 71, 0
4, 51090, Note_on_c, 2, 68, 120
4, 51119, Note_on_c, 2, 68, 0
4, 51120, Note_on_c, 2, 69, 120
4, 51179, Note_on_c, 2, 69, 0
4, 51180, Note_on_c, 2, 68, 120
4, 51209, Note_on_c, 2, 68, 0
4, 51210, Note_on_c, 2, 66, 120
4, 51239, Note_on_c, 2, 66, 0
4, 51240, Note_on_c, 2, 64, 120
4, 51269, Note_on_c, 2, 64, 0
4, 51270, Note_on_c, 2, 62, 120
4, 51299, Note_on_c, 2, 62, 0
4, 51300, Note_on_c, 2, 61, 120
4, 51329, Note_on_c, 2, 61, 0
4, 51330, Note_on_c, 2, 59, 120
4, 51359, Note_on_c, 2, 59, 0
4, 51360, Note_on_c, 2, 57, 120
4, 51479, Note_on_c, 2, 57, 0
4, 54240, Note_on_c, 2, 69, 120
4, 54269, Note_on_c, 2, 69, 0
4, 54270, Note_on_c, 2, 71, 120
4, 54299, Note_on_c, 2, 71, 0
4, 54300, Note_on_c, 2, 73, 120
4, 54329, Note_on_c, 2, 73, 0
4, 54330, Note_on_c, 2, 74, 120
4, 54359, Note_on_c, 2, 74, 0
4, 54360, Note_on_c, 2, 76, 120
4, 54419, Note_on_c, 2, 76, 0
4, 54420, Note_on_c, 2, 74, 120
4, 54479, Note_on_c, 2, 74, 0
4, 54480, Note_on_c, 2, 76, 120
4, 54539, Note_on_c, 2, 76, 0
4, 54540, Note_on_c, 2, 74, 120
4, 54599, Note_on_c, 2, 74, 0
4, 54600, Note_on_c, 2, 78, 120
4, 54659, Note_on_c, 2, 78, 0
4, 54660, Note_on_c, 2, 76, 120
4, 54719, Note_on_c, 2, 76, 0
4, 54720, Note_on_c, 2, 76, 120
4, 54779, Note_on_c, 2, 76, 0
4, 54780, Note_on_c, 2, 73, 120
4, 54839, Note_on_c, 2, 73, 0
4, 54840, Note_on_c, 2, 74, 120
4, 54959, Note_on_c, 2, 74, 0
4, 54960, Note_on_c, 2, 71, 120
4, 54989, Note_on_c, 2, 71, 0
4, 54990, Note_on_c, 2, 69, 120
4, 55019, Note_on_c, 2, 69, 0
4, 55020, Note_on_c, 2, 71, 120
4, 55049, Note_on_c, 2, 71, 0
4, 55050, Note_on_c, 2, 73, 120
4, 55079, Note_on_c, 2, 73, 0
4, 55080, Note_on_c, 2, 74, 120
4, 55139, Note_on_c, 2, 74, 0
4, 55140, Note_on_c, 2, 73, 120
4, 55199, Note_on_c, 2, 73, 0
4, 55200, Note_on_c, 2, 74, 120
4, 55259, Note_on_c, 2, 74, 0
4, 55260, Note_on_c, 2, 73, 120
4, 55319, Note_on_c, 2, 73, 0
4, 55320, Note_on_c, 2, 76, 120
4, 55379, Note_on_c, 2, 76, 0
4, 55380, Note_on_c, 2, 74, 120
4, 55439, Note_on_c, 2, 74, 0
4, 55440, Note_on_c, 2, 74, 120
4, 55499, Note_on_c, 2, 74, 0
4, 55500, Note_on_c, 2, 71, 120
4, 55559, Note_on_c, 2, 71, 0
4, 55560, Note_on_c, 2, 73, 120
4, 55679, Note_on_c, 2, 73, 0
4, 55680, Note_on_c, 2, 73, 120
4, 55709, Note_on_c, 2, 73, 0
4, 55710, Note_on_c, 2, 69, 120
4, 55739, Note_on_c, 2, 69, 0
4, 55740, Note_on_c, 2, 71, 120
4, 55769, Note_on_c, 2, 71, 0
4, 55770, Note_on_c, 2, 68, 120
4, 55799, Note_on_c, 2, 68, 0
4, 55800, Note_on_c, 2, 69, 120
4, 55829, Note_on_c, 2, 69, 0
4, 55830, Note_on_c, 2, 64, 120
4, 55859, Note_on_c, 2, 64, 0
4, 55860, Note_on_c, 2, 64, 120
4, 55889, Note_on_c, 2, 64, 0
4, 55890, Note_on_c, 2, 64, 120
4, 55919, Note_on_c, 2, 64, 0
4, 55920, Note_on_c, 2, 68, 120
4, 55949, Note_on_c, 2, 68, 0
4, 55950, Note_on_c, 2, 64, 120
4, 55979, Note_on_c, 2, 64, 0
4, 55980, Note_on_c, 2, 64, 120
4, 56009, Note_on_c, 2, 64, 0
4, 56010, Note_on_c, 2, 64, 120
4, 56039, Note_on_c, 2, 64, 0
4, 56040, Note_on_c, 2, 69, 120
4, 56069, Note_on_c, 2, 69, 0
4, 56070, Note_on_c, 2, 64, 120
4, 56099, Note_on_c, 2, 64, 0
4, 56100, Note_on_c, 2, 73, 120
4, 56129, Note_on_c, 2, 73, 0
4, 56130, Note_on_c, 2, 69, 120
4, 56159, Note_on_c, 2, 69, 0
4, 56160, Note_on_c, 2, 71, 120
4, 56189, Note_on_c, 2, 71, 0
4, 56190, Note_on_c, 2, 64, 120
4, 56219, Note_on_c, 2, 64, 0
4, 56220, Note_on_c, 2, 64, 120
4, 56249, Note_on_c, 2, 64, 0
4, 56250, Note_on_c, 2, 64, 120
4, 56279, Note_on_c, 2, 64, 0
4, 56280, Note_on_c, 2, 74, 120
4, 56309, Note_on_c, 2, 74, 0
4, 56310, Note_on_c, 2, 64, 120
4, 56339, Note_on_c, 2, 64, 0
4, 56340, Note_on_c, 2, 64, 120
4, 56369, Note_on_c, 2, 64, 0
4, 56370, Note_on_c, 2, 64, 120
4, 56399, Note_on_c, 2, 64, 0
4, 56400, Note_on_c, 2, 73, 120
4, 56429, Note_on_c, 2, 73, 0
4, 56430, Note_on_c, 2, 69, 120
4, 56459, Note_on_c, 2, 69, 0
4, 56460, Note_on_c, 2, 71, 120
4, 56489, Note_on_c, 2, 71, 0
4, 56490, Note_on_c, 2, 73, 120
4, 56519, Note_on_c, 2, 73, 0
4, 56520, Note_on_c, 2, 74, 120
4, 56549, Note_on_c, 2, 74, 0
4, 56550, Note_on_c, 2, 76, 120
4, 56579, Note_on_c, 2, 76, 0
4, 56580, Note_on_c, 2, 73, 120
4, 56609, Note_on_c, 2, 73, 0
4, 56610, Note_on_c, 2, 74, 120
4, 56639, Note_on_c, 2, 74, 0
4, 56640, Note_on_c, 2, 71, 120
4, 56669, Note_on_c, 2, 71, 0
4, 56670, Note_on_c, 2, 73, 120
4, 56699, Note_on_c, 2, 73, 0
4, 56700, Note_on_c, 2, 69, 120
4, 56729, Note_on_c, 2, 69, 0
4, 56730, Note_on_c, 2, 71, 120
4, 56759, Note_on_c, 2, 71, 0
4, 56760, Note_on_c, 2, 68, 120
4, 56789, Note_on_c, 2, 68, 0
4, 56790, Note_on_c, 2, 69, 120
4, 56819, Note_on_c, 2, 69, 0
4, 56820, Note_on_c, 2, 71, 120
4, 56849, Note_on_c, 2, 71, 0
4, 56850, Note_on_c, 2, 68, 120
4, 56879, Note_on_c, 2, 68, 0
4, 56880, Note_on_c, 2, 69, 120
4, 56909, Note_on_c, 2, 69, 0
4, 56910, Note_on_c, 2, 73, 120
4, 56939, Note_on_c, 2, 73, 0
4, 56940, Note_on_c, 2, 71, 120
4, 56969, Note_on_c, 2, 71, 0
4, 56970, Note_on_c, 2, 74, 120
4, 56999, Note_on_c, 2, 74, 0
4, 57000, Note_on_c, 2, 73, 120
4, 57029, Note_on_c, 2, 73, 0
4, 57030, Note_on_c, 2, 76, 120
4, 57059, Note_on_c, 2, 76, 0
4, 57060, Note_on_c, 2, 74, 120
4, 57089, Note_on_c, 2, 74, 0
4, 57090, Note_on_c, 2, 78, 120
4, 57119, Note_on_c, 2, 78, 0
4, 57120, Note_on_c, 2, 76, 120
4, 57510, Note_on_c, 2, 76, 0
4, 57510, Note_on_c, 2, 74, 120
4, 57539, Note_on_c, 2, 74, 0
4, 57540, Note_on_c, 2, 76, 120
4, 57569, Note_on_c, 2, 76, 0
4, 57570, Note_on_c, 2, 78, 120
4, 57599, Note_on_c, 2, 78, 0
4, 57600, Note_on_c, 2, 80, 120
4, 57629, Note_on_c, 2, 80, 0
4, 57630, Note_on_c, 2, 78, 120
4, 57659, Note_on_c, 2, 78, 0
4, 57660, Note_on_c, 2, 80, 120
4, 57689, Note_on_c, 2, 80, 0
4, 57690, Note_on_c, 2, 83, 120
4, 57719, Note_on_c, 2, 83, 0
4, 57720, Note_on_c, 2, 81, 120
4, 57749, Note_on_c, 2, 81, 0
4, 57750, Note_on_c, 2, 80, 120
4, 57779, Note_on_c, 2, 80, 0
4, 57780, Note_on_c, 2, 78, 120
4, 57809, Note_on_c, 2, 78, 0
4, 57810, Note_on_c, 2, 76, 120
4, 57839, Note_on_c, 2, 76, 0
4, 57840, Note_on_c, 2, 81, 120
4, 57899, Note_on_c, 2, 81, 0
4, 57900, Note_on_c, 2, 69, 120
4, 57959, Note_on_c, 2, 69, 0
4, 57960, Note_on_c, 2, 78, 120
4, 58019, Note_on_c, 2, 78, 0
4, 58020, Note_on_c, 2, 76, 120
4, 58079, Note_on_c, 2, 76, 0
4, 58080, Note_on_c, 2, 74, 120
4, 58139, Note_on_c, 2, 74, 0
4, 58140, Note_on_c, 2, 73, 120
4, 58199, Note_on_c, 2, 73, 0
4, 58200, Note_on_c, 2, 71, 120
4, 58229, Note_on_c, 2, 71, 0
4, 58230, Note_on_c, 2, 74, 120
4, 58259, Note_on_c, 2, 74, 0
4, 58260, Note_on_c, 2, 73, 120
4, 58289, Note_on_c, 2, 73, 0
4, 58290, Note_on_c, 2, 71, 120
4, 58319, Note_on_c, 2, 71, 0
4, 58320, Note_on_c, 2, 69, 120
4, 58559, Note_on_c, 2, 69, 0
4, 63480, Note_on_c, 2, 62, 120
4, 63539, Note_on_c, 2, 62, 0
4, 63540, Note_on_c, 2, 64, 120
4, 63599, Note_on_c, 2, 64, 0
4, 63600, Note_on_c, 2, 66, 120
4, 63659, Note_on_c, 2, 66, 0
4, 63660, Note_on_c, 2, 67, 120
4, 63719, Note_on_c, 2, 67, 0
4, 63720, Note_on_c, 2, 69, 120
4, 63779, Note_on_c, 2, 69, 0
4, 63780, Note_on_c, 2, 71, 120
4, 63839, Note_on_c, 2, 71, 0
4, 63840, Note_on_c, 2, 67, 120
4, 63899, Note_on_c, 2, 67, 0
4, 63900, Note_on_c, 2, 66, 120
4, 63959, Note_on_c, 2, 66, 0
4, 63960, Note_on_c, 2, 64, 120
4, 64199, Note_on_c, 2, 64, 0
4, 64200, Note_on_c, 2, 69, 120
4, 64259, Note_on_c, 2, 69, 0
4, 64260, Note_on_c, 2, 68, 120
4, 64319, Note_on_c, 2, 68, 0
4, 64320, Note_on_c, 2, 69, 120
4, 64379, Note_on_c, 2, 69, 0
4, 64380, Note_on_c, 2, 71, 120
4, 64439, Note_on_c, 2, 71, 0
4, 64440, Note_on_c, 2, 73, 120
4, 64499, Note_on_c, 2, 73, 0
4, 64500, Note_on_c, 2, 76, 120
4, 64559, Note_on_c, 2, 76, 0
4, 64560, Note_on_c, 2, 64, 120
4, 64619, Note_on_c, 2, 64, 0
4, 64620, Note_on_c, 2, 69, 120
4, 64649, Note_on_c, 2, 69, 0
4, 64650, Note_on_c, 2, 68, 120
4, 64679, Note_on_c, 2, 68, 0
4, 64680, Note_on_c, 2, 69, 120
4, 64919, Note_on_c, 2, 69, 0
4, 65280, Note_on_c, 2, 76, 120
4, 65339, Note_on_c, 2, 76, 0
4, 65340, Note_on_c, 2, 74, 120
4, 65399, Note_on_c, 2, 74, 0
4, 65400, Note_on_c, 2, 76, 120
4, 65459, Note_on_c, 2, 76, 0
4, 65460, Note_on_c, 2, 74, 120
4, 65519, Note_on_c, 2, 74, 0
4, 65520, Note_on_c, 2, 73, 120
4, 65639, Note_on_c, 2, 73, 0
4, 66000, Note_on_c, 2, 74, 120
4, 66059, Note_on_c, 2, 74, 0
4, 66060, Note_on_c, 2, 72, 120
4, 66119, Note_on_c, 2, 72, 0
4, 66120, Note_on_c, 2, 74, 120
4, 66179, Note_on_c, 2, 74, 0
4, 66180, Note_on_c, 2, 72, 120
4, 66239, Note_on_c, 2, 72, 0
4, 66240, Note_on_c, 2, 71, 120
4, 66299, Note_on_c, 2, 71, 0
4, 66300, Note_on_c, 2, 73, 120
4, 66329, Note_on_c, 2, 73, 0
4, 66330, Note_on_c, 2, 74, 120
4, 66359, Note_on_c, 2, 74, 0
4, 66360, Note_on_c, 2, 76, 120
4, 66419, Note_on_c, 2, 76, 0
4, 66420, Note_on_c, 2, 78, 120
4, 66479, Note_on_c, 2, 78, 0
4, 66480, Note_on_c, 2, 76, 120
4, 66539, Note_on_c, 2, 76, 0
4, 66540, Note_on_c, 2, 74, 120
4, 66599, Note_on_c, 2, 74, 0
4, 66600, Note_on_c, 2, 73, 120
4, 66659, Note_on_c, 2, 73, 0
4, 66660, Note_on_c, 2, 71, 120
4, 66689, Note_on_c, 2, 71, 0
4, 66690, Note_on_c, 2, 69, 120
4, 66719, Note_on_c, 2, 69, 0
4, 66720, Note_on_c, 2, 74, 120
4, 66839, Note_on_c, 2, 74, 0
4, 66840, Note_on_c, 2, 62, 120
4, 66899, Note_on_c, 2, 62, 0
4, 66900, Note_on_c, 2, 64, 120
4, 66959, Note_on_c, 2, 64, 0
4, 66960, Note_on_c, 2, 66, 120
4, 67019, Note_on_c, 2, 66, 0
4, 67020, Note_on_c, 2, 67, 120
4, 67079, Note_on_c, 2, 67, 0
4, 67080, Note_on_c, 2, 64, 120
4, 67139, Note_on_c, 2, 64, 0
4, 67140, Note_on_c, 2, 62, 120
4, 67199, Note_on_c, 2, 62, 0
4, 67200, Note_on_c, 2, 69, 120
4, 67380, Note_on_c, 2, 69, 0
4, 67380, Note_on_c, 2, 71, 120
4, 67410, Note_on_c, 2, 71, 0
4, 67410, Note_on_c, 2, 73, 120
4, 67440, Note_on_c, 2, 73, 0
4, 67440, Note_on_c, 2, 74, 120
4, 67499, Note_on_c, 2, 74, 0
4, 67500, Note_on_c, 2, 74, 120
4, 67529, Note_on_c, 2, 74, 0
4, 67530, Note_on_c, 2, 73, 120
4, 67559, Note_on_c, 2, 73, 0
4, 67560, Note_on_c, 2, 74, 120
4, 67619, Note_on_c, 2, 74, 0
4, 67620, Note_on_c, 2, 69, 120
4, 67679, Note_on_c, 2, 69, 0
4, 67680, Note_on_c, 2, 66, 120
4, 67739, Note_on_c, 2, 66, 0
4, 67740, Note_on_c, 2, 67, 120
4, 67769, Note_on_c, 2, 67, 0
4, 67770, Note_on_c, 2, 69, 120
4, 67799, Note_on_c, 2, 69, 0
4, 67800, Note_on_c, 2, 71, 120
4, 67859, Note_on_c, 2, 71, 0
4, 67860, Note_on_c, 2, 69, 120
4, 67919, Note_on_c, 2, 69, 0
4, 67920, Note_on_c, 2, 71, 120
4, 67979, Note_on_c, 2, 71, 0
4, 67980, Note_on_c, 2, 69, 120
4, 68039, Note_on_c, 2, 69, 0
4, 68040, Note_on_c, 2, 67, 120
4, 68159, Note_on_c, 2, 67, 0
4, 68160, Note_on_c, 2, 67, 120
4, 68219, Note_on_c, 2, 67, 0
4, 68220, Note_on_c, 2, 69, 120
4, 68279, Note_on_c, 2, 69, 0
4, 68280, Note_on_c, 2, 67, 120
4, 68339, Note_on_c, 2, 67, 0
4, 68340, Note_on_c, 2, 66, 120
4, 68399, Note_on_c, 2, 66, 0
4, 68400, Note_on_c, 2, 64, 120
4, 68519, Note_on_c, 2, 64, 0
4, 68520, Note_on_c, 2, 62, 120
4, 68579, Note_on_c, 2, 62, 0
4, 68580, Note_on_c, 2, 64, 120
4, 68639, Note_on_c, 2, 64, 0
4, 68640, Note_on_c, 2, 66, 120
4, 68699, Note_on_c, 2, 66, 0
4, 68700, Note_on_c, 2, 67, 120
4, 68759, Note_on_c, 2, 67, 0
4, 68760, Note_on_c, 2, 69, 120
4, 68819, Note_on_c, 2, 69, 0
4, 68820, Note_on_c, 2, 71, 120
4, 68879, Note_on_c, 2, 71, 0
4, 68880, Note_on_c, 2, 67, 120
4, 68939, Note_on_c, 2, 67, 0
4, 68940, Note_on_c, 2, 66, 120
4, 68999, Note_on_c, 2, 66, 0
4, 69000, Note_on_c, 2, 64, 120
4, 69119, Note_on_c, 2, 64, 0
4, 69120, Note_on_c, 2, 67, 120
4, 69239, Note_on_c, 2, 67, 0
4, 69240, Note_on_c, 2, 66, 120
4, 69299, Note_on_c, 2, 66, 0
4, 69300, Note_on_c, 2, 64, 120
4, 69359, Note_on_c, 2, 64, 0
4, 69360, Note_on_c, 2, 62, 120
4, 69719, Note_on_c, 2, 62, 0
4, 69720, Note_on_c, 2, 83, 120
4, 69779, Note_on_c, 2, 83, 0
4, 69780, Note_on_c, 2, 81, 120
4, 69839, Note_on_c, 2, 81, 0
4, 69840, Note_on_c, 2, 83, 120
4, 69899, Note_on_c, 2, 83, 0
4, 69900, Note_on_c, 2, 81, 120
4, 69959, Note_on_c, 2, 81, 0
4, 69960, Note_on_c, 2, 79, 120
4, 70079, Note_on_c, 2, 79, 0
4, 70080, Note_on_c, 2, 76, 120
4, 70199, Note_on_c, 2, 76, 0
4, 70200, Note_on_c, 2, 75, 120
4, 70319, Note_on_c, 2, 75, 0
4, 70320, Note_on_c, 2, 76, 120
4, 70379, Note_on_c, 2, 76, 0
4, 70380, Note_on_c, 2, 71, 120
4, 70439, Note_on_c, 2, 71, 0
4, 70440, Note_on_c, 2, 76, 120
4, 70499, Note_on_c, 2, 76, 0
4, 70500, Note_on_c, 2, 78, 120
4, 70559, Note_on_c, 2, 78, 0
4, 70560, Note_on_c, 2, 76, 120
4, 70619, Note_on_c, 2, 76, 0
4, 70620, Note_on_c, 2, 74, 120
4, 70679, Note_on_c, 2, 74, 0
4, 70680, Note_on_c, 2, 73, 120
4, 70739, Note_on_c, 2, 73, 0
4, 70740, Note_on_c, 2, 71, 120
4, 70799, Note_on_c, 2, 71, 0
4, 70800, Note_on_c, 2, 69, 120
4, 70919, Note_on_c, 2, 69, 0
4, 70980, Note_on_c, 2, 71, 120
4, 71039, Note_on_c, 2, 71, 0
4, 71040, Note_on_c, 2, 73, 120
4, 71099, Note_on_c, 2, 73, 0
4, 71100, Note_on_c, 2, 74, 120
4, 71159, Note_on_c, 2, 74, 0
4, 71160, Note_on_c, 2, 76, 120
4, 71219, Note_on_c, 2, 76, 0
4, 71220, Note_on_c, 2, 78, 120
4, 71279, Note_on_c, 2, 78, 0
4, 71280, Note_on_c, 2, 79, 120
4, 71339, Note_on_c, 2, 79, 0
4, 71340, Note_on_c, 2, 81, 120
4, 71399, Note_on_c, 2, 81, 0
4, 71400, Note_on_c, 2, 78, 120
4, 71459, Note_on_c, 2, 78, 0
4, 71460, Note_on_c, 2, 76, 120
4, 71519, Note_on_c, 2, 76, 0
4, 71520, Note_on_c, 2, 74, 120
4, 71639, Note_on_c, 2, 74, 0
4, 71640, Note_on_c, 2, 78, 120
4, 71759, Note_on_c, 2, 78, 0
4, 71760, Note_on_c, 2, 76, 120
4, 71819, Note_on_c, 2, 76, 0
4, 71820, Note_on_c, 2, 74, 120
4, 71879, Note_on_c, 2, 74, 0
4, 71880, Note_on_c, 2, 73, 120
4, 71999, Note_on_c, 2, 73, 0
4, 72240, Note_on_c, 2, 74, 120
4, 72299, Note_on_c, 2, 74, 0
4, 72300, Note_on_c, 2, 76, 120
4, 72359, Note_on_c, 2, 76, 0
4, 72360, Note_on_c, 2, 74, 120
4, 72419, Note_on_c, 2, 74, 0
4, 72420, Note_on_c, 2, 72, 120
4, 72479, Note_on_c, 2, 72, 0
4, 72480, Note_on_c, 2, 71, 120
4, 72539, Note_on_c, 2, 71, 0
4, 72540, Note_on_c, 2, 71, 120
4, 72569, Note_on_c, 2, 71, 0
4, 72570, Note_on_c, 2, 69, 120
4, 72599, Note_on_c, 2, 69, 0
4, 72600, Note_on_c, 2, 71, 120
4, 72659, Note_on_c, 2, 71, 0
4, 72660, Note_on_c, 2, 72, 120
4, 72719, Note_on_c, 2, 72, 0
4, 72720, Note_on_c, 2, 71, 120
4, 72779, Note_on_c, 2, 71, 0
4, 72780, Note_on_c, 2, 69, 120
4, 72839, Note_on_c, 2, 69, 0
4, 72840, Note_on_c, 2, 67, 120
4, 73260, Note_on_c, 2, 67, 0
4, 73260, Note_on_c, 2, 69, 120
4, 73319, Note_on_c, 2, 69, 0
4, 73320, Note_on_c, 2, 67, 120
4, 73379, Note_on_c, 2, 67, 0
4, 73380, Note_on_c, 2, 66, 120
4, 73439, Note_on_c, 2, 66, 0
4, 73440, Note_on_c, 2, 64, 120
4, 73559, Note_on_c, 2, 64, 0
4, 73560, Note_on_c, 2, 62, 120
4, 73619, Note_on_c, 2, 62, 0
4, 73620, Note_on_c, 2, 64, 120
4, 73679, Note_on_c, 2, 64, 0
4, 73680, Note_on_c, 2, 66, 120
4, 73739, Note_on_c, 2, 66, 0
4, 73740, Note_on_c, 2, 67, 120
4, 73799, Note_on_c, 2, 67, 0
4, 73800, Note_on_c, 2, 69, 120
4, 73859, Note_on_c, 2, 69, 0
4, 73860, Note_on_c, 2, 71, 120
4, 73919, Note_on_c, 2, 71, 0
4, 73920, Note_on_c, 2, 67, 120
4, 73979, Note_on_c, 2, 67, 0
4, 73980, Note_on_c, 2, 66, 120
4, 74039, Note_on_c, 2, 66, 0
4, 74040, Note_on_c, 2, 64, 120
4, 74159, Note_on_c, 2, 64, 0
4, 74160, Note_on_c, 2, 67, 120
4, 74279, Note_on_c, 2, 67, 0
4, 74280, Note_on_c, 2, 66, 120
4, 74339, Note_on_c, 2, 66, 0
4, 74340, Note_on_c, 2, 64, 120
4, 74369, Note_on_c, 2, 64, 0
4, 74370, Note_on_c, 2, 66, 120
4, 74399, Note_on_c, 2, 66, 0
4, 74400, Note_on_c, 2, 62, 120
4, 74639, Note_on_c, 2, 62, 0
4, 77640, Note_on_c, 2, 71, 120
4, 77759, Note_on_c, 2, 71, 0
4, 77760, Note_on_c, 2, 71, 120
4, 77939, Note_on_c, 2, 71, 0
4, 77940, Note_on_c, 2, 73, 120
4, 77999, Note_on_c, 2, 73, 0
4, 78000, Note_on_c, 2, 70, 120
4, 78119, Note_on_c, 2, 70, 0
4, 78120, Note_on_c, 2, 70, 120
4, 78359, Note_on_c, 2, 70, 0
4, 78360, Note_on_c, 2, 71, 120
4, 78479, Note_on_c, 2, 71, 0
4, 78480, Note_on_c, 2, 71, 120
4, 78659, Note_on_c, 2, 71, 0
4, 78660, Note_on_c, 2, 73, 120
4, 78689, Note_on_c, 2, 73, 0
4, 78690, Note_on_c, 2, 74, 120
4, 78719, Note_on_c, 2, 74, 0
4, 78720, Note_on_c, 2, 73, 120
4, 78839, Note_on_c, 2, 73, 0
4, 78840, Note_on_c, 2, 69, 120
4, 79079, Note_on_c, 2, 69, 0
4, 79080, Note_on_c, 2, 74, 120
4, 79139, Note_on_c, 2, 74, 0
4, 79140, Note_on_c, 2, 73, 120
4, 79199, Note_on_c, 2, 73, 0
4, 79200, Note_on_c, 2, 74, 120
4, 79379, Note_on_c, 2, 74, 0
4, 79380, Note_on_c, 2, 76, 120
4, 79439, Note_on_c, 2, 76, 0
4, 79440, Note_on_c, 2, 73, 120
4, 79499, Note_on_c, 2, 73, 0
4, 79500, Note_on_c, 2, 71, 120
4, 79559, Note_on_c, 2, 71, 0
4, 79560, Note_on_c, 2, 73, 120
4, 79739, Note_on_c, 2, 73, 0
4, 79740, Note_on_c, 2, 74, 120
4, 79799, Note_on_c, 2, 74, 0
4, 79800, Note_on_c, 2, 71, 120
4, 79859, Note_on_c, 2, 71, 0
4, 79860, Note_on_c, 2, 70, 120
4, 79919, Note_on_c, 2, 70, 0
4, 79920, Note_on_c, 2, 71, 120
4, 79979, Note_on_c, 2, 71, 0
4, 79980, Note_on_c, 2, 67, 120
4, 80039, Note_on_c, 2, 67, 0
4, 80040, Note_on_c, 2, 64, 120
4, 80099, Note_on_c, 2, 64, 0
4, 80100, Note_on_c, 2, 73, 120
4, 80159, Note_on_c, 2, 73, 0
4, 80160, Note_on_c, 2, 71, 120
4, 80279, Note_on_c, 2, 71, 0
4, 80280, Note_on_c, 2, 70, 120
4, 80519, Note_on_c, 2, 70, 0
4, 81300, Note_on_c, 2, 79, 120
4, 81359, Note_on_c, 2, 79, 0
4, 81360, Note_on_c, 2, 78, 120
4, 81419, Note_on_c, 2, 78, 0
4, 81420, Note_on_c, 2, 76, 120
4, 81479, Note_on_c, 2, 76, 0
4, 81480, Note_on_c, 2, 74, 120
4, 81539, Note_on_c, 2, 74, 0
4, 81540, Note_on_c, 2, 73, 120
4, 81599, Note_on_c, 2, 73, 0
4, 81600, Note_on_c, 2, 71, 120
4, 81659, Note_on_c, 2, 71, 0
4, 81660, Note_on_c, 2, 66, 120
4, 81719, Note_on_c, 2, 66, 0
4, 81720, Note_on_c, 2, 62, 120
4, 81779, Note_on_c, 2, 62, 0
4, 81780, Note_on_c, 2, 66, 120
4, 81839, Note_on_c, 2, 66, 0
4, 81840, Note_on_c, 2, 71, 120
4, 81899, Note_on_c, 2, 71, 0
4, 81900, Note_on_c, 2, 73, 120
4, 81959, Note_on_c, 2, 73, 0
4, 81960, Note_on_c, 2, 70, 120
4, 82019, Note_on_c, 2, 70, 0
4, 82020, Note_on_c, 2, 73, 120
4, 82079, Note_on_c, 2, 73, 0
4, 82080, Note_on_c, 2, 78, 120
4, 82139, Note_on_c, 2, 78, 0
4, 82140, Note_on_c, 2, 79, 120
4, 82199, Note_on_c, 2, 79, 0
4, 82200, Note_on_c, 2, 78, 120
4, 82259, Note_on_c, 2, 78, 0
4, 82260, Note_on_c, 2, 76, 120
4, 82319, Note_on_c, 2, 76, 0
4, 82320, Note_on_c, 2, 74, 120
4, 82379, Note_on_c, 2, 74, 0
4, 82380, Note_on_c, 2, 71, 120
4, 82439, Note_on_c, 2, 71, 0
4, 82440, Note_on_c, 2, 66, 120
4, 82499, Note_on_c, 2, 66, 0
4, 82500, Note_on_c, 2, 71, 120
4, 82559, Note_on_c, 2, 71, 0
4, 82560, Note_on_c, 2, 74, 120
4, 82619, Note_on_c, 2, 74, 0
4, 82620, Note_on_c, 2, 76, 120
4, 82679, Note_on_c, 2, 76, 0
4, 82680, Note_on_c, 2, 73, 120
4, 82739, Note_on_c, 2, 73, 0
4, 82740, Note_on_c, 2, 76, 120
4, 82799, Note_on_c, 2, 76, 0
4, 82800, Note_on_c, 2, 81, 120
4, 82859, Note_on_c, 2, 81, 0
4, 82860, Note_on_c, 2, 83, 120
4, 82919, Note_on_c, 2, 83, 0
4, 82920, Note_on_c, 2, 81, 120
4, 82979, Note_on_c, 2, 81, 0
4, 82980, Note_on_c, 2, 79, 120
4, 83039, Note_on_c, 2, 79, 0
4, 83040, Note_on_c, 2, 78, 120
4, 83099, Note_on_c, 2, 78, 0
4, 83100, Note_on_c, 2, 74, 120
4, 83159, Note_on_c, 2, 74, 0
4, 83160, Note_on_c, 2, 69, 120
4, 83219, Note_on_c, 2, 69, 0
4, 83220, Note_on_c, 2, 74, 120
4, 83279, Note_on_c, 2, 74, 0
4, 83280, Note_on_c, 2, 78, 120
4, 83339, Note_on_c, 2, 78, 0
4, 83340, Note_on_c, 2, 79, 120
4, 83399, Note_on_c, 2, 79, 0
4, 83400, Note_on_c, 2, 76, 120
4, 83459, Note_on_c, 2, 76, 0
4, 83460, Note_on_c, 2, 74, 120
4, 83519, Note_on_c, 2, 74, 0
4, 83520, Note_on_c, 2, 76, 120
4, 83579, Note_on_c, 2, 76, 0
4, 83580, Note_on_c, 2, 79, 120
4, 83639, Note_on_c, 2, 79, 0
4, 83640, Note_on_c, 2, 78, 120
4, 83699, Note_on_c, 2, 78, 0
4, 83700, Note_on_c, 2, 76, 120
4, 83759, Note_on_c, 2, 76, 0
4, 83760, Note_on_c, 2, 74, 120
4, 83819, Note_on_c, 2, 74, 0
4, 83820, Note_on_c, 2, 71, 120
4, 83879, Note_on_c, 2, 71, 0
4, 83880, Note_on_c, 2, 66, 120
4, 83939, Note_on_c, 2, 66, 0
4, 83940, Note_on_c, 2, 71, 120
4, 83999, Note_on_c, 2, 71, 0
4, 84000, Note_on_c, 2, 74, 120
4, 84059, Note_on_c, 2, 74, 0
4, 84060, Note_on_c, 2, 76, 120
4, 84119, Note_on_c, 2, 76, 0
4, 84120, Note_on_c, 2, 73, 120
4, 84179, Note_on_c, 2, 73, 0
4, 84180, Note_on_c, 2, 71, 120
4, 84239, Note_on_c, 2, 71, 0
4, 84240, Note_on_c, 2, 73, 120
4, 84299, Note_on_c, 2, 73, 0
4, 84300, Note_on_c, 2, 76, 120
4, 84359, Note_on_c, 2, 76, 0
4, 84360, Note_on_c, 2, 74, 120
4, 84419, Note_on_c, 2, 74, 0
4, 84420, Note_on_c, 2, 73, 120
4, 84479, Note_on_c, 2, 73, 0
4, 84480, Note_on_c, 2, 71, 120
4, 84539, Note_on_c, 2, 71, 0
4, 84540, Note_on_c, 2, 66, 120
4, 84599, Note_on_c, 2, 66, 0
4, 84600, Note_on_c, 2, 62, 120
4, 84719, Note_on_c, 2, 62, 0
4, 84900, Note_on_c, 2, 69, 120
4, 84959, Note_on_c, 2, 69, 0
4, 84960, Note_on_c, 2, 74, 120
4, 85019, Note_on_c, 2, 74, 0
4, 85020, Note_on_c, 2, 76, 120
4, 85049, Note_on_c, 2, 76, 0
4, 85050, Note_on_c, 2, 78, 120
4, 85079, Note_on_c, 2, 78, 0
4, 85080, Note_on_c, 2, 76, 120
4, 85139, Note_on_c, 2, 76, 0
4, 85140, Note_on_c, 2, 78, 120
4, 85169, Note_on_c, 2, 78, 0
4, 85170, Note_on_c, 2, 79, 120
4, 85199, Note_on_c, 2, 79, 0
4, 85200, Note_on_c, 2, 78, 120
4, 85379, Note_on_c, 2, 78, 0
4, 85380, Note_on_c, 2, 76, 120
4, 85439, Note_on_c, 2, 76, 0
4, 85440, Note_on_c, 2, 74, 120
4, 85499, Note_on_c, 2, 74, 0
4, 85500, Note_on_c, 2, 73, 120
4, 85559, Note_on_c, 2, 73, 0
4, 85560, Note_on_c, 2, 71, 120
4, 85619, Note_on_c, 2, 71, 0
4, 85620, Note_on_c, 2, 70, 120
4, 85679, Note_on_c, 2, 70, 0
4, 85680, Note_on_c, 2, 71, 120
4, 85859, Note_on_c, 2, 71, 0
4, 85860, Note_on_c, 2, 73, 120
4, 85919, Note_on_c, 2, 73, 0
4, 85920, Note_on_c, 2, 70, 120
4, 86039, Note_on_c, 2, 70, 0
4, 86040, Note_on_c, 2, 70, 120
4, 86279, Note_on_c, 2, 70, 0
4, 86280, Note_on_c, 2, 71, 120
4, 86399, Note_on_c, 2, 71, 0
4, 86400, Note_on_c, 2, 71, 120
4, 86579, Note_on_c, 2, 71, 0
4, 86580, Note_on_c, 2, 73, 120
4, 86609, Note_on_c, 2, 73, 0
4, 86610, Note_on_c, 2, 74, 120
4, 86639, Note_on_c, 2, 74, 0
4, 86640, Note_on_c, 2, 73, 120
4, 86759, Note_on_c, 2, 73, 0
4, 86760, Note_on_c, 2, 73, 120
4, 86999, Note_on_c, 2, 73, 0
4, 87000, Note_on_c, 2, 74, 120
4, 87059, Note_on_c, 2, 74, 0
4, 87060, Note_on_c, 2, 73, 120
4, 87119, Note_on_c, 2, 73, 0
4, 87120, Note_on_c, 2, 74, 120
4, 87299, Note_on_c, 2, 74, 0
4, 87300, Note_on_c, 2, 76, 120
4, 87359, Note_on_c, 2, 76, 0
4, 87360, Note_on_c, 2, 73, 120
4, 87419, Note_on_c, 2, 73, 0
4, 87420, Note_on_c, 2, 71, 120
4, 87479, Note_on_c, 2, 71, 0
4, 87480, Note_on_c, 2, 73, 120
4, 87659, Note_on_c, 2, 73, 0
4, 87660, Note_on_c, 2, 74, 120
4, 87719, Note_on_c, 2, 74, 0
4, 87720, Note_on_c, 2, 71, 120
4, 87779, Note_on_c, 2, 71, 0
4, 87780, Note_on_c, 2, 70, 120
4, 87839, Note_on_c, 2, 70, 0
4, 87840, Note_on_c, 2, 71, 120
4, 87899, Note_on_c, 2, 71, 0
4, 87900, Note_on_c, 2, 67, 120
4, 87959, Note_on_c, 2, 67, 0
4, 87960, Note_on_c, 2, 64, 120
4, 88019, Note_on_c, 2, 64, 0
4, 88020, Note_on_c, 2, 73, 120
4, 88079, Note_on_c, 2, 73, 0
4, 88080, Note_on_c, 2, 70, 120
4, 88259, Note_on_c, 2, 70, 0
4, 88260, Note_on_c, 2, 66, 120
4, 88319, Note_on_c, 2, 66, 0
4, 88320, Note_on_c, 2, 71, 120
4, 88379, Note_on_c, 2, 71, 0
4, 88380, Note_on_c, 2, 73, 120
4, 88439, Note_on_c, 2, 73, 0
4, 88440, Note_on_c, 2, 74, 120
4, 88499, Note_on_c, 2, 74, 0
4, 88500, Note_on_c, 2, 73, 120
4, 88559, Note_on_c, 2, 73, 0
4, 88560, Note_on_c, 2, 74, 120
4, 88739, Note_on_c, 2, 74, 0
4, 88740, Note_on_c, 2, 76, 120
4, 88799, Note_on_c, 2, 76, 0
4, 88800, Note_on_c, 2, 73, 120
4, 88919, Note_on_c, 2, 73, 0
4, 88920, Note_on_c, 2, 73, 120
4, 89159, Note_on_c, 2, 73, 0
4, 89160, Note_on_c, 2, 74, 120
4, 89279, Note_on_c, 2, 74, 0
4, 89280, Note_on_c, 2, 74, 120
4, 89459, Note_on_c, 2, 74, 0
4, 89460, Note_on_c, 2, 73, 120
4, 89489, Note_on_c, 2, 73, 0
4, 89490, Note_on_c, 2, 71, 120
4, 89519, Note_on_c, 2, 71, 0
4, 89520, Note_on_c, 2, 69, 120
4, 89639, Note_on_c, 2, 69, 0
4, 89640, Note_on_c, 2, 69, 120
4, 89879, Note_on_c, 2, 69, 0
4, 89880, Note_on_c, 2, 74, 120
4, 89939, Note_on_c, 2, 74, 0
4, 89940, Note_on_c, 2, 73, 120
4, 89999, Note_on_c, 2, 73, 0
4, 90000, Note_on_c, 2, 74, 120
4, 90179, Note_on_c, 2, 74, 0
4, 90180, Note_on_c, 2, 76, 120
4, 90209, Note_on_c, 2, 76, 0
4, 90210, Note_on_c, 2, 78, 120
4, 90239, Note_on_c, 2, 78, 0
4, 90240, Note_on_c, 2, 76, 120
4, 90299, Note_on_c, 2, 76, 0
4, 90300, Note_on_c, 2, 74, 120
4, 90359, Note_on_c, 2, 74, 0
4, 90360, Note_on_c, 2, 76, 120
4, 90539, Note_on_c, 2, 76, 0
4, 90540, Note_on_c, 2, 78, 120
4, 90599, Note_on_c, 2, 78, 0
4, 90600, Note_on_c, 2, 76, 120
4, 90659, Note_on_c, 2, 76, 0
4, 90660, Note_on_c, 2, 74, 120
4, 90779, Note_on_c, 2, 74, 0
4, 90780, Note_on_c, 2, 73, 120
4, 90899, Note_on_c, 2, 73, 0
4, 90900, Note_on_c, 2, 71, 120
4, 91019, Note_on_c, 2, 71, 0
4, 91020, Note_on_c, 2, 73, 120
4, 91139, Note_on_c, 2, 73, 0
4, 91140, Note_on_c, 2, 71, 120
4, 91259, Note_on_c, 2, 71, 0
4, 91260, Note_on_c, 2, 70, 120
4, 91319, Note_on_c, 2, 70, 0
4, 91320, Note_on_c, 2, 71, 120
4, 91367, Note_on_c, 2, 71, 0
4, 91380, Note_on_c, 2, 66, 120
4, 91403, Note_on_c, 2, 66, 0
4, 91410, Note_on_c, 2, 64, 120
4, 91433, Note_on_c, 2, 64, 0
4, 91440, Note_on_c, 2, 62, 120
4, 91487, Note_on_c, 2, 62, 0
4, 91500, Note_on_c, 2, 66, 120
4, 91547, Note_on_c, 2, 66, 0
4, 91560, Note_on_c, 2, 59, 120
4, 91607, Note_on_c, 2, 59, 0
4, 91620, Note_on_c, 2, 71, 120
4, 91667, Note_on_c, 2, 71, 0
4, 91680, Note_on_c, 2, 70, 120
4, 91727, Note_on_c, 2, 70, 0
4, 91740, Note_on_c, 2, 73, 120
4, 91763, Note_on_c, 2, 73, 0
4, 91770, Note_on_c, 2, 71, 120
4, 91793, Note_on_c, 2, 71, 0
4, 91800, Note_on_c, 2, 70, 120
4, 91847, Note_on_c, 2, 70, 0
4, 91860, Note_on_c, 2, 73, 120
4, 91907, Note_on_c, 2, 73, 0
4, 91920, Note_on_c, 2, 66, 120
4, 91967, Note_on_c, 2, 66, 0
4, 91980, Note_on_c, 2, 70, 120
4, 92027, Note_on_c, 2, 70, 0
4, 92040, Note_on_c, 2, 71, 120
4, 92087, Note_on_c, 2, 71, 0
4, 92100, Note_on_c, 2, 74, 120
4, 92123, Note_on_c, 2, 74, 0
4, 92130, Note_on_c, 2, 73, 120
4, 92153, Note_on_c, 2, 73, 0
4, 92160, Note_on_c, 2, 71, 120
4, 92207, Note_on_c, 2, 71, 0
4, 92220, Note_on_c, 2, 74, 120
4, 92267, Note_on_c, 2, 74, 0
4, 92280, Note_on_c, 2, 64, 120
4, 92327, Note_on_c, 2, 64, 0
4, 92340, Note_on_c, 2, 71, 120
4, 92387, Note_on_c, 2, 71, 0
4, 92400, Note_on_c, 2, 73, 120
4, 92447, Note_on_c, 2, 73, 0
4, 92460, Note_on_c, 2, 76, 120
4, 92483, Note_on_c, 2, 76, 0
4, 92490, Note_on_c, 2, 74, 120
4, 92513, Note_on_c, 2, 74, 0
4, 92520, Note_on_c, 2, 73, 120
4, 92567, Note_on_c, 2, 73, 0
4, 92580, Note_on_c, 2, 76, 120
4, 92627, Note_on_c, 2, 76, 0
4, 92640, Note_on_c, 2, 66, 120
4, 92687, Note_on_c, 2, 66, 0
4, 92700, Note_on_c, 2, 73, 120
4, 92747, Note_on_c, 2, 73, 0
4, 92760, Note_on_c, 2, 74, 120
4, 92807, Note_on_c, 2, 74, 0
4, 92820, Note_on_c, 2, 78, 120
4, 92843, Note_on_c, 2, 78, 0
4, 92850, Note_on_c, 2, 76, 120
4, 92873, Note_on_c, 2, 76, 0
4, 92880, Note_on_c, 2, 74, 120
4, 92927, Note_on_c, 2, 74, 0
4, 92940, Note_on_c, 2, 78, 120
4, 92987, Note_on_c, 2, 78, 0
4, 93000, Note_on_c, 2, 66, 120
4, 93047, Note_on_c, 2, 66, 0
4, 93060, Note_on_c, 2, 78, 120
4, 93107, Note_on_c, 2, 78, 0
4, 93120, Note_on_c, 2, 73, 120
4, 93167, Note_on_c, 2, 73, 0
4, 93180, Note_on_c, 2, 76, 120
4, 93203, Note_on_c, 2, 76, 0
4, 93210, Note_on_c, 2, 74, 120
4, 93233, Note_on_c, 2, 74, 0
4, 93240, Note_on_c, 2, 73, 120
4, 93287, Note_on_c, 2, 73, 0
4, 93300, Note_on_c, 2, 78, 120
4, 93347, Note_on_c, 2, 78, 0
4, 93360, Note_on_c, 2, 66, 120
4, 93407, Note_on_c, 2, 66, 0
4, 93420, Note_on_c, 2, 76, 120
4, 93467, Note_on_c, 2, 76, 0
4, 93480, Note_on_c, 2, 71, 120
4, 93527, Note_on_c, 2, 71, 0
4, 93540, Note_on_c, 2, 73, 120
4, 93563, Note_on_c, 2, 73, 0
4, 93570, Note_on_c, 2, 71, 120
4, 93593, Note_on_c, 2, 71, 0
4, 93600, Note_on_c, 2, 71, 120
4, 93647, Note_on_c, 2, 71, 0
4, 93660, Note_on_c, 2, 78, 120
4, 93707, Note_on_c, 2, 78, 0
4, 93720, Note_on_c, 2, 66, 120
4, 93767, Note_on_c, 2, 66, 0
4, 93780, Note_on_c, 2, 74, 120
4, 93827, Note_on_c, 2, 74, 0
4, 93840, Note_on_c, 2, 70, 120
4, 93887, Note_on_c, 2, 70, 0
4, 93900, Note_on_c, 2, 73, 120
4, 93923, Note_on_c, 2, 73, 0
4, 93930, Note_on_c, 2, 71, 120
4, 93953, Note_on_c, 2, 71, 0
4, 93960, Note_on_c, 2, 70, 120
4, 94007, Note_on_c, 2, 70, 0
4, 94020, Note_on_c, 2, 78, 120
4, 94067, Note_on_c, 2, 78, 0
4, 94080, Note_on_c, 2, 66, 120
4, 94127, Note_on_c, 2, 66, 0
4, 94140, Note_on_c, 2, 70, 120
4, 94187, Note_on_c, 2, 70, 0
4, 94200, Note_on_c, 2, 71, 120
4, 94319, Note_on_c, 2, 71, 0
4, 94320, Note_on_c, 2, 59, 120
4, 94439, Note_on_c, 2, 59, 0
4, 94620, Note_on_c, 2, 79, 120
4, 94679, Note_on_c, 2, 79, 0
4, 94680, Note_on_c, 2, 78, 120
4, 94739, Note_on_c, 2, 78, 0
4, 94740, Note_on_c, 2, 76, 120
4, 94799, Note_on_c, 2, 76, 0
4, 94800, Note_on_c, 2, 74, 120
4, 94859, Note_on_c, 2, 74, 0
4, 94860, Note_on_c, 2, 73, 120
4, 94919, Note_on_c, 2, 73, 0
4, 94920, Note_on_c, 2, 74, 120
4, 94979, Note_on_c, 2, 74, 0
4, 94980, Note_on_c, 2, 76, 120
4, 95039, Note_on_c, 2, 76, 0
4, 95040, Note_on_c, 2, 74, 120
4, 95099, Note_on_c, 2, 74, 0
4, 95100, Note_on_c, 2, 73, 120
4, 95159, Note_on_c, 2, 73, 0
4, 95160, Note_on_c, 2, 71, 120
4, 95219, Note_on_c, 2, 71, 0
4, 95220, Note_on_c, 2, 69, 120
4, 95279, Note_on_c, 2, 69, 0
4, 95280, Note_on_c, 2, 67, 120
4, 95339, Note_on_c, 2, 67, 0
4, 95340, Note_on_c, 2, 64, 120
4, 95399, Note_on_c, 2, 64, 0
4, 95400, Note_on_c, 2, 61, 120
4, 95459, Note_on_c, 2, 61, 0
4, 95460, Note_on_c, 2, 64, 120
4, 95519, Note_on_c, 2, 64, 0
4, 95520, Note_on_c, 2, 58, 120
4, 95579, Note_on_c, 2, 58, 0
4, 95580, Note_on_c, 2, 66, 120
4, 95639, Note_on_c, 2, 66, 0
4, 95640, Note_on_c, 2, 74, 120
4, 95759, Note_on_c, 2, 74, 0
4, 95760, Note_on_c, 2, 74, 120
4, 95939, Note_on_c, 2, 74, 0
4, 95940, Note_on_c, 2, 76, 120
4, 95999, Note_on_c, 2, 76, 0
4, 96000, Note_on_c, 2, 73, 120
4, 96119, Note_on_c, 2, 73, 0
4, 96120, Note_on_c, 2, 73, 120
4, 96359, Note_on_c, 2, 73, 0
4, 96360, Note_on_c, 2, 71, 120
4, 96479, Note_on_c, 2, 71, 0
4, 96480, Note_on_c, 2, 71, 120
4, 96659, Note_on_c, 2, 71, 0
4, 96660, Note_on_c, 2, 73, 120
4, 96719, Note_on_c, 2, 73, 0
4, 96720, Note_on_c, 2, 70, 120
4, 96899, Note_on_c, 2, 70, 0
4, 96900, Note_on_c, 2, 66, 120
4, 96959, Note_on_c, 2, 66, 0
4, 96960, Note_on_c, 2, 71, 120
4, 97139, Note_on_c, 2, 71, 0
4, 97140, Note_on_c, 2, 73, 120
4, 97199, Note_on_c, 2, 73, 0
4, 97200, Note_on_c, 2, 70, 120
4, 97379, Note_on_c, 2, 70, 0
4, 97380, Note_on_c, 2, 71, 120
4, 97439, Note_on_c, 2, 71, 0
4, 97440, Note_on_c, 2, 71, 120
4, 97799, Note_on_c, 2, 71, 0
4, 102000, Note_on_c, 2, 74, 120
4, 102119, Note_on_c, 2, 74, 0
4, 102120, Note_on_c, 2, 79, 120
4, 102179, Note_on_c, 2, 79, 0
4, 102180, Note_on_c, 2, 74, 120
4, 102239, Note_on_c, 2, 74, 0
4, 102240, Note_on_c, 2, 71, 120
4, 102299, Note_on_c, 2, 71, 0
4, 102300, Note_on_c, 2, 67, 120
4, 102359, Note_on_c, 2, 67, 0
4, 102360, Note_on_c, 2, 74, 120
4, 102449, Note_on_c, 2, 74, 0
4, 102450, Note_on_c, 2, 79, 120
4, 102464, Note_on_c, 2, 79, 0
4, 102465, Note_on_c, 2, 78, 120
4, 102479, Note_on_c, 2, 78, 0
4, 102480, Note_on_c, 2, 79, 120
4, 102539, Note_on_c, 2, 79, 0
4, 102540, Note_on_c, 2, 74, 120
4, 102599, Note_on_c, 2, 74, 0
4, 102600, Note_on_c, 2, 71, 120
4, 102659, Note_on_c, 2, 71, 0
4, 102660, Note_on_c, 2, 67, 120
4, 102719, Note_on_c, 2, 67, 0
4, 102720, Note_on_c, 2, 71, 120
4, 102809, Note_on_c, 2, 71, 0
4, 102810, Note_on_c, 2, 72, 120
4, 102824, Note_on_c, 2, 72, 0
4, 102825, Note_on_c, 2, 74, 120
4, 102839, Note_on_c, 2, 74, 0
4, 102840, Note_on_c, 2, 76, 120
4, 102869, Note_on_c, 2, 76, 0
4, 102870, Note_on_c, 2, 74, 120
4, 102899, Note_on_c, 2, 74, 0
4, 102900, Note_on_c, 2, 76, 120
4, 102929, Note_on_c, 2, 76, 0
4, 102930, Note_on_c, 2, 77, 120
4, 102959, Note_on_c, 2, 77, 0
4, 102960, Note_on_c, 2, 76, 120
4, 103019, Note_on_c, 2, 76, 0
4, 103020, Note_on_c, 2, 74, 120
4, 103079, Note_on_c, 2, 74, 0
4, 103080, Note_on_c, 2, 72, 120
4, 103139, Note_on_c, 2, 72, 0
4, 103140, Note_on_c, 2, 71, 120
4, 103199, Note_on_c, 2, 71, 0
4, 103200, Note_on_c, 2, 69, 120
4, 103319, Note_on_c, 2, 69, 0
4, 103320, Note_on_c, 2, 69, 120
4, 103439, Note_on_c, 2, 69, 0
4, 103440, Note_on_c, 2, 74, 120
4, 103529, Note_on_c, 2, 74, 0
4, 103530, Note_on_c, 2, 79, 120
4, 103544, Note_on_c, 2, 79, 0
4, 103545, Note_on_c, 2, 78, 120
4, 103559, Note_on_c, 2, 78, 0
4, 103560, Note_on_c, 2, 79, 120
4, 103589, Note_on_c, 2, 79, 0
4, 103590, Note_on_c, 2, 78, 120
4, 103619, Note_on_c, 2, 78, 0
4, 103620, Note_on_c, 2, 76, 120
4, 103649, Note_on_c, 2, 76, 0
4, 103650, Note_on_c, 2, 74, 120
4, 103679, Note_on_c, 2, 74, 0
4, 103680, Note_on_c, 2, 72, 120
4, 103709, Note_on_c, 2, 72, 0
4, 103710, Note_on_c, 2, 71, 120
4, 103739, Note_on_c, 2, 71, 0
4, 103740, Note_on_c, 2, 69, 120
4, 103769, Note_on_c, 2, 69, 0
4, 103770, Note_on_c, 2, 67, 120
4, 103799, Note_on_c, 2, 67, 0
4, 103800, Note_on_c, 2, 76, 120
4, 103829, Note_on_c, 2, 76, 0
4, 103830, Note_on_c, 2, 74, 120
4, 103859, Note_on_c, 2, 74, 0
4, 103860, Note_on_c, 2, 72, 120
4, 103889, Note_on_c, 2, 72, 0
4, 103890, Note_on_c, 2, 71, 120
4, 103919, Note_on_c, 2, 71, 0
4, 103920, Note_on_c, 2, 79, 120
4, 103949, Note_on_c, 2, 79, 0
4, 103950, Note_on_c, 2, 78, 120
4, 103979, Note_on_c, 2, 78, 0
4, 103980, Note_on_c, 2, 76, 120
4, 104009, Note_on_c, 2, 76, 0
4, 104010, Note_on_c, 2, 74, 120
4, 104039, Note_on_c, 2, 74, 0
4, 104040, Note_on_c, 2, 72, 120
4, 104069, Note_on_c, 2, 72, 0
4, 104070, Note_on_c, 2, 71, 120
4, 104099, Note_on_c, 2, 71, 0
4, 104100, Note_on_c, 2, 69, 120
4, 104129, Note_on_c, 2, 69, 0
4, 104130, Note_on_c, 2, 67, 120
4, 104159, Note_on_c, 2, 67, 0
4, 104160, Note_on_c, 2, 69, 120
4, 104189, Note_on_c, 2, 69, 0
4, 104190, Note_on_c, 2, 71, 120
4, 104219, Note_on_c, 2, 71, 0
4, 104220, Note_on_c, 2, 72, 120
4, 104249, Note_on_c, 2, 72, 0
4, 104250, Note_on_c, 2, 74, 120
4, 104279, Note_on_c, 2, 74, 0
4, 104280, Note_on_c, 2, 76, 120
4, 104309, Note_on_c, 2, 76, 0
4, 104310, Note_on_c, 2, 74, 120
4, 104339, Note_on_c, 2, 74, 0
4, 104340, Note_on_c, 2, 76, 120
4, 104369, Note_on_c, 2, 76, 0
4, 104370, Note_on_c, 2, 77, 120
4, 104399, Note_on_c, 2, 77, 0
4, 104400, Note_on_c, 2, 76, 120
4, 104429, Note_on_c, 2, 76, 0
4, 104430, Note_on_c, 2, 74, 120
4, 104459, Note_on_c, 2, 74, 0
4, 104460, Note_on_c, 2, 72, 120
4, 104489, Note_on_c, 2, 72, 0
4, 104490, Note_on_c, 2, 74, 120
4, 104519, Note_on_c, 2, 74, 0
4, 104520, Note_on_c, 2, 76, 120
4, 104549, Note_on_c, 2, 76, 0
4, 104550, Note_on_c, 2, 74, 120
4, 104579, Note_on_c, 2, 74, 0
4, 104580, Note_on_c, 2, 72, 120
4, 104609, Note_on_c, 2, 72, 0
4, 104610, Note_on_c, 2, 71, 120
4, 104639, Note_on_c, 2, 71, 0
4, 104640, Note_on_c, 2, 69, 120
4, 104759, Note_on_c, 2, 69, 0
4, 104760, Note_on_c, 2, 69, 120
4, 104999, Note_on_c, 2, 69, 0
4, 105000, Note_on_c, 2, 67, 120
4, 105089, Note_on_c, 2, 67, 0
4, 105090, Note_on_c, 2, 69, 120
4, 105119, Note_on_c, 2, 69, 0
4, 105120, Note_on_c, 2, 71, 120
4, 105179, Note_on_c, 2, 71, 0
4, 105180, Note_on_c, 2, 67, 120
4, 105239, Note_on_c, 2, 67, 0
4, 105240, Note_on_c, 2, 74, 120
4, 105299, Note_on_c, 2, 74, 0
4, 105300, Note_on_c, 2, 71, 120
4, 105359, Note_on_c, 2, 71, 0
4, 105360, Note_on_c, 2, 72, 120
4, 105389, Note_on_c, 2, 72, 0
4, 105390, Note_on_c, 2, 74, 120
4, 105419, Note_on_c, 2, 74, 0
4, 105420, Note_on_c, 2, 72, 120
4, 105449, Note_on_c, 2, 72, 0
4, 105450, Note_on_c, 2, 71, 120
4, 105479, Note_on_c, 2, 71, 0
4, 105480, Note_on_c, 2, 72, 120
4, 105659, Note_on_c, 2, 72, 0
4, 105660, Note_on_c, 2, 71, 120
4, 105719, Note_on_c, 2, 71, 0
4, 105720, Note_on_c, 2, 69, 120
4, 105749, Note_on_c, 2, 69, 0
4, 105750, Note_on_c, 2, 67, 120
4, 105779, Note_on_c, 2, 67, 0
4, 105780, Note_on_c, 2, 69, 120
4, 105809, Note_on_c, 2, 69, 0
4, 105810, Note_on_c, 2, 71, 120
4, 105839, Note_on_c, 2, 71, 0
4, 105840, Note_on_c, 2, 72, 120
4, 105899, Note_on_c, 2, 72, 0
4, 105900, Note_on_c, 2, 71, 120
4, 105959, Note_on_c, 2, 71, 0
4, 105960, Note_on_c, 2, 69, 120
4, 106019, Note_on_c, 2, 69, 0
4, 106020, Note_on_c, 2, 67, 120
4, 106079, Note_on_c, 2, 67, 0
4, 106080, Note_on_c, 2, 74, 120
4, 106109, Note_on_c, 2, 74, 0
4, 106110, Note_on_c, 2, 72, 120
4, 106139, Note_on_c, 2, 72, 0
4, 106140, Note_on_c, 2, 74, 120
4, 106169, Note_on_c, 2, 74, 0
4, 106170, Note_on_c, 2, 76, 120
4, 106199, Note_on_c, 2, 76, 0
4, 106200, Note_on_c, 2, 74, 120
4, 106379, Note_on_c, 2, 74, 0
4, 106380, Note_on_c, 2, 72, 120
4, 106439, Note_on_c, 2, 72, 0
4, 106440, Note_on_c, 2, 71, 120
4, 106529, Note_on_c, 2, 71, 0
4, 106530, Note_on_c, 2, 72, 120
4, 106544, Note_on_c, 2, 72, 0
4, 106545, Note_on_c, 2, 74, 120
4, 106559, Note_on_c, 2, 74, 0
4, 106560, Note_on_c, 2, 62, 120
4, 106619, Note_on_c, 2, 62, 0
4, 106620, Note_on_c, 2, 67, 120
4, 106679, Note_on_c, 2, 67, 0
4, 106680, Note_on_c, 2, 69, 120
4, 106709, Note_on_c, 2, 69, 0
4, 106710, Note_on_c, 2, 71, 120
4, 106739, Note_on_c, 2, 71, 0
4, 106740, Note_on_c, 2, 69, 120
4, 106769, Note_on_c, 2, 69, 0
4, 106770, Note_on_c, 2, 66, 120
4, 106799, Note_on_c, 2, 66, 0
4, 106800, Note_on_c, 2, 67, 120
4, 106859, Note_on_c, 2, 67, 0
4, 106860, Note_on_c, 2, 62, 120
4, 106889, Note_on_c, 2, 62, 0
4, 106890, Note_on_c, 2, 59, 120
4, 106919, Note_on_c, 2, 59, 0
4, 106920, Note_on_c, 2, 55, 120
4, 107039, Note_on_c, 2, 55, 0
4, 107070, Note_on_c, 2, 62, 120
4, 107099, Note_on_c, 2, 62, 0
4, 107100, Note_on_c, 2, 64, 120
4, 107129, Note_on_c, 2, 64, 0
4, 107130, Note_on_c, 2, 66, 120
4, 107159, Note_on_c, 2, 66, 0
4, 107160, Note_on_c, 2, 67, 120
4, 107189, Note_on_c, 2, 67, 0
4, 107190, Note_on_c, 2, 66, 120
4, 107219, Note_on_c, 2, 66, 0
4, 107220, Note_on_c, 2, 67, 120
4, 107249, Note_on_c, 2, 67, 0
4, 107250, Note_on_c, 2, 69, 120
4, 107279, Note_on_c, 2, 69, 0
4, 107280, Note_on_c, 2, 71, 120
4, 107309, Note_on_c, 2, 71, 0
4, 107310, Note_on_c, 2, 72, 120
4, 107339, Note_on_c, 2, 72, 0
4, 107340, Note_on_c, 2, 71, 120
4, 107369, Note_on_c, 2, 71, 0
4, 107370, Note_on_c, 2, 69, 120
4, 107399, Note_on_c, 2, 69, 0
4, 107400, Note_on_c, 2, 71, 120
4, 107429, Note_on_c, 2, 71, 0
4, 107430, Note_on_c, 2, 67, 120
4, 107459, Note_on_c, 2, 67, 0
4, 107460, Note_on_c, 2, 66, 120
4, 107489, Note_on_c, 2, 66, 0
4, 107490, Note_on_c, 2, 67, 120
4, 107519, Note_on_c, 2, 67, 0
4, 107520, Note_on_c, 2, 72, 120
4, 107549, Note_on_c, 2, 72, 0
4, 107550, Note_on_c, 2, 74, 120
4, 107579, Note_on_c, 2, 74, 0
4, 107580, Note_on_c, 2, 72, 120
4, 107609, Note_on_c, 2, 72, 0
4, 107610, Note_on_c, 2, 71, 120
4, 107639, Note_on_c, 2, 71, 0
4, 107640, Note_on_c, 2, 72, 120
4, 107669, Note_on_c, 2, 72, 0
4, 107670, Note_on_c, 2, 76, 120
4, 107699, Note_on_c, 2, 76, 0
4, 107700, Note_on_c, 2, 74, 120
4, 107729, Note_on_c, 2, 74, 0
4, 107730, Note_on_c, 2, 72, 120
4, 107759, Note_on_c, 2, 72, 0
4, 107760, Note_on_c, 2, 79, 120
4, 107789, Note_on_c, 2, 79, 0
4, 107790, Note_on_c, 2, 74, 120
4, 107819, Note_on_c, 2, 74, 0
4, 107820, Note_on_c, 2, 72, 120
4, 107849, Note_on_c, 2, 72, 0
4, 107850, Note_on_c, 2, 71, 120
4, 107879, Note_on_c, 2, 71, 0
4, 107880, Note_on_c, 2, 69, 120
4, 107909, Note_on_c, 2, 69, 0
4, 107910, Note_on_c, 2, 67, 120
4, 107939, Note_on_c, 2, 67, 0
4, 107940, Note_on_c, 2, 69, 120
4, 107969, Note_on_c, 2, 69, 0
4, 107970, Note_on_c, 2, 71, 120
4, 107999, Note_on_c, 2, 71, 0
4, 108000, Note_on_c, 2, 72, 120
4, 108029, Note_on_c, 2, 72, 0
4, 108030, Note_on_c, 2, 71, 120
4, 108059, Note_on_c, 2, 71, 0
4, 108060, Note_on_c, 2, 69, 120
4, 108089, Note_on_c, 2, 69, 0
4, 108090, Note_on_c, 2, 71, 120
4, 108119, Note_on_c, 2, 71, 0
4, 108120, Note_on_c, 2, 72, 120
4, 108149, Note_on_c, 2, 72, 0
4, 108150, Note_on_c, 2, 71, 120
4, 108179, Note_on_c, 2, 71, 0
4, 108180, Note_on_c, 2, 69, 120
4, 108209, Note_on_c, 2, 69, 0
4, 108210, Note_on_c, 2, 67, 120
4, 108239, Note_on_c, 2, 67, 0
4, 108240, Note_on_c, 2, 74, 120
4, 108269, Note_on_c, 2, 74, 0
4, 108270, Note_on_c, 2, 76, 120
4, 108299, Note_on_c, 2, 76, 0
4, 108300, Note_on_c, 2, 74, 120
4, 108329, Note_on_c, 2, 74, 0
4, 108330, Note_on_c, 2, 73, 120
4, 108359, Note_on_c, 2, 73, 0
4, 108360, Note_on_c, 2, 74, 120
4, 108389, Note_on_c, 2, 74, 0
4, 108390, Note_on_c, 2, 78, 120
4, 108419, Note_on_c, 2, 78, 0
4, 108420, Note_on_c, 2, 76, 120
4, 108449, Note_on_c, 2, 76, 0
4, 108450, Note_on_c, 2, 74, 120
4, 108479, Note_on_c, 2, 74, 0
4, 108480, Note_on_c, 2, 81, 120
4, 108509, Note_on_c, 2, 81, 0
4, 108510, Note_on_c, 2, 72, 120
4, 108539, Note_on_c, 2, 72, 0
4, 108540, Note_on_c, 2, 71, 120
4, 108569, Note_on_c, 2, 71, 0
4, 108570, Note_on_c, 2, 69, 120
4, 108599, Note_on_c, 2, 69, 0
4, 108600, Note_on_c, 2, 71, 120
4, 108629, Note_on_c, 2, 71, 0
4, 108630, Note_on_c, 2, 67, 120
4, 108659, Note_on_c, 2, 67, 0
4, 108660, Note_on_c, 2, 66, 120
4, 108689, Note_on_c, 2, 66, 0
4, 108690, Note_on_c, 2, 67, 120
4, 108719, Note_on_c, 2, 67, 0
4, 108720, Note_on_c, 2, 69, 120
4, 108749, Note_on_c, 2, 69, 0
4, 108750, Note_on_c, 2, 72, 120
4, 108779, Note_on_c, 2, 72, 0
4, 108780, Note_on_c, 2, 71, 120
4, 108809, Note_on_c, 2, 71, 0
4, 108810, Note_on_c, 2, 69, 120
4, 108839, Note_on_c, 2, 69, 0
4, 108840, Note_on_c, 2, 71, 120
4, 108869, Note_on_c, 2, 71, 0
4, 108870, Note_on_c, 2, 69, 120
4, 108899, Note_on_c, 2, 69, 0
4, 108900, Note_on_c, 2, 67, 120
4, 108929, Note_on_c, 2, 67, 0
4, 108930, Note_on_c, 2, 66, 120
4, 108959, Note_on_c, 2, 66, 0
4, 108960, Note_on_c, 2, 67, 120
4, 108989, Note_on_c, 2, 67, 0
4, 108990, Note_on_c, 2, 62, 120
4, 109019, Note_on_c, 2, 62, 0
4, 109020, Note_on_c, 2, 59, 120
4, 109049, Note_on_c, 2, 59, 0
4, 109050, Note_on_c, 2, 62, 120
4, 109079, Note_on_c, 2, 62, 0
4, 109080, Note_on_c, 2, 55, 120
4, 109199, Note_on_c, 2, 55, 0
4, 109380, Note_on_c, 2, 71, 120
4, 109409, Note_on_c, 2, 71, 0
4, 109410, Note_on_c, 2, 69, 120
4, 109439, Note_on_c, 2, 69, 0
4, 109440, Note_on_c, 2, 71, 120
4, 109499, Note_on_c, 2, 71, 0
4, 109740, Note_on_c, 2, 71, 120
4, 109769, Note_on_c, 2, 71, 0
4, 109770, Note_on_c, 2, 69, 120
4, 109799, Note_on_c, 2, 69, 0
4, 109800, Note_on_c, 2, 71, 120
4, 109859, Note_on_c, 2, 71, 0
4, 110100, Note_on_c, 2, 71, 120
4, 110129, Note_on_c, 2, 71, 0
4, 110130, Note_on_c, 2, 69, 120
4, 110159, Note_on_c, 2, 69, 0
4, 110160, Note_on_c, 2, 67, 120
4, 110219, Note_on_c, 2, 67, 0
4, 110460, Note_on_c, 2, 66, 120
4, 110489, Note_on_c, 2, 66, 0
4, 110490, Note_on_c, 2, 64, 120
4, 110519, Note_on_c, 2, 64, 0
4, 110520, Note_on_c, 2, 66, 120
4, 110579, Note_on_c, 2, 66, 0
4, 110640, Note_on_c, 2, 74, 120
4, 110759, Note_on_c, 2, 74, 0
4, 110760, Note_on_c, 2, 79, 120
4, 110819, Note_on_c, 2, 79, 0
4, 110820, Note_on_c, 2, 74, 120
4, 110879, Note_on_c, 2, 74, 0
4, 110880, Note_on_c, 2, 71, 120
4, 110939, Note_on_c, 2, 71, 0
4, 110940, Note_on_c, 2, 67, 120
4, 110999, Note_on_c, 2, 67, 0
4, 111000, Note_on_c, 2, 74, 120
4, 111089, Note_on_c, 2, 74, 0
4, 111090, Note_on_c, 2, 79, 120
4, 111104, Note_on_c, 2, 79, 0
4, 111105, Note_on_c, 2, 78, 120
4, 111119, Note_on_c, 2, 78, 0
4, 111120, Note_on_c, 2, 79, 120
4, 111179, Note_on_c, 2, 79, 0
4, 111180, Note_on_c, 2, 74, 120
4, 111239, Note_on_c, 2, 74, 0
4, 111240, Note_on_c, 2, 71, 120
4, 111299, Note_on_c, 2, 71, 0
4, 111300, Note_on_c, 2, 67, 120
4, 111359, Note_on_c, 2, 67, 0
4, 111360, Note_on_c, 2, 71, 120
4, 111449, Note_on_c, 2, 71, 0
4, 111450, Note_on_c, 2, 72, 120
4, 111464, Note_on_c, 2, 72, 0
4, 111465, Note_on_c, 2, 74, 120
4, 111479, Note_on_c, 2, 74, 0
4, 111480, Note_on_c, 2, 76, 120
4, 111509, Note_on_c, 2, 76, 0
4, 111510, Note_on_c, 2, 74, 120
4, 111539, Note_on_c, 2, 74, 0
4, 111540, Note_on_c, 2, 76, 120
4, 111569, Note_on_c, 2, 76, 0
4, 111570, Note_on_c, 2, 77, 120
4, 111599, Note_on_c, 2, 77, 0
4, 111600, Note_on_c, 2, 76, 120
4, 111659, Note_on_c, 2, 76, 0
4, 111660, Note_on_c, 2, 74, 120
4, 111719, Note_on_c, 2, 74, 0
4, 111720, Note_on_c, 2, 72, 120
4, 111779, Note_on_c, 2, 72, 0
4, 111780, Note_on_c, 2, 71, 120
4, 111839, Note_on_c, 2, 71, 0
4, 111840, Note_on_c, 2, 69, 120
4, 111899, Note_on_c, 2, 69, 0
4, 111900, Note_on_c, 2, 74, 120
4, 111929, Note_on_c, 2, 74, 0
4, 111930, Note_on_c, 2, 73, 120
4, 111959, Note_on_c, 2, 73, 0
4, 111960, Note_on_c, 2, 74, 120
4, 112019, Note_on_c, 2, 74, 0
4, 112020, Note_on_c, 2, 66, 120
4, 112049, Note_on_c, 2, 66, 0
4, 112050, Note_on_c, 2, 64, 120
4, 112079, Note_on_c, 2, 64, 0
4, 112080, Note_on_c, 2, 66, 120
4, 112139, Note_on_c, 2, 66, 0
4, 112380, Note_on_c, 2, 65, 120
4, 112409, Note_on_c, 2, 65, 0
4, 112410, Note_on_c, 2, 64, 120
4, 112439, Note_on_c, 2, 64, 0
4, 112440, Note_on_c, 2, 65, 120
4, 112499, Note_on_c, 2, 65, 0
4, 112740, Note_on_c, 2, 64, 120
4, 112769, Note_on_c, 2, 64, 0
4, 112770, Note_on_c, 2, 62, 120
4, 112799, Note_on_c, 2, 62, 0
4, 112800, Note_on_c, 2, 64, 120
4, 112859, Note_on_c, 2, 64, 0
4, 113100, Note_on_c, 2, 67, 120
4, 113129, Note_on_c, 2, 67, 0
4, 113130, Note_on_c, 2, 66, 120
4, 113159, Note_on_c, 2, 66, 0
4, 113160, Note_on_c, 2, 67, 120
4, 113219, Note_on_c, 2, 67, 0
4, 113460, Note_on_c, 2, 66, 120
4, 113489, Note_on_c, 2, 66, 0
4, 113490, Note_on_c, 2, 64, 120
4, 113519, Note_on_c, 2, 64, 0
4, 113520, Note_on_c, 2, 66, 120
4, 113579, Note_on_c, 2, 66, 0
4, 113700, Note_on_c, 2, 71, 120
4, 113729, Note_on_c, 2, 71, 0
4, 113730, Note_on_c, 2, 69, 120
4, 113759, Note_on_c, 2, 69, 0
4, 113760, Note_on_c, 2, 71, 120
4, 113819, Note_on_c, 2, 71, 0
4, 113820, Note_on_c, 2, 74, 120
4, 113879, Note_on_c, 2, 74, 0
4, 113880, Note_on_c, 2, 62, 120
4, 113939, Note_on_c, 2, 62, 0
4, 113940, Note_on_c, 2, 66, 120
4, 113999, Note_on_c, 2, 66, 0
4, 114000, Note_on_c, 2, 67, 120
4, 114029, Note_on_c, 2, 67, 0
4, 114030, Note_on_c, 2, 69, 120
4, 114059, Note_on_c, 2, 69, 0
4, 114060, Note_on_c, 2, 67, 120
4, 114089, Note_on_c, 2, 67, 0
4, 114090, Note_on_c, 2, 66, 120
4, 114119, Note_on_c, 2, 66, 0
4, 114120, Note_on_c, 2, 67, 120
4, 114239, Note_on_c, 2, 67, 0
4, 114270, Note_on_c, 2, 62, 120
4, 114299, Note_on_c, 2, 62, 0
4, 114300, Note_on_c, 2, 64, 120
4, 114329, Note_on_c, 2, 64, 0
4, 114330, Note_on_c, 2, 66, 120
4, 114359, Note_on_c, 2, 66, 0
4, 114360, Note_on_c, 2, 67, 120
4, 114389, Note_on_c, 2, 67, 0
4, 114390, Note_on_c, 2, 66, 120
4, 114419, Note_on_c, 2, 66, 0
4, 114420, Note_on_c, 2, 67, 120
4, 114449, Note_on_c, 2, 67, 0
4, 114450, Note_on_c, 2, 69, 120
4, 114479, Note_on_c, 2, 69, 0
4, 114480, Note_on_c, 2, 71, 120
4, 114539, Note_on_c, 2, 71, 0
4, 114540, Note_on_c, 2, 67, 120
4, 114599, Note_on_c, 2, 67, 0
4, 114600, Note_on_c, 2, 74, 120
4, 114659, Note_on_c, 2, 74, 0
4, 114660, Note_on_c, 2, 71, 120
4, 114719, Note_on_c, 2, 71, 0
4, 114720, Note_on_c, 2, 72, 120
4, 114750, Note_on_c, 2, 72, 0
4, 114750, Note_on_c, 2, 74, 120
4, 114780, Note_on_c, 2, 74, 0
4, 114780, Note_on_c, 2, 72, 120
4, 114810, Note_on_c, 2, 72, 0
4, 114810, Note_on_c, 2, 71, 120
4, 114840, Note_on_c, 2, 71, 0
4, 114840, Note_on_c, 2, 72, 120
4, 115019, Note_on_c, 2, 72, 0
4, 115020, Note_on_c, 2, 71, 120
4, 115079, Note_on_c, 2, 71, 0
4, 115080, Note_on_c, 2, 69, 120
4, 115109, Note_on_c, 2, 69, 0
4, 115110, Note_on_c, 2, 68, 120
4, 115139, Note_on_c, 2, 68, 0
4, 115140, Note_on_c, 2, 69, 120
4, 115169, Note_on_c, 2, 69, 0
4, 115170, Note_on_c, 2, 71, 120
4, 115199, Note_on_c, 2, 71, 0
4, 115200, Note_on_c, 2, 72, 120
4, 115259, Note_on_c, 2, 72, 0
4, 115260, Note_on_c, 2, 71, 120
4, 115319, Note_on_c, 2, 71, 0
4, 115320, Note_on_c, 2, 69, 120
4, 115379, Note_on_c, 2, 69, 0
4, 115380, Note_on_c, 2, 67, 120
4, 115439, Note_on_c, 2, 67, 0
4, 115440, Note_on_c, 2, 74, 120
4, 115469, Note_on_c, 2, 74, 0
4, 115470, Note_on_c, 2, 73, 120
4, 115499, Note_on_c, 2, 73, 0
4, 115500, Note_on_c, 2, 74, 120
4, 115529, Note_on_c, 2, 74, 0
4, 115530, Note_on_c, 2, 76, 120
4, 115559, Note_on_c, 2, 76, 0
4, 115560, Note_on_c, 2, 74, 120
4, 115739, Note_on_c, 2, 74, 0
4, 115740, Note_on_c, 2, 72, 120
4, 115799, Note_on_c, 2, 72, 0
4, 115800, Note_on_c, 2, 71, 120
4, 115889, Note_on_c, 2, 71, 0
4, 115890, Note_on_c, 2, 72, 120
4, 115904, Note_on_c, 2, 72, 0
4, 115905, Note_on_c, 2, 74, 120
4, 115919, Note_on_c, 2, 74, 0
4, 115920, Note_on_c, 2, 62, 120
4, 115979, Note_on_c, 2, 62, 0
4, 115980, Note_on_c, 2, 67, 120
4, 116039, Note_on_c, 2, 67, 0
4, 116040, Note_on_c, 2, 69, 120
4, 116069, Note_on_c, 2, 69, 0
4, 116070, Note_on_c, 2, 71, 120
4, 116099, Note_on_c, 2, 71, 0
4, 116100, Note_on_c, 2, 69, 120
4, 116129, Note_on_c, 2, 69, 0
4, 116130, Note_on_c, 2, 66, 120
4, 116159, Note_on_c, 2, 66, 0
4, 116160, Note_on_c, 2, 67, 120
4, 116279, Note_on_c, 2, 67, 0
4, 116280, Note_on_c, 2, 55, 120
4, 116399, Note_on_c, 2, 55, 0
4, 121920, Note_on_c, 2, 62, 120
4, 121979, Note_on_c, 2, 62, 0
4, 121980, Note_on_c, 2, 62, 120
4, 122009, Note_on_c, 2, 62, 0
4, 122010, Note_on_c, 2, 62, 120
4, 122039, Note_on_c, 2, 62, 0
4, 122040, Note_on_c, 2, 62, 120
4, 122159, Note_on_c, 2, 62, 0
4, 122280, Note_on_c, 2, 62, 120
4, 122339, Note_on_c, 2, 62, 0
4, 122340, Note_on_c, 2, 62, 120
4, 122369, Note_on_c, 2, 62, 0
4, 122370, Note_on_c, 2, 62, 120
4, 122399, Note_on_c, 2, 62, 0
4, 122400, Note_on_c, 2, 62, 120
4, 122519, Note_on_c, 2, 62, 0
4, 122520, Note_on_c, 2, 63, 120
4, 122579, Note_on_c, 2, 63, 0
4, 122640, Note_on_c, 2, 65, 120
4, 122699, Note_on_c, 2, 65, 0
4, 122760, Note_on_c, 2, 69, 120
4, 122819, Note_on_c, 2, 69, 0
4, 122880, Note_on_c, 2, 70, 120
4, 122939, Note_on_c, 2, 70, 0
4, 123000, Note_on_c, 2, 69, 120
4, 123059, Note_on_c, 2, 69, 0
4, 123060, Note_on_c, 2, 69, 120
4, 123089, Note_on_c, 2, 69, 0
4, 123090, Note_on_c, 2, 69, 120
4, 123119, Note_on_c, 2, 69, 0
4, 123120, Note_on_c, 2, 69, 120
4, 123179, Note_on_c, 2, 69, 0
4, 123180, Note_on_c, 2, 70, 120
4, 123209, Note_on_c, 2, 70, 0
4, 123210, Note_on_c, 2, 72, 120
4, 123239, Note_on_c, 2, 72, 0
4, 123240, Note_on_c, 2, 74, 120
4, 123329, Note_on_c, 2, 74, 0
4, 123330, Note_on_c, 2, 75, 120
4, 123359, Note_on_c, 2, 75, 0
4, 123360, Note_on_c, 2, 77, 120
4, 123479, Note_on_c, 2, 77, 0
4, 123480, Note_on_c, 2, 82, 120
4, 123599, Note_on_c, 2, 82, 0
4, 123600, Note_on_c, 2, 74, 120
4, 123689, Note_on_c, 2, 74, 0
4, 123690, Note_on_c, 2, 75, 120
4, 123719, Note_on_c, 2, 75, 0
4, 123720, Note_on_c, 2, 77, 120
4, 123959, Note_on_c, 2, 77, 0
4, 123960, Note_on_c, 2, 79, 120
4, 124049, Note_on_c, 2, 79, 0
4, 124050, Note_on_c, 2, 82, 120
4, 124079, Note_on_c, 2, 82, 0
4, 124080, Note_on_c, 2, 77, 120
4, 124169, Note_on_c, 2, 77, 0
4, 124170, Note_on_c, 2, 82, 120
4, 124199, Note_on_c, 2, 82, 0
4, 124200, Note_on_c, 2, 75, 120
4, 124289, Note_on_c, 2, 75, 0
4, 124290, Note_on_c, 2, 82, 120
4, 124319, Note_on_c, 2, 82, 0
4, 124320, Note_on_c, 2, 74, 120
4, 124409, Note_on_c, 2, 74, 0
4, 124410, Note_on_c, 2, 82, 120
4, 124439, Note_on_c, 2, 82, 0
4, 124440, Note_on_c, 2, 74, 120
4, 124500, Note_on_c, 2, 74, 0
4, 124500, Note_on_c, 2, 72, 120
4, 124680, Note_on_c, 2, 72, 0
4, 124800, Note_on_c, 2, 69, 120
4, 124859, Note_on_c, 2, 69, 0
4, 124860, Note_on_c, 2, 69, 120
4, 124889, Note_on_c, 2, 69, 0
4, 124890, Note_on_c, 2, 69, 120
4, 124919, Note_on_c, 2, 69, 0
4, 124920, Note_on_c, 2, 69, 120
4, 125039, Note_on_c, 2, 69, 0
4, 125160, Note_on_c, 2, 69, 120
4, 125219, Note_on_c, 2, 69, 0
4, 125220, Note_on_c, 2, 69, 120
4, 125249, Note_on_c, 2, 69, 0
4, 125250, Note_on_c, 2, 69, 120
4, 125279, Note_on_c, 2, 69, 0
4, 125280, Note_on_c, 2, 69, 120
4, 125399, Note_on_c, 2, 69, 0
4, 125520, Note_on_c, 2, 69, 120
4, 125579, Note_on_c, 2, 69, 0
4, 125580, Note_on_c, 2, 69, 120
4, 125609, Note_on_c, 2, 69, 0
4, 125610, Note_on_c, 2, 69, 120
4, 125639, Note_on_c, 2, 69, 0
4, 125640, Note_on_c, 2, 69, 120
4, 125759, Note_on_c, 2, 69, 0
4, 125880, Note_on_c, 2, 69, 120
4, 125939, Note_on_c, 2, 69, 0
4, 125940, Note_on_c, 2, 69, 120
4, 125969, Note_on_c, 2, 69, 0
4, 125970, Note_on_c, 2, 69, 120
4, 125999, Note_on_c, 2, 69, 0
4, 126000, Note_on_c, 2, 69, 120
4, 126119, Note_on_c, 2, 69, 0
4, 126240, Note_on_c, 2, 67, 120
4, 126299, Note_on_c, 2, 67, 0
4, 126360, Note_on_c, 2, 65, 120
4, 126419, Note_on_c, 2, 65, 0
4, 126600, Note_on_c, 2, 69, 120
4, 126659, Note_on_c, 2, 69, 0
4, 126720, Note_on_c, 2, 72, 120
4, 126779, Note_on_c, 2, 72, 0
4, 126900, Note_on_c, 2, 65, 120
4, 126929, Note_on_c, 2, 65, 0
4, 126930, Note_on_c, 2, 65, 120
4, 126959, Note_on_c, 2, 65, 0
4, 126960, Note_on_c, 2, 65, 120
4, 127019, Note_on_c, 2, 65, 0
4, 127020, Note_on_c, 2, 65, 120
4, 127049, Note_on_c, 2, 65, 0
4, 127050, Note_on_c, 2, 65, 120
4, 127079, Note_on_c, 2, 65, 0
4, 127080, Note_on_c, 2, 65, 120
4, 127199, Note_on_c, 2, 65, 0
4, 127260, Note_on_c, 2, 65, 120
4, 127289, Note_on_c, 2, 65, 0
4, 127290, Note_on_c, 2, 65, 120
4, 127319, Note_on_c, 2, 65, 0
4, 127320, Note_on_c, 2, 65, 120
4, 127379, Note_on_c, 2, 65, 0
4, 127380, Note_on_c, 2, 65, 120
4, 127409, Note_on_c, 2, 65, 0
4, 127410, Note_on_c, 2, 65, 120
4, 127439, Note_on_c, 2, 65, 0
4, 127440, Note_on_c, 2, 65, 120
4, 127499, Note_on_c, 2, 65, 0
4, 127500, Note_on_c, 2, 67, 120
4, 127529, Note_on_c, 2, 67, 0
4, 127530, Note_on_c, 2, 69, 120
4, 127559, Note_on_c, 2, 69, 0
4, 127560, Note_on_c, 2, 70, 120
4, 127619, Note_on_c, 2, 70, 0
4, 127620, Note_on_c, 2, 69, 120
4, 127649, Note_on_c, 2, 69, 0
4, 127650, Note_on_c, 2, 67, 120
4, 127679, Note_on_c, 2, 67, 0
4, 127680, Note_on_c, 2, 65, 120
4, 127709, Note_on_c, 2, 65, 0
4, 127710, Note_on_c, 2, 63, 120
4, 127739, Note_on_c, 2, 63, 0
4, 127740, Note_on_c, 2, 62, 120
4, 127769, Note_on_c, 2, 62, 0
4, 127770, Note_on_c, 2, 60, 120
4, 127799, Note_on_c, 2, 60, 0
4, 127800, Note_on_c, 2, 58, 120
4, 127919, Note_on_c, 2, 58, 0
4, 127920, Note_on_c, 2, 81, 120
4, 128009, Note_on_c, 2, 81, 0
4, 128010, Note_on_c, 2, 82, 120
4, 128039, Note_on_c, 2, 82, 0
4, 128040, Note_on_c, 2, 84, 120
4, 128159, Note_on_c, 2, 84, 0
4, 128160, Note_on_c, 2, 77, 120
4, 128279, Note_on_c, 2, 77, 0
4, 128280, Note_on_c, 2, 74, 120
4, 128369, Note_on_c, 2, 74, 0
4, 128370, Note_on_c, 2, 75, 120
4, 128399, Note_on_c, 2, 75, 0
4, 128400, Note_on_c, 2, 72, 120
4, 128519, Note_on_c, 2, 72, 0
4, 128640, Note_on_c, 2, 81, 120
4, 128729, Note_on_c, 2, 81, 0
4, 128730, Note_on_c, 2, 82, 120
4, 128759, Note_on_c, 2, 82, 0
4, 128760, Note_on_c, 2, 84, 120
4, 128879, Note_on_c, 2, 84, 0
4, 128880, Note_on_c, 2, 77, 120
4, 128999, Note_on_c, 2, 77, 0
4, 129000, Note_on_c, 2, 74, 120
4, 129089, Note_on_c, 2, 74, 0
4, 129090, Note_on_c, 2, 75, 120
4, 129119, Note_on_c, 2, 75, 0
4, 129120, Note_on_c, 2, 72, 120
4, 129239, Note_on_c, 2, 72, 0
4, 129360, Note_on_c, 2, 82, 120
4, 129419, Note_on_c, 2, 82, 0
4, 129420, Note_on_c, 2, 86, 120
4, 129479, Note_on_c, 2, 86, 0
4, 129480, Note_on_c, 2, 84, 120
4, 129539, Note_on_c, 2, 84, 0
4, 129540, Note_on_c, 2, 82, 120
4, 129599, Note_on_c, 2, 82, 0
4, 129600, Note_on_c, 2, 81, 120
4, 129659, Note_on_c, 2, 81, 0
4, 129660, Note_on_c, 2, 77, 120
4, 129719, Note_on_c, 2, 77, 0
4, 129720, Note_on_c, 2, 79, 120
4, 129839, Note_on_c, 2, 79, 0
4, 129840, Note_on_c, 2, 77, 120
4, 130079, Note_on_c, 2, 77, 0
4, 130080, Note_on_c, 2, 82, 120
4, 130139, Note_on_c, 2, 82, 0
4, 130140, Note_on_c, 2, 86, 120
4, 130199, Note_on_c, 2, 86, 0
4, 130200, Note_on_c, 2, 84, 120
4, 130259, Note_on_c, 2, 84, 0
4, 130260, Note_on_c, 2, 82, 120
4, 130319, Note_on_c, 2, 82, 0
4, 130320, Note_on_c, 2, 81, 120
4, 130379, Note_on_c, 2, 81, 0
4, 130380, Note_on_c, 2, 77, 120
4, 130439, Note_on_c, 2, 77, 0
4, 130440, Note_on_c, 2, 82, 120
4, 130499, Note_on_c, 2, 82, 0
4, 130500, Note_on_c, 2, 86, 120
4, 130559, Note_on_c, 2, 86, 0
4, 130560, Note_on_c, 2, 84, 120
4, 130619, Note_on_c, 2, 84, 0
4, 130620, Note_on_c, 2, 82, 120
4, 130679, Note_on_c, 2, 82, 0
4, 130680, Note_on_c, 2, 81, 120
4, 130739, Note_on_c, 2, 81, 0
4, 130740, Note_on_c, 2, 77, 120
4, 130799, Note_on_c, 2, 77, 0
4, 130800, Note_on_c, 2, 82, 120
4, 130919, Note_on_c, 2, 82, 0
4, 130920, Note_on_c, 2, 70, 120
4, 131159, Note_on_c, 2, 70, 0
4, 134760, Note_on_c, 2, 64, 120
4, 134819, Note_on_c, 2, 64, 0
4, 134820, Note_on_c, 2, 69, 120
4, 134879, Note_on_c, 2, 69, 0
4, 134880, Note_on_c, 2, 71, 120
4, 134939, Note_on_c, 2, 71, 0
4, 134940, Note_on_c, 2, 73, 120
4, 135059, Note_on_c, 2, 73, 0
4, 135060, Note_on_c, 2, 71, 120
4, 135119, Note_on_c, 2, 71, 0
4, 135120, Note_on_c, 2, 64, 120
4, 135179, Note_on_c, 2, 64, 0
4, 135180, Note_on_c, 2, 71, 120
4, 135239, Note_on_c, 2, 71, 0
4, 135240, Note_on_c, 2, 73, 120
4, 135299, Note_on_c, 2, 73, 0
4, 135300, Note_on_c, 2, 74, 120
4, 135419, Note_on_c, 2, 74, 0
4, 135420, Note_on_c, 2, 73, 120
4, 135479, Note_on_c, 2, 73, 0
4, 135480, Note_on_c, 2, 76, 120
4, 135539, Note_on_c, 2, 76, 0
4, 135540, Note_on_c, 2, 76, 120
4, 135599, Note_on_c, 2, 76, 0
4, 135600, Note_on_c, 2, 76, 120
4, 135659, Note_on_c, 2, 76, 0
4, 135660, Note_on_c, 2, 76, 120
4, 135719, Note_on_c, 2, 76, 0
4, 135720, Note_on_c, 2, 74, 120
4, 135749, Note_on_c, 2, 74, 0
4, 135750, Note_on_c, 2, 73, 120
4, 135779, Note_on_c, 2, 73, 0
4, 135780, Note_on_c, 2, 71, 120
4, 135809, Note_on_c, 2, 71, 0
4, 135810, Note_on_c, 2, 69, 120
4, 135839, Note_on_c, 2, 69, 0
4, 135840, Note_on_c, 2, 68, 120
4, 135899, Note_on_c, 2, 68, 0
4, 135900, Note_on_c, 2, 74, 120
4, 135959, Note_on_c, 2, 74, 0
4, 135960, Note_on_c, 2, 73, 120
4, 136019, Note_on_c, 2, 73, 0
4, 136020, Note_on_c, 2, 73, 120
4, 136079, Note_on_c, 2, 73, 0
4, 136080, Note_on_c, 2, 71, 120
4, 136200, Note_on_c, 2, 71, 0
4, 136200, Note_on_c, 2, 64, 120
4, 136259, Note_on_c, 2, 64, 0
4, 136260, Note_on_c, 2, 69, 120
4, 136319, Note_on_c, 2, 69, 0
4, 136320, Note_on_c, 2, 71, 120
4, 136379, Note_on_c, 2, 71, 0
4, 136380, Note_on_c, 2, 73, 120
4, 136499, Note_on_c, 2, 73, 0
4, 136500, Note_on_c, 2, 71, 120
4, 136559, Note_on_c, 2, 71, 0
4, 136560, Note_on_c, 2, 64, 120
4, 136619, Note_on_c, 2, 64, 0
4, 136620, Note_on_c, 2, 71, 120
4, 136679, Note_on_c, 2, 71, 0
4, 136680, Note_on_c, 2, 73, 120
4, 136739, Note_on_c, 2, 73, 0
4, 136740, Note_on_c, 2, 74, 120
4, 136859, Note_on_c, 2, 74, 0
4, 136860, Note_on_c, 2, 73, 120
4, 136919, Note_on_c, 2, 73, 0
4, 136920, Note_on_c, 2, 76, 120
4, 136979, Note_on_c, 2, 76, 0
4, 136980, Note_on_c, 2, 76, 120
4, 137039, Note_on_c, 2, 76, 0
4, 137040, Note_on_c, 2, 76, 120
4, 137099, Note_on_c, 2, 76, 0
4, 137100, Note_on_c, 2, 76, 120
4, 137159, Note_on_c, 2, 76, 0
4, 137160, Note_on_c, 2, 74, 120
4, 137189, Note_on_c, 2, 74, 0
4, 137190, Note_on_c, 2, 73, 120
4, 137219, Note_on_c, 2, 73, 0
4, 137220, Note_on_c, 2, 71, 120
4, 137249, Note_on_c, 2, 71, 0
4, 137250, Note_on_c, 2, 69, 120
4, 137279, Note_on_c, 2, 69, 0
4, 137280, Note_on_c, 2, 68, 120
4, 137339, Note_on_c, 2, 68, 0
4, 137340, Note_on_c, 2, 74, 120
4, 137399, Note_on_c, 2, 74, 0
4, 137400, Note_on_c, 2, 73, 120
4, 137459, Note_on_c, 2, 73, 0
4, 137460, Note_on_c, 2, 73, 120
4, 137519, Note_on_c, 2, 73, 0
4, 137520, Note_on_c, 2, 71, 120
4, 137640, Note_on_c, 2, 71, 0
4, 137640, Note_on_c, 2, 76, 120
4, 137699, Note_on_c, 2, 76, 0
4, 137700, Note_on_c, 2, 74, 120
4, 137759, Note_on_c, 2, 74, 0
4, 137760, Note_on_c, 2, 73, 120
4, 137819, Note_on_c, 2, 73, 0
4, 137820, Note_on_c, 2, 74, 120
4, 137909, Note_on_c, 2, 74, 0
4, 137910, Note_on_c, 2, 76, 120
4, 137924, Note_on_c, 2, 76, 0
4, 137925, Note_on_c, 2, 78, 120
4, 137939, Note_on_c, 2, 78, 0
4, 137940, Note_on_c, 2, 76, 120
4, 137999, Note_on_c, 2, 76, 0
4, 138000, Note_on_c, 2, 74, 120
4, 138059, Note_on_c, 2, 74, 0
4, 138060, Note_on_c, 2, 73, 120
4, 138119, Note_on_c, 2, 73, 0
4, 138120, Note_on_c, 2, 71, 120
4, 138179, Note_on_c, 2, 71, 0
4, 138180, Note_on_c, 2, 73, 120
4, 138269, Note_on_c, 2, 73, 0
4, 138270, Note_on_c, 2, 74, 120
4, 138284, Note_on_c, 2, 74, 0
4, 138285, Note_on_c, 2, 76, 120
4, 138299, Note_on_c, 2, 76, 0
4, 138300, Note_on_c, 2, 74, 120
4, 138359, Note_on_c, 2, 74, 0
4, 138360, Note_on_c, 2, 64, 120
4, 138419, Note_on_c, 2, 64, 0
4, 138420, Note_on_c, 2, 64, 120
4, 138479, Note_on_c, 2, 64, 0
4, 138480, Note_on_c, 2, 64, 120
4, 138539, Note_on_c, 2, 64, 0
4, 138540, Note_on_c, 2, 64, 120
4, 138599, Note_on_c, 2, 64, 0
4, 138600, Note_on_c, 2, 66, 120
4, 138629, Note_on_c, 2, 66, 0
4, 138630, Note_on_c, 2, 68, 120
4, 138659, Note_on_c, 2, 68, 0
4, 138660, Note_on_c, 2, 69, 120
4, 138689, Note_on_c, 2, 69, 0
4, 138690, Note_on_c, 2, 71, 120
4, 138719, Note_on_c, 2, 71, 0
4, 138720, Note_on_c, 2, 73, 120
4, 138779, Note_on_c, 2, 73, 0
4, 138780, Note_on_c, 2, 74, 120
4, 138839, Note_on_c, 2, 74, 0
4, 138840, Note_on_c, 2, 71, 120
4, 138849, Note_on_c, 2, 71, 0
4, 138850, Note_on_c, 2, 73, 120
4, 138859, Note_on_c, 2, 73, 0
4, 138860, Note_on_c, 2, 71, 120
4, 138869, Note_on_c, 2, 71, 0
4, 138870, Note_on_c, 2, 73, 120
4, 138879, Note_on_c, 2, 73, 0
4, 138880, Note_on_c, 2, 71, 120
4, 138889, Note_on_c, 2, 71, 0
4, 138900, Note_on_c, 2, 69, 120
4, 139080, Note_on_c, 2, 69, 0
4, 139080, Note_on_c, 2, 76, 120
4, 139139, Note_on_c, 2, 76, 0
4, 139140, Note_on_c, 2, 74, 120
4, 139199, Note_on_c, 2, 74, 0
4, 139200, Note_on_c, 2, 73, 120
4, 139259, Note_on_c, 2, 73, 0
4, 139260, Note_on_c, 2, 74, 120
4, 139349, Note_on_c, 2, 74, 0
4, 139350, Note_on_c, 2, 76, 120
4, 139364, Note_on_c, 2, 76, 0
4, 139365, Note_on_c, 2, 78, 120
4, 139379, Note_on_c, 2, 78, 0
4, 139380, Note_on_c, 2, 76, 120
4, 139439, Note_on_c, 2, 76, 0
4, 139440, Note_on_c, 2, 74, 120
4, 139499, Note_on_c, 2, 74, 0
4, 139500, Note_on_c, 2, 73, 120
4, 139559, Note_on_c, 2, 73, 0
4, 139560, Note_on_c, 2, 71, 120
4, 139619, Note_on_c, 2, 71, 0
4, 139620, Note_on_c, 2, 73, 120
4, 139709, Note_on_c, 2, 73, 0
4, 139710, Note_on_c, 2, 74, 120
4, 139724, Note_on_c, 2, 74, 0
4, 139725, Note_on_c, 2, 76, 120
4, 139739, Note_on_c, 2, 76, 0
4, 139740, Note_on_c, 2, 74, 120
4, 139799, Note_on_c, 2, 74, 0
4, 139800, Note_on_c, 2, 64, 120
4, 139859, Note_on_c, 2, 64, 0
4, 139860, Note_on_c, 2, 64, 120
4, 139919, Note_on_c, 2, 64, 0
4, 139920, Note_on_c, 2, 64, 120
4, 139979, Note_on_c, 2, 64, 0
4, 139980, Note_on_c, 2, 64, 120
4, 140039, Note_on_c, 2, 64, 0
4, 140040, Note_on_c, 2, 66, 120
4, 140069, Note_on_c, 2, 66, 0
4, 140070, Note_on_c, 2, 68, 120
4, 140099, Note_on_c, 2, 68, 0
4, 140100, Note_on_c, 2, 69, 120
4, 140129, Note_on_c, 2, 69, 0
4, 140130, Note_on_c, 2, 71, 120
4, 140159, Note_on_c, 2, 71, 0
4, 140160, Note_on_c, 2, 73, 120
4, 140219, Note_on_c, 2, 73, 0
4, 140220, Note_on_c, 2, 74, 120
4, 140279, Note_on_c, 2, 74, 0
4, 140280, Note_on_c, 2, 71, 120
4, 140289, Note_on_c, 2, 71, 0
4, 140290, Note_on_c, 2, 73, 120
4, 140299, Note_on_c, 2, 73, 0
4, 140300, Note_on_c, 2, 71, 120
4, 140309, Note_on_c, 2, 71, 0
4, 140310, Note_on_c, 2, 73, 120
4, 140319, Note_on_c, 2, 73, 0
4, 140320, Note_on_c, 2, 71, 120
4, 140329, Note_on_c, 2, 71, 0
4, 140340, Note_on_c, 2, 69, 120
4, 140520, Note_on_c, 2, 69, 0
4, 140520, Note_on_c, 2, 64, 120
4, 141900, Note_on_c, 2, 64, 0
4, 141960, Note_on_c, 2, 64, 120
4, 142020, Note_on_c, 2, 64, 0
4, 142020, Note_on_c, 2, 69, 120
4, 142080, Note_on_c, 2, 69, 0
4, 142080, Note_on_c, 2, 71, 120
4, 142140, Note_on_c, 2, 71, 0
4, 142140, Note_on_c, 2, 73, 120
4, 142260, Note_on_c, 2, 73, 0
4, 142260, Note_on_c, 2, 71, 120
4, 142320, Note_on_c, 2, 71, 0
4, 142320, Note_on_c, 2, 64, 120
4, 142380, Note_on_c, 2, 64, 0
4, 142380, Note_on_c, 2, 71, 120
4, 142440, Note_on_c, 2, 71, 0
4, 142440, Note_on_c, 2, 73, 120
4, 142500, Note_on_c, 2, 73, 0
4, 142500, Note_on_c, 2, 74, 120
4, 142620, Note_on_c, 2, 74, 0
4, 142620, Note_on_c, 2, 73, 120
4, 142680, Note_on_c, 2, 73, 0
4, 142680, Note_on_c, 2, 76, 120
4, 142740, Note_on_c, 2, 76, 0
4, 142740, Note_on_c, 2, 76, 120
4, 142800, Note_on_c, 2, 76, 0
4, 142800, Note_on_c, 2, 76, 120
4, 142860, Note_on_c, 2, 76, 0
4, 142860, Note_on_c, 2, 76, 120
4, 142920, Note_on_c, 2, 76, 0
4, 142920, Note_on_c, 2, 74, 120
4, 142950, Note_on_c, 2, 74, 0
4, 142950, Note_on_c, 2, 73, 120
4, 142980, Note_on_c, 2, 73, 0
4, 142980, Note_on_c, 2, 71, 120
4, 143010, Note_on_c, 2, 71, 0
4, 143010, Note_on_c, 2, 69, 120
4, 143040, Note_on_c, 2, 69, 0
4, 143040, Note_on_c, 2, 68, 120
4, 143100, Note_on_c, 2, 68, 0
4, 143100, Note_on_c, 2, 74, 120
4, 143160, Note_on_c, 2, 74, 0
4, 143160, Note_on_c, 2, 73, 120
4, 143220, Note_on_c, 2, 73, 0
4, 143220, Note_on_c, 2, 73, 120
4, 143250, Note_on_c, 2, 73, 0
4, 143250, Note_on_c, 2, 71, 120
4, 143340, Note_on_c, 2, 71, 0
4, 143400, Note_on_c, 2, 57, 120
4, 144540, Note_on_c, 2, 57, 0
4, 144540, Note_on_c, 2, 59, 120
4, 144599, Note_on_c, 2, 59, 0
4, 144600, Note_on_c, 2, 56, 120
4, 144659, Note_on_c, 2, 56, 0
4, 144660, Note_on_c, 2, 57, 120
4, 144779, Note_on_c, 2, 57, 0
4, 144840, Note_on_c, 2, 76, 120
4, 144899, Note_on_c, 2, 76, 0
4, 144900, Note_on_c, 2, 74, 120
4, 144959, Note_on_c, 2, 74, 0
4, 144960, Note_on_c, 2, 73, 120
4, 145019, Note_on_c, 2, 73, 0
4, 145020, Note_on_c, 2, 74, 120
4, 145109, Note_on_c, 2, 74, 0
4, 145110, Note_on_c, 2, 76, 120
4, 145124, Note_on_c, 2, 76, 0
4, 145125, Note_on_c, 2, 78, 120
4, 145139, Note_on_c, 2, 78, 0
4, 145140, Note_on_c, 2, 76, 120
4, 145199, Note_on_c, 2, 76, 0
4, 145200, Note_on_c, 2, 74, 120
4, 145259, Note_on_c, 2, 74, 0
4, 145260, Note_on_c, 2, 73, 120
4, 145319, Note_on_c, 2, 73, 0
4, 145320, Note_on_c, 2, 71, 120
4, 145379, Note_on_c, 2, 71, 0
4, 145380, Note_on_c, 2, 73, 120
4, 145469, Note_on_c, 2, 73, 0
4, 145470, Note_on_c, 2, 74, 120
4, 145484, Note_on_c, 2, 74, 0
4, 145485, Note_on_c, 2, 76, 120
4, 145499, Note_on_c, 2, 76, 0
4, 145500, Note_on_c, 2, 74, 120
4, 145559, Note_on_c, 2, 74, 0
4, 145560, Note_on_c, 2, 64, 120
4, 145619, Note_on_c, 2, 64, 0
4, 145620, Note_on_c, 2, 64, 120
4, 145679, Note_on_c, 2, 64, 0
4, 145680, Note_on_c, 2, 64, 120
4, 145739, Note_on_c, 2, 64, 0
4, 145740, Note_on_c, 2, 64, 120
4, 145799, Note_on_c, 2, 64, 0
4, 145800, Note_on_c, 2, 66, 120
4, 145829, Note_on_c, 2, 66, 0
4, 145830, Note_on_c, 2, 68, 120
4, 145859, Note_on_c, 2, 68, 0
4, 145860, Note_on_c, 2, 69, 120
4, 145889, Note_on_c, 2, 69, 0
4, 145890, Note_on_c, 2, 71, 120
4, 145919, Note_on_c, 2, 71, 0
4, 145920, Note_on_c, 2, 73, 120
4, 145979, Note_on_c, 2, 73, 0
4, 145980, Note_on_c, 2, 74, 120
4, 146039, Note_on_c, 2, 74, 0
4, 146040, Note_on_c, 2, 71, 120
4, 146099, Note_on_c, 2, 71, 0
4, 146100, Note_on_c, 2, 69, 120
4, 146279, Note_on_c, 2, 69, 0
4, 146340, Note_on_c, 2, 69, 120
4, 146369, Note_on_c, 2, 69, 0
4, 146400, Note_on_c, 2, 71, 120
4, 146429, Note_on_c, 2, 71, 0
4, 146520, Note_on_c, 2, 73, 120
4, 146549, Note_on_c, 2, 73, 0
4, 146580, Note_on_c, 2, 71, 120
4, 146609, Note_on_c, 2, 71, 0
4, 146700, Note_on_c, 2, 71, 120
4, 146729, Note_on_c, 2, 71, 0
4, 146760, Note_on_c, 2, 73, 120
4, 146789, Note_on_c, 2, 73, 0
4, 146880, Note_on_c, 2, 74, 120
4, 146910, Note_on_c, 2, 74, 0
4, 146940, Note_on_c, 2, 73, 120
4, 146970, Note_on_c, 2, 73, 0
4, 147060, Note_on_c, 2, 76, 120
4, 147090, Note_on_c, 2, 76, 0
4, 147120, Note_on_c, 2, 76, 120
4, 147150, Note_on_c, 2, 76, 0
4, 147240, Note_on_c, 2, 74, 120
4, 147269, Note_on_c, 2, 74, 0
4, 147270, Note_on_c, 2, 73, 120
4, 147299, Note_on_c, 2, 73, 0
4, 147300, Note_on_c, 2, 71, 120
4, 147329, Note_on_c, 2, 71, 0
4, 147330, Note_on_c, 2, 69, 120
4, 147359, Note_on_c, 2, 69, 0
4, 147420, Note_on_c, 2, 74, 120
4, 147449, Note_on_c, 2, 74, 0
4, 147480, Note_on_c, 2, 73, 120
4, 147509, Note_on_c, 2, 73, 0
4, 147540, Note_on_c, 2, 71, 120
4, 147660, Note_on_c, 2, 71, 0
4, 147720, Note_on_c, 2, 64, 120
4, 147780, Note_on_c, 2, 64, 0
4, 147780, Note_on_c, 2, 69, 120
4, 147840, Note_on_c, 2, 69, 0
4, 147840, Note_on_c, 2, 71, 120
4, 147900, Note_on_c, 2, 71, 0
4, 147900, Note_on_c, 2, 71, 120
4, 147930, Note_on_c, 2, 71, 0
4, 147930, Note_on_c, 2, 73, 120
4, 148020, Note_on_c, 2, 73, 0
4, 148020, Note_on_c, 2, 71, 120
4, 148080, Note_on_c, 2, 71, 0
4, 148080, Note_on_c, 2, 64, 120
4, 148140, Note_on_c, 2, 64, 0
4, 148140, Note_on_c, 2, 71, 120
4, 148200, Note_on_c, 2, 71, 0
4, 148200, Note_on_c, 2, 73, 120
4, 148260, Note_on_c, 2, 73, 0
4, 148260, Note_on_c, 2, 73, 120
4, 148290, Note_on_c, 2, 73, 0
4, 148290, Note_on_c, 2, 74, 120
4, 148380, Note_on_c, 2, 74, 0
4, 148380, Note_on_c, 2, 73, 120
4, 148440, Note_on_c, 2, 73, 0
4, 148440, Note_on_c, 2, 76, 120
4, 148499, Note_on_c, 2, 76, 0
4, 148500, Note_on_c, 2, 76, 120
4, 148559, Note_on_c, 2, 76, 0
4, 148560, Note_on_c, 2, 76, 120
4, 148619, Note_on_c, 2, 76, 0
4, 148620, Note_on_c, 2, 76, 120
4, 148679, Note_on_c, 2, 76, 0
4, 148680, Note_on_c, 2, 74, 120
4, 148709, Note_on_c, 2, 74, 0
4, 148710, Note_on_c, 2, 73, 120
4, 148739, Note_on_c, 2, 73, 0
4, 148740, Note_on_c, 2, 71, 120
4, 148769, Note_on_c, 2, 71, 0
4, 148770, Note_on_c, 2, 69, 120
4, 148799, Note_on_c, 2, 69, 0
4, 148800, Note_on_c, 2, 68, 120
4, 148859, Note_on_c, 2, 68, 0
4, 148860, Note_on_c, 2, 74, 120
4, 148919, Note_on_c, 2, 74, 0
4, 148920, Note_on_c, 2, 73, 120
4, 148979, Note_on_c, 2, 73, 0
4, 148980, Note_on_c, 2, 71, 120
4, 149100, Note_on_c, 2, 71, 0
4, 149220, Note_on_c, 2, 74, 120
4, 149250, Note_on_c, 2, 74, 0
4, 149280, Note_on_c, 2, 73, 120
4, 149310, Note_on_c, 2, 73, 0
4, 149400, Note_on_c, 2, 78, 120
4, 149430, Note_on_c, 2, 78, 0
4, 149460, Note_on_c, 2, 76, 120
4, 149490, Note_on_c, 2, 76, 0
4, 149580, Note_on_c, 2, 73, 120
4, 149610, Note_on_c, 2, 73, 0
4, 149640, Note_on_c, 2, 71, 120
4, 149670, Note_on_c, 2, 71, 0
4, 149760, Note_on_c, 2, 76, 120
4, 149790, Note_on_c, 2, 76, 0
4, 149820, Note_on_c, 2, 74, 120
4, 149850, Note_on_c, 2, 74, 0
4, 149940, Note_on_c, 2, 64, 120
4, 149970, Note_on_c, 2, 64, 0
4, 150000, Note_on_c, 2, 64, 120
4, 150030, Note_on_c, 2, 64, 0
4, 150120, Note_on_c, 2, 66, 120
4, 150149, Note_on_c, 2, 66, 0
4, 150150, Note_on_c, 2, 68, 120
4, 150179, Note_on_c, 2, 68, 0
4, 150180, Note_on_c, 2, 69, 120
4, 150209, Note_on_c, 2, 69, 0
4, 150210, Note_on_c, 2, 71, 120
4, 150239, Note_on_c, 2, 71, 0
4, 150300, Note_on_c, 2, 74, 120
4, 150329, Note_on_c, 2, 74, 0
4, 150360, Note_on_c, 2, 71, 120
4, 150389, Note_on_c, 2, 71, 0
4, 150420, Note_on_c, 2, 69, 120
4, 150539, Note_on_c, 2, 69, 0
4, 150600, Note_on_c, 2, 76, 120
4, 150659, Note_on_c, 2, 76, 0
4, 150660, Note_on_c, 2, 74, 120
4, 150719, Note_on_c, 2, 74, 0
4, 150720, Note_on_c, 2, 73, 120
4, 150779, Note_on_c, 2, 73, 0
4, 150780, Note_on_c, 2, 74, 120
4, 150869, Note_on_c, 2, 74, 0
4, 150870, Note_on_c, 2, 76, 120
4, 150884, Note_on_c, 2, 76, 0
4, 150885, Note_on_c, 2, 78, 120
4, 150899, Note_on_c, 2, 78, 0
4, 150900, Note_on_c, 2, 76, 120
4, 150959, Note_on_c, 2, 76, 0
4, 150960, Note_on_c, 2, 74, 120
4, 151019, Note_on_c, 2, 74, 0
4, 151020, Note_on_c, 2, 73, 120
4, 151079, Note_on_c, 2, 73, 0
4, 151080, Note_on_c, 2, 71, 120
4, 151139, Note_on_c, 2, 71, 0
4, 151140, Note_on_c, 2, 73, 120
4, 151229, Note_on_c, 2, 73, 0
4, 151230, Note_on_c, 2, 74, 120
4, 151244, Note_on_c, 2, 74, 0
4, 151245, Note_on_c, 2, 76, 120
4, 151259, Note_on_c, 2, 76, 0
4, 151260, Note_on_c, 2, 74, 120
4, 151319, Note_on_c, 2, 74, 0
4, 151320, Note_on_c, 2, 64, 120
4, 151379, Note_on_c, 2, 64, 0
4, 151380, Note_on_c, 2, 64, 120
4, 151439, Note_on_c, 2, 64, 0
4, 151440, Note_on_c, 2, 64, 120
4, 151499, Note_on_c, 2, 64, 0
4, 151500, Note_on_c, 2, 64, 120
4, 151559, Note_on_c, 2, 64, 0
4, 151560, Note_on_c, 2, 66, 120
4, 151589, Note_on_c, 2, 66, 0
4, 151590, Note_on_c, 2, 68, 120
4, 151619, Note_on_c, 2, 68, 0
4, 151620, Note_on_c, 2, 69, 120
4, 151649, Note_on_c, 2, 69, 0
4, 151650, Note_on_c, 2, 71, 120
4, 151679, Note_on_c, 2, 71, 0
4, 151680, Note_on_c, 2, 73, 120
4, 151739, Note_on_c, 2, 73, 0
4, 151740, Note_on_c, 2, 74, 120
4, 151799, Note_on_c, 2, 74, 0
4, 151800, Note_on_c, 2, 71, 120
4, 151859, Note_on_c, 2, 71, 0
4, 151860, Note_on_c, 2, 69, 120
4, 151979, Note_on_c, 2, 69, 0
4, 152430, Note_on_c, 2, 81, 120
4, 152459, Note_on_c, 2, 81, 0
4, 152460, Note_on_c, 2, 80, 120
4, 152489, Note_on_c, 2, 80, 0
4, 152490, Note_on_c, 2, 78, 120
4, 152519, Note_on_c, 2, 78, 0
4, 152520, Note_on_c, 2, 77, 120
4, 152549, Note_on_c, 2, 77, 0
4, 152550, Note_on_c, 2, 80, 120
4, 152579, Note_on_c, 2, 80, 0
4, 152580, Note_on_c, 2, 78, 120
4, 152609, Note_on_c, 2, 78, 0
4, 152610, Note_on_c, 2, 80, 120
4, 152639, Note_on_c, 2, 80, 0
4, 152640, Note_on_c, 2, 81, 120
4, 152699, Note_on_c, 2, 81, 0
4, 153150, Note_on_c, 2, 80, 120
4, 153179, Note_on_c, 2, 80, 0
4, 153180, Note_on_c, 2, 78, 120
4, 153209, Note_on_c, 2, 78, 0
4, 153210, Note_on_c, 2, 76, 120
4, 153239, Note_on_c, 2, 76, 0
4, 153240, Note_on_c, 2, 75, 120
4, 153269, Note_on_c, 2, 75, 0
4, 153270, Note_on_c, 2, 78, 120
4, 153299, Note_on_c, 2, 78, 0
4, 153300, Note_on_c, 2, 76, 120
4, 153329, Note_on_c, 2, 76, 0
4, 153330, Note_on_c, 2, 78, 120
4, 153359, Note_on_c, 2, 78, 0
4, 153360, Note_on_c, 2, 80, 120
4, 153419, Note_on_c, 2, 80, 0
4, 154200, Note_on_c, 2, 68, 120
4, 154259, Note_on_c, 2, 68, 0
4, 154260, Note_on_c, 2, 73, 120
4, 154319, Note_on_c, 2, 73, 0
4, 154320, Note_on_c, 2, 75, 120
4, 154379, Note_on_c, 2, 75, 0
4, 154380, Note_on_c, 2, 76, 120
4, 154499, Note_on_c, 2, 76, 0
4, 154500, Note_on_c, 2, 75, 120
4, 154559, Note_on_c, 2, 75, 0
4, 154560, Note_on_c, 2, 68, 120
4, 154619, Note_on_c, 2, 68, 0
4, 154620, Note_on_c, 2, 75, 120
4, 154679, Note_on_c, 2, 75, 0
4, 154680, Note_on_c, 2, 76, 120
4, 154739, Note_on_c, 2, 76, 0
4, 154740, Note_on_c, 2, 78, 120
4, 154859, Note_on_c, 2, 78, 0
4, 154860, Note_on_c, 2, 76, 120
4, 154919, Note_on_c, 2, 76, 0
4, 155640, Note_on_c, 2, 66, 120
4, 155699, Note_on_c, 2, 66, 0
4, 155700, Note_on_c, 2, 64, 120
4, 155759, Note_on_c, 2, 64, 0
4, 155820, Note_on_c, 2, 68, 120
4, 155879, Note_on_c, 2, 68, 0
4, 155880, Note_on_c, 2, 66, 120
4, 155939, Note_on_c, 2, 66, 0
4, 156000, Note_on_c, 2, 73, 120
4, 156059, Note_on_c, 2, 73, 0
4, 156060, Note_on_c, 2, 72, 120
4, 156119, Note_on_c, 2, 72, 0
4, 156180, Note_on_c, 2, 75, 120
4, 156239, Note_on_c, 2, 75, 0
4, 156240, Note_on_c, 2, 73, 120
4, 156299, Note_on_c, 2, 73, 0
4, 156360, Note_on_c, 2, 68, 120
4, 156419, Note_on_c, 2, 68, 0
4, 156420, Note_on_c, 2, 68, 120
4, 156479, Note_on_c, 2, 68, 0
4, 156480, Note_on_c, 2, 68, 120
4, 156539, Note_on_c, 2, 68, 0
4, 156540, Note_on_c, 2, 68, 120
4, 156599, Note_on_c, 2, 68, 0
4, 156600, Note_on_c, 2, 70, 120
4, 156629, Note_on_c, 2, 70, 0
4, 156630, Note_on_c, 2, 72, 120
4, 156659, Note_on_c, 2, 72, 0
4, 156660, Note_on_c, 2, 73, 120
4, 156689, Note_on_c, 2, 73, 0
4, 156690, Note_on_c, 2, 75, 120
4, 156719, Note_on_c, 2, 75, 0
4, 156720, Note_on_c, 2, 76, 120
4, 156779, Note_on_c, 2, 76, 0
4, 156780, Note_on_c, 2, 78, 120
4, 156839, Note_on_c, 2, 78, 0
4, 156840, Note_on_c, 2, 75, 120
4, 156899, Note_on_c, 2, 75, 0
4, 156900, Note_on_c, 2, 73, 120
4, 157019, Note_on_c, 2, 73, 0
4, 157500, Note_on_c, 2, 81, 120
4, 157560, Note_on_c, 2, 81, 0
4, 157560, Note_on_c, 2, 80, 120
4, 157620, Note_on_c, 2, 80, 0
4, 157620, Note_on_c, 2, 81, 120
4, 157740, Note_on_c, 2, 81, 0
4, 158220, Note_on_c, 2, 78, 120
4, 158280, Note_on_c, 2, 78, 0
4, 158280, Note_on_c, 2, 77, 120
4, 158340, Note_on_c, 2, 77, 0
4, 158340, Note_on_c, 2, 78, 120
4, 158460, Note_on_c, 2, 78, 0
4, 159240, Note_on_c, 2, 73, 120
4, 159300, Note_on_c, 2, 73, 0
4, 159300, Note_on_c, 2, 78, 120
4, 159360, Note_on_c, 2, 78, 0
4, 159360, Note_on_c, 2, 80, 120
4, 159420, Note_on_c, 2, 80, 0
4, 159420, Note_on_c, 2, 81, 120
4, 159540, Note_on_c, 2, 81, 0
4, 159540, Note_on_c, 2, 80, 120
4, 159600, Note_on_c, 2, 80, 0
4, 159600, Note_on_c, 2, 73, 120
4, 159660, Note_on_c, 2, 73, 0
4, 159660, Note_on_c, 2, 80, 120
4, 159720, Note_on_c, 2, 80, 0
4, 159720, Note_on_c, 2, 81, 120
4, 159780, Note_on_c, 2, 81, 0
4, 159780, Note_on_c, 2, 83, 120
4, 159900, Note_on_c, 2, 83, 0
4, 159900, Note_on_c, 2, 81, 120
4, 159960, Note_on_c, 2, 81, 0
4, 160380, Note_on_c, 2, 78, 120
4, 160440, Note_on_c, 2, 78, 0
4, 160440, Note_on_c, 2, 77, 120
4, 160500, Note_on_c, 2, 77, 0
4, 160500, Note_on_c, 2, 78, 120
4, 160680, Note_on_c, 2, 78, 0
4, 160680, Note_on_c, 2, 64, 120
4, 160739, Note_on_c, 2, 64, 0
4, 160740, Note_on_c, 2, 69, 120
4, 160799, Note_on_c, 2, 69, 0
4, 160800, Note_on_c, 2, 71, 120
4, 160859, Note_on_c, 2, 71, 0
4, 160860, Note_on_c, 2, 73, 120
4, 160979, Note_on_c, 2, 73, 0
4, 160980, Note_on_c, 2, 71, 120
4, 161039, Note_on_c, 2, 71, 0
4, 161040, Note_on_c, 2, 64, 120
4, 161099, Note_on_c, 2, 64, 0
4, 161100, Note_on_c, 2, 71, 120
4, 161159, Note_on_c, 2, 71, 0
4, 161160, Note_on_c, 2, 73, 120
4, 161219, Note_on_c, 2, 73, 0
4, 161220, Note_on_c, 2, 74, 120
4, 161339, Note_on_c, 2, 74, 0
4, 161340, Note_on_c, 2, 73, 120
4, 161399, Note_on_c, 2, 73, 0
4, 161400, Note_on_c, 2, 76, 120
4, 161459, Note_on_c, 2, 76, 0
4, 161460, Note_on_c, 2, 76, 120
4, 161519, Note_on_c, 2, 76, 0
4, 161520, Note_on_c, 2, 76, 120
4, 161579, Note_on_c, 2, 76, 0
4, 161580, Note_on_c, 2, 76, 120
4, 161639, Note_on_c, 2, 76, 0
4, 161640, Note_on_c, 2, 74, 120
4, 161669, Note_on_c, 2, 74, 0
4, 161670, Note_on_c, 2, 73, 120
4, 161699, Note_on_c, 2, 73, 0
4, 161700, Note_on_c, 2, 71, 120
4, 161729, Note_on_c, 2, 71, 0
4, 161730, Note_on_c, 2, 69, 120
4, 161759, Note_on_c, 2, 69, 0
4, 161760, Note_on_c, 2, 68, 120
4, 161819, Note_on_c, 2, 68, 0
4, 161820, Note_on_c, 2, 74, 120
4, 161879, Note_on_c, 2, 74, 0
4, 161880, Note_on_c, 2, 73, 120
4, 161939, Note_on_c, 2, 73, 0
4, 161940, Note_on_c, 2, 73, 120
4, 161999, Note_on_c, 2, 73, 0
4, 162000, Note_on_c, 2, 71, 120
4, 162120, Note_on_c, 2, 71, 0
4, 162120, Note_on_c, 2, 64, 120
4, 162179, Note_on_c, 2, 64, 0
4, 162180, Note_on_c, 2, 69, 120
4, 162239, Note_on_c, 2, 69, 0
4, 162240, Note_on_c, 2, 71, 120
4, 162299, Note_on_c, 2, 71, 0
4, 162300, Note_on_c, 2, 73, 120
4, 162419, Note_on_c, 2, 73, 0
4, 162420, Note_on_c, 2, 71, 120
4, 162479, Note_on_c, 2, 71, 0
4, 162480, Note_on_c, 2, 64, 120
4, 162539, Note_on_c, 2, 64, 0
4, 162540, Note_on_c, 2, 71, 120
4, 162599, Note_on_c, 2, 71, 0
4, 162600, Note_on_c, 2, 73, 120
4, 162659, Note_on_c, 2, 73, 0
4, 162660, Note_on_c, 2, 74, 120
4, 162779, Note_on_c, 2, 74, 0
4, 162780, Note_on_c, 2, 73, 120
4, 162839, Note_on_c, 2, 73, 0
4, 162840, Note_on_c, 2, 76, 120
4, 162899, Note_on_c, 2, 76, 0
4, 162900, Note_on_c, 2, 76, 120
4, 162959, Note_on_c, 2, 76, 0
4, 162960, Note_on_c, 2, 76, 120
4, 163019, Note_on_c, 2, 76, 0
4, 163020, Note_on_c, 2, 76, 120
4, 163079, Note_on_c, 2, 76, 0
4, 163080, Note_on_c, 2, 74, 120
4, 163109, Note_on_c, 2, 74, 0
4, 163110, Note_on_c, 2, 73, 120
4, 163139, Note_on_c, 2, 73, 0
4, 163140, Note_on_c, 2, 71, 120
4, 163169, Note_on_c, 2, 71, 0
4, 163170, Note_on_c, 2, 69, 120
4, 163199, Note_on_c, 2, 69, 0
4, 163200, Note_on_c, 2, 68, 120
4, 163259, Note_on_c, 2, 68, 0
4, 163260, Note_on_c, 2, 74, 120
4, 163319, Note_on_c, 2, 74, 0
4, 163320, Note_on_c, 2, 73, 120
4, 163379, Note_on_c, 2, 73, 0
4, 163380, Note_on_c, 2, 73, 120
4, 163439, Note_on_c, 2, 73, 0
4, 163440, Note_on_c, 2, 71, 120
4, 163560, Note_on_c, 2, 71, 0
4, 163560, Note_on_c, 2, 76, 120
4, 163619, Note_on_c, 2, 76, 0
4, 163620, Note_on_c, 2, 74, 120
4, 163679, Note_on_c, 2, 74, 0
4, 163680, Note_on_c, 2, 73, 120
4, 163739, Note_on_c, 2, 73, 0
4, 163740, Note_on_c, 2, 74, 120
4, 163829, Note_on_c, 2, 74, 0
4, 163830, Note_on_c, 2, 76, 120
4, 163844, Note_on_c, 2, 76, 0
4, 163845, Note_on_c, 2, 78, 120
4, 163859, Note_on_c, 2, 78, 0
4, 163860, Note_on_c, 2, 76, 120
4, 163919, Note_on_c, 2, 76, 0
4, 163920, Note_on_c, 2, 74, 120
4, 163979, Note_on_c, 2, 74, 0
4, 163980, Note_on_c, 2, 73, 120
4, 164039, Note_on_c, 2, 73, 0
4, 164040, Note_on_c, 2, 71, 120
4, 164099, Note_on_c, 2, 71, 0
4, 164100, Note_on_c, 2, 73, 120
4, 164189, Note_on_c, 2, 73, 0
4, 164190, Note_on_c, 2, 74, 120
4, 164204, Note_on_c, 2, 74, 0
4, 164205, Note_on_c, 2, 76, 120
4, 164219, Note_on_c, 2, 76, 0
4, 164220, Note_on_c, 2, 74, 120
4, 164279, Note_on_c, 2, 74, 0
4, 164280, Note_on_c, 2, 64, 120
4, 164339, Note_on_c, 2, 64, 0
4, 164340, Note_on_c, 2, 64, 120
4, 164399, Note_on_c, 2, 64, 0
4, 164400, Note_on_c, 2, 64, 120
4, 164459, Note_on_c, 2, 64, 0
4, 164460, Note_on_c, 2, 64, 120
4, 164519, Note_on_c, 2, 64, 0
4, 164520, Note_on_c, 2, 66, 120
4, 164549, Note_on_c, 2, 66, 0
4, 164550, Note_on_c, 2, 68, 120
4, 164579, Note_on_c, 2, 68, 0
4, 164580, Note_on_c, 2, 69, 120
4, 164609, Note_on_c, 2, 69, 0
4, 164610, Note_on_c, 2, 71, 120
4, 164639, Note_on_c, 2, 71, 0
4, 164640, Note_on_c, 2, 73, 120
4, 164699, Note_on_c, 2, 73, 0
4, 164700, Note_on_c, 2, 74, 120
4, 164759, Note_on_c, 2, 74, 0
4, 164760, Note_on_c, 2, 71, 120
4, 164769, Note_on_c, 2, 71, 0
4, 164770, Note_on_c, 2, 73, 120
4, 164779, Note_on_c, 2, 73, 0
4, 164780, Note_on_c, 2, 71, 120
4, 164789, Note_on_c, 2, 71, 0
4, 164790, Note_on_c, 2, 73, 120
4, 164799, Note_on_c, 2, 73, 0
4, 164800, Note_on_c, 2, 71, 120
4, 164809, Note_on_c, 2, 71, 0
4, 164820, Note_on_c, 2, 69, 120
4, 165000, Note_on_c, 2, 69, 0
4, 165000, Note_on_c, 2, 76, 120
4, 165059, Note_on_c, 2, 76, 0
4, 165060, Note_on_c, 2, 74, 120
4, 165119, Note_on_c, 2, 74, 0
4, 165120, Note_on_c, 2, 73, 120
4, 165179, Note_on_c, 2, 73, 0
4, 165180, Note_on_c, 2, 74, 120
4, 165269, Note_on_c, 2, 74, 0
4, 165270, Note_on_c, 2, 76, 120
4, 165284, Note_on_c, 2, 76, 0
4, 165285, Note_on_c, 2, 78, 120
4, 165299, Note_on_c, 2, 78, 0
4, 165300, Note_on_c, 2, 76, 120
4, 165359, Note_on_c, 2, 76, 0
4, 165360, Note_on_c, 2, 74, 120
4, 165419, Note_on_c, 2, 74, 0
4, 165420, Note_on_c, 2, 73, 120
4, 165479, Note_on_c, 2, 73, 0
4, 165480, Note_on_c, 2, 71, 120
4, 165539, Note_on_c, 2, 71, 0
4, 165540, Note_on_c, 2, 73, 120
4, 165629, Note_on_c, 2, 73, 0
4, 165630, Note_on_c, 2, 74, 120
4, 165644, Note_on_c, 2, 74, 0
4, 165645, Note_on_c, 2, 76, 120
4, 165659, Note_on_c, 2, 76, 0
4, 165660, Note_on_c, 2, 74, 120
4, 165719, Note_on_c, 2, 74, 0
4, 165720, Note_on_c, 2, 64, 120
4, 165779, Note_on_c, 2, 64, 0
4, 165780, Note_on_c, 2, 64, 120
4, 165839, Note_on_c, 2, 64, 0
4, 165840, Note_on_c, 2, 64, 120
4, 165899, Note_on_c, 2, 64, 0
4, 165900, Note_on_c, 2, 64, 120
4, 165959, Note_on_c, 2, 64, 0
4, 165960, Note_on_c, 2, 66, 120
4, 165989, Note_on_c, 2, 66, 0
4, 165990, Note_on_c, 2, 68, 120
4, 166019, Note_on_c, 2, 68, 0
4, 166020, Note_on_c, 2, 69, 120
4, 166049, Note_on_c, 2, 69, 0
4, 166050, Note_on_c, 2, 71, 120
4, 166079, Note_on_c, 2, 71, 0
4, 166080, Note_on_c, 2, 73, 120
4, 166139, Note_on_c, 2, 73, 0
4, 166140, Note_on_c, 2, 74, 120
4, 166199, Note_on_c, 2, 74, 0
4, 166200, Note_on_c, 2, 71, 120
4, 166209, Note_on_c, 2, 71, 0
4, 166210, Note_on_c, 2, 73, 120
4, 166219, Note_on_c, 2, 73, 0
4, 166220, Note_on_c, 2, 71, 120
4, 166229, Note_on_c, 2, 71, 0
4, 166230, Note_on_c, 2, 73, 120
4, 166239, Note_on_c, 2, 73, 0
4, 166240, Note_on_c, 2, 71, 120
4, 166249, Note_on_c, 2, 71, 0
4, 166260, Note_on_c, 2, 69, 120
4, 166440, Note_on_c, 2, 69, 0
4, 166440, Note_on_c, 2, 64, 120
4, 167820, Note_on_c, 2, 64, 0
4, 167880, Note_on_c, 2, 64, 120
4, 167940, Note_on_c, 2, 64, 0
4, 167940, Note_on_c, 2, 69, 120
4, 168000, Note_on_c, 2, 69, 0
4, 168000, Note_on_c, 2, 71, 120
4, 168060, Note_on_c, 2, 71, 0
4, 168060, Note_on_c, 2, 73, 120
4, 168180, Note_on_c, 2, 73, 0
4, 168180, Note_on_c, 2, 71, 120
4, 168240, Note_on_c, 2, 71, 0
4, 168240, Note_on_c, 2, 64, 120
4, 168300, Note_on_c, 2, 64, 0
4, 168300, Note_on_c, 2, 71, 120
4, 168360, Note_on_c, 2, 71, 0
4, 168360, Note_on_c, 2, 73, 120
4, 168420, Note_on_c, 2, 73, 0
4, 168420, Note_on_c, 2, 74, 120
4, 168540, Note_on_c, 2, 74, 0
4, 168540, Note_on_c, 2, 73, 120
4, 168600, Note_on_c, 2, 73, 0
4, 168600, Note_on_c, 2, 76, 120
4, 168660, Note_on_c, 2, 76, 0
4, 168660, Note_on_c, 2, 76, 120
4, 168720, Note_on_c, 2, 76, 0
4, 168720, Note_on_c, 2, 76, 120
4, 168780, Note_on_c, 2, 76, 0
4, 168780, Note_on_c, 2, 76, 120
4, 168840, Note_on_c, 2, 76, 0
4, 168840, Note_on_c, 2, 74, 120
4, 168870, Note_on_c, 2, 74, 0
4, 168870, Note_on_c, 2, 73, 120
4, 168900, Note_on_c, 2, 73, 0
4, 168900, Note_on_c, 2, 71, 120
4, 168930, Note_on_c, 2, 71, 0
4, 168930, Note_on_c, 2, 69, 120
4, 168960, Note_on_c, 2, 69, 0
4, 168960, Note_on_c, 2, 68, 120
4, 169020, Note_on_c, 2, 68, 0
4, 169020, Note_on_c, 2, 74, 120
4, 169080, Note_on_c, 2, 74, 0
4, 169080, Note_on_c, 2, 73, 120
4, 169140, Note_on_c, 2, 73, 0
4, 169140, Note_on_c, 2, 73, 120
4, 169170, Note_on_c, 2, 73, 0
4, 169170, Note_on_c, 2, 71, 120
4, 169260, Note_on_c, 2, 71, 0
4, 169320, Note_on_c, 2, 57, 120
4, 170460, Note_on_c, 2, 57, 0
4, 170460, Note_on_c, 2, 59, 120
4, 170519, Note_on_c, 2, 59, 0
4, 170520, Note_on_c, 2, 56, 120
4, 170579, Note_on_c, 2, 56, 0
4, 170580, Note_on_c, 2, 57, 120
4, 170699, Note_on_c, 2, 57, 0
4, 170760, Note_on_c, 2, 76, 120
4, 170819, Note_on_c, 2, 76, 0
4, 170820, Note_on_c, 2, 74, 120
4, 170879, Note_on_c, 2, 74, 0
4, 170880, Note_on_c, 2, 73, 120
4, 170939, Note_on_c, 2, 73, 0
4, 170940, Note_on_c, 2, 74, 120
4, 171029, Note_on_c, 2, 74, 0
4, 171030, Note_on_c, 2, 76, 120
4, 171044, Note_on_c, 2, 76, 0
4, 171045, Note_on_c, 2, 78, 120
4, 171059, Note_on_c, 2, 78, 0
4, 171060, Note_on_c, 2, 76, 120
4, 171119, Note_on_c, 2, 76, 0
4, 171120, Note_on_c, 2, 74, 120
4, 171179, Note_on_c, 2, 74, 0
4, 171180, Note_on_c, 2, 73, 120
4, 171239, Note_on_c, 2, 73, 0
4, 171240, Note_on_c, 2, 71, 120
4, 171299, Note_on_c, 2, 71, 0
4, 171300, Note_on_c, 2, 73, 120
4, 171389, Note_on_c, 2, 73, 0
4, 171390, Note_on_c, 2, 74, 120
4, 171404, Note_on_c, 2, 74, 0
4, 171405, Note_on_c, 2, 76, 120
4, 171419, Note_on_c, 2, 76, 0
4, 171420, Note_on_c, 2, 74, 120
4, 171479, Note_on_c, 2, 74, 0
4, 171480, Note_on_c, 2, 64, 120
4, 171539, Note_on_c, 2, 64, 0
4, 171540, Note_on_c, 2, 64, 120
4, 171599, Note_on_c, 2, 64, 0
4, 171600, Note_on_c, 2, 64, 120
4, 171659, Note_on_c, 2, 64, 0
4, 171660, Note_on_c, 2, 64, 120
4, 171719, Note_on_c, 2, 64, 0
4, 171720, Note_on_c, 2, 66, 120
4, 171749, Note_on_c, 2, 66, 0
4, 171750, Note_on_c, 2, 68, 120
4, 171779, Note_on_c, 2, 68, 0
4, 171780, Note_on_c, 2, 69, 120
4, 171809, Note_on_c, 2, 69, 0
4, 171810, Note_on_c, 2, 71, 120
4, 171839, Note_on_c, 2, 71, 0
4, 171840, Note_on_c, 2, 73, 120
4, 171899, Note_on_c, 2, 73, 0
4, 171900, Note_on_c, 2, 74, 120
4, 171959, Note_on_c, 2, 74, 0
4, 171960, Note_on_c, 2, 71, 120
4, 172019, Note_on_c, 2, 71, 0
4, 172020, Note_on_c, 2, 69, 120
4, 172199, Note_on_c, 2, 69, 0
4, 172260, Note_on_c, 2, 69, 120
4, 172289, Note_on_c, 2, 69, 0
4, 172320, Note_on_c, 2, 71, 120
4, 172349, Note_on_c, 2, 71, 0
4, 172440, Note_on_c, 2, 73, 120
4, 172469, Note_on_c, 2, 73, 0
4, 172500, Note_on_c, 2, 71, 120
4, 172529, Note_on_c, 2, 71, 0
4, 172620, Note_on_c, 2, 71, 120
4, 172649, Note_on_c, 2, 71, 0
4, 172680, Note_on_c, 2, 73, 120
4, 172709, Note_on_c, 2, 73, 0
4, 172800, Note_on_c, 2, 74, 120
4, 172830, Note_on_c, 2, 74, 0
4, 172860, Note_on_c, 2, 73, 120
4, 172890, Note_on_c, 2, 73, 0
4, 172980, Note_on_c, 2, 76, 120
4, 173010, Note_on_c, 2, 76, 0
4, 173040, Note_on_c, 2, 76, 120
4, 173070, Note_on_c, 2, 76, 0
4, 173160, Note_on_c, 2, 74, 120
4, 173189, Note_on_c, 2, 74, 0
4, 173190, Note_on_c, 2, 73, 120
4, 173219, Note_on_c, 2, 73, 0
4, 173220, Note_on_c, 2, 71, 120
4, 173249, Note_on_c, 2, 71, 0
4, 173250, Note_on_c, 2, 69, 120
4, 173279, Note_on_c, 2, 69, 0
4, 173340, Note_on_c, 2, 74, 120
4, 173369, Note_on_c, 2, 74, 0
4, 173400, Note_on_c, 2, 73, 120
4, 173429, Note_on_c, 2, 73, 0
4, 173460, Note_on_c, 2, 71, 120
4, 173580, Note_on_c, 2, 71, 0
4, 173640, Note_on_c, 2, 64, 120
4, 173700, Note_on_c, 2, 64, 0
4, 173700, Note_on_c, 2, 69, 120
4, 173760, Note_on_c, 2, 69, 0
4, 173760, Note_on_c, 2, 71, 120
4, 173820, Note_on_c, 2, 71, 0
4, 173820, Note_on_c, 2, 71, 120
4, 173850, Note_on_c, 2, 71, 0
4, 173850, Note_on_c, 2, 73, 120
4, 173940, Note_on_c, 2, 73, 0
4, 173940, Note_on_c, 2, 71, 120
4, 174000, Note_on_c, 2, 71, 0
4, 174000, Note_on_c, 2, 64, 120
4, 174060, Note_on_c, 2, 64, 0
4, 174060, Note_on_c, 2, 71, 120
4, 174120, Note_on_c, 2, 71, 0
4, 174120, Note_on_c, 2, 73, 120
4, 174180, Note_on_c, 2, 73, 0
4, 174180, Note_on_c, 2, 73, 120
4, 174210, Note_on_c, 2, 73, 0
4, 174210, Note_on_c, 2, 74, 120
4, 174300, Note_on_c, 2, 74, 0
4, 174300, Note_on_c, 2, 73, 120
4, 174360, Note_on_c, 2, 73, 0
4, 174360, Note_on_c, 2, 76, 120
4, 174419, Note_on_c, 2, 76, 0
4, 174420, Note_on_c, 2, 76, 120
4, 174479, Note_on_c, 2, 76, 0
4, 174480, Note_on_c, 2, 76, 120
4, 174539, Note_on_c, 2, 76, 0
4, 174540, Note_on_c, 2, 76, 120
4, 174599, Note_on_c, 2, 76, 0
4, 174600, Note_on_c, 2, 74, 120
4, 174629, Note_on_c, 2, 74, 0
4, 174630, Note_on_c, 2, 73, 120
4, 174659, Note_on_c, 2, 73, 0
4, 174660, Note_on_c, 2, 71, 120
4, 174689, Note_on_c, 2, 71, 0
4, 174690, Note_on_c, 2, 69, 120
4, 174719, Note_on_c, 2, 69, 0
4, 174720, Note_on_c, 2, 68, 120
4, 174779, Note_on_c, 2, 68, 0
4, 174780, Note_on_c, 2, 74, 120
4, 174839, Note_on_c, 2, 74, 0
4, 174840, Note_on_c, 2, 73, 120
4, 174899, Note_on_c, 2, 73, 0
4, 174900, Note_on_c, 2, 71, 120
4, 175020, Note_on_c, 2, 71, 0
4, 175140, Note_on_c, 2, 74, 120
4, 175170, Note_on_c, 2, 74, 0
4, 175200, Note_on_c, 2, 73, 120
4, 175230, Note_on_c, 2, 73, 0
4, 175320, Note_on_c, 2, 78, 120
4, 175350, Note_on_c, 2, 78, 0
4, 175380, Note_on_c, 2, 76, 120
4, 175410, Note_on_c, 2, 76, 0
4, 175500, Note_on_c, 2, 73, 120
4, 175530, Note_on_c, 2, 73, 0
4, 175560, Note_on_c, 2, 71, 120
4, 175590, Note_on_c, 2, 71, 0
4, 175680, Note_on_c, 2, 76, 120
4, 175710, Note_on_c, 2, 76, 0
4, 175740, Note_on_c, 2, 74, 120
4, 175770, Note_on_c, 2, 74, 0
4, 175860, Note_on_c, 2, 64, 120
4, 175890, Note_on_c, 2, 64, 0
4, 175920, Note_on_c, 2, 64, 120
4, 175950, Note_on_c, 2, 64, 0
4, 176040, Note_on_c, 2, 66, 120
4, 176069, Note_on_c, 2, 66, 0
4, 176070, Note_on_c, 2, 68, 120
4, 176099, Note_on_c, 2, 68, 0
4, 176100, Note_on_c, 2, 69, 120
4, 176129, Note_on_c, 2, 69, 0
4, 176130, Note_on_c, 2, 71, 120
4, 176159, Note_on_c, 2, 71, 0
4, 176220, Note_on_c, 2, 74, 120
4, 176249, Note_on_c, 2, 74, 0
4, 176280, Note_on_c, 2, 71, 120
4, 176309, Note_on_c, 2, 71, 0
4, 176340, Note_on_c, 2, 69, 120
4, 176459, Note_on_c, 2, 69, 0
4, 176520, Note_on_c, 2, 76, 120
4, 176579, Note_on_c, 2, 76, 0
4, 176580, Note_on_c, 2, 74, 120
4, 176639, Note_on_c, 2, 74, 0
4, 176640, Note_on_c, 2, 73, 120
4, 176699, Note_on_c, 2, 73, 0
4, 176700, Note_on_c, 2, 74, 120
4, 176789, Note_on_c, 2, 74, 0
4, 176790, Note_on_c, 2, 76, 120
4, 176804, Note_on_c, 2, 76, 0
4, 176805, Note_on_c, 2, 78, 120
4, 176819, Note_on_c, 2, 78, 0
4, 176820, Note_on_c, 2, 76, 120
4, 176879, Note_on_c, 2, 76, 0
4, 176880, Note_on_c, 2, 74, 120
4, 176939, Note_on_c, 2, 74, 0
4, 176940, Note_on_c, 2, 73, 120
4, 176999, Note_on_c, 2, 73, 0
4, 177000, Note_on_c, 2, 71, 120
4, 177059, Note_on_c, 2, 71, 0
4, 177060, Note_on_c, 2, 73, 120
4, 177149, Note_on_c, 2, 73, 0
4, 177150, Note_on_c, 2, 74, 120
4, 177164, Note_on_c, 2, 74, 0
4, 177165, Note_on_c, 2, 76, 120
4, 177179, Note_on_c, 2, 76, 0
4, 177180, Note_on_c, 2, 74, 120
4, 177239, Note_on_c, 2, 74, 0
4, 177240, Note_on_c, 2, 64, 120
4, 177299, Note_on_c, 2, 64, 0
4, 177300, Note_on_c, 2, 64, 120
4, 177359, Note_on_c, 2, 64, 0
4, 177360, Note_on_c, 2, 64, 120
4, 177419, Note_on_c, 2, 64, 0
4, 177420, Note_on_c, 2, 64, 120
4, 177479, Note_on_c, 2, 64, 0
4, 177480, Note_on_c, 2, 66, 120
4, 177509, Note_on_c, 2, 66, 0
4, 177510, Note_on_c, 2, 68, 120
4, 177539, Note_on_c, 2, 68, 0
4, 177540, Note_on_c, 2, 69, 120
4, 177569, Note_on_c, 2, 69, 0
4, 177570, Note_on_c, 2, 71, 120
4, 177599, Note_on_c, 2, 71, 0
4, 177600, Note_on_c, 2, 73, 120
4, 177659, Note_on_c, 2, 73, 0
4, 177660, Note_on_c, 2, 74, 120
4, 177719, Note_on_c, 2, 74, 0
4, 177720, Note_on_c, 2, 71, 120
4, 177779, Note_on_c, 2, 71, 0
4, 177780, Note_on_c, 2, 69, 120
4, 177899, Note_on_c, 2, 69, 0
4, 182580, Note_on_c, 2, 74, 120
4, 182639, Note_on_c, 2, 74, 0
4, 182640, Note_on_c, 2, 71, 120
4, 182699, Note_on_c, 2, 71, 0
4, 182700, Note_on_c, 2, 74, 120
4, 182759, Note_on_c, 2, 74, 0
4, 182760, Note_on_c, 2, 74, 120
4, 182819, Note_on_c, 2, 74, 0
4, 182820, Note_on_c, 2, 69, 120
4, 182879, Note_on_c, 2, 69, 0
4, 182880, Note_on_c, 2, 74, 120
4, 182939, Note_on_c, 2, 74, 0
4, 182940, Note_on_c, 2, 74, 120
4, 182999, Note_on_c, 2, 74, 0
4, 183000, Note_on_c, 2, 67, 120
4, 183059, Note_on_c, 2, 67, 0
4, 183060, Note_on_c, 2, 74, 120
4, 183119, Note_on_c, 2, 74, 0
4, 183120, Note_on_c, 2, 74, 120
4, 183179, Note_on_c, 2, 74, 0
4, 183180, Note_on_c, 2, 66, 120
4, 183239, Note_on_c, 2, 66, 0
4, 183240, Note_on_c, 2, 74, 120
4, 183299, Note_on_c, 2, 74, 0
4, 183300, Note_on_c, 2, 74, 120
4, 183359, Note_on_c, 2, 74, 0
4, 183360, Note_on_c, 2, 67, 120
4, 183419, Note_on_c, 2, 67, 0
4, 183420, Note_on_c, 2, 74, 120
4, 183479, Note_on_c, 2, 74, 0
4, 183480, Note_on_c, 2, 79, 120
4, 183539, Note_on_c, 2, 79, 0
4, 183540, Note_on_c, 2, 69, 120
4, 183599, Note_on_c, 2, 69, 0
4, 183600, Note_on_c, 2, 79, 120
4, 183659, Note_on_c, 2, 79, 0
4, 183660, Note_on_c, 2, 78, 120
4, 183719, Note_on_c, 2, 78, 0
4, 183720, Note_on_c, 2, 79, 120
4, 183779, Note_on_c, 2, 79, 0
4, 183780, Note_on_c, 2, 74, 120
4, 183839, Note_on_c, 2, 74, 0
4, 183840, Note_on_c, 2, 71, 120
4, 183899, Note_on_c, 2, 71, 0
4, 183900, Note_on_c, 2, 67, 120
4, 184019, Note_on_c, 2, 67, 0
4, 184560, Note_on_c, 2, 79, 120
4, 184620, Note_on_c, 2, 79, 0
4, 184620, Note_on_c, 2, 79, 120
4, 184680, Note_on_c, 2, 79, 0
4, 184680, Note_on_c, 2, 78, 120
4, 184740, Note_on_c, 2, 78, 0
4, 185280, Note_on_c, 2, 79, 120
4, 185339, Note_on_c, 2, 79, 0
4, 185340, Note_on_c, 2, 79, 120
4, 185399, Note_on_c, 2, 79, 0
4, 185400, Note_on_c, 2, 78, 120
4, 185459, Note_on_c, 2, 78, 0
4, 185460, Note_on_c, 2, 62, 120
4, 185519, Note_on_c, 2, 62, 0
4, 185520, Note_on_c, 2, 67, 120
4, 185579, Note_on_c, 2, 67, 0
4, 185580, Note_on_c, 2, 66, 120
4, 185639, Note_on_c, 2, 66, 0
4, 185640, Note_on_c, 2, 67, 120
4, 185699, Note_on_c, 2, 67, 0
4, 185700, Note_on_c, 2, 69, 120
4, 185759, Note_on_c, 2, 69, 0
4, 185760, Note_on_c, 2, 67, 120
4, 185819, Note_on_c, 2, 67, 0
4, 185820, Note_on_c, 2, 69, 120
4, 185879, Note_on_c, 2, 69, 0
4, 185880, Note_on_c, 2, 71, 120
4, 186059, Note_on_c, 2, 71, 0
4, 186060, Note_on_c, 2, 69, 120
4, 186179, Note_on_c, 2, 69, 0
4, 186180, Note_on_c, 2, 69, 120
4, 186239, Note_on_c, 2, 69, 0
4, 186240, Note_on_c, 2, 71, 120
4, 186299, Note_on_c, 2, 71, 0
4, 186300, Note_on_c, 2, 72, 120
4, 186359, Note_on_c, 2, 72, 0
4, 186360, Note_on_c, 2, 71, 120
4, 186419, Note_on_c, 2, 71, 0
4, 186420, Note_on_c, 2, 69, 120
4, 186479, Note_on_c, 2, 69, 0
4, 186480, Note_on_c, 2, 67, 120
4, 186539, Note_on_c, 2, 67, 0
4, 186540, Note_on_c, 2, 69, 120
4, 186599, Note_on_c, 2, 69, 0
4, 186600, Note_on_c, 2, 67, 120
4, 186659, Note_on_c, 2, 67, 0
4, 186660, Note_on_c, 2, 62, 120
4, 186719, Note_on_c, 2, 62, 0
4, 186720, Note_on_c, 2, 59, 120
4, 186779, Note_on_c, 2, 59, 0
4, 186780, Note_on_c, 2, 55, 120
4, 186899, Note_on_c, 2, 55, 0
4, 187620, Note_on_c, 2, 71, 120
4, 187649, Note_on_c, 2, 71, 0
4, 187650, Note_on_c, 2, 72, 120
4, 187679, Note_on_c, 2, 72, 0
4, 187680, Note_on_c, 2, 74, 120
4, 187739, Note_on_c, 2, 74, 0
4, 187740, Note_on_c, 2, 76, 120
4, 187799, Note_on_c, 2, 76, 0
4, 187800, Note_on_c, 2, 74, 120
4, 187859, Note_on_c, 2, 74, 0
4, 187860, Note_on_c, 2, 69, 120
4, 187919, Note_on_c, 2, 69, 0
4, 187920, Note_on_c, 2, 71, 120
4, 187979, Note_on_c, 2, 71, 0
4, 187980, Note_on_c, 2, 72, 120
4, 188039, Note_on_c, 2, 72, 0
4, 188040, Note_on_c, 2, 71, 120
4, 188099, Note_on_c, 2, 71, 0
4, 188100, Note_on_c, 2, 69, 120
4, 188159, Note_on_c, 2, 69, 0
4, 188160, Note_on_c, 2, 71, 120
4, 188219, Note_on_c, 2, 71, 0
4, 188220, Note_on_c, 2, 69, 120
4, 188339, Note_on_c, 2, 69, 0
4, 188340, Note_on_c, 2, 62, 120
4, 188399, Note_on_c, 2, 62, 0
4, 188400, Note_on_c, 2, 67, 120
4, 188459, Note_on_c, 2, 67, 0
4, 188460, Note_on_c, 2, 66, 120
4, 188519, Note_on_c, 2, 66, 0
4, 188520, Note_on_c, 2, 67, 120
4, 188579, Note_on_c, 2, 67, 0
4, 188580, Note_on_c, 2, 69, 120
4, 188639, Note_on_c, 2, 69, 0
4, 188640, Note_on_c, 2, 67, 120
4, 188699, Note_on_c, 2, 67, 0
4, 188700, Note_on_c, 2, 69, 120
4, 188759, Note_on_c, 2, 69, 0
4, 188760, Note_on_c, 2, 71, 120
4, 188939, Note_on_c, 2, 71, 0
4, 188940, Note_on_c, 2, 69, 120
4, 189059, Note_on_c, 2, 69, 0
4, 189060, Note_on_c, 2, 69, 120
4, 189119, Note_on_c, 2, 69, 0
4, 189120, Note_on_c, 2, 71, 120
4, 189179, Note_on_c, 2, 71, 0
4, 189180, Note_on_c, 2, 72, 120
4, 189239, Note_on_c, 2, 72, 0
4, 189240, Note_on_c, 2, 71, 120
4, 189299, Note_on_c, 2, 71, 0
4, 189300, Note_on_c, 2, 69, 120
4, 189359, Note_on_c, 2, 69, 0
4, 189360, Note_on_c, 2, 67, 120
4, 189419, Note_on_c, 2, 67, 0
4, 189420, Note_on_c, 2, 69, 120
4, 189479, Note_on_c, 2, 69, 0
4, 189480, Note_on_c, 2, 67, 120
4, 189779, Note_on_c, 2, 67, 0
4, 194400, Note_on_c, 2, 62, 120
4, 194459, Note_on_c, 2, 62, 0
4, 194460, Note_on_c, 2, 64, 120
4, 194519, Note_on_c, 2, 64, 0
4, 194520, Note_on_c, 2, 62, 120
4, 194639, Note_on_c, 2, 62, 0
4, 194640, Note_on_c, 2, 62, 120
4, 194759, Note_on_c, 2, 62, 0
4, 194760, Note_on_c, 2, 62, 120
4, 194819, Note_on_c, 2, 62, 0
4, 194820, Note_on_c, 2, 64, 120
4, 194879, Note_on_c, 2, 64, 0
4, 194880, Note_on_c, 2, 62, 120
4, 194999, Note_on_c, 2, 62, 0
4, 195000, Note_on_c, 2, 62, 120
4, 195119, Note_on_c, 2, 62, 0
4, 195120, Note_on_c, 2, 59, 120
4, 195239, Note_on_c, 2, 59, 0
4, 195240, Note_on_c, 2, 64, 120
4, 195359, Note_on_c, 2, 64, 0
4, 195360, Note_on_c, 2, 64, 120
4, 195419, Note_on_c, 2, 64, 0
4, 195420, Note_on_c, 2, 62, 120
4, 195479, Note_on_c, 2, 62, 0
4, 195480, Note_on_c, 2, 61, 120
4, 195539, Note_on_c, 2, 61, 0
4, 195540, Note_on_c, 2, 59, 120
4, 195599, Note_on_c, 2, 59, 0
4, 195600, Note_on_c, 2, 57, 120
4, 195839, Note_on_c, 2, 57, 0
4, 198000, Note_on_c, 2, 67, 120
4, 198119, Note_on_c, 2, 67, 0
4, 198120, Note_on_c, 2, 66, 120
4, 198239, Note_on_c, 2, 66, 0
4, 198240, Note_on_c, 2, 64, 120
4, 198299, Note_on_c, 2, 64, 0
4, 198300, Note_on_c, 2, 62, 120
4, 198359, Note_on_c, 2, 62, 0
4, 198360, Note_on_c, 2, 67, 120
4, 198479, Note_on_c, 2, 67, 0
4, 198480, Note_on_c, 2, 66, 120
4, 198599, Note_on_c, 2, 66, 0
4, 198600, Note_on_c, 2, 64, 120
4, 198659, Note_on_c, 2, 64, 0
4, 198660, Note_on_c, 2, 62, 120
4, 198719, Note_on_c, 2, 62, 0
4, 198720, Note_on_c, 2, 67, 120
4, 198839, Note_on_c, 2, 67, 0
4, 198840, Note_on_c, 2, 66, 120
4, 198959, Note_on_c, 2, 66, 0
4, 198960, Note_on_c, 2, 64, 120
4, 199019, Note_on_c, 2, 64, 0
4, 199020, Note_on_c, 2, 62, 120
4, 199079, Note_on_c, 2, 62, 0
4, 199080, Note_on_c, 2, 64, 120
4, 199139, Note_on_c, 2, 64, 0
4, 199140, Note_on_c, 2, 61, 120
4, 199199, Note_on_c, 2, 61, 0
4, 199200, Note_on_c, 2, 62, 120
4, 199439, Note_on_c, 2, 62, 0
4, 202080, Note_on_c, 2, 64, 120
4, 202139, Note_on_c, 2, 64, 0
4, 202140, Note_on_c, 2, 69, 120
4, 202199, Note_on_c, 2, 69, 0
4, 202200, Note_on_c, 2, 73, 120
4, 202259, Note_on_c, 2, 73, 0
4, 202260, Note_on_c, 2, 71, 120
4, 202319, Note_on_c, 2, 71, 0
4, 202320, Note_on_c, 2, 69, 120
4, 202379, Note_on_c, 2, 69, 0
4, 202380, Note_on_c, 2, 64, 120
4, 202409, Note_on_c, 2, 64, 0
4, 202410, Note_on_c, 2, 66, 120
4, 202439, Note_on_c, 2, 66, 0
4, 202440, Note_on_c, 2, 68, 120
4, 202469, Note_on_c, 2, 68, 0
4, 202470, Note_on_c, 2, 69, 120
4, 202499, Note_on_c, 2, 69, 0
4, 202500, Note_on_c, 2, 71, 120
4, 202559, Note_on_c, 2, 71, 0
4, 202560, Note_on_c, 2, 74, 120
4, 202589, Note_on_c, 2, 74, 0
4, 202590, Note_on_c, 2, 71, 120
4, 202619, Note_on_c, 2, 71, 0
4, 202620, Note_on_c, 2, 73, 120
4, 202649, Note_on_c, 2, 73, 0
4, 202650, Note_on_c, 2, 69, 120
4, 202679, Note_on_c, 2, 69, 0
4, 202680, Note_on_c, 2, 76, 120
4, 202799, Note_on_c, 2, 76, 0
4, 202800, Note_on_c, 2, 76, 120
4, 202859, Note_on_c, 2, 76, 0
4, 202860, Note_on_c, 2, 78, 120
4, 202889, Note_on_c, 2, 78, 0
4, 202890, Note_on_c, 2, 74, 120
4, 202919, Note_on_c, 2, 74, 0
4, 202920, Note_on_c, 2, 78, 120
4, 202949, Note_on_c, 2, 78, 0
4, 202950, Note_on_c, 2, 74, 120
4, 202979, Note_on_c, 2, 74, 0
4, 202980, Note_on_c, 2, 78, 120
4, 203009, Note_on_c, 2, 78, 0
4, 203010, Note_on_c, 2, 74, 120
4, 203039, Note_on_c, 2, 74, 0
4, 203040, Note_on_c, 2, 71, 120
4, 203099, Note_on_c, 2, 71, 0
4, 203100, Note_on_c, 2, 73, 120
4, 203159, Note_on_c, 2, 73, 0
4, 203160, Note_on_c, 2, 74, 120
4, 203219, Note_on_c, 2, 74, 0
4, 203220, Note_on_c, 2, 76, 120
4, 203249, Note_on_c, 2, 76, 0
4, 203250, Note_on_c, 2, 73, 120
4, 203279, Note_on_c, 2, 73, 0
4, 203280, Note_on_c, 2, 76, 120
4, 203309, Note_on_c, 2, 76, 0
4, 203310, Note_on_c, 2, 73, 120
4, 203339, Note_on_c, 2, 73, 0
4, 203340, Note_on_c, 2, 76, 120
4, 203369, Note_on_c, 2, 76, 0
4, 203370, Note_on_c, 2, 73, 120
4, 203399, Note_on_c, 2, 73, 0
4, 203400, Note_on_c, 2, 69, 120
4, 203459, Note_on_c, 2, 69, 0
4, 203460, Note_on_c, 2, 71, 120
4, 203519, Note_on_c, 2, 71, 0
4, 203520, Note_on_c, 2, 73, 120
4, 203579, Note_on_c, 2, 73, 0
4, 203580, Note_on_c, 2, 74, 120
4, 203609, Note_on_c, 2, 74, 0
4, 203610, Note_on_c, 2, 73, 120
4, 203639, Note_on_c, 2, 73, 0
4, 203640, Note_on_c, 2, 73, 120
4, 203669, Note_on_c, 2, 73, 0
4, 203670, Note_on_c, 2, 71, 120
4, 203699, Note_on_c, 2, 71, 0
4, 203700, Note_on_c, 2, 71, 120
4, 203729, Note_on_c, 2, 71, 0
4, 203730, Note_on_c, 2, 69, 120
4, 203759, Note_on_c, 2, 69, 0
4, 203760, Note_on_c, 2, 68, 120
4, 203789, Note_on_c, 2, 68, 0
4, 203790, Note_on_c, 2, 62, 120
4, 203819, Note_on_c, 2, 62, 0
4, 203820, Note_on_c, 2, 62, 120
4, 203849, Note_on_c, 2, 62, 0
4, 203850, Note_on_c, 2, 61, 120
4, 203879, Note_on_c, 2, 61, 0
4, 203880, Note_on_c, 2, 61, 120
4, 203909, Note_on_c, 2, 61, 0
4, 203910, Note_on_c, 2, 59, 120
4, 203939, Note_on_c, 2, 59, 0
4, 203940, Note_on_c, 2, 61, 120
4, 203969, Note_on_c, 2, 61, 0
4, 203970, Note_on_c, 2, 64, 120
4, 203999, Note_on_c, 2, 64, 0
4, 204000, Note_on_c, 2, 66, 120
4, 204029, Note_on_c, 2, 66, 0
4, 204030, Note_on_c, 2, 69, 120
4, 204059, Note_on_c, 2, 69, 0
4, 204060, Note_on_c, 2, 68, 120
4, 204089, Note_on_c, 2, 68, 0
4, 204090, Note_on_c, 2, 71, 120
4, 204119, Note_on_c, 2, 71, 0
4, 204120, Note_on_c, 2, 69, 120
4, 204149, Note_on_c, 2, 69, 0
4, 204150, Note_on_c, 2, 64, 120
4, 204179, Note_on_c, 2, 64, 0
4, 204180, Note_on_c, 2, 66, 120
4, 204209, Note_on_c, 2, 66, 0
4, 204210, Note_on_c, 2, 69, 120
4, 204239, Note_on_c, 2, 69, 0
4, 204240, Note_on_c, 2, 68, 120
4, 204269, Note_on_c, 2, 68, 0
4, 204270, Note_on_c, 2, 71, 120
4, 204299, Note_on_c, 2, 71, 0
4, 204300, Note_on_c, 2, 69, 120
4, 204329, Note_on_c, 2, 69, 0
4, 204330, Note_on_c, 2, 73, 120
4, 204359, Note_on_c, 2, 73, 0
4, 204360, Note_on_c, 2, 71, 120
4, 204389, Note_on_c, 2, 71, 0
4, 204390, Note_on_c, 2, 74, 120
4, 204419, Note_on_c, 2, 74, 0
4, 204420, Note_on_c, 2, 73, 120
4, 204449, Note_on_c, 2, 73, 0
4, 204450, Note_on_c, 2, 71, 120
4, 204479, Note_on_c, 2, 71, 0
4, 204480, Note_on_c, 2, 73, 120
4, 204509, Note_on_c, 2, 73, 0
4, 204510, Note_on_c, 2, 76, 120
4, 204539, Note_on_c, 2, 76, 0
4, 204540, Note_on_c, 2, 74, 120
4, 204569, Note_on_c, 2, 74, 0
4, 204570, Note_on_c, 2, 78, 120
4, 204599, Note_on_c, 2, 78, 0
4, 204600, Note_on_c, 2, 76, 120
4, 204659, Note_on_c, 2, 76, 0
4, 204660, Note_on_c, 2, 62, 120
4, 204689, Note_on_c, 2, 62, 0
4, 204690, Note_on_c, 2, 61, 120
4, 204719, Note_on_c, 2, 61, 0
4, 204720, Note_on_c, 2, 61, 120
4, 204749, Note_on_c, 2, 61, 0
4, 204750, Note_on_c, 2, 59, 120
4, 204779, Note_on_c, 2, 59, 0
4, 204780, Note_on_c, 2, 59, 120
4, 204809, Note_on_c, 2, 59, 0
4, 204810, Note_on_c, 2, 57, 120
4, 204839, Note_on_c, 2, 57, 0
4, 204840, Note_on_c, 2, 57, 120
4, 204959, Note_on_c, 2, 57, 0
4, 205680, Note_on_c, 2, 76, 120
4, 205739, Note_on_c, 2, 76, 0
4, 205740, Note_on_c, 2, 78, 120
4, 205769, Note_on_c, 2, 78, 0
4, 205770, Note_on_c, 2, 74, 120
4, 205799, Note_on_c, 2, 74, 0
4, 205800, Note_on_c, 2, 78, 120
4, 205829, Note_on_c, 2, 78, 0
4, 205830, Note_on_c, 2, 74, 120
4, 205859, Note_on_c, 2, 74, 0
4, 205860, Note_on_c, 2, 78, 120
4, 205889, Note_on_c, 2, 78, 0
4, 205890, Note_on_c, 2, 74, 120
4, 205919, Note_on_c, 2, 74, 0
4, 205920, Note_on_c, 2, 71, 120
4, 205979, Note_on_c, 2, 71, 0
4, 205980, Note_on_c, 2, 73, 120
4, 206039, Note_on_c, 2, 73, 0
4, 206040, Note_on_c, 2, 74, 120
4, 206099, Note_on_c, 2, 74, 0
4, 206100, Note_on_c, 2, 76, 120
4, 206129, Note_on_c, 2, 76, 0
4, 206130, Note_on_c, 2, 73, 120
4, 206159, Note_on_c, 2, 73, 0
4, 206160, Note_on_c, 2, 76, 120
4, 206189, Note_on_c, 2, 76, 0
4, 206190, Note_on_c, 2, 73, 120
4, 206219, Note_on_c, 2, 73, 0
4, 206220, Note_on_c, 2, 76, 120
4, 206249, Note_on_c, 2, 76, 0
4, 206250, Note_on_c, 2, 73, 120
4, 206279, Note_on_c, 2, 73, 0
4, 206280, Note_on_c, 2, 69, 120
4, 206339, Note_on_c, 2, 69, 0
4, 206340, Note_on_c, 2, 71, 120
4, 206399, Note_on_c, 2, 71, 0
4, 206400, Note_on_c, 2, 73, 120
4, 206459, Note_on_c, 2, 73, 0
4, 206460, Note_on_c, 2, 74, 120
4, 206489, Note_on_c, 2, 74, 0
4, 206490, Note_on_c, 2, 73, 120
4, 206519, Note_on_c, 2, 73, 0
4, 206520, Note_on_c, 2, 73, 120
4, 206549, Note_on_c, 2, 73, 0
4, 206550, Note_on_c, 2, 71, 120
4, 206579, Note_on_c, 2, 71, 0
4, 206580, Note_on_c, 2, 71, 120
4, 206609, Note_on_c, 2, 71, 0
4, 206610, Note_on_c, 2, 69, 120
4, 206639, Note_on_c, 2, 69, 0
4, 206640, Note_on_c, 2, 68, 120
4, 206669, Note_on_c, 2, 68, 0
4, 206670, Note_on_c, 2, 62, 120
4, 206699, Note_on_c, 2, 62, 0
4, 206700, Note_on_c, 2, 62, 120
4, 206729, Note_on_c, 2, 62, 0
4, 206730, Note_on_c, 2, 61, 120
4, 206759, Note_on_c, 2, 61, 0
4, 206760, Note_on_c, 2, 61, 120
4, 206789, Note_on_c, 2, 61, 0
4, 206790, Note_on_c, 2, 59, 120
4, 206819, Note_on_c, 2, 59, 0
4, 206820, Note_on_c, 2, 61, 120
4, 206849, Note_on_c, 2, 61, 0
4, 206850, Note_on_c, 2, 64, 120
4, 206879, Note_on_c, 2, 64, 0
4, 206880, Note_on_c, 2, 66, 120
4, 206909, Note_on_c, 2, 66, 0
4, 206910, Note_on_c, 2, 69, 120
4, 206939, Note_on_c, 2, 69, 0
4, 206940, Note_on_c, 2, 68, 120
4, 206969, Note_on_c, 2, 68, 0
4, 206970, Note_on_c, 2, 71, 120
4, 206999, Note_on_c, 2, 71, 0
4, 207000, Note_on_c, 2, 69, 120
4, 207029, Note_on_c, 2, 69, 0
4, 207030, Note_on_c, 2, 64, 120
4, 207059, Note_on_c, 2, 64, 0
4, 207060, Note_on_c, 2, 66, 120
4, 207089, Note_on_c, 2, 66, 0
4, 207090, Note_on_c, 2, 69, 120
4, 207119, Note_on_c, 2, 69, 0
4, 207120, Note_on_c, 2, 68, 120
4, 207149, Note_on_c, 2, 68, 0
4, 207150, Note_on_c, 2, 71, 120
4, 207179, Note_on_c, 2, 71, 0
4, 207180, Note_on_c, 2, 69, 120
4, 207239, Note_on_c, 2, 69, 0
4, 207240, Note_on_c, 2, 73, 120
4, 207299, Note_on_c, 2, 73, 0
4, 207300, Note_on_c, 2, 71, 120
4, 207359, Note_on_c, 2, 71, 0
4, 207360, Note_on_c, 2, 69, 120
4, 207419, Note_on_c, 2, 69, 0
4, 207420, Note_on_c, 2, 64, 120
4, 207449, Note_on_c, 2, 64, 0
4, 207450, Note_on_c, 2, 66, 120
4, 207479, Note_on_c, 2, 66, 0
4, 207480, Note_on_c, 2, 68, 120
4, 207509, Note_on_c, 2, 68, 0
4, 207510, Note_on_c, 2, 69, 120
4, 207539, Note_on_c, 2, 69, 0
4, 207540, Note_on_c, 2, 71, 120
4, 207599, Note_on_c, 2, 71, 0
4, 207600, Note_on_c, 2, 74, 120
4, 207629, Note_on_c, 2, 74, 0
4, 207630, Note_on_c, 2, 71, 120
4, 207659, Note_on_c, 2, 71, 0
4, 207660, Note_on_c, 2, 73, 120
4, 207689, Note_on_c, 2, 73, 0
4, 207690, Note_on_c, 2, 69, 120
4, 207719, Note_on_c, 2, 69, 0
4, 207720, Note_on_c, 2, 76, 120
4, 207839, Note_on_c, 2, 76, 0
4, 207840, Note_on_c, 2, 76, 120
4, 207899, Note_on_c, 2, 76, 0
4, 207900, Note_on_c, 2, 78, 120
4, 207929, Note_on_c, 2, 78, 0
4, 207930, Note_on_c, 2, 74, 120
4, 207959, Note_on_c, 2, 74, 0
4, 207960, Note_on_c, 2, 78, 120
4, 207989, Note_on_c, 2, 78, 0
4, 207990, Note_on_c, 2, 74, 120
4, 208019, Note_on_c, 2, 74, 0
4, 208020, Note_on_c, 2, 78, 120
4, 208049, Note_on_c, 2, 78, 0
4, 208050, Note_on_c, 2, 74, 120
4, 208079, Note_on_c, 2, 74, 0
4, 208080, Note_on_c, 2, 71, 120
4, 208139, Note_on_c, 2, 71, 0
4, 208140, Note_on_c, 2, 73, 120
4, 208199, Note_on_c, 2, 73, 0
4, 208200, Note_on_c, 2, 74, 120
4, 208259, Note_on_c, 2, 74, 0
4, 208260, Note_on_c, 2, 76, 120
4, 208289, Note_on_c, 2, 76, 0
4, 208290, Note_on_c, 2, 73, 120
4, 208319, Note_on_c, 2, 73, 0
4, 208320, Note_on_c, 2, 76, 120
4, 208349, Note_on_c, 2, 76, 0
4, 208350, Note_on_c, 2, 73, 120
4, 208379, Note_on_c, 2, 73, 0
4, 208380, Note_on_c, 2, 76, 120
4, 208409, Note_on_c, 2, 76, 0
4, 208410, Note_on_c, 2, 73, 120
4, 208439, Note_on_c, 2, 73, 0
4, 208440, Note_on_c, 2, 69, 120
4, 208499, Note_on_c, 2, 69, 0
4, 208500, Note_on_c, 2, 71, 120
4, 208559, Note_on_c, 2, 71, 0
4, 208560, Note_on_c, 2, 73, 120
4, 208619, Note_on_c, 2, 73, 0
4, 208620, Note_on_c, 2, 74, 120
4, 208649, Note_on_c, 2, 74, 0
4, 208650, Note_on_c, 2, 71, 120
4, 208679, Note_on_c, 2, 71, 0
4, 208680, Note_on_c, 2, 71, 120
4, 208709, Note_on_c, 2, 71, 0
4, 208710, Note_on_c, 2, 69, 120
4, 208739, Note_on_c, 2, 69, 0
4, 208740, Note_on_c, 2, 69, 120
4, 208769, Note_on_c, 2, 69, 0
4, 208770, Note_on_c, 2, 68, 120
4, 208799, Note_on_c, 2, 68, 0
4, 208800, Note_on_c, 2, 68, 120
4, 208829, Note_on_c, 2, 68, 0
4, 208830, Note_on_c, 2, 71, 120
4, 208859, Note_on_c, 2, 71, 0
4, 208860, Note_on_c, 2, 68, 120
4, 208889, Note_on_c, 2, 68, 0
4, 208890, Note_on_c, 2, 71, 120
4, 208919, Note_on_c, 2, 71, 0
4, 208920, Note_on_c, 2, 68, 120
4, 208949, Note_on_c, 2, 68, 0
4, 208950, Note_on_c, 2, 71, 120
4, 208979, Note_on_c, 2, 71, 0
4, 208980, Note_on_c, 2, 73, 120
4, 209009, Note_on_c, 2, 73, 0
4, 209010, Note_on_c, 2, 64, 120
4, 209039, Note_on_c, 2, 64, 0
4, 209040, Note_on_c, 2, 64, 120
4, 209069, Note_on_c, 2, 64, 0
4, 209070, Note_on_c, 2, 62, 120
4, 209099, Note_on_c, 2, 62, 0
4, 209100, Note_on_c, 2, 62, 120
4, 209129, Note_on_c, 2, 62, 0
4, 209130, Note_on_c, 2, 61, 120
4, 209159, Note_on_c, 2, 61, 0
4, 209160, Note_on_c, 2, 61, 120
4, 209189, Note_on_c, 2, 61, 0
4, 209190, Note_on_c, 2, 64, 120
4, 209219, Note_on_c, 2, 64, 0
4, 209220, Note_on_c, 2, 61, 120
4, 209249, Note_on_c, 2, 61, 0
4, 209250, Note_on_c, 2, 64, 120
4, 209279, Note_on_c, 2, 64, 0
4, 209280, Note_on_c, 2, 61, 120
4, 209309, Note_on_c, 2, 61, 0
4, 209310, Note_on_c, 2, 64, 120
4, 209339, Note_on_c, 2, 64, 0
4, 209340, Note_on_c, 2, 56, 120
4, 209369, Note_on_c, 2, 56, 0
4, 209370, Note_on_c, 2, 64, 120
4, 209399, Note_on_c, 2, 64, 0
4, 209400, Note_on_c, 2, 71, 120
4, 209429, Note_on_c, 2, 71, 0
4, 209430, Note_on_c, 2, 64, 120
4, 209459, Note_on_c, 2, 64, 0
4, 209460, Note_on_c, 2, 69, 120
4, 209489, Note_on_c, 2, 69, 0
4, 209490, Note_on_c, 2, 64, 120
4, 209519, Note_on_c, 2, 64, 0
4, 209520, Note_on_c, 2, 68, 120
4, 209549, Note_on_c, 2, 68, 0
4, 209550, Note_on_c, 2, 64, 120
4, 209579, Note_on_c, 2, 64, 0
4, 209580, Note_on_c, 2, 66, 120
4, 209609, Note_on_c, 2, 66, 0
4, 209610, Note_on_c, 2, 64, 120
4, 209639, Note_on_c, 2, 64, 0
4, 209640, Note_on_c, 2, 68, 120
4, 209669, Note_on_c, 2, 68, 0
4, 209670, Note_on_c, 2, 64, 120
4, 209699, Note_on_c, 2, 64, 0
4, 209700, Note_on_c, 2, 69, 120
4, 209729, Note_on_c, 2, 69, 0
4, 209730, Note_on_c, 2, 75, 120
4, 209759, Note_on_c, 2, 75, 0
4, 209760, Note_on_c, 2, 78, 120
4, 209789, Note_on_c, 2, 78, 0
4, 209790, Note_on_c, 2, 71, 120
4, 209819, Note_on_c, 2, 71, 0
4, 209820, Note_on_c, 2, 76, 120
4, 209849, Note_on_c, 2, 76, 0
4, 209850, Note_on_c, 2, 71, 120
4, 209879, Note_on_c, 2, 71, 0
4, 209880, Note_on_c, 2, 75, 120
4, 209909, Note_on_c, 2, 75, 0
4, 209910, Note_on_c, 2, 78, 120
4, 209939, Note_on_c, 2, 78, 0
4, 209940, Note_on_c, 2, 76, 120
4, 209969, Note_on_c, 2, 76, 0
4, 209970, Note_on_c, 2, 80, 120
4, 209999, Note_on_c, 2, 80, 0
4, 210000, Note_on_c, 2, 78, 120
4, 210029, Note_on_c, 2, 78, 0
4, 210030, Note_on_c, 2, 81, 120
4, 210059, Note_on_c, 2, 81, 0
4, 210060, Note_on_c, 2, 80, 120
4, 210089, Note_on_c, 2, 80, 0
4, 210090, Note_on_c, 2, 71, 120
4, 210119, Note_on_c, 2, 71, 0
4, 210120, Note_on_c, 2, 73, 120
4, 210149, Note_on_c, 2, 73, 0
4, 210150, Note_on_c, 2, 76, 120
4, 210179, Note_on_c, 2, 76, 0
4, 210180, Note_on_c, 2, 75, 120
4, 210209, Note_on_c, 2, 75, 0
4, 210210, Note_on_c, 2, 78, 120
4, 210239, Note_on_c, 2, 78, 0
4, 210240, Note_on_c, 2, 76, 120
4, 210269, Note_on_c, 2, 76, 0
4, 210270, Note_on_c, 2, 71, 120
4, 210299, Note_on_c, 2, 71, 0
4, 210300, Note_on_c, 2, 73, 120
4, 210329, Note_on_c, 2, 73, 0
4, 210330, Note_on_c, 2, 76, 120
4, 210359, Note_on_c, 2, 76, 0
4, 210360, Note_on_c, 2, 75, 120
4, 210389, Note_on_c, 2, 75, 0
4, 210390, Note_on_c, 2, 78, 120
4, 210419, Note_on_c, 2, 78, 0
4, 210420, Note_on_c, 2, 76, 120
4, 210449, Note_on_c, 2, 76, 0
4, 210450, Note_on_c, 2, 80, 120
4, 210479, Note_on_c, 2, 80, 0
4, 210480, Note_on_c, 2, 78, 120
4, 210509, Note_on_c, 2, 78, 0
4, 210510, Note_on_c, 2, 81, 120
4, 210539, Note_on_c, 2, 81, 0
4, 210540, Note_on_c, 2, 80, 120
4, 210569, Note_on_c, 2, 80, 0
4, 210570, Note_on_c, 2, 78, 120
4, 210599, Note_on_c, 2, 78, 0
4, 210600, Note_on_c, 2, 80, 120
4, 210629, Note_on_c, 2, 80, 0
4, 210630, Note_on_c, 2, 64, 120
4, 210659, Note_on_c, 2, 64, 0
4, 210660, Note_on_c, 2, 64, 120
4, 210689, Note_on_c, 2, 64, 0
4, 210690, Note_on_c, 2, 62, 120
4, 210719, Note_on_c, 2, 62, 0
4, 210720, Note_on_c, 2, 62, 120
4, 210749, Note_on_c, 2, 62, 0
4, 210750, Note_on_c, 2, 61, 120
4, 210779, Note_on_c, 2, 61, 0
4, 210780, Note_on_c, 2, 61, 120
4, 210809, Note_on_c, 2, 61, 0
4, 210810, Note_on_c, 2, 64, 120
4, 210839, Note_on_c, 2, 64, 0
4, 210840, Note_on_c, 2, 61, 120
4, 210869, Note_on_c, 2, 61, 0
4, 210870, Note_on_c, 2, 64, 120
4, 210899, Note_on_c, 2, 64, 0
4, 210900, Note_on_c, 2, 61, 120
4, 210929, Note_on_c, 2, 61, 0
4, 210930, Note_on_c, 2, 64, 120
4, 210959, Note_on_c, 2, 64, 0
4, 210960, Note_on_c, 2, 69, 120
4, 210989, Note_on_c, 2, 69, 0
4, 210990, Note_on_c, 2, 68, 120
4, 211019, Note_on_c, 2, 68, 0
4, 211020, Note_on_c, 2, 66, 120
4, 211049, Note_on_c, 2, 66, 0
4, 211050, Note_on_c, 2, 64, 120
4, 211079, Note_on_c, 2, 64, 0
4, 211080, Note_on_c, 2, 63, 120
4, 211109, Note_on_c, 2, 63, 0
4, 211110, Note_on_c, 2, 61, 120
4, 211139, Note_on_c, 2, 61, 0
4, 211140, Note_on_c, 2, 59, 120
4, 211169, Note_on_c, 2, 59, 0
4, 211170, Note_on_c, 2, 63, 120
4, 211199, Note_on_c, 2, 63, 0
4, 211200, Note_on_c, 2, 59, 120
4, 211229, Note_on_c, 2, 59, 0
4, 211230, Note_on_c, 2, 63, 120
4, 211259, Note_on_c, 2, 63, 0
4, 211260, Note_on_c, 2, 59, 120
4, 211289, Note_on_c, 2, 59, 0
4, 211290, Note_on_c, 2, 63, 120
4, 211319, Note_on_c, 2, 63, 0
4, 211320, Note_on_c, 2, 68, 120
4, 211349, Note_on_c, 2, 68, 0
4, 211350, Note_on_c, 2, 66, 120
4, 211379, Note_on_c, 2, 66, 0
4, 211380, Note_on_c, 2, 64, 120
4, 211409, Note_on_c, 2, 64, 0
4, 211410, Note_on_c, 2, 63, 120
4, 211439, Note_on_c, 2, 63, 0
4, 211440, Note_on_c, 2, 61, 120
4, 211469, Note_on_c, 2, 61, 0
4, 211470, Note_on_c, 2, 59, 120
4, 211499, Note_on_c, 2, 59, 0
4, 211500, Note_on_c, 2, 57, 120
4, 211529, Note_on_c, 2, 57, 0
4, 211530, Note_on_c, 2, 59, 120
4, 211559, Note_on_c, 2, 59, 0
4, 211560, Note_on_c, 2, 57, 120
4, 211589, Note_on_c, 2, 57, 0
4, 211590, Note_on_c, 2, 59, 120
4, 211619, Note_on_c, 2, 59, 0
4, 211620, Note_on_c, 2, 57, 120
4, 211649, Note_on_c, 2, 57, 0
4, 211650, Note_on_c, 2, 59, 120
4, 211679, Note_on_c, 2, 59, 0
4, 211680, Note_on_c, 2, 57, 120
4, 211709, Note_on_c, 2, 57, 0
4, 211710, Note_on_c, 2, 61, 120
4, 211739, Note_on_c, 2, 61, 0
4, 211740, Note_on_c, 2, 57, 120
4, 211769, Note_on_c, 2, 57, 0
4, 211770, Note_on_c, 2, 61, 120
4, 211799, Note_on_c, 2, 61, 0
4, 211800, Note_on_c, 2, 57, 120
4, 211829, Note_on_c, 2, 57, 0
4, 211830, Note_on_c, 2, 61, 120
4, 211859, Note_on_c, 2, 61, 0
4, 211860, Note_on_c, 2, 63, 120
4, 211919, Note_on_c, 2, 63, 0
4, 211920, Note_on_c, 2, 66, 120
4, 211979, Note_on_c, 2, 66, 0
4, 211980, Note_on_c, 2, 69, 120
4, 212039, Note_on_c, 2, 69, 0
4, 212040, Note_on_c, 2, 68, 120
4, 212069, Note_on_c, 2, 68, 0
4, 212070, Note_on_c, 2, 66, 120
4, 212099, Note_on_c, 2, 66, 0
4, 212100, Note_on_c, 2, 64, 120
4, 212129, Note_on_c, 2, 64, 0
4, 212130, Note_on_c, 2, 63, 120
4, 212159, Note_on_c, 2, 63, 0
4, 212160, Note_on_c, 2, 71, 120
4, 212219, Note_on_c, 2, 71, 0
4, 212220, Note_on_c, 2, 71, 120
4, 212249, Note_on_c, 2, 71, 0
4, 212250, Note_on_c, 2, 68, 120
4, 212279, Note_on_c, 2, 68, 0
4, 212280, Note_on_c, 2, 71, 120
4, 212309, Note_on_c, 2, 71, 0
4, 212310, Note_on_c, 2, 68, 120
4, 212339, Note_on_c, 2, 68, 0
4, 212340, Note_on_c, 2, 71, 120
4, 212369, Note_on_c, 2, 71, 0
4, 212370, Note_on_c, 2, 68, 120
4, 212399, Note_on_c, 2, 68, 0
4, 212400, Note_on_c, 2, 64, 120
4, 212429, Note_on_c, 2, 64, 0
4, 212430, Note_on_c, 2, 68, 120
4, 212459, Note_on_c, 2, 68, 0
4, 212460, Note_on_c, 2, 64, 120
4, 212489, Note_on_c, 2, 64, 0
4, 212490, Note_on_c, 2, 68, 120
4, 212519, Note_on_c, 2, 68, 0
4, 212520, Note_on_c, 2, 64, 120
4, 212549, Note_on_c, 2, 64, 0
4, 212550, Note_on_c, 2, 68, 120
4, 212579, Note_on_c, 2, 68, 0
4, 212580, Note_on_c, 2, 61, 120
4, 212609, Note_on_c, 2, 61, 0
4, 212610, Note_on_c, 2, 64, 120
4, 212639, Note_on_c, 2, 64, 0
4, 212640, Note_on_c, 2, 69, 120
4, 212669, Note_on_c, 2, 69, 0
4, 212670, Note_on_c, 2, 68, 120
4, 212699, Note_on_c, 2, 68, 0
4, 212700, Note_on_c, 2, 69, 120
4, 212729, Note_on_c, 2, 69, 0
4, 212730, Note_on_c, 2, 66, 120
4, 212759, Note_on_c, 2, 66, 0
4, 212760, Note_on_c, 2, 64, 120
4, 212789, Note_on_c, 2, 64, 0
4, 212790, Note_on_c, 2, 68, 120
4, 212819, Note_on_c, 2, 68, 0
4, 212820, Note_on_c, 2, 71, 120
4, 212849, Note_on_c, 2, 71, 0
4, 212850, Note_on_c, 2, 76, 120
4, 212879, Note_on_c, 2, 76, 0
4, 212880, Note_on_c, 2, 71, 120
4, 212909, Note_on_c, 2, 71, 0
4, 212910, Note_on_c, 2, 68, 120
4, 212939, Note_on_c, 2, 68, 0
4, 212940, Note_on_c, 2, 64, 120
4, 212999, Note_on_c, 2, 64, 0
4, 213000, Note_on_c, 2, 68, 120
4, 213059, Note_on_c, 2, 68, 0
4, 213060, Note_on_c, 2, 66, 120
4, 213119, Note_on_c, 2, 66, 0
4, 213120, Note_on_c, 2, 64, 120
4, 213179, Note_on_c, 2, 64, 0
4, 213180, Note_on_c, 2, 59, 120
4, 213209, Note_on_c, 2, 59, 0
4, 213210, Note_on_c, 2, 61, 120
4, 213239, Note_on_c, 2, 61, 0
4, 213240, Note_on_c, 2, 63, 120
4, 213269, Note_on_c, 2, 63, 0
4, 213270, Note_on_c, 2, 64, 120
4, 213299, Note_on_c, 2, 64, 0
4, 213300, Note_on_c, 2, 66, 120
4, 213359, Note_on_c, 2, 66, 0
4, 213360, Note_on_c, 2, 69, 120
4, 213389, Note_on_c, 2, 69, 0
4, 213390, Note_on_c, 2, 66, 120
4, 213419, Note_on_c, 2, 66, 0
4, 213420, Note_on_c, 2, 68, 120
4, 213449, Note_on_c, 2, 68, 0
4, 213450, Note_on_c, 2, 64, 120
4, 213479, Note_on_c, 2, 64, 0
4, 213480, Note_on_c, 2, 71, 120
4, 213599, Note_on_c, 2, 71, 0
4, 213600, Note_on_c, 2, 71, 120
4, 213659, Note_on_c, 2, 71, 0
4, 213660, Note_on_c, 2, 73, 120
4, 213689, Note_on_c, 2, 73, 0
4, 213690, Note_on_c, 2, 69, 120
4, 213719, Note_on_c, 2, 69, 0
4, 213720, Note_on_c, 2, 73, 120
4, 213749, Note_on_c, 2, 73, 0
4, 213750, Note_on_c, 2, 69, 120
4, 213779, Note_on_c, 2, 69, 0
4, 213780, Note_on_c, 2, 73, 120
4, 213809, Note_on_c, 2, 73, 0
4, 213810, Note_on_c, 2, 69, 120
4, 213839, Note_on_c, 2, 69, 0
4, 213840, Note_on_c, 2, 66, 120
4, 213899, Note_on_c, 2, 66, 0
4, 213900, Note_on_c, 2, 68, 120
4, 213959, Note_on_c, 2, 68, 0
4, 213960, Note_on_c, 2, 69, 120
4, 214019, Note_on_c, 2, 69, 0
4, 214020, Note_on_c, 2, 71, 120
4, 214049, Note_on_c, 2, 71, 0
4, 214050, Note_on_c, 2, 68, 120
4, 214079, Note_on_c, 2, 68, 0
4, 214080, Note_on_c, 2, 71, 120
4, 214109, Note_on_c, 2, 71, 0
4, 214110, Note_on_c, 2, 68, 120
4, 214139, Note_on_c, 2, 68, 0
4, 214140, Note_on_c, 2, 71, 120
4, 214169, Note_on_c, 2, 71, 0
4, 214170, Note_on_c, 2, 68, 120
4, 214199, Note_on_c, 2, 68, 0
4, 214200, Note_on_c, 2, 64, 120
4, 214259, Note_on_c, 2, 64, 0
4, 214260, Note_on_c, 2, 66, 120
4, 214319, Note_on_c, 2, 66, 0
4, 214320, Note_on_c, 2, 68, 120
4, 214379, Note_on_c, 2, 68, 0
4, 214380, Note_on_c, 2, 69, 120
4, 214409, Note_on_c, 2, 69, 0
4, 214410, Note_on_c, 2, 73, 120
4, 214439, Note_on_c, 2, 73, 0
4, 214440, Note_on_c, 2, 71, 120
4, 214469, Note_on_c, 2, 71, 0
4, 214470, Note_on_c, 2, 74, 120
4, 214499, Note_on_c, 2, 74, 0
4, 214500, Note_on_c, 2, 73, 120
4, 214529, Note_on_c, 2, 73, 0
4, 214530, Note_on_c, 2, 76, 120
4, 214559, Note_on_c, 2, 76, 0
4, 214560, Note_on_c, 2, 75, 120
4, 214589, Note_on_c, 2, 75, 0
4, 214590, Note_on_c, 2, 78, 120
4, 214619, Note_on_c, 2, 78, 0
4, 214620, Note_on_c, 2, 76, 120
4, 214649, Note_on_c, 2, 76, 0
4, 214650, Note_on_c, 2, 80, 120
4, 214679, Note_on_c, 2, 80, 0
4, 214680, Note_on_c, 2, 78, 120
4, 214709, Note_on_c, 2, 78, 0
4, 214710, Note_on_c, 2, 81, 120
4, 214739, Note_on_c, 2, 81, 0
4, 214740, Note_on_c, 2, 80, 120
4, 214800, Note_on_c, 2, 80, 0
4, 214800, Note_on_c, 2, 76, 120
4, 214860, Note_on_c, 2, 76, 0
4, 214860, Note_on_c, 2, 75, 120
4, 214920, Note_on_c, 2, 75, 0
4, 214920, Note_on_c, 2, 76, 120
4, 215159, Note_on_c, 2, 76, 0
4, 215160, Note_on_c, 2, 74, 120
4, 215189, Note_on_c, 2, 74, 0
4, 215190, Note_on_c, 2, 73, 120
4, 215219, Note_on_c, 2, 73, 0
4, 215220, Note_on_c, 2, 71, 120
4, 215249, Note_on_c, 2, 71, 0
4, 215250, Note_on_c, 2, 69, 120
4, 215279, Note_on_c, 2, 69, 0
4, 215280, Note_on_c, 2, 76, 120
4, 215519, Note_on_c, 2, 76, 0
4, 215520, Note_on_c, 2, 64, 120
4, 215579, Note_on_c, 2, 64, 0
4, 215580, Note_on_c, 2, 69, 120
4, 215669, Note_on_c, 2, 69, 0
4, 215670, Note_on_c, 2, 68, 120
4, 215699, Note_on_c, 2, 68, 0
4, 215700, Note_on_c, 2, 69, 120
4, 215729, Note_on_c, 2, 69, 0
4, 215730, Note_on_c, 2, 68, 120
4, 215759, Note_on_c, 2, 68, 0
4, 215760, Note_on_c, 2, 66, 120
4, 215789, Note_on_c, 2, 66, 0
4, 215790, Note_on_c, 2, 64, 120
4, 215819, Note_on_c, 2, 64, 0
4, 215820, Note_on_c, 2, 73, 120
4, 215849, Note_on_c, 2, 73, 0
4, 215850, Note_on_c, 2, 74, 120
4, 215879, Note_on_c, 2, 74, 0
4, 215880, Note_on_c, 2, 76, 120
4, 215999, Note_on_c, 2, 76, 0
4, 216000, Note_on_c, 2, 71, 120
4, 216059, Note_on_c, 2, 71, 0
4, 216060, Note_on_c, 2, 73, 120
4, 216119, Note_on_c, 2, 73, 0
4, 216120, Note_on_c, 2, 74, 120
4, 216179, Note_on_c, 2, 74, 0
4, 216180, Note_on_c, 2, 73, 120
4, 216239, Note_on_c, 2, 73, 0
4, 216240, Note_on_c, 2, 74, 120
4, 216269, Note_on_c, 2, 74, 0
4, 216270, Note_on_c, 2, 73, 120
4, 216299, Note_on_c, 2, 73, 0
4, 216300, Note_on_c, 2, 71, 120
4, 216329, Note_on_c, 2, 71, 0
4, 216330, Note_on_c, 2, 69, 120
4, 216359, Note_on_c, 2, 69, 0
4, 216360, Note_on_c, 2, 71, 120
4, 216419, Note_on_c, 2, 71, 0
4, 216420, Note_on_c, 2, 64, 120
4, 216449, Note_on_c, 2, 64, 0
4, 216450, Note_on_c, 2, 66, 120
4, 216479, Note_on_c, 2, 66, 0
4, 216480, Note_on_c, 2, 68, 120
4, 216509, Note_on_c, 2, 68, 0
4, 216510, Note_on_c, 2, 64, 120
4, 216539, Note_on_c, 2, 64, 0
4, 216540, Note_on_c, 2, 69, 120
4, 216599, Note_on_c, 2, 69, 0
4, 216600, Note_on_c, 2, 73, 120
4, 216659, Note_on_c, 2, 73, 0
4, 216660, Note_on_c, 2, 71, 120
4, 216719, Note_on_c, 2, 71, 0
4, 216720, Note_on_c, 2, 69, 120
4, 216779, Note_on_c, 2, 69, 0
4, 216780, Note_on_c, 2, 64, 120
4, 216809, Note_on_c, 2, 64, 0
4, 216810, Note_on_c, 2, 66, 120
4, 216839, Note_on_c, 2, 66, 0
4, 216840, Note_on_c, 2, 68, 120
4, 216869, Note_on_c, 2, 68, 0
4, 216870, Note_on_c, 2, 69, 120
4, 216899, Note_on_c, 2, 69, 0
4, 216900, Note_on_c, 2, 71, 120
4, 216959, Note_on_c, 2, 71, 0
4, 216960, Note_on_c, 2, 74, 120
4, 216989, Note_on_c, 2, 74, 0
4, 216990, Note_on_c, 2, 71, 120
4, 217019, Note_on_c, 2, 71, 0
4, 217020, Note_on_c, 2, 73, 120
4, 217049, Note_on_c, 2, 73, 0
4, 217050, Note_on_c, 2, 69, 120
4, 217079, Note_on_c, 2, 69, 0
4, 217080, Note_on_c, 2, 76, 120
4, 217199, Note_on_c, 2, 76, 0
4, 217200, Note_on_c, 2, 76, 120
4, 217259, Note_on_c, 2, 76, 0
4, 217260, Note_on_c, 2, 78, 120
4, 217289, Note_on_c, 2, 78, 0
4, 217290, Note_on_c, 2, 74, 120
4, 217319, Note_on_c, 2, 74, 0
4, 217320, Note_on_c, 2, 78, 120
4, 217349, Note_on_c, 2, 78, 0
4, 217350, Note_on_c, 2, 74, 120
4, 217379, Note_on_c, 2, 74, 0
4, 217380, Note_on_c, 2, 78, 120
4, 217409, Note_on_c, 2, 78, 0
4, 217410, Note_on_c, 2, 74, 120
4, 217439, Note_on_c, 2, 74, 0
4, 217440, Note_on_c, 2, 71, 120
4, 217499, Note_on_c, 2, 71, 0
4, 217500, Note_on_c, 2, 73, 120
4, 217559, Note_on_c, 2, 73, 0
4, 217560, Note_on_c, 2, 74, 120
4, 217619, Note_on_c, 2, 74, 0
4, 217620, Note_on_c, 2, 76, 120
4, 217649, Note_on_c, 2, 76, 0
4, 217650, Note_on_c, 2, 73, 120
4, 217679, Note_on_c, 2, 73, 0
4, 217680, Note_on_c, 2, 76, 120
4, 217709, Note_on_c, 2, 76, 0
4, 217710, Note_on_c, 2, 73, 120
4, 217739, Note_on_c, 2, 73, 0
4, 217740, Note_on_c, 2, 76, 120
4, 217769, Note_on_c, 2, 76, 0
4, 217770, Note_on_c, 2, 73, 120
4, 217799, Note_on_c, 2, 73, 0
4, 217800, Note_on_c, 2, 69, 120
4, 217859, Note_on_c, 2, 69, 0
4, 217860, Note_on_c, 2, 71, 120
4, 217919, Note_on_c, 2, 71, 0
4, 217920, Note_on_c, 2, 73, 120
4, 217979, Note_on_c, 2, 73, 0
4, 217980, Note_on_c, 2, 74, 120
4, 218009, Note_on_c, 2, 74, 0
4, 218010, Note_on_c, 2, 73, 120
4, 218039, Note_on_c, 2, 73, 0
4, 218040, Note_on_c, 2, 73, 120
4, 218069, Note_on_c, 2, 73, 0
4, 218070, Note_on_c, 2, 71, 120
4, 218099, Note_on_c, 2, 71, 0
4, 218100, Note_on_c, 2, 71, 120
4, 218129, Note_on_c, 2, 71, 0
4, 218130, Note_on_c, 2, 69, 120
4, 218159, Note_on_c, 2, 69, 0
4, 218160, Note_on_c, 2, 68, 120
4, 218189, Note_on_c, 2, 68, 0
4, 218190, Note_on_c, 2, 62, 120
4, 218219, Note_on_c, 2, 62, 0
4, 218220, Note_on_c, 2, 62, 120
4, 218249, Note_on_c, 2, 62, 0
4, 218250, Note_on_c, 2, 61, 120
4, 218279, Note_on_c, 2, 61, 0
4, 218280, Note_on_c, 2, 61, 120
4, 218309, Note_on_c, 2, 61, 0
4, 218310, Note_on_c, 2, 59, 120
4, 218339, Note_on_c, 2, 59, 0
4, 218340, Note_on_c, 2, 61, 120
4, 218369, Note_on_c, 2, 61, 0
4, 218370, Note_on_c, 2, 64, 120
4, 218399, Note_on_c, 2, 64, 0
4, 218400, Note_on_c, 2, 66, 120
4, 218429, Note_on_c, 2, 66, 0
4, 218430, Note_on_c, 2, 69, 120
4, 218459, Note_on_c, 2, 69, 0
4, 218460, Note_on_c, 2, 68, 120
4, 218489, Note_on_c, 2, 68, 0
4, 218490, Note_on_c, 2, 66, 120
4, 218519, Note_on_c, 2, 66, 0
4, 218520, Note_on_c, 2, 71, 120
4, 218549, Note_on_c, 2, 71, 0
4, 218550, Note_on_c, 2, 64, 120
4, 218579, Note_on_c, 2, 64, 0
4, 218580, Note_on_c, 2, 66, 120
4, 218609, Note_on_c, 2, 66, 0
4, 218610, Note_on_c, 2, 69, 120
4, 218639, Note_on_c, 2, 69, 0
4, 218640, Note_on_c, 2, 68, 120
4, 218669, Note_on_c, 2, 68, 0
4, 218670, Note_on_c, 2, 71, 120
4, 218699, Note_on_c, 2, 71, 0
4, 218700, Note_on_c, 2, 69, 120
4, 218729, Note_on_c, 2, 69, 0
4, 218730, Note_on_c, 2, 73, 120
4, 218759, Note_on_c, 2, 73, 0
4, 218760, Note_on_c, 2, 71, 120
4, 218789, Note_on_c, 2, 71, 0
4, 218790, Note_on_c, 2, 74, 120
4, 218819, Note_on_c, 2, 74, 0
4, 218820, Note_on_c, 2, 73, 120
4, 218849, Note_on_c, 2, 73, 0
4, 218850, Note_on_c, 2, 71, 120
4, 218879, Note_on_c, 2, 71, 0
4, 218880, Note_on_c, 2, 73, 120
4, 218909, Note_on_c, 2, 73, 0
4, 218910, Note_on_c, 2, 76, 120
4, 218939, Note_on_c, 2, 76, 0
4, 218940, Note_on_c, 2, 74, 120
4, 218969, Note_on_c, 2, 74, 0
4, 218970, Note_on_c, 2, 78, 120
4, 218999, Note_on_c, 2, 78, 0
4, 219000, Note_on_c, 2, 76, 120
4, 219059, Note_on_c, 2, 76, 0
4, 219060, Note_on_c, 2, 62, 120
4, 219089, Note_on_c, 2, 62, 0
4, 219090, Note_on_c, 2, 61, 120
4, 219119, Note_on_c, 2, 61, 0
4, 219120, Note_on_c, 2, 61, 120
4, 219149, Note_on_c, 2, 61, 0
4, 219150, Note_on_c, 2, 59, 120
4, 219179, Note_on_c, 2, 59, 0
4, 219180, Note_on_c, 2, 59, 120
4, 219209, Note_on_c, 2, 59, 0
4, 219210, Note_on_c, 2, 57, 120
4, 219239, Note_on_c, 2, 57, 0
4, 219240, Note_on_c, 2, 57, 120
4, 219359, Note_on_c, 2, 57, 0
4, 219420, Note_on_c, 2, 69, 120
4, 219539, Note_on_c, 2, 69, 0
4, 219600, Note_on_c, 2, 66, 120
4, 219719, Note_on_c, 2, 66, 0
4, 219780, Note_on_c, 2, 63, 120
4, 219899, Note_on_c, 2, 63, 0
4, 219960, Note_on_c, 2, 64, 120
4, 220139, Note_on_c, 2, 64, 0
4, 220170, Note_on_c, 2, 66, 120
4, 220199, Note_on_c, 2, 66, 0
4, 220200, Note_on_c, 2, 68, 120
4, 220229, Note_on_c, 2, 68, 0
4, 220230, Note_on_c, 2, 69, 120
4, 220259, Note_on_c, 2, 69, 0
4, 220260, Note_on_c, 2, 71, 120
4, 220289, Note_on_c, 2, 71, 0
4, 220290, Note_on_c, 2, 73, 120
4, 220319, Note_on_c, 2, 73, 0
4, 220320, Note_on_c, 2, 74, 120
4, 220349, Note_on_c, 2, 74, 0
4, 220350, Note_on_c, 2, 78, 120
4, 220379, Note_on_c, 2, 78, 0
4, 220380, Note_on_c, 2, 76, 120
4, 220409, Note_on_c, 2, 76, 0
4, 220410, Note_on_c, 2, 74, 120
4, 220439, Note_on_c, 2, 74, 0
4, 220440, Note_on_c, 2, 73, 120
4, 220469, Note_on_c, 2, 73, 0
4, 220470, Note_on_c, 2, 71, 120
4, 220499, Note_on_c, 2, 71, 0
4, 220500, Note_on_c, 2, 69, 120
4, 220559, Note_on_c, 2, 69, 0
4, 220560, Note_on_c, 2, 64, 120
4, 220589, Note_on_c, 2, 64, 0
4, 220590, Note_on_c, 2, 62, 120
4, 220619, Note_on_c, 2, 62, 0
4, 220620, Note_on_c, 2, 61, 120
4, 220649, Note_on_c, 2, 61, 0
4, 220650, Note_on_c, 2, 59, 120
4, 220679, Note_on_c, 2, 59, 0
4, 220680, Note_on_c, 2, 57, 120
4, 220799, Note_on_c, 2, 57, 0
4, 220800, Note_on_c, 2, 64, 120
4, 220859, Note_on_c, 2, 64, 0
4, 220860, Note_on_c, 2, 69, 120
4, 220919, Note_on_c, 2, 69, 0
4, 220920, Note_on_c, 2, 73, 120
4, 220979, Note_on_c, 2, 73, 0
4, 220980, Note_on_c, 2, 71, 120
4, 221039, Note_on_c, 2, 71, 0
4, 221040, Note_on_c, 2, 69, 120
4, 221099, Note_on_c, 2, 69, 0
4, 221100, Note_on_c, 2, 64, 120
4, 221129, Note_on_c, 2, 64, 0
4, 221130, Note_on_c, 2, 66, 120
4, 221159, Note_on_c, 2, 66, 0
4, 221160, Note_on_c, 2, 68, 120
4, 221189, Note_on_c, 2, 68, 0
4, 221190, Note_on_c, 2, 69, 120
4, 221219, Note_on_c, 2, 69, 0
4, 221220, Note_on_c, 2, 71, 120
4, 221279, Note_on_c, 2, 71, 0
4, 221280, Note_on_c, 2, 74, 120
4, 221309, Note_on_c, 2, 74, 0
4, 221310, Note_on_c, 2, 71, 120
4, 221339, Note_on_c, 2, 71, 0
4, 221340, Note_on_c, 2, 73, 120
4, 221369, Note_on_c, 2, 73, 0
4, 221370, Note_on_c, 2, 69, 120
4, 221399, Note_on_c, 2, 69, 0
4, 221400, Note_on_c, 2, 76, 120
4, 221519, Note_on_c, 2, 76, 0
4, 221520, Note_on_c, 2, 76, 120
4, 221579, Note_on_c, 2, 76, 0
4, 221580, Note_on_c, 2, 78, 120
4, 221609, Note_on_c, 2, 78, 0
4, 221610, Note_on_c, 2, 74, 120
4, 221639, Note_on_c, 2, 74, 0
4, 221640, Note_on_c, 2, 78, 120
4, 221669, Note_on_c, 2, 78, 0
4, 221670, Note_on_c, 2, 74, 120
4, 221699, Note_on_c, 2, 74, 0
4, 221700, Note_on_c, 2, 78, 120
4, 221729, Note_on_c, 2, 78, 0
4, 221730, Note_on_c, 2, 74, 120
4, 221759, Note_on_c, 2, 74, 0
4, 221760, Note_on_c, 2, 71, 120
4, 221819, Note_on_c, 2, 71, 0
4, 221820, Note_on_c, 2, 73, 120
4, 221879, Note_on_c, 2, 73, 0
4, 221880, Note_on_c, 2, 74, 120
4, 221939, Note_on_c, 2, 74, 0
4, 221940, Note_on_c, 2, 76, 120
4, 221969, Note_on_c, 2, 76, 0
4, 221970, Note_on_c, 2, 73, 120
4, 221999, Note_on_c, 2, 73, 0
4, 222000, Note_on_c, 2, 76, 120
4, 222029, Note_on_c, 2, 76, 0
4, 222030, Note_on_c, 2, 73, 120
4, 222059, Note_on_c, 2, 73, 0
4, 222060, Note_on_c, 2, 76, 120
4, 222089, Note_on_c, 2, 76, 0
4, 222090, Note_on_c, 2, 73, 120
4, 222119, Note_on_c, 2, 73, 0
4, 222120, Note_on_c, 2, 69, 120
4, 222179, Note_on_c, 2, 69, 0
4, 222180, Note_on_c, 2, 71, 120
4, 222239, Note_on_c, 2, 71, 0
4, 222240, Note_on_c, 2, 73, 120
4, 222299, Note_on_c, 2, 73, 0
4, 222300, Note_on_c, 2, 74, 120
4, 222329, Note_on_c, 2, 74, 0
4, 222330, Note_on_c, 2, 73, 120
4, 222359, Note_on_c, 2, 73, 0
4, 222360, Note_on_c, 2, 73, 120
4, 222389, Note_on_c, 2, 73, 0
4, 222390, Note_on_c, 2, 71, 120
4, 222419, Note_on_c, 2, 71, 0
4, 222420, Note_on_c, 2, 71, 120
4, 222449, Note_on_c, 2, 71, 0
4, 222450, Note_on_c, 2, 69, 120
4, 222479, Note_on_c, 2, 69, 0
4, 222480, Note_on_c, 2, 68, 120
4, 222509, Note_on_c, 2, 68, 0
4, 222510, Note_on_c, 2, 62, 120
4, 222539, Note_on_c, 2, 62, 0
4, 222540, Note_on_c, 2, 62, 120
4, 222569, Note_on_c, 2, 62, 0
4, 222570, Note_on_c, 2, 61, 120
4, 222599, Note_on_c, 2, 61, 0
4, 222600, Note_on_c, 2, 61, 120
4, 222629, Note_on_c, 2, 61, 0
4, 222630, Note_on_c, 2, 59, 120
4, 222659, Note_on_c, 2, 59, 0
4, 222660, Note_on_c, 2, 61, 120
4, 222689, Note_on_c, 2, 61, 0
4, 222690, Note_on_c, 2, 64, 120
4, 222719, Note_on_c, 2, 64, 0
4, 222720, Note_on_c, 2, 66, 120
4, 222749, Note_on_c, 2, 66, 0
4, 222750, Note_on_c, 2, 69, 120
4, 222779, Note_on_c, 2, 69, 0
4, 222780, Note_on_c, 2, 68, 120
4, 222809, Note_on_c, 2, 68, 0
4, 222810, Note_on_c, 2, 71, 120
4, 222839, Note_on_c, 2, 71, 0
4, 222840, Note_on_c, 2, 69, 120
4, 222869, Note_on_c, 2, 69, 0
4, 222870, Note_on_c, 2, 64, 120
4, 222899, Note_on_c, 2, 64, 0
4, 222900, Note_on_c, 2, 66, 120
4, 222929, Note_on_c, 2, 66, 0
4, 222930, Note_on_c, 2, 69, 120
4, 222959, Note_on_c, 2, 69, 0
4, 222960, Note_on_c, 2, 68, 120
4, 222989, Note_on_c, 2, 68, 0
4, 222990, Note_on_c, 2, 71, 120
4, 223019, Note_on_c, 2, 71, 0
4, 223020, Note_on_c, 2, 69, 120
4, 223049, Note_on_c, 2, 69, 0
4, 223050, Note_on_c, 2, 73, 120
4, 223079, Note_on_c, 2, 73, 0
4, 223080, Note_on_c, 2, 71, 120
4, 223109, Note_on_c, 2, 71, 0
4, 223110, Note_on_c, 2, 74, 120
4, 223139, Note_on_c, 2, 74, 0
4, 223140, Note_on_c, 2, 73, 120
4, 223169, Note_on_c, 2, 73, 0
4, 223170, Note_on_c, 2, 71, 120
4, 223199, Note_on_c, 2, 71, 0
4, 223200, Note_on_c, 2, 73, 120
4, 223229, Note_on_c, 2, 73, 0
4, 223230, Note_on_c, 2, 76, 120
4, 223259, Note_on_c, 2, 76, 0
4, 223260, Note_on_c, 2, 74, 120
4, 223289, Note_on_c, 2, 74, 0
4, 223290, Note_on_c, 2, 78, 120
4, 223319, Note_on_c, 2, 78, 0
4, 223320, Note_on_c, 2, 76, 120
4, 223379, Note_on_c, 2, 76, 0
4, 223380, Note_on_c, 2, 62, 120
4, 223409, Note_on_c, 2, 62, 0
4, 223410, Note_on_c, 2, 61, 120
4, 223439, Note_on_c, 2, 61, 0
4, 223440, Note_on_c, 2, 61, 120
4, 223469, Note_on_c, 2, 61, 0
4, 223470, Note_on_c, 2, 59, 120
4, 223499, Note_on_c, 2, 59, 0
4, 223500, Note_on_c, 2, 59, 120
4, 223529, Note_on_c, 2, 59, 0
4, 223530, Note_on_c, 2, 57, 120
4, 223559, Note_on_c, 2, 57, 0
4, 223560, Note_on_c, 2, 57, 120
4, 223799, Note_on_c, 2, 57, 0
4, 224280, Note_on_c, 2, 80, 120
4, 224759, Note_on_c, 2, 80, 0
4, 224760, Note_on_c, 2, 77, 120
4, 224999, Note_on_c, 2, 77, 0
4, 225000, Note_on_c, 2, 78, 120
4, 225119, Note_on_c, 2, 78, 0
4, 225120, Note_on_c, 2, 73, 120
4, 225239, Note_on_c, 2, 73, 0
4, 225240, Note_on_c, 2, 66, 120
4, 225359, Note_on_c, 2, 66, 0
4, 225360, Note_on_c, 2, 76, 120
4, 225479, Note_on_c, 2, 76, 0
4, 225480, Note_on_c, 2, 75, 120
4, 225599, Note_on_c, 2, 75, 0
4, 225600, Note_on_c, 2, 73, 120
4, 225659, Note_on_c, 2, 73, 0
4, 225660, Note_on_c, 2, 75, 120
4, 225719, Note_on_c, 2, 75, 0
4, 225720, Note_on_c, 2, 71, 120
4, 225839, Note_on_c, 2, 71, 0
4, 226200, Note_on_c, 2, 78, 120
4, 226559, Note_on_c, 2, 78, 0
4, 226560, Note_on_c, 2, 80, 120
4, 226619, Note_on_c, 2, 80, 0
4, 226620, Note_on_c, 2, 81, 120
4, 226679, Note_on_c, 2, 81, 0
4, 226680, Note_on_c, 2, 80, 120
4, 226739, Note_on_c, 2, 80, 0
4, 226740, Note_on_c, 2, 78, 120
4, 226799, Note_on_c, 2, 78, 0
4, 226800, Note_on_c, 2, 76, 120
4, 226859, Note_on_c, 2, 76, 0
4, 226860, Note_on_c, 2, 75, 120
4, 226919, Note_on_c, 2, 75, 0
4, 226920, Note_on_c, 2, 76, 120
4, 227039, Note_on_c, 2, 76, 0
4, 227040, Note_on_c, 2, 75, 120
4, 227099, Note_on_c, 2, 75, 0
4, 227100, Note_on_c, 2, 76, 120
4, 227159, Note_on_c, 2, 76, 0
4, 227160, Note_on_c, 2, 73, 120
4, 227279, Note_on_c, 2, 73, 0
4, 228000, Note_on_c, 2, 61, 120
4, 228119, Note_on_c, 2, 61, 0
4, 228120, Note_on_c, 2, 68, 120
4, 228479, Note_on_c, 2, 68, 0
4, 228480, Note_on_c, 2, 69, 120
4, 228539, Note_on_c, 2, 69, 0
4, 228540, Note_on_c, 2, 71, 120
4, 228599, Note_on_c, 2, 71, 0
4, 228600, Note_on_c, 2, 69, 120
4, 228659, Note_on_c, 2, 69, 0
4, 228660, Note_on_c, 2, 68, 120
4, 228719, Note_on_c, 2, 68, 0
4, 228720, Note_on_c, 2, 66, 120
4, 228779, Note_on_c, 2, 66, 0
4, 228780, Note_on_c, 2, 65, 120
4, 228839, Note_on_c, 2, 65, 0
4, 228840, Note_on_c, 2, 66, 120
4, 228959, Note_on_c, 2, 66, 0
4, 228960, Note_on_c, 2, 65, 120
4, 229019, Note_on_c, 2, 65, 0
4, 229020, Note_on_c, 2, 66, 120
4, 229079, Note_on_c, 2, 66, 0
4, 229080, Note_on_c, 2, 68, 120
4, 229199, Note_on_c, 2, 68, 0
4, 229200, Note_on_c, 2, 66, 120
4, 229259, Note_on_c, 2, 66, 0
4, 229260, Note_on_c, 2, 65, 120
4, 229319, Note_on_c, 2, 65, 0
4, 229320, Note_on_c, 2, 66, 120
4, 229559, Note_on_c, 2, 66, 0
4, 230040, Note_on_c, 2, 78, 120
4, 230519, Note_on_c, 2, 78, 0
4, 230520, Note_on_c, 2, 75, 120
4, 230759, Note_on_c, 2, 75, 0
4, 230760, Note_on_c, 2, 76, 120
4, 230879, Note_on_c, 2, 76, 0
4, 230880, Note_on_c, 2, 71, 120
4, 230999, Note_on_c, 2, 71, 0
4, 231000, Note_on_c, 2, 64, 120
4, 231119, Note_on_c, 2, 64, 0
4, 231120, Note_on_c, 2, 74, 120
4, 231239, Note_on_c, 2, 74, 0
4, 231240, Note_on_c, 2, 73, 120
4, 231359, Note_on_c, 2, 73, 0
4, 231360, Note_on_c, 2, 71, 120
4, 231419, Note_on_c, 2, 71, 0
4, 231420, Note_on_c, 2, 73, 120
4, 231479, Note_on_c, 2, 73, 0
4, 231480, Note_on_c, 2, 69, 120
4, 231599, Note_on_c, 2, 69, 0
4, 231960, Note_on_c, 2, 76, 120
4, 232319, Note_on_c, 2, 76, 0
4, 232320, Note_on_c, 2, 78, 120
4, 232379, Note_on_c, 2, 78, 0
4, 232380, Note_on_c, 2, 79, 120
4, 232439, Note_on_c, 2, 79, 0
4, 232440, Note_on_c, 2, 78, 120
4, 232499, Note_on_c, 2, 78, 0
4, 232500, Note_on_c, 2, 76, 120
4, 232559, Note_on_c, 2, 76, 0
4, 232560, Note_on_c, 2, 74, 120
4, 232619, Note_on_c, 2, 74, 0
4, 232620, Note_on_c, 2, 73, 120
4, 232679, Note_on_c, 2, 73, 0
4, 232680, Note_on_c, 2, 74, 120
4, 232799, Note_on_c, 2, 74, 0
4, 232800, Note_on_c, 2, 73, 120
4, 232859, Note_on_c, 2, 73, 0
4, 232860, Note_on_c, 2, 74, 120
4, 232919, Note_on_c, 2, 74, 0
4, 232920, Note_on_c, 2, 71, 120
4, 233039, Note_on_c, 2, 71, 0
4, 233760, Note_on_c, 2, 59, 120
4, 233879, Note_on_c, 2, 59, 0
4, 233880, Note_on_c, 2, 66, 120
4, 234239, Note_on_c, 2, 66, 0
4, 234240, Note_on_c, 2, 67, 120
4, 234299, Note_on_c, 2, 67, 0
4, 234300, Note_on_c, 2, 69, 120
4, 234359, Note_on_c, 2, 69, 0
4, 234360, Note_on_c, 2, 67, 120
4, 234419, Note_on_c, 2, 67, 0
4, 234420, Note_on_c, 2, 66, 120
4, 234479, Note_on_c, 2, 66, 0
4, 234480, Note_on_c, 2, 64, 120
4, 234539, Note_on_c, 2, 64, 0
4, 234540, Note_on_c, 2, 63, 120
4, 234599, Note_on_c, 2, 63, 0
4, 234600, Note_on_c, 2, 64, 120
4, 234719, Note_on_c, 2, 64, 0
4, 234720, Note_on_c, 2, 63, 120
4, 234779, Note_on_c, 2, 63, 0
4, 234780, Note_on_c, 2, 64, 120
4, 234839, Note_on_c, 2, 64, 0
4, 234840, Note_on_c, 2, 66, 120
4, 234959, Note_on_c, 2, 66, 0
4, 234960, Note_on_c, 2, 64, 120
4, 235019, Note_on_c, 2, 64, 0
4, 235020, Note_on_c, 2, 63, 120
4, 235079, Note_on_c, 2, 63, 0
4, 235080, Note_on_c, 2, 64, 120
4, 235319, Note_on_c, 2, 64, 0
4, 235440, Note_on_c, 2, 71, 120
4, 235559, Note_on_c, 2, 71, 0
4, 235560, Note_on_c, 2, 76, 120
4, 235799, Note_on_c, 2, 76, 0
4, 235920, Note_on_c, 2, 66, 120
4, 236039, Note_on_c, 2, 66, 0
4, 236040, Note_on_c, 2, 74, 120
4, 236159, Note_on_c, 2, 74, 0
4, 236160, Note_on_c, 2, 71, 120
4, 236279, Note_on_c, 2, 71, 0
4, 236280, Note_on_c, 2, 70, 120
4, 236399, Note_on_c, 2, 70, 0
4, 236400, Note_on_c, 2, 73, 120
4, 236519, Note_on_c, 2, 73, 0
4, 236520, Note_on_c, 2, 66, 120
4, 236579, Note_on_c, 2, 66, 0
4, 236580, Note_on_c, 2, 64, 120
4, 236639, Note_on_c, 2, 64, 0
4, 236640, Note_on_c, 2, 62, 120
4, 236699, Note_on_c, 2, 62, 0
4, 236700, Note_on_c, 2, 61, 120
4, 236759, Note_on_c, 2, 61, 0
4, 236760, Note_on_c, 2, 59, 120
4, 236999, Note_on_c, 2, 59, 0
4, 237240, Note_on_c, 2, 80, 120
4, 237540, Note_on_c, 2, 80, 0
4, 237540, Note_on_c, 2, 78, 120
4, 237599, Note_on_c, 2, 78, 0
4, 237600, Note_on_c, 2, 76, 120
4, 237659, Note_on_c, 2, 76, 0
4, 237660, Note_on_c, 2, 74, 120
4, 237719, Note_on_c, 2, 74, 0
4, 237720, Note_on_c, 2, 73, 120
4, 237779, Note_on_c, 2, 73, 0
4, 237780, Note_on_c, 2, 70, 120
4, 237839, Note_on_c, 2, 70, 0
4, 237840, Note_on_c, 2, 71, 120
4, 238019, Note_on_c, 2, 71, 0
4, 238020, Note_on_c, 2, 69, 120
4, 238079, Note_on_c, 2, 69, 0
4, 238080, Note_on_c, 2, 67, 120
4, 238139, Note_on_c, 2, 67, 0
4, 238140, Note_on_c, 2, 66, 120
4, 238199, Note_on_c, 2, 66, 0
4, 238200, Note_on_c, 2, 65, 120
4, 238259, Note_on_c, 2, 65, 0
4, 238260, Note_on_c, 2, 74, 120
4, 238319, Note_on_c, 2, 74, 0
4, 238320, Note_on_c, 2, 73, 120
4, 238379, Note_on_c, 2, 73, 0
4, 238380, Note_on_c, 2, 71, 120
4, 238439, Note_on_c, 2, 71, 0
4, 238440, Note_on_c, 2, 69, 120
4, 238499, Note_on_c, 2, 69, 0
4, 238500, Note_on_c, 2, 68, 120
4, 238559, Note_on_c, 2, 68, 0
4, 238560, Note_on_c, 2, 66, 120
4, 238619, Note_on_c, 2, 66, 0
4, 238620, Note_on_c, 2, 65, 120
4, 238679, Note_on_c, 2, 65, 0
4, 238680, Note_on_c, 2, 66, 120
4, 238919, Note_on_c, 2, 66, 0
4, 239160, Note_on_c, 2, 80, 120
4, 239399, Note_on_c, 2, 80, 0
4, 239460, Note_on_c, 2, 78, 120
4, 239519, Note_on_c, 2, 78, 0
4, 239520, Note_on_c, 2, 76, 120
4, 239579, Note_on_c, 2, 76, 0
4, 239580, Note_on_c, 2, 74, 120
4, 239639, Note_on_c, 2, 74, 0
4, 239640, Note_on_c, 2, 73, 120
4, 239699, Note_on_c, 2, 73, 0
4, 239700, Note_on_c, 2, 70, 120
4, 239759, Note_on_c, 2, 70, 0
4, 239760, Note_on_c, 2, 71, 120
4, 239939, Note_on_c, 2, 71, 0
4, 239940, Note_on_c, 2, 69, 120
4, 239999, Note_on_c, 2, 69, 0
4, 240000, Note_on_c, 2, 68, 120
4, 240059, Note_on_c, 2, 68, 0
4, 240060, Note_on_c, 2, 66, 120
4, 240119, Note_on_c, 2, 66, 0
4, 240120, Note_on_c, 2, 65, 120
4, 240179, Note_on_c, 2, 65, 0
4, 240180, Note_on_c, 2, 74, 120
4, 240239, Note_on_c, 2, 74, 0
4, 240240, Note_on_c, 2, 73, 120
4, 240299, Note_on_c, 2, 73, 0
4, 240300, Note_on_c, 2, 71, 120
4, 240359, Note_on_c, 2, 71, 0
4, 240360, Note_on_c, 2, 69, 120
4, 240419, Note_on_c, 2, 69, 0
4, 240420, Note_on_c, 2, 68, 120
4, 240479, Note_on_c, 2, 68, 0
4, 240480, Note_on_c, 2, 66, 120
4, 240539, Note_on_c, 2, 66, 0
4, 240540, Note_on_c, 2, 65, 120
4, 240599, Note_on_c, 2, 65, 0
4, 240600, Note_on_c, 2, 66, 120
4, 240839, Note_on_c, 2, 66, 0
4, 241440, Note_on_c, 2, 61, 120
4, 241559, Note_on_c, 2, 61, 0
4, 241560, Note_on_c, 2, 73, 120
4, 241919, Note_on_c, 2, 73, 0
4, 241920, Note_on_c, 2, 74, 120
4, 241979, Note_on_c, 2, 74, 0
4, 241980, Note_on_c, 2, 76, 120
4, 242039, Note_on_c, 2, 76, 0
4, 242040, Note_on_c, 2, 74, 120
4, 242099, Note_on_c, 2, 74, 0
4, 242100, Note_on_c, 2, 73, 120
4, 242159, Note_on_c, 2, 73, 0
4, 242160, Note_on_c, 2, 71, 120
4, 242219, Note_on_c, 2, 71, 0
4, 242220, Note_on_c, 2, 70, 120
4, 242279, Note_on_c, 2, 70, 0
4, 242280, Note_on_c, 2, 71, 120
4, 242399, Note_on_c, 2, 71, 0
4, 242400, Note_on_c, 2, 70, 120
4, 242459, Note_on_c, 2, 70, 0
4, 242460, Note_on_c, 2, 71, 120
4, 242519, Note_on_c, 2, 71, 0
4, 242520, Note_on_c, 2, 73, 120
4, 242639, Note_on_c, 2, 73, 0
4, 242640, Note_on_c, 2, 71, 120
4, 242699, Note_on_c, 2, 71, 0
4, 242700, Note_on_c, 2, 70, 120
4, 242759, Note_on_c, 2, 70, 0
4, 242760, Note_on_c, 2, 71, 120
4, 242999, Note_on_c, 2, 71, 0
4, 243120, Note_on_c, 2, 78, 120
4, 243239, Note_on_c, 2, 78, 0
4, 243240, Note_on_c, 2, 83, 120
4, 243479, Note_on_c, 2, 83, 0
4, 243600, Note_on_c, 2, 73, 120
4, 243719, Note_on_c, 2, 73, 0
4, 243720, Note_on_c, 2, 81, 120
4, 243839, Note_on_c, 2, 81, 0
4, 243840, Note_on_c, 2, 78, 120
4, 243959, Note_on_c, 2, 78, 0
4, 243960, Note_on_c, 2, 77, 120
4, 244019, Note_on_c, 2, 77, 0
4, 244020, Note_on_c, 2, 78, 120
4, 244079, Note_on_c, 2, 78, 0
4, 244080, Note_on_c, 2, 80, 120
4, 244259, Note_on_c, 2, 80, 0
4, 244260, Note_on_c, 2, 78, 120
4, 244319, Note_on_c, 2, 78, 0
4, 244320, Note_on_c, 2, 77, 120
4, 244379, Note_on_c, 2, 77, 0
4, 244380, Note_on_c, 2, 75, 120
4, 244439, Note_on_c, 2, 75, 0
4, 244440, Note_on_c, 2, 73, 120
4, 244799, Note_on_c, 2, 73, 0
4, 244800, Note_on_c, 2, 73, 120
4, 244919, Note_on_c, 2, 73, 0
4, 244920, Note_on_c, 2, 69, 120
4, 245039, Note_on_c, 2, 69, 0
4, 245040, Note_on_c, 2, 78, 120
4, 245219, Note_on_c, 2, 78, 0
4, 245220, Note_on_c, 2, 76, 120
4, 245279, Note_on_c, 2, 76, 0
4, 245280, Note_on_c, 2, 74, 120
4, 245339, Note_on_c, 2, 74, 0
4, 245340, Note_on_c, 2, 73, 120
4, 245399, Note_on_c, 2, 73, 0
4, 245400, Note_on_c, 2, 74, 120
4, 245459, Note_on_c, 2, 74, 0
4, 245460, Note_on_c, 2, 73, 120
4, 245519, Note_on_c, 2, 73, 0
4, 245520, Note_on_c, 2, 71, 120
4, 245579, Note_on_c, 2, 71, 0
4, 245580, Note_on_c, 2, 69, 120
4, 245639, Note_on_c, 2, 69, 0
4, 245640, Note_on_c, 2, 68, 120
4, 245759, Note_on_c, 2, 68, 0
4, 245760, Note_on_c, 2, 66, 120
4, 245819, Note_on_c, 2, 66, 0
4, 245820, Note_on_c, 2, 65, 120
4, 245879, Note_on_c, 2, 65, 0
4, 245880, Note_on_c, 2, 68, 120
4, 245939, Note_on_c, 2, 68, 0
4, 245940, Note_on_c, 2, 66, 120
4, 245999, Note_on_c, 2, 66, 0
4, 246000, Note_on_c, 2, 65, 120
4, 246059, Note_on_c, 2, 65, 0
4, 246060, Note_on_c, 2, 63, 120
4, 246119, Note_on_c, 2, 63, 0
4, 246120, Note_on_c, 2, 65, 120
4, 246239, Note_on_c, 2, 65, 0
4, 246240, Note_on_c, 2, 61, 120
4, 246359, Note_on_c, 2, 61, 0
4, 246360, Note_on_c, 2, 66, 120
4, 246839, Note_on_c, 2, 66, 0
4, 246840, Note_on_c, 2, 65, 120
4, 247079, Note_on_c, 2, 65, 0
4, 247080, Note_on_c, 2, 66, 120
4, 247319, Note_on_c, 2, 66, 0
4, 247440, Note_on_c, 2, 64, 120
4, 247499, Note_on_c, 2, 64, 0
4, 247500, Note_on_c, 2, 69, 120
4, 247559, Note_on_c, 2, 69, 0
4, 247560, Note_on_c, 2, 73, 120
4, 247619, Note_on_c, 2, 73, 0
4, 247620, Note_on_c, 2, 71, 120
4, 247679, Note_on_c, 2, 71, 0
4, 247680, Note_on_c, 2, 69, 120
4, 247739, Note_on_c, 2, 69, 0
4, 247740, Note_on_c, 2, 64, 120
4, 247769, Note_on_c, 2, 64, 0
4, 247770, Note_on_c, 2, 66, 120
4, 247799, Note_on_c, 2, 66, 0
4, 247800, Note_on_c, 2, 68, 120
4, 247829, Note_on_c, 2, 68, 0
4, 247830, Note_on_c, 2, 69, 120
4, 247859, Note_on_c, 2, 69, 0
4, 247860, Note_on_c, 2, 71, 120
4, 247919, Note_on_c, 2, 71, 0
4, 247920, Note_on_c, 2, 74, 120
4, 247949, Note_on_c, 2, 74, 0
4, 247950, Note_on_c, 2, 71, 120
4, 247979, Note_on_c, 2, 71, 0
4, 247980, Note_on_c, 2, 73, 120
4, 248009, Note_on_c, 2, 73, 0
4, 248010, Note_on_c, 2, 69, 120
4, 248039, Note_on_c, 2, 69, 0
4, 248040, Note_on_c, 2, 76, 120
4, 248159, Note_on_c, 2, 76, 0
4, 248160, Note_on_c, 2, 76, 120
4, 248219, Note_on_c, 2, 76, 0
4, 248220, Note_on_c, 2, 78, 120
4, 248249, Note_on_c, 2, 78, 0
4, 248250, Note_on_c, 2, 74, 120
4, 248279, Note_on_c, 2, 74, 0
4, 248280, Note_on_c, 2, 78, 120
4, 248309, Note_on_c, 2, 78, 0
4, 248310, Note_on_c, 2, 74, 120
4, 248339, Note_on_c, 2, 74, 0
4, 248340, Note_on_c, 2, 78, 120
4, 248369, Note_on_c, 2, 78, 0
4, 248370, Note_on_c, 2, 74, 120
4, 248399, Note_on_c, 2, 74, 0
4, 248400, Note_on_c, 2, 71, 120
4, 248459, Note_on_c, 2, 71, 0
4, 248460, Note_on_c, 2, 73, 120
4, 248519, Note_on_c, 2, 73, 0
4, 248520, Note_on_c, 2, 74, 120
4, 248579, Note_on_c, 2, 74, 0
4, 248580, Note_on_c, 2, 76, 120
4, 248609, Note_on_c, 2, 76, 0
4, 248610, Note_on_c, 2, 73, 120
4, 248639, Note_on_c, 2, 73, 0
4, 248640, Note_on_c, 2, 76, 120
4, 248669, Note_on_c, 2, 76, 0
4, 248670, Note_on_c, 2, 73, 120
4, 248699, Note_on_c, 2, 73, 0
4, 248700, Note_on_c, 2, 76, 120
4, 248729, Note_on_c, 2, 76, 0
4, 248730, Note_on_c, 2, 73, 120
4, 248759, Note_on_c, 2, 73, 0
4, 248760, Note_on_c, 2, 69, 120
4, 248819, Note_on_c, 2, 69, 0
4, 248820, Note_on_c, 2, 71, 120
4, 248879, Note_on_c, 2, 71, 0
4, 248880, Note_on_c, 2, 73, 120
4, 248939, Note_on_c, 2, 73, 0
4, 248940, Note_on_c, 2, 74, 120
4, 248969, Note_on_c, 2, 74, 0
4, 248970, Note_on_c, 2, 73, 120
4, 248999, Note_on_c, 2, 73, 0
4, 249000, Note_on_c, 2, 73, 120
4, 249029, Note_on_c, 2, 73, 0
4, 249030, Note_on_c, 2, 71, 120
4, 249059, Note_on_c, 2, 71, 0
4, 249060, Note_on_c, 2, 71, 120
4, 249089, Note_on_c, 2, 71, 0
4, 249090, Note_on_c, 2, 69, 120
4, 249119, Note_on_c, 2, 69, 0
4, 249120, Note_on_c, 2, 68, 120
4, 249149, Note_on_c, 2, 68, 0
4, 249150, Note_on_c, 2, 62, 120
4, 249179, Note_on_c, 2, 62, 0
4, 249180, Note_on_c, 2, 62, 120
4, 249209, Note_on_c, 2, 62, 0
4, 249210, Note_on_c, 2, 61, 120
4, 249239, Note_on_c, 2, 61, 0
4, 249240, Note_on_c, 2, 61, 120
4, 249269, Note_on_c, 2, 61, 0
4, 249270, Note_on_c, 2, 59, 120
4, 249299, Note_on_c, 2, 59, 0
4, 249300, Note_on_c, 2, 61, 120
4, 249329, Note_on_c, 2, 61, 0
4, 249330, Note_on_c, 2, 64, 120
4, 249359, Note_on_c, 2, 64, 0
4, 249360, Note_on_c, 2, 66, 120
4, 249389, Note_on_c, 2, 66, 0
4, 249390, Note_on_c, 2, 69, 120
4, 249419, Note_on_c, 2, 69, 0
4, 249420, Note_on_c, 2, 68, 120
4, 249449, Note_on_c, 2, 68, 0
4, 249450, Note_on_c, 2, 71, 120
4, 249479, Note_on_c, 2, 71, 0
4, 249480, Note_on_c, 2, 69, 120
4, 249509, Note_on_c, 2, 69, 0
4, 249510, Note_on_c, 2, 64, 120
4, 249539, Note_on_c, 2, 64, 0
4, 249540, Note_on_c, 2, 66, 120
4, 249569, Note_on_c, 2, 66, 0
4, 249570, Note_on_c, 2, 69, 120
4, 249599, Note_on_c, 2, 69, 0
4, 249600, Note_on_c, 2, 68, 120
4, 249629, Note_on_c, 2, 68, 0
4, 249630, Note_on_c, 2, 71, 120
4, 249659, Note_on_c, 2, 71, 0
4, 249660, Note_on_c, 2, 69, 120
4, 249689, Note_on_c, 2, 69, 0
4, 249690, Note_on_c, 2, 73, 120
4, 249719, Note_on_c, 2, 73, 0
4, 249720, Note_on_c, 2, 71, 120
4, 249749, Note_on_c, 2, 71, 0
4, 249750, Note_on_c, 2, 74, 120
4, 249779, Note_on_c, 2, 74, 0
4, 249780, Note_on_c, 2, 73, 120
4, 249809, Note_on_c, 2, 73, 0
4, 249810, Note_on_c, 2, 71, 120
4, 249839, Note_on_c, 2, 71, 0
4, 249840, Note_on_c, 2, 73, 120
4, 249869, Note_on_c, 2, 73, 0
4, 249870, Note_on_c, 2, 76, 120
4, 249899, Note_on_c, 2, 76, 0
4, 249900, Note_on_c, 2, 74, 120
4, 249929, Note_on_c, 2, 74, 0
4, 249930, Note_on_c, 2, 78, 120
4, 249959, Note_on_c, 2, 78, 0
4, 249960, Note_on_c, 2, 76, 120
4, 250019, Note_on_c, 2, 76, 0
4, 250020, Note_on_c, 2, 62, 120
4, 250049, Note_on_c, 2, 62, 0
4, 250050, Note_on_c, 2, 61, 120
4, 250079, Note_on_c, 2, 61, 0
4, 250080, Note_on_c, 2, 61, 120
4, 250109, Note_on_c, 2, 61, 0
4, 250110, Note_on_c, 2, 59, 120
4, 250139, Note_on_c, 2, 59, 0
4, 250140, Note_on_c, 2, 59, 120
4, 250169, Note_on_c, 2, 59, 0
4, 250170, Note_on_c, 2, 57, 120
4, 250199, Note_on_c, 2, 57, 0
4, 250200, Note_on_c, 2, 57, 120
4, 250319, Note_on_c, 2, 57, 0
4, 251040, Note_on_c, 2, 76, 120
4, 251099, Note_on_c, 2, 76, 0
4, 251100, Note_on_c, 2, 78, 120
4, 251129, Note_on_c, 2, 78, 0
4, 251130, Note_on_c, 2, 74, 120
4, 251159, Note_on_c, 2, 74, 0
4, 251160, Note_on_c, 2, 78, 120
4, 251189, Note_on_c, 2, 78, 0
4, 251190, Note_on_c, 2, 74, 120
4, 251219, Note_on_c, 2, 74, 0
4, 251220, Note_on_c, 2, 78, 120
4, 251249, Note_on_c, 2, 78, 0
4, 251250, Note_on_c, 2, 74, 120
4, 251279, Note_on_c, 2, 74, 0
4, 251280, Note_on_c, 2, 71, 120
4, 251339, Note_on_c, 2, 71, 0
4, 251340, Note_on_c, 2, 73, 120
4, 251399, Note_on_c, 2, 73, 0
4, 251400, Note_on_c, 2, 74, 120
4, 251459, Note_on_c, 2, 74, 0
4, 251460, Note_on_c, 2, 76, 120
4, 251489, Note_on_c, 2, 76, 0
4, 251490, Note_on_c, 2, 73, 120
4, 251519, Note_on_c, 2, 73, 0
4, 251520, Note_on_c, 2, 76, 120
4, 251549, Note_on_c, 2, 76, 0
4, 251550, Note_on_c, 2, 73, 120
4, 251579, Note_on_c, 2, 73, 0
4, 251580, Note_on_c, 2, 76, 120
4, 251609, Note_on_c, 2, 76, 0
4, 251610, Note_on_c, 2, 73, 120
4, 251639, Note_on_c, 2, 73, 0
4, 251640, Note_on_c, 2, 69, 120
4, 251699, Note_on_c, 2, 69, 0
4, 251700, Note_on_c, 2, 71, 120
4, 251759, Note_on_c, 2, 71, 0
4, 251760, Note_on_c, 2, 73, 120
4, 251819, Note_on_c, 2, 73, 0
4, 251820, Note_on_c, 2, 74, 120
4, 251849, Note_on_c, 2, 74, 0
4, 251850, Note_on_c, 2, 73, 120
4, 251879, Note_on_c, 2, 73, 0
4, 251880, Note_on_c, 2, 73, 120
4, 251909, Note_on_c, 2, 73, 0
4, 251910, Note_on_c, 2, 71, 120
4, 251939, Note_on_c, 2, 71, 0
4, 251940, Note_on_c, 2, 71, 120
4, 251969, Note_on_c, 2, 71, 0
4, 251970, Note_on_c, 2, 69, 120
4, 251999, Note_on_c, 2, 69, 0
4, 252000, Note_on_c, 2, 68, 120
4, 252029, Note_on_c, 2, 68, 0
4, 252030, Note_on_c, 2, 62, 120
4, 252059, Note_on_c, 2, 62, 0
4, 252060, Note_on_c, 2, 62, 120
4, 252089, Note_on_c, 2, 62, 0
4, 252090, Note_on_c, 2, 61, 120
4, 252119, Note_on_c, 2, 61, 0
4, 252120, Note_on_c, 2, 61, 120
4, 252149, Note_on_c, 2, 61, 0
4, 252150, Note_on_c, 2, 59, 120
4, 252179, Note_on_c, 2, 59, 0
4, 252180, Note_on_c, 2, 61, 120
4, 252209, Note_on_c, 2, 61, 0
4, 252210, Note_on_c, 2, 64, 120
4, 252239, Note_on_c, 2, 64, 0
4, 252240, Note_on_c, 2, 66, 120
4, 252269, Note_on_c, 2, 66, 0
4, 252270, Note_on_c, 2, 69, 120
4, 252299, Note_on_c, 2, 69, 0
4, 252300, Note_on_c, 2, 68, 120
4, 252329, Note_on_c, 2, 68, 0
4, 252330, Note_on_c, 2, 71, 120
4, 252359, Note_on_c, 2, 71, 0
4, 252360, Note_on_c, 2, 69, 120
4, 252389, Note_on_c, 2, 69, 0
4, 252390, Note_on_c, 2, 64, 120
4, 252419, Note_on_c, 2, 64, 0
4, 252420, Note_on_c, 2, 66, 120
4, 252449, Note_on_c, 2, 66, 0
4, 252450, Note_on_c, 2, 69, 120
4, 252479, Note_on_c, 2, 69, 0
4, 252480, Note_on_c, 2, 68, 120
4, 252509, Note_on_c, 2, 68, 0
4, 252510, Note_on_c, 2, 71, 120
4, 252539, Note_on_c, 2, 71, 0
4, 252540, Note_on_c, 2, 69, 120
4, 252599, Note_on_c, 2, 69, 0
4, 252600, Note_on_c, 2, 73, 120
4, 252659, Note_on_c, 2, 73, 0
4, 252660, Note_on_c, 2, 71, 120
4, 252719, Note_on_c, 2, 71, 0
4, 252720, Note_on_c, 2, 69, 120
4, 252779, Note_on_c, 2, 69, 0
4, 252780, Note_on_c, 2, 64, 120
4, 252809, Note_on_c, 2, 64, 0
4, 252810, Note_on_c, 2, 66, 120
4, 252839, Note_on_c, 2, 66, 0
4, 252840, Note_on_c, 2, 68, 120
4, 252869, Note_on_c, 2, 68, 0
4, 252870, Note_on_c, 2, 69, 120
4, 252899, Note_on_c, 2, 69, 0
4, 252900, Note_on_c, 2, 71, 120
4, 252959, Note_on_c, 2, 71, 0
4, 252960, Note_on_c, 2, 74, 120
4, 252989, Note_on_c, 2, 74, 0
4, 252990, Note_on_c, 2, 71, 120
4, 253019, Note_on_c, 2, 71, 0
4, 253020, Note_on_c, 2, 73, 120
4, 253049, Note_on_c, 2, 73, 0
4, 253050, Note_on_c, 2, 69, 120
4, 253079, Note_on_c, 2, 69, 0
4, 253080, Note_on_c, 2, 76, 120
4, 253199, Note_on_c, 2, 76, 0
4, 253200, Note_on_c, 2, 76, 120
4, 253259, Note_on_c, 2, 76, 0
4, 253260, Note_on_c, 2, 78, 120
4, 253289, Note_on_c, 2, 78, 0
4, 253290, Note_on_c, 2, 74, 120
4, 253319, Note_on_c, 2, 74, 0
4, 253320, Note_on_c, 2, 78, 120
4, 253349, Note_on_c, 2, 78, 0
4, 253350, Note_on_c, 2, 74, 120
4, 253379, Note_on_c, 2, 74, 0
4, 253380, Note_on_c, 2, 78, 120
4, 253409, Note_on_c, 2, 78, 0
4, 253410, Note_on_c, 2, 74, 120
4, 253439, Note_on_c, 2, 74, 0
4, 253440, Note_on_c, 2, 71, 120
4, 253499, Note_on_c, 2, 71, 0
4, 253500, Note_on_c, 2, 73, 120
4, 253559, Note_on_c, 2, 73, 0
4, 253560, Note_on_c, 2, 74, 120
4, 253619, Note_on_c, 2, 74, 0
4, 253620, Note_on_c, 2, 76, 120
4, 253649, Note_on_c, 2, 76, 0
4, 253650, Note_on_c, 2, 73, 120
4, 253679, Note_on_c, 2, 73, 0
4, 253680, Note_on_c, 2, 76, 120
4, 253709, Note_on_c, 2, 76, 0
4, 253710, Note_on_c, 2, 73, 120
4, 253739, Note_on_c, 2, 73, 0
4, 253740, Note_on_c, 2, 76, 120
4, 253769, Note_on_c, 2, 76, 0
4, 253770, Note_on_c, 2, 73, 120
4, 253799, Note_on_c, 2, 73, 0
4, 253800, Note_on_c, 2, 69, 120
4, 253859, Note_on_c, 2, 69, 0
4, 253860, Note_on_c, 2, 71, 120
4, 253919, Note_on_c, 2, 71, 0
4, 253920, Note_on_c, 2, 73, 120
4, 253979, Note_on_c, 2, 73, 0
4, 253980, Note_on_c, 2, 74, 120
4, 254009, Note_on_c, 2, 74, 0
4, 254010, Note_on_c, 2, 71, 120
4, 254039, Note_on_c, 2, 71, 0
4, 254040, Note_on_c, 2, 71, 120
4, 254069, Note_on_c, 2, 71, 0
4, 254070, Note_on_c, 2, 69, 120
4, 254099, Note_on_c, 2, 69, 0
4, 254100, Note_on_c, 2, 69, 120
4, 254129, Note_on_c, 2, 69, 0
4, 254130, Note_on_c, 2, 68, 120
4, 254159, Note_on_c, 2, 68, 0
4, 254160, Note_on_c, 2, 68, 120
4, 254189, Note_on_c, 2, 68, 0
4, 254190, Note_on_c, 2, 71, 120
4, 254219, Note_on_c, 2, 71, 0
4, 254220, Note_on_c, 2, 68, 120
4, 254249, Note_on_c, 2, 68, 0
4, 254250, Note_on_c, 2, 71, 120
4, 254279, Note_on_c, 2, 71, 0
4, 254280, Note_on_c, 2, 68, 120
4, 254309, Note_on_c, 2, 68, 0
4, 254310, Note_on_c, 2, 71, 120
4, 254339, Note_on_c, 2, 71, 0
4, 254340, Note_on_c, 2, 73, 120
4, 254369, Note_on_c, 2, 73, 0
4, 254370, Note_on_c, 2, 64, 120
4, 254399, Note_on_c, 2, 64, 0
4, 254400, Note_on_c, 2, 64, 120
4, 254429, Note_on_c, 2, 64, 0
4, 254430, Note_on_c, 2, 62, 120
4, 254459, Note_on_c, 2, 62, 0
4, 254460, Note_on_c, 2, 62, 120
4, 254489, Note_on_c, 2, 62, 0
4, 254490, Note_on_c, 2, 61, 120
4, 254519, Note_on_c, 2, 61, 0
4, 254520, Note_on_c, 2, 61, 120
4, 254549, Note_on_c, 2, 61, 0
4, 254550, Note_on_c, 2, 64, 120
4, 254579, Note_on_c, 2, 64, 0
4, 254580, Note_on_c, 2, 61, 120
4, 254609, Note_on_c, 2, 61, 0
4, 254610, Note_on_c, 2, 64, 120
4, 254639, Note_on_c, 2, 64, 0
4, 254640, Note_on_c, 2, 61, 120
4, 254669, Note_on_c, 2, 61, 0
4, 254670, Note_on_c, 2, 64, 120
4, 254699, Note_on_c, 2, 64, 0
4, 254700, Note_on_c, 2, 56, 120
4, 254729, Note_on_c, 2, 56, 0
4, 254730, Note_on_c, 2, 64, 120
4, 254759, Note_on_c, 2, 64, 0
4, 254760, Note_on_c, 2, 71, 120
4, 254789, Note_on_c, 2, 71, 0
4, 254790, Note_on_c, 2, 64, 120
4, 254819, Note_on_c, 2, 64, 0
4, 254820, Note_on_c, 2, 69, 120
4, 254849, Note_on_c, 2, 69, 0
4, 254850, Note_on_c, 2, 64, 120
4, 254879, Note_on_c, 2, 64, 0
4, 254880, Note_on_c, 2, 68, 120
4, 254909, Note_on_c, 2, 68, 0
4, 254910, Note_on_c, 2, 64, 120
4, 254939, Note_on_c, 2, 64, 0
4, 254940, Note_on_c, 2, 66, 120
4, 254969, Note_on_c, 2, 66, 0
4, 254970, Note_on_c, 2, 64, 120
4, 254999, Note_on_c, 2, 64, 0
4, 255000, Note_on_c, 2, 68, 120
4, 255029, Note_on_c, 2, 68, 0
4, 255030, Note_on_c, 2, 64, 120
4, 255059, Note_on_c, 2, 64, 0
4, 255060, Note_on_c, 2, 69, 120
4, 255089, Note_on_c, 2, 69, 0
4, 255090, Note_on_c, 2, 75, 120
4, 255119, Note_on_c, 2, 75, 0
4, 255120, Note_on_c, 2, 78, 120
4, 255149, Note_on_c, 2, 78, 0
4, 255150, Note_on_c, 2, 71, 120
4, 255179, Note_on_c, 2, 71, 0
4, 255180, Note_on_c, 2, 76, 120
4, 255209, Note_on_c, 2, 76, 0
4, 255210, Note_on_c, 2, 71, 120
4, 255239, Note_on_c, 2, 71, 0
4, 255240, Note_on_c, 2, 75, 120
4, 255269, Note_on_c, 2, 75, 0
4, 255270, Note_on_c, 2, 78, 120
4, 255299, Note_on_c, 2, 78, 0
4, 255300, Note_on_c, 2, 76, 120
4, 255329, Note_on_c, 2, 76, 0
4, 255330, Note_on_c, 2, 80, 120
4, 255359, Note_on_c, 2, 80, 0
4, 255360, Note_on_c, 2, 78, 120
4, 255389, Note_on_c, 2, 78, 0
4, 255390, Note_on_c, 2, 81, 120
4, 255419, Note_on_c, 2, 81, 0
4, 255420, Note_on_c, 2, 80, 120
4, 255449, Note_on_c, 2, 80, 0
4, 255450, Note_on_c, 2, 71, 120
4, 255479, Note_on_c, 2, 71, 0
4, 255480, Note_on_c, 2, 73, 120
4, 255509, Note_on_c, 2, 73, 0
4, 255510, Note_on_c, 2, 76, 120
4, 255539, Note_on_c, 2, 76, 0
4, 255540, Note_on_c, 2, 75, 120
4, 255569, Note_on_c, 2, 75, 0
4, 255570, Note_on_c, 2, 78, 120
4, 255599, Note_on_c, 2, 78, 0
4, 255600, Note_on_c, 2, 76, 120
4, 255629, Note_on_c, 2, 76, 0
4, 255630, Note_on_c, 2, 71, 120
4, 255659, Note_on_c, 2, 71, 0
4, 255660, Note_on_c, 2, 73, 120
4, 255689, Note_on_c, 2, 73, 0
4, 255690, Note_on_c, 2, 76, 120
4, 255719, Note_on_c, 2, 76, 0
4, 255720, Note_on_c, 2, 75, 120
4, 255749, Note_on_c, 2, 75, 0
4, 255750, Note_on_c, 2, 78, 120
4, 255779, Note_on_c, 2, 78, 0
4, 255780, Note_on_c, 2, 76, 120
4, 255809, Note_on_c, 2, 76, 0
4, 255810, Note_on_c, 2, 80, 120
4, 255839, Note_on_c, 2, 80, 0
4, 255840, Note_on_c, 2, 78, 120
4, 255869, Note_on_c, 2, 78, 0
4, 255870, Note_on_c, 2, 81, 120
4, 255899, Note_on_c, 2, 81, 0
4, 255900, Note_on_c, 2, 80, 120
4, 255929, Note_on_c, 2, 80, 0
4, 255930, Note_on_c, 2, 78, 120
4, 255959, Note_on_c, 2, 78, 0
4, 255960, Note_on_c, 2, 80, 120
4, 255989, Note_on_c, 2, 80, 0
4, 255990, Note_on_c, 2, 64, 120
4, 256019, Note_on_c, 2, 64, 0
4, 256020, Note_on_c, 2, 64, 120
4, 256049, Note_on_c, 2, 64, 0
4, 256050, Note_on_c, 2, 62, 120
4, 256079, Note_on_c, 2, 62, 0
4, 256080, Note_on_c, 2, 62, 120
4, 256109, Note_on_c, 2, 62, 0
4, 256110, Note_on_c, 2, 61, 120
4, 256139, Note_on_c, 2, 61, 0
4, 256140, Note_on_c, 2, 61, 120
4, 256169, Note_on_c, 2, 61, 0
4, 256170, Note_on_c, 2, 64, 120
4, 256199, Note_on_c, 2, 64, 0
4, 256200, Note_on_c, 2, 61, 120
4, 256229, Note_on_c, 2, 61, 0
4, 256230, Note_on_c, 2, 64, 120
4, 256259, Note_on_c, 2, 64, 0
4, 256260, Note_on_c, 2, 61, 120
4, 256289, Note_on_c, 2, 61, 0
4, 256290, Note_on_c, 2, 64, 120
4, 256319, Note_on_c, 2, 64, 0
4, 256320, Note_on_c, 2, 69, 120
4, 256349, Note_on_c, 2, 69, 0
4, 256350, Note_on_c, 2, 68, 120
4, 256379, Note_on_c, 2, 68, 0
4, 256380, Note_on_c, 2, 66, 120
4, 256409, Note_on_c, 2, 66, 0
4, 256410, Note_on_c, 2, 64, 120
4, 256439, Note_on_c, 2, 64, 0
4, 256440, Note_on_c, 2, 63, 120
4, 256469, Note_on_c, 2, 63, 0
4, 256470, Note_on_c, 2, 61, 120
4, 256499, Note_on_c, 2, 61, 0
4, 256500, Note_on_c, 2, 59, 120
4, 256529, Note_on_c, 2, 59, 0
4, 256530, Note_on_c, 2, 63, 120
4, 256559, Note_on_c, 2, 63, 0
4, 256560, Note_on_c, 2, 59, 120
4, 256589, Note_on_c, 2, 59, 0
4, 256590, Note_on_c, 2, 63, 120
4, 256619, Note_on_c, 2, 63, 0
4, 256620, Note_on_c, 2, 59, 120
4, 256649, Note_on_c, 2, 59, 0
4, 256650, Note_on_c, 2, 63, 120
4, 256679, Note_on_c, 2, 63, 0
4, 256680, Note_on_c, 2, 68, 120
4, 256709, Note_on_c, 2, 68, 0
4, 256710, Note_on_c, 2, 66, 120
4, 256739, Note_on_c, 2, 66, 0
4, 256740, Note_on_c, 2, 64, 120
4, 256769, Note_on_c, 2, 64, 0
4, 256770, Note_on_c, 2, 63, 120
4, 256799, Note_on_c, 2, 63, 0
4, 256800, Note_on_c, 2, 61, 120
4, 256829, Note_on_c, 2, 61, 0
4, 256830, Note_on_c, 2, 59, 120
4, 256859, Note_on_c, 2, 59, 0
4, 256860, Note_on_c, 2, 57, 120
4, 256889, Note_on_c, 2, 57, 0
4, 256890, Note_on_c, 2, 59, 120
4, 256919, Note_on_c, 2, 59, 0
4, 256920, Note_on_c, 2, 57, 120
4, 256949, Note_on_c, 2, 57, 0
4, 256950, Note_on_c, 2, 59, 120
4, 256979, Note_on_c, 2, 59, 0
4, 256980, Note_on_c, 2, 57, 120
4, 257009, Note_on_c, 2, 57, 0
4, 257010, Note_on_c, 2, 59, 120
4, 257039, Note_on_c, 2, 59, 0
4, 257040, Note_on_c, 2, 57, 120
4, 257069, Note_on_c, 2, 57, 0
4, 257070, Note_on_c, 2, 61, 120
4, 257099, Note_on_c, 2, 61, 0
4, 257100, Note_on_c, 2, 57, 120
4, 257129, Note_on_c, 2, 57, 0
4, 257130, Note_on_c, 2, 61, 120
4, 257159, Note_on_c, 2, 61, 0
4, 257160, Note_on_c, 2, 57, 120
4, 257189, Note_on_c, 2, 57, 0
4, 257190, Note_on_c, 2, 61, 120
4, 257219, Note_on_c, 2, 61, 0
4, 257220, Note_on_c, 2, 63, 120
4, 257279, Note_on_c, 2, 63, 0
4, 257280, Note_on_c, 2, 66, 120
4, 257339, Note_on_c, 2, 66, 0
4, 257340, Note_on_c, 2, 69, 120
4, 257399, Note_on_c, 2, 69, 0
4, 257400, Note_on_c, 2, 68, 120
4, 257429, Note_on_c, 2, 68, 0
4, 257430, Note_on_c, 2, 66, 120
4, 257459, Note_on_c, 2, 66, 0
4, 257460, Note_on_c, 2, 64, 120
4, 257489, Note_on_c, 2, 64, 0
4, 257490, Note_on_c, 2, 63, 120
4, 257519, Note_on_c, 2, 63, 0
4, 257520, Note_on_c, 2, 71, 120
4, 257579, Note_on_c, 2, 71, 0
4, 257580, Note_on_c, 2, 71, 120
4, 257609, Note_on_c, 2, 71, 0
4, 257610, Note_on_c, 2, 68, 120
4, 257639, Note_on_c, 2, 68, 0
4, 257640, Note_on_c, 2, 71, 120
4, 257669, Note_on_c, 2, 71, 0
4, 257670, Note_on_c, 2, 68, 120
4, 257699, Note_on_c, 2, 68, 0
4, 257700, Note_on_c, 2, 71, 120
4, 257729, Note_on_c, 2, 71, 0
4, 257730, Note_on_c, 2, 68, 120
4, 257759, Note_on_c, 2, 68, 0
4, 257760, Note_on_c, 2, 64, 120
4, 257789, Note_on_c, 2, 64, 0
4, 257790, Note_on_c, 2, 68, 120
4, 257819, Note_on_c, 2, 68, 0
4, 257820, Note_on_c, 2, 64, 120
4, 257849, Note_on_c, 2, 64, 0
4, 257850, Note_on_c, 2, 68, 120
4, 257879, Note_on_c, 2, 68, 0
4, 257880, Note_on_c, 2, 64, 120
4, 257909, Note_on_c, 2, 64, 0
4, 257910, Note_on_c, 2, 68, 120
4, 257939, Note_on_c, 2, 68, 0
4, 257940, Note_on_c, 2, 61, 120
4, 257969, Note_on_c, 2, 61, 0
4, 257970, Note_on_c, 2, 64, 120
4, 257999, Note_on_c, 2, 64, 0
4, 258000, Note_on_c, 2, 69, 120
4, 258029, Note_on_c, 2, 69, 0
4, 258030, Note_on_c, 2, 68, 120
4, 258059, Note_on_c, 2, 68, 0
4, 258060, Note_on_c, 2, 69, 120
4, 258089, Note_on_c, 2, 69, 0
4, 258090, Note_on_c, 2, 66, 120
4, 258119, Note_on_c, 2, 66, 0
4, 258120, Note_on_c, 2, 64, 120
4, 258149, Note_on_c, 2, 64, 0
4, 258150, Note_on_c, 2, 68, 120
4, 258179, Note_on_c, 2, 68, 0
4, 258180, Note_on_c, 2, 71, 120
4, 258209, Note_on_c, 2, 71, 0
4, 258210, Note_on_c, 2, 76, 120
4, 258239, Note_on_c, 2, 76, 0
4, 258240, Note_on_c, 2, 71, 120
4, 258269, Note_on_c, 2, 71, 0
4, 258270, Note_on_c, 2, 68, 120
4, 258299, Note_on_c, 2, 68, 0
4, 258300, Note_on_c, 2, 64, 120
4, 258359, Note_on_c, 2, 64, 0
4, 258360, Note_on_c, 2, 68, 120
4, 258419, Note_on_c, 2, 68, 0
4, 258420, Note_on_c, 2, 66, 120
4, 258479, Note_on_c, 2, 66, 0
4, 258480, Note_on_c, 2, 64, 120
4, 258539, Note_on_c, 2, 64, 0
4, 258540, Note_on_c, 2, 59, 120
4, 258569, Note_on_c, 2, 59, 0
4, 258570, Note_on_c, 2, 61, 120
4, 258599, Note_on_c, 2, 61, 0
4, 258600, Note_on_c, 2, 63, 120
4, 258629, Note_on_c, 2, 63, 0
4, 258630, Note_on_c, 2, 64, 120
4, 258659, Note_on_c, 2, 64, 0
4, 258660, Note_on_c, 2, 66, 120
4, 258719, Note_on_c, 2, 66, 0
4, 258720, Note_on_c, 2, 69, 120
4, 258749, Note_on_c, 2, 69, 0
4, 258750, Note_on_c, 2, 66, 120
4, 258779, Note_on_c, 2, 66, 0
4, 258780, Note_on_c, 2, 68, 120
4, 258809, Note_on_c, 2, 68, 0
4, 258810, Note_on_c, 2, 64, 120
4, 258839, Note_on_c, 2, 64, 0
4, 258840, Note_on_c, 2, 71, 120
4, 258959, Note_on_c, 2, 71, 0
4, 258960, Note_on_c, 2, 71, 120
4, 259019, Note_on_c, 2, 71, 0
4, 259020, Note_on_c, 2, 73, 120
4, 259049, Note_on_c, 2, 73, 0
4, 259050, Note_on_c, 2, 69, 120
4, 259079, Note_on_c, 2, 69, 0
4, 259080, Note_on_c, 2, 73, 120
4, 259109, Note_on_c, 2, 73, 0
4, 259110, Note_on_c, 2, 69, 120
4, 259139, Note_on_c, 2, 69, 0
4, 259140, Note_on_c, 2, 73, 120
4, 259169, Note_on_c, 2, 73, 0
4, 259170, Note_on_c, 2, 69, 120
4, 259199, Note_on_c, 2, 69, 0
4, 259200, Note_on_c, 2, 66, 120
4, 259259, Note_on_c, 2, 66, 0
4, 259260, Note_on_c, 2, 68, 120
4, 259319, Note_on_c, 2, 68, 0
4, 259320, Note_on_c, 2, 69, 120
4, 259379, Note_on_c, 2, 69, 0
4, 259380, Note_on_c, 2, 71, 120
4, 259409, Note_on_c, 2, 71, 0
4, 259410, Note_on_c, 2, 68, 120
4, 259439, Note_on_c, 2, 68, 0
4, 259440, Note_on_c, 2, 71, 120
4, 259469, Note_on_c, 2, 71, 0
4, 259470, Note_on_c, 2, 68, 120
4, 259499, Note_on_c, 2, 68, 0
4, 259500, Note_on_c, 2, 71, 120
4, 259529, Note_on_c, 2, 71, 0
4, 259530, Note_on_c, 2, 68, 120
4, 259559, Note_on_c, 2, 68, 0
4, 259560, Note_on_c, 2, 64, 120
4, 259619, Note_on_c, 2, 64, 0
4, 259620, Note_on_c, 2, 66, 120
4, 259679, Note_on_c, 2, 66, 0
4, 259680, Note_on_c, 2, 68, 120
4, 259739, Note_on_c, 2, 68, 0
4, 259740, Note_on_c, 2, 69, 120
4, 259769, Note_on_c, 2, 69, 0
4, 259770, Note_on_c, 2, 73, 120
4, 259799, Note_on_c, 2, 73, 0
4, 259800, Note_on_c, 2, 71, 120
4, 259829, Note_on_c, 2, 71, 0
4, 259830, Note_on_c, 2, 74, 120
4, 259859, Note_on_c, 2, 74, 0
4, 259860, Note_on_c, 2, 73, 120
4, 259889, Note_on_c, 2, 73, 0
4, 259890, Note_on_c, 2, 76, 120
4, 259919, Note_on_c, 2, 76, 0
4, 259920, Note_on_c, 2, 75, 120
4, 259949, Note_on_c, 2, 75, 0
4, 259950, Note_on_c, 2, 78, 120
4, 259979, Note_on_c, 2, 78, 0
4, 259980, Note_on_c, 2, 76, 120
4, 260009, Note_on_c, 2, 76, 0
4, 260010, Note_on_c, 2, 80, 120
4, 260039, Note_on_c, 2, 80, 0
4, 260040, Note_on_c, 2, 78, 120
4, 260069, Note_on_c, 2, 78, 0
4, 260070, Note_on_c, 2, 81, 120
4, 260099, Note_on_c, 2, 81, 0
4, 260100, Note_on_c, 2, 80, 120
4, 260160, Note_on_c, 2, 80, 0
4, 260160, Note_on_c, 2, 76, 120
4, 260220, Note_on_c, 2, 76, 0
4, 260220, Note_on_c, 2, 75, 120
4, 260280, Note_on_c, 2, 75, 0
4, 260280, Note_on_c, 2, 76, 120
4, 260519, Note_on_c, 2, 76, 0
4, 260520, Note_on_c, 2, 74, 120
4, 260549, Note_on_c, 2, 74, 0
4, 260550, Note_on_c, 2, 73, 120
4, 260579, Note_on_c, 2, 73, 0
4, 260580, Note_on_c, 2, 71, 120
4, 260609, Note_on_c, 2, 71, 0
4, 260610, Note_on_c, 2, 69, 120
4, 260639, Note_on_c, 2, 69, 0
4, 260640, Note_on_c, 2, 76, 120
4, 260879, Note_on_c, 2, 76, 0
4, 260880, Note_on_c, 2, 64, 120
4, 260939, Note_on_c, 2, 64, 0
4, 260940, Note_on_c, 2, 69, 120
4, 261029, Note_on_c, 2, 69, 0
4, 261030, Note_on_c, 2, 68, 120
4, 261059, Note_on_c, 2, 68, 0
4, 261060, Note_on_c, 2, 69, 120
4, 261089, Note_on_c, 2, 69, 0
4, 261090, Note_on_c, 2, 68, 120
4, 261119, Note_on_c, 2, 68, 0
4, 261120, Note_on_c, 2, 66, 120
4, 261149, Note_on_c, 2, 66, 0
4, 261150, Note_on_c, 2, 64, 120
4, 261179, Note_on_c, 2, 64, 0
4, 261180, Note_on_c, 2, 73, 120
4, 261209, Note_on_c, 2, 73, 0
4, 261210, Note_on_c, 2, 74, 120
4, 261239, Note_on_c, 2, 74, 0
4, 261240, Note_on_c, 2, 76, 120
4, 261359, Note_on_c, 2, 76, 0
4, 261360, Note_on_c, 2, 71, 120
4, 261419, Note_on_c, 2, 71, 0
4, 261420, Note_on_c, 2, 73, 120
4, 261479, Note_on_c, 2, 73, 0
4, 261480, Note_on_c, 2, 74, 120
4, 261539, Note_on_c, 2, 74, 0
4, 261540, Note_on_c, 2, 73, 120
4, 261599, Note_on_c, 2, 73, 0
4, 261600, Note_on_c, 2, 74, 120
4, 261629, Note_on_c, 2, 74, 0
4, 261630, Note_on_c, 2, 73, 120
4, 261659, Note_on_c, 2, 73, 0
4, 261660, Note_on_c, 2, 71, 120
4, 261689, Note_on_c, 2, 71, 0
4, 261690, Note_on_c, 2, 69, 120
4, 261719, Note_on_c, 2, 69, 0
4, 261720, Note_on_c, 2, 71, 120
4, 261779, Note_on_c, 2, 71, 0
4, 261780, Note_on_c, 2, 64, 120
4, 261809, Note_on_c, 2, 64, 0
4, 261810, Note_on_c, 2, 66, 120
4, 261839, Note_on_c, 2, 66, 0
4, 261840, Note_on_c, 2, 68, 120
4, 261869, Note_on_c, 2, 68, 0
4, 261870, Note_on_c, 2, 64, 120
4, 261899, Note_on_c, 2, 64, 0
4, 261900, Note_on_c, 2, 69, 120
4, 261959, Note_on_c, 2, 69, 0
4, 261960, Note_on_c, 2, 73, 120
4, 262019, Note_on_c, 2, 73, 0
4, 262020, Note_on_c, 2, 71, 120
4, 262079, Note_on_c, 2, 71, 0
4, 262080, Note_on_c, 2, 69, 120
4, 262139, Note_on_c, 2, 69, 0
4, 262140, Note_on_c, 2, 64, 120
4, 262169, Note_on_c, 2, 64, 0
4, 262170, Note_on_c, 2, 66, 120
4, 262199, Note_on_c, 2, 66, 0
4, 262200, Note_on_c, 2, 68, 120
4, 262229, Note_on_c, 2, 68, 0
4, 262230, Note_on_c, 2, 69, 120
4, 262259, Note_on_c, 2, 69, 0
4, 262260, Note_on_c, 2, 71, 120
4, 262319, Note_on_c, 2, 71, 0
4, 262320, Note_on_c, 2, 74, 120
4, 262349, Note_on_c, 2, 74, 0
4, 262350, Note_on_c, 2, 71, 120
4, 262379, Note_on_c, 2, 71, 0
4, 262380, Note_on_c, 2, 73, 120
4, 262409, Note_on_c, 2, 73, 0
4, 262410, Note_on_c, 2, 69, 120
4, 262439, Note_on_c, 2, 69, 0
4, 262440, Note_on_c, 2, 76, 120
4, 262559, Note_on_c, 2, 76, 0
4, 262560, Note_on_c, 2, 76, 120
4, 262619, Note_on_c, 2, 76, 0
4, 262620, Note_on_c, 2, 78, 120
4, 262649, Note_on_c, 2, 78, 0
4, 262650, Note_on_c, 2, 74, 120
4, 262679, Note_on_c, 2, 74, 0
4, 262680, Note_on_c, 2, 78, 120
4, 262709, Note_on_c, 2, 78, 0
4, 262710, Note_on_c, 2, 74, 120
4, 262739, Note_on_c, 2, 74, 0
4, 262740, Note_on_c, 2, 78, 120
4, 262769, Note_on_c, 2, 78, 0
4, 262770, Note_on_c, 2, 74, 120
4, 262799, Note_on_c, 2, 74, 0
4, 262800, Note_on_c, 2, 71, 120
4, 262859, Note_on_c, 2, 71, 0
4, 262860, Note_on_c, 2, 73, 120
4, 262919, Note_on_c, 2, 73, 0
4, 262920, Note_on_c, 2, 74, 120
4, 262979, Note_on_c, 2, 74, 0
4, 262980, Note_on_c, 2, 76, 120
4, 263009, Note_on_c, 2, 76, 0
4, 263010, Note_on_c, 2, 73, 120
4, 263039, Note_on_c, 2, 73, 0
4, 263040, Note_on_c, 2, 76, 120
4, 263069, Note_on_c, 2, 76, 0
4, 263070, Note_on_c, 2, 73, 120
4, 263099, Note_on_c, 2, 73, 0
4, 263100, Note_on_c, 2, 76, 120
4, 263129, Note_on_c, 2, 76, 0
4, 263130, Note_on_c, 2, 73, 120
4, 263159, Note_on_c, 2, 73, 0
4, 263160, Note_on_c, 2, 69, 120
4, 263219, Note_on_c, 2, 69, 0
4, 263220, Note_on_c, 2, 71, 120
4, 263279, Note_on_c, 2, 71, 0
4, 263280, Note_on_c, 2, 73, 120
4, 263339, Note_on_c, 2, 73, 0
4, 263340, Note_on_c, 2, 74, 120
4, 263369, Note_on_c, 2, 74, 0
4, 263370, Note_on_c, 2, 73, 120
4, 263399, Note_on_c, 2, 73, 0
4, 263400, Note_on_c, 2, 73, 120
4, 263429, Note_on_c, 2, 73, 0
4, 263430, Note_on_c, 2, 71, 120
4, 263459, Note_on_c, 2, 71, 0
4, 263460, Note_on_c, 2, 71, 120
4, 263489, Note_on_c, 2, 71, 0
4, 263490, Note_on_c, 2, 69, 120
4, 263519, Note_on_c, 2, 69, 0
4, 263520, Note_on_c, 2, 68, 120
4, 263549, Note_on_c, 2, 68, 0
4, 263550, Note_on_c, 2, 62, 120
4, 263579, Note_on_c, 2, 62, 0
4, 263580, Note_on_c, 2, 62, 120
4, 263609, Note_on_c, 2, 62, 0
4, 263610, Note_on_c, 2, 61, 120
4, 263639, Note_on_c, 2, 61, 0
4, 263640, Note_on_c, 2, 61, 120
4, 263669, Note_on_c, 2, 61, 0
4, 263670, Note_on_c, 2, 59, 120
4, 263699, Note_on_c, 2, 59, 0
4, 263700, Note_on_c, 2, 61, 120
4, 263729, Note_on_c, 2, 61, 0
4, 263730, Note_on_c, 2, 64, 120
4, 263759, Note_on_c, 2, 64, 0
4, 263760, Note_on_c, 2, 66, 120
4, 263789, Note_on_c, 2, 66, 0
4, 263790, Note_on_c, 2, 69, 120
4, 263819, Note_on_c, 2, 69, 0
4, 263820, Note_on_c, 2, 68, 120
4, 263849, Note_on_c, 2, 68, 0
4, 263850, Note_on_c, 2, 66, 120
4, 263879, Note_on_c, 2, 66, 0
4, 263880, Note_on_c, 2, 71, 120
4, 263909, Note_on_c, 2, 71, 0
4, 263910, Note_on_c, 2, 64, 120
4, 263939, Note_on_c, 2, 64, 0
4, 263940, Note_on_c, 2, 66, 120
4, 263969, Note_on_c, 2, 66, 0
4, 263970, Note_on_c, 2, 69, 120
4, 263999, Note_on_c, 2, 69, 0
4, 264000, Note_on_c, 2, 68, 120
4, 264029, Note_on_c, 2, 68, 0
4, 264030, Note_on_c, 2, 71, 120
4, 264059, Note_on_c, 2, 71, 0
4, 264060, Note_on_c, 2, 69, 120
4, 264089, Note_on_c, 2, 69, 0
4, 264090, Note_on_c, 2, 73, 120
4, 264119, Note_on_c, 2, 73, 0
4, 264120, Note_on_c, 2, 71, 120
4, 264149, Note_on_c, 2, 71, 0
4, 264150, Note_on_c, 2, 74, 120
4, 264179, Note_on_c, 2, 74, 0
4, 264180, Note_on_c, 2, 73, 120
4, 264209, Note_on_c, 2, 73, 0
4, 264210, Note_on_c, 2, 71, 120
4, 264239, Note_on_c, 2, 71, 0
4, 264240, Note_on_c, 2, 73, 120
4, 264269, Note_on_c, 2, 73, 0
4, 264270, Note_on_c, 2, 76, 120
4, 264299, Note_on_c, 2, 76, 0
4, 264300, Note_on_c, 2, 74, 120
4, 264329, Note_on_c, 2, 74, 0
4, 264330, Note_on_c, 2, 78, 120
4, 264359, Note_on_c, 2, 78, 0
4, 264360, Note_on_c, 2, 76, 120
4, 264419, Note_on_c, 2, 76, 0
4, 264420, Note_on_c, 2, 62, 120
4, 264449, Note_on_c, 2, 62, 0
4, 264450, Note_on_c, 2, 61, 120
4, 264479, Note_on_c, 2, 61, 0
4, 264480, Note_on_c, 2, 61, 120
4, 264509, Note_on_c, 2, 61, 0
4, 264510, Note_on_c, 2, 59, 120
4, 264539, Note_on_c, 2, 59, 0
4, 264540, Note_on_c, 2, 59, 120
4, 264569, Note_on_c, 2, 59, 0
4, 264570, Note_on_c, 2, 57, 120
4, 264599, Note_on_c, 2, 57, 0
4, 264600, Note_on_c, 2, 57, 120
4, 264719, Note_on_c, 2, 57, 0
4, 264780, Note_on_c, 2, 69, 120
4, 264899, Note_on_c, 2, 69, 0
4, 264960, Note_on_c, 2, 66, 120
4, 265079, Note_on_c, 2, 66, 0
4, 265140, Note_on_c, 2, 63, 120
4, 265259, Note_on_c, 2, 63, 0
4, 265320, Note_on_c, 2, 64, 120
4, 265499, Note_on_c, 2, 64, 0
4, 265530, Note_on_c, 2, 66, 120
4, 265559, Note_on_c, 2, 66, 0
4, 265560, Note_on_c, 2, 68, 120
4, 265589, Note_on_c, 2, 68, 0
4, 265590, Note_on_c, 2, 69, 120
4, 265619, Note_on_c, 2, 69, 0
4, 265620, Note_on_c, 2, 71, 120
4, 265649, Note_on_c, 2, 71, 0
4, 265650, Note_on_c, 2, 73, 120
4, 265679, Note_on_c, 2, 73, 0
4, 265680, Note_on_c, 2, 74, 120
4, 265709, Note_on_c, 2, 74, 0
4, 265710, Note_on_c, 2, 78, 120
4, 265739, Note_on_c, 2, 78, 0
4, 265740, Note_on_c, 2, 76, 120
4, 265769, Note_on_c, 2, 76, 0
4, 265770, Note_on_c, 2, 74, 120
4, 265799, Note_on_c, 2, 74, 0
4, 265800, Note_on_c, 2, 73, 120
4, 265829, Note_on_c, 2, 73, 0
4, 265830, Note_on_c, 2, 71, 120
4, 265859, Note_on_c, 2, 71, 0
4, 265860, Note_on_c, 2, 69, 120
4, 265919, Note_on_c, 2, 69, 0
4, 265920, Note_on_c, 2, 64, 120
4, 265949, Note_on_c, 2, 64, 0
4, 265950, Note_on_c, 2, 62, 120
4, 265979, Note_on_c, 2, 62, 0
4, 265980, Note_on_c, 2, 61, 120
4, 266009, Note_on_c, 2, 61, 0
4, 266010, Note_on_c, 2, 59, 120
4, 266039, Note_on_c, 2, 59, 0
4, 266040, Note_on_c, 2, 57, 120
4, 266159, Note_on_c, 2, 57, 0
4, 266160, Note_on_c, 2, 64, 120
4, 266219, Note_on_c, 2, 64, 0
4, 266220, Note_on_c, 2, 69, 120
4, 266279, Note_on_c, 2, 69, 0
4, 266280, Note_on_c, 2, 73, 120
4, 266339, Note_on_c, 2, 73, 0
4, 266340, Note_on_c, 2, 71, 120
4, 266399, Note_on_c, 2, 71, 0
4, 266400, Note_on_c, 2, 69, 120
4, 266459, Note_on_c, 2, 69, 0
4, 266460, Note_on_c, 2, 64, 120
4, 266489, Note_on_c, 2, 64, 0
4, 266490, Note_on_c, 2, 66, 120
4, 266519, Note_on_c, 2, 66, 0
4, 266520, Note_on_c, 2, 68, 120
4, 266549, Note_on_c, 2, 68, 0
4, 266550, Note_on_c, 2, 69, 120
4, 266579, Note_on_c, 2, 69, 0
4, 266580, Note_on_c, 2, 71, 120
4, 266639, Note_on_c, 2, 71, 0
4, 266640, Note_on_c, 2, 74, 120
4, 266669, Note_on_c, 2, 74, 0
4, 266670, Note_on_c, 2, 71, 120
4, 266699, Note_on_c, 2, 71, 0
4, 266700, Note_on_c, 2, 73, 120
4, 266729, Note_on_c, 2, 73, 0
4, 266730, Note_on_c, 2, 69, 120
4, 266759, Note_on_c, 2, 69, 0
4, 266760, Note_on_c, 2, 76, 120
4, 266879, Note_on_c, 2, 76, 0
4, 266880, Note_on_c, 2, 76, 120
4, 266939, Note_on_c, 2, 76, 0
4, 266940, Note_on_c, 2, 78, 120
4, 266969, Note_on_c, 2, 78, 0
4, 266970, Note_on_c, 2, 74, 120
4, 266999, Note_on_c, 2, 74, 0
4, 267000, Note_on_c, 2, 78, 120
4, 267029, Note_on_c, 2, 78, 0
4, 267030, Note_on_c, 2, 74, 120
4, 267059, Note_on_c, 2, 74, 0
4, 267060, Note_on_c, 2, 78, 120
4, 267089, Note_on_c, 2, 78, 0
4, 267090, Note_on_c, 2, 74, 120
4, 267119, Note_on_c, 2, 74, 0
4, 267120, Note_on_c, 2, 71, 120
4, 267179, Note_on_c, 2, 71, 0
4, 267180, Note_on_c, 2, 73, 120
4, 267239, Note_on_c, 2, 73, 0
4, 267240, Note_on_c, 2, 74, 120
4, 267299, Note_on_c, 2, 74, 0
4, 267300, Note_on_c, 2, 76, 120
4, 267329, Note_on_c, 2, 76, 0
4, 267330, Note_on_c, 2, 73, 120
4, 267359, Note_on_c, 2, 73, 0
4, 267360, Note_on_c, 2, 76, 120
4, 267389, Note_on_c, 2, 76, 0
4, 267390, Note_on_c, 2, 73, 120
4, 267419, Note_on_c, 2, 73, 0
4, 267420, Note_on_c, 2, 76, 120
4, 267449, Note_on_c, 2, 76, 0
4, 267450, Note_on_c, 2, 73, 120
4, 267479, Note_on_c, 2, 73, 0
4, 267480, Note_on_c, 2, 69, 120
4, 267539, Note_on_c, 2, 69, 0
4, 267540, Note_on_c, 2, 71, 120
4, 267599, Note_on_c, 2, 71, 0
4, 267600, Note_on_c, 2, 73, 120
4, 267659, Note_on_c, 2, 73, 0
4, 267660, Note_on_c, 2, 74, 120
4, 267689, Note_on_c, 2, 74, 0
4, 267690, Note_on_c, 2, 73, 120
4, 267719, Note_on_c, 2, 73, 0
4, 267720, Note_on_c, 2, 73, 120
4, 267749, Note_on_c, 2, 73, 0
4, 267750, Note_on_c, 2, 71, 120
4, 267779, Note_on_c, 2, 71, 0
4, 267780, Note_on_c, 2, 71, 120
4, 267809, Note_on_c, 2, 71, 0
4, 267810, Note_on_c, 2, 69, 120
4, 267839, Note_on_c, 2, 69, 0
4, 267840, Note_on_c, 2, 68, 120
4, 267869, Note_on_c, 2, 68, 0
4, 267870, Note_on_c, 2, 62, 120
4, 267899, Note_on_c, 2, 62, 0
4, 267900, Note_on_c, 2, 62, 120
4, 267929, Note_on_c, 2, 62, 0
4, 267930, Note_on_c, 2, 61, 120
4, 267959, Note_on_c, 2, 61, 0
4, 267960, Note_on_c, 2, 61, 120
4, 267989, Note_on_c, 2, 61, 0
4, 267990, Note_on_c, 2, 59, 120
4, 268019, Note_on_c, 2, 59, 0
4, 268020, Note_on_c, 2, 61, 120
4, 268049, Note_on_c, 2, 61, 0
4, 268050, Note_on_c, 2, 64, 120
4, 268079, Note_on_c, 2, 64, 0
4, 268080, Note_on_c, 2, 66, 120
4, 268109, Note_on_c, 2, 66, 0
4, 268110, Note_on_c, 2, 69, 120
4, 268139, Note_on_c, 2, 69, 0
4, 268140, Note_on_c, 2, 68, 120
4, 268169, Note_on_c, 2, 68, 0
4, 268170, Note_on_c, 2, 71, 120
4, 268199, Note_on_c, 2, 71, 0
4, 268200, Note_on_c, 2, 69, 120
4, 268229, Note_on_c, 2, 69, 0
4, 268230, Note_on_c, 2, 64, 120
4, 268259, Note_on_c, 2, 64, 0
4, 268260, Note_on_c, 2, 66, 120
4, 268289, Note_on_c, 2, 66, 0
4, 268290, Note_on_c, 2, 69, 120
4, 268319, Note_on_c, 2, 69, 0
4, 268320, Note_on_c, 2, 68, 120
4, 268349, Note_on_c, 2, 68, 0
4, 268350, Note_on_c, 2, 71, 120
4, 268379, Note_on_c, 2, 71, 0
4, 268380, Note_on_c, 2, 69, 120
4, 268409, Note_on_c, 2, 69, 0
4, 268410, Note_on_c, 2, 73, 120
4, 268439, Note_on_c, 2, 73, 0
4, 268440, Note_on_c, 2, 71, 120
4, 268469, Note_on_c, 2, 71, 0
4, 268470, Note_on_c, 2, 74, 120
4, 268499, Note_on_c, 2, 74, 0
4, 268500, Note_on_c, 2, 73, 120
4, 268529, Note_on_c, 2, 73, 0
4, 268530, Note_on_c, 2, 71, 120
4, 268559, Note_on_c, 2, 71, 0
4, 268560, Note_on_c, 2, 73, 120
4, 268589, Note_on_c, 2, 73, 0
4, 268590, Note_on_c, 2, 76, 120
4, 268619, Note_on_c, 2, 76, 0
4, 268620, Note_on_c, 2, 74, 120
4, 268649, Note_on_c, 2, 74, 0
4, 268650, Note_on_c, 2, 78, 120
4, 268679, Note_on_c, 2, 78, 0
4, 268680, Note_on_c, 2, 76, 120
4, 268739, Note_on_c, 2, 76, 0
4, 268740, Note_on_c, 2, 62, 120
4, 268769, Note_on_c, 2, 62, 0
4, 268770, Note_on_c, 2, 61, 120
4, 268799, Note_on_c, 2, 61, 0
4, 268800, Note_on_c, 2, 61, 120
4, 268829, Note_on_c, 2, 61, 0
4, 268830, Note_on_c, 2, 59, 120
4, 268859, Note_on_c, 2, 59, 0
4, 268860, Note_on_c, 2, 59, 120
4, 268889, Note_on_c, 2, 59, 0
4, 268890, Note_on_c, 2, 57, 120
4, 268919, Note_on_c, 2, 57, 0
4, 268920, Note_on_c, 2, 57, 120
4, 269100, Note_on_c, 2, 57, 0
4, 275040, Note_on_c, 2, 78, 120
4, 275159, Note_on_c, 2, 78, 0
4, 275160, Note_on_c, 2, 78, 120
4, 275279, Note_on_c, 2, 78, 0
4, 275280, Note_on_c, 2, 76, 120
4, 275399, Note_on_c, 2, 76, 0
4, 275400, Note_on_c, 2, 74, 120
4, 275519, Note_on_c, 2, 74, 0
4, 275520, Note_on_c, 2, 73, 120
4, 275639, Note_on_c, 2, 73, 0
4, 275640, Note_on_c, 2, 74, 120
4, 275879, Note_on_c, 2, 74, 0
4, 275880, Note_on_c, 2, 76, 120
4, 276119, Note_on_c, 2, 76, 0
4, 276120, Note_on_c, 2, 78, 120
4, 276239, Note_on_c, 2, 78, 0
4, 276240, Note_on_c, 2, 76, 120
4, 276359, Note_on_c, 2, 76, 0
4, 276360, Note_on_c, 2, 74, 120
4, 276479, Note_on_c, 2, 74, 0
4, 276480, Note_on_c, 2, 73, 120
4, 276599, Note_on_c, 2, 73, 0
4, 276600, Note_on_c, 2, 71, 120
4, 276839, Note_on_c, 2, 71, 0
4, 276840, Note_on_c, 2, 73, 120
4, 277079, Note_on_c, 2, 73, 0
4, 277080, Note_on_c, 2, 70, 120
4, 277319, Note_on_c, 2, 70, 0
4, 277320, Note_on_c, 2, 71, 120
4, 277559, Note_on_c, 2, 71, 0
4, 277560, Note_on_c, 2, 73, 120
4, 277799, Note_on_c, 2, 73, 0
4, 277800, Note_on_c, 2, 70, 120
4, 278039, Note_on_c, 2, 70, 0
4, 278040, Note_on_c, 2, 71, 120
4, 278399, Note_on_c, 2, 71, 0
4, 282720, Note_on_c, 2, 73, 120
4, 282839, Note_on_c, 2, 73, 0
4, 282840, Note_on_c, 2, 74, 120
4, 282959, Note_on_c, 2, 74, 0
4, 282960, Note_on_c, 2, 73, 120
4, 283079, Note_on_c, 2, 73, 0
4, 283080, Note_on_c, 2, 74, 120
4, 283199, Note_on_c, 2, 74, 0
4, 283200, Note_on_c, 2, 76, 120
4, 283319, Note_on_c, 2, 76, 0
4, 283320, Note_on_c, 2, 78, 120
4, 283559, Note_on_c, 2, 78, 0
4, 283560, Note_on_c, 2, 74, 120
4, 283679, Note_on_c, 2, 74, 0
4, 283680, Note_on_c, 2, 81, 120
4, 283799, Note_on_c, 2, 81, 0
4, 283800, Note_on_c, 2, 81, 120
4, 283919, Note_on_c, 2, 81, 0
4, 283920, Note_on_c, 2, 79, 120
4, 284039, Note_on_c, 2, 79, 0
4, 284040, Note_on_c, 2, 78, 120
4, 284159, Note_on_c, 2, 78, 0
4, 284160, Note_on_c, 2, 76, 120
4, 284279, Note_on_c, 2, 76, 0
4, 284280, Note_on_c, 2, 74, 120
4, 284519, Note_on_c, 2, 74, 0
4, 284520, Note_on_c, 2, 76, 120
4, 284759, Note_on_c, 2, 76, 0
4, 284760, Note_on_c, 2, 78, 120
4, 284879, Note_on_c, 2, 78, 0
4, 284880, Note_on_c, 2, 76, 120
4, 284999, Note_on_c, 2, 76, 0
4, 285000, Note_on_c, 2, 74, 120
4, 285119, Note_on_c, 2, 74, 0
4, 285120, Note_on_c, 2, 73, 120
4, 285239, Note_on_c, 2, 73, 0
4, 285240, Note_on_c, 2, 71, 120
4, 285479, Note_on_c, 2, 71, 0
4, 285480, Note_on_c, 2, 73, 120
4, 285719, Note_on_c, 2, 73, 0
4, 285720, Note_on_c, 2, 70, 120
4, 285959, Note_on_c, 2, 70, 0
4, 285960, Note_on_c, 2, 71, 120
4, 286199, Note_on_c, 2, 71, 0
4, 286200, Note_on_c, 2, 73, 120
4, 286439, Note_on_c, 2, 73, 0
4, 286440, Note_on_c, 2, 70, 120
4, 286679, Note_on_c, 2, 70, 0
4, 286680, Note_on_c, 2, 71, 120
4, 287039, Note_on_c, 2, 71, 0
4, 291600, Note_on_c, 2, 65, 120
4, 291660, Note_on_c, 2, 65, 0
4, 291660, Note_on_c, 2, 67, 120
4, 291720, Note_on_c, 2, 67, 0
4, 291720, Note_on_c, 2, 69, 120
4, 291840, Note_on_c, 2, 69, 0
4, 291840, Note_on_c, 2, 67, 120
4, 291899, Note_on_c, 2, 67, 0
4, 291900, Note_on_c, 2, 65, 120
4, 291959, Note_on_c, 2, 65, 0
4, 291960, Note_on_c, 2, 72, 120
4, 292079, Note_on_c, 2, 72, 0
4, 292080, Note_on_c, 2, 74, 120
4, 292139, Note_on_c, 2, 74, 0
4, 292140, Note_on_c, 2, 76, 120
4, 292199, Note_on_c, 2, 76, 0
4, 292200, Note_on_c, 2, 77, 120
4, 292319, Note_on_c, 2, 77, 0
4, 292320, Note_on_c, 2, 76, 120
4, 292379, Note_on_c, 2, 76, 0
4, 292380, Note_on_c, 2, 74, 120
4, 292439, Note_on_c, 2, 74, 0
4, 292440, Note_on_c, 2, 72, 120
4, 292559, Note_on_c, 2, 72, 0
4, 292560, Note_on_c, 2, 77, 120
4, 292679, Note_on_c, 2, 77, 0
4, 292680, Note_on_c, 2, 74, 120
4, 292799, Note_on_c, 2, 74, 0
4, 292800, Note_on_c, 2, 72, 120
4, 292919, Note_on_c, 2, 72, 0
4, 292920, Note_on_c, 2, 70, 120
4, 293039, Note_on_c, 2, 70, 0
4, 293040, Note_on_c, 2, 69, 120
4, 293159, Note_on_c, 2, 69, 0
4, 293160, Note_on_c, 2, 67, 120
4, 293219, Note_on_c, 2, 67, 0
4, 293220, Note_on_c, 2, 65, 120
4, 293279, Note_on_c, 2, 65, 0
4, 293280, Note_on_c, 2, 64, 120
4, 293339, Note_on_c, 2, 64, 0
4, 293340, Note_on_c, 2, 62, 120
4, 293399, Note_on_c, 2, 62, 0
4, 293400, Note_on_c, 2, 60, 120
4, 293519, Note_on_c, 2, 60, 0
4, 293520, Note_on_c, 2, 67, 120
4, 293639, Note_on_c, 2, 67, 0
4, 293640, Note_on_c, 2, 69, 120
4, 293699, Note_on_c, 2, 69, 0
4, 293700, Note_on_c, 2, 70, 120
4, 293759, Note_on_c, 2, 70, 0
4, 293760, Note_on_c, 2, 72, 120
4, 293819, Note_on_c, 2, 72, 0
4, 293820, Note_on_c, 2, 74, 120
4, 293879, Note_on_c, 2, 74, 0
4, 293880, Note_on_c, 2, 67, 120
4, 294059, Note_on_c, 2, 67, 0
4, 294060, Note_on_c, 2, 65, 120
4, 294119, Note_on_c, 2, 65, 0
4, 294120, Note_on_c, 2, 65, 120
4, 294479, Note_on_c, 2, 65, 0
4, 294480, Note_on_c, 2, 65, 120
4, 294540, Note_on_c, 2, 65, 0
4, 294540, Note_on_c, 2, 67, 120
4, 294600, Note_on_c, 2, 67, 0
4, 294600, Note_on_c, 2, 69, 120
4, 294720, Note_on_c, 2, 69, 0
4, 294720, Note_on_c, 2, 67, 120
4, 294779, Note_on_c, 2, 67, 0
4, 294780, Note_on_c, 2, 65, 120
4, 294839, Note_on_c, 2, 65, 0
4, 294840, Note_on_c, 2, 72, 120
4, 294959, Note_on_c, 2, 72, 0
4, 294960, Note_on_c, 2, 74, 120
4, 295019, Note_on_c, 2, 74, 0
4, 295020, Note_on_c, 2, 76, 120
4, 295079, Note_on_c, 2, 76, 0
4, 295080, Note_on_c, 2, 77, 120
4, 295199, Note_on_c, 2, 77, 0
4, 295200, Note_on_c, 2, 76, 120
4, 295259, Note_on_c, 2, 76, 0
4, 295260, Note_on_c, 2, 74, 120
4, 295319, Note_on_c, 2, 74, 0
4, 295320, Note_on_c, 2, 72, 120
4, 295439, Note_on_c, 2, 72, 0
4, 295440, Note_on_c, 2, 77, 120
4, 295559, Note_on_c, 2, 77, 0
4, 295560, Note_on_c, 2, 74, 120
4, 295679, Note_on_c, 2, 74, 0
4, 295680, Note_on_c, 2, 72, 120
4, 295799, Note_on_c, 2, 72, 0
4, 295800, Note_on_c, 2, 70, 120
4, 295919, Note_on_c, 2, 70, 0
4, 295920, Note_on_c, 2, 69, 120
4, 296039, Note_on_c, 2, 69, 0
4, 296040, Note_on_c, 2, 67, 120
4, 296099, Note_on_c, 2, 67, 0
4, 296100, Note_on_c, 2, 65, 120
4, 296159, Note_on_c, 2, 65, 0
4, 296160, Note_on_c, 2, 64, 120
4, 296219, Note_on_c, 2, 64, 0
4, 296220, Note_on_c, 2, 62, 120
4, 296279, Note_on_c, 2, 62, 0
4, 296280, Note_on_c, 2, 60, 120
4, 296399, Note_on_c, 2, 60, 0
4, 296400, Note_on_c, 2, 67, 120
4, 296519, Note_on_c, 2, 67, 0
4, 296520, Note_on_c, 2, 69, 120
4, 296579, Note_on_c, 2, 69, 0
4, 296580, Note_on_c, 2, 70, 120
4, 296639, Note_on_c, 2, 70, 0
4, 296640, Note_on_c, 2, 72, 120
4, 296699, Note_on_c, 2, 72, 0
4, 296700, Note_on_c, 2, 74, 120
4, 296759, Note_on_c, 2, 74, 0
4, 296760, Note_on_c, 2, 67, 120
4, 296939, Note_on_c, 2, 67, 0
4, 296940, Note_on_c, 2, 65, 120
4, 296999, Note_on_c, 2, 65, 0
4, 297000, Note_on_c, 2, 65, 120
4, 297359, Note_on_c, 2, 65, 0
4, 297360, Note_on_c, 2, 72, 120
4, 297479, Note_on_c, 2, 72, 0
4, 297480, Note_on_c, 2, 77, 120
4, 297599, Note_on_c, 2, 77, 0
4, 297600, Note_on_c, 2, 77, 120
4, 297719, Note_on_c, 2, 77, 0
4, 297720, Note_on_c, 2, 77, 120
4, 297839, Note_on_c, 2, 77, 0
4, 297840, Note_on_c, 2, 79, 120
4, 297899, Note_on_c, 2, 79, 0
4, 297900, Note_on_c, 2, 81, 120
4, 297959, Note_on_c, 2, 81, 0
4, 297960, Note_on_c, 2, 74, 120
4, 298079, Note_on_c, 2, 74, 0
4, 298080, Note_on_c, 2, 74, 120
4, 298199, Note_on_c, 2, 74, 0
4, 298200, Note_on_c, 2, 74, 120
4, 298319, Note_on_c, 2, 74, 0
4, 298320, Note_on_c, 2, 74, 120
4, 298439, Note_on_c, 2, 74, 0
4, 298440, Note_on_c, 2, 79, 120
4, 298559, Note_on_c, 2, 79, 0
4, 298560, Note_on_c, 2, 79, 120
4, 298679, Note_on_c, 2, 79, 0
4, 298680, Note_on_c, 2, 79, 120
4, 298799, Note_on_c, 2, 79, 0
4, 298800, Note_on_c, 2, 81, 120
4, 298859, Note_on_c, 2, 81, 0
4, 298860, Note_on_c, 2, 82, 120
4, 298919, Note_on_c, 2, 82, 0
4, 298920, Note_on_c, 2, 76, 120
4, 299039, Note_on_c, 2, 76, 0
4, 299040, Note_on_c, 2, 74, 120
4, 299099, Note_on_c, 2, 74, 0
4, 299100, Note_on_c, 2, 76, 120
4, 299159, Note_on_c, 2, 76, 0
4, 299160, Note_on_c, 2, 72, 120
4, 299279, Note_on_c, 2, 72, 0
4, 299280, Note_on_c, 2, 77, 120
4, 299399, Note_on_c, 2, 77, 0
4, 299400, Note_on_c, 2, 74, 120
4, 299519, Note_on_c, 2, 74, 0
4, 299520, Note_on_c, 2, 72, 120
4, 299639, Note_on_c, 2, 72, 0
4, 299640, Note_on_c, 2, 72, 120
4, 299759, Note_on_c, 2, 72, 0
4, 299760, Note_on_c, 2, 77, 120
4, 299879, Note_on_c, 2, 77, 0
4, 299880, Note_on_c, 2, 74, 120
4, 299999, Note_on_c, 2, 74, 0
4, 300000, Note_on_c, 2, 72, 120
4, 300119, Note_on_c, 2, 72, 0
4, 300120, Note_on_c, 2, 72, 120
4, 300239, Note_on_c, 2, 72, 0
4, 300240, Note_on_c, 2, 70, 120
4, 300299, Note_on_c, 2, 70, 0
4, 300300, Note_on_c, 2, 69, 120
4, 300359, Note_on_c, 2, 69, 0
4, 300360, Note_on_c, 2, 74, 120
4, 300479, Note_on_c, 2, 74, 0
4, 300480, Note_on_c, 2, 72, 120
4, 300599, Note_on_c, 2, 72, 0
4, 300600, Note_on_c, 2, 70, 120
4, 300659, Note_on_c, 2, 70, 0
4, 300660, Note_on_c, 2, 69, 120
4, 300719, Note_on_c, 2, 69, 0
4, 300720, Note_on_c, 2, 67, 120
4, 300779, Note_on_c, 2, 67, 0
4, 300780, Note_on_c, 2, 65, 120
4, 300839, Note_on_c, 2, 65, 0
4, 300840, Note_on_c, 2, 64, 120
4, 300959, Note_on_c, 2, 64, 0
4, 300960, Note_on_c, 2, 62, 120
4, 301019, Note_on_c, 2, 62, 0
4, 301020, Note_on_c, 2, 64, 120
4, 301079, Note_on_c, 2, 64, 0
4, 301080, Note_on_c, 2, 60, 120
4, 301199, Note_on_c, 2, 60, 0
4, 301200, Note_on_c, 2, 65, 120
4, 301259, Note_on_c, 2, 65, 0
4, 301260, Note_on_c, 2, 67, 120
4, 301319, Note_on_c, 2, 67, 0
4, 301320, Note_on_c, 2, 69, 120
4, 301439, Note_on_c, 2, 69, 0
4, 301440, Note_on_c, 2, 67, 120
4, 301499, Note_on_c, 2, 67, 0
4, 301500, Note_on_c, 2, 65, 120
4, 301559, Note_on_c, 2, 65, 0
4, 301560, Note_on_c, 2, 72, 120
4, 301679, Note_on_c, 2, 72, 0
4, 301680, Note_on_c, 2, 74, 120
4, 301739, Note_on_c, 2, 74, 0
4, 301740, Note_on_c, 2, 76, 120
4, 301799, Note_on_c, 2, 76, 0
4, 301800, Note_on_c, 2, 77, 120
4, 301919, Note_on_c, 2, 77, 0
4, 301920, Note_on_c, 2, 76, 120
4, 301979, Note_on_c, 2, 76, 0
4, 301980, Note_on_c, 2, 74, 120
4, 302039, Note_on_c, 2, 74, 0
4, 302040, Note_on_c, 2, 72, 120
4, 302159, Note_on_c, 2, 72, 0
4, 302160, Note_on_c, 2, 77, 120
4, 302279, Note_on_c, 2, 77, 0
4, 302280, Note_on_c, 2, 74, 120
4, 302399, Note_on_c, 2, 74, 0
4, 302400, Note_on_c, 2, 72, 120
4, 302519, Note_on_c, 2, 72, 0
4, 302520, Note_on_c, 2, 70, 120
4, 302639, Note_on_c, 2, 70, 0
4, 302640, Note_on_c, 2, 69, 120
4, 302759, Note_on_c, 2, 69, 0
4, 302760, Note_on_c, 2, 67, 120
4, 302819, Note_on_c, 2, 67, 0
4, 302820, Note_on_c, 2, 65, 120
4, 302879, Note_on_c, 2, 65, 0
4, 302880, Note_on_c, 2, 64, 120
4, 302939, Note_on_c, 2, 64, 0
4, 302940, Note_on_c, 2, 62, 120
4, 302999, Note_on_c, 2, 62, 0
4, 303000, Note_on_c, 2, 60, 120
4, 303119, Note_on_c, 2, 60, 0
4, 303120, Note_on_c, 2, 67, 120
4, 303239, Note_on_c, 2, 67, 0
4, 303240, Note_on_c, 2, 69, 120
4, 303299, Note_on_c, 2, 69, 0
4, 303300, Note_on_c, 2, 70, 120
4, 303359, Note_on_c, 2, 70, 0
4, 303360, Note_on_c, 2, 72, 120
4, 303419, Note_on_c, 2, 72, 0
4, 303420, Note_on_c, 2, 74, 120
4, 303479, Note_on_c, 2, 74, 0
4, 303480, Note_on_c, 2, 67, 120
4, 303659, Note_on_c, 2, 67, 0
4, 303660, Note_on_c, 2, 65, 120
4, 303719, Note_on_c, 2, 65, 0
4, 303720, Note_on_c, 2, 65, 120
4, 304079, Note_on_c, 2, 65, 0
4, 304079, End_track
5, 0, Start_track
5, 0, MIDI_port, 0
5, 0, Title_t, "Violin II"
5, 0, Program_c, 3, 48
5, 134760, Note_on_c, 3, 61, 90
5, 134819, Note_on_c, 3, 61, 0
5, 134820, Note_on_c, 3, 64, 90
5, 134879, Note_on_c, 3, 64, 0
5, 134880, Note_on_c, 3, 68, 90
5, 134939, Note_on_c, 3, 68, 0
5, 134940, Note_on_c, 3, 69, 90
5, 135059, Note_on_c, 3, 69, 0
5, 135060, Note_on_c, 3, 68, 90
5, 135149, Note_on_c, 3, 68, 0
5, 135150, Note_on_c, 3, 66, 90
5, 135179, Note_on_c, 3, 66, 0
5, 135180, Note_on_c, 3, 68, 90
5, 135239, Note_on_c, 3, 68, 0
5, 135240, Note_on_c, 3, 69, 90
5, 135359, Note_on_c, 3, 69, 0
5, 135360, Note_on_c, 3, 68, 90
5, 135419, Note_on_c, 3, 68, 0
5, 135420, Note_on_c, 3, 69, 90
5, 135479, Note_on_c, 3, 69, 0
5, 135480, Note_on_c, 3, 73, 90
5, 135539, Note_on_c, 3, 73, 0
5, 135540, Note_on_c, 3, 73, 90
5, 135599, Note_on_c, 3, 73, 0
5, 135600, Note_on_c, 3, 71, 90
5, 135659, Note_on_c, 3, 71, 0
5, 135660, Note_on_c, 3, 73, 90
5, 135719, Note_on_c, 3, 73, 0
5, 135720, Note_on_c, 3, 74, 90
5, 135779, Note_on_c, 3, 74, 0
5, 135780, Note_on_c, 3, 62, 90
5, 135899, Note_on_c, 3, 62, 0
5, 135900, Note_on_c, 3, 71, 90
5, 135959, Note_on_c, 3, 71, 0
5, 135960, Note_on_c, 3, 69, 90
5, 136019, Note_on_c, 3, 69, 0
5, 136020, Note_on_c, 3, 69, 90
5, 136049, Note_on_c, 3, 69, 0
5, 136050, Note_on_c, 3, 68, 90
5, 136139, Note_on_c, 3, 68, 0
5, 136245, Program_c, 3, 45
5, 136260, Note_on_c, 3, 69, 90
5, 136319, Note_on_c, 3, 69, 0
5, 136320, Note_on_c, 3, 68, 90
5, 136379, Note_on_c, 3, 68, 0
5, 136380, Note_on_c, 3, 69, 90
5, 136499, Note_on_c, 3, 69, 0
5, 136500, Note_on_c, 3, 68, 90
5, 136559, Note_on_c, 3, 68, 0
5, 136620, Note_on_c, 3, 71, 90
5, 136679, Note_on_c, 3, 71, 0
5, 136680, Note_on_c, 3, 69, 90
5, 136739, Note_on_c, 3, 69, 0
5, 136740, Note_on_c, 3, 71, 90
5, 136859, Note_on_c, 3, 71, 0
5, 136860, Note_on_c, 3, 69, 90
5, 136919, Note_on_c, 3, 69, 0
5, 136980, Note_on_c, 3, 69, 90
5, 137039, Note_on_c, 3, 69, 0
5, 137040, Note_on_c, 3, 68, 90
5, 137099, Note_on_c, 3, 68, 0
5, 137160, Note_on_c, 3, 68, 90
5, 137219, Note_on_c, 3, 68, 0
5, 137220, Note_on_c, 3, 69, 90
5, 137279, Note_on_c, 3, 69, 0
5, 137340, Note_on_c, 3, 71, 90
5, 137399, Note_on_c, 3, 71, 0
5, 137400, Note_on_c, 3, 69, 90
5, 137459, Note_on_c, 3, 69, 0
5, 137460, Note_on_c, 3, 68, 90
5, 137610, Program_c, 3, 48
5, 137639, Note_on_c, 3, 68, 0
5, 137640, Note_on_c, 3, 69, 90
5, 137699, Note_on_c, 3, 69, 0
5, 137700, Note_on_c, 3, 71, 90
5, 137759, Note_on_c, 3, 71, 0
5, 137760, Note_on_c, 3, 64, 90
5, 137819, Note_on_c, 3, 64, 0
5, 137820, Note_on_c, 3, 62, 90
5, 137879, Note_on_c, 3, 62, 0
5, 137880, Note_on_c, 3, 69, 90
5, 137939, Note_on_c, 3, 69, 0
5, 137940, Note_on_c, 3, 70, 90
5, 137999, Note_on_c, 3, 70, 0
5, 138000, Note_on_c, 3, 71, 90
5, 138059, Note_on_c, 3, 71, 0
5, 138060, Note_on_c, 3, 69, 90
5, 138089, Note_on_c, 3, 69, 0
5, 138090, Note_on_c, 3, 68, 90
5, 138119, Note_on_c, 3, 68, 0
5, 138120, Note_on_c, 3, 69, 90
5, 138179, Note_on_c, 3, 69, 0
5, 138180, Note_on_c, 3, 68, 90
5, 138239, Note_on_c, 3, 68, 0
5, 138240, Note_on_c, 3, 69, 90
5, 138299, Note_on_c, 3, 69, 0
5, 138300, Note_on_c, 3, 71, 90
5, 138359, Note_on_c, 3, 71, 0
5, 138360, Note_on_c, 3, 73, 90
5, 138419, Note_on_c, 3, 73, 0
5, 138420, Note_on_c, 3, 74, 90
5, 138449, Note_on_c, 3, 74, 0
5, 138450, Note_on_c, 3, 73, 90
5, 138479, Note_on_c, 3, 73, 0
5, 138480, Note_on_c, 3, 71, 90
5, 138509, Note_on_c, 3, 71, 0
5, 138510, Note_on_c, 3, 69, 90
5, 138539, Note_on_c, 3, 69, 0
5, 138540, Note_on_c, 3, 68, 90
5, 138599, Note_on_c, 3, 68, 0
5, 138600, Note_on_c, 3, 69, 90
5, 138659, Note_on_c, 3, 69, 0
5, 138660, Note_on_c, 3, 68, 90
5, 138719, Note_on_c, 3, 68, 0
5, 138720, Note_on_c, 3, 69, 90
5, 138779, Note_on_c, 3, 69, 0
5, 138780, Note_on_c, 3, 71, 90
5, 138839, Note_on_c, 3, 71, 0
5, 138840, Note_on_c, 3, 68, 90
5, 138899, Note_on_c, 3, 68, 0
5, 138900, Note_on_c, 3, 64, 90
5, 139079, Note_on_c, 3, 64, 0
5, 139125, Program_c, 3, 45
5, 139140, Note_on_c, 3, 69, 90
5, 139199, Note_on_c, 3, 69, 0
5, 139200, Note_on_c, 3, 67, 90
5, 139259, Note_on_c, 3, 67, 0
5, 139260, Note_on_c, 3, 69, 90
5, 139319, Note_on_c, 3, 69, 0
5, 139500, Note_on_c, 3, 68, 90
5, 139559, Note_on_c, 3, 68, 0
5, 139560, Note_on_c, 3, 66, 90
5, 139619, Note_on_c, 3, 66, 0
5, 139620, Note_on_c, 3, 68, 90
5, 139679, Note_on_c, 3, 68, 0
5, 139860, Note_on_c, 3, 68, 90
5, 139919, Note_on_c, 3, 68, 0
5, 139920, Note_on_c, 3, 69, 90
5, 139979, Note_on_c, 3, 69, 0
5, 140040, Note_on_c, 3, 71, 90
5, 140099, Note_on_c, 3, 71, 0
5, 140100, Note_on_c, 3, 64, 90
5, 140159, Note_on_c, 3, 64, 0
5, 140220, Note_on_c, 3, 66, 90
5, 140279, Note_on_c, 3, 66, 0
5, 140280, Note_on_c, 3, 68, 90
5, 140339, Note_on_c, 3, 68, 0
5, 140340, Note_on_c, 3, 64, 90
5, 140490, Program_c, 3, 48
5, 140519, Note_on_c, 3, 64, 0
5, 140520, Note_on_c, 3, 64, 90
5, 141900, Note_on_c, 3, 64, 0
5, 141960, Note_on_c, 3, 64, 90
5, 142020, Note_on_c, 3, 64, 0
5, 142020, Note_on_c, 3, 69, 90
5, 142080, Note_on_c, 3, 69, 0
5, 142080, Note_on_c, 3, 71, 90
5, 142140, Note_on_c, 3, 71, 0
5, 142140, Note_on_c, 3, 73, 90
5, 142260, Note_on_c, 3, 73, 0
5, 142260, Note_on_c, 3, 71, 90
5, 142320, Note_on_c, 3, 71, 0
5, 142320, Note_on_c, 3, 64, 90
5, 142380, Note_on_c, 3, 64, 0
5, 142380, Note_on_c, 3, 71, 90
5, 142440, Note_on_c, 3, 71, 0
5, 142440, Note_on_c, 3, 73, 90
5, 142500, Note_on_c, 3, 73, 0
5, 142500, Note_on_c, 3, 74, 90
5, 142620, Note_on_c, 3, 74, 0
5, 142620, Note_on_c, 3, 73, 90
5, 142680, Note_on_c, 3, 73, 0
5, 142680, Note_on_c, 3, 76, 90
5, 142740, Note_on_c, 3, 76, 0
5, 142740, Note_on_c, 3, 76, 90
5, 142800, Note_on_c, 3, 76, 0
5, 142800, Note_on_c, 3, 76, 90
5, 142860, Note_on_c, 3, 76, 0
5, 142860, Note_on_c, 3, 76, 90
5, 142920, Note_on_c, 3, 76, 0
5, 142920, Note_on_c, 3, 74, 90
5, 142950, Note_on_c, 3, 74, 0
5, 142950, Note_on_c, 3, 73, 90
5, 142980, Note_on_c, 3, 73, 0
5, 142980, Note_on_c, 3, 71, 90
5, 143010, Note_on_c, 3, 71, 0
5, 143010, Note_on_c, 3, 69, 90
5, 143040, Note_on_c, 3, 69, 0
5, 143040, Note_on_c, 3, 68, 90
5, 143100, Note_on_c, 3, 68, 0
5, 143100, Note_on_c, 3, 74, 90
5, 143160, Note_on_c, 3, 74, 0
5, 143160, Note_on_c, 3, 73, 90
5, 143220, Note_on_c, 3, 73, 0
5, 143220, Note_on_c, 3, 73, 90
5, 143250, Note_on_c, 3, 73, 0
5, 143250, Note_on_c, 3, 71, 90
5, 143340, Note_on_c, 3, 71, 0
5, 143400, Note_on_c, 3, 57, 90
5, 144540, Note_on_c, 3, 57, 0
5, 144540, Note_on_c, 3, 59, 90
5, 144599, Note_on_c, 3, 59, 0
5, 144600, Note_on_c, 3, 56, 90
5, 144659, Note_on_c, 3, 56, 0
5, 144660, Note_on_c, 3, 57, 90
5, 144779, Note_on_c, 3, 57, 0
5, 144840, Note_on_c, 3, 76, 90
5, 144899, Note_on_c, 3, 76, 0
5, 144900, Note_on_c, 3, 74, 90
5, 144959, Note_on_c, 3, 74, 0
5, 144960, Note_on_c, 3, 73, 90
5, 145019, Note_on_c, 3, 73, 0
5, 145020, Note_on_c, 3, 74, 90
5, 145109, Note_on_c, 3, 74, 0
5, 145110, Note_on_c, 3, 76, 90
5, 145124, Note_on_c, 3, 76, 0
5, 145125, Note_on_c, 3, 78, 90
5, 145139, Note_on_c, 3, 78, 0
5, 145140, Note_on_c, 3, 76, 90
5, 145199, Note_on_c, 3, 76, 0
5, 145200, Note_on_c, 3, 74, 90
5, 145259, Note_on_c, 3, 74, 0
5, 145260, Note_on_c, 3, 73, 90
5, 145319, Note_on_c, 3, 73, 0
5, 145320, Note_on_c, 3, 71, 90
5, 145379, Note_on_c, 3, 71, 0
5, 145380, Note_on_c, 3, 73, 90
5, 145469, Note_on_c, 3, 73, 0
5, 145470, Note_on_c, 3, 74, 90
5, 145484, Note_on_c, 3, 74, 0
5, 145485, Note_on_c, 3, 76, 90
5, 145499, Note_on_c, 3, 76, 0
5, 145500, Note_on_c, 3, 74, 90
5, 145559, Note_on_c, 3, 74, 0
5, 145560, Note_on_c, 3, 64, 90
5, 145619, Note_on_c, 3, 64, 0
5, 145620, Note_on_c, 3, 64, 90
5, 145679, Note_on_c, 3, 64, 0
5, 145680, Note_on_c, 3, 64, 90
5, 145739, Note_on_c, 3, 64, 0
5, 145740, Note_on_c, 3, 64, 90
5, 145799, Note_on_c, 3, 64, 0
5, 145800, Note_on_c, 3, 66, 90
5, 145829, Note_on_c, 3, 66, 0
5, 145830, Note_on_c, 3, 68, 90
5, 145859, Note_on_c, 3, 68, 0
5, 145860, Note_on_c, 3, 69, 90
5, 145889, Note_on_c, 3, 69, 0
5, 145890, Note_on_c, 3, 71, 90
5, 145919, Note_on_c, 3, 71, 0
5, 145920, Note_on_c, 3, 73, 90
5, 145979, Note_on_c, 3, 73, 0
5, 145980, Note_on_c, 3, 74, 90
5, 146039, Note_on_c, 3, 74, 0
5, 146040, Note_on_c, 3, 71, 90
5, 146099, Note_on_c, 3, 71, 0
5, 146100, Note_on_c, 3, 69, 90
5, 146279, Note_on_c, 3, 69, 0
5, 146280, Note_on_c, 3, 64, 90
5, 146310, Note_on_c, 3, 64, 0
5, 146400, Note_on_c, 3, 71, 90
5, 146430, Note_on_c, 3, 71, 0
5, 146460, Note_on_c, 3, 73, 90
5, 146490, Note_on_c, 3, 73, 0
5, 146580, Note_on_c, 3, 71, 90
5, 146610, Note_on_c, 3, 71, 0
5, 146640, Note_on_c, 3, 64, 90
5, 146670, Note_on_c, 3, 64, 0
5, 146760, Note_on_c, 3, 73, 90
5, 146790, Note_on_c, 3, 73, 0
5, 146820, Note_on_c, 3, 74, 90
5, 146850, Note_on_c, 3, 74, 0
5, 146940, Note_on_c, 3, 73, 90
5, 146970, Note_on_c, 3, 73, 0
5, 147000, Note_on_c, 3, 76, 90
5, 147030, Note_on_c, 3, 76, 0
5, 147120, Note_on_c, 3, 76, 90
5, 147150, Note_on_c, 3, 76, 0
5, 147180, Note_on_c, 3, 76, 90
5, 147210, Note_on_c, 3, 76, 0
5, 147300, Note_on_c, 3, 71, 90
5, 147329, Note_on_c, 3, 71, 0
5, 147330, Note_on_c, 3, 69, 90
5, 147359, Note_on_c, 3, 69, 0
5, 147360, Note_on_c, 3, 68, 90
5, 147390, Note_on_c, 3, 68, 0
5, 147480, Note_on_c, 3, 73, 90
5, 147510, Note_on_c, 3, 73, 0
5, 147540, Note_on_c, 3, 71, 90
5, 147659, Note_on_c, 3, 71, 0
5, 147720, Note_on_c, 3, 61, 90
5, 147779, Note_on_c, 3, 61, 0
5, 147780, Note_on_c, 3, 64, 90
5, 147839, Note_on_c, 3, 64, 0
5, 147840, Note_on_c, 3, 68, 90
5, 147899, Note_on_c, 3, 68, 0
5, 147900, Note_on_c, 3, 69, 90
5, 148019, Note_on_c, 3, 69, 0
5, 148020, Note_on_c, 3, 68, 90
5, 148079, Note_on_c, 3, 68, 0
5, 148080, Note_on_c, 3, 56, 90
5, 148139, Note_on_c, 3, 56, 0
5, 148140, Note_on_c, 3, 68, 90
5, 148199, Note_on_c, 3, 68, 0
5, 148200, Note_on_c, 3, 69, 90
5, 148259, Note_on_c, 3, 69, 0
5, 148260, Note_on_c, 3, 68, 90
5, 148379, Note_on_c, 3, 68, 0
5, 148380, Note_on_c, 3, 69, 90
5, 148439, Note_on_c, 3, 69, 0
5, 148440, Note_on_c, 3, 71, 90
5, 148469, Note_on_c, 3, 71, 0
5, 148470, Note_on_c, 3, 69, 90
5, 148499, Note_on_c, 3, 69, 0
5, 148500, Note_on_c, 3, 68, 90
5, 148529, Note_on_c, 3, 68, 0
5, 148530, Note_on_c, 3, 66, 90
5, 148559, Note_on_c, 3, 66, 0
5, 148560, Note_on_c, 3, 64, 90
5, 148589, Note_on_c, 3, 64, 0
5, 148590, Note_on_c, 3, 62, 90
5, 148619, Note_on_c, 3, 62, 0
5, 148620, Note_on_c, 3, 61, 90
5, 148679, Note_on_c, 3, 61, 0
5, 148680, Note_on_c, 3, 62, 90
5, 148739, Note_on_c, 3, 62, 0
5, 148740, Note_on_c, 3, 66, 90
5, 148769, Note_on_c, 3, 66, 0
5, 148770, Note_on_c, 3, 64, 90
5, 148799, Note_on_c, 3, 64, 0
5, 148800, Note_on_c, 3, 62, 90
5, 148859, Note_on_c, 3, 62, 0
5, 148860, Note_on_c, 3, 71, 90
5, 148919, Note_on_c, 3, 71, 0
5, 148920, Note_on_c, 3, 69, 90
5, 148979, Note_on_c, 3, 69, 0
5, 148980, Note_on_c, 3, 68, 90
5, 149099, Note_on_c, 3, 68, 0
5, 149160, Note_on_c, 3, 76, 90
5, 149190, Note_on_c, 3, 76, 0
5, 149280, Note_on_c, 3, 73, 90
5, 149310, Note_on_c, 3, 73, 0
5, 149340, Note_on_c, 3, 74, 90
5, 149370, Note_on_c, 3, 74, 0
5, 149460, Note_on_c, 3, 76, 90
5, 149490, Note_on_c, 3, 76, 0
5, 149520, Note_on_c, 3, 74, 90
5, 149550, Note_on_c, 3, 74, 0
5, 149640, Note_on_c, 3, 71, 90
5, 149670, Note_on_c, 3, 71, 0
5, 149700, Note_on_c, 3, 73, 90
5, 149730, Note_on_c, 3, 73, 0
5, 149820, Note_on_c, 3, 74, 90
5, 149850, Note_on_c, 3, 74, 0
5, 149880, Note_on_c, 3, 64, 90
5, 149910, Note_on_c, 3, 64, 0
5, 150000, Note_on_c, 3, 64, 90
5, 150030, Note_on_c, 3, 64, 0
5, 150060, Note_on_c, 3, 64, 90
5, 150090, Note_on_c, 3, 64, 0
5, 150180, Note_on_c, 3, 69, 90
5, 150209, Note_on_c, 3, 69, 0
5, 150210, Note_on_c, 3, 71, 90
5, 150239, Note_on_c, 3, 71, 0
5, 150240, Note_on_c, 3, 73, 90
5, 150270, Note_on_c, 3, 73, 0
5, 150360, Note_on_c, 3, 68, 90
5, 150390, Note_on_c, 3, 68, 0
5, 150420, Note_on_c, 3, 64, 90
5, 150539, Note_on_c, 3, 64, 0
5, 150600, Note_on_c, 3, 70, 90
5, 150659, Note_on_c, 3, 70, 0
5, 150660, Note_on_c, 3, 71, 90
5, 150719, Note_on_c, 3, 71, 0
5, 150720, Note_on_c, 3, 70, 90
5, 150779, Note_on_c, 3, 70, 0
5, 150780, Note_on_c, 3, 71, 90
5, 150839, Note_on_c, 3, 71, 0
5, 150840, Note_on_c, 3, 66, 90
5, 150899, Note_on_c, 3, 66, 0
5, 150900, Note_on_c, 3, 70, 90
5, 150959, Note_on_c, 3, 70, 0
5, 150960, Note_on_c, 3, 71, 90
5, 151019, Note_on_c, 3, 71, 0
5, 151020, Note_on_c, 3, 69, 90
5, 151079, Note_on_c, 3, 69, 0
5, 151080, Note_on_c, 3, 68, 90
5, 151139, Note_on_c, 3, 68, 0
5, 151140, Note_on_c, 3, 69, 90
5, 151199, Note_on_c, 3, 69, 0
5, 151200, Note_on_c, 3, 64, 90
5, 151259, Note_on_c, 3, 64, 0
5, 151260, Note_on_c, 3, 68, 90
5, 151319, Note_on_c, 3, 68, 0
5, 151320, Note_on_c, 3, 69, 90
5, 151349, Note_on_c, 3, 69, 0
5, 151350, Note_on_c, 3, 73, 90
5, 151379, Note_on_c, 3, 73, 0
5, 151380, Note_on_c, 3, 71, 90
5, 151409, Note_on_c, 3, 71, 0
5, 151410, Note_on_c, 3, 69, 90
5, 151439, Note_on_c, 3, 69, 0
5, 151440, Note_on_c, 3, 68, 90
5, 151469, Note_on_c, 3, 68, 0
5, 151470, Note_on_c, 3, 66, 90
5, 151499, Note_on_c, 3, 66, 0
5, 151500, Note_on_c, 3, 64, 90
5, 151529, Note_on_c, 3, 64, 0
5, 151530, Note_on_c, 3, 56, 90
5, 151559, Note_on_c, 3, 56, 0
5, 151560, Note_on_c, 3, 57, 90
5, 151589, Note_on_c, 3, 57, 0
5, 151590, Note_on_c, 3, 59, 90
5, 151619, Note_on_c, 3, 59, 0
5, 151620, Note_on_c, 3, 61, 90
5, 151649, Note_on_c, 3, 61, 0
5, 151650, Note_on_c, 3, 64, 90
5, 151679, Note_on_c, 3, 64, 0
5, 151680, Note_on_c, 3, 69, 90
5, 151739, Note_on_c, 3, 69, 0
5, 151740, Note_on_c, 3, 71, 90
5, 151799, Note_on_c, 3, 71, 0
5, 151800, Note_on_c, 3, 68, 90
5, 151859, Note_on_c, 3, 68, 0
5, 151860, Note_on_c, 3, 64, 90
5, 151979, Note_on_c, 3, 64, 0
5, 152430, Note_on_c, 3, 73, 90
5, 152459, Note_on_c, 3, 73, 0
5, 152460, Note_on_c, 3, 71, 90
5, 152489, Note_on_c, 3, 71, 0
5, 152490, Note_on_c, 3, 69, 90
5, 152519, Note_on_c, 3, 69, 0
5, 152520, Note_on_c, 3, 68, 90
5, 152549, Note_on_c, 3, 68, 0
5, 152550, Note_on_c, 3, 71, 90
5, 152579, Note_on_c, 3, 71, 0
5, 152580, Note_on_c, 3, 69, 90
5, 152609, Note_on_c, 3, 69, 0
5, 152610, Note_on_c, 3, 71, 90
5, 152639, Note_on_c, 3, 71, 0
5, 152640, Note_on_c, 3, 73, 90
5, 152699, Note_on_c, 3, 73, 0
5, 153150, Note_on_c, 3, 71, 90
5, 153179, Note_on_c, 3, 71, 0
5, 153180, Note_on_c, 3, 69, 90
5, 153209, Note_on_c, 3, 69, 0
5, 153210, Note_on_c, 3, 68, 90
5, 153239, Note_on_c, 3, 68, 0
5, 153240, Note_on_c, 3, 66, 90
5, 153269, Note_on_c, 3, 66, 0
5, 153270, Note_on_c, 3, 69, 90
5, 153299, Note_on_c, 3, 69, 0
5, 153300, Note_on_c, 3, 68, 90
5, 153329, Note_on_c, 3, 68, 0
5, 153330, Note_on_c, 3, 69, 90
5, 153359, Note_on_c, 3, 69, 0
5, 153360, Note_on_c, 3, 71, 90
5, 153419, Note_on_c, 3, 71, 0
5, 154200, Note_on_c, 3, 68, 90
5, 154319, Note_on_c, 3, 68, 0
5, 154320, Note_on_c, 3, 72, 90
5, 154379, Note_on_c, 3, 72, 0
5, 154380, Note_on_c, 3, 73, 90
5, 154499, Note_on_c, 3, 73, 0
5, 154500, Note_on_c, 3, 72, 90
5, 154559, Note_on_c, 3, 72, 0
5, 154560, Note_on_c, 3, 72, 90
5, 154679, Note_on_c, 3, 72, 0
5, 154680, Note_on_c, 3, 73, 90
5, 154799, Note_on_c, 3, 73, 0
5, 154800, Note_on_c, 3, 72, 90
5, 154859, Note_on_c, 3, 72, 0
5, 154860, Note_on_c, 3, 73, 90
5, 154919, Note_on_c, 3, 73, 0
5, 155640, Note_on_c, 3, 63, 90
5, 155699, Note_on_c, 3, 63, 0
5, 155700, Note_on_c, 3, 61, 90
5, 155759, Note_on_c, 3, 61, 0
5, 155820, Note_on_c, 3, 61, 90
5, 155879, Note_on_c, 3, 61, 0
5, 155880, Note_on_c, 3, 63, 90
5, 155939, Note_on_c, 3, 63, 0
5, 156000, Note_on_c, 3, 68, 90
5, 156059, Note_on_c, 3, 68, 0
5, 156060, Note_on_c, 3, 66, 90
5, 156119, Note_on_c, 3, 66, 0
5, 156180, Note_on_c, 3, 72, 90
5, 156239, Note_on_c, 3, 72, 0
5, 156240, Note_on_c, 3, 73, 90
5, 156299, Note_on_c, 3, 73, 0
5, 156360, Note_on_c, 3, 68, 90
5, 156419, Note_on_c, 3, 68, 0
5, 156420, Note_on_c, 3, 66, 90
5, 156479, Note_on_c, 3, 66, 0
5, 156480, Note_on_c, 3, 64, 90
5, 156539, Note_on_c, 3, 64, 0
5, 156540, Note_on_c, 3, 63, 90
5, 156659, Note_on_c, 3, 63, 0
5, 156720, Note_on_c, 3, 73, 90
5, 156779, Note_on_c, 3, 73, 0
5, 156780, Note_on_c, 3, 75, 90
5, 156839, Note_on_c, 3, 75, 0
5, 156840, Note_on_c, 3, 72, 90
5, 156899, Note_on_c, 3, 72, 0
5, 156900, Note_on_c, 3, 68, 90
5, 157019, Note_on_c, 3, 68, 0
5, 157500, Note_on_c, 3, 71, 90
5, 157560, Note_on_c, 3, 71, 0
5, 157560, Note_on_c, 3, 76, 90
5, 157620, Note_on_c, 3, 76, 0
5, 157620, Note_on_c, 3, 76, 90
5, 157740, Note_on_c, 3, 76, 0
5, 158220, Note_on_c, 3, 68, 90
5, 158280, Note_on_c, 3, 68, 0
5, 158280, Note_on_c, 3, 73, 90
5, 158340, Note_on_c, 3, 73, 0
5, 158340, Note_on_c, 3, 73, 90
5, 158460, Note_on_c, 3, 73, 0
5, 159240, Note_on_c, 3, 69, 90
5, 159299, Note_on_c, 3, 69, 0
5, 159300, Note_on_c, 3, 73, 90
5, 159359, Note_on_c, 3, 73, 0
5, 159360, Note_on_c, 3, 77, 90
5, 159419, Note_on_c, 3, 77, 0
5, 159420, Note_on_c, 3, 78, 90
5, 159539, Note_on_c, 3, 78, 0
5, 159540, Note_on_c, 3, 77, 90
5, 159599, Note_on_c, 3, 77, 0
5, 159600, Note_on_c, 3, 77, 90
5, 159719, Note_on_c, 3, 77, 0
5, 159720, Note_on_c, 3, 78, 90
5, 159839, Note_on_c, 3, 78, 0
5, 159840, Note_on_c, 3, 77, 90
5, 159899, Note_on_c, 3, 77, 0
5, 159900, Note_on_c, 3, 78, 90
5, 159959, Note_on_c, 3, 78, 0
5, 160380, Note_on_c, 3, 74, 90
5, 160440, Note_on_c, 3, 74, 0
5, 160440, Note_on_c, 3, 73, 90
5, 160500, Note_on_c, 3, 73, 0
5, 160500, Note_on_c, 3, 73, 90
5, 160680, Note_on_c, 3, 73, 0
5, 160680, Note_on_c, 3, 61, 90
5, 160739, Note_on_c, 3, 61, 0
5, 160740, Note_on_c, 3, 64, 90
5, 160799, Note_on_c, 3, 64, 0
5, 160800, Note_on_c, 3, 68, 90
5, 160859, Note_on_c, 3, 68, 0
5, 160860, Note_on_c, 3, 69, 90
5, 160979, Note_on_c, 3, 69, 0
5, 160980, Note_on_c, 3, 68, 90
5, 161069, Note_on_c, 3, 68, 0
5, 161070, Note_on_c, 3, 66, 90
5, 161099, Note_on_c, 3, 66, 0
5, 161100, Note_on_c, 3, 68, 90
5, 161159, Note_on_c, 3, 68, 0
5, 161160, Note_on_c, 3, 69, 90
5, 161279, Note_on_c, 3, 69, 0
5, 161280, Note_on_c, 3, 68, 90
5, 161339, Note_on_c, 3, 68, 0
5, 161340, Note_on_c, 3, 69, 90
5, 161399, Note_on_c, 3, 69, 0
5, 161400, Note_on_c, 3, 73, 90
5, 161459, Note_on_c, 3, 73, 0
5, 161460, Note_on_c, 3, 73, 90
5, 161519, Note_on_c, 3, 73, 0
5, 161520, Note_on_c, 3, 71, 90
5, 161579, Note_on_c, 3, 71, 0
5, 161580, Note_on_c, 3, 73, 90
5, 161639, Note_on_c, 3, 73, 0
5, 161640, Note_on_c, 3, 74, 90
5, 161699, Note_on_c, 3, 74, 0
5, 161700, Note_on_c, 3, 62, 90
5, 161819, Note_on_c, 3, 62, 0
5, 161820, Note_on_c, 3, 71, 90
5, 161879, Note_on_c, 3, 71, 0
5, 161880, Note_on_c, 3, 69, 90
5, 161939, Note_on_c, 3, 69, 0
5, 161940, Note_on_c, 3, 69, 90
5, 161969, Note_on_c, 3, 69, 0
5, 161970, Note_on_c, 3, 68, 90
5, 162059, Note_on_c, 3, 68, 0
5, 162165, Program_c, 3, 45
5, 162180, Note_on_c, 3, 69, 90
5, 162239, Note_on_c, 3, 69, 0
5, 162240, Note_on_c, 3, 68, 90
5, 162299, Note_on_c, 3, 68, 0
5, 162300, Note_on_c, 3, 69, 90
5, 162419, Note_on_c, 3, 69, 0
5, 162420, Note_on_c, 3, 68, 90
5, 162479, Note_on_c, 3, 68, 0
5, 162540, Note_on_c, 3, 71, 90
5, 162599, Note_on_c, 3, 71, 0
5, 162600, Note_on_c, 3, 69, 90
5, 162659, Note_on_c, 3, 69, 0
5, 162660, Note_on_c, 3, 71, 90
5, 162779, Note_on_c, 3, 71, 0
5, 162780, Note_on_c, 3, 69, 90
5, 162839, Note_on_c, 3, 69, 0
5, 162900, Note_on_c, 3, 69, 90
5, 162959, Note_on_c, 3, 69, 0
5, 162960, Note_on_c, 3, 68, 90
5, 163019, Note_on_c, 3, 68, 0
5, 163080, Note_on_c, 3, 68, 90
5, 163139, Note_on_c, 3, 68, 0
5, 163140, Note_on_c, 3, 69, 90
5, 163199, Note_on_c, 3, 69, 0
5, 163260, Note_on_c, 3, 71, 90
5, 163319, Note_on_c, 3, 71, 0
5, 163320, Note_on_c, 3, 69, 90
5, 163379, Note_on_c, 3, 69, 0
5, 163380, Note_on_c, 3, 68, 90
5, 163530, Program_c, 3, 48
5, 163559, Note_on_c, 3, 68, 0
5, 163560, Note_on_c, 3, 69, 90
5, 163619, Note_on_c, 3, 69, 0
5, 163620, Note_on_c, 3, 71, 90
5, 163679, Note_on_c, 3, 71, 0
5, 163680, Note_on_c, 3, 64, 90
5, 163739, Note_on_c, 3, 64, 0
5, 163740, Note_on_c, 3, 62, 90
5, 163799, Note_on_c, 3, 62, 0
5, 163800, Note_on_c, 3, 69, 90
5, 163859, Note_on_c, 3, 69, 0
5, 163860, Note_on_c, 3, 70, 90
5, 163919, Note_on_c, 3, 70, 0
5, 163920, Note_on_c, 3, 71, 90
5, 163979, Note_on_c, 3, 71, 0
5, 163980, Note_on_c, 3, 69, 90
5, 164009, Note_on_c, 3, 69, 0
5, 164010, Note_on_c, 3, 68, 90
5, 164039, Note_on_c, 3, 68, 0
5, 164040, Note_on_c, 3, 69, 90
5, 164099, Note_on_c, 3, 69, 0
5, 164100, Note_on_c, 3, 68, 90
5, 164159, Note_on_c, 3, 68, 0
5, 164160, Note_on_c, 3, 69, 90
5, 164219, Note_on_c, 3, 69, 0
5, 164220, Note_on_c, 3, 71, 90
5, 164279, Note_on_c, 3, 71, 0
5, 164280, Note_on_c, 3, 73, 90
5, 164339, Note_on_c, 3, 73, 0
5, 164340, Note_on_c, 3, 74, 90
5, 164369, Note_on_c, 3, 74, 0
5, 164370, Note_on_c, 3, 73, 90
5, 164399, Note_on_c, 3, 73, 0
5, 164400, Note_on_c, 3, 71, 90
5, 164429, Note_on_c, 3, 71, 0
5, 164430, Note_on_c, 3, 69, 90
5, 164459, Note_on_c, 3, 69, 0
5, 164460, Note_on_c, 3, 68, 90
5, 164519, Note_on_c, 3, 68, 0
5, 164520, Note_on_c, 3, 69, 90
5, 164579, Note_on_c, 3, 69, 0
5, 164580, Note_on_c, 3, 68, 90
5, 164639, Note_on_c, 3, 68, 0
5, 164640, Note_on_c, 3, 69, 90
5, 164699, Note_on_c, 3, 69, 0
5, 164700, Note_on_c, 3, 71, 90
5, 164759, Note_on_c, 3, 71, 0
5, 164760, Note_on_c, 3, 68, 90
5, 164819, Note_on_c, 3, 68, 0
5, 164820, Note_on_c, 3, 64, 90
5, 164999, Note_on_c, 3, 64, 0
5, 165045, Program_c, 3, 45
5, 165060, Note_on_c, 3, 69, 90
5, 165119, Note_on_c, 3, 69, 0
5, 165120, Note_on_c, 3, 67, 90
5, 165179, Note_on_c, 3, 67, 0
5, 165180, Note_on_c, 3, 69, 90
5, 165239, Note_on_c, 3, 69, 0
5, 165420, Note_on_c, 3, 68, 90
5, 165479, Note_on_c, 3, 68, 0
5, 165480, Note_on_c, 3, 66, 90
5, 165539, Note_on_c, 3, 66, 0
5, 165540, Note_on_c, 3, 68, 90
5, 165599, Note_on_c, 3, 68, 0
5, 165780, Note_on_c, 3, 68, 90
5, 165839, Note_on_c, 3, 68, 0
5, 165840, Note_on_c, 3, 69, 90
5, 165899, Note_on_c, 3, 69, 0
5, 165960, Note_on_c, 3, 71, 90
5, 166019, Note_on_c, 3, 71, 0
5, 166020, Note_on_c, 3, 64, 90
5, 166079, Note_on_c, 3, 64, 0
5, 166140, Note_on_c, 3, 66, 90
5, 166199, Note_on_c, 3, 66, 0
5, 166200, Note_on_c, 3, 68, 90
5, 166259, Note_on_c, 3, 68, 0
5, 166260, Note_on_c, 3, 64, 90
5, 166410, Program_c, 3, 48
5, 166439, Note_on_c, 3, 64, 0
5, 166440, Note_on_c, 3, 64, 90
5, 167820, Note_on_c, 3, 64, 0
5, 167880, Note_on_c, 3, 64, 90
5, 167940, Note_on_c, 3, 64, 0
5, 167940, Note_on_c, 3, 69, 90
5, 168000, Note_on_c, 3, 69, 0
5, 168000, Note_on_c, 3, 71, 90
5, 168060, Note_on_c, 3, 71, 0
5, 168060, Note_on_c, 3, 73, 90
5, 168180, Note_on_c, 3, 73, 0
5, 168180, Note_on_c, 3, 71, 90
5, 168240, Note_on_c, 3, 71, 0
5, 168240, Note_on_c, 3, 64, 90
5, 168300, Note_on_c, 3, 64, 0
5, 168300, Note_on_c, 3, 71, 90
5, 168360, Note_on_c, 3, 71, 0
5, 168360, Note_on_c, 3, 73, 90
5, 168420, Note_on_c, 3, 73, 0
5, 168420, Note_on_c, 3, 74, 90
5, 168540, Note_on_c, 3, 74, 0
5, 168540, Note_on_c, 3, 73, 90
5, 168600, Note_on_c, 3, 73, 0
5, 168600, Note_on_c, 3, 76, 90
5, 168660, Note_on_c, 3, 76, 0
5, 168660, Note_on_c, 3, 76, 90
5, 168720, Note_on_c, 3, 76, 0
5, 168720, Note_on_c, 3, 76, 90
5, 168780, Note_on_c, 3, 76, 0
5, 168780, Note_on_c, 3, 76, 90
5, 168840, Note_on_c, 3, 76, 0
5, 168840, Note_on_c, 3, 74, 90
5, 168870, Note_on_c, 3, 74, 0
5, 168870, Note_on_c, 3, 73, 90
5, 168900, Note_on_c, 3, 73, 0
5, 168900, Note_on_c, 3, 71, 90
5, 168930, Note_on_c, 3, 71, 0
5, 168930, Note_on_c, 3, 69, 90
5, 168960, Note_on_c, 3, 69, 0
5, 168960, Note_on_c, 3, 68, 90
5, 169020, Note_on_c, 3, 68, 0
5, 169020, Note_on_c, 3, 74, 90
5, 169080, Note_on_c, 3, 74, 0
5, 169080, Note_on_c, 3, 73, 90
5, 169140, Note_on_c, 3, 73, 0
5, 169140, Note_on_c, 3, 73, 90
5, 169170, Note_on_c, 3, 73, 0
5, 169170, Note_on_c, 3, 71, 90
5, 169260, Note_on_c, 3, 71, 0
5, 169320, Note_on_c, 3, 57, 90
5, 170460, Note_on_c, 3, 57, 0
5, 170460, Note_on_c, 3, 59, 90
5, 170519, Note_on_c, 3, 59, 0
5, 170520, Note_on_c, 3, 56, 90
5, 170579, Note_on_c, 3, 56, 0
5, 170580, Note_on_c, 3, 57, 90
5, 170699, Note_on_c, 3, 57, 0
5, 170760, Note_on_c, 3, 76, 90
5, 170819, Note_on_c, 3, 76, 0
5, 170820, Note_on_c, 3, 74, 90
5, 170879, Note_on_c, 3, 74, 0
5, 170880, Note_on_c, 3, 73, 90
5, 170939, Note_on_c, 3, 73, 0
5, 170940, Note_on_c, 3, 74, 90
5, 171029, Note_on_c, 3, 74, 0
5, 171030, Note_on_c, 3, 76, 90
5, 171044, Note_on_c, 3, 76, 0
5, 171045, Note_on_c, 3, 78, 90
5, 171059, Note_on_c, 3, 78, 0
5, 171060, Note_on_c, 3, 76, 90
5, 171119, Note_on_c, 3, 76, 0
5, 171120, Note_on_c, 3, 74, 90
5, 171179, Note_on_c, 3, 74, 0
5, 171180, Note_on_c, 3, 73, 90
5, 171239, Note_on_c, 3, 73, 0
5, 171240, Note_on_c, 3, 71, 90
5, 171299, Note_on_c, 3, 71, 0
5, 171300, Note_on_c, 3, 73, 90
5, 171389, Note_on_c, 3, 73, 0
5, 171390, Note_on_c, 3, 74, 90
5, 171404, Note_on_c, 3, 74, 0
5, 171405, Note_on_c, 3, 76, 90
5, 171419, Note_on_c, 3, 76, 0
5, 171420, Note_on_c, 3, 74, 90
5, 171479, Note_on_c, 3, 74, 0
5, 171480, Note_on_c, 3, 64, 90
5, 171539, Note_on_c, 3, 64, 0
5, 171540, Note_on_c, 3, 64, 90
5, 171599, Note_on_c, 3, 64, 0
5, 171600, Note_on_c, 3, 64, 90
5, 171659, Note_on_c, 3, 64, 0
5, 171660, Note_on_c, 3, 64, 90
5, 171719, Note_on_c, 3, 64, 0
5, 171720, Note_on_c, 3, 66, 90
5, 171749, Note_on_c, 3, 66, 0
5, 171750, Note_on_c, 3, 68, 90
5, 171779, Note_on_c, 3, 68, 0
5, 171780, Note_on_c, 3, 69, 90
5, 171809, Note_on_c, 3, 69, 0
5, 171810, Note_on_c, 3, 71, 90
5, 171839, Note_on_c, 3, 71, 0
5, 171840, Note_on_c, 3, 73, 90
5, 171899, Note_on_c, 3, 73, 0
5, 171900, Note_on_c, 3, 74, 90
5, 171959, Note_on_c, 3, 74, 0
5, 171960, Note_on_c, 3, 71, 90
5, 172019, Note_on_c, 3, 71, 0
5, 172020, Note_on_c, 3, 69, 90
5, 172199, Note_on_c, 3, 69, 0
5, 172200, Note_on_c, 3, 64, 90
5, 172230, Note_on_c, 3, 64, 0
5, 172320, Note_on_c, 3, 71, 90
5, 172350, Note_on_c, 3, 71, 0
5, 172380, Note_on_c, 3, 73, 90
5, 172410, Note_on_c, 3, 73, 0
5, 172500, Note_on_c, 3, 71, 90
5, 172530, Note_on_c, 3, 71, 0
5, 172560, Note_on_c, 3, 64, 90
5, 172590, Note_on_c, 3, 64, 0
5, 172680, Note_on_c, 3, 73, 90
5, 172710, Note_on_c, 3, 73, 0
5, 172740, Note_on_c, 3, 74, 90
5, 172770, Note_on_c, 3, 74, 0
5, 172860, Note_on_c, 3, 73, 90
5, 172890, Note_on_c, 3, 73, 0
5, 172920, Note_on_c, 3, 76, 90
5, 172950, Note_on_c, 3, 76, 0
5, 173040, Note_on_c, 3, 76, 90
5, 173070, Note_on_c, 3, 76, 0
5, 173100, Note_on_c, 3, 76, 90
5, 173130, Note_on_c, 3, 76, 0
5, 173220, Note_on_c, 3, 71, 90
5, 173249, Note_on_c, 3, 71, 0
5, 173250, Note_on_c, 3, 69, 90
5, 173279, Note_on_c, 3, 69, 0
5, 173280, Note_on_c, 3, 68, 90
5, 173310, Note_on_c, 3, 68, 0
5, 173400, Note_on_c, 3, 73, 90
5, 173430, Note_on_c, 3, 73, 0
5, 173460, Note_on_c, 3, 71, 90
5, 173579, Note_on_c, 3, 71, 0
5, 173640, Note_on_c, 3, 61, 90
5, 173699, Note_on_c, 3, 61, 0
5, 173700, Note_on_c, 3, 64, 90
5, 173759, Note_on_c, 3, 64, 0
5, 173760, Note_on_c, 3, 68, 90
5, 173819, Note_on_c, 3, 68, 0
5, 173820, Note_on_c, 3, 69, 90
5, 173939, Note_on_c, 3, 69, 0
5, 173940, Note_on_c, 3, 68, 90
5, 173999, Note_on_c, 3, 68, 0
5, 174000, Note_on_c, 3, 56, 90
5, 174059, Note_on_c, 3, 56, 0
5, 174060, Note_on_c, 3, 68, 90
5, 174119, Note_on_c, 3, 68, 0
5, 174120, Note_on_c, 3, 69, 90
5, 174179, Note_on_c, 3, 69, 0
5, 174180, Note_on_c, 3, 68, 90
5, 174299, Note_on_c, 3, 68, 0
5, 174300, Note_on_c, 3, 69, 90
5, 174359, Note_on_c, 3, 69, 0
5, 174360, Note_on_c, 3, 71, 90
5, 174389, Note_on_c, 3, 71, 0
5, 174390, Note_on_c, 3, 69, 90
5, 174419, Note_on_c, 3, 69, 0
5, 174420, Note_on_c, 3, 68, 90
5, 174449, Note_on_c, 3, 68, 0
5, 174450, Note_on_c, 3, 66, 90
5, 174479, Note_on_c, 3, 66, 0
5, 174480, Note_on_c, 3, 64, 90
5, 174509, Note_on_c, 3, 64, 0
5, 174510, Note_on_c, 3, 62, 90
5, 174539, Note_on_c, 3, 62, 0
5, 174540, Note_on_c, 3, 61, 90
5, 174599, Note_on_c, 3, 61, 0
5, 174600, Note_on_c, 3, 62, 90
5, 174659, Note_on_c, 3, 62, 0
5, 174660, Note_on_c, 3, 66, 90
5, 174689, Note_on_c, 3, 66, 0
5, 174690, Note_on_c, 3, 64, 90
5, 174719, Note_on_c, 3, 64, 0
5, 174720, Note_on_c, 3, 62, 90
5, 174779, Note_on_c, 3, 62, 0
5, 174780, Note_on_c, 3, 71, 90
5, 174839, Note_on_c, 3, 71, 0
5, 174840, Note_on_c, 3, 69, 90
5, 174899, Note_on_c, 3, 69, 0
5, 174900, Note_on_c, 3, 68, 90
5, 175019, Note_on_c, 3, 68, 0
5, 175080, Note_on_c, 3, 76, 90
5, 175110, Note_on_c, 3, 76, 0
5, 175200, Note_on_c, 3, 73, 90
5, 175230, Note_on_c, 3, 73, 0
5, 175260, Note_on_c, 3, 74, 90
5, 175290, Note_on_c, 3, 74, 0
5, 175380, Note_on_c, 3, 76, 90
5, 175410, Note_on_c, 3, 76, 0
5, 175440, Note_on_c, 3, 74, 90
5, 175470, Note_on_c, 3, 74, 0
5, 175560, Note_on_c, 3, 71, 90
5, 175590, Note_on_c, 3, 71, 0
5, 175620, Note_on_c, 3, 73, 90
5, 175650, Note_on_c, 3, 73, 0
5, 175740, Note_on_c, 3, 74, 90
5, 175770, Note_on_c, 3, 74, 0
5, 175800, Note_on_c, 3, 64, 90
5, 175830, Note_on_c, 3, 64, 0
5, 175920, Note_on_c, 3, 64, 90
5, 175950, Note_on_c, 3, 64, 0
5, 175980, Note_on_c, 3, 64, 90
5, 176010, Note_on_c, 3, 64, 0
5, 176100, Note_on_c, 3, 69, 90
5, 176129, Note_on_c, 3, 69, 0
5, 176130, Note_on_c, 3, 71, 90
5, 176159, Note_on_c, 3, 71, 0
5, 176160, Note_on_c, 3, 73, 90
5, 176190, Note_on_c, 3, 73, 0
5, 176280, Note_on_c, 3, 68, 90
5, 176310, Note_on_c, 3, 68, 0
5, 176340, Note_on_c, 3, 64, 90
5, 176459, Note_on_c, 3, 64, 0
5, 176520, Note_on_c, 3, 70, 90
5, 176579, Note_on_c, 3, 70, 0
5, 176580, Note_on_c, 3, 71, 90
5, 176639, Note_on_c, 3, 71, 0
5, 176640, Note_on_c, 3, 70, 90
5, 176699, Note_on_c, 3, 70, 0
5, 176700, Note_on_c, 3, 71, 90
5, 176759, Note_on_c, 3, 71, 0
5, 176760, Note_on_c, 3, 66, 90
5, 176819, Note_on_c, 3, 66, 0
5, 176820, Note_on_c, 3, 70, 90
5, 176879, Note_on_c, 3, 70, 0
5, 176880, Note_on_c, 3, 71, 90
5, 176939, Note_on_c, 3, 71, 0
5, 176940, Note_on_c, 3, 69, 90
5, 176999, Note_on_c, 3, 69, 0
5, 177000, Note_on_c, 3, 68, 90
5, 177059, Note_on_c, 3, 68, 0
5, 177060, Note_on_c, 3, 69, 90
5, 177119, Note_on_c, 3, 69, 0
5, 177120, Note_on_c, 3, 64, 90
5, 177179, Note_on_c, 3, 64, 0
5, 177180, Note_on_c, 3, 68, 90
5, 177239, Note_on_c, 3, 68, 0
5, 177240, Note_on_c, 3, 69, 90
5, 177269, Note_on_c, 3, 69, 0
5, 177270, Note_on_c, 3, 73, 90
5, 177299, Note_on_c, 3, 73, 0
5, 177300, Note_on_c, 3, 71, 90
5, 177329, Note_on_c, 3, 71, 0
5, 177330, Note_on_c, 3, 69, 90
5, 177359, Note_on_c, 3, 69, 0
5, 177360, Note_on_c, 3, 68, 90
5, 177389, Note_on_c, 3, 68, 0
5, 177390, Note_on_c, 3, 66, 90
5, 177419, Note_on_c, 3, 66, 0
5, 177420, Note_on_c, 3, 64, 90
5, 177449, Note_on_c, 3, 64, 0
5, 177450, Note_on_c, 3, 56, 90
5, 177479, Note_on_c, 3, 56, 0
5, 177480, Note_on_c, 3, 57, 90
5, 177509, Note_on_c, 3, 57, 0
5, 177510, Note_on_c, 3, 59, 90
5, 177539, Note_on_c, 3, 59, 0
5, 177540, Note_on_c, 3, 61, 90
5, 177569, Note_on_c, 3, 61, 0
5, 177570, Note_on_c, 3, 64, 90
5, 177599, Note_on_c, 3, 64, 0
5, 177600, Note_on_c, 3, 69, 90
5, 177659, Note_on_c, 3, 69, 0
5, 177660, Note_on_c, 3, 71, 90
5, 177719, Note_on_c, 3, 71, 0
5, 177720, Note_on_c, 3, 68, 90
5, 177779, Note_on_c, 3, 68, 0
5, 177780, Note_on_c, 3, 64, 90
5, 177899, Note_on_c, 3, 64, 0
5, 177899, End_track
6, 0, Start_track
6, 0, MIDI_port, 0
6, 0, Title_t, "viola"
6, 0, Program_c, 4, 48
6, 360, Note_on_c, 4, 61, 120
6, 480, Note_on_c, 4, 61, 0
6, 480, Note_on_c, 4, 61, 120
6, 600, Note_on_c, 4, 61, 0
6, 600, Note_on_c, 4, 62, 120
6, 720, Note_on_c, 4, 62, 0
6, 720, Note_on_c, 4, 61, 120
6, 840, Note_on_c, 4, 61, 0
6, 840, Note_on_c, 4, 61, 120
6, 960, Note_on_c, 4, 61, 0
6, 960, Note_on_c, 4, 59, 120
6, 1080, Note_on_c, 4, 59, 0
6, 1080, Note_on_c, 4, 61, 120
6, 1140, Note_on_c, 4, 61, 0
6, 1140, Note_on_c, 4, 62, 120
6, 1200, Note_on_c, 4, 62, 0
6, 1200, Note_on_c, 4, 61, 120
6, 1260, Note_on_c, 4, 61, 0
6, 1260, Note_on_c, 4, 59, 120
6, 1320, Note_on_c, 4, 59, 0
6, 1320, Note_on_c, 4, 57, 120
6, 1380, Note_on_c, 4, 57, 0
6, 1380, Note_on_c, 4, 59, 120
6, 1440, Note_on_c, 4, 59, 0
6, 1440, Note_on_c, 4, 61, 120
6, 1500, Note_on_c, 4, 61, 0
6, 1500, Note_on_c, 4, 62, 120
6, 1560, Note_on_c, 4, 62, 0
6, 1560, Note_on_c, 4, 64, 120
6, 1620, Note_on_c, 4, 64, 0
6, 1620, Note_on_c, 4, 62, 120
6, 1680, Note_on_c, 4, 62, 0
6, 1680, Note_on_c, 4, 61, 120
6, 1740, Note_on_c, 4, 61, 0
6, 1740, Note_on_c, 4, 59, 120
6, 1800, Note_on_c, 4, 59, 0
6, 1800, Note_on_c, 4, 61, 120
6, 1920, Note_on_c, 4, 61, 0
6, 1920, Note_on_c, 4, 61, 120
6, 2040, Note_on_c, 4, 61, 0
6, 2040, Note_on_c, 4, 62, 120
6, 2160, Note_on_c, 4, 62, 0
6, 2160, Note_on_c, 4, 61, 120
6, 2280, Note_on_c, 4, 61, 0
6, 2280, Note_on_c, 4, 61, 120
6, 2400, Note_on_c, 4, 61, 0
6, 2400, Note_on_c, 4, 59, 120
6, 2520, Note_on_c, 4, 59, 0
6, 2520, Note_on_c, 4, 61, 120
6, 2580, Note_on_c, 4, 61, 0
6, 2580, Note_on_c, 4, 62, 120
6, 2640, Note_on_c, 4, 62, 0
6, 2640, Note_on_c, 4, 61, 120
6, 2700, Note_on_c, 4, 61, 0
6, 2700, Note_on_c, 4, 59, 120
6, 2760, Note_on_c, 4, 59, 0
6, 2760, Note_on_c, 4, 57, 120
6, 2820, Note_on_c, 4, 57, 0
6, 2820, Note_on_c, 4, 59, 120
6, 2880, Note_on_c, 4, 59, 0
6, 2880, Note_on_c, 4, 61, 120
6, 2940, Note_on_c, 4, 61, 0
6, 2940, Note_on_c, 4, 64, 120
6, 3000, Note_on_c, 4, 64, 0
6, 3000, Note_on_c, 4, 61, 120
6, 3060, Note_on_c, 4, 61, 0
6, 3060, Note_on_c, 4, 57, 120
6, 3120, Note_on_c, 4, 57, 0
6, 3120, Note_on_c, 4, 64, 120
6, 3180, Note_on_c, 4, 64, 0
6, 3180, Note_on_c, 4, 62, 120
6, 3240, Note_on_c, 4, 62, 0
6, 3240, Note_on_c, 4, 61, 120
6, 3360, Note_on_c, 4, 61, 0
6, 3360, Note_on_c, 4, 61, 120
6, 3420, Note_on_c, 4, 61, 0
6, 3420, Note_on_c, 4, 59, 120
6, 3450, Note_on_c, 4, 59, 0
6, 3450, Note_on_c, 4, 61, 120
6, 3480, Note_on_c, 4, 61, 0
6, 3480, Note_on_c, 4, 62, 120
6, 3540, Note_on_c, 4, 62, 0
6, 3540, Note_on_c, 4, 61, 120
6, 3600, Note_on_c, 4, 61, 0
6, 3600, Note_on_c, 4, 59, 120
6, 3719, Note_on_c, 4, 59, 0
6, 3720, Note_on_c, 4, 57, 120
6, 3839, Note_on_c, 4, 57, 0
6, 3840, Note_on_c, 4, 61, 120
6, 3899, Note_on_c, 4, 61, 0
6, 3900, Note_on_c, 4, 61, 120
6, 3929, Note_on_c, 4, 61, 0
6, 3930, Note_on_c, 4, 61, 120
6, 3959, Note_on_c, 4, 61, 0
6, 3960, Note_on_c, 4, 61, 120
6, 4019, Note_on_c, 4, 61, 0
6, 4020, Note_on_c, 4, 57, 120
6, 4079, Note_on_c, 4, 57, 0
6, 4080, Note_on_c, 4, 64, 120
6, 4139, Note_on_c, 4, 64, 0
6, 4140, Note_on_c, 4, 62, 120
6, 4199, Note_on_c, 4, 62, 0
6, 4200, Note_on_c, 4, 61, 120
6, 4319, Note_on_c, 4, 61, 0
6, 4320, Note_on_c, 4, 61, 120
6, 4379, Note_on_c, 4, 61, 0
6, 4380, Note_on_c, 4, 59, 120
6, 4409, Note_on_c, 4, 59, 0
6, 4410, Note_on_c, 4, 61, 120
6, 4439, Note_on_c, 4, 61, 0
6, 4440, Note_on_c, 4, 62, 120
6, 4499, Note_on_c, 4, 62, 0
6, 4500, Note_on_c, 4, 61, 120
6, 4559, Note_on_c, 4, 61, 0
6, 4560, Note_on_c, 4, 59, 120
6, 4679, Note_on_c, 4, 59, 0
6, 4680, Note_on_c, 4, 57, 120
6, 4799, Note_on_c, 4, 57, 0
6, 4800, Note_on_c, 4, 69, 120
6, 5100, Note_on_c, 4, 69, 0
6, 5100, Note_on_c, 4, 69, 120
6, 5159, Note_on_c, 4, 69, 0
6, 5160, Note_on_c, 4, 69, 120
6, 5279, Note_on_c, 4, 69, 0
6, 5280, Note_on_c, 4, 69, 120
6, 5339, Note_on_c, 4, 69, 0
6, 5340, Note_on_c, 4, 69, 120
6, 5399, Note_on_c, 4, 69, 0
6, 5400, Note_on_c, 4, 64, 120
6, 5429, Note_on_c, 4, 64, 0
6, 5430, Note_on_c, 4, 62, 120
6, 5459, Note_on_c, 4, 62, 0
6, 5460, Note_on_c, 4, 61, 120
6, 5489, Note_on_c, 4, 61, 0
6, 5490, Note_on_c, 4, 59, 120
6, 5519, Note_on_c, 4, 59, 0
6, 5520, Note_on_c, 4, 57, 120
6, 5820, Note_on_c, 4, 57, 0
6, 5820, Note_on_c, 4, 57, 120
6, 5879, Note_on_c, 4, 57, 0
6, 5880, Note_on_c, 4, 57, 120
6, 5999, Note_on_c, 4, 57, 0
6, 6000, Note_on_c, 4, 57, 120
6, 6059, Note_on_c, 4, 57, 0
6, 6060, Note_on_c, 4, 57, 120
6, 6119, Note_on_c, 4, 57, 0
6, 6120, Note_on_c, 4, 61, 120
6, 6179, Note_on_c, 4, 61, 0
6, 6180, Note_on_c, 4, 64, 120
6, 6239, Note_on_c, 4, 64, 0
6, 6240, Note_on_c, 4, 56, 120
6, 6299, Note_on_c, 4, 56, 0
6, 6300, Note_on_c, 4, 59, 120
6, 6359, Note_on_c, 4, 59, 0
6, 6360, Note_on_c, 4, 64, 120
6, 6419, Note_on_c, 4, 64, 0
6, 6420, Note_on_c, 4, 57, 120
6, 6479, Note_on_c, 4, 57, 0
6, 6480, Note_on_c, 4, 61, 120
6, 6539, Note_on_c, 4, 61, 0
6, 6540, Note_on_c, 4, 64, 120
6, 6599, Note_on_c, 4, 64, 0
6, 6600, Note_on_c, 4, 66, 120
6, 6659, Note_on_c, 4, 66, 0
6, 6660, Note_on_c, 4, 64, 120
6, 6719, Note_on_c, 4, 64, 0
6, 6720, Note_on_c, 4, 62, 120
6, 6779, Note_on_c, 4, 62, 0
6, 6780, Note_on_c, 4, 61, 120
6, 6839, Note_on_c, 4, 61, 0
6, 6840, Note_on_c, 4, 59, 120
6, 6899, Note_on_c, 4, 59, 0
6, 6900, Note_on_c, 4, 57, 120
6, 6959, Note_on_c, 4, 57, 0
6, 6960, Note_on_c, 4, 56, 120
6, 7019, Note_on_c, 4, 56, 0
6, 7020, Note_on_c, 4, 59, 120
6, 7079, Note_on_c, 4, 59, 0
6, 7080, Note_on_c, 4, 64, 120
6, 7139, Note_on_c, 4, 64, 0
6, 7140, Note_on_c, 4, 57, 120
6, 7199, Note_on_c, 4, 57, 0
6, 7200, Note_on_c, 4, 61, 120
6, 7259, Note_on_c, 4, 61, 0
6, 7260, Note_on_c, 4, 64, 120
6, 7319, Note_on_c, 4, 64, 0
6, 7320, Note_on_c, 4, 66, 120
6, 7379, Note_on_c, 4, 66, 0
6, 7380, Note_on_c, 4, 64, 120
6, 7439, Note_on_c, 4, 64, 0
6, 7440, Note_on_c, 4, 59, 120
6, 7499, Note_on_c, 4, 59, 0
6, 7500, Note_on_c, 4, 61, 120
6, 7619, Note_on_c, 4, 61, 0
6, 7740, Note_on_c, 4, 64, 120
6, 7769, Note_on_c, 4, 64, 0
6, 7770, Note_on_c, 4, 66, 120
6, 7799, Note_on_c, 4, 66, 0
6, 7800, Note_on_c, 4, 68, 120
6, 7829, Note_on_c, 4, 68, 0
6, 7830, Note_on_c, 4, 69, 120
6, 7859, Note_on_c, 4, 69, 0
6, 7860, Note_on_c, 4, 66, 120
6, 7889, Note_on_c, 4, 66, 0
6, 7890, Note_on_c, 4, 69, 120
6, 7919, Note_on_c, 4, 69, 0
6, 7920, Note_on_c, 4, 68, 120
6, 7949, Note_on_c, 4, 68, 0
6, 7950, Note_on_c, 4, 69, 120
6, 7979, Note_on_c, 4, 69, 0
6, 7980, Note_on_c, 4, 71, 120
6, 8009, Note_on_c, 4, 71, 0
6, 8010, Note_on_c, 4, 69, 120
6, 8039, Note_on_c, 4, 69, 0
6, 8040, Note_on_c, 4, 68, 120
6, 8069, Note_on_c, 4, 68, 0
6, 8070, Note_on_c, 4, 66, 120
6, 8099, Note_on_c, 4, 66, 0
6, 8100, Note_on_c, 4, 64, 120
6, 8129, Note_on_c, 4, 64, 0
6, 8130, Note_on_c, 4, 66, 120
6, 8159, Note_on_c, 4, 66, 0
6, 8160, Note_on_c, 4, 68, 120
6, 8189, Note_on_c, 4, 68, 0
6, 8190, Note_on_c, 4, 66, 120
6, 8219, Note_on_c, 4, 66, 0
6, 8220, Note_on_c, 4, 64, 120
6, 8249, Note_on_c, 4, 64, 0
6, 8250, Note_on_c, 4, 66, 120
6, 8279, Note_on_c, 4, 66, 0
6, 8280, Note_on_c, 4, 68, 120
6, 8309, Note_on_c, 4, 68, 0
6, 8310, Note_on_c, 4, 69, 120
6, 8339, Note_on_c, 4, 69, 0
6, 8340, Note_on_c, 4, 66, 120
6, 8369, Note_on_c, 4, 66, 0
6, 8370, Note_on_c, 4, 69, 120
6, 8399, Note_on_c, 4, 69, 0
6, 8400, Note_on_c, 4, 68, 120
6, 8519, Note_on_c, 4, 68, 0
6, 8550, Note_on_c, 4, 66, 120
6, 8579, Note_on_c, 4, 66, 0
6, 8580, Note_on_c, 4, 64, 120
6, 8609, Note_on_c, 4, 64, 0
6, 8610, Note_on_c, 4, 66, 120
6, 8639, Note_on_c, 4, 66, 0
6, 8640, Note_on_c, 4, 68, 120
6, 8699, Note_on_c, 4, 68, 0
6, 8700, Note_on_c, 4, 71, 120
6, 8759, Note_on_c, 4, 71, 0
6, 8760, Note_on_c, 4, 68, 120
6, 8819, Note_on_c, 4, 68, 0
6, 8820, Note_on_c, 4, 69, 120
6, 8849, Note_on_c, 4, 69, 0
6, 8850, Note_on_c, 4, 66, 120
6, 8879, Note_on_c, 4, 66, 0
6, 8880, Note_on_c, 4, 68, 120
6, 8939, Note_on_c, 4, 68, 0
6, 8940, Note_on_c, 4, 69, 120
6, 8969, Note_on_c, 4, 69, 0
6, 8970, Note_on_c, 4, 66, 120
6, 8999, Note_on_c, 4, 66, 0
6, 9000, Note_on_c, 4, 68, 120
6, 9059, Note_on_c, 4, 68, 0
6, 9060, Note_on_c, 4, 71, 120
6, 9119, Note_on_c, 4, 71, 0
6, 9120, Note_on_c, 4, 68, 120
6, 9179, Note_on_c, 4, 68, 0
6, 9180, Note_on_c, 4, 71, 120
6, 9239, Note_on_c, 4, 71, 0
6, 9240, Note_on_c, 4, 68, 120
6, 9299, Note_on_c, 4, 68, 0
6, 9300, Note_on_c, 4, 69, 120
6, 9329, Note_on_c, 4, 69, 0
6, 9330, Note_on_c, 4, 66, 120
6, 9359, Note_on_c, 4, 66, 0
6, 9360, Note_on_c, 4, 68, 120
6, 9539, Note_on_c, 4, 68, 0
6, 9660, Note_on_c, 4, 68, 120
6, 9689, Note_on_c, 4, 68, 0
6, 9690, Note_on_c, 4, 66, 120
6, 9719, Note_on_c, 4, 66, 0
6, 9720, Note_on_c, 4, 68, 120
6, 9779, Note_on_c, 4, 68, 0
6, 9780, Note_on_c, 4, 59, 120
6, 9809, Note_on_c, 4, 59, 0
6, 9810, Note_on_c, 4, 61, 120
6, 9839, Note_on_c, 4, 61, 0
6, 9840, Note_on_c, 4, 62, 120
6, 9899, Note_on_c, 4, 62, 0
6, 9900, Note_on_c, 4, 56, 120
6, 9929, Note_on_c, 4, 56, 0
6, 9930, Note_on_c, 4, 54, 120
6, 9959, Note_on_c, 4, 54, 0
6, 9960, Note_on_c, 4, 56, 120
6, 10019, Note_on_c, 4, 56, 0
6, 10020, Note_on_c, 4, 52, 120
6, 10079, Note_on_c, 4, 52, 0
6, 10080, Note_on_c, 4, 64, 120
6, 10139, Note_on_c, 4, 64, 0
6, 10140, Note_on_c, 4, 62, 120
6, 10169, Note_on_c, 4, 62, 0
6, 10170, Note_on_c, 4, 61, 120
6, 10199, Note_on_c, 4, 61, 0
6, 10200, Note_on_c, 4, 62, 120
6, 10259, Note_on_c, 4, 62, 0
6, 10260, Note_on_c, 4, 59, 120
6, 10319, Note_on_c, 4, 59, 0
6, 10320, Note_on_c, 4, 61, 120
6, 10379, Note_on_c, 4, 61, 0
6, 10380, Note_on_c, 4, 62, 120
6, 10409, Note_on_c, 4, 62, 0
6, 10410, Note_on_c, 4, 59, 120
6, 10439, Note_on_c, 4, 59, 0
6, 10440, Note_on_c, 4, 61, 120
6, 10499, Note_on_c, 4, 61, 0
6, 10620, Note_on_c, 4, 68, 120
6, 10649, Note_on_c, 4, 68, 0
6, 10650, Note_on_c, 4, 66, 120
6, 10679, Note_on_c, 4, 66, 0
6, 10680, Note_on_c, 4, 68, 120
6, 10739, Note_on_c, 4, 68, 0
6, 10740, Note_on_c, 4, 71, 120
6, 10769, Note_on_c, 4, 71, 0
6, 10770, Note_on_c, 4, 69, 120
6, 10799, Note_on_c, 4, 69, 0
6, 10800, Note_on_c, 4, 71, 120
6, 10859, Note_on_c, 4, 71, 0
6, 10860, Note_on_c, 4, 74, 120
6, 10889, Note_on_c, 4, 74, 0
6, 10890, Note_on_c, 4, 73, 120
6, 10919, Note_on_c, 4, 73, 0
6, 10920, Note_on_c, 4, 74, 120
6, 10979, Note_on_c, 4, 74, 0
6, 10980, Note_on_c, 4, 68, 120
6, 11039, Note_on_c, 4, 68, 0
6, 11040, Note_on_c, 4, 64, 120
6, 11099, Note_on_c, 4, 64, 0
6, 11100, Note_on_c, 4, 62, 120
6, 11129, Note_on_c, 4, 62, 0
6, 11130, Note_on_c, 4, 61, 120
6, 11159, Note_on_c, 4, 61, 0
6, 11160, Note_on_c, 4, 62, 120
6, 11219, Note_on_c, 4, 62, 0
6, 11220, Note_on_c, 4, 59, 120
6, 11279, Note_on_c, 4, 59, 0
6, 11280, Note_on_c, 4, 60, 120
6, 11339, Note_on_c, 4, 60, 0
6, 11340, Note_on_c, 4, 69, 120
6, 11369, Note_on_c, 4, 69, 0
6, 11370, Note_on_c, 4, 71, 120
6, 11399, Note_on_c, 4, 71, 0
6, 11400, Note_on_c, 4, 72, 120
6, 11459, Note_on_c, 4, 72, 0
6, 11460, Note_on_c, 4, 71, 120
6, 11519, Note_on_c, 4, 71, 0
6, 11520, Note_on_c, 4, 69, 120
6, 11579, Note_on_c, 4, 69, 0
6, 11580, Note_on_c, 4, 67, 120
6, 11639, Note_on_c, 4, 67, 0
6, 11640, Note_on_c, 4, 65, 120
6, 11699, Note_on_c, 4, 65, 0
6, 11700, Note_on_c, 4, 64, 120
6, 11759, Note_on_c, 4, 64, 0
6, 11760, Note_on_c, 4, 64, 120
6, 11999, Note_on_c, 4, 64, 0
6, 12000, Note_on_c, 4, 62, 120
6, 12059, Note_on_c, 4, 62, 0
6, 12060, Note_on_c, 4, 64, 120
6, 12119, Note_on_c, 4, 64, 0
6, 12120, Note_on_c, 4, 65, 120
6, 12179, Note_on_c, 4, 65, 0
6, 12180, Note_on_c, 4, 64, 120
6, 12239, Note_on_c, 4, 64, 0
6, 12240, Note_on_c, 4, 62, 120
6, 12299, Note_on_c, 4, 62, 0
6, 12300, Note_on_c, 4, 60, 120
6, 12359, Note_on_c, 4, 60, 0
6, 12360, Note_on_c, 4, 59, 120
6, 12419, Note_on_c, 4, 59, 0
6, 12420, Note_on_c, 4, 57, 120
6, 12479, Note_on_c, 4, 57, 0
6, 12480, Note_on_c, 4, 57, 120
6, 12719, Note_on_c, 4, 57, 0
6, 12720, Note_on_c, 4, 57, 120
6, 12779, Note_on_c, 4, 57, 0
6, 12780, Note_on_c, 4, 59, 120
6, 12839, Note_on_c, 4, 59, 0
6, 12840, Note_on_c, 4, 60, 120
6, 12899, Note_on_c, 4, 60, 0
6, 12900, Note_on_c, 4, 59, 120
6, 12959, Note_on_c, 4, 59, 0
6, 12960, Note_on_c, 4, 57, 120
6, 13019, Note_on_c, 4, 57, 0
6, 13020, Note_on_c, 4, 55, 120
6, 13079, Note_on_c, 4, 55, 0
6, 13080, Note_on_c, 4, 53, 120
6, 13139, Note_on_c, 4, 53, 0
6, 13140, Note_on_c, 4, 52, 120
6, 13199, Note_on_c, 4, 52, 0
6, 13200, Note_on_c, 4, 52, 120
6, 13439, Note_on_c, 4, 52, 0
6, 13440, Note_on_c, 4, 62, 120
6, 13499, Note_on_c, 4, 62, 0
6, 13500, Note_on_c, 4, 64, 120
6, 13559, Note_on_c, 4, 64, 0
6, 13560, Note_on_c, 4, 65, 120
6, 13619, Note_on_c, 4, 65, 0
6, 13620, Note_on_c, 4, 64, 120
6, 13679, Note_on_c, 4, 64, 0
6, 13680, Note_on_c, 4, 62, 120
6, 13739, Note_on_c, 4, 62, 0
6, 13740, Note_on_c, 4, 60, 120
6, 13799, Note_on_c, 4, 60, 0
6, 13800, Note_on_c, 4, 59, 120
6, 13859, Note_on_c, 4, 59, 0
6, 13860, Note_on_c, 4, 57, 120
6, 13919, Note_on_c, 4, 57, 0
6, 13920, Note_on_c, 4, 57, 120
6, 14159, Note_on_c, 4, 57, 0
6, 14160, Note_on_c, 4, 65, 120
6, 14219, Note_on_c, 4, 65, 0
6, 14220, Note_on_c, 4, 64, 120
6, 14279, Note_on_c, 4, 64, 0
6, 14280, Note_on_c, 4, 64, 120
6, 14519, Note_on_c, 4, 64, 0
6, 14520, Note_on_c, 4, 58, 120
6, 14579, Note_on_c, 4, 58, 0
6, 14580, Note_on_c, 4, 57, 120
6, 14639, Note_on_c, 4, 57, 0
6, 14640, Note_on_c, 4, 57, 120
6, 14879, Note_on_c, 4, 57, 0
6, 14880, Note_on_c, 4, 62, 120
6, 14939, Note_on_c, 4, 62, 0
6, 14940, Note_on_c, 4, 64, 120
6, 14999, Note_on_c, 4, 64, 0
6, 15000, Note_on_c, 4, 65, 120
6, 15059, Note_on_c, 4, 65, 0
6, 15060, Note_on_c, 4, 64, 120
6, 15119, Note_on_c, 4, 64, 0
6, 15120, Note_on_c, 4, 62, 120
6, 15179, Note_on_c, 4, 62, 0
6, 15180, Note_on_c, 4, 60, 120
6, 15239, Note_on_c, 4, 60, 0
6, 15240, Note_on_c, 4, 59, 120
6, 15299, Note_on_c, 4, 59, 0
6, 15300, Note_on_c, 4, 57, 120
6, 15359, Note_on_c, 4, 57, 0
6, 15360, Note_on_c, 4, 57, 120
6, 15599, Note_on_c, 4, 57, 0
6, 15600, Note_on_c, 4, 53, 120
6, 15659, Note_on_c, 4, 53, 0
6, 15660, Note_on_c, 4, 52, 120
6, 15719, Note_on_c, 4, 52, 0
6, 15720, Note_on_c, 4, 52, 120
6, 15959, Note_on_c, 4, 52, 0
6, 15960, Note_on_c, 4, 58, 120
6, 16019, Note_on_c, 4, 58, 0
6, 16020, Note_on_c, 4, 57, 120
6, 16079, Note_on_c, 4, 57, 0
6, 16080, Note_on_c, 4, 57, 120
6, 16319, Note_on_c, 4, 57, 0
6, 16320, Note_on_c, 4, 62, 120
6, 16379, Note_on_c, 4, 62, 0
6, 16380, Note_on_c, 4, 64, 120
6, 16439, Note_on_c, 4, 64, 0
6, 16440, Note_on_c, 4, 65, 120
6, 16499, Note_on_c, 4, 65, 0
6, 16500, Note_on_c, 4, 64, 120
6, 16559, Note_on_c, 4, 64, 0
6, 16560, Note_on_c, 4, 62, 120
6, 16619, Note_on_c, 4, 62, 0
6, 16620, Note_on_c, 4, 60, 120
6, 16679, Note_on_c, 4, 60, 0
6, 16680, Note_on_c, 4, 59, 120
6, 16739, Note_on_c, 4, 59, 0
6, 16740, Note_on_c, 4, 57, 120
6, 16799, Note_on_c, 4, 57, 0
6, 16800, Note_on_c, 4, 57, 120
6, 17039, Note_on_c, 4, 57, 0
6, 17340, Note_on_c, 4, 64, 120
6, 17369, Note_on_c, 4, 64, 0
6, 17370, Note_on_c, 4, 65, 120
6, 17399, Note_on_c, 4, 65, 0
6, 17400, Note_on_c, 4, 64, 120
6, 17459, Note_on_c, 4, 64, 0
6, 17460, Note_on_c, 4, 64, 120
6, 17489, Note_on_c, 4, 64, 0
6, 17490, Note_on_c, 4, 67, 120
6, 17519, Note_on_c, 4, 67, 0
6, 17520, Note_on_c, 4, 65, 120
6, 17579, Note_on_c, 4, 65, 0
6, 17820, Note_on_c, 4, 60, 120
6, 17849, Note_on_c, 4, 60, 0
6, 17850, Note_on_c, 4, 62, 120
6, 17879, Note_on_c, 4, 62, 0
6, 17880, Note_on_c, 4, 60, 120
6, 17939, Note_on_c, 4, 60, 0
6, 17940, Note_on_c, 4, 60, 120
6, 17969, Note_on_c, 4, 60, 0
6, 17970, Note_on_c, 4, 64, 120
6, 17999, Note_on_c, 4, 64, 0
6, 18000, Note_on_c, 4, 57, 120
6, 18059, Note_on_c, 4, 57, 0
6, 18300, Note_on_c, 4, 64, 120
6, 18329, Note_on_c, 4, 64, 0
6, 18330, Note_on_c, 4, 65, 120
6, 18359, Note_on_c, 4, 65, 0
6, 18360, Note_on_c, 4, 64, 120
6, 18419, Note_on_c, 4, 64, 0
6, 18420, Note_on_c, 4, 64, 120
6, 18449, Note_on_c, 4, 64, 0
6, 18450, Note_on_c, 4, 67, 120
6, 18479, Note_on_c, 4, 67, 0
6, 18480, Note_on_c, 4, 65, 120
6, 18539, Note_on_c, 4, 65, 0
6, 18540, Note_on_c, 4, 59, 120
6, 18659, Note_on_c, 4, 59, 0
6, 18660, Note_on_c, 4, 61, 120
6, 18689, Note_on_c, 4, 61, 0
6, 18690, Note_on_c, 4, 62, 120
6, 18719, Note_on_c, 4, 62, 0
6, 18720, Note_on_c, 4, 61, 120
6, 18839, Note_on_c, 4, 61, 0
6, 18840, Note_on_c, 4, 61, 120
6, 18959, Note_on_c, 4, 61, 0
6, 18960, Note_on_c, 4, 62, 120
6, 19079, Note_on_c, 4, 62, 0
6, 19080, Note_on_c, 4, 61, 120
6, 19199, Note_on_c, 4, 61, 0
6, 19200, Note_on_c, 4, 61, 120
6, 19319, Note_on_c, 4, 61, 0
6, 19320, Note_on_c, 4, 59, 120
6, 19439, Note_on_c, 4, 59, 0
6, 19440, Note_on_c, 4, 61, 120
6, 19499, Note_on_c, 4, 61, 0
6, 19500, Note_on_c, 4, 62, 120
6, 19559, Note_on_c, 4, 62, 0
6, 19560, Note_on_c, 4, 61, 120
6, 19619, Note_on_c, 4, 61, 0
6, 19620, Note_on_c, 4, 59, 120
6, 19679, Note_on_c, 4, 59, 0
6, 19680, Note_on_c, 4, 57, 120
6, 19739, Note_on_c, 4, 57, 0
6, 19740, Note_on_c, 4, 59, 120
6, 19799, Note_on_c, 4, 59, 0
6, 19800, Note_on_c, 4, 61, 120
6, 19859, Note_on_c, 4, 61, 0
6, 19860, Note_on_c, 4, 62, 120
6, 19919, Note_on_c, 4, 62, 0
6, 19920, Note_on_c, 4, 64, 120
6, 19979, Note_on_c, 4, 64, 0
6, 19980, Note_on_c, 4, 62, 120
6, 20039, Note_on_c, 4, 62, 0
6, 20040, Note_on_c, 4, 61, 120
6, 20099, Note_on_c, 4, 61, 0
6, 20100, Note_on_c, 4, 59, 120
6, 20159, Note_on_c, 4, 59, 0
6, 20160, Note_on_c, 4, 61, 120
6, 20279, Note_on_c, 4, 61, 0
6, 20280, Note_on_c, 4, 61, 120
6, 20399, Note_on_c, 4, 61, 0
6, 20400, Note_on_c, 4, 62, 120
6, 20519, Note_on_c, 4, 62, 0
6, 20520, Note_on_c, 4, 61, 120
6, 20639, Note_on_c, 4, 61, 0
6, 20640, Note_on_c, 4, 61, 120
6, 20759, Note_on_c, 4, 61, 0
6, 20760, Note_on_c, 4, 59, 120
6, 20879, Note_on_c, 4, 59, 0
6, 20880, Note_on_c, 4, 61, 120
6, 20939, Note_on_c, 4, 61, 0
6, 20940, Note_on_c, 4, 62, 120
6, 20999, Note_on_c, 4, 62, 0
6, 21000, Note_on_c, 4, 61, 120
6, 21059, Note_on_c, 4, 61, 0
6, 21060, Note_on_c, 4, 59, 120
6, 21119, Note_on_c, 4, 59, 0
6, 21120, Note_on_c, 4, 57, 120
6, 21179, Note_on_c, 4, 57, 0
6, 21180, Note_on_c, 4, 59, 120
6, 21239, Note_on_c, 4, 59, 0
6, 21240, Note_on_c, 4, 61, 120
6, 21359, Note_on_c, 4, 61, 0
6, 21720, Note_on_c, 4, 62, 120
6, 21779, Note_on_c, 4, 62, 0
6, 21780, Note_on_c, 4, 61, 120
6, 21839, Note_on_c, 4, 61, 0
6, 21840, Note_on_c, 4, 62, 120
6, 21899, Note_on_c, 4, 62, 0
6, 21900, Note_on_c, 4, 61, 120
6, 21959, Note_on_c, 4, 61, 0
6, 21960, Note_on_c, 4, 62, 120
6, 22199, Note_on_c, 4, 62, 0
6, 22440, Note_on_c, 4, 61, 120
6, 22499, Note_on_c, 4, 61, 0
6, 22500, Note_on_c, 4, 59, 120
6, 22559, Note_on_c, 4, 59, 0
6, 22560, Note_on_c, 4, 61, 120
6, 22619, Note_on_c, 4, 61, 0
6, 22620, Note_on_c, 4, 59, 120
6, 22679, Note_on_c, 4, 59, 0
6, 22680, Note_on_c, 4, 61, 120
6, 22919, Note_on_c, 4, 61, 0
6, 22920, Note_on_c, 4, 61, 120
6, 22979, Note_on_c, 4, 61, 0
6, 22980, Note_on_c, 4, 64, 120
6, 23039, Note_on_c, 4, 64, 0
6, 23040, Note_on_c, 4, 62, 120
6, 23159, Note_on_c, 4, 62, 0
6, 23160, Note_on_c, 4, 61, 120
6, 23279, Note_on_c, 4, 61, 0
6, 23280, Note_on_c, 4, 69, 120
6, 23399, Note_on_c, 4, 69, 0
6, 23400, Note_on_c, 4, 68, 120
6, 23519, Note_on_c, 4, 68, 0
6, 23520, Note_on_c, 4, 69, 120
6, 23639, Note_on_c, 4, 69, 0
6, 23640, Note_on_c, 4, 69, 120
6, 23699, Note_on_c, 4, 69, 0
6, 23700, Note_on_c, 4, 68, 120
6, 23759, Note_on_c, 4, 68, 0
6, 23760, Note_on_c, 4, 66, 120
6, 23819, Note_on_c, 4, 66, 0
6, 23820, Note_on_c, 4, 64, 120
6, 23879, Note_on_c, 4, 64, 0
6, 23880, Note_on_c, 4, 62, 120
6, 23939, Note_on_c, 4, 62, 0
6, 23940, Note_on_c, 4, 61, 120
6, 23999, Note_on_c, 4, 61, 0
6, 24000, Note_on_c, 4, 59, 120
6, 24059, Note_on_c, 4, 59, 0
6, 24060, Note_on_c, 4, 64, 120
6, 24119, Note_on_c, 4, 64, 0
6, 24120, Note_on_c, 4, 57, 120
6, 24239, Note_on_c, 4, 57, 0
6, 24600, Note_on_c, 4, 62, 120
6, 24659, Note_on_c, 4, 62, 0
6, 24660, Note_on_c, 4, 61, 120
6, 24719, Note_on_c, 4, 61, 0
6, 24720, Note_on_c, 4, 62, 120
6, 24779, Note_on_c, 4, 62, 0
6, 24780, Note_on_c, 4, 61, 120
6, 24839, Note_on_c, 4, 61, 0
6, 24840, Note_on_c, 4, 62, 120
6, 25079, Note_on_c, 4, 62, 0
6, 25320, Note_on_c, 4, 61, 120
6, 25379, Note_on_c, 4, 61, 0
6, 25380, Note_on_c, 4, 59, 120
6, 25439, Note_on_c, 4, 59, 0
6, 25440, Note_on_c, 4, 61, 120
6, 25499, Note_on_c, 4, 61, 0
6, 25500, Note_on_c, 4, 59, 120
6, 25559, Note_on_c, 4, 59, 0
6, 25560, Note_on_c, 4, 61, 120
6, 25799, Note_on_c, 4, 61, 0
6, 25800, Note_on_c, 4, 57, 120
6, 25859, Note_on_c, 4, 57, 0
6, 25860, Note_on_c, 4, 61, 120
6, 25919, Note_on_c, 4, 61, 0
6, 25920, Note_on_c, 4, 59, 120
6, 26039, Note_on_c, 4, 59, 0
6, 26040, Note_on_c, 4, 57, 120
6, 26159, Note_on_c, 4, 57, 0
6, 26160, Note_on_c, 4, 64, 120
6, 26279, Note_on_c, 4, 64, 0
6, 26280, Note_on_c, 4, 68, 120
6, 26399, Note_on_c, 4, 68, 0
6, 26400, Note_on_c, 4, 69, 120
6, 26519, Note_on_c, 4, 69, 0
6, 26520, Note_on_c, 4, 69, 120
6, 26579, Note_on_c, 4, 69, 0
6, 26580, Note_on_c, 4, 68, 120
6, 26639, Note_on_c, 4, 68, 0
6, 26640, Note_on_c, 4, 66, 120
6, 26699, Note_on_c, 4, 66, 0
6, 26700, Note_on_c, 4, 64, 120
6, 26759, Note_on_c, 4, 64, 0
6, 26760, Note_on_c, 4, 62, 120
6, 26819, Note_on_c, 4, 62, 0
6, 26820, Note_on_c, 4, 61, 120
6, 26879, Note_on_c, 4, 61, 0
6, 26880, Note_on_c, 4, 59, 120
6, 26939, Note_on_c, 4, 59, 0
6, 26940, Note_on_c, 4, 64, 120
6, 26999, Note_on_c, 4, 64, 0
6, 27000, Note_on_c, 4, 57, 120
6, 27059, Note_on_c, 4, 57, 0
6, 27060, Note_on_c, 4, 64, 120
6, 27119, Note_on_c, 4, 64, 0
6, 27120, Note_on_c, 4, 69, 120
6, 27179, Note_on_c, 4, 69, 0
6, 27180, Note_on_c, 4, 68, 120
6, 27239, Note_on_c, 4, 68, 0
6, 27240, Note_on_c, 4, 69, 120
6, 27479, Note_on_c, 4, 69, 0
6, 27480, Note_on_c, 4, 57, 120
6, 27599, Note_on_c, 4, 57, 0
6, 27600, Note_on_c, 4, 56, 120
6, 27719, Note_on_c, 4, 56, 0
6, 27720, Note_on_c, 4, 57, 120
6, 27959, Note_on_c, 4, 57, 0
6, 28440, Note_on_c, 4, 61, 120
6, 28499, Note_on_c, 4, 61, 0
6, 28500, Note_on_c, 4, 62, 120
6, 28559, Note_on_c, 4, 62, 0
6, 28560, Note_on_c, 4, 64, 120
6, 28679, Note_on_c, 4, 64, 0
6, 28920, Note_on_c, 4, 66, 120
6, 29039, Note_on_c, 4, 66, 0
6, 29040, Note_on_c, 4, 68, 120
6, 29159, Note_on_c, 4, 68, 0
6, 29400, Note_on_c, 4, 64, 120
6, 29519, Note_on_c, 4, 64, 0
6, 29520, Note_on_c, 4, 69, 120
6, 29639, Note_on_c, 4, 69, 0
6, 29640, Note_on_c, 4, 69, 120
6, 29759, Note_on_c, 4, 69, 0
6, 29760, Note_on_c, 4, 69, 120
6, 29879, Note_on_c, 4, 69, 0
6, 29880, Note_on_c, 4, 68, 120
6, 29999, Note_on_c, 4, 68, 0
6, 30000, Note_on_c, 4, 61, 120
6, 30359, Note_on_c, 4, 61, 0
6, 30360, Note_on_c, 4, 61, 120
6, 30419, Note_on_c, 4, 61, 0
6, 30420, Note_on_c, 4, 59, 120
6, 30479, Note_on_c, 4, 59, 0
6, 30480, Note_on_c, 4, 57, 120
6, 30599, Note_on_c, 4, 57, 0
6, 30600, Note_on_c, 4, 61, 120
6, 30719, Note_on_c, 4, 61, 0
6, 30720, Note_on_c, 4, 64, 120
6, 30839, Note_on_c, 4, 64, 0
6, 30840, Note_on_c, 4, 69, 120
6, 30959, Note_on_c, 4, 69, 0
6, 30960, Note_on_c, 4, 68, 120
6, 31079, Note_on_c, 4, 68, 0
6, 31080, Note_on_c, 4, 64, 120
6, 31139, Note_on_c, 4, 64, 0
6, 31140, Note_on_c, 4, 59, 120
6, 31199, Note_on_c, 4, 59, 0
6, 31200, Note_on_c, 4, 56, 120
6, 31319, Note_on_c, 4, 56, 0
6, 31320, Note_on_c, 4, 64, 120
6, 31439, Note_on_c, 4, 64, 0
6, 31440, Note_on_c, 4, 64, 120
6, 31559, Note_on_c, 4, 64, 0
6, 31560, Note_on_c, 4, 64, 120
6, 31619, Note_on_c, 4, 64, 0
6, 31620, Note_on_c, 4, 66, 120
6, 31679, Note_on_c, 4, 66, 0
6, 31680, Note_on_c, 4, 64, 120
6, 31799, Note_on_c, 4, 64, 0
6, 31800, Note_on_c, 4, 62, 120
6, 31919, Note_on_c, 4, 62, 0
6, 31920, Note_on_c, 4, 61, 120
6, 32279, Note_on_c, 4, 61, 0
6, 32280, Note_on_c, 4, 61, 120
6, 32339, Note_on_c, 4, 61, 0
6, 32340, Note_on_c, 4, 62, 120
6, 32399, Note_on_c, 4, 62, 0
6, 32400, Note_on_c, 4, 64, 120
6, 32519, Note_on_c, 4, 64, 0
6, 32520, Note_on_c, 4, 57, 120
6, 32579, Note_on_c, 4, 57, 0
6, 32580, Note_on_c, 4, 57, 120
6, 32639, Note_on_c, 4, 57, 0
6, 32640, Note_on_c, 4, 57, 120
6, 32699, Note_on_c, 4, 57, 0
6, 32700, Note_on_c, 4, 57, 120
6, 32759, Note_on_c, 4, 57, 0
6, 32760, Note_on_c, 4, 57, 120
6, 32819, Note_on_c, 4, 57, 0
6, 32820, Note_on_c, 4, 57, 120
6, 32879, Note_on_c, 4, 57, 0
6, 32880, Note_on_c, 4, 66, 120
6, 32999, Note_on_c, 4, 66, 0
6, 33000, Note_on_c, 4, 57, 120
6, 33059, Note_on_c, 4, 57, 0
6, 33060, Note_on_c, 4, 57, 120
6, 33119, Note_on_c, 4, 57, 0
6, 33120, Note_on_c, 4, 57, 120
6, 33179, Note_on_c, 4, 57, 0
6, 33180, Note_on_c, 4, 57, 120
6, 33239, Note_on_c, 4, 57, 0
6, 33240, Note_on_c, 4, 57, 120
6, 33299, Note_on_c, 4, 57, 0
6, 33300, Note_on_c, 4, 57, 120
6, 33359, Note_on_c, 4, 57, 0
6, 33360, Note_on_c, 4, 64, 120
6, 33479, Note_on_c, 4, 64, 0
6, 33480, Note_on_c, 4, 61, 120
6, 33599, Note_on_c, 4, 61, 0
6, 33600, Note_on_c, 4, 59, 120
6, 33719, Note_on_c, 4, 59, 0
6, 33720, Note_on_c, 4, 64, 120
6, 33839, Note_on_c, 4, 64, 0
6, 33840, Note_on_c, 4, 68, 120
6, 33959, Note_on_c, 4, 68, 0
6, 33960, Note_on_c, 4, 64, 120
6, 34019, Note_on_c, 4, 64, 0
6, 34020, Note_on_c, 4, 59, 120
6, 34079, Note_on_c, 4, 59, 0
6, 34080, Note_on_c, 4, 56, 120
6, 34199, Note_on_c, 4, 56, 0
6, 34200, Note_on_c, 4, 64, 120
6, 34319, Note_on_c, 4, 64, 0
6, 34320, Note_on_c, 4, 64, 120
6, 34920, Note_on_c, 4, 64, 0
6, 34920, Note_on_c, 4, 64, 120
6, 35039, Note_on_c, 4, 64, 0
6, 35040, Note_on_c, 4, 64, 120
6, 35159, Note_on_c, 4, 64, 0
6, 35160, Note_on_c, 4, 64, 120
6, 35279, Note_on_c, 4, 64, 0
6, 35280, Note_on_c, 4, 69, 120
6, 35399, Note_on_c, 4, 69, 0
6, 35400, Note_on_c, 4, 69, 120
6, 35519, Note_on_c, 4, 69, 0
6, 35520, Note_on_c, 4, 69, 120
6, 35639, Note_on_c, 4, 69, 0
6, 35640, Note_on_c, 4, 68, 120
6, 35759, Note_on_c, 4, 68, 0
6, 35760, Note_on_c, 4, 61, 120
6, 36119, Note_on_c, 4, 61, 0
6, 36120, Note_on_c, 4, 61, 120
6, 36179, Note_on_c, 4, 61, 0
6, 36180, Note_on_c, 4, 62, 120
6, 36239, Note_on_c, 4, 62, 0
6, 36240, Note_on_c, 4, 64, 120
6, 36359, Note_on_c, 4, 64, 0
6, 36360, Note_on_c, 4, 69, 120
6, 36419, Note_on_c, 4, 69, 0
6, 36420, Note_on_c, 4, 68, 120
6, 36479, Note_on_c, 4, 68, 0
6, 36480, Note_on_c, 4, 69, 120
6, 36599, Note_on_c, 4, 69, 0
6, 36600, Note_on_c, 4, 69, 120
6, 36719, Note_on_c, 4, 69, 0
6, 36720, Note_on_c, 4, 62, 120
6, 36839, Note_on_c, 4, 62, 0
6, 36840, Note_on_c, 4, 61, 120
6, 36899, Note_on_c, 4, 61, 0
6, 36900, Note_on_c, 4, 59, 120
6, 36959, Note_on_c, 4, 59, 0
6, 36960, Note_on_c, 4, 61, 120
6, 37019, Note_on_c, 4, 61, 0
6, 37020, Note_on_c, 4, 59, 120
6, 37079, Note_on_c, 4, 59, 0
6, 37080, Note_on_c, 4, 57, 120
6, 37199, Note_on_c, 4, 57, 0
6, 37200, Note_on_c, 4, 69, 120
6, 37319, Note_on_c, 4, 69, 0
6, 37320, Note_on_c, 4, 69, 120
6, 37439, Note_on_c, 4, 69, 0
6, 37440, Note_on_c, 4, 69, 120
6, 37559, Note_on_c, 4, 69, 0
6, 37560, Note_on_c, 4, 69, 120
6, 37679, Note_on_c, 4, 69, 0
6, 37680, Note_on_c, 4, 68, 120
6, 38039, Note_on_c, 4, 68, 0
6, 38040, Note_on_c, 4, 64, 120
6, 38159, Note_on_c, 4, 64, 0
6, 38160, Note_on_c, 4, 69, 120
6, 38279, Note_on_c, 4, 69, 0
6, 38280, Note_on_c, 4, 68, 120
6, 38339, Note_on_c, 4, 68, 0
6, 38340, Note_on_c, 4, 69, 120
6, 38399, Note_on_c, 4, 69, 0
6, 38400, Note_on_c, 4, 71, 120
6, 38459, Note_on_c, 4, 71, 0
6, 38460, Note_on_c, 4, 69, 120
6, 38519, Note_on_c, 4, 69, 0
6, 38520, Note_on_c, 4, 68, 120
6, 38579, Note_on_c, 4, 68, 0
6, 38580, Note_on_c, 4, 66, 120
6, 38639, Note_on_c, 4, 66, 0
6, 38640, Note_on_c, 4, 68, 120
6, 38699, Note_on_c, 4, 68, 0
6, 38700, Note_on_c, 4, 66, 120
6, 38759, Note_on_c, 4, 66, 0
6, 38760, Note_on_c, 4, 68, 120
6, 38819, Note_on_c, 4, 68, 0
6, 38820, Note_on_c, 4, 69, 120
6, 38879, Note_on_c, 4, 69, 0
6, 38880, Note_on_c, 4, 68, 120
6, 38999, Note_on_c, 4, 68, 0
6, 39000, Note_on_c, 4, 71, 120
6, 39119, Note_on_c, 4, 71, 0
6, 39120, Note_on_c, 4, 64, 120
6, 39239, Note_on_c, 4, 64, 0
6, 39240, Note_on_c, 4, 62, 120
6, 39300, Note_on_c, 4, 62, 0
6, 39300, Note_on_c, 4, 61, 120
6, 39360, Note_on_c, 4, 61, 0
6, 39360, Note_on_c, 4, 62, 120
6, 39479, Note_on_c, 4, 62, 0
6, 39480, Note_on_c, 4, 59, 120
6, 39599, Note_on_c, 4, 59, 0
6, 39600, Note_on_c, 4, 61, 120
6, 39959, Note_on_c, 4, 61, 0
6, 42660, Note_on_c, 4, 62, 120
6, 42719, Note_on_c, 4, 62, 0
6, 42720, Note_on_c, 4, 59, 120
6, 42779, Note_on_c, 4, 59, 0
6, 42780, Note_on_c, 4, 55, 120
6, 42839, Note_on_c, 4, 55, 0
6, 42840, Note_on_c, 4, 57, 120
6, 42899, Note_on_c, 4, 57, 0
6, 42900, Note_on_c, 4, 50, 120
6, 42959, Note_on_c, 4, 50, 0
6, 42960, Note_on_c, 4, 55, 120
6, 42989, Note_on_c, 4, 55, 0
6, 42990, Note_on_c, 4, 54, 120
6, 43019, Note_on_c, 4, 54, 0
6, 43020, Note_on_c, 4, 55, 120
6, 43049, Note_on_c, 4, 55, 0
6, 43050, Note_on_c, 4, 57, 120
6, 43079, Note_on_c, 4, 57, 0
6, 43080, Note_on_c, 4, 55, 120
6, 43139, Note_on_c, 4, 55, 0
6, 43140, Note_on_c, 4, 62, 120
6, 43199, Note_on_c, 4, 62, 0
6, 43200, Note_on_c, 4, 59, 120
6, 43259, Note_on_c, 4, 59, 0
6, 43260, Note_on_c, 4, 55, 120
6, 43319, Note_on_c, 4, 55, 0
6, 43320, Note_on_c, 4, 57, 120
6, 43379, Note_on_c, 4, 57, 0
6, 43380, Note_on_c, 4, 50, 120
6, 43439, Note_on_c, 4, 50, 0
6, 43440, Note_on_c, 4, 55, 120
6, 43559, Note_on_c, 4, 55, 0
6, 46740, Note_on_c, 4, 52, 120
6, 46799, Note_on_c, 4, 52, 0
6, 46800, Note_on_c, 4, 57, 120
6, 46859, Note_on_c, 4, 57, 0
6, 46860, Note_on_c, 4, 59, 120
6, 46919, Note_on_c, 4, 59, 0
6, 46920, Note_on_c, 4, 61, 120
6, 46979, Note_on_c, 4, 61, 0
6, 46980, Note_on_c, 4, 62, 120
6, 47039, Note_on_c, 4, 62, 0
6, 47040, Note_on_c, 4, 64, 120
6, 47129, Note_on_c, 4, 64, 0
6, 47130, Note_on_c, 4, 66, 120
6, 47159, Note_on_c, 4, 66, 0
6, 47160, Note_on_c, 4, 64, 120
6, 47219, Note_on_c, 4, 64, 0
6, 47220, Note_on_c, 4, 62, 120
6, 47279, Note_on_c, 4, 62, 0
6, 47280, Note_on_c, 4, 61, 120
6, 47339, Note_on_c, 4, 61, 0
6, 47340, Note_on_c, 4, 57, 120
6, 47399, Note_on_c, 4, 57, 0
6, 47400, Note_on_c, 4, 59, 120
6, 47459, Note_on_c, 4, 59, 0
6, 47460, Note_on_c, 4, 56, 120
6, 47519, Note_on_c, 4, 56, 0
6, 47520, Note_on_c, 4, 57, 120
6, 47699, Note_on_c, 4, 57, 0
6, 49560, Note_on_c, 4, 64, 120
6, 49619, Note_on_c, 4, 64, 0
6, 49620, Note_on_c, 4, 62, 120
6, 49679, Note_on_c, 4, 62, 0
6, 49680, Note_on_c, 4, 61, 120
6, 49799, Note_on_c, 4, 61, 0
6, 49800, Note_on_c, 4, 59, 120
6, 49919, Note_on_c, 4, 59, 0
6, 49920, Note_on_c, 4, 61, 120
6, 49979, Note_on_c, 4, 61, 0
6, 49980, Note_on_c, 4, 64, 120
6, 50039, Note_on_c, 4, 64, 0
6, 50040, Note_on_c, 4, 62, 120
6, 50279, Note_on_c, 4, 62, 0
6, 50280, Note_on_c, 4, 61, 120
6, 50339, Note_on_c, 4, 61, 0
6, 50340, Note_on_c, 4, 64, 120
6, 50399, Note_on_c, 4, 64, 0
6, 50400, Note_on_c, 4, 62, 120
6, 50639, Note_on_c, 4, 62, 0
6, 50640, Note_on_c, 4, 64, 120
6, 50759, Note_on_c, 4, 64, 0
6, 50760, Note_on_c, 4, 57, 120
6, 50879, Note_on_c, 4, 57, 0
6, 50880, Note_on_c, 4, 66, 120
6, 50999, Note_on_c, 4, 66, 0
6, 51000, Note_on_c, 4, 59, 120
6, 51029, Note_on_c, 4, 59, 0
6, 51030, Note_on_c, 4, 61, 120
6, 51059, Note_on_c, 4, 61, 0
6, 51060, Note_on_c, 4, 62, 120
6, 51089, Note_on_c, 4, 62, 0
6, 51090, Note_on_c, 4, 59, 120
6, 51119, Note_on_c, 4, 59, 0
6, 51120, Note_on_c, 4, 61, 120
6, 51359, Note_on_c, 4, 61, 0
6, 54240, Note_on_c, 4, 61, 120
6, 54269, Note_on_c, 4, 61, 0
6, 54270, Note_on_c, 4, 59, 120
6, 54299, Note_on_c, 4, 59, 0
6, 54300, Note_on_c, 4, 57, 120
6, 54329, Note_on_c, 4, 57, 0
6, 54330, Note_on_c, 4, 59, 120
6, 54359, Note_on_c, 4, 59, 0
6, 54360, Note_on_c, 4, 61, 120
6, 54419, Note_on_c, 4, 61, 0
6, 54420, Note_on_c, 4, 59, 120
6, 54479, Note_on_c, 4, 59, 0
6, 54480, Note_on_c, 4, 61, 120
6, 54539, Note_on_c, 4, 61, 0
6, 54540, Note_on_c, 4, 59, 120
6, 54599, Note_on_c, 4, 59, 0
6, 54600, Note_on_c, 4, 62, 120
6, 54659, Note_on_c, 4, 62, 0
6, 54660, Note_on_c, 4, 61, 120
6, 54719, Note_on_c, 4, 61, 0
6, 54720, Note_on_c, 4, 61, 120
6, 54779, Note_on_c, 4, 61, 0
6, 54780, Note_on_c, 4, 58, 120
6, 54839, Note_on_c, 4, 58, 0
6, 54840, Note_on_c, 4, 59, 120
6, 54959, Note_on_c, 4, 59, 0
6, 54960, Note_on_c, 4, 64, 120
6, 55110, Note_on_c, 4, 64, 0
6, 55110, Note_on_c, 4, 66, 120
6, 55139, Note_on_c, 4, 66, 0
6, 55140, Note_on_c, 4, 68, 120
6, 55169, Note_on_c, 4, 68, 0
6, 55170, Note_on_c, 4, 69, 120
6, 55199, Note_on_c, 4, 69, 0
6, 55200, Note_on_c, 4, 71, 120
6, 55259, Note_on_c, 4, 71, 0
6, 55260, Note_on_c, 4, 69, 120
6, 55319, Note_on_c, 4, 69, 0
6, 55320, Note_on_c, 4, 73, 120
6, 55379, Note_on_c, 4, 73, 0
6, 55380, Note_on_c, 4, 71, 120
6, 55439, Note_on_c, 4, 71, 0
6, 55440, Note_on_c, 4, 71, 120
6, 55499, Note_on_c, 4, 71, 0
6, 55500, Note_on_c, 4, 68, 120
6, 55559, Note_on_c, 4, 68, 0
6, 55560, Note_on_c, 4, 69, 120
6, 55679, Note_on_c, 4, 69, 0
6, 55680, Note_on_c, 4, 61, 120
6, 55739, Note_on_c, 4, 61, 0
6, 55740, Note_on_c, 4, 59, 120
6, 55799, Note_on_c, 4, 59, 0
6, 55800, Note_on_c, 4, 57, 120
6, 55919, Note_on_c, 4, 57, 0
6, 55920, Note_on_c, 4, 56, 120
6, 56039, Note_on_c, 4, 56, 0
6, 56040, Note_on_c, 4, 57, 120
6, 56129, Note_on_c, 4, 57, 0
6, 56130, Note_on_c, 4, 61, 120
6, 56159, Note_on_c, 4, 61, 0
6, 56160, Note_on_c, 4, 59, 120
6, 56399, Note_on_c, 4, 59, 0
6, 56400, Note_on_c, 4, 61, 120
6, 56459, Note_on_c, 4, 61, 0
6, 56460, Note_on_c, 4, 59, 120
6, 56489, Note_on_c, 4, 59, 0
6, 56490, Note_on_c, 4, 61, 120
6, 56519, Note_on_c, 4, 61, 0
6, 56520, Note_on_c, 4, 62, 120
6, 56579, Note_on_c, 4, 62, 0
6, 56580, Note_on_c, 4, 61, 120
6, 56639, Note_on_c, 4, 61, 0
6, 56640, Note_on_c, 4, 59, 120
6, 56699, Note_on_c, 4, 59, 0
6, 56700, Note_on_c, 4, 57, 120
6, 56759, Note_on_c, 4, 57, 0
6, 56760, Note_on_c, 4, 56, 120
6, 56789, Note_on_c, 4, 56, 0
6, 56790, Note_on_c, 4, 57, 120
6, 56819, Note_on_c, 4, 57, 0
6, 56820, Note_on_c, 4, 59, 120
6, 56849, Note_on_c, 4, 59, 0
6, 56850, Note_on_c, 4, 56, 120
6, 56879, Note_on_c, 4, 56, 0
6, 56880, Note_on_c, 4, 57, 120
6, 56999, Note_on_c, 4, 57, 0
6, 57120, Note_on_c, 4, 69, 120
6, 57149, Note_on_c, 4, 69, 0
6, 57150, Note_on_c, 4, 68, 120
6, 57179, Note_on_c, 4, 68, 0
6, 57180, Note_on_c, 4, 69, 120
6, 57209, Note_on_c, 4, 69, 0
6, 57210, Note_on_c, 4, 71, 120
6, 57239, Note_on_c, 4, 71, 0
6, 57240, Note_on_c, 4, 73, 120
6, 57299, Note_on_c, 4, 73, 0
6, 57300, Note_on_c, 4, 64, 120
6, 57359, Note_on_c, 4, 64, 0
6, 57360, Note_on_c, 4, 74, 120
6, 57419, Note_on_c, 4, 74, 0
6, 57420, Note_on_c, 4, 64, 120
6, 57479, Note_on_c, 4, 64, 0
6, 57480, Note_on_c, 4, 73, 120
6, 57539, Note_on_c, 4, 73, 0
6, 57540, Note_on_c, 4, 69, 120
6, 57599, Note_on_c, 4, 69, 0
6, 57600, Note_on_c, 4, 74, 120
6, 57659, Note_on_c, 4, 74, 0
6, 57660, Note_on_c, 4, 71, 120
6, 57719, Note_on_c, 4, 71, 0
6, 57720, Note_on_c, 4, 64, 120
6, 57779, Note_on_c, 4, 64, 0
6, 57780, Note_on_c, 4, 68, 120
6, 57839, Note_on_c, 4, 68, 0
6, 57840, Note_on_c, 4, 64, 120
6, 57899, Note_on_c, 4, 64, 0
6, 57900, Note_on_c, 4, 69, 120
6, 57959, Note_on_c, 4, 69, 0
6, 57960, Note_on_c, 4, 57, 120
6, 58079, Note_on_c, 4, 57, 0
6, 58140, Note_on_c, 4, 69, 120
6, 58199, Note_on_c, 4, 69, 0
6, 58200, Note_on_c, 4, 68, 120
6, 58229, Note_on_c, 4, 68, 0
6, 58230, Note_on_c, 4, 66, 120
6, 58259, Note_on_c, 4, 66, 0
6, 58260, Note_on_c, 4, 64, 120
6, 58289, Note_on_c, 4, 64, 0
6, 58290, Note_on_c, 4, 62, 120
6, 58319, Note_on_c, 4, 62, 0
6, 58320, Note_on_c, 4, 61, 120
6, 58559, Note_on_c, 4, 61, 0
6, 63600, Note_on_c, 4, 62, 120
6, 63659, Note_on_c, 4, 62, 0
6, 63660, Note_on_c, 4, 61, 120
6, 63719, Note_on_c, 4, 61, 0
6, 63720, Note_on_c, 4, 62, 120
6, 63839, Note_on_c, 4, 62, 0
6, 63900, Note_on_c, 4, 62, 120
6, 63959, Note_on_c, 4, 62, 0
6, 63960, Note_on_c, 4, 61, 120
6, 64019, Note_on_c, 4, 61, 0
6, 64020, Note_on_c, 4, 59, 120
6, 64079, Note_on_c, 4, 59, 0
6, 64080, Note_on_c, 4, 61, 120
6, 64139, Note_on_c, 4, 61, 0
6, 64140, Note_on_c, 4, 62, 120
6, 64199, Note_on_c, 4, 62, 0
6, 64200, Note_on_c, 4, 64, 120
6, 64319, Note_on_c, 4, 64, 0
6, 64440, Note_on_c, 4, 57, 120
6, 64499, Note_on_c, 4, 57, 0
6, 64500, Note_on_c, 4, 56, 120
6, 64559, Note_on_c, 4, 56, 0
6, 64560, Note_on_c, 4, 57, 120
6, 64619, Note_on_c, 4, 57, 0
6, 64620, Note_on_c, 4, 59, 120
6, 64679, Note_on_c, 4, 59, 0
6, 64680, Note_on_c, 4, 61, 120
6, 64739, Note_on_c, 4, 61, 0
6, 64740, Note_on_c, 4, 62, 120
6, 64799, Note_on_c, 4, 62, 0
6, 64800, Note_on_c, 4, 64, 120
6, 64859, Note_on_c, 4, 64, 0
6, 64860, Note_on_c, 4, 61, 120
6, 64919, Note_on_c, 4, 61, 0
6, 64920, Note_on_c, 4, 66, 120
6, 65039, Note_on_c, 4, 66, 0
6, 65100, Note_on_c, 4, 63, 120
6, 65159, Note_on_c, 4, 63, 0
6, 65160, Note_on_c, 4, 64, 120
6, 65219, Note_on_c, 4, 64, 0
6, 65220, Note_on_c, 4, 66, 120
6, 65279, Note_on_c, 4, 66, 0
6, 65280, Note_on_c, 4, 67, 120
6, 65339, Note_on_c, 4, 67, 0
6, 65340, Note_on_c, 4, 66, 120
6, 65399, Note_on_c, 4, 66, 0
6, 65400, Note_on_c, 4, 67, 120
6, 65459, Note_on_c, 4, 67, 0
6, 65460, Note_on_c, 4, 66, 120
6, 65519, Note_on_c, 4, 66, 0
6, 65520, Note_on_c, 4, 64, 120
6, 65579, Note_on_c, 4, 64, 0
6, 65580, Note_on_c, 4, 66, 120
6, 65609, Note_on_c, 4, 66, 0
6, 65610, Note_on_c, 4, 67, 120
6, 65639, Note_on_c, 4, 67, 0
6, 65640, Note_on_c, 4, 69, 120
6, 65699, Note_on_c, 4, 69, 0
6, 65700, Note_on_c, 4, 67, 120
6, 65759, Note_on_c, 4, 67, 0
6, 65760, Note_on_c, 4, 66, 120
6, 65819, Note_on_c, 4, 66, 0
6, 65820, Note_on_c, 4, 67, 120
6, 65879, Note_on_c, 4, 67, 0
6, 65880, Note_on_c, 4, 69, 120
6, 65939, Note_on_c, 4, 69, 0
6, 65940, Note_on_c, 4, 67, 120
6, 65999, Note_on_c, 4, 67, 0
6, 66000, Note_on_c, 4, 66, 120
6, 66059, Note_on_c, 4, 66, 0
6, 66060, Note_on_c, 4, 67, 120
6, 66119, Note_on_c, 4, 67, 0
6, 66120, Note_on_c, 4, 69, 120
6, 66179, Note_on_c, 4, 69, 0
6, 66180, Note_on_c, 4, 67, 120
6, 66209, Note_on_c, 4, 67, 0
6, 66210, Note_on_c, 4, 69, 120
6, 66239, Note_on_c, 4, 69, 0
6, 66240, Note_on_c, 4, 62, 120
6, 66299, Note_on_c, 4, 62, 0
6, 66300, Note_on_c, 4, 64, 120
6, 66329, Note_on_c, 4, 64, 0
6, 66330, Note_on_c, 4, 66, 120
6, 66359, Note_on_c, 4, 66, 0
6, 66360, Note_on_c, 4, 59, 120
6, 66419, Note_on_c, 4, 59, 0
6, 66420, Note_on_c, 4, 61, 120
6, 66449, Note_on_c, 4, 61, 0
6, 66450, Note_on_c, 4, 62, 120
6, 66479, Note_on_c, 4, 62, 0
6, 66480, Note_on_c, 4, 64, 120
6, 66659, Note_on_c, 4, 64, 0
6, 66660, Note_on_c, 4, 64, 120
6, 66719, Note_on_c, 4, 64, 0
6, 66720, Note_on_c, 4, 69, 120
6, 66779, Note_on_c, 4, 69, 0
6, 66780, Note_on_c, 4, 67, 120
6, 66839, Note_on_c, 4, 67, 0
6, 66840, Note_on_c, 4, 66, 120
6, 66899, Note_on_c, 4, 66, 0
6, 66900, Note_on_c, 4, 64, 120
6, 66959, Note_on_c, 4, 64, 0
6, 66960, Note_on_c, 4, 62, 120
6, 67019, Note_on_c, 4, 62, 0
6, 67020, Note_on_c, 4, 64, 120
6, 67079, Note_on_c, 4, 64, 0
6, 67080, Note_on_c, 4, 61, 120
6, 67139, Note_on_c, 4, 61, 0
6, 67140, Note_on_c, 4, 62, 120
6, 67199, Note_on_c, 4, 62, 0
6, 67200, Note_on_c, 4, 64, 120
6, 67319, Note_on_c, 4, 64, 0
6, 67500, Note_on_c, 4, 69, 120
6, 67559, Note_on_c, 4, 69, 0
6, 67560, Note_on_c, 4, 57, 120
6, 67619, Note_on_c, 4, 57, 0
6, 67620, Note_on_c, 4, 59, 120
6, 67649, Note_on_c, 4, 59, 0
6, 67650, Note_on_c, 4, 61, 120
6, 67679, Note_on_c, 4, 61, 0
6, 67680, Note_on_c, 4, 62, 120
6, 67859, Note_on_c, 4, 62, 0
6, 67860, Note_on_c, 4, 60, 120
6, 67919, Note_on_c, 4, 60, 0
6, 67920, Note_on_c, 4, 62, 120
6, 67979, Note_on_c, 4, 62, 0
6, 67980, Note_on_c, 4, 63, 120
6, 68039, Note_on_c, 4, 63, 0
6, 68040, Note_on_c, 4, 64, 120
6, 68099, Note_on_c, 4, 64, 0
6, 68100, Note_on_c, 4, 62, 120
6, 68159, Note_on_c, 4, 62, 0
6, 68160, Note_on_c, 4, 61, 120
6, 68279, Note_on_c, 4, 61, 0
6, 68340, Note_on_c, 4, 62, 120
6, 68399, Note_on_c, 4, 62, 0
6, 68400, Note_on_c, 4, 64, 120
6, 68459, Note_on_c, 4, 64, 0
6, 68460, Note_on_c, 4, 61, 120
6, 68519, Note_on_c, 4, 61, 0
6, 68520, Note_on_c, 4, 57, 120
6, 68639, Note_on_c, 4, 57, 0
6, 68640, Note_on_c, 4, 57, 120
6, 68759, Note_on_c, 4, 57, 0
6, 68760, Note_on_c, 4, 62, 120
6, 68999, Note_on_c, 4, 62, 0
6, 69000, Note_on_c, 4, 61, 120
6, 69059, Note_on_c, 4, 61, 0
6, 69060, Note_on_c, 4, 57, 120
6, 69119, Note_on_c, 4, 57, 0
6, 69120, Note_on_c, 4, 59, 120
6, 69179, Note_on_c, 4, 59, 0
6, 69180, Note_on_c, 4, 61, 120
6, 69239, Note_on_c, 4, 61, 0
6, 69240, Note_on_c, 4, 62, 120
6, 69359, Note_on_c, 4, 62, 0
6, 69360, Note_on_c, 4, 57, 120
6, 69479, Note_on_c, 4, 57, 0
6, 69540, Note_on_c, 4, 54, 120
6, 69599, Note_on_c, 4, 54, 0
6, 69600, Note_on_c, 4, 55, 120
6, 69719, Note_on_c, 4, 55, 0
6, 69720, Note_on_c, 4, 62, 120
6, 69839, Note_on_c, 4, 62, 0
6, 69840, Note_on_c, 4, 63, 120
6, 69959, Note_on_c, 4, 63, 0
6, 69960, Note_on_c, 4, 64, 120
6, 70019, Note_on_c, 4, 64, 0
6, 70020, Note_on_c, 4, 66, 120
6, 70079, Note_on_c, 4, 66, 0
6, 70080, Note_on_c, 4, 67, 120
6, 70139, Note_on_c, 4, 67, 0
6, 70140, Note_on_c, 4, 66, 120
6, 70199, Note_on_c, 4, 66, 0
6, 70200, Note_on_c, 4, 67, 120
6, 70259, Note_on_c, 4, 67, 0
6, 70260, Note_on_c, 4, 66, 120
6, 70319, Note_on_c, 4, 66, 0
6, 70320, Note_on_c, 4, 64, 120
6, 70439, Note_on_c, 4, 64, 0
6, 70440, Note_on_c, 4, 59, 120
6, 70499, Note_on_c, 4, 59, 0
6, 70500, Note_on_c, 4, 69, 120
6, 70559, Note_on_c, 4, 69, 0
6, 70560, Note_on_c, 4, 67, 120
6, 70619, Note_on_c, 4, 67, 0
6, 70620, Note_on_c, 4, 66, 120
6, 70679, Note_on_c, 4, 66, 0
6, 70680, Note_on_c, 4, 64, 120
6, 70739, Note_on_c, 4, 64, 0
6, 70740, Note_on_c, 4, 62, 120
6, 70799, Note_on_c, 4, 62, 0
6, 70800, Note_on_c, 4, 64, 120
6, 70859, Note_on_c, 4, 64, 0
6, 70860, Note_on_c, 4, 67, 120
6, 70889, Note_on_c, 4, 67, 0
6, 70890, Note_on_c, 4, 66, 120
6, 70919, Note_on_c, 4, 66, 0
6, 70920, Note_on_c, 4, 64, 120
6, 70979, Note_on_c, 4, 64, 0
6, 70980, Note_on_c, 4, 62, 120
6, 71039, Note_on_c, 4, 62, 0
6, 71040, Note_on_c, 4, 61, 120
6, 71099, Note_on_c, 4, 61, 0
6, 71100, Note_on_c, 4, 59, 120
6, 71159, Note_on_c, 4, 59, 0
6, 71160, Note_on_c, 4, 57, 120
6, 71279, Note_on_c, 4, 57, 0
6, 71340, Note_on_c, 4, 64, 120
6, 71399, Note_on_c, 4, 64, 0
6, 71400, Note_on_c, 4, 57, 120
6, 71519, Note_on_c, 4, 57, 0
6, 71520, Note_on_c, 4, 59, 120
6, 71639, Note_on_c, 4, 59, 0
6, 71640, Note_on_c, 4, 62, 120
6, 71759, Note_on_c, 4, 62, 0
6, 71760, Note_on_c, 4, 71, 120
6, 71879, Note_on_c, 4, 71, 0
6, 71880, Note_on_c, 4, 69, 120
6, 71999, Note_on_c, 4, 69, 0
6, 72000, Note_on_c, 4, 61, 120
6, 72119, Note_on_c, 4, 61, 0
6, 72120, Note_on_c, 4, 62, 120
6, 72239, Note_on_c, 4, 62, 0
6, 72240, Note_on_c, 4, 57, 120
6, 72359, Note_on_c, 4, 57, 0
6, 72600, Note_on_c, 4, 67, 120
6, 72659, Note_on_c, 4, 67, 0
6, 72660, Note_on_c, 4, 69, 120
6, 72719, Note_on_c, 4, 69, 0
6, 72720, Note_on_c, 4, 67, 120
6, 72779, Note_on_c, 4, 67, 0
6, 72780, Note_on_c, 4, 66, 120
6, 72839, Note_on_c, 4, 66, 0
6, 72840, Note_on_c, 4, 64, 120
6, 72899, Note_on_c, 4, 64, 0
6, 72900, Note_on_c, 4, 64, 120
6, 72929, Note_on_c, 4, 64, 0
6, 72930, Note_on_c, 4, 62, 120
6, 72959, Note_on_c, 4, 62, 0
6, 72960, Note_on_c, 4, 64, 120
6, 73019, Note_on_c, 4, 64, 0
6, 73020, Note_on_c, 4, 66, 120
6, 73079, Note_on_c, 4, 66, 0
6, 73080, Note_on_c, 4, 64, 120
6, 73139, Note_on_c, 4, 64, 0
6, 73140, Note_on_c, 4, 62, 120
6, 73199, Note_on_c, 4, 62, 0
6, 73200, Note_on_c, 4, 61, 120
6, 73259, Note_on_c, 4, 61, 0
6, 73260, Note_on_c, 4, 61, 120
6, 73289, Note_on_c, 4, 61, 0
6, 73290, Note_on_c, 4, 59, 120
6, 73319, Note_on_c, 4, 59, 0
6, 73320, Note_on_c, 4, 61, 120
6, 73379, Note_on_c, 4, 61, 0
6, 73380, Note_on_c, 4, 62, 120
6, 73439, Note_on_c, 4, 62, 0
6, 73440, Note_on_c, 4, 64, 120
6, 73499, Note_on_c, 4, 64, 0
6, 73500, Note_on_c, 4, 61, 120
6, 73559, Note_on_c, 4, 61, 0
6, 73560, Note_on_c, 4, 62, 120
6, 73619, Note_on_c, 4, 62, 0
6, 73620, Note_on_c, 4, 64, 120
6, 73679, Note_on_c, 4, 64, 0
6, 73680, Note_on_c, 4, 66, 120
6, 73739, Note_on_c, 4, 66, 0
6, 73740, Note_on_c, 4, 67, 120
6, 73799, Note_on_c, 4, 67, 0
6, 73800, Note_on_c, 4, 69, 120
6, 73859, Note_on_c, 4, 69, 0
6, 73860, Note_on_c, 4, 71, 120
6, 73919, Note_on_c, 4, 71, 0
6, 73920, Note_on_c, 4, 67, 120
6, 73979, Note_on_c, 4, 67, 0
6, 73980, Note_on_c, 4, 66, 120
6, 74039, Note_on_c, 4, 66, 0
6, 74040, Note_on_c, 4, 64, 120
6, 74099, Note_on_c, 4, 64, 0
6, 74100, Note_on_c, 4, 62, 120
6, 74159, Note_on_c, 4, 62, 0
6, 74160, Note_on_c, 4, 61, 120
6, 74219, Note_on_c, 4, 61, 0
6, 74220, Note_on_c, 4, 59, 120
6, 74279, Note_on_c, 4, 59, 0
6, 74280, Note_on_c, 4, 57, 120
6, 74339, Note_on_c, 4, 57, 0
6, 74340, Note_on_c, 4, 55, 120
6, 74369, Note_on_c, 4, 55, 0
6, 74370, Note_on_c, 4, 57, 120
6, 74399, Note_on_c, 4, 57, 0
6, 74400, Note_on_c, 4, 54, 120
6, 74639, Note_on_c, 4, 54, 0
6, 77640, Note_on_c, 4, 62, 120
6, 77759, Note_on_c, 4, 62, 0
6, 77760, Note_on_c, 4, 66, 120
6, 77879, Note_on_c, 4, 66, 0
6, 77880, Note_on_c, 4, 62, 120
6, 77999, Note_on_c, 4, 62, 0
6, 78000, Note_on_c, 4, 61, 120
6, 78119, Note_on_c, 4, 61, 0
6, 78120, Note_on_c, 4, 61, 120
6, 78359, Note_on_c, 4, 61, 0
6, 78360, Note_on_c, 4, 66, 120
6, 78479, Note_on_c, 4, 66, 0
6, 78480, Note_on_c, 4, 74, 120
6, 78599, Note_on_c, 4, 74, 0
6, 78600, Note_on_c, 4, 68, 120
6, 78719, Note_on_c, 4, 68, 0
6, 78720, Note_on_c, 4, 64, 120
6, 78839, Note_on_c, 4, 64, 0
6, 78840, Note_on_c, 4, 61, 120
6, 78959, Note_on_c, 4, 61, 0
6, 78960, Note_on_c, 4, 64, 120
6, 79079, Note_on_c, 4, 64, 0
6, 79080, Note_on_c, 4, 69, 120
6, 79199, Note_on_c, 4, 69, 0
6, 79200, Note_on_c, 4, 71, 120
6, 79319, Note_on_c, 4, 71, 0
6, 79320, Note_on_c, 4, 68, 120
6, 79439, Note_on_c, 4, 68, 0
6, 79440, Note_on_c, 4, 64, 120
6, 79499, Note_on_c, 4, 64, 0
6, 79500, Note_on_c, 4, 62, 120
6, 79559, Note_on_c, 4, 62, 0
6, 79560, Note_on_c, 4, 64, 120
6, 79739, Note_on_c, 4, 64, 0
6, 79740, Note_on_c, 4, 66, 120
6, 79799, Note_on_c, 4, 66, 0
6, 79800, Note_on_c, 4, 62, 120
6, 79859, Note_on_c, 4, 62, 0
6, 79860, Note_on_c, 4, 61, 120
6, 79919, Note_on_c, 4, 61, 0
6, 79920, Note_on_c, 4, 62, 120
6, 80039, Note_on_c, 4, 62, 0
6, 80040, Note_on_c, 4, 64, 120
6, 80159, Note_on_c, 4, 64, 0
6, 80160, Note_on_c, 4, 66, 120
6, 80519, Note_on_c, 4, 66, 0
6, 81240, Note_on_c, 4, 62, 120
6, 81359, Note_on_c, 4, 62, 0
6, 81360, Note_on_c, 4, 71, 120
6, 81479, Note_on_c, 4, 71, 0
6, 81480, Note_on_c, 4, 70, 120
6, 81599, Note_on_c, 4, 70, 0
6, 81600, Note_on_c, 4, 66, 120
6, 81839, Note_on_c, 4, 66, 0
6, 81840, Note_on_c, 4, 67, 120
6, 81959, Note_on_c, 4, 67, 0
6, 81960, Note_on_c, 4, 61, 120
6, 82079, Note_on_c, 4, 61, 0
6, 82080, Note_on_c, 4, 59, 120
6, 82199, Note_on_c, 4, 59, 0
6, 82200, Note_on_c, 4, 58, 120
6, 82319, Note_on_c, 4, 58, 0
6, 82320, Note_on_c, 4, 59, 120
6, 82439, Note_on_c, 4, 59, 0
6, 82440, Note_on_c, 4, 62, 120
6, 82559, Note_on_c, 4, 62, 0
6, 82560, Note_on_c, 4, 64, 120
6, 82799, Note_on_c, 4, 64, 0
6, 82800, Note_on_c, 4, 64, 120
6, 82919, Note_on_c, 4, 64, 0
6, 82920, Note_on_c, 4, 61, 120
6, 83039, Note_on_c, 4, 61, 0
6, 83040, Note_on_c, 4, 54, 120
6, 83279, Note_on_c, 4, 54, 0
6, 83280, Note_on_c, 4, 59, 120
6, 83399, Note_on_c, 4, 59, 0
6, 83400, Note_on_c, 4, 61, 120
6, 83519, Note_on_c, 4, 61, 0
6, 83520, Note_on_c, 4, 59, 120
6, 83639, Note_on_c, 4, 59, 0
6, 83640, Note_on_c, 4, 58, 120
6, 83759, Note_on_c, 4, 58, 0
6, 83760, Note_on_c, 4, 59, 120
6, 83879, Note_on_c, 4, 59, 0
6, 83880, Note_on_c, 4, 66, 120
6, 83999, Note_on_c, 4, 66, 0
6, 84000, Note_on_c, 4, 71, 120
6, 84239, Note_on_c, 4, 71, 0
6, 84240, Note_on_c, 4, 70, 120
6, 84359, Note_on_c, 4, 70, 0
6, 84480, Note_on_c, 4, 62, 120
6, 84719, Note_on_c, 4, 62, 0
6, 84720, Note_on_c, 4, 64, 120
6, 84839, Note_on_c, 4, 64, 0
6, 84840, Note_on_c, 4, 66, 120
6, 84959, Note_on_c, 4, 66, 0
6, 84960, Note_on_c, 4, 62, 120
6, 85079, Note_on_c, 4, 62, 0
6, 85080, Note_on_c, 4, 61, 120
6, 85199, Note_on_c, 4, 61, 0
6, 85200, Note_on_c, 4, 62, 120
6, 85379, Note_on_c, 4, 62, 0
6, 85380, Note_on_c, 4, 61, 120
6, 85439, Note_on_c, 4, 61, 0
6, 85440, Note_on_c, 4, 62, 120
6, 85499, Note_on_c, 4, 62, 0
6, 85500, Note_on_c, 4, 64, 120
6, 85559, Note_on_c, 4, 64, 0
6, 85560, Note_on_c, 4, 66, 120
6, 85679, Note_on_c, 4, 66, 0
6, 85680, Note_on_c, 4, 64, 120
6, 85799, Note_on_c, 4, 64, 0
6, 85800, Note_on_c, 4, 62, 120
6, 85919, Note_on_c, 4, 62, 0
6, 85920, Note_on_c, 4, 64, 120
6, 86039, Note_on_c, 4, 64, 0
6, 86040, Note_on_c, 4, 62, 120
6, 86159, Note_on_c, 4, 62, 0
6, 86160, Note_on_c, 4, 61, 120
6, 86279, Note_on_c, 4, 61, 0
6, 86280, Note_on_c, 4, 62, 120
6, 86399, Note_on_c, 4, 62, 0
6, 86400, Note_on_c, 4, 64, 120
6, 86459, Note_on_c, 4, 64, 0
6, 86460, Note_on_c, 4, 62, 120
6, 86519, Note_on_c, 4, 62, 0
6, 86520, Note_on_c, 4, 61, 120
6, 86579, Note_on_c, 4, 61, 0
6, 86580, Note_on_c, 4, 59, 120
6, 86639, Note_on_c, 4, 59, 0
6, 86640, Note_on_c, 4, 58, 120
6, 86819, Note_on_c, 4, 58, 0
6, 86820, Note_on_c, 4, 56, 120
6, 86879, Note_on_c, 4, 56, 0
6, 86880, Note_on_c, 4, 54, 120
6, 86999, Note_on_c, 4, 54, 0
6, 87120, Note_on_c, 4, 54, 120
6, 87239, Note_on_c, 4, 54, 0
6, 87240, Note_on_c, 4, 59, 120
6, 87359, Note_on_c, 4, 59, 0
6, 87360, Note_on_c, 4, 61, 120
6, 87479, Note_on_c, 4, 61, 0
6, 87480, Note_on_c, 4, 58, 120
6, 87719, Note_on_c, 4, 58, 0
6, 87720, Note_on_c, 4, 59, 120
6, 87779, Note_on_c, 4, 59, 0
6, 87780, Note_on_c, 4, 61, 120
6, 87839, Note_on_c, 4, 61, 0
6, 87840, Note_on_c, 4, 62, 120
6, 87959, Note_on_c, 4, 62, 0
6, 87960, Note_on_c, 4, 64, 120
6, 88079, Note_on_c, 4, 64, 0
6, 88080, Note_on_c, 4, 61, 120
6, 88259, Note_on_c, 4, 61, 0
6, 88260, Note_on_c, 4, 61, 120
6, 88319, Note_on_c, 4, 61, 0
6, 88320, Note_on_c, 4, 66, 120
6, 88379, Note_on_c, 4, 66, 0
6, 88380, Note_on_c, 4, 58, 120
6, 88439, Note_on_c, 4, 58, 0
6, 88440, Note_on_c, 4, 59, 120
6, 88679, Note_on_c, 4, 59, 0
6, 88680, Note_on_c, 4, 62, 120
6, 88799, Note_on_c, 4, 62, 0
6, 88800, Note_on_c, 4, 67, 120
6, 89039, Note_on_c, 4, 67, 0
6, 89040, Note_on_c, 4, 66, 120
6, 89159, Note_on_c, 4, 66, 0
6, 89160, Note_on_c, 4, 66, 120
6, 89219, Note_on_c, 4, 66, 0
6, 89220, Note_on_c, 4, 64, 120
6, 89279, Note_on_c, 4, 64, 0
6, 89280, Note_on_c, 4, 66, 120
6, 89339, Note_on_c, 4, 66, 0
6, 89340, Note_on_c, 4, 67, 120
6, 89399, Note_on_c, 4, 67, 0
6, 89400, Note_on_c, 4, 64, 120
6, 89459, Note_on_c, 4, 64, 0
6, 89460, Note_on_c, 4, 69, 120
6, 89519, Note_on_c, 4, 69, 0
6, 89520, Note_on_c, 4, 62, 120
6, 89639, Note_on_c, 4, 62, 0
6, 89640, Note_on_c, 4, 66, 120
6, 89759, Note_on_c, 4, 66, 0
6, 89760, Note_on_c, 4, 64, 120
6, 89879, Note_on_c, 4, 64, 0
6, 89880, Note_on_c, 4, 69, 120
6, 89939, Note_on_c, 4, 69, 0
6, 89940, Note_on_c, 4, 67, 120
6, 89999, Note_on_c, 4, 67, 0
6, 90000, Note_on_c, 4, 66, 120
6, 90059, Note_on_c, 4, 66, 0
6, 90060, Note_on_c, 4, 67, 120
6, 90119, Note_on_c, 4, 67, 0
6, 90120, Note_on_c, 4, 69, 120
6, 90179, Note_on_c, 4, 69, 0
6, 90180, Note_on_c, 4, 71, 120
6, 90239, Note_on_c, 4, 71, 0
6, 90240, Note_on_c, 4, 73, 120
6, 90299, Note_on_c, 4, 73, 0
6, 90300, Note_on_c, 4, 71, 120
6, 90359, Note_on_c, 4, 71, 0
6, 90360, Note_on_c, 4, 69, 120
6, 90419, Note_on_c, 4, 69, 0
6, 90420, Note_on_c, 4, 71, 120
6, 90479, Note_on_c, 4, 71, 0
6, 90480, Note_on_c, 4, 67, 120
6, 90539, Note_on_c, 4, 67, 0
6, 90540, Note_on_c, 4, 69, 120
6, 90599, Note_on_c, 4, 69, 0
6, 90600, Note_on_c, 4, 66, 120
6, 90719, Note_on_c, 4, 66, 0
6, 90840, Note_on_c, 4, 59, 120
6, 90959, Note_on_c, 4, 59, 0
6, 90960, Note_on_c, 4, 67, 120
6, 91079, Note_on_c, 4, 67, 0
6, 91200, Note_on_c, 4, 66, 120
6, 91319, Note_on_c, 4, 66, 0
6, 91320, Note_on_c, 4, 66, 120
6, 91367, Note_on_c, 4, 66, 0
6, 91380, Note_on_c, 4, 62, 120
6, 91403, Note_on_c, 4, 62, 0
6, 91410, Note_on_c, 4, 61, 120
6, 91433, Note_on_c, 4, 61, 0
6, 91440, Note_on_c, 4, 59, 120
6, 91535, Note_on_c, 4, 59, 0
6, 91620, Note_on_c, 4, 62, 120
6, 91667, Note_on_c, 4, 62, 0
6, 91680, Note_on_c, 4, 61, 120
6, 91727, Note_on_c, 4, 61, 0
6, 91740, Note_on_c, 4, 64, 120
6, 91763, Note_on_c, 4, 64, 0
6, 91770, Note_on_c, 4, 62, 120
6, 91793, Note_on_c, 4, 62, 0
6, 91800, Note_on_c, 4, 61, 120
6, 91895, Note_on_c, 4, 61, 0
6, 91980, Note_on_c, 4, 61, 120
6, 92027, Note_on_c, 4, 61, 0
6, 92040, Note_on_c, 4, 62, 120
6, 92087, Note_on_c, 4, 62, 0
6, 92100, Note_on_c, 4, 59, 120
6, 92123, Note_on_c, 4, 59, 0
6, 92130, Note_on_c, 4, 58, 120
6, 92153, Note_on_c, 4, 58, 0
6, 92160, Note_on_c, 4, 59, 120
6, 92255, Note_on_c, 4, 59, 0
6, 92340, Note_on_c, 4, 64, 120
6, 92387, Note_on_c, 4, 64, 0
6, 92400, Note_on_c, 4, 64, 120
6, 92447, Note_on_c, 4, 64, 0
6, 92460, Note_on_c, 4, 61, 120
6, 92483, Note_on_c, 4, 61, 0
6, 92490, Note_on_c, 4, 62, 120
6, 92513, Note_on_c, 4, 62, 0
6, 92520, Note_on_c, 4, 64, 120
6, 92615, Note_on_c, 4, 64, 0
6, 92700, Note_on_c, 4, 70, 120
6, 92747, Note_on_c, 4, 70, 0
6, 92760, Note_on_c, 4, 71, 120
6, 92807, Note_on_c, 4, 71, 0
6, 92820, Note_on_c, 4, 74, 120
6, 92843, Note_on_c, 4, 74, 0
6, 92850, Note_on_c, 4, 73, 120
6, 92873, Note_on_c, 4, 73, 0
6, 92880, Note_on_c, 4, 71, 120
6, 92975, Note_on_c, 4, 71, 0
6, 93060, Note_on_c, 4, 62, 120
6, 93107, Note_on_c, 4, 62, 0
6, 93120, Note_on_c, 4, 66, 120
6, 93167, Note_on_c, 4, 66, 0
6, 93180, Note_on_c, 4, 61, 120
6, 93203, Note_on_c, 4, 61, 0
6, 93210, Note_on_c, 4, 59, 120
6, 93233, Note_on_c, 4, 59, 0
6, 93240, Note_on_c, 4, 58, 120
6, 93335, Note_on_c, 4, 58, 0
6, 93420, Note_on_c, 4, 61, 120
6, 93467, Note_on_c, 4, 61, 0
6, 93480, Note_on_c, 4, 54, 120
6, 93527, Note_on_c, 4, 54, 0
6, 93540, Note_on_c, 4, 66, 120
6, 93563, Note_on_c, 4, 66, 0
6, 93570, Note_on_c, 4, 64, 120
6, 93593, Note_on_c, 4, 64, 0
6, 93600, Note_on_c, 4, 62, 120
6, 93695, Note_on_c, 4, 62, 0
6, 93780, Note_on_c, 4, 66, 120
6, 93827, Note_on_c, 4, 66, 0
6, 93840, Note_on_c, 4, 66, 120
6, 93887, Note_on_c, 4, 66, 0
6, 93900, Note_on_c, 4, 64, 120
6, 93923, Note_on_c, 4, 64, 0
6, 93930, Note_on_c, 4, 62, 120
6, 93953, Note_on_c, 4, 62, 0
6, 93960, Note_on_c, 4, 61, 120
6, 94055, Note_on_c, 4, 61, 0
6, 94140, Note_on_c, 4, 64, 120
6, 94187, Note_on_c, 4, 64, 0
6, 94200, Note_on_c, 4, 66, 120
6, 94319, Note_on_c, 4, 66, 0
6, 94320, Note_on_c, 4, 66, 120
6, 94499, Note_on_c, 4, 66, 0
6, 94500, Note_on_c, 4, 67, 120
6, 94559, Note_on_c, 4, 67, 0
6, 94560, Note_on_c, 4, 64, 120
6, 94679, Note_on_c, 4, 64, 0
6, 94680, Note_on_c, 4, 64, 120
6, 94919, Note_on_c, 4, 64, 0
6, 94920, Note_on_c, 4, 62, 120
6, 95039, Note_on_c, 4, 62, 0
6, 95040, Note_on_c, 4, 62, 120
6, 95219, Note_on_c, 4, 62, 0
6, 95220, Note_on_c, 4, 64, 120
6, 95279, Note_on_c, 4, 64, 0
6, 95280, Note_on_c, 4, 61, 120
6, 95399, Note_on_c, 4, 61, 0
6, 95400, Note_on_c, 4, 61, 120
6, 95639, Note_on_c, 4, 61, 0
6, 95640, Note_on_c, 4, 59, 120
6, 95759, Note_on_c, 4, 59, 0
6, 95760, Note_on_c, 4, 66, 120
6, 95879, Note_on_c, 4, 66, 0
6, 95880, Note_on_c, 4, 64, 120
6, 96119, Note_on_c, 4, 64, 0
6, 96120, Note_on_c, 4, 64, 120
6, 96239, Note_on_c, 4, 64, 0
6, 96240, Note_on_c, 4, 62, 120
6, 96479, Note_on_c, 4, 62, 0
6, 96480, Note_on_c, 4, 62, 120
6, 96599, Note_on_c, 4, 62, 0
6, 96600, Note_on_c, 4, 61, 120
6, 96839, Note_on_c, 4, 61, 0
6, 96840, Note_on_c, 4, 61, 120
6, 96959, Note_on_c, 4, 61, 0
6, 96960, Note_on_c, 4, 66, 120
6, 97019, Note_on_c, 4, 66, 0
6, 97020, Note_on_c, 4, 62, 120
6, 97079, Note_on_c, 4, 62, 0
6, 97080, Note_on_c, 4, 64, 120
6, 97139, Note_on_c, 4, 64, 0
6, 97140, Note_on_c, 4, 67, 120
6, 97199, Note_on_c, 4, 67, 0
6, 97200, Note_on_c, 4, 61, 120
6, 97379, Note_on_c, 4, 61, 0
6, 97380, Note_on_c, 4, 62, 120
6, 97439, Note_on_c, 4, 62, 0
6, 97440, Note_on_c, 4, 62, 120
6, 97799, Note_on_c, 4, 62, 0
6, 102000, Note_on_c, 4, 67, 120
6, 102029, Note_on_c, 4, 67, 0
6, 102030, Note_on_c, 4, 66, 120
6, 102059, Note_on_c, 4, 66, 0
6, 102060, Note_on_c, 4, 67, 120
6, 102089, Note_on_c, 4, 67, 0
6, 102090, Note_on_c, 4, 69, 120
6, 102119, Note_on_c, 4, 69, 0
6, 102120, Note_on_c, 4, 71, 120
6, 102239, Note_on_c, 4, 71, 0
6, 102240, Note_on_c, 4, 71, 120
6, 102359, Note_on_c, 4, 71, 0
6, 102360, Note_on_c, 4, 67, 120
6, 102389, Note_on_c, 4, 67, 0
6, 102390, Note_on_c, 4, 66, 120
6, 102419, Note_on_c, 4, 66, 0
6, 102420, Note_on_c, 4, 67, 120
6, 102449, Note_on_c, 4, 67, 0
6, 102450, Note_on_c, 4, 69, 120
6, 102479, Note_on_c, 4, 69, 0
6, 102480, Note_on_c, 4, 71, 120
6, 102599, Note_on_c, 4, 71, 0
6, 102600, Note_on_c, 4, 71, 120
6, 102719, Note_on_c, 4, 71, 0
6, 102720, Note_on_c, 4, 67, 120
6, 102809, Note_on_c, 4, 67, 0
6, 102810, Note_on_c, 4, 69, 120
6, 102824, Note_on_c, 4, 69, 0
6, 102825, Note_on_c, 4, 71, 120
6, 102839, Note_on_c, 4, 71, 0
6, 102840, Note_on_c, 4, 72, 120
6, 102869, Note_on_c, 4, 72, 0
6, 102870, Note_on_c, 4, 71, 120
6, 102899, Note_on_c, 4, 71, 0
6, 102900, Note_on_c, 4, 72, 120
6, 102929, Note_on_c, 4, 72, 0
6, 102930, Note_on_c, 4, 74, 120
6, 102959, Note_on_c, 4, 74, 0
6, 102960, Note_on_c, 4, 72, 120
6, 103019, Note_on_c, 4, 72, 0
6, 103020, Note_on_c, 4, 71, 120
6, 103079, Note_on_c, 4, 71, 0
6, 103080, Note_on_c, 4, 69, 120
6, 103139, Note_on_c, 4, 69, 0
6, 103140, Note_on_c, 4, 67, 120
6, 103199, Note_on_c, 4, 67, 0
6, 103200, Note_on_c, 4, 66, 120
6, 103319, Note_on_c, 4, 66, 0
6, 103320, Note_on_c, 4, 66, 120
6, 103439, Note_on_c, 4, 66, 0
6, 103440, Note_on_c, 4, 67, 120
6, 103469, Note_on_c, 4, 67, 0
6, 103470, Note_on_c, 4, 66, 120
6, 103499, Note_on_c, 4, 66, 0
6, 103500, Note_on_c, 4, 67, 120
6, 103529, Note_on_c, 4, 67, 0
6, 103530, Note_on_c, 4, 69, 120
6, 103559, Note_on_c, 4, 69, 0
6, 103560, Note_on_c, 4, 71, 120
6, 103619, Note_on_c, 4, 71, 0
6, 103620, Note_on_c, 4, 67, 120
6, 103679, Note_on_c, 4, 67, 0
6, 103680, Note_on_c, 4, 62, 120
6, 103739, Note_on_c, 4, 62, 0
6, 103740, Note_on_c, 4, 59, 120
6, 103799, Note_on_c, 4, 59, 0
6, 103800, Note_on_c, 4, 57, 120
6, 103859, Note_on_c, 4, 57, 0
6, 103860, Note_on_c, 4, 69, 120
6, 103919, Note_on_c, 4, 69, 0
6, 103920, Note_on_c, 4, 71, 120
6, 103979, Note_on_c, 4, 71, 0
6, 103980, Note_on_c, 4, 67, 120
6, 104039, Note_on_c, 4, 67, 0
6, 104040, Note_on_c, 4, 64, 120
6, 104099, Note_on_c, 4, 64, 0
6, 104100, Note_on_c, 4, 59, 120
6, 104159, Note_on_c, 4, 59, 0
6, 104160, Note_on_c, 4, 60, 120
6, 104189, Note_on_c, 4, 60, 0
6, 104190, Note_on_c, 4, 62, 120
6, 104219, Note_on_c, 4, 62, 0
6, 104220, Note_on_c, 4, 64, 120
6, 104249, Note_on_c, 4, 64, 0
6, 104250, Note_on_c, 4, 65, 120
6, 104279, Note_on_c, 4, 65, 0
6, 104280, Note_on_c, 4, 67, 120
6, 104309, Note_on_c, 4, 67, 0
6, 104310, Note_on_c, 4, 65, 120
6, 104339, Note_on_c, 4, 65, 0
6, 104340, Note_on_c, 4, 67, 120
6, 104369, Note_on_c, 4, 67, 0
6, 104370, Note_on_c, 4, 69, 120
6, 104399, Note_on_c, 4, 69, 0
6, 104400, Note_on_c, 4, 67, 120
6, 104459, Note_on_c, 4, 67, 0
6, 104460, Note_on_c, 4, 64, 120
6, 104519, Note_on_c, 4, 64, 0
6, 104520, Note_on_c, 4, 66, 120
6, 104579, Note_on_c, 4, 66, 0
6, 104580, Note_on_c, 4, 67, 120
6, 104639, Note_on_c, 4, 67, 0
6, 104640, Note_on_c, 4, 66, 120
6, 104669, Note_on_c, 4, 66, 0
6, 104670, Note_on_c, 4, 64, 120
6, 104699, Note_on_c, 4, 64, 0
6, 104700, Note_on_c, 4, 66, 120
6, 104729, Note_on_c, 4, 66, 0
6, 104730, Note_on_c, 4, 67, 120
6, 104759, Note_on_c, 4, 67, 0
6, 104760, Note_on_c, 4, 66, 120
6, 104789, Note_on_c, 4, 66, 0
6, 104790, Note_on_c, 4, 64, 120
6, 104819, Note_on_c, 4, 64, 0
6, 104820, Note_on_c, 4, 62, 120
6, 104849, Note_on_c, 4, 62, 0
6, 104850, Note_on_c, 4, 64, 120
6, 104879, Note_on_c, 4, 64, 0
6, 104880, Note_on_c, 4, 66, 120
6, 104909, Note_on_c, 4, 66, 0
6, 104910, Note_on_c, 4, 64, 120
6, 104939, Note_on_c, 4, 64, 0
6, 104940, Note_on_c, 4, 62, 120
6, 104969, Note_on_c, 4, 62, 0
6, 104970, Note_on_c, 4, 60, 120
6, 104999, Note_on_c, 4, 60, 0
6, 105000, Note_on_c, 4, 62, 120
6, 105150, Note_on_c, 4, 62, 0
6, 105150, Note_on_c, 4, 64, 120
6, 105179, Note_on_c, 4, 64, 0
6, 105180, Note_on_c, 4, 62, 120
6, 105209, Note_on_c, 4, 62, 0
6, 105210, Note_on_c, 4, 60, 120
6, 105239, Note_on_c, 4, 60, 0
6, 105240, Note_on_c, 4, 59, 120
6, 105299, Note_on_c, 4, 59, 0
6, 105300, Note_on_c, 4, 62, 120
6, 105359, Note_on_c, 4, 62, 0
6, 105360, Note_on_c, 4, 67, 120
6, 105510, Note_on_c, 4, 67, 0
6, 105510, Note_on_c, 4, 69, 120
6, 105539, Note_on_c, 4, 69, 0
6, 105540, Note_on_c, 4, 67, 120
6, 105569, Note_on_c, 4, 67, 0
6, 105570, Note_on_c, 4, 65, 120
6, 105599, Note_on_c, 4, 65, 0
6, 105600, Note_on_c, 4, 64, 120
6, 105659, Note_on_c, 4, 64, 0
6, 105660, Note_on_c, 4, 62, 120
6, 105719, Note_on_c, 4, 62, 0
6, 105720, Note_on_c, 4, 64, 120
6, 105779, Note_on_c, 4, 64, 0
6, 105780, Note_on_c, 4, 66, 120
6, 105809, Note_on_c, 4, 66, 0
6, 105810, Note_on_c, 4, 67, 120
6, 105839, Note_on_c, 4, 67, 0
6, 105840, Note_on_c, 4, 66, 120
6, 105899, Note_on_c, 4, 66, 0
6, 105900, Note_on_c, 4, 62, 120
6, 105959, Note_on_c, 4, 62, 0
6, 105960, Note_on_c, 4, 61, 120
6, 106019, Note_on_c, 4, 61, 0
6, 106020, Note_on_c, 4, 64, 120
6, 106079, Note_on_c, 4, 64, 0
6, 106080, Note_on_c, 4, 66, 120
6, 106109, Note_on_c, 4, 66, 0
6, 106110, Note_on_c, 4, 64, 120
6, 106139, Note_on_c, 4, 64, 0
6, 106140, Note_on_c, 4, 66, 120
6, 106169, Note_on_c, 4, 66, 0
6, 106170, Note_on_c, 4, 67, 120
6, 106199, Note_on_c, 4, 67, 0
6, 106200, Note_on_c, 4, 66, 120
6, 106259, Note_on_c, 4, 66, 0
6, 106260, Note_on_c, 4, 69, 120
6, 106319, Note_on_c, 4, 69, 0
6, 106320, Note_on_c, 4, 62, 120
6, 106379, Note_on_c, 4, 62, 0
6, 106380, Note_on_c, 4, 66, 120
6, 106439, Note_on_c, 4, 66, 0
6, 106440, Note_on_c, 4, 67, 120
6, 106499, Note_on_c, 4, 67, 0
6, 106500, Note_on_c, 4, 66, 120
6, 106559, Note_on_c, 4, 66, 0
6, 106560, Note_on_c, 4, 67, 120
6, 106619, Note_on_c, 4, 67, 0
6, 106620, Note_on_c, 4, 59, 120
6, 106679, Note_on_c, 4, 59, 0
6, 106680, Note_on_c, 4, 60, 120
6, 106709, Note_on_c, 4, 60, 0
6, 106710, Note_on_c, 4, 62, 120
6, 106739, Note_on_c, 4, 62, 0
6, 106740, Note_on_c, 4, 60, 120
6, 106769, Note_on_c, 4, 60, 0
6, 106770, Note_on_c, 4, 57, 120
6, 106799, Note_on_c, 4, 57, 0
6, 106800, Note_on_c, 4, 59, 120
6, 106859, Note_on_c, 4, 59, 0
6, 106860, Note_on_c, 4, 57, 120
6, 106919, Note_on_c, 4, 57, 0
6, 106920, Note_on_c, 4, 59, 120
6, 106979, Note_on_c, 4, 59, 0
6, 106980, Note_on_c, 4, 60, 120
6, 107039, Note_on_c, 4, 60, 0
6, 107040, Note_on_c, 4, 62, 120
6, 107099, Note_on_c, 4, 62, 0
6, 107100, Note_on_c, 4, 57, 120
6, 107159, Note_on_c, 4, 57, 0
6, 107160, Note_on_c, 4, 62, 120
6, 107219, Note_on_c, 4, 62, 0
6, 107220, Note_on_c, 4, 67, 120
6, 107279, Note_on_c, 4, 67, 0
6, 107280, Note_on_c, 4, 62, 120
6, 107339, Note_on_c, 4, 62, 0
6, 107340, Note_on_c, 4, 59, 120
6, 107399, Note_on_c, 4, 59, 0
6, 107400, Note_on_c, 4, 55, 120
6, 107459, Note_on_c, 4, 55, 0
6, 107460, Note_on_c, 4, 62, 120
6, 107519, Note_on_c, 4, 62, 0
6, 107520, Note_on_c, 4, 67, 120
6, 107699, Note_on_c, 4, 67, 0
6, 107700, Note_on_c, 4, 59, 120
6, 107759, Note_on_c, 4, 59, 0
6, 107760, Note_on_c, 4, 60, 120
6, 107819, Note_on_c, 4, 60, 0
6, 107820, Note_on_c, 4, 62, 120
6, 107879, Note_on_c, 4, 62, 0
6, 107880, Note_on_c, 4, 64, 120
6, 107939, Note_on_c, 4, 64, 0
6, 107940, Note_on_c, 4, 69, 120
6, 107999, Note_on_c, 4, 69, 0
6, 108000, Note_on_c, 4, 64, 120
6, 108059, Note_on_c, 4, 64, 0
6, 108060, Note_on_c, 4, 60, 120
6, 108119, Note_on_c, 4, 60, 0
6, 108120, Note_on_c, 4, 57, 120
6, 108179, Note_on_c, 4, 57, 0
6, 108180, Note_on_c, 4, 64, 120
6, 108239, Note_on_c, 4, 64, 0
6, 108240, Note_on_c, 4, 69, 120
6, 108419, Note_on_c, 4, 69, 0
6, 108420, Note_on_c, 4, 72, 120
6, 108479, Note_on_c, 4, 72, 0
6, 108480, Note_on_c, 4, 66, 120
6, 108539, Note_on_c, 4, 66, 0
6, 108540, Note_on_c, 4, 62, 120
6, 108599, Note_on_c, 4, 62, 0
6, 108600, Note_on_c, 4, 62, 120
6, 108719, Note_on_c, 4, 62, 0
6, 108720, Note_on_c, 4, 64, 120
6, 108779, Note_on_c, 4, 64, 0
6, 108780, Note_on_c, 4, 60, 120
6, 108839, Note_on_c, 4, 60, 0
6, 108840, Note_on_c, 4, 62, 120
6, 108869, Note_on_c, 4, 62, 0
6, 108870, Note_on_c, 4, 60, 120
6, 108899, Note_on_c, 4, 60, 0
6, 108900, Note_on_c, 4, 59, 120
6, 108929, Note_on_c, 4, 59, 0
6, 108930, Note_on_c, 4, 57, 120
6, 108959, Note_on_c, 4, 57, 0
6, 108960, Note_on_c, 4, 59, 120
6, 109079, Note_on_c, 4, 59, 0
6, 109380, Note_on_c, 4, 67, 120
6, 109409, Note_on_c, 4, 67, 0
6, 109410, Note_on_c, 4, 66, 120
6, 109439, Note_on_c, 4, 66, 0
6, 109440, Note_on_c, 4, 67, 120
6, 109499, Note_on_c, 4, 67, 0
6, 109740, Note_on_c, 4, 67, 120
6, 109769, Note_on_c, 4, 67, 0
6, 109770, Note_on_c, 4, 66, 120
6, 109799, Note_on_c, 4, 66, 0
6, 109800, Note_on_c, 4, 67, 120
6, 109859, Note_on_c, 4, 67, 0
6, 110100, Note_on_c, 4, 67, 120
6, 110129, Note_on_c, 4, 67, 0
6, 110130, Note_on_c, 4, 65, 120
6, 110159, Note_on_c, 4, 65, 0
6, 110160, Note_on_c, 4, 64, 120
6, 110219, Note_on_c, 4, 64, 0
6, 110460, Note_on_c, 4, 62, 120
6, 110489, Note_on_c, 4, 62, 0
6, 110490, Note_on_c, 4, 61, 120
6, 110519, Note_on_c, 4, 61, 0
6, 110520, Note_on_c, 4, 62, 120
6, 110579, Note_on_c, 4, 62, 0
6, 110640, Note_on_c, 4, 67, 120
6, 110669, Note_on_c, 4, 67, 0
6, 110670, Note_on_c, 4, 66, 120
6, 110699, Note_on_c, 4, 66, 0
6, 110700, Note_on_c, 4, 67, 120
6, 110729, Note_on_c, 4, 67, 0
6, 110730, Note_on_c, 4, 69, 120
6, 110759, Note_on_c, 4, 69, 0
6, 110760, Note_on_c, 4, 71, 120
6, 110789, Note_on_c, 4, 71, 0
6, 110790, Note_on_c, 4, 69, 120
6, 110819, Note_on_c, 4, 69, 0
6, 110820, Note_on_c, 4, 71, 120
6, 110849, Note_on_c, 4, 71, 0
6, 110850, Note_on_c, 4, 72, 120
6, 110879, Note_on_c, 4, 72, 0
6, 110880, Note_on_c, 4, 74, 120
6, 110909, Note_on_c, 4, 74, 0
6, 110910, Note_on_c, 4, 72, 120
6, 110939, Note_on_c, 4, 72, 0
6, 110940, Note_on_c, 4, 71, 120
6, 110969, Note_on_c, 4, 71, 0
6, 110970, Note_on_c, 4, 69, 120
6, 110999, Note_on_c, 4, 69, 0
6, 111000, Note_on_c, 4, 67, 120
6, 111029, Note_on_c, 4, 67, 0
6, 111030, Note_on_c, 4, 66, 120
6, 111059, Note_on_c, 4, 66, 0
6, 111060, Note_on_c, 4, 67, 120
6, 111089, Note_on_c, 4, 67, 0
6, 111090, Note_on_c, 4, 69, 120
6, 111119, Note_on_c, 4, 69, 0
6, 111120, Note_on_c, 4, 71, 120
6, 111149, Note_on_c, 4, 71, 0
6, 111150, Note_on_c, 4, 69, 120
6, 111179, Note_on_c, 4, 69, 0
6, 111180, Note_on_c, 4, 71, 120
6, 111209, Note_on_c, 4, 71, 0
6, 111210, Note_on_c, 4, 72, 120
6, 111239, Note_on_c, 4, 72, 0
6, 111240, Note_on_c, 4, 74, 120
6, 111269, Note_on_c, 4, 74, 0
6, 111270, Note_on_c, 4, 72, 120
6, 111299, Note_on_c, 4, 72, 0
6, 111300, Note_on_c, 4, 71, 120
6, 111329, Note_on_c, 4, 71, 0
6, 111330, Note_on_c, 4, 69, 120
6, 111359, Note_on_c, 4, 69, 0
6, 111360, Note_on_c, 4, 67, 120
6, 111389, Note_on_c, 4, 67, 0
6, 111390, Note_on_c, 4, 65, 120
6, 111419, Note_on_c, 4, 65, 0
6, 111420, Note_on_c, 4, 64, 120
6, 111449, Note_on_c, 4, 64, 0
6, 111450, Note_on_c, 4, 62, 120
6, 111479, Note_on_c, 4, 62, 0
6, 111480, Note_on_c, 4, 60, 120
6, 111509, Note_on_c, 4, 60, 0
6, 111510, Note_on_c, 4, 59, 120
6, 111539, Note_on_c, 4, 59, 0
6, 111540, Note_on_c, 4, 60, 120
6, 111569, Note_on_c, 4, 60, 0
6, 111570, Note_on_c, 4, 62, 120
6, 111599, Note_on_c, 4, 62, 0
6, 111600, Note_on_c, 4, 60, 120
6, 111659, Note_on_c, 4, 60, 0
6, 111660, Note_on_c, 4, 59, 120
6, 111719, Note_on_c, 4, 59, 0
6, 111720, Note_on_c, 4, 57, 120
6, 111779, Note_on_c, 4, 57, 0
6, 111780, Note_on_c, 4, 55, 120
6, 111839, Note_on_c, 4, 55, 0
6, 111840, Note_on_c, 4, 54, 120
6, 111899, Note_on_c, 4, 54, 0
6, 111900, Note_on_c, 4, 66, 120
6, 111929, Note_on_c, 4, 66, 0
6, 111930, Note_on_c, 4, 64, 120
6, 111959, Note_on_c, 4, 64, 0
6, 111960, Note_on_c, 4, 66, 120
6, 112019, Note_on_c, 4, 66, 0
6, 112020, Note_on_c, 4, 62, 120
6, 112049, Note_on_c, 4, 62, 0
6, 112050, Note_on_c, 4, 61, 120
6, 112079, Note_on_c, 4, 61, 0
6, 112080, Note_on_c, 4, 62, 120
6, 112139, Note_on_c, 4, 62, 0
6, 112380, Note_on_c, 4, 62, 120
6, 112409, Note_on_c, 4, 62, 0
6, 112410, Note_on_c, 4, 60, 120
6, 112439, Note_on_c, 4, 60, 0
6, 112440, Note_on_c, 4, 62, 120
6, 112499, Note_on_c, 4, 62, 0
6, 112740, Note_on_c, 4, 55, 120
6, 112769, Note_on_c, 4, 55, 0
6, 112770, Note_on_c, 4, 53, 120
6, 112799, Note_on_c, 4, 53, 0
6, 112800, Note_on_c, 4, 55, 120
6, 112859, Note_on_c, 4, 55, 0
6, 113100, Note_on_c, 4, 64, 120
6, 113129, Note_on_c, 4, 64, 0
6, 113130, Note_on_c, 4, 63, 120
6, 113159, Note_on_c, 4, 63, 0
6, 113160, Note_on_c, 4, 64, 120
6, 113219, Note_on_c, 4, 64, 0
6, 113460, Note_on_c, 4, 57, 120
6, 113489, Note_on_c, 4, 57, 0
6, 113490, Note_on_c, 4, 55, 120
6, 113519, Note_on_c, 4, 55, 0
6, 113520, Note_on_c, 4, 57, 120
6, 113579, Note_on_c, 4, 57, 0
6, 113700, Note_on_c, 4, 67, 120
6, 113729, Note_on_c, 4, 67, 0
6, 113730, Note_on_c, 4, 66, 120
6, 113759, Note_on_c, 4, 66, 0
6, 113760, Note_on_c, 4, 67, 120
6, 113819, Note_on_c, 4, 67, 0
6, 113820, Note_on_c, 4, 59, 120
6, 113879, Note_on_c, 4, 59, 0
6, 113880, Note_on_c, 4, 57, 120
6, 113939, Note_on_c, 4, 57, 0
6, 113940, Note_on_c, 4, 62, 120
6, 113999, Note_on_c, 4, 62, 0
6, 114000, Note_on_c, 4, 59, 120
6, 114029, Note_on_c, 4, 59, 0
6, 114030, Note_on_c, 4, 60, 120
6, 114059, Note_on_c, 4, 60, 0
6, 114060, Note_on_c, 4, 59, 120
6, 114089, Note_on_c, 4, 59, 0
6, 114090, Note_on_c, 4, 57, 120
6, 114119, Note_on_c, 4, 57, 0
6, 114120, Note_on_c, 4, 59, 120
6, 114149, Note_on_c, 4, 59, 0
6, 114150, Note_on_c, 4, 50, 120
6, 114179, Note_on_c, 4, 50, 0
6, 114180, Note_on_c, 4, 52, 120
6, 114209, Note_on_c, 4, 52, 0
6, 114210, Note_on_c, 4, 54, 120
6, 114239, Note_on_c, 4, 54, 0
6, 114240, Note_on_c, 4, 55, 120
6, 114269, Note_on_c, 4, 55, 0
6, 114270, Note_on_c, 4, 54, 120
6, 114299, Note_on_c, 4, 54, 0
6, 114300, Note_on_c, 4, 55, 120
6, 114329, Note_on_c, 4, 55, 0
6, 114330, Note_on_c, 4, 57, 120
6, 114359, Note_on_c, 4, 57, 0
6, 114360, Note_on_c, 4, 59, 120
6, 114389, Note_on_c, 4, 59, 0
6, 114390, Note_on_c, 4, 57, 120
6, 114419, Note_on_c, 4, 57, 0
6, 114420, Note_on_c, 4, 59, 120
6, 114449, Note_on_c, 4, 59, 0
6, 114450, Note_on_c, 4, 60, 120
6, 114479, Note_on_c, 4, 60, 0
6, 114480, Note_on_c, 4, 62, 120
6, 114509, Note_on_c, 4, 62, 0
6, 114510, Note_on_c, 4, 64, 120
6, 114539, Note_on_c, 4, 64, 0
6, 114540, Note_on_c, 4, 62, 120
6, 114569, Note_on_c, 4, 62, 0
6, 114570, Note_on_c, 4, 60, 120
6, 114599, Note_on_c, 4, 60, 0
6, 114600, Note_on_c, 4, 59, 120
6, 114629, Note_on_c, 4, 59, 0
6, 114630, Note_on_c, 4, 60, 120
6, 114659, Note_on_c, 4, 60, 0
6, 114660, Note_on_c, 4, 62, 120
6, 114689, Note_on_c, 4, 62, 0
6, 114690, Note_on_c, 4, 59, 120
6, 114719, Note_on_c, 4, 59, 0
6, 114720, Note_on_c, 4, 64, 120
6, 114749, Note_on_c, 4, 64, 0
6, 114750, Note_on_c, 4, 65, 120
6, 114779, Note_on_c, 4, 65, 0
6, 114780, Note_on_c, 4, 67, 120
6, 114809, Note_on_c, 4, 67, 0
6, 114810, Note_on_c, 4, 65, 120
6, 114839, Note_on_c, 4, 65, 0
6, 114840, Note_on_c, 4, 67, 120
6, 114869, Note_on_c, 4, 67, 0
6, 114870, Note_on_c, 4, 69, 120
6, 114899, Note_on_c, 4, 69, 0
6, 114900, Note_on_c, 4, 67, 120
6, 114929, Note_on_c, 4, 67, 0
6, 114930, Note_on_c, 4, 65, 120
6, 114959, Note_on_c, 4, 65, 0
6, 114960, Note_on_c, 4, 64, 120
6, 114989, Note_on_c, 4, 64, 0
6, 114990, Note_on_c, 4, 62, 120
6, 115019, Note_on_c, 4, 62, 0
6, 115020, Note_on_c, 4, 60, 120
6, 115049, Note_on_c, 4, 60, 0
6, 115050, Note_on_c, 4, 59, 120
6, 115079, Note_on_c, 4, 59, 0
6, 115080, Note_on_c, 4, 60, 120
6, 115109, Note_on_c, 4, 60, 0
6, 115110, Note_on_c, 4, 62, 120
6, 115139, Note_on_c, 4, 62, 0
6, 115140, Note_on_c, 4, 60, 120
6, 115169, Note_on_c, 4, 60, 0
6, 115170, Note_on_c, 4, 59, 120
6, 115199, Note_on_c, 4, 59, 0
6, 115200, Note_on_c, 4, 57, 120
6, 115229, Note_on_c, 4, 57, 0
6, 115230, Note_on_c, 4, 59, 120
6, 115259, Note_on_c, 4, 59, 0
6, 115260, Note_on_c, 4, 57, 120
6, 115289, Note_on_c, 4, 57, 0
6, 115290, Note_on_c, 4, 55, 120
6, 115319, Note_on_c, 4, 55, 0
6, 115320, Note_on_c, 4, 54, 120
6, 115349, Note_on_c, 4, 54, 0
6, 115350, Note_on_c, 4, 55, 120
6, 115379, Note_on_c, 4, 55, 0
6, 115380, Note_on_c, 4, 54, 120
6, 115409, Note_on_c, 4, 54, 0
6, 115410, Note_on_c, 4, 52, 120
6, 115439, Note_on_c, 4, 52, 0
6, 115440, Note_on_c, 4, 50, 120
6, 115469, Note_on_c, 4, 50, 0
6, 115470, Note_on_c, 4, 52, 120
6, 115499, Note_on_c, 4, 52, 0
6, 115500, Note_on_c, 4, 54, 120
6, 115529, Note_on_c, 4, 54, 0
6, 115530, Note_on_c, 4, 55, 120
6, 115559, Note_on_c, 4, 55, 0
6, 115560, Note_on_c, 4, 57, 120
6, 115589, Note_on_c, 4, 57, 0
6, 115590, Note_on_c, 4, 59, 120
6, 115619, Note_on_c, 4, 59, 0
6, 115620, Note_on_c, 4, 57, 120
6, 115649, Note_on_c, 4, 57, 0
6, 115650, Note_on_c, 4, 55, 120
6, 115679, Note_on_c, 4, 55, 0
6, 115680, Note_on_c, 4, 57, 120
6, 115709, Note_on_c, 4, 57, 0
6, 115710, Note_on_c, 4, 54, 120
6, 115739, Note_on_c, 4, 54, 0
6, 115740, Note_on_c, 4, 55, 120
6, 115769, Note_on_c, 4, 55, 0
6, 115770, Note_on_c, 4, 57, 120
6, 115799, Note_on_c, 4, 57, 0
6, 115800, Note_on_c, 4, 59, 120
6, 115829, Note_on_c, 4, 59, 0
6, 115830, Note_on_c, 4, 60, 120
6, 115859, Note_on_c, 4, 60, 0
6, 115860, Note_on_c, 4, 62, 120
6, 115889, Note_on_c, 4, 62, 0
6, 115890, Note_on_c, 4, 60, 120
6, 115919, Note_on_c, 4, 60, 0
6, 115920, Note_on_c, 4, 59, 120
6, 115979, Note_on_c, 4, 59, 0
6, 115980, Note_on_c, 4, 62, 120
6, 116039, Note_on_c, 4, 62, 0
6, 116040, Note_on_c, 4, 60, 120
6, 116099, Note_on_c, 4, 60, 0
6, 116100, Note_on_c, 4, 57, 120
6, 116159, Note_on_c, 4, 57, 0
6, 116160, Note_on_c, 4, 59, 120
6, 116279, Note_on_c, 4, 59, 0
6, 116280, Note_on_c, 4, 55, 120
6, 116399, Note_on_c, 4, 55, 0
6, 121920, Note_on_c, 4, 58, 120
6, 121979, Note_on_c, 4, 58, 0
6, 121980, Note_on_c, 4, 58, 120
6, 122009, Note_on_c, 4, 58, 0
6, 122010, Note_on_c, 4, 58, 120
6, 122039, Note_on_c, 4, 58, 0
6, 122040, Note_on_c, 4, 58, 120
6, 122159, Note_on_c, 4, 58, 0
6, 122280, Note_on_c, 4, 58, 120
6, 122339, Note_on_c, 4, 58, 0
6, 122340, Note_on_c, 4, 58, 120
6, 122369, Note_on_c, 4, 58, 0
6, 122370, Note_on_c, 4, 58, 120
6, 122399, Note_on_c, 4, 58, 0
6, 122400, Note_on_c, 4, 58, 120
6, 122519, Note_on_c, 4, 58, 0
6, 122520, Note_on_c, 4, 58, 120
6, 122579, Note_on_c, 4, 58, 0
6, 122640, Note_on_c, 4, 58, 120
6, 122699, Note_on_c, 4, 58, 0
6, 122760, Note_on_c, 4, 60, 120
6, 122819, Note_on_c, 4, 60, 0
6, 122880, Note_on_c, 4, 65, 120
6, 122939, Note_on_c, 4, 65, 0
6, 123000, Note_on_c, 4, 65, 120
6, 123059, Note_on_c, 4, 65, 0
6, 123060, Note_on_c, 4, 65, 120
6, 123089, Note_on_c, 4, 65, 0
6, 123090, Note_on_c, 4, 65, 120
6, 123119, Note_on_c, 4, 65, 0
6, 123120, Note_on_c, 4, 65, 120
6, 123179, Note_on_c, 4, 65, 0
6, 123180, Note_on_c, 4, 63, 120
6, 123239, Note_on_c, 4, 63, 0
6, 123240, Note_on_c, 4, 62, 120
6, 123329, Note_on_c, 4, 62, 0
6, 123330, Note_on_c, 4, 63, 120
6, 123359, Note_on_c, 4, 63, 0
6, 123360, Note_on_c, 4, 65, 120
6, 123479, Note_on_c, 4, 65, 0
6, 123480, Note_on_c, 4, 70, 120
6, 123599, Note_on_c, 4, 70, 0
6, 123600, Note_on_c, 4, 62, 120
6, 123689, Note_on_c, 4, 62, 0
6, 123690, Note_on_c, 4, 63, 120
6, 123719, Note_on_c, 4, 63, 0
6, 123720, Note_on_c, 4, 65, 120
6, 123959, Note_on_c, 4, 65, 0
6, 123960, Note_on_c, 4, 67, 120
6, 124049, Note_on_c, 4, 67, 0
6, 124050, Note_on_c, 4, 70, 120
6, 124079, Note_on_c, 4, 70, 0
6, 124080, Note_on_c, 4, 65, 120
6, 124169, Note_on_c, 4, 65, 0
6, 124170, Note_on_c, 4, 70, 120
6, 124199, Note_on_c, 4, 70, 0
6, 124200, Note_on_c, 4, 63, 120
6, 124289, Note_on_c, 4, 63, 0
6, 124290, Note_on_c, 4, 70, 120
6, 124319, Note_on_c, 4, 70, 0
6, 124320, Note_on_c, 4, 62, 120
6, 124409, Note_on_c, 4, 62, 0
6, 124410, Note_on_c, 4, 70, 120
6, 124439, Note_on_c, 4, 70, 0
6, 124440, Note_on_c, 4, 60, 120
6, 124679, Note_on_c, 4, 60, 0
6, 124800, Note_on_c, 4, 65, 120
6, 124859, Note_on_c, 4, 65, 0
6, 124860, Note_on_c, 4, 65, 120
6, 124889, Note_on_c, 4, 65, 0
6, 124890, Note_on_c, 4, 65, 120
6, 124919, Note_on_c, 4, 65, 0
6, 124920, Note_on_c, 4, 65, 120
6, 125039, Note_on_c, 4, 65, 0
6, 125160, Note_on_c, 4, 65, 120
6, 125219, Note_on_c, 4, 65, 0
6, 125220, Note_on_c, 4, 65, 120
6, 125249, Note_on_c, 4, 65, 0
6, 125250, Note_on_c, 4, 65, 120
6, 125279, Note_on_c, 4, 65, 0
6, 125280, Note_on_c, 4, 65, 120
6, 125399, Note_on_c, 4, 65, 0
6, 125520, Note_on_c, 4, 65, 120
6, 125579, Note_on_c, 4, 65, 0
6, 125580, Note_on_c, 4, 65, 120
6, 125609, Note_on_c, 4, 65, 0
6, 125610, Note_on_c, 4, 65, 120
6, 125639, Note_on_c, 4, 65, 0
6, 125640, Note_on_c, 4, 65, 120
6, 125759, Note_on_c, 4, 65, 0
6, 125880, Note_on_c, 4, 65, 120
6, 125939, Note_on_c, 4, 65, 0
6, 125940, Note_on_c, 4, 65, 120
6, 125969, Note_on_c, 4, 65, 0
6, 125970, Note_on_c, 4, 65, 120
6, 125999, Note_on_c, 4, 65, 0
6, 126000, Note_on_c, 4, 65, 120
6, 126119, Note_on_c, 4, 65, 0
6, 126240, Note_on_c, 4, 60, 120
6, 126299, Note_on_c, 4, 60, 0
6, 126360, Note_on_c, 4, 60, 120
6, 126419, Note_on_c, 4, 60, 0
6, 126600, Note_on_c, 4, 60, 120
6, 126659, Note_on_c, 4, 60, 0
6, 126720, Note_on_c, 4, 57, 120
6, 126779, Note_on_c, 4, 57, 0
6, 126900, Note_on_c, 4, 65, 120
6, 126929, Note_on_c, 4, 65, 0
6, 126930, Note_on_c, 4, 65, 120
6, 126959, Note_on_c, 4, 65, 0
6, 126960, Note_on_c, 4, 65, 120
6, 127019, Note_on_c, 4, 65, 0
6, 127020, Note_on_c, 4, 65, 120
6, 127049, Note_on_c, 4, 65, 0
6, 127050, Note_on_c, 4, 65, 120
6, 127079, Note_on_c, 4, 65, 0
6, 127080, Note_on_c, 4, 65, 120
6, 127199, Note_on_c, 4, 65, 0
6, 127260, Note_on_c, 4, 65, 120
6, 127289, Note_on_c, 4, 65, 0
6, 127290, Note_on_c, 4, 65, 120
6, 127319, Note_on_c, 4, 65, 0
6, 127320, Note_on_c, 4, 65, 120
6, 127379, Note_on_c, 4, 65, 0
6, 127380, Note_on_c, 4, 65, 120
6, 127409, Note_on_c, 4, 65, 0
6, 127410, Note_on_c, 4, 65, 120
6, 127439, Note_on_c, 4, 65, 0
6, 127440, Note_on_c, 4, 65, 120
6, 127499, Note_on_c, 4, 65, 0
6, 127500, Note_on_c, 4, 67, 120
6, 127529, Note_on_c, 4, 67, 0
6, 127530, Note_on_c, 4, 69, 120
6, 127559, Note_on_c, 4, 69, 0
6, 127560, Note_on_c, 4, 70, 120
6, 127619, Note_on_c, 4, 70, 0
6, 127620, Note_on_c, 4, 69, 120
6, 127649, Note_on_c, 4, 69, 0
6, 127650, Note_on_c, 4, 67, 120
6, 127679, Note_on_c, 4, 67, 0
6, 127680, Note_on_c, 4, 65, 120
6, 127709, Note_on_c, 4, 65, 0
6, 127710, Note_on_c, 4, 63, 120
6, 127739, Note_on_c, 4, 63, 0
6, 127740, Note_on_c, 4, 62, 120
6, 127769, Note_on_c, 4, 62, 0
6, 127770, Note_on_c, 4, 60, 120
6, 127799, Note_on_c, 4, 60, 0
6, 127800, Note_on_c, 4, 58, 120
6, 127919, Note_on_c, 4, 58, 0
6, 127920, Note_on_c, 4, 65, 120
6, 128009, Note_on_c, 4, 65, 0
6, 128010, Note_on_c, 4, 67, 120
6, 128039, Note_on_c, 4, 67, 0
6, 128040, Note_on_c, 4, 69, 120
6, 128129, Note_on_c, 4, 69, 0
6, 128130, Note_on_c, 4, 70, 120
6, 128159, Note_on_c, 4, 70, 0
6, 128160, Note_on_c, 4, 72, 120
6, 128219, Note_on_c, 4, 72, 0
6, 128220, Note_on_c, 4, 69, 120
6, 128279, Note_on_c, 4, 69, 0
6, 128280, Note_on_c, 4, 70, 120
6, 128369, Note_on_c, 4, 70, 0
6, 128370, Note_on_c, 4, 72, 120
6, 128399, Note_on_c, 4, 72, 0
6, 128400, Note_on_c, 4, 69, 120
6, 128519, Note_on_c, 4, 69, 0
6, 128640, Note_on_c, 4, 65, 120
6, 128729, Note_on_c, 4, 65, 0
6, 128730, Note_on_c, 4, 67, 120
6, 128759, Note_on_c, 4, 67, 0
6, 128760, Note_on_c, 4, 69, 120
6, 128849, Note_on_c, 4, 69, 0
6, 128850, Note_on_c, 4, 70, 120
6, 128879, Note_on_c, 4, 70, 0
6, 128880, Note_on_c, 4, 72, 120
6, 128939, Note_on_c, 4, 72, 0
6, 128940, Note_on_c, 4, 69, 120
6, 128999, Note_on_c, 4, 69, 0
6, 129000, Note_on_c, 4, 70, 120
6, 129089, Note_on_c, 4, 70, 0
6, 129090, Note_on_c, 4, 72, 120
6, 129119, Note_on_c, 4, 72, 0
6, 129120, Note_on_c, 4, 69, 120
6, 129239, Note_on_c, 4, 69, 0
6, 129360, Note_on_c, 4, 62, 120
6, 129419, Note_on_c, 4, 62, 0
6, 129420, Note_on_c, 4, 58, 120
6, 129479, Note_on_c, 4, 58, 0
6, 129480, Note_on_c, 4, 63, 120
6, 129539, Note_on_c, 4, 63, 0
6, 129540, Note_on_c, 4, 62, 120
6, 129599, Note_on_c, 4, 62, 0
6, 129600, Note_on_c, 4, 63, 120
6, 129659, Note_on_c, 4, 63, 0
6, 129660, Note_on_c, 4, 70, 120
6, 129719, Note_on_c, 4, 70, 0
6, 129720, Note_on_c, 4, 70, 120
6, 129840, Note_on_c, 4, 70, 0
6, 129840, Note_on_c, 4, 72, 120
6, 130079, Note_on_c, 4, 72, 0
6, 130080, Note_on_c, 4, 70, 120
6, 130139, Note_on_c, 4, 70, 0
6, 130140, Note_on_c, 4, 74, 120
6, 130199, Note_on_c, 4, 74, 0
6, 130200, Note_on_c, 4, 72, 120
6, 130259, Note_on_c, 4, 72, 0
6, 130260, Note_on_c, 4, 70, 120
6, 130319, Note_on_c, 4, 70, 0
6, 130320, Note_on_c, 4, 69, 120
6, 130379, Note_on_c, 4, 69, 0
6, 130380, Note_on_c, 4, 65, 120
6, 130439, Note_on_c, 4, 65, 0
6, 130440, Note_on_c, 4, 70, 120
6, 130499, Note_on_c, 4, 70, 0
6, 130500, Note_on_c, 4, 74, 120
6, 130559, Note_on_c, 4, 74, 0
6, 130560, Note_on_c, 4, 72, 120
6, 130619, Note_on_c, 4, 72, 0
6, 130620, Note_on_c, 4, 70, 120
6, 130679, Note_on_c, 4, 70, 0
6, 130680, Note_on_c, 4, 69, 120
6, 130739, Note_on_c, 4, 69, 0
6, 130740, Note_on_c, 4, 65, 120
6, 130799, Note_on_c, 4, 65, 0
6, 130800, Note_on_c, 4, 70, 120
6, 130919, Note_on_c, 4, 70, 0
6, 130920, Note_on_c, 4, 58, 120
6, 131159, Note_on_c, 4, 58, 0
6, 134760, Note_on_c, 4, 57, 120
6, 134819, Note_on_c, 4, 57, 0
6, 134820, Note_on_c, 4, 57, 120
6, 134879, Note_on_c, 4, 57, 0
6, 134880, Note_on_c, 4, 64, 120
6, 134939, Note_on_c, 4, 64, 0
6, 134940, Note_on_c, 4, 64, 120
6, 135059, Note_on_c, 4, 64, 0
6, 135060, Note_on_c, 4, 64, 120
6, 135119, Note_on_c, 4, 64, 0
6, 135120, Note_on_c, 4, 64, 120
6, 135239, Note_on_c, 4, 64, 0
6, 135240, Note_on_c, 4, 64, 120
6, 135299, Note_on_c, 4, 64, 0
6, 135300, Note_on_c, 4, 66, 120
6, 135359, Note_on_c, 4, 66, 0
6, 135360, Note_on_c, 4, 64, 120
6, 135419, Note_on_c, 4, 64, 0
6, 135420, Note_on_c, 4, 64, 120
6, 135479, Note_on_c, 4, 64, 0
6, 135480, Note_on_c, 4, 69, 120
6, 135539, Note_on_c, 4, 69, 0
6, 135540, Note_on_c, 4, 69, 120
6, 135599, Note_on_c, 4, 69, 0
6, 135600, Note_on_c, 4, 68, 120
6, 135659, Note_on_c, 4, 68, 0
6, 135660, Note_on_c, 4, 69, 120
6, 135779, Note_on_c, 4, 69, 0
6, 135780, Note_on_c, 4, 66, 120
6, 135839, Note_on_c, 4, 66, 0
6, 135840, Note_on_c, 4, 68, 120
6, 135899, Note_on_c, 4, 68, 0
6, 135900, Note_on_c, 4, 64, 120
6, 135959, Note_on_c, 4, 64, 0
6, 135960, Note_on_c, 4, 64, 120
6, 136019, Note_on_c, 4, 64, 0
6, 136020, Note_on_c, 4, 64, 120
6, 136199, Note_on_c, 4, 64, 0
6, 136230, Program_c, 4, 45
6, 136260, Note_on_c, 4, 64, 120
6, 136319, Note_on_c, 4, 64, 0
6, 136320, Note_on_c, 4, 62, 120
6, 136379, Note_on_c, 4, 62, 0
6, 136380, Note_on_c, 4, 64, 120
6, 136499, Note_on_c, 4, 64, 0
6, 136500, Note_on_c, 4, 64, 120
6, 136559, Note_on_c, 4, 64, 0
6, 136620, Note_on_c, 4, 64, 120
6, 136679, Note_on_c, 4, 64, 0
6, 136680, Note_on_c, 4, 64, 120
6, 136739, Note_on_c, 4, 64, 0
6, 136740, Note_on_c, 4, 66, 120
6, 136799, Note_on_c, 4, 66, 0
6, 136800, Note_on_c, 4, 64, 120
6, 136859, Note_on_c, 4, 64, 0
6, 136860, Note_on_c, 4, 64, 120
6, 136919, Note_on_c, 4, 64, 0
6, 136980, Note_on_c, 4, 61, 120
6, 137039, Note_on_c, 4, 61, 0
6, 137040, Note_on_c, 4, 59, 120
6, 137099, Note_on_c, 4, 59, 0
6, 137160, Note_on_c, 4, 62, 120
6, 137219, Note_on_c, 4, 62, 0
6, 137220, Note_on_c, 4, 64, 120
6, 137279, Note_on_c, 4, 64, 0
6, 137340, Note_on_c, 4, 64, 120
6, 137399, Note_on_c, 4, 64, 0
6, 137400, Note_on_c, 4, 64, 120
6, 137459, Note_on_c, 4, 64, 0
6, 137460, Note_on_c, 4, 64, 120
6, 137625, Program_c, 4, 48
6, 137639, Note_on_c, 4, 64, 0
6, 137640, Note_on_c, 4, 64, 120
6, 137699, Note_on_c, 4, 64, 0
6, 137700, Note_on_c, 4, 68, 120
6, 137759, Note_on_c, 4, 68, 0
6, 137760, Note_on_c, 4, 69, 120
6, 137819, Note_on_c, 4, 69, 0
6, 137820, Note_on_c, 4, 69, 120
6, 137879, Note_on_c, 4, 69, 0
6, 137880, Note_on_c, 4, 66, 120
6, 137939, Note_on_c, 4, 66, 0
6, 137940, Note_on_c, 4, 66, 120
6, 137999, Note_on_c, 4, 66, 0
6, 138000, Note_on_c, 4, 66, 120
6, 138059, Note_on_c, 4, 66, 0
6, 138060, Note_on_c, 4, 64, 120
6, 138119, Note_on_c, 4, 64, 0
6, 138120, Note_on_c, 4, 66, 120
6, 138179, Note_on_c, 4, 66, 0
6, 138180, Note_on_c, 4, 64, 120
6, 138239, Note_on_c, 4, 64, 0
6, 138240, Note_on_c, 4, 57, 120
6, 138299, Note_on_c, 4, 57, 0
6, 138300, Note_on_c, 4, 64, 120
6, 138359, Note_on_c, 4, 64, 0
6, 138360, Note_on_c, 4, 69, 120
6, 138419, Note_on_c, 4, 69, 0
6, 138420, Note_on_c, 4, 68, 120
6, 138479, Note_on_c, 4, 68, 0
6, 138480, Note_on_c, 4, 69, 120
6, 138539, Note_on_c, 4, 69, 0
6, 138540, Note_on_c, 4, 71, 120
6, 138599, Note_on_c, 4, 71, 0
6, 138600, Note_on_c, 4, 69, 120
6, 138659, Note_on_c, 4, 69, 0
6, 138660, Note_on_c, 4, 62, 120
6, 138719, Note_on_c, 4, 62, 0
6, 138720, Note_on_c, 4, 64, 120
6, 138779, Note_on_c, 4, 64, 0
6, 138780, Note_on_c, 4, 66, 120
6, 138839, Note_on_c, 4, 66, 0
6, 138840, Note_on_c, 4, 64, 120
6, 138899, Note_on_c, 4, 64, 0
6, 138900, Note_on_c, 4, 61, 120
6, 139079, Note_on_c, 4, 61, 0
6, 139110, Program_c, 4, 45
6, 139140, Note_on_c, 4, 62, 120
6, 139199, Note_on_c, 4, 62, 0
6, 139200, Note_on_c, 4, 64, 120
6, 139259, Note_on_c, 4, 64, 0
6, 139260, Note_on_c, 4, 62, 120
6, 139319, Note_on_c, 4, 62, 0
6, 139500, Note_on_c, 4, 64, 120
6, 139559, Note_on_c, 4, 64, 0
6, 139560, Note_on_c, 4, 66, 120
6, 139619, Note_on_c, 4, 66, 0
6, 139620, Note_on_c, 4, 64, 120
6, 139679, Note_on_c, 4, 64, 0
6, 139860, Note_on_c, 4, 59, 120
6, 139919, Note_on_c, 4, 59, 0
6, 139920, Note_on_c, 4, 61, 120
6, 139979, Note_on_c, 4, 61, 0
6, 140040, Note_on_c, 4, 64, 120
6, 140099, Note_on_c, 4, 64, 0
6, 140100, Note_on_c, 4, 62, 120
6, 140159, Note_on_c, 4, 62, 0
6, 140220, Note_on_c, 4, 57, 120
6, 140279, Note_on_c, 4, 57, 0
6, 140280, Note_on_c, 4, 64, 120
6, 140339, Note_on_c, 4, 64, 0
6, 140340, Note_on_c, 4, 61, 120
6, 140505, Program_c, 4, 48
6, 140519, Note_on_c, 4, 61, 0
6, 140520, Note_on_c, 4, 64, 120
6, 141900, Note_on_c, 4, 64, 0
6, 143400, Note_on_c, 4, 57, 120
6, 144540, Note_on_c, 4, 57, 0
6, 144540, Note_on_c, 4, 59, 120
6, 144599, Note_on_c, 4, 59, 0
6, 144600, Note_on_c, 4, 56, 120
6, 144659, Note_on_c, 4, 56, 0
6, 144660, Note_on_c, 4, 57, 120
6, 144779, Note_on_c, 4, 57, 0
6, 146280, Note_on_c, 4, 61, 120
6, 146310, Note_on_c, 4, 61, 0
6, 146400, Note_on_c, 4, 64, 120
6, 146430, Note_on_c, 4, 64, 0
6, 146460, Note_on_c, 4, 64, 120
6, 146490, Note_on_c, 4, 64, 0
6, 146580, Note_on_c, 4, 68, 120
6, 146610, Note_on_c, 4, 68, 0
6, 146640, Note_on_c, 4, 68, 120
6, 146670, Note_on_c, 4, 68, 0
6, 146760, Note_on_c, 4, 69, 120
6, 146790, Note_on_c, 4, 69, 0
6, 146820, Note_on_c, 4, 68, 120
6, 146850, Note_on_c, 4, 68, 0
6, 146940, Note_on_c, 4, 64, 120
6, 146970, Note_on_c, 4, 64, 0
6, 147000, Note_on_c, 4, 73, 120
6, 147030, Note_on_c, 4, 73, 0
6, 147120, Note_on_c, 4, 73, 120
6, 147150, Note_on_c, 4, 73, 0
6, 147180, Note_on_c, 4, 69, 120
6, 147210, Note_on_c, 4, 69, 0
6, 147300, Note_on_c, 4, 66, 120
6, 147330, Note_on_c, 4, 66, 0
6, 147360, Note_on_c, 4, 71, 120
6, 147390, Note_on_c, 4, 71, 0
6, 147480, Note_on_c, 4, 69, 120
6, 147510, Note_on_c, 4, 69, 0
6, 147540, Note_on_c, 4, 68, 120
6, 147659, Note_on_c, 4, 68, 0
6, 147720, Note_on_c, 4, 57, 120
6, 147779, Note_on_c, 4, 57, 0
6, 147780, Note_on_c, 4, 61, 120
6, 147839, Note_on_c, 4, 61, 0
6, 147840, Note_on_c, 4, 64, 120
6, 147899, Note_on_c, 4, 64, 0
6, 147900, Note_on_c, 4, 64, 120
6, 147959, Note_on_c, 4, 64, 0
6, 147960, Note_on_c, 4, 52, 120
6, 148019, Note_on_c, 4, 52, 0
6, 148020, Note_on_c, 4, 64, 120
6, 148139, Note_on_c, 4, 64, 0
6, 148140, Note_on_c, 4, 62, 120
6, 148199, Note_on_c, 4, 62, 0
6, 148200, Note_on_c, 4, 61, 120
6, 148259, Note_on_c, 4, 61, 0
6, 148260, Note_on_c, 4, 59, 120
6, 148319, Note_on_c, 4, 59, 0
6, 148320, Note_on_c, 4, 52, 120
6, 148379, Note_on_c, 4, 52, 0
6, 148380, Note_on_c, 4, 64, 120
6, 148439, Note_on_c, 4, 64, 0
6, 148440, Note_on_c, 4, 68, 120
6, 148469, Note_on_c, 4, 68, 0
6, 148470, Note_on_c, 4, 66, 120
6, 148499, Note_on_c, 4, 66, 0
6, 148500, Note_on_c, 4, 64, 120
6, 148529, Note_on_c, 4, 64, 0
6, 148530, Note_on_c, 4, 62, 120
6, 148559, Note_on_c, 4, 62, 0
6, 148560, Note_on_c, 4, 61, 120
6, 148589, Note_on_c, 4, 61, 0
6, 148590, Note_on_c, 4, 59, 120
6, 148619, Note_on_c, 4, 59, 0
6, 148620, Note_on_c, 4, 57, 120
6, 148679, Note_on_c, 4, 57, 0
6, 148680, Note_on_c, 4, 57, 120
6, 148739, Note_on_c, 4, 57, 0
6, 148740, Note_on_c, 4, 62, 120
6, 148769, Note_on_c, 4, 62, 0
6, 148770, Note_on_c, 4, 61, 120
6, 148799, Note_on_c, 4, 61, 0
6, 148800, Note_on_c, 4, 59, 120
6, 148829, Note_on_c, 4, 59, 0
6, 148830, Note_on_c, 4, 57, 120
6, 148859, Note_on_c, 4, 57, 0
6, 148860, Note_on_c, 4, 56, 120
6, 148889, Note_on_c, 4, 56, 0
6, 148890, Note_on_c, 4, 54, 120
6, 148919, Note_on_c, 4, 54, 0
6, 148920, Note_on_c, 4, 52, 120
6, 148949, Note_on_c, 4, 52, 0
6, 148950, Note_on_c, 4, 51, 120
6, 148979, Note_on_c, 4, 51, 0
6, 148980, Note_on_c, 4, 52, 120
6, 149099, Note_on_c, 4, 52, 0
6, 149160, Note_on_c, 4, 71, 120
6, 149190, Note_on_c, 4, 71, 0
6, 149280, Note_on_c, 4, 66, 120
6, 149310, Note_on_c, 4, 66, 0
6, 149340, Note_on_c, 4, 66, 120
6, 149370, Note_on_c, 4, 66, 0
6, 149460, Note_on_c, 4, 70, 120
6, 149490, Note_on_c, 4, 70, 0
6, 149520, Note_on_c, 4, 71, 120
6, 149550, Note_on_c, 4, 71, 0
6, 149640, Note_on_c, 4, 64, 120
6, 149670, Note_on_c, 4, 64, 0
6, 149700, Note_on_c, 4, 64, 120
6, 149730, Note_on_c, 4, 64, 0
6, 149820, Note_on_c, 4, 68, 120
6, 149850, Note_on_c, 4, 68, 0
6, 149880, Note_on_c, 4, 69, 120
6, 149910, Note_on_c, 4, 69, 0
6, 150000, Note_on_c, 4, 61, 120
6, 150030, Note_on_c, 4, 61, 0
6, 150060, Note_on_c, 4, 59, 120
6, 150090, Note_on_c, 4, 59, 0
6, 150180, Note_on_c, 4, 66, 120
6, 150210, Note_on_c, 4, 66, 0
6, 150240, Note_on_c, 4, 69, 120
6, 150270, Note_on_c, 4, 69, 0
6, 150360, Note_on_c, 4, 64, 120
6, 150390, Note_on_c, 4, 64, 0
6, 150420, Note_on_c, 4, 61, 120
6, 150539, Note_on_c, 4, 61, 0
6, 150600, Note_on_c, 4, 61, 120
6, 150659, Note_on_c, 4, 61, 0
6, 150660, Note_on_c, 4, 66, 120
6, 150719, Note_on_c, 4, 66, 0
6, 150720, Note_on_c, 4, 54, 120
6, 150779, Note_on_c, 4, 54, 0
6, 150780, Note_on_c, 4, 59, 120
6, 150839, Note_on_c, 4, 59, 0
6, 150840, Note_on_c, 4, 62, 120
6, 150899, Note_on_c, 4, 62, 0
6, 150900, Note_on_c, 4, 64, 120
6, 150959, Note_on_c, 4, 64, 0
6, 150960, Note_on_c, 4, 66, 120
6, 151019, Note_on_c, 4, 66, 0
6, 151020, Note_on_c, 4, 62, 120
6, 151079, Note_on_c, 4, 62, 0
6, 151080, Note_on_c, 4, 64, 120
6, 151139, Note_on_c, 4, 64, 0
6, 151140, Note_on_c, 4, 57, 120
6, 151199, Note_on_c, 4, 57, 0
6, 151200, Note_on_c, 4, 61, 120
6, 151259, Note_on_c, 4, 61, 0
6, 151260, Note_on_c, 4, 62, 120
6, 151319, Note_on_c, 4, 62, 0
6, 151320, Note_on_c, 4, 61, 120
6, 151349, Note_on_c, 4, 61, 0
6, 151350, Note_on_c, 4, 64, 120
6, 151379, Note_on_c, 4, 64, 0
6, 151380, Note_on_c, 4, 62, 120
6, 151409, Note_on_c, 4, 62, 0
6, 151410, Note_on_c, 4, 61, 120
6, 151439, Note_on_c, 4, 61, 0
6, 151440, Note_on_c, 4, 59, 120
6, 151469, Note_on_c, 4, 59, 0
6, 151470, Note_on_c, 4, 57, 120
6, 151499, Note_on_c, 4, 57, 0
6, 151500, Note_on_c, 4, 56, 120
6, 151559, Note_on_c, 4, 56, 0
6, 151590, Note_on_c, 4, 62, 120
6, 151619, Note_on_c, 4, 62, 0
6, 151620, Note_on_c, 4, 61, 120
6, 151649, Note_on_c, 4, 61, 0
6, 151650, Note_on_c, 4, 59, 120
6, 151679, Note_on_c, 4, 59, 0
6, 151680, Note_on_c, 4, 57, 120
6, 151739, Note_on_c, 4, 57, 0
6, 151740, Note_on_c, 4, 66, 120
6, 151799, Note_on_c, 4, 66, 0
6, 151800, Note_on_c, 4, 64, 120
6, 151859, Note_on_c, 4, 64, 0
6, 151860, Note_on_c, 4, 61, 120
6, 151979, Note_on_c, 4, 61, 0
6, 154200, Note_on_c, 4, 61, 120
6, 154259, Note_on_c, 4, 61, 0
6, 154260, Note_on_c, 4, 64, 120
6, 154319, Note_on_c, 4, 64, 0
6, 154320, Note_on_c, 4, 66, 120
6, 154379, Note_on_c, 4, 66, 0
6, 154380, Note_on_c, 4, 64, 120
6, 154409, Note_on_c, 4, 64, 0
6, 154410, Note_on_c, 4, 66, 120
6, 154439, Note_on_c, 4, 66, 0
6, 154440, Note_on_c, 4, 68, 120
6, 154740, Note_on_c, 4, 68, 0
6, 154740, Note_on_c, 4, 69, 120
6, 154800, Note_on_c, 4, 69, 0
6, 154800, Note_on_c, 4, 68, 120
6, 154860, Note_on_c, 4, 68, 0
6, 154860, Note_on_c, 4, 68, 120
6, 154920, Note_on_c, 4, 68, 0
6, 155640, Note_on_c, 4, 60, 120
6, 155699, Note_on_c, 4, 60, 0
6, 155700, Note_on_c, 4, 56, 120
6, 155759, Note_on_c, 4, 56, 0
6, 155820, Note_on_c, 4, 56, 120
6, 155879, Note_on_c, 4, 56, 0
6, 155880, Note_on_c, 4, 60, 120
6, 155939, Note_on_c, 4, 60, 0
6, 156000, Note_on_c, 4, 64, 120
6, 156059, Note_on_c, 4, 64, 0
6, 156060, Note_on_c, 4, 63, 120
6, 156119, Note_on_c, 4, 63, 0
6, 156180, Note_on_c, 4, 63, 120
6, 156239, Note_on_c, 4, 63, 0
6, 156240, Note_on_c, 4, 64, 120
6, 156299, Note_on_c, 4, 64, 0
6, 156360, Note_on_c, 4, 61, 120
6, 156419, Note_on_c, 4, 61, 0
6, 156420, Note_on_c, 4, 60, 120
6, 156479, Note_on_c, 4, 60, 0
6, 156480, Note_on_c, 4, 61, 120
6, 156539, Note_on_c, 4, 61, 0
6, 156540, Note_on_c, 4, 56, 120
6, 156659, Note_on_c, 4, 56, 0
6, 156720, Note_on_c, 4, 68, 120
6, 156779, Note_on_c, 4, 68, 0
6, 156780, Note_on_c, 4, 69, 120
6, 156839, Note_on_c, 4, 69, 0
6, 156840, Note_on_c, 4, 68, 120
6, 156899, Note_on_c, 4, 68, 0
6, 156900, Note_on_c, 4, 64, 120
6, 157019, Note_on_c, 4, 64, 0
6, 157500, Note_on_c, 4, 74, 120
6, 157560, Note_on_c, 4, 74, 0
6, 157560, Note_on_c, 4, 71, 120
6, 157620, Note_on_c, 4, 71, 0
6, 157620, Note_on_c, 4, 73, 120
6, 157740, Note_on_c, 4, 73, 0
6, 158220, Note_on_c, 4, 71, 120
6, 158280, Note_on_c, 4, 71, 0
6, 158280, Note_on_c, 4, 68, 120
6, 158340, Note_on_c, 4, 68, 0
6, 158340, Note_on_c, 4, 69, 120
6, 158460, Note_on_c, 4, 69, 0
6, 159240, Note_on_c, 4, 66, 120
6, 159299, Note_on_c, 4, 66, 0
6, 159300, Note_on_c, 4, 69, 120
6, 159359, Note_on_c, 4, 69, 0
6, 159360, Note_on_c, 4, 71, 120
6, 159419, Note_on_c, 4, 71, 0
6, 159420, Note_on_c, 4, 69, 120
6, 159449, Note_on_c, 4, 69, 0
6, 159450, Note_on_c, 4, 71, 120
6, 159479, Note_on_c, 4, 71, 0
6, 159480, Note_on_c, 4, 73, 120
6, 159780, Note_on_c, 4, 73, 0
6, 159780, Note_on_c, 4, 74, 120
6, 159839, Note_on_c, 4, 74, 0
6, 159840, Note_on_c, 4, 73, 120
6, 159899, Note_on_c, 4, 73, 0
6, 159900, Note_on_c, 4, 73, 120
6, 159959, Note_on_c, 4, 73, 0
6, 160380, Note_on_c, 4, 71, 120
6, 160439, Note_on_c, 4, 71, 0
6, 160440, Note_on_c, 4, 71, 120
6, 160499, Note_on_c, 4, 71, 0
6, 160500, Note_on_c, 4, 69, 120
6, 160679, Note_on_c, 4, 69, 0
6, 160680, Note_on_c, 4, 57, 120
6, 160739, Note_on_c, 4, 57, 0
6, 160740, Note_on_c, 4, 57, 120
6, 160799, Note_on_c, 4, 57, 0
6, 160800, Note_on_c, 4, 64, 120
6, 160859, Note_on_c, 4, 64, 0
6, 160860, Note_on_c, 4, 64, 120
6, 160979, Note_on_c, 4, 64, 0
6, 160980, Note_on_c, 4, 64, 120
6, 161039, Note_on_c, 4, 64, 0
6, 161040, Note_on_c, 4, 64, 120
6, 161159, Note_on_c, 4, 64, 0
6, 161160, Note_on_c, 4, 64, 120
6, 161219, Note_on_c, 4, 64, 0
6, 161220, Note_on_c, 4, 66, 120
6, 161279, Note_on_c, 4, 66, 0
6, 161280, Note_on_c, 4, 64, 120
6, 161339, Note_on_c, 4, 64, 0
6, 161340, Note_on_c, 4, 64, 120
6, 161399, Note_on_c, 4, 64, 0
6, 161400, Note_on_c, 4, 69, 120
6, 161459, Note_on_c, 4, 69, 0
6, 161460, Note_on_c, 4, 69, 120
6, 161519, Note_on_c, 4, 69, 0
6, 161520, Note_on_c, 4, 68, 120
6, 161579, Note_on_c, 4, 68, 0
6, 161580, Note_on_c, 4, 69, 120
6, 161699, Note_on_c, 4, 69, 0
6, 161700, Note_on_c, 4, 66, 120
6, 161759, Note_on_c, 4, 66, 0
6, 161760, Note_on_c, 4, 68, 120
6, 161819, Note_on_c, 4, 68, 0
6, 161820, Note_on_c, 4, 64, 120
6, 161879, Note_on_c, 4, 64, 0
6, 161880, Note_on_c, 4, 64, 120
6, 161939, Note_on_c, 4, 64, 0
6, 161940, Note_on_c, 4, 64, 120
6, 162119, Note_on_c, 4, 64, 0
6, 162150, Program_c, 4, 45
6, 162180, Note_on_c, 4, 64, 120
6, 162239, Note_on_c, 4, 64, 0
6, 162240, Note_on_c, 4, 62, 120
6, 162299, Note_on_c, 4, 62, 0
6, 162300, Note_on_c, 4, 64, 120
6, 162419, Note_on_c, 4, 64, 0
6, 162420, Note_on_c, 4, 64, 120
6, 162479, Note_on_c, 4, 64, 0
6, 162540, Note_on_c, 4, 64, 120
6, 162599, Note_on_c, 4, 64, 0
6, 162600, Note_on_c, 4, 64, 120
6, 162659, Note_on_c, 4, 64, 0
6, 162660, Note_on_c, 4, 66, 120
6, 162719, Note_on_c, 4, 66, 0
6, 162720, Note_on_c, 4, 64, 120
6, 162779, Note_on_c, 4, 64, 0
6, 162780, Note_on_c, 4, 64, 120
6, 162839, Note_on_c, 4, 64, 0
6, 162900, Note_on_c, 4, 61, 120
6, 162959, Note_on_c, 4, 61, 0
6, 162960, Note_on_c, 4, 59, 120
6, 163019, Note_on_c, 4, 59, 0
6, 163080, Note_on_c, 4, 62, 120
6, 163139, Note_on_c, 4, 62, 0
6, 163140, Note_on_c, 4, 64, 120
6, 163199, Note_on_c, 4, 64, 0
6, 163260, Note_on_c, 4, 64, 120
6, 163319, Note_on_c, 4, 64, 0
6, 163320, Note_on_c, 4, 64, 120
6, 163379, Note_on_c, 4, 64, 0
6, 163380, Note_on_c, 4, 64, 120
6, 163545, Program_c, 4, 48
6, 163559, Note_on_c, 4, 64, 0
6, 163560, Note_on_c, 4, 64, 120
6, 163619, Note_on_c, 4, 64, 0
6, 163620, Note_on_c, 4, 68, 120
6, 163679, Note_on_c, 4, 68, 0
6, 163680, Note_on_c, 4, 69, 120
6, 163739, Note_on_c, 4, 69, 0
6, 163740, Note_on_c, 4, 69, 120
6, 163799, Note_on_c, 4, 69, 0
6, 163800, Note_on_c, 4, 66, 120
6, 163859, Note_on_c, 4, 66, 0
6, 163860, Note_on_c, 4, 66, 120
6, 163919, Note_on_c, 4, 66, 0
6, 163920, Note_on_c, 4, 66, 120
6, 163979, Note_on_c, 4, 66, 0
6, 163980, Note_on_c, 4, 64, 120
6, 164039, Note_on_c, 4, 64, 0
6, 164040, Note_on_c, 4, 66, 120
6, 164099, Note_on_c, 4, 66, 0
6, 164100, Note_on_c, 4, 64, 120
6, 164159, Note_on_c, 4, 64, 0
6, 164160, Note_on_c, 4, 57, 120
6, 164219, Note_on_c, 4, 57, 0
6, 164220, Note_on_c, 4, 64, 120
6, 164279, Note_on_c, 4, 64, 0
6, 164280, Note_on_c, 4, 69, 120
6, 164339, Note_on_c, 4, 69, 0
6, 164340, Note_on_c, 4, 68, 120
6, 164399, Note_on_c, 4, 68, 0
6, 164400, Note_on_c, 4, 69, 120
6, 164459, Note_on_c, 4, 69, 0
6, 164460, Note_on_c, 4, 71, 120
6, 164519, Note_on_c, 4, 71, 0
6, 164520, Note_on_c, 4, 69, 120
6, 164579, Note_on_c, 4, 69, 0
6, 164580, Note_on_c, 4, 62, 120
6, 164639, Note_on_c, 4, 62, 0
6, 164640, Note_on_c, 4, 64, 120
6, 164699, Note_on_c, 4, 64, 0
6, 164700, Note_on_c, 4, 66, 120
6, 164759, Note_on_c, 4, 66, 0
6, 164760, Note_on_c, 4, 64, 120
6, 164819, Note_on_c, 4, 64, 0
6, 164820, Note_on_c, 4, 61, 120
6, 164999, Note_on_c, 4, 61, 0
6, 165030, Program_c, 4, 45
6, 165060, Note_on_c, 4, 62, 120
6, 165119, Note_on_c, 4, 62, 0
6, 165120, Note_on_c, 4, 64, 120
6, 165179, Note_on_c, 4, 64, 0
6, 165180, Note_on_c, 4, 62, 120
6, 165239, Note_on_c, 4, 62, 0
6, 165420, Note_on_c, 4, 64, 120
6, 165479, Note_on_c, 4, 64, 0
6, 165480, Note_on_c, 4, 66, 120
6, 165539, Note_on_c, 4, 66, 0
6, 165540, Note_on_c, 4, 64, 120
6, 165599, Note_on_c, 4, 64, 0
6, 165780, Note_on_c, 4, 59, 120
6, 165839, Note_on_c, 4, 59, 0
6, 165840, Note_on_c, 4, 61, 120
6, 165899, Note_on_c, 4, 61, 0
6, 165960, Note_on_c, 4, 64, 120
6, 166019, Note_on_c, 4, 64, 0
6, 166020, Note_on_c, 4, 62, 120
6, 166079, Note_on_c, 4, 62, 0
6, 166140, Note_on_c, 4, 57, 120
6, 166199, Note_on_c, 4, 57, 0
6, 166200, Note_on_c, 4, 64, 120
6, 166259, Note_on_c, 4, 64, 0
6, 166260, Note_on_c, 4, 61, 120
6, 166425, Program_c, 4, 48
6, 166439, Note_on_c, 4, 61, 0
6, 166440, Note_on_c, 4, 64, 120
6, 167820, Note_on_c, 4, 64, 0
6, 169320, Note_on_c, 4, 57, 120
6, 170460, Note_on_c, 4, 57, 0
6, 170460, Note_on_c, 4, 59, 120
6, 170519, Note_on_c, 4, 59, 0
6, 170520, Note_on_c, 4, 56, 120
6, 170579, Note_on_c, 4, 56, 0
6, 170580, Note_on_c, 4, 57, 120
6, 170699, Note_on_c, 4, 57, 0
6, 172200, Note_on_c, 4, 61, 120
6, 172230, Note_on_c, 4, 61, 0
6, 172320, Note_on_c, 4, 64, 120
6, 172350, Note_on_c, 4, 64, 0
6, 172380, Note_on_c, 4, 64, 120
6, 172410, Note_on_c, 4, 64, 0
6, 172500, Note_on_c, 4, 68, 120
6, 172530, Note_on_c, 4, 68, 0
6, 172560, Note_on_c, 4, 68, 120
6, 172590, Note_on_c, 4, 68, 0
6, 172680, Note_on_c, 4, 69, 120
6, 172710, Note_on_c, 4, 69, 0
6, 172740, Note_on_c, 4, 68, 120
6, 172770, Note_on_c, 4, 68, 0
6, 172860, Note_on_c, 4, 64, 120
6, 172890, Note_on_c, 4, 64, 0
6, 172920, Note_on_c, 4, 73, 120
6, 172950, Note_on_c, 4, 73, 0
6, 173040, Note_on_c, 4, 73, 120
6, 173070, Note_on_c, 4, 73, 0
6, 173100, Note_on_c, 4, 69, 120
6, 173130, Note_on_c, 4, 69, 0
6, 173220, Note_on_c, 4, 66, 120
6, 173250, Note_on_c, 4, 66, 0
6, 173280, Note_on_c, 4, 71, 120
6, 173310, Note_on_c, 4, 71, 0
6, 173400, Note_on_c, 4, 69, 120
6, 173430, Note_on_c, 4, 69, 0
6, 173460, Note_on_c, 4, 68, 120
6, 173579, Note_on_c, 4, 68, 0
6, 173640, Note_on_c, 4, 57, 120
6, 173699, Note_on_c, 4, 57, 0
6, 173700, Note_on_c, 4, 61, 120
6, 173759, Note_on_c, 4, 61, 0
6, 173760, Note_on_c, 4, 64, 120
6, 173819, Note_on_c, 4, 64, 0
6, 173820, Note_on_c, 4, 64, 120
6, 173879, Note_on_c, 4, 64, 0
6, 173880, Note_on_c, 4, 52, 120
6, 173939, Note_on_c, 4, 52, 0
6, 173940, Note_on_c, 4, 64, 120
6, 174059, Note_on_c, 4, 64, 0
6, 174060, Note_on_c, 4, 62, 120
6, 174119, Note_on_c, 4, 62, 0
6, 174120, Note_on_c, 4, 61, 120
6, 174179, Note_on_c, 4, 61, 0
6, 174180, Note_on_c, 4, 59, 120
6, 174239, Note_on_c, 4, 59, 0
6, 174240, Note_on_c, 4, 52, 120
6, 174299, Note_on_c, 4, 52, 0
6, 174300, Note_on_c, 4, 64, 120
6, 174359, Note_on_c, 4, 64, 0
6, 174360, Note_on_c, 4, 68, 120
6, 174389, Note_on_c, 4, 68, 0
6, 174390, Note_on_c, 4, 66, 120
6, 174419, Note_on_c, 4, 66, 0
6, 174420, Note_on_c, 4, 64, 120
6, 174449, Note_on_c, 4, 64, 0
6, 174450, Note_on_c, 4, 62, 120
6, 174479, Note_on_c, 4, 62, 0
6, 174480, Note_on_c, 4, 61, 120
6, 174509, Note_on_c, 4, 61, 0
6, 174510, Note_on_c, 4, 59, 120
6, 174539, Note_on_c, 4, 59, 0
6, 174540, Note_on_c, 4, 57, 120
6, 174599, Note_on_c, 4, 57, 0
6, 174600, Note_on_c, 4, 57, 120
6, 174659, Note_on_c, 4, 57, 0
6, 174660, Note_on_c, 4, 62, 120
6, 174689, Note_on_c, 4, 62, 0
6, 174690, Note_on_c, 4, 61, 120
6, 174719, Note_on_c, 4, 61, 0
6, 174720, Note_on_c, 4, 59, 120
6, 174749, Note_on_c, 4, 59, 0
6, 174750, Note_on_c, 4, 57, 120
6, 174779, Note_on_c, 4, 57, 0
6, 174780, Note_on_c, 4, 56, 120
6, 174809, Note_on_c, 4, 56, 0
6, 174810, Note_on_c, 4, 54, 120
6, 174839, Note_on_c, 4, 54, 0
6, 174840, Note_on_c, 4, 52, 120
6, 174869, Note_on_c, 4, 52, 0
6, 174870, Note_on_c, 4, 51, 120
6, 174899, Note_on_c, 4, 51, 0
6, 174900, Note_on_c, 4, 52, 120
6, 175019, Note_on_c, 4, 52, 0
6, 175080, Note_on_c, 4, 71, 120
6, 175110, Note_on_c, 4, 71, 0
6, 175200, Note_on_c, 4, 66, 120
6, 175230, Note_on_c, 4, 66, 0
6, 175260, Note_on_c, 4, 66, 120
6, 175290, Note_on_c, 4, 66, 0
6, 175380, Note_on_c, 4, 70, 120
6, 175410, Note_on_c, 4, 70, 0
6, 175440, Note_on_c, 4, 71, 120
6, 175470, Note_on_c, 4, 71, 0
6, 175560, Note_on_c, 4, 64, 120
6, 175590, Note_on_c, 4, 64, 0
6, 175620, Note_on_c, 4, 64, 120
6, 175650, Note_on_c, 4, 64, 0
6, 175740, Note_on_c, 4, 68, 120
6, 175770, Note_on_c, 4, 68, 0
6, 175800, Note_on_c, 4, 69, 120
6, 175830, Note_on_c, 4, 69, 0
6, 175920, Note_on_c, 4, 61, 120
6, 175950, Note_on_c, 4, 61, 0
6, 175980, Note_on_c, 4, 59, 120
6, 176010, Note_on_c, 4, 59, 0
6, 176100, Note_on_c, 4, 66, 120
6, 176130, Note_on_c, 4, 66, 0
6, 176160, Note_on_c, 4, 69, 120
6, 176190, Note_on_c, 4, 69, 0
6, 176280, Note_on_c, 4, 64, 120
6, 176310, Note_on_c, 4, 64, 0
6, 176340, Note_on_c, 4, 61, 120
6, 176459, Note_on_c, 4, 61, 0
6, 176520, Note_on_c, 4, 61, 120
6, 176579, Note_on_c, 4, 61, 0
6, 176580, Note_on_c, 4, 66, 120
6, 176639, Note_on_c, 4, 66, 0
6, 176640, Note_on_c, 4, 54, 120
6, 176699, Note_on_c, 4, 54, 0
6, 176700, Note_on_c, 4, 59, 120
6, 176759, Note_on_c, 4, 59, 0
6, 176760, Note_on_c, 4, 62, 120
6, 176819, Note_on_c, 4, 62, 0
6, 176820, Note_on_c, 4, 64, 120
6, 176879, Note_on_c, 4, 64, 0
6, 176880, Note_on_c, 4, 66, 120
6, 176939, Note_on_c, 4, 66, 0
6, 176940, Note_on_c, 4, 62, 120
6, 176999, Note_on_c, 4, 62, 0
6, 177000, Note_on_c, 4, 64, 120
6, 177059, Note_on_c, 4, 64, 0
6, 177060, Note_on_c, 4, 57, 120
6, 177119, Note_on_c, 4, 57, 0
6, 177120, Note_on_c, 4, 61, 120
6, 177179, Note_on_c, 4, 61, 0
6, 177180, Note_on_c, 4, 62, 120
6, 177239, Note_on_c, 4, 62, 0
6, 177240, Note_on_c, 4, 61, 120
6, 177269, Note_on_c, 4, 61, 0
6, 177270, Note_on_c, 4, 64, 120
6, 177299, Note_on_c, 4, 64, 0
6, 177300, Note_on_c, 4, 62, 120
6, 177329, Note_on_c, 4, 62, 0
6, 177330, Note_on_c, 4, 61, 120
6, 177359, Note_on_c, 4, 61, 0
6, 177360, Note_on_c, 4, 59, 120
6, 177389, Note_on_c, 4, 59, 0
6, 177390, Note_on_c, 4, 57, 120
6, 177419, Note_on_c, 4, 57, 0
6, 177420, Note_on_c, 4, 56, 120
6, 177479, Note_on_c, 4, 56, 0
6, 177510, Note_on_c, 4, 62, 120
6, 177539, Note_on_c, 4, 62, 0
6, 177540, Note_on_c, 4, 61, 120
6, 177569, Note_on_c, 4, 61, 0
6, 177570, Note_on_c, 4, 59, 120
6, 177599, Note_on_c, 4, 59, 0
6, 177600, Note_on_c, 4, 57, 120
6, 177659, Note_on_c, 4, 57, 0
6, 177660, Note_on_c, 4, 66, 120
6, 177719, Note_on_c, 4, 66, 0
6, 177720, Note_on_c, 4, 64, 120
6, 177779, Note_on_c, 4, 64, 0
6, 177780, Note_on_c, 4, 61, 120
6, 177899, Note_on_c, 4, 61, 0
6, 182580, Note_on_c, 4, 67, 120
6, 182639, Note_on_c, 4, 67, 0
6, 182640, Note_on_c, 4, 62, 120
6, 182759, Note_on_c, 4, 62, 0
6, 182760, Note_on_c, 4, 71, 120
6, 182819, Note_on_c, 4, 71, 0
6, 182820, Note_on_c, 4, 62, 120
6, 182939, Note_on_c, 4, 62, 0
6, 182940, Note_on_c, 4, 69, 120
6, 182999, Note_on_c, 4, 69, 0
6, 183000, Note_on_c, 4, 62, 120
6, 183119, Note_on_c, 4, 62, 0
6, 183120, Note_on_c, 4, 67, 120
6, 183179, Note_on_c, 4, 67, 0
6, 183180, Note_on_c, 4, 62, 120
6, 183299, Note_on_c, 4, 62, 0
6, 183300, Note_on_c, 4, 66, 120
6, 183359, Note_on_c, 4, 66, 0
6, 183360, Note_on_c, 4, 62, 120
6, 183479, Note_on_c, 4, 62, 0
6, 183480, Note_on_c, 4, 62, 120
6, 183539, Note_on_c, 4, 62, 0
6, 183540, Note_on_c, 4, 62, 120
6, 183659, Note_on_c, 4, 62, 0
6, 183660, Note_on_c, 4, 62, 120
6, 183719, Note_on_c, 4, 62, 0
6, 183720, Note_on_c, 4, 59, 120
6, 184019, Note_on_c, 4, 59, 0
6, 184560, Note_on_c, 4, 62, 120
6, 184620, Note_on_c, 4, 62, 0
6, 184620, Note_on_c, 4, 62, 120
6, 184680, Note_on_c, 4, 62, 0
6, 184680, Note_on_c, 4, 69, 120
6, 184740, Note_on_c, 4, 69, 0
6, 185280, Note_on_c, 4, 62, 120
6, 185339, Note_on_c, 4, 62, 0
6, 185340, Note_on_c, 4, 62, 120
6, 185399, Note_on_c, 4, 62, 0
6, 185400, Note_on_c, 4, 69, 120
6, 185459, Note_on_c, 4, 69, 0
6, 185460, Note_on_c, 4, 66, 120
6, 185519, Note_on_c, 4, 66, 0
6, 185520, Note_on_c, 4, 62, 120
6, 185579, Note_on_c, 4, 62, 0
6, 185580, Note_on_c, 4, 60, 120
6, 185639, Note_on_c, 4, 60, 0
6, 185640, Note_on_c, 4, 59, 120
6, 185699, Note_on_c, 4, 59, 0
6, 185700, Note_on_c, 4, 57, 120
6, 185759, Note_on_c, 4, 57, 0
6, 185760, Note_on_c, 4, 59, 120
6, 185819, Note_on_c, 4, 59, 0
6, 185820, Note_on_c, 4, 60, 120
6, 185879, Note_on_c, 4, 60, 0
6, 185880, Note_on_c, 4, 59, 120
6, 185939, Note_on_c, 4, 59, 0
6, 185940, Note_on_c, 4, 55, 120
6, 185999, Note_on_c, 4, 55, 0
6, 186000, Note_on_c, 4, 62, 120
6, 186059, Note_on_c, 4, 62, 0
6, 186060, Note_on_c, 4, 62, 120
6, 186179, Note_on_c, 4, 62, 0
6, 186180, Note_on_c, 4, 62, 120
6, 186239, Note_on_c, 4, 62, 0
6, 186240, Note_on_c, 4, 62, 120
6, 186299, Note_on_c, 4, 62, 0
6, 186300, Note_on_c, 4, 66, 120
6, 186359, Note_on_c, 4, 66, 0
6, 186360, Note_on_c, 4, 67, 120
6, 186419, Note_on_c, 4, 67, 0
6, 186420, Note_on_c, 4, 66, 120
6, 186479, Note_on_c, 4, 66, 0
6, 186480, Note_on_c, 4, 62, 120
6, 186539, Note_on_c, 4, 62, 0
6, 186540, Note_on_c, 4, 66, 120
6, 186599, Note_on_c, 4, 66, 0
6, 186600, Note_on_c, 4, 62, 120
6, 186899, Note_on_c, 4, 62, 0
6, 187620, Note_on_c, 4, 67, 120
6, 187679, Note_on_c, 4, 67, 0
6, 187680, Note_on_c, 4, 67, 120
6, 187799, Note_on_c, 4, 67, 0
6, 187800, Note_on_c, 4, 67, 120
6, 187859, Note_on_c, 4, 67, 0
6, 187860, Note_on_c, 4, 69, 120
6, 187919, Note_on_c, 4, 69, 0
6, 187920, Note_on_c, 4, 67, 120
6, 187979, Note_on_c, 4, 67, 0
6, 187980, Note_on_c, 4, 66, 120
6, 188039, Note_on_c, 4, 66, 0
6, 188040, Note_on_c, 4, 67, 120
6, 188099, Note_on_c, 4, 67, 0
6, 188100, Note_on_c, 4, 62, 120
6, 188159, Note_on_c, 4, 62, 0
6, 188160, Note_on_c, 4, 55, 120
6, 188219, Note_on_c, 4, 55, 0
6, 188220, Note_on_c, 4, 57, 120
6, 188279, Note_on_c, 4, 57, 0
6, 188280, Note_on_c, 4, 62, 120
6, 188339, Note_on_c, 4, 62, 0
6, 188340, Note_on_c, 4, 66, 120
6, 188399, Note_on_c, 4, 66, 0
6, 188400, Note_on_c, 4, 62, 120
6, 188459, Note_on_c, 4, 62, 0
6, 188460, Note_on_c, 4, 57, 120
6, 188519, Note_on_c, 4, 57, 0
6, 188520, Note_on_c, 4, 59, 120
6, 188579, Note_on_c, 4, 59, 0
6, 188580, Note_on_c, 4, 62, 120
6, 188639, Note_on_c, 4, 62, 0
6, 188640, Note_on_c, 4, 64, 120
6, 188699, Note_on_c, 4, 64, 0
6, 188700, Note_on_c, 4, 66, 120
6, 188759, Note_on_c, 4, 66, 0
6, 188760, Note_on_c, 4, 62, 120
6, 188819, Note_on_c, 4, 62, 0
6, 188820, Note_on_c, 4, 67, 120
6, 188879, Note_on_c, 4, 67, 0
6, 188880, Note_on_c, 4, 62, 120
6, 188939, Note_on_c, 4, 62, 0
6, 188940, Note_on_c, 4, 66, 120
6, 189059, Note_on_c, 4, 66, 0
6, 189060, Note_on_c, 4, 62, 120
6, 189119, Note_on_c, 4, 62, 0
6, 189120, Note_on_c, 4, 62, 120
6, 189179, Note_on_c, 4, 62, 0
6, 189180, Note_on_c, 4, 66, 120
6, 189239, Note_on_c, 4, 66, 0
6, 189240, Note_on_c, 4, 67, 120
6, 189299, Note_on_c, 4, 67, 0
6, 189300, Note_on_c, 4, 66, 120
6, 189329, Note_on_c, 4, 66, 0
6, 189330, Note_on_c, 4, 67, 120
6, 189359, Note_on_c, 4, 67, 0
6, 189360, Note_on_c, 4, 66, 120
6, 189389, Note_on_c, 4, 66, 0
6, 189390, Note_on_c, 4, 64, 120
6, 189419, Note_on_c, 4, 64, 0
6, 189420, Note_on_c, 4, 62, 120
6, 189449, Note_on_c, 4, 62, 0
6, 189450, Note_on_c, 4, 60, 120
6, 189479, Note_on_c, 4, 60, 0
6, 189480, Note_on_c, 4, 59, 120
6, 189779, Note_on_c, 4, 59, 0
6, 194400, Note_on_c, 4, 54, 120
6, 194459, Note_on_c, 4, 54, 0
6, 194460, Note_on_c, 4, 55, 120
6, 194519, Note_on_c, 4, 55, 0
6, 194520, Note_on_c, 4, 57, 120
6, 194639, Note_on_c, 4, 57, 0
6, 194640, Note_on_c, 4, 54, 120
6, 194759, Note_on_c, 4, 54, 0
6, 194760, Note_on_c, 4, 54, 120
6, 194819, Note_on_c, 4, 54, 0
6, 194820, Note_on_c, 4, 55, 120
6, 194879, Note_on_c, 4, 55, 0
6, 194880, Note_on_c, 4, 54, 120
6, 194999, Note_on_c, 4, 54, 0
6, 195000, Note_on_c, 4, 54, 120
6, 195119, Note_on_c, 4, 54, 0
6, 195120, Note_on_c, 4, 56, 120
6, 195239, Note_on_c, 4, 56, 0
6, 195240, Note_on_c, 4, 57, 120
6, 195359, Note_on_c, 4, 57, 0
6, 195360, Note_on_c, 4, 57, 120
6, 195479, Note_on_c, 4, 57, 0
6, 195480, Note_on_c, 4, 56, 120
6, 195599, Note_on_c, 4, 56, 0
6, 195600, Note_on_c, 4, 57, 120
6, 195839, Note_on_c, 4, 57, 0
6, 198000, Note_on_c, 4, 64, 120
6, 198119, Note_on_c, 4, 64, 0
6, 198120, Note_on_c, 4, 62, 120
6, 198239, Note_on_c, 4, 62, 0
6, 198240, Note_on_c, 4, 57, 120
6, 198359, Note_on_c, 4, 57, 0
6, 198360, Note_on_c, 4, 61, 120
6, 198479, Note_on_c, 4, 61, 0
6, 198480, Note_on_c, 4, 62, 120
6, 198599, Note_on_c, 4, 62, 0
6, 198600, Note_on_c, 4, 57, 120
6, 198719, Note_on_c, 4, 57, 0
6, 198720, Note_on_c, 4, 61, 120
6, 198839, Note_on_c, 4, 61, 0
6, 198840, Note_on_c, 4, 62, 120
6, 198959, Note_on_c, 4, 62, 0
6, 198960, Note_on_c, 4, 57, 120
6, 199079, Note_on_c, 4, 57, 0
6, 199080, Note_on_c, 4, 61, 120
6, 199199, Note_on_c, 4, 61, 0
6, 199200, Note_on_c, 4, 57, 120
6, 199439, Note_on_c, 4, 57, 0
6, 275040, Note_on_c, 4, 73, 120
6, 275159, Note_on_c, 4, 73, 0
6, 275160, Note_on_c, 4, 74, 120
6, 275279, Note_on_c, 4, 74, 0
6, 275280, Note_on_c, 4, 73, 120
6, 275399, Note_on_c, 4, 73, 0
6, 275400, Note_on_c, 4, 71, 120
6, 275519, Note_on_c, 4, 71, 0
6, 275520, Note_on_c, 4, 70, 120
6, 275639, Note_on_c, 4, 70, 0
6, 275640, Note_on_c, 4, 71, 120
6, 275879, Note_on_c, 4, 71, 0
6, 276000, Note_on_c, 4, 74, 120
6, 276119, Note_on_c, 4, 74, 0
6, 276120, Note_on_c, 4, 73, 120
6, 276239, Note_on_c, 4, 73, 0
6, 276240, Note_on_c, 4, 71, 120
6, 276299, Note_on_c, 4, 71, 0
6, 276300, Note_on_c, 4, 73, 120
6, 276359, Note_on_c, 4, 73, 0
6, 276360, Note_on_c, 4, 66, 120
6, 276479, Note_on_c, 4, 66, 0
6, 276480, Note_on_c, 4, 70, 120
6, 276599, Note_on_c, 4, 70, 0
6, 276600, Note_on_c, 4, 71, 120
6, 276719, Note_on_c, 4, 71, 0
6, 276720, Note_on_c, 4, 62, 120
6, 276839, Note_on_c, 4, 62, 0
6, 276840, Note_on_c, 4, 67, 120
6, 276959, Note_on_c, 4, 67, 0
6, 276960, Note_on_c, 4, 64, 120
6, 277079, Note_on_c, 4, 64, 0
6, 277080, Note_on_c, 4, 61, 120
6, 277319, Note_on_c, 4, 61, 0
6, 277320, Note_on_c, 4, 59, 120
6, 277559, Note_on_c, 4, 59, 0
6, 277560, Note_on_c, 4, 61, 120
6, 277799, Note_on_c, 4, 61, 0
6, 277800, Note_on_c, 4, 58, 120
6, 278039, Note_on_c, 4, 58, 0
6, 278040, Note_on_c, 4, 59, 120
6, 278399, Note_on_c, 4, 59, 0
6, 282720, Note_on_c, 4, 70, 120
6, 282839, Note_on_c, 4, 70, 0
6, 282840, Note_on_c, 4, 71, 120
6, 282959, Note_on_c, 4, 71, 0
6, 282960, Note_on_c, 4, 70, 120
6, 283079, Note_on_c, 4, 70, 0
6, 283080, Note_on_c, 4, 71, 120
6, 283199, Note_on_c, 4, 71, 0
6, 283200, Note_on_c, 4, 73, 120
6, 283319, Note_on_c, 4, 73, 0
6, 283320, Note_on_c, 4, 74, 120
6, 283559, Note_on_c, 4, 74, 0
6, 283560, Note_on_c, 4, 69, 120
6, 283679, Note_on_c, 4, 69, 0
6, 283680, Note_on_c, 4, 67, 120
6, 283799, Note_on_c, 4, 67, 0
6, 283800, Note_on_c, 4, 66, 120
6, 283919, Note_on_c, 4, 66, 0
6, 283920, Note_on_c, 4, 64, 120
6, 284039, Note_on_c, 4, 64, 0
6, 284040, Note_on_c, 4, 62, 120
6, 284159, Note_on_c, 4, 62, 0
6, 284160, Note_on_c, 4, 61, 120
6, 284279, Note_on_c, 4, 61, 0
6, 284280, Note_on_c, 4, 69, 120
6, 284399, Note_on_c, 4, 69, 0
6, 284400, Note_on_c, 4, 67, 120
6, 284459, Note_on_c, 4, 67, 0
6, 284460, Note_on_c, 4, 66, 120
6, 284519, Note_on_c, 4, 66, 0
6, 284520, Note_on_c, 4, 71, 120
6, 284639, Note_on_c, 4, 71, 0
6, 284640, Note_on_c, 4, 69, 120
6, 284759, Note_on_c, 4, 69, 0
6, 284760, Note_on_c, 4, 69, 120
6, 284879, Note_on_c, 4, 69, 0
6, 284880, Note_on_c, 4, 57, 120
6, 284999, Note_on_c, 4, 57, 0
6, 285000, Note_on_c, 4, 62, 120
6, 285119, Note_on_c, 4, 62, 0
6, 285120, Note_on_c, 4, 66, 120
6, 285359, Note_on_c, 4, 66, 0
6, 285360, Note_on_c, 4, 64, 120
6, 285419, Note_on_c, 4, 64, 0
6, 285420, Note_on_c, 4, 66, 120
6, 285479, Note_on_c, 4, 66, 0
6, 285480, Note_on_c, 4, 67, 120
6, 285599, Note_on_c, 4, 67, 0
6, 285600, Note_on_c, 4, 64, 120
6, 285659, Note_on_c, 4, 64, 0
6, 285660, Note_on_c, 4, 66, 120
6, 285719, Note_on_c, 4, 66, 0
6, 285720, Note_on_c, 4, 67, 120
6, 285839, Note_on_c, 4, 67, 0
6, 285840, Note_on_c, 4, 66, 120
6, 285899, Note_on_c, 4, 66, 0
6, 285900, Note_on_c, 4, 64, 120
6, 285959, Note_on_c, 4, 64, 0
6, 285960, Note_on_c, 4, 62, 120
6, 286079, Note_on_c, 4, 62, 0
6, 286080, Note_on_c, 4, 61, 120
6, 286139, Note_on_c, 4, 61, 0
6, 286140, Note_on_c, 4, 59, 120
6, 286199, Note_on_c, 4, 59, 0
6, 286200, Note_on_c, 4, 61, 120
6, 286439, Note_on_c, 4, 61, 0
6, 286440, Note_on_c, 4, 58, 120
6, 286679, Note_on_c, 4, 58, 0
6, 286680, Note_on_c, 4, 59, 120
6, 287039, Note_on_c, 4, 59, 0
6, 291600, Note_on_c, 4, 60, 120
6, 291719, Note_on_c, 4, 60, 0
6, 291720, Note_on_c, 4, 60, 120
6, 291839, Note_on_c, 4, 60, 0
6, 291840, Note_on_c, 4, 64, 120
6, 291959, Note_on_c, 4, 64, 0
6, 291960, Note_on_c, 4, 65, 120
6, 292079, Note_on_c, 4, 65, 0
6, 292080, Note_on_c, 4, 65, 120
6, 292199, Note_on_c, 4, 65, 0
6, 292200, Note_on_c, 4, 60, 120
6, 292319, Note_on_c, 4, 60, 0
6, 292320, Note_on_c, 4, 58, 120
6, 292439, Note_on_c, 4, 58, 0
6, 292440, Note_on_c, 4, 65, 120
6, 292559, Note_on_c, 4, 65, 0
6, 292560, Note_on_c, 4, 69, 120
6, 292679, Note_on_c, 4, 69, 0
6, 292680, Note_on_c, 4, 65, 120
6, 292799, Note_on_c, 4, 65, 0
6, 292800, Note_on_c, 4, 65, 120
6, 292919, Note_on_c, 4, 65, 0
6, 292920, Note_on_c, 4, 64, 120
6, 293039, Note_on_c, 4, 64, 0
6, 293040, Note_on_c, 4, 65, 120
6, 293159, Note_on_c, 4, 65, 0
6, 293160, Note_on_c, 4, 60, 120
6, 293279, Note_on_c, 4, 60, 0
6, 293280, Note_on_c, 4, 55, 120
6, 293399, Note_on_c, 4, 55, 0
6, 293400, Note_on_c, 4, 55, 120
6, 293519, Note_on_c, 4, 55, 0
6, 293520, Note_on_c, 4, 60, 120
6, 293639, Note_on_c, 4, 60, 0
6, 293640, Note_on_c, 4, 60, 120
6, 293759, Note_on_c, 4, 60, 0
6, 293760, Note_on_c, 4, 65, 120
6, 293879, Note_on_c, 4, 65, 0
6, 293880, Note_on_c, 4, 65, 120
6, 293999, Note_on_c, 4, 65, 0
6, 294000, Note_on_c, 4, 64, 120
6, 294119, Note_on_c, 4, 64, 0
6, 294120, Note_on_c, 4, 57, 120
6, 294479, Note_on_c, 4, 57, 0
6, 294480, Note_on_c, 4, 60, 120
6, 294599, Note_on_c, 4, 60, 0
6, 294600, Note_on_c, 4, 60, 120
6, 294719, Note_on_c, 4, 60, 0
6, 294720, Note_on_c, 4, 64, 120
6, 294839, Note_on_c, 4, 64, 0
6, 294840, Note_on_c, 4, 65, 120
6, 294959, Note_on_c, 4, 65, 0
6, 294960, Note_on_c, 4, 65, 120
6, 295079, Note_on_c, 4, 65, 0
6, 295080, Note_on_c, 4, 60, 120
6, 295199, Note_on_c, 4, 60, 0
6, 295200, Note_on_c, 4, 58, 120
6, 295319, Note_on_c, 4, 58, 0
6, 295320, Note_on_c, 4, 65, 120
6, 295439, Note_on_c, 4, 65, 0
6, 295440, Note_on_c, 4, 69, 120
6, 295559, Note_on_c, 4, 69, 0
6, 295560, Note_on_c, 4, 65, 120
6, 295679, Note_on_c, 4, 65, 0
6, 295680, Note_on_c, 4, 65, 120
6, 295799, Note_on_c, 4, 65, 0
6, 295800, Note_on_c, 4, 64, 120
6, 295919, Note_on_c, 4, 64, 0
6, 295920, Note_on_c, 4, 65, 120
6, 296039, Note_on_c, 4, 65, 0
6, 296040, Note_on_c, 4, 60, 120
6, 296159, Note_on_c, 4, 60, 0
6, 296160, Note_on_c, 4, 55, 120
6, 296279, Note_on_c, 4, 55, 0
6, 296280, Note_on_c, 4, 55, 120
6, 296399, Note_on_c, 4, 55, 0
6, 296400, Note_on_c, 4, 60, 120
6, 296519, Note_on_c, 4, 60, 0
6, 296520, Note_on_c, 4, 60, 120
6, 296639, Note_on_c, 4, 60, 0
6, 296640, Note_on_c, 4, 65, 120
6, 296759, Note_on_c, 4, 65, 0
6, 296760, Note_on_c, 4, 65, 120
6, 296879, Note_on_c, 4, 65, 0
6, 296880, Note_on_c, 4, 64, 120
6, 296999, Note_on_c, 4, 64, 0
6, 297000, Note_on_c, 4, 57, 120
6, 297359, Note_on_c, 4, 57, 0
6, 297360, Note_on_c, 4, 69, 120
6, 297419, Note_on_c, 4, 69, 0
6, 297420, Note_on_c, 4, 70, 120
6, 297479, Note_on_c, 4, 70, 0
6, 297480, Note_on_c, 4, 72, 120
6, 297599, Note_on_c, 4, 72, 0
6, 297600, Note_on_c, 4, 70, 120
6, 297719, Note_on_c, 4, 70, 0
6, 297720, Note_on_c, 4, 72, 120
6, 297839, Note_on_c, 4, 72, 0
6, 297840, Note_on_c, 4, 72, 120
6, 297959, Note_on_c, 4, 72, 0
6, 297960, Note_on_c, 4, 70, 120
6, 298019, Note_on_c, 4, 70, 0
6, 298020, Note_on_c, 4, 72, 120
6, 298079, Note_on_c, 4, 72, 0
6, 298080, Note_on_c, 4, 70, 120
6, 298139, Note_on_c, 4, 70, 0
6, 298140, Note_on_c, 4, 69, 120
6, 298199, Note_on_c, 4, 69, 0
6, 298200, Note_on_c, 4, 70, 120
6, 298319, Note_on_c, 4, 70, 0
6, 298320, Note_on_c, 4, 65, 120
6, 298439, Note_on_c, 4, 65, 0
6, 298440, Note_on_c, 4, 74, 120
6, 298559, Note_on_c, 4, 74, 0
6, 298560, Note_on_c, 4, 72, 120
6, 298679, Note_on_c, 4, 72, 0
6, 298680, Note_on_c, 4, 74, 120
6, 298799, Note_on_c, 4, 74, 0
6, 298800, Note_on_c, 4, 70, 120
6, 298919, Note_on_c, 4, 70, 0
6, 298920, Note_on_c, 4, 67, 120
6, 299039, Note_on_c, 4, 67, 0
6, 299040, Note_on_c, 4, 65, 120
6, 299099, Note_on_c, 4, 65, 0
6, 299100, Note_on_c, 4, 67, 120
6, 299159, Note_on_c, 4, 67, 0
6, 299160, Note_on_c, 4, 64, 120
6, 299279, Note_on_c, 4, 64, 0
6, 299280, Note_on_c, 4, 60, 120
6, 299399, Note_on_c, 4, 60, 0
6, 299400, Note_on_c, 4, 58, 120
6, 299519, Note_on_c, 4, 58, 0
6, 299520, Note_on_c, 4, 65, 120
6, 299579, Note_on_c, 4, 65, 0
6, 299580, Note_on_c, 4, 64, 120
6, 299639, Note_on_c, 4, 64, 0
6, 299640, Note_on_c, 4, 65, 120
6, 299759, Note_on_c, 4, 65, 0
6, 299760, Note_on_c, 4, 57, 120
6, 299879, Note_on_c, 4, 57, 0
6, 299880, Note_on_c, 4, 58, 120
6, 299999, Note_on_c, 4, 58, 0
6, 300000, Note_on_c, 4, 65, 120
6, 300059, Note_on_c, 4, 65, 0
6, 300060, Note_on_c, 4, 64, 120
6, 300119, Note_on_c, 4, 64, 0
6, 300120, Note_on_c, 4, 65, 120
6, 300239, Note_on_c, 4, 65, 0
6, 300240, Note_on_c, 4, 65, 120
6, 300359, Note_on_c, 4, 65, 0
6, 300360, Note_on_c, 4, 65, 120
6, 300479, Note_on_c, 4, 65, 0
6, 300480, Note_on_c, 4, 64, 120
6, 300599, Note_on_c, 4, 64, 0
6, 300600, Note_on_c, 4, 65, 120
6, 300719, Note_on_c, 4, 65, 0
6, 300720, Note_on_c, 4, 62, 120
6, 300839, Note_on_c, 4, 62, 0
6, 300840, Note_on_c, 4, 60, 120
6, 300959, Note_on_c, 4, 60, 0
6, 300960, Note_on_c, 4, 59, 120
6, 301079, Note_on_c, 4, 59, 0
6, 301080, Note_on_c, 4, 60, 120
6, 301199, Note_on_c, 4, 60, 0
6, 301200, Note_on_c, 4, 60, 120
6, 301319, Note_on_c, 4, 60, 0
6, 301320, Note_on_c, 4, 60, 120
6, 301439, Note_on_c, 4, 60, 0
6, 301440, Note_on_c, 4, 64, 120
6, 301559, Note_on_c, 4, 64, 0
6, 301560, Note_on_c, 4, 65, 120
6, 301679, Note_on_c, 4, 65, 0
6, 301680, Note_on_c, 4, 65, 120
6, 301799, Note_on_c, 4, 65, 0
6, 301800, Note_on_c, 4, 60, 120
6, 301919, Note_on_c, 4, 60, 0
6, 301920, Note_on_c, 4, 58, 120
6, 302039, Note_on_c, 4, 58, 0
6, 302040, Note_on_c, 4, 65, 120
6, 302159, Note_on_c, 4, 65, 0
6, 302160, Note_on_c, 4, 69, 120
6, 302279, Note_on_c, 4, 69, 0
6, 302280, Note_on_c, 4, 65, 120
6, 302399, Note_on_c, 4, 65, 0
6, 302400, Note_on_c, 4, 65, 120
6, 302519, Note_on_c, 4, 65, 0
6, 302520, Note_on_c, 4, 64, 120
6, 302639, Note_on_c, 4, 64, 0
6, 302640, Note_on_c, 4, 65, 120
6, 302759, Note_on_c, 4, 65, 0
6, 302760, Note_on_c, 4, 60, 120
6, 302879, Note_on_c, 4, 60, 0
6, 302880, Note_on_c, 4, 55, 120
6, 302999, Note_on_c, 4, 55, 0
6, 303000, Note_on_c, 4, 55, 120
6, 303119, Note_on_c, 4, 55, 0
6, 303120, Note_on_c, 4, 60, 120
6, 303239, Note_on_c, 4, 60, 0
6, 303240, Note_on_c, 4, 60, 120
6, 303359, Note_on_c, 4, 60, 0
6, 303360, Note_on_c, 4, 65, 120
6, 303479, Note_on_c, 4, 65, 0
6, 303480, Note_on_c, 4, 65, 120
6, 303599, Note_on_c, 4, 65, 0
6, 303600, Note_on_c, 4, 64, 120
6, 303719, Note_on_c, 4, 64, 0
6, 303720, Note_on_c, 4, 57, 120
6, 304079, Note_on_c, 4, 57, 0
6, 304079, End_track
7, 0, Start_track
7, 0, MIDI_port, 0
7, 0, Title_t, "Soprano"
7, 0, Program_c, 5, 56
7, 28440, Note_on_c, 5, 69, 110
7, 28499, Note_on_c, 5, 69, 0
7, 28500, Note_on_c, 5, 71, 110
7, 28559, Note_on_c, 5, 71, 0
7, 28560, Note_on_c, 5, 73, 110
7, 28679, Note_on_c, 5, 73, 0
7, 28680, Note_on_c, 5, 73, 110
7, 28799, Note_on_c, 5, 73, 0
7, 28800, Note_on_c, 5, 73, 110
7, 28919, Note_on_c, 5, 73, 0
7, 28920, Note_on_c, 5, 74, 110
7, 28979, Note_on_c, 5, 74, 0
7, 28980, Note_on_c, 5, 73, 110
7, 29039, Note_on_c, 5, 73, 0
7, 29040, Note_on_c, 5, 71, 110
7, 29159, Note_on_c, 5, 71, 0
7, 29160, Note_on_c, 5, 71, 110
7, 29279, Note_on_c, 5, 71, 0
7, 29280, Note_on_c, 5, 71, 110
7, 29399, Note_on_c, 5, 71, 0
7, 29400, Note_on_c, 5, 73, 110
7, 29519, Note_on_c, 5, 73, 0
7, 29520, Note_on_c, 5, 74, 110
7, 29639, Note_on_c, 5, 74, 0
7, 29640, Note_on_c, 5, 73, 110
7, 29699, Note_on_c, 5, 73, 0
7, 29700, Note_on_c, 5, 71, 110
7, 29759, Note_on_c, 5, 71, 0
7, 29760, Note_on_c, 5, 73, 110
7, 29879, Note_on_c, 5, 73, 0
7, 29880, Note_on_c, 5, 71, 110
7, 29939, Note_on_c, 5, 71, 0
7, 29940, Note_on_c, 5, 69, 110
7, 29999, Note_on_c, 5, 69, 0
7, 30000, Note_on_c, 5, 69, 110
7, 30359, Note_on_c, 5, 69, 0
7, 30360, Note_on_c, 5, 69, 110
7, 30419, Note_on_c, 5, 69, 0
7, 30420, Note_on_c, 5, 71, 110
7, 30479, Note_on_c, 5, 71, 0
7, 30480, Note_on_c, 5, 73, 110
7, 30599, Note_on_c, 5, 73, 0
7, 30600, Note_on_c, 5, 73, 110
7, 30719, Note_on_c, 5, 73, 0
7, 30720, Note_on_c, 5, 73, 110
7, 30839, Note_on_c, 5, 73, 0
7, 30840, Note_on_c, 5, 74, 110
7, 30899, Note_on_c, 5, 74, 0
7, 30900, Note_on_c, 5, 73, 110
7, 30959, Note_on_c, 5, 73, 0
7, 30960, Note_on_c, 5, 71, 110
7, 31079, Note_on_c, 5, 71, 0
7, 31080, Note_on_c, 5, 71, 110
7, 31199, Note_on_c, 5, 71, 0
7, 31200, Note_on_c, 5, 71, 110
7, 31319, Note_on_c, 5, 71, 0
7, 31320, Note_on_c, 5, 73, 110
7, 31439, Note_on_c, 5, 73, 0
7, 31440, Note_on_c, 5, 74, 110
7, 31559, Note_on_c, 5, 74, 0
7, 31560, Note_on_c, 5, 73, 110
7, 31619, Note_on_c, 5, 73, 0
7, 31620, Note_on_c, 5, 71, 110
7, 31679, Note_on_c, 5, 71, 0
7, 31680, Note_on_c, 5, 73, 110
7, 31799, Note_on_c, 5, 73, 0
7, 31800, Note_on_c, 5, 71, 110
7, 31859, Note_on_c, 5, 71, 0
7, 31860, Note_on_c, 5, 69, 110
7, 31919, Note_on_c, 5, 69, 0
7, 31920, Note_on_c, 5, 69, 110
7, 32279, Note_on_c, 5, 69, 0
7, 32280, Note_on_c, 5, 76, 110
7, 32399, Note_on_c, 5, 76, 0
7, 32400, Note_on_c, 5, 81, 110
7, 32519, Note_on_c, 5, 81, 0
7, 32520, Note_on_c, 5, 76, 110
7, 32639, Note_on_c, 5, 76, 0
7, 32640, Note_on_c, 5, 76, 110
7, 32759, Note_on_c, 5, 76, 0
7, 32760, Note_on_c, 5, 76, 110
7, 32879, Note_on_c, 5, 76, 0
7, 32880, Note_on_c, 5, 78, 110
7, 32999, Note_on_c, 5, 78, 0
7, 33000, Note_on_c, 5, 76, 110
7, 33119, Note_on_c, 5, 76, 0
7, 33120, Note_on_c, 5, 76, 110
7, 33239, Note_on_c, 5, 76, 0
7, 33240, Note_on_c, 5, 76, 110
7, 33359, Note_on_c, 5, 76, 0
7, 33360, Note_on_c, 5, 76, 110
7, 33479, Note_on_c, 5, 76, 0
7, 33480, Note_on_c, 5, 74, 110
7, 33539, Note_on_c, 5, 74, 0
7, 33540, Note_on_c, 5, 76, 110
7, 33599, Note_on_c, 5, 76, 0
7, 33600, Note_on_c, 5, 78, 110
7, 33659, Note_on_c, 5, 78, 0
7, 33660, Note_on_c, 5, 76, 110
7, 33719, Note_on_c, 5, 76, 0
7, 33720, Note_on_c, 5, 74, 110
7, 33779, Note_on_c, 5, 74, 0
7, 33780, Note_on_c, 5, 73, 110
7, 33839, Note_on_c, 5, 73, 0
7, 33840, Note_on_c, 5, 71, 110
7, 34199, Note_on_c, 5, 71, 0
7, 34200, Note_on_c, 5, 69, 110
7, 34259, Note_on_c, 5, 69, 0
7, 34260, Note_on_c, 5, 71, 110
7, 34319, Note_on_c, 5, 71, 0
7, 34320, Note_on_c, 5, 73, 110
7, 34439, Note_on_c, 5, 73, 0
7, 34440, Note_on_c, 5, 73, 110
7, 34499, Note_on_c, 5, 73, 0
7, 34500, Note_on_c, 5, 71, 110
7, 34559, Note_on_c, 5, 71, 0
7, 34560, Note_on_c, 5, 73, 110
7, 34619, Note_on_c, 5, 73, 0
7, 34620, Note_on_c, 5, 71, 110
7, 34679, Note_on_c, 5, 71, 0
7, 34680, Note_on_c, 5, 73, 110
7, 34739, Note_on_c, 5, 73, 0
7, 34740, Note_on_c, 5, 69, 110
7, 34799, Note_on_c, 5, 69, 0
7, 34800, Note_on_c, 5, 71, 110
7, 34919, Note_on_c, 5, 71, 0
7, 34920, Note_on_c, 5, 71, 110
7, 34979, Note_on_c, 5, 71, 0
7, 34980, Note_on_c, 5, 73, 110
7, 35039, Note_on_c, 5, 73, 0
7, 35040, Note_on_c, 5, 71, 110
7, 35159, Note_on_c, 5, 71, 0
7, 35160, Note_on_c, 5, 73, 110
7, 35279, Note_on_c, 5, 73, 0
7, 35280, Note_on_c, 5, 74, 110
7, 35399, Note_on_c, 5, 74, 0
7, 35400, Note_on_c, 5, 73, 110
7, 35459, Note_on_c, 5, 73, 0
7, 35460, Note_on_c, 5, 71, 110
7, 35519, Note_on_c, 5, 71, 0
7, 35520, Note_on_c, 5, 73, 110
7, 35639, Note_on_c, 5, 73, 0
7, 35640, Note_on_c, 5, 71, 110
7, 35699, Note_on_c, 5, 71, 0
7, 35700, Note_on_c, 5, 69, 110
7, 35759, Note_on_c, 5, 69, 0
7, 35760, Note_on_c, 5, 69, 110
7, 36119, Note_on_c, 5, 69, 0
7, 41220, Note_on_c, 5, 69, 110
7, 41280, Note_on_c, 5, 69, 0
7, 41280, Note_on_c, 5, 74, 110
7, 41340, Note_on_c, 5, 74, 0
7, 41340, Note_on_c, 5, 69, 110
7, 41400, Note_on_c, 5, 69, 0
7, 41400, Note_on_c, 5, 66, 110
7, 41460, Note_on_c, 5, 66, 0
7, 41460, Note_on_c, 5, 67, 110
7, 41520, Note_on_c, 5, 67, 0
7, 41520, Note_on_c, 5, 69, 110
7, 41640, Note_on_c, 5, 69, 0
7, 41700, Note_on_c, 5, 78, 110
7, 41760, Note_on_c, 5, 78, 0
7, 41760, Note_on_c, 5, 78, 110
7, 41790, Note_on_c, 5, 78, 0
7, 41790, Note_on_c, 5, 73, 110
7, 41820, Note_on_c, 5, 73, 0
7, 41820, Note_on_c, 5, 73, 110
7, 41880, Note_on_c, 5, 73, 0
7, 41910, Note_on_c, 5, 71, 110
7, 41940, Note_on_c, 5, 71, 0
7, 41940, Note_on_c, 5, 70, 110
7, 41970, Note_on_c, 5, 70, 0
7, 41970, Note_on_c, 5, 71, 110
7, 42000, Note_on_c, 5, 71, 0
7, 42000, Note_on_c, 5, 73, 110
7, 42060, Note_on_c, 5, 73, 0
7, 42060, Note_on_c, 5, 66, 110
7, 42120, Note_on_c, 5, 66, 0
7, 42150, Note_on_c, 5, 66, 110
7, 42180, Note_on_c, 5, 66, 0
7, 42180, Note_on_c, 5, 73, 110
7, 42210, Note_on_c, 5, 73, 0
7, 42210, Note_on_c, 5, 74, 110
7, 42240, Note_on_c, 5, 74, 0
7, 42240, Note_on_c, 5, 76, 110
7, 42300, Note_on_c, 5, 76, 0
7, 42300, Note_on_c, 5, 76, 110
7, 42360, Note_on_c, 5, 76, 0
7, 42360, Note_on_c, 5, 79, 110
7, 42420, Note_on_c, 5, 79, 0
7, 42420, Note_on_c, 5, 78, 110
7, 42480, Note_on_c, 5, 78, 0
7, 42480, Note_on_c, 5, 74, 110
7, 42540, Note_on_c, 5, 74, 0
7, 42540, Note_on_c, 5, 74, 110
7, 42600, Note_on_c, 5, 74, 0
7, 43620, Note_on_c, 5, 74, 110
7, 43680, Note_on_c, 5, 74, 0
7, 43680, Note_on_c, 5, 74, 110
7, 43740, Note_on_c, 5, 74, 0
7, 43740, Note_on_c, 5, 71, 110
7, 43800, Note_on_c, 5, 71, 0
7, 43800, Note_on_c, 5, 67, 110
7, 43860, Note_on_c, 5, 67, 0
7, 43890, Note_on_c, 5, 67, 110
7, 43920, Note_on_c, 5, 67, 0
7, 43920, Note_on_c, 5, 79, 110
7, 43980, Note_on_c, 5, 79, 0
7, 43980, Note_on_c, 5, 76, 110
7, 44040, Note_on_c, 5, 76, 0
7, 44040, Note_on_c, 5, 73, 110
7, 44100, Note_on_c, 5, 73, 0
7, 44100, Note_on_c, 5, 76, 110
7, 44160, Note_on_c, 5, 76, 0
7, 44160, Note_on_c, 5, 78, 110
7, 44280, Note_on_c, 5, 78, 0
7, 47760, Note_on_c, 5, 73, 110
7, 47819, Note_on_c, 5, 73, 0
7, 47820, Note_on_c, 5, 71, 110
7, 47879, Note_on_c, 5, 71, 0
7, 47880, Note_on_c, 5, 69, 110
7, 47999, Note_on_c, 5, 69, 0
7, 48000, Note_on_c, 5, 68, 110
7, 48119, Note_on_c, 5, 68, 0
7, 48120, Note_on_c, 5, 69, 110
7, 48179, Note_on_c, 5, 69, 0
7, 48180, Note_on_c, 5, 73, 110
7, 48239, Note_on_c, 5, 73, 0
7, 48240, Note_on_c, 5, 71, 110
7, 48479, Note_on_c, 5, 71, 0
7, 48480, Note_on_c, 5, 69, 110
7, 48539, Note_on_c, 5, 69, 0
7, 48540, Note_on_c, 5, 73, 110
7, 48599, Note_on_c, 5, 73, 0
7, 48600, Note_on_c, 5, 71, 110
7, 48839, Note_on_c, 5, 71, 0
7, 48840, Note_on_c, 5, 73, 110
7, 48899, Note_on_c, 5, 73, 0
7, 48900, Note_on_c, 5, 71, 110
7, 48959, Note_on_c, 5, 71, 0
7, 48960, Note_on_c, 5, 74, 110
7, 49019, Note_on_c, 5, 74, 0
7, 49020, Note_on_c, 5, 73, 110
7, 49079, Note_on_c, 5, 73, 0
7, 49080, Note_on_c, 5, 71, 110
7, 49139, Note_on_c, 5, 71, 0
7, 49140, Note_on_c, 5, 69, 110
7, 49199, Note_on_c, 5, 69, 0
7, 49200, Note_on_c, 5, 68, 110
7, 49229, Note_on_c, 5, 68, 0
7, 49230, Note_on_c, 5, 69, 110
7, 49259, Note_on_c, 5, 69, 0
7, 49260, Note_on_c, 5, 71, 110
7, 49289, Note_on_c, 5, 71, 0
7, 49290, Note_on_c, 5, 68, 110
7, 49319, Note_on_c, 5, 68, 0
7, 49320, Note_on_c, 5, 69, 110
7, 49559, Note_on_c, 5, 69, 0
7, 49560, Note_on_c, 5, 73, 110
7, 49619, Note_on_c, 5, 73, 0
7, 49620, Note_on_c, 5, 71, 110
7, 49679, Note_on_c, 5, 71, 0
7, 49680, Note_on_c, 5, 69, 110
7, 49799, Note_on_c, 5, 69, 0
7, 49800, Note_on_c, 5, 68, 110
7, 49919, Note_on_c, 5, 68, 0
7, 49920, Note_on_c, 5, 69, 110
7, 49979, Note_on_c, 5, 69, 0
7, 49980, Note_on_c, 5, 73, 110
7, 50039, Note_on_c, 5, 73, 0
7, 50040, Note_on_c, 5, 71, 110
7, 50279, Note_on_c, 5, 71, 0
7, 50280, Note_on_c, 5, 69, 110
7, 50339, Note_on_c, 5, 69, 0
7, 50340, Note_on_c, 5, 73, 110
7, 50399, Note_on_c, 5, 73, 0
7, 50400, Note_on_c, 5, 71, 110
7, 50639, Note_on_c, 5, 71, 0
7, 50640, Note_on_c, 5, 73, 110
7, 50699, Note_on_c, 5, 73, 0
7, 50700, Note_on_c, 5, 71, 110
7, 50759, Note_on_c, 5, 71, 0
7, 50760, Note_on_c, 5, 74, 110
7, 50819, Note_on_c, 5, 74, 0
7, 50820, Note_on_c, 5, 73, 110
7, 50879, Note_on_c, 5, 73, 0
7, 50880, Note_on_c, 5, 71, 110
7, 50939, Note_on_c, 5, 71, 0
7, 50940, Note_on_c, 5, 69, 110
7, 50999, Note_on_c, 5, 69, 0
7, 51000, Note_on_c, 5, 68, 110
7, 51029, Note_on_c, 5, 68, 0
7, 51030, Note_on_c, 5, 69, 110
7, 51059, Note_on_c, 5, 69, 0
7, 51060, Note_on_c, 5, 71, 110
7, 51089, Note_on_c, 5, 71, 0
7, 51090, Note_on_c, 5, 68, 110
7, 51119, Note_on_c, 5, 68, 0
7, 51120, Note_on_c, 5, 69, 110
7, 51359, Note_on_c, 5, 69, 0
7, 51360, Note_on_c, 5, 73, 110
7, 51419, Note_on_c, 5, 73, 0
7, 51420, Note_on_c, 5, 74, 110
7, 51479, Note_on_c, 5, 74, 0
7, 51480, Note_on_c, 5, 76, 110
7, 51599, Note_on_c, 5, 76, 0
7, 51600, Note_on_c, 5, 76, 110
7, 51719, Note_on_c, 5, 76, 0
7, 51720, Note_on_c, 5, 78, 110
7, 51779, Note_on_c, 5, 78, 0
7, 51780, Note_on_c, 5, 76, 110
7, 51839, Note_on_c, 5, 76, 0
7, 51840, Note_on_c, 5, 76, 110
7, 51959, Note_on_c, 5, 76, 0
7, 51960, Note_on_c, 5, 74, 110
7, 52079, Note_on_c, 5, 74, 0
7, 52080, Note_on_c, 5, 71, 110
7, 52139, Note_on_c, 5, 71, 0
7, 52140, Note_on_c, 5, 73, 110
7, 52199, Note_on_c, 5, 73, 0
7, 52200, Note_on_c, 5, 74, 110
7, 52319, Note_on_c, 5, 74, 0
7, 52320, Note_on_c, 5, 74, 110
7, 52439, Note_on_c, 5, 74, 0
7, 52440, Note_on_c, 5, 76, 110
7, 52499, Note_on_c, 5, 76, 0
7, 52500, Note_on_c, 5, 74, 110
7, 52559, Note_on_c, 5, 74, 0
7, 52560, Note_on_c, 5, 74, 110
7, 52679, Note_on_c, 5, 74, 0
7, 52680, Note_on_c, 5, 73, 110
7, 52799, Note_on_c, 5, 73, 0
7, 52800, Note_on_c, 5, 73, 110
7, 52859, Note_on_c, 5, 73, 0
7, 52860, Note_on_c, 5, 71, 110
7, 52919, Note_on_c, 5, 71, 0
7, 52920, Note_on_c, 5, 69, 110
7, 53039, Note_on_c, 5, 69, 0
7, 53040, Note_on_c, 5, 68, 110
7, 53159, Note_on_c, 5, 68, 0
7, 53160, Note_on_c, 5, 69, 110
7, 53219, Note_on_c, 5, 69, 0
7, 53220, Note_on_c, 5, 73, 110
7, 53279, Note_on_c, 5, 73, 0
7, 53280, Note_on_c, 5, 71, 110
7, 53519, Note_on_c, 5, 71, 0
7, 53520, Note_on_c, 5, 73, 110
7, 53579, Note_on_c, 5, 73, 0
7, 53580, Note_on_c, 5, 71, 110
7, 53639, Note_on_c, 5, 71, 0
7, 53640, Note_on_c, 5, 74, 110
7, 53699, Note_on_c, 5, 74, 0
7, 53700, Note_on_c, 5, 73, 110
7, 53759, Note_on_c, 5, 73, 0
7, 53760, Note_on_c, 5, 71, 110
7, 53819, Note_on_c, 5, 71, 0
7, 53820, Note_on_c, 5, 69, 110
7, 53879, Note_on_c, 5, 69, 0
7, 53880, Note_on_c, 5, 68, 110
7, 53910, Note_on_c, 5, 68, 0
7, 53910, Note_on_c, 5, 69, 110
7, 53940, Note_on_c, 5, 69, 0
7, 53940, Note_on_c, 5, 71, 110
7, 53970, Note_on_c, 5, 71, 0
7, 53970, Note_on_c, 5, 68, 110
7, 54000, Note_on_c, 5, 68, 0
7, 54000, Note_on_c, 5, 69, 110
7, 54239, Note_on_c, 5, 69, 0
7, 54240, Note_on_c, 5, 69, 110
7, 54269, Note_on_c, 5, 69, 0
7, 54270, Note_on_c, 5, 71, 110
7, 54299, Note_on_c, 5, 71, 0
7, 54300, Note_on_c, 5, 73, 110
7, 54329, Note_on_c, 5, 73, 0
7, 54330, Note_on_c, 5, 74, 110
7, 54359, Note_on_c, 5, 74, 0
7, 54360, Note_on_c, 5, 76, 110
7, 54419, Note_on_c, 5, 76, 0
7, 54420, Note_on_c, 5, 74, 110
7, 54479, Note_on_c, 5, 74, 0
7, 54480, Note_on_c, 5, 76, 110
7, 54539, Note_on_c, 5, 76, 0
7, 54540, Note_on_c, 5, 74, 110
7, 54599, Note_on_c, 5, 74, 0
7, 54600, Note_on_c, 5, 78, 110
7, 54659, Note_on_c, 5, 78, 0
7, 54660, Note_on_c, 5, 76, 110
7, 54719, Note_on_c, 5, 76, 0
7, 54720, Note_on_c, 5, 76, 110
7, 54779, Note_on_c, 5, 76, 0
7, 54780, Note_on_c, 5, 73, 110
7, 54839, Note_on_c, 5, 73, 0
7, 54840, Note_on_c, 5, 74, 110
7, 54960, Note_on_c, 5, 74, 0
7, 54960, Note_on_c, 5, 71, 110
7, 54989, Note_on_c, 5, 71, 0
7, 54990, Note_on_c, 5, 69, 110
7, 55019, Note_on_c, 5, 69, 0
7, 55020, Note_on_c, 5, 71, 110
7, 55049, Note_on_c, 5, 71, 0
7, 55050, Note_on_c, 5, 73, 110
7, 55079, Note_on_c, 5, 73, 0
7, 55080, Note_on_c, 5, 74, 110
7, 55139, Note_on_c, 5, 74, 0
7, 55140, Note_on_c, 5, 73, 110
7, 55199, Note_on_c, 5, 73, 0
7, 55200, Note_on_c, 5, 74, 110
7, 55259, Note_on_c, 5, 74, 0
7, 55260, Note_on_c, 5, 73, 110
7, 55319, Note_on_c, 5, 73, 0
7, 55320, Note_on_c, 5, 76, 110
7, 55379, Note_on_c, 5, 76, 0
7, 55380, Note_on_c, 5, 74, 110
7, 55439, Note_on_c, 5, 74, 0
7, 55440, Note_on_c, 5, 74, 110
7, 55499, Note_on_c, 5, 74, 0
7, 55500, Note_on_c, 5, 71, 110
7, 55559, Note_on_c, 5, 71, 0
7, 55560, Note_on_c, 5, 73, 110
7, 55679, Note_on_c, 5, 73, 0
7, 55680, Note_on_c, 5, 73, 110
7, 55739, Note_on_c, 5, 73, 0
7, 55740, Note_on_c, 5, 71, 110
7, 55799, Note_on_c, 5, 71, 0
7, 55800, Note_on_c, 5, 69, 110
7, 55919, Note_on_c, 5, 69, 0
7, 55920, Note_on_c, 5, 68, 110
7, 56039, Note_on_c, 5, 68, 0
7, 56040, Note_on_c, 5, 69, 110
7, 56129, Note_on_c, 5, 69, 0
7, 56130, Note_on_c, 5, 73, 110
7, 56159, Note_on_c, 5, 73, 0
7, 56160, Note_on_c, 5, 71, 110
7, 56400, Note_on_c, 5, 71, 0
7, 56400, Note_on_c, 5, 73, 110
7, 56459, Note_on_c, 5, 73, 0
7, 56460, Note_on_c, 5, 71, 110
7, 56489, Note_on_c, 5, 71, 0
7, 56490, Note_on_c, 5, 73, 110
7, 56519, Note_on_c, 5, 73, 0
7, 56520, Note_on_c, 5, 74, 110
7, 56579, Note_on_c, 5, 74, 0
7, 56580, Note_on_c, 5, 73, 110
7, 56639, Note_on_c, 5, 73, 0
7, 56640, Note_on_c, 5, 71, 110
7, 56699, Note_on_c, 5, 71, 0
7, 56700, Note_on_c, 5, 69, 110
7, 56759, Note_on_c, 5, 69, 0
7, 56760, Note_on_c, 5, 68, 110
7, 56789, Note_on_c, 5, 68, 0
7, 56790, Note_on_c, 5, 69, 110
7, 56819, Note_on_c, 5, 69, 0
7, 56820, Note_on_c, 5, 71, 110
7, 56849, Note_on_c, 5, 71, 0
7, 56850, Note_on_c, 5, 68, 110
7, 56879, Note_on_c, 5, 68, 0
7, 56880, Note_on_c, 5, 69, 110
7, 57119, Note_on_c, 5, 69, 0
7, 74820, Note_on_c, 5, 71, 110
7, 74880, Note_on_c, 5, 71, 0
7, 74880, Note_on_c, 5, 76, 110
7, 74940, Note_on_c, 5, 76, 0
7, 74940, Note_on_c, 5, 75, 110
7, 75000, Note_on_c, 5, 75, 0
7, 75000, Note_on_c, 5, 76, 110
7, 75060, Note_on_c, 5, 76, 0
7, 75090, Note_on_c, 5, 71, 110
7, 75120, Note_on_c, 5, 71, 0
7, 75120, Note_on_c, 5, 68, 110
7, 75180, Note_on_c, 5, 68, 0
7, 75180, Note_on_c, 5, 69, 110
7, 75240, Note_on_c, 5, 69, 0
7, 75240, Note_on_c, 5, 71, 110
7, 75300, Note_on_c, 5, 71, 0
7, 75300, Note_on_c, 5, 64, 110
7, 75360, Note_on_c, 5, 64, 0
7, 75360, Note_on_c, 5, 76, 110
7, 75420, Note_on_c, 5, 76, 0
7, 75420, Note_on_c, 5, 71, 110
7, 75480, Note_on_c, 5, 71, 0
7, 75480, Note_on_c, 5, 73, 110
7, 75600, Note_on_c, 5, 73, 0
7, 75630, Note_on_c, 5, 69, 110
7, 75660, Note_on_c, 5, 69, 0
7, 75660, Note_on_c, 5, 73, 110
7, 75690, Note_on_c, 5, 73, 0
7, 75690, Note_on_c, 5, 74, 110
7, 75720, Note_on_c, 5, 74, 0
7, 75720, Note_on_c, 5, 76, 110
7, 75780, Note_on_c, 5, 76, 0
7, 75780, Note_on_c, 5, 76, 110
7, 75840, Note_on_c, 5, 76, 0
7, 75840, Note_on_c, 5, 81, 110
7, 75900, Note_on_c, 5, 81, 0
7, 75900, Note_on_c, 5, 76, 110
7, 75960, Note_on_c, 5, 76, 0
7, 75960, Note_on_c, 5, 78, 110
7, 76020, Note_on_c, 5, 78, 0
7, 76020, Note_on_c, 5, 78, 110
7, 76080, Note_on_c, 5, 78, 0
7, 76140, Note_on_c, 5, 78, 110
7, 76200, Note_on_c, 5, 78, 0
7, 76200, Note_on_c, 5, 78, 110
7, 76260, Note_on_c, 5, 78, 0
7, 76260, Note_on_c, 5, 73, 110
7, 76320, Note_on_c, 5, 73, 0
7, 76320, Note_on_c, 5, 70, 110
7, 76380, Note_on_c, 5, 70, 0
7, 76380, Note_on_c, 5, 71, 110
7, 76440, Note_on_c, 5, 71, 0
7, 76440, Note_on_c, 5, 73, 110
7, 76500, Note_on_c, 5, 73, 0
7, 76500, Note_on_c, 5, 66, 110
7, 76560, Note_on_c, 5, 66, 0
7, 76560, Note_on_c, 5, 66, 110
7, 76620, Note_on_c, 5, 66, 0
7, 76650, Note_on_c, 5, 78, 110
7, 76680, Note_on_c, 5, 78, 0
7, 76680, Note_on_c, 5, 78, 110
7, 76740, Note_on_c, 5, 78, 0
7, 76740, Note_on_c, 5, 71, 110
7, 76800, Note_on_c, 5, 71, 0
7, 76800, Note_on_c, 5, 76, 110
7, 76860, Note_on_c, 5, 76, 0
7, 76860, Note_on_c, 5, 74, 110
7, 76920, Note_on_c, 5, 74, 0
7, 76920, Note_on_c, 5, 73, 110
7, 76980, Note_on_c, 5, 73, 0
7, 76980, Note_on_c, 5, 71, 110
7, 77040, Note_on_c, 5, 71, 0
7, 80520, Note_on_c, 5, 66, 110
7, 80759, Note_on_c, 5, 66, 0
7, 80760, Note_on_c, 5, 71, 110
7, 80879, Note_on_c, 5, 71, 0
7, 80880, Note_on_c, 5, 73, 110
7, 80999, Note_on_c, 5, 73, 0
7, 81000, Note_on_c, 5, 71, 110
7, 81119, Note_on_c, 5, 71, 0
7, 81120, Note_on_c, 5, 70, 110
7, 81239, Note_on_c, 5, 70, 0
7, 81240, Note_on_c, 5, 71, 110
7, 81479, Note_on_c, 5, 71, 0
7, 81600, Note_on_c, 5, 74, 110
7, 81839, Note_on_c, 5, 74, 0
7, 81840, Note_on_c, 5, 76, 110
7, 81959, Note_on_c, 5, 76, 0
7, 81960, Note_on_c, 5, 78, 110
7, 82079, Note_on_c, 5, 78, 0
7, 82080, Note_on_c, 5, 74, 110
7, 82199, Note_on_c, 5, 74, 0
7, 82200, Note_on_c, 5, 73, 110
7, 82319, Note_on_c, 5, 73, 0
7, 82320, Note_on_c, 5, 74, 110
7, 82559, Note_on_c, 5, 74, 0
7, 83040, Note_on_c, 5, 66, 110
7, 83279, Note_on_c, 5, 66, 0
7, 83280, Note_on_c, 5, 71, 110
7, 83399, Note_on_c, 5, 71, 0
7, 83400, Note_on_c, 5, 73, 110
7, 83519, Note_on_c, 5, 73, 0
7, 83520, Note_on_c, 5, 71, 110
7, 83639, Note_on_c, 5, 71, 0
7, 83640, Note_on_c, 5, 70, 110
7, 83759, Note_on_c, 5, 70, 0
7, 83760, Note_on_c, 5, 71, 110
7, 84119, Note_on_c, 5, 71, 0
7, 84240, Note_on_c, 5, 70, 110
7, 84359, Note_on_c, 5, 70, 0
7, 84360, Note_on_c, 5, 71, 110
7, 84419, Note_on_c, 5, 71, 0
7, 84420, Note_on_c, 5, 73, 110
7, 84479, Note_on_c, 5, 73, 0
7, 84480, Note_on_c, 5, 74, 110
7, 84659, Note_on_c, 5, 74, 0
7, 84660, Note_on_c, 5, 76, 110
7, 84689, Note_on_c, 5, 76, 0
7, 84690, Note_on_c, 5, 78, 110
7, 84719, Note_on_c, 5, 78, 0
7, 84720, Note_on_c, 5, 76, 110
7, 84779, Note_on_c, 5, 76, 0
7, 84780, Note_on_c, 5, 78, 110
7, 84809, Note_on_c, 5, 78, 0
7, 84810, Note_on_c, 5, 79, 110
7, 84839, Note_on_c, 5, 79, 0
7, 84840, Note_on_c, 5, 78, 110
7, 84959, Note_on_c, 5, 78, 0
7, 84960, Note_on_c, 5, 74, 110
7, 85079, Note_on_c, 5, 74, 0
7, 85080, Note_on_c, 5, 73, 110
7, 85199, Note_on_c, 5, 73, 0
7, 85200, Note_on_c, 5, 74, 110
7, 85439, Note_on_c, 5, 74, 0
7, 85560, Note_on_c, 5, 78, 110
7, 85679, Note_on_c, 5, 78, 0
7, 85680, Note_on_c, 5, 76, 110
7, 85799, Note_on_c, 5, 76, 0
7, 85800, Note_on_c, 5, 74, 110
7, 85919, Note_on_c, 5, 74, 0
7, 85920, Note_on_c, 5, 76, 110
7, 86039, Note_on_c, 5, 76, 0
7, 86040, Note_on_c, 5, 74, 110
7, 86159, Note_on_c, 5, 74, 0
7, 86160, Note_on_c, 5, 73, 110
7, 86279, Note_on_c, 5, 73, 0
7, 86280, Note_on_c, 5, 74, 110
7, 86399, Note_on_c, 5, 74, 0
7, 86400, Note_on_c, 5, 76, 110
7, 86459, Note_on_c, 5, 76, 0
7, 86460, Note_on_c, 5, 74, 110
7, 86519, Note_on_c, 5, 74, 0
7, 86520, Note_on_c, 5, 73, 110
7, 86579, Note_on_c, 5, 73, 0
7, 86580, Note_on_c, 5, 71, 110
7, 86639, Note_on_c, 5, 71, 0
7, 86640, Note_on_c, 5, 70, 110
7, 86819, Note_on_c, 5, 70, 0
7, 86820, Note_on_c, 5, 68, 110
7, 86879, Note_on_c, 5, 68, 0
7, 86880, Note_on_c, 5, 66, 110
7, 86999, Note_on_c, 5, 66, 0
7, 87120, Note_on_c, 5, 66, 110
7, 87239, Note_on_c, 5, 66, 0
7, 87240, Note_on_c, 5, 71, 110
7, 87359, Note_on_c, 5, 71, 0
7, 87360, Note_on_c, 5, 73, 110
7, 87479, Note_on_c, 5, 73, 0
7, 87480, Note_on_c, 5, 70, 110
7, 87719, Note_on_c, 5, 70, 0
7, 87720, Note_on_c, 5, 71, 110
7, 87839, Note_on_c, 5, 71, 0
7, 88440, Note_on_c, 5, 66, 110
7, 88679, Note_on_c, 5, 66, 0
7, 88680, Note_on_c, 5, 71, 110
7, 88799, Note_on_c, 5, 71, 0
7, 88800, Note_on_c, 5, 73, 110
7, 88919, Note_on_c, 5, 73, 0
7, 88920, Note_on_c, 5, 71, 110
7, 89039, Note_on_c, 5, 71, 0
7, 89040, Note_on_c, 5, 70, 110
7, 89159, Note_on_c, 5, 70, 0
7, 89160, Note_on_c, 5, 71, 110
7, 89279, Note_on_c, 5, 71, 0
7, 89280, Note_on_c, 5, 74, 110
7, 89399, Note_on_c, 5, 74, 0
7, 89400, Note_on_c, 5, 76, 110
7, 89519, Note_on_c, 5, 76, 0
7, 89520, Note_on_c, 5, 78, 110
7, 89639, Note_on_c, 5, 78, 0
7, 89640, Note_on_c, 5, 74, 110
7, 89759, Note_on_c, 5, 74, 0
7, 89760, Note_on_c, 5, 73, 110
7, 89879, Note_on_c, 5, 73, 0
7, 89880, Note_on_c, 5, 74, 110
7, 90239, Note_on_c, 5, 74, 0
7, 90600, Note_on_c, 5, 78, 110
7, 90719, Note_on_c, 5, 78, 0
7, 90720, Note_on_c, 5, 76, 110
7, 90839, Note_on_c, 5, 76, 0
7, 90840, Note_on_c, 5, 74, 110
7, 90959, Note_on_c, 5, 74, 0
7, 90960, Note_on_c, 5, 76, 110
7, 91079, Note_on_c, 5, 76, 0
7, 91080, Note_on_c, 5, 74, 110
7, 91199, Note_on_c, 5, 74, 0
7, 91200, Note_on_c, 5, 73, 110
7, 91319, Note_on_c, 5, 73, 0
7, 92040, Note_on_c, 5, 74, 110
7, 92159, Note_on_c, 5, 74, 0
7, 92160, Note_on_c, 5, 76, 110
7, 92219, Note_on_c, 5, 76, 0
7, 92220, Note_on_c, 5, 74, 110
7, 92279, Note_on_c, 5, 74, 0
7, 92280, Note_on_c, 5, 73, 110
7, 92339, Note_on_c, 5, 73, 0
7, 92340, Note_on_c, 5, 71, 110
7, 92399, Note_on_c, 5, 71, 0
7, 92400, Note_on_c, 5, 70, 110
7, 92579, Note_on_c, 5, 70, 0
7, 92580, Note_on_c, 5, 71, 110
7, 92609, Note_on_c, 5, 71, 0
7, 92610, Note_on_c, 5, 73, 110
7, 92639, Note_on_c, 5, 73, 0
7, 92640, Note_on_c, 5, 66, 110
7, 92759, Note_on_c, 5, 66, 0
7, 92880, Note_on_c, 5, 78, 110
7, 92999, Note_on_c, 5, 78, 0
7, 93000, Note_on_c, 5, 78, 110
7, 93119, Note_on_c, 5, 78, 0
7, 93120, Note_on_c, 5, 78, 110
7, 93299, Note_on_c, 5, 78, 0
7, 93300, Note_on_c, 5, 66, 110
7, 93359, Note_on_c, 5, 66, 0
7, 93360, Note_on_c, 5, 66, 110
7, 93479, Note_on_c, 5, 66, 0
7, 93540, Note_on_c, 5, 78, 110
7, 93599, Note_on_c, 5, 78, 0
7, 93600, Note_on_c, 5, 79, 110
7, 93659, Note_on_c, 5, 79, 0
7, 93660, Note_on_c, 5, 78, 110
7, 93719, Note_on_c, 5, 78, 0
7, 93720, Note_on_c, 5, 76, 110
7, 93779, Note_on_c, 5, 76, 0
7, 93780, Note_on_c, 5, 74, 110
7, 93839, Note_on_c, 5, 74, 0
7, 93840, Note_on_c, 5, 76, 110
7, 93959, Note_on_c, 5, 76, 0
7, 93960, Note_on_c, 5, 76, 110
7, 94019, Note_on_c, 5, 76, 0
7, 94020, Note_on_c, 5, 74, 110
7, 94079, Note_on_c, 5, 74, 0
7, 94080, Note_on_c, 5, 73, 110
7, 94199, Note_on_c, 5, 73, 0
7, 94260, Note_on_c, 5, 78, 110
7, 94319, Note_on_c, 5, 78, 0
7, 94320, Note_on_c, 5, 76, 110
7, 94379, Note_on_c, 5, 76, 0
7, 94380, Note_on_c, 5, 74, 110
7, 94439, Note_on_c, 5, 74, 0
7, 94440, Note_on_c, 5, 73, 110
7, 94499, Note_on_c, 5, 73, 0
7, 94500, Note_on_c, 5, 71, 110
7, 94559, Note_on_c, 5, 71, 0
7, 94560, Note_on_c, 5, 70, 110
7, 94679, Note_on_c, 5, 70, 0
7, 94680, Note_on_c, 5, 70, 110
7, 94739, Note_on_c, 5, 70, 0
7, 94740, Note_on_c, 5, 68, 110
7, 94799, Note_on_c, 5, 68, 0
7, 94800, Note_on_c, 5, 66, 110
7, 94919, Note_on_c, 5, 66, 0
7, 95040, Note_on_c, 5, 66, 110
7, 95159, Note_on_c, 5, 66, 0
7, 95160, Note_on_c, 5, 71, 110
7, 95279, Note_on_c, 5, 71, 0
7, 95280, Note_on_c, 5, 73, 110
7, 95399, Note_on_c, 5, 73, 0
7, 95400, Note_on_c, 5, 70, 110
7, 95639, Note_on_c, 5, 70, 0
7, 95640, Note_on_c, 5, 71, 110
7, 95879, Note_on_c, 5, 71, 0
7, 100230, Note_on_c, 5, 76, 110
7, 100260, Note_on_c, 5, 76, 0
7, 100260, Note_on_c, 5, 76, 110
7, 100290, Note_on_c, 5, 76, 0
7, 100290, Note_on_c, 5, 73, 110
7, 100320, Note_on_c, 5, 73, 0
7, 100320, Note_on_c, 5, 69, 110
7, 100380, Note_on_c, 5, 69, 0
7, 100380, Note_on_c, 5, 69, 110
7, 100440, Note_on_c, 5, 69, 0
7, 100440, Note_on_c, 5, 79, 110
7, 100500, Note_on_c, 5, 79, 0
7, 100500, Note_on_c, 5, 78, 110
7, 100560, Note_on_c, 5, 78, 0
7, 100560, Note_on_c, 5, 78, 110
7, 100680, Note_on_c, 5, 78, 0
7, 100740, Note_on_c, 5, 74, 110
7, 100800, Note_on_c, 5, 74, 0
7, 100800, Note_on_c, 5, 74, 110
7, 100860, Note_on_c, 5, 74, 0
7, 100860, Note_on_c, 5, 67, 110
7, 100920, Note_on_c, 5, 67, 0
7, 100980, Note_on_c, 5, 67, 110
7, 101040, Note_on_c, 5, 67, 0
7, 101040, Note_on_c, 5, 76, 110
7, 101100, Note_on_c, 5, 76, 0
7, 101100, Note_on_c, 5, 76, 110
7, 101160, Note_on_c, 5, 76, 0
7, 101160, Note_on_c, 5, 78, 110
7, 101220, Note_on_c, 5, 78, 0
7, 101220, Note_on_c, 5, 79, 110
7, 101280, Note_on_c, 5, 79, 0
7, 101280, Note_on_c, 5, 79, 110
7, 101340, Note_on_c, 5, 79, 0
7, 101340, Note_on_c, 5, 74, 110
7, 101400, Note_on_c, 5, 74, 0
7, 109200, Note_on_c, 5, 74, 110
7, 109319, Note_on_c, 5, 74, 0
7, 109320, Note_on_c, 5, 79, 110
7, 109379, Note_on_c, 5, 79, 0
7, 109380, Note_on_c, 5, 74, 110
7, 109439, Note_on_c, 5, 74, 0
7, 109440, Note_on_c, 5, 74, 110
7, 109559, Note_on_c, 5, 74, 0
7, 109560, Note_on_c, 5, 76, 110
7, 109619, Note_on_c, 5, 76, 0
7, 109620, Note_on_c, 5, 78, 110
7, 109679, Note_on_c, 5, 78, 0
7, 109680, Note_on_c, 5, 79, 110
7, 109739, Note_on_c, 5, 79, 0
7, 109740, Note_on_c, 5, 74, 110
7, 109799, Note_on_c, 5, 74, 0
7, 109800, Note_on_c, 5, 74, 110
7, 109919, Note_on_c, 5, 74, 0
7, 109920, Note_on_c, 5, 72, 110
7, 109979, Note_on_c, 5, 72, 0
7, 109980, Note_on_c, 5, 71, 110
7, 110039, Note_on_c, 5, 71, 0
7, 110040, Note_on_c, 5, 72, 110
7, 110099, Note_on_c, 5, 72, 0
7, 110100, Note_on_c, 5, 74, 110
7, 110159, Note_on_c, 5, 74, 0
7, 110160, Note_on_c, 5, 76, 110
7, 110219, Note_on_c, 5, 76, 0
7, 110220, Note_on_c, 5, 74, 110
7, 110279, Note_on_c, 5, 74, 0
7, 110280, Note_on_c, 5, 72, 110
7, 110339, Note_on_c, 5, 72, 0
7, 110340, Note_on_c, 5, 71, 110
7, 110399, Note_on_c, 5, 71, 0
7, 110400, Note_on_c, 5, 69, 110
7, 110519, Note_on_c, 5, 69, 0
7, 110520, Note_on_c, 5, 69, 110
7, 110639, Note_on_c, 5, 69, 0
7, 110820, Note_on_c, 5, 74, 110
7, 110879, Note_on_c, 5, 74, 0
7, 110880, Note_on_c, 5, 79, 110
7, 110939, Note_on_c, 5, 79, 0
7, 110940, Note_on_c, 5, 74, 110
7, 110999, Note_on_c, 5, 74, 0
7, 111000, Note_on_c, 5, 74, 110
7, 111119, Note_on_c, 5, 74, 0
7, 111180, Note_on_c, 5, 74, 110
7, 111239, Note_on_c, 5, 74, 0
7, 111240, Note_on_c, 5, 79, 110
7, 111299, Note_on_c, 5, 79, 0
7, 111300, Note_on_c, 5, 74, 110
7, 111359, Note_on_c, 5, 74, 0
7, 111360, Note_on_c, 5, 74, 110
7, 111419, Note_on_c, 5, 74, 0
7, 111540, Note_on_c, 5, 67, 110
7, 111599, Note_on_c, 5, 67, 0
7, 111600, Note_on_c, 5, 76, 110
7, 111659, Note_on_c, 5, 76, 0
7, 111660, Note_on_c, 5, 74, 110
7, 111719, Note_on_c, 5, 74, 0
7, 111720, Note_on_c, 5, 72, 110
7, 111779, Note_on_c, 5, 72, 0
7, 111780, Note_on_c, 5, 71, 110
7, 111839, Note_on_c, 5, 71, 0
7, 111840, Note_on_c, 5, 69, 110
7, 111959, Note_on_c, 5, 69, 0
7, 111960, Note_on_c, 5, 69, 110
7, 112079, Note_on_c, 5, 69, 0
7, 112200, Note_on_c, 5, 67, 110
7, 112259, Note_on_c, 5, 67, 0
7, 112260, Note_on_c, 5, 69, 110
7, 112319, Note_on_c, 5, 69, 0
7, 112320, Note_on_c, 5, 71, 110
7, 112439, Note_on_c, 5, 71, 0
7, 112440, Note_on_c, 5, 71, 110
7, 112559, Note_on_c, 5, 71, 0
7, 112560, Note_on_c, 5, 72, 110
7, 112619, Note_on_c, 5, 72, 0
7, 112620, Note_on_c, 5, 71, 110
7, 112679, Note_on_c, 5, 71, 0
7, 112680, Note_on_c, 5, 72, 110
7, 112919, Note_on_c, 5, 72, 0
7, 112920, Note_on_c, 5, 69, 110
7, 112979, Note_on_c, 5, 69, 0
7, 112980, Note_on_c, 5, 71, 110
7, 113039, Note_on_c, 5, 71, 0
7, 113040, Note_on_c, 5, 72, 110
7, 113159, Note_on_c, 5, 72, 0
7, 113160, Note_on_c, 5, 71, 110
7, 113219, Note_on_c, 5, 71, 0
7, 113220, Note_on_c, 5, 69, 110
7, 113279, Note_on_c, 5, 69, 0
7, 113280, Note_on_c, 5, 74, 110
7, 113339, Note_on_c, 5, 74, 0
7, 113340, Note_on_c, 5, 73, 110
7, 113399, Note_on_c, 5, 73, 0
7, 113400, Note_on_c, 5, 74, 110
7, 113579, Note_on_c, 5, 74, 0
7, 113580, Note_on_c, 5, 72, 110
7, 113639, Note_on_c, 5, 72, 0
7, 113640, Note_on_c, 5, 71, 110
7, 113699, Note_on_c, 5, 71, 0
7, 113700, Note_on_c, 5, 74, 110
7, 113759, Note_on_c, 5, 74, 0
7, 113760, Note_on_c, 5, 62, 110
7, 113879, Note_on_c, 5, 62, 0
7, 113880, Note_on_c, 5, 66, 110
7, 113999, Note_on_c, 5, 66, 0
7, 114000, Note_on_c, 5, 67, 110
7, 114119, Note_on_c, 5, 67, 0
7, 114120, Note_on_c, 5, 67, 110
7, 114239, Note_on_c, 5, 67, 0
7, 114480, Note_on_c, 5, 67, 110
7, 114539, Note_on_c, 5, 67, 0
7, 114540, Note_on_c, 5, 69, 110
7, 114599, Note_on_c, 5, 69, 0
7, 114600, Note_on_c, 5, 71, 110
7, 114659, Note_on_c, 5, 71, 0
7, 114660, Note_on_c, 5, 67, 110
7, 114719, Note_on_c, 5, 67, 0
7, 114720, Note_on_c, 5, 72, 110
7, 114779, Note_on_c, 5, 72, 0
7, 114780, Note_on_c, 5, 71, 110
7, 114839, Note_on_c, 5, 71, 0
7, 114840, Note_on_c, 5, 72, 110
7, 114959, Note_on_c, 5, 72, 0
7, 115200, Note_on_c, 5, 69, 110
7, 115259, Note_on_c, 5, 69, 0
7, 115260, Note_on_c, 5, 71, 110
7, 115319, Note_on_c, 5, 71, 0
7, 115320, Note_on_c, 5, 72, 110
7, 115379, Note_on_c, 5, 72, 0
7, 115380, Note_on_c, 5, 69, 110
7, 115439, Note_on_c, 5, 69, 0
7, 115560, Note_on_c, 5, 74, 110
7, 115619, Note_on_c, 5, 74, 0
7, 115620, Note_on_c, 5, 76, 110
7, 115679, Note_on_c, 5, 76, 0
7, 115680, Note_on_c, 5, 78, 110
7, 115739, Note_on_c, 5, 78, 0
7, 115740, Note_on_c, 5, 74, 110
7, 115799, Note_on_c, 5, 74, 0
7, 115800, Note_on_c, 5, 79, 110
7, 115859, Note_on_c, 5, 79, 0
7, 115860, Note_on_c, 5, 62, 110
7, 115919, Note_on_c, 5, 62, 0
7, 115920, Note_on_c, 5, 67, 110
7, 115979, Note_on_c, 5, 67, 0
7, 115980, Note_on_c, 5, 71, 110
7, 116039, Note_on_c, 5, 71, 0
7, 116040, Note_on_c, 5, 69, 110
7, 116099, Note_on_c, 5, 69, 0
7, 116100, Note_on_c, 5, 66, 110
7, 116159, Note_on_c, 5, 66, 0
7, 116160, Note_on_c, 5, 67, 110
7, 116279, Note_on_c, 5, 67, 0
7, 116280, Note_on_c, 5, 67, 110
7, 116399, Note_on_c, 5, 67, 0
7, 131460, Note_on_c, 5, 67, 110
7, 131520, Note_on_c, 5, 67, 0
7, 131520, Note_on_c, 5, 79, 110
7, 131580, Note_on_c, 5, 79, 0
7, 131580, Note_on_c, 5, 76, 110
7, 131640, Note_on_c, 5, 76, 0
7, 131640, Note_on_c, 5, 72, 110
7, 131760, Note_on_c, 5, 72, 0
7, 131820, Note_on_c, 5, 76, 110
7, 131880, Note_on_c, 5, 76, 0
7, 131880, Note_on_c, 5, 76, 110
7, 131940, Note_on_c, 5, 76, 0
7, 131940, Note_on_c, 5, 73, 110
7, 132000, Note_on_c, 5, 73, 0
7, 132000, Note_on_c, 5, 69, 110
7, 132060, Note_on_c, 5, 69, 0
7, 132060, Note_on_c, 5, 69, 110
7, 132120, Note_on_c, 5, 69, 0
7, 132120, Note_on_c, 5, 69, 110
7, 132180, Note_on_c, 5, 69, 0
7, 132180, Note_on_c, 5, 69, 110
7, 132240, Note_on_c, 5, 69, 0
7, 132240, Note_on_c, 5, 78, 110
7, 132300, Note_on_c, 5, 78, 0
7, 132300, Note_on_c, 5, 78, 110
7, 132360, Note_on_c, 5, 78, 0
7, 132420, Note_on_c, 5, 78, 110
7, 132480, Note_on_c, 5, 78, 0
7, 132480, Note_on_c, 5, 81, 110
7, 132540, Note_on_c, 5, 81, 0
7, 132540, Note_on_c, 5, 78, 110
7, 132600, Note_on_c, 5, 78, 0
7, 132600, Note_on_c, 5, 74, 110
7, 132660, Note_on_c, 5, 74, 0
7, 132660, Note_on_c, 5, 78, 110
7, 132720, Note_on_c, 5, 78, 0
7, 132720, Note_on_c, 5, 79, 110
7, 132780, Note_on_c, 5, 79, 0
7, 132780, Note_on_c, 5, 79, 110
7, 132840, Note_on_c, 5, 79, 0
7, 132900, Note_on_c, 5, 67, 110
7, 132960, Note_on_c, 5, 67, 0
7, 132960, Note_on_c, 5, 74, 110
7, 133020, Note_on_c, 5, 74, 0
7, 133020, Note_on_c, 5, 74, 110
7, 133080, Note_on_c, 5, 74, 0
7, 133080, Note_on_c, 5, 79, 110
7, 133140, Note_on_c, 5, 79, 0
7, 133140, Note_on_c, 5, 74, 110
7, 133200, Note_on_c, 5, 74, 0
7, 133200, Note_on_c, 5, 71, 110
7, 133260, Note_on_c, 5, 71, 0
7, 133260, Note_on_c, 5, 71, 110
7, 133320, Note_on_c, 5, 71, 0
7, 133320, Note_on_c, 5, 74, 110
7, 133380, Note_on_c, 5, 74, 0
7, 133380, Note_on_c, 5, 67, 110
7, 133440, Note_on_c, 5, 67, 0
7, 133440, Note_on_c, 5, 76, 110
7, 133500, Note_on_c, 5, 76, 0
7, 133500, Note_on_c, 5, 76, 110
7, 133530, Note_on_c, 5, 76, 0
7, 133530, Note_on_c, 5, 76, 110
7, 133560, Note_on_c, 5, 76, 0
7, 133560, Note_on_c, 5, 73, 110
7, 133620, Note_on_c, 5, 73, 0
7, 133620, Note_on_c, 5, 69, 110
7, 133680, Note_on_c, 5, 69, 0
7, 133680, Note_on_c, 5, 78, 110
7, 133740, Note_on_c, 5, 78, 0
7, 133740, Note_on_c, 5, 76, 110
7, 133800, Note_on_c, 5, 76, 0
7, 133800, Note_on_c, 5, 79, 110
7, 133860, Note_on_c, 5, 79, 0
7, 133860, Note_on_c, 5, 78, 110
7, 133920, Note_on_c, 5, 78, 0
7, 133920, Note_on_c, 5, 76, 110
7, 133980, Note_on_c, 5, 76, 0
7, 133980, Note_on_c, 5, 74, 110
7, 134040, Note_on_c, 5, 74, 0
7, 140520, Note_on_c, 5, 64, 110
7, 140579, Note_on_c, 5, 64, 0
7, 140580, Note_on_c, 5, 69, 110
7, 140639, Note_on_c, 5, 69, 0
7, 140640, Note_on_c, 5, 71, 110
7, 140699, Note_on_c, 5, 71, 0
7, 140700, Note_on_c, 5, 71, 110
7, 140729, Note_on_c, 5, 71, 0
7, 140730, Note_on_c, 5, 73, 110
7, 140819, Note_on_c, 5, 73, 0
7, 140820, Note_on_c, 5, 71, 110
7, 140879, Note_on_c, 5, 71, 0
7, 140880, Note_on_c, 5, 64, 110
7, 140939, Note_on_c, 5, 64, 0
7, 140940, Note_on_c, 5, 71, 110
7, 140999, Note_on_c, 5, 71, 0
7, 141000, Note_on_c, 5, 73, 110
7, 141059, Note_on_c, 5, 73, 0
7, 141060, Note_on_c, 5, 73, 110
7, 141089, Note_on_c, 5, 73, 0
7, 141090, Note_on_c, 5, 74, 110
7, 141179, Note_on_c, 5, 74, 0
7, 141180, Note_on_c, 5, 73, 110
7, 141239, Note_on_c, 5, 73, 0
7, 141240, Note_on_c, 5, 76, 110
7, 141299, Note_on_c, 5, 76, 0
7, 141300, Note_on_c, 5, 76, 110
7, 141359, Note_on_c, 5, 76, 0
7, 141360, Note_on_c, 5, 76, 110
7, 141419, Note_on_c, 5, 76, 0
7, 141420, Note_on_c, 5, 76, 110
7, 141479, Note_on_c, 5, 76, 0
7, 141480, Note_on_c, 5, 74, 110
7, 141509, Note_on_c, 5, 74, 0
7, 141510, Note_on_c, 5, 73, 110
7, 141539, Note_on_c, 5, 73, 0
7, 141540, Note_on_c, 5, 71, 110
7, 141569, Note_on_c, 5, 71, 0
7, 141570, Note_on_c, 5, 69, 110
7, 141599, Note_on_c, 5, 69, 0
7, 141600, Note_on_c, 5, 68, 110
7, 141659, Note_on_c, 5, 68, 0
7, 141660, Note_on_c, 5, 74, 110
7, 141719, Note_on_c, 5, 74, 0
7, 141720, Note_on_c, 5, 73, 110
7, 141779, Note_on_c, 5, 73, 0
7, 141780, Note_on_c, 5, 73, 110
7, 141809, Note_on_c, 5, 73, 0
7, 141810, Note_on_c, 5, 71, 110
7, 141899, Note_on_c, 5, 71, 0
7, 141900, Note_on_c, 5, 71, 110
7, 141929, Note_on_c, 5, 71, 0
7, 141930, Note_on_c, 5, 73, 110
7, 141944, Note_on_c, 5, 73, 0
7, 141945, Note_on_c, 5, 74, 110
7, 141959, Note_on_c, 5, 74, 0
7, 141960, Note_on_c, 5, 73, 110
7, 142079, Note_on_c, 5, 73, 0
7, 142080, Note_on_c, 5, 71, 110
7, 142139, Note_on_c, 5, 71, 0
7, 142140, Note_on_c, 5, 69, 110
7, 142199, Note_on_c, 5, 69, 0
7, 142200, Note_on_c, 5, 64, 110
7, 142259, Note_on_c, 5, 64, 0
7, 142260, Note_on_c, 5, 76, 110
7, 142319, Note_on_c, 5, 76, 0
7, 142320, Note_on_c, 5, 76, 110
7, 142379, Note_on_c, 5, 76, 0
7, 142380, Note_on_c, 5, 74, 110
7, 142439, Note_on_c, 5, 74, 0
7, 142440, Note_on_c, 5, 73, 110
7, 142499, Note_on_c, 5, 73, 0
7, 142500, Note_on_c, 5, 71, 110
7, 142559, Note_on_c, 5, 71, 0
7, 142560, Note_on_c, 5, 64, 110
7, 142619, Note_on_c, 5, 64, 0
7, 142620, Note_on_c, 5, 64, 110
7, 142679, Note_on_c, 5, 64, 0
7, 142680, Note_on_c, 5, 69, 110
7, 142769, Note_on_c, 5, 69, 0
7, 142770, Note_on_c, 5, 71, 110
7, 142784, Note_on_c, 5, 71, 0
7, 142785, Note_on_c, 5, 73, 110
7, 142799, Note_on_c, 5, 73, 0
7, 142800, Note_on_c, 5, 71, 110
7, 142829, Note_on_c, 5, 71, 0
7, 142830, Note_on_c, 5, 73, 110
7, 142845, Note_on_c, 5, 73, 0
7, 142845, Note_on_c, 5, 74, 110
7, 142860, Note_on_c, 5, 74, 0
7, 142860, Note_on_c, 5, 73, 110
7, 142919, Note_on_c, 5, 73, 0
7, 142920, Note_on_c, 5, 69, 110
7, 142979, Note_on_c, 5, 69, 0
7, 142980, Note_on_c, 5, 76, 110
7, 143039, Note_on_c, 5, 76, 0
7, 143040, Note_on_c, 5, 76, 110
7, 143099, Note_on_c, 5, 76, 0
7, 143100, Note_on_c, 5, 74, 110
7, 143129, Note_on_c, 5, 74, 0
7, 143130, Note_on_c, 5, 73, 110
7, 143159, Note_on_c, 5, 73, 0
7, 143160, Note_on_c, 5, 71, 110
7, 143189, Note_on_c, 5, 71, 0
7, 143190, Note_on_c, 5, 69, 110
7, 143219, Note_on_c, 5, 69, 0
7, 143220, Note_on_c, 5, 69, 110
7, 143249, Note_on_c, 5, 69, 0
7, 143250, Note_on_c, 5, 68, 110
7, 143339, Note_on_c, 5, 68, 0
7, 143400, Note_on_c, 5, 76, 110
7, 143459, Note_on_c, 5, 76, 0
7, 143460, Note_on_c, 5, 74, 110
7, 143519, Note_on_c, 5, 74, 0
7, 143520, Note_on_c, 5, 73, 110
7, 143579, Note_on_c, 5, 73, 0
7, 143580, Note_on_c, 5, 74, 110
7, 143669, Note_on_c, 5, 74, 0
7, 143670, Note_on_c, 5, 76, 110
7, 143684, Note_on_c, 5, 76, 0
7, 143685, Note_on_c, 5, 78, 110
7, 143699, Note_on_c, 5, 78, 0
7, 143700, Note_on_c, 5, 76, 110
7, 143759, Note_on_c, 5, 76, 0
7, 143760, Note_on_c, 5, 74, 110
7, 143819, Note_on_c, 5, 74, 0
7, 143820, Note_on_c, 5, 73, 110
7, 143879, Note_on_c, 5, 73, 0
7, 143880, Note_on_c, 5, 71, 110
7, 143939, Note_on_c, 5, 71, 0
7, 143940, Note_on_c, 5, 73, 110
7, 144029, Note_on_c, 5, 73, 0
7, 144030, Note_on_c, 5, 74, 110
7, 144044, Note_on_c, 5, 74, 0
7, 144045, Note_on_c, 5, 76, 110
7, 144059, Note_on_c, 5, 76, 0
7, 144060, Note_on_c, 5, 74, 110
7, 144119, Note_on_c, 5, 74, 0
7, 144120, Note_on_c, 5, 64, 110
7, 144179, Note_on_c, 5, 64, 0
7, 144180, Note_on_c, 5, 64, 110
7, 144239, Note_on_c, 5, 64, 0
7, 144240, Note_on_c, 5, 64, 110
7, 144299, Note_on_c, 5, 64, 0
7, 144300, Note_on_c, 5, 64, 110
7, 144359, Note_on_c, 5, 64, 0
7, 144360, Note_on_c, 5, 66, 110
7, 144389, Note_on_c, 5, 66, 0
7, 144390, Note_on_c, 5, 68, 110
7, 144419, Note_on_c, 5, 68, 0
7, 144420, Note_on_c, 5, 69, 110
7, 144449, Note_on_c, 5, 69, 0
7, 144450, Note_on_c, 5, 71, 110
7, 144479, Note_on_c, 5, 71, 0
7, 144480, Note_on_c, 5, 73, 110
7, 144539, Note_on_c, 5, 73, 0
7, 144540, Note_on_c, 5, 74, 110
7, 144599, Note_on_c, 5, 74, 0
7, 144600, Note_on_c, 5, 71, 110
7, 144659, Note_on_c, 5, 71, 0
7, 144660, Note_on_c, 5, 69, 110
7, 144779, Note_on_c, 5, 69, 0
7, 144780, Note_on_c, 5, 76, 110
7, 144839, Note_on_c, 5, 76, 0
7, 144840, Note_on_c, 5, 73, 110
7, 144899, Note_on_c, 5, 73, 0
7, 144900, Note_on_c, 5, 74, 110
7, 144959, Note_on_c, 5, 74, 0
7, 144960, Note_on_c, 5, 76, 110
7, 145019, Note_on_c, 5, 76, 0
7, 145020, Note_on_c, 5, 78, 110
7, 145079, Note_on_c, 5, 78, 0
7, 145080, Note_on_c, 5, 74, 110
7, 145139, Note_on_c, 5, 74, 0
7, 145140, Note_on_c, 5, 73, 110
7, 145199, Note_on_c, 5, 73, 0
7, 145200, Note_on_c, 5, 71, 110
7, 145259, Note_on_c, 5, 71, 0
7, 145260, Note_on_c, 5, 73, 110
7, 145319, Note_on_c, 5, 73, 0
7, 145320, Note_on_c, 5, 74, 110
7, 145379, Note_on_c, 5, 74, 0
7, 145380, Note_on_c, 5, 76, 110
7, 145439, Note_on_c, 5, 76, 0
7, 145440, Note_on_c, 5, 73, 110
7, 145499, Note_on_c, 5, 73, 0
7, 145500, Note_on_c, 5, 71, 110
7, 145559, Note_on_c, 5, 71, 0
7, 145560, Note_on_c, 5, 69, 110
7, 145619, Note_on_c, 5, 69, 0
7, 145620, Note_on_c, 5, 71, 110
7, 145679, Note_on_c, 5, 71, 0
7, 145680, Note_on_c, 5, 73, 110
7, 145739, Note_on_c, 5, 73, 0
7, 145740, Note_on_c, 5, 74, 110
7, 145799, Note_on_c, 5, 74, 0
7, 145800, Note_on_c, 5, 73, 110
7, 145829, Note_on_c, 5, 73, 0
7, 145830, Note_on_c, 5, 71, 110
7, 145859, Note_on_c, 5, 71, 0
7, 145860, Note_on_c, 5, 76, 110
7, 145919, Note_on_c, 5, 76, 0
7, 145920, Note_on_c, 5, 69, 110
7, 145979, Note_on_c, 5, 69, 0
7, 145980, Note_on_c, 5, 71, 110
7, 146039, Note_on_c, 5, 71, 0
7, 146040, Note_on_c, 5, 68, 110
7, 146099, Note_on_c, 5, 68, 0
7, 146100, Note_on_c, 5, 69, 110
7, 146279, Note_on_c, 5, 69, 0
7, 151980, Note_on_c, 5, 73, 110
7, 152039, Note_on_c, 5, 73, 0
7, 152040, Note_on_c, 5, 78, 110
7, 152159, Note_on_c, 5, 78, 0
7, 152160, Note_on_c, 5, 73, 110
7, 152219, Note_on_c, 5, 73, 0
7, 152220, Note_on_c, 5, 71, 110
7, 152279, Note_on_c, 5, 71, 0
7, 152280, Note_on_c, 5, 69, 110
7, 152339, Note_on_c, 5, 69, 0
7, 152340, Note_on_c, 5, 68, 110
7, 152399, Note_on_c, 5, 68, 0
7, 152400, Note_on_c, 5, 69, 110
7, 152459, Note_on_c, 5, 69, 0
7, 152460, Note_on_c, 5, 71, 110
7, 152519, Note_on_c, 5, 71, 0
7, 152520, Note_on_c, 5, 73, 110
7, 152579, Note_on_c, 5, 73, 0
7, 152580, Note_on_c, 5, 66, 110
7, 152699, Note_on_c, 5, 66, 0
7, 152700, Note_on_c, 5, 75, 110
7, 152759, Note_on_c, 5, 75, 0
7, 152760, Note_on_c, 5, 76, 110
7, 152879, Note_on_c, 5, 76, 0
7, 152880, Note_on_c, 5, 71, 110
7, 152939, Note_on_c, 5, 71, 0
7, 152940, Note_on_c, 5, 69, 110
7, 152999, Note_on_c, 5, 69, 0
7, 153000, Note_on_c, 5, 68, 110
7, 153059, Note_on_c, 5, 68, 0
7, 153060, Note_on_c, 5, 66, 110
7, 153119, Note_on_c, 5, 66, 0
7, 153120, Note_on_c, 5, 68, 110
7, 153179, Note_on_c, 5, 68, 0
7, 153180, Note_on_c, 5, 69, 110
7, 153239, Note_on_c, 5, 69, 0
7, 153240, Note_on_c, 5, 71, 110
7, 153299, Note_on_c, 5, 71, 0
7, 153300, Note_on_c, 5, 64, 110
7, 153419, Note_on_c, 5, 64, 0
7, 153420, Note_on_c, 5, 76, 110
7, 153479, Note_on_c, 5, 76, 0
7, 153480, Note_on_c, 5, 73, 110
7, 153539, Note_on_c, 5, 73, 0
7, 153540, Note_on_c, 5, 72, 110
7, 153599, Note_on_c, 5, 72, 0
7, 153600, Note_on_c, 5, 73, 110
7, 153659, Note_on_c, 5, 73, 0
7, 153660, Note_on_c, 5, 75, 110
7, 153749, Note_on_c, 5, 75, 0
7, 153750, Note_on_c, 5, 76, 110
7, 153764, Note_on_c, 5, 76, 0
7, 153765, Note_on_c, 5, 78, 110
7, 153779, Note_on_c, 5, 78, 0
7, 153780, Note_on_c, 5, 76, 110
7, 153839, Note_on_c, 5, 76, 0
7, 153840, Note_on_c, 5, 75, 110
7, 153899, Note_on_c, 5, 75, 0
7, 153900, Note_on_c, 5, 72, 110
7, 153959, Note_on_c, 5, 72, 0
7, 153960, Note_on_c, 5, 73, 110
7, 154019, Note_on_c, 5, 73, 0
7, 154020, Note_on_c, 5, 68, 110
7, 154680, Note_on_c, 5, 68, 0
7, 154860, Note_on_c, 5, 73, 110
7, 154919, Note_on_c, 5, 73, 0
7, 154920, Note_on_c, 5, 69, 110
7, 154979, Note_on_c, 5, 69, 0
7, 154980, Note_on_c, 5, 73, 110
7, 155039, Note_on_c, 5, 73, 0
7, 155040, Note_on_c, 5, 78, 110
7, 155099, Note_on_c, 5, 78, 0
7, 155100, Note_on_c, 5, 81, 110
7, 155159, Note_on_c, 5, 81, 0
7, 155160, Note_on_c, 5, 80, 110
7, 155219, Note_on_c, 5, 80, 0
7, 155220, Note_on_c, 5, 78, 110
7, 155279, Note_on_c, 5, 78, 0
7, 155280, Note_on_c, 5, 76, 110
7, 155339, Note_on_c, 5, 76, 0
7, 155340, Note_on_c, 5, 73, 110
7, 155399, Note_on_c, 5, 73, 0
7, 155400, Note_on_c, 5, 72, 110
7, 155459, Note_on_c, 5, 72, 0
7, 155460, Note_on_c, 5, 73, 110
7, 155579, Note_on_c, 5, 73, 0
7, 157020, Note_on_c, 5, 76, 110
7, 157079, Note_on_c, 5, 76, 0
7, 157080, Note_on_c, 5, 76, 110
7, 157199, Note_on_c, 5, 76, 0
7, 157200, Note_on_c, 5, 76, 110
7, 157259, Note_on_c, 5, 76, 0
7, 157260, Note_on_c, 5, 76, 110
7, 157379, Note_on_c, 5, 76, 0
7, 157380, Note_on_c, 5, 76, 110
7, 157439, Note_on_c, 5, 76, 0
7, 157440, Note_on_c, 5, 76, 110
7, 157469, Note_on_c, 5, 76, 0
7, 157470, Note_on_c, 5, 81, 110
7, 157499, Note_on_c, 5, 81, 0
7, 157500, Note_on_c, 5, 80, 110
7, 157529, Note_on_c, 5, 80, 0
7, 157530, Note_on_c, 5, 78, 110
7, 157559, Note_on_c, 5, 78, 0
7, 157560, Note_on_c, 5, 76, 110
7, 157589, Note_on_c, 5, 76, 0
7, 157590, Note_on_c, 5, 74, 110
7, 157619, Note_on_c, 5, 74, 0
7, 157620, Note_on_c, 5, 73, 110
7, 157679, Note_on_c, 5, 73, 0
7, 157680, Note_on_c, 5, 71, 110
7, 157709, Note_on_c, 5, 71, 0
7, 157710, Note_on_c, 5, 69, 110
7, 157739, Note_on_c, 5, 69, 0
7, 157740, Note_on_c, 5, 73, 110
7, 157799, Note_on_c, 5, 73, 0
7, 157800, Note_on_c, 5, 73, 110
7, 157919, Note_on_c, 5, 73, 0
7, 157920, Note_on_c, 5, 73, 110
7, 157979, Note_on_c, 5, 73, 0
7, 157980, Note_on_c, 5, 73, 110
7, 158099, Note_on_c, 5, 73, 0
7, 158100, Note_on_c, 5, 73, 110
7, 158159, Note_on_c, 5, 73, 0
7, 158160, Note_on_c, 5, 73, 110
7, 158189, Note_on_c, 5, 73, 0
7, 158190, Note_on_c, 5, 78, 110
7, 158219, Note_on_c, 5, 78, 0
7, 158220, Note_on_c, 5, 76, 110
7, 158249, Note_on_c, 5, 76, 0
7, 158250, Note_on_c, 5, 74, 110
7, 158279, Note_on_c, 5, 74, 0
7, 158280, Note_on_c, 5, 73, 110
7, 158309, Note_on_c, 5, 73, 0
7, 158310, Note_on_c, 5, 71, 110
7, 158339, Note_on_c, 5, 71, 0
7, 158340, Note_on_c, 5, 69, 110
7, 158399, Note_on_c, 5, 69, 0
7, 158400, Note_on_c, 5, 66, 110
7, 158459, Note_on_c, 5, 66, 0
7, 158460, Note_on_c, 5, 69, 110
7, 158519, Note_on_c, 5, 69, 0
7, 158520, Note_on_c, 5, 68, 110
7, 158549, Note_on_c, 5, 68, 0
7, 158550, Note_on_c, 5, 69, 110
7, 158579, Note_on_c, 5, 69, 0
7, 158580, Note_on_c, 5, 71, 110
7, 158609, Note_on_c, 5, 71, 0
7, 158610, Note_on_c, 5, 73, 110
7, 158639, Note_on_c, 5, 73, 0
7, 158640, Note_on_c, 5, 74, 110
7, 158699, Note_on_c, 5, 74, 0
7, 158700, Note_on_c, 5, 74, 110
7, 158759, Note_on_c, 5, 74, 0
7, 158760, Note_on_c, 5, 73, 110
7, 158819, Note_on_c, 5, 73, 0
7, 158820, Note_on_c, 5, 71, 110
7, 158879, Note_on_c, 5, 71, 0
7, 158880, Note_on_c, 5, 69, 110
7, 158939, Note_on_c, 5, 69, 0
7, 158940, Note_on_c, 5, 71, 110
7, 158969, Note_on_c, 5, 71, 0
7, 158970, Note_on_c, 5, 69, 110
7, 158999, Note_on_c, 5, 69, 0
7, 159000, Note_on_c, 5, 68, 110
7, 159029, Note_on_c, 5, 68, 0
7, 159030, Note_on_c, 5, 66, 110
7, 159059, Note_on_c, 5, 66, 0
7, 159060, Note_on_c, 5, 73, 110
7, 159720, Note_on_c, 5, 73, 0
7, 159900, Note_on_c, 5, 78, 110
7, 159959, Note_on_c, 5, 78, 0
7, 159960, Note_on_c, 5, 74, 110
7, 160019, Note_on_c, 5, 74, 0
7, 160020, Note_on_c, 5, 73, 110
7, 160079, Note_on_c, 5, 73, 0
7, 160080, Note_on_c, 5, 71, 110
7, 160139, Note_on_c, 5, 71, 0
7, 160140, Note_on_c, 5, 73, 110
7, 160199, Note_on_c, 5, 73, 0
7, 160200, Note_on_c, 5, 65, 110
7, 160259, Note_on_c, 5, 65, 0
7, 160260, Note_on_c, 5, 66, 110
7, 160319, Note_on_c, 5, 66, 0
7, 160320, Note_on_c, 5, 71, 110
7, 160349, Note_on_c, 5, 71, 0
7, 160350, Note_on_c, 5, 73, 110
7, 160379, Note_on_c, 5, 73, 0
7, 160380, Note_on_c, 5, 68, 110
7, 160499, Note_on_c, 5, 68, 0
7, 160500, Note_on_c, 5, 66, 110
7, 160679, Note_on_c, 5, 66, 0
7, 166440, Note_on_c, 5, 64, 110
7, 166499, Note_on_c, 5, 64, 0
7, 166500, Note_on_c, 5, 69, 110
7, 166559, Note_on_c, 5, 69, 0
7, 166560, Note_on_c, 5, 71, 110
7, 166619, Note_on_c, 5, 71, 0
7, 166620, Note_on_c, 5, 71, 110
7, 166649, Note_on_c, 5, 71, 0
7, 166650, Note_on_c, 5, 73, 110
7, 166739, Note_on_c, 5, 73, 0
7, 166740, Note_on_c, 5, 71, 110
7, 166799, Note_on_c, 5, 71, 0
7, 166800, Note_on_c, 5, 64, 110
7, 166859, Note_on_c, 5, 64, 0
7, 166860, Note_on_c, 5, 71, 110
7, 166919, Note_on_c, 5, 71, 0
7, 166920, Note_on_c, 5, 73, 110
7, 166979, Note_on_c, 5, 73, 0
7, 166980, Note_on_c, 5, 73, 110
7, 167009, Note_on_c, 5, 73, 0
7, 167010, Note_on_c, 5, 74, 110
7, 167099, Note_on_c, 5, 74, 0
7, 167100, Note_on_c, 5, 73, 110
7, 167159, Note_on_c, 5, 73, 0
7, 167160, Note_on_c, 5, 76, 110
7, 167219, Note_on_c, 5, 76, 0
7, 167220, Note_on_c, 5, 76, 110
7, 167279, Note_on_c, 5, 76, 0
7, 167280, Note_on_c, 5, 76, 110
7, 167339, Note_on_c, 5, 76, 0
7, 167340, Note_on_c, 5, 76, 110
7, 167399, Note_on_c, 5, 76, 0
7, 167400, Note_on_c, 5, 74, 110
7, 167429, Note_on_c, 5, 74, 0
7, 167430, Note_on_c, 5, 73, 110
7, 167459, Note_on_c, 5, 73, 0
7, 167460, Note_on_c, 5, 71, 110
7, 167489, Note_on_c, 5, 71, 0
7, 167490, Note_on_c, 5, 69, 110
7, 167519, Note_on_c, 5, 69, 0
7, 167520, Note_on_c, 5, 68, 110
7, 167579, Note_on_c, 5, 68, 0
7, 167580, Note_on_c, 5, 74, 110
7, 167639, Note_on_c, 5, 74, 0
7, 167640, Note_on_c, 5, 73, 110
7, 167699, Note_on_c, 5, 73, 0
7, 167700, Note_on_c, 5, 73, 110
7, 167729, Note_on_c, 5, 73, 0
7, 167730, Note_on_c, 5, 71, 110
7, 167819, Note_on_c, 5, 71, 0
7, 167820, Note_on_c, 5, 71, 110
7, 167849, Note_on_c, 5, 71, 0
7, 167850, Note_on_c, 5, 73, 110
7, 167864, Note_on_c, 5, 73, 0
7, 167865, Note_on_c, 5, 74, 110
7, 167879, Note_on_c, 5, 74, 0
7, 167880, Note_on_c, 5, 73, 110
7, 167999, Note_on_c, 5, 73, 0
7, 168000, Note_on_c, 5, 71, 110
7, 168059, Note_on_c, 5, 71, 0
7, 168060, Note_on_c, 5, 69, 110
7, 168119, Note_on_c, 5, 69, 0
7, 168120, Note_on_c, 5, 64, 110
7, 168179, Note_on_c, 5, 64, 0
7, 168180, Note_on_c, 5, 76, 110
7, 168239, Note_on_c, 5, 76, 0
7, 168240, Note_on_c, 5, 76, 110
7, 168299, Note_on_c, 5, 76, 0
7, 168300, Note_on_c, 5, 74, 110
7, 168359, Note_on_c, 5, 74, 0
7, 168360, Note_on_c, 5, 73, 110
7, 168419, Note_on_c, 5, 73, 0
7, 168420, Note_on_c, 5, 71, 110
7, 168479, Note_on_c, 5, 71, 0
7, 168480, Note_on_c, 5, 64, 110
7, 168539, Note_on_c, 5, 64, 0
7, 168540, Note_on_c, 5, 64, 110
7, 168599, Note_on_c, 5, 64, 0
7, 168600, Note_on_c, 5, 69, 110
7, 168689, Note_on_c, 5, 69, 0
7, 168690, Note_on_c, 5, 71, 110
7, 168704, Note_on_c, 5, 71, 0
7, 168705, Note_on_c, 5, 73, 110
7, 168719, Note_on_c, 5, 73, 0
7, 168720, Note_on_c, 5, 71, 110
7, 168749, Note_on_c, 5, 71, 0
7, 168750, Note_on_c, 5, 73, 110
7, 168765, Note_on_c, 5, 73, 0
7, 168765, Note_on_c, 5, 74, 110
7, 168780, Note_on_c, 5, 74, 0
7, 168780, Note_on_c, 5, 73, 110
7, 168839, Note_on_c, 5, 73, 0
7, 168840, Note_on_c, 5, 69, 110
7, 168899, Note_on_c, 5, 69, 0
7, 168900, Note_on_c, 5, 76, 110
7, 168959, Note_on_c, 5, 76, 0
7, 168960, Note_on_c, 5, 76, 110
7, 169019, Note_on_c, 5, 76, 0
7, 169020, Note_on_c, 5, 74, 110
7, 169049, Note_on_c, 5, 74, 0
7, 169050, Note_on_c, 5, 73, 110
7, 169079, Note_on_c, 5, 73, 0
7, 169080, Note_on_c, 5, 71, 110
7, 169109, Note_on_c, 5, 71, 0
7, 169110, Note_on_c, 5, 69, 110
7, 169139, Note_on_c, 5, 69, 0
7, 169140, Note_on_c, 5, 69, 110
7, 169169, Note_on_c, 5, 69, 0
7, 169170, Note_on_c, 5, 68, 110
7, 169259, Note_on_c, 5, 68, 0
7, 169320, Note_on_c, 5, 76, 110
7, 169379, Note_on_c, 5, 76, 0
7, 169380, Note_on_c, 5, 74, 110
7, 169439, Note_on_c, 5, 74, 0
7, 169440, Note_on_c, 5, 73, 110
7, 169499, Note_on_c, 5, 73, 0
7, 169500, Note_on_c, 5, 74, 110
7, 169589, Note_on_c, 5, 74, 0
7, 169590, Note_on_c, 5, 76, 110
7, 169604, Note_on_c, 5, 76, 0
7, 169605, Note_on_c, 5, 78, 110
7, 169619, Note_on_c, 5, 78, 0
7, 169620, Note_on_c, 5, 76, 110
7, 169679, Note_on_c, 5, 76, 0
7, 169680, Note_on_c, 5, 74, 110
7, 169739, Note_on_c, 5, 74, 0
7, 169740, Note_on_c, 5, 73, 110
7, 169799, Note_on_c, 5, 73, 0
7, 169800, Note_on_c, 5, 71, 110
7, 169859, Note_on_c, 5, 71, 0
7, 169860, Note_on_c, 5, 73, 110
7, 169949, Note_on_c, 5, 73, 0
7, 169950, Note_on_c, 5, 74, 110
7, 169964, Note_on_c, 5, 74, 0
7, 169965, Note_on_c, 5, 76, 110
7, 169979, Note_on_c, 5, 76, 0
7, 169980, Note_on_c, 5, 74, 110
7, 170039, Note_on_c, 5, 74, 0
7, 170040, Note_on_c, 5, 64, 110
7, 170099, Note_on_c, 5, 64, 0
7, 170100, Note_on_c, 5, 64, 110
7, 170159, Note_on_c, 5, 64, 0
7, 170160, Note_on_c, 5, 64, 110
7, 170219, Note_on_c, 5, 64, 0
7, 170220, Note_on_c, 5, 64, 110
7, 170279, Note_on_c, 5, 64, 0
7, 170280, Note_on_c, 5, 66, 110
7, 170309, Note_on_c, 5, 66, 0
7, 170310, Note_on_c, 5, 68, 110
7, 170339, Note_on_c, 5, 68, 0
7, 170340, Note_on_c, 5, 69, 110
7, 170369, Note_on_c, 5, 69, 0
7, 170370, Note_on_c, 5, 71, 110
7, 170399, Note_on_c, 5, 71, 0
7, 170400, Note_on_c, 5, 73, 110
7, 170459, Note_on_c, 5, 73, 0
7, 170460, Note_on_c, 5, 74, 110
7, 170519, Note_on_c, 5, 74, 0
7, 170520, Note_on_c, 5, 71, 110
7, 170579, Note_on_c, 5, 71, 0
7, 170580, Note_on_c, 5, 69, 110
7, 170699, Note_on_c, 5, 69, 0
7, 170700, Note_on_c, 5, 76, 110
7, 170759, Note_on_c, 5, 76, 0
7, 170760, Note_on_c, 5, 73, 110
7, 170819, Note_on_c, 5, 73, 0
7, 170820, Note_on_c, 5, 74, 110
7, 170879, Note_on_c, 5, 74, 0
7, 170880, Note_on_c, 5, 76, 110
7, 170939, Note_on_c, 5, 76, 0
7, 170940, Note_on_c, 5, 78, 110
7, 170999, Note_on_c, 5, 78, 0
7, 171000, Note_on_c, 5, 74, 110
7, 171059, Note_on_c, 5, 74, 0
7, 171060, Note_on_c, 5, 73, 110
7, 171119, Note_on_c, 5, 73, 0
7, 171120, Note_on_c, 5, 71, 110
7, 171179, Note_on_c, 5, 71, 0
7, 171180, Note_on_c, 5, 73, 110
7, 171239, Note_on_c, 5, 73, 0
7, 171240, Note_on_c, 5, 74, 110
7, 171299, Note_on_c, 5, 74, 0
7, 171300, Note_on_c, 5, 76, 110
7, 171359, Note_on_c, 5, 76, 0
7, 171360, Note_on_c, 5, 73, 110
7, 171419, Note_on_c, 5, 73, 0
7, 171420, Note_on_c, 5, 71, 110
7, 171479, Note_on_c, 5, 71, 0
7, 171480, Note_on_c, 5, 69, 110
7, 171539, Note_on_c, 5, 69, 0
7, 171540, Note_on_c, 5, 71, 110
7, 171599, Note_on_c, 5, 71, 0
7, 171600, Note_on_c, 5, 73, 110
7, 171659, Note_on_c, 5, 73, 0
7, 171660, Note_on_c, 5, 74, 110
7, 171719, Note_on_c, 5, 74, 0
7, 171720, Note_on_c, 5, 73, 110
7, 171749, Note_on_c, 5, 73, 0
7, 171750, Note_on_c, 5, 71, 110
7, 171779, Note_on_c, 5, 71, 0
7, 171780, Note_on_c, 5, 76, 110
7, 171839, Note_on_c, 5, 76, 0
7, 171840, Note_on_c, 5, 69, 110
7, 171899, Note_on_c, 5, 69, 0
7, 171900, Note_on_c, 5, 71, 110
7, 171959, Note_on_c, 5, 71, 0
7, 171960, Note_on_c, 5, 68, 110
7, 172019, Note_on_c, 5, 68, 0
7, 172020, Note_on_c, 5, 69, 110
7, 172199, Note_on_c, 5, 69, 0
7, 190140, Note_on_c, 5, 76, 110
7, 190200, Note_on_c, 5, 76, 0
7, 190200, Note_on_c, 5, 78, 110
7, 190260, Note_on_c, 5, 78, 0
7, 190260, Note_on_c, 5, 79, 110
7, 190320, Note_on_c, 5, 79, 0
7, 190320, Note_on_c, 5, 78, 110
7, 190380, Note_on_c, 5, 78, 0
7, 190380, Note_on_c, 5, 76, 110
7, 190440, Note_on_c, 5, 76, 0
7, 190440, Note_on_c, 5, 74, 110
7, 190500, Note_on_c, 5, 74, 0
7, 190500, Note_on_c, 5, 76, 110
7, 190560, Note_on_c, 5, 76, 0
7, 190560, Note_on_c, 5, 74, 110
7, 190680, Note_on_c, 5, 74, 0
7, 190740, Note_on_c, 5, 66, 110
7, 190800, Note_on_c, 5, 66, 0
7, 190800, Note_on_c, 5, 71, 110
7, 190860, Note_on_c, 5, 71, 0
7, 190860, Note_on_c, 5, 71, 110
7, 190920, Note_on_c, 5, 71, 0
7, 190920, Note_on_c, 5, 71, 110
7, 190980, Note_on_c, 5, 71, 0
7, 190980, Note_on_c, 5, 73, 110
7, 191040, Note_on_c, 5, 73, 0
7, 191040, Note_on_c, 5, 74, 110
7, 191070, Note_on_c, 5, 74, 0
7, 191070, Note_on_c, 5, 69, 110
7, 191100, Note_on_c, 5, 69, 0
7, 191100, Note_on_c, 5, 69, 110
7, 191160, Note_on_c, 5, 69, 0
7, 191220, Note_on_c, 5, 69, 110
7, 191280, Note_on_c, 5, 69, 0
7, 191280, Note_on_c, 5, 74, 110
7, 191340, Note_on_c, 5, 74, 0
7, 191340, Note_on_c, 5, 74, 110
7, 191400, Note_on_c, 5, 74, 0
7, 191400, Note_on_c, 5, 76, 110
7, 191460, Note_on_c, 5, 76, 0
7, 191460, Note_on_c, 5, 78, 110
7, 191520, Note_on_c, 5, 78, 0
7, 191520, Note_on_c, 5, 79, 110
7, 191580, Note_on_c, 5, 79, 0
7, 191580, Note_on_c, 5, 76, 110
7, 191640, Note_on_c, 5, 76, 0
7, 191640, Note_on_c, 5, 73, 110
7, 191700, Note_on_c, 5, 73, 0
7, 191700, Note_on_c, 5, 76, 110
7, 191760, Note_on_c, 5, 76, 0
7, 191760, Note_on_c, 5, 78, 110
7, 191820, Note_on_c, 5, 78, 0
7, 191820, Note_on_c, 5, 78, 110
7, 191880, Note_on_c, 5, 78, 0
7, 191940, Note_on_c, 5, 78, 110
7, 192000, Note_on_c, 5, 78, 0
7, 192000, Note_on_c, 5, 78, 110
7, 192060, Note_on_c, 5, 78, 0
7, 192060, Note_on_c, 5, 71, 110
7, 192120, Note_on_c, 5, 71, 0
7, 192180, Note_on_c, 5, 71, 110
7, 192240, Note_on_c, 5, 71, 0
7, 192240, Note_on_c, 5, 71, 110
7, 192300, Note_on_c, 5, 71, 0
7, 192300, Note_on_c, 5, 68, 110
7, 192330, Note_on_c, 5, 68, 0
7, 192330, Note_on_c, 5, 69, 110
7, 192360, Note_on_c, 5, 69, 0
7, 192360, Note_on_c, 5, 71, 110
7, 192420, Note_on_c, 5, 71, 0
7, 192420, Note_on_c, 5, 71, 110
7, 192480, Note_on_c, 5, 71, 0
7, 192480, Note_on_c, 5, 76, 110
7, 192540, Note_on_c, 5, 76, 0
7, 192540, Note_on_c, 5, 71, 110
7, 192600, Note_on_c, 5, 71, 0
7, 192600, Note_on_c, 5, 74, 110
7, 192660, Note_on_c, 5, 74, 0
7, 192660, Note_on_c, 5, 73, 110
7, 192720, Note_on_c, 5, 73, 0
7, 192720, Note_on_c, 5, 73, 110
7, 192780, Note_on_c, 5, 73, 0
7, 192780, Note_on_c, 5, 73, 110
7, 192840, Note_on_c, 5, 73, 0
7, 192960, Note_on_c, 5, 74, 110
7, 193019, Note_on_c, 5, 74, 0
7, 193020, Note_on_c, 5, 76, 110
7, 193079, Note_on_c, 5, 76, 0
7, 193080, Note_on_c, 5, 74, 110
7, 193199, Note_on_c, 5, 74, 0
7, 193200, Note_on_c, 5, 74, 110
7, 193319, Note_on_c, 5, 74, 0
7, 193320, Note_on_c, 5, 74, 110
7, 193379, Note_on_c, 5, 74, 0
7, 193380, Note_on_c, 5, 76, 110
7, 193439, Note_on_c, 5, 76, 0
7, 193440, Note_on_c, 5, 74, 110
7, 193559, Note_on_c, 5, 74, 0
7, 193560, Note_on_c, 5, 74, 110
7, 193679, Note_on_c, 5, 74, 0
7, 193680, Note_on_c, 5, 71, 110
7, 193799, Note_on_c, 5, 71, 0
7, 193800, Note_on_c, 5, 76, 110
7, 193919, Note_on_c, 5, 76, 0
7, 193920, Note_on_c, 5, 76, 110
7, 193979, Note_on_c, 5, 76, 0
7, 193980, Note_on_c, 5, 74, 110
7, 194039, Note_on_c, 5, 74, 0
7, 194040, Note_on_c, 5, 73, 110
7, 194099, Note_on_c, 5, 73, 0
7, 194100, Note_on_c, 5, 71, 110
7, 194159, Note_on_c, 5, 71, 0
7, 194160, Note_on_c, 5, 69, 110
7, 194399, Note_on_c, 5, 69, 0
7, 194400, Note_on_c, 5, 74, 110
7, 194459, Note_on_c, 5, 74, 0
7, 194460, Note_on_c, 5, 76, 110
7, 194519, Note_on_c, 5, 76, 0
7, 194520, Note_on_c, 5, 74, 110
7, 194639, Note_on_c, 5, 74, 0
7, 194640, Note_on_c, 5, 74, 110
7, 194759, Note_on_c, 5, 74, 0
7, 194760, Note_on_c, 5, 74, 110
7, 194819, Note_on_c, 5, 74, 0
7, 194820, Note_on_c, 5, 76, 110
7, 194879, Note_on_c, 5, 76, 0
7, 194880, Note_on_c, 5, 74, 110
7, 194999, Note_on_c, 5, 74, 0
7, 195000, Note_on_c, 5, 74, 110
7, 195119, Note_on_c, 5, 74, 0
7, 195120, Note_on_c, 5, 71, 110
7, 195239, Note_on_c, 5, 71, 0
7, 195240, Note_on_c, 5, 76, 110
7, 195359, Note_on_c, 5, 76, 0
7, 195360, Note_on_c, 5, 76, 110
7, 195419, Note_on_c, 5, 76, 0
7, 195420, Note_on_c, 5, 74, 110
7, 195479, Note_on_c, 5, 74, 0
7, 195480, Note_on_c, 5, 73, 110
7, 195539, Note_on_c, 5, 73, 0
7, 195540, Note_on_c, 5, 71, 110
7, 195599, Note_on_c, 5, 71, 0
7, 195600, Note_on_c, 5, 69, 110
7, 195839, Note_on_c, 5, 69, 0
7, 195840, Note_on_c, 5, 76, 110
7, 195899, Note_on_c, 5, 76, 0
7, 195900, Note_on_c, 5, 78, 110
7, 195929, Note_on_c, 5, 78, 0
7, 195930, Note_on_c, 5, 79, 110
7, 195959, Note_on_c, 5, 79, 0
7, 195960, Note_on_c, 5, 78, 110
7, 196079, Note_on_c, 5, 78, 0
7, 196080, Note_on_c, 5, 76, 110
7, 196139, Note_on_c, 5, 76, 0
7, 196140, Note_on_c, 5, 74, 110
7, 196199, Note_on_c, 5, 74, 0
7, 196200, Note_on_c, 5, 76, 110
7, 196259, Note_on_c, 5, 76, 0
7, 196260, Note_on_c, 5, 73, 110
7, 196319, Note_on_c, 5, 73, 0
7, 196320, Note_on_c, 5, 74, 110
7, 196559, Note_on_c, 5, 74, 0
7, 196560, Note_on_c, 5, 79, 110
7, 196679, Note_on_c, 5, 79, 0
7, 196680, Note_on_c, 5, 78, 110
7, 196799, Note_on_c, 5, 78, 0
7, 196800, Note_on_c, 5, 76, 110
7, 196860, Note_on_c, 5, 76, 0
7, 196860, Note_on_c, 5, 74, 110
7, 196920, Note_on_c, 5, 74, 0
7, 196920, Note_on_c, 5, 79, 110
7, 197039, Note_on_c, 5, 79, 0
7, 197040, Note_on_c, 5, 78, 110
7, 197159, Note_on_c, 5, 78, 0
7, 197160, Note_on_c, 5, 76, 110
7, 197219, Note_on_c, 5, 76, 0
7, 197220, Note_on_c, 5, 74, 110
7, 197279, Note_on_c, 5, 74, 0
7, 197280, Note_on_c, 5, 79, 110
7, 197399, Note_on_c, 5, 79, 0
7, 197400, Note_on_c, 5, 78, 110
7, 197519, Note_on_c, 5, 78, 0
7, 197520, Note_on_c, 5, 76, 110
7, 197579, Note_on_c, 5, 76, 0
7, 197580, Note_on_c, 5, 74, 110
7, 197639, Note_on_c, 5, 74, 0
7, 197640, Note_on_c, 5, 76, 110
7, 197699, Note_on_c, 5, 76, 0
7, 197700, Note_on_c, 5, 73, 110
7, 197759, Note_on_c, 5, 73, 0
7, 197760, Note_on_c, 5, 74, 110
7, 197999, Note_on_c, 5, 74, 0
7, 198000, Note_on_c, 5, 79, 110
7, 198119, Note_on_c, 5, 79, 0
7, 198120, Note_on_c, 5, 78, 110
7, 198239, Note_on_c, 5, 78, 0
7, 198240, Note_on_c, 5, 76, 110
7, 198299, Note_on_c, 5, 76, 0
7, 198300, Note_on_c, 5, 74, 110
7, 198359, Note_on_c, 5, 74, 0
7, 198360, Note_on_c, 5, 79, 110
7, 198479, Note_on_c, 5, 79, 0
7, 198480, Note_on_c, 5, 78, 110
7, 198599, Note_on_c, 5, 78, 0
7, 198600, Note_on_c, 5, 76, 110
7, 198659, Note_on_c, 5, 76, 0
7, 198660, Note_on_c, 5, 74, 110
7, 198719, Note_on_c, 5, 74, 0
7, 198720, Note_on_c, 5, 79, 110
7, 198839, Note_on_c, 5, 79, 0
7, 198840, Note_on_c, 5, 78, 110
7, 198959, Note_on_c, 5, 78, 0
7, 198960, Note_on_c, 5, 76, 110
7, 199019, Note_on_c, 5, 76, 0
7, 199020, Note_on_c, 5, 74, 110
7, 199079, Note_on_c, 5, 74, 0
7, 199080, Note_on_c, 5, 76, 110
7, 199139, Note_on_c, 5, 76, 0
7, 199140, Note_on_c, 5, 73, 110
7, 199199, Note_on_c, 5, 73, 0
7, 199200, Note_on_c, 5, 74, 110
7, 199439, Note_on_c, 5, 74, 0
7, 269340, Note_on_c, 5, 76, 110
7, 269400, Note_on_c, 5, 76, 0
7, 269400, Note_on_c, 5, 76, 110
7, 269460, Note_on_c, 5, 76, 0
7, 269460, Note_on_c, 5, 69, 110
7, 269520, Note_on_c, 5, 69, 0
7, 269520, Note_on_c, 5, 78, 110
7, 269580, Note_on_c, 5, 78, 0
7, 269580, Note_on_c, 5, 76, 110
7, 269640, Note_on_c, 5, 76, 0
7, 269640, Note_on_c, 5, 74, 110
7, 269700, Note_on_c, 5, 74, 0
7, 269700, Note_on_c, 5, 73, 110
7, 269760, Note_on_c, 5, 73, 0
7, 269760, Note_on_c, 5, 71, 110
7, 269820, Note_on_c, 5, 71, 0
7, 269820, Note_on_c, 5, 69, 110
7, 269880, Note_on_c, 5, 69, 0
7, 270900, Note_on_c, 5, 69, 110
7, 270960, Note_on_c, 5, 69, 0
7, 270960, Note_on_c, 5, 75, 110
7, 271080, Note_on_c, 5, 75, 0
7, 271140, Note_on_c, 5, 78, 110
7, 271200, Note_on_c, 5, 78, 0
7, 271200, Note_on_c, 5, 78, 110
7, 271260, Note_on_c, 5, 78, 0
7, 271260, Note_on_c, 5, 71, 110
7, 271320, Note_on_c, 5, 71, 0
7, 271320, Note_on_c, 5, 76, 110
7, 271380, Note_on_c, 5, 76, 0
7, 271380, Note_on_c, 5, 73, 110
7, 271440, Note_on_c, 5, 73, 0
7, 271440, Note_on_c, 5, 70, 110
7, 271500, Note_on_c, 5, 70, 0
7, 271500, Note_on_c, 5, 70, 110
7, 271560, Note_on_c, 5, 70, 0
7, 271680, Note_on_c, 5, 78, 110
7, 271800, Note_on_c, 5, 78, 0
7, 271800, Note_on_c, 5, 78, 110
7, 271920, Note_on_c, 5, 78, 0
7, 271920, Note_on_c, 5, 76, 110
7, 272040, Note_on_c, 5, 76, 0
7, 272040, Note_on_c, 5, 74, 110
7, 272160, Note_on_c, 5, 74, 0
7, 272160, Note_on_c, 5, 73, 110
7, 272280, Note_on_c, 5, 73, 0
7, 272280, Note_on_c, 5, 74, 110
7, 272520, Note_on_c, 5, 74, 0
7, 272520, Note_on_c, 5, 76, 110
7, 272760, Note_on_c, 5, 76, 0
7, 272760, Note_on_c, 5, 78, 110
7, 272880, Note_on_c, 5, 78, 0
7, 272880, Note_on_c, 5, 76, 110
7, 273000, Note_on_c, 5, 76, 0
7, 273000, Note_on_c, 5, 74, 110
7, 273120, Note_on_c, 5, 74, 0
7, 273120, Note_on_c, 5, 73, 110
7, 273240, Note_on_c, 5, 73, 0
7, 273240, Note_on_c, 5, 71, 110
7, 273480, Note_on_c, 5, 71, 0
7, 273480, Note_on_c, 5, 73, 110
7, 273720, Note_on_c, 5, 73, 0
7, 273720, Note_on_c, 5, 70, 110
7, 273960, Note_on_c, 5, 70, 0
7, 273960, Note_on_c, 5, 71, 110
7, 274200, Note_on_c, 5, 71, 0
7, 274200, Note_on_c, 5, 73, 110
7, 274439, Note_on_c, 5, 73, 0
7, 274440, Note_on_c, 5, 70, 110
7, 274679, Note_on_c, 5, 70, 0
7, 274680, Note_on_c, 5, 71, 110
7, 274919, Note_on_c, 5, 71, 0
7, 274920, Note_on_c, 5, 73, 110
7, 275039, Note_on_c, 5, 73, 0
7, 275040, Note_on_c, 5, 66, 110
7, 275159, Note_on_c, 5, 66, 0
7, 275160, Note_on_c, 5, 74, 110
7, 275279, Note_on_c, 5, 74, 0
7, 276000, Note_on_c, 5, 71, 110
7, 276119, Note_on_c, 5, 71, 0
7, 276120, Note_on_c, 5, 73, 110
7, 276239, Note_on_c, 5, 73, 0
7, 276240, Note_on_c, 5, 66, 110
7, 276359, Note_on_c, 5, 66, 0
7, 276360, Note_on_c, 5, 78, 110
7, 276479, Note_on_c, 5, 78, 0
7, 276480, Note_on_c, 5, 76, 110
7, 276599, Note_on_c, 5, 76, 0
7, 276600, Note_on_c, 5, 74, 110
7, 276719, Note_on_c, 5, 74, 0
7, 276960, Note_on_c, 5, 79, 110
7, 277079, Note_on_c, 5, 79, 0
7, 277080, Note_on_c, 5, 78, 110
7, 277199, Note_on_c, 5, 78, 0
7, 277200, Note_on_c, 5, 76, 110
7, 277319, Note_on_c, 5, 76, 0
7, 277320, Note_on_c, 5, 74, 110
7, 277439, Note_on_c, 5, 74, 0
7, 277440, Note_on_c, 5, 71, 110
7, 277559, Note_on_c, 5, 71, 0
7, 277560, Note_on_c, 5, 70, 110
7, 277679, Note_on_c, 5, 70, 0
7, 277680, Note_on_c, 5, 76, 110
7, 277799, Note_on_c, 5, 76, 0
7, 277800, Note_on_c, 5, 73, 110
7, 278039, Note_on_c, 5, 73, 0
7, 278040, Note_on_c, 5, 71, 110
7, 278399, Note_on_c, 5, 71, 0
7, 278400, Note_on_c, 5, 73, 110
7, 278519, Note_on_c, 5, 73, 0
7, 278520, Note_on_c, 5, 74, 110
7, 278639, Note_on_c, 5, 74, 0
7, 278640, Note_on_c, 5, 73, 110
7, 278759, Note_on_c, 5, 73, 0
7, 278760, Note_on_c, 5, 74, 110
7, 278879, Note_on_c, 5, 74, 0
7, 278880, Note_on_c, 5, 76, 110
7, 278999, Note_on_c, 5, 76, 0
7, 279000, Note_on_c, 5, 78, 110
7, 279239, Note_on_c, 5, 78, 0
7, 279240, Note_on_c, 5, 74, 110
7, 279359, Note_on_c, 5, 74, 0
7, 279360, Note_on_c, 5, 81, 110
7, 279479, Note_on_c, 5, 81, 0
7, 279480, Note_on_c, 5, 81, 110
7, 279599, Note_on_c, 5, 81, 0
7, 279600, Note_on_c, 5, 79, 110
7, 279719, Note_on_c, 5, 79, 0
7, 279720, Note_on_c, 5, 78, 110
7, 279839, Note_on_c, 5, 78, 0
7, 279840, Note_on_c, 5, 76, 110
7, 279959, Note_on_c, 5, 76, 0
7, 279960, Note_on_c, 5, 74, 110
7, 280199, Note_on_c, 5, 74, 0
7, 280200, Note_on_c, 5, 76, 110
7, 280439, Note_on_c, 5, 76, 0
7, 280440, Note_on_c, 5, 78, 110
7, 280559, Note_on_c, 5, 78, 0
7, 280560, Note_on_c, 5, 76, 110
7, 280679, Note_on_c, 5, 76, 0
7, 280680, Note_on_c, 5, 74, 110
7, 280799, Note_on_c, 5, 74, 0
7, 280800, Note_on_c, 5, 73, 110
7, 280919, Note_on_c, 5, 73, 0
7, 280920, Note_on_c, 5, 71, 110
7, 281159, Note_on_c, 5, 71, 0
7, 281160, Note_on_c, 5, 73, 110
7, 281399, Note_on_c, 5, 73, 0
7, 281400, Note_on_c, 5, 70, 110
7, 281639, Note_on_c, 5, 70, 0
7, 281640, Note_on_c, 5, 71, 110
7, 281879, Note_on_c, 5, 71, 0
7, 281880, Note_on_c, 5, 73, 110
7, 282119, Note_on_c, 5, 73, 0
7, 282120, Note_on_c, 5, 70, 110
7, 282359, Note_on_c, 5, 70, 0
7, 282360, Note_on_c, 5, 71, 110
7, 282479, Note_on_c, 5, 71, 0
7, 282480, Note_on_c, 5, 71, 110
7, 282539, Note_on_c, 5, 71, 0
7, 282540, Note_on_c, 5, 74, 110
7, 282599, Note_on_c, 5, 74, 0
7, 282600, Note_on_c, 5, 73, 110
7, 282719, Note_on_c, 5, 73, 0
7, 282720, Note_on_c, 5, 66, 110
7, 282839, Note_on_c, 5, 66, 0
7, 283440, Note_on_c, 5, 69, 110
7, 283559, Note_on_c, 5, 69, 0
7, 283560, Note_on_c, 5, 78, 110
7, 283679, Note_on_c, 5, 78, 0
7, 283680, Note_on_c, 5, 74, 110
7, 283799, Note_on_c, 5, 74, 0
7, 284400, Note_on_c, 5, 74, 110
7, 284519, Note_on_c, 5, 74, 0
7, 284520, Note_on_c, 5, 74, 110
7, 284639, Note_on_c, 5, 74, 0
7, 284640, Note_on_c, 5, 73, 110
7, 284759, Note_on_c, 5, 73, 0
7, 284760, Note_on_c, 5, 74, 110
7, 284879, Note_on_c, 5, 74, 0
7, 284880, Note_on_c, 5, 76, 110
7, 284999, Note_on_c, 5, 76, 0
7, 285000, Note_on_c, 5, 78, 110
7, 285239, Note_on_c, 5, 78, 0
7, 285360, Note_on_c, 5, 76, 110
7, 285479, Note_on_c, 5, 76, 0
7, 285480, Note_on_c, 5, 76, 110
7, 285539, Note_on_c, 5, 76, 0
7, 285540, Note_on_c, 5, 74, 110
7, 285599, Note_on_c, 5, 74, 0
7, 285600, Note_on_c, 5, 76, 110
7, 285659, Note_on_c, 5, 76, 0
7, 285660, Note_on_c, 5, 74, 110
7, 285719, Note_on_c, 5, 74, 0
7, 285720, Note_on_c, 5, 76, 110
7, 285839, Note_on_c, 5, 76, 0
7, 285840, Note_on_c, 5, 78, 110
7, 285959, Note_on_c, 5, 78, 0
7, 285960, Note_on_c, 5, 79, 110
7, 286199, Note_on_c, 5, 79, 0
7, 286320, Note_on_c, 5, 76, 110
7, 286439, Note_on_c, 5, 76, 0
7, 286440, Note_on_c, 5, 73, 110
7, 286679, Note_on_c, 5, 73, 0
7, 286680, Note_on_c, 5, 71, 110
7, 287039, Note_on_c, 5, 71, 0
7, 287580, Note_on_c, 5, 62, 110
7, 287640, Note_on_c, 5, 62, 0
7, 287640, Note_on_c, 5, 69, 110
7, 287700, Note_on_c, 5, 69, 0
7, 287700, Note_on_c, 5, 69, 110
7, 287760, Note_on_c, 5, 69, 0
7, 287760, Note_on_c, 5, 69, 110
7, 287820, Note_on_c, 5, 69, 0
7, 287820, Note_on_c, 5, 71, 110
7, 287880, Note_on_c, 5, 71, 0
7, 287880, Note_on_c, 5, 72, 110
7, 287940, Note_on_c, 5, 72, 0
7, 287940, Note_on_c, 5, 72, 110
7, 288000, Note_on_c, 5, 72, 0
7, 288000, Note_on_c, 5, 69, 110
7, 288060, Note_on_c, 5, 69, 0
7, 288060, Note_on_c, 5, 74, 110
7, 288120, Note_on_c, 5, 74, 0
7, 288120, Note_on_c, 5, 71, 110
7, 288240, Note_on_c, 5, 71, 0
7, 288300, Note_on_c, 5, 72, 110
7, 288360, Note_on_c, 5, 72, 0
7, 288360, Note_on_c, 5, 71, 110
7, 288420, Note_on_c, 5, 71, 0
7, 288420, Note_on_c, 5, 69, 110
7, 288480, Note_on_c, 5, 69, 0
7, 288480, Note_on_c, 5, 67, 110
7, 288540, Note_on_c, 5, 67, 0
7, 288540, Note_on_c, 5, 66, 110
7, 288600, Note_on_c, 5, 66, 0
7, 288600, Note_on_c, 5, 67, 110
7, 288660, Note_on_c, 5, 67, 0
7, 288660, Note_on_c, 5, 69, 110
7, 288720, Note_on_c, 5, 69, 0
7, 288720, Note_on_c, 5, 71, 110
7, 288780, Note_on_c, 5, 71, 0
7, 288780, Note_on_c, 5, 72, 110
7, 288840, Note_on_c, 5, 72, 0
7, 288840, Note_on_c, 5, 74, 110
7, 288900, Note_on_c, 5, 74, 0
7, 288900, Note_on_c, 5, 76, 110
7, 288960, Note_on_c, 5, 76, 0
7, 288960, Note_on_c, 5, 77, 110
7, 289020, Note_on_c, 5, 77, 0
7, 289020, Note_on_c, 5, 74, 110
7, 289080, Note_on_c, 5, 74, 0
7, 289080, Note_on_c, 5, 76, 110
7, 289140, Note_on_c, 5, 76, 0
7, 289140, Note_on_c, 5, 72, 110
7, 289200, Note_on_c, 5, 72, 0
7, 289200, Note_on_c, 5, 72, 110
7, 289260, Note_on_c, 5, 72, 0
7, 289260, Note_on_c, 5, 67, 110
7, 289320, Note_on_c, 5, 67, 0
7, 291600, Note_on_c, 5, 65, 110
7, 291659, Note_on_c, 5, 65, 0
7, 291660, Note_on_c, 5, 67, 110
7, 291719, Note_on_c, 5, 67, 0
7, 291720, Note_on_c, 5, 69, 110
7, 291839, Note_on_c, 5, 69, 0
7, 291840, Note_on_c, 5, 67, 110
7, 291899, Note_on_c, 5, 67, 0
7, 291900, Note_on_c, 5, 65, 110
7, 291959, Note_on_c, 5, 65, 0
7, 291960, Note_on_c, 5, 72, 110
7, 292079, Note_on_c, 5, 72, 0
7, 292080, Note_on_c, 5, 74, 110
7, 292139, Note_on_c, 5, 74, 0
7, 292140, Note_on_c, 5, 76, 110
7, 292199, Note_on_c, 5, 76, 0
7, 292200, Note_on_c, 5, 77, 110
7, 292319, Note_on_c, 5, 77, 0
7, 292320, Note_on_c, 5, 76, 110
7, 292379, Note_on_c, 5, 76, 0
7, 292380, Note_on_c, 5, 74, 110
7, 292439, Note_on_c, 5, 74, 0
7, 292440, Note_on_c, 5, 72, 110
7, 292559, Note_on_c, 5, 72, 0
7, 292560, Note_on_c, 5, 77, 110
7, 292679, Note_on_c, 5, 77, 0
7, 292680, Note_on_c, 5, 74, 110
7, 292739, Note_on_c, 5, 74, 0
7, 292740, Note_on_c, 5, 76, 110
7, 292799, Note_on_c, 5, 76, 0
7, 292800, Note_on_c, 5, 72, 110
7, 292859, Note_on_c, 5, 72, 0
7, 292860, Note_on_c, 5, 74, 110
7, 292919, Note_on_c, 5, 74, 0
7, 292920, Note_on_c, 5, 70, 110
7, 292979, Note_on_c, 5, 70, 0
7, 292980, Note_on_c, 5, 72, 110
7, 293039, Note_on_c, 5, 72, 0
7, 293040, Note_on_c, 5, 69, 110
7, 293099, Note_on_c, 5, 69, 0
7, 293100, Note_on_c, 5, 70, 110
7, 293159, Note_on_c, 5, 70, 0
7, 293160, Note_on_c, 5, 67, 110
7, 293219, Note_on_c, 5, 67, 0
7, 293220, Note_on_c, 5, 65, 110
7, 293279, Note_on_c, 5, 65, 0
7, 293280, Note_on_c, 5, 64, 110
7, 293339, Note_on_c, 5, 64, 0
7, 293340, Note_on_c, 5, 62, 110
7, 293399, Note_on_c, 5, 62, 0
7, 293400, Note_on_c, 5, 60, 110
7, 293520, Note_on_c, 5, 60, 0
7, 293520, Note_on_c, 5, 67, 110
7, 293640, Note_on_c, 5, 67, 0
7, 293640, Note_on_c, 5, 69, 110
7, 293699, Note_on_c, 5, 69, 0
7, 293700, Note_on_c, 5, 70, 110
7, 293759, Note_on_c, 5, 70, 0
7, 293760, Note_on_c, 5, 72, 110
7, 293819, Note_on_c, 5, 72, 0
7, 293820, Note_on_c, 5, 74, 110
7, 293879, Note_on_c, 5, 74, 0
7, 293880, Note_on_c, 5, 67, 110
7, 294060, Note_on_c, 5, 67, 0
7, 294060, Note_on_c, 5, 65, 110
7, 294120, Note_on_c, 5, 65, 0
7, 294120, Note_on_c, 5, 65, 110
7, 294480, Note_on_c, 5, 65, 0
7, 294480, Note_on_c, 5, 65, 110
7, 294539, Note_on_c, 5, 65, 0
7, 294540, Note_on_c, 5, 67, 110
7, 294599, Note_on_c, 5, 67, 0
7, 294600, Note_on_c, 5, 69, 110
7, 294719, Note_on_c, 5, 69, 0
7, 294720, Note_on_c, 5, 67, 110
7, 294779, Note_on_c, 5, 67, 0
7, 294780, Note_on_c, 5, 65, 110
7, 294839, Note_on_c, 5, 65, 0
7, 294840, Note_on_c, 5, 72, 110
7, 294959, Note_on_c, 5, 72, 0
7, 294960, Note_on_c, 5, 74, 110
7, 295019, Note_on_c, 5, 74, 0
7, 295020, Note_on_c, 5, 76, 110
7, 295079, Note_on_c, 5, 76, 0
7, 295080, Note_on_c, 5, 77, 110
7, 295199, Note_on_c, 5, 77, 0
7, 295200, Note_on_c, 5, 76, 110
7, 295259, Note_on_c, 5, 76, 0
7, 295260, Note_on_c, 5, 74, 110
7, 295319, Note_on_c, 5, 74, 0
7, 295320, Note_on_c, 5, 72, 110
7, 295439, Note_on_c, 5, 72, 0
7, 295440, Note_on_c, 5, 77, 110
7, 295559, Note_on_c, 5, 77, 0
7, 295560, Note_on_c, 5, 74, 110
7, 295619, Note_on_c, 5, 74, 0
7, 295620, Note_on_c, 5, 76, 110
7, 295679, Note_on_c, 5, 76, 0
7, 295680, Note_on_c, 5, 72, 110
7, 295739, Note_on_c, 5, 72, 0
7, 295740, Note_on_c, 5, 74, 110
7, 295799, Note_on_c, 5, 74, 0
7, 295800, Note_on_c, 5, 70, 110
7, 295859, Note_on_c, 5, 70, 0
7, 295860, Note_on_c, 5, 72, 110
7, 295919, Note_on_c, 5, 72, 0
7, 295920, Note_on_c, 5, 69, 110
7, 295979, Note_on_c, 5, 69, 0
7, 295980, Note_on_c, 5, 70, 110
7, 296039, Note_on_c, 5, 70, 0
7, 296040, Note_on_c, 5, 67, 110
7, 296099, Note_on_c, 5, 67, 0
7, 296100, Note_on_c, 5, 65, 110
7, 296159, Note_on_c, 5, 65, 0
7, 296160, Note_on_c, 5, 64, 110
7, 296219, Note_on_c, 5, 64, 0
7, 296220, Note_on_c, 5, 62, 110
7, 296279, Note_on_c, 5, 62, 0
7, 296280, Note_on_c, 5, 60, 110
7, 296400, Note_on_c, 5, 60, 0
7, 296400, Note_on_c, 5, 67, 110
7, 296520, Note_on_c, 5, 67, 0
7, 296520, Note_on_c, 5, 69, 110
7, 296579, Note_on_c, 5, 69, 0
7, 296580, Note_on_c, 5, 70, 110
7, 296639, Note_on_c, 5, 70, 0
7, 296640, Note_on_c, 5, 72, 110
7, 296699, Note_on_c, 5, 72, 0
7, 296700, Note_on_c, 5, 74, 110
7, 296759, Note_on_c, 5, 74, 0
7, 296760, Note_on_c, 5, 67, 110
7, 296940, Note_on_c, 5, 67, 0
7, 296940, Note_on_c, 5, 65, 110
7, 297000, Note_on_c, 5, 65, 0
7, 297000, Note_on_c, 5, 65, 110
7, 297360, Note_on_c, 5, 65, 0
7, 297360, Note_on_c, 5, 72, 110
7, 297479, Note_on_c, 5, 72, 0
7, 297480, Note_on_c, 5, 77, 110
7, 297599, Note_on_c, 5, 77, 0
7, 297600, Note_on_c, 5, 77, 110
7, 297719, Note_on_c, 5, 77, 0
7, 297720, Note_on_c, 5, 77, 110
7, 297839, Note_on_c, 5, 77, 0
7, 297840, Note_on_c, 5, 79, 110
7, 297899, Note_on_c, 5, 79, 0
7, 297900, Note_on_c, 5, 81, 110
7, 297959, Note_on_c, 5, 81, 0
7, 297960, Note_on_c, 5, 74, 110
7, 298079, Note_on_c, 5, 74, 0
7, 298080, Note_on_c, 5, 74, 110
7, 298199, Note_on_c, 5, 74, 0
7, 298200, Note_on_c, 5, 74, 110
7, 298319, Note_on_c, 5, 74, 0
7, 298320, Note_on_c, 5, 74, 110
7, 298439, Note_on_c, 5, 74, 0
7, 298440, Note_on_c, 5, 79, 110
7, 298559, Note_on_c, 5, 79, 0
7, 298560, Note_on_c, 5, 79, 110
7, 298679, Note_on_c, 5, 79, 0
7, 298680, Note_on_c, 5, 79, 110
7, 298799, Note_on_c, 5, 79, 0
7, 298800, Note_on_c, 5, 81, 110
7, 298859, Note_on_c, 5, 81, 0
7, 298860, Note_on_c, 5, 82, 110
7, 298919, Note_on_c, 5, 82, 0
7, 298920, Note_on_c, 5, 76, 110
7, 299039, Note_on_c, 5, 76, 0
7, 299040, Note_on_c, 5, 74, 110
7, 299099, Note_on_c, 5, 74, 0
7, 299100, Note_on_c, 5, 76, 110
7, 299159, Note_on_c, 5, 76, 0
7, 299160, Note_on_c, 5, 72, 110
7, 299279, Note_on_c, 5, 72, 0
7, 299280, Note_on_c, 5, 77, 110
7, 299399, Note_on_c, 5, 77, 0
7, 299400, Note_on_c, 5, 74, 110
7, 299519, Note_on_c, 5, 74, 0
7, 299520, Note_on_c, 5, 72, 110
7, 299639, Note_on_c, 5, 72, 0
7, 299640, Note_on_c, 5, 72, 110
7, 299759, Note_on_c, 5, 72, 0
7, 299760, Note_on_c, 5, 77, 110
7, 299879, Note_on_c, 5, 77, 0
7, 299880, Note_on_c, 5, 74, 110
7, 299999, Note_on_c, 5, 74, 0
7, 300000, Note_on_c, 5, 72, 110
7, 300119, Note_on_c, 5, 72, 0
7, 300120, Note_on_c, 5, 72, 110
7, 300239, Note_on_c, 5, 72, 0
7, 300240, Note_on_c, 5, 70, 110
7, 300299, Note_on_c, 5, 70, 0
7, 300300, Note_on_c, 5, 69, 110
7, 300359, Note_on_c, 5, 69, 0
7, 300360, Note_on_c, 5, 74, 110
7, 300479, Note_on_c, 5, 74, 0
7, 300480, Note_on_c, 5, 72, 110
7, 300599, Note_on_c, 5, 72, 0
7, 300600, Note_on_c, 5, 70, 110
7, 300659, Note_on_c, 5, 70, 0
7, 300660, Note_on_c, 5, 69, 110
7, 300719, Note_on_c, 5, 69, 0
7, 300720, Note_on_c, 5, 67, 110
7, 300779, Note_on_c, 5, 67, 0
7, 300780, Note_on_c, 5, 65, 110
7, 300839, Note_on_c, 5, 65, 0
7, 300840, Note_on_c, 5, 64, 110
7, 300959, Note_on_c, 5, 64, 0
7, 300960, Note_on_c, 5, 62, 110
7, 301019, Note_on_c, 5, 62, 0
7, 301020, Note_on_c, 5, 64, 110
7, 301079, Note_on_c, 5, 64, 0
7, 301080, Note_on_c, 5, 60, 110
7, 301199, Note_on_c, 5, 60, 0
7, 301200, Note_on_c, 5, 65, 110
7, 301259, Note_on_c, 5, 65, 0
7, 301260, Note_on_c, 5, 67, 110
7, 301319, Note_on_c, 5, 67, 0
7, 301320, Note_on_c, 5, 69, 110
7, 301439, Note_on_c, 5, 69, 0
7, 301440, Note_on_c, 5, 67, 110
7, 301499, Note_on_c, 5, 67, 0
7, 301500, Note_on_c, 5, 65, 110
7, 301559, Note_on_c, 5, 65, 0
7, 301560, Note_on_c, 5, 72, 110
7, 301679, Note_on_c, 5, 72, 0
7, 301680, Note_on_c, 5, 74, 110
7, 301739, Note_on_c, 5, 74, 0
7, 301740, Note_on_c, 5, 76, 110
7, 301799, Note_on_c, 5, 76, 0
7, 301800, Note_on_c, 5, 77, 110
7, 301919, Note_on_c, 5, 77, 0
7, 301920, Note_on_c, 5, 76, 110
7, 301979, Note_on_c, 5, 76, 0
7, 301980, Note_on_c, 5, 74, 110
7, 302039, Note_on_c, 5, 74, 0
7, 302040, Note_on_c, 5, 72, 110
7, 302159, Note_on_c, 5, 72, 0
7, 302160, Note_on_c, 5, 77, 110
7, 302279, Note_on_c, 5, 77, 0
7, 302280, Note_on_c, 5, 74, 110
7, 302339, Note_on_c, 5, 74, 0
7, 302340, Note_on_c, 5, 76, 110
7, 302399, Note_on_c, 5, 76, 0
7, 302400, Note_on_c, 5, 72, 110
7, 302459, Note_on_c, 5, 72, 0
7, 302460, Note_on_c, 5, 74, 110
7, 302519, Note_on_c, 5, 74, 0
7, 302520, Note_on_c, 5, 70, 110
7, 302579, Note_on_c, 5, 70, 0
7, 302580, Note_on_c, 5, 72, 110
7, 302639, Note_on_c, 5, 72, 0
7, 302640, Note_on_c, 5, 69, 110
7, 302699, Note_on_c, 5, 69, 0
7, 302700, Note_on_c, 5, 70, 110
7, 302759, Note_on_c, 5, 70, 0
7, 302760, Note_on_c, 5, 67, 110
7, 302819, Note_on_c, 5, 67, 0
7, 302820, Note_on_c, 5, 65, 110
7, 302879, Note_on_c, 5, 65, 0
7, 302880, Note_on_c, 5, 64, 110
7, 302939, Note_on_c, 5, 64, 0
7, 302940, Note_on_c, 5, 62, 110
7, 302999, Note_on_c, 5, 62, 0
7, 303000, Note_on_c, 5, 60, 110
7, 303119, Note_on_c, 5, 60, 0
7, 303120, Note_on_c, 5, 67, 110
7, 303239, Note_on_c, 5, 67, 0
7, 303240, Note_on_c, 5, 69, 110
7, 303299, Note_on_c, 5, 69, 0
7, 303300, Note_on_c, 5, 70, 110
7, 303359, Note_on_c, 5, 70, 0
7, 303360, Note_on_c, 5, 72, 110
7, 303419, Note_on_c, 5, 72, 0
7, 303420, Note_on_c, 5, 74, 110
7, 303479, Note_on_c, 5, 74, 0
7, 303480, Note_on_c, 5, 67, 110
7, 303659, Note_on_c, 5, 67, 0
7, 303660, Note_on_c, 5, 65, 110
7, 303719, Note_on_c, 5, 65, 0
7, 303720, Note_on_c, 5, 65, 110
7, 304079, Note_on_c, 5, 65, 0
7, 304079, End_track
8, 0, Start_track
8, 0, MIDI_port, 0
8, 0, Title_t, "Basso"
8, 0, Program_c, 6, 67
8, 28440, Note_on_c, 6, 45, 110
8, 28559, Note_on_c, 6, 45, 0
8, 28560, Note_on_c, 6, 57, 110
8, 28679, Note_on_c, 6, 57, 0
8, 28680, Note_on_c, 6, 57, 110
8, 28799, Note_on_c, 6, 57, 0
8, 28800, Note_on_c, 6, 57, 110
8, 28919, Note_on_c, 6, 57, 0
8, 28920, Note_on_c, 6, 50, 110
8, 29039, Note_on_c, 6, 50, 0
8, 29040, Note_on_c, 6, 52, 110
8, 29159, Note_on_c, 6, 52, 0
8, 29160, Note_on_c, 6, 52, 110
8, 29279, Note_on_c, 6, 52, 0
8, 29280, Note_on_c, 6, 52, 110
8, 29399, Note_on_c, 6, 52, 0
8, 29400, Note_on_c, 6, 57, 110
8, 29519, Note_on_c, 6, 57, 0
8, 29520, Note_on_c, 6, 54, 110
8, 29639, Note_on_c, 6, 54, 0
8, 29640, Note_on_c, 6, 50, 110
8, 29759, Note_on_c, 6, 50, 0
8, 29760, Note_on_c, 6, 52, 110
8, 29879, Note_on_c, 6, 52, 0
8, 29880, Note_on_c, 6, 52, 110
8, 29999, Note_on_c, 6, 52, 0
8, 30000, Note_on_c, 6, 45, 110
8, 30359, Note_on_c, 6, 45, 0
8, 30360, Note_on_c, 6, 45, 110
8, 30479, Note_on_c, 6, 45, 0
8, 30480, Note_on_c, 6, 57, 110
8, 30599, Note_on_c, 6, 57, 0
8, 30600, Note_on_c, 6, 57, 110
8, 30719, Note_on_c, 6, 57, 0
8, 30720, Note_on_c, 6, 57, 110
8, 30839, Note_on_c, 6, 57, 0
8, 30840, Note_on_c, 6, 57, 110
8, 30959, Note_on_c, 6, 57, 0
8, 30960, Note_on_c, 6, 64, 110
8, 31079, Note_on_c, 6, 64, 0
8, 31080, Note_on_c, 6, 52, 110
8, 31199, Note_on_c, 6, 52, 0
8, 31200, Note_on_c, 6, 52, 110
8, 31319, Note_on_c, 6, 52, 0
8, 31320, Note_on_c, 6, 57, 110
8, 31439, Note_on_c, 6, 57, 0
8, 31440, Note_on_c, 6, 56, 110
8, 31559, Note_on_c, 6, 56, 0
8, 31560, Note_on_c, 6, 57, 110
8, 31679, Note_on_c, 6, 57, 0
8, 31680, Note_on_c, 6, 64, 110
8, 31799, Note_on_c, 6, 64, 0
8, 31800, Note_on_c, 6, 52, 110
8, 31919, Note_on_c, 6, 52, 0
8, 31920, Note_on_c, 6, 57, 110
8, 32279, Note_on_c, 6, 57, 0
8, 32280, Note_on_c, 6, 57, 110
8, 32339, Note_on_c, 6, 57, 0
8, 32340, Note_on_c, 6, 59, 110
8, 32399, Note_on_c, 6, 59, 0
8, 32400, Note_on_c, 6, 61, 110
8, 32519, Note_on_c, 6, 61, 0
8, 32520, Note_on_c, 6, 57, 110
8, 32639, Note_on_c, 6, 57, 0
8, 32640, Note_on_c, 6, 57, 110
8, 32759, Note_on_c, 6, 57, 0
8, 32760, Note_on_c, 6, 57, 110
8, 32879, Note_on_c, 6, 57, 0
8, 32880, Note_on_c, 6, 62, 110
8, 32999, Note_on_c, 6, 62, 0
8, 33000, Note_on_c, 6, 57, 110
8, 33119, Note_on_c, 6, 57, 0
8, 33120, Note_on_c, 6, 57, 110
8, 33239, Note_on_c, 6, 57, 0
8, 33240, Note_on_c, 6, 61, 110
8, 33299, Note_on_c, 6, 61, 0
8, 33300, Note_on_c, 6, 59, 110
8, 33359, Note_on_c, 6, 59, 0
8, 33360, Note_on_c, 6, 61, 110
8, 33479, Note_on_c, 6, 61, 0
8, 33480, Note_on_c, 6, 57, 110
8, 33599, Note_on_c, 6, 57, 0
8, 33600, Note_on_c, 6, 62, 110
8, 33659, Note_on_c, 6, 62, 0
8, 33660, Note_on_c, 6, 61, 110
8, 33719, Note_on_c, 6, 61, 0
8, 33720, Note_on_c, 6, 59, 110
8, 33779, Note_on_c, 6, 59, 0
8, 33780, Note_on_c, 6, 57, 110
8, 33839, Note_on_c, 6, 57, 0
8, 33840, Note_on_c, 6, 52, 110
8, 34199, Note_on_c, 6, 52, 0
8, 34200, Note_on_c, 6, 57, 110
8, 34259, Note_on_c, 6, 57, 0
8, 34260, Note_on_c, 6, 56, 110
8, 34319, Note_on_c, 6, 56, 0
8, 34320, Note_on_c, 6, 57, 110
8, 34439, Note_on_c, 6, 57, 0
8, 34440, Note_on_c, 6, 57, 110
8, 34499, Note_on_c, 6, 57, 0
8, 34500, Note_on_c, 6, 56, 110
8, 34559, Note_on_c, 6, 56, 0
8, 34560, Note_on_c, 6, 57, 110
8, 34619, Note_on_c, 6, 57, 0
8, 34620, Note_on_c, 6, 56, 110
8, 34679, Note_on_c, 6, 56, 0
8, 34680, Note_on_c, 6, 57, 110
8, 34739, Note_on_c, 6, 57, 0
8, 34740, Note_on_c, 6, 54, 110
8, 34799, Note_on_c, 6, 54, 0
8, 34800, Note_on_c, 6, 56, 110
8, 34919, Note_on_c, 6, 56, 0
8, 34920, Note_on_c, 6, 52, 110
8, 35039, Note_on_c, 6, 52, 0
8, 35040, Note_on_c, 6, 52, 110
8, 35159, Note_on_c, 6, 52, 0
8, 35160, Note_on_c, 6, 57, 110
8, 35279, Note_on_c, 6, 57, 0
8, 35280, Note_on_c, 6, 54, 110
8, 35399, Note_on_c, 6, 54, 0
8, 35400, Note_on_c, 6, 50, 110
8, 35519, Note_on_c, 6, 50, 0
8, 35520, Note_on_c, 6, 52, 110
8, 35639, Note_on_c, 6, 52, 0
8, 35640, Note_on_c, 6, 52, 110
8, 35759, Note_on_c, 6, 52, 0
8, 35760, Note_on_c, 6, 45, 110
8, 36119, Note_on_c, 6, 45, 0
8, 40200, Note_on_c, 6, 57, 110
8, 40320, Note_on_c, 6, 57, 0
8, 40440, Note_on_c, 6, 64, 110
8, 40500, Note_on_c, 6, 64, 0
8, 40500, Note_on_c, 6, 57, 110
8, 40560, Note_on_c, 6, 57, 0
8, 40680, Note_on_c, 6, 52, 110
8, 40740, Note_on_c, 6, 52, 0
8, 40740, Note_on_c, 6, 54, 110
8, 40800, Note_on_c, 6, 54, 0
8, 40800, Note_on_c, 6, 55, 110
8, 40860, Note_on_c, 6, 55, 0
8, 40860, Note_on_c, 6, 55, 110
8, 40920, Note_on_c, 6, 55, 0
8, 40920, Note_on_c, 6, 59, 110
8, 40980, Note_on_c, 6, 59, 0
8, 40980, Note_on_c, 6, 57, 110
8, 41040, Note_on_c, 6, 57, 0
8, 41040, Note_on_c, 6, 54, 110
8, 41160, Note_on_c, 6, 54, 0
8, 44280, Note_on_c, 6, 62, 110
8, 44400, Note_on_c, 6, 62, 0
8, 44460, Note_on_c, 6, 54, 110
8, 44490, Note_on_c, 6, 54, 0
8, 44490, Note_on_c, 6, 55, 110
8, 44520, Note_on_c, 6, 55, 0
8, 44520, Note_on_c, 6, 57, 110
8, 44580, Note_on_c, 6, 57, 0
8, 44580, Note_on_c, 6, 50, 110
8, 44640, Note_on_c, 6, 50, 0
8, 44640, Note_on_c, 6, 59, 110
8, 44700, Note_on_c, 6, 59, 0
8, 44820, Note_on_c, 6, 64, 110
8, 44880, Note_on_c, 6, 64, 0
8, 44880, Note_on_c, 6, 64, 110
8, 44940, Note_on_c, 6, 64, 0
8, 44940, Note_on_c, 6, 59, 110
8, 45000, Note_on_c, 6, 59, 0
8, 45000, Note_on_c, 6, 56, 110
8, 45060, Note_on_c, 6, 56, 0
8, 45060, Note_on_c, 6, 59, 110
8, 45120, Note_on_c, 6, 59, 0
8, 45120, Note_on_c, 6, 52, 110
8, 45180, Note_on_c, 6, 52, 0
8, 45210, Note_on_c, 6, 52, 110
8, 45240, Note_on_c, 6, 52, 0
8, 45240, Note_on_c, 6, 59, 110
8, 45300, Note_on_c, 6, 59, 0
8, 45300, Note_on_c, 6, 61, 110
8, 45360, Note_on_c, 6, 61, 0
8, 45360, Note_on_c, 6, 62, 110
8, 45420, Note_on_c, 6, 62, 0
8, 45420, Note_on_c, 6, 62, 110
8, 45480, Note_on_c, 6, 62, 0
8, 45540, Note_on_c, 6, 61, 110
8, 45600, Note_on_c, 6, 61, 0
8, 45600, Note_on_c, 6, 59, 110
8, 45660, Note_on_c, 6, 59, 0
8, 45660, Note_on_c, 6, 57, 110
8, 45720, Note_on_c, 6, 57, 0
8, 45780, Note_on_c, 6, 61, 110
8, 45840, Note_on_c, 6, 61, 0
8, 45840, Note_on_c, 6, 62, 110
8, 45960, Note_on_c, 6, 62, 0
8, 46020, Note_on_c, 6, 54, 110
8, 46080, Note_on_c, 6, 54, 0
8, 46080, Note_on_c, 6, 53, 110
8, 46140, Note_on_c, 6, 53, 0
8, 46140, Note_on_c, 6, 54, 110
8, 46200, Note_on_c, 6, 54, 0
8, 46200, Note_on_c, 6, 59, 110
8, 46260, Note_on_c, 6, 59, 0
8, 46260, Note_on_c, 6, 57, 110
8, 46320, Note_on_c, 6, 57, 0
8, 46320, Note_on_c, 6, 56, 110
8, 46380, Note_on_c, 6, 56, 0
8, 46380, Note_on_c, 6, 54, 110
8, 46440, Note_on_c, 6, 54, 0
8, 58740, Note_on_c, 6, 61, 110
8, 58800, Note_on_c, 6, 61, 0
8, 58800, Note_on_c, 6, 61, 110
8, 58860, Note_on_c, 6, 61, 0
8, 58860, Note_on_c, 6, 57, 110
8, 58920, Note_on_c, 6, 57, 0
8, 58920, Note_on_c, 6, 54, 110
8, 59040, Note_on_c, 6, 54, 0
8, 59100, Note_on_c, 6, 57, 110
8, 59160, Note_on_c, 6, 57, 0
8, 59160, Note_on_c, 6, 51, 110
8, 59280, Note_on_c, 6, 51, 0
8, 59340, Note_on_c, 6, 51, 110
8, 59400, Note_on_c, 6, 51, 0
8, 59400, Note_on_c, 6, 61, 110
8, 59460, Note_on_c, 6, 61, 0
8, 59460, Note_on_c, 6, 59, 110
8, 59520, Note_on_c, 6, 59, 0
8, 59580, Note_on_c, 6, 54, 110
8, 59640, Note_on_c, 6, 54, 0
8, 59640, Note_on_c, 6, 51, 110
8, 59700, Note_on_c, 6, 51, 0
8, 59700, Note_on_c, 6, 54, 110
8, 59760, Note_on_c, 6, 54, 0
8, 59760, Note_on_c, 6, 57, 110
8, 59820, Note_on_c, 6, 57, 0
8, 59820, Note_on_c, 6, 55, 110
8, 59880, Note_on_c, 6, 55, 0
8, 59880, Note_on_c, 6, 55, 110
8, 60000, Note_on_c, 6, 55, 0
8, 60030, Note_on_c, 6, 52, 110
8, 60060, Note_on_c, 6, 52, 0
8, 60060, Note_on_c, 6, 55, 110
8, 60090, Note_on_c, 6, 55, 0
8, 60090, Note_on_c, 6, 59, 110
8, 60120, Note_on_c, 6, 59, 0
8, 60120, Note_on_c, 6, 64, 110
8, 60180, Note_on_c, 6, 64, 0
8, 60300, Note_on_c, 6, 57, 110
8, 60360, Note_on_c, 6, 57, 0
8, 60360, Note_on_c, 6, 57, 110
8, 60420, Note_on_c, 6, 57, 0
8, 60420, Note_on_c, 6, 52, 110
8, 60480, Note_on_c, 6, 52, 0
8, 60480, Note_on_c, 6, 55, 110
8, 60540, Note_on_c, 6, 55, 0
8, 60540, Note_on_c, 6, 54, 110
8, 60600, Note_on_c, 6, 54, 0
8, 60600, Note_on_c, 6, 54, 110
8, 60660, Note_on_c, 6, 54, 0
8, 60690, Note_on_c, 6, 50, 110
8, 60720, Note_on_c, 6, 50, 0
8, 60720, Note_on_c, 6, 54, 110
8, 60780, Note_on_c, 6, 54, 0
8, 60780, Note_on_c, 6, 55, 110
8, 60840, Note_on_c, 6, 55, 0
8, 60840, Note_on_c, 6, 57, 110
8, 60900, Note_on_c, 6, 57, 0
8, 60900, Note_on_c, 6, 57, 110
8, 60960, Note_on_c, 6, 57, 0
8, 60960, Note_on_c, 6, 60, 110
8, 61020, Note_on_c, 6, 60, 0
8, 61020, Note_on_c, 6, 59, 110
8, 61080, Note_on_c, 6, 59, 0
8, 61080, Note_on_c, 6, 59, 110
8, 61140, Note_on_c, 6, 59, 0
8, 61140, Note_on_c, 6, 57, 110
8, 61200, Note_on_c, 6, 57, 0
8, 61200, Note_on_c, 6, 55, 110
8, 61260, Note_on_c, 6, 55, 0
8, 61260, Note_on_c, 6, 54, 110
8, 61320, Note_on_c, 6, 54, 0
8, 61320, Note_on_c, 6, 52, 110
8, 61380, Note_on_c, 6, 52, 0
8, 61380, Note_on_c, 6, 50, 110
8, 61440, Note_on_c, 6, 50, 0
8, 62040, Note_on_c, 6, 50, 110
8, 62099, Note_on_c, 6, 50, 0
8, 62100, Note_on_c, 6, 52, 110
8, 62159, Note_on_c, 6, 52, 0
8, 62160, Note_on_c, 6, 54, 110
8, 62219, Note_on_c, 6, 54, 0
8, 62220, Note_on_c, 6, 55, 110
8, 62279, Note_on_c, 6, 55, 0
8, 62280, Note_on_c, 6, 57, 110
8, 62339, Note_on_c, 6, 57, 0
8, 62340, Note_on_c, 6, 59, 110
8, 62399, Note_on_c, 6, 59, 0
8, 62400, Note_on_c, 6, 55, 110
8, 62459, Note_on_c, 6, 55, 0
8, 62460, Note_on_c, 6, 54, 110
8, 62519, Note_on_c, 6, 54, 0
8, 62520, Note_on_c, 6, 52, 110
8, 62759, Note_on_c, 6, 52, 0
8, 62760, Note_on_c, 6, 57, 110
8, 62819, Note_on_c, 6, 57, 0
8, 62820, Note_on_c, 6, 56, 110
8, 62879, Note_on_c, 6, 56, 0
8, 62880, Note_on_c, 6, 57, 110
8, 62939, Note_on_c, 6, 57, 0
8, 62940, Note_on_c, 6, 59, 110
8, 62999, Note_on_c, 6, 59, 0
8, 63000, Note_on_c, 6, 61, 110
8, 63059, Note_on_c, 6, 61, 0
8, 63060, Note_on_c, 6, 64, 110
8, 63119, Note_on_c, 6, 64, 0
8, 63120, Note_on_c, 6, 52, 110
8, 63179, Note_on_c, 6, 52, 0
8, 63180, Note_on_c, 6, 57, 110
8, 63209, Note_on_c, 6, 57, 0
8, 63210, Note_on_c, 6, 56, 110
8, 63239, Note_on_c, 6, 56, 0
8, 63240, Note_on_c, 6, 57, 110
8, 63359, Note_on_c, 6, 57, 0
8, 63360, Note_on_c, 6, 55, 110
8, 63479, Note_on_c, 6, 55, 0
8, 63600, Note_on_c, 6, 50, 110
8, 63659, Note_on_c, 6, 50, 0
8, 63660, Note_on_c, 6, 52, 110
8, 63719, Note_on_c, 6, 52, 0
8, 63720, Note_on_c, 6, 54, 110
8, 63779, Note_on_c, 6, 54, 0
8, 63780, Note_on_c, 6, 55, 110
8, 63839, Note_on_c, 6, 55, 0
8, 63840, Note_on_c, 6, 52, 110
8, 63899, Note_on_c, 6, 52, 0
8, 63900, Note_on_c, 6, 57, 110
8, 63959, Note_on_c, 6, 57, 0
8, 63960, Note_on_c, 6, 57, 110
8, 64019, Note_on_c, 6, 57, 0
8, 64020, Note_on_c, 6, 55, 110
8, 64049, Note_on_c, 6, 55, 0
8, 64050, Note_on_c, 6, 54, 110
8, 64079, Note_on_c, 6, 54, 0
8, 64080, Note_on_c, 6, 52, 110
8, 64199, Note_on_c, 6, 52, 0
8, 64320, Note_on_c, 6, 57, 110
8, 64379, Note_on_c, 6, 57, 0
8, 64380, Note_on_c, 6, 56, 110
8, 64439, Note_on_c, 6, 56, 0
8, 64440, Note_on_c, 6, 57, 110
8, 64499, Note_on_c, 6, 57, 0
8, 64500, Note_on_c, 6, 59, 110
8, 64559, Note_on_c, 6, 59, 0
8, 64560, Note_on_c, 6, 61, 110
8, 64619, Note_on_c, 6, 61, 0
8, 64620, Note_on_c, 6, 64, 110
8, 64679, Note_on_c, 6, 64, 0
8, 64680, Note_on_c, 6, 62, 110
8, 64709, Note_on_c, 6, 62, 0
8, 64710, Note_on_c, 6, 61, 110
8, 64739, Note_on_c, 6, 61, 0
8, 64740, Note_on_c, 6, 59, 110
8, 64769, Note_on_c, 6, 59, 0
8, 64770, Note_on_c, 6, 61, 110
8, 64799, Note_on_c, 6, 61, 0
8, 64800, Note_on_c, 6, 57, 110
8, 64919, Note_on_c, 6, 57, 0
8, 64920, Note_on_c, 6, 59, 110
8, 64979, Note_on_c, 6, 59, 0
8, 64980, Note_on_c, 6, 57, 110
8, 65039, Note_on_c, 6, 57, 0
8, 65040, Note_on_c, 6, 59, 110
8, 65099, Note_on_c, 6, 59, 0
8, 65100, Note_on_c, 6, 57, 110
8, 65159, Note_on_c, 6, 57, 0
8, 65160, Note_on_c, 6, 55, 110
8, 65279, Note_on_c, 6, 55, 0
8, 65640, Note_on_c, 6, 60, 110
8, 65699, Note_on_c, 6, 60, 0
8, 65700, Note_on_c, 6, 59, 110
8, 65759, Note_on_c, 6, 59, 0
8, 65760, Note_on_c, 6, 60, 110
8, 65819, Note_on_c, 6, 60, 0
8, 65820, Note_on_c, 6, 59, 110
8, 65879, Note_on_c, 6, 59, 0
8, 65880, Note_on_c, 6, 57, 110
8, 65999, Note_on_c, 6, 57, 0
8, 66360, Note_on_c, 6, 55, 110
8, 66419, Note_on_c, 6, 55, 0
8, 66420, Note_on_c, 6, 57, 110
8, 66479, Note_on_c, 6, 57, 0
8, 66480, Note_on_c, 6, 55, 110
8, 66539, Note_on_c, 6, 55, 0
8, 66540, Note_on_c, 6, 54, 110
8, 66599, Note_on_c, 6, 54, 0
8, 66600, Note_on_c, 6, 52, 110
8, 66719, Note_on_c, 6, 52, 0
8, 66720, Note_on_c, 6, 50, 110
8, 66779, Note_on_c, 6, 50, 0
8, 66780, Note_on_c, 6, 52, 110
8, 66839, Note_on_c, 6, 52, 0
8, 66840, Note_on_c, 6, 54, 110
8, 66899, Note_on_c, 6, 54, 0
8, 66900, Note_on_c, 6, 55, 110
8, 66959, Note_on_c, 6, 55, 0
8, 66960, Note_on_c, 6, 57, 110
8, 67019, Note_on_c, 6, 57, 0
8, 67020, Note_on_c, 6, 59, 110
8, 67079, Note_on_c, 6, 59, 0
8, 67080, Note_on_c, 6, 55, 110
8, 67139, Note_on_c, 6, 55, 0
8, 67140, Note_on_c, 6, 54, 110
8, 67199, Note_on_c, 6, 54, 0
8, 67200, Note_on_c, 6, 52, 110
8, 67319, Note_on_c, 6, 52, 0
8, 67320, Note_on_c, 6, 55, 110
8, 67439, Note_on_c, 6, 55, 0
8, 67440, Note_on_c, 6, 54, 110
8, 67499, Note_on_c, 6, 54, 0
8, 67500, Note_on_c, 6, 52, 110
8, 67559, Note_on_c, 6, 52, 0
8, 67560, Note_on_c, 6, 50, 110
8, 67799, Note_on_c, 6, 50, 0
8, 68160, Note_on_c, 6, 52, 110
8, 68219, Note_on_c, 6, 52, 0
8, 68220, Note_on_c, 6, 54, 110
8, 68279, Note_on_c, 6, 54, 0
8, 68280, Note_on_c, 6, 52, 110
8, 68339, Note_on_c, 6, 52, 0
8, 68340, Note_on_c, 6, 50, 110
8, 68399, Note_on_c, 6, 50, 0
8, 68400, Note_on_c, 6, 57, 110
8, 68519, Note_on_c, 6, 57, 0
8, 68640, Note_on_c, 6, 62, 110
8, 68759, Note_on_c, 6, 62, 0
8, 68760, Note_on_c, 6, 54, 110
8, 68879, Note_on_c, 6, 54, 0
8, 69000, Note_on_c, 6, 55, 110
8, 69059, Note_on_c, 6, 55, 0
8, 69060, Note_on_c, 6, 54, 110
8, 69119, Note_on_c, 6, 54, 0
8, 69120, Note_on_c, 6, 52, 110
8, 69239, Note_on_c, 6, 52, 0
8, 69360, Note_on_c, 6, 62, 110
8, 69419, Note_on_c, 6, 62, 0
8, 69420, Note_on_c, 6, 60, 110
8, 69479, Note_on_c, 6, 60, 0
8, 69480, Note_on_c, 6, 62, 110
8, 69539, Note_on_c, 6, 62, 0
8, 69540, Note_on_c, 6, 60, 110
8, 69599, Note_on_c, 6, 60, 0
8, 69600, Note_on_c, 6, 59, 110
8, 70020, Note_on_c, 6, 59, 0
8, 70020, Note_on_c, 6, 57, 110
8, 70079, Note_on_c, 6, 57, 0
8, 70080, Note_on_c, 6, 59, 110
8, 70139, Note_on_c, 6, 59, 0
8, 70140, Note_on_c, 6, 57, 110
8, 70199, Note_on_c, 6, 57, 0
8, 70200, Note_on_c, 6, 59, 110
8, 70259, Note_on_c, 6, 59, 0
8, 70260, Note_on_c, 6, 57, 110
8, 70319, Note_on_c, 6, 57, 0
8, 70320, Note_on_c, 6, 55, 110
8, 70439, Note_on_c, 6, 55, 0
8, 70800, Note_on_c, 6, 55, 110
8, 70859, Note_on_c, 6, 55, 0
8, 70860, Note_on_c, 6, 57, 110
8, 70919, Note_on_c, 6, 57, 0
8, 70920, Note_on_c, 6, 55, 110
8, 70979, Note_on_c, 6, 55, 0
8, 70980, Note_on_c, 6, 54, 110
8, 71039, Note_on_c, 6, 54, 0
8, 71040, Note_on_c, 6, 52, 110
8, 71159, Note_on_c, 6, 52, 0
8, 71400, Note_on_c, 6, 50, 110
8, 71459, Note_on_c, 6, 50, 0
8, 71460, Note_on_c, 6, 52, 110
8, 71519, Note_on_c, 6, 52, 0
8, 71520, Note_on_c, 6, 54, 110
8, 71579, Note_on_c, 6, 54, 0
8, 71580, Note_on_c, 6, 55, 110
8, 71639, Note_on_c, 6, 55, 0
8, 71640, Note_on_c, 6, 57, 110
8, 71699, Note_on_c, 6, 57, 0
8, 71700, Note_on_c, 6, 59, 110
8, 71759, Note_on_c, 6, 59, 0
8, 71760, Note_on_c, 6, 55, 110
8, 71819, Note_on_c, 6, 55, 0
8, 71820, Note_on_c, 6, 54, 110
8, 71879, Note_on_c, 6, 54, 0
8, 71880, Note_on_c, 6, 52, 110
8, 71999, Note_on_c, 6, 52, 0
8, 72000, Note_on_c, 6, 55, 110
8, 72119, Note_on_c, 6, 55, 0
8, 72120, Note_on_c, 6, 54, 110
8, 72179, Note_on_c, 6, 54, 0
8, 72180, Note_on_c, 6, 52, 110
8, 72239, Note_on_c, 6, 52, 0
8, 72240, Note_on_c, 6, 50, 110
8, 72359, Note_on_c, 6, 50, 0
8, 97980, Note_on_c, 6, 52, 110
8, 98040, Note_on_c, 6, 52, 0
8, 98040, Note_on_c, 6, 57, 110
8, 98100, Note_on_c, 6, 57, 0
8, 98100, Note_on_c, 6, 56, 110
8, 98160, Note_on_c, 6, 56, 0
8, 98160, Note_on_c, 6, 57, 110
8, 98220, Note_on_c, 6, 57, 0
8, 98220, Note_on_c, 6, 52, 110
8, 98280, Note_on_c, 6, 52, 0
8, 98280, Note_on_c, 6, 45, 110
8, 98340, Note_on_c, 6, 45, 0
8, 98370, Note_on_c, 6, 55, 110
8, 98400, Note_on_c, 6, 55, 0
8, 98400, Note_on_c, 6, 54, 110
8, 98520, Note_on_c, 6, 54, 0
8, 98580, Note_on_c, 6, 50, 110
8, 98640, Note_on_c, 6, 50, 0
8, 98640, Note_on_c, 6, 57, 110
8, 98700, Note_on_c, 6, 57, 0
8, 98700, Note_on_c, 6, 57, 110
8, 98760, Note_on_c, 6, 57, 0
8, 98760, Note_on_c, 6, 59, 110
8, 98820, Note_on_c, 6, 59, 0
8, 98820, Note_on_c, 6, 61, 110
8, 98880, Note_on_c, 6, 61, 0
8, 98880, Note_on_c, 6, 62, 110
8, 98940, Note_on_c, 6, 62, 0
8, 98940, Note_on_c, 6, 62, 110
8, 99000, Note_on_c, 6, 62, 0
8, 99180, Note_on_c, 6, 54, 110
8, 99240, Note_on_c, 6, 54, 0
8, 99240, Note_on_c, 6, 54, 110
8, 99300, Note_on_c, 6, 54, 0
8, 99300, Note_on_c, 6, 56, 110
8, 99360, Note_on_c, 6, 56, 0
8, 99360, Note_on_c, 6, 57, 110
8, 99420, Note_on_c, 6, 57, 0
8, 99420, Note_on_c, 6, 57, 110
8, 99480, Note_on_c, 6, 57, 0
8, 99480, Note_on_c, 6, 61, 110
8, 99540, Note_on_c, 6, 61, 0
8, 99540, Note_on_c, 6, 59, 110
8, 99600, Note_on_c, 6, 59, 0
8, 99600, Note_on_c, 6, 56, 110
8, 99660, Note_on_c, 6, 56, 0
8, 99690, Note_on_c, 6, 59, 110
8, 99720, Note_on_c, 6, 59, 0
8, 99720, Note_on_c, 6, 61, 110
8, 99780, Note_on_c, 6, 61, 0
8, 99780, Note_on_c, 6, 62, 110
8, 99840, Note_on_c, 6, 62, 0
8, 99840, Note_on_c, 6, 64, 110
8, 99900, Note_on_c, 6, 64, 0
8, 99900, Note_on_c, 6, 52, 110
8, 99960, Note_on_c, 6, 52, 0
8, 99960, Note_on_c, 6, 62, 110
8, 100020, Note_on_c, 6, 62, 0
8, 100020, Note_on_c, 6, 61, 110
8, 100080, Note_on_c, 6, 61, 0
8, 100080, Note_on_c, 6, 61, 110
8, 100140, Note_on_c, 6, 61, 0
8, 100140, Note_on_c, 6, 61, 110
8, 100200, Note_on_c, 6, 61, 0
8, 116580, Note_on_c, 6, 59, 110
8, 116640, Note_on_c, 6, 59, 0
8, 116640, Note_on_c, 6, 59, 110
8, 116700, Note_on_c, 6, 59, 0
8, 116700, Note_on_c, 6, 54, 110
8, 116760, Note_on_c, 6, 54, 0
8, 116760, Note_on_c, 6, 51, 110
8, 116820, Note_on_c, 6, 51, 0
8, 116820, Note_on_c, 6, 52, 110
8, 116880, Note_on_c, 6, 52, 0
8, 116880, Note_on_c, 6, 54, 110
8, 116940, Note_on_c, 6, 54, 0
8, 116940, Note_on_c, 6, 47, 110
8, 117000, Note_on_c, 6, 47, 0
8, 117000, Note_on_c, 6, 57, 110
8, 117060, Note_on_c, 6, 57, 0
8, 117060, Note_on_c, 6, 57, 110
8, 117120, Note_on_c, 6, 57, 0
8, 117120, Note_on_c, 6, 60, 110
8, 117180, Note_on_c, 6, 60, 0
8, 117180, Note_on_c, 6, 59, 110
8, 117240, Note_on_c, 6, 59, 0
8, 117240, Note_on_c, 6, 55, 110
8, 117360, Note_on_c, 6, 55, 0
8, 117420, Note_on_c, 6, 47, 110
8, 117480, Note_on_c, 6, 47, 0
8, 117480, Note_on_c, 6, 52, 110
8, 117540, Note_on_c, 6, 52, 0
8, 117540, Note_on_c, 6, 52, 110
8, 117600, Note_on_c, 6, 52, 0
8, 117600, Note_on_c, 6, 52, 110
8, 117660, Note_on_c, 6, 52, 0
8, 117660, Note_on_c, 6, 54, 110
8, 117720, Note_on_c, 6, 54, 0
8, 117720, Note_on_c, 6, 55, 110
8, 117840, Note_on_c, 6, 55, 0
8, 117900, Note_on_c, 6, 50, 110
8, 117960, Note_on_c, 6, 50, 0
8, 117960, Note_on_c, 6, 53, 110
8, 118020, Note_on_c, 6, 53, 0
8, 118020, Note_on_c, 6, 53, 110
8, 118080, Note_on_c, 6, 53, 0
8, 118080, Note_on_c, 6, 62, 110
8, 118140, Note_on_c, 6, 62, 0
8, 118140, Note_on_c, 6, 59, 110
8, 118200, Note_on_c, 6, 59, 0
8, 118200, Note_on_c, 6, 60, 110
8, 118260, Note_on_c, 6, 60, 0
8, 118290, Note_on_c, 6, 60, 110
8, 118320, Note_on_c, 6, 60, 0
8, 118320, Note_on_c, 6, 60, 110
8, 118380, Note_on_c, 6, 60, 0
8, 118380, Note_on_c, 6, 57, 110
8, 118440, Note_on_c, 6, 57, 0
8, 118440, Note_on_c, 6, 52, 110
8, 118500, Note_on_c, 6, 52, 0
8, 118500, Note_on_c, 6, 52, 110
8, 118560, Note_on_c, 6, 52, 0
8, 118560, Note_on_c, 6, 52, 110
8, 118620, Note_on_c, 6, 52, 0
8, 118620, Note_on_c, 6, 53, 110
8, 118680, Note_on_c, 6, 53, 0
8, 118680, Note_on_c, 6, 55, 110
8, 118740, Note_on_c, 6, 55, 0
8, 118770, Note_on_c, 6, 48, 110
8, 118800, Note_on_c, 6, 48, 0
8, 118800, Note_on_c, 6, 55, 110
8, 118860, Note_on_c, 6, 55, 0
8, 118860, Note_on_c, 6, 58, 110
8, 118920, Note_on_c, 6, 58, 0
8, 118920, Note_on_c, 6, 49, 110
8, 118980, Note_on_c, 6, 49, 0
8, 118980, Note_on_c, 6, 52, 110
8, 119040, Note_on_c, 6, 52, 0
8, 119040, Note_on_c, 6, 55, 110
8, 119100, Note_on_c, 6, 55, 0
8, 119100, Note_on_c, 6, 53, 110
8, 119160, Note_on_c, 6, 53, 0
8, 119160, Note_on_c, 6, 53, 110
8, 119280, Note_on_c, 6, 53, 0
8, 119340, Note_on_c, 6, 57, 110
8, 119400, Note_on_c, 6, 57, 0
8, 119400, Note_on_c, 6, 57, 110
8, 119460, Note_on_c, 6, 57, 0
8, 119460, Note_on_c, 6, 53, 110
8, 119520, Note_on_c, 6, 53, 0
8, 119520, Note_on_c, 6, 50, 110
8, 119580, Note_on_c, 6, 50, 0
8, 119610, Note_on_c, 6, 50, 110
8, 119640, Note_on_c, 6, 50, 0
8, 119640, Note_on_c, 6, 57, 110
8, 119700, Note_on_c, 6, 57, 0
8, 119700, Note_on_c, 6, 57, 110
8, 119760, Note_on_c, 6, 57, 0
8, 119760, Note_on_c, 6, 57, 110
8, 119820, Note_on_c, 6, 57, 0
8, 119820, Note_on_c, 6, 58, 110
8, 119880, Note_on_c, 6, 58, 0
8, 119880, Note_on_c, 6, 60, 110
8, 119940, Note_on_c, 6, 60, 0
8, 119970, Note_on_c, 6, 60, 110
8, 120000, Note_on_c, 6, 60, 0
8, 120000, Note_on_c, 6, 60, 110
8, 120060, Note_on_c, 6, 60, 0
8, 120060, Note_on_c, 6, 57, 110
8, 120120, Note_on_c, 6, 57, 0
8, 120120, Note_on_c, 6, 54, 110
8, 120180, Note_on_c, 6, 54, 0
8, 120180, Note_on_c, 6, 54, 110
8, 120240, Note_on_c, 6, 54, 0
8, 120240, Note_on_c, 6, 63, 110
8, 120300, Note_on_c, 6, 63, 0
8, 120300, Note_on_c, 6, 62, 110
8, 120360, Note_on_c, 6, 62, 0
8, 120360, Note_on_c, 6, 62, 110
8, 120420, Note_on_c, 6, 62, 0
8, 120450, Note_on_c, 6, 57, 110
8, 120480, Note_on_c, 6, 57, 0
8, 120480, Note_on_c, 6, 60, 110
8, 120540, Note_on_c, 6, 60, 0
8, 120540, Note_on_c, 6, 58, 110
8, 120600, Note_on_c, 6, 58, 0
8, 120600, Note_on_c, 6, 58, 110
8, 120660, Note_on_c, 6, 58, 0
8, 120660, Note_on_c, 6, 55, 110
8, 120720, Note_on_c, 6, 55, 0
8, 120720, Note_on_c, 6, 54, 110
8, 120780, Note_on_c, 6, 54, 0
8, 120780, Note_on_c, 6, 52, 110
8, 120840, Note_on_c, 6, 52, 0
8, 120900, Note_on_c, 6, 52, 110
8, 120960, Note_on_c, 6, 52, 0
8, 120960, Note_on_c, 6, 61, 110
8, 121050, Note_on_c, 6, 61, 0
8, 121050, Note_on_c, 6, 62, 110
8, 121080, Note_on_c, 6, 62, 0
8, 121080, Note_on_c, 6, 62, 110
8, 121140, Note_on_c, 6, 62, 0
8, 121140, Note_on_c, 6, 57, 110
8, 121200, Note_on_c, 6, 57, 0
8, 121800, Note_on_c, 6, 50, 110
8, 121889, Note_on_c, 6, 50, 0
8, 121890, Note_on_c, 6, 51, 110
8, 121919, Note_on_c, 6, 51, 0
8, 121920, Note_on_c, 6, 53, 110
8, 122039, Note_on_c, 6, 53, 0
8, 122040, Note_on_c, 6, 58, 110
8, 122159, Note_on_c, 6, 58, 0
8, 122160, Note_on_c, 6, 50, 110
8, 122249, Note_on_c, 6, 50, 0
8, 122250, Note_on_c, 6, 51, 110
8, 122279, Note_on_c, 6, 51, 0
8, 122280, Note_on_c, 6, 53, 110
8, 122519, Note_on_c, 6, 53, 0
8, 122520, Note_on_c, 6, 55, 110
8, 122609, Note_on_c, 6, 55, 0
8, 122610, Note_on_c, 6, 58, 110
8, 122639, Note_on_c, 6, 58, 0
8, 122640, Note_on_c, 6, 53, 110
8, 122729, Note_on_c, 6, 53, 0
8, 122730, Note_on_c, 6, 58, 110
8, 122759, Note_on_c, 6, 58, 0
8, 122760, Note_on_c, 6, 51, 110
8, 122849, Note_on_c, 6, 51, 0
8, 122850, Note_on_c, 6, 58, 110
8, 122879, Note_on_c, 6, 58, 0
8, 122880, Note_on_c, 6, 50, 110
8, 122969, Note_on_c, 6, 50, 0
8, 122970, Note_on_c, 6, 58, 110
8, 122999, Note_on_c, 6, 58, 0
8, 123000, Note_on_c, 6, 48, 110
8, 123239, Note_on_c, 6, 48, 0
8, 123240, Note_on_c, 6, 50, 110
8, 123329, Note_on_c, 6, 50, 0
8, 123330, Note_on_c, 6, 51, 110
8, 123359, Note_on_c, 6, 51, 0
8, 123360, Note_on_c, 6, 53, 110
8, 123479, Note_on_c, 6, 53, 0
8, 123480, Note_on_c, 6, 58, 110
8, 123599, Note_on_c, 6, 58, 0
8, 123600, Note_on_c, 6, 50, 110
8, 123689, Note_on_c, 6, 50, 0
8, 123690, Note_on_c, 6, 51, 110
8, 123719, Note_on_c, 6, 51, 0
8, 123720, Note_on_c, 6, 53, 110
8, 123959, Note_on_c, 6, 53, 0
8, 123960, Note_on_c, 6, 55, 110
8, 124049, Note_on_c, 6, 55, 0
8, 124050, Note_on_c, 6, 58, 110
8, 124079, Note_on_c, 6, 58, 0
8, 124080, Note_on_c, 6, 53, 110
8, 124169, Note_on_c, 6, 53, 0
8, 124170, Note_on_c, 6, 58, 110
8, 124199, Note_on_c, 6, 58, 0
8, 124200, Note_on_c, 6, 51, 110
8, 124289, Note_on_c, 6, 51, 0
8, 124290, Note_on_c, 6, 58, 110
8, 124319, Note_on_c, 6, 58, 0
8, 124320, Note_on_c, 6, 50, 110
8, 124409, Note_on_c, 6, 50, 0
8, 124410, Note_on_c, 6, 58, 110
8, 124439, Note_on_c, 6, 58, 0
8, 124440, Note_on_c, 6, 48, 110
8, 124679, Note_on_c, 6, 48, 0
8, 124680, Note_on_c, 6, 57, 110
8, 124769, Note_on_c, 6, 57, 0
8, 124770, Note_on_c, 6, 58, 110
8, 124799, Note_on_c, 6, 58, 0
8, 124800, Note_on_c, 6, 60, 110
8, 124919, Note_on_c, 6, 60, 0
8, 124920, Note_on_c, 6, 53, 110
8, 125039, Note_on_c, 6, 53, 0
8, 125040, Note_on_c, 6, 50, 110
8, 125129, Note_on_c, 6, 50, 0
8, 125130, Note_on_c, 6, 51, 110
8, 125159, Note_on_c, 6, 51, 0
8, 125160, Note_on_c, 6, 48, 110
8, 125279, Note_on_c, 6, 48, 0
8, 125400, Note_on_c, 6, 57, 110
8, 125489, Note_on_c, 6, 57, 0
8, 125490, Note_on_c, 6, 58, 110
8, 125519, Note_on_c, 6, 58, 0
8, 125520, Note_on_c, 6, 60, 110
8, 125640, Note_on_c, 6, 60, 0
8, 125640, Note_on_c, 6, 53, 110
8, 125760, Note_on_c, 6, 53, 0
8, 125760, Note_on_c, 6, 50, 110
8, 125849, Note_on_c, 6, 50, 0
8, 125850, Note_on_c, 6, 51, 110
8, 125879, Note_on_c, 6, 51, 0
8, 125880, Note_on_c, 6, 48, 110
8, 125999, Note_on_c, 6, 48, 0
8, 126120, Note_on_c, 6, 58, 110
8, 126179, Note_on_c, 6, 58, 0
8, 126180, Note_on_c, 6, 62, 110
8, 126239, Note_on_c, 6, 62, 0
8, 126240, Note_on_c, 6, 60, 110
8, 126299, Note_on_c, 6, 60, 0
8, 126300, Note_on_c, 6, 58, 110
8, 126359, Note_on_c, 6, 58, 0
8, 126360, Note_on_c, 6, 57, 110
8, 126419, Note_on_c, 6, 57, 0
8, 126420, Note_on_c, 6, 53, 110
8, 126479, Note_on_c, 6, 53, 0
8, 126480, Note_on_c, 6, 55, 110
8, 126599, Note_on_c, 6, 55, 0
8, 126600, Note_on_c, 6, 53, 110
8, 126839, Note_on_c, 6, 53, 0
8, 126840, Note_on_c, 6, 58, 110
8, 126899, Note_on_c, 6, 58, 0
8, 126900, Note_on_c, 6, 62, 110
8, 126959, Note_on_c, 6, 62, 0
8, 126960, Note_on_c, 6, 60, 110
8, 127019, Note_on_c, 6, 60, 0
8, 127020, Note_on_c, 6, 58, 110
8, 127079, Note_on_c, 6, 58, 0
8, 127080, Note_on_c, 6, 57, 110
8, 127139, Note_on_c, 6, 57, 0
8, 127140, Note_on_c, 6, 53, 110
8, 127199, Note_on_c, 6, 53, 0
8, 127200, Note_on_c, 6, 58, 110
8, 127259, Note_on_c, 6, 58, 0
8, 127260, Note_on_c, 6, 62, 110
8, 127319, Note_on_c, 6, 62, 0
8, 127320, Note_on_c, 6, 60, 110
8, 127379, Note_on_c, 6, 60, 0
8, 127380, Note_on_c, 6, 58, 110
8, 127439, Note_on_c, 6, 58, 0
8, 127440, Note_on_c, 6, 57, 110
8, 127499, Note_on_c, 6, 57, 0
8, 127500, Note_on_c, 6, 53, 110
8, 127559, Note_on_c, 6, 53, 0
8, 127560, Note_on_c, 6, 58, 110
8, 127679, Note_on_c, 6, 58, 0
8, 127680, Note_on_c, 6, 46, 110
8, 127919, Note_on_c, 6, 46, 0
8, 128280, Note_on_c, 6, 53, 110
8, 128339, Note_on_c, 6, 53, 0
8, 128340, Note_on_c, 6, 53, 110
8, 128399, Note_on_c, 6, 53, 0
8, 128400, Note_on_c, 6, 53, 110
8, 128459, Note_on_c, 6, 53, 0
8, 128460, Note_on_c, 6, 53, 110
8, 128519, Note_on_c, 6, 53, 0
8, 128520, Note_on_c, 6, 53, 110
8, 128579, Note_on_c, 6, 53, 0
8, 128580, Note_on_c, 6, 53, 110
8, 128639, Note_on_c, 6, 53, 0
8, 128640, Note_on_c, 6, 60, 110
8, 128759, Note_on_c, 6, 60, 0
8, 129000, Note_on_c, 6, 53, 110
8, 129059, Note_on_c, 6, 53, 0
8, 129060, Note_on_c, 6, 53, 110
8, 129119, Note_on_c, 6, 53, 0
8, 129120, Note_on_c, 6, 53, 110
8, 129179, Note_on_c, 6, 53, 0
8, 129180, Note_on_c, 6, 53, 110
8, 129239, Note_on_c, 6, 53, 0
8, 129240, Note_on_c, 6, 53, 110
8, 129299, Note_on_c, 6, 53, 0
8, 129300, Note_on_c, 6, 53, 110
8, 129359, Note_on_c, 6, 53, 0
8, 129360, Note_on_c, 6, 62, 110
8, 129479, Note_on_c, 6, 62, 0
8, 129720, Note_on_c, 6, 63, 110
8, 129779, Note_on_c, 6, 63, 0
8, 129780, Note_on_c, 6, 62, 110
8, 129839, Note_on_c, 6, 62, 0
8, 129840, Note_on_c, 6, 60, 110
8, 129899, Note_on_c, 6, 60, 0
8, 129900, Note_on_c, 6, 58, 110
8, 129959, Note_on_c, 6, 58, 0
8, 129960, Note_on_c, 6, 57, 110
8, 130019, Note_on_c, 6, 57, 0
8, 130020, Note_on_c, 6, 55, 110
8, 130079, Note_on_c, 6, 55, 0
8, 130080, Note_on_c, 6, 53, 110
8, 130139, Note_on_c, 6, 53, 0
8, 130140, Note_on_c, 6, 55, 110
8, 130199, Note_on_c, 6, 55, 0
8, 130200, Note_on_c, 6, 57, 110
8, 130259, Note_on_c, 6, 57, 0
8, 130260, Note_on_c, 6, 58, 110
8, 130319, Note_on_c, 6, 58, 0
8, 130320, Note_on_c, 6, 60, 110
8, 130379, Note_on_c, 6, 60, 0
8, 130380, Note_on_c, 6, 57, 110
8, 130439, Note_on_c, 6, 57, 0
8, 130440, Note_on_c, 6, 58, 110
8, 130499, Note_on_c, 6, 58, 0
8, 130500, Note_on_c, 6, 62, 110
8, 130559, Note_on_c, 6, 62, 0
8, 130560, Note_on_c, 6, 60, 110
8, 130619, Note_on_c, 6, 60, 0
8, 130620, Note_on_c, 6, 58, 110
8, 130679, Note_on_c, 6, 58, 0
8, 130680, Note_on_c, 6, 57, 110
8, 130739, Note_on_c, 6, 57, 0
8, 130740, Note_on_c, 6, 53, 110
8, 130799, Note_on_c, 6, 53, 0
8, 130800, Note_on_c, 6, 58, 110
8, 130919, Note_on_c, 6, 58, 0
8, 130920, Note_on_c, 6, 46, 110
8, 131159, Note_on_c, 6, 46, 0
8, 178140, Note_on_c, 6, 50, 110
8, 178200, Note_on_c, 6, 50, 0
8, 178200, Note_on_c, 6, 57, 110
8, 178260, Note_on_c, 6, 57, 0
8, 178260, Note_on_c, 6, 57, 110
8, 178320, Note_on_c, 6, 57, 0
8, 178320, Note_on_c, 6, 62, 110
8, 178380, Note_on_c, 6, 62, 0
8, 178380, Note_on_c, 6, 57, 110
8, 178440, Note_on_c, 6, 57, 0
8, 178440, Note_on_c, 6, 59, 110
8, 178560, Note_on_c, 6, 59, 0
8, 178620, Note_on_c, 6, 59, 110
8, 178680, Note_on_c, 6, 59, 0
8, 178680, Note_on_c, 6, 60, 110
8, 178740, Note_on_c, 6, 60, 0
8, 178740, Note_on_c, 6, 57, 110
8, 178800, Note_on_c, 6, 57, 0
8, 178800, Note_on_c, 6, 59, 110
8, 178860, Note_on_c, 6, 59, 0
8, 178860, Note_on_c, 6, 54, 110
8, 178920, Note_on_c, 6, 54, 0
8, 178920, Note_on_c, 6, 55, 110
8, 178980, Note_on_c, 6, 55, 0
8, 178980, Note_on_c, 6, 55, 110
8, 179040, Note_on_c, 6, 55, 0
8, 179100, Note_on_c, 6, 59, 110
8, 179160, Note_on_c, 6, 59, 0
8, 179160, Note_on_c, 6, 52, 110
8, 179220, Note_on_c, 6, 52, 0
8, 179220, Note_on_c, 6, 52, 110
8, 179280, Note_on_c, 6, 52, 0
8, 179280, Note_on_c, 6, 52, 110
8, 179310, Note_on_c, 6, 52, 0
8, 179310, Note_on_c, 6, 52, 110
8, 179340, Note_on_c, 6, 52, 0
8, 179340, Note_on_c, 6, 55, 110
8, 179370, Note_on_c, 6, 55, 0
8, 179370, Note_on_c, 6, 52, 110
8, 179400, Note_on_c, 6, 52, 0
8, 179400, Note_on_c, 6, 49, 110
8, 179460, Note_on_c, 6, 49, 0
8, 179460, Note_on_c, 6, 49, 110
8, 179520, Note_on_c, 6, 49, 0
8, 179580, Note_on_c, 6, 57, 110
8, 179640, Note_on_c, 6, 57, 0
8, 179640, Note_on_c, 6, 57, 110
8, 179700, Note_on_c, 6, 57, 0
8, 179700, Note_on_c, 6, 50, 110
8, 179760, Note_on_c, 6, 50, 0
8, 179820, Note_on_c, 6, 57, 110
8, 179850, Note_on_c, 6, 57, 0
8, 179850, Note_on_c, 6, 59, 110
8, 179880, Note_on_c, 6, 59, 0
8, 179880, Note_on_c, 6, 60, 110
8, 180000, Note_on_c, 6, 60, 0
8, 180060, Note_on_c, 6, 54, 110
8, 180120, Note_on_c, 6, 54, 0
8, 180120, Note_on_c, 6, 59, 110
8, 180180, Note_on_c, 6, 59, 0
8, 180180, Note_on_c, 6, 52, 110
8, 180240, Note_on_c, 6, 52, 0
8, 180240, Note_on_c, 6, 57, 110
8, 180300, Note_on_c, 6, 57, 0
8, 180300, Note_on_c, 6, 55, 110
8, 180360, Note_on_c, 6, 55, 0
8, 180360, Note_on_c, 6, 54, 110
8, 180420, Note_on_c, 6, 54, 0
8, 180420, Note_on_c, 6, 52, 110
8, 180480, Note_on_c, 6, 52, 0
8, 181140, Note_on_c, 6, 50, 110
8, 181199, Note_on_c, 6, 50, 0
8, 181200, Note_on_c, 6, 55, 110
8, 181259, Note_on_c, 6, 55, 0
8, 181260, Note_on_c, 6, 54, 110
8, 181319, Note_on_c, 6, 54, 0
8, 181320, Note_on_c, 6, 55, 110
8, 181379, Note_on_c, 6, 55, 0
8, 181380, Note_on_c, 6, 57, 110
8, 181439, Note_on_c, 6, 57, 0
8, 181440, Note_on_c, 6, 55, 110
8, 181499, Note_on_c, 6, 55, 0
8, 181500, Note_on_c, 6, 57, 110
8, 181559, Note_on_c, 6, 57, 0
8, 181560, Note_on_c, 6, 59, 110
8, 181739, Note_on_c, 6, 59, 0
8, 181740, Note_on_c, 6, 57, 110
8, 181859, Note_on_c, 6, 57, 0
8, 181860, Note_on_c, 6, 57, 110
8, 181919, Note_on_c, 6, 57, 0
8, 181920, Note_on_c, 6, 59, 110
8, 181979, Note_on_c, 6, 59, 0
8, 181980, Note_on_c, 6, 60, 110
8, 182039, Note_on_c, 6, 60, 0
8, 182040, Note_on_c, 6, 59, 110
8, 182099, Note_on_c, 6, 59, 0
8, 182100, Note_on_c, 6, 57, 110
8, 182159, Note_on_c, 6, 57, 0
8, 182160, Note_on_c, 6, 55, 110
8, 182219, Note_on_c, 6, 55, 0
8, 182220, Note_on_c, 6, 57, 110
8, 182279, Note_on_c, 6, 57, 0
8, 182280, Note_on_c, 6, 55, 110
8, 182579, Note_on_c, 6, 55, 0
8, 182580, Note_on_c, 6, 50, 110
8, 182639, Note_on_c, 6, 50, 0
8, 182640, Note_on_c, 6, 55, 110
8, 182699, Note_on_c, 6, 55, 0
8, 182700, Note_on_c, 6, 54, 110
8, 182759, Note_on_c, 6, 54, 0
8, 182760, Note_on_c, 6, 55, 110
8, 182819, Note_on_c, 6, 55, 0
8, 182820, Note_on_c, 6, 57, 110
8, 182879, Note_on_c, 6, 57, 0
8, 182880, Note_on_c, 6, 55, 110
8, 182939, Note_on_c, 6, 55, 0
8, 182940, Note_on_c, 6, 57, 110
8, 182999, Note_on_c, 6, 57, 0
8, 183000, Note_on_c, 6, 59, 110
8, 183179, Note_on_c, 6, 59, 0
8, 183180, Note_on_c, 6, 57, 110
8, 183299, Note_on_c, 6, 57, 0
8, 183300, Note_on_c, 6, 57, 110
8, 183359, Note_on_c, 6, 57, 0
8, 183360, Note_on_c, 6, 59, 110
8, 183419, Note_on_c, 6, 59, 0
8, 183420, Note_on_c, 6, 60, 110
8, 183479, Note_on_c, 6, 60, 0
8, 183480, Note_on_c, 6, 59, 110
8, 183539, Note_on_c, 6, 59, 0
8, 183540, Note_on_c, 6, 57, 110
8, 183599, Note_on_c, 6, 57, 0
8, 183600, Note_on_c, 6, 55, 110
8, 183659, Note_on_c, 6, 55, 0
8, 183660, Note_on_c, 6, 57, 110
8, 183719, Note_on_c, 6, 57, 0
8, 183720, Note_on_c, 6, 55, 110
8, 184019, Note_on_c, 6, 55, 0
8, 184020, Note_on_c, 6, 59, 110
8, 184049, Note_on_c, 6, 59, 0
8, 184050, Note_on_c, 6, 60, 110
8, 184079, Note_on_c, 6, 60, 0
8, 184080, Note_on_c, 6, 62, 110
8, 184199, Note_on_c, 6, 62, 0
8, 184200, Note_on_c, 6, 62, 110
8, 184259, Note_on_c, 6, 62, 0
8, 184260, Note_on_c, 6, 57, 110
8, 184319, Note_on_c, 6, 57, 0
8, 184320, Note_on_c, 6, 59, 110
8, 184379, Note_on_c, 6, 59, 0
8, 184380, Note_on_c, 6, 60, 110
8, 184439, Note_on_c, 6, 60, 0
8, 184440, Note_on_c, 6, 59, 110
8, 184499, Note_on_c, 6, 59, 0
8, 184500, Note_on_c, 6, 57, 110
8, 184559, Note_on_c, 6, 57, 0
8, 184560, Note_on_c, 6, 59, 110
8, 184619, Note_on_c, 6, 59, 0
8, 184620, Note_on_c, 6, 57, 110
8, 184739, Note_on_c, 6, 57, 0
8, 184740, Note_on_c, 6, 59, 110
8, 184769, Note_on_c, 6, 59, 0
8, 184770, Note_on_c, 6, 60, 110
8, 184799, Note_on_c, 6, 60, 0
8, 184800, Note_on_c, 6, 62, 110
8, 184919, Note_on_c, 6, 62, 0
8, 184920, Note_on_c, 6, 62, 110
8, 184979, Note_on_c, 6, 62, 0
8, 184980, Note_on_c, 6, 57, 110
8, 185039, Note_on_c, 6, 57, 0
8, 185040, Note_on_c, 6, 59, 110
8, 185099, Note_on_c, 6, 59, 0
8, 185100, Note_on_c, 6, 60, 110
8, 185159, Note_on_c, 6, 60, 0
8, 185160, Note_on_c, 6, 59, 110
8, 185219, Note_on_c, 6, 59, 0
8, 185220, Note_on_c, 6, 57, 110
8, 185279, Note_on_c, 6, 57, 0
8, 185280, Note_on_c, 6, 59, 110
8, 185339, Note_on_c, 6, 59, 0
8, 185340, Note_on_c, 6, 57, 110
8, 185459, Note_on_c, 6, 57, 0
8, 185460, Note_on_c, 6, 50, 110
8, 185519, Note_on_c, 6, 50, 0
8, 185520, Note_on_c, 6, 55, 110
8, 185579, Note_on_c, 6, 55, 0
8, 185580, Note_on_c, 6, 54, 110
8, 185639, Note_on_c, 6, 54, 0
8, 185640, Note_on_c, 6, 55, 110
8, 185699, Note_on_c, 6, 55, 0
8, 185700, Note_on_c, 6, 57, 110
8, 185759, Note_on_c, 6, 57, 0
8, 185760, Note_on_c, 6, 55, 110
8, 185819, Note_on_c, 6, 55, 0
8, 185820, Note_on_c, 6, 57, 110
8, 185879, Note_on_c, 6, 57, 0
8, 185880, Note_on_c, 6, 59, 110
8, 186059, Note_on_c, 6, 59, 0
8, 186060, Note_on_c, 6, 57, 110
8, 186179, Note_on_c, 6, 57, 0
8, 186180, Note_on_c, 6, 57, 110
8, 186239, Note_on_c, 6, 57, 0
8, 186240, Note_on_c, 6, 59, 110
8, 186299, Note_on_c, 6, 59, 0
8, 186300, Note_on_c, 6, 60, 110
8, 186359, Note_on_c, 6, 60, 0
8, 186360, Note_on_c, 6, 59, 110
8, 186419, Note_on_c, 6, 59, 0
8, 186420, Note_on_c, 6, 57, 110
8, 186479, Note_on_c, 6, 57, 0
8, 186480, Note_on_c, 6, 55, 110
8, 186539, Note_on_c, 6, 55, 0
8, 186540, Note_on_c, 6, 57, 110
8, 186599, Note_on_c, 6, 57, 0
8, 186600, Note_on_c, 6, 55, 110
8, 186899, Note_on_c, 6, 55, 0
8, 199620, Note_on_c, 6, 54, 110
8, 199680, Note_on_c, 6, 54, 0
8, 199680, Note_on_c, 6, 59, 110
8, 199740, Note_on_c, 6, 59, 0
8, 199740, Note_on_c, 6, 62, 110
8, 199800, Note_on_c, 6, 62, 0
8, 199800, Note_on_c, 6, 59, 110
8, 199920, Note_on_c, 6, 59, 0
8, 199980, Note_on_c, 6, 47, 110
8, 200040, Note_on_c, 6, 47, 0
8, 200040, Note_on_c, 6, 52, 110
8, 200100, Note_on_c, 6, 52, 0
8, 200100, Note_on_c, 6, 52, 110
8, 200160, Note_on_c, 6, 52, 0
8, 200160, Note_on_c, 6, 55, 110
8, 200220, Note_on_c, 6, 55, 0
8, 200220, Note_on_c, 6, 54, 110
8, 200280, Note_on_c, 6, 54, 0
8, 200280, Note_on_c, 6, 50, 110
8, 200400, Note_on_c, 6, 50, 0
8, 200460, Note_on_c, 6, 54, 110
8, 200520, Note_on_c, 6, 54, 0
8, 200520, Note_on_c, 6, 59, 110
8, 200580, Note_on_c, 6, 59, 0
8, 200580, Note_on_c, 6, 59, 110
8, 200640, Note_on_c, 6, 59, 0
8, 200640, Note_on_c, 6, 61, 110
8, 200700, Note_on_c, 6, 61, 0
8, 200700, Note_on_c, 6, 62, 110
8, 200760, Note_on_c, 6, 62, 0
8, 200760, Note_on_c, 6, 62, 110
8, 200820, Note_on_c, 6, 62, 0
8, 200820, Note_on_c, 6, 56, 110
8, 200880, Note_on_c, 6, 56, 0
8, 200940, Note_on_c, 6, 59, 110
8, 201000, Note_on_c, 6, 59, 0
8, 201000, Note_on_c, 6, 64, 110
8, 201060, Note_on_c, 6, 64, 0
8, 201060, Note_on_c, 6, 57, 110
8, 201120, Note_on_c, 6, 57, 0
8, 201120, Note_on_c, 6, 62, 110
8, 201180, Note_on_c, 6, 62, 0
8, 201180, Note_on_c, 6, 61, 110
8, 201240, Note_on_c, 6, 61, 0
8, 201240, Note_on_c, 6, 59, 110
8, 201300, Note_on_c, 6, 59, 0
8, 201300, Note_on_c, 6, 57, 110
8, 201360, Note_on_c, 6, 57, 0
8, 204960, Note_on_c, 6, 52, 110
8, 205020, Note_on_c, 6, 52, 0
8, 205020, Note_on_c, 6, 57, 110
8, 205080, Note_on_c, 6, 57, 0
8, 205080, Note_on_c, 6, 61, 110
8, 205140, Note_on_c, 6, 61, 0
8, 205140, Note_on_c, 6, 59, 110
8, 205200, Note_on_c, 6, 59, 0
8, 205200, Note_on_c, 6, 57, 110
8, 205260, Note_on_c, 6, 57, 0
8, 205260, Note_on_c, 6, 52, 110
8, 205290, Note_on_c, 6, 52, 0
8, 205290, Note_on_c, 6, 54, 110
8, 205320, Note_on_c, 6, 54, 0
8, 205320, Note_on_c, 6, 56, 110
8, 205350, Note_on_c, 6, 56, 0
8, 205350, Note_on_c, 6, 57, 110
8, 205380, Note_on_c, 6, 57, 0
8, 205380, Note_on_c, 6, 59, 110
8, 205440, Note_on_c, 6, 59, 0
8, 205440, Note_on_c, 6, 62, 110
8, 205470, Note_on_c, 6, 62, 0
8, 205470, Note_on_c, 6, 59, 110
8, 205500, Note_on_c, 6, 59, 0
8, 205500, Note_on_c, 6, 61, 110
8, 205530, Note_on_c, 6, 61, 0
8, 205530, Note_on_c, 6, 57, 110
8, 205560, Note_on_c, 6, 57, 0
8, 205560, Note_on_c, 6, 64, 110
8, 205680, Note_on_c, 6, 64, 0
8, 207120, Note_on_c, 6, 52, 110
8, 207179, Note_on_c, 6, 52, 0
8, 207180, Note_on_c, 6, 57, 110
8, 207239, Note_on_c, 6, 57, 0
8, 207240, Note_on_c, 6, 61, 110
8, 207299, Note_on_c, 6, 61, 0
8, 207300, Note_on_c, 6, 59, 110
8, 207359, Note_on_c, 6, 59, 0
8, 207360, Note_on_c, 6, 57, 110
8, 207419, Note_on_c, 6, 57, 0
8, 207420, Note_on_c, 6, 52, 110
8, 207449, Note_on_c, 6, 52, 0
8, 207450, Note_on_c, 6, 54, 110
8, 207479, Note_on_c, 6, 54, 0
8, 207480, Note_on_c, 6, 56, 110
8, 207509, Note_on_c, 6, 56, 0
8, 207510, Note_on_c, 6, 57, 110
8, 207539, Note_on_c, 6, 57, 0
8, 207540, Note_on_c, 6, 59, 110
8, 207599, Note_on_c, 6, 59, 0
8, 207600, Note_on_c, 6, 62, 110
8, 207629, Note_on_c, 6, 62, 0
8, 207630, Note_on_c, 6, 59, 110
8, 207659, Note_on_c, 6, 59, 0
8, 207660, Note_on_c, 6, 61, 110
8, 207689, Note_on_c, 6, 61, 0
8, 207690, Note_on_c, 6, 57, 110
8, 207719, Note_on_c, 6, 57, 0
8, 207720, Note_on_c, 6, 64, 110
8, 207839, Note_on_c, 6, 64, 0
8, 207840, Note_on_c, 6, 61, 110
8, 207899, Note_on_c, 6, 61, 0
8, 207900, Note_on_c, 6, 61, 110
8, 207959, Note_on_c, 6, 61, 0
8, 207960, Note_on_c, 6, 54, 110
8, 208019, Note_on_c, 6, 54, 0
8, 208200, Note_on_c, 6, 59, 110
8, 208259, Note_on_c, 6, 59, 0
8, 208260, Note_on_c, 6, 59, 110
8, 208319, Note_on_c, 6, 59, 0
8, 208320, Note_on_c, 6, 52, 110
8, 208379, Note_on_c, 6, 52, 0
8, 208560, Note_on_c, 6, 54, 110
8, 208619, Note_on_c, 6, 54, 0
8, 208620, Note_on_c, 6, 59, 110
8, 208679, Note_on_c, 6, 59, 0
8, 208680, Note_on_c, 6, 62, 110
8, 208739, Note_on_c, 6, 62, 0
8, 208740, Note_on_c, 6, 61, 110
8, 208799, Note_on_c, 6, 61, 0
8, 208800, Note_on_c, 6, 62, 110
8, 208859, Note_on_c, 6, 62, 0
8, 208860, Note_on_c, 6, 59, 110
8, 208919, Note_on_c, 6, 59, 0
8, 208920, Note_on_c, 6, 64, 110
8, 208979, Note_on_c, 6, 64, 0
8, 208980, Note_on_c, 6, 57, 110
8, 209039, Note_on_c, 6, 57, 0
8, 209040, Note_on_c, 6, 61, 110
8, 209099, Note_on_c, 6, 61, 0
8, 209100, Note_on_c, 6, 59, 110
8, 209159, Note_on_c, 6, 59, 0
8, 209160, Note_on_c, 6, 61, 110
8, 209279, Note_on_c, 6, 61, 0
8, 209280, Note_on_c, 6, 61, 110
8, 209339, Note_on_c, 6, 61, 0
8, 209340, Note_on_c, 6, 59, 110
8, 209369, Note_on_c, 6, 59, 0
8, 209400, Note_on_c, 6, 59, 110
8, 209429, Note_on_c, 6, 59, 0
8, 209460, Note_on_c, 6, 59, 110
8, 209489, Note_on_c, 6, 59, 0
8, 209520, Note_on_c, 6, 59, 110
8, 209549, Note_on_c, 6, 59, 0
8, 209580, Note_on_c, 6, 59, 110
8, 209609, Note_on_c, 6, 59, 0
8, 209640, Note_on_c, 6, 59, 110
8, 209669, Note_on_c, 6, 59, 0
8, 209700, Note_on_c, 6, 59, 110
8, 209729, Note_on_c, 6, 59, 0
8, 209760, Note_on_c, 6, 57, 110
8, 209789, Note_on_c, 6, 57, 0
8, 209790, Note_on_c, 6, 56, 110
8, 209819, Note_on_c, 6, 56, 0
8, 209820, Note_on_c, 6, 54, 110
8, 209849, Note_on_c, 6, 54, 0
8, 209850, Note_on_c, 6, 52, 110
8, 209879, Note_on_c, 6, 52, 0
8, 209880, Note_on_c, 6, 59, 110
8, 209999, Note_on_c, 6, 59, 0
8, 210000, Note_on_c, 6, 59, 110
8, 210059, Note_on_c, 6, 59, 0
8, 210060, Note_on_c, 6, 64, 110
8, 210119, Note_on_c, 6, 64, 0
8, 210120, Note_on_c, 6, 52, 110
8, 210179, Note_on_c, 6, 52, 0
8, 210360, Note_on_c, 6, 59, 110
8, 210419, Note_on_c, 6, 59, 0
8, 210420, Note_on_c, 6, 64, 110
8, 210479, Note_on_c, 6, 64, 0
8, 210480, Note_on_c, 6, 52, 110
8, 210539, Note_on_c, 6, 52, 0
8, 210720, Note_on_c, 6, 59, 110
8, 210779, Note_on_c, 6, 59, 0
8, 210780, Note_on_c, 6, 61, 110
8, 211019, Note_on_c, 6, 61, 0
8, 211020, Note_on_c, 6, 54, 110
8, 211049, Note_on_c, 6, 54, 0
8, 211050, Note_on_c, 6, 56, 110
8, 211079, Note_on_c, 6, 56, 0
8, 211080, Note_on_c, 6, 57, 110
8, 211109, Note_on_c, 6, 57, 0
8, 211110, Note_on_c, 6, 54, 110
8, 211139, Note_on_c, 6, 54, 0
8, 211140, Note_on_c, 6, 59, 110
8, 211379, Note_on_c, 6, 59, 0
8, 211380, Note_on_c, 6, 52, 110
8, 211409, Note_on_c, 6, 52, 0
8, 211410, Note_on_c, 6, 54, 110
8, 211439, Note_on_c, 6, 54, 0
8, 211440, Note_on_c, 6, 56, 110
8, 211469, Note_on_c, 6, 56, 0
8, 211470, Note_on_c, 6, 52, 110
8, 211499, Note_on_c, 6, 52, 0
8, 211500, Note_on_c, 6, 54, 110
8, 211559, Note_on_c, 6, 54, 0
8, 211560, Note_on_c, 6, 57, 110
8, 211619, Note_on_c, 6, 57, 0
8, 211620, Note_on_c, 6, 61, 110
8, 211679, Note_on_c, 6, 61, 0
8, 211680, Note_on_c, 6, 59, 110
8, 211709, Note_on_c, 6, 59, 0
8, 211710, Note_on_c, 6, 57, 110
8, 211739, Note_on_c, 6, 57, 0
8, 211740, Note_on_c, 6, 56, 110
8, 211769, Note_on_c, 6, 56, 0
8, 211770, Note_on_c, 6, 54, 110
8, 211799, Note_on_c, 6, 54, 0
8, 211800, Note_on_c, 6, 57, 110
8, 211859, Note_on_c, 6, 57, 0
8, 211860, Note_on_c, 6, 57, 110
8, 211889, Note_on_c, 6, 57, 0
8, 211890, Note_on_c, 6, 59, 110
8, 211919, Note_on_c, 6, 59, 0
8, 211920, Note_on_c, 6, 57, 110
8, 211949, Note_on_c, 6, 57, 0
8, 211950, Note_on_c, 6, 59, 110
8, 211979, Note_on_c, 6, 59, 0
8, 211980, Note_on_c, 6, 57, 110
8, 212009, Note_on_c, 6, 57, 0
8, 212010, Note_on_c, 6, 59, 110
8, 212039, Note_on_c, 6, 59, 0
8, 212040, Note_on_c, 6, 57, 110
8, 212069, Note_on_c, 6, 57, 0
8, 212070, Note_on_c, 6, 59, 110
8, 212099, Note_on_c, 6, 59, 0
8, 212100, Note_on_c, 6, 56, 110
8, 212129, Note_on_c, 6, 56, 0
8, 212130, Note_on_c, 6, 57, 110
8, 212159, Note_on_c, 6, 57, 0
8, 212160, Note_on_c, 6, 54, 110
8, 212189, Note_on_c, 6, 54, 0
8, 212190, Note_on_c, 6, 56, 110
8, 212219, Note_on_c, 6, 56, 0
8, 212220, Note_on_c, 6, 52, 110
8, 212249, Note_on_c, 6, 52, 0
8, 212280, Note_on_c, 6, 56, 110
8, 212309, Note_on_c, 6, 56, 0
8, 212340, Note_on_c, 6, 59, 110
8, 212369, Note_on_c, 6, 59, 0
8, 212400, Note_on_c, 6, 64, 110
8, 212429, Note_on_c, 6, 64, 0
8, 212460, Note_on_c, 6, 59, 110
8, 212519, Note_on_c, 6, 59, 0
8, 212520, Note_on_c, 6, 57, 110
8, 212579, Note_on_c, 6, 57, 0
8, 212580, Note_on_c, 6, 56, 110
8, 212639, Note_on_c, 6, 56, 0
8, 212640, Note_on_c, 6, 54, 110
8, 212669, Note_on_c, 6, 54, 0
8, 212670, Note_on_c, 6, 52, 110
8, 212699, Note_on_c, 6, 52, 0
8, 212700, Note_on_c, 6, 54, 110
8, 212729, Note_on_c, 6, 54, 0
8, 212730, Note_on_c, 6, 51, 110
8, 212759, Note_on_c, 6, 51, 0
8, 212760, Note_on_c, 6, 52, 110
8, 212879, Note_on_c, 6, 52, 0
8, 215040, Note_on_c, 6, 59, 110
8, 215099, Note_on_c, 6, 59, 0
8, 215100, Note_on_c, 6, 61, 110
8, 215129, Note_on_c, 6, 61, 0
8, 215130, Note_on_c, 6, 62, 110
8, 215159, Note_on_c, 6, 62, 0
8, 215160, Note_on_c, 6, 64, 110
8, 215279, Note_on_c, 6, 64, 0
8, 215280, Note_on_c, 6, 59, 110
8, 215339, Note_on_c, 6, 59, 0
8, 215340, Note_on_c, 6, 61, 110
8, 215399, Note_on_c, 6, 61, 0
8, 215400, Note_on_c, 6, 62, 110
8, 215459, Note_on_c, 6, 62, 0
8, 215460, Note_on_c, 6, 61, 110
8, 215519, Note_on_c, 6, 61, 0
8, 215520, Note_on_c, 6, 62, 110
8, 215549, Note_on_c, 6, 62, 0
8, 215550, Note_on_c, 6, 61, 110
8, 215579, Note_on_c, 6, 61, 0
8, 215580, Note_on_c, 6, 59, 110
8, 215609, Note_on_c, 6, 59, 0
8, 215610, Note_on_c, 6, 57, 110
8, 215639, Note_on_c, 6, 57, 0
8, 215640, Note_on_c, 6, 59, 110
8, 215699, Note_on_c, 6, 59, 0
8, 215700, Note_on_c, 6, 52, 110
8, 215759, Note_on_c, 6, 52, 0
8, 215760, Note_on_c, 6, 64, 110
8, 215819, Note_on_c, 6, 64, 0
8, 215820, Note_on_c, 6, 64, 110
8, 215879, Note_on_c, 6, 64, 0
8, 215880, Note_on_c, 6, 52, 110
8, 215939, Note_on_c, 6, 52, 0
8, 216120, Note_on_c, 6, 64, 110
8, 216179, Note_on_c, 6, 64, 0
8, 216180, Note_on_c, 6, 64, 110
8, 216239, Note_on_c, 6, 64, 0
8, 216240, Note_on_c, 6, 52, 110
8, 216299, Note_on_c, 6, 52, 0
8, 216480, Note_on_c, 6, 52, 110
8, 216539, Note_on_c, 6, 52, 0
8, 216540, Note_on_c, 6, 57, 110
8, 216599, Note_on_c, 6, 57, 0
8, 216600, Note_on_c, 6, 61, 110
8, 216659, Note_on_c, 6, 61, 0
8, 216660, Note_on_c, 6, 59, 110
8, 216719, Note_on_c, 6, 59, 0
8, 216720, Note_on_c, 6, 57, 110
8, 216779, Note_on_c, 6, 57, 0
8, 216780, Note_on_c, 6, 52, 110
8, 216809, Note_on_c, 6, 52, 0
8, 216810, Note_on_c, 6, 54, 110
8, 216839, Note_on_c, 6, 54, 0
8, 216840, Note_on_c, 6, 56, 110
8, 216869, Note_on_c, 6, 56, 0
8, 216870, Note_on_c, 6, 57, 110
8, 216899, Note_on_c, 6, 57, 0
8, 216900, Note_on_c, 6, 59, 110
8, 216959, Note_on_c, 6, 59, 0
8, 216960, Note_on_c, 6, 62, 110
8, 216989, Note_on_c, 6, 62, 0
8, 216990, Note_on_c, 6, 59, 110
8, 217019, Note_on_c, 6, 59, 0
8, 217020, Note_on_c, 6, 61, 110
8, 217049, Note_on_c, 6, 61, 0
8, 217050, Note_on_c, 6, 57, 110
8, 217079, Note_on_c, 6, 57, 0
8, 217080, Note_on_c, 6, 64, 110
8, 217199, Note_on_c, 6, 64, 0
8, 217200, Note_on_c, 6, 61, 110
8, 217259, Note_on_c, 6, 61, 0
8, 217260, Note_on_c, 6, 61, 110
8, 217319, Note_on_c, 6, 61, 0
8, 217320, Note_on_c, 6, 54, 110
8, 217379, Note_on_c, 6, 54, 0
8, 217560, Note_on_c, 6, 59, 110
8, 217619, Note_on_c, 6, 59, 0
8, 217620, Note_on_c, 6, 59, 110
8, 217679, Note_on_c, 6, 59, 0
8, 217680, Note_on_c, 6, 52, 110
8, 217739, Note_on_c, 6, 52, 0
8, 217920, Note_on_c, 6, 54, 110
8, 217979, Note_on_c, 6, 54, 0
8, 217980, Note_on_c, 6, 62, 110
8, 218009, Note_on_c, 6, 62, 0
8, 218040, Note_on_c, 6, 62, 110
8, 218069, Note_on_c, 6, 62, 0
8, 218100, Note_on_c, 6, 62, 110
8, 218129, Note_on_c, 6, 62, 0
8, 218160, Note_on_c, 6, 62, 110
8, 218189, Note_on_c, 6, 62, 0
8, 218220, Note_on_c, 6, 52, 110
8, 218279, Note_on_c, 6, 52, 0
8, 218280, Note_on_c, 6, 64, 110
8, 218339, Note_on_c, 6, 64, 0
8, 218340, Note_on_c, 6, 61, 110
8, 218399, Note_on_c, 6, 61, 0
8, 218400, Note_on_c, 6, 59, 110
8, 218429, Note_on_c, 6, 59, 0
8, 218430, Note_on_c, 6, 57, 110
8, 218459, Note_on_c, 6, 57, 0
8, 218460, Note_on_c, 6, 59, 110
8, 218519, Note_on_c, 6, 59, 0
8, 218520, Note_on_c, 6, 52, 110
8, 218639, Note_on_c, 6, 52, 0
8, 218640, Note_on_c, 6, 52, 110
8, 218699, Note_on_c, 6, 52, 0
8, 218700, Note_on_c, 6, 57, 110
8, 218759, Note_on_c, 6, 57, 0
8, 218760, Note_on_c, 6, 59, 110
8, 218819, Note_on_c, 6, 59, 0
8, 218820, Note_on_c, 6, 52, 110
8, 218879, Note_on_c, 6, 52, 0
8, 218880, Note_on_c, 6, 61, 110
8, 218939, Note_on_c, 6, 61, 0
8, 218940, Note_on_c, 6, 62, 110
8, 218999, Note_on_c, 6, 62, 0
8, 219000, Note_on_c, 6, 52, 110
8, 219059, Note_on_c, 6, 52, 0
8, 219060, Note_on_c, 6, 50, 110
8, 219119, Note_on_c, 6, 50, 0
8, 219120, Note_on_c, 6, 49, 110
8, 219179, Note_on_c, 6, 49, 0
8, 219180, Note_on_c, 6, 47, 110
8, 219239, Note_on_c, 6, 47, 0
8, 219240, Note_on_c, 6, 45, 110
8, 219359, Note_on_c, 6, 45, 0
8, 219360, Note_on_c, 6, 52, 110
8, 219419, Note_on_c, 6, 52, 0
8, 219420, Note_on_c, 6, 51, 110
8, 219449, Note_on_c, 6, 51, 0
8, 219450, Note_on_c, 6, 52, 110
8, 219479, Note_on_c, 6, 52, 0
8, 219480, Note_on_c, 6, 54, 110
8, 219630, Note_on_c, 6, 54, 0
8, 219630, Note_on_c, 6, 56, 110
8, 219659, Note_on_c, 6, 56, 0
8, 219660, Note_on_c, 6, 57, 110
8, 219810, Note_on_c, 6, 57, 0
8, 219810, Note_on_c, 6, 59, 110
8, 219839, Note_on_c, 6, 59, 0
8, 219840, Note_on_c, 6, 61, 110
8, 219869, Note_on_c, 6, 61, 0
8, 219870, Note_on_c, 6, 59, 110
8, 219899, Note_on_c, 6, 59, 0
8, 219900, Note_on_c, 6, 62, 110
8, 219929, Note_on_c, 6, 62, 0
8, 219930, Note_on_c, 6, 61, 110
8, 219959, Note_on_c, 6, 61, 0
8, 219960, Note_on_c, 6, 59, 110
8, 219989, Note_on_c, 6, 59, 0
8, 219990, Note_on_c, 6, 57, 110
8, 220019, Note_on_c, 6, 57, 0
8, 220020, Note_on_c, 6, 56, 110
8, 220049, Note_on_c, 6, 56, 0
8, 220050, Note_on_c, 6, 54, 110
8, 220079, Note_on_c, 6, 54, 0
8, 220080, Note_on_c, 6, 52, 110
8, 220109, Note_on_c, 6, 52, 0
8, 220110, Note_on_c, 6, 50, 110
8, 220139, Note_on_c, 6, 50, 0
8, 220140, Note_on_c, 6, 49, 110
8, 220199, Note_on_c, 6, 49, 0
8, 220200, Note_on_c, 6, 52, 110
8, 220259, Note_on_c, 6, 52, 0
8, 220260, Note_on_c, 6, 57, 110
8, 220319, Note_on_c, 6, 57, 0
8, 220320, Note_on_c, 6, 56, 110
8, 220379, Note_on_c, 6, 56, 0
8, 220380, Note_on_c, 6, 64, 110
8, 220499, Note_on_c, 6, 64, 0
8, 220500, Note_on_c, 6, 52, 110
8, 220559, Note_on_c, 6, 52, 0
8, 220560, Note_on_c, 6, 61, 110
8, 220589, Note_on_c, 6, 61, 0
8, 220590, Note_on_c, 6, 59, 110
8, 220619, Note_on_c, 6, 59, 0
8, 220620, Note_on_c, 6, 57, 110
8, 220649, Note_on_c, 6, 57, 0
8, 220650, Note_on_c, 6, 56, 110
8, 220679, Note_on_c, 6, 56, 0
8, 220680, Note_on_c, 6, 57, 110
8, 220799, Note_on_c, 6, 57, 0
8, 223800, Note_on_c, 6, 61, 110
8, 223919, Note_on_c, 6, 61, 0
8, 223920, Note_on_c, 6, 54, 110
8, 224039, Note_on_c, 6, 54, 0
8, 224040, Note_on_c, 6, 53, 110
8, 224399, Note_on_c, 6, 53, 0
8, 224400, Note_on_c, 6, 53, 110
8, 224519, Note_on_c, 6, 53, 0
8, 224520, Note_on_c, 6, 62, 110
8, 224639, Note_on_c, 6, 62, 0
8, 224640, Note_on_c, 6, 61, 110
8, 224879, Note_on_c, 6, 61, 0
8, 224880, Note_on_c, 6, 59, 110
8, 224999, Note_on_c, 6, 59, 0
8, 225000, Note_on_c, 6, 58, 110
8, 225239, Note_on_c, 6, 58, 0
8, 225240, Note_on_c, 6, 59, 110
8, 225299, Note_on_c, 6, 59, 0
8, 225300, Note_on_c, 6, 58, 110
8, 225359, Note_on_c, 6, 58, 0
8, 225360, Note_on_c, 6, 56, 110
8, 225419, Note_on_c, 6, 56, 0
8, 225420, Note_on_c, 6, 54, 110
8, 225479, Note_on_c, 6, 54, 0
8, 225480, Note_on_c, 6, 59, 110
8, 225839, Note_on_c, 6, 59, 0
8, 225840, Note_on_c, 6, 52, 110
8, 225959, Note_on_c, 6, 52, 0
8, 225960, Note_on_c, 6, 51, 110
8, 226019, Note_on_c, 6, 51, 0
8, 226020, Note_on_c, 6, 54, 110
8, 226079, Note_on_c, 6, 54, 0
8, 226080, Note_on_c, 6, 57, 110
8, 226259, Note_on_c, 6, 57, 0
8, 226260, Note_on_c, 6, 56, 110
8, 226319, Note_on_c, 6, 56, 0
8, 226320, Note_on_c, 6, 57, 110
8, 226439, Note_on_c, 6, 57, 0
8, 226440, Note_on_c, 6, 56, 110
8, 227040, Note_on_c, 6, 56, 0
8, 227040, Note_on_c, 6, 56, 110
8, 227159, Note_on_c, 6, 56, 0
8, 227160, Note_on_c, 6, 61, 110
8, 227519, Note_on_c, 6, 61, 0
8, 227520, Note_on_c, 6, 64, 110
8, 227639, Note_on_c, 6, 64, 0
8, 227640, Note_on_c, 6, 64, 110
8, 227699, Note_on_c, 6, 64, 0
8, 227700, Note_on_c, 6, 63, 110
8, 227759, Note_on_c, 6, 63, 0
8, 227760, Note_on_c, 6, 61, 110
8, 227819, Note_on_c, 6, 61, 0
8, 227820, Note_on_c, 6, 60, 110
8, 227879, Note_on_c, 6, 60, 0
8, 227880, Note_on_c, 6, 61, 110
8, 228119, Note_on_c, 6, 61, 0
8, 228240, Note_on_c, 6, 49, 110
8, 228359, Note_on_c, 6, 49, 0
8, 228360, Note_on_c, 6, 57, 110
8, 228419, Note_on_c, 6, 57, 0
8, 228420, Note_on_c, 6, 59, 110
8, 228479, Note_on_c, 6, 59, 0
8, 228480, Note_on_c, 6, 61, 110
8, 228659, Note_on_c, 6, 61, 0
8, 228660, Note_on_c, 6, 59, 110
8, 228719, Note_on_c, 6, 59, 0
8, 228720, Note_on_c, 6, 57, 110
8, 228779, Note_on_c, 6, 57, 0
8, 228780, Note_on_c, 6, 56, 110
8, 228839, Note_on_c, 6, 56, 0
8, 228840, Note_on_c, 6, 57, 110
8, 228959, Note_on_c, 6, 57, 0
8, 228960, Note_on_c, 6, 56, 110
8, 229019, Note_on_c, 6, 56, 0
8, 229020, Note_on_c, 6, 57, 110
8, 229079, Note_on_c, 6, 57, 0
8, 229080, Note_on_c, 6, 59, 110
8, 229199, Note_on_c, 6, 59, 0
8, 229200, Note_on_c, 6, 57, 110
8, 229259, Note_on_c, 6, 57, 0
8, 229260, Note_on_c, 6, 56, 110
8, 229319, Note_on_c, 6, 56, 0
8, 229320, Note_on_c, 6, 57, 110
8, 229559, Note_on_c, 6, 57, 0
8, 229560, Note_on_c, 6, 54, 110
8, 229679, Note_on_c, 6, 54, 0
8, 229680, Note_on_c, 6, 57, 110
8, 229799, Note_on_c, 6, 57, 0
8, 229800, Note_on_c, 6, 51, 110
8, 230159, Note_on_c, 6, 51, 0
8, 230160, Note_on_c, 6, 51, 110
8, 230279, Note_on_c, 6, 51, 0
8, 230280, Note_on_c, 6, 60, 110
8, 230399, Note_on_c, 6, 60, 0
8, 230400, Note_on_c, 6, 59, 110
8, 230639, Note_on_c, 6, 59, 0
8, 230640, Note_on_c, 6, 57, 110
8, 230759, Note_on_c, 6, 57, 0
8, 230760, Note_on_c, 6, 56, 110
8, 230999, Note_on_c, 6, 56, 0
8, 231000, Note_on_c, 6, 57, 110
8, 231059, Note_on_c, 6, 57, 0
8, 231060, Note_on_c, 6, 56, 110
8, 231119, Note_on_c, 6, 56, 0
8, 231120, Note_on_c, 6, 54, 110
8, 231179, Note_on_c, 6, 54, 0
8, 231180, Note_on_c, 6, 52, 110
8, 231239, Note_on_c, 6, 52, 0
8, 231240, Note_on_c, 6, 57, 110
8, 231599, Note_on_c, 6, 57, 0
8, 231600, Note_on_c, 6, 50, 110
8, 231719, Note_on_c, 6, 50, 0
8, 231720, Note_on_c, 6, 49, 110
8, 231779, Note_on_c, 6, 49, 0
8, 231780, Note_on_c, 6, 52, 110
8, 231839, Note_on_c, 6, 52, 0
8, 231840, Note_on_c, 6, 55, 110
8, 232019, Note_on_c, 6, 55, 0
8, 232020, Note_on_c, 6, 54, 110
8, 232079, Note_on_c, 6, 54, 0
8, 232080, Note_on_c, 6, 55, 110
8, 232199, Note_on_c, 6, 55, 0
8, 232200, Note_on_c, 6, 54, 110
8, 232800, Note_on_c, 6, 54, 0
8, 232800, Note_on_c, 6, 54, 110
8, 232919, Note_on_c, 6, 54, 0
8, 232920, Note_on_c, 6, 59, 110
8, 233279, Note_on_c, 6, 59, 0
8, 233280, Note_on_c, 6, 62, 110
8, 233399, Note_on_c, 6, 62, 0
8, 233400, Note_on_c, 6, 62, 110
8, 233459, Note_on_c, 6, 62, 0
8, 233460, Note_on_c, 6, 61, 110
8, 233519, Note_on_c, 6, 61, 0
8, 233520, Note_on_c, 6, 59, 110
8, 233579, Note_on_c, 6, 59, 0
8, 233580, Note_on_c, 6, 58, 110
8, 233639, Note_on_c, 6, 58, 0
8, 233640, Note_on_c, 6, 59, 110
8, 233879, Note_on_c, 6, 59, 0
8, 234000, Note_on_c, 6, 47, 110
8, 234119, Note_on_c, 6, 47, 0
8, 234120, Note_on_c, 6, 55, 110
8, 234179, Note_on_c, 6, 55, 0
8, 234180, Note_on_c, 6, 57, 110
8, 234239, Note_on_c, 6, 57, 0
8, 234240, Note_on_c, 6, 59, 110
8, 234419, Note_on_c, 6, 59, 0
8, 234420, Note_on_c, 6, 57, 110
8, 234479, Note_on_c, 6, 57, 0
8, 234480, Note_on_c, 6, 55, 110
8, 234539, Note_on_c, 6, 55, 0
8, 234540, Note_on_c, 6, 54, 110
8, 234599, Note_on_c, 6, 54, 0
8, 234600, Note_on_c, 6, 55, 110
8, 234719, Note_on_c, 6, 55, 0
8, 234720, Note_on_c, 6, 54, 110
8, 234779, Note_on_c, 6, 54, 0
8, 234780, Note_on_c, 6, 55, 110
8, 234839, Note_on_c, 6, 55, 0
8, 234840, Note_on_c, 6, 57, 110
8, 234959, Note_on_c, 6, 57, 0
8, 234960, Note_on_c, 6, 55, 110
8, 235019, Note_on_c, 6, 55, 0
8, 235020, Note_on_c, 6, 54, 110
8, 235079, Note_on_c, 6, 54, 0
8, 235080, Note_on_c, 6, 55, 110
8, 235199, Note_on_c, 6, 55, 0
8, 235200, Note_on_c, 6, 59, 110
8, 235319, Note_on_c, 6, 59, 0
8, 235320, Note_on_c, 6, 64, 110
8, 235559, Note_on_c, 6, 64, 0
8, 235680, Note_on_c, 6, 54, 110
8, 235799, Note_on_c, 6, 54, 0
8, 235800, Note_on_c, 6, 62, 110
8, 235919, Note_on_c, 6, 62, 0
8, 235920, Note_on_c, 6, 59, 110
8, 236039, Note_on_c, 6, 59, 0
8, 236040, Note_on_c, 6, 57, 110
8, 236099, Note_on_c, 6, 57, 0
8, 236100, Note_on_c, 6, 55, 110
8, 236159, Note_on_c, 6, 55, 0
8, 236160, Note_on_c, 6, 54, 110
8, 236219, Note_on_c, 6, 54, 0
8, 236220, Note_on_c, 6, 52, 110
8, 236279, Note_on_c, 6, 52, 0
8, 236280, Note_on_c, 6, 61, 110
8, 236519, Note_on_c, 6, 61, 0
8, 236760, Note_on_c, 6, 54, 110
8, 236879, Note_on_c, 6, 54, 0
8, 236880, Note_on_c, 6, 54, 110
8, 236999, Note_on_c, 6, 54, 0
8, 237000, Note_on_c, 6, 62, 110
8, 237119, Note_on_c, 6, 62, 0
8, 237120, Note_on_c, 6, 61, 110
8, 237359, Note_on_c, 6, 61, 0
8, 237360, Note_on_c, 6, 59, 110
8, 237479, Note_on_c, 6, 59, 0
8, 237480, Note_on_c, 6, 57, 110
8, 237599, Note_on_c, 6, 57, 0
8, 237600, Note_on_c, 6, 55, 110
8, 237839, Note_on_c, 6, 55, 0
8, 237840, Note_on_c, 6, 54, 110
8, 237959, Note_on_c, 6, 54, 0
8, 237960, Note_on_c, 6, 53, 110
8, 238199, Note_on_c, 6, 53, 0
8, 238680, Note_on_c, 6, 54, 110
8, 238799, Note_on_c, 6, 54, 0
8, 238800, Note_on_c, 6, 54, 110
8, 238919, Note_on_c, 6, 54, 0
8, 238920, Note_on_c, 6, 62, 110
8, 239039, Note_on_c, 6, 62, 0
8, 239040, Note_on_c, 6, 61, 110
8, 239279, Note_on_c, 6, 61, 0
8, 239280, Note_on_c, 6, 59, 110
8, 239399, Note_on_c, 6, 59, 0
8, 239400, Note_on_c, 6, 57, 110
8, 239519, Note_on_c, 6, 57, 0
8, 239520, Note_on_c, 6, 55, 110
8, 239759, Note_on_c, 6, 55, 0
8, 239760, Note_on_c, 6, 54, 110
8, 239879, Note_on_c, 6, 54, 0
8, 239880, Note_on_c, 6, 53, 110
8, 240119, Note_on_c, 6, 53, 0
8, 240480, Note_on_c, 6, 49, 110
8, 240599, Note_on_c, 6, 49, 0
8, 240600, Note_on_c, 6, 54, 110
8, 240959, Note_on_c, 6, 54, 0
8, 240960, Note_on_c, 6, 57, 110
8, 241079, Note_on_c, 6, 57, 0
8, 241080, Note_on_c, 6, 57, 110
8, 241139, Note_on_c, 6, 57, 0
8, 241140, Note_on_c, 6, 56, 110
8, 241199, Note_on_c, 6, 56, 0
8, 241200, Note_on_c, 6, 54, 110
8, 241259, Note_on_c, 6, 54, 0
8, 241260, Note_on_c, 6, 53, 110
8, 241319, Note_on_c, 6, 53, 0
8, 241320, Note_on_c, 6, 54, 110
8, 241559, Note_on_c, 6, 54, 0
8, 241680, Note_on_c, 6, 52, 110
8, 241799, Note_on_c, 6, 52, 0
8, 241800, Note_on_c, 6, 50, 110
8, 241859, Note_on_c, 6, 50, 0
8, 241860, Note_on_c, 6, 52, 110
8, 241919, Note_on_c, 6, 52, 0
8, 241920, Note_on_c, 6, 54, 110
8, 242099, Note_on_c, 6, 54, 0
8, 242100, Note_on_c, 6, 52, 110
8, 242159, Note_on_c, 6, 52, 0
8, 242160, Note_on_c, 6, 50, 110
8, 242219, Note_on_c, 6, 50, 0
8, 242220, Note_on_c, 6, 49, 110
8, 242279, Note_on_c, 6, 49, 0
8, 242280, Note_on_c, 6, 50, 110
8, 242399, Note_on_c, 6, 50, 0
8, 242400, Note_on_c, 6, 49, 110
8, 242459, Note_on_c, 6, 49, 0
8, 242460, Note_on_c, 6, 50, 110
8, 242519, Note_on_c, 6, 50, 0
8, 242520, Note_on_c, 6, 52, 110
8, 242639, Note_on_c, 6, 52, 0
8, 242640, Note_on_c, 6, 50, 110
8, 242699, Note_on_c, 6, 50, 0
8, 242700, Note_on_c, 6, 49, 110
8, 242759, Note_on_c, 6, 49, 0
8, 242760, Note_on_c, 6, 50, 110
8, 242879, Note_on_c, 6, 50, 0
8, 242880, Note_on_c, 6, 54, 110
8, 242999, Note_on_c, 6, 54, 0
8, 243000, Note_on_c, 6, 59, 110
8, 243239, Note_on_c, 6, 59, 0
8, 243360, Note_on_c, 6, 49, 110
8, 243479, Note_on_c, 6, 49, 0
8, 243480, Note_on_c, 6, 57, 110
8, 243599, Note_on_c, 6, 57, 0
8, 243600, Note_on_c, 6, 54, 110
8, 243719, Note_on_c, 6, 54, 0
8, 243720, Note_on_c, 6, 52, 110
8, 243779, Note_on_c, 6, 52, 0
8, 243780, Note_on_c, 6, 50, 110
8, 243839, Note_on_c, 6, 50, 0
8, 243840, Note_on_c, 6, 49, 110
8, 243899, Note_on_c, 6, 49, 0
8, 243900, Note_on_c, 6, 47, 110
8, 243959, Note_on_c, 6, 47, 0
8, 243960, Note_on_c, 6, 56, 110
8, 244199, Note_on_c, 6, 56, 0
8, 244320, Note_on_c, 6, 56, 110
8, 244439, Note_on_c, 6, 56, 0
8, 244440, Note_on_c, 6, 57, 110
8, 244499, Note_on_c, 6, 57, 0
8, 244500, Note_on_c, 6, 56, 110
8, 244559, Note_on_c, 6, 56, 0
8, 244560, Note_on_c, 6, 54, 110
8, 244619, Note_on_c, 6, 54, 0
8, 244620, Note_on_c, 6, 53, 110
8, 244679, Note_on_c, 6, 53, 0
8, 244680, Note_on_c, 6, 54, 110
8, 244739, Note_on_c, 6, 54, 0
8, 244740, Note_on_c, 6, 56, 110
8, 244799, Note_on_c, 6, 56, 0
8, 244800, Note_on_c, 6, 57, 110
8, 244859, Note_on_c, 6, 57, 0
8, 244860, Note_on_c, 6, 59, 110
8, 244919, Note_on_c, 6, 59, 0
8, 244920, Note_on_c, 6, 61, 110
8, 244979, Note_on_c, 6, 61, 0
8, 244980, Note_on_c, 6, 62, 110
8, 245039, Note_on_c, 6, 62, 0
8, 245040, Note_on_c, 6, 59, 110
8, 245099, Note_on_c, 6, 59, 0
8, 245100, Note_on_c, 6, 61, 110
8, 245159, Note_on_c, 6, 61, 0
8, 245160, Note_on_c, 6, 62, 110
8, 245219, Note_on_c, 6, 62, 0
8, 245220, Note_on_c, 6, 61, 110
8, 245279, Note_on_c, 6, 61, 0
8, 245280, Note_on_c, 6, 59, 110
8, 245339, Note_on_c, 6, 59, 0
8, 245340, Note_on_c, 6, 58, 110
8, 245399, Note_on_c, 6, 58, 0
8, 245400, Note_on_c, 6, 59, 110
8, 245759, Note_on_c, 6, 59, 0
8, 245760, Note_on_c, 6, 57, 110
8, 245819, Note_on_c, 6, 57, 0
8, 245820, Note_on_c, 6, 56, 110
8, 245879, Note_on_c, 6, 56, 0
8, 245880, Note_on_c, 6, 59, 110
8, 245939, Note_on_c, 6, 59, 0
8, 245940, Note_on_c, 6, 57, 110
8, 245999, Note_on_c, 6, 57, 0
8, 246000, Note_on_c, 6, 56, 110
8, 246059, Note_on_c, 6, 56, 0
8, 246060, Note_on_c, 6, 54, 110
8, 246119, Note_on_c, 6, 54, 0
8, 246120, Note_on_c, 6, 56, 110
8, 246239, Note_on_c, 6, 56, 0
8, 246240, Note_on_c, 6, 53, 110
8, 246359, Note_on_c, 6, 53, 0
8, 246360, Note_on_c, 6, 49, 110
8, 246479, Note_on_c, 6, 49, 0
8, 246480, Note_on_c, 6, 59, 110
8, 246599, Note_on_c, 6, 59, 0
8, 246600, Note_on_c, 6, 57, 110
8, 246839, Note_on_c, 6, 57, 0
8, 246840, Note_on_c, 6, 56, 110
8, 247079, Note_on_c, 6, 56, 0
8, 247080, Note_on_c, 6, 54, 110
8, 247319, Note_on_c, 6, 54, 0
8, 250320, Note_on_c, 6, 52, 110
8, 250380, Note_on_c, 6, 52, 0
8, 250380, Note_on_c, 6, 57, 110
8, 250440, Note_on_c, 6, 57, 0
8, 250440, Note_on_c, 6, 61, 110
8, 250500, Note_on_c, 6, 61, 0
8, 250500, Note_on_c, 6, 59, 110
8, 250560, Note_on_c, 6, 59, 0
8, 250560, Note_on_c, 6, 57, 110
8, 250620, Note_on_c, 6, 57, 0
8, 250620, Note_on_c, 6, 52, 110
8, 250650, Note_on_c, 6, 52, 0
8, 250650, Note_on_c, 6, 54, 110
8, 250680, Note_on_c, 6, 54, 0
8, 250680, Note_on_c, 6, 56, 110
8, 250710, Note_on_c, 6, 56, 0
8, 250710, Note_on_c, 6, 57, 110
8, 250740, Note_on_c, 6, 57, 0
8, 250740, Note_on_c, 6, 59, 110
8, 250800, Note_on_c, 6, 59, 0
8, 250800, Note_on_c, 6, 62, 110
8, 250830, Note_on_c, 6, 62, 0
8, 250830, Note_on_c, 6, 59, 110
8, 250860, Note_on_c, 6, 59, 0
8, 250860, Note_on_c, 6, 61, 110
8, 250890, Note_on_c, 6, 61, 0
8, 250890, Note_on_c, 6, 57, 110
8, 250920, Note_on_c, 6, 57, 0
8, 250920, Note_on_c, 6, 64, 110
8, 251040, Note_on_c, 6, 64, 0
8, 252480, Note_on_c, 6, 52, 110
8, 252539, Note_on_c, 6, 52, 0
8, 252540, Note_on_c, 6, 57, 110
8, 252599, Note_on_c, 6, 57, 0
8, 252600, Note_on_c, 6, 61, 110
8, 252659, Note_on_c, 6, 61, 0
8, 252660, Note_on_c, 6, 59, 110
8, 252719, Note_on_c, 6, 59, 0
8, 252720, Note_on_c, 6, 57, 110
8, 252779, Note_on_c, 6, 57, 0
8, 252780, Note_on_c, 6, 52, 110
8, 252809, Note_on_c, 6, 52, 0
8, 252810, Note_on_c, 6, 54, 110
8, 252839, Note_on_c, 6, 54, 0
8, 252840, Note_on_c, 6, 56, 110
8, 252869, Note_on_c, 6, 56, 0
8, 252870, Note_on_c, 6, 57, 110
8, 252899, Note_on_c, 6, 57, 0
8, 252900, Note_on_c, 6, 59, 110
8, 252959, Note_on_c, 6, 59, 0
8, 252960, Note_on_c, 6, 62, 110
8, 252989, Note_on_c, 6, 62, 0
8, 252990, Note_on_c, 6, 59, 110
8, 253019, Note_on_c, 6, 59, 0
8, 253020, Note_on_c, 6, 61, 110
8, 253049, Note_on_c, 6, 61, 0
8, 253050, Note_on_c, 6, 57, 110
8, 253079, Note_on_c, 6, 57, 0
8, 253080, Note_on_c, 6, 64, 110
8, 253199, Note_on_c, 6, 64, 0
8, 253200, Note_on_c, 6, 61, 110
8, 253259, Note_on_c, 6, 61, 0
8, 253260, Note_on_c, 6, 61, 110
8, 253319, Note_on_c, 6, 61, 0
8, 253320, Note_on_c, 6, 54, 110
8, 253379, Note_on_c, 6, 54, 0
8, 253560, Note_on_c, 6, 59, 110
8, 253619, Note_on_c, 6, 59, 0
8, 253620, Note_on_c, 6, 59, 110
8, 253679, Note_on_c, 6, 59, 0
8, 253680, Note_on_c, 6, 52, 110
8, 253739, Note_on_c, 6, 52, 0
8, 253920, Note_on_c, 6, 54, 110
8, 253979, Note_on_c, 6, 54, 0
8, 253980, Note_on_c, 6, 59, 110
8, 254039, Note_on_c, 6, 59, 0
8, 254040, Note_on_c, 6, 62, 110
8, 254099, Note_on_c, 6, 62, 0
8, 254100, Note_on_c, 6, 61, 110
8, 254159, Note_on_c, 6, 61, 0
8, 254160, Note_on_c, 6, 62, 110
8, 254219, Note_on_c, 6, 62, 0
8, 254220, Note_on_c, 6, 59, 110
8, 254279, Note_on_c, 6, 59, 0
8, 254280, Note_on_c, 6, 64, 110
8, 254339, Note_on_c, 6, 64, 0
8, 254340, Note_on_c, 6, 57, 110
8, 254399, Note_on_c, 6, 57, 0
8, 254400, Note_on_c, 6, 61, 110
8, 254459, Note_on_c, 6, 61, 0
8, 254460, Note_on_c, 6, 59, 110
8, 254519, Note_on_c, 6, 59, 0
8, 254520, Note_on_c, 6, 61, 110
8, 254639, Note_on_c, 6, 61, 0
8, 254640, Note_on_c, 6, 61, 110
8, 254699, Note_on_c, 6, 61, 0
8, 254700, Note_on_c, 6, 59, 110
8, 254729, Note_on_c, 6, 59, 0
8, 254760, Note_on_c, 6, 59, 110
8, 254789, Note_on_c, 6, 59, 0
8, 254820, Note_on_c, 6, 59, 110
8, 254849, Note_on_c, 6, 59, 0
8, 254880, Note_on_c, 6, 59, 110
8, 254909, Note_on_c, 6, 59, 0
8, 254940, Note_on_c, 6, 59, 110
8, 254969, Note_on_c, 6, 59, 0
8, 255000, Note_on_c, 6, 59, 110
8, 255029, Note_on_c, 6, 59, 0
8, 255060, Note_on_c, 6, 59, 110
8, 255089, Note_on_c, 6, 59, 0
8, 255120, Note_on_c, 6, 57, 110
8, 255149, Note_on_c, 6, 57, 0
8, 255150, Note_on_c, 6, 56, 110
8, 255179, Note_on_c, 6, 56, 0
8, 255180, Note_on_c, 6, 54, 110
8, 255209, Note_on_c, 6, 54, 0
8, 255210, Note_on_c, 6, 52, 110
8, 255239, Note_on_c, 6, 52, 0
8, 255240, Note_on_c, 6, 59, 110
8, 255359, Note_on_c, 6, 59, 0
8, 255360, Note_on_c, 6, 59, 110
8, 255419, Note_on_c, 6, 59, 0
8, 255420, Note_on_c, 6, 64, 110
8, 255479, Note_on_c, 6, 64, 0
8, 255480, Note_on_c, 6, 52, 110
8, 255539, Note_on_c, 6, 52, 0
8, 255720, Note_on_c, 6, 59, 110
8, 255779, Note_on_c, 6, 59, 0
8, 255780, Note_on_c, 6, 64, 110
8, 255839, Note_on_c, 6, 64, 0
8, 255840, Note_on_c, 6, 52, 110
8, 255899, Note_on_c, 6, 52, 0
8, 256080, Note_on_c, 6, 59, 110
8, 256139, Note_on_c, 6, 59, 0
8, 256140, Note_on_c, 6, 61, 110
8, 256379, Note_on_c, 6, 61, 0
8, 256380, Note_on_c, 6, 54, 110
8, 256409, Note_on_c, 6, 54, 0
8, 256410, Note_on_c, 6, 56, 110
8, 256439, Note_on_c, 6, 56, 0
8, 256440, Note_on_c, 6, 57, 110
8, 256469, Note_on_c, 6, 57, 0
8, 256470, Note_on_c, 6, 54, 110
8, 256499, Note_on_c, 6, 54, 0
8, 256500, Note_on_c, 6, 59, 110
8, 256739, Note_on_c, 6, 59, 0
8, 256740, Note_on_c, 6, 52, 110
8, 256769, Note_on_c, 6, 52, 0
8, 256770, Note_on_c, 6, 54, 110
8, 256799, Note_on_c, 6, 54, 0
8, 256800, Note_on_c, 6, 56, 110
8, 256829, Note_on_c, 6, 56, 0
8, 256830, Note_on_c, 6, 52, 110
8, 256859, Note_on_c, 6, 52, 0
8, 256860, Note_on_c, 6, 54, 110
8, 256919, Note_on_c, 6, 54, 0
8, 256920, Note_on_c, 6, 57, 110
8, 256979, Note_on_c, 6, 57, 0
8, 256980, Note_on_c, 6, 61, 110
8, 257039, Note_on_c, 6, 61, 0
8, 257040, Note_on_c, 6, 59, 110
8, 257069, Note_on_c, 6, 59, 0
8, 257070, Note_on_c, 6, 57, 110
8, 257099, Note_on_c, 6, 57, 0
8, 257100, Note_on_c, 6, 56, 110
8, 257129, Note_on_c, 6, 56, 0
8, 257130, Note_on_c, 6, 54, 110
8, 257159, Note_on_c, 6, 54, 0
8, 257160, Note_on_c, 6, 57, 110
8, 257219, Note_on_c, 6, 57, 0
8, 257220, Note_on_c, 6, 57, 110
8, 257249, Note_on_c, 6, 57, 0
8, 257250, Note_on_c, 6, 59, 110
8, 257279, Note_on_c, 6, 59, 0
8, 257280, Note_on_c, 6, 57, 110
8, 257309, Note_on_c, 6, 57, 0
8, 257310, Note_on_c, 6, 59, 110
8, 257339, Note_on_c, 6, 59, 0
8, 257340, Note_on_c, 6, 57, 110
8, 257369, Note_on_c, 6, 57, 0
8, 257370, Note_on_c, 6, 59, 110
8, 257399, Note_on_c, 6, 59, 0
8, 257400, Note_on_c, 6, 57, 110
8, 257429, Note_on_c, 6, 57, 0
8, 257430, Note_on_c, 6, 59, 110
8, 257459, Note_on_c, 6, 59, 0
8, 257460, Note_on_c, 6, 56, 110
8, 257489, Note_on_c, 6, 56, 0
8, 257490, Note_on_c, 6, 57, 110
8, 257519, Note_on_c, 6, 57, 0
8, 257520, Note_on_c, 6, 54, 110
8, 257549, Note_on_c, 6, 54, 0
8, 257550, Note_on_c, 6, 56, 110
8, 257579, Note_on_c, 6, 56, 0
8, 257580, Note_on_c, 6, 52, 110
8, 257609, Note_on_c, 6, 52, 0
8, 257640, Note_on_c, 6, 56, 110
8, 257669, Note_on_c, 6, 56, 0
8, 257700, Note_on_c, 6, 59, 110
8, 257729, Note_on_c, 6, 59, 0
8, 257760, Note_on_c, 6, 64, 110
8, 257789, Note_on_c, 6, 64, 0
8, 257820, Note_on_c, 6, 59, 110
8, 257879, Note_on_c, 6, 59, 0
8, 257880, Note_on_c, 6, 57, 110
8, 257939, Note_on_c, 6, 57, 0
8, 257940, Note_on_c, 6, 56, 110
8, 257999, Note_on_c, 6, 56, 0
8, 258000, Note_on_c, 6, 54, 110
8, 258029, Note_on_c, 6, 54, 0
8, 258030, Note_on_c, 6, 52, 110
8, 258059, Note_on_c, 6, 52, 0
8, 258060, Note_on_c, 6, 54, 110
8, 258089, Note_on_c, 6, 54, 0
8, 258090, Note_on_c, 6, 51, 110
8, 258119, Note_on_c, 6, 51, 0
8, 258120, Note_on_c, 6, 52, 110
8, 258239, Note_on_c, 6, 52, 0
8, 260400, Note_on_c, 6, 59, 110
8, 260459, Note_on_c, 6, 59, 0
8, 260460, Note_on_c, 6, 61, 110
8, 260489, Note_on_c, 6, 61, 0
8, 260490, Note_on_c, 6, 62, 110
8, 260519, Note_on_c, 6, 62, 0
8, 260520, Note_on_c, 6, 64, 110
8, 260639, Note_on_c, 6, 64, 0
8, 260640, Note_on_c, 6, 59, 110
8, 260699, Note_on_c, 6, 59, 0
8, 260700, Note_on_c, 6, 61, 110
8, 260759, Note_on_c, 6, 61, 0
8, 260760, Note_on_c, 6, 62, 110
8, 260819, Note_on_c, 6, 62, 0
8, 260820, Note_on_c, 6, 61, 110
8, 260879, Note_on_c, 6, 61, 0
8, 260880, Note_on_c, 6, 62, 110
8, 260909, Note_on_c, 6, 62, 0
8, 260910, Note_on_c, 6, 61, 110
8, 260939, Note_on_c, 6, 61, 0
8, 260940, Note_on_c, 6, 59, 110
8, 260969, Note_on_c, 6, 59, 0
8, 260970, Note_on_c, 6, 57, 110
8, 260999, Note_on_c, 6, 57, 0
8, 261000, Note_on_c, 6, 59, 110
8, 261059, Note_on_c, 6, 59, 0
8, 261060, Note_on_c, 6, 52, 110
8, 261119, Note_on_c, 6, 52, 0
8, 261120, Note_on_c, 6, 64, 110
8, 261179, Note_on_c, 6, 64, 0
8, 261180, Note_on_c, 6, 64, 110
8, 261239, Note_on_c, 6, 64, 0
8, 261240, Note_on_c, 6, 52, 110
8, 261299, Note_on_c, 6, 52, 0
8, 261480, Note_on_c, 6, 64, 110
8, 261539, Note_on_c, 6, 64, 0
8, 261540, Note_on_c, 6, 64, 110
8, 261599, Note_on_c, 6, 64, 0
8, 261600, Note_on_c, 6, 52, 110
8, 261659, Note_on_c, 6, 52, 0
8, 261840, Note_on_c, 6, 52, 110
8, 261899, Note_on_c, 6, 52, 0
8, 261900, Note_on_c, 6, 57, 110
8, 261959, Note_on_c, 6, 57, 0
8, 261960, Note_on_c, 6, 61, 110
8, 262019, Note_on_c, 6, 61, 0
8, 262020, Note_on_c, 6, 59, 110
8, 262079, Note_on_c, 6, 59, 0
8, 262080, Note_on_c, 6, 57, 110
8, 262139, Note_on_c, 6, 57, 0
8, 262140, Note_on_c, 6, 52, 110
8, 262169, Note_on_c, 6, 52, 0
8, 262170, Note_on_c, 6, 54, 110
8, 262199, Note_on_c, 6, 54, 0
8, 262200, Note_on_c, 6, 56, 110
8, 262229, Note_on_c, 6, 56, 0
8, 262230, Note_on_c, 6, 57, 110
8, 262259, Note_on_c, 6, 57, 0
8, 262260, Note_on_c, 6, 59, 110
8, 262319, Note_on_c, 6, 59, 0
8, 262320, Note_on_c, 6, 62, 110
8, 262349, Note_on_c, 6, 62, 0
8, 262350, Note_on_c, 6, 59, 110
8, 262379, Note_on_c, 6, 59, 0
8, 262380, Note_on_c, 6, 61, 110
8, 262409, Note_on_c, 6, 61, 0
8, 262410, Note_on_c, 6, 57, 110
8, 262439, Note_on_c, 6, 57, 0
8, 262440, Note_on_c, 6, 64, 110
8, 262559, Note_on_c, 6, 64, 0
8, 262560, Note_on_c, 6, 61, 110
8, 262619, Note_on_c, 6, 61, 0
8, 262620, Note_on_c, 6, 61, 110
8, 262679, Note_on_c, 6, 61, 0
8, 262680, Note_on_c, 6, 54, 110
8, 262739, Note_on_c, 6, 54, 0
8, 262920, Note_on_c, 6, 59, 110
8, 262979, Note_on_c, 6, 59, 0
8, 262980, Note_on_c, 6, 59, 110
8, 263039, Note_on_c, 6, 59, 0
8, 263040, Note_on_c, 6, 52, 110
8, 263099, Note_on_c, 6, 52, 0
8, 263280, Note_on_c, 6, 54, 110
8, 263339, Note_on_c, 6, 54, 0
8, 263340, Note_on_c, 6, 62, 110
8, 263369, Note_on_c, 6, 62, 0
8, 263400, Note_on_c, 6, 62, 110
8, 263429, Note_on_c, 6, 62, 0
8, 263460, Note_on_c, 6, 62, 110
8, 263489, Note_on_c, 6, 62, 0
8, 263520, Note_on_c, 6, 62, 110
8, 263549, Note_on_c, 6, 62, 0
8, 263580, Note_on_c, 6, 52, 110
8, 263639, Note_on_c, 6, 52, 0
8, 263640, Note_on_c, 6, 64, 110
8, 263699, Note_on_c, 6, 64, 0
8, 263700, Note_on_c, 6, 61, 110
8, 263759, Note_on_c, 6, 61, 0
8, 263760, Note_on_c, 6, 59, 110
8, 263789, Note_on_c, 6, 59, 0
8, 263790, Note_on_c, 6, 57, 110
8, 263819, Note_on_c, 6, 57, 0
8, 263820, Note_on_c, 6, 59, 110
8, 263879, Note_on_c, 6, 59, 0
8, 263880, Note_on_c, 6, 52, 110
8, 263999, Note_on_c, 6, 52, 0
8, 264000, Note_on_c, 6, 52, 110
8, 264059, Note_on_c, 6, 52, 0
8, 264060, Note_on_c, 6, 57, 110
8, 264119, Note_on_c, 6, 57, 0
8, 264120, Note_on_c, 6, 59, 110
8, 264179, Note_on_c, 6, 59, 0
8, 264180, Note_on_c, 6, 52, 110
8, 264239, Note_on_c, 6, 52, 0
8, 264240, Note_on_c, 6, 61, 110
8, 264299, Note_on_c, 6, 61, 0
8, 264300, Note_on_c, 6, 62, 110
8, 264359, Note_on_c, 6, 62, 0
8, 264360, Note_on_c, 6, 52, 110
8, 264419, Note_on_c, 6, 52, 0
8, 264420, Note_on_c, 6, 50, 110
8, 264479, Note_on_c, 6, 50, 0
8, 264480, Note_on_c, 6, 49, 110
8, 264539, Note_on_c, 6, 49, 0
8, 264540, Note_on_c, 6, 47, 110
8, 264599, Note_on_c, 6, 47, 0
8, 264600, Note_on_c, 6, 45, 110
8, 264719, Note_on_c, 6, 45, 0
8, 264720, Note_on_c, 6, 52, 110
8, 264779, Note_on_c, 6, 52, 0
8, 264780, Note_on_c, 6, 51, 110
8, 264809, Note_on_c, 6, 51, 0
8, 264810, Note_on_c, 6, 52, 110
8, 264839, Note_on_c, 6, 52, 0
8, 264840, Note_on_c, 6, 54, 110
8, 264990, Note_on_c, 6, 54, 0
8, 264990, Note_on_c, 6, 56, 110
8, 265019, Note_on_c, 6, 56, 0
8, 265020, Note_on_c, 6, 57, 110
8, 265170, Note_on_c, 6, 57, 0
8, 265170, Note_on_c, 6, 59, 110
8, 265199, Note_on_c, 6, 59, 0
8, 265200, Note_on_c, 6, 61, 110
8, 265229, Note_on_c, 6, 61, 0
8, 265230, Note_on_c, 6, 59, 110
8, 265259, Note_on_c, 6, 59, 0
8, 265260, Note_on_c, 6, 62, 110
8, 265289, Note_on_c, 6, 62, 0
8, 265290, Note_on_c, 6, 61, 110
8, 265319, Note_on_c, 6, 61, 0
8, 265320, Note_on_c, 6, 59, 110
8, 265349, Note_on_c, 6, 59, 0
8, 265350, Note_on_c, 6, 57, 110
8, 265379, Note_on_c, 6, 57, 0
8, 265380, Note_on_c, 6, 56, 110
8, 265409, Note_on_c, 6, 56, 0
8, 265410, Note_on_c, 6, 54, 110
8, 265439, Note_on_c, 6, 54, 0
8, 265440, Note_on_c, 6, 52, 110
8, 265469, Note_on_c, 6, 52, 0
8, 265470, Note_on_c, 6, 50, 110
8, 265499, Note_on_c, 6, 50, 0
8, 265500, Note_on_c, 6, 49, 110
8, 265559, Note_on_c, 6, 49, 0
8, 265560, Note_on_c, 6, 52, 110
8, 265619, Note_on_c, 6, 52, 0
8, 265620, Note_on_c, 6, 57, 110
8, 265679, Note_on_c, 6, 57, 0
8, 265680, Note_on_c, 6, 56, 110
8, 265739, Note_on_c, 6, 56, 0
8, 265740, Note_on_c, 6, 64, 110
8, 265859, Note_on_c, 6, 64, 0
8, 265860, Note_on_c, 6, 52, 110
8, 265919, Note_on_c, 6, 52, 0
8, 265920, Note_on_c, 6, 61, 110
8, 265949, Note_on_c, 6, 61, 0
8, 265950, Note_on_c, 6, 59, 110
8, 265979, Note_on_c, 6, 59, 0
8, 265980, Note_on_c, 6, 57, 110
8, 266009, Note_on_c, 6, 57, 0
8, 266010, Note_on_c, 6, 56, 110
8, 266039, Note_on_c, 6, 56, 0
8, 266040, Note_on_c, 6, 57, 110
8, 266159, Note_on_c, 6, 57, 0
8, 270060, Note_on_c, 6, 52, 110
8, 270120, Note_on_c, 6, 52, 0
8, 270120, Note_on_c, 6, 57, 110
8, 270180, Note_on_c, 6, 57, 0
8, 270180, Note_on_c, 6, 57, 110
8, 270210, Note_on_c, 6, 57, 0
8, 270210, Note_on_c, 6, 59, 110
8, 270240, Note_on_c, 6, 59, 0
8, 270240, Note_on_c, 6, 61, 110
8, 270300, Note_on_c, 6, 61, 0
8, 270300, Note_on_c, 6, 59, 110
8, 270330, Note_on_c, 6, 59, 0
8, 270330, Note_on_c, 6, 57, 110
8, 270360, Note_on_c, 6, 57, 0
8, 270360, Note_on_c, 6, 64, 110
8, 270420, Note_on_c, 6, 64, 0
8, 270450, Note_on_c, 6, 61, 110
8, 270480, Note_on_c, 6, 61, 0
8, 270480, Note_on_c, 6, 57, 110
8, 270540, Note_on_c, 6, 57, 0
8, 270540, Note_on_c, 6, 52, 110
8, 270600, Note_on_c, 6, 52, 0
8, 270600, Note_on_c, 6, 55, 110
8, 270660, Note_on_c, 6, 55, 0
8, 270660, Note_on_c, 6, 54, 110
8, 270720, Note_on_c, 6, 54, 0
8, 270720, Note_on_c, 6, 50, 110
8, 270780, Note_on_c, 6, 50, 0
8, 270780, Note_on_c, 6, 50, 110
8, 270840, Note_on_c, 6, 50, 0
8, 287220, Note_on_c, 6, 57, 110
8, 287280, Note_on_c, 6, 57, 0
8, 287280, Note_on_c, 6, 62, 110
8, 287340, Note_on_c, 6, 62, 0
8, 287370, Note_on_c, 6, 57, 110
8, 287390, Note_on_c, 6, 57, 0
8, 287400, Note_on_c, 6, 57, 110
8, 287460, Note_on_c, 6, 57, 0
8, 287460, Note_on_c, 6, 50, 110
8, 287520, Note_on_c, 6, 50, 0
8, 289500, Note_on_c, 6, 55, 110
8, 289560, Note_on_c, 6, 55, 0
8, 289560, Note_on_c, 6, 60, 110
8, 289620, Note_on_c, 6, 60, 0
8, 289620, Note_on_c, 6, 60, 110
8, 289680, Note_on_c, 6, 60, 0
8, 289680, Note_on_c, 6, 64, 110
8, 289740, Note_on_c, 6, 64, 0
8, 289740, Note_on_c, 6, 60, 110
8, 289800, Note_on_c, 6, 60, 0
8, 289800, Note_on_c, 6, 57, 110
8, 289860, Note_on_c, 6, 57, 0
8, 289860, Note_on_c, 6, 57, 110
8, 289920, Note_on_c, 6, 57, 0
8, 289980, Note_on_c, 6, 64, 110
8, 290040, Note_on_c, 6, 64, 0
8, 290040, Note_on_c, 6, 64, 110
8, 290100, Note_on_c, 6, 64, 0
8, 290100, Note_on_c, 6, 55, 110
8, 290160, Note_on_c, 6, 55, 0
8, 290280, Note_on_c, 6, 52, 110
8, 290340, Note_on_c, 6, 52, 0
8, 290340, Note_on_c, 6, 55, 110
8, 290400, Note_on_c, 6, 55, 0
8, 290400, Note_on_c, 6, 58, 110
8, 290460, Note_on_c, 6, 58, 0
8, 290460, Note_on_c, 6, 57, 110
8, 290520, Note_on_c, 6, 57, 0
8, 290520, Note_on_c, 6, 53, 110
8, 290580, Note_on_c, 6, 53, 0
8, 290580, Note_on_c, 6, 53, 110
8, 290610, Note_on_c, 6, 53, 0
8, 290610, Note_on_c, 6, 50, 110
8, 290640, Note_on_c, 6, 50, 0
8, 290640, Note_on_c, 6, 61, 110
8, 290730, Note_on_c, 6, 61, 0
8, 290730, Note_on_c, 6, 62, 110
8, 290760, Note_on_c, 6, 62, 0
8, 290760, Note_on_c, 6, 62, 110
8, 290820, Note_on_c, 6, 62, 0
8, 290820, Note_on_c, 6, 57, 110
8, 290880, Note_on_c, 6, 57, 0
8, 291600, Note_on_c, 6, 53, 110
8, 291659, Note_on_c, 6, 53, 0
8, 291660, Note_on_c, 6, 52, 110
8, 291719, Note_on_c, 6, 52, 0
8, 291720, Note_on_c, 6, 53, 110
8, 291839, Note_on_c, 6, 53, 0
8, 291840, Note_on_c, 6, 55, 110
8, 291959, Note_on_c, 6, 55, 0
8, 291960, Note_on_c, 6, 57, 110
8, 292079, Note_on_c, 6, 57, 0
8, 292080, Note_on_c, 6, 58, 110
8, 292199, Note_on_c, 6, 58, 0
8, 292200, Note_on_c, 6, 57, 110
8, 292319, Note_on_c, 6, 57, 0
8, 292320, Note_on_c, 6, 55, 110
8, 292439, Note_on_c, 6, 55, 0
8, 292440, Note_on_c, 6, 57, 110
8, 292559, Note_on_c, 6, 57, 0
8, 292560, Note_on_c, 6, 53, 110
8, 292679, Note_on_c, 6, 53, 0
8, 292680, Note_on_c, 6, 58, 110
8, 292739, Note_on_c, 6, 58, 0
8, 292740, Note_on_c, 6, 60, 110
8, 292799, Note_on_c, 6, 60, 0
8, 292800, Note_on_c, 6, 57, 110
8, 292859, Note_on_c, 6, 57, 0
8, 292860, Note_on_c, 6, 58, 110
8, 292919, Note_on_c, 6, 58, 0
8, 292920, Note_on_c, 6, 55, 110
8, 292979, Note_on_c, 6, 55, 0
8, 292980, Note_on_c, 6, 57, 110
8, 293039, Note_on_c, 6, 57, 0
8, 293040, Note_on_c, 6, 53, 110
8, 293099, Note_on_c, 6, 53, 0
8, 293100, Note_on_c, 6, 55, 110
8, 293159, Note_on_c, 6, 55, 0
8, 293160, Note_on_c, 6, 52, 110
8, 293219, Note_on_c, 6, 52, 0
8, 293220, Note_on_c, 6, 50, 110
8, 293279, Note_on_c, 6, 50, 0
8, 293280, Note_on_c, 6, 48, 110
8, 293339, Note_on_c, 6, 48, 0
8, 293340, Note_on_c, 6, 47, 110
8, 293399, Note_on_c, 6, 47, 0
8, 293400, Note_on_c, 6, 48, 110
8, 293519, Note_on_c, 6, 48, 0
8, 293520, Note_on_c, 6, 52, 110
8, 293639, Note_on_c, 6, 52, 0
8, 293640, Note_on_c, 6, 53, 110
8, 293699, Note_on_c, 6, 53, 0
8, 293700, Note_on_c, 6, 55, 110
8, 293759, Note_on_c, 6, 55, 0
8, 293760, Note_on_c, 6, 57, 110
8, 293819, Note_on_c, 6, 57, 0
8, 293820, Note_on_c, 6, 58, 110
8, 293879, Note_on_c, 6, 58, 0
8, 293880, Note_on_c, 6, 60, 110
8, 293999, Note_on_c, 6, 60, 0
8, 294000, Note_on_c, 6, 48, 110
8, 294119, Note_on_c, 6, 48, 0
8, 294120, Note_on_c, 6, 53, 110
8, 294479, Note_on_c, 6, 53, 0
8, 294480, Note_on_c, 6, 53, 110
8, 294539, Note_on_c, 6, 53, 0
8, 294540, Note_on_c, 6, 52, 110
8, 294599, Note_on_c, 6, 52, 0
8, 294600, Note_on_c, 6, 53, 110
8, 294719, Note_on_c, 6, 53, 0
8, 294720, Note_on_c, 6, 55, 110
8, 294839, Note_on_c, 6, 55, 0
8, 294840, Note_on_c, 6, 57, 110
8, 294959, Note_on_c, 6, 57, 0
8, 294960, Note_on_c, 6, 58, 110
8, 295079, Note_on_c, 6, 58, 0
8, 295080, Note_on_c, 6, 57, 110
8, 295199, Note_on_c, 6, 57, 0
8, 295200, Note_on_c, 6, 55, 110
8, 295319, Note_on_c, 6, 55, 0
8, 295320, Note_on_c, 6, 57, 110
8, 295439, Note_on_c, 6, 57, 0
8, 295440, Note_on_c, 6, 53, 110
8, 295559, Note_on_c, 6, 53, 0
8, 295560, Note_on_c, 6, 58, 110
8, 295619, Note_on_c, 6, 58, 0
8, 295620, Note_on_c, 6, 60, 110
8, 295679, Note_on_c, 6, 60, 0
8, 295680, Note_on_c, 6, 57, 110
8, 295739, Note_on_c, 6, 57, 0
8, 295740, Note_on_c, 6, 58, 110
8, 295799, Note_on_c, 6, 58, 0
8, 295800, Note_on_c, 6, 55, 110
8, 295859, Note_on_c, 6, 55, 0
8, 295860, Note_on_c, 6, 57, 110
8, 295919, Note_on_c, 6, 57, 0
8, 295920, Note_on_c, 6, 53, 110
8, 295979, Note_on_c, 6, 53, 0
8, 295980, Note_on_c, 6, 55, 110
8, 296039, Note_on_c, 6, 55, 0
8, 296040, Note_on_c, 6, 52, 110
8, 296099, Note_on_c, 6, 52, 0
8, 296100, Note_on_c, 6, 50, 110
8, 296159, Note_on_c, 6, 50, 0
8, 296160, Note_on_c, 6, 48, 110
8, 296219, Note_on_c, 6, 48, 0
8, 296220, Note_on_c, 6, 47, 110
8, 296279, Note_on_c, 6, 47, 0
8, 296280, Note_on_c, 6, 48, 110
8, 296399, Note_on_c, 6, 48, 0
8, 296400, Note_on_c, 6, 52, 110
8, 296519, Note_on_c, 6, 52, 0
8, 296520, Note_on_c, 6, 53, 110
8, 296579, Note_on_c, 6, 53, 0
8, 296580, Note_on_c, 6, 55, 110
8, 296639, Note_on_c, 6, 55, 0
8, 296640, Note_on_c, 6, 57, 110
8, 296699, Note_on_c, 6, 57, 0
8, 296700, Note_on_c, 6, 58, 110
8, 296759, Note_on_c, 6, 58, 0
8, 296760, Note_on_c, 6, 60, 110
8, 296879, Note_on_c, 6, 60, 0
8, 296880, Note_on_c, 6, 48, 110
8, 296999, Note_on_c, 6, 48, 0
8, 297000, Note_on_c, 6, 53, 110
8, 297359, Note_on_c, 6, 53, 0
8, 297360, Note_on_c, 6, 53, 110
8, 297419, Note_on_c, 6, 53, 0
8, 297420, Note_on_c, 6, 55, 110
8, 297479, Note_on_c, 6, 55, 0
8, 297480, Note_on_c, 6, 57, 110
8, 297599, Note_on_c, 6, 57, 0
8, 297600, Note_on_c, 6, 55, 110
8, 297719, Note_on_c, 6, 55, 0
8, 297720, Note_on_c, 6, 57, 110
8, 297839, Note_on_c, 6, 57, 0
8, 297840, Note_on_c, 6, 53, 110
8, 297959, Note_on_c, 6, 53, 0
8, 297960, Note_on_c, 6, 58, 110
8, 298079, Note_on_c, 6, 58, 0
8, 298080, Note_on_c, 6, 58, 110
8, 298199, Note_on_c, 6, 58, 0
8, 298200, Note_on_c, 6, 58, 110
8, 298319, Note_on_c, 6, 58, 0
8, 298320, Note_on_c, 6, 46, 110
8, 298439, Note_on_c, 6, 46, 0
8, 298440, Note_on_c, 6, 58, 110
8, 298559, Note_on_c, 6, 58, 0
8, 298560, Note_on_c, 6, 57, 110
8, 298679, Note_on_c, 6, 57, 0
8, 298680, Note_on_c, 6, 58, 110
8, 298799, Note_on_c, 6, 58, 0
8, 298800, Note_on_c, 6, 55, 110
8, 298919, Note_on_c, 6, 55, 0
8, 298920, Note_on_c, 6, 60, 110
8, 299039, Note_on_c, 6, 60, 0
8, 299040, Note_on_c, 6, 55, 110
8, 299159, Note_on_c, 6, 55, 0
8, 299160, Note_on_c, 6, 48, 110
8, 299279, Note_on_c, 6, 48, 0
8, 299280, Note_on_c, 6, 57, 110
8, 299399, Note_on_c, 6, 57, 0
8, 299400, Note_on_c, 6, 58, 110
8, 299519, Note_on_c, 6, 58, 0
8, 299520, Note_on_c, 6, 57, 110
8, 299579, Note_on_c, 6, 57, 0
8, 299580, Note_on_c, 6, 55, 110
8, 299639, Note_on_c, 6, 55, 0
8, 299640, Note_on_c, 6, 57, 110
8, 299759, Note_on_c, 6, 57, 0
8, 299760, Note_on_c, 6, 53, 110
8, 299879, Note_on_c, 6, 53, 0
8, 299880, Note_on_c, 6, 58, 110
8, 299999, Note_on_c, 6, 58, 0
8, 300000, Note_on_c, 6, 57, 110
8, 300059, Note_on_c, 6, 57, 0
8, 300060, Note_on_c, 6, 55, 110
8, 300119, Note_on_c, 6, 55, 0
8, 300120, Note_on_c, 6, 57, 110
8, 300239, Note_on_c, 6, 57, 0
8, 300240, Note_on_c, 6, 53, 110
8, 300359, Note_on_c, 6, 53, 0
8, 300360, Note_on_c, 6, 58, 110
8, 300479, Note_on_c, 6, 58, 0
8, 300480, Note_on_c, 6, 60, 110
8, 300599, Note_on_c, 6, 60, 0
8, 300600, Note_on_c, 6, 62, 110
8, 300719, Note_on_c, 6, 62, 0
8, 300720, Note_on_c, 6, 58, 110
8, 300839, Note_on_c, 6, 58, 0
8, 300840, Note_on_c, 6, 60, 110
8, 300959, Note_on_c, 6, 60, 0
8, 300960, Note_on_c, 6, 55, 110
8, 301079, Note_on_c, 6, 55, 0
8, 301080, Note_on_c, 6, 48, 110
8, 301199, Note_on_c, 6, 48, 0
8, 301200, Note_on_c, 6, 57, 110
8, 301259, Note_on_c, 6, 57, 0
8, 301260, Note_on_c, 6, 55, 110
8, 301319, Note_on_c, 6, 55, 0
8, 301320, Note_on_c, 6, 53, 110
8, 301439, Note_on_c, 6, 53, 0
8, 301440, Note_on_c, 6, 55, 110
8, 301559, Note_on_c, 6, 55, 0
8, 301560, Note_on_c, 6, 57, 110
8, 301679, Note_on_c, 6, 57, 0
8, 301680, Note_on_c, 6, 58, 110
8, 301799, Note_on_c, 6, 58, 0
8, 301800, Note_on_c, 6, 57, 110
8, 301919, Note_on_c, 6, 57, 0
8, 301920, Note_on_c, 6, 55, 110
8, 302039, Note_on_c, 6, 55, 0
8, 302040, Note_on_c, 6, 57, 110
8, 302159, Note_on_c, 6, 57, 0
8, 302160, Note_on_c, 6, 53, 110
8, 302279, Note_on_c, 6, 53, 0
8, 302280, Note_on_c, 6, 58, 110
8, 302339, Note_on_c, 6, 58, 0
8, 302340, Note_on_c, 6, 60, 110
8, 302399, Note_on_c, 6, 60, 0
8, 302400, Note_on_c, 6, 57, 110
8, 302459, Note_on_c, 6, 57, 0
8, 302460, Note_on_c, 6, 58, 110
8, 302519, Note_on_c, 6, 58, 0
8, 302520, Note_on_c, 6, 55, 110
8, 302579, Note_on_c, 6, 55, 0
8, 302580, Note_on_c, 6, 57, 110
8, 302639, Note_on_c, 6, 57, 0
8, 302640, Note_on_c, 6, 53, 110
8, 302699, Note_on_c, 6, 53, 0
8, 302700, Note_on_c, 6, 55, 110
8, 302759, Note_on_c, 6, 55, 0
8, 302760, Note_on_c, 6, 52, 110
8, 302819, Note_on_c, 6, 52, 0
8, 302820, Note_on_c, 6, 50, 110
8, 302879, Note_on_c, 6, 50, 0
8, 302880, Note_on_c, 6, 48, 110
8, 302939, Note_on_c, 6, 48, 0
8, 302940, Note_on_c, 6, 47, 110
8, 302999, Note_on_c, 6, 47, 0
8, 303000, Note_on_c, 6, 48, 110
8, 303119, Note_on_c, 6, 48, 0
8, 303120, Note_on_c, 6, 52, 110
8, 303239, Note_on_c, 6, 52, 0
8, 303240, Note_on_c, 6, 53, 110
8, 303299, Note_on_c, 6, 53, 0
8, 303300, Note_on_c, 6, 55, 110
8, 303359, Note_on_c, 6, 55, 0
8, 303360, Note_on_c, 6, 57, 110
8, 303419, Note_on_c, 6, 57, 0
8, 303420, Note_on_c, 6, 58, 110
8, 303479, Note_on_c, 6, 58, 0
8, 303480, Note_on_c, 6, 60, 110
8, 303599, Note_on_c, 6, 60, 0
8, 303600, Note_on_c, 6, 48, 110
8, 303719, Note_on_c, 6, 48, 0
8, 303720, Note_on_c, 6, 53, 110
8, 304079, Note_on_c, 6, 53, 0
8, 304079, End_track
9, 0, Start_track
9, 0, MIDI_port, 0
9, 0, Title_t, "continuo"
9, 0, Program_c, 7, 42
9, 360, Note_on_c, 7, 45, 90
9, 480, Note_on_c, 7, 45, 0
9, 480, Note_on_c, 7, 45, 90
9, 600, Note_on_c, 7, 45, 0
9, 600, Note_on_c, 7, 45, 90
9, 720, Note_on_c, 7, 45, 0
9, 720, Note_on_c, 7, 45, 90
9, 840, Note_on_c, 7, 45, 0
9, 840, Note_on_c, 7, 45, 90
9, 960, Note_on_c, 7, 45, 0
9, 960, Note_on_c, 7, 45, 90
9, 1080, Note_on_c, 7, 45, 0
9, 1080, Note_on_c, 7, 45, 90
9, 1200, Note_on_c, 7, 45, 0
9, 1200, Note_on_c, 7, 45, 90
9, 1320, Note_on_c, 7, 45, 0
9, 1320, Note_on_c, 7, 45, 90
9, 1440, Note_on_c, 7, 45, 0
9, 1440, Note_on_c, 7, 45, 90
9, 1560, Note_on_c, 7, 45, 0
9, 1560, Note_on_c, 7, 45, 90
9, 1680, Note_on_c, 7, 45, 0
9, 1680, Note_on_c, 7, 45, 90
9, 1800, Note_on_c, 7, 45, 0
9, 1800, Note_on_c, 7, 45, 90
9, 1920, Note_on_c, 7, 45, 0
9, 1920, Note_on_c, 7, 45, 90
9, 2040, Note_on_c, 7, 45, 0
9, 2040, Note_on_c, 7, 45, 90
9, 2160, Note_on_c, 7, 45, 0
9, 2160, Note_on_c, 7, 45, 90
9, 2280, Note_on_c, 7, 45, 0
9, 2280, Note_on_c, 7, 45, 90
9, 2400, Note_on_c, 7, 45, 0
9, 2400, Note_on_c, 7, 45, 90
9, 2520, Note_on_c, 7, 45, 0
9, 2520, Note_on_c, 7, 45, 90
9, 2640, Note_on_c, 7, 45, 0
9, 2640, Note_on_c, 7, 45, 90
9, 2760, Note_on_c, 7, 45, 0
9, 2760, Note_on_c, 7, 45, 90
9, 2880, Note_on_c, 7, 45, 0
9, 2880, Note_on_c, 7, 45, 90
9, 2940, Note_on_c, 7, 45, 0
9, 2940, Note_on_c, 7, 57, 90
9, 2970, Note_on_c, 7, 57, 0
9, 2970, Note_on_c, 7, 59, 90
9, 3000, Note_on_c, 7, 59, 0
9, 3000, Note_on_c, 7, 61, 90
9, 3060, Note_on_c, 7, 61, 0
9, 3060, Note_on_c, 7, 62, 90
9, 3120, Note_on_c, 7, 62, 0
9, 3120, Note_on_c, 7, 61, 90
9, 3180, Note_on_c, 7, 61, 0
9, 3180, Note_on_c, 7, 59, 90
9, 3240, Note_on_c, 7, 59, 0
9, 3240, Note_on_c, 7, 57, 90
9, 3360, Note_on_c, 7, 57, 0
9, 3360, Note_on_c, 7, 57, 90
9, 3480, Note_on_c, 7, 57, 0
9, 3480, Note_on_c, 7, 59, 90
9, 3540, Note_on_c, 7, 59, 0
9, 3540, Note_on_c, 7, 57, 90
9, 3600, Note_on_c, 7, 57, 0
9, 3600, Note_on_c, 7, 52, 90
9, 3659, Note_on_c, 7, 52, 0
9, 3660, Note_on_c, 7, 56, 90
9, 3719, Note_on_c, 7, 56, 0
9, 3720, Note_on_c, 7, 57, 90
9, 3839, Note_on_c, 7, 57, 0
9, 3840, Note_on_c, 7, 45, 90
9, 3899, Note_on_c, 7, 45, 0
9, 3900, Note_on_c, 7, 57, 90
9, 3929, Note_on_c, 7, 57, 0
9, 3930, Note_on_c, 7, 59, 90
9, 3959, Note_on_c, 7, 59, 0
9, 3960, Note_on_c, 7, 61, 90
9, 4019, Note_on_c, 7, 61, 0
9, 4020, Note_on_c, 7, 62, 90
9, 4079, Note_on_c, 7, 62, 0
9, 4080, Note_on_c, 7, 61, 90
9, 4139, Note_on_c, 7, 61, 0
9, 4140, Note_on_c, 7, 59, 90
9, 4199, Note_on_c, 7, 59, 0
9, 4200, Note_on_c, 7, 57, 90
9, 4319, Note_on_c, 7, 57, 0
9, 4320, Note_on_c, 7, 45, 90
9, 4379, Note_on_c, 7, 45, 0
9, 4380, Note_on_c, 7, 57, 90
9, 4439, Note_on_c, 7, 57, 0
9, 4440, Note_on_c, 7, 59, 90
9, 4499, Note_on_c, 7, 59, 0
9, 4500, Note_on_c, 7, 57, 90
9, 4559, Note_on_c, 7, 57, 0
9, 4560, Note_on_c, 7, 56, 90
9, 4619, Note_on_c, 7, 56, 0
9, 4620, Note_on_c, 7, 52, 90
9, 4679, Note_on_c, 7, 52, 0
9, 4680, Note_on_c, 7, 57, 90
9, 4799, Note_on_c, 7, 57, 0
9, 4800, Note_on_c, 7, 45, 90
9, 4859, Note_on_c, 7, 45, 0
9, 4860, Note_on_c, 7, 57, 90
9, 4919, Note_on_c, 7, 57, 0
9, 4920, Note_on_c, 7, 59, 90
9, 4979, Note_on_c, 7, 59, 0
9, 4980, Note_on_c, 7, 61, 90
9, 5039, Note_on_c, 7, 61, 0
9, 5040, Note_on_c, 7, 57, 90
9, 5099, Note_on_c, 7, 57, 0
9, 5100, Note_on_c, 7, 59, 90
9, 5159, Note_on_c, 7, 59, 0
9, 5160, Note_on_c, 7, 61, 90
9, 5279, Note_on_c, 7, 61, 0
9, 5280, Note_on_c, 7, 62, 90
9, 5339, Note_on_c, 7, 62, 0
9, 5340, Note_on_c, 7, 61, 90
9, 5399, Note_on_c, 7, 61, 0
9, 5400, Note_on_c, 7, 57, 90
9, 5459, Note_on_c, 7, 57, 0
9, 5460, Note_on_c, 7, 45, 90
9, 5519, Note_on_c, 7, 45, 0
9, 5520, Note_on_c, 7, 45, 90
9, 5579, Note_on_c, 7, 45, 0
9, 5580, Note_on_c, 7, 57, 90
9, 5639, Note_on_c, 7, 57, 0
9, 5640, Note_on_c, 7, 59, 90
9, 5699, Note_on_c, 7, 59, 0
9, 5700, Note_on_c, 7, 61, 90
9, 5759, Note_on_c, 7, 61, 0
9, 5760, Note_on_c, 7, 57, 90
9, 5819, Note_on_c, 7, 57, 0
9, 5820, Note_on_c, 7, 59, 90
9, 5879, Note_on_c, 7, 59, 0
9, 5880, Note_on_c, 7, 61, 90
9, 5999, Note_on_c, 7, 61, 0
9, 6000, Note_on_c, 7, 62, 90
9, 6059, Note_on_c, 7, 62, 0
9, 6060, Note_on_c, 7, 61, 90
9, 6119, Note_on_c, 7, 61, 0
9, 6120, Note_on_c, 7, 57, 90
9, 6179, Note_on_c, 7, 57, 0
9, 6180, Note_on_c, 7, 57, 90
9, 6239, Note_on_c, 7, 57, 0
9, 6240, Note_on_c, 7, 59, 90
9, 6299, Note_on_c, 7, 59, 0
9, 6300, Note_on_c, 7, 56, 90
9, 6359, Note_on_c, 7, 56, 0
9, 6360, Note_on_c, 7, 56, 90
9, 6419, Note_on_c, 7, 56, 0
9, 6420, Note_on_c, 7, 57, 90
9, 6479, Note_on_c, 7, 57, 0
9, 6480, Note_on_c, 7, 45, 90
9, 6539, Note_on_c, 7, 45, 0
9, 6540, Note_on_c, 7, 49, 90
9, 6599, Note_on_c, 7, 49, 0
9, 6600, Note_on_c, 7, 50, 90
9, 6659, Note_on_c, 7, 50, 0
9, 6660, Note_on_c, 7, 49, 90
9, 6689, Note_on_c, 7, 49, 0
9, 6690, Note_on_c, 7, 50, 90
9, 6719, Note_on_c, 7, 50, 0
9, 6720, Note_on_c, 7, 52, 90
9, 6779, Note_on_c, 7, 52, 0
9, 6780, Note_on_c, 7, 45, 90
9, 6899, Note_on_c, 7, 45, 0
9, 6900, Note_on_c, 7, 57, 90
9, 6959, Note_on_c, 7, 57, 0
9, 6960, Note_on_c, 7, 59, 90
9, 7019, Note_on_c, 7, 59, 0
9, 7020, Note_on_c, 7, 56, 90
9, 7079, Note_on_c, 7, 56, 0
9, 7080, Note_on_c, 7, 56, 90
9, 7139, Note_on_c, 7, 56, 0
9, 7140, Note_on_c, 7, 57, 90
9, 7199, Note_on_c, 7, 57, 0
9, 7200, Note_on_c, 7, 45, 90
9, 7259, Note_on_c, 7, 45, 0
9, 7260, Note_on_c, 7, 49, 90
9, 7319, Note_on_c, 7, 49, 0
9, 7320, Note_on_c, 7, 50, 90
9, 7379, Note_on_c, 7, 50, 0
9, 7380, Note_on_c, 7, 49, 90
9, 7409, Note_on_c, 7, 49, 0
9, 7410, Note_on_c, 7, 50, 90
9, 7439, Note_on_c, 7, 50, 0
9, 7440, Note_on_c, 7, 52, 90
9, 7499, Note_on_c, 7, 52, 0
9, 7500, Note_on_c, 7, 45, 90
9, 7619, Note_on_c, 7, 45, 0
9, 7620, Note_on_c, 7, 52, 90
9, 7679, Note_on_c, 7, 52, 0
9, 7680, Note_on_c, 7, 52, 90
9, 7739, Note_on_c, 7, 52, 0
9, 7740, Note_on_c, 7, 52, 90
9, 7799, Note_on_c, 7, 52, 0
9, 7800, Note_on_c, 7, 47, 90
9, 7859, Note_on_c, 7, 47, 0
9, 7860, Note_on_c, 7, 47, 90
9, 7919, Note_on_c, 7, 47, 0
9, 7920, Note_on_c, 7, 52, 90
9, 8039, Note_on_c, 7, 52, 0
9, 8100, Note_on_c, 7, 52, 90
9, 8159, Note_on_c, 7, 52, 0
9, 8160, Note_on_c, 7, 52, 90
9, 8219, Note_on_c, 7, 52, 0
9, 8220, Note_on_c, 7, 52, 90
9, 8279, Note_on_c, 7, 52, 0
9, 8280, Note_on_c, 7, 47, 90
9, 8339, Note_on_c, 7, 47, 0
9, 8340, Note_on_c, 7, 47, 90
9, 8399, Note_on_c, 7, 47, 0
9, 8400, Note_on_c, 7, 52, 90
9, 8459, Note_on_c, 7, 52, 0
9, 8460, Note_on_c, 7, 52, 90
9, 8519, Note_on_c, 7, 52, 0
9, 8520, Note_on_c, 7, 52, 90
9, 8579, Note_on_c, 7, 52, 0
9, 8580, Note_on_c, 7, 52, 90
9, 8639, Note_on_c, 7, 52, 0
9, 8640, Note_on_c, 7, 52, 90
9, 8699, Note_on_c, 7, 52, 0
9, 8700, Note_on_c, 7, 52, 90
9, 8759, Note_on_c, 7, 52, 0
9, 8760, Note_on_c, 7, 47, 90
9, 8819, Note_on_c, 7, 47, 0
9, 8820, Note_on_c, 7, 47, 90
9, 8879, Note_on_c, 7, 47, 0
9, 8880, Note_on_c, 7, 52, 90
9, 8999, Note_on_c, 7, 52, 0
9, 9060, Note_on_c, 7, 52, 90
9, 9119, Note_on_c, 7, 52, 0
9, 9120, Note_on_c, 7, 52, 90
9, 9179, Note_on_c, 7, 52, 0
9, 9180, Note_on_c, 7, 52, 90
9, 9239, Note_on_c, 7, 52, 0
9, 9240, Note_on_c, 7, 47, 90
9, 9299, Note_on_c, 7, 47, 0
9, 9300, Note_on_c, 7, 47, 90
9, 9359, Note_on_c, 7, 47, 0
9, 9360, Note_on_c, 7, 52, 90
9, 9419, Note_on_c, 7, 52, 0
9, 9420, Note_on_c, 7, 40, 90
9, 9479, Note_on_c, 7, 40, 0
9, 9480, Note_on_c, 7, 52, 90
9, 9539, Note_on_c, 7, 52, 0
9, 9600, Note_on_c, 7, 52, 90
9, 9659, Note_on_c, 7, 52, 0
9, 9660, Note_on_c, 7, 52, 90
9, 9719, Note_on_c, 7, 52, 0
9, 9720, Note_on_c, 7, 52, 90
9, 9779, Note_on_c, 7, 52, 0
9, 9840, Note_on_c, 7, 52, 90
9, 9899, Note_on_c, 7, 52, 0
9, 9900, Note_on_c, 7, 52, 90
9, 9959, Note_on_c, 7, 52, 0
9, 9960, Note_on_c, 7, 52, 90
9, 10019, Note_on_c, 7, 52, 0
9, 10080, Note_on_c, 7, 57, 90
9, 10199, Note_on_c, 7, 57, 0
9, 10200, Note_on_c, 7, 52, 90
9, 10319, Note_on_c, 7, 52, 0
9, 10320, Note_on_c, 7, 45, 90
9, 10379, Note_on_c, 7, 45, 0
9, 10380, Note_on_c, 7, 45, 90
9, 10439, Note_on_c, 7, 45, 0
9, 10440, Note_on_c, 7, 45, 90
9, 10499, Note_on_c, 7, 45, 0
9, 10560, Note_on_c, 7, 52, 90
9, 10619, Note_on_c, 7, 52, 0
9, 10620, Note_on_c, 7, 52, 90
9, 10679, Note_on_c, 7, 52, 0
9, 10680, Note_on_c, 7, 52, 90
9, 10739, Note_on_c, 7, 52, 0
9, 10800, Note_on_c, 7, 52, 90
9, 10859, Note_on_c, 7, 52, 0
9, 10860, Note_on_c, 7, 52, 90
9, 10919, Note_on_c, 7, 52, 0
9, 10920, Note_on_c, 7, 52, 90
9, 10979, Note_on_c, 7, 52, 0
9, 11040, Note_on_c, 7, 57, 90
9, 11159, Note_on_c, 7, 57, 0
9, 11160, Note_on_c, 7, 52, 90
9, 11279, Note_on_c, 7, 52, 0
9, 11280, Note_on_c, 7, 45, 90
9, 11339, Note_on_c, 7, 45, 0
9, 11340, Note_on_c, 7, 57, 90
9, 11369, Note_on_c, 7, 57, 0
9, 11370, Note_on_c, 7, 59, 90
9, 11399, Note_on_c, 7, 59, 0
9, 11400, Note_on_c, 7, 60, 90
9, 11459, Note_on_c, 7, 60, 0
9, 11460, Note_on_c, 7, 59, 90
9, 11519, Note_on_c, 7, 59, 0
9, 11520, Note_on_c, 7, 57, 90
9, 11579, Note_on_c, 7, 57, 0
9, 11580, Note_on_c, 7, 55, 90
9, 11639, Note_on_c, 7, 55, 0
9, 11640, Note_on_c, 7, 53, 90
9, 11699, Note_on_c, 7, 53, 0
9, 11700, Note_on_c, 7, 52, 90
9, 11759, Note_on_c, 7, 52, 0
9, 11760, Note_on_c, 7, 52, 90
9, 11999, Note_on_c, 7, 52, 0
9, 12000, Note_on_c, 7, 50, 90
9, 12059, Note_on_c, 7, 50, 0
9, 12060, Note_on_c, 7, 52, 90
9, 12119, Note_on_c, 7, 52, 0
9, 12120, Note_on_c, 7, 53, 90
9, 12179, Note_on_c, 7, 53, 0
9, 12180, Note_on_c, 7, 52, 90
9, 12239, Note_on_c, 7, 52, 0
9, 12240, Note_on_c, 7, 50, 90
9, 12299, Note_on_c, 7, 50, 0
9, 12300, Note_on_c, 7, 48, 90
9, 12359, Note_on_c, 7, 48, 0
9, 12360, Note_on_c, 7, 47, 90
9, 12419, Note_on_c, 7, 47, 0
9, 12420, Note_on_c, 7, 45, 90
9, 12479, Note_on_c, 7, 45, 0
9, 12480, Note_on_c, 7, 45, 90
9, 12719, Note_on_c, 7, 45, 0
9, 12720, Note_on_c, 7, 45, 90
9, 12779, Note_on_c, 7, 45, 0
9, 12780, Note_on_c, 7, 57, 90
9, 12809, Note_on_c, 7, 57, 0
9, 12810, Note_on_c, 7, 59, 90
9, 12839, Note_on_c, 7, 59, 0
9, 12840, Note_on_c, 7, 60, 90
9, 12899, Note_on_c, 7, 60, 0
9, 12900, Note_on_c, 7, 59, 90
9, 12959, Note_on_c, 7, 59, 0
9, 12960, Note_on_c, 7, 57, 90
9, 13019, Note_on_c, 7, 57, 0
9, 13020, Note_on_c, 7, 55, 90
9, 13079, Note_on_c, 7, 55, 0
9, 13080, Note_on_c, 7, 53, 90
9, 13139, Note_on_c, 7, 53, 0
9, 13140, Note_on_c, 7, 52, 90
9, 13199, Note_on_c, 7, 52, 0
9, 13200, Note_on_c, 7, 52, 90
9, 13439, Note_on_c, 7, 52, 0
9, 13440, Note_on_c, 7, 50, 90
9, 13499, Note_on_c, 7, 50, 0
9, 13500, Note_on_c, 7, 52, 90
9, 13559, Note_on_c, 7, 52, 0
9, 13560, Note_on_c, 7, 53, 90
9, 13619, Note_on_c, 7, 53, 0
9, 13620, Note_on_c, 7, 52, 90
9, 13679, Note_on_c, 7, 52, 0
9, 13680, Note_on_c, 7, 50, 90
9, 13739, Note_on_c, 7, 50, 0
9, 13740, Note_on_c, 7, 48, 90
9, 13799, Note_on_c, 7, 48, 0
9, 13800, Note_on_c, 7, 47, 90
9, 13859, Note_on_c, 7, 47, 0
9, 13860, Note_on_c, 7, 45, 90
9, 13919, Note_on_c, 7, 45, 0
9, 13920, Note_on_c, 7, 45, 90
9, 14159, Note_on_c, 7, 45, 0
9, 14160, Note_on_c, 7, 53, 90
9, 14219, Note_on_c, 7, 53, 0
9, 14220, Note_on_c, 7, 52, 90
9, 14279, Note_on_c, 7, 52, 0
9, 14280, Note_on_c, 7, 52, 90
9, 14519, Note_on_c, 7, 52, 0
9, 14520, Note_on_c, 7, 46, 90
9, 14579, Note_on_c, 7, 46, 0
9, 14580, Note_on_c, 7, 45, 90
9, 14639, Note_on_c, 7, 45, 0
9, 14640, Note_on_c, 7, 45, 90
9, 14879, Note_on_c, 7, 45, 0
9, 14880, Note_on_c, 7, 50, 90
9, 14939, Note_on_c, 7, 50, 0
9, 14940, Note_on_c, 7, 52, 90
9, 14999, Note_on_c, 7, 52, 0
9, 15000, Note_on_c, 7, 53, 90
9, 15059, Note_on_c, 7, 53, 0
9, 15060, Note_on_c, 7, 52, 90
9, 15119, Note_on_c, 7, 52, 0
9, 15120, Note_on_c, 7, 50, 90
9, 15179, Note_on_c, 7, 50, 0
9, 15180, Note_on_c, 7, 48, 90
9, 15239, Note_on_c, 7, 48, 0
9, 15240, Note_on_c, 7, 47, 90
9, 15299, Note_on_c, 7, 47, 0
9, 15300, Note_on_c, 7, 45, 90
9, 15359, Note_on_c, 7, 45, 0
9, 15360, Note_on_c, 7, 45, 90
9, 15599, Note_on_c, 7, 45, 0
9, 15600, Note_on_c, 7, 53, 90
9, 15659, Note_on_c, 7, 53, 0
9, 15660, Note_on_c, 7, 52, 90
9, 15719, Note_on_c, 7, 52, 0
9, 15720, Note_on_c, 7, 52, 90
9, 15959, Note_on_c, 7, 52, 0
9, 15960, Note_on_c, 7, 46, 90
9, 16019, Note_on_c, 7, 46, 0
9, 16020, Note_on_c, 7, 45, 90
9, 16079, Note_on_c, 7, 45, 0
9, 16080, Note_on_c, 7, 45, 90
9, 16319, Note_on_c, 7, 45, 0
9, 16320, Note_on_c, 7, 50, 90
9, 16379, Note_on_c, 7, 50, 0
9, 16380, Note_on_c, 7, 52, 90
9, 16439, Note_on_c, 7, 52, 0
9, 16440, Note_on_c, 7, 53, 90
9, 16499, Note_on_c, 7, 53, 0
9, 16500, Note_on_c, 7, 52, 90
9, 16559, Note_on_c, 7, 52, 0
9, 16560, Note_on_c, 7, 50, 90
9, 16619, Note_on_c, 7, 50, 0
9, 16620, Note_on_c, 7, 48, 90
9, 16679, Note_on_c, 7, 48, 0
9, 16680, Note_on_c, 7, 47, 90
9, 16739, Note_on_c, 7, 47, 0
9, 16740, Note_on_c, 7, 45, 90
9, 16799, Note_on_c, 7, 45, 0
9, 16800, Note_on_c, 7, 45, 90
9, 17039, Note_on_c, 7, 45, 0
9, 17040, Note_on_c, 7, 57, 90
9, 17069, Note_on_c, 7, 57, 0
9, 17070, Note_on_c, 7, 60, 90
9, 17099, Note_on_c, 7, 60, 0
9, 17100, Note_on_c, 7, 59, 90
9, 17129, Note_on_c, 7, 59, 0
9, 17130, Note_on_c, 7, 60, 90
9, 17159, Note_on_c, 7, 60, 0
9, 17160, Note_on_c, 7, 62, 90
9, 17219, Note_on_c, 7, 62, 0
9, 17220, Note_on_c, 7, 60, 90
9, 17279, Note_on_c, 7, 60, 0
9, 17280, Note_on_c, 7, 59, 90
9, 17339, Note_on_c, 7, 59, 0
9, 17340, Note_on_c, 7, 56, 90
9, 17399, Note_on_c, 7, 56, 0
9, 17400, Note_on_c, 7, 57, 90
9, 17459, Note_on_c, 7, 57, 0
9, 17460, Note_on_c, 7, 45, 90
9, 17519, Note_on_c, 7, 45, 0
9, 17520, Note_on_c, 7, 50, 90
9, 17579, Note_on_c, 7, 50, 0
9, 17580, Note_on_c, 7, 52, 90
9, 17609, Note_on_c, 7, 52, 0
9, 17610, Note_on_c, 7, 53, 90
9, 17639, Note_on_c, 7, 53, 0
9, 17640, Note_on_c, 7, 52, 90
9, 17699, Note_on_c, 7, 52, 0
9, 17700, Note_on_c, 7, 40, 90
9, 17759, Note_on_c, 7, 40, 0
9, 17760, Note_on_c, 7, 45, 90
9, 17879, Note_on_c, 7, 45, 0
9, 17940, Note_on_c, 7, 57, 90
9, 17969, Note_on_c, 7, 57, 0
9, 17970, Note_on_c, 7, 59, 90
9, 17999, Note_on_c, 7, 59, 0
9, 18000, Note_on_c, 7, 60, 90
9, 18059, Note_on_c, 7, 60, 0
9, 18060, Note_on_c, 7, 59, 90
9, 18089, Note_on_c, 7, 59, 0
9, 18090, Note_on_c, 7, 60, 90
9, 18119, Note_on_c, 7, 60, 0
9, 18120, Note_on_c, 7, 62, 90
9, 18179, Note_on_c, 7, 62, 0
9, 18180, Note_on_c, 7, 60, 90
9, 18239, Note_on_c, 7, 60, 0
9, 18240, Note_on_c, 7, 59, 90
9, 18299, Note_on_c, 7, 59, 0
9, 18300, Note_on_c, 7, 56, 90
9, 18359, Note_on_c, 7, 56, 0
9, 18360, Note_on_c, 7, 57, 90
9, 18419, Note_on_c, 7, 57, 0
9, 18420, Note_on_c, 7, 45, 90
9, 18479, Note_on_c, 7, 45, 0
9, 18480, Note_on_c, 7, 50, 90
9, 18539, Note_on_c, 7, 50, 0
9, 18540, Note_on_c, 7, 52, 90
9, 18569, Note_on_c, 7, 52, 0
9, 18570, Note_on_c, 7, 53, 90
9, 18599, Note_on_c, 7, 53, 0
9, 18600, Note_on_c, 7, 52, 90
9, 18659, Note_on_c, 7, 52, 0
9, 18660, Note_on_c, 7, 40, 90
9, 18719, Note_on_c, 7, 40, 0
9, 18720, Note_on_c, 7, 45, 90
9, 18839, Note_on_c, 7, 45, 0
9, 18840, Note_on_c, 7, 45, 90
9, 18959, Note_on_c, 7, 45, 0
9, 18960, Note_on_c, 7, 45, 90
9, 19079, Note_on_c, 7, 45, 0
9, 19080, Note_on_c, 7, 45, 90
9, 19199, Note_on_c, 7, 45, 0
9, 19200, Note_on_c, 7, 45, 90
9, 19319, Note_on_c, 7, 45, 0
9, 19320, Note_on_c, 7, 45, 90
9, 19439, Note_on_c, 7, 45, 0
9, 19440, Note_on_c, 7, 45, 90
9, 19559, Note_on_c, 7, 45, 0
9, 19560, Note_on_c, 7, 45, 90
9, 19679, Note_on_c, 7, 45, 0
9, 19680, Note_on_c, 7, 45, 90
9, 19799, Note_on_c, 7, 45, 0
9, 19800, Note_on_c, 7, 45, 90
9, 19919, Note_on_c, 7, 45, 0
9, 19920, Note_on_c, 7, 45, 90
9, 20039, Note_on_c, 7, 45, 0
9, 20040, Note_on_c, 7, 45, 90
9, 20159, Note_on_c, 7, 45, 0
9, 20160, Note_on_c, 7, 45, 90
9, 20279, Note_on_c, 7, 45, 0
9, 20280, Note_on_c, 7, 45, 90
9, 20399, Note_on_c, 7, 45, 0
9, 20400, Note_on_c, 7, 45, 90
9, 20519, Note_on_c, 7, 45, 0
9, 20520, Note_on_c, 7, 45, 90
9, 20639, Note_on_c, 7, 45, 0
9, 20640, Note_on_c, 7, 45, 90
9, 20759, Note_on_c, 7, 45, 0
9, 20760, Note_on_c, 7, 45, 90
9, 20879, Note_on_c, 7, 45, 0
9, 20880, Note_on_c, 7, 45, 90
9, 20999, Note_on_c, 7, 45, 0
9, 21000, Note_on_c, 7, 45, 90
9, 21119, Note_on_c, 7, 45, 0
9, 21120, Note_on_c, 7, 45, 90
9, 21239, Note_on_c, 7, 45, 0
9, 21240, Note_on_c, 7, 45, 90
9, 21359, Note_on_c, 7, 45, 0
9, 21480, Note_on_c, 7, 62, 90
9, 21539, Note_on_c, 7, 62, 0
9, 21540, Note_on_c, 7, 61, 90
9, 21599, Note_on_c, 7, 61, 0
9, 21600, Note_on_c, 7, 61, 90
9, 21659, Note_on_c, 7, 61, 0
9, 21660, Note_on_c, 7, 59, 90
9, 21719, Note_on_c, 7, 59, 0
9, 21720, Note_on_c, 7, 59, 90
9, 21779, Note_on_c, 7, 59, 0
9, 21780, Note_on_c, 7, 57, 90
9, 21839, Note_on_c, 7, 57, 0
9, 21840, Note_on_c, 7, 59, 90
9, 21899, Note_on_c, 7, 59, 0
9, 21900, Note_on_c, 7, 57, 90
9, 21959, Note_on_c, 7, 57, 0
9, 21960, Note_on_c, 7, 59, 90
9, 22079, Note_on_c, 7, 59, 0
9, 22080, Note_on_c, 7, 52, 90
9, 22199, Note_on_c, 7, 52, 0
9, 22200, Note_on_c, 7, 61, 90
9, 22259, Note_on_c, 7, 61, 0
9, 22260, Note_on_c, 7, 59, 90
9, 22319, Note_on_c, 7, 59, 0
9, 22320, Note_on_c, 7, 59, 90
9, 22379, Note_on_c, 7, 59, 0
9, 22380, Note_on_c, 7, 57, 90
9, 22439, Note_on_c, 7, 57, 0
9, 22440, Note_on_c, 7, 57, 90
9, 22499, Note_on_c, 7, 57, 0
9, 22500, Note_on_c, 7, 56, 90
9, 22559, Note_on_c, 7, 56, 0
9, 22560, Note_on_c, 7, 57, 90
9, 22619, Note_on_c, 7, 57, 0
9, 22620, Note_on_c, 7, 56, 90
9, 22679, Note_on_c, 7, 56, 0
9, 22680, Note_on_c, 7, 57, 90
9, 22799, Note_on_c, 7, 57, 0
9, 22800, Note_on_c, 7, 45, 90
9, 22919, Note_on_c, 7, 45, 0
9, 23280, Note_on_c, 7, 57, 90
9, 23339, Note_on_c, 7, 57, 0
9, 23340, Note_on_c, 7, 61, 90
9, 23399, Note_on_c, 7, 61, 0
9, 23400, Note_on_c, 7, 59, 90
9, 23519, Note_on_c, 7, 59, 0
9, 23520, Note_on_c, 7, 57, 90
9, 23639, Note_on_c, 7, 57, 0
9, 23640, Note_on_c, 7, 57, 90
9, 23699, Note_on_c, 7, 57, 0
9, 23700, Note_on_c, 7, 56, 90
9, 23759, Note_on_c, 7, 56, 0
9, 23760, Note_on_c, 7, 54, 90
9, 23819, Note_on_c, 7, 54, 0
9, 23820, Note_on_c, 7, 52, 90
9, 23879, Note_on_c, 7, 52, 0
9, 23880, Note_on_c, 7, 50, 90
9, 23939, Note_on_c, 7, 50, 0
9, 23940, Note_on_c, 7, 49, 90
9, 23999, Note_on_c, 7, 49, 0
9, 24000, Note_on_c, 7, 47, 90
9, 24059, Note_on_c, 7, 47, 0
9, 24060, Note_on_c, 7, 52, 90
9, 24119, Note_on_c, 7, 52, 0
9, 24120, Note_on_c, 7, 45, 90
9, 24359, Note_on_c, 7, 45, 0
9, 24360, Note_on_c, 7, 62, 90
9, 24419, Note_on_c, 7, 62, 0
9, 24420, Note_on_c, 7, 61, 90
9, 24479, Note_on_c, 7, 61, 0
9, 24480, Note_on_c, 7, 61, 90
9, 24539, Note_on_c, 7, 61, 0
9, 24540, Note_on_c, 7, 59, 90
9, 24599, Note_on_c, 7, 59, 0
9, 24600, Note_on_c, 7, 59, 90
9, 24659, Note_on_c, 7, 59, 0
9, 24660, Note_on_c, 7, 57, 90
9, 24719, Note_on_c, 7, 57, 0
9, 24720, Note_on_c, 7, 59, 90
9, 24779, Note_on_c, 7, 59, 0
9, 24780, Note_on_c, 7, 57, 90
9, 24839, Note_on_c, 7, 57, 0
9, 24840, Note_on_c, 7, 59, 90
9, 24959, Note_on_c, 7, 59, 0
9, 24960, Note_on_c, 7, 47, 90
9, 25079, Note_on_c, 7, 47, 0
9, 25080, Note_on_c, 7, 61, 90
9, 25139, Note_on_c, 7, 61, 0
9, 25140, Note_on_c, 7, 59, 90
9, 25199, Note_on_c, 7, 59, 0
9, 25200, Note_on_c, 7, 59, 90
9, 25259, Note_on_c, 7, 59, 0
9, 25260, Note_on_c, 7, 57, 90
9, 25319, Note_on_c, 7, 57, 0
9, 25320, Note_on_c, 7, 57, 90
9, 25379, Note_on_c, 7, 57, 0
9, 25380, Note_on_c, 7, 56, 90
9, 25439, Note_on_c, 7, 56, 0
9, 25440, Note_on_c, 7, 57, 90
9, 25499, Note_on_c, 7, 57, 0
9, 25500, Note_on_c, 7, 56, 90
9, 25559, Note_on_c, 7, 56, 0
9, 25560, Note_on_c, 7, 57, 90
9, 25679, Note_on_c, 7, 57, 0
9, 25680, Note_on_c, 7, 45, 90
9, 25799, Note_on_c, 7, 45, 0
9, 26160, Note_on_c, 7, 57, 90
9, 26219, Note_on_c, 7, 57, 0
9, 26220, Note_on_c, 7, 61, 90
9, 26279, Note_on_c, 7, 61, 0
9, 26280, Note_on_c, 7, 59, 90
9, 26399, Note_on_c, 7, 59, 0
9, 26400, Note_on_c, 7, 57, 90
9, 26519, Note_on_c, 7, 57, 0
9, 27060, Note_on_c, 7, 45, 90
9, 27119, Note_on_c, 7, 45, 0
9, 27120, Note_on_c, 7, 49, 90
9, 27179, Note_on_c, 7, 49, 0
9, 27180, Note_on_c, 7, 52, 90
9, 27239, Note_on_c, 7, 52, 0
9, 27240, Note_on_c, 7, 57, 90
9, 27299, Note_on_c, 7, 57, 0
9, 27300, Note_on_c, 7, 56, 90
9, 27359, Note_on_c, 7, 56, 0
9, 27360, Note_on_c, 7, 54, 90
9, 27419, Note_on_c, 7, 54, 0
9, 27420, Note_on_c, 7, 52, 90
9, 27479, Note_on_c, 7, 52, 0
9, 27480, Note_on_c, 7, 50, 90
9, 27539, Note_on_c, 7, 50, 0
9, 27540, Note_on_c, 7, 49, 90
9, 27599, Note_on_c, 7, 49, 0
9, 27600, Note_on_c, 7, 47, 90
9, 27659, Note_on_c, 7, 47, 0
9, 27660, Note_on_c, 7, 52, 90
9, 27719, Note_on_c, 7, 52, 0
9, 27720, Note_on_c, 7, 45, 90
9, 27959, Note_on_c, 7, 45, 0
9, 28440, Note_on_c, 7, 45, 90
9, 28559, Note_on_c, 7, 45, 0
9, 28560, Note_on_c, 7, 57, 90
9, 28679, Note_on_c, 7, 57, 0
9, 28920, Note_on_c, 7, 50, 90
9, 29039, Note_on_c, 7, 50, 0
9, 29040, Note_on_c, 7, 52, 90
9, 29159, Note_on_c, 7, 52, 0
9, 29400, Note_on_c, 7, 57, 90
9, 29519, Note_on_c, 7, 57, 0
9, 29520, Note_on_c, 7, 54, 90
9, 29639, Note_on_c, 7, 54, 0
9, 29640, Note_on_c, 7, 50, 90
9, 29759, Note_on_c, 7, 50, 0
9, 29760, Note_on_c, 7, 52, 90
9, 29879, Note_on_c, 7, 52, 0
9, 29880, Note_on_c, 7, 40, 90
9, 29999, Note_on_c, 7, 40, 0
9, 30000, Note_on_c, 7, 45, 90
9, 30119, Note_on_c, 7, 45, 0
9, 30120, Note_on_c, 7, 49, 90
9, 30179, Note_on_c, 7, 49, 0
9, 30180, Note_on_c, 7, 52, 90
9, 30239, Note_on_c, 7, 52, 0
9, 30240, Note_on_c, 7, 57, 90
9, 30359, Note_on_c, 7, 57, 0
9, 30360, Note_on_c, 7, 45, 90
9, 30479, Note_on_c, 7, 45, 0
9, 30480, Note_on_c, 7, 57, 90
9, 30539, Note_on_c, 7, 57, 0
9, 30540, Note_on_c, 7, 56, 90
9, 30599, Note_on_c, 7, 56, 0
9, 30600, Note_on_c, 7, 54, 90
9, 30659, Note_on_c, 7, 54, 0
9, 30660, Note_on_c, 7, 52, 90
9, 30719, Note_on_c, 7, 52, 0
9, 30720, Note_on_c, 7, 50, 90
9, 30779, Note_on_c, 7, 50, 0
9, 30780, Note_on_c, 7, 49, 90
9, 30839, Note_on_c, 7, 49, 0
9, 30840, Note_on_c, 7, 47, 90
9, 30899, Note_on_c, 7, 47, 0
9, 30900, Note_on_c, 7, 45, 90
9, 30959, Note_on_c, 7, 45, 0
9, 30960, Note_on_c, 7, 52, 90
9, 31079, Note_on_c, 7, 52, 0
9, 31080, Note_on_c, 7, 56, 90
9, 31139, Note_on_c, 7, 56, 0
9, 31140, Note_on_c, 7, 59, 90
9, 31199, Note_on_c, 7, 59, 0
9, 31200, Note_on_c, 7, 64, 90
9, 31319, Note_on_c, 7, 64, 0
9, 31320, Note_on_c, 7, 57, 90
9, 31439, Note_on_c, 7, 57, 0
9, 31440, Note_on_c, 7, 56, 90
9, 31499, Note_on_c, 7, 56, 0
9, 31500, Note_on_c, 7, 52, 90
9, 31559, Note_on_c, 7, 52, 0
9, 31560, Note_on_c, 7, 57, 90
9, 31619, Note_on_c, 7, 57, 0
9, 31620, Note_on_c, 7, 50, 90
9, 31679, Note_on_c, 7, 50, 0
9, 31680, Note_on_c, 7, 52, 90
9, 31799, Note_on_c, 7, 52, 0
9, 31800, Note_on_c, 7, 40, 90
9, 31919, Note_on_c, 7, 40, 0
9, 31920, Note_on_c, 7, 45, 90
9, 32039, Note_on_c, 7, 45, 0
9, 32040, Note_on_c, 7, 49, 90
9, 32099, Note_on_c, 7, 49, 0
9, 32100, Note_on_c, 7, 52, 90
9, 32159, Note_on_c, 7, 52, 0
9, 32160, Note_on_c, 7, 57, 90
9, 32219, Note_on_c, 7, 57, 0
9, 32220, Note_on_c, 7, 56, 90
9, 32279, Note_on_c, 7, 56, 0
9, 32280, Note_on_c, 7, 57, 90
9, 32339, Note_on_c, 7, 57, 0
9, 32340, Note_on_c, 7, 59, 90
9, 32399, Note_on_c, 7, 59, 0
9, 32400, Note_on_c, 7, 61, 90
9, 32519, Note_on_c, 7, 61, 0
9, 32520, Note_on_c, 7, 61, 90
9, 32579, Note_on_c, 7, 61, 0
9, 32580, Note_on_c, 7, 59, 90
9, 32639, Note_on_c, 7, 59, 0
9, 32640, Note_on_c, 7, 61, 90
9, 32759, Note_on_c, 7, 61, 0
9, 32760, Note_on_c, 7, 57, 90
9, 32879, Note_on_c, 7, 57, 0
9, 32880, Note_on_c, 7, 62, 90
9, 32999, Note_on_c, 7, 62, 0
9, 33000, Note_on_c, 7, 61, 90
9, 33059, Note_on_c, 7, 61, 0
9, 33060, Note_on_c, 7, 59, 90
9, 33119, Note_on_c, 7, 59, 0
9, 33120, Note_on_c, 7, 61, 90
9, 33239, Note_on_c, 7, 61, 0
9, 33240, Note_on_c, 7, 57, 90
9, 33299, Note_on_c, 7, 57, 0
9, 33300, Note_on_c, 7, 59, 90
9, 33359, Note_on_c, 7, 59, 0
9, 33360, Note_on_c, 7, 61, 90
9, 33479, Note_on_c, 7, 61, 0
9, 33480, Note_on_c, 7, 57, 90
9, 33599, Note_on_c, 7, 57, 0
9, 33600, Note_on_c, 7, 56, 90
9, 33719, Note_on_c, 7, 56, 0
9, 33720, Note_on_c, 7, 57, 90
9, 33839, Note_on_c, 7, 57, 0
9, 33840, Note_on_c, 7, 52, 90
9, 33959, Note_on_c, 7, 52, 0
9, 33960, Note_on_c, 7, 56, 90
9, 34020, Note_on_c, 7, 56, 0
9, 34020, Note_on_c, 7, 59, 90
9, 34080, Note_on_c, 7, 59, 0
9, 34080, Note_on_c, 7, 64, 90
9, 34140, Note_on_c, 7, 64, 0
9, 34140, Note_on_c, 7, 62, 90
9, 34200, Note_on_c, 7, 62, 0
9, 34200, Note_on_c, 7, 61, 90
9, 34260, Note_on_c, 7, 61, 0
9, 34260, Note_on_c, 7, 59, 90
9, 34320, Note_on_c, 7, 59, 0
9, 34320, Note_on_c, 7, 57, 90
9, 34439, Note_on_c, 7, 57, 0
9, 34440, Note_on_c, 7, 52, 90
9, 34559, Note_on_c, 7, 52, 0
9, 34560, Note_on_c, 7, 49, 90
9, 34679, Note_on_c, 7, 49, 0
9, 34680, Note_on_c, 7, 45, 90
9, 34799, Note_on_c, 7, 45, 0
9, 34800, Note_on_c, 7, 52, 90
9, 34919, Note_on_c, 7, 52, 0
9, 34920, Note_on_c, 7, 56, 90
9, 34979, Note_on_c, 7, 56, 0
9, 34980, Note_on_c, 7, 54, 90
9, 35039, Note_on_c, 7, 54, 0
9, 35040, Note_on_c, 7, 56, 90
9, 35159, Note_on_c, 7, 56, 0
9, 35160, Note_on_c, 7, 57, 90
9, 35279, Note_on_c, 7, 57, 0
9, 35280, Note_on_c, 7, 54, 90
9, 35399, Note_on_c, 7, 54, 0
9, 35400, Note_on_c, 7, 50, 90
9, 35519, Note_on_c, 7, 50, 0
9, 35520, Note_on_c, 7, 52, 90
9, 35639, Note_on_c, 7, 52, 0
9, 35640, Note_on_c, 7, 40, 90
9, 35759, Note_on_c, 7, 40, 0
9, 35760, Note_on_c, 7, 45, 90
9, 35879, Note_on_c, 7, 45, 0
9, 35880, Note_on_c, 7, 49, 90
9, 35939, Note_on_c, 7, 49, 0
9, 35940, Note_on_c, 7, 52, 90
9, 35999, Note_on_c, 7, 52, 0
9, 36000, Note_on_c, 7, 57, 90
9, 36059, Note_on_c, 7, 57, 0
9, 36060, Note_on_c, 7, 56, 90
9, 36119, Note_on_c, 7, 56, 0
9, 36120, Note_on_c, 7, 57, 90
9, 36179, Note_on_c, 7, 57, 0
9, 36180, Note_on_c, 7, 59, 90
9, 36239, Note_on_c, 7, 59, 0
9, 36240, Note_on_c, 7, 61, 90
9, 36299, Note_on_c, 7, 61, 0
9, 36300, Note_on_c, 7, 59, 90
9, 36359, Note_on_c, 7, 59, 0
9, 36360, Note_on_c, 7, 61, 90
9, 36419, Note_on_c, 7, 61, 0
9, 36420, Note_on_c, 7, 59, 90
9, 36479, Note_on_c, 7, 59, 0
9, 36480, Note_on_c, 7, 61, 90
9, 36539, Note_on_c, 7, 61, 0
9, 36540, Note_on_c, 7, 57, 90
9, 36599, Note_on_c, 7, 57, 0
9, 36600, Note_on_c, 7, 59, 90
9, 36659, Note_on_c, 7, 59, 0
9, 36660, Note_on_c, 7, 61, 90
9, 36719, Note_on_c, 7, 61, 0
9, 36720, Note_on_c, 7, 62, 90
9, 36839, Note_on_c, 7, 62, 0
9, 36840, Note_on_c, 7, 57, 90
9, 36899, Note_on_c, 7, 57, 0
9, 36900, Note_on_c, 7, 56, 90
9, 36959, Note_on_c, 7, 56, 0
9, 36960, Note_on_c, 7, 57, 90
9, 37019, Note_on_c, 7, 57, 0
9, 37020, Note_on_c, 7, 56, 90
9, 37079, Note_on_c, 7, 56, 0
9, 37080, Note_on_c, 7, 57, 90
9, 37139, Note_on_c, 7, 57, 0
9, 37140, Note_on_c, 7, 59, 90
9, 37199, Note_on_c, 7, 59, 0
9, 37200, Note_on_c, 7, 61, 90
9, 37259, Note_on_c, 7, 61, 0
9, 37260, Note_on_c, 7, 57, 90
9, 37319, Note_on_c, 7, 57, 0
9, 37320, Note_on_c, 7, 59, 90
9, 37379, Note_on_c, 7, 59, 0
9, 37380, Note_on_c, 7, 61, 90
9, 37439, Note_on_c, 7, 61, 0
9, 37440, Note_on_c, 7, 62, 90
9, 37499, Note_on_c, 7, 62, 0
9, 37500, Note_on_c, 7, 61, 90
9, 37559, Note_on_c, 7, 61, 0
9, 37560, Note_on_c, 7, 59, 90
9, 37619, Note_on_c, 7, 59, 0
9, 37620, Note_on_c, 7, 57, 90
9, 37679, Note_on_c, 7, 57, 0
9, 37680, Note_on_c, 7, 64, 90
9, 37799, Note_on_c, 7, 64, 0
9, 37800, Note_on_c, 7, 52, 90
9, 37859, Note_on_c, 7, 52, 0
9, 37860, Note_on_c, 7, 54, 90
9, 37919, Note_on_c, 7, 54, 0
9, 37920, Note_on_c, 7, 52, 90
9, 37979, Note_on_c, 7, 52, 0
9, 37980, Note_on_c, 7, 50, 90
9, 38039, Note_on_c, 7, 50, 0
9, 38040, Note_on_c, 7, 49, 90
9, 38099, Note_on_c, 7, 49, 0
9, 38100, Note_on_c, 7, 47, 90
9, 38159, Note_on_c, 7, 47, 0
9, 38160, Note_on_c, 7, 45, 90
9, 38279, Note_on_c, 7, 45, 0
9, 38280, Note_on_c, 7, 57, 90
9, 38399, Note_on_c, 7, 57, 0
9, 38400, Note_on_c, 7, 56, 90
9, 38519, Note_on_c, 7, 56, 0
9, 38520, Note_on_c, 7, 57, 90
9, 38639, Note_on_c, 7, 57, 0
9, 38640, Note_on_c, 7, 52, 90
9, 38759, Note_on_c, 7, 52, 0
9, 38760, Note_on_c, 7, 40, 90
9, 38879, Note_on_c, 7, 40, 0
9, 38880, Note_on_c, 7, 40, 90
9, 38999, Note_on_c, 7, 40, 0
9, 39000, Note_on_c, 7, 44, 90
9, 39119, Note_on_c, 7, 44, 0
9, 39120, Note_on_c, 7, 45, 90
9, 39239, Note_on_c, 7, 45, 0
9, 39240, Note_on_c, 7, 42, 90
9, 39359, Note_on_c, 7, 42, 0
9, 39360, Note_on_c, 7, 38, 90
9, 39479, Note_on_c, 7, 38, 0
9, 39480, Note_on_c, 7, 40, 90
9, 39599, Note_on_c, 7, 40, 0
9, 39600, Note_on_c, 7, 45, 90
9, 39959, Note_on_c, 7, 45, 0
9, 40080, Note_on_c, 7, 49, 90
9, 41040, Note_on_c, 7, 49, 0
9, 41040, Note_on_c, 7, 50, 90
9, 41760, Note_on_c, 7, 50, 0
9, 41760, Note_on_c, 7, 46, 90
9, 42480, Note_on_c, 7, 46, 0
9, 42480, Note_on_c, 7, 47, 90
9, 42539, Note_on_c, 7, 47, 0
9, 42540, Note_on_c, 7, 59, 90
9, 42599, Note_on_c, 7, 59, 0
9, 42600, Note_on_c, 7, 54, 90
9, 42659, Note_on_c, 7, 54, 0
9, 42660, Note_on_c, 7, 50, 90
9, 42719, Note_on_c, 7, 50, 0
9, 42720, Note_on_c, 7, 55, 90
9, 42779, Note_on_c, 7, 55, 0
9, 42780, Note_on_c, 7, 55, 90
9, 42809, Note_on_c, 7, 55, 0
9, 42810, Note_on_c, 7, 55, 90
9, 42839, Note_on_c, 7, 55, 0
9, 42840, Note_on_c, 7, 55, 90
9, 42899, Note_on_c, 7, 55, 0
9, 42900, Note_on_c, 7, 55, 90
9, 42959, Note_on_c, 7, 55, 0
9, 42960, Note_on_c, 7, 55, 90
9, 43019, Note_on_c, 7, 55, 0
9, 43020, Note_on_c, 7, 54, 90
9, 43049, Note_on_c, 7, 54, 0
9, 43050, Note_on_c, 7, 52, 90
9, 43079, Note_on_c, 7, 52, 0
9, 43080, Note_on_c, 7, 50, 90
9, 43109, Note_on_c, 7, 50, 0
9, 43110, Note_on_c, 7, 48, 90
9, 43139, Note_on_c, 7, 48, 0
9, 43140, Note_on_c, 7, 47, 90
9, 43169, Note_on_c, 7, 47, 0
9, 43170, Note_on_c, 7, 45, 90
9, 43199, Note_on_c, 7, 45, 0
9, 43200, Note_on_c, 7, 43, 90
9, 43259, Note_on_c, 7, 43, 0
9, 43260, Note_on_c, 7, 43, 90
9, 43289, Note_on_c, 7, 43, 0
9, 43290, Note_on_c, 7, 43, 90
9, 43319, Note_on_c, 7, 43, 0
9, 43320, Note_on_c, 7, 43, 90
9, 43379, Note_on_c, 7, 43, 0
9, 43380, Note_on_c, 7, 43, 90
9, 43439, Note_on_c, 7, 43, 0
9, 43440, Note_on_c, 7, 43, 90
9, 43679, Note_on_c, 7, 43, 0
9, 43680, Note_on_c, 7, 47, 90
9, 43919, Note_on_c, 7, 47, 0
9, 43920, Note_on_c, 7, 52, 90
9, 44159, Note_on_c, 7, 52, 0
9, 44160, Note_on_c, 7, 50, 90
9, 44639, Note_on_c, 7, 50, 0
9, 44640, Note_on_c, 7, 44, 90
9, 45359, Note_on_c, 7, 44, 0
9, 45360, Note_on_c, 7, 53, 90
9, 45599, Note_on_c, 7, 53, 0
9, 45600, Note_on_c, 7, 54, 90
9, 45659, Note_on_c, 7, 54, 0
9, 45660, Note_on_c, 7, 42, 90
9, 45719, Note_on_c, 7, 42, 0
9, 45720, Note_on_c, 7, 44, 90
9, 45779, Note_on_c, 7, 44, 0
9, 45780, Note_on_c, 7, 45, 90
9, 45839, Note_on_c, 7, 45, 0
9, 45840, Note_on_c, 7, 47, 90
9, 45899, Note_on_c, 7, 47, 0
9, 45900, Note_on_c, 7, 45, 90
9, 45959, Note_on_c, 7, 45, 0
9, 45960, Note_on_c, 7, 47, 90
9, 46019, Note_on_c, 7, 47, 0
9, 46020, Note_on_c, 7, 49, 90
9, 46079, Note_on_c, 7, 49, 0
9, 46080, Note_on_c, 7, 50, 90
9, 46199, Note_on_c, 7, 50, 0
9, 46440, Note_on_c, 7, 49, 90
9, 46559, Note_on_c, 7, 49, 0
9, 46560, Note_on_c, 7, 42, 90
9, 46619, Note_on_c, 7, 42, 0
9, 46620, Note_on_c, 7, 54, 90
9, 46679, Note_on_c, 7, 54, 0
9, 46680, Note_on_c, 7, 52, 90
9, 46739, Note_on_c, 7, 52, 0
9, 46740, Note_on_c, 7, 50, 90
9, 46799, Note_on_c, 7, 50, 0
9, 46800, Note_on_c, 7, 49, 90
9, 46919, Note_on_c, 7, 49, 0
9, 46980, Note_on_c, 7, 47, 90
9, 47039, Note_on_c, 7, 47, 0
9, 47040, Note_on_c, 7, 45, 90
9, 47069, Note_on_c, 7, 45, 0
9, 47070, Note_on_c, 7, 47, 90
9, 47099, Note_on_c, 7, 47, 0
9, 47100, Note_on_c, 7, 49, 90
9, 47129, Note_on_c, 7, 49, 0
9, 47130, Note_on_c, 7, 50, 90
9, 47159, Note_on_c, 7, 50, 0
9, 47160, Note_on_c, 7, 52, 90
9, 47189, Note_on_c, 7, 52, 0
9, 47190, Note_on_c, 7, 54, 90
9, 47219, Note_on_c, 7, 54, 0
9, 47220, Note_on_c, 7, 56, 90
9, 47249, Note_on_c, 7, 56, 0
9, 47250, Note_on_c, 7, 52, 90
9, 47279, Note_on_c, 7, 52, 0
9, 47280, Note_on_c, 7, 57, 90
9, 47339, Note_on_c, 7, 57, 0
9, 47340, Note_on_c, 7, 54, 90
9, 47399, Note_on_c, 7, 54, 0
9, 47400, Note_on_c, 7, 50, 90
9, 47459, Note_on_c, 7, 50, 0
9, 47460, Note_on_c, 7, 52, 90
9, 47519, Note_on_c, 7, 52, 0
9, 47520, Note_on_c, 7, 45, 90
9, 47700, Note_on_c, 7, 45, 0
9, 47760, Note_on_c, 7, 45, 90
9, 47819, Note_on_c, 7, 45, 0
9, 47820, Note_on_c, 7, 47, 90
9, 47879, Note_on_c, 7, 47, 0
9, 47880, Note_on_c, 7, 49, 90
9, 47939, Note_on_c, 7, 49, 0
9, 47940, Note_on_c, 7, 50, 90
9, 47999, Note_on_c, 7, 50, 0
9, 48000, Note_on_c, 7, 52, 90
9, 48059, Note_on_c, 7, 52, 0
9, 48060, Note_on_c, 7, 50, 90
9, 48119, Note_on_c, 7, 50, 0
9, 48120, Note_on_c, 7, 49, 90
9, 48179, Note_on_c, 7, 49, 0
9, 48180, Note_on_c, 7, 45, 90
9, 48239, Note_on_c, 7, 45, 0
9, 48240, Note_on_c, 7, 52, 90
9, 48299, Note_on_c, 7, 52, 0
9, 48300, Note_on_c, 7, 54, 90
9, 48359, Note_on_c, 7, 54, 0
9, 48360, Note_on_c, 7, 52, 90
9, 48419, Note_on_c, 7, 52, 0
9, 48420, Note_on_c, 7, 50, 90
9, 48479, Note_on_c, 7, 50, 0
9, 48480, Note_on_c, 7, 49, 90
9, 48539, Note_on_c, 7, 49, 0
9, 48540, Note_on_c, 7, 45, 90
9, 48599, Note_on_c, 7, 45, 0
9, 48600, Note_on_c, 7, 52, 90
9, 48659, Note_on_c, 7, 52, 0
9, 48660, Note_on_c, 7, 54, 90
9, 48719, Note_on_c, 7, 54, 0
9, 48720, Note_on_c, 7, 56, 90
9, 48779, Note_on_c, 7, 56, 0
9, 48780, Note_on_c, 7, 52, 90
9, 48839, Note_on_c, 7, 52, 0
9, 48840, Note_on_c, 7, 57, 90
9, 48899, Note_on_c, 7, 57, 0
9, 48900, Note_on_c, 7, 56, 90
9, 48959, Note_on_c, 7, 56, 0
9, 48960, Note_on_c, 7, 54, 90
9, 49019, Note_on_c, 7, 54, 0
9, 49020, Note_on_c, 7, 52, 90
9, 49079, Note_on_c, 7, 52, 0
9, 49080, Note_on_c, 7, 50, 90
9, 49139, Note_on_c, 7, 50, 0
9, 49140, Note_on_c, 7, 54, 90
9, 49199, Note_on_c, 7, 54, 0
9, 49200, Note_on_c, 7, 52, 90
9, 49319, Note_on_c, 7, 52, 0
9, 49320, Note_on_c, 7, 57, 90
9, 49379, Note_on_c, 7, 57, 0
9, 49380, Note_on_c, 7, 52, 90
9, 49439, Note_on_c, 7, 52, 0
9, 49440, Note_on_c, 7, 49, 90
9, 49499, Note_on_c, 7, 49, 0
9, 49500, Note_on_c, 7, 52, 90
9, 49559, Note_on_c, 7, 52, 0
9, 49560, Note_on_c, 7, 45, 90
9, 49679, Note_on_c, 7, 45, 0
9, 49680, Note_on_c, 7, 45, 90
9, 49799, Note_on_c, 7, 45, 0
9, 49800, Note_on_c, 7, 45, 90
9, 49919, Note_on_c, 7, 45, 0
9, 49920, Note_on_c, 7, 45, 90
9, 50039, Note_on_c, 7, 45, 0
9, 50040, Note_on_c, 7, 45, 90
9, 50159, Note_on_c, 7, 45, 0
9, 50160, Note_on_c, 7, 45, 90
9, 50279, Note_on_c, 7, 45, 0
9, 50280, Note_on_c, 7, 45, 90
9, 50399, Note_on_c, 7, 45, 0
9, 50400, Note_on_c, 7, 45, 90
9, 50519, Note_on_c, 7, 45, 0
9, 50520, Note_on_c, 7, 45, 90
9, 50639, Note_on_c, 7, 45, 0
9, 50640, Note_on_c, 7, 45, 90
9, 50699, Note_on_c, 7, 45, 0
9, 50700, Note_on_c, 7, 44, 90
9, 50759, Note_on_c, 7, 44, 0
9, 50760, Note_on_c, 7, 42, 90
9, 50819, Note_on_c, 7, 42, 0
9, 50820, Note_on_c, 7, 40, 90
9, 50879, Note_on_c, 7, 40, 0
9, 50880, Note_on_c, 7, 38, 90
9, 50939, Note_on_c, 7, 38, 0
9, 50940, Note_on_c, 7, 42, 90
9, 50999, Note_on_c, 7, 42, 0
9, 51000, Note_on_c, 7, 40, 90
9, 51119, Note_on_c, 7, 40, 0
9, 51120, Note_on_c, 7, 45, 90
9, 51239, Note_on_c, 7, 45, 0
9, 51240, Note_on_c, 7, 49, 90
9, 51299, Note_on_c, 7, 49, 0
9, 51300, Note_on_c, 7, 52, 90
9, 51359, Note_on_c, 7, 52, 0
9, 51360, Note_on_c, 7, 57, 90
9, 51419, Note_on_c, 7, 57, 0
9, 51420, Note_on_c, 7, 59, 90
9, 51479, Note_on_c, 7, 59, 0
9, 51480, Note_on_c, 7, 61, 90
9, 51539, Note_on_c, 7, 61, 0
9, 51540, Note_on_c, 7, 62, 90
9, 51599, Note_on_c, 7, 62, 0
9, 51600, Note_on_c, 7, 61, 90
9, 51659, Note_on_c, 7, 61, 0
9, 51660, Note_on_c, 7, 59, 90
9, 51719, Note_on_c, 7, 59, 0
9, 51720, Note_on_c, 7, 58, 90
9, 51779, Note_on_c, 7, 58, 0
9, 51780, Note_on_c, 7, 54, 90
9, 51839, Note_on_c, 7, 54, 0
9, 51840, Note_on_c, 7, 59, 90
9, 51899, Note_on_c, 7, 59, 0
9, 51900, Note_on_c, 7, 54, 90
9, 51959, Note_on_c, 7, 54, 0
9, 51960, Note_on_c, 7, 47, 90
9, 52019, Note_on_c, 7, 47, 0
9, 52020, Note_on_c, 7, 49, 90
9, 52079, Note_on_c, 7, 49, 0
9, 52080, Note_on_c, 7, 50, 90
9, 52139, Note_on_c, 7, 50, 0
9, 52140, Note_on_c, 7, 49, 90
9, 52199, Note_on_c, 7, 49, 0
9, 52200, Note_on_c, 7, 47, 90
9, 52259, Note_on_c, 7, 47, 0
9, 52260, Note_on_c, 7, 49, 90
9, 52319, Note_on_c, 7, 49, 0
9, 52320, Note_on_c, 7, 47, 90
9, 52379, Note_on_c, 7, 47, 0
9, 52380, Note_on_c, 7, 45, 90
9, 52439, Note_on_c, 7, 45, 0
9, 52440, Note_on_c, 7, 44, 90
9, 52499, Note_on_c, 7, 44, 0
9, 52500, Note_on_c, 7, 40, 90
9, 52559, Note_on_c, 7, 40, 0
9, 52560, Note_on_c, 7, 45, 90
9, 52619, Note_on_c, 7, 45, 0
9, 52620, Note_on_c, 7, 52, 90
9, 52679, Note_on_c, 7, 52, 0
9, 52680, Note_on_c, 7, 57, 90
9, 52739, Note_on_c, 7, 57, 0
9, 52740, Note_on_c, 7, 56, 90
9, 52799, Note_on_c, 7, 56, 0
9, 52800, Note_on_c, 7, 57, 90
9, 52859, Note_on_c, 7, 57, 0
9, 52860, Note_on_c, 7, 59, 90
9, 52919, Note_on_c, 7, 59, 0
9, 52920, Note_on_c, 7, 61, 90
9, 52979, Note_on_c, 7, 61, 0
9, 52980, Note_on_c, 7, 62, 90
9, 53039, Note_on_c, 7, 62, 0
9, 53040, Note_on_c, 7, 64, 90
9, 53099, Note_on_c, 7, 64, 0
9, 53100, Note_on_c, 7, 62, 90
9, 53159, Note_on_c, 7, 62, 0
9, 53160, Note_on_c, 7, 61, 90
9, 53219, Note_on_c, 7, 61, 0
9, 53220, Note_on_c, 7, 57, 90
9, 53279, Note_on_c, 7, 57, 0
9, 53280, Note_on_c, 7, 52, 90
9, 53339, Note_on_c, 7, 52, 0
9, 53340, Note_on_c, 7, 54, 90
9, 53399, Note_on_c, 7, 54, 0
9, 53400, Note_on_c, 7, 56, 90
9, 53459, Note_on_c, 7, 56, 0
9, 53460, Note_on_c, 7, 52, 90
9, 53519, Note_on_c, 7, 52, 0
9, 53520, Note_on_c, 7, 57, 90
9, 53579, Note_on_c, 7, 57, 0
9, 53580, Note_on_c, 7, 56, 90
9, 53639, Note_on_c, 7, 56, 0
9, 53640, Note_on_c, 7, 54, 90
9, 53699, Note_on_c, 7, 54, 0
9, 53700, Note_on_c, 7, 52, 90
9, 53759, Note_on_c, 7, 52, 0
9, 53760, Note_on_c, 7, 50, 90
9, 53819, Note_on_c, 7, 50, 0
9, 53820, Note_on_c, 7, 54, 90
9, 53879, Note_on_c, 7, 54, 0
9, 53880, Note_on_c, 7, 52, 90
9, 53939, Note_on_c, 7, 52, 0
9, 53940, Note_on_c, 7, 40, 90
9, 53999, Note_on_c, 7, 40, 0
9, 54000, Note_on_c, 7, 45, 90
9, 54059, Note_on_c, 7, 45, 0
9, 54060, Note_on_c, 7, 47, 90
9, 54089, Note_on_c, 7, 47, 0
9, 54090, Note_on_c, 7, 49, 90
9, 54119, Note_on_c, 7, 49, 0
9, 54120, Note_on_c, 7, 50, 90
9, 54149, Note_on_c, 7, 50, 0
9, 54150, Note_on_c, 7, 52, 90
9, 54179, Note_on_c, 7, 52, 0
9, 54180, Note_on_c, 7, 54, 90
9, 54209, Note_on_c, 7, 54, 0
9, 54210, Note_on_c, 7, 56, 90
9, 54239, Note_on_c, 7, 56, 0
9, 54240, Note_on_c, 7, 57, 90
9, 54299, Note_on_c, 7, 57, 0
9, 54300, Note_on_c, 7, 45, 90
9, 54359, Note_on_c, 7, 45, 0
9, 54360, Note_on_c, 7, 45, 90
9, 54419, Note_on_c, 7, 45, 0
9, 54420, Note_on_c, 7, 45, 90
9, 54479, Note_on_c, 7, 45, 0
9, 54480, Note_on_c, 7, 43, 90
9, 54539, Note_on_c, 7, 43, 0
9, 54540, Note_on_c, 7, 43, 90
9, 54599, Note_on_c, 7, 43, 0
9, 54600, Note_on_c, 7, 42, 90
9, 54659, Note_on_c, 7, 42, 0
9, 54660, Note_on_c, 7, 42, 90
9, 54719, Note_on_c, 7, 42, 0
9, 54720, Note_on_c, 7, 47, 90
9, 54870, Note_on_c, 7, 47, 0
9, 54870, Note_on_c, 7, 49, 90
9, 54899, Note_on_c, 7, 49, 0
9, 54900, Note_on_c, 7, 47, 90
9, 54929, Note_on_c, 7, 47, 0
9, 54930, Note_on_c, 7, 45, 90
9, 54959, Note_on_c, 7, 45, 0
9, 54960, Note_on_c, 7, 44, 90
9, 54989, Note_on_c, 7, 44, 0
9, 54990, Note_on_c, 7, 45, 90
9, 55019, Note_on_c, 7, 45, 0
9, 55020, Note_on_c, 7, 44, 90
9, 55049, Note_on_c, 7, 44, 0
9, 55050, Note_on_c, 7, 42, 90
9, 55079, Note_on_c, 7, 42, 0
9, 55080, Note_on_c, 7, 40, 90
9, 55139, Note_on_c, 7, 40, 0
9, 55140, Note_on_c, 7, 40, 90
9, 55199, Note_on_c, 7, 40, 0
9, 55200, Note_on_c, 7, 40, 90
9, 55259, Note_on_c, 7, 40, 0
9, 55260, Note_on_c, 7, 40, 90
9, 55319, Note_on_c, 7, 40, 0
9, 55320, Note_on_c, 7, 40, 90
9, 55379, Note_on_c, 7, 40, 0
9, 55380, Note_on_c, 7, 40, 90
9, 55439, Note_on_c, 7, 40, 0
9, 55440, Note_on_c, 7, 45, 90
9, 55559, Note_on_c, 7, 45, 0
9, 55590, Note_on_c, 7, 47, 90
9, 55619, Note_on_c, 7, 47, 0
9, 55620, Note_on_c, 7, 49, 90
9, 55649, Note_on_c, 7, 49, 0
9, 55650, Note_on_c, 7, 50, 90
9, 55679, Note_on_c, 7, 50, 0
9, 55680, Note_on_c, 7, 52, 90
9, 55739, Note_on_c, 7, 52, 0
9, 55740, Note_on_c, 7, 50, 90
9, 55799, Note_on_c, 7, 50, 0
9, 55800, Note_on_c, 7, 49, 90
9, 55859, Note_on_c, 7, 49, 0
9, 55860, Note_on_c, 7, 52, 90
9, 55919, Note_on_c, 7, 52, 0
9, 55920, Note_on_c, 7, 47, 90
9, 55979, Note_on_c, 7, 47, 0
9, 55980, Note_on_c, 7, 52, 90
9, 56039, Note_on_c, 7, 52, 0
9, 56040, Note_on_c, 7, 49, 90
9, 56099, Note_on_c, 7, 49, 0
9, 56100, Note_on_c, 7, 52, 90
9, 56159, Note_on_c, 7, 52, 0
9, 56160, Note_on_c, 7, 44, 90
9, 56219, Note_on_c, 7, 44, 0
9, 56220, Note_on_c, 7, 52, 90
9, 56279, Note_on_c, 7, 52, 0
9, 56280, Note_on_c, 7, 40, 90
9, 56339, Note_on_c, 7, 40, 0
9, 56340, Note_on_c, 7, 52, 90
9, 56399, Note_on_c, 7, 52, 0
9, 56400, Note_on_c, 7, 45, 90
9, 56459, Note_on_c, 7, 45, 0
9, 56460, Note_on_c, 7, 44, 90
9, 56519, Note_on_c, 7, 44, 0
9, 56520, Note_on_c, 7, 42, 90
9, 56579, Note_on_c, 7, 42, 0
9, 56580, Note_on_c, 7, 40, 90
9, 56639, Note_on_c, 7, 40, 0
9, 56640, Note_on_c, 7, 38, 90
9, 56699, Note_on_c, 7, 38, 0
9, 56700, Note_on_c, 7, 42, 90
9, 56759, Note_on_c, 7, 42, 0
9, 56760, Note_on_c, 7, 40, 90
9, 56819, Note_on_c, 7, 40, 0
9, 56820, Note_on_c, 7, 52, 90
9, 56879, Note_on_c, 7, 52, 0
9, 56880, Note_on_c, 7, 57, 90
9, 56939, Note_on_c, 7, 57, 0
9, 56940, Note_on_c, 7, 56, 90
9, 56999, Note_on_c, 7, 56, 0
9, 57000, Note_on_c, 7, 57, 90
9, 57059, Note_on_c, 7, 57, 0
9, 57060, Note_on_c, 7, 59, 90
9, 57119, Note_on_c, 7, 59, 0
9, 57120, Note_on_c, 7, 61, 90
9, 57209, Note_on_c, 7, 61, 0
9, 57210, Note_on_c, 7, 59, 90
9, 57239, Note_on_c, 7, 59, 0
9, 57240, Note_on_c, 7, 57, 90
9, 57359, Note_on_c, 7, 57, 0
9, 57360, Note_on_c, 7, 56, 90
9, 57479, Note_on_c, 7, 56, 0
9, 57480, Note_on_c, 7, 57, 90
9, 57539, Note_on_c, 7, 57, 0
9, 57540, Note_on_c, 7, 61, 90
9, 57599, Note_on_c, 7, 61, 0
9, 57600, Note_on_c, 7, 59, 90
9, 57839, Note_on_c, 7, 59, 0
9, 57840, Note_on_c, 7, 61, 90
9, 57899, Note_on_c, 7, 61, 0
9, 57900, Note_on_c, 7, 59, 90
9, 57929, Note_on_c, 7, 59, 0
9, 57930, Note_on_c, 7, 61, 90
9, 57959, Note_on_c, 7, 61, 0
9, 57960, Note_on_c, 7, 62, 90
9, 58019, Note_on_c, 7, 62, 0
9, 58020, Note_on_c, 7, 61, 90
9, 58079, Note_on_c, 7, 61, 0
9, 58080, Note_on_c, 7, 59, 90
9, 58139, Note_on_c, 7, 59, 0
9, 58140, Note_on_c, 7, 57, 90
9, 58199, Note_on_c, 7, 57, 0
9, 58200, Note_on_c, 7, 64, 90
9, 58259, Note_on_c, 7, 64, 0
9, 58260, Note_on_c, 7, 52, 90
9, 58319, Note_on_c, 7, 52, 0
9, 58320, Note_on_c, 7, 57, 90
9, 58439, Note_on_c, 7, 57, 0
9, 58440, Note_on_c, 7, 45, 90
9, 58559, Note_on_c, 7, 45, 0
9, 58680, Note_on_c, 7, 42, 90
9, 59400, Note_on_c, 7, 42, 0
9, 59400, Note_on_c, 7, 39, 90
9, 59880, Note_on_c, 7, 39, 0
9, 59880, Note_on_c, 7, 40, 90
9, 60000, Note_on_c, 7, 40, 0
9, 60000, Note_on_c, 7, 50, 90
9, 60120, Note_on_c, 7, 50, 0
9, 60120, Note_on_c, 7, 49, 90
9, 60150, Note_on_c, 7, 49, 0
9, 60150, Note_on_c, 7, 45, 90
9, 60180, Note_on_c, 7, 45, 0
9, 60180, Note_on_c, 7, 49, 90
9, 60210, Note_on_c, 7, 49, 0
9, 60210, Note_on_c, 7, 52, 90
9, 60240, Note_on_c, 7, 52, 0
9, 60240, Note_on_c, 7, 57, 90
9, 60300, Note_on_c, 7, 57, 0
9, 60480, Note_on_c, 7, 45, 90
9, 60600, Note_on_c, 7, 45, 0
9, 60600, Note_on_c, 7, 50, 90
9, 60840, Note_on_c, 7, 50, 0
9, 60840, Note_on_c, 7, 42, 90
9, 61080, Note_on_c, 7, 42, 0
9, 61080, Note_on_c, 7, 43, 90
9, 61200, Note_on_c, 7, 43, 0
9, 61200, Note_on_c, 7, 47, 90
9, 61320, Note_on_c, 7, 47, 0
9, 61440, Note_on_c, 7, 45, 90
9, 61560, Note_on_c, 7, 45, 0
9, 61560, Note_on_c, 7, 38, 90
9, 62040, Note_on_c, 7, 38, 0
9, 62160, Note_on_c, 7, 50, 90
9, 62219, Note_on_c, 7, 50, 0
9, 62220, Note_on_c, 7, 52, 90
9, 62279, Note_on_c, 7, 52, 0
9, 62280, Note_on_c, 7, 54, 90
9, 62339, Note_on_c, 7, 54, 0
9, 62340, Note_on_c, 7, 55, 90
9, 62399, Note_on_c, 7, 55, 0
9, 62400, Note_on_c, 7, 52, 90
9, 62459, Note_on_c, 7, 52, 0
9, 62460, Note_on_c, 7, 50, 90
9, 62519, Note_on_c, 7, 50, 0
9, 62520, Note_on_c, 7, 57, 90
9, 62579, Note_on_c, 7, 57, 0
9, 62580, Note_on_c, 7, 59, 90
9, 62639, Note_on_c, 7, 59, 0
9, 62640, Note_on_c, 7, 61, 90
9, 62699, Note_on_c, 7, 61, 0
9, 62700, Note_on_c, 7, 62, 90
9, 62759, Note_on_c, 7, 62, 0
9, 62760, Note_on_c, 7, 61, 90
9, 62819, Note_on_c, 7, 61, 0
9, 62820, Note_on_c, 7, 59, 90
9, 62879, Note_on_c, 7, 59, 0
9, 62880, Note_on_c, 7, 57, 90
9, 62939, Note_on_c, 7, 57, 0
9, 62940, Note_on_c, 7, 56, 90
9, 62999, Note_on_c, 7, 56, 0
9, 63000, Note_on_c, 7, 57, 90
9, 63059, Note_on_c, 7, 57, 0
9, 63060, Note_on_c, 7, 49, 90
9, 63089, Note_on_c, 7, 49, 0
9, 63090, Note_on_c, 7, 50, 90
9, 63119, Note_on_c, 7, 50, 0
9, 63120, Note_on_c, 7, 52, 90
9, 63179, Note_on_c, 7, 52, 0
9, 63180, Note_on_c, 7, 40, 90
9, 63239, Note_on_c, 7, 40, 0
9, 63240, Note_on_c, 7, 45, 90
9, 63299, Note_on_c, 7, 45, 0
9, 63300, Note_on_c, 7, 47, 90
9, 63359, Note_on_c, 7, 47, 0
9, 63360, Note_on_c, 7, 49, 90
9, 63419, Note_on_c, 7, 49, 0
9, 63420, Note_on_c, 7, 45, 90
9, 63479, Note_on_c, 7, 45, 0
9, 63480, Note_on_c, 7, 50, 90
9, 63539, Note_on_c, 7, 50, 0
9, 63540, Note_on_c, 7, 49, 90
9, 63599, Note_on_c, 7, 49, 0
9, 63600, Note_on_c, 7, 50, 90
9, 63719, Note_on_c, 7, 50, 0
9, 63780, Note_on_c, 7, 47, 90
9, 63839, Note_on_c, 7, 47, 0
9, 63840, Note_on_c, 7, 49, 90
9, 63899, Note_on_c, 7, 49, 0
9, 63900, Note_on_c, 7, 50, 90
9, 63959, Note_on_c, 7, 50, 0
9, 63960, Note_on_c, 7, 47, 90
9, 64079, Note_on_c, 7, 47, 0
9, 64140, Note_on_c, 7, 47, 90
9, 64199, Note_on_c, 7, 47, 0
9, 64200, Note_on_c, 7, 49, 90
9, 64259, Note_on_c, 7, 49, 0
9, 64260, Note_on_c, 7, 50, 90
9, 64289, Note_on_c, 7, 50, 0
9, 64290, Note_on_c, 7, 52, 90
9, 64319, Note_on_c, 7, 52, 0
9, 64320, Note_on_c, 7, 54, 90
9, 64439, Note_on_c, 7, 54, 0
9, 64500, Note_on_c, 7, 52, 90
9, 64529, Note_on_c, 7, 52, 0
9, 64530, Note_on_c, 7, 50, 90
9, 64559, Note_on_c, 7, 50, 0
9, 64560, Note_on_c, 7, 52, 90
9, 64619, Note_on_c, 7, 52, 0
9, 64620, Note_on_c, 7, 40, 90
9, 64679, Note_on_c, 7, 40, 0
9, 64680, Note_on_c, 7, 45, 90
9, 64739, Note_on_c, 7, 45, 0
9, 64740, Note_on_c, 7, 47, 90
9, 64799, Note_on_c, 7, 47, 0
9, 64800, Note_on_c, 7, 49, 90
9, 64859, Note_on_c, 7, 49, 0
9, 64860, Note_on_c, 7, 45, 90
9, 64919, Note_on_c, 7, 45, 0
9, 64920, Note_on_c, 7, 51, 90
9, 65039, Note_on_c, 7, 51, 0
9, 65100, Note_on_c, 7, 47, 90
9, 65159, Note_on_c, 7, 47, 0
9, 65160, Note_on_c, 7, 52, 90
9, 65219, Note_on_c, 7, 52, 0
9, 65220, Note_on_c, 7, 50, 90
9, 65279, Note_on_c, 7, 50, 0
9, 65280, Note_on_c, 7, 49, 90
9, 65399, Note_on_c, 7, 49, 0
9, 65460, Note_on_c, 7, 45, 90
9, 65519, Note_on_c, 7, 45, 0
9, 65520, Note_on_c, 7, 57, 90
9, 65579, Note_on_c, 7, 57, 0
9, 65580, Note_on_c, 7, 55, 90
9, 65639, Note_on_c, 7, 55, 0
9, 65640, Note_on_c, 7, 54, 90
9, 65699, Note_on_c, 7, 54, 0
9, 65700, Note_on_c, 7, 55, 90
9, 65759, Note_on_c, 7, 55, 0
9, 65760, Note_on_c, 7, 57, 90
9, 65819, Note_on_c, 7, 57, 0
9, 65820, Note_on_c, 7, 55, 90
9, 65879, Note_on_c, 7, 55, 0
9, 65880, Note_on_c, 7, 54, 90
9, 65939, Note_on_c, 7, 54, 0
9, 65940, Note_on_c, 7, 52, 90
9, 65999, Note_on_c, 7, 52, 0
9, 66000, Note_on_c, 7, 50, 90
9, 66059, Note_on_c, 7, 50, 0
9, 66060, Note_on_c, 7, 52, 90
9, 66119, Note_on_c, 7, 52, 0
9, 66120, Note_on_c, 7, 54, 90
9, 66179, Note_on_c, 7, 54, 0
9, 66180, Note_on_c, 7, 52, 90
9, 66209, Note_on_c, 7, 52, 0
9, 66210, Note_on_c, 7, 54, 90
9, 66239, Note_on_c, 7, 54, 0
9, 66240, Note_on_c, 7, 55, 90
9, 66299, Note_on_c, 7, 55, 0
9, 66300, Note_on_c, 7, 54, 90
9, 66359, Note_on_c, 7, 54, 0
9, 66360, Note_on_c, 7, 52, 90
9, 66479, Note_on_c, 7, 52, 0
9, 66540, Note_on_c, 7, 54, 90
9, 66569, Note_on_c, 7, 54, 0
9, 66570, Note_on_c, 7, 55, 90
9, 66599, Note_on_c, 7, 55, 0
9, 66600, Note_on_c, 7, 57, 90
9, 66659, Note_on_c, 7, 57, 0
9, 66660, Note_on_c, 7, 55, 90
9, 66719, Note_on_c, 7, 55, 0
9, 66720, Note_on_c, 7, 54, 90
9, 66779, Note_on_c, 7, 54, 0
9, 66780, Note_on_c, 7, 52, 90
9, 66839, Note_on_c, 7, 52, 0
9, 66840, Note_on_c, 7, 50, 90
9, 66959, Note_on_c, 7, 50, 0
9, 66960, Note_on_c, 7, 50, 90
9, 67079, Note_on_c, 7, 50, 0
9, 67080, Note_on_c, 7, 50, 90
9, 67259, Note_on_c, 7, 50, 0
9, 67260, Note_on_c, 7, 49, 90
9, 67289, Note_on_c, 7, 49, 0
9, 67290, Note_on_c, 7, 47, 90
9, 67319, Note_on_c, 7, 47, 0
9, 67320, Note_on_c, 7, 49, 90
9, 67379, Note_on_c, 7, 49, 0
9, 67380, Note_on_c, 7, 45, 90
9, 67439, Note_on_c, 7, 45, 0
9, 67440, Note_on_c, 7, 50, 90
9, 67499, Note_on_c, 7, 50, 0
9, 67500, Note_on_c, 7, 45, 90
9, 67559, Note_on_c, 7, 45, 0
9, 67560, Note_on_c, 7, 42, 90
9, 67619, Note_on_c, 7, 42, 0
9, 67620, Note_on_c, 7, 45, 90
9, 67679, Note_on_c, 7, 45, 0
9, 67680, Note_on_c, 7, 38, 90
9, 67739, Note_on_c, 7, 38, 0
9, 67740, Note_on_c, 7, 40, 90
9, 67769, Note_on_c, 7, 40, 0
9, 67770, Note_on_c, 7, 42, 90
9, 67799, Note_on_c, 7, 42, 0
9, 67800, Note_on_c, 7, 43, 90
9, 67919, Note_on_c, 7, 43, 0
9, 67980, Note_on_c, 7, 42, 90
9, 68039, Note_on_c, 7, 42, 0
9, 68040, Note_on_c, 7, 40, 90
9, 68099, Note_on_c, 7, 40, 0
9, 68100, Note_on_c, 7, 42, 90
9, 68129, Note_on_c, 7, 42, 0
9, 68130, Note_on_c, 7, 43, 90
9, 68159, Note_on_c, 7, 43, 0
9, 68160, Note_on_c, 7, 45, 90
9, 68279, Note_on_c, 7, 45, 0
9, 68340, Note_on_c, 7, 47, 90
9, 68399, Note_on_c, 7, 47, 0
9, 68400, Note_on_c, 7, 49, 90
9, 68459, Note_on_c, 7, 49, 0
9, 68460, Note_on_c, 7, 50, 90
9, 68489, Note_on_c, 7, 50, 0
9, 68490, Note_on_c, 7, 52, 90
9, 68519, Note_on_c, 7, 52, 0
9, 68520, Note_on_c, 7, 54, 90
9, 68579, Note_on_c, 7, 54, 0
9, 68580, Note_on_c, 7, 52, 90
9, 68639, Note_on_c, 7, 52, 0
9, 68640, Note_on_c, 7, 50, 90
9, 68699, Note_on_c, 7, 50, 0
9, 68700, Note_on_c, 7, 52, 90
9, 68759, Note_on_c, 7, 52, 0
9, 68760, Note_on_c, 7, 54, 90
9, 68819, Note_on_c, 7, 54, 0
9, 68820, Note_on_c, 7, 55, 90
9, 68879, Note_on_c, 7, 55, 0
9, 68880, Note_on_c, 7, 57, 90
9, 68999, Note_on_c, 7, 57, 0
9, 69000, Note_on_c, 7, 45, 90
9, 69119, Note_on_c, 7, 45, 0
9, 69180, Note_on_c, 7, 45, 90
9, 69239, Note_on_c, 7, 45, 0
9, 69240, Note_on_c, 7, 50, 90
9, 69299, Note_on_c, 7, 50, 0
9, 69300, Note_on_c, 7, 52, 90
9, 69359, Note_on_c, 7, 52, 0
9, 69360, Note_on_c, 7, 54, 90
9, 69479, Note_on_c, 7, 54, 0
9, 69540, Note_on_c, 7, 50, 90
9, 69599, Note_on_c, 7, 50, 0
9, 69600, Note_on_c, 7, 55, 90
9, 69659, Note_on_c, 7, 55, 0
9, 69660, Note_on_c, 7, 54, 90
9, 69719, Note_on_c, 7, 54, 0
9, 69720, Note_on_c, 7, 55, 90
9, 69839, Note_on_c, 7, 55, 0
9, 69900, Note_on_c, 7, 59, 90
9, 69959, Note_on_c, 7, 59, 0
9, 69960, Note_on_c, 7, 52, 90
9, 70079, Note_on_c, 7, 52, 0
9, 70200, Note_on_c, 7, 47, 90
9, 70319, Note_on_c, 7, 47, 0
9, 70320, Note_on_c, 7, 52, 90
9, 70379, Note_on_c, 7, 52, 0
9, 70380, Note_on_c, 7, 54, 90
9, 70439, Note_on_c, 7, 54, 0
9, 70440, Note_on_c, 7, 55, 90
9, 70499, Note_on_c, 7, 55, 0
9, 70500, Note_on_c, 7, 54, 90
9, 70529, Note_on_c, 7, 54, 0
9, 70530, Note_on_c, 7, 52, 90
9, 70559, Note_on_c, 7, 52, 0
9, 70560, Note_on_c, 7, 54, 90
9, 70619, Note_on_c, 7, 54, 0
9, 70620, Note_on_c, 7, 55, 90
9, 70679, Note_on_c, 7, 55, 0
9, 70680, Note_on_c, 7, 57, 90
9, 70799, Note_on_c, 7, 57, 0
9, 70800, Note_on_c, 7, 45, 90
9, 70919, Note_on_c, 7, 45, 0
9, 70920, Note_on_c, 7, 50, 90
9, 71039, Note_on_c, 7, 50, 0
9, 71040, Note_on_c, 7, 45, 90
9, 71099, Note_on_c, 7, 45, 0
9, 71100, Note_on_c, 7, 47, 90
9, 71159, Note_on_c, 7, 47, 0
9, 71160, Note_on_c, 7, 49, 90
9, 71219, Note_on_c, 7, 49, 0
9, 71220, Note_on_c, 7, 50, 90
9, 71279, Note_on_c, 7, 50, 0
9, 71280, Note_on_c, 7, 52, 90
9, 71339, Note_on_c, 7, 52, 0
9, 71340, Note_on_c, 7, 49, 90
9, 71399, Note_on_c, 7, 49, 0
9, 71400, Note_on_c, 7, 50, 90
9, 71459, Note_on_c, 7, 50, 0
9, 71460, Note_on_c, 7, 49, 90
9, 71519, Note_on_c, 7, 49, 0
9, 71520, Note_on_c, 7, 47, 90
9, 71639, Note_on_c, 7, 47, 0
9, 71640, Note_on_c, 7, 42, 90
9, 71759, Note_on_c, 7, 42, 0
9, 71760, Note_on_c, 7, 43, 90
9, 71879, Note_on_c, 7, 43, 0
9, 71880, Note_on_c, 7, 45, 90
9, 71939, Note_on_c, 7, 45, 0
9, 71940, Note_on_c, 7, 43, 90
9, 71999, Note_on_c, 7, 43, 0
9, 72000, Note_on_c, 7, 45, 90
9, 72119, Note_on_c, 7, 45, 0
9, 72120, Note_on_c, 7, 38, 90
9, 72238, Note_on_c, 7, 38, 0
9, 72240, Note_on_c, 7, 42, 90
9, 72358, Note_on_c, 7, 42, 0
9, 72360, Note_on_c, 7, 38, 90
9, 72478, Note_on_c, 7, 38, 0
9, 72480, Note_on_c, 7, 43, 90
9, 72598, Note_on_c, 7, 43, 0
9, 72720, Note_on_c, 7, 47, 90
9, 72838, Note_on_c, 7, 47, 0
9, 72840, Note_on_c, 7, 40, 90
9, 72899, Note_on_c, 7, 40, 0
9, 72900, Note_on_c, 7, 47, 90
9, 72959, Note_on_c, 7, 47, 0
9, 72960, Note_on_c, 7, 52, 90
9, 73019, Note_on_c, 7, 52, 0
9, 73020, Note_on_c, 7, 50, 90
9, 73079, Note_on_c, 7, 50, 0
9, 73080, Note_on_c, 7, 49, 90
9, 73139, Note_on_c, 7, 49, 0
9, 73140, Note_on_c, 7, 47, 90
9, 73199, Note_on_c, 7, 47, 0
9, 73200, Note_on_c, 7, 45, 90
9, 73379, Note_on_c, 7, 45, 0
9, 73380, Note_on_c, 7, 47, 90
9, 73439, Note_on_c, 7, 47, 0
9, 73440, Note_on_c, 7, 49, 90
9, 73499, Note_on_c, 7, 49, 0
9, 73500, Note_on_c, 7, 45, 90
9, 73559, Note_on_c, 7, 45, 0
9, 73560, Note_on_c, 7, 50, 90
9, 73619, Note_on_c, 7, 50, 0
9, 73620, Note_on_c, 7, 52, 90
9, 73679, Note_on_c, 7, 52, 0
9, 73680, Note_on_c, 7, 54, 90
9, 73739, Note_on_c, 7, 54, 0
9, 73740, Note_on_c, 7, 55, 90
9, 73799, Note_on_c, 7, 55, 0
9, 73800, Note_on_c, 7, 57, 90
9, 73859, Note_on_c, 7, 57, 0
9, 73860, Note_on_c, 7, 59, 90
9, 73919, Note_on_c, 7, 59, 0
9, 73920, Note_on_c, 7, 55, 90
9, 73979, Note_on_c, 7, 55, 0
9, 73980, Note_on_c, 7, 54, 90
9, 74009, Note_on_c, 7, 54, 0
9, 74010, Note_on_c, 7, 55, 90
9, 74039, Note_on_c, 7, 55, 0
9, 74040, Note_on_c, 7, 57, 90
9, 74159, Note_on_c, 7, 57, 0
9, 74160, Note_on_c, 7, 45, 90
9, 74279, Note_on_c, 7, 45, 0
9, 74280, Note_on_c, 7, 50, 90
9, 74339, Note_on_c, 7, 50, 0
9, 74340, Note_on_c, 7, 45, 90
9, 74399, Note_on_c, 7, 45, 0
9, 74400, Note_on_c, 7, 38, 90
9, 74639, Note_on_c, 7, 38, 0
9, 74760, Note_on_c, 7, 44, 90
9, 75480, Note_on_c, 7, 44, 0
9, 75480, Note_on_c, 7, 45, 90
9, 75960, Note_on_c, 7, 45, 0
9, 75960, Note_on_c, 7, 46, 90
9, 76440, Note_on_c, 7, 46, 0
9, 76440, Note_on_c, 7, 52, 90
9, 76680, Note_on_c, 7, 52, 0
9, 76680, Note_on_c, 7, 50, 90
9, 76800, Note_on_c, 7, 50, 0
9, 76800, Note_on_c, 7, 43, 90
9, 76920, Note_on_c, 7, 43, 0
9, 77040, Note_on_c, 7, 42, 90
9, 77160, Note_on_c, 7, 42, 0
9, 77160, Note_on_c, 7, 47, 90
9, 77520, Note_on_c, 7, 47, 0
9, 77640, Note_on_c, 7, 47, 90
9, 77759, Note_on_c, 7, 47, 0
9, 77760, Note_on_c, 7, 50, 90
9, 77879, Note_on_c, 7, 50, 0
9, 77880, Note_on_c, 7, 47, 90
9, 77999, Note_on_c, 7, 47, 0
9, 78000, Note_on_c, 7, 54, 90
9, 78119, Note_on_c, 7, 54, 0
9, 78120, Note_on_c, 7, 42, 90
9, 78239, Note_on_c, 7, 42, 0
9, 78240, Note_on_c, 7, 52, 90
9, 78359, Note_on_c, 7, 52, 0
9, 78360, Note_on_c, 7, 50, 90
9, 78479, Note_on_c, 7, 50, 0
9, 78480, Note_on_c, 7, 47, 90
9, 78599, Note_on_c, 7, 47, 0
9, 78600, Note_on_c, 7, 52, 90
9, 78719, Note_on_c, 7, 52, 0
9, 78720, Note_on_c, 7, 45, 90
9, 78839, Note_on_c, 7, 45, 0
9, 78840, Note_on_c, 7, 57, 90
9, 78959, Note_on_c, 7, 57, 0
9, 78960, Note_on_c, 7, 55, 90
9, 79079, Note_on_c, 7, 55, 0
9, 79080, Note_on_c, 7, 54, 90
9, 79199, Note_on_c, 7, 54, 0
9, 79200, Note_on_c, 7, 56, 90
9, 79319, Note_on_c, 7, 56, 0
9, 79320, Note_on_c, 7, 52, 90
9, 79439, Note_on_c, 7, 52, 0
9, 79440, Note_on_c, 7, 57, 90
9, 79559, Note_on_c, 7, 57, 0
9, 79560, Note_on_c, 7, 58, 90
9, 79679, Note_on_c, 7, 58, 0
9, 79680, Note_on_c, 7, 54, 90
9, 79799, Note_on_c, 7, 54, 0
9, 79800, Note_on_c, 7, 59, 90
9, 79919, Note_on_c, 7, 59, 0
9, 79920, Note_on_c, 7, 55, 90
9, 80159, Note_on_c, 7, 55, 0
9, 80160, Note_on_c, 7, 54, 90
9, 80219, Note_on_c, 7, 54, 0
9, 80220, Note_on_c, 7, 55, 90
9, 80279, Note_on_c, 7, 55, 0
9, 80280, Note_on_c, 7, 54, 90
9, 80339, Note_on_c, 7, 54, 0
9, 80340, Note_on_c, 7, 52, 90
9, 80399, Note_on_c, 7, 52, 0
9, 80400, Note_on_c, 7, 50, 90
9, 80459, Note_on_c, 7, 50, 0
9, 80460, Note_on_c, 7, 49, 90
9, 80519, Note_on_c, 7, 49, 0
9, 80520, Note_on_c, 7, 47, 90
9, 80639, Note_on_c, 7, 47, 0
9, 80640, Note_on_c, 7, 49, 90
9, 80759, Note_on_c, 7, 49, 0
9, 80760, Note_on_c, 7, 50, 90
9, 80879, Note_on_c, 7, 50, 0
9, 80880, Note_on_c, 7, 52, 90
9, 80999, Note_on_c, 7, 52, 0
9, 81000, Note_on_c, 7, 49, 90
9, 81119, Note_on_c, 7, 49, 0
9, 81120, Note_on_c, 7, 54, 90
9, 81239, Note_on_c, 7, 54, 0
9, 81240, Note_on_c, 7, 47, 90
9, 81359, Note_on_c, 7, 47, 0
9, 81360, Note_on_c, 7, 50, 90
9, 81479, Note_on_c, 7, 50, 0
9, 81480, Note_on_c, 7, 54, 90
9, 81599, Note_on_c, 7, 54, 0
9, 81600, Note_on_c, 7, 59, 90
9, 81719, Note_on_c, 7, 59, 0
9, 81720, Note_on_c, 7, 57, 90
9, 81839, Note_on_c, 7, 57, 0
9, 81840, Note_on_c, 7, 55, 90
9, 81959, Note_on_c, 7, 55, 0
9, 81960, Note_on_c, 7, 54, 90
9, 82199, Note_on_c, 7, 54, 0
9, 82200, Note_on_c, 7, 42, 90
9, 82319, Note_on_c, 7, 42, 0
9, 82320, Note_on_c, 7, 47, 90
9, 82439, Note_on_c, 7, 47, 0
9, 82440, Note_on_c, 7, 45, 90
9, 82559, Note_on_c, 7, 45, 0
9, 82560, Note_on_c, 7, 44, 90
9, 82679, Note_on_c, 7, 44, 0
9, 82680, Note_on_c, 7, 45, 90
9, 82799, Note_on_c, 7, 45, 0
9, 82800, Note_on_c, 7, 49, 90
9, 82919, Note_on_c, 7, 49, 0
9, 82920, Note_on_c, 7, 45, 90
9, 83039, Note_on_c, 7, 45, 0
9, 83040, Note_on_c, 7, 50, 90
9, 83159, Note_on_c, 7, 50, 0
9, 83160, Note_on_c, 7, 49, 90
9, 83279, Note_on_c, 7, 49, 0
9, 83280, Note_on_c, 7, 47, 90
9, 83399, Note_on_c, 7, 47, 0
9, 83400, Note_on_c, 7, 52, 90
9, 83519, Note_on_c, 7, 52, 0
9, 83520, Note_on_c, 7, 49, 90
9, 83639, Note_on_c, 7, 49, 0
9, 83640, Note_on_c, 7, 54, 90
9, 83759, Note_on_c, 7, 54, 0
9, 83760, Note_on_c, 7, 47, 90
9, 83879, Note_on_c, 7, 47, 0
9, 83880, Note_on_c, 7, 50, 90
9, 83999, Note_on_c, 7, 50, 0
9, 84000, Note_on_c, 7, 47, 90
9, 84119, Note_on_c, 7, 47, 0
9, 84120, Note_on_c, 7, 54, 90
9, 84239, Note_on_c, 7, 54, 0
9, 84240, Note_on_c, 7, 42, 90
9, 84359, Note_on_c, 7, 42, 0
9, 84480, Note_on_c, 7, 47, 90
9, 84599, Note_on_c, 7, 47, 0
9, 84600, Note_on_c, 7, 59, 90
9, 84719, Note_on_c, 7, 59, 0
9, 84720, Note_on_c, 7, 61, 90
9, 84839, Note_on_c, 7, 61, 0
9, 84840, Note_on_c, 7, 62, 90
9, 84959, Note_on_c, 7, 62, 0
9, 84960, Note_on_c, 7, 54, 90
9, 85079, Note_on_c, 7, 54, 0
9, 85080, Note_on_c, 7, 57, 90
9, 85199, Note_on_c, 7, 57, 0
9, 85200, Note_on_c, 7, 50, 90
9, 85259, Note_on_c, 7, 50, 0
9, 85260, Note_on_c, 7, 54, 90
9, 85319, Note_on_c, 7, 54, 0
9, 85320, Note_on_c, 7, 56, 90
9, 85379, Note_on_c, 7, 56, 0
9, 85380, Note_on_c, 7, 58, 90
9, 85439, Note_on_c, 7, 58, 0
9, 85440, Note_on_c, 7, 59, 90
9, 85499, Note_on_c, 7, 59, 0
9, 85500, Note_on_c, 7, 61, 90
9, 85559, Note_on_c, 7, 61, 0
9, 85560, Note_on_c, 7, 62, 90
9, 85619, Note_on_c, 7, 62, 0
9, 85620, Note_on_c, 7, 50, 90
9, 85679, Note_on_c, 7, 50, 0
9, 85680, Note_on_c, 7, 55, 90
9, 85709, Note_on_c, 7, 55, 0
9, 85710, Note_on_c, 7, 54, 90
9, 85739, Note_on_c, 7, 54, 0
9, 85740, Note_on_c, 7, 55, 90
9, 85829, Note_on_c, 7, 55, 0
9, 85830, Note_on_c, 7, 54, 90
9, 85859, Note_on_c, 7, 54, 0
9, 85860, Note_on_c, 7, 52, 90
9, 85889, Note_on_c, 7, 52, 0
9, 85890, Note_on_c, 7, 50, 90
9, 85919, Note_on_c, 7, 50, 0
9, 85920, Note_on_c, 7, 49, 90
9, 85979, Note_on_c, 7, 49, 0
9, 85980, Note_on_c, 7, 61, 90
9, 86039, Note_on_c, 7, 61, 0
9, 86040, Note_on_c, 7, 54, 90
9, 86069, Note_on_c, 7, 54, 0
9, 86070, Note_on_c, 7, 52, 90
9, 86099, Note_on_c, 7, 52, 0
9, 86100, Note_on_c, 7, 54, 90
9, 86189, Note_on_c, 7, 54, 0
9, 86190, Note_on_c, 7, 52, 90
9, 86219, Note_on_c, 7, 52, 0
9, 86220, Note_on_c, 7, 50, 90
9, 86249, Note_on_c, 7, 50, 0
9, 86250, Note_on_c, 7, 49, 90
9, 86279, Note_on_c, 7, 49, 0
9, 86280, Note_on_c, 7, 47, 90
9, 86339, Note_on_c, 7, 47, 0
9, 86340, Note_on_c, 7, 59, 90
9, 86369, Note_on_c, 7, 59, 0
9, 86370, Note_on_c, 7, 57, 90
9, 86399, Note_on_c, 7, 57, 0
9, 86400, Note_on_c, 7, 55, 90
9, 86459, Note_on_c, 7, 55, 0
9, 86460, Note_on_c, 7, 54, 90
9, 86519, Note_on_c, 7, 54, 0
9, 86520, Note_on_c, 7, 52, 90
9, 86699, Note_on_c, 7, 52, 0
9, 86700, Note_on_c, 7, 54, 90
9, 86729, Note_on_c, 7, 54, 0
9, 86730, Note_on_c, 7, 55, 90
9, 86759, Note_on_c, 7, 55, 0
9, 86760, Note_on_c, 7, 54, 90
9, 86819, Note_on_c, 7, 54, 0
9, 86820, Note_on_c, 7, 52, 90
9, 86879, Note_on_c, 7, 52, 0
9, 86880, Note_on_c, 7, 50, 90
9, 86939, Note_on_c, 7, 50, 0
9, 86940, Note_on_c, 7, 49, 90
9, 86999, Note_on_c, 7, 49, 0
9, 87000, Note_on_c, 7, 47, 90
9, 87179, Note_on_c, 7, 47, 0
9, 87180, Note_on_c, 7, 45, 90
9, 87239, Note_on_c, 7, 45, 0
9, 87240, Note_on_c, 7, 43, 90
9, 87299, Note_on_c, 7, 43, 0
9, 87300, Note_on_c, 7, 42, 90
9, 87359, Note_on_c, 7, 42, 0
9, 87360, Note_on_c, 7, 40, 90
9, 87419, Note_on_c, 7, 40, 0
9, 87420, Note_on_c, 7, 43, 90
9, 87479, Note_on_c, 7, 43, 0
9, 87480, Note_on_c, 7, 42, 90
9, 87539, Note_on_c, 7, 42, 0
9, 87540, Note_on_c, 7, 40, 90
9, 87599, Note_on_c, 7, 40, 0
9, 87600, Note_on_c, 7, 38, 90
9, 87659, Note_on_c, 7, 38, 0
9, 87660, Note_on_c, 7, 40, 90
9, 87689, Note_on_c, 7, 40, 0
9, 87690, Note_on_c, 7, 42, 90
9, 87719, Note_on_c, 7, 42, 0
9, 87720, Note_on_c, 7, 43, 90
9, 87779, Note_on_c, 7, 43, 0
9, 87780, Note_on_c, 7, 42, 90
9, 87839, Note_on_c, 7, 42, 0
9, 87840, Note_on_c, 7, 43, 90
9, 87899, Note_on_c, 7, 43, 0
9, 87900, Note_on_c, 7, 47, 90
9, 87959, Note_on_c, 7, 47, 0
9, 87960, Note_on_c, 7, 43, 90
9, 88019, Note_on_c, 7, 43, 0
9, 88020, Note_on_c, 7, 40, 90
9, 88079, Note_on_c, 7, 40, 0
9, 88080, Note_on_c, 7, 42, 90
9, 88139, Note_on_c, 7, 42, 0
9, 88140, Note_on_c, 7, 49, 90
9, 88199, Note_on_c, 7, 49, 0
9, 88200, Note_on_c, 7, 54, 90
9, 88259, Note_on_c, 7, 54, 0
9, 88260, Note_on_c, 7, 52, 90
9, 88319, Note_on_c, 7, 52, 0
9, 88320, Note_on_c, 7, 50, 90
9, 88379, Note_on_c, 7, 50, 0
9, 88380, Note_on_c, 7, 49, 90
9, 88439, Note_on_c, 7, 49, 0
9, 88440, Note_on_c, 7, 47, 90
9, 88499, Note_on_c, 7, 47, 0
9, 88500, Note_on_c, 7, 54, 90
9, 88559, Note_on_c, 7, 54, 0
9, 88560, Note_on_c, 7, 59, 90
9, 88619, Note_on_c, 7, 59, 0
9, 88620, Note_on_c, 7, 57, 90
9, 88679, Note_on_c, 7, 57, 0
9, 88680, Note_on_c, 7, 55, 90
9, 88739, Note_on_c, 7, 55, 0
9, 88740, Note_on_c, 7, 54, 90
9, 88799, Note_on_c, 7, 54, 0
9, 88800, Note_on_c, 7, 52, 90
9, 88859, Note_on_c, 7, 52, 0
9, 88860, Note_on_c, 7, 50, 90
9, 88919, Note_on_c, 7, 50, 0
9, 88920, Note_on_c, 7, 52, 90
9, 88979, Note_on_c, 7, 52, 0
9, 88980, Note_on_c, 7, 49, 90
9, 89039, Note_on_c, 7, 49, 0
9, 89040, Note_on_c, 7, 54, 90
9, 89099, Note_on_c, 7, 54, 0
9, 89100, Note_on_c, 7, 52, 90
9, 89159, Note_on_c, 7, 52, 0
9, 89160, Note_on_c, 7, 50, 90
9, 89219, Note_on_c, 7, 50, 0
9, 89220, Note_on_c, 7, 49, 90
9, 89279, Note_on_c, 7, 49, 0
9, 89280, Note_on_c, 7, 47, 90
9, 89339, Note_on_c, 7, 47, 0
9, 89340, Note_on_c, 7, 59, 90
9, 89399, Note_on_c, 7, 59, 0
9, 89400, Note_on_c, 7, 57, 90
9, 89459, Note_on_c, 7, 57, 0
9, 89460, Note_on_c, 7, 55, 90
9, 89519, Note_on_c, 7, 55, 0
9, 89520, Note_on_c, 7, 54, 90
9, 89579, Note_on_c, 7, 54, 0
9, 89580, Note_on_c, 7, 52, 90
9, 89639, Note_on_c, 7, 52, 0
9, 89640, Note_on_c, 7, 54, 90
9, 89699, Note_on_c, 7, 54, 0
9, 89700, Note_on_c, 7, 55, 90
9, 89759, Note_on_c, 7, 55, 0
9, 89760, Note_on_c, 7, 57, 90
9, 89819, Note_on_c, 7, 57, 0
9, 89820, Note_on_c, 7, 55, 90
9, 89879, Note_on_c, 7, 55, 0
9, 89880, Note_on_c, 7, 54, 90
9, 89939, Note_on_c, 7, 54, 0
9, 89940, Note_on_c, 7, 52, 90
9, 89999, Note_on_c, 7, 52, 0
9, 90000, Note_on_c, 7, 50, 90
9, 90059, Note_on_c, 7, 50, 0
9, 90060, Note_on_c, 7, 52, 90
9, 90119, Note_on_c, 7, 52, 0
9, 90120, Note_on_c, 7, 54, 90
9, 90179, Note_on_c, 7, 54, 0
9, 90180, Note_on_c, 7, 50, 90
9, 90239, Note_on_c, 7, 50, 0
9, 90240, Note_on_c, 7, 57, 90
9, 90299, Note_on_c, 7, 57, 0
9, 90300, Note_on_c, 7, 59, 90
9, 90359, Note_on_c, 7, 59, 0
9, 90360, Note_on_c, 7, 61, 90
9, 90419, Note_on_c, 7, 61, 0
9, 90420, Note_on_c, 7, 59, 90
9, 90479, Note_on_c, 7, 59, 0
9, 90480, Note_on_c, 7, 61, 90
9, 90539, Note_on_c, 7, 61, 0
9, 90540, Note_on_c, 7, 57, 90
9, 90599, Note_on_c, 7, 57, 0
9, 90600, Note_on_c, 7, 62, 90
9, 90659, Note_on_c, 7, 62, 0
9, 90660, Note_on_c, 7, 50, 90
9, 90719, Note_on_c, 7, 50, 0
9, 90720, Note_on_c, 7, 52, 90
9, 90779, Note_on_c, 7, 52, 0
9, 90780, Note_on_c, 7, 54, 90
9, 90839, Note_on_c, 7, 54, 0
9, 90840, Note_on_c, 7, 55, 90
9, 90899, Note_on_c, 7, 55, 0
9, 90900, Note_on_c, 7, 54, 90
9, 90959, Note_on_c, 7, 54, 0
9, 90960, Note_on_c, 7, 52, 90
9, 91019, Note_on_c, 7, 52, 0
9, 91020, Note_on_c, 7, 49, 90
9, 91079, Note_on_c, 7, 49, 0
9, 91080, Note_on_c, 7, 50, 90
9, 91139, Note_on_c, 7, 50, 0
9, 91140, Note_on_c, 7, 52, 90
9, 91199, Note_on_c, 7, 52, 0
9, 91200, Note_on_c, 7, 54, 90
9, 91259, Note_on_c, 7, 54, 0
9, 91260, Note_on_c, 7, 52, 90
9, 91319, Note_on_c, 7, 52, 0
9, 91320, Note_on_c, 7, 50, 90
9, 91367, Note_on_c, 7, 50, 0
9, 91380, Note_on_c, 7, 47, 90
9, 91427, Note_on_c, 7, 47, 0
9, 91500, Note_on_c, 7, 47, 90
9, 91523, Note_on_c, 7, 47, 0
9, 91530, Note_on_c, 7, 49, 90
9, 91553, Note_on_c, 7, 49, 0
9, 91560, Note_on_c, 7, 50, 90
9, 91607, Note_on_c, 7, 50, 0
9, 91620, Note_on_c, 7, 47, 90
9, 91667, Note_on_c, 7, 47, 0
9, 91680, Note_on_c, 7, 54, 90
9, 91727, Note_on_c, 7, 54, 0
9, 91740, Note_on_c, 7, 42, 90
9, 91787, Note_on_c, 7, 42, 0
9, 91860, Note_on_c, 7, 54, 90
9, 91883, Note_on_c, 7, 54, 0
9, 91890, Note_on_c, 7, 56, 90
9, 91913, Note_on_c, 7, 56, 0
9, 91920, Note_on_c, 7, 58, 90
9, 91967, Note_on_c, 7, 58, 0
9, 91980, Note_on_c, 7, 54, 90
9, 92027, Note_on_c, 7, 54, 0
9, 92040, Note_on_c, 7, 59, 90
9, 92087, Note_on_c, 7, 59, 0
9, 92100, Note_on_c, 7, 54, 90
9, 92147, Note_on_c, 7, 54, 0
9, 92160, Note_on_c, 7, 55, 90
9, 92255, Note_on_c, 7, 55, 0
9, 92340, Note_on_c, 7, 43, 90
9, 92387, Note_on_c, 7, 43, 0
9, 92400, Note_on_c, 7, 42, 90
9, 92447, Note_on_c, 7, 42, 0
9, 92460, Note_on_c, 7, 49, 90
9, 92507, Note_on_c, 7, 49, 0
9, 92520, Note_on_c, 7, 54, 90
9, 92567, Note_on_c, 7, 54, 0
9, 92580, Note_on_c, 7, 52, 90
9, 92627, Note_on_c, 7, 52, 0
9, 92640, Note_on_c, 7, 50, 90
9, 92687, Note_on_c, 7, 50, 0
9, 92700, Note_on_c, 7, 49, 90
9, 92747, Note_on_c, 7, 49, 0
9, 92760, Note_on_c, 7, 47, 90
9, 92855, Note_on_c, 7, 47, 0
9, 92880, Note_on_c, 7, 47, 90
9, 93023, Note_on_c, 7, 47, 0
9, 93060, Note_on_c, 7, 47, 90
9, 93107, Note_on_c, 7, 47, 0
9, 93120, Note_on_c, 7, 46, 90
9, 93215, Note_on_c, 7, 46, 0
9, 93240, Note_on_c, 7, 46, 90
9, 93431, Note_on_c, 7, 46, 0
9, 93480, Note_on_c, 7, 47, 90
9, 93575, Note_on_c, 7, 47, 0
9, 93600, Note_on_c, 7, 47, 90
9, 93743, Note_on_c, 7, 47, 0
9, 93780, Note_on_c, 7, 47, 90
9, 93827, Note_on_c, 7, 47, 0
9, 93840, Note_on_c, 7, 49, 90
9, 93935, Note_on_c, 7, 49, 0
9, 93960, Note_on_c, 7, 49, 90
9, 94151, Note_on_c, 7, 49, 0
9, 94200, Note_on_c, 7, 50, 90
9, 94319, Note_on_c, 7, 50, 0
9, 94320, Note_on_c, 7, 50, 90
9, 94499, Note_on_c, 7, 50, 0
9, 94500, Note_on_c, 7, 50, 90
9, 94559, Note_on_c, 7, 50, 0
9, 94560, Note_on_c, 7, 49, 90
9, 94679, Note_on_c, 7, 49, 0
9, 94680, Note_on_c, 7, 54, 90
9, 94799, Note_on_c, 7, 54, 0
9, 94800, Note_on_c, 7, 46, 90
9, 94919, Note_on_c, 7, 46, 0
9, 94920, Note_on_c, 7, 47, 90
9, 94979, Note_on_c, 7, 47, 0
9, 94980, Note_on_c, 7, 54, 90
9, 95039, Note_on_c, 7, 54, 0
9, 95040, Note_on_c, 7, 59, 90
9, 95099, Note_on_c, 7, 59, 0
9, 95100, Note_on_c, 7, 57, 90
9, 95159, Note_on_c, 7, 57, 0
9, 95160, Note_on_c, 7, 55, 90
9, 95219, Note_on_c, 7, 55, 0
9, 95220, Note_on_c, 7, 54, 90
9, 95279, Note_on_c, 7, 54, 0
9, 95280, Note_on_c, 7, 52, 90
9, 95399, Note_on_c, 7, 52, 0
9, 95400, Note_on_c, 7, 54, 90
9, 95519, Note_on_c, 7, 54, 0
9, 95520, Note_on_c, 7, 42, 90
9, 95639, Note_on_c, 7, 42, 0
9, 95640, Note_on_c, 7, 47, 90
9, 95699, Note_on_c, 7, 47, 0
9, 95700, Note_on_c, 7, 42, 90
9, 95759, Note_on_c, 7, 42, 0
9, 95760, Note_on_c, 7, 47, 90
9, 95819, Note_on_c, 7, 47, 0
9, 95820, Note_on_c, 7, 45, 90
9, 95879, Note_on_c, 7, 45, 0
9, 95880, Note_on_c, 7, 43, 90
9, 95939, Note_on_c, 7, 43, 0
9, 95940, Note_on_c, 7, 40, 90
9, 95999, Note_on_c, 7, 40, 0
9, 96000, Note_on_c, 7, 45, 90
9, 96059, Note_on_c, 7, 45, 0
9, 96060, Note_on_c, 7, 52, 90
9, 96119, Note_on_c, 7, 52, 0
9, 96120, Note_on_c, 7, 57, 90
9, 96179, Note_on_c, 7, 57, 0
9, 96180, Note_on_c, 7, 55, 90
9, 96239, Note_on_c, 7, 55, 0
9, 96240, Note_on_c, 7, 54, 90
9, 96299, Note_on_c, 7, 54, 0
9, 96300, Note_on_c, 7, 50, 90
9, 96359, Note_on_c, 7, 50, 0
9, 96360, Note_on_c, 7, 43, 90
9, 96419, Note_on_c, 7, 43, 0
9, 96420, Note_on_c, 7, 38, 90
9, 96479, Note_on_c, 7, 38, 0
9, 96480, Note_on_c, 7, 43, 90
9, 96539, Note_on_c, 7, 43, 0
9, 96540, Note_on_c, 7, 42, 90
9, 96599, Note_on_c, 7, 42, 0
9, 96600, Note_on_c, 7, 40, 90
9, 96659, Note_on_c, 7, 40, 0
9, 96660, Note_on_c, 7, 37, 90
9, 96719, Note_on_c, 7, 37, 0
9, 96720, Note_on_c, 7, 42, 90
9, 96779, Note_on_c, 7, 42, 0
9, 96780, Note_on_c, 7, 49, 90
9, 96839, Note_on_c, 7, 49, 0
9, 96840, Note_on_c, 7, 54, 90
9, 96899, Note_on_c, 7, 54, 0
9, 96900, Note_on_c, 7, 52, 90
9, 96959, Note_on_c, 7, 52, 0
9, 96960, Note_on_c, 7, 50, 90
9, 97019, Note_on_c, 7, 50, 0
9, 97020, Note_on_c, 7, 47, 90
9, 97079, Note_on_c, 7, 47, 0
9, 97080, Note_on_c, 7, 55, 90
9, 97139, Note_on_c, 7, 55, 0
9, 97140, Note_on_c, 7, 52, 90
9, 97199, Note_on_c, 7, 52, 0
9, 97200, Note_on_c, 7, 54, 90
9, 97319, Note_on_c, 7, 54, 0
9, 97320, Note_on_c, 7, 42, 90
9, 97439, Note_on_c, 7, 42, 0
9, 97440, Note_on_c, 7, 47, 90
9, 97799, Note_on_c, 7, 47, 0
9, 97920, Note_on_c, 7, 49, 90
9, 98400, Note_on_c, 7, 49, 0
9, 98400, Note_on_c, 7, 50, 90
9, 98640, Note_on_c, 7, 50, 0
9, 98640, Note_on_c, 7, 54, 90
9, 98880, Note_on_c, 7, 54, 0
9, 98880, Note_on_c, 7, 47, 90
9, 99840, Note_on_c, 7, 47, 0
9, 99840, Note_on_c, 7, 44, 90
9, 100080, Note_on_c, 7, 44, 0
9, 100080, Note_on_c, 7, 45, 90
9, 100560, Note_on_c, 7, 45, 0
9, 100560, Note_on_c, 7, 48, 90
9, 100800, Note_on_c, 7, 48, 0
9, 100800, Note_on_c, 7, 47, 90
9, 101040, Note_on_c, 7, 47, 0
9, 101040, Note_on_c, 7, 48, 90
9, 101280, Note_on_c, 7, 48, 0
9, 101400, Note_on_c, 7, 50, 90
9, 101520, Note_on_c, 7, 50, 0
9, 101520, Note_on_c, 7, 43, 90
9, 101760, Note_on_c, 7, 43, 0
9, 102000, Note_on_c, 7, 43, 90
9, 102119, Note_on_c, 7, 43, 0
9, 102120, Note_on_c, 7, 55, 90
9, 102239, Note_on_c, 7, 55, 0
9, 102240, Note_on_c, 7, 55, 90
9, 102359, Note_on_c, 7, 55, 0
9, 102360, Note_on_c, 7, 54, 90
9, 102479, Note_on_c, 7, 54, 0
9, 102480, Note_on_c, 7, 52, 90
9, 102599, Note_on_c, 7, 52, 0
9, 102600, Note_on_c, 7, 52, 90
9, 102719, Note_on_c, 7, 52, 0
9, 102720, Note_on_c, 7, 50, 90
9, 102839, Note_on_c, 7, 50, 0
9, 102840, Note_on_c, 7, 48, 90
9, 102899, Note_on_c, 7, 48, 0
9, 102900, Note_on_c, 7, 43, 90
9, 102959, Note_on_c, 7, 43, 0
9, 102960, Note_on_c, 7, 48, 90
9, 103019, Note_on_c, 7, 48, 0
9, 103020, Note_on_c, 7, 50, 90
9, 103079, Note_on_c, 7, 50, 0
9, 103080, Note_on_c, 7, 52, 90
9, 103139, Note_on_c, 7, 52, 0
9, 103140, Note_on_c, 7, 48, 90
9, 103199, Note_on_c, 7, 48, 0
9, 103200, Note_on_c, 7, 50, 90
9, 103229, Note_on_c, 7, 50, 0
9, 103230, Note_on_c, 7, 48, 90
9, 103259, Note_on_c, 7, 48, 0
9, 103260, Note_on_c, 7, 50, 90
9, 103289, Note_on_c, 7, 50, 0
9, 103290, Note_on_c, 7, 52, 90
9, 103319, Note_on_c, 7, 52, 0
9, 103320, Note_on_c, 7, 50, 90
9, 103379, Note_on_c, 7, 50, 0
9, 103380, Note_on_c, 7, 48, 90
9, 103439, Note_on_c, 7, 48, 0
9, 103440, Note_on_c, 7, 47, 90
9, 103499, Note_on_c, 7, 47, 0
9, 103500, Note_on_c, 7, 45, 90
9, 103559, Note_on_c, 7, 45, 0
9, 103560, Note_on_c, 7, 43, 90
9, 103619, Note_on_c, 7, 43, 0
9, 103620, Note_on_c, 7, 43, 90
9, 103679, Note_on_c, 7, 43, 0
9, 103680, Note_on_c, 7, 43, 90
9, 103739, Note_on_c, 7, 43, 0
9, 103740, Note_on_c, 7, 43, 90
9, 103799, Note_on_c, 7, 43, 0
9, 103800, Note_on_c, 7, 42, 90
9, 103859, Note_on_c, 7, 42, 0
9, 103860, Note_on_c, 7, 42, 90
9, 103919, Note_on_c, 7, 42, 0
9, 103920, Note_on_c, 7, 40, 90
9, 103979, Note_on_c, 7, 40, 0
9, 103980, Note_on_c, 7, 40, 90
9, 104039, Note_on_c, 7, 40, 0
9, 104040, Note_on_c, 7, 40, 90
9, 104099, Note_on_c, 7, 40, 0
9, 104100, Note_on_c, 7, 40, 90
9, 104159, Note_on_c, 7, 40, 0
9, 104160, Note_on_c, 7, 38, 90
9, 104219, Note_on_c, 7, 38, 0
9, 104220, Note_on_c, 7, 38, 90
9, 104279, Note_on_c, 7, 38, 0
9, 104280, Note_on_c, 7, 36, 90
9, 104339, Note_on_c, 7, 36, 0
9, 104340, Note_on_c, 7, 43, 90
9, 104399, Note_on_c, 7, 43, 0
9, 104400, Note_on_c, 7, 48, 90
9, 104459, Note_on_c, 7, 48, 0
9, 104460, Note_on_c, 7, 47, 90
9, 104519, Note_on_c, 7, 47, 0
9, 104520, Note_on_c, 7, 45, 90
9, 104579, Note_on_c, 7, 45, 0
9, 104580, Note_on_c, 7, 43, 90
9, 104639, Note_on_c, 7, 43, 0
9, 104640, Note_on_c, 7, 50, 90
9, 104669, Note_on_c, 7, 50, 0
9, 104670, Note_on_c, 7, 48, 90
9, 104699, Note_on_c, 7, 48, 0
9, 104700, Note_on_c, 7, 50, 90
9, 104729, Note_on_c, 7, 50, 0
9, 104730, Note_on_c, 7, 52, 90
9, 104759, Note_on_c, 7, 52, 0
9, 104760, Note_on_c, 7, 50, 90
9, 104789, Note_on_c, 7, 50, 0
9, 104790, Note_on_c, 7, 48, 90
9, 104819, Note_on_c, 7, 48, 0
9, 104820, Note_on_c, 7, 47, 90
9, 104849, Note_on_c, 7, 47, 0
9, 104850, Note_on_c, 7, 48, 90
9, 104879, Note_on_c, 7, 48, 0
9, 104880, Note_on_c, 7, 50, 90
9, 104909, Note_on_c, 7, 50, 0
9, 104910, Note_on_c, 7, 48, 90
9, 104939, Note_on_c, 7, 48, 0
9, 104940, Note_on_c, 7, 47, 90
9, 104969, Note_on_c, 7, 47, 0
9, 104970, Note_on_c, 7, 45, 90
9, 104999, Note_on_c, 7, 45, 0
9, 105000, Note_on_c, 7, 47, 90
9, 105029, Note_on_c, 7, 47, 0
9, 105030, Note_on_c, 7, 48, 90
9, 105059, Note_on_c, 7, 48, 0
9, 105060, Note_on_c, 7, 47, 90
9, 105089, Note_on_c, 7, 47, 0
9, 105090, Note_on_c, 7, 45, 90
9, 105119, Note_on_c, 7, 45, 0
9, 105120, Note_on_c, 7, 43, 90
9, 105239, Note_on_c, 7, 43, 0
9, 105240, Note_on_c, 7, 41, 90
9, 105359, Note_on_c, 7, 41, 0
9, 105360, Note_on_c, 7, 40, 90
9, 105479, Note_on_c, 7, 40, 0
9, 105480, Note_on_c, 7, 40, 90
9, 105599, Note_on_c, 7, 40, 0
9, 105600, Note_on_c, 7, 43, 90
9, 105719, Note_on_c, 7, 43, 0
9, 105720, Note_on_c, 7, 36, 90
9, 105839, Note_on_c, 7, 36, 0
9, 105840, Note_on_c, 7, 38, 90
9, 105959, Note_on_c, 7, 38, 0
9, 105960, Note_on_c, 7, 40, 90
9, 106079, Note_on_c, 7, 40, 0
9, 106080, Note_on_c, 7, 38, 90
9, 106139, Note_on_c, 7, 38, 0
9, 106140, Note_on_c, 7, 45, 90
9, 106199, Note_on_c, 7, 45, 0
9, 106200, Note_on_c, 7, 50, 90
9, 106259, Note_on_c, 7, 50, 0
9, 106260, Note_on_c, 7, 48, 90
9, 106319, Note_on_c, 7, 48, 0
9, 106320, Note_on_c, 7, 47, 90
9, 106379, Note_on_c, 7, 47, 0
9, 106380, Note_on_c, 7, 45, 90
9, 106439, Note_on_c, 7, 45, 0
9, 106440, Note_on_c, 7, 43, 90
9, 106499, Note_on_c, 7, 43, 0
9, 106500, Note_on_c, 7, 45, 90
9, 106559, Note_on_c, 7, 45, 0
9, 106560, Note_on_c, 7, 47, 90
9, 106619, Note_on_c, 7, 47, 0
9, 106620, Note_on_c, 7, 43, 90
9, 106679, Note_on_c, 7, 43, 0
9, 106680, Note_on_c, 7, 50, 90
9, 106739, Note_on_c, 7, 50, 0
9, 106740, Note_on_c, 7, 38, 90
9, 106799, Note_on_c, 7, 38, 0
9, 106800, Note_on_c, 7, 43, 90
9, 106859, Note_on_c, 7, 43, 0
9, 106860, Note_on_c, 7, 42, 90
9, 106919, Note_on_c, 7, 42, 0
9, 106920, Note_on_c, 7, 43, 90
9, 106979, Note_on_c, 7, 43, 0
9, 106980, Note_on_c, 7, 45, 90
9, 107039, Note_on_c, 7, 45, 0
9, 107040, Note_on_c, 7, 47, 90
9, 107099, Note_on_c, 7, 47, 0
9, 107100, Note_on_c, 7, 48, 90
9, 107159, Note_on_c, 7, 48, 0
9, 107160, Note_on_c, 7, 47, 90
9, 107219, Note_on_c, 7, 47, 0
9, 107220, Note_on_c, 7, 47, 90
9, 107279, Note_on_c, 7, 47, 0
9, 107280, Note_on_c, 7, 43, 90
9, 107339, Note_on_c, 7, 43, 0
9, 107340, Note_on_c, 7, 43, 90
9, 107399, Note_on_c, 7, 43, 0
9, 107400, Note_on_c, 7, 53, 90
9, 107459, Note_on_c, 7, 53, 0
9, 107460, Note_on_c, 7, 53, 90
9, 107519, Note_on_c, 7, 53, 0
9, 107520, Note_on_c, 7, 52, 90
9, 107579, Note_on_c, 7, 52, 0
9, 107580, Note_on_c, 7, 50, 90
9, 107639, Note_on_c, 7, 50, 0
9, 107640, Note_on_c, 7, 52, 90
9, 107699, Note_on_c, 7, 52, 0
9, 107700, Note_on_c, 7, 53, 90
9, 107759, Note_on_c, 7, 53, 0
9, 107760, Note_on_c, 7, 52, 90
9, 107819, Note_on_c, 7, 52, 0
9, 107820, Note_on_c, 7, 50, 90
9, 107879, Note_on_c, 7, 50, 0
9, 107880, Note_on_c, 7, 48, 90
9, 107939, Note_on_c, 7, 48, 0
9, 107940, Note_on_c, 7, 48, 90
9, 107999, Note_on_c, 7, 48, 0
9, 108000, Note_on_c, 7, 45, 90
9, 108059, Note_on_c, 7, 45, 0
9, 108060, Note_on_c, 7, 45, 90
9, 108119, Note_on_c, 7, 45, 0
9, 108120, Note_on_c, 7, 55, 90
9, 108179, Note_on_c, 7, 55, 0
9, 108180, Note_on_c, 7, 55, 90
9, 108239, Note_on_c, 7, 55, 0
9, 108240, Note_on_c, 7, 54, 90
9, 108299, Note_on_c, 7, 54, 0
9, 108300, Note_on_c, 7, 52, 90
9, 108359, Note_on_c, 7, 52, 0
9, 108360, Note_on_c, 7, 54, 90
9, 108419, Note_on_c, 7, 54, 0
9, 108420, Note_on_c, 7, 57, 90
9, 108479, Note_on_c, 7, 57, 0
9, 108480, Note_on_c, 7, 50, 90
9, 108539, Note_on_c, 7, 50, 0
9, 108540, Note_on_c, 7, 54, 90
9, 108599, Note_on_c, 7, 54, 0
9, 108600, Note_on_c, 7, 55, 90
9, 108659, Note_on_c, 7, 55, 0
9, 108660, Note_on_c, 7, 47, 90
9, 108719, Note_on_c, 7, 47, 0
9, 108720, Note_on_c, 7, 48, 90
9, 108779, Note_on_c, 7, 48, 0
9, 108780, Note_on_c, 7, 52, 90
9, 108839, Note_on_c, 7, 52, 0
9, 108840, Note_on_c, 7, 50, 90
9, 108899, Note_on_c, 7, 50, 0
9, 108900, Note_on_c, 7, 38, 90
9, 108959, Note_on_c, 7, 38, 0
9, 108960, Note_on_c, 7, 43, 90
9, 109079, Note_on_c, 7, 43, 0
9, 109140, Note_on_c, 7, 50, 90
9, 109199, Note_on_c, 7, 50, 0
9, 109200, Note_on_c, 7, 55, 90
9, 109259, Note_on_c, 7, 55, 0
9, 109260, Note_on_c, 7, 57, 90
9, 109319, Note_on_c, 7, 57, 0
9, 109320, Note_on_c, 7, 59, 90
9, 109379, Note_on_c, 7, 59, 0
9, 109380, Note_on_c, 7, 60, 90
9, 109439, Note_on_c, 7, 60, 0
9, 109440, Note_on_c, 7, 59, 90
9, 109499, Note_on_c, 7, 59, 0
9, 109500, Note_on_c, 7, 57, 90
9, 109559, Note_on_c, 7, 57, 0
9, 109560, Note_on_c, 7, 55, 90
9, 109619, Note_on_c, 7, 55, 0
9, 109620, Note_on_c, 7, 57, 90
9, 109679, Note_on_c, 7, 57, 0
9, 109680, Note_on_c, 7, 59, 90
9, 109739, Note_on_c, 7, 59, 0
9, 109740, Note_on_c, 7, 62, 90
9, 109799, Note_on_c, 7, 62, 0
9, 109800, Note_on_c, 7, 55, 90
9, 109859, Note_on_c, 7, 55, 0
9, 109860, Note_on_c, 7, 53, 90
9, 109919, Note_on_c, 7, 53, 0
9, 109920, Note_on_c, 7, 52, 90
9, 109979, Note_on_c, 7, 52, 0
9, 109980, Note_on_c, 7, 50, 90
9, 110039, Note_on_c, 7, 50, 0
9, 110040, Note_on_c, 7, 52, 90
9, 110099, Note_on_c, 7, 52, 0
9, 110100, Note_on_c, 7, 55, 90
9, 110159, Note_on_c, 7, 55, 0
9, 110160, Note_on_c, 7, 48, 90
9, 110219, Note_on_c, 7, 48, 0
9, 110220, Note_on_c, 7, 50, 90
9, 110279, Note_on_c, 7, 50, 0
9, 110280, Note_on_c, 7, 52, 90
9, 110339, Note_on_c, 7, 52, 0
9, 110340, Note_on_c, 7, 48, 90
9, 110399, Note_on_c, 7, 48, 0
9, 110400, Note_on_c, 7, 50, 90
9, 110459, Note_on_c, 7, 50, 0
9, 110460, Note_on_c, 7, 52, 90
9, 110519, Note_on_c, 7, 52, 0
9, 110520, Note_on_c, 7, 50, 90
9, 110579, Note_on_c, 7, 50, 0
9, 110580, Note_on_c, 7, 48, 90
9, 110639, Note_on_c, 7, 48, 0
9, 110640, Note_on_c, 7, 47, 90
9, 110699, Note_on_c, 7, 47, 0
9, 110700, Note_on_c, 7, 45, 90
9, 110759, Note_on_c, 7, 45, 0
9, 110760, Note_on_c, 7, 43, 90
9, 110879, Note_on_c, 7, 43, 0
9, 110940, Note_on_c, 7, 43, 90
9, 110969, Note_on_c, 7, 43, 0
9, 110970, Note_on_c, 7, 42, 90
9, 110999, Note_on_c, 7, 42, 0
9, 111000, Note_on_c, 7, 43, 90
9, 111059, Note_on_c, 7, 43, 0
9, 111300, Note_on_c, 7, 43, 90
9, 111329, Note_on_c, 7, 43, 0
9, 111330, Note_on_c, 7, 42, 90
9, 111359, Note_on_c, 7, 42, 0
9, 111360, Note_on_c, 7, 43, 90
9, 111419, Note_on_c, 7, 43, 0
9, 111540, Note_on_c, 7, 48, 90
9, 111569, Note_on_c, 7, 48, 0
9, 111570, Note_on_c, 7, 47, 90
9, 111599, Note_on_c, 7, 47, 0
9, 111600, Note_on_c, 7, 48, 90
9, 111659, Note_on_c, 7, 48, 0
9, 111660, Note_on_c, 7, 50, 90
9, 111719, Note_on_c, 7, 50, 0
9, 111720, Note_on_c, 7, 52, 90
9, 111779, Note_on_c, 7, 52, 0
9, 111780, Note_on_c, 7, 48, 90
9, 111839, Note_on_c, 7, 48, 0
9, 111840, Note_on_c, 7, 50, 90
9, 111899, Note_on_c, 7, 50, 0
9, 111900, Note_on_c, 7, 38, 90
9, 111959, Note_on_c, 7, 38, 0
9, 111960, Note_on_c, 7, 50, 90
9, 112019, Note_on_c, 7, 50, 0
9, 112020, Note_on_c, 7, 52, 90
9, 112079, Note_on_c, 7, 52, 0
9, 112080, Note_on_c, 7, 50, 90
9, 112139, Note_on_c, 7, 50, 0
9, 112140, Note_on_c, 7, 48, 90
9, 112199, Note_on_c, 7, 48, 0
9, 112200, Note_on_c, 7, 47, 90
9, 112259, Note_on_c, 7, 47, 0
9, 112260, Note_on_c, 7, 50, 90
9, 112319, Note_on_c, 7, 50, 0
9, 112320, Note_on_c, 7, 43, 90
9, 112379, Note_on_c, 7, 43, 0
9, 112380, Note_on_c, 7, 50, 90
9, 112439, Note_on_c, 7, 50, 0
9, 112440, Note_on_c, 7, 55, 90
9, 112499, Note_on_c, 7, 55, 0
9, 112500, Note_on_c, 7, 53, 90
9, 112559, Note_on_c, 7, 53, 0
9, 112560, Note_on_c, 7, 52, 90
9, 112619, Note_on_c, 7, 52, 0
9, 112620, Note_on_c, 7, 50, 90
9, 112679, Note_on_c, 7, 50, 0
9, 112680, Note_on_c, 7, 52, 90
9, 112739, Note_on_c, 7, 52, 0
9, 112740, Note_on_c, 7, 55, 90
9, 112799, Note_on_c, 7, 55, 0
9, 112800, Note_on_c, 7, 48, 90
9, 112859, Note_on_c, 7, 48, 0
9, 112860, Note_on_c, 7, 47, 90
9, 112919, Note_on_c, 7, 47, 0
9, 112920, Note_on_c, 7, 48, 90
9, 112979, Note_on_c, 7, 48, 0
9, 112980, Note_on_c, 7, 52, 90
9, 113039, Note_on_c, 7, 52, 0
9, 113040, Note_on_c, 7, 45, 90
9, 113099, Note_on_c, 7, 45, 0
9, 113100, Note_on_c, 7, 57, 90
9, 113159, Note_on_c, 7, 57, 0
9, 113160, Note_on_c, 7, 52, 90
9, 113219, Note_on_c, 7, 52, 0
9, 113220, Note_on_c, 7, 55, 90
9, 113279, Note_on_c, 7, 55, 0
9, 113280, Note_on_c, 7, 54, 90
9, 113339, Note_on_c, 7, 54, 0
9, 113340, Note_on_c, 7, 52, 90
9, 113399, Note_on_c, 7, 52, 0
9, 113400, Note_on_c, 7, 54, 90
9, 113459, Note_on_c, 7, 54, 0
9, 113460, Note_on_c, 7, 57, 90
9, 113519, Note_on_c, 7, 57, 0
9, 113520, Note_on_c, 7, 50, 90
9, 113579, Note_on_c, 7, 50, 0
9, 113580, Note_on_c, 7, 54, 90
9, 113639, Note_on_c, 7, 54, 0
9, 113640, Note_on_c, 7, 55, 90
9, 113699, Note_on_c, 7, 55, 0
9, 113700, Note_on_c, 7, 50, 90
9, 113759, Note_on_c, 7, 50, 0
9, 113760, Note_on_c, 7, 47, 90
9, 113819, Note_on_c, 7, 47, 0
9, 113820, Note_on_c, 7, 43, 90
9, 113879, Note_on_c, 7, 43, 0
9, 113880, Note_on_c, 7, 50, 90
9, 113939, Note_on_c, 7, 50, 0
9, 113940, Note_on_c, 7, 38, 90
9, 113999, Note_on_c, 7, 38, 0
9, 114000, Note_on_c, 7, 43, 90
9, 114059, Note_on_c, 7, 43, 0
9, 114060, Note_on_c, 7, 47, 90
9, 114089, Note_on_c, 7, 47, 0
9, 114090, Note_on_c, 7, 50, 90
9, 114119, Note_on_c, 7, 50, 0
9, 114120, Note_on_c, 7, 55, 90
9, 114239, Note_on_c, 7, 55, 0
9, 114420, Note_on_c, 7, 55, 90
9, 114449, Note_on_c, 7, 55, 0
9, 114450, Note_on_c, 7, 54, 90
9, 114479, Note_on_c, 7, 54, 0
9, 114480, Note_on_c, 7, 55, 90
9, 114539, Note_on_c, 7, 55, 0
9, 114780, Note_on_c, 7, 52, 90
9, 114809, Note_on_c, 7, 52, 0
9, 114810, Note_on_c, 7, 50, 90
9, 114839, Note_on_c, 7, 50, 0
9, 114840, Note_on_c, 7, 52, 90
9, 114899, Note_on_c, 7, 52, 0
9, 115140, Note_on_c, 7, 57, 90
9, 115169, Note_on_c, 7, 57, 0
9, 115170, Note_on_c, 7, 56, 90
9, 115199, Note_on_c, 7, 56, 0
9, 115200, Note_on_c, 7, 57, 90
9, 115259, Note_on_c, 7, 57, 0
9, 115500, Note_on_c, 7, 54, 90
9, 115529, Note_on_c, 7, 54, 0
9, 115530, Note_on_c, 7, 52, 90
9, 115559, Note_on_c, 7, 52, 0
9, 115560, Note_on_c, 7, 54, 90
9, 115619, Note_on_c, 7, 54, 0
9, 115860, Note_on_c, 7, 43, 90
9, 115889, Note_on_c, 7, 43, 0
9, 115890, Note_on_c, 7, 45, 90
9, 115919, Note_on_c, 7, 45, 0
9, 115920, Note_on_c, 7, 47, 90
9, 115979, Note_on_c, 7, 47, 0
9, 115980, Note_on_c, 7, 43, 90
9, 116039, Note_on_c, 7, 43, 0
9, 116040, Note_on_c, 7, 50, 90
9, 116099, Note_on_c, 7, 50, 0
9, 116100, Note_on_c, 7, 38, 90
9, 116159, Note_on_c, 7, 38, 0
9, 116160, Note_on_c, 7, 43, 90
9, 116279, Note_on_c, 7, 43, 0
9, 116280, Note_on_c, 7, 43, 90
9, 116399, Note_on_c, 7, 43, 0
9, 116520, Note_on_c, 7, 51, 90
9, 117240, Note_on_c, 7, 51, 0
9, 117240, Note_on_c, 7, 52, 90
9, 117720, Note_on_c, 7, 52, 0
9, 117720, Note_on_c, 7, 47, 90
9, 117960, Note_on_c, 7, 47, 0
9, 117960, Note_on_c, 7, 44, 90
9, 118200, Note_on_c, 7, 44, 0
9, 118200, Note_on_c, 7, 45, 90
9, 118680, Note_on_c, 7, 45, 0
9, 118680, Note_on_c, 7, 40, 90
9, 119160, Note_on_c, 7, 40, 0
9, 119160, Note_on_c, 7, 38, 90
9, 119880, Note_on_c, 7, 38, 0
9, 119880, Note_on_c, 7, 45, 90
9, 120360, Note_on_c, 7, 45, 0
9, 120360, Note_on_c, 7, 42, 90
9, 120600, Note_on_c, 7, 42, 0
9, 120600, Note_on_c, 7, 43, 90
9, 120840, Note_on_c, 7, 43, 0
9, 120840, Note_on_c, 7, 46, 90
9, 121080, Note_on_c, 7, 46, 0
9, 121200, Note_on_c, 7, 45, 90
9, 121320, Note_on_c, 7, 45, 0
9, 121320, Note_on_c, 7, 38, 90
9, 121680, Note_on_c, 7, 38, 0
9, 121800, Note_on_c, 7, 46, 90
9, 121919, Note_on_c, 7, 46, 0
9, 122160, Note_on_c, 7, 46, 90
9, 122279, Note_on_c, 7, 46, 0
9, 122520, Note_on_c, 7, 51, 90
9, 122579, Note_on_c, 7, 51, 0
9, 122640, Note_on_c, 7, 50, 90
9, 122699, Note_on_c, 7, 50, 0
9, 122760, Note_on_c, 7, 48, 90
9, 122819, Note_on_c, 7, 48, 0
9, 122880, Note_on_c, 7, 46, 90
9, 122939, Note_on_c, 7, 46, 0
9, 123000, Note_on_c, 7, 53, 90
9, 123059, Note_on_c, 7, 53, 0
9, 123060, Note_on_c, 7, 51, 90
9, 123119, Note_on_c, 7, 51, 0
9, 123120, Note_on_c, 7, 50, 90
9, 123179, Note_on_c, 7, 50, 0
9, 123180, Note_on_c, 7, 48, 90
9, 123239, Note_on_c, 7, 48, 0
9, 123240, Note_on_c, 7, 46, 90
9, 123299, Note_on_c, 7, 46, 0
9, 123360, Note_on_c, 7, 46, 90
9, 123419, Note_on_c, 7, 46, 0
9, 123420, Note_on_c, 7, 46, 90
9, 123449, Note_on_c, 7, 46, 0
9, 123450, Note_on_c, 7, 46, 90
9, 123479, Note_on_c, 7, 46, 0
9, 123480, Note_on_c, 7, 46, 90
9, 123599, Note_on_c, 7, 46, 0
9, 123720, Note_on_c, 7, 46, 90
9, 123779, Note_on_c, 7, 46, 0
9, 123780, Note_on_c, 7, 46, 90
9, 123809, Note_on_c, 7, 46, 0
9, 123810, Note_on_c, 7, 46, 90
9, 123839, Note_on_c, 7, 46, 0
9, 123840, Note_on_c, 7, 46, 90
9, 123899, Note_on_c, 7, 46, 0
9, 123900, Note_on_c, 7, 48, 90
9, 123929, Note_on_c, 7, 48, 0
9, 123930, Note_on_c, 7, 50, 90
9, 123959, Note_on_c, 7, 50, 0
9, 123960, Note_on_c, 7, 51, 90
9, 124019, Note_on_c, 7, 51, 0
9, 124080, Note_on_c, 7, 50, 90
9, 124139, Note_on_c, 7, 50, 0
9, 124200, Note_on_c, 7, 48, 90
9, 124259, Note_on_c, 7, 48, 0
9, 124320, Note_on_c, 7, 46, 90
9, 124379, Note_on_c, 7, 46, 0
9, 124440, Note_on_c, 7, 41, 90
9, 124499, Note_on_c, 7, 41, 0
9, 124500, Note_on_c, 7, 41, 90
9, 124529, Note_on_c, 7, 41, 0
9, 124530, Note_on_c, 7, 41, 90
9, 124559, Note_on_c, 7, 41, 0
9, 124560, Note_on_c, 7, 41, 90
9, 124619, Note_on_c, 7, 41, 0
9, 124620, Note_on_c, 7, 41, 90
9, 124649, Note_on_c, 7, 41, 0
9, 124650, Note_on_c, 7, 41, 90
9, 124679, Note_on_c, 7, 41, 0
9, 124680, Note_on_c, 7, 41, 90
9, 124799, Note_on_c, 7, 41, 0
9, 124920, Note_on_c, 7, 41, 90
9, 124979, Note_on_c, 7, 41, 0
9, 124980, Note_on_c, 7, 45, 90
9, 125009, Note_on_c, 7, 45, 0
9, 125010, Note_on_c, 7, 41, 90
9, 125039, Note_on_c, 7, 41, 0
9, 125040, Note_on_c, 7, 46, 90
9, 125099, Note_on_c, 7, 46, 0
9, 125100, Note_on_c, 7, 50, 90
9, 125129, Note_on_c, 7, 50, 0
9, 125130, Note_on_c, 7, 46, 90
9, 125159, Note_on_c, 7, 46, 0
9, 125160, Note_on_c, 7, 53, 90
9, 125339, Note_on_c, 7, 53, 0
9, 125340, Note_on_c, 7, 48, 90
9, 125369, Note_on_c, 7, 48, 0
9, 125370, Note_on_c, 7, 45, 90
9, 125399, Note_on_c, 7, 45, 0
9, 125400, Note_on_c, 7, 41, 90
9, 125519, Note_on_c, 7, 41, 0
9, 125640, Note_on_c, 7, 41, 90
9, 125699, Note_on_c, 7, 41, 0
9, 125700, Note_on_c, 7, 45, 90
9, 125729, Note_on_c, 7, 45, 0
9, 125730, Note_on_c, 7, 41, 90
9, 125759, Note_on_c, 7, 41, 0
9, 125760, Note_on_c, 7, 46, 90
9, 125819, Note_on_c, 7, 46, 0
9, 125820, Note_on_c, 7, 50, 90
9, 125849, Note_on_c, 7, 50, 0
9, 125850, Note_on_c, 7, 46, 90
9, 125879, Note_on_c, 7, 46, 0
9, 125880, Note_on_c, 7, 53, 90
9, 126059, Note_on_c, 7, 53, 0
9, 126060, Note_on_c, 7, 51, 90
9, 126089, Note_on_c, 7, 51, 0
9, 126090, Note_on_c, 7, 53, 90
9, 126119, Note_on_c, 7, 53, 0
9, 126120, Note_on_c, 7, 50, 90
9, 126179, Note_on_c, 7, 50, 0
9, 126180, Note_on_c, 7, 46, 90
9, 126239, Note_on_c, 7, 46, 0
9, 126240, Note_on_c, 7, 52, 90
9, 126299, Note_on_c, 7, 52, 0
9, 126300, Note_on_c, 7, 48, 90
9, 126359, Note_on_c, 7, 48, 0
9, 126360, Note_on_c, 7, 53, 90
9, 126419, Note_on_c, 7, 53, 0
9, 126420, Note_on_c, 7, 50, 90
9, 126479, Note_on_c, 7, 50, 0
9, 126480, Note_on_c, 7, 46, 90
9, 126539, Note_on_c, 7, 46, 0
9, 126540, Note_on_c, 7, 48, 90
9, 126599, Note_on_c, 7, 48, 0
9, 126600, Note_on_c, 7, 41, 90
9, 126659, Note_on_c, 7, 41, 0
9, 126660, Note_on_c, 7, 48, 90
9, 126719, Note_on_c, 7, 48, 0
9, 126720, Note_on_c, 7, 53, 90
9, 126779, Note_on_c, 7, 53, 0
9, 126780, Note_on_c, 7, 51, 90
9, 126839, Note_on_c, 7, 51, 0
9, 126840, Note_on_c, 7, 50, 90
9, 126899, Note_on_c, 7, 50, 0
9, 126900, Note_on_c, 7, 46, 90
9, 126959, Note_on_c, 7, 46, 0
9, 126960, Note_on_c, 7, 53, 90
9, 127019, Note_on_c, 7, 53, 0
9, 127020, Note_on_c, 7, 55, 90
9, 127079, Note_on_c, 7, 55, 0
9, 127080, Note_on_c, 7, 53, 90
9, 127139, Note_on_c, 7, 53, 0
9, 127140, Note_on_c, 7, 51, 90
9, 127199, Note_on_c, 7, 51, 0
9, 127200, Note_on_c, 7, 50, 90
9, 127259, Note_on_c, 7, 50, 0
9, 127260, Note_on_c, 7, 46, 90
9, 127319, Note_on_c, 7, 46, 0
9, 127320, Note_on_c, 7, 53, 90
9, 127379, Note_on_c, 7, 53, 0
9, 127380, Note_on_c, 7, 55, 90
9, 127439, Note_on_c, 7, 55, 0
9, 127440, Note_on_c, 7, 53, 90
9, 127499, Note_on_c, 7, 53, 0
9, 127500, Note_on_c, 7, 51, 90
9, 127559, Note_on_c, 7, 51, 0
9, 127560, Note_on_c, 7, 50, 90
9, 127619, Note_on_c, 7, 50, 0
9, 127620, Note_on_c, 7, 46, 90
9, 127679, Note_on_c, 7, 46, 0
9, 127680, Note_on_c, 7, 50, 90
9, 127739, Note_on_c, 7, 50, 0
9, 127740, Note_on_c, 7, 53, 90
9, 127799, Note_on_c, 7, 53, 0
9, 127800, Note_on_c, 7, 58, 90
9, 127859, Note_on_c, 7, 58, 0
9, 127860, Note_on_c, 7, 57, 90
9, 127889, Note_on_c, 7, 57, 0
9, 127890, Note_on_c, 7, 55, 90
9, 127919, Note_on_c, 7, 55, 0
9, 127920, Note_on_c, 7, 53, 90
9, 128039, Note_on_c, 7, 53, 0
9, 128040, Note_on_c, 7, 41, 90
9, 128129, Note_on_c, 7, 41, 0
9, 128130, Note_on_c, 7, 43, 90
9, 128159, Note_on_c, 7, 43, 0
9, 128160, Note_on_c, 7, 45, 90
9, 128219, Note_on_c, 7, 45, 0
9, 128220, Note_on_c, 7, 41, 90
9, 128279, Note_on_c, 7, 41, 0
9, 128280, Note_on_c, 7, 46, 90
9, 128339, Note_on_c, 7, 46, 0
9, 128340, Note_on_c, 7, 50, 90
9, 128399, Note_on_c, 7, 50, 0
9, 128400, Note_on_c, 7, 53, 90
9, 128519, Note_on_c, 7, 53, 0
9, 128760, Note_on_c, 7, 41, 90
9, 128849, Note_on_c, 7, 41, 0
9, 128850, Note_on_c, 7, 43, 90
9, 128879, Note_on_c, 7, 43, 0
9, 128880, Note_on_c, 7, 45, 90
9, 128939, Note_on_c, 7, 45, 0
9, 128940, Note_on_c, 7, 41, 90
9, 128999, Note_on_c, 7, 41, 0
9, 129000, Note_on_c, 7, 46, 90
9, 129059, Note_on_c, 7, 46, 0
9, 129060, Note_on_c, 7, 50, 90
9, 129119, Note_on_c, 7, 50, 0
9, 129120, Note_on_c, 7, 53, 90
9, 129179, Note_on_c, 7, 53, 0
9, 129180, Note_on_c, 7, 51, 90
9, 129239, Note_on_c, 7, 51, 0
9, 129240, Note_on_c, 7, 50, 90
9, 129299, Note_on_c, 7, 50, 0
9, 129300, Note_on_c, 7, 48, 90
9, 129359, Note_on_c, 7, 48, 0
9, 129360, Note_on_c, 7, 46, 90
9, 129479, Note_on_c, 7, 46, 0
9, 129540, Note_on_c, 7, 41, 90
9, 129599, Note_on_c, 7, 41, 0
9, 129600, Note_on_c, 7, 48, 90
9, 129659, Note_on_c, 7, 48, 0
9, 129660, Note_on_c, 7, 50, 90
9, 129719, Note_on_c, 7, 50, 0
9, 129720, Note_on_c, 7, 51, 90
9, 129779, Note_on_c, 7, 51, 0
9, 129780, Note_on_c, 7, 53, 90
9, 129809, Note_on_c, 7, 53, 0
9, 129810, Note_on_c, 7, 55, 90
9, 129839, Note_on_c, 7, 55, 0
9, 129840, Note_on_c, 7, 45, 90
9, 130019, Note_on_c, 7, 45, 0
9, 130020, Note_on_c, 7, 46, 90
9, 130049, Note_on_c, 7, 46, 0
9, 130050, Note_on_c, 7, 48, 90
9, 130079, Note_on_c, 7, 48, 0
9, 130080, Note_on_c, 7, 50, 90
9, 130139, Note_on_c, 7, 50, 0
9, 130140, Note_on_c, 7, 46, 90
9, 130199, Note_on_c, 7, 46, 0
9, 130200, Note_on_c, 7, 53, 90
9, 130259, Note_on_c, 7, 53, 0
9, 130260, Note_on_c, 7, 55, 90
9, 130319, Note_on_c, 7, 55, 0
9, 130320, Note_on_c, 7, 53, 90
9, 130379, Note_on_c, 7, 53, 0
9, 130380, Note_on_c, 7, 51, 90
9, 130439, Note_on_c, 7, 51, 0
9, 130440, Note_on_c, 7, 50, 90
9, 130499, Note_on_c, 7, 50, 0
9, 130500, Note_on_c, 7, 62, 90
9, 130559, Note_on_c, 7, 62, 0
9, 130560, Note_on_c, 7, 60, 90
9, 130619, Note_on_c, 7, 60, 0
9, 130620, Note_on_c, 7, 58, 90
9, 130679, Note_on_c, 7, 58, 0
9, 130680, Note_on_c, 7, 57, 90
9, 130739, Note_on_c, 7, 57, 0
9, 130740, Note_on_c, 7, 53, 90
9, 130799, Note_on_c, 7, 53, 0
9, 130800, Note_on_c, 7, 58, 90
9, 130919, Note_on_c, 7, 58, 0
9, 130920, Note_on_c, 7, 46, 90
9, 131159, Note_on_c, 7, 46, 0
9, 131280, Note_on_c, 7, 52, 90
9, 131759, Note_on_c, 7, 52, 0
9, 131760, Note_on_c, 7, 49, 90
9, 132239, Note_on_c, 7, 49, 0
9, 132240, Note_on_c, 7, 48, 90
9, 132719, Note_on_c, 7, 48, 0
9, 132720, Note_on_c, 7, 47, 90
9, 133439, Note_on_c, 7, 47, 0
9, 133440, Note_on_c, 7, 49, 90
9, 133679, Note_on_c, 7, 49, 0
9, 133680, Note_on_c, 7, 50, 90
9, 133799, Note_on_c, 7, 50, 0
9, 133800, Note_on_c, 7, 47, 90
9, 133919, Note_on_c, 7, 47, 0
9, 134040, Note_on_c, 7, 45, 90
9, 134159, Note_on_c, 7, 45, 0
9, 134160, Note_on_c, 7, 50, 90
9, 134639, Note_on_c, 7, 50, 0
9, 134760, Note_on_c, 7, 45, 90
9, 134819, Note_on_c, 7, 45, 0
9, 134820, Note_on_c, 7, 49, 90
9, 134879, Note_on_c, 7, 49, 0
9, 134880, Note_on_c, 7, 52, 90
9, 134939, Note_on_c, 7, 52, 0
9, 134940, Note_on_c, 7, 57, 90
9, 134999, Note_on_c, 7, 57, 0
9, 135000, Note_on_c, 7, 61, 90
9, 135059, Note_on_c, 7, 61, 0
9, 135060, Note_on_c, 7, 64, 90
9, 135119, Note_on_c, 7, 64, 0
9, 135120, Note_on_c, 7, 62, 90
9, 135239, Note_on_c, 7, 62, 0
9, 135240, Note_on_c, 7, 61, 90
9, 135299, Note_on_c, 7, 61, 0
9, 135300, Note_on_c, 7, 59, 90
9, 135359, Note_on_c, 7, 59, 0
9, 135360, Note_on_c, 7, 52, 90
9, 135419, Note_on_c, 7, 52, 0
9, 135420, Note_on_c, 7, 57, 90
9, 135479, Note_on_c, 7, 57, 0
9, 135480, Note_on_c, 7, 45, 90
9, 135539, Note_on_c, 7, 45, 0
9, 135540, Note_on_c, 7, 49, 90
9, 135599, Note_on_c, 7, 49, 0
9, 135600, Note_on_c, 7, 52, 90
9, 135659, Note_on_c, 7, 52, 0
9, 135660, Note_on_c, 7, 57, 90
9, 135719, Note_on_c, 7, 57, 0
9, 135720, Note_on_c, 7, 54, 90
9, 135779, Note_on_c, 7, 54, 0
9, 135780, Note_on_c, 7, 50, 90
9, 135839, Note_on_c, 7, 50, 0
9, 135840, Note_on_c, 7, 47, 90
9, 135899, Note_on_c, 7, 47, 0
9, 135900, Note_on_c, 7, 44, 90
9, 135959, Note_on_c, 7, 44, 0
9, 135960, Note_on_c, 7, 45, 90
9, 136019, Note_on_c, 7, 45, 0
9, 136020, Note_on_c, 7, 40, 90
9, 136079, Note_on_c, 7, 40, 0
9, 136080, Note_on_c, 7, 42, 90
9, 136109, Note_on_c, 7, 42, 0
9, 136110, Note_on_c, 7, 44, 90
9, 136139, Note_on_c, 7, 44, 0
9, 136140, Note_on_c, 7, 45, 90
9, 136169, Note_on_c, 7, 45, 0
9, 136170, Note_on_c, 7, 47, 90
9, 136199, Note_on_c, 7, 47, 0
9, 136200, Note_on_c, 7, 49, 90
9, 136319, Note_on_c, 7, 49, 0
9, 136320, Note_on_c, 7, 47, 90
9, 136379, Note_on_c, 7, 47, 0
9, 136380, Note_on_c, 7, 45, 90
9, 136439, Note_on_c, 7, 45, 0
9, 136440, Note_on_c, 7, 49, 90
9, 136499, Note_on_c, 7, 49, 0
9, 136500, Note_on_c, 7, 52, 90
9, 136559, Note_on_c, 7, 52, 0
9, 136560, Note_on_c, 7, 56, 90
9, 136679, Note_on_c, 7, 56, 0
9, 136680, Note_on_c, 7, 57, 90
9, 136799, Note_on_c, 7, 57, 0
9, 136800, Note_on_c, 7, 56, 90
9, 136859, Note_on_c, 7, 56, 0
9, 136860, Note_on_c, 7, 57, 90
9, 136919, Note_on_c, 7, 57, 0
9, 136920, Note_on_c, 7, 45, 90
9, 136979, Note_on_c, 7, 45, 0
9, 136980, Note_on_c, 7, 49, 90
9, 137039, Note_on_c, 7, 49, 0
9, 137040, Note_on_c, 7, 52, 90
9, 137099, Note_on_c, 7, 52, 0
9, 137100, Note_on_c, 7, 57, 90
9, 137159, Note_on_c, 7, 57, 0
9, 137160, Note_on_c, 7, 59, 90
9, 137219, Note_on_c, 7, 59, 0
9, 137220, Note_on_c, 7, 61, 90
9, 137279, Note_on_c, 7, 61, 0
9, 137280, Note_on_c, 7, 62, 90
9, 137339, Note_on_c, 7, 62, 0
9, 137340, Note_on_c, 7, 56, 90
9, 137399, Note_on_c, 7, 56, 0
9, 137400, Note_on_c, 7, 57, 90
9, 137459, Note_on_c, 7, 57, 0
9, 137460, Note_on_c, 7, 64, 90
9, 137519, Note_on_c, 7, 64, 0
9, 137520, Note_on_c, 7, 52, 90
9, 137579, Note_on_c, 7, 52, 0
9, 137580, Note_on_c, 7, 50, 90
9, 137639, Note_on_c, 7, 50, 0
9, 137640, Note_on_c, 7, 49, 90
9, 137699, Note_on_c, 7, 49, 0
9, 137700, Note_on_c, 7, 47, 90
9, 137759, Note_on_c, 7, 47, 0
9, 137760, Note_on_c, 7, 45, 90
9, 137819, Note_on_c, 7, 45, 0
9, 137820, Note_on_c, 7, 54, 90
9, 137879, Note_on_c, 7, 54, 0
9, 137880, Note_on_c, 7, 50, 90
9, 137939, Note_on_c, 7, 50, 0
9, 137940, Note_on_c, 7, 49, 90
9, 137999, Note_on_c, 7, 49, 0
9, 138000, Note_on_c, 7, 47, 90
9, 138059, Note_on_c, 7, 47, 0
9, 138060, Note_on_c, 7, 49, 90
9, 138119, Note_on_c, 7, 49, 0
9, 138120, Note_on_c, 7, 50, 90
9, 138179, Note_on_c, 7, 50, 0
9, 138180, Note_on_c, 7, 52, 90
9, 138239, Note_on_c, 7, 52, 0
9, 138240, Note_on_c, 7, 54, 90
9, 138299, Note_on_c, 7, 54, 0
9, 138300, Note_on_c, 7, 56, 90
9, 138359, Note_on_c, 7, 56, 0
9, 138360, Note_on_c, 7, 45, 90
9, 138419, Note_on_c, 7, 45, 0
9, 138420, Note_on_c, 7, 47, 90
9, 138479, Note_on_c, 7, 47, 0
9, 138480, Note_on_c, 7, 49, 90
9, 138539, Note_on_c, 7, 49, 0
9, 138540, Note_on_c, 7, 50, 90
9, 138599, Note_on_c, 7, 50, 0
9, 138600, Note_on_c, 7, 49, 90
9, 138659, Note_on_c, 7, 49, 0
9, 138660, Note_on_c, 7, 47, 90
9, 138719, Note_on_c, 7, 47, 0
9, 138720, Note_on_c, 7, 45, 90
9, 138779, Note_on_c, 7, 45, 0
9, 138780, Note_on_c, 7, 38, 90
9, 138839, Note_on_c, 7, 38, 0
9, 138840, Note_on_c, 7, 40, 90
9, 138899, Note_on_c, 7, 40, 0
9, 138900, Note_on_c, 7, 45, 90
9, 138959, Note_on_c, 7, 45, 0
9, 138960, Note_on_c, 7, 45, 90
9, 138989, Note_on_c, 7, 45, 0
9, 138990, Note_on_c, 7, 44, 90
9, 139019, Note_on_c, 7, 44, 0
9, 139020, Note_on_c, 7, 45, 90
9, 139049, Note_on_c, 7, 45, 0
9, 139050, Note_on_c, 7, 47, 90
9, 139079, Note_on_c, 7, 47, 0
9, 139080, Note_on_c, 7, 49, 90
9, 139139, Note_on_c, 7, 49, 0
9, 139140, Note_on_c, 7, 54, 90
9, 139199, Note_on_c, 7, 54, 0
9, 139200, Note_on_c, 7, 52, 90
9, 139259, Note_on_c, 7, 52, 0
9, 139260, Note_on_c, 7, 54, 90
9, 139319, Note_on_c, 7, 54, 0
9, 139320, Note_on_c, 7, 50, 90
9, 139379, Note_on_c, 7, 50, 0
9, 139380, Note_on_c, 7, 49, 90
9, 139439, Note_on_c, 7, 49, 0
9, 139440, Note_on_c, 7, 47, 90
9, 139499, Note_on_c, 7, 47, 0
9, 139500, Note_on_c, 7, 52, 90
9, 139559, Note_on_c, 7, 52, 0
9, 139560, Note_on_c, 7, 50, 90
9, 139619, Note_on_c, 7, 50, 0
9, 139620, Note_on_c, 7, 52, 90
9, 139679, Note_on_c, 7, 52, 0
9, 139680, Note_on_c, 7, 49, 90
9, 139739, Note_on_c, 7, 49, 0
9, 139740, Note_on_c, 7, 47, 90
9, 139799, Note_on_c, 7, 47, 0
9, 139800, Note_on_c, 7, 45, 90
9, 139859, Note_on_c, 7, 45, 0
9, 139860, Note_on_c, 7, 50, 90
9, 139919, Note_on_c, 7, 50, 0
9, 139920, Note_on_c, 7, 49, 90
9, 139979, Note_on_c, 7, 49, 0
9, 139980, Note_on_c, 7, 50, 90
9, 140039, Note_on_c, 7, 50, 0
9, 140040, Note_on_c, 7, 40, 90
9, 140099, Note_on_c, 7, 40, 0
9, 140100, Note_on_c, 7, 44, 90
9, 140159, Note_on_c, 7, 44, 0
9, 140160, Note_on_c, 7, 45, 90
9, 140219, Note_on_c, 7, 45, 0
9, 140220, Note_on_c, 7, 38, 90
9, 140279, Note_on_c, 7, 38, 0
9, 140280, Note_on_c, 7, 40, 90
9, 140339, Note_on_c, 7, 40, 0
9, 140340, Note_on_c, 7, 45, 90
9, 140459, Note_on_c, 7, 45, 0
9, 140520, Note_on_c, 7, 45, 90
9, 140549, Note_on_c, 7, 45, 0
9, 140550, Note_on_c, 7, 49, 90
9, 140579, Note_on_c, 7, 49, 0
9, 140580, Note_on_c, 7, 49, 90
9, 140609, Note_on_c, 7, 49, 0
9, 140610, Note_on_c, 7, 52, 90
9, 140639, Note_on_c, 7, 52, 0
9, 140640, Note_on_c, 7, 52, 90
9, 140669, Note_on_c, 7, 52, 0
9, 140670, Note_on_c, 7, 57, 90
9, 140699, Note_on_c, 7, 57, 0
9, 140700, Note_on_c, 7, 57, 90
9, 140759, Note_on_c, 7, 57, 0
9, 140760, Note_on_c, 7, 52, 90
9, 140819, Note_on_c, 7, 52, 0
9, 140910, Note_on_c, 7, 56, 90
9, 140939, Note_on_c, 7, 56, 0
9, 140940, Note_on_c, 7, 56, 90
9, 140969, Note_on_c, 7, 56, 0
9, 140970, Note_on_c, 7, 54, 90
9, 140999, Note_on_c, 7, 54, 0
9, 141000, Note_on_c, 7, 54, 90
9, 141029, Note_on_c, 7, 54, 0
9, 141030, Note_on_c, 7, 52, 90
9, 141059, Note_on_c, 7, 52, 0
9, 141060, Note_on_c, 7, 52, 90
9, 141119, Note_on_c, 7, 52, 0
9, 141120, Note_on_c, 7, 45, 90
9, 141179, Note_on_c, 7, 45, 0
9, 141270, Note_on_c, 7, 40, 90
9, 141299, Note_on_c, 7, 40, 0
9, 141300, Note_on_c, 7, 40, 90
9, 141329, Note_on_c, 7, 40, 0
9, 141330, Note_on_c, 7, 45, 90
9, 141359, Note_on_c, 7, 45, 0
9, 141360, Note_on_c, 7, 45, 90
9, 141389, Note_on_c, 7, 45, 0
9, 141390, Note_on_c, 7, 49, 90
9, 141419, Note_on_c, 7, 49, 0
9, 141420, Note_on_c, 7, 49, 90
9, 141479, Note_on_c, 7, 49, 0
9, 141480, Note_on_c, 7, 44, 90
9, 141539, Note_on_c, 7, 44, 0
9, 141630, Note_on_c, 7, 47, 90
9, 141659, Note_on_c, 7, 47, 0
9, 141660, Note_on_c, 7, 47, 90
9, 141689, Note_on_c, 7, 47, 0
9, 141690, Note_on_c, 7, 45, 90
9, 141719, Note_on_c, 7, 45, 0
9, 141720, Note_on_c, 7, 45, 90
9, 141749, Note_on_c, 7, 45, 0
9, 141750, Note_on_c, 7, 52, 90
9, 141779, Note_on_c, 7, 52, 0
9, 141780, Note_on_c, 7, 52, 90
9, 141839, Note_on_c, 7, 52, 0
9, 141840, Note_on_c, 7, 40, 90
9, 141899, Note_on_c, 7, 40, 0
9, 141960, Note_on_c, 7, 45, 90
9, 141989, Note_on_c, 7, 45, 0
9, 141990, Note_on_c, 7, 47, 90
9, 142019, Note_on_c, 7, 47, 0
9, 142020, Note_on_c, 7, 49, 90
9, 142049, Note_on_c, 7, 49, 0
9, 142050, Note_on_c, 7, 47, 90
9, 142079, Note_on_c, 7, 47, 0
9, 142080, Note_on_c, 7, 45, 90
9, 142109, Note_on_c, 7, 45, 0
9, 142110, Note_on_c, 7, 44, 90
9, 142139, Note_on_c, 7, 44, 0
9, 142140, Note_on_c, 7, 45, 90
9, 142169, Note_on_c, 7, 45, 0
9, 142170, Note_on_c, 7, 47, 90
9, 142199, Note_on_c, 7, 47, 0
9, 142200, Note_on_c, 7, 45, 90
9, 142229, Note_on_c, 7, 45, 0
9, 142230, Note_on_c, 7, 44, 90
9, 142259, Note_on_c, 7, 44, 0
9, 142260, Note_on_c, 7, 45, 90
9, 142289, Note_on_c, 7, 45, 0
9, 142290, Note_on_c, 7, 42, 90
9, 142319, Note_on_c, 7, 42, 0
9, 142320, Note_on_c, 7, 44, 90
9, 142349, Note_on_c, 7, 44, 0
9, 142350, Note_on_c, 7, 45, 90
9, 142379, Note_on_c, 7, 45, 0
9, 142380, Note_on_c, 7, 47, 90
9, 142409, Note_on_c, 7, 47, 0
9, 142410, Note_on_c, 7, 45, 90
9, 142439, Note_on_c, 7, 45, 0
9, 142440, Note_on_c, 7, 44, 90
9, 142469, Note_on_c, 7, 44, 0
9, 142470, Note_on_c, 7, 42, 90
9, 142499, Note_on_c, 7, 42, 0
9, 142500, Note_on_c, 7, 44, 90
9, 142529, Note_on_c, 7, 44, 0
9, 142530, Note_on_c, 7, 45, 90
9, 142559, Note_on_c, 7, 45, 0
9, 142560, Note_on_c, 7, 47, 90
9, 142589, Note_on_c, 7, 47, 0
9, 142590, Note_on_c, 7, 44, 90
9, 142619, Note_on_c, 7, 44, 0
9, 142620, Note_on_c, 7, 45, 90
9, 142649, Note_on_c, 7, 45, 0
9, 142650, Note_on_c, 7, 47, 90
9, 142679, Note_on_c, 7, 47, 0
9, 142680, Note_on_c, 7, 49, 90
9, 142709, Note_on_c, 7, 49, 0
9, 142710, Note_on_c, 7, 50, 90
9, 142739, Note_on_c, 7, 50, 0
9, 142740, Note_on_c, 7, 49, 90
9, 142769, Note_on_c, 7, 49, 0
9, 142770, Note_on_c, 7, 47, 90
9, 142799, Note_on_c, 7, 47, 0
9, 142800, Note_on_c, 7, 45, 90
9, 142829, Note_on_c, 7, 45, 0
9, 142830, Note_on_c, 7, 44, 90
9, 142859, Note_on_c, 7, 44, 0
9, 142860, Note_on_c, 7, 45, 90
9, 142889, Note_on_c, 7, 45, 0
9, 142890, Note_on_c, 7, 40, 90
9, 142919, Note_on_c, 7, 40, 0
9, 142920, Note_on_c, 7, 42, 90
9, 142949, Note_on_c, 7, 42, 0
9, 142950, Note_on_c, 7, 44, 90
9, 142979, Note_on_c, 7, 44, 0
9, 142980, Note_on_c, 7, 45, 90
9, 143009, Note_on_c, 7, 45, 0
9, 143010, Note_on_c, 7, 47, 90
9, 143039, Note_on_c, 7, 47, 0
9, 143040, Note_on_c, 7, 49, 90
9, 143099, Note_on_c, 7, 49, 0
9, 143100, Note_on_c, 7, 44, 90
9, 143159, Note_on_c, 7, 44, 0
9, 143160, Note_on_c, 7, 45, 90
9, 143219, Note_on_c, 7, 45, 0
9, 143220, Note_on_c, 7, 52, 90
9, 143249, Note_on_c, 7, 52, 0
9, 143250, Note_on_c, 7, 50, 90
9, 143279, Note_on_c, 7, 50, 0
9, 143280, Note_on_c, 7, 52, 90
9, 143309, Note_on_c, 7, 52, 0
9, 143310, Note_on_c, 7, 54, 90
9, 143339, Note_on_c, 7, 54, 0
9, 143340, Note_on_c, 7, 52, 90
9, 143369, Note_on_c, 7, 52, 0
9, 143370, Note_on_c, 7, 50, 90
9, 143399, Note_on_c, 7, 50, 0
9, 143400, Note_on_c, 7, 49, 90
9, 143429, Note_on_c, 7, 49, 0
9, 143430, Note_on_c, 7, 47, 90
9, 143459, Note_on_c, 7, 47, 0
9, 143460, Note_on_c, 7, 47, 90
9, 143489, Note_on_c, 7, 47, 0
9, 143490, Note_on_c, 7, 45, 90
9, 143519, Note_on_c, 7, 45, 0
9, 143520, Note_on_c, 7, 45, 90
9, 143549, Note_on_c, 7, 45, 0
9, 143550, Note_on_c, 7, 50, 90
9, 143579, Note_on_c, 7, 50, 0
9, 143580, Note_on_c, 7, 50, 90
9, 143639, Note_on_c, 7, 50, 0
9, 143640, Note_on_c, 7, 38, 90
9, 143699, Note_on_c, 7, 38, 0
9, 143790, Note_on_c, 7, 52, 90
9, 143819, Note_on_c, 7, 52, 0
9, 143820, Note_on_c, 7, 52, 90
9, 143849, Note_on_c, 7, 52, 0
9, 143850, Note_on_c, 7, 50, 90
9, 143879, Note_on_c, 7, 50, 0
9, 143880, Note_on_c, 7, 50, 90
9, 143909, Note_on_c, 7, 50, 0
9, 143910, Note_on_c, 7, 52, 90
9, 143939, Note_on_c, 7, 52, 0
9, 143940, Note_on_c, 7, 52, 90
9, 143999, Note_on_c, 7, 52, 0
9, 144000, Note_on_c, 7, 45, 90
9, 144059, Note_on_c, 7, 45, 0
9, 144150, Note_on_c, 7, 61, 90
9, 144179, Note_on_c, 7, 61, 0
9, 144180, Note_on_c, 7, 61, 90
9, 144209, Note_on_c, 7, 61, 0
9, 144210, Note_on_c, 7, 57, 90
9, 144239, Note_on_c, 7, 57, 0
9, 144240, Note_on_c, 7, 57, 90
9, 144269, Note_on_c, 7, 57, 0
9, 144270, Note_on_c, 7, 54, 90
9, 144299, Note_on_c, 7, 54, 0
9, 144300, Note_on_c, 7, 54, 90
9, 144359, Note_on_c, 7, 54, 0
9, 144360, Note_on_c, 7, 50, 90
9, 144419, Note_on_c, 7, 50, 0
9, 144510, Note_on_c, 7, 52, 90
9, 144539, Note_on_c, 7, 52, 0
9, 144540, Note_on_c, 7, 52, 90
9, 144569, Note_on_c, 7, 52, 0
9, 144570, Note_on_c, 7, 50, 90
9, 144599, Note_on_c, 7, 50, 0
9, 144600, Note_on_c, 7, 50, 90
9, 144629, Note_on_c, 7, 50, 0
9, 144630, Note_on_c, 7, 52, 90
9, 144659, Note_on_c, 7, 52, 0
9, 144660, Note_on_c, 7, 45, 90
9, 144719, Note_on_c, 7, 45, 0
9, 144720, Note_on_c, 7, 57, 90
9, 144779, Note_on_c, 7, 57, 0
9, 144840, Note_on_c, 7, 45, 90
9, 144869, Note_on_c, 7, 45, 0
9, 144870, Note_on_c, 7, 43, 90
9, 144899, Note_on_c, 7, 43, 0
9, 144900, Note_on_c, 7, 42, 90
9, 144929, Note_on_c, 7, 42, 0
9, 144930, Note_on_c, 7, 40, 90
9, 144959, Note_on_c, 7, 40, 0
9, 144960, Note_on_c, 7, 42, 90
9, 144989, Note_on_c, 7, 42, 0
9, 144990, Note_on_c, 7, 40, 90
9, 145019, Note_on_c, 7, 40, 0
9, 145020, Note_on_c, 7, 38, 90
9, 145049, Note_on_c, 7, 38, 0
9, 145050, Note_on_c, 7, 40, 90
9, 145079, Note_on_c, 7, 40, 0
9, 145080, Note_on_c, 7, 42, 90
9, 145109, Note_on_c, 7, 42, 0
9, 145110, Note_on_c, 7, 44, 90
9, 145139, Note_on_c, 7, 44, 0
9, 145140, Note_on_c, 7, 45, 90
9, 145169, Note_on_c, 7, 45, 0
9, 145170, Note_on_c, 7, 47, 90
9, 145199, Note_on_c, 7, 47, 0
9, 145200, Note_on_c, 7, 49, 90
9, 145229, Note_on_c, 7, 49, 0
9, 145230, Note_on_c, 7, 50, 90
9, 145259, Note_on_c, 7, 50, 0
9, 145260, Note_on_c, 7, 52, 90
9, 145289, Note_on_c, 7, 52, 0
9, 145290, Note_on_c, 7, 50, 90
9, 145319, Note_on_c, 7, 50, 0
9, 145320, Note_on_c, 7, 52, 90
9, 145349, Note_on_c, 7, 52, 0
9, 145350, Note_on_c, 7, 50, 90
9, 145379, Note_on_c, 7, 50, 0
9, 145380, Note_on_c, 7, 49, 90
9, 145409, Note_on_c, 7, 49, 0
9, 145410, Note_on_c, 7, 47, 90
9, 145439, Note_on_c, 7, 47, 0
9, 145440, Note_on_c, 7, 45, 90
9, 145469, Note_on_c, 7, 45, 0
9, 145470, Note_on_c, 7, 44, 90
9, 145499, Note_on_c, 7, 44, 0
9, 145500, Note_on_c, 7, 45, 90
9, 145529, Note_on_c, 7, 45, 0
9, 145530, Note_on_c, 7, 47, 90
9, 145559, Note_on_c, 7, 47, 0
9, 145560, Note_on_c, 7, 49, 90
9, 145589, Note_on_c, 7, 49, 0
9, 145590, Note_on_c, 7, 54, 90
9, 145619, Note_on_c, 7, 54, 0
9, 145620, Note_on_c, 7, 52, 90
9, 145649, Note_on_c, 7, 52, 0
9, 145650, Note_on_c, 7, 50, 90
9, 145679, Note_on_c, 7, 50, 0
9, 145680, Note_on_c, 7, 49, 90
9, 145709, Note_on_c, 7, 49, 0
9, 145710, Note_on_c, 7, 47, 90
9, 145739, Note_on_c, 7, 47, 0
9, 145740, Note_on_c, 7, 45, 90
9, 145769, Note_on_c, 7, 45, 0
9, 145770, Note_on_c, 7, 44, 90
9, 145799, Note_on_c, 7, 44, 0
9, 145800, Note_on_c, 7, 45, 90
9, 145829, Note_on_c, 7, 45, 0
9, 145830, Note_on_c, 7, 47, 90
9, 145859, Note_on_c, 7, 47, 0
9, 145860, Note_on_c, 7, 49, 90
9, 145889, Note_on_c, 7, 49, 0
9, 145890, Note_on_c, 7, 50, 90
9, 145919, Note_on_c, 7, 50, 0
9, 145920, Note_on_c, 7, 52, 90
9, 145979, Note_on_c, 7, 52, 0
9, 145980, Note_on_c, 7, 50, 90
9, 146039, Note_on_c, 7, 50, 0
9, 146040, Note_on_c, 7, 52, 90
9, 146099, Note_on_c, 7, 52, 0
9, 146100, Note_on_c, 7, 57, 90
9, 146159, Note_on_c, 7, 57, 0
9, 146160, Note_on_c, 7, 52, 90
9, 146219, Note_on_c, 7, 52, 0
9, 146220, Note_on_c, 7, 49, 90
9, 146279, Note_on_c, 7, 49, 0
9, 146280, Note_on_c, 7, 45, 90
9, 146339, Note_on_c, 7, 45, 0
9, 146400, Note_on_c, 7, 44, 90
9, 146459, Note_on_c, 7, 44, 0
9, 146460, Note_on_c, 7, 45, 90
9, 146519, Note_on_c, 7, 45, 0
9, 146580, Note_on_c, 7, 52, 90
9, 146639, Note_on_c, 7, 52, 0
9, 146640, Note_on_c, 7, 50, 90
9, 146699, Note_on_c, 7, 50, 0
9, 146760, Note_on_c, 7, 49, 90
9, 146819, Note_on_c, 7, 49, 0
9, 146820, Note_on_c, 7, 47, 90
9, 146879, Note_on_c, 7, 47, 0
9, 146940, Note_on_c, 7, 45, 90
9, 146999, Note_on_c, 7, 45, 0
9, 147000, Note_on_c, 7, 57, 90
9, 147059, Note_on_c, 7, 57, 0
9, 147120, Note_on_c, 7, 56, 90
9, 147179, Note_on_c, 7, 56, 0
9, 147180, Note_on_c, 7, 54, 90
9, 147239, Note_on_c, 7, 54, 0
9, 147300, Note_on_c, 7, 50, 90
9, 147359, Note_on_c, 7, 50, 0
9, 147360, Note_on_c, 7, 52, 90
9, 147419, Note_on_c, 7, 52, 0
9, 147480, Note_on_c, 7, 45, 90
9, 147539, Note_on_c, 7, 45, 0
9, 147540, Note_on_c, 7, 52, 90
9, 147629, Note_on_c, 7, 52, 0
9, 147630, Note_on_c, 7, 50, 90
9, 147659, Note_on_c, 7, 50, 0
9, 147660, Note_on_c, 7, 49, 90
9, 147689, Note_on_c, 7, 49, 0
9, 147690, Note_on_c, 7, 47, 90
9, 147719, Note_on_c, 7, 47, 0
9, 147720, Note_on_c, 7, 45, 90
9, 147779, Note_on_c, 7, 45, 0
9, 147900, Note_on_c, 7, 45, 90
9, 147929, Note_on_c, 7, 45, 0
9, 147930, Note_on_c, 7, 47, 90
9, 147959, Note_on_c, 7, 47, 0
9, 147960, Note_on_c, 7, 49, 90
9, 147989, Note_on_c, 7, 49, 0
9, 147990, Note_on_c, 7, 50, 90
9, 148019, Note_on_c, 7, 50, 0
9, 148020, Note_on_c, 7, 52, 90
9, 148079, Note_on_c, 7, 52, 0
9, 148260, Note_on_c, 7, 52, 90
9, 148289, Note_on_c, 7, 52, 0
9, 148290, Note_on_c, 7, 50, 90
9, 148319, Note_on_c, 7, 50, 0
9, 148320, Note_on_c, 7, 49, 90
9, 148349, Note_on_c, 7, 49, 0
9, 148350, Note_on_c, 7, 47, 90
9, 148379, Note_on_c, 7, 47, 0
9, 148380, Note_on_c, 7, 45, 90
9, 148439, Note_on_c, 7, 45, 0
9, 148620, Note_on_c, 7, 57, 90
9, 148649, Note_on_c, 7, 57, 0
9, 148650, Note_on_c, 7, 56, 90
9, 148679, Note_on_c, 7, 56, 0
9, 148680, Note_on_c, 7, 54, 90
9, 148709, Note_on_c, 7, 54, 0
9, 148710, Note_on_c, 7, 52, 90
9, 148739, Note_on_c, 7, 52, 0
9, 148740, Note_on_c, 7, 50, 90
9, 148799, Note_on_c, 7, 50, 0
9, 148860, Note_on_c, 7, 40, 90
9, 148919, Note_on_c, 7, 40, 0
9, 148920, Note_on_c, 7, 45, 90
9, 148979, Note_on_c, 7, 45, 0
9, 148980, Note_on_c, 7, 52, 90
9, 149039, Note_on_c, 7, 52, 0
9, 149040, Note_on_c, 7, 50, 90
9, 149069, Note_on_c, 7, 50, 0
9, 149070, Note_on_c, 7, 49, 90
9, 149099, Note_on_c, 7, 49, 0
9, 149100, Note_on_c, 7, 47, 90
9, 149129, Note_on_c, 7, 47, 0
9, 149130, Note_on_c, 7, 45, 90
9, 149159, Note_on_c, 7, 45, 0
9, 149160, Note_on_c, 7, 44, 90
9, 149219, Note_on_c, 7, 44, 0
9, 149280, Note_on_c, 7, 46, 90
9, 149339, Note_on_c, 7, 46, 0
9, 149340, Note_on_c, 7, 47, 90
9, 149399, Note_on_c, 7, 47, 0
9, 149460, Note_on_c, 7, 42, 90
9, 149519, Note_on_c, 7, 42, 0
9, 149520, Note_on_c, 7, 47, 90
9, 149579, Note_on_c, 7, 47, 0
9, 149640, Note_on_c, 7, 44, 90
9, 149699, Note_on_c, 7, 44, 0
9, 149700, Note_on_c, 7, 45, 90
9, 149759, Note_on_c, 7, 45, 0
9, 149820, Note_on_c, 7, 40, 90
9, 149879, Note_on_c, 7, 40, 0
9, 149880, Note_on_c, 7, 45, 90
9, 149939, Note_on_c, 7, 45, 0
9, 150000, Note_on_c, 7, 49, 90
9, 150059, Note_on_c, 7, 49, 0
9, 150060, Note_on_c, 7, 52, 90
9, 150119, Note_on_c, 7, 52, 0
9, 150180, Note_on_c, 7, 54, 90
9, 150239, Note_on_c, 7, 54, 0
9, 150240, Note_on_c, 7, 50, 90
9, 150299, Note_on_c, 7, 50, 0
9, 150360, Note_on_c, 7, 52, 90
9, 150419, Note_on_c, 7, 52, 0
9, 150420, Note_on_c, 7, 45, 90
9, 150509, Note_on_c, 7, 45, 0
9, 150510, Note_on_c, 7, 47, 90
9, 150539, Note_on_c, 7, 47, 0
9, 150540, Note_on_c, 7, 45, 90
9, 150569, Note_on_c, 7, 45, 0
9, 150570, Note_on_c, 7, 43, 90
9, 150599, Note_on_c, 7, 43, 0
9, 150600, Note_on_c, 7, 42, 90
9, 150659, Note_on_c, 7, 42, 0
9, 150840, Note_on_c, 7, 54, 90
9, 150869, Note_on_c, 7, 54, 0
9, 150870, Note_on_c, 7, 52, 90
9, 150899, Note_on_c, 7, 52, 0
9, 150900, Note_on_c, 7, 50, 90
9, 150929, Note_on_c, 7, 50, 0
9, 150930, Note_on_c, 7, 49, 90
9, 150959, Note_on_c, 7, 49, 0
9, 150960, Note_on_c, 7, 47, 90
9, 151019, Note_on_c, 7, 47, 0
9, 151200, Note_on_c, 7, 52, 90
9, 151229, Note_on_c, 7, 52, 0
9, 151230, Note_on_c, 7, 50, 90
9, 151259, Note_on_c, 7, 50, 0
9, 151260, Note_on_c, 7, 49, 90
9, 151289, Note_on_c, 7, 49, 0
9, 151290, Note_on_c, 7, 47, 90
9, 151319, Note_on_c, 7, 47, 0
9, 151320, Note_on_c, 7, 45, 90
9, 151379, Note_on_c, 7, 45, 0
9, 151530, Note_on_c, 7, 50, 90
9, 151559, Note_on_c, 7, 50, 0
9, 151560, Note_on_c, 7, 49, 90
9, 151589, Note_on_c, 7, 49, 0
9, 151590, Note_on_c, 7, 47, 90
9, 151619, Note_on_c, 7, 47, 0
9, 151620, Note_on_c, 7, 45, 90
9, 151649, Note_on_c, 7, 45, 0
9, 151650, Note_on_c, 7, 44, 90
9, 151679, Note_on_c, 7, 44, 0
9, 151680, Note_on_c, 7, 42, 90
9, 151738, Note_on_c, 7, 42, 0
9, 151740, Note_on_c, 7, 38, 90
9, 151798, Note_on_c, 7, 38, 0
9, 151800, Note_on_c, 7, 40, 90
9, 151858, Note_on_c, 7, 40, 0
9, 151860, Note_on_c, 7, 45, 90
9, 151980, Note_on_c, 7, 45, 0
9, 152100, Note_on_c, 7, 54, 90
9, 152158, Note_on_c, 7, 54, 0
9, 152160, Note_on_c, 7, 52, 90
9, 152218, Note_on_c, 7, 52, 0
9, 152220, Note_on_c, 7, 50, 90
9, 152278, Note_on_c, 7, 50, 0
9, 152280, Note_on_c, 7, 49, 90
9, 152338, Note_on_c, 7, 49, 0
9, 152340, Note_on_c, 7, 47, 90
9, 152398, Note_on_c, 7, 47, 0
9, 152400, Note_on_c, 7, 45, 90
9, 152458, Note_on_c, 7, 45, 0
9, 152460, Note_on_c, 7, 47, 90
9, 152518, Note_on_c, 7, 47, 0
9, 152520, Note_on_c, 7, 49, 90
9, 152578, Note_on_c, 7, 49, 0
9, 152580, Note_on_c, 7, 42, 90
9, 152700, Note_on_c, 7, 42, 0
9, 152820, Note_on_c, 7, 52, 90
9, 152878, Note_on_c, 7, 52, 0
9, 152880, Note_on_c, 7, 51, 90
9, 152938, Note_on_c, 7, 51, 0
9, 152940, Note_on_c, 7, 49, 90
9, 152998, Note_on_c, 7, 49, 0
9, 153000, Note_on_c, 7, 47, 90
9, 153058, Note_on_c, 7, 47, 0
9, 153060, Note_on_c, 7, 45, 90
9, 153118, Note_on_c, 7, 45, 0
9, 153120, Note_on_c, 7, 44, 90
9, 153178, Note_on_c, 7, 44, 0
9, 153180, Note_on_c, 7, 45, 90
9, 153238, Note_on_c, 7, 45, 0
9, 153240, Note_on_c, 7, 47, 90
9, 153298, Note_on_c, 7, 47, 0
9, 153300, Note_on_c, 7, 40, 90
9, 153420, Note_on_c, 7, 40, 0
9, 153420, Note_on_c, 7, 44, 90
9, 153478, Note_on_c, 7, 44, 0
9, 153480, Note_on_c, 7, 45, 90
9, 153600, Note_on_c, 7, 45, 0
9, 153600, Note_on_c, 7, 44, 90
9, 153658, Note_on_c, 7, 44, 0
9, 153660, Note_on_c, 7, 42, 90
9, 153780, Note_on_c, 7, 42, 0
9, 153780, Note_on_c, 7, 44, 90
9, 153838, Note_on_c, 7, 44, 0
9, 153840, Note_on_c, 7, 45, 90
9, 153898, Note_on_c, 7, 45, 0
9, 153900, Note_on_c, 7, 44, 90
9, 153958, Note_on_c, 7, 44, 0
9, 153960, Note_on_c, 7, 42, 90
9, 154018, Note_on_c, 7, 42, 0
9, 154020, Note_on_c, 7, 44, 90
9, 154078, Note_on_c, 7, 44, 0
9, 154080, Note_on_c, 7, 56, 90
9, 154138, Note_on_c, 7, 56, 0
9, 154140, Note_on_c, 7, 54, 90
9, 154198, Note_on_c, 7, 54, 0
9, 154200, Note_on_c, 7, 52, 90
9, 154320, Note_on_c, 7, 52, 0
9, 154320, Note_on_c, 7, 51, 90
9, 154378, Note_on_c, 7, 51, 0
9, 154380, Note_on_c, 7, 49, 90
9, 154409, Note_on_c, 7, 49, 0
9, 154410, Note_on_c, 7, 51, 90
9, 154439, Note_on_c, 7, 51, 0
9, 154440, Note_on_c, 7, 52, 90
9, 154469, Note_on_c, 7, 52, 0
9, 154470, Note_on_c, 7, 54, 90
9, 154499, Note_on_c, 7, 54, 0
9, 154500, Note_on_c, 7, 56, 90
9, 154558, Note_on_c, 7, 56, 0
9, 154560, Note_on_c, 7, 54, 90
9, 154680, Note_on_c, 7, 54, 0
9, 154680, Note_on_c, 7, 52, 90
9, 154738, Note_on_c, 7, 52, 0
9, 154740, Note_on_c, 7, 51, 90
9, 154798, Note_on_c, 7, 51, 0
9, 154800, Note_on_c, 7, 56, 90
9, 154858, Note_on_c, 7, 56, 0
9, 154860, Note_on_c, 7, 49, 90
9, 154918, Note_on_c, 7, 49, 0
9, 154920, Note_on_c, 7, 54, 90
9, 155160, Note_on_c, 7, 54, 0
9, 155160, Note_on_c, 7, 52, 90
9, 155219, Note_on_c, 7, 52, 0
9, 155220, Note_on_c, 7, 57, 90
9, 155279, Note_on_c, 7, 57, 0
9, 155280, Note_on_c, 7, 56, 90
9, 155339, Note_on_c, 7, 56, 0
9, 155340, Note_on_c, 7, 54, 90
9, 155399, Note_on_c, 7, 54, 0
9, 155400, Note_on_c, 7, 56, 90
9, 155459, Note_on_c, 7, 56, 0
9, 155460, Note_on_c, 7, 49, 90
9, 155489, Note_on_c, 7, 49, 0
9, 155490, Note_on_c, 7, 48, 90
9, 155519, Note_on_c, 7, 48, 0
9, 155520, Note_on_c, 7, 49, 90
9, 155549, Note_on_c, 7, 49, 0
9, 155550, Note_on_c, 7, 51, 90
9, 155579, Note_on_c, 7, 51, 0
9, 155580, Note_on_c, 7, 52, 90
9, 155609, Note_on_c, 7, 52, 0
9, 155610, Note_on_c, 7, 49, 90
9, 155639, Note_on_c, 7, 49, 0
9, 155640, Note_on_c, 7, 44, 90
9, 155699, Note_on_c, 7, 44, 0
9, 155700, Note_on_c, 7, 49, 90
9, 155759, Note_on_c, 7, 49, 0
9, 155760, Note_on_c, 7, 51, 90
9, 155819, Note_on_c, 7, 51, 0
9, 155820, Note_on_c, 7, 52, 90
9, 155879, Note_on_c, 7, 52, 0
9, 155880, Note_on_c, 7, 51, 90
9, 155909, Note_on_c, 7, 51, 0
9, 155910, Note_on_c, 7, 49, 90
9, 155939, Note_on_c, 7, 49, 0
9, 155940, Note_on_c, 7, 48, 90
9, 155969, Note_on_c, 7, 48, 0
9, 155970, Note_on_c, 7, 49, 90
9, 155999, Note_on_c, 7, 49, 0
9, 156000, Note_on_c, 7, 44, 90
9, 156059, Note_on_c, 7, 44, 0
9, 156060, Note_on_c, 7, 51, 90
9, 156119, Note_on_c, 7, 51, 0
9, 156120, Note_on_c, 7, 52, 90
9, 156179, Note_on_c, 7, 52, 0
9, 156180, Note_on_c, 7, 54, 90
9, 156239, Note_on_c, 7, 54, 0
9, 156240, Note_on_c, 7, 52, 90
9, 156269, Note_on_c, 7, 52, 0
9, 156270, Note_on_c, 7, 51, 90
9, 156299, Note_on_c, 7, 51, 0
9, 156300, Note_on_c, 7, 49, 90
9, 156329, Note_on_c, 7, 49, 0
9, 156330, Note_on_c, 7, 51, 90
9, 156359, Note_on_c, 7, 51, 0
9, 156360, Note_on_c, 7, 52, 90
9, 156419, Note_on_c, 7, 52, 0
9, 156420, Note_on_c, 7, 51, 90
9, 156479, Note_on_c, 7, 51, 0
9, 156480, Note_on_c, 7, 49, 90
9, 156539, Note_on_c, 7, 49, 0
9, 156540, Note_on_c, 7, 48, 90
9, 156659, Note_on_c, 7, 48, 0
9, 156720, Note_on_c, 7, 49, 90
9, 156779, Note_on_c, 7, 49, 0
9, 156780, Note_on_c, 7, 42, 90
9, 156839, Note_on_c, 7, 42, 0
9, 156840, Note_on_c, 7, 44, 90
9, 156899, Note_on_c, 7, 44, 0
9, 156900, Note_on_c, 7, 49, 90
9, 157019, Note_on_c, 7, 49, 0
9, 157110, Note_on_c, 7, 61, 90
9, 157139, Note_on_c, 7, 61, 0
9, 157140, Note_on_c, 7, 59, 90
9, 157169, Note_on_c, 7, 59, 0
9, 157170, Note_on_c, 7, 57, 90
9, 157199, Note_on_c, 7, 57, 0
9, 157200, Note_on_c, 7, 56, 90
9, 157229, Note_on_c, 7, 56, 0
9, 157230, Note_on_c, 7, 54, 90
9, 157259, Note_on_c, 7, 54, 0
9, 157260, Note_on_c, 7, 52, 90
9, 157289, Note_on_c, 7, 52, 0
9, 157290, Note_on_c, 7, 54, 90
9, 157319, Note_on_c, 7, 54, 0
9, 157320, Note_on_c, 7, 52, 90
9, 157349, Note_on_c, 7, 52, 0
9, 157350, Note_on_c, 7, 50, 90
9, 157379, Note_on_c, 7, 50, 0
9, 157380, Note_on_c, 7, 49, 90
9, 157409, Note_on_c, 7, 49, 0
9, 157410, Note_on_c, 7, 47, 90
9, 157439, Note_on_c, 7, 47, 0
9, 157440, Note_on_c, 7, 49, 90
9, 157499, Note_on_c, 7, 49, 0
9, 157500, Note_on_c, 7, 50, 90
9, 157559, Note_on_c, 7, 50, 0
9, 157560, Note_on_c, 7, 52, 90
9, 157619, Note_on_c, 7, 52, 0
9, 157620, Note_on_c, 7, 45, 90
9, 157739, Note_on_c, 7, 45, 0
9, 157830, Note_on_c, 7, 61, 90
9, 157859, Note_on_c, 7, 61, 0
9, 157860, Note_on_c, 7, 59, 90
9, 157889, Note_on_c, 7, 59, 0
9, 157890, Note_on_c, 7, 57, 90
9, 157919, Note_on_c, 7, 57, 0
9, 157920, Note_on_c, 7, 56, 90
9, 157949, Note_on_c, 7, 56, 0
9, 157950, Note_on_c, 7, 54, 90
9, 157979, Note_on_c, 7, 54, 0
9, 157980, Note_on_c, 7, 53, 90
9, 158009, Note_on_c, 7, 53, 0
9, 158010, Note_on_c, 7, 54, 90
9, 158039, Note_on_c, 7, 54, 0
9, 158040, Note_on_c, 7, 53, 90
9, 158069, Note_on_c, 7, 53, 0
9, 158070, Note_on_c, 7, 51, 90
9, 158099, Note_on_c, 7, 51, 0
9, 158100, Note_on_c, 7, 49, 90
9, 158129, Note_on_c, 7, 49, 0
9, 158130, Note_on_c, 7, 47, 90
9, 158159, Note_on_c, 7, 47, 0
9, 158160, Note_on_c, 7, 45, 90
9, 158219, Note_on_c, 7, 45, 0
9, 158220, Note_on_c, 7, 47, 90
9, 158279, Note_on_c, 7, 47, 0
9, 158280, Note_on_c, 7, 49, 90
9, 158339, Note_on_c, 7, 49, 0
9, 158340, Note_on_c, 7, 42, 90
9, 158399, Note_on_c, 7, 42, 0
9, 158400, Note_on_c, 7, 54, 90
9, 158429, Note_on_c, 7, 54, 0
9, 158430, Note_on_c, 7, 52, 90
9, 158459, Note_on_c, 7, 52, 0
9, 158460, Note_on_c, 7, 50, 90
9, 158489, Note_on_c, 7, 50, 0
9, 158490, Note_on_c, 7, 49, 90
9, 158519, Note_on_c, 7, 49, 0
9, 158520, Note_on_c, 7, 47, 90
9, 158549, Note_on_c, 7, 47, 0
9, 158550, Note_on_c, 7, 49, 90
9, 158579, Note_on_c, 7, 49, 0
9, 158580, Note_on_c, 7, 47, 90
9, 158609, Note_on_c, 7, 47, 0
9, 158610, Note_on_c, 7, 45, 90
9, 158639, Note_on_c, 7, 45, 0
9, 158640, Note_on_c, 7, 44, 90
9, 158669, Note_on_c, 7, 44, 0
9, 158670, Note_on_c, 7, 42, 90
9, 158699, Note_on_c, 7, 42, 0
9, 158700, Note_on_c, 7, 41, 90
9, 158759, Note_on_c, 7, 41, 0
9, 158760, Note_on_c, 7, 41, 90
9, 158819, Note_on_c, 7, 41, 0
9, 158820, Note_on_c, 7, 41, 90
9, 158879, Note_on_c, 7, 41, 0
9, 158880, Note_on_c, 7, 42, 90
9, 158939, Note_on_c, 7, 42, 0
9, 158940, Note_on_c, 7, 40, 90
9, 158999, Note_on_c, 7, 40, 0
9, 159000, Note_on_c, 7, 38, 90
9, 159059, Note_on_c, 7, 38, 0
9, 159060, Note_on_c, 7, 37, 90
9, 159119, Note_on_c, 7, 37, 0
9, 159120, Note_on_c, 7, 49, 90
9, 159179, Note_on_c, 7, 49, 0
9, 159180, Note_on_c, 7, 47, 90
9, 159239, Note_on_c, 7, 47, 0
9, 159240, Note_on_c, 7, 45, 90
9, 159359, Note_on_c, 7, 45, 0
9, 159360, Note_on_c, 7, 44, 90
9, 159419, Note_on_c, 7, 44, 0
9, 159420, Note_on_c, 7, 42, 90
9, 159449, Note_on_c, 7, 42, 0
9, 159450, Note_on_c, 7, 44, 90
9, 159479, Note_on_c, 7, 44, 0
9, 159480, Note_on_c, 7, 45, 90
9, 159509, Note_on_c, 7, 45, 0
9, 159510, Note_on_c, 7, 47, 90
9, 159539, Note_on_c, 7, 47, 0
9, 159540, Note_on_c, 7, 49, 90
9, 159599, Note_on_c, 7, 49, 0
9, 159600, Note_on_c, 7, 47, 90
9, 159719, Note_on_c, 7, 47, 0
9, 159720, Note_on_c, 7, 45, 90
9, 159779, Note_on_c, 7, 45, 0
9, 159780, Note_on_c, 7, 44, 90
9, 159839, Note_on_c, 7, 44, 0
9, 159840, Note_on_c, 7, 49, 90
9, 159899, Note_on_c, 7, 49, 0
9, 159900, Note_on_c, 7, 42, 90
9, 159959, Note_on_c, 7, 42, 0
9, 159960, Note_on_c, 7, 47, 90
9, 160019, Note_on_c, 7, 47, 0
9, 160020, Note_on_c, 7, 47, 90
9, 160079, Note_on_c, 7, 47, 0
9, 160080, Note_on_c, 7, 47, 90
9, 160139, Note_on_c, 7, 47, 0
9, 160140, Note_on_c, 7, 47, 90
9, 160199, Note_on_c, 7, 47, 0
9, 160200, Note_on_c, 7, 47, 90
9, 160259, Note_on_c, 7, 47, 0
9, 160260, Note_on_c, 7, 45, 90
9, 160319, Note_on_c, 7, 45, 0
9, 160320, Note_on_c, 7, 50, 90
9, 160379, Note_on_c, 7, 50, 0
9, 160380, Note_on_c, 7, 47, 90
9, 160439, Note_on_c, 7, 47, 0
9, 160440, Note_on_c, 7, 49, 90
9, 160499, Note_on_c, 7, 49, 0
9, 160500, Note_on_c, 7, 42, 90
9, 160679, Note_on_c, 7, 42, 0
9, 160680, Note_on_c, 7, 45, 90
9, 160739, Note_on_c, 7, 45, 0
9, 160740, Note_on_c, 7, 49, 90
9, 160799, Note_on_c, 7, 49, 0
9, 160800, Note_on_c, 7, 52, 90
9, 160859, Note_on_c, 7, 52, 0
9, 160860, Note_on_c, 7, 57, 90
9, 160919, Note_on_c, 7, 57, 0
9, 160920, Note_on_c, 7, 61, 90
9, 160979, Note_on_c, 7, 61, 0
9, 160980, Note_on_c, 7, 64, 90
9, 161039, Note_on_c, 7, 64, 0
9, 161040, Note_on_c, 7, 62, 90
9, 161159, Note_on_c, 7, 62, 0
9, 161160, Note_on_c, 7, 61, 90
9, 161219, Note_on_c, 7, 61, 0
9, 161220, Note_on_c, 7, 59, 90
9, 161279, Note_on_c, 7, 59, 0
9, 161280, Note_on_c, 7, 52, 90
9, 161339, Note_on_c, 7, 52, 0
9, 161340, Note_on_c, 7, 57, 90
9, 161399, Note_on_c, 7, 57, 0
9, 161400, Note_on_c, 7, 45, 90
9, 161459, Note_on_c, 7, 45, 0
9, 161460, Note_on_c, 7, 49, 90
9, 161519, Note_on_c, 7, 49, 0
9, 161520, Note_on_c, 7, 52, 90
9, 161579, Note_on_c, 7, 52, 0
9, 161580, Note_on_c, 7, 57, 90
9, 161639, Note_on_c, 7, 57, 0
9, 161640, Note_on_c, 7, 54, 90
9, 161699, Note_on_c, 7, 54, 0
9, 161700, Note_on_c, 7, 50, 90
9, 161759, Note_on_c, 7, 50, 0
9, 161760, Note_on_c, 7, 47, 90
9, 161819, Note_on_c, 7, 47, 0
9, 161820, Note_on_c, 7, 44, 90
9, 161879, Note_on_c, 7, 44, 0
9, 161880, Note_on_c, 7, 45, 90
9, 161939, Note_on_c, 7, 45, 0
9, 161940, Note_on_c, 7, 40, 90
9, 161999, Note_on_c, 7, 40, 0
9, 162000, Note_on_c, 7, 42, 90
9, 162029, Note_on_c, 7, 42, 0
9, 162030, Note_on_c, 7, 44, 90
9, 162059, Note_on_c, 7, 44, 0
9, 162060, Note_on_c, 7, 45, 90
9, 162089, Note_on_c, 7, 45, 0
9, 162090, Note_on_c, 7, 47, 90
9, 162119, Note_on_c, 7, 47, 0
9, 162120, Note_on_c, 7, 49, 90
9, 162239, Note_on_c, 7, 49, 0
9, 162240, Note_on_c, 7, 47, 90
9, 162299, Note_on_c, 7, 47, 0
9, 162300, Note_on_c, 7, 45, 90
9, 162359, Note_on_c, 7, 45, 0
9, 162360, Note_on_c, 7, 49, 90
9, 162419, Note_on_c, 7, 49, 0
9, 162420, Note_on_c, 7, 52, 90
9, 162479, Note_on_c, 7, 52, 0
9, 162480, Note_on_c, 7, 56, 90
9, 162599, Note_on_c, 7, 56, 0
9, 162600, Note_on_c, 7, 57, 90
9, 162719, Note_on_c, 7, 57, 0
9, 162720, Note_on_c, 7, 56, 90
9, 162779, Note_on_c, 7, 56, 0
9, 162780, Note_on_c, 7, 57, 90
9, 162839, Note_on_c, 7, 57, 0
9, 162840, Note_on_c, 7, 45, 90
9, 162899, Note_on_c, 7, 45, 0
9, 162900, Note_on_c, 7, 49, 90
9, 162959, Note_on_c, 7, 49, 0
9, 162960, Note_on_c, 7, 52, 90
9, 163019, Note_on_c, 7, 52, 0
9, 163020, Note_on_c, 7, 57, 90
9, 163079, Note_on_c, 7, 57, 0
9, 163080, Note_on_c, 7, 59, 90
9, 163139, Note_on_c, 7, 59, 0
9, 163140, Note_on_c, 7, 61, 90
9, 163199, Note_on_c, 7, 61, 0
9, 163200, Note_on_c, 7, 62, 90
9, 163259, Note_on_c, 7, 62, 0
9, 163260, Note_on_c, 7, 56, 90
9, 163319, Note_on_c, 7, 56, 0
9, 163320, Note_on_c, 7, 57, 90
9, 163379, Note_on_c, 7, 57, 0
9, 163380, Note_on_c, 7, 64, 90
9, 163439, Note_on_c, 7, 64, 0
9, 163440, Note_on_c, 7, 52, 90
9, 163499, Note_on_c, 7, 52, 0
9, 163500, Note_on_c, 7, 50, 90
9, 163559, Note_on_c, 7, 50, 0
9, 163560, Note_on_c, 7, 49, 90
9, 163619, Note_on_c, 7, 49, 0
9, 163620, Note_on_c, 7, 47, 90
9, 163679, Note_on_c, 7, 47, 0
9, 163680, Note_on_c, 7, 45, 90
9, 163739, Note_on_c, 7, 45, 0
9, 163740, Note_on_c, 7, 54, 90
9, 163799, Note_on_c, 7, 54, 0
9, 163800, Note_on_c, 7, 50, 90
9, 163859, Note_on_c, 7, 50, 0
9, 163860, Note_on_c, 7, 49, 90
9, 163919, Note_on_c, 7, 49, 0
9, 163920, Note_on_c, 7, 47, 90
9, 163979, Note_on_c, 7, 47, 0
9, 163980, Note_on_c, 7, 49, 90
9, 164039, Note_on_c, 7, 49, 0
9, 164040, Note_on_c, 7, 50, 90
9, 164099, Note_on_c, 7, 50, 0
9, 164100, Note_on_c, 7, 52, 90
9, 164159, Note_on_c, 7, 52, 0
9, 164160, Note_on_c, 7, 54, 90
9, 164219, Note_on_c, 7, 54, 0
9, 164220, Note_on_c, 7, 56, 90
9, 164279, Note_on_c, 7, 56, 0
9, 164280, Note_on_c, 7, 45, 90
9, 164339, Note_on_c, 7, 45, 0
9, 164340, Note_on_c, 7, 47, 90
9, 164399, Note_on_c, 7, 47, 0
9, 164400, Note_on_c, 7, 49, 90
9, 164459, Note_on_c, 7, 49, 0
9, 164460, Note_on_c, 7, 50, 90
9, 164519, Note_on_c, 7, 50, 0
9, 164520, Note_on_c, 7, 49, 90
9, 164579, Note_on_c, 7, 49, 0
9, 164580, Note_on_c, 7, 47, 90
9, 164639, Note_on_c, 7, 47, 0
9, 164640, Note_on_c, 7, 45, 90
9, 164699, Note_on_c, 7, 45, 0
9, 164700, Note_on_c, 7, 38, 90
9, 164759, Note_on_c, 7, 38, 0
9, 164760, Note_on_c, 7, 40, 90
9, 164819, Note_on_c, 7, 40, 0
9, 164820, Note_on_c, 7, 45, 90
9, 164879, Note_on_c, 7, 45, 0
9, 164880, Note_on_c, 7, 45, 90
9, 164909, Note_on_c, 7, 45, 0
9, 164910, Note_on_c, 7, 44, 90
9, 164939, Note_on_c, 7, 44, 0
9, 164940, Note_on_c, 7, 45, 90
9, 164969, Note_on_c, 7, 45, 0
9, 164970, Note_on_c, 7, 47, 90
9, 164999, Note_on_c, 7, 47, 0
9, 165000, Note_on_c, 7, 49, 90
9, 165059, Note_on_c, 7, 49, 0
9, 165060, Note_on_c, 7, 54, 90
9, 165119, Note_on_c, 7, 54, 0
9, 165120, Note_on_c, 7, 52, 90
9, 165179, Note_on_c, 7, 52, 0
9, 165180, Note_on_c, 7, 54, 90
9, 165239, Note_on_c, 7, 54, 0
9, 165240, Note_on_c, 7, 50, 90
9, 165299, Note_on_c, 7, 50, 0
9, 165300, Note_on_c, 7, 49, 90
9, 165359, Note_on_c, 7, 49, 0
9, 165360, Note_on_c, 7, 47, 90
9, 165419, Note_on_c, 7, 47, 0
9, 165420, Note_on_c, 7, 52, 90
9, 165479, Note_on_c, 7, 52, 0
9, 165480, Note_on_c, 7, 50, 90
9, 165539, Note_on_c, 7, 50, 0
9, 165540, Note_on_c, 7, 52, 90
9, 165599, Note_on_c, 7, 52, 0
9, 165600, Note_on_c, 7, 49, 90
9, 165659, Note_on_c, 7, 49, 0
9, 165660, Note_on_c, 7, 47, 90
9, 165719, Note_on_c, 7, 47, 0
9, 165720, Note_on_c, 7, 45, 90
9, 165779, Note_on_c, 7, 45, 0
9, 165780, Note_on_c, 7, 50, 90
9, 165839, Note_on_c, 7, 50, 0
9, 165840, Note_on_c, 7, 49, 90
9, 165899, Note_on_c, 7, 49, 0
9, 165900, Note_on_c, 7, 50, 90
9, 165959, Note_on_c, 7, 50, 0
9, 165960, Note_on_c, 7, 40, 90
9, 166019, Note_on_c, 7, 40, 0
9, 166020, Note_on_c, 7, 44, 90
9, 166079, Note_on_c, 7, 44, 0
9, 166080, Note_on_c, 7, 45, 90
9, 166139, Note_on_c, 7, 45, 0
9, 166140, Note_on_c, 7, 38, 90
9, 166199, Note_on_c, 7, 38, 0
9, 166200, Note_on_c, 7, 40, 90
9, 166259, Note_on_c, 7, 40, 0
9, 166260, Note_on_c, 7, 45, 90
9, 166379, Note_on_c, 7, 45, 0
9, 166440, Note_on_c, 7, 45, 90
9, 166469, Note_on_c, 7, 45, 0
9, 166470, Note_on_c, 7, 49, 90
9, 166499, Note_on_c, 7, 49, 0
9, 166500, Note_on_c, 7, 49, 90
9, 166529, Note_on_c, 7, 49, 0
9, 166530, Note_on_c, 7, 52, 90
9, 166559, Note_on_c, 7, 52, 0
9, 166560, Note_on_c, 7, 52, 90
9, 166589, Note_on_c, 7, 52, 0
9, 166590, Note_on_c, 7, 57, 90
9, 166619, Note_on_c, 7, 57, 0
9, 166620, Note_on_c, 7, 57, 90
9, 166679, Note_on_c, 7, 57, 0
9, 166680, Note_on_c, 7, 52, 90
9, 166739, Note_on_c, 7, 52, 0
9, 166830, Note_on_c, 7, 56, 90
9, 166859, Note_on_c, 7, 56, 0
9, 166860, Note_on_c, 7, 56, 90
9, 166889, Note_on_c, 7, 56, 0
9, 166890, Note_on_c, 7, 54, 90
9, 166919, Note_on_c, 7, 54, 0
9, 166920, Note_on_c, 7, 54, 90
9, 166949, Note_on_c, 7, 54, 0
9, 166950, Note_on_c, 7, 52, 90
9, 166979, Note_on_c, 7, 52, 0
9, 166980, Note_on_c, 7, 52, 90
9, 167039, Note_on_c, 7, 52, 0
9, 167040, Note_on_c, 7, 45, 90
9, 167099, Note_on_c, 7, 45, 0
9, 167190, Note_on_c, 7, 40, 90
9, 167219, Note_on_c, 7, 40, 0
9, 167220, Note_on_c, 7, 40, 90
9, 167249, Note_on_c, 7, 40, 0
9, 167250, Note_on_c, 7, 45, 90
9, 167279, Note_on_c, 7, 45, 0
9, 167280, Note_on_c, 7, 45, 90
9, 167309, Note_on_c, 7, 45, 0
9, 167310, Note_on_c, 7, 49, 90
9, 167339, Note_on_c, 7, 49, 0
9, 167340, Note_on_c, 7, 49, 90
9, 167399, Note_on_c, 7, 49, 0
9, 167400, Note_on_c, 7, 44, 90
9, 167459, Note_on_c, 7, 44, 0
9, 167550, Note_on_c, 7, 47, 90
9, 167579, Note_on_c, 7, 47, 0
9, 167580, Note_on_c, 7, 47, 90
9, 167609, Note_on_c, 7, 47, 0
9, 167610, Note_on_c, 7, 45, 90
9, 167639, Note_on_c, 7, 45, 0
9, 167640, Note_on_c, 7, 45, 90
9, 167669, Note_on_c, 7, 45, 0
9, 167670, Note_on_c, 7, 52, 90
9, 167699, Note_on_c, 7, 52, 0
9, 167700, Note_on_c, 7, 52, 90
9, 167759, Note_on_c, 7, 52, 0
9, 167760, Note_on_c, 7, 40, 90
9, 167819, Note_on_c, 7, 40, 0
9, 167880, Note_on_c, 7, 45, 90
9, 167909, Note_on_c, 7, 45, 0
9, 167910, Note_on_c, 7, 47, 90
9, 167939, Note_on_c, 7, 47, 0
9, 167940, Note_on_c, 7, 49, 90
9, 167969, Note_on_c, 7, 49, 0
9, 167970, Note_on_c, 7, 47, 90
9, 167999, Note_on_c, 7, 47, 0
9, 168000, Note_on_c, 7, 45, 90
9, 168029, Note_on_c, 7, 45, 0
9, 168030, Note_on_c, 7, 44, 90
9, 168059, Note_on_c, 7, 44, 0
9, 168060, Note_on_c, 7, 45, 90
9, 168089, Note_on_c, 7, 45, 0
9, 168090, Note_on_c, 7, 47, 90
9, 168119, Note_on_c, 7, 47, 0
9, 168120, Note_on_c, 7, 45, 90
9, 168149, Note_on_c, 7, 45, 0
9, 168150, Note_on_c, 7, 44, 90
9, 168179, Note_on_c, 7, 44, 0
9, 168180, Note_on_c, 7, 45, 90
9, 168209, Note_on_c, 7, 45, 0
9, 168210, Note_on_c, 7, 42, 90
9, 168239, Note_on_c, 7, 42, 0
9, 168240, Note_on_c, 7, 44, 90
9, 168269, Note_on_c, 7, 44, 0
9, 168270, Note_on_c, 7, 45, 90
9, 168299, Note_on_c, 7, 45, 0
9, 168300, Note_on_c, 7, 47, 90
9, 168329, Note_on_c, 7, 47, 0
9, 168330, Note_on_c, 7, 45, 90
9, 168359, Note_on_c, 7, 45, 0
9, 168360, Note_on_c, 7, 44, 90
9, 168389, Note_on_c, 7, 44, 0
9, 168390, Note_on_c, 7, 42, 90
9, 168419, Note_on_c, 7, 42, 0
9, 168420, Note_on_c, 7, 44, 90
9, 168449, Note_on_c, 7, 44, 0
9, 168450, Note_on_c, 7, 45, 90
9, 168479, Note_on_c, 7, 45, 0
9, 168480, Note_on_c, 7, 47, 90
9, 168509, Note_on_c, 7, 47, 0
9, 168510, Note_on_c, 7, 44, 90
9, 168539, Note_on_c, 7, 44, 0
9, 168540, Note_on_c, 7, 45, 90
9, 168569, Note_on_c, 7, 45, 0
9, 168570, Note_on_c, 7, 47, 90
9, 168599, Note_on_c, 7, 47, 0
9, 168600, Note_on_c, 7, 49, 90
9, 168629, Note_on_c, 7, 49, 0
9, 168630, Note_on_c, 7, 50, 90
9, 168659, Note_on_c, 7, 50, 0
9, 168660, Note_on_c, 7, 49, 90
9, 168689, Note_on_c, 7, 49, 0
9, 168690, Note_on_c, 7, 47, 90
9, 168719, Note_on_c, 7, 47, 0
9, 168720, Note_on_c, 7, 45, 90
9, 168749, Note_on_c, 7, 45, 0
9, 168750, Note_on_c, 7, 44, 90
9, 168779, Note_on_c, 7, 44, 0
9, 168780, Note_on_c, 7, 45, 90
9, 168809, Note_on_c, 7, 45, 0
9, 168810, Note_on_c, 7, 40, 90
9, 168839, Note_on_c, 7, 40, 0
9, 168840, Note_on_c, 7, 42, 90
9, 168869, Note_on_c, 7, 42, 0
9, 168870, Note_on_c, 7, 44, 90
9, 168899, Note_on_c, 7, 44, 0
9, 168900, Note_on_c, 7, 45, 90
9, 168929, Note_on_c, 7, 45, 0
9, 168930, Note_on_c, 7, 47, 90
9, 168959, Note_on_c, 7, 47, 0
9, 168960, Note_on_c, 7, 49, 90
9, 169019, Note_on_c, 7, 49, 0
9, 169020, Note_on_c, 7, 44, 90
9, 169079, Note_on_c, 7, 44, 0
9, 169080, Note_on_c, 7, 45, 90
9, 169139, Note_on_c, 7, 45, 0
9, 169140, Note_on_c, 7, 52, 90
9, 169169, Note_on_c, 7, 52, 0
9, 169170, Note_on_c, 7, 50, 90
9, 169199, Note_on_c, 7, 50, 0
9, 169200, Note_on_c, 7, 52, 90
9, 169229, Note_on_c, 7, 52, 0
9, 169230, Note_on_c, 7, 54, 90
9, 169259, Note_on_c, 7, 54, 0
9, 169260, Note_on_c, 7, 52, 90
9, 169289, Note_on_c, 7, 52, 0
9, 169290, Note_on_c, 7, 50, 90
9, 169319, Note_on_c, 7, 50, 0
9, 169320, Note_on_c, 7, 49, 90
9, 169349, Note_on_c, 7, 49, 0
9, 169350, Note_on_c, 7, 47, 90
9, 169379, Note_on_c, 7, 47, 0
9, 169380, Note_on_c, 7, 47, 90
9, 169409, Note_on_c, 7, 47, 0
9, 169410, Note_on_c, 7, 45, 90
9, 169439, Note_on_c, 7, 45, 0
9, 169440, Note_on_c, 7, 45, 90
9, 169469, Note_on_c, 7, 45, 0
9, 169470, Note_on_c, 7, 50, 90
9, 169499, Note_on_c, 7, 50, 0
9, 169500, Note_on_c, 7, 50, 90
9, 169559, Note_on_c, 7, 50, 0
9, 169560, Note_on_c, 7, 38, 90
9, 169619, Note_on_c, 7, 38, 0
9, 169710, Note_on_c, 7, 52, 90
9, 169739, Note_on_c, 7, 52, 0
9, 169740, Note_on_c, 7, 52, 90
9, 169769, Note_on_c, 7, 52, 0
9, 169770, Note_on_c, 7, 50, 90
9, 169799, Note_on_c, 7, 50, 0
9, 169800, Note_on_c, 7, 50, 90
9, 169829, Note_on_c, 7, 50, 0
9, 169830, Note_on_c, 7, 52, 90
9, 169859, Note_on_c, 7, 52, 0
9, 169860, Note_on_c, 7, 52, 90
9, 169919, Note_on_c, 7, 52, 0
9, 169920, Note_on_c, 7, 45, 90
9, 169979, Note_on_c, 7, 45, 0
9, 170070, Note_on_c, 7, 61, 90
9, 170099, Note_on_c, 7, 61, 0
9, 170100, Note_on_c, 7, 61, 90
9, 170129, Note_on_c, 7, 61, 0
9, 170130, Note_on_c, 7, 57, 90
9, 170159, Note_on_c, 7, 57, 0
9, 170160, Note_on_c, 7, 57, 90
9, 170189, Note_on_c, 7, 57, 0
9, 170190, Note_on_c, 7, 54, 90
9, 170219, Note_on_c, 7, 54, 0
9, 170220, Note_on_c, 7, 54, 90
9, 170279, Note_on_c, 7, 54, 0
9, 170280, Note_on_c, 7, 50, 90
9, 170339, Note_on_c, 7, 50, 0
9, 170430, Note_on_c, 7, 52, 90
9, 170459, Note_on_c, 7, 52, 0
9, 170460, Note_on_c, 7, 52, 90
9, 170489, Note_on_c, 7, 52, 0
9, 170490, Note_on_c, 7, 50, 90
9, 170519, Note_on_c, 7, 50, 0
9, 170520, Note_on_c, 7, 50, 90
9, 170549, Note_on_c, 7, 50, 0
9, 170550, Note_on_c, 7, 52, 90
9, 170579, Note_on_c, 7, 52, 0
9, 170580, Note_on_c, 7, 45, 90
9, 170639, Note_on_c, 7, 45, 0
9, 170640, Note_on_c, 7, 57, 90
9, 170699, Note_on_c, 7, 57, 0
9, 170760, Note_on_c, 7, 45, 90
9, 170789, Note_on_c, 7, 45, 0
9, 170790, Note_on_c, 7, 43, 90
9, 170819, Note_on_c, 7, 43, 0
9, 170820, Note_on_c, 7, 42, 90
9, 170849, Note_on_c, 7, 42, 0
9, 170850, Note_on_c, 7, 40, 90
9, 170879, Note_on_c, 7, 40, 0
9, 170880, Note_on_c, 7, 42, 90
9, 170909, Note_on_c, 7, 42, 0
9, 170910, Note_on_c, 7, 40, 90
9, 170939, Note_on_c, 7, 40, 0
9, 170940, Note_on_c, 7, 38, 90
9, 170969, Note_on_c, 7, 38, 0
9, 170970, Note_on_c, 7, 40, 90
9, 170999, Note_on_c, 7, 40, 0
9, 171000, Note_on_c, 7, 42, 90
9, 171029, Note_on_c, 7, 42, 0
9, 171030, Note_on_c, 7, 44, 90
9, 171059, Note_on_c, 7, 44, 0
9, 171060, Note_on_c, 7, 45, 90
9, 171089, Note_on_c, 7, 45, 0
9, 171090, Note_on_c, 7, 47, 90
9, 171119, Note_on_c, 7, 47, 0
9, 171120, Note_on_c, 7, 49, 90
9, 171149, Note_on_c, 7, 49, 0
9, 171150, Note_on_c, 7, 50, 90
9, 171179, Note_on_c, 7, 50, 0
9, 171180, Note_on_c, 7, 52, 90
9, 171209, Note_on_c, 7, 52, 0
9, 171210, Note_on_c, 7, 50, 90
9, 171239, Note_on_c, 7, 50, 0
9, 171240, Note_on_c, 7, 52, 90
9, 171269, Note_on_c, 7, 52, 0
9, 171270, Note_on_c, 7, 50, 90
9, 171299, Note_on_c, 7, 50, 0
9, 171300, Note_on_c, 7, 49, 90
9, 171329, Note_on_c, 7, 49, 0
9, 171330, Note_on_c, 7, 47, 90
9, 171359, Note_on_c, 7, 47, 0
9, 171360, Note_on_c, 7, 45, 90
9, 171389, Note_on_c, 7, 45, 0
9, 171390, Note_on_c, 7, 44, 90
9, 171419, Note_on_c, 7, 44, 0
9, 171420, Note_on_c, 7, 45, 90
9, 171449, Note_on_c, 7, 45, 0
9, 171450, Note_on_c, 7, 47, 90
9, 171479, Note_on_c, 7, 47, 0
9, 171480, Note_on_c, 7, 49, 90
9, 171509, Note_on_c, 7, 49, 0
9, 171510, Note_on_c, 7, 54, 90
9, 171539, Note_on_c, 7, 54, 0
9, 171540, Note_on_c, 7, 52, 90
9, 171569, Note_on_c, 7, 52, 0
9, 171570, Note_on_c, 7, 50, 90
9, 171599, Note_on_c, 7, 50, 0
9, 171600, Note_on_c, 7, 49, 90
9, 171629, Note_on_c, 7, 49, 0
9, 171630, Note_on_c, 7, 47, 90
9, 171659, Note_on_c, 7, 47, 0
9, 171660, Note_on_c, 7, 45, 90
9, 171689, Note_on_c, 7, 45, 0
9, 171690, Note_on_c, 7, 44, 90
9, 171719, Note_on_c, 7, 44, 0
9, 171720, Note_on_c, 7, 45, 90
9, 171749, Note_on_c, 7, 45, 0
9, 171750, Note_on_c, 7, 47, 90
9, 171779, Note_on_c, 7, 47, 0
9, 171780, Note_on_c, 7, 49, 90
9, 171809, Note_on_c, 7, 49, 0
9, 171810, Note_on_c, 7, 50, 90
9, 171839, Note_on_c, 7, 50, 0
9, 171840, Note_on_c, 7, 52, 90
9, 171899, Note_on_c, 7, 52, 0
9, 171900, Note_on_c, 7, 50, 90
9, 171959, Note_on_c, 7, 50, 0
9, 171960, Note_on_c, 7, 52, 90
9, 172019, Note_on_c, 7, 52, 0
9, 172020, Note_on_c, 7, 57, 90
9, 172079, Note_on_c, 7, 57, 0
9, 172080, Note_on_c, 7, 52, 90
9, 172139, Note_on_c, 7, 52, 0
9, 172140, Note_on_c, 7, 49, 90
9, 172199, Note_on_c, 7, 49, 0
9, 172200, Note_on_c, 7, 45, 90
9, 172259, Note_on_c, 7, 45, 0
9, 172320, Note_on_c, 7, 44, 90
9, 172379, Note_on_c, 7, 44, 0
9, 172380, Note_on_c, 7, 45, 90
9, 172439, Note_on_c, 7, 45, 0
9, 172500, Note_on_c, 7, 52, 90
9, 172559, Note_on_c, 7, 52, 0
9, 172560, Note_on_c, 7, 50, 90
9, 172619, Note_on_c, 7, 50, 0
9, 172680, Note_on_c, 7, 49, 90
9, 172739, Note_on_c, 7, 49, 0
9, 172740, Note_on_c, 7, 47, 90
9, 172799, Note_on_c, 7, 47, 0
9, 172860, Note_on_c, 7, 45, 90
9, 172919, Note_on_c, 7, 45, 0
9, 172920, Note_on_c, 7, 57, 90
9, 172979, Note_on_c, 7, 57, 0
9, 173040, Note_on_c, 7, 56, 90
9, 173099, Note_on_c, 7, 56, 0
9, 173100, Note_on_c, 7, 54, 90
9, 173159, Note_on_c, 7, 54, 0
9, 173220, Note_on_c, 7, 50, 90
9, 173279, Note_on_c, 7, 50, 0
9, 173280, Note_on_c, 7, 52, 90
9, 173339, Note_on_c, 7, 52, 0
9, 173400, Note_on_c, 7, 45, 90
9, 173459, Note_on_c, 7, 45, 0
9, 173460, Note_on_c, 7, 52, 90
9, 173549, Note_on_c, 7, 52, 0
9, 173550, Note_on_c, 7, 50, 90
9, 173579, Note_on_c, 7, 50, 0
9, 173580, Note_on_c, 7, 49, 90
9, 173609, Note_on_c, 7, 49, 0
9, 173610, Note_on_c, 7, 47, 90
9, 173639, Note_on_c, 7, 47, 0
9, 173640, Note_on_c, 7, 45, 90
9, 173699, Note_on_c, 7, 45, 0
9, 173820, Note_on_c, 7, 45, 90
9, 173849, Note_on_c, 7, 45, 0
9, 173850, Note_on_c, 7, 47, 90
9, 173879, Note_on_c, 7, 47, 0
9, 173880, Note_on_c, 7, 49, 90
9, 173909, Note_on_c, 7, 49, 0
9, 173910, Note_on_c, 7, 50, 90
9, 173939, Note_on_c, 7, 50, 0
9, 173940, Note_on_c, 7, 52, 90
9, 173999, Note_on_c, 7, 52, 0
9, 174180, Note_on_c, 7, 52, 90
9, 174209, Note_on_c, 7, 52, 0
9, 174210, Note_on_c, 7, 50, 90
9, 174239, Note_on_c, 7, 50, 0
9, 174240, Note_on_c, 7, 49, 90
9, 174269, Note_on_c, 7, 49, 0
9, 174270, Note_on_c, 7, 47, 90
9, 174299, Note_on_c, 7, 47, 0
9, 174300, Note_on_c, 7, 45, 90
9, 174359, Note_on_c, 7, 45, 0
9, 174540, Note_on_c, 7, 57, 90
9, 174569, Note_on_c, 7, 57, 0
9, 174570, Note_on_c, 7, 56, 90
9, 174599, Note_on_c, 7, 56, 0
9, 174600, Note_on_c, 7, 54, 90
9, 174629, Note_on_c, 7, 54, 0
9, 174630, Note_on_c, 7, 52, 90
9, 174659, Note_on_c, 7, 52, 0
9, 174660, Note_on_c, 7, 50, 90
9, 174719, Note_on_c, 7, 50, 0
9, 174780, Note_on_c, 7, 40, 90
9, 174839, Note_on_c, 7, 40, 0
9, 174840, Note_on_c, 7, 45, 90
9, 174899, Note_on_c, 7, 45, 0
9, 174900, Note_on_c, 7, 52, 90
9, 174959, Note_on_c, 7, 52, 0
9, 174960, Note_on_c, 7, 50, 90
9, 174989, Note_on_c, 7, 50, 0
9, 174990, Note_on_c, 7, 49, 90
9, 175019, Note_on_c, 7, 49, 0
9, 175020, Note_on_c, 7, 47, 90
9, 175049, Note_on_c, 7, 47, 0
9, 175050, Note_on_c, 7, 45, 90
9, 175079, Note_on_c, 7, 45, 0
9, 175080, Note_on_c, 7, 44, 90
9, 175139, Note_on_c, 7, 44, 0
9, 175200, Note_on_c, 7, 46, 90
9, 175259, Note_on_c, 7, 46, 0
9, 175260, Note_on_c, 7, 47, 90
9, 175319, Note_on_c, 7, 47, 0
9, 175380, Note_on_c, 7, 42, 90
9, 175439, Note_on_c, 7, 42, 0
9, 175440, Note_on_c, 7, 47, 90
9, 175499, Note_on_c, 7, 47, 0
9, 175560, Note_on_c, 7, 44, 90
9, 175619, Note_on_c, 7, 44, 0
9, 175620, Note_on_c, 7, 45, 90
9, 175679, Note_on_c, 7, 45, 0
9, 175740, Note_on_c, 7, 40, 90
9, 175799, Note_on_c, 7, 40, 0
9, 175800, Note_on_c, 7, 45, 90
9, 175859, Note_on_c, 7, 45, 0
9, 175920, Note_on_c, 7, 49, 90
9, 175979, Note_on_c, 7, 49, 0
9, 175980, Note_on_c, 7, 52, 90
9, 176039, Note_on_c, 7, 52, 0
9, 176100, Note_on_c, 7, 54, 90
9, 176159, Note_on_c, 7, 54, 0
9, 176160, Note_on_c, 7, 50, 90
9, 176219, Note_on_c, 7, 50, 0
9, 176280, Note_on_c, 7, 52, 90
9, 176339, Note_on_c, 7, 52, 0
9, 176340, Note_on_c, 7, 45, 90
9, 176429, Note_on_c, 7, 45, 0
9, 176430, Note_on_c, 7, 47, 90
9, 176459, Note_on_c, 7, 47, 0
9, 176460, Note_on_c, 7, 45, 90
9, 176489, Note_on_c, 7, 45, 0
9, 176490, Note_on_c, 7, 43, 90
9, 176519, Note_on_c, 7, 43, 0
9, 176520, Note_on_c, 7, 42, 90
9, 176579, Note_on_c, 7, 42, 0
9, 176760, Note_on_c, 7, 54, 90
9, 176789, Note_on_c, 7, 54, 0
9, 176790, Note_on_c, 7, 52, 90
9, 176819, Note_on_c, 7, 52, 0
9, 176820, Note_on_c, 7, 50, 90
9, 176849, Note_on_c, 7, 50, 0
9, 176850, Note_on_c, 7, 49, 90
9, 176879, Note_on_c, 7, 49, 0
9, 176880, Note_on_c, 7, 47, 90
9, 176939, Note_on_c, 7, 47, 0
9, 177120, Note_on_c, 7, 52, 90
9, 177149, Note_on_c, 7, 52, 0
9, 177150, Note_on_c, 7, 50, 90
9, 177179, Note_on_c, 7, 50, 0
9, 177180, Note_on_c, 7, 49, 90
9, 177209, Note_on_c, 7, 49, 0
9, 177210, Note_on_c, 7, 47, 90
9, 177239, Note_on_c, 7, 47, 0
9, 177240, Note_on_c, 7, 45, 90
9, 177299, Note_on_c, 7, 45, 0
9, 177450, Note_on_c, 7, 50, 90
9, 177479, Note_on_c, 7, 50, 0
9, 177480, Note_on_c, 7, 49, 90
9, 177509, Note_on_c, 7, 49, 0
9, 177510, Note_on_c, 7, 47, 90
9, 177539, Note_on_c, 7, 47, 0
9, 177540, Note_on_c, 7, 45, 90
9, 177569, Note_on_c, 7, 45, 0
9, 177570, Note_on_c, 7, 44, 90
9, 177599, Note_on_c, 7, 44, 0
9, 177600, Note_on_c, 7, 42, 90
9, 177658, Note_on_c, 7, 42, 0
9, 177660, Note_on_c, 7, 38, 90
9, 177718, Note_on_c, 7, 38, 0
9, 177720, Note_on_c, 7, 40, 90
9, 177778, Note_on_c, 7, 40, 0
9, 177780, Note_on_c, 7, 45, 90
9, 177900, Note_on_c, 7, 45, 0
9, 177960, Note_on_c, 7, 42, 90
9, 178440, Note_on_c, 7, 42, 0
9, 178440, Note_on_c, 7, 51, 90
9, 178920, Note_on_c, 7, 51, 0
9, 178920, Note_on_c, 7, 52, 90
9, 179400, Note_on_c, 7, 52, 0
9, 179400, Note_on_c, 7, 43, 90
9, 179640, Note_on_c, 7, 43, 0
9, 179640, Note_on_c, 7, 42, 90
9, 179880, Note_on_c, 7, 42, 0
9, 179880, Note_on_c, 7, 51, 90
9, 180120, Note_on_c, 7, 51, 0
9, 180120, Note_on_c, 7, 43, 90
9, 180240, Note_on_c, 7, 43, 0
9, 180240, Note_on_c, 7, 48, 90
9, 180360, Note_on_c, 7, 48, 0
9, 180480, Note_on_c, 7, 47, 90
9, 180600, Note_on_c, 7, 47, 0
9, 180600, Note_on_c, 7, 52, 90
9, 180840, Note_on_c, 7, 52, 0
9, 181140, Note_on_c, 7, 43, 90
9, 181199, Note_on_c, 7, 43, 0
9, 181200, Note_on_c, 7, 47, 90
9, 181259, Note_on_c, 7, 47, 0
9, 181260, Note_on_c, 7, 45, 90
9, 181319, Note_on_c, 7, 45, 0
9, 181320, Note_on_c, 7, 43, 90
9, 181379, Note_on_c, 7, 43, 0
9, 181380, Note_on_c, 7, 50, 90
9, 181439, Note_on_c, 7, 50, 0
9, 181440, Note_on_c, 7, 52, 90
9, 181499, Note_on_c, 7, 52, 0
9, 181500, Note_on_c, 7, 54, 90
9, 181559, Note_on_c, 7, 54, 0
9, 181560, Note_on_c, 7, 55, 90
9, 181619, Note_on_c, 7, 55, 0
9, 181620, Note_on_c, 7, 57, 90
9, 181679, Note_on_c, 7, 57, 0
9, 181680, Note_on_c, 7, 55, 90
9, 181739, Note_on_c, 7, 55, 0
9, 181740, Note_on_c, 7, 62, 90
9, 181799, Note_on_c, 7, 62, 0
9, 181800, Note_on_c, 7, 54, 90
9, 181859, Note_on_c, 7, 54, 0
9, 181860, Note_on_c, 7, 50, 90
9, 181919, Note_on_c, 7, 50, 0
9, 181920, Note_on_c, 7, 55, 90
9, 182039, Note_on_c, 7, 55, 0
9, 182040, Note_on_c, 7, 48, 90
9, 182099, Note_on_c, 7, 48, 0
9, 182100, Note_on_c, 7, 50, 90
9, 182219, Note_on_c, 7, 50, 0
9, 182220, Note_on_c, 7, 38, 90
9, 182279, Note_on_c, 7, 38, 0
9, 182280, Note_on_c, 7, 43, 90
9, 182339, Note_on_c, 7, 43, 0
9, 182340, Note_on_c, 7, 47, 90
9, 182399, Note_on_c, 7, 47, 0
9, 182400, Note_on_c, 7, 50, 90
9, 182459, Note_on_c, 7, 50, 0
9, 182460, Note_on_c, 7, 55, 90
9, 182519, Note_on_c, 7, 55, 0
9, 182520, Note_on_c, 7, 50, 90
9, 182579, Note_on_c, 7, 50, 0
9, 182580, Note_on_c, 7, 47, 90
9, 182639, Note_on_c, 7, 47, 0
9, 182640, Note_on_c, 7, 43, 90
9, 182819, Note_on_c, 7, 43, 0
9, 182820, Note_on_c, 7, 42, 90
9, 182999, Note_on_c, 7, 42, 0
9, 183000, Note_on_c, 7, 43, 90
9, 183179, Note_on_c, 7, 43, 0
9, 183180, Note_on_c, 7, 50, 90
9, 183359, Note_on_c, 7, 50, 0
9, 183360, Note_on_c, 7, 55, 90
9, 183479, Note_on_c, 7, 55, 0
9, 183480, Note_on_c, 7, 43, 90
9, 183539, Note_on_c, 7, 43, 0
9, 183540, Note_on_c, 7, 50, 90
9, 183659, Note_on_c, 7, 50, 0
9, 183660, Note_on_c, 7, 38, 90
9, 183719, Note_on_c, 7, 38, 0
9, 183720, Note_on_c, 7, 43, 90
9, 183779, Note_on_c, 7, 43, 0
9, 183780, Note_on_c, 7, 47, 90
9, 183839, Note_on_c, 7, 47, 0
9, 183840, Note_on_c, 7, 50, 90
9, 183899, Note_on_c, 7, 50, 0
9, 183900, Note_on_c, 7, 55, 90
9, 183959, Note_on_c, 7, 55, 0
9, 183960, Note_on_c, 7, 57, 90
9, 184019, Note_on_c, 7, 57, 0
9, 184020, Note_on_c, 7, 55, 90
9, 184079, Note_on_c, 7, 55, 0
9, 184080, Note_on_c, 7, 54, 90
9, 184139, Note_on_c, 7, 54, 0
9, 184140, Note_on_c, 7, 52, 90
9, 184199, Note_on_c, 7, 52, 0
9, 184200, Note_on_c, 7, 54, 90
9, 184259, Note_on_c, 7, 54, 0
9, 184260, Note_on_c, 7, 54, 90
9, 184319, Note_on_c, 7, 54, 0
9, 184320, Note_on_c, 7, 52, 90
9, 184379, Note_on_c, 7, 52, 0
9, 184380, Note_on_c, 7, 50, 90
9, 184439, Note_on_c, 7, 50, 0
9, 184440, Note_on_c, 7, 55, 90
9, 184559, Note_on_c, 7, 55, 0
9, 184560, Note_on_c, 7, 43, 90
9, 184619, Note_on_c, 7, 43, 0
9, 184620, Note_on_c, 7, 50, 90
9, 184739, Note_on_c, 7, 50, 0
9, 184740, Note_on_c, 7, 55, 90
9, 184799, Note_on_c, 7, 55, 0
9, 184800, Note_on_c, 7, 54, 90
9, 184859, Note_on_c, 7, 54, 0
9, 184860, Note_on_c, 7, 52, 90
9, 184919, Note_on_c, 7, 52, 0
9, 184920, Note_on_c, 7, 54, 90
9, 184979, Note_on_c, 7, 54, 0
9, 184980, Note_on_c, 7, 54, 90
9, 185039, Note_on_c, 7, 54, 0
9, 185040, Note_on_c, 7, 52, 90
9, 185099, Note_on_c, 7, 52, 0
9, 185100, Note_on_c, 7, 50, 90
9, 185159, Note_on_c, 7, 50, 0
9, 185160, Note_on_c, 7, 55, 90
9, 185279, Note_on_c, 7, 55, 0
9, 185280, Note_on_c, 7, 43, 90
9, 185339, Note_on_c, 7, 43, 0
9, 185340, Note_on_c, 7, 50, 90
9, 185459, Note_on_c, 7, 50, 0
9, 185460, Note_on_c, 7, 48, 90
9, 185519, Note_on_c, 7, 48, 0
9, 185520, Note_on_c, 7, 47, 90
9, 185579, Note_on_c, 7, 47, 0
9, 185580, Note_on_c, 7, 45, 90
9, 185639, Note_on_c, 7, 45, 0
9, 185640, Note_on_c, 7, 43, 90
9, 185699, Note_on_c, 7, 43, 0
9, 185700, Note_on_c, 7, 42, 90
9, 185759, Note_on_c, 7, 42, 0
9, 185760, Note_on_c, 7, 40, 90
9, 185819, Note_on_c, 7, 40, 0
9, 185820, Note_on_c, 7, 38, 90
9, 185879, Note_on_c, 7, 38, 0
9, 185880, Note_on_c, 7, 43, 90
9, 185939, Note_on_c, 7, 43, 0
9, 185940, Note_on_c, 7, 47, 90
9, 185999, Note_on_c, 7, 47, 0
9, 186000, Note_on_c, 7, 43, 90
9, 186059, Note_on_c, 7, 43, 0
9, 186060, Note_on_c, 7, 50, 90
9, 186119, Note_on_c, 7, 50, 0
9, 186120, Note_on_c, 7, 54, 90
9, 186179, Note_on_c, 7, 54, 0
9, 186180, Note_on_c, 7, 50, 90
9, 186239, Note_on_c, 7, 50, 0
9, 186240, Note_on_c, 7, 55, 90
9, 186359, Note_on_c, 7, 55, 0
9, 186360, Note_on_c, 7, 43, 90
9, 186419, Note_on_c, 7, 43, 0
9, 186420, Note_on_c, 7, 50, 90
9, 186539, Note_on_c, 7, 50, 0
9, 186540, Note_on_c, 7, 38, 90
9, 186599, Note_on_c, 7, 38, 0
9, 186600, Note_on_c, 7, 43, 90
9, 186659, Note_on_c, 7, 43, 0
9, 186660, Note_on_c, 7, 47, 90
9, 186719, Note_on_c, 7, 47, 0
9, 186720, Note_on_c, 7, 50, 90
9, 186779, Note_on_c, 7, 50, 0
9, 186780, Note_on_c, 7, 55, 90
9, 186839, Note_on_c, 7, 55, 0
9, 186840, Note_on_c, 7, 59, 90
9, 186899, Note_on_c, 7, 59, 0
9, 186900, Note_on_c, 7, 55, 90
9, 186959, Note_on_c, 7, 55, 0
9, 186960, Note_on_c, 7, 54, 90
9, 187019, Note_on_c, 7, 54, 0
9, 187020, Note_on_c, 7, 52, 90
9, 187049, Note_on_c, 7, 52, 0
9, 187050, Note_on_c, 7, 54, 90
9, 187079, Note_on_c, 7, 54, 0
9, 187080, Note_on_c, 7, 55, 90
9, 187109, Note_on_c, 7, 55, 0
9, 187110, Note_on_c, 7, 52, 90
9, 187139, Note_on_c, 7, 52, 0
9, 187140, Note_on_c, 7, 54, 90
9, 187199, Note_on_c, 7, 54, 0
9, 187200, Note_on_c, 7, 55, 90
9, 187229, Note_on_c, 7, 55, 0
9, 187230, Note_on_c, 7, 54, 90
9, 187259, Note_on_c, 7, 54, 0
9, 187260, Note_on_c, 7, 52, 90
9, 187289, Note_on_c, 7, 52, 0
9, 187290, Note_on_c, 7, 50, 90
9, 187319, Note_on_c, 7, 50, 0
9, 187320, Note_on_c, 7, 55, 90
9, 187379, Note_on_c, 7, 55, 0
9, 187380, Note_on_c, 7, 57, 90
9, 187409, Note_on_c, 7, 57, 0
9, 187410, Note_on_c, 7, 55, 90
9, 187439, Note_on_c, 7, 55, 0
9, 187440, Note_on_c, 7, 54, 90
9, 187469, Note_on_c, 7, 54, 0
9, 187470, Note_on_c, 7, 52, 90
9, 187499, Note_on_c, 7, 52, 0
9, 187500, Note_on_c, 7, 54, 90
9, 187559, Note_on_c, 7, 54, 0
9, 187560, Note_on_c, 7, 50, 90
9, 187619, Note_on_c, 7, 50, 0
9, 187620, Note_on_c, 7, 55, 90
9, 187649, Note_on_c, 7, 55, 0
9, 187650, Note_on_c, 7, 57, 90
9, 187679, Note_on_c, 7, 57, 0
9, 187680, Note_on_c, 7, 59, 90
9, 187739, Note_on_c, 7, 59, 0
9, 187740, Note_on_c, 7, 60, 90
9, 187799, Note_on_c, 7, 60, 0
9, 187800, Note_on_c, 7, 59, 90
9, 187859, Note_on_c, 7, 59, 0
9, 187860, Note_on_c, 7, 54, 90
9, 187919, Note_on_c, 7, 54, 0
9, 187920, Note_on_c, 7, 55, 90
9, 187979, Note_on_c, 7, 55, 0
9, 187980, Note_on_c, 7, 57, 90
9, 188039, Note_on_c, 7, 57, 0
9, 188040, Note_on_c, 7, 55, 90
9, 188099, Note_on_c, 7, 55, 0
9, 188100, Note_on_c, 7, 54, 90
9, 188159, Note_on_c, 7, 54, 0
9, 188160, Note_on_c, 7, 55, 90
9, 188219, Note_on_c, 7, 55, 0
9, 188220, Note_on_c, 7, 54, 90
9, 188279, Note_on_c, 7, 54, 0
9, 188280, Note_on_c, 7, 50, 90
9, 188339, Note_on_c, 7, 50, 0
9, 188340, Note_on_c, 7, 48, 90
9, 188399, Note_on_c, 7, 48, 0
9, 188400, Note_on_c, 7, 47, 90
9, 188459, Note_on_c, 7, 47, 0
9, 188460, Note_on_c, 7, 48, 90
9, 188489, Note_on_c, 7, 48, 0
9, 188490, Note_on_c, 7, 47, 90
9, 188519, Note_on_c, 7, 47, 0
9, 188520, Note_on_c, 7, 45, 90
9, 188549, Note_on_c, 7, 45, 0
9, 188550, Note_on_c, 7, 43, 90
9, 188579, Note_on_c, 7, 43, 0
9, 188580, Note_on_c, 7, 42, 90
9, 188639, Note_on_c, 7, 42, 0
9, 188640, Note_on_c, 7, 43, 90
9, 188669, Note_on_c, 7, 43, 0
9, 188670, Note_on_c, 7, 42, 90
9, 188699, Note_on_c, 7, 42, 0
9, 188700, Note_on_c, 7, 40, 90
9, 188729, Note_on_c, 7, 40, 0
9, 188730, Note_on_c, 7, 38, 90
9, 188759, Note_on_c, 7, 38, 0
9, 188760, Note_on_c, 7, 43, 90
9, 188789, Note_on_c, 7, 43, 0
9, 188790, Note_on_c, 7, 42, 90
9, 188819, Note_on_c, 7, 42, 0
9, 188820, Note_on_c, 7, 43, 90
9, 188849, Note_on_c, 7, 43, 0
9, 188850, Note_on_c, 7, 45, 90
9, 188879, Note_on_c, 7, 45, 0
9, 188880, Note_on_c, 7, 47, 90
9, 188909, Note_on_c, 7, 47, 0
9, 188910, Note_on_c, 7, 48, 90
9, 188939, Note_on_c, 7, 48, 0
9, 188940, Note_on_c, 7, 50, 90
9, 188969, Note_on_c, 7, 50, 0
9, 188970, Note_on_c, 7, 48, 90
9, 188999, Note_on_c, 7, 48, 0
9, 189000, Note_on_c, 7, 50, 90
9, 189029, Note_on_c, 7, 50, 0
9, 189030, Note_on_c, 7, 52, 90
9, 189059, Note_on_c, 7, 52, 0
9, 189060, Note_on_c, 7, 54, 90
9, 189089, Note_on_c, 7, 54, 0
9, 189090, Note_on_c, 7, 50, 90
9, 189119, Note_on_c, 7, 50, 0
9, 189120, Note_on_c, 7, 55, 90
9, 189239, Note_on_c, 7, 55, 0
9, 189240, Note_on_c, 7, 48, 90
9, 189299, Note_on_c, 7, 48, 0
9, 189300, Note_on_c, 7, 50, 90
9, 189419, Note_on_c, 7, 50, 0
9, 189420, Note_on_c, 7, 38, 90
9, 189479, Note_on_c, 7, 38, 0
9, 189480, Note_on_c, 7, 43, 90
9, 189840, Note_on_c, 7, 43, 0
9, 189840, Note_on_c, 7, 49, 90
9, 189960, Note_on_c, 7, 49, 0
9, 190140, Note_on_c, 7, 45, 90
9, 190200, Note_on_c, 7, 45, 0
9, 190200, Note_on_c, 7, 50, 90
9, 190320, Note_on_c, 7, 50, 0
9, 190320, Note_on_c, 7, 55, 90
9, 190380, Note_on_c, 7, 55, 0
9, 190380, Note_on_c, 7, 49, 90
9, 190500, Note_on_c, 7, 49, 0
9, 190500, Note_on_c, 7, 54, 90
9, 190560, Note_on_c, 7, 54, 0
9, 190560, Note_on_c, 7, 47, 90
9, 191040, Note_on_c, 7, 47, 0
9, 191040, Note_on_c, 7, 42, 90
9, 191520, Note_on_c, 7, 42, 0
9, 191520, Note_on_c, 7, 40, 90
9, 191760, Note_on_c, 7, 40, 0
9, 191760, Note_on_c, 7, 38, 90
9, 192000, Note_on_c, 7, 38, 0
9, 192000, Note_on_c, 7, 44, 90
9, 192720, Note_on_c, 7, 44, 0
9, 192720, Note_on_c, 7, 45, 90
9, 192960, Note_on_c, 7, 45, 0
9, 192960, Note_on_c, 7, 38, 90
9, 193079, Note_on_c, 7, 38, 0
9, 193080, Note_on_c, 7, 50, 90
9, 193319, Note_on_c, 7, 50, 0
9, 193320, Note_on_c, 7, 54, 90
9, 193439, Note_on_c, 7, 54, 0
9, 193440, Note_on_c, 7, 47, 90
9, 193679, Note_on_c, 7, 47, 0
9, 193680, Note_on_c, 7, 52, 90
9, 193739, Note_on_c, 7, 52, 0
9, 193740, Note_on_c, 7, 50, 90
9, 193799, Note_on_c, 7, 50, 0
9, 193800, Note_on_c, 7, 49, 90
9, 193859, Note_on_c, 7, 49, 0
9, 193860, Note_on_c, 7, 47, 90
9, 193919, Note_on_c, 7, 47, 0
9, 193920, Note_on_c, 7, 49, 90
9, 193979, Note_on_c, 7, 49, 0
9, 193980, Note_on_c, 7, 50, 90
9, 194039, Note_on_c, 7, 50, 0
9, 194040, Note_on_c, 7, 52, 90
9, 194159, Note_on_c, 7, 52, 0
9, 194160, Note_on_c, 7, 49, 90
9, 194279, Note_on_c, 7, 49, 0
9, 194280, Note_on_c, 7, 45, 90
9, 194399, Note_on_c, 7, 45, 0
9, 194400, Note_on_c, 7, 42, 90
9, 194519, Note_on_c, 7, 42, 0
9, 194520, Note_on_c, 7, 38, 90
9, 194759, Note_on_c, 7, 38, 0
9, 194760, Note_on_c, 7, 42, 90
9, 194879, Note_on_c, 7, 42, 0
9, 194880, Note_on_c, 7, 47, 90
9, 195119, Note_on_c, 7, 47, 0
9, 195120, Note_on_c, 7, 52, 90
9, 195179, Note_on_c, 7, 52, 0
9, 195180, Note_on_c, 7, 50, 90
9, 195239, Note_on_c, 7, 50, 0
9, 195240, Note_on_c, 7, 49, 90
9, 195299, Note_on_c, 7, 49, 0
9, 195300, Note_on_c, 7, 47, 90
9, 195359, Note_on_c, 7, 47, 0
9, 195360, Note_on_c, 7, 49, 90
9, 195419, Note_on_c, 7, 49, 0
9, 195420, Note_on_c, 7, 50, 90
9, 195479, Note_on_c, 7, 50, 0
9, 195480, Note_on_c, 7, 52, 90
9, 195599, Note_on_c, 7, 52, 0
9, 195600, Note_on_c, 7, 45, 90
9, 195719, Note_on_c, 7, 45, 0
9, 195720, Note_on_c, 7, 49, 90
9, 195839, Note_on_c, 7, 49, 0
9, 195840, Note_on_c, 7, 45, 90
9, 195959, Note_on_c, 7, 45, 0
9, 195960, Note_on_c, 7, 50, 90
9, 196079, Note_on_c, 7, 50, 0
9, 196080, Note_on_c, 7, 54, 90
9, 196199, Note_on_c, 7, 54, 0
9, 196200, Note_on_c, 7, 57, 90
9, 196319, Note_on_c, 7, 57, 0
9, 196320, Note_on_c, 7, 54, 90
9, 196439, Note_on_c, 7, 54, 0
9, 196440, Note_on_c, 7, 50, 90
9, 196559, Note_on_c, 7, 50, 0
9, 196560, Note_on_c, 7, 49, 90
9, 196679, Note_on_c, 7, 49, 0
9, 196680, Note_on_c, 7, 50, 90
9, 196799, Note_on_c, 7, 50, 0
9, 196800, Note_on_c, 7, 54, 90
9, 196919, Note_on_c, 7, 54, 0
9, 196920, Note_on_c, 7, 52, 90
9, 197039, Note_on_c, 7, 52, 0
9, 197040, Note_on_c, 7, 50, 90
9, 197159, Note_on_c, 7, 50, 0
9, 197160, Note_on_c, 7, 54, 90
9, 197279, Note_on_c, 7, 54, 0
9, 197280, Note_on_c, 7, 57, 90
9, 197399, Note_on_c, 7, 57, 0
9, 197400, Note_on_c, 7, 62, 90
9, 197519, Note_on_c, 7, 62, 0
9, 197520, Note_on_c, 7, 54, 90
9, 197639, Note_on_c, 7, 54, 0
9, 197640, Note_on_c, 7, 57, 90
9, 197759, Note_on_c, 7, 57, 0
9, 197760, Note_on_c, 7, 50, 90
9, 197879, Note_on_c, 7, 50, 0
9, 197880, Note_on_c, 7, 49, 90
9, 197939, Note_on_c, 7, 49, 0
9, 197940, Note_on_c, 7, 47, 90
9, 197999, Note_on_c, 7, 47, 0
9, 198000, Note_on_c, 7, 49, 90
9, 198059, Note_on_c, 7, 49, 0
9, 198060, Note_on_c, 7, 45, 90
9, 198119, Note_on_c, 7, 45, 0
9, 198120, Note_on_c, 7, 50, 90
9, 198239, Note_on_c, 7, 50, 0
9, 198240, Note_on_c, 7, 54, 90
9, 198359, Note_on_c, 7, 54, 0
9, 198360, Note_on_c, 7, 52, 90
9, 198479, Note_on_c, 7, 52, 0
9, 198480, Note_on_c, 7, 50, 90
9, 198599, Note_on_c, 7, 50, 0
9, 198600, Note_on_c, 7, 54, 90
9, 198719, Note_on_c, 7, 54, 0
9, 198720, Note_on_c, 7, 57, 90
9, 198839, Note_on_c, 7, 57, 0
9, 198840, Note_on_c, 7, 62, 90
9, 198959, Note_on_c, 7, 62, 0
9, 198960, Note_on_c, 7, 54, 90
9, 199079, Note_on_c, 7, 54, 0
9, 199080, Note_on_c, 7, 57, 90
9, 199199, Note_on_c, 7, 57, 0
9, 199200, Note_on_c, 7, 50, 90
9, 199439, Note_on_c, 7, 50, 0
9, 199560, Note_on_c, 7, 47, 90
9, 200160, Note_on_c, 7, 47, 0
9, 200160, Note_on_c, 7, 46, 90
9, 200280, Note_on_c, 7, 46, 0
9, 200280, Note_on_c, 7, 47, 90
9, 200760, Note_on_c, 7, 47, 0
9, 200760, Note_on_c, 7, 52, 90
9, 201000, Note_on_c, 7, 52, 0
9, 201000, Note_on_c, 7, 49, 90
9, 201120, Note_on_c, 7, 49, 0
9, 201120, Note_on_c, 7, 54, 90
9, 201240, Note_on_c, 7, 54, 0
9, 201360, Note_on_c, 7, 52, 90
9, 201480, Note_on_c, 7, 52, 0
9, 201480, Note_on_c, 7, 45, 90
9, 201960, Note_on_c, 7, 45, 0
9, 202260, Note_on_c, 7, 52, 90
9, 202319, Note_on_c, 7, 52, 0
9, 202320, Note_on_c, 7, 57, 90
9, 202379, Note_on_c, 7, 57, 0
9, 202380, Note_on_c, 7, 61, 90
9, 202439, Note_on_c, 7, 61, 0
9, 202440, Note_on_c, 7, 57, 90
9, 202499, Note_on_c, 7, 57, 0
9, 202500, Note_on_c, 7, 56, 90
9, 202559, Note_on_c, 7, 56, 0
9, 202560, Note_on_c, 7, 52, 90
9, 202619, Note_on_c, 7, 52, 0
9, 202620, Note_on_c, 7, 57, 90
9, 202679, Note_on_c, 7, 57, 0
9, 202680, Note_on_c, 7, 49, 90
9, 202739, Note_on_c, 7, 49, 0
9, 202740, Note_on_c, 7, 50, 90
9, 202769, Note_on_c, 7, 50, 0
9, 202770, Note_on_c, 7, 47, 90
9, 202799, Note_on_c, 7, 47, 0
9, 202800, Note_on_c, 7, 49, 90
9, 202829, Note_on_c, 7, 49, 0
9, 202830, Note_on_c, 7, 45, 90
9, 202859, Note_on_c, 7, 45, 0
9, 202860, Note_on_c, 7, 50, 90
9, 202919, Note_on_c, 7, 50, 0
9, 202920, Note_on_c, 7, 62, 90
9, 202979, Note_on_c, 7, 62, 0
9, 202980, Note_on_c, 7, 50, 90
9, 203039, Note_on_c, 7, 50, 0
9, 203040, Note_on_c, 7, 52, 90
9, 203069, Note_on_c, 7, 52, 0
9, 203070, Note_on_c, 7, 56, 90
9, 203099, Note_on_c, 7, 56, 0
9, 203100, Note_on_c, 7, 52, 90
9, 203129, Note_on_c, 7, 52, 0
9, 203130, Note_on_c, 7, 56, 90
9, 203159, Note_on_c, 7, 56, 0
9, 203160, Note_on_c, 7, 52, 90
9, 203189, Note_on_c, 7, 52, 0
9, 203190, Note_on_c, 7, 56, 90
9, 203219, Note_on_c, 7, 56, 0
9, 203220, Note_on_c, 7, 49, 90
9, 203279, Note_on_c, 7, 49, 0
9, 203280, Note_on_c, 7, 61, 90
9, 203339, Note_on_c, 7, 61, 0
9, 203340, Note_on_c, 7, 49, 90
9, 203399, Note_on_c, 7, 49, 0
9, 203400, Note_on_c, 7, 50, 90
9, 203429, Note_on_c, 7, 50, 0
9, 203430, Note_on_c, 7, 54, 90
9, 203459, Note_on_c, 7, 54, 0
9, 203460, Note_on_c, 7, 50, 90
9, 203489, Note_on_c, 7, 50, 0
9, 203490, Note_on_c, 7, 54, 90
9, 203519, Note_on_c, 7, 54, 0
9, 203520, Note_on_c, 7, 50, 90
9, 203549, Note_on_c, 7, 50, 0
9, 203550, Note_on_c, 7, 54, 90
9, 203579, Note_on_c, 7, 54, 0
9, 203580, Note_on_c, 7, 47, 90
9, 203639, Note_on_c, 7, 47, 0
9, 203640, Note_on_c, 7, 49, 90
9, 203699, Note_on_c, 7, 49, 0
9, 203700, Note_on_c, 7, 50, 90
9, 203759, Note_on_c, 7, 50, 0
9, 203760, Note_on_c, 7, 52, 90
9, 203819, Note_on_c, 7, 52, 0
9, 203820, Note_on_c, 7, 54, 90
9, 203879, Note_on_c, 7, 54, 0
9, 203880, Note_on_c, 7, 56, 90
9, 203939, Note_on_c, 7, 56, 0
9, 203940, Note_on_c, 7, 57, 90
9, 203999, Note_on_c, 7, 57, 0
9, 204000, Note_on_c, 7, 50, 90
9, 204059, Note_on_c, 7, 50, 0
9, 204060, Note_on_c, 7, 52, 90
9, 204119, Note_on_c, 7, 52, 0
9, 204120, Note_on_c, 7, 54, 90
9, 204179, Note_on_c, 7, 54, 0
9, 204180, Note_on_c, 7, 52, 90
9, 204239, Note_on_c, 7, 52, 0
9, 204240, Note_on_c, 7, 50, 90
9, 204299, Note_on_c, 7, 50, 0
9, 204300, Note_on_c, 7, 49, 90
9, 204359, Note_on_c, 7, 49, 0
9, 204360, Note_on_c, 7, 50, 90
9, 204419, Note_on_c, 7, 50, 0
9, 204420, Note_on_c, 7, 52, 90
9, 204479, Note_on_c, 7, 52, 0
9, 204480, Note_on_c, 7, 45, 90
9, 204539, Note_on_c, 7, 45, 0
9, 204540, Note_on_c, 7, 47, 90
9, 204599, Note_on_c, 7, 47, 0
9, 204600, Note_on_c, 7, 49, 90
9, 204659, Note_on_c, 7, 49, 0
9, 204660, Note_on_c, 7, 42, 90
9, 204719, Note_on_c, 7, 42, 0
9, 204720, Note_on_c, 7, 38, 90
9, 204779, Note_on_c, 7, 38, 0
9, 204780, Note_on_c, 7, 40, 90
9, 204839, Note_on_c, 7, 40, 0
9, 204840, Note_on_c, 7, 45, 90
9, 204959, Note_on_c, 7, 45, 0
9, 205140, Note_on_c, 7, 52, 90
9, 205200, Note_on_c, 7, 52, 0
9, 205200, Note_on_c, 7, 59, 90
9, 205260, Note_on_c, 7, 59, 0
9, 205260, Note_on_c, 7, 61, 90
9, 205320, Note_on_c, 7, 61, 0
9, 205320, Note_on_c, 7, 57, 90
9, 205380, Note_on_c, 7, 57, 0
9, 205380, Note_on_c, 7, 56, 90
9, 205440, Note_on_c, 7, 56, 0
9, 205440, Note_on_c, 7, 52, 90
9, 205500, Note_on_c, 7, 52, 0
9, 205500, Note_on_c, 7, 57, 90
9, 205560, Note_on_c, 7, 57, 0
9, 205560, Note_on_c, 7, 49, 90
9, 205619, Note_on_c, 7, 49, 0
9, 205620, Note_on_c, 7, 50, 90
9, 205649, Note_on_c, 7, 50, 0
9, 205650, Note_on_c, 7, 47, 90
9, 205679, Note_on_c, 7, 47, 0
9, 205680, Note_on_c, 7, 49, 90
9, 205709, Note_on_c, 7, 49, 0
9, 205710, Note_on_c, 7, 45, 90
9, 205739, Note_on_c, 7, 45, 0
9, 205740, Note_on_c, 7, 50, 90
9, 205799, Note_on_c, 7, 50, 0
9, 205800, Note_on_c, 7, 62, 90
9, 205859, Note_on_c, 7, 62, 0
9, 205860, Note_on_c, 7, 50, 90
9, 205919, Note_on_c, 7, 50, 0
9, 205920, Note_on_c, 7, 52, 90
9, 205949, Note_on_c, 7, 52, 0
9, 205950, Note_on_c, 7, 56, 90
9, 205979, Note_on_c, 7, 56, 0
9, 205980, Note_on_c, 7, 52, 90
9, 206009, Note_on_c, 7, 52, 0
9, 206010, Note_on_c, 7, 56, 90
9, 206039, Note_on_c, 7, 56, 0
9, 206040, Note_on_c, 7, 52, 90
9, 206069, Note_on_c, 7, 52, 0
9, 206070, Note_on_c, 7, 56, 90
9, 206099, Note_on_c, 7, 56, 0
9, 206100, Note_on_c, 7, 49, 90
9, 206159, Note_on_c, 7, 49, 0
9, 206160, Note_on_c, 7, 61, 90
9, 206219, Note_on_c, 7, 61, 0
9, 206220, Note_on_c, 7, 49, 90
9, 206279, Note_on_c, 7, 49, 0
9, 206280, Note_on_c, 7, 50, 90
9, 206309, Note_on_c, 7, 50, 0
9, 206310, Note_on_c, 7, 54, 90
9, 206339, Note_on_c, 7, 54, 0
9, 206340, Note_on_c, 7, 50, 90
9, 206369, Note_on_c, 7, 50, 0
9, 206370, Note_on_c, 7, 54, 90
9, 206399, Note_on_c, 7, 54, 0
9, 206400, Note_on_c, 7, 50, 90
9, 206429, Note_on_c, 7, 50, 0
9, 206430, Note_on_c, 7, 54, 90
9, 206459, Note_on_c, 7, 54, 0
9, 206460, Note_on_c, 7, 47, 90
9, 206519, Note_on_c, 7, 47, 0
9, 206520, Note_on_c, 7, 49, 90
9, 206579, Note_on_c, 7, 49, 0
9, 206580, Note_on_c, 7, 50, 90
9, 206639, Note_on_c, 7, 50, 0
9, 206640, Note_on_c, 7, 52, 90
9, 206699, Note_on_c, 7, 52, 0
9, 206700, Note_on_c, 7, 54, 90
9, 206759, Note_on_c, 7, 54, 0
9, 206760, Note_on_c, 7, 56, 90
9, 206819, Note_on_c, 7, 56, 0
9, 206820, Note_on_c, 7, 57, 90
9, 206879, Note_on_c, 7, 57, 0
9, 206880, Note_on_c, 7, 50, 90
9, 206939, Note_on_c, 7, 50, 0
9, 206940, Note_on_c, 7, 52, 90
9, 206999, Note_on_c, 7, 52, 0
9, 207000, Note_on_c, 7, 45, 90
9, 207059, Note_on_c, 7, 45, 0
9, 207060, Note_on_c, 7, 57, 90
9, 207119, Note_on_c, 7, 57, 0
9, 207120, Note_on_c, 7, 52, 90
9, 207179, Note_on_c, 7, 52, 0
9, 207180, Note_on_c, 7, 49, 90
9, 207239, Note_on_c, 7, 49, 0
9, 207240, Note_on_c, 7, 45, 90
9, 207299, Note_on_c, 7, 45, 0
9, 207300, Note_on_c, 7, 52, 90
9, 207359, Note_on_c, 7, 52, 0
9, 207360, Note_on_c, 7, 57, 90
9, 207419, Note_on_c, 7, 57, 0
9, 207420, Note_on_c, 7, 61, 90
9, 207479, Note_on_c, 7, 61, 0
9, 207480, Note_on_c, 7, 57, 90
9, 207539, Note_on_c, 7, 57, 0
9, 207540, Note_on_c, 7, 56, 90
9, 207599, Note_on_c, 7, 56, 0
9, 207600, Note_on_c, 7, 52, 90
9, 207659, Note_on_c, 7, 52, 0
9, 207660, Note_on_c, 7, 57, 90
9, 207719, Note_on_c, 7, 57, 0
9, 207720, Note_on_c, 7, 49, 90
9, 207779, Note_on_c, 7, 49, 0
9, 207780, Note_on_c, 7, 50, 90
9, 207809, Note_on_c, 7, 50, 0
9, 207810, Note_on_c, 7, 47, 90
9, 207839, Note_on_c, 7, 47, 0
9, 207840, Note_on_c, 7, 49, 90
9, 207869, Note_on_c, 7, 49, 0
9, 207870, Note_on_c, 7, 45, 90
9, 207899, Note_on_c, 7, 45, 0
9, 207900, Note_on_c, 7, 50, 90
9, 207959, Note_on_c, 7, 50, 0
9, 207960, Note_on_c, 7, 62, 90
9, 208019, Note_on_c, 7, 62, 0
9, 208020, Note_on_c, 7, 50, 90
9, 208079, Note_on_c, 7, 50, 0
9, 208080, Note_on_c, 7, 52, 90
9, 208109, Note_on_c, 7, 52, 0
9, 208110, Note_on_c, 7, 56, 90
9, 208139, Note_on_c, 7, 56, 0
9, 208140, Note_on_c, 7, 52, 90
9, 208169, Note_on_c, 7, 52, 0
9, 208170, Note_on_c, 7, 56, 90
9, 208199, Note_on_c, 7, 56, 0
9, 208200, Note_on_c, 7, 52, 90
9, 208229, Note_on_c, 7, 52, 0
9, 208230, Note_on_c, 7, 56, 90
9, 208259, Note_on_c, 7, 56, 0
9, 208260, Note_on_c, 7, 49, 90
9, 208319, Note_on_c, 7, 49, 0
9, 208320, Note_on_c, 7, 61, 90
9, 208379, Note_on_c, 7, 61, 0
9, 208380, Note_on_c, 7, 49, 90
9, 208439, Note_on_c, 7, 49, 0
9, 208440, Note_on_c, 7, 50, 90
9, 208469, Note_on_c, 7, 50, 0
9, 208470, Note_on_c, 7, 54, 90
9, 208499, Note_on_c, 7, 54, 0
9, 208500, Note_on_c, 7, 50, 90
9, 208529, Note_on_c, 7, 50, 0
9, 208530, Note_on_c, 7, 54, 90
9, 208559, Note_on_c, 7, 54, 0
9, 208560, Note_on_c, 7, 50, 90
9, 208589, Note_on_c, 7, 50, 0
9, 208590, Note_on_c, 7, 54, 90
9, 208619, Note_on_c, 7, 54, 0
9, 208620, Note_on_c, 7, 47, 90
9, 208679, Note_on_c, 7, 47, 0
9, 208680, Note_on_c, 7, 59, 90
9, 208739, Note_on_c, 7, 59, 0
9, 208800, Note_on_c, 7, 52, 90
9, 208859, Note_on_c, 7, 52, 0
9, 208860, Note_on_c, 7, 56, 90
9, 208919, Note_on_c, 7, 56, 0
9, 208920, Note_on_c, 7, 52, 90
9, 208979, Note_on_c, 7, 52, 0
9, 208980, Note_on_c, 7, 57, 90
9, 209039, Note_on_c, 7, 57, 0
9, 209040, Note_on_c, 7, 49, 90
9, 209099, Note_on_c, 7, 49, 0
9, 209100, Note_on_c, 7, 52, 90
9, 209159, Note_on_c, 7, 52, 0
9, 209160, Note_on_c, 7, 45, 90
9, 209219, Note_on_c, 7, 45, 0
9, 209220, Note_on_c, 7, 49, 90
9, 209279, Note_on_c, 7, 49, 0
9, 209280, Note_on_c, 7, 45, 90
9, 209339, Note_on_c, 7, 45, 0
9, 209340, Note_on_c, 7, 52, 90
9, 209399, Note_on_c, 7, 52, 0
9, 209400, Note_on_c, 7, 56, 90
9, 209459, Note_on_c, 7, 56, 0
9, 209460, Note_on_c, 7, 54, 90
9, 209519, Note_on_c, 7, 54, 0
9, 209520, Note_on_c, 7, 52, 90
9, 209579, Note_on_c, 7, 52, 0
9, 209580, Note_on_c, 7, 47, 90
9, 209609, Note_on_c, 7, 47, 0
9, 209610, Note_on_c, 7, 49, 90
9, 209639, Note_on_c, 7, 49, 0
9, 209640, Note_on_c, 7, 51, 90
9, 209669, Note_on_c, 7, 51, 0
9, 209670, Note_on_c, 7, 52, 90
9, 209699, Note_on_c, 7, 52, 0
9, 209700, Note_on_c, 7, 54, 90
9, 209759, Note_on_c, 7, 54, 0
9, 209760, Note_on_c, 7, 51, 90
9, 209819, Note_on_c, 7, 51, 0
9, 209820, Note_on_c, 7, 52, 90
9, 209879, Note_on_c, 7, 52, 0
9, 209880, Note_on_c, 7, 47, 90
9, 209939, Note_on_c, 7, 47, 0
9, 209940, Note_on_c, 7, 49, 90
9, 209999, Note_on_c, 7, 49, 0
9, 210000, Note_on_c, 7, 51, 90
9, 210059, Note_on_c, 7, 51, 0
9, 210060, Note_on_c, 7, 52, 90
9, 210119, Note_on_c, 7, 52, 0
9, 210120, Note_on_c, 7, 45, 90
9, 210179, Note_on_c, 7, 45, 0
9, 210180, Note_on_c, 7, 47, 90
9, 210239, Note_on_c, 7, 47, 0
9, 210240, Note_on_c, 7, 49, 90
9, 210299, Note_on_c, 7, 49, 0
9, 210300, Note_on_c, 7, 47, 90
9, 210359, Note_on_c, 7, 47, 0
9, 210360, Note_on_c, 7, 45, 90
9, 210419, Note_on_c, 7, 45, 0
9, 210420, Note_on_c, 7, 44, 90
9, 210479, Note_on_c, 7, 44, 0
9, 210480, Note_on_c, 7, 45, 90
9, 210539, Note_on_c, 7, 45, 0
9, 210540, Note_on_c, 7, 47, 90
9, 210599, Note_on_c, 7, 47, 0
9, 210600, Note_on_c, 7, 40, 90
9, 210659, Note_on_c, 7, 40, 0
9, 210660, Note_on_c, 7, 42, 90
9, 210719, Note_on_c, 7, 42, 0
9, 210720, Note_on_c, 7, 44, 90
9, 210779, Note_on_c, 7, 44, 0
9, 210780, Note_on_c, 7, 45, 90
9, 210839, Note_on_c, 7, 45, 0
9, 210840, Note_on_c, 7, 57, 90
9, 210899, Note_on_c, 7, 57, 0
9, 210900, Note_on_c, 7, 56, 90
9, 210959, Note_on_c, 7, 56, 0
9, 210960, Note_on_c, 7, 54, 90
9, 210989, Note_on_c, 7, 54, 0
9, 210990, Note_on_c, 7, 52, 90
9, 211019, Note_on_c, 7, 52, 0
9, 211020, Note_on_c, 7, 51, 90
9, 211049, Note_on_c, 7, 51, 0
9, 211050, Note_on_c, 7, 52, 90
9, 211079, Note_on_c, 7, 52, 0
9, 211080, Note_on_c, 7, 54, 90
9, 211109, Note_on_c, 7, 54, 0
9, 211110, Note_on_c, 7, 51, 90
9, 211139, Note_on_c, 7, 51, 0
9, 211140, Note_on_c, 7, 44, 90
9, 211199, Note_on_c, 7, 44, 0
9, 211200, Note_on_c, 7, 56, 90
9, 211259, Note_on_c, 7, 56, 0
9, 211260, Note_on_c, 7, 54, 90
9, 211319, Note_on_c, 7, 54, 0
9, 211320, Note_on_c, 7, 52, 90
9, 211349, Note_on_c, 7, 52, 0
9, 211350, Note_on_c, 7, 51, 90
9, 211379, Note_on_c, 7, 51, 0
9, 211380, Note_on_c, 7, 49, 90
9, 211409, Note_on_c, 7, 49, 0
9, 211410, Note_on_c, 7, 51, 90
9, 211439, Note_on_c, 7, 51, 0
9, 211440, Note_on_c, 7, 52, 90
9, 211469, Note_on_c, 7, 52, 0
9, 211470, Note_on_c, 7, 49, 90
9, 211499, Note_on_c, 7, 49, 0
9, 211500, Note_on_c, 7, 42, 90
9, 211559, Note_on_c, 7, 42, 0
9, 211560, Note_on_c, 7, 54, 90
9, 211619, Note_on_c, 7, 54, 0
9, 211620, Note_on_c, 7, 52, 90
9, 211679, Note_on_c, 7, 52, 0
9, 211680, Note_on_c, 7, 51, 90
9, 211739, Note_on_c, 7, 51, 0
9, 211740, Note_on_c, 7, 52, 90
9, 211799, Note_on_c, 7, 52, 0
9, 211800, Note_on_c, 7, 54, 90
9, 211859, Note_on_c, 7, 54, 0
9, 211860, Note_on_c, 7, 47, 90
9, 211919, Note_on_c, 7, 47, 0
9, 211920, Note_on_c, 7, 51, 90
9, 211979, Note_on_c, 7, 51, 0
9, 211980, Note_on_c, 7, 54, 90
9, 212039, Note_on_c, 7, 54, 0
9, 212040, Note_on_c, 7, 51, 90
9, 212099, Note_on_c, 7, 51, 0
9, 212100, Note_on_c, 7, 47, 90
9, 212159, Note_on_c, 7, 47, 0
9, 212160, Note_on_c, 7, 45, 90
9, 212219, Note_on_c, 7, 45, 0
9, 212220, Note_on_c, 7, 44, 90
9, 212249, Note_on_c, 7, 44, 0
9, 212250, Note_on_c, 7, 47, 90
9, 212279, Note_on_c, 7, 47, 0
9, 212280, Note_on_c, 7, 44, 90
9, 212309, Note_on_c, 7, 44, 0
9, 212310, Note_on_c, 7, 47, 90
9, 212339, Note_on_c, 7, 47, 0
9, 212340, Note_on_c, 7, 44, 90
9, 212369, Note_on_c, 7, 44, 0
9, 212370, Note_on_c, 7, 47, 90
9, 212399, Note_on_c, 7, 47, 0
9, 212400, Note_on_c, 7, 49, 90
9, 212429, Note_on_c, 7, 49, 0
9, 212430, Note_on_c, 7, 52, 90
9, 212459, Note_on_c, 7, 52, 0
9, 212460, Note_on_c, 7, 49, 90
9, 212489, Note_on_c, 7, 49, 0
9, 212490, Note_on_c, 7, 52, 90
9, 212519, Note_on_c, 7, 52, 0
9, 212520, Note_on_c, 7, 49, 90
9, 212549, Note_on_c, 7, 49, 0
9, 212550, Note_on_c, 7, 52, 90
9, 212579, Note_on_c, 7, 52, 0
9, 212580, Note_on_c, 7, 57, 90
9, 212639, Note_on_c, 7, 57, 0
9, 212640, Note_on_c, 7, 59, 90
9, 212699, Note_on_c, 7, 59, 0
9, 212700, Note_on_c, 7, 47, 90
9, 212759, Note_on_c, 7, 47, 0
9, 212760, Note_on_c, 7, 40, 90
9, 212879, Note_on_c, 7, 40, 0
9, 213060, Note_on_c, 7, 47, 90
9, 213119, Note_on_c, 7, 47, 0
9, 213120, Note_on_c, 7, 52, 90
9, 213179, Note_on_c, 7, 52, 0
9, 213180, Note_on_c, 7, 56, 90
9, 213239, Note_on_c, 7, 56, 0
9, 213240, Note_on_c, 7, 52, 90
9, 213299, Note_on_c, 7, 52, 0
9, 213300, Note_on_c, 7, 51, 90
9, 213359, Note_on_c, 7, 51, 0
9, 213360, Note_on_c, 7, 47, 90
9, 213419, Note_on_c, 7, 47, 0
9, 213420, Note_on_c, 7, 52, 90
9, 213479, Note_on_c, 7, 52, 0
9, 213480, Note_on_c, 7, 56, 90
9, 213539, Note_on_c, 7, 56, 0
9, 213540, Note_on_c, 7, 57, 90
9, 213569, Note_on_c, 7, 57, 0
9, 213570, Note_on_c, 7, 54, 90
9, 213599, Note_on_c, 7, 54, 0
9, 213600, Note_on_c, 7, 56, 90
9, 213629, Note_on_c, 7, 56, 0
9, 213630, Note_on_c, 7, 52, 90
9, 213659, Note_on_c, 7, 52, 0
9, 213660, Note_on_c, 7, 57, 90
9, 213719, Note_on_c, 7, 57, 0
9, 213720, Note_on_c, 7, 45, 90
9, 213779, Note_on_c, 7, 45, 0
9, 213780, Note_on_c, 7, 57, 90
9, 213839, Note_on_c, 7, 57, 0
9, 213840, Note_on_c, 7, 59, 90
9, 213869, Note_on_c, 7, 59, 0
9, 213870, Note_on_c, 7, 63, 90
9, 213899, Note_on_c, 7, 63, 0
9, 213900, Note_on_c, 7, 59, 90
9, 213929, Note_on_c, 7, 59, 0
9, 213930, Note_on_c, 7, 63, 90
9, 213959, Note_on_c, 7, 63, 0
9, 213960, Note_on_c, 7, 59, 90
9, 213989, Note_on_c, 7, 59, 0
9, 213990, Note_on_c, 7, 63, 90
9, 214019, Note_on_c, 7, 63, 0
9, 214020, Note_on_c, 7, 56, 90
9, 214079, Note_on_c, 7, 56, 0
9, 214080, Note_on_c, 7, 44, 90
9, 214139, Note_on_c, 7, 44, 0
9, 214140, Note_on_c, 7, 56, 90
9, 214199, Note_on_c, 7, 56, 0
9, 214200, Note_on_c, 7, 57, 90
9, 214229, Note_on_c, 7, 57, 0
9, 214230, Note_on_c, 7, 61, 90
9, 214259, Note_on_c, 7, 61, 0
9, 214260, Note_on_c, 7, 57, 90
9, 214289, Note_on_c, 7, 57, 0
9, 214290, Note_on_c, 7, 61, 90
9, 214319, Note_on_c, 7, 61, 0
9, 214320, Note_on_c, 7, 57, 90
9, 214349, Note_on_c, 7, 57, 0
9, 214350, Note_on_c, 7, 61, 90
9, 214379, Note_on_c, 7, 61, 0
9, 214380, Note_on_c, 7, 54, 90
9, 214439, Note_on_c, 7, 54, 0
9, 214440, Note_on_c, 7, 56, 90
9, 214499, Note_on_c, 7, 56, 0
9, 214500, Note_on_c, 7, 57, 90
9, 214619, Note_on_c, 7, 57, 0
9, 214620, Note_on_c, 7, 56, 90
9, 214649, Note_on_c, 7, 56, 0
9, 214650, Note_on_c, 7, 54, 90
9, 214679, Note_on_c, 7, 54, 0
9, 214680, Note_on_c, 7, 52, 90
9, 214709, Note_on_c, 7, 52, 0
9, 214710, Note_on_c, 7, 51, 90
9, 214739, Note_on_c, 7, 51, 0
9, 214740, Note_on_c, 7, 52, 90
9, 214799, Note_on_c, 7, 52, 0
9, 214800, Note_on_c, 7, 44, 90
9, 214859, Note_on_c, 7, 44, 0
9, 214860, Note_on_c, 7, 47, 90
9, 214919, Note_on_c, 7, 47, 0
9, 214920, Note_on_c, 7, 40, 90
9, 214979, Note_on_c, 7, 40, 0
9, 214980, Note_on_c, 7, 52, 90
9, 215009, Note_on_c, 7, 52, 0
9, 215010, Note_on_c, 7, 54, 90
9, 215039, Note_on_c, 7, 54, 0
9, 215040, Note_on_c, 7, 56, 90
9, 215069, Note_on_c, 7, 56, 0
9, 215070, Note_on_c, 7, 52, 90
9, 215099, Note_on_c, 7, 52, 0
9, 215100, Note_on_c, 7, 57, 90
9, 215159, Note_on_c, 7, 57, 0
9, 215160, Note_on_c, 7, 45, 90
9, 215219, Note_on_c, 7, 45, 0
9, 215220, Note_on_c, 7, 57, 90
9, 215279, Note_on_c, 7, 57, 0
9, 215280, Note_on_c, 7, 56, 90
9, 215339, Note_on_c, 7, 56, 0
9, 215340, Note_on_c, 7, 57, 90
9, 215369, Note_on_c, 7, 57, 0
9, 215370, Note_on_c, 7, 56, 90
9, 215399, Note_on_c, 7, 56, 0
9, 215400, Note_on_c, 7, 54, 90
9, 215429, Note_on_c, 7, 54, 0
9, 215430, Note_on_c, 7, 52, 90
9, 215459, Note_on_c, 7, 52, 0
9, 215460, Note_on_c, 7, 57, 90
9, 215519, Note_on_c, 7, 57, 0
9, 215520, Note_on_c, 7, 56, 90
9, 215579, Note_on_c, 7, 56, 0
9, 215580, Note_on_c, 7, 54, 90
9, 215639, Note_on_c, 7, 54, 0
9, 215640, Note_on_c, 7, 52, 90
9, 215699, Note_on_c, 7, 52, 0
9, 215700, Note_on_c, 7, 54, 90
9, 215759, Note_on_c, 7, 54, 0
9, 215760, Note_on_c, 7, 56, 90
9, 215819, Note_on_c, 7, 56, 0
9, 215820, Note_on_c, 7, 57, 90
9, 215849, Note_on_c, 7, 57, 0
9, 215850, Note_on_c, 7, 52, 90
9, 215879, Note_on_c, 7, 52, 0
9, 215880, Note_on_c, 7, 57, 90
9, 215909, Note_on_c, 7, 57, 0
9, 215910, Note_on_c, 7, 52, 90
9, 215939, Note_on_c, 7, 52, 0
9, 215940, Note_on_c, 7, 57, 90
9, 215969, Note_on_c, 7, 57, 0
9, 215970, Note_on_c, 7, 52, 90
9, 215999, Note_on_c, 7, 52, 0
9, 216000, Note_on_c, 7, 56, 90
9, 216029, Note_on_c, 7, 56, 0
9, 216030, Note_on_c, 7, 52, 90
9, 216059, Note_on_c, 7, 52, 0
9, 216060, Note_on_c, 7, 56, 90
9, 216089, Note_on_c, 7, 56, 0
9, 216090, Note_on_c, 7, 52, 90
9, 216119, Note_on_c, 7, 52, 0
9, 216120, Note_on_c, 7, 56, 90
9, 216149, Note_on_c, 7, 56, 0
9, 216150, Note_on_c, 7, 52, 90
9, 216179, Note_on_c, 7, 52, 0
9, 216180, Note_on_c, 7, 57, 90
9, 216209, Note_on_c, 7, 57, 0
9, 216210, Note_on_c, 7, 52, 90
9, 216239, Note_on_c, 7, 52, 0
9, 216240, Note_on_c, 7, 57, 90
9, 216269, Note_on_c, 7, 57, 0
9, 216270, Note_on_c, 7, 52, 90
9, 216299, Note_on_c, 7, 52, 0
9, 216300, Note_on_c, 7, 57, 90
9, 216329, Note_on_c, 7, 57, 0
9, 216330, Note_on_c, 7, 52, 90
9, 216359, Note_on_c, 7, 52, 0
9, 216360, Note_on_c, 7, 56, 90
9, 216389, Note_on_c, 7, 56, 0
9, 216390, Note_on_c, 7, 57, 90
9, 216419, Note_on_c, 7, 57, 0
9, 216420, Note_on_c, 7, 56, 90
9, 216449, Note_on_c, 7, 56, 0
9, 216450, Note_on_c, 7, 54, 90
9, 216479, Note_on_c, 7, 54, 0
9, 216480, Note_on_c, 7, 52, 90
9, 216509, Note_on_c, 7, 52, 0
9, 216510, Note_on_c, 7, 50, 90
9, 216539, Note_on_c, 7, 50, 0
9, 216540, Note_on_c, 7, 49, 90
9, 216599, Note_on_c, 7, 49, 0
9, 216600, Note_on_c, 7, 45, 90
9, 216659, Note_on_c, 7, 45, 0
9, 216660, Note_on_c, 7, 52, 90
9, 216719, Note_on_c, 7, 52, 0
9, 216720, Note_on_c, 7, 57, 90
9, 216779, Note_on_c, 7, 57, 0
9, 216780, Note_on_c, 7, 61, 90
9, 216839, Note_on_c, 7, 61, 0
9, 216840, Note_on_c, 7, 57, 90
9, 216899, Note_on_c, 7, 57, 0
9, 216900, Note_on_c, 7, 56, 90
9, 216959, Note_on_c, 7, 56, 0
9, 216960, Note_on_c, 7, 52, 90
9, 217019, Note_on_c, 7, 52, 0
9, 217020, Note_on_c, 7, 57, 90
9, 217079, Note_on_c, 7, 57, 0
9, 217080, Note_on_c, 7, 49, 90
9, 217139, Note_on_c, 7, 49, 0
9, 217140, Note_on_c, 7, 50, 90
9, 217169, Note_on_c, 7, 50, 0
9, 217170, Note_on_c, 7, 47, 90
9, 217199, Note_on_c, 7, 47, 0
9, 217200, Note_on_c, 7, 49, 90
9, 217229, Note_on_c, 7, 49, 0
9, 217230, Note_on_c, 7, 45, 90
9, 217259, Note_on_c, 7, 45, 0
9, 217260, Note_on_c, 7, 50, 90
9, 217319, Note_on_c, 7, 50, 0
9, 217320, Note_on_c, 7, 62, 90
9, 217379, Note_on_c, 7, 62, 0
9, 217380, Note_on_c, 7, 50, 90
9, 217439, Note_on_c, 7, 50, 0
9, 217440, Note_on_c, 7, 52, 90
9, 217469, Note_on_c, 7, 52, 0
9, 217470, Note_on_c, 7, 56, 90
9, 217499, Note_on_c, 7, 56, 0
9, 217500, Note_on_c, 7, 52, 90
9, 217529, Note_on_c, 7, 52, 0
9, 217530, Note_on_c, 7, 56, 90
9, 217559, Note_on_c, 7, 56, 0
9, 217560, Note_on_c, 7, 52, 90
9, 217589, Note_on_c, 7, 52, 0
9, 217590, Note_on_c, 7, 56, 90
9, 217619, Note_on_c, 7, 56, 0
9, 217620, Note_on_c, 7, 49, 90
9, 217679, Note_on_c, 7, 49, 0
9, 217680, Note_on_c, 7, 61, 90
9, 217739, Note_on_c, 7, 61, 0
9, 217740, Note_on_c, 7, 49, 90
9, 217799, Note_on_c, 7, 49, 0
9, 217800, Note_on_c, 7, 50, 90
9, 217829, Note_on_c, 7, 50, 0
9, 217830, Note_on_c, 7, 54, 90
9, 217859, Note_on_c, 7, 54, 0
9, 217860, Note_on_c, 7, 50, 90
9, 217889, Note_on_c, 7, 50, 0
9, 217890, Note_on_c, 7, 54, 90
9, 217919, Note_on_c, 7, 54, 0
9, 217920, Note_on_c, 7, 50, 90
9, 217949, Note_on_c, 7, 50, 0
9, 217950, Note_on_c, 7, 54, 90
9, 217979, Note_on_c, 7, 54, 0
9, 217980, Note_on_c, 7, 47, 90
9, 218039, Note_on_c, 7, 47, 0
9, 218040, Note_on_c, 7, 49, 90
9, 218099, Note_on_c, 7, 49, 0
9, 218100, Note_on_c, 7, 50, 90
9, 218159, Note_on_c, 7, 50, 0
9, 218160, Note_on_c, 7, 52, 90
9, 218219, Note_on_c, 7, 52, 0
9, 218220, Note_on_c, 7, 56, 90
9, 218279, Note_on_c, 7, 56, 0
9, 218280, Note_on_c, 7, 52, 90
9, 218339, Note_on_c, 7, 52, 0
9, 218340, Note_on_c, 7, 57, 90
9, 218399, Note_on_c, 7, 57, 0
9, 218400, Note_on_c, 7, 50, 90
9, 218429, Note_on_c, 7, 50, 0
9, 218430, Note_on_c, 7, 49, 90
9, 218459, Note_on_c, 7, 49, 0
9, 218460, Note_on_c, 7, 50, 90
9, 218579, Note_on_c, 7, 50, 0
9, 218580, Note_on_c, 7, 49, 90
9, 218639, Note_on_c, 7, 49, 0
9, 218640, Note_on_c, 7, 47, 90
9, 218699, Note_on_c, 7, 47, 0
9, 218700, Note_on_c, 7, 49, 90
9, 218759, Note_on_c, 7, 49, 0
9, 218760, Note_on_c, 7, 50, 90
9, 218819, Note_on_c, 7, 50, 0
9, 218820, Note_on_c, 7, 52, 90
9, 218879, Note_on_c, 7, 52, 0
9, 218880, Note_on_c, 7, 45, 90
9, 218939, Note_on_c, 7, 45, 0
9, 218940, Note_on_c, 7, 47, 90
9, 218999, Note_on_c, 7, 47, 0
9, 219000, Note_on_c, 7, 49, 90
9, 219059, Note_on_c, 7, 49, 0
9, 219060, Note_on_c, 7, 42, 90
9, 219119, Note_on_c, 7, 42, 0
9, 219120, Note_on_c, 7, 38, 90
9, 219179, Note_on_c, 7, 38, 0
9, 219180, Note_on_c, 7, 40, 90
9, 219239, Note_on_c, 7, 40, 0
9, 219240, Note_on_c, 7, 45, 90
9, 219299, Note_on_c, 7, 45, 0
9, 219300, Note_on_c, 7, 57, 90
9, 219359, Note_on_c, 7, 57, 0
9, 219360, Note_on_c, 7, 56, 90
9, 219419, Note_on_c, 7, 56, 0
9, 219420, Note_on_c, 7, 54, 90
9, 219449, Note_on_c, 7, 54, 0
9, 219450, Note_on_c, 7, 57, 90
9, 219479, Note_on_c, 7, 57, 0
9, 219480, Note_on_c, 7, 54, 90
9, 219509, Note_on_c, 7, 54, 0
9, 219510, Note_on_c, 7, 57, 90
9, 219539, Note_on_c, 7, 57, 0
9, 219540, Note_on_c, 7, 54, 90
9, 219569, Note_on_c, 7, 54, 0
9, 219570, Note_on_c, 7, 57, 90
9, 219599, Note_on_c, 7, 57, 0
9, 219600, Note_on_c, 7, 51, 90
9, 219629, Note_on_c, 7, 51, 0
9, 219630, Note_on_c, 7, 54, 90
9, 219659, Note_on_c, 7, 54, 0
9, 219660, Note_on_c, 7, 51, 90
9, 219689, Note_on_c, 7, 51, 0
9, 219690, Note_on_c, 7, 54, 90
9, 219719, Note_on_c, 7, 54, 0
9, 219720, Note_on_c, 7, 51, 90
9, 219749, Note_on_c, 7, 51, 0
9, 219750, Note_on_c, 7, 54, 90
9, 219779, Note_on_c, 7, 54, 0
9, 219780, Note_on_c, 7, 47, 90
9, 219839, Note_on_c, 7, 47, 0
9, 219840, Note_on_c, 7, 42, 90
9, 219899, Note_on_c, 7, 42, 0
9, 219900, Note_on_c, 7, 45, 90
9, 219959, Note_on_c, 7, 45, 0
9, 219960, Note_on_c, 7, 44, 90
9, 220019, Note_on_c, 7, 44, 0
9, 220020, Note_on_c, 7, 40, 90
9, 220079, Note_on_c, 7, 40, 0
9, 220080, Note_on_c, 7, 44, 90
9, 220139, Note_on_c, 7, 44, 0
9, 220140, Note_on_c, 7, 45, 90
9, 220259, Note_on_c, 7, 45, 0
9, 220320, Note_on_c, 7, 47, 90
9, 220439, Note_on_c, 7, 47, 0
9, 220500, Note_on_c, 7, 49, 90
9, 220559, Note_on_c, 7, 49, 0
9, 220560, Note_on_c, 7, 50, 90
9, 220619, Note_on_c, 7, 50, 0
9, 220620, Note_on_c, 7, 52, 90
9, 220679, Note_on_c, 7, 52, 0
9, 220680, Note_on_c, 7, 45, 90
9, 220799, Note_on_c, 7, 45, 0
9, 220980, Note_on_c, 7, 52, 90
9, 221039, Note_on_c, 7, 52, 0
9, 221040, Note_on_c, 7, 57, 90
9, 221099, Note_on_c, 7, 57, 0
9, 221100, Note_on_c, 7, 61, 90
9, 221159, Note_on_c, 7, 61, 0
9, 221160, Note_on_c, 7, 57, 90
9, 221219, Note_on_c, 7, 57, 0
9, 221220, Note_on_c, 7, 56, 90
9, 221279, Note_on_c, 7, 56, 0
9, 221280, Note_on_c, 7, 52, 90
9, 221339, Note_on_c, 7, 52, 0
9, 221340, Note_on_c, 7, 57, 90
9, 221399, Note_on_c, 7, 57, 0
9, 221400, Note_on_c, 7, 49, 90
9, 221459, Note_on_c, 7, 49, 0
9, 221460, Note_on_c, 7, 50, 90
9, 221489, Note_on_c, 7, 50, 0
9, 221490, Note_on_c, 7, 47, 90
9, 221519, Note_on_c, 7, 47, 0
9, 221520, Note_on_c, 7, 49, 90
9, 221549, Note_on_c, 7, 49, 0
9, 221550, Note_on_c, 7, 45, 90
9, 221579, Note_on_c, 7, 45, 0
9, 221580, Note_on_c, 7, 50, 90
9, 221639, Note_on_c, 7, 50, 0
9, 221640, Note_on_c, 7, 62, 90
9, 221699, Note_on_c, 7, 62, 0
9, 221700, Note_on_c, 7, 50, 90
9, 221759, Note_on_c, 7, 50, 0
9, 221760, Note_on_c, 7, 52, 90
9, 221789, Note_on_c, 7, 52, 0
9, 221790, Note_on_c, 7, 56, 90
9, 221819, Note_on_c, 7, 56, 0
9, 221820, Note_on_c, 7, 52, 90
9, 221849, Note_on_c, 7, 52, 0
9, 221850, Note_on_c, 7, 56, 90
9, 221879, Note_on_c, 7, 56, 0
9, 221880, Note_on_c, 7, 52, 90
9, 221909, Note_on_c, 7, 52, 0
9, 221910, Note_on_c, 7, 56, 90
9, 221939, Note_on_c, 7, 56, 0
9, 221940, Note_on_c, 7, 49, 90
9, 221999, Note_on_c, 7, 49, 0
9, 222000, Note_on_c, 7, 61, 90
9, 222059, Note_on_c, 7, 61, 0
9, 222060, Note_on_c, 7, 49, 90
9, 222119, Note_on_c, 7, 49, 0
9, 222120, Note_on_c, 7, 50, 90
9, 222149, Note_on_c, 7, 50, 0
9, 222150, Note_on_c, 7, 54, 90
9, 222179, Note_on_c, 7, 54, 0
9, 222180, Note_on_c, 7, 50, 90
9, 222209, Note_on_c, 7, 50, 0
9, 222210, Note_on_c, 7, 54, 90
9, 222239, Note_on_c, 7, 54, 0
9, 222240, Note_on_c, 7, 50, 90
9, 222269, Note_on_c, 7, 50, 0
9, 222270, Note_on_c, 7, 54, 90
9, 222299, Note_on_c, 7, 54, 0
9, 222300, Note_on_c, 7, 47, 90
9, 222359, Note_on_c, 7, 47, 0
9, 222360, Note_on_c, 7, 49, 90
9, 222419, Note_on_c, 7, 49, 0
9, 222420, Note_on_c, 7, 50, 90
9, 222479, Note_on_c, 7, 50, 0
9, 222480, Note_on_c, 7, 52, 90
9, 222539, Note_on_c, 7, 52, 0
9, 222540, Note_on_c, 7, 54, 90
9, 222599, Note_on_c, 7, 54, 0
9, 222600, Note_on_c, 7, 56, 90
9, 222659, Note_on_c, 7, 56, 0
9, 222660, Note_on_c, 7, 57, 90
9, 222719, Note_on_c, 7, 57, 0
9, 222720, Note_on_c, 7, 50, 90
9, 222779, Note_on_c, 7, 50, 0
9, 222780, Note_on_c, 7, 52, 90
9, 222839, Note_on_c, 7, 52, 0
9, 222840, Note_on_c, 7, 54, 90
9, 222899, Note_on_c, 7, 54, 0
9, 222900, Note_on_c, 7, 52, 90
9, 222959, Note_on_c, 7, 52, 0
9, 222960, Note_on_c, 7, 50, 90
9, 223019, Note_on_c, 7, 50, 0
9, 223020, Note_on_c, 7, 49, 90
9, 223079, Note_on_c, 7, 49, 0
9, 223080, Note_on_c, 7, 50, 90
9, 223139, Note_on_c, 7, 50, 0
9, 223140, Note_on_c, 7, 52, 90
9, 223199, Note_on_c, 7, 52, 0
9, 223200, Note_on_c, 7, 45, 90
9, 223259, Note_on_c, 7, 45, 0
9, 223260, Note_on_c, 7, 47, 90
9, 223319, Note_on_c, 7, 47, 0
9, 223320, Note_on_c, 7, 49, 90
9, 223379, Note_on_c, 7, 49, 0
9, 223380, Note_on_c, 7, 42, 90
9, 223439, Note_on_c, 7, 42, 0
9, 223440, Note_on_c, 7, 38, 90
9, 223499, Note_on_c, 7, 38, 0
9, 223500, Note_on_c, 7, 40, 90
9, 223559, Note_on_c, 7, 40, 0
9, 223560, Note_on_c, 7, 45, 90
9, 223919, Note_on_c, 7, 45, 0
9, 223920, Note_on_c, 7, 57, 90
9, 224039, Note_on_c, 7, 57, 0
9, 224040, Note_on_c, 7, 56, 90
9, 224159, Note_on_c, 7, 56, 0
9, 224160, Note_on_c, 7, 56, 90
9, 224279, Note_on_c, 7, 56, 0
9, 224280, Note_on_c, 7, 59, 90
9, 224399, Note_on_c, 7, 59, 0
9, 224400, Note_on_c, 7, 59, 90
9, 224519, Note_on_c, 7, 59, 0
9, 224520, Note_on_c, 7, 53, 90
9, 224639, Note_on_c, 7, 53, 0
9, 224640, Note_on_c, 7, 53, 90
9, 224759, Note_on_c, 7, 53, 0
9, 224760, Note_on_c, 7, 49, 90
9, 224879, Note_on_c, 7, 49, 0
9, 224880, Note_on_c, 7, 49, 90
9, 224999, Note_on_c, 7, 49, 0
9, 225000, Note_on_c, 7, 54, 90
9, 225119, Note_on_c, 7, 54, 0
9, 225120, Note_on_c, 7, 52, 90
9, 225239, Note_on_c, 7, 52, 0
9, 225240, Note_on_c, 7, 51, 90
9, 225359, Note_on_c, 7, 51, 0
9, 225360, Note_on_c, 7, 54, 90
9, 225479, Note_on_c, 7, 54, 0
9, 225480, Note_on_c, 7, 47, 90
9, 225599, Note_on_c, 7, 47, 0
9, 225600, Note_on_c, 7, 49, 90
9, 225719, Note_on_c, 7, 49, 0
9, 225720, Note_on_c, 7, 51, 90
9, 225839, Note_on_c, 7, 51, 0
9, 225840, Note_on_c, 7, 52, 90
9, 225959, Note_on_c, 7, 52, 0
9, 225960, Note_on_c, 7, 54, 90
9, 226079, Note_on_c, 7, 54, 0
9, 226080, Note_on_c, 7, 52, 90
9, 226199, Note_on_c, 7, 52, 0
9, 226200, Note_on_c, 7, 51, 90
9, 226319, Note_on_c, 7, 51, 0
9, 226320, Note_on_c, 7, 49, 90
9, 226439, Note_on_c, 7, 49, 0
9, 226440, Note_on_c, 7, 46, 90
9, 226559, Note_on_c, 7, 46, 0
9, 226560, Note_on_c, 7, 51, 90
9, 226679, Note_on_c, 7, 51, 0
9, 226680, Note_on_c, 7, 47, 90
9, 226799, Note_on_c, 7, 47, 0
9, 226800, Note_on_c, 7, 44, 90
9, 226919, Note_on_c, 7, 44, 0
9, 226920, Note_on_c, 7, 49, 90
9, 227039, Note_on_c, 7, 49, 0
9, 227040, Note_on_c, 7, 51, 90
9, 227159, Note_on_c, 7, 51, 0
9, 227160, Note_on_c, 7, 52, 90
9, 227279, Note_on_c, 7, 52, 0
9, 227280, Note_on_c, 7, 54, 90
9, 227339, Note_on_c, 7, 54, 0
9, 227340, Note_on_c, 7, 56, 90
9, 227399, Note_on_c, 7, 56, 0
9, 227400, Note_on_c, 7, 57, 90
9, 227519, Note_on_c, 7, 57, 0
9, 227520, Note_on_c, 7, 56, 90
9, 227639, Note_on_c, 7, 56, 0
9, 227640, Note_on_c, 7, 54, 90
9, 227759, Note_on_c, 7, 54, 0
9, 227760, Note_on_c, 7, 56, 90
9, 227879, Note_on_c, 7, 56, 0
9, 227880, Note_on_c, 7, 49, 90
9, 227999, Note_on_c, 7, 49, 0
9, 228000, Note_on_c, 7, 51, 90
9, 228119, Note_on_c, 7, 51, 0
9, 228120, Note_on_c, 7, 52, 90
9, 228239, Note_on_c, 7, 52, 0
9, 228240, Note_on_c, 7, 49, 90
9, 228359, Note_on_c, 7, 49, 0
9, 228360, Note_on_c, 7, 54, 90
9, 228479, Note_on_c, 7, 54, 0
9, 228480, Note_on_c, 7, 50, 90
9, 228599, Note_on_c, 7, 50, 0
9, 228600, Note_on_c, 7, 47, 90
9, 228719, Note_on_c, 7, 47, 0
9, 228720, Note_on_c, 7, 49, 90
9, 228839, Note_on_c, 7, 49, 0
9, 228840, Note_on_c, 7, 42, 90
9, 229079, Note_on_c, 7, 42, 0
9, 229080, Note_on_c, 7, 49, 90
9, 229199, Note_on_c, 7, 49, 0
9, 229200, Note_on_c, 7, 49, 90
9, 229319, Note_on_c, 7, 49, 0
9, 229320, Note_on_c, 7, 54, 90
9, 229439, Note_on_c, 7, 54, 0
9, 229440, Note_on_c, 7, 57, 90
9, 229559, Note_on_c, 7, 57, 0
9, 229560, Note_on_c, 7, 57, 90
9, 229619, Note_on_c, 7, 57, 0
9, 229620, Note_on_c, 7, 56, 90
9, 229679, Note_on_c, 7, 56, 0
9, 229680, Note_on_c, 7, 54, 90
9, 229739, Note_on_c, 7, 54, 0
9, 229740, Note_on_c, 7, 52, 90
9, 229799, Note_on_c, 7, 52, 0
9, 229800, Note_on_c, 7, 54, 90
9, 229919, Note_on_c, 7, 54, 0
9, 229920, Note_on_c, 7, 54, 90
9, 230039, Note_on_c, 7, 54, 0
9, 230040, Note_on_c, 7, 57, 90
9, 230159, Note_on_c, 7, 57, 0
9, 230160, Note_on_c, 7, 57, 90
9, 230279, Note_on_c, 7, 57, 0
9, 230280, Note_on_c, 7, 51, 90
9, 230399, Note_on_c, 7, 51, 0
9, 230400, Note_on_c, 7, 51, 90
9, 230519, Note_on_c, 7, 51, 0
9, 230520, Note_on_c, 7, 47, 90
9, 230639, Note_on_c, 7, 47, 0
9, 230640, Note_on_c, 7, 47, 90
9, 230759, Note_on_c, 7, 47, 0
9, 230760, Note_on_c, 7, 52, 90
9, 230879, Note_on_c, 7, 52, 0
9, 230880, Note_on_c, 7, 50, 90
9, 230999, Note_on_c, 7, 50, 0
9, 231000, Note_on_c, 7, 49, 90
9, 231119, Note_on_c, 7, 49, 0
9, 231120, Note_on_c, 7, 52, 90
9, 231239, Note_on_c, 7, 52, 0
9, 231240, Note_on_c, 7, 45, 90
9, 231359, Note_on_c, 7, 45, 0
9, 231360, Note_on_c, 7, 47, 90
9, 231479, Note_on_c, 7, 47, 0
9, 231480, Note_on_c, 7, 49, 90
9, 231599, Note_on_c, 7, 49, 0
9, 231600, Note_on_c, 7, 50, 90
9, 231719, Note_on_c, 7, 50, 0
9, 231720, Note_on_c, 7, 52, 90
9, 231839, Note_on_c, 7, 52, 0
9, 231840, Note_on_c, 7, 50, 90
9, 231959, Note_on_c, 7, 50, 0
9, 231960, Note_on_c, 7, 49, 90
9, 232079, Note_on_c, 7, 49, 0
9, 232080, Note_on_c, 7, 47, 90
9, 232199, Note_on_c, 7, 47, 0
9, 232200, Note_on_c, 7, 46, 90
9, 232319, Note_on_c, 7, 46, 0
9, 232320, Note_on_c, 7, 49, 90
9, 232439, Note_on_c, 7, 49, 0
9, 232440, Note_on_c, 7, 46, 90
9, 232559, Note_on_c, 7, 46, 0
9, 232560, Note_on_c, 7, 42, 90
9, 232679, Note_on_c, 7, 42, 0
9, 232680, Note_on_c, 7, 47, 90
9, 232799, Note_on_c, 7, 47, 0
9, 232800, Note_on_c, 7, 49, 90
9, 232919, Note_on_c, 7, 49, 0
9, 232920, Note_on_c, 7, 50, 90
9, 233039, Note_on_c, 7, 50, 0
9, 233040, Note_on_c, 7, 52, 90
9, 233099, Note_on_c, 7, 52, 0
9, 233100, Note_on_c, 7, 54, 90
9, 233159, Note_on_c, 7, 54, 0
9, 233160, Note_on_c, 7, 55, 90
9, 233279, Note_on_c, 7, 55, 0
9, 233280, Note_on_c, 7, 54, 90
9, 233399, Note_on_c, 7, 54, 0
9, 233400, Note_on_c, 7, 52, 90
9, 233519, Note_on_c, 7, 52, 0
9, 233520, Note_on_c, 7, 54, 90
9, 233639, Note_on_c, 7, 54, 0
9, 233640, Note_on_c, 7, 47, 90
9, 233759, Note_on_c, 7, 47, 0
9, 233760, Note_on_c, 7, 49, 90
9, 233879, Note_on_c, 7, 49, 0
9, 233880, Note_on_c, 7, 50, 90
9, 233999, Note_on_c, 7, 50, 0
9, 234000, Note_on_c, 7, 47, 90
9, 234119, Note_on_c, 7, 47, 0
9, 234120, Note_on_c, 7, 52, 90
9, 234239, Note_on_c, 7, 52, 0
9, 234240, Note_on_c, 7, 48, 90
9, 234359, Note_on_c, 7, 48, 0
9, 234360, Note_on_c, 7, 45, 90
9, 234479, Note_on_c, 7, 45, 0
9, 234480, Note_on_c, 7, 47, 90
9, 234599, Note_on_c, 7, 47, 0
9, 234600, Note_on_c, 7, 40, 90
9, 234839, Note_on_c, 7, 40, 0
9, 234840, Note_on_c, 7, 47, 90
9, 234959, Note_on_c, 7, 47, 0
9, 234960, Note_on_c, 7, 47, 90
9, 235079, Note_on_c, 7, 47, 0
9, 235080, Note_on_c, 7, 52, 90
9, 235199, Note_on_c, 7, 52, 0
9, 235200, Note_on_c, 7, 55, 90
9, 235319, Note_on_c, 7, 55, 0
9, 235320, Note_on_c, 7, 55, 90
9, 235379, Note_on_c, 7, 55, 0
9, 235380, Note_on_c, 7, 54, 90
9, 235439, Note_on_c, 7, 54, 0
9, 235440, Note_on_c, 7, 52, 90
9, 235499, Note_on_c, 7, 52, 0
9, 235500, Note_on_c, 7, 50, 90
9, 235559, Note_on_c, 7, 50, 0
9, 235560, Note_on_c, 7, 49, 90
9, 235679, Note_on_c, 7, 49, 0
9, 235680, Note_on_c, 7, 54, 90
9, 235799, Note_on_c, 7, 54, 0
9, 235800, Note_on_c, 7, 54, 90
9, 235859, Note_on_c, 7, 54, 0
9, 235860, Note_on_c, 7, 52, 90
9, 235919, Note_on_c, 7, 52, 0
9, 235920, Note_on_c, 7, 50, 90
9, 235979, Note_on_c, 7, 50, 0
9, 235980, Note_on_c, 7, 49, 90
9, 236039, Note_on_c, 7, 49, 0
9, 236040, Note_on_c, 7, 47, 90
9, 236159, Note_on_c, 7, 47, 0
9, 236160, Note_on_c, 7, 52, 90
9, 236279, Note_on_c, 7, 52, 0
9, 236280, Note_on_c, 7, 52, 90
9, 236339, Note_on_c, 7, 52, 0
9, 236340, Note_on_c, 7, 50, 90
9, 236399, Note_on_c, 7, 50, 0
9, 236400, Note_on_c, 7, 49, 90
9, 236459, Note_on_c, 7, 49, 0
9, 236460, Note_on_c, 7, 47, 90
9, 236519, Note_on_c, 7, 47, 0
9, 236520, Note_on_c, 7, 46, 90
9, 236639, Note_on_c, 7, 46, 0
9, 236640, Note_on_c, 7, 50, 90
9, 236759, Note_on_c, 7, 50, 0
9, 236760, Note_on_c, 7, 50, 90
9, 236819, Note_on_c, 7, 50, 0
9, 236820, Note_on_c, 7, 49, 90
9, 236879, Note_on_c, 7, 49, 0
9, 236880, Note_on_c, 7, 47, 90
9, 236939, Note_on_c, 7, 47, 0
9, 236940, Note_on_c, 7, 45, 90
9, 236999, Note_on_c, 7, 45, 0
9, 237000, Note_on_c, 7, 44, 90
9, 237119, Note_on_c, 7, 44, 0
9, 237120, Note_on_c, 7, 49, 90
9, 237239, Note_on_c, 7, 49, 0
9, 237240, Note_on_c, 7, 49, 90
9, 237299, Note_on_c, 7, 49, 0
9, 237300, Note_on_c, 7, 47, 90
9, 237359, Note_on_c, 7, 47, 0
9, 237360, Note_on_c, 7, 45, 90
9, 237419, Note_on_c, 7, 45, 0
9, 237420, Note_on_c, 7, 44, 90
9, 237479, Note_on_c, 7, 44, 0
9, 237480, Note_on_c, 7, 42, 90
9, 237599, Note_on_c, 7, 42, 0
9, 237600, Note_on_c, 7, 47, 90
9, 237719, Note_on_c, 7, 47, 0
9, 237720, Note_on_c, 7, 49, 90
9, 237839, Note_on_c, 7, 49, 0
9, 237840, Note_on_c, 7, 50, 90
9, 237959, Note_on_c, 7, 50, 0
9, 237960, Note_on_c, 7, 49, 90
9, 238079, Note_on_c, 7, 49, 0
9, 238080, Note_on_c, 7, 61, 90
9, 238199, Note_on_c, 7, 61, 0
9, 238200, Note_on_c, 7, 61, 90
9, 238259, Note_on_c, 7, 61, 0
9, 238260, Note_on_c, 7, 59, 90
9, 238319, Note_on_c, 7, 59, 0
9, 238320, Note_on_c, 7, 57, 90
9, 238379, Note_on_c, 7, 57, 0
9, 238380, Note_on_c, 7, 56, 90
9, 238439, Note_on_c, 7, 56, 0
9, 238440, Note_on_c, 7, 54, 90
9, 238559, Note_on_c, 7, 54, 0
9, 238560, Note_on_c, 7, 59, 90
9, 238679, Note_on_c, 7, 59, 0
9, 238680, Note_on_c, 7, 59, 90
9, 238739, Note_on_c, 7, 59, 0
9, 238740, Note_on_c, 7, 57, 90
9, 238799, Note_on_c, 7, 57, 0
9, 238800, Note_on_c, 7, 56, 90
9, 238859, Note_on_c, 7, 56, 0
9, 238860, Note_on_c, 7, 54, 90
9, 238919, Note_on_c, 7, 54, 0
9, 238920, Note_on_c, 7, 53, 90
9, 239039, Note_on_c, 7, 53, 0
9, 239040, Note_on_c, 7, 54, 90
9, 239099, Note_on_c, 7, 54, 0
9, 239100, Note_on_c, 7, 56, 90
9, 239159, Note_on_c, 7, 56, 0
9, 239160, Note_on_c, 7, 54, 90
9, 239219, Note_on_c, 7, 54, 0
9, 239220, Note_on_c, 7, 53, 90
9, 239279, Note_on_c, 7, 53, 0
9, 239280, Note_on_c, 7, 51, 90
9, 239339, Note_on_c, 7, 51, 0
9, 239340, Note_on_c, 7, 49, 90
9, 239399, Note_on_c, 7, 49, 0
9, 239400, Note_on_c, 7, 54, 90
9, 239519, Note_on_c, 7, 54, 0
9, 239520, Note_on_c, 7, 47, 90
9, 239639, Note_on_c, 7, 47, 0
9, 239640, Note_on_c, 7, 49, 90
9, 239759, Note_on_c, 7, 49, 0
9, 239760, Note_on_c, 7, 50, 90
9, 239879, Note_on_c, 7, 50, 0
9, 239880, Note_on_c, 7, 49, 90
9, 239999, Note_on_c, 7, 49, 0
9, 240000, Note_on_c, 7, 61, 90
9, 240119, Note_on_c, 7, 61, 0
9, 240120, Note_on_c, 7, 61, 90
9, 240179, Note_on_c, 7, 61, 0
9, 240180, Note_on_c, 7, 59, 90
9, 240239, Note_on_c, 7, 59, 0
9, 240240, Note_on_c, 7, 57, 90
9, 240299, Note_on_c, 7, 57, 0
9, 240300, Note_on_c, 7, 56, 90
9, 240359, Note_on_c, 7, 56, 0
9, 240360, Note_on_c, 7, 54, 90
9, 240479, Note_on_c, 7, 54, 0
9, 240480, Note_on_c, 7, 57, 90
9, 240599, Note_on_c, 7, 57, 0
9, 240600, Note_on_c, 7, 57, 90
9, 240659, Note_on_c, 7, 57, 0
9, 240660, Note_on_c, 7, 56, 90
9, 240719, Note_on_c, 7, 56, 0
9, 240720, Note_on_c, 7, 54, 90
9, 240779, Note_on_c, 7, 54, 0
9, 240780, Note_on_c, 7, 52, 90
9, 240839, Note_on_c, 7, 52, 0
9, 240840, Note_on_c, 7, 50, 90
9, 240959, Note_on_c, 7, 50, 0
9, 240960, Note_on_c, 7, 49, 90
9, 241079, Note_on_c, 7, 49, 0
9, 241080, Note_on_c, 7, 47, 90
9, 241199, Note_on_c, 7, 47, 0
9, 241200, Note_on_c, 7, 49, 90
9, 241319, Note_on_c, 7, 49, 0
9, 241320, Note_on_c, 7, 42, 90
9, 241439, Note_on_c, 7, 42, 0
9, 241440, Note_on_c, 7, 44, 90
9, 241559, Note_on_c, 7, 44, 0
9, 241560, Note_on_c, 7, 46, 90
9, 241679, Note_on_c, 7, 46, 0
9, 241680, Note_on_c, 7, 42, 90
9, 241799, Note_on_c, 7, 42, 0
9, 241800, Note_on_c, 7, 47, 90
9, 241919, Note_on_c, 7, 47, 0
9, 241920, Note_on_c, 7, 43, 90
9, 242039, Note_on_c, 7, 43, 0
9, 242040, Note_on_c, 7, 40, 90
9, 242159, Note_on_c, 7, 40, 0
9, 242160, Note_on_c, 7, 42, 90
9, 242279, Note_on_c, 7, 42, 0
9, 242280, Note_on_c, 7, 47, 90
9, 242519, Note_on_c, 7, 47, 0
9, 242520, Note_on_c, 7, 42, 90
9, 242639, Note_on_c, 7, 42, 0
9, 242640, Note_on_c, 7, 42, 90
9, 242759, Note_on_c, 7, 42, 0
9, 242760, Note_on_c, 7, 47, 90
9, 242879, Note_on_c, 7, 47, 0
9, 242880, Note_on_c, 7, 50, 90
9, 242999, Note_on_c, 7, 50, 0
9, 243000, Note_on_c, 7, 50, 90
9, 243059, Note_on_c, 7, 50, 0
9, 243060, Note_on_c, 7, 49, 90
9, 243119, Note_on_c, 7, 49, 0
9, 243120, Note_on_c, 7, 47, 90
9, 243179, Note_on_c, 7, 47, 0
9, 243180, Note_on_c, 7, 45, 90
9, 243239, Note_on_c, 7, 45, 0
9, 243240, Note_on_c, 7, 44, 90
9, 243359, Note_on_c, 7, 44, 0
9, 243360, Note_on_c, 7, 49, 90
9, 243479, Note_on_c, 7, 49, 0
9, 243480, Note_on_c, 7, 49, 90
9, 243539, Note_on_c, 7, 49, 0
9, 243540, Note_on_c, 7, 47, 90
9, 243599, Note_on_c, 7, 47, 0
9, 243600, Note_on_c, 7, 45, 90
9, 243659, Note_on_c, 7, 45, 0
9, 243660, Note_on_c, 7, 44, 90
9, 243719, Note_on_c, 7, 44, 0
9, 243720, Note_on_c, 7, 42, 90
9, 243839, Note_on_c, 7, 42, 0
9, 243840, Note_on_c, 7, 47, 90
9, 243959, Note_on_c, 7, 47, 0
9, 243960, Note_on_c, 7, 47, 90
9, 244019, Note_on_c, 7, 47, 0
9, 244020, Note_on_c, 7, 45, 90
9, 244079, Note_on_c, 7, 45, 0
9, 244080, Note_on_c, 7, 44, 90
9, 244139, Note_on_c, 7, 44, 0
9, 244140, Note_on_c, 7, 42, 90
9, 244199, Note_on_c, 7, 42, 0
9, 244200, Note_on_c, 7, 41, 90
9, 244319, Note_on_c, 7, 41, 0
9, 244320, Note_on_c, 7, 49, 90
9, 244439, Note_on_c, 7, 49, 0
9, 244440, Note_on_c, 7, 49, 90
9, 244499, Note_on_c, 7, 49, 0
9, 244500, Note_on_c, 7, 47, 90
9, 244559, Note_on_c, 7, 47, 0
9, 244560, Note_on_c, 7, 45, 90
9, 244619, Note_on_c, 7, 45, 0
9, 244620, Note_on_c, 7, 44, 90
9, 244679, Note_on_c, 7, 44, 0
9, 244680, Note_on_c, 7, 42, 90
9, 244799, Note_on_c, 7, 42, 0
9, 244800, Note_on_c, 7, 54, 90
9, 244919, Note_on_c, 7, 54, 0
9, 244920, Note_on_c, 7, 54, 90
9, 244979, Note_on_c, 7, 54, 0
9, 244980, Note_on_c, 7, 52, 90
9, 245039, Note_on_c, 7, 52, 0
9, 245040, Note_on_c, 7, 50, 90
9, 245099, Note_on_c, 7, 50, 0
9, 245100, Note_on_c, 7, 49, 90
9, 245159, Note_on_c, 7, 49, 0
9, 245160, Note_on_c, 7, 47, 90
9, 245279, Note_on_c, 7, 47, 0
9, 245280, Note_on_c, 7, 59, 90
9, 245399, Note_on_c, 7, 59, 0
9, 245400, Note_on_c, 7, 59, 90
9, 245459, Note_on_c, 7, 59, 0
9, 245460, Note_on_c, 7, 57, 90
9, 245519, Note_on_c, 7, 57, 0
9, 245520, Note_on_c, 7, 56, 90
9, 245579, Note_on_c, 7, 56, 0
9, 245580, Note_on_c, 7, 54, 90
9, 245639, Note_on_c, 7, 54, 0
9, 245640, Note_on_c, 7, 53, 90
9, 245759, Note_on_c, 7, 53, 0
9, 245760, Note_on_c, 7, 54, 90
9, 245879, Note_on_c, 7, 54, 0
9, 245880, Note_on_c, 7, 47, 90
9, 246239, Note_on_c, 7, 47, 0
9, 246240, Note_on_c, 7, 45, 90
9, 246299, Note_on_c, 7, 45, 0
9, 246300, Note_on_c, 7, 44, 90
9, 246359, Note_on_c, 7, 44, 0
9, 246360, Note_on_c, 7, 47, 90
9, 246419, Note_on_c, 7, 47, 0
9, 246420, Note_on_c, 7, 45, 90
9, 246479, Note_on_c, 7, 45, 0
9, 246480, Note_on_c, 7, 44, 90
9, 246539, Note_on_c, 7, 44, 0
9, 246540, Note_on_c, 7, 42, 90
9, 246599, Note_on_c, 7, 42, 0
9, 246600, Note_on_c, 7, 49, 90
9, 246839, Note_on_c, 7, 49, 0
9, 246840, Note_on_c, 7, 37, 90
9, 247079, Note_on_c, 7, 37, 0
9, 247080, Note_on_c, 7, 42, 90
9, 247319, Note_on_c, 7, 42, 0
9, 247620, Note_on_c, 7, 52, 90
9, 247679, Note_on_c, 7, 52, 0
9, 247680, Note_on_c, 7, 57, 90
9, 247739, Note_on_c, 7, 57, 0
9, 247740, Note_on_c, 7, 61, 90
9, 247799, Note_on_c, 7, 61, 0
9, 247800, Note_on_c, 7, 57, 90
9, 247859, Note_on_c, 7, 57, 0
9, 247860, Note_on_c, 7, 56, 90
9, 247919, Note_on_c, 7, 56, 0
9, 247920, Note_on_c, 7, 52, 90
9, 247979, Note_on_c, 7, 52, 0
9, 247980, Note_on_c, 7, 57, 90
9, 248039, Note_on_c, 7, 57, 0
9, 248040, Note_on_c, 7, 49, 90
9, 248099, Note_on_c, 7, 49, 0
9, 248100, Note_on_c, 7, 50, 90
9, 248129, Note_on_c, 7, 50, 0
9, 248130, Note_on_c, 7, 47, 90
9, 248159, Note_on_c, 7, 47, 0
9, 248160, Note_on_c, 7, 49, 90
9, 248189, Note_on_c, 7, 49, 0
9, 248190, Note_on_c, 7, 45, 90
9, 248219, Note_on_c, 7, 45, 0
9, 248220, Note_on_c, 7, 50, 90
9, 248279, Note_on_c, 7, 50, 0
9, 248280, Note_on_c, 7, 62, 90
9, 248339, Note_on_c, 7, 62, 0
9, 248340, Note_on_c, 7, 50, 90
9, 248399, Note_on_c, 7, 50, 0
9, 248400, Note_on_c, 7, 52, 90
9, 248429, Note_on_c, 7, 52, 0
9, 248430, Note_on_c, 7, 56, 90
9, 248459, Note_on_c, 7, 56, 0
9, 248460, Note_on_c, 7, 52, 90
9, 248489, Note_on_c, 7, 52, 0
9, 248490, Note_on_c, 7, 56, 90
9, 248519, Note_on_c, 7, 56, 0
9, 248520, Note_on_c, 7, 52, 90
9, 248549, Note_on_c, 7, 52, 0
9, 248550, Note_on_c, 7, 56, 90
9, 248579, Note_on_c, 7, 56, 0
9, 248580, Note_on_c, 7, 49, 90
9, 248639, Note_on_c, 7, 49, 0
9, 248640, Note_on_c, 7, 61, 90
9, 248699, Note_on_c, 7, 61, 0
9, 248700, Note_on_c, 7, 49, 90
9, 248759, Note_on_c, 7, 49, 0
9, 248760, Note_on_c, 7, 50, 90
9, 248789, Note_on_c, 7, 50, 0
9, 248790, Note_on_c, 7, 54, 90
9, 248819, Note_on_c, 7, 54, 0
9, 248820, Note_on_c, 7, 50, 90
9, 248849, Note_on_c, 7, 50, 0
9, 248850, Note_on_c, 7, 54, 90
9, 248879, Note_on_c, 7, 54, 0
9, 248880, Note_on_c, 7, 50, 90
9, 248909, Note_on_c, 7, 50, 0
9, 248910, Note_on_c, 7, 54, 90
9, 248939, Note_on_c, 7, 54, 0
9, 248940, Note_on_c, 7, 47, 90
9, 248999, Note_on_c, 7, 47, 0
9, 249000, Note_on_c, 7, 49, 90
9, 249059, Note_on_c, 7, 49, 0
9, 249060, Note_on_c, 7, 50, 90
9, 249119, Note_on_c, 7, 50, 0
9, 249120, Note_on_c, 7, 52, 90
9, 249179, Note_on_c, 7, 52, 0
9, 249180, Note_on_c, 7, 54, 90
9, 249239, Note_on_c, 7, 54, 0
9, 249240, Note_on_c, 7, 56, 90
9, 249299, Note_on_c, 7, 56, 0
9, 249300, Note_on_c, 7, 57, 90
9, 249359, Note_on_c, 7, 57, 0
9, 249360, Note_on_c, 7, 50, 90
9, 249419, Note_on_c, 7, 50, 0
9, 249420, Note_on_c, 7, 52, 90
9, 249479, Note_on_c, 7, 52, 0
9, 249480, Note_on_c, 7, 54, 90
9, 249539, Note_on_c, 7, 54, 0
9, 249540, Note_on_c, 7, 52, 90
9, 249599, Note_on_c, 7, 52, 0
9, 249600, Note_on_c, 7, 50, 90
9, 249659, Note_on_c, 7, 50, 0
9, 249660, Note_on_c, 7, 49, 90
9, 249719, Note_on_c, 7, 49, 0
9, 249720, Note_on_c, 7, 50, 90
9, 249779, Note_on_c, 7, 50, 0
9, 249780, Note_on_c, 7, 52, 90
9, 249839, Note_on_c, 7, 52, 0
9, 249840, Note_on_c, 7, 45, 90
9, 249899, Note_on_c, 7, 45, 0
9, 249900, Note_on_c, 7, 47, 90
9, 249959, Note_on_c, 7, 47, 0
9, 249960, Note_on_c, 7, 49, 90
9, 250019, Note_on_c, 7, 49, 0
9, 250020, Note_on_c, 7, 42, 90
9, 250079, Note_on_c, 7, 42, 0
9, 250080, Note_on_c, 7, 38, 90
9, 250139, Note_on_c, 7, 38, 0
9, 250140, Note_on_c, 7, 40, 90
9, 250199, Note_on_c, 7, 40, 0
9, 250200, Note_on_c, 7, 45, 90
9, 250319, Note_on_c, 7, 45, 0
9, 250500, Note_on_c, 7, 52, 90
9, 250560, Note_on_c, 7, 52, 0
9, 250560, Note_on_c, 7, 59, 90
9, 250620, Note_on_c, 7, 59, 0
9, 250620, Note_on_c, 7, 61, 90
9, 250680, Note_on_c, 7, 61, 0
9, 250680, Note_on_c, 7, 57, 90
9, 250740, Note_on_c, 7, 57, 0
9, 250740, Note_on_c, 7, 56, 90
9, 250800, Note_on_c, 7, 56, 0
9, 250800, Note_on_c, 7, 52, 90
9, 250860, Note_on_c, 7, 52, 0
9, 250860, Note_on_c, 7, 57, 90
9, 250920, Note_on_c, 7, 57, 0
9, 250920, Note_on_c, 7, 49, 90
9, 250979, Note_on_c, 7, 49, 0
9, 250980, Note_on_c, 7, 50, 90
9, 251009, Note_on_c, 7, 50, 0
9, 251010, Note_on_c, 7, 47, 90
9, 251039, Note_on_c, 7, 47, 0
9, 251040, Note_on_c, 7, 49, 90
9, 251069, Note_on_c, 7, 49, 0
9, 251070, Note_on_c, 7, 45, 90
9, 251099, Note_on_c, 7, 45, 0
9, 251100, Note_on_c, 7, 50, 90
9, 251159, Note_on_c, 7, 50, 0
9, 251160, Note_on_c, 7, 62, 90
9, 251219, Note_on_c, 7, 62, 0
9, 251220, Note_on_c, 7, 50, 90
9, 251279, Note_on_c, 7, 50, 0
9, 251280, Note_on_c, 7, 52, 90
9, 251309, Note_on_c, 7, 52, 0
9, 251310, Note_on_c, 7, 56, 90
9, 251339, Note_on_c, 7, 56, 0
9, 251340, Note_on_c, 7, 52, 90
9, 251369, Note_on_c, 7, 52, 0
9, 251370, Note_on_c, 7, 56, 90
9, 251399, Note_on_c, 7, 56, 0
9, 251400, Note_on_c, 7, 52, 90
9, 251429, Note_on_c, 7, 52, 0
9, 251430, Note_on_c, 7, 56, 90
9, 251459, Note_on_c, 7, 56, 0
9, 251460, Note_on_c, 7, 49, 90
9, 251519, Note_on_c, 7, 49, 0
9, 251520, Note_on_c, 7, 61, 90
9, 251579, Note_on_c, 7, 61, 0
9, 251580, Note_on_c, 7, 49, 90
9, 251639, Note_on_c, 7, 49, 0
9, 251640, Note_on_c, 7, 50, 90
9, 251669, Note_on_c, 7, 50, 0
9, 251670, Note_on_c, 7, 54, 90
9, 251699, Note_on_c, 7, 54, 0
9, 251700, Note_on_c, 7, 50, 90
9, 251729, Note_on_c, 7, 50, 0
9, 251730, Note_on_c, 7, 54, 90
9, 251759, Note_on_c, 7, 54, 0
9, 251760, Note_on_c, 7, 50, 90
9, 251789, Note_on_c, 7, 50, 0
9, 251790, Note_on_c, 7, 54, 90
9, 251819, Note_on_c, 7, 54, 0
9, 251820, Note_on_c, 7, 47, 90
9, 251879, Note_on_c, 7, 47, 0
9, 251880, Note_on_c, 7, 49, 90
9, 251939, Note_on_c, 7, 49, 0
9, 251940, Note_on_c, 7, 50, 90
9, 251999, Note_on_c, 7, 50, 0
9, 252000, Note_on_c, 7, 52, 90
9, 252059, Note_on_c, 7, 52, 0
9, 252060, Note_on_c, 7, 54, 90
9, 252119, Note_on_c, 7, 54, 0
9, 252120, Note_on_c, 7, 56, 90
9, 252179, Note_on_c, 7, 56, 0
9, 252180, Note_on_c, 7, 57, 90
9, 252239, Note_on_c, 7, 57, 0
9, 252240, Note_on_c, 7, 50, 90
9, 252299, Note_on_c, 7, 50, 0
9, 252300, Note_on_c, 7, 52, 90
9, 252359, Note_on_c, 7, 52, 0
9, 252360, Note_on_c, 7, 45, 90
9, 252419, Note_on_c, 7, 45, 0
9, 252420, Note_on_c, 7, 57, 90
9, 252479, Note_on_c, 7, 57, 0
9, 252480, Note_on_c, 7, 52, 90
9, 252539, Note_on_c, 7, 52, 0
9, 252540, Note_on_c, 7, 49, 90
9, 252599, Note_on_c, 7, 49, 0
9, 252600, Note_on_c, 7, 45, 90
9, 252659, Note_on_c, 7, 45, 0
9, 252660, Note_on_c, 7, 52, 90
9, 252719, Note_on_c, 7, 52, 0
9, 252720, Note_on_c, 7, 57, 90
9, 252779, Note_on_c, 7, 57, 0
9, 252780, Note_on_c, 7, 61, 90
9, 252839, Note_on_c, 7, 61, 0
9, 252840, Note_on_c, 7, 57, 90
9, 252899, Note_on_c, 7, 57, 0
9, 252900, Note_on_c, 7, 56, 90
9, 252959, Note_on_c, 7, 56, 0
9, 252960, Note_on_c, 7, 52, 90
9, 253019, Note_on_c, 7, 52, 0
9, 253020, Note_on_c, 7, 57, 90
9, 253079, Note_on_c, 7, 57, 0
9, 253080, Note_on_c, 7, 49, 90
9, 253139, Note_on_c, 7, 49, 0
9, 253140, Note_on_c, 7, 50, 90
9, 253169, Note_on_c, 7, 50, 0
9, 253170, Note_on_c, 7, 47, 90
9, 253199, Note_on_c, 7, 47, 0
9, 253200, Note_on_c, 7, 49, 90
9, 253229, Note_on_c, 7, 49, 0
9, 253230, Note_on_c, 7, 45, 90
9, 253259, Note_on_c, 7, 45, 0
9, 253260, Note_on_c, 7, 50, 90
9, 253319, Note_on_c, 7, 50, 0
9, 253320, Note_on_c, 7, 62, 90
9, 253379, Note_on_c, 7, 62, 0
9, 253380, Note_on_c, 7, 50, 90
9, 253439, Note_on_c, 7, 50, 0
9, 253440, Note_on_c, 7, 52, 90
9, 253469, Note_on_c, 7, 52, 0
9, 253470, Note_on_c, 7, 56, 90
9, 253499, Note_on_c, 7, 56, 0
9, 253500, Note_on_c, 7, 52, 90
9, 253529, Note_on_c, 7, 52, 0
9, 253530, Note_on_c, 7, 56, 90
9, 253559, Note_on_c, 7, 56, 0
9, 253560, Note_on_c, 7, 52, 90
9, 253589, Note_on_c, 7, 52, 0
9, 253590, Note_on_c, 7, 56, 90
9, 253619, Note_on_c, 7, 56, 0
9, 253620, Note_on_c, 7, 49, 90
9, 253679, Note_on_c, 7, 49, 0
9, 253680, Note_on_c, 7, 61, 90
9, 253739, Note_on_c, 7, 61, 0
9, 253740, Note_on_c, 7, 49, 90
9, 253799, Note_on_c, 7, 49, 0
9, 253800, Note_on_c, 7, 50, 90
9, 253829, Note_on_c, 7, 50, 0
9, 253830, Note_on_c, 7, 54, 90
9, 253859, Note_on_c, 7, 54, 0
9, 253860, Note_on_c, 7, 50, 90
9, 253889, Note_on_c, 7, 50, 0
9, 253890, Note_on_c, 7, 54, 90
9, 253919, Note_on_c, 7, 54, 0
9, 253920, Note_on_c, 7, 50, 90
9, 253949, Note_on_c, 7, 50, 0
9, 253950, Note_on_c, 7, 54, 90
9, 253979, Note_on_c, 7, 54, 0
9, 253980, Note_on_c, 7, 47, 90
9, 254039, Note_on_c, 7, 47, 0
9, 254040, Note_on_c, 7, 59, 90
9, 254099, Note_on_c, 7, 59, 0
9, 254160, Note_on_c, 7, 52, 90
9, 254219, Note_on_c, 7, 52, 0
9, 254220, Note_on_c, 7, 56, 90
9, 254279, Note_on_c, 7, 56, 0
9, 254280, Note_on_c, 7, 52, 90
9, 254339, Note_on_c, 7, 52, 0
9, 254340, Note_on_c, 7, 57, 90
9, 254399, Note_on_c, 7, 57, 0
9, 254400, Note_on_c, 7, 49, 90
9, 254459, Note_on_c, 7, 49, 0
9, 254460, Note_on_c, 7, 52, 90
9, 254519, Note_on_c, 7, 52, 0
9, 254520, Note_on_c, 7, 45, 90
9, 254579, Note_on_c, 7, 45, 0
9, 254580, Note_on_c, 7, 49, 90
9, 254639, Note_on_c, 7, 49, 0
9, 254640, Note_on_c, 7, 45, 90
9, 254699, Note_on_c, 7, 45, 0
9, 254700, Note_on_c, 7, 52, 90
9, 254759, Note_on_c, 7, 52, 0
9, 254760, Note_on_c, 7, 56, 90
9, 254819, Note_on_c, 7, 56, 0
9, 254820, Note_on_c, 7, 54, 90
9, 254879, Note_on_c, 7, 54, 0
9, 254880, Note_on_c, 7, 52, 90
9, 254939, Note_on_c, 7, 52, 0
9, 254940, Note_on_c, 7, 47, 90
9, 254969, Note_on_c, 7, 47, 0
9, 254970, Note_on_c, 7, 49, 90
9, 254999, Note_on_c, 7, 49, 0
9, 255000, Note_on_c, 7, 51, 90
9, 255029, Note_on_c, 7, 51, 0
9, 255030, Note_on_c, 7, 52, 90
9, 255059, Note_on_c, 7, 52, 0
9, 255060, Note_on_c, 7, 54, 90
9, 255119, Note_on_c, 7, 54, 0
9, 255120, Note_on_c, 7, 51, 90
9, 255179, Note_on_c, 7, 51, 0
9, 255180, Note_on_c, 7, 52, 90
9, 255239, Note_on_c, 7, 52, 0
9, 255240, Note_on_c, 7, 47, 90
9, 255299, Note_on_c, 7, 47, 0
9, 255300, Note_on_c, 7, 49, 90
9, 255359, Note_on_c, 7, 49, 0
9, 255360, Note_on_c, 7, 51, 90
9, 255419, Note_on_c, 7, 51, 0
9, 255420, Note_on_c, 7, 52, 90
9, 255479, Note_on_c, 7, 52, 0
9, 255480, Note_on_c, 7, 45, 90
9, 255539, Note_on_c, 7, 45, 0
9, 255540, Note_on_c, 7, 47, 90
9, 255599, Note_on_c, 7, 47, 0
9, 255600, Note_on_c, 7, 49, 90
9, 255659, Note_on_c, 7, 49, 0
9, 255660, Note_on_c, 7, 47, 90
9, 255719, Note_on_c, 7, 47, 0
9, 255720, Note_on_c, 7, 45, 90
9, 255779, Note_on_c, 7, 45, 0
9, 255780, Note_on_c, 7, 44, 90
9, 255839, Note_on_c, 7, 44, 0
9, 255840, Note_on_c, 7, 45, 90
9, 255899, Note_on_c, 7, 45, 0
9, 255900, Note_on_c, 7, 47, 90
9, 255959, Note_on_c, 7, 47, 0
9, 255960, Note_on_c, 7, 40, 90
9, 256019, Note_on_c, 7, 40, 0
9, 256020, Note_on_c, 7, 42, 90
9, 256079, Note_on_c, 7, 42, 0
9, 256080, Note_on_c, 7, 44, 90
9, 256139, Note_on_c, 7, 44, 0
9, 256140, Note_on_c, 7, 45, 90
9, 256199, Note_on_c, 7, 45, 0
9, 256200, Note_on_c, 7, 57, 90
9, 256259, Note_on_c, 7, 57, 0
9, 256260, Note_on_c, 7, 56, 90
9, 256319, Note_on_c, 7, 56, 0
9, 256320, Note_on_c, 7, 54, 90
9, 256349, Note_on_c, 7, 54, 0
9, 256350, Note_on_c, 7, 52, 90
9, 256379, Note_on_c, 7, 52, 0
9, 256380, Note_on_c, 7, 51, 90
9, 256409, Note_on_c, 7, 51, 0
9, 256410, Note_on_c, 7, 52, 90
9, 256439, Note_on_c, 7, 52, 0
9, 256440, Note_on_c, 7, 54, 90
9, 256469, Note_on_c, 7, 54, 0
9, 256470, Note_on_c, 7, 51, 90
9, 256499, Note_on_c, 7, 51, 0
9, 256500, Note_on_c, 7, 44, 90
9, 256559, Note_on_c, 7, 44, 0
9, 256560, Note_on_c, 7, 56, 90
9, 256619, Note_on_c, 7, 56, 0
9, 256620, Note_on_c, 7, 54, 90
9, 256679, Note_on_c, 7, 54, 0
9, 256680, Note_on_c, 7, 52, 90
9, 256709, Note_on_c, 7, 52, 0
9, 256710, Note_on_c, 7, 51, 90
9, 256739, Note_on_c, 7, 51, 0
9, 256740, Note_on_c, 7, 49, 90
9, 256769, Note_on_c, 7, 49, 0
9, 256770, Note_on_c, 7, 51, 90
9, 256799, Note_on_c, 7, 51, 0
9, 256800, Note_on_c, 7, 52, 90
9, 256829, Note_on_c, 7, 52, 0
9, 256830, Note_on_c, 7, 49, 90
9, 256859, Note_on_c, 7, 49, 0
9, 256860, Note_on_c, 7, 42, 90
9, 256919, Note_on_c, 7, 42, 0
9, 256920, Note_on_c, 7, 54, 90
9, 256979, Note_on_c, 7, 54, 0
9, 256980, Note_on_c, 7, 52, 90
9, 257039, Note_on_c, 7, 52, 0
9, 257040, Note_on_c, 7, 51, 90
9, 257099, Note_on_c, 7, 51, 0
9, 257100, Note_on_c, 7, 52, 90
9, 257159, Note_on_c, 7, 52, 0
9, 257160, Note_on_c, 7, 54, 90
9, 257219, Note_on_c, 7, 54, 0
9, 257220, Note_on_c, 7, 47, 90
9, 257279, Note_on_c, 7, 47, 0
9, 257280, Note_on_c, 7, 51, 90
9, 257339, Note_on_c, 7, 51, 0
9, 257340, Note_on_c, 7, 54, 90
9, 257399, Note_on_c, 7, 54, 0
9, 257400, Note_on_c, 7, 51, 90
9, 257459, Note_on_c, 7, 51, 0
9, 257460, Note_on_c, 7, 47, 90
9, 257519, Note_on_c, 7, 47, 0
9, 257520, Note_on_c, 7, 45, 90
9, 257579, Note_on_c, 7, 45, 0
9, 257580, Note_on_c, 7, 44, 90
9, 257609, Note_on_c, 7, 44, 0
9, 257610, Note_on_c, 7, 47, 90
9, 257639, Note_on_c, 7, 47, 0
9, 257640, Note_on_c, 7, 44, 90
9, 257669, Note_on_c, 7, 44, 0
9, 257670, Note_on_c, 7, 47, 90
9, 257699, Note_on_c, 7, 47, 0
9, 257700, Note_on_c, 7, 44, 90
9, 257729, Note_on_c, 7, 44, 0
9, 257730, Note_on_c, 7, 47, 90
9, 257759, Note_on_c, 7, 47, 0
9, 257760, Note_on_c, 7, 49, 90
9, 257789, Note_on_c, 7, 49, 0
9, 257790, Note_on_c, 7, 52, 90
9, 257819, Note_on_c, 7, 52, 0
9, 257820, Note_on_c, 7, 49, 90
9, 257849, Note_on_c, 7, 49, 0
9, 257850, Note_on_c, 7, 52, 90
9, 257879, Note_on_c, 7, 52, 0
9, 257880, Note_on_c, 7, 49, 90
9, 257909, Note_on_c, 7, 49, 0
9, 257910, Note_on_c, 7, 52, 90
9, 257939, Note_on_c, 7, 52, 0
9, 257940, Note_on_c, 7, 57, 90
9, 257999, Note_on_c, 7, 57, 0
9, 258000, Note_on_c, 7, 59, 90
9, 258059, Note_on_c, 7, 59, 0
9, 258060, Note_on_c, 7, 47, 90
9, 258119, Note_on_c, 7, 47, 0
9, 258120, Note_on_c, 7, 40, 90
9, 258239, Note_on_c, 7, 40, 0
9, 258420, Note_on_c, 7, 47, 90
9, 258479, Note_on_c, 7, 47, 0
9, 258480, Note_on_c, 7, 52, 90
9, 258539, Note_on_c, 7, 52, 0
9, 258540, Note_on_c, 7, 56, 90
9, 258599, Note_on_c, 7, 56, 0
9, 258600, Note_on_c, 7, 52, 90
9, 258659, Note_on_c, 7, 52, 0
9, 258660, Note_on_c, 7, 51, 90
9, 258719, Note_on_c, 7, 51, 0
9, 258720, Note_on_c, 7, 47, 90
9, 258779, Note_on_c, 7, 47, 0
9, 258780, Note_on_c, 7, 52, 90
9, 258839, Note_on_c, 7, 52, 0
9, 258840, Note_on_c, 7, 56, 90
9, 258899, Note_on_c, 7, 56, 0
9, 258900, Note_on_c, 7, 57, 90
9, 258929, Note_on_c, 7, 57, 0
9, 258930, Note_on_c, 7, 54, 90
9, 258959, Note_on_c, 7, 54, 0
9, 258960, Note_on_c, 7, 56, 90
9, 258989, Note_on_c, 7, 56, 0
9, 258990, Note_on_c, 7, 52, 90
9, 259019, Note_on_c, 7, 52, 0
9, 259020, Note_on_c, 7, 57, 90
9, 259079, Note_on_c, 7, 57, 0
9, 259080, Note_on_c, 7, 45, 90
9, 259139, Note_on_c, 7, 45, 0
9, 259140, Note_on_c, 7, 57, 90
9, 259199, Note_on_c, 7, 57, 0
9, 259200, Note_on_c, 7, 59, 90
9, 259229, Note_on_c, 7, 59, 0
9, 259230, Note_on_c, 7, 63, 90
9, 259259, Note_on_c, 7, 63, 0
9, 259260, Note_on_c, 7, 59, 90
9, 259289, Note_on_c, 7, 59, 0
9, 259290, Note_on_c, 7, 63, 90
9, 259319, Note_on_c, 7, 63, 0
9, 259320, Note_on_c, 7, 59, 90
9, 259349, Note_on_c, 7, 59, 0
9, 259350, Note_on_c, 7, 63, 90
9, 259379, Note_on_c, 7, 63, 0
9, 259380, Note_on_c, 7, 56, 90
9, 259439, Note_on_c, 7, 56, 0
9, 259440, Note_on_c, 7, 44, 90
9, 259499, Note_on_c, 7, 44, 0
9, 259500, Note_on_c, 7, 56, 90
9, 259559, Note_on_c, 7, 56, 0
9, 259560, Note_on_c, 7, 57, 90
9, 259589, Note_on_c, 7, 57, 0
9, 259590, Note_on_c, 7, 61, 90
9, 259619, Note_on_c, 7, 61, 0
9, 259620, Note_on_c, 7, 57, 90
9, 259649, Note_on_c, 7, 57, 0
9, 259650, Note_on_c, 7, 61, 90
9, 259679, Note_on_c, 7, 61, 0
9, 259680, Note_on_c, 7, 57, 90
9, 259709, Note_on_c, 7, 57, 0
9, 259710, Note_on_c, 7, 61, 90
9, 259739, Note_on_c, 7, 61, 0
9, 259740, Note_on_c, 7, 54, 90
9, 259799, Note_on_c, 7, 54, 0
9, 259800, Note_on_c, 7, 56, 90
9, 259859, Note_on_c, 7, 56, 0
9, 259860, Note_on_c, 7, 57, 90
9, 259979, Note_on_c, 7, 57, 0
9, 259980, Note_on_c, 7, 56, 90
9, 260009, Note_on_c, 7, 56, 0
9, 260010, Note_on_c, 7, 54, 90
9, 260039, Note_on_c, 7, 54, 0
9, 260040, Note_on_c, 7, 52, 90
9, 260069, Note_on_c, 7, 52, 0
9, 260070, Note_on_c, 7, 51, 90
9, 260099, Note_on_c, 7, 51, 0
9, 260100, Note_on_c, 7, 52, 90
9, 260159, Note_on_c, 7, 52, 0
9, 260160, Note_on_c, 7, 44, 90
9, 260219, Note_on_c, 7, 44, 0
9, 260220, Note_on_c, 7, 47, 90
9, 260279, Note_on_c, 7, 47, 0
9, 260280, Note_on_c, 7, 40, 90
9, 260339, Note_on_c, 7, 40, 0
9, 260340, Note_on_c, 7, 52, 90
9, 260369, Note_on_c, 7, 52, 0
9, 260370, Note_on_c, 7, 54, 90
9, 260399, Note_on_c, 7, 54, 0
9, 260400, Note_on_c, 7, 56, 90
9, 260429, Note_on_c, 7, 56, 0
9, 260430, Note_on_c, 7, 52, 90
9, 260459, Note_on_c, 7, 52, 0
9, 260460, Note_on_c, 7, 57, 90
9, 260519, Note_on_c, 7, 57, 0
9, 260520, Note_on_c, 7, 45, 90
9, 260579, Note_on_c, 7, 45, 0
9, 260580, Note_on_c, 7, 57, 90
9, 260639, Note_on_c, 7, 57, 0
9, 260640, Note_on_c, 7, 56, 90
9, 260699, Note_on_c, 7, 56, 0
9, 260700, Note_on_c, 7, 57, 90
9, 260729, Note_on_c, 7, 57, 0
9, 260730, Note_on_c, 7, 56, 90
9, 260759, Note_on_c, 7, 56, 0
9, 260760, Note_on_c, 7, 54, 90
9, 260789, Note_on_c, 7, 54, 0
9, 260790, Note_on_c, 7, 52, 90
9, 260819, Note_on_c, 7, 52, 0
9, 260820, Note_on_c, 7, 57, 90
9, 260879, Note_on_c, 7, 57, 0
9, 260880, Note_on_c, 7, 56, 90
9, 260939, Note_on_c, 7, 56, 0
9, 260940, Note_on_c, 7, 54, 90
9, 260999, Note_on_c, 7, 54, 0
9, 261000, Note_on_c, 7, 52, 90
9, 261059, Note_on_c, 7, 52, 0
9, 261060, Note_on_c, 7, 54, 90
9, 261119, Note_on_c, 7, 54, 0
9, 261120, Note_on_c, 7, 56, 90
9, 261179, Note_on_c, 7, 56, 0
9, 261180, Note_on_c, 7, 57, 90
9, 261209, Note_on_c, 7, 57, 0
9, 261210, Note_on_c, 7, 52, 90
9, 261239, Note_on_c, 7, 52, 0
9, 261240, Note_on_c, 7, 57, 90
9, 261269, Note_on_c, 7, 57, 0
9, 261270, Note_on_c, 7, 52, 90
9, 261299, Note_on_c, 7, 52, 0
9, 261300, Note_on_c, 7, 57, 90
9, 261329, Note_on_c, 7, 57, 0
9, 261330, Note_on_c, 7, 52, 90
9, 261359, Note_on_c, 7, 52, 0
9, 261360, Note_on_c, 7, 56, 90
9, 261389, Note_on_c, 7, 56, 0
9, 261390, Note_on_c, 7, 52, 90
9, 261419, Note_on_c, 7, 52, 0
9, 261420, Note_on_c, 7, 56, 90
9, 261449, Note_on_c, 7, 56, 0
9, 261450, Note_on_c, 7, 52, 90
9, 261479, Note_on_c, 7, 52, 0
9, 261480, Note_on_c, 7, 56, 90
9, 261509, Note_on_c, 7, 56, 0
9, 261510, Note_on_c, 7, 52, 90
9, 261539, Note_on_c, 7, 52, 0
9, 261540, Note_on_c, 7, 57, 90
9, 261569, Note_on_c, 7, 57, 0
9, 261570, Note_on_c, 7, 52, 90
9, 261599, Note_on_c, 7, 52, 0
9, 261600, Note_on_c, 7, 57, 90
9, 261629, Note_on_c, 7, 57, 0
9, 261630, Note_on_c, 7, 52, 90
9, 261659, Note_on_c, 7, 52, 0
9, 261660, Note_on_c, 7, 57, 90
9, 261689, Note_on_c, 7, 57, 0
9, 261690, Note_on_c, 7, 52, 90
9, 261719, Note_on_c, 7, 52, 0
9, 261720, Note_on_c, 7, 56, 90
9, 261749, Note_on_c, 7, 56, 0
9, 261750, Note_on_c, 7, 57, 90
9, 261779, Note_on_c, 7, 57, 0
9, 261780, Note_on_c, 7, 56, 90
9, 261809, Note_on_c, 7, 56, 0
9, 261810, Note_on_c, 7, 54, 90
9, 261839, Note_on_c, 7, 54, 0
9, 261840, Note_on_c, 7, 52, 90
9, 261869, Note_on_c, 7, 52, 0
9, 261870, Note_on_c, 7, 50, 90
9, 261899, Note_on_c, 7, 50, 0
9, 261900, Note_on_c, 7, 49, 90
9, 261959, Note_on_c, 7, 49, 0
9, 261960, Note_on_c, 7, 45, 90
9, 262019, Note_on_c, 7, 45, 0
9, 262020, Note_on_c, 7, 52, 90
9, 262079, Note_on_c, 7, 52, 0
9, 262080, Note_on_c, 7, 57, 90
9, 262139, Note_on_c, 7, 57, 0
9, 262140, Note_on_c, 7, 61, 90
9, 262199, Note_on_c, 7, 61, 0
9, 262200, Note_on_c, 7, 57, 90
9, 262259, Note_on_c, 7, 57, 0
9, 262260, Note_on_c, 7, 56, 90
9, 262319, Note_on_c, 7, 56, 0
9, 262320, Note_on_c, 7, 52, 90
9, 262379, Note_on_c, 7, 52, 0
9, 262380, Note_on_c, 7, 57, 90
9, 262439, Note_on_c, 7, 57, 0
9, 262440, Note_on_c, 7, 49, 90
9, 262499, Note_on_c, 7, 49, 0
9, 262500, Note_on_c, 7, 50, 90
9, 262529, Note_on_c, 7, 50, 0
9, 262530, Note_on_c, 7, 47, 90
9, 262559, Note_on_c, 7, 47, 0
9, 262560, Note_on_c, 7, 49, 90
9, 262589, Note_on_c, 7, 49, 0
9, 262590, Note_on_c, 7, 45, 90
9, 262619, Note_on_c, 7, 45, 0
9, 262620, Note_on_c, 7, 50, 90
9, 262679, Note_on_c, 7, 50, 0
9, 262680, Note_on_c, 7, 62, 90
9, 262739, Note_on_c, 7, 62, 0
9, 262740, Note_on_c, 7, 50, 90
9, 262799, Note_on_c, 7, 50, 0
9, 262800, Note_on_c, 7, 52, 90
9, 262829, Note_on_c, 7, 52, 0
9, 262830, Note_on_c, 7, 56, 90
9, 262859, Note_on_c, 7, 56, 0
9, 262860, Note_on_c, 7, 52, 90
9, 262889, Note_on_c, 7, 52, 0
9, 262890, Note_on_c, 7, 56, 90
9, 262919, Note_on_c, 7, 56, 0
9, 262920, Note_on_c, 7, 52, 90
9, 262949, Note_on_c, 7, 52, 0
9, 262950, Note_on_c, 7, 56, 90
9, 262979, Note_on_c, 7, 56, 0
9, 262980, Note_on_c, 7, 49, 90
9, 263039, Note_on_c, 7, 49, 0
9, 263040, Note_on_c, 7, 61, 90
9, 263099, Note_on_c, 7, 61, 0
9, 263100, Note_on_c, 7, 49, 90
9, 263159, Note_on_c, 7, 49, 0
9, 263160, Note_on_c, 7, 50, 90
9, 263189, Note_on_c, 7, 50, 0
9, 263190, Note_on_c, 7, 54, 90
9, 263219, Note_on_c, 7, 54, 0
9, 263220, Note_on_c, 7, 50, 90
9, 263249, Note_on_c, 7, 50, 0
9, 263250, Note_on_c, 7, 54, 90
9, 263279, Note_on_c, 7, 54, 0
9, 263280, Note_on_c, 7, 50, 90
9, 263309, Note_on_c, 7, 50, 0
9, 263310, Note_on_c, 7, 54, 90
9, 263339, Note_on_c, 7, 54, 0
9, 263340, Note_on_c, 7, 47, 90
9, 263399, Note_on_c, 7, 47, 0
9, 263400, Note_on_c, 7, 49, 90
9, 263459, Note_on_c, 7, 49, 0
9, 263460, Note_on_c, 7, 50, 90
9, 263519, Note_on_c, 7, 50, 0
9, 263520, Note_on_c, 7, 52, 90
9, 263579, Note_on_c, 7, 52, 0
9, 263580, Note_on_c, 7, 56, 90
9, 263639, Note_on_c, 7, 56, 0
9, 263640, Note_on_c, 7, 52, 90
9, 263699, Note_on_c, 7, 52, 0
9, 263700, Note_on_c, 7, 57, 90
9, 263759, Note_on_c, 7, 57, 0
9, 263760, Note_on_c, 7, 50, 90
9, 263789, Note_on_c, 7, 50, 0
9, 263790, Note_on_c, 7, 49, 90
9, 263819, Note_on_c, 7, 49, 0
9, 263820, Note_on_c, 7, 50, 90
9, 263939, Note_on_c, 7, 50, 0
9, 263940, Note_on_c, 7, 49, 90
9, 263999, Note_on_c, 7, 49, 0
9, 264000, Note_on_c, 7, 47, 90
9, 264059, Note_on_c, 7, 47, 0
9, 264060, Note_on_c, 7, 49, 90
9, 264119, Note_on_c, 7, 49, 0
9, 264120, Note_on_c, 7, 50, 90
9, 264179, Note_on_c, 7, 50, 0
9, 264180, Note_on_c, 7, 52, 90
9, 264239, Note_on_c, 7, 52, 0
9, 264240, Note_on_c, 7, 45, 90
9, 264299, Note_on_c, 7, 45, 0
9, 264300, Note_on_c, 7, 47, 90
9, 264359, Note_on_c, 7, 47, 0
9, 264360, Note_on_c, 7, 49, 90
9, 264419, Note_on_c, 7, 49, 0
9, 264420, Note_on_c, 7, 42, 90
9, 264479, Note_on_c, 7, 42, 0
9, 264480, Note_on_c, 7, 38, 90
9, 264539, Note_on_c, 7, 38, 0
9, 264540, Note_on_c, 7, 40, 90
9, 264599, Note_on_c, 7, 40, 0
9, 264600, Note_on_c, 7, 45, 90
9, 264659, Note_on_c, 7, 45, 0
9, 264660, Note_on_c, 7, 57, 90
9, 264719, Note_on_c, 7, 57, 0
9, 264720, Note_on_c, 7, 56, 90
9, 264779, Note_on_c, 7, 56, 0
9, 264780, Note_on_c, 7, 54, 90
9, 264809, Note_on_c, 7, 54, 0
9, 264810, Note_on_c, 7, 57, 90
9, 264839, Note_on_c, 7, 57, 0
9, 264840, Note_on_c, 7, 54, 90
9, 264869, Note_on_c, 7, 54, 0
9, 264870, Note_on_c, 7, 57, 90
9, 264899, Note_on_c, 7, 57, 0
9, 264900, Note_on_c, 7, 54, 90
9, 264929, Note_on_c, 7, 54, 0
9, 264930, Note_on_c, 7, 57, 90
9, 264959, Note_on_c, 7, 57, 0
9, 264960, Note_on_c, 7, 51, 90
9, 264989, Note_on_c, 7, 51, 0
9, 264990, Note_on_c, 7, 54, 90
9, 265019, Note_on_c, 7, 54, 0
9, 265020, Note_on_c, 7, 51, 90
9, 265049, Note_on_c, 7, 51, 0
9, 265050, Note_on_c, 7, 54, 90
9, 265079, Note_on_c, 7, 54, 0
9, 265080, Note_on_c, 7, 51, 90
9, 265109, Note_on_c, 7, 51, 0
9, 265110, Note_on_c, 7, 54, 90
9, 265139, Note_on_c, 7, 54, 0
9, 265140, Note_on_c, 7, 47, 90
9, 265199, Note_on_c, 7, 47, 0
9, 265200, Note_on_c, 7, 42, 90
9, 265259, Note_on_c, 7, 42, 0
9, 265260, Note_on_c, 7, 45, 90
9, 265319, Note_on_c, 7, 45, 0
9, 265320, Note_on_c, 7, 44, 90
9, 265379, Note_on_c, 7, 44, 0
9, 265380, Note_on_c, 7, 40, 90
9, 265439, Note_on_c, 7, 40, 0
9, 265440, Note_on_c, 7, 44, 90
9, 265499, Note_on_c, 7, 44, 0
9, 265500, Note_on_c, 7, 45, 90
9, 265619, Note_on_c, 7, 45, 0
9, 265680, Note_on_c, 7, 47, 90
9, 265799, Note_on_c, 7, 47, 0
9, 265860, Note_on_c, 7, 49, 90
9, 265919, Note_on_c, 7, 49, 0
9, 265920, Note_on_c, 7, 50, 90
9, 265979, Note_on_c, 7, 50, 0
9, 265980, Note_on_c, 7, 52, 90
9, 266039, Note_on_c, 7, 52, 0
9, 266040, Note_on_c, 7, 45, 90
9, 266159, Note_on_c, 7, 45, 0
9, 266340, Note_on_c, 7, 52, 90
9, 266399, Note_on_c, 7, 52, 0
9, 266400, Note_on_c, 7, 57, 90
9, 266459, Note_on_c, 7, 57, 0
9, 266460, Note_on_c, 7, 61, 90
9, 266519, Note_on_c, 7, 61, 0
9, 266520, Note_on_c, 7, 57, 90
9, 266579, Note_on_c, 7, 57, 0
9, 266580, Note_on_c, 7, 56, 90
9, 266639, Note_on_c, 7, 56, 0
9, 266640, Note_on_c, 7, 52, 90
9, 266699, Note_on_c, 7, 52, 0
9, 266700, Note_on_c, 7, 57, 90
9, 266759, Note_on_c, 7, 57, 0
9, 266760, Note_on_c, 7, 49, 90
9, 266819, Note_on_c, 7, 49, 0
9, 266820, Note_on_c, 7, 50, 90
9, 266849, Note_on_c, 7, 50, 0
9, 266850, Note_on_c, 7, 47, 90
9, 266879, Note_on_c, 7, 47, 0
9, 266880, Note_on_c, 7, 49, 90
9, 266909, Note_on_c, 7, 49, 0
9, 266910, Note_on_c, 7, 45, 90
9, 266939, Note_on_c, 7, 45, 0
9, 266940, Note_on_c, 7, 50, 90
9, 266999, Note_on_c, 7, 50, 0
9, 267000, Note_on_c, 7, 62, 90
9, 267059, Note_on_c, 7, 62, 0
9, 267060, Note_on_c, 7, 50, 90
9, 267119, Note_on_c, 7, 50, 0
9, 267120, Note_on_c, 7, 52, 90
9, 267149, Note_on_c, 7, 52, 0
9, 267150, Note_on_c, 7, 56, 90
9, 267179, Note_on_c, 7, 56, 0
9, 267180, Note_on_c, 7, 52, 90
9, 267209, Note_on_c, 7, 52, 0
9, 267210, Note_on_c, 7, 56, 90
9, 267239, Note_on_c, 7, 56, 0
9, 267240, Note_on_c, 7, 52, 90
9, 267269, Note_on_c, 7, 52, 0
9, 267270, Note_on_c, 7, 56, 90
9, 267299, Note_on_c, 7, 56, 0
9, 267300, Note_on_c, 7, 49, 90
9, 267359, Note_on_c, 7, 49, 0
9, 267360, Note_on_c, 7, 61, 90
9, 267419, Note_on_c, 7, 61, 0
9, 267420, Note_on_c, 7, 49, 90
9, 267479, Note_on_c, 7, 49, 0
9, 267480, Note_on_c, 7, 50, 90
9, 267509, Note_on_c, 7, 50, 0
9, 267510, Note_on_c, 7, 54, 90
9, 267539, Note_on_c, 7, 54, 0
9, 267540, Note_on_c, 7, 50, 90
9, 267569, Note_on_c, 7, 50, 0
9, 267570, Note_on_c, 7, 54, 90
9, 267599, Note_on_c, 7, 54, 0
9, 267600, Note_on_c, 7, 50, 90
9, 267629, Note_on_c, 7, 50, 0
9, 267630, Note_on_c, 7, 54, 90
9, 267659, Note_on_c, 7, 54, 0
9, 267660, Note_on_c, 7, 47, 90
9, 267719, Note_on_c, 7, 47, 0
9, 267720, Note_on_c, 7, 49, 90
9, 267779, Note_on_c, 7, 49, 0
9, 267780, Note_on_c, 7, 50, 90
9, 267839, Note_on_c, 7, 50, 0
9, 267840, Note_on_c, 7, 52, 90
9, 267899, Note_on_c, 7, 52, 0
9, 267900, Note_on_c, 7, 54, 90
9, 267959, Note_on_c, 7, 54, 0
9, 267960, Note_on_c, 7, 56, 90
9, 268019, Note_on_c, 7, 56, 0
9, 268020, Note_on_c, 7, 57, 90
9, 268079, Note_on_c, 7, 57, 0
9, 268080, Note_on_c, 7, 50, 90
9, 268139, Note_on_c, 7, 50, 0
9, 268140, Note_on_c, 7, 52, 90
9, 268199, Note_on_c, 7, 52, 0
9, 268200, Note_on_c, 7, 54, 90
9, 268259, Note_on_c, 7, 54, 0
9, 268260, Note_on_c, 7, 52, 90
9, 268319, Note_on_c, 7, 52, 0
9, 268320, Note_on_c, 7, 50, 90
9, 268379, Note_on_c, 7, 50, 0
9, 268380, Note_on_c, 7, 49, 90
9, 268439, Note_on_c, 7, 49, 0
9, 268440, Note_on_c, 7, 50, 90
9, 268499, Note_on_c, 7, 50, 0
9, 268500, Note_on_c, 7, 52, 90
9, 268559, Note_on_c, 7, 52, 0
9, 268560, Note_on_c, 7, 45, 90
9, 268619, Note_on_c, 7, 45, 0
9, 268620, Note_on_c, 7, 47, 90
9, 268679, Note_on_c, 7, 47, 0
9, 268680, Note_on_c, 7, 49, 90
9, 268739, Note_on_c, 7, 49, 0
9, 268740, Note_on_c, 7, 42, 90
9, 268799, Note_on_c, 7, 42, 0
9, 268800, Note_on_c, 7, 38, 90
9, 268859, Note_on_c, 7, 38, 0
9, 268860, Note_on_c, 7, 40, 90
9, 268919, Note_on_c, 7, 40, 0
9, 268920, Note_on_c, 7, 45, 90
9, 269100, Note_on_c, 7, 45, 0
9, 269280, Note_on_c, 7, 49, 90
9, 269520, Note_on_c, 7, 49, 0
9, 269520, Note_on_c, 7, 50, 90
9, 269760, Note_on_c, 7, 50, 0
9, 269880, Note_on_c, 7, 52, 90
9, 270000, Note_on_c, 7, 52, 0
9, 270000, Note_on_c, 7, 45, 90
9, 270360, Note_on_c, 7, 45, 0
9, 270360, Note_on_c, 7, 43, 90
9, 270720, Note_on_c, 7, 43, 0
9, 270720, Note_on_c, 7, 42, 90
9, 271080, Note_on_c, 7, 42, 0
9, 271080, Note_on_c, 7, 51, 90
9, 271200, Note_on_c, 7, 51, 0
9, 271200, Note_on_c, 7, 52, 90
9, 271320, Note_on_c, 7, 52, 0
9, 271320, Note_on_c, 7, 55, 90
9, 271440, Note_on_c, 7, 55, 0
9, 271440, Note_on_c, 7, 54, 90
9, 271560, Note_on_c, 7, 54, 0
9, 272160, Note_on_c, 7, 54, 90
9, 272279, Note_on_c, 7, 54, 0
9, 272280, Note_on_c, 7, 59, 90
9, 272399, Note_on_c, 7, 59, 0
9, 272400, Note_on_c, 7, 57, 90
9, 272519, Note_on_c, 7, 57, 0
9, 272520, Note_on_c, 7, 55, 90
9, 272639, Note_on_c, 7, 55, 0
9, 272640, Note_on_c, 7, 57, 90
9, 272759, Note_on_c, 7, 57, 0
9, 272760, Note_on_c, 7, 50, 90
9, 272879, Note_on_c, 7, 50, 0
9, 272880, Note_on_c, 7, 52, 90
9, 272999, Note_on_c, 7, 52, 0
9, 273000, Note_on_c, 7, 54, 90
9, 273119, Note_on_c, 7, 54, 0
9, 273120, Note_on_c, 7, 52, 90
9, 273179, Note_on_c, 7, 52, 0
9, 273180, Note_on_c, 7, 54, 90
9, 273239, Note_on_c, 7, 54, 0
9, 273240, Note_on_c, 7, 55, 90
9, 273359, Note_on_c, 7, 55, 0
9, 273360, Note_on_c, 7, 54, 90
9, 273419, Note_on_c, 7, 54, 0
9, 273420, Note_on_c, 7, 55, 90
9, 273479, Note_on_c, 7, 55, 0
9, 273480, Note_on_c, 7, 52, 90
9, 273599, Note_on_c, 7, 52, 0
9, 273600, Note_on_c, 7, 50, 90
9, 273659, Note_on_c, 7, 50, 0
9, 273660, Note_on_c, 7, 52, 90
9, 273719, Note_on_c, 7, 52, 0
9, 273720, Note_on_c, 7, 54, 90
9, 273839, Note_on_c, 7, 54, 0
9, 273840, Note_on_c, 7, 52, 90
9, 273899, Note_on_c, 7, 52, 0
9, 273900, Note_on_c, 7, 54, 90
9, 273959, Note_on_c, 7, 54, 0
9, 273960, Note_on_c, 7, 50, 90
9, 274079, Note_on_c, 7, 50, 0
9, 274080, Note_on_c, 7, 49, 90
9, 274139, Note_on_c, 7, 49, 0
9, 274140, Note_on_c, 7, 50, 90
9, 274199, Note_on_c, 7, 50, 0
9, 274200, Note_on_c, 7, 52, 90
9, 274319, Note_on_c, 7, 52, 0
9, 274320, Note_on_c, 7, 50, 90
9, 274379, Note_on_c, 7, 50, 0
9, 274380, Note_on_c, 7, 52, 90
9, 274439, Note_on_c, 7, 52, 0
9, 274440, Note_on_c, 7, 54, 90
9, 274559, Note_on_c, 7, 54, 0
9, 274560, Note_on_c, 7, 52, 90
9, 274619, Note_on_c, 7, 52, 0
9, 274620, Note_on_c, 7, 54, 90
9, 274679, Note_on_c, 7, 54, 0
9, 274680, Note_on_c, 7, 47, 90
9, 274799, Note_on_c, 7, 47, 0
9, 274800, Note_on_c, 7, 43, 90
9, 274919, Note_on_c, 7, 43, 0
9, 274920, Note_on_c, 7, 40, 90
9, 275039, Note_on_c, 7, 40, 0
9, 275040, Note_on_c, 7, 42, 90
9, 275159, Note_on_c, 7, 42, 0
9, 275160, Note_on_c, 7, 47, 90
9, 275279, Note_on_c, 7, 47, 0
9, 275520, Note_on_c, 7, 54, 90
9, 275639, Note_on_c, 7, 54, 0
9, 275640, Note_on_c, 7, 59, 90
9, 275759, Note_on_c, 7, 59, 0
9, 275760, Note_on_c, 7, 57, 90
9, 275819, Note_on_c, 7, 57, 0
9, 275820, Note_on_c, 7, 59, 90
9, 275879, Note_on_c, 7, 59, 0
9, 275880, Note_on_c, 7, 56, 90
9, 275999, Note_on_c, 7, 56, 0
9, 276000, Note_on_c, 7, 54, 90
9, 276059, Note_on_c, 7, 54, 0
9, 276060, Note_on_c, 7, 56, 90
9, 276119, Note_on_c, 7, 56, 0
9, 276120, Note_on_c, 7, 58, 90
9, 276239, Note_on_c, 7, 58, 0
9, 276240, Note_on_c, 7, 56, 90
9, 276299, Note_on_c, 7, 56, 0
9, 276300, Note_on_c, 7, 58, 90
9, 276359, Note_on_c, 7, 58, 0
9, 276360, Note_on_c, 7, 59, 90
9, 276479, Note_on_c, 7, 59, 0
9, 276480, Note_on_c, 7, 54, 90
9, 276599, Note_on_c, 7, 54, 0
9, 276600, Note_on_c, 7, 55, 90
9, 276719, Note_on_c, 7, 55, 0
9, 276720, Note_on_c, 7, 54, 90
9, 276779, Note_on_c, 7, 54, 0
9, 276780, Note_on_c, 7, 55, 90
9, 276839, Note_on_c, 7, 55, 0
9, 276840, Note_on_c, 7, 52, 90
9, 276959, Note_on_c, 7, 52, 0
9, 276960, Note_on_c, 7, 50, 90
9, 277019, Note_on_c, 7, 50, 0
9, 277020, Note_on_c, 7, 52, 90
9, 277079, Note_on_c, 7, 52, 0
9, 277080, Note_on_c, 7, 54, 90
9, 277199, Note_on_c, 7, 54, 0
9, 277200, Note_on_c, 7, 42, 90
9, 277319, Note_on_c, 7, 42, 0
9, 277320, Note_on_c, 7, 43, 90
9, 277439, Note_on_c, 7, 43, 0
9, 277440, Note_on_c, 7, 42, 90
9, 277499, Note_on_c, 7, 42, 0
9, 277500, Note_on_c, 7, 43, 90
9, 277559, Note_on_c, 7, 43, 0
9, 277560, Note_on_c, 7, 40, 90
9, 277679, Note_on_c, 7, 40, 0
9, 277680, Note_on_c, 7, 38, 90
9, 277739, Note_on_c, 7, 38, 0
9, 277740, Note_on_c, 7, 40, 90
9, 277799, Note_on_c, 7, 40, 0
9, 277800, Note_on_c, 7, 42, 90
9, 277919, Note_on_c, 7, 42, 0
9, 277920, Note_on_c, 7, 40, 90
9, 277979, Note_on_c, 7, 40, 0
9, 277980, Note_on_c, 7, 42, 90
9, 278039, Note_on_c, 7, 42, 0
9, 278040, Note_on_c, 7, 47, 90
9, 278159, Note_on_c, 7, 47, 0
9, 278160, Note_on_c, 7, 59, 90
9, 278279, Note_on_c, 7, 59, 0
9, 278280, Note_on_c, 7, 50, 90
9, 278399, Note_on_c, 7, 50, 0
9, 278400, Note_on_c, 7, 54, 90
9, 278519, Note_on_c, 7, 54, 0
9, 278520, Note_on_c, 7, 47, 90
9, 278759, Note_on_c, 7, 47, 0
9, 278880, Note_on_c, 7, 45, 90
9, 278999, Note_on_c, 7, 45, 0
9, 279000, Note_on_c, 7, 50, 90
9, 279119, Note_on_c, 7, 50, 0
9, 279120, Note_on_c, 7, 49, 90
9, 279239, Note_on_c, 7, 49, 0
9, 279240, Note_on_c, 7, 50, 90
9, 279359, Note_on_c, 7, 50, 0
9, 279360, Note_on_c, 7, 52, 90
9, 279479, Note_on_c, 7, 52, 0
9, 279480, Note_on_c, 7, 54, 90
9, 279599, Note_on_c, 7, 54, 0
9, 279600, Note_on_c, 7, 55, 90
9, 279719, Note_on_c, 7, 55, 0
9, 279720, Note_on_c, 7, 57, 90
9, 279839, Note_on_c, 7, 57, 0
9, 279840, Note_on_c, 7, 55, 90
9, 279959, Note_on_c, 7, 55, 0
9, 279960, Note_on_c, 7, 54, 90
9, 280079, Note_on_c, 7, 54, 0
9, 280080, Note_on_c, 7, 59, 90
9, 280199, Note_on_c, 7, 59, 0
9, 280200, Note_on_c, 7, 55, 90
9, 280319, Note_on_c, 7, 55, 0
9, 280320, Note_on_c, 7, 57, 90
9, 280439, Note_on_c, 7, 57, 0
9, 280440, Note_on_c, 7, 50, 90
9, 280559, Note_on_c, 7, 50, 0
9, 280560, Note_on_c, 7, 52, 90
9, 280679, Note_on_c, 7, 52, 0
9, 280680, Note_on_c, 7, 54, 90
9, 280799, Note_on_c, 7, 54, 0
9, 280800, Note_on_c, 7, 52, 90
9, 280859, Note_on_c, 7, 52, 0
9, 280860, Note_on_c, 7, 54, 90
9, 280919, Note_on_c, 7, 54, 0
9, 280920, Note_on_c, 7, 55, 90
9, 281039, Note_on_c, 7, 55, 0
9, 281040, Note_on_c, 7, 54, 90
9, 281099, Note_on_c, 7, 54, 0
9, 281100, Note_on_c, 7, 55, 90
9, 281159, Note_on_c, 7, 55, 0
9, 281160, Note_on_c, 7, 52, 90
9, 281279, Note_on_c, 7, 52, 0
9, 281280, Note_on_c, 7, 50, 90
9, 281339, Note_on_c, 7, 50, 0
9, 281340, Note_on_c, 7, 52, 90
9, 281399, Note_on_c, 7, 52, 0
9, 281400, Note_on_c, 7, 54, 90
9, 281519, Note_on_c, 7, 54, 0
9, 281520, Note_on_c, 7, 52, 90
9, 281579, Note_on_c, 7, 52, 0
9, 281580, Note_on_c, 7, 54, 90
9, 281639, Note_on_c, 7, 54, 0
9, 281640, Note_on_c, 7, 50, 90
9, 281759, Note_on_c, 7, 50, 0
9, 281760, Note_on_c, 7, 49, 90
9, 281819, Note_on_c, 7, 49, 0
9, 281820, Note_on_c, 7, 50, 90
9, 281879, Note_on_c, 7, 50, 0
9, 281880, Note_on_c, 7, 52, 90
9, 281999, Note_on_c, 7, 52, 0
9, 282000, Note_on_c, 7, 50, 90
9, 282059, Note_on_c, 7, 50, 0
9, 282060, Note_on_c, 7, 52, 90
9, 282119, Note_on_c, 7, 52, 0
9, 282120, Note_on_c, 7, 54, 90
9, 282239, Note_on_c, 7, 54, 0
9, 282240, Note_on_c, 7, 52, 90
9, 282299, Note_on_c, 7, 52, 0
9, 282300, Note_on_c, 7, 54, 90
9, 282359, Note_on_c, 7, 54, 0
9, 282360, Note_on_c, 7, 47, 90
9, 282479, Note_on_c, 7, 47, 0
9, 282480, Note_on_c, 7, 43, 90
9, 282599, Note_on_c, 7, 43, 0
9, 282600, Note_on_c, 7, 40, 90
9, 282719, Note_on_c, 7, 40, 0
9, 282720, Note_on_c, 7, 42, 90
9, 282839, Note_on_c, 7, 42, 0
9, 282840, Note_on_c, 7, 47, 90
9, 283079, Note_on_c, 7, 47, 0
9, 283200, Note_on_c, 7, 45, 90
9, 283319, Note_on_c, 7, 45, 0
9, 283320, Note_on_c, 7, 50, 90
9, 283439, Note_on_c, 7, 50, 0
9, 283440, Note_on_c, 7, 49, 90
9, 283559, Note_on_c, 7, 49, 0
9, 283560, Note_on_c, 7, 50, 90
9, 283679, Note_on_c, 7, 50, 0
9, 283680, Note_on_c, 7, 52, 90
9, 283799, Note_on_c, 7, 52, 0
9, 283800, Note_on_c, 7, 54, 90
9, 283919, Note_on_c, 7, 54, 0
9, 283920, Note_on_c, 7, 55, 90
9, 284039, Note_on_c, 7, 55, 0
9, 284040, Note_on_c, 7, 57, 90
9, 284159, Note_on_c, 7, 57, 0
9, 284160, Note_on_c, 7, 55, 90
9, 284279, Note_on_c, 7, 55, 0
9, 284280, Note_on_c, 7, 54, 90
9, 284399, Note_on_c, 7, 54, 0
9, 284400, Note_on_c, 7, 59, 90
9, 284519, Note_on_c, 7, 59, 0
9, 284520, Note_on_c, 7, 55, 90
9, 284639, Note_on_c, 7, 55, 0
9, 284640, Note_on_c, 7, 57, 90
9, 284759, Note_on_c, 7, 57, 0
9, 284760, Note_on_c, 7, 50, 90
9, 284879, Note_on_c, 7, 50, 0
9, 284880, Note_on_c, 7, 49, 90
9, 284999, Note_on_c, 7, 49, 0
9, 285000, Note_on_c, 7, 47, 90
9, 285119, Note_on_c, 7, 47, 0
9, 285120, Note_on_c, 7, 45, 90
9, 285239, Note_on_c, 7, 45, 0
9, 285240, Note_on_c, 7, 43, 90
9, 285359, Note_on_c, 7, 43, 0
9, 285360, Note_on_c, 7, 55, 90
9, 285419, Note_on_c, 7, 55, 0
9, 285420, Note_on_c, 7, 54, 90
9, 285479, Note_on_c, 7, 54, 0
9, 285480, Note_on_c, 7, 52, 90
9, 285599, Note_on_c, 7, 52, 0
9, 285600, Note_on_c, 7, 55, 90
9, 285719, Note_on_c, 7, 55, 0
9, 285720, Note_on_c, 7, 49, 90
9, 285839, Note_on_c, 7, 49, 0
9, 285840, Note_on_c, 7, 54, 90
9, 286079, Note_on_c, 7, 54, 0
9, 286080, Note_on_c, 7, 52, 90
9, 286139, Note_on_c, 7, 52, 0
9, 286140, Note_on_c, 7, 50, 90
9, 286199, Note_on_c, 7, 50, 0
9, 286200, Note_on_c, 7, 52, 90
9, 286319, Note_on_c, 7, 52, 0
9, 286320, Note_on_c, 7, 49, 90
9, 286439, Note_on_c, 7, 49, 0
9, 286440, Note_on_c, 7, 54, 90
9, 286559, Note_on_c, 7, 54, 0
9, 286560, Note_on_c, 7, 42, 90
9, 286679, Note_on_c, 7, 42, 0
9, 286680, Note_on_c, 7, 47, 90
9, 287039, Note_on_c, 7, 47, 0
9, 287160, Note_on_c, 7, 42, 90
9, 288120, Note_on_c, 7, 42, 0
9, 288120, Note_on_c, 7, 51, 90
9, 288360, Note_on_c, 7, 51, 0
9, 288540, Note_on_c, 7, 47, 90
9, 288600, Note_on_c, 7, 47, 0
9, 288600, Note_on_c, 7, 52, 90
9, 288660, Note_on_c, 7, 52, 0
9, 288660, Note_on_c, 7, 54, 90
9, 288720, Note_on_c, 7, 54, 0
9, 288720, Note_on_c, 7, 55, 90
9, 288780, Note_on_c, 7, 55, 0
9, 288780, Note_on_c, 7, 57, 90
9, 288840, Note_on_c, 7, 57, 0
9, 288840, Note_on_c, 7, 59, 90
9, 288900, Note_on_c, 7, 59, 0
9, 288900, Note_on_c, 7, 55, 90
9, 288960, Note_on_c, 7, 55, 0
9, 288960, Note_on_c, 7, 57, 90
9, 289020, Note_on_c, 7, 57, 0
9, 289020, Note_on_c, 7, 59, 90
9, 289080, Note_on_c, 7, 59, 0
9, 289080, Note_on_c, 7, 60, 90
9, 289140, Note_on_c, 7, 60, 0
9, 289140, Note_on_c, 7, 53, 90
9, 289200, Note_on_c, 7, 53, 0
9, 289200, Note_on_c, 7, 55, 90
9, 289320, Note_on_c, 7, 55, 0
9, 289320, Note_on_c, 7, 48, 90
9, 289800, Note_on_c, 7, 48, 0
9, 289800, Note_on_c, 7, 49, 90
9, 290520, Note_on_c, 7, 49, 0
9, 290520, Note_on_c, 7, 50, 90
9, 290640, Note_on_c, 7, 50, 0
9, 290640, Note_on_c, 7, 46, 90
9, 290760, Note_on_c, 7, 46, 0
9, 290880, Note_on_c, 7, 45, 90
9, 291000, Note_on_c, 7, 45, 0
9, 291000, Note_on_c, 7, 50, 90
9, 291480, Note_on_c, 7, 50, 0
9, 291600, Note_on_c, 7, 53, 90
9, 291659, Note_on_c, 7, 53, 0
9, 291660, Note_on_c, 7, 52, 90
9, 291719, Note_on_c, 7, 52, 0
9, 291720, Note_on_c, 7, 53, 90
9, 291839, Note_on_c, 7, 53, 0
9, 291840, Note_on_c, 7, 55, 90
9, 291959, Note_on_c, 7, 55, 0
9, 291960, Note_on_c, 7, 57, 90
9, 292079, Note_on_c, 7, 57, 0
9, 292080, Note_on_c, 7, 58, 90
9, 292199, Note_on_c, 7, 58, 0
9, 292200, Note_on_c, 7, 57, 90
9, 292319, Note_on_c, 7, 57, 0
9, 292320, Note_on_c, 7, 55, 90
9, 292439, Note_on_c, 7, 55, 0
9, 292440, Note_on_c, 7, 57, 90
9, 292559, Note_on_c, 7, 57, 0
9, 292560, Note_on_c, 7, 53, 90
9, 292679, Note_on_c, 7, 53, 0
9, 292680, Note_on_c, 7, 58, 90
9, 292799, Note_on_c, 7, 58, 0
9, 292800, Note_on_c, 7, 57, 90
9, 292919, Note_on_c, 7, 57, 0
9, 292920, Note_on_c, 7, 55, 90
9, 293039, Note_on_c, 7, 55, 0
9, 293040, Note_on_c, 7, 53, 90
9, 293159, Note_on_c, 7, 53, 0
9, 293160, Note_on_c, 7, 52, 90
9, 293279, Note_on_c, 7, 52, 0
9, 293280, Note_on_c, 7, 55, 90
9, 293399, Note_on_c, 7, 55, 0
9, 293400, Note_on_c, 7, 52, 90
9, 293519, Note_on_c, 7, 52, 0
9, 293520, Note_on_c, 7, 48, 90
9, 293639, Note_on_c, 7, 48, 0
9, 293640, Note_on_c, 7, 53, 90
9, 293759, Note_on_c, 7, 53, 0
9, 293760, Note_on_c, 7, 45, 90
9, 293819, Note_on_c, 7, 45, 0
9, 293820, Note_on_c, 7, 46, 90
9, 293879, Note_on_c, 7, 46, 0
9, 293880, Note_on_c, 7, 48, 90
9, 293999, Note_on_c, 7, 48, 0
9, 294000, Note_on_c, 7, 36, 90
9, 294119, Note_on_c, 7, 36, 0
9, 294120, Note_on_c, 7, 41, 90
9, 294479, Note_on_c, 7, 41, 0
9, 294480, Note_on_c, 7, 53, 90
9, 294539, Note_on_c, 7, 53, 0
9, 294540, Note_on_c, 7, 52, 90
9, 294599, Note_on_c, 7, 52, 0
9, 294600, Note_on_c, 7, 53, 90
9, 294719, Note_on_c, 7, 53, 0
9, 294720, Note_on_c, 7, 55, 90
9, 294839, Note_on_c, 7, 55, 0
9, 294840, Note_on_c, 7, 57, 90
9, 294959, Note_on_c, 7, 57, 0
9, 294960, Note_on_c, 7, 58, 90
9, 295079, Note_on_c, 7, 58, 0
9, 295080, Note_on_c, 7, 57, 90
9, 295199, Note_on_c, 7, 57, 0
9, 295200, Note_on_c, 7, 55, 90
9, 295319, Note_on_c, 7, 55, 0
9, 295320, Note_on_c, 7, 57, 90
9, 295439, Note_on_c, 7, 57, 0
9, 295440, Note_on_c, 7, 53, 90
9, 295559, Note_on_c, 7, 53, 0
9, 295560, Note_on_c, 7, 58, 90
9, 295679, Note_on_c, 7, 58, 0
9, 295680, Note_on_c, 7, 57, 90
9, 295799, Note_on_c, 7, 57, 0
9, 295800, Note_on_c, 7, 55, 90
9, 295919, Note_on_c, 7, 55, 0
9, 295920, Note_on_c, 7, 53, 90
9, 296039, Note_on_c, 7, 53, 0
9, 296040, Note_on_c, 7, 52, 90
9, 296159, Note_on_c, 7, 52, 0
9, 296160, Note_on_c, 7, 55, 90
9, 296279, Note_on_c, 7, 55, 0
9, 296280, Note_on_c, 7, 52, 90
9, 296399, Note_on_c, 7, 52, 0
9, 296400, Note_on_c, 7, 48, 90
9, 296519, Note_on_c, 7, 48, 0
9, 296520, Note_on_c, 7, 53, 90
9, 296639, Note_on_c, 7, 53, 0
9, 296640, Note_on_c, 7, 45, 90
9, 296699, Note_on_c, 7, 45, 0
9, 296700, Note_on_c, 7, 46, 90
9, 296759, Note_on_c, 7, 46, 0
9, 296760, Note_on_c, 7, 48, 90
9, 296879, Note_on_c, 7, 48, 0
9, 296880, Note_on_c, 7, 36, 90
9, 296999, Note_on_c, 7, 36, 0
9, 297000, Note_on_c, 7, 41, 90
9, 297359, Note_on_c, 7, 41, 0
9, 297360, Note_on_c, 7, 53, 90
9, 297419, Note_on_c, 7, 53, 0
9, 297420, Note_on_c, 7, 55, 90
9, 297479, Note_on_c, 7, 55, 0
9, 297480, Note_on_c, 7, 57, 90
9, 297599, Note_on_c, 7, 57, 0
9, 297600, Note_on_c, 7, 55, 90
9, 297719, Note_on_c, 7, 55, 0
9, 297720, Note_on_c, 7, 57, 90
9, 297839, Note_on_c, 7, 57, 0
9, 297840, Note_on_c, 7, 53, 90
9, 297959, Note_on_c, 7, 53, 0
9, 297960, Note_on_c, 7, 58, 90
9, 298079, Note_on_c, 7, 58, 0
9, 298080, Note_on_c, 7, 53, 90
9, 298199, Note_on_c, 7, 53, 0
9, 298200, Note_on_c, 7, 46, 90
9, 298319, Note_on_c, 7, 46, 0
9, 298320, Note_on_c, 7, 58, 90
9, 298559, Note_on_c, 7, 58, 0
9, 298560, Note_on_c, 7, 57, 90
9, 298679, Note_on_c, 7, 57, 0
9, 298680, Note_on_c, 7, 58, 90
9, 298799, Note_on_c, 7, 58, 0
9, 298800, Note_on_c, 7, 55, 90
9, 298919, Note_on_c, 7, 55, 0
9, 298920, Note_on_c, 7, 60, 90
9, 299039, Note_on_c, 7, 60, 0
9, 299040, Note_on_c, 7, 55, 90
9, 299159, Note_on_c, 7, 55, 0
9, 299160, Note_on_c, 7, 48, 90
9, 299279, Note_on_c, 7, 48, 0
9, 299280, Note_on_c, 7, 57, 90
9, 299399, Note_on_c, 7, 57, 0
9, 299400, Note_on_c, 7, 58, 90
9, 299519, Note_on_c, 7, 58, 0
9, 299520, Note_on_c, 7, 57, 90
9, 299579, Note_on_c, 7, 57, 0
9, 299580, Note_on_c, 7, 55, 90
9, 299639, Note_on_c, 7, 55, 0
9, 299640, Note_on_c, 7, 57, 90
9, 299759, Note_on_c, 7, 57, 0
9, 299760, Note_on_c, 7, 53, 90
9, 299879, Note_on_c, 7, 53, 0
9, 299880, Note_on_c, 7, 58, 90
9, 299999, Note_on_c, 7, 58, 0
9, 300000, Note_on_c, 7, 57, 90
9, 300059, Note_on_c, 7, 57, 0
9, 300060, Note_on_c, 7, 55, 90
9, 300119, Note_on_c, 7, 55, 0
9, 300120, Note_on_c, 7, 57, 90
9, 300239, Note_on_c, 7, 57, 0
9, 300240, Note_on_c, 7, 53, 90
9, 300359, Note_on_c, 7, 53, 0
9, 300360, Note_on_c, 7, 46, 90
9, 300479, Note_on_c, 7, 46, 0
9, 300480, Note_on_c, 7, 48, 90
9, 300599, Note_on_c, 7, 48, 0
9, 300600, Note_on_c, 7, 50, 90
9, 300719, Note_on_c, 7, 50, 0
9, 300720, Note_on_c, 7, 46, 90
9, 300839, Note_on_c, 7, 46, 0
9, 300840, Note_on_c, 7, 48, 90
9, 300959, Note_on_c, 7, 48, 0
9, 300960, Note_on_c, 7, 55, 90
9, 301079, Note_on_c, 7, 55, 0
9, 301080, Note_on_c, 7, 60, 90
9, 301139, Note_on_c, 7, 60, 0
9, 301140, Note_on_c, 7, 58, 90
9, 301199, Note_on_c, 7, 58, 0
9, 301200, Note_on_c, 7, 57, 90
9, 301259, Note_on_c, 7, 57, 0
9, 301260, Note_on_c, 7, 55, 90
9, 301319, Note_on_c, 7, 55, 0
9, 301320, Note_on_c, 7, 53, 90
9, 301439, Note_on_c, 7, 53, 0
9, 301440, Note_on_c, 7, 55, 90
9, 301559, Note_on_c, 7, 55, 0
9, 301560, Note_on_c, 7, 57, 90
9, 301679, Note_on_c, 7, 57, 0
9, 301680, Note_on_c, 7, 58, 90
9, 301799, Note_on_c, 7, 58, 0
9, 301800, Note_on_c, 7, 57, 90
9, 301919, Note_on_c, 7, 57, 0
9, 301920, Note_on_c, 7, 55, 90
9, 302039, Note_on_c, 7, 55, 0
9, 302040, Note_on_c, 7, 57, 90
9, 302159, Note_on_c, 7, 57, 0
9, 302160, Note_on_c, 7, 53, 90
9, 302279, Note_on_c, 7, 53, 0
9, 302280, Note_on_c, 7, 58, 90
9, 302399, Note_on_c, 7, 58, 0
9, 302400, Note_on_c, 7, 57, 90
9, 302519, Note_on_c, 7, 57, 0
9, 302520, Note_on_c, 7, 55, 90
9, 302639, Note_on_c, 7, 55, 0
9, 302640, Note_on_c, 7, 53, 90
9, 302759, Note_on_c, 7, 53, 0
9, 302760, Note_on_c, 7, 52, 90
9, 302879, Note_on_c, 7, 52, 0
9, 302880, Note_on_c, 7, 55, 90
9, 302999, Note_on_c, 7, 55, 0
9, 303000, Note_on_c, 7, 52, 90
9, 303119, Note_on_c, 7, 52, 0
9, 303120, Note_on_c, 7, 48, 90
9, 303239, Note_on_c, 7, 48, 0
9, 303240, Note_on_c, 7, 53, 90
9, 303359, Note_on_c, 7, 53, 0
9, 303360, Note_on_c, 7, 45, 90
9, 303419, Note_on_c, 7, 45, 0
9, 303420, Note_on_c, 7, 46, 90
9, 303479, Note_on_c, 7, 46, 0
9, 303480, Note_on_c, 7, 48, 90
9, 303599, Note_on_c, 7, 48, 0
9, 303600, Note_on_c, 7, 36, 90
9, 303719, Note_on_c, 7, 36, 0
9, 303720, Note_on_c, 7, 41, 90
9, 304079, Note_on_c, 7, 41, 0
9, 304079, End_track
10, 0, Start_track
10, 0, MIDI_port, 0
10, 0, Title_t, "clave h"
10, 0, Program_c, 8, 6
10, 360, Note_on_c, 8, 61, 90
10, 480, Note_on_c, 8, 61, 0
10, 480, Note_on_c, 8, 61, 90
10, 600, Note_on_c, 8, 61, 0
10, 600, Note_on_c, 8, 62, 90
10, 720, Note_on_c, 8, 62, 0
10, 720, Note_on_c, 8, 61, 90
10, 840, Note_on_c, 8, 61, 0
10, 840, Note_on_c, 8, 61, 90
10, 960, Note_on_c, 8, 61, 0
10, 960, Note_on_c, 8, 59, 90
10, 1080, Note_on_c, 8, 59, 0
10, 1080, Note_on_c, 8, 61, 90
10, 1140, Note_on_c, 8, 61, 0
10, 1140, Note_on_c, 8, 62, 90
10, 1200, Note_on_c, 8, 62, 0
10, 1200, Note_on_c, 8, 61, 90
10, 1260, Note_on_c, 8, 61, 0
10, 1260, Note_on_c, 8, 59, 90
10, 1320, Note_on_c, 8, 59, 0
10, 1320, Note_on_c, 8, 61, 90
10, 1380, Note_on_c, 8, 61, 0
10, 1380, Note_on_c, 8, 62, 90
10, 1440, Note_on_c, 8, 62, 0
10, 1440, Note_on_c, 8, 64, 90
10, 1620, Note_on_c, 8, 64, 0
10, 1620, Note_on_c, 8, 62, 90
10, 1680, Note_on_c, 8, 62, 0
10, 1680, Note_on_c, 8, 61, 90
10, 1740, Note_on_c, 8, 61, 0
10, 1740, Note_on_c, 8, 59, 90
10, 1800, Note_on_c, 8, 59, 0
10, 1800, Note_on_c, 8, 61, 90
10, 1920, Note_on_c, 8, 61, 0
10, 1920, Note_on_c, 8, 61, 90
10, 2040, Note_on_c, 8, 61, 0
10, 2040, Note_on_c, 8, 62, 90
10, 2160, Note_on_c, 8, 62, 0
10, 2160, Note_on_c, 8, 61, 90
10, 2280, Note_on_c, 8, 61, 0
10, 2280, Note_on_c, 8, 61, 90
10, 2400, Note_on_c, 8, 61, 0
10, 2400, Note_on_c, 8, 59, 90
10, 2520, Note_on_c, 8, 59, 0
10, 2520, Note_on_c, 8, 61, 90
10, 2580, Note_on_c, 8, 61, 0
10, 2580, Note_on_c, 8, 62, 90
10, 2640, Note_on_c, 8, 62, 0
10, 2640, Note_on_c, 8, 61, 90
10, 2700, Note_on_c, 8, 61, 0
10, 2700, Note_on_c, 8, 59, 90
10, 2760, Note_on_c, 8, 59, 0
10, 2760, Note_on_c, 8, 61, 90
10, 2820, Note_on_c, 8, 61, 0
10, 2820, Note_on_c, 8, 62, 90
10, 2880, Note_on_c, 8, 62, 0
10, 2880, Note_on_c, 8, 61, 90
10, 2880, Note_on_c, 8, 64, 90
10, 2940, Note_on_c, 8, 64, 0
10, 2940, Note_on_c, 8, 61, 0
10, 2940, Note_on_c, 8, 61, 90
10, 2970, Note_on_c, 8, 61, 0
10, 2970, Note_on_c, 8, 62, 90
10, 3000, Note_on_c, 8, 62, 0
10, 3000, Note_on_c, 8, 64, 90
10, 3060, Note_on_c, 8, 64, 0
10, 3060, Note_on_c, 8, 69, 90
10, 3120, Note_on_c, 8, 69, 0
10, 3120, Note_on_c, 8, 64, 90
10, 3120, Note_on_c, 8, 73, 90
10, 3180, Note_on_c, 8, 73, 0
10, 3180, Note_on_c, 8, 64, 0
10, 3180, Note_on_c, 8, 62, 90
10, 3180, Note_on_c, 8, 71, 90
10, 3240, Note_on_c, 8, 71, 0
10, 3240, Note_on_c, 8, 62, 0
10, 3240, Note_on_c, 8, 61, 90
10, 3240, Note_on_c, 8, 69, 90
10, 3360, Note_on_c, 8, 69, 0
10, 3360, Note_on_c, 8, 61, 0
10, 3360, Note_on_c, 8, 73, 90
10, 3360, Note_on_c, 8, 64, 90
10, 3480, Note_on_c, 8, 64, 0
10, 3480, Note_on_c, 8, 73, 0
10, 3480, Note_on_c, 8, 71, 90
10, 3480, Note_on_c, 8, 62, 90
10, 3600, Note_on_c, 8, 62, 0
10, 3600, Note_on_c, 8, 71, 0
10, 3600, Note_on_c, 8, 64, 90
10, 3600, Note_on_c, 8, 71, 90
10, 3720, Note_on_c, 8, 71, 0
10, 3720, Note_on_c, 8, 64, 0
10, 3720, Note_on_c, 8, 64, 90
10, 3720, Note_on_c, 8, 69, 90
10, 3840, Note_on_c, 8, 69, 0
10, 3840, Note_on_c, 8, 64, 0
10, 3840, Note_on_c, 8, 61, 90
10, 3840, Note_on_c, 8, 64, 90
10, 3899, Note_on_c, 8, 61, 0
10, 3900, Note_on_c, 8, 61, 90
10, 3929, Note_on_c, 8, 61, 0
10, 3930, Note_on_c, 8, 62, 90
10, 3959, Note_on_c, 8, 62, 0
10, 3960, Note_on_c, 8, 64, 0
10, 3960, Note_on_c, 8, 61, 90
10, 3960, Note_on_c, 8, 64, 90
10, 4080, Note_on_c, 8, 64, 0
10, 4080, Note_on_c, 8, 61, 0
10, 4080, Note_on_c, 8, 61, 90
10, 4080, Note_on_c, 8, 64, 90
10, 4200, Note_on_c, 8, 64, 0
10, 4200, Note_on_c, 8, 61, 0
10, 4200, Note_on_c, 8, 61, 90
10, 4200, Note_on_c, 8, 64, 90
10, 4320, Note_on_c, 8, 64, 0
10, 4320, Note_on_c, 8, 61, 0
10, 4320, Note_on_c, 8, 61, 90
10, 4320, Note_on_c, 8, 64, 90
10, 4440, Note_on_c, 8, 64, 0
10, 4440, Note_on_c, 8, 61, 0
10, 4440, Note_on_c, 8, 62, 90
10, 4440, Note_on_c, 8, 66, 90
10, 4560, Note_on_c, 8, 66, 0
10, 4560, Note_on_c, 8, 62, 0
10, 4560, Note_on_c, 8, 68, 90
10, 4560, Note_on_c, 8, 62, 90
10, 4679, Note_on_c, 8, 62, 0
10, 4679, Note_on_c, 8, 68, 0
10, 4680, Note_on_c, 8, 69, 90
10, 4680, Note_on_c, 8, 61, 90
10, 4799, Note_on_c, 8, 61, 0
10, 4799, Note_on_c, 8, 69, 0
10, 4800, Note_on_c, 8, 69, 90
10, 4800, Note_on_c, 8, 73, 90
10, 4919, Note_on_c, 8, 73, 0
10, 4919, Note_on_c, 8, 69, 0
10, 4920, Note_on_c, 8, 71, 90
10, 4920, Note_on_c, 8, 74, 90
10, 4979, Note_on_c, 8, 74, 0
10, 4979, Note_on_c, 8, 71, 0
10, 4980, Note_on_c, 8, 73, 90
10, 4980, Note_on_c, 8, 76, 90
10, 5099, Note_on_c, 8, 76, 0
10, 5099, Note_on_c, 8, 73, 0
10, 5100, Note_on_c, 8, 71, 90
10, 5100, Note_on_c, 8, 74, 90
10, 5159, Note_on_c, 8, 74, 0
10, 5159, Note_on_c, 8, 71, 0
10, 5160, Note_on_c, 8, 73, 90
10, 5160, Note_on_c, 8, 76, 90
10, 5279, Note_on_c, 8, 76, 0
10, 5279, Note_on_c, 8, 73, 0
10, 5280, Note_on_c, 8, 74, 90
10, 5280, Note_on_c, 8, 78, 90
10, 5339, Note_on_c, 8, 78, 0
10, 5339, Note_on_c, 8, 74, 0
10, 5340, Note_on_c, 8, 73, 90
10, 5340, Note_on_c, 8, 76, 90
10, 5399, Note_on_c, 8, 76, 0
10, 5399, Note_on_c, 8, 73, 0
10, 5400, Note_on_c, 8, 76, 90
10, 5429, Note_on_c, 8, 76, 0
10, 5430, Note_on_c, 8, 74, 90
10, 5459, Note_on_c, 8, 74, 0
10, 5460, Note_on_c, 8, 73, 90
10, 5489, Note_on_c, 8, 73, 0
10, 5490, Note_on_c, 8, 71, 90
10, 5519, Note_on_c, 8, 71, 0
10, 5520, Note_on_c, 8, 61, 90
10, 5520, Note_on_c, 8, 69, 90
10, 5639, Note_on_c, 8, 69, 0
10, 5639, Note_on_c, 8, 61, 0
10, 5640, Note_on_c, 8, 62, 90
10, 5640, Note_on_c, 8, 71, 90
10, 5699, Note_on_c, 8, 71, 0
10, 5699, Note_on_c, 8, 62, 0
10, 5700, Note_on_c, 8, 64, 90
10, 5700, Note_on_c, 8, 73, 90
10, 5819, Note_on_c, 8, 73, 0
10, 5819, Note_on_c, 8, 64, 0
10, 5820, Note_on_c, 8, 62, 90
10, 5820, Note_on_c, 8, 71, 90
10, 5879, Note_on_c, 8, 71, 0
10, 5879, Note_on_c, 8, 62, 0
10, 5880, Note_on_c, 8, 64, 90
10, 5880, Note_on_c, 8, 73, 90
10, 5999, Note_on_c, 8, 73, 0
10, 5999, Note_on_c, 8, 64, 0
10, 6000, Note_on_c, 8, 74, 90
10, 6000, Note_on_c, 8, 66, 90
10, 6059, Note_on_c, 8, 66, 0
10, 6059, Note_on_c, 8, 74, 0
10, 6060, Note_on_c, 8, 73, 90
10, 6060, Note_on_c, 8, 64, 90
10, 6180, Note_on_c, 8, 64, 0
10, 6180, Note_on_c, 8, 73, 0
10, 6180, Note_on_c, 8, 69, 90
10, 6180, Note_on_c, 8, 64, 90
10, 6239, Note_on_c, 8, 64, 0
10, 6239, Note_on_c, 8, 69, 0
10, 6240, Note_on_c, 8, 64, 90
10, 6240, Note_on_c, 8, 68, 90
10, 6240, Note_on_c, 8, 71, 90
10, 6420, Note_on_c, 8, 71, 0
10, 6420, Note_on_c, 8, 68, 0
10, 6420, Note_on_c, 8, 64, 0
10, 6420, Note_on_c, 8, 61, 90
10, 6420, Note_on_c, 8, 64, 90
10, 6420, Note_on_c, 8, 69, 90
10, 6600, Note_on_c, 8, 69, 0
10, 6600, Note_on_c, 8, 64, 0
10, 6600, Note_on_c, 8, 61, 0
10, 6600, Note_on_c, 8, 66, 90
10, 6600, Note_on_c, 8, 71, 90
10, 6659, Note_on_c, 8, 71, 0
10, 6659, Note_on_c, 8, 66, 0
10, 6660, Note_on_c, 8, 69, 90
10, 6660, Note_on_c, 8, 64, 90
10, 6689, Note_on_c, 8, 69, 0
10, 6690, Note_on_c, 8, 71, 90
10, 6719, Note_on_c, 8, 71, 0
10, 6719, Note_on_c, 8, 64, 0
10, 6720, Note_on_c, 8, 64, 90
10, 6720, Note_on_c, 8, 68, 90
10, 6779, Note_on_c, 8, 68, 0
10, 6779, Note_on_c, 8, 64, 0
10, 6780, Note_on_c, 8, 61, 90
10, 6780, Note_on_c, 8, 64, 90
10, 6780, Note_on_c, 8, 69, 90
10, 6899, Note_on_c, 8, 69, 0
10, 6899, Note_on_c, 8, 64, 0
10, 6899, Note_on_c, 8, 61, 0
10, 6960, Note_on_c, 8, 64, 90
10, 6960, Note_on_c, 8, 68, 90
10, 6960, Note_on_c, 8, 71, 90
10, 7140, Note_on_c, 8, 71, 0
10, 7140, Note_on_c, 8, 68, 0
10, 7140, Note_on_c, 8, 64, 0
10, 7140, Note_on_c, 8, 61, 90
10, 7140, Note_on_c, 8, 64, 90
10, 7140, Note_on_c, 8, 69, 90
10, 7320, Note_on_c, 8, 69, 0
10, 7320, Note_on_c, 8, 64, 0
10, 7320, Note_on_c, 8, 61, 0
10, 7320, Note_on_c, 8, 59, 90
10, 7320, Note_on_c, 8, 62, 90
10, 7320, Note_on_c, 8, 66, 90
10, 7379, Note_on_c, 8, 66, 0
10, 7379, Note_on_c, 8, 62, 0
10, 7379, Note_on_c, 8, 59, 0
10, 7380, Note_on_c, 8, 69, 90
10, 7409, Note_on_c, 8, 69, 0
10, 7410, Note_on_c, 8, 71, 90
10, 7439, Note_on_c, 8, 71, 0
10, 7440, Note_on_c, 8, 62, 90
10, 7440, Note_on_c, 8, 64, 90
10, 7440, Note_on_c, 8, 68, 90
10, 7499, Note_on_c, 8, 68, 0
10, 7499, Note_on_c, 8, 64, 0
10, 7499, Note_on_c, 8, 62, 0
10, 7500, Note_on_c, 8, 61, 90
10, 7500, Note_on_c, 8, 64, 90
10, 7500, Note_on_c, 8, 69, 90
10, 7619, Note_on_c, 8, 69, 0
10, 7619, Note_on_c, 8, 64, 0
10, 7619, Note_on_c, 8, 61, 0
10, 7620, Note_on_c, 8, 64, 90
10, 7679, Note_on_c, 8, 64, 0
10, 7680, Note_on_c, 8, 64, 90
10, 7739, Note_on_c, 8, 64, 0
10, 7740, Note_on_c, 8, 64, 90
10, 7799, Note_on_c, 8, 64, 0
10, 7800, Note_on_c, 8, 68, 90
10, 7859, Note_on_c, 8, 68, 0
10, 7860, Note_on_c, 8, 66, 90
10, 7919, Note_on_c, 8, 66, 0
10, 7920, Note_on_c, 8, 64, 90
10, 8039, Note_on_c, 8, 64, 0
10, 8100, Note_on_c, 8, 64, 90
10, 8159, Note_on_c, 8, 64, 0
10, 8160, Note_on_c, 8, 64, 90
10, 8219, Note_on_c, 8, 64, 0
10, 8220, Note_on_c, 8, 64, 90
10, 8279, Note_on_c, 8, 64, 0
10, 8280, Note_on_c, 8, 68, 90
10, 8339, Note_on_c, 8, 68, 0
10, 8340, Note_on_c, 8, 66, 90
10, 8399, Note_on_c, 8, 66, 0
10, 8400, Note_on_c, 8, 64, 90
10, 8400, Note_on_c, 8, 68, 90
10, 8519, Note_on_c, 8, 68, 0
10, 8519, Note_on_c, 8, 64, 0
10, 8520, Note_on_c, 8, 64, 90
10, 8579, Note_on_c, 8, 64, 0
10, 8580, Note_on_c, 8, 64, 90
10, 8639, Note_on_c, 8, 64, 0
10, 8640, Note_on_c, 8, 64, 90
10, 8699, Note_on_c, 8, 64, 0
10, 8700, Note_on_c, 8, 64, 90
10, 8759, Note_on_c, 8, 64, 0
10, 8760, Note_on_c, 8, 68, 90
10, 8819, Note_on_c, 8, 68, 0
10, 8820, Note_on_c, 8, 66, 90
10, 8879, Note_on_c, 8, 66, 0
10, 8880, Note_on_c, 8, 64, 90
10, 8999, Note_on_c, 8, 64, 0
10, 9060, Note_on_c, 8, 64, 90
10, 9119, Note_on_c, 8, 64, 0
10, 9120, Note_on_c, 8, 64, 90
10, 9179, Note_on_c, 8, 64, 0
10, 9180, Note_on_c, 8, 64, 90
10, 9239, Note_on_c, 8, 64, 0
10, 9240, Note_on_c, 8, 68, 90
10, 9299, Note_on_c, 8, 68, 0
10, 9300, Note_on_c, 8, 66, 90
10, 9359, Note_on_c, 8, 66, 0
10, 9360, Note_on_c, 8, 64, 90
10, 9539, Note_on_c, 8, 64, 0
10, 9600, Note_on_c, 8, 64, 90
10, 9600, Note_on_c, 8, 68, 90
10, 9659, Note_on_c, 8, 68, 0
10, 9659, Note_on_c, 8, 64, 0
10, 9660, Note_on_c, 8, 64, 90
10, 9660, Note_on_c, 8, 68, 90
10, 9719, Note_on_c, 8, 68, 0
10, 9719, Note_on_c, 8, 64, 0
10, 9720, Note_on_c, 8, 64, 90
10, 9720, Note_on_c, 8, 68, 90
10, 9779, Note_on_c, 8, 68, 0
10, 9779, Note_on_c, 8, 64, 0
10, 9840, Note_on_c, 8, 59, 90
10, 9840, Note_on_c, 8, 64, 90
10, 9899, Note_on_c, 8, 64, 0
10, 9899, Note_on_c, 8, 59, 0
10, 9900, Note_on_c, 8, 59, 90
10, 9900, Note_on_c, 8, 64, 90
10, 9959, Note_on_c, 8, 64, 0
10, 9959, Note_on_c, 8, 59, 0
10, 9960, Note_on_c, 8, 59, 90
10, 9960, Note_on_c, 8, 64, 90
10, 10019, Note_on_c, 8, 64, 0
10, 10019, Note_on_c, 8, 59, 0
10, 10080, Note_on_c, 8, 64, 90
10, 10080, Note_on_c, 8, 69, 90
10, 10080, Note_on_c, 8, 73, 90
10, 10139, Note_on_c, 8, 73, 0
10, 10139, Note_on_c, 8, 69, 0
10, 10139, Note_on_c, 8, 64, 0
10, 10200, Note_on_c, 8, 64, 90
10, 10200, Note_on_c, 8, 68, 90
10, 10200, Note_on_c, 8, 71, 90
10, 10259, Note_on_c, 8, 71, 0
10, 10259, Note_on_c, 8, 68, 0
10, 10259, Note_on_c, 8, 64, 0
10, 10320, Note_on_c, 8, 61, 90
10, 10320, Note_on_c, 8, 64, 90
10, 10379, Note_on_c, 8, 64, 0
10, 10379, Note_on_c, 8, 61, 0
10, 10380, Note_on_c, 8, 61, 90
10, 10380, Note_on_c, 8, 64, 90
10, 10439, Note_on_c, 8, 64, 0
10, 10439, Note_on_c, 8, 61, 0
10, 10440, Note_on_c, 8, 61, 90
10, 10440, Note_on_c, 8, 64, 90
10, 10499, Note_on_c, 8, 64, 0
10, 10499, Note_on_c, 8, 61, 0
10, 10560, Note_on_c, 8, 64, 90
10, 10560, Note_on_c, 8, 68, 90
10, 10619, Note_on_c, 8, 68, 0
10, 10619, Note_on_c, 8, 64, 0
10, 10620, Note_on_c, 8, 64, 90
10, 10620, Note_on_c, 8, 68, 90
10, 10679, Note_on_c, 8, 68, 0
10, 10679, Note_on_c, 8, 64, 0
10, 10680, Note_on_c, 8, 64, 90
10, 10680, Note_on_c, 8, 68, 90
10, 10739, Note_on_c, 8, 68, 0
10, 10739, Note_on_c, 8, 64, 0
10, 10800, Note_on_c, 8, 68, 90
10, 10800, Note_on_c, 8, 71, 90
10, 10859, Note_on_c, 8, 71, 0
10, 10859, Note_on_c, 8, 68, 0
10, 10860, Note_on_c, 8, 68, 90
10, 10860, Note_on_c, 8, 71, 90
10, 10919, Note_on_c, 8, 71, 0
10, 10919, Note_on_c, 8, 68, 0
10, 10920, Note_on_c, 8, 68, 90
10, 10920, Note_on_c, 8, 71, 90
10, 10979, Note_on_c, 8, 71, 0
10, 10979, Note_on_c, 8, 68, 0
10, 11040, Note_on_c, 8, 64, 90
10, 11040, Note_on_c, 8, 69, 90
10, 11040, Note_on_c, 8, 73, 90
10, 11099, Note_on_c, 8, 73, 0
10, 11099, Note_on_c, 8, 69, 0
10, 11099, Note_on_c, 8, 64, 0
10, 11160, Note_on_c, 8, 64, 90
10, 11160, Note_on_c, 8, 68, 90
10, 11160, Note_on_c, 8, 71, 90
10, 11219, Note_on_c, 8, 71, 0
10, 11219, Note_on_c, 8, 68, 0
10, 11219, Note_on_c, 8, 64, 0
10, 11280, Note_on_c, 8, 69, 90
10, 11280, Note_on_c, 8, 64, 90
10, 11280, Note_on_c, 8, 60, 90
10, 11339, Note_on_c, 8, 60, 0
10, 11339, Note_on_c, 8, 64, 0
10, 11339, Note_on_c, 8, 69, 0
10, 11340, Note_on_c, 8, 69, 90
10, 11369, Note_on_c, 8, 69, 0
10, 11370, Note_on_c, 8, 71, 90
10, 11399, Note_on_c, 8, 71, 0
10, 11400, Note_on_c, 8, 72, 90
10, 11459, Note_on_c, 8, 72, 0
10, 11460, Note_on_c, 8, 71, 90
10, 11519, Note_on_c, 8, 71, 0
10, 11520, Note_on_c, 8, 69, 90
10, 11579, Note_on_c, 8, 69, 0
10, 11580, Note_on_c, 8, 67, 90
10, 11639, Note_on_c, 8, 67, 0
10, 11640, Note_on_c, 8, 65, 90
10, 11699, Note_on_c, 8, 65, 0
10, 11700, Note_on_c, 8, 64, 90
10, 11759, Note_on_c, 8, 64, 0
10, 11760, Note_on_c, 8, 64, 90
10, 11999, Note_on_c, 8, 64, 0
10, 12000, Note_on_c, 8, 62, 90
10, 12059, Note_on_c, 8, 62, 0
10, 12060, Note_on_c, 8, 64, 90
10, 12119, Note_on_c, 8, 64, 0
10, 12120, Note_on_c, 8, 65, 90
10, 12179, Note_on_c, 8, 65, 0
10, 12180, Note_on_c, 8, 64, 90
10, 12239, Note_on_c, 8, 64, 0
10, 12240, Note_on_c, 8, 62, 90
10, 12299, Note_on_c, 8, 62, 0
10, 12300, Note_on_c, 8, 60, 90
10, 12359, Note_on_c, 8, 60, 0
10, 12360, Note_on_c, 8, 59, 90
10, 12419, Note_on_c, 8, 59, 0
10, 12420, Note_on_c, 8, 57, 90
10, 12479, Note_on_c, 8, 57, 0
10, 12480, Note_on_c, 8, 57, 90
10, 12719, Note_on_c, 8, 57, 0
10, 12720, Note_on_c, 8, 64, 90
10, 12779, Note_on_c, 8, 64, 0
10, 12780, Note_on_c, 8, 69, 90
10, 12809, Note_on_c, 8, 69, 0
10, 12810, Note_on_c, 8, 71, 90
10, 12839, Note_on_c, 8, 71, 0
10, 12840, Note_on_c, 8, 72, 90
10, 12899, Note_on_c, 8, 72, 0
10, 12900, Note_on_c, 8, 71, 90
10, 12959, Note_on_c, 8, 71, 0
10, 12960, Note_on_c, 8, 69, 90
10, 13019, Note_on_c, 8, 69, 0
10, 13020, Note_on_c, 8, 67, 90
10, 13079, Note_on_c, 8, 67, 0
10, 13080, Note_on_c, 8, 65, 90
10, 13139, Note_on_c, 8, 65, 0
10, 13140, Note_on_c, 8, 64, 90
10, 13199, Note_on_c, 8, 64, 0
10, 13200, Note_on_c, 8, 64, 90
10, 13439, Note_on_c, 8, 64, 0
10, 13440, Note_on_c, 8, 62, 90
10, 13499, Note_on_c, 8, 62, 0
10, 13500, Note_on_c, 8, 64, 90
10, 13559, Note_on_c, 8, 64, 0
10, 13560, Note_on_c, 8, 65, 90
10, 13619, Note_on_c, 8, 65, 0
10, 13620, Note_on_c, 8, 64, 90
10, 13679, Note_on_c, 8, 64, 0
10, 13680, Note_on_c, 8, 62, 90
10, 13739, Note_on_c, 8, 62, 0
10, 13740, Note_on_c, 8, 60, 90
10, 13799, Note_on_c, 8, 60, 0
10, 13800, Note_on_c, 8, 59, 90
10, 13859, Note_on_c, 8, 59, 0
10, 13860, Note_on_c, 8, 57, 90
10, 13919, Note_on_c, 8, 57, 0
10, 13920, Note_on_c, 8, 57, 90
10, 14159, Note_on_c, 8, 57, 0
10, 14160, Note_on_c, 8, 65, 90
10, 14219, Note_on_c, 8, 65, 0
10, 14220, Note_on_c, 8, 64, 90
10, 14279, Note_on_c, 8, 64, 0
10, 14280, Note_on_c, 8, 64, 90
10, 14519, Note_on_c, 8, 64, 0
10, 14520, Note_on_c, 8, 58, 90
10, 14579, Note_on_c, 8, 58, 0
10, 14580, Note_on_c, 8, 57, 90
10, 14639, Note_on_c, 8, 57, 0
10, 14640, Note_on_c, 8, 57, 90
10, 14879, Note_on_c, 8, 57, 0
10, 14880, Note_on_c, 8, 62, 90
10, 14939, Note_on_c, 8, 62, 0
10, 14940, Note_on_c, 8, 64, 90
10, 14999, Note_on_c, 8, 64, 0
10, 15000, Note_on_c, 8, 65, 90
10, 15059, Note_on_c, 8, 65, 0
10, 15060, Note_on_c, 8, 64, 90
10, 15119, Note_on_c, 8, 64, 0
10, 15120, Note_on_c, 8, 62, 90
10, 15179, Note_on_c, 8, 62, 0
10, 15180, Note_on_c, 8, 60, 90
10, 15239, Note_on_c, 8, 60, 0
10, 15240, Note_on_c, 8, 59, 90
10, 15299, Note_on_c, 8, 59, 0
10, 15300, Note_on_c, 8, 57, 90
10, 15359, Note_on_c, 8, 57, 0
10, 15360, Note_on_c, 8, 57, 90
10, 15599, Note_on_c, 8, 57, 0
10, 15600, Note_on_c, 8, 65, 90
10, 15659, Note_on_c, 8, 65, 0
10, 15660, Note_on_c, 8, 64, 90
10, 15719, Note_on_c, 8, 64, 0
10, 15720, Note_on_c, 8, 64, 90
10, 15959, Note_on_c, 8, 64, 0
10, 15960, Note_on_c, 8, 58, 90
10, 16019, Note_on_c, 8, 58, 0
10, 16020, Note_on_c, 8, 57, 90
10, 16079, Note_on_c, 8, 57, 0
10, 16080, Note_on_c, 8, 57, 90
10, 16319, Note_on_c, 8, 57, 0
10, 16320, Note_on_c, 8, 62, 90
10, 16379, Note_on_c, 8, 62, 0
10, 16380, Note_on_c, 8, 64, 90
10, 16439, Note_on_c, 8, 64, 0
10, 16440, Note_on_c, 8, 65, 90
10, 16499, Note_on_c, 8, 65, 0
10, 16500, Note_on_c, 8, 64, 90
10, 16559, Note_on_c, 8, 64, 0
10, 16560, Note_on_c, 8, 62, 90
10, 16619, Note_on_c, 8, 62, 0
10, 16620, Note_on_c, 8, 60, 90
10, 16679, Note_on_c, 8, 60, 0
10, 16680, Note_on_c, 8, 59, 90
10, 16739, Note_on_c, 8, 59, 0
10, 16740, Note_on_c, 8, 57, 90
10, 16799, Note_on_c, 8, 57, 0
10, 16800, Note_on_c, 8, 57, 90
10, 17039, Note_on_c, 8, 57, 0
10, 17070, Note_on_c, 8, 76, 90
10, 17099, Note_on_c, 8, 76, 0
10, 17100, Note_on_c, 8, 74, 90
10, 17129, Note_on_c, 8, 74, 0
10, 17130, Note_on_c, 8, 76, 90
10, 17159, Note_on_c, 8, 76, 0
10, 17160, Note_on_c, 8, 65, 90
10, 17160, Note_on_c, 8, 74, 90
10, 17219, Note_on_c, 8, 74, 0
10, 17219, Note_on_c, 8, 65, 0
10, 17220, Note_on_c, 8, 64, 90
10, 17220, Note_on_c, 8, 72, 90
10, 17279, Note_on_c, 8, 72, 0
10, 17279, Note_on_c, 8, 64, 0
10, 17280, Note_on_c, 8, 71, 90
10, 17280, Note_on_c, 8, 62, 90
10, 17339, Note_on_c, 8, 62, 0
10, 17339, Note_on_c, 8, 71, 0
10, 17340, Note_on_c, 8, 64, 90
10, 17369, Note_on_c, 8, 64, 0
10, 17370, Note_on_c, 8, 65, 90
10, 17399, Note_on_c, 8, 65, 0
10, 17400, Note_on_c, 8, 64, 90
10, 17459, Note_on_c, 8, 64, 0
10, 17460, Note_on_c, 8, 64, 90
10, 17489, Note_on_c, 8, 64, 0
10, 17490, Note_on_c, 8, 67, 90
10, 17519, Note_on_c, 8, 67, 0
10, 17520, Note_on_c, 8, 65, 90
10, 17579, Note_on_c, 8, 65, 0
10, 17580, Note_on_c, 8, 69, 90
10, 17639, Note_on_c, 8, 69, 0
10, 17640, Note_on_c, 8, 69, 90
10, 17699, Note_on_c, 8, 69, 0
10, 17700, Note_on_c, 8, 68, 90
10, 17759, Note_on_c, 8, 68, 0
10, 17760, Note_on_c, 8, 69, 90
10, 17819, Note_on_c, 8, 69, 0
10, 17940, Note_on_c, 8, 60, 90
10, 17969, Note_on_c, 8, 60, 0
10, 17970, Note_on_c, 8, 62, 90
10, 17999, Note_on_c, 8, 62, 0
10, 18000, Note_on_c, 8, 64, 90
10, 18059, Note_on_c, 8, 64, 0
10, 18060, Note_on_c, 8, 62, 90
10, 18089, Note_on_c, 8, 62, 0
10, 18090, Note_on_c, 8, 64, 90
10, 18119, Note_on_c, 8, 64, 0
10, 18120, Note_on_c, 8, 74, 90
10, 18120, Note_on_c, 8, 65, 90
10, 18179, Note_on_c, 8, 65, 0
10, 18179, Note_on_c, 8, 74, 0
10, 18180, Note_on_c, 8, 72, 90
10, 18180, Note_on_c, 8, 64, 90
10, 18239, Note_on_c, 8, 64, 0
10, 18239, Note_on_c, 8, 72, 0
10, 18240, Note_on_c, 8, 62, 90
10, 18240, Note_on_c, 8, 71, 90
10, 18299, Note_on_c, 8, 71, 0
10, 18299, Note_on_c, 8, 62, 0
10, 18300, Note_on_c, 8, 64, 90
10, 18329, Note_on_c, 8, 64, 0
10, 18330, Note_on_c, 8, 65, 90
10, 18359, Note_on_c, 8, 65, 0
10, 18360, Note_on_c, 8, 64, 90
10, 18419, Note_on_c, 8, 64, 0
10, 18420, Note_on_c, 8, 69, 90
10, 18449, Note_on_c, 8, 69, 0
10, 18450, Note_on_c, 8, 67, 90
10, 18479, Note_on_c, 8, 67, 0
10, 18480, Note_on_c, 8, 65, 90
10, 18539, Note_on_c, 8, 65, 0
10, 18540, Note_on_c, 8, 69, 90
10, 18599, Note_on_c, 8, 69, 0
10, 18600, Note_on_c, 8, 69, 90
10, 18659, Note_on_c, 8, 69, 0
10, 18660, Note_on_c, 8, 68, 90
10, 18719, Note_on_c, 8, 68, 0
10, 18720, Note_on_c, 8, 61, 90
10, 18839, Note_on_c, 8, 61, 0
10, 18840, Note_on_c, 8, 61, 90
10, 18959, Note_on_c, 8, 61, 0
10, 18960, Note_on_c, 8, 62, 90
10, 19079, Note_on_c, 8, 62, 0
10, 19080, Note_on_c, 8, 61, 90
10, 19199, Note_on_c, 8, 61, 0
10, 19200, Note_on_c, 8, 61, 90
10, 19319, Note_on_c, 8, 61, 0
10, 19320, Note_on_c, 8, 59, 90
10, 19439, Note_on_c, 8, 59, 0
10, 19440, Note_on_c, 8, 61, 90
10, 19499, Note_on_c, 8, 61, 0
10, 19500, Note_on_c, 8, 62, 90
10, 19559, Note_on_c, 8, 62, 0
10, 19560, Note_on_c, 8, 61, 90
10, 19619, Note_on_c, 8, 61, 0
10, 19620, Note_on_c, 8, 59, 90
10, 19679, Note_on_c, 8, 59, 0
10, 19680, Note_on_c, 8, 61, 90
10, 19739, Note_on_c, 8, 61, 0
10, 19740, Note_on_c, 8, 62, 90
10, 19799, Note_on_c, 8, 62, 0
10, 19800, Note_on_c, 8, 64, 90
10, 19979, Note_on_c, 8, 64, 0
10, 19980, Note_on_c, 8, 62, 90
10, 20039, Note_on_c, 8, 62, 0
10, 20040, Note_on_c, 8, 61, 90
10, 20099, Note_on_c, 8, 61, 0
10, 20100, Note_on_c, 8, 59, 90
10, 20159, Note_on_c, 8, 59, 0
10, 20160, Note_on_c, 8, 61, 90
10, 20279, Note_on_c, 8, 61, 0
10, 20280, Note_on_c, 8, 61, 90
10, 20399, Note_on_c, 8, 61, 0
10, 20400, Note_on_c, 8, 62, 90
10, 20519, Note_on_c, 8, 62, 0
10, 20520, Note_on_c, 8, 61, 90
10, 20639, Note_on_c, 8, 61, 0
10, 20640, Note_on_c, 8, 61, 90
10, 20759, Note_on_c, 8, 61, 0
10, 20760, Note_on_c, 8, 59, 90
10, 20879, Note_on_c, 8, 59, 0
10, 20880, Note_on_c, 8, 61, 90
10, 20939, Note_on_c, 8, 61, 0
10, 20940, Note_on_c, 8, 62, 90
10, 20999, Note_on_c, 8, 62, 0
10, 21000, Note_on_c, 8, 61, 90
10, 21059, Note_on_c, 8, 61, 0
10, 21060, Note_on_c, 8, 59, 90
10, 21119, Note_on_c, 8, 59, 0
10, 21120, Note_on_c, 8, 61, 90
10, 21179, Note_on_c, 8, 61, 0
10, 21180, Note_on_c, 8, 62, 90
10, 21239, Note_on_c, 8, 62, 0
10, 21240, Note_on_c, 8, 64, 90
10, 21359, Note_on_c, 8, 64, 0
10, 21720, Note_on_c, 8, 62, 90
10, 21779, Note_on_c, 8, 62, 0
10, 21780, Note_on_c, 8, 61, 90
10, 21839, Note_on_c, 8, 61, 0
10, 21840, Note_on_c, 8, 62, 90
10, 21899, Note_on_c, 8, 62, 0
10, 21900, Note_on_c, 8, 61, 90
10, 21959, Note_on_c, 8, 61, 0
10, 21960, Note_on_c, 8, 62, 90
10, 22199, Note_on_c, 8, 62, 0
10, 22440, Note_on_c, 8, 61, 90
10, 22499, Note_on_c, 8, 61, 0
10, 22500, Note_on_c, 8, 59, 90
10, 22559, Note_on_c, 8, 59, 0
10, 22560, Note_on_c, 8, 61, 90
10, 22619, Note_on_c, 8, 61, 0
10, 22620, Note_on_c, 8, 59, 90
10, 22679, Note_on_c, 8, 59, 0
10, 22680, Note_on_c, 8, 61, 90
10, 22919, Note_on_c, 8, 61, 0
10, 23280, Note_on_c, 8, 61, 90
10, 23339, Note_on_c, 8, 61, 0
10, 23340, Note_on_c, 8, 64, 90
10, 23399, Note_on_c, 8, 64, 0
10, 23400, Note_on_c, 8, 62, 90
10, 23519, Note_on_c, 8, 62, 0
10, 23520, Note_on_c, 8, 61, 90
10, 23639, Note_on_c, 8, 61, 0
10, 23640, Note_on_c, 8, 69, 90
10, 23699, Note_on_c, 8, 69, 0
10, 23700, Note_on_c, 8, 68, 90
10, 23759, Note_on_c, 8, 68, 0
10, 23760, Note_on_c, 8, 66, 90
10, 23819, Note_on_c, 8, 66, 0
10, 23820, Note_on_c, 8, 64, 90
10, 23879, Note_on_c, 8, 64, 0
10, 23880, Note_on_c, 8, 62, 90
10, 23939, Note_on_c, 8, 62, 0
10, 23940, Note_on_c, 8, 61, 90
10, 23999, Note_on_c, 8, 61, 0
10, 24000, Note_on_c, 8, 59, 90
10, 24059, Note_on_c, 8, 59, 0
10, 24060, Note_on_c, 8, 64, 90
10, 24119, Note_on_c, 8, 64, 0
10, 24120, Note_on_c, 8, 57, 90
10, 24359, Note_on_c, 8, 57, 0
10, 24600, Note_on_c, 8, 62, 90
10, 24659, Note_on_c, 8, 62, 0
10, 24660, Note_on_c, 8, 61, 90
10, 24719, Note_on_c, 8, 61, 0
10, 24720, Note_on_c, 8, 62, 90
10, 24779, Note_on_c, 8, 62, 0
10, 24780, Note_on_c, 8, 61, 90
10, 24839, Note_on_c, 8, 61, 0
10, 24840, Note_on_c, 8, 62, 90
10, 25079, Note_on_c, 8, 62, 0
10, 25320, Note_on_c, 8, 61, 90
10, 25379, Note_on_c, 8, 61, 0
10, 25380, Note_on_c, 8, 59, 90
10, 25439, Note_on_c, 8, 59, 0
10, 25440, Note_on_c, 8, 61, 90
10, 25499, Note_on_c, 8, 61, 0
10, 25500, Note_on_c, 8, 59, 90
10, 25559, Note_on_c, 8, 59, 0
10, 25560, Note_on_c, 8, 61, 90
10, 25799, Note_on_c, 8, 61, 0
10, 26160, Note_on_c, 8, 61, 90
10, 26219, Note_on_c, 8, 61, 0
10, 26220, Note_on_c, 8, 64, 90
10, 26279, Note_on_c, 8, 64, 0
10, 26280, Note_on_c, 8, 62, 90
10, 26399, Note_on_c, 8, 62, 0
10, 26400, Note_on_c, 8, 61, 90
10, 26519, Note_on_c, 8, 61, 0
10, 27060, Note_on_c, 8, 64, 90
10, 27119, Note_on_c, 8, 64, 0
10, 27120, Note_on_c, 8, 69, 90
10, 27179, Note_on_c, 8, 69, 0
10, 27180, Note_on_c, 8, 68, 90
10, 27239, Note_on_c, 8, 68, 0
10, 27240, Note_on_c, 8, 69, 90
10, 27299, Note_on_c, 8, 69, 0
10, 27300, Note_on_c, 8, 68, 90
10, 27359, Note_on_c, 8, 68, 0
10, 27360, Note_on_c, 8, 66, 90
10, 27419, Note_on_c, 8, 66, 0
10, 27420, Note_on_c, 8, 64, 90
10, 27479, Note_on_c, 8, 64, 0
10, 27480, Note_on_c, 8, 62, 90
10, 27539, Note_on_c, 8, 62, 0
10, 27540, Note_on_c, 8, 61, 90
10, 27599, Note_on_c, 8, 61, 0
10, 27600, Note_on_c, 8, 59, 90
10, 27659, Note_on_c, 8, 59, 0
10, 27660, Note_on_c, 8, 64, 90
10, 27719, Note_on_c, 8, 64, 0
10, 27720, Note_on_c, 8, 57, 90
10, 27959, Note_on_c, 8, 57, 0
10, 28440, Note_on_c, 8, 69, 90
10, 28440, Note_on_c, 8, 73, 90
10, 28499, Note_on_c, 8, 73, 0
10, 28499, Note_on_c, 8, 69, 0
10, 28500, Note_on_c, 8, 71, 90
10, 28500, Note_on_c, 8, 74, 90
10, 28559, Note_on_c, 8, 74, 0
10, 28559, Note_on_c, 8, 71, 0
10, 28560, Note_on_c, 8, 76, 90
10, 28560, Note_on_c, 8, 73, 90
10, 28679, Note_on_c, 8, 73, 0
10, 28679, Note_on_c, 8, 76, 0
10, 28920, Note_on_c, 8, 71, 90
10, 28920, Note_on_c, 8, 74, 90
10, 28979, Note_on_c, 8, 74, 0
10, 28979, Note_on_c, 8, 71, 0
10, 28980, Note_on_c, 8, 69, 90
10, 28980, Note_on_c, 8, 73, 90
10, 29039, Note_on_c, 8, 73, 0
10, 29039, Note_on_c, 8, 69, 0
10, 29040, Note_on_c, 8, 68, 90
10, 29040, Note_on_c, 8, 71, 90
10, 29159, Note_on_c, 8, 71, 0
10, 29159, Note_on_c, 8, 68, 0
10, 29400, Note_on_c, 8, 69, 90
10, 29400, Note_on_c, 8, 73, 90
10, 29519, Note_on_c, 8, 73, 0
10, 29519, Note_on_c, 8, 69, 0
10, 29520, Note_on_c, 8, 78, 90
10, 29520, Note_on_c, 8, 74, 90
10, 29639, Note_on_c, 8, 74, 0
10, 29639, Note_on_c, 8, 78, 0
10, 29640, Note_on_c, 8, 69, 90
10, 29640, Note_on_c, 8, 73, 90
10, 29759, Note_on_c, 8, 73, 0
10, 29759, Note_on_c, 8, 69, 0
10, 29760, Note_on_c, 8, 64, 90
10, 29760, Note_on_c, 8, 73, 90
10, 29879, Note_on_c, 8, 73, 0
10, 29879, Note_on_c, 8, 64, 0
10, 29880, Note_on_c, 8, 71, 90
10, 29880, Note_on_c, 8, 68, 90
10, 29880, Note_on_c, 8, 62, 90
10, 29939, Note_on_c, 8, 71, 0
10, 29940, Note_on_c, 8, 69, 90
10, 29999, Note_on_c, 8, 69, 0
10, 29999, Note_on_c, 8, 62, 0
10, 29999, Note_on_c, 8, 68, 0
10, 30000, Note_on_c, 8, 64, 90
10, 30000, Note_on_c, 8, 61, 90
10, 30000, Note_on_c, 8, 69, 90
10, 30119, Note_on_c, 8, 69, 0
10, 30119, Note_on_c, 8, 61, 0
10, 30119, Note_on_c, 8, 64, 0
10, 30120, Note_on_c, 8, 64, 90
10, 30179, Note_on_c, 8, 64, 0
10, 30180, Note_on_c, 8, 61, 90
10, 30239, Note_on_c, 8, 61, 0
10, 30360, Note_on_c, 8, 76, 90
10, 30360, Note_on_c, 8, 73, 90
10, 30419, Note_on_c, 8, 73, 0
10, 30419, Note_on_c, 8, 76, 0
10, 30420, Note_on_c, 8, 74, 90
10, 30420, Note_on_c, 8, 71, 90
10, 30479, Note_on_c, 8, 71, 0
10, 30479, Note_on_c, 8, 74, 0
10, 30480, Note_on_c, 8, 73, 90
10, 30480, Note_on_c, 8, 69, 90
10, 30599, Note_on_c, 8, 69, 0
10, 30599, Note_on_c, 8, 73, 0
10, 30600, Note_on_c, 8, 69, 90
10, 30600, Note_on_c, 8, 73, 90
10, 30659, Note_on_c, 8, 73, 0
10, 30659, Note_on_c, 8, 69, 0
10, 30660, Note_on_c, 8, 71, 90
10, 30660, Note_on_c, 8, 74, 90
10, 30719, Note_on_c, 8, 74, 0
10, 30719, Note_on_c, 8, 71, 0
10, 30720, Note_on_c, 8, 73, 90
10, 30720, Note_on_c, 8, 76, 90
10, 30839, Note_on_c, 8, 76, 0
10, 30839, Note_on_c, 8, 73, 0
10, 30840, Note_on_c, 8, 71, 90
10, 30840, Note_on_c, 8, 74, 90
10, 30899, Note_on_c, 8, 74, 0
10, 30899, Note_on_c, 8, 71, 0
10, 30900, Note_on_c, 8, 69, 90
10, 30900, Note_on_c, 8, 73, 90
10, 30959, Note_on_c, 8, 73, 0
10, 30959, Note_on_c, 8, 69, 0
10, 30960, Note_on_c, 8, 68, 90
10, 30960, Note_on_c, 8, 71, 90
10, 31079, Note_on_c, 8, 71, 0
10, 31079, Note_on_c, 8, 68, 0
10, 31080, Note_on_c, 8, 64, 90
10, 31080, Note_on_c, 8, 68, 90
10, 31139, Note_on_c, 8, 68, 0
10, 31139, Note_on_c, 8, 64, 0
10, 31140, Note_on_c, 8, 69, 90
10, 31140, Note_on_c, 8, 66, 90
10, 31199, Note_on_c, 8, 66, 0
10, 31199, Note_on_c, 8, 69, 0
10, 31200, Note_on_c, 8, 64, 90
10, 31200, Note_on_c, 8, 68, 90
10, 31319, Note_on_c, 8, 68, 0
10, 31319, Note_on_c, 8, 64, 0
10, 31320, Note_on_c, 8, 73, 90
10, 31320, Note_on_c, 8, 69, 90
10, 31439, Note_on_c, 8, 69, 0
10, 31439, Note_on_c, 8, 73, 0
10, 31440, Note_on_c, 8, 64, 90
10, 31440, Note_on_c, 8, 71, 90
10, 31499, Note_on_c, 8, 71, 0
10, 31500, Note_on_c, 8, 68, 90
10, 31559, Note_on_c, 8, 68, 0
10, 31559, Note_on_c, 8, 64, 0
10, 31560, Note_on_c, 8, 69, 90
10, 31560, Note_on_c, 8, 73, 90
10, 31619, Note_on_c, 8, 73, 0
10, 31619, Note_on_c, 8, 69, 0
10, 31620, Note_on_c, 8, 68, 90
10, 31620, Note_on_c, 8, 71, 90
10, 31679, Note_on_c, 8, 71, 0
10, 31679, Note_on_c, 8, 68, 0
10, 31680, Note_on_c, 8, 73, 90
10, 31680, Note_on_c, 8, 69, 90
10, 31799, Note_on_c, 8, 69, 0
10, 31799, Note_on_c, 8, 73, 0
10, 31800, Note_on_c, 8, 62, 90
10, 31800, Note_on_c, 8, 71, 90
10, 31800, Note_on_c, 8, 68, 90
10, 31919, Note_on_c, 8, 68, 0
10, 31919, Note_on_c, 8, 71, 0
10, 31919, Note_on_c, 8, 62, 0
10, 31920, Note_on_c, 8, 61, 90
10, 31920, Note_on_c, 8, 64, 90
10, 31920, Note_on_c, 8, 69, 90
10, 32279, Note_on_c, 8, 69, 0
10, 32279, Note_on_c, 8, 64, 0
10, 32279, Note_on_c, 8, 61, 0
10, 32280, Note_on_c, 8, 73, 90
10, 32339, Note_on_c, 8, 73, 0
10, 32340, Note_on_c, 8, 74, 90
10, 32399, Note_on_c, 8, 74, 0
10, 32400, Note_on_c, 8, 73, 90
10, 32400, Note_on_c, 8, 81, 90
10, 32519, Note_on_c, 8, 81, 0
10, 32519, Note_on_c, 8, 73, 0
10, 32520, Note_on_c, 8, 69, 90
10, 32579, Note_on_c, 8, 69, 0
10, 32580, Note_on_c, 8, 68, 90
10, 32639, Note_on_c, 8, 68, 0
10, 32640, Note_on_c, 8, 69, 90
10, 32699, Note_on_c, 8, 69, 0
10, 32700, Note_on_c, 8, 69, 90
10, 32759, Note_on_c, 8, 69, 0
10, 32760, Note_on_c, 8, 73, 90
10, 32819, Note_on_c, 8, 73, 0
10, 32820, Note_on_c, 8, 73, 90
10, 32879, Note_on_c, 8, 73, 0
10, 32880, Note_on_c, 8, 74, 90
10, 32880, Note_on_c, 8, 81, 90
10, 32999, Note_on_c, 8, 81, 0
10, 32999, Note_on_c, 8, 74, 0
10, 33000, Note_on_c, 8, 69, 90
10, 33059, Note_on_c, 8, 69, 0
10, 33060, Note_on_c, 8, 68, 90
10, 33119, Note_on_c, 8, 68, 0
10, 33120, Note_on_c, 8, 69, 90
10, 33179, Note_on_c, 8, 69, 0
10, 33180, Note_on_c, 8, 69, 90
10, 33239, Note_on_c, 8, 69, 0
10, 33240, Note_on_c, 8, 73, 90
10, 33299, Note_on_c, 8, 73, 0
10, 33300, Note_on_c, 8, 74, 90
10, 33359, Note_on_c, 8, 74, 0
10, 33360, Note_on_c, 8, 76, 90
10, 33360, Note_on_c, 8, 81, 90
10, 33479, Note_on_c, 8, 81, 0
10, 33479, Note_on_c, 8, 76, 0
10, 33480, Note_on_c, 8, 69, 90
10, 33480, Note_on_c, 8, 73, 90
10, 33599, Note_on_c, 8, 73, 0
10, 33599, Note_on_c, 8, 69, 0
10, 33600, Note_on_c, 8, 68, 90
10, 33600, Note_on_c, 8, 71, 90
10, 33719, Note_on_c, 8, 71, 0
10, 33719, Note_on_c, 8, 68, 0
10, 33720, Note_on_c, 8, 73, 90
10, 33720, Note_on_c, 8, 69, 90
10, 33839, Note_on_c, 8, 69, 0
10, 33839, Note_on_c, 8, 73, 0
10, 33840, Note_on_c, 8, 64, 90
10, 33840, Note_on_c, 8, 68, 90
10, 33840, Note_on_c, 8, 71, 90
10, 33959, Note_on_c, 8, 71, 0
10, 33959, Note_on_c, 8, 68, 0
10, 33959, Note_on_c, 8, 64, 0
10, 33960, Note_on_c, 8, 71, 90
10, 34020, Note_on_c, 8, 71, 0
10, 34020, Note_on_c, 8, 69, 90
10, 34080, Note_on_c, 8, 69, 0
10, 34080, Note_on_c, 8, 68, 90
10, 34140, Note_on_c, 8, 68, 0
10, 34140, Note_on_c, 8, 66, 90
10, 34200, Note_on_c, 8, 66, 0
10, 34200, Note_on_c, 8, 64, 90
10, 34260, Note_on_c, 8, 64, 0
10, 34260, Note_on_c, 8, 62, 90
10, 34320, Note_on_c, 8, 62, 0
10, 34320, Note_on_c, 8, 61, 90
10, 34439, Note_on_c, 8, 61, 0
10, 34440, Note_on_c, 8, 64, 90
10, 34559, Note_on_c, 8, 64, 0
10, 34560, Note_on_c, 8, 64, 90
10, 34560, Note_on_c, 8, 69, 90
10, 34679, Note_on_c, 8, 69, 0
10, 34679, Note_on_c, 8, 64, 0
10, 34680, Note_on_c, 8, 69, 90
10, 34680, Note_on_c, 8, 73, 90
10, 34799, Note_on_c, 8, 73, 0
10, 34799, Note_on_c, 8, 69, 0
10, 34800, Note_on_c, 8, 68, 90
10, 34800, Note_on_c, 8, 71, 90
10, 34919, Note_on_c, 8, 71, 0
10, 34919, Note_on_c, 8, 68, 0
10, 34920, Note_on_c, 8, 68, 90
10, 34920, Note_on_c, 8, 71, 90
10, 34979, Note_on_c, 8, 71, 0
10, 34979, Note_on_c, 8, 68, 0
10, 34980, Note_on_c, 8, 69, 90
10, 34980, Note_on_c, 8, 73, 90
10, 35039, Note_on_c, 8, 73, 0
10, 35039, Note_on_c, 8, 69, 0
10, 35040, Note_on_c, 8, 68, 90
10, 35040, Note_on_c, 8, 71, 90
10, 35159, Note_on_c, 8, 71, 0
10, 35159, Note_on_c, 8, 68, 0
10, 35160, Note_on_c, 8, 73, 90
10, 35160, Note_on_c, 8, 69, 90
10, 35279, Note_on_c, 8, 69, 0
10, 35279, Note_on_c, 8, 73, 0
10, 35280, Note_on_c, 8, 69, 90
10, 35280, Note_on_c, 8, 74, 90
10, 35399, Note_on_c, 8, 74, 0
10, 35399, Note_on_c, 8, 69, 0
10, 35400, Note_on_c, 8, 69, 90
10, 35400, Note_on_c, 8, 73, 90
10, 35459, Note_on_c, 8, 73, 0
10, 35459, Note_on_c, 8, 69, 0
10, 35460, Note_on_c, 8, 68, 90
10, 35460, Note_on_c, 8, 71, 90
10, 35519, Note_on_c, 8, 71, 0
10, 35519, Note_on_c, 8, 68, 0
10, 35520, Note_on_c, 8, 69, 90
10, 35520, Note_on_c, 8, 73, 90
10, 35639, Note_on_c, 8, 73, 0
10, 35639, Note_on_c, 8, 69, 0
10, 35640, Note_on_c, 8, 64, 90
10, 35640, Note_on_c, 8, 71, 90
10, 35640, Note_on_c, 8, 68, 90
10, 35759, Note_on_c, 8, 68, 0
10, 35759, Note_on_c, 8, 71, 0
10, 35759, Note_on_c, 8, 64, 0
10, 35760, Note_on_c, 8, 73, 90
10, 35760, Note_on_c, 8, 64, 90
10, 35760, Note_on_c, 8, 69, 90
10, 36119, Note_on_c, 8, 69, 0
10, 36119, Note_on_c, 8, 64, 0
10, 36119, Note_on_c, 8, 73, 0
10, 36120, Note_on_c, 8, 69, 90
10, 36120, Note_on_c, 8, 73, 90
10, 36179, Note_on_c, 8, 73, 0
10, 36179, Note_on_c, 8, 69, 0
10, 36180, Note_on_c, 8, 71, 90
10, 36180, Note_on_c, 8, 74, 90
10, 36239, Note_on_c, 8, 74, 0
10, 36239, Note_on_c, 8, 71, 0
10, 36240, Note_on_c, 8, 73, 90
10, 36240, Note_on_c, 8, 76, 90
10, 36359, Note_on_c, 8, 76, 0
10, 36359, Note_on_c, 8, 73, 0
10, 36360, Note_on_c, 8, 64, 90
10, 36479, Note_on_c, 8, 64, 0
10, 36480, Note_on_c, 8, 64, 90
10, 36599, Note_on_c, 8, 64, 0
10, 36600, Note_on_c, 8, 71, 90
10, 36600, Note_on_c, 8, 74, 90
10, 36659, Note_on_c, 8, 74, 0
10, 36659, Note_on_c, 8, 71, 0
10, 36660, Note_on_c, 8, 73, 90
10, 36660, Note_on_c, 8, 76, 90
10, 36719, Note_on_c, 8, 76, 0
10, 36719, Note_on_c, 8, 73, 0
10, 36720, Note_on_c, 8, 74, 90
10, 36720, Note_on_c, 8, 78, 90
10, 36839, Note_on_c, 8, 78, 0
10, 36839, Note_on_c, 8, 74, 0
10, 36840, Note_on_c, 8, 64, 90
10, 36959, Note_on_c, 8, 64, 0
10, 36960, Note_on_c, 8, 64, 90
10, 37079, Note_on_c, 8, 64, 0
10, 37080, Note_on_c, 8, 69, 90
10, 37080, Note_on_c, 8, 73, 90
10, 37139, Note_on_c, 8, 73, 0
10, 37139, Note_on_c, 8, 69, 0
10, 37140, Note_on_c, 8, 71, 90
10, 37140, Note_on_c, 8, 74, 90
10, 37199, Note_on_c, 8, 74, 0
10, 37199, Note_on_c, 8, 71, 0
10, 37200, Note_on_c, 8, 73, 90
10, 37200, Note_on_c, 8, 76, 90
10, 37319, Note_on_c, 8, 76, 0
10, 37319, Note_on_c, 8, 73, 0
10, 37320, Note_on_c, 8, 69, 90
10, 37439, Note_on_c, 8, 69, 0
10, 37440, Note_on_c, 8, 69, 90
10, 37559, Note_on_c, 8, 69, 0
10, 37560, Note_on_c, 8, 71, 90
10, 37560, Note_on_c, 8, 74, 90
10, 37619, Note_on_c, 8, 74, 0
10, 37619, Note_on_c, 8, 71, 0
10, 37620, Note_on_c, 8, 69, 90
10, 37620, Note_on_c, 8, 73, 90
10, 37679, Note_on_c, 8, 73, 0
10, 37679, Note_on_c, 8, 69, 0
10, 37680, Note_on_c, 8, 71, 90
10, 37680, Note_on_c, 8, 68, 90
10, 37800, Note_on_c, 8, 71, 0
10, 37800, Note_on_c, 8, 83, 90
10, 37830, Note_on_c, 8, 83, 0
10, 37830, Note_on_c, 8, 81, 90
10, 37860, Note_on_c, 8, 81, 0
10, 37860, Note_on_c, 8, 80, 90
10, 37890, Note_on_c, 8, 80, 0
10, 37890, Note_on_c, 8, 78, 90
10, 37920, Note_on_c, 8, 78, 0
10, 37920, Note_on_c, 8, 76, 90
10, 38039, Note_on_c, 8, 76, 0
10, 38039, Note_on_c, 8, 68, 0
10, 38040, Note_on_c, 8, 73, 90
10, 38040, Note_on_c, 8, 69, 90
10, 38099, Note_on_c, 8, 69, 0
10, 38099, Note_on_c, 8, 73, 0
10, 38100, Note_on_c, 8, 74, 90
10, 38100, Note_on_c, 8, 71, 90
10, 38159, Note_on_c, 8, 71, 0
10, 38159, Note_on_c, 8, 74, 0
10, 38160, Note_on_c, 8, 69, 90
10, 38160, Note_on_c, 8, 73, 90
10, 38279, Note_on_c, 8, 73, 0
10, 38279, Note_on_c, 8, 69, 0
10, 38280, Note_on_c, 8, 61, 90
10, 38280, Note_on_c, 8, 64, 90
10, 38399, Note_on_c, 8, 64, 0
10, 38399, Note_on_c, 8, 61, 0
10, 38400, Note_on_c, 8, 59, 90
10, 38400, Note_on_c, 8, 64, 90
10, 38519, Note_on_c, 8, 64, 0
10, 38519, Note_on_c, 8, 59, 0
10, 38520, Note_on_c, 8, 68, 90
10, 38520, Note_on_c, 8, 71, 90
10, 38579, Note_on_c, 8, 71, 0
10, 38579, Note_on_c, 8, 68, 0
10, 38580, Note_on_c, 8, 66, 90
10, 38580, Note_on_c, 8, 69, 90
10, 38639, Note_on_c, 8, 69, 0
10, 38639, Note_on_c, 8, 66, 0
10, 38640, Note_on_c, 8, 68, 90
10, 38640, Note_on_c, 8, 71, 90
10, 38759, Note_on_c, 8, 71, 0
10, 38759, Note_on_c, 8, 68, 0
10, 38760, Note_on_c, 8, 59, 90
10, 38760, Note_on_c, 8, 64, 90
10, 38879, Note_on_c, 8, 64, 0
10, 38879, Note_on_c, 8, 59, 0
10, 38880, Note_on_c, 8, 59, 90
10, 38880, Note_on_c, 8, 64, 90
10, 38999, Note_on_c, 8, 64, 0
10, 38999, Note_on_c, 8, 59, 0
10, 39000, Note_on_c, 8, 68, 90
10, 39000, Note_on_c, 8, 71, 90
10, 39119, Note_on_c, 8, 71, 0
10, 39119, Note_on_c, 8, 68, 0
10, 39120, Note_on_c, 8, 69, 90
10, 39120, Note_on_c, 8, 73, 90
10, 39239, Note_on_c, 8, 73, 0
10, 39239, Note_on_c, 8, 69, 0
10, 39240, Note_on_c, 8, 74, 90
10, 39240, Note_on_c, 8, 71, 90
10, 39299, Note_on_c, 8, 71, 0
10, 39299, Note_on_c, 8, 74, 0
10, 39300, Note_on_c, 8, 73, 90
10, 39300, Note_on_c, 8, 69, 90
10, 39359, Note_on_c, 8, 69, 0
10, 39359, Note_on_c, 8, 73, 0
10, 39360, Note_on_c, 8, 68, 90
10, 39360, Note_on_c, 8, 71, 90
10, 39479, Note_on_c, 8, 71, 0
10, 39479, Note_on_c, 8, 68, 0
10, 39480, Note_on_c, 8, 62, 90
10, 39480, Note_on_c, 8, 68, 90
10, 39599, Note_on_c, 8, 68, 0
10, 39599, Note_on_c, 8, 62, 0
10, 39600, Note_on_c, 8, 69, 90
10, 39600, Note_on_c, 8, 61, 90
10, 39959, Note_on_c, 8, 61, 0
10, 39959, Note_on_c, 8, 69, 0
10, 40080, Note_on_c, 8, 57, 90
10, 40110, Note_on_c, 8, 61, 90
10, 40140, Note_on_c, 8, 64, 90
10, 41039, Note_on_c, 8, 64, 0
10, 41039, Note_on_c, 8, 61, 0
10, 41040, Note_on_c, 8, 57, 0
10, 41040, Note_on_c, 8, 69, 90
10, 41040, Note_on_c, 8, 66, 90
10, 41040, Note_on_c, 8, 62, 90
10, 41760, Note_on_c, 8, 62, 0
10, 41760, Note_on_c, 8, 66, 0
10, 41760, Note_on_c, 8, 69, 0
10, 41760, Note_on_c, 8, 70, 90
10, 41760, Note_on_c, 8, 61, 90
10, 41760, Note_on_c, 8, 66, 90
10, 42480, Note_on_c, 8, 66, 0
10, 42480, Note_on_c, 8, 61, 0
10, 42480, Note_on_c, 8, 70, 0
10, 42480, Note_on_c, 8, 71, 90
10, 42480, Note_on_c, 8, 66, 90
10, 42480, Note_on_c, 8, 62, 90
10, 42720, Note_on_c, 8, 62, 0
10, 42720, Note_on_c, 8, 66, 0
10, 42720, Note_on_c, 8, 71, 0
10, 42720, Note_on_c, 8, 67, 90
10, 42779, Note_on_c, 8, 67, 0
10, 42780, Note_on_c, 8, 67, 90
10, 42809, Note_on_c, 8, 67, 0
10, 42810, Note_on_c, 8, 67, 90
10, 42839, Note_on_c, 8, 67, 0
10, 42840, Note_on_c, 8, 67, 90
10, 42899, Note_on_c, 8, 67, 0
10, 42900, Note_on_c, 8, 67, 90
10, 42959, Note_on_c, 8, 67, 0
10, 42960, Note_on_c, 8, 67, 90
10, 43019, Note_on_c, 8, 67, 0
10, 43020, Note_on_c, 8, 69, 90
10, 43049, Note_on_c, 8, 69, 0
10, 43050, Note_on_c, 8, 67, 90
10, 43079, Note_on_c, 8, 67, 0
10, 43080, Note_on_c, 8, 66, 90
10, 43109, Note_on_c, 8, 66, 0
10, 43110, Note_on_c, 8, 64, 90
10, 43139, Note_on_c, 8, 64, 0
10, 43140, Note_on_c, 8, 62, 90
10, 43169, Note_on_c, 8, 62, 0
10, 43170, Note_on_c, 8, 61, 90
10, 43199, Note_on_c, 8, 61, 0
10, 43200, Note_on_c, 8, 67, 90
10, 43259, Note_on_c, 8, 67, 0
10, 43260, Note_on_c, 8, 67, 90
10, 43289, Note_on_c, 8, 67, 0
10, 43290, Note_on_c, 8, 67, 90
10, 43319, Note_on_c, 8, 67, 0
10, 43320, Note_on_c, 8, 67, 90
10, 43379, Note_on_c, 8, 67, 0
10, 43380, Note_on_c, 8, 67, 90
10, 43439, Note_on_c, 8, 67, 0
10, 43440, Note_on_c, 8, 62, 90
10, 43440, Note_on_c, 8, 67, 90
10, 43679, Note_on_c, 8, 67, 0
10, 43679, Note_on_c, 8, 62, 0
10, 43680, Note_on_c, 8, 59, 90
10, 43680, Note_on_c, 8, 62, 90
10, 43680, Note_on_c, 8, 66, 90
10, 43919, Note_on_c, 8, 66, 0
10, 43919, Note_on_c, 8, 62, 0
10, 43919, Note_on_c, 8, 59, 0
10, 43920, Note_on_c, 8, 64, 90
10, 43920, Note_on_c, 8, 67, 90
10, 43920, Note_on_c, 8, 71, 90
10, 44159, Note_on_c, 8, 71, 0
10, 44159, Note_on_c, 8, 67, 0
10, 44159, Note_on_c, 8, 64, 0
10, 44160, Note_on_c, 8, 62, 90
10, 44160, Note_on_c, 8, 66, 90
10, 44160, Note_on_c, 8, 69, 90
10, 44639, Note_on_c, 8, 69, 0
10, 44639, Note_on_c, 8, 66, 0
10, 44639, Note_on_c, 8, 62, 0
10, 44640, Note_on_c, 8, 71, 90
10, 44640, Note_on_c, 8, 68, 90
10, 44640, Note_on_c, 8, 64, 90
10, 45359, Note_on_c, 8, 64, 0
10, 45359, Note_on_c, 8, 68, 0
10, 45359, Note_on_c, 8, 71, 0
10, 45360, Note_on_c, 8, 62, 90
10, 45360, Note_on_c, 8, 65, 90
10, 45599, Note_on_c, 8, 65, 0
10, 45599, Note_on_c, 8, 62, 0
10, 45600, Note_on_c, 8, 61, 90
10, 45600, Note_on_c, 8, 66, 90
10, 45839, Note_on_c, 8, 66, 0
10, 45839, Note_on_c, 8, 61, 0
10, 45840, Note_on_c, 8, 62, 90
10, 45899, Note_on_c, 8, 62, 0
10, 45900, Note_on_c, 8, 61, 90
10, 45959, Note_on_c, 8, 61, 0
10, 45960, Note_on_c, 8, 62, 90
10, 46019, Note_on_c, 8, 62, 0
10, 46020, Note_on_c, 8, 61, 90
10, 46079, Note_on_c, 8, 61, 0
10, 46080, Note_on_c, 8, 59, 90
10, 46199, Note_on_c, 8, 59, 0
10, 46440, Note_on_c, 8, 65, 90
10, 46440, Note_on_c, 8, 68, 90
10, 46559, Note_on_c, 8, 68, 0
10, 46559, Note_on_c, 8, 65, 0
10, 46560, Note_on_c, 8, 69, 90
10, 46560, Note_on_c, 8, 61, 90
10, 46560, Note_on_c, 8, 66, 90
10, 46679, Note_on_c, 8, 66, 0
10, 46679, Note_on_c, 8, 61, 0
10, 46679, Note_on_c, 8, 69, 0
10, 46800, Note_on_c, 8, 68, 90
10, 46800, Note_on_c, 8, 61, 90
10, 46800, Note_on_c, 8, 64, 90
10, 46919, Note_on_c, 8, 64, 0
10, 46919, Note_on_c, 8, 61, 0
10, 46919, Note_on_c, 8, 68, 0
10, 46980, Note_on_c, 8, 62, 90
10, 46980, Note_on_c, 8, 66, 90
10, 46980, Note_on_c, 8, 71, 90
10, 47039, Note_on_c, 8, 71, 0
10, 47039, Note_on_c, 8, 66, 0
10, 47039, Note_on_c, 8, 62, 0
10, 47040, Note_on_c, 8, 64, 90
10, 47040, Note_on_c, 8, 69, 90
10, 47040, Note_on_c, 8, 73, 90
10, 47160, Note_on_c, 8, 73, 0
10, 47160, Note_on_c, 8, 69, 0
10, 47160, Note_on_c, 8, 64, 0
10, 47160, Note_on_c, 8, 73, 90
10, 47160, Note_on_c, 8, 76, 90
10, 47220, Note_on_c, 8, 76, 0
10, 47220, Note_on_c, 8, 73, 0
10, 47220, Note_on_c, 8, 71, 90
10, 47220, Note_on_c, 8, 74, 90
10, 47280, Note_on_c, 8, 74, 0
10, 47280, Note_on_c, 8, 71, 0
10, 47280, Note_on_c, 8, 73, 90
10, 47280, Note_on_c, 8, 64, 90
10, 47280, Note_on_c, 8, 69, 90
10, 47400, Note_on_c, 8, 69, 0
10, 47400, Note_on_c, 8, 64, 0
10, 47400, Note_on_c, 8, 73, 0
10, 47400, Note_on_c, 8, 64, 90
10, 47400, Note_on_c, 8, 68, 90
10, 47400, Note_on_c, 8, 71, 90
10, 47520, Note_on_c, 8, 71, 0
10, 47520, Note_on_c, 8, 68, 0
10, 47520, Note_on_c, 8, 64, 0
10, 47520, Note_on_c, 8, 61, 90
10, 47520, Note_on_c, 8, 64, 90
10, 47520, Note_on_c, 8, 69, 90
10, 47700, Note_on_c, 8, 69, 0
10, 47700, Note_on_c, 8, 64, 0
10, 47700, Note_on_c, 8, 61, 0
10, 49560, Note_on_c, 8, 61, 90
10, 49560, Note_on_c, 8, 64, 90
10, 49679, Note_on_c, 8, 64, 0
10, 49679, Note_on_c, 8, 61, 0
10, 49680, Note_on_c, 8, 61, 90
10, 49680, Note_on_c, 8, 64, 90
10, 49799, Note_on_c, 8, 64, 0
10, 49799, Note_on_c, 8, 61, 0
10, 49800, Note_on_c, 8, 62, 90
10, 49800, Note_on_c, 8, 59, 90
10, 49919, Note_on_c, 8, 59, 0
10, 49919, Note_on_c, 8, 62, 0
10, 49920, Note_on_c, 8, 61, 90
10, 49920, Note_on_c, 8, 64, 90
10, 50039, Note_on_c, 8, 64, 0
10, 50039, Note_on_c, 8, 61, 0
10, 50040, Note_on_c, 8, 59, 90
10, 50040, Note_on_c, 8, 62, 90
10, 50159, Note_on_c, 8, 62, 0
10, 50159, Note_on_c, 8, 59, 0
10, 50160, Note_on_c, 8, 59, 90
10, 50160, Note_on_c, 8, 62, 90
10, 50279, Note_on_c, 8, 62, 0
10, 50279, Note_on_c, 8, 59, 0
10, 50280, Note_on_c, 8, 61, 90
10, 50280, Note_on_c, 8, 64, 90
10, 50399, Note_on_c, 8, 64, 0
10, 50399, Note_on_c, 8, 61, 0
10, 50400, Note_on_c, 8, 62, 90
10, 50400, Note_on_c, 8, 59, 90
10, 50519, Note_on_c, 8, 59, 0
10, 50519, Note_on_c, 8, 62, 0
10, 50520, Note_on_c, 8, 62, 90
10, 50520, Note_on_c, 8, 59, 90
10, 50639, Note_on_c, 8, 59, 0
10, 50639, Note_on_c, 8, 62, 0
10, 50640, Note_on_c, 8, 73, 90
10, 50699, Note_on_c, 8, 73, 0
10, 50700, Note_on_c, 8, 71, 90
10, 50759, Note_on_c, 8, 71, 0
10, 50760, Note_on_c, 8, 78, 90
10, 50760, Note_on_c, 8, 74, 90
10, 50819, Note_on_c, 8, 74, 0
10, 50819, Note_on_c, 8, 78, 0
10, 50820, Note_on_c, 8, 76, 90
10, 50820, Note_on_c, 8, 73, 90
10, 50879, Note_on_c, 8, 73, 0
10, 50879, Note_on_c, 8, 76, 0
10, 50880, Note_on_c, 8, 74, 90
10, 50880, Note_on_c, 8, 71, 90
10, 50939, Note_on_c, 8, 71, 0
10, 50939, Note_on_c, 8, 74, 0
10, 50940, Note_on_c, 8, 73, 90
10, 50940, Note_on_c, 8, 69, 90
10, 50999, Note_on_c, 8, 69, 0
10, 50999, Note_on_c, 8, 73, 0
10, 51000, Note_on_c, 8, 68, 90
10, 51000, Note_on_c, 8, 71, 90
10, 51059, Note_on_c, 8, 71, 0
10, 51059, Note_on_c, 8, 68, 0
10, 51060, Note_on_c, 8, 64, 90
10, 51060, Note_on_c, 8, 62, 90
10, 51119, Note_on_c, 8, 62, 0
10, 51119, Note_on_c, 8, 64, 0
10, 51120, Note_on_c, 8, 64, 90
10, 51120, Note_on_c, 8, 61, 90
10, 51359, Note_on_c, 8, 61, 0
10, 51359, Note_on_c, 8, 64, 0
10, 54240, Note_on_c, 8, 73, 90
10, 54269, Note_on_c, 8, 73, 0
10, 54270, Note_on_c, 8, 71, 90
10, 54299, Note_on_c, 8, 71, 0
10, 54300, Note_on_c, 8, 69, 90
10, 54300, Note_on_c, 8, 73, 90
10, 54329, Note_on_c, 8, 73, 0
10, 54329, Note_on_c, 8, 69, 0
10, 54330, Note_on_c, 8, 71, 90
10, 54330, Note_on_c, 8, 74, 90
10, 54359, Note_on_c, 8, 74, 0
10, 54359, Note_on_c, 8, 71, 0
10, 54360, Note_on_c, 8, 73, 90
10, 54360, Note_on_c, 8, 76, 90
10, 54419, Note_on_c, 8, 76, 0
10, 54419, Note_on_c, 8, 73, 0
10, 54420, Note_on_c, 8, 71, 90
10, 54420, Note_on_c, 8, 74, 90
10, 54479, Note_on_c, 8, 74, 0
10, 54479, Note_on_c, 8, 71, 0
10, 54480, Note_on_c, 8, 73, 90
10, 54480, Note_on_c, 8, 76, 90
10, 54539, Note_on_c, 8, 76, 0
10, 54539, Note_on_c, 8, 73, 0
10, 54540, Note_on_c, 8, 71, 90
10, 54540, Note_on_c, 8, 74, 90
10, 54599, Note_on_c, 8, 74, 0
10, 54599, Note_on_c, 8, 71, 0
10, 54600, Note_on_c, 8, 74, 90
10, 54600, Note_on_c, 8, 78, 90
10, 54719, Note_on_c, 8, 78, 0
10, 54719, Note_on_c, 8, 74, 0
10, 54720, Note_on_c, 8, 73, 90
10, 54720, Note_on_c, 8, 76, 90
10, 54839, Note_on_c, 8, 76, 0
10, 54839, Note_on_c, 8, 73, 0
10, 54840, Note_on_c, 8, 71, 90
10, 54840, Note_on_c, 8, 74, 90
10, 54959, Note_on_c, 8, 74, 0
10, 54959, Note_on_c, 8, 71, 0
10, 54960, Note_on_c, 8, 71, 90
10, 54989, Note_on_c, 8, 71, 0
10, 54990, Note_on_c, 8, 69, 90
10, 55019, Note_on_c, 8, 69, 0
10, 55020, Note_on_c, 8, 71, 90
10, 55049, Note_on_c, 8, 71, 0
10, 55050, Note_on_c, 8, 73, 90
10, 55079, Note_on_c, 8, 73, 0
10, 55080, Note_on_c, 8, 71, 90
10, 55080, Note_on_c, 8, 74, 90
10, 55139, Note_on_c, 8, 74, 0
10, 55139, Note_on_c, 8, 71, 0
10, 55140, Note_on_c, 8, 69, 90
10, 55140, Note_on_c, 8, 73, 90
10, 55199, Note_on_c, 8, 73, 0
10, 55199, Note_on_c, 8, 69, 0
10, 55200, Note_on_c, 8, 71, 90
10, 55200, Note_on_c, 8, 74, 90
10, 55259, Note_on_c, 8, 74, 0
10, 55259, Note_on_c, 8, 71, 0
10, 55260, Note_on_c, 8, 69, 90
10, 55260, Note_on_c, 8, 73, 90
10, 55319, Note_on_c, 8, 73, 0
10, 55319, Note_on_c, 8, 69, 0
10, 55320, Note_on_c, 8, 73, 90
10, 55320, Note_on_c, 8, 76, 90
10, 55439, Note_on_c, 8, 76, 0
10, 55439, Note_on_c, 8, 73, 0
10, 55440, Note_on_c, 8, 71, 90
10, 55440, Note_on_c, 8, 74, 90
10, 55559, Note_on_c, 8, 74, 0
10, 55559, Note_on_c, 8, 71, 0
10, 55560, Note_on_c, 8, 69, 90
10, 55560, Note_on_c, 8, 73, 90
10, 55679, Note_on_c, 8, 73, 0
10, 55679, Note_on_c, 8, 69, 0
10, 55680, Note_on_c, 8, 73, 90
10, 55680, Note_on_c, 8, 76, 90
10, 55739, Note_on_c, 8, 76, 0
10, 55739, Note_on_c, 8, 73, 0
10, 55740, Note_on_c, 8, 71, 90
10, 55740, Note_on_c, 8, 74, 90
10, 55799, Note_on_c, 8, 74, 0
10, 55799, Note_on_c, 8, 71, 0
10, 55800, Note_on_c, 8, 73, 90
10, 55800, Note_on_c, 8, 69, 90
10, 55919, Note_on_c, 8, 69, 0
10, 55919, Note_on_c, 8, 73, 0
10, 55920, Note_on_c, 8, 71, 90
10, 55920, Note_on_c, 8, 68, 90
10, 56039, Note_on_c, 8, 68, 0
10, 56039, Note_on_c, 8, 71, 0
10, 56040, Note_on_c, 8, 73, 90
10, 56040, Note_on_c, 8, 69, 90
10, 56129, Note_on_c, 8, 69, 0
10, 56129, Note_on_c, 8, 73, 0
10, 56130, Note_on_c, 8, 69, 90
10, 56130, Note_on_c, 8, 73, 90
10, 56159, Note_on_c, 8, 73, 0
10, 56159, Note_on_c, 8, 69, 0
10, 56160, Note_on_c, 8, 68, 90
10, 56160, Note_on_c, 8, 71, 90
10, 56399, Note_on_c, 8, 71, 0
10, 56399, Note_on_c, 8, 68, 0
10, 56400, Note_on_c, 8, 69, 90
10, 56400, Note_on_c, 8, 73, 90
10, 56459, Note_on_c, 8, 73, 0
10, 56459, Note_on_c, 8, 69, 0
10, 56460, Note_on_c, 8, 68, 90
10, 56460, Note_on_c, 8, 71, 90
10, 56489, Note_on_c, 8, 71, 0
10, 56489, Note_on_c, 8, 68, 0
10, 56490, Note_on_c, 8, 69, 90
10, 56490, Note_on_c, 8, 73, 90
10, 56519, Note_on_c, 8, 73, 0
10, 56519, Note_on_c, 8, 69, 0
10, 56520, Note_on_c, 8, 66, 90
10, 56520, Note_on_c, 8, 74, 90
10, 56579, Note_on_c, 8, 74, 0
10, 56579, Note_on_c, 8, 66, 0
10, 56580, Note_on_c, 8, 64, 90
10, 56580, Note_on_c, 8, 73, 90
10, 56639, Note_on_c, 8, 73, 0
10, 56639, Note_on_c, 8, 64, 0
10, 56640, Note_on_c, 8, 62, 90
10, 56640, Note_on_c, 8, 71, 90
10, 56699, Note_on_c, 8, 71, 0
10, 56699, Note_on_c, 8, 62, 0
10, 56700, Note_on_c, 8, 66, 90
10, 56700, Note_on_c, 8, 69, 90
10, 56759, Note_on_c, 8, 69, 0
10, 56759, Note_on_c, 8, 66, 0
10, 56760, Note_on_c, 8, 68, 90
10, 56789, Note_on_c, 8, 68, 0
10, 56790, Note_on_c, 8, 69, 90
10, 56819, Note_on_c, 8, 69, 0
10, 56820, Note_on_c, 8, 71, 90
10, 56849, Note_on_c, 8, 71, 0
10, 56850, Note_on_c, 8, 68, 90
10, 56879, Note_on_c, 8, 68, 0
10, 56880, Note_on_c, 8, 69, 90
10, 56939, Note_on_c, 8, 69, 0
10, 56940, Note_on_c, 8, 59, 90
10, 56999, Note_on_c, 8, 59, 0
10, 57000, Note_on_c, 8, 61, 90
10, 57059, Note_on_c, 8, 61, 0
10, 57060, Note_on_c, 8, 62, 90
10, 57119, Note_on_c, 8, 62, 0
10, 57120, Note_on_c, 8, 69, 90
10, 57149, Note_on_c, 8, 69, 0
10, 57150, Note_on_c, 8, 68, 90
10, 57179, Note_on_c, 8, 68, 0
10, 57180, Note_on_c, 8, 69, 90
10, 57209, Note_on_c, 8, 69, 0
10, 57210, Note_on_c, 8, 71, 90
10, 57239, Note_on_c, 8, 71, 0
10, 57240, Note_on_c, 8, 69, 90
10, 57240, Note_on_c, 8, 73, 90
10, 57299, Note_on_c, 8, 73, 0
10, 57299, Note_on_c, 8, 69, 0
10, 57300, Note_on_c, 8, 64, 90
10, 57359, Note_on_c, 8, 64, 0
10, 57360, Note_on_c, 8, 68, 90
10, 57360, Note_on_c, 8, 74, 90
10, 57419, Note_on_c, 8, 74, 0
10, 57419, Note_on_c, 8, 68, 0
10, 57420, Note_on_c, 8, 64, 90
10, 57479, Note_on_c, 8, 64, 0
10, 57480, Note_on_c, 8, 69, 90
10, 57480, Note_on_c, 8, 73, 90
10, 57600, Note_on_c, 8, 73, 0
10, 57600, Note_on_c, 8, 69, 0
10, 57600, Note_on_c, 8, 64, 90
10, 57600, Note_on_c, 8, 68, 90
10, 57839, Note_on_c, 8, 68, 0
10, 57839, Note_on_c, 8, 64, 0
10, 57840, Note_on_c, 8, 64, 90
10, 57899, Note_on_c, 8, 64, 0
10, 57900, Note_on_c, 8, 62, 90
10, 57929, Note_on_c, 8, 62, 0
10, 57930, Note_on_c, 8, 64, 90
10, 57959, Note_on_c, 8, 64, 0
10, 57960, Note_on_c, 8, 66, 90
10, 58019, Note_on_c, 8, 66, 0
10, 58020, Note_on_c, 8, 64, 90
10, 58079, Note_on_c, 8, 64, 0
10, 58080, Note_on_c, 8, 62, 90
10, 58139, Note_on_c, 8, 62, 0
10, 58140, Note_on_c, 8, 61, 90
10, 58199, Note_on_c, 8, 61, 0
10, 58200, Note_on_c, 8, 71, 90
10, 58200, Note_on_c, 8, 68, 90
10, 58320, Note_on_c, 8, 68, 0
10, 58320, Note_on_c, 8, 71, 0
10, 58320, Note_on_c, 8, 69, 90
10, 58320, Note_on_c, 8, 64, 90
10, 58320, Note_on_c, 8, 61, 90
10, 58559, Note_on_c, 8, 61, 0
10, 58559, Note_on_c, 8, 64, 0
10, 58559, Note_on_c, 8, 69, 0
10, 58695, Note_on_c, 8, 57, 90
10, 58710, Note_on_c, 8, 61, 90
10, 58725, Note_on_c, 8, 66, 90
10, 59399, Note_on_c, 8, 66, 0
10, 59399, Note_on_c, 8, 61, 0
10, 59399, Note_on_c, 8, 57, 0
10, 59400, Note_on_c, 8, 71, 90
10, 59400, Note_on_c, 8, 66, 90
10, 59400, Note_on_c, 8, 63, 90
10, 59640, Note_on_c, 8, 71, 0
10, 59640, Note_on_c, 8, 69, 90
10, 59880, Note_on_c, 8, 69, 0
10, 59880, Note_on_c, 8, 63, 0
10, 59880, Note_on_c, 8, 66, 0
10, 59880, Note_on_c, 8, 71, 90
10, 59880, Note_on_c, 8, 64, 90
10, 59880, Note_on_c, 8, 67, 90
10, 60000, Note_on_c, 8, 67, 90
10, 60120, Note_on_c, 8, 67, 0
10, 60120, Note_on_c, 8, 71, 0
10, 60120, Note_on_c, 8, 64, 0
10, 60120, Note_on_c, 8, 67, 0
10, 60120, Note_on_c, 8, 61, 90
10, 60120, Note_on_c, 8, 64, 90
10, 60120, Note_on_c, 8, 69, 90
10, 60240, Note_on_c, 8, 69, 0
10, 60240, Note_on_c, 8, 64, 0
10, 60240, Note_on_c, 8, 61, 0
10, 60480, Note_on_c, 8, 69, 90
10, 60480, Note_on_c, 8, 64, 90
10, 60480, Note_on_c, 8, 67, 90
10, 60600, Note_on_c, 8, 67, 0
10, 60600, Note_on_c, 8, 64, 0
10, 60600, Note_on_c, 8, 69, 0
10, 60600, Note_on_c, 8, 62, 90
10, 60600, Note_on_c, 8, 66, 90
10, 60600, Note_on_c, 8, 69, 90
10, 60840, Note_on_c, 8, 69, 0
10, 60840, Note_on_c, 8, 66, 0
10, 60840, Note_on_c, 8, 62, 0
10, 60840, Note_on_c, 8, 62, 90
10, 60840, Note_on_c, 8, 69, 90
10, 60840, Note_on_c, 8, 66, 90
10, 60960, Note_on_c, 8, 62, 0
10, 60960, Note_on_c, 8, 60, 90
10, 61080, Note_on_c, 8, 60, 0
10, 61080, Note_on_c, 8, 66, 0
10, 61080, Note_on_c, 8, 69, 0
10, 61080, Note_on_c, 8, 59, 90
10, 61080, Note_on_c, 8, 67, 90
10, 61080, Note_on_c, 8, 62, 90
10, 61200, Note_on_c, 8, 62, 0
10, 61200, Note_on_c, 8, 67, 0
10, 61200, Note_on_c, 8, 59, 0
10, 61200, Note_on_c, 8, 67, 90
10, 61200, Note_on_c, 8, 71, 90
10, 61320, Note_on_c, 8, 71, 0
10, 61320, Note_on_c, 8, 67, 0
10, 61440, Note_on_c, 8, 61, 90
10, 61440, Note_on_c, 8, 69, 90
10, 61500, Note_on_c, 8, 69, 0
10, 61500, Note_on_c, 8, 61, 0
10, 61500, Note_on_c, 8, 64, 90
10, 61500, Note_on_c, 8, 67, 90
10, 61560, Note_on_c, 8, 67, 0
10, 61560, Note_on_c, 8, 64, 0
10, 61560, Note_on_c, 8, 69, 90
10, 61560, Note_on_c, 8, 62, 90
10, 61560, Note_on_c, 8, 66, 90
10, 62040, Note_on_c, 8, 66, 0
10, 62040, Note_on_c, 8, 62, 0
10, 62040, Note_on_c, 8, 69, 0
10, 74760, Note_on_c, 8, 59, 90
10, 74775, Note_on_c, 8, 64, 90
10, 74790, Note_on_c, 8, 68, 90
10, 75479, Note_on_c, 8, 68, 0
10, 75479, Note_on_c, 8, 64, 0
10, 75480, Note_on_c, 8, 59, 0
10, 75480, Note_on_c, 8, 61, 90
10, 75495, Note_on_c, 8, 64, 90
10, 75510, Note_on_c, 8, 69, 90
10, 75959, Note_on_c, 8, 69, 0
10, 75959, Note_on_c, 8, 64, 0
10, 75960, Note_on_c, 8, 61, 0
10, 75960, Note_on_c, 8, 70, 90
10, 75960, Note_on_c, 8, 66, 90
10, 75960, Note_on_c, 8, 61, 90
10, 76440, Note_on_c, 8, 61, 0
10, 76440, Note_on_c, 8, 66, 0
10, 76440, Note_on_c, 8, 70, 0
10, 76440, Note_on_c, 8, 61, 90
10, 76440, Note_on_c, 8, 67, 90
10, 76440, Note_on_c, 8, 64, 90
10, 76680, Note_on_c, 8, 64, 0
10, 76680, Note_on_c, 8, 67, 0
10, 76680, Note_on_c, 8, 61, 0
10, 76680, Note_on_c, 8, 62, 90
10, 76680, Note_on_c, 8, 71, 90
10, 76680, Note_on_c, 8, 66, 90
10, 76800, Note_on_c, 8, 66, 0
10, 76800, Note_on_c, 8, 71, 0
10, 76800, Note_on_c, 8, 62, 0
10, 76800, Note_on_c, 8, 64, 90
10, 76800, Note_on_c, 8, 67, 90
10, 76800, Note_on_c, 8, 71, 90
10, 76920, Note_on_c, 8, 71, 0
10, 76920, Note_on_c, 8, 67, 0
10, 76920, Note_on_c, 8, 64, 0
10, 77040, Note_on_c, 8, 70, 90
10, 77040, Note_on_c, 8, 61, 90
10, 77040, Note_on_c, 8, 66, 90
10, 77160, Note_on_c, 8, 66, 0
10, 77160, Note_on_c, 8, 61, 0
10, 77160, Note_on_c, 8, 70, 0
10, 77160, Note_on_c, 8, 62, 90
10, 77160, Note_on_c, 8, 66, 90
10, 77160, Note_on_c, 8, 71, 90
10, 77640, Note_on_c, 8, 71, 0
10, 77640, Note_on_c, 8, 66, 0
10, 77640, Note_on_c, 8, 62, 0
10, 77640, Note_on_c, 8, 66, 90
10, 77640, Note_on_c, 8, 62, 90
10, 77759, Note_on_c, 8, 62, 0
10, 77759, Note_on_c, 8, 66, 0
10, 77760, Note_on_c, 8, 59, 90
10, 77760, Note_on_c, 8, 66, 90
10, 77879, Note_on_c, 8, 66, 0
10, 77879, Note_on_c, 8, 59, 0
10, 77880, Note_on_c, 8, 66, 90
10, 77880, Note_on_c, 8, 62, 90
10, 77999, Note_on_c, 8, 62, 0
10, 77999, Note_on_c, 8, 66, 0
10, 78000, Note_on_c, 8, 61, 90
10, 78000, Note_on_c, 8, 66, 90
10, 78119, Note_on_c, 8, 66, 0
10, 78119, Note_on_c, 8, 61, 0
10, 78120, Note_on_c, 8, 78, 90
10, 78180, Note_on_c, 8, 78, 0
10, 78180, Note_on_c, 8, 76, 90
10, 78240, Note_on_c, 8, 76, 0
10, 78240, Note_on_c, 8, 74, 90
10, 78300, Note_on_c, 8, 74, 0
10, 78300, Note_on_c, 8, 73, 90
10, 78360, Note_on_c, 8, 73, 0
10, 78360, Note_on_c, 8, 74, 90
10, 78360, Note_on_c, 8, 66, 90
10, 78479, Note_on_c, 8, 66, 0
10, 78479, Note_on_c, 8, 74, 0
10, 78480, Note_on_c, 8, 66, 90
10, 78480, Note_on_c, 8, 71, 90
10, 78599, Note_on_c, 8, 71, 0
10, 78599, Note_on_c, 8, 66, 0
10, 78600, Note_on_c, 8, 64, 90
10, 78600, Note_on_c, 8, 68, 90
10, 78719, Note_on_c, 8, 68, 0
10, 78719, Note_on_c, 8, 64, 0
10, 78720, Note_on_c, 8, 64, 90
10, 78720, Note_on_c, 8, 69, 90
10, 78839, Note_on_c, 8, 69, 0
10, 78839, Note_on_c, 8, 64, 0
10, 78900, Note_on_c, 8, 73, 90
10, 78960, Note_on_c, 8, 73, 0
10, 78960, Note_on_c, 8, 74, 90
10, 79020, Note_on_c, 8, 74, 0
10, 79020, Note_on_c, 8, 76, 90
10, 79080, Note_on_c, 8, 76, 0
10, 79080, Note_on_c, 8, 74, 90
10, 79140, Note_on_c, 8, 74, 0
10, 79140, Note_on_c, 8, 73, 90
10, 79200, Note_on_c, 8, 73, 0
10, 79200, Note_on_c, 8, 71, 90
10, 79319, Note_on_c, 8, 71, 0
10, 79380, Note_on_c, 8, 74, 90
10, 79440, Note_on_c, 8, 74, 0
10, 79440, Note_on_c, 8, 73, 90
10, 79500, Note_on_c, 8, 73, 0
10, 79500, Note_on_c, 8, 71, 90
10, 79560, Note_on_c, 8, 71, 0
10, 79560, Note_on_c, 8, 70, 90
10, 79679, Note_on_c, 8, 70, 0
10, 79680, Note_on_c, 8, 62, 90
10, 79680, Note_on_c, 8, 66, 90
10, 79799, Note_on_c, 8, 66, 0
10, 79799, Note_on_c, 8, 62, 0
10, 79800, Note_on_c, 8, 67, 90
10, 79800, Note_on_c, 8, 62, 90
10, 79919, Note_on_c, 8, 62, 0
10, 79919, Note_on_c, 8, 67, 0
10, 79920, Note_on_c, 8, 62, 90
10, 79920, Note_on_c, 8, 59, 90
10, 80159, Note_on_c, 8, 59, 0
10, 80159, Note_on_c, 8, 62, 0
10, 80340, Note_on_c, 8, 73, 90
10, 80399, Note_on_c, 8, 73, 0
10, 80400, Note_on_c, 8, 74, 90
10, 80459, Note_on_c, 8, 74, 0
10, 80460, Note_on_c, 8, 76, 90
10, 80519, Note_on_c, 8, 76, 0
10, 80520, Note_on_c, 8, 71, 90
10, 80520, Note_on_c, 8, 78, 90
10, 80639, Note_on_c, 8, 78, 0
10, 80639, Note_on_c, 8, 71, 0
10, 80760, Note_on_c, 8, 66, 90
10, 80760, Note_on_c, 8, 71, 90
10, 80879, Note_on_c, 8, 71, 0
10, 80879, Note_on_c, 8, 66, 0
10, 80880, Note_on_c, 8, 64, 90
10, 80880, Note_on_c, 8, 73, 90
10, 80999, Note_on_c, 8, 73, 0
10, 80999, Note_on_c, 8, 64, 0
10, 81120, Note_on_c, 8, 66, 90
10, 81120, Note_on_c, 8, 70, 90
10, 81239, Note_on_c, 8, 70, 0
10, 81239, Note_on_c, 8, 66, 0
10, 81240, Note_on_c, 8, 66, 90
10, 81240, Note_on_c, 8, 71, 90
10, 81359, Note_on_c, 8, 71, 0
10, 81359, Note_on_c, 8, 66, 0
10, 81480, Note_on_c, 8, 73, 90
10, 81480, Note_on_c, 8, 70, 90
10, 81599, Note_on_c, 8, 70, 0
10, 81599, Note_on_c, 8, 73, 0
10, 81600, Note_on_c, 8, 71, 90
10, 81600, Note_on_c, 8, 74, 90
10, 81719, Note_on_c, 8, 74, 0
10, 81719, Note_on_c, 8, 71, 0
10, 81720, Note_on_c, 8, 71, 90
10, 81720, Note_on_c, 8, 74, 90
10, 81900, Note_on_c, 8, 74, 0
10, 81900, Note_on_c, 8, 71, 0
10, 81900, Note_on_c, 8, 73, 90
10, 81900, Note_on_c, 8, 76, 90
10, 81960, Note_on_c, 8, 76, 0
10, 81960, Note_on_c, 8, 73, 0
10, 81960, Note_on_c, 8, 70, 90
10, 81960, Note_on_c, 8, 73, 90
10, 82079, Note_on_c, 8, 73, 0
10, 82079, Note_on_c, 8, 70, 0
10, 82080, Note_on_c, 8, 71, 90
10, 82080, Note_on_c, 8, 74, 90
10, 82199, Note_on_c, 8, 74, 0
10, 82199, Note_on_c, 8, 71, 0
10, 82200, Note_on_c, 8, 73, 90
10, 82200, Note_on_c, 8, 70, 90
10, 82319, Note_on_c, 8, 70, 0
10, 82319, Note_on_c, 8, 73, 0
10, 82320, Note_on_c, 8, 62, 90
10, 82320, Note_on_c, 8, 66, 90
10, 82320, Note_on_c, 8, 71, 90
10, 82439, Note_on_c, 8, 71, 0
10, 82439, Note_on_c, 8, 66, 0
10, 82439, Note_on_c, 8, 62, 0
10, 82440, Note_on_c, 8, 66, 90
10, 82440, Note_on_c, 8, 62, 90
10, 82559, Note_on_c, 8, 62, 0
10, 82559, Note_on_c, 8, 66, 0
10, 82560, Note_on_c, 8, 64, 90
10, 82679, Note_on_c, 8, 64, 0
10, 82680, Note_on_c, 8, 61, 90
10, 82680, Note_on_c, 8, 64, 90
10, 82799, Note_on_c, 8, 64, 0
10, 82799, Note_on_c, 8, 61, 0
10, 82800, Note_on_c, 8, 69, 90
10, 82800, Note_on_c, 8, 64, 90
10, 82919, Note_on_c, 8, 64, 0
10, 82919, Note_on_c, 8, 69, 0
10, 82920, Note_on_c, 8, 73, 90
10, 82920, Note_on_c, 8, 69, 90
10, 83039, Note_on_c, 8, 69, 0
10, 83039, Note_on_c, 8, 73, 0
10, 83040, Note_on_c, 8, 69, 90
10, 83040, Note_on_c, 8, 74, 90
10, 83159, Note_on_c, 8, 74, 0
10, 83159, Note_on_c, 8, 69, 0
10, 83160, Note_on_c, 8, 66, 90
10, 83160, Note_on_c, 8, 69, 90
10, 83279, Note_on_c, 8, 69, 0
10, 83279, Note_on_c, 8, 66, 0
10, 83280, Note_on_c, 8, 62, 90
10, 83280, Note_on_c, 8, 66, 90
10, 83399, Note_on_c, 8, 66, 0
10, 83399, Note_on_c, 8, 62, 0
10, 83400, Note_on_c, 8, 61, 90
10, 83400, Note_on_c, 8, 64, 90
10, 83639, Note_on_c, 8, 64, 0
10, 83639, Note_on_c, 8, 61, 0
10, 83640, Note_on_c, 8, 61, 90
10, 83640, Note_on_c, 8, 64, 90
10, 83759, Note_on_c, 8, 64, 0
10, 83759, Note_on_c, 8, 61, 0
10, 83760, Note_on_c, 8, 62, 90
10, 83760, Note_on_c, 8, 66, 90
10, 83879, Note_on_c, 8, 66, 0
10, 83879, Note_on_c, 8, 62, 0
10, 83880, Note_on_c, 8, 66, 90
10, 83999, Note_on_c, 8, 66, 0
10, 84000, Note_on_c, 8, 62, 90
10, 84119, Note_on_c, 8, 62, 0
10, 84120, Note_on_c, 8, 58, 90
10, 84120, Note_on_c, 8, 61, 90
10, 84120, Note_on_c, 8, 66, 90
10, 84359, Note_on_c, 8, 66, 0
10, 84359, Note_on_c, 8, 61, 0
10, 84359, Note_on_c, 8, 58, 0
10, 84480, Note_on_c, 8, 74, 90
10, 84480, Note_on_c, 8, 71, 90
10, 84659, Note_on_c, 8, 71, 0
10, 84659, Note_on_c, 8, 74, 0
10, 84660, Note_on_c, 8, 61, 90
10, 84689, Note_on_c, 8, 61, 0
10, 84690, Note_on_c, 8, 62, 90
10, 84719, Note_on_c, 8, 62, 0
10, 84720, Note_on_c, 8, 61, 90
10, 84779, Note_on_c, 8, 61, 0
10, 84780, Note_on_c, 8, 62, 90
10, 84809, Note_on_c, 8, 62, 0
10, 84810, Note_on_c, 8, 64, 90
10, 84839, Note_on_c, 8, 64, 0
10, 84840, Note_on_c, 8, 69, 90
10, 84959, Note_on_c, 8, 69, 0
10, 84960, Note_on_c, 8, 66, 90
10, 85079, Note_on_c, 8, 66, 0
10, 85080, Note_on_c, 8, 64, 90
10, 85199, Note_on_c, 8, 64, 0
10, 85200, Note_on_c, 8, 62, 90
10, 85200, Note_on_c, 8, 66, 90
10, 85259, Note_on_c, 8, 66, 0
10, 85259, Note_on_c, 8, 62, 0
10, 85260, Note_on_c, 8, 62, 90
10, 85319, Note_on_c, 8, 62, 0
10, 85320, Note_on_c, 8, 64, 90
10, 85379, Note_on_c, 8, 64, 0
10, 85380, Note_on_c, 8, 61, 90
10, 85380, Note_on_c, 8, 76, 90
10, 85439, Note_on_c, 8, 76, 0
10, 85439, Note_on_c, 8, 61, 0
10, 85440, Note_on_c, 8, 62, 90
10, 85440, Note_on_c, 8, 74, 90
10, 85499, Note_on_c, 8, 74, 0
10, 85499, Note_on_c, 8, 62, 0
10, 85500, Note_on_c, 8, 64, 90
10, 85500, Note_on_c, 8, 73, 90
10, 85559, Note_on_c, 8, 73, 0
10, 85559, Note_on_c, 8, 64, 0
10, 85560, Note_on_c, 8, 71, 90
10, 85560, Note_on_c, 8, 66, 90
10, 85679, Note_on_c, 8, 66, 0
10, 85679, Note_on_c, 8, 71, 0
10, 85680, Note_on_c, 8, 64, 90
10, 85799, Note_on_c, 8, 64, 0
10, 85860, Note_on_c, 8, 64, 90
10, 85860, Note_on_c, 8, 73, 90
10, 85919, Note_on_c, 8, 73, 0
10, 85919, Note_on_c, 8, 64, 0
10, 85920, Note_on_c, 8, 64, 90
10, 85920, Note_on_c, 8, 70, 90
10, 86040, Note_on_c, 8, 70, 0
10, 86040, Note_on_c, 8, 64, 0
10, 86040, Note_on_c, 8, 62, 90
10, 86040, Note_on_c, 8, 70, 90
10, 86159, Note_on_c, 8, 62, 0
10, 86160, Note_on_c, 8, 61, 90
10, 86279, Note_on_c, 8, 61, 0
10, 86279, Note_on_c, 8, 70, 0
10, 86280, Note_on_c, 8, 71, 90
10, 86400, Note_on_c, 8, 71, 0
10, 86400, Note_on_c, 8, 71, 90
10, 86520, Note_on_c, 8, 71, 0
10, 86580, Note_on_c, 8, 76, 90
10, 86609, Note_on_c, 8, 76, 0
10, 86610, Note_on_c, 8, 74, 90
10, 86639, Note_on_c, 8, 74, 0
10, 86640, Note_on_c, 8, 73, 90
10, 86699, Note_on_c, 8, 73, 0
10, 86700, Note_on_c, 8, 70, 90
10, 86729, Note_on_c, 8, 70, 0
10, 86730, Note_on_c, 8, 71, 90
10, 86759, Note_on_c, 8, 71, 0
10, 86760, Note_on_c, 8, 70, 90
10, 86819, Note_on_c, 8, 70, 0
10, 86820, Note_on_c, 8, 68, 90
10, 86879, Note_on_c, 8, 68, 0
10, 86880, Note_on_c, 8, 66, 90
10, 86939, Note_on_c, 8, 66, 0
10, 86940, Note_on_c, 8, 64, 90
10, 86999, Note_on_c, 8, 64, 0
10, 87000, Note_on_c, 8, 66, 90
10, 87000, Note_on_c, 8, 62, 90
10, 87179, Note_on_c, 8, 62, 0
10, 87179, Note_on_c, 8, 66, 0
10, 87180, Note_on_c, 8, 66, 90
10, 87239, Note_on_c, 8, 66, 0
10, 87240, Note_on_c, 8, 67, 90
10, 87299, Note_on_c, 8, 67, 0
10, 87300, Note_on_c, 8, 69, 90
10, 87359, Note_on_c, 8, 69, 0
10, 87360, Note_on_c, 8, 73, 90
10, 87479, Note_on_c, 8, 73, 0
10, 87480, Note_on_c, 8, 70, 90
10, 87599, Note_on_c, 8, 70, 0
10, 87600, Note_on_c, 8, 73, 90
10, 87659, Note_on_c, 8, 73, 0
10, 87660, Note_on_c, 8, 74, 90
10, 87719, Note_on_c, 8, 74, 0
10, 87720, Note_on_c, 8, 71, 90
10, 87839, Note_on_c, 8, 71, 0
10, 87960, Note_on_c, 8, 71, 90
10, 87960, Note_on_c, 8, 76, 90
10, 88079, Note_on_c, 8, 76, 0
10, 88079, Note_on_c, 8, 71, 0
10, 88080, Note_on_c, 8, 70, 90
10, 88080, Note_on_c, 8, 73, 90
10, 88199, Note_on_c, 8, 73, 0
10, 88199, Note_on_c, 8, 70, 0
10, 88320, Note_on_c, 8, 71, 90
10, 88379, Note_on_c, 8, 71, 0
10, 88380, Note_on_c, 8, 70, 90
10, 88380, Note_on_c, 8, 73, 90
10, 88439, Note_on_c, 8, 73, 0
10, 88439, Note_on_c, 8, 70, 0
10, 88440, Note_on_c, 8, 71, 90
10, 88440, Note_on_c, 8, 74, 90
10, 88499, Note_on_c, 8, 74, 0
10, 88499, Note_on_c, 8, 71, 0
10, 88500, Note_on_c, 8, 73, 90
10, 88559, Note_on_c, 8, 73, 0
10, 88560, Note_on_c, 8, 71, 90
10, 88739, Note_on_c, 8, 71, 0
10, 88740, Note_on_c, 8, 76, 90
10, 88799, Note_on_c, 8, 76, 0
10, 88800, Note_on_c, 8, 73, 90
10, 88859, Note_on_c, 8, 73, 0
10, 88860, Note_on_c, 8, 71, 90
10, 88919, Note_on_c, 8, 71, 0
10, 88920, Note_on_c, 8, 73, 90
10, 89039, Note_on_c, 8, 73, 0
10, 89040, Note_on_c, 8, 70, 90
10, 89159, Note_on_c, 8, 70, 0
10, 89160, Note_on_c, 8, 62, 90
10, 89160, Note_on_c, 8, 66, 90
10, 89160, Note_on_c, 8, 71, 90
10, 89279, Note_on_c, 8, 71, 0
10, 89279, Note_on_c, 8, 66, 0
10, 89279, Note_on_c, 8, 62, 0
10, 89400, Note_on_c, 8, 64, 90
10, 89459, Note_on_c, 8, 64, 0
10, 89460, Note_on_c, 8, 67, 90
10, 89519, Note_on_c, 8, 67, 0
10, 97920, Note_on_c, 8, 61, 90
10, 97920, Note_on_c, 8, 69, 90
10, 97920, Note_on_c, 8, 64, 90
10, 98400, Note_on_c, 8, 64, 0
10, 98400, Note_on_c, 8, 69, 0
10, 98400, Note_on_c, 8, 61, 0
10, 98400, Note_on_c, 8, 62, 90
10, 98400, Note_on_c, 8, 69, 90
10, 98400, Note_on_c, 8, 66, 90
10, 98640, Note_on_c, 8, 66, 0
10, 98640, Note_on_c, 8, 69, 0
10, 98640, Note_on_c, 8, 62, 0
10, 98640, Note_on_c, 8, 66, 90
10, 98640, Note_on_c, 8, 69, 90
10, 98880, Note_on_c, 8, 69, 0
10, 98880, Note_on_c, 8, 66, 0
10, 98880, Note_on_c, 8, 62, 90
10, 98880, Note_on_c, 8, 66, 90
10, 98880, Note_on_c, 8, 71, 90
10, 99840, Note_on_c, 8, 71, 0
10, 99840, Note_on_c, 8, 66, 0
10, 99840, Note_on_c, 8, 62, 0
10, 99840, Note_on_c, 8, 64, 90
10, 99840, Note_on_c, 8, 71, 90
10, 99840, Note_on_c, 8, 68, 90
10, 100080, Note_on_c, 8, 68, 0
10, 100080, Note_on_c, 8, 71, 0
10, 100080, Note_on_c, 8, 64, 0
10, 100080, Note_on_c, 8, 61, 90
10, 100080, Note_on_c, 8, 64, 90
10, 100080, Note_on_c, 8, 69, 90
10, 100560, Note_on_c, 8, 69, 0
10, 100560, Note_on_c, 8, 64, 0
10, 100560, Note_on_c, 8, 61, 0
10, 100560, Note_on_c, 8, 69, 90
10, 100560, Note_on_c, 8, 62, 90
10, 100560, Note_on_c, 8, 66, 90
10, 100800, Note_on_c, 8, 66, 0
10, 100800, Note_on_c, 8, 62, 0
10, 100800, Note_on_c, 8, 69, 0
10, 100800, Note_on_c, 8, 62, 90
10, 100800, Note_on_c, 8, 71, 90
10, 100800, Note_on_c, 8, 67, 90
10, 101040, Note_on_c, 8, 67, 0
10, 101040, Note_on_c, 8, 71, 0
10, 101040, Note_on_c, 8, 62, 0
10, 101040, Note_on_c, 8, 67, 90
10, 101040, Note_on_c, 8, 64, 90
10, 101280, Note_on_c, 8, 64, 0
10, 101280, Note_on_c, 8, 67, 0
10, 101400, Note_on_c, 8, 69, 90
10, 101400, Note_on_c, 8, 66, 90
10, 101520, Note_on_c, 8, 66, 0
10, 101520, Note_on_c, 8, 69, 0
10, 101520, Note_on_c, 8, 71, 90
10, 101520, Note_on_c, 8, 62, 90
10, 101520, Note_on_c, 8, 67, 90
10, 101760, Note_on_c, 8, 67, 0
10, 101760, Note_on_c, 8, 62, 0
10, 101760, Note_on_c, 8, 71, 0
10, 116520, Note_on_c, 8, 63, 90
10, 116520, Note_on_c, 8, 71, 90
10, 116520, Note_on_c, 8, 66, 90
10, 117240, Note_on_c, 8, 66, 0
10, 117240, Note_on_c, 8, 71, 0
10, 117240, Note_on_c, 8, 63, 0
10, 117240, Note_on_c, 8, 71, 90
10, 117240, Note_on_c, 8, 64, 90
10, 117240, Note_on_c, 8, 67, 90
10, 117720, Note_on_c, 8, 67, 0
10, 117720, Note_on_c, 8, 64, 0
10, 117720, Note_on_c, 8, 71, 0
10, 117720, Note_on_c, 8, 59, 90
10, 117720, Note_on_c, 8, 64, 90
10, 117720, Note_on_c, 8, 67, 90
10, 117960, Note_on_c, 8, 67, 0
10, 117960, Note_on_c, 8, 64, 0
10, 117960, Note_on_c, 8, 59, 0
10, 117960, Note_on_c, 8, 68, 90
10, 117960, Note_on_c, 8, 62, 90
10, 117960, Note_on_c, 8, 65, 90
10, 118200, Note_on_c, 8, 65, 0
10, 118200, Note_on_c, 8, 62, 0
10, 118200, Note_on_c, 8, 68, 0
10, 118200, Note_on_c, 8, 69, 90
10, 118200, Note_on_c, 8, 60, 90
10, 118200, Note_on_c, 8, 64, 90
10, 118680, Note_on_c, 8, 64, 0
10, 118680, Note_on_c, 8, 60, 0
10, 118680, Note_on_c, 8, 69, 0
10, 118680, Note_on_c, 8, 60, 90
10, 118680, Note_on_c, 8, 67, 90
10, 118680, Note_on_c, 8, 64, 90
10, 119160, Note_on_c, 8, 64, 0
10, 119160, Note_on_c, 8, 67, 0
10, 119160, Note_on_c, 8, 60, 0
10, 119160, Note_on_c, 8, 62, 90
10, 119160, Note_on_c, 8, 69, 90
10, 119160, Note_on_c, 8, 65, 90
10, 119880, Note_on_c, 8, 65, 0
10, 119880, Note_on_c, 8, 69, 0
10, 119880, Note_on_c, 8, 62, 0
10, 119880, Note_on_c, 8, 69, 90
10, 119880, Note_on_c, 8, 66, 90
10, 119880, Note_on_c, 8, 62, 90
10, 120360, Note_on_c, 8, 62, 0
10, 120360, Note_on_c, 8, 66, 0
10, 120360, Note_on_c, 8, 69, 0
10, 120360, Note_on_c, 8, 69, 90
10, 120360, Note_on_c, 8, 62, 90
10, 120360, Note_on_c, 8, 66, 90
10, 120600, Note_on_c, 8, 66, 0
10, 120600, Note_on_c, 8, 62, 0
10, 120600, Note_on_c, 8, 69, 0
10, 120600, Note_on_c, 8, 70, 90
10, 120600, Note_on_c, 8, 62, 90
10, 120600, Note_on_c, 8, 67, 90
10, 120840, Note_on_c, 8, 67, 0
10, 120840, Note_on_c, 8, 62, 0
10, 120840, Note_on_c, 8, 70, 0
10, 120840, Note_on_c, 8, 70, 90
10, 120840, Note_on_c, 8, 61, 90
10, 120840, Note_on_c, 8, 64, 90
10, 121080, Note_on_c, 8, 64, 0
10, 121080, Note_on_c, 8, 61, 0
10, 121080, Note_on_c, 8, 70, 0
10, 121200, Note_on_c, 8, 67, 90
10, 121200, Note_on_c, 8, 61, 90
10, 121200, Note_on_c, 8, 64, 90
10, 121320, Note_on_c, 8, 64, 0
10, 121320, Note_on_c, 8, 61, 0
10, 121320, Note_on_c, 8, 67, 0
10, 121320, Note_on_c, 8, 65, 90
10, 121320, Note_on_c, 8, 69, 90
10, 121320, Note_on_c, 8, 62, 90
10, 121800, Note_on_c, 8, 62, 0
10, 121800, Note_on_c, 8, 69, 0
10, 121800, Note_on_c, 8, 65, 0
10, 121800, Note_on_c, 8, 62, 90
10, 121800, Note_on_c, 8, 58, 90
10, 121919, Note_on_c, 8, 58, 0
10, 121919, Note_on_c, 8, 62, 0
10, 122160, Note_on_c, 8, 58, 90
10, 122160, Note_on_c, 8, 62, 90
10, 122279, Note_on_c, 8, 62, 0
10, 122279, Note_on_c, 8, 58, 0
10, 122520, Note_on_c, 8, 67, 90
10, 122520, Note_on_c, 8, 63, 90
10, 122579, Note_on_c, 8, 63, 0
10, 122579, Note_on_c, 8, 67, 0
10, 122640, Note_on_c, 8, 62, 90
10, 122640, Note_on_c, 8, 65, 90
10, 122699, Note_on_c, 8, 65, 0
10, 122699, Note_on_c, 8, 62, 0
10, 122760, Note_on_c, 8, 69, 90
10, 122760, Note_on_c, 8, 60, 90
10, 122819, Note_on_c, 8, 60, 0
10, 122819, Note_on_c, 8, 69, 0
10, 122880, Note_on_c, 8, 62, 90
10, 122880, Note_on_c, 8, 70, 90
10, 122880, Note_on_c, 8, 65, 90
10, 122939, Note_on_c, 8, 65, 0
10, 122939, Note_on_c, 8, 70, 0
10, 122939, Note_on_c, 8, 62, 0
10, 123000, Note_on_c, 8, 69, 90
10, 123059, Note_on_c, 8, 69, 0
10, 123060, Note_on_c, 8, 67, 90
10, 123119, Note_on_c, 8, 67, 0
10, 123120, Note_on_c, 8, 65, 90
10, 123179, Note_on_c, 8, 65, 0
10, 123180, Note_on_c, 8, 63, 90
10, 123239, Note_on_c, 8, 63, 0
10, 123240, Note_on_c, 8, 62, 90
10, 123299, Note_on_c, 8, 62, 0
10, 123360, Note_on_c, 8, 65, 90
10, 123360, Note_on_c, 8, 62, 90
10, 123419, Note_on_c, 8, 62, 0
10, 123419, Note_on_c, 8, 65, 0
10, 123420, Note_on_c, 8, 62, 90
10, 123420, Note_on_c, 8, 65, 90
10, 123449, Note_on_c, 8, 65, 0
10, 123449, Note_on_c, 8, 62, 0
10, 123450, Note_on_c, 8, 62, 90
10, 123450, Note_on_c, 8, 65, 90
10, 123479, Note_on_c, 8, 65, 0
10, 123479, Note_on_c, 8, 62, 0
10, 123480, Note_on_c, 8, 62, 90
10, 123480, Note_on_c, 8, 65, 90
10, 123599, Note_on_c, 8, 65, 0
10, 123599, Note_on_c, 8, 62, 0
10, 123720, Note_on_c, 8, 65, 90
10, 123720, Note_on_c, 8, 62, 90
10, 123779, Note_on_c, 8, 62, 0
10, 123779, Note_on_c, 8, 65, 0
10, 123780, Note_on_c, 8, 65, 90
10, 123780, Note_on_c, 8, 62, 90
10, 123809, Note_on_c, 8, 62, 0
10, 123809, Note_on_c, 8, 65, 0
10, 123810, Note_on_c, 8, 65, 90
10, 123810, Note_on_c, 8, 62, 90
10, 123839, Note_on_c, 8, 62, 0
10, 123839, Note_on_c, 8, 65, 0
10, 123840, Note_on_c, 8, 62, 90
10, 123840, Note_on_c, 8, 65, 90
10, 123899, Note_on_c, 8, 65, 0
10, 123899, Note_on_c, 8, 62, 0
10, 123900, Note_on_c, 8, 63, 90
10, 123929, Note_on_c, 8, 63, 0
10, 123930, Note_on_c, 8, 65, 90
10, 123959, Note_on_c, 8, 65, 0
10, 123960, Note_on_c, 8, 63, 90
10, 123960, Note_on_c, 8, 67, 90
10, 124019, Note_on_c, 8, 67, 0
10, 124019, Note_on_c, 8, 63, 0
10, 124080, Note_on_c, 8, 62, 90
10, 124080, Note_on_c, 8, 65, 90
10, 124139, Note_on_c, 8, 65, 0
10, 124139, Note_on_c, 8, 62, 0
10, 124200, Note_on_c, 8, 60, 90
10, 124200, Note_on_c, 8, 63, 90
10, 124259, Note_on_c, 8, 63, 0
10, 124259, Note_on_c, 8, 60, 0
10, 124320, Note_on_c, 8, 58, 90
10, 124320, Note_on_c, 8, 62, 90
10, 124379, Note_on_c, 8, 62, 0
10, 124379, Note_on_c, 8, 58, 0
10, 124440, Note_on_c, 8, 57, 90
10, 124440, Note_on_c, 8, 60, 90
10, 124499, Note_on_c, 8, 60, 0
10, 124499, Note_on_c, 8, 57, 0
10, 124500, Note_on_c, 8, 60, 90
10, 124529, Note_on_c, 8, 60, 0
10, 124530, Note_on_c, 8, 60, 90
10, 124559, Note_on_c, 8, 60, 0
10, 124560, Note_on_c, 8, 60, 90
10, 124619, Note_on_c, 8, 60, 0
10, 124620, Note_on_c, 8, 60, 90
10, 124649, Note_on_c, 8, 60, 0
10, 124650, Note_on_c, 8, 60, 90
10, 124679, Note_on_c, 8, 60, 0
10, 124680, Note_on_c, 8, 60, 90
10, 124799, Note_on_c, 8, 60, 0
10, 124920, Note_on_c, 8, 69, 90
10, 124920, Note_on_c, 8, 65, 90
10, 124979, Note_on_c, 8, 65, 0
10, 124979, Note_on_c, 8, 69, 0
10, 124980, Note_on_c, 8, 69, 90
10, 124980, Note_on_c, 8, 65, 90
10, 125009, Note_on_c, 8, 65, 0
10, 125009, Note_on_c, 8, 69, 0
10, 125010, Note_on_c, 8, 69, 90
10, 125010, Note_on_c, 8, 65, 90
10, 125039, Note_on_c, 8, 65, 0
10, 125039, Note_on_c, 8, 69, 0
10, 125040, Note_on_c, 8, 62, 90
10, 125040, Note_on_c, 8, 65, 90
10, 125099, Note_on_c, 8, 65, 0
10, 125099, Note_on_c, 8, 62, 0
10, 125100, Note_on_c, 8, 62, 90
10, 125100, Note_on_c, 8, 65, 90
10, 125129, Note_on_c, 8, 65, 0
10, 125129, Note_on_c, 8, 62, 0
10, 125130, Note_on_c, 8, 62, 90
10, 125130, Note_on_c, 8, 65, 90
10, 125159, Note_on_c, 8, 65, 0
10, 125159, Note_on_c, 8, 62, 0
10, 125160, Note_on_c, 8, 60, 90
10, 125160, Note_on_c, 8, 65, 90
10, 125339, Note_on_c, 8, 65, 0
10, 125339, Note_on_c, 8, 60, 0
10, 125340, Note_on_c, 8, 69, 90
10, 125340, Note_on_c, 8, 65, 90
10, 125369, Note_on_c, 8, 65, 0
10, 125369, Note_on_c, 8, 69, 0
10, 125370, Note_on_c, 8, 69, 90
10, 125370, Note_on_c, 8, 65, 90
10, 125399, Note_on_c, 8, 65, 0
10, 125399, Note_on_c, 8, 69, 0
10, 125400, Note_on_c, 8, 60, 90
10, 125400, Note_on_c, 8, 65, 90
10, 125519, Note_on_c, 8, 65, 0
10, 125519, Note_on_c, 8, 60, 0
10, 125640, Note_on_c, 8, 69, 90
10, 125640, Note_on_c, 8, 65, 90
10, 125699, Note_on_c, 8, 65, 0
10, 125699, Note_on_c, 8, 69, 0
10, 125700, Note_on_c, 8, 65, 90
10, 125700, Note_on_c, 8, 69, 90
10, 125729, Note_on_c, 8, 69, 0
10, 125729, Note_on_c, 8, 65, 0
10, 125730, Note_on_c, 8, 65, 90
10, 125730, Note_on_c, 8, 69, 90
10, 125759, Note_on_c, 8, 69, 0
10, 125759, Note_on_c, 8, 65, 0
10, 125760, Note_on_c, 8, 62, 90
10, 125760, Note_on_c, 8, 65, 90
10, 125819, Note_on_c, 8, 65, 0
10, 125819, Note_on_c, 8, 62, 0
10, 125820, Note_on_c, 8, 65, 90
10, 125820, Note_on_c, 8, 62, 90
10, 125849, Note_on_c, 8, 62, 0
10, 125849, Note_on_c, 8, 65, 0
10, 125850, Note_on_c, 8, 65, 90
10, 125850, Note_on_c, 8, 62, 90
10, 125879, Note_on_c, 8, 62, 0
10, 125879, Note_on_c, 8, 65, 0
10, 125880, Note_on_c, 8, 65, 90
10, 125880, Note_on_c, 8, 69, 90
10, 126059, Note_on_c, 8, 69, 0
10, 126059, Note_on_c, 8, 65, 0
10, 126060, Note_on_c, 8, 63, 90
10, 126089, Note_on_c, 8, 63, 0
10, 126090, Note_on_c, 8, 65, 90
10, 126119, Note_on_c, 8, 65, 0
10, 126120, Note_on_c, 8, 58, 90
10, 126120, Note_on_c, 8, 62, 90
10, 126179, Note_on_c, 8, 62, 0
10, 126179, Note_on_c, 8, 58, 0
10, 126240, Note_on_c, 8, 64, 90
10, 126240, Note_on_c, 8, 67, 90
10, 126240, Note_on_c, 8, 60, 90
10, 126299, Note_on_c, 8, 60, 0
10, 126299, Note_on_c, 8, 67, 0
10, 126299, Note_on_c, 8, 64, 0
10, 126360, Note_on_c, 8, 65, 90
10, 126360, Note_on_c, 8, 60, 90
10, 126419, Note_on_c, 8, 60, 0
10, 126419, Note_on_c, 8, 65, 0
10, 126600, Note_on_c, 8, 65, 90
10, 126600, Note_on_c, 8, 69, 90
10, 126659, Note_on_c, 8, 69, 0
10, 126659, Note_on_c, 8, 65, 0
10, 126720, Note_on_c, 8, 69, 90
10, 126720, Note_on_c, 8, 72, 90
10, 126779, Note_on_c, 8, 72, 0
10, 126779, Note_on_c, 8, 69, 0
10, 126900, Note_on_c, 8, 69, 90
10, 126900, Note_on_c, 8, 65, 90
10, 126929, Note_on_c, 8, 65, 0
10, 126929, Note_on_c, 8, 69, 0
10, 126930, Note_on_c, 8, 69, 90
10, 126930, Note_on_c, 8, 65, 90
10, 126959, Note_on_c, 8, 65, 0
10, 126959, Note_on_c, 8, 69, 0
10, 126960, Note_on_c, 8, 65, 90
10, 126960, Note_on_c, 8, 69, 90
10, 127019, Note_on_c, 8, 69, 0
10, 127019, Note_on_c, 8, 65, 0
10, 127020, Note_on_c, 8, 69, 90
10, 127020, Note_on_c, 8, 65, 90
10, 127049, Note_on_c, 8, 65, 0
10, 127049, Note_on_c, 8, 69, 0
10, 127050, Note_on_c, 8, 69, 90
10, 127050, Note_on_c, 8, 65, 90
10, 127079, Note_on_c, 8, 65, 0
10, 127079, Note_on_c, 8, 69, 0
10, 127080, Note_on_c, 8, 65, 90
10, 127080, Note_on_c, 8, 69, 90
10, 127139, Note_on_c, 8, 69, 0
10, 127139, Note_on_c, 8, 65, 0
10, 127260, Note_on_c, 8, 69, 90
10, 127260, Note_on_c, 8, 65, 90
10, 127289, Note_on_c, 8, 65, 0
10, 127289, Note_on_c, 8, 69, 0
10, 127290, Note_on_c, 8, 69, 90
10, 127290, Note_on_c, 8, 65, 90
10, 127319, Note_on_c, 8, 65, 0
10, 127319, Note_on_c, 8, 69, 0
10, 127320, Note_on_c, 8, 65, 90
10, 127320, Note_on_c, 8, 69, 90
10, 127379, Note_on_c, 8, 69, 0
10, 127379, Note_on_c, 8, 65, 0
10, 127380, Note_on_c, 8, 69, 90
10, 127380, Note_on_c, 8, 65, 90
10, 127409, Note_on_c, 8, 65, 0
10, 127409, Note_on_c, 8, 69, 0
10, 127410, Note_on_c, 8, 69, 90
10, 127410, Note_on_c, 8, 65, 90
10, 127439, Note_on_c, 8, 65, 0
10, 127439, Note_on_c, 8, 69, 0
10, 127440, Note_on_c, 8, 65, 90
10, 127440, Note_on_c, 8, 69, 90
10, 127499, Note_on_c, 8, 69, 0
10, 127499, Note_on_c, 8, 65, 0
10, 127500, Note_on_c, 8, 63, 90
10, 127500, Note_on_c, 8, 67, 90
10, 127529, Note_on_c, 8, 67, 0
10, 127529, Note_on_c, 8, 63, 0
10, 127530, Note_on_c, 8, 65, 90
10, 127530, Note_on_c, 8, 69, 90
10, 127559, Note_on_c, 8, 69, 0
10, 127559, Note_on_c, 8, 65, 0
10, 127560, Note_on_c, 8, 74, 90
10, 127560, Note_on_c, 8, 70, 90
10, 127619, Note_on_c, 8, 70, 0
10, 127619, Note_on_c, 8, 74, 0
10, 127620, Note_on_c, 8, 69, 90
10, 127649, Note_on_c, 8, 69, 0
10, 127650, Note_on_c, 8, 67, 90
10, 127679, Note_on_c, 8, 67, 0
10, 127680, Note_on_c, 8, 65, 90
10, 127709, Note_on_c, 8, 65, 0
10, 127710, Note_on_c, 8, 63, 90
10, 127739, Note_on_c, 8, 63, 0
10, 127740, Note_on_c, 8, 62, 90
10, 127769, Note_on_c, 8, 62, 0
10, 127770, Note_on_c, 8, 60, 90
10, 127799, Note_on_c, 8, 60, 0
10, 127920, Note_on_c, 8, 69, 90
10, 127920, Note_on_c, 8, 65, 90
10, 128039, Note_on_c, 8, 65, 0
10, 128039, Note_on_c, 8, 69, 0
10, 128040, Note_on_c, 8, 65, 90
10, 128129, Note_on_c, 8, 65, 0
10, 128130, Note_on_c, 8, 67, 90
10, 128159, Note_on_c, 8, 67, 0
10, 128160, Note_on_c, 8, 69, 90
10, 128219, Note_on_c, 8, 69, 0
10, 128220, Note_on_c, 8, 65, 90
10, 128279, Note_on_c, 8, 65, 0
10, 128280, Note_on_c, 8, 70, 90
10, 128339, Note_on_c, 8, 70, 0
10, 128340, Note_on_c, 8, 74, 90
10, 128399, Note_on_c, 8, 74, 0
10, 128400, Note_on_c, 8, 69, 90
10, 128400, Note_on_c, 8, 65, 90
10, 128519, Note_on_c, 8, 65, 0
10, 128519, Note_on_c, 8, 69, 0
10, 128760, Note_on_c, 8, 65, 90
10, 128849, Note_on_c, 8, 65, 0
10, 128850, Note_on_c, 8, 67, 90
10, 128879, Note_on_c, 8, 67, 0
10, 128880, Note_on_c, 8, 69, 90
10, 128939, Note_on_c, 8, 69, 0
10, 128940, Note_on_c, 8, 65, 90
10, 128999, Note_on_c, 8, 65, 0
10, 129000, Note_on_c, 8, 62, 90
10, 129000, Note_on_c, 8, 70, 90
10, 129059, Note_on_c, 8, 70, 0
10, 129060, Note_on_c, 8, 65, 90
10, 129119, Note_on_c, 8, 65, 0
10, 129119, Note_on_c, 8, 62, 0
10, 129120, Note_on_c, 8, 60, 90
10, 129120, Note_on_c, 8, 65, 90
10, 129120, Note_on_c, 8, 69, 90
10, 129179, Note_on_c, 8, 69, 0
10, 129179, Note_on_c, 8, 65, 0
10, 129180, Note_on_c, 8, 67, 90
10, 129239, Note_on_c, 8, 67, 0
10, 129239, Note_on_c, 8, 60, 0
10, 129240, Note_on_c, 8, 65, 90
10, 129299, Note_on_c, 8, 65, 0
10, 129300, Note_on_c, 8, 63, 90
10, 129359, Note_on_c, 8, 63, 0
10, 129360, Note_on_c, 8, 62, 90
10, 129360, Note_on_c, 8, 65, 90
10, 129479, Note_on_c, 8, 65, 0
10, 129479, Note_on_c, 8, 62, 0
10, 129540, Note_on_c, 8, 74, 90
10, 129599, Note_on_c, 8, 74, 0
10, 129600, Note_on_c, 8, 72, 90
10, 129659, Note_on_c, 8, 72, 0
10, 129660, Note_on_c, 8, 70, 90
10, 129719, Note_on_c, 8, 70, 0
10, 129720, Note_on_c, 8, 67, 90
10, 129720, Note_on_c, 8, 70, 90
10, 129779, Note_on_c, 8, 70, 0
10, 129779, Note_on_c, 8, 67, 0
10, 129840, Note_on_c, 8, 69, 90
10, 129840, Note_on_c, 8, 72, 90
10, 130019, Note_on_c, 8, 72, 0
10, 130019, Note_on_c, 8, 69, 0
10, 130020, Note_on_c, 8, 70, 90
10, 130049, Note_on_c, 8, 70, 0
10, 130050, Note_on_c, 8, 72, 90
10, 130079, Note_on_c, 8, 72, 0
10, 130080, Note_on_c, 8, 74, 90
10, 130139, Note_on_c, 8, 74, 0
10, 130140, Note_on_c, 8, 70, 90
10, 130199, Note_on_c, 8, 70, 0
10, 130200, Note_on_c, 8, 77, 90
10, 130259, Note_on_c, 8, 77, 0
10, 130260, Note_on_c, 8, 79, 90
10, 130319, Note_on_c, 8, 79, 0
10, 130320, Note_on_c, 8, 77, 90
10, 130379, Note_on_c, 8, 77, 0
10, 130380, Note_on_c, 8, 75, 90
10, 130439, Note_on_c, 8, 75, 0
10, 130440, Note_on_c, 8, 74, 90
10, 130499, Note_on_c, 8, 74, 0
10, 130500, Note_on_c, 8, 74, 90
10, 130559, Note_on_c, 8, 74, 0
10, 130560, Note_on_c, 8, 72, 90
10, 130619, Note_on_c, 8, 72, 0
10, 130620, Note_on_c, 8, 70, 90
10, 130679, Note_on_c, 8, 70, 0
10, 130680, Note_on_c, 8, 69, 90
10, 130739, Note_on_c, 8, 69, 0
10, 130740, Note_on_c, 8, 65, 90
10, 130799, Note_on_c, 8, 65, 0
10, 130800, Note_on_c, 8, 65, 90
10, 130800, Note_on_c, 8, 70, 90
10, 130919, Note_on_c, 8, 70, 0
10, 130919, Note_on_c, 8, 65, 0
10, 130920, Note_on_c, 8, 58, 90
10, 131159, Note_on_c, 8, 58, 0
10, 131280, Note_on_c, 8, 60, 90
10, 131295, Note_on_c, 8, 64, 90
10, 131310, Note_on_c, 8, 67, 90
10, 131325, Note_on_c, 8, 72, 90
10, 131759, Note_on_c, 8, 72, 0
10, 131759, Note_on_c, 8, 60, 0
10, 131759, Note_on_c, 8, 64, 0
10, 131759, Note_on_c, 8, 67, 0
10, 131760, Note_on_c, 8, 61, 90
10, 131760, Note_on_c, 8, 69, 90
10, 131760, Note_on_c, 8, 64, 90
10, 132239, Note_on_c, 8, 64, 0
10, 132239, Note_on_c, 8, 69, 0
10, 132239, Note_on_c, 8, 61, 0
10, 132240, Note_on_c, 8, 72, 90
10, 132240, Note_on_c, 8, 62, 90
10, 132240, Note_on_c, 8, 69, 90
10, 132240, Note_on_c, 8, 66, 90
10, 132719, Note_on_c, 8, 66, 0
10, 132719, Note_on_c, 8, 72, 0
10, 132719, Note_on_c, 8, 62, 0
10, 132719, Note_on_c, 8, 69, 0
10, 132720, Note_on_c, 8, 62, 90
10, 132720, Note_on_c, 8, 67, 90
10, 132720, Note_on_c, 8, 71, 90
10, 133440, Note_on_c, 8, 71, 0
10, 133440, Note_on_c, 8, 67, 0
10, 133440, Note_on_c, 8, 62, 0
10, 133440, Note_on_c, 8, 61, 90
10, 133440, Note_on_c, 8, 64, 90
10, 133440, Note_on_c, 8, 69, 90
10, 133679, Note_on_c, 8, 69, 0
10, 133679, Note_on_c, 8, 64, 0
10, 133679, Note_on_c, 8, 61, 0
10, 133680, Note_on_c, 8, 62, 90
10, 133680, Note_on_c, 8, 69, 90
10, 133680, Note_on_c, 8, 66, 90
10, 133799, Note_on_c, 8, 66, 0
10, 133799, Note_on_c, 8, 69, 0
10, 133799, Note_on_c, 8, 62, 0
10, 133800, Note_on_c, 8, 71, 90
10, 133800, Note_on_c, 8, 62, 90
10, 133800, Note_on_c, 8, 67, 90
10, 133919, Note_on_c, 8, 67, 0
10, 133919, Note_on_c, 8, 62, 0
10, 133919, Note_on_c, 8, 71, 0
10, 134040, Note_on_c, 8, 69, 90
10, 134040, Note_on_c, 8, 61, 90
10, 134040, Note_on_c, 8, 64, 90
10, 134159, Note_on_c, 8, 64, 0
10, 134159, Note_on_c, 8, 61, 0
10, 134159, Note_on_c, 8, 69, 0
10, 134160, Note_on_c, 8, 62, 90
10, 134160, Note_on_c, 8, 66, 90
10, 134160, Note_on_c, 8, 69, 90
10, 134639, Note_on_c, 8, 69, 0
10, 134639, Note_on_c, 8, 66, 0
10, 134639, Note_on_c, 8, 62, 0
10, 134760, Note_on_c, 8, 61, 90
10, 134760, Note_on_c, 8, 64, 90
10, 134760, Note_on_c, 8, 69, 90
10, 134880, Note_on_c, 8, 69, 0
10, 134880, Note_on_c, 8, 64, 0
10, 134880, Note_on_c, 8, 61, 0
10, 134880, Note_on_c, 8, 64, 90
10, 134880, Note_on_c, 8, 68, 90
10, 134939, Note_on_c, 8, 68, 0
10, 134939, Note_on_c, 8, 64, 0
10, 134940, Note_on_c, 8, 61, 90
10, 134940, Note_on_c, 8, 64, 90
10, 134940, Note_on_c, 8, 69, 90
10, 135060, Note_on_c, 8, 69, 0
10, 135060, Note_on_c, 8, 64, 0
10, 135060, Note_on_c, 8, 61, 0
10, 135120, Note_on_c, 8, 71, 90
10, 135120, Note_on_c, 8, 64, 90
10, 135120, Note_on_c, 8, 68, 90
10, 135239, Note_on_c, 8, 68, 0
10, 135239, Note_on_c, 8, 64, 0
10, 135239, Note_on_c, 8, 71, 0
10, 135240, Note_on_c, 8, 69, 90
10, 135240, Note_on_c, 8, 64, 90
10, 135299, Note_on_c, 8, 64, 0
10, 135299, Note_on_c, 8, 69, 0
10, 135300, Note_on_c, 8, 71, 90
10, 135300, Note_on_c, 8, 74, 90
10, 135419, Note_on_c, 8, 74, 0
10, 135419, Note_on_c, 8, 71, 0
10, 135420, Note_on_c, 8, 69, 90
10, 135420, Note_on_c, 8, 73, 90
10, 135420, Note_on_c, 8, 64, 90
10, 135479, Note_on_c, 8, 64, 0
10, 135479, Note_on_c, 8, 73, 0
10, 135479, Note_on_c, 8, 69, 0
10, 135480, Note_on_c, 8, 64, 90
10, 135480, Note_on_c, 8, 69, 90
10, 135599, Note_on_c, 8, 69, 0
10, 135599, Note_on_c, 8, 64, 0
10, 135600, Note_on_c, 8, 64, 90
10, 135600, Note_on_c, 8, 68, 90
10, 135659, Note_on_c, 8, 68, 0
10, 135659, Note_on_c, 8, 64, 0
10, 135660, Note_on_c, 8, 69, 90
10, 135660, Note_on_c, 8, 64, 90
10, 135719, Note_on_c, 8, 69, 0
10, 135720, Note_on_c, 8, 74, 90
10, 135749, Note_on_c, 8, 74, 0
10, 135750, Note_on_c, 8, 73, 90
10, 135779, Note_on_c, 8, 73, 0
10, 135779, Note_on_c, 8, 64, 0
10, 135780, Note_on_c, 8, 71, 90
10, 135809, Note_on_c, 8, 71, 0
10, 135810, Note_on_c, 8, 69, 90
10, 135839, Note_on_c, 8, 69, 0
10, 135840, Note_on_c, 8, 68, 90
10, 135840, Note_on_c, 8, 71, 90
10, 135960, Note_on_c, 8, 71, 0
10, 135960, Note_on_c, 8, 68, 0
10, 135960, Note_on_c, 8, 73, 90
10, 135960, Note_on_c, 8, 69, 90
10, 136019, Note_on_c, 8, 69, 0
10, 136019, Note_on_c, 8, 73, 0
10, 136020, Note_on_c, 8, 71, 90
10, 136020, Note_on_c, 8, 68, 90
10, 136140, Note_on_c, 8, 68, 0
10, 136140, Note_on_c, 8, 71, 0
10, 136200, Note_on_c, 8, 69, 90
10, 136200, Note_on_c, 8, 64, 90
10, 136319, Note_on_c, 8, 64, 0
10, 136319, Note_on_c, 8, 69, 0
10, 136320, Note_on_c, 8, 68, 90
10, 136320, Note_on_c, 8, 62, 90
10, 136379, Note_on_c, 8, 62, 0
10, 136379, Note_on_c, 8, 68, 0
10, 136380, Note_on_c, 8, 69, 90
10, 136380, Note_on_c, 8, 64, 90
10, 136499, Note_on_c, 8, 64, 0
10, 136499, Note_on_c, 8, 69, 0
10, 136500, Note_on_c, 8, 64, 90
10, 136500, Note_on_c, 8, 68, 90
10, 136559, Note_on_c, 8, 68, 0
10, 136559, Note_on_c, 8, 64, 0
10, 136560, Note_on_c, 8, 64, 90
10, 136560, Note_on_c, 8, 68, 90
10, 136679, Note_on_c, 8, 68, 0
10, 136679, Note_on_c, 8, 64, 0
10, 136680, Note_on_c, 8, 69, 90
10, 136680, Note_on_c, 8, 64, 90
10, 136739, Note_on_c, 8, 64, 0
10, 136739, Note_on_c, 8, 69, 0
10, 136740, Note_on_c, 8, 66, 90
10, 136740, Note_on_c, 8, 71, 90
10, 136799, Note_on_c, 8, 66, 0
10, 136800, Note_on_c, 8, 64, 90
10, 136859, Note_on_c, 8, 64, 0
10, 136859, Note_on_c, 8, 71, 0
10, 136980, Note_on_c, 8, 73, 90
10, 136980, Note_on_c, 8, 69, 90
10, 137039, Note_on_c, 8, 69, 0
10, 137039, Note_on_c, 8, 73, 0
10, 137040, Note_on_c, 8, 71, 90
10, 137040, Note_on_c, 8, 68, 90
10, 137099, Note_on_c, 8, 68, 0
10, 137099, Note_on_c, 8, 71, 0
10, 137160, Note_on_c, 8, 74, 90
10, 137160, Note_on_c, 8, 68, 90
10, 137219, Note_on_c, 8, 68, 0
10, 137219, Note_on_c, 8, 74, 0
10, 137220, Note_on_c, 8, 76, 90
10, 137220, Note_on_c, 8, 69, 90
10, 137279, Note_on_c, 8, 69, 0
10, 137279, Note_on_c, 8, 76, 0
10, 137340, Note_on_c, 8, 68, 90
10, 137340, Note_on_c, 8, 71, 90
10, 137399, Note_on_c, 8, 71, 0
10, 137399, Note_on_c, 8, 68, 0
10, 137400, Note_on_c, 8, 64, 90
10, 137400, Note_on_c, 8, 69, 90
10, 137459, Note_on_c, 8, 69, 0
10, 137459, Note_on_c, 8, 64, 0
10, 137460, Note_on_c, 8, 64, 90
10, 137460, Note_on_c, 8, 68, 90
10, 137639, Note_on_c, 8, 68, 0
10, 137639, Note_on_c, 8, 64, 0
10, 137640, Note_on_c, 8, 64, 90
10, 137699, Note_on_c, 8, 64, 0
10, 137700, Note_on_c, 8, 62, 90
10, 137759, Note_on_c, 8, 62, 0
10, 137760, Note_on_c, 8, 61, 90
10, 137819, Note_on_c, 8, 61, 0
10, 137820, Note_on_c, 8, 69, 90
10, 137879, Note_on_c, 8, 69, 0
10, 137880, Note_on_c, 8, 66, 90
10, 137939, Note_on_c, 8, 66, 0
10, 137940, Note_on_c, 8, 64, 90
10, 137999, Note_on_c, 8, 64, 0
10, 138000, Note_on_c, 8, 62, 90
10, 138059, Note_on_c, 8, 62, 0
10, 138060, Note_on_c, 8, 64, 90
10, 138119, Note_on_c, 8, 64, 0
10, 138120, Note_on_c, 8, 66, 90
10, 138179, Note_on_c, 8, 66, 0
10, 138180, Note_on_c, 8, 68, 90
10, 138239, Note_on_c, 8, 68, 0
10, 138240, Note_on_c, 8, 69, 90
10, 138299, Note_on_c, 8, 69, 0
10, 138300, Note_on_c, 8, 64, 90
10, 138300, Note_on_c, 8, 71, 90
10, 138359, Note_on_c, 8, 71, 0
10, 138359, Note_on_c, 8, 64, 0
10, 138360, Note_on_c, 8, 69, 90
10, 138360, Note_on_c, 8, 64, 90
10, 138419, Note_on_c, 8, 64, 0
10, 138419, Note_on_c, 8, 69, 0
10, 138420, Note_on_c, 8, 68, 90
10, 138420, Note_on_c, 8, 64, 90
10, 138479, Note_on_c, 8, 64, 0
10, 138479, Note_on_c, 8, 68, 0
10, 138480, Note_on_c, 8, 69, 90
10, 138480, Note_on_c, 8, 64, 90
10, 138539, Note_on_c, 8, 64, 0
10, 138539, Note_on_c, 8, 69, 0
10, 138540, Note_on_c, 8, 71, 90
10, 138540, Note_on_c, 8, 68, 90
10, 138599, Note_on_c, 8, 68, 0
10, 138599, Note_on_c, 8, 71, 0
10, 138600, Note_on_c, 8, 69, 90
10, 138659, Note_on_c, 8, 69, 0
10, 138660, Note_on_c, 8, 74, 90
10, 138660, Note_on_c, 8, 68, 90
10, 138719, Note_on_c, 8, 68, 0
10, 138719, Note_on_c, 8, 74, 0
10, 138720, Note_on_c, 8, 69, 90
10, 138720, Note_on_c, 8, 76, 90
10, 138779, Note_on_c, 8, 76, 0
10, 138779, Note_on_c, 8, 69, 0
10, 138780, Note_on_c, 8, 66, 90
10, 138780, Note_on_c, 8, 71, 90
10, 138839, Note_on_c, 8, 71, 0
10, 138839, Note_on_c, 8, 66, 0
10, 138840, Note_on_c, 8, 68, 90
10, 138840, Note_on_c, 8, 64, 90
10, 138899, Note_on_c, 8, 64, 0
10, 138899, Note_on_c, 8, 68, 0
10, 138900, Note_on_c, 8, 69, 90
10, 138900, Note_on_c, 8, 64, 90
10, 139079, Note_on_c, 8, 64, 0
10, 139079, Note_on_c, 8, 69, 0
10, 139140, Note_on_c, 8, 69, 90
10, 139140, Note_on_c, 8, 62, 90
10, 139199, Note_on_c, 8, 62, 0
10, 139199, Note_on_c, 8, 69, 0
10, 139200, Note_on_c, 8, 67, 90
10, 139200, Note_on_c, 8, 64, 90
10, 139259, Note_on_c, 8, 64, 0
10, 139259, Note_on_c, 8, 67, 0
10, 139260, Note_on_c, 8, 69, 90
10, 139260, Note_on_c, 8, 62, 90
10, 139319, Note_on_c, 8, 62, 0
10, 139319, Note_on_c, 8, 69, 0
10, 139500, Note_on_c, 8, 68, 90
10, 139500, Note_on_c, 8, 64, 90
10, 139559, Note_on_c, 8, 64, 0
10, 139559, Note_on_c, 8, 68, 0
10, 139560, Note_on_c, 8, 62, 90
10, 139560, Note_on_c, 8, 66, 90
10, 139619, Note_on_c, 8, 66, 0
10, 139619, Note_on_c, 8, 62, 0
10, 139620, Note_on_c, 8, 68, 90
10, 139620, Note_on_c, 8, 64, 90
10, 139679, Note_on_c, 8, 64, 0
10, 139679, Note_on_c, 8, 68, 0
10, 139860, Note_on_c, 8, 71, 90
10, 139860, Note_on_c, 8, 68, 90
10, 139919, Note_on_c, 8, 68, 0
10, 139919, Note_on_c, 8, 71, 0
10, 139920, Note_on_c, 8, 73, 90
10, 139920, Note_on_c, 8, 69, 90
10, 139979, Note_on_c, 8, 69, 0
10, 139979, Note_on_c, 8, 73, 0
10, 140040, Note_on_c, 8, 64, 90
10, 140040, Note_on_c, 8, 71, 90
10, 140099, Note_on_c, 8, 71, 0
10, 140099, Note_on_c, 8, 64, 0
10, 140100, Note_on_c, 8, 62, 90
10, 140100, Note_on_c, 8, 64, 90
10, 140159, Note_on_c, 8, 64, 0
10, 140159, Note_on_c, 8, 62, 0
10, 140220, Note_on_c, 8, 69, 90
10, 140220, Note_on_c, 8, 66, 90
10, 140279, Note_on_c, 8, 66, 0
10, 140279, Note_on_c, 8, 69, 0
10, 140280, Note_on_c, 8, 71, 90
10, 140280, Note_on_c, 8, 68, 90
10, 140339, Note_on_c, 8, 68, 0
10, 140339, Note_on_c, 8, 71, 0
10, 140340, Note_on_c, 8, 73, 90
10, 140340, Note_on_c, 8, 69, 90
10, 140459, Note_on_c, 8, 69, 0
10, 140459, Note_on_c, 8, 73, 0
10, 160680, Note_on_c, 8, 61, 90
10, 160680, Note_on_c, 8, 64, 90
10, 160680, Note_on_c, 8, 69, 90
10, 160800, Note_on_c, 8, 69, 0
10, 160800, Note_on_c, 8, 64, 0
10, 160800, Note_on_c, 8, 61, 0
10, 160800, Note_on_c, 8, 64, 90
10, 160800, Note_on_c, 8, 68, 90
10, 160859, Note_on_c, 8, 68, 0
10, 160859, Note_on_c, 8, 64, 0
10, 160860, Note_on_c, 8, 61, 90
10, 160860, Note_on_c, 8, 64, 90
10, 160860, Note_on_c, 8, 69, 90
10, 160980, Note_on_c, 8, 69, 0
10, 160980, Note_on_c, 8, 64, 0
10, 160980, Note_on_c, 8, 61, 0
10, 161040, Note_on_c, 8, 71, 90
10, 161040, Note_on_c, 8, 64, 90
10, 161040, Note_on_c, 8, 68, 90
10, 161159, Note_on_c, 8, 68, 0
10, 161159, Note_on_c, 8, 64, 0
10, 161159, Note_on_c, 8, 71, 0
10, 161160, Note_on_c, 8, 69, 90
10, 161160, Note_on_c, 8, 64, 90
10, 161219, Note_on_c, 8, 64, 0
10, 161219, Note_on_c, 8, 69, 0
10, 161220, Note_on_c, 8, 71, 90
10, 161220, Note_on_c, 8, 74, 90
10, 161339, Note_on_c, 8, 74, 0
10, 161339, Note_on_c, 8, 71, 0
10, 161340, Note_on_c, 8, 69, 90
10, 161340, Note_on_c, 8, 73, 90
10, 161340, Note_on_c, 8, 64, 90
10, 161399, Note_on_c, 8, 64, 0
10, 161399, Note_on_c, 8, 73, 0
10, 161399, Note_on_c, 8, 69, 0
10, 161400, Note_on_c, 8, 64, 90
10, 161400, Note_on_c, 8, 69, 90
10, 161519, Note_on_c, 8, 69, 0
10, 161519, Note_on_c, 8, 64, 0
10, 161520, Note_on_c, 8, 64, 90
10, 161520, Note_on_c, 8, 68, 90
10, 161579, Note_on_c, 8, 68, 0
10, 161579, Note_on_c, 8, 64, 0
10, 161580, Note_on_c, 8, 69, 90
10, 161580, Note_on_c, 8, 64, 90
10, 161639, Note_on_c, 8, 69, 0
10, 161640, Note_on_c, 8, 74, 90
10, 161669, Note_on_c, 8, 74, 0
10, 161670, Note_on_c, 8, 73, 90
10, 161699, Note_on_c, 8, 73, 0
10, 161699, Note_on_c, 8, 64, 0
10, 161700, Note_on_c, 8, 71, 90
10, 161729, Note_on_c, 8, 71, 0
10, 161730, Note_on_c, 8, 69, 90
10, 161759, Note_on_c, 8, 69, 0
10, 161760, Note_on_c, 8, 68, 90
10, 161760, Note_on_c, 8, 71, 90
10, 161880, Note_on_c, 8, 71, 0
10, 161880, Note_on_c, 8, 68, 0
10, 161880, Note_on_c, 8, 73, 90
10, 161880, Note_on_c, 8, 69, 90
10, 161939, Note_on_c, 8, 69, 0
10, 161939, Note_on_c, 8, 73, 0
10, 161940, Note_on_c, 8, 71, 90
10, 161940, Note_on_c, 8, 68, 90
10, 162060, Note_on_c, 8, 68, 0
10, 162060, Note_on_c, 8, 71, 0
10, 162120, Note_on_c, 8, 69, 90
10, 162120, Note_on_c, 8, 64, 90
10, 162239, Note_on_c, 8, 64, 0
10, 162239, Note_on_c, 8, 69, 0
10, 162240, Note_on_c, 8, 68, 90
10, 162240, Note_on_c, 8, 62, 90
10, 162299, Note_on_c, 8, 62, 0
10, 162299, Note_on_c, 8, 68, 0
10, 162300, Note_on_c, 8, 69, 90
10, 162300, Note_on_c, 8, 64, 90
10, 162419, Note_on_c, 8, 64, 0
10, 162419, Note_on_c, 8, 69, 0
10, 162420, Note_on_c, 8, 64, 90
10, 162420, Note_on_c, 8, 68, 90
10, 162479, Note_on_c, 8, 68, 0
10, 162479, Note_on_c, 8, 64, 0
10, 162480, Note_on_c, 8, 64, 90
10, 162480, Note_on_c, 8, 68, 90
10, 162599, Note_on_c, 8, 68, 0
10, 162599, Note_on_c, 8, 64, 0
10, 162600, Note_on_c, 8, 69, 90
10, 162600, Note_on_c, 8, 64, 90
10, 162659, Note_on_c, 8, 64, 0
10, 162659, Note_on_c, 8, 69, 0
10, 162660, Note_on_c, 8, 66, 90
10, 162660, Note_on_c, 8, 71, 90
10, 162719, Note_on_c, 8, 66, 0
10, 162720, Note_on_c, 8, 64, 90
10, 162779, Note_on_c, 8, 64, 0
10, 162779, Note_on_c, 8, 71, 0
10, 162900, Note_on_c, 8, 73, 90
10, 162900, Note_on_c, 8, 69, 90
10, 162959, Note_on_c, 8, 69, 0
10, 162959, Note_on_c, 8, 73, 0
10, 162960, Note_on_c, 8, 71, 90
10, 162960, Note_on_c, 8, 68, 90
10, 163019, Note_on_c, 8, 68, 0
10, 163019, Note_on_c, 8, 71, 0
10, 163080, Note_on_c, 8, 74, 90
10, 163080, Note_on_c, 8, 68, 90
10, 163139, Note_on_c, 8, 68, 0
10, 163139, Note_on_c, 8, 74, 0
10, 163140, Note_on_c, 8, 76, 90
10, 163140, Note_on_c, 8, 69, 90
10, 163199, Note_on_c, 8, 69, 0
10, 163199, Note_on_c, 8, 76, 0
10, 163260, Note_on_c, 8, 68, 90
10, 163260, Note_on_c, 8, 71, 90
10, 163319, Note_on_c, 8, 71, 0
10, 163319, Note_on_c, 8, 68, 0
10, 163320, Note_on_c, 8, 64, 90
10, 163320, Note_on_c, 8, 69, 90
10, 163379, Note_on_c, 8, 69, 0
10, 163379, Note_on_c, 8, 64, 0
10, 163380, Note_on_c, 8, 64, 90
10, 163380, Note_on_c, 8, 68, 90
10, 163559, Note_on_c, 8, 68, 0
10, 163559, Note_on_c, 8, 64, 0
10, 163560, Note_on_c, 8, 64, 90
10, 163619, Note_on_c, 8, 64, 0
10, 163620, Note_on_c, 8, 62, 90
10, 163679, Note_on_c, 8, 62, 0
10, 163680, Note_on_c, 8, 61, 90
10, 163739, Note_on_c, 8, 61, 0
10, 163740, Note_on_c, 8, 69, 90
10, 163799, Note_on_c, 8, 69, 0
10, 163800, Note_on_c, 8, 66, 90
10, 163859, Note_on_c, 8, 66, 0
10, 163860, Note_on_c, 8, 64, 90
10, 163919, Note_on_c, 8, 64, 0
10, 163920, Note_on_c, 8, 62, 90
10, 163979, Note_on_c, 8, 62, 0
10, 163980, Note_on_c, 8, 64, 90
10, 164039, Note_on_c, 8, 64, 0
10, 164040, Note_on_c, 8, 66, 90
10, 164099, Note_on_c, 8, 66, 0
10, 164100, Note_on_c, 8, 68, 90
10, 164159, Note_on_c, 8, 68, 0
10, 164160, Note_on_c, 8, 69, 90
10, 164219, Note_on_c, 8, 69, 0
10, 164220, Note_on_c, 8, 64, 90
10, 164220, Note_on_c, 8, 71, 90
10, 164279, Note_on_c, 8, 71, 0
10, 164279, Note_on_c, 8, 64, 0
10, 164280, Note_on_c, 8, 69, 90
10, 164280, Note_on_c, 8, 64, 90
10, 164339, Note_on_c, 8, 64, 0
10, 164339, Note_on_c, 8, 69, 0
10, 164340, Note_on_c, 8, 68, 90
10, 164340, Note_on_c, 8, 64, 90
10, 164399, Note_on_c, 8, 64, 0
10, 164399, Note_on_c, 8, 68, 0
10, 164400, Note_on_c, 8, 69, 90
10, 164400, Note_on_c, 8, 64, 90
10, 164459, Note_on_c, 8, 64, 0
10, 164459, Note_on_c, 8, 69, 0
10, 164460, Note_on_c, 8, 71, 90
10, 164460, Note_on_c, 8, 68, 90
10, 164519, Note_on_c, 8, 68, 0
10, 164519, Note_on_c, 8, 71, 0
10, 164520, Note_on_c, 8, 69, 90
10, 164579, Note_on_c, 8, 69, 0
10, 164580, Note_on_c, 8, 74, 90
10, 164580, Note_on_c, 8, 68, 90
10, 164639, Note_on_c, 8, 68, 0
10, 164639, Note_on_c, 8, 74, 0
10, 164640, Note_on_c, 8, 69, 90
10, 164640, Note_on_c, 8, 76, 90
10, 164699, Note_on_c, 8, 76, 0
10, 164699, Note_on_c, 8, 69, 0
10, 164700, Note_on_c, 8, 66, 90
10, 164700, Note_on_c, 8, 71, 90
10, 164759, Note_on_c, 8, 71, 0
10, 164759, Note_on_c, 8, 66, 0
10, 164760, Note_on_c, 8, 68, 90
10, 164760, Note_on_c, 8, 64, 90
10, 164819, Note_on_c, 8, 64, 0
10, 164819, Note_on_c, 8, 68, 0
10, 164820, Note_on_c, 8, 69, 90
10, 164820, Note_on_c, 8, 64, 90
10, 164999, Note_on_c, 8, 64, 0
10, 164999, Note_on_c, 8, 69, 0
10, 165060, Note_on_c, 8, 69, 90
10, 165060, Note_on_c, 8, 62, 90
10, 165119, Note_on_c, 8, 62, 0
10, 165119, Note_on_c, 8, 69, 0
10, 165120, Note_on_c, 8, 67, 90
10, 165120, Note_on_c, 8, 64, 90
10, 165179, Note_on_c, 8, 64, 0
10, 165179, Note_on_c, 8, 67, 0
10, 165180, Note_on_c, 8, 69, 90
10, 165180, Note_on_c, 8, 62, 90
10, 165239, Note_on_c, 8, 62, 0
10, 165239, Note_on_c, 8, 69, 0
10, 165420, Note_on_c, 8, 68, 90
10, 165420, Note_on_c, 8, 64, 90
10, 165479, Note_on_c, 8, 64, 0
10, 165479, Note_on_c, 8, 68, 0
10, 165480, Note_on_c, 8, 62, 90
10, 165480, Note_on_c, 8, 66, 90
10, 165539, Note_on_c, 8, 66, 0
10, 165539, Note_on_c, 8, 62, 0
10, 165540, Note_on_c, 8, 68, 90
10, 165540, Note_on_c, 8, 64, 90
10, 165599, Note_on_c, 8, 64, 0
10, 165599, Note_on_c, 8, 68, 0
10, 165780, Note_on_c, 8, 71, 90
10, 165780, Note_on_c, 8, 68, 90
10, 165839, Note_on_c, 8, 68, 0
10, 165839, Note_on_c, 8, 71, 0
10, 165840, Note_on_c, 8, 73, 90
10, 165840, Note_on_c, 8, 69, 90
10, 165899, Note_on_c, 8, 69, 0
10, 165899, Note_on_c, 8, 73, 0
10, 165960, Note_on_c, 8, 64, 90
10, 165960, Note_on_c, 8, 71, 90
10, 166019, Note_on_c, 8, 71, 0
10, 166019, Note_on_c, 8, 64, 0
10, 166020, Note_on_c, 8, 62, 90
10, 166020, Note_on_c, 8, 64, 90
10, 166079, Note_on_c, 8, 64, 0
10, 166079, Note_on_c, 8, 62, 0
10, 166140, Note_on_c, 8, 69, 90
10, 166140, Note_on_c, 8, 66, 90
10, 166199, Note_on_c, 8, 66, 0
10, 166199, Note_on_c, 8, 69, 0
10, 166200, Note_on_c, 8, 71, 90
10, 166200, Note_on_c, 8, 68, 90
10, 166259, Note_on_c, 8, 68, 0
10, 166259, Note_on_c, 8, 71, 0
10, 166260, Note_on_c, 8, 73, 90
10, 166260, Note_on_c, 8, 69, 90
10, 166379, Note_on_c, 8, 69, 0
10, 166379, Note_on_c, 8, 73, 0
10, 177960, Note_on_c, 8, 69, 90
10, 177960, Note_on_c, 8, 62, 90
10, 177960, Note_on_c, 8, 66, 90
10, 178440, Note_on_c, 8, 66, 0
10, 178440, Note_on_c, 8, 62, 0
10, 178440, Note_on_c, 8, 69, 0
10, 178440, Note_on_c, 8, 63, 90
10, 178440, Note_on_c, 8, 69, 90
10, 178440, Note_on_c, 8, 66, 90
10, 178920, Note_on_c, 8, 66, 0
10, 178920, Note_on_c, 8, 69, 0
10, 178920, Note_on_c, 8, 63, 0
10, 178920, Note_on_c, 8, 59, 90
10, 178920, Note_on_c, 8, 64, 90
10, 178920, Note_on_c, 8, 67, 90
10, 179400, Note_on_c, 8, 67, 0
10, 179400, Note_on_c, 8, 64, 0
10, 179400, Note_on_c, 8, 59, 0
10, 179400, Note_on_c, 8, 67, 90
10, 179400, Note_on_c, 8, 64, 90
10, 179400, Note_on_c, 8, 61, 90
10, 179640, Note_on_c, 8, 61, 0
10, 179640, Note_on_c, 8, 64, 0
10, 179640, Note_on_c, 8, 67, 0
10, 179640, Note_on_c, 8, 66, 90
10, 179640, Note_on_c, 8, 62, 90
10, 179640, Note_on_c, 8, 69, 90
10, 179880, Note_on_c, 8, 69, 0
10, 179880, Note_on_c, 8, 62, 0
10, 179880, Note_on_c, 8, 66, 0
10, 179880, Note_on_c, 8, 60, 90
10, 179880, Note_on_c, 8, 66, 90
10, 179880, Note_on_c, 8, 69, 90
10, 180120, Note_on_c, 8, 69, 0
10, 180120, Note_on_c, 8, 66, 0
10, 180120, Note_on_c, 8, 60, 0
10, 180120, Note_on_c, 8, 59, 90
10, 180120, Note_on_c, 8, 64, 90
10, 180120, Note_on_c, 8, 67, 90
10, 180240, Note_on_c, 8, 67, 0
10, 180240, Note_on_c, 8, 64, 0
10, 180240, Note_on_c, 8, 59, 0
10, 180240, Note_on_c, 8, 60, 90
10, 180240, Note_on_c, 8, 64, 90
10, 180240, Note_on_c, 8, 69, 90
10, 180360, Note_on_c, 8, 69, 0
10, 180360, Note_on_c, 8, 64, 0
10, 180360, Note_on_c, 8, 60, 0
10, 180480, Note_on_c, 8, 63, 90
10, 180480, Note_on_c, 8, 59, 90
10, 180480, Note_on_c, 8, 66, 90
10, 180600, Note_on_c, 8, 66, 0
10, 180600, Note_on_c, 8, 59, 0
10, 180600, Note_on_c, 8, 63, 0
10, 180600, Note_on_c, 8, 55, 90
10, 180600, Note_on_c, 8, 59, 90
10, 180600, Note_on_c, 8, 64, 90
10, 180840, Note_on_c, 8, 64, 0
10, 180840, Note_on_c, 8, 59, 0
10, 180840, Note_on_c, 8, 55, 0
10, 181200, Note_on_c, 8, 62, 90
10, 181200, Note_on_c, 8, 67, 90
10, 181200, Note_on_c, 8, 71, 90
10, 181380, Note_on_c, 8, 71, 0
10, 181380, Note_on_c, 8, 67, 0
10, 181380, Note_on_c, 8, 62, 0
10, 181380, Note_on_c, 8, 62, 90
10, 181380, Note_on_c, 8, 66, 90
10, 181380, Note_on_c, 8, 69, 90
10, 181560, Note_on_c, 8, 69, 0
10, 181560, Note_on_c, 8, 66, 0
10, 181560, Note_on_c, 8, 62, 0
10, 181560, Note_on_c, 8, 71, 90
10, 181619, Note_on_c, 8, 71, 0
10, 181620, Note_on_c, 8, 72, 90
10, 181679, Note_on_c, 8, 72, 0
10, 181680, Note_on_c, 8, 71, 90
10, 181739, Note_on_c, 8, 71, 0
10, 181740, Note_on_c, 8, 69, 90
10, 181799, Note_on_c, 8, 69, 0
10, 181800, Note_on_c, 8, 67, 90
10, 181859, Note_on_c, 8, 67, 0
10, 181860, Note_on_c, 8, 69, 90
10, 181919, Note_on_c, 8, 69, 0
10, 181920, Note_on_c, 8, 67, 90
10, 181920, Note_on_c, 8, 71, 90
10, 182039, Note_on_c, 8, 71, 0
10, 182039, Note_on_c, 8, 67, 0
10, 182040, Note_on_c, 8, 64, 90
10, 182040, Note_on_c, 8, 67, 90
10, 182099, Note_on_c, 8, 67, 0
10, 182099, Note_on_c, 8, 64, 0
10, 182100, Note_on_c, 8, 69, 90
10, 182100, Note_on_c, 8, 66, 90
10, 182219, Note_on_c, 8, 66, 0
10, 182219, Note_on_c, 8, 69, 0
10, 182220, Note_on_c, 8, 66, 90
10, 182220, Note_on_c, 8, 60, 90
10, 182279, Note_on_c, 8, 60, 0
10, 182279, Note_on_c, 8, 66, 0
10, 182280, Note_on_c, 8, 59, 90
10, 182280, Note_on_c, 8, 62, 90
10, 182280, Note_on_c, 8, 67, 90
10, 182459, Note_on_c, 8, 67, 0
10, 182459, Note_on_c, 8, 62, 0
10, 182459, Note_on_c, 8, 59, 0
10, 182640, Note_on_c, 8, 62, 90
10, 182640, Note_on_c, 8, 67, 90
10, 182640, Note_on_c, 8, 71, 90
10, 182819, Note_on_c, 8, 71, 0
10, 182819, Note_on_c, 8, 67, 0
10, 182819, Note_on_c, 8, 62, 0
10, 182820, Note_on_c, 8, 62, 90
10, 182820, Note_on_c, 8, 66, 90
10, 182820, Note_on_c, 8, 69, 90
10, 182999, Note_on_c, 8, 69, 0
10, 182999, Note_on_c, 8, 66, 0
10, 182999, Note_on_c, 8, 62, 0
10, 183000, Note_on_c, 8, 59, 90
10, 183000, Note_on_c, 8, 62, 90
10, 183000, Note_on_c, 8, 67, 90
10, 183179, Note_on_c, 8, 67, 0
10, 183179, Note_on_c, 8, 62, 0
10, 183179, Note_on_c, 8, 59, 0
10, 183180, Note_on_c, 8, 69, 90
10, 183180, Note_on_c, 8, 66, 90
10, 183180, Note_on_c, 8, 62, 90
10, 183359, Note_on_c, 8, 62, 0
10, 183359, Note_on_c, 8, 66, 0
10, 183359, Note_on_c, 8, 69, 0
10, 183360, Note_on_c, 8, 67, 90
10, 183360, Note_on_c, 8, 71, 90
10, 183479, Note_on_c, 8, 71, 0
10, 183479, Note_on_c, 8, 67, 0
10, 183480, Note_on_c, 8, 67, 90
10, 183480, Note_on_c, 8, 71, 90
10, 183539, Note_on_c, 8, 71, 0
10, 183539, Note_on_c, 8, 67, 0
10, 183540, Note_on_c, 8, 66, 90
10, 183540, Note_on_c, 8, 69, 90
10, 183659, Note_on_c, 8, 69, 0
10, 183659, Note_on_c, 8, 66, 0
10, 183660, Note_on_c, 8, 62, 90
10, 183660, Note_on_c, 8, 67, 90
10, 183719, Note_on_c, 8, 67, 0
10, 183719, Note_on_c, 8, 62, 0
10, 183720, Note_on_c, 8, 62, 90
10, 183720, Note_on_c, 8, 67, 90
10, 183839, Note_on_c, 8, 67, 0
10, 183839, Note_on_c, 8, 62, 0
10, 183900, Note_on_c, 8, 59, 90
10, 183900, Note_on_c, 8, 62, 90
10, 183900, Note_on_c, 8, 67, 90
10, 184019, Note_on_c, 8, 67, 0
10, 184019, Note_on_c, 8, 62, 0
10, 184019, Note_on_c, 8, 59, 0
10, 186960, Note_on_c, 8, 69, 90
10, 186960, Note_on_c, 8, 66, 90
10, 187019, Note_on_c, 8, 66, 0
10, 187019, Note_on_c, 8, 69, 0
10, 187140, Note_on_c, 8, 69, 90
10, 187140, Note_on_c, 8, 66, 90
10, 187199, Note_on_c, 8, 66, 0
10, 187199, Note_on_c, 8, 69, 0
10, 187320, Note_on_c, 8, 71, 90
10, 187320, Note_on_c, 8, 67, 90
10, 187379, Note_on_c, 8, 67, 0
10, 187379, Note_on_c, 8, 71, 0
10, 187500, Note_on_c, 8, 66, 90
10, 187500, Note_on_c, 8, 69, 90
10, 187559, Note_on_c, 8, 69, 0
10, 187559, Note_on_c, 8, 66, 0
10, 187680, Note_on_c, 8, 71, 90
10, 187680, Note_on_c, 8, 67, 90
10, 187860, Note_on_c, 8, 67, 0
10, 187860, Note_on_c, 8, 71, 0
10, 187860, Note_on_c, 8, 69, 90
10, 187860, Note_on_c, 8, 66, 90
10, 188040, Note_on_c, 8, 66, 0
10, 188040, Note_on_c, 8, 69, 0
10, 188040, Note_on_c, 8, 67, 90
10, 188040, Note_on_c, 8, 71, 90
10, 188220, Note_on_c, 8, 71, 0
10, 188220, Note_on_c, 8, 67, 0
10, 188220, Note_on_c, 8, 66, 90
10, 188220, Note_on_c, 8, 69, 90
10, 188400, Note_on_c, 8, 69, 0
10, 188400, Note_on_c, 8, 66, 0
10, 188400, Note_on_c, 8, 71, 90
10, 188400, Note_on_c, 8, 62, 90
10, 188400, Note_on_c, 8, 67, 90
10, 188580, Note_on_c, 8, 67, 0
10, 188580, Note_on_c, 8, 62, 0
10, 188580, Note_on_c, 8, 71, 0
10, 188580, Note_on_c, 8, 62, 90
10, 188580, Note_on_c, 8, 66, 90
10, 188580, Note_on_c, 8, 69, 90
10, 188760, Note_on_c, 8, 69, 0
10, 188760, Note_on_c, 8, 66, 0
10, 188760, Note_on_c, 8, 62, 0
10, 188760, Note_on_c, 8, 62, 90
10, 188760, Note_on_c, 8, 67, 90
10, 188760, Note_on_c, 8, 71, 90
10, 188940, Note_on_c, 8, 71, 0
10, 188940, Note_on_c, 8, 67, 0
10, 188940, Note_on_c, 8, 62, 0
10, 188940, Note_on_c, 8, 74, 90
10, 188940, Note_on_c, 8, 66, 90
10, 188940, Note_on_c, 8, 69, 90
10, 189120, Note_on_c, 8, 69, 0
10, 189120, Note_on_c, 8, 66, 0
10, 189120, Note_on_c, 8, 74, 0
10, 189120, Note_on_c, 8, 67, 90
10, 189120, Note_on_c, 8, 71, 90
10, 189120, Note_on_c, 8, 74, 90
10, 189300, Note_on_c, 8, 74, 0
10, 189300, Note_on_c, 8, 71, 0
10, 189300, Note_on_c, 8, 67, 0
10, 189300, Note_on_c, 8, 62, 90
10, 189300, Note_on_c, 8, 66, 90
10, 189300, Note_on_c, 8, 69, 90
10, 189480, Note_on_c, 8, 69, 0
10, 189480, Note_on_c, 8, 66, 0
10, 189480, Note_on_c, 8, 62, 0
10, 189480, Note_on_c, 8, 59, 90
10, 189480, Note_on_c, 8, 62, 90
10, 189480, Note_on_c, 8, 67, 90
10, 189840, Note_on_c, 8, 67, 0
10, 189840, Note_on_c, 8, 62, 0
10, 189840, Note_on_c, 8, 59, 0
10, 189840, Note_on_c, 8, 64, 90
10, 189900, Note_on_c, 8, 69, 90
10, 189960, Note_on_c, 8, 64, 0
10, 189960, Note_on_c, 8, 73, 90
10, 190020, Note_on_c, 8, 69, 0
10, 190020, Note_on_c, 8, 76, 90
10, 190080, Note_on_c, 8, 73, 0
10, 190140, Note_on_c, 8, 76, 0
10, 190140, Note_on_c, 8, 69, 90
10, 190140, Note_on_c, 8, 73, 90
10, 190200, Note_on_c, 8, 73, 0
10, 190200, Note_on_c, 8, 69, 0
10, 190200, Note_on_c, 8, 78, 90
10, 190200, Note_on_c, 8, 74, 90
10, 190320, Note_on_c, 8, 74, 0
10, 190320, Note_on_c, 8, 78, 0
10, 190320, Note_on_c, 8, 71, 90
10, 190320, Note_on_c, 8, 74, 90
10, 190380, Note_on_c, 8, 74, 0
10, 190380, Note_on_c, 8, 71, 0
10, 190380, Note_on_c, 8, 76, 90
10, 190380, Note_on_c, 8, 73, 90
10, 190500, Note_on_c, 8, 73, 0
10, 190500, Note_on_c, 8, 76, 0
10, 190500, Note_on_c, 8, 70, 90
10, 190500, Note_on_c, 8, 66, 90
10, 190500, Note_on_c, 8, 76, 90
10, 190560, Note_on_c, 8, 76, 0
10, 190560, Note_on_c, 8, 66, 0
10, 190560, Note_on_c, 8, 70, 0
10, 190560, Note_on_c, 8, 66, 90
10, 190560, Note_on_c, 8, 71, 90
10, 190560, Note_on_c, 8, 74, 90
10, 191040, Note_on_c, 8, 74, 0
10, 191040, Note_on_c, 8, 71, 0
10, 191040, Note_on_c, 8, 66, 0
10, 191040, Note_on_c, 8, 62, 90
10, 191040, Note_on_c, 8, 66, 90
10, 191040, Note_on_c, 8, 69, 90
10, 191520, Note_on_c, 8, 69, 0
10, 191520, Note_on_c, 8, 66, 0
10, 191520, Note_on_c, 8, 62, 0
10, 191520, Note_on_c, 8, 69, 90
10, 191520, Note_on_c, 8, 64, 90
10, 191520, Note_on_c, 8, 61, 90
10, 191640, Note_on_c, 8, 69, 0
10, 191640, Note_on_c, 8, 67, 90
10, 191760, Note_on_c, 8, 67, 0
10, 191760, Note_on_c, 8, 61, 0
10, 191760, Note_on_c, 8, 64, 0
10, 191760, Note_on_c, 8, 57, 90
10, 191760, Note_on_c, 8, 62, 90
10, 191760, Note_on_c, 8, 66, 90
10, 192000, Note_on_c, 8, 66, 0
10, 192000, Note_on_c, 8, 62, 0
10, 192000, Note_on_c, 8, 57, 0
10, 192000, Note_on_c, 8, 64, 90
10, 192000, Note_on_c, 8, 68, 90
10, 192000, Note_on_c, 8, 71, 90
10, 192720, Note_on_c, 8, 71, 0
10, 192720, Note_on_c, 8, 68, 0
10, 192720, Note_on_c, 8, 64, 0
10, 192720, Note_on_c, 8, 61, 90
10, 192720, Note_on_c, 8, 64, 90
10, 192720, Note_on_c, 8, 69, 90
10, 192960, Note_on_c, 8, 69, 0
10, 192960, Note_on_c, 8, 64, 0
10, 192960, Note_on_c, 8, 61, 0
10, 192960, Note_on_c, 8, 66, 90
10, 192960, Note_on_c, 8, 62, 90
10, 193019, Note_on_c, 8, 62, 0
10, 193019, Note_on_c, 8, 66, 0
10, 193020, Note_on_c, 8, 67, 90
10, 193020, Note_on_c, 8, 64, 90
10, 193079, Note_on_c, 8, 64, 0
10, 193079, Note_on_c, 8, 67, 0
10, 193080, Note_on_c, 8, 57, 90
10, 193080, Note_on_c, 8, 62, 90
10, 193080, Note_on_c, 8, 66, 90
10, 193199, Note_on_c, 8, 66, 0
10, 193199, Note_on_c, 8, 62, 0
10, 193199, Note_on_c, 8, 57, 0
10, 193200, Note_on_c, 8, 57, 90
10, 193200, Note_on_c, 8, 62, 90
10, 193200, Note_on_c, 8, 66, 90
10, 193319, Note_on_c, 8, 66, 0
10, 193319, Note_on_c, 8, 62, 0
10, 193319, Note_on_c, 8, 57, 0
10, 193320, Note_on_c, 8, 62, 90
10, 193320, Note_on_c, 8, 66, 90
10, 193379, Note_on_c, 8, 66, 0
10, 193379, Note_on_c, 8, 62, 0
10, 193380, Note_on_c, 8, 64, 90
10, 193380, Note_on_c, 8, 67, 90
10, 193439, Note_on_c, 8, 67, 0
10, 193439, Note_on_c, 8, 64, 0
10, 193440, Note_on_c, 8, 59, 90
10, 193440, Note_on_c, 8, 62, 90
10, 193440, Note_on_c, 8, 66, 90
10, 193559, Note_on_c, 8, 66, 0
10, 193559, Note_on_c, 8, 62, 0
10, 193559, Note_on_c, 8, 59, 0
10, 193560, Note_on_c, 8, 59, 90
10, 193560, Note_on_c, 8, 62, 90
10, 193560, Note_on_c, 8, 66, 90
10, 193679, Note_on_c, 8, 66, 0
10, 193679, Note_on_c, 8, 62, 0
10, 193679, Note_on_c, 8, 59, 0
10, 193680, Note_on_c, 8, 59, 90
10, 193680, Note_on_c, 8, 64, 90
10, 193680, Note_on_c, 8, 67, 90
10, 193799, Note_on_c, 8, 67, 0
10, 193799, Note_on_c, 8, 64, 0
10, 193799, Note_on_c, 8, 59, 0
10, 193800, Note_on_c, 8, 67, 90
10, 193800, Note_on_c, 8, 64, 90
10, 193919, Note_on_c, 8, 64, 0
10, 193919, Note_on_c, 8, 67, 0
10, 193920, Note_on_c, 8, 73, 90
10, 193979, Note_on_c, 8, 73, 0
10, 193980, Note_on_c, 8, 71, 90
10, 194039, Note_on_c, 8, 71, 0
10, 194040, Note_on_c, 8, 69, 90
10, 194099, Note_on_c, 8, 69, 0
10, 194100, Note_on_c, 8, 68, 90
10, 194159, Note_on_c, 8, 68, 0
10, 194160, Note_on_c, 8, 69, 90
10, 194160, Note_on_c, 8, 61, 90
10, 194279, Note_on_c, 8, 61, 0
10, 194279, Note_on_c, 8, 69, 0
10, 194280, Note_on_c, 8, 57, 90
10, 194399, Note_on_c, 8, 57, 0
10, 194400, Note_on_c, 8, 62, 90
10, 194519, Note_on_c, 8, 62, 0
10, 194520, Note_on_c, 8, 69, 90
10, 194520, Note_on_c, 8, 66, 90
10, 194520, Note_on_c, 8, 62, 90
10, 194759, Note_on_c, 8, 62, 0
10, 194759, Note_on_c, 8, 66, 0
10, 194759, Note_on_c, 8, 69, 0
10, 194760, Note_on_c, 8, 69, 90
10, 194760, Note_on_c, 8, 66, 90
10, 194879, Note_on_c, 8, 66, 0
10, 194879, Note_on_c, 8, 69, 0
10, 194880, Note_on_c, 8, 62, 90
10, 194880, Note_on_c, 8, 71, 90
10, 194880, Note_on_c, 8, 66, 90
10, 195119, Note_on_c, 8, 66, 0
10, 195119, Note_on_c, 8, 71, 0
10, 195119, Note_on_c, 8, 62, 0
10, 195120, Note_on_c, 8, 64, 90
10, 195120, Note_on_c, 8, 68, 90
10, 195120, Note_on_c, 8, 71, 90
10, 195239, Note_on_c, 8, 71, 0
10, 195239, Note_on_c, 8, 68, 0
10, 195239, Note_on_c, 8, 64, 0
10, 195240, Note_on_c, 8, 61, 90
10, 195240, Note_on_c, 8, 64, 90
10, 195240, Note_on_c, 8, 69, 90
10, 195359, Note_on_c, 8, 69, 0
10, 195359, Note_on_c, 8, 64, 0
10, 195359, Note_on_c, 8, 61, 0
10, 195360, Note_on_c, 8, 73, 90
10, 195419, Note_on_c, 8, 73, 0
10, 195420, Note_on_c, 8, 71, 90
10, 195479, Note_on_c, 8, 71, 0
10, 195480, Note_on_c, 8, 69, 90
10, 195539, Note_on_c, 8, 69, 0
10, 195540, Note_on_c, 8, 68, 90
10, 195599, Note_on_c, 8, 68, 0
10, 195600, Note_on_c, 8, 61, 90
10, 195600, Note_on_c, 8, 64, 90
10, 195600, Note_on_c, 8, 69, 90
10, 195839, Note_on_c, 8, 69, 0
10, 195839, Note_on_c, 8, 64, 0
10, 195839, Note_on_c, 8, 61, 0
10, 195840, Note_on_c, 8, 61, 90
10, 195840, Note_on_c, 8, 64, 90
10, 195959, Note_on_c, 8, 64, 0
10, 195959, Note_on_c, 8, 61, 0
10, 195960, Note_on_c, 8, 62, 90
10, 195960, Note_on_c, 8, 66, 90
10, 196079, Note_on_c, 8, 66, 0
10, 196079, Note_on_c, 8, 62, 0
10, 196080, Note_on_c, 8, 66, 90
10, 196080, Note_on_c, 8, 69, 90
10, 196199, Note_on_c, 8, 69, 0
10, 196199, Note_on_c, 8, 66, 0
10, 196200, Note_on_c, 8, 69, 90
10, 196319, Note_on_c, 8, 69, 0
10, 196320, Note_on_c, 8, 66, 90
10, 196439, Note_on_c, 8, 66, 0
10, 196440, Note_on_c, 8, 62, 90
10, 196440, Note_on_c, 8, 69, 90
10, 196559, Note_on_c, 8, 69, 0
10, 196559, Note_on_c, 8, 62, 0
10, 196560, Note_on_c, 8, 61, 90
10, 196560, Note_on_c, 8, 67, 90
10, 196679, Note_on_c, 8, 67, 0
10, 196679, Note_on_c, 8, 61, 0
10, 196680, Note_on_c, 8, 62, 90
10, 196680, Note_on_c, 8, 66, 90
10, 196799, Note_on_c, 8, 66, 0
10, 196799, Note_on_c, 8, 62, 0
10, 196800, Note_on_c, 8, 62, 90
10, 196800, Note_on_c, 8, 66, 90
10, 196919, Note_on_c, 8, 66, 0
10, 196919, Note_on_c, 8, 62, 0
10, 196920, Note_on_c, 8, 67, 90
10, 196920, Note_on_c, 8, 64, 90
10, 197039, Note_on_c, 8, 64, 0
10, 197039, Note_on_c, 8, 67, 0
10, 197040, Note_on_c, 8, 62, 90
10, 197040, Note_on_c, 8, 66, 90
10, 197159, Note_on_c, 8, 66, 0
10, 197159, Note_on_c, 8, 62, 0
10, 197160, Note_on_c, 8, 62, 90
10, 197160, Note_on_c, 8, 66, 90
10, 197279, Note_on_c, 8, 66, 0
10, 197279, Note_on_c, 8, 62, 0
10, 197280, Note_on_c, 8, 64, 90
10, 197280, Note_on_c, 8, 69, 90
10, 197399, Note_on_c, 8, 69, 0
10, 197399, Note_on_c, 8, 64, 0
10, 197400, Note_on_c, 8, 66, 90
10, 197400, Note_on_c, 8, 69, 90
10, 197519, Note_on_c, 8, 69, 0
10, 197519, Note_on_c, 8, 66, 0
10, 197520, Note_on_c, 8, 62, 90
10, 197520, Note_on_c, 8, 66, 90
10, 197639, Note_on_c, 8, 66, 0
10, 197639, Note_on_c, 8, 62, 0
10, 197640, Note_on_c, 8, 67, 90
10, 197640, Note_on_c, 8, 64, 90
10, 197759, Note_on_c, 8, 64, 0
10, 197759, Note_on_c, 8, 67, 0
10, 197760, Note_on_c, 8, 62, 90
10, 197760, Note_on_c, 8, 66, 90
10, 197879, Note_on_c, 8, 66, 0
10, 197879, Note_on_c, 8, 62, 0
10, 197880, Note_on_c, 8, 76, 90
10, 197880, Note_on_c, 8, 73, 90
10, 197939, Note_on_c, 8, 73, 0
10, 197939, Note_on_c, 8, 76, 0
10, 197940, Note_on_c, 8, 71, 90
10, 197999, Note_on_c, 8, 71, 0
10, 198000, Note_on_c, 8, 76, 90
10, 198000, Note_on_c, 8, 73, 90
10, 198059, Note_on_c, 8, 73, 0
10, 198059, Note_on_c, 8, 76, 0
10, 198060, Note_on_c, 8, 69, 90
10, 198119, Note_on_c, 8, 69, 0
10, 198120, Note_on_c, 8, 69, 90
10, 198120, Note_on_c, 8, 66, 90
10, 198239, Note_on_c, 8, 66, 0
10, 198239, Note_on_c, 8, 69, 0
10, 198240, Note_on_c, 8, 69, 90
10, 198240, Note_on_c, 8, 66, 90
10, 198359, Note_on_c, 8, 66, 0
10, 198359, Note_on_c, 8, 69, 0
10, 198360, Note_on_c, 8, 71, 90
10, 198360, Note_on_c, 8, 67, 90
10, 198479, Note_on_c, 8, 67, 0
10, 198479, Note_on_c, 8, 71, 0
10, 198480, Note_on_c, 8, 69, 90
10, 198480, Note_on_c, 8, 66, 90
10, 198599, Note_on_c, 8, 66, 0
10, 198599, Note_on_c, 8, 69, 0
10, 198600, Note_on_c, 8, 69, 90
10, 198600, Note_on_c, 8, 66, 90
10, 198719, Note_on_c, 8, 66, 0
10, 198719, Note_on_c, 8, 69, 0
10, 198720, Note_on_c, 8, 64, 90
10, 198720, Note_on_c, 8, 69, 90
10, 198839, Note_on_c, 8, 69, 0
10, 198839, Note_on_c, 8, 64, 0
10, 198840, Note_on_c, 8, 66, 90
10, 198840, Note_on_c, 8, 69, 90
10, 198959, Note_on_c, 8, 69, 0
10, 198959, Note_on_c, 8, 66, 0
10, 198960, Note_on_c, 8, 62, 90
10, 198960, Note_on_c, 8, 66, 90
10, 199079, Note_on_c, 8, 66, 0
10, 199079, Note_on_c, 8, 62, 0
10, 199080, Note_on_c, 8, 64, 90
10, 199199, Note_on_c, 8, 64, 0
10, 199200, Note_on_c, 8, 62, 90
10, 199439, Note_on_c, 8, 62, 0
10, 199560, Note_on_c, 8, 62, 90
10, 199560, Note_on_c, 8, 71, 90
10, 199560, Note_on_c, 8, 66, 90
10, 200160, Note_on_c, 8, 66, 0
10, 200160, Note_on_c, 8, 71, 0
10, 200160, Note_on_c, 8, 62, 0
10, 200160, Note_on_c, 8, 61, 90
10, 200160, Note_on_c, 8, 66, 90
10, 200280, Note_on_c, 8, 66, 0
10, 200280, Note_on_c, 8, 61, 0
10, 200280, Note_on_c, 8, 62, 90
10, 200280, Note_on_c, 8, 66, 90
10, 200760, Note_on_c, 8, 66, 0
10, 200760, Note_on_c, 8, 62, 0
10, 200760, Note_on_c, 8, 59, 90
10, 200760, Note_on_c, 8, 68, 90
10, 200760, Note_on_c, 8, 64, 90
10, 201000, Note_on_c, 8, 64, 0
10, 201000, Note_on_c, 8, 68, 0
10, 201000, Note_on_c, 8, 59, 0
10, 201000, Note_on_c, 8, 61, 90
10, 201000, Note_on_c, 8, 64, 90
10, 201000, Note_on_c, 8, 69, 90
10, 201120, Note_on_c, 8, 69, 0
10, 201120, Note_on_c, 8, 64, 0
10, 201120, Note_on_c, 8, 61, 0
10, 201120, Note_on_c, 8, 62, 90
10, 201120, Note_on_c, 8, 66, 90
10, 201120, Note_on_c, 8, 69, 90
10, 201240, Note_on_c, 8, 69, 0
10, 201240, Note_on_c, 8, 66, 0
10, 201240, Note_on_c, 8, 62, 0
10, 201360, Note_on_c, 8, 68, 90
10, 201360, Note_on_c, 8, 64, 90
10, 201360, Note_on_c, 8, 59, 90
10, 201420, Note_on_c, 8, 64, 0
10, 201420, Note_on_c, 8, 62, 90
10, 201480, Note_on_c, 8, 62, 0
10, 201480, Note_on_c, 8, 59, 0
10, 201480, Note_on_c, 8, 68, 0
10, 201480, Note_on_c, 8, 57, 90
10, 201480, Note_on_c, 8, 61, 90
10, 201480, Note_on_c, 8, 64, 90
10, 201960, Note_on_c, 8, 64, 0
10, 201960, Note_on_c, 8, 61, 0
10, 201960, Note_on_c, 8, 57, 0
10, 269280, Note_on_c, 8, 67, 90
10, 269280, Note_on_c, 8, 64, 90
10, 269520, Note_on_c, 8, 64, 0
10, 269520, Note_on_c, 8, 67, 0
10, 269520, Note_on_c, 8, 57, 90
10, 269520, Note_on_c, 8, 62, 90
10, 269520, Note_on_c, 8, 66, 90
10, 269760, Note_on_c, 8, 66, 0
10, 269760, Note_on_c, 8, 62, 0
10, 269760, Note_on_c, 8, 57, 0
10, 269880, Note_on_c, 8, 68, 90
10, 269880, Note_on_c, 8, 59, 90
10, 270000, Note_on_c, 8, 59, 0
10, 270000, Note_on_c, 8, 68, 0
10, 270000, Note_on_c, 8, 61, 90
10, 270000, Note_on_c, 8, 64, 90
10, 270000, Note_on_c, 8, 69, 90
10, 270240, Note_on_c, 8, 69, 0
10, 270240, Note_on_c, 8, 64, 0
10, 270240, Note_on_c, 8, 61, 0
10, 270360, Note_on_c, 8, 61, 90
10, 270360, Note_on_c, 8, 67, 90
10, 270360, Note_on_c, 8, 64, 90
10, 270720, Note_on_c, 8, 64, 0
10, 270720, Note_on_c, 8, 67, 0
10, 270720, Note_on_c, 8, 61, 0
10, 270720, Note_on_c, 8, 57, 90
10, 270720, Note_on_c, 8, 62, 90
10, 270720, Note_on_c, 8, 66, 90
10, 271080, Note_on_c, 8, 66, 0
10, 271080, Note_on_c, 8, 62, 0
10, 271080, Note_on_c, 8, 57, 0
10, 271080, Note_on_c, 8, 66, 90
10, 271080, Note_on_c, 8, 71, 90
10, 271200, Note_on_c, 8, 71, 0
10, 271200, Note_on_c, 8, 66, 0
10, 271200, Note_on_c, 8, 59, 90
10, 271200, Note_on_c, 8, 66, 90
10, 271320, Note_on_c, 8, 66, 0
10, 271320, Note_on_c, 8, 59, 0
10, 271320, Note_on_c, 8, 61, 90
10, 271320, Note_on_c, 8, 64, 90
10, 271440, Note_on_c, 8, 64, 0
10, 271440, Note_on_c, 8, 61, 0
10, 271440, Note_on_c, 8, 61, 90
10, 271440, Note_on_c, 8, 66, 90
10, 271440, Note_on_c, 8, 70, 90
10, 271560, Note_on_c, 8, 70, 0
10, 271560, Note_on_c, 8, 66, 0
10, 271560, Note_on_c, 8, 61, 0
10, 287160, Note_on_c, 8, 69, 90
10, 287160, Note_on_c, 8, 62, 90
10, 288120, Note_on_c, 8, 62, 0
10, 288120, Note_on_c, 8, 69, 0
10, 288120, Note_on_c, 8, 69, 90
10, 288120, Note_on_c, 8, 66, 90
10, 288360, Note_on_c, 8, 66, 0
10, 288360, Note_on_c, 8, 69, 0
10, 288540, Note_on_c, 8, 66, 90
10, 288540, Note_on_c, 8, 63, 90
10, 288600, Note_on_c, 8, 63, 0
10, 288600, Note_on_c, 8, 66, 0
10, 288600, Note_on_c, 8, 64, 90
10, 288600, Note_on_c, 8, 67, 90
10, 288660, Note_on_c, 8, 67, 0
10, 288660, Note_on_c, 8, 64, 0
10, 288660, Note_on_c, 8, 66, 90
10, 288660, Note_on_c, 8, 69, 90
10, 288720, Note_on_c, 8, 69, 0
10, 288720, Note_on_c, 8, 66, 0
10, 288720, Note_on_c, 8, 67, 90
10, 288720, Note_on_c, 8, 71, 90
10, 288780, Note_on_c, 8, 71, 0
10, 288780, Note_on_c, 8, 67, 0
10, 288780, Note_on_c, 8, 69, 90
10, 288780, Note_on_c, 8, 72, 90
10, 288840, Note_on_c, 8, 72, 0
10, 288840, Note_on_c, 8, 69, 0
10, 288840, Note_on_c, 8, 67, 90
10, 288840, Note_on_c, 8, 71, 90
10, 288900, Note_on_c, 8, 71, 0
10, 288900, Note_on_c, 8, 67, 0
10, 288900, Note_on_c, 8, 67, 90
10, 288900, Note_on_c, 8, 64, 90
10, 288960, Note_on_c, 8, 64, 0
10, 288960, Note_on_c, 8, 67, 0
10, 288960, Note_on_c, 8, 69, 90
10, 288960, Note_on_c, 8, 65, 90
10, 289020, Note_on_c, 8, 65, 0
10, 289020, Note_on_c, 8, 69, 0
10, 289020, Note_on_c, 8, 71, 90
10, 289020, Note_on_c, 8, 67, 90
10, 289080, Note_on_c, 8, 67, 0
10, 289080, Note_on_c, 8, 71, 0
10, 289080, Note_on_c, 8, 72, 90
10, 289080, Note_on_c, 8, 76, 90
10, 289200, Note_on_c, 8, 76, 0
10, 289200, Note_on_c, 8, 72, 0
10, 289200, Note_on_c, 8, 65, 90
10, 289200, Note_on_c, 8, 74, 90
10, 289200, Note_on_c, 8, 67, 90
10, 289320, Note_on_c, 8, 67, 0
10, 289320, Note_on_c, 8, 74, 0
10, 289320, Note_on_c, 8, 65, 0
10, 289320, Note_on_c, 8, 64, 90
10, 289320, Note_on_c, 8, 67, 90
10, 289320, Note_on_c, 8, 72, 90
10, 289800, Note_on_c, 8, 72, 0
10, 289800, Note_on_c, 8, 67, 0
10, 289800, Note_on_c, 8, 64, 0
10, 289800, Note_on_c, 8, 64, 90
10, 289800, Note_on_c, 8, 69, 90
10, 290520, Note_on_c, 8, 69, 0
10, 290520, Note_on_c, 8, 64, 0
10, 290520, Note_on_c, 8, 69, 90
10, 290520, Note_on_c, 8, 65, 90
10, 290640, Note_on_c, 8, 65, 0
10, 290640, Note_on_c, 8, 69, 0
10, 290640, Note_on_c, 8, 65, 90
10, 290640, Note_on_c, 8, 62, 90
10, 290760, Note_on_c, 8, 62, 0
10, 290760, Note_on_c, 8, 65, 0
10, 290880, Note_on_c, 8, 73, 90
10, 290880, Note_on_c, 8, 64, 90
10, 290880, Note_on_c, 8, 69, 90
10, 291000, Note_on_c, 8, 69, 0
10, 291000, Note_on_c, 8, 64, 0
10, 291000, Note_on_c, 8, 73, 0
10, 291000, Note_on_c, 8, 65, 90
10, 291000, Note_on_c, 8, 74, 90
10, 291000, Note_on_c, 8, 69, 90
10, 291480, Note_on_c, 8, 69, 0
10, 291480, Note_on_c, 8, 74, 0
10, 291480, Note_on_c, 8, 65, 0
10, 291600, Note_on_c, 8, 65, 90
10, 291659, Note_on_c, 8, 65, 0
10, 291660, Note_on_c, 8, 67, 90
10, 291719, Note_on_c, 8, 67, 0
10, 291720, Note_on_c, 8, 65, 90
10, 291720, Note_on_c, 8, 69, 90
10, 291840, Note_on_c, 8, 69, 0
10, 291840, Note_on_c, 8, 65, 0
10, 291840, Note_on_c, 8, 64, 90
10, 291840, Note_on_c, 8, 67, 90
10, 291960, Note_on_c, 8, 67, 0
10, 291960, Note_on_c, 8, 64, 0
10, 291960, Note_on_c, 8, 69, 90
10, 291960, Note_on_c, 8, 72, 90
10, 292079, Note_on_c, 8, 69, 0
10, 292080, Note_on_c, 8, 72, 0
10, 292080, Note_on_c, 8, 70, 90
10, 292080, Note_on_c, 8, 74, 90
10, 292199, Note_on_c, 8, 70, 0
10, 292200, Note_on_c, 8, 74, 0
10, 292200, Note_on_c, 8, 72, 90
10, 292320, Note_on_c, 8, 72, 0
10, 292320, Note_on_c, 8, 70, 90
10, 292439, Note_on_c, 8, 70, 0
10, 292440, Note_on_c, 8, 72, 90
10, 292440, Note_on_c, 8, 69, 90
10, 292560, Note_on_c, 8, 69, 0
10, 292560, Note_on_c, 8, 72, 0
10, 292560, Note_on_c, 8, 77, 90
10, 292560, Note_on_c, 8, 69, 90
10, 292680, Note_on_c, 8, 69, 0
10, 292680, Note_on_c, 8, 77, 0
10, 292680, Note_on_c, 8, 70, 90
10, 292680, Note_on_c, 8, 74, 90
10, 292800, Note_on_c, 8, 74, 0
10, 292800, Note_on_c, 8, 70, 0
10, 292800, Note_on_c, 8, 69, 90
10, 292800, Note_on_c, 8, 72, 90
10, 292920, Note_on_c, 8, 72, 0
10, 292920, Note_on_c, 8, 69, 0
10, 292920, Note_on_c, 8, 67, 90
10, 292920, Note_on_c, 8, 70, 90
10, 293040, Note_on_c, 8, 70, 0
10, 293040, Note_on_c, 8, 67, 0
10, 293040, Note_on_c, 8, 65, 90
10, 293040, Note_on_c, 8, 69, 90
10, 293160, Note_on_c, 8, 69, 0
10, 293160, Note_on_c, 8, 65, 0
10, 293160, Note_on_c, 8, 64, 90
10, 293160, Note_on_c, 8, 67, 90
10, 293279, Note_on_c, 8, 67, 0
10, 293279, Note_on_c, 8, 64, 0
10, 293280, Note_on_c, 8, 64, 90
10, 293280, Note_on_c, 8, 67, 90
10, 293399, Note_on_c, 8, 67, 0
10, 293399, Note_on_c, 8, 64, 0
10, 293400, Note_on_c, 8, 60, 90
10, 293400, Note_on_c, 8, 64, 90
10, 293519, Note_on_c, 8, 64, 0
10, 293519, Note_on_c, 8, 60, 0
10, 293520, Note_on_c, 8, 60, 90
10, 293520, Note_on_c, 8, 64, 90
10, 293639, Note_on_c, 8, 64, 0
10, 293639, Note_on_c, 8, 60, 0
10, 293640, Note_on_c, 8, 69, 90
10, 293640, Note_on_c, 8, 60, 90
10, 293640, Note_on_c, 8, 65, 90
10, 293759, Note_on_c, 8, 65, 0
10, 293759, Note_on_c, 8, 60, 0
10, 293759, Note_on_c, 8, 69, 0
10, 293760, Note_on_c, 8, 72, 90
10, 293760, Note_on_c, 8, 60, 90
10, 293819, Note_on_c, 8, 60, 0
10, 293819, Note_on_c, 8, 72, 0
10, 293820, Note_on_c, 8, 70, 90
10, 293820, Note_on_c, 8, 62, 90
10, 293879, Note_on_c, 8, 62, 0
10, 293879, Note_on_c, 8, 70, 0
10, 293880, Note_on_c, 8, 72, 90
10, 293880, Note_on_c, 8, 64, 90
10, 293999, Note_on_c, 8, 64, 0
10, 293999, Note_on_c, 8, 72, 0
10, 294000, Note_on_c, 8, 64, 90
10, 294000, Note_on_c, 8, 70, 90
10, 294000, Note_on_c, 8, 67, 90
10, 294119, Note_on_c, 8, 67, 0
10, 294119, Note_on_c, 8, 70, 0
10, 294119, Note_on_c, 8, 64, 0
10, 294120, Note_on_c, 8, 65, 90
10, 294120, Note_on_c, 8, 69, 90
10, 294479, Note_on_c, 8, 69, 0
10, 294479, Note_on_c, 8, 65, 0
10, 294480, Note_on_c, 8, 65, 90
10, 294539, Note_on_c, 8, 65, 0
10, 294540, Note_on_c, 8, 67, 90
10, 294599, Note_on_c, 8, 67, 0
10, 294600, Note_on_c, 8, 65, 90
10, 294600, Note_on_c, 8, 69, 90
10, 294719, Note_on_c, 8, 69, 0
10, 294719, Note_on_c, 8, 65, 0
10, 294720, Note_on_c, 8, 67, 90
10, 294720, Note_on_c, 8, 64, 90
10, 294839, Note_on_c, 8, 64, 0
10, 294839, Note_on_c, 8, 67, 0
10, 294840, Note_on_c, 8, 65, 90
10, 294840, Note_on_c, 8, 72, 90
10, 294959, Note_on_c, 8, 72, 0
10, 294959, Note_on_c, 8, 65, 0
10, 294960, Note_on_c, 8, 74, 90
10, 295019, Note_on_c, 8, 74, 0
10, 295020, Note_on_c, 8, 76, 90
10, 295079, Note_on_c, 8, 76, 0
10, 295080, Note_on_c, 8, 69, 90
10, 295080, Note_on_c, 8, 72, 90
10, 295199, Note_on_c, 8, 72, 0
10, 295199, Note_on_c, 8, 69, 0
10, 295200, Note_on_c, 8, 64, 90
10, 295200, Note_on_c, 8, 70, 90
10, 295319, Note_on_c, 8, 70, 0
10, 295319, Note_on_c, 8, 64, 0
10, 295320, Note_on_c, 8, 69, 90
10, 295320, Note_on_c, 8, 65, 90
10, 295439, Note_on_c, 8, 65, 0
10, 295439, Note_on_c, 8, 69, 0
10, 295440, Note_on_c, 8, 72, 90
10, 295440, Note_on_c, 8, 69, 90
10, 295559, Note_on_c, 8, 69, 0
10, 295559, Note_on_c, 8, 72, 0
10, 295560, Note_on_c, 8, 74, 90
10, 295560, Note_on_c, 8, 70, 90
10, 295619, Note_on_c, 8, 70, 0
10, 295620, Note_on_c, 8, 72, 90
10, 295679, Note_on_c, 8, 72, 0
10, 295679, Note_on_c, 8, 74, 0
10, 295680, Note_on_c, 8, 72, 90
10, 295680, Note_on_c, 8, 69, 90
10, 295739, Note_on_c, 8, 69, 0
10, 295740, Note_on_c, 8, 70, 90
10, 295799, Note_on_c, 8, 70, 0
10, 295799, Note_on_c, 8, 72, 0
10, 295800, Note_on_c, 8, 70, 90
10, 295800, Note_on_c, 8, 67, 90
10, 295859, Note_on_c, 8, 67, 0
10, 295860, Note_on_c, 8, 69, 90
10, 295919, Note_on_c, 8, 69, 0
10, 295919, Note_on_c, 8, 70, 0
10, 295920, Note_on_c, 8, 69, 90
10, 295920, Note_on_c, 8, 65, 90
10, 295979, Note_on_c, 8, 65, 0
10, 295980, Note_on_c, 8, 67, 90
10, 296039, Note_on_c, 8, 67, 0
10, 296039, Note_on_c, 8, 69, 0
10, 296040, Note_on_c, 8, 64, 90
10, 296040, Note_on_c, 8, 67, 90
10, 296099, Note_on_c, 8, 67, 0
10, 296099, Note_on_c, 8, 64, 0
10, 296100, Note_on_c, 8, 62, 90
10, 296100, Note_on_c, 8, 65, 90
10, 296159, Note_on_c, 8, 65, 0
10, 296159, Note_on_c, 8, 62, 0
10, 296160, Note_on_c, 8, 60, 90
10, 296160, Note_on_c, 8, 64, 90
10, 296219, Note_on_c, 8, 64, 0
10, 296219, Note_on_c, 8, 60, 0
10, 296220, Note_on_c, 8, 62, 90
10, 296279, Note_on_c, 8, 62, 0
10, 296280, Note_on_c, 8, 55, 90
10, 296280, Note_on_c, 8, 60, 90
10, 296399, Note_on_c, 8, 60, 0
10, 296399, Note_on_c, 8, 55, 0
10, 296400, Note_on_c, 8, 67, 90
10, 296400, Note_on_c, 8, 58, 90
10, 296519, Note_on_c, 8, 58, 0
10, 296519, Note_on_c, 8, 67, 0
10, 296520, Note_on_c, 8, 69, 90
10, 296579, Note_on_c, 8, 69, 0
10, 296580, Note_on_c, 8, 70, 90
10, 296639, Note_on_c, 8, 70, 0
10, 296640, Note_on_c, 8, 72, 90
10, 296699, Note_on_c, 8, 72, 0
10, 296700, Note_on_c, 8, 74, 90
10, 296759, Note_on_c, 8, 74, 0
10, 296760, Note_on_c, 8, 67, 90
10, 296760, Note_on_c, 8, 64, 90
10, 296879, Note_on_c, 8, 64, 0
10, 296879, Note_on_c, 8, 67, 0
10, 296880, Note_on_c, 8, 64, 90
10, 296939, Note_on_c, 8, 64, 0
10, 296940, Note_on_c, 8, 65, 90
10, 296999, Note_on_c, 8, 65, 0
10, 297000, Note_on_c, 8, 60, 90
10, 297000, Note_on_c, 8, 65, 90
10, 297359, Note_on_c, 8, 65, 0
10, 297359, Note_on_c, 8, 60, 0
10, 297360, Note_on_c, 8, 65, 90
10, 297419, Note_on_c, 8, 65, 0
10, 297420, Note_on_c, 8, 64, 90
10, 297479, Note_on_c, 8, 64, 0
10, 297480, Note_on_c, 8, 72, 90
10, 297480, Note_on_c, 8, 65, 90
10, 297599, Note_on_c, 8, 65, 0
10, 297599, Note_on_c, 8, 72, 0
10, 297600, Note_on_c, 8, 70, 90
10, 297600, Note_on_c, 8, 65, 90
10, 297719, Note_on_c, 8, 65, 0
10, 297719, Note_on_c, 8, 70, 0
10, 297720, Note_on_c, 8, 72, 90
10, 297720, Note_on_c, 8, 65, 90
10, 297839, Note_on_c, 8, 65, 0
10, 297839, Note_on_c, 8, 72, 0
10, 297840, Note_on_c, 8, 72, 90
10, 297840, Note_on_c, 8, 67, 90
10, 297959, Note_on_c, 8, 67, 0
10, 297959, Note_on_c, 8, 72, 0
10, 297960, Note_on_c, 8, 70, 90
10, 298019, Note_on_c, 8, 70, 0
10, 298020, Note_on_c, 8, 72, 90
10, 298079, Note_on_c, 8, 72, 0
10, 298080, Note_on_c, 8, 70, 90
10, 298139, Note_on_c, 8, 70, 0
10, 298140, Note_on_c, 8, 69, 90
10, 298199, Note_on_c, 8, 69, 0
10, 298200, Note_on_c, 8, 70, 90
10, 298319, Note_on_c, 8, 70, 0
10, 298320, Note_on_c, 8, 65, 90
10, 298320, Note_on_c, 8, 74, 90
10, 298439, Note_on_c, 8, 74, 0
10, 298439, Note_on_c, 8, 65, 0
10, 298440, Note_on_c, 8, 67, 90
10, 298440, Note_on_c, 8, 74, 90
10, 298559, Note_on_c, 8, 74, 0
10, 298559, Note_on_c, 8, 67, 0
10, 298560, Note_on_c, 8, 67, 90
10, 298560, Note_on_c, 8, 72, 90
10, 298679, Note_on_c, 8, 72, 0
10, 298679, Note_on_c, 8, 67, 0
10, 298680, Note_on_c, 8, 67, 90
10, 298680, Note_on_c, 8, 74, 90
10, 298799, Note_on_c, 8, 74, 0
10, 298799, Note_on_c, 8, 67, 0
10, 298800, Note_on_c, 8, 69, 90
10, 298859, Note_on_c, 8, 69, 0
10, 298860, Note_on_c, 8, 70, 90
10, 298919, Note_on_c, 8, 70, 0
10, 298920, Note_on_c, 8, 64, 90
10, 298920, Note_on_c, 8, 67, 90
10, 299039, Note_on_c, 8, 67, 0
10, 299039, Note_on_c, 8, 64, 0
10, 299040, Note_on_c, 8, 62, 90
10, 299040, Note_on_c, 8, 65, 90
10, 299099, Note_on_c, 8, 65, 0
10, 299099, Note_on_c, 8, 62, 0
10, 299100, Note_on_c, 8, 64, 90
10, 299100, Note_on_c, 8, 67, 90
10, 299159, Note_on_c, 8, 67, 0
10, 299159, Note_on_c, 8, 64, 0
10, 299160, Note_on_c, 8, 60, 90
10, 299160, Note_on_c, 8, 64, 90
10, 299220, Note_on_c, 8, 64, 0
10, 299220, Note_on_c, 8, 60, 0
10, 299220, Note_on_c, 8, 65, 90
10, 299220, Note_on_c, 8, 69, 90
10, 299280, Note_on_c, 8, 69, 0
10, 299280, Note_on_c, 8, 65, 0
10, 299280, Note_on_c, 8, 67, 90
10, 299280, Note_on_c, 8, 70, 90
10, 299340, Note_on_c, 8, 70, 0
10, 299340, Note_on_c, 8, 67, 0
10, 299340, Note_on_c, 8, 69, 90
10, 299340, Note_on_c, 8, 72, 90
10, 299400, Note_on_c, 8, 72, 0
10, 299400, Note_on_c, 8, 69, 0
10, 299400, Note_on_c, 8, 74, 90
10, 299400, Note_on_c, 8, 70, 90
10, 299519, Note_on_c, 8, 70, 0
10, 299519, Note_on_c, 8, 74, 0
10, 299520, Note_on_c, 8, 72, 90
10, 299520, Note_on_c, 8, 77, 90
10, 299579, Note_on_c, 8, 77, 0
10, 299580, Note_on_c, 8, 76, 90
10, 299639, Note_on_c, 8, 76, 0
10, 299639, Note_on_c, 8, 72, 0
10, 299640, Note_on_c, 8, 72, 90
10, 299640, Note_on_c, 8, 77, 90
10, 299759, Note_on_c, 8, 77, 0
10, 299759, Note_on_c, 8, 72, 0
10, 299760, Note_on_c, 8, 77, 90
10, 299760, Note_on_c, 8, 69, 90
10, 299879, Note_on_c, 8, 69, 0
10, 299879, Note_on_c, 8, 77, 0
10, 299880, Note_on_c, 8, 70, 90
10, 299880, Note_on_c, 8, 74, 90
10, 299999, Note_on_c, 8, 74, 0
10, 299999, Note_on_c, 8, 70, 0
10, 300000, Note_on_c, 8, 72, 90
10, 300000, Note_on_c, 8, 77, 90
10, 300059, Note_on_c, 8, 77, 0
10, 300060, Note_on_c, 8, 76, 90
10, 300119, Note_on_c, 8, 76, 0
10, 300119, Note_on_c, 8, 72, 0
10, 300120, Note_on_c, 8, 72, 90
10, 300120, Note_on_c, 8, 77, 90
10, 300239, Note_on_c, 8, 77, 0
10, 300239, Note_on_c, 8, 72, 0
10, 300240, Note_on_c, 8, 77, 90
10, 300240, Note_on_c, 8, 70, 90
10, 300299, Note_on_c, 8, 70, 0
10, 300300, Note_on_c, 8, 69, 90
10, 300359, Note_on_c, 8, 69, 0
10, 300359, Note_on_c, 8, 77, 0
10, 300360, Note_on_c, 8, 77, 90
10, 300360, Note_on_c, 8, 74, 90
10, 300479, Note_on_c, 8, 74, 0
10, 300479, Note_on_c, 8, 77, 0
10, 300480, Note_on_c, 8, 76, 90
10, 300480, Note_on_c, 8, 72, 90
10, 300599, Note_on_c, 8, 72, 0
10, 300599, Note_on_c, 8, 76, 0
10, 300600, Note_on_c, 8, 65, 90
10, 300600, Note_on_c, 8, 70, 90
10, 300659, Note_on_c, 8, 70, 0
10, 300660, Note_on_c, 8, 69, 90
10, 300719, Note_on_c, 8, 69, 0
10, 300719, Note_on_c, 8, 65, 0
10, 300720, Note_on_c, 8, 74, 90
10, 300720, Note_on_c, 8, 67, 90
10, 300779, Note_on_c, 8, 67, 0
10, 300780, Note_on_c, 8, 65, 90
10, 300839, Note_on_c, 8, 65, 0
10, 300839, Note_on_c, 8, 74, 0
10, 300840, Note_on_c, 8, 64, 90
10, 300840, Note_on_c, 8, 72, 90
10, 300959, Note_on_c, 8, 72, 0
10, 300959, Note_on_c, 8, 64, 0
10, 300960, Note_on_c, 8, 62, 90
10, 300960, Note_on_c, 8, 67, 90
10, 300960, Note_on_c, 8, 71, 90
10, 301079, Note_on_c, 8, 71, 0
10, 301079, Note_on_c, 8, 67, 0
10, 301079, Note_on_c, 8, 62, 0
10, 301080, Note_on_c, 8, 60, 90
10, 301080, Note_on_c, 8, 72, 90
10, 301140, Note_on_c, 8, 64, 90
10, 301199, Note_on_c, 8, 64, 0
10, 301199, Note_on_c, 8, 72, 0
10, 301199, Note_on_c, 8, 60, 0
10, 301200, Note_on_c, 8, 65, 90
10, 301259, Note_on_c, 8, 65, 0
10, 301260, Note_on_c, 8, 67, 90
10, 301319, Note_on_c, 8, 67, 0
10, 301320, Note_on_c, 8, 65, 90
10, 301320, Note_on_c, 8, 69, 90
10, 301439, Note_on_c, 8, 69, 0
10, 301439, Note_on_c, 8, 65, 0
10, 301440, Note_on_c, 8, 64, 90
10, 301440, Note_on_c, 8, 67, 90
10, 301559, Note_on_c, 8, 67, 0
10, 301559, Note_on_c, 8, 64, 0
10, 301560, Note_on_c, 8, 65, 90
10, 301560, Note_on_c, 8, 69, 90
10, 301679, Note_on_c, 8, 69, 0
10, 301679, Note_on_c, 8, 65, 0
10, 301680, Note_on_c, 8, 74, 90
10, 301680, Note_on_c, 8, 70, 90
10, 301799, Note_on_c, 8, 70, 0
10, 301799, Note_on_c, 8, 74, 0
10, 301800, Note_on_c, 8, 65, 90
10, 301800, Note_on_c, 8, 72, 90
10, 301919, Note_on_c, 8, 72, 0
10, 301919, Note_on_c, 8, 65, 0
10, 301920, Note_on_c, 8, 64, 90
10, 301920, Note_on_c, 8, 70, 90
10, 302039, Note_on_c, 8, 70, 0
10, 302039, Note_on_c, 8, 64, 0
10, 302040, Note_on_c, 8, 65, 90
10, 302040, Note_on_c, 8, 72, 90
10, 302159, Note_on_c, 8, 72, 0
10, 302159, Note_on_c, 8, 65, 0
10, 302160, Note_on_c, 8, 65, 90
10, 302160, Note_on_c, 8, 69, 90
10, 302279, Note_on_c, 8, 69, 0
10, 302279, Note_on_c, 8, 65, 0
10, 302280, Note_on_c, 8, 70, 90
10, 302280, Note_on_c, 8, 74, 90
10, 302339, Note_on_c, 8, 74, 0
10, 302340, Note_on_c, 8, 76, 90
10, 302399, Note_on_c, 8, 76, 0
10, 302399, Note_on_c, 8, 70, 0
10, 302400, Note_on_c, 8, 69, 90
10, 302400, Note_on_c, 8, 72, 90
10, 302459, Note_on_c, 8, 72, 0
10, 302460, Note_on_c, 8, 74, 90
10, 302519, Note_on_c, 8, 74, 0
10, 302519, Note_on_c, 8, 69, 0
10, 302520, Note_on_c, 8, 67, 90
10, 302520, Note_on_c, 8, 70, 90
10, 302579, Note_on_c, 8, 70, 0
10, 302580, Note_on_c, 8, 72, 90
10, 302639, Note_on_c, 8, 72, 0
10, 302639, Note_on_c, 8, 67, 0
10, 302640, Note_on_c, 8, 65, 90
10, 302640, Note_on_c, 8, 69, 90
10, 302699, Note_on_c, 8, 69, 0
10, 302700, Note_on_c, 8, 70, 90
10, 302759, Note_on_c, 8, 70, 0
10, 302759, Note_on_c, 8, 65, 0
10, 302760, Note_on_c, 8, 67, 90
10, 302819, Note_on_c, 8, 67, 0
10, 302820, Note_on_c, 8, 65, 90
10, 302879, Note_on_c, 8, 65, 0
10, 302880, Note_on_c, 8, 64, 90
10, 302939, Note_on_c, 8, 64, 0
10, 302940, Note_on_c, 8, 62, 90
10, 302999, Note_on_c, 8, 62, 0
10, 303000, Note_on_c, 8, 60, 90
10, 303119, Note_on_c, 8, 60, 0
10, 303120, Note_on_c, 8, 67, 90
10, 303120, Note_on_c, 8, 64, 90
10, 303239, Note_on_c, 8, 64, 0
10, 303239, Note_on_c, 8, 67, 0
10, 303240, Note_on_c, 8, 69, 90
10, 303240, Note_on_c, 8, 65, 90
10, 303359, Note_on_c, 8, 65, 0
10, 303359, Note_on_c, 8, 69, 0
10, 303360, Note_on_c, 8, 72, 90
10, 303420, Note_on_c, 8, 72, 0
10, 303420, Note_on_c, 8, 74, 90
10, 303480, Note_on_c, 8, 74, 0
10, 303480, Note_on_c, 8, 67, 90
10, 303599, Note_on_c, 8, 67, 0
10, 303600, Note_on_c, 8, 64, 90
10, 303659, Note_on_c, 8, 64, 0
10, 303660, Note_on_c, 8, 65, 90
10, 303719, Note_on_c, 8, 65, 0
10, 303720, Note_on_c, 8, 60, 90
10, 303720, Note_on_c, 8, 65, 90
10, 304079, Note_on_c, 8, 65, 0
10, 304079, Note_on_c, 8, 60, 0
10, 304079, End_track
11, 0, Start_track
11, 0, MIDI_port, 0
11, 0, Title_t, "Clave l"
11, 0, Program_c, 10, 6
11, 360, Note_on_c, 10, 45, 90
11, 480, Note_on_c, 10, 45, 0
11, 480, Note_on_c, 10, 45, 90
11, 600, Note_on_c, 10, 45, 0
11, 600, Note_on_c, 10, 45, 90
11, 720, Note_on_c, 10, 45, 0
11, 720, Note_on_c, 10, 45, 90
11, 840, Note_on_c, 10, 45, 0
11, 840, Note_on_c, 10, 45, 90
11, 960, Note_on_c, 10, 45, 0
11, 960, Note_on_c, 10, 45, 90
11, 1080, Note_on_c, 10, 45, 0
11, 1080, Note_on_c, 10, 45, 90
11, 1200, Note_on_c, 10, 45, 0
11, 1200, Note_on_c, 10, 45, 90
11, 1320, Note_on_c, 10, 45, 0
11, 1320, Note_on_c, 10, 45, 90
11, 1440, Note_on_c, 10, 45, 0
11, 1440, Note_on_c, 10, 45, 90
11, 1560, Note_on_c, 10, 45, 0
11, 1560, Note_on_c, 10, 45, 90
11, 1680, Note_on_c, 10, 45, 0
11, 1680, Note_on_c, 10, 45, 90
11, 1800, Note_on_c, 10, 45, 0
11, 1800, Note_on_c, 10, 45, 90
11, 1920, Note_on_c, 10, 45, 0
11, 1920, Note_on_c, 10, 45, 90
11, 2040, Note_on_c, 10, 45, 0
11, 2040, Note_on_c, 10, 45, 90
11, 2160, Note_on_c, 10, 45, 0
11, 2160, Note_on_c, 10, 45, 90
11, 2280, Note_on_c, 10, 45, 0
11, 2280, Note_on_c, 10, 45, 90
11, 2400, Note_on_c, 10, 45, 0
11, 2400, Note_on_c, 10, 45, 90
11, 2520, Note_on_c, 10, 45, 0
11, 2520, Note_on_c, 10, 45, 90
11, 2640, Note_on_c, 10, 45, 0
11, 2640, Note_on_c, 10, 45, 90
11, 2760, Note_on_c, 10, 45, 0
11, 2760, Note_on_c, 10, 45, 90
11, 2880, Note_on_c, 10, 45, 0
11, 2880, Note_on_c, 10, 45, 90
11, 2940, Note_on_c, 10, 45, 0
11, 2940, Note_on_c, 10, 57, 90
11, 2970, Note_on_c, 10, 57, 0
11, 2970, Note_on_c, 10, 59, 90
11, 3000, Note_on_c, 10, 59, 0
11, 3000, Note_on_c, 10, 61, 90
11, 3060, Note_on_c, 10, 61, 0
11, 3060, Note_on_c, 10, 62, 90
11, 3120, Note_on_c, 10, 62, 0
11, 3120, Note_on_c, 10, 61, 90
11, 3180, Note_on_c, 10, 61, 0
11, 3180, Note_on_c, 10, 59, 90
11, 3240, Note_on_c, 10, 59, 0
11, 3240, Note_on_c, 10, 57, 90
11, 3360, Note_on_c, 10, 57, 0
11, 3360, Note_on_c, 10, 57, 90
11, 3480, Note_on_c, 10, 57, 0
11, 3480, Note_on_c, 10, 59, 90
11, 3540, Note_on_c, 10, 59, 0
11, 3540, Note_on_c, 10, 57, 90
11, 3600, Note_on_c, 10, 57, 0
11, 3600, Note_on_c, 10, 52, 90
11, 3659, Note_on_c, 10, 52, 0
11, 3660, Note_on_c, 10, 56, 90
11, 3719, Note_on_c, 10, 56, 0
11, 3720, Note_on_c, 10, 57, 90
11, 3839, Note_on_c, 10, 57, 0
11, 3840, Note_on_c, 10, 45, 90
11, 3899, Note_on_c, 10, 45, 0
11, 3900, Note_on_c, 10, 57, 90
11, 3929, Note_on_c, 10, 57, 0
11, 3930, Note_on_c, 10, 59, 90
11, 3959, Note_on_c, 10, 59, 0
11, 3960, Note_on_c, 10, 61, 90
11, 4019, Note_on_c, 10, 61, 0
11, 4020, Note_on_c, 10, 62, 90
11, 4079, Note_on_c, 10, 62, 0
11, 4080, Note_on_c, 10, 61, 90
11, 4139, Note_on_c, 10, 61, 0
11, 4140, Note_on_c, 10, 59, 90
11, 4199, Note_on_c, 10, 59, 0
11, 4200, Note_on_c, 10, 57, 90
11, 4319, Note_on_c, 10, 57, 0
11, 4320, Note_on_c, 10, 45, 90
11, 4379, Note_on_c, 10, 45, 0
11, 4380, Note_on_c, 10, 57, 90
11, 4439, Note_on_c, 10, 57, 0
11, 4440, Note_on_c, 10, 59, 90
11, 4499, Note_on_c, 10, 59, 0
11, 4500, Note_on_c, 10, 57, 90
11, 4559, Note_on_c, 10, 57, 0
11, 4560, Note_on_c, 10, 56, 90
11, 4619, Note_on_c, 10, 56, 0
11, 4620, Note_on_c, 10, 52, 90
11, 4679, Note_on_c, 10, 52, 0
11, 4680, Note_on_c, 10, 57, 90
11, 4799, Note_on_c, 10, 57, 0
11, 4800, Note_on_c, 10, 45, 90
11, 4859, Note_on_c, 10, 45, 0
11, 4860, Note_on_c, 10, 57, 90
11, 4919, Note_on_c, 10, 57, 0
11, 4920, Note_on_c, 10, 59, 90
11, 4979, Note_on_c, 10, 59, 0
11, 4980, Note_on_c, 10, 61, 90
11, 5039, Note_on_c, 10, 61, 0
11, 5040, Note_on_c, 10, 57, 90
11, 5099, Note_on_c, 10, 57, 0
11, 5100, Note_on_c, 10, 59, 90
11, 5159, Note_on_c, 10, 59, 0
11, 5160, Note_on_c, 10, 61, 90
11, 5279, Note_on_c, 10, 61, 0
11, 5280, Note_on_c, 10, 62, 90
11, 5339, Note_on_c, 10, 62, 0
11, 5340, Note_on_c, 10, 61, 90
11, 5399, Note_on_c, 10, 61, 0
11, 5400, Note_on_c, 10, 57, 90
11, 5459, Note_on_c, 10, 57, 0
11, 5460, Note_on_c, 10, 45, 90
11, 5519, Note_on_c, 10, 45, 0
11, 5520, Note_on_c, 10, 45, 90
11, 5579, Note_on_c, 10, 45, 0
11, 5580, Note_on_c, 10, 57, 90
11, 5639, Note_on_c, 10, 57, 0
11, 5640, Note_on_c, 10, 59, 90
11, 5699, Note_on_c, 10, 59, 0
11, 5700, Note_on_c, 10, 61, 90
11, 5759, Note_on_c, 10, 61, 0
11, 5760, Note_on_c, 10, 57, 90
11, 5819, Note_on_c, 10, 57, 0
11, 5820, Note_on_c, 10, 59, 90
11, 5879, Note_on_c, 10, 59, 0
11, 5880, Note_on_c, 10, 61, 90
11, 5999, Note_on_c, 10, 61, 0
11, 6000, Note_on_c, 10, 62, 90
11, 6059, Note_on_c, 10, 62, 0
11, 6060, Note_on_c, 10, 61, 90
11, 6119, Note_on_c, 10, 61, 0
11, 6120, Note_on_c, 10, 57, 90
11, 6179, Note_on_c, 10, 57, 0
11, 6180, Note_on_c, 10, 57, 90
11, 6239, Note_on_c, 10, 57, 0
11, 6240, Note_on_c, 10, 59, 90
11, 6299, Note_on_c, 10, 59, 0
11, 6300, Note_on_c, 10, 56, 90
11, 6359, Note_on_c, 10, 56, 0
11, 6360, Note_on_c, 10, 56, 90
11, 6419, Note_on_c, 10, 56, 0
11, 6420, Note_on_c, 10, 57, 90
11, 6479, Note_on_c, 10, 57, 0
11, 6480, Note_on_c, 10, 45, 90
11, 6539, Note_on_c, 10, 45, 0
11, 6540, Note_on_c, 10, 49, 90
11, 6599, Note_on_c, 10, 49, 0
11, 6600, Note_on_c, 10, 50, 90
11, 6659, Note_on_c, 10, 50, 0
11, 6660, Note_on_c, 10, 49, 90
11, 6689, Note_on_c, 10, 49, 0
11, 6690, Note_on_c, 10, 50, 90
11, 6719, Note_on_c, 10, 50, 0
11, 6720, Note_on_c, 10, 52, 90
11, 6779, Note_on_c, 10, 52, 0
11, 6780, Note_on_c, 10, 45, 90
11, 6899, Note_on_c, 10, 45, 0
11, 6900, Note_on_c, 10, 57, 90
11, 6959, Note_on_c, 10, 57, 0
11, 6960, Note_on_c, 10, 59, 90
11, 7019, Note_on_c, 10, 59, 0
11, 7020, Note_on_c, 10, 56, 90
11, 7079, Note_on_c, 10, 56, 0
11, 7080, Note_on_c, 10, 56, 90
11, 7139, Note_on_c, 10, 56, 0
11, 7140, Note_on_c, 10, 57, 90
11, 7199, Note_on_c, 10, 57, 0
11, 7200, Note_on_c, 10, 45, 90
11, 7259, Note_on_c, 10, 45, 0
11, 7260, Note_on_c, 10, 49, 90
11, 7319, Note_on_c, 10, 49, 0
11, 7320, Note_on_c, 10, 50, 90
11, 7379, Note_on_c, 10, 50, 0
11, 7380, Note_on_c, 10, 49, 90
11, 7409, Note_on_c, 10, 49, 0
11, 7410, Note_on_c, 10, 50, 90
11, 7439, Note_on_c, 10, 50, 0
11, 7440, Note_on_c, 10, 52, 90
11, 7499, Note_on_c, 10, 52, 0
11, 7500, Note_on_c, 10, 45, 90
11, 7619, Note_on_c, 10, 45, 0
11, 7620, Note_on_c, 10, 52, 90
11, 7679, Note_on_c, 10, 52, 0
11, 7680, Note_on_c, 10, 52, 90
11, 7739, Note_on_c, 10, 52, 0
11, 7740, Note_on_c, 10, 52, 90
11, 7799, Note_on_c, 10, 52, 0
11, 7800, Note_on_c, 10, 47, 90
11, 7859, Note_on_c, 10, 47, 0
11, 7860, Note_on_c, 10, 47, 90
11, 7919, Note_on_c, 10, 47, 0
11, 7920, Note_on_c, 10, 52, 90
11, 8039, Note_on_c, 10, 52, 0
11, 8100, Note_on_c, 10, 52, 90
11, 8159, Note_on_c, 10, 52, 0
11, 8160, Note_on_c, 10, 52, 90
11, 8219, Note_on_c, 10, 52, 0
11, 8220, Note_on_c, 10, 52, 90
11, 8279, Note_on_c, 10, 52, 0
11, 8280, Note_on_c, 10, 47, 90
11, 8339, Note_on_c, 10, 47, 0
11, 8340, Note_on_c, 10, 47, 90
11, 8399, Note_on_c, 10, 47, 0
11, 8400, Note_on_c, 10, 52, 90
11, 8459, Note_on_c, 10, 52, 0
11, 8460, Note_on_c, 10, 52, 90
11, 8519, Note_on_c, 10, 52, 0
11, 8520, Note_on_c, 10, 52, 90
11, 8579, Note_on_c, 10, 52, 0
11, 8580, Note_on_c, 10, 52, 90
11, 8639, Note_on_c, 10, 52, 0
11, 8640, Note_on_c, 10, 52, 90
11, 8699, Note_on_c, 10, 52, 0
11, 8700, Note_on_c, 10, 52, 90
11, 8759, Note_on_c, 10, 52, 0
11, 8760, Note_on_c, 10, 47, 90
11, 8819, Note_on_c, 10, 47, 0
11, 8820, Note_on_c, 10, 47, 90
11, 8879, Note_on_c, 10, 47, 0
11, 8880, Note_on_c, 10, 52, 90
11, 8999, Note_on_c, 10, 52, 0
11, 9060, Note_on_c, 10, 52, 90
11, 9119, Note_on_c, 10, 52, 0
11, 9120, Note_on_c, 10, 52, 90
11, 9179, Note_on_c, 10, 52, 0
11, 9180, Note_on_c, 10, 52, 90
11, 9239, Note_on_c, 10, 52, 0
11, 9240, Note_on_c, 10, 47, 90
11, 9299, Note_on_c, 10, 47, 0
11, 9300, Note_on_c, 10, 47, 90
11, 9359, Note_on_c, 10, 47, 0
11, 9360, Note_on_c, 10, 52, 90
11, 9419, Note_on_c, 10, 52, 0
11, 9420, Note_on_c, 10, 40, 90
11, 9479, Note_on_c, 10, 40, 0
11, 9480, Note_on_c, 10, 52, 90
11, 9539, Note_on_c, 10, 52, 0
11, 9600, Note_on_c, 10, 52, 90
11, 9659, Note_on_c, 10, 52, 0
11, 9660, Note_on_c, 10, 52, 90
11, 9719, Note_on_c, 10, 52, 0
11, 9720, Note_on_c, 10, 52, 90
11, 9779, Note_on_c, 10, 52, 0
11, 9840, Note_on_c, 10, 52, 90
11, 9899, Note_on_c, 10, 52, 0
11, 9900, Note_on_c, 10, 52, 90
11, 9959, Note_on_c, 10, 52, 0
11, 9960, Note_on_c, 10, 52, 90
11, 10019, Note_on_c, 10, 52, 0
11, 10080, Note_on_c, 10, 57, 90
11, 10199, Note_on_c, 10, 57, 0
11, 10200, Note_on_c, 10, 52, 90
11, 10319, Note_on_c, 10, 52, 0
11, 10320, Note_on_c, 10, 45, 90
11, 10379, Note_on_c, 10, 45, 0
11, 10380, Note_on_c, 10, 45, 90
11, 10439, Note_on_c, 10, 45, 0
11, 10440, Note_on_c, 10, 45, 90
11, 10499, Note_on_c, 10, 45, 0
11, 10560, Note_on_c, 10, 52, 90
11, 10619, Note_on_c, 10, 52, 0
11, 10620, Note_on_c, 10, 52, 90
11, 10679, Note_on_c, 10, 52, 0
11, 10680, Note_on_c, 10, 52, 90
11, 10739, Note_on_c, 10, 52, 0
11, 10800, Note_on_c, 10, 52, 90
11, 10859, Note_on_c, 10, 52, 0
11, 10860, Note_on_c, 10, 52, 90
11, 10919, Note_on_c, 10, 52, 0
11, 10920, Note_on_c, 10, 52, 90
11, 10979, Note_on_c, 10, 52, 0
11, 11040, Note_on_c, 10, 57, 90
11, 11159, Note_on_c, 10, 57, 0
11, 11160, Note_on_c, 10, 52, 90
11, 11279, Note_on_c, 10, 52, 0
11, 11280, Note_on_c, 10, 45, 90
11, 11339, Note_on_c, 10, 45, 0
11, 11340, Note_on_c, 10, 57, 90
11, 11369, Note_on_c, 10, 57, 0
11, 11370, Note_on_c, 10, 59, 90
11, 11399, Note_on_c, 10, 59, 0
11, 11400, Note_on_c, 10, 60, 90
11, 11459, Note_on_c, 10, 60, 0
11, 11460, Note_on_c, 10, 59, 90
11, 11519, Note_on_c, 10, 59, 0
11, 11520, Note_on_c, 10, 57, 90
11, 11579, Note_on_c, 10, 57, 0
11, 11580, Note_on_c, 10, 55, 90
11, 11639, Note_on_c, 10, 55, 0
11, 11640, Note_on_c, 10, 53, 90
11, 11699, Note_on_c, 10, 53, 0
11, 11700, Note_on_c, 10, 52, 90
11, 11759, Note_on_c, 10, 52, 0
11, 11760, Note_on_c, 10, 52, 90
11, 11999, Note_on_c, 10, 52, 0
11, 12000, Note_on_c, 10, 50, 90
11, 12059, Note_on_c, 10, 50, 0
11, 12060, Note_on_c, 10, 52, 90
11, 12119, Note_on_c, 10, 52, 0
11, 12120, Note_on_c, 10, 53, 90
11, 12179, Note_on_c, 10, 53, 0
11, 12180, Note_on_c, 10, 52, 90
11, 12239, Note_on_c, 10, 52, 0
11, 12240, Note_on_c, 10, 50, 90
11, 12299, Note_on_c, 10, 50, 0
11, 12300, Note_on_c, 10, 48, 90
11, 12359, Note_on_c, 10, 48, 0
11, 12360, Note_on_c, 10, 47, 90
11, 12419, Note_on_c, 10, 47, 0
11, 12420, Note_on_c, 10, 45, 90
11, 12479, Note_on_c, 10, 45, 0
11, 12480, Note_on_c, 10, 45, 90
11, 12719, Note_on_c, 10, 45, 0
11, 12720, Note_on_c, 10, 45, 90
11, 12779, Note_on_c, 10, 45, 0
11, 12780, Note_on_c, 10, 57, 90
11, 12809, Note_on_c, 10, 57, 0
11, 12810, Note_on_c, 10, 59, 90
11, 12839, Note_on_c, 10, 59, 0
11, 12840, Note_on_c, 10, 60, 90
11, 12899, Note_on_c, 10, 60, 0
11, 12900, Note_on_c, 10, 59, 90
11, 12959, Note_on_c, 10, 59, 0
11, 12960, Note_on_c, 10, 57, 90
11, 13019, Note_on_c, 10, 57, 0
11, 13020, Note_on_c, 10, 55, 90
11, 13079, Note_on_c, 10, 55, 0
11, 13080, Note_on_c, 10, 53, 90
11, 13139, Note_on_c, 10, 53, 0
11, 13140, Note_on_c, 10, 52, 90
11, 13199, Note_on_c, 10, 52, 0
11, 13200, Note_on_c, 10, 52, 90
11, 13439, Note_on_c, 10, 52, 0
11, 13440, Note_on_c, 10, 50, 90
11, 13499, Note_on_c, 10, 50, 0
11, 13500, Note_on_c, 10, 52, 90
11, 13559, Note_on_c, 10, 52, 0
11, 13560, Note_on_c, 10, 53, 90
11, 13619, Note_on_c, 10, 53, 0
11, 13620, Note_on_c, 10, 52, 90
11, 13679, Note_on_c, 10, 52, 0
11, 13680, Note_on_c, 10, 50, 90
11, 13739, Note_on_c, 10, 50, 0
11, 13740, Note_on_c, 10, 48, 90
11, 13799, Note_on_c, 10, 48, 0
11, 13800, Note_on_c, 10, 47, 90
11, 13859, Note_on_c, 10, 47, 0
11, 13860, Note_on_c, 10, 45, 90
11, 13919, Note_on_c, 10, 45, 0
11, 13920, Note_on_c, 10, 45, 90
11, 14159, Note_on_c, 10, 45, 0
11, 14160, Note_on_c, 10, 53, 90
11, 14219, Note_on_c, 10, 53, 0
11, 14220, Note_on_c, 10, 52, 90
11, 14279, Note_on_c, 10, 52, 0
11, 14280, Note_on_c, 10, 52, 90
11, 14519, Note_on_c, 10, 52, 0
11, 14520, Note_on_c, 10, 46, 90
11, 14579, Note_on_c, 10, 46, 0
11, 14580, Note_on_c, 10, 45, 90
11, 14639, Note_on_c, 10, 45, 0
11, 14640, Note_on_c, 10, 45, 90
11, 14879, Note_on_c, 10, 45, 0
11, 14880, Note_on_c, 10, 50, 90
11, 14939, Note_on_c, 10, 50, 0
11, 14940, Note_on_c, 10, 52, 90
11, 14999, Note_on_c, 10, 52, 0
11, 15000, Note_on_c, 10, 53, 90
11, 15059, Note_on_c, 10, 53, 0
11, 15060, Note_on_c, 10, 52, 90
11, 15119, Note_on_c, 10, 52, 0
11, 15120, Note_on_c, 10, 50, 90
11, 15179, Note_on_c, 10, 50, 0
11, 15180, Note_on_c, 10, 48, 90
11, 15239, Note_on_c, 10, 48, 0
11, 15240, Note_on_c, 10, 47, 90
11, 15299, Note_on_c, 10, 47, 0
11, 15300, Note_on_c, 10, 45, 90
11, 15359, Note_on_c, 10, 45, 0
11, 15360, Note_on_c, 10, 45, 90
11, 15599, Note_on_c, 10, 45, 0
11, 15600, Note_on_c, 10, 53, 90
11, 15659, Note_on_c, 10, 53, 0
11, 15660, Note_on_c, 10, 52, 90
11, 15719, Note_on_c, 10, 52, 0
11, 15720, Note_on_c, 10, 52, 90
11, 15959, Note_on_c, 10, 52, 0
11, 15960, Note_on_c, 10, 46, 90
11, 16019, Note_on_c, 10, 46, 0
11, 16020, Note_on_c, 10, 45, 90
11, 16079, Note_on_c, 10, 45, 0
11, 16080, Note_on_c, 10, 45, 90
11, 16319, Note_on_c, 10, 45, 0
11, 16320, Note_on_c, 10, 50, 90
11, 16379, Note_on_c, 10, 50, 0
11, 16380, Note_on_c, 10, 52, 90
11, 16439, Note_on_c, 10, 52, 0
11, 16440, Note_on_c, 10, 53, 90
11, 16499, Note_on_c, 10, 53, 0
11, 16500, Note_on_c, 10, 52, 90
11, 16559, Note_on_c, 10, 52, 0
11, 16560, Note_on_c, 10, 50, 90
11, 16619, Note_on_c, 10, 50, 0
11, 16620, Note_on_c, 10, 48, 90
11, 16679, Note_on_c, 10, 48, 0
11, 16680, Note_on_c, 10, 47, 90
11, 16739, Note_on_c, 10, 47, 0
11, 16740, Note_on_c, 10, 45, 90
11, 16799, Note_on_c, 10, 45, 0
11, 16800, Note_on_c, 10, 45, 90
11, 17039, Note_on_c, 10, 45, 0
11, 17040, Note_on_c, 10, 57, 90
11, 17069, Note_on_c, 10, 57, 0
11, 17070, Note_on_c, 10, 60, 90
11, 17099, Note_on_c, 10, 60, 0
11, 17100, Note_on_c, 10, 59, 90
11, 17129, Note_on_c, 10, 59, 0
11, 17130, Note_on_c, 10, 60, 90
11, 17159, Note_on_c, 10, 60, 0
11, 17160, Note_on_c, 10, 62, 90
11, 17219, Note_on_c, 10, 62, 0
11, 17220, Note_on_c, 10, 60, 90
11, 17279, Note_on_c, 10, 60, 0
11, 17280, Note_on_c, 10, 59, 90
11, 17339, Note_on_c, 10, 59, 0
11, 17340, Note_on_c, 10, 56, 90
11, 17399, Note_on_c, 10, 56, 0
11, 17400, Note_on_c, 10, 57, 90
11, 17459, Note_on_c, 10, 57, 0
11, 17460, Note_on_c, 10, 45, 90
11, 17519, Note_on_c, 10, 45, 0
11, 17520, Note_on_c, 10, 50, 90
11, 17579, Note_on_c, 10, 50, 0
11, 17580, Note_on_c, 10, 52, 90
11, 17609, Note_on_c, 10, 52, 0
11, 17610, Note_on_c, 10, 53, 90
11, 17639, Note_on_c, 10, 53, 0
11, 17640, Note_on_c, 10, 52, 90
11, 17699, Note_on_c, 10, 52, 0
11, 17700, Note_on_c, 10, 40, 90
11, 17759, Note_on_c, 10, 40, 0
11, 17760, Note_on_c, 10, 45, 90
11, 17879, Note_on_c, 10, 45, 0
11, 17940, Note_on_c, 10, 57, 90
11, 17969, Note_on_c, 10, 57, 0
11, 17970, Note_on_c, 10, 59, 90
11, 17999, Note_on_c, 10, 59, 0
11, 18000, Note_on_c, 10, 60, 90
11, 18059, Note_on_c, 10, 60, 0
11, 18060, Note_on_c, 10, 59, 90
11, 18089, Note_on_c, 10, 59, 0
11, 18090, Note_on_c, 10, 60, 90
11, 18119, Note_on_c, 10, 60, 0
11, 18120, Note_on_c, 10, 62, 90
11, 18179, Note_on_c, 10, 62, 0
11, 18180, Note_on_c, 10, 60, 90
11, 18239, Note_on_c, 10, 60, 0
11, 18240, Note_on_c, 10, 59, 90
11, 18299, Note_on_c, 10, 59, 0
11, 18300, Note_on_c, 10, 56, 90
11, 18359, Note_on_c, 10, 56, 0
11, 18360, Note_on_c, 10, 57, 90
11, 18419, Note_on_c, 10, 57, 0
11, 18420, Note_on_c, 10, 45, 90
11, 18479, Note_on_c, 10, 45, 0
11, 18480, Note_on_c, 10, 50, 90
11, 18539, Note_on_c, 10, 50, 0
11, 18540, Note_on_c, 10, 52, 90
11, 18569, Note_on_c, 10, 52, 0
11, 18570, Note_on_c, 10, 53, 90
11, 18599, Note_on_c, 10, 53, 0
11, 18600, Note_on_c, 10, 52, 90
11, 18659, Note_on_c, 10, 52, 0
11, 18660, Note_on_c, 10, 40, 90
11, 18719, Note_on_c, 10, 40, 0
11, 18720, Note_on_c, 10, 45, 90
11, 18839, Note_on_c, 10, 45, 0
11, 18840, Note_on_c, 10, 45, 90
11, 18959, Note_on_c, 10, 45, 0
11, 18960, Note_on_c, 10, 45, 90
11, 19079, Note_on_c, 10, 45, 0
11, 19080, Note_on_c, 10, 45, 90
11, 19199, Note_on_c, 10, 45, 0
11, 19200, Note_on_c, 10, 45, 90
11, 19319, Note_on_c, 10, 45, 0
11, 19320, Note_on_c, 10, 45, 90
11, 19439, Note_on_c, 10, 45, 0
11, 19440, Note_on_c, 10, 45, 90
11, 19559, Note_on_c, 10, 45, 0
11, 19560, Note_on_c, 10, 45, 90
11, 19679, Note_on_c, 10, 45, 0
11, 19680, Note_on_c, 10, 45, 90
11, 19799, Note_on_c, 10, 45, 0
11, 19800, Note_on_c, 10, 45, 90
11, 19919, Note_on_c, 10, 45, 0
11, 19920, Note_on_c, 10, 45, 90
11, 20039, Note_on_c, 10, 45, 0
11, 20040, Note_on_c, 10, 45, 90
11, 20159, Note_on_c, 10, 45, 0
11, 20160, Note_on_c, 10, 45, 90
11, 20279, Note_on_c, 10, 45, 0
11, 20280, Note_on_c, 10, 45, 90
11, 20399, Note_on_c, 10, 45, 0
11, 20400, Note_on_c, 10, 45, 90
11, 20519, Note_on_c, 10, 45, 0
11, 20520, Note_on_c, 10, 45, 90
11, 20639, Note_on_c, 10, 45, 0
11, 20640, Note_on_c, 10, 45, 90
11, 20759, Note_on_c, 10, 45, 0
11, 20760, Note_on_c, 10, 45, 90
11, 20879, Note_on_c, 10, 45, 0
11, 20880, Note_on_c, 10, 45, 90
11, 20999, Note_on_c, 10, 45, 0
11, 21000, Note_on_c, 10, 45, 90
11, 21119, Note_on_c, 10, 45, 0
11, 21120, Note_on_c, 10, 45, 90
11, 21239, Note_on_c, 10, 45, 0
11, 21240, Note_on_c, 10, 45, 90
11, 21359, Note_on_c, 10, 45, 0
11, 21720, Note_on_c, 10, 59, 90
11, 21779, Note_on_c, 10, 59, 0
11, 21780, Note_on_c, 10, 57, 90
11, 21839, Note_on_c, 10, 57, 0
11, 21840, Note_on_c, 10, 59, 90
11, 21899, Note_on_c, 10, 59, 0
11, 21900, Note_on_c, 10, 57, 90
11, 21959, Note_on_c, 10, 57, 0
11, 21960, Note_on_c, 10, 59, 90
11, 22079, Note_on_c, 10, 59, 0
11, 22080, Note_on_c, 10, 52, 90
11, 22199, Note_on_c, 10, 52, 0
11, 22440, Note_on_c, 10, 57, 90
11, 22499, Note_on_c, 10, 57, 0
11, 22500, Note_on_c, 10, 56, 90
11, 22559, Note_on_c, 10, 56, 0
11, 22560, Note_on_c, 10, 57, 90
11, 22619, Note_on_c, 10, 57, 0
11, 22620, Note_on_c, 10, 56, 90
11, 22679, Note_on_c, 10, 56, 0
11, 22680, Note_on_c, 10, 57, 90
11, 22799, Note_on_c, 10, 57, 0
11, 22800, Note_on_c, 10, 45, 90
11, 22919, Note_on_c, 10, 45, 0
11, 23280, Note_on_c, 10, 57, 90
11, 23339, Note_on_c, 10, 57, 0
11, 23340, Note_on_c, 10, 61, 90
11, 23399, Note_on_c, 10, 61, 0
11, 23400, Note_on_c, 10, 59, 90
11, 23519, Note_on_c, 10, 59, 0
11, 23520, Note_on_c, 10, 57, 90
11, 23639, Note_on_c, 10, 57, 0
11, 23640, Note_on_c, 10, 57, 90
11, 23699, Note_on_c, 10, 57, 0
11, 23700, Note_on_c, 10, 56, 90
11, 23759, Note_on_c, 10, 56, 0
11, 23760, Note_on_c, 10, 54, 90
11, 23819, Note_on_c, 10, 54, 0
11, 23820, Note_on_c, 10, 52, 90
11, 23879, Note_on_c, 10, 52, 0
11, 23880, Note_on_c, 10, 50, 90
11, 23939, Note_on_c, 10, 50, 0
11, 23940, Note_on_c, 10, 49, 90
11, 23999, Note_on_c, 10, 49, 0
11, 24000, Note_on_c, 10, 47, 90
11, 24059, Note_on_c, 10, 47, 0
11, 24060, Note_on_c, 10, 52, 90
11, 24119, Note_on_c, 10, 52, 0
11, 24120, Note_on_c, 10, 45, 90
11, 24359, Note_on_c, 10, 45, 0
11, 24600, Note_on_c, 10, 59, 90
11, 24659, Note_on_c, 10, 59, 0
11, 24660, Note_on_c, 10, 57, 90
11, 24719, Note_on_c, 10, 57, 0
11, 24720, Note_on_c, 10, 59, 90
11, 24779, Note_on_c, 10, 59, 0
11, 24780, Note_on_c, 10, 57, 90
11, 24839, Note_on_c, 10, 57, 0
11, 24840, Note_on_c, 10, 59, 90
11, 24959, Note_on_c, 10, 59, 0
11, 24960, Note_on_c, 10, 47, 90
11, 25079, Note_on_c, 10, 47, 0
11, 25320, Note_on_c, 10, 57, 90
11, 25379, Note_on_c, 10, 57, 0
11, 25380, Note_on_c, 10, 56, 90
11, 25439, Note_on_c, 10, 56, 0
11, 25440, Note_on_c, 10, 57, 90
11, 25499, Note_on_c, 10, 57, 0
11, 25500, Note_on_c, 10, 56, 90
11, 25559, Note_on_c, 10, 56, 0
11, 25560, Note_on_c, 10, 57, 90
11, 25679, Note_on_c, 10, 57, 0
11, 25680, Note_on_c, 10, 45, 90
11, 25799, Note_on_c, 10, 45, 0
11, 26160, Note_on_c, 10, 57, 90
11, 26219, Note_on_c, 10, 57, 0
11, 26220, Note_on_c, 10, 61, 90
11, 26279, Note_on_c, 10, 61, 0
11, 26280, Note_on_c, 10, 59, 90
11, 26399, Note_on_c, 10, 59, 0
11, 26400, Note_on_c, 10, 57, 90
11, 26519, Note_on_c, 10, 57, 0
11, 27060, Note_on_c, 10, 45, 90
11, 27119, Note_on_c, 10, 45, 0
11, 27120, Note_on_c, 10, 49, 90
11, 27179, Note_on_c, 10, 49, 0
11, 27180, Note_on_c, 10, 52, 90
11, 27239, Note_on_c, 10, 52, 0
11, 27240, Note_on_c, 10, 57, 90
11, 27299, Note_on_c, 10, 57, 0
11, 27300, Note_on_c, 10, 56, 90
11, 27359, Note_on_c, 10, 56, 0
11, 27360, Note_on_c, 10, 54, 90
11, 27419, Note_on_c, 10, 54, 0
11, 27420, Note_on_c, 10, 52, 90
11, 27479, Note_on_c, 10, 52, 0
11, 27480, Note_on_c, 10, 50, 90
11, 27539, Note_on_c, 10, 50, 0
11, 27540, Note_on_c, 10, 49, 90
11, 27599, Note_on_c, 10, 49, 0
11, 27600, Note_on_c, 10, 47, 90
11, 27659, Note_on_c, 10, 47, 0
11, 27660, Note_on_c, 10, 52, 90
11, 27719, Note_on_c, 10, 52, 0
11, 27720, Note_on_c, 10, 45, 90
11, 27959, Note_on_c, 10, 45, 0
11, 28440, Note_on_c, 10, 45, 90
11, 28559, Note_on_c, 10, 45, 0
11, 28560, Note_on_c, 10, 57, 90
11, 28679, Note_on_c, 10, 57, 0
11, 28920, Note_on_c, 10, 50, 90
11, 29039, Note_on_c, 10, 50, 0
11, 29040, Note_on_c, 10, 52, 90
11, 29159, Note_on_c, 10, 52, 0
11, 29400, Note_on_c, 10, 57, 90
11, 29519, Note_on_c, 10, 57, 0
11, 29520, Note_on_c, 10, 54, 90
11, 29639, Note_on_c, 10, 54, 0
11, 29640, Note_on_c, 10, 50, 90
11, 29759, Note_on_c, 10, 50, 0
11, 29760, Note_on_c, 10, 52, 90
11, 29879, Note_on_c, 10, 52, 0
11, 29880, Note_on_c, 10, 40, 90
11, 29999, Note_on_c, 10, 40, 0
11, 30000, Note_on_c, 10, 45, 90
11, 30119, Note_on_c, 10, 45, 0
11, 30120, Note_on_c, 10, 49, 90
11, 30179, Note_on_c, 10, 49, 0
11, 30180, Note_on_c, 10, 52, 90
11, 30239, Note_on_c, 10, 52, 0
11, 30240, Note_on_c, 10, 57, 90
11, 30359, Note_on_c, 10, 57, 0
11, 30360, Note_on_c, 10, 45, 90
11, 30479, Note_on_c, 10, 45, 0
11, 30480, Note_on_c, 10, 57, 90
11, 30539, Note_on_c, 10, 57, 0
11, 30540, Note_on_c, 10, 56, 90
11, 30599, Note_on_c, 10, 56, 0
11, 30600, Note_on_c, 10, 54, 90
11, 30659, Note_on_c, 10, 54, 0
11, 30660, Note_on_c, 10, 52, 90
11, 30719, Note_on_c, 10, 52, 0
11, 30720, Note_on_c, 10, 50, 90
11, 30779, Note_on_c, 10, 50, 0
11, 30780, Note_on_c, 10, 49, 90
11, 30839, Note_on_c, 10, 49, 0
11, 30840, Note_on_c, 10, 47, 90
11, 30899, Note_on_c, 10, 47, 0
11, 30900, Note_on_c, 10, 45, 90
11, 30959, Note_on_c, 10, 45, 0
11, 30960, Note_on_c, 10, 52, 90
11, 31079, Note_on_c, 10, 52, 0
11, 31080, Note_on_c, 10, 56, 90
11, 31139, Note_on_c, 10, 56, 0
11, 31140, Note_on_c, 10, 59, 90
11, 31199, Note_on_c, 10, 59, 0
11, 31200, Note_on_c, 10, 64, 90
11, 31319, Note_on_c, 10, 64, 0
11, 31320, Note_on_c, 10, 57, 90
11, 31439, Note_on_c, 10, 57, 0
11, 31440, Note_on_c, 10, 56, 90
11, 31499, Note_on_c, 10, 56, 0
11, 31500, Note_on_c, 10, 52, 90
11, 31559, Note_on_c, 10, 52, 0
11, 31560, Note_on_c, 10, 57, 90
11, 31619, Note_on_c, 10, 57, 0
11, 31620, Note_on_c, 10, 50, 90
11, 31679, Note_on_c, 10, 50, 0
11, 31680, Note_on_c, 10, 52, 90
11, 31799, Note_on_c, 10, 52, 0
11, 31800, Note_on_c, 10, 40, 90
11, 31919, Note_on_c, 10, 40, 0
11, 31920, Note_on_c, 10, 45, 90
11, 32039, Note_on_c, 10, 45, 0
11, 32040, Note_on_c, 10, 49, 90
11, 32099, Note_on_c, 10, 49, 0
11, 32100, Note_on_c, 10, 52, 90
11, 32159, Note_on_c, 10, 52, 0
11, 32160, Note_on_c, 10, 57, 90
11, 32219, Note_on_c, 10, 57, 0
11, 32220, Note_on_c, 10, 56, 90
11, 32279, Note_on_c, 10, 56, 0
11, 32280, Note_on_c, 10, 57, 90
11, 32339, Note_on_c, 10, 57, 0
11, 32340, Note_on_c, 10, 59, 90
11, 32399, Note_on_c, 10, 59, 0
11, 32400, Note_on_c, 10, 61, 90
11, 32519, Note_on_c, 10, 61, 0
11, 32520, Note_on_c, 10, 61, 90
11, 32579, Note_on_c, 10, 61, 0
11, 32580, Note_on_c, 10, 59, 90
11, 32639, Note_on_c, 10, 59, 0
11, 32640, Note_on_c, 10, 61, 90
11, 32759, Note_on_c, 10, 61, 0
11, 32760, Note_on_c, 10, 57, 90
11, 32879, Note_on_c, 10, 57, 0
11, 32880, Note_on_c, 10, 62, 90
11, 32999, Note_on_c, 10, 62, 0
11, 33000, Note_on_c, 10, 61, 90
11, 33059, Note_on_c, 10, 61, 0
11, 33060, Note_on_c, 10, 59, 90
11, 33119, Note_on_c, 10, 59, 0
11, 33120, Note_on_c, 10, 61, 90
11, 33239, Note_on_c, 10, 61, 0
11, 33240, Note_on_c, 10, 57, 90
11, 33299, Note_on_c, 10, 57, 0
11, 33300, Note_on_c, 10, 59, 90
11, 33359, Note_on_c, 10, 59, 0
11, 33360, Note_on_c, 10, 61, 90
11, 33479, Note_on_c, 10, 61, 0
11, 33480, Note_on_c, 10, 57, 90
11, 33599, Note_on_c, 10, 57, 0
11, 33600, Note_on_c, 10, 56, 90
11, 33719, Note_on_c, 10, 56, 0
11, 33720, Note_on_c, 10, 57, 90
11, 33839, Note_on_c, 10, 57, 0
11, 33840, Note_on_c, 10, 52, 90
11, 33959, Note_on_c, 10, 52, 0
11, 33960, Note_on_c, 10, 56, 90
11, 34020, Note_on_c, 10, 56, 0
11, 34020, Note_on_c, 10, 59, 90
11, 34080, Note_on_c, 10, 59, 0
11, 34080, Note_on_c, 10, 64, 90
11, 34140, Note_on_c, 10, 64, 0
11, 34140, Note_on_c, 10, 62, 90
11, 34200, Note_on_c, 10, 62, 0
11, 34200, Note_on_c, 10, 61, 90
11, 34260, Note_on_c, 10, 61, 0
11, 34260, Note_on_c, 10, 59, 90
11, 34320, Note_on_c, 10, 59, 0
11, 34320, Note_on_c, 10, 57, 90
11, 34439, Note_on_c, 10, 57, 0
11, 34440, Note_on_c, 10, 52, 90
11, 34559, Note_on_c, 10, 52, 0
11, 34560, Note_on_c, 10, 49, 90
11, 34679, Note_on_c, 10, 49, 0
11, 34680, Note_on_c, 10, 45, 90
11, 34799, Note_on_c, 10, 45, 0
11, 34800, Note_on_c, 10, 52, 90
11, 34919, Note_on_c, 10, 52, 0
11, 34920, Note_on_c, 10, 56, 90
11, 34979, Note_on_c, 10, 56, 0
11, 34980, Note_on_c, 10, 54, 90
11, 35039, Note_on_c, 10, 54, 0
11, 35040, Note_on_c, 10, 56, 90
11, 35159, Note_on_c, 10, 56, 0
11, 35160, Note_on_c, 10, 57, 90
11, 35279, Note_on_c, 10, 57, 0
11, 35280, Note_on_c, 10, 54, 90
11, 35399, Note_on_c, 10, 54, 0
11, 35400, Note_on_c, 10, 50, 90
11, 35519, Note_on_c, 10, 50, 0
11, 35520, Note_on_c, 10, 52, 90
11, 35639, Note_on_c, 10, 52, 0
11, 35640, Note_on_c, 10, 40, 90
11, 35759, Note_on_c, 10, 40, 0
11, 35760, Note_on_c, 10, 45, 90
11, 35879, Note_on_c, 10, 45, 0
11, 35880, Note_on_c, 10, 49, 90
11, 35939, Note_on_c, 10, 49, 0
11, 35940, Note_on_c, 10, 52, 90
11, 35999, Note_on_c, 10, 52, 0
11, 36000, Note_on_c, 10, 57, 90
11, 36059, Note_on_c, 10, 57, 0
11, 36060, Note_on_c, 10, 56, 90
11, 36119, Note_on_c, 10, 56, 0
11, 36120, Note_on_c, 10, 57, 90
11, 36179, Note_on_c, 10, 57, 0
11, 36180, Note_on_c, 10, 59, 90
11, 36239, Note_on_c, 10, 59, 0
11, 36240, Note_on_c, 10, 61, 90
11, 36299, Note_on_c, 10, 61, 0
11, 36300, Note_on_c, 10, 59, 90
11, 36359, Note_on_c, 10, 59, 0
11, 36360, Note_on_c, 10, 61, 90
11, 36419, Note_on_c, 10, 61, 0
11, 36420, Note_on_c, 10, 59, 90
11, 36479, Note_on_c, 10, 59, 0
11, 36480, Note_on_c, 10, 61, 90
11, 36539, Note_on_c, 10, 61, 0
11, 36540, Note_on_c, 10, 57, 90
11, 36599, Note_on_c, 10, 57, 0
11, 36600, Note_on_c, 10, 59, 90
11, 36659, Note_on_c, 10, 59, 0
11, 36660, Note_on_c, 10, 61, 90
11, 36719, Note_on_c, 10, 61, 0
11, 36720, Note_on_c, 10, 62, 90
11, 36839, Note_on_c, 10, 62, 0
11, 36840, Note_on_c, 10, 57, 90
11, 36899, Note_on_c, 10, 57, 0
11, 36900, Note_on_c, 10, 56, 90
11, 36959, Note_on_c, 10, 56, 0
11, 36960, Note_on_c, 10, 57, 90
11, 37019, Note_on_c, 10, 57, 0
11, 37020, Note_on_c, 10, 56, 90
11, 37079, Note_on_c, 10, 56, 0
11, 37080, Note_on_c, 10, 57, 90
11, 37139, Note_on_c, 10, 57, 0
11, 37140, Note_on_c, 10, 59, 90
11, 37199, Note_on_c, 10, 59, 0
11, 37200, Note_on_c, 10, 61, 90
11, 37259, Note_on_c, 10, 61, 0
11, 37260, Note_on_c, 10, 57, 90
11, 37319, Note_on_c, 10, 57, 0
11, 37320, Note_on_c, 10, 59, 90
11, 37379, Note_on_c, 10, 59, 0
11, 37380, Note_on_c, 10, 61, 90
11, 37439, Note_on_c, 10, 61, 0
11, 37440, Note_on_c, 10, 62, 90
11, 37499, Note_on_c, 10, 62, 0
11, 37500, Note_on_c, 10, 61, 90
11, 37559, Note_on_c, 10, 61, 0
11, 37560, Note_on_c, 10, 59, 90
11, 37619, Note_on_c, 10, 59, 0
11, 37620, Note_on_c, 10, 57, 90
11, 37679, Note_on_c, 10, 57, 0
11, 37680, Note_on_c, 10, 64, 90
11, 37799, Note_on_c, 10, 64, 0
11, 37800, Note_on_c, 10, 52, 90
11, 37859, Note_on_c, 10, 52, 0
11, 37860, Note_on_c, 10, 54, 90
11, 37919, Note_on_c, 10, 54, 0
11, 37920, Note_on_c, 10, 52, 90
11, 37979, Note_on_c, 10, 52, 0
11, 37980, Note_on_c, 10, 50, 90
11, 38039, Note_on_c, 10, 50, 0
11, 38040, Note_on_c, 10, 49, 90
11, 38099, Note_on_c, 10, 49, 0
11, 38100, Note_on_c, 10, 47, 90
11, 38159, Note_on_c, 10, 47, 0
11, 38160, Note_on_c, 10, 45, 90
11, 38279, Note_on_c, 10, 45, 0
11, 38280, Note_on_c, 10, 57, 90
11, 38399, Note_on_c, 10, 57, 0
11, 38400, Note_on_c, 10, 56, 90
11, 38519, Note_on_c, 10, 56, 0
11, 38520, Note_on_c, 10, 57, 90
11, 38639, Note_on_c, 10, 57, 0
11, 38640, Note_on_c, 10, 52, 90
11, 38759, Note_on_c, 10, 52, 0
11, 38760, Note_on_c, 10, 40, 90
11, 38879, Note_on_c, 10, 40, 0
11, 38880, Note_on_c, 10, 40, 90
11, 38999, Note_on_c, 10, 40, 0
11, 39000, Note_on_c, 10, 44, 90
11, 39119, Note_on_c, 10, 44, 0
11, 39120, Note_on_c, 10, 45, 90
11, 39239, Note_on_c, 10, 45, 0
11, 39240, Note_on_c, 10, 42, 90
11, 39359, Note_on_c, 10, 42, 0
11, 39360, Note_on_c, 10, 38, 90
11, 39479, Note_on_c, 10, 38, 0
11, 39480, Note_on_c, 10, 40, 90
11, 39599, Note_on_c, 10, 40, 0
11, 39600, Note_on_c, 10, 45, 90
11, 39959, Note_on_c, 10, 45, 0
11, 40080, Note_on_c, 10, 49, 90
11, 41040, Note_on_c, 10, 49, 0
11, 41040, Note_on_c, 10, 50, 90
11, 41760, Note_on_c, 10, 50, 0
11, 41760, Note_on_c, 10, 46, 90
11, 42480, Note_on_c, 10, 46, 0
11, 42480, Note_on_c, 10, 47, 90
11, 42539, Note_on_c, 10, 47, 0
11, 42540, Note_on_c, 10, 59, 90
11, 42599, Note_on_c, 10, 59, 0
11, 42600, Note_on_c, 10, 54, 90
11, 42659, Note_on_c, 10, 54, 0
11, 42660, Note_on_c, 10, 50, 90
11, 42719, Note_on_c, 10, 50, 0
11, 42720, Note_on_c, 10, 55, 90
11, 42779, Note_on_c, 10, 55, 0
11, 42780, Note_on_c, 10, 55, 90
11, 42809, Note_on_c, 10, 55, 0
11, 42810, Note_on_c, 10, 55, 90
11, 42839, Note_on_c, 10, 55, 0
11, 42840, Note_on_c, 10, 55, 90
11, 42899, Note_on_c, 10, 55, 0
11, 42900, Note_on_c, 10, 55, 90
11, 42959, Note_on_c, 10, 55, 0
11, 42960, Note_on_c, 10, 55, 90
11, 43019, Note_on_c, 10, 55, 0
11, 43020, Note_on_c, 10, 54, 90
11, 43049, Note_on_c, 10, 54, 0
11, 43050, Note_on_c, 10, 52, 90
11, 43079, Note_on_c, 10, 52, 0
11, 43080, Note_on_c, 10, 50, 90
11, 43109, Note_on_c, 10, 50, 0
11, 43110, Note_on_c, 10, 48, 90
11, 43139, Note_on_c, 10, 48, 0
11, 43140, Note_on_c, 10, 47, 90
11, 43169, Note_on_c, 10, 47, 0
11, 43170, Note_on_c, 10, 45, 90
11, 43199, Note_on_c, 10, 45, 0
11, 43200, Note_on_c, 10, 43, 90
11, 43259, Note_on_c, 10, 43, 0
11, 43260, Note_on_c, 10, 43, 90
11, 43289, Note_on_c, 10, 43, 0
11, 43290, Note_on_c, 10, 43, 90
11, 43319, Note_on_c, 10, 43, 0
11, 43320, Note_on_c, 10, 43, 90
11, 43379, Note_on_c, 10, 43, 0
11, 43380, Note_on_c, 10, 43, 90
11, 43439, Note_on_c, 10, 43, 0
11, 43440, Note_on_c, 10, 43, 90
11, 43679, Note_on_c, 10, 43, 0
11, 43680, Note_on_c, 10, 47, 90
11, 43919, Note_on_c, 10, 47, 0
11, 43920, Note_on_c, 10, 52, 90
11, 44159, Note_on_c, 10, 52, 0
11, 44160, Note_on_c, 10, 50, 90
11, 44639, Note_on_c, 10, 50, 0
11, 44640, Note_on_c, 10, 44, 90
11, 45359, Note_on_c, 10, 44, 0
11, 45360, Note_on_c, 10, 53, 90
11, 45599, Note_on_c, 10, 53, 0
11, 45600, Note_on_c, 10, 54, 90
11, 45659, Note_on_c, 10, 54, 0
11, 45660, Note_on_c, 10, 42, 90
11, 45719, Note_on_c, 10, 42, 0
11, 45720, Note_on_c, 10, 44, 90
11, 45779, Note_on_c, 10, 44, 0
11, 45780, Note_on_c, 10, 45, 90
11, 45839, Note_on_c, 10, 45, 0
11, 45840, Note_on_c, 10, 47, 90
11, 45899, Note_on_c, 10, 47, 0
11, 45900, Note_on_c, 10, 45, 90
11, 45959, Note_on_c, 10, 45, 0
11, 45960, Note_on_c, 10, 47, 90
11, 46019, Note_on_c, 10, 47, 0
11, 46020, Note_on_c, 10, 49, 90
11, 46079, Note_on_c, 10, 49, 0
11, 46080, Note_on_c, 10, 50, 90
11, 46199, Note_on_c, 10, 50, 0
11, 46440, Note_on_c, 10, 49, 90
11, 46559, Note_on_c, 10, 49, 0
11, 46560, Note_on_c, 10, 42, 90
11, 46619, Note_on_c, 10, 42, 0
11, 46620, Note_on_c, 10, 54, 90
11, 46679, Note_on_c, 10, 54, 0
11, 46680, Note_on_c, 10, 52, 90
11, 46739, Note_on_c, 10, 52, 0
11, 46740, Note_on_c, 10, 50, 90
11, 46799, Note_on_c, 10, 50, 0
11, 46800, Note_on_c, 10, 49, 90
11, 46919, Note_on_c, 10, 49, 0
11, 46980, Note_on_c, 10, 47, 90
11, 47039, Note_on_c, 10, 47, 0
11, 47040, Note_on_c, 10, 45, 90
11, 47069, Note_on_c, 10, 45, 0
11, 47070, Note_on_c, 10, 47, 90
11, 47099, Note_on_c, 10, 47, 0
11, 47100, Note_on_c, 10, 49, 90
11, 47129, Note_on_c, 10, 49, 0
11, 47130, Note_on_c, 10, 50, 90
11, 47159, Note_on_c, 10, 50, 0
11, 47160, Note_on_c, 10, 52, 90
11, 47189, Note_on_c, 10, 52, 0
11, 47190, Note_on_c, 10, 54, 90
11, 47219, Note_on_c, 10, 54, 0
11, 47220, Note_on_c, 10, 56, 90
11, 47249, Note_on_c, 10, 56, 0
11, 47250, Note_on_c, 10, 52, 90
11, 47279, Note_on_c, 10, 52, 0
11, 47280, Note_on_c, 10, 57, 90
11, 47339, Note_on_c, 10, 57, 0
11, 47340, Note_on_c, 10, 54, 90
11, 47399, Note_on_c, 10, 54, 0
11, 47400, Note_on_c, 10, 50, 90
11, 47459, Note_on_c, 10, 50, 0
11, 47460, Note_on_c, 10, 52, 90
11, 47519, Note_on_c, 10, 52, 0
11, 47520, Note_on_c, 10, 45, 90
11, 47700, Note_on_c, 10, 45, 0
11, 47760, Note_on_c, 10, 45, 90
11, 47819, Note_on_c, 10, 45, 0
11, 47820, Note_on_c, 10, 47, 90
11, 47879, Note_on_c, 10, 47, 0
11, 47880, Note_on_c, 10, 49, 90
11, 47939, Note_on_c, 10, 49, 0
11, 47940, Note_on_c, 10, 50, 90
11, 47999, Note_on_c, 10, 50, 0
11, 48000, Note_on_c, 10, 52, 90
11, 48059, Note_on_c, 10, 52, 0
11, 48060, Note_on_c, 10, 50, 90
11, 48119, Note_on_c, 10, 50, 0
11, 48120, Note_on_c, 10, 49, 90
11, 48179, Note_on_c, 10, 49, 0
11, 48180, Note_on_c, 10, 45, 90
11, 48239, Note_on_c, 10, 45, 0
11, 48240, Note_on_c, 10, 52, 90
11, 48299, Note_on_c, 10, 52, 0
11, 48300, Note_on_c, 10, 54, 90
11, 48359, Note_on_c, 10, 54, 0
11, 48360, Note_on_c, 10, 52, 90
11, 48419, Note_on_c, 10, 52, 0
11, 48420, Note_on_c, 10, 50, 90
11, 48479, Note_on_c, 10, 50, 0
11, 48480, Note_on_c, 10, 49, 90
11, 48539, Note_on_c, 10, 49, 0
11, 48540, Note_on_c, 10, 45, 90
11, 48599, Note_on_c, 10, 45, 0
11, 48600, Note_on_c, 10, 52, 90
11, 48659, Note_on_c, 10, 52, 0
11, 48660, Note_on_c, 10, 54, 90
11, 48719, Note_on_c, 10, 54, 0
11, 48720, Note_on_c, 10, 56, 90
11, 48779, Note_on_c, 10, 56, 0
11, 48780, Note_on_c, 10, 52, 90
11, 48839, Note_on_c, 10, 52, 0
11, 48840, Note_on_c, 10, 57, 90
11, 48899, Note_on_c, 10, 57, 0
11, 48900, Note_on_c, 10, 56, 90
11, 48959, Note_on_c, 10, 56, 0
11, 48960, Note_on_c, 10, 54, 90
11, 49019, Note_on_c, 10, 54, 0
11, 49020, Note_on_c, 10, 52, 90
11, 49079, Note_on_c, 10, 52, 0
11, 49080, Note_on_c, 10, 50, 90
11, 49139, Note_on_c, 10, 50, 0
11, 49140, Note_on_c, 10, 54, 90
11, 49199, Note_on_c, 10, 54, 0
11, 49200, Note_on_c, 10, 52, 90
11, 49319, Note_on_c, 10, 52, 0
11, 49320, Note_on_c, 10, 57, 90
11, 49379, Note_on_c, 10, 57, 0
11, 49380, Note_on_c, 10, 52, 90
11, 49439, Note_on_c, 10, 52, 0
11, 49440, Note_on_c, 10, 49, 90
11, 49499, Note_on_c, 10, 49, 0
11, 49500, Note_on_c, 10, 52, 90
11, 49559, Note_on_c, 10, 52, 0
11, 49560, Note_on_c, 10, 45, 90
11, 49679, Note_on_c, 10, 45, 0
11, 49680, Note_on_c, 10, 45, 90
11, 49799, Note_on_c, 10, 45, 0
11, 49800, Note_on_c, 10, 45, 90
11, 49919, Note_on_c, 10, 45, 0
11, 49920, Note_on_c, 10, 45, 90
11, 50039, Note_on_c, 10, 45, 0
11, 50040, Note_on_c, 10, 45, 90
11, 50159, Note_on_c, 10, 45, 0
11, 50160, Note_on_c, 10, 45, 90
11, 50279, Note_on_c, 10, 45, 0
11, 50280, Note_on_c, 10, 45, 90
11, 50399, Note_on_c, 10, 45, 0
11, 50400, Note_on_c, 10, 45, 90
11, 50519, Note_on_c, 10, 45, 0
11, 50520, Note_on_c, 10, 45, 90
11, 50639, Note_on_c, 10, 45, 0
11, 50640, Note_on_c, 10, 45, 90
11, 50699, Note_on_c, 10, 45, 0
11, 50700, Note_on_c, 10, 44, 90
11, 50759, Note_on_c, 10, 44, 0
11, 50760, Note_on_c, 10, 42, 90
11, 50819, Note_on_c, 10, 42, 0
11, 50820, Note_on_c, 10, 40, 90
11, 50879, Note_on_c, 10, 40, 0
11, 50880, Note_on_c, 10, 38, 90
11, 50939, Note_on_c, 10, 38, 0
11, 50940, Note_on_c, 10, 42, 90
11, 50999, Note_on_c, 10, 42, 0
11, 51000, Note_on_c, 10, 40, 90
11, 51119, Note_on_c, 10, 40, 0
11, 51120, Note_on_c, 10, 45, 90
11, 51239, Note_on_c, 10, 45, 0
11, 51240, Note_on_c, 10, 49, 90
11, 51299, Note_on_c, 10, 49, 0
11, 51300, Note_on_c, 10, 52, 90
11, 51359, Note_on_c, 10, 52, 0
11, 51360, Note_on_c, 10, 57, 90
11, 51419, Note_on_c, 10, 57, 0
11, 51420, Note_on_c, 10, 59, 90
11, 51479, Note_on_c, 10, 59, 0
11, 51480, Note_on_c, 10, 61, 90
11, 51539, Note_on_c, 10, 61, 0
11, 51540, Note_on_c, 10, 62, 90
11, 51599, Note_on_c, 10, 62, 0
11, 51600, Note_on_c, 10, 61, 90
11, 51659, Note_on_c, 10, 61, 0
11, 51660, Note_on_c, 10, 59, 90
11, 51719, Note_on_c, 10, 59, 0
11, 51720, Note_on_c, 10, 58, 90
11, 51779, Note_on_c, 10, 58, 0
11, 51780, Note_on_c, 10, 54, 90
11, 51839, Note_on_c, 10, 54, 0
11, 51840, Note_on_c, 10, 59, 90
11, 51899, Note_on_c, 10, 59, 0
11, 51900, Note_on_c, 10, 54, 90
11, 51959, Note_on_c, 10, 54, 0
11, 51960, Note_on_c, 10, 47, 90
11, 52019, Note_on_c, 10, 47, 0
11, 52020, Note_on_c, 10, 49, 90
11, 52079, Note_on_c, 10, 49, 0
11, 52080, Note_on_c, 10, 50, 90
11, 52139, Note_on_c, 10, 50, 0
11, 52140, Note_on_c, 10, 49, 90
11, 52199, Note_on_c, 10, 49, 0
11, 52200, Note_on_c, 10, 47, 90
11, 52259, Note_on_c, 10, 47, 0
11, 52260, Note_on_c, 10, 49, 90
11, 52319, Note_on_c, 10, 49, 0
11, 52320, Note_on_c, 10, 47, 90
11, 52379, Note_on_c, 10, 47, 0
11, 52380, Note_on_c, 10, 45, 90
11, 52439, Note_on_c, 10, 45, 0
11, 52440, Note_on_c, 10, 44, 90
11, 52499, Note_on_c, 10, 44, 0
11, 52500, Note_on_c, 10, 40, 90
11, 52559, Note_on_c, 10, 40, 0
11, 52560, Note_on_c, 10, 45, 90
11, 52619, Note_on_c, 10, 45, 0
11, 52620, Note_on_c, 10, 52, 90
11, 52679, Note_on_c, 10, 52, 0
11, 52680, Note_on_c, 10, 57, 90
11, 52739, Note_on_c, 10, 57, 0
11, 52740, Note_on_c, 10, 56, 90
11, 52799, Note_on_c, 10, 56, 0
11, 52800, Note_on_c, 10, 57, 90
11, 52859, Note_on_c, 10, 57, 0
11, 52860, Note_on_c, 10, 59, 90
11, 52919, Note_on_c, 10, 59, 0
11, 52920, Note_on_c, 10, 61, 90
11, 52979, Note_on_c, 10, 61, 0
11, 52980, Note_on_c, 10, 62, 90
11, 53039, Note_on_c, 10, 62, 0
11, 53040, Note_on_c, 10, 64, 90
11, 53099, Note_on_c, 10, 64, 0
11, 53100, Note_on_c, 10, 62, 90
11, 53159, Note_on_c, 10, 62, 0
11, 53160, Note_on_c, 10, 61, 90
11, 53219, Note_on_c, 10, 61, 0
11, 53220, Note_on_c, 10, 57, 90
11, 53279, Note_on_c, 10, 57, 0
11, 53280, Note_on_c, 10, 52, 90
11, 53339, Note_on_c, 10, 52, 0
11, 53340, Note_on_c, 10, 54, 90
11, 53399, Note_on_c, 10, 54, 0
11, 53400, Note_on_c, 10, 56, 90
11, 53459, Note_on_c, 10, 56, 0
11, 53460, Note_on_c, 10, 52, 90
11, 53519, Note_on_c, 10, 52, 0
11, 53520, Note_on_c, 10, 57, 90
11, 53579, Note_on_c, 10, 57, 0
11, 53580, Note_on_c, 10, 56, 90
11, 53639, Note_on_c, 10, 56, 0
11, 53640, Note_on_c, 10, 54, 90
11, 53699, Note_on_c, 10, 54, 0
11, 53700, Note_on_c, 10, 52, 90
11, 53759, Note_on_c, 10, 52, 0
11, 53760, Note_on_c, 10, 50, 90
11, 53819, Note_on_c, 10, 50, 0
11, 53820, Note_on_c, 10, 54, 90
11, 53879, Note_on_c, 10, 54, 0
11, 53880, Note_on_c, 10, 52, 90
11, 53939, Note_on_c, 10, 52, 0
11, 53940, Note_on_c, 10, 40, 90
11, 53999, Note_on_c, 10, 40, 0
11, 54000, Note_on_c, 10, 45, 90
11, 54059, Note_on_c, 10, 45, 0
11, 54060, Note_on_c, 10, 47, 90
11, 54089, Note_on_c, 10, 47, 0
11, 54090, Note_on_c, 10, 49, 90
11, 54119, Note_on_c, 10, 49, 0
11, 54120, Note_on_c, 10, 50, 90
11, 54149, Note_on_c, 10, 50, 0
11, 54150, Note_on_c, 10, 52, 90
11, 54179, Note_on_c, 10, 52, 0
11, 54180, Note_on_c, 10, 54, 90
11, 54209, Note_on_c, 10, 54, 0
11, 54210, Note_on_c, 10, 56, 90
11, 54239, Note_on_c, 10, 56, 0
11, 54240, Note_on_c, 10, 57, 90
11, 54299, Note_on_c, 10, 57, 0
11, 54300, Note_on_c, 10, 45, 90
11, 54359, Note_on_c, 10, 45, 0
11, 54360, Note_on_c, 10, 45, 90
11, 54419, Note_on_c, 10, 45, 0
11, 54420, Note_on_c, 10, 45, 90
11, 54479, Note_on_c, 10, 45, 0
11, 54480, Note_on_c, 10, 43, 90
11, 54539, Note_on_c, 10, 43, 0
11, 54540, Note_on_c, 10, 43, 90
11, 54599, Note_on_c, 10, 43, 0
11, 54600, Note_on_c, 10, 42, 90
11, 54659, Note_on_c, 10, 42, 0
11, 54660, Note_on_c, 10, 42, 90
11, 54719, Note_on_c, 10, 42, 0
11, 54720, Note_on_c, 10, 47, 90
11, 54870, Note_on_c, 10, 47, 0
11, 54870, Note_on_c, 10, 49, 90
11, 54899, Note_on_c, 10, 49, 0
11, 54900, Note_on_c, 10, 47, 90
11, 54929, Note_on_c, 10, 47, 0
11, 54930, Note_on_c, 10, 45, 90
11, 54959, Note_on_c, 10, 45, 0
11, 54960, Note_on_c, 10, 44, 90
11, 54989, Note_on_c, 10, 44, 0
11, 54990, Note_on_c, 10, 45, 90
11, 55019, Note_on_c, 10, 45, 0
11, 55020, Note_on_c, 10, 44, 90
11, 55049, Note_on_c, 10, 44, 0
11, 55050, Note_on_c, 10, 42, 90
11, 55079, Note_on_c, 10, 42, 0
11, 55080, Note_on_c, 10, 40, 90
11, 55139, Note_on_c, 10, 40, 0
11, 55140, Note_on_c, 10, 40, 90
11, 55199, Note_on_c, 10, 40, 0
11, 55200, Note_on_c, 10, 40, 90
11, 55259, Note_on_c, 10, 40, 0
11, 55260, Note_on_c, 10, 40, 90
11, 55319, Note_on_c, 10, 40, 0
11, 55320, Note_on_c, 10, 40, 90
11, 55379, Note_on_c, 10, 40, 0
11, 55380, Note_on_c, 10, 40, 90
11, 55439, Note_on_c, 10, 40, 0
11, 55440, Note_on_c, 10, 45, 90
11, 55559, Note_on_c, 10, 45, 0
11, 55590, Note_on_c, 10, 47, 90
11, 55619, Note_on_c, 10, 47, 0
11, 55620, Note_on_c, 10, 49, 90
11, 55649, Note_on_c, 10, 49, 0
11, 55650, Note_on_c, 10, 50, 90
11, 55679, Note_on_c, 10, 50, 0
11, 55680, Note_on_c, 10, 52, 90
11, 55739, Note_on_c, 10, 52, 0
11, 55740, Note_on_c, 10, 50, 90
11, 55799, Note_on_c, 10, 50, 0
11, 55800, Note_on_c, 10, 49, 90
11, 55859, Note_on_c, 10, 49, 0
11, 55860, Note_on_c, 10, 52, 90
11, 55919, Note_on_c, 10, 52, 0
11, 55920, Note_on_c, 10, 47, 90
11, 55979, Note_on_c, 10, 47, 0
11, 55980, Note_on_c, 10, 52, 90
11, 56039, Note_on_c, 10, 52, 0
11, 56040, Note_on_c, 10, 49, 90
11, 56099, Note_on_c, 10, 49, 0
11, 56100, Note_on_c, 10, 52, 90
11, 56159, Note_on_c, 10, 52, 0
11, 56160, Note_on_c, 10, 44, 90
11, 56219, Note_on_c, 10, 44, 0
11, 56220, Note_on_c, 10, 52, 90
11, 56279, Note_on_c, 10, 52, 0
11, 56280, Note_on_c, 10, 40, 90
11, 56339, Note_on_c, 10, 40, 0
11, 56340, Note_on_c, 10, 52, 90
11, 56399, Note_on_c, 10, 52, 0
11, 56400, Note_on_c, 10, 45, 90
11, 56459, Note_on_c, 10, 45, 0
11, 56460, Note_on_c, 10, 44, 90
11, 56519, Note_on_c, 10, 44, 0
11, 56520, Note_on_c, 10, 42, 90
11, 56579, Note_on_c, 10, 42, 0
11, 56580, Note_on_c, 10, 40, 90
11, 56639, Note_on_c, 10, 40, 0
11, 56640, Note_on_c, 10, 38, 90
11, 56699, Note_on_c, 10, 38, 0
11, 56700, Note_on_c, 10, 42, 90
11, 56759, Note_on_c, 10, 42, 0
11, 56760, Note_on_c, 10, 40, 90
11, 56819, Note_on_c, 10, 40, 0
11, 56820, Note_on_c, 10, 52, 90
11, 56879, Note_on_c, 10, 52, 0
11, 56880, Note_on_c, 10, 57, 90
11, 56939, Note_on_c, 10, 57, 0
11, 56940, Note_on_c, 10, 56, 90
11, 56999, Note_on_c, 10, 56, 0
11, 57000, Note_on_c, 10, 57, 90
11, 57059, Note_on_c, 10, 57, 0
11, 57060, Note_on_c, 10, 59, 90
11, 57119, Note_on_c, 10, 59, 0
11, 57120, Note_on_c, 10, 61, 90
11, 57209, Note_on_c, 10, 61, 0
11, 57210, Note_on_c, 10, 59, 90
11, 57239, Note_on_c, 10, 59, 0
11, 57240, Note_on_c, 10, 57, 90
11, 57359, Note_on_c, 10, 57, 0
11, 57360, Note_on_c, 10, 56, 90
11, 57479, Note_on_c, 10, 56, 0
11, 57480, Note_on_c, 10, 57, 90
11, 57539, Note_on_c, 10, 57, 0
11, 57540, Note_on_c, 10, 61, 90
11, 57599, Note_on_c, 10, 61, 0
11, 57600, Note_on_c, 10, 59, 90
11, 57839, Note_on_c, 10, 59, 0
11, 57840, Note_on_c, 10, 61, 90
11, 57899, Note_on_c, 10, 61, 0
11, 57900, Note_on_c, 10, 59, 90
11, 57929, Note_on_c, 10, 59, 0
11, 57930, Note_on_c, 10, 61, 90
11, 57959, Note_on_c, 10, 61, 0
11, 57960, Note_on_c, 10, 62, 90
11, 58019, Note_on_c, 10, 62, 0
11, 58020, Note_on_c, 10, 61, 90
11, 58079, Note_on_c, 10, 61, 0
11, 58080, Note_on_c, 10, 59, 90
11, 58139, Note_on_c, 10, 59, 0
11, 58140, Note_on_c, 10, 57, 90
11, 58199, Note_on_c, 10, 57, 0
11, 58200, Note_on_c, 10, 64, 90
11, 58259, Note_on_c, 10, 64, 0
11, 58260, Note_on_c, 10, 52, 90
11, 58319, Note_on_c, 10, 52, 0
11, 58320, Note_on_c, 10, 57, 90
11, 58439, Note_on_c, 10, 57, 0
11, 58440, Note_on_c, 10, 45, 90
11, 58559, Note_on_c, 10, 45, 0
11, 58680, Note_on_c, 10, 42, 90
11, 59400, Note_on_c, 10, 42, 0
11, 59400, Note_on_c, 10, 39, 90
11, 59880, Note_on_c, 10, 39, 0
11, 59880, Note_on_c, 10, 40, 90
11, 60000, Note_on_c, 10, 40, 0
11, 60000, Note_on_c, 10, 50, 90
11, 60120, Note_on_c, 10, 50, 0
11, 60120, Note_on_c, 10, 49, 90
11, 60150, Note_on_c, 10, 49, 0
11, 60150, Note_on_c, 10, 45, 90
11, 60180, Note_on_c, 10, 45, 0
11, 60180, Note_on_c, 10, 49, 90
11, 60210, Note_on_c, 10, 49, 0
11, 60210, Note_on_c, 10, 52, 90
11, 60240, Note_on_c, 10, 52, 0
11, 60240, Note_on_c, 10, 57, 90
11, 60300, Note_on_c, 10, 57, 0
11, 60480, Note_on_c, 10, 45, 90
11, 60600, Note_on_c, 10, 45, 0
11, 60600, Note_on_c, 10, 50, 90
11, 60840, Note_on_c, 10, 50, 0
11, 60840, Note_on_c, 10, 42, 90
11, 61080, Note_on_c, 10, 42, 0
11, 61080, Note_on_c, 10, 43, 90
11, 61200, Note_on_c, 10, 43, 0
11, 61200, Note_on_c, 10, 47, 90
11, 61320, Note_on_c, 10, 47, 0
11, 61440, Note_on_c, 10, 45, 90
11, 61560, Note_on_c, 10, 45, 0
11, 61560, Note_on_c, 10, 38, 90
11, 62040, Note_on_c, 10, 38, 0
11, 62160, Note_on_c, 10, 50, 90
11, 62219, Note_on_c, 10, 50, 0
11, 62220, Note_on_c, 10, 52, 90
11, 62279, Note_on_c, 10, 52, 0
11, 62280, Note_on_c, 10, 54, 90
11, 62339, Note_on_c, 10, 54, 0
11, 62340, Note_on_c, 10, 55, 90
11, 62399, Note_on_c, 10, 55, 0
11, 62400, Note_on_c, 10, 52, 90
11, 62459, Note_on_c, 10, 52, 0
11, 62460, Note_on_c, 10, 50, 90
11, 62519, Note_on_c, 10, 50, 0
11, 62520, Note_on_c, 10, 57, 90
11, 62579, Note_on_c, 10, 57, 0
11, 62580, Note_on_c, 10, 59, 90
11, 62639, Note_on_c, 10, 59, 0
11, 62640, Note_on_c, 10, 61, 90
11, 62699, Note_on_c, 10, 61, 0
11, 62700, Note_on_c, 10, 62, 90
11, 62759, Note_on_c, 10, 62, 0
11, 62760, Note_on_c, 10, 61, 90
11, 62819, Note_on_c, 10, 61, 0
11, 62820, Note_on_c, 10, 59, 90
11, 62879, Note_on_c, 10, 59, 0
11, 62880, Note_on_c, 10, 57, 90
11, 62939, Note_on_c, 10, 57, 0
11, 62940, Note_on_c, 10, 56, 90
11, 62999, Note_on_c, 10, 56, 0
11, 63000, Note_on_c, 10, 57, 90
11, 63059, Note_on_c, 10, 57, 0
11, 63060, Note_on_c, 10, 49, 90
11, 63089, Note_on_c, 10, 49, 0
11, 63090, Note_on_c, 10, 50, 90
11, 63119, Note_on_c, 10, 50, 0
11, 63120, Note_on_c, 10, 52, 90
11, 63179, Note_on_c, 10, 52, 0
11, 63180, Note_on_c, 10, 40, 90
11, 63239, Note_on_c, 10, 40, 0
11, 63240, Note_on_c, 10, 45, 90
11, 63299, Note_on_c, 10, 45, 0
11, 63300, Note_on_c, 10, 47, 90
11, 63359, Note_on_c, 10, 47, 0
11, 63360, Note_on_c, 10, 49, 90
11, 63419, Note_on_c, 10, 49, 0
11, 63420, Note_on_c, 10, 45, 90
11, 63479, Note_on_c, 10, 45, 0
11, 63480, Note_on_c, 10, 50, 90
11, 63539, Note_on_c, 10, 50, 0
11, 63540, Note_on_c, 10, 49, 90
11, 63599, Note_on_c, 10, 49, 0
11, 63600, Note_on_c, 10, 50, 90
11, 63719, Note_on_c, 10, 50, 0
11, 63780, Note_on_c, 10, 47, 90
11, 63839, Note_on_c, 10, 47, 0
11, 63840, Note_on_c, 10, 49, 90
11, 63899, Note_on_c, 10, 49, 0
11, 63900, Note_on_c, 10, 50, 90
11, 63959, Note_on_c, 10, 50, 0
11, 63960, Note_on_c, 10, 47, 90
11, 64079, Note_on_c, 10, 47, 0
11, 64140, Note_on_c, 10, 47, 90
11, 64199, Note_on_c, 10, 47, 0
11, 64200, Note_on_c, 10, 49, 90
11, 64259, Note_on_c, 10, 49, 0
11, 64260, Note_on_c, 10, 50, 90
11, 64289, Note_on_c, 10, 50, 0
11, 64290, Note_on_c, 10, 52, 90
11, 64319, Note_on_c, 10, 52, 0
11, 64320, Note_on_c, 10, 54, 90
11, 64439, Note_on_c, 10, 54, 0
11, 64500, Note_on_c, 10, 52, 90
11, 64529, Note_on_c, 10, 52, 0
11, 64530, Note_on_c, 10, 50, 90
11, 64559, Note_on_c, 10, 50, 0
11, 64560, Note_on_c, 10, 52, 90
11, 64619, Note_on_c, 10, 52, 0
11, 64620, Note_on_c, 10, 40, 90
11, 64679, Note_on_c, 10, 40, 0
11, 64680, Note_on_c, 10, 45, 90
11, 64739, Note_on_c, 10, 45, 0
11, 64740, Note_on_c, 10, 47, 90
11, 64799, Note_on_c, 10, 47, 0
11, 64800, Note_on_c, 10, 49, 90
11, 64859, Note_on_c, 10, 49, 0
11, 64860, Note_on_c, 10, 45, 90
11, 64919, Note_on_c, 10, 45, 0
11, 64920, Note_on_c, 10, 51, 90
11, 65039, Note_on_c, 10, 51, 0
11, 65100, Note_on_c, 10, 47, 90
11, 65159, Note_on_c, 10, 47, 0
11, 65160, Note_on_c, 10, 52, 90
11, 65219, Note_on_c, 10, 52, 0
11, 65220, Note_on_c, 10, 50, 90
11, 65279, Note_on_c, 10, 50, 0
11, 65280, Note_on_c, 10, 49, 90
11, 65399, Note_on_c, 10, 49, 0
11, 65460, Note_on_c, 10, 45, 90
11, 65519, Note_on_c, 10, 45, 0
11, 65520, Note_on_c, 10, 57, 90
11, 65579, Note_on_c, 10, 57, 0
11, 65580, Note_on_c, 10, 55, 90
11, 65639, Note_on_c, 10, 55, 0
11, 65640, Note_on_c, 10, 54, 90
11, 65699, Note_on_c, 10, 54, 0
11, 65700, Note_on_c, 10, 55, 90
11, 65759, Note_on_c, 10, 55, 0
11, 65760, Note_on_c, 10, 57, 90
11, 65819, Note_on_c, 10, 57, 0
11, 65820, Note_on_c, 10, 55, 90
11, 65879, Note_on_c, 10, 55, 0
11, 65880, Note_on_c, 10, 54, 90
11, 65939, Note_on_c, 10, 54, 0
11, 65940, Note_on_c, 10, 52, 90
11, 65999, Note_on_c, 10, 52, 0
11, 66000, Note_on_c, 10, 50, 90
11, 66059, Note_on_c, 10, 50, 0
11, 66060, Note_on_c, 10, 52, 90
11, 66119, Note_on_c, 10, 52, 0
11, 66120, Note_on_c, 10, 54, 90
11, 66179, Note_on_c, 10, 54, 0
11, 66180, Note_on_c, 10, 52, 90
11, 66209, Note_on_c, 10, 52, 0
11, 66210, Note_on_c, 10, 54, 90
11, 66239, Note_on_c, 10, 54, 0
11, 66240, Note_on_c, 10, 55, 90
11, 66299, Note_on_c, 10, 55, 0
11, 66300, Note_on_c, 10, 54, 90
11, 66359, Note_on_c, 10, 54, 0
11, 66360, Note_on_c, 10, 52, 90
11, 66479, Note_on_c, 10, 52, 0
11, 66540, Note_on_c, 10, 54, 90
11, 66569, Note_on_c, 10, 54, 0
11, 66570, Note_on_c, 10, 55, 90
11, 66599, Note_on_c, 10, 55, 0
11, 66600, Note_on_c, 10, 57, 90
11, 66659, Note_on_c, 10, 57, 0
11, 66660, Note_on_c, 10, 55, 90
11, 66719, Note_on_c, 10, 55, 0
11, 66720, Note_on_c, 10, 54, 90
11, 66779, Note_on_c, 10, 54, 0
11, 66780, Note_on_c, 10, 52, 90
11, 66839, Note_on_c, 10, 52, 0
11, 66840, Note_on_c, 10, 50, 90
11, 66959, Note_on_c, 10, 50, 0
11, 66960, Note_on_c, 10, 50, 90
11, 67079, Note_on_c, 10, 50, 0
11, 67080, Note_on_c, 10, 50, 90
11, 67259, Note_on_c, 10, 50, 0
11, 67260, Note_on_c, 10, 49, 90
11, 67289, Note_on_c, 10, 49, 0
11, 67290, Note_on_c, 10, 47, 90
11, 67319, Note_on_c, 10, 47, 0
11, 67320, Note_on_c, 10, 49, 90
11, 67379, Note_on_c, 10, 49, 0
11, 67380, Note_on_c, 10, 45, 90
11, 67439, Note_on_c, 10, 45, 0
11, 67440, Note_on_c, 10, 50, 90
11, 67499, Note_on_c, 10, 50, 0
11, 67500, Note_on_c, 10, 45, 90
11, 67559, Note_on_c, 10, 45, 0
11, 67560, Note_on_c, 10, 42, 90
11, 67619, Note_on_c, 10, 42, 0
11, 67620, Note_on_c, 10, 45, 90
11, 67679, Note_on_c, 10, 45, 0
11, 67680, Note_on_c, 10, 38, 90
11, 67739, Note_on_c, 10, 38, 0
11, 67740, Note_on_c, 10, 40, 90
11, 67769, Note_on_c, 10, 40, 0
11, 67770, Note_on_c, 10, 42, 90
11, 67799, Note_on_c, 10, 42, 0
11, 67800, Note_on_c, 10, 43, 90
11, 67919, Note_on_c, 10, 43, 0
11, 67980, Note_on_c, 10, 42, 90
11, 68039, Note_on_c, 10, 42, 0
11, 68040, Note_on_c, 10, 40, 90
11, 68099, Note_on_c, 10, 40, 0
11, 68100, Note_on_c, 10, 42, 90
11, 68129, Note_on_c, 10, 42, 0
11, 68130, Note_on_c, 10, 43, 90
11, 68159, Note_on_c, 10, 43, 0
11, 68160, Note_on_c, 10, 45, 90
11, 68279, Note_on_c, 10, 45, 0
11, 68340, Note_on_c, 10, 47, 90
11, 68399, Note_on_c, 10, 47, 0
11, 68400, Note_on_c, 10, 49, 90
11, 68459, Note_on_c, 10, 49, 0
11, 68460, Note_on_c, 10, 50, 90
11, 68489, Note_on_c, 10, 50, 0
11, 68490, Note_on_c, 10, 52, 90
11, 68519, Note_on_c, 10, 52, 0
11, 68520, Note_on_c, 10, 54, 90
11, 68579, Note_on_c, 10, 54, 0
11, 68580, Note_on_c, 10, 52, 90
11, 68639, Note_on_c, 10, 52, 0
11, 68640, Note_on_c, 10, 50, 90
11, 68699, Note_on_c, 10, 50, 0
11, 68700, Note_on_c, 10, 52, 90
11, 68759, Note_on_c, 10, 52, 0
11, 68760, Note_on_c, 10, 54, 90
11, 68819, Note_on_c, 10, 54, 0
11, 68820, Note_on_c, 10, 55, 90
11, 68879, Note_on_c, 10, 55, 0
11, 68880, Note_on_c, 10, 57, 90
11, 68999, Note_on_c, 10, 57, 0
11, 69000, Note_on_c, 10, 45, 90
11, 69119, Note_on_c, 10, 45, 0
11, 69180, Note_on_c, 10, 45, 90
11, 69239, Note_on_c, 10, 45, 0
11, 69240, Note_on_c, 10, 50, 90
11, 69299, Note_on_c, 10, 50, 0
11, 69300, Note_on_c, 10, 52, 90
11, 69359, Note_on_c, 10, 52, 0
11, 69360, Note_on_c, 10, 54, 90
11, 69479, Note_on_c, 10, 54, 0
11, 69540, Note_on_c, 10, 50, 90
11, 69599, Note_on_c, 10, 50, 0
11, 69600, Note_on_c, 10, 55, 90
11, 69659, Note_on_c, 10, 55, 0
11, 69660, Note_on_c, 10, 54, 90
11, 69719, Note_on_c, 10, 54, 0
11, 69720, Note_on_c, 10, 55, 90
11, 69839, Note_on_c, 10, 55, 0
11, 69900, Note_on_c, 10, 59, 90
11, 69959, Note_on_c, 10, 59, 0
11, 69960, Note_on_c, 10, 52, 90
11, 70079, Note_on_c, 10, 52, 0
11, 70200, Note_on_c, 10, 47, 90
11, 70319, Note_on_c, 10, 47, 0
11, 70320, Note_on_c, 10, 52, 90
11, 70379, Note_on_c, 10, 52, 0
11, 70380, Note_on_c, 10, 54, 90
11, 70439, Note_on_c, 10, 54, 0
11, 70440, Note_on_c, 10, 55, 90
11, 70499, Note_on_c, 10, 55, 0
11, 70500, Note_on_c, 10, 54, 90
11, 70529, Note_on_c, 10, 54, 0
11, 70530, Note_on_c, 10, 52, 90
11, 70559, Note_on_c, 10, 52, 0
11, 70560, Note_on_c, 10, 54, 90
11, 70619, Note_on_c, 10, 54, 0
11, 70620, Note_on_c, 10, 55, 90
11, 70679, Note_on_c, 10, 55, 0
11, 70680, Note_on_c, 10, 57, 90
11, 70799, Note_on_c, 10, 57, 0
11, 70800, Note_on_c, 10, 45, 90
11, 70919, Note_on_c, 10, 45, 0
11, 70920, Note_on_c, 10, 50, 90
11, 71039, Note_on_c, 10, 50, 0
11, 71040, Note_on_c, 10, 45, 90
11, 71099, Note_on_c, 10, 45, 0
11, 71100, Note_on_c, 10, 47, 90
11, 71159, Note_on_c, 10, 47, 0
11, 71160, Note_on_c, 10, 49, 90
11, 71219, Note_on_c, 10, 49, 0
11, 71220, Note_on_c, 10, 50, 90
11, 71279, Note_on_c, 10, 50, 0
11, 71280, Note_on_c, 10, 52, 90
11, 71339, Note_on_c, 10, 52, 0
11, 71340, Note_on_c, 10, 49, 90
11, 71399, Note_on_c, 10, 49, 0
11, 71400, Note_on_c, 10, 50, 90
11, 71459, Note_on_c, 10, 50, 0
11, 71460, Note_on_c, 10, 49, 90
11, 71519, Note_on_c, 10, 49, 0
11, 71520, Note_on_c, 10, 47, 90
11, 71639, Note_on_c, 10, 47, 0
11, 71640, Note_on_c, 10, 42, 90
11, 71759, Note_on_c, 10, 42, 0
11, 71760, Note_on_c, 10, 43, 90
11, 71879, Note_on_c, 10, 43, 0
11, 71880, Note_on_c, 10, 45, 90
11, 71939, Note_on_c, 10, 45, 0
11, 71940, Note_on_c, 10, 43, 90
11, 71999, Note_on_c, 10, 43, 0
11, 72000, Note_on_c, 10, 45, 90
11, 72119, Note_on_c, 10, 45, 0
11, 72120, Note_on_c, 10, 38, 90
11, 72238, Note_on_c, 10, 38, 0
11, 72240, Note_on_c, 10, 42, 90
11, 72358, Note_on_c, 10, 42, 0
11, 72360, Note_on_c, 10, 38, 90
11, 72478, Note_on_c, 10, 38, 0
11, 72480, Note_on_c, 10, 43, 90
11, 72598, Note_on_c, 10, 43, 0
11, 72720, Note_on_c, 10, 47, 90
11, 72838, Note_on_c, 10, 47, 0
11, 72840, Note_on_c, 10, 40, 90
11, 72899, Note_on_c, 10, 40, 0
11, 72900, Note_on_c, 10, 47, 90
11, 72959, Note_on_c, 10, 47, 0
11, 72960, Note_on_c, 10, 52, 90
11, 73019, Note_on_c, 10, 52, 0
11, 73020, Note_on_c, 10, 50, 90
11, 73079, Note_on_c, 10, 50, 0
11, 73080, Note_on_c, 10, 49, 90
11, 73139, Note_on_c, 10, 49, 0
11, 73140, Note_on_c, 10, 47, 90
11, 73199, Note_on_c, 10, 47, 0
11, 73200, Note_on_c, 10, 45, 90
11, 73379, Note_on_c, 10, 45, 0
11, 73380, Note_on_c, 10, 47, 90
11, 73439, Note_on_c, 10, 47, 0
11, 73440, Note_on_c, 10, 49, 90
11, 73499, Note_on_c, 10, 49, 0
11, 73500, Note_on_c, 10, 45, 90
11, 73559, Note_on_c, 10, 45, 0
11, 73560, Note_on_c, 10, 50, 90
11, 73619, Note_on_c, 10, 50, 0
11, 73620, Note_on_c, 10, 52, 90
11, 73679, Note_on_c, 10, 52, 0
11, 73680, Note_on_c, 10, 54, 90
11, 73739, Note_on_c, 10, 54, 0
11, 73740, Note_on_c, 10, 55, 90
11, 73799, Note_on_c, 10, 55, 0
11, 73800, Note_on_c, 10, 57, 90
11, 73859, Note_on_c, 10, 57, 0
11, 73860, Note_on_c, 10, 59, 90
11, 73919, Note_on_c, 10, 59, 0
11, 73920, Note_on_c, 10, 55, 90
11, 73979, Note_on_c, 10, 55, 0
11, 73980, Note_on_c, 10, 54, 90
11, 74009, Note_on_c, 10, 54, 0
11, 74010, Note_on_c, 10, 55, 90
11, 74039, Note_on_c, 10, 55, 0
11, 74040, Note_on_c, 10, 57, 90
11, 74159, Note_on_c, 10, 57, 0
11, 74160, Note_on_c, 10, 45, 90
11, 74279, Note_on_c, 10, 45, 0
11, 74280, Note_on_c, 10, 50, 90
11, 74339, Note_on_c, 10, 50, 0
11, 74340, Note_on_c, 10, 45, 90
11, 74399, Note_on_c, 10, 45, 0
11, 74400, Note_on_c, 10, 38, 90
11, 74639, Note_on_c, 10, 38, 0
11, 74760, Note_on_c, 10, 44, 90
11, 75480, Note_on_c, 10, 44, 0
11, 75480, Note_on_c, 10, 45, 90
11, 75960, Note_on_c, 10, 45, 0
11, 75960, Note_on_c, 10, 46, 90
11, 76440, Note_on_c, 10, 46, 0
11, 76440, Note_on_c, 10, 52, 90
11, 76680, Note_on_c, 10, 52, 0
11, 76680, Note_on_c, 10, 50, 90
11, 76800, Note_on_c, 10, 50, 0
11, 76800, Note_on_c, 10, 43, 90
11, 76920, Note_on_c, 10, 43, 0
11, 77040, Note_on_c, 10, 42, 90
11, 77160, Note_on_c, 10, 42, 0
11, 77160, Note_on_c, 10, 47, 90
11, 77640, Note_on_c, 10, 47, 0
11, 77640, Note_on_c, 10, 47, 90
11, 77759, Note_on_c, 10, 47, 0
11, 77760, Note_on_c, 10, 50, 90
11, 77879, Note_on_c, 10, 50, 0
11, 77880, Note_on_c, 10, 47, 90
11, 77999, Note_on_c, 10, 47, 0
11, 78000, Note_on_c, 10, 54, 90
11, 78119, Note_on_c, 10, 54, 0
11, 78120, Note_on_c, 10, 42, 90
11, 78239, Note_on_c, 10, 42, 0
11, 78240, Note_on_c, 10, 52, 90
11, 78359, Note_on_c, 10, 52, 0
11, 78360, Note_on_c, 10, 50, 90
11, 78479, Note_on_c, 10, 50, 0
11, 78480, Note_on_c, 10, 47, 90
11, 78599, Note_on_c, 10, 47, 0
11, 78600, Note_on_c, 10, 52, 90
11, 78719, Note_on_c, 10, 52, 0
11, 78720, Note_on_c, 10, 45, 90
11, 78839, Note_on_c, 10, 45, 0
11, 78840, Note_on_c, 10, 57, 90
11, 78959, Note_on_c, 10, 57, 0
11, 78960, Note_on_c, 10, 55, 90
11, 79079, Note_on_c, 10, 55, 0
11, 79080, Note_on_c, 10, 54, 90
11, 79199, Note_on_c, 10, 54, 0
11, 79200, Note_on_c, 10, 56, 90
11, 79319, Note_on_c, 10, 56, 0
11, 79320, Note_on_c, 10, 52, 90
11, 79439, Note_on_c, 10, 52, 0
11, 79440, Note_on_c, 10, 57, 90
11, 79559, Note_on_c, 10, 57, 0
11, 79560, Note_on_c, 10, 58, 90
11, 79679, Note_on_c, 10, 58, 0
11, 79680, Note_on_c, 10, 54, 90
11, 79799, Note_on_c, 10, 54, 0
11, 79800, Note_on_c, 10, 59, 90
11, 79919, Note_on_c, 10, 59, 0
11, 79920, Note_on_c, 10, 55, 90
11, 80159, Note_on_c, 10, 55, 0
11, 80160, Note_on_c, 10, 54, 90
11, 80219, Note_on_c, 10, 54, 0
11, 80220, Note_on_c, 10, 55, 90
11, 80279, Note_on_c, 10, 55, 0
11, 80280, Note_on_c, 10, 54, 90
11, 80339, Note_on_c, 10, 54, 0
11, 80340, Note_on_c, 10, 52, 90
11, 80399, Note_on_c, 10, 52, 0
11, 80400, Note_on_c, 10, 50, 90
11, 80459, Note_on_c, 10, 50, 0
11, 80460, Note_on_c, 10, 49, 90
11, 80519, Note_on_c, 10, 49, 0
11, 80520, Note_on_c, 10, 47, 90
11, 80639, Note_on_c, 10, 47, 0
11, 80640, Note_on_c, 10, 49, 90
11, 80759, Note_on_c, 10, 49, 0
11, 80760, Note_on_c, 10, 50, 90
11, 80879, Note_on_c, 10, 50, 0
11, 80880, Note_on_c, 10, 52, 90
11, 80999, Note_on_c, 10, 52, 0
11, 81000, Note_on_c, 10, 49, 90
11, 81119, Note_on_c, 10, 49, 0
11, 81120, Note_on_c, 10, 54, 90
11, 81239, Note_on_c, 10, 54, 0
11, 81240, Note_on_c, 10, 47, 90
11, 81359, Note_on_c, 10, 47, 0
11, 81360, Note_on_c, 10, 50, 90
11, 81479, Note_on_c, 10, 50, 0
11, 81480, Note_on_c, 10, 54, 90
11, 81599, Note_on_c, 10, 54, 0
11, 81600, Note_on_c, 10, 59, 90
11, 81719, Note_on_c, 10, 59, 0
11, 81720, Note_on_c, 10, 57, 90
11, 81839, Note_on_c, 10, 57, 0
11, 81840, Note_on_c, 10, 55, 90
11, 81959, Note_on_c, 10, 55, 0
11, 81960, Note_on_c, 10, 54, 90
11, 82199, Note_on_c, 10, 54, 0
11, 82200, Note_on_c, 10, 42, 90
11, 82319, Note_on_c, 10, 42, 0
11, 82320, Note_on_c, 10, 47, 90
11, 82439, Note_on_c, 10, 47, 0
11, 82440, Note_on_c, 10, 45, 90
11, 82559, Note_on_c, 10, 45, 0
11, 82560, Note_on_c, 10, 44, 90
11, 82679, Note_on_c, 10, 44, 0
11, 82680, Note_on_c, 10, 45, 90
11, 82799, Note_on_c, 10, 45, 0
11, 82800, Note_on_c, 10, 49, 90
11, 82919, Note_on_c, 10, 49, 0
11, 82920, Note_on_c, 10, 45, 90
11, 83039, Note_on_c, 10, 45, 0
11, 83040, Note_on_c, 10, 50, 90
11, 83159, Note_on_c, 10, 50, 0
11, 83160, Note_on_c, 10, 49, 90
11, 83279, Note_on_c, 10, 49, 0
11, 83280, Note_on_c, 10, 47, 90
11, 83399, Note_on_c, 10, 47, 0
11, 83400, Note_on_c, 10, 52, 90
11, 83519, Note_on_c, 10, 52, 0
11, 83520, Note_on_c, 10, 49, 90
11, 83639, Note_on_c, 10, 49, 0
11, 83640, Note_on_c, 10, 54, 90
11, 83759, Note_on_c, 10, 54, 0
11, 83760, Note_on_c, 10, 47, 90
11, 83879, Note_on_c, 10, 47, 0
11, 83880, Note_on_c, 10, 50, 90
11, 83999, Note_on_c, 10, 50, 0
11, 84000, Note_on_c, 10, 47, 90
11, 84119, Note_on_c, 10, 47, 0
11, 84120, Note_on_c, 10, 54, 90
11, 84239, Note_on_c, 10, 54, 0
11, 84240, Note_on_c, 10, 42, 90
11, 84359, Note_on_c, 10, 42, 0
11, 84480, Note_on_c, 10, 47, 90
11, 84599, Note_on_c, 10, 47, 0
11, 84600, Note_on_c, 10, 59, 90
11, 84719, Note_on_c, 10, 59, 0
11, 84720, Note_on_c, 10, 61, 90
11, 84839, Note_on_c, 10, 61, 0
11, 84840, Note_on_c, 10, 62, 90
11, 84959, Note_on_c, 10, 62, 0
11, 84960, Note_on_c, 10, 54, 90
11, 85079, Note_on_c, 10, 54, 0
11, 85080, Note_on_c, 10, 57, 90
11, 85199, Note_on_c, 10, 57, 0
11, 85200, Note_on_c, 10, 50, 90
11, 85259, Note_on_c, 10, 50, 0
11, 85260, Note_on_c, 10, 54, 90
11, 85319, Note_on_c, 10, 54, 0
11, 85320, Note_on_c, 10, 56, 90
11, 85379, Note_on_c, 10, 56, 0
11, 85380, Note_on_c, 10, 58, 90
11, 85439, Note_on_c, 10, 58, 0
11, 85440, Note_on_c, 10, 59, 90
11, 85499, Note_on_c, 10, 59, 0
11, 85500, Note_on_c, 10, 61, 90
11, 85559, Note_on_c, 10, 61, 0
11, 85560, Note_on_c, 10, 62, 90
11, 85619, Note_on_c, 10, 62, 0
11, 85620, Note_on_c, 10, 50, 90
11, 85679, Note_on_c, 10, 50, 0
11, 85680, Note_on_c, 10, 55, 90
11, 85709, Note_on_c, 10, 55, 0
11, 85710, Note_on_c, 10, 54, 90
11, 85739, Note_on_c, 10, 54, 0
11, 85740, Note_on_c, 10, 55, 90
11, 85829, Note_on_c, 10, 55, 0
11, 85830, Note_on_c, 10, 54, 90
11, 85859, Note_on_c, 10, 54, 0
11, 85860, Note_on_c, 10, 52, 90
11, 85889, Note_on_c, 10, 52, 0
11, 85890, Note_on_c, 10, 50, 90
11, 85919, Note_on_c, 10, 50, 0
11, 85920, Note_on_c, 10, 49, 90
11, 85979, Note_on_c, 10, 49, 0
11, 85980, Note_on_c, 10, 61, 90
11, 86039, Note_on_c, 10, 61, 0
11, 86040, Note_on_c, 10, 54, 90
11, 86069, Note_on_c, 10, 54, 0
11, 86070, Note_on_c, 10, 52, 90
11, 86099, Note_on_c, 10, 52, 0
11, 86100, Note_on_c, 10, 54, 90
11, 86189, Note_on_c, 10, 54, 0
11, 86190, Note_on_c, 10, 52, 90
11, 86219, Note_on_c, 10, 52, 0
11, 86220, Note_on_c, 10, 50, 90
11, 86249, Note_on_c, 10, 50, 0
11, 86250, Note_on_c, 10, 49, 90
11, 86279, Note_on_c, 10, 49, 0
11, 86280, Note_on_c, 10, 47, 90
11, 86339, Note_on_c, 10, 47, 0
11, 86340, Note_on_c, 10, 59, 90
11, 86369, Note_on_c, 10, 59, 0
11, 86370, Note_on_c, 10, 57, 90
11, 86399, Note_on_c, 10, 57, 0
11, 86400, Note_on_c, 10, 55, 90
11, 86459, Note_on_c, 10, 55, 0
11, 86460, Note_on_c, 10, 54, 90
11, 86519, Note_on_c, 10, 54, 0
11, 86520, Note_on_c, 10, 52, 90
11, 86699, Note_on_c, 10, 52, 0
11, 86700, Note_on_c, 10, 54, 90
11, 86729, Note_on_c, 10, 54, 0
11, 86730, Note_on_c, 10, 55, 90
11, 86759, Note_on_c, 10, 55, 0
11, 86760, Note_on_c, 10, 54, 90
11, 86819, Note_on_c, 10, 54, 0
11, 86820, Note_on_c, 10, 52, 90
11, 86879, Note_on_c, 10, 52, 0
11, 86880, Note_on_c, 10, 50, 90
11, 86939, Note_on_c, 10, 50, 0
11, 86940, Note_on_c, 10, 49, 90
11, 86999, Note_on_c, 10, 49, 0
11, 87000, Note_on_c, 10, 47, 90
11, 87179, Note_on_c, 10, 47, 0
11, 87180, Note_on_c, 10, 45, 90
11, 87239, Note_on_c, 10, 45, 0
11, 87240, Note_on_c, 10, 43, 90
11, 87299, Note_on_c, 10, 43, 0
11, 87300, Note_on_c, 10, 42, 90
11, 87359, Note_on_c, 10, 42, 0
11, 87360, Note_on_c, 10, 40, 90
11, 87419, Note_on_c, 10, 40, 0
11, 87420, Note_on_c, 10, 43, 90
11, 87479, Note_on_c, 10, 43, 0
11, 87480, Note_on_c, 10, 42, 90
11, 87539, Note_on_c, 10, 42, 0
11, 87540, Note_on_c, 10, 40, 90
11, 87599, Note_on_c, 10, 40, 0
11, 87600, Note_on_c, 10, 38, 90
11, 87659, Note_on_c, 10, 38, 0
11, 87660, Note_on_c, 10, 40, 90
11, 87689, Note_on_c, 10, 40, 0
11, 87690, Note_on_c, 10, 42, 90
11, 87719, Note_on_c, 10, 42, 0
11, 87720, Note_on_c, 10, 43, 90
11, 87779, Note_on_c, 10, 43, 0
11, 87780, Note_on_c, 10, 42, 90
11, 87839, Note_on_c, 10, 42, 0
11, 87840, Note_on_c, 10, 43, 90
11, 87899, Note_on_c, 10, 43, 0
11, 87900, Note_on_c, 10, 47, 90
11, 87959, Note_on_c, 10, 47, 0
11, 87960, Note_on_c, 10, 43, 90
11, 88019, Note_on_c, 10, 43, 0
11, 88020, Note_on_c, 10, 40, 90
11, 88079, Note_on_c, 10, 40, 0
11, 88080, Note_on_c, 10, 42, 90
11, 88139, Note_on_c, 10, 42, 0
11, 88140, Note_on_c, 10, 49, 90
11, 88199, Note_on_c, 10, 49, 0
11, 88200, Note_on_c, 10, 54, 90
11, 88259, Note_on_c, 10, 54, 0
11, 88260, Note_on_c, 10, 52, 90
11, 88319, Note_on_c, 10, 52, 0
11, 88320, Note_on_c, 10, 50, 90
11, 88379, Note_on_c, 10, 50, 0
11, 88380, Note_on_c, 10, 49, 90
11, 88439, Note_on_c, 10, 49, 0
11, 88440, Note_on_c, 10, 47, 90
11, 88499, Note_on_c, 10, 47, 0
11, 88500, Note_on_c, 10, 54, 90
11, 88559, Note_on_c, 10, 54, 0
11, 88560, Note_on_c, 10, 59, 90
11, 88619, Note_on_c, 10, 59, 0
11, 88620, Note_on_c, 10, 57, 90
11, 88679, Note_on_c, 10, 57, 0
11, 88680, Note_on_c, 10, 55, 90
11, 88739, Note_on_c, 10, 55, 0
11, 88740, Note_on_c, 10, 54, 90
11, 88799, Note_on_c, 10, 54, 0
11, 88800, Note_on_c, 10, 52, 90
11, 88859, Note_on_c, 10, 52, 0
11, 88860, Note_on_c, 10, 50, 90
11, 88919, Note_on_c, 10, 50, 0
11, 88920, Note_on_c, 10, 52, 90
11, 88979, Note_on_c, 10, 52, 0
11, 88980, Note_on_c, 10, 49, 90
11, 89039, Note_on_c, 10, 49, 0
11, 89040, Note_on_c, 10, 54, 90
11, 89099, Note_on_c, 10, 54, 0
11, 89100, Note_on_c, 10, 52, 90
11, 89159, Note_on_c, 10, 52, 0
11, 89160, Note_on_c, 10, 50, 90
11, 89219, Note_on_c, 10, 50, 0
11, 89220, Note_on_c, 10, 49, 90
11, 89279, Note_on_c, 10, 49, 0
11, 89280, Note_on_c, 10, 47, 90
11, 89339, Note_on_c, 10, 47, 0
11, 89340, Note_on_c, 10, 59, 90
11, 89399, Note_on_c, 10, 59, 0
11, 89400, Note_on_c, 10, 57, 90
11, 89459, Note_on_c, 10, 57, 0
11, 89460, Note_on_c, 10, 55, 90
11, 89519, Note_on_c, 10, 55, 0
11, 89520, Note_on_c, 10, 54, 90
11, 89579, Note_on_c, 10, 54, 0
11, 89580, Note_on_c, 10, 52, 90
11, 89639, Note_on_c, 10, 52, 0
11, 89640, Note_on_c, 10, 54, 90
11, 89699, Note_on_c, 10, 54, 0
11, 89700, Note_on_c, 10, 55, 90
11, 89759, Note_on_c, 10, 55, 0
11, 89760, Note_on_c, 10, 57, 90
11, 89819, Note_on_c, 10, 57, 0
11, 89820, Note_on_c, 10, 55, 90
11, 89879, Note_on_c, 10, 55, 0
11, 89880, Note_on_c, 10, 54, 90
11, 89939, Note_on_c, 10, 54, 0
11, 89940, Note_on_c, 10, 52, 90
11, 89999, Note_on_c, 10, 52, 0
11, 90000, Note_on_c, 10, 50, 90
11, 90059, Note_on_c, 10, 50, 0
11, 90060, Note_on_c, 10, 52, 90
11, 90119, Note_on_c, 10, 52, 0
11, 90120, Note_on_c, 10, 54, 90
11, 90179, Note_on_c, 10, 54, 0
11, 90180, Note_on_c, 10, 50, 90
11, 90239, Note_on_c, 10, 50, 0
11, 90240, Note_on_c, 10, 57, 90
11, 90299, Note_on_c, 10, 57, 0
11, 90300, Note_on_c, 10, 59, 90
11, 90359, Note_on_c, 10, 59, 0
11, 90360, Note_on_c, 10, 61, 90
11, 90419, Note_on_c, 10, 61, 0
11, 90420, Note_on_c, 10, 59, 90
11, 90479, Note_on_c, 10, 59, 0
11, 90480, Note_on_c, 10, 61, 90
11, 90539, Note_on_c, 10, 61, 0
11, 90540, Note_on_c, 10, 57, 90
11, 90599, Note_on_c, 10, 57, 0
11, 90600, Note_on_c, 10, 62, 90
11, 90659, Note_on_c, 10, 62, 0
11, 90660, Note_on_c, 10, 50, 90
11, 90719, Note_on_c, 10, 50, 0
11, 90720, Note_on_c, 10, 52, 90
11, 90779, Note_on_c, 10, 52, 0
11, 90780, Note_on_c, 10, 54, 90
11, 90839, Note_on_c, 10, 54, 0
11, 90840, Note_on_c, 10, 55, 90
11, 90899, Note_on_c, 10, 55, 0
11, 90900, Note_on_c, 10, 54, 90
11, 90959, Note_on_c, 10, 54, 0
11, 90960, Note_on_c, 10, 52, 90
11, 91019, Note_on_c, 10, 52, 0
11, 91020, Note_on_c, 10, 49, 90
11, 91079, Note_on_c, 10, 49, 0
11, 91080, Note_on_c, 10, 50, 90
11, 91139, Note_on_c, 10, 50, 0
11, 91140, Note_on_c, 10, 52, 90
11, 91199, Note_on_c, 10, 52, 0
11, 91200, Note_on_c, 10, 54, 90
11, 91259, Note_on_c, 10, 54, 0
11, 91260, Note_on_c, 10, 52, 90
11, 91319, Note_on_c, 10, 52, 0
11, 91320, Note_on_c, 10, 50, 90
11, 91379, Note_on_c, 10, 50, 0
11, 91380, Note_on_c, 10, 47, 90
11, 91439, Note_on_c, 10, 47, 0
11, 91500, Note_on_c, 10, 47, 90
11, 91529, Note_on_c, 10, 47, 0
11, 91530, Note_on_c, 10, 49, 90
11, 91559, Note_on_c, 10, 49, 0
11, 91560, Note_on_c, 10, 50, 90
11, 91619, Note_on_c, 10, 50, 0
11, 91620, Note_on_c, 10, 47, 90
11, 91679, Note_on_c, 10, 47, 0
11, 91680, Note_on_c, 10, 54, 90
11, 91739, Note_on_c, 10, 54, 0
11, 91740, Note_on_c, 10, 42, 90
11, 91799, Note_on_c, 10, 42, 0
11, 91860, Note_on_c, 10, 54, 90
11, 91889, Note_on_c, 10, 54, 0
11, 91890, Note_on_c, 10, 56, 90
11, 91919, Note_on_c, 10, 56, 0
11, 91920, Note_on_c, 10, 58, 90
11, 91979, Note_on_c, 10, 58, 0
11, 91980, Note_on_c, 10, 54, 90
11, 92039, Note_on_c, 10, 54, 0
11, 92040, Note_on_c, 10, 59, 90
11, 92099, Note_on_c, 10, 59, 0
11, 92100, Note_on_c, 10, 54, 90
11, 92159, Note_on_c, 10, 54, 0
11, 92160, Note_on_c, 10, 55, 90
11, 92279, Note_on_c, 10, 55, 0
11, 92340, Note_on_c, 10, 43, 90
11, 92399, Note_on_c, 10, 43, 0
11, 92400, Note_on_c, 10, 42, 90
11, 92459, Note_on_c, 10, 42, 0
11, 92460, Note_on_c, 10, 49, 90
11, 92519, Note_on_c, 10, 49, 0
11, 92520, Note_on_c, 10, 54, 90
11, 92579, Note_on_c, 10, 54, 0
11, 92580, Note_on_c, 10, 52, 90
11, 92639, Note_on_c, 10, 52, 0
11, 92640, Note_on_c, 10, 50, 90
11, 92699, Note_on_c, 10, 50, 0
11, 92700, Note_on_c, 10, 49, 90
11, 92759, Note_on_c, 10, 49, 0
11, 92760, Note_on_c, 10, 47, 90
11, 92879, Note_on_c, 10, 47, 0
11, 92880, Note_on_c, 10, 47, 90
11, 93059, Note_on_c, 10, 47, 0
11, 93060, Note_on_c, 10, 47, 90
11, 93119, Note_on_c, 10, 47, 0
11, 93120, Note_on_c, 10, 46, 90
11, 93239, Note_on_c, 10, 46, 0
11, 93240, Note_on_c, 10, 46, 90
11, 93479, Note_on_c, 10, 46, 0
11, 93480, Note_on_c, 10, 47, 90
11, 93599, Note_on_c, 10, 47, 0
11, 93600, Note_on_c, 10, 47, 90
11, 93779, Note_on_c, 10, 47, 0
11, 93780, Note_on_c, 10, 47, 90
11, 93839, Note_on_c, 10, 47, 0
11, 93840, Note_on_c, 10, 49, 90
11, 93959, Note_on_c, 10, 49, 0
11, 93960, Note_on_c, 10, 49, 90
11, 94199, Note_on_c, 10, 49, 0
11, 94200, Note_on_c, 10, 50, 90
11, 94319, Note_on_c, 10, 50, 0
11, 94320, Note_on_c, 10, 50, 90
11, 94499, Note_on_c, 10, 50, 0
11, 94500, Note_on_c, 10, 50, 90
11, 94559, Note_on_c, 10, 50, 0
11, 94560, Note_on_c, 10, 49, 90
11, 94679, Note_on_c, 10, 49, 0
11, 94680, Note_on_c, 10, 54, 90
11, 94799, Note_on_c, 10, 54, 0
11, 94800, Note_on_c, 10, 46, 90
11, 94919, Note_on_c, 10, 46, 0
11, 94920, Note_on_c, 10, 47, 90
11, 94979, Note_on_c, 10, 47, 0
11, 94980, Note_on_c, 10, 54, 90
11, 95039, Note_on_c, 10, 54, 0
11, 95040, Note_on_c, 10, 59, 90
11, 95099, Note_on_c, 10, 59, 0
11, 95100, Note_on_c, 10, 57, 90
11, 95159, Note_on_c, 10, 57, 0
11, 95160, Note_on_c, 10, 55, 90
11, 95219, Note_on_c, 10, 55, 0
11, 95220, Note_on_c, 10, 54, 90
11, 95279, Note_on_c, 10, 54, 0
11, 95280, Note_on_c, 10, 52, 90
11, 95399, Note_on_c, 10, 52, 0
11, 95400, Note_on_c, 10, 54, 90
11, 95519, Note_on_c, 10, 54, 0
11, 95520, Note_on_c, 10, 42, 90
11, 95639, Note_on_c, 10, 42, 0
11, 95640, Note_on_c, 10, 47, 90
11, 95699, Note_on_c, 10, 47, 0
11, 95700, Note_on_c, 10, 42, 90
11, 95759, Note_on_c, 10, 42, 0
11, 95760, Note_on_c, 10, 47, 90
11, 95819, Note_on_c, 10, 47, 0
11, 95820, Note_on_c, 10, 45, 90
11, 95879, Note_on_c, 10, 45, 0
11, 95880, Note_on_c, 10, 43, 90
11, 95939, Note_on_c, 10, 43, 0
11, 95940, Note_on_c, 10, 40, 90
11, 95999, Note_on_c, 10, 40, 0
11, 96000, Note_on_c, 10, 45, 90
11, 96059, Note_on_c, 10, 45, 0
11, 96060, Note_on_c, 10, 52, 90
11, 96119, Note_on_c, 10, 52, 0
11, 96120, Note_on_c, 10, 57, 90
11, 96179, Note_on_c, 10, 57, 0
11, 96180, Note_on_c, 10, 55, 90
11, 96239, Note_on_c, 10, 55, 0
11, 96240, Note_on_c, 10, 54, 90
11, 96299, Note_on_c, 10, 54, 0
11, 96300, Note_on_c, 10, 50, 90
11, 96359, Note_on_c, 10, 50, 0
11, 96360, Note_on_c, 10, 43, 90
11, 96419, Note_on_c, 10, 43, 0
11, 96420, Note_on_c, 10, 38, 90
11, 96479, Note_on_c, 10, 38, 0
11, 96480, Note_on_c, 10, 43, 90
11, 96539, Note_on_c, 10, 43, 0
11, 96540, Note_on_c, 10, 42, 90
11, 96599, Note_on_c, 10, 42, 0
11, 96600, Note_on_c, 10, 40, 90
11, 96659, Note_on_c, 10, 40, 0
11, 96660, Note_on_c, 10, 37, 90
11, 96719, Note_on_c, 10, 37, 0
11, 96720, Note_on_c, 10, 42, 90
11, 96779, Note_on_c, 10, 42, 0
11, 96780, Note_on_c, 10, 49, 90
11, 96839, Note_on_c, 10, 49, 0
11, 96840, Note_on_c, 10, 54, 90
11, 96899, Note_on_c, 10, 54, 0
11, 96900, Note_on_c, 10, 52, 90
11, 96959, Note_on_c, 10, 52, 0
11, 96960, Note_on_c, 10, 50, 90
11, 97019, Note_on_c, 10, 50, 0
11, 97020, Note_on_c, 10, 47, 90
11, 97079, Note_on_c, 10, 47, 0
11, 97080, Note_on_c, 10, 55, 90
11, 97139, Note_on_c, 10, 55, 0
11, 97140, Note_on_c, 10, 52, 90
11, 97199, Note_on_c, 10, 52, 0
11, 97200, Note_on_c, 10, 54, 90
11, 97319, Note_on_c, 10, 54, 0
11, 97320, Note_on_c, 10, 42, 90
11, 97439, Note_on_c, 10, 42, 0
11, 97440, Note_on_c, 10, 47, 90
11, 97799, Note_on_c, 10, 47, 0
11, 97920, Note_on_c, 10, 49, 90
11, 98400, Note_on_c, 10, 49, 0
11, 98400, Note_on_c, 10, 50, 90
11, 98640, Note_on_c, 10, 50, 0
11, 98640, Note_on_c, 10, 54, 90
11, 98880, Note_on_c, 10, 54, 0
11, 98880, Note_on_c, 10, 47, 90
11, 99840, Note_on_c, 10, 47, 0
11, 99840, Note_on_c, 10, 44, 90
11, 100080, Note_on_c, 10, 44, 0
11, 100080, Note_on_c, 10, 45, 90
11, 100560, Note_on_c, 10, 45, 0
11, 100560, Note_on_c, 10, 48, 90
11, 100800, Note_on_c, 10, 48, 0
11, 100800, Note_on_c, 10, 47, 90
11, 101040, Note_on_c, 10, 47, 0
11, 101040, Note_on_c, 10, 48, 90
11, 101280, Note_on_c, 10, 48, 0
11, 101400, Note_on_c, 10, 50, 90
11, 101520, Note_on_c, 10, 50, 0
11, 101520, Note_on_c, 10, 43, 90
11, 101760, Note_on_c, 10, 43, 0
11, 102000, Note_on_c, 10, 43, 90
11, 102119, Note_on_c, 10, 43, 0
11, 102120, Note_on_c, 10, 55, 90
11, 102239, Note_on_c, 10, 55, 0
11, 102240, Note_on_c, 10, 55, 90
11, 102359, Note_on_c, 10, 55, 0
11, 102360, Note_on_c, 10, 54, 90
11, 102479, Note_on_c, 10, 54, 0
11, 102480, Note_on_c, 10, 52, 90
11, 102599, Note_on_c, 10, 52, 0
11, 102600, Note_on_c, 10, 52, 90
11, 102719, Note_on_c, 10, 52, 0
11, 102720, Note_on_c, 10, 50, 90
11, 102839, Note_on_c, 10, 50, 0
11, 102840, Note_on_c, 10, 48, 90
11, 102899, Note_on_c, 10, 48, 0
11, 102900, Note_on_c, 10, 43, 90
11, 102959, Note_on_c, 10, 43, 0
11, 102960, Note_on_c, 10, 48, 90
11, 103019, Note_on_c, 10, 48, 0
11, 103020, Note_on_c, 10, 50, 90
11, 103079, Note_on_c, 10, 50, 0
11, 103080, Note_on_c, 10, 52, 90
11, 103139, Note_on_c, 10, 52, 0
11, 103140, Note_on_c, 10, 48, 90
11, 103199, Note_on_c, 10, 48, 0
11, 103200, Note_on_c, 10, 50, 90
11, 103229, Note_on_c, 10, 50, 0
11, 103230, Note_on_c, 10, 48, 90
11, 103259, Note_on_c, 10, 48, 0
11, 103260, Note_on_c, 10, 50, 90
11, 103289, Note_on_c, 10, 50, 0
11, 103290, Note_on_c, 10, 52, 90
11, 103319, Note_on_c, 10, 52, 0
11, 103320, Note_on_c, 10, 50, 90
11, 103379, Note_on_c, 10, 50, 0
11, 103380, Note_on_c, 10, 48, 90
11, 103439, Note_on_c, 10, 48, 0
11, 103440, Note_on_c, 10, 47, 90
11, 103499, Note_on_c, 10, 47, 0
11, 103500, Note_on_c, 10, 45, 90
11, 103559, Note_on_c, 10, 45, 0
11, 103560, Note_on_c, 10, 43, 90
11, 103619, Note_on_c, 10, 43, 0
11, 103620, Note_on_c, 10, 43, 90
11, 103679, Note_on_c, 10, 43, 0
11, 103680, Note_on_c, 10, 43, 90
11, 103739, Note_on_c, 10, 43, 0
11, 103740, Note_on_c, 10, 43, 90
11, 103799, Note_on_c, 10, 43, 0
11, 103800, Note_on_c, 10, 42, 90
11, 103859, Note_on_c, 10, 42, 0
11, 103860, Note_on_c, 10, 42, 90
11, 103919, Note_on_c, 10, 42, 0
11, 103920, Note_on_c, 10, 40, 90
11, 103979, Note_on_c, 10, 40, 0
11, 103980, Note_on_c, 10, 40, 90
11, 104039, Note_on_c, 10, 40, 0
11, 104040, Note_on_c, 10, 40, 90
11, 104099, Note_on_c, 10, 40, 0
11, 104100, Note_on_c, 10, 40, 90
11, 104159, Note_on_c, 10, 40, 0
11, 104160, Note_on_c, 10, 38, 90
11, 104219, Note_on_c, 10, 38, 0
11, 104220, Note_on_c, 10, 38, 90
11, 104279, Note_on_c, 10, 38, 0
11, 104280, Note_on_c, 10, 36, 90
11, 104339, Note_on_c, 10, 36, 0
11, 104340, Note_on_c, 10, 43, 90
11, 104399, Note_on_c, 10, 43, 0
11, 104400, Note_on_c, 10, 48, 90
11, 104459, Note_on_c, 10, 48, 0
11, 104460, Note_on_c, 10, 47, 90
11, 104519, Note_on_c, 10, 47, 0
11, 104520, Note_on_c, 10, 45, 90
11, 104579, Note_on_c, 10, 45, 0
11, 104580, Note_on_c, 10, 43, 90
11, 104639, Note_on_c, 10, 43, 0
11, 104640, Note_on_c, 10, 50, 90
11, 104669, Note_on_c, 10, 50, 0
11, 104670, Note_on_c, 10, 48, 90
11, 104699, Note_on_c, 10, 48, 0
11, 104700, Note_on_c, 10, 50, 90
11, 104729, Note_on_c, 10, 50, 0
11, 104730, Note_on_c, 10, 52, 90
11, 104759, Note_on_c, 10, 52, 0
11, 104760, Note_on_c, 10, 50, 90
11, 104789, Note_on_c, 10, 50, 0
11, 104790, Note_on_c, 10, 48, 90
11, 104819, Note_on_c, 10, 48, 0
11, 104820, Note_on_c, 10, 47, 90
11, 104849, Note_on_c, 10, 47, 0
11, 104850, Note_on_c, 10, 48, 90
11, 104879, Note_on_c, 10, 48, 0
11, 104880, Note_on_c, 10, 50, 90
11, 104909, Note_on_c, 10, 50, 0
11, 104910, Note_on_c, 10, 48, 90
11, 104939, Note_on_c, 10, 48, 0
11, 104940, Note_on_c, 10, 47, 90
11, 104969, Note_on_c, 10, 47, 0
11, 104970, Note_on_c, 10, 45, 90
11, 104999, Note_on_c, 10, 45, 0
11, 105000, Note_on_c, 10, 47, 90
11, 105029, Note_on_c, 10, 47, 0
11, 105030, Note_on_c, 10, 48, 90
11, 105059, Note_on_c, 10, 48, 0
11, 105060, Note_on_c, 10, 47, 90
11, 105089, Note_on_c, 10, 47, 0
11, 105090, Note_on_c, 10, 45, 90
11, 105119, Note_on_c, 10, 45, 0
11, 105120, Note_on_c, 10, 43, 90
11, 105239, Note_on_c, 10, 43, 0
11, 105240, Note_on_c, 10, 41, 90
11, 105359, Note_on_c, 10, 41, 0
11, 105360, Note_on_c, 10, 40, 90
11, 105479, Note_on_c, 10, 40, 0
11, 105480, Note_on_c, 10, 40, 90
11, 105599, Note_on_c, 10, 40, 0
11, 105600, Note_on_c, 10, 43, 90
11, 105719, Note_on_c, 10, 43, 0
11, 105720, Note_on_c, 10, 36, 90
11, 105839, Note_on_c, 10, 36, 0
11, 105840, Note_on_c, 10, 38, 90
11, 105959, Note_on_c, 10, 38, 0
11, 105960, Note_on_c, 10, 40, 90
11, 106079, Note_on_c, 10, 40, 0
11, 106080, Note_on_c, 10, 38, 90
11, 106139, Note_on_c, 10, 38, 0
11, 106140, Note_on_c, 10, 45, 90
11, 106199, Note_on_c, 10, 45, 0
11, 106200, Note_on_c, 10, 50, 90
11, 106259, Note_on_c, 10, 50, 0
11, 106260, Note_on_c, 10, 48, 90
11, 106319, Note_on_c, 10, 48, 0
11, 106320, Note_on_c, 10, 47, 90
11, 106379, Note_on_c, 10, 47, 0
11, 106380, Note_on_c, 10, 45, 90
11, 106439, Note_on_c, 10, 45, 0
11, 106440, Note_on_c, 10, 43, 90
11, 106499, Note_on_c, 10, 43, 0
11, 106500, Note_on_c, 10, 45, 90
11, 106559, Note_on_c, 10, 45, 0
11, 106560, Note_on_c, 10, 47, 90
11, 106619, Note_on_c, 10, 47, 0
11, 106620, Note_on_c, 10, 43, 90
11, 106679, Note_on_c, 10, 43, 0
11, 106680, Note_on_c, 10, 50, 90
11, 106739, Note_on_c, 10, 50, 0
11, 106740, Note_on_c, 10, 38, 90
11, 106799, Note_on_c, 10, 38, 0
11, 106800, Note_on_c, 10, 43, 90
11, 106859, Note_on_c, 10, 43, 0
11, 106860, Note_on_c, 10, 42, 90
11, 106919, Note_on_c, 10, 42, 0
11, 106920, Note_on_c, 10, 43, 90
11, 106979, Note_on_c, 10, 43, 0
11, 106980, Note_on_c, 10, 45, 90
11, 107039, Note_on_c, 10, 45, 0
11, 107040, Note_on_c, 10, 47, 90
11, 107099, Note_on_c, 10, 47, 0
11, 107100, Note_on_c, 10, 48, 90
11, 107159, Note_on_c, 10, 48, 0
11, 107160, Note_on_c, 10, 47, 90
11, 107219, Note_on_c, 10, 47, 0
11, 107220, Note_on_c, 10, 47, 90
11, 107279, Note_on_c, 10, 47, 0
11, 107280, Note_on_c, 10, 43, 90
11, 107339, Note_on_c, 10, 43, 0
11, 107340, Note_on_c, 10, 43, 90
11, 107399, Note_on_c, 10, 43, 0
11, 107400, Note_on_c, 10, 53, 90
11, 107459, Note_on_c, 10, 53, 0
11, 107460, Note_on_c, 10, 53, 90
11, 107519, Note_on_c, 10, 53, 0
11, 107520, Note_on_c, 10, 52, 90
11, 107579, Note_on_c, 10, 52, 0
11, 107580, Note_on_c, 10, 50, 90
11, 107639, Note_on_c, 10, 50, 0
11, 107640, Note_on_c, 10, 52, 90
11, 107699, Note_on_c, 10, 52, 0
11, 107700, Note_on_c, 10, 53, 90
11, 107759, Note_on_c, 10, 53, 0
11, 107760, Note_on_c, 10, 52, 90
11, 107819, Note_on_c, 10, 52, 0
11, 107820, Note_on_c, 10, 50, 90
11, 107879, Note_on_c, 10, 50, 0
11, 107880, Note_on_c, 10, 48, 90
11, 107939, Note_on_c, 10, 48, 0
11, 107940, Note_on_c, 10, 48, 90
11, 107999, Note_on_c, 10, 48, 0
11, 108000, Note_on_c, 10, 45, 90
11, 108059, Note_on_c, 10, 45, 0
11, 108060, Note_on_c, 10, 45, 90
11, 108119, Note_on_c, 10, 45, 0
11, 108120, Note_on_c, 10, 55, 90
11, 108179, Note_on_c, 10, 55, 0
11, 108180, Note_on_c, 10, 55, 90
11, 108239, Note_on_c, 10, 55, 0
11, 108240, Note_on_c, 10, 54, 90
11, 108299, Note_on_c, 10, 54, 0
11, 108300, Note_on_c, 10, 52, 90
11, 108359, Note_on_c, 10, 52, 0
11, 108360, Note_on_c, 10, 54, 90
11, 108419, Note_on_c, 10, 54, 0
11, 108420, Note_on_c, 10, 57, 90
11, 108479, Note_on_c, 10, 57, 0
11, 108480, Note_on_c, 10, 50, 90
11, 108539, Note_on_c, 10, 50, 0
11, 108540, Note_on_c, 10, 54, 90
11, 108599, Note_on_c, 10, 54, 0
11, 108600, Note_on_c, 10, 55, 90
11, 108659, Note_on_c, 10, 55, 0
11, 108660, Note_on_c, 10, 47, 90
11, 108719, Note_on_c, 10, 47, 0
11, 108720, Note_on_c, 10, 48, 90
11, 108779, Note_on_c, 10, 48, 0
11, 108780, Note_on_c, 10, 52, 90
11, 108839, Note_on_c, 10, 52, 0
11, 108840, Note_on_c, 10, 50, 90
11, 108899, Note_on_c, 10, 50, 0
11, 108900, Note_on_c, 10, 38, 90
11, 108959, Note_on_c, 10, 38, 0
11, 108960, Note_on_c, 10, 43, 90
11, 109079, Note_on_c, 10, 43, 0
11, 109140, Note_on_c, 10, 50, 90
11, 109199, Note_on_c, 10, 50, 0
11, 109200, Note_on_c, 10, 55, 90
11, 109259, Note_on_c, 10, 55, 0
11, 109260, Note_on_c, 10, 57, 90
11, 109319, Note_on_c, 10, 57, 0
11, 109320, Note_on_c, 10, 59, 90
11, 109379, Note_on_c, 10, 59, 0
11, 109380, Note_on_c, 10, 60, 90
11, 109439, Note_on_c, 10, 60, 0
11, 109440, Note_on_c, 10, 59, 90
11, 109499, Note_on_c, 10, 59, 0
11, 109500, Note_on_c, 10, 57, 90
11, 109559, Note_on_c, 10, 57, 0
11, 109560, Note_on_c, 10, 55, 90
11, 109619, Note_on_c, 10, 55, 0
11, 109620, Note_on_c, 10, 57, 90
11, 109679, Note_on_c, 10, 57, 0
11, 109680, Note_on_c, 10, 59, 90
11, 109739, Note_on_c, 10, 59, 0
11, 109740, Note_on_c, 10, 62, 90
11, 109799, Note_on_c, 10, 62, 0
11, 109800, Note_on_c, 10, 55, 90
11, 109859, Note_on_c, 10, 55, 0
11, 109860, Note_on_c, 10, 53, 90
11, 109919, Note_on_c, 10, 53, 0
11, 109920, Note_on_c, 10, 52, 90
11, 109979, Note_on_c, 10, 52, 0
11, 109980, Note_on_c, 10, 50, 90
11, 110039, Note_on_c, 10, 50, 0
11, 110040, Note_on_c, 10, 52, 90
11, 110099, Note_on_c, 10, 52, 0
11, 110100, Note_on_c, 10, 55, 90
11, 110159, Note_on_c, 10, 55, 0
11, 110160, Note_on_c, 10, 48, 90
11, 110219, Note_on_c, 10, 48, 0
11, 110220, Note_on_c, 10, 50, 90
11, 110279, Note_on_c, 10, 50, 0
11, 110280, Note_on_c, 10, 52, 90
11, 110339, Note_on_c, 10, 52, 0
11, 110340, Note_on_c, 10, 48, 90
11, 110399, Note_on_c, 10, 48, 0
11, 110400, Note_on_c, 10, 50, 90
11, 110459, Note_on_c, 10, 50, 0
11, 110460, Note_on_c, 10, 52, 90
11, 110519, Note_on_c, 10, 52, 0
11, 110520, Note_on_c, 10, 50, 90
11, 110579, Note_on_c, 10, 50, 0
11, 110580, Note_on_c, 10, 48, 90
11, 110639, Note_on_c, 10, 48, 0
11, 110640, Note_on_c, 10, 47, 90
11, 110699, Note_on_c, 10, 47, 0
11, 110700, Note_on_c, 10, 45, 90
11, 110759, Note_on_c, 10, 45, 0
11, 110760, Note_on_c, 10, 43, 90
11, 110879, Note_on_c, 10, 43, 0
11, 110940, Note_on_c, 10, 43, 90
11, 110969, Note_on_c, 10, 43, 0
11, 110970, Note_on_c, 10, 42, 90
11, 110999, Note_on_c, 10, 42, 0
11, 111000, Note_on_c, 10, 43, 90
11, 111059, Note_on_c, 10, 43, 0
11, 111300, Note_on_c, 10, 43, 90
11, 111329, Note_on_c, 10, 43, 0
11, 111330, Note_on_c, 10, 42, 90
11, 111359, Note_on_c, 10, 42, 0
11, 111360, Note_on_c, 10, 43, 90
11, 111419, Note_on_c, 10, 43, 0
11, 111540, Note_on_c, 10, 48, 90
11, 111569, Note_on_c, 10, 48, 0
11, 111570, Note_on_c, 10, 47, 90
11, 111599, Note_on_c, 10, 47, 0
11, 111600, Note_on_c, 10, 48, 90
11, 111659, Note_on_c, 10, 48, 0
11, 111660, Note_on_c, 10, 50, 90
11, 111719, Note_on_c, 10, 50, 0
11, 111720, Note_on_c, 10, 52, 90
11, 111779, Note_on_c, 10, 52, 0
11, 111780, Note_on_c, 10, 48, 90
11, 111839, Note_on_c, 10, 48, 0
11, 111840, Note_on_c, 10, 50, 90
11, 111899, Note_on_c, 10, 50, 0
11, 111900, Note_on_c, 10, 38, 90
11, 111959, Note_on_c, 10, 38, 0
11, 111960, Note_on_c, 10, 50, 90
11, 112019, Note_on_c, 10, 50, 0
11, 112020, Note_on_c, 10, 52, 90
11, 112079, Note_on_c, 10, 52, 0
11, 112080, Note_on_c, 10, 50, 90
11, 112139, Note_on_c, 10, 50, 0
11, 112140, Note_on_c, 10, 48, 90
11, 112199, Note_on_c, 10, 48, 0
11, 112200, Note_on_c, 10, 47, 90
11, 112259, Note_on_c, 10, 47, 0
11, 112260, Note_on_c, 10, 50, 90
11, 112319, Note_on_c, 10, 50, 0
11, 112320, Note_on_c, 10, 43, 90
11, 112379, Note_on_c, 10, 43, 0
11, 112380, Note_on_c, 10, 50, 90
11, 112439, Note_on_c, 10, 50, 0
11, 112440, Note_on_c, 10, 55, 90
11, 112499, Note_on_c, 10, 55, 0
11, 112500, Note_on_c, 10, 53, 90
11, 112559, Note_on_c, 10, 53, 0
11, 112560, Note_on_c, 10, 52, 90
11, 112619, Note_on_c, 10, 52, 0
11, 112620, Note_on_c, 10, 50, 90
11, 112679, Note_on_c, 10, 50, 0
11, 112680, Note_on_c, 10, 52, 90
11, 112739, Note_on_c, 10, 52, 0
11, 112740, Note_on_c, 10, 55, 90
11, 112799, Note_on_c, 10, 55, 0
11, 112800, Note_on_c, 10, 48, 90
11, 112859, Note_on_c, 10, 48, 0
11, 112860, Note_on_c, 10, 47, 90
11, 112919, Note_on_c, 10, 47, 0
11, 112920, Note_on_c, 10, 48, 90
11, 112979, Note_on_c, 10, 48, 0
11, 112980, Note_on_c, 10, 52, 90
11, 113039, Note_on_c, 10, 52, 0
11, 113040, Note_on_c, 10, 45, 90
11, 113099, Note_on_c, 10, 45, 0
11, 113100, Note_on_c, 10, 57, 90
11, 113159, Note_on_c, 10, 57, 0
11, 113160, Note_on_c, 10, 52, 90
11, 113219, Note_on_c, 10, 52, 0
11, 113220, Note_on_c, 10, 55, 90
11, 113279, Note_on_c, 10, 55, 0
11, 113280, Note_on_c, 10, 54, 90
11, 113339, Note_on_c, 10, 54, 0
11, 113340, Note_on_c, 10, 52, 90
11, 113399, Note_on_c, 10, 52, 0
11, 113400, Note_on_c, 10, 54, 90
11, 113459, Note_on_c, 10, 54, 0
11, 113460, Note_on_c, 10, 57, 90
11, 113519, Note_on_c, 10, 57, 0
11, 113520, Note_on_c, 10, 50, 90
11, 113579, Note_on_c, 10, 50, 0
11, 113580, Note_on_c, 10, 54, 90
11, 113639, Note_on_c, 10, 54, 0
11, 113640, Note_on_c, 10, 55, 90
11, 113699, Note_on_c, 10, 55, 0
11, 113700, Note_on_c, 10, 50, 90
11, 113759, Note_on_c, 10, 50, 0
11, 113760, Note_on_c, 10, 47, 90
11, 113819, Note_on_c, 10, 47, 0
11, 113820, Note_on_c, 10, 43, 90
11, 113879, Note_on_c, 10, 43, 0
11, 113880, Note_on_c, 10, 50, 90
11, 113939, Note_on_c, 10, 50, 0
11, 113940, Note_on_c, 10, 38, 90
11, 113999, Note_on_c, 10, 38, 0
11, 114000, Note_on_c, 10, 43, 90
11, 114059, Note_on_c, 10, 43, 0
11, 114060, Note_on_c, 10, 47, 90
11, 114089, Note_on_c, 10, 47, 0
11, 114090, Note_on_c, 10, 50, 90
11, 114119, Note_on_c, 10, 50, 0
11, 114120, Note_on_c, 10, 55, 90
11, 114239, Note_on_c, 10, 55, 0
11, 114420, Note_on_c, 10, 55, 90
11, 114449, Note_on_c, 10, 55, 0
11, 114450, Note_on_c, 10, 54, 90
11, 114479, Note_on_c, 10, 54, 0
11, 114480, Note_on_c, 10, 55, 90
11, 114539, Note_on_c, 10, 55, 0
11, 114780, Note_on_c, 10, 52, 90
11, 114809, Note_on_c, 10, 52, 0
11, 114810, Note_on_c, 10, 50, 90
11, 114839, Note_on_c, 10, 50, 0
11, 114840, Note_on_c, 10, 52, 90
11, 114899, Note_on_c, 10, 52, 0
11, 115140, Note_on_c, 10, 57, 90
11, 115169, Note_on_c, 10, 57, 0
11, 115170, Note_on_c, 10, 56, 90
11, 115199, Note_on_c, 10, 56, 0
11, 115200, Note_on_c, 10, 57, 90
11, 115259, Note_on_c, 10, 57, 0
11, 115500, Note_on_c, 10, 54, 90
11, 115529, Note_on_c, 10, 54, 0
11, 115530, Note_on_c, 10, 52, 90
11, 115559, Note_on_c, 10, 52, 0
11, 115560, Note_on_c, 10, 54, 90
11, 115619, Note_on_c, 10, 54, 0
11, 115860, Note_on_c, 10, 43, 90
11, 115889, Note_on_c, 10, 43, 0
11, 115890, Note_on_c, 10, 45, 90
11, 115919, Note_on_c, 10, 45, 0
11, 115920, Note_on_c, 10, 47, 90
11, 115979, Note_on_c, 10, 47, 0
11, 115980, Note_on_c, 10, 43, 90
11, 116039, Note_on_c, 10, 43, 0
11, 116040, Note_on_c, 10, 50, 90
11, 116099, Note_on_c, 10, 50, 0
11, 116100, Note_on_c, 10, 38, 90
11, 116159, Note_on_c, 10, 38, 0
11, 116160, Note_on_c, 10, 43, 90
11, 116279, Note_on_c, 10, 43, 0
11, 116280, Note_on_c, 10, 43, 90
11, 116399, Note_on_c, 10, 43, 0
11, 116520, Note_on_c, 10, 51, 90
11, 117240, Note_on_c, 10, 51, 0
11, 117240, Note_on_c, 10, 52, 90
11, 117720, Note_on_c, 10, 52, 0
11, 117720, Note_on_c, 10, 47, 90
11, 117960, Note_on_c, 10, 47, 0
11, 117960, Note_on_c, 10, 44, 90
11, 118200, Note_on_c, 10, 44, 0
11, 118200, Note_on_c, 10, 45, 90
11, 118680, Note_on_c, 10, 45, 0
11, 118680, Note_on_c, 10, 40, 90
11, 119160, Note_on_c, 10, 40, 0
11, 119160, Note_on_c, 10, 38, 90
11, 119880, Note_on_c, 10, 38, 0
11, 119880, Note_on_c, 10, 45, 90
11, 120360, Note_on_c, 10, 45, 0
11, 120360, Note_on_c, 10, 42, 90
11, 120600, Note_on_c, 10, 42, 0
11, 120600, Note_on_c, 10, 43, 90
11, 120840, Note_on_c, 10, 43, 0
11, 120840, Note_on_c, 10, 46, 90
11, 121080, Note_on_c, 10, 46, 0
11, 121200, Note_on_c, 10, 45, 90
11, 121320, Note_on_c, 10, 45, 0
11, 121320, Note_on_c, 10, 38, 90
11, 121800, Note_on_c, 10, 38, 0
11, 121800, Note_on_c, 10, 46, 90
11, 121919, Note_on_c, 10, 46, 0
11, 122160, Note_on_c, 10, 46, 90
11, 122279, Note_on_c, 10, 46, 0
11, 122520, Note_on_c, 10, 51, 90
11, 122579, Note_on_c, 10, 51, 0
11, 122640, Note_on_c, 10, 50, 90
11, 122699, Note_on_c, 10, 50, 0
11, 122760, Note_on_c, 10, 48, 90
11, 122819, Note_on_c, 10, 48, 0
11, 122880, Note_on_c, 10, 46, 90
11, 122939, Note_on_c, 10, 46, 0
11, 123000, Note_on_c, 10, 53, 90
11, 123059, Note_on_c, 10, 53, 0
11, 123060, Note_on_c, 10, 51, 90
11, 123119, Note_on_c, 10, 51, 0
11, 123120, Note_on_c, 10, 50, 90
11, 123179, Note_on_c, 10, 50, 0
11, 123180, Note_on_c, 10, 48, 90
11, 123239, Note_on_c, 10, 48, 0
11, 123240, Note_on_c, 10, 46, 90
11, 123299, Note_on_c, 10, 46, 0
11, 123360, Note_on_c, 10, 46, 90
11, 123419, Note_on_c, 10, 46, 0
11, 123420, Note_on_c, 10, 46, 90
11, 123449, Note_on_c, 10, 46, 0
11, 123450, Note_on_c, 10, 46, 90
11, 123479, Note_on_c, 10, 46, 0
11, 123480, Note_on_c, 10, 46, 90
11, 123599, Note_on_c, 10, 46, 0
11, 123720, Note_on_c, 10, 46, 90
11, 123779, Note_on_c, 10, 46, 0
11, 123780, Note_on_c, 10, 46, 90
11, 123809, Note_on_c, 10, 46, 0
11, 123810, Note_on_c, 10, 46, 90
11, 123839, Note_on_c, 10, 46, 0
11, 123840, Note_on_c, 10, 46, 90
11, 123899, Note_on_c, 10, 46, 0
11, 123900, Note_on_c, 10, 48, 90
11, 123929, Note_on_c, 10, 48, 0
11, 123930, Note_on_c, 10, 50, 90
11, 123959, Note_on_c, 10, 50, 0
11, 123960, Note_on_c, 10, 51, 90
11, 124019, Note_on_c, 10, 51, 0
11, 124080, Note_on_c, 10, 50, 90
11, 124139, Note_on_c, 10, 50, 0
11, 124200, Note_on_c, 10, 48, 90
11, 124259, Note_on_c, 10, 48, 0
11, 124320, Note_on_c, 10, 46, 90
11, 124379, Note_on_c, 10, 46, 0
11, 124440, Note_on_c, 10, 41, 90
11, 124499, Note_on_c, 10, 41, 0
11, 124500, Note_on_c, 10, 41, 90
11, 124529, Note_on_c, 10, 41, 0
11, 124530, Note_on_c, 10, 41, 90
11, 124559, Note_on_c, 10, 41, 0
11, 124560, Note_on_c, 10, 41, 90
11, 124619, Note_on_c, 10, 41, 0
11, 124620, Note_on_c, 10, 41, 90
11, 124649, Note_on_c, 10, 41, 0
11, 124650, Note_on_c, 10, 41, 90
11, 124679, Note_on_c, 10, 41, 0
11, 124680, Note_on_c, 10, 41, 90
11, 124799, Note_on_c, 10, 41, 0
11, 124920, Note_on_c, 10, 41, 90
11, 124979, Note_on_c, 10, 41, 0
11, 124980, Note_on_c, 10, 45, 90
11, 125009, Note_on_c, 10, 45, 0
11, 125010, Note_on_c, 10, 41, 90
11, 125039, Note_on_c, 10, 41, 0
11, 125040, Note_on_c, 10, 46, 90
11, 125099, Note_on_c, 10, 46, 0
11, 125100, Note_on_c, 10, 50, 90
11, 125129, Note_on_c, 10, 50, 0
11, 125130, Note_on_c, 10, 46, 90
11, 125159, Note_on_c, 10, 46, 0
11, 125160, Note_on_c, 10, 53, 90
11, 125339, Note_on_c, 10, 53, 0
11, 125340, Note_on_c, 10, 48, 90
11, 125369, Note_on_c, 10, 48, 0
11, 125370, Note_on_c, 10, 45, 90
11, 125399, Note_on_c, 10, 45, 0
11, 125400, Note_on_c, 10, 41, 90
11, 125519, Note_on_c, 10, 41, 0
11, 125640, Note_on_c, 10, 41, 90
11, 125699, Note_on_c, 10, 41, 0
11, 125700, Note_on_c, 10, 45, 90
11, 125729, Note_on_c, 10, 45, 0
11, 125730, Note_on_c, 10, 41, 90
11, 125759, Note_on_c, 10, 41, 0
11, 125760, Note_on_c, 10, 46, 90
11, 125819, Note_on_c, 10, 46, 0
11, 125820, Note_on_c, 10, 50, 90
11, 125849, Note_on_c, 10, 50, 0
11, 125850, Note_on_c, 10, 46, 90
11, 125879, Note_on_c, 10, 46, 0
11, 125880, Note_on_c, 10, 53, 90
11, 126059, Note_on_c, 10, 53, 0
11, 126060, Note_on_c, 10, 51, 90
11, 126089, Note_on_c, 10, 51, 0
11, 126090, Note_on_c, 10, 53, 90
11, 126119, Note_on_c, 10, 53, 0
11, 126120, Note_on_c, 10, 50, 90
11, 126179, Note_on_c, 10, 50, 0
11, 126180, Note_on_c, 10, 46, 90
11, 126239, Note_on_c, 10, 46, 0
11, 126240, Note_on_c, 10, 52, 90
11, 126299, Note_on_c, 10, 52, 0
11, 126300, Note_on_c, 10, 48, 90
11, 126359, Note_on_c, 10, 48, 0
11, 126360, Note_on_c, 10, 53, 90
11, 126419, Note_on_c, 10, 53, 0
11, 126420, Note_on_c, 10, 50, 90
11, 126479, Note_on_c, 10, 50, 0
11, 126480, Note_on_c, 10, 46, 90
11, 126539, Note_on_c, 10, 46, 0
11, 126540, Note_on_c, 10, 48, 90
11, 126599, Note_on_c, 10, 48, 0
11, 126600, Note_on_c, 10, 41, 90
11, 126659, Note_on_c, 10, 41, 0
11, 126660, Note_on_c, 10, 48, 90
11, 126719, Note_on_c, 10, 48, 0
11, 126720, Note_on_c, 10, 53, 90
11, 126779, Note_on_c, 10, 53, 0
11, 126780, Note_on_c, 10, 51, 90
11, 126839, Note_on_c, 10, 51, 0
11, 126840, Note_on_c, 10, 50, 90
11, 126899, Note_on_c, 10, 50, 0
11, 126900, Note_on_c, 10, 46, 90
11, 126959, Note_on_c, 10, 46, 0
11, 126960, Note_on_c, 10, 53, 90
11, 127019, Note_on_c, 10, 53, 0
11, 127020, Note_on_c, 10, 55, 90
11, 127079, Note_on_c, 10, 55, 0
11, 127080, Note_on_c, 10, 53, 90
11, 127139, Note_on_c, 10, 53, 0
11, 127140, Note_on_c, 10, 51, 90
11, 127199, Note_on_c, 10, 51, 0
11, 127200, Note_on_c, 10, 50, 90
11, 127259, Note_on_c, 10, 50, 0
11, 127260, Note_on_c, 10, 46, 90
11, 127319, Note_on_c, 10, 46, 0
11, 127320, Note_on_c, 10, 53, 90
11, 127379, Note_on_c, 10, 53, 0
11, 127380, Note_on_c, 10, 55, 90
11, 127439, Note_on_c, 10, 55, 0
11, 127440, Note_on_c, 10, 53, 90
11, 127499, Note_on_c, 10, 53, 0
11, 127500, Note_on_c, 10, 51, 90
11, 127559, Note_on_c, 10, 51, 0
11, 127560, Note_on_c, 10, 50, 90
11, 127619, Note_on_c, 10, 50, 0
11, 127620, Note_on_c, 10, 46, 90
11, 127679, Note_on_c, 10, 46, 0
11, 127680, Note_on_c, 10, 50, 90
11, 127739, Note_on_c, 10, 50, 0
11, 127740, Note_on_c, 10, 53, 90
11, 127799, Note_on_c, 10, 53, 0
11, 127800, Note_on_c, 10, 58, 90
11, 127859, Note_on_c, 10, 58, 0
11, 127860, Note_on_c, 10, 57, 90
11, 127889, Note_on_c, 10, 57, 0
11, 127890, Note_on_c, 10, 55, 90
11, 127919, Note_on_c, 10, 55, 0
11, 127920, Note_on_c, 10, 53, 90
11, 128039, Note_on_c, 10, 53, 0
11, 128040, Note_on_c, 10, 41, 90
11, 128129, Note_on_c, 10, 41, 0
11, 128130, Note_on_c, 10, 43, 90
11, 128159, Note_on_c, 10, 43, 0
11, 128160, Note_on_c, 10, 45, 90
11, 128219, Note_on_c, 10, 45, 0
11, 128220, Note_on_c, 10, 41, 90
11, 128279, Note_on_c, 10, 41, 0
11, 128280, Note_on_c, 10, 46, 90
11, 128339, Note_on_c, 10, 46, 0
11, 128340, Note_on_c, 10, 50, 90
11, 128399, Note_on_c, 10, 50, 0
11, 128400, Note_on_c, 10, 53, 90
11, 128519, Note_on_c, 10, 53, 0
11, 128760, Note_on_c, 10, 41, 90
11, 128849, Note_on_c, 10, 41, 0
11, 128850, Note_on_c, 10, 43, 90
11, 128879, Note_on_c, 10, 43, 0
11, 128880, Note_on_c, 10, 45, 90
11, 128939, Note_on_c, 10, 45, 0
11, 128940, Note_on_c, 10, 41, 90
11, 128999, Note_on_c, 10, 41, 0
11, 129000, Note_on_c, 10, 46, 90
11, 129059, Note_on_c, 10, 46, 0
11, 129060, Note_on_c, 10, 50, 90
11, 129119, Note_on_c, 10, 50, 0
11, 129120, Note_on_c, 10, 53, 90
11, 129179, Note_on_c, 10, 53, 0
11, 129180, Note_on_c, 10, 51, 90
11, 129239, Note_on_c, 10, 51, 0
11, 129240, Note_on_c, 10, 50, 90
11, 129299, Note_on_c, 10, 50, 0
11, 129300, Note_on_c, 10, 48, 90
11, 129359, Note_on_c, 10, 48, 0
11, 129360, Note_on_c, 10, 46, 90
11, 129479, Note_on_c, 10, 46, 0
11, 129540, Note_on_c, 10, 41, 90
11, 129599, Note_on_c, 10, 41, 0
11, 129600, Note_on_c, 10, 48, 90
11, 129659, Note_on_c, 10, 48, 0
11, 129660, Note_on_c, 10, 50, 90
11, 129719, Note_on_c, 10, 50, 0
11, 129720, Note_on_c, 10, 51, 90
11, 129779, Note_on_c, 10, 51, 0
11, 129780, Note_on_c, 10, 53, 90
11, 129809, Note_on_c, 10, 53, 0
11, 129810, Note_on_c, 10, 55, 90
11, 129839, Note_on_c, 10, 55, 0
11, 129840, Note_on_c, 10, 45, 90
11, 130019, Note_on_c, 10, 45, 0
11, 130020, Note_on_c, 10, 46, 90
11, 130049, Note_on_c, 10, 46, 0
11, 130050, Note_on_c, 10, 48, 90
11, 130079, Note_on_c, 10, 48, 0
11, 130080, Note_on_c, 10, 50, 90
11, 130139, Note_on_c, 10, 50, 0
11, 130140, Note_on_c, 10, 46, 90
11, 130199, Note_on_c, 10, 46, 0
11, 130200, Note_on_c, 10, 53, 90
11, 130259, Note_on_c, 10, 53, 0
11, 130260, Note_on_c, 10, 55, 90
11, 130319, Note_on_c, 10, 55, 0
11, 130320, Note_on_c, 10, 53, 90
11, 130379, Note_on_c, 10, 53, 0
11, 130380, Note_on_c, 10, 51, 90
11, 130439, Note_on_c, 10, 51, 0
11, 130440, Note_on_c, 10, 50, 90
11, 130499, Note_on_c, 10, 50, 0
11, 130500, Note_on_c, 10, 62, 90
11, 130559, Note_on_c, 10, 62, 0
11, 130560, Note_on_c, 10, 60, 90
11, 130619, Note_on_c, 10, 60, 0
11, 130620, Note_on_c, 10, 58, 90
11, 130679, Note_on_c, 10, 58, 0
11, 130680, Note_on_c, 10, 57, 90
11, 130739, Note_on_c, 10, 57, 0
11, 130740, Note_on_c, 10, 53, 90
11, 130799, Note_on_c, 10, 53, 0
11, 130800, Note_on_c, 10, 58, 90
11, 130919, Note_on_c, 10, 58, 0
11, 130920, Note_on_c, 10, 53, 90
11, 130920, Note_on_c, 10, 46, 90
11, 131159, Note_on_c, 10, 46, 0
11, 131159, Note_on_c, 10, 53, 0
11, 131280, Note_on_c, 10, 52, 90
11, 131759, Note_on_c, 10, 52, 0
11, 131760, Note_on_c, 10, 49, 90
11, 132239, Note_on_c, 10, 49, 0
11, 132240, Note_on_c, 10, 48, 90
11, 132719, Note_on_c, 10, 48, 0
11, 132720, Note_on_c, 10, 47, 90
11, 133439, Note_on_c, 10, 47, 0
11, 133440, Note_on_c, 10, 49, 90
11, 133679, Note_on_c, 10, 49, 0
11, 133680, Note_on_c, 10, 50, 90
11, 133799, Note_on_c, 10, 50, 0
11, 133800, Note_on_c, 10, 47, 90
11, 133919, Note_on_c, 10, 47, 0
11, 134040, Note_on_c, 10, 45, 90
11, 134159, Note_on_c, 10, 45, 0
11, 134160, Note_on_c, 10, 50, 90
11, 134639, Note_on_c, 10, 50, 0
11, 134760, Note_on_c, 10, 45, 90
11, 134819, Note_on_c, 10, 45, 0
11, 134820, Note_on_c, 10, 49, 90
11, 134879, Note_on_c, 10, 49, 0
11, 134880, Note_on_c, 10, 52, 90
11, 134939, Note_on_c, 10, 52, 0
11, 134940, Note_on_c, 10, 57, 90
11, 134999, Note_on_c, 10, 57, 0
11, 135000, Note_on_c, 10, 61, 90
11, 135059, Note_on_c, 10, 61, 0
11, 135060, Note_on_c, 10, 64, 90
11, 135119, Note_on_c, 10, 64, 0
11, 135120, Note_on_c, 10, 62, 90
11, 135239, Note_on_c, 10, 62, 0
11, 135240, Note_on_c, 10, 61, 90
11, 135299, Note_on_c, 10, 61, 0
11, 135300, Note_on_c, 10, 59, 90
11, 135359, Note_on_c, 10, 59, 0
11, 135360, Note_on_c, 10, 52, 90
11, 135419, Note_on_c, 10, 52, 0
11, 135420, Note_on_c, 10, 57, 90
11, 135479, Note_on_c, 10, 57, 0
11, 135480, Note_on_c, 10, 45, 90
11, 135539, Note_on_c, 10, 45, 0
11, 135540, Note_on_c, 10, 49, 90
11, 135599, Note_on_c, 10, 49, 0
11, 135600, Note_on_c, 10, 52, 90
11, 135659, Note_on_c, 10, 52, 0
11, 135660, Note_on_c, 10, 57, 90
11, 135719, Note_on_c, 10, 57, 0
11, 135720, Note_on_c, 10, 54, 90
11, 135779, Note_on_c, 10, 54, 0
11, 135780, Note_on_c, 10, 50, 90
11, 135839, Note_on_c, 10, 50, 0
11, 135840, Note_on_c, 10, 47, 90
11, 135899, Note_on_c, 10, 47, 0
11, 135900, Note_on_c, 10, 44, 90
11, 135959, Note_on_c, 10, 44, 0
11, 135960, Note_on_c, 10, 45, 90
11, 136019, Note_on_c, 10, 45, 0
11, 136020, Note_on_c, 10, 40, 90
11, 136079, Note_on_c, 10, 40, 0
11, 136080, Note_on_c, 10, 42, 90
11, 136109, Note_on_c, 10, 42, 0
11, 136110, Note_on_c, 10, 44, 90
11, 136139, Note_on_c, 10, 44, 0
11, 136140, Note_on_c, 10, 45, 90
11, 136169, Note_on_c, 10, 45, 0
11, 136170, Note_on_c, 10, 47, 90
11, 136199, Note_on_c, 10, 47, 0
11, 136200, Note_on_c, 10, 49, 90
11, 136319, Note_on_c, 10, 49, 0
11, 136320, Note_on_c, 10, 47, 90
11, 136379, Note_on_c, 10, 47, 0
11, 136380, Note_on_c, 10, 45, 90
11, 136439, Note_on_c, 10, 45, 0
11, 136440, Note_on_c, 10, 49, 90
11, 136499, Note_on_c, 10, 49, 0
11, 136500, Note_on_c, 10, 52, 90
11, 136559, Note_on_c, 10, 52, 0
11, 136560, Note_on_c, 10, 56, 90
11, 136679, Note_on_c, 10, 56, 0
11, 136680, Note_on_c, 10, 57, 90
11, 136799, Note_on_c, 10, 57, 0
11, 136800, Note_on_c, 10, 56, 90
11, 136859, Note_on_c, 10, 56, 0
11, 136860, Note_on_c, 10, 57, 90
11, 136919, Note_on_c, 10, 57, 0
11, 136920, Note_on_c, 10, 45, 90
11, 136979, Note_on_c, 10, 45, 0
11, 136980, Note_on_c, 10, 49, 90
11, 137039, Note_on_c, 10, 49, 0
11, 137040, Note_on_c, 10, 52, 90
11, 137099, Note_on_c, 10, 52, 0
11, 137100, Note_on_c, 10, 57, 90
11, 137159, Note_on_c, 10, 57, 0
11, 137160, Note_on_c, 10, 59, 90
11, 137219, Note_on_c, 10, 59, 0
11, 137220, Note_on_c, 10, 61, 90
11, 137279, Note_on_c, 10, 61, 0
11, 137280, Note_on_c, 10, 62, 90
11, 137339, Note_on_c, 10, 62, 0
11, 137340, Note_on_c, 10, 56, 90
11, 137399, Note_on_c, 10, 56, 0
11, 137400, Note_on_c, 10, 57, 90
11, 137459, Note_on_c, 10, 57, 0
11, 137460, Note_on_c, 10, 64, 90
11, 137519, Note_on_c, 10, 64, 0
11, 137520, Note_on_c, 10, 52, 90
11, 137579, Note_on_c, 10, 52, 0
11, 137580, Note_on_c, 10, 50, 90
11, 137639, Note_on_c, 10, 50, 0
11, 137640, Note_on_c, 10, 49, 90
11, 137699, Note_on_c, 10, 49, 0
11, 137700, Note_on_c, 10, 47, 90
11, 137759, Note_on_c, 10, 47, 0
11, 137760, Note_on_c, 10, 45, 90
11, 137819, Note_on_c, 10, 45, 0
11, 137820, Note_on_c, 10, 54, 90
11, 137879, Note_on_c, 10, 54, 0
11, 137880, Note_on_c, 10, 50, 90
11, 137939, Note_on_c, 10, 50, 0
11, 137940, Note_on_c, 10, 49, 90
11, 137999, Note_on_c, 10, 49, 0
11, 138000, Note_on_c, 10, 47, 90
11, 138059, Note_on_c, 10, 47, 0
11, 138060, Note_on_c, 10, 49, 90
11, 138119, Note_on_c, 10, 49, 0
11, 138120, Note_on_c, 10, 50, 90
11, 138179, Note_on_c, 10, 50, 0
11, 138180, Note_on_c, 10, 52, 90
11, 138239, Note_on_c, 10, 52, 0
11, 138240, Note_on_c, 10, 54, 90
11, 138299, Note_on_c, 10, 54, 0
11, 138300, Note_on_c, 10, 56, 90
11, 138359, Note_on_c, 10, 56, 0
11, 138360, Note_on_c, 10, 45, 90
11, 138419, Note_on_c, 10, 45, 0
11, 138420, Note_on_c, 10, 47, 90
11, 138479, Note_on_c, 10, 47, 0
11, 138480, Note_on_c, 10, 49, 90
11, 138539, Note_on_c, 10, 49, 0
11, 138540, Note_on_c, 10, 50, 90
11, 138599, Note_on_c, 10, 50, 0
11, 138600, Note_on_c, 10, 49, 90
11, 138659, Note_on_c, 10, 49, 0
11, 138660, Note_on_c, 10, 47, 90
11, 138719, Note_on_c, 10, 47, 0
11, 138720, Note_on_c, 10, 45, 90
11, 138779, Note_on_c, 10, 45, 0
11, 138780, Note_on_c, 10, 38, 90
11, 138839, Note_on_c, 10, 38, 0
11, 138840, Note_on_c, 10, 40, 90
11, 138899, Note_on_c, 10, 40, 0
11, 138900, Note_on_c, 10, 45, 90
11, 138959, Note_on_c, 10, 45, 0
11, 138960, Note_on_c, 10, 45, 90
11, 138989, Note_on_c, 10, 45, 0
11, 138990, Note_on_c, 10, 44, 90
11, 139019, Note_on_c, 10, 44, 0
11, 139020, Note_on_c, 10, 45, 90
11, 139049, Note_on_c, 10, 45, 0
11, 139050, Note_on_c, 10, 47, 90
11, 139079, Note_on_c, 10, 47, 0
11, 139080, Note_on_c, 10, 49, 90
11, 139139, Note_on_c, 10, 49, 0
11, 139140, Note_on_c, 10, 54, 90
11, 139199, Note_on_c, 10, 54, 0
11, 139200, Note_on_c, 10, 52, 90
11, 139259, Note_on_c, 10, 52, 0
11, 139260, Note_on_c, 10, 54, 90
11, 139319, Note_on_c, 10, 54, 0
11, 139320, Note_on_c, 10, 50, 90
11, 139379, Note_on_c, 10, 50, 0
11, 139380, Note_on_c, 10, 49, 90
11, 139439, Note_on_c, 10, 49, 0
11, 139440, Note_on_c, 10, 47, 90
11, 139499, Note_on_c, 10, 47, 0
11, 139500, Note_on_c, 10, 52, 90
11, 139559, Note_on_c, 10, 52, 0
11, 139560, Note_on_c, 10, 50, 90
11, 139619, Note_on_c, 10, 50, 0
11, 139620, Note_on_c, 10, 52, 90
11, 139679, Note_on_c, 10, 52, 0
11, 139680, Note_on_c, 10, 49, 90
11, 139739, Note_on_c, 10, 49, 0
11, 139740, Note_on_c, 10, 47, 90
11, 139799, Note_on_c, 10, 47, 0
11, 139800, Note_on_c, 10, 45, 90
11, 139859, Note_on_c, 10, 45, 0
11, 139860, Note_on_c, 10, 50, 90
11, 139919, Note_on_c, 10, 50, 0
11, 139920, Note_on_c, 10, 49, 90
11, 139979, Note_on_c, 10, 49, 0
11, 139980, Note_on_c, 10, 50, 90
11, 140039, Note_on_c, 10, 50, 0
11, 140040, Note_on_c, 10, 40, 90
11, 140099, Note_on_c, 10, 40, 0
11, 140100, Note_on_c, 10, 44, 90
11, 140159, Note_on_c, 10, 44, 0
11, 140160, Note_on_c, 10, 45, 90
11, 140219, Note_on_c, 10, 45, 0
11, 140220, Note_on_c, 10, 38, 90
11, 140279, Note_on_c, 10, 38, 0
11, 140280, Note_on_c, 10, 40, 90
11, 140339, Note_on_c, 10, 40, 0
11, 140340, Note_on_c, 10, 45, 90
11, 140459, Note_on_c, 10, 45, 0
11, 140520, Note_on_c, 10, 45, 90
11, 140549, Note_on_c, 10, 45, 0
11, 140550, Note_on_c, 10, 49, 90
11, 140579, Note_on_c, 10, 49, 0
11, 140580, Note_on_c, 10, 49, 90
11, 140609, Note_on_c, 10, 49, 0
11, 140610, Note_on_c, 10, 52, 90
11, 140639, Note_on_c, 10, 52, 0
11, 140640, Note_on_c, 10, 52, 90
11, 140669, Note_on_c, 10, 52, 0
11, 140670, Note_on_c, 10, 57, 90
11, 140699, Note_on_c, 10, 57, 0
11, 140700, Note_on_c, 10, 57, 90
11, 140759, Note_on_c, 10, 57, 0
11, 140760, Note_on_c, 10, 52, 90
11, 140819, Note_on_c, 10, 52, 0
11, 140910, Note_on_c, 10, 56, 90
11, 140939, Note_on_c, 10, 56, 0
11, 140940, Note_on_c, 10, 56, 90
11, 140969, Note_on_c, 10, 56, 0
11, 140970, Note_on_c, 10, 54, 90
11, 140999, Note_on_c, 10, 54, 0
11, 141000, Note_on_c, 10, 54, 90
11, 141029, Note_on_c, 10, 54, 0
11, 141030, Note_on_c, 10, 52, 90
11, 141059, Note_on_c, 10, 52, 0
11, 141060, Note_on_c, 10, 52, 90
11, 141119, Note_on_c, 10, 52, 0
11, 141120, Note_on_c, 10, 45, 90
11, 141179, Note_on_c, 10, 45, 0
11, 141270, Note_on_c, 10, 40, 90
11, 141299, Note_on_c, 10, 40, 0
11, 141300, Note_on_c, 10, 40, 90
11, 141329, Note_on_c, 10, 40, 0
11, 141330, Note_on_c, 10, 45, 90
11, 141359, Note_on_c, 10, 45, 0
11, 141360, Note_on_c, 10, 45, 90
11, 141389, Note_on_c, 10, 45, 0
11, 141390, Note_on_c, 10, 49, 90
11, 141419, Note_on_c, 10, 49, 0
11, 141420, Note_on_c, 10, 49, 90
11, 141479, Note_on_c, 10, 49, 0
11, 141480, Note_on_c, 10, 44, 90
11, 141539, Note_on_c, 10, 44, 0
11, 141630, Note_on_c, 10, 47, 90
11, 141659, Note_on_c, 10, 47, 0
11, 141660, Note_on_c, 10, 47, 90
11, 141689, Note_on_c, 10, 47, 0
11, 141690, Note_on_c, 10, 45, 90
11, 141719, Note_on_c, 10, 45, 0
11, 141720, Note_on_c, 10, 45, 90
11, 141749, Note_on_c, 10, 45, 0
11, 141750, Note_on_c, 10, 52, 90
11, 141779, Note_on_c, 10, 52, 0
11, 141780, Note_on_c, 10, 52, 90
11, 141839, Note_on_c, 10, 52, 0
11, 141840, Note_on_c, 10, 40, 90
11, 141899, Note_on_c, 10, 40, 0
11, 141960, Note_on_c, 10, 45, 90
11, 141989, Note_on_c, 10, 45, 0
11, 141990, Note_on_c, 10, 47, 90
11, 142019, Note_on_c, 10, 47, 0
11, 142020, Note_on_c, 10, 49, 90
11, 142049, Note_on_c, 10, 49, 0
11, 142050, Note_on_c, 10, 47, 90
11, 142079, Note_on_c, 10, 47, 0
11, 142080, Note_on_c, 10, 45, 90
11, 142109, Note_on_c, 10, 45, 0
11, 142110, Note_on_c, 10, 44, 90
11, 142139, Note_on_c, 10, 44, 0
11, 142140, Note_on_c, 10, 45, 90
11, 142169, Note_on_c, 10, 45, 0
11, 142170, Note_on_c, 10, 47, 90
11, 142199, Note_on_c, 10, 47, 0
11, 142200, Note_on_c, 10, 45, 90
11, 142229, Note_on_c, 10, 45, 0
11, 142230, Note_on_c, 10, 44, 90
11, 142259, Note_on_c, 10, 44, 0
11, 142260, Note_on_c, 10, 45, 90
11, 142289, Note_on_c, 10, 45, 0
11, 142290, Note_on_c, 10, 42, 90
11, 142319, Note_on_c, 10, 42, 0
11, 142320, Note_on_c, 10, 44, 90
11, 142349, Note_on_c, 10, 44, 0
11, 142350, Note_on_c, 10, 45, 90
11, 142379, Note_on_c, 10, 45, 0
11, 142380, Note_on_c, 10, 47, 90
11, 142409, Note_on_c, 10, 47, 0
11, 142410, Note_on_c, 10, 45, 90
11, 142439, Note_on_c, 10, 45, 0
11, 142440, Note_on_c, 10, 44, 90
11, 142469, Note_on_c, 10, 44, 0
11, 142470, Note_on_c, 10, 42, 90
11, 142499, Note_on_c, 10, 42, 0
11, 142500, Note_on_c, 10, 44, 90
11, 142529, Note_on_c, 10, 44, 0
11, 142530, Note_on_c, 10, 45, 90
11, 142559, Note_on_c, 10, 45, 0
11, 142560, Note_on_c, 10, 47, 90
11, 142589, Note_on_c, 10, 47, 0
11, 142590, Note_on_c, 10, 44, 90
11, 142619, Note_on_c, 10, 44, 0
11, 142620, Note_on_c, 10, 45, 90
11, 142649, Note_on_c, 10, 45, 0
11, 142650, Note_on_c, 10, 47, 90
11, 142679, Note_on_c, 10, 47, 0
11, 142680, Note_on_c, 10, 49, 90
11, 142709, Note_on_c, 10, 49, 0
11, 142710, Note_on_c, 10, 50, 90
11, 142739, Note_on_c, 10, 50, 0
11, 142740, Note_on_c, 10, 49, 90
11, 142769, Note_on_c, 10, 49, 0
11, 142770, Note_on_c, 10, 47, 90
11, 142799, Note_on_c, 10, 47, 0
11, 142800, Note_on_c, 10, 45, 90
11, 142829, Note_on_c, 10, 45, 0
11, 142830, Note_on_c, 10, 44, 90
11, 142859, Note_on_c, 10, 44, 0
11, 142860, Note_on_c, 10, 45, 90
11, 142889, Note_on_c, 10, 45, 0
11, 142890, Note_on_c, 10, 40, 90
11, 142919, Note_on_c, 10, 40, 0
11, 142920, Note_on_c, 10, 42, 90
11, 142949, Note_on_c, 10, 42, 0
11, 142950, Note_on_c, 10, 44, 90
11, 142979, Note_on_c, 10, 44, 0
11, 142980, Note_on_c, 10, 45, 90
11, 143009, Note_on_c, 10, 45, 0
11, 143010, Note_on_c, 10, 47, 90
11, 143039, Note_on_c, 10, 47, 0
11, 143040, Note_on_c, 10, 49, 90
11, 143099, Note_on_c, 10, 49, 0
11, 143100, Note_on_c, 10, 44, 90
11, 143159, Note_on_c, 10, 44, 0
11, 143160, Note_on_c, 10, 45, 90
11, 143219, Note_on_c, 10, 45, 0
11, 143220, Note_on_c, 10, 52, 90
11, 143249, Note_on_c, 10, 52, 0
11, 143250, Note_on_c, 10, 50, 90
11, 143279, Note_on_c, 10, 50, 0
11, 143280, Note_on_c, 10, 52, 90
11, 143309, Note_on_c, 10, 52, 0
11, 143310, Note_on_c, 10, 54, 90
11, 143339, Note_on_c, 10, 54, 0
11, 143340, Note_on_c, 10, 52, 90
11, 143369, Note_on_c, 10, 52, 0
11, 143370, Note_on_c, 10, 50, 90
11, 143399, Note_on_c, 10, 50, 0
11, 143400, Note_on_c, 10, 49, 90
11, 143429, Note_on_c, 10, 49, 0
11, 143430, Note_on_c, 10, 47, 90
11, 143459, Note_on_c, 10, 47, 0
11, 143460, Note_on_c, 10, 47, 90
11, 143489, Note_on_c, 10, 47, 0
11, 143490, Note_on_c, 10, 45, 90
11, 143519, Note_on_c, 10, 45, 0
11, 143520, Note_on_c, 10, 45, 90
11, 143549, Note_on_c, 10, 45, 0
11, 143550, Note_on_c, 10, 50, 90
11, 143579, Note_on_c, 10, 50, 0
11, 143580, Note_on_c, 10, 50, 90
11, 143639, Note_on_c, 10, 50, 0
11, 143640, Note_on_c, 10, 38, 90
11, 143699, Note_on_c, 10, 38, 0
11, 143790, Note_on_c, 10, 52, 90
11, 143819, Note_on_c, 10, 52, 0
11, 143820, Note_on_c, 10, 52, 90
11, 143849, Note_on_c, 10, 52, 0
11, 143850, Note_on_c, 10, 50, 90
11, 143879, Note_on_c, 10, 50, 0
11, 143880, Note_on_c, 10, 50, 90
11, 143909, Note_on_c, 10, 50, 0
11, 143910, Note_on_c, 10, 52, 90
11, 143939, Note_on_c, 10, 52, 0
11, 143940, Note_on_c, 10, 52, 90
11, 143999, Note_on_c, 10, 52, 0
11, 144000, Note_on_c, 10, 45, 90
11, 144059, Note_on_c, 10, 45, 0
11, 144150, Note_on_c, 10, 61, 90
11, 144179, Note_on_c, 10, 61, 0
11, 144180, Note_on_c, 10, 61, 90
11, 144209, Note_on_c, 10, 61, 0
11, 144210, Note_on_c, 10, 57, 90
11, 144239, Note_on_c, 10, 57, 0
11, 144240, Note_on_c, 10, 57, 90
11, 144269, Note_on_c, 10, 57, 0
11, 144270, Note_on_c, 10, 54, 90
11, 144299, Note_on_c, 10, 54, 0
11, 144300, Note_on_c, 10, 54, 90
11, 144359, Note_on_c, 10, 54, 0
11, 144360, Note_on_c, 10, 50, 90
11, 144419, Note_on_c, 10, 50, 0
11, 144510, Note_on_c, 10, 52, 90
11, 144539, Note_on_c, 10, 52, 0
11, 144540, Note_on_c, 10, 52, 90
11, 144569, Note_on_c, 10, 52, 0
11, 144570, Note_on_c, 10, 50, 90
11, 144599, Note_on_c, 10, 50, 0
11, 144600, Note_on_c, 10, 50, 90
11, 144629, Note_on_c, 10, 50, 0
11, 144630, Note_on_c, 10, 52, 90
11, 144659, Note_on_c, 10, 52, 0
11, 144660, Note_on_c, 10, 45, 90
11, 144719, Note_on_c, 10, 45, 0
11, 144720, Note_on_c, 10, 57, 90
11, 144779, Note_on_c, 10, 57, 0
11, 144840, Note_on_c, 10, 45, 90
11, 144869, Note_on_c, 10, 45, 0
11, 144870, Note_on_c, 10, 43, 90
11, 144899, Note_on_c, 10, 43, 0
11, 144900, Note_on_c, 10, 42, 90
11, 144929, Note_on_c, 10, 42, 0
11, 144930, Note_on_c, 10, 40, 90
11, 144959, Note_on_c, 10, 40, 0
11, 144960, Note_on_c, 10, 42, 90
11, 144989, Note_on_c, 10, 42, 0
11, 144990, Note_on_c, 10, 40, 90
11, 145019, Note_on_c, 10, 40, 0
11, 145020, Note_on_c, 10, 38, 90
11, 145049, Note_on_c, 10, 38, 0
11, 145050, Note_on_c, 10, 40, 90
11, 145079, Note_on_c, 10, 40, 0
11, 145080, Note_on_c, 10, 42, 90
11, 145109, Note_on_c, 10, 42, 0
11, 145110, Note_on_c, 10, 44, 90
11, 145139, Note_on_c, 10, 44, 0
11, 145140, Note_on_c, 10, 45, 90
11, 145169, Note_on_c, 10, 45, 0
11, 145170, Note_on_c, 10, 47, 90
11, 145199, Note_on_c, 10, 47, 0
11, 145200, Note_on_c, 10, 49, 90
11, 145229, Note_on_c, 10, 49, 0
11, 145230, Note_on_c, 10, 50, 90
11, 145259, Note_on_c, 10, 50, 0
11, 145260, Note_on_c, 10, 52, 90
11, 145289, Note_on_c, 10, 52, 0
11, 145290, Note_on_c, 10, 50, 90
11, 145319, Note_on_c, 10, 50, 0
11, 145320, Note_on_c, 10, 52, 90
11, 145349, Note_on_c, 10, 52, 0
11, 145350, Note_on_c, 10, 50, 90
11, 145379, Note_on_c, 10, 50, 0
11, 145380, Note_on_c, 10, 49, 90
11, 145409, Note_on_c, 10, 49, 0
11, 145410, Note_on_c, 10, 47, 90
11, 145439, Note_on_c, 10, 47, 0
11, 145440, Note_on_c, 10, 45, 90
11, 145469, Note_on_c, 10, 45, 0
11, 145470, Note_on_c, 10, 44, 90
11, 145499, Note_on_c, 10, 44, 0
11, 145500, Note_on_c, 10, 45, 90
11, 145529, Note_on_c, 10, 45, 0
11, 145530, Note_on_c, 10, 47, 90
11, 145559, Note_on_c, 10, 47, 0
11, 145560, Note_on_c, 10, 49, 90
11, 145589, Note_on_c, 10, 49, 0
11, 145590, Note_on_c, 10, 54, 90
11, 145619, Note_on_c, 10, 54, 0
11, 145620, Note_on_c, 10, 52, 90
11, 145649, Note_on_c, 10, 52, 0
11, 145650, Note_on_c, 10, 50, 90
11, 145679, Note_on_c, 10, 50, 0
11, 145680, Note_on_c, 10, 49, 90
11, 145709, Note_on_c, 10, 49, 0
11, 145710, Note_on_c, 10, 47, 90
11, 145739, Note_on_c, 10, 47, 0
11, 145740, Note_on_c, 10, 45, 90
11, 145769, Note_on_c, 10, 45, 0
11, 145770, Note_on_c, 10, 44, 90
11, 145799, Note_on_c, 10, 44, 0
11, 145800, Note_on_c, 10, 45, 90
11, 145829, Note_on_c, 10, 45, 0
11, 145830, Note_on_c, 10, 47, 90
11, 145859, Note_on_c, 10, 47, 0
11, 145860, Note_on_c, 10, 49, 90
11, 145889, Note_on_c, 10, 49, 0
11, 145890, Note_on_c, 10, 50, 90
11, 145919, Note_on_c, 10, 50, 0
11, 145920, Note_on_c, 10, 52, 90
11, 145979, Note_on_c, 10, 52, 0
11, 145980, Note_on_c, 10, 50, 90
11, 146039, Note_on_c, 10, 50, 0
11, 146040, Note_on_c, 10, 52, 90
11, 146099, Note_on_c, 10, 52, 0
11, 146100, Note_on_c, 10, 57, 90
11, 146159, Note_on_c, 10, 57, 0
11, 146160, Note_on_c, 10, 52, 90
11, 146219, Note_on_c, 10, 52, 0
11, 146220, Note_on_c, 10, 49, 90
11, 146279, Note_on_c, 10, 49, 0
11, 146280, Note_on_c, 10, 45, 90
11, 146339, Note_on_c, 10, 45, 0
11, 146400, Note_on_c, 10, 44, 90
11, 146459, Note_on_c, 10, 44, 0
11, 146460, Note_on_c, 10, 45, 90
11, 146519, Note_on_c, 10, 45, 0
11, 146580, Note_on_c, 10, 52, 90
11, 146639, Note_on_c, 10, 52, 0
11, 146640, Note_on_c, 10, 50, 90
11, 146699, Note_on_c, 10, 50, 0
11, 146760, Note_on_c, 10, 49, 90
11, 146819, Note_on_c, 10, 49, 0
11, 146820, Note_on_c, 10, 47, 90
11, 146879, Note_on_c, 10, 47, 0
11, 146940, Note_on_c, 10, 45, 90
11, 146999, Note_on_c, 10, 45, 0
11, 147000, Note_on_c, 10, 57, 90
11, 147059, Note_on_c, 10, 57, 0
11, 147120, Note_on_c, 10, 56, 90
11, 147179, Note_on_c, 10, 56, 0
11, 147180, Note_on_c, 10, 54, 90
11, 147239, Note_on_c, 10, 54, 0
11, 147300, Note_on_c, 10, 50, 90
11, 147359, Note_on_c, 10, 50, 0
11, 147360, Note_on_c, 10, 52, 90
11, 147419, Note_on_c, 10, 52, 0
11, 147480, Note_on_c, 10, 45, 90
11, 147539, Note_on_c, 10, 45, 0
11, 147540, Note_on_c, 10, 52, 90
11, 147629, Note_on_c, 10, 52, 0
11, 147630, Note_on_c, 10, 50, 90
11, 147659, Note_on_c, 10, 50, 0
11, 147660, Note_on_c, 10, 49, 90
11, 147689, Note_on_c, 10, 49, 0
11, 147690, Note_on_c, 10, 47, 90
11, 147719, Note_on_c, 10, 47, 0
11, 147720, Note_on_c, 10, 45, 90
11, 147779, Note_on_c, 10, 45, 0
11, 147900, Note_on_c, 10, 45, 90
11, 147929, Note_on_c, 10, 45, 0
11, 147930, Note_on_c, 10, 47, 90
11, 147959, Note_on_c, 10, 47, 0
11, 147960, Note_on_c, 10, 49, 90
11, 147989, Note_on_c, 10, 49, 0
11, 147990, Note_on_c, 10, 50, 90
11, 148019, Note_on_c, 10, 50, 0
11, 148020, Note_on_c, 10, 52, 90
11, 148079, Note_on_c, 10, 52, 0
11, 148260, Note_on_c, 10, 52, 90
11, 148289, Note_on_c, 10, 52, 0
11, 148290, Note_on_c, 10, 50, 90
11, 148319, Note_on_c, 10, 50, 0
11, 148320, Note_on_c, 10, 49, 90
11, 148349, Note_on_c, 10, 49, 0
11, 148350, Note_on_c, 10, 47, 90
11, 148379, Note_on_c, 10, 47, 0
11, 148380, Note_on_c, 10, 45, 90
11, 148439, Note_on_c, 10, 45, 0
11, 148620, Note_on_c, 10, 57, 90
11, 148649, Note_on_c, 10, 57, 0
11, 148650, Note_on_c, 10, 56, 90
11, 148679, Note_on_c, 10, 56, 0
11, 148680, Note_on_c, 10, 54, 90
11, 148709, Note_on_c, 10, 54, 0
11, 148710, Note_on_c, 10, 52, 90
11, 148739, Note_on_c, 10, 52, 0
11, 148740, Note_on_c, 10, 50, 90
11, 148799, Note_on_c, 10, 50, 0
11, 148860, Note_on_c, 10, 40, 90
11, 148919, Note_on_c, 10, 40, 0
11, 148920, Note_on_c, 10, 45, 90
11, 148979, Note_on_c, 10, 45, 0
11, 148980, Note_on_c, 10, 52, 90
11, 149039, Note_on_c, 10, 52, 0
11, 149040, Note_on_c, 10, 50, 90
11, 149069, Note_on_c, 10, 50, 0
11, 149070, Note_on_c, 10, 49, 90
11, 149099, Note_on_c, 10, 49, 0
11, 149100, Note_on_c, 10, 47, 90
11, 149129, Note_on_c, 10, 47, 0
11, 149130, Note_on_c, 10, 45, 90
11, 149159, Note_on_c, 10, 45, 0
11, 149160, Note_on_c, 10, 44, 90
11, 149219, Note_on_c, 10, 44, 0
11, 149280, Note_on_c, 10, 46, 90
11, 149339, Note_on_c, 10, 46, 0
11, 149340, Note_on_c, 10, 47, 90
11, 149399, Note_on_c, 10, 47, 0
11, 149460, Note_on_c, 10, 42, 90
11, 149519, Note_on_c, 10, 42, 0
11, 149520, Note_on_c, 10, 47, 90
11, 149579, Note_on_c, 10, 47, 0
11, 149640, Note_on_c, 10, 44, 90
11, 149699, Note_on_c, 10, 44, 0
11, 149700, Note_on_c, 10, 45, 90
11, 149759, Note_on_c, 10, 45, 0
11, 149820, Note_on_c, 10, 40, 90
11, 149879, Note_on_c, 10, 40, 0
11, 149880, Note_on_c, 10, 45, 90
11, 149939, Note_on_c, 10, 45, 0
11, 150000, Note_on_c, 10, 49, 90
11, 150059, Note_on_c, 10, 49, 0
11, 150060, Note_on_c, 10, 52, 90
11, 150119, Note_on_c, 10, 52, 0
11, 150180, Note_on_c, 10, 54, 90
11, 150239, Note_on_c, 10, 54, 0
11, 150240, Note_on_c, 10, 50, 90
11, 150299, Note_on_c, 10, 50, 0
11, 150360, Note_on_c, 10, 52, 90
11, 150419, Note_on_c, 10, 52, 0
11, 150420, Note_on_c, 10, 45, 90
11, 150509, Note_on_c, 10, 45, 0
11, 150510, Note_on_c, 10, 47, 90
11, 150539, Note_on_c, 10, 47, 0
11, 150540, Note_on_c, 10, 45, 90
11, 150569, Note_on_c, 10, 45, 0
11, 150570, Note_on_c, 10, 43, 90
11, 150599, Note_on_c, 10, 43, 0
11, 150600, Note_on_c, 10, 42, 90
11, 150659, Note_on_c, 10, 42, 0
11, 150840, Note_on_c, 10, 54, 90
11, 150869, Note_on_c, 10, 54, 0
11, 150870, Note_on_c, 10, 52, 90
11, 150899, Note_on_c, 10, 52, 0
11, 150900, Note_on_c, 10, 50, 90
11, 150929, Note_on_c, 10, 50, 0
11, 150930, Note_on_c, 10, 49, 90
11, 150959, Note_on_c, 10, 49, 0
11, 150960, Note_on_c, 10, 47, 90
11, 151019, Note_on_c, 10, 47, 0
11, 151200, Note_on_c, 10, 52, 90
11, 151229, Note_on_c, 10, 52, 0
11, 151230, Note_on_c, 10, 50, 90
11, 151259, Note_on_c, 10, 50, 0
11, 151260, Note_on_c, 10, 49, 90
11, 151289, Note_on_c, 10, 49, 0
11, 151290, Note_on_c, 10, 47, 90
11, 151319, Note_on_c, 10, 47, 0
11, 151320, Note_on_c, 10, 45, 90
11, 151379, Note_on_c, 10, 45, 0
11, 151530, Note_on_c, 10, 50, 90
11, 151559, Note_on_c, 10, 50, 0
11, 151560, Note_on_c, 10, 49, 90
11, 151589, Note_on_c, 10, 49, 0
11, 151590, Note_on_c, 10, 47, 90
11, 151619, Note_on_c, 10, 47, 0
11, 151620, Note_on_c, 10, 45, 90
11, 151649, Note_on_c, 10, 45, 0
11, 151650, Note_on_c, 10, 44, 90
11, 151679, Note_on_c, 10, 44, 0
11, 151680, Note_on_c, 10, 42, 90
11, 151738, Note_on_c, 10, 42, 0
11, 151740, Note_on_c, 10, 38, 90
11, 151798, Note_on_c, 10, 38, 0
11, 151800, Note_on_c, 10, 40, 90
11, 151858, Note_on_c, 10, 40, 0
11, 151860, Note_on_c, 10, 45, 90
11, 151980, Note_on_c, 10, 45, 0
11, 152100, Note_on_c, 10, 54, 90
11, 152158, Note_on_c, 10, 54, 0
11, 152160, Note_on_c, 10, 52, 90
11, 152218, Note_on_c, 10, 52, 0
11, 152220, Note_on_c, 10, 50, 90
11, 152278, Note_on_c, 10, 50, 0
11, 152280, Note_on_c, 10, 49, 90
11, 152338, Note_on_c, 10, 49, 0
11, 152340, Note_on_c, 10, 47, 90
11, 152398, Note_on_c, 10, 47, 0
11, 152400, Note_on_c, 10, 45, 90
11, 152458, Note_on_c, 10, 45, 0
11, 152460, Note_on_c, 10, 47, 90
11, 152518, Note_on_c, 10, 47, 0
11, 152520, Note_on_c, 10, 49, 90
11, 152578, Note_on_c, 10, 49, 0
11, 152580, Note_on_c, 10, 42, 90
11, 152700, Note_on_c, 10, 42, 0
11, 152820, Note_on_c, 10, 52, 90
11, 152878, Note_on_c, 10, 52, 0
11, 152880, Note_on_c, 10, 51, 90
11, 152938, Note_on_c, 10, 51, 0
11, 152940, Note_on_c, 10, 49, 90
11, 152998, Note_on_c, 10, 49, 0
11, 153000, Note_on_c, 10, 47, 90
11, 153058, Note_on_c, 10, 47, 0
11, 153060, Note_on_c, 10, 45, 90
11, 153118, Note_on_c, 10, 45, 0
11, 153120, Note_on_c, 10, 44, 90
11, 153178, Note_on_c, 10, 44, 0
11, 153180, Note_on_c, 10, 45, 90
11, 153238, Note_on_c, 10, 45, 0
11, 153240, Note_on_c, 10, 47, 90
11, 153298, Note_on_c, 10, 47, 0
11, 153300, Note_on_c, 10, 40, 90
11, 153420, Note_on_c, 10, 40, 0
11, 153420, Note_on_c, 10, 44, 90
11, 153478, Note_on_c, 10, 44, 0
11, 153480, Note_on_c, 10, 45, 90
11, 153600, Note_on_c, 10, 45, 0
11, 153600, Note_on_c, 10, 44, 90
11, 153658, Note_on_c, 10, 44, 0
11, 153660, Note_on_c, 10, 42, 90
11, 153780, Note_on_c, 10, 42, 0
11, 153780, Note_on_c, 10, 44, 90
11, 153838, Note_on_c, 10, 44, 0
11, 153840, Note_on_c, 10, 45, 90
11, 153898, Note_on_c, 10, 45, 0
11, 153900, Note_on_c, 10, 44, 90
11, 153958, Note_on_c, 10, 44, 0
11, 153960, Note_on_c, 10, 42, 90
11, 154018, Note_on_c, 10, 42, 0
11, 154020, Note_on_c, 10, 44, 90
11, 154078, Note_on_c, 10, 44, 0
11, 154080, Note_on_c, 10, 56, 90
11, 154138, Note_on_c, 10, 56, 0
11, 154140, Note_on_c, 10, 54, 90
11, 154198, Note_on_c, 10, 54, 0
11, 154200, Note_on_c, 10, 52, 90
11, 154320, Note_on_c, 10, 52, 0
11, 154320, Note_on_c, 10, 51, 90
11, 154378, Note_on_c, 10, 51, 0
11, 154380, Note_on_c, 10, 49, 90
11, 154409, Note_on_c, 10, 49, 0
11, 154410, Note_on_c, 10, 51, 90
11, 154439, Note_on_c, 10, 51, 0
11, 154440, Note_on_c, 10, 52, 90
11, 154469, Note_on_c, 10, 52, 0
11, 154470, Note_on_c, 10, 54, 90
11, 154499, Note_on_c, 10, 54, 0
11, 154500, Note_on_c, 10, 56, 90
11, 154558, Note_on_c, 10, 56, 0
11, 154560, Note_on_c, 10, 54, 90
11, 154680, Note_on_c, 10, 54, 0
11, 154680, Note_on_c, 10, 52, 90
11, 154738, Note_on_c, 10, 52, 0
11, 154740, Note_on_c, 10, 51, 90
11, 154798, Note_on_c, 10, 51, 0
11, 154800, Note_on_c, 10, 56, 90
11, 154858, Note_on_c, 10, 56, 0
11, 154860, Note_on_c, 10, 49, 90
11, 154918, Note_on_c, 10, 49, 0
11, 154920, Note_on_c, 10, 54, 90
11, 155160, Note_on_c, 10, 54, 0
11, 155160, Note_on_c, 10, 52, 90
11, 155219, Note_on_c, 10, 52, 0
11, 155220, Note_on_c, 10, 57, 90
11, 155279, Note_on_c, 10, 57, 0
11, 155280, Note_on_c, 10, 56, 90
11, 155339, Note_on_c, 10, 56, 0
11, 155340, Note_on_c, 10, 54, 90
11, 155399, Note_on_c, 10, 54, 0
11, 155400, Note_on_c, 10, 56, 90
11, 155459, Note_on_c, 10, 56, 0
11, 155460, Note_on_c, 10, 49, 90
11, 155489, Note_on_c, 10, 49, 0
11, 155490, Note_on_c, 10, 48, 90
11, 155519, Note_on_c, 10, 48, 0
11, 155520, Note_on_c, 10, 49, 90
11, 155549, Note_on_c, 10, 49, 0
11, 155550, Note_on_c, 10, 51, 90
11, 155579, Note_on_c, 10, 51, 0
11, 155580, Note_on_c, 10, 52, 90
11, 155609, Note_on_c, 10, 52, 0
11, 155610, Note_on_c, 10, 49, 90
11, 155639, Note_on_c, 10, 49, 0
11, 155640, Note_on_c, 10, 44, 90
11, 155699, Note_on_c, 10, 44, 0
11, 155700, Note_on_c, 10, 49, 90
11, 155759, Note_on_c, 10, 49, 0
11, 155760, Note_on_c, 10, 51, 90
11, 155819, Note_on_c, 10, 51, 0
11, 155820, Note_on_c, 10, 52, 90
11, 155879, Note_on_c, 10, 52, 0
11, 155880, Note_on_c, 10, 51, 90
11, 155909, Note_on_c, 10, 51, 0
11, 155910, Note_on_c, 10, 49, 90
11, 155939, Note_on_c, 10, 49, 0
11, 155940, Note_on_c, 10, 48, 90
11, 155969, Note_on_c, 10, 48, 0
11, 155970, Note_on_c, 10, 49, 90
11, 155999, Note_on_c, 10, 49, 0
11, 156000, Note_on_c, 10, 44, 90
11, 156059, Note_on_c, 10, 44, 0
11, 156060, Note_on_c, 10, 51, 90
11, 156119, Note_on_c, 10, 51, 0
11, 156120, Note_on_c, 10, 52, 90
11, 156179, Note_on_c, 10, 52, 0
11, 156180, Note_on_c, 10, 54, 90
11, 156239, Note_on_c, 10, 54, 0
11, 156240, Note_on_c, 10, 52, 90
11, 156269, Note_on_c, 10, 52, 0
11, 156270, Note_on_c, 10, 51, 90
11, 156299, Note_on_c, 10, 51, 0
11, 156300, Note_on_c, 10, 49, 90
11, 156329, Note_on_c, 10, 49, 0
11, 156330, Note_on_c, 10, 51, 90
11, 156359, Note_on_c, 10, 51, 0
11, 156360, Note_on_c, 10, 52, 90
11, 156419, Note_on_c, 10, 52, 0
11, 156420, Note_on_c, 10, 51, 90
11, 156479, Note_on_c, 10, 51, 0
11, 156480, Note_on_c, 10, 49, 90
11, 156539, Note_on_c, 10, 49, 0
11, 156540, Note_on_c, 10, 48, 90
11, 156659, Note_on_c, 10, 48, 0
11, 156720, Note_on_c, 10, 49, 90
11, 156779, Note_on_c, 10, 49, 0
11, 156780, Note_on_c, 10, 42, 90
11, 156839, Note_on_c, 10, 42, 0
11, 156840, Note_on_c, 10, 44, 90
11, 156899, Note_on_c, 10, 44, 0
11, 156900, Note_on_c, 10, 49, 90
11, 157019, Note_on_c, 10, 49, 0
11, 157110, Note_on_c, 10, 61, 90
11, 157139, Note_on_c, 10, 61, 0
11, 157140, Note_on_c, 10, 59, 90
11, 157169, Note_on_c, 10, 59, 0
11, 157170, Note_on_c, 10, 57, 90
11, 157199, Note_on_c, 10, 57, 0
11, 157200, Note_on_c, 10, 56, 90
11, 157229, Note_on_c, 10, 56, 0
11, 157230, Note_on_c, 10, 54, 90
11, 157259, Note_on_c, 10, 54, 0
11, 157260, Note_on_c, 10, 52, 90
11, 157289, Note_on_c, 10, 52, 0
11, 157290, Note_on_c, 10, 54, 90
11, 157319, Note_on_c, 10, 54, 0
11, 157320, Note_on_c, 10, 52, 90
11, 157349, Note_on_c, 10, 52, 0
11, 157350, Note_on_c, 10, 50, 90
11, 157379, Note_on_c, 10, 50, 0
11, 157380, Note_on_c, 10, 49, 90
11, 157409, Note_on_c, 10, 49, 0
11, 157410, Note_on_c, 10, 47, 90
11, 157439, Note_on_c, 10, 47, 0
11, 157440, Note_on_c, 10, 49, 90
11, 157499, Note_on_c, 10, 49, 0
11, 157500, Note_on_c, 10, 50, 90
11, 157559, Note_on_c, 10, 50, 0
11, 157560, Note_on_c, 10, 52, 90
11, 157619, Note_on_c, 10, 52, 0
11, 157620, Note_on_c, 10, 45, 90
11, 157739, Note_on_c, 10, 45, 0
11, 157830, Note_on_c, 10, 61, 90
11, 157859, Note_on_c, 10, 61, 0
11, 157860, Note_on_c, 10, 59, 90
11, 157889, Note_on_c, 10, 59, 0
11, 157890, Note_on_c, 10, 57, 90
11, 157919, Note_on_c, 10, 57, 0
11, 157920, Note_on_c, 10, 56, 90
11, 157949, Note_on_c, 10, 56, 0
11, 157950, Note_on_c, 10, 54, 90
11, 157979, Note_on_c, 10, 54, 0
11, 157980, Note_on_c, 10, 53, 90
11, 158009, Note_on_c, 10, 53, 0
11, 158010, Note_on_c, 10, 54, 90
11, 158039, Note_on_c, 10, 54, 0
11, 158040, Note_on_c, 10, 53, 90
11, 158069, Note_on_c, 10, 53, 0
11, 158070, Note_on_c, 10, 51, 90
11, 158099, Note_on_c, 10, 51, 0
11, 158100, Note_on_c, 10, 49, 90
11, 158129, Note_on_c, 10, 49, 0
11, 158130, Note_on_c, 10, 47, 90
11, 158159, Note_on_c, 10, 47, 0
11, 158160, Note_on_c, 10, 45, 90
11, 158219, Note_on_c, 10, 45, 0
11, 158220, Note_on_c, 10, 47, 90
11, 158279, Note_on_c, 10, 47, 0
11, 158280, Note_on_c, 10, 49, 90
11, 158339, Note_on_c, 10, 49, 0
11, 158340, Note_on_c, 10, 42, 90
11, 158399, Note_on_c, 10, 42, 0
11, 158400, Note_on_c, 10, 54, 90
11, 158429, Note_on_c, 10, 54, 0
11, 158430, Note_on_c, 10, 52, 90
11, 158459, Note_on_c, 10, 52, 0
11, 158460, Note_on_c, 10, 50, 90
11, 158489, Note_on_c, 10, 50, 0
11, 158490, Note_on_c, 10, 49, 90
11, 158519, Note_on_c, 10, 49, 0
11, 158520, Note_on_c, 10, 47, 90
11, 158549, Note_on_c, 10, 47, 0
11, 158550, Note_on_c, 10, 49, 90
11, 158579, Note_on_c, 10, 49, 0
11, 158580, Note_on_c, 10, 47, 90
11, 158609, Note_on_c, 10, 47, 0
11, 158610, Note_on_c, 10, 45, 90
11, 158639, Note_on_c, 10, 45, 0
11, 158640, Note_on_c, 10, 44, 90
11, 158669, Note_on_c, 10, 44, 0
11, 158670, Note_on_c, 10, 42, 90
11, 158699, Note_on_c, 10, 42, 0
11, 158700, Note_on_c, 10, 41, 90
11, 158759, Note_on_c, 10, 41, 0
11, 158760, Note_on_c, 10, 41, 90
11, 158819, Note_on_c, 10, 41, 0
11, 158820, Note_on_c, 10, 41, 90
11, 158879, Note_on_c, 10, 41, 0
11, 158880, Note_on_c, 10, 42, 90
11, 158939, Note_on_c, 10, 42, 0
11, 158940, Note_on_c, 10, 40, 90
11, 158999, Note_on_c, 10, 40, 0
11, 159000, Note_on_c, 10, 38, 90
11, 159059, Note_on_c, 10, 38, 0
11, 159060, Note_on_c, 10, 37, 90
11, 159119, Note_on_c, 10, 37, 0
11, 159120, Note_on_c, 10, 49, 90
11, 159179, Note_on_c, 10, 49, 0
11, 159180, Note_on_c, 10, 47, 90
11, 159239, Note_on_c, 10, 47, 0
11, 159240, Note_on_c, 10, 45, 90
11, 159359, Note_on_c, 10, 45, 0
11, 159360, Note_on_c, 10, 44, 90
11, 159419, Note_on_c, 10, 44, 0
11, 159420, Note_on_c, 10, 42, 90
11, 159449, Note_on_c, 10, 42, 0
11, 159450, Note_on_c, 10, 44, 90
11, 159479, Note_on_c, 10, 44, 0
11, 159480, Note_on_c, 10, 45, 90
11, 159509, Note_on_c, 10, 45, 0
11, 159510, Note_on_c, 10, 47, 90
11, 159539, Note_on_c, 10, 47, 0
11, 159540, Note_on_c, 10, 49, 90
11, 159599, Note_on_c, 10, 49, 0
11, 159600, Note_on_c, 10, 47, 90
11, 159719, Note_on_c, 10, 47, 0
11, 159720, Note_on_c, 10, 45, 90
11, 159779, Note_on_c, 10, 45, 0
11, 159780, Note_on_c, 10, 44, 90
11, 159839, Note_on_c, 10, 44, 0
11, 159840, Note_on_c, 10, 49, 90
11, 159899, Note_on_c, 10, 49, 0
11, 159900, Note_on_c, 10, 42, 90
11, 159959, Note_on_c, 10, 42, 0
11, 159960, Note_on_c, 10, 47, 90
11, 160019, Note_on_c, 10, 47, 0
11, 160020, Note_on_c, 10, 47, 90
11, 160079, Note_on_c, 10, 47, 0
11, 160080, Note_on_c, 10, 47, 90
11, 160139, Note_on_c, 10, 47, 0
11, 160140, Note_on_c, 10, 47, 90
11, 160199, Note_on_c, 10, 47, 0
11, 160200, Note_on_c, 10, 47, 90
11, 160259, Note_on_c, 10, 47, 0
11, 160260, Note_on_c, 10, 45, 90
11, 160319, Note_on_c, 10, 45, 0
11, 160320, Note_on_c, 10, 50, 90
11, 160379, Note_on_c, 10, 50, 0
11, 160380, Note_on_c, 10, 47, 90
11, 160439, Note_on_c, 10, 47, 0
11, 160440, Note_on_c, 10, 49, 90
11, 160499, Note_on_c, 10, 49, 0
11, 160500, Note_on_c, 10, 42, 90
11, 160679, Note_on_c, 10, 42, 0
11, 160680, Note_on_c, 10, 45, 90
11, 160739, Note_on_c, 10, 45, 0
11, 160740, Note_on_c, 10, 49, 90
11, 160799, Note_on_c, 10, 49, 0
11, 160800, Note_on_c, 10, 52, 90
11, 160859, Note_on_c, 10, 52, 0
11, 160860, Note_on_c, 10, 57, 90
11, 160919, Note_on_c, 10, 57, 0
11, 160920, Note_on_c, 10, 61, 90
11, 160979, Note_on_c, 10, 61, 0
11, 160980, Note_on_c, 10, 64, 90
11, 161039, Note_on_c, 10, 64, 0
11, 161040, Note_on_c, 10, 62, 90
11, 161159, Note_on_c, 10, 62, 0
11, 161160, Note_on_c, 10, 61, 90
11, 161219, Note_on_c, 10, 61, 0
11, 161220, Note_on_c, 10, 59, 90
11, 161279, Note_on_c, 10, 59, 0
11, 161280, Note_on_c, 10, 52, 90
11, 161339, Note_on_c, 10, 52, 0
11, 161340, Note_on_c, 10, 57, 90
11, 161399, Note_on_c, 10, 57, 0
11, 161400, Note_on_c, 10, 45, 90
11, 161459, Note_on_c, 10, 45, 0
11, 161460, Note_on_c, 10, 49, 90
11, 161519, Note_on_c, 10, 49, 0
11, 161520, Note_on_c, 10, 52, 90
11, 161579, Note_on_c, 10, 52, 0
11, 161580, Note_on_c, 10, 57, 90
11, 161639, Note_on_c, 10, 57, 0
11, 161640, Note_on_c, 10, 54, 90
11, 161699, Note_on_c, 10, 54, 0
11, 161700, Note_on_c, 10, 50, 90
11, 161759, Note_on_c, 10, 50, 0
11, 161760, Note_on_c, 10, 47, 90
11, 161819, Note_on_c, 10, 47, 0
11, 161820, Note_on_c, 10, 44, 90
11, 161879, Note_on_c, 10, 44, 0
11, 161880, Note_on_c, 10, 45, 90
11, 161939, Note_on_c, 10, 45, 0
11, 161940, Note_on_c, 10, 40, 90
11, 161999, Note_on_c, 10, 40, 0
11, 162000, Note_on_c, 10, 42, 90
11, 162029, Note_on_c, 10, 42, 0
11, 162030, Note_on_c, 10, 44, 90
11, 162059, Note_on_c, 10, 44, 0
11, 162060, Note_on_c, 10, 45, 90
11, 162089, Note_on_c, 10, 45, 0
11, 162090, Note_on_c, 10, 47, 90
11, 162119, Note_on_c, 10, 47, 0
11, 162120, Note_on_c, 10, 49, 90
11, 162239, Note_on_c, 10, 49, 0
11, 162240, Note_on_c, 10, 47, 90
11, 162299, Note_on_c, 10, 47, 0
11, 162300, Note_on_c, 10, 45, 90
11, 162359, Note_on_c, 10, 45, 0
11, 162360, Note_on_c, 10, 49, 90
11, 162419, Note_on_c, 10, 49, 0
11, 162420, Note_on_c, 10, 52, 90
11, 162479, Note_on_c, 10, 52, 0
11, 162480, Note_on_c, 10, 56, 90
11, 162599, Note_on_c, 10, 56, 0
11, 162600, Note_on_c, 10, 57, 90
11, 162719, Note_on_c, 10, 57, 0
11, 162720, Note_on_c, 10, 56, 90
11, 162779, Note_on_c, 10, 56, 0
11, 162780, Note_on_c, 10, 57, 90
11, 162839, Note_on_c, 10, 57, 0
11, 162840, Note_on_c, 10, 45, 90
11, 162899, Note_on_c, 10, 45, 0
11, 162900, Note_on_c, 10, 49, 90
11, 162959, Note_on_c, 10, 49, 0
11, 162960, Note_on_c, 10, 52, 90
11, 163019, Note_on_c, 10, 52, 0
11, 163020, Note_on_c, 10, 57, 90
11, 163079, Note_on_c, 10, 57, 0
11, 163080, Note_on_c, 10, 59, 90
11, 163139, Note_on_c, 10, 59, 0
11, 163140, Note_on_c, 10, 61, 90
11, 163199, Note_on_c, 10, 61, 0
11, 163200, Note_on_c, 10, 62, 90
11, 163259, Note_on_c, 10, 62, 0
11, 163260, Note_on_c, 10, 56, 90
11, 163319, Note_on_c, 10, 56, 0
11, 163320, Note_on_c, 10, 57, 90
11, 163379, Note_on_c, 10, 57, 0
11, 163380, Note_on_c, 10, 64, 90
11, 163439, Note_on_c, 10, 64, 0
11, 163440, Note_on_c, 10, 52, 90
11, 163499, Note_on_c, 10, 52, 0
11, 163500, Note_on_c, 10, 50, 90
11, 163559, Note_on_c, 10, 50, 0
11, 163560, Note_on_c, 10, 49, 90
11, 163619, Note_on_c, 10, 49, 0
11, 163620, Note_on_c, 10, 47, 90
11, 163679, Note_on_c, 10, 47, 0
11, 163680, Note_on_c, 10, 45, 90
11, 163739, Note_on_c, 10, 45, 0
11, 163740, Note_on_c, 10, 54, 90
11, 163799, Note_on_c, 10, 54, 0
11, 163800, Note_on_c, 10, 50, 90
11, 163859, Note_on_c, 10, 50, 0
11, 163860, Note_on_c, 10, 49, 90
11, 163919, Note_on_c, 10, 49, 0
11, 163920, Note_on_c, 10, 47, 90
11, 163979, Note_on_c, 10, 47, 0
11, 163980, Note_on_c, 10, 49, 90
11, 164039, Note_on_c, 10, 49, 0
11, 164040, Note_on_c, 10, 50, 90
11, 164099, Note_on_c, 10, 50, 0
11, 164100, Note_on_c, 10, 52, 90
11, 164159, Note_on_c, 10, 52, 0
11, 164160, Note_on_c, 10, 54, 90
11, 164219, Note_on_c, 10, 54, 0
11, 164220, Note_on_c, 10, 56, 90
11, 164279, Note_on_c, 10, 56, 0
11, 164280, Note_on_c, 10, 45, 90
11, 164339, Note_on_c, 10, 45, 0
11, 164340, Note_on_c, 10, 47, 90
11, 164399, Note_on_c, 10, 47, 0
11, 164400, Note_on_c, 10, 49, 90
11, 164459, Note_on_c, 10, 49, 0
11, 164460, Note_on_c, 10, 50, 90
11, 164519, Note_on_c, 10, 50, 0
11, 164520, Note_on_c, 10, 49, 90
11, 164579, Note_on_c, 10, 49, 0
11, 164580, Note_on_c, 10, 47, 90
11, 164639, Note_on_c, 10, 47, 0
11, 164640, Note_on_c, 10, 45, 90
11, 164699, Note_on_c, 10, 45, 0
11, 164700, Note_on_c, 10, 38, 90
11, 164759, Note_on_c, 10, 38, 0
11, 164760, Note_on_c, 10, 40, 90
11, 164819, Note_on_c, 10, 40, 0
11, 164820, Note_on_c, 10, 45, 90
11, 164879, Note_on_c, 10, 45, 0
11, 164880, Note_on_c, 10, 45, 90
11, 164909, Note_on_c, 10, 45, 0
11, 164910, Note_on_c, 10, 44, 90
11, 164939, Note_on_c, 10, 44, 0
11, 164940, Note_on_c, 10, 45, 90
11, 164969, Note_on_c, 10, 45, 0
11, 164970, Note_on_c, 10, 47, 90
11, 164999, Note_on_c, 10, 47, 0
11, 165000, Note_on_c, 10, 49, 90
11, 165059, Note_on_c, 10, 49, 0
11, 165060, Note_on_c, 10, 54, 90
11, 165119, Note_on_c, 10, 54, 0
11, 165120, Note_on_c, 10, 52, 90
11, 165179, Note_on_c, 10, 52, 0
11, 165180, Note_on_c, 10, 54, 90
11, 165239, Note_on_c, 10, 54, 0
11, 165240, Note_on_c, 10, 50, 90
11, 165299, Note_on_c, 10, 50, 0
11, 165300, Note_on_c, 10, 49, 90
11, 165359, Note_on_c, 10, 49, 0
11, 165360, Note_on_c, 10, 47, 90
11, 165419, Note_on_c, 10, 47, 0
11, 165420, Note_on_c, 10, 52, 90
11, 165479, Note_on_c, 10, 52, 0
11, 165480, Note_on_c, 10, 50, 90
11, 165539, Note_on_c, 10, 50, 0
11, 165540, Note_on_c, 10, 52, 90
11, 165599, Note_on_c, 10, 52, 0
11, 165600, Note_on_c, 10, 49, 90
11, 165659, Note_on_c, 10, 49, 0
11, 165660, Note_on_c, 10, 47, 90
11, 165719, Note_on_c, 10, 47, 0
11, 165720, Note_on_c, 10, 45, 90
11, 165779, Note_on_c, 10, 45, 0
11, 165780, Note_on_c, 10, 50, 90
11, 165839, Note_on_c, 10, 50, 0
11, 165840, Note_on_c, 10, 49, 90
11, 165899, Note_on_c, 10, 49, 0
11, 165900, Note_on_c, 10, 50, 90
11, 165959, Note_on_c, 10, 50, 0
11, 165960, Note_on_c, 10, 40, 90
11, 166019, Note_on_c, 10, 40, 0
11, 166020, Note_on_c, 10, 44, 90
11, 166079, Note_on_c, 10, 44, 0
11, 166080, Note_on_c, 10, 45, 90
11, 166139, Note_on_c, 10, 45, 0
11, 166140, Note_on_c, 10, 38, 90
11, 166199, Note_on_c, 10, 38, 0
11, 166200, Note_on_c, 10, 40, 90
11, 166259, Note_on_c, 10, 40, 0
11, 166260, Note_on_c, 10, 45, 90
11, 166379, Note_on_c, 10, 45, 0
11, 166440, Note_on_c, 10, 45, 90
11, 166469, Note_on_c, 10, 45, 0
11, 166470, Note_on_c, 10, 49, 90
11, 166499, Note_on_c, 10, 49, 0
11, 166500, Note_on_c, 10, 49, 90
11, 166529, Note_on_c, 10, 49, 0
11, 166530, Note_on_c, 10, 52, 90
11, 166559, Note_on_c, 10, 52, 0
11, 166560, Note_on_c, 10, 52, 90
11, 166589, Note_on_c, 10, 52, 0
11, 166590, Note_on_c, 10, 57, 90
11, 166619, Note_on_c, 10, 57, 0
11, 166620, Note_on_c, 10, 57, 90
11, 166679, Note_on_c, 10, 57, 0
11, 166680, Note_on_c, 10, 52, 90
11, 166739, Note_on_c, 10, 52, 0
11, 166830, Note_on_c, 10, 56, 90
11, 166859, Note_on_c, 10, 56, 0
11, 166860, Note_on_c, 10, 56, 90
11, 166889, Note_on_c, 10, 56, 0
11, 166890, Note_on_c, 10, 54, 90
11, 166919, Note_on_c, 10, 54, 0
11, 166920, Note_on_c, 10, 54, 90
11, 166949, Note_on_c, 10, 54, 0
11, 166950, Note_on_c, 10, 52, 90
11, 166979, Note_on_c, 10, 52, 0
11, 166980, Note_on_c, 10, 52, 90
11, 167039, Note_on_c, 10, 52, 0
11, 167040, Note_on_c, 10, 45, 90
11, 167099, Note_on_c, 10, 45, 0
11, 167190, Note_on_c, 10, 40, 90
11, 167219, Note_on_c, 10, 40, 0
11, 167220, Note_on_c, 10, 40, 90
11, 167249, Note_on_c, 10, 40, 0
11, 167250, Note_on_c, 10, 45, 90
11, 167279, Note_on_c, 10, 45, 0
11, 167280, Note_on_c, 10, 45, 90
11, 167309, Note_on_c, 10, 45, 0
11, 167310, Note_on_c, 10, 49, 90
11, 167339, Note_on_c, 10, 49, 0
11, 167340, Note_on_c, 10, 49, 90
11, 167399, Note_on_c, 10, 49, 0
11, 167400, Note_on_c, 10, 44, 90
11, 167459, Note_on_c, 10, 44, 0
11, 167550, Note_on_c, 10, 47, 90
11, 167579, Note_on_c, 10, 47, 0
11, 167580, Note_on_c, 10, 47, 90
11, 167609, Note_on_c, 10, 47, 0
11, 167610, Note_on_c, 10, 45, 90
11, 167639, Note_on_c, 10, 45, 0
11, 167640, Note_on_c, 10, 45, 90
11, 167669, Note_on_c, 10, 45, 0
11, 167670, Note_on_c, 10, 52, 90
11, 167699, Note_on_c, 10, 52, 0
11, 167700, Note_on_c, 10, 52, 90
11, 167759, Note_on_c, 10, 52, 0
11, 167760, Note_on_c, 10, 40, 90
11, 167819, Note_on_c, 10, 40, 0
11, 167880, Note_on_c, 10, 45, 90
11, 167909, Note_on_c, 10, 45, 0
11, 167910, Note_on_c, 10, 47, 90
11, 167939, Note_on_c, 10, 47, 0
11, 167940, Note_on_c, 10, 49, 90
11, 167969, Note_on_c, 10, 49, 0
11, 167970, Note_on_c, 10, 47, 90
11, 167999, Note_on_c, 10, 47, 0
11, 168000, Note_on_c, 10, 45, 90
11, 168029, Note_on_c, 10, 45, 0
11, 168030, Note_on_c, 10, 44, 90
11, 168059, Note_on_c, 10, 44, 0
11, 168060, Note_on_c, 10, 45, 90
11, 168089, Note_on_c, 10, 45, 0
11, 168090, Note_on_c, 10, 47, 90
11, 168119, Note_on_c, 10, 47, 0
11, 168120, Note_on_c, 10, 45, 90
11, 168149, Note_on_c, 10, 45, 0
11, 168150, Note_on_c, 10, 44, 90
11, 168179, Note_on_c, 10, 44, 0
11, 168180, Note_on_c, 10, 45, 90
11, 168209, Note_on_c, 10, 45, 0
11, 168210, Note_on_c, 10, 42, 90
11, 168239, Note_on_c, 10, 42, 0
11, 168240, Note_on_c, 10, 44, 90
11, 168269, Note_on_c, 10, 44, 0
11, 168270, Note_on_c, 10, 45, 90
11, 168299, Note_on_c, 10, 45, 0
11, 168300, Note_on_c, 10, 47, 90
11, 168329, Note_on_c, 10, 47, 0
11, 168330, Note_on_c, 10, 45, 90
11, 168359, Note_on_c, 10, 45, 0
11, 168360, Note_on_c, 10, 44, 90
11, 168389, Note_on_c, 10, 44, 0
11, 168390, Note_on_c, 10, 42, 90
11, 168419, Note_on_c, 10, 42, 0
11, 168420, Note_on_c, 10, 44, 90
11, 168449, Note_on_c, 10, 44, 0
11, 168450, Note_on_c, 10, 45, 90
11, 168479, Note_on_c, 10, 45, 0
11, 168480, Note_on_c, 10, 47, 90
11, 168509, Note_on_c, 10, 47, 0
11, 168510, Note_on_c, 10, 44, 90
11, 168539, Note_on_c, 10, 44, 0
11, 168540, Note_on_c, 10, 45, 90
11, 168569, Note_on_c, 10, 45, 0
11, 168570, Note_on_c, 10, 47, 90
11, 168599, Note_on_c, 10, 47, 0
11, 168600, Note_on_c, 10, 49, 90
11, 168629, Note_on_c, 10, 49, 0
11, 168630, Note_on_c, 10, 50, 90
11, 168659, Note_on_c, 10, 50, 0
11, 168660, Note_on_c, 10, 49, 90
11, 168689, Note_on_c, 10, 49, 0
11, 168690, Note_on_c, 10, 47, 90
11, 168719, Note_on_c, 10, 47, 0
11, 168720, Note_on_c, 10, 45, 90
11, 168749, Note_on_c, 10, 45, 0
11, 168750, Note_on_c, 10, 44, 90
11, 168779, Note_on_c, 10, 44, 0
11, 168780, Note_on_c, 10, 45, 90
11, 168809, Note_on_c, 10, 45, 0
11, 168810, Note_on_c, 10, 40, 90
11, 168839, Note_on_c, 10, 40, 0
11, 168840, Note_on_c, 10, 42, 90
11, 168869, Note_on_c, 10, 42, 0
11, 168870, Note_on_c, 10, 44, 90
11, 168899, Note_on_c, 10, 44, 0
11, 168900, Note_on_c, 10, 45, 90
11, 168929, Note_on_c, 10, 45, 0
11, 168930, Note_on_c, 10, 47, 90
11, 168959, Note_on_c, 10, 47, 0
11, 168960, Note_on_c, 10, 49, 90
11, 169019, Note_on_c, 10, 49, 0
11, 169020, Note_on_c, 10, 44, 90
11, 169079, Note_on_c, 10, 44, 0
11, 169080, Note_on_c, 10, 45, 90
11, 169139, Note_on_c, 10, 45, 0
11, 169140, Note_on_c, 10, 52, 90
11, 169169, Note_on_c, 10, 52, 0
11, 169170, Note_on_c, 10, 50, 90
11, 169199, Note_on_c, 10, 50, 0
11, 169200, Note_on_c, 10, 52, 90
11, 169229, Note_on_c, 10, 52, 0
11, 169230, Note_on_c, 10, 54, 90
11, 169259, Note_on_c, 10, 54, 0
11, 169260, Note_on_c, 10, 52, 90
11, 169289, Note_on_c, 10, 52, 0
11, 169290, Note_on_c, 10, 50, 90
11, 169319, Note_on_c, 10, 50, 0
11, 169320, Note_on_c, 10, 49, 90
11, 169349, Note_on_c, 10, 49, 0
11, 169350, Note_on_c, 10, 47, 90
11, 169379, Note_on_c, 10, 47, 0
11, 169380, Note_on_c, 10, 47, 90
11, 169409, Note_on_c, 10, 47, 0
11, 169410, Note_on_c, 10, 45, 90
11, 169439, Note_on_c, 10, 45, 0
11, 169440, Note_on_c, 10, 45, 90
11, 169469, Note_on_c, 10, 45, 0
11, 169470, Note_on_c, 10, 50, 90
11, 169499, Note_on_c, 10, 50, 0
11, 169500, Note_on_c, 10, 50, 90
11, 169559, Note_on_c, 10, 50, 0
11, 169560, Note_on_c, 10, 38, 90
11, 169619, Note_on_c, 10, 38, 0
11, 169710, Note_on_c, 10, 52, 90
11, 169739, Note_on_c, 10, 52, 0
11, 169740, Note_on_c, 10, 52, 90
11, 169769, Note_on_c, 10, 52, 0
11, 169770, Note_on_c, 10, 50, 90
11, 169799, Note_on_c, 10, 50, 0
11, 169800, Note_on_c, 10, 50, 90
11, 169829, Note_on_c, 10, 50, 0
11, 169830, Note_on_c, 10, 52, 90
11, 169859, Note_on_c, 10, 52, 0
11, 169860, Note_on_c, 10, 52, 90
11, 169919, Note_on_c, 10, 52, 0
11, 169920, Note_on_c, 10, 45, 90
11, 169979, Note_on_c, 10, 45, 0
11, 170070, Note_on_c, 10, 61, 90
11, 170099, Note_on_c, 10, 61, 0
11, 170100, Note_on_c, 10, 61, 90
11, 170129, Note_on_c, 10, 61, 0
11, 170130, Note_on_c, 10, 57, 90
11, 170159, Note_on_c, 10, 57, 0
11, 170160, Note_on_c, 10, 57, 90
11, 170189, Note_on_c, 10, 57, 0
11, 170190, Note_on_c, 10, 54, 90
11, 170219, Note_on_c, 10, 54, 0
11, 170220, Note_on_c, 10, 54, 90
11, 170279, Note_on_c, 10, 54, 0
11, 170280, Note_on_c, 10, 50, 90
11, 170339, Note_on_c, 10, 50, 0
11, 170430, Note_on_c, 10, 52, 90
11, 170459, Note_on_c, 10, 52, 0
11, 170460, Note_on_c, 10, 52, 90
11, 170489, Note_on_c, 10, 52, 0
11, 170490, Note_on_c, 10, 50, 90
11, 170519, Note_on_c, 10, 50, 0
11, 170520, Note_on_c, 10, 50, 90
11, 170549, Note_on_c, 10, 50, 0
11, 170550, Note_on_c, 10, 52, 90
11, 170579, Note_on_c, 10, 52, 0
11, 170580, Note_on_c, 10, 45, 90
11, 170639, Note_on_c, 10, 45, 0
11, 170640, Note_on_c, 10, 57, 90
11, 170699, Note_on_c, 10, 57, 0
11, 170760, Note_on_c, 10, 45, 90
11, 170789, Note_on_c, 10, 45, 0
11, 170790, Note_on_c, 10, 43, 90
11, 170819, Note_on_c, 10, 43, 0
11, 170820, Note_on_c, 10, 42, 90
11, 170849, Note_on_c, 10, 42, 0
11, 170850, Note_on_c, 10, 40, 90
11, 170879, Note_on_c, 10, 40, 0
11, 170880, Note_on_c, 10, 42, 90
11, 170909, Note_on_c, 10, 42, 0
11, 170910, Note_on_c, 10, 40, 90
11, 170939, Note_on_c, 10, 40, 0
11, 170940, Note_on_c, 10, 38, 90
11, 170969, Note_on_c, 10, 38, 0
11, 170970, Note_on_c, 10, 40, 90
11, 170999, Note_on_c, 10, 40, 0
11, 171000, Note_on_c, 10, 42, 90
11, 171029, Note_on_c, 10, 42, 0
11, 171030, Note_on_c, 10, 44, 90
11, 171059, Note_on_c, 10, 44, 0
11, 171060, Note_on_c, 10, 45, 90
11, 171089, Note_on_c, 10, 45, 0
11, 171090, Note_on_c, 10, 47, 90
11, 171119, Note_on_c, 10, 47, 0
11, 171120, Note_on_c, 10, 49, 90
11, 171149, Note_on_c, 10, 49, 0
11, 171150, Note_on_c, 10, 50, 90
11, 171179, Note_on_c, 10, 50, 0
11, 171180, Note_on_c, 10, 52, 90
11, 171209, Note_on_c, 10, 52, 0
11, 171210, Note_on_c, 10, 50, 90
11, 171239, Note_on_c, 10, 50, 0
11, 171240, Note_on_c, 10, 52, 90
11, 171269, Note_on_c, 10, 52, 0
11, 171270, Note_on_c, 10, 50, 90
11, 171299, Note_on_c, 10, 50, 0
11, 171300, Note_on_c, 10, 49, 90
11, 171329, Note_on_c, 10, 49, 0
11, 171330, Note_on_c, 10, 47, 90
11, 171359, Note_on_c, 10, 47, 0
11, 171360, Note_on_c, 10, 45, 90
11, 171389, Note_on_c, 10, 45, 0
11, 171390, Note_on_c, 10, 44, 90
11, 171419, Note_on_c, 10, 44, 0
11, 171420, Note_on_c, 10, 45, 90
11, 171449, Note_on_c, 10, 45, 0
11, 171450, Note_on_c, 10, 47, 90
11, 171479, Note_on_c, 10, 47, 0
11, 171480, Note_on_c, 10, 49, 90
11, 171509, Note_on_c, 10, 49, 0
11, 171510, Note_on_c, 10, 54, 90
11, 171539, Note_on_c, 10, 54, 0
11, 171540, Note_on_c, 10, 52, 90
11, 171569, Note_on_c, 10, 52, 0
11, 171570, Note_on_c, 10, 50, 90
11, 171599, Note_on_c, 10, 50, 0
11, 171600, Note_on_c, 10, 49, 90
11, 171629, Note_on_c, 10, 49, 0
11, 171630, Note_on_c, 10, 47, 90
11, 171659, Note_on_c, 10, 47, 0
11, 171660, Note_on_c, 10, 45, 90
11, 171689, Note_on_c, 10, 45, 0
11, 171690, Note_on_c, 10, 44, 90
11, 171719, Note_on_c, 10, 44, 0
11, 171720, Note_on_c, 10, 45, 90
11, 171749, Note_on_c, 10, 45, 0
11, 171750, Note_on_c, 10, 47, 90
11, 171779, Note_on_c, 10, 47, 0
11, 171780, Note_on_c, 10, 49, 90
11, 171809, Note_on_c, 10, 49, 0
11, 171810, Note_on_c, 10, 50, 90
11, 171839, Note_on_c, 10, 50, 0
11, 171840, Note_on_c, 10, 52, 90
11, 171899, Note_on_c, 10, 52, 0
11, 171900, Note_on_c, 10, 50, 90
11, 171959, Note_on_c, 10, 50, 0
11, 171960, Note_on_c, 10, 52, 90
11, 172019, Note_on_c, 10, 52, 0
11, 172020, Note_on_c, 10, 57, 90
11, 172079, Note_on_c, 10, 57, 0
11, 172080, Note_on_c, 10, 52, 90
11, 172139, Note_on_c, 10, 52, 0
11, 172140, Note_on_c, 10, 49, 90
11, 172199, Note_on_c, 10, 49, 0
11, 172200, Note_on_c, 10, 45, 90
11, 172259, Note_on_c, 10, 45, 0
11, 172320, Note_on_c, 10, 44, 90
11, 172379, Note_on_c, 10, 44, 0
11, 172380, Note_on_c, 10, 45, 90
11, 172439, Note_on_c, 10, 45, 0
11, 172500, Note_on_c, 10, 52, 90
11, 172559, Note_on_c, 10, 52, 0
11, 172560, Note_on_c, 10, 50, 90
11, 172619, Note_on_c, 10, 50, 0
11, 172680, Note_on_c, 10, 49, 90
11, 172739, Note_on_c, 10, 49, 0
11, 172740, Note_on_c, 10, 47, 90
11, 172799, Note_on_c, 10, 47, 0
11, 172860, Note_on_c, 10, 45, 90
11, 172919, Note_on_c, 10, 45, 0
11, 172920, Note_on_c, 10, 57, 90
11, 172979, Note_on_c, 10, 57, 0
11, 173040, Note_on_c, 10, 56, 90
11, 173099, Note_on_c, 10, 56, 0
11, 173100, Note_on_c, 10, 54, 90
11, 173159, Note_on_c, 10, 54, 0
11, 173220, Note_on_c, 10, 50, 90
11, 173279, Note_on_c, 10, 50, 0
11, 173280, Note_on_c, 10, 52, 90
11, 173339, Note_on_c, 10, 52, 0
11, 173400, Note_on_c, 10, 45, 90
11, 173459, Note_on_c, 10, 45, 0
11, 173460, Note_on_c, 10, 52, 90
11, 173549, Note_on_c, 10, 52, 0
11, 173550, Note_on_c, 10, 50, 90
11, 173579, Note_on_c, 10, 50, 0
11, 173580, Note_on_c, 10, 49, 90
11, 173609, Note_on_c, 10, 49, 0
11, 173610, Note_on_c, 10, 47, 90
11, 173639, Note_on_c, 10, 47, 0
11, 173640, Note_on_c, 10, 45, 90
11, 173699, Note_on_c, 10, 45, 0
11, 173820, Note_on_c, 10, 45, 90
11, 173849, Note_on_c, 10, 45, 0
11, 173850, Note_on_c, 10, 47, 90
11, 173879, Note_on_c, 10, 47, 0
11, 173880, Note_on_c, 10, 49, 90
11, 173909, Note_on_c, 10, 49, 0
11, 173910, Note_on_c, 10, 50, 90
11, 173939, Note_on_c, 10, 50, 0
11, 173940, Note_on_c, 10, 52, 90
11, 173999, Note_on_c, 10, 52, 0
11, 174180, Note_on_c, 10, 52, 90
11, 174209, Note_on_c, 10, 52, 0
11, 174210, Note_on_c, 10, 50, 90
11, 174239, Note_on_c, 10, 50, 0
11, 174240, Note_on_c, 10, 49, 90
11, 174269, Note_on_c, 10, 49, 0
11, 174270, Note_on_c, 10, 47, 90
11, 174299, Note_on_c, 10, 47, 0
11, 174300, Note_on_c, 10, 45, 90
11, 174359, Note_on_c, 10, 45, 0
11, 174540, Note_on_c, 10, 57, 90
11, 174569, Note_on_c, 10, 57, 0
11, 174570, Note_on_c, 10, 56, 90
11, 174599, Note_on_c, 10, 56, 0
11, 174600, Note_on_c, 10, 54, 90
11, 174629, Note_on_c, 10, 54, 0
11, 174630, Note_on_c, 10, 52, 90
11, 174659, Note_on_c, 10, 52, 0
11, 174660, Note_on_c, 10, 50, 90
11, 174719, Note_on_c, 10, 50, 0
11, 174780, Note_on_c, 10, 40, 90
11, 174839, Note_on_c, 10, 40, 0
11, 174840, Note_on_c, 10, 45, 90
11, 174899, Note_on_c, 10, 45, 0
11, 174900, Note_on_c, 10, 52, 90
11, 174959, Note_on_c, 10, 52, 0
11, 174960, Note_on_c, 10, 50, 90
11, 174989, Note_on_c, 10, 50, 0
11, 174990, Note_on_c, 10, 49, 90
11, 175019, Note_on_c, 10, 49, 0
11, 175020, Note_on_c, 10, 47, 90
11, 175049, Note_on_c, 10, 47, 0
11, 175050, Note_on_c, 10, 45, 90
11, 175079, Note_on_c, 10, 45, 0
11, 175080, Note_on_c, 10, 44, 90
11, 175139, Note_on_c, 10, 44, 0
11, 175200, Note_on_c, 10, 46, 90
11, 175259, Note_on_c, 10, 46, 0
11, 175260, Note_on_c, 10, 47, 90
11, 175319, Note_on_c, 10, 47, 0
11, 175380, Note_on_c, 10, 42, 90
11, 175439, Note_on_c, 10, 42, 0
11, 175440, Note_on_c, 10, 47, 90
11, 175499, Note_on_c, 10, 47, 0
11, 175560, Note_on_c, 10, 44, 90
11, 175619, Note_on_c, 10, 44, 0
11, 175620, Note_on_c, 10, 45, 90
11, 175679, Note_on_c, 10, 45, 0
11, 175740, Note_on_c, 10, 40, 90
11, 175799, Note_on_c, 10, 40, 0
11, 175800, Note_on_c, 10, 45, 90
11, 175859, Note_on_c, 10, 45, 0
11, 175920, Note_on_c, 10, 49, 90
11, 175979, Note_on_c, 10, 49, 0
11, 175980, Note_on_c, 10, 52, 90
11, 176039, Note_on_c, 10, 52, 0
11, 176100, Note_on_c, 10, 54, 90
11, 176159, Note_on_c, 10, 54, 0
11, 176160, Note_on_c, 10, 50, 90
11, 176219, Note_on_c, 10, 50, 0
11, 176280, Note_on_c, 10, 52, 90
11, 176339, Note_on_c, 10, 52, 0
11, 176340, Note_on_c, 10, 45, 90
11, 176429, Note_on_c, 10, 45, 0
11, 176430, Note_on_c, 10, 47, 90
11, 176459, Note_on_c, 10, 47, 0
11, 176460, Note_on_c, 10, 45, 90
11, 176489, Note_on_c, 10, 45, 0
11, 176490, Note_on_c, 10, 43, 90
11, 176519, Note_on_c, 10, 43, 0
11, 176520, Note_on_c, 10, 42, 90
11, 176579, Note_on_c, 10, 42, 0
11, 176760, Note_on_c, 10, 54, 90
11, 176789, Note_on_c, 10, 54, 0
11, 176790, Note_on_c, 10, 52, 90
11, 176819, Note_on_c, 10, 52, 0
11, 176820, Note_on_c, 10, 50, 90
11, 176849, Note_on_c, 10, 50, 0
11, 176850, Note_on_c, 10, 49, 90
11, 176879, Note_on_c, 10, 49, 0
11, 176880, Note_on_c, 10, 47, 90
11, 176939, Note_on_c, 10, 47, 0
11, 177120, Note_on_c, 10, 52, 90
11, 177149, Note_on_c, 10, 52, 0
11, 177150, Note_on_c, 10, 50, 90
11, 177179, Note_on_c, 10, 50, 0
11, 177180, Note_on_c, 10, 49, 90
11, 177209, Note_on_c, 10, 49, 0
11, 177210, Note_on_c, 10, 47, 90
11, 177239, Note_on_c, 10, 47, 0
11, 177240, Note_on_c, 10, 45, 90
11, 177299, Note_on_c, 10, 45, 0
11, 177450, Note_on_c, 10, 50, 90
11, 177479, Note_on_c, 10, 50, 0
11, 177480, Note_on_c, 10, 49, 90
11, 177509, Note_on_c, 10, 49, 0
11, 177510, Note_on_c, 10, 47, 90
11, 177539, Note_on_c, 10, 47, 0
11, 177540, Note_on_c, 10, 45, 90
11, 177569, Note_on_c, 10, 45, 0
11, 177570, Note_on_c, 10, 44, 90
11, 177599, Note_on_c, 10, 44, 0
11, 177600, Note_on_c, 10, 42, 90
11, 177658, Note_on_c, 10, 42, 0
11, 177660, Note_on_c, 10, 38, 90
11, 177718, Note_on_c, 10, 38, 0
11, 177720, Note_on_c, 10, 40, 90
11, 177778, Note_on_c, 10, 40, 0
11, 177780, Note_on_c, 10, 45, 90
11, 177900, Note_on_c, 10, 45, 0
11, 177960, Note_on_c, 10, 42, 90
11, 178440, Note_on_c, 10, 42, 0
11, 178440, Note_on_c, 10, 51, 90
11, 178920, Note_on_c, 10, 51, 0
11, 178920, Note_on_c, 10, 52, 90
11, 179400, Note_on_c, 10, 52, 0
11, 179400, Note_on_c, 10, 43, 90
11, 179640, Note_on_c, 10, 43, 0
11, 179640, Note_on_c, 10, 42, 90
11, 179880, Note_on_c, 10, 42, 0
11, 179880, Note_on_c, 10, 51, 90
11, 180120, Note_on_c, 10, 51, 0
11, 180120, Note_on_c, 10, 43, 90
11, 180240, Note_on_c, 10, 43, 0
11, 180240, Note_on_c, 10, 48, 90
11, 180360, Note_on_c, 10, 48, 0
11, 180480, Note_on_c, 10, 47, 90
11, 180600, Note_on_c, 10, 47, 0
11, 180600, Note_on_c, 10, 52, 90
11, 180840, Note_on_c, 10, 52, 0
11, 181140, Note_on_c, 10, 43, 90
11, 181199, Note_on_c, 10, 43, 0
11, 181200, Note_on_c, 10, 47, 90
11, 181259, Note_on_c, 10, 47, 0
11, 181260, Note_on_c, 10, 45, 90
11, 181319, Note_on_c, 10, 45, 0
11, 181320, Note_on_c, 10, 43, 90
11, 181379, Note_on_c, 10, 43, 0
11, 181380, Note_on_c, 10, 50, 90
11, 181439, Note_on_c, 10, 50, 0
11, 181440, Note_on_c, 10, 52, 90
11, 181499, Note_on_c, 10, 52, 0
11, 181500, Note_on_c, 10, 54, 90
11, 181559, Note_on_c, 10, 54, 0
11, 181560, Note_on_c, 10, 55, 90
11, 181619, Note_on_c, 10, 55, 0
11, 181620, Note_on_c, 10, 57, 90
11, 181679, Note_on_c, 10, 57, 0
11, 181680, Note_on_c, 10, 55, 90
11, 181739, Note_on_c, 10, 55, 0
11, 181740, Note_on_c, 10, 62, 90
11, 181799, Note_on_c, 10, 62, 0
11, 181800, Note_on_c, 10, 54, 90
11, 181859, Note_on_c, 10, 54, 0
11, 181860, Note_on_c, 10, 50, 90
11, 181919, Note_on_c, 10, 50, 0
11, 181920, Note_on_c, 10, 55, 90
11, 182039, Note_on_c, 10, 55, 0
11, 182040, Note_on_c, 10, 48, 90
11, 182099, Note_on_c, 10, 48, 0
11, 182100, Note_on_c, 10, 50, 90
11, 182219, Note_on_c, 10, 50, 0
11, 182220, Note_on_c, 10, 38, 90
11, 182279, Note_on_c, 10, 38, 0
11, 182280, Note_on_c, 10, 43, 90
11, 182339, Note_on_c, 10, 43, 0
11, 182340, Note_on_c, 10, 47, 90
11, 182399, Note_on_c, 10, 47, 0
11, 182400, Note_on_c, 10, 50, 90
11, 182459, Note_on_c, 10, 50, 0
11, 182460, Note_on_c, 10, 55, 90
11, 182519, Note_on_c, 10, 55, 0
11, 182520, Note_on_c, 10, 50, 90
11, 182579, Note_on_c, 10, 50, 0
11, 182580, Note_on_c, 10, 47, 90
11, 182639, Note_on_c, 10, 47, 0
11, 182640, Note_on_c, 10, 43, 90
11, 182819, Note_on_c, 10, 43, 0
11, 182820, Note_on_c, 10, 42, 90
11, 182999, Note_on_c, 10, 42, 0
11, 183000, Note_on_c, 10, 43, 90
11, 183179, Note_on_c, 10, 43, 0
11, 183180, Note_on_c, 10, 50, 90
11, 183359, Note_on_c, 10, 50, 0
11, 183360, Note_on_c, 10, 55, 90
11, 183479, Note_on_c, 10, 55, 0
11, 183480, Note_on_c, 10, 43, 90
11, 183539, Note_on_c, 10, 43, 0
11, 183540, Note_on_c, 10, 50, 90
11, 183659, Note_on_c, 10, 50, 0
11, 183660, Note_on_c, 10, 38, 90
11, 183719, Note_on_c, 10, 38, 0
11, 183720, Note_on_c, 10, 43, 90
11, 183779, Note_on_c, 10, 43, 0
11, 183780, Note_on_c, 10, 47, 90
11, 183839, Note_on_c, 10, 47, 0
11, 183840, Note_on_c, 10, 50, 90
11, 183899, Note_on_c, 10, 50, 0
11, 183900, Note_on_c, 10, 55, 90
11, 183959, Note_on_c, 10, 55, 0
11, 183960, Note_on_c, 10, 57, 90
11, 184019, Note_on_c, 10, 57, 0
11, 184020, Note_on_c, 10, 55, 90
11, 184079, Note_on_c, 10, 55, 0
11, 184080, Note_on_c, 10, 54, 90
11, 184139, Note_on_c, 10, 54, 0
11, 184140, Note_on_c, 10, 52, 90
11, 184199, Note_on_c, 10, 52, 0
11, 184200, Note_on_c, 10, 54, 90
11, 184259, Note_on_c, 10, 54, 0
11, 184260, Note_on_c, 10, 54, 90
11, 184319, Note_on_c, 10, 54, 0
11, 184320, Note_on_c, 10, 52, 90
11, 184379, Note_on_c, 10, 52, 0
11, 184380, Note_on_c, 10, 50, 90
11, 184439, Note_on_c, 10, 50, 0
11, 184440, Note_on_c, 10, 55, 90
11, 184559, Note_on_c, 10, 55, 0
11, 184560, Note_on_c, 10, 43, 90
11, 184619, Note_on_c, 10, 43, 0
11, 184620, Note_on_c, 10, 50, 90
11, 184739, Note_on_c, 10, 50, 0
11, 184740, Note_on_c, 10, 55, 90
11, 184799, Note_on_c, 10, 55, 0
11, 184800, Note_on_c, 10, 54, 90
11, 184859, Note_on_c, 10, 54, 0
11, 184860, Note_on_c, 10, 52, 90
11, 184919, Note_on_c, 10, 52, 0
11, 184920, Note_on_c, 10, 54, 90
11, 184979, Note_on_c, 10, 54, 0
11, 184980, Note_on_c, 10, 54, 90
11, 185039, Note_on_c, 10, 54, 0
11, 185040, Note_on_c, 10, 52, 90
11, 185099, Note_on_c, 10, 52, 0
11, 185100, Note_on_c, 10, 50, 90
11, 185159, Note_on_c, 10, 50, 0
11, 185160, Note_on_c, 10, 55, 90
11, 185279, Note_on_c, 10, 55, 0
11, 185280, Note_on_c, 10, 43, 90
11, 185339, Note_on_c, 10, 43, 0
11, 185340, Note_on_c, 10, 50, 90
11, 185459, Note_on_c, 10, 50, 0
11, 185460, Note_on_c, 10, 48, 90
11, 185519, Note_on_c, 10, 48, 0
11, 185520, Note_on_c, 10, 47, 90
11, 185579, Note_on_c, 10, 47, 0
11, 185580, Note_on_c, 10, 45, 90
11, 185639, Note_on_c, 10, 45, 0
11, 185640, Note_on_c, 10, 43, 90
11, 185699, Note_on_c, 10, 43, 0
11, 185700, Note_on_c, 10, 42, 90
11, 185759, Note_on_c, 10, 42, 0
11, 185760, Note_on_c, 10, 40, 90
11, 185819, Note_on_c, 10, 40, 0
11, 185820, Note_on_c, 10, 38, 90
11, 185879, Note_on_c, 10, 38, 0
11, 185880, Note_on_c, 10, 43, 90
11, 185939, Note_on_c, 10, 43, 0
11, 185940, Note_on_c, 10, 47, 90
11, 185999, Note_on_c, 10, 47, 0
11, 186000, Note_on_c, 10, 43, 90
11, 186059, Note_on_c, 10, 43, 0
11, 186060, Note_on_c, 10, 50, 90
11, 186119, Note_on_c, 10, 50, 0
11, 186120, Note_on_c, 10, 54, 90
11, 186179, Note_on_c, 10, 54, 0
11, 186180, Note_on_c, 10, 50, 90
11, 186239, Note_on_c, 10, 50, 0
11, 186240, Note_on_c, 10, 55, 90
11, 186359, Note_on_c, 10, 55, 0
11, 186360, Note_on_c, 10, 43, 90
11, 186419, Note_on_c, 10, 43, 0
11, 186420, Note_on_c, 10, 50, 90
11, 186539, Note_on_c, 10, 50, 0
11, 186540, Note_on_c, 10, 38, 90
11, 186599, Note_on_c, 10, 38, 0
11, 186600, Note_on_c, 10, 43, 90
11, 186659, Note_on_c, 10, 43, 0
11, 186660, Note_on_c, 10, 47, 90
11, 186719, Note_on_c, 10, 47, 0
11, 186720, Note_on_c, 10, 50, 90
11, 186779, Note_on_c, 10, 50, 0
11, 186780, Note_on_c, 10, 55, 90
11, 186839, Note_on_c, 10, 55, 0
11, 186840, Note_on_c, 10, 59, 90
11, 186899, Note_on_c, 10, 59, 0
11, 186900, Note_on_c, 10, 55, 90
11, 186959, Note_on_c, 10, 55, 0
11, 186960, Note_on_c, 10, 54, 90
11, 187019, Note_on_c, 10, 54, 0
11, 187020, Note_on_c, 10, 52, 90
11, 187049, Note_on_c, 10, 52, 0
11, 187050, Note_on_c, 10, 54, 90
11, 187079, Note_on_c, 10, 54, 0
11, 187080, Note_on_c, 10, 55, 90
11, 187109, Note_on_c, 10, 55, 0
11, 187110, Note_on_c, 10, 52, 90
11, 187139, Note_on_c, 10, 52, 0
11, 187140, Note_on_c, 10, 54, 90
11, 187199, Note_on_c, 10, 54, 0
11, 187200, Note_on_c, 10, 55, 90
11, 187229, Note_on_c, 10, 55, 0
11, 187230, Note_on_c, 10, 54, 90
11, 187259, Note_on_c, 10, 54, 0
11, 187260, Note_on_c, 10, 52, 90
11, 187289, Note_on_c, 10, 52, 0
11, 187290, Note_on_c, 10, 50, 90
11, 187319, Note_on_c, 10, 50, 0
11, 187320, Note_on_c, 10, 55, 90
11, 187379, Note_on_c, 10, 55, 0
11, 187380, Note_on_c, 10, 57, 90
11, 187409, Note_on_c, 10, 57, 0
11, 187410, Note_on_c, 10, 55, 90
11, 187439, Note_on_c, 10, 55, 0
11, 187440, Note_on_c, 10, 54, 90
11, 187469, Note_on_c, 10, 54, 0
11, 187470, Note_on_c, 10, 52, 90
11, 187499, Note_on_c, 10, 52, 0
11, 187500, Note_on_c, 10, 54, 90
11, 187559, Note_on_c, 10, 54, 0
11, 187560, Note_on_c, 10, 50, 90
11, 187619, Note_on_c, 10, 50, 0
11, 187620, Note_on_c, 10, 55, 90
11, 187649, Note_on_c, 10, 55, 0
11, 187650, Note_on_c, 10, 57, 90
11, 187679, Note_on_c, 10, 57, 0
11, 187680, Note_on_c, 10, 59, 90
11, 187739, Note_on_c, 10, 59, 0
11, 187740, Note_on_c, 10, 60, 90
11, 187799, Note_on_c, 10, 60, 0
11, 187800, Note_on_c, 10, 59, 90
11, 187859, Note_on_c, 10, 59, 0
11, 187860, Note_on_c, 10, 54, 90
11, 187919, Note_on_c, 10, 54, 0
11, 187920, Note_on_c, 10, 55, 90
11, 187979, Note_on_c, 10, 55, 0
11, 187980, Note_on_c, 10, 57, 90
11, 188039, Note_on_c, 10, 57, 0
11, 188040, Note_on_c, 10, 55, 90
11, 188099, Note_on_c, 10, 55, 0
11, 188100, Note_on_c, 10, 54, 90
11, 188159, Note_on_c, 10, 54, 0
11, 188160, Note_on_c, 10, 55, 90
11, 188219, Note_on_c, 10, 55, 0
11, 188220, Note_on_c, 10, 54, 90
11, 188279, Note_on_c, 10, 54, 0
11, 188280, Note_on_c, 10, 50, 90
11, 188339, Note_on_c, 10, 50, 0
11, 188340, Note_on_c, 10, 48, 90
11, 188399, Note_on_c, 10, 48, 0
11, 188400, Note_on_c, 10, 47, 90
11, 188459, Note_on_c, 10, 47, 0
11, 188460, Note_on_c, 10, 48, 90
11, 188489, Note_on_c, 10, 48, 0
11, 188490, Note_on_c, 10, 47, 90
11, 188519, Note_on_c, 10, 47, 0
11, 188520, Note_on_c, 10, 45, 90
11, 188549, Note_on_c, 10, 45, 0
11, 188550, Note_on_c, 10, 43, 90
11, 188579, Note_on_c, 10, 43, 0
11, 188580, Note_on_c, 10, 42, 90
11, 188639, Note_on_c, 10, 42, 0
11, 188640, Note_on_c, 10, 43, 90
11, 188669, Note_on_c, 10, 43, 0
11, 188670, Note_on_c, 10, 42, 90
11, 188699, Note_on_c, 10, 42, 0
11, 188700, Note_on_c, 10, 40, 90
11, 188729, Note_on_c, 10, 40, 0
11, 188730, Note_on_c, 10, 38, 90
11, 188759, Note_on_c, 10, 38, 0
11, 188760, Note_on_c, 10, 43, 90
11, 188789, Note_on_c, 10, 43, 0
11, 188790, Note_on_c, 10, 42, 90
11, 188819, Note_on_c, 10, 42, 0
11, 188820, Note_on_c, 10, 43, 90
11, 188849, Note_on_c, 10, 43, 0
11, 188850, Note_on_c, 10, 45, 90
11, 188879, Note_on_c, 10, 45, 0
11, 188880, Note_on_c, 10, 47, 90
11, 188909, Note_on_c, 10, 47, 0
11, 188910, Note_on_c, 10, 48, 90
11, 188939, Note_on_c, 10, 48, 0
11, 188940, Note_on_c, 10, 50, 90
11, 188969, Note_on_c, 10, 50, 0
11, 188970, Note_on_c, 10, 48, 90
11, 188999, Note_on_c, 10, 48, 0
11, 189000, Note_on_c, 10, 50, 90
11, 189029, Note_on_c, 10, 50, 0
11, 189030, Note_on_c, 10, 52, 90
11, 189059, Note_on_c, 10, 52, 0
11, 189060, Note_on_c, 10, 54, 90
11, 189089, Note_on_c, 10, 54, 0
11, 189090, Note_on_c, 10, 50, 90
11, 189119, Note_on_c, 10, 50, 0
11, 189120, Note_on_c, 10, 55, 90
11, 189239, Note_on_c, 10, 55, 0
11, 189240, Note_on_c, 10, 48, 90
11, 189299, Note_on_c, 10, 48, 0
11, 189300, Note_on_c, 10, 50, 90
11, 189419, Note_on_c, 10, 50, 0
11, 189420, Note_on_c, 10, 38, 90
11, 189479, Note_on_c, 10, 38, 0
11, 189480, Note_on_c, 10, 43, 90
11, 189840, Note_on_c, 10, 43, 0
11, 189840, Note_on_c, 10, 49, 90
11, 190140, Note_on_c, 10, 49, 0
11, 190140, Note_on_c, 10, 45, 90
11, 190200, Note_on_c, 10, 45, 0
11, 190200, Note_on_c, 10, 50, 90
11, 190320, Note_on_c, 10, 50, 0
11, 190320, Note_on_c, 10, 55, 90
11, 190380, Note_on_c, 10, 55, 0
11, 190380, Note_on_c, 10, 49, 90
11, 190500, Note_on_c, 10, 49, 0
11, 190500, Note_on_c, 10, 54, 90
11, 190560, Note_on_c, 10, 54, 0
11, 190560, Note_on_c, 10, 47, 90
11, 191040, Note_on_c, 10, 47, 0
11, 191040, Note_on_c, 10, 42, 90
11, 191520, Note_on_c, 10, 42, 0
11, 191520, Note_on_c, 10, 40, 90
11, 191760, Note_on_c, 10, 40, 0
11, 191760, Note_on_c, 10, 38, 90
11, 192000, Note_on_c, 10, 38, 0
11, 192000, Note_on_c, 10, 44, 90
11, 192720, Note_on_c, 10, 44, 0
11, 192720, Note_on_c, 10, 45, 90
11, 192960, Note_on_c, 10, 45, 0
11, 192960, Note_on_c, 10, 38, 90
11, 193079, Note_on_c, 10, 38, 0
11, 193080, Note_on_c, 10, 50, 90
11, 193319, Note_on_c, 10, 50, 0
11, 193320, Note_on_c, 10, 54, 90
11, 193439, Note_on_c, 10, 54, 0
11, 193440, Note_on_c, 10, 47, 90
11, 193679, Note_on_c, 10, 47, 0
11, 193680, Note_on_c, 10, 52, 90
11, 193739, Note_on_c, 10, 52, 0
11, 193740, Note_on_c, 10, 50, 90
11, 193799, Note_on_c, 10, 50, 0
11, 193800, Note_on_c, 10, 49, 90
11, 193859, Note_on_c, 10, 49, 0
11, 193860, Note_on_c, 10, 47, 90
11, 193919, Note_on_c, 10, 47, 0
11, 193920, Note_on_c, 10, 49, 90
11, 193979, Note_on_c, 10, 49, 0
11, 193980, Note_on_c, 10, 50, 90
11, 194039, Note_on_c, 10, 50, 0
11, 194040, Note_on_c, 10, 52, 90
11, 194159, Note_on_c, 10, 52, 0
11, 194160, Note_on_c, 10, 49, 90
11, 194279, Note_on_c, 10, 49, 0
11, 194280, Note_on_c, 10, 45, 90
11, 194399, Note_on_c, 10, 45, 0
11, 194400, Note_on_c, 10, 42, 90
11, 194519, Note_on_c, 10, 42, 0
11, 194520, Note_on_c, 10, 38, 90
11, 194759, Note_on_c, 10, 38, 0
11, 194760, Note_on_c, 10, 42, 90
11, 194879, Note_on_c, 10, 42, 0
11, 194880, Note_on_c, 10, 47, 90
11, 195119, Note_on_c, 10, 47, 0
11, 195120, Note_on_c, 10, 52, 90
11, 195179, Note_on_c, 10, 52, 0
11, 195180, Note_on_c, 10, 50, 90
11, 195239, Note_on_c, 10, 50, 0
11, 195240, Note_on_c, 10, 49, 90
11, 195299, Note_on_c, 10, 49, 0
11, 195300, Note_on_c, 10, 47, 90
11, 195359, Note_on_c, 10, 47, 0
11, 195360, Note_on_c, 10, 49, 90
11, 195419, Note_on_c, 10, 49, 0
11, 195420, Note_on_c, 10, 50, 90
11, 195479, Note_on_c, 10, 50, 0
11, 195480, Note_on_c, 10, 52, 90
11, 195599, Note_on_c, 10, 52, 0
11, 195600, Note_on_c, 10, 45, 90
11, 195719, Note_on_c, 10, 45, 0
11, 195720, Note_on_c, 10, 49, 90
11, 195839, Note_on_c, 10, 49, 0
11, 195840, Note_on_c, 10, 45, 90
11, 195959, Note_on_c, 10, 45, 0
11, 195960, Note_on_c, 10, 50, 90
11, 196079, Note_on_c, 10, 50, 0
11, 196080, Note_on_c, 10, 54, 90
11, 196199, Note_on_c, 10, 54, 0
11, 196200, Note_on_c, 10, 57, 90
11, 196319, Note_on_c, 10, 57, 0
11, 196320, Note_on_c, 10, 54, 90
11, 196439, Note_on_c, 10, 54, 0
11, 196440, Note_on_c, 10, 50, 90
11, 196559, Note_on_c, 10, 50, 0
11, 196560, Note_on_c, 10, 49, 90
11, 196679, Note_on_c, 10, 49, 0
11, 196680, Note_on_c, 10, 50, 90
11, 196799, Note_on_c, 10, 50, 0
11, 196800, Note_on_c, 10, 54, 90
11, 196919, Note_on_c, 10, 54, 0
11, 196920, Note_on_c, 10, 52, 90
11, 197039, Note_on_c, 10, 52, 0
11, 197040, Note_on_c, 10, 50, 90
11, 197159, Note_on_c, 10, 50, 0
11, 197160, Note_on_c, 10, 54, 90
11, 197279, Note_on_c, 10, 54, 0
11, 197280, Note_on_c, 10, 57, 90
11, 197399, Note_on_c, 10, 57, 0
11, 197400, Note_on_c, 10, 62, 90
11, 197519, Note_on_c, 10, 62, 0
11, 197520, Note_on_c, 10, 54, 90
11, 197639, Note_on_c, 10, 54, 0
11, 197640, Note_on_c, 10, 57, 90
11, 197759, Note_on_c, 10, 57, 0
11, 197760, Note_on_c, 10, 50, 90
11, 197879, Note_on_c, 10, 50, 0
11, 197880, Note_on_c, 10, 49, 90
11, 197939, Note_on_c, 10, 49, 0
11, 197940, Note_on_c, 10, 47, 90
11, 197999, Note_on_c, 10, 47, 0
11, 198000, Note_on_c, 10, 49, 90
11, 198059, Note_on_c, 10, 49, 0
11, 198060, Note_on_c, 10, 45, 90
11, 198119, Note_on_c, 10, 45, 0
11, 198120, Note_on_c, 10, 50, 90
11, 198239, Note_on_c, 10, 50, 0
11, 198240, Note_on_c, 10, 54, 90
11, 198359, Note_on_c, 10, 54, 0
11, 198360, Note_on_c, 10, 52, 90
11, 198479, Note_on_c, 10, 52, 0
11, 198480, Note_on_c, 10, 50, 90
11, 198599, Note_on_c, 10, 50, 0
11, 198600, Note_on_c, 10, 54, 90
11, 198719, Note_on_c, 10, 54, 0
11, 198720, Note_on_c, 10, 57, 90
11, 198839, Note_on_c, 10, 57, 0
11, 198840, Note_on_c, 10, 62, 90
11, 198959, Note_on_c, 10, 62, 0
11, 198960, Note_on_c, 10, 54, 90
11, 199079, Note_on_c, 10, 54, 0
11, 199080, Note_on_c, 10, 57, 90
11, 199199, Note_on_c, 10, 57, 0
11, 199200, Note_on_c, 10, 50, 90
11, 199439, Note_on_c, 10, 50, 0
11, 199560, Note_on_c, 10, 47, 90
11, 200160, Note_on_c, 10, 47, 0
11, 200160, Note_on_c, 10, 46, 90
11, 200280, Note_on_c, 10, 46, 0
11, 200280, Note_on_c, 10, 47, 90
11, 200760, Note_on_c, 10, 47, 0
11, 200760, Note_on_c, 10, 52, 90
11, 201000, Note_on_c, 10, 52, 0
11, 201000, Note_on_c, 10, 49, 90
11, 201120, Note_on_c, 10, 49, 0
11, 201120, Note_on_c, 10, 54, 90
11, 201240, Note_on_c, 10, 54, 0
11, 201360, Note_on_c, 10, 52, 90
11, 201480, Note_on_c, 10, 52, 0
11, 201480, Note_on_c, 10, 45, 90
11, 201960, Note_on_c, 10, 45, 0
11, 202260, Note_on_c, 10, 52, 90
11, 202319, Note_on_c, 10, 52, 0
11, 202320, Note_on_c, 10, 57, 90
11, 202379, Note_on_c, 10, 57, 0
11, 202380, Note_on_c, 10, 61, 90
11, 202439, Note_on_c, 10, 61, 0
11, 202440, Note_on_c, 10, 57, 90
11, 202499, Note_on_c, 10, 57, 0
11, 202500, Note_on_c, 10, 56, 90
11, 202559, Note_on_c, 10, 56, 0
11, 202560, Note_on_c, 10, 52, 90
11, 202619, Note_on_c, 10, 52, 0
11, 202620, Note_on_c, 10, 57, 90
11, 202679, Note_on_c, 10, 57, 0
11, 202680, Note_on_c, 10, 49, 90
11, 202739, Note_on_c, 10, 49, 0
11, 202740, Note_on_c, 10, 50, 90
11, 202769, Note_on_c, 10, 50, 0
11, 202770, Note_on_c, 10, 47, 90
11, 202799, Note_on_c, 10, 47, 0
11, 202800, Note_on_c, 10, 49, 90
11, 202829, Note_on_c, 10, 49, 0
11, 202830, Note_on_c, 10, 45, 90
11, 202859, Note_on_c, 10, 45, 0
11, 202860, Note_on_c, 10, 50, 90
11, 202919, Note_on_c, 10, 50, 0
11, 202920, Note_on_c, 10, 62, 90
11, 202979, Note_on_c, 10, 62, 0
11, 202980, Note_on_c, 10, 50, 90
11, 203039, Note_on_c, 10, 50, 0
11, 203040, Note_on_c, 10, 52, 90
11, 203069, Note_on_c, 10, 52, 0
11, 203070, Note_on_c, 10, 56, 90
11, 203099, Note_on_c, 10, 56, 0
11, 203100, Note_on_c, 10, 52, 90
11, 203129, Note_on_c, 10, 52, 0
11, 203130, Note_on_c, 10, 56, 90
11, 203159, Note_on_c, 10, 56, 0
11, 203160, Note_on_c, 10, 52, 90
11, 203189, Note_on_c, 10, 52, 0
11, 203190, Note_on_c, 10, 56, 90
11, 203219, Note_on_c, 10, 56, 0
11, 203220, Note_on_c, 10, 49, 90
11, 203279, Note_on_c, 10, 49, 0
11, 203280, Note_on_c, 10, 61, 90
11, 203339, Note_on_c, 10, 61, 0
11, 203340, Note_on_c, 10, 49, 90
11, 203399, Note_on_c, 10, 49, 0
11, 203400, Note_on_c, 10, 50, 90
11, 203429, Note_on_c, 10, 50, 0
11, 203430, Note_on_c, 10, 54, 90
11, 203459, Note_on_c, 10, 54, 0
11, 203460, Note_on_c, 10, 50, 90
11, 203489, Note_on_c, 10, 50, 0
11, 203490, Note_on_c, 10, 54, 90
11, 203519, Note_on_c, 10, 54, 0
11, 203520, Note_on_c, 10, 50, 90
11, 203549, Note_on_c, 10, 50, 0
11, 203550, Note_on_c, 10, 54, 90
11, 203579, Note_on_c, 10, 54, 0
11, 203580, Note_on_c, 10, 47, 90
11, 203639, Note_on_c, 10, 47, 0
11, 203640, Note_on_c, 10, 49, 90
11, 203699, Note_on_c, 10, 49, 0
11, 203700, Note_on_c, 10, 50, 90
11, 203759, Note_on_c, 10, 50, 0
11, 203760, Note_on_c, 10, 52, 90
11, 203819, Note_on_c, 10, 52, 0
11, 203820, Note_on_c, 10, 54, 90
11, 203879, Note_on_c, 10, 54, 0
11, 203880, Note_on_c, 10, 56, 90
11, 203939, Note_on_c, 10, 56, 0
11, 203940, Note_on_c, 10, 57, 90
11, 203999, Note_on_c, 10, 57, 0
11, 204000, Note_on_c, 10, 50, 90
11, 204059, Note_on_c, 10, 50, 0
11, 204060, Note_on_c, 10, 52, 90
11, 204119, Note_on_c, 10, 52, 0
11, 204120, Note_on_c, 10, 54, 90
11, 204179, Note_on_c, 10, 54, 0
11, 204180, Note_on_c, 10, 52, 90
11, 204239, Note_on_c, 10, 52, 0
11, 204240, Note_on_c, 10, 50, 90
11, 204299, Note_on_c, 10, 50, 0
11, 204300, Note_on_c, 10, 49, 90
11, 204359, Note_on_c, 10, 49, 0
11, 204360, Note_on_c, 10, 50, 90
11, 204419, Note_on_c, 10, 50, 0
11, 204420, Note_on_c, 10, 52, 90
11, 204479, Note_on_c, 10, 52, 0
11, 204480, Note_on_c, 10, 45, 90
11, 204539, Note_on_c, 10, 45, 0
11, 204540, Note_on_c, 10, 47, 90
11, 204599, Note_on_c, 10, 47, 0
11, 204600, Note_on_c, 10, 49, 90
11, 204659, Note_on_c, 10, 49, 0
11, 204660, Note_on_c, 10, 42, 90
11, 204719, Note_on_c, 10, 42, 0
11, 204720, Note_on_c, 10, 38, 90
11, 204779, Note_on_c, 10, 38, 0
11, 204780, Note_on_c, 10, 40, 90
11, 204839, Note_on_c, 10, 40, 0
11, 204840, Note_on_c, 10, 45, 90
11, 204959, Note_on_c, 10, 45, 0
11, 205140, Note_on_c, 10, 52, 90
11, 205200, Note_on_c, 10, 52, 0
11, 205200, Note_on_c, 10, 59, 90
11, 205260, Note_on_c, 10, 59, 0
11, 205260, Note_on_c, 10, 61, 90
11, 205320, Note_on_c, 10, 61, 0
11, 205320, Note_on_c, 10, 57, 90
11, 205380, Note_on_c, 10, 57, 0
11, 205380, Note_on_c, 10, 56, 90
11, 205440, Note_on_c, 10, 56, 0
11, 205440, Note_on_c, 10, 52, 90
11, 205500, Note_on_c, 10, 52, 0
11, 205500, Note_on_c, 10, 57, 90
11, 205560, Note_on_c, 10, 57, 0
11, 205560, Note_on_c, 10, 49, 90
11, 205619, Note_on_c, 10, 49, 0
11, 205620, Note_on_c, 10, 50, 90
11, 205649, Note_on_c, 10, 50, 0
11, 205650, Note_on_c, 10, 47, 90
11, 205679, Note_on_c, 10, 47, 0
11, 205680, Note_on_c, 10, 49, 90
11, 205709, Note_on_c, 10, 49, 0
11, 205710, Note_on_c, 10, 45, 90
11, 205739, Note_on_c, 10, 45, 0
11, 205740, Note_on_c, 10, 50, 90
11, 205799, Note_on_c, 10, 50, 0
11, 205800, Note_on_c, 10, 62, 90
11, 205859, Note_on_c, 10, 62, 0
11, 205860, Note_on_c, 10, 50, 90
11, 205919, Note_on_c, 10, 50, 0
11, 205920, Note_on_c, 10, 52, 90
11, 205949, Note_on_c, 10, 52, 0
11, 205950, Note_on_c, 10, 56, 90
11, 205979, Note_on_c, 10, 56, 0
11, 205980, Note_on_c, 10, 52, 90
11, 206009, Note_on_c, 10, 52, 0
11, 206010, Note_on_c, 10, 56, 90
11, 206039, Note_on_c, 10, 56, 0
11, 206040, Note_on_c, 10, 52, 90
11, 206069, Note_on_c, 10, 52, 0
11, 206070, Note_on_c, 10, 56, 90
11, 206099, Note_on_c, 10, 56, 0
11, 206100, Note_on_c, 10, 49, 90
11, 206159, Note_on_c, 10, 49, 0
11, 206160, Note_on_c, 10, 61, 90
11, 206219, Note_on_c, 10, 61, 0
11, 206220, Note_on_c, 10, 49, 90
11, 206279, Note_on_c, 10, 49, 0
11, 206280, Note_on_c, 10, 50, 90
11, 206309, Note_on_c, 10, 50, 0
11, 206310, Note_on_c, 10, 54, 90
11, 206339, Note_on_c, 10, 54, 0
11, 206340, Note_on_c, 10, 50, 90
11, 206369, Note_on_c, 10, 50, 0
11, 206370, Note_on_c, 10, 54, 90
11, 206399, Note_on_c, 10, 54, 0
11, 206400, Note_on_c, 10, 50, 90
11, 206429, Note_on_c, 10, 50, 0
11, 206430, Note_on_c, 10, 54, 90
11, 206459, Note_on_c, 10, 54, 0
11, 206460, Note_on_c, 10, 47, 90
11, 206519, Note_on_c, 10, 47, 0
11, 206520, Note_on_c, 10, 49, 90
11, 206579, Note_on_c, 10, 49, 0
11, 206580, Note_on_c, 10, 50, 90
11, 206639, Note_on_c, 10, 50, 0
11, 206640, Note_on_c, 10, 52, 90
11, 206699, Note_on_c, 10, 52, 0
11, 206700, Note_on_c, 10, 54, 90
11, 206759, Note_on_c, 10, 54, 0
11, 206760, Note_on_c, 10, 56, 90
11, 206819, Note_on_c, 10, 56, 0
11, 206820, Note_on_c, 10, 57, 90
11, 206879, Note_on_c, 10, 57, 0
11, 206880, Note_on_c, 10, 50, 90
11, 206939, Note_on_c, 10, 50, 0
11, 206940, Note_on_c, 10, 52, 90
11, 206999, Note_on_c, 10, 52, 0
11, 207000, Note_on_c, 10, 45, 90
11, 207059, Note_on_c, 10, 45, 0
11, 207060, Note_on_c, 10, 57, 90
11, 207119, Note_on_c, 10, 57, 0
11, 207120, Note_on_c, 10, 52, 90
11, 207179, Note_on_c, 10, 52, 0
11, 207180, Note_on_c, 10, 49, 90
11, 207239, Note_on_c, 10, 49, 0
11, 207240, Note_on_c, 10, 45, 90
11, 207299, Note_on_c, 10, 45, 0
11, 207300, Note_on_c, 10, 52, 90
11, 207359, Note_on_c, 10, 52, 0
11, 207360, Note_on_c, 10, 57, 90
11, 207419, Note_on_c, 10, 57, 0
11, 207420, Note_on_c, 10, 61, 90
11, 207479, Note_on_c, 10, 61, 0
11, 207480, Note_on_c, 10, 57, 90
11, 207539, Note_on_c, 10, 57, 0
11, 207540, Note_on_c, 10, 56, 90
11, 207599, Note_on_c, 10, 56, 0
11, 207600, Note_on_c, 10, 52, 90
11, 207659, Note_on_c, 10, 52, 0
11, 207660, Note_on_c, 10, 57, 90
11, 207719, Note_on_c, 10, 57, 0
11, 207720, Note_on_c, 10, 49, 90
11, 207779, Note_on_c, 10, 49, 0
11, 207780, Note_on_c, 10, 50, 90
11, 207809, Note_on_c, 10, 50, 0
11, 207810, Note_on_c, 10, 47, 90
11, 207839, Note_on_c, 10, 47, 0
11, 207840, Note_on_c, 10, 49, 90
11, 207869, Note_on_c, 10, 49, 0
11, 207870, Note_on_c, 10, 45, 90
11, 207899, Note_on_c, 10, 45, 0
11, 207900, Note_on_c, 10, 50, 90
11, 207959, Note_on_c, 10, 50, 0
11, 207960, Note_on_c, 10, 62, 90
11, 208019, Note_on_c, 10, 62, 0
11, 208020, Note_on_c, 10, 50, 90
11, 208079, Note_on_c, 10, 50, 0
11, 208080, Note_on_c, 10, 52, 90
11, 208109, Note_on_c, 10, 52, 0
11, 208110, Note_on_c, 10, 56, 90
11, 208139, Note_on_c, 10, 56, 0
11, 208140, Note_on_c, 10, 52, 90
11, 208169, Note_on_c, 10, 52, 0
11, 208170, Note_on_c, 10, 56, 90
11, 208199, Note_on_c, 10, 56, 0
11, 208200, Note_on_c, 10, 52, 90
11, 208229, Note_on_c, 10, 52, 0
11, 208230, Note_on_c, 10, 56, 90
11, 208259, Note_on_c, 10, 56, 0
11, 208260, Note_on_c, 10, 49, 90
11, 208319, Note_on_c, 10, 49, 0
11, 208320, Note_on_c, 10, 61, 90
11, 208379, Note_on_c, 10, 61, 0
11, 208380, Note_on_c, 10, 49, 90
11, 208439, Note_on_c, 10, 49, 0
11, 208440, Note_on_c, 10, 50, 90
11, 208469, Note_on_c, 10, 50, 0
11, 208470, Note_on_c, 10, 54, 90
11, 208499, Note_on_c, 10, 54, 0
11, 208500, Note_on_c, 10, 50, 90
11, 208529, Note_on_c, 10, 50, 0
11, 208530, Note_on_c, 10, 54, 90
11, 208559, Note_on_c, 10, 54, 0
11, 208560, Note_on_c, 10, 50, 90
11, 208589, Note_on_c, 10, 50, 0
11, 208590, Note_on_c, 10, 54, 90
11, 208619, Note_on_c, 10, 54, 0
11, 208620, Note_on_c, 10, 47, 90
11, 208679, Note_on_c, 10, 47, 0
11, 208680, Note_on_c, 10, 59, 90
11, 208739, Note_on_c, 10, 59, 0
11, 208800, Note_on_c, 10, 52, 90
11, 208859, Note_on_c, 10, 52, 0
11, 208860, Note_on_c, 10, 56, 90
11, 208919, Note_on_c, 10, 56, 0
11, 208920, Note_on_c, 10, 52, 90
11, 208979, Note_on_c, 10, 52, 0
11, 208980, Note_on_c, 10, 57, 90
11, 209039, Note_on_c, 10, 57, 0
11, 209040, Note_on_c, 10, 49, 90
11, 209099, Note_on_c, 10, 49, 0
11, 209100, Note_on_c, 10, 52, 90
11, 209159, Note_on_c, 10, 52, 0
11, 209160, Note_on_c, 10, 45, 90
11, 209219, Note_on_c, 10, 45, 0
11, 209220, Note_on_c, 10, 49, 90
11, 209279, Note_on_c, 10, 49, 0
11, 209280, Note_on_c, 10, 45, 90
11, 209339, Note_on_c, 10, 45, 0
11, 209340, Note_on_c, 10, 52, 90
11, 209399, Note_on_c, 10, 52, 0
11, 209400, Note_on_c, 10, 56, 90
11, 209459, Note_on_c, 10, 56, 0
11, 209460, Note_on_c, 10, 54, 90
11, 209519, Note_on_c, 10, 54, 0
11, 209520, Note_on_c, 10, 52, 90
11, 209579, Note_on_c, 10, 52, 0
11, 209580, Note_on_c, 10, 47, 90
11, 209609, Note_on_c, 10, 47, 0
11, 209610, Note_on_c, 10, 49, 90
11, 209639, Note_on_c, 10, 49, 0
11, 209640, Note_on_c, 10, 51, 90
11, 209669, Note_on_c, 10, 51, 0
11, 209670, Note_on_c, 10, 52, 90
11, 209699, Note_on_c, 10, 52, 0
11, 209700, Note_on_c, 10, 54, 90
11, 209759, Note_on_c, 10, 54, 0
11, 209760, Note_on_c, 10, 51, 90
11, 209819, Note_on_c, 10, 51, 0
11, 209820, Note_on_c, 10, 52, 90
11, 209879, Note_on_c, 10, 52, 0
11, 209880, Note_on_c, 10, 47, 90
11, 209939, Note_on_c, 10, 47, 0
11, 209940, Note_on_c, 10, 49, 90
11, 209999, Note_on_c, 10, 49, 0
11, 210000, Note_on_c, 10, 51, 90
11, 210059, Note_on_c, 10, 51, 0
11, 210060, Note_on_c, 10, 52, 90
11, 210119, Note_on_c, 10, 52, 0
11, 210120, Note_on_c, 10, 45, 90
11, 210179, Note_on_c, 10, 45, 0
11, 210180, Note_on_c, 10, 47, 90
11, 210239, Note_on_c, 10, 47, 0
11, 210240, Note_on_c, 10, 49, 90
11, 210299, Note_on_c, 10, 49, 0
11, 210300, Note_on_c, 10, 47, 90
11, 210359, Note_on_c, 10, 47, 0
11, 210360, Note_on_c, 10, 45, 90
11, 210419, Note_on_c, 10, 45, 0
11, 210420, Note_on_c, 10, 44, 90
11, 210479, Note_on_c, 10, 44, 0
11, 210480, Note_on_c, 10, 45, 90
11, 210539, Note_on_c, 10, 45, 0
11, 210540, Note_on_c, 10, 47, 90
11, 210599, Note_on_c, 10, 47, 0
11, 210600, Note_on_c, 10, 40, 90
11, 210659, Note_on_c, 10, 40, 0
11, 210660, Note_on_c, 10, 42, 90
11, 210719, Note_on_c, 10, 42, 0
11, 210720, Note_on_c, 10, 44, 90
11, 210779, Note_on_c, 10, 44, 0
11, 210780, Note_on_c, 10, 45, 90
11, 210839, Note_on_c, 10, 45, 0
11, 210840, Note_on_c, 10, 57, 90
11, 210899, Note_on_c, 10, 57, 0
11, 210900, Note_on_c, 10, 56, 90
11, 210959, Note_on_c, 10, 56, 0
11, 210960, Note_on_c, 10, 54, 90
11, 210989, Note_on_c, 10, 54, 0
11, 210990, Note_on_c, 10, 52, 90
11, 211019, Note_on_c, 10, 52, 0
11, 211020, Note_on_c, 10, 51, 90
11, 211049, Note_on_c, 10, 51, 0
11, 211050, Note_on_c, 10, 52, 90
11, 211079, Note_on_c, 10, 52, 0
11, 211080, Note_on_c, 10, 54, 90
11, 211109, Note_on_c, 10, 54, 0
11, 211110, Note_on_c, 10, 51, 90
11, 211139, Note_on_c, 10, 51, 0
11, 211140, Note_on_c, 10, 44, 90
11, 211199, Note_on_c, 10, 44, 0
11, 211200, Note_on_c, 10, 56, 90
11, 211259, Note_on_c, 10, 56, 0
11, 211260, Note_on_c, 10, 54, 90
11, 211319, Note_on_c, 10, 54, 0
11, 211320, Note_on_c, 10, 52, 90
11, 211349, Note_on_c, 10, 52, 0
11, 211350, Note_on_c, 10, 51, 90
11, 211379, Note_on_c, 10, 51, 0
11, 211380, Note_on_c, 10, 49, 90
11, 211409, Note_on_c, 10, 49, 0
11, 211410, Note_on_c, 10, 51, 90
11, 211439, Note_on_c, 10, 51, 0
11, 211440, Note_on_c, 10, 52, 90
11, 211469, Note_on_c, 10, 52, 0
11, 211470, Note_on_c, 10, 49, 90
11, 211499, Note_on_c, 10, 49, 0
11, 211500, Note_on_c, 10, 42, 90
11, 211559, Note_on_c, 10, 42, 0
11, 211560, Note_on_c, 10, 54, 90
11, 211619, Note_on_c, 10, 54, 0
11, 211620, Note_on_c, 10, 52, 90
11, 211679, Note_on_c, 10, 52, 0
11, 211680, Note_on_c, 10, 51, 90
11, 211739, Note_on_c, 10, 51, 0
11, 211740, Note_on_c, 10, 52, 90
11, 211799, Note_on_c, 10, 52, 0
11, 211800, Note_on_c, 10, 54, 90
11, 211859, Note_on_c, 10, 54, 0
11, 211860, Note_on_c, 10, 47, 90
11, 211919, Note_on_c, 10, 47, 0
11, 211920, Note_on_c, 10, 51, 90
11, 211979, Note_on_c, 10, 51, 0
11, 211980, Note_on_c, 10, 54, 90
11, 212039, Note_on_c, 10, 54, 0
11, 212040, Note_on_c, 10, 51, 90
11, 212099, Note_on_c, 10, 51, 0
11, 212100, Note_on_c, 10, 47, 90
11, 212159, Note_on_c, 10, 47, 0
11, 212160, Note_on_c, 10, 45, 90
11, 212219, Note_on_c, 10, 45, 0
11, 212220, Note_on_c, 10, 44, 90
11, 212249, Note_on_c, 10, 44, 0
11, 212250, Note_on_c, 10, 47, 90
11, 212279, Note_on_c, 10, 47, 0
11, 212280, Note_on_c, 10, 44, 90
11, 212309, Note_on_c, 10, 44, 0
11, 212310, Note_on_c, 10, 47, 90
11, 212339, Note_on_c, 10, 47, 0
11, 212340, Note_on_c, 10, 44, 90
11, 212369, Note_on_c, 10, 44, 0
11, 212370, Note_on_c, 10, 47, 90
11, 212399, Note_on_c, 10, 47, 0
11, 212400, Note_on_c, 10, 49, 90
11, 212429, Note_on_c, 10, 49, 0
11, 212430, Note_on_c, 10, 52, 90
11, 212459, Note_on_c, 10, 52, 0
11, 212460, Note_on_c, 10, 49, 90
11, 212489, Note_on_c, 10, 49, 0
11, 212490, Note_on_c, 10, 52, 90
11, 212519, Note_on_c, 10, 52, 0
11, 212520, Note_on_c, 10, 49, 90
11, 212549, Note_on_c, 10, 49, 0
11, 212550, Note_on_c, 10, 52, 90
11, 212579, Note_on_c, 10, 52, 0
11, 212580, Note_on_c, 10, 57, 90
11, 212639, Note_on_c, 10, 57, 0
11, 212640, Note_on_c, 10, 59, 90
11, 212699, Note_on_c, 10, 59, 0
11, 212700, Note_on_c, 10, 47, 90
11, 212759, Note_on_c, 10, 47, 0
11, 212760, Note_on_c, 10, 40, 90
11, 212879, Note_on_c, 10, 40, 0
11, 213060, Note_on_c, 10, 47, 90
11, 213119, Note_on_c, 10, 47, 0
11, 213120, Note_on_c, 10, 52, 90
11, 213179, Note_on_c, 10, 52, 0
11, 213180, Note_on_c, 10, 56, 90
11, 213239, Note_on_c, 10, 56, 0
11, 213240, Note_on_c, 10, 52, 90
11, 213299, Note_on_c, 10, 52, 0
11, 213300, Note_on_c, 10, 51, 90
11, 213359, Note_on_c, 10, 51, 0
11, 213360, Note_on_c, 10, 47, 90
11, 213419, Note_on_c, 10, 47, 0
11, 213420, Note_on_c, 10, 52, 90
11, 213479, Note_on_c, 10, 52, 0
11, 213480, Note_on_c, 10, 56, 90
11, 213539, Note_on_c, 10, 56, 0
11, 213540, Note_on_c, 10, 57, 90
11, 213569, Note_on_c, 10, 57, 0
11, 213570, Note_on_c, 10, 54, 90
11, 213599, Note_on_c, 10, 54, 0
11, 213600, Note_on_c, 10, 56, 90
11, 213629, Note_on_c, 10, 56, 0
11, 213630, Note_on_c, 10, 52, 90
11, 213659, Note_on_c, 10, 52, 0
11, 213660, Note_on_c, 10, 57, 90
11, 213719, Note_on_c, 10, 57, 0
11, 213720, Note_on_c, 10, 45, 90
11, 213779, Note_on_c, 10, 45, 0
11, 213780, Note_on_c, 10, 57, 90
11, 213839, Note_on_c, 10, 57, 0
11, 213840, Note_on_c, 10, 59, 90
11, 213869, Note_on_c, 10, 59, 0
11, 213870, Note_on_c, 10, 63, 90
11, 213899, Note_on_c, 10, 63, 0
11, 213900, Note_on_c, 10, 59, 90
11, 213929, Note_on_c, 10, 59, 0
11, 213930, Note_on_c, 10, 63, 90
11, 213959, Note_on_c, 10, 63, 0
11, 213960, Note_on_c, 10, 59, 90
11, 213989, Note_on_c, 10, 59, 0
11, 213990, Note_on_c, 10, 63, 90
11, 214019, Note_on_c, 10, 63, 0
11, 214020, Note_on_c, 10, 56, 90
11, 214079, Note_on_c, 10, 56, 0
11, 214080, Note_on_c, 10, 44, 90
11, 214139, Note_on_c, 10, 44, 0
11, 214140, Note_on_c, 10, 56, 90
11, 214199, Note_on_c, 10, 56, 0
11, 214200, Note_on_c, 10, 57, 90
11, 214229, Note_on_c, 10, 57, 0
11, 214230, Note_on_c, 10, 61, 90
11, 214259, Note_on_c, 10, 61, 0
11, 214260, Note_on_c, 10, 57, 90
11, 214289, Note_on_c, 10, 57, 0
11, 214290, Note_on_c, 10, 61, 90
11, 214319, Note_on_c, 10, 61, 0
11, 214320, Note_on_c, 10, 57, 90
11, 214349, Note_on_c, 10, 57, 0
11, 214350, Note_on_c, 10, 61, 90
11, 214379, Note_on_c, 10, 61, 0
11, 214380, Note_on_c, 10, 54, 90
11, 214439, Note_on_c, 10, 54, 0
11, 214440, Note_on_c, 10, 56, 90
11, 214499, Note_on_c, 10, 56, 0
11, 214500, Note_on_c, 10, 57, 90
11, 214619, Note_on_c, 10, 57, 0
11, 214620, Note_on_c, 10, 56, 90
11, 214649, Note_on_c, 10, 56, 0
11, 214650, Note_on_c, 10, 54, 90
11, 214679, Note_on_c, 10, 54, 0
11, 214680, Note_on_c, 10, 52, 90
11, 214709, Note_on_c, 10, 52, 0
11, 214710, Note_on_c, 10, 51, 90
11, 214739, Note_on_c, 10, 51, 0
11, 214740, Note_on_c, 10, 52, 90
11, 214799, Note_on_c, 10, 52, 0
11, 214800, Note_on_c, 10, 44, 90
11, 214859, Note_on_c, 10, 44, 0
11, 214860, Note_on_c, 10, 47, 90
11, 214919, Note_on_c, 10, 47, 0
11, 214920, Note_on_c, 10, 40, 90
11, 214979, Note_on_c, 10, 40, 0
11, 214980, Note_on_c, 10, 52, 90
11, 215009, Note_on_c, 10, 52, 0
11, 215010, Note_on_c, 10, 54, 90
11, 215039, Note_on_c, 10, 54, 0
11, 215040, Note_on_c, 10, 56, 90
11, 215069, Note_on_c, 10, 56, 0
11, 215070, Note_on_c, 10, 52, 90
11, 215099, Note_on_c, 10, 52, 0
11, 215100, Note_on_c, 10, 57, 90
11, 215159, Note_on_c, 10, 57, 0
11, 215160, Note_on_c, 10, 45, 90
11, 215219, Note_on_c, 10, 45, 0
11, 215220, Note_on_c, 10, 57, 90
11, 215279, Note_on_c, 10, 57, 0
11, 215280, Note_on_c, 10, 56, 90
11, 215339, Note_on_c, 10, 56, 0
11, 215340, Note_on_c, 10, 57, 90
11, 215369, Note_on_c, 10, 57, 0
11, 215370, Note_on_c, 10, 56, 90
11, 215399, Note_on_c, 10, 56, 0
11, 215400, Note_on_c, 10, 54, 90
11, 215429, Note_on_c, 10, 54, 0
11, 215430, Note_on_c, 10, 52, 90
11, 215459, Note_on_c, 10, 52, 0
11, 215460, Note_on_c, 10, 57, 90
11, 215519, Note_on_c, 10, 57, 0
11, 215520, Note_on_c, 10, 56, 90
11, 215579, Note_on_c, 10, 56, 0
11, 215580, Note_on_c, 10, 54, 90
11, 215639, Note_on_c, 10, 54, 0
11, 215640, Note_on_c, 10, 52, 90
11, 215699, Note_on_c, 10, 52, 0
11, 215700, Note_on_c, 10, 54, 90
11, 215759, Note_on_c, 10, 54, 0
11, 215760, Note_on_c, 10, 56, 90
11, 215819, Note_on_c, 10, 56, 0
11, 215820, Note_on_c, 10, 57, 90
11, 215849, Note_on_c, 10, 57, 0
11, 215850, Note_on_c, 10, 52, 90
11, 215879, Note_on_c, 10, 52, 0
11, 215880, Note_on_c, 10, 57, 90
11, 215909, Note_on_c, 10, 57, 0
11, 215910, Note_on_c, 10, 52, 90
11, 215939, Note_on_c, 10, 52, 0
11, 215940, Note_on_c, 10, 57, 90
11, 215969, Note_on_c, 10, 57, 0
11, 215970, Note_on_c, 10, 52, 90
11, 215999, Note_on_c, 10, 52, 0
11, 216000, Note_on_c, 10, 56, 90
11, 216029, Note_on_c, 10, 56, 0
11, 216030, Note_on_c, 10, 52, 90
11, 216059, Note_on_c, 10, 52, 0
11, 216060, Note_on_c, 10, 56, 90
11, 216089, Note_on_c, 10, 56, 0
11, 216090, Note_on_c, 10, 52, 90
11, 216119, Note_on_c, 10, 52, 0
11, 216120, Note_on_c, 10, 56, 90
11, 216149, Note_on_c, 10, 56, 0
11, 216150, Note_on_c, 10, 52, 90
11, 216179, Note_on_c, 10, 52, 0
11, 216180, Note_on_c, 10, 57, 90
11, 216209, Note_on_c, 10, 57, 0
11, 216210, Note_on_c, 10, 52, 90
11, 216239, Note_on_c, 10, 52, 0
11, 216240, Note_on_c, 10, 57, 90
11, 216269, Note_on_c, 10, 57, 0
11, 216270, Note_on_c, 10, 52, 90
11, 216299, Note_on_c, 10, 52, 0
11, 216300, Note_on_c, 10, 57, 90
11, 216329, Note_on_c, 10, 57, 0
11, 216330, Note_on_c, 10, 52, 90
11, 216359, Note_on_c, 10, 52, 0
11, 216360, Note_on_c, 10, 56, 90
11, 216389, Note_on_c, 10, 56, 0
11, 216390, Note_on_c, 10, 57, 90
11, 216419, Note_on_c, 10, 57, 0
11, 216420, Note_on_c, 10, 56, 90
11, 216449, Note_on_c, 10, 56, 0
11, 216450, Note_on_c, 10, 54, 90
11, 216479, Note_on_c, 10, 54, 0
11, 216480, Note_on_c, 10, 52, 90
11, 216509, Note_on_c, 10, 52, 0
11, 216510, Note_on_c, 10, 50, 90
11, 216539, Note_on_c, 10, 50, 0
11, 216540, Note_on_c, 10, 49, 90
11, 216599, Note_on_c, 10, 49, 0
11, 216600, Note_on_c, 10, 45, 90
11, 216659, Note_on_c, 10, 45, 0
11, 216660, Note_on_c, 10, 52, 90
11, 216719, Note_on_c, 10, 52, 0
11, 216720, Note_on_c, 10, 57, 90
11, 216779, Note_on_c, 10, 57, 0
11, 216780, Note_on_c, 10, 61, 90
11, 216839, Note_on_c, 10, 61, 0
11, 216840, Note_on_c, 10, 57, 90
11, 216899, Note_on_c, 10, 57, 0
11, 216900, Note_on_c, 10, 56, 90
11, 216959, Note_on_c, 10, 56, 0
11, 216960, Note_on_c, 10, 52, 90
11, 217019, Note_on_c, 10, 52, 0
11, 217020, Note_on_c, 10, 57, 90
11, 217079, Note_on_c, 10, 57, 0
11, 217080, Note_on_c, 10, 49, 90
11, 217139, Note_on_c, 10, 49, 0
11, 217140, Note_on_c, 10, 50, 90
11, 217169, Note_on_c, 10, 50, 0
11, 217170, Note_on_c, 10, 47, 90
11, 217199, Note_on_c, 10, 47, 0
11, 217200, Note_on_c, 10, 49, 90
11, 217229, Note_on_c, 10, 49, 0
11, 217230, Note_on_c, 10, 45, 90
11, 217259, Note_on_c, 10, 45, 0
11, 217260, Note_on_c, 10, 50, 90
11, 217319, Note_on_c, 10, 50, 0
11, 217320, Note_on_c, 10, 62, 90
11, 217379, Note_on_c, 10, 62, 0
11, 217380, Note_on_c, 10, 50, 90
11, 217439, Note_on_c, 10, 50, 0
11, 217440, Note_on_c, 10, 52, 90
11, 217469, Note_on_c, 10, 52, 0
11, 217470, Note_on_c, 10, 56, 90
11, 217499, Note_on_c, 10, 56, 0
11, 217500, Note_on_c, 10, 52, 90
11, 217529, Note_on_c, 10, 52, 0
11, 217530, Note_on_c, 10, 56, 90
11, 217559, Note_on_c, 10, 56, 0
11, 217560, Note_on_c, 10, 52, 90
11, 217589, Note_on_c, 10, 52, 0
11, 217590, Note_on_c, 10, 56, 90
11, 217619, Note_on_c, 10, 56, 0
11, 217620, Note_on_c, 10, 49, 90
11, 217679, Note_on_c, 10, 49, 0
11, 217680, Note_on_c, 10, 61, 90
11, 217739, Note_on_c, 10, 61, 0
11, 217740, Note_on_c, 10, 49, 90
11, 217799, Note_on_c, 10, 49, 0
11, 217800, Note_on_c, 10, 50, 90
11, 217829, Note_on_c, 10, 50, 0
11, 217830, Note_on_c, 10, 54, 90
11, 217859, Note_on_c, 10, 54, 0
11, 217860, Note_on_c, 10, 50, 90
11, 217889, Note_on_c, 10, 50, 0
11, 217890, Note_on_c, 10, 54, 90
11, 217919, Note_on_c, 10, 54, 0
11, 217920, Note_on_c, 10, 50, 90
11, 217949, Note_on_c, 10, 50, 0
11, 217950, Note_on_c, 10, 54, 90
11, 217979, Note_on_c, 10, 54, 0
11, 217980, Note_on_c, 10, 47, 90
11, 218039, Note_on_c, 10, 47, 0
11, 218040, Note_on_c, 10, 49, 90
11, 218099, Note_on_c, 10, 49, 0
11, 218100, Note_on_c, 10, 50, 90
11, 218159, Note_on_c, 10, 50, 0
11, 218160, Note_on_c, 10, 52, 90
11, 218219, Note_on_c, 10, 52, 0
11, 218220, Note_on_c, 10, 56, 90
11, 218279, Note_on_c, 10, 56, 0
11, 218280, Note_on_c, 10, 52, 90
11, 218339, Note_on_c, 10, 52, 0
11, 218340, Note_on_c, 10, 57, 90
11, 218399, Note_on_c, 10, 57, 0
11, 218400, Note_on_c, 10, 50, 90
11, 218429, Note_on_c, 10, 50, 0
11, 218430, Note_on_c, 10, 49, 90
11, 218459, Note_on_c, 10, 49, 0
11, 218460, Note_on_c, 10, 50, 90
11, 218579, Note_on_c, 10, 50, 0
11, 218580, Note_on_c, 10, 49, 90
11, 218639, Note_on_c, 10, 49, 0
11, 218640, Note_on_c, 10, 47, 90
11, 218699, Note_on_c, 10, 47, 0
11, 218700, Note_on_c, 10, 49, 90
11, 218759, Note_on_c, 10, 49, 0
11, 218760, Note_on_c, 10, 50, 90
11, 218819, Note_on_c, 10, 50, 0
11, 218820, Note_on_c, 10, 52, 90
11, 218879, Note_on_c, 10, 52, 0
11, 218880, Note_on_c, 10, 45, 90
11, 218939, Note_on_c, 10, 45, 0
11, 218940, Note_on_c, 10, 47, 90
11, 218999, Note_on_c, 10, 47, 0
11, 219000, Note_on_c, 10, 49, 90
11, 219059, Note_on_c, 10, 49, 0
11, 219060, Note_on_c, 10, 42, 90
11, 219119, Note_on_c, 10, 42, 0
11, 219120, Note_on_c, 10, 38, 90
11, 219179, Note_on_c, 10, 38, 0
11, 219180, Note_on_c, 10, 40, 90
11, 219239, Note_on_c, 10, 40, 0
11, 219240, Note_on_c, 10, 45, 90
11, 219299, Note_on_c, 10, 45, 0
11, 219300, Note_on_c, 10, 57, 90
11, 219359, Note_on_c, 10, 57, 0
11, 219360, Note_on_c, 10, 56, 90
11, 219419, Note_on_c, 10, 56, 0
11, 219420, Note_on_c, 10, 54, 90
11, 219449, Note_on_c, 10, 54, 0
11, 219450, Note_on_c, 10, 57, 90
11, 219479, Note_on_c, 10, 57, 0
11, 219480, Note_on_c, 10, 54, 90
11, 219509, Note_on_c, 10, 54, 0
11, 219510, Note_on_c, 10, 57, 90
11, 219539, Note_on_c, 10, 57, 0
11, 219540, Note_on_c, 10, 54, 90
11, 219569, Note_on_c, 10, 54, 0
11, 219570, Note_on_c, 10, 57, 90
11, 219599, Note_on_c, 10, 57, 0
11, 219600, Note_on_c, 10, 51, 90
11, 219629, Note_on_c, 10, 51, 0
11, 219630, Note_on_c, 10, 54, 90
11, 219659, Note_on_c, 10, 54, 0
11, 219660, Note_on_c, 10, 51, 90
11, 219689, Note_on_c, 10, 51, 0
11, 219690, Note_on_c, 10, 54, 90
11, 219719, Note_on_c, 10, 54, 0
11, 219720, Note_on_c, 10, 51, 90
11, 219749, Note_on_c, 10, 51, 0
11, 219750, Note_on_c, 10, 54, 90
11, 219779, Note_on_c, 10, 54, 0
11, 219780, Note_on_c, 10, 47, 90
11, 219839, Note_on_c, 10, 47, 0
11, 219840, Note_on_c, 10, 42, 90
11, 219899, Note_on_c, 10, 42, 0
11, 219900, Note_on_c, 10, 45, 90
11, 219959, Note_on_c, 10, 45, 0
11, 219960, Note_on_c, 10, 44, 90
11, 220019, Note_on_c, 10, 44, 0
11, 220020, Note_on_c, 10, 40, 90
11, 220079, Note_on_c, 10, 40, 0
11, 220080, Note_on_c, 10, 44, 90
11, 220139, Note_on_c, 10, 44, 0
11, 220140, Note_on_c, 10, 45, 90
11, 220259, Note_on_c, 10, 45, 0
11, 220320, Note_on_c, 10, 47, 90
11, 220439, Note_on_c, 10, 47, 0
11, 220500, Note_on_c, 10, 49, 90
11, 220559, Note_on_c, 10, 49, 0
11, 220560, Note_on_c, 10, 50, 90
11, 220619, Note_on_c, 10, 50, 0
11, 220620, Note_on_c, 10, 52, 90
11, 220679, Note_on_c, 10, 52, 0
11, 220680, Note_on_c, 10, 45, 90
11, 220799, Note_on_c, 10, 45, 0
11, 220980, Note_on_c, 10, 52, 90
11, 221039, Note_on_c, 10, 52, 0
11, 221040, Note_on_c, 10, 57, 90
11, 221099, Note_on_c, 10, 57, 0
11, 221100, Note_on_c, 10, 61, 90
11, 221159, Note_on_c, 10, 61, 0
11, 221160, Note_on_c, 10, 57, 90
11, 221219, Note_on_c, 10, 57, 0
11, 221220, Note_on_c, 10, 56, 90
11, 221279, Note_on_c, 10, 56, 0
11, 221280, Note_on_c, 10, 52, 90
11, 221339, Note_on_c, 10, 52, 0
11, 221340, Note_on_c, 10, 57, 90
11, 221399, Note_on_c, 10, 57, 0
11, 221400, Note_on_c, 10, 49, 90
11, 221459, Note_on_c, 10, 49, 0
11, 221460, Note_on_c, 10, 50, 90
11, 221489, Note_on_c, 10, 50, 0
11, 221490, Note_on_c, 10, 47, 90
11, 221519, Note_on_c, 10, 47, 0
11, 221520, Note_on_c, 10, 49, 90
11, 221549, Note_on_c, 10, 49, 0
11, 221550, Note_on_c, 10, 45, 90
11, 221579, Note_on_c, 10, 45, 0
11, 221580, Note_on_c, 10, 50, 90
11, 221639, Note_on_c, 10, 50, 0
11, 221640, Note_on_c, 10, 62, 90
11, 221699, Note_on_c, 10, 62, 0
11, 221700, Note_on_c, 10, 50, 90
11, 221759, Note_on_c, 10, 50, 0
11, 221760, Note_on_c, 10, 52, 90
11, 221789, Note_on_c, 10, 52, 0
11, 221790, Note_on_c, 10, 56, 90
11, 221819, Note_on_c, 10, 56, 0
11, 221820, Note_on_c, 10, 52, 90
11, 221849, Note_on_c, 10, 52, 0
11, 221850, Note_on_c, 10, 56, 90
11, 221879, Note_on_c, 10, 56, 0
11, 221880, Note_on_c, 10, 52, 90
11, 221909, Note_on_c, 10, 52, 0
11, 221910, Note_on_c, 10, 56, 90
11, 221939, Note_on_c, 10, 56, 0
11, 221940, Note_on_c, 10, 49, 90
11, 221999, Note_on_c, 10, 49, 0
11, 222000, Note_on_c, 10, 61, 90
11, 222059, Note_on_c, 10, 61, 0
11, 222060, Note_on_c, 10, 49, 90
11, 222119, Note_on_c, 10, 49, 0
11, 222120, Note_on_c, 10, 50, 90
11, 222149, Note_on_c, 10, 50, 0
11, 222150, Note_on_c, 10, 54, 90
11, 222179, Note_on_c, 10, 54, 0
11, 222180, Note_on_c, 10, 50, 90
11, 222209, Note_on_c, 10, 50, 0
11, 222210, Note_on_c, 10, 54, 90
11, 222239, Note_on_c, 10, 54, 0
11, 222240, Note_on_c, 10, 50, 90
11, 222269, Note_on_c, 10, 50, 0
11, 222270, Note_on_c, 10, 54, 90
11, 222299, Note_on_c, 10, 54, 0
11, 222300, Note_on_c, 10, 47, 90
11, 222359, Note_on_c, 10, 47, 0
11, 222360, Note_on_c, 10, 49, 90
11, 222419, Note_on_c, 10, 49, 0
11, 222420, Note_on_c, 10, 50, 90
11, 222479, Note_on_c, 10, 50, 0
11, 222480, Note_on_c, 10, 52, 90
11, 222539, Note_on_c, 10, 52, 0
11, 222540, Note_on_c, 10, 54, 90
11, 222599, Note_on_c, 10, 54, 0
11, 222600, Note_on_c, 10, 56, 90
11, 222659, Note_on_c, 10, 56, 0
11, 222660, Note_on_c, 10, 57, 90
11, 222719, Note_on_c, 10, 57, 0
11, 222720, Note_on_c, 10, 50, 90
11, 222779, Note_on_c, 10, 50, 0
11, 222780, Note_on_c, 10, 52, 90
11, 222839, Note_on_c, 10, 52, 0
11, 222840, Note_on_c, 10, 54, 90
11, 222899, Note_on_c, 10, 54, 0
11, 222900, Note_on_c, 10, 52, 90
11, 222959, Note_on_c, 10, 52, 0
11, 222960, Note_on_c, 10, 50, 90
11, 223019, Note_on_c, 10, 50, 0
11, 223020, Note_on_c, 10, 49, 90
11, 223079, Note_on_c, 10, 49, 0
11, 223080, Note_on_c, 10, 50, 90
11, 223139, Note_on_c, 10, 50, 0
11, 223140, Note_on_c, 10, 52, 90
11, 223199, Note_on_c, 10, 52, 0
11, 223200, Note_on_c, 10, 45, 90
11, 223259, Note_on_c, 10, 45, 0
11, 223260, Note_on_c, 10, 47, 90
11, 223319, Note_on_c, 10, 47, 0
11, 223320, Note_on_c, 10, 49, 90
11, 223379, Note_on_c, 10, 49, 0
11, 223380, Note_on_c, 10, 42, 90
11, 223439, Note_on_c, 10, 42, 0
11, 223440, Note_on_c, 10, 38, 90
11, 223499, Note_on_c, 10, 38, 0
11, 223500, Note_on_c, 10, 40, 90
11, 223559, Note_on_c, 10, 40, 0
11, 223560, Note_on_c, 10, 45, 90
11, 223919, Note_on_c, 10, 45, 0
11, 223920, Note_on_c, 10, 57, 90
11, 224039, Note_on_c, 10, 57, 0
11, 224040, Note_on_c, 10, 56, 90
11, 224159, Note_on_c, 10, 56, 0
11, 224160, Note_on_c, 10, 56, 90
11, 224279, Note_on_c, 10, 56, 0
11, 224280, Note_on_c, 10, 59, 90
11, 224399, Note_on_c, 10, 59, 0
11, 224400, Note_on_c, 10, 59, 90
11, 224519, Note_on_c, 10, 59, 0
11, 224520, Note_on_c, 10, 53, 90
11, 224639, Note_on_c, 10, 53, 0
11, 224640, Note_on_c, 10, 53, 90
11, 224759, Note_on_c, 10, 53, 0
11, 224760, Note_on_c, 10, 49, 90
11, 224879, Note_on_c, 10, 49, 0
11, 224880, Note_on_c, 10, 49, 90
11, 224999, Note_on_c, 10, 49, 0
11, 225000, Note_on_c, 10, 54, 90
11, 225119, Note_on_c, 10, 54, 0
11, 225120, Note_on_c, 10, 52, 90
11, 225239, Note_on_c, 10, 52, 0
11, 225240, Note_on_c, 10, 51, 90
11, 225359, Note_on_c, 10, 51, 0
11, 225360, Note_on_c, 10, 54, 90
11, 225479, Note_on_c, 10, 54, 0
11, 225480, Note_on_c, 10, 47, 90
11, 225599, Note_on_c, 10, 47, 0
11, 225600, Note_on_c, 10, 49, 90
11, 225719, Note_on_c, 10, 49, 0
11, 225720, Note_on_c, 10, 51, 90
11, 225839, Note_on_c, 10, 51, 0
11, 225840, Note_on_c, 10, 52, 90
11, 225959, Note_on_c, 10, 52, 0
11, 225960, Note_on_c, 10, 54, 90
11, 226079, Note_on_c, 10, 54, 0
11, 226080, Note_on_c, 10, 52, 90
11, 226199, Note_on_c, 10, 52, 0
11, 226200, Note_on_c, 10, 51, 90
11, 226319, Note_on_c, 10, 51, 0
11, 226320, Note_on_c, 10, 49, 90
11, 226439, Note_on_c, 10, 49, 0
11, 226440, Note_on_c, 10, 46, 90
11, 226559, Note_on_c, 10, 46, 0
11, 226560, Note_on_c, 10, 51, 90
11, 226679, Note_on_c, 10, 51, 0
11, 226680, Note_on_c, 10, 47, 90
11, 226799, Note_on_c, 10, 47, 0
11, 226800, Note_on_c, 10, 44, 90
11, 226919, Note_on_c, 10, 44, 0
11, 226920, Note_on_c, 10, 49, 90
11, 227039, Note_on_c, 10, 49, 0
11, 227040, Note_on_c, 10, 51, 90
11, 227159, Note_on_c, 10, 51, 0
11, 227160, Note_on_c, 10, 52, 90
11, 227279, Note_on_c, 10, 52, 0
11, 227280, Note_on_c, 10, 54, 90
11, 227339, Note_on_c, 10, 54, 0
11, 227340, Note_on_c, 10, 56, 90
11, 227399, Note_on_c, 10, 56, 0
11, 227400, Note_on_c, 10, 57, 90
11, 227519, Note_on_c, 10, 57, 0
11, 227520, Note_on_c, 10, 56, 90
11, 227639, Note_on_c, 10, 56, 0
11, 227640, Note_on_c, 10, 54, 90
11, 227759, Note_on_c, 10, 54, 0
11, 227760, Note_on_c, 10, 56, 90
11, 227879, Note_on_c, 10, 56, 0
11, 227880, Note_on_c, 10, 49, 90
11, 227999, Note_on_c, 10, 49, 0
11, 228000, Note_on_c, 10, 51, 90
11, 228119, Note_on_c, 10, 51, 0
11, 228120, Note_on_c, 10, 52, 90
11, 228239, Note_on_c, 10, 52, 0
11, 228240, Note_on_c, 10, 49, 90
11, 228359, Note_on_c, 10, 49, 0
11, 228360, Note_on_c, 10, 54, 90
11, 228479, Note_on_c, 10, 54, 0
11, 228480, Note_on_c, 10, 50, 90
11, 228599, Note_on_c, 10, 50, 0
11, 228600, Note_on_c, 10, 47, 90
11, 228719, Note_on_c, 10, 47, 0
11, 228720, Note_on_c, 10, 49, 90
11, 228839, Note_on_c, 10, 49, 0
11, 228840, Note_on_c, 10, 42, 90
11, 229079, Note_on_c, 10, 42, 0
11, 229080, Note_on_c, 10, 49, 90
11, 229199, Note_on_c, 10, 49, 0
11, 229200, Note_on_c, 10, 49, 90
11, 229319, Note_on_c, 10, 49, 0
11, 229320, Note_on_c, 10, 54, 90
11, 229439, Note_on_c, 10, 54, 0
11, 229440, Note_on_c, 10, 57, 90
11, 229559, Note_on_c, 10, 57, 0
11, 229560, Note_on_c, 10, 57, 90
11, 229619, Note_on_c, 10, 57, 0
11, 229620, Note_on_c, 10, 56, 90
11, 229679, Note_on_c, 10, 56, 0
11, 229680, Note_on_c, 10, 54, 90
11, 229739, Note_on_c, 10, 54, 0
11, 229740, Note_on_c, 10, 52, 90
11, 229799, Note_on_c, 10, 52, 0
11, 229800, Note_on_c, 10, 54, 90
11, 229919, Note_on_c, 10, 54, 0
11, 229920, Note_on_c, 10, 54, 90
11, 230039, Note_on_c, 10, 54, 0
11, 230040, Note_on_c, 10, 57, 90
11, 230159, Note_on_c, 10, 57, 0
11, 230160, Note_on_c, 10, 57, 90
11, 230279, Note_on_c, 10, 57, 0
11, 230280, Note_on_c, 10, 51, 90
11, 230399, Note_on_c, 10, 51, 0
11, 230400, Note_on_c, 10, 51, 90
11, 230519, Note_on_c, 10, 51, 0
11, 230520, Note_on_c, 10, 47, 90
11, 230639, Note_on_c, 10, 47, 0
11, 230640, Note_on_c, 10, 47, 90
11, 230759, Note_on_c, 10, 47, 0
11, 230760, Note_on_c, 10, 52, 90
11, 230879, Note_on_c, 10, 52, 0
11, 230880, Note_on_c, 10, 50, 90
11, 230999, Note_on_c, 10, 50, 0
11, 231000, Note_on_c, 10, 49, 90
11, 231119, Note_on_c, 10, 49, 0
11, 231120, Note_on_c, 10, 52, 90
11, 231239, Note_on_c, 10, 52, 0
11, 231240, Note_on_c, 10, 45, 90
11, 231359, Note_on_c, 10, 45, 0
11, 231360, Note_on_c, 10, 47, 90
11, 231479, Note_on_c, 10, 47, 0
11, 231480, Note_on_c, 10, 49, 90
11, 231599, Note_on_c, 10, 49, 0
11, 231600, Note_on_c, 10, 50, 90
11, 231719, Note_on_c, 10, 50, 0
11, 231720, Note_on_c, 10, 52, 90
11, 231839, Note_on_c, 10, 52, 0
11, 231840, Note_on_c, 10, 50, 90
11, 231959, Note_on_c, 10, 50, 0
11, 231960, Note_on_c, 10, 49, 90
11, 232079, Note_on_c, 10, 49, 0
11, 232080, Note_on_c, 10, 47, 90
11, 232199, Note_on_c, 10, 47, 0
11, 232200, Note_on_c, 10, 46, 90
11, 232319, Note_on_c, 10, 46, 0
11, 232320, Note_on_c, 10, 49, 90
11, 232439, Note_on_c, 10, 49, 0
11, 232440, Note_on_c, 10, 46, 90
11, 232559, Note_on_c, 10, 46, 0
11, 232560, Note_on_c, 10, 42, 90
11, 232679, Note_on_c, 10, 42, 0
11, 232680, Note_on_c, 10, 47, 90
11, 232799, Note_on_c, 10, 47, 0
11, 232800, Note_on_c, 10, 49, 90
11, 232919, Note_on_c, 10, 49, 0
11, 232920, Note_on_c, 10, 50, 90
11, 233039, Note_on_c, 10, 50, 0
11, 233040, Note_on_c, 10, 52, 90
11, 233099, Note_on_c, 10, 52, 0
11, 233100, Note_on_c, 10, 54, 90
11, 233159, Note_on_c, 10, 54, 0
11, 233160, Note_on_c, 10, 55, 90
11, 233279, Note_on_c, 10, 55, 0
11, 233280, Note_on_c, 10, 54, 90
11, 233399, Note_on_c, 10, 54, 0
11, 233400, Note_on_c, 10, 52, 90
11, 233519, Note_on_c, 10, 52, 0
11, 233520, Note_on_c, 10, 54, 90
11, 233639, Note_on_c, 10, 54, 0
11, 233640, Note_on_c, 10, 47, 90
11, 233759, Note_on_c, 10, 47, 0
11, 233760, Note_on_c, 10, 49, 90
11, 233879, Note_on_c, 10, 49, 0
11, 233880, Note_on_c, 10, 50, 90
11, 233999, Note_on_c, 10, 50, 0
11, 234000, Note_on_c, 10, 47, 90
11, 234119, Note_on_c, 10, 47, 0
11, 234120, Note_on_c, 10, 52, 90
11, 234239, Note_on_c, 10, 52, 0
11, 234240, Note_on_c, 10, 48, 90
11, 234359, Note_on_c, 10, 48, 0
11, 234360, Note_on_c, 10, 45, 90
11, 234479, Note_on_c, 10, 45, 0
11, 234480, Note_on_c, 10, 47, 90
11, 234599, Note_on_c, 10, 47, 0
11, 234600, Note_on_c, 10, 40, 90
11, 234839, Note_on_c, 10, 40, 0
11, 234840, Note_on_c, 10, 47, 90
11, 234959, Note_on_c, 10, 47, 0
11, 234960, Note_on_c, 10, 47, 90
11, 235079, Note_on_c, 10, 47, 0
11, 235080, Note_on_c, 10, 52, 90
11, 235199, Note_on_c, 10, 52, 0
11, 235200, Note_on_c, 10, 55, 90
11, 235319, Note_on_c, 10, 55, 0
11, 235320, Note_on_c, 10, 55, 90
11, 235379, Note_on_c, 10, 55, 0
11, 235380, Note_on_c, 10, 54, 90
11, 235439, Note_on_c, 10, 54, 0
11, 235440, Note_on_c, 10, 52, 90
11, 235499, Note_on_c, 10, 52, 0
11, 235500, Note_on_c, 10, 50, 90
11, 235559, Note_on_c, 10, 50, 0
11, 235560, Note_on_c, 10, 49, 90
11, 235679, Note_on_c, 10, 49, 0
11, 235680, Note_on_c, 10, 54, 90
11, 235799, Note_on_c, 10, 54, 0
11, 235800, Note_on_c, 10, 54, 90
11, 235859, Note_on_c, 10, 54, 0
11, 235860, Note_on_c, 10, 52, 90
11, 235919, Note_on_c, 10, 52, 0
11, 235920, Note_on_c, 10, 50, 90
11, 235979, Note_on_c, 10, 50, 0
11, 235980, Note_on_c, 10, 49, 90
11, 236039, Note_on_c, 10, 49, 0
11, 236040, Note_on_c, 10, 47, 90
11, 236159, Note_on_c, 10, 47, 0
11, 236160, Note_on_c, 10, 52, 90
11, 236279, Note_on_c, 10, 52, 0
11, 236280, Note_on_c, 10, 52, 90
11, 236339, Note_on_c, 10, 52, 0
11, 236340, Note_on_c, 10, 50, 90
11, 236399, Note_on_c, 10, 50, 0
11, 236400, Note_on_c, 10, 49, 90
11, 236459, Note_on_c, 10, 49, 0
11, 236460, Note_on_c, 10, 47, 90
11, 236519, Note_on_c, 10, 47, 0
11, 236520, Note_on_c, 10, 46, 90
11, 236639, Note_on_c, 10, 46, 0
11, 236640, Note_on_c, 10, 50, 90
11, 236759, Note_on_c, 10, 50, 0
11, 236760, Note_on_c, 10, 50, 90
11, 236819, Note_on_c, 10, 50, 0
11, 236820, Note_on_c, 10, 49, 90
11, 236879, Note_on_c, 10, 49, 0
11, 236880, Note_on_c, 10, 47, 90
11, 236939, Note_on_c, 10, 47, 0
11, 236940, Note_on_c, 10, 45, 90
11, 236999, Note_on_c, 10, 45, 0
11, 237000, Note_on_c, 10, 44, 90
11, 237119, Note_on_c, 10, 44, 0
11, 237120, Note_on_c, 10, 49, 90
11, 237239, Note_on_c, 10, 49, 0
11, 237240, Note_on_c, 10, 49, 90
11, 237299, Note_on_c, 10, 49, 0
11, 237300, Note_on_c, 10, 47, 90
11, 237359, Note_on_c, 10, 47, 0
11, 237360, Note_on_c, 10, 45, 90
11, 237419, Note_on_c, 10, 45, 0
11, 237420, Note_on_c, 10, 44, 90
11, 237479, Note_on_c, 10, 44, 0
11, 237480, Note_on_c, 10, 42, 90
11, 237599, Note_on_c, 10, 42, 0
11, 237600, Note_on_c, 10, 47, 90
11, 237719, Note_on_c, 10, 47, 0
11, 237720, Note_on_c, 10, 49, 90
11, 237839, Note_on_c, 10, 49, 0
11, 237840, Note_on_c, 10, 50, 90
11, 237959, Note_on_c, 10, 50, 0
11, 237960, Note_on_c, 10, 49, 90
11, 238079, Note_on_c, 10, 49, 0
11, 238080, Note_on_c, 10, 61, 90
11, 238199, Note_on_c, 10, 61, 0
11, 238200, Note_on_c, 10, 61, 90
11, 238259, Note_on_c, 10, 61, 0
11, 238260, Note_on_c, 10, 59, 90
11, 238319, Note_on_c, 10, 59, 0
11, 238320, Note_on_c, 10, 57, 90
11, 238379, Note_on_c, 10, 57, 0
11, 238380, Note_on_c, 10, 56, 90
11, 238439, Note_on_c, 10, 56, 0
11, 238440, Note_on_c, 10, 54, 90
11, 238559, Note_on_c, 10, 54, 0
11, 238560, Note_on_c, 10, 59, 90
11, 238679, Note_on_c, 10, 59, 0
11, 238680, Note_on_c, 10, 59, 90
11, 238739, Note_on_c, 10, 59, 0
11, 238740, Note_on_c, 10, 57, 90
11, 238799, Note_on_c, 10, 57, 0
11, 238800, Note_on_c, 10, 56, 90
11, 238859, Note_on_c, 10, 56, 0
11, 238860, Note_on_c, 10, 54, 90
11, 238919, Note_on_c, 10, 54, 0
11, 238920, Note_on_c, 10, 53, 90
11, 239039, Note_on_c, 10, 53, 0
11, 239040, Note_on_c, 10, 54, 90
11, 239099, Note_on_c, 10, 54, 0
11, 239100, Note_on_c, 10, 56, 90
11, 239159, Note_on_c, 10, 56, 0
11, 239160, Note_on_c, 10, 54, 90
11, 239219, Note_on_c, 10, 54, 0
11, 239220, Note_on_c, 10, 53, 90
11, 239279, Note_on_c, 10, 53, 0
11, 239280, Note_on_c, 10, 51, 90
11, 239339, Note_on_c, 10, 51, 0
11, 239340, Note_on_c, 10, 49, 90
11, 239399, Note_on_c, 10, 49, 0
11, 239400, Note_on_c, 10, 54, 90
11, 239519, Note_on_c, 10, 54, 0
11, 239520, Note_on_c, 10, 47, 90
11, 239639, Note_on_c, 10, 47, 0
11, 239640, Note_on_c, 10, 49, 90
11, 239759, Note_on_c, 10, 49, 0
11, 239760, Note_on_c, 10, 50, 90
11, 239879, Note_on_c, 10, 50, 0
11, 239880, Note_on_c, 10, 49, 90
11, 239999, Note_on_c, 10, 49, 0
11, 240000, Note_on_c, 10, 61, 90
11, 240119, Note_on_c, 10, 61, 0
11, 240120, Note_on_c, 10, 61, 90
11, 240179, Note_on_c, 10, 61, 0
11, 240180, Note_on_c, 10, 59, 90
11, 240239, Note_on_c, 10, 59, 0
11, 240240, Note_on_c, 10, 57, 90
11, 240299, Note_on_c, 10, 57, 0
11, 240300, Note_on_c, 10, 56, 90
11, 240359, Note_on_c, 10, 56, 0
11, 240360, Note_on_c, 10, 54, 90
11, 240479, Note_on_c, 10, 54, 0
11, 240480, Note_on_c, 10, 57, 90
11, 240599, Note_on_c, 10, 57, 0
11, 240600, Note_on_c, 10, 57, 90
11, 240659, Note_on_c, 10, 57, 0
11, 240660, Note_on_c, 10, 56, 90
11, 240719, Note_on_c, 10, 56, 0
11, 240720, Note_on_c, 10, 54, 90
11, 240779, Note_on_c, 10, 54, 0
11, 240780, Note_on_c, 10, 52, 90
11, 240839, Note_on_c, 10, 52, 0
11, 240840, Note_on_c, 10, 50, 90
11, 240959, Note_on_c, 10, 50, 0
11, 240960, Note_on_c, 10, 49, 90
11, 241079, Note_on_c, 10, 49, 0
11, 241080, Note_on_c, 10, 47, 90
11, 241199, Note_on_c, 10, 47, 0
11, 241200, Note_on_c, 10, 49, 90
11, 241319, Note_on_c, 10, 49, 0
11, 241320, Note_on_c, 10, 42, 90
11, 241439, Note_on_c, 10, 42, 0
11, 241440, Note_on_c, 10, 44, 90
11, 241559, Note_on_c, 10, 44, 0
11, 241560, Note_on_c, 10, 46, 90
11, 241679, Note_on_c, 10, 46, 0
11, 241680, Note_on_c, 10, 42, 90
11, 241799, Note_on_c, 10, 42, 0
11, 241800, Note_on_c, 10, 47, 90
11, 241919, Note_on_c, 10, 47, 0
11, 241920, Note_on_c, 10, 43, 90
11, 242039, Note_on_c, 10, 43, 0
11, 242040, Note_on_c, 10, 40, 90
11, 242159, Note_on_c, 10, 40, 0
11, 242160, Note_on_c, 10, 42, 90
11, 242279, Note_on_c, 10, 42, 0
11, 242280, Note_on_c, 10, 47, 90
11, 242519, Note_on_c, 10, 47, 0
11, 242520, Note_on_c, 10, 42, 90
11, 242639, Note_on_c, 10, 42, 0
11, 242640, Note_on_c, 10, 42, 90
11, 242759, Note_on_c, 10, 42, 0
11, 242760, Note_on_c, 10, 47, 90
11, 242879, Note_on_c, 10, 47, 0
11, 242880, Note_on_c, 10, 50, 90
11, 242999, Note_on_c, 10, 50, 0
11, 243000, Note_on_c, 10, 50, 90
11, 243059, Note_on_c, 10, 50, 0
11, 243060, Note_on_c, 10, 49, 90
11, 243119, Note_on_c, 10, 49, 0
11, 243120, Note_on_c, 10, 47, 90
11, 243179, Note_on_c, 10, 47, 0
11, 243180, Note_on_c, 10, 45, 90
11, 243239, Note_on_c, 10, 45, 0
11, 243240, Note_on_c, 10, 44, 90
11, 243359, Note_on_c, 10, 44, 0
11, 243360, Note_on_c, 10, 49, 90
11, 243479, Note_on_c, 10, 49, 0
11, 243480, Note_on_c, 10, 49, 90
11, 243539, Note_on_c, 10, 49, 0
11, 243540, Note_on_c, 10, 47, 90
11, 243599, Note_on_c, 10, 47, 0
11, 243600, Note_on_c, 10, 45, 90
11, 243659, Note_on_c, 10, 45, 0
11, 243660, Note_on_c, 10, 44, 90
11, 243719, Note_on_c, 10, 44, 0
11, 243720, Note_on_c, 10, 42, 90
11, 243839, Note_on_c, 10, 42, 0
11, 243840, Note_on_c, 10, 47, 90
11, 243959, Note_on_c, 10, 47, 0
11, 243960, Note_on_c, 10, 47, 90
11, 244019, Note_on_c, 10, 47, 0
11, 244020, Note_on_c, 10, 45, 90
11, 244079, Note_on_c, 10, 45, 0
11, 244080, Note_on_c, 10, 44, 90
11, 244139, Note_on_c, 10, 44, 0
11, 244140, Note_on_c, 10, 42, 90
11, 244199, Note_on_c, 10, 42, 0
11, 244200, Note_on_c, 10, 41, 90
11, 244319, Note_on_c, 10, 41, 0
11, 244320, Note_on_c, 10, 49, 90
11, 244439, Note_on_c, 10, 49, 0
11, 244440, Note_on_c, 10, 49, 90
11, 244499, Note_on_c, 10, 49, 0
11, 244500, Note_on_c, 10, 47, 90
11, 244559, Note_on_c, 10, 47, 0
11, 244560, Note_on_c, 10, 45, 90
11, 244619, Note_on_c, 10, 45, 0
11, 244620, Note_on_c, 10, 44, 90
11, 244679, Note_on_c, 10, 44, 0
11, 244680, Note_on_c, 10, 42, 90
11, 244799, Note_on_c, 10, 42, 0
11, 244800, Note_on_c, 10, 54, 90
11, 244919, Note_on_c, 10, 54, 0
11, 244920, Note_on_c, 10, 54, 90
11, 244979, Note_on_c, 10, 54, 0
11, 244980, Note_on_c, 10, 52, 90
11, 245039, Note_on_c, 10, 52, 0
11, 245040, Note_on_c, 10, 50, 90
11, 245099, Note_on_c, 10, 50, 0
11, 245100, Note_on_c, 10, 49, 90
11, 245159, Note_on_c, 10, 49, 0
11, 245160, Note_on_c, 10, 47, 90
11, 245279, Note_on_c, 10, 47, 0
11, 245280, Note_on_c, 10, 59, 90
11, 245399, Note_on_c, 10, 59, 0
11, 245400, Note_on_c, 10, 59, 90
11, 245459, Note_on_c, 10, 59, 0
11, 245460, Note_on_c, 10, 57, 90
11, 245519, Note_on_c, 10, 57, 0
11, 245520, Note_on_c, 10, 56, 90
11, 245579, Note_on_c, 10, 56, 0
11, 245580, Note_on_c, 10, 54, 90
11, 245639, Note_on_c, 10, 54, 0
11, 245640, Note_on_c, 10, 53, 90
11, 245759, Note_on_c, 10, 53, 0
11, 245760, Note_on_c, 10, 54, 90
11, 245879, Note_on_c, 10, 54, 0
11, 245880, Note_on_c, 10, 47, 90
11, 246239, Note_on_c, 10, 47, 0
11, 246240, Note_on_c, 10, 45, 90
11, 246299, Note_on_c, 10, 45, 0
11, 246300, Note_on_c, 10, 44, 90
11, 246359, Note_on_c, 10, 44, 0
11, 246360, Note_on_c, 10, 47, 90
11, 246419, Note_on_c, 10, 47, 0
11, 246420, Note_on_c, 10, 45, 90
11, 246479, Note_on_c, 10, 45, 0
11, 246480, Note_on_c, 10, 44, 90
11, 246539, Note_on_c, 10, 44, 0
11, 246540, Note_on_c, 10, 42, 90
11, 246599, Note_on_c, 10, 42, 0
11, 246600, Note_on_c, 10, 49, 90
11, 246839, Note_on_c, 10, 49, 0
11, 246840, Note_on_c, 10, 37, 90
11, 247079, Note_on_c, 10, 37, 0
11, 247080, Note_on_c, 10, 42, 90
11, 247319, Note_on_c, 10, 42, 0
11, 247620, Note_on_c, 10, 52, 90
11, 247679, Note_on_c, 10, 52, 0
11, 247680, Note_on_c, 10, 57, 90
11, 247739, Note_on_c, 10, 57, 0
11, 247740, Note_on_c, 10, 61, 90
11, 247799, Note_on_c, 10, 61, 0
11, 247800, Note_on_c, 10, 57, 90
11, 247859, Note_on_c, 10, 57, 0
11, 247860, Note_on_c, 10, 56, 90
11, 247919, Note_on_c, 10, 56, 0
11, 247920, Note_on_c, 10, 52, 90
11, 247979, Note_on_c, 10, 52, 0
11, 247980, Note_on_c, 10, 57, 90
11, 248039, Note_on_c, 10, 57, 0
11, 248040, Note_on_c, 10, 49, 90
11, 248099, Note_on_c, 10, 49, 0
11, 248100, Note_on_c, 10, 50, 90
11, 248129, Note_on_c, 10, 50, 0
11, 248130, Note_on_c, 10, 47, 90
11, 248159, Note_on_c, 10, 47, 0
11, 248160, Note_on_c, 10, 49, 90
11, 248189, Note_on_c, 10, 49, 0
11, 248190, Note_on_c, 10, 45, 90
11, 248219, Note_on_c, 10, 45, 0
11, 248220, Note_on_c, 10, 50, 90
11, 248279, Note_on_c, 10, 50, 0
11, 248280, Note_on_c, 10, 62, 90
11, 248339, Note_on_c, 10, 62, 0
11, 248340, Note_on_c, 10, 50, 90
11, 248399, Note_on_c, 10, 50, 0
11, 248400, Note_on_c, 10, 52, 90
11, 248429, Note_on_c, 10, 52, 0
11, 248430, Note_on_c, 10, 56, 90
11, 248459, Note_on_c, 10, 56, 0
11, 248460, Note_on_c, 10, 52, 90
11, 248489, Note_on_c, 10, 52, 0
11, 248490, Note_on_c, 10, 56, 90
11, 248519, Note_on_c, 10, 56, 0
11, 248520, Note_on_c, 10, 52, 90
11, 248549, Note_on_c, 10, 52, 0
11, 248550, Note_on_c, 10, 56, 90
11, 248579, Note_on_c, 10, 56, 0
11, 248580, Note_on_c, 10, 49, 90
11, 248639, Note_on_c, 10, 49, 0
11, 248640, Note_on_c, 10, 61, 90
11, 248699, Note_on_c, 10, 61, 0
11, 248700, Note_on_c, 10, 49, 90
11, 248759, Note_on_c, 10, 49, 0
11, 248760, Note_on_c, 10, 50, 90
11, 248789, Note_on_c, 10, 50, 0
11, 248790, Note_on_c, 10, 54, 90
11, 248819, Note_on_c, 10, 54, 0
11, 248820, Note_on_c, 10, 50, 90
11, 248849, Note_on_c, 10, 50, 0
11, 248850, Note_on_c, 10, 54, 90
11, 248879, Note_on_c, 10, 54, 0
11, 248880, Note_on_c, 10, 50, 90
11, 248909, Note_on_c, 10, 50, 0
11, 248910, Note_on_c, 10, 54, 90
11, 248939, Note_on_c, 10, 54, 0
11, 248940, Note_on_c, 10, 47, 90
11, 248999, Note_on_c, 10, 47, 0
11, 249000, Note_on_c, 10, 49, 90
11, 249059, Note_on_c, 10, 49, 0
11, 249060, Note_on_c, 10, 50, 90
11, 249119, Note_on_c, 10, 50, 0
11, 249120, Note_on_c, 10, 52, 90
11, 249179, Note_on_c, 10, 52, 0
11, 249180, Note_on_c, 10, 54, 90
11, 249239, Note_on_c, 10, 54, 0
11, 249240, Note_on_c, 10, 56, 90
11, 249299, Note_on_c, 10, 56, 0
11, 249300, Note_on_c, 10, 57, 90
11, 249359, Note_on_c, 10, 57, 0
11, 249360, Note_on_c, 10, 50, 90
11, 249419, Note_on_c, 10, 50, 0
11, 249420, Note_on_c, 10, 52, 90
11, 249479, Note_on_c, 10, 52, 0
11, 249480, Note_on_c, 10, 54, 90
11, 249539, Note_on_c, 10, 54, 0
11, 249540, Note_on_c, 10, 52, 90
11, 249599, Note_on_c, 10, 52, 0
11, 249600, Note_on_c, 10, 50, 90
11, 249659, Note_on_c, 10, 50, 0
11, 249660, Note_on_c, 10, 49, 90
11, 249719, Note_on_c, 10, 49, 0
11, 249720, Note_on_c, 10, 50, 90
11, 249779, Note_on_c, 10, 50, 0
11, 249780, Note_on_c, 10, 52, 90
11, 249839, Note_on_c, 10, 52, 0
11, 249840, Note_on_c, 10, 45, 90
11, 249899, Note_on_c, 10, 45, 0
11, 249900, Note_on_c, 10, 47, 90
11, 249959, Note_on_c, 10, 47, 0
11, 249960, Note_on_c, 10, 49, 90
11, 250019, Note_on_c, 10, 49, 0
11, 250020, Note_on_c, 10, 42, 90
11, 250079, Note_on_c, 10, 42, 0
11, 250080, Note_on_c, 10, 38, 90
11, 250139, Note_on_c, 10, 38, 0
11, 250140, Note_on_c, 10, 40, 90
11, 250199, Note_on_c, 10, 40, 0
11, 250200, Note_on_c, 10, 45, 90
11, 250319, Note_on_c, 10, 45, 0
11, 250500, Note_on_c, 10, 52, 90
11, 250560, Note_on_c, 10, 52, 0
11, 250560, Note_on_c, 10, 59, 90
11, 250620, Note_on_c, 10, 59, 0
11, 250620, Note_on_c, 10, 61, 90
11, 250680, Note_on_c, 10, 61, 0
11, 250680, Note_on_c, 10, 57, 90
11, 250740, Note_on_c, 10, 57, 0
11, 250740, Note_on_c, 10, 56, 90
11, 250800, Note_on_c, 10, 56, 0
11, 250800, Note_on_c, 10, 52, 90
11, 250860, Note_on_c, 10, 52, 0
11, 250860, Note_on_c, 10, 57, 90
11, 250920, Note_on_c, 10, 57, 0
11, 250920, Note_on_c, 10, 49, 90
11, 250979, Note_on_c, 10, 49, 0
11, 250980, Note_on_c, 10, 50, 90
11, 251009, Note_on_c, 10, 50, 0
11, 251010, Note_on_c, 10, 47, 90
11, 251039, Note_on_c, 10, 47, 0
11, 251040, Note_on_c, 10, 49, 90
11, 251069, Note_on_c, 10, 49, 0
11, 251070, Note_on_c, 10, 45, 90
11, 251099, Note_on_c, 10, 45, 0
11, 251100, Note_on_c, 10, 50, 90
11, 251159, Note_on_c, 10, 50, 0
11, 251160, Note_on_c, 10, 62, 90
11, 251219, Note_on_c, 10, 62, 0
11, 251220, Note_on_c, 10, 50, 90
11, 251279, Note_on_c, 10, 50, 0
11, 251280, Note_on_c, 10, 52, 90
11, 251309, Note_on_c, 10, 52, 0
11, 251310, Note_on_c, 10, 56, 90
11, 251339, Note_on_c, 10, 56, 0
11, 251340, Note_on_c, 10, 52, 90
11, 251369, Note_on_c, 10, 52, 0
11, 251370, Note_on_c, 10, 56, 90
11, 251399, Note_on_c, 10, 56, 0
11, 251400, Note_on_c, 10, 52, 90
11, 251429, Note_on_c, 10, 52, 0
11, 251430, Note_on_c, 10, 56, 90
11, 251459, Note_on_c, 10, 56, 0
11, 251460, Note_on_c, 10, 49, 90
11, 251519, Note_on_c, 10, 49, 0
11, 251520, Note_on_c, 10, 61, 90
11, 251579, Note_on_c, 10, 61, 0
11, 251580, Note_on_c, 10, 49, 90
11, 251639, Note_on_c, 10, 49, 0
11, 251640, Note_on_c, 10, 50, 90
11, 251669, Note_on_c, 10, 50, 0
11, 251670, Note_on_c, 10, 54, 90
11, 251699, Note_on_c, 10, 54, 0
11, 251700, Note_on_c, 10, 50, 90
11, 251729, Note_on_c, 10, 50, 0
11, 251730, Note_on_c, 10, 54, 90
11, 251759, Note_on_c, 10, 54, 0
11, 251760, Note_on_c, 10, 50, 90
11, 251789, Note_on_c, 10, 50, 0
11, 251790, Note_on_c, 10, 54, 90
11, 251819, Note_on_c, 10, 54, 0
11, 251820, Note_on_c, 10, 47, 90
11, 251879, Note_on_c, 10, 47, 0
11, 251880, Note_on_c, 10, 49, 90
11, 251939, Note_on_c, 10, 49, 0
11, 251940, Note_on_c, 10, 50, 90
11, 251999, Note_on_c, 10, 50, 0
11, 252000, Note_on_c, 10, 52, 90
11, 252059, Note_on_c, 10, 52, 0
11, 252060, Note_on_c, 10, 54, 90
11, 252119, Note_on_c, 10, 54, 0
11, 252120, Note_on_c, 10, 56, 90
11, 252179, Note_on_c, 10, 56, 0
11, 252180, Note_on_c, 10, 57, 90
11, 252239, Note_on_c, 10, 57, 0
11, 252240, Note_on_c, 10, 50, 90
11, 252299, Note_on_c, 10, 50, 0
11, 252300, Note_on_c, 10, 52, 90
11, 252359, Note_on_c, 10, 52, 0
11, 252360, Note_on_c, 10, 45, 90
11, 252419, Note_on_c, 10, 45, 0
11, 252420, Note_on_c, 10, 57, 90
11, 252479, Note_on_c, 10, 57, 0
11, 252480, Note_on_c, 10, 52, 90
11, 252539, Note_on_c, 10, 52, 0
11, 252540, Note_on_c, 10, 49, 90
11, 252599, Note_on_c, 10, 49, 0
11, 252600, Note_on_c, 10, 45, 90
11, 252659, Note_on_c, 10, 45, 0
11, 252660, Note_on_c, 10, 52, 90
11, 252719, Note_on_c, 10, 52, 0
11, 252720, Note_on_c, 10, 57, 90
11, 252779, Note_on_c, 10, 57, 0
11, 252780, Note_on_c, 10, 61, 90
11, 252839, Note_on_c, 10, 61, 0
11, 252840, Note_on_c, 10, 57, 90
11, 252899, Note_on_c, 10, 57, 0
11, 252900, Note_on_c, 10, 56, 90
11, 252959, Note_on_c, 10, 56, 0
11, 252960, Note_on_c, 10, 52, 90
11, 253019, Note_on_c, 10, 52, 0
11, 253020, Note_on_c, 10, 57, 90
11, 253079, Note_on_c, 10, 57, 0
11, 253080, Note_on_c, 10, 49, 90
11, 253139, Note_on_c, 10, 49, 0
11, 253140, Note_on_c, 10, 50, 90
11, 253169, Note_on_c, 10, 50, 0
11, 253170, Note_on_c, 10, 47, 90
11, 253199, Note_on_c, 10, 47, 0
11, 253200, Note_on_c, 10, 49, 90
11, 253229, Note_on_c, 10, 49, 0
11, 253230, Note_on_c, 10, 45, 90
11, 253259, Note_on_c, 10, 45, 0
11, 253260, Note_on_c, 10, 50, 90
11, 253319, Note_on_c, 10, 50, 0
11, 253320, Note_on_c, 10, 62, 90
11, 253379, Note_on_c, 10, 62, 0
11, 253380, Note_on_c, 10, 50, 90
11, 253439, Note_on_c, 10, 50, 0
11, 253440, Note_on_c, 10, 52, 90
11, 253469, Note_on_c, 10, 52, 0
11, 253470, Note_on_c, 10, 56, 90
11, 253499, Note_on_c, 10, 56, 0
11, 253500, Note_on_c, 10, 52, 90
11, 253529, Note_on_c, 10, 52, 0
11, 253530, Note_on_c, 10, 56, 90
11, 253559, Note_on_c, 10, 56, 0
11, 253560, Note_on_c, 10, 52, 90
11, 253589, Note_on_c, 10, 52, 0
11, 253590, Note_on_c, 10, 56, 90
11, 253619, Note_on_c, 10, 56, 0
11, 253620, Note_on_c, 10, 49, 90
11, 253679, Note_on_c, 10, 49, 0
11, 253680, Note_on_c, 10, 61, 90
11, 253739, Note_on_c, 10, 61, 0
11, 253740, Note_on_c, 10, 49, 90
11, 253799, Note_on_c, 10, 49, 0
11, 253800, Note_on_c, 10, 50, 90
11, 253829, Note_on_c, 10, 50, 0
11, 253830, Note_on_c, 10, 54, 90
11, 253859, Note_on_c, 10, 54, 0
11, 253860, Note_on_c, 10, 50, 90
11, 253889, Note_on_c, 10, 50, 0
11, 253890, Note_on_c, 10, 54, 90
11, 253919, Note_on_c, 10, 54, 0
11, 253920, Note_on_c, 10, 50, 90
11, 253949, Note_on_c, 10, 50, 0
11, 253950, Note_on_c, 10, 54, 90
11, 253979, Note_on_c, 10, 54, 0
11, 253980, Note_on_c, 10, 47, 90
11, 254039, Note_on_c, 10, 47, 0
11, 254040, Note_on_c, 10, 59, 90
11, 254099, Note_on_c, 10, 59, 0
11, 254160, Note_on_c, 10, 52, 90
11, 254219, Note_on_c, 10, 52, 0
11, 254220, Note_on_c, 10, 56, 90
11, 254279, Note_on_c, 10, 56, 0
11, 254280, Note_on_c, 10, 52, 90
11, 254339, Note_on_c, 10, 52, 0
11, 254340, Note_on_c, 10, 57, 90
11, 254399, Note_on_c, 10, 57, 0
11, 254400, Note_on_c, 10, 49, 90
11, 254459, Note_on_c, 10, 49, 0
11, 254460, Note_on_c, 10, 52, 90
11, 254519, Note_on_c, 10, 52, 0
11, 254520, Note_on_c, 10, 45, 90
11, 254579, Note_on_c, 10, 45, 0
11, 254580, Note_on_c, 10, 49, 90
11, 254639, Note_on_c, 10, 49, 0
11, 254640, Note_on_c, 10, 45, 90
11, 254699, Note_on_c, 10, 45, 0
11, 254700, Note_on_c, 10, 52, 90
11, 254759, Note_on_c, 10, 52, 0
11, 254760, Note_on_c, 10, 56, 90
11, 254819, Note_on_c, 10, 56, 0
11, 254820, Note_on_c, 10, 54, 90
11, 254879, Note_on_c, 10, 54, 0
11, 254880, Note_on_c, 10, 52, 90
11, 254939, Note_on_c, 10, 52, 0
11, 254940, Note_on_c, 10, 47, 90
11, 254969, Note_on_c, 10, 47, 0
11, 254970, Note_on_c, 10, 49, 90
11, 254999, Note_on_c, 10, 49, 0
11, 255000, Note_on_c, 10, 51, 90
11, 255029, Note_on_c, 10, 51, 0
11, 255030, Note_on_c, 10, 52, 90
11, 255059, Note_on_c, 10, 52, 0
11, 255060, Note_on_c, 10, 54, 90
11, 255119, Note_on_c, 10, 54, 0
11, 255120, Note_on_c, 10, 51, 90
11, 255179, Note_on_c, 10, 51, 0
11, 255180, Note_on_c, 10, 52, 90
11, 255239, Note_on_c, 10, 52, 0
11, 255240, Note_on_c, 10, 47, 90
11, 255299, Note_on_c, 10, 47, 0
11, 255300, Note_on_c, 10, 49, 90
11, 255359, Note_on_c, 10, 49, 0
11, 255360, Note_on_c, 10, 51, 90
11, 255419, Note_on_c, 10, 51, 0
11, 255420, Note_on_c, 10, 52, 90
11, 255479, Note_on_c, 10, 52, 0
11, 255480, Note_on_c, 10, 45, 90
11, 255539, Note_on_c, 10, 45, 0
11, 255540, Note_on_c, 10, 47, 90
11, 255599, Note_on_c, 10, 47, 0
11, 255600, Note_on_c, 10, 49, 90
11, 255659, Note_on_c, 10, 49, 0
11, 255660, Note_on_c, 10, 47, 90
11, 255719, Note_on_c, 10, 47, 0
11, 255720, Note_on_c, 10, 45, 90
11, 255779, Note_on_c, 10, 45, 0
11, 255780, Note_on_c, 10, 44, 90
11, 255839, Note_on_c, 10, 44, 0
11, 255840, Note_on_c, 10, 45, 90
11, 255899, Note_on_c, 10, 45, 0
11, 255900, Note_on_c, 10, 47, 90
11, 255959, Note_on_c, 10, 47, 0
11, 255960, Note_on_c, 10, 40, 90
11, 256019, Note_on_c, 10, 40, 0
11, 256020, Note_on_c, 10, 42, 90
11, 256079, Note_on_c, 10, 42, 0
11, 256080, Note_on_c, 10, 44, 90
11, 256139, Note_on_c, 10, 44, 0
11, 256140, Note_on_c, 10, 45, 90
11, 256199, Note_on_c, 10, 45, 0
11, 256200, Note_on_c, 10, 57, 90
11, 256259, Note_on_c, 10, 57, 0
11, 256260, Note_on_c, 10, 56, 90
11, 256319, Note_on_c, 10, 56, 0
11, 256320, Note_on_c, 10, 54, 90
11, 256349, Note_on_c, 10, 54, 0
11, 256350, Note_on_c, 10, 52, 90
11, 256379, Note_on_c, 10, 52, 0
11, 256380, Note_on_c, 10, 51, 90
11, 256409, Note_on_c, 10, 51, 0
11, 256410, Note_on_c, 10, 52, 90
11, 256439, Note_on_c, 10, 52, 0
11, 256440, Note_on_c, 10, 54, 90
11, 256469, Note_on_c, 10, 54, 0
11, 256470, Note_on_c, 10, 51, 90
11, 256499, Note_on_c, 10, 51, 0
11, 256500, Note_on_c, 10, 44, 90
11, 256559, Note_on_c, 10, 44, 0
11, 256560, Note_on_c, 10, 56, 90
11, 256619, Note_on_c, 10, 56, 0
11, 256620, Note_on_c, 10, 54, 90
11, 256679, Note_on_c, 10, 54, 0
11, 256680, Note_on_c, 10, 52, 90
11, 256709, Note_on_c, 10, 52, 0
11, 256710, Note_on_c, 10, 51, 90
11, 256739, Note_on_c, 10, 51, 0
11, 256740, Note_on_c, 10, 49, 90
11, 256769, Note_on_c, 10, 49, 0
11, 256770, Note_on_c, 10, 51, 90
11, 256799, Note_on_c, 10, 51, 0
11, 256800, Note_on_c, 10, 52, 90
11, 256829, Note_on_c, 10, 52, 0
11, 256830, Note_on_c, 10, 49, 90
11, 256859, Note_on_c, 10, 49, 0
11, 256860, Note_on_c, 10, 42, 90
11, 256919, Note_on_c, 10, 42, 0
11, 256920, Note_on_c, 10, 54, 90
11, 256979, Note_on_c, 10, 54, 0
11, 256980, Note_on_c, 10, 52, 90
11, 257039, Note_on_c, 10, 52, 0
11, 257040, Note_on_c, 10, 51, 90
11, 257099, Note_on_c, 10, 51, 0
11, 257100, Note_on_c, 10, 52, 90
11, 257159, Note_on_c, 10, 52, 0
11, 257160, Note_on_c, 10, 54, 90
11, 257219, Note_on_c, 10, 54, 0
11, 257220, Note_on_c, 10, 47, 90
11, 257279, Note_on_c, 10, 47, 0
11, 257280, Note_on_c, 10, 51, 90
11, 257339, Note_on_c, 10, 51, 0
11, 257340, Note_on_c, 10, 54, 90
11, 257399, Note_on_c, 10, 54, 0
11, 257400, Note_on_c, 10, 51, 90
11, 257459, Note_on_c, 10, 51, 0
11, 257460, Note_on_c, 10, 47, 90
11, 257519, Note_on_c, 10, 47, 0
11, 257520, Note_on_c, 10, 45, 90
11, 257579, Note_on_c, 10, 45, 0
11, 257580, Note_on_c, 10, 44, 90
11, 257609, Note_on_c, 10, 44, 0
11, 257610, Note_on_c, 10, 47, 90
11, 257639, Note_on_c, 10, 47, 0
11, 257640, Note_on_c, 10, 44, 90
11, 257669, Note_on_c, 10, 44, 0
11, 257670, Note_on_c, 10, 47, 90
11, 257699, Note_on_c, 10, 47, 0
11, 257700, Note_on_c, 10, 44, 90
11, 257729, Note_on_c, 10, 44, 0
11, 257730, Note_on_c, 10, 47, 90
11, 257759, Note_on_c, 10, 47, 0
11, 257760, Note_on_c, 10, 49, 90
11, 257789, Note_on_c, 10, 49, 0
11, 257790, Note_on_c, 10, 52, 90
11, 257819, Note_on_c, 10, 52, 0
11, 257820, Note_on_c, 10, 49, 90
11, 257849, Note_on_c, 10, 49, 0
11, 257850, Note_on_c, 10, 52, 90
11, 257879, Note_on_c, 10, 52, 0
11, 257880, Note_on_c, 10, 49, 90
11, 257909, Note_on_c, 10, 49, 0
11, 257910, Note_on_c, 10, 52, 90
11, 257939, Note_on_c, 10, 52, 0
11, 257940, Note_on_c, 10, 57, 90
11, 257999, Note_on_c, 10, 57, 0
11, 258000, Note_on_c, 10, 59, 90
11, 258059, Note_on_c, 10, 59, 0
11, 258060, Note_on_c, 10, 47, 90
11, 258119, Note_on_c, 10, 47, 0
11, 258120, Note_on_c, 10, 40, 90
11, 258239, Note_on_c, 10, 40, 0
11, 258420, Note_on_c, 10, 47, 90
11, 258479, Note_on_c, 10, 47, 0
11, 258480, Note_on_c, 10, 52, 90
11, 258539, Note_on_c, 10, 52, 0
11, 258540, Note_on_c, 10, 56, 90
11, 258599, Note_on_c, 10, 56, 0
11, 258600, Note_on_c, 10, 52, 90
11, 258659, Note_on_c, 10, 52, 0
11, 258660, Note_on_c, 10, 51, 90
11, 258719, Note_on_c, 10, 51, 0
11, 258720, Note_on_c, 10, 47, 90
11, 258779, Note_on_c, 10, 47, 0
11, 258780, Note_on_c, 10, 52, 90
11, 258839, Note_on_c, 10, 52, 0
11, 258840, Note_on_c, 10, 56, 90
11, 258899, Note_on_c, 10, 56, 0
11, 258900, Note_on_c, 10, 57, 90
11, 258929, Note_on_c, 10, 57, 0
11, 258930, Note_on_c, 10, 54, 90
11, 258959, Note_on_c, 10, 54, 0
11, 258960, Note_on_c, 10, 56, 90
11, 258989, Note_on_c, 10, 56, 0
11, 258990, Note_on_c, 10, 52, 90
11, 259019, Note_on_c, 10, 52, 0
11, 259020, Note_on_c, 10, 57, 90
11, 259079, Note_on_c, 10, 57, 0
11, 259080, Note_on_c, 10, 45, 90
11, 259139, Note_on_c, 10, 45, 0
11, 259140, Note_on_c, 10, 57, 90
11, 259199, Note_on_c, 10, 57, 0
11, 259200, Note_on_c, 10, 59, 90
11, 259229, Note_on_c, 10, 59, 0
11, 259230, Note_on_c, 10, 63, 90
11, 259259, Note_on_c, 10, 63, 0
11, 259260, Note_on_c, 10, 59, 90
11, 259289, Note_on_c, 10, 59, 0
11, 259290, Note_on_c, 10, 63, 90
11, 259319, Note_on_c, 10, 63, 0
11, 259320, Note_on_c, 10, 59, 90
11, 259349, Note_on_c, 10, 59, 0
11, 259350, Note_on_c, 10, 63, 90
11, 259379, Note_on_c, 10, 63, 0
11, 259380, Note_on_c, 10, 56, 90
11, 259439, Note_on_c, 10, 56, 0
11, 259440, Note_on_c, 10, 44, 90
11, 259499, Note_on_c, 10, 44, 0
11, 259500, Note_on_c, 10, 56, 90
11, 259559, Note_on_c, 10, 56, 0
11, 259560, Note_on_c, 10, 57, 90
11, 259589, Note_on_c, 10, 57, 0
11, 259590, Note_on_c, 10, 61, 90
11, 259619, Note_on_c, 10, 61, 0
11, 259620, Note_on_c, 10, 57, 90
11, 259649, Note_on_c, 10, 57, 0
11, 259650, Note_on_c, 10, 61, 90
11, 259679, Note_on_c, 10, 61, 0
11, 259680, Note_on_c, 10, 57, 90
11, 259709, Note_on_c, 10, 57, 0
11, 259710, Note_on_c, 10, 61, 90
11, 259739, Note_on_c, 10, 61, 0
11, 259740, Note_on_c, 10, 54, 90
11, 259799, Note_on_c, 10, 54, 0
11, 259800, Note_on_c, 10, 56, 90
11, 259859, Note_on_c, 10, 56, 0
11, 259860, Note_on_c, 10, 57, 90
11, 259979, Note_on_c, 10, 57, 0
11, 259980, Note_on_c, 10, 56, 90
11, 260009, Note_on_c, 10, 56, 0
11, 260010, Note_on_c, 10, 54, 90
11, 260039, Note_on_c, 10, 54, 0
11, 260040, Note_on_c, 10, 52, 90
11, 260069, Note_on_c, 10, 52, 0
11, 260070, Note_on_c, 10, 51, 90
11, 260099, Note_on_c, 10, 51, 0
11, 260100, Note_on_c, 10, 52, 90
11, 260159, Note_on_c, 10, 52, 0
11, 260160, Note_on_c, 10, 44, 90
11, 260219, Note_on_c, 10, 44, 0
11, 260220, Note_on_c, 10, 47, 90
11, 260279, Note_on_c, 10, 47, 0
11, 260280, Note_on_c, 10, 40, 90
11, 260339, Note_on_c, 10, 40, 0
11, 260340, Note_on_c, 10, 52, 90
11, 260369, Note_on_c, 10, 52, 0
11, 260370, Note_on_c, 10, 54, 90
11, 260399, Note_on_c, 10, 54, 0
11, 260400, Note_on_c, 10, 56, 90
11, 260429, Note_on_c, 10, 56, 0
11, 260430, Note_on_c, 10, 52, 90
11, 260459, Note_on_c, 10, 52, 0
11, 260460, Note_on_c, 10, 57, 90
11, 260519, Note_on_c, 10, 57, 0
11, 260520, Note_on_c, 10, 45, 90
11, 260579, Note_on_c, 10, 45, 0
11, 260580, Note_on_c, 10, 57, 90
11, 260639, Note_on_c, 10, 57, 0
11, 260640, Note_on_c, 10, 56, 90
11, 260699, Note_on_c, 10, 56, 0
11, 260700, Note_on_c, 10, 57, 90
11, 260729, Note_on_c, 10, 57, 0
11, 260730, Note_on_c, 10, 56, 90
11, 260759, Note_on_c, 10, 56, 0
11, 260760, Note_on_c, 10, 54, 90
11, 260789, Note_on_c, 10, 54, 0
11, 260790, Note_on_c, 10, 52, 90
11, 260819, Note_on_c, 10, 52, 0
11, 260820, Note_on_c, 10, 57, 90
11, 260879, Note_on_c, 10, 57, 0
11, 260880, Note_on_c, 10, 56, 90
11, 260939, Note_on_c, 10, 56, 0
11, 260940, Note_on_c, 10, 54, 90
11, 260999, Note_on_c, 10, 54, 0
11, 261000, Note_on_c, 10, 52, 90
11, 261059, Note_on_c, 10, 52, 0
11, 261060, Note_on_c, 10, 54, 90
11, 261119, Note_on_c, 10, 54, 0
11, 261120, Note_on_c, 10, 56, 90
11, 261179, Note_on_c, 10, 56, 0
11, 261180, Note_on_c, 10, 57, 90
11, 261209, Note_on_c, 10, 57, 0
11, 261210, Note_on_c, 10, 52, 90
11, 261239, Note_on_c, 10, 52, 0
11, 261240, Note_on_c, 10, 57, 90
11, 261269, Note_on_c, 10, 57, 0
11, 261270, Note_on_c, 10, 52, 90
11, 261299, Note_on_c, 10, 52, 0
11, 261300, Note_on_c, 10, 57, 90
11, 261329, Note_on_c, 10, 57, 0
11, 261330, Note_on_c, 10, 52, 90
11, 261359, Note_on_c, 10, 52, 0
11, 261360, Note_on_c, 10, 56, 90
11, 261389, Note_on_c, 10, 56, 0
11, 261390, Note_on_c, 10, 52, 90
11, 261419, Note_on_c, 10, 52, 0
11, 261420, Note_on_c, 10, 56, 90
11, 261449, Note_on_c, 10, 56, 0
11, 261450, Note_on_c, 10, 52, 90
11, 261479, Note_on_c, 10, 52, 0
11, 261480, Note_on_c, 10, 56, 90
11, 261509, Note_on_c, 10, 56, 0
11, 261510, Note_on_c, 10, 52, 90
11, 261539, Note_on_c, 10, 52, 0
11, 261540, Note_on_c, 10, 57, 90
11, 261569, Note_on_c, 10, 57, 0
11, 261570, Note_on_c, 10, 52, 90
11, 261599, Note_on_c, 10, 52, 0
11, 261600, Note_on_c, 10, 57, 90
11, 261629, Note_on_c, 10, 57, 0
11, 261630, Note_on_c, 10, 52, 90
11, 261659, Note_on_c, 10, 52, 0
11, 261660, Note_on_c, 10, 57, 90
11, 261689, Note_on_c, 10, 57, 0
11, 261690, Note_on_c, 10, 52, 90
11, 261719, Note_on_c, 10, 52, 0
11, 261720, Note_on_c, 10, 56, 90
11, 261749, Note_on_c, 10, 56, 0
11, 261750, Note_on_c, 10, 57, 90
11, 261779, Note_on_c, 10, 57, 0
11, 261780, Note_on_c, 10, 56, 90
11, 261809, Note_on_c, 10, 56, 0
11, 261810, Note_on_c, 10, 54, 90
11, 261839, Note_on_c, 10, 54, 0
11, 261840, Note_on_c, 10, 52, 90
11, 261869, Note_on_c, 10, 52, 0
11, 261870, Note_on_c, 10, 50, 90
11, 261899, Note_on_c, 10, 50, 0
11, 261900, Note_on_c, 10, 49, 90
11, 261959, Note_on_c, 10, 49, 0
11, 261960, Note_on_c, 10, 45, 90
11, 262019, Note_on_c, 10, 45, 0
11, 262020, Note_on_c, 10, 52, 90
11, 262079, Note_on_c, 10, 52, 0
11, 262080, Note_on_c, 10, 57, 90
11, 262139, Note_on_c, 10, 57, 0
11, 262140, Note_on_c, 10, 61, 90
11, 262199, Note_on_c, 10, 61, 0
11, 262200, Note_on_c, 10, 57, 90
11, 262259, Note_on_c, 10, 57, 0
11, 262260, Note_on_c, 10, 56, 90
11, 262319, Note_on_c, 10, 56, 0
11, 262320, Note_on_c, 10, 52, 90
11, 262379, Note_on_c, 10, 52, 0
11, 262380, Note_on_c, 10, 57, 90
11, 262439, Note_on_c, 10, 57, 0
11, 262440, Note_on_c, 10, 49, 90
11, 262499, Note_on_c, 10, 49, 0
11, 262500, Note_on_c, 10, 50, 90
11, 262529, Note_on_c, 10, 50, 0
11, 262530, Note_on_c, 10, 47, 90
11, 262559, Note_on_c, 10, 47, 0
11, 262560, Note_on_c, 10, 49, 90
11, 262589, Note_on_c, 10, 49, 0
11, 262590, Note_on_c, 10, 45, 90
11, 262619, Note_on_c, 10, 45, 0
11, 262620, Note_on_c, 10, 50, 90
11, 262679, Note_on_c, 10, 50, 0
11, 262680, Note_on_c, 10, 62, 90
11, 262739, Note_on_c, 10, 62, 0
11, 262740, Note_on_c, 10, 50, 90
11, 262799, Note_on_c, 10, 50, 0
11, 262800, Note_on_c, 10, 52, 90
11, 262829, Note_on_c, 10, 52, 0
11, 262830, Note_on_c, 10, 56, 90
11, 262859, Note_on_c, 10, 56, 0
11, 262860, Note_on_c, 10, 52, 90
11, 262889, Note_on_c, 10, 52, 0
11, 262890, Note_on_c, 10, 56, 90
11, 262919, Note_on_c, 10, 56, 0
11, 262920, Note_on_c, 10, 52, 90
11, 262949, Note_on_c, 10, 52, 0
11, 262950, Note_on_c, 10, 56, 90
11, 262979, Note_on_c, 10, 56, 0
11, 262980, Note_on_c, 10, 49, 90
11, 263039, Note_on_c, 10, 49, 0
11, 263040, Note_on_c, 10, 61, 90
11, 263099, Note_on_c, 10, 61, 0
11, 263100, Note_on_c, 10, 49, 90
11, 263159, Note_on_c, 10, 49, 0
11, 263160, Note_on_c, 10, 50, 90
11, 263189, Note_on_c, 10, 50, 0
11, 263190, Note_on_c, 10, 54, 90
11, 263219, Note_on_c, 10, 54, 0
11, 263220, Note_on_c, 10, 50, 90
11, 263249, Note_on_c, 10, 50, 0
11, 263250, Note_on_c, 10, 54, 90
11, 263279, Note_on_c, 10, 54, 0
11, 263280, Note_on_c, 10, 50, 90
11, 263309, Note_on_c, 10, 50, 0
11, 263310, Note_on_c, 10, 54, 90
11, 263339, Note_on_c, 10, 54, 0
11, 263340, Note_on_c, 10, 47, 90
11, 263399, Note_on_c, 10, 47, 0
11, 263400, Note_on_c, 10, 49, 90
11, 263459, Note_on_c, 10, 49, 0
11, 263460, Note_on_c, 10, 50, 90
11, 263519, Note_on_c, 10, 50, 0
11, 263520, Note_on_c, 10, 52, 90
11, 263579, Note_on_c, 10, 52, 0
11, 263580, Note_on_c, 10, 56, 90
11, 263639, Note_on_c, 10, 56, 0
11, 263640, Note_on_c, 10, 52, 90
11, 263699, Note_on_c, 10, 52, 0
11, 263700, Note_on_c, 10, 57, 90
11, 263759, Note_on_c, 10, 57, 0
11, 263760, Note_on_c, 10, 50, 90
11, 263789, Note_on_c, 10, 50, 0
11, 263790, Note_on_c, 10, 49, 90
11, 263819, Note_on_c, 10, 49, 0
11, 263820, Note_on_c, 10, 50, 90
11, 263939, Note_on_c, 10, 50, 0
11, 263940, Note_on_c, 10, 49, 90
11, 263999, Note_on_c, 10, 49, 0
11, 264000, Note_on_c, 10, 47, 90
11, 264059, Note_on_c, 10, 47, 0
11, 264060, Note_on_c, 10, 49, 90
11, 264119, Note_on_c, 10, 49, 0
11, 264120, Note_on_c, 10, 50, 90
11, 264179, Note_on_c, 10, 50, 0
11, 264180, Note_on_c, 10, 52, 90
11, 264239, Note_on_c, 10, 52, 0
11, 264240, Note_on_c, 10, 45, 90
11, 264299, Note_on_c, 10, 45, 0
11, 264300, Note_on_c, 10, 47, 90
11, 264359, Note_on_c, 10, 47, 0
11, 264360, Note_on_c, 10, 49, 90
11, 264419, Note_on_c, 10, 49, 0
11, 264420, Note_on_c, 10, 42, 90
11, 264479, Note_on_c, 10, 42, 0
11, 264480, Note_on_c, 10, 38, 90
11, 264539, Note_on_c, 10, 38, 0
11, 264540, Note_on_c, 10, 40, 90
11, 264599, Note_on_c, 10, 40, 0
11, 264600, Note_on_c, 10, 45, 90
11, 264659, Note_on_c, 10, 45, 0
11, 264660, Note_on_c, 10, 57, 90
11, 264719, Note_on_c, 10, 57, 0
11, 264720, Note_on_c, 10, 56, 90
11, 264779, Note_on_c, 10, 56, 0
11, 264780, Note_on_c, 10, 54, 90
11, 264809, Note_on_c, 10, 54, 0
11, 264810, Note_on_c, 10, 57, 90
11, 264839, Note_on_c, 10, 57, 0
11, 264840, Note_on_c, 10, 54, 90
11, 264869, Note_on_c, 10, 54, 0
11, 264870, Note_on_c, 10, 57, 90
11, 264899, Note_on_c, 10, 57, 0
11, 264900, Note_on_c, 10, 54, 90
11, 264929, Note_on_c, 10, 54, 0
11, 264930, Note_on_c, 10, 57, 90
11, 264959, Note_on_c, 10, 57, 0
11, 264960, Note_on_c, 10, 51, 90
11, 264989, Note_on_c, 10, 51, 0
11, 264990, Note_on_c, 10, 54, 90
11, 265019, Note_on_c, 10, 54, 0
11, 265020, Note_on_c, 10, 51, 90
11, 265049, Note_on_c, 10, 51, 0
11, 265050, Note_on_c, 10, 54, 90
11, 265079, Note_on_c, 10, 54, 0
11, 265080, Note_on_c, 10, 51, 90
11, 265109, Note_on_c, 10, 51, 0
11, 265110, Note_on_c, 10, 54, 90
11, 265139, Note_on_c, 10, 54, 0
11, 265140, Note_on_c, 10, 47, 90
11, 265199, Note_on_c, 10, 47, 0
11, 265200, Note_on_c, 10, 42, 90
11, 265259, Note_on_c, 10, 42, 0
11, 265260, Note_on_c, 10, 45, 90
11, 265319, Note_on_c, 10, 45, 0
11, 265320, Note_on_c, 10, 44, 90
11, 265379, Note_on_c, 10, 44, 0
11, 265380, Note_on_c, 10, 40, 90
11, 265439, Note_on_c, 10, 40, 0
11, 265440, Note_on_c, 10, 44, 90
11, 265499, Note_on_c, 10, 44, 0
11, 265500, Note_on_c, 10, 45, 90
11, 265619, Note_on_c, 10, 45, 0
11, 265680, Note_on_c, 10, 47, 90
11, 265799, Note_on_c, 10, 47, 0
11, 265860, Note_on_c, 10, 49, 90
11, 265919, Note_on_c, 10, 49, 0
11, 265920, Note_on_c, 10, 50, 90
11, 265979, Note_on_c, 10, 50, 0
11, 265980, Note_on_c, 10, 52, 90
11, 266039, Note_on_c, 10, 52, 0
11, 266040, Note_on_c, 10, 45, 90
11, 266159, Note_on_c, 10, 45, 0
11, 266340, Note_on_c, 10, 52, 90
11, 266399, Note_on_c, 10, 52, 0
11, 266400, Note_on_c, 10, 57, 90
11, 266459, Note_on_c, 10, 57, 0
11, 266460, Note_on_c, 10, 61, 90
11, 266519, Note_on_c, 10, 61, 0
11, 266520, Note_on_c, 10, 57, 90
11, 266579, Note_on_c, 10, 57, 0
11, 266580, Note_on_c, 10, 56, 90
11, 266639, Note_on_c, 10, 56, 0
11, 266640, Note_on_c, 10, 52, 90
11, 266699, Note_on_c, 10, 52, 0
11, 266700, Note_on_c, 10, 57, 90
11, 266759, Note_on_c, 10, 57, 0
11, 266760, Note_on_c, 10, 49, 90
11, 266819, Note_on_c, 10, 49, 0
11, 266820, Note_on_c, 10, 50, 90
11, 266849, Note_on_c, 10, 50, 0
11, 266850, Note_on_c, 10, 47, 90
11, 266879, Note_on_c, 10, 47, 0
11, 266880, Note_on_c, 10, 49, 90
11, 266909, Note_on_c, 10, 49, 0
11, 266910, Note_on_c, 10, 45, 90
11, 266939, Note_on_c, 10, 45, 0
11, 266940, Note_on_c, 10, 50, 90
11, 266999, Note_on_c, 10, 50, 0
11, 267000, Note_on_c, 10, 62, 90
11, 267059, Note_on_c, 10, 62, 0
11, 267060, Note_on_c, 10, 50, 90
11, 267119, Note_on_c, 10, 50, 0
11, 267120, Note_on_c, 10, 52, 90
11, 267149, Note_on_c, 10, 52, 0
11, 267150, Note_on_c, 10, 56, 90
11, 267179, Note_on_c, 10, 56, 0
11, 267180, Note_on_c, 10, 52, 90
11, 267209, Note_on_c, 10, 52, 0
11, 267210, Note_on_c, 10, 56, 90
11, 267239, Note_on_c, 10, 56, 0
11, 267240, Note_on_c, 10, 52, 90
11, 267269, Note_on_c, 10, 52, 0
11, 267270, Note_on_c, 10, 56, 90
11, 267299, Note_on_c, 10, 56, 0
11, 267300, Note_on_c, 10, 49, 90
11, 267359, Note_on_c, 10, 49, 0
11, 267360, Note_on_c, 10, 61, 90
11, 267419, Note_on_c, 10, 61, 0
11, 267420, Note_on_c, 10, 49, 90
11, 267479, Note_on_c, 10, 49, 0
11, 267480, Note_on_c, 10, 50, 90
11, 267509, Note_on_c, 10, 50, 0
11, 267510, Note_on_c, 10, 54, 90
11, 267539, Note_on_c, 10, 54, 0
11, 267540, Note_on_c, 10, 50, 90
11, 267569, Note_on_c, 10, 50, 0
11, 267570, Note_on_c, 10, 54, 90
11, 267599, Note_on_c, 10, 54, 0
11, 267600, Note_on_c, 10, 50, 90
11, 267629, Note_on_c, 10, 50, 0
11, 267630, Note_on_c, 10, 54, 90
11, 267659, Note_on_c, 10, 54, 0
11, 267660, Note_on_c, 10, 47, 90
11, 267719, Note_on_c, 10, 47, 0
11, 267720, Note_on_c, 10, 49, 90
11, 267779, Note_on_c, 10, 49, 0
11, 267780, Note_on_c, 10, 50, 90
11, 267839, Note_on_c, 10, 50, 0
11, 267840, Note_on_c, 10, 52, 90
11, 267899, Note_on_c, 10, 52, 0
11, 267900, Note_on_c, 10, 54, 90
11, 267959, Note_on_c, 10, 54, 0
11, 267960, Note_on_c, 10, 56, 90
11, 268019, Note_on_c, 10, 56, 0
11, 268020, Note_on_c, 10, 57, 90
11, 268079, Note_on_c, 10, 57, 0
11, 268080, Note_on_c, 10, 50, 90
11, 268139, Note_on_c, 10, 50, 0
11, 268140, Note_on_c, 10, 52, 90
11, 268199, Note_on_c, 10, 52, 0
11, 268200, Note_on_c, 10, 54, 90
11, 268259, Note_on_c, 10, 54, 0
11, 268260, Note_on_c, 10, 52, 90
11, 268319, Note_on_c, 10, 52, 0
11, 268320, Note_on_c, 10, 50, 90
11, 268379, Note_on_c, 10, 50, 0
11, 268380, Note_on_c, 10, 49, 90
11, 268439, Note_on_c, 10, 49, 0
11, 268440, Note_on_c, 10, 50, 90
11, 268499, Note_on_c, 10, 50, 0
11, 268500, Note_on_c, 10, 52, 90
11, 268559, Note_on_c, 10, 52, 0
11, 268560, Note_on_c, 10, 45, 90
11, 268619, Note_on_c, 10, 45, 0
11, 268620, Note_on_c, 10, 47, 90
11, 268679, Note_on_c, 10, 47, 0
11, 268680, Note_on_c, 10, 49, 90
11, 268739, Note_on_c, 10, 49, 0
11, 268740, Note_on_c, 10, 42, 90
11, 268799, Note_on_c, 10, 42, 0
11, 268800, Note_on_c, 10, 38, 90
11, 268859, Note_on_c, 10, 38, 0
11, 268860, Note_on_c, 10, 40, 90
11, 268919, Note_on_c, 10, 40, 0
11, 268920, Note_on_c, 10, 45, 90
11, 269100, Note_on_c, 10, 45, 0
11, 269280, Note_on_c, 10, 49, 90
11, 269520, Note_on_c, 10, 49, 0
11, 269520, Note_on_c, 10, 50, 90
11, 269760, Note_on_c, 10, 50, 0
11, 269880, Note_on_c, 10, 52, 90
11, 270000, Note_on_c, 10, 52, 0
11, 270000, Note_on_c, 10, 45, 90
11, 270360, Note_on_c, 10, 45, 0
11, 270360, Note_on_c, 10, 43, 90
11, 270720, Note_on_c, 10, 43, 0
11, 270720, Note_on_c, 10, 42, 90
11, 271080, Note_on_c, 10, 42, 0
11, 271080, Note_on_c, 10, 51, 90
11, 271200, Note_on_c, 10, 51, 0
11, 271200, Note_on_c, 10, 52, 90
11, 271320, Note_on_c, 10, 52, 0
11, 271320, Note_on_c, 10, 55, 90
11, 271440, Note_on_c, 10, 55, 0
11, 271440, Note_on_c, 10, 54, 90
11, 271560, Note_on_c, 10, 54, 0
11, 272160, Note_on_c, 10, 54, 90
11, 272279, Note_on_c, 10, 54, 0
11, 272280, Note_on_c, 10, 59, 90
11, 272399, Note_on_c, 10, 59, 0
11, 272400, Note_on_c, 10, 57, 90
11, 272519, Note_on_c, 10, 57, 0
11, 272520, Note_on_c, 10, 55, 90
11, 272639, Note_on_c, 10, 55, 0
11, 272640, Note_on_c, 10, 57, 90
11, 272759, Note_on_c, 10, 57, 0
11, 272760, Note_on_c, 10, 50, 90
11, 272879, Note_on_c, 10, 50, 0
11, 272880, Note_on_c, 10, 52, 90
11, 272999, Note_on_c, 10, 52, 0
11, 273000, Note_on_c, 10, 54, 90
11, 273119, Note_on_c, 10, 54, 0
11, 273120, Note_on_c, 10, 52, 90
11, 273179, Note_on_c, 10, 52, 0
11, 273180, Note_on_c, 10, 54, 90
11, 273239, Note_on_c, 10, 54, 0
11, 273240, Note_on_c, 10, 55, 90
11, 273359, Note_on_c, 10, 55, 0
11, 273360, Note_on_c, 10, 54, 90
11, 273419, Note_on_c, 10, 54, 0
11, 273420, Note_on_c, 10, 55, 90
11, 273479, Note_on_c, 10, 55, 0
11, 273480, Note_on_c, 10, 52, 90
11, 273599, Note_on_c, 10, 52, 0
11, 273600, Note_on_c, 10, 50, 90
11, 273659, Note_on_c, 10, 50, 0
11, 273660, Note_on_c, 10, 52, 90
11, 273719, Note_on_c, 10, 52, 0
11, 273720, Note_on_c, 10, 54, 90
11, 273839, Note_on_c, 10, 54, 0
11, 273840, Note_on_c, 10, 52, 90
11, 273899, Note_on_c, 10, 52, 0
11, 273900, Note_on_c, 10, 54, 90
11, 273959, Note_on_c, 10, 54, 0
11, 273960, Note_on_c, 10, 50, 90
11, 274079, Note_on_c, 10, 50, 0
11, 274080, Note_on_c, 10, 49, 90
11, 274139, Note_on_c, 10, 49, 0
11, 274140, Note_on_c, 10, 50, 90
11, 274199, Note_on_c, 10, 50, 0
11, 274200, Note_on_c, 10, 52, 90
11, 274319, Note_on_c, 10, 52, 0
11, 274320, Note_on_c, 10, 50, 90
11, 274379, Note_on_c, 10, 50, 0
11, 274380, Note_on_c, 10, 52, 90
11, 274439, Note_on_c, 10, 52, 0
11, 274440, Note_on_c, 10, 54, 90
11, 274559, Note_on_c, 10, 54, 0
11, 274560, Note_on_c, 10, 52, 90
11, 274619, Note_on_c, 10, 52, 0
11, 274620, Note_on_c, 10, 54, 90
11, 274679, Note_on_c, 10, 54, 0
11, 274680, Note_on_c, 10, 47, 90
11, 274799, Note_on_c, 10, 47, 0
11, 274800, Note_on_c, 10, 43, 90
11, 274919, Note_on_c, 10, 43, 0
11, 274920, Note_on_c, 10, 40, 90
11, 275039, Note_on_c, 10, 40, 0
11, 275040, Note_on_c, 10, 42, 90
11, 275159, Note_on_c, 10, 42, 0
11, 275160, Note_on_c, 10, 47, 90
11, 275279, Note_on_c, 10, 47, 0
11, 275520, Note_on_c, 10, 54, 90
11, 275639, Note_on_c, 10, 54, 0
11, 275640, Note_on_c, 10, 59, 90
11, 275759, Note_on_c, 10, 59, 0
11, 275760, Note_on_c, 10, 57, 90
11, 275819, Note_on_c, 10, 57, 0
11, 275820, Note_on_c, 10, 59, 90
11, 275879, Note_on_c, 10, 59, 0
11, 275880, Note_on_c, 10, 56, 90
11, 275999, Note_on_c, 10, 56, 0
11, 276000, Note_on_c, 10, 54, 90
11, 276059, Note_on_c, 10, 54, 0
11, 276060, Note_on_c, 10, 56, 90
11, 276119, Note_on_c, 10, 56, 0
11, 276120, Note_on_c, 10, 58, 90
11, 276239, Note_on_c, 10, 58, 0
11, 276240, Note_on_c, 10, 56, 90
11, 276299, Note_on_c, 10, 56, 0
11, 276300, Note_on_c, 10, 58, 90
11, 276359, Note_on_c, 10, 58, 0
11, 276360, Note_on_c, 10, 59, 90
11, 276479, Note_on_c, 10, 59, 0
11, 276480, Note_on_c, 10, 54, 90
11, 276599, Note_on_c, 10, 54, 0
11, 276600, Note_on_c, 10, 55, 90
11, 276719, Note_on_c, 10, 55, 0
11, 276720, Note_on_c, 10, 54, 90
11, 276779, Note_on_c, 10, 54, 0
11, 276780, Note_on_c, 10, 55, 90
11, 276839, Note_on_c, 10, 55, 0
11, 276840, Note_on_c, 10, 52, 90
11, 276959, Note_on_c, 10, 52, 0
11, 276960, Note_on_c, 10, 50, 90
11, 277019, Note_on_c, 10, 50, 0
11, 277020, Note_on_c, 10, 52, 90
11, 277079, Note_on_c, 10, 52, 0
11, 277080, Note_on_c, 10, 54, 90
11, 277199, Note_on_c, 10, 54, 0
11, 277200, Note_on_c, 10, 42, 90
11, 277319, Note_on_c, 10, 42, 0
11, 277320, Note_on_c, 10, 43, 90
11, 277439, Note_on_c, 10, 43, 0
11, 277440, Note_on_c, 10, 42, 90
11, 277499, Note_on_c, 10, 42, 0
11, 277500, Note_on_c, 10, 43, 90
11, 277559, Note_on_c, 10, 43, 0
11, 277560, Note_on_c, 10, 40, 90
11, 277679, Note_on_c, 10, 40, 0
11, 277680, Note_on_c, 10, 38, 90
11, 277739, Note_on_c, 10, 38, 0
11, 277740, Note_on_c, 10, 40, 90
11, 277799, Note_on_c, 10, 40, 0
11, 277800, Note_on_c, 10, 42, 90
11, 277919, Note_on_c, 10, 42, 0
11, 277920, Note_on_c, 10, 40, 90
11, 277979, Note_on_c, 10, 40, 0
11, 277980, Note_on_c, 10, 42, 90
11, 278039, Note_on_c, 10, 42, 0
11, 278040, Note_on_c, 10, 47, 90
11, 278159, Note_on_c, 10, 47, 0
11, 278160, Note_on_c, 10, 59, 90
11, 278279, Note_on_c, 10, 59, 0
11, 278280, Note_on_c, 10, 50, 90
11, 278399, Note_on_c, 10, 50, 0
11, 278400, Note_on_c, 10, 54, 90
11, 278519, Note_on_c, 10, 54, 0
11, 278520, Note_on_c, 10, 47, 90
11, 278759, Note_on_c, 10, 47, 0
11, 278880, Note_on_c, 10, 45, 90
11, 278999, Note_on_c, 10, 45, 0
11, 279000, Note_on_c, 10, 50, 90
11, 279119, Note_on_c, 10, 50, 0
11, 279120, Note_on_c, 10, 49, 90
11, 279239, Note_on_c, 10, 49, 0
11, 279240, Note_on_c, 10, 50, 90
11, 279359, Note_on_c, 10, 50, 0
11, 279360, Note_on_c, 10, 52, 90
11, 279479, Note_on_c, 10, 52, 0
11, 279480, Note_on_c, 10, 54, 90
11, 279599, Note_on_c, 10, 54, 0
11, 279600, Note_on_c, 10, 55, 90
11, 279719, Note_on_c, 10, 55, 0
11, 279720, Note_on_c, 10, 57, 90
11, 279839, Note_on_c, 10, 57, 0
11, 279840, Note_on_c, 10, 55, 90
11, 279959, Note_on_c, 10, 55, 0
11, 279960, Note_on_c, 10, 54, 90
11, 280079, Note_on_c, 10, 54, 0
11, 280080, Note_on_c, 10, 59, 90
11, 280199, Note_on_c, 10, 59, 0
11, 280200, Note_on_c, 10, 55, 90
11, 280319, Note_on_c, 10, 55, 0
11, 280320, Note_on_c, 10, 57, 90
11, 280439, Note_on_c, 10, 57, 0
11, 280440, Note_on_c, 10, 50, 90
11, 280559, Note_on_c, 10, 50, 0
11, 280560, Note_on_c, 10, 52, 90
11, 280679, Note_on_c, 10, 52, 0
11, 280680, Note_on_c, 10, 54, 90
11, 280799, Note_on_c, 10, 54, 0
11, 280800, Note_on_c, 10, 52, 90
11, 280859, Note_on_c, 10, 52, 0
11, 280860, Note_on_c, 10, 54, 90
11, 280919, Note_on_c, 10, 54, 0
11, 280920, Note_on_c, 10, 55, 90
11, 281039, Note_on_c, 10, 55, 0
11, 281040, Note_on_c, 10, 54, 90
11, 281099, Note_on_c, 10, 54, 0
11, 281100, Note_on_c, 10, 55, 90
11, 281159, Note_on_c, 10, 55, 0
11, 281160, Note_on_c, 10, 52, 90
11, 281279, Note_on_c, 10, 52, 0
11, 281280, Note_on_c, 10, 50, 90
11, 281339, Note_on_c, 10, 50, 0
11, 281340, Note_on_c, 10, 52, 90
11, 281399, Note_on_c, 10, 52, 0
11, 281400, Note_on_c, 10, 54, 90
11, 281519, Note_on_c, 10, 54, 0
11, 281520, Note_on_c, 10, 52, 90
11, 281579, Note_on_c, 10, 52, 0
11, 281580, Note_on_c, 10, 54, 90
11, 281639, Note_on_c, 10, 54, 0
11, 281640, Note_on_c, 10, 50, 90
11, 281759, Note_on_c, 10, 50, 0
11, 281760, Note_on_c, 10, 49, 90
11, 281819, Note_on_c, 10, 49, 0
11, 281820, Note_on_c, 10, 50, 90
11, 281879, Note_on_c, 10, 50, 0
11, 281880, Note_on_c, 10, 52, 90
11, 281999, Note_on_c, 10, 52, 0
11, 282000, Note_on_c, 10, 50, 90
11, 282059, Note_on_c, 10, 50, 0
11, 282060, Note_on_c, 10, 52, 90
11, 282119, Note_on_c, 10, 52, 0
11, 282120, Note_on_c, 10, 54, 90
11, 282239, Note_on_c, 10, 54, 0
11, 282240, Note_on_c, 10, 52, 90
11, 282299, Note_on_c, 10, 52, 0
11, 282300, Note_on_c, 10, 54, 90
11, 282359, Note_on_c, 10, 54, 0
11, 282360, Note_on_c, 10, 47, 90
11, 282479, Note_on_c, 10, 47, 0
11, 282480, Note_on_c, 10, 43, 90
11, 282599, Note_on_c, 10, 43, 0
11, 282600, Note_on_c, 10, 40, 90
11, 282719, Note_on_c, 10, 40, 0
11, 282720, Note_on_c, 10, 42, 90
11, 282839, Note_on_c, 10, 42, 0
11, 282840, Note_on_c, 10, 47, 90
11, 283079, Note_on_c, 10, 47, 0
11, 283200, Note_on_c, 10, 45, 90
11, 283319, Note_on_c, 10, 45, 0
11, 283320, Note_on_c, 10, 50, 90
11, 283439, Note_on_c, 10, 50, 0
11, 283440, Note_on_c, 10, 49, 90
11, 283559, Note_on_c, 10, 49, 0
11, 283560, Note_on_c, 10, 50, 90
11, 283679, Note_on_c, 10, 50, 0
11, 283680, Note_on_c, 10, 52, 90
11, 283799, Note_on_c, 10, 52, 0
11, 283800, Note_on_c, 10, 54, 90
11, 283919, Note_on_c, 10, 54, 0
11, 283920, Note_on_c, 10, 55, 90
11, 284039, Note_on_c, 10, 55, 0
11, 284040, Note_on_c, 10, 57, 90
11, 284159, Note_on_c, 10, 57, 0
11, 284160, Note_on_c, 10, 55, 90
11, 284279, Note_on_c, 10, 55, 0
11, 284280, Note_on_c, 10, 54, 90
11, 284399, Note_on_c, 10, 54, 0
11, 284400, Note_on_c, 10, 59, 90
11, 284519, Note_on_c, 10, 59, 0
11, 284520, Note_on_c, 10, 55, 90
11, 284639, Note_on_c, 10, 55, 0
11, 284640, Note_on_c, 10, 57, 90
11, 284759, Note_on_c, 10, 57, 0
11, 284760, Note_on_c, 10, 50, 90
11, 284879, Note_on_c, 10, 50, 0
11, 284880, Note_on_c, 10, 49, 90
11, 284999, Note_on_c, 10, 49, 0
11, 285000, Note_on_c, 10, 47, 90
11, 285119, Note_on_c, 10, 47, 0
11, 285120, Note_on_c, 10, 45, 90
11, 285239, Note_on_c, 10, 45, 0
11, 285240, Note_on_c, 10, 43, 90
11, 285359, Note_on_c, 10, 43, 0
11, 285360, Note_on_c, 10, 55, 90
11, 285419, Note_on_c, 10, 55, 0
11, 285420, Note_on_c, 10, 54, 90
11, 285479, Note_on_c, 10, 54, 0
11, 285480, Note_on_c, 10, 52, 90
11, 285599, Note_on_c, 10, 52, 0
11, 285600, Note_on_c, 10, 55, 90
11, 285719, Note_on_c, 10, 55, 0
11, 285720, Note_on_c, 10, 49, 90
11, 285839, Note_on_c, 10, 49, 0
11, 285840, Note_on_c, 10, 54, 90
11, 286079, Note_on_c, 10, 54, 0
11, 286080, Note_on_c, 10, 52, 90
11, 286139, Note_on_c, 10, 52, 0
11, 286140, Note_on_c, 10, 50, 90
11, 286199, Note_on_c, 10, 50, 0
11, 286200, Note_on_c, 10, 52, 90
11, 286319, Note_on_c, 10, 52, 0
11, 286320, Note_on_c, 10, 49, 90
11, 286439, Note_on_c, 10, 49, 0
11, 286440, Note_on_c, 10, 54, 90
11, 286559, Note_on_c, 10, 54, 0
11, 286560, Note_on_c, 10, 42, 90
11, 286679, Note_on_c, 10, 42, 0
11, 286680, Note_on_c, 10, 47, 90
11, 287039, Note_on_c, 10, 47, 0
11, 287160, Note_on_c, 10, 54, 90
11, 287160, Note_on_c, 10, 42, 90
11, 288120, Note_on_c, 10, 42, 0
11, 288120, Note_on_c, 10, 54, 0
11, 288120, Note_on_c, 10, 51, 90
11, 288360, Note_on_c, 10, 51, 0
11, 288540, Note_on_c, 10, 47, 90
11, 288600, Note_on_c, 10, 47, 0
11, 288600, Note_on_c, 10, 52, 90
11, 288660, Note_on_c, 10, 52, 0
11, 288660, Note_on_c, 10, 54, 90
11, 288720, Note_on_c, 10, 54, 0
11, 288720, Note_on_c, 10, 55, 90
11, 288780, Note_on_c, 10, 55, 0
11, 288780, Note_on_c, 10, 57, 90
11, 288840, Note_on_c, 10, 57, 0
11, 288840, Note_on_c, 10, 59, 90
11, 288900, Note_on_c, 10, 59, 0
11, 288900, Note_on_c, 10, 55, 90
11, 288960, Note_on_c, 10, 55, 0
11, 288960, Note_on_c, 10, 57, 90
11, 289020, Note_on_c, 10, 57, 0
11, 289020, Note_on_c, 10, 59, 90
11, 289080, Note_on_c, 10, 59, 0
11, 289080, Note_on_c, 10, 60, 90
11, 289140, Note_on_c, 10, 60, 0
11, 289140, Note_on_c, 10, 53, 90
11, 289200, Note_on_c, 10, 53, 0
11, 289200, Note_on_c, 10, 55, 90
11, 289320, Note_on_c, 10, 55, 0
11, 289320, Note_on_c, 10, 48, 90
11, 289800, Note_on_c, 10, 48, 0
11, 289800, Note_on_c, 10, 49, 90
11, 290520, Note_on_c, 10, 49, 0
11, 290520, Note_on_c, 10, 50, 90
11, 290640, Note_on_c, 10, 50, 0
11, 290640, Note_on_c, 10, 46, 90
11, 290760, Note_on_c, 10, 46, 0
11, 290880, Note_on_c, 10, 45, 90
11, 291000, Note_on_c, 10, 45, 0
11, 291000, Note_on_c, 10, 50, 90
11, 291480, Note_on_c, 10, 50, 0
11, 291600, Note_on_c, 10, 53, 90
11, 291659, Note_on_c, 10, 53, 0
11, 291660, Note_on_c, 10, 52, 90
11, 291719, Note_on_c, 10, 52, 0
11, 291720, Note_on_c, 10, 53, 90
11, 291839, Note_on_c, 10, 53, 0
11, 291840, Note_on_c, 10, 55, 90
11, 291959, Note_on_c, 10, 55, 0
11, 291960, Note_on_c, 10, 57, 90
11, 292079, Note_on_c, 10, 57, 0
11, 292080, Note_on_c, 10, 58, 90
11, 292199, Note_on_c, 10, 58, 0
11, 292200, Note_on_c, 10, 57, 90
11, 292319, Note_on_c, 10, 57, 0
11, 292320, Note_on_c, 10, 55, 90
11, 292439, Note_on_c, 10, 55, 0
11, 292440, Note_on_c, 10, 57, 90
11, 292499, Note_on_c, 10, 57, 0
11, 292500, Note_on_c, 10, 55, 90
11, 292559, Note_on_c, 10, 55, 0
11, 292560, Note_on_c, 10, 53, 90
11, 292679, Note_on_c, 10, 53, 0
11, 292680, Note_on_c, 10, 58, 90
11, 292799, Note_on_c, 10, 58, 0
11, 292800, Note_on_c, 10, 57, 90
11, 292919, Note_on_c, 10, 57, 0
11, 292920, Note_on_c, 10, 55, 90
11, 293039, Note_on_c, 10, 55, 0
11, 293040, Note_on_c, 10, 53, 90
11, 293159, Note_on_c, 10, 53, 0
11, 293160, Note_on_c, 10, 52, 90
11, 293279, Note_on_c, 10, 52, 0
11, 293280, Note_on_c, 10, 55, 90
11, 293399, Note_on_c, 10, 55, 0
11, 293400, Note_on_c, 10, 52, 90
11, 293519, Note_on_c, 10, 52, 0
11, 293520, Note_on_c, 10, 48, 90
11, 293639, Note_on_c, 10, 48, 0
11, 293640, Note_on_c, 10, 53, 90
11, 293759, Note_on_c, 10, 53, 0
11, 293760, Note_on_c, 10, 45, 90
11, 293819, Note_on_c, 10, 45, 0
11, 293820, Note_on_c, 10, 46, 90
11, 293879, Note_on_c, 10, 46, 0
11, 293880, Note_on_c, 10, 48, 90
11, 293999, Note_on_c, 10, 48, 0
11, 294000, Note_on_c, 10, 36, 90
11, 294119, Note_on_c, 10, 36, 0
11, 294120, Note_on_c, 10, 41, 90
11, 294479, Note_on_c, 10, 41, 0
11, 294480, Note_on_c, 10, 53, 90
11, 294539, Note_on_c, 10, 53, 0
11, 294540, Note_on_c, 10, 52, 90
11, 294599, Note_on_c, 10, 52, 0
11, 294600, Note_on_c, 10, 53, 90
11, 294719, Note_on_c, 10, 53, 0
11, 294720, Note_on_c, 10, 55, 90
11, 294839, Note_on_c, 10, 55, 0
11, 294840, Note_on_c, 10, 57, 90
11, 294959, Note_on_c, 10, 57, 0
11, 294960, Note_on_c, 10, 58, 90
11, 295079, Note_on_c, 10, 58, 0
11, 295080, Note_on_c, 10, 57, 90
11, 295199, Note_on_c, 10, 57, 0
11, 295200, Note_on_c, 10, 55, 90
11, 295319, Note_on_c, 10, 55, 0
11, 295320, Note_on_c, 10, 57, 90
11, 295439, Note_on_c, 10, 57, 0
11, 295440, Note_on_c, 10, 53, 90
11, 295559, Note_on_c, 10, 53, 0
11, 295560, Note_on_c, 10, 58, 90
11, 295679, Note_on_c, 10, 58, 0
11, 295680, Note_on_c, 10, 57, 90
11, 295799, Note_on_c, 10, 57, 0
11, 295800, Note_on_c, 10, 55, 90
11, 295919, Note_on_c, 10, 55, 0
11, 295920, Note_on_c, 10, 53, 90
11, 296039, Note_on_c, 10, 53, 0
11, 296040, Note_on_c, 10, 52, 90
11, 296159, Note_on_c, 10, 52, 0
11, 296160, Note_on_c, 10, 55, 90
11, 296279, Note_on_c, 10, 55, 0
11, 296280, Note_on_c, 10, 52, 90
11, 296399, Note_on_c, 10, 52, 0
11, 296400, Note_on_c, 10, 48, 90
11, 296519, Note_on_c, 10, 48, 0
11, 296520, Note_on_c, 10, 53, 90
11, 296639, Note_on_c, 10, 53, 0
11, 296640, Note_on_c, 10, 45, 90
11, 296699, Note_on_c, 10, 45, 0
11, 296700, Note_on_c, 10, 46, 90
11, 296759, Note_on_c, 10, 46, 0
11, 296760, Note_on_c, 10, 48, 90
11, 296879, Note_on_c, 10, 48, 0
11, 296880, Note_on_c, 10, 36, 90
11, 296999, Note_on_c, 10, 36, 0
11, 297000, Note_on_c, 10, 41, 90
11, 297359, Note_on_c, 10, 41, 0
11, 297360, Note_on_c, 10, 53, 90
11, 297419, Note_on_c, 10, 53, 0
11, 297420, Note_on_c, 10, 55, 90
11, 297479, Note_on_c, 10, 55, 0
11, 297480, Note_on_c, 10, 57, 90
11, 297599, Note_on_c, 10, 57, 0
11, 297600, Note_on_c, 10, 55, 90
11, 297719, Note_on_c, 10, 55, 0
11, 297720, Note_on_c, 10, 57, 90
11, 297839, Note_on_c, 10, 57, 0
11, 297840, Note_on_c, 10, 53, 90
11, 297959, Note_on_c, 10, 53, 0
11, 297960, Note_on_c, 10, 58, 90
11, 298079, Note_on_c, 10, 58, 0
11, 298080, Note_on_c, 10, 53, 90
11, 298199, Note_on_c, 10, 53, 0
11, 298200, Note_on_c, 10, 46, 90
11, 298319, Note_on_c, 10, 46, 0
11, 298320, Note_on_c, 10, 58, 90
11, 298559, Note_on_c, 10, 58, 0
11, 298560, Note_on_c, 10, 57, 90
11, 298679, Note_on_c, 10, 57, 0
11, 298680, Note_on_c, 10, 58, 90
11, 298799, Note_on_c, 10, 58, 0
11, 298800, Note_on_c, 10, 55, 90
11, 298919, Note_on_c, 10, 55, 0
11, 298920, Note_on_c, 10, 60, 90
11, 299039, Note_on_c, 10, 60, 0
11, 299040, Note_on_c, 10, 55, 90
11, 299159, Note_on_c, 10, 55, 0
11, 299160, Note_on_c, 10, 48, 90
11, 299279, Note_on_c, 10, 48, 0
11, 299280, Note_on_c, 10, 57, 90
11, 299399, Note_on_c, 10, 57, 0
11, 299400, Note_on_c, 10, 58, 90
11, 299519, Note_on_c, 10, 58, 0
11, 299520, Note_on_c, 10, 57, 90
11, 299579, Note_on_c, 10, 57, 0
11, 299580, Note_on_c, 10, 55, 90
11, 299639, Note_on_c, 10, 55, 0
11, 299640, Note_on_c, 10, 57, 90
11, 299759, Note_on_c, 10, 57, 0
11, 299760, Note_on_c, 10, 53, 90
11, 299879, Note_on_c, 10, 53, 0
11, 299880, Note_on_c, 10, 58, 90
11, 299999, Note_on_c, 10, 58, 0
11, 300000, Note_on_c, 10, 57, 90
11, 300059, Note_on_c, 10, 57, 0
11, 300060, Note_on_c, 10, 55, 90
11, 300119, Note_on_c, 10, 55, 0
11, 300120, Note_on_c, 10, 57, 90
11, 300239, Note_on_c, 10, 57, 0
11, 300240, Note_on_c, 10, 53, 90
11, 300359, Note_on_c, 10, 53, 0
11, 300360, Note_on_c, 10, 46, 90
11, 300479, Note_on_c, 10, 46, 0
11, 300480, Note_on_c, 10, 48, 90
11, 300599, Note_on_c, 10, 48, 0
11, 300600, Note_on_c, 10, 50, 90
11, 300719, Note_on_c, 10, 50, 0
11, 300720, Note_on_c, 10, 46, 90
11, 300839, Note_on_c, 10, 46, 0
11, 300840, Note_on_c, 10, 48, 90
11, 300959, Note_on_c, 10, 48, 0
11, 300960, Note_on_c, 10, 55, 90
11, 301079, Note_on_c, 10, 55, 0
11, 301080, Note_on_c, 10, 60, 90
11, 301139, Note_on_c, 10, 60, 0
11, 301140, Note_on_c, 10, 58, 90
11, 301199, Note_on_c, 10, 58, 0
11, 301200, Note_on_c, 10, 57, 90
11, 301259, Note_on_c, 10, 57, 0
11, 301260, Note_on_c, 10, 55, 90
11, 301319, Note_on_c, 10, 55, 0
11, 301320, Note_on_c, 10, 53, 90
11, 301439, Note_on_c, 10, 53, 0
11, 301440, Note_on_c, 10, 55, 90
11, 301559, Note_on_c, 10, 55, 0
11, 301560, Note_on_c, 10, 57, 90
11, 301679, Note_on_c, 10, 57, 0
11, 301680, Note_on_c, 10, 58, 90
11, 301799, Note_on_c, 10, 58, 0
11, 301800, Note_on_c, 10, 57, 90
11, 301919, Note_on_c, 10, 57, 0
11, 301920, Note_on_c, 10, 55, 90
11, 302039, Note_on_c, 10, 55, 0
11, 302040, Note_on_c, 10, 57, 90
11, 302159, Note_on_c, 10, 57, 0
11, 302160, Note_on_c, 10, 53, 90
11, 302279, Note_on_c, 10, 53, 0
11, 302280, Note_on_c, 10, 58, 90
11, 302399, Note_on_c, 10, 58, 0
11, 302400, Note_on_c, 10, 57, 90
11, 302519, Note_on_c, 10, 57, 0
11, 302520, Note_on_c, 10, 55, 90
11, 302639, Note_on_c, 10, 55, 0
11, 302640, Note_on_c, 10, 53, 90
11, 302759, Note_on_c, 10, 53, 0
11, 302760, Note_on_c, 10, 52, 90
11, 302879, Note_on_c, 10, 52, 0
11, 302880, Note_on_c, 10, 55, 90
11, 302999, Note_on_c, 10, 55, 0
11, 303000, Note_on_c, 10, 52, 90
11, 303119, Note_on_c, 10, 52, 0
11, 303120, Note_on_c, 10, 48, 90
11, 303239, Note_on_c, 10, 48, 0
11, 303240, Note_on_c, 10, 53, 90
11, 303359, Note_on_c, 10, 53, 0
11, 303360, Note_on_c, 10, 45, 90
11, 303419, Note_on_c, 10, 45, 0
11, 303420, Note_on_c, 10, 46, 90
11, 303479, Note_on_c, 10, 46, 0
11, 303480, Note_on_c, 10, 48, 90
11, 303599, Note_on_c, 10, 48, 0
11, 303600, Note_on_c, 10, 36, 90
11, 303719, Note_on_c, 10, 36, 0
11, 303720, Note_on_c, 10, 41, 90
11, 304079, Note_on_c, 10, 41, 0
11, 304079, End_track
12, 0, Start_track
12, 0, MIDI_port, 0
12, 0, Title_t, "J.S.BACH"
12, 0, End_track
13, 0, Start_track
13, 0, MIDI_port, 0
13, 0, Title_t, "BWV 212"
13, 0, End_track
14, 0, Start_track
14, 0, MIDI_port, 0
14, 0, Title_t, "CANTATA BWV 212"
14, 0, End_track
15, 0, Start_track
15, 0, MIDI_port, 0
15, 0, Title_t, "Mer hahn en neue Oberkeet"
15, 0, End_track
16, 0, Start_track
16, 0, MIDI_port, 0
16, 0, Title_t, "(CANTATA CAMPESINA)"
16, 0, End_track
17, 0, Start_track
17, 0, MIDI_port, 0
17, 0, Title_t, "SECUENCED BY"
17, 0, End_track
18, 0, Start_track
18, 0, MIDI_port, 0
18, 0, Title_t, "MARCELO COPIA M"
18, 0, End_track
19, 0, Start_track
19, 0, MIDI_port, 0
19, 0, Title_t, "mcopia@entelchile.net"
19, 0, End_track
0, 0, End_of_file
