0, 0, Header, 1, 4, 240
1, 0, Start_track
1, 0, Time_signature, 3, 2, 24, 8
1, 0, Tempo, 600000
1, 57855, Tempo, 631579
1, 58095, Tempo, 666667
1, 58320, Tempo, 705882
1, 58560, Tempo, 750000
1, 58800, Tempo, 800000
1, 58800, End_track
2, 0, Start_track
2, 0, Title_t, "Prelude in G-Major - BWV 541"
2, 0, Program_c, 0, 19
2, 0, Control_c, 0, 7, 127
2, 60, Note_on_c, 0, 67, 127
2, 108, Note_off_c, 0, 67, 64
2, 120, Note_on_c, 0, 71, 127
2, 168, Note_off_c, 0, 71, 64
2, 180, Note_on_c, 0, 74, 127
2, 228, Note_off_c, 0, 74, 64
2, 240, Note_on_c, 0, 79, 127
2, 336, Note_off_c, 0, 79, 64
2, 360, Note_on_c, 0, 78, 127
2, 408, Note_off_c, 0, 78, 64
2, 420, Note_on_c, 0, 76, 127
2, 468, Note_off_c, 0, 76, 64
2, 480, Note_on_c, 0, 74, 127
2, 528, Note_off_c, 0, 74, 64
2, 540, Note_on_c, 0, 72, 127
2, 588, Note_off_c, 0, 72, 64
2, 600, Note_on_c, 0, 71, 127
2, 648, Note_off_c, 0, 71, 64
2, 660, Note_on_c, 0, 69, 127
2, 708, Note_off_c, 0, 69, 64
2, 720, Note_on_c, 0, 71, 127
2, 768, Note_off_c, 0, 71, 64
2, 780, Note_on_c, 0, 74, 127
2, 828, Note_off_c, 0, 74, 64
2, 840, Note_on_c, 0, 67, 127
2, 888, Note_off_c, 0, 67, 64
2, 900, Note_on_c, 0, 71, 127
2, 948, Note_off_c, 0, 71, 64
2, 960, Note_on_c, 0, 62, 127
2, 1008, Note_off_c, 0, 62, 64
2, 1020, Note_on_c, 0, 71, 127
2, 1068, Note_off_c, 0, 71, 64
2, 1080, Note_on_c, 0, 69, 127
2, 1128, Note_off_c, 0, 69, 64
2, 1140, Note_on_c, 0, 67, 127
2, 1188, Note_off_c, 0, 67, 64
2, 1200, Note_on_c, 0, 66, 127
2, 1248, Note_off_c, 0, 66, 64
2, 1260, Note_on_c, 0, 64, 127
2, 1308, Note_off_c, 0, 64, 64
2, 1320, Note_on_c, 0, 62, 127
2, 1368, Note_off_c, 0, 62, 64
2, 1380, Note_on_c, 0, 60, 127
2, 1428, Note_off_c, 0, 60, 64
2, 1440, Note_on_c, 0, 62, 127
2, 1488, Note_off_c, 0, 62, 64
2, 1500, Note_on_c, 0, 67, 127
2, 1548, Note_off_c, 0, 67, 64
2, 1560, Note_on_c, 0, 59, 127
2, 1608, Note_off_c, 0, 59, 64
2, 1620, Note_on_c, 0, 62, 127
2, 1668, Note_off_c, 0, 62, 64
2, 7200, Note_on_c, 0, 62, 127
2, 7248, Note_off_c, 0, 62, 64
2, 7260, Note_on_c, 0, 59, 127
2, 7308, Note_off_c, 0, 59, 64
2, 7320, Note_on_c, 0, 62, 127
2, 7368, Note_off_c, 0, 62, 64
2, 7380, Note_on_c, 0, 67, 127
2, 7428, Note_off_c, 0, 67, 64
2, 7440, Note_on_c, 0, 62, 127
2, 7488, Note_off_c, 0, 62, 64
2, 7500, Note_on_c, 0, 67, 127
2, 7548, Note_off_c, 0, 67, 64
2, 7560, Note_on_c, 0, 71, 127
2, 7608, Note_off_c, 0, 71, 64
2, 7620, Note_on_c, 0, 67, 127
2, 7668, Note_off_c, 0, 67, 64
2, 7680, Note_on_c, 0, 71, 127
2, 7728, Note_off_c, 0, 71, 64
2, 7740, Note_on_c, 0, 74, 127
2, 7788, Note_off_c, 0, 74, 64
2, 7800, Note_on_c, 0, 71, 127
2, 7848, Note_off_c, 0, 71, 64
2, 7860, Note_on_c, 0, 74, 127
2, 7908, Note_off_c, 0, 74, 64
2, 7920, Note_on_c, 0, 79, 127
2, 8040, Note_on_c, 0, 67, 127
2, 8040, Note_on_c, 0, 74, 127
2, 8136, Note_off_c, 0, 74, 64
2, 8136, Note_off_c, 0, 67, 64
2, 8160, Note_on_c, 0, 67, 127
2, 8160, Note_on_c, 0, 74, 127
2, 8256, Note_off_c, 0, 74, 64
2, 8256, Note_off_c, 0, 67, 64
2, 8280, Note_on_c, 0, 67, 127
2, 8280, Note_on_c, 0, 74, 127
2, 8376, Note_off_c, 0, 74, 64
2, 8376, Note_off_c, 0, 67, 64
2, 8400, Note_on_c, 0, 67, 127
2, 8400, Note_on_c, 0, 74, 127
2, 8496, Note_off_c, 0, 74, 64
2, 8496, Note_off_c, 0, 67, 64
2, 8520, Note_on_c, 0, 71, 127
2, 8520, Note_on_c, 0, 67, 127
2, 8616, Note_off_c, 0, 67, 64
2, 8616, Note_off_c, 0, 71, 64
2, 8640, Note_on_c, 0, 64, 127
2, 8640, Note_on_c, 0, 69, 127
2, 8688, Note_off_c, 0, 79, 64
2, 8700, Note_on_c, 0, 83, 127
2, 8748, Note_off_c, 0, 83, 64
2, 8760, Note_on_c, 0, 81, 127
2, 8808, Note_off_c, 0, 81, 64
2, 8820, Note_on_c, 0, 79, 127
2, 8832, Note_off_c, 0, 69, 64
2, 8832, Note_off_c, 0, 64, 64
2, 8868, Note_off_c, 0, 79, 64
2, 8880, Note_on_c, 0, 62, 127
2, 8880, Note_on_c, 0, 78, 127
2, 8880, Note_on_c, 0, 69, 127
2, 8928, Note_off_c, 0, 78, 64
2, 8940, Note_on_c, 0, 76, 127
2, 8988, Note_off_c, 0, 76, 64
2, 9000, Note_on_c, 0, 74, 127
2, 9048, Note_off_c, 0, 74, 64
2, 9060, Note_on_c, 0, 72, 127
2, 9072, Note_off_c, 0, 69, 64
2, 9072, Note_off_c, 0, 62, 64
2, 9108, Note_off_c, 0, 72, 64
2, 9120, Note_on_c, 0, 71, 127
2, 9168, Note_off_c, 0, 71, 64
2, 9180, Note_on_c, 0, 69, 127
2, 9228, Note_off_c, 0, 69, 64
2, 9240, Note_on_c, 0, 72, 127
2, 9288, Note_off_c, 0, 72, 64
2, 9300, Note_on_c, 0, 71, 127
2, 9348, Note_off_c, 0, 71, 64
2, 9360, Note_on_c, 0, 72, 127
2, 9480, Note_on_c, 0, 78, 127
2, 9528, Note_off_c, 0, 78, 64
2, 9540, Note_on_c, 0, 76, 127
2, 9588, Note_off_c, 0, 76, 64
2, 9600, Note_on_c, 0, 78, 127
2, 9648, Note_off_c, 0, 78, 64
2, 9660, Note_on_c, 0, 79, 127
2, 9708, Note_off_c, 0, 79, 64
2, 9720, Note_on_c, 0, 78, 127
2, 9768, Note_off_c, 0, 78, 64
2, 9780, Note_on_c, 0, 79, 127
2, 9828, Note_off_c, 0, 79, 64
2, 9840, Note_on_c, 0, 81, 127
2, 9888, Note_off_c, 0, 81, 64
2, 9900, Note_on_c, 0, 83, 127
2, 9948, Note_off_c, 0, 83, 64
2, 9960, Note_on_c, 0, 81, 127
2, 10008, Note_off_c, 0, 81, 64
2, 10020, Note_on_c, 0, 83, 127
2, 10068, Note_off_c, 0, 83, 64
2, 10080, Note_on_c, 0, 74, 127
2, 10128, Note_off_c, 0, 72, 64
2, 10140, Note_on_c, 0, 76, 127
2, 10188, Note_off_c, 0, 76, 64
2, 10200, Note_on_c, 0, 74, 127
2, 10248, Note_off_c, 0, 74, 64
2, 10260, Note_on_c, 0, 72, 127
2, 10272, Note_off_c, 0, 74, 64
2, 10308, Note_off_c, 0, 72, 64
2, 10320, Note_on_c, 0, 71, 127
2, 10368, Note_off_c, 0, 71, 64
2, 10380, Note_on_c, 0, 69, 127
2, 10428, Note_off_c, 0, 69, 64
2, 10440, Note_on_c, 0, 67, 127
2, 10488, Note_off_c, 0, 67, 64
2, 10500, Note_on_c, 0, 66, 127
2, 10548, Note_off_c, 0, 66, 64
2, 10560, Note_on_c, 0, 64, 127
2, 10608, Note_off_c, 0, 64, 64
2, 10620, Note_on_c, 0, 62, 127
2, 10668, Note_off_c, 0, 62, 64
2, 10680, Note_on_c, 0, 65, 127
2, 10728, Note_off_c, 0, 65, 64
2, 10740, Note_on_c, 0, 64, 127
2, 10788, Note_off_c, 0, 64, 64
2, 10920, Note_on_c, 0, 71, 127
2, 10920, Note_on_c, 0, 74, 127
2, 10920, Note_on_c, 0, 67, 127
2, 11016, Note_off_c, 0, 67, 64
2, 11016, Note_off_c, 0, 74, 64
2, 11016, Note_off_c, 0, 71, 64
2, 11040, Note_on_c, 0, 71, 127
2, 11040, Note_on_c, 0, 74, 127
2, 11040, Note_on_c, 0, 67, 127
2, 11136, Note_off_c, 0, 67, 64
2, 11136, Note_off_c, 0, 74, 64
2, 11136, Note_off_c, 0, 71, 64
2, 11160, Note_on_c, 0, 71, 127
2, 11160, Note_on_c, 0, 74, 127
2, 11160, Note_on_c, 0, 67, 127
2, 11256, Note_off_c, 0, 67, 64
2, 11256, Note_off_c, 0, 74, 64
2, 11256, Note_off_c, 0, 71, 64
2, 11280, Note_on_c, 0, 74, 127
2, 11280, Note_on_c, 0, 71, 127
2, 11280, Note_on_c, 0, 67, 127
2, 11376, Note_off_c, 0, 67, 64
2, 11376, Note_off_c, 0, 71, 64
2, 11376, Note_off_c, 0, 74, 64
2, 11400, Note_on_c, 0, 71, 127
2, 11400, Note_on_c, 0, 67, 127
2, 11400, Note_on_c, 0, 74, 127
2, 11496, Note_off_c, 0, 74, 64
2, 11496, Note_off_c, 0, 67, 64
2, 11496, Note_off_c, 0, 71, 64
2, 11520, Note_on_c, 0, 67, 127
2, 11520, Note_on_c, 0, 76, 127
2, 11520, Note_on_c, 0, 72, 127
2, 11616, Note_off_c, 0, 72, 64
2, 11616, Note_off_c, 0, 76, 64
2, 11616, Note_off_c, 0, 67, 64
2, 11640, Note_on_c, 0, 67, 127
2, 11640, Note_on_c, 0, 76, 127
2, 11640, Note_on_c, 0, 72, 127
2, 11736, Note_off_c, 0, 72, 64
2, 11736, Note_off_c, 0, 76, 64
2, 11736, Note_off_c, 0, 67, 64
2, 11760, Note_on_c, 0, 72, 127
2, 11760, Note_on_c, 0, 69, 127
2, 11760, Note_on_c, 0, 76, 127
2, 11856, Note_off_c, 0, 76, 64
2, 11856, Note_off_c, 0, 69, 64
2, 11856, Note_off_c, 0, 72, 64
2, 11880, Note_on_c, 0, 69, 127
2, 11880, Note_on_c, 0, 72, 127
2, 11880, Note_on_c, 0, 76, 127
2, 11976, Note_off_c, 0, 76, 64
2, 11976, Note_off_c, 0, 72, 64
2, 11976, Note_off_c, 0, 69, 64
2, 12000, Note_on_c, 0, 72, 127
2, 12000, Note_on_c, 0, 69, 127
2, 12000, Note_on_c, 0, 76, 127
2, 12096, Note_off_c, 0, 76, 64
2, 12096, Note_off_c, 0, 69, 64
2, 12096, Note_off_c, 0, 72, 64
2, 12120, Note_on_c, 0, 72, 127
2, 12120, Note_on_c, 0, 76, 127
2, 12120, Note_on_c, 0, 69, 127
2, 12216, Note_off_c, 0, 69, 64
2, 12216, Note_off_c, 0, 76, 64
2, 12216, Note_off_c, 0, 72, 64
2, 12240, Note_on_c, 0, 69, 127
2, 12240, Note_on_c, 0, 72, 127
2, 12240, Note_on_c, 0, 78, 127
2, 12288, Note_off_c, 0, 78, 64
2, 12300, Note_on_c, 0, 76, 127
2, 12336, Note_off_c, 0, 72, 64
2, 12336, Note_off_c, 0, 69, 64
2, 12348, Note_off_c, 0, 76, 64
2, 12360, Note_on_c, 0, 72, 127
2, 12360, Note_on_c, 0, 78, 127
2, 12408, Note_off_c, 0, 78, 64
2, 12420, Note_on_c, 0, 79, 127
2, 12456, Note_off_c, 0, 72, 64
2, 12468, Note_off_c, 0, 79, 64
2, 12480, Note_on_c, 0, 71, 127
2, 12480, Note_on_c, 0, 78, 127
2, 12528, Note_off_c, 0, 78, 64
2, 12540, Note_on_c, 0, 81, 127
2, 12576, Note_off_c, 0, 71, 64
2, 12588, Note_off_c, 0, 81, 64
2, 12600, Note_on_c, 0, 74, 127
2, 12600, Note_on_c, 0, 69, 127
2, 12648, Note_off_c, 0, 74, 64
2, 12660, Note_on_c, 0, 81, 127
2, 12696, Note_off_c, 0, 69, 64
2, 12708, Note_off_c, 0, 81, 64
2, 12720, Note_on_c, 0, 76, 127
2, 12720, Note_on_c, 0, 67, 127
2, 12768, Note_off_c, 0, 76, 64
2, 12780, Note_on_c, 0, 81, 127
2, 12816, Note_off_c, 0, 67, 64
2, 12828, Note_off_c, 0, 81, 64
2, 12840, Note_on_c, 0, 78, 127
2, 12840, Note_on_c, 0, 66, 127
2, 12888, Note_off_c, 0, 78, 64
2, 12900, Note_on_c, 0, 81, 127
2, 12936, Note_off_c, 0, 66, 64
2, 12948, Note_off_c, 0, 81, 64
2, 12960, Note_on_c, 0, 79, 127
2, 12960, Note_on_c, 0, 74, 127
2, 13008, Note_off_c, 0, 79, 64
2, 13020, Note_on_c, 0, 78, 127
2, 13056, Note_off_c, 0, 74, 64
2, 13068, Note_off_c, 0, 78, 64
2, 13080, Note_on_c, 0, 79, 127
2, 13128, Note_off_c, 0, 79, 64
2, 13140, Note_on_c, 0, 81, 127
2, 13188, Note_off_c, 0, 81, 64
2, 13200, Note_on_c, 0, 79, 127
2, 13248, Note_off_c, 0, 79, 64
2, 13260, Note_on_c, 0, 83, 127
2, 13308, Note_off_c, 0, 83, 64
2, 13320, Note_on_c, 0, 76, 127
2, 13320, Note_on_c, 0, 67, 127
2, 13368, Note_off_c, 0, 76, 64
2, 13380, Note_on_c, 0, 83, 127
2, 13416, Note_off_c, 0, 67, 64
2, 13428, Note_off_c, 0, 83, 64
2, 13440, Note_on_c, 0, 66, 127
2, 13440, Note_on_c, 0, 78, 127
2, 13488, Note_off_c, 0, 78, 64
2, 13500, Note_on_c, 0, 83, 127
2, 13536, Note_off_c, 0, 66, 64
2, 13548, Note_off_c, 0, 83, 64
2, 13560, Note_on_c, 0, 79, 127
2, 13560, Note_on_c, 0, 64, 127
2, 13608, Note_off_c, 0, 79, 64
2, 13620, Note_on_c, 0, 83, 127
2, 13656, Note_off_c, 0, 64, 64
2, 13668, Note_off_c, 0, 83, 64
2, 13680, Note_on_c, 0, 62, 127
2, 13680, Note_on_c, 0, 81, 127
2, 13728, Note_off_c, 0, 81, 64
2, 13740, Note_on_c, 0, 79, 127
2, 13788, Note_off_c, 0, 79, 64
2, 13800, Note_on_c, 0, 81, 127
2, 13848, Note_off_c, 0, 81, 64
2, 13860, Note_on_c, 0, 83, 127
2, 13872, Note_off_c, 0, 62, 64
2, 13908, Note_off_c, 0, 83, 64
2, 13920, Note_on_c, 0, 81, 127
2, 13968, Note_off_c, 0, 81, 64
2, 13980, Note_on_c, 0, 84, 127
2, 14028, Note_off_c, 0, 84, 64
2, 14040, Note_on_c, 0, 66, 127
2, 14040, Note_on_c, 0, 79, 127
2, 14088, Note_off_c, 0, 79, 64
2, 14100, Note_on_c, 0, 84, 127
2, 14136, Note_off_c, 0, 66, 64
2, 14148, Note_off_c, 0, 84, 64
2, 14160, Note_on_c, 0, 78, 127
2, 14160, Note_on_c, 0, 67, 127
2, 14208, Note_off_c, 0, 78, 64
2, 14220, Note_on_c, 0, 84, 127
2, 14256, Note_off_c, 0, 67, 64
2, 14268, Note_off_c, 0, 84, 64
2, 14280, Note_on_c, 0, 69, 127
2, 14280, Note_on_c, 0, 76, 127
2, 14328, Note_off_c, 0, 76, 64
2, 14340, Note_on_c, 0, 84, 127
2, 14376, Note_off_c, 0, 69, 64
2, 14388, Note_off_c, 0, 84, 64
2, 14400, Note_on_c, 0, 74, 127
2, 14400, Note_on_c, 0, 71, 127
2, 14496, Note_off_c, 0, 71, 64
2, 14496, Note_off_c, 0, 74, 64
2, 14520, Note_on_c, 0, 74, 127
2, 14520, Note_on_c, 0, 79, 127
2, 14520, Note_on_c, 0, 83, 127
2, 14616, Note_off_c, 0, 83, 64
2, 14616, Note_off_c, 0, 79, 64
2, 14616, Note_off_c, 0, 74, 64
2, 14640, Note_on_c, 0, 74, 127
2, 14640, Note_on_c, 0, 79, 127
2, 14640, Note_on_c, 0, 83, 127
2, 14736, Note_off_c, 0, 83, 64
2, 14736, Note_off_c, 0, 79, 64
2, 14736, Note_off_c, 0, 74, 64
2, 14760, Note_on_c, 0, 83, 127
2, 14760, Note_on_c, 0, 74, 127
2, 14760, Note_on_c, 0, 79, 127
2, 14856, Note_off_c, 0, 79, 64
2, 14856, Note_off_c, 0, 74, 64
2, 14856, Note_off_c, 0, 83, 64
2, 14880, Note_on_c, 0, 74, 127
2, 14880, Note_on_c, 0, 79, 127
2, 14880, Note_on_c, 0, 83, 127
2, 14976, Note_off_c, 0, 83, 64
2, 14976, Note_off_c, 0, 79, 64
2, 14976, Note_off_c, 0, 74, 64
2, 15000, Note_on_c, 0, 79, 127
2, 15000, Note_on_c, 0, 74, 127
2, 15000, Note_on_c, 0, 83, 127
2, 15096, Note_off_c, 0, 83, 64
2, 15096, Note_off_c, 0, 74, 64
2, 15096, Note_off_c, 0, 79, 64
2, 15120, Note_on_c, 0, 79, 127
2, 15120, Note_on_c, 0, 76, 127
2, 15120, Note_on_c, 0, 83, 127
2, 15216, Note_off_c, 0, 83, 64
2, 15216, Note_off_c, 0, 76, 64
2, 15216, Note_off_c, 0, 79, 64
2, 15240, Note_on_c, 0, 81, 127
2, 15240, Note_on_c, 0, 76, 127
2, 15240, Note_on_c, 0, 73, 127
2, 15336, Note_off_c, 0, 73, 64
2, 15336, Note_off_c, 0, 76, 64
2, 15336, Note_off_c, 0, 81, 64
2, 15360, Note_on_c, 0, 73, 127
2, 15360, Note_on_c, 0, 81, 127
2, 15360, Note_on_c, 0, 78, 127
2, 15456, Note_off_c, 0, 78, 64
2, 15456, Note_off_c, 0, 81, 64
2, 15456, Note_off_c, 0, 73, 64
2, 15480, Note_on_c, 0, 81, 127
2, 15480, Note_on_c, 0, 73, 127
2, 15480, Note_on_c, 0, 78, 127
2, 15576, Note_off_c, 0, 78, 64
2, 15576, Note_off_c, 0, 73, 64
2, 15576, Note_off_c, 0, 81, 64
2, 15600, Note_on_c, 0, 73, 127
2, 15600, Note_on_c, 0, 81, 127
2, 15600, Note_on_c, 0, 78, 127
2, 15696, Note_off_c, 0, 78, 64
2, 15696, Note_off_c, 0, 81, 64
2, 15696, Note_off_c, 0, 73, 64
2, 15720, Note_on_c, 0, 73, 127
2, 15720, Note_on_c, 0, 78, 127
2, 15720, Note_on_c, 0, 81, 127
2, 15816, Note_off_c, 0, 81, 64
2, 15816, Note_off_c, 0, 78, 64
2, 15816, Note_off_c, 0, 73, 64
2, 15840, Note_on_c, 0, 81, 127
2, 15840, Note_on_c, 0, 74, 127
2, 15840, Note_on_c, 0, 78, 127
2, 15936, Note_off_c, 0, 78, 64
2, 15936, Note_off_c, 0, 74, 64
2, 15936, Note_off_c, 0, 81, 64
2, 15960, Note_on_c, 0, 79, 127
2, 15960, Note_on_c, 0, 74, 127
2, 15960, Note_on_c, 0, 71, 127
2, 16056, Note_off_c, 0, 71, 64
2, 16056, Note_off_c, 0, 74, 64
2, 16056, Note_off_c, 0, 79, 64
2, 16080, Note_on_c, 0, 71, 127
2, 16080, Note_on_c, 0, 79, 127
2, 16080, Note_on_c, 0, 76, 127
2, 16176, Note_off_c, 0, 76, 64
2, 16176, Note_off_c, 0, 79, 64
2, 16176, Note_off_c, 0, 71, 64
2, 16200, Note_on_c, 0, 76, 127
2, 16200, Note_on_c, 0, 71, 127
2, 16200, Note_on_c, 0, 79, 127
2, 16296, Note_off_c, 0, 79, 64
2, 16296, Note_off_c, 0, 71, 64
2, 16296, Note_off_c, 0, 76, 64
2, 16320, Note_on_c, 0, 71, 127
2, 16320, Note_on_c, 0, 79, 127
2, 16320, Note_on_c, 0, 76, 127
2, 16416, Note_off_c, 0, 76, 64
2, 16416, Note_off_c, 0, 79, 64
2, 16416, Note_off_c, 0, 71, 64
2, 16440, Note_on_c, 0, 71, 127
2, 16440, Note_on_c, 0, 79, 127
2, 16440, Note_on_c, 0, 76, 127
2, 16536, Note_off_c, 0, 76, 64
2, 16536, Note_off_c, 0, 79, 64
2, 16536, Note_off_c, 0, 71, 64
2, 16560, Note_on_c, 0, 73, 127
2, 16560, Note_on_c, 0, 69, 127
2, 16560, Note_on_c, 0, 79, 127
2, 16608, Note_off_c, 0, 79, 64
2, 16620, Note_on_c, 0, 83, 127
2, 16656, Note_off_c, 0, 69, 64
2, 16656, Note_off_c, 0, 73, 64
2, 16668, Note_off_c, 0, 83, 64
2, 16680, Note_on_c, 0, 76, 127
2, 16728, Note_off_c, 0, 76, 64
2, 16740, Note_on_c, 0, 79, 127
2, 16788, Note_off_c, 0, 79, 64
2, 16800, Note_on_c, 0, 73, 127
2, 16848, Note_off_c, 0, 73, 64
2, 16860, Note_on_c, 0, 78, 127
2, 16908, Note_off_c, 0, 78, 64
2, 16920, Note_on_c, 0, 76, 127
2, 16968, Note_off_c, 0, 76, 64
2, 16980, Note_on_c, 0, 74, 127
2, 17028, Note_off_c, 0, 74, 64
2, 17040, Note_on_c, 0, 73, 127
2, 17088, Note_off_c, 0, 73, 64
2, 17100, Note_on_c, 0, 71, 127
2, 17148, Note_off_c, 0, 71, 64
2, 17160, Note_on_c, 0, 69, 127
2, 17208, Note_off_c, 0, 69, 64
2, 17220, Note_on_c, 0, 67, 127
2, 17268, Note_off_c, 0, 67, 64
2, 17280, Note_on_c, 0, 81, 127
2, 17280, Note_on_c, 0, 74, 127
2, 17280, Note_on_c, 0, 78, 127
2, 17376, Note_off_c, 0, 78, 64
2, 17376, Note_off_c, 0, 74, 64
2, 17376, Note_off_c, 0, 81, 64
2, 18000, Note_on_c, 0, 77, 127
2, 18000, Note_on_c, 0, 74, 127
2, 18000, Note_on_c, 0, 83, 127
2, 18096, Note_off_c, 0, 83, 64
2, 18096, Note_off_c, 0, 74, 64
2, 18096, Note_off_c, 0, 77, 64
2, 18840, Note_on_c, 0, 79, 127
2, 18840, Note_on_c, 0, 83, 127
2, 18936, Note_off_c, 0, 83, 64
2, 18936, Note_off_c, 0, 79, 64
2, 18960, Note_on_c, 0, 81, 127
2, 18960, Note_on_c, 0, 78, 127
2, 19056, Note_off_c, 0, 78, 64
2, 19056, Note_off_c, 0, 81, 64
2, 19080, Note_on_c, 0, 79, 127
2, 19080, Note_on_c, 0, 76, 127
2, 19176, Note_off_c, 0, 76, 64
2, 19176, Note_off_c, 0, 79, 64
2, 19200, Note_on_c, 0, 74, 127
2, 19200, Note_on_c, 0, 78, 127
2, 19296, Note_off_c, 0, 78, 64
2, 19296, Note_off_c, 0, 74, 64
2, 19320, Note_on_c, 0, 73, 127
2, 19320, Note_on_c, 0, 76, 127
2, 19416, Note_off_c, 0, 76, 64
2, 19416, Note_off_c, 0, 73, 64
2, 19440, Note_on_c, 0, 74, 127
2, 19440, Note_on_c, 0, 74, 127
2, 19488, Note_off_c, 0, 74, 64
2, 19500, Note_on_c, 0, 71, 127
2, 19548, Note_off_c, 0, 71, 64
2, 19560, Note_on_c, 0, 69, 127
2, 19608, Note_off_c, 0, 69, 64
2, 19620, Note_on_c, 0, 67, 127
2, 19632, Note_off_c, 0, 74, 64
2, 19668, Note_off_c, 0, 67, 64
2, 19680, Note_on_c, 0, 66, 127
2, 19740, Note_on_c, 0, 74, 127
2, 19788, Note_off_c, 0, 74, 64
2, 19800, Note_on_c, 0, 74, 127
2, 19824, Note_off_c, 0, 66, 64
2, 19860, Note_on_c, 0, 66, 127
2, 19908, Note_off_c, 0, 66, 64
2, 19920, Note_on_c, 0, 64, 127
2, 19968, Note_off_c, 0, 74, 64
2, 19980, Note_on_c, 0, 74, 127
2, 20016, Note_off_c, 0, 64, 64
2, 20040, Note_on_c, 0, 67, 127
2, 20040, Note_on_c, 0, 64, 127
2, 20076, Note_off_c, 0, 74, 64
2, 20100, Note_on_c, 0, 73, 127
2, 20136, Note_off_c, 0, 64, 64
2, 20136, Note_off_c, 0, 67, 64
2, 20148, Note_off_c, 0, 73, 64
2, 20160, Note_on_c, 0, 66, 127
2, 20160, Note_on_c, 0, 74, 127
2, 20160, Note_on_c, 0, 62, 127
2, 20256, Note_off_c, 0, 62, 64
2, 20256, Note_off_c, 0, 74, 64
2, 20256, Note_off_c, 0, 66, 64
2, 20280, Note_on_c, 0, 73, 127
2, 20328, Note_off_c, 0, 73, 64
2, 20340, Note_on_c, 0, 71, 127
2, 20388, Note_off_c, 0, 71, 64
2, 20400, Note_on_c, 0, 69, 127
2, 20448, Note_off_c, 0, 69, 64
2, 20460, Note_on_c, 0, 67, 127
2, 20508, Note_off_c, 0, 67, 64
2, 20520, Note_on_c, 0, 66, 127
2, 20568, Note_off_c, 0, 66, 64
2, 20580, Note_on_c, 0, 64, 127
2, 20628, Note_off_c, 0, 64, 64
2, 20640, Note_on_c, 0, 66, 127
2, 20688, Note_off_c, 0, 66, 64
2, 20700, Note_on_c, 0, 69, 127
2, 20748, Note_off_c, 0, 69, 64
2, 20760, Note_on_c, 0, 62, 127
2, 20808, Note_off_c, 0, 62, 64
2, 20820, Note_on_c, 0, 66, 127
2, 20868, Note_off_c, 0, 66, 64
2, 21840, Note_on_c, 0, 62, 127
2, 21888, Note_off_c, 0, 62, 64
2, 21900, Note_on_c, 0, 66, 127
2, 21948, Note_off_c, 0, 66, 64
2, 21960, Note_on_c, 0, 57, 127
2, 22008, Note_off_c, 0, 57, 64
2, 22020, Note_on_c, 0, 62, 127
2, 22068, Note_off_c, 0, 62, 64
2, 22080, Note_on_c, 0, 66, 127
2, 22128, Note_off_c, 0, 66, 64
2, 22140, Note_on_c, 0, 69, 127
2, 22188, Note_off_c, 0, 69, 64
2, 22200, Note_on_c, 0, 62, 127
2, 22248, Note_off_c, 0, 62, 64
2, 22260, Note_on_c, 0, 66, 127
2, 22308, Note_off_c, 0, 66, 64
2, 22320, Note_on_c, 0, 69, 127
2, 22440, Note_on_c, 0, 78, 127
2, 22488, Note_off_c, 0, 78, 64
2, 22500, Note_on_c, 0, 76, 127
2, 22548, Note_off_c, 0, 76, 64
2, 22560, Note_on_c, 0, 78, 127
2, 22608, Note_off_c, 0, 78, 64
2, 22620, Note_on_c, 0, 79, 127
2, 22668, Note_off_c, 0, 79, 64
2, 22680, Note_on_c, 0, 78, 127
2, 22728, Note_off_c, 0, 78, 64
2, 22740, Note_on_c, 0, 76, 127
2, 22788, Note_off_c, 0, 76, 64
2, 22800, Note_on_c, 0, 75, 127
2, 22848, Note_off_c, 0, 75, 64
2, 22860, Note_on_c, 0, 73, 127
2, 22908, Note_off_c, 0, 73, 64
2, 22920, Note_on_c, 0, 71, 127
2, 22968, Note_off_c, 0, 71, 64
2, 22980, Note_on_c, 0, 72, 127
2, 23028, Note_off_c, 0, 72, 64
2, 23040, Note_on_c, 0, 71, 127
2, 23088, Note_off_c, 0, 69, 64
2, 23100, Note_on_c, 0, 67, 127
2, 23136, Note_off_c, 0, 71, 64
2, 23148, Note_off_c, 0, 67, 64
2, 23160, Note_on_c, 0, 66, 127
2, 23208, Note_off_c, 0, 66, 64
2, 23220, Note_on_c, 0, 64, 127
2, 23268, Note_off_c, 0, 64, 64
2, 23280, Note_on_c, 0, 63, 127
2, 23328, Note_off_c, 0, 63, 64
2, 23340, Note_on_c, 0, 64, 127
2, 23388, Note_off_c, 0, 64, 64
2, 23400, Note_on_c, 0, 66, 127
2, 23448, Note_off_c, 0, 66, 64
2, 23460, Note_on_c, 0, 67, 127
2, 23508, Note_off_c, 0, 67, 64
2, 23520, Note_on_c, 0, 69, 127
2, 23568, Note_off_c, 0, 69, 64
2, 23580, Note_on_c, 0, 67, 127
2, 23628, Note_off_c, 0, 67, 64
2, 23640, Note_on_c, 0, 69, 127
2, 23688, Note_off_c, 0, 69, 64
2, 23700, Note_on_c, 0, 66, 127
2, 23748, Note_off_c, 0, 66, 64
2, 23760, Note_on_c, 0, 67, 127
2, 23880, Note_on_c, 0, 79, 127
2, 23928, Note_off_c, 0, 79, 64
2, 23940, Note_on_c, 0, 78, 127
2, 23988, Note_off_c, 0, 78, 64
2, 24000, Note_on_c, 0, 79, 127
2, 24048, Note_off_c, 0, 79, 64
2, 24060, Note_on_c, 0, 81, 127
2, 24108, Note_off_c, 0, 81, 64
2, 24120, Note_on_c, 0, 79, 127
2, 24168, Note_off_c, 0, 79, 64
2, 24180, Note_on_c, 0, 78, 127
2, 24228, Note_off_c, 0, 78, 64
2, 24240, Note_on_c, 0, 76, 127
2, 24288, Note_off_c, 0, 76, 64
2, 24300, Note_on_c, 0, 74, 127
2, 24348, Note_off_c, 0, 74, 64
2, 24360, Note_on_c, 0, 72, 127
2, 24408, Note_off_c, 0, 72, 64
2, 24420, Note_on_c, 0, 71, 127
2, 24468, Note_off_c, 0, 71, 64
2, 24480, Note_on_c, 0, 69, 127
2, 24528, Note_off_c, 0, 67, 64
2, 24540, Note_on_c, 0, 67, 127
2, 24576, Note_off_c, 0, 69, 64
2, 24588, Note_off_c, 0, 67, 64
2, 24600, Note_on_c, 0, 66, 127
2, 24648, Note_off_c, 0, 66, 64
2, 24660, Note_on_c, 0, 64, 127
2, 24708, Note_off_c, 0, 64, 64
2, 25200, Note_on_c, 0, 72, 127
2, 25320, Note_on_c, 0, 69, 127
2, 25368, Note_off_c, 0, 69, 64
2, 25380, Note_on_c, 0, 71, 127
2, 25428, Note_off_c, 0, 71, 64
2, 25440, Note_on_c, 0, 69, 127
2, 25500, Note_on_c, 0, 67, 127
2, 25548, Note_off_c, 0, 67, 64
2, 25560, Note_on_c, 0, 66, 127
2, 25608, Note_off_c, 0, 66, 64
2, 25620, Note_on_c, 0, 64, 127
2, 25668, Note_off_c, 0, 64, 64
2, 25680, Note_on_c, 0, 66, 127
2, 26016, Note_off_c, 0, 69, 64
2, 26016, Note_off_c, 0, 66, 64
2, 26016, Note_off_c, 0, 72, 64
2, 26160, Note_on_c, 0, 62, 127
2, 26208, Note_off_c, 0, 62, 64
2, 26220, Note_on_c, 0, 64, 127
2, 26268, Note_off_c, 0, 64, 64
2, 26280, Note_on_c, 0, 66, 127
2, 26328, Note_off_c, 0, 66, 64
2, 26340, Note_on_c, 0, 67, 127
2, 26388, Note_off_c, 0, 67, 64
2, 26400, Note_on_c, 0, 69, 127
2, 26448, Note_off_c, 0, 69, 64
2, 26460, Note_on_c, 0, 71, 127
2, 26508, Note_off_c, 0, 71, 64
2, 26520, Note_on_c, 0, 72, 127
2, 26568, Note_off_c, 0, 72, 64
2, 26580, Note_on_c, 0, 66, 127
2, 26628, Note_off_c, 0, 66, 64
2, 26640, Note_on_c, 0, 67, 127
2, 26640, Note_on_c, 0, 62, 127
2, 26640, Note_on_c, 0, 71, 127
2, 26736, Note_off_c, 0, 62, 64
2, 26760, Note_on_c, 0, 62, 127
2, 26832, Note_off_c, 0, 71, 64
2, 26832, Note_off_c, 0, 67, 64
2, 26856, Note_off_c, 0, 62, 64
2, 26880, Note_on_c, 0, 67, 127
2, 27000, Note_on_c, 0, 71, 127
2, 27096, Note_off_c, 0, 71, 64
2, 27120, Note_on_c, 0, 76, 127
2, 27216, Note_off_c, 0, 67, 64
2, 27240, Note_on_c, 0, 67, 127
2, 27336, Note_off_c, 0, 67, 64
2, 27360, Note_on_c, 0, 66, 127
2, 27408, Note_off_c, 0, 76, 64
2, 27420, Note_on_c, 0, 79, 127
2, 27468, Note_off_c, 0, 79, 64
2, 27480, Note_on_c, 0, 78, 127
2, 27528, Note_off_c, 0, 78, 64
2, 27540, Note_on_c, 0, 79, 127
2, 27552, Note_off_c, 0, 66, 64
2, 27588, Note_off_c, 0, 79, 64
2, 27600, Note_on_c, 0, 76, 127
2, 27648, Note_off_c, 0, 76, 64
2, 27660, Note_on_c, 0, 79, 127
2, 27708, Note_off_c, 0, 79, 64
2, 27720, Note_on_c, 0, 74, 127
2, 27768, Note_off_c, 0, 74, 64
2, 27780, Note_on_c, 0, 79, 127
2, 27828, Note_off_c, 0, 79, 64
2, 27840, Note_on_c, 0, 73, 127
2, 27888, Note_off_c, 0, 73, 64
2, 27900, Note_on_c, 0, 79, 127
2, 27948, Note_off_c, 0, 79, 64
2, 27960, Note_on_c, 0, 71, 127
2, 28008, Note_off_c, 0, 71, 64
2, 28020, Note_on_c, 0, 79, 127
2, 28068, Note_off_c, 0, 79, 64
2, 28080, Note_on_c, 0, 70, 127
2, 28128, Note_off_c, 0, 70, 64
2, 28140, Note_on_c, 0, 76, 127
2, 28140, Note_on_c, 0, 67, 127
2, 28188, Note_off_c, 0, 67, 64
2, 28188, Note_off_c, 0, 76, 64
2, 28200, Note_on_c, 0, 74, 127
2, 28200, Note_on_c, 0, 66, 127
2, 28248, Note_off_c, 0, 66, 64
2, 28248, Note_off_c, 0, 74, 64
2, 28260, Note_on_c, 0, 76, 127
2, 28260, Note_on_c, 0, 67, 127
2, 28308, Note_off_c, 0, 67, 64
2, 28308, Note_off_c, 0, 76, 64
2, 28320, Note_on_c, 0, 64, 127
2, 28320, Note_on_c, 0, 73, 127
2, 28368, Note_off_c, 0, 73, 64
2, 28368, Note_off_c, 0, 64, 64
2, 28380, Note_on_c, 0, 67, 127
2, 28380, Note_on_c, 0, 76, 127
2, 28428, Note_off_c, 0, 76, 64
2, 28428, Note_off_c, 0, 67, 64
2, 28440, Note_on_c, 0, 62, 127
2, 28440, Note_on_c, 0, 71, 127
2, 28488, Note_off_c, 0, 71, 64
2, 28488, Note_off_c, 0, 62, 64
2, 28500, Note_on_c, 0, 67, 127
2, 28500, Note_on_c, 0, 76, 127
2, 28548, Note_off_c, 0, 76, 64
2, 28548, Note_off_c, 0, 67, 64
2, 28560, Note_on_c, 0, 70, 127
2, 28560, Note_on_c, 0, 61, 127
2, 28608, Note_off_c, 0, 61, 64
2, 28608, Note_off_c, 0, 70, 64
2, 28620, Note_on_c, 0, 76, 127
2, 28620, Note_on_c, 0, 67, 127
2, 28668, Note_off_c, 0, 67, 64
2, 28668, Note_off_c, 0, 76, 64
2, 28680, Note_on_c, 0, 59, 127
2, 28680, Note_on_c, 0, 67, 127
2, 28728, Note_off_c, 0, 67, 64
2, 28728, Note_off_c, 0, 59, 64
2, 28740, Note_on_c, 0, 76, 127
2, 28740, Note_on_c, 0, 67, 127
2, 28788, Note_off_c, 0, 67, 64
2, 28788, Note_off_c, 0, 76, 64
2, 28800, Note_on_c, 0, 66, 127
2, 28848, Note_off_c, 0, 66, 64
2, 28860, Note_on_c, 0, 64, 127
2, 28908, Note_off_c, 0, 64, 64
2, 28920, Note_on_c, 0, 67, 127
2, 28968, Note_off_c, 0, 67, 64
2, 28980, Note_on_c, 0, 66, 127
2, 29028, Note_off_c, 0, 66, 64
2, 29040, Note_on_c, 0, 64, 127
2, 29088, Note_off_c, 0, 64, 64
2, 29100, Note_on_c, 0, 62, 127
2, 29148, Note_off_c, 0, 62, 64
2, 29160, Note_on_c, 0, 61, 127
2, 29208, Note_off_c, 0, 61, 64
2, 29220, Note_on_c, 0, 59, 127
2, 29268, Note_off_c, 0, 59, 64
2, 29640, Note_on_c, 0, 78, 127
2, 29640, Note_on_c, 0, 66, 127
2, 29736, Note_off_c, 0, 66, 64
2, 29736, Note_off_c, 0, 78, 64
2, 29760, Note_on_c, 0, 71, 127
2, 29760, Note_on_c, 0, 76, 127
2, 29808, Note_off_c, 0, 76, 64
2, 29820, Note_on_c, 0, 74, 127
2, 29856, Note_off_c, 0, 71, 64
2, 29868, Note_off_c, 0, 74, 64
2, 29880, Note_on_c, 0, 67, 127
2, 29880, Note_on_c, 0, 73, 127
2, 29928, Note_off_c, 0, 73, 64
2, 29940, Note_on_c, 0, 71, 127
2, 29976, Note_off_c, 0, 67, 64
2, 29988, Note_off_c, 0, 71, 64
2, 30000, Note_on_c, 0, 66, 127
2, 30000, Note_on_c, 0, 74, 127
2, 30048, Note_off_c, 0, 74, 64
2, 30060, Note_on_c, 0, 73, 127
2, 30096, Note_off_c, 0, 66, 64
2, 30108, Note_off_c, 0, 73, 64
2, 30120, Note_on_c, 0, 71, 127
2, 30120, Note_on_c, 0, 66, 127
2, 30168, Note_off_c, 0, 71, 64
2, 30180, Note_on_c, 0, 70, 127
2, 30216, Note_off_c, 0, 66, 64
2, 30228, Note_off_c, 0, 70, 64
2, 30240, Note_on_c, 0, 66, 127
2, 30240, Note_on_c, 0, 71, 127
2, 30288, Note_off_c, 0, 71, 64
2, 30300, Note_on_c, 0, 70, 127
2, 30336, Note_off_c, 0, 66, 64
2, 30348, Note_off_c, 0, 70, 64
2, 30360, Note_on_c, 0, 71, 127
2, 30360, Note_on_c, 0, 64, 127
2, 30408, Note_off_c, 0, 71, 64
2, 30420, Note_on_c, 0, 79, 127
2, 30456, Note_off_c, 0, 64, 64
2, 30468, Note_off_c, 0, 79, 64
2, 30480, Note_on_c, 0, 66, 127
2, 30480, Note_on_c, 0, 71, 127
2, 30528, Note_off_c, 0, 71, 64
2, 30540, Note_on_c, 0, 78, 127
2, 30576, Note_off_c, 0, 66, 64
2, 30588, Note_off_c, 0, 78, 64
2, 30600, Note_on_c, 0, 61, 127
2, 30600, Note_on_c, 0, 66, 127
2, 30648, Note_off_c, 0, 66, 64
2, 30660, Note_on_c, 0, 76, 127
2, 30696, Note_off_c, 0, 61, 64
2, 30708, Note_off_c, 0, 76, 64
2, 30720, Note_on_c, 0, 62, 127
2, 30720, Note_on_c, 0, 68, 127
2, 30768, Note_off_c, 0, 68, 64
2, 30780, Note_on_c, 0, 74, 127
2, 30816, Note_off_c, 0, 62, 64
2, 30828, Note_off_c, 0, 74, 64
2, 30840, Note_on_c, 0, 64, 127
2, 30840, Note_on_c, 0, 70, 127
2, 30888, Note_off_c, 0, 70, 64
2, 30900, Note_on_c, 0, 73, 127
2, 30936, Note_off_c, 0, 64, 64
2, 30948, Note_off_c, 0, 73, 64
2, 30960, Note_on_c, 0, 71, 127
2, 30960, Note_on_c, 0, 66, 127
2, 31008, Note_off_c, 0, 71, 64
2, 31020, Note_on_c, 0, 70, 127
2, 31056, Note_off_c, 0, 66, 64
2, 31068, Note_off_c, 0, 70, 64
2, 31080, Note_on_c, 0, 71, 127
2, 31080, Note_on_c, 0, 64, 127
2, 31128, Note_off_c, 0, 71, 64
2, 31140, Note_on_c, 0, 74, 127
2, 31176, Note_off_c, 0, 64, 64
2, 31188, Note_off_c, 0, 74, 64
2, 31200, Note_on_c, 0, 71, 127
2, 31200, Note_on_c, 0, 66, 127
2, 31248, Note_off_c, 0, 71, 64
2, 31260, Note_on_c, 0, 76, 127
2, 31296, Note_off_c, 0, 66, 64
2, 31308, Note_off_c, 0, 76, 64
2, 31320, Note_on_c, 0, 70, 127
2, 31368, Note_off_c, 0, 70, 64
2, 31380, Note_on_c, 0, 78, 127
2, 31428, Note_off_c, 0, 78, 64
2, 31440, Note_on_c, 0, 71, 127
2, 31488, Note_off_c, 0, 71, 64
2, 31500, Note_on_c, 0, 80, 127
2, 31548, Note_off_c, 0, 80, 64
2, 31560, Note_on_c, 0, 73, 127
2, 31560, Note_on_c, 0, 73, 127
2, 31608, Note_off_c, 0, 73, 64
2, 31620, Note_on_c, 0, 82, 127
2, 31656, Note_off_c, 0, 73, 64
2, 31668, Note_off_c, 0, 82, 64
2, 31680, Note_on_c, 0, 83, 127
2, 31680, Note_on_c, 0, 74, 127
2, 31776, Note_off_c, 0, 74, 64
2, 31776, Note_off_c, 0, 83, 64
2, 31800, Note_on_c, 0, 66, 127
2, 31800, Note_on_c, 0, 78, 127
2, 31896, Note_off_c, 0, 78, 64
2, 31896, Note_off_c, 0, 66, 64
2, 31920, Note_on_c, 0, 67, 127
2, 31920, Note_on_c, 0, 76, 127
2, 31968, Note_off_c, 0, 76, 64
2, 31980, Note_on_c, 0, 74, 127
2, 32016, Note_off_c, 0, 67, 64
2, 32028, Note_off_c, 0, 74, 64
2, 32040, Note_on_c, 0, 73, 127
2, 32040, Note_on_c, 0, 67, 127
2, 32088, Note_off_c, 0, 73, 64
2, 32100, Note_on_c, 0, 71, 127
2, 32136, Note_off_c, 0, 67, 64
2, 32148, Note_off_c, 0, 71, 64
2, 32160, Note_on_c, 0, 66, 127
2, 32160, Note_on_c, 0, 66, 127
2, 32256, Note_off_c, 0, 66, 64
2, 32256, Note_off_c, 0, 66, 64
2, 32280, Note_on_c, 0, 71, 127
2, 32280, Note_on_c, 0, 64, 127
2, 32292, Note_off_c, 0, 71, 64
2, 32295, Note_on_c, 0, 70, 127
2, 32307, Note_off_c, 0, 70, 64
2, 32310, Note_on_c, 0, 71, 127
2, 32322, Note_off_c, 0, 71, 64
2, 32325, Note_on_c, 0, 70, 127
2, 32337, Note_off_c, 0, 70, 64
2, 32340, Note_on_c, 0, 71, 127
2, 32355, Note_off_c, 0, 71, 64
2, 32355, Note_on_c, 0, 70, 127
2, 32370, Note_off_c, 0, 70, 64
2, 32370, Note_on_c, 0, 71, 127
2, 32376, Note_off_c, 0, 64, 64
2, 32385, Note_off_c, 0, 71, 64
2, 32385, Note_on_c, 0, 70, 127
2, 32400, Note_off_c, 0, 70, 64
2, 32400, Note_on_c, 0, 66, 127
2, 32400, Note_on_c, 0, 71, 127
2, 32496, Note_off_c, 0, 71, 64
2, 32496, Note_off_c, 0, 66, 64
2, 32520, Note_on_c, 0, 74, 127
2, 32568, Note_off_c, 0, 74, 64
2, 32580, Note_on_c, 0, 73, 127
2, 32628, Note_off_c, 0, 73, 64
2, 32640, Note_on_c, 0, 74, 127
2, 32688, Note_off_c, 0, 74, 64
2, 32700, Note_on_c, 0, 77, 127
2, 32748, Note_off_c, 0, 77, 64
2, 32760, Note_on_c, 0, 71, 127
2, 32808, Note_off_c, 0, 71, 64
2, 32820, Note_on_c, 0, 74, 127
2, 32868, Note_off_c, 0, 74, 64
2, 32880, Note_on_c, 0, 68, 127
2, 32928, Note_off_c, 0, 68, 64
2, 32940, Note_on_c, 0, 71, 127
2, 32988, Note_off_c, 0, 71, 64
2, 33000, Note_on_c, 0, 62, 127
2, 33048, Note_off_c, 0, 62, 64
2, 33060, Note_on_c, 0, 65, 127
2, 33108, Note_off_c, 0, 65, 64
2, 33120, Note_on_c, 0, 74, 127
2, 33240, Note_on_c, 0, 71, 127
2, 33288, Note_off_c, 0, 71, 64
2, 33300, Note_on_c, 0, 69, 127
2, 33348, Note_off_c, 0, 69, 64
2, 33360, Note_on_c, 0, 71, 127
2, 33408, Note_off_c, 0, 71, 64
2, 33420, Note_on_c, 0, 72, 127
2, 33468, Note_off_c, 0, 72, 64
2, 33480, Note_on_c, 0, 71, 127
2, 33528, Note_off_c, 0, 71, 64
2, 33540, Note_on_c, 0, 69, 127
2, 33588, Note_off_c, 0, 69, 64
2, 33600, Note_on_c, 0, 68, 127
2, 33648, Note_off_c, 0, 68, 64
2, 33660, Note_on_c, 0, 69, 127
2, 33708, Note_off_c, 0, 69, 64
2, 33720, Note_on_c, 0, 71, 127
2, 33768, Note_off_c, 0, 71, 64
2, 33780, Note_on_c, 0, 68, 127
2, 33828, Note_off_c, 0, 68, 64
2, 33840, Note_on_c, 0, 64, 127
2, 33888, Note_off_c, 0, 74, 64
2, 33900, Note_on_c, 0, 72, 127
2, 33936, Note_off_c, 0, 64, 64
2, 33948, Note_off_c, 0, 72, 64
2, 33960, Note_on_c, 0, 71, 127
2, 34008, Note_off_c, 0, 71, 64
2, 34020, Note_on_c, 0, 72, 127
2, 34068, Note_off_c, 0, 72, 64
2, 34080, Note_on_c, 0, 74, 127
2, 34128, Note_off_c, 0, 74, 64
2, 34140, Note_on_c, 0, 76, 127
2, 34188, Note_off_c, 0, 76, 64
2, 34200, Note_on_c, 0, 77, 127
2, 34248, Note_off_c, 0, 77, 64
2, 34260, Note_on_c, 0, 76, 127
2, 34308, Note_off_c, 0, 76, 64
2, 34320, Note_on_c, 0, 74, 127
2, 34368, Note_off_c, 0, 74, 64
2, 34380, Note_on_c, 0, 72, 127
2, 34428, Note_off_c, 0, 72, 64
2, 34440, Note_on_c, 0, 74, 127
2, 34488, Note_off_c, 0, 74, 64
2, 34500, Note_on_c, 0, 71, 127
2, 34548, Note_off_c, 0, 71, 64
2, 34560, Note_on_c, 0, 69, 127
2, 34560, Note_on_c, 0, 72, 127
2, 34752, Note_off_c, 0, 69, 64
2, 34920, Note_on_c, 0, 64, 127
2, 35016, Note_off_c, 0, 64, 64
2, 35040, Note_on_c, 0, 69, 127
2, 35136, Note_off_c, 0, 69, 64
2, 35160, Note_on_c, 0, 67, 127
2, 35256, Note_off_c, 0, 67, 64
2, 35280, Note_on_c, 0, 66, 127
2, 35328, Note_off_c, 0, 72, 64
2, 35340, Note_on_c, 0, 71, 127
2, 35388, Note_off_c, 0, 71, 64
2, 35400, Note_on_c, 0, 72, 127
2, 35448, Note_off_c, 0, 72, 64
2, 35460, Note_on_c, 0, 81, 127
2, 35472, Note_off_c, 0, 66, 64
2, 35508, Note_off_c, 0, 81, 64
2, 35520, Note_on_c, 0, 78, 127
2, 35568, Note_off_c, 0, 78, 64
2, 35580, Note_on_c, 0, 81, 127
2, 35628, Note_off_c, 0, 81, 64
2, 35640, Note_on_c, 0, 74, 127
2, 35688, Note_off_c, 0, 74, 64
2, 35700, Note_on_c, 0, 78, 127
2, 35748, Note_off_c, 0, 78, 64
2, 35760, Note_on_c, 0, 69, 127
2, 35808, Note_off_c, 0, 69, 64
2, 35820, Note_on_c, 0, 74, 127
2, 35868, Note_off_c, 0, 74, 64
2, 35880, Note_on_c, 0, 66, 127
2, 35928, Note_off_c, 0, 66, 64
2, 35940, Note_on_c, 0, 69, 127
2, 35988, Note_off_c, 0, 69, 64
2, 36000, Note_on_c, 0, 72, 127
2, 36120, Note_on_c, 0, 69, 127
2, 36168, Note_off_c, 0, 69, 64
2, 36180, Note_on_c, 0, 67, 127
2, 36228, Note_off_c, 0, 67, 64
2, 36240, Note_on_c, 0, 69, 127
2, 36288, Note_off_c, 0, 69, 64
2, 36300, Note_on_c, 0, 71, 127
2, 36348, Note_off_c, 0, 71, 64
2, 36360, Note_on_c, 0, 69, 127
2, 36408, Note_off_c, 0, 69, 64
2, 36420, Note_on_c, 0, 67, 127
2, 36468, Note_off_c, 0, 67, 64
2, 36480, Note_on_c, 0, 66, 127
2, 36528, Note_off_c, 0, 66, 64
2, 36540, Note_on_c, 0, 67, 127
2, 36588, Note_off_c, 0, 67, 64
2, 36600, Note_on_c, 0, 69, 127
2, 36648, Note_off_c, 0, 69, 64
2, 36660, Note_on_c, 0, 66, 127
2, 36708, Note_off_c, 0, 66, 64
2, 36720, Note_on_c, 0, 62, 127
2, 36768, Note_off_c, 0, 72, 64
2, 36780, Note_on_c, 0, 71, 127
2, 36828, Note_off_c, 0, 71, 64
2, 36840, Note_on_c, 0, 69, 127
2, 36888, Note_off_c, 0, 69, 64
2, 36900, Note_on_c, 0, 71, 127
2, 36912, Note_off_c, 0, 62, 64
2, 36948, Note_off_c, 0, 71, 64
2, 36960, Note_on_c, 0, 72, 127
2, 37008, Note_off_c, 0, 72, 64
2, 37020, Note_on_c, 0, 74, 127
2, 37068, Note_off_c, 0, 74, 64
2, 37080, Note_on_c, 0, 76, 127
2, 37128, Note_off_c, 0, 76, 64
2, 37140, Note_on_c, 0, 74, 127
2, 37188, Note_off_c, 0, 74, 64
2, 37200, Note_on_c, 0, 72, 127
2, 37248, Note_off_c, 0, 72, 64
2, 37260, Note_on_c, 0, 71, 127
2, 37308, Note_off_c, 0, 71, 64
2, 37320, Note_on_c, 0, 72, 127
2, 37368, Note_off_c, 0, 72, 64
2, 37380, Note_on_c, 0, 69, 127
2, 37428, Note_off_c, 0, 69, 64
2, 37440, Note_on_c, 0, 71, 127
2, 37536, Note_off_c, 0, 71, 64
2, 37560, Note_on_c, 0, 67, 127
2, 37608, Note_off_c, 0, 67, 64
2, 37620, Note_on_c, 0, 66, 127
2, 37668, Note_off_c, 0, 66, 64
2, 37680, Note_on_c, 0, 67, 127
2, 37776, Note_off_c, 0, 67, 64
2, 37800, Note_on_c, 0, 62, 127
2, 37896, Note_off_c, 0, 62, 64
2, 37920, Note_on_c, 0, 71, 127
2, 38016, Note_off_c, 0, 71, 64
2, 38040, Note_on_c, 0, 62, 127
2, 38040, Note_on_c, 0, 67, 127
2, 38040, Note_on_c, 0, 62, 127
2, 38136, Note_off_c, 0, 62, 64
2, 38136, Note_off_c, 0, 67, 64
2, 38136, Note_off_c, 0, 62, 64
2, 38160, Note_on_c, 0, 64, 127
2, 38160, Note_on_c, 0, 69, 127
2, 38160, Note_on_c, 0, 64, 127
2, 38256, Note_off_c, 0, 64, 64
2, 38256, Note_off_c, 0, 69, 64
2, 38280, Note_on_c, 0, 69, 127
2, 38328, Note_off_c, 0, 69, 64
2, 38340, Note_on_c, 0, 67, 127
2, 38352, Note_off_c, 0, 64, 64
2, 38388, Note_off_c, 0, 67, 64
2, 38400, Note_on_c, 0, 69, 127
2, 38496, Note_off_c, 0, 69, 64
2, 38520, Note_on_c, 0, 62, 127
2, 38616, Note_off_c, 0, 62, 64
2, 38640, Note_on_c, 0, 72, 127
2, 38736, Note_off_c, 0, 72, 64
2, 38760, Note_on_c, 0, 66, 127
2, 38760, Note_on_c, 0, 69, 127
2, 38760, Note_on_c, 0, 62, 127
2, 38856, Note_off_c, 0, 62, 64
2, 38856, Note_off_c, 0, 69, 64
2, 38856, Note_off_c, 0, 66, 64
2, 38880, Note_on_c, 0, 67, 127
2, 38880, Note_on_c, 0, 71, 127
2, 38880, Note_on_c, 0, 62, 127
2, 38976, Note_off_c, 0, 71, 64
2, 39000, Note_on_c, 0, 71, 127
2, 39048, Note_off_c, 0, 71, 64
2, 39060, Note_on_c, 0, 69, 127
2, 39072, Note_off_c, 0, 62, 64
2, 39072, Note_off_c, 0, 67, 64
2, 39108, Note_off_c, 0, 69, 64
2, 39120, Note_on_c, 0, 71, 127
2, 39216, Note_off_c, 0, 71, 64
2, 39240, Note_on_c, 0, 67, 127
2, 39336, Note_off_c, 0, 67, 64
2, 39360, Note_on_c, 0, 74, 127
2, 39456, Note_off_c, 0, 74, 64
2, 39480, Note_on_c, 0, 62, 127
2, 39480, Note_on_c, 0, 71, 127
2, 39480, Note_on_c, 0, 67, 127
2, 39576, Note_off_c, 0, 67, 64
2, 39576, Note_off_c, 0, 71, 64
2, 39576, Note_off_c, 0, 62, 64
2, 39600, Note_on_c, 0, 73, 127
2, 39600, Note_on_c, 0, 67, 127
2, 39696, Note_off_c, 0, 73, 64
2, 39720, Note_on_c, 0, 73, 127
2, 39768, Note_off_c, 0, 73, 64
2, 39780, Note_on_c, 0, 71, 127
2, 39792, Note_off_c, 0, 67, 64
2, 39828, Note_off_c, 0, 71, 64
2, 39840, Note_on_c, 0, 73, 127
2, 39936, Note_off_c, 0, 73, 64
2, 39960, Note_on_c, 0, 67, 127
2, 40056, Note_off_c, 0, 67, 64
2, 40080, Note_on_c, 0, 76, 127
2, 40176, Note_off_c, 0, 76, 64
2, 40200, Note_on_c, 0, 73, 127
2, 40200, Note_on_c, 0, 67, 127
2, 40296, Note_off_c, 0, 67, 64
2, 40296, Note_off_c, 0, 73, 64
2, 40320, Note_on_c, 0, 62, 127
2, 40320, Note_on_c, 0, 74, 127
2, 40320, Note_on_c, 0, 66, 127
2, 40368, Note_off_c, 0, 74, 64
2, 40380, Note_on_c, 0, 69, 127
2, 40416, Note_off_c, 0, 66, 64
2, 40416, Note_off_c, 0, 62, 64
2, 40428, Note_off_c, 0, 69, 64
2, 40440, Note_on_c, 0, 72, 127
2, 40488, Note_off_c, 0, 72, 64
2, 40500, Note_on_c, 0, 71, 127
2, 40548, Note_off_c, 0, 71, 64
2, 40560, Note_on_c, 0, 69, 127
2, 40608, Note_off_c, 0, 69, 64
2, 40620, Note_on_c, 0, 83, 127
2, 40620, Note_on_c, 0, 67, 127
2, 40668, Note_off_c, 0, 67, 64
2, 40668, Note_off_c, 0, 83, 64
2, 40680, Note_on_c, 0, 81, 127
2, 40680, Note_on_c, 0, 66, 127
2, 40728, Note_off_c, 0, 66, 64
2, 40728, Note_off_c, 0, 81, 64
2, 40740, Note_on_c, 0, 79, 127
2, 40740, Note_on_c, 0, 64, 127
2, 40788, Note_off_c, 0, 64, 64
2, 40788, Note_off_c, 0, 79, 64
2, 40800, Note_on_c, 0, 78, 127
2, 40800, Note_on_c, 0, 62, 127
2, 40848, Note_off_c, 0, 62, 64
2, 40848, Note_off_c, 0, 78, 64
2, 40860, Note_on_c, 0, 60, 127
2, 40860, Note_on_c, 0, 76, 127
2, 40908, Note_off_c, 0, 76, 64
2, 40908, Note_off_c, 0, 60, 64
2, 40920, Note_on_c, 0, 59, 127
2, 40920, Note_on_c, 0, 74, 127
2, 40968, Note_off_c, 0, 74, 64
2, 40968, Note_off_c, 0, 59, 64
2, 40980, Note_on_c, 0, 72, 127
2, 40980, Note_on_c, 0, 57, 127
2, 41028, Note_off_c, 0, 57, 64
2, 41028, Note_off_c, 0, 72, 64
2, 41040, Note_on_c, 0, 71, 127
2, 41100, Note_on_c, 0, 69, 127
2, 41148, Note_off_c, 0, 69, 64
2, 41160, Note_on_c, 0, 67, 127
2, 41208, Note_off_c, 0, 67, 64
2, 41220, Note_on_c, 0, 66, 127
2, 41268, Note_off_c, 0, 66, 64
2, 41280, Note_on_c, 0, 64, 127
2, 41328, Note_off_c, 0, 71, 64
2, 41340, Note_on_c, 0, 71, 127
2, 41388, Note_off_c, 0, 71, 64
2, 41400, Note_on_c, 0, 69, 127
2, 41448, Note_off_c, 0, 69, 64
2, 41460, Note_on_c, 0, 67, 127
2, 41472, Note_off_c, 0, 64, 64
2, 41508, Note_off_c, 0, 67, 64
2, 41520, Note_on_c, 0, 62, 127
2, 41520, Note_on_c, 0, 66, 127
2, 41568, Note_off_c, 0, 66, 64
2, 41580, Note_on_c, 0, 69, 127
2, 41628, Note_off_c, 0, 69, 64
2, 41640, Note_on_c, 0, 67, 127
2, 41688, Note_off_c, 0, 67, 64
2, 41700, Note_on_c, 0, 66, 127
2, 41712, Note_off_c, 0, 62, 64
2, 41748, Note_off_c, 0, 66, 64
2, 41760, Note_on_c, 0, 62, 127
2, 41760, Note_on_c, 0, 67, 127
2, 41808, Note_off_c, 0, 67, 64
2, 41820, Note_on_c, 0, 66, 127
2, 41868, Note_off_c, 0, 66, 64
2, 41880, Note_on_c, 0, 67, 127
2, 41928, Note_off_c, 0, 67, 64
2, 41940, Note_on_c, 0, 69, 127
2, 41952, Note_off_c, 0, 62, 64
2, 41988, Note_off_c, 0, 69, 64
2, 42000, Note_on_c, 0, 67, 127
2, 42048, Note_off_c, 0, 67, 64
2, 42060, Note_on_c, 0, 71, 127
2, 42108, Note_off_c, 0, 71, 64
2, 42120, Note_on_c, 0, 59, 127
2, 42120, Note_on_c, 0, 62, 127
2, 42168, Note_off_c, 0, 62, 64
2, 42180, Note_on_c, 0, 71, 127
2, 42216, Note_off_c, 0, 59, 64
2, 42228, Note_off_c, 0, 71, 64
2, 42240, Note_on_c, 0, 62, 127
2, 42240, Note_on_c, 0, 67, 127
2, 42288, Note_off_c, 0, 67, 64
2, 42300, Note_on_c, 0, 71, 127
2, 42336, Note_off_c, 0, 62, 64
2, 42348, Note_off_c, 0, 71, 64
2, 42360, Note_on_c, 0, 59, 127
2, 42360, Note_on_c, 0, 62, 127
2, 42408, Note_off_c, 0, 62, 64
2, 42420, Note_on_c, 0, 71, 127
2, 42456, Note_off_c, 0, 59, 64
2, 42468, Note_off_c, 0, 71, 64
2, 42480, Note_on_c, 0, 62, 127
2, 42480, Note_on_c, 0, 69, 127
2, 42528, Note_off_c, 0, 69, 64
2, 42540, Note_on_c, 0, 67, 127
2, 42588, Note_off_c, 0, 67, 64
2, 42600, Note_on_c, 0, 69, 127
2, 42648, Note_off_c, 0, 69, 64
2, 42660, Note_on_c, 0, 71, 127
2, 42672, Note_off_c, 0, 62, 64
2, 42708, Note_off_c, 0, 71, 64
2, 42720, Note_on_c, 0, 69, 127
2, 42768, Note_off_c, 0, 69, 64
2, 42780, Note_on_c, 0, 72, 127
2, 42828, Note_off_c, 0, 72, 64
2, 42840, Note_on_c, 0, 62, 127
2, 42840, Note_on_c, 0, 62, 127
2, 42888, Note_off_c, 0, 62, 64
2, 42900, Note_on_c, 0, 72, 127
2, 42936, Note_off_c, 0, 62, 64
2, 42948, Note_off_c, 0, 72, 64
2, 42960, Note_on_c, 0, 62, 127
2, 42960, Note_on_c, 0, 69, 127
2, 43008, Note_off_c, 0, 69, 64
2, 43020, Note_on_c, 0, 72, 127
2, 43056, Note_off_c, 0, 62, 64
2, 43068, Note_off_c, 0, 72, 64
2, 43080, Note_on_c, 0, 62, 127
2, 43080, Note_on_c, 0, 62, 127
2, 43128, Note_off_c, 0, 62, 64
2, 43140, Note_on_c, 0, 72, 127
2, 43176, Note_off_c, 0, 62, 64
2, 43188, Note_off_c, 0, 72, 64
2, 43200, Note_on_c, 0, 71, 127
2, 43200, Note_on_c, 0, 62, 127
2, 43296, Note_off_c, 0, 62, 64
2, 43296, Note_off_c, 0, 71, 64
2, 43320, Note_on_c, 0, 74, 127
2, 43416, Note_off_c, 0, 74, 64
2, 43440, Note_on_c, 0, 74, 127
2, 43536, Note_off_c, 0, 74, 64
2, 43560, Note_on_c, 0, 74, 127
2, 43560, Note_on_c, 0, 71, 127
2, 43656, Note_off_c, 0, 71, 64
2, 43656, Note_off_c, 0, 74, 64
2, 43680, Note_on_c, 0, 71, 127
2, 43680, Note_on_c, 0, 74, 127
2, 43776, Note_off_c, 0, 74, 64
2, 43776, Note_off_c, 0, 71, 64
2, 43800, Note_on_c, 0, 71, 127
2, 43800, Note_on_c, 0, 74, 127
2, 43896, Note_off_c, 0, 74, 64
2, 43896, Note_off_c, 0, 71, 64
2, 43920, Note_on_c, 0, 74, 127
2, 43920, Note_on_c, 0, 71, 127
2, 44016, Note_off_c, 0, 71, 64
2, 44016, Note_off_c, 0, 74, 64
2, 44040, Note_on_c, 0, 69, 127
2, 44040, Note_on_c, 0, 72, 127
2, 44088, Note_off_c, 0, 69, 64
2, 44100, Note_on_c, 0, 67, 127
2, 44136, Note_off_c, 0, 72, 64
2, 44148, Note_off_c, 0, 67, 64
2, 44160, Note_on_c, 0, 72, 127
2, 44160, Note_on_c, 0, 69, 127
2, 44256, Note_off_c, 0, 69, 64
2, 44256, Note_off_c, 0, 72, 64
2, 44280, Note_on_c, 0, 72, 127
2, 44280, Note_on_c, 0, 69, 127
2, 44376, Note_off_c, 0, 69, 64
2, 44376, Note_off_c, 0, 72, 64
2, 44400, Note_on_c, 0, 72, 127
2, 44400, Note_on_c, 0, 69, 127
2, 44496, Note_off_c, 0, 69, 64
2, 44496, Note_off_c, 0, 72, 64
2, 44520, Note_on_c, 0, 72, 127
2, 44520, Note_on_c, 0, 69, 127
2, 44616, Note_off_c, 0, 69, 64
2, 44616, Note_off_c, 0, 72, 64
2, 44640, Note_on_c, 0, 69, 127
2, 44640, Note_on_c, 0, 72, 127
2, 44832, Note_off_c, 0, 72, 64
2, 44832, Note_off_c, 0, 69, 64
2, 45000, Note_on_c, 0, 76, 127
2, 45000, Note_on_c, 0, 78, 127
2, 45096, Note_off_c, 0, 78, 64
2, 45096, Note_off_c, 0, 76, 64
2, 45120, Note_on_c, 0, 74, 127
2, 45120, Note_on_c, 0, 79, 127
2, 45216, Note_off_c, 0, 79, 64
2, 45216, Note_off_c, 0, 74, 64
2, 45240, Note_on_c, 0, 72, 127
2, 45240, Note_on_c, 0, 81, 127
2, 45336, Note_off_c, 0, 81, 64
2, 45336, Note_off_c, 0, 72, 64
2, 45360, Note_on_c, 0, 71, 127
2, 45360, Note_on_c, 0, 74, 127
2, 45552, Note_off_c, 0, 74, 64
2, 45552, Note_off_c, 0, 71, 64
2, 45720, Note_on_c, 0, 78, 127
2, 45720, Note_on_c, 0, 79, 127
2, 45816, Note_off_c, 0, 79, 64
2, 45816, Note_off_c, 0, 78, 64
2, 45840, Note_on_c, 0, 76, 127
2, 45840, Note_on_c, 0, 81, 127
2, 45936, Note_off_c, 0, 81, 64
2, 45936, Note_off_c, 0, 76, 64
2, 45960, Note_on_c, 0, 74, 127
2, 45960, Note_on_c, 0, 83, 127
2, 46056, Note_off_c, 0, 83, 64
2, 46056, Note_off_c, 0, 74, 64
2, 46080, Note_on_c, 0, 78, 127
2, 46080, Note_on_c, 0, 72, 127
2, 46128, Note_off_c, 0, 78, 64
2, 46140, Note_on_c, 0, 76, 127
2, 46188, Note_off_c, 0, 76, 64
2, 46200, Note_on_c, 0, 78, 127
2, 46248, Note_off_c, 0, 78, 64
2, 46260, Note_on_c, 0, 79, 127
2, 46272, Note_off_c, 0, 72, 64
2, 46308, Note_off_c, 0, 79, 64
2, 46320, Note_on_c, 0, 78, 127
2, 46368, Note_off_c, 0, 78, 64
2, 46380, Note_on_c, 0, 81, 127
2, 46428, Note_off_c, 0, 81, 64
2, 46440, Note_on_c, 0, 76, 127
2, 46488, Note_off_c, 0, 76, 64
2, 46500, Note_on_c, 0, 81, 127
2, 46548, Note_off_c, 0, 81, 64
2, 46560, Note_on_c, 0, 74, 127
2, 46608, Note_off_c, 0, 74, 64
2, 46620, Note_on_c, 0, 81, 127
2, 46668, Note_off_c, 0, 81, 64
2, 46680, Note_on_c, 0, 72, 127
2, 46728, Note_off_c, 0, 72, 64
2, 46740, Note_on_c, 0, 81, 127
2, 46788, Note_off_c, 0, 81, 64
2, 46800, Note_on_c, 0, 71, 127
2, 46848, Note_off_c, 0, 71, 64
2, 46860, Note_on_c, 0, 79, 127
2, 46908, Note_off_c, 0, 79, 64
2, 46920, Note_on_c, 0, 78, 127
2, 46968, Note_off_c, 0, 78, 64
2, 46980, Note_on_c, 0, 79, 127
2, 47028, Note_off_c, 0, 79, 64
2, 47040, Note_on_c, 0, 76, 127
2, 47088, Note_off_c, 0, 76, 64
2, 47100, Note_on_c, 0, 79, 127
2, 47148, Note_off_c, 0, 79, 64
2, 47160, Note_on_c, 0, 74, 127
2, 47208, Note_off_c, 0, 74, 64
2, 47220, Note_on_c, 0, 79, 127
2, 47268, Note_off_c, 0, 79, 64
2, 47280, Note_on_c, 0, 73, 127
2, 47328, Note_off_c, 0, 73, 64
2, 47340, Note_on_c, 0, 79, 127
2, 47388, Note_off_c, 0, 79, 64
2, 47400, Note_on_c, 0, 71, 127
2, 47448, Note_off_c, 0, 71, 64
2, 47460, Note_on_c, 0, 79, 127
2, 47508, Note_off_c, 0, 79, 64
2, 47520, Note_on_c, 0, 69, 127
2, 47568, Note_off_c, 0, 69, 64
2, 47580, Note_on_c, 0, 78, 127
2, 47628, Note_off_c, 0, 78, 64
2, 47640, Note_on_c, 0, 76, 127
2, 47688, Note_off_c, 0, 76, 64
2, 47700, Note_on_c, 0, 78, 127
2, 47748, Note_off_c, 0, 78, 64
2, 47760, Note_on_c, 0, 74, 127
2, 47808, Note_off_c, 0, 74, 64
2, 47820, Note_on_c, 0, 78, 127
2, 47868, Note_off_c, 0, 78, 64
2, 47880, Note_on_c, 0, 72, 127
2, 47928, Note_off_c, 0, 72, 64
2, 47940, Note_on_c, 0, 78, 127
2, 47988, Note_off_c, 0, 78, 64
2, 48000, Note_on_c, 0, 71, 127
2, 48048, Note_off_c, 0, 71, 64
2, 48060, Note_on_c, 0, 78, 127
2, 48108, Note_off_c, 0, 78, 64
2, 48120, Note_on_c, 0, 69, 127
2, 48168, Note_off_c, 0, 69, 64
2, 48180, Note_on_c, 0, 78, 127
2, 48228, Note_off_c, 0, 78, 64
2, 48240, Note_on_c, 0, 67, 127
2, 48288, Note_off_c, 0, 67, 64
2, 48300, Note_on_c, 0, 76, 127
2, 48348, Note_off_c, 0, 76, 64
2, 48360, Note_on_c, 0, 74, 127
2, 48408, Note_off_c, 0, 74, 64
2, 48420, Note_on_c, 0, 76, 127
2, 48468, Note_off_c, 0, 76, 64
2, 48480, Note_on_c, 0, 73, 127
2, 48528, Note_off_c, 0, 73, 64
2, 48540, Note_on_c, 0, 76, 127
2, 48588, Note_off_c, 0, 76, 64
2, 48600, Note_on_c, 0, 70, 127
2, 48648, Note_off_c, 0, 70, 64
2, 48660, Note_on_c, 0, 76, 127
2, 48708, Note_off_c, 0, 76, 64
2, 48720, Note_on_c, 0, 69, 127
2, 48768, Note_off_c, 0, 69, 64
2, 48780, Note_on_c, 0, 76, 127
2, 48828, Note_off_c, 0, 76, 64
2, 48840, Note_on_c, 0, 67, 127
2, 48888, Note_off_c, 0, 67, 64
2, 48900, Note_on_c, 0, 76, 127
2, 48948, Note_off_c, 0, 76, 64
2, 48960, Note_on_c, 0, 66, 127
2, 49008, Note_off_c, 0, 66, 64
2, 49020, Note_on_c, 0, 75, 127
2, 49068, Note_off_c, 0, 75, 64
2, 49080, Note_on_c, 0, 72, 127
2, 49128, Note_off_c, 0, 72, 64
2, 49140, Note_on_c, 0, 69, 127
2, 49188, Note_off_c, 0, 69, 64
2, 49200, Note_on_c, 0, 66, 127
2, 49248, Note_off_c, 0, 66, 64
2, 49500, Note_on_c, 0, 64, 127
2, 49548, Note_off_c, 0, 64, 64
2, 49560, Note_on_c, 0, 62, 127
2, 49608, Note_off_c, 0, 62, 64
2, 49620, Note_on_c, 0, 60, 127
2, 49668, Note_off_c, 0, 60, 64
2, 49680, Note_on_c, 0, 59, 127
2, 49728, Note_off_c, 0, 59, 64
2, 49740, Note_on_c, 0, 67, 127
2, 49788, Note_off_c, 0, 67, 64
2, 49800, Note_on_c, 0, 66, 127
2, 49848, Note_off_c, 0, 66, 64
2, 49860, Note_on_c, 0, 64, 127
2, 49908, Note_off_c, 0, 64, 64
2, 49920, Note_on_c, 0, 62, 127
2, 49968, Note_off_c, 0, 62, 64
2, 49980, Note_on_c, 0, 71, 127
2, 50028, Note_off_c, 0, 71, 64
2, 50040, Note_on_c, 0, 69, 127
2, 50088, Note_off_c, 0, 69, 64
2, 50100, Note_on_c, 0, 67, 127
2, 50148, Note_off_c, 0, 67, 64
2, 50160, Note_on_c, 0, 66, 127
2, 50208, Note_off_c, 0, 66, 64
2, 50220, Note_on_c, 0, 76, 127
2, 50268, Note_off_c, 0, 76, 64
2, 50280, Note_on_c, 0, 74, 127
2, 50328, Note_off_c, 0, 74, 64
2, 50340, Note_on_c, 0, 72, 127
2, 50388, Note_off_c, 0, 72, 64
2, 50400, Note_on_c, 0, 71, 127
2, 50448, Note_off_c, 0, 71, 64
2, 50460, Note_on_c, 0, 81, 127
2, 50508, Note_off_c, 0, 81, 64
2, 50520, Note_on_c, 0, 79, 127
2, 50568, Note_off_c, 0, 79, 64
2, 50580, Note_on_c, 0, 77, 127
2, 50628, Note_off_c, 0, 77, 64
2, 50640, Note_on_c, 0, 76, 127
2, 50760, Note_on_c, 0, 74, 127
2, 50856, Note_off_c, 0, 74, 64
2, 50880, Note_on_c, 0, 72, 127
2, 50976, Note_off_c, 0, 72, 64
2, 51000, Note_on_c, 0, 71, 127
2, 51024, Note_off_c, 0, 76, 64
2, 51096, Note_off_c, 0, 71, 64
2, 51120, Note_on_c, 0, 76, 127
2, 51120, Note_on_c, 0, 69, 127
2, 51312, Note_off_c, 0, 69, 64
2, 51312, Note_off_c, 0, 76, 64
2, 51480, Note_on_c, 0, 74, 127
2, 51480, Note_on_c, 0, 66, 127
2, 51576, Note_off_c, 0, 66, 64
2, 51576, Note_off_c, 0, 74, 64
2, 51600, Note_on_c, 0, 76, 127
2, 51600, Note_on_c, 0, 67, 127
2, 51696, Note_off_c, 0, 67, 64
2, 51696, Note_off_c, 0, 76, 64
2, 51720, Note_on_c, 0, 69, 127
2, 51720, Note_on_c, 0, 78, 127
2, 51816, Note_off_c, 0, 78, 64
2, 51816, Note_off_c, 0, 69, 64
2, 51840, Note_on_c, 0, 79, 127
2, 51840, Note_on_c, 0, 71, 127
2, 52032, Note_off_c, 0, 71, 64
2, 52032, Note_off_c, 0, 79, 64
2, 52080, Note_on_c, 0, 69, 127
2, 52200, Note_on_c, 0, 76, 127
2, 52296, Note_off_c, 0, 76, 64
2, 52320, Note_on_c, 0, 81, 127
2, 52416, Note_off_c, 0, 81, 64
2, 52440, Note_on_c, 0, 79, 127
2, 52536, Note_off_c, 0, 79, 64
2, 52560, Note_on_c, 0, 78, 127
2, 52608, Note_off_c, 0, 78, 64
2, 52620, Note_on_c, 0, 74, 127
2, 52668, Note_off_c, 0, 74, 64
2, 52680, Note_on_c, 0, 78, 127
2, 52728, Note_off_c, 0, 78, 64
2, 52740, Note_on_c, 0, 81, 127
2, 52752, Note_off_c, 0, 69, 64
2, 52788, Note_off_c, 0, 81, 64
2, 52800, Note_on_c, 0, 84, 127
2, 52848, Note_off_c, 0, 84, 64
2, 52860, Note_on_c, 0, 83, 127
2, 52908, Note_off_c, 0, 83, 64
2, 52920, Note_on_c, 0, 81, 127
2, 52968, Note_off_c, 0, 81, 64
2, 52980, Note_on_c, 0, 79, 127
2, 53028, Note_off_c, 0, 79, 64
2, 53040, Note_on_c, 0, 78, 127
2, 53088, Note_off_c, 0, 78, 64
2, 53100, Note_on_c, 0, 76, 127
2, 53148, Note_off_c, 0, 76, 64
2, 53160, Note_on_c, 0, 74, 127
2, 53208, Note_off_c, 0, 74, 64
2, 53220, Note_on_c, 0, 72, 127
2, 53268, Note_off_c, 0, 72, 64
2, 53280, Note_on_c, 0, 74, 127
2, 53280, Note_on_c, 0, 79, 127
2, 53376, Note_off_c, 0, 79, 64
2, 53376, Note_off_c, 0, 74, 64
2, 54000, Note_on_c, 0, 76, 127
2, 54000, Note_on_c, 0, 79, 127
2, 54000, Note_on_c, 0, 70, 127
2, 54096, Note_off_c, 0, 70, 64
2, 54096, Note_off_c, 0, 79, 64
2, 54096, Note_off_c, 0, 76, 64
2, 54780, Note_on_c, 0, 62, 127
2, 54828, Note_off_c, 0, 62, 64
2, 54840, Note_on_c, 0, 64, 127
2, 54888, Note_off_c, 0, 64, 64
2, 54900, Note_on_c, 0, 66, 127
2, 54948, Note_off_c, 0, 66, 64
2, 54960, Note_on_c, 0, 67, 127
2, 55008, Note_off_c, 0, 67, 64
2, 55020, Note_on_c, 0, 69, 127
2, 55068, Note_off_c, 0, 69, 64
2, 55080, Note_on_c, 0, 62, 127
2, 55080, Note_on_c, 0, 67, 127
2, 55128, Note_off_c, 0, 67, 64
2, 55140, Note_on_c, 0, 69, 127
2, 55176, Note_off_c, 0, 62, 64
2, 55188, Note_off_c, 0, 69, 64
2, 55200, Note_on_c, 0, 71, 127
2, 55200, Note_on_c, 0, 62, 127
2, 55248, Note_off_c, 0, 71, 64
2, 55260, Note_on_c, 0, 74, 127
2, 55296, Note_off_c, 0, 62, 64
2, 55308, Note_off_c, 0, 74, 64
2, 55320, Note_on_c, 0, 72, 127
2, 55320, Note_on_c, 0, 62, 127
2, 55368, Note_off_c, 0, 72, 64
2, 55380, Note_on_c, 0, 76, 127
2, 55416, Note_off_c, 0, 62, 64
2, 55428, Note_off_c, 0, 76, 64
2, 55440, Note_on_c, 0, 62, 127
2, 55440, Note_on_c, 0, 74, 127
2, 55488, Note_off_c, 0, 74, 64
2, 55500, Note_on_c, 0, 78, 127
2, 55536, Note_off_c, 0, 62, 64
2, 55548, Note_off_c, 0, 78, 64
2, 55560, Note_on_c, 0, 60, 127
2, 55560, Note_on_c, 0, 76, 127
2, 55608, Note_off_c, 0, 76, 64
2, 55608, Note_off_c, 0, 60, 64
2, 55620, Note_on_c, 0, 59, 127
2, 55620, Note_on_c, 0, 79, 127
2, 55668, Note_off_c, 0, 79, 64
2, 55668, Note_off_c, 0, 59, 64
2, 55680, Note_on_c, 0, 78, 127
2, 55680, Note_on_c, 0, 57, 127
2, 55728, Note_off_c, 0, 78, 64
2, 55740, Note_on_c, 0, 74, 127
2, 55776, Note_off_c, 0, 57, 64
2, 55788, Note_off_c, 0, 74, 64
2, 55800, Note_on_c, 0, 79, 127
2, 55800, Note_on_c, 0, 64, 127
2, 55848, Note_off_c, 0, 79, 64
2, 55860, Note_on_c, 0, 71, 127
2, 55896, Note_off_c, 0, 64, 64
2, 55908, Note_off_c, 0, 71, 64
2, 55920, Note_on_c, 0, 69, 127
2, 55920, Note_on_c, 0, 57, 127
2, 55968, Note_off_c, 0, 69, 64
2, 55980, Note_on_c, 0, 79, 127
2, 56016, Note_off_c, 0, 57, 64
2, 56028, Note_off_c, 0, 79, 64
2, 56040, Note_on_c, 0, 69, 127
2, 56040, Note_on_c, 0, 62, 127
2, 56040, Note_on_c, 0, 72, 127
2, 56088, Note_off_c, 0, 72, 64
2, 56100, Note_on_c, 0, 78, 127
2, 56136, Note_off_c, 0, 62, 64
2, 56136, Note_off_c, 0, 69, 64
2, 56148, Note_off_c, 0, 78, 64
2, 56160, Note_on_c, 0, 79, 127
2, 56160, Note_on_c, 0, 74, 127
2, 56160, Note_on_c, 0, 67, 127
2, 56160, Note_on_c, 0, 71, 127
2, 56160, Note_on_c, 0, 62, 127
2, 56385, Note_off_c, 0, 62, 64
2, 56385, Note_off_c, 0, 71, 64
2, 56385, Note_off_c, 0, 67, 64
2, 56385, Note_off_c, 0, 74, 64
2, 56385, Note_off_c, 0, 79, 64
2, 56520, Note_on_c, 0, 66, 127
2, 56616, Note_off_c, 0, 66, 64
2, 56640, Note_on_c, 0, 67, 127
2, 56736, Note_off_c, 0, 67, 64
2, 56760, Note_on_c, 0, 69, 127
2, 56856, Note_off_c, 0, 69, 64
2, 56880, Note_on_c, 0, 71, 127
2, 56928, Note_off_c, 0, 71, 64
2, 56940, Note_on_c, 0, 69, 127
2, 56988, Note_off_c, 0, 69, 64
2, 57000, Note_on_c, 0, 71, 127
2, 57048, Note_off_c, 0, 71, 64
2, 57060, Note_on_c, 0, 72, 127
2, 57108, Note_off_c, 0, 72, 64
2, 57120, Note_on_c, 0, 71, 127
2, 57168, Note_off_c, 0, 71, 64
2, 57180, Note_on_c, 0, 76, 127
2, 57228, Note_off_c, 0, 76, 64
2, 57240, Note_on_c, 0, 69, 127
2, 57288, Note_off_c, 0, 69, 64
2, 57300, Note_on_c, 0, 78, 127
2, 57348, Note_off_c, 0, 78, 64
2, 57360, Note_on_c, 0, 71, 127
2, 57408, Note_off_c, 0, 71, 64
2, 57420, Note_on_c, 0, 79, 127
2, 57468, Note_off_c, 0, 79, 64
2, 57480, Note_on_c, 0, 72, 127
2, 57528, Note_off_c, 0, 72, 64
2, 57540, Note_on_c, 0, 81, 127
2, 57588, Note_off_c, 0, 81, 64
2, 57600, Note_on_c, 0, 67, 127
2, 57600, Note_on_c, 0, 83, 127
2, 57696, Note_off_c, 0, 83, 64
2, 57696, Note_off_c, 0, 67, 64
2, 57720, Note_on_c, 0, 62, 127
2, 57720, Note_on_c, 0, 74, 127
2, 57720, Note_on_c, 0, 67, 127
2, 57816, Note_off_c, 0, 67, 64
2, 57816, Note_off_c, 0, 74, 64
2, 57816, Note_off_c, 0, 62, 64
2, 57840, Note_on_c, 0, 67, 127
2, 57840, Note_on_c, 0, 72, 127
2, 57840, Note_on_c, 0, 64, 127
2, 57888, Note_off_c, 0, 72, 64
2, 57900, Note_on_c, 0, 71, 127
2, 57936, Note_off_c, 0, 64, 64
2, 57936, Note_off_c, 0, 67, 64
2, 57948, Note_off_c, 0, 71, 64
2, 57960, Note_on_c, 0, 64, 127
2, 57960, Note_on_c, 0, 69, 127
2, 58008, Note_off_c, 0, 69, 64
2, 58020, Note_on_c, 0, 67, 127
2, 58056, Note_off_c, 0, 64, 64
2, 58068, Note_off_c, 0, 67, 64
2, 58080, Note_on_c, 0, 62, 127
2, 58080, Note_on_c, 0, 62, 127
2, 58176, Note_off_c, 0, 62, 64
2, 58176, Note_off_c, 0, 62, 64
2, 58200, Note_on_c, 0, 67, 127
2, 58200, Note_on_c, 0, 62, 127
2, 58200, Note_on_c, 0, 60, 127
2, 58212, Note_off_c, 0, 67, 64
2, 58215, Note_on_c, 0, 66, 127
2, 58227, Note_off_c, 0, 66, 64
2, 58230, Note_on_c, 0, 67, 127
2, 58242, Note_off_c, 0, 67, 64
2, 58245, Note_on_c, 0, 66, 127
2, 58257, Note_off_c, 0, 66, 64
2, 58260, Note_on_c, 0, 67, 127
2, 58272, Note_off_c, 0, 67, 64
2, 58275, Note_on_c, 0, 66, 127
2, 58287, Note_off_c, 0, 66, 64
2, 58290, Note_on_c, 0, 67, 127
2, 58296, Note_off_c, 0, 60, 64
2, 58296, Note_off_c, 0, 62, 64
2, 58302, Note_off_c, 0, 67, 64
2, 58305, Note_on_c, 0, 66, 127
2, 58320, Note_off_c, 0, 66, 64
2, 58320, Note_on_c, 0, 67, 127
2, 58320, Note_on_c, 0, 62, 127
2, 58320, Note_on_c, 0, 59, 127
2, 58512, Note_off_c, 0, 59, 64
2, 58512, Note_off_c, 0, 62, 64
2, 58512, Note_off_c, 0, 67, 64
2, 58512, End_track
3, 0, Start_track
3, 0, Title_t, "J.S.Bach/Arr. G. Bricault"
3, 0, Program_c, 0, 19
3, 0, Control_c, 0, 7, 127
3, 1680, Note_on_c, 0, 55, 127
3, 1728, Note_off_c, 0, 55, 64
3, 1740, Note_on_c, 0, 62, 127
3, 1788, Note_off_c, 0, 62, 64
3, 1800, Note_on_c, 0, 60, 127
3, 1848, Note_off_c, 0, 60, 64
3, 1860, Note_on_c, 0, 59, 127
3, 1908, Note_off_c, 0, 59, 64
3, 1920, Note_on_c, 0, 57, 127
3, 1968, Note_off_c, 0, 57, 64
3, 1980, Note_on_c, 0, 55, 127
3, 2028, Note_off_c, 0, 55, 64
3, 2040, Note_on_c, 0, 54, 127
3, 2088, Note_off_c, 0, 54, 64
3, 2100, Note_on_c, 0, 52, 127
3, 2148, Note_off_c, 0, 52, 64
3, 2160, Note_on_c, 0, 54, 127
3, 2208, Note_off_c, 0, 54, 64
3, 2220, Note_on_c, 0, 57, 127
3, 2268, Note_off_c, 0, 57, 64
3, 2280, Note_on_c, 0, 50, 127
3, 2328, Note_off_c, 0, 50, 64
3, 2340, Note_on_c, 0, 54, 127
3, 2388, Note_off_c, 0, 54, 64
3, 2400, Note_on_c, 0, 57, 127
3, 2448, Note_off_c, 0, 57, 64
3, 2460, Note_on_c, 0, 60, 127
3, 2508, Note_off_c, 0, 60, 64
3, 2520, Note_on_c, 0, 54, 127
3, 2568, Note_off_c, 0, 54, 64
3, 2580, Note_on_c, 0, 57, 127
3, 2628, Note_off_c, 0, 57, 64
3, 2640, Note_on_c, 0, 50, 127
3, 2688, Note_off_c, 0, 50, 64
3, 2700, Note_on_c, 0, 60, 127
3, 2748, Note_off_c, 0, 60, 64
3, 2760, Note_on_c, 0, 59, 127
3, 2808, Note_off_c, 0, 59, 64
3, 2820, Note_on_c, 0, 57, 127
3, 2868, Note_off_c, 0, 57, 64
3, 2880, Note_on_c, 0, 55, 127
3, 2928, Note_off_c, 0, 55, 64
3, 2940, Note_on_c, 0, 59, 127
3, 2988, Note_off_c, 0, 59, 64
3, 3000, Note_on_c, 0, 50, 127
3, 3048, Note_off_c, 0, 50, 64
3, 3060, Note_on_c, 0, 55, 127
3, 3108, Note_off_c, 0, 55, 64
3, 3120, Note_on_c, 0, 59, 127
3, 3168, Note_off_c, 0, 59, 64
3, 3180, Note_on_c, 0, 62, 127
3, 3228, Note_off_c, 0, 62, 64
3, 3240, Note_on_c, 0, 55, 127
3, 3288, Note_off_c, 0, 55, 64
3, 3300, Note_on_c, 0, 59, 127
3, 3348, Note_off_c, 0, 59, 64
3, 3360, Note_on_c, 0, 50, 127
3, 3408, Note_off_c, 0, 50, 64
3, 3420, Note_on_c, 0, 62, 127
3, 3468, Note_off_c, 0, 62, 64
3, 3480, Note_on_c, 0, 60, 127
3, 3528, Note_off_c, 0, 60, 64
3, 3540, Note_on_c, 0, 59, 127
3, 3588, Note_off_c, 0, 59, 64
3, 3600, Note_on_c, 0, 57, 127
3, 3648, Note_off_c, 0, 57, 64
3, 3660, Note_on_c, 0, 60, 127
3, 3708, Note_off_c, 0, 60, 64
3, 3720, Note_on_c, 0, 54, 127
3, 3768, Note_off_c, 0, 54, 64
3, 3780, Note_on_c, 0, 57, 127
3, 3828, Note_off_c, 0, 57, 64
3, 3840, Note_on_c, 0, 60, 127
3, 3888, Note_off_c, 0, 60, 64
3, 3900, Note_on_c, 0, 66, 127
3, 3948, Note_off_c, 0, 66, 64
3, 3960, Note_on_c, 0, 57, 127
3, 4008, Note_off_c, 0, 57, 64
3, 4020, Note_on_c, 0, 60, 127
3, 4068, Note_off_c, 0, 60, 64
3, 4080, Note_on_c, 0, 50, 127
3, 4128, Note_off_c, 0, 50, 64
3, 4140, Note_on_c, 0, 64, 127
3, 4188, Note_off_c, 0, 64, 64
3, 4200, Note_on_c, 0, 62, 127
3, 4248, Note_off_c, 0, 62, 64
3, 4260, Note_on_c, 0, 60, 127
3, 4308, Note_off_c, 0, 60, 64
3, 4320, Note_on_c, 0, 59, 127
3, 4368, Note_off_c, 0, 59, 64
3, 4380, Note_on_c, 0, 62, 127
3, 4428, Note_off_c, 0, 62, 64
3, 4440, Note_on_c, 0, 55, 127
3, 4488, Note_off_c, 0, 55, 64
3, 4500, Note_on_c, 0, 59, 127
3, 4548, Note_off_c, 0, 59, 64
3, 4560, Note_on_c, 0, 62, 127
3, 4608, Note_off_c, 0, 62, 64
3, 4620, Note_on_c, 0, 67, 127
3, 4668, Note_off_c, 0, 67, 64
3, 4680, Note_on_c, 0, 59, 127
3, 4728, Note_off_c, 0, 59, 64
3, 4740, Note_on_c, 0, 62, 127
3, 4788, Note_off_c, 0, 62, 64
3, 4800, Note_on_c, 0, 55, 127
3, 4848, Note_off_c, 0, 55, 64
3, 4860, Note_on_c, 0, 59, 127
3, 4908, Note_off_c, 0, 59, 64
3, 4920, Note_on_c, 0, 50, 127
3, 4968, Note_off_c, 0, 50, 64
3, 4980, Note_on_c, 0, 55, 127
3, 5028, Note_off_c, 0, 55, 64
3, 5040, Note_on_c, 0, 59, 127
3, 5088, Note_off_c, 0, 59, 64
3, 5100, Note_on_c, 0, 62, 127
3, 5148, Note_off_c, 0, 62, 64
3, 5160, Note_on_c, 0, 55, 127
3, 5208, Note_off_c, 0, 55, 64
3, 5220, Note_on_c, 0, 59, 127
3, 5268, Note_off_c, 0, 59, 64
3, 5280, Note_on_c, 0, 50, 127
3, 5328, Note_off_c, 0, 50, 64
3, 5340, Note_on_c, 0, 55, 127
3, 5388, Note_off_c, 0, 55, 64
3, 5400, Note_on_c, 0, 47, 127
3, 5448, Note_off_c, 0, 47, 64
3, 5460, Note_on_c, 0, 50, 127
3, 5508, Note_off_c, 0, 50, 64
3, 5520, Note_on_c, 0, 55, 127
3, 5568, Note_off_c, 0, 55, 64
3, 5580, Note_on_c, 0, 59, 127
3, 5628, Note_off_c, 0, 59, 64
3, 5640, Note_on_c, 0, 50, 127
3, 5688, Note_off_c, 0, 50, 64
3, 5700, Note_on_c, 0, 55, 127
3, 5748, Note_off_c, 0, 55, 64
3, 5760, Note_on_c, 0, 47, 127
3, 5808, Note_off_c, 0, 47, 64
3, 5820, Note_on_c, 0, 50, 127
3, 5868, Note_off_c, 0, 50, 64
3, 5880, Note_on_c, 0, 43, 127
3, 5928, Note_off_c, 0, 43, 64
3, 5940, Note_on_c, 0, 47, 127
3, 5988, Note_off_c, 0, 47, 64
3, 6000, Note_on_c, 0, 50, 127
3, 6048, Note_off_c, 0, 50, 64
3, 6060, Note_on_c, 0, 55, 127
3, 6108, Note_off_c, 0, 55, 64
3, 6120, Note_on_c, 0, 47, 127
3, 6168, Note_off_c, 0, 47, 64
3, 6180, Note_on_c, 0, 50, 127
3, 6228, Note_off_c, 0, 50, 64
3, 6240, Note_on_c, 0, 43, 127
3, 6288, Note_off_c, 0, 43, 64
3, 6300, Note_on_c, 0, 47, 127
3, 6348, Note_off_c, 0, 47, 64
3, 6360, Note_on_c, 0, 38, 127
3, 6408, Note_off_c, 0, 38, 64
3, 6420, Note_on_c, 0, 43, 127
3, 6468, Note_off_c, 0, 43, 64
3, 6480, Note_on_c, 0, 47, 127
3, 6528, Note_off_c, 0, 47, 64
3, 6540, Note_on_c, 0, 43, 127
3, 6588, Note_off_c, 0, 43, 64
3, 6600, Note_on_c, 0, 47, 127
3, 6648, Note_off_c, 0, 47, 64
3, 6660, Note_on_c, 0, 50, 127
3, 6708, Note_off_c, 0, 50, 64
3, 6720, Note_on_c, 0, 47, 127
3, 6768, Note_off_c, 0, 47, 64
3, 6780, Note_on_c, 0, 50, 127
3, 6828, Note_off_c, 0, 50, 64
3, 6840, Note_on_c, 0, 55, 127
3, 6888, Note_off_c, 0, 55, 64
3, 6900, Note_on_c, 0, 50, 127
3, 6948, Note_off_c, 0, 50, 64
3, 6960, Note_on_c, 0, 55, 127
3, 7008, Note_off_c, 0, 55, 64
3, 7020, Note_on_c, 0, 59, 127
3, 7068, Note_off_c, 0, 59, 64
3, 7080, Note_on_c, 0, 55, 127
3, 7128, Note_off_c, 0, 55, 64
3, 7140, Note_on_c, 0, 59, 127
3, 7188, Note_off_c, 0, 59, 64
3, 8040, Note_on_c, 0, 59, 127
3, 8088, Note_off_c, 0, 59, 64
3, 8100, Note_on_c, 0, 57, 127
3, 8148, Note_off_c, 0, 57, 64
3, 8160, Note_on_c, 0, 59, 127
3, 8208, Note_off_c, 0, 59, 64
3, 8220, Note_on_c, 0, 60, 127
3, 8268, Note_off_c, 0, 60, 64
3, 8280, Note_on_c, 0, 59, 127
3, 8328, Note_off_c, 0, 59, 64
3, 8340, Note_on_c, 0, 60, 127
3, 8388, Note_off_c, 0, 60, 64
3, 8400, Note_on_c, 0, 62, 127
3, 8448, Note_off_c, 0, 62, 64
3, 8460, Note_on_c, 0, 64, 127
3, 8508, Note_off_c, 0, 64, 64
3, 8520, Note_on_c, 0, 62, 127
3, 8568, Note_off_c, 0, 62, 64
3, 8580, Note_on_c, 0, 64, 127
3, 8628, Note_off_c, 0, 64, 64
3, 8640, Note_on_c, 0, 60, 127
3, 8832, Note_off_c, 0, 60, 64
3, 8880, Note_on_c, 0, 60, 127
3, 9072, Note_off_c, 0, 60, 64
3, 9480, Note_on_c, 0, 69, 127
3, 9480, Note_on_c, 0, 62, 127
3, 9576, Note_off_c, 0, 62, 64
3, 9576, Note_off_c, 0, 69, 64
3, 9600, Note_on_c, 0, 62, 127
3, 9600, Note_on_c, 0, 69, 127
3, 9696, Note_off_c, 0, 69, 64
3, 9696, Note_off_c, 0, 62, 64
3, 9720, Note_on_c, 0, 62, 127
3, 9720, Note_on_c, 0, 69, 127
3, 9816, Note_off_c, 0, 69, 64
3, 9816, Note_off_c, 0, 62, 64
3, 9840, Note_on_c, 0, 62, 127
3, 9840, Note_on_c, 0, 66, 127
3, 9936, Note_off_c, 0, 66, 64
3, 9936, Note_off_c, 0, 62, 64
3, 9960, Note_on_c, 0, 62, 127
3, 9960, Note_on_c, 0, 66, 127
3, 10056, Note_off_c, 0, 66, 64
3, 10056, Note_off_c, 0, 62, 64
3, 10080, Note_on_c, 0, 62, 127
3, 10080, Note_on_c, 0, 67, 127
3, 10272, Note_off_c, 0, 67, 64
3, 10272, Note_off_c, 0, 62, 64
3, 10320, Note_on_c, 0, 62, 127
3, 10320, Note_on_c, 0, 67, 127
3, 10512, Note_off_c, 0, 67, 64
3, 10512, Note_off_c, 0, 62, 64
3, 10800, Note_on_c, 0, 65, 127
3, 11376, Note_off_c, 0, 65, 64
3, 11520, Note_on_c, 0, 64, 127
3, 11640, Note_on_c, 0, 67, 127
3, 11736, Note_off_c, 0, 67, 64
3, 11760, Note_on_c, 0, 67, 127
3, 11856, Note_off_c, 0, 67, 64
3, 11880, Note_on_c, 0, 67, 127
3, 11976, Note_off_c, 0, 67, 64
3, 12000, Note_on_c, 0, 67, 127
3, 12096, Note_off_c, 0, 67, 64
3, 12120, Note_on_c, 0, 67, 127
3, 12216, Note_off_c, 0, 67, 64
3, 12240, Note_on_c, 0, 66, 127
3, 12336, Note_off_c, 0, 64, 64
3, 12336, Note_off_c, 0, 66, 64
3, 12360, Note_on_c, 0, 64, 127
3, 12456, Note_off_c, 0, 64, 64
3, 12480, Note_on_c, 0, 62, 127
3, 12576, Note_off_c, 0, 62, 64
3, 12600, Note_on_c, 0, 60, 127
3, 12600, Note_on_c, 0, 66, 127
3, 12696, Note_off_c, 0, 66, 64
3, 12696, Note_off_c, 0, 60, 64
3, 12720, Note_on_c, 0, 59, 127
3, 12720, Note_on_c, 0, 62, 127
3, 12816, Note_off_c, 0, 62, 64
3, 12816, Note_off_c, 0, 59, 64
3, 12840, Note_on_c, 0, 57, 127
3, 12840, Note_on_c, 0, 60, 127
3, 12936, Note_off_c, 0, 60, 64
3, 12936, Note_off_c, 0, 57, 64
3, 12960, Note_on_c, 0, 62, 127
3, 12960, Note_on_c, 0, 59, 127
3, 13056, Note_off_c, 0, 59, 64
3, 13056, Note_off_c, 0, 62, 64
3, 13080, Note_on_c, 0, 60, 127
3, 13080, Note_on_c, 0, 57, 127
3, 13176, Note_off_c, 0, 57, 64
3, 13176, Note_off_c, 0, 60, 64
3, 13200, Note_on_c, 0, 62, 127
3, 13200, Note_on_c, 0, 59, 127
3, 13296, Note_off_c, 0, 59, 64
3, 13296, Note_off_c, 0, 62, 64
3, 13320, Note_on_c, 0, 59, 127
3, 13320, Note_on_c, 0, 62, 127
3, 13416, Note_off_c, 0, 62, 64
3, 13416, Note_off_c, 0, 59, 64
3, 13440, Note_on_c, 0, 60, 127
3, 13440, Note_on_c, 0, 57, 127
3, 13536, Note_off_c, 0, 57, 64
3, 13536, Note_off_c, 0, 60, 64
3, 13560, Note_on_c, 0, 55, 127
3, 13560, Note_on_c, 0, 59, 127
3, 13656, Note_off_c, 0, 59, 64
3, 13656, Note_off_c, 0, 55, 64
3, 13680, Note_on_c, 0, 60, 127
3, 13680, Note_on_c, 0, 54, 127
3, 13776, Note_off_c, 0, 54, 64
3, 13800, Note_on_c, 0, 57, 127
3, 13872, Note_off_c, 0, 60, 64
3, 13896, Note_off_c, 0, 57, 64
3, 13920, Note_on_c, 0, 62, 127
3, 14160, Note_on_c, 0, 64, 127
3, 14256, Note_off_c, 0, 64, 64
3, 14280, Note_on_c, 0, 66, 127
3, 14376, Note_off_c, 0, 66, 64
3, 14400, Note_on_c, 0, 67, 127
3, 14496, Note_off_c, 0, 67, 64
3, 14496, Note_off_c, 0, 62, 64
3, 14520, Note_on_c, 0, 62, 127
3, 14520, Note_on_c, 0, 67, 127
3, 14616, Note_off_c, 0, 67, 64
3, 14616, Note_off_c, 0, 62, 64
3, 14640, Note_on_c, 0, 62, 127
3, 14640, Note_on_c, 0, 67, 127
3, 14736, Note_off_c, 0, 67, 64
3, 14736, Note_off_c, 0, 62, 64
3, 14760, Note_on_c, 0, 67, 127
3, 14760, Note_on_c, 0, 62, 127
3, 14856, Note_off_c, 0, 62, 64
3, 14856, Note_off_c, 0, 67, 64
3, 14880, Note_on_c, 0, 67, 127
3, 14880, Note_on_c, 0, 62, 127
3, 14976, Note_off_c, 0, 62, 64
3, 14976, Note_off_c, 0, 67, 64
3, 15000, Note_on_c, 0, 66, 127
3, 15000, Note_on_c, 0, 62, 127
3, 15096, Note_off_c, 0, 62, 64
3, 15096, Note_off_c, 0, 66, 64
3, 15120, Note_on_c, 0, 64, 127
3, 15120, Note_on_c, 0, 67, 127
3, 15216, Note_off_c, 0, 67, 64
3, 15216, Note_off_c, 0, 64, 64
3, 15240, Note_on_c, 0, 64, 127
3, 15240, Note_on_c, 0, 69, 127
3, 15336, Note_off_c, 0, 69, 64
3, 15336, Note_off_c, 0, 64, 64
3, 15360, Note_on_c, 0, 69, 127
3, 15360, Note_on_c, 0, 61, 127
3, 15456, Note_off_c, 0, 61, 64
3, 15456, Note_off_c, 0, 69, 64
3, 15480, Note_on_c, 0, 61, 127
3, 15480, Note_on_c, 0, 69, 127
3, 15576, Note_off_c, 0, 69, 64
3, 15576, Note_off_c, 0, 61, 64
3, 15600, Note_on_c, 0, 66, 127
3, 15600, Note_on_c, 0, 69, 127
3, 15696, Note_off_c, 0, 69, 64
3, 15696, Note_off_c, 0, 66, 64
3, 15720, Note_on_c, 0, 69, 127
3, 15720, Note_on_c, 0, 64, 127
3, 15816, Note_off_c, 0, 64, 64
3, 15816, Note_off_c, 0, 69, 64
3, 15840, Note_on_c, 0, 62, 127
3, 15840, Note_on_c, 0, 66, 127
3, 15936, Note_off_c, 0, 66, 64
3, 15936, Note_off_c, 0, 62, 64
3, 15960, Note_on_c, 0, 62, 127
3, 15960, Note_on_c, 0, 67, 127
3, 16056, Note_off_c, 0, 67, 64
3, 16056, Note_off_c, 0, 62, 64
3, 16080, Note_on_c, 0, 67, 127
3, 16080, Note_on_c, 0, 62, 127
3, 16176, Note_off_c, 0, 62, 64
3, 16176, Note_off_c, 0, 67, 64
3, 16200, Note_on_c, 0, 59, 127
3, 16200, Note_on_c, 0, 67, 127
3, 16296, Note_off_c, 0, 67, 64
3, 16296, Note_off_c, 0, 59, 64
3, 16320, Note_on_c, 0, 67, 127
3, 16320, Note_on_c, 0, 64, 127
3, 16416, Note_off_c, 0, 64, 64
3, 16416, Note_off_c, 0, 67, 64
3, 16440, Note_on_c, 0, 67, 127
3, 16440, Note_on_c, 0, 62, 127
3, 16536, Note_off_c, 0, 62, 64
3, 16536, Note_off_c, 0, 67, 64
3, 16560, Note_on_c, 0, 69, 127
3, 16560, Note_on_c, 0, 61, 127
3, 16560, Note_on_c, 0, 64, 127
3, 16656, Note_off_c, 0, 64, 64
3, 16656, Note_off_c, 0, 61, 64
3, 16656, Note_off_c, 0, 69, 64
3, 17280, Note_on_c, 0, 66, 127
3, 17328, Note_off_c, 0, 66, 64
3, 17340, Note_on_c, 0, 69, 127
3, 17388, Note_off_c, 0, 69, 64
3, 17400, Note_on_c, 0, 62, 127
3, 17448, Note_off_c, 0, 62, 64
3, 17460, Note_on_c, 0, 66, 127
3, 17508, Note_off_c, 0, 66, 64
3, 17520, Note_on_c, 0, 57, 127
3, 17568, Note_off_c, 0, 57, 64
3, 17580, Note_on_c, 0, 67, 127
3, 17628, Note_off_c, 0, 67, 64
3, 17640, Note_on_c, 0, 66, 127
3, 17688, Note_off_c, 0, 66, 64
3, 17700, Note_on_c, 0, 64, 127
3, 17748, Note_off_c, 0, 64, 64
3, 17760, Note_on_c, 0, 62, 127
3, 17808, Note_off_c, 0, 62, 64
3, 17820, Note_on_c, 0, 61, 127
3, 17868, Note_off_c, 0, 61, 64
3, 17880, Note_on_c, 0, 59, 127
3, 17928, Note_off_c, 0, 59, 64
3, 17940, Note_on_c, 0, 57, 127
3, 17988, Note_off_c, 0, 57, 64
3, 18000, Note_on_c, 0, 56, 127
3, 18048, Note_off_c, 0, 56, 64
3, 18060, Note_on_c, 0, 59, 127
3, 18108, Note_off_c, 0, 59, 64
3, 18120, Note_on_c, 0, 50, 127
3, 18168, Note_off_c, 0, 50, 64
3, 18180, Note_on_c, 0, 53, 127
3, 18228, Note_off_c, 0, 53, 64
3, 18240, Note_on_c, 0, 47, 127
3, 18288, Note_off_c, 0, 47, 64
3, 18300, Note_on_c, 0, 50, 127
3, 18348, Note_off_c, 0, 50, 64
3, 18360, Note_on_c, 0, 53, 127
3, 18408, Note_off_c, 0, 53, 64
3, 18420, Note_on_c, 0, 57, 127
3, 18468, Note_off_c, 0, 57, 64
3, 18480, Note_on_c, 0, 56, 127
3, 18528, Note_off_c, 0, 56, 64
3, 18540, Note_on_c, 0, 59, 127
3, 18588, Note_off_c, 0, 59, 64
3, 18600, Note_on_c, 0, 52, 127
3, 18648, Note_off_c, 0, 52, 64
3, 18660, Note_on_c, 0, 50, 127
3, 18708, Note_off_c, 0, 50, 64
3, 18720, Note_on_c, 0, 49, 127
3, 18768, Note_off_c, 0, 49, 64
3, 18780, Note_on_c, 0, 45, 127
3, 18828, Note_off_c, 0, 45, 64
3, 18840, Note_on_c, 0, 47, 127
3, 18888, Note_off_c, 0, 47, 64
3, 18900, Note_on_c, 0, 49, 127
3, 18948, Note_off_c, 0, 49, 64
3, 18960, Note_on_c, 0, 50, 127
3, 19008, Note_off_c, 0, 50, 64
3, 19020, Note_on_c, 0, 52, 127
3, 19068, Note_off_c, 0, 52, 64
3, 19080, Note_on_c, 0, 50, 127
3, 19128, Note_off_c, 0, 50, 64
3, 19140, Note_on_c, 0, 52, 127
3, 19188, Note_off_c, 0, 52, 64
3, 19200, Note_on_c, 0, 54, 127
3, 19248, Note_off_c, 0, 54, 64
3, 19260, Note_on_c, 0, 57, 127
3, 19308, Note_off_c, 0, 57, 64
3, 19320, Note_on_c, 0, 55, 127
3, 19368, Note_off_c, 0, 55, 64
3, 19380, Note_on_c, 0, 59, 127
3, 19428, Note_off_c, 0, 59, 64
3, 19440, Note_on_c, 0, 57, 127
3, 19536, Note_off_c, 0, 57, 64
3, 19560, Note_on_c, 0, 59, 127
3, 19656, Note_off_c, 0, 59, 64
3, 19680, Note_on_c, 0, 61, 127
3, 19776, Note_off_c, 0, 61, 64
3, 19800, Note_on_c, 0, 62, 127
3, 19896, Note_off_c, 0, 62, 64
3, 19920, Note_on_c, 0, 57, 127
3, 20016, Note_off_c, 0, 57, 64
3, 20040, Note_on_c, 0, 57, 127
3, 20136, Note_off_c, 0, 57, 64
3, 20160, Note_on_c, 0, 57, 127
3, 20256, Note_off_c, 0, 57, 64
3, 20880, Note_on_c, 0, 57, 127
3, 20928, Note_off_c, 0, 57, 64
3, 20940, Note_on_c, 0, 62, 127
3, 20988, Note_off_c, 0, 62, 64
3, 21000, Note_on_c, 0, 61, 127
3, 21048, Note_off_c, 0, 61, 64
3, 21060, Note_on_c, 0, 59, 127
3, 21108, Note_off_c, 0, 59, 64
3, 21120, Note_on_c, 0, 57, 127
3, 21168, Note_off_c, 0, 57, 64
3, 21180, Note_on_c, 0, 55, 127
3, 21228, Note_off_c, 0, 55, 64
3, 21240, Note_on_c, 0, 54, 127
3, 21288, Note_off_c, 0, 54, 64
3, 21300, Note_on_c, 0, 52, 127
3, 21348, Note_off_c, 0, 52, 64
3, 21360, Note_on_c, 0, 54, 127
3, 21408, Note_off_c, 0, 54, 64
3, 21420, Note_on_c, 0, 57, 127
3, 21468, Note_off_c, 0, 57, 64
3, 21480, Note_on_c, 0, 50, 127
3, 21528, Note_off_c, 0, 50, 64
3, 21540, Note_on_c, 0, 54, 127
3, 21588, Note_off_c, 0, 54, 64
3, 21600, Note_on_c, 0, 57, 127
3, 21648, Note_off_c, 0, 57, 64
3, 21660, Note_on_c, 0, 62, 127
3, 21708, Note_off_c, 0, 62, 64
3, 21720, Note_on_c, 0, 54, 127
3, 21768, Note_off_c, 0, 54, 64
3, 21780, Note_on_c, 0, 57, 127
3, 21828, Note_off_c, 0, 57, 64
3, 22440, Note_on_c, 0, 59, 127
3, 22440, Note_on_c, 0, 66, 127
3, 22536, Note_off_c, 0, 66, 64
3, 22536, Note_off_c, 0, 59, 64
3, 22560, Note_on_c, 0, 66, 127
3, 22560, Note_on_c, 0, 59, 127
3, 22656, Note_off_c, 0, 59, 64
3, 22656, Note_off_c, 0, 66, 64
3, 22680, Note_on_c, 0, 66, 127
3, 22680, Note_on_c, 0, 59, 127
3, 22776, Note_off_c, 0, 59, 64
3, 22776, Note_off_c, 0, 66, 64
3, 22800, Note_on_c, 0, 66, 127
3, 22800, Note_on_c, 0, 59, 127
3, 22896, Note_off_c, 0, 59, 64
3, 22896, Note_off_c, 0, 66, 64
3, 22920, Note_on_c, 0, 59, 127
3, 22920, Note_on_c, 0, 66, 127
3, 23016, Note_off_c, 0, 66, 64
3, 23016, Note_off_c, 0, 59, 64
3, 23040, Note_on_c, 0, 64, 127
3, 23040, Note_on_c, 0, 59, 127
3, 23136, Note_off_c, 0, 59, 64
3, 23136, Note_off_c, 0, 64, 64
3, 23880, Note_on_c, 0, 64, 127
3, 23880, Note_on_c, 0, 59, 127
3, 23976, Note_off_c, 0, 59, 64
3, 23976, Note_off_c, 0, 64, 64
3, 24000, Note_on_c, 0, 64, 127
3, 24000, Note_on_c, 0, 59, 127
3, 24096, Note_off_c, 0, 59, 64
3, 24096, Note_off_c, 0, 64, 64
3, 24120, Note_on_c, 0, 59, 127
3, 24120, Note_on_c, 0, 64, 127
3, 24216, Note_off_c, 0, 64, 64
3, 24216, Note_off_c, 0, 59, 64
3, 24240, Note_on_c, 0, 64, 127
3, 24240, Note_on_c, 0, 59, 127
3, 24336, Note_off_c, 0, 59, 64
3, 24336, Note_off_c, 0, 64, 64
3, 24360, Note_on_c, 0, 64, 127
3, 24360, Note_on_c, 0, 60, 127
3, 24456, Note_off_c, 0, 60, 64
3, 24456, Note_off_c, 0, 64, 64
3, 24480, Note_on_c, 0, 64, 127
3, 24480, Note_on_c, 0, 60, 127
3, 24576, Note_off_c, 0, 60, 64
3, 24576, Note_off_c, 0, 64, 64
3, 24720, Note_on_c, 0, 62, 127
3, 24768, Note_off_c, 0, 62, 64
3, 24780, Note_on_c, 0, 60, 127
3, 24828, Note_off_c, 0, 60, 64
3, 24840, Note_on_c, 0, 59, 127
3, 24888, Note_off_c, 0, 59, 64
3, 24900, Note_on_c, 0, 57, 127
3, 24948, Note_off_c, 0, 57, 64
3, 24960, Note_on_c, 0, 55, 127
3, 25008, Note_off_c, 0, 55, 64
3, 25020, Note_on_c, 0, 54, 127
3, 25068, Note_off_c, 0, 54, 64
3, 25080, Note_on_c, 0, 52, 127
3, 25128, Note_off_c, 0, 52, 64
3, 25140, Note_on_c, 0, 50, 127
3, 25188, Note_off_c, 0, 50, 64
3, 25320, Note_on_c, 0, 57, 127
3, 25320, Note_on_c, 0, 62, 127
3, 25416, Note_off_c, 0, 62, 64
3, 25416, Note_off_c, 0, 57, 64
3, 25440, Note_on_c, 0, 62, 127
3, 25440, Note_on_c, 0, 57, 127
3, 25536, Note_off_c, 0, 57, 64
3, 25536, Note_off_c, 0, 62, 64
3, 25560, Note_on_c, 0, 57, 127
3, 25560, Note_on_c, 0, 62, 127
3, 25656, Note_off_c, 0, 62, 64
3, 25656, Note_off_c, 0, 57, 64
3, 25680, Note_on_c, 0, 57, 127
3, 25680, Note_on_c, 0, 62, 127
3, 25728, Note_off_c, 0, 57, 64
3, 25740, Note_on_c, 0, 60, 127
3, 25788, Note_off_c, 0, 60, 64
3, 25800, Note_on_c, 0, 59, 127
3, 25848, Note_off_c, 0, 59, 64
3, 25860, Note_on_c, 0, 57, 127
3, 25908, Note_off_c, 0, 57, 64
3, 25920, Note_on_c, 0, 55, 127
3, 25968, Note_off_c, 0, 55, 64
3, 25980, Note_on_c, 0, 57, 127
3, 26016, Note_off_c, 0, 62, 64
3, 26028, Note_off_c, 0, 57, 64
3, 26040, Note_on_c, 0, 59, 127
3, 26088, Note_off_c, 0, 59, 64
3, 26100, Note_on_c, 0, 60, 127
3, 26148, Note_off_c, 0, 60, 64
3, 26640, Note_on_c, 0, 55, 127
3, 26832, Note_off_c, 0, 55, 64
3, 27000, Note_on_c, 0, 66, 127
3, 27096, Note_off_c, 0, 66, 64
3, 27120, Note_on_c, 0, 64, 127
3, 27216, Note_off_c, 0, 64, 64
3, 27240, Note_on_c, 0, 62, 127
3, 27336, Note_off_c, 0, 62, 64
3, 27360, Note_on_c, 0, 61, 127
3, 27552, Note_off_c, 0, 61, 64
3, 28800, Note_on_c, 0, 58, 127
3, 28992, Note_off_c, 0, 58, 64
3, 29280, Note_on_c, 0, 58, 127
3, 29328, Note_off_c, 0, 58, 64
3, 29340, Note_on_c, 0, 55, 127
3, 29388, Note_off_c, 0, 55, 64
3, 29400, Note_on_c, 0, 54, 127
3, 29448, Note_off_c, 0, 54, 64
3, 29460, Note_on_c, 0, 52, 127
3, 29508, Note_off_c, 0, 52, 64
3, 29520, Note_on_c, 0, 50, 127
3, 29616, Note_off_c, 0, 50, 64
3, 29640, Note_on_c, 0, 59, 127
3, 29640, Note_on_c, 0, 62, 127
3, 29736, Note_off_c, 0, 62, 64
3, 29736, Note_off_c, 0, 59, 64
3, 29760, Note_on_c, 0, 59, 127
3, 29760, Note_on_c, 0, 64, 127
3, 29856, Note_off_c, 0, 64, 64
3, 29856, Note_off_c, 0, 59, 64
3, 29880, Note_on_c, 0, 59, 127
3, 29880, Note_on_c, 0, 64, 127
3, 29976, Note_off_c, 0, 64, 64
3, 29976, Note_off_c, 0, 59, 64
3, 30000, Note_on_c, 0, 59, 127
3, 30000, Note_on_c, 0, 62, 127
3, 30096, Note_off_c, 0, 62, 64
3, 30096, Note_off_c, 0, 59, 64
3, 30120, Note_on_c, 0, 61, 127
3, 30120, Note_on_c, 0, 64, 127
3, 30216, Note_off_c, 0, 64, 64
3, 30216, Note_off_c, 0, 61, 64
3, 30240, Note_on_c, 0, 62, 127
3, 30240, Note_on_c, 0, 59, 127
3, 30336, Note_off_c, 0, 59, 64
3, 30336, Note_off_c, 0, 62, 64
3, 30360, Note_on_c, 0, 61, 127
3, 30456, Note_off_c, 0, 61, 64
3, 30480, Note_on_c, 0, 62, 127
3, 30576, Note_off_c, 0, 62, 64
3, 30600, Note_on_c, 0, 58, 127
3, 30696, Note_off_c, 0, 58, 64
3, 30720, Note_on_c, 0, 59, 127
3, 30816, Note_off_c, 0, 59, 64
3, 30840, Note_on_c, 0, 61, 127
3, 30936, Note_off_c, 0, 61, 64
3, 30960, Note_on_c, 0, 62, 127
3, 31056, Note_off_c, 0, 62, 64
3, 31080, Note_on_c, 0, 61, 127
3, 31176, Note_off_c, 0, 61, 64
3, 31200, Note_on_c, 0, 62, 127
3, 31296, Note_off_c, 0, 62, 64
3, 31320, Note_on_c, 0, 61, 127
3, 31416, Note_off_c, 0, 61, 64
3, 31440, Note_on_c, 0, 62, 127
3, 31536, Note_off_c, 0, 62, 64
3, 31560, Note_on_c, 0, 64, 127
3, 31656, Note_off_c, 0, 64, 64
3, 31680, Note_on_c, 0, 66, 127
3, 31776, Note_off_c, 0, 66, 64
3, 31800, Note_on_c, 0, 62, 127
3, 31800, Note_on_c, 0, 59, 127
3, 31896, Note_off_c, 0, 59, 64
3, 31896, Note_off_c, 0, 62, 64
3, 31920, Note_on_c, 0, 59, 127
3, 31920, Note_on_c, 0, 64, 127
3, 32016, Note_off_c, 0, 64, 64
3, 32016, Note_off_c, 0, 59, 64
3, 32040, Note_on_c, 0, 59, 127
3, 32040, Note_on_c, 0, 64, 127
3, 32136, Note_off_c, 0, 64, 64
3, 32136, Note_off_c, 0, 59, 64
3, 32160, Note_on_c, 0, 62, 127
3, 32160, Note_on_c, 0, 59, 127
3, 32256, Note_off_c, 0, 59, 64
3, 32256, Note_off_c, 0, 62, 64
3, 32280, Note_on_c, 0, 61, 127
3, 32280, Note_on_c, 0, 54, 127
3, 32376, Note_off_c, 0, 54, 64
3, 32376, Note_off_c, 0, 61, 64
3, 32400, Note_on_c, 0, 54, 127
3, 32400, Note_on_c, 0, 59, 127
3, 32400, Note_on_c, 0, 62, 127
3, 32496, Note_off_c, 0, 62, 64
3, 32496, Note_off_c, 0, 59, 64
3, 32496, Note_off_c, 0, 54, 64
3, 33120, Note_on_c, 0, 59, 127
3, 33240, Note_on_c, 0, 64, 127
3, 33336, Note_off_c, 0, 64, 64
3, 33360, Note_on_c, 0, 64, 127
3, 33456, Note_off_c, 0, 64, 64
3, 33480, Note_on_c, 0, 64, 127
3, 33576, Note_off_c, 0, 64, 64
3, 33600, Note_on_c, 0, 64, 127
3, 33696, Note_off_c, 0, 64, 64
3, 33720, Note_on_c, 0, 64, 127
3, 33816, Note_off_c, 0, 64, 64
3, 33840, Note_on_c, 0, 64, 127
3, 33888, Note_off_c, 0, 59, 64
3, 33900, Note_on_c, 0, 57, 127
3, 33936, Note_off_c, 0, 64, 64
3, 33948, Note_off_c, 0, 57, 64
3, 33960, Note_on_c, 0, 56, 127
3, 34008, Note_off_c, 0, 56, 64
3, 34020, Note_on_c, 0, 57, 127
3, 34068, Note_off_c, 0, 57, 64
3, 34080, Note_on_c, 0, 59, 127
3, 34128, Note_off_c, 0, 59, 64
3, 34140, Note_on_c, 0, 60, 127
3, 34188, Note_off_c, 0, 60, 64
3, 34200, Note_on_c, 0, 62, 127
3, 34248, Note_off_c, 0, 62, 64
3, 34260, Note_on_c, 0, 60, 127
3, 34308, Note_off_c, 0, 60, 64
3, 34320, Note_on_c, 0, 59, 127
3, 34368, Note_off_c, 0, 59, 64
3, 34380, Note_on_c, 0, 57, 127
3, 34428, Note_off_c, 0, 57, 64
3, 34440, Note_on_c, 0, 59, 127
3, 34488, Note_off_c, 0, 59, 64
3, 34500, Note_on_c, 0, 55, 127
3, 34548, Note_off_c, 0, 55, 64
3, 34560, Note_on_c, 0, 64, 127
3, 34560, Note_on_c, 0, 57, 127
3, 34752, Note_off_c, 0, 57, 64
3, 34752, Note_off_c, 0, 64, 64
3, 34920, Note_on_c, 0, 57, 127
3, 35016, Note_off_c, 0, 57, 64
3, 35040, Note_on_c, 0, 57, 127
3, 35136, Note_off_c, 0, 57, 64
3, 35160, Note_on_c, 0, 57, 127
3, 35256, Note_off_c, 0, 57, 64
3, 35280, Note_on_c, 0, 57, 127
3, 35280, Note_on_c, 0, 62, 127
3, 35472, Note_off_c, 0, 62, 64
3, 35472, Note_off_c, 0, 57, 64
3, 36000, Note_on_c, 0, 57, 127
3, 36360, Note_on_c, 0, 62, 127
3, 36456, Note_off_c, 0, 62, 64
3, 36480, Note_on_c, 0, 62, 127
3, 36576, Note_off_c, 0, 62, 64
3, 36600, Note_on_c, 0, 62, 127
3, 36696, Note_off_c, 0, 62, 64
3, 36720, Note_on_c, 0, 62, 127
3, 36768, Note_off_c, 0, 57, 64
3, 36780, Note_on_c, 0, 55, 127
3, 36828, Note_off_c, 0, 55, 64
3, 36840, Note_on_c, 0, 54, 127
3, 36888, Note_off_c, 0, 54, 64
3, 36900, Note_on_c, 0, 55, 127
3, 36912, Note_off_c, 0, 62, 64
3, 36948, Note_off_c, 0, 55, 64
3, 36960, Note_on_c, 0, 57, 127
3, 37008, Note_off_c, 0, 57, 64
3, 37020, Note_on_c, 0, 59, 127
3, 37068, Note_off_c, 0, 59, 64
3, 37080, Note_on_c, 0, 60, 127
3, 37128, Note_off_c, 0, 60, 64
3, 37140, Note_on_c, 0, 59, 127
3, 37188, Note_off_c, 0, 59, 64
3, 37200, Note_on_c, 0, 57, 127
3, 37248, Note_off_c, 0, 57, 64
3, 37260, Note_on_c, 0, 55, 127
3, 37308, Note_off_c, 0, 55, 64
3, 37320, Note_on_c, 0, 57, 127
3, 37368, Note_off_c, 0, 57, 64
3, 37380, Note_on_c, 0, 54, 127
3, 37428, Note_off_c, 0, 54, 64
3, 37440, Note_on_c, 0, 55, 127
3, 37488, Note_off_c, 0, 55, 64
3, 37500, Note_on_c, 0, 50, 127
3, 37548, Note_off_c, 0, 50, 64
3, 37560, Note_on_c, 0, 47, 127
3, 37608, Note_off_c, 0, 47, 64
3, 37620, Note_on_c, 0, 50, 127
3, 37668, Note_off_c, 0, 50, 64
3, 37680, Note_on_c, 0, 43, 127
3, 37728, Note_off_c, 0, 43, 64
3, 37740, Note_on_c, 0, 50, 127
3, 37788, Note_off_c, 0, 50, 64
3, 37800, Note_on_c, 0, 52, 127
3, 37848, Note_off_c, 0, 52, 64
3, 37860, Note_on_c, 0, 54, 127
3, 37908, Note_off_c, 0, 54, 64
3, 37920, Note_on_c, 0, 55, 127
3, 37968, Note_off_c, 0, 55, 64
3, 37980, Note_on_c, 0, 57, 127
3, 38028, Note_off_c, 0, 57, 64
3, 38040, Note_on_c, 0, 59, 127
3, 38088, Note_off_c, 0, 59, 64
3, 38100, Note_on_c, 0, 55, 127
3, 38148, Note_off_c, 0, 55, 64
3, 38160, Note_on_c, 0, 60, 127
3, 38208, Note_off_c, 0, 60, 64
3, 38220, Note_on_c, 0, 62, 127
3, 38268, Note_off_c, 0, 62, 64
3, 38280, Note_on_c, 0, 60, 127
3, 38328, Note_off_c, 0, 60, 64
3, 38340, Note_on_c, 0, 59, 127
3, 38388, Note_off_c, 0, 59, 64
3, 38400, Note_on_c, 0, 57, 127
3, 38448, Note_off_c, 0, 57, 64
3, 38460, Note_on_c, 0, 55, 127
3, 38508, Note_off_c, 0, 55, 64
3, 38520, Note_on_c, 0, 54, 127
3, 38568, Note_off_c, 0, 54, 64
3, 38580, Note_on_c, 0, 52, 127
3, 38628, Note_off_c, 0, 52, 64
3, 38640, Note_on_c, 0, 50, 127
3, 38688, Note_off_c, 0, 50, 64
3, 38700, Note_on_c, 0, 48, 127
3, 38748, Note_off_c, 0, 48, 64
3, 38760, Note_on_c, 0, 47, 127
3, 38808, Note_off_c, 0, 47, 64
3, 38820, Note_on_c, 0, 45, 127
3, 38868, Note_off_c, 0, 45, 64
3, 38880, Note_on_c, 0, 43, 127
3, 38928, Note_off_c, 0, 43, 64
3, 38940, Note_on_c, 0, 50, 127
3, 38988, Note_off_c, 0, 50, 64
3, 39000, Note_on_c, 0, 52, 127
3, 39048, Note_off_c, 0, 52, 64
3, 39060, Note_on_c, 0, 53, 127
3, 39108, Note_off_c, 0, 53, 64
3, 39120, Note_on_c, 0, 55, 127
3, 39168, Note_off_c, 0, 55, 64
3, 39180, Note_on_c, 0, 57, 127
3, 39228, Note_off_c, 0, 57, 64
3, 39240, Note_on_c, 0, 59, 127
3, 39288, Note_off_c, 0, 59, 64
3, 39300, Note_on_c, 0, 60, 127
3, 39348, Note_off_c, 0, 60, 64
3, 39360, Note_on_c, 0, 59, 127
3, 39408, Note_off_c, 0, 59, 64
3, 39420, Note_on_c, 0, 57, 127
3, 39468, Note_off_c, 0, 57, 64
3, 39480, Note_on_c, 0, 55, 127
3, 39528, Note_off_c, 0, 55, 64
3, 39540, Note_on_c, 0, 57, 127
3, 39588, Note_off_c, 0, 57, 64
3, 39600, Note_on_c, 0, 58, 127
3, 39648, Note_off_c, 0, 58, 64
3, 39660, Note_on_c, 0, 57, 127
3, 39708, Note_off_c, 0, 57, 64
3, 39720, Note_on_c, 0, 55, 127
3, 39768, Note_off_c, 0, 55, 64
3, 39780, Note_on_c, 0, 54, 127
3, 39828, Note_off_c, 0, 54, 64
3, 39840, Note_on_c, 0, 55, 127
3, 39888, Note_off_c, 0, 55, 64
3, 39900, Note_on_c, 0, 57, 127
3, 39948, Note_off_c, 0, 57, 64
3, 39960, Note_on_c, 0, 58, 127
3, 40008, Note_off_c, 0, 58, 64
3, 40020, Note_on_c, 0, 57, 127
3, 40068, Note_off_c, 0, 57, 64
3, 40080, Note_on_c, 0, 55, 127
3, 40128, Note_off_c, 0, 55, 64
3, 40140, Note_on_c, 0, 58, 127
3, 40188, Note_off_c, 0, 58, 64
3, 40200, Note_on_c, 0, 57, 127
3, 40248, Note_off_c, 0, 57, 64
3, 40260, Note_on_c, 0, 55, 127
3, 40308, Note_off_c, 0, 55, 64
3, 40320, Note_on_c, 0, 57, 127
3, 40416, Note_off_c, 0, 57, 64
3, 40440, Note_on_c, 0, 50, 127
3, 40536, Note_off_c, 0, 50, 64
3, 41040, Note_on_c, 0, 55, 127
3, 41232, Note_off_c, 0, 55, 64
3, 41340, Note_on_c, 0, 62, 127
3, 41388, Note_off_c, 0, 62, 64
3, 41400, Note_on_c, 0, 60, 127
3, 41448, Note_off_c, 0, 60, 64
3, 41460, Note_on_c, 0, 59, 127
3, 41508, Note_off_c, 0, 59, 64
3, 41520, Note_on_c, 0, 57, 127
3, 41568, Note_off_c, 0, 57, 64
3, 41580, Note_on_c, 0, 60, 127
3, 41628, Note_off_c, 0, 60, 64
3, 41640, Note_on_c, 0, 59, 127
3, 41688, Note_off_c, 0, 59, 64
3, 41700, Note_on_c, 0, 57, 127
3, 41748, Note_off_c, 0, 57, 64
3, 41760, Note_on_c, 0, 59, 127
3, 41952, Note_off_c, 0, 59, 64
3, 42120, Note_on_c, 0, 55, 127
3, 42216, Note_off_c, 0, 55, 64
3, 42240, Note_on_c, 0, 55, 127
3, 42336, Note_off_c, 0, 55, 64
3, 42360, Note_on_c, 0, 55, 127
3, 42456, Note_off_c, 0, 55, 64
3, 42480, Note_on_c, 0, 54, 127
3, 42672, Note_off_c, 0, 54, 64
3, 42840, Note_on_c, 0, 54, 127
3, 42936, Note_off_c, 0, 54, 64
3, 42960, Note_on_c, 0, 57, 127
3, 43056, Note_off_c, 0, 57, 64
3, 43080, Note_on_c, 0, 54, 127
3, 43176, Note_off_c, 0, 54, 64
3, 43200, Note_on_c, 0, 55, 127
3, 43296, Note_off_c, 0, 55, 64
3, 43560, Note_on_c, 0, 62, 127
3, 43656, Note_off_c, 0, 62, 64
3, 43680, Note_on_c, 0, 67, 127
3, 43776, Note_off_c, 0, 67, 64
3, 43800, Note_on_c, 0, 65, 127
3, 43896, Note_off_c, 0, 65, 64
3, 43920, Note_on_c, 0, 64, 127
3, 44112, Note_off_c, 0, 64, 64
3, 44280, Note_on_c, 0, 64, 127
3, 44376, Note_off_c, 0, 64, 64
3, 44400, Note_on_c, 0, 62, 127
3, 44496, Note_off_c, 0, 62, 64
3, 44520, Note_on_c, 0, 64, 127
3, 44616, Note_off_c, 0, 64, 64
3, 44640, Note_on_c, 0, 66, 127
3, 44688, Note_off_c, 0, 66, 64
3, 44700, Note_on_c, 0, 64, 127
3, 44748, Note_off_c, 0, 64, 64
3, 44760, Note_on_c, 0, 66, 127
3, 44808, Note_off_c, 0, 66, 64
3, 44820, Note_on_c, 0, 67, 127
3, 44868, Note_off_c, 0, 67, 64
3, 44880, Note_on_c, 0, 66, 127
3, 44928, Note_off_c, 0, 66, 64
3, 44940, Note_on_c, 0, 69, 127
3, 44988, Note_off_c, 0, 69, 64
3, 45000, Note_on_c, 0, 62, 127
3, 45048, Note_off_c, 0, 62, 64
3, 45060, Note_on_c, 0, 69, 127
3, 45108, Note_off_c, 0, 69, 64
3, 45120, Note_on_c, 0, 64, 127
3, 45168, Note_off_c, 0, 64, 64
3, 45180, Note_on_c, 0, 69, 127
3, 45228, Note_off_c, 0, 69, 64
3, 45240, Note_on_c, 0, 66, 127
3, 45288, Note_off_c, 0, 66, 64
3, 45300, Note_on_c, 0, 69, 127
3, 45348, Note_off_c, 0, 69, 64
3, 45360, Note_on_c, 0, 67, 127
3, 45408, Note_off_c, 0, 67, 64
3, 45420, Note_on_c, 0, 66, 127
3, 45468, Note_off_c, 0, 66, 64
3, 45480, Note_on_c, 0, 67, 127
3, 45528, Note_off_c, 0, 67, 64
3, 45540, Note_on_c, 0, 69, 127
3, 45588, Note_off_c, 0, 69, 64
3, 45600, Note_on_c, 0, 67, 127
3, 45648, Note_off_c, 0, 67, 64
3, 45660, Note_on_c, 0, 71, 127
3, 45708, Note_off_c, 0, 71, 64
3, 45720, Note_on_c, 0, 64, 127
3, 45768, Note_off_c, 0, 64, 64
3, 45780, Note_on_c, 0, 71, 127
3, 45828, Note_off_c, 0, 71, 64
3, 45840, Note_on_c, 0, 66, 127
3, 45888, Note_off_c, 0, 66, 64
3, 45900, Note_on_c, 0, 71, 127
3, 45948, Note_off_c, 0, 71, 64
3, 45960, Note_on_c, 0, 67, 127
3, 46008, Note_off_c, 0, 67, 64
3, 46020, Note_on_c, 0, 71, 127
3, 46068, Note_off_c, 0, 71, 64
3, 46080, Note_on_c, 0, 69, 127
3, 46128, Note_off_c, 0, 69, 64
3, 46140, Note_on_c, 0, 67, 127
3, 46188, Note_off_c, 0, 67, 64
3, 46200, Note_on_c, 0, 69, 127
3, 46248, Note_off_c, 0, 69, 64
3, 46260, Note_on_c, 0, 71, 127
3, 46308, Note_off_c, 0, 71, 64
3, 46320, Note_on_c, 0, 69, 127
3, 46368, Note_off_c, 0, 69, 64
3, 46380, Note_on_c, 0, 72, 127
3, 46428, Note_off_c, 0, 72, 64
3, 46440, Note_on_c, 0, 67, 127
3, 46488, Note_off_c, 0, 67, 64
3, 46500, Note_on_c, 0, 72, 127
3, 46548, Note_off_c, 0, 72, 64
3, 46560, Note_on_c, 0, 66, 127
3, 46608, Note_off_c, 0, 66, 64
3, 46620, Note_on_c, 0, 72, 127
3, 46668, Note_off_c, 0, 72, 64
3, 46680, Note_on_c, 0, 64, 127
3, 46728, Note_off_c, 0, 64, 64
3, 46740, Note_on_c, 0, 72, 127
3, 46788, Note_off_c, 0, 72, 64
3, 46800, Note_on_c, 0, 62, 127
3, 46848, Note_off_c, 0, 62, 64
3, 46860, Note_on_c, 0, 71, 127
3, 46908, Note_off_c, 0, 71, 64
3, 46920, Note_on_c, 0, 69, 127
3, 46968, Note_off_c, 0, 69, 64
3, 46980, Note_on_c, 0, 71, 127
3, 47028, Note_off_c, 0, 71, 64
3, 47040, Note_on_c, 0, 67, 127
3, 47088, Note_off_c, 0, 67, 64
3, 47100, Note_on_c, 0, 71, 127
3, 47148, Note_off_c, 0, 71, 64
3, 47160, Note_on_c, 0, 66, 127
3, 47208, Note_off_c, 0, 66, 64
3, 47220, Note_on_c, 0, 71, 127
3, 47268, Note_off_c, 0, 71, 64
3, 47280, Note_on_c, 0, 64, 127
3, 47328, Note_off_c, 0, 64, 64
3, 47340, Note_on_c, 0, 71, 127
3, 47388, Note_off_c, 0, 71, 64
3, 47400, Note_on_c, 0, 62, 127
3, 47448, Note_off_c, 0, 62, 64
3, 47460, Note_on_c, 0, 71, 127
3, 47508, Note_off_c, 0, 71, 64
3, 47520, Note_on_c, 0, 60, 127
3, 47568, Note_off_c, 0, 60, 64
3, 47580, Note_on_c, 0, 69, 127
3, 47628, Note_off_c, 0, 69, 64
3, 47640, Note_on_c, 0, 67, 127
3, 47688, Note_off_c, 0, 67, 64
3, 47700, Note_on_c, 0, 69, 127
3, 47748, Note_off_c, 0, 69, 64
3, 47760, Note_on_c, 0, 66, 127
3, 47808, Note_off_c, 0, 66, 64
3, 47820, Note_on_c, 0, 69, 127
3, 47868, Note_off_c, 0, 69, 64
3, 47880, Note_on_c, 0, 64, 127
3, 47928, Note_off_c, 0, 64, 64
3, 47940, Note_on_c, 0, 69, 127
3, 47988, Note_off_c, 0, 69, 64
3, 48000, Note_on_c, 0, 62, 127
3, 48048, Note_off_c, 0, 62, 64
3, 48060, Note_on_c, 0, 69, 127
3, 48108, Note_off_c, 0, 69, 64
3, 48120, Note_on_c, 0, 60, 127
3, 48168, Note_off_c, 0, 60, 64
3, 48180, Note_on_c, 0, 69, 127
3, 48228, Note_off_c, 0, 69, 64
3, 48240, Note_on_c, 0, 58, 127
3, 48288, Note_off_c, 0, 58, 64
3, 48300, Note_on_c, 0, 67, 127
3, 48348, Note_off_c, 0, 67, 64
3, 48360, Note_on_c, 0, 66, 127
3, 48408, Note_off_c, 0, 66, 64
3, 48420, Note_on_c, 0, 67, 127
3, 48468, Note_off_c, 0, 67, 64
3, 48480, Note_on_c, 0, 64, 127
3, 48528, Note_off_c, 0, 64, 64
3, 48540, Note_on_c, 0, 67, 127
3, 48588, Note_off_c, 0, 67, 64
3, 48600, Note_on_c, 0, 62, 127
3, 48648, Note_off_c, 0, 62, 64
3, 48660, Note_on_c, 0, 67, 127
3, 48708, Note_off_c, 0, 67, 64
3, 48720, Note_on_c, 0, 61, 127
3, 48768, Note_off_c, 0, 61, 64
3, 48780, Note_on_c, 0, 67, 127
3, 48828, Note_off_c, 0, 67, 64
3, 48840, Note_on_c, 0, 58, 127
3, 48900, Note_on_c, 0, 61, 127
3, 48936, Note_off_c, 0, 58, 64
3, 48948, Note_off_c, 0, 61, 64
3, 48960, Note_on_c, 0, 62, 127
3, 48960, Note_on_c, 0, 57, 127
3, 49056, Note_off_c, 0, 57, 64
3, 49056, Note_off_c, 0, 62, 64
3, 49260, Note_on_c, 0, 60, 127
3, 49308, Note_off_c, 0, 60, 64
3, 49320, Note_on_c, 0, 57, 127
3, 49368, Note_off_c, 0, 57, 64
3, 49380, Note_on_c, 0, 54, 127
3, 49428, Note_off_c, 0, 54, 64
3, 49440, Note_on_c, 0, 50, 127
3, 49536, Note_off_c, 0, 50, 64
3, 49560, Note_on_c, 0, 52, 127
3, 49608, Note_off_c, 0, 52, 64
3, 49620, Note_on_c, 0, 54, 127
3, 49668, Note_off_c, 0, 54, 64
3, 49680, Note_on_c, 0, 55, 127
3, 49728, Note_off_c, 0, 55, 64
3, 49740, Note_on_c, 0, 54, 127
3, 49788, Note_off_c, 0, 54, 64
3, 49800, Note_on_c, 0, 55, 127
3, 49848, Note_off_c, 0, 55, 64
3, 49860, Note_on_c, 0, 57, 127
3, 49908, Note_off_c, 0, 57, 64
3, 49920, Note_on_c, 0, 59, 127
3, 49968, Note_off_c, 0, 59, 64
3, 49980, Note_on_c, 0, 57, 127
3, 50028, Note_off_c, 0, 57, 64
3, 50040, Note_on_c, 0, 59, 127
3, 50088, Note_off_c, 0, 59, 64
3, 50100, Note_on_c, 0, 60, 127
3, 50148, Note_off_c, 0, 60, 64
3, 50160, Note_on_c, 0, 62, 127
3, 50208, Note_off_c, 0, 62, 64
3, 50220, Note_on_c, 0, 60, 127
3, 50268, Note_off_c, 0, 60, 64
3, 50280, Note_on_c, 0, 59, 127
3, 50328, Note_off_c, 0, 59, 64
3, 50340, Note_on_c, 0, 57, 127
3, 50388, Note_off_c, 0, 57, 64
3, 50400, Note_on_c, 0, 55, 127
3, 50448, Note_off_c, 0, 55, 64
3, 50460, Note_on_c, 0, 65, 127
3, 50508, Note_off_c, 0, 65, 64
3, 50520, Note_on_c, 0, 64, 127
3, 50568, Note_off_c, 0, 64, 64
3, 50580, Note_on_c, 0, 62, 127
3, 50628, Note_off_c, 0, 62, 64
3, 50640, Note_on_c, 0, 60, 127
3, 50760, Note_on_c, 0, 64, 127
3, 50856, Note_off_c, 0, 64, 64
3, 50880, Note_on_c, 0, 66, 127
3, 50976, Note_off_c, 0, 66, 64
3, 51000, Note_on_c, 0, 67, 127
3, 51096, Note_off_c, 0, 67, 64
3, 51120, Note_on_c, 0, 60, 127
3, 51168, Note_off_c, 0, 60, 64
3, 51180, Note_on_c, 0, 67, 127
3, 51228, Note_off_c, 0, 67, 64
3, 51240, Note_on_c, 0, 66, 127
3, 51288, Note_off_c, 0, 66, 64
3, 51300, Note_on_c, 0, 64, 127
3, 51312, Note_off_c, 0, 60, 64
3, 51348, Note_off_c, 0, 64, 64
3, 51360, Note_on_c, 0, 62, 127
3, 51360, Note_on_c, 0, 59, 127
3, 51888, Note_off_c, 0, 62, 64
3, 51900, Note_on_c, 0, 60, 127
3, 51936, Note_off_c, 0, 59, 64
3, 51948, Note_off_c, 0, 60, 64
3, 51960, Note_on_c, 0, 52, 127
3, 51960, Note_on_c, 0, 59, 127
3, 52008, Note_off_c, 0, 59, 64
3, 52020, Note_on_c, 0, 62, 127
3, 52056, Note_off_c, 0, 52, 64
3, 52068, Note_off_c, 0, 62, 64
3, 52080, Note_on_c, 0, 60, 127
3, 52080, Note_on_c, 0, 57, 127
3, 52752, Note_off_c, 0, 60, 64
3, 52752, Note_off_c, 0, 57, 64
3, 53280, Note_on_c, 0, 71, 127
3, 53328, Note_off_c, 0, 71, 64
3, 53340, Note_on_c, 0, 74, 127
3, 53388, Note_off_c, 0, 74, 64
3, 53400, Note_on_c, 0, 67, 127
3, 53448, Note_off_c, 0, 67, 64
3, 53460, Note_on_c, 0, 71, 127
3, 53508, Note_off_c, 0, 71, 64
3, 53520, Note_on_c, 0, 62, 127
3, 53568, Note_off_c, 0, 62, 64
3, 53580, Note_on_c, 0, 72, 127
3, 53628, Note_off_c, 0, 72, 64
3, 53640, Note_on_c, 0, 71, 127
3, 53688, Note_off_c, 0, 71, 64
3, 53700, Note_on_c, 0, 69, 127
3, 53748, Note_off_c, 0, 69, 64
3, 53760, Note_on_c, 0, 67, 127
3, 53808, Note_off_c, 0, 67, 64
3, 53820, Note_on_c, 0, 66, 127
3, 53868, Note_off_c, 0, 66, 64
3, 53880, Note_on_c, 0, 64, 127
3, 53928, Note_off_c, 0, 64, 64
3, 53940, Note_on_c, 0, 62, 127
3, 53988, Note_off_c, 0, 62, 64
3, 54000, Note_on_c, 0, 61, 127
3, 54048, Note_off_c, 0, 61, 64
3, 54060, Note_on_c, 0, 64, 127
3, 54108, Note_off_c, 0, 64, 64
3, 54120, Note_on_c, 0, 55, 127
3, 54168, Note_off_c, 0, 55, 64
3, 54180, Note_on_c, 0, 58, 127
3, 54228, Note_off_c, 0, 58, 64
3, 54240, Note_on_c, 0, 52, 127
3, 54288, Note_off_c, 0, 52, 64
3, 54300, Note_on_c, 0, 55, 127
3, 54348, Note_off_c, 0, 55, 64
3, 54360, Note_on_c, 0, 58, 127
3, 54408, Note_off_c, 0, 58, 64
3, 54420, Note_on_c, 0, 62, 127
3, 54468, Note_off_c, 0, 62, 64
3, 54480, Note_on_c, 0, 61, 127
3, 54528, Note_off_c, 0, 61, 64
3, 54540, Note_on_c, 0, 64, 127
3, 54588, Note_off_c, 0, 64, 64
3, 54600, Note_on_c, 0, 57, 127
3, 54648, Note_off_c, 0, 57, 64
3, 54660, Note_on_c, 0, 55, 127
3, 54708, Note_off_c, 0, 55, 64
3, 54720, Note_on_c, 0, 54, 127
3, 54816, Note_off_c, 0, 54, 64
3, 54840, Note_on_c, 0, 60, 127
3, 54936, Note_off_c, 0, 60, 64
3, 54960, Note_on_c, 0, 59, 127
3, 55056, Note_off_c, 0, 59, 64
3, 55080, Note_on_c, 0, 60, 127
3, 55080, Note_on_c, 0, 57, 127
3, 55176, Note_off_c, 0, 57, 64
3, 55176, Note_off_c, 0, 60, 64
3, 55200, Note_on_c, 0, 55, 127
3, 55200, Note_on_c, 0, 59, 127
3, 55296, Note_off_c, 0, 59, 64
3, 55296, Note_off_c, 0, 55, 64
3, 55320, Note_on_c, 0, 54, 127
3, 55320, Note_on_c, 0, 57, 127
3, 55416, Note_off_c, 0, 57, 64
3, 55416, Note_off_c, 0, 54, 64
3, 55440, Note_on_c, 0, 55, 127
3, 55632, Note_off_c, 0, 55, 64
3, 55800, Note_on_c, 0, 55, 127
3, 55896, Note_off_c, 0, 55, 64
3, 55920, Note_on_c, 0, 62, 127
3, 56016, Note_off_c, 0, 62, 64
3, 56040, Note_on_c, 0, 57, 127
3, 56136, Note_off_c, 0, 57, 64
3, 56160, Note_on_c, 0, 55, 127
3, 56208, Note_off_c, 0, 55, 64
3, 56220, Note_on_c, 0, 54, 127
3, 56268, Note_off_c, 0, 54, 64
3, 56280, Note_on_c, 0, 55, 127
3, 56328, Note_off_c, 0, 55, 64
3, 56340, Note_on_c, 0, 57, 127
3, 56388, Note_off_c, 0, 57, 64
3, 56400, Note_on_c, 0, 55, 127
3, 56448, Note_off_c, 0, 55, 64
3, 56460, Note_on_c, 0, 59, 127
3, 56508, Note_off_c, 0, 59, 64
3, 56520, Note_on_c, 0, 50, 127
3, 56568, Note_off_c, 0, 50, 64
3, 56580, Note_on_c, 0, 59, 127
3, 56628, Note_off_c, 0, 59, 64
3, 56640, Note_on_c, 0, 52, 127
3, 56688, Note_off_c, 0, 52, 64
3, 56700, Note_on_c, 0, 59, 127
3, 56748, Note_off_c, 0, 59, 64
3, 56760, Note_on_c, 0, 54, 127
3, 56808, Note_off_c, 0, 54, 64
3, 56820, Note_on_c, 0, 59, 127
3, 56868, Note_off_c, 0, 59, 64
3, 56880, Note_on_c, 0, 55, 127
3, 56928, Note_off_c, 0, 55, 64
3, 56940, Note_on_c, 0, 54, 127
3, 56988, Note_off_c, 0, 54, 64
3, 57000, Note_on_c, 0, 55, 127
3, 57048, Note_off_c, 0, 55, 64
3, 57060, Note_on_c, 0, 57, 127
3, 57108, Note_off_c, 0, 57, 64
3, 57120, Note_on_c, 0, 55, 127
3, 57168, Note_off_c, 0, 55, 64
3, 57180, Note_on_c, 0, 60, 127
3, 57228, Note_off_c, 0, 60, 64
3, 57240, Note_on_c, 0, 54, 127
3, 57288, Note_off_c, 0, 54, 64
3, 57300, Note_on_c, 0, 62, 127
3, 57348, Note_off_c, 0, 62, 64
3, 57360, Note_on_c, 0, 55, 127
3, 57408, Note_off_c, 0, 55, 64
3, 57420, Note_on_c, 0, 64, 127
3, 57468, Note_off_c, 0, 64, 64
3, 57480, Note_on_c, 0, 57, 127
3, 57528, Note_off_c, 0, 57, 64
3, 57540, Note_on_c, 0, 66, 127
3, 57588, Note_off_c, 0, 66, 64
3, 57720, Note_on_c, 0, 55, 127
3, 57816, Note_off_c, 0, 55, 64
3, 57840, Note_on_c, 0, 55, 127
3, 57936, Note_off_c, 0, 55, 64
3, 57960, Note_on_c, 0, 60, 127
3, 58056, Note_off_c, 0, 60, 64
3, 58080, Note_on_c, 0, 59, 127
3, 58176, Note_off_c, 0, 59, 64
3, 58200, Note_on_c, 0, 57, 127
3, 58296, Note_off_c, 0, 57, 64
3, 58320, Note_on_c, 0, 55, 127
3, 58512, Note_off_c, 0, 55, 64
3, 58512, End_track
4, 0, Start_track
4, 0, Title_t, "Copyright 1998(c), G. Bricault"
4, 0, Program_c, 0, 19
4, 0, Control_c, 0, 7, 127
4, 8040, Note_on_c, 0, 55, 127
4, 8097, Note_off_c, 0, 55, 64
4, 8100, Note_on_c, 0, 54, 127
4, 8148, Note_off_c, 0, 54, 64
4, 8160, Note_on_c, 0, 55, 127
4, 8256, Note_off_c, 0, 55, 64
4, 8280, Note_on_c, 0, 50, 127
4, 8376, Note_off_c, 0, 50, 64
4, 8400, Note_on_c, 0, 59, 127
4, 8496, Note_off_c, 0, 59, 64
4, 8520, Note_on_c, 0, 55, 127
4, 8616, Note_off_c, 0, 55, 64
4, 8640, Note_on_c, 0, 57, 127
4, 8832, Note_off_c, 0, 57, 64
4, 8880, Note_on_c, 0, 50, 127
4, 9072, Note_off_c, 0, 50, 64
4, 9480, Note_on_c, 0, 57, 127
4, 9528, Note_off_c, 0, 57, 64
4, 9540, Note_on_c, 0, 55, 127
4, 9588, Note_off_c, 0, 55, 64
4, 9600, Note_on_c, 0, 57, 127
4, 9696, Note_off_c, 0, 57, 64
4, 9720, Note_on_c, 0, 50, 127
4, 9816, Note_off_c, 0, 50, 64
4, 9840, Note_on_c, 0, 60, 127
4, 9936, Note_off_c, 0, 60, 64
4, 9960, Note_on_c, 0, 57, 127
4, 10056, Note_off_c, 0, 57, 64
4, 10080, Note_on_c, 0, 59, 127
4, 10272, Note_off_c, 0, 59, 64
4, 10320, Note_on_c, 0, 50, 127
4, 10512, Note_off_c, 0, 50, 64
4, 10860, Note_on_c, 0, 59, 127
4, 10908, Note_off_c, 0, 59, 64
4, 10920, Note_on_c, 0, 57, 127
4, 10968, Note_off_c, 0, 57, 64
4, 10980, Note_on_c, 0, 59, 127
4, 11028, Note_off_c, 0, 59, 64
4, 11040, Note_on_c, 0, 55, 127
4, 11088, Note_off_c, 0, 55, 64
4, 11100, Note_on_c, 0, 57, 127
4, 11148, Note_off_c, 0, 57, 64
4, 11160, Note_on_c, 0, 53, 127
4, 11208, Note_off_c, 0, 53, 64
4, 11220, Note_on_c, 0, 55, 127
4, 11268, Note_off_c, 0, 55, 64
4, 11280, Note_on_c, 0, 52, 127
4, 11328, Note_off_c, 0, 52, 64
4, 11340, Note_on_c, 0, 53, 127
4, 11388, Note_off_c, 0, 53, 64
4, 11400, Note_on_c, 0, 50, 127
4, 11448, Note_off_c, 0, 50, 64
4, 11460, Note_on_c, 0, 52, 127
4, 11508, Note_off_c, 0, 52, 64
4, 11520, Note_on_c, 0, 48, 127
4, 11568, Note_off_c, 0, 48, 64
4, 11580, Note_on_c, 0, 60, 127
4, 11628, Note_off_c, 0, 60, 64
4, 11640, Note_on_c, 0, 59, 127
4, 11688, Note_off_c, 0, 59, 64
4, 11700, Note_on_c, 0, 60, 127
4, 11748, Note_off_c, 0, 60, 64
4, 11760, Note_on_c, 0, 57, 127
4, 11808, Note_off_c, 0, 57, 64
4, 11820, Note_on_c, 0, 59, 127
4, 11868, Note_off_c, 0, 59, 64
4, 11880, Note_on_c, 0, 55, 127
4, 11928, Note_off_c, 0, 55, 64
4, 11940, Note_on_c, 0, 57, 127
4, 11988, Note_off_c, 0, 57, 64
4, 12000, Note_on_c, 0, 54, 127
4, 12048, Note_off_c, 0, 54, 64
4, 12060, Note_on_c, 0, 55, 127
4, 12108, Note_off_c, 0, 55, 64
4, 12120, Note_on_c, 0, 52, 127
4, 12168, Note_off_c, 0, 52, 64
4, 12180, Note_on_c, 0, 54, 127
4, 12228, Note_off_c, 0, 54, 64
4, 12240, Note_on_c, 0, 50, 127
4, 12432, Note_off_c, 0, 50, 64
4, 12600, Note_on_c, 0, 50, 127
4, 12696, Note_off_c, 0, 50, 64
4, 12720, Note_on_c, 0, 50, 127
4, 12816, Note_off_c, 0, 50, 64
4, 12840, Note_on_c, 0, 50, 127
4, 12936, Note_off_c, 0, 50, 64
4, 12960, Note_on_c, 0, 50, 127
4, 13152, Note_off_c, 0, 50, 64
4, 13320, Note_on_c, 0, 50, 127
4, 13416, Note_off_c, 0, 50, 64
4, 13440, Note_on_c, 0, 50, 127
4, 13536, Note_off_c, 0, 50, 64
4, 13560, Note_on_c, 0, 50, 127
4, 13656, Note_off_c, 0, 50, 64
4, 13680, Note_on_c, 0, 50, 127
4, 13872, Note_off_c, 0, 50, 64
4, 14040, Note_on_c, 0, 50, 127
4, 14136, Note_off_c, 0, 50, 64
4, 14160, Note_on_c, 0, 50, 127
4, 14256, Note_off_c, 0, 50, 64
4, 14280, Note_on_c, 0, 50, 127
4, 14376, Note_off_c, 0, 50, 64
4, 14400, Note_on_c, 0, 43, 127
4, 14448, Note_off_c, 0, 43, 64
4, 14460, Note_on_c, 0, 59, 127
4, 14508, Note_off_c, 0, 59, 64
4, 14520, Note_on_c, 0, 57, 127
4, 14568, Note_off_c, 0, 57, 64
4, 14580, Note_on_c, 0, 59, 127
4, 14628, Note_off_c, 0, 59, 64
4, 14640, Note_on_c, 0, 55, 127
4, 14688, Note_off_c, 0, 55, 64
4, 14700, Note_on_c, 0, 59, 127
4, 14748, Note_off_c, 0, 59, 64
4, 14760, Note_on_c, 0, 54, 127
4, 14808, Note_off_c, 0, 54, 64
4, 14820, Note_on_c, 0, 59, 127
4, 14868, Note_off_c, 0, 59, 64
4, 14880, Note_on_c, 0, 52, 127
4, 14928, Note_off_c, 0, 52, 64
4, 14940, Note_on_c, 0, 59, 127
4, 14988, Note_off_c, 0, 59, 64
4, 15000, Note_on_c, 0, 50, 127
4, 15048, Note_off_c, 0, 50, 64
4, 15060, Note_on_c, 0, 59, 127
4, 15108, Note_off_c, 0, 59, 64
4, 15120, Note_on_c, 0, 49, 127
4, 15168, Note_off_c, 0, 49, 64
4, 15180, Note_on_c, 0, 57, 127
4, 15228, Note_off_c, 0, 57, 64
4, 15240, Note_on_c, 0, 55, 127
4, 15288, Note_off_c, 0, 55, 64
4, 15300, Note_on_c, 0, 57, 127
4, 15348, Note_off_c, 0, 57, 64
4, 15360, Note_on_c, 0, 54, 127
4, 15408, Note_off_c, 0, 54, 64
4, 15420, Note_on_c, 0, 57, 127
4, 15468, Note_off_c, 0, 57, 64
4, 15480, Note_on_c, 0, 52, 127
4, 15528, Note_off_c, 0, 52, 64
4, 15540, Note_on_c, 0, 57, 127
4, 15588, Note_off_c, 0, 57, 64
4, 15600, Note_on_c, 0, 50, 127
4, 15648, Note_off_c, 0, 50, 64
4, 15660, Note_on_c, 0, 57, 127
4, 15708, Note_off_c, 0, 57, 64
4, 15720, Note_on_c, 0, 49, 127
4, 15768, Note_off_c, 0, 49, 64
4, 15780, Note_on_c, 0, 57, 127
4, 15828, Note_off_c, 0, 57, 64
4, 15840, Note_on_c, 0, 47, 127
4, 15888, Note_off_c, 0, 47, 64
4, 15900, Note_on_c, 0, 55, 127
4, 15948, Note_off_c, 0, 55, 64
4, 15960, Note_on_c, 0, 54, 127
4, 16008, Note_off_c, 0, 54, 64
4, 16020, Note_on_c, 0, 55, 127
4, 16068, Note_off_c, 0, 55, 64
4, 16080, Note_on_c, 0, 52, 127
4, 16128, Note_off_c, 0, 52, 64
4, 16140, Note_on_c, 0, 55, 127
4, 16188, Note_off_c, 0, 55, 64
4, 16200, Note_on_c, 0, 50, 127
4, 16248, Note_off_c, 0, 50, 64
4, 16260, Note_on_c, 0, 55, 127
4, 16308, Note_off_c, 0, 55, 64
4, 16320, Note_on_c, 0, 49, 127
4, 16368, Note_off_c, 0, 49, 64
4, 16380, Note_on_c, 0, 55, 127
4, 16428, Note_off_c, 0, 55, 64
4, 16440, Note_on_c, 0, 47, 127
4, 16488, Note_off_c, 0, 47, 64
4, 16500, Note_on_c, 0, 55, 127
4, 16548, Note_off_c, 0, 55, 64
4, 16560, Note_on_c, 0, 45, 127
4, 16656, Note_off_c, 0, 45, 64
4, 17280, Note_on_c, 0, 45, 127
4, 17376, Note_off_c, 0, 45, 64
4, 18000, Note_on_c, 0, 45, 127
4, 18096, Note_off_c, 0, 45, 64
4, 18840, Note_on_c, 0, 45, 127
4, 18936, Note_off_c, 0, 45, 64
4, 18960, Note_on_c, 0, 47, 127
4, 19056, Note_off_c, 0, 47, 64
4, 19080, Note_on_c, 0, 49, 127
4, 19176, Note_off_c, 0, 49, 64
4, 19200, Note_on_c, 0, 50, 127
4, 19296, Note_off_c, 0, 50, 64
4, 19320, Note_on_c, 0, 52, 127
4, 19416, Note_off_c, 0, 52, 64
4, 19440, Note_on_c, 0, 54, 127
4, 19536, Note_off_c, 0, 54, 64
4, 19560, Note_on_c, 0, 55, 127
4, 19656, Note_off_c, 0, 55, 64
4, 19680, Note_on_c, 0, 57, 127
4, 19776, Note_off_c, 0, 57, 64
4, 19800, Note_on_c, 0, 56, 127
4, 19896, Note_off_c, 0, 56, 64
4, 19920, Note_on_c, 0, 57, 127
4, 20016, Note_off_c, 0, 57, 64
4, 20040, Note_on_c, 0, 45, 127
4, 20136, Note_off_c, 0, 45, 64
4, 20160, Note_on_c, 0, 50, 127
4, 20352, Note_off_c, 0, 50, 64
4, 22440, Note_on_c, 0, 51, 127
4, 22488, Note_off_c, 0, 51, 64
4, 22500, Note_on_c, 0, 49, 127
4, 22548, Note_off_c, 0, 49, 64
4, 22560, Note_on_c, 0, 51, 127
4, 22656, Note_off_c, 0, 51, 64
4, 22680, Note_on_c, 0, 47, 127
4, 22776, Note_off_c, 0, 47, 64
4, 22800, Note_on_c, 0, 54, 127
4, 22896, Note_off_c, 0, 54, 64
4, 22920, Note_on_c, 0, 51, 127
4, 23016, Note_off_c, 0, 51, 64
4, 23040, Note_on_c, 0, 52, 127
4, 23232, Note_off_c, 0, 52, 64
4, 23280, Note_on_c, 0, 40, 127
4, 23472, Note_off_c, 0, 40, 64
4, 23880, Note_on_c, 0, 52, 127
4, 23928, Note_off_c, 0, 52, 64
4, 23940, Note_on_c, 0, 51, 127
4, 23988, Note_off_c, 0, 51, 64
4, 24000, Note_on_c, 0, 52, 127
4, 24096, Note_off_c, 0, 52, 64
4, 24120, Note_on_c, 0, 47, 127
4, 24216, Note_off_c, 0, 47, 64
4, 24240, Note_on_c, 0, 55, 127
4, 24336, Note_off_c, 0, 55, 64
4, 24360, Note_on_c, 0, 52, 127
4, 24456, Note_off_c, 0, 52, 64
4, 24480, Note_on_c, 0, 54, 127
4, 24672, Note_off_c, 0, 54, 64
4, 24720, Note_on_c, 0, 42, 127
4, 24912, Note_off_c, 0, 42, 64
4, 25320, Note_on_c, 0, 54, 127
4, 25368, Note_off_c, 0, 54, 64
4, 25380, Note_on_c, 0, 52, 127
4, 25428, Note_off_c, 0, 52, 64
4, 25440, Note_on_c, 0, 54, 127
4, 25536, Note_off_c, 0, 54, 64
4, 25560, Note_on_c, 0, 50, 127
4, 25656, Note_off_c, 0, 50, 64
4, 25680, Note_on_c, 0, 57, 127
4, 25776, Note_off_c, 0, 57, 64
4, 25800, Note_on_c, 0, 54, 127
4, 25896, Note_off_c, 0, 54, 64
4, 25920, Note_on_c, 0, 55, 127
4, 26112, Note_off_c, 0, 55, 64
4, 26160, Note_on_c, 0, 43, 127
4, 26352, Note_off_c, 0, 43, 64
4, 26700, Note_on_c, 0, 55, 127
4, 26748, Note_off_c, 0, 55, 64
4, 26760, Note_on_c, 0, 54, 127
4, 26808, Note_off_c, 0, 54, 64
4, 26820, Note_on_c, 0, 55, 127
4, 26868, Note_off_c, 0, 55, 64
4, 26880, Note_on_c, 0, 52, 127
4, 26928, Note_off_c, 0, 52, 64
4, 26940, Note_on_c, 0, 55, 127
4, 26988, Note_off_c, 0, 55, 64
4, 27000, Note_on_c, 0, 50, 127
4, 27048, Note_off_c, 0, 50, 64
4, 27060, Note_on_c, 0, 55, 127
4, 27108, Note_off_c, 0, 55, 64
4, 27120, Note_on_c, 0, 49, 127
4, 27168, Note_off_c, 0, 49, 64
4, 27180, Note_on_c, 0, 55, 127
4, 27228, Note_off_c, 0, 55, 64
4, 27240, Note_on_c, 0, 47, 127
4, 27288, Note_off_c, 0, 47, 64
4, 27300, Note_on_c, 0, 55, 127
4, 27348, Note_off_c, 0, 55, 64
4, 27360, Note_on_c, 0, 46, 127
4, 27552, Note_off_c, 0, 46, 64
4, 28080, Note_on_c, 0, 49, 127
4, 28272, Note_off_c, 0, 49, 64
4, 28800, Note_on_c, 0, 52, 127
4, 28992, Note_off_c, 0, 52, 64
4, 29640, Note_on_c, 0, 50, 127
4, 29736, Note_off_c, 0, 50, 64
4, 29760, Note_on_c, 0, 55, 127
4, 29856, Note_off_c, 0, 55, 64
4, 29880, Note_on_c, 0, 52, 127
4, 29976, Note_off_c, 0, 52, 64
4, 30000, Note_on_c, 0, 54, 127
4, 30096, Note_off_c, 0, 54, 64
4, 30120, Note_on_c, 0, 42, 127
4, 30216, Note_off_c, 0, 42, 64
4, 30240, Note_on_c, 0, 47, 127
4, 30432, Note_off_c, 0, 47, 64
4, 30960, Note_on_c, 0, 47, 127
4, 31152, Note_off_c, 0, 47, 64
4, 31800, Note_on_c, 0, 50, 127
4, 31913, Note_off_c, 0, 50, 64
4, 31920, Note_on_c, 0, 55, 127
4, 32033, Note_off_c, 0, 55, 64
4, 32040, Note_on_c, 0, 52, 127
4, 32153, Note_off_c, 0, 52, 64
4, 32160, Note_on_c, 0, 54, 127
4, 32273, Note_off_c, 0, 54, 64
4, 32280, Note_on_c, 0, 42, 127
4, 32393, Note_off_c, 0, 42, 64
4, 32400, Note_on_c, 0, 47, 127
4, 32592, Note_off_c, 0, 47, 64
4, 33240, Note_on_c, 0, 56, 127
4, 33288, Note_off_c, 0, 56, 64
4, 33300, Note_on_c, 0, 54, 127
4, 33348, Note_off_c, 0, 54, 64
4, 33360, Note_on_c, 0, 56, 127
4, 33456, Note_off_c, 0, 56, 64
4, 33480, Note_on_c, 0, 52, 127
4, 33576, Note_off_c, 0, 52, 64
4, 33600, Note_on_c, 0, 59, 127
4, 33696, Note_off_c, 0, 59, 64
4, 33720, Note_on_c, 0, 56, 127
4, 33816, Note_off_c, 0, 56, 64
4, 33840, Note_on_c, 0, 57, 127
4, 34032, Note_off_c, 0, 57, 64
4, 34080, Note_on_c, 0, 45, 127
4, 34272, Note_off_c, 0, 45, 64
4, 34620, Note_on_c, 0, 60, 127
4, 34668, Note_off_c, 0, 60, 64
4, 34680, Note_on_c, 0, 59, 127
4, 34728, Note_off_c, 0, 59, 64
4, 34740, Note_on_c, 0, 60, 127
4, 34788, Note_off_c, 0, 60, 64
4, 34800, Note_on_c, 0, 57, 127
4, 34848, Note_off_c, 0, 57, 64
4, 34860, Note_on_c, 0, 60, 127
4, 34908, Note_off_c, 0, 60, 64
4, 34920, Note_on_c, 0, 55, 127
4, 34968, Note_off_c, 0, 55, 64
4, 34980, Note_on_c, 0, 60, 127
4, 35028, Note_off_c, 0, 60, 64
4, 35040, Note_on_c, 0, 54, 127
4, 35088, Note_off_c, 0, 54, 64
4, 35100, Note_on_c, 0, 60, 127
4, 35148, Note_off_c, 0, 60, 64
4, 35160, Note_on_c, 0, 52, 127
4, 35208, Note_off_c, 0, 52, 64
4, 35220, Note_on_c, 0, 60, 127
4, 35268, Note_off_c, 0, 60, 64
4, 35280, Note_on_c, 0, 50, 127
4, 35472, Note_off_c, 0, 50, 64
4, 35520, Note_on_c, 0, 62, 127
4, 35712, Note_off_c, 0, 62, 64
4, 36120, Note_on_c, 0, 54, 127
4, 36168, Note_off_c, 0, 54, 64
4, 36180, Note_on_c, 0, 52, 127
4, 36228, Note_off_c, 0, 52, 64
4, 36240, Note_on_c, 0, 54, 127
4, 36336, Note_off_c, 0, 54, 64
4, 36360, Note_on_c, 0, 50, 127
4, 36456, Note_off_c, 0, 50, 64
4, 36480, Note_on_c, 0, 57, 127
4, 36576, Note_off_c, 0, 57, 64
4, 36600, Note_on_c, 0, 54, 127
4, 36696, Note_off_c, 0, 54, 64
4, 36720, Note_on_c, 0, 55, 127
4, 36912, Note_off_c, 0, 55, 64
4, 36960, Note_on_c, 0, 43, 127
4, 37152, Note_off_c, 0, 43, 64
4, 37680, Note_on_c, 0, 55, 127
4, 38352, Note_off_c, 0, 55, 64
4, 38400, Note_on_c, 0, 54, 127
4, 38784, Note_off_c, 0, 54, 64
4, 38880, Note_on_c, 0, 53, 127
4, 39456, Note_off_c, 0, 53, 64
4, 39600, Note_on_c, 0, 52, 127
4, 40176, Note_off_c, 0, 52, 64
4, 40320, Note_on_c, 0, 54, 127
4, 40512, Note_off_c, 0, 54, 64
4, 41160, Note_on_c, 0, 47, 127
4, 41256, Note_off_c, 0, 47, 64
4, 41280, Note_on_c, 0, 48, 127
4, 41376, Note_off_c, 0, 48, 64
4, 41400, Note_on_c, 0, 45, 127
4, 41496, Note_off_c, 0, 45, 64
4, 41520, Note_on_c, 0, 50, 127
4, 41616, Note_off_c, 0, 50, 64
4, 41640, Note_on_c, 0, 38, 127
4, 41736, Note_off_c, 0, 38, 64
4, 41760, Note_on_c, 0, 43, 127
4, 41952, Note_off_c, 0, 43, 64
4, 42120, Note_on_c, 0, 43, 127
4, 42216, Note_off_c, 0, 43, 64
4, 42240, Note_on_c, 0, 47, 127
4, 42336, Note_off_c, 0, 47, 64
4, 42360, Note_on_c, 0, 43, 127
4, 42456, Note_off_c, 0, 43, 64
4, 42480, Note_on_c, 0, 50, 127
4, 42672, Note_off_c, 0, 50, 64
4, 42840, Note_on_c, 0, 50, 127
4, 42936, Note_off_c, 0, 50, 64
4, 42960, Note_on_c, 0, 54, 127
4, 43056, Note_off_c, 0, 54, 64
4, 43080, Note_on_c, 0, 50, 127
4, 43176, Note_off_c, 0, 50, 64
4, 43200, Note_on_c, 0, 55, 127
4, 43248, Note_off_c, 0, 55, 64
4, 43260, Note_on_c, 0, 59, 127
4, 43308, Note_off_c, 0, 59, 64
4, 43320, Note_on_c, 0, 57, 127
4, 43368, Note_off_c, 0, 57, 64
4, 43380, Note_on_c, 0, 59, 127
4, 43428, Note_off_c, 0, 59, 64
4, 43440, Note_on_c, 0, 55, 127
4, 43488, Note_off_c, 0, 55, 64
4, 43500, Note_on_c, 0, 57, 127
4, 43548, Note_off_c, 0, 57, 64
4, 43560, Note_on_c, 0, 53, 127
4, 43608, Note_off_c, 0, 53, 64
4, 43620, Note_on_c, 0, 55, 127
4, 43668, Note_off_c, 0, 55, 64
4, 43680, Note_on_c, 0, 52, 127
4, 43728, Note_off_c, 0, 52, 64
4, 43740, Note_on_c, 0, 53, 127
4, 43788, Note_off_c, 0, 53, 64
4, 43800, Note_on_c, 0, 50, 127
4, 43848, Note_off_c, 0, 50, 64
4, 43860, Note_on_c, 0, 52, 127
4, 43908, Note_off_c, 0, 52, 64
4, 43920, Note_on_c, 0, 48, 127
4, 43968, Note_off_c, 0, 48, 64
4, 43980, Note_on_c, 0, 60, 127
4, 44028, Note_off_c, 0, 60, 64
4, 44040, Note_on_c, 0, 59, 127
4, 44088, Note_off_c, 0, 59, 64
4, 44100, Note_on_c, 0, 60, 127
4, 44148, Note_off_c, 0, 60, 64
4, 44160, Note_on_c, 0, 57, 127
4, 44208, Note_off_c, 0, 57, 64
4, 44220, Note_on_c, 0, 59, 127
4, 44268, Note_off_c, 0, 59, 64
4, 44280, Note_on_c, 0, 55, 127
4, 44328, Note_off_c, 0, 55, 64
4, 44340, Note_on_c, 0, 57, 127
4, 44388, Note_off_c, 0, 57, 64
4, 44400, Note_on_c, 0, 54, 127
4, 44448, Note_off_c, 0, 54, 64
4, 44460, Note_on_c, 0, 55, 127
4, 44508, Note_off_c, 0, 55, 64
4, 44520, Note_on_c, 0, 52, 127
4, 44568, Note_off_c, 0, 52, 64
4, 44580, Note_on_c, 0, 54, 127
4, 44628, Note_off_c, 0, 54, 64
4, 44640, Note_on_c, 0, 50, 127
4, 44832, Note_off_c, 0, 50, 64
4, 45000, Note_on_c, 0, 50, 127
4, 45096, Note_off_c, 0, 50, 64
4, 45120, Note_on_c, 0, 50, 127
4, 45216, Note_off_c, 0, 50, 64
4, 45240, Note_on_c, 0, 50, 127
4, 45336, Note_off_c, 0, 50, 64
4, 45360, Note_on_c, 0, 50, 127
4, 45552, Note_off_c, 0, 50, 64
4, 45720, Note_on_c, 0, 50, 127
4, 45816, Note_off_c, 0, 50, 64
4, 45840, Note_on_c, 0, 50, 127
4, 45936, Note_off_c, 0, 50, 64
4, 45960, Note_on_c, 0, 50, 127
4, 46056, Note_off_c, 0, 50, 64
4, 46080, Note_on_c, 0, 50, 127
4, 46272, Note_off_c, 0, 50, 64
4, 46440, Note_on_c, 0, 50, 127
4, 46536, Note_off_c, 0, 50, 64
4, 46560, Note_on_c, 0, 50, 127
4, 46656, Note_off_c, 0, 50, 64
4, 46680, Note_on_c, 0, 50, 127
4, 46776, Note_off_c, 0, 50, 64
4, 46800, Note_on_c, 0, 50, 127
4, 46992, Note_off_c, 0, 50, 64
4, 47160, Note_on_c, 0, 50, 127
4, 47256, Note_off_c, 0, 50, 64
4, 47280, Note_on_c, 0, 50, 127
4, 47376, Note_off_c, 0, 50, 64
4, 47400, Note_on_c, 0, 50, 127
4, 47496, Note_off_c, 0, 50, 64
4, 47520, Note_on_c, 0, 50, 127
4, 47712, Note_off_c, 0, 50, 64
4, 47880, Note_on_c, 0, 50, 127
4, 47976, Note_off_c, 0, 50, 64
4, 48000, Note_on_c, 0, 50, 127
4, 48096, Note_off_c, 0, 50, 64
4, 48120, Note_on_c, 0, 50, 127
4, 48216, Note_off_c, 0, 50, 64
4, 48240, Note_on_c, 0, 50, 127
4, 48432, Note_off_c, 0, 50, 64
4, 48600, Note_on_c, 0, 50, 127
4, 48696, Note_off_c, 0, 50, 64
4, 48720, Note_on_c, 0, 50, 127
4, 48816, Note_off_c, 0, 50, 64
4, 48840, Note_on_c, 0, 50, 127
4, 48936, Note_off_c, 0, 50, 64
4, 48960, Note_on_c, 0, 50, 127
4, 49152, Note_off_c, 0, 50, 64
4, 49320, Note_on_c, 0, 50, 127
4, 49416, Note_off_c, 0, 50, 64
4, 49440, Note_on_c, 0, 50, 127
4, 49536, Note_off_c, 0, 50, 64
4, 49560, Note_on_c, 0, 50, 127
4, 49656, Note_off_c, 0, 50, 64
4, 49680, Note_on_c, 0, 50, 127
4, 49776, Note_off_c, 0, 50, 64
4, 49800, Note_on_c, 0, 50, 127
4, 49896, Note_off_c, 0, 50, 64
4, 49920, Note_on_c, 0, 50, 127
4, 50016, Note_off_c, 0, 50, 64
4, 50040, Note_on_c, 0, 50, 127
4, 50136, Note_off_c, 0, 50, 64
4, 50160, Note_on_c, 0, 50, 127
4, 50256, Note_off_c, 0, 50, 64
4, 50280, Note_on_c, 0, 50, 127
4, 50376, Note_off_c, 0, 50, 64
4, 50400, Note_on_c, 0, 52, 127
4, 50496, Note_off_c, 0, 52, 64
4, 50520, Note_on_c, 0, 55, 127
4, 50616, Note_off_c, 0, 55, 64
4, 50640, Note_on_c, 0, 48, 127
4, 50688, Note_off_c, 0, 48, 64
4, 50700, Note_on_c, 0, 60, 127
4, 50748, Note_off_c, 0, 60, 64
4, 50760, Note_on_c, 0, 59, 127
4, 50808, Note_off_c, 0, 59, 64
4, 50820, Note_on_c, 0, 60, 127
4, 50868, Note_off_c, 0, 60, 64
4, 50880, Note_on_c, 0, 57, 127
4, 50928, Note_off_c, 0, 57, 64
4, 50940, Note_on_c, 0, 60, 127
4, 50988, Note_off_c, 0, 60, 64
4, 51000, Note_on_c, 0, 55, 127
4, 51048, Note_off_c, 0, 55, 64
4, 51060, Note_on_c, 0, 60, 127
4, 51108, Note_off_c, 0, 60, 64
4, 51120, Note_on_c, 0, 54, 127
4, 51312, Note_off_c, 0, 54, 64
4, 51420, Note_on_c, 0, 59, 127
4, 51468, Note_off_c, 0, 59, 64
4, 51480, Note_on_c, 0, 57, 127
4, 51528, Note_off_c, 0, 57, 64
4, 51540, Note_on_c, 0, 59, 127
4, 51588, Note_off_c, 0, 59, 64
4, 51600, Note_on_c, 0, 55, 127
4, 51648, Note_off_c, 0, 55, 64
4, 51660, Note_on_c, 0, 59, 127
4, 51708, Note_off_c, 0, 59, 64
4, 51720, Note_on_c, 0, 54, 127
4, 51768, Note_off_c, 0, 54, 64
4, 51780, Note_on_c, 0, 59, 127
4, 51828, Note_off_c, 0, 59, 64
4, 51840, Note_on_c, 0, 52, 127
4, 52032, Note_off_c, 0, 52, 64
4, 52140, Note_on_c, 0, 57, 127
4, 52188, Note_off_c, 0, 57, 64
4, 52200, Note_on_c, 0, 55, 127
4, 52248, Note_off_c, 0, 55, 64
4, 52260, Note_on_c, 0, 57, 127
4, 52308, Note_off_c, 0, 57, 64
4, 52320, Note_on_c, 0, 54, 127
4, 52368, Note_off_c, 0, 54, 64
4, 52380, Note_on_c, 0, 57, 127
4, 52428, Note_off_c, 0, 57, 64
4, 52440, Note_on_c, 0, 52, 127
4, 52488, Note_off_c, 0, 52, 64
4, 52500, Note_on_c, 0, 57, 127
4, 52548, Note_off_c, 0, 57, 64
4, 52560, Note_on_c, 0, 50, 127
4, 52752, Note_off_c, 0, 50, 64
4, 53280, Note_on_c, 0, 50, 127
4, 53472, Note_off_c, 0, 50, 64
4, 54000, Note_on_c, 0, 50, 127
4, 54192, Note_off_c, 0, 50, 64
4, 54840, Note_on_c, 0, 38, 127
4, 54936, Note_off_c, 0, 38, 64
4, 54960, Note_on_c, 0, 40, 127
4, 55056, Note_off_c, 0, 40, 64
4, 55080, Note_on_c, 0, 42, 127
4, 55176, Note_off_c, 0, 42, 64
4, 55200, Note_on_c, 0, 43, 127
4, 55296, Note_off_c, 0, 43, 64
4, 55320, Note_on_c, 0, 45, 127
4, 55416, Note_off_c, 0, 45, 64
4, 55440, Note_on_c, 0, 47, 127
4, 55536, Note_off_c, 0, 47, 64
4, 55560, Note_on_c, 0, 48, 127
4, 55656, Note_off_c, 0, 48, 64
4, 55680, Note_on_c, 0, 50, 127
4, 55776, Note_off_c, 0, 50, 64
4, 55800, Note_on_c, 0, 48, 127
4, 55896, Note_off_c, 0, 48, 64
4, 55920, Note_on_c, 0, 50, 127
4, 56016, Note_off_c, 0, 50, 64
4, 56040, Note_on_c, 0, 38, 127
4, 56136, Note_off_c, 0, 38, 64
4, 56160, Note_on_c, 0, 43, 127
4, 56352, Note_off_c, 0, 43, 64
4, 56880, Note_on_c, 0, 43, 127
4, 57072, Note_off_c, 0, 43, 64
4, 57720, Note_on_c, 0, 47, 127
4, 57816, Note_off_c, 0, 47, 64
4, 57840, Note_on_c, 0, 52, 127
4, 57936, Note_off_c, 0, 52, 64
4, 57960, Note_on_c, 0, 48, 127
4, 58056, Note_off_c, 0, 48, 64
4, 58080, Note_on_c, 0, 50, 127
4, 58176, Note_off_c, 0, 50, 64
4, 58200, Note_on_c, 0, 38, 127
4, 58296, Note_off_c, 0, 38, 64
4, 58320, Note_on_c, 0, 43, 127
4, 58512, Note_off_c, 0, 43, 64
4, 58512, End_track
0, 0, End_of_file
