0, 0, Header, 1, 20, 120
1, 0, Start_track
1, 0, Time_signature, 4, 2, 24, 8
1, 0, Key_signature, 1, "major"
1, 0, Tempo, 1714286
1, 0, Marker_t, "Aria Adagio"
1, 8640, Tempo, 1000000
1, 8640, Marker_t, "Andante"
1, 16320, Tempo, 1714286
1, 16320, Marker_t, "Adagio"
1, 25440, Key_signature, 0, "major"
1, 25440, Tempo, 750000
1, 25440, Marker_t, "Recit."
1, 28320, Time_signature, 1, 2, 24, 8
1, 28440, Time_signature, 12, 3, 12, 8
1, 28440, Tempo, 600000
1, 28440, Marker_t, "Aria"
1, 66600, Time_signature, 6, 3, 12, 8
1, 66960, Time_signature, 4, 2, 24, 8
1, 66960, Marker_t, "Recit."
1, 71280, Key_signature, 1, "major"
1, 71280, Tempo, 1000000
1, 71280, Marker_t, "Aria"
1, 93360, Marker_t, "Recit."
1, 98640, Time_signature, 3, 3, 12, 8
1, 98640, Key_signature, 2, "major"
1, 98640, Tempo, 750000
1, 98640, Marker_t, "Aria"
1, 150840, Time_signature, 4, 2, 24, 8
1, 150840, Key_signature, 1, "major"
1, 150840, Marker_t, "Recit."
1, 153720, Tempo, 500000
1, 153720, Marker_t, "Gavotte"
1, 153720, End_track
2, 0, Start_track
2, 0, MIDI_port, 0
2, 0, Title_t, "oboe"
2, 0, Program_c, 0, 68
2, 1168, Control_c, 0, 7, 112
2, 1179, Control_c, 0, 7, 113
2, 1191, Control_c, 0, 7, 114
2, 1196, Control_c, 0, 1, 0
2, 1198, Control_c, 0, 1, 2
2, 1200, Note_on_c, 0, 74, 100
2, 1200, Control_c, 0, 1, 4
2, 1201, Control_c, 0, 7, 115
2, 1202, Control_c, 0, 1, 6
2, 1204, Control_c, 0, 1, 9
2, 1206, Control_c, 0, 1, 11
2, 1208, Control_c, 0, 1, 13
2, 1210, Control_c, 0, 1, 15
2, 1212, Control_c, 0, 1, 18
2, 1213, Control_c, 0, 7, 116
2, 1214, Control_c, 0, 1, 20
2, 1216, Control_c, 0, 1, 22
2, 1218, Control_c, 0, 1, 25
2, 1220, Control_c, 0, 1, 27
2, 1222, Control_c, 0, 1, 29
2, 1223, Control_c, 0, 7, 117
2, 1224, Control_c, 0, 1, 31
2, 1226, Control_c, 0, 1, 34
2, 1228, Control_c, 0, 1, 36
2, 1230, Control_c, 0, 1, 38
2, 1232, Control_c, 0, 1, 40
2, 1234, Control_c, 0, 1, 43
2, 1234, Control_c, 0, 7, 118
2, 1236, Control_c, 0, 1, 45
2, 1238, Control_c, 0, 1, 47
2, 1240, Control_c, 0, 1, 50
2, 1242, Control_c, 0, 1, 52
2, 1244, Control_c, 0, 1, 54
2, 1244, Control_c, 0, 7, 119
2, 1246, Control_c, 0, 1, 56
2, 1248, Control_c, 0, 1, 59
2, 1250, Control_c, 0, 1, 61
2, 1252, Control_c, 0, 1, 63
2, 1254, Control_c, 0, 1, 65
2, 1256, Control_c, 0, 1, 68
2, 1256, Control_c, 0, 7, 120
2, 1258, Control_c, 0, 1, 70
2, 1260, Control_c, 0, 1, 72
2, 1262, Control_c, 0, 1, 75
2, 1264, Control_c, 0, 1, 77
2, 1266, Control_c, 0, 1, 79
2, 1266, Control_c, 0, 7, 121
2, 1268, Control_c, 0, 1, 81
2, 1270, Control_c, 0, 1, 84
2, 1272, Control_c, 0, 1, 86
2, 1274, Control_c, 0, 1, 88
2, 1276, Control_c, 0, 1, 90
2, 1278, Control_c, 0, 1, 93
2, 1278, Control_c, 0, 7, 122
2, 1280, Control_c, 0, 1, 95
2, 1282, Control_c, 0, 1, 97
2, 1284, Control_c, 0, 1, 100
2, 1286, Control_c, 0, 1, 102
2, 1288, Control_c, 0, 1, 104
2, 1288, Control_c, 0, 7, 123
2, 1290, Control_c, 0, 1, 106
2, 1292, Control_c, 0, 1, 109
2, 1294, Control_c, 0, 1, 111
2, 1296, Control_c, 0, 1, 113
2, 1298, Control_c, 0, 1, 115
2, 1299, Control_c, 0, 7, 124
2, 1300, Control_c, 0, 1, 118
2, 1302, Control_c, 0, 1, 120
2, 1304, Control_c, 0, 1, 122
2, 1306, Control_c, 0, 1, 125
2, 1308, Control_c, 0, 1, 125
2, 1309, Control_c, 0, 7, 125
2, 1310, Control_c, 0, 1, 125
2, 1321, Control_c, 0, 7, 126
2, 1331, Control_c, 0, 7, 127
2, 1334, Control_c, 0, 7, 124
2, 1338, Control_c, 0, 7, 125
2, 1341, Control_c, 0, 7, 126
2, 1343, Control_c, 0, 7, 127
2, 1468, Control_c, 0, 1, 126
2, 1474, Control_c, 0, 1, 124
2, 1476, Control_c, 0, 1, 123
2, 1478, Control_c, 0, 1, 122
2, 1480, Control_c, 0, 1, 121
2, 1482, Control_c, 0, 1, 120
2, 1484, Control_c, 0, 1, 119
2, 1486, Control_c, 0, 1, 118
2, 1488, Control_c, 0, 1, 117
2, 1490, Control_c, 0, 1, 115
2, 1492, Control_c, 0, 1, 114
2, 1494, Control_c, 0, 1, 113
2, 1496, Control_c, 0, 1, 112
2, 1498, Control_c, 0, 1, 111
2, 1500, Control_c, 0, 1, 110
2, 1502, Control_c, 0, 1, 109
2, 1504, Control_c, 0, 1, 108
2, 1506, Control_c, 0, 1, 106
2, 1508, Control_c, 0, 1, 108
2, 1510, Control_c, 0, 1, 106
2, 1512, Control_c, 0, 1, 104
2, 1514, Control_c, 0, 1, 102
2, 1516, Control_c, 0, 1, 99
2, 1518, Control_c, 0, 1, 97
2, 1520, Control_c, 0, 1, 95
2, 1522, Control_c, 0, 1, 93
2, 1524, Control_c, 0, 1, 90
2, 1525, Note_on_c, 0, 74, 0
2, 1526, Control_c, 0, 1, 88
2, 1528, Control_c, 0, 1, 86
2, 1530, Note_on_c, 0, 72, 90
2, 1530, Control_c, 0, 1, 84
2, 1532, Control_c, 0, 1, 81
2, 1534, Control_c, 0, 1, 79
2, 1536, Control_c, 0, 1, 77
2, 1538, Control_c, 0, 1, 75
2, 1540, Control_c, 0, 1, 72
2, 1542, Control_c, 0, 1, 70
2, 1544, Control_c, 0, 1, 68
2, 1546, Control_c, 0, 1, 66
2, 1548, Control_c, 0, 1, 63
2, 1550, Control_c, 0, 1, 61
2, 1552, Control_c, 0, 1, 59
2, 1554, Control_c, 0, 1, 57
2, 1556, Control_c, 0, 1, 54
2, 1558, Control_c, 0, 1, 52
2, 1559, Note_on_c, 0, 72, 0
2, 1560, Note_on_c, 0, 71, 90
2, 1560, Control_c, 0, 1, 50
2, 1562, Control_c, 0, 1, 48
2, 1564, Control_c, 0, 1, 45
2, 1566, Control_c, 0, 1, 43
2, 1568, Control_c, 0, 1, 41
2, 1570, Control_c, 0, 1, 39
2, 1572, Control_c, 0, 1, 36
2, 1574, Control_c, 0, 1, 34
2, 1576, Control_c, 0, 1, 32
2, 1578, Control_c, 0, 1, 30
2, 1580, Control_c, 0, 1, 27
2, 1582, Control_c, 0, 1, 25
2, 1584, Control_c, 0, 1, 23
2, 1586, Control_c, 0, 1, 21
2, 1588, Control_c, 0, 1, 18
2, 1589, Note_on_c, 0, 71, 0
2, 1590, Note_on_c, 0, 69, 90
2, 1619, Note_on_c, 0, 69, 0
2, 1620, Note_on_c, 0, 67, 90
2, 1634, Note_on_c, 0, 67, 0
2, 1635, Note_on_c, 0, 66, 90
2, 1649, Note_on_c, 0, 66, 0
2, 1650, Note_on_c, 0, 67, 90
2, 1679, Note_on_c, 0, 67, 0
2, 1680, Note_on_c, 0, 69, 90
2, 1687, Note_on_c, 0, 67, 90
2, 1688, Note_on_c, 0, 69, 0
2, 1695, Note_on_c, 0, 67, 0
2, 1695, Note_on_c, 0, 69, 90
2, 1702, Note_on_c, 0, 67, 90
2, 1703, Note_on_c, 0, 69, 0
2, 1770, Note_on_c, 0, 67, 0
2, 1770, Note_on_c, 0, 66, 90
2, 1799, Note_on_c, 0, 66, 0
2, 1800, Note_on_c, 0, 64, 90
2, 1814, Note_on_c, 0, 64, 0
2, 1815, Note_on_c, 0, 66, 90
2, 1829, Note_on_c, 0, 66, 0
2, 1830, Note_on_c, 0, 67, 90
2, 1844, Note_on_c, 0, 67, 0
2, 1845, Note_on_c, 0, 69, 90
2, 1859, Note_on_c, 0, 69, 0
2, 1860, Note_on_c, 0, 71, 90
2, 1874, Note_on_c, 0, 71, 0
2, 1875, Note_on_c, 0, 72, 90
2, 1889, Note_on_c, 0, 72, 0
2, 1890, Note_on_c, 0, 69, 90
2, 1904, Note_on_c, 0, 69, 0
2, 1905, Note_on_c, 0, 71, 90
2, 1919, Note_on_c, 0, 71, 0
2, 1920, Note_on_c, 0, 72, 90
2, 1927, Note_on_c, 0, 74, 90
2, 1928, Note_on_c, 0, 72, 0
2, 1935, Note_on_c, 0, 74, 0
2, 1935, Note_on_c, 0, 72, 90
2, 2055, Note_on_c, 0, 72, 0
2, 2055, Note_on_c, 0, 71, 90
2, 2069, Note_on_c, 0, 71, 0
2, 2070, Note_on_c, 0, 69, 90
2, 2084, Note_on_c, 0, 69, 0
2, 2085, Note_on_c, 0, 71, 90
2, 2099, Note_on_c, 0, 71, 0
2, 2100, Note_on_c, 0, 72, 90
2, 2114, Note_on_c, 0, 72, 0
2, 2115, Note_on_c, 0, 74, 90
2, 2129, Note_on_c, 0, 74, 0
2, 2130, Note_on_c, 0, 76, 90
2, 2144, Note_on_c, 0, 76, 0
2, 2145, Note_on_c, 0, 78, 90
2, 2159, Note_on_c, 0, 78, 0
2, 2160, Note_on_c, 0, 79, 90
2, 2174, Note_on_c, 0, 79, 0
2, 2175, Note_on_c, 0, 81, 90
2, 2189, Note_on_c, 0, 81, 0
2, 2190, Note_on_c, 0, 78, 90
2, 2204, Note_on_c, 0, 78, 0
2, 2205, Note_on_c, 0, 79, 90
2, 2219, Note_on_c, 0, 79, 0
2, 2220, Note_on_c, 0, 78, 90
2, 2227, Note_on_c, 0, 79, 90
2, 2228, Note_on_c, 0, 78, 0
2, 2235, Note_on_c, 0, 79, 0
2, 2235, Note_on_c, 0, 78, 90
2, 2242, Note_on_c, 0, 79, 90
2, 2243, Note_on_c, 0, 78, 0
2, 2250, Note_on_c, 0, 79, 0
2, 2250, Note_on_c, 0, 78, 90
2, 2257, Note_on_c, 0, 79, 90
2, 2258, Note_on_c, 0, 78, 0
2, 2265, Note_on_c, 0, 79, 0
2, 2265, Note_on_c, 0, 78, 90
2, 2279, Note_on_c, 0, 78, 0
2, 2280, Note_on_c, 0, 76, 90
2, 2294, Note_on_c, 0, 76, 0
2, 2295, Note_on_c, 0, 74, 90
2, 2309, Note_on_c, 0, 74, 0
2, 2310, Note_on_c, 0, 74, 90
2, 2415, Note_on_c, 0, 74, 0
2, 2415, Note_on_c, 0, 67, 90
2, 2430, Note_on_c, 0, 67, 0
2, 2430, Note_on_c, 0, 69, 90
2, 2445, Note_on_c, 0, 69, 0
2, 2445, Note_on_c, 0, 71, 90
2, 2460, Note_on_c, 0, 71, 0
2, 2460, Note_on_c, 0, 72, 90
2, 2475, Note_on_c, 0, 72, 0
2, 2475, Note_on_c, 0, 74, 90
2, 2490, Note_on_c, 0, 74, 0
2, 2490, Note_on_c, 0, 76, 90
2, 2505, Note_on_c, 0, 76, 0
2, 2505, Note_on_c, 0, 78, 90
2, 2520, Note_on_c, 0, 78, 0
2, 2520, Note_on_c, 0, 79, 90
2, 2550, Note_on_c, 0, 79, 0
2, 2550, Note_on_c, 0, 77, 90
2, 2565, Note_on_c, 0, 77, 0
2, 2565, Note_on_c, 0, 76, 90
2, 2580, Note_on_c, 0, 76, 0
2, 2580, Note_on_c, 0, 74, 90
2, 2587, Note_on_c, 0, 74, 0
2, 2587, Note_on_c, 0, 76, 90
2, 2594, Note_on_c, 0, 76, 0
2, 2595, Note_on_c, 0, 74, 90
2, 2610, Note_on_c, 0, 74, 0
2, 2610, Note_on_c, 0, 72, 90
2, 2640, Note_on_c, 0, 72, 0
2, 2640, Note_on_c, 0, 72, 90
2, 2670, Note_on_c, 0, 72, 0
2, 2670, Note_on_c, 0, 74, 90
2, 2685, Note_on_c, 0, 74, 0
2, 2685, Note_on_c, 0, 72, 90
2, 2700, Note_on_c, 0, 72, 0
2, 2700, Note_on_c, 0, 71, 90
2, 2730, Note_on_c, 0, 71, 0
2, 2730, Note_on_c, 0, 72, 90
2, 2745, Note_on_c, 0, 72, 0
2, 2745, Note_on_c, 0, 69, 90
2, 2760, Note_on_c, 0, 69, 0
2, 2760, Note_on_c, 0, 81, 90
2, 2895, Note_on_c, 0, 81, 0
2, 2895, Note_on_c, 0, 82, 90
2, 2910, Note_on_c, 0, 82, 0
2, 2910, Note_on_c, 0, 81, 90
2, 2925, Note_on_c, 0, 81, 0
2, 2925, Note_on_c, 0, 79, 90
2, 2940, Note_on_c, 0, 79, 0
2, 2940, Note_on_c, 0, 81, 90
2, 2955, Note_on_c, 0, 81, 0
2, 2955, Note_on_c, 0, 79, 90
2, 2970, Note_on_c, 0, 79, 0
2, 2970, Note_on_c, 0, 77, 90
2, 2985, Note_on_c, 0, 77, 0
2, 2985, Note_on_c, 0, 79, 90
2, 3000, Note_on_c, 0, 79, 0
2, 3000, Note_on_c, 0, 77, 90
2, 3015, Note_on_c, 0, 77, 0
2, 3015, Note_on_c, 0, 76, 90
2, 3030, Note_on_c, 0, 76, 0
2, 3030, Note_on_c, 0, 77, 90
2, 3045, Note_on_c, 0, 77, 0
2, 3045, Note_on_c, 0, 76, 90
2, 3060, Note_on_c, 0, 76, 0
2, 3060, Note_on_c, 0, 74, 90
2, 3075, Note_on_c, 0, 74, 0
2, 3075, Note_on_c, 0, 76, 90
2, 3090, Note_on_c, 0, 76, 0
2, 3090, Note_on_c, 0, 74, 90
2, 3105, Note_on_c, 0, 74, 0
2, 3105, Note_on_c, 0, 73, 90
2, 3120, Note_on_c, 0, 73, 0
2, 3120, Note_on_c, 0, 74, 90
2, 3270, Note_on_c, 0, 74, 0
2, 3270, Note_on_c, 0, 76, 90
2, 3285, Note_on_c, 0, 76, 0
2, 3285, Note_on_c, 0, 74, 90
2, 3300, Note_on_c, 0, 74, 0
2, 3300, Note_on_c, 0, 73, 90
2, 3330, Note_on_c, 0, 73, 0
2, 3330, Note_on_c, 0, 74, 90
2, 3345, Note_on_c, 0, 74, 0
2, 3345, Note_on_c, 0, 71, 90
2, 3360, Note_on_c, 0, 71, 0
2, 3360, Note_on_c, 0, 73, 90
2, 3420, Note_on_c, 0, 73, 0
2, 3420, Note_on_c, 0, 79, 90
2, 3510, Note_on_c, 0, 79, 0
2, 3510, Note_on_c, 0, 81, 90
2, 3525, Note_on_c, 0, 81, 0
2, 3525, Note_on_c, 0, 79, 90
2, 3540, Note_on_c, 0, 79, 0
2, 3540, Note_on_c, 0, 77, 90
2, 3570, Note_on_c, 0, 77, 0
2, 3570, Note_on_c, 0, 79, 90
2, 3585, Note_on_c, 0, 79, 0
2, 3585, Note_on_c, 0, 76, 90
2, 3600, Note_on_c, 0, 76, 0
2, 3600, Note_on_c, 0, 77, 90
2, 3630, Note_on_c, 0, 77, 0
2, 3630, Note_on_c, 0, 79, 90
2, 3645, Note_on_c, 0, 79, 0
2, 3645, Note_on_c, 0, 77, 90
2, 3660, Note_on_c, 0, 77, 0
2, 3660, Note_on_c, 0, 76, 90
2, 3690, Note_on_c, 0, 76, 0
2, 3690, Note_on_c, 0, 77, 90
2, 3705, Note_on_c, 0, 77, 0
2, 3705, Note_on_c, 0, 74, 90
2, 3720, Note_on_c, 0, 74, 0
2, 3720, Note_on_c, 0, 76, 90
2, 3750, Note_on_c, 0, 76, 0
2, 3750, Note_on_c, 0, 77, 90
2, 3765, Note_on_c, 0, 77, 0
2, 3765, Note_on_c, 0, 76, 90
2, 3780, Note_on_c, 0, 76, 0
2, 3780, Note_on_c, 0, 74, 90
2, 3810, Note_on_c, 0, 74, 0
2, 3810, Note_on_c, 0, 76, 90
2, 3825, Note_on_c, 0, 76, 0
2, 3825, Note_on_c, 0, 73, 90
2, 3840, Note_on_c, 0, 73, 0
2, 3840, Note_on_c, 0, 81, 90
2, 3870, Note_on_c, 0, 81, 0
2, 3870, Note_on_c, 0, 79, 90
2, 3900, Note_on_c, 0, 79, 0
2, 3900, Note_on_c, 0, 82, 90
2, 3930, Note_on_c, 0, 82, 0
2, 3930, Note_on_c, 0, 81, 90
2, 3960, Note_on_c, 0, 81, 0
2, 3960, Note_on_c, 0, 73, 90
2, 3967, Note_on_c, 0, 74, 90
2, 3968, Note_on_c, 0, 73, 0
2, 3975, Note_on_c, 0, 74, 0
2, 3975, Note_on_c, 0, 73, 90
2, 4050, Note_on_c, 0, 73, 0
2, 4050, Note_on_c, 0, 74, 90
2, 4080, Note_on_c, 0, 74, 0
2, 4080, Note_on_c, 0, 74, 90
2, 4200, Note_on_c, 0, 74, 0
2, 4440, Note_on_c, 0, 69, 90
2, 4470, Note_on_c, 0, 69, 0
2, 4470, Note_on_c, 0, 67, 90
2, 4485, Note_on_c, 0, 67, 0
2, 4485, Note_on_c, 0, 66, 90
2, 4500, Note_on_c, 0, 66, 0
2, 4500, Note_on_c, 0, 64, 90
2, 4507, Note_on_c, 0, 66, 90
2, 4508, Note_on_c, 0, 64, 0
2, 4515, Note_on_c, 0, 66, 0
2, 4515, Note_on_c, 0, 64, 90
2, 4530, Note_on_c, 0, 64, 0
2, 4530, Note_on_c, 0, 62, 90
2, 4560, Note_on_c, 0, 62, 0
2, 4560, Note_on_c, 0, 62, 90
2, 4680, Note_on_c, 0, 62, 0
2, 4920, Note_on_c, 0, 79, 90
2, 4950, Note_on_c, 0, 79, 0
2, 4950, Note_on_c, 0, 77, 90
2, 4965, Note_on_c, 0, 77, 0
2, 4965, Note_on_c, 0, 76, 90
2, 4980, Note_on_c, 0, 76, 0
2, 4980, Note_on_c, 0, 74, 90
2, 4987, Note_on_c, 0, 76, 90
2, 4988, Note_on_c, 0, 74, 0
2, 4995, Note_on_c, 0, 76, 0
2, 4995, Note_on_c, 0, 74, 90
2, 5010, Note_on_c, 0, 74, 0
2, 5010, Note_on_c, 0, 73, 90
2, 5040, Note_on_c, 0, 73, 0
2, 5040, Note_on_c, 0, 73, 90
2, 5100, Note_on_c, 0, 73, 0
2, 5100, Note_on_c, 0, 69, 90
2, 5130, Note_on_c, 0, 69, 0
2, 5130, Note_on_c, 0, 72, 90
2, 5145, Note_on_c, 0, 72, 0
2, 5145, Note_on_c, 0, 71, 90
2, 5160, Note_on_c, 0, 71, 0
2, 5160, Note_on_c, 0, 72, 90
2, 5310, Note_on_c, 0, 72, 0
2, 5310, Note_on_c, 0, 74, 90
2, 5325, Note_on_c, 0, 74, 0
2, 5325, Note_on_c, 0, 75, 90
2, 5340, Note_on_c, 0, 75, 0
2, 5340, Note_on_c, 0, 74, 90
2, 5370, Note_on_c, 0, 74, 0
2, 5370, Note_on_c, 0, 75, 90
2, 5385, Note_on_c, 0, 75, 0
2, 5385, Note_on_c, 0, 72, 90
2, 5400, Note_on_c, 0, 72, 0
2, 5400, Note_on_c, 0, 70, 90
2, 5430, Note_on_c, 0, 70, 0
2, 5430, Note_on_c, 0, 72, 90
2, 5445, Note_on_c, 0, 72, 0
2, 5445, Note_on_c, 0, 70, 90
2, 5460, Note_on_c, 0, 70, 0
2, 5460, Note_on_c, 0, 69, 90
2, 5490, Note_on_c, 0, 69, 0
2, 5490, Note_on_c, 0, 70, 90
2, 5505, Note_on_c, 0, 70, 0
2, 5505, Note_on_c, 0, 67, 90
2, 5520, Note_on_c, 0, 67, 0
2, 5520, Note_on_c, 0, 66, 90
2, 5535, Note_on_c, 0, 66, 0
2, 5535, Note_on_c, 0, 67, 90
2, 5550, Note_on_c, 0, 67, 0
2, 5550, Note_on_c, 0, 69, 90
2, 5565, Note_on_c, 0, 69, 0
2, 5565, Note_on_c, 0, 70, 90
2, 5580, Note_on_c, 0, 70, 0
2, 5580, Note_on_c, 0, 72, 90
2, 5595, Note_on_c, 0, 72, 0
2, 5595, Note_on_c, 0, 75, 90
2, 5610, Note_on_c, 0, 75, 0
2, 5610, Note_on_c, 0, 74, 90
2, 5625, Note_on_c, 0, 74, 0
2, 5625, Note_on_c, 0, 72, 90
2, 5640, Note_on_c, 0, 72, 0
2, 5640, Note_on_c, 0, 81, 90
2, 5670, Note_on_c, 0, 81, 0
2, 5670, Note_on_c, 0, 79, 90
2, 5685, Note_on_c, 0, 79, 0
2, 5685, Note_on_c, 0, 78, 90
2, 5700, Note_on_c, 0, 78, 0
2, 5700, Note_on_c, 0, 75, 90
2, 5707, Note_on_c, 0, 74, 90
2, 5708, Note_on_c, 0, 75, 0
2, 5715, Note_on_c, 0, 74, 0
2, 5715, Note_on_c, 0, 75, 90
2, 5730, Note_on_c, 0, 75, 0
2, 5730, Note_on_c, 0, 74, 90
2, 5760, Note_on_c, 0, 74, 0
2, 5760, Note_on_c, 0, 79, 90
2, 5790, Note_on_c, 0, 79, 0
2, 5790, Note_on_c, 0, 77, 90
2, 5805, Note_on_c, 0, 77, 0
2, 5805, Note_on_c, 0, 75, 90
2, 5820, Note_on_c, 0, 75, 0
2, 5820, Note_on_c, 0, 74, 90
2, 5835, Note_on_c, 0, 74, 0
2, 5835, Note_on_c, 0, 72, 90
2, 5850, Note_on_c, 0, 72, 0
2, 5850, Note_on_c, 0, 74, 90
2, 5865, Note_on_c, 0, 74, 0
2, 5865, Note_on_c, 0, 75, 90
2, 5880, Note_on_c, 0, 75, 0
2, 5880, Note_on_c, 0, 70, 90
2, 5940, Note_on_c, 0, 70, 0
2, 5940, Note_on_c, 0, 69, 90
2, 5947, Note_on_c, 0, 70, 90
2, 5948, Note_on_c, 0, 69, 0
2, 5955, Note_on_c, 0, 70, 0
2, 5955, Note_on_c, 0, 69, 90
2, 5970, Note_on_c, 0, 69, 0
2, 5970, Note_on_c, 0, 67, 90
2, 6000, Note_on_c, 0, 67, 0
2, 6000, Note_on_c, 0, 67, 90
2, 6360, Note_on_c, 0, 67, 0
2, 6480, Note_on_c, 0, 79, 90
2, 6615, Note_on_c, 0, 79, 0
2, 6615, Note_on_c, 0, 82, 90
2, 6630, Note_on_c, 0, 82, 0
2, 6630, Note_on_c, 0, 81, 90
2, 6645, Note_on_c, 0, 81, 0
2, 6645, Note_on_c, 0, 79, 90
2, 6660, Note_on_c, 0, 79, 0
2, 6660, Note_on_c, 0, 77, 90
2, 6675, Note_on_c, 0, 77, 0
2, 6675, Note_on_c, 0, 76, 90
2, 6690, Note_on_c, 0, 76, 0
2, 6690, Note_on_c, 0, 74, 90
2, 6705, Note_on_c, 0, 74, 0
2, 6705, Note_on_c, 0, 72, 90
2, 6720, Note_on_c, 0, 72, 0
2, 6720, Note_on_c, 0, 71, 90
2, 6735, Note_on_c, 0, 71, 0
2, 6735, Note_on_c, 0, 79, 90
2, 6750, Note_on_c, 0, 79, 0
2, 6750, Note_on_c, 0, 77, 90
2, 6765, Note_on_c, 0, 77, 0
2, 6765, Note_on_c, 0, 76, 90
2, 6780, Note_on_c, 0, 76, 0
2, 6780, Note_on_c, 0, 74, 90
2, 6795, Note_on_c, 0, 74, 0
2, 6795, Note_on_c, 0, 72, 90
2, 6810, Note_on_c, 0, 72, 0
2, 6810, Note_on_c, 0, 71, 90
2, 6825, Note_on_c, 0, 71, 0
2, 6825, Note_on_c, 0, 69, 90
2, 6840, Note_on_c, 0, 69, 0
2, 6840, Note_on_c, 0, 67, 90
2, 6960, Note_on_c, 0, 67, 0
2, 6960, Note_on_c, 0, 67, 90
2, 6990, Note_on_c, 0, 67, 0
2, 6990, Note_on_c, 0, 69, 90
2, 7020, Note_on_c, 0, 69, 0
2, 7020, Note_on_c, 0, 69, 90
2, 7050, Note_on_c, 0, 69, 0
2, 7050, Note_on_c, 0, 71, 90
2, 7080, Note_on_c, 0, 71, 0
2, 7080, Note_on_c, 0, 66, 90
2, 7087, Note_on_c, 0, 67, 90
2, 7088, Note_on_c, 0, 66, 0
2, 7095, Note_on_c, 0, 67, 0
2, 7095, Note_on_c, 0, 66, 90
2, 7170, Note_on_c, 0, 66, 0
2, 7170, Note_on_c, 0, 67, 90
2, 7200, Note_on_c, 0, 67, 0
2, 7200, Note_on_c, 0, 67, 90
2, 7335, Note_on_c, 0, 67, 0
2, 7335, Note_on_c, 0, 69, 90
2, 7350, Note_on_c, 0, 69, 0
2, 7350, Note_on_c, 0, 71, 90
2, 7365, Note_on_c, 0, 71, 0
2, 7365, Note_on_c, 0, 72, 90
2, 7380, Note_on_c, 0, 72, 0
2, 7380, Note_on_c, 0, 74, 90
2, 7410, Note_on_c, 0, 74, 0
2, 7410, Note_on_c, 0, 77, 90
2, 7425, Note_on_c, 0, 77, 0
2, 7425, Note_on_c, 0, 76, 90
2, 7440, Note_on_c, 0, 76, 0
2, 7440, Note_on_c, 0, 77, 90
2, 7575, Note_on_c, 0, 77, 0
2, 7575, Note_on_c, 0, 81, 90
2, 7590, Note_on_c, 0, 81, 0
2, 7590, Note_on_c, 0, 79, 90
2, 7605, Note_on_c, 0, 79, 0
2, 7605, Note_on_c, 0, 77, 90
2, 7620, Note_on_c, 0, 77, 0
2, 7620, Note_on_c, 0, 76, 90
2, 7650, Note_on_c, 0, 76, 0
2, 7650, Note_on_c, 0, 77, 90
2, 7665, Note_on_c, 0, 77, 0
2, 7665, Note_on_c, 0, 74, 90
2, 7680, Note_on_c, 0, 74, 0
2, 7680, Note_on_c, 0, 76, 90
2, 7830, Note_on_c, 0, 76, 0
2, 7830, Note_on_c, 0, 74, 90
2, 7860, Note_on_c, 0, 74, 0
2, 7860, Note_on_c, 0, 72, 90
2, 7890, Note_on_c, 0, 72, 0
2, 7890, Note_on_c, 0, 75, 90
2, 7905, Note_on_c, 0, 75, 0
2, 7905, Note_on_c, 0, 74, 90
2, 7920, Note_on_c, 0, 74, 0
2, 7920, Note_on_c, 0, 75, 90
2, 7980, Note_on_c, 0, 75, 0
2, 7980, Note_on_c, 0, 78, 90
2, 8070, Note_on_c, 0, 78, 0
2, 8070, Note_on_c, 0, 79, 90
2, 8085, Note_on_c, 0, 79, 0
2, 8085, Note_on_c, 0, 78, 90
2, 8100, Note_on_c, 0, 78, 0
2, 8100, Note_on_c, 0, 76, 90
2, 8130, Note_on_c, 0, 76, 0
2, 8130, Note_on_c, 0, 79, 90
2, 8145, Note_on_c, 0, 79, 0
2, 8145, Note_on_c, 0, 78, 90
2, 8160, Note_on_c, 0, 78, 0
2, 8160, Note_on_c, 0, 79, 90
2, 8190, Note_on_c, 0, 79, 0
2, 8190, Note_on_c, 0, 81, 90
2, 8205, Note_on_c, 0, 81, 0
2, 8205, Note_on_c, 0, 79, 90
2, 8220, Note_on_c, 0, 79, 0
2, 8220, Note_on_c, 0, 81, 90
2, 8250, Note_on_c, 0, 81, 0
2, 8250, Note_on_c, 0, 83, 90
2, 8280, Note_on_c, 0, 83, 0
2, 8280, Note_on_c, 0, 78, 100
2, 8287, Note_on_c, 0, 79, 100
2, 8288, Note_on_c, 0, 78, 0
2, 8295, Note_on_c, 0, 79, 0
2, 8295, Note_on_c, 0, 78, 100
2, 8370, Note_on_c, 0, 78, 0
2, 8370, Note_on_c, 0, 79, 100
2, 8400, Note_on_c, 0, 79, 0
2, 8400, Note_on_c, 0, 79, 100
2, 8520, Note_on_c, 0, 79, 0
2, 10680, Note_on_c, 0, 71, 90
2, 10739, Note_on_c, 0, 71, 0
2, 10740, Note_on_c, 0, 76, 90
2, 10769, Note_on_c, 0, 76, 0
2, 10770, Note_on_c, 0, 74, 90
2, 10799, Note_on_c, 0, 74, 0
2, 10800, Note_on_c, 0, 74, 90
2, 10889, Note_on_c, 0, 74, 0
2, 10890, Note_on_c, 0, 72, 90
2, 10919, Note_on_c, 0, 72, 0
2, 10920, Note_on_c, 0, 72, 90
2, 10949, Note_on_c, 0, 72, 0
2, 10950, Note_on_c, 0, 71, 90
2, 10964, Note_on_c, 0, 71, 0
2, 10965, Note_on_c, 0, 69, 90
2, 10979, Note_on_c, 0, 69, 0
2, 10980, Note_on_c, 0, 71, 90
2, 11009, Note_on_c, 0, 71, 0
2, 11010, Note_on_c, 0, 67, 90
2, 11039, Note_on_c, 0, 67, 0
2, 11040, Note_on_c, 0, 66, 90
2, 11099, Note_on_c, 0, 66, 0
2, 11100, Note_on_c, 0, 64, 90
2, 11129, Note_on_c, 0, 64, 0
2, 11130, Note_on_c, 0, 62, 90
2, 11159, Note_on_c, 0, 62, 0
2, 11160, Note_on_c, 0, 69, 90
2, 11189, Note_on_c, 0, 69, 0
2, 11190, Note_on_c, 0, 71, 90
2, 11204, Note_on_c, 0, 71, 0
2, 11205, Note_on_c, 0, 72, 90
2, 11219, Note_on_c, 0, 72, 0
2, 11220, Note_on_c, 0, 71, 90
2, 11249, Note_on_c, 0, 71, 0
2, 11250, Note_on_c, 0, 67, 90
2, 11279, Note_on_c, 0, 67, 0
2, 11280, Note_on_c, 0, 69, 90
2, 11309, Note_on_c, 0, 69, 0
2, 11310, Note_on_c, 0, 66, 90
2, 11339, Note_on_c, 0, 66, 0
2, 11340, Note_on_c, 0, 67, 90
2, 11399, Note_on_c, 0, 67, 0
2, 11400, Note_on_c, 0, 69, 90
2, 11429, Note_on_c, 0, 69, 0
2, 11430, Note_on_c, 0, 71, 90
2, 11444, Note_on_c, 0, 71, 0
2, 11445, Note_on_c, 0, 72, 90
2, 11459, Note_on_c, 0, 72, 0
2, 11460, Note_on_c, 0, 71, 90
2, 11489, Note_on_c, 0, 71, 0
2, 11490, Note_on_c, 0, 67, 90
2, 11519, Note_on_c, 0, 67, 0
2, 11520, Note_on_c, 0, 69, 90
2, 11579, Note_on_c, 0, 69, 0
2, 11580, Note_on_c, 0, 62, 90
2, 11639, Note_on_c, 0, 62, 0
2, 11640, Note_on_c, 0, 71, 90
2, 11669, Note_on_c, 0, 71, 0
2, 11670, Note_on_c, 0, 72, 90
2, 11684, Note_on_c, 0, 72, 0
2, 11685, Note_on_c, 0, 74, 90
2, 11699, Note_on_c, 0, 74, 0
2, 11700, Note_on_c, 0, 72, 90
2, 11729, Note_on_c, 0, 72, 0
2, 11730, Note_on_c, 0, 69, 90
2, 11759, Note_on_c, 0, 69, 0
2, 11760, Note_on_c, 0, 71, 90
2, 11789, Note_on_c, 0, 71, 0
2, 11790, Note_on_c, 0, 68, 90
2, 11819, Note_on_c, 0, 68, 0
2, 11820, Note_on_c, 0, 69, 90
2, 11879, Note_on_c, 0, 69, 0
2, 11880, Note_on_c, 0, 71, 90
2, 11909, Note_on_c, 0, 71, 0
2, 11910, Note_on_c, 0, 72, 90
2, 11924, Note_on_c, 0, 72, 0
2, 11925, Note_on_c, 0, 74, 90
2, 11939, Note_on_c, 0, 74, 0
2, 11940, Note_on_c, 0, 72, 90
2, 11969, Note_on_c, 0, 72, 0
2, 11970, Note_on_c, 0, 69, 90
2, 11999, Note_on_c, 0, 69, 0
2, 12000, Note_on_c, 0, 71, 90
2, 12059, Note_on_c, 0, 71, 0
2, 12060, Note_on_c, 0, 64, 90
2, 12119, Note_on_c, 0, 64, 0
2, 12240, Note_on_c, 0, 67, 90
2, 12299, Note_on_c, 0, 67, 0
2, 12300, Note_on_c, 0, 70, 90
2, 12329, Note_on_c, 0, 70, 0
2, 12330, Note_on_c, 0, 69, 90
2, 12359, Note_on_c, 0, 69, 0
2, 12360, Note_on_c, 0, 69, 90
2, 12389, Note_on_c, 0, 69, 0
2, 12390, Note_on_c, 0, 67, 90
2, 12404, Note_on_c, 0, 67, 0
2, 12405, Note_on_c, 0, 65, 90
2, 12419, Note_on_c, 0, 65, 0
2, 12420, Note_on_c, 0, 67, 90
2, 12449, Note_on_c, 0, 67, 0
2, 12450, Note_on_c, 0, 64, 90
2, 12479, Note_on_c, 0, 64, 0
2, 12480, Note_on_c, 0, 62, 90
2, 12599, Note_on_c, 0, 62, 0
2, 12720, Note_on_c, 0, 74, 90
2, 12749, Note_on_c, 0, 74, 0
2, 12750, Note_on_c, 0, 76, 90
2, 12764, Note_on_c, 0, 76, 0
2, 12765, Note_on_c, 0, 77, 90
2, 12779, Note_on_c, 0, 77, 0
2, 12780, Note_on_c, 0, 76, 90
2, 12809, Note_on_c, 0, 76, 0
2, 12810, Note_on_c, 0, 72, 90
2, 12839, Note_on_c, 0, 72, 0
2, 12840, Note_on_c, 0, 79, 90
2, 12869, Note_on_c, 0, 79, 0
2, 12870, Note_on_c, 0, 67, 90
2, 12899, Note_on_c, 0, 67, 0
2, 12900, Note_on_c, 0, 72, 90
2, 12929, Note_on_c, 0, 72, 0
2, 12930, Note_on_c, 0, 74, 90
2, 12944, Note_on_c, 0, 74, 0
2, 12945, Note_on_c, 0, 76, 90
2, 12959, Note_on_c, 0, 76, 0
2, 12960, Note_on_c, 0, 71, 90
2, 13079, Note_on_c, 0, 71, 0
2, 13200, Note_on_c, 0, 76, 90
2, 13229, Note_on_c, 0, 76, 0
2, 13230, Note_on_c, 0, 78, 90
2, 13244, Note_on_c, 0, 78, 0
2, 13245, Note_on_c, 0, 79, 90
2, 13259, Note_on_c, 0, 79, 0
2, 13260, Note_on_c, 0, 78, 90
2, 13289, Note_on_c, 0, 78, 0
2, 13290, Note_on_c, 0, 79, 90
2, 13304, Note_on_c, 0, 79, 0
2, 13305, Note_on_c, 0, 81, 90
2, 13319, Note_on_c, 0, 81, 0
2, 13320, Note_on_c, 0, 73, 90
2, 13349, Note_on_c, 0, 73, 0
2, 13350, Note_on_c, 0, 74, 90
2, 13364, Note_on_c, 0, 74, 0
2, 13365, Note_on_c, 0, 76, 90
2, 13379, Note_on_c, 0, 76, 0
2, 13380, Note_on_c, 0, 69, 90
2, 13409, Note_on_c, 0, 69, 0
2, 13410, Note_on_c, 0, 74, 90
2, 13439, Note_on_c, 0, 74, 0
2, 13440, Note_on_c, 0, 73, 90
2, 13559, Note_on_c, 0, 73, 0
2, 13740, Note_on_c, 0, 83, 90
2, 13769, Note_on_c, 0, 83, 0
2, 13770, Note_on_c, 0, 81, 90
2, 13799, Note_on_c, 0, 81, 0
2, 13800, Note_on_c, 0, 79, 90
2, 13950, Note_on_c, 0, 79, 0
2, 13950, Note_on_c, 0, 76, 90
2, 13979, Note_on_c, 0, 76, 0
2, 13980, Note_on_c, 0, 81, 90
2, 14009, Note_on_c, 0, 81, 0
2, 14010, Note_on_c, 0, 79, 90
2, 14039, Note_on_c, 0, 79, 0
2, 14040, Note_on_c, 0, 78, 90
2, 14190, Note_on_c, 0, 78, 0
2, 14190, Note_on_c, 0, 74, 90
2, 14219, Note_on_c, 0, 74, 0
2, 14220, Note_on_c, 0, 79, 90
2, 14249, Note_on_c, 0, 79, 0
2, 14250, Note_on_c, 0, 78, 90
2, 14279, Note_on_c, 0, 78, 0
2, 14280, Note_on_c, 0, 76, 90
2, 14309, Note_on_c, 0, 76, 0
2, 14310, Note_on_c, 0, 71, 90
2, 14339, Note_on_c, 0, 71, 0
2, 14340, Note_on_c, 0, 76, 90
2, 14369, Note_on_c, 0, 76, 0
2, 14370, Note_on_c, 0, 74, 90
2, 14399, Note_on_c, 0, 74, 0
2, 14400, Note_on_c, 0, 73, 90
2, 14429, Note_on_c, 0, 73, 0
2, 14430, Note_on_c, 0, 71, 90
2, 14444, Note_on_c, 0, 71, 0
2, 14445, Note_on_c, 0, 70, 90
2, 14459, Note_on_c, 0, 70, 0
2, 14460, Note_on_c, 0, 71, 90
2, 14489, Note_on_c, 0, 71, 0
2, 14490, Note_on_c, 0, 73, 90
2, 14519, Note_on_c, 0, 73, 0
2, 14520, Note_on_c, 0, 74, 90
2, 14529, Note_on_c, 0, 74, 0
2, 14530, Note_on_c, 0, 73, 90
2, 14539, Note_on_c, 0, 73, 0
2, 14540, Note_on_c, 0, 74, 90
2, 14549, Note_on_c, 0, 74, 0
2, 14550, Note_on_c, 0, 73, 90
2, 14559, Note_on_c, 0, 73, 0
2, 14560, Note_on_c, 0, 74, 90
2, 14569, Note_on_c, 0, 74, 0
2, 14570, Note_on_c, 0, 73, 90
2, 14579, Note_on_c, 0, 73, 0
2, 14580, Note_on_c, 0, 74, 90
2, 14594, Note_on_c, 0, 74, 0
2, 14595, Note_on_c, 0, 73, 90
2, 14609, Note_on_c, 0, 73, 0
2, 14610, Note_on_c, 0, 71, 90
2, 14639, Note_on_c, 0, 71, 0
2, 14640, Note_on_c, 0, 71, 90
2, 14699, Note_on_c, 0, 71, 0
2, 14700, Note_on_c, 0, 78, 90
2, 14729, Note_on_c, 0, 78, 0
2, 14730, Note_on_c, 0, 76, 90
2, 14759, Note_on_c, 0, 76, 0
2, 14760, Note_on_c, 0, 74, 90
2, 14910, Note_on_c, 0, 74, 0
2, 14910, Note_on_c, 0, 71, 90
2, 14939, Note_on_c, 0, 71, 0
2, 14940, Note_on_c, 0, 76, 90
2, 14969, Note_on_c, 0, 76, 0
2, 14970, Note_on_c, 0, 74, 90
2, 14999, Note_on_c, 0, 74, 0
2, 15000, Note_on_c, 0, 73, 90
2, 15029, Note_on_c, 0, 73, 0
2, 15030, Note_on_c, 0, 74, 90
2, 15059, Note_on_c, 0, 74, 0
2, 15060, Note_on_c, 0, 71, 90
2, 15089, Note_on_c, 0, 71, 0
2, 15090, Note_on_c, 0, 73, 90
2, 15119, Note_on_c, 0, 73, 0
2, 15120, Note_on_c, 0, 74, 90
2, 15149, Note_on_c, 0, 74, 0
2, 15150, Note_on_c, 0, 69, 90
2, 15179, Note_on_c, 0, 69, 0
2, 15180, Note_on_c, 0, 74, 90
2, 15209, Note_on_c, 0, 74, 0
2, 15210, Note_on_c, 0, 73, 90
2, 15239, Note_on_c, 0, 73, 0
2, 15240, Note_on_c, 0, 74, 90
2, 15390, Note_on_c, 0, 74, 0
2, 15390, Note_on_c, 0, 74, 90
2, 15419, Note_on_c, 0, 74, 0
2, 15420, Note_on_c, 0, 79, 90
2, 15449, Note_on_c, 0, 79, 0
2, 15450, Note_on_c, 0, 78, 90
2, 15479, Note_on_c, 0, 78, 0
2, 15480, Note_on_c, 0, 79, 90
2, 15630, Note_on_c, 0, 79, 0
2, 15630, Note_on_c, 0, 76, 90
2, 15659, Note_on_c, 0, 76, 0
2, 15660, Note_on_c, 0, 81, 90
2, 15689, Note_on_c, 0, 81, 0
2, 15690, Note_on_c, 0, 79, 90
2, 15719, Note_on_c, 0, 79, 0
2, 15720, Note_on_c, 0, 81, 90
2, 15749, Note_on_c, 0, 81, 0
2, 15750, Note_on_c, 0, 76, 90
2, 15779, Note_on_c, 0, 76, 0
2, 15780, Note_on_c, 0, 74, 90
2, 15809, Note_on_c, 0, 74, 0
2, 15810, Note_on_c, 0, 73, 90
2, 15839, Note_on_c, 0, 73, 0
2, 15840, Note_on_c, 0, 74, 90
2, 15869, Note_on_c, 0, 74, 0
2, 15870, Note_on_c, 0, 79, 90
2, 15899, Note_on_c, 0, 79, 0
2, 15900, Note_on_c, 0, 78, 90
2, 15929, Note_on_c, 0, 78, 0
2, 15930, Note_on_c, 0, 76, 90
2, 15959, Note_on_c, 0, 76, 0
2, 15960, Note_on_c, 0, 76, 90
2, 16049, Note_on_c, 0, 76, 0
2, 16050, Note_on_c, 0, 74, 90
2, 16079, Note_on_c, 0, 74, 0
2, 16080, Note_on_c, 0, 74, 90
2, 16199, Note_on_c, 0, 74, 0
2, 17488, Control_c, 0, 7, 112
2, 17499, Control_c, 0, 7, 113
2, 17511, Control_c, 0, 7, 114
2, 17516, Control_c, 0, 1, 0
2, 17518, Control_c, 0, 1, 2
2, 17520, Note_on_c, 0, 74, 100
2, 17520, Control_c, 0, 1, 4
2, 17521, Control_c, 0, 7, 115
2, 17522, Control_c, 0, 1, 6
2, 17524, Control_c, 0, 1, 9
2, 17526, Control_c, 0, 1, 11
2, 17528, Control_c, 0, 1, 13
2, 17530, Control_c, 0, 1, 15
2, 17532, Control_c, 0, 1, 18
2, 17533, Control_c, 0, 7, 116
2, 17534, Control_c, 0, 1, 20
2, 17536, Control_c, 0, 1, 22
2, 17538, Control_c, 0, 1, 25
2, 17540, Control_c, 0, 1, 27
2, 17542, Control_c, 0, 1, 29
2, 17543, Control_c, 0, 7, 117
2, 17544, Control_c, 0, 1, 31
2, 17546, Control_c, 0, 1, 34
2, 17548, Control_c, 0, 1, 36
2, 17550, Control_c, 0, 1, 38
2, 17552, Control_c, 0, 1, 40
2, 17554, Control_c, 0, 1, 43
2, 17554, Control_c, 0, 7, 118
2, 17556, Control_c, 0, 1, 45
2, 17558, Control_c, 0, 1, 47
2, 17560, Control_c, 0, 1, 50
2, 17562, Control_c, 0, 1, 52
2, 17564, Control_c, 0, 1, 54
2, 17564, Control_c, 0, 7, 119
2, 17566, Control_c, 0, 1, 56
2, 17568, Control_c, 0, 1, 59
2, 17570, Control_c, 0, 1, 61
2, 17572, Control_c, 0, 1, 63
2, 17574, Control_c, 0, 1, 65
2, 17576, Control_c, 0, 1, 68
2, 17576, Control_c, 0, 7, 120
2, 17578, Control_c, 0, 1, 70
2, 17580, Control_c, 0, 1, 72
2, 17582, Control_c, 0, 1, 75
2, 17584, Control_c, 0, 1, 77
2, 17586, Control_c, 0, 1, 79
2, 17586, Control_c, 0, 7, 121
2, 17588, Control_c, 0, 1, 81
2, 17590, Control_c, 0, 1, 84
2, 17592, Control_c, 0, 1, 86
2, 17594, Control_c, 0, 1, 88
2, 17596, Control_c, 0, 1, 90
2, 17598, Control_c, 0, 1, 93
2, 17598, Control_c, 0, 7, 122
2, 17600, Control_c, 0, 1, 95
2, 17602, Control_c, 0, 1, 97
2, 17604, Control_c, 0, 1, 100
2, 17606, Control_c, 0, 1, 102
2, 17608, Control_c, 0, 1, 104
2, 17608, Control_c, 0, 7, 123
2, 17610, Control_c, 0, 1, 106
2, 17612, Control_c, 0, 1, 109
2, 17614, Control_c, 0, 1, 111
2, 17616, Control_c, 0, 1, 113
2, 17618, Control_c, 0, 1, 115
2, 17619, Control_c, 0, 7, 124
2, 17620, Control_c, 0, 1, 118
2, 17622, Control_c, 0, 1, 120
2, 17624, Control_c, 0, 1, 122
2, 17626, Control_c, 0, 1, 125
2, 17628, Control_c, 0, 1, 125
2, 17629, Control_c, 0, 7, 125
2, 17630, Control_c, 0, 1, 125
2, 17641, Control_c, 0, 7, 126
2, 17651, Control_c, 0, 7, 127
2, 17654, Control_c, 0, 7, 124
2, 17658, Control_c, 0, 7, 125
2, 17661, Control_c, 0, 7, 126
2, 17663, Control_c, 0, 7, 127
2, 17788, Control_c, 0, 1, 126
2, 17794, Control_c, 0, 1, 124
2, 17796, Control_c, 0, 1, 123
2, 17798, Control_c, 0, 1, 122
2, 17800, Control_c, 0, 1, 121
2, 17802, Control_c, 0, 1, 120
2, 17804, Control_c, 0, 1, 119
2, 17806, Control_c, 0, 1, 118
2, 17808, Control_c, 0, 1, 117
2, 17810, Control_c, 0, 1, 115
2, 17812, Control_c, 0, 1, 114
2, 17814, Control_c, 0, 1, 113
2, 17816, Control_c, 0, 1, 112
2, 17818, Control_c, 0, 1, 111
2, 17820, Control_c, 0, 1, 110
2, 17822, Control_c, 0, 1, 109
2, 17824, Control_c, 0, 1, 108
2, 17826, Control_c, 0, 1, 106
2, 17828, Control_c, 0, 1, 108
2, 17830, Control_c, 0, 1, 106
2, 17832, Control_c, 0, 1, 104
2, 17834, Control_c, 0, 1, 102
2, 17836, Control_c, 0, 1, 99
2, 17838, Control_c, 0, 1, 97
2, 17840, Control_c, 0, 1, 95
2, 17842, Control_c, 0, 1, 93
2, 17844, Control_c, 0, 1, 90
2, 17845, Note_on_c, 0, 74, 0
2, 17846, Control_c, 0, 1, 88
2, 17848, Control_c, 0, 1, 86
2, 17850, Note_on_c, 0, 72, 90
2, 17850, Control_c, 0, 1, 84
2, 17852, Control_c, 0, 1, 81
2, 17854, Control_c, 0, 1, 79
2, 17856, Control_c, 0, 1, 77
2, 17858, Control_c, 0, 1, 75
2, 17860, Control_c, 0, 1, 72
2, 17862, Control_c, 0, 1, 70
2, 17864, Control_c, 0, 1, 68
2, 17866, Control_c, 0, 1, 66
2, 17868, Control_c, 0, 1, 63
2, 17870, Control_c, 0, 1, 61
2, 17872, Control_c, 0, 1, 59
2, 17874, Control_c, 0, 1, 57
2, 17876, Control_c, 0, 1, 54
2, 17878, Control_c, 0, 1, 52
2, 17879, Note_on_c, 0, 72, 0
2, 17880, Note_on_c, 0, 71, 90
2, 17880, Control_c, 0, 1, 50
2, 17882, Control_c, 0, 1, 48
2, 17884, Control_c, 0, 1, 45
2, 17886, Control_c, 0, 1, 43
2, 17888, Control_c, 0, 1, 41
2, 17890, Control_c, 0, 1, 39
2, 17892, Control_c, 0, 1, 36
2, 17894, Control_c, 0, 1, 34
2, 17896, Control_c, 0, 1, 32
2, 17898, Control_c, 0, 1, 30
2, 17900, Control_c, 0, 1, 27
2, 17902, Control_c, 0, 1, 25
2, 17904, Control_c, 0, 1, 23
2, 17906, Control_c, 0, 1, 21
2, 17908, Control_c, 0, 1, 18
2, 17909, Note_on_c, 0, 71, 0
2, 17910, Note_on_c, 0, 69, 90
2, 17939, Note_on_c, 0, 69, 0
2, 17940, Note_on_c, 0, 67, 90
2, 17954, Note_on_c, 0, 67, 0
2, 17955, Note_on_c, 0, 66, 90
2, 17969, Note_on_c, 0, 66, 0
2, 17970, Note_on_c, 0, 67, 90
2, 17999, Note_on_c, 0, 67, 0
2, 18000, Note_on_c, 0, 69, 90
2, 18007, Note_on_c, 0, 67, 90
2, 18008, Note_on_c, 0, 69, 0
2, 18015, Note_on_c, 0, 67, 0
2, 18015, Note_on_c, 0, 69, 90
2, 18022, Note_on_c, 0, 67, 90
2, 18023, Note_on_c, 0, 69, 0
2, 18090, Note_on_c, 0, 67, 0
2, 18090, Note_on_c, 0, 66, 90
2, 18119, Note_on_c, 0, 66, 0
2, 18120, Note_on_c, 0, 64, 90
2, 18134, Note_on_c, 0, 64, 0
2, 18135, Note_on_c, 0, 66, 90
2, 18149, Note_on_c, 0, 66, 0
2, 18150, Note_on_c, 0, 67, 90
2, 18164, Note_on_c, 0, 67, 0
2, 18165, Note_on_c, 0, 69, 90
2, 18179, Note_on_c, 0, 69, 0
2, 18180, Note_on_c, 0, 71, 90
2, 18194, Note_on_c, 0, 71, 0
2, 18195, Note_on_c, 0, 72, 90
2, 18209, Note_on_c, 0, 72, 0
2, 18210, Note_on_c, 0, 69, 90
2, 18224, Note_on_c, 0, 69, 0
2, 18225, Note_on_c, 0, 71, 90
2, 18239, Note_on_c, 0, 71, 0
2, 18240, Note_on_c, 0, 72, 90
2, 18247, Note_on_c, 0, 74, 90
2, 18248, Note_on_c, 0, 72, 0
2, 18255, Note_on_c, 0, 74, 0
2, 18255, Note_on_c, 0, 72, 90
2, 18375, Note_on_c, 0, 72, 0
2, 18375, Note_on_c, 0, 71, 90
2, 18389, Note_on_c, 0, 71, 0
2, 18390, Note_on_c, 0, 69, 90
2, 18404, Note_on_c, 0, 69, 0
2, 18405, Note_on_c, 0, 71, 90
2, 18419, Note_on_c, 0, 71, 0
2, 18420, Note_on_c, 0, 72, 90
2, 18434, Note_on_c, 0, 72, 0
2, 18435, Note_on_c, 0, 74, 90
2, 18449, Note_on_c, 0, 74, 0
2, 18450, Note_on_c, 0, 76, 90
2, 18464, Note_on_c, 0, 76, 0
2, 18465, Note_on_c, 0, 78, 90
2, 18479, Note_on_c, 0, 78, 0
2, 18480, Note_on_c, 0, 79, 90
2, 18494, Note_on_c, 0, 79, 0
2, 18495, Note_on_c, 0, 81, 90
2, 18509, Note_on_c, 0, 81, 0
2, 18510, Note_on_c, 0, 78, 90
2, 18524, Note_on_c, 0, 78, 0
2, 18525, Note_on_c, 0, 79, 90
2, 18539, Note_on_c, 0, 79, 0
2, 18540, Note_on_c, 0, 78, 90
2, 18547, Note_on_c, 0, 79, 90
2, 18548, Note_on_c, 0, 78, 0
2, 18555, Note_on_c, 0, 79, 0
2, 18555, Note_on_c, 0, 78, 90
2, 18562, Note_on_c, 0, 79, 90
2, 18563, Note_on_c, 0, 78, 0
2, 18570, Note_on_c, 0, 79, 0
2, 18570, Note_on_c, 0, 78, 90
2, 18577, Note_on_c, 0, 79, 90
2, 18578, Note_on_c, 0, 78, 0
2, 18585, Note_on_c, 0, 79, 0
2, 18585, Note_on_c, 0, 78, 90
2, 18599, Note_on_c, 0, 78, 0
2, 18600, Note_on_c, 0, 76, 90
2, 18614, Note_on_c, 0, 76, 0
2, 18615, Note_on_c, 0, 74, 90
2, 18629, Note_on_c, 0, 74, 0
2, 18630, Note_on_c, 0, 74, 90
2, 18735, Note_on_c, 0, 74, 0
2, 18735, Note_on_c, 0, 67, 90
2, 18750, Note_on_c, 0, 67, 0
2, 18750, Note_on_c, 0, 69, 90
2, 18765, Note_on_c, 0, 69, 0
2, 18765, Note_on_c, 0, 71, 90
2, 18780, Note_on_c, 0, 71, 0
2, 18780, Note_on_c, 0, 72, 90
2, 18795, Note_on_c, 0, 72, 0
2, 18795, Note_on_c, 0, 74, 90
2, 18810, Note_on_c, 0, 74, 0
2, 18810, Note_on_c, 0, 76, 90
2, 18825, Note_on_c, 0, 76, 0
2, 18825, Note_on_c, 0, 78, 90
2, 18840, Note_on_c, 0, 78, 0
2, 18840, Note_on_c, 0, 79, 90
2, 18870, Note_on_c, 0, 79, 0
2, 18870, Note_on_c, 0, 77, 90
2, 18885, Note_on_c, 0, 77, 0
2, 18885, Note_on_c, 0, 76, 90
2, 18900, Note_on_c, 0, 76, 0
2, 18900, Note_on_c, 0, 74, 90
2, 18907, Note_on_c, 0, 74, 0
2, 18907, Note_on_c, 0, 76, 90
2, 18914, Note_on_c, 0, 76, 0
2, 18915, Note_on_c, 0, 74, 90
2, 18930, Note_on_c, 0, 74, 0
2, 18930, Note_on_c, 0, 72, 90
2, 18960, Note_on_c, 0, 72, 0
2, 18960, Note_on_c, 0, 72, 90
2, 18990, Note_on_c, 0, 72, 0
2, 18990, Note_on_c, 0, 74, 90
2, 19005, Note_on_c, 0, 74, 0
2, 19005, Note_on_c, 0, 72, 90
2, 19020, Note_on_c, 0, 72, 0
2, 19020, Note_on_c, 0, 71, 90
2, 19050, Note_on_c, 0, 71, 0
2, 19050, Note_on_c, 0, 72, 90
2, 19065, Note_on_c, 0, 72, 0
2, 19065, Note_on_c, 0, 69, 90
2, 19080, Note_on_c, 0, 69, 0
2, 19080, Note_on_c, 0, 81, 90
2, 19215, Note_on_c, 0, 81, 0
2, 19215, Note_on_c, 0, 82, 90
2, 19230, Note_on_c, 0, 82, 0
2, 19230, Note_on_c, 0, 81, 90
2, 19245, Note_on_c, 0, 81, 0
2, 19245, Note_on_c, 0, 79, 90
2, 19260, Note_on_c, 0, 79, 0
2, 19260, Note_on_c, 0, 81, 90
2, 19275, Note_on_c, 0, 81, 0
2, 19275, Note_on_c, 0, 79, 90
2, 19290, Note_on_c, 0, 79, 0
2, 19290, Note_on_c, 0, 77, 90
2, 19305, Note_on_c, 0, 77, 0
2, 19305, Note_on_c, 0, 79, 90
2, 19320, Note_on_c, 0, 79, 0
2, 19320, Note_on_c, 0, 77, 90
2, 19335, Note_on_c, 0, 77, 0
2, 19335, Note_on_c, 0, 76, 90
2, 19350, Note_on_c, 0, 76, 0
2, 19350, Note_on_c, 0, 77, 90
2, 19365, Note_on_c, 0, 77, 0
2, 19365, Note_on_c, 0, 76, 90
2, 19380, Note_on_c, 0, 76, 0
2, 19380, Note_on_c, 0, 74, 90
2, 19395, Note_on_c, 0, 74, 0
2, 19395, Note_on_c, 0, 76, 90
2, 19410, Note_on_c, 0, 76, 0
2, 19410, Note_on_c, 0, 74, 90
2, 19425, Note_on_c, 0, 74, 0
2, 19425, Note_on_c, 0, 73, 90
2, 19440, Note_on_c, 0, 73, 0
2, 19440, Note_on_c, 0, 74, 90
2, 19590, Note_on_c, 0, 74, 0
2, 19590, Note_on_c, 0, 76, 90
2, 19605, Note_on_c, 0, 76, 0
2, 19605, Note_on_c, 0, 74, 90
2, 19620, Note_on_c, 0, 74, 0
2, 19620, Note_on_c, 0, 73, 90
2, 19650, Note_on_c, 0, 73, 0
2, 19650, Note_on_c, 0, 74, 90
2, 19665, Note_on_c, 0, 74, 0
2, 19665, Note_on_c, 0, 71, 90
2, 19680, Note_on_c, 0, 71, 0
2, 19680, Note_on_c, 0, 73, 90
2, 19740, Note_on_c, 0, 73, 0
2, 19740, Note_on_c, 0, 79, 90
2, 19830, Note_on_c, 0, 79, 0
2, 19830, Note_on_c, 0, 81, 90
2, 19845, Note_on_c, 0, 81, 0
2, 19845, Note_on_c, 0, 79, 90
2, 19860, Note_on_c, 0, 79, 0
2, 19860, Note_on_c, 0, 77, 90
2, 19890, Note_on_c, 0, 77, 0
2, 19890, Note_on_c, 0, 79, 90
2, 19905, Note_on_c, 0, 79, 0
2, 19905, Note_on_c, 0, 76, 90
2, 19920, Note_on_c, 0, 76, 0
2, 19920, Note_on_c, 0, 77, 90
2, 19950, Note_on_c, 0, 77, 0
2, 19950, Note_on_c, 0, 79, 90
2, 19965, Note_on_c, 0, 79, 0
2, 19965, Note_on_c, 0, 77, 90
2, 19980, Note_on_c, 0, 77, 0
2, 19980, Note_on_c, 0, 76, 90
2, 20010, Note_on_c, 0, 76, 0
2, 20010, Note_on_c, 0, 77, 90
2, 20025, Note_on_c, 0, 77, 0
2, 20025, Note_on_c, 0, 74, 90
2, 20040, Note_on_c, 0, 74, 0
2, 20040, Note_on_c, 0, 76, 90
2, 20070, Note_on_c, 0, 76, 0
2, 20070, Note_on_c, 0, 77, 90
2, 20085, Note_on_c, 0, 77, 0
2, 20085, Note_on_c, 0, 76, 90
2, 20100, Note_on_c, 0, 76, 0
2, 20100, Note_on_c, 0, 74, 90
2, 20130, Note_on_c, 0, 74, 0
2, 20130, Note_on_c, 0, 76, 90
2, 20145, Note_on_c, 0, 76, 0
2, 20145, Note_on_c, 0, 73, 90
2, 20160, Note_on_c, 0, 73, 0
2, 20160, Note_on_c, 0, 81, 90
2, 20190, Note_on_c, 0, 81, 0
2, 20190, Note_on_c, 0, 79, 90
2, 20220, Note_on_c, 0, 79, 0
2, 20220, Note_on_c, 0, 82, 90
2, 20250, Note_on_c, 0, 82, 0
2, 20250, Note_on_c, 0, 81, 90
2, 20280, Note_on_c, 0, 81, 0
2, 20280, Note_on_c, 0, 73, 90
2, 20287, Note_on_c, 0, 74, 90
2, 20288, Note_on_c, 0, 73, 0
2, 20295, Note_on_c, 0, 74, 0
2, 20295, Note_on_c, 0, 73, 90
2, 20370, Note_on_c, 0, 73, 0
2, 20370, Note_on_c, 0, 74, 90
2, 20400, Note_on_c, 0, 74, 0
2, 20400, Note_on_c, 0, 74, 90
2, 20520, Note_on_c, 0, 74, 0
2, 20760, Note_on_c, 0, 69, 90
2, 20790, Note_on_c, 0, 69, 0
2, 20790, Note_on_c, 0, 67, 90
2, 20805, Note_on_c, 0, 67, 0
2, 20805, Note_on_c, 0, 66, 90
2, 20820, Note_on_c, 0, 66, 0
2, 20820, Note_on_c, 0, 64, 90
2, 20827, Note_on_c, 0, 66, 90
2, 20828, Note_on_c, 0, 64, 0
2, 20835, Note_on_c, 0, 66, 0
2, 20835, Note_on_c, 0, 64, 90
2, 20850, Note_on_c, 0, 64, 0
2, 20850, Note_on_c, 0, 62, 90
2, 20880, Note_on_c, 0, 62, 0
2, 20880, Note_on_c, 0, 62, 90
2, 21000, Note_on_c, 0, 62, 0
2, 21240, Note_on_c, 0, 79, 90
2, 21270, Note_on_c, 0, 79, 0
2, 21270, Note_on_c, 0, 77, 90
2, 21285, Note_on_c, 0, 77, 0
2, 21285, Note_on_c, 0, 76, 90
2, 21300, Note_on_c, 0, 76, 0
2, 21300, Note_on_c, 0, 74, 90
2, 21307, Note_on_c, 0, 76, 90
2, 21308, Note_on_c, 0, 74, 0
2, 21315, Note_on_c, 0, 76, 0
2, 21315, Note_on_c, 0, 74, 90
2, 21330, Note_on_c, 0, 74, 0
2, 21330, Note_on_c, 0, 73, 90
2, 21360, Note_on_c, 0, 73, 0
2, 21360, Note_on_c, 0, 73, 90
2, 21420, Note_on_c, 0, 73, 0
2, 21420, Note_on_c, 0, 69, 90
2, 21450, Note_on_c, 0, 69, 0
2, 21450, Note_on_c, 0, 72, 90
2, 21465, Note_on_c, 0, 72, 0
2, 21465, Note_on_c, 0, 71, 90
2, 21480, Note_on_c, 0, 71, 0
2, 21480, Note_on_c, 0, 72, 90
2, 21630, Note_on_c, 0, 72, 0
2, 21630, Note_on_c, 0, 74, 90
2, 21645, Note_on_c, 0, 74, 0
2, 21645, Note_on_c, 0, 75, 90
2, 21660, Note_on_c, 0, 75, 0
2, 21660, Note_on_c, 0, 74, 90
2, 21690, Note_on_c, 0, 74, 0
2, 21690, Note_on_c, 0, 75, 90
2, 21705, Note_on_c, 0, 75, 0
2, 21705, Note_on_c, 0, 72, 90
2, 21720, Note_on_c, 0, 72, 0
2, 21720, Note_on_c, 0, 70, 90
2, 21750, Note_on_c, 0, 70, 0
2, 21750, Note_on_c, 0, 72, 90
2, 21765, Note_on_c, 0, 72, 0
2, 21765, Note_on_c, 0, 70, 90
2, 21780, Note_on_c, 0, 70, 0
2, 21780, Note_on_c, 0, 69, 90
2, 21810, Note_on_c, 0, 69, 0
2, 21810, Note_on_c, 0, 70, 90
2, 21825, Note_on_c, 0, 70, 0
2, 21825, Note_on_c, 0, 67, 90
2, 21840, Note_on_c, 0, 67, 0
2, 21840, Note_on_c, 0, 66, 90
2, 21855, Note_on_c, 0, 66, 0
2, 21855, Note_on_c, 0, 67, 90
2, 21870, Note_on_c, 0, 67, 0
2, 21870, Note_on_c, 0, 69, 90
2, 21885, Note_on_c, 0, 69, 0
2, 21885, Note_on_c, 0, 70, 90
2, 21900, Note_on_c, 0, 70, 0
2, 21900, Note_on_c, 0, 72, 90
2, 21915, Note_on_c, 0, 72, 0
2, 21915, Note_on_c, 0, 75, 90
2, 21930, Note_on_c, 0, 75, 0
2, 21930, Note_on_c, 0, 74, 90
2, 21945, Note_on_c, 0, 74, 0
2, 21945, Note_on_c, 0, 72, 90
2, 21960, Note_on_c, 0, 72, 0
2, 21960, Note_on_c, 0, 81, 90
2, 21990, Note_on_c, 0, 81, 0
2, 21990, Note_on_c, 0, 79, 90
2, 22005, Note_on_c, 0, 79, 0
2, 22005, Note_on_c, 0, 78, 90
2, 22020, Note_on_c, 0, 78, 0
2, 22020, Note_on_c, 0, 75, 90
2, 22027, Note_on_c, 0, 74, 90
2, 22028, Note_on_c, 0, 75, 0
2, 22035, Note_on_c, 0, 74, 0
2, 22035, Note_on_c, 0, 75, 90
2, 22050, Note_on_c, 0, 75, 0
2, 22050, Note_on_c, 0, 74, 90
2, 22080, Note_on_c, 0, 74, 0
2, 22080, Note_on_c, 0, 79, 90
2, 22110, Note_on_c, 0, 79, 0
2, 22110, Note_on_c, 0, 77, 90
2, 22125, Note_on_c, 0, 77, 0
2, 22125, Note_on_c, 0, 75, 90
2, 22140, Note_on_c, 0, 75, 0
2, 22140, Note_on_c, 0, 74, 90
2, 22155, Note_on_c, 0, 74, 0
2, 22155, Note_on_c, 0, 72, 90
2, 22170, Note_on_c, 0, 72, 0
2, 22170, Note_on_c, 0, 74, 90
2, 22185, Note_on_c, 0, 74, 0
2, 22185, Note_on_c, 0, 75, 90
2, 22200, Note_on_c, 0, 75, 0
2, 22200, Note_on_c, 0, 70, 90
2, 22260, Note_on_c, 0, 70, 0
2, 22260, Note_on_c, 0, 69, 90
2, 22267, Note_on_c, 0, 70, 90
2, 22268, Note_on_c, 0, 69, 0
2, 22275, Note_on_c, 0, 70, 0
2, 22275, Note_on_c, 0, 69, 90
2, 22290, Note_on_c, 0, 69, 0
2, 22290, Note_on_c, 0, 67, 90
2, 22320, Note_on_c, 0, 67, 0
2, 22320, Note_on_c, 0, 67, 90
2, 22680, Note_on_c, 0, 67, 0
2, 22800, Note_on_c, 0, 79, 90
2, 22935, Note_on_c, 0, 79, 0
2, 22935, Note_on_c, 0, 82, 90
2, 22950, Note_on_c, 0, 82, 0
2, 22950, Note_on_c, 0, 81, 90
2, 22965, Note_on_c, 0, 81, 0
2, 22965, Note_on_c, 0, 79, 90
2, 22980, Note_on_c, 0, 79, 0
2, 22980, Note_on_c, 0, 77, 90
2, 22995, Note_on_c, 0, 77, 0
2, 22995, Note_on_c, 0, 76, 90
2, 23010, Note_on_c, 0, 76, 0
2, 23010, Note_on_c, 0, 74, 90
2, 23025, Note_on_c, 0, 74, 0
2, 23025, Note_on_c, 0, 72, 90
2, 23040, Note_on_c, 0, 72, 0
2, 23040, Note_on_c, 0, 71, 90
2, 23055, Note_on_c, 0, 71, 0
2, 23055, Note_on_c, 0, 79, 90
2, 23070, Note_on_c, 0, 79, 0
2, 23070, Note_on_c, 0, 77, 90
2, 23085, Note_on_c, 0, 77, 0
2, 23085, Note_on_c, 0, 76, 90
2, 23100, Note_on_c, 0, 76, 0
2, 23100, Note_on_c, 0, 74, 90
2, 23115, Note_on_c, 0, 74, 0
2, 23115, Note_on_c, 0, 72, 90
2, 23130, Note_on_c, 0, 72, 0
2, 23130, Note_on_c, 0, 71, 90
2, 23145, Note_on_c, 0, 71, 0
2, 23145, Note_on_c, 0, 69, 90
2, 23160, Note_on_c, 0, 69, 0
2, 23160, Note_on_c, 0, 67, 90
2, 23280, Note_on_c, 0, 67, 0
2, 23280, Note_on_c, 0, 67, 90
2, 23310, Note_on_c, 0, 67, 0
2, 23310, Note_on_c, 0, 69, 90
2, 23340, Note_on_c, 0, 69, 0
2, 23340, Note_on_c, 0, 69, 90
2, 23370, Note_on_c, 0, 69, 0
2, 23370, Note_on_c, 0, 71, 90
2, 23400, Note_on_c, 0, 71, 0
2, 23400, Note_on_c, 0, 66, 90
2, 23407, Note_on_c, 0, 67, 90
2, 23408, Note_on_c, 0, 66, 0
2, 23415, Note_on_c, 0, 67, 0
2, 23415, Note_on_c, 0, 66, 90
2, 23490, Note_on_c, 0, 66, 0
2, 23490, Note_on_c, 0, 67, 90
2, 23520, Note_on_c, 0, 67, 0
2, 23520, Note_on_c, 0, 67, 90
2, 23655, Note_on_c, 0, 67, 0
2, 23655, Note_on_c, 0, 69, 90
2, 23670, Note_on_c, 0, 69, 0
2, 23670, Note_on_c, 0, 71, 90
2, 23685, Note_on_c, 0, 71, 0
2, 23685, Note_on_c, 0, 72, 90
2, 23700, Note_on_c, 0, 72, 0
2, 23700, Note_on_c, 0, 74, 90
2, 23730, Note_on_c, 0, 74, 0
2, 23730, Note_on_c, 0, 77, 90
2, 23745, Note_on_c, 0, 77, 0
2, 23745, Note_on_c, 0, 76, 90
2, 23760, Note_on_c, 0, 76, 0
2, 23760, Note_on_c, 0, 77, 90
2, 23895, Note_on_c, 0, 77, 0
2, 23895, Note_on_c, 0, 81, 90
2, 23910, Note_on_c, 0, 81, 0
2, 23910, Note_on_c, 0, 79, 90
2, 23925, Note_on_c, 0, 79, 0
2, 23925, Note_on_c, 0, 77, 90
2, 23940, Note_on_c, 0, 77, 0
2, 23940, Note_on_c, 0, 76, 90
2, 23970, Note_on_c, 0, 76, 0
2, 23970, Note_on_c, 0, 77, 90
2, 23985, Note_on_c, 0, 77, 0
2, 23985, Note_on_c, 0, 74, 90
2, 24000, Note_on_c, 0, 74, 0
2, 24000, Note_on_c, 0, 76, 90
2, 24150, Note_on_c, 0, 76, 0
2, 24150, Note_on_c, 0, 74, 90
2, 24180, Note_on_c, 0, 74, 0
2, 24180, Note_on_c, 0, 72, 90
2, 24210, Note_on_c, 0, 72, 0
2, 24210, Note_on_c, 0, 75, 90
2, 24225, Note_on_c, 0, 75, 0
2, 24225, Note_on_c, 0, 74, 90
2, 24240, Note_on_c, 0, 74, 0
2, 24240, Note_on_c, 0, 75, 90
2, 24300, Note_on_c, 0, 75, 0
2, 24300, Note_on_c, 0, 78, 90
2, 24390, Note_on_c, 0, 78, 0
2, 24390, Note_on_c, 0, 79, 90
2, 24405, Note_on_c, 0, 79, 0
2, 24405, Note_on_c, 0, 78, 90
2, 24420, Note_on_c, 0, 78, 0
2, 24420, Note_on_c, 0, 76, 90
2, 24450, Note_on_c, 0, 76, 0
2, 24450, Note_on_c, 0, 79, 90
2, 24465, Note_on_c, 0, 79, 0
2, 24465, Note_on_c, 0, 78, 90
2, 24480, Note_on_c, 0, 78, 0
2, 24480, Note_on_c, 0, 79, 90
2, 24510, Note_on_c, 0, 79, 0
2, 24510, Note_on_c, 0, 81, 90
2, 24525, Note_on_c, 0, 81, 0
2, 24525, Note_on_c, 0, 79, 90
2, 24540, Note_on_c, 0, 79, 0
2, 24540, Note_on_c, 0, 81, 90
2, 24570, Note_on_c, 0, 81, 0
2, 24570, Note_on_c, 0, 83, 90
2, 24600, Note_on_c, 0, 83, 0
2, 24600, Note_on_c, 0, 78, 100
2, 24607, Note_on_c, 0, 79, 100
2, 24608, Note_on_c, 0, 78, 0
2, 24615, Note_on_c, 0, 79, 0
2, 24615, Note_on_c, 0, 78, 100
2, 24690, Note_on_c, 0, 78, 0
2, 24690, Note_on_c, 0, 79, 100
2, 24720, Note_on_c, 0, 79, 0
2, 24720, Note_on_c, 0, 79, 100
2, 24840, Note_on_c, 0, 79, 0
2, 98760, Note_on_c, 0, 69, 100
2, 98820, Note_on_c, 0, 69, 0
2, 98820, Note_on_c, 0, 74, 90
2, 98849, Note_on_c, 0, 74, 0
2, 98850, Note_on_c, 0, 73, 90
2, 98879, Note_on_c, 0, 73, 0
2, 98880, Note_on_c, 0, 74, 90
2, 98939, Note_on_c, 0, 74, 0
2, 98940, Note_on_c, 0, 69, 90
2, 99030, Note_on_c, 0, 69, 0
2, 99030, Note_on_c, 0, 78, 90
2, 99059, Note_on_c, 0, 78, 0
2, 99060, Note_on_c, 0, 76, 90
2, 99089, Note_on_c, 0, 76, 0
2, 99090, Note_on_c, 0, 74, 90
2, 99119, Note_on_c, 0, 74, 0
2, 99120, Note_on_c, 0, 73, 90
2, 99149, Note_on_c, 0, 73, 0
2, 99150, Note_on_c, 0, 74, 90
2, 99179, Note_on_c, 0, 74, 0
2, 99180, Note_on_c, 0, 76, 90
2, 99209, Note_on_c, 0, 76, 0
2, 99210, Note_on_c, 0, 74, 90
2, 99239, Note_on_c, 0, 74, 0
2, 99240, Note_on_c, 0, 76, 90
2, 99299, Note_on_c, 0, 76, 0
2, 99300, Note_on_c, 0, 69, 90
2, 99389, Note_on_c, 0, 69, 0
2, 99390, Note_on_c, 0, 79, 90
2, 99419, Note_on_c, 0, 79, 0
2, 99420, Note_on_c, 0, 78, 90
2, 99449, Note_on_c, 0, 78, 0
2, 99450, Note_on_c, 0, 76, 90
2, 99479, Note_on_c, 0, 76, 0
2, 99480, Note_on_c, 0, 74, 90
2, 99509, Note_on_c, 0, 74, 0
2, 99510, Note_on_c, 0, 76, 90
2, 99539, Note_on_c, 0, 76, 0
2, 99540, Note_on_c, 0, 78, 90
2, 99569, Note_on_c, 0, 78, 0
2, 99570, Note_on_c, 0, 76, 90
2, 99599, Note_on_c, 0, 76, 0
2, 99600, Note_on_c, 0, 78, 90
2, 99659, Note_on_c, 0, 78, 0
2, 99660, Note_on_c, 0, 69, 90
2, 99749, Note_on_c, 0, 69, 0
2, 99750, Note_on_c, 0, 81, 90
2, 99779, Note_on_c, 0, 81, 0
2, 99780, Note_on_c, 0, 79, 90
2, 99809, Note_on_c, 0, 79, 0
2, 99810, Note_on_c, 0, 78, 90
2, 99839, Note_on_c, 0, 78, 0
2, 99840, Note_on_c, 0, 76, 90
2, 99869, Note_on_c, 0, 76, 0
2, 99870, Note_on_c, 0, 74, 90
2, 99899, Note_on_c, 0, 74, 0
2, 99900, Note_on_c, 0, 73, 90
2, 99989, Note_on_c, 0, 73, 0
2, 99990, Note_on_c, 0, 74, 90
2, 100019, Note_on_c, 0, 74, 0
2, 100020, Note_on_c, 0, 76, 90
2, 100079, Note_on_c, 0, 76, 0
2, 100080, Note_on_c, 0, 69, 90
2, 100199, Note_on_c, 0, 69, 0
2, 100200, Note_on_c, 0, 76, 90
2, 100259, Note_on_c, 0, 76, 0
2, 100260, Note_on_c, 0, 67, 90
2, 100289, Note_on_c, 0, 67, 0
2, 100290, Note_on_c, 0, 66, 90
2, 100319, Note_on_c, 0, 66, 0
2, 100320, Note_on_c, 0, 67, 90
2, 100349, Note_on_c, 0, 67, 0
2, 100350, Note_on_c, 0, 76, 90
2, 100379, Note_on_c, 0, 76, 0
2, 100380, Note_on_c, 0, 74, 90
2, 100409, Note_on_c, 0, 74, 0
2, 100410, Note_on_c, 0, 76, 90
2, 100439, Note_on_c, 0, 76, 0
2, 100440, Note_on_c, 0, 67, 90
2, 100469, Note_on_c, 0, 67, 0
2, 100470, Note_on_c, 0, 66, 90
2, 100499, Note_on_c, 0, 66, 0
2, 100500, Note_on_c, 0, 67, 90
2, 100529, Note_on_c, 0, 67, 0
2, 100530, Note_on_c, 0, 76, 90
2, 100559, Note_on_c, 0, 76, 0
2, 100560, Note_on_c, 0, 74, 90
2, 100589, Note_on_c, 0, 74, 0
2, 100590, Note_on_c, 0, 76, 90
2, 100619, Note_on_c, 0, 76, 0
2, 100620, Note_on_c, 0, 66, 90
2, 100649, Note_on_c, 0, 66, 0
2, 100650, Note_on_c, 0, 64, 90
2, 100679, Note_on_c, 0, 64, 0
2, 100680, Note_on_c, 0, 66, 90
2, 100709, Note_on_c, 0, 66, 0
2, 100710, Note_on_c, 0, 74, 90
2, 100739, Note_on_c, 0, 74, 0
2, 100740, Note_on_c, 0, 73, 90
2, 100769, Note_on_c, 0, 73, 0
2, 100770, Note_on_c, 0, 74, 90
2, 100799, Note_on_c, 0, 74, 0
2, 100800, Note_on_c, 0, 66, 90
2, 100829, Note_on_c, 0, 66, 0
2, 100830, Note_on_c, 0, 64, 90
2, 100859, Note_on_c, 0, 64, 0
2, 100860, Note_on_c, 0, 66, 90
2, 100889, Note_on_c, 0, 66, 0
2, 100890, Note_on_c, 0, 74, 90
2, 100919, Note_on_c, 0, 74, 0
2, 100920, Note_on_c, 0, 73, 90
2, 100949, Note_on_c, 0, 73, 0
2, 100950, Note_on_c, 0, 74, 90
2, 100979, Note_on_c, 0, 74, 0
2, 100980, Note_on_c, 0, 64, 90
2, 101189, Note_on_c, 0, 64, 0
2, 101190, Note_on_c, 0, 62, 90
2, 101219, Note_on_c, 0, 62, 0
2, 101220, Note_on_c, 0, 64, 90
2, 101249, Note_on_c, 0, 64, 0
2, 101250, Note_on_c, 0, 74, 90
2, 101279, Note_on_c, 0, 74, 0
2, 101280, Note_on_c, 0, 73, 90
2, 101309, Note_on_c, 0, 73, 0
2, 101310, Note_on_c, 0, 74, 90
2, 101339, Note_on_c, 0, 74, 0
2, 101340, Note_on_c, 0, 64, 90
2, 101549, Note_on_c, 0, 64, 0
2, 101550, Note_on_c, 0, 62, 90
2, 101579, Note_on_c, 0, 62, 0
2, 101580, Note_on_c, 0, 64, 90
2, 101609, Note_on_c, 0, 64, 0
2, 101610, Note_on_c, 0, 67, 90
2, 101639, Note_on_c, 0, 67, 0
2, 101640, Note_on_c, 0, 66, 90
2, 101669, Note_on_c, 0, 66, 0
2, 101670, Note_on_c, 0, 67, 90
2, 101699, Note_on_c, 0, 67, 0
2, 101700, Note_on_c, 0, 73, 90
2, 101729, Note_on_c, 0, 73, 0
2, 101730, Note_on_c, 0, 71, 90
2, 101759, Note_on_c, 0, 71, 0
2, 101760, Note_on_c, 0, 73, 90
2, 101789, Note_on_c, 0, 73, 0
2, 101790, Note_on_c, 0, 76, 90
2, 101819, Note_on_c, 0, 76, 0
2, 101820, Note_on_c, 0, 74, 90
2, 101849, Note_on_c, 0, 74, 0
2, 101850, Note_on_c, 0, 76, 90
2, 101879, Note_on_c, 0, 76, 0
2, 101880, Note_on_c, 0, 79, 90
2, 101909, Note_on_c, 0, 79, 0
2, 101910, Note_on_c, 0, 78, 90
2, 101939, Note_on_c, 0, 78, 0
2, 101940, Note_on_c, 0, 79, 90
2, 101969, Note_on_c, 0, 79, 0
2, 101970, Note_on_c, 0, 83, 90
2, 101999, Note_on_c, 0, 83, 0
2, 102000, Note_on_c, 0, 81, 90
2, 102029, Note_on_c, 0, 81, 0
2, 102030, Note_on_c, 0, 79, 90
2, 102059, Note_on_c, 0, 79, 0
2, 102060, Note_on_c, 0, 78, 90
2, 102119, Note_on_c, 0, 78, 0
2, 102120, Note_on_c, 0, 79, 90
2, 102149, Note_on_c, 0, 79, 0
2, 102150, Note_on_c, 0, 78, 90
2, 102179, Note_on_c, 0, 78, 0
2, 102180, Note_on_c, 0, 76, 90
2, 102209, Note_on_c, 0, 76, 0
2, 102210, Note_on_c, 0, 74, 90
2, 102239, Note_on_c, 0, 74, 0
2, 102240, Note_on_c, 0, 81, 90
2, 102299, Note_on_c, 0, 81, 0
2, 102300, Note_on_c, 0, 69, 90
2, 102359, Note_on_c, 0, 69, 0
2, 102360, Note_on_c, 0, 73, 90
2, 102419, Note_on_c, 0, 73, 0
2, 102420, Note_on_c, 0, 74, 90
2, 102719, Note_on_c, 0, 74, 0
2, 102720, Note_on_c, 0, 69, 100
2, 102780, Note_on_c, 0, 69, 0
2, 102780, Note_on_c, 0, 74, 90
2, 102809, Note_on_c, 0, 74, 0
2, 102810, Note_on_c, 0, 73, 90
2, 102839, Note_on_c, 0, 73, 0
2, 102840, Note_on_c, 0, 74, 90
2, 102899, Note_on_c, 0, 74, 0
2, 102900, Note_on_c, 0, 69, 90
2, 102990, Note_on_c, 0, 69, 0
2, 102990, Note_on_c, 0, 78, 90
2, 103019, Note_on_c, 0, 78, 0
2, 103020, Note_on_c, 0, 76, 90
2, 103049, Note_on_c, 0, 76, 0
2, 103050, Note_on_c, 0, 74, 90
2, 103079, Note_on_c, 0, 74, 0
2, 103080, Note_on_c, 0, 73, 90
2, 103109, Note_on_c, 0, 73, 0
2, 103110, Note_on_c, 0, 74, 90
2, 103139, Note_on_c, 0, 74, 0
2, 103140, Note_on_c, 0, 76, 90
2, 103169, Note_on_c, 0, 76, 0
2, 103170, Note_on_c, 0, 74, 90
2, 103199, Note_on_c, 0, 74, 0
2, 103200, Note_on_c, 0, 76, 90
2, 103259, Note_on_c, 0, 76, 0
2, 103260, Note_on_c, 0, 69, 90
2, 103349, Note_on_c, 0, 69, 0
2, 103350, Note_on_c, 0, 79, 90
2, 103379, Note_on_c, 0, 79, 0
2, 103380, Note_on_c, 0, 78, 90
2, 103409, Note_on_c, 0, 78, 0
2, 103410, Note_on_c, 0, 76, 90
2, 103439, Note_on_c, 0, 76, 0
2, 103440, Note_on_c, 0, 74, 90
2, 103469, Note_on_c, 0, 74, 0
2, 103470, Note_on_c, 0, 76, 90
2, 103499, Note_on_c, 0, 76, 0
2, 103500, Note_on_c, 0, 78, 90
2, 103529, Note_on_c, 0, 78, 0
2, 103530, Note_on_c, 0, 76, 90
2, 103559, Note_on_c, 0, 76, 0
2, 103560, Note_on_c, 0, 78, 90
2, 103619, Note_on_c, 0, 78, 0
2, 103620, Note_on_c, 0, 69, 90
2, 103709, Note_on_c, 0, 69, 0
2, 103710, Note_on_c, 0, 81, 90
2, 103739, Note_on_c, 0, 81, 0
2, 103740, Note_on_c, 0, 79, 90
2, 103769, Note_on_c, 0, 79, 0
2, 103770, Note_on_c, 0, 78, 90
2, 103799, Note_on_c, 0, 78, 0
2, 103800, Note_on_c, 0, 76, 90
2, 103829, Note_on_c, 0, 76, 0
2, 103830, Note_on_c, 0, 74, 90
2, 103859, Note_on_c, 0, 74, 0
2, 103860, Note_on_c, 0, 73, 90
2, 103949, Note_on_c, 0, 73, 0
2, 103950, Note_on_c, 0, 74, 90
2, 103979, Note_on_c, 0, 74, 0
2, 103980, Note_on_c, 0, 76, 90
2, 104039, Note_on_c, 0, 76, 0
2, 104040, Note_on_c, 0, 69, 90
2, 104159, Note_on_c, 0, 69, 0
2, 104160, Note_on_c, 0, 73, 90
2, 104219, Note_on_c, 0, 73, 0
2, 104220, Note_on_c, 0, 74, 90
2, 104279, Note_on_c, 0, 74, 0
2, 104280, Note_on_c, 0, 78, 90
2, 104339, Note_on_c, 0, 78, 0
2, 104340, Note_on_c, 0, 81, 90
2, 104399, Note_on_c, 0, 81, 0
2, 104400, Note_on_c, 0, 74, 90
2, 104459, Note_on_c, 0, 74, 0
2, 104460, Note_on_c, 0, 78, 90
2, 104519, Note_on_c, 0, 78, 0
2, 104520, Note_on_c, 0, 83, 90
2, 104579, Note_on_c, 0, 83, 0
2, 104580, Note_on_c, 0, 73, 90
2, 104639, Note_on_c, 0, 73, 0
2, 104640, Note_on_c, 0, 76, 90
2, 104699, Note_on_c, 0, 76, 0
2, 104700, Note_on_c, 0, 83, 90
2, 104759, Note_on_c, 0, 83, 0
2, 104760, Note_on_c, 0, 73, 90
2, 104819, Note_on_c, 0, 73, 0
2, 104820, Note_on_c, 0, 76, 90
2, 104879, Note_on_c, 0, 76, 0
2, 104880, Note_on_c, 0, 81, 90
2, 104939, Note_on_c, 0, 81, 0
2, 104940, Note_on_c, 0, 71, 90
2, 104999, Note_on_c, 0, 71, 0
2, 105000, Note_on_c, 0, 74, 90
2, 105059, Note_on_c, 0, 74, 0
2, 105060, Note_on_c, 0, 81, 90
2, 105119, Note_on_c, 0, 81, 0
2, 105120, Note_on_c, 0, 71, 90
2, 105179, Note_on_c, 0, 71, 0
2, 105180, Note_on_c, 0, 74, 90
2, 105239, Note_on_c, 0, 74, 0
2, 105240, Note_on_c, 0, 80, 90
2, 105299, Note_on_c, 0, 80, 0
2, 105300, Note_on_c, 0, 69, 90
2, 105419, Note_on_c, 0, 69, 0
2, 105600, Note_on_c, 0, 64, 90
2, 105659, Note_on_c, 0, 64, 0
2, 105660, Note_on_c, 0, 69, 90
2, 105689, Note_on_c, 0, 69, 0
2, 105690, Note_on_c, 0, 68, 90
2, 105719, Note_on_c, 0, 68, 0
2, 105720, Note_on_c, 0, 69, 90
2, 105779, Note_on_c, 0, 69, 0
2, 105780, Note_on_c, 0, 64, 90
2, 105869, Note_on_c, 0, 64, 0
2, 105870, Note_on_c, 0, 73, 90
2, 105899, Note_on_c, 0, 73, 0
2, 105900, Note_on_c, 0, 71, 90
2, 105929, Note_on_c, 0, 71, 0
2, 105930, Note_on_c, 0, 69, 90
2, 105959, Note_on_c, 0, 69, 0
2, 105960, Note_on_c, 0, 68, 90
2, 105989, Note_on_c, 0, 68, 0
2, 105990, Note_on_c, 0, 69, 90
2, 106019, Note_on_c, 0, 69, 0
2, 106020, Note_on_c, 0, 71, 90
2, 106049, Note_on_c, 0, 71, 0
2, 106050, Note_on_c, 0, 69, 90
2, 106079, Note_on_c, 0, 69, 0
2, 106080, Note_on_c, 0, 71, 90
2, 106140, Note_on_c, 0, 71, 0
2, 106140, Note_on_c, 0, 64, 90
2, 106229, Note_on_c, 0, 64, 0
2, 106230, Note_on_c, 0, 74, 90
2, 106259, Note_on_c, 0, 74, 0
2, 106260, Note_on_c, 0, 73, 90
2, 106289, Note_on_c, 0, 73, 0
2, 106290, Note_on_c, 0, 71, 90
2, 106319, Note_on_c, 0, 71, 0
2, 106320, Note_on_c, 0, 69, 90
2, 106349, Note_on_c, 0, 69, 0
2, 106350, Note_on_c, 0, 71, 90
2, 106379, Note_on_c, 0, 71, 0
2, 106380, Note_on_c, 0, 73, 90
2, 106409, Note_on_c, 0, 73, 0
2, 106410, Note_on_c, 0, 71, 90
2, 106439, Note_on_c, 0, 71, 0
2, 106440, Note_on_c, 0, 73, 90
2, 106500, Note_on_c, 0, 73, 0
2, 106500, Note_on_c, 0, 64, 90
2, 106589, Note_on_c, 0, 64, 0
2, 106590, Note_on_c, 0, 76, 90
2, 106619, Note_on_c, 0, 76, 0
2, 106620, Note_on_c, 0, 74, 90
2, 106649, Note_on_c, 0, 74, 0
2, 106650, Note_on_c, 0, 73, 90
2, 106679, Note_on_c, 0, 73, 0
2, 106680, Note_on_c, 0, 71, 90
2, 106709, Note_on_c, 0, 71, 0
2, 106710, Note_on_c, 0, 69, 90
2, 106739, Note_on_c, 0, 69, 0
2, 106740, Note_on_c, 0, 81, 90
2, 106799, Note_on_c, 0, 81, 0
2, 106800, Note_on_c, 0, 83, 90
2, 106859, Note_on_c, 0, 83, 0
2, 106860, Note_on_c, 0, 80, 90
2, 106919, Note_on_c, 0, 80, 0
2, 106920, Note_on_c, 0, 81, 90
2, 107039, Note_on_c, 0, 81, 0
2, 107040, Note_on_c, 0, 81, 90
2, 107099, Note_on_c, 0, 81, 0
2, 107100, Note_on_c, 0, 74, 90
2, 107129, Note_on_c, 0, 74, 0
2, 107130, Note_on_c, 0, 73, 90
2, 107159, Note_on_c, 0, 73, 0
2, 107160, Note_on_c, 0, 74, 90
2, 107189, Note_on_c, 0, 74, 0
2, 107190, Note_on_c, 0, 83, 90
2, 107219, Note_on_c, 0, 83, 0
2, 107220, Note_on_c, 0, 81, 90
2, 107249, Note_on_c, 0, 81, 0
2, 107250, Note_on_c, 0, 83, 90
2, 107279, Note_on_c, 0, 83, 0
2, 107280, Note_on_c, 0, 74, 90
2, 107309, Note_on_c, 0, 74, 0
2, 107310, Note_on_c, 0, 73, 90
2, 107339, Note_on_c, 0, 73, 0
2, 107340, Note_on_c, 0, 74, 90
2, 107369, Note_on_c, 0, 74, 0
2, 107370, Note_on_c, 0, 83, 90
2, 107399, Note_on_c, 0, 83, 0
2, 107400, Note_on_c, 0, 81, 90
2, 107429, Note_on_c, 0, 81, 0
2, 107430, Note_on_c, 0, 83, 90
2, 107459, Note_on_c, 0, 83, 0
2, 107460, Note_on_c, 0, 73, 90
2, 107489, Note_on_c, 0, 73, 0
2, 107490, Note_on_c, 0, 71, 90
2, 107519, Note_on_c, 0, 71, 0
2, 107520, Note_on_c, 0, 73, 90
2, 107549, Note_on_c, 0, 73, 0
2, 107550, Note_on_c, 0, 81, 90
2, 107579, Note_on_c, 0, 81, 0
2, 107580, Note_on_c, 0, 80, 90
2, 107609, Note_on_c, 0, 80, 0
2, 107610, Note_on_c, 0, 81, 90
2, 107639, Note_on_c, 0, 81, 0
2, 107640, Note_on_c, 0, 73, 90
2, 107669, Note_on_c, 0, 73, 0
2, 107670, Note_on_c, 0, 71, 90
2, 107699, Note_on_c, 0, 71, 0
2, 107700, Note_on_c, 0, 73, 90
2, 107729, Note_on_c, 0, 73, 0
2, 107730, Note_on_c, 0, 81, 90
2, 107759, Note_on_c, 0, 81, 0
2, 107760, Note_on_c, 0, 80, 90
2, 107789, Note_on_c, 0, 80, 0
2, 107790, Note_on_c, 0, 81, 90
2, 107819, Note_on_c, 0, 81, 0
2, 107820, Note_on_c, 0, 71, 90
2, 108030, Note_on_c, 0, 71, 0
2, 108030, Note_on_c, 0, 69, 90
2, 108059, Note_on_c, 0, 69, 0
2, 108060, Note_on_c, 0, 71, 90
2, 108089, Note_on_c, 0, 71, 0
2, 108090, Note_on_c, 0, 81, 90
2, 108119, Note_on_c, 0, 81, 0
2, 108120, Note_on_c, 0, 80, 90
2, 108149, Note_on_c, 0, 80, 0
2, 108150, Note_on_c, 0, 81, 90
2, 108179, Note_on_c, 0, 81, 0
2, 108180, Note_on_c, 0, 71, 90
2, 108390, Note_on_c, 0, 71, 0
2, 108390, Note_on_c, 0, 69, 90
2, 108419, Note_on_c, 0, 69, 0
2, 108420, Note_on_c, 0, 71, 90
2, 108449, Note_on_c, 0, 71, 0
2, 108450, Note_on_c, 0, 74, 90
2, 108479, Note_on_c, 0, 74, 0
2, 108480, Note_on_c, 0, 73, 90
2, 108509, Note_on_c, 0, 73, 0
2, 108510, Note_on_c, 0, 74, 90
2, 108539, Note_on_c, 0, 74, 0
2, 108540, Note_on_c, 0, 80, 90
2, 108569, Note_on_c, 0, 80, 0
2, 108570, Note_on_c, 0, 78, 90
2, 108599, Note_on_c, 0, 78, 0
2, 108600, Note_on_c, 0, 80, 90
2, 108629, Note_on_c, 0, 80, 0
2, 108630, Note_on_c, 0, 83, 90
2, 108659, Note_on_c, 0, 83, 0
2, 108660, Note_on_c, 0, 81, 90
2, 108689, Note_on_c, 0, 81, 0
2, 108690, Note_on_c, 0, 83, 90
2, 108719, Note_on_c, 0, 83, 0
2, 108720, Note_on_c, 0, 74, 90
2, 108749, Note_on_c, 0, 74, 0
2, 108750, Note_on_c, 0, 73, 90
2, 108779, Note_on_c, 0, 73, 0
2, 108780, Note_on_c, 0, 74, 90
2, 108809, Note_on_c, 0, 74, 0
2, 108810, Note_on_c, 0, 78, 90
2, 108839, Note_on_c, 0, 78, 0
2, 108840, Note_on_c, 0, 76, 90
2, 108869, Note_on_c, 0, 76, 0
2, 108870, Note_on_c, 0, 74, 90
2, 108899, Note_on_c, 0, 74, 0
2, 108900, Note_on_c, 0, 73, 90
2, 108959, Note_on_c, 0, 73, 0
2, 108960, Note_on_c, 0, 74, 90
2, 108989, Note_on_c, 0, 74, 0
2, 108990, Note_on_c, 0, 73, 90
2, 109019, Note_on_c, 0, 73, 0
2, 109020, Note_on_c, 0, 71, 90
2, 109049, Note_on_c, 0, 71, 0
2, 109050, Note_on_c, 0, 69, 90
2, 109079, Note_on_c, 0, 69, 0
2, 109080, Note_on_c, 0, 76, 90
2, 109139, Note_on_c, 0, 76, 0
2, 109140, Note_on_c, 0, 64, 90
2, 109199, Note_on_c, 0, 64, 0
2, 109200, Note_on_c, 0, 68, 90
2, 109259, Note_on_c, 0, 68, 0
2, 109260, Note_on_c, 0, 69, 90
2, 109560, Note_on_c, 0, 69, 0
2, 109740, Note_on_c, 0, 73, 90
2, 109800, Note_on_c, 0, 73, 0
2, 109800, Note_on_c, 0, 69, 90
2, 109860, Note_on_c, 0, 69, 0
2, 109860, Note_on_c, 0, 74, 90
2, 109890, Note_on_c, 0, 74, 0
2, 109890, Note_on_c, 0, 73, 90
2, 109920, Note_on_c, 0, 73, 0
2, 109920, Note_on_c, 0, 74, 90
2, 109980, Note_on_c, 0, 74, 0
2, 110100, Note_on_c, 0, 66, 90
2, 110160, Note_on_c, 0, 66, 0
2, 110160, Note_on_c, 0, 62, 90
2, 110220, Note_on_c, 0, 62, 0
2, 110220, Note_on_c, 0, 67, 90
2, 110249, Note_on_c, 0, 67, 0
2, 110250, Note_on_c, 0, 66, 90
2, 110279, Note_on_c, 0, 66, 0
2, 110280, Note_on_c, 0, 67, 90
2, 110340, Note_on_c, 0, 67, 0
2, 110460, Note_on_c, 0, 75, 90
2, 110520, Note_on_c, 0, 75, 0
2, 110520, Note_on_c, 0, 71, 90
2, 110580, Note_on_c, 0, 71, 0
2, 110580, Note_on_c, 0, 76, 90
2, 110609, Note_on_c, 0, 76, 0
2, 110610, Note_on_c, 0, 75, 90
2, 110639, Note_on_c, 0, 75, 0
2, 110640, Note_on_c, 0, 76, 90
2, 110700, Note_on_c, 0, 76, 0
2, 110820, Note_on_c, 0, 68, 90
2, 110880, Note_on_c, 0, 68, 0
2, 110880, Note_on_c, 0, 64, 90
2, 110940, Note_on_c, 0, 64, 0
2, 110940, Note_on_c, 0, 69, 90
2, 110970, Note_on_c, 0, 69, 0
2, 110970, Note_on_c, 0, 68, 90
2, 111000, Note_on_c, 0, 68, 0
2, 111000, Note_on_c, 0, 69, 90
2, 111060, Note_on_c, 0, 69, 0
2, 111060, Note_on_c, 0, 74, 90
2, 111089, Note_on_c, 0, 74, 0
2, 111090, Note_on_c, 0, 73, 90
2, 111119, Note_on_c, 0, 73, 0
2, 111120, Note_on_c, 0, 74, 90
2, 111179, Note_on_c, 0, 74, 0
2, 111180, Note_on_c, 0, 69, 90
2, 111269, Note_on_c, 0, 69, 0
2, 111270, Note_on_c, 0, 78, 90
2, 111299, Note_on_c, 0, 78, 0
2, 111300, Note_on_c, 0, 76, 90
2, 111329, Note_on_c, 0, 76, 0
2, 111330, Note_on_c, 0, 74, 90
2, 111359, Note_on_c, 0, 74, 0
2, 111360, Note_on_c, 0, 73, 90
2, 111389, Note_on_c, 0, 73, 0
2, 111390, Note_on_c, 0, 74, 90
2, 111419, Note_on_c, 0, 74, 0
2, 111420, Note_on_c, 0, 76, 90
2, 111449, Note_on_c, 0, 76, 0
2, 111450, Note_on_c, 0, 74, 90
2, 111479, Note_on_c, 0, 74, 0
2, 111480, Note_on_c, 0, 76, 90
2, 111539, Note_on_c, 0, 76, 0
2, 111540, Note_on_c, 0, 69, 90
2, 111629, Note_on_c, 0, 69, 0
2, 111630, Note_on_c, 0, 79, 90
2, 111659, Note_on_c, 0, 79, 0
2, 111660, Note_on_c, 0, 78, 90
2, 111689, Note_on_c, 0, 78, 0
2, 111690, Note_on_c, 0, 76, 90
2, 111719, Note_on_c, 0, 76, 0
2, 111720, Note_on_c, 0, 74, 90
2, 111749, Note_on_c, 0, 74, 0
2, 111750, Note_on_c, 0, 76, 90
2, 111779, Note_on_c, 0, 76, 0
2, 111780, Note_on_c, 0, 78, 90
2, 111809, Note_on_c, 0, 78, 0
2, 111810, Note_on_c, 0, 76, 90
2, 111839, Note_on_c, 0, 76, 0
2, 111840, Note_on_c, 0, 78, 90
2, 111899, Note_on_c, 0, 78, 0
2, 111900, Note_on_c, 0, 69, 90
2, 111989, Note_on_c, 0, 69, 0
2, 111990, Note_on_c, 0, 81, 90
2, 112019, Note_on_c, 0, 81, 0
2, 112020, Note_on_c, 0, 79, 90
2, 112049, Note_on_c, 0, 79, 0
2, 112050, Note_on_c, 0, 78, 90
2, 112079, Note_on_c, 0, 78, 0
2, 112080, Note_on_c, 0, 76, 90
2, 112109, Note_on_c, 0, 76, 0
2, 112110, Note_on_c, 0, 78, 90
2, 112139, Note_on_c, 0, 78, 0
2, 112140, Note_on_c, 0, 74, 90
2, 112200, Note_on_c, 0, 74, 0
2, 112200, Note_on_c, 0, 69, 90
2, 112229, Note_on_c, 0, 69, 0
2, 112230, Note_on_c, 0, 67, 90
2, 112259, Note_on_c, 0, 67, 0
2, 112260, Note_on_c, 0, 66, 90
2, 112289, Note_on_c, 0, 66, 0
2, 112290, Note_on_c, 0, 64, 90
2, 112319, Note_on_c, 0, 64, 0
2, 112320, Note_on_c, 0, 66, 90
2, 112439, Note_on_c, 0, 66, 0
2, 112440, Note_on_c, 0, 69, 100
2, 112500, Note_on_c, 0, 69, 0
2, 112500, Note_on_c, 0, 74, 90
2, 112529, Note_on_c, 0, 74, 0
2, 112530, Note_on_c, 0, 73, 90
2, 112559, Note_on_c, 0, 73, 0
2, 112560, Note_on_c, 0, 74, 90
2, 112619, Note_on_c, 0, 74, 0
2, 112620, Note_on_c, 0, 69, 90
2, 112710, Note_on_c, 0, 69, 0
2, 112710, Note_on_c, 0, 78, 90
2, 112739, Note_on_c, 0, 78, 0
2, 112740, Note_on_c, 0, 76, 90
2, 112769, Note_on_c, 0, 76, 0
2, 112770, Note_on_c, 0, 74, 90
2, 112799, Note_on_c, 0, 74, 0
2, 112800, Note_on_c, 0, 73, 90
2, 112829, Note_on_c, 0, 73, 0
2, 112830, Note_on_c, 0, 74, 90
2, 112859, Note_on_c, 0, 74, 0
2, 112860, Note_on_c, 0, 76, 90
2, 112889, Note_on_c, 0, 76, 0
2, 112890, Note_on_c, 0, 74, 90
2, 112919, Note_on_c, 0, 74, 0
2, 112920, Note_on_c, 0, 76, 90
2, 112979, Note_on_c, 0, 76, 0
2, 112980, Note_on_c, 0, 69, 90
2, 113069, Note_on_c, 0, 69, 0
2, 113070, Note_on_c, 0, 79, 90
2, 113099, Note_on_c, 0, 79, 0
2, 113100, Note_on_c, 0, 78, 90
2, 113129, Note_on_c, 0, 78, 0
2, 113130, Note_on_c, 0, 76, 90
2, 113159, Note_on_c, 0, 76, 0
2, 113160, Note_on_c, 0, 74, 90
2, 113189, Note_on_c, 0, 74, 0
2, 113190, Note_on_c, 0, 76, 90
2, 113219, Note_on_c, 0, 76, 0
2, 113220, Note_on_c, 0, 78, 90
2, 113249, Note_on_c, 0, 78, 0
2, 113250, Note_on_c, 0, 76, 90
2, 113279, Note_on_c, 0, 76, 0
2, 113280, Note_on_c, 0, 78, 90
2, 113339, Note_on_c, 0, 78, 0
2, 113340, Note_on_c, 0, 69, 90
2, 113429, Note_on_c, 0, 69, 0
2, 113430, Note_on_c, 0, 81, 90
2, 113459, Note_on_c, 0, 81, 0
2, 113460, Note_on_c, 0, 79, 90
2, 113489, Note_on_c, 0, 79, 0
2, 113490, Note_on_c, 0, 78, 90
2, 113519, Note_on_c, 0, 78, 0
2, 113520, Note_on_c, 0, 76, 90
2, 113549, Note_on_c, 0, 76, 0
2, 113550, Note_on_c, 0, 74, 90
2, 113579, Note_on_c, 0, 74, 0
2, 113580, Note_on_c, 0, 73, 90
2, 113669, Note_on_c, 0, 73, 0
2, 113670, Note_on_c, 0, 74, 90
2, 113699, Note_on_c, 0, 74, 0
2, 113700, Note_on_c, 0, 76, 90
2, 113759, Note_on_c, 0, 76, 0
2, 113760, Note_on_c, 0, 69, 90
2, 113879, Note_on_c, 0, 69, 0
2, 113880, Note_on_c, 0, 76, 90
2, 113939, Note_on_c, 0, 76, 0
2, 113940, Note_on_c, 0, 67, 90
2, 113969, Note_on_c, 0, 67, 0
2, 113970, Note_on_c, 0, 66, 90
2, 113999, Note_on_c, 0, 66, 0
2, 114000, Note_on_c, 0, 67, 90
2, 114029, Note_on_c, 0, 67, 0
2, 114030, Note_on_c, 0, 76, 90
2, 114059, Note_on_c, 0, 76, 0
2, 114060, Note_on_c, 0, 74, 90
2, 114089, Note_on_c, 0, 74, 0
2, 114090, Note_on_c, 0, 76, 90
2, 114119, Note_on_c, 0, 76, 0
2, 114120, Note_on_c, 0, 67, 90
2, 114149, Note_on_c, 0, 67, 0
2, 114150, Note_on_c, 0, 66, 90
2, 114179, Note_on_c, 0, 66, 0
2, 114180, Note_on_c, 0, 67, 90
2, 114209, Note_on_c, 0, 67, 0
2, 114210, Note_on_c, 0, 76, 90
2, 114239, Note_on_c, 0, 76, 0
2, 114240, Note_on_c, 0, 74, 90
2, 114269, Note_on_c, 0, 74, 0
2, 114270, Note_on_c, 0, 76, 90
2, 114299, Note_on_c, 0, 76, 0
2, 114300, Note_on_c, 0, 66, 90
2, 114329, Note_on_c, 0, 66, 0
2, 114330, Note_on_c, 0, 64, 90
2, 114359, Note_on_c, 0, 64, 0
2, 114360, Note_on_c, 0, 66, 90
2, 114389, Note_on_c, 0, 66, 0
2, 114390, Note_on_c, 0, 74, 90
2, 114419, Note_on_c, 0, 74, 0
2, 114420, Note_on_c, 0, 73, 90
2, 114449, Note_on_c, 0, 73, 0
2, 114450, Note_on_c, 0, 74, 90
2, 114479, Note_on_c, 0, 74, 0
2, 114480, Note_on_c, 0, 66, 90
2, 114509, Note_on_c, 0, 66, 0
2, 114510, Note_on_c, 0, 64, 90
2, 114539, Note_on_c, 0, 64, 0
2, 114540, Note_on_c, 0, 66, 90
2, 114569, Note_on_c, 0, 66, 0
2, 114570, Note_on_c, 0, 74, 90
2, 114599, Note_on_c, 0, 74, 0
2, 114600, Note_on_c, 0, 73, 90
2, 114629, Note_on_c, 0, 73, 0
2, 114630, Note_on_c, 0, 74, 90
2, 114659, Note_on_c, 0, 74, 0
2, 114660, Note_on_c, 0, 64, 90
2, 114869, Note_on_c, 0, 64, 0
2, 114870, Note_on_c, 0, 62, 90
2, 114899, Note_on_c, 0, 62, 0
2, 114900, Note_on_c, 0, 64, 90
2, 114929, Note_on_c, 0, 64, 0
2, 114930, Note_on_c, 0, 74, 90
2, 114959, Note_on_c, 0, 74, 0
2, 114960, Note_on_c, 0, 73, 90
2, 114989, Note_on_c, 0, 73, 0
2, 114990, Note_on_c, 0, 74, 90
2, 115019, Note_on_c, 0, 74, 0
2, 115020, Note_on_c, 0, 64, 90
2, 115229, Note_on_c, 0, 64, 0
2, 115230, Note_on_c, 0, 62, 90
2, 115259, Note_on_c, 0, 62, 0
2, 115260, Note_on_c, 0, 64, 90
2, 115289, Note_on_c, 0, 64, 0
2, 115290, Note_on_c, 0, 67, 90
2, 115319, Note_on_c, 0, 67, 0
2, 115320, Note_on_c, 0, 66, 90
2, 115349, Note_on_c, 0, 66, 0
2, 115350, Note_on_c, 0, 67, 90
2, 115379, Note_on_c, 0, 67, 0
2, 115380, Note_on_c, 0, 73, 90
2, 115409, Note_on_c, 0, 73, 0
2, 115410, Note_on_c, 0, 71, 90
2, 115439, Note_on_c, 0, 71, 0
2, 115440, Note_on_c, 0, 73, 90
2, 115469, Note_on_c, 0, 73, 0
2, 115470, Note_on_c, 0, 76, 90
2, 115499, Note_on_c, 0, 76, 0
2, 115500, Note_on_c, 0, 74, 90
2, 115529, Note_on_c, 0, 74, 0
2, 115530, Note_on_c, 0, 76, 90
2, 115559, Note_on_c, 0, 76, 0
2, 115560, Note_on_c, 0, 79, 90
2, 115589, Note_on_c, 0, 79, 0
2, 115590, Note_on_c, 0, 78, 90
2, 115619, Note_on_c, 0, 78, 0
2, 115620, Note_on_c, 0, 79, 90
2, 115649, Note_on_c, 0, 79, 0
2, 115650, Note_on_c, 0, 83, 90
2, 115679, Note_on_c, 0, 83, 0
2, 115680, Note_on_c, 0, 81, 90
2, 115709, Note_on_c, 0, 81, 0
2, 115710, Note_on_c, 0, 79, 90
2, 115739, Note_on_c, 0, 79, 0
2, 115740, Note_on_c, 0, 78, 90
2, 115799, Note_on_c, 0, 78, 0
2, 115800, Note_on_c, 0, 79, 90
2, 115829, Note_on_c, 0, 79, 0
2, 115830, Note_on_c, 0, 78, 90
2, 115859, Note_on_c, 0, 78, 0
2, 115860, Note_on_c, 0, 76, 90
2, 115889, Note_on_c, 0, 76, 0
2, 115890, Note_on_c, 0, 74, 90
2, 115919, Note_on_c, 0, 74, 0
2, 115920, Note_on_c, 0, 81, 90
2, 115979, Note_on_c, 0, 81, 0
2, 115980, Note_on_c, 0, 69, 90
2, 116039, Note_on_c, 0, 69, 0
2, 116040, Note_on_c, 0, 73, 90
2, 116099, Note_on_c, 0, 73, 0
2, 116100, Note_on_c, 0, 74, 90
2, 116399, Note_on_c, 0, 74, 0
2, 117840, Note_on_c, 0, 73, 90
2, 117899, Note_on_c, 0, 73, 0
2, 117900, Note_on_c, 0, 78, 90
2, 117929, Note_on_c, 0, 78, 0
2, 117930, Note_on_c, 0, 77, 90
2, 117959, Note_on_c, 0, 77, 0
2, 117960, Note_on_c, 0, 78, 90
2, 118019, Note_on_c, 0, 78, 0
2, 118020, Note_on_c, 0, 73, 90
2, 118109, Note_on_c, 0, 73, 0
2, 118110, Note_on_c, 0, 81, 90
2, 118139, Note_on_c, 0, 81, 0
2, 118140, Note_on_c, 0, 80, 90
2, 118169, Note_on_c, 0, 80, 0
2, 118170, Note_on_c, 0, 78, 90
2, 118199, Note_on_c, 0, 78, 0
2, 118200, Note_on_c, 0, 77, 90
2, 118229, Note_on_c, 0, 77, 0
2, 118230, Note_on_c, 0, 78, 90
2, 118259, Note_on_c, 0, 78, 0
2, 118260, Note_on_c, 0, 80, 90
2, 118289, Note_on_c, 0, 80, 0
2, 118290, Note_on_c, 0, 78, 90
2, 118319, Note_on_c, 0, 78, 0
2, 118320, Note_on_c, 0, 80, 90
2, 118379, Note_on_c, 0, 80, 0
2, 118380, Note_on_c, 0, 73, 90
2, 118469, Note_on_c, 0, 73, 0
2, 118470, Note_on_c, 0, 83, 90
2, 118499, Note_on_c, 0, 83, 0
2, 118500, Note_on_c, 0, 81, 90
2, 118529, Note_on_c, 0, 81, 0
2, 118530, Note_on_c, 0, 80, 90
2, 118559, Note_on_c, 0, 80, 0
2, 118560, Note_on_c, 0, 78, 90
2, 118589, Note_on_c, 0, 78, 0
2, 118590, Note_on_c, 0, 80, 90
2, 118619, Note_on_c, 0, 80, 0
2, 118620, Note_on_c, 0, 81, 90
2, 118649, Note_on_c, 0, 81, 0
2, 118650, Note_on_c, 0, 80, 90
2, 118679, Note_on_c, 0, 80, 0
2, 118680, Note_on_c, 0, 81, 90
2, 118709, Note_on_c, 0, 81, 0
2, 118710, Note_on_c, 0, 73, 90
2, 118739, Note_on_c, 0, 73, 0
2, 118740, Note_on_c, 0, 78, 90
2, 118769, Note_on_c, 0, 78, 0
2, 118770, Note_on_c, 0, 76, 90
2, 118799, Note_on_c, 0, 76, 0
2, 118800, Note_on_c, 0, 74, 90
2, 118829, Note_on_c, 0, 74, 0
2, 118830, Note_on_c, 0, 73, 90
2, 118859, Note_on_c, 0, 73, 0
2, 118860, Note_on_c, 0, 71, 90
2, 118889, Note_on_c, 0, 71, 0
2, 118890, Note_on_c, 0, 69, 90
2, 118919, Note_on_c, 0, 69, 0
2, 118920, Note_on_c, 0, 68, 90
2, 118949, Note_on_c, 0, 68, 0
2, 118950, Note_on_c, 0, 65, 90
2, 118979, Note_on_c, 0, 65, 0
2, 118980, Note_on_c, 0, 66, 90
2, 119009, Note_on_c, 0, 66, 0
2, 119010, Note_on_c, 0, 68, 90
2, 119039, Note_on_c, 0, 68, 0
2, 119040, Note_on_c, 0, 65, 90
2, 119129, Note_on_c, 0, 65, 0
2, 119130, Note_on_c, 0, 66, 90
2, 119159, Note_on_c, 0, 66, 0
2, 119160, Note_on_c, 0, 66, 90
2, 119279, Note_on_c, 0, 66, 0
2, 119280, Note_on_c, 0, 81, 90
2, 119339, Note_on_c, 0, 81, 0
2, 119340, Note_on_c, 0, 71, 90
2, 119369, Note_on_c, 0, 71, 0
2, 119370, Note_on_c, 0, 69, 90
2, 119399, Note_on_c, 0, 69, 0
2, 119400, Note_on_c, 0, 71, 90
2, 119429, Note_on_c, 0, 71, 0
2, 119430, Note_on_c, 0, 80, 90
2, 119459, Note_on_c, 0, 80, 0
2, 119460, Note_on_c, 0, 78, 90
2, 119489, Note_on_c, 0, 78, 0
2, 119490, Note_on_c, 0, 80, 90
2, 119519, Note_on_c, 0, 80, 0
2, 119520, Note_on_c, 0, 71, 90
2, 119549, Note_on_c, 0, 71, 0
2, 119550, Note_on_c, 0, 69, 90
2, 119579, Note_on_c, 0, 69, 0
2, 119580, Note_on_c, 0, 71, 90
2, 119609, Note_on_c, 0, 71, 0
2, 119610, Note_on_c, 0, 80, 90
2, 119639, Note_on_c, 0, 80, 0
2, 119640, Note_on_c, 0, 78, 90
2, 119669, Note_on_c, 0, 78, 0
2, 119670, Note_on_c, 0, 80, 90
2, 119699, Note_on_c, 0, 80, 0
2, 119700, Note_on_c, 0, 69, 90
2, 119729, Note_on_c, 0, 69, 0
2, 119730, Note_on_c, 0, 68, 90
2, 119759, Note_on_c, 0, 68, 0
2, 119760, Note_on_c, 0, 69, 90
2, 119789, Note_on_c, 0, 69, 0
2, 119790, Note_on_c, 0, 78, 90
2, 119819, Note_on_c, 0, 78, 0
2, 119820, Note_on_c, 0, 77, 90
2, 119849, Note_on_c, 0, 77, 0
2, 119850, Note_on_c, 0, 78, 90
2, 119879, Note_on_c, 0, 78, 0
2, 119880, Note_on_c, 0, 69, 90
2, 119909, Note_on_c, 0, 69, 0
2, 119910, Note_on_c, 0, 68, 90
2, 119939, Note_on_c, 0, 68, 0
2, 119940, Note_on_c, 0, 69, 90
2, 119969, Note_on_c, 0, 69, 0
2, 119970, Note_on_c, 0, 78, 90
2, 119999, Note_on_c, 0, 78, 0
2, 120000, Note_on_c, 0, 77, 90
2, 120029, Note_on_c, 0, 77, 0
2, 120030, Note_on_c, 0, 78, 90
2, 120059, Note_on_c, 0, 78, 0
2, 120060, Note_on_c, 0, 68, 90
2, 120270, Note_on_c, 0, 68, 0
2, 120270, Note_on_c, 0, 66, 90
2, 120299, Note_on_c, 0, 66, 0
2, 120300, Note_on_c, 0, 68, 90
2, 120329, Note_on_c, 0, 68, 0
2, 120330, Note_on_c, 0, 78, 90
2, 120359, Note_on_c, 0, 78, 0
2, 120360, Note_on_c, 0, 77, 90
2, 120389, Note_on_c, 0, 77, 0
2, 120390, Note_on_c, 0, 78, 90
2, 120419, Note_on_c, 0, 78, 0
2, 120420, Note_on_c, 0, 68, 90
2, 120630, Note_on_c, 0, 68, 0
2, 120630, Note_on_c, 0, 66, 90
2, 120659, Note_on_c, 0, 66, 0
2, 120660, Note_on_c, 0, 68, 90
2, 120689, Note_on_c, 0, 68, 0
2, 120690, Note_on_c, 0, 71, 90
2, 120719, Note_on_c, 0, 71, 0
2, 120720, Note_on_c, 0, 69, 90
2, 120749, Note_on_c, 0, 69, 0
2, 120750, Note_on_c, 0, 71, 90
2, 120779, Note_on_c, 0, 71, 0
2, 120780, Note_on_c, 0, 77, 90
2, 120809, Note_on_c, 0, 77, 0
2, 120810, Note_on_c, 0, 75, 90
2, 120839, Note_on_c, 0, 75, 0
2, 120840, Note_on_c, 0, 77, 90
2, 120869, Note_on_c, 0, 77, 0
2, 120870, Note_on_c, 0, 80, 90
2, 120899, Note_on_c, 0, 80, 0
2, 120900, Note_on_c, 0, 78, 90
2, 120929, Note_on_c, 0, 78, 0
2, 120930, Note_on_c, 0, 80, 90
2, 120959, Note_on_c, 0, 80, 0
2, 120960, Note_on_c, 0, 83, 90
2, 120989, Note_on_c, 0, 83, 0
2, 120990, Note_on_c, 0, 81, 90
2, 121019, Note_on_c, 0, 81, 0
2, 121020, Note_on_c, 0, 83, 90
2, 121049, Note_on_c, 0, 83, 0
2, 121050, Note_on_c, 0, 80, 90
2, 121079, Note_on_c, 0, 80, 0
2, 121080, Note_on_c, 0, 77, 90
2, 121109, Note_on_c, 0, 77, 0
2, 121110, Note_on_c, 0, 73, 90
2, 121139, Note_on_c, 0, 73, 0
2, 121140, Note_on_c, 0, 81, 90
2, 121169, Note_on_c, 0, 81, 0
2, 121170, Note_on_c, 0, 83, 90
2, 121199, Note_on_c, 0, 83, 0
2, 121200, Note_on_c, 0, 81, 90
2, 121229, Note_on_c, 0, 81, 0
2, 121230, Note_on_c, 0, 80, 90
2, 121259, Note_on_c, 0, 80, 0
2, 121260, Note_on_c, 0, 78, 90
2, 121289, Note_on_c, 0, 78, 0
2, 121290, Note_on_c, 0, 80, 90
2, 121319, Note_on_c, 0, 80, 0
2, 121320, Note_on_c, 0, 73, 90
2, 121379, Note_on_c, 0, 73, 0
2, 121380, Note_on_c, 0, 78, 90
2, 121439, Note_on_c, 0, 78, 0
2, 121440, Note_on_c, 0, 77, 90
2, 121499, Note_on_c, 0, 77, 0
2, 121500, Note_on_c, 0, 78, 90
2, 121739, Note_on_c, 0, 78, 0
2, 121980, Note_on_c, 0, 77, 90
2, 122039, Note_on_c, 0, 77, 0
2, 122040, Note_on_c, 0, 73, 90
2, 122099, Note_on_c, 0, 73, 0
2, 122100, Note_on_c, 0, 78, 90
2, 122129, Note_on_c, 0, 78, 0
2, 122130, Note_on_c, 0, 77, 90
2, 122159, Note_on_c, 0, 77, 0
2, 122160, Note_on_c, 0, 78, 90
2, 122219, Note_on_c, 0, 78, 0
2, 122340, Note_on_c, 0, 80, 90
2, 122399, Note_on_c, 0, 80, 0
2, 122400, Note_on_c, 0, 76, 90
2, 122459, Note_on_c, 0, 76, 0
2, 122460, Note_on_c, 0, 81, 90
2, 122489, Note_on_c, 0, 81, 0
2, 122490, Note_on_c, 0, 80, 90
2, 122519, Note_on_c, 0, 80, 0
2, 122520, Note_on_c, 0, 81, 90
2, 122579, Note_on_c, 0, 81, 0
2, 123240, Note_on_c, 0, 66, 90
2, 123299, Note_on_c, 0, 66, 0
2, 123300, Note_on_c, 0, 71, 90
2, 123329, Note_on_c, 0, 71, 0
2, 123330, Note_on_c, 0, 70, 90
2, 123359, Note_on_c, 0, 70, 0
2, 123360, Note_on_c, 0, 71, 90
2, 123419, Note_on_c, 0, 71, 0
2, 123420, Note_on_c, 0, 66, 90
2, 123509, Note_on_c, 0, 66, 0
2, 123510, Note_on_c, 0, 74, 90
2, 123539, Note_on_c, 0, 74, 0
2, 123540, Note_on_c, 0, 73, 90
2, 123569, Note_on_c, 0, 73, 0
2, 123570, Note_on_c, 0, 71, 90
2, 123599, Note_on_c, 0, 71, 0
2, 123600, Note_on_c, 0, 70, 90
2, 123629, Note_on_c, 0, 70, 0
2, 123630, Note_on_c, 0, 71, 90
2, 123659, Note_on_c, 0, 71, 0
2, 123660, Note_on_c, 0, 73, 90
2, 123689, Note_on_c, 0, 73, 0
2, 123690, Note_on_c, 0, 71, 90
2, 123719, Note_on_c, 0, 71, 0
2, 123720, Note_on_c, 0, 73, 90
2, 123779, Note_on_c, 0, 73, 0
2, 123780, Note_on_c, 0, 66, 90
2, 123869, Note_on_c, 0, 66, 0
2, 123870, Note_on_c, 0, 76, 90
2, 123899, Note_on_c, 0, 76, 0
2, 123900, Note_on_c, 0, 74, 90
2, 123929, Note_on_c, 0, 74, 0
2, 123930, Note_on_c, 0, 73, 90
2, 123959, Note_on_c, 0, 73, 0
2, 123960, Note_on_c, 0, 71, 90
2, 123989, Note_on_c, 0, 71, 0
2, 123990, Note_on_c, 0, 73, 90
2, 124019, Note_on_c, 0, 73, 0
2, 124020, Note_on_c, 0, 74, 90
2, 124049, Note_on_c, 0, 74, 0
2, 124050, Note_on_c, 0, 73, 90
2, 124079, Note_on_c, 0, 73, 0
2, 124080, Note_on_c, 0, 74, 90
2, 124109, Note_on_c, 0, 74, 0
2, 124110, Note_on_c, 0, 78, 90
2, 124139, Note_on_c, 0, 78, 0
2, 124140, Note_on_c, 0, 83, 90
2, 124169, Note_on_c, 0, 83, 0
2, 124170, Note_on_c, 0, 81, 90
2, 124199, Note_on_c, 0, 81, 0
2, 124200, Note_on_c, 0, 79, 90
2, 124229, Note_on_c, 0, 79, 0
2, 124230, Note_on_c, 0, 78, 90
2, 124259, Note_on_c, 0, 78, 0
2, 124260, Note_on_c, 0, 76, 90
2, 124289, Note_on_c, 0, 76, 0
2, 124290, Note_on_c, 0, 74, 90
2, 124319, Note_on_c, 0, 74, 0
2, 124320, Note_on_c, 0, 73, 90
2, 124349, Note_on_c, 0, 73, 0
2, 124350, Note_on_c, 0, 70, 90
2, 124379, Note_on_c, 0, 70, 0
2, 124380, Note_on_c, 0, 71, 90
2, 124409, Note_on_c, 0, 71, 0
2, 124410, Note_on_c, 0, 73, 90
2, 124439, Note_on_c, 0, 73, 0
2, 124440, Note_on_c, 0, 70, 90
2, 124529, Note_on_c, 0, 70, 0
2, 124530, Note_on_c, 0, 71, 90
2, 124559, Note_on_c, 0, 71, 0
2, 124560, Note_on_c, 0, 71, 90
2, 124679, Note_on_c, 0, 71, 0
2, 124860, Note_on_c, 0, 69, 100
2, 124920, Note_on_c, 0, 69, 0
2, 124920, Note_on_c, 0, 74, 90
2, 124949, Note_on_c, 0, 74, 0
2, 124950, Note_on_c, 0, 73, 90
2, 124979, Note_on_c, 0, 73, 0
2, 124980, Note_on_c, 0, 74, 90
2, 125039, Note_on_c, 0, 74, 0
2, 125040, Note_on_c, 0, 69, 90
2, 125130, Note_on_c, 0, 69, 0
2, 125130, Note_on_c, 0, 78, 90
2, 125159, Note_on_c, 0, 78, 0
2, 125160, Note_on_c, 0, 76, 90
2, 125189, Note_on_c, 0, 76, 0
2, 125190, Note_on_c, 0, 74, 90
2, 125219, Note_on_c, 0, 74, 0
2, 125220, Note_on_c, 0, 73, 90
2, 125249, Note_on_c, 0, 73, 0
2, 125250, Note_on_c, 0, 74, 90
2, 125279, Note_on_c, 0, 74, 0
2, 125280, Note_on_c, 0, 76, 90
2, 125309, Note_on_c, 0, 76, 0
2, 125310, Note_on_c, 0, 74, 90
2, 125339, Note_on_c, 0, 74, 0
2, 125340, Note_on_c, 0, 76, 90
2, 125399, Note_on_c, 0, 76, 0
2, 125400, Note_on_c, 0, 69, 90
2, 125489, Note_on_c, 0, 69, 0
2, 125490, Note_on_c, 0, 79, 90
2, 125519, Note_on_c, 0, 79, 0
2, 125520, Note_on_c, 0, 78, 90
2, 125549, Note_on_c, 0, 78, 0
2, 125550, Note_on_c, 0, 76, 90
2, 125579, Note_on_c, 0, 76, 0
2, 125580, Note_on_c, 0, 74, 90
2, 125609, Note_on_c, 0, 74, 0
2, 125610, Note_on_c, 0, 76, 90
2, 125639, Note_on_c, 0, 76, 0
2, 125640, Note_on_c, 0, 78, 90
2, 125669, Note_on_c, 0, 78, 0
2, 125670, Note_on_c, 0, 76, 90
2, 125699, Note_on_c, 0, 76, 0
2, 125700, Note_on_c, 0, 78, 90
2, 125759, Note_on_c, 0, 78, 0
2, 125760, Note_on_c, 0, 69, 90
2, 125849, Note_on_c, 0, 69, 0
2, 125850, Note_on_c, 0, 81, 90
2, 125879, Note_on_c, 0, 81, 0
2, 125880, Note_on_c, 0, 79, 90
2, 125909, Note_on_c, 0, 79, 0
2, 125910, Note_on_c, 0, 78, 90
2, 125939, Note_on_c, 0, 78, 0
2, 125940, Note_on_c, 0, 76, 90
2, 125969, Note_on_c, 0, 76, 0
2, 125970, Note_on_c, 0, 74, 90
2, 125999, Note_on_c, 0, 74, 0
2, 126000, Note_on_c, 0, 73, 90
2, 126089, Note_on_c, 0, 73, 0
2, 126090, Note_on_c, 0, 74, 90
2, 126119, Note_on_c, 0, 74, 0
2, 126120, Note_on_c, 0, 76, 90
2, 126179, Note_on_c, 0, 76, 0
2, 126180, Note_on_c, 0, 69, 90
2, 126299, Note_on_c, 0, 69, 0
2, 126300, Note_on_c, 0, 76, 90
2, 126359, Note_on_c, 0, 76, 0
2, 126360, Note_on_c, 0, 67, 90
2, 126389, Note_on_c, 0, 67, 0
2, 126390, Note_on_c, 0, 66, 90
2, 126419, Note_on_c, 0, 66, 0
2, 126420, Note_on_c, 0, 67, 90
2, 126449, Note_on_c, 0, 67, 0
2, 126450, Note_on_c, 0, 76, 90
2, 126479, Note_on_c, 0, 76, 0
2, 126480, Note_on_c, 0, 74, 90
2, 126509, Note_on_c, 0, 74, 0
2, 126510, Note_on_c, 0, 76, 90
2, 126539, Note_on_c, 0, 76, 0
2, 126540, Note_on_c, 0, 67, 90
2, 126569, Note_on_c, 0, 67, 0
2, 126570, Note_on_c, 0, 66, 90
2, 126599, Note_on_c, 0, 66, 0
2, 126600, Note_on_c, 0, 67, 90
2, 126629, Note_on_c, 0, 67, 0
2, 126630, Note_on_c, 0, 76, 90
2, 126659, Note_on_c, 0, 76, 0
2, 126660, Note_on_c, 0, 74, 90
2, 126689, Note_on_c, 0, 74, 0
2, 126690, Note_on_c, 0, 76, 90
2, 126719, Note_on_c, 0, 76, 0
2, 126720, Note_on_c, 0, 66, 90
2, 126749, Note_on_c, 0, 66, 0
2, 126750, Note_on_c, 0, 64, 90
2, 126779, Note_on_c, 0, 64, 0
2, 126780, Note_on_c, 0, 66, 90
2, 126809, Note_on_c, 0, 66, 0
2, 126810, Note_on_c, 0, 74, 90
2, 126839, Note_on_c, 0, 74, 0
2, 126840, Note_on_c, 0, 73, 90
2, 126869, Note_on_c, 0, 73, 0
2, 126870, Note_on_c, 0, 74, 90
2, 126899, Note_on_c, 0, 74, 0
2, 126900, Note_on_c, 0, 66, 90
2, 126929, Note_on_c, 0, 66, 0
2, 126930, Note_on_c, 0, 64, 90
2, 126959, Note_on_c, 0, 64, 0
2, 126960, Note_on_c, 0, 66, 90
2, 126989, Note_on_c, 0, 66, 0
2, 126990, Note_on_c, 0, 74, 90
2, 127019, Note_on_c, 0, 74, 0
2, 127020, Note_on_c, 0, 73, 90
2, 127049, Note_on_c, 0, 73, 0
2, 127050, Note_on_c, 0, 74, 90
2, 127079, Note_on_c, 0, 74, 0
2, 127080, Note_on_c, 0, 64, 90
2, 127289, Note_on_c, 0, 64, 0
2, 127290, Note_on_c, 0, 62, 90
2, 127319, Note_on_c, 0, 62, 0
2, 127320, Note_on_c, 0, 64, 90
2, 127349, Note_on_c, 0, 64, 0
2, 127350, Note_on_c, 0, 74, 90
2, 127379, Note_on_c, 0, 74, 0
2, 127380, Note_on_c, 0, 73, 90
2, 127409, Note_on_c, 0, 73, 0
2, 127410, Note_on_c, 0, 74, 90
2, 127439, Note_on_c, 0, 74, 0
2, 127440, Note_on_c, 0, 64, 90
2, 127649, Note_on_c, 0, 64, 0
2, 127650, Note_on_c, 0, 62, 90
2, 127679, Note_on_c, 0, 62, 0
2, 127680, Note_on_c, 0, 64, 90
2, 127709, Note_on_c, 0, 64, 0
2, 127710, Note_on_c, 0, 67, 90
2, 127739, Note_on_c, 0, 67, 0
2, 127740, Note_on_c, 0, 66, 90
2, 127769, Note_on_c, 0, 66, 0
2, 127770, Note_on_c, 0, 67, 90
2, 127799, Note_on_c, 0, 67, 0
2, 127800, Note_on_c, 0, 73, 90
2, 127829, Note_on_c, 0, 73, 0
2, 127830, Note_on_c, 0, 71, 90
2, 127859, Note_on_c, 0, 71, 0
2, 127860, Note_on_c, 0, 73, 90
2, 127889, Note_on_c, 0, 73, 0
2, 127890, Note_on_c, 0, 76, 90
2, 127919, Note_on_c, 0, 76, 0
2, 127920, Note_on_c, 0, 74, 90
2, 127949, Note_on_c, 0, 74, 0
2, 127950, Note_on_c, 0, 76, 90
2, 127979, Note_on_c, 0, 76, 0
2, 127980, Note_on_c, 0, 79, 90
2, 128009, Note_on_c, 0, 79, 0
2, 128010, Note_on_c, 0, 78, 90
2, 128039, Note_on_c, 0, 78, 0
2, 128040, Note_on_c, 0, 79, 90
2, 128069, Note_on_c, 0, 79, 0
2, 128070, Note_on_c, 0, 83, 90
2, 128099, Note_on_c, 0, 83, 0
2, 128100, Note_on_c, 0, 81, 90
2, 128129, Note_on_c, 0, 81, 0
2, 128130, Note_on_c, 0, 79, 90
2, 128159, Note_on_c, 0, 79, 0
2, 128160, Note_on_c, 0, 78, 90
2, 128219, Note_on_c, 0, 78, 0
2, 128220, Note_on_c, 0, 79, 90
2, 128249, Note_on_c, 0, 79, 0
2, 128250, Note_on_c, 0, 78, 90
2, 128279, Note_on_c, 0, 78, 0
2, 128280, Note_on_c, 0, 76, 90
2, 128309, Note_on_c, 0, 76, 0
2, 128310, Note_on_c, 0, 74, 90
2, 128339, Note_on_c, 0, 74, 0
2, 128340, Note_on_c, 0, 81, 90
2, 128399, Note_on_c, 0, 81, 0
2, 128400, Note_on_c, 0, 69, 90
2, 128459, Note_on_c, 0, 69, 0
2, 128460, Note_on_c, 0, 73, 90
2, 128519, Note_on_c, 0, 73, 0
2, 128520, Note_on_c, 0, 74, 90
2, 128819, Note_on_c, 0, 74, 0
2, 128820, Note_on_c, 0, 69, 100
2, 128880, Note_on_c, 0, 69, 0
2, 128880, Note_on_c, 0, 74, 90
2, 128909, Note_on_c, 0, 74, 0
2, 128910, Note_on_c, 0, 73, 90
2, 128939, Note_on_c, 0, 73, 0
2, 128940, Note_on_c, 0, 74, 90
2, 128999, Note_on_c, 0, 74, 0
2, 129000, Note_on_c, 0, 69, 90
2, 129090, Note_on_c, 0, 69, 0
2, 129090, Note_on_c, 0, 78, 90
2, 129119, Note_on_c, 0, 78, 0
2, 129120, Note_on_c, 0, 76, 90
2, 129149, Note_on_c, 0, 76, 0
2, 129150, Note_on_c, 0, 74, 90
2, 129179, Note_on_c, 0, 74, 0
2, 129180, Note_on_c, 0, 73, 90
2, 129209, Note_on_c, 0, 73, 0
2, 129210, Note_on_c, 0, 74, 90
2, 129239, Note_on_c, 0, 74, 0
2, 129240, Note_on_c, 0, 76, 90
2, 129269, Note_on_c, 0, 76, 0
2, 129270, Note_on_c, 0, 74, 90
2, 129299, Note_on_c, 0, 74, 0
2, 129300, Note_on_c, 0, 76, 90
2, 129359, Note_on_c, 0, 76, 0
2, 129360, Note_on_c, 0, 69, 90
2, 129449, Note_on_c, 0, 69, 0
2, 129450, Note_on_c, 0, 79, 90
2, 129479, Note_on_c, 0, 79, 0
2, 129480, Note_on_c, 0, 78, 90
2, 129509, Note_on_c, 0, 78, 0
2, 129510, Note_on_c, 0, 76, 90
2, 129539, Note_on_c, 0, 76, 0
2, 129540, Note_on_c, 0, 74, 90
2, 129569, Note_on_c, 0, 74, 0
2, 129570, Note_on_c, 0, 76, 90
2, 129599, Note_on_c, 0, 76, 0
2, 129600, Note_on_c, 0, 78, 90
2, 129629, Note_on_c, 0, 78, 0
2, 129630, Note_on_c, 0, 76, 90
2, 129659, Note_on_c, 0, 76, 0
2, 129660, Note_on_c, 0, 78, 90
2, 129719, Note_on_c, 0, 78, 0
2, 129720, Note_on_c, 0, 69, 90
2, 129809, Note_on_c, 0, 69, 0
2, 129810, Note_on_c, 0, 81, 90
2, 129839, Note_on_c, 0, 81, 0
2, 129840, Note_on_c, 0, 79, 90
2, 129869, Note_on_c, 0, 79, 0
2, 129870, Note_on_c, 0, 78, 90
2, 129899, Note_on_c, 0, 78, 0
2, 129900, Note_on_c, 0, 76, 90
2, 129929, Note_on_c, 0, 76, 0
2, 129930, Note_on_c, 0, 74, 90
2, 129959, Note_on_c, 0, 74, 0
2, 129960, Note_on_c, 0, 73, 90
2, 130049, Note_on_c, 0, 73, 0
2, 130050, Note_on_c, 0, 74, 90
2, 130079, Note_on_c, 0, 74, 0
2, 130080, Note_on_c, 0, 76, 90
2, 130139, Note_on_c, 0, 76, 0
2, 130140, Note_on_c, 0, 69, 90
2, 130259, Note_on_c, 0, 69, 0
2, 130260, Note_on_c, 0, 73, 90
2, 130319, Note_on_c, 0, 73, 0
2, 130320, Note_on_c, 0, 74, 90
2, 130379, Note_on_c, 0, 74, 0
2, 130380, Note_on_c, 0, 78, 90
2, 130439, Note_on_c, 0, 78, 0
2, 130440, Note_on_c, 0, 81, 90
2, 130499, Note_on_c, 0, 81, 0
2, 130500, Note_on_c, 0, 74, 90
2, 130559, Note_on_c, 0, 74, 0
2, 130560, Note_on_c, 0, 78, 90
2, 130619, Note_on_c, 0, 78, 0
2, 130620, Note_on_c, 0, 83, 90
2, 130679, Note_on_c, 0, 83, 0
2, 130680, Note_on_c, 0, 73, 90
2, 130739, Note_on_c, 0, 73, 0
2, 130740, Note_on_c, 0, 76, 90
2, 130799, Note_on_c, 0, 76, 0
2, 130800, Note_on_c, 0, 83, 90
2, 130859, Note_on_c, 0, 83, 0
2, 130860, Note_on_c, 0, 73, 90
2, 130919, Note_on_c, 0, 73, 0
2, 130920, Note_on_c, 0, 76, 90
2, 130979, Note_on_c, 0, 76, 0
2, 130980, Note_on_c, 0, 81, 90
2, 131039, Note_on_c, 0, 81, 0
2, 131040, Note_on_c, 0, 71, 90
2, 131099, Note_on_c, 0, 71, 0
2, 131100, Note_on_c, 0, 74, 90
2, 131159, Note_on_c, 0, 74, 0
2, 131160, Note_on_c, 0, 81, 90
2, 131219, Note_on_c, 0, 81, 0
2, 131220, Note_on_c, 0, 71, 90
2, 131279, Note_on_c, 0, 71, 0
2, 131280, Note_on_c, 0, 74, 90
2, 131339, Note_on_c, 0, 74, 0
2, 131340, Note_on_c, 0, 80, 90
2, 131399, Note_on_c, 0, 80, 0
2, 131400, Note_on_c, 0, 69, 90
2, 131519, Note_on_c, 0, 69, 0
2, 131700, Note_on_c, 0, 64, 90
2, 131759, Note_on_c, 0, 64, 0
2, 131760, Note_on_c, 0, 69, 90
2, 131789, Note_on_c, 0, 69, 0
2, 131790, Note_on_c, 0, 68, 90
2, 131819, Note_on_c, 0, 68, 0
2, 131820, Note_on_c, 0, 69, 90
2, 131879, Note_on_c, 0, 69, 0
2, 131880, Note_on_c, 0, 64, 90
2, 131969, Note_on_c, 0, 64, 0
2, 131970, Note_on_c, 0, 73, 90
2, 131999, Note_on_c, 0, 73, 0
2, 132000, Note_on_c, 0, 71, 90
2, 132029, Note_on_c, 0, 71, 0
2, 132030, Note_on_c, 0, 69, 90
2, 132059, Note_on_c, 0, 69, 0
2, 132060, Note_on_c, 0, 68, 90
2, 132089, Note_on_c, 0, 68, 0
2, 132090, Note_on_c, 0, 69, 90
2, 132119, Note_on_c, 0, 69, 0
2, 132120, Note_on_c, 0, 71, 90
2, 132149, Note_on_c, 0, 71, 0
2, 132150, Note_on_c, 0, 69, 90
2, 132179, Note_on_c, 0, 69, 0
2, 132180, Note_on_c, 0, 71, 90
2, 132240, Note_on_c, 0, 71, 0
2, 132240, Note_on_c, 0, 64, 90
2, 132329, Note_on_c, 0, 64, 0
2, 132330, Note_on_c, 0, 74, 90
2, 132359, Note_on_c, 0, 74, 0
2, 132360, Note_on_c, 0, 73, 90
2, 132389, Note_on_c, 0, 73, 0
2, 132390, Note_on_c, 0, 71, 90
2, 132419, Note_on_c, 0, 71, 0
2, 132420, Note_on_c, 0, 69, 90
2, 132449, Note_on_c, 0, 69, 0
2, 132450, Note_on_c, 0, 71, 90
2, 132479, Note_on_c, 0, 71, 0
2, 132480, Note_on_c, 0, 73, 90
2, 132509, Note_on_c, 0, 73, 0
2, 132510, Note_on_c, 0, 71, 90
2, 132539, Note_on_c, 0, 71, 0
2, 132540, Note_on_c, 0, 73, 90
2, 132600, Note_on_c, 0, 73, 0
2, 132600, Note_on_c, 0, 64, 90
2, 132689, Note_on_c, 0, 64, 0
2, 132690, Note_on_c, 0, 76, 90
2, 132719, Note_on_c, 0, 76, 0
2, 132720, Note_on_c, 0, 74, 90
2, 132749, Note_on_c, 0, 74, 0
2, 132750, Note_on_c, 0, 73, 90
2, 132779, Note_on_c, 0, 73, 0
2, 132780, Note_on_c, 0, 71, 90
2, 132809, Note_on_c, 0, 71, 0
2, 132810, Note_on_c, 0, 69, 90
2, 132839, Note_on_c, 0, 69, 0
2, 132840, Note_on_c, 0, 81, 90
2, 132899, Note_on_c, 0, 81, 0
2, 132900, Note_on_c, 0, 83, 90
2, 132959, Note_on_c, 0, 83, 0
2, 132960, Note_on_c, 0, 80, 90
2, 133019, Note_on_c, 0, 80, 0
2, 133020, Note_on_c, 0, 81, 90
2, 133139, Note_on_c, 0, 81, 0
2, 133140, Note_on_c, 0, 81, 90
2, 133199, Note_on_c, 0, 81, 0
2, 133200, Note_on_c, 0, 74, 90
2, 133229, Note_on_c, 0, 74, 0
2, 133230, Note_on_c, 0, 73, 90
2, 133259, Note_on_c, 0, 73, 0
2, 133260, Note_on_c, 0, 74, 90
2, 133289, Note_on_c, 0, 74, 0
2, 133290, Note_on_c, 0, 83, 90
2, 133319, Note_on_c, 0, 83, 0
2, 133320, Note_on_c, 0, 81, 90
2, 133349, Note_on_c, 0, 81, 0
2, 133350, Note_on_c, 0, 83, 90
2, 133379, Note_on_c, 0, 83, 0
2, 133380, Note_on_c, 0, 74, 90
2, 133409, Note_on_c, 0, 74, 0
2, 133410, Note_on_c, 0, 73, 90
2, 133439, Note_on_c, 0, 73, 0
2, 133440, Note_on_c, 0, 74, 90
2, 133469, Note_on_c, 0, 74, 0
2, 133470, Note_on_c, 0, 83, 90
2, 133499, Note_on_c, 0, 83, 0
2, 133500, Note_on_c, 0, 81, 90
2, 133529, Note_on_c, 0, 81, 0
2, 133530, Note_on_c, 0, 83, 90
2, 133559, Note_on_c, 0, 83, 0
2, 133560, Note_on_c, 0, 73, 90
2, 133589, Note_on_c, 0, 73, 0
2, 133590, Note_on_c, 0, 71, 90
2, 133619, Note_on_c, 0, 71, 0
2, 133620, Note_on_c, 0, 73, 90
2, 133649, Note_on_c, 0, 73, 0
2, 133650, Note_on_c, 0, 81, 90
2, 133679, Note_on_c, 0, 81, 0
2, 133680, Note_on_c, 0, 80, 90
2, 133709, Note_on_c, 0, 80, 0
2, 133710, Note_on_c, 0, 81, 90
2, 133739, Note_on_c, 0, 81, 0
2, 133740, Note_on_c, 0, 73, 90
2, 133769, Note_on_c, 0, 73, 0
2, 133770, Note_on_c, 0, 71, 90
2, 133799, Note_on_c, 0, 71, 0
2, 133800, Note_on_c, 0, 73, 90
2, 133829, Note_on_c, 0, 73, 0
2, 133830, Note_on_c, 0, 81, 90
2, 133859, Note_on_c, 0, 81, 0
2, 133860, Note_on_c, 0, 80, 90
2, 133889, Note_on_c, 0, 80, 0
2, 133890, Note_on_c, 0, 81, 90
2, 133919, Note_on_c, 0, 81, 0
2, 133920, Note_on_c, 0, 71, 90
2, 134130, Note_on_c, 0, 71, 0
2, 134130, Note_on_c, 0, 69, 90
2, 134159, Note_on_c, 0, 69, 0
2, 134160, Note_on_c, 0, 71, 90
2, 134189, Note_on_c, 0, 71, 0
2, 134190, Note_on_c, 0, 81, 90
2, 134219, Note_on_c, 0, 81, 0
2, 134220, Note_on_c, 0, 80, 90
2, 134249, Note_on_c, 0, 80, 0
2, 134250, Note_on_c, 0, 81, 90
2, 134279, Note_on_c, 0, 81, 0
2, 134280, Note_on_c, 0, 71, 90
2, 134490, Note_on_c, 0, 71, 0
2, 134490, Note_on_c, 0, 69, 90
2, 134519, Note_on_c, 0, 69, 0
2, 134520, Note_on_c, 0, 71, 90
2, 134549, Note_on_c, 0, 71, 0
2, 134550, Note_on_c, 0, 74, 90
2, 134579, Note_on_c, 0, 74, 0
2, 134580, Note_on_c, 0, 73, 90
2, 134609, Note_on_c, 0, 73, 0
2, 134610, Note_on_c, 0, 74, 90
2, 134639, Note_on_c, 0, 74, 0
2, 134640, Note_on_c, 0, 80, 90
2, 134669, Note_on_c, 0, 80, 0
2, 134670, Note_on_c, 0, 78, 90
2, 134699, Note_on_c, 0, 78, 0
2, 134700, Note_on_c, 0, 80, 90
2, 134729, Note_on_c, 0, 80, 0
2, 134730, Note_on_c, 0, 83, 90
2, 134759, Note_on_c, 0, 83, 0
2, 134760, Note_on_c, 0, 81, 90
2, 134789, Note_on_c, 0, 81, 0
2, 134790, Note_on_c, 0, 83, 90
2, 134819, Note_on_c, 0, 83, 0
2, 134820, Note_on_c, 0, 74, 90
2, 134849, Note_on_c, 0, 74, 0
2, 134850, Note_on_c, 0, 73, 90
2, 134879, Note_on_c, 0, 73, 0
2, 134880, Note_on_c, 0, 74, 90
2, 134909, Note_on_c, 0, 74, 0
2, 134910, Note_on_c, 0, 78, 90
2, 134939, Note_on_c, 0, 78, 0
2, 134940, Note_on_c, 0, 76, 90
2, 134969, Note_on_c, 0, 76, 0
2, 134970, Note_on_c, 0, 74, 90
2, 134999, Note_on_c, 0, 74, 0
2, 135000, Note_on_c, 0, 73, 90
2, 135059, Note_on_c, 0, 73, 0
2, 135060, Note_on_c, 0, 74, 90
2, 135089, Note_on_c, 0, 74, 0
2, 135090, Note_on_c, 0, 73, 90
2, 135119, Note_on_c, 0, 73, 0
2, 135120, Note_on_c, 0, 71, 90
2, 135149, Note_on_c, 0, 71, 0
2, 135150, Note_on_c, 0, 69, 90
2, 135179, Note_on_c, 0, 69, 0
2, 135180, Note_on_c, 0, 76, 90
2, 135239, Note_on_c, 0, 76, 0
2, 135240, Note_on_c, 0, 64, 90
2, 135299, Note_on_c, 0, 64, 0
2, 135300, Note_on_c, 0, 68, 90
2, 135359, Note_on_c, 0, 68, 0
2, 135360, Note_on_c, 0, 69, 90
2, 135660, Note_on_c, 0, 69, 0
2, 135840, Note_on_c, 0, 73, 90
2, 135900, Note_on_c, 0, 73, 0
2, 135900, Note_on_c, 0, 69, 90
2, 135960, Note_on_c, 0, 69, 0
2, 135960, Note_on_c, 0, 74, 90
2, 135990, Note_on_c, 0, 74, 0
2, 135990, Note_on_c, 0, 73, 90
2, 136020, Note_on_c, 0, 73, 0
2, 136020, Note_on_c, 0, 74, 90
2, 136080, Note_on_c, 0, 74, 0
2, 136200, Note_on_c, 0, 66, 90
2, 136260, Note_on_c, 0, 66, 0
2, 136260, Note_on_c, 0, 62, 90
2, 136320, Note_on_c, 0, 62, 0
2, 136320, Note_on_c, 0, 67, 90
2, 136349, Note_on_c, 0, 67, 0
2, 136350, Note_on_c, 0, 66, 90
2, 136379, Note_on_c, 0, 66, 0
2, 136380, Note_on_c, 0, 67, 90
2, 136440, Note_on_c, 0, 67, 0
2, 136560, Note_on_c, 0, 75, 90
2, 136620, Note_on_c, 0, 75, 0
2, 136620, Note_on_c, 0, 71, 90
2, 136680, Note_on_c, 0, 71, 0
2, 136680, Note_on_c, 0, 76, 90
2, 136709, Note_on_c, 0, 76, 0
2, 136710, Note_on_c, 0, 75, 90
2, 136739, Note_on_c, 0, 75, 0
2, 136740, Note_on_c, 0, 76, 90
2, 136800, Note_on_c, 0, 76, 0
2, 136920, Note_on_c, 0, 68, 90
2, 136980, Note_on_c, 0, 68, 0
2, 136980, Note_on_c, 0, 64, 90
2, 137040, Note_on_c, 0, 64, 0
2, 137040, Note_on_c, 0, 69, 90
2, 137070, Note_on_c, 0, 69, 0
2, 137070, Note_on_c, 0, 68, 90
2, 137100, Note_on_c, 0, 68, 0
2, 137100, Note_on_c, 0, 69, 90
2, 137160, Note_on_c, 0, 69, 0
2, 137160, Note_on_c, 0, 74, 90
2, 137189, Note_on_c, 0, 74, 0
2, 137190, Note_on_c, 0, 73, 90
2, 137219, Note_on_c, 0, 73, 0
2, 137220, Note_on_c, 0, 74, 90
2, 137279, Note_on_c, 0, 74, 0
2, 137280, Note_on_c, 0, 69, 90
2, 137369, Note_on_c, 0, 69, 0
2, 137370, Note_on_c, 0, 78, 90
2, 137399, Note_on_c, 0, 78, 0
2, 137400, Note_on_c, 0, 76, 90
2, 137429, Note_on_c, 0, 76, 0
2, 137430, Note_on_c, 0, 74, 90
2, 137459, Note_on_c, 0, 74, 0
2, 137460, Note_on_c, 0, 73, 90
2, 137489, Note_on_c, 0, 73, 0
2, 137490, Note_on_c, 0, 74, 90
2, 137519, Note_on_c, 0, 74, 0
2, 137520, Note_on_c, 0, 76, 90
2, 137549, Note_on_c, 0, 76, 0
2, 137550, Note_on_c, 0, 74, 90
2, 137579, Note_on_c, 0, 74, 0
2, 137580, Note_on_c, 0, 76, 90
2, 137639, Note_on_c, 0, 76, 0
2, 137640, Note_on_c, 0, 69, 90
2, 137729, Note_on_c, 0, 69, 0
2, 137730, Note_on_c, 0, 79, 90
2, 137759, Note_on_c, 0, 79, 0
2, 137760, Note_on_c, 0, 78, 90
2, 137789, Note_on_c, 0, 78, 0
2, 137790, Note_on_c, 0, 76, 90
2, 137819, Note_on_c, 0, 76, 0
2, 137820, Note_on_c, 0, 74, 90
2, 137849, Note_on_c, 0, 74, 0
2, 137850, Note_on_c, 0, 76, 90
2, 137879, Note_on_c, 0, 76, 0
2, 137880, Note_on_c, 0, 78, 90
2, 137909, Note_on_c, 0, 78, 0
2, 137910, Note_on_c, 0, 76, 90
2, 137939, Note_on_c, 0, 76, 0
2, 137940, Note_on_c, 0, 78, 90
2, 137999, Note_on_c, 0, 78, 0
2, 138000, Note_on_c, 0, 69, 90
2, 138089, Note_on_c, 0, 69, 0
2, 138090, Note_on_c, 0, 81, 90
2, 138119, Note_on_c, 0, 81, 0
2, 138120, Note_on_c, 0, 79, 90
2, 138149, Note_on_c, 0, 79, 0
2, 138150, Note_on_c, 0, 78, 90
2, 138179, Note_on_c, 0, 78, 0
2, 138180, Note_on_c, 0, 76, 90
2, 138209, Note_on_c, 0, 76, 0
2, 138210, Note_on_c, 0, 78, 90
2, 138239, Note_on_c, 0, 78, 0
2, 138240, Note_on_c, 0, 74, 90
2, 138300, Note_on_c, 0, 74, 0
2, 138300, Note_on_c, 0, 69, 90
2, 138329, Note_on_c, 0, 69, 0
2, 138330, Note_on_c, 0, 67, 90
2, 138359, Note_on_c, 0, 67, 0
2, 138360, Note_on_c, 0, 66, 90
2, 138389, Note_on_c, 0, 66, 0
2, 138390, Note_on_c, 0, 64, 90
2, 138419, Note_on_c, 0, 64, 0
2, 138420, Note_on_c, 0, 66, 90
2, 138539, Note_on_c, 0, 66, 0
2, 138540, Note_on_c, 0, 69, 100
2, 138600, Note_on_c, 0, 69, 0
2, 138600, Note_on_c, 0, 74, 90
2, 138629, Note_on_c, 0, 74, 0
2, 138630, Note_on_c, 0, 73, 90
2, 138659, Note_on_c, 0, 73, 0
2, 138660, Note_on_c, 0, 74, 90
2, 138719, Note_on_c, 0, 74, 0
2, 138720, Note_on_c, 0, 69, 90
2, 138810, Note_on_c, 0, 69, 0
2, 138810, Note_on_c, 0, 78, 90
2, 138839, Note_on_c, 0, 78, 0
2, 138840, Note_on_c, 0, 76, 90
2, 138869, Note_on_c, 0, 76, 0
2, 138870, Note_on_c, 0, 74, 90
2, 138899, Note_on_c, 0, 74, 0
2, 138900, Note_on_c, 0, 73, 90
2, 138929, Note_on_c, 0, 73, 0
2, 138930, Note_on_c, 0, 74, 90
2, 138959, Note_on_c, 0, 74, 0
2, 138960, Note_on_c, 0, 76, 90
2, 138989, Note_on_c, 0, 76, 0
2, 138990, Note_on_c, 0, 74, 90
2, 139019, Note_on_c, 0, 74, 0
2, 139020, Note_on_c, 0, 76, 90
2, 139079, Note_on_c, 0, 76, 0
2, 139080, Note_on_c, 0, 69, 90
2, 139169, Note_on_c, 0, 69, 0
2, 139170, Note_on_c, 0, 79, 90
2, 139199, Note_on_c, 0, 79, 0
2, 139200, Note_on_c, 0, 78, 90
2, 139229, Note_on_c, 0, 78, 0
2, 139230, Note_on_c, 0, 76, 90
2, 139259, Note_on_c, 0, 76, 0
2, 139260, Note_on_c, 0, 74, 90
2, 139289, Note_on_c, 0, 74, 0
2, 139290, Note_on_c, 0, 76, 90
2, 139319, Note_on_c, 0, 76, 0
2, 139320, Note_on_c, 0, 78, 90
2, 139349, Note_on_c, 0, 78, 0
2, 139350, Note_on_c, 0, 76, 90
2, 139379, Note_on_c, 0, 76, 0
2, 139380, Note_on_c, 0, 78, 90
2, 139439, Note_on_c, 0, 78, 0
2, 139440, Note_on_c, 0, 69, 90
2, 139529, Note_on_c, 0, 69, 0
2, 139530, Note_on_c, 0, 81, 90
2, 139559, Note_on_c, 0, 81, 0
2, 139560, Note_on_c, 0, 79, 90
2, 139589, Note_on_c, 0, 79, 0
2, 139590, Note_on_c, 0, 78, 90
2, 139619, Note_on_c, 0, 78, 0
2, 139620, Note_on_c, 0, 76, 90
2, 139649, Note_on_c, 0, 76, 0
2, 139650, Note_on_c, 0, 74, 90
2, 139679, Note_on_c, 0, 74, 0
2, 139680, Note_on_c, 0, 73, 90
2, 139769, Note_on_c, 0, 73, 0
2, 139770, Note_on_c, 0, 74, 90
2, 139799, Note_on_c, 0, 74, 0
2, 139800, Note_on_c, 0, 76, 90
2, 139859, Note_on_c, 0, 76, 0
2, 139860, Note_on_c, 0, 69, 90
2, 139979, Note_on_c, 0, 69, 0
2, 139980, Note_on_c, 0, 76, 90
2, 140039, Note_on_c, 0, 76, 0
2, 140040, Note_on_c, 0, 67, 90
2, 140069, Note_on_c, 0, 67, 0
2, 140070, Note_on_c, 0, 66, 90
2, 140099, Note_on_c, 0, 66, 0
2, 140100, Note_on_c, 0, 67, 90
2, 140129, Note_on_c, 0, 67, 0
2, 140130, Note_on_c, 0, 76, 90
2, 140159, Note_on_c, 0, 76, 0
2, 140160, Note_on_c, 0, 74, 90
2, 140189, Note_on_c, 0, 74, 0
2, 140190, Note_on_c, 0, 76, 90
2, 140219, Note_on_c, 0, 76, 0
2, 140220, Note_on_c, 0, 67, 90
2, 140249, Note_on_c, 0, 67, 0
2, 140250, Note_on_c, 0, 66, 90
2, 140279, Note_on_c, 0, 66, 0
2, 140280, Note_on_c, 0, 67, 90
2, 140309, Note_on_c, 0, 67, 0
2, 140310, Note_on_c, 0, 76, 90
2, 140339, Note_on_c, 0, 76, 0
2, 140340, Note_on_c, 0, 74, 90
2, 140369, Note_on_c, 0, 74, 0
2, 140370, Note_on_c, 0, 76, 90
2, 140399, Note_on_c, 0, 76, 0
2, 140400, Note_on_c, 0, 66, 90
2, 140429, Note_on_c, 0, 66, 0
2, 140430, Note_on_c, 0, 64, 90
2, 140459, Note_on_c, 0, 64, 0
2, 140460, Note_on_c, 0, 66, 90
2, 140489, Note_on_c, 0, 66, 0
2, 140490, Note_on_c, 0, 74, 90
2, 140519, Note_on_c, 0, 74, 0
2, 140520, Note_on_c, 0, 73, 90
2, 140549, Note_on_c, 0, 73, 0
2, 140550, Note_on_c, 0, 74, 90
2, 140579, Note_on_c, 0, 74, 0
2, 140580, Note_on_c, 0, 66, 90
2, 140609, Note_on_c, 0, 66, 0
2, 140610, Note_on_c, 0, 64, 90
2, 140639, Note_on_c, 0, 64, 0
2, 140640, Note_on_c, 0, 66, 90
2, 140669, Note_on_c, 0, 66, 0
2, 140670, Note_on_c, 0, 74, 90
2, 140699, Note_on_c, 0, 74, 0
2, 140700, Note_on_c, 0, 73, 90
2, 140729, Note_on_c, 0, 73, 0
2, 140730, Note_on_c, 0, 74, 90
2, 140759, Note_on_c, 0, 74, 0
2, 140760, Note_on_c, 0, 64, 90
2, 140969, Note_on_c, 0, 64, 0
2, 140970, Note_on_c, 0, 62, 90
2, 140999, Note_on_c, 0, 62, 0
2, 141000, Note_on_c, 0, 64, 90
2, 141029, Note_on_c, 0, 64, 0
2, 141030, Note_on_c, 0, 74, 90
2, 141059, Note_on_c, 0, 74, 0
2, 141060, Note_on_c, 0, 73, 90
2, 141089, Note_on_c, 0, 73, 0
2, 141090, Note_on_c, 0, 74, 90
2, 141119, Note_on_c, 0, 74, 0
2, 141120, Note_on_c, 0, 64, 90
2, 141329, Note_on_c, 0, 64, 0
2, 141330, Note_on_c, 0, 62, 90
2, 141359, Note_on_c, 0, 62, 0
2, 141360, Note_on_c, 0, 64, 90
2, 141389, Note_on_c, 0, 64, 0
2, 141390, Note_on_c, 0, 67, 90
2, 141419, Note_on_c, 0, 67, 0
2, 141420, Note_on_c, 0, 66, 90
2, 141449, Note_on_c, 0, 66, 0
2, 141450, Note_on_c, 0, 67, 90
2, 141479, Note_on_c, 0, 67, 0
2, 141480, Note_on_c, 0, 73, 90
2, 141509, Note_on_c, 0, 73, 0
2, 141510, Note_on_c, 0, 71, 90
2, 141539, Note_on_c, 0, 71, 0
2, 141540, Note_on_c, 0, 73, 90
2, 141569, Note_on_c, 0, 73, 0
2, 141570, Note_on_c, 0, 76, 90
2, 141599, Note_on_c, 0, 76, 0
2, 141600, Note_on_c, 0, 74, 90
2, 141629, Note_on_c, 0, 74, 0
2, 141630, Note_on_c, 0, 76, 90
2, 141659, Note_on_c, 0, 76, 0
2, 141660, Note_on_c, 0, 79, 90
2, 141689, Note_on_c, 0, 79, 0
2, 141690, Note_on_c, 0, 78, 90
2, 141719, Note_on_c, 0, 78, 0
2, 141720, Note_on_c, 0, 79, 90
2, 141749, Note_on_c, 0, 79, 0
2, 141750, Note_on_c, 0, 83, 90
2, 141779, Note_on_c, 0, 83, 0
2, 141780, Note_on_c, 0, 81, 90
2, 141809, Note_on_c, 0, 81, 0
2, 141810, Note_on_c, 0, 79, 90
2, 141839, Note_on_c, 0, 79, 0
2, 141840, Note_on_c, 0, 78, 90
2, 141899, Note_on_c, 0, 78, 0
2, 141900, Note_on_c, 0, 79, 90
2, 141929, Note_on_c, 0, 79, 0
2, 141930, Note_on_c, 0, 78, 90
2, 141959, Note_on_c, 0, 78, 0
2, 141960, Note_on_c, 0, 76, 90
2, 141989, Note_on_c, 0, 76, 0
2, 141990, Note_on_c, 0, 74, 90
2, 142019, Note_on_c, 0, 74, 0
2, 142020, Note_on_c, 0, 81, 90
2, 142079, Note_on_c, 0, 81, 0
2, 142080, Note_on_c, 0, 69, 90
2, 142139, Note_on_c, 0, 69, 0
2, 142140, Note_on_c, 0, 73, 90
2, 142199, Note_on_c, 0, 73, 0
2, 142200, Note_on_c, 0, 74, 90
2, 142499, Note_on_c, 0, 74, 0
2, 143940, Note_on_c, 0, 73, 90
2, 143999, Note_on_c, 0, 73, 0
2, 144000, Note_on_c, 0, 78, 90
2, 144029, Note_on_c, 0, 78, 0
2, 144030, Note_on_c, 0, 77, 90
2, 144059, Note_on_c, 0, 77, 0
2, 144060, Note_on_c, 0, 78, 90
2, 144119, Note_on_c, 0, 78, 0
2, 144120, Note_on_c, 0, 73, 90
2, 144209, Note_on_c, 0, 73, 0
2, 144210, Note_on_c, 0, 81, 90
2, 144239, Note_on_c, 0, 81, 0
2, 144240, Note_on_c, 0, 80, 90
2, 144269, Note_on_c, 0, 80, 0
2, 144270, Note_on_c, 0, 78, 90
2, 144299, Note_on_c, 0, 78, 0
2, 144300, Note_on_c, 0, 77, 90
2, 144329, Note_on_c, 0, 77, 0
2, 144330, Note_on_c, 0, 78, 90
2, 144359, Note_on_c, 0, 78, 0
2, 144360, Note_on_c, 0, 80, 90
2, 144389, Note_on_c, 0, 80, 0
2, 144390, Note_on_c, 0, 78, 90
2, 144419, Note_on_c, 0, 78, 0
2, 144420, Note_on_c, 0, 80, 90
2, 144479, Note_on_c, 0, 80, 0
2, 144480, Note_on_c, 0, 73, 90
2, 144569, Note_on_c, 0, 73, 0
2, 144570, Note_on_c, 0, 83, 90
2, 144599, Note_on_c, 0, 83, 0
2, 144600, Note_on_c, 0, 81, 90
2, 144629, Note_on_c, 0, 81, 0
2, 144630, Note_on_c, 0, 80, 90
2, 144659, Note_on_c, 0, 80, 0
2, 144660, Note_on_c, 0, 78, 90
2, 144689, Note_on_c, 0, 78, 0
2, 144690, Note_on_c, 0, 80, 90
2, 144719, Note_on_c, 0, 80, 0
2, 144720, Note_on_c, 0, 81, 90
2, 144749, Note_on_c, 0, 81, 0
2, 144750, Note_on_c, 0, 80, 90
2, 144779, Note_on_c, 0, 80, 0
2, 144780, Note_on_c, 0, 81, 90
2, 144809, Note_on_c, 0, 81, 0
2, 144810, Note_on_c, 0, 73, 90
2, 144839, Note_on_c, 0, 73, 0
2, 144840, Note_on_c, 0, 78, 90
2, 144869, Note_on_c, 0, 78, 0
2, 144870, Note_on_c, 0, 76, 90
2, 144899, Note_on_c, 0, 76, 0
2, 144900, Note_on_c, 0, 74, 90
2, 144929, Note_on_c, 0, 74, 0
2, 144930, Note_on_c, 0, 73, 90
2, 144959, Note_on_c, 0, 73, 0
2, 144960, Note_on_c, 0, 71, 90
2, 144989, Note_on_c, 0, 71, 0
2, 144990, Note_on_c, 0, 69, 90
2, 145019, Note_on_c, 0, 69, 0
2, 145020, Note_on_c, 0, 68, 90
2, 145049, Note_on_c, 0, 68, 0
2, 145050, Note_on_c, 0, 65, 90
2, 145079, Note_on_c, 0, 65, 0
2, 145080, Note_on_c, 0, 66, 90
2, 145109, Note_on_c, 0, 66, 0
2, 145110, Note_on_c, 0, 68, 90
2, 145139, Note_on_c, 0, 68, 0
2, 145140, Note_on_c, 0, 65, 90
2, 145229, Note_on_c, 0, 65, 0
2, 145230, Note_on_c, 0, 66, 90
2, 145259, Note_on_c, 0, 66, 0
2, 145260, Note_on_c, 0, 66, 90
2, 145379, Note_on_c, 0, 66, 0
2, 145380, Note_on_c, 0, 81, 90
2, 145439, Note_on_c, 0, 81, 0
2, 145440, Note_on_c, 0, 71, 90
2, 145469, Note_on_c, 0, 71, 0
2, 145470, Note_on_c, 0, 69, 90
2, 145499, Note_on_c, 0, 69, 0
2, 145500, Note_on_c, 0, 71, 90
2, 145529, Note_on_c, 0, 71, 0
2, 145530, Note_on_c, 0, 80, 90
2, 145559, Note_on_c, 0, 80, 0
2, 145560, Note_on_c, 0, 78, 90
2, 145589, Note_on_c, 0, 78, 0
2, 145590, Note_on_c, 0, 80, 90
2, 145619, Note_on_c, 0, 80, 0
2, 145620, Note_on_c, 0, 71, 90
2, 145649, Note_on_c, 0, 71, 0
2, 145650, Note_on_c, 0, 69, 90
2, 145679, Note_on_c, 0, 69, 0
2, 145680, Note_on_c, 0, 71, 90
2, 145709, Note_on_c, 0, 71, 0
2, 145710, Note_on_c, 0, 80, 90
2, 145739, Note_on_c, 0, 80, 0
2, 145740, Note_on_c, 0, 78, 90
2, 145769, Note_on_c, 0, 78, 0
2, 145770, Note_on_c, 0, 80, 90
2, 145799, Note_on_c, 0, 80, 0
2, 145800, Note_on_c, 0, 69, 90
2, 145829, Note_on_c, 0, 69, 0
2, 145830, Note_on_c, 0, 68, 90
2, 145859, Note_on_c, 0, 68, 0
2, 145860, Note_on_c, 0, 69, 90
2, 145889, Note_on_c, 0, 69, 0
2, 145890, Note_on_c, 0, 78, 90
2, 145919, Note_on_c, 0, 78, 0
2, 145920, Note_on_c, 0, 77, 90
2, 145949, Note_on_c, 0, 77, 0
2, 145950, Note_on_c, 0, 78, 90
2, 145979, Note_on_c, 0, 78, 0
2, 145980, Note_on_c, 0, 69, 90
2, 146009, Note_on_c, 0, 69, 0
2, 146010, Note_on_c, 0, 68, 90
2, 146039, Note_on_c, 0, 68, 0
2, 146040, Note_on_c, 0, 69, 90
2, 146069, Note_on_c, 0, 69, 0
2, 146070, Note_on_c, 0, 78, 90
2, 146099, Note_on_c, 0, 78, 0
2, 146100, Note_on_c, 0, 77, 90
2, 146129, Note_on_c, 0, 77, 0
2, 146130, Note_on_c, 0, 78, 90
2, 146159, Note_on_c, 0, 78, 0
2, 146160, Note_on_c, 0, 68, 90
2, 146370, Note_on_c, 0, 68, 0
2, 146370, Note_on_c, 0, 66, 90
2, 146399, Note_on_c, 0, 66, 0
2, 146400, Note_on_c, 0, 68, 90
2, 146429, Note_on_c, 0, 68, 0
2, 146430, Note_on_c, 0, 78, 90
2, 146459, Note_on_c, 0, 78, 0
2, 146460, Note_on_c, 0, 77, 90
2, 146489, Note_on_c, 0, 77, 0
2, 146490, Note_on_c, 0, 78, 90
2, 146519, Note_on_c, 0, 78, 0
2, 146520, Note_on_c, 0, 68, 90
2, 146730, Note_on_c, 0, 68, 0
2, 146730, Note_on_c, 0, 66, 90
2, 146759, Note_on_c, 0, 66, 0
2, 146760, Note_on_c, 0, 68, 90
2, 146789, Note_on_c, 0, 68, 0
2, 146790, Note_on_c, 0, 71, 90
2, 146819, Note_on_c, 0, 71, 0
2, 146820, Note_on_c, 0, 69, 90
2, 146849, Note_on_c, 0, 69, 0
2, 146850, Note_on_c, 0, 71, 90
2, 146879, Note_on_c, 0, 71, 0
2, 146880, Note_on_c, 0, 77, 90
2, 146909, Note_on_c, 0, 77, 0
2, 146910, Note_on_c, 0, 75, 90
2, 146939, Note_on_c, 0, 75, 0
2, 146940, Note_on_c, 0, 77, 90
2, 146969, Note_on_c, 0, 77, 0
2, 146970, Note_on_c, 0, 80, 90
2, 146999, Note_on_c, 0, 80, 0
2, 147000, Note_on_c, 0, 78, 90
2, 147029, Note_on_c, 0, 78, 0
2, 147030, Note_on_c, 0, 80, 90
2, 147059, Note_on_c, 0, 80, 0
2, 147060, Note_on_c, 0, 83, 90
2, 147089, Note_on_c, 0, 83, 0
2, 147090, Note_on_c, 0, 81, 90
2, 147119, Note_on_c, 0, 81, 0
2, 147120, Note_on_c, 0, 83, 90
2, 147149, Note_on_c, 0, 83, 0
2, 147150, Note_on_c, 0, 80, 90
2, 147179, Note_on_c, 0, 80, 0
2, 147180, Note_on_c, 0, 77, 90
2, 147209, Note_on_c, 0, 77, 0
2, 147210, Note_on_c, 0, 73, 90
2, 147239, Note_on_c, 0, 73, 0
2, 147240, Note_on_c, 0, 81, 90
2, 147269, Note_on_c, 0, 81, 0
2, 147270, Note_on_c, 0, 83, 90
2, 147299, Note_on_c, 0, 83, 0
2, 147300, Note_on_c, 0, 81, 90
2, 147329, Note_on_c, 0, 81, 0
2, 147330, Note_on_c, 0, 80, 90
2, 147359, Note_on_c, 0, 80, 0
2, 147360, Note_on_c, 0, 78, 90
2, 147389, Note_on_c, 0, 78, 0
2, 147390, Note_on_c, 0, 80, 90
2, 147419, Note_on_c, 0, 80, 0
2, 147420, Note_on_c, 0, 73, 90
2, 147479, Note_on_c, 0, 73, 0
2, 147480, Note_on_c, 0, 78, 90
2, 147539, Note_on_c, 0, 78, 0
2, 147540, Note_on_c, 0, 77, 90
2, 147599, Note_on_c, 0, 77, 0
2, 147600, Note_on_c, 0, 78, 90
2, 147839, Note_on_c, 0, 78, 0
2, 148080, Note_on_c, 0, 77, 90
2, 148139, Note_on_c, 0, 77, 0
2, 148140, Note_on_c, 0, 73, 90
2, 148199, Note_on_c, 0, 73, 0
2, 148200, Note_on_c, 0, 78, 90
2, 148229, Note_on_c, 0, 78, 0
2, 148230, Note_on_c, 0, 77, 90
2, 148259, Note_on_c, 0, 77, 0
2, 148260, Note_on_c, 0, 78, 90
2, 148319, Note_on_c, 0, 78, 0
2, 148440, Note_on_c, 0, 80, 90
2, 148499, Note_on_c, 0, 80, 0
2, 148500, Note_on_c, 0, 76, 90
2, 148559, Note_on_c, 0, 76, 0
2, 148560, Note_on_c, 0, 81, 90
2, 148589, Note_on_c, 0, 81, 0
2, 148590, Note_on_c, 0, 80, 90
2, 148619, Note_on_c, 0, 80, 0
2, 148620, Note_on_c, 0, 81, 90
2, 148679, Note_on_c, 0, 81, 0
2, 149340, Note_on_c, 0, 66, 90
2, 149399, Note_on_c, 0, 66, 0
2, 149400, Note_on_c, 0, 71, 90
2, 149429, Note_on_c, 0, 71, 0
2, 149430, Note_on_c, 0, 70, 90
2, 149459, Note_on_c, 0, 70, 0
2, 149460, Note_on_c, 0, 71, 90
2, 149519, Note_on_c, 0, 71, 0
2, 149520, Note_on_c, 0, 66, 90
2, 149609, Note_on_c, 0, 66, 0
2, 149610, Note_on_c, 0, 74, 90
2, 149639, Note_on_c, 0, 74, 0
2, 149640, Note_on_c, 0, 73, 90
2, 149669, Note_on_c, 0, 73, 0
2, 149670, Note_on_c, 0, 71, 90
2, 149699, Note_on_c, 0, 71, 0
2, 149700, Note_on_c, 0, 70, 90
2, 149729, Note_on_c, 0, 70, 0
2, 149730, Note_on_c, 0, 71, 90
2, 149759, Note_on_c, 0, 71, 0
2, 149760, Note_on_c, 0, 73, 90
2, 149789, Note_on_c, 0, 73, 0
2, 149790, Note_on_c, 0, 71, 90
2, 149819, Note_on_c, 0, 71, 0
2, 149820, Note_on_c, 0, 73, 90
2, 149879, Note_on_c, 0, 73, 0
2, 149880, Note_on_c, 0, 66, 90
2, 149969, Note_on_c, 0, 66, 0
2, 149970, Note_on_c, 0, 76, 90
2, 149999, Note_on_c, 0, 76, 0
2, 150000, Note_on_c, 0, 74, 90
2, 150029, Note_on_c, 0, 74, 0
2, 150030, Note_on_c, 0, 73, 90
2, 150059, Note_on_c, 0, 73, 0
2, 150060, Note_on_c, 0, 71, 90
2, 150089, Note_on_c, 0, 71, 0
2, 150090, Note_on_c, 0, 73, 90
2, 150119, Note_on_c, 0, 73, 0
2, 150120, Note_on_c, 0, 74, 90
2, 150149, Note_on_c, 0, 74, 0
2, 150150, Note_on_c, 0, 73, 90
2, 150179, Note_on_c, 0, 73, 0
2, 150180, Note_on_c, 0, 74, 90
2, 150209, Note_on_c, 0, 74, 0
2, 150210, Note_on_c, 0, 78, 90
2, 150239, Note_on_c, 0, 78, 0
2, 150240, Note_on_c, 0, 83, 90
2, 150269, Note_on_c, 0, 83, 0
2, 150270, Note_on_c, 0, 81, 90
2, 150299, Note_on_c, 0, 81, 0
2, 150300, Note_on_c, 0, 79, 90
2, 150329, Note_on_c, 0, 79, 0
2, 150330, Note_on_c, 0, 78, 90
2, 150359, Note_on_c, 0, 78, 0
2, 150360, Note_on_c, 0, 76, 90
2, 150389, Note_on_c, 0, 76, 0
2, 150390, Note_on_c, 0, 74, 90
2, 150419, Note_on_c, 0, 74, 0
2, 150420, Note_on_c, 0, 73, 90
2, 150449, Note_on_c, 0, 73, 0
2, 150450, Note_on_c, 0, 70, 90
2, 150479, Note_on_c, 0, 70, 0
2, 150480, Note_on_c, 0, 71, 90
2, 150509, Note_on_c, 0, 71, 0
2, 150510, Note_on_c, 0, 73, 90
2, 150539, Note_on_c, 0, 73, 0
2, 150540, Note_on_c, 0, 70, 90
2, 150629, Note_on_c, 0, 70, 0
2, 150630, Note_on_c, 0, 71, 90
2, 150659, Note_on_c, 0, 71, 0
2, 150660, Note_on_c, 0, 71, 90
2, 150779, Note_on_c, 0, 71, 0
2, 153960, Note_on_c, 0, 71, 90
2, 154055, Note_on_c, 0, 71, 0
2, 154080, Note_on_c, 0, 69, 90
2, 154127, Note_on_c, 0, 69, 0
2, 154140, Note_on_c, 0, 67, 90
2, 154187, Note_on_c, 0, 67, 0
2, 154200, Note_on_c, 0, 74, 90
2, 154343, Note_on_c, 0, 74, 0
2, 154380, Note_on_c, 0, 76, 90
2, 154427, Note_on_c, 0, 76, 0
2, 154440, Note_on_c, 0, 72, 90
2, 154535, Note_on_c, 0, 72, 0
2, 154560, Note_on_c, 0, 71, 90
2, 154607, Note_on_c, 0, 71, 0
2, 154620, Note_on_c, 0, 69, 90
2, 154667, Note_on_c, 0, 69, 0
2, 154680, Note_on_c, 0, 69, 90
2, 154871, Note_on_c, 0, 69, 0
2, 154920, Note_on_c, 0, 74, 90
2, 155015, Note_on_c, 0, 74, 0
2, 155040, Note_on_c, 0, 71, 90
2, 155135, Note_on_c, 0, 71, 0
2, 155160, Note_on_c, 0, 67, 90
2, 155303, Note_on_c, 0, 67, 0
2, 155340, Note_on_c, 0, 72, 90
2, 155387, Note_on_c, 0, 72, 0
2, 155400, Note_on_c, 0, 69, 90
2, 155495, Note_on_c, 0, 69, 0
2, 155520, Note_on_c, 0, 74, 90
2, 155615, Note_on_c, 0, 74, 0
2, 155640, Note_on_c, 0, 71, 90
2, 155656, Note_on_c, 0, 71, 0
2, 155660, Note_on_c, 0, 72, 90
2, 155676, Note_on_c, 0, 72, 0
2, 155680, Note_on_c, 0, 71, 90
2, 155696, Note_on_c, 0, 71, 0
2, 155700, Note_on_c, 0, 72, 90
2, 155712, Note_on_c, 0, 72, 0
2, 155715, Note_on_c, 0, 71, 90
2, 155727, Note_on_c, 0, 71, 0
2, 155730, Note_on_c, 0, 72, 90
2, 155742, Note_on_c, 0, 72, 0
2, 155745, Note_on_c, 0, 71, 90
2, 155757, Note_on_c, 0, 71, 0
2, 155760, Note_on_c, 0, 69, 90
2, 155807, Note_on_c, 0, 69, 0
2, 155820, Note_on_c, 0, 67, 90
2, 155867, Note_on_c, 0, 67, 0
2, 155880, Note_on_c, 0, 71, 90
2, 155975, Note_on_c, 0, 71, 0
2, 156000, Note_on_c, 0, 76, 90
2, 156095, Note_on_c, 0, 76, 0
2, 156120, Note_on_c, 0, 73, 90
2, 156263, Note_on_c, 0, 73, 0
2, 156300, Note_on_c, 0, 74, 90
2, 156347, Note_on_c, 0, 74, 0
2, 156360, Note_on_c, 0, 76, 90
2, 156455, Note_on_c, 0, 76, 0
2, 156480, Note_on_c, 0, 78, 90
2, 156527, Note_on_c, 0, 78, 0
2, 156540, Note_on_c, 0, 79, 90
2, 156587, Note_on_c, 0, 79, 0
2, 156600, Note_on_c, 0, 76, 90
2, 156791, Note_on_c, 0, 76, 0
2, 156840, Note_on_c, 0, 81, 90
2, 156935, Note_on_c, 0, 81, 0
2, 156960, Note_on_c, 0, 73, 90
2, 157055, Note_on_c, 0, 73, 0
2, 157080, Note_on_c, 0, 74, 90
2, 157223, Note_on_c, 0, 74, 0
2, 157260, Note_on_c, 0, 76, 90
2, 157307, Note_on_c, 0, 76, 0
2, 157320, Note_on_c, 0, 76, 90
2, 157463, Note_on_c, 0, 76, 0
2, 157500, Note_on_c, 0, 74, 90
2, 157547, Note_on_c, 0, 74, 0
2, 157560, Note_on_c, 0, 74, 90
2, 157751, Note_on_c, 0, 74, 0
2, 157800, Note_on_c, 0, 79, 90
2, 157895, Note_on_c, 0, 79, 0
2, 157920, Note_on_c, 0, 74, 90
2, 158015, Note_on_c, 0, 74, 0
2, 158040, Note_on_c, 0, 76, 90
2, 158183, Note_on_c, 0, 76, 0
2, 158220, Note_on_c, 0, 77, 90
2, 158267, Note_on_c, 0, 77, 0
2, 158280, Note_on_c, 0, 76, 90
2, 158327, Note_on_c, 0, 76, 0
2, 158340, Note_on_c, 0, 74, 90
2, 158387, Note_on_c, 0, 74, 0
2, 158400, Note_on_c, 0, 72, 90
2, 158447, Note_on_c, 0, 72, 0
2, 158460, Note_on_c, 0, 71, 90
2, 158507, Note_on_c, 0, 71, 0
2, 158520, Note_on_c, 0, 72, 90
2, 158711, Note_on_c, 0, 72, 0
2, 158760, Note_on_c, 0, 74, 90
2, 158855, Note_on_c, 0, 74, 0
2, 158880, Note_on_c, 0, 69, 90
2, 158975, Note_on_c, 0, 69, 0
2, 159000, Note_on_c, 0, 71, 90
2, 159095, Note_on_c, 0, 71, 0
2, 159120, Note_on_c, 0, 67, 90
2, 159215, Note_on_c, 0, 67, 0
2, 159240, Note_on_c, 0, 64, 90
2, 159335, Note_on_c, 0, 64, 0
2, 159360, Note_on_c, 0, 69, 90
2, 159455, Note_on_c, 0, 69, 0
2, 159480, Note_on_c, 0, 66, 90
2, 159575, Note_on_c, 0, 66, 0
2, 159600, Note_on_c, 0, 64, 90
2, 159647, Note_on_c, 0, 64, 0
2, 159660, Note_on_c, 0, 62, 90
2, 159707, Note_on_c, 0, 62, 0
2, 159720, Note_on_c, 0, 69, 90
2, 159815, Note_on_c, 0, 69, 0
2, 159840, Note_on_c, 0, 74, 90
2, 159935, Note_on_c, 0, 74, 0
2, 159960, Note_on_c, 0, 71, 90
2, 160103, Note_on_c, 0, 71, 0
2, 160140, Note_on_c, 0, 71, 90
2, 160187, Note_on_c, 0, 71, 0
2, 160200, Note_on_c, 0, 72, 90
2, 160295, Note_on_c, 0, 72, 0
2, 160320, Note_on_c, 0, 74, 90
2, 160415, Note_on_c, 0, 74, 0
2, 160440, Note_on_c, 0, 76, 90
2, 160583, Note_on_c, 0, 76, 0
2, 160620, Note_on_c, 0, 74, 90
2, 160667, Note_on_c, 0, 74, 0
2, 160680, Note_on_c, 0, 76, 90
2, 160775, Note_on_c, 0, 76, 0
2, 160800, Note_on_c, 0, 78, 90
2, 160895, Note_on_c, 0, 78, 0
2, 160920, Note_on_c, 0, 79, 90
2, 160967, Note_on_c, 0, 79, 0
2, 160980, Note_on_c, 0, 71, 90
2, 161027, Note_on_c, 0, 71, 0
2, 161040, Note_on_c, 0, 72, 90
2, 161087, Note_on_c, 0, 72, 0
2, 161100, Note_on_c, 0, 74, 90
2, 161147, Note_on_c, 0, 74, 0
2, 161160, Note_on_c, 0, 69, 90
2, 161190, Note_on_c, 0, 69, 0
2, 161190, Note_on_c, 0, 71, 90
2, 161220, Note_on_c, 0, 71, 0
2, 161220, Note_on_c, 0, 69, 90
2, 161240, Note_on_c, 0, 69, 0
2, 161240, Note_on_c, 0, 71, 90
2, 161260, Note_on_c, 0, 71, 0
2, 161260, Note_on_c, 0, 69, 90
2, 161280, Note_on_c, 0, 69, 0
2, 161280, Note_on_c, 0, 71, 90
2, 161310, Note_on_c, 0, 71, 0
2, 161310, Note_on_c, 0, 69, 90
2, 161340, Note_on_c, 0, 69, 0
2, 161340, Note_on_c, 0, 67, 90
2, 161387, Note_on_c, 0, 67, 0
2, 161400, Note_on_c, 0, 67, 90
2, 161591, Note_on_c, 0, 67, 0
2, 161640, Note_on_c, 0, 67, 90
2, 161687, Note_on_c, 0, 67, 0
2, 161700, Note_on_c, 0, 71, 90
2, 161747, Note_on_c, 0, 71, 0
2, 161760, Note_on_c, 0, 74, 90
2, 161807, Note_on_c, 0, 74, 0
2, 161820, Note_on_c, 0, 79, 90
2, 161867, Note_on_c, 0, 79, 0
2, 161880, Note_on_c, 0, 67, 90
2, 161927, Note_on_c, 0, 67, 0
2, 161940, Note_on_c, 0, 71, 90
2, 161987, Note_on_c, 0, 71, 0
2, 162000, Note_on_c, 0, 76, 90
2, 162047, Note_on_c, 0, 76, 0
2, 162060, Note_on_c, 0, 79, 90
2, 162107, Note_on_c, 0, 79, 0
2, 162120, Note_on_c, 0, 78, 90
2, 162167, Note_on_c, 0, 78, 0
2, 162180, Note_on_c, 0, 81, 90
2, 162227, Note_on_c, 0, 81, 0
2, 162240, Note_on_c, 0, 74, 90
2, 162287, Note_on_c, 0, 74, 0
2, 162300, Note_on_c, 0, 79, 90
2, 162347, Note_on_c, 0, 79, 0
2, 162360, Note_on_c, 0, 79, 90
2, 162407, Note_on_c, 0, 79, 0
2, 162420, Note_on_c, 0, 78, 90
2, 162467, Note_on_c, 0, 78, 0
2, 162480, Note_on_c, 0, 76, 90
2, 162527, Note_on_c, 0, 76, 0
2, 162540, Note_on_c, 0, 74, 90
2, 162587, Note_on_c, 0, 74, 0
2, 163200, Note_on_c, 0, 69, 90
2, 163295, Note_on_c, 0, 69, 0
2, 163320, Note_on_c, 0, 67, 90
2, 163511, Note_on_c, 0, 67, 0
2, 164160, Note_on_c, 0, 69, 90
2, 164255, Note_on_c, 0, 69, 0
2, 164280, Note_on_c, 0, 69, 90
2, 164471, Note_on_c, 0, 69, 0
2, 165120, Note_on_c, 0, 73, 90
2, 165215, Note_on_c, 0, 73, 0
2, 165240, Note_on_c, 0, 74, 90
2, 165431, Note_on_c, 0, 74, 0
2, 166080, Note_on_c, 0, 76, 90
2, 166175, Note_on_c, 0, 76, 0
2, 166200, Note_on_c, 0, 72, 90
2, 166391, Note_on_c, 0, 72, 0
2, 167040, Note_on_c, 0, 76, 90
2, 167135, Note_on_c, 0, 76, 0
2, 167160, Note_on_c, 0, 74, 90
2, 167351, Note_on_c, 0, 74, 0
2, 168000, Note_on_c, 0, 77, 90
2, 168095, Note_on_c, 0, 77, 0
2, 168120, Note_on_c, 0, 76, 90
2, 168311, Note_on_c, 0, 76, 0
2, 168360, Note_on_c, 0, 67, 90
2, 168407, Note_on_c, 0, 67, 0
2, 168420, Note_on_c, 0, 72, 90
2, 168467, Note_on_c, 0, 72, 0
2, 168480, Note_on_c, 0, 76, 90
2, 168527, Note_on_c, 0, 76, 0
2, 168540, Note_on_c, 0, 79, 90
2, 168587, Note_on_c, 0, 79, 0
2, 168600, Note_on_c, 0, 67, 90
2, 168647, Note_on_c, 0, 67, 0
2, 168660, Note_on_c, 0, 71, 90
2, 168707, Note_on_c, 0, 71, 0
2, 168720, Note_on_c, 0, 74, 90
2, 168767, Note_on_c, 0, 74, 0
2, 168780, Note_on_c, 0, 79, 90
2, 168827, Note_on_c, 0, 79, 0
2, 168840, Note_on_c, 0, 78, 90
2, 168887, Note_on_c, 0, 78, 0
2, 168900, Note_on_c, 0, 81, 90
2, 168947, Note_on_c, 0, 81, 0
2, 168960, Note_on_c, 0, 74, 90
2, 169007, Note_on_c, 0, 74, 0
2, 169020, Note_on_c, 0, 78, 90
2, 169067, Note_on_c, 0, 78, 0
2, 169080, Note_on_c, 0, 79, 90
2, 169175, Note_on_c, 0, 79, 0
2, 169200, Note_on_c, 0, 67, 90
2, 169295, Note_on_c, 0, 67, 0
2, 169320, Note_on_c, 0, 71, 90
2, 169415, Note_on_c, 0, 71, 0
2, 169440, Note_on_c, 0, 69, 90
2, 169487, Note_on_c, 0, 69, 0
2, 169500, Note_on_c, 0, 67, 90
2, 169547, Note_on_c, 0, 67, 0
2, 169560, Note_on_c, 0, 74, 90
2, 169703, Note_on_c, 0, 74, 0
2, 169740, Note_on_c, 0, 76, 90
2, 169787, Note_on_c, 0, 76, 0
2, 169800, Note_on_c, 0, 72, 90
2, 169895, Note_on_c, 0, 72, 0
2, 169920, Note_on_c, 0, 71, 90
2, 169967, Note_on_c, 0, 71, 0
2, 169980, Note_on_c, 0, 69, 90
2, 170027, Note_on_c, 0, 69, 0
2, 170040, Note_on_c, 0, 69, 90
2, 170231, Note_on_c, 0, 69, 0
2, 170280, Note_on_c, 0, 74, 90
2, 170375, Note_on_c, 0, 74, 0
2, 170400, Note_on_c, 0, 71, 90
2, 170495, Note_on_c, 0, 71, 0
2, 170520, Note_on_c, 0, 67, 90
2, 170663, Note_on_c, 0, 67, 0
2, 170700, Note_on_c, 0, 72, 90
2, 170747, Note_on_c, 0, 72, 0
2, 170760, Note_on_c, 0, 69, 90
2, 170855, Note_on_c, 0, 69, 0
2, 170880, Note_on_c, 0, 74, 90
2, 170975, Note_on_c, 0, 74, 0
2, 171000, Note_on_c, 0, 71, 90
2, 171016, Note_on_c, 0, 71, 0
2, 171020, Note_on_c, 0, 72, 90
2, 171036, Note_on_c, 0, 72, 0
2, 171040, Note_on_c, 0, 71, 90
2, 171056, Note_on_c, 0, 71, 0
2, 171060, Note_on_c, 0, 72, 90
2, 171072, Note_on_c, 0, 72, 0
2, 171075, Note_on_c, 0, 71, 90
2, 171087, Note_on_c, 0, 71, 0
2, 171090, Note_on_c, 0, 72, 90
2, 171102, Note_on_c, 0, 72, 0
2, 171105, Note_on_c, 0, 71, 90
2, 171117, Note_on_c, 0, 71, 0
2, 171120, Note_on_c, 0, 69, 90
2, 171167, Note_on_c, 0, 69, 0
2, 171180, Note_on_c, 0, 67, 90
2, 171227, Note_on_c, 0, 67, 0
2, 171240, Note_on_c, 0, 71, 90
2, 171335, Note_on_c, 0, 71, 0
2, 171360, Note_on_c, 0, 76, 90
2, 171455, Note_on_c, 0, 76, 0
2, 171480, Note_on_c, 0, 73, 90
2, 171623, Note_on_c, 0, 73, 0
2, 171660, Note_on_c, 0, 74, 90
2, 171707, Note_on_c, 0, 74, 0
2, 171720, Note_on_c, 0, 76, 90
2, 171815, Note_on_c, 0, 76, 0
2, 171840, Note_on_c, 0, 78, 90
2, 171887, Note_on_c, 0, 78, 0
2, 171900, Note_on_c, 0, 79, 90
2, 171947, Note_on_c, 0, 79, 0
2, 171960, Note_on_c, 0, 76, 90
2, 172151, Note_on_c, 0, 76, 0
2, 172200, Note_on_c, 0, 81, 90
2, 172295, Note_on_c, 0, 81, 0
2, 172320, Note_on_c, 0, 73, 90
2, 172415, Note_on_c, 0, 73, 0
2, 172440, Note_on_c, 0, 74, 90
2, 172583, Note_on_c, 0, 74, 0
2, 172620, Note_on_c, 0, 76, 90
2, 172667, Note_on_c, 0, 76, 0
2, 172680, Note_on_c, 0, 76, 90
2, 172823, Note_on_c, 0, 76, 0
2, 172860, Note_on_c, 0, 74, 90
2, 172907, Note_on_c, 0, 74, 0
2, 172920, Note_on_c, 0, 74, 90
2, 173111, Note_on_c, 0, 74, 0
2, 173160, Note_on_c, 0, 79, 90
2, 173255, Note_on_c, 0, 79, 0
2, 173280, Note_on_c, 0, 74, 90
2, 173375, Note_on_c, 0, 74, 0
2, 173400, Note_on_c, 0, 76, 90
2, 173543, Note_on_c, 0, 76, 0
2, 173580, Note_on_c, 0, 77, 90
2, 173627, Note_on_c, 0, 77, 0
2, 173640, Note_on_c, 0, 76, 90
2, 173687, Note_on_c, 0, 76, 0
2, 173700, Note_on_c, 0, 74, 90
2, 173747, Note_on_c, 0, 74, 0
2, 173760, Note_on_c, 0, 72, 90
2, 173807, Note_on_c, 0, 72, 0
2, 173820, Note_on_c, 0, 71, 90
2, 173867, Note_on_c, 0, 71, 0
2, 173880, Note_on_c, 0, 72, 90
2, 174071, Note_on_c, 0, 72, 0
2, 174120, Note_on_c, 0, 74, 90
2, 174215, Note_on_c, 0, 74, 0
2, 174240, Note_on_c, 0, 69, 90
2, 174335, Note_on_c, 0, 69, 0
2, 174360, Note_on_c, 0, 71, 90
2, 174455, Note_on_c, 0, 71, 0
2, 174480, Note_on_c, 0, 67, 90
2, 174575, Note_on_c, 0, 67, 0
2, 174600, Note_on_c, 0, 64, 90
2, 174695, Note_on_c, 0, 64, 0
2, 174720, Note_on_c, 0, 69, 90
2, 174815, Note_on_c, 0, 69, 0
2, 174840, Note_on_c, 0, 66, 90
2, 174935, Note_on_c, 0, 66, 0
2, 174960, Note_on_c, 0, 64, 90
2, 175007, Note_on_c, 0, 64, 0
2, 175020, Note_on_c, 0, 62, 90
2, 175067, Note_on_c, 0, 62, 0
2, 175080, Note_on_c, 0, 69, 90
2, 175175, Note_on_c, 0, 69, 0
2, 175200, Note_on_c, 0, 74, 90
2, 175295, Note_on_c, 0, 74, 0
2, 175320, Note_on_c, 0, 71, 90
2, 175463, Note_on_c, 0, 71, 0
2, 175500, Note_on_c, 0, 71, 90
2, 175547, Note_on_c, 0, 71, 0
2, 175560, Note_on_c, 0, 72, 90
2, 175655, Note_on_c, 0, 72, 0
2, 175680, Note_on_c, 0, 74, 90
2, 175775, Note_on_c, 0, 74, 0
2, 175800, Note_on_c, 0, 76, 90
2, 175943, Note_on_c, 0, 76, 0
2, 175980, Note_on_c, 0, 74, 90
2, 176027, Note_on_c, 0, 74, 0
2, 176040, Note_on_c, 0, 76, 90
2, 176135, Note_on_c, 0, 76, 0
2, 176160, Note_on_c, 0, 78, 90
2, 176255, Note_on_c, 0, 78, 0
2, 176280, Note_on_c, 0, 79, 90
2, 176327, Note_on_c, 0, 79, 0
2, 176340, Note_on_c, 0, 71, 90
2, 176387, Note_on_c, 0, 71, 0
2, 176400, Note_on_c, 0, 72, 90
2, 176447, Note_on_c, 0, 72, 0
2, 176460, Note_on_c, 0, 74, 90
2, 176507, Note_on_c, 0, 74, 0
2, 176520, Note_on_c, 0, 69, 90
2, 176663, Note_on_c, 0, 69, 0
2, 176700, Note_on_c, 0, 67, 90
2, 176747, Note_on_c, 0, 67, 0
2, 176760, Note_on_c, 0, 67, 90
2, 176951, Note_on_c, 0, 67, 0
2, 176951, End_track
3, 0, Start_track
3, 0, MIDI_port, 0
3, 0, Title_t, "Violin Solo"
3, 0, Program_c, 1, 40
3, 71340, Note_on_c, 1, 71, 90
3, 71399, Note_on_c, 1, 71, 0
3, 71400, Note_on_c, 1, 76, 90
3, 71489, Note_on_c, 1, 76, 0
3, 71490, Note_on_c, 1, 78, 90
3, 71504, Note_on_c, 1, 78, 0
3, 71505, Note_on_c, 1, 79, 90
3, 71519, Note_on_c, 1, 79, 0
3, 71520, Note_on_c, 1, 78, 90
3, 71549, Note_on_c, 1, 78, 0
3, 71550, Note_on_c, 1, 79, 90
3, 71579, Note_on_c, 1, 79, 0
3, 71580, Note_on_c, 1, 78, 90
3, 71609, Note_on_c, 1, 78, 0
3, 71610, Note_on_c, 1, 76, 90
3, 71639, Note_on_c, 1, 76, 0
3, 71640, Note_on_c, 1, 74, 90
3, 71669, Note_on_c, 1, 74, 0
3, 71670, Note_on_c, 1, 72, 90
3, 71699, Note_on_c, 1, 72, 0
3, 71700, Note_on_c, 1, 71, 90
3, 71729, Note_on_c, 1, 71, 0
3, 71730, Note_on_c, 1, 72, 90
3, 71759, Note_on_c, 1, 72, 0
3, 71760, Note_on_c, 1, 71, 90
3, 71819, Note_on_c, 1, 71, 0
3, 71820, Note_on_c, 1, 74, 90
3, 71879, Note_on_c, 1, 74, 0
3, 71880, Note_on_c, 1, 79, 90
3, 71969, Note_on_c, 1, 79, 0
3, 71970, Note_on_c, 1, 81, 90
3, 71984, Note_on_c, 1, 81, 0
3, 71985, Note_on_c, 1, 83, 90
3, 71999, Note_on_c, 1, 83, 0
3, 72000, Note_on_c, 1, 81, 90
3, 72029, Note_on_c, 1, 81, 0
3, 72030, Note_on_c, 1, 83, 90
3, 72059, Note_on_c, 1, 83, 0
3, 72060, Note_on_c, 1, 81, 90
3, 72089, Note_on_c, 1, 81, 0
3, 72090, Note_on_c, 1, 79, 90
3, 72119, Note_on_c, 1, 79, 0
3, 72120, Note_on_c, 1, 78, 90
3, 72149, Note_on_c, 1, 78, 0
3, 72150, Note_on_c, 1, 76, 90
3, 72179, Note_on_c, 1, 76, 0
3, 72180, Note_on_c, 1, 75, 90
3, 72209, Note_on_c, 1, 75, 0
3, 72210, Note_on_c, 1, 76, 90
3, 72239, Note_on_c, 1, 76, 0
3, 72240, Note_on_c, 1, 75, 90
3, 72269, Note_on_c, 1, 75, 0
3, 72270, Note_on_c, 1, 79, 90
3, 72299, Note_on_c, 1, 79, 0
3, 72300, Note_on_c, 1, 78, 90
3, 72329, Note_on_c, 1, 78, 0
3, 72330, Note_on_c, 1, 75, 90
3, 72359, Note_on_c, 1, 75, 0
3, 72360, Note_on_c, 1, 76, 90
3, 72389, Note_on_c, 1, 76, 0
3, 72390, Note_on_c, 1, 75, 90
3, 72419, Note_on_c, 1, 75, 0
3, 72420, Note_on_c, 1, 76, 90
3, 72449, Note_on_c, 1, 76, 0
3, 72450, Note_on_c, 1, 78, 90
3, 72479, Note_on_c, 1, 78, 0
3, 72480, Note_on_c, 1, 71, 90
3, 72509, Note_on_c, 1, 71, 0
3, 72510, Note_on_c, 1, 79, 90
3, 72539, Note_on_c, 1, 79, 0
3, 72540, Note_on_c, 1, 78, 90
3, 72569, Note_on_c, 1, 78, 0
3, 72570, Note_on_c, 1, 75, 90
3, 72599, Note_on_c, 1, 75, 0
3, 72600, Note_on_c, 1, 76, 90
3, 72629, Note_on_c, 1, 76, 0
3, 72630, Note_on_c, 1, 75, 90
3, 72659, Note_on_c, 1, 75, 0
3, 72660, Note_on_c, 1, 76, 90
3, 72689, Note_on_c, 1, 76, 0
3, 72690, Note_on_c, 1, 78, 90
3, 72719, Note_on_c, 1, 78, 0
3, 72720, Note_on_c, 1, 71, 90
3, 72749, Note_on_c, 1, 71, 0
3, 72750, Note_on_c, 1, 79, 90
3, 72779, Note_on_c, 1, 79, 0
3, 72780, Note_on_c, 1, 78, 90
3, 72809, Note_on_c, 1, 78, 0
3, 72810, Note_on_c, 1, 75, 90
3, 72839, Note_on_c, 1, 75, 0
3, 72840, Note_on_c, 1, 76, 90
3, 72869, Note_on_c, 1, 76, 0
3, 72870, Note_on_c, 1, 75, 90
3, 72899, Note_on_c, 1, 75, 0
3, 72900, Note_on_c, 1, 76, 90
3, 72929, Note_on_c, 1, 76, 0
3, 72930, Note_on_c, 1, 78, 90
3, 72959, Note_on_c, 1, 78, 0
3, 72960, Note_on_c, 1, 69, 90
3, 72989, Note_on_c, 1, 69, 0
3, 72990, Note_on_c, 1, 79, 90
3, 73019, Note_on_c, 1, 79, 0
3, 73020, Note_on_c, 1, 78, 90
3, 73049, Note_on_c, 1, 78, 0
3, 73050, Note_on_c, 1, 75, 90
3, 73079, Note_on_c, 1, 75, 0
3, 73080, Note_on_c, 1, 76, 90
3, 73109, Note_on_c, 1, 76, 0
3, 73110, Note_on_c, 1, 75, 90
3, 73139, Note_on_c, 1, 75, 0
3, 73140, Note_on_c, 1, 76, 90
3, 73169, Note_on_c, 1, 76, 0
3, 73170, Note_on_c, 1, 78, 90
3, 73199, Note_on_c, 1, 78, 0
3, 73200, Note_on_c, 1, 67, 90
3, 73259, Note_on_c, 1, 67, 0
3, 73260, Note_on_c, 1, 64, 90
3, 73319, Note_on_c, 1, 64, 0
3, 73320, Note_on_c, 1, 71, 90
3, 73409, Note_on_c, 1, 71, 0
3, 73410, Note_on_c, 1, 72, 90
3, 73424, Note_on_c, 1, 72, 0
3, 73425, Note_on_c, 1, 74, 90
3, 73439, Note_on_c, 1, 74, 0
3, 73440, Note_on_c, 1, 72, 90
3, 73469, Note_on_c, 1, 72, 0
3, 73470, Note_on_c, 1, 74, 90
3, 73499, Note_on_c, 1, 74, 0
3, 73500, Note_on_c, 1, 72, 90
3, 73529, Note_on_c, 1, 72, 0
3, 73530, Note_on_c, 1, 71, 90
3, 73559, Note_on_c, 1, 71, 0
3, 73560, Note_on_c, 1, 69, 90
3, 73589, Note_on_c, 1, 69, 0
3, 73590, Note_on_c, 1, 67, 90
3, 73619, Note_on_c, 1, 67, 0
3, 73620, Note_on_c, 1, 66, 90
3, 73649, Note_on_c, 1, 66, 0
3, 73650, Note_on_c, 1, 64, 90
3, 73679, Note_on_c, 1, 64, 0
3, 73680, Note_on_c, 1, 71, 90
3, 73709, Note_on_c, 1, 71, 0
3, 73710, Note_on_c, 1, 72, 90
3, 73739, Note_on_c, 1, 72, 0
3, 73740, Note_on_c, 1, 71, 90
3, 73769, Note_on_c, 1, 71, 0
3, 73770, Note_on_c, 1, 69, 90
3, 73799, Note_on_c, 1, 69, 0
3, 73800, Note_on_c, 1, 67, 90
3, 73829, Note_on_c, 1, 67, 0
3, 73830, Note_on_c, 1, 66, 90
3, 73859, Note_on_c, 1, 66, 0
3, 73860, Note_on_c, 1, 64, 90
3, 73889, Note_on_c, 1, 64, 0
3, 73890, Note_on_c, 1, 63, 90
3, 73919, Note_on_c, 1, 63, 0
3, 73920, Note_on_c, 1, 64, 90
3, 73949, Note_on_c, 1, 64, 0
3, 73950, Note_on_c, 1, 63, 90
3, 73979, Note_on_c, 1, 63, 0
3, 73980, Note_on_c, 1, 64, 90
3, 74009, Note_on_c, 1, 64, 0
3, 74010, Note_on_c, 1, 66, 90
3, 74039, Note_on_c, 1, 66, 0
3, 74040, Note_on_c, 1, 59, 90
3, 74099, Note_on_c, 1, 59, 0
3, 74100, Note_on_c, 1, 63, 90
3, 74159, Note_on_c, 1, 63, 0
3, 74160, Note_on_c, 1, 64, 90
3, 74279, Note_on_c, 1, 64, 0
3, 74700, Note_on_c, 1, 74, 90
3, 74759, Note_on_c, 1, 74, 0
3, 74760, Note_on_c, 1, 79, 90
3, 74849, Note_on_c, 1, 79, 0
3, 74850, Note_on_c, 1, 81, 90
3, 74864, Note_on_c, 1, 81, 0
3, 74865, Note_on_c, 1, 83, 90
3, 74879, Note_on_c, 1, 83, 0
3, 74880, Note_on_c, 1, 81, 90
3, 74909, Note_on_c, 1, 81, 0
3, 74910, Note_on_c, 1, 83, 90
3, 74939, Note_on_c, 1, 83, 0
3, 74940, Note_on_c, 1, 81, 90
3, 74969, Note_on_c, 1, 81, 0
3, 74970, Note_on_c, 1, 79, 90
3, 74999, Note_on_c, 1, 79, 0
3, 75000, Note_on_c, 1, 78, 90
3, 75029, Note_on_c, 1, 78, 0
3, 75030, Note_on_c, 1, 76, 90
3, 75059, Note_on_c, 1, 76, 0
3, 75060, Note_on_c, 1, 75, 90
3, 75089, Note_on_c, 1, 75, 0
3, 75090, Note_on_c, 1, 76, 90
3, 75119, Note_on_c, 1, 76, 0
3, 75120, Note_on_c, 1, 75, 90
3, 75149, Note_on_c, 1, 75, 0
3, 75150, Note_on_c, 1, 79, 90
3, 75179, Note_on_c, 1, 79, 0
3, 75180, Note_on_c, 1, 78, 90
3, 75209, Note_on_c, 1, 78, 0
3, 75210, Note_on_c, 1, 75, 90
3, 75239, Note_on_c, 1, 75, 0
3, 75240, Note_on_c, 1, 76, 90
3, 75269, Note_on_c, 1, 76, 0
3, 75270, Note_on_c, 1, 75, 90
3, 75299, Note_on_c, 1, 75, 0
3, 75300, Note_on_c, 1, 76, 90
3, 75329, Note_on_c, 1, 76, 0
3, 75330, Note_on_c, 1, 78, 90
3, 75359, Note_on_c, 1, 78, 0
3, 75360, Note_on_c, 1, 71, 90
3, 75389, Note_on_c, 1, 71, 0
3, 75390, Note_on_c, 1, 79, 90
3, 75419, Note_on_c, 1, 79, 0
3, 75420, Note_on_c, 1, 78, 90
3, 75449, Note_on_c, 1, 78, 0
3, 75450, Note_on_c, 1, 75, 90
3, 75479, Note_on_c, 1, 75, 0
3, 75480, Note_on_c, 1, 76, 90
3, 75509, Note_on_c, 1, 76, 0
3, 75510, Note_on_c, 1, 75, 90
3, 75539, Note_on_c, 1, 75, 0
3, 75540, Note_on_c, 1, 76, 90
3, 75569, Note_on_c, 1, 76, 0
3, 75570, Note_on_c, 1, 78, 90
3, 75599, Note_on_c, 1, 78, 0
3, 75600, Note_on_c, 1, 71, 90
3, 75629, Note_on_c, 1, 71, 0
3, 75630, Note_on_c, 1, 79, 90
3, 75659, Note_on_c, 1, 79, 0
3, 75660, Note_on_c, 1, 78, 90
3, 75689, Note_on_c, 1, 78, 0
3, 75690, Note_on_c, 1, 75, 90
3, 75719, Note_on_c, 1, 75, 0
3, 75720, Note_on_c, 1, 76, 90
3, 75749, Note_on_c, 1, 76, 0
3, 75750, Note_on_c, 1, 75, 90
3, 75779, Note_on_c, 1, 75, 0
3, 75780, Note_on_c, 1, 76, 90
3, 75809, Note_on_c, 1, 76, 0
3, 75810, Note_on_c, 1, 78, 90
3, 75839, Note_on_c, 1, 78, 0
3, 75840, Note_on_c, 1, 69, 90
3, 75869, Note_on_c, 1, 69, 0
3, 75870, Note_on_c, 1, 79, 90
3, 75899, Note_on_c, 1, 79, 0
3, 75900, Note_on_c, 1, 78, 90
3, 75929, Note_on_c, 1, 78, 0
3, 75930, Note_on_c, 1, 75, 90
3, 75959, Note_on_c, 1, 75, 0
3, 75960, Note_on_c, 1, 76, 90
3, 75989, Note_on_c, 1, 76, 0
3, 75990, Note_on_c, 1, 75, 90
3, 76019, Note_on_c, 1, 75, 0
3, 76020, Note_on_c, 1, 76, 90
3, 76049, Note_on_c, 1, 76, 0
3, 76050, Note_on_c, 1, 78, 90
3, 76079, Note_on_c, 1, 78, 0
3, 76080, Note_on_c, 1, 67, 90
3, 76139, Note_on_c, 1, 67, 0
3, 76140, Note_on_c, 1, 64, 90
3, 76199, Note_on_c, 1, 64, 0
3, 76620, Note_on_c, 1, 62, 90
3, 76679, Note_on_c, 1, 62, 0
3, 76680, Note_on_c, 1, 67, 90
3, 76769, Note_on_c, 1, 67, 0
3, 76770, Note_on_c, 1, 69, 90
3, 76784, Note_on_c, 1, 69, 0
3, 76785, Note_on_c, 1, 71, 90
3, 76799, Note_on_c, 1, 71, 0
3, 76800, Note_on_c, 1, 69, 90
3, 76829, Note_on_c, 1, 69, 0
3, 76830, Note_on_c, 1, 71, 90
3, 76859, Note_on_c, 1, 71, 0
3, 76860, Note_on_c, 1, 69, 90
3, 76889, Note_on_c, 1, 69, 0
3, 76890, Note_on_c, 1, 67, 90
3, 76919, Note_on_c, 1, 67, 0
3, 76920, Note_on_c, 1, 66, 90
3, 76949, Note_on_c, 1, 66, 0
3, 76950, Note_on_c, 1, 64, 90
3, 76979, Note_on_c, 1, 64, 0
3, 76980, Note_on_c, 1, 63, 90
3, 77009, Note_on_c, 1, 63, 0
3, 77010, Note_on_c, 1, 64, 90
3, 77039, Note_on_c, 1, 64, 0
3, 77040, Note_on_c, 1, 63, 90
3, 77069, Note_on_c, 1, 63, 0
3, 77070, Note_on_c, 1, 79, 90
3, 77099, Note_on_c, 1, 79, 0
3, 77100, Note_on_c, 1, 78, 90
3, 77129, Note_on_c, 1, 78, 0
3, 77130, Note_on_c, 1, 75, 90
3, 77159, Note_on_c, 1, 75, 0
3, 77160, Note_on_c, 1, 76, 90
3, 77189, Note_on_c, 1, 76, 0
3, 77190, Note_on_c, 1, 75, 90
3, 77219, Note_on_c, 1, 75, 0
3, 77220, Note_on_c, 1, 76, 90
3, 77249, Note_on_c, 1, 76, 0
3, 77250, Note_on_c, 1, 78, 90
3, 77279, Note_on_c, 1, 78, 0
3, 77280, Note_on_c, 1, 71, 90
3, 77399, Note_on_c, 1, 71, 0
3, 78270, Note_on_c, 1, 71, 90
3, 78299, Note_on_c, 1, 71, 0
3, 78300, Note_on_c, 1, 69, 90
3, 78329, Note_on_c, 1, 69, 0
3, 78330, Note_on_c, 1, 66, 90
3, 78359, Note_on_c, 1, 66, 0
3, 78360, Note_on_c, 1, 67, 90
3, 78389, Note_on_c, 1, 67, 0
3, 78390, Note_on_c, 1, 66, 90
3, 78419, Note_on_c, 1, 66, 0
3, 78420, Note_on_c, 1, 67, 90
3, 78449, Note_on_c, 1, 67, 0
3, 78450, Note_on_c, 1, 69, 90
3, 78479, Note_on_c, 1, 69, 0
3, 78480, Note_on_c, 1, 62, 90
3, 78750, Note_on_c, 1, 62, 0
3, 78750, Note_on_c, 1, 71, 90
3, 78779, Note_on_c, 1, 71, 0
3, 78780, Note_on_c, 1, 69, 90
3, 78809, Note_on_c, 1, 69, 0
3, 78810, Note_on_c, 1, 66, 90
3, 78839, Note_on_c, 1, 66, 0
3, 78840, Note_on_c, 1, 67, 90
3, 78869, Note_on_c, 1, 67, 0
3, 78870, Note_on_c, 1, 66, 90
3, 78899, Note_on_c, 1, 66, 0
3, 78900, Note_on_c, 1, 67, 90
3, 78929, Note_on_c, 1, 67, 0
3, 78930, Note_on_c, 1, 69, 90
3, 78959, Note_on_c, 1, 69, 0
3, 78960, Note_on_c, 1, 62, 90
3, 79230, Note_on_c, 1, 62, 0
3, 79230, Note_on_c, 1, 71, 90
3, 79259, Note_on_c, 1, 71, 0
3, 79260, Note_on_c, 1, 69, 90
3, 79289, Note_on_c, 1, 69, 0
3, 79290, Note_on_c, 1, 66, 90
3, 79319, Note_on_c, 1, 66, 0
3, 79320, Note_on_c, 1, 67, 90
3, 79349, Note_on_c, 1, 67, 0
3, 79350, Note_on_c, 1, 64, 90
3, 79379, Note_on_c, 1, 64, 0
3, 79380, Note_on_c, 1, 66, 90
3, 79409, Note_on_c, 1, 66, 0
3, 79410, Note_on_c, 1, 67, 90
3, 79439, Note_on_c, 1, 67, 0
3, 79440, Note_on_c, 1, 61, 90
3, 79559, Note_on_c, 1, 61, 0
3, 79980, Note_on_c, 1, 71, 90
3, 80039, Note_on_c, 1, 71, 0
3, 80040, Note_on_c, 1, 78, 90
3, 80129, Note_on_c, 1, 78, 0
3, 80130, Note_on_c, 1, 79, 90
3, 80144, Note_on_c, 1, 79, 0
3, 80145, Note_on_c, 1, 81, 90
3, 80159, Note_on_c, 1, 81, 0
3, 80160, Note_on_c, 1, 79, 90
3, 80189, Note_on_c, 1, 79, 0
3, 80190, Note_on_c, 1, 81, 90
3, 80219, Note_on_c, 1, 81, 0
3, 80220, Note_on_c, 1, 79, 90
3, 80249, Note_on_c, 1, 79, 0
3, 80250, Note_on_c, 1, 78, 90
3, 80279, Note_on_c, 1, 78, 0
3, 80280, Note_on_c, 1, 76, 90
3, 80309, Note_on_c, 1, 76, 0
3, 80310, Note_on_c, 1, 74, 90
3, 80339, Note_on_c, 1, 74, 0
3, 80340, Note_on_c, 1, 73, 90
3, 80369, Note_on_c, 1, 73, 0
3, 80370, Note_on_c, 1, 71, 90
3, 80399, Note_on_c, 1, 71, 0
3, 80400, Note_on_c, 1, 78, 90
3, 80429, Note_on_c, 1, 78, 0
3, 80430, Note_on_c, 1, 79, 90
3, 80459, Note_on_c, 1, 79, 0
3, 80460, Note_on_c, 1, 78, 90
3, 80489, Note_on_c, 1, 78, 0
3, 80490, Note_on_c, 1, 76, 90
3, 80519, Note_on_c, 1, 76, 0
3, 80520, Note_on_c, 1, 74, 90
3, 80549, Note_on_c, 1, 74, 0
3, 80550, Note_on_c, 1, 73, 90
3, 80579, Note_on_c, 1, 73, 0
3, 80580, Note_on_c, 1, 71, 90
3, 80609, Note_on_c, 1, 71, 0
3, 80610, Note_on_c, 1, 70, 90
3, 80639, Note_on_c, 1, 70, 0
3, 80640, Note_on_c, 1, 71, 90
3, 80669, Note_on_c, 1, 71, 0
3, 80670, Note_on_c, 1, 70, 90
3, 80699, Note_on_c, 1, 70, 0
3, 80700, Note_on_c, 1, 71, 90
3, 80729, Note_on_c, 1, 71, 0
3, 80730, Note_on_c, 1, 73, 90
3, 80759, Note_on_c, 1, 73, 0
3, 80760, Note_on_c, 1, 66, 90
3, 80819, Note_on_c, 1, 66, 0
3, 80820, Note_on_c, 1, 70, 90
3, 80879, Note_on_c, 1, 70, 0
3, 80880, Note_on_c, 1, 71, 90
3, 80939, Note_on_c, 1, 71, 0
3, 80940, Note_on_c, 1, 66, 90
3, 80999, Note_on_c, 1, 66, 0
3, 81000, Note_on_c, 1, 71, 90
3, 81089, Note_on_c, 1, 71, 0
3, 81090, Note_on_c, 1, 73, 90
3, 81104, Note_on_c, 1, 73, 0
3, 81105, Note_on_c, 1, 74, 90
3, 81119, Note_on_c, 1, 74, 0
3, 81120, Note_on_c, 1, 73, 90
3, 81149, Note_on_c, 1, 73, 0
3, 81150, Note_on_c, 1, 74, 90
3, 81179, Note_on_c, 1, 74, 0
3, 81180, Note_on_c, 1, 73, 90
3, 81209, Note_on_c, 1, 73, 0
3, 81210, Note_on_c, 1, 71, 90
3, 81239, Note_on_c, 1, 71, 0
3, 81240, Note_on_c, 1, 69, 90
3, 81269, Note_on_c, 1, 69, 0
3, 81270, Note_on_c, 1, 67, 90
3, 81299, Note_on_c, 1, 67, 0
3, 81300, Note_on_c, 1, 66, 90
3, 81329, Note_on_c, 1, 66, 0
3, 81330, Note_on_c, 1, 67, 90
3, 81359, Note_on_c, 1, 67, 0
3, 81360, Note_on_c, 1, 66, 90
3, 81419, Note_on_c, 1, 66, 0
3, 81420, Note_on_c, 1, 69, 90
3, 81479, Note_on_c, 1, 69, 0
3, 81480, Note_on_c, 1, 74, 90
3, 81569, Note_on_c, 1, 74, 0
3, 81570, Note_on_c, 1, 76, 90
3, 81584, Note_on_c, 1, 76, 0
3, 81585, Note_on_c, 1, 78, 90
3, 81599, Note_on_c, 1, 78, 0
3, 81600, Note_on_c, 1, 76, 90
3, 81629, Note_on_c, 1, 76, 0
3, 81630, Note_on_c, 1, 78, 90
3, 81659, Note_on_c, 1, 78, 0
3, 81660, Note_on_c, 1, 76, 90
3, 81689, Note_on_c, 1, 76, 0
3, 81690, Note_on_c, 1, 74, 90
3, 81719, Note_on_c, 1, 74, 0
3, 81720, Note_on_c, 1, 73, 90
3, 81749, Note_on_c, 1, 73, 0
3, 81750, Note_on_c, 1, 71, 90
3, 81779, Note_on_c, 1, 71, 0
3, 81780, Note_on_c, 1, 70, 90
3, 81809, Note_on_c, 1, 70, 0
3, 81810, Note_on_c, 1, 71, 90
3, 81839, Note_on_c, 1, 71, 0
3, 81840, Note_on_c, 1, 70, 90
3, 81869, Note_on_c, 1, 70, 0
3, 81870, Note_on_c, 1, 74, 90
3, 81899, Note_on_c, 1, 74, 0
3, 81900, Note_on_c, 1, 73, 90
3, 81929, Note_on_c, 1, 73, 0
3, 81930, Note_on_c, 1, 70, 90
3, 81959, Note_on_c, 1, 70, 0
3, 81960, Note_on_c, 1, 71, 90
3, 81989, Note_on_c, 1, 71, 0
3, 81990, Note_on_c, 1, 70, 90
3, 82019, Note_on_c, 1, 70, 0
3, 82020, Note_on_c, 1, 71, 90
3, 82049, Note_on_c, 1, 71, 0
3, 82050, Note_on_c, 1, 73, 90
3, 82079, Note_on_c, 1, 73, 0
3, 82080, Note_on_c, 1, 66, 90
3, 82109, Note_on_c, 1, 66, 0
3, 82110, Note_on_c, 1, 74, 90
3, 82139, Note_on_c, 1, 74, 0
3, 82140, Note_on_c, 1, 73, 90
3, 82169, Note_on_c, 1, 73, 0
3, 82170, Note_on_c, 1, 70, 90
3, 82199, Note_on_c, 1, 70, 0
3, 82200, Note_on_c, 1, 71, 90
3, 82229, Note_on_c, 1, 71, 0
3, 82230, Note_on_c, 1, 70, 90
3, 82259, Note_on_c, 1, 70, 0
3, 82260, Note_on_c, 1, 71, 90
3, 82289, Note_on_c, 1, 71, 0
3, 82290, Note_on_c, 1, 73, 90
3, 82319, Note_on_c, 1, 73, 0
3, 82320, Note_on_c, 1, 66, 90
3, 82349, Note_on_c, 1, 66, 0
3, 82350, Note_on_c, 1, 74, 90
3, 82379, Note_on_c, 1, 74, 0
3, 82380, Note_on_c, 1, 73, 90
3, 82409, Note_on_c, 1, 73, 0
3, 82410, Note_on_c, 1, 70, 90
3, 82439, Note_on_c, 1, 70, 0
3, 82440, Note_on_c, 1, 71, 90
3, 82469, Note_on_c, 1, 71, 0
3, 82470, Note_on_c, 1, 70, 90
3, 82499, Note_on_c, 1, 70, 0
3, 82500, Note_on_c, 1, 71, 90
3, 82529, Note_on_c, 1, 71, 0
3, 82530, Note_on_c, 1, 73, 90
3, 82559, Note_on_c, 1, 73, 0
3, 82560, Note_on_c, 1, 64, 90
3, 82589, Note_on_c, 1, 64, 0
3, 82590, Note_on_c, 1, 74, 90
3, 82619, Note_on_c, 1, 74, 0
3, 82620, Note_on_c, 1, 73, 90
3, 82649, Note_on_c, 1, 73, 0
3, 82650, Note_on_c, 1, 70, 90
3, 82679, Note_on_c, 1, 70, 0
3, 82680, Note_on_c, 1, 71, 90
3, 82709, Note_on_c, 1, 71, 0
3, 82710, Note_on_c, 1, 70, 90
3, 82739, Note_on_c, 1, 70, 0
3, 82740, Note_on_c, 1, 71, 90
3, 82769, Note_on_c, 1, 71, 0
3, 82770, Note_on_c, 1, 73, 90
3, 82799, Note_on_c, 1, 73, 0
3, 82800, Note_on_c, 1, 62, 90
3, 82859, Note_on_c, 1, 62, 0
3, 82860, Note_on_c, 1, 59, 90
3, 82919, Note_on_c, 1, 59, 0
3, 82920, Note_on_c, 1, 66, 90
3, 83009, Note_on_c, 1, 66, 0
3, 83010, Note_on_c, 1, 67, 90
3, 83024, Note_on_c, 1, 67, 0
3, 83025, Note_on_c, 1, 69, 90
3, 83039, Note_on_c, 1, 69, 0
3, 83040, Note_on_c, 1, 67, 90
3, 83069, Note_on_c, 1, 67, 0
3, 83070, Note_on_c, 1, 69, 90
3, 83099, Note_on_c, 1, 69, 0
3, 83100, Note_on_c, 1, 67, 90
3, 83129, Note_on_c, 1, 67, 0
3, 83130, Note_on_c, 1, 66, 90
3, 83159, Note_on_c, 1, 66, 0
3, 83160, Note_on_c, 1, 64, 90
3, 83189, Note_on_c, 1, 64, 0
3, 83190, Note_on_c, 1, 62, 90
3, 83219, Note_on_c, 1, 62, 0
3, 83220, Note_on_c, 1, 61, 90
3, 83249, Note_on_c, 1, 61, 0
3, 83250, Note_on_c, 1, 59, 90
3, 83279, Note_on_c, 1, 59, 0
3, 83280, Note_on_c, 1, 57, 90
3, 83399, Note_on_c, 1, 57, 0
3, 83790, Note_on_c, 1, 78, 90
3, 83819, Note_on_c, 1, 78, 0
3, 83820, Note_on_c, 1, 76, 90
3, 83849, Note_on_c, 1, 76, 0
3, 83850, Note_on_c, 1, 73, 90
3, 83879, Note_on_c, 1, 73, 0
3, 83880, Note_on_c, 1, 74, 90
3, 83909, Note_on_c, 1, 74, 0
3, 83910, Note_on_c, 1, 73, 90
3, 83939, Note_on_c, 1, 73, 0
3, 83940, Note_on_c, 1, 74, 90
3, 83969, Note_on_c, 1, 74, 0
3, 83970, Note_on_c, 1, 76, 90
3, 83999, Note_on_c, 1, 76, 0
3, 84000, Note_on_c, 1, 69, 90
3, 84270, Note_on_c, 1, 69, 0
3, 84270, Note_on_c, 1, 66, 90
3, 84299, Note_on_c, 1, 66, 0
3, 84300, Note_on_c, 1, 64, 90
3, 84329, Note_on_c, 1, 64, 0
3, 84330, Note_on_c, 1, 61, 90
3, 84359, Note_on_c, 1, 61, 0
3, 84360, Note_on_c, 1, 62, 90
3, 84389, Note_on_c, 1, 62, 0
3, 84390, Note_on_c, 1, 61, 90
3, 84419, Note_on_c, 1, 61, 0
3, 84420, Note_on_c, 1, 62, 90
3, 84449, Note_on_c, 1, 62, 0
3, 84450, Note_on_c, 1, 64, 90
3, 84479, Note_on_c, 1, 64, 0
3, 84480, Note_on_c, 1, 57, 90
3, 84509, Note_on_c, 1, 57, 0
3, 84510, Note_on_c, 1, 66, 90
3, 84539, Note_on_c, 1, 66, 0
3, 84540, Note_on_c, 1, 71, 90
3, 84569, Note_on_c, 1, 71, 0
3, 84570, Note_on_c, 1, 69, 90
3, 84599, Note_on_c, 1, 69, 0
3, 84600, Note_on_c, 1, 61, 90
3, 84689, Note_on_c, 1, 61, 0
3, 84690, Note_on_c, 1, 62, 90
3, 84719, Note_on_c, 1, 62, 0
3, 84720, Note_on_c, 1, 62, 90
3, 84749, Note_on_c, 1, 62, 0
3, 84750, Note_on_c, 1, 66, 90
3, 84779, Note_on_c, 1, 66, 0
3, 84780, Note_on_c, 1, 64, 90
3, 84809, Note_on_c, 1, 64, 0
3, 84810, Note_on_c, 1, 61, 90
3, 84839, Note_on_c, 1, 61, 0
3, 84840, Note_on_c, 1, 62, 90
3, 84869, Note_on_c, 1, 62, 0
3, 84870, Note_on_c, 1, 61, 90
3, 84899, Note_on_c, 1, 61, 0
3, 84900, Note_on_c, 1, 62, 90
3, 84929, Note_on_c, 1, 62, 0
3, 84930, Note_on_c, 1, 64, 90
3, 84959, Note_on_c, 1, 64, 0
3, 84960, Note_on_c, 1, 57, 90
3, 85230, Note_on_c, 1, 57, 0
3, 85230, Note_on_c, 1, 66, 90
3, 85259, Note_on_c, 1, 66, 0
3, 85260, Note_on_c, 1, 64, 90
3, 85289, Note_on_c, 1, 64, 0
3, 85290, Note_on_c, 1, 61, 90
3, 85319, Note_on_c, 1, 61, 0
3, 85320, Note_on_c, 1, 62, 90
3, 85349, Note_on_c, 1, 62, 0
3, 85350, Note_on_c, 1, 61, 90
3, 85379, Note_on_c, 1, 61, 0
3, 85380, Note_on_c, 1, 62, 90
3, 85409, Note_on_c, 1, 62, 0
3, 85410, Note_on_c, 1, 64, 90
3, 85439, Note_on_c, 1, 64, 0
3, 85440, Note_on_c, 1, 57, 90
3, 85710, Note_on_c, 1, 57, 0
3, 85710, Note_on_c, 1, 66, 90
3, 85739, Note_on_c, 1, 66, 0
3, 85740, Note_on_c, 1, 64, 90
3, 85769, Note_on_c, 1, 64, 0
3, 85770, Note_on_c, 1, 61, 90
3, 85799, Note_on_c, 1, 61, 0
3, 85800, Note_on_c, 1, 62, 90
3, 85829, Note_on_c, 1, 62, 0
3, 85830, Note_on_c, 1, 61, 90
3, 85859, Note_on_c, 1, 61, 0
3, 85860, Note_on_c, 1, 62, 90
3, 85889, Note_on_c, 1, 62, 0
3, 85890, Note_on_c, 1, 64, 90
3, 85919, Note_on_c, 1, 64, 0
3, 85920, Note_on_c, 1, 57, 90
3, 85949, Note_on_c, 1, 57, 0
3, 85950, Note_on_c, 1, 71, 90
3, 85979, Note_on_c, 1, 71, 0
3, 85980, Note_on_c, 1, 69, 90
3, 86009, Note_on_c, 1, 69, 0
3, 86010, Note_on_c, 1, 66, 90
3, 86039, Note_on_c, 1, 66, 0
3, 86040, Note_on_c, 1, 67, 90
3, 86069, Note_on_c, 1, 67, 0
3, 86070, Note_on_c, 1, 66, 90
3, 86099, Note_on_c, 1, 66, 0
3, 86100, Note_on_c, 1, 67, 90
3, 86129, Note_on_c, 1, 67, 0
3, 86130, Note_on_c, 1, 69, 90
3, 86159, Note_on_c, 1, 69, 0
3, 86160, Note_on_c, 1, 62, 90
3, 86189, Note_on_c, 1, 62, 0
3, 86190, Note_on_c, 1, 71, 90
3, 86219, Note_on_c, 1, 71, 0
3, 86220, Note_on_c, 1, 69, 90
3, 86249, Note_on_c, 1, 69, 0
3, 86250, Note_on_c, 1, 66, 90
3, 86279, Note_on_c, 1, 66, 0
3, 86280, Note_on_c, 1, 67, 90
3, 86309, Note_on_c, 1, 67, 0
3, 86310, Note_on_c, 1, 66, 90
3, 86339, Note_on_c, 1, 66, 0
3, 86340, Note_on_c, 1, 67, 90
3, 86369, Note_on_c, 1, 67, 0
3, 86370, Note_on_c, 1, 69, 90
3, 86399, Note_on_c, 1, 69, 0
3, 86400, Note_on_c, 1, 64, 90
3, 86429, Note_on_c, 1, 64, 0
3, 86430, Note_on_c, 1, 73, 90
3, 86459, Note_on_c, 1, 73, 0
3, 86460, Note_on_c, 1, 71, 90
3, 86489, Note_on_c, 1, 71, 0
3, 86490, Note_on_c, 1, 68, 90
3, 86519, Note_on_c, 1, 68, 0
3, 86520, Note_on_c, 1, 69, 90
3, 86549, Note_on_c, 1, 69, 0
3, 86550, Note_on_c, 1, 68, 90
3, 86579, Note_on_c, 1, 68, 0
3, 86580, Note_on_c, 1, 69, 90
3, 86609, Note_on_c, 1, 69, 0
3, 86610, Note_on_c, 1, 71, 90
3, 86639, Note_on_c, 1, 71, 0
3, 86640, Note_on_c, 1, 64, 90
3, 86669, Note_on_c, 1, 64, 0
3, 86670, Note_on_c, 1, 81, 90
3, 86699, Note_on_c, 1, 81, 0
3, 86700, Note_on_c, 1, 79, 90
3, 86729, Note_on_c, 1, 79, 0
3, 86730, Note_on_c, 1, 76, 90
3, 86759, Note_on_c, 1, 76, 0
3, 86760, Note_on_c, 1, 78, 90
3, 86789, Note_on_c, 1, 78, 0
3, 86790, Note_on_c, 1, 76, 90
3, 86819, Note_on_c, 1, 76, 0
3, 86820, Note_on_c, 1, 78, 90
3, 86849, Note_on_c, 1, 78, 0
3, 86850, Note_on_c, 1, 79, 90
3, 86879, Note_on_c, 1, 79, 0
3, 86880, Note_on_c, 1, 69, 90
3, 86909, Note_on_c, 1, 69, 0
3, 86910, Note_on_c, 1, 81, 90
3, 86939, Note_on_c, 1, 81, 0
3, 86940, Note_on_c, 1, 79, 90
3, 86969, Note_on_c, 1, 79, 0
3, 86970, Note_on_c, 1, 76, 90
3, 86999, Note_on_c, 1, 76, 0
3, 87000, Note_on_c, 1, 78, 90
3, 87029, Note_on_c, 1, 78, 0
3, 87030, Note_on_c, 1, 76, 90
3, 87059, Note_on_c, 1, 76, 0
3, 87060, Note_on_c, 1, 78, 90
3, 87089, Note_on_c, 1, 78, 0
3, 87090, Note_on_c, 1, 79, 90
3, 87119, Note_on_c, 1, 79, 0
3, 87120, Note_on_c, 1, 75, 90
3, 87179, Note_on_c, 1, 75, 0
3, 87180, Note_on_c, 1, 71, 90
3, 87239, Note_on_c, 1, 71, 0
3, 87240, Note_on_c, 1, 76, 90
3, 87329, Note_on_c, 1, 76, 0
3, 87330, Note_on_c, 1, 78, 90
3, 87344, Note_on_c, 1, 78, 0
3, 87345, Note_on_c, 1, 79, 90
3, 87359, Note_on_c, 1, 79, 0
3, 87360, Note_on_c, 1, 78, 90
3, 87389, Note_on_c, 1, 78, 0
3, 87390, Note_on_c, 1, 79, 90
3, 87419, Note_on_c, 1, 79, 0
3, 87420, Note_on_c, 1, 78, 90
3, 87449, Note_on_c, 1, 78, 0
3, 87450, Note_on_c, 1, 76, 90
3, 87479, Note_on_c, 1, 76, 0
3, 87480, Note_on_c, 1, 74, 90
3, 87509, Note_on_c, 1, 74, 0
3, 87510, Note_on_c, 1, 72, 90
3, 87539, Note_on_c, 1, 72, 0
3, 87540, Note_on_c, 1, 71, 90
3, 87569, Note_on_c, 1, 71, 0
3, 87570, Note_on_c, 1, 72, 90
3, 87599, Note_on_c, 1, 72, 0
3, 87600, Note_on_c, 1, 71, 90
3, 87659, Note_on_c, 1, 71, 0
3, 87660, Note_on_c, 1, 74, 90
3, 87719, Note_on_c, 1, 74, 0
3, 87720, Note_on_c, 1, 79, 90
3, 87809, Note_on_c, 1, 79, 0
3, 87810, Note_on_c, 1, 81, 90
3, 87824, Note_on_c, 1, 81, 0
3, 87825, Note_on_c, 1, 83, 90
3, 87839, Note_on_c, 1, 83, 0
3, 87840, Note_on_c, 1, 81, 90
3, 87869, Note_on_c, 1, 81, 0
3, 87870, Note_on_c, 1, 83, 90
3, 87899, Note_on_c, 1, 83, 0
3, 87900, Note_on_c, 1, 81, 90
3, 87929, Note_on_c, 1, 81, 0
3, 87930, Note_on_c, 1, 79, 90
3, 87959, Note_on_c, 1, 79, 0
3, 87960, Note_on_c, 1, 78, 90
3, 87989, Note_on_c, 1, 78, 0
3, 87990, Note_on_c, 1, 76, 90
3, 88019, Note_on_c, 1, 76, 0
3, 88020, Note_on_c, 1, 75, 90
3, 88049, Note_on_c, 1, 75, 0
3, 88050, Note_on_c, 1, 76, 90
3, 88079, Note_on_c, 1, 76, 0
3, 88080, Note_on_c, 1, 75, 90
3, 88109, Note_on_c, 1, 75, 0
3, 88110, Note_on_c, 1, 79, 90
3, 88139, Note_on_c, 1, 79, 0
3, 88140, Note_on_c, 1, 78, 90
3, 88169, Note_on_c, 1, 78, 0
3, 88170, Note_on_c, 1, 75, 90
3, 88199, Note_on_c, 1, 75, 0
3, 88200, Note_on_c, 1, 76, 90
3, 88229, Note_on_c, 1, 76, 0
3, 88230, Note_on_c, 1, 75, 90
3, 88259, Note_on_c, 1, 75, 0
3, 88260, Note_on_c, 1, 76, 90
3, 88289, Note_on_c, 1, 76, 0
3, 88290, Note_on_c, 1, 78, 90
3, 88319, Note_on_c, 1, 78, 0
3, 88320, Note_on_c, 1, 71, 90
3, 88349, Note_on_c, 1, 71, 0
3, 88350, Note_on_c, 1, 79, 90
3, 88379, Note_on_c, 1, 79, 0
3, 88380, Note_on_c, 1, 78, 90
3, 88409, Note_on_c, 1, 78, 0
3, 88410, Note_on_c, 1, 75, 90
3, 88439, Note_on_c, 1, 75, 0
3, 88440, Note_on_c, 1, 76, 90
3, 88469, Note_on_c, 1, 76, 0
3, 88470, Note_on_c, 1, 75, 90
3, 88499, Note_on_c, 1, 75, 0
3, 88500, Note_on_c, 1, 76, 90
3, 88529, Note_on_c, 1, 76, 0
3, 88530, Note_on_c, 1, 78, 90
3, 88559, Note_on_c, 1, 78, 0
3, 88560, Note_on_c, 1, 71, 90
3, 88589, Note_on_c, 1, 71, 0
3, 88590, Note_on_c, 1, 79, 90
3, 88619, Note_on_c, 1, 79, 0
3, 88620, Note_on_c, 1, 78, 90
3, 88649, Note_on_c, 1, 78, 0
3, 88650, Note_on_c, 1, 75, 90
3, 88679, Note_on_c, 1, 75, 0
3, 88680, Note_on_c, 1, 76, 90
3, 88709, Note_on_c, 1, 76, 0
3, 88710, Note_on_c, 1, 75, 90
3, 88739, Note_on_c, 1, 75, 0
3, 88740, Note_on_c, 1, 76, 90
3, 88769, Note_on_c, 1, 76, 0
3, 88770, Note_on_c, 1, 78, 90
3, 88799, Note_on_c, 1, 78, 0
3, 88800, Note_on_c, 1, 69, 90
3, 88829, Note_on_c, 1, 69, 0
3, 88830, Note_on_c, 1, 79, 90
3, 88859, Note_on_c, 1, 79, 0
3, 88860, Note_on_c, 1, 78, 90
3, 88889, Note_on_c, 1, 78, 0
3, 88890, Note_on_c, 1, 75, 90
3, 88919, Note_on_c, 1, 75, 0
3, 88920, Note_on_c, 1, 76, 90
3, 88949, Note_on_c, 1, 76, 0
3, 88950, Note_on_c, 1, 75, 90
3, 88979, Note_on_c, 1, 75, 0
3, 88980, Note_on_c, 1, 76, 90
3, 89009, Note_on_c, 1, 76, 0
3, 89010, Note_on_c, 1, 78, 90
3, 89039, Note_on_c, 1, 78, 0
3, 89040, Note_on_c, 1, 67, 90
3, 89099, Note_on_c, 1, 67, 0
3, 89100, Note_on_c, 1, 64, 90
3, 89159, Note_on_c, 1, 64, 0
3, 89160, Note_on_c, 1, 71, 90
3, 89249, Note_on_c, 1, 71, 0
3, 89250, Note_on_c, 1, 72, 90
3, 89264, Note_on_c, 1, 72, 0
3, 89265, Note_on_c, 1, 74, 90
3, 89279, Note_on_c, 1, 74, 0
3, 89280, Note_on_c, 1, 72, 90
3, 89309, Note_on_c, 1, 72, 0
3, 89310, Note_on_c, 1, 74, 90
3, 89339, Note_on_c, 1, 74, 0
3, 89340, Note_on_c, 1, 72, 90
3, 89369, Note_on_c, 1, 72, 0
3, 89370, Note_on_c, 1, 71, 90
3, 89399, Note_on_c, 1, 71, 0
3, 89400, Note_on_c, 1, 69, 90
3, 89429, Note_on_c, 1, 69, 0
3, 89430, Note_on_c, 1, 67, 90
3, 89459, Note_on_c, 1, 67, 0
3, 89460, Note_on_c, 1, 66, 90
3, 89489, Note_on_c, 1, 66, 0
3, 89490, Note_on_c, 1, 64, 90
3, 89519, Note_on_c, 1, 64, 0
3, 89520, Note_on_c, 1, 71, 90
3, 89549, Note_on_c, 1, 71, 0
3, 89550, Note_on_c, 1, 72, 90
3, 89579, Note_on_c, 1, 72, 0
3, 89580, Note_on_c, 1, 71, 90
3, 89609, Note_on_c, 1, 71, 0
3, 89610, Note_on_c, 1, 69, 90
3, 89639, Note_on_c, 1, 69, 0
3, 89640, Note_on_c, 1, 67, 90
3, 89669, Note_on_c, 1, 67, 0
3, 89670, Note_on_c, 1, 66, 90
3, 89699, Note_on_c, 1, 66, 0
3, 89700, Note_on_c, 1, 64, 90
3, 89729, Note_on_c, 1, 64, 0
3, 89730, Note_on_c, 1, 63, 90
3, 89759, Note_on_c, 1, 63, 0
3, 89760, Note_on_c, 1, 64, 90
3, 89789, Note_on_c, 1, 64, 0
3, 89790, Note_on_c, 1, 63, 90
3, 89819, Note_on_c, 1, 63, 0
3, 89820, Note_on_c, 1, 64, 90
3, 89849, Note_on_c, 1, 64, 0
3, 89850, Note_on_c, 1, 66, 90
3, 89879, Note_on_c, 1, 66, 0
3, 89880, Note_on_c, 1, 59, 90
3, 89939, Note_on_c, 1, 59, 0
3, 89940, Note_on_c, 1, 63, 90
3, 89999, Note_on_c, 1, 63, 0
3, 90000, Note_on_c, 1, 64, 90
3, 90059, Note_on_c, 1, 64, 0
3, 90060, Note_on_c, 1, 71, 90
3, 90119, Note_on_c, 1, 71, 0
3, 90120, Note_on_c, 1, 76, 90
3, 90209, Note_on_c, 1, 76, 0
3, 90210, Note_on_c, 1, 78, 90
3, 90224, Note_on_c, 1, 78, 0
3, 90225, Note_on_c, 1, 79, 90
3, 90239, Note_on_c, 1, 79, 0
3, 90240, Note_on_c, 1, 78, 90
3, 90269, Note_on_c, 1, 78, 0
3, 90270, Note_on_c, 1, 79, 90
3, 90299, Note_on_c, 1, 79, 0
3, 90300, Note_on_c, 1, 78, 90
3, 90329, Note_on_c, 1, 78, 0
3, 90330, Note_on_c, 1, 76, 90
3, 90359, Note_on_c, 1, 76, 0
3, 90360, Note_on_c, 1, 74, 90
3, 90389, Note_on_c, 1, 74, 0
3, 90390, Note_on_c, 1, 72, 90
3, 90419, Note_on_c, 1, 72, 0
3, 90420, Note_on_c, 1, 71, 90
3, 90449, Note_on_c, 1, 71, 0
3, 90450, Note_on_c, 1, 72, 90
3, 90479, Note_on_c, 1, 72, 0
3, 90480, Note_on_c, 1, 71, 90
3, 90539, Note_on_c, 1, 71, 0
3, 90540, Note_on_c, 1, 74, 90
3, 90599, Note_on_c, 1, 74, 0
3, 90600, Note_on_c, 1, 79, 90
3, 90689, Note_on_c, 1, 79, 0
3, 90690, Note_on_c, 1, 81, 90
3, 90704, Note_on_c, 1, 81, 0
3, 90705, Note_on_c, 1, 83, 90
3, 90719, Note_on_c, 1, 83, 0
3, 90720, Note_on_c, 1, 81, 90
3, 90749, Note_on_c, 1, 81, 0
3, 90750, Note_on_c, 1, 83, 90
3, 90779, Note_on_c, 1, 83, 0
3, 90780, Note_on_c, 1, 81, 90
3, 90809, Note_on_c, 1, 81, 0
3, 90810, Note_on_c, 1, 79, 90
3, 90839, Note_on_c, 1, 79, 0
3, 90840, Note_on_c, 1, 78, 90
3, 90869, Note_on_c, 1, 78, 0
3, 90870, Note_on_c, 1, 76, 90
3, 90899, Note_on_c, 1, 76, 0
3, 90900, Note_on_c, 1, 75, 90
3, 90929, Note_on_c, 1, 75, 0
3, 90930, Note_on_c, 1, 76, 90
3, 90959, Note_on_c, 1, 76, 0
3, 90960, Note_on_c, 1, 75, 90
3, 90989, Note_on_c, 1, 75, 0
3, 90990, Note_on_c, 1, 79, 90
3, 91019, Note_on_c, 1, 79, 0
3, 91020, Note_on_c, 1, 78, 90
3, 91049, Note_on_c, 1, 78, 0
3, 91050, Note_on_c, 1, 75, 90
3, 91079, Note_on_c, 1, 75, 0
3, 91080, Note_on_c, 1, 76, 90
3, 91109, Note_on_c, 1, 76, 0
3, 91110, Note_on_c, 1, 75, 90
3, 91139, Note_on_c, 1, 75, 0
3, 91140, Note_on_c, 1, 76, 90
3, 91169, Note_on_c, 1, 76, 0
3, 91170, Note_on_c, 1, 78, 90
3, 91199, Note_on_c, 1, 78, 0
3, 91200, Note_on_c, 1, 71, 90
3, 91229, Note_on_c, 1, 71, 0
3, 91230, Note_on_c, 1, 79, 90
3, 91259, Note_on_c, 1, 79, 0
3, 91260, Note_on_c, 1, 78, 90
3, 91289, Note_on_c, 1, 78, 0
3, 91290, Note_on_c, 1, 75, 90
3, 91319, Note_on_c, 1, 75, 0
3, 91320, Note_on_c, 1, 76, 90
3, 91349, Note_on_c, 1, 76, 0
3, 91350, Note_on_c, 1, 75, 90
3, 91379, Note_on_c, 1, 75, 0
3, 91380, Note_on_c, 1, 76, 90
3, 91409, Note_on_c, 1, 76, 0
3, 91410, Note_on_c, 1, 78, 90
3, 91439, Note_on_c, 1, 78, 0
3, 91440, Note_on_c, 1, 71, 90
3, 91469, Note_on_c, 1, 71, 0
3, 91470, Note_on_c, 1, 79, 90
3, 91499, Note_on_c, 1, 79, 0
3, 91500, Note_on_c, 1, 78, 90
3, 91529, Note_on_c, 1, 78, 0
3, 91530, Note_on_c, 1, 75, 90
3, 91559, Note_on_c, 1, 75, 0
3, 91560, Note_on_c, 1, 76, 90
3, 91589, Note_on_c, 1, 76, 0
3, 91590, Note_on_c, 1, 75, 90
3, 91619, Note_on_c, 1, 75, 0
3, 91620, Note_on_c, 1, 76, 90
3, 91649, Note_on_c, 1, 76, 0
3, 91650, Note_on_c, 1, 78, 90
3, 91679, Note_on_c, 1, 78, 0
3, 91680, Note_on_c, 1, 69, 90
3, 91709, Note_on_c, 1, 69, 0
3, 91710, Note_on_c, 1, 79, 90
3, 91739, Note_on_c, 1, 79, 0
3, 91740, Note_on_c, 1, 78, 90
3, 91769, Note_on_c, 1, 78, 0
3, 91770, Note_on_c, 1, 75, 90
3, 91799, Note_on_c, 1, 75, 0
3, 91800, Note_on_c, 1, 76, 90
3, 91829, Note_on_c, 1, 76, 0
3, 91830, Note_on_c, 1, 75, 90
3, 91859, Note_on_c, 1, 75, 0
3, 91860, Note_on_c, 1, 76, 90
3, 91889, Note_on_c, 1, 76, 0
3, 91890, Note_on_c, 1, 78, 90
3, 91919, Note_on_c, 1, 78, 0
3, 91920, Note_on_c, 1, 67, 90
3, 91979, Note_on_c, 1, 67, 0
3, 91980, Note_on_c, 1, 64, 90
3, 92039, Note_on_c, 1, 64, 0
3, 92040, Note_on_c, 1, 71, 90
3, 92129, Note_on_c, 1, 71, 0
3, 92130, Note_on_c, 1, 72, 90
3, 92144, Note_on_c, 1, 72, 0
3, 92145, Note_on_c, 1, 74, 90
3, 92159, Note_on_c, 1, 74, 0
3, 92160, Note_on_c, 1, 72, 90
3, 92189, Note_on_c, 1, 72, 0
3, 92190, Note_on_c, 1, 74, 90
3, 92219, Note_on_c, 1, 74, 0
3, 92220, Note_on_c, 1, 72, 90
3, 92249, Note_on_c, 1, 72, 0
3, 92250, Note_on_c, 1, 71, 90
3, 92279, Note_on_c, 1, 71, 0
3, 92280, Note_on_c, 1, 69, 90
3, 92309, Note_on_c, 1, 69, 0
3, 92310, Note_on_c, 1, 67, 90
3, 92339, Note_on_c, 1, 67, 0
3, 92340, Note_on_c, 1, 66, 90
3, 92369, Note_on_c, 1, 66, 0
3, 92370, Note_on_c, 1, 64, 90
3, 92399, Note_on_c, 1, 64, 0
3, 92400, Note_on_c, 1, 71, 90
3, 92429, Note_on_c, 1, 71, 0
3, 92430, Note_on_c, 1, 72, 90
3, 92459, Note_on_c, 1, 72, 0
3, 92460, Note_on_c, 1, 71, 90
3, 92489, Note_on_c, 1, 71, 0
3, 92490, Note_on_c, 1, 69, 90
3, 92519, Note_on_c, 1, 69, 0
3, 92520, Note_on_c, 1, 67, 90
3, 92549, Note_on_c, 1, 67, 0
3, 92550, Note_on_c, 1, 66, 90
3, 92579, Note_on_c, 1, 66, 0
3, 92580, Note_on_c, 1, 64, 90
3, 92609, Note_on_c, 1, 64, 0
3, 92610, Note_on_c, 1, 63, 90
3, 92639, Note_on_c, 1, 63, 0
3, 92640, Note_on_c, 1, 64, 90
3, 92669, Note_on_c, 1, 64, 0
3, 92670, Note_on_c, 1, 63, 90
3, 92699, Note_on_c, 1, 63, 0
3, 92700, Note_on_c, 1, 64, 90
3, 92729, Note_on_c, 1, 64, 0
3, 92730, Note_on_c, 1, 66, 90
3, 92759, Note_on_c, 1, 66, 0
3, 92760, Note_on_c, 1, 59, 90
3, 92819, Note_on_c, 1, 59, 0
3, 92820, Note_on_c, 1, 63, 90
3, 92879, Note_on_c, 1, 63, 0
3, 92880, Note_on_c, 1, 64, 90
3, 92999, Note_on_c, 1, 64, 0
3, 92999, End_track
4, 0, Start_track
4, 0, MIDI_port, 0
4, 0, Title_t, "violin i"
4, 0, Program_c, 2, 48
4, 30, Note_on_c, 2, 55, 90
4, 59, Note_on_c, 2, 55, 0
4, 60, Note_on_c, 2, 59, 90
4, 89, Note_on_c, 2, 59, 0
4, 90, Note_on_c, 2, 62, 90
4, 119, Note_on_c, 2, 62, 0
4, 120, Note_on_c, 2, 67, 90
4, 149, Note_on_c, 2, 67, 0
4, 150, Note_on_c, 2, 71, 90
4, 179, Note_on_c, 2, 71, 0
4, 180, Note_on_c, 2, 74, 90
4, 209, Note_on_c, 2, 74, 0
4, 210, Note_on_c, 2, 77, 90
4, 239, Note_on_c, 2, 77, 0
4, 270, Note_on_c, 2, 55, 90
4, 299, Note_on_c, 2, 55, 0
4, 300, Note_on_c, 2, 60, 90
4, 329, Note_on_c, 2, 60, 0
4, 330, Note_on_c, 2, 64, 90
4, 359, Note_on_c, 2, 64, 0
4, 360, Note_on_c, 2, 67, 90
4, 389, Note_on_c, 2, 67, 0
4, 390, Note_on_c, 2, 72, 90
4, 419, Note_on_c, 2, 72, 0
4, 420, Note_on_c, 2, 76, 90
4, 449, Note_on_c, 2, 76, 0
4, 450, Note_on_c, 2, 79, 90
4, 479, Note_on_c, 2, 79, 0
4, 510, Note_on_c, 2, 57, 90
4, 539, Note_on_c, 2, 57, 0
4, 540, Note_on_c, 2, 60, 90
4, 569, Note_on_c, 2, 60, 0
4, 570, Note_on_c, 2, 66, 90
4, 599, Note_on_c, 2, 66, 0
4, 600, Note_on_c, 2, 69, 90
4, 629, Note_on_c, 2, 69, 0
4, 630, Note_on_c, 2, 72, 90
4, 659, Note_on_c, 2, 72, 0
4, 660, Note_on_c, 2, 78, 90
4, 689, Note_on_c, 2, 78, 0
4, 690, Note_on_c, 2, 81, 90
4, 719, Note_on_c, 2, 81, 0
4, 750, Note_on_c, 2, 59, 90
4, 779, Note_on_c, 2, 59, 0
4, 780, Note_on_c, 2, 62, 90
4, 809, Note_on_c, 2, 62, 0
4, 810, Note_on_c, 2, 67, 90
4, 839, Note_on_c, 2, 67, 0
4, 840, Note_on_c, 2, 71, 90
4, 869, Note_on_c, 2, 71, 0
4, 870, Note_on_c, 2, 74, 90
4, 899, Note_on_c, 2, 74, 0
4, 900, Note_on_c, 2, 79, 90
4, 929, Note_on_c, 2, 79, 0
4, 930, Note_on_c, 2, 83, 90
4, 959, Note_on_c, 2, 83, 0
4, 990, Note_on_c, 2, 60, 90
4, 1019, Note_on_c, 2, 60, 0
4, 1020, Note_on_c, 2, 64, 90
4, 1049, Note_on_c, 2, 64, 0
4, 1050, Note_on_c, 2, 67, 90
4, 1079, Note_on_c, 2, 67, 0
4, 1080, Note_on_c, 2, 72, 90
4, 1109, Note_on_c, 2, 72, 0
4, 1110, Note_on_c, 2, 76, 90
4, 1139, Note_on_c, 2, 76, 0
4, 1140, Note_on_c, 2, 79, 90
4, 1169, Note_on_c, 2, 79, 0
4, 1170, Note_on_c, 2, 84, 90
4, 1199, Note_on_c, 2, 84, 0
4, 1230, Note_on_c, 2, 62, 90
4, 1259, Note_on_c, 2, 62, 0
4, 1260, Note_on_c, 2, 66, 90
4, 1289, Note_on_c, 2, 66, 0
4, 1290, Note_on_c, 2, 69, 90
4, 1319, Note_on_c, 2, 69, 0
4, 1320, Note_on_c, 2, 74, 90
4, 1349, Note_on_c, 2, 74, 0
4, 1350, Note_on_c, 2, 78, 90
4, 1379, Note_on_c, 2, 78, 0
4, 1380, Note_on_c, 2, 81, 90
4, 1409, Note_on_c, 2, 81, 0
4, 1410, Note_on_c, 2, 86, 90
4, 1439, Note_on_c, 2, 86, 0
4, 1470, Note_on_c, 2, 55, 90
4, 1499, Note_on_c, 2, 55, 0
4, 1500, Note_on_c, 2, 59, 90
4, 1529, Note_on_c, 2, 59, 0
4, 1530, Note_on_c, 2, 62, 90
4, 1559, Note_on_c, 2, 62, 0
4, 1560, Note_on_c, 2, 67, 90
4, 1589, Note_on_c, 2, 67, 0
4, 1590, Note_on_c, 2, 71, 90
4, 1619, Note_on_c, 2, 71, 0
4, 1620, Note_on_c, 2, 74, 90
4, 1649, Note_on_c, 2, 74, 0
4, 1650, Note_on_c, 2, 79, 90
4, 1679, Note_on_c, 2, 79, 0
4, 1710, Note_on_c, 2, 55, 90
4, 1739, Note_on_c, 2, 55, 0
4, 1740, Note_on_c, 2, 59, 90
4, 1769, Note_on_c, 2, 59, 0
4, 1770, Note_on_c, 2, 62, 90
4, 1799, Note_on_c, 2, 62, 0
4, 1800, Note_on_c, 2, 67, 90
4, 1829, Note_on_c, 2, 67, 0
4, 1830, Note_on_c, 2, 71, 90
4, 1859, Note_on_c, 2, 71, 0
4, 1860, Note_on_c, 2, 74, 90
4, 1889, Note_on_c, 2, 74, 0
4, 1890, Note_on_c, 2, 79, 90
4, 1919, Note_on_c, 2, 79, 0
4, 1950, Note_on_c, 2, 57, 90
4, 1979, Note_on_c, 2, 57, 0
4, 1980, Note_on_c, 2, 60, 90
4, 2009, Note_on_c, 2, 60, 0
4, 2010, Note_on_c, 2, 64, 90
4, 2039, Note_on_c, 2, 64, 0
4, 2040, Note_on_c, 2, 69, 90
4, 2069, Note_on_c, 2, 69, 0
4, 2070, Note_on_c, 2, 72, 90
4, 2099, Note_on_c, 2, 72, 0
4, 2100, Note_on_c, 2, 76, 90
4, 2129, Note_on_c, 2, 76, 0
4, 2130, Note_on_c, 2, 79, 90
4, 2159, Note_on_c, 2, 79, 0
4, 2190, Note_on_c, 2, 57, 90
4, 2219, Note_on_c, 2, 57, 0
4, 2220, Note_on_c, 2, 62, 90
4, 2249, Note_on_c, 2, 62, 0
4, 2250, Note_on_c, 2, 66, 90
4, 2279, Note_on_c, 2, 66, 0
4, 2280, Note_on_c, 2, 69, 90
4, 2309, Note_on_c, 2, 69, 0
4, 2310, Note_on_c, 2, 74, 90
4, 2339, Note_on_c, 2, 74, 0
4, 2340, Note_on_c, 2, 78, 90
4, 2369, Note_on_c, 2, 78, 0
4, 2370, Note_on_c, 2, 81, 90
4, 2399, Note_on_c, 2, 81, 0
4, 2430, Note_on_c, 2, 55, 90
4, 2459, Note_on_c, 2, 55, 0
4, 2460, Note_on_c, 2, 59, 90
4, 2489, Note_on_c, 2, 59, 0
4, 2490, Note_on_c, 2, 62, 90
4, 2519, Note_on_c, 2, 62, 0
4, 2520, Note_on_c, 2, 67, 90
4, 2549, Note_on_c, 2, 67, 0
4, 2550, Note_on_c, 2, 71, 90
4, 2579, Note_on_c, 2, 71, 0
4, 2580, Note_on_c, 2, 74, 90
4, 2609, Note_on_c, 2, 74, 0
4, 2610, Note_on_c, 2, 79, 90
4, 2639, Note_on_c, 2, 79, 0
4, 2670, Note_on_c, 2, 57, 90
4, 2699, Note_on_c, 2, 57, 0
4, 2700, Note_on_c, 2, 60, 90
4, 2729, Note_on_c, 2, 60, 0
4, 2730, Note_on_c, 2, 66, 90
4, 2759, Note_on_c, 2, 66, 0
4, 2760, Note_on_c, 2, 69, 90
4, 2789, Note_on_c, 2, 69, 0
4, 2790, Note_on_c, 2, 72, 90
4, 2819, Note_on_c, 2, 72, 0
4, 2820, Note_on_c, 2, 78, 90
4, 2849, Note_on_c, 2, 78, 0
4, 2850, Note_on_c, 2, 81, 90
4, 2879, Note_on_c, 2, 81, 0
4, 2910, Note_on_c, 2, 57, 90
4, 2939, Note_on_c, 2, 57, 0
4, 2940, Note_on_c, 2, 61, 90
4, 2969, Note_on_c, 2, 61, 0
4, 2970, Note_on_c, 2, 64, 90
4, 2999, Note_on_c, 2, 64, 0
4, 3000, Note_on_c, 2, 69, 90
4, 3029, Note_on_c, 2, 69, 0
4, 3030, Note_on_c, 2, 73, 90
4, 3059, Note_on_c, 2, 73, 0
4, 3060, Note_on_c, 2, 76, 90
4, 3089, Note_on_c, 2, 76, 0
4, 3090, Note_on_c, 2, 81, 90
4, 3119, Note_on_c, 2, 81, 0
4, 3150, Note_on_c, 2, 59, 90
4, 3179, Note_on_c, 2, 59, 0
4, 3180, Note_on_c, 2, 62, 90
4, 3209, Note_on_c, 2, 62, 0
4, 3210, Note_on_c, 2, 68, 90
4, 3239, Note_on_c, 2, 68, 0
4, 3240, Note_on_c, 2, 71, 90
4, 3269, Note_on_c, 2, 71, 0
4, 3270, Note_on_c, 2, 74, 90
4, 3299, Note_on_c, 2, 74, 0
4, 3300, Note_on_c, 2, 80, 90
4, 3329, Note_on_c, 2, 80, 0
4, 3330, Note_on_c, 2, 83, 90
4, 3359, Note_on_c, 2, 83, 0
4, 3390, Note_on_c, 2, 61, 90
4, 3419, Note_on_c, 2, 61, 0
4, 3420, Note_on_c, 2, 64, 90
4, 3449, Note_on_c, 2, 64, 0
4, 3450, Note_on_c, 2, 67, 90
4, 3479, Note_on_c, 2, 67, 0
4, 3480, Note_on_c, 2, 70, 90
4, 3509, Note_on_c, 2, 70, 0
4, 3510, Note_on_c, 2, 76, 90
4, 3539, Note_on_c, 2, 76, 0
4, 3540, Note_on_c, 2, 79, 90
4, 3569, Note_on_c, 2, 79, 0
4, 3570, Note_on_c, 2, 82, 90
4, 3599, Note_on_c, 2, 82, 0
4, 3630, Note_on_c, 2, 62, 90
4, 3659, Note_on_c, 2, 62, 0
4, 3660, Note_on_c, 2, 67, 90
4, 3689, Note_on_c, 2, 67, 0
4, 3690, Note_on_c, 2, 71, 90
4, 3719, Note_on_c, 2, 71, 0
4, 3720, Note_on_c, 2, 76, 90
4, 3749, Note_on_c, 2, 76, 0
4, 3750, Note_on_c, 2, 79, 90
4, 3779, Note_on_c, 2, 79, 0
4, 3780, Note_on_c, 2, 85, 90
4, 3809, Note_on_c, 2, 85, 0
4, 3810, Note_on_c, 2, 88, 90
4, 3839, Note_on_c, 2, 88, 0
4, 4110, Note_on_c, 2, 71, 90
4, 4139, Note_on_c, 2, 71, 0
4, 4140, Note_on_c, 2, 69, 90
4, 4169, Note_on_c, 2, 69, 0
4, 4170, Note_on_c, 2, 67, 90
4, 4199, Note_on_c, 2, 67, 0
4, 4200, Note_on_c, 2, 66, 90
4, 4229, Note_on_c, 2, 66, 0
4, 4230, Note_on_c, 2, 64, 90
4, 4259, Note_on_c, 2, 64, 0
4, 4260, Note_on_c, 2, 62, 90
4, 4289, Note_on_c, 2, 62, 0
4, 4290, Note_on_c, 2, 61, 90
4, 4319, Note_on_c, 2, 61, 0
4, 4320, Note_on_c, 2, 62, 90
4, 4349, Note_on_c, 2, 62, 0
4, 4350, Note_on_c, 2, 57, 90
4, 4379, Note_on_c, 2, 57, 0
4, 4380, Note_on_c, 2, 62, 90
4, 4409, Note_on_c, 2, 62, 0
4, 4410, Note_on_c, 2, 66, 90
4, 4439, Note_on_c, 2, 66, 0
4, 4440, Note_on_c, 2, 69, 90
4, 4469, Note_on_c, 2, 69, 0
4, 4470, Note_on_c, 2, 74, 90
4, 4499, Note_on_c, 2, 74, 0
4, 4500, Note_on_c, 2, 78, 90
4, 4529, Note_on_c, 2, 78, 0
4, 4530, Note_on_c, 2, 81, 90
4, 4559, Note_on_c, 2, 81, 0
4, 4590, Note_on_c, 2, 55, 90
4, 4619, Note_on_c, 2, 55, 0
4, 4620, Note_on_c, 2, 59, 90
4, 4649, Note_on_c, 2, 59, 0
4, 4650, Note_on_c, 2, 62, 90
4, 4679, Note_on_c, 2, 62, 0
4, 4680, Note_on_c, 2, 67, 90
4, 4709, Note_on_c, 2, 67, 0
4, 4710, Note_on_c, 2, 71, 90
4, 4739, Note_on_c, 2, 71, 0
4, 4740, Note_on_c, 2, 74, 90
4, 4769, Note_on_c, 2, 74, 0
4, 4770, Note_on_c, 2, 79, 90
4, 4799, Note_on_c, 2, 79, 0
4, 4830, Note_on_c, 2, 55, 90
4, 4859, Note_on_c, 2, 55, 0
4, 4860, Note_on_c, 2, 59, 90
4, 4889, Note_on_c, 2, 59, 0
4, 4890, Note_on_c, 2, 62, 90
4, 4919, Note_on_c, 2, 62, 0
4, 4920, Note_on_c, 2, 67, 90
4, 4949, Note_on_c, 2, 67, 0
4, 4950, Note_on_c, 2, 71, 90
4, 4979, Note_on_c, 2, 71, 0
4, 4980, Note_on_c, 2, 74, 90
4, 5009, Note_on_c, 2, 74, 0
4, 5010, Note_on_c, 2, 79, 90
4, 5039, Note_on_c, 2, 79, 0
4, 5070, Note_on_c, 2, 57, 90
4, 5099, Note_on_c, 2, 57, 0
4, 5100, Note_on_c, 2, 61, 90
4, 5129, Note_on_c, 2, 61, 0
4, 5130, Note_on_c, 2, 64, 90
4, 5159, Note_on_c, 2, 64, 0
4, 5160, Note_on_c, 2, 69, 90
4, 5189, Note_on_c, 2, 69, 0
4, 5190, Note_on_c, 2, 72, 90
4, 5219, Note_on_c, 2, 72, 0
4, 5220, Note_on_c, 2, 75, 90
4, 5249, Note_on_c, 2, 75, 0
4, 5250, Note_on_c, 2, 79, 90
4, 5279, Note_on_c, 2, 79, 0
4, 5310, Note_on_c, 2, 57, 90
4, 5339, Note_on_c, 2, 57, 0
4, 5340, Note_on_c, 2, 60, 90
4, 5369, Note_on_c, 2, 60, 0
4, 5370, Note_on_c, 2, 66, 90
4, 5399, Note_on_c, 2, 66, 0
4, 5400, Note_on_c, 2, 70, 90
4, 5429, Note_on_c, 2, 70, 0
4, 5430, Note_on_c, 2, 74, 90
4, 5459, Note_on_c, 2, 74, 0
4, 5460, Note_on_c, 2, 79, 90
4, 5489, Note_on_c, 2, 79, 0
4, 5490, Note_on_c, 2, 82, 90
4, 5519, Note_on_c, 2, 82, 0
4, 5550, Note_on_c, 2, 66, 90
4, 5579, Note_on_c, 2, 66, 0
4, 5580, Note_on_c, 2, 69, 90
4, 5609, Note_on_c, 2, 69, 0
4, 5610, Note_on_c, 2, 72, 90
4, 5639, Note_on_c, 2, 72, 0
4, 5640, Note_on_c, 2, 75, 90
4, 5669, Note_on_c, 2, 75, 0
4, 5670, Note_on_c, 2, 78, 90
4, 5699, Note_on_c, 2, 78, 0
4, 5700, Note_on_c, 2, 81, 90
4, 5729, Note_on_c, 2, 81, 0
4, 5730, Note_on_c, 2, 86, 90
4, 5759, Note_on_c, 2, 86, 0
4, 6030, Note_on_c, 2, 76, 90
4, 6059, Note_on_c, 2, 76, 0
4, 6060, Note_on_c, 2, 74, 90
4, 6089, Note_on_c, 2, 74, 0
4, 6090, Note_on_c, 2, 72, 90
4, 6119, Note_on_c, 2, 72, 0
4, 6120, Note_on_c, 2, 71, 90
4, 6149, Note_on_c, 2, 71, 0
4, 6150, Note_on_c, 2, 69, 90
4, 6179, Note_on_c, 2, 69, 0
4, 6180, Note_on_c, 2, 67, 90
4, 6209, Note_on_c, 2, 67, 0
4, 6210, Note_on_c, 2, 66, 90
4, 6239, Note_on_c, 2, 66, 0
4, 6240, Note_on_c, 2, 67, 90
4, 6269, Note_on_c, 2, 67, 0
4, 6270, Note_on_c, 2, 55, 90
4, 6299, Note_on_c, 2, 55, 0
4, 6300, Note_on_c, 2, 59, 90
4, 6329, Note_on_c, 2, 59, 0
4, 6330, Note_on_c, 2, 62, 90
4, 6359, Note_on_c, 2, 62, 0
4, 6360, Note_on_c, 2, 67, 90
4, 6389, Note_on_c, 2, 67, 0
4, 6390, Note_on_c, 2, 71, 90
4, 6419, Note_on_c, 2, 71, 0
4, 6420, Note_on_c, 2, 74, 90
4, 6449, Note_on_c, 2, 74, 0
4, 6450, Note_on_c, 2, 79, 90
4, 6479, Note_on_c, 2, 79, 0
4, 6510, Note_on_c, 2, 55, 90
4, 6539, Note_on_c, 2, 55, 0
4, 6540, Note_on_c, 2, 60, 90
4, 6569, Note_on_c, 2, 60, 0
4, 6570, Note_on_c, 2, 64, 90
4, 6599, Note_on_c, 2, 64, 0
4, 6600, Note_on_c, 2, 67, 90
4, 6629, Note_on_c, 2, 67, 0
4, 6630, Note_on_c, 2, 72, 90
4, 6659, Note_on_c, 2, 72, 0
4, 6660, Note_on_c, 2, 76, 90
4, 6689, Note_on_c, 2, 76, 0
4, 6690, Note_on_c, 2, 79, 90
4, 6719, Note_on_c, 2, 79, 0
4, 6750, Note_on_c, 2, 55, 90
4, 6779, Note_on_c, 2, 55, 0
4, 6780, Note_on_c, 2, 59, 90
4, 6809, Note_on_c, 2, 59, 0
4, 6810, Note_on_c, 2, 62, 90
4, 6839, Note_on_c, 2, 62, 0
4, 6840, Note_on_c, 2, 67, 90
4, 6869, Note_on_c, 2, 67, 0
4, 6870, Note_on_c, 2, 71, 90
4, 6899, Note_on_c, 2, 71, 0
4, 6900, Note_on_c, 2, 74, 90
4, 6929, Note_on_c, 2, 74, 0
4, 6930, Note_on_c, 2, 79, 90
4, 6959, Note_on_c, 2, 79, 0
4, 7230, Note_on_c, 2, 79, 90
4, 7259, Note_on_c, 2, 79, 0
4, 7260, Note_on_c, 2, 78, 90
4, 7289, Note_on_c, 2, 78, 0
4, 7290, Note_on_c, 2, 76, 90
4, 7319, Note_on_c, 2, 76, 0
4, 7320, Note_on_c, 2, 74, 90
4, 7349, Note_on_c, 2, 74, 0
4, 7350, Note_on_c, 2, 72, 90
4, 7379, Note_on_c, 2, 72, 0
4, 7380, Note_on_c, 2, 71, 90
4, 7409, Note_on_c, 2, 71, 0
4, 7410, Note_on_c, 2, 69, 90
4, 7439, Note_on_c, 2, 69, 0
4, 7440, Note_on_c, 2, 67, 90
4, 7469, Note_on_c, 2, 67, 0
4, 7470, Note_on_c, 2, 55, 90
4, 7499, Note_on_c, 2, 55, 0
4, 7500, Note_on_c, 2, 59, 90
4, 7529, Note_on_c, 2, 59, 0
4, 7530, Note_on_c, 2, 62, 90
4, 7559, Note_on_c, 2, 62, 0
4, 7560, Note_on_c, 2, 67, 90
4, 7589, Note_on_c, 2, 67, 0
4, 7590, Note_on_c, 2, 71, 90
4, 7619, Note_on_c, 2, 71, 0
4, 7620, Note_on_c, 2, 74, 90
4, 7649, Note_on_c, 2, 74, 0
4, 7650, Note_on_c, 2, 77, 90
4, 7679, Note_on_c, 2, 77, 0
4, 7710, Note_on_c, 2, 55, 90
4, 7739, Note_on_c, 2, 55, 0
4, 7740, Note_on_c, 2, 60, 90
4, 7769, Note_on_c, 2, 60, 0
4, 7770, Note_on_c, 2, 64, 90
4, 7799, Note_on_c, 2, 64, 0
4, 7800, Note_on_c, 2, 67, 90
4, 7829, Note_on_c, 2, 67, 0
4, 7830, Note_on_c, 2, 72, 90
4, 7859, Note_on_c, 2, 72, 0
4, 7860, Note_on_c, 2, 76, 90
4, 7889, Note_on_c, 2, 76, 0
4, 7890, Note_on_c, 2, 79, 90
4, 7919, Note_on_c, 2, 79, 0
4, 7950, Note_on_c, 2, 57, 90
4, 7979, Note_on_c, 2, 57, 0
4, 7980, Note_on_c, 2, 60, 90
4, 8009, Note_on_c, 2, 60, 0
4, 8010, Note_on_c, 2, 66, 90
4, 8039, Note_on_c, 2, 66, 0
4, 8040, Note_on_c, 2, 69, 90
4, 8069, Note_on_c, 2, 69, 0
4, 8070, Note_on_c, 2, 72, 90
4, 8099, Note_on_c, 2, 72, 0
4, 8100, Note_on_c, 2, 78, 90
4, 8129, Note_on_c, 2, 78, 0
4, 8130, Note_on_c, 2, 81, 90
4, 8159, Note_on_c, 2, 81, 0
4, 8160, Note_on_c, 2, 74, 90
4, 8189, Note_on_c, 2, 74, 0
4, 8190, Note_on_c, 2, 83, 90
4, 8219, Note_on_c, 2, 83, 0
4, 8220, Note_on_c, 2, 78, 90
4, 8249, Note_on_c, 2, 78, 0
4, 8250, Note_on_c, 2, 79, 90
4, 8279, Note_on_c, 2, 79, 0
4, 8280, Note_on_c, 2, 72, 90
4, 8309, Note_on_c, 2, 72, 0
4, 8310, Note_on_c, 2, 71, 90
4, 8339, Note_on_c, 2, 71, 0
4, 8340, Note_on_c, 2, 69, 90
4, 8369, Note_on_c, 2, 69, 0
4, 8370, Note_on_c, 2, 67, 90
4, 8399, Note_on_c, 2, 67, 0
4, 8400, Note_on_c, 2, 67, 90
4, 8429, Note_on_c, 2, 67, 0
4, 8430, Note_on_c, 2, 71, 90
4, 8459, Note_on_c, 2, 71, 0
4, 8460, Note_on_c, 2, 66, 90
4, 8489, Note_on_c, 2, 66, 0
4, 8490, Note_on_c, 2, 67, 90
4, 8519, Note_on_c, 2, 67, 0
4, 8520, Note_on_c, 2, 60, 90
4, 8549, Note_on_c, 2, 60, 0
4, 8550, Note_on_c, 2, 59, 90
4, 8579, Note_on_c, 2, 59, 0
4, 8580, Note_on_c, 2, 57, 90
4, 8609, Note_on_c, 2, 57, 0
4, 8610, Note_on_c, 2, 55, 90
4, 8639, Note_on_c, 2, 55, 0
4, 8640, Note_on_c, 2, 55, 90
4, 8759, Note_on_c, 2, 55, 0
4, 10680, Note_on_c, 2, 71, 90
4, 10709, Note_on_c, 2, 71, 0
4, 10710, Note_on_c, 2, 74, 90
4, 10739, Note_on_c, 2, 74, 0
4, 10740, Note_on_c, 2, 72, 90
4, 10769, Note_on_c, 2, 72, 0
4, 10770, Note_on_c, 2, 71, 90
4, 10799, Note_on_c, 2, 71, 0
4, 10800, Note_on_c, 2, 69, 90
4, 10919, Note_on_c, 2, 69, 0
4, 10950, Note_on_c, 2, 66, 90
4, 10979, Note_on_c, 2, 66, 0
4, 10980, Note_on_c, 2, 67, 90
4, 11009, Note_on_c, 2, 67, 0
4, 11010, Note_on_c, 2, 64, 90
4, 11039, Note_on_c, 2, 64, 0
4, 11040, Note_on_c, 2, 62, 90
4, 11069, Note_on_c, 2, 62, 0
4, 11070, Note_on_c, 2, 74, 90
4, 11099, Note_on_c, 2, 74, 0
4, 11100, Note_on_c, 2, 62, 90
4, 11189, Note_on_c, 2, 62, 0
4, 11190, Note_on_c, 2, 74, 90
4, 11219, Note_on_c, 2, 74, 0
4, 11220, Note_on_c, 2, 62, 90
4, 11309, Note_on_c, 2, 62, 0
4, 11310, Note_on_c, 2, 74, 90
4, 11339, Note_on_c, 2, 74, 0
4, 11340, Note_on_c, 2, 62, 90
4, 11429, Note_on_c, 2, 62, 0
4, 11430, Note_on_c, 2, 74, 90
4, 11459, Note_on_c, 2, 74, 0
4, 11460, Note_on_c, 2, 62, 90
4, 11549, Note_on_c, 2, 62, 0
4, 11550, Note_on_c, 2, 74, 90
4, 11579, Note_on_c, 2, 74, 0
4, 11580, Note_on_c, 2, 62, 90
4, 11669, Note_on_c, 2, 62, 0
4, 11670, Note_on_c, 2, 76, 90
4, 11699, Note_on_c, 2, 76, 0
4, 11700, Note_on_c, 2, 64, 90
4, 11789, Note_on_c, 2, 64, 0
4, 11790, Note_on_c, 2, 76, 90
4, 11819, Note_on_c, 2, 76, 0
4, 11820, Note_on_c, 2, 64, 90
4, 11909, Note_on_c, 2, 64, 0
4, 11910, Note_on_c, 2, 76, 90
4, 11939, Note_on_c, 2, 76, 0
4, 11940, Note_on_c, 2, 64, 90
4, 12029, Note_on_c, 2, 64, 0
4, 12030, Note_on_c, 2, 76, 90
4, 12059, Note_on_c, 2, 76, 0
4, 12060, Note_on_c, 2, 64, 90
4, 12119, Note_on_c, 2, 64, 0
4, 12120, Note_on_c, 2, 67, 90
4, 12179, Note_on_c, 2, 67, 0
4, 12180, Note_on_c, 2, 71, 90
4, 12239, Note_on_c, 2, 71, 0
4, 12240, Note_on_c, 2, 74, 90
4, 12359, Note_on_c, 2, 74, 0
4, 12360, Note_on_c, 2, 69, 90
4, 12419, Note_on_c, 2, 69, 0
4, 12420, Note_on_c, 2, 69, 90
4, 12479, Note_on_c, 2, 69, 0
4, 12480, Note_on_c, 2, 67, 90
4, 12509, Note_on_c, 2, 67, 0
4, 12510, Note_on_c, 2, 79, 90
4, 12539, Note_on_c, 2, 79, 0
4, 12540, Note_on_c, 2, 67, 90
4, 12629, Note_on_c, 2, 67, 0
4, 12630, Note_on_c, 2, 79, 90
4, 12659, Note_on_c, 2, 79, 0
4, 12660, Note_on_c, 2, 67, 90
4, 12749, Note_on_c, 2, 67, 0
4, 12750, Note_on_c, 2, 79, 90
4, 12779, Note_on_c, 2, 79, 0
4, 12780, Note_on_c, 2, 67, 90
4, 12869, Note_on_c, 2, 67, 0
4, 12870, Note_on_c, 2, 79, 90
4, 12899, Note_on_c, 2, 79, 0
4, 12900, Note_on_c, 2, 67, 90
4, 12989, Note_on_c, 2, 67, 0
4, 12990, Note_on_c, 2, 79, 90
4, 13019, Note_on_c, 2, 79, 0
4, 13020, Note_on_c, 2, 67, 90
4, 13109, Note_on_c, 2, 67, 0
4, 13110, Note_on_c, 2, 81, 90
4, 13139, Note_on_c, 2, 81, 0
4, 13140, Note_on_c, 2, 69, 90
4, 13229, Note_on_c, 2, 69, 0
4, 13230, Note_on_c, 2, 81, 90
4, 13259, Note_on_c, 2, 81, 0
4, 13260, Note_on_c, 2, 69, 90
4, 13349, Note_on_c, 2, 69, 0
4, 13350, Note_on_c, 2, 81, 90
4, 13379, Note_on_c, 2, 81, 0
4, 13380, Note_on_c, 2, 69, 90
4, 13469, Note_on_c, 2, 69, 0
4, 13470, Note_on_c, 2, 81, 90
4, 13499, Note_on_c, 2, 81, 0
4, 13500, Note_on_c, 2, 69, 90
4, 13560, Note_on_c, 2, 69, 0
4, 14700, Note_on_c, 2, 74, 90
4, 14729, Note_on_c, 2, 74, 0
4, 14730, Note_on_c, 2, 73, 90
4, 14759, Note_on_c, 2, 73, 0
4, 14760, Note_on_c, 2, 71, 90
4, 14879, Note_on_c, 2, 71, 0
4, 14910, Note_on_c, 2, 69, 90
4, 14939, Note_on_c, 2, 69, 0
4, 14940, Note_on_c, 2, 67, 90
4, 14969, Note_on_c, 2, 67, 0
4, 14970, Note_on_c, 2, 66, 90
4, 14999, Note_on_c, 2, 66, 0
4, 15000, Note_on_c, 2, 64, 90
4, 15029, Note_on_c, 2, 64, 0
4, 15030, Note_on_c, 2, 67, 90
4, 15059, Note_on_c, 2, 67, 0
4, 15060, Note_on_c, 2, 66, 90
4, 15089, Note_on_c, 2, 66, 0
4, 15090, Note_on_c, 2, 64, 90
4, 15119, Note_on_c, 2, 64, 0
4, 15120, Note_on_c, 2, 62, 90
4, 15179, Note_on_c, 2, 62, 0
4, 15180, Note_on_c, 2, 69, 90
4, 15239, Note_on_c, 2, 69, 0
4, 15240, Note_on_c, 2, 74, 90
4, 15269, Note_on_c, 2, 74, 0
4, 15270, Note_on_c, 2, 72, 90
4, 15299, Note_on_c, 2, 72, 0
4, 15300, Note_on_c, 2, 71, 90
4, 15329, Note_on_c, 2, 71, 0
4, 15330, Note_on_c, 2, 69, 90
4, 15359, Note_on_c, 2, 69, 0
4, 15360, Note_on_c, 2, 67, 90
4, 15419, Note_on_c, 2, 67, 0
4, 15420, Note_on_c, 2, 71, 90
4, 15479, Note_on_c, 2, 71, 0
4, 15480, Note_on_c, 2, 76, 90
4, 15509, Note_on_c, 2, 76, 0
4, 15510, Note_on_c, 2, 74, 90
4, 15539, Note_on_c, 2, 74, 0
4, 15540, Note_on_c, 2, 73, 90
4, 15569, Note_on_c, 2, 73, 0
4, 15570, Note_on_c, 2, 71, 90
4, 15599, Note_on_c, 2, 71, 0
4, 15600, Note_on_c, 2, 69, 90
4, 15659, Note_on_c, 2, 69, 0
4, 15660, Note_on_c, 2, 73, 90
4, 15719, Note_on_c, 2, 73, 0
4, 15720, Note_on_c, 2, 78, 90
4, 15839, Note_on_c, 2, 78, 0
4, 15870, Note_on_c, 2, 76, 90
4, 15899, Note_on_c, 2, 76, 0
4, 15900, Note_on_c, 2, 78, 90
4, 15929, Note_on_c, 2, 78, 0
4, 15930, Note_on_c, 2, 79, 90
4, 15959, Note_on_c, 2, 79, 0
4, 15960, Note_on_c, 2, 73, 90
4, 16049, Note_on_c, 2, 73, 0
4, 16050, Note_on_c, 2, 78, 90
4, 16079, Note_on_c, 2, 78, 0
4, 16080, Note_on_c, 2, 76, 90
4, 16109, Note_on_c, 2, 76, 0
4, 16110, Note_on_c, 2, 74, 90
4, 16199, Note_on_c, 2, 74, 0
4, 16350, Note_on_c, 2, 55, 90
4, 16379, Note_on_c, 2, 55, 0
4, 16380, Note_on_c, 2, 59, 90
4, 16409, Note_on_c, 2, 59, 0
4, 16410, Note_on_c, 2, 62, 90
4, 16439, Note_on_c, 2, 62, 0
4, 16440, Note_on_c, 2, 67, 90
4, 16469, Note_on_c, 2, 67, 0
4, 16470, Note_on_c, 2, 71, 90
4, 16499, Note_on_c, 2, 71, 0
4, 16500, Note_on_c, 2, 74, 90
4, 16529, Note_on_c, 2, 74, 0
4, 16530, Note_on_c, 2, 77, 90
4, 16559, Note_on_c, 2, 77, 0
4, 16590, Note_on_c, 2, 55, 90
4, 16619, Note_on_c, 2, 55, 0
4, 16620, Note_on_c, 2, 60, 90
4, 16649, Note_on_c, 2, 60, 0
4, 16650, Note_on_c, 2, 64, 90
4, 16679, Note_on_c, 2, 64, 0
4, 16680, Note_on_c, 2, 67, 90
4, 16709, Note_on_c, 2, 67, 0
4, 16710, Note_on_c, 2, 72, 90
4, 16739, Note_on_c, 2, 72, 0
4, 16740, Note_on_c, 2, 76, 90
4, 16769, Note_on_c, 2, 76, 0
4, 16770, Note_on_c, 2, 79, 90
4, 16799, Note_on_c, 2, 79, 0
4, 16830, Note_on_c, 2, 57, 90
4, 16859, Note_on_c, 2, 57, 0
4, 16860, Note_on_c, 2, 60, 90
4, 16889, Note_on_c, 2, 60, 0
4, 16890, Note_on_c, 2, 66, 90
4, 16919, Note_on_c, 2, 66, 0
4, 16920, Note_on_c, 2, 69, 90
4, 16949, Note_on_c, 2, 69, 0
4, 16950, Note_on_c, 2, 72, 90
4, 16979, Note_on_c, 2, 72, 0
4, 16980, Note_on_c, 2, 78, 90
4, 17009, Note_on_c, 2, 78, 0
4, 17010, Note_on_c, 2, 81, 90
4, 17039, Note_on_c, 2, 81, 0
4, 17070, Note_on_c, 2, 59, 90
4, 17099, Note_on_c, 2, 59, 0
4, 17100, Note_on_c, 2, 62, 90
4, 17129, Note_on_c, 2, 62, 0
4, 17130, Note_on_c, 2, 67, 90
4, 17159, Note_on_c, 2, 67, 0
4, 17160, Note_on_c, 2, 71, 90
4, 17189, Note_on_c, 2, 71, 0
4, 17190, Note_on_c, 2, 74, 90
4, 17219, Note_on_c, 2, 74, 0
4, 17220, Note_on_c, 2, 79, 90
4, 17249, Note_on_c, 2, 79, 0
4, 17250, Note_on_c, 2, 83, 90
4, 17279, Note_on_c, 2, 83, 0
4, 17310, Note_on_c, 2, 60, 90
4, 17339, Note_on_c, 2, 60, 0
4, 17340, Note_on_c, 2, 64, 90
4, 17369, Note_on_c, 2, 64, 0
4, 17370, Note_on_c, 2, 67, 90
4, 17399, Note_on_c, 2, 67, 0
4, 17400, Note_on_c, 2, 72, 90
4, 17429, Note_on_c, 2, 72, 0
4, 17430, Note_on_c, 2, 76, 90
4, 17459, Note_on_c, 2, 76, 0
4, 17460, Note_on_c, 2, 79, 90
4, 17489, Note_on_c, 2, 79, 0
4, 17490, Note_on_c, 2, 84, 90
4, 17519, Note_on_c, 2, 84, 0
4, 17550, Note_on_c, 2, 62, 90
4, 17579, Note_on_c, 2, 62, 0
4, 17580, Note_on_c, 2, 66, 90
4, 17609, Note_on_c, 2, 66, 0
4, 17610, Note_on_c, 2, 69, 90
4, 17639, Note_on_c, 2, 69, 0
4, 17640, Note_on_c, 2, 74, 90
4, 17669, Note_on_c, 2, 74, 0
4, 17670, Note_on_c, 2, 78, 90
4, 17699, Note_on_c, 2, 78, 0
4, 17700, Note_on_c, 2, 81, 90
4, 17729, Note_on_c, 2, 81, 0
4, 17730, Note_on_c, 2, 86, 90
4, 17759, Note_on_c, 2, 86, 0
4, 17790, Note_on_c, 2, 55, 90
4, 17819, Note_on_c, 2, 55, 0
4, 17820, Note_on_c, 2, 59, 90
4, 17849, Note_on_c, 2, 59, 0
4, 17850, Note_on_c, 2, 62, 90
4, 17879, Note_on_c, 2, 62, 0
4, 17880, Note_on_c, 2, 67, 90
4, 17909, Note_on_c, 2, 67, 0
4, 17910, Note_on_c, 2, 71, 90
4, 17939, Note_on_c, 2, 71, 0
4, 17940, Note_on_c, 2, 74, 90
4, 17969, Note_on_c, 2, 74, 0
4, 17970, Note_on_c, 2, 79, 90
4, 17999, Note_on_c, 2, 79, 0
4, 18030, Note_on_c, 2, 55, 90
4, 18059, Note_on_c, 2, 55, 0
4, 18060, Note_on_c, 2, 59, 90
4, 18089, Note_on_c, 2, 59, 0
4, 18090, Note_on_c, 2, 62, 90
4, 18119, Note_on_c, 2, 62, 0
4, 18120, Note_on_c, 2, 67, 90
4, 18149, Note_on_c, 2, 67, 0
4, 18150, Note_on_c, 2, 71, 90
4, 18179, Note_on_c, 2, 71, 0
4, 18180, Note_on_c, 2, 74, 90
4, 18209, Note_on_c, 2, 74, 0
4, 18210, Note_on_c, 2, 79, 90
4, 18239, Note_on_c, 2, 79, 0
4, 18270, Note_on_c, 2, 57, 90
4, 18299, Note_on_c, 2, 57, 0
4, 18300, Note_on_c, 2, 60, 90
4, 18329, Note_on_c, 2, 60, 0
4, 18330, Note_on_c, 2, 64, 90
4, 18359, Note_on_c, 2, 64, 0
4, 18360, Note_on_c, 2, 69, 90
4, 18389, Note_on_c, 2, 69, 0
4, 18390, Note_on_c, 2, 72, 90
4, 18419, Note_on_c, 2, 72, 0
4, 18420, Note_on_c, 2, 76, 90
4, 18449, Note_on_c, 2, 76, 0
4, 18450, Note_on_c, 2, 79, 90
4, 18479, Note_on_c, 2, 79, 0
4, 18510, Note_on_c, 2, 57, 90
4, 18539, Note_on_c, 2, 57, 0
4, 18540, Note_on_c, 2, 62, 90
4, 18569, Note_on_c, 2, 62, 0
4, 18570, Note_on_c, 2, 66, 90
4, 18599, Note_on_c, 2, 66, 0
4, 18600, Note_on_c, 2, 69, 90
4, 18629, Note_on_c, 2, 69, 0
4, 18630, Note_on_c, 2, 74, 90
4, 18659, Note_on_c, 2, 74, 0
4, 18660, Note_on_c, 2, 78, 90
4, 18689, Note_on_c, 2, 78, 0
4, 18690, Note_on_c, 2, 81, 90
4, 18719, Note_on_c, 2, 81, 0
4, 18750, Note_on_c, 2, 55, 90
4, 18779, Note_on_c, 2, 55, 0
4, 18780, Note_on_c, 2, 59, 90
4, 18809, Note_on_c, 2, 59, 0
4, 18810, Note_on_c, 2, 62, 90
4, 18839, Note_on_c, 2, 62, 0
4, 18840, Note_on_c, 2, 67, 90
4, 18869, Note_on_c, 2, 67, 0
4, 18870, Note_on_c, 2, 71, 90
4, 18899, Note_on_c, 2, 71, 0
4, 18900, Note_on_c, 2, 74, 90
4, 18929, Note_on_c, 2, 74, 0
4, 18930, Note_on_c, 2, 79, 90
4, 18959, Note_on_c, 2, 79, 0
4, 18990, Note_on_c, 2, 57, 90
4, 19019, Note_on_c, 2, 57, 0
4, 19020, Note_on_c, 2, 60, 90
4, 19049, Note_on_c, 2, 60, 0
4, 19050, Note_on_c, 2, 66, 90
4, 19079, Note_on_c, 2, 66, 0
4, 19080, Note_on_c, 2, 69, 90
4, 19109, Note_on_c, 2, 69, 0
4, 19110, Note_on_c, 2, 72, 90
4, 19139, Note_on_c, 2, 72, 0
4, 19140, Note_on_c, 2, 78, 90
4, 19169, Note_on_c, 2, 78, 0
4, 19170, Note_on_c, 2, 81, 90
4, 19199, Note_on_c, 2, 81, 0
4, 19230, Note_on_c, 2, 57, 90
4, 19259, Note_on_c, 2, 57, 0
4, 19260, Note_on_c, 2, 61, 90
4, 19289, Note_on_c, 2, 61, 0
4, 19290, Note_on_c, 2, 64, 90
4, 19319, Note_on_c, 2, 64, 0
4, 19320, Note_on_c, 2, 69, 90
4, 19349, Note_on_c, 2, 69, 0
4, 19350, Note_on_c, 2, 73, 90
4, 19379, Note_on_c, 2, 73, 0
4, 19380, Note_on_c, 2, 76, 90
4, 19409, Note_on_c, 2, 76, 0
4, 19410, Note_on_c, 2, 81, 90
4, 19439, Note_on_c, 2, 81, 0
4, 19470, Note_on_c, 2, 59, 90
4, 19499, Note_on_c, 2, 59, 0
4, 19500, Note_on_c, 2, 62, 90
4, 19529, Note_on_c, 2, 62, 0
4, 19530, Note_on_c, 2, 68, 90
4, 19559, Note_on_c, 2, 68, 0
4, 19560, Note_on_c, 2, 71, 90
4, 19589, Note_on_c, 2, 71, 0
4, 19590, Note_on_c, 2, 74, 90
4, 19619, Note_on_c, 2, 74, 0
4, 19620, Note_on_c, 2, 80, 90
4, 19649, Note_on_c, 2, 80, 0
4, 19650, Note_on_c, 2, 83, 90
4, 19679, Note_on_c, 2, 83, 0
4, 19710, Note_on_c, 2, 61, 90
4, 19739, Note_on_c, 2, 61, 0
4, 19740, Note_on_c, 2, 64, 90
4, 19769, Note_on_c, 2, 64, 0
4, 19770, Note_on_c, 2, 67, 90
4, 19799, Note_on_c, 2, 67, 0
4, 19800, Note_on_c, 2, 70, 90
4, 19829, Note_on_c, 2, 70, 0
4, 19830, Note_on_c, 2, 76, 90
4, 19859, Note_on_c, 2, 76, 0
4, 19860, Note_on_c, 2, 79, 90
4, 19889, Note_on_c, 2, 79, 0
4, 19890, Note_on_c, 2, 82, 90
4, 19919, Note_on_c, 2, 82, 0
4, 19950, Note_on_c, 2, 62, 90
4, 19979, Note_on_c, 2, 62, 0
4, 19980, Note_on_c, 2, 67, 90
4, 20009, Note_on_c, 2, 67, 0
4, 20010, Note_on_c, 2, 71, 90
4, 20039, Note_on_c, 2, 71, 0
4, 20040, Note_on_c, 2, 76, 90
4, 20069, Note_on_c, 2, 76, 0
4, 20070, Note_on_c, 2, 79, 90
4, 20099, Note_on_c, 2, 79, 0
4, 20100, Note_on_c, 2, 85, 90
4, 20129, Note_on_c, 2, 85, 0
4, 20130, Note_on_c, 2, 88, 90
4, 20159, Note_on_c, 2, 88, 0
4, 20430, Note_on_c, 2, 71, 90
4, 20459, Note_on_c, 2, 71, 0
4, 20460, Note_on_c, 2, 69, 90
4, 20489, Note_on_c, 2, 69, 0
4, 20490, Note_on_c, 2, 67, 90
4, 20519, Note_on_c, 2, 67, 0
4, 20520, Note_on_c, 2, 66, 90
4, 20549, Note_on_c, 2, 66, 0
4, 20550, Note_on_c, 2, 64, 90
4, 20579, Note_on_c, 2, 64, 0
4, 20580, Note_on_c, 2, 62, 90
4, 20609, Note_on_c, 2, 62, 0
4, 20610, Note_on_c, 2, 61, 90
4, 20639, Note_on_c, 2, 61, 0
4, 20640, Note_on_c, 2, 62, 90
4, 20669, Note_on_c, 2, 62, 0
4, 20670, Note_on_c, 2, 57, 90
4, 20699, Note_on_c, 2, 57, 0
4, 20700, Note_on_c, 2, 62, 90
4, 20729, Note_on_c, 2, 62, 0
4, 20730, Note_on_c, 2, 66, 90
4, 20759, Note_on_c, 2, 66, 0
4, 20760, Note_on_c, 2, 69, 90
4, 20789, Note_on_c, 2, 69, 0
4, 20790, Note_on_c, 2, 74, 90
4, 20819, Note_on_c, 2, 74, 0
4, 20820, Note_on_c, 2, 78, 90
4, 20849, Note_on_c, 2, 78, 0
4, 20850, Note_on_c, 2, 81, 90
4, 20879, Note_on_c, 2, 81, 0
4, 20910, Note_on_c, 2, 55, 90
4, 20939, Note_on_c, 2, 55, 0
4, 20940, Note_on_c, 2, 59, 90
4, 20969, Note_on_c, 2, 59, 0
4, 20970, Note_on_c, 2, 62, 90
4, 20999, Note_on_c, 2, 62, 0
4, 21000, Note_on_c, 2, 67, 90
4, 21029, Note_on_c, 2, 67, 0
4, 21030, Note_on_c, 2, 71, 90
4, 21059, Note_on_c, 2, 71, 0
4, 21060, Note_on_c, 2, 74, 90
4, 21089, Note_on_c, 2, 74, 0
4, 21090, Note_on_c, 2, 79, 90
4, 21119, Note_on_c, 2, 79, 0
4, 21150, Note_on_c, 2, 55, 90
4, 21179, Note_on_c, 2, 55, 0
4, 21180, Note_on_c, 2, 59, 90
4, 21209, Note_on_c, 2, 59, 0
4, 21210, Note_on_c, 2, 62, 90
4, 21239, Note_on_c, 2, 62, 0
4, 21240, Note_on_c, 2, 67, 90
4, 21269, Note_on_c, 2, 67, 0
4, 21270, Note_on_c, 2, 71, 90
4, 21299, Note_on_c, 2, 71, 0
4, 21300, Note_on_c, 2, 74, 90
4, 21329, Note_on_c, 2, 74, 0
4, 21330, Note_on_c, 2, 79, 90
4, 21359, Note_on_c, 2, 79, 0
4, 21390, Note_on_c, 2, 57, 90
4, 21419, Note_on_c, 2, 57, 0
4, 21420, Note_on_c, 2, 61, 90
4, 21449, Note_on_c, 2, 61, 0
4, 21450, Note_on_c, 2, 64, 90
4, 21479, Note_on_c, 2, 64, 0
4, 21480, Note_on_c, 2, 69, 90
4, 21509, Note_on_c, 2, 69, 0
4, 21510, Note_on_c, 2, 72, 90
4, 21539, Note_on_c, 2, 72, 0
4, 21540, Note_on_c, 2, 75, 90
4, 21569, Note_on_c, 2, 75, 0
4, 21570, Note_on_c, 2, 79, 90
4, 21599, Note_on_c, 2, 79, 0
4, 21630, Note_on_c, 2, 57, 90
4, 21659, Note_on_c, 2, 57, 0
4, 21660, Note_on_c, 2, 60, 90
4, 21689, Note_on_c, 2, 60, 0
4, 21690, Note_on_c, 2, 66, 90
4, 21719, Note_on_c, 2, 66, 0
4, 21720, Note_on_c, 2, 70, 90
4, 21749, Note_on_c, 2, 70, 0
4, 21750, Note_on_c, 2, 74, 90
4, 21779, Note_on_c, 2, 74, 0
4, 21780, Note_on_c, 2, 79, 90
4, 21809, Note_on_c, 2, 79, 0
4, 21810, Note_on_c, 2, 82, 90
4, 21839, Note_on_c, 2, 82, 0
4, 21870, Note_on_c, 2, 66, 90
4, 21899, Note_on_c, 2, 66, 0
4, 21900, Note_on_c, 2, 69, 90
4, 21929, Note_on_c, 2, 69, 0
4, 21930, Note_on_c, 2, 72, 90
4, 21959, Note_on_c, 2, 72, 0
4, 21960, Note_on_c, 2, 75, 90
4, 21989, Note_on_c, 2, 75, 0
4, 21990, Note_on_c, 2, 78, 90
4, 22019, Note_on_c, 2, 78, 0
4, 22020, Note_on_c, 2, 81, 90
4, 22049, Note_on_c, 2, 81, 0
4, 22050, Note_on_c, 2, 86, 90
4, 22079, Note_on_c, 2, 86, 0
4, 22350, Note_on_c, 2, 76, 90
4, 22379, Note_on_c, 2, 76, 0
4, 22380, Note_on_c, 2, 74, 90
4, 22409, Note_on_c, 2, 74, 0
4, 22410, Note_on_c, 2, 72, 90
4, 22439, Note_on_c, 2, 72, 0
4, 22440, Note_on_c, 2, 71, 90
4, 22469, Note_on_c, 2, 71, 0
4, 22470, Note_on_c, 2, 69, 90
4, 22499, Note_on_c, 2, 69, 0
4, 22500, Note_on_c, 2, 67, 90
4, 22529, Note_on_c, 2, 67, 0
4, 22530, Note_on_c, 2, 66, 90
4, 22559, Note_on_c, 2, 66, 0
4, 22560, Note_on_c, 2, 67, 90
4, 22589, Note_on_c, 2, 67, 0
4, 22590, Note_on_c, 2, 55, 90
4, 22619, Note_on_c, 2, 55, 0
4, 22620, Note_on_c, 2, 59, 90
4, 22649, Note_on_c, 2, 59, 0
4, 22650, Note_on_c, 2, 62, 90
4, 22679, Note_on_c, 2, 62, 0
4, 22680, Note_on_c, 2, 67, 90
4, 22709, Note_on_c, 2, 67, 0
4, 22710, Note_on_c, 2, 71, 90
4, 22739, Note_on_c, 2, 71, 0
4, 22740, Note_on_c, 2, 74, 90
4, 22769, Note_on_c, 2, 74, 0
4, 22770, Note_on_c, 2, 79, 90
4, 22799, Note_on_c, 2, 79, 0
4, 22830, Note_on_c, 2, 55, 90
4, 22859, Note_on_c, 2, 55, 0
4, 22860, Note_on_c, 2, 60, 90
4, 22889, Note_on_c, 2, 60, 0
4, 22890, Note_on_c, 2, 64, 90
4, 22919, Note_on_c, 2, 64, 0
4, 22920, Note_on_c, 2, 67, 90
4, 22949, Note_on_c, 2, 67, 0
4, 22950, Note_on_c, 2, 72, 90
4, 22979, Note_on_c, 2, 72, 0
4, 22980, Note_on_c, 2, 76, 90
4, 23009, Note_on_c, 2, 76, 0
4, 23010, Note_on_c, 2, 79, 90
4, 23039, Note_on_c, 2, 79, 0
4, 23070, Note_on_c, 2, 55, 90
4, 23099, Note_on_c, 2, 55, 0
4, 23100, Note_on_c, 2, 59, 90
4, 23129, Note_on_c, 2, 59, 0
4, 23130, Note_on_c, 2, 62, 90
4, 23159, Note_on_c, 2, 62, 0
4, 23160, Note_on_c, 2, 67, 90
4, 23189, Note_on_c, 2, 67, 0
4, 23190, Note_on_c, 2, 71, 90
4, 23219, Note_on_c, 2, 71, 0
4, 23220, Note_on_c, 2, 74, 90
4, 23249, Note_on_c, 2, 74, 0
4, 23250, Note_on_c, 2, 79, 90
4, 23279, Note_on_c, 2, 79, 0
4, 23550, Note_on_c, 2, 79, 90
4, 23579, Note_on_c, 2, 79, 0
4, 23580, Note_on_c, 2, 78, 90
4, 23609, Note_on_c, 2, 78, 0
4, 23610, Note_on_c, 2, 76, 90
4, 23639, Note_on_c, 2, 76, 0
4, 23640, Note_on_c, 2, 74, 90
4, 23669, Note_on_c, 2, 74, 0
4, 23670, Note_on_c, 2, 72, 90
4, 23699, Note_on_c, 2, 72, 0
4, 23700, Note_on_c, 2, 71, 90
4, 23729, Note_on_c, 2, 71, 0
4, 23730, Note_on_c, 2, 69, 90
4, 23759, Note_on_c, 2, 69, 0
4, 23760, Note_on_c, 2, 67, 90
4, 23789, Note_on_c, 2, 67, 0
4, 23790, Note_on_c, 2, 55, 90
4, 23819, Note_on_c, 2, 55, 0
4, 23820, Note_on_c, 2, 59, 90
4, 23849, Note_on_c, 2, 59, 0
4, 23850, Note_on_c, 2, 62, 90
4, 23879, Note_on_c, 2, 62, 0
4, 23880, Note_on_c, 2, 67, 90
4, 23909, Note_on_c, 2, 67, 0
4, 23910, Note_on_c, 2, 71, 90
4, 23939, Note_on_c, 2, 71, 0
4, 23940, Note_on_c, 2, 74, 90
4, 23969, Note_on_c, 2, 74, 0
4, 23970, Note_on_c, 2, 77, 90
4, 23999, Note_on_c, 2, 77, 0
4, 24030, Note_on_c, 2, 55, 90
4, 24059, Note_on_c, 2, 55, 0
4, 24060, Note_on_c, 2, 60, 90
4, 24089, Note_on_c, 2, 60, 0
4, 24090, Note_on_c, 2, 64, 90
4, 24119, Note_on_c, 2, 64, 0
4, 24120, Note_on_c, 2, 67, 90
4, 24149, Note_on_c, 2, 67, 0
4, 24150, Note_on_c, 2, 72, 90
4, 24179, Note_on_c, 2, 72, 0
4, 24180, Note_on_c, 2, 76, 90
4, 24209, Note_on_c, 2, 76, 0
4, 24210, Note_on_c, 2, 79, 90
4, 24239, Note_on_c, 2, 79, 0
4, 24270, Note_on_c, 2, 57, 90
4, 24299, Note_on_c, 2, 57, 0
4, 24300, Note_on_c, 2, 60, 90
4, 24329, Note_on_c, 2, 60, 0
4, 24330, Note_on_c, 2, 66, 90
4, 24359, Note_on_c, 2, 66, 0
4, 24360, Note_on_c, 2, 69, 90
4, 24389, Note_on_c, 2, 69, 0
4, 24390, Note_on_c, 2, 72, 90
4, 24419, Note_on_c, 2, 72, 0
4, 24420, Note_on_c, 2, 78, 90
4, 24449, Note_on_c, 2, 78, 0
4, 24450, Note_on_c, 2, 81, 90
4, 24479, Note_on_c, 2, 81, 0
4, 24480, Note_on_c, 2, 74, 90
4, 24509, Note_on_c, 2, 74, 0
4, 24510, Note_on_c, 2, 83, 90
4, 24539, Note_on_c, 2, 83, 0
4, 24540, Note_on_c, 2, 78, 90
4, 24569, Note_on_c, 2, 78, 0
4, 24570, Note_on_c, 2, 79, 90
4, 24599, Note_on_c, 2, 79, 0
4, 24600, Note_on_c, 2, 72, 90
4, 24629, Note_on_c, 2, 72, 0
4, 24630, Note_on_c, 2, 71, 90
4, 24659, Note_on_c, 2, 71, 0
4, 24660, Note_on_c, 2, 69, 90
4, 24689, Note_on_c, 2, 69, 0
4, 24690, Note_on_c, 2, 67, 90
4, 24719, Note_on_c, 2, 67, 0
4, 24720, Note_on_c, 2, 67, 90
4, 24749, Note_on_c, 2, 67, 0
4, 24750, Note_on_c, 2, 71, 90
4, 24779, Note_on_c, 2, 71, 0
4, 24780, Note_on_c, 2, 66, 90
4, 24809, Note_on_c, 2, 66, 0
4, 24810, Note_on_c, 2, 67, 90
4, 24839, Note_on_c, 2, 67, 0
4, 24840, Note_on_c, 2, 60, 90
4, 24869, Note_on_c, 2, 60, 0
4, 24870, Note_on_c, 2, 59, 90
4, 24899, Note_on_c, 2, 59, 0
4, 24900, Note_on_c, 2, 57, 90
4, 24929, Note_on_c, 2, 57, 0
4, 24930, Note_on_c, 2, 55, 90
4, 24959, Note_on_c, 2, 55, 0
4, 24960, Note_on_c, 2, 55, 90
4, 25200, Note_on_c, 2, 55, 0
4, 153960, Note_on_c, 2, 71, 90
4, 154055, Note_on_c, 2, 71, 0
4, 154080, Note_on_c, 2, 69, 90
4, 154127, Note_on_c, 2, 69, 0
4, 154140, Note_on_c, 2, 67, 90
4, 154187, Note_on_c, 2, 67, 0
4, 154200, Note_on_c, 2, 74, 90
4, 154343, Note_on_c, 2, 74, 0
4, 154380, Note_on_c, 2, 76, 90
4, 154427, Note_on_c, 2, 76, 0
4, 154440, Note_on_c, 2, 72, 90
4, 154535, Note_on_c, 2, 72, 0
4, 154560, Note_on_c, 2, 71, 90
4, 154607, Note_on_c, 2, 71, 0
4, 154620, Note_on_c, 2, 69, 90
4, 154667, Note_on_c, 2, 69, 0
4, 154680, Note_on_c, 2, 69, 90
4, 154871, Note_on_c, 2, 69, 0
4, 154920, Note_on_c, 2, 74, 90
4, 155015, Note_on_c, 2, 74, 0
4, 155040, Note_on_c, 2, 71, 90
4, 155135, Note_on_c, 2, 71, 0
4, 155160, Note_on_c, 2, 67, 90
4, 155303, Note_on_c, 2, 67, 0
4, 155340, Note_on_c, 2, 72, 90
4, 155387, Note_on_c, 2, 72, 0
4, 155400, Note_on_c, 2, 69, 90
4, 155495, Note_on_c, 2, 69, 0
4, 155520, Note_on_c, 2, 74, 90
4, 155615, Note_on_c, 2, 74, 0
4, 155640, Note_on_c, 2, 71, 90
4, 155656, Note_on_c, 2, 71, 0
4, 155660, Note_on_c, 2, 72, 90
4, 155676, Note_on_c, 2, 72, 0
4, 155680, Note_on_c, 2, 71, 90
4, 155696, Note_on_c, 2, 71, 0
4, 155700, Note_on_c, 2, 72, 90
4, 155712, Note_on_c, 2, 72, 0
4, 155715, Note_on_c, 2, 71, 90
4, 155727, Note_on_c, 2, 71, 0
4, 155730, Note_on_c, 2, 72, 90
4, 155742, Note_on_c, 2, 72, 0
4, 155745, Note_on_c, 2, 71, 90
4, 155757, Note_on_c, 2, 71, 0
4, 155760, Note_on_c, 2, 69, 90
4, 155807, Note_on_c, 2, 69, 0
4, 155820, Note_on_c, 2, 67, 90
4, 155867, Note_on_c, 2, 67, 0
4, 155880, Note_on_c, 2, 71, 90
4, 155975, Note_on_c, 2, 71, 0
4, 156000, Note_on_c, 2, 76, 90
4, 156095, Note_on_c, 2, 76, 0
4, 156120, Note_on_c, 2, 73, 90
4, 156263, Note_on_c, 2, 73, 0
4, 156300, Note_on_c, 2, 74, 90
4, 156347, Note_on_c, 2, 74, 0
4, 156360, Note_on_c, 2, 76, 90
4, 156455, Note_on_c, 2, 76, 0
4, 156480, Note_on_c, 2, 78, 90
4, 156527, Note_on_c, 2, 78, 0
4, 156540, Note_on_c, 2, 79, 90
4, 156587, Note_on_c, 2, 79, 0
4, 156600, Note_on_c, 2, 76, 90
4, 156791, Note_on_c, 2, 76, 0
4, 156840, Note_on_c, 2, 81, 90
4, 156935, Note_on_c, 2, 81, 0
4, 156960, Note_on_c, 2, 73, 90
4, 157055, Note_on_c, 2, 73, 0
4, 157080, Note_on_c, 2, 74, 90
4, 157223, Note_on_c, 2, 74, 0
4, 157260, Note_on_c, 2, 76, 90
4, 157307, Note_on_c, 2, 76, 0
4, 157320, Note_on_c, 2, 76, 90
4, 157463, Note_on_c, 2, 76, 0
4, 157500, Note_on_c, 2, 74, 90
4, 157547, Note_on_c, 2, 74, 0
4, 157560, Note_on_c, 2, 74, 90
4, 157751, Note_on_c, 2, 74, 0
4, 157800, Note_on_c, 2, 79, 90
4, 157895, Note_on_c, 2, 79, 0
4, 157920, Note_on_c, 2, 74, 90
4, 158015, Note_on_c, 2, 74, 0
4, 158040, Note_on_c, 2, 76, 90
4, 158183, Note_on_c, 2, 76, 0
4, 158220, Note_on_c, 2, 77, 90
4, 158267, Note_on_c, 2, 77, 0
4, 158280, Note_on_c, 2, 76, 90
4, 158327, Note_on_c, 2, 76, 0
4, 158340, Note_on_c, 2, 74, 90
4, 158387, Note_on_c, 2, 74, 0
4, 158400, Note_on_c, 2, 72, 90
4, 158447, Note_on_c, 2, 72, 0
4, 158460, Note_on_c, 2, 71, 90
4, 158507, Note_on_c, 2, 71, 0
4, 158520, Note_on_c, 2, 72, 90
4, 158711, Note_on_c, 2, 72, 0
4, 158760, Note_on_c, 2, 74, 90
4, 158855, Note_on_c, 2, 74, 0
4, 158880, Note_on_c, 2, 69, 90
4, 158975, Note_on_c, 2, 69, 0
4, 159000, Note_on_c, 2, 71, 90
4, 159095, Note_on_c, 2, 71, 0
4, 159120, Note_on_c, 2, 67, 90
4, 159215, Note_on_c, 2, 67, 0
4, 159240, Note_on_c, 2, 64, 90
4, 159335, Note_on_c, 2, 64, 0
4, 159360, Note_on_c, 2, 69, 90
4, 159455, Note_on_c, 2, 69, 0
4, 159480, Note_on_c, 2, 66, 90
4, 159575, Note_on_c, 2, 66, 0
4, 159600, Note_on_c, 2, 64, 90
4, 159647, Note_on_c, 2, 64, 0
4, 159660, Note_on_c, 2, 62, 90
4, 159707, Note_on_c, 2, 62, 0
4, 159720, Note_on_c, 2, 69, 90
4, 159815, Note_on_c, 2, 69, 0
4, 159840, Note_on_c, 2, 74, 90
4, 159935, Note_on_c, 2, 74, 0
4, 159960, Note_on_c, 2, 71, 90
4, 160103, Note_on_c, 2, 71, 0
4, 160140, Note_on_c, 2, 71, 90
4, 160187, Note_on_c, 2, 71, 0
4, 160200, Note_on_c, 2, 72, 90
4, 160295, Note_on_c, 2, 72, 0
4, 160320, Note_on_c, 2, 74, 90
4, 160415, Note_on_c, 2, 74, 0
4, 160440, Note_on_c, 2, 76, 90
4, 160583, Note_on_c, 2, 76, 0
4, 160620, Note_on_c, 2, 74, 90
4, 160667, Note_on_c, 2, 74, 0
4, 160680, Note_on_c, 2, 76, 90
4, 160775, Note_on_c, 2, 76, 0
4, 160800, Note_on_c, 2, 78, 90
4, 160895, Note_on_c, 2, 78, 0
4, 160920, Note_on_c, 2, 79, 90
4, 160967, Note_on_c, 2, 79, 0
4, 160980, Note_on_c, 2, 71, 90
4, 161027, Note_on_c, 2, 71, 0
4, 161040, Note_on_c, 2, 72, 90
4, 161087, Note_on_c, 2, 72, 0
4, 161100, Note_on_c, 2, 74, 90
4, 161147, Note_on_c, 2, 74, 0
4, 161160, Note_on_c, 2, 69, 90
4, 161303, Note_on_c, 2, 69, 0
4, 161340, Note_on_c, 2, 67, 90
4, 161387, Note_on_c, 2, 67, 0
4, 161400, Note_on_c, 2, 67, 90
4, 161591, Note_on_c, 2, 67, 0
4, 162240, Note_on_c, 2, 71, 100
4, 162360, Note_on_c, 2, 71, 0
4, 162360, Note_on_c, 2, 74, 100
4, 162600, Note_on_c, 2, 74, 0
4, 162600, Note_on_c, 2, 67, 90
4, 162647, Note_on_c, 2, 67, 0
4, 162660, Note_on_c, 2, 71, 90
4, 162707, Note_on_c, 2, 71, 0
4, 162720, Note_on_c, 2, 74, 90
4, 162767, Note_on_c, 2, 74, 0
4, 162780, Note_on_c, 2, 79, 90
4, 162827, Note_on_c, 2, 79, 0
4, 162840, Note_on_c, 2, 67, 90
4, 162887, Note_on_c, 2, 67, 0
4, 162900, Note_on_c, 2, 71, 90
4, 162947, Note_on_c, 2, 71, 0
4, 162960, Note_on_c, 2, 76, 90
4, 163007, Note_on_c, 2, 76, 0
4, 163020, Note_on_c, 2, 79, 90
4, 163067, Note_on_c, 2, 79, 0
4, 163080, Note_on_c, 2, 78, 90
4, 163127, Note_on_c, 2, 78, 0
4, 163140, Note_on_c, 2, 81, 90
4, 163187, Note_on_c, 2, 81, 0
4, 163200, Note_on_c, 2, 74, 90
4, 163247, Note_on_c, 2, 74, 0
4, 163260, Note_on_c, 2, 79, 90
4, 163307, Note_on_c, 2, 79, 0
4, 163320, Note_on_c, 2, 79, 90
4, 163367, Note_on_c, 2, 79, 0
4, 163380, Note_on_c, 2, 78, 90
4, 163427, Note_on_c, 2, 78, 0
4, 163440, Note_on_c, 2, 76, 90
4, 163487, Note_on_c, 2, 76, 0
4, 163500, Note_on_c, 2, 74, 90
4, 163547, Note_on_c, 2, 74, 0
4, 164160, Note_on_c, 2, 66, 90
4, 164255, Note_on_c, 2, 66, 0
4, 164280, Note_on_c, 2, 69, 90
4, 164471, Note_on_c, 2, 69, 0
4, 165120, Note_on_c, 2, 69, 90
4, 165215, Note_on_c, 2, 69, 0
4, 165240, Note_on_c, 2, 69, 90
4, 165431, Note_on_c, 2, 69, 0
4, 166080, Note_on_c, 2, 68, 90
4, 166175, Note_on_c, 2, 68, 0
4, 166200, Note_on_c, 2, 69, 90
4, 166391, Note_on_c, 2, 69, 0
4, 167040, Note_on_c, 2, 73, 90
4, 167135, Note_on_c, 2, 73, 0
4, 167160, Note_on_c, 2, 69, 90
4, 167351, Note_on_c, 2, 69, 0
4, 167400, Note_on_c, 2, 62, 90
4, 167447, Note_on_c, 2, 62, 0
4, 167460, Note_on_c, 2, 66, 90
4, 167507, Note_on_c, 2, 66, 0
4, 167520, Note_on_c, 2, 69, 90
4, 167567, Note_on_c, 2, 69, 0
4, 167580, Note_on_c, 2, 74, 90
4, 167627, Note_on_c, 2, 74, 0
4, 167640, Note_on_c, 2, 62, 90
4, 167687, Note_on_c, 2, 62, 0
4, 167700, Note_on_c, 2, 67, 90
4, 167747, Note_on_c, 2, 67, 0
4, 167760, Note_on_c, 2, 71, 90
4, 167807, Note_on_c, 2, 71, 0
4, 167820, Note_on_c, 2, 74, 90
4, 167867, Note_on_c, 2, 74, 0
4, 167880, Note_on_c, 2, 64, 90
4, 167927, Note_on_c, 2, 64, 0
4, 167940, Note_on_c, 2, 67, 90
4, 167987, Note_on_c, 2, 67, 0
4, 168000, Note_on_c, 2, 57, 90
4, 168047, Note_on_c, 2, 57, 0
4, 168060, Note_on_c, 2, 59, 90
4, 168107, Note_on_c, 2, 59, 0
4, 168120, Note_on_c, 2, 60, 90
4, 168167, Note_on_c, 2, 60, 0
4, 168180, Note_on_c, 2, 64, 90
4, 168227, Note_on_c, 2, 64, 0
4, 168240, Note_on_c, 2, 67, 90
4, 168287, Note_on_c, 2, 67, 0
4, 168300, Note_on_c, 2, 72, 90
4, 168347, Note_on_c, 2, 72, 0
4, 168960, Note_on_c, 2, 74, 90
4, 169055, Note_on_c, 2, 74, 0
4, 169080, Note_on_c, 2, 74, 90
4, 169271, Note_on_c, 2, 74, 0
4, 169320, Note_on_c, 2, 71, 90
4, 169415, Note_on_c, 2, 71, 0
4, 169440, Note_on_c, 2, 69, 90
4, 169487, Note_on_c, 2, 69, 0
4, 169500, Note_on_c, 2, 67, 90
4, 169547, Note_on_c, 2, 67, 0
4, 169560, Note_on_c, 2, 74, 90
4, 169703, Note_on_c, 2, 74, 0
4, 169740, Note_on_c, 2, 76, 90
4, 169787, Note_on_c, 2, 76, 0
4, 169800, Note_on_c, 2, 72, 90
4, 169895, Note_on_c, 2, 72, 0
4, 169920, Note_on_c, 2, 71, 90
4, 169967, Note_on_c, 2, 71, 0
4, 169980, Note_on_c, 2, 69, 90
4, 170027, Note_on_c, 2, 69, 0
4, 170040, Note_on_c, 2, 69, 90
4, 170231, Note_on_c, 2, 69, 0
4, 170280, Note_on_c, 2, 74, 90
4, 170375, Note_on_c, 2, 74, 0
4, 170400, Note_on_c, 2, 71, 90
4, 170495, Note_on_c, 2, 71, 0
4, 170520, Note_on_c, 2, 67, 90
4, 170663, Note_on_c, 2, 67, 0
4, 170700, Note_on_c, 2, 72, 90
4, 170747, Note_on_c, 2, 72, 0
4, 170760, Note_on_c, 2, 69, 90
4, 170855, Note_on_c, 2, 69, 0
4, 170880, Note_on_c, 2, 74, 90
4, 170975, Note_on_c, 2, 74, 0
4, 171000, Note_on_c, 2, 71, 90
4, 171016, Note_on_c, 2, 71, 0
4, 171020, Note_on_c, 2, 72, 90
4, 171036, Note_on_c, 2, 72, 0
4, 171040, Note_on_c, 2, 71, 90
4, 171056, Note_on_c, 2, 71, 0
4, 171060, Note_on_c, 2, 72, 90
4, 171072, Note_on_c, 2, 72, 0
4, 171075, Note_on_c, 2, 71, 90
4, 171087, Note_on_c, 2, 71, 0
4, 171090, Note_on_c, 2, 72, 90
4, 171102, Note_on_c, 2, 72, 0
4, 171105, Note_on_c, 2, 71, 90
4, 171117, Note_on_c, 2, 71, 0
4, 171120, Note_on_c, 2, 69, 90
4, 171167, Note_on_c, 2, 69, 0
4, 171180, Note_on_c, 2, 67, 90
4, 171227, Note_on_c, 2, 67, 0
4, 171240, Note_on_c, 2, 71, 90
4, 171335, Note_on_c, 2, 71, 0
4, 171360, Note_on_c, 2, 76, 90
4, 171455, Note_on_c, 2, 76, 0
4, 171480, Note_on_c, 2, 73, 90
4, 171623, Note_on_c, 2, 73, 0
4, 171660, Note_on_c, 2, 74, 90
4, 171707, Note_on_c, 2, 74, 0
4, 171720, Note_on_c, 2, 76, 90
4, 171815, Note_on_c, 2, 76, 0
4, 171840, Note_on_c, 2, 78, 90
4, 171887, Note_on_c, 2, 78, 0
4, 171900, Note_on_c, 2, 79, 90
4, 171947, Note_on_c, 2, 79, 0
4, 171960, Note_on_c, 2, 76, 90
4, 172151, Note_on_c, 2, 76, 0
4, 172200, Note_on_c, 2, 81, 90
4, 172295, Note_on_c, 2, 81, 0
4, 172320, Note_on_c, 2, 73, 90
4, 172415, Note_on_c, 2, 73, 0
4, 172440, Note_on_c, 2, 74, 90
4, 172583, Note_on_c, 2, 74, 0
4, 172620, Note_on_c, 2, 76, 90
4, 172667, Note_on_c, 2, 76, 0
4, 172680, Note_on_c, 2, 76, 90
4, 172823, Note_on_c, 2, 76, 0
4, 172860, Note_on_c, 2, 74, 90
4, 172907, Note_on_c, 2, 74, 0
4, 172920, Note_on_c, 2, 74, 90
4, 173111, Note_on_c, 2, 74, 0
4, 173160, Note_on_c, 2, 79, 90
4, 173255, Note_on_c, 2, 79, 0
4, 173280, Note_on_c, 2, 74, 90
4, 173375, Note_on_c, 2, 74, 0
4, 173400, Note_on_c, 2, 76, 90
4, 173543, Note_on_c, 2, 76, 0
4, 173580, Note_on_c, 2, 77, 90
4, 173627, Note_on_c, 2, 77, 0
4, 173640, Note_on_c, 2, 76, 90
4, 173687, Note_on_c, 2, 76, 0
4, 173700, Note_on_c, 2, 74, 90
4, 173747, Note_on_c, 2, 74, 0
4, 173760, Note_on_c, 2, 72, 90
4, 173807, Note_on_c, 2, 72, 0
4, 173820, Note_on_c, 2, 71, 90
4, 173867, Note_on_c, 2, 71, 0
4, 173880, Note_on_c, 2, 72, 90
4, 174071, Note_on_c, 2, 72, 0
4, 174120, Note_on_c, 2, 74, 90
4, 174215, Note_on_c, 2, 74, 0
4, 174240, Note_on_c, 2, 69, 90
4, 174335, Note_on_c, 2, 69, 0
4, 174360, Note_on_c, 2, 71, 90
4, 174455, Note_on_c, 2, 71, 0
4, 174480, Note_on_c, 2, 67, 90
4, 174575, Note_on_c, 2, 67, 0
4, 174600, Note_on_c, 2, 64, 90
4, 174695, Note_on_c, 2, 64, 0
4, 174720, Note_on_c, 2, 69, 90
4, 174815, Note_on_c, 2, 69, 0
4, 174840, Note_on_c, 2, 66, 90
4, 174935, Note_on_c, 2, 66, 0
4, 174960, Note_on_c, 2, 64, 90
4, 175007, Note_on_c, 2, 64, 0
4, 175020, Note_on_c, 2, 62, 90
4, 175067, Note_on_c, 2, 62, 0
4, 175080, Note_on_c, 2, 69, 90
4, 175175, Note_on_c, 2, 69, 0
4, 175200, Note_on_c, 2, 74, 90
4, 175295, Note_on_c, 2, 74, 0
4, 175320, Note_on_c, 2, 71, 90
4, 175463, Note_on_c, 2, 71, 0
4, 175500, Note_on_c, 2, 71, 90
4, 175547, Note_on_c, 2, 71, 0
4, 175560, Note_on_c, 2, 72, 90
4, 175655, Note_on_c, 2, 72, 0
4, 175680, Note_on_c, 2, 74, 90
4, 175775, Note_on_c, 2, 74, 0
4, 175800, Note_on_c, 2, 76, 90
4, 175943, Note_on_c, 2, 76, 0
4, 175980, Note_on_c, 2, 74, 90
4, 176027, Note_on_c, 2, 74, 0
4, 176040, Note_on_c, 2, 76, 90
4, 176135, Note_on_c, 2, 76, 0
4, 176160, Note_on_c, 2, 78, 90
4, 176255, Note_on_c, 2, 78, 0
4, 176280, Note_on_c, 2, 79, 90
4, 176327, Note_on_c, 2, 79, 0
4, 176340, Note_on_c, 2, 71, 90
4, 176387, Note_on_c, 2, 71, 0
4, 176400, Note_on_c, 2, 72, 90
4, 176447, Note_on_c, 2, 72, 0
4, 176460, Note_on_c, 2, 74, 90
4, 176507, Note_on_c, 2, 74, 0
4, 176520, Note_on_c, 2, 69, 90
4, 176663, Note_on_c, 2, 69, 0
4, 176700, Note_on_c, 2, 67, 90
4, 176747, Note_on_c, 2, 67, 0
4, 176760, Note_on_c, 2, 67, 90
4, 176951, Note_on_c, 2, 67, 0
4, 176951, End_track
5, 0, Start_track
5, 0, MIDI_port, 0
5, 0, Title_t, "violin ii"
5, 0, Program_c, 3, 48
5, 60, Note_on_c, 3, 55, 90
5, 89, Note_on_c, 3, 55, 0
5, 90, Note_on_c, 3, 59, 90
5, 119, Note_on_c, 3, 59, 0
5, 120, Note_on_c, 3, 62, 90
5, 149, Note_on_c, 3, 62, 0
5, 150, Note_on_c, 3, 67, 90
5, 179, Note_on_c, 3, 67, 0
5, 180, Note_on_c, 3, 71, 90
5, 209, Note_on_c, 3, 71, 0
5, 210, Note_on_c, 3, 74, 90
5, 239, Note_on_c, 3, 74, 0
5, 300, Note_on_c, 3, 55, 90
5, 329, Note_on_c, 3, 55, 0
5, 330, Note_on_c, 3, 60, 90
5, 359, Note_on_c, 3, 60, 0
5, 360, Note_on_c, 3, 64, 90
5, 389, Note_on_c, 3, 64, 0
5, 390, Note_on_c, 3, 67, 90
5, 419, Note_on_c, 3, 67, 0
5, 420, Note_on_c, 3, 72, 90
5, 449, Note_on_c, 3, 72, 0
5, 450, Note_on_c, 3, 76, 90
5, 479, Note_on_c, 3, 76, 0
5, 540, Note_on_c, 3, 57, 90
5, 569, Note_on_c, 3, 57, 0
5, 570, Note_on_c, 3, 60, 90
5, 599, Note_on_c, 3, 60, 0
5, 600, Note_on_c, 3, 66, 90
5, 629, Note_on_c, 3, 66, 0
5, 630, Note_on_c, 3, 69, 90
5, 659, Note_on_c, 3, 69, 0
5, 660, Note_on_c, 3, 72, 90
5, 689, Note_on_c, 3, 72, 0
5, 690, Note_on_c, 3, 78, 90
5, 719, Note_on_c, 3, 78, 0
5, 780, Note_on_c, 3, 59, 90
5, 809, Note_on_c, 3, 59, 0
5, 810, Note_on_c, 3, 62, 90
5, 839, Note_on_c, 3, 62, 0
5, 840, Note_on_c, 3, 67, 90
5, 869, Note_on_c, 3, 67, 0
5, 870, Note_on_c, 3, 71, 90
5, 899, Note_on_c, 3, 71, 0
5, 900, Note_on_c, 3, 74, 90
5, 929, Note_on_c, 3, 74, 0
5, 930, Note_on_c, 3, 79, 90
5, 959, Note_on_c, 3, 79, 0
5, 1020, Note_on_c, 3, 60, 90
5, 1049, Note_on_c, 3, 60, 0
5, 1050, Note_on_c, 3, 64, 90
5, 1079, Note_on_c, 3, 64, 0
5, 1080, Note_on_c, 3, 67, 90
5, 1109, Note_on_c, 3, 67, 0
5, 1110, Note_on_c, 3, 72, 90
5, 1139, Note_on_c, 3, 72, 0
5, 1140, Note_on_c, 3, 76, 90
5, 1169, Note_on_c, 3, 76, 0
5, 1170, Note_on_c, 3, 79, 90
5, 1199, Note_on_c, 3, 79, 0
5, 1260, Note_on_c, 3, 62, 90
5, 1289, Note_on_c, 3, 62, 0
5, 1290, Note_on_c, 3, 66, 90
5, 1319, Note_on_c, 3, 66, 0
5, 1320, Note_on_c, 3, 69, 90
5, 1349, Note_on_c, 3, 69, 0
5, 1350, Note_on_c, 3, 74, 90
5, 1379, Note_on_c, 3, 74, 0
5, 1380, Note_on_c, 3, 78, 90
5, 1409, Note_on_c, 3, 78, 0
5, 1410, Note_on_c, 3, 81, 90
5, 1439, Note_on_c, 3, 81, 0
5, 1500, Note_on_c, 3, 55, 90
5, 1529, Note_on_c, 3, 55, 0
5, 1530, Note_on_c, 3, 59, 90
5, 1559, Note_on_c, 3, 59, 0
5, 1560, Note_on_c, 3, 62, 90
5, 1589, Note_on_c, 3, 62, 0
5, 1590, Note_on_c, 3, 67, 90
5, 1619, Note_on_c, 3, 67, 0
5, 1620, Note_on_c, 3, 71, 90
5, 1649, Note_on_c, 3, 71, 0
5, 1650, Note_on_c, 3, 74, 90
5, 1679, Note_on_c, 3, 74, 0
5, 1740, Note_on_c, 3, 55, 90
5, 1769, Note_on_c, 3, 55, 0
5, 1770, Note_on_c, 3, 59, 90
5, 1799, Note_on_c, 3, 59, 0
5, 1800, Note_on_c, 3, 62, 90
5, 1829, Note_on_c, 3, 62, 0
5, 1830, Note_on_c, 3, 67, 90
5, 1859, Note_on_c, 3, 67, 0
5, 1860, Note_on_c, 3, 71, 90
5, 1889, Note_on_c, 3, 71, 0
5, 1890, Note_on_c, 3, 74, 90
5, 1919, Note_on_c, 3, 74, 0
5, 1980, Note_on_c, 3, 57, 90
5, 2009, Note_on_c, 3, 57, 0
5, 2010, Note_on_c, 3, 60, 90
5, 2039, Note_on_c, 3, 60, 0
5, 2040, Note_on_c, 3, 64, 90
5, 2069, Note_on_c, 3, 64, 0
5, 2070, Note_on_c, 3, 69, 90
5, 2099, Note_on_c, 3, 69, 0
5, 2100, Note_on_c, 3, 72, 90
5, 2129, Note_on_c, 3, 72, 0
5, 2130, Note_on_c, 3, 76, 90
5, 2159, Note_on_c, 3, 76, 0
5, 2220, Note_on_c, 3, 57, 90
5, 2249, Note_on_c, 3, 57, 0
5, 2250, Note_on_c, 3, 62, 90
5, 2279, Note_on_c, 3, 62, 0
5, 2280, Note_on_c, 3, 66, 90
5, 2309, Note_on_c, 3, 66, 0
5, 2310, Note_on_c, 3, 69, 90
5, 2339, Note_on_c, 3, 69, 0
5, 2340, Note_on_c, 3, 74, 90
5, 2369, Note_on_c, 3, 74, 0
5, 2370, Note_on_c, 3, 78, 90
5, 2399, Note_on_c, 3, 78, 0
5, 2460, Note_on_c, 3, 55, 90
5, 2489, Note_on_c, 3, 55, 0
5, 2490, Note_on_c, 3, 59, 90
5, 2519, Note_on_c, 3, 59, 0
5, 2520, Note_on_c, 3, 62, 90
5, 2549, Note_on_c, 3, 62, 0
5, 2550, Note_on_c, 3, 67, 90
5, 2579, Note_on_c, 3, 67, 0
5, 2580, Note_on_c, 3, 71, 90
5, 2609, Note_on_c, 3, 71, 0
5, 2610, Note_on_c, 3, 74, 90
5, 2639, Note_on_c, 3, 74, 0
5, 2700, Note_on_c, 3, 57, 90
5, 2729, Note_on_c, 3, 57, 0
5, 2730, Note_on_c, 3, 60, 90
5, 2759, Note_on_c, 3, 60, 0
5, 2760, Note_on_c, 3, 66, 90
5, 2789, Note_on_c, 3, 66, 0
5, 2790, Note_on_c, 3, 69, 90
5, 2819, Note_on_c, 3, 69, 0
5, 2820, Note_on_c, 3, 72, 90
5, 2849, Note_on_c, 3, 72, 0
5, 2850, Note_on_c, 3, 78, 90
5, 2879, Note_on_c, 3, 78, 0
5, 2940, Note_on_c, 3, 57, 90
5, 2969, Note_on_c, 3, 57, 0
5, 2970, Note_on_c, 3, 61, 90
5, 2999, Note_on_c, 3, 61, 0
5, 3000, Note_on_c, 3, 64, 90
5, 3029, Note_on_c, 3, 64, 0
5, 3030, Note_on_c, 3, 69, 90
5, 3059, Note_on_c, 3, 69, 0
5, 3060, Note_on_c, 3, 73, 90
5, 3089, Note_on_c, 3, 73, 0
5, 3090, Note_on_c, 3, 76, 90
5, 3119, Note_on_c, 3, 76, 0
5, 3180, Note_on_c, 3, 59, 90
5, 3209, Note_on_c, 3, 59, 0
5, 3210, Note_on_c, 3, 62, 90
5, 3239, Note_on_c, 3, 62, 0
5, 3240, Note_on_c, 3, 68, 90
5, 3269, Note_on_c, 3, 68, 0
5, 3270, Note_on_c, 3, 71, 90
5, 3299, Note_on_c, 3, 71, 0
5, 3300, Note_on_c, 3, 74, 90
5, 3329, Note_on_c, 3, 74, 0
5, 3330, Note_on_c, 3, 80, 90
5, 3359, Note_on_c, 3, 80, 0
5, 3420, Note_on_c, 3, 61, 90
5, 3449, Note_on_c, 3, 61, 0
5, 3450, Note_on_c, 3, 64, 90
5, 3479, Note_on_c, 3, 64, 0
5, 3480, Note_on_c, 3, 67, 90
5, 3509, Note_on_c, 3, 67, 0
5, 3510, Note_on_c, 3, 70, 90
5, 3539, Note_on_c, 3, 70, 0
5, 3540, Note_on_c, 3, 76, 90
5, 3569, Note_on_c, 3, 76, 0
5, 3570, Note_on_c, 3, 79, 90
5, 3599, Note_on_c, 3, 79, 0
5, 3660, Note_on_c, 3, 62, 90
5, 3689, Note_on_c, 3, 62, 0
5, 3690, Note_on_c, 3, 67, 90
5, 3719, Note_on_c, 3, 67, 0
5, 3720, Note_on_c, 3, 73, 90
5, 3749, Note_on_c, 3, 73, 0
5, 3750, Note_on_c, 3, 76, 90
5, 3779, Note_on_c, 3, 76, 0
5, 3780, Note_on_c, 3, 79, 90
5, 3809, Note_on_c, 3, 79, 0
5, 3810, Note_on_c, 3, 82, 90
5, 3839, Note_on_c, 3, 82, 0
5, 4110, Note_on_c, 3, 67, 90
5, 4139, Note_on_c, 3, 67, 0
5, 4140, Note_on_c, 3, 66, 90
5, 4169, Note_on_c, 3, 66, 0
5, 4170, Note_on_c, 3, 64, 90
5, 4199, Note_on_c, 3, 64, 0
5, 4200, Note_on_c, 3, 62, 90
5, 4229, Note_on_c, 3, 62, 0
5, 4230, Note_on_c, 3, 59, 90
5, 4259, Note_on_c, 3, 59, 0
5, 4260, Note_on_c, 3, 57, 90
5, 4289, Note_on_c, 3, 57, 0
5, 4290, Note_on_c, 3, 55, 90
5, 4319, Note_on_c, 3, 55, 0
5, 4320, Note_on_c, 3, 57, 90
5, 4379, Note_on_c, 3, 57, 0
5, 4380, Note_on_c, 3, 57, 90
5, 4409, Note_on_c, 3, 57, 0
5, 4410, Note_on_c, 3, 62, 90
5, 4439, Note_on_c, 3, 62, 0
5, 4440, Note_on_c, 3, 66, 90
5, 4469, Note_on_c, 3, 66, 0
5, 4470, Note_on_c, 3, 69, 90
5, 4499, Note_on_c, 3, 69, 0
5, 4500, Note_on_c, 3, 74, 90
5, 4529, Note_on_c, 3, 74, 0
5, 4530, Note_on_c, 3, 78, 90
5, 4559, Note_on_c, 3, 78, 0
5, 4620, Note_on_c, 3, 55, 90
5, 4649, Note_on_c, 3, 55, 0
5, 4650, Note_on_c, 3, 59, 90
5, 4679, Note_on_c, 3, 59, 0
5, 4680, Note_on_c, 3, 62, 90
5, 4709, Note_on_c, 3, 62, 0
5, 4710, Note_on_c, 3, 67, 90
5, 4739, Note_on_c, 3, 67, 0
5, 4740, Note_on_c, 3, 71, 90
5, 4769, Note_on_c, 3, 71, 0
5, 4770, Note_on_c, 3, 74, 90
5, 4799, Note_on_c, 3, 74, 0
5, 4860, Note_on_c, 3, 55, 90
5, 4889, Note_on_c, 3, 55, 0
5, 4890, Note_on_c, 3, 59, 90
5, 4919, Note_on_c, 3, 59, 0
5, 4920, Note_on_c, 3, 62, 90
5, 4949, Note_on_c, 3, 62, 0
5, 4950, Note_on_c, 3, 67, 90
5, 4979, Note_on_c, 3, 67, 0
5, 4980, Note_on_c, 3, 71, 90
5, 5009, Note_on_c, 3, 71, 0
5, 5010, Note_on_c, 3, 74, 90
5, 5039, Note_on_c, 3, 74, 0
5, 5100, Note_on_c, 3, 57, 90
5, 5129, Note_on_c, 3, 57, 0
5, 5130, Note_on_c, 3, 60, 90
5, 5159, Note_on_c, 3, 60, 0
5, 5160, Note_on_c, 3, 63, 90
5, 5189, Note_on_c, 3, 63, 0
5, 5190, Note_on_c, 3, 67, 90
5, 5219, Note_on_c, 3, 67, 0
5, 5220, Note_on_c, 3, 72, 90
5, 5249, Note_on_c, 3, 72, 0
5, 5250, Note_on_c, 3, 75, 90
5, 5279, Note_on_c, 3, 75, 0
5, 5340, Note_on_c, 3, 57, 90
5, 5369, Note_on_c, 3, 57, 0
5, 5370, Note_on_c, 3, 62, 90
5, 5399, Note_on_c, 3, 62, 0
5, 5400, Note_on_c, 3, 67, 90
5, 5429, Note_on_c, 3, 67, 0
5, 5430, Note_on_c, 3, 70, 90
5, 5459, Note_on_c, 3, 70, 0
5, 5460, Note_on_c, 3, 74, 90
5, 5489, Note_on_c, 3, 74, 0
5, 5490, Note_on_c, 3, 79, 90
5, 5519, Note_on_c, 3, 79, 0
5, 5580, Note_on_c, 3, 66, 90
5, 5609, Note_on_c, 3, 66, 0
5, 5610, Note_on_c, 3, 69, 90
5, 5639, Note_on_c, 3, 69, 0
5, 5640, Note_on_c, 3, 72, 90
5, 5669, Note_on_c, 3, 72, 0
5, 5670, Note_on_c, 3, 75, 90
5, 5699, Note_on_c, 3, 75, 0
5, 5700, Note_on_c, 3, 78, 90
5, 5729, Note_on_c, 3, 78, 0
5, 5730, Note_on_c, 3, 81, 90
5, 5759, Note_on_c, 3, 81, 0
5, 6030, Note_on_c, 3, 72, 90
5, 6059, Note_on_c, 3, 72, 0
5, 6060, Note_on_c, 3, 71, 90
5, 6089, Note_on_c, 3, 71, 0
5, 6090, Note_on_c, 3, 69, 90
5, 6119, Note_on_c, 3, 69, 0
5, 6120, Note_on_c, 3, 67, 90
5, 6149, Note_on_c, 3, 67, 0
5, 6150, Note_on_c, 3, 64, 90
5, 6179, Note_on_c, 3, 64, 0
5, 6180, Note_on_c, 3, 62, 90
5, 6209, Note_on_c, 3, 62, 0
5, 6210, Note_on_c, 3, 60, 90
5, 6239, Note_on_c, 3, 60, 0
5, 6240, Note_on_c, 3, 62, 90
5, 6299, Note_on_c, 3, 62, 0
5, 6300, Note_on_c, 3, 55, 90
5, 6329, Note_on_c, 3, 55, 0
5, 6330, Note_on_c, 3, 59, 90
5, 6359, Note_on_c, 3, 59, 0
5, 6360, Note_on_c, 3, 62, 90
5, 6389, Note_on_c, 3, 62, 0
5, 6390, Note_on_c, 3, 67, 90
5, 6419, Note_on_c, 3, 67, 0
5, 6420, Note_on_c, 3, 71, 90
5, 6449, Note_on_c, 3, 71, 0
5, 6450, Note_on_c, 3, 74, 90
5, 6479, Note_on_c, 3, 74, 0
5, 6540, Note_on_c, 3, 55, 90
5, 6569, Note_on_c, 3, 55, 0
5, 6570, Note_on_c, 3, 60, 90
5, 6599, Note_on_c, 3, 60, 0
5, 6600, Note_on_c, 3, 64, 90
5, 6629, Note_on_c, 3, 64, 0
5, 6630, Note_on_c, 3, 67, 90
5, 6659, Note_on_c, 3, 67, 0
5, 6660, Note_on_c, 3, 72, 90
5, 6689, Note_on_c, 3, 72, 0
5, 6690, Note_on_c, 3, 76, 90
5, 6719, Note_on_c, 3, 76, 0
5, 6780, Note_on_c, 3, 55, 90
5, 6809, Note_on_c, 3, 55, 0
5, 6810, Note_on_c, 3, 59, 90
5, 6839, Note_on_c, 3, 59, 0
5, 6840, Note_on_c, 3, 62, 90
5, 6869, Note_on_c, 3, 62, 0
5, 6870, Note_on_c, 3, 67, 90
5, 6899, Note_on_c, 3, 67, 0
5, 6900, Note_on_c, 3, 71, 90
5, 6929, Note_on_c, 3, 71, 0
5, 6930, Note_on_c, 3, 74, 90
5, 6959, Note_on_c, 3, 74, 0
5, 7230, Note_on_c, 3, 74, 90
5, 7259, Note_on_c, 3, 74, 0
5, 7260, Note_on_c, 3, 72, 90
5, 7289, Note_on_c, 3, 72, 0
5, 7290, Note_on_c, 3, 71, 90
5, 7319, Note_on_c, 3, 71, 0
5, 7320, Note_on_c, 3, 69, 90
5, 7349, Note_on_c, 3, 69, 0
5, 7350, Note_on_c, 3, 67, 90
5, 7379, Note_on_c, 3, 67, 0
5, 7380, Note_on_c, 3, 66, 90
5, 7409, Note_on_c, 3, 66, 0
5, 7410, Note_on_c, 3, 64, 90
5, 7439, Note_on_c, 3, 64, 0
5, 7440, Note_on_c, 3, 62, 90
5, 7499, Note_on_c, 3, 62, 0
5, 7500, Note_on_c, 3, 55, 90
5, 7529, Note_on_c, 3, 55, 0
5, 7530, Note_on_c, 3, 59, 90
5, 7559, Note_on_c, 3, 59, 0
5, 7560, Note_on_c, 3, 62, 90
5, 7589, Note_on_c, 3, 62, 0
5, 7590, Note_on_c, 3, 67, 90
5, 7619, Note_on_c, 3, 67, 0
5, 7620, Note_on_c, 3, 71, 90
5, 7649, Note_on_c, 3, 71, 0
5, 7650, Note_on_c, 3, 74, 90
5, 7679, Note_on_c, 3, 74, 0
5, 7740, Note_on_c, 3, 55, 90
5, 7769, Note_on_c, 3, 55, 0
5, 7770, Note_on_c, 3, 60, 90
5, 7799, Note_on_c, 3, 60, 0
5, 7800, Note_on_c, 3, 64, 90
5, 7829, Note_on_c, 3, 64, 0
5, 7830, Note_on_c, 3, 67, 90
5, 7859, Note_on_c, 3, 67, 0
5, 7860, Note_on_c, 3, 72, 90
5, 7889, Note_on_c, 3, 72, 0
5, 7890, Note_on_c, 3, 76, 90
5, 7919, Note_on_c, 3, 76, 0
5, 7980, Note_on_c, 3, 57, 90
5, 8009, Note_on_c, 3, 57, 0
5, 8010, Note_on_c, 3, 60, 90
5, 8039, Note_on_c, 3, 60, 0
5, 8040, Note_on_c, 3, 66, 90
5, 8069, Note_on_c, 3, 66, 0
5, 8070, Note_on_c, 3, 69, 90
5, 8099, Note_on_c, 3, 69, 0
5, 8100, Note_on_c, 3, 72, 90
5, 8129, Note_on_c, 3, 72, 0
5, 8130, Note_on_c, 3, 78, 90
5, 8159, Note_on_c, 3, 78, 0
5, 8160, Note_on_c, 3, 71, 90
5, 8189, Note_on_c, 3, 71, 0
5, 8190, Note_on_c, 3, 74, 90
5, 8219, Note_on_c, 3, 74, 0
5, 8220, Note_on_c, 3, 72, 90
5, 8249, Note_on_c, 3, 72, 0
5, 8250, Note_on_c, 3, 71, 90
5, 8279, Note_on_c, 3, 71, 0
5, 8280, Note_on_c, 3, 69, 90
5, 8309, Note_on_c, 3, 69, 0
5, 8310, Note_on_c, 3, 67, 90
5, 8339, Note_on_c, 3, 67, 0
5, 8340, Note_on_c, 3, 66, 90
5, 8369, Note_on_c, 3, 66, 0
5, 8370, Note_on_c, 3, 64, 90
5, 8399, Note_on_c, 3, 64, 0
5, 8400, Note_on_c, 3, 64, 90
5, 8429, Note_on_c, 3, 64, 0
5, 8430, Note_on_c, 3, 71, 90
5, 8459, Note_on_c, 3, 71, 0
5, 8460, Note_on_c, 3, 66, 90
5, 8489, Note_on_c, 3, 66, 0
5, 8490, Note_on_c, 3, 67, 90
5, 8519, Note_on_c, 3, 67, 0
5, 8520, Note_on_c, 3, 60, 90
5, 8549, Note_on_c, 3, 60, 0
5, 8550, Note_on_c, 3, 59, 90
5, 8579, Note_on_c, 3, 59, 0
5, 8580, Note_on_c, 3, 57, 90
5, 8609, Note_on_c, 3, 57, 0
5, 8610, Note_on_c, 3, 55, 90
5, 8639, Note_on_c, 3, 55, 0
5, 8640, Note_on_c, 3, 55, 90
5, 8759, Note_on_c, 3, 55, 0
5, 10680, Note_on_c, 3, 67, 90
5, 10739, Note_on_c, 3, 67, 0
5, 10740, Note_on_c, 3, 67, 90
5, 10799, Note_on_c, 3, 67, 0
5, 10800, Note_on_c, 3, 66, 90
5, 10919, Note_on_c, 3, 66, 0
5, 10950, Note_on_c, 3, 60, 90
5, 10979, Note_on_c, 3, 60, 0
5, 10980, Note_on_c, 3, 62, 90
5, 11009, Note_on_c, 3, 62, 0
5, 11010, Note_on_c, 3, 59, 90
5, 11039, Note_on_c, 3, 59, 0
5, 11040, Note_on_c, 3, 57, 90
5, 11129, Note_on_c, 3, 57, 0
5, 11130, Note_on_c, 3, 74, 90
5, 11159, Note_on_c, 3, 74, 0
5, 11160, Note_on_c, 3, 62, 90
5, 11249, Note_on_c, 3, 62, 0
5, 11250, Note_on_c, 3, 74, 90
5, 11279, Note_on_c, 3, 74, 0
5, 11280, Note_on_c, 3, 62, 90
5, 11369, Note_on_c, 3, 62, 0
5, 11370, Note_on_c, 3, 74, 90
5, 11399, Note_on_c, 3, 74, 0
5, 11400, Note_on_c, 3, 62, 90
5, 11489, Note_on_c, 3, 62, 0
5, 11490, Note_on_c, 3, 74, 90
5, 11519, Note_on_c, 3, 74, 0
5, 11520, Note_on_c, 3, 62, 90
5, 11609, Note_on_c, 3, 62, 0
5, 11610, Note_on_c, 3, 74, 90
5, 11639, Note_on_c, 3, 74, 0
5, 11640, Note_on_c, 3, 62, 90
5, 11729, Note_on_c, 3, 62, 0
5, 11730, Note_on_c, 3, 76, 90
5, 11759, Note_on_c, 3, 76, 0
5, 11760, Note_on_c, 3, 64, 90
5, 11849, Note_on_c, 3, 64, 0
5, 11850, Note_on_c, 3, 76, 90
5, 11879, Note_on_c, 3, 76, 0
5, 11880, Note_on_c, 3, 64, 90
5, 11969, Note_on_c, 3, 64, 0
5, 11970, Note_on_c, 3, 76, 90
5, 11999, Note_on_c, 3, 76, 0
5, 12000, Note_on_c, 3, 64, 90
5, 12119, Note_on_c, 3, 64, 0
5, 12120, Note_on_c, 3, 62, 90
5, 12179, Note_on_c, 3, 62, 0
5, 12180, Note_on_c, 3, 67, 90
5, 12239, Note_on_c, 3, 67, 0
5, 12240, Note_on_c, 3, 67, 90
5, 12359, Note_on_c, 3, 67, 0
5, 12360, Note_on_c, 3, 65, 90
5, 12419, Note_on_c, 3, 65, 0
5, 12420, Note_on_c, 3, 65, 90
5, 12479, Note_on_c, 3, 65, 0
5, 12480, Note_on_c, 3, 67, 90
5, 12569, Note_on_c, 3, 67, 0
5, 12570, Note_on_c, 3, 79, 90
5, 12599, Note_on_c, 3, 79, 0
5, 12600, Note_on_c, 3, 67, 90
5, 12689, Note_on_c, 3, 67, 0
5, 12690, Note_on_c, 3, 79, 90
5, 12719, Note_on_c, 3, 79, 0
5, 12720, Note_on_c, 3, 67, 90
5, 12809, Note_on_c, 3, 67, 0
5, 12810, Note_on_c, 3, 79, 90
5, 12839, Note_on_c, 3, 79, 0
5, 12840, Note_on_c, 3, 67, 90
5, 12929, Note_on_c, 3, 67, 0
5, 12930, Note_on_c, 3, 79, 90
5, 12959, Note_on_c, 3, 79, 0
5, 12960, Note_on_c, 3, 67, 90
5, 13049, Note_on_c, 3, 67, 0
5, 13050, Note_on_c, 3, 79, 90
5, 13079, Note_on_c, 3, 79, 0
5, 13080, Note_on_c, 3, 67, 90
5, 13169, Note_on_c, 3, 67, 0
5, 13170, Note_on_c, 3, 81, 90
5, 13199, Note_on_c, 3, 81, 0
5, 13200, Note_on_c, 3, 69, 90
5, 13289, Note_on_c, 3, 69, 0
5, 13290, Note_on_c, 3, 81, 90
5, 13319, Note_on_c, 3, 81, 0
5, 13320, Note_on_c, 3, 69, 90
5, 13409, Note_on_c, 3, 69, 0
5, 13410, Note_on_c, 3, 81, 90
5, 13439, Note_on_c, 3, 81, 0
5, 13440, Note_on_c, 3, 69, 90
5, 13559, Note_on_c, 3, 69, 0
5, 14820, Note_on_c, 3, 66, 90
5, 14879, Note_on_c, 3, 66, 0
5, 14880, Note_on_c, 3, 67, 90
5, 14939, Note_on_c, 3, 67, 0
5, 14940, Note_on_c, 3, 71, 90
5, 14999, Note_on_c, 3, 71, 0
5, 15000, Note_on_c, 3, 71, 90
5, 15059, Note_on_c, 3, 71, 0
5, 15060, Note_on_c, 3, 69, 90
5, 15149, Note_on_c, 3, 69, 0
5, 15150, Note_on_c, 3, 67, 90
5, 15179, Note_on_c, 3, 67, 0
5, 15180, Note_on_c, 3, 66, 90
5, 15209, Note_on_c, 3, 66, 0
5, 15210, Note_on_c, 3, 64, 90
5, 15239, Note_on_c, 3, 64, 0
5, 15240, Note_on_c, 3, 62, 90
5, 15299, Note_on_c, 3, 62, 0
5, 15300, Note_on_c, 3, 74, 90
5, 15389, Note_on_c, 3, 74, 0
5, 15390, Note_on_c, 3, 72, 90
5, 15419, Note_on_c, 3, 72, 0
5, 15420, Note_on_c, 3, 71, 90
5, 15449, Note_on_c, 3, 71, 0
5, 15450, Note_on_c, 3, 69, 90
5, 15479, Note_on_c, 3, 69, 0
5, 15480, Note_on_c, 3, 67, 90
5, 15539, Note_on_c, 3, 67, 0
5, 15540, Note_on_c, 3, 76, 90
5, 15629, Note_on_c, 3, 76, 0
5, 15630, Note_on_c, 3, 74, 90
5, 15659, Note_on_c, 3, 74, 0
5, 15660, Note_on_c, 3, 73, 90
5, 15689, Note_on_c, 3, 73, 0
5, 15690, Note_on_c, 3, 71, 90
5, 15719, Note_on_c, 3, 71, 0
5, 15720, Note_on_c, 3, 69, 90
5, 15779, Note_on_c, 3, 69, 0
5, 15780, Note_on_c, 3, 78, 90
5, 15869, Note_on_c, 3, 78, 0
5, 15870, Note_on_c, 3, 73, 90
5, 15899, Note_on_c, 3, 73, 0
5, 15900, Note_on_c, 3, 74, 90
5, 15929, Note_on_c, 3, 74, 0
5, 15930, Note_on_c, 3, 71, 90
5, 15959, Note_on_c, 3, 71, 0
5, 15960, Note_on_c, 3, 69, 90
5, 16019, Note_on_c, 3, 69, 0
5, 16020, Note_on_c, 3, 67, 90
5, 16079, Note_on_c, 3, 67, 0
5, 16080, Note_on_c, 3, 66, 90
5, 16199, Note_on_c, 3, 66, 0
5, 16380, Note_on_c, 3, 55, 90
5, 16409, Note_on_c, 3, 55, 0
5, 16410, Note_on_c, 3, 59, 90
5, 16439, Note_on_c, 3, 59, 0
5, 16440, Note_on_c, 3, 62, 90
5, 16469, Note_on_c, 3, 62, 0
5, 16470, Note_on_c, 3, 67, 90
5, 16499, Note_on_c, 3, 67, 0
5, 16500, Note_on_c, 3, 71, 90
5, 16529, Note_on_c, 3, 71, 0
5, 16530, Note_on_c, 3, 74, 90
5, 16559, Note_on_c, 3, 74, 0
5, 16620, Note_on_c, 3, 55, 90
5, 16649, Note_on_c, 3, 55, 0
5, 16650, Note_on_c, 3, 60, 90
5, 16679, Note_on_c, 3, 60, 0
5, 16680, Note_on_c, 3, 64, 90
5, 16709, Note_on_c, 3, 64, 0
5, 16710, Note_on_c, 3, 67, 90
5, 16739, Note_on_c, 3, 67, 0
5, 16740, Note_on_c, 3, 72, 90
5, 16769, Note_on_c, 3, 72, 0
5, 16770, Note_on_c, 3, 76, 90
5, 16799, Note_on_c, 3, 76, 0
5, 16860, Note_on_c, 3, 57, 90
5, 16889, Note_on_c, 3, 57, 0
5, 16890, Note_on_c, 3, 60, 90
5, 16919, Note_on_c, 3, 60, 0
5, 16920, Note_on_c, 3, 66, 90
5, 16949, Note_on_c, 3, 66, 0
5, 16950, Note_on_c, 3, 69, 90
5, 16979, Note_on_c, 3, 69, 0
5, 16980, Note_on_c, 3, 72, 90
5, 17009, Note_on_c, 3, 72, 0
5, 17010, Note_on_c, 3, 78, 90
5, 17039, Note_on_c, 3, 78, 0
5, 17100, Note_on_c, 3, 59, 90
5, 17129, Note_on_c, 3, 59, 0
5, 17130, Note_on_c, 3, 62, 90
5, 17159, Note_on_c, 3, 62, 0
5, 17160, Note_on_c, 3, 67, 90
5, 17189, Note_on_c, 3, 67, 0
5, 17190, Note_on_c, 3, 71, 90
5, 17219, Note_on_c, 3, 71, 0
5, 17220, Note_on_c, 3, 74, 90
5, 17249, Note_on_c, 3, 74, 0
5, 17250, Note_on_c, 3, 79, 90
5, 17279, Note_on_c, 3, 79, 0
5, 17340, Note_on_c, 3, 60, 90
5, 17369, Note_on_c, 3, 60, 0
5, 17370, Note_on_c, 3, 64, 90
5, 17399, Note_on_c, 3, 64, 0
5, 17400, Note_on_c, 3, 67, 90
5, 17429, Note_on_c, 3, 67, 0
5, 17430, Note_on_c, 3, 72, 90
5, 17459, Note_on_c, 3, 72, 0
5, 17460, Note_on_c, 3, 76, 90
5, 17489, Note_on_c, 3, 76, 0
5, 17490, Note_on_c, 3, 79, 90
5, 17519, Note_on_c, 3, 79, 0
5, 17580, Note_on_c, 3, 62, 90
5, 17609, Note_on_c, 3, 62, 0
5, 17610, Note_on_c, 3, 66, 90
5, 17639, Note_on_c, 3, 66, 0
5, 17640, Note_on_c, 3, 69, 90
5, 17669, Note_on_c, 3, 69, 0
5, 17670, Note_on_c, 3, 74, 90
5, 17699, Note_on_c, 3, 74, 0
5, 17700, Note_on_c, 3, 78, 90
5, 17729, Note_on_c, 3, 78, 0
5, 17730, Note_on_c, 3, 81, 90
5, 17759, Note_on_c, 3, 81, 0
5, 17820, Note_on_c, 3, 55, 90
5, 17849, Note_on_c, 3, 55, 0
5, 17850, Note_on_c, 3, 59, 90
5, 17879, Note_on_c, 3, 59, 0
5, 17880, Note_on_c, 3, 62, 90
5, 17909, Note_on_c, 3, 62, 0
5, 17910, Note_on_c, 3, 67, 90
5, 17939, Note_on_c, 3, 67, 0
5, 17940, Note_on_c, 3, 71, 90
5, 17969, Note_on_c, 3, 71, 0
5, 17970, Note_on_c, 3, 74, 90
5, 17999, Note_on_c, 3, 74, 0
5, 18060, Note_on_c, 3, 55, 90
5, 18089, Note_on_c, 3, 55, 0
5, 18090, Note_on_c, 3, 59, 90
5, 18119, Note_on_c, 3, 59, 0
5, 18120, Note_on_c, 3, 62, 90
5, 18149, Note_on_c, 3, 62, 0
5, 18150, Note_on_c, 3, 67, 90
5, 18179, Note_on_c, 3, 67, 0
5, 18180, Note_on_c, 3, 71, 90
5, 18209, Note_on_c, 3, 71, 0
5, 18210, Note_on_c, 3, 74, 90
5, 18239, Note_on_c, 3, 74, 0
5, 18300, Note_on_c, 3, 57, 90
5, 18329, Note_on_c, 3, 57, 0
5, 18330, Note_on_c, 3, 60, 90
5, 18359, Note_on_c, 3, 60, 0
5, 18360, Note_on_c, 3, 64, 90
5, 18389, Note_on_c, 3, 64, 0
5, 18390, Note_on_c, 3, 69, 90
5, 18419, Note_on_c, 3, 69, 0
5, 18420, Note_on_c, 3, 72, 90
5, 18449, Note_on_c, 3, 72, 0
5, 18450, Note_on_c, 3, 76, 90
5, 18479, Note_on_c, 3, 76, 0
5, 18540, Note_on_c, 3, 57, 90
5, 18569, Note_on_c, 3, 57, 0
5, 18570, Note_on_c, 3, 62, 90
5, 18599, Note_on_c, 3, 62, 0
5, 18600, Note_on_c, 3, 66, 90
5, 18629, Note_on_c, 3, 66, 0
5, 18630, Note_on_c, 3, 69, 90
5, 18659, Note_on_c, 3, 69, 0
5, 18660, Note_on_c, 3, 74, 90
5, 18689, Note_on_c, 3, 74, 0
5, 18690, Note_on_c, 3, 78, 90
5, 18719, Note_on_c, 3, 78, 0
5, 18780, Note_on_c, 3, 55, 90
5, 18809, Note_on_c, 3, 55, 0
5, 18810, Note_on_c, 3, 59, 90
5, 18839, Note_on_c, 3, 59, 0
5, 18840, Note_on_c, 3, 62, 90
5, 18869, Note_on_c, 3, 62, 0
5, 18870, Note_on_c, 3, 67, 90
5, 18899, Note_on_c, 3, 67, 0
5, 18900, Note_on_c, 3, 71, 90
5, 18929, Note_on_c, 3, 71, 0
5, 18930, Note_on_c, 3, 74, 90
5, 18959, Note_on_c, 3, 74, 0
5, 19020, Note_on_c, 3, 57, 90
5, 19049, Note_on_c, 3, 57, 0
5, 19050, Note_on_c, 3, 60, 90
5, 19079, Note_on_c, 3, 60, 0
5, 19080, Note_on_c, 3, 66, 90
5, 19109, Note_on_c, 3, 66, 0
5, 19110, Note_on_c, 3, 69, 90
5, 19139, Note_on_c, 3, 69, 0
5, 19140, Note_on_c, 3, 72, 90
5, 19169, Note_on_c, 3, 72, 0
5, 19170, Note_on_c, 3, 78, 90
5, 19199, Note_on_c, 3, 78, 0
5, 19260, Note_on_c, 3, 57, 90
5, 19289, Note_on_c, 3, 57, 0
5, 19290, Note_on_c, 3, 61, 90
5, 19319, Note_on_c, 3, 61, 0
5, 19320, Note_on_c, 3, 64, 90
5, 19349, Note_on_c, 3, 64, 0
5, 19350, Note_on_c, 3, 69, 90
5, 19379, Note_on_c, 3, 69, 0
5, 19380, Note_on_c, 3, 73, 90
5, 19409, Note_on_c, 3, 73, 0
5, 19410, Note_on_c, 3, 76, 90
5, 19439, Note_on_c, 3, 76, 0
5, 19500, Note_on_c, 3, 59, 90
5, 19529, Note_on_c, 3, 59, 0
5, 19530, Note_on_c, 3, 62, 90
5, 19559, Note_on_c, 3, 62, 0
5, 19560, Note_on_c, 3, 68, 90
5, 19589, Note_on_c, 3, 68, 0
5, 19590, Note_on_c, 3, 71, 90
5, 19619, Note_on_c, 3, 71, 0
5, 19620, Note_on_c, 3, 74, 90
5, 19649, Note_on_c, 3, 74, 0
5, 19650, Note_on_c, 3, 80, 90
5, 19679, Note_on_c, 3, 80, 0
5, 19740, Note_on_c, 3, 61, 90
5, 19769, Note_on_c, 3, 61, 0
5, 19770, Note_on_c, 3, 64, 90
5, 19799, Note_on_c, 3, 64, 0
5, 19800, Note_on_c, 3, 67, 90
5, 19829, Note_on_c, 3, 67, 0
5, 19830, Note_on_c, 3, 70, 90
5, 19859, Note_on_c, 3, 70, 0
5, 19860, Note_on_c, 3, 76, 90
5, 19889, Note_on_c, 3, 76, 0
5, 19890, Note_on_c, 3, 79, 90
5, 19919, Note_on_c, 3, 79, 0
5, 19980, Note_on_c, 3, 62, 90
5, 20009, Note_on_c, 3, 62, 0
5, 20010, Note_on_c, 3, 67, 90
5, 20039, Note_on_c, 3, 67, 0
5, 20040, Note_on_c, 3, 73, 90
5, 20069, Note_on_c, 3, 73, 0
5, 20070, Note_on_c, 3, 76, 90
5, 20099, Note_on_c, 3, 76, 0
5, 20100, Note_on_c, 3, 79, 90
5, 20129, Note_on_c, 3, 79, 0
5, 20130, Note_on_c, 3, 82, 90
5, 20159, Note_on_c, 3, 82, 0
5, 20430, Note_on_c, 3, 67, 90
5, 20459, Note_on_c, 3, 67, 0
5, 20460, Note_on_c, 3, 66, 90
5, 20489, Note_on_c, 3, 66, 0
5, 20490, Note_on_c, 3, 64, 90
5, 20519, Note_on_c, 3, 64, 0
5, 20520, Note_on_c, 3, 62, 90
5, 20549, Note_on_c, 3, 62, 0
5, 20550, Note_on_c, 3, 59, 90
5, 20579, Note_on_c, 3, 59, 0
5, 20580, Note_on_c, 3, 57, 90
5, 20609, Note_on_c, 3, 57, 0
5, 20610, Note_on_c, 3, 55, 90
5, 20639, Note_on_c, 3, 55, 0
5, 20640, Note_on_c, 3, 57, 90
5, 20699, Note_on_c, 3, 57, 0
5, 20700, Note_on_c, 3, 57, 90
5, 20729, Note_on_c, 3, 57, 0
5, 20730, Note_on_c, 3, 62, 90
5, 20759, Note_on_c, 3, 62, 0
5, 20760, Note_on_c, 3, 66, 90
5, 20789, Note_on_c, 3, 66, 0
5, 20790, Note_on_c, 3, 69, 90
5, 20819, Note_on_c, 3, 69, 0
5, 20820, Note_on_c, 3, 74, 90
5, 20849, Note_on_c, 3, 74, 0
5, 20850, Note_on_c, 3, 78, 90
5, 20879, Note_on_c, 3, 78, 0
5, 20940, Note_on_c, 3, 55, 90
5, 20969, Note_on_c, 3, 55, 0
5, 20970, Note_on_c, 3, 59, 90
5, 20999, Note_on_c, 3, 59, 0
5, 21000, Note_on_c, 3, 62, 90
5, 21029, Note_on_c, 3, 62, 0
5, 21030, Note_on_c, 3, 67, 90
5, 21059, Note_on_c, 3, 67, 0
5, 21060, Note_on_c, 3, 71, 90
5, 21089, Note_on_c, 3, 71, 0
5, 21090, Note_on_c, 3, 74, 90
5, 21119, Note_on_c, 3, 74, 0
5, 21180, Note_on_c, 3, 55, 90
5, 21209, Note_on_c, 3, 55, 0
5, 21210, Note_on_c, 3, 59, 90
5, 21239, Note_on_c, 3, 59, 0
5, 21240, Note_on_c, 3, 62, 90
5, 21269, Note_on_c, 3, 62, 0
5, 21270, Note_on_c, 3, 67, 90
5, 21299, Note_on_c, 3, 67, 0
5, 21300, Note_on_c, 3, 71, 90
5, 21329, Note_on_c, 3, 71, 0
5, 21330, Note_on_c, 3, 74, 90
5, 21359, Note_on_c, 3, 74, 0
5, 21420, Note_on_c, 3, 57, 90
5, 21449, Note_on_c, 3, 57, 0
5, 21450, Note_on_c, 3, 60, 90
5, 21479, Note_on_c, 3, 60, 0
5, 21480, Note_on_c, 3, 63, 90
5, 21509, Note_on_c, 3, 63, 0
5, 21510, Note_on_c, 3, 67, 90
5, 21539, Note_on_c, 3, 67, 0
5, 21540, Note_on_c, 3, 72, 90
5, 21569, Note_on_c, 3, 72, 0
5, 21570, Note_on_c, 3, 75, 90
5, 21599, Note_on_c, 3, 75, 0
5, 21660, Note_on_c, 3, 57, 90
5, 21689, Note_on_c, 3, 57, 0
5, 21690, Note_on_c, 3, 62, 90
5, 21719, Note_on_c, 3, 62, 0
5, 21720, Note_on_c, 3, 67, 90
5, 21749, Note_on_c, 3, 67, 0
5, 21750, Note_on_c, 3, 70, 90
5, 21779, Note_on_c, 3, 70, 0
5, 21780, Note_on_c, 3, 74, 90
5, 21809, Note_on_c, 3, 74, 0
5, 21810, Note_on_c, 3, 79, 90
5, 21839, Note_on_c, 3, 79, 0
5, 21900, Note_on_c, 3, 66, 90
5, 21929, Note_on_c, 3, 66, 0
5, 21930, Note_on_c, 3, 69, 90
5, 21959, Note_on_c, 3, 69, 0
5, 21960, Note_on_c, 3, 72, 90
5, 21989, Note_on_c, 3, 72, 0
5, 21990, Note_on_c, 3, 75, 90
5, 22019, Note_on_c, 3, 75, 0
5, 22020, Note_on_c, 3, 78, 90
5, 22049, Note_on_c, 3, 78, 0
5, 22050, Note_on_c, 3, 81, 90
5, 22079, Note_on_c, 3, 81, 0
5, 22350, Note_on_c, 3, 72, 90
5, 22379, Note_on_c, 3, 72, 0
5, 22380, Note_on_c, 3, 71, 90
5, 22409, Note_on_c, 3, 71, 0
5, 22410, Note_on_c, 3, 69, 90
5, 22439, Note_on_c, 3, 69, 0
5, 22440, Note_on_c, 3, 67, 90
5, 22469, Note_on_c, 3, 67, 0
5, 22470, Note_on_c, 3, 64, 90
5, 22499, Note_on_c, 3, 64, 0
5, 22500, Note_on_c, 3, 62, 90
5, 22529, Note_on_c, 3, 62, 0
5, 22530, Note_on_c, 3, 60, 90
5, 22559, Note_on_c, 3, 60, 0
5, 22560, Note_on_c, 3, 62, 90
5, 22619, Note_on_c, 3, 62, 0
5, 22620, Note_on_c, 3, 55, 90
5, 22649, Note_on_c, 3, 55, 0
5, 22650, Note_on_c, 3, 59, 90
5, 22679, Note_on_c, 3, 59, 0
5, 22680, Note_on_c, 3, 62, 90
5, 22709, Note_on_c, 3, 62, 0
5, 22710, Note_on_c, 3, 67, 90
5, 22739, Note_on_c, 3, 67, 0
5, 22740, Note_on_c, 3, 71, 90
5, 22769, Note_on_c, 3, 71, 0
5, 22770, Note_on_c, 3, 74, 90
5, 22799, Note_on_c, 3, 74, 0
5, 22860, Note_on_c, 3, 55, 90
5, 22889, Note_on_c, 3, 55, 0
5, 22890, Note_on_c, 3, 60, 90
5, 22919, Note_on_c, 3, 60, 0
5, 22920, Note_on_c, 3, 64, 90
5, 22949, Note_on_c, 3, 64, 0
5, 22950, Note_on_c, 3, 67, 90
5, 22979, Note_on_c, 3, 67, 0
5, 22980, Note_on_c, 3, 72, 90
5, 23009, Note_on_c, 3, 72, 0
5, 23010, Note_on_c, 3, 76, 90
5, 23039, Note_on_c, 3, 76, 0
5, 23100, Note_on_c, 3, 55, 90
5, 23129, Note_on_c, 3, 55, 0
5, 23130, Note_on_c, 3, 59, 90
5, 23159, Note_on_c, 3, 59, 0
5, 23160, Note_on_c, 3, 62, 90
5, 23189, Note_on_c, 3, 62, 0
5, 23190, Note_on_c, 3, 67, 90
5, 23219, Note_on_c, 3, 67, 0
5, 23220, Note_on_c, 3, 71, 90
5, 23249, Note_on_c, 3, 71, 0
5, 23250, Note_on_c, 3, 74, 90
5, 23279, Note_on_c, 3, 74, 0
5, 23550, Note_on_c, 3, 74, 90
5, 23579, Note_on_c, 3, 74, 0
5, 23580, Note_on_c, 3, 72, 90
5, 23609, Note_on_c, 3, 72, 0
5, 23610, Note_on_c, 3, 71, 90
5, 23639, Note_on_c, 3, 71, 0
5, 23640, Note_on_c, 3, 69, 90
5, 23669, Note_on_c, 3, 69, 0
5, 23670, Note_on_c, 3, 67, 90
5, 23699, Note_on_c, 3, 67, 0
5, 23700, Note_on_c, 3, 66, 90
5, 23729, Note_on_c, 3, 66, 0
5, 23730, Note_on_c, 3, 64, 90
5, 23759, Note_on_c, 3, 64, 0
5, 23760, Note_on_c, 3, 62, 90
5, 23819, Note_on_c, 3, 62, 0
5, 23820, Note_on_c, 3, 55, 90
5, 23849, Note_on_c, 3, 55, 0
5, 23850, Note_on_c, 3, 59, 90
5, 23879, Note_on_c, 3, 59, 0
5, 23880, Note_on_c, 3, 62, 90
5, 23909, Note_on_c, 3, 62, 0
5, 23910, Note_on_c, 3, 67, 90
5, 23939, Note_on_c, 3, 67, 0
5, 23940, Note_on_c, 3, 71, 90
5, 23969, Note_on_c, 3, 71, 0
5, 23970, Note_on_c, 3, 74, 90
5, 23999, Note_on_c, 3, 74, 0
5, 24060, Note_on_c, 3, 55, 90
5, 24089, Note_on_c, 3, 55, 0
5, 24090, Note_on_c, 3, 60, 90
5, 24119, Note_on_c, 3, 60, 0
5, 24120, Note_on_c, 3, 64, 90
5, 24149, Note_on_c, 3, 64, 0
5, 24150, Note_on_c, 3, 67, 90
5, 24179, Note_on_c, 3, 67, 0
5, 24180, Note_on_c, 3, 72, 90
5, 24209, Note_on_c, 3, 72, 0
5, 24210, Note_on_c, 3, 76, 90
5, 24239, Note_on_c, 3, 76, 0
5, 24300, Note_on_c, 3, 57, 90
5, 24329, Note_on_c, 3, 57, 0
5, 24330, Note_on_c, 3, 60, 90
5, 24359, Note_on_c, 3, 60, 0
5, 24360, Note_on_c, 3, 66, 90
5, 24389, Note_on_c, 3, 66, 0
5, 24390, Note_on_c, 3, 69, 90
5, 24419, Note_on_c, 3, 69, 0
5, 24420, Note_on_c, 3, 72, 90
5, 24449, Note_on_c, 3, 72, 0
5, 24450, Note_on_c, 3, 78, 90
5, 24479, Note_on_c, 3, 78, 0
5, 24480, Note_on_c, 3, 71, 90
5, 24509, Note_on_c, 3, 71, 0
5, 24510, Note_on_c, 3, 74, 90
5, 24539, Note_on_c, 3, 74, 0
5, 24540, Note_on_c, 3, 72, 90
5, 24569, Note_on_c, 3, 72, 0
5, 24570, Note_on_c, 3, 71, 90
5, 24599, Note_on_c, 3, 71, 0
5, 24600, Note_on_c, 3, 69, 90
5, 24629, Note_on_c, 3, 69, 0
5, 24630, Note_on_c, 3, 67, 90
5, 24659, Note_on_c, 3, 67, 0
5, 24660, Note_on_c, 3, 66, 90
5, 24689, Note_on_c, 3, 66, 0
5, 24690, Note_on_c, 3, 64, 90
5, 24719, Note_on_c, 3, 64, 0
5, 24720, Note_on_c, 3, 64, 90
5, 24749, Note_on_c, 3, 64, 0
5, 24750, Note_on_c, 3, 71, 90
5, 24779, Note_on_c, 3, 71, 0
5, 24780, Note_on_c, 3, 66, 90
5, 24809, Note_on_c, 3, 66, 0
5, 24810, Note_on_c, 3, 67, 90
5, 24839, Note_on_c, 3, 67, 0
5, 24840, Note_on_c, 3, 60, 90
5, 24869, Note_on_c, 3, 60, 0
5, 24870, Note_on_c, 3, 59, 90
5, 24899, Note_on_c, 3, 59, 0
5, 24900, Note_on_c, 3, 57, 90
5, 24929, Note_on_c, 3, 57, 0
5, 24930, Note_on_c, 3, 55, 90
5, 24959, Note_on_c, 3, 55, 0
5, 24960, Note_on_c, 3, 55, 90
5, 25200, Note_on_c, 3, 55, 0
5, 153960, Note_on_c, 3, 67, 90
5, 154055, Note_on_c, 3, 67, 0
5, 154080, Note_on_c, 3, 72, 90
5, 154175, Note_on_c, 3, 72, 0
5, 154200, Note_on_c, 3, 71, 90
5, 154295, Note_on_c, 3, 71, 0
5, 154320, Note_on_c, 3, 67, 90
5, 154415, Note_on_c, 3, 67, 0
5, 154440, Note_on_c, 3, 66, 90
5, 154535, Note_on_c, 3, 66, 0
5, 154560, Note_on_c, 3, 67, 90
5, 154655, Note_on_c, 3, 67, 0
5, 154680, Note_on_c, 3, 66, 90
5, 154871, Note_on_c, 3, 66, 0
5, 154920, Note_on_c, 3, 67, 90
5, 155015, Note_on_c, 3, 67, 0
5, 155040, Note_on_c, 3, 66, 90
5, 155135, Note_on_c, 3, 66, 0
5, 155160, Note_on_c, 3, 64, 90
5, 155255, Note_on_c, 3, 64, 0
5, 155280, Note_on_c, 3, 67, 90
5, 155375, Note_on_c, 3, 67, 0
5, 155400, Note_on_c, 3, 67, 90
5, 155495, Note_on_c, 3, 67, 0
5, 155520, Note_on_c, 3, 66, 90
5, 155615, Note_on_c, 3, 66, 0
5, 155640, Note_on_c, 3, 67, 90
5, 155831, Note_on_c, 3, 67, 0
5, 155880, Note_on_c, 3, 67, 90
5, 155975, Note_on_c, 3, 67, 0
5, 156000, Note_on_c, 3, 71, 90
5, 156095, Note_on_c, 3, 71, 0
5, 156120, Note_on_c, 3, 69, 90
5, 156215, Note_on_c, 3, 69, 0
5, 156240, Note_on_c, 3, 69, 90
5, 156335, Note_on_c, 3, 69, 0
5, 156360, Note_on_c, 3, 73, 90
5, 156455, Note_on_c, 3, 73, 0
5, 156480, Note_on_c, 3, 74, 90
5, 156575, Note_on_c, 3, 74, 0
5, 156600, Note_on_c, 3, 73, 90
5, 156791, Note_on_c, 3, 73, 0
5, 156840, Note_on_c, 3, 74, 90
5, 156935, Note_on_c, 3, 74, 0
5, 156960, Note_on_c, 3, 69, 90
5, 157055, Note_on_c, 3, 69, 0
5, 157080, Note_on_c, 3, 62, 90
5, 157223, Note_on_c, 3, 62, 0
5, 157260, Note_on_c, 3, 74, 90
5, 157307, Note_on_c, 3, 74, 0
5, 157320, Note_on_c, 3, 73, 90
5, 157463, Note_on_c, 3, 73, 0
5, 157500, Note_on_c, 3, 74, 90
5, 157547, Note_on_c, 3, 74, 0
5, 157560, Note_on_c, 3, 74, 90
5, 157751, Note_on_c, 3, 74, 0
5, 157800, Note_on_c, 3, 74, 90
5, 157895, Note_on_c, 3, 74, 0
5, 157920, Note_on_c, 3, 71, 90
5, 158015, Note_on_c, 3, 71, 0
5, 158040, Note_on_c, 3, 72, 90
5, 158135, Note_on_c, 3, 72, 0
5, 158160, Note_on_c, 3, 67, 90
5, 158207, Note_on_c, 3, 67, 0
5, 158220, Note_on_c, 3, 69, 90
5, 158267, Note_on_c, 3, 69, 0
5, 158280, Note_on_c, 3, 71, 90
5, 158375, Note_on_c, 3, 71, 0
5, 158400, Note_on_c, 3, 68, 90
5, 158495, Note_on_c, 3, 68, 0
5, 158520, Note_on_c, 3, 69, 90
5, 158711, Note_on_c, 3, 69, 0
5, 158760, Note_on_c, 3, 69, 90
5, 158855, Note_on_c, 3, 69, 0
5, 158880, Note_on_c, 3, 66, 90
5, 158975, Note_on_c, 3, 66, 0
5, 159000, Note_on_c, 3, 62, 90
5, 159095, Note_on_c, 3, 62, 0
5, 159120, Note_on_c, 3, 62, 90
5, 159215, Note_on_c, 3, 62, 0
5, 159240, Note_on_c, 3, 62, 90
5, 159335, Note_on_c, 3, 62, 0
5, 159360, Note_on_c, 3, 61, 90
5, 159455, Note_on_c, 3, 61, 0
5, 159480, Note_on_c, 3, 62, 90
5, 159671, Note_on_c, 3, 62, 0
5, 159720, Note_on_c, 3, 62, 90
5, 159815, Note_on_c, 3, 62, 0
5, 159840, Note_on_c, 3, 66, 90
5, 159935, Note_on_c, 3, 66, 0
5, 159960, Note_on_c, 3, 67, 90
5, 160103, Note_on_c, 3, 67, 0
5, 160140, Note_on_c, 3, 67, 90
5, 160187, Note_on_c, 3, 67, 0
5, 160200, Note_on_c, 3, 69, 90
5, 160295, Note_on_c, 3, 69, 0
5, 160320, Note_on_c, 3, 71, 90
5, 160415, Note_on_c, 3, 71, 0
5, 160440, Note_on_c, 3, 72, 90
5, 160583, Note_on_c, 3, 72, 0
5, 160620, Note_on_c, 3, 74, 90
5, 160667, Note_on_c, 3, 74, 0
5, 160680, Note_on_c, 3, 67, 90
5, 160775, Note_on_c, 3, 67, 0
5, 160800, Note_on_c, 3, 72, 90
5, 160895, Note_on_c, 3, 72, 0
5, 160920, Note_on_c, 3, 67, 90
5, 161015, Note_on_c, 3, 67, 0
5, 161040, Note_on_c, 3, 69, 90
5, 161087, Note_on_c, 3, 69, 0
5, 161100, Note_on_c, 3, 71, 90
5, 161147, Note_on_c, 3, 71, 0
5, 161160, Note_on_c, 3, 66, 90
5, 161303, Note_on_c, 3, 66, 0
5, 161340, Note_on_c, 3, 67, 90
5, 161387, Note_on_c, 3, 67, 0
5, 161400, Note_on_c, 3, 67, 90
5, 161591, Note_on_c, 3, 67, 0
5, 162240, Note_on_c, 3, 67, 90
5, 162335, Note_on_c, 3, 67, 0
5, 162360, Note_on_c, 3, 69, 90
5, 162551, Note_on_c, 3, 69, 0
5, 163200, Note_on_c, 3, 66, 90
5, 163295, Note_on_c, 3, 66, 0
5, 163320, Note_on_c, 3, 62, 90
5, 163511, Note_on_c, 3, 62, 0
5, 163560, Note_on_c, 3, 67, 90
5, 163607, Note_on_c, 3, 67, 0
5, 163620, Note_on_c, 3, 71, 90
5, 163667, Note_on_c, 3, 71, 0
5, 163680, Note_on_c, 3, 76, 90
5, 163727, Note_on_c, 3, 76, 0
5, 163740, Note_on_c, 3, 79, 90
5, 163787, Note_on_c, 3, 79, 0
5, 163800, Note_on_c, 3, 69, 90
5, 163847, Note_on_c, 3, 69, 0
5, 163860, Note_on_c, 3, 73, 90
5, 163907, Note_on_c, 3, 73, 0
5, 163920, Note_on_c, 3, 78, 90
5, 163967, Note_on_c, 3, 78, 0
5, 163980, Note_on_c, 3, 81, 90
5, 164027, Note_on_c, 3, 81, 0
5, 164040, Note_on_c, 3, 73, 90
5, 164087, Note_on_c, 3, 73, 0
5, 164100, Note_on_c, 3, 74, 90
5, 164147, Note_on_c, 3, 74, 0
5, 164160, Note_on_c, 3, 69, 90
5, 164207, Note_on_c, 3, 69, 0
5, 164220, Note_on_c, 3, 74, 90
5, 164267, Note_on_c, 3, 74, 0
5, 164280, Note_on_c, 3, 74, 90
5, 164327, Note_on_c, 3, 74, 0
5, 164340, Note_on_c, 3, 73, 90
5, 164387, Note_on_c, 3, 73, 0
5, 164400, Note_on_c, 3, 71, 90
5, 164447, Note_on_c, 3, 71, 0
5, 164460, Note_on_c, 3, 69, 90
5, 164507, Note_on_c, 3, 69, 0
5, 165120, Note_on_c, 3, 69, 90
5, 165215, Note_on_c, 3, 69, 0
5, 165240, Note_on_c, 3, 69, 90
5, 165431, Note_on_c, 3, 69, 0
5, 166080, Note_on_c, 3, 64, 90
5, 166175, Note_on_c, 3, 64, 0
5, 166200, Note_on_c, 3, 64, 90
5, 166391, Note_on_c, 3, 64, 0
5, 166440, Note_on_c, 3, 62, 90
5, 166487, Note_on_c, 3, 62, 0
5, 166500, Note_on_c, 3, 66, 90
5, 166547, Note_on_c, 3, 66, 0
5, 166560, Note_on_c, 3, 69, 90
5, 166607, Note_on_c, 3, 69, 0
5, 166620, Note_on_c, 3, 74, 90
5, 166667, Note_on_c, 3, 74, 0
5, 166680, Note_on_c, 3, 62, 90
5, 166727, Note_on_c, 3, 62, 0
5, 166740, Note_on_c, 3, 67, 90
5, 166787, Note_on_c, 3, 67, 0
5, 166800, Note_on_c, 3, 71, 90
5, 166847, Note_on_c, 3, 71, 0
5, 166860, Note_on_c, 3, 74, 90
5, 166907, Note_on_c, 3, 74, 0
5, 166920, Note_on_c, 3, 73, 90
5, 166967, Note_on_c, 3, 73, 0
5, 166980, Note_on_c, 3, 76, 90
5, 167027, Note_on_c, 3, 76, 0
5, 167040, Note_on_c, 3, 69, 90
5, 167087, Note_on_c, 3, 69, 0
5, 167100, Note_on_c, 3, 73, 90
5, 167147, Note_on_c, 3, 73, 0
5, 167160, Note_on_c, 3, 74, 90
5, 167207, Note_on_c, 3, 74, 0
5, 167220, Note_on_c, 3, 69, 90
5, 167267, Note_on_c, 3, 69, 0
5, 167280, Note_on_c, 3, 66, 90
5, 167327, Note_on_c, 3, 66, 0
5, 167340, Note_on_c, 3, 62, 90
5, 167387, Note_on_c, 3, 62, 0
5, 168000, Note_on_c, 3, 74, 90
5, 168095, Note_on_c, 3, 74, 0
5, 168120, Note_on_c, 3, 67, 90
5, 168311, Note_on_c, 3, 67, 0
5, 168960, Note_on_c, 3, 72, 90
5, 169055, Note_on_c, 3, 72, 0
5, 169080, Note_on_c, 3, 71, 90
5, 169271, Note_on_c, 3, 71, 0
5, 169320, Note_on_c, 3, 67, 90
5, 169415, Note_on_c, 3, 67, 0
5, 169440, Note_on_c, 3, 72, 90
5, 169535, Note_on_c, 3, 72, 0
5, 169560, Note_on_c, 3, 71, 90
5, 169655, Note_on_c, 3, 71, 0
5, 169680, Note_on_c, 3, 67, 90
5, 169775, Note_on_c, 3, 67, 0
5, 169800, Note_on_c, 3, 66, 90
5, 169895, Note_on_c, 3, 66, 0
5, 169920, Note_on_c, 3, 67, 90
5, 170015, Note_on_c, 3, 67, 0
5, 170040, Note_on_c, 3, 66, 90
5, 170231, Note_on_c, 3, 66, 0
5, 170280, Note_on_c, 3, 67, 90
5, 170375, Note_on_c, 3, 67, 0
5, 170400, Note_on_c, 3, 66, 90
5, 170495, Note_on_c, 3, 66, 0
5, 170520, Note_on_c, 3, 64, 90
5, 170615, Note_on_c, 3, 64, 0
5, 170640, Note_on_c, 3, 67, 90
5, 170735, Note_on_c, 3, 67, 0
5, 170760, Note_on_c, 3, 67, 90
5, 170855, Note_on_c, 3, 67, 0
5, 170880, Note_on_c, 3, 66, 90
5, 170975, Note_on_c, 3, 66, 0
5, 171000, Note_on_c, 3, 67, 90
5, 171191, Note_on_c, 3, 67, 0
5, 171240, Note_on_c, 3, 67, 90
5, 171335, Note_on_c, 3, 67, 0
5, 171360, Note_on_c, 3, 71, 90
5, 171455, Note_on_c, 3, 71, 0
5, 171480, Note_on_c, 3, 69, 90
5, 171575, Note_on_c, 3, 69, 0
5, 171600, Note_on_c, 3, 69, 90
5, 171695, Note_on_c, 3, 69, 0
5, 171720, Note_on_c, 3, 73, 90
5, 171815, Note_on_c, 3, 73, 0
5, 171840, Note_on_c, 3, 74, 90
5, 171935, Note_on_c, 3, 74, 0
5, 171960, Note_on_c, 3, 73, 90
5, 172151, Note_on_c, 3, 73, 0
5, 172200, Note_on_c, 3, 74, 90
5, 172295, Note_on_c, 3, 74, 0
5, 172320, Note_on_c, 3, 69, 90
5, 172415, Note_on_c, 3, 69, 0
5, 172440, Note_on_c, 3, 62, 90
5, 172583, Note_on_c, 3, 62, 0
5, 172620, Note_on_c, 3, 74, 90
5, 172667, Note_on_c, 3, 74, 0
5, 172680, Note_on_c, 3, 73, 90
5, 172823, Note_on_c, 3, 73, 0
5, 172860, Note_on_c, 3, 74, 90
5, 172907, Note_on_c, 3, 74, 0
5, 172920, Note_on_c, 3, 74, 90
5, 173111, Note_on_c, 3, 74, 0
5, 173160, Note_on_c, 3, 74, 90
5, 173255, Note_on_c, 3, 74, 0
5, 173280, Note_on_c, 3, 71, 90
5, 173375, Note_on_c, 3, 71, 0
5, 173400, Note_on_c, 3, 72, 90
5, 173495, Note_on_c, 3, 72, 0
5, 173520, Note_on_c, 3, 67, 90
5, 173567, Note_on_c, 3, 67, 0
5, 173580, Note_on_c, 3, 69, 90
5, 173627, Note_on_c, 3, 69, 0
5, 173640, Note_on_c, 3, 71, 90
5, 173735, Note_on_c, 3, 71, 0
5, 173760, Note_on_c, 3, 68, 90
5, 173855, Note_on_c, 3, 68, 0
5, 173880, Note_on_c, 3, 69, 90
5, 174071, Note_on_c, 3, 69, 0
5, 174120, Note_on_c, 3, 69, 90
5, 174215, Note_on_c, 3, 69, 0
5, 174240, Note_on_c, 3, 66, 90
5, 174335, Note_on_c, 3, 66, 0
5, 174360, Note_on_c, 3, 62, 90
5, 174455, Note_on_c, 3, 62, 0
5, 174480, Note_on_c, 3, 62, 90
5, 174575, Note_on_c, 3, 62, 0
5, 174600, Note_on_c, 3, 62, 90
5, 174695, Note_on_c, 3, 62, 0
5, 174720, Note_on_c, 3, 61, 90
5, 174815, Note_on_c, 3, 61, 0
5, 174840, Note_on_c, 3, 62, 90
5, 175031, Note_on_c, 3, 62, 0
5, 175080, Note_on_c, 3, 62, 90
5, 175175, Note_on_c, 3, 62, 0
5, 175200, Note_on_c, 3, 66, 90
5, 175295, Note_on_c, 3, 66, 0
5, 175320, Note_on_c, 3, 67, 90
5, 175463, Note_on_c, 3, 67, 0
5, 175500, Note_on_c, 3, 67, 90
5, 175547, Note_on_c, 3, 67, 0
5, 175560, Note_on_c, 3, 69, 90
5, 175655, Note_on_c, 3, 69, 0
5, 175680, Note_on_c, 3, 71, 90
5, 175775, Note_on_c, 3, 71, 0
5, 175800, Note_on_c, 3, 72, 90
5, 175943, Note_on_c, 3, 72, 0
5, 175980, Note_on_c, 3, 74, 90
5, 176027, Note_on_c, 3, 74, 0
5, 176040, Note_on_c, 3, 67, 90
5, 176135, Note_on_c, 3, 67, 0
5, 176160, Note_on_c, 3, 72, 90
5, 176255, Note_on_c, 3, 72, 0
5, 176280, Note_on_c, 3, 67, 90
5, 176375, Note_on_c, 3, 67, 0
5, 176400, Note_on_c, 3, 69, 90
5, 176447, Note_on_c, 3, 69, 0
5, 176460, Note_on_c, 3, 71, 90
5, 176507, Note_on_c, 3, 71, 0
5, 176520, Note_on_c, 3, 66, 90
5, 176663, Note_on_c, 3, 66, 0
5, 176700, Note_on_c, 3, 67, 90
5, 176747, Note_on_c, 3, 67, 0
5, 176760, Note_on_c, 3, 67, 90
5, 176951, Note_on_c, 3, 67, 0
5, 176951, End_track
6, 0, Start_track
6, 0, MIDI_port, 0
6, 0, Title_t, "viola"
6, 0, Program_c, 4, 48
6, 90, Note_on_c, 4, 55, 90
6, 119, Note_on_c, 4, 55, 0
6, 120, Note_on_c, 4, 59, 90
6, 149, Note_on_c, 4, 59, 0
6, 150, Note_on_c, 4, 62, 90
6, 179, Note_on_c, 4, 62, 0
6, 180, Note_on_c, 4, 67, 90
6, 209, Note_on_c, 4, 67, 0
6, 210, Note_on_c, 4, 71, 90
6, 239, Note_on_c, 4, 71, 0
6, 330, Note_on_c, 4, 55, 90
6, 359, Note_on_c, 4, 55, 0
6, 360, Note_on_c, 4, 60, 90
6, 389, Note_on_c, 4, 60, 0
6, 390, Note_on_c, 4, 64, 90
6, 419, Note_on_c, 4, 64, 0
6, 420, Note_on_c, 4, 67, 90
6, 449, Note_on_c, 4, 67, 0
6, 450, Note_on_c, 4, 72, 90
6, 479, Note_on_c, 4, 72, 0
6, 570, Note_on_c, 4, 57, 90
6, 599, Note_on_c, 4, 57, 0
6, 600, Note_on_c, 4, 60, 90
6, 629, Note_on_c, 4, 60, 0
6, 630, Note_on_c, 4, 66, 90
6, 659, Note_on_c, 4, 66, 0
6, 660, Note_on_c, 4, 69, 90
6, 689, Note_on_c, 4, 69, 0
6, 690, Note_on_c, 4, 72, 90
6, 719, Note_on_c, 4, 72, 0
6, 810, Note_on_c, 4, 59, 90
6, 839, Note_on_c, 4, 59, 0
6, 840, Note_on_c, 4, 62, 90
6, 869, Note_on_c, 4, 62, 0
6, 870, Note_on_c, 4, 67, 90
6, 899, Note_on_c, 4, 67, 0
6, 900, Note_on_c, 4, 71, 90
6, 929, Note_on_c, 4, 71, 0
6, 930, Note_on_c, 4, 74, 90
6, 959, Note_on_c, 4, 74, 0
6, 1050, Note_on_c, 4, 60, 90
6, 1079, Note_on_c, 4, 60, 0
6, 1080, Note_on_c, 4, 64, 90
6, 1109, Note_on_c, 4, 64, 0
6, 1110, Note_on_c, 4, 67, 90
6, 1139, Note_on_c, 4, 67, 0
6, 1140, Note_on_c, 4, 72, 90
6, 1169, Note_on_c, 4, 72, 0
6, 1170, Note_on_c, 4, 76, 90
6, 1199, Note_on_c, 4, 76, 0
6, 1290, Note_on_c, 4, 62, 90
6, 1319, Note_on_c, 4, 62, 0
6, 1320, Note_on_c, 4, 66, 90
6, 1349, Note_on_c, 4, 66, 0
6, 1350, Note_on_c, 4, 69, 90
6, 1379, Note_on_c, 4, 69, 0
6, 1380, Note_on_c, 4, 74, 90
6, 1409, Note_on_c, 4, 74, 0
6, 1410, Note_on_c, 4, 78, 90
6, 1439, Note_on_c, 4, 78, 0
6, 1530, Note_on_c, 4, 55, 90
6, 1559, Note_on_c, 4, 55, 0
6, 1560, Note_on_c, 4, 59, 90
6, 1589, Note_on_c, 4, 59, 0
6, 1590, Note_on_c, 4, 62, 90
6, 1619, Note_on_c, 4, 62, 0
6, 1620, Note_on_c, 4, 67, 90
6, 1649, Note_on_c, 4, 67, 0
6, 1650, Note_on_c, 4, 71, 90
6, 1679, Note_on_c, 4, 71, 0
6, 1770, Note_on_c, 4, 55, 90
6, 1799, Note_on_c, 4, 55, 0
6, 1800, Note_on_c, 4, 59, 90
6, 1829, Note_on_c, 4, 59, 0
6, 1830, Note_on_c, 4, 62, 90
6, 1859, Note_on_c, 4, 62, 0
6, 1860, Note_on_c, 4, 67, 90
6, 1889, Note_on_c, 4, 67, 0
6, 1890, Note_on_c, 4, 71, 90
6, 1919, Note_on_c, 4, 71, 0
6, 2010, Note_on_c, 4, 57, 90
6, 2039, Note_on_c, 4, 57, 0
6, 2040, Note_on_c, 4, 60, 90
6, 2069, Note_on_c, 4, 60, 0
6, 2070, Note_on_c, 4, 64, 90
6, 2099, Note_on_c, 4, 64, 0
6, 2100, Note_on_c, 4, 69, 90
6, 2129, Note_on_c, 4, 69, 0
6, 2130, Note_on_c, 4, 72, 90
6, 2159, Note_on_c, 4, 72, 0
6, 2250, Note_on_c, 4, 57, 90
6, 2279, Note_on_c, 4, 57, 0
6, 2280, Note_on_c, 4, 62, 90
6, 2309, Note_on_c, 4, 62, 0
6, 2310, Note_on_c, 4, 66, 90
6, 2339, Note_on_c, 4, 66, 0
6, 2340, Note_on_c, 4, 69, 90
6, 2369, Note_on_c, 4, 69, 0
6, 2370, Note_on_c, 4, 74, 90
6, 2399, Note_on_c, 4, 74, 0
6, 2490, Note_on_c, 4, 55, 90
6, 2519, Note_on_c, 4, 55, 0
6, 2520, Note_on_c, 4, 59, 90
6, 2549, Note_on_c, 4, 59, 0
6, 2550, Note_on_c, 4, 62, 90
6, 2579, Note_on_c, 4, 62, 0
6, 2580, Note_on_c, 4, 67, 90
6, 2609, Note_on_c, 4, 67, 0
6, 2610, Note_on_c, 4, 71, 90
6, 2639, Note_on_c, 4, 71, 0
6, 2730, Note_on_c, 4, 57, 90
6, 2759, Note_on_c, 4, 57, 0
6, 2760, Note_on_c, 4, 60, 90
6, 2789, Note_on_c, 4, 60, 0
6, 2790, Note_on_c, 4, 66, 90
6, 2819, Note_on_c, 4, 66, 0
6, 2820, Note_on_c, 4, 69, 90
6, 2849, Note_on_c, 4, 69, 0
6, 2850, Note_on_c, 4, 72, 90
6, 2879, Note_on_c, 4, 72, 0
6, 2970, Note_on_c, 4, 57, 90
6, 2999, Note_on_c, 4, 57, 0
6, 3000, Note_on_c, 4, 61, 90
6, 3029, Note_on_c, 4, 61, 0
6, 3030, Note_on_c, 4, 64, 90
6, 3059, Note_on_c, 4, 64, 0
6, 3060, Note_on_c, 4, 69, 90
6, 3089, Note_on_c, 4, 69, 0
6, 3090, Note_on_c, 4, 73, 90
6, 3119, Note_on_c, 4, 73, 0
6, 3210, Note_on_c, 4, 59, 90
6, 3239, Note_on_c, 4, 59, 0
6, 3240, Note_on_c, 4, 62, 90
6, 3269, Note_on_c, 4, 62, 0
6, 3270, Note_on_c, 4, 68, 90
6, 3299, Note_on_c, 4, 68, 0
6, 3300, Note_on_c, 4, 71, 90
6, 3329, Note_on_c, 4, 71, 0
6, 3330, Note_on_c, 4, 74, 90
6, 3359, Note_on_c, 4, 74, 0
6, 3450, Note_on_c, 4, 61, 90
6, 3479, Note_on_c, 4, 61, 0
6, 3480, Note_on_c, 4, 64, 90
6, 3509, Note_on_c, 4, 64, 0
6, 3510, Note_on_c, 4, 67, 90
6, 3539, Note_on_c, 4, 67, 0
6, 3540, Note_on_c, 4, 70, 90
6, 3569, Note_on_c, 4, 70, 0
6, 3570, Note_on_c, 4, 76, 90
6, 3599, Note_on_c, 4, 76, 0
6, 3690, Note_on_c, 4, 62, 90
6, 3719, Note_on_c, 4, 62, 0
6, 3720, Note_on_c, 4, 67, 90
6, 3749, Note_on_c, 4, 67, 0
6, 3750, Note_on_c, 4, 71, 90
6, 3779, Note_on_c, 4, 71, 0
6, 3780, Note_on_c, 4, 76, 90
6, 3809, Note_on_c, 4, 76, 0
6, 3810, Note_on_c, 4, 79, 90
6, 3839, Note_on_c, 4, 79, 0
6, 4110, Note_on_c, 4, 62, 90
6, 4139, Note_on_c, 4, 62, 0
6, 4140, Note_on_c, 4, 60, 90
6, 4169, Note_on_c, 4, 60, 0
6, 4170, Note_on_c, 4, 59, 90
6, 4199, Note_on_c, 4, 59, 0
6, 4200, Note_on_c, 4, 57, 90
6, 4229, Note_on_c, 4, 57, 0
6, 4230, Note_on_c, 4, 55, 90
6, 4259, Note_on_c, 4, 55, 0
6, 4260, Note_on_c, 4, 54, 90
6, 4289, Note_on_c, 4, 54, 0
6, 4290, Note_on_c, 4, 52, 90
6, 4319, Note_on_c, 4, 52, 0
6, 4320, Note_on_c, 4, 54, 90
6, 4409, Note_on_c, 4, 54, 0
6, 4410, Note_on_c, 4, 57, 90
6, 4439, Note_on_c, 4, 57, 0
6, 4440, Note_on_c, 4, 62, 90
6, 4469, Note_on_c, 4, 62, 0
6, 4470, Note_on_c, 4, 66, 90
6, 4499, Note_on_c, 4, 66, 0
6, 4500, Note_on_c, 4, 69, 90
6, 4529, Note_on_c, 4, 69, 0
6, 4530, Note_on_c, 4, 74, 90
6, 4559, Note_on_c, 4, 74, 0
6, 4650, Note_on_c, 4, 55, 90
6, 4679, Note_on_c, 4, 55, 0
6, 4680, Note_on_c, 4, 59, 90
6, 4709, Note_on_c, 4, 59, 0
6, 4710, Note_on_c, 4, 62, 90
6, 4739, Note_on_c, 4, 62, 0
6, 4740, Note_on_c, 4, 67, 90
6, 4769, Note_on_c, 4, 67, 0
6, 4770, Note_on_c, 4, 71, 90
6, 4799, Note_on_c, 4, 71, 0
6, 4890, Note_on_c, 4, 55, 90
6, 4919, Note_on_c, 4, 55, 0
6, 4920, Note_on_c, 4, 59, 90
6, 4949, Note_on_c, 4, 59, 0
6, 4950, Note_on_c, 4, 62, 90
6, 4979, Note_on_c, 4, 62, 0
6, 4980, Note_on_c, 4, 67, 90
6, 5009, Note_on_c, 4, 67, 0
6, 5010, Note_on_c, 4, 71, 90
6, 5039, Note_on_c, 4, 71, 0
6, 5130, Note_on_c, 4, 57, 90
6, 5159, Note_on_c, 4, 57, 0
6, 5160, Note_on_c, 4, 60, 90
6, 5189, Note_on_c, 4, 60, 0
6, 5190, Note_on_c, 4, 63, 90
6, 5219, Note_on_c, 4, 63, 0
6, 5220, Note_on_c, 4, 67, 90
6, 5249, Note_on_c, 4, 67, 0
6, 5250, Note_on_c, 4, 72, 90
6, 5279, Note_on_c, 4, 72, 0
6, 5370, Note_on_c, 4, 57, 90
6, 5399, Note_on_c, 4, 57, 0
6, 5400, Note_on_c, 4, 62, 90
6, 5429, Note_on_c, 4, 62, 0
6, 5430, Note_on_c, 4, 67, 90
6, 5459, Note_on_c, 4, 67, 0
6, 5460, Note_on_c, 4, 70, 90
6, 5489, Note_on_c, 4, 70, 0
6, 5490, Note_on_c, 4, 74, 90
6, 5519, Note_on_c, 4, 74, 0
6, 5610, Note_on_c, 4, 66, 90
6, 5639, Note_on_c, 4, 66, 0
6, 5640, Note_on_c, 4, 69, 90
6, 5669, Note_on_c, 4, 69, 0
6, 5670, Note_on_c, 4, 72, 90
6, 5699, Note_on_c, 4, 72, 0
6, 5700, Note_on_c, 4, 75, 90
6, 5729, Note_on_c, 4, 75, 0
6, 5730, Note_on_c, 4, 78, 90
6, 5759, Note_on_c, 4, 78, 0
6, 6030, Note_on_c, 4, 67, 90
6, 6059, Note_on_c, 4, 67, 0
6, 6060, Note_on_c, 4, 66, 90
6, 6089, Note_on_c, 4, 66, 0
6, 6090, Note_on_c, 4, 64, 90
6, 6119, Note_on_c, 4, 64, 0
6, 6120, Note_on_c, 4, 62, 90
6, 6149, Note_on_c, 4, 62, 0
6, 6150, Note_on_c, 4, 60, 90
6, 6179, Note_on_c, 4, 60, 0
6, 6180, Note_on_c, 4, 59, 90
6, 6209, Note_on_c, 4, 59, 0
6, 6210, Note_on_c, 4, 57, 90
6, 6239, Note_on_c, 4, 57, 0
6, 6240, Note_on_c, 4, 59, 90
6, 6329, Note_on_c, 4, 59, 0
6, 6330, Note_on_c, 4, 55, 90
6, 6359, Note_on_c, 4, 55, 0
6, 6360, Note_on_c, 4, 59, 90
6, 6389, Note_on_c, 4, 59, 0
6, 6390, Note_on_c, 4, 62, 90
6, 6419, Note_on_c, 4, 62, 0
6, 6420, Note_on_c, 4, 67, 90
6, 6449, Note_on_c, 4, 67, 0
6, 6450, Note_on_c, 4, 71, 90
6, 6479, Note_on_c, 4, 71, 0
6, 6570, Note_on_c, 4, 55, 90
6, 6599, Note_on_c, 4, 55, 0
6, 6600, Note_on_c, 4, 60, 90
6, 6629, Note_on_c, 4, 60, 0
6, 6630, Note_on_c, 4, 64, 90
6, 6659, Note_on_c, 4, 64, 0
6, 6660, Note_on_c, 4, 67, 90
6, 6689, Note_on_c, 4, 67, 0
6, 6690, Note_on_c, 4, 72, 90
6, 6719, Note_on_c, 4, 72, 0
6, 6810, Note_on_c, 4, 55, 90
6, 6839, Note_on_c, 4, 55, 0
6, 6840, Note_on_c, 4, 59, 90
6, 6869, Note_on_c, 4, 59, 0
6, 6870, Note_on_c, 4, 62, 90
6, 6899, Note_on_c, 4, 62, 0
6, 6900, Note_on_c, 4, 67, 90
6, 6929, Note_on_c, 4, 67, 0
6, 6930, Note_on_c, 4, 71, 90
6, 6959, Note_on_c, 4, 71, 0
6, 7230, Note_on_c, 4, 71, 90
6, 7259, Note_on_c, 4, 71, 0
6, 7260, Note_on_c, 4, 69, 90
6, 7289, Note_on_c, 4, 69, 0
6, 7290, Note_on_c, 4, 67, 90
6, 7319, Note_on_c, 4, 67, 0
6, 7320, Note_on_c, 4, 66, 90
6, 7349, Note_on_c, 4, 66, 0
6, 7350, Note_on_c, 4, 64, 90
6, 7379, Note_on_c, 4, 64, 0
6, 7380, Note_on_c, 4, 62, 90
6, 7409, Note_on_c, 4, 62, 0
6, 7410, Note_on_c, 4, 60, 90
6, 7439, Note_on_c, 4, 60, 0
6, 7440, Note_on_c, 4, 59, 90
6, 7529, Note_on_c, 4, 59, 0
6, 7530, Note_on_c, 4, 55, 90
6, 7559, Note_on_c, 4, 55, 0
6, 7560, Note_on_c, 4, 59, 90
6, 7589, Note_on_c, 4, 59, 0
6, 7590, Note_on_c, 4, 62, 90
6, 7619, Note_on_c, 4, 62, 0
6, 7620, Note_on_c, 4, 67, 90
6, 7649, Note_on_c, 4, 67, 0
6, 7650, Note_on_c, 4, 71, 90
6, 7679, Note_on_c, 4, 71, 0
6, 7770, Note_on_c, 4, 55, 90
6, 7799, Note_on_c, 4, 55, 0
6, 7800, Note_on_c, 4, 60, 90
6, 7829, Note_on_c, 4, 60, 0
6, 7830, Note_on_c, 4, 64, 90
6, 7859, Note_on_c, 4, 64, 0
6, 7860, Note_on_c, 4, 67, 90
6, 7889, Note_on_c, 4, 67, 0
6, 7890, Note_on_c, 4, 72, 90
6, 7919, Note_on_c, 4, 72, 0
6, 8010, Note_on_c, 4, 57, 90
6, 8039, Note_on_c, 4, 57, 0
6, 8040, Note_on_c, 4, 60, 90
6, 8069, Note_on_c, 4, 60, 0
6, 8070, Note_on_c, 4, 66, 90
6, 8099, Note_on_c, 4, 66, 0
6, 8100, Note_on_c, 4, 69, 90
6, 8129, Note_on_c, 4, 69, 0
6, 8130, Note_on_c, 4, 72, 90
6, 8159, Note_on_c, 4, 72, 0
6, 8160, Note_on_c, 4, 67, 90
6, 8189, Note_on_c, 4, 67, 0
6, 8190, Note_on_c, 4, 71, 90
6, 8219, Note_on_c, 4, 71, 0
6, 8220, Note_on_c, 4, 69, 90
6, 8249, Note_on_c, 4, 69, 0
6, 8250, Note_on_c, 4, 67, 90
6, 8279, Note_on_c, 4, 67, 0
6, 8280, Note_on_c, 4, 74, 90
6, 8369, Note_on_c, 4, 74, 0
6, 8370, Note_on_c, 4, 72, 90
6, 8399, Note_on_c, 4, 72, 0
6, 8400, Note_on_c, 4, 71, 90
6, 8429, Note_on_c, 4, 71, 0
6, 8430, Note_on_c, 4, 67, 90
6, 8459, Note_on_c, 4, 67, 0
6, 8460, Note_on_c, 4, 66, 90
6, 8489, Note_on_c, 4, 66, 0
6, 8490, Note_on_c, 4, 67, 90
6, 8519, Note_on_c, 4, 67, 0
6, 8520, Note_on_c, 4, 60, 90
6, 8549, Note_on_c, 4, 60, 0
6, 8550, Note_on_c, 4, 59, 90
6, 8579, Note_on_c, 4, 59, 0
6, 8580, Note_on_c, 4, 57, 90
6, 8609, Note_on_c, 4, 57, 0
6, 8610, Note_on_c, 4, 55, 90
6, 8639, Note_on_c, 4, 55, 0
6, 8640, Note_on_c, 4, 55, 90
6, 8759, Note_on_c, 4, 55, 0
6, 10680, Note_on_c, 4, 64, 90
6, 10739, Note_on_c, 4, 64, 0
6, 10740, Note_on_c, 4, 60, 90
6, 10799, Note_on_c, 4, 60, 0
6, 10800, Note_on_c, 4, 62, 90
6, 10979, Note_on_c, 4, 62, 0
6, 10980, Note_on_c, 4, 55, 90
6, 11039, Note_on_c, 4, 55, 0
6, 11040, Note_on_c, 4, 57, 90
6, 11159, Note_on_c, 4, 57, 0
6, 11160, Note_on_c, 4, 57, 90
6, 11219, Note_on_c, 4, 57, 0
6, 11220, Note_on_c, 4, 55, 90
6, 11279, Note_on_c, 4, 55, 0
6, 11280, Note_on_c, 4, 54, 90
6, 11339, Note_on_c, 4, 54, 0
6, 11340, Note_on_c, 4, 59, 90
6, 11399, Note_on_c, 4, 59, 0
6, 11400, Note_on_c, 4, 57, 90
6, 11459, Note_on_c, 4, 57, 0
6, 11460, Note_on_c, 4, 55, 90
6, 11519, Note_on_c, 4, 55, 0
6, 11520, Note_on_c, 4, 54, 90
6, 11639, Note_on_c, 4, 54, 0
6, 11640, Note_on_c, 4, 56, 90
6, 11699, Note_on_c, 4, 56, 0
6, 11700, Note_on_c, 4, 57, 90
6, 11759, Note_on_c, 4, 57, 0
6, 11760, Note_on_c, 4, 56, 90
6, 11819, Note_on_c, 4, 56, 0
6, 11820, Note_on_c, 4, 52, 90
6, 11879, Note_on_c, 4, 52, 0
6, 11880, Note_on_c, 4, 56, 90
6, 11939, Note_on_c, 4, 56, 0
6, 11940, Note_on_c, 4, 57, 90
6, 11999, Note_on_c, 4, 57, 0
6, 12000, Note_on_c, 4, 56, 90
6, 12119, Note_on_c, 4, 56, 0
6, 12120, Note_on_c, 4, 55, 90
6, 12179, Note_on_c, 4, 55, 0
6, 12180, Note_on_c, 4, 62, 90
6, 12239, Note_on_c, 4, 62, 0
6, 12240, Note_on_c, 4, 60, 90
6, 12359, Note_on_c, 4, 60, 0
6, 12360, Note_on_c, 4, 57, 90
6, 12419, Note_on_c, 4, 57, 0
6, 12420, Note_on_c, 4, 62, 90
6, 12479, Note_on_c, 4, 62, 0
6, 12480, Note_on_c, 4, 62, 90
6, 12599, Note_on_c, 4, 62, 0
6, 12600, Note_on_c, 4, 62, 90
6, 12659, Note_on_c, 4, 62, 0
6, 12660, Note_on_c, 4, 60, 90
6, 12719, Note_on_c, 4, 60, 0
6, 12720, Note_on_c, 4, 59, 90
6, 12779, Note_on_c, 4, 59, 0
6, 12780, Note_on_c, 4, 64, 90
6, 12839, Note_on_c, 4, 64, 0
6, 12840, Note_on_c, 4, 62, 90
6, 12899, Note_on_c, 4, 62, 0
6, 12900, Note_on_c, 4, 60, 90
6, 12959, Note_on_c, 4, 60, 0
6, 12960, Note_on_c, 4, 67, 90
6, 13079, Note_on_c, 4, 67, 0
6, 13080, Note_on_c, 4, 61, 90
6, 13139, Note_on_c, 4, 61, 0
6, 13140, Note_on_c, 4, 62, 90
6, 13199, Note_on_c, 4, 62, 0
6, 13200, Note_on_c, 4, 61, 90
6, 13259, Note_on_c, 4, 61, 0
6, 13260, Note_on_c, 4, 66, 90
6, 13319, Note_on_c, 4, 66, 0
6, 13320, Note_on_c, 4, 67, 90
6, 13379, Note_on_c, 4, 67, 0
6, 13380, Note_on_c, 4, 69, 90
6, 13439, Note_on_c, 4, 69, 0
6, 13440, Note_on_c, 4, 69, 90
6, 13559, Note_on_c, 4, 69, 0
6, 14820, Note_on_c, 4, 62, 90
6, 14849, Note_on_c, 4, 62, 0
6, 14850, Note_on_c, 4, 61, 90
6, 14879, Note_on_c, 4, 61, 0
6, 14880, Note_on_c, 4, 59, 90
6, 14999, Note_on_c, 4, 59, 0
6, 15000, Note_on_c, 4, 64, 90
6, 15059, Note_on_c, 4, 64, 0
6, 15060, Note_on_c, 4, 57, 90
6, 15179, Note_on_c, 4, 57, 0
6, 15180, Note_on_c, 4, 69, 90
6, 15269, Note_on_c, 4, 69, 0
6, 15270, Note_on_c, 4, 67, 90
6, 15299, Note_on_c, 4, 67, 0
6, 15300, Note_on_c, 4, 66, 90
6, 15329, Note_on_c, 4, 66, 0
6, 15330, Note_on_c, 4, 64, 90
6, 15359, Note_on_c, 4, 64, 0
6, 15360, Note_on_c, 4, 62, 90
6, 15419, Note_on_c, 4, 62, 0
6, 15420, Note_on_c, 4, 71, 90
6, 15509, Note_on_c, 4, 71, 0
6, 15510, Note_on_c, 4, 69, 90
6, 15539, Note_on_c, 4, 69, 0
6, 15540, Note_on_c, 4, 67, 90
6, 15569, Note_on_c, 4, 67, 0
6, 15570, Note_on_c, 4, 66, 90
6, 15599, Note_on_c, 4, 66, 0
6, 15600, Note_on_c, 4, 64, 90
6, 15659, Note_on_c, 4, 64, 0
6, 15660, Note_on_c, 4, 73, 90
6, 15749, Note_on_c, 4, 73, 0
6, 15750, Note_on_c, 4, 71, 90
6, 15779, Note_on_c, 4, 71, 0
6, 15780, Note_on_c, 4, 69, 90
6, 15809, Note_on_c, 4, 69, 0
6, 15810, Note_on_c, 4, 67, 90
6, 15839, Note_on_c, 4, 67, 0
6, 15840, Note_on_c, 4, 66, 90
6, 15869, Note_on_c, 4, 66, 0
6, 15870, Note_on_c, 4, 67, 90
6, 15899, Note_on_c, 4, 67, 0
6, 15900, Note_on_c, 4, 69, 90
6, 15929, Note_on_c, 4, 69, 0
6, 15930, Note_on_c, 4, 71, 90
6, 15959, Note_on_c, 4, 71, 0
6, 15960, Note_on_c, 4, 64, 90
6, 16019, Note_on_c, 4, 64, 0
6, 16020, Note_on_c, 4, 69, 90
6, 16079, Note_on_c, 4, 69, 0
6, 16080, Note_on_c, 4, 69, 90
6, 16199, Note_on_c, 4, 69, 0
6, 16410, Note_on_c, 4, 55, 90
6, 16439, Note_on_c, 4, 55, 0
6, 16440, Note_on_c, 4, 59, 90
6, 16469, Note_on_c, 4, 59, 0
6, 16470, Note_on_c, 4, 62, 90
6, 16499, Note_on_c, 4, 62, 0
6, 16500, Note_on_c, 4, 67, 90
6, 16529, Note_on_c, 4, 67, 0
6, 16530, Note_on_c, 4, 71, 90
6, 16559, Note_on_c, 4, 71, 0
6, 16650, Note_on_c, 4, 55, 90
6, 16679, Note_on_c, 4, 55, 0
6, 16680, Note_on_c, 4, 60, 90
6, 16709, Note_on_c, 4, 60, 0
6, 16710, Note_on_c, 4, 64, 90
6, 16739, Note_on_c, 4, 64, 0
6, 16740, Note_on_c, 4, 67, 90
6, 16769, Note_on_c, 4, 67, 0
6, 16770, Note_on_c, 4, 72, 90
6, 16799, Note_on_c, 4, 72, 0
6, 16890, Note_on_c, 4, 57, 90
6, 16919, Note_on_c, 4, 57, 0
6, 16920, Note_on_c, 4, 60, 90
6, 16949, Note_on_c, 4, 60, 0
6, 16950, Note_on_c, 4, 66, 90
6, 16979, Note_on_c, 4, 66, 0
6, 16980, Note_on_c, 4, 69, 90
6, 17009, Note_on_c, 4, 69, 0
6, 17010, Note_on_c, 4, 72, 90
6, 17039, Note_on_c, 4, 72, 0
6, 17130, Note_on_c, 4, 59, 90
6, 17159, Note_on_c, 4, 59, 0
6, 17160, Note_on_c, 4, 62, 90
6, 17189, Note_on_c, 4, 62, 0
6, 17190, Note_on_c, 4, 67, 90
6, 17219, Note_on_c, 4, 67, 0
6, 17220, Note_on_c, 4, 71, 90
6, 17249, Note_on_c, 4, 71, 0
6, 17250, Note_on_c, 4, 74, 90
6, 17279, Note_on_c, 4, 74, 0
6, 17370, Note_on_c, 4, 60, 90
6, 17399, Note_on_c, 4, 60, 0
6, 17400, Note_on_c, 4, 64, 90
6, 17429, Note_on_c, 4, 64, 0
6, 17430, Note_on_c, 4, 67, 90
6, 17459, Note_on_c, 4, 67, 0
6, 17460, Note_on_c, 4, 72, 90
6, 17489, Note_on_c, 4, 72, 0
6, 17490, Note_on_c, 4, 76, 90
6, 17519, Note_on_c, 4, 76, 0
6, 17610, Note_on_c, 4, 62, 90
6, 17639, Note_on_c, 4, 62, 0
6, 17640, Note_on_c, 4, 66, 90
6, 17669, Note_on_c, 4, 66, 0
6, 17670, Note_on_c, 4, 69, 90
6, 17699, Note_on_c, 4, 69, 0
6, 17700, Note_on_c, 4, 74, 90
6, 17729, Note_on_c, 4, 74, 0
6, 17730, Note_on_c, 4, 78, 90
6, 17759, Note_on_c, 4, 78, 0
6, 17850, Note_on_c, 4, 55, 90
6, 17879, Note_on_c, 4, 55, 0
6, 17880, Note_on_c, 4, 59, 90
6, 17909, Note_on_c, 4, 59, 0
6, 17910, Note_on_c, 4, 62, 90
6, 17939, Note_on_c, 4, 62, 0
6, 17940, Note_on_c, 4, 67, 90
6, 17969, Note_on_c, 4, 67, 0
6, 17970, Note_on_c, 4, 71, 90
6, 17999, Note_on_c, 4, 71, 0
6, 18090, Note_on_c, 4, 55, 90
6, 18119, Note_on_c, 4, 55, 0
6, 18120, Note_on_c, 4, 59, 90
6, 18149, Note_on_c, 4, 59, 0
6, 18150, Note_on_c, 4, 62, 90
6, 18179, Note_on_c, 4, 62, 0
6, 18180, Note_on_c, 4, 67, 90
6, 18209, Note_on_c, 4, 67, 0
6, 18210, Note_on_c, 4, 71, 90
6, 18239, Note_on_c, 4, 71, 0
6, 18330, Note_on_c, 4, 57, 90
6, 18359, Note_on_c, 4, 57, 0
6, 18360, Note_on_c, 4, 60, 90
6, 18389, Note_on_c, 4, 60, 0
6, 18390, Note_on_c, 4, 64, 90
6, 18419, Note_on_c, 4, 64, 0
6, 18420, Note_on_c, 4, 69, 90
6, 18449, Note_on_c, 4, 69, 0
6, 18450, Note_on_c, 4, 72, 90
6, 18479, Note_on_c, 4, 72, 0
6, 18570, Note_on_c, 4, 57, 90
6, 18599, Note_on_c, 4, 57, 0
6, 18600, Note_on_c, 4, 62, 90
6, 18629, Note_on_c, 4, 62, 0
6, 18630, Note_on_c, 4, 66, 90
6, 18659, Note_on_c, 4, 66, 0
6, 18660, Note_on_c, 4, 69, 90
6, 18689, Note_on_c, 4, 69, 0
6, 18690, Note_on_c, 4, 74, 90
6, 18719, Note_on_c, 4, 74, 0
6, 18810, Note_on_c, 4, 55, 90
6, 18839, Note_on_c, 4, 55, 0
6, 18840, Note_on_c, 4, 59, 90
6, 18869, Note_on_c, 4, 59, 0
6, 18870, Note_on_c, 4, 62, 90
6, 18899, Note_on_c, 4, 62, 0
6, 18900, Note_on_c, 4, 67, 90
6, 18929, Note_on_c, 4, 67, 0
6, 18930, Note_on_c, 4, 71, 90
6, 18959, Note_on_c, 4, 71, 0
6, 19050, Note_on_c, 4, 57, 90
6, 19079, Note_on_c, 4, 57, 0
6, 19080, Note_on_c, 4, 60, 90
6, 19109, Note_on_c, 4, 60, 0
6, 19110, Note_on_c, 4, 66, 90
6, 19139, Note_on_c, 4, 66, 0
6, 19140, Note_on_c, 4, 69, 90
6, 19169, Note_on_c, 4, 69, 0
6, 19170, Note_on_c, 4, 72, 90
6, 19199, Note_on_c, 4, 72, 0
6, 19290, Note_on_c, 4, 57, 90
6, 19319, Note_on_c, 4, 57, 0
6, 19320, Note_on_c, 4, 61, 90
6, 19349, Note_on_c, 4, 61, 0
6, 19350, Note_on_c, 4, 64, 90
6, 19379, Note_on_c, 4, 64, 0
6, 19380, Note_on_c, 4, 69, 90
6, 19409, Note_on_c, 4, 69, 0
6, 19410, Note_on_c, 4, 73, 90
6, 19439, Note_on_c, 4, 73, 0
6, 19530, Note_on_c, 4, 59, 90
6, 19559, Note_on_c, 4, 59, 0
6, 19560, Note_on_c, 4, 62, 90
6, 19589, Note_on_c, 4, 62, 0
6, 19590, Note_on_c, 4, 68, 90
6, 19619, Note_on_c, 4, 68, 0
6, 19620, Note_on_c, 4, 71, 90
6, 19649, Note_on_c, 4, 71, 0
6, 19650, Note_on_c, 4, 74, 90
6, 19679, Note_on_c, 4, 74, 0
6, 19770, Note_on_c, 4, 61, 90
6, 19799, Note_on_c, 4, 61, 0
6, 19800, Note_on_c, 4, 64, 90
6, 19829, Note_on_c, 4, 64, 0
6, 19830, Note_on_c, 4, 67, 90
6, 19859, Note_on_c, 4, 67, 0
6, 19860, Note_on_c, 4, 70, 90
6, 19889, Note_on_c, 4, 70, 0
6, 19890, Note_on_c, 4, 76, 90
6, 19919, Note_on_c, 4, 76, 0
6, 20010, Note_on_c, 4, 62, 90
6, 20039, Note_on_c, 4, 62, 0
6, 20040, Note_on_c, 4, 67, 90
6, 20069, Note_on_c, 4, 67, 0
6, 20070, Note_on_c, 4, 71, 90
6, 20099, Note_on_c, 4, 71, 0
6, 20100, Note_on_c, 4, 76, 90
6, 20129, Note_on_c, 4, 76, 0
6, 20130, Note_on_c, 4, 79, 90
6, 20159, Note_on_c, 4, 79, 0
6, 20430, Note_on_c, 4, 62, 90
6, 20459, Note_on_c, 4, 62, 0
6, 20460, Note_on_c, 4, 60, 90
6, 20489, Note_on_c, 4, 60, 0
6, 20490, Note_on_c, 4, 59, 90
6, 20519, Note_on_c, 4, 59, 0
6, 20520, Note_on_c, 4, 57, 90
6, 20549, Note_on_c, 4, 57, 0
6, 20550, Note_on_c, 4, 55, 90
6, 20579, Note_on_c, 4, 55, 0
6, 20580, Note_on_c, 4, 54, 90
6, 20609, Note_on_c, 4, 54, 0
6, 20610, Note_on_c, 4, 52, 90
6, 20639, Note_on_c, 4, 52, 0
6, 20640, Note_on_c, 4, 54, 90
6, 20729, Note_on_c, 4, 54, 0
6, 20730, Note_on_c, 4, 57, 90
6, 20759, Note_on_c, 4, 57, 0
6, 20760, Note_on_c, 4, 62, 90
6, 20789, Note_on_c, 4, 62, 0
6, 20790, Note_on_c, 4, 66, 90
6, 20819, Note_on_c, 4, 66, 0
6, 20820, Note_on_c, 4, 69, 90
6, 20849, Note_on_c, 4, 69, 0
6, 20850, Note_on_c, 4, 74, 90
6, 20879, Note_on_c, 4, 74, 0
6, 20970, Note_on_c, 4, 55, 90
6, 20999, Note_on_c, 4, 55, 0
6, 21000, Note_on_c, 4, 59, 90
6, 21029, Note_on_c, 4, 59, 0
6, 21030, Note_on_c, 4, 62, 90
6, 21059, Note_on_c, 4, 62, 0
6, 21060, Note_on_c, 4, 67, 90
6, 21089, Note_on_c, 4, 67, 0
6, 21090, Note_on_c, 4, 71, 90
6, 21119, Note_on_c, 4, 71, 0
6, 21210, Note_on_c, 4, 55, 90
6, 21239, Note_on_c, 4, 55, 0
6, 21240, Note_on_c, 4, 59, 90
6, 21269, Note_on_c, 4, 59, 0
6, 21270, Note_on_c, 4, 62, 90
6, 21299, Note_on_c, 4, 62, 0
6, 21300, Note_on_c, 4, 67, 90
6, 21329, Note_on_c, 4, 67, 0
6, 21330, Note_on_c, 4, 71, 90
6, 21359, Note_on_c, 4, 71, 0
6, 21450, Note_on_c, 4, 57, 90
6, 21479, Note_on_c, 4, 57, 0
6, 21480, Note_on_c, 4, 60, 90
6, 21509, Note_on_c, 4, 60, 0
6, 21510, Note_on_c, 4, 63, 90
6, 21539, Note_on_c, 4, 63, 0
6, 21540, Note_on_c, 4, 67, 90
6, 21569, Note_on_c, 4, 67, 0
6, 21570, Note_on_c, 4, 72, 90
6, 21599, Note_on_c, 4, 72, 0
6, 21690, Note_on_c, 4, 57, 90
6, 21719, Note_on_c, 4, 57, 0
6, 21720, Note_on_c, 4, 62, 90
6, 21749, Note_on_c, 4, 62, 0
6, 21750, Note_on_c, 4, 67, 90
6, 21779, Note_on_c, 4, 67, 0
6, 21780, Note_on_c, 4, 70, 90
6, 21809, Note_on_c, 4, 70, 0
6, 21810, Note_on_c, 4, 74, 90
6, 21839, Note_on_c, 4, 74, 0
6, 21930, Note_on_c, 4, 66, 90
6, 21959, Note_on_c, 4, 66, 0
6, 21960, Note_on_c, 4, 69, 90
6, 21989, Note_on_c, 4, 69, 0
6, 21990, Note_on_c, 4, 72, 90
6, 22019, Note_on_c, 4, 72, 0
6, 22020, Note_on_c, 4, 75, 90
6, 22049, Note_on_c, 4, 75, 0
6, 22050, Note_on_c, 4, 78, 90
6, 22079, Note_on_c, 4, 78, 0
6, 22350, Note_on_c, 4, 67, 90
6, 22379, Note_on_c, 4, 67, 0
6, 22380, Note_on_c, 4, 66, 90
6, 22409, Note_on_c, 4, 66, 0
6, 22410, Note_on_c, 4, 64, 90
6, 22439, Note_on_c, 4, 64, 0
6, 22440, Note_on_c, 4, 62, 90
6, 22469, Note_on_c, 4, 62, 0
6, 22470, Note_on_c, 4, 60, 90
6, 22499, Note_on_c, 4, 60, 0
6, 22500, Note_on_c, 4, 59, 90
6, 22529, Note_on_c, 4, 59, 0
6, 22530, Note_on_c, 4, 57, 90
6, 22559, Note_on_c, 4, 57, 0
6, 22560, Note_on_c, 4, 59, 90
6, 22649, Note_on_c, 4, 59, 0
6, 22650, Note_on_c, 4, 55, 90
6, 22679, Note_on_c, 4, 55, 0
6, 22680, Note_on_c, 4, 59, 90
6, 22709, Note_on_c, 4, 59, 0
6, 22710, Note_on_c, 4, 62, 90
6, 22739, Note_on_c, 4, 62, 0
6, 22740, Note_on_c, 4, 67, 90
6, 22769, Note_on_c, 4, 67, 0
6, 22770, Note_on_c, 4, 71, 90
6, 22799, Note_on_c, 4, 71, 0
6, 22890, Note_on_c, 4, 55, 90
6, 22919, Note_on_c, 4, 55, 0
6, 22920, Note_on_c, 4, 60, 90
6, 22949, Note_on_c, 4, 60, 0
6, 22950, Note_on_c, 4, 64, 90
6, 22979, Note_on_c, 4, 64, 0
6, 22980, Note_on_c, 4, 67, 90
6, 23009, Note_on_c, 4, 67, 0
6, 23010, Note_on_c, 4, 72, 90
6, 23039, Note_on_c, 4, 72, 0
6, 23130, Note_on_c, 4, 55, 90
6, 23159, Note_on_c, 4, 55, 0
6, 23160, Note_on_c, 4, 59, 90
6, 23189, Note_on_c, 4, 59, 0
6, 23190, Note_on_c, 4, 62, 90
6, 23219, Note_on_c, 4, 62, 0
6, 23220, Note_on_c, 4, 67, 90
6, 23249, Note_on_c, 4, 67, 0
6, 23250, Note_on_c, 4, 71, 90
6, 23279, Note_on_c, 4, 71, 0
6, 23550, Note_on_c, 4, 71, 90
6, 23579, Note_on_c, 4, 71, 0
6, 23580, Note_on_c, 4, 69, 90
6, 23609, Note_on_c, 4, 69, 0
6, 23610, Note_on_c, 4, 67, 90
6, 23639, Note_on_c, 4, 67, 0
6, 23640, Note_on_c, 4, 66, 90
6, 23669, Note_on_c, 4, 66, 0
6, 23670, Note_on_c, 4, 64, 90
6, 23699, Note_on_c, 4, 64, 0
6, 23700, Note_on_c, 4, 62, 90
6, 23729, Note_on_c, 4, 62, 0
6, 23730, Note_on_c, 4, 60, 90
6, 23759, Note_on_c, 4, 60, 0
6, 23760, Note_on_c, 4, 59, 90
6, 23849, Note_on_c, 4, 59, 0
6, 23850, Note_on_c, 4, 55, 90
6, 23879, Note_on_c, 4, 55, 0
6, 23880, Note_on_c, 4, 59, 90
6, 23909, Note_on_c, 4, 59, 0
6, 23910, Note_on_c, 4, 62, 90
6, 23939, Note_on_c, 4, 62, 0
6, 23940, Note_on_c, 4, 67, 90
6, 23969, Note_on_c, 4, 67, 0
6, 23970, Note_on_c, 4, 71, 90
6, 23999, Note_on_c, 4, 71, 0
6, 24090, Note_on_c, 4, 55, 90
6, 24119, Note_on_c, 4, 55, 0
6, 24120, Note_on_c, 4, 60, 90
6, 24149, Note_on_c, 4, 60, 0
6, 24150, Note_on_c, 4, 64, 90
6, 24179, Note_on_c, 4, 64, 0
6, 24180, Note_on_c, 4, 67, 90
6, 24209, Note_on_c, 4, 67, 0
6, 24210, Note_on_c, 4, 72, 90
6, 24239, Note_on_c, 4, 72, 0
6, 24330, Note_on_c, 4, 57, 90
6, 24359, Note_on_c, 4, 57, 0
6, 24360, Note_on_c, 4, 60, 90
6, 24389, Note_on_c, 4, 60, 0
6, 24390, Note_on_c, 4, 66, 90
6, 24419, Note_on_c, 4, 66, 0
6, 24420, Note_on_c, 4, 69, 90
6, 24449, Note_on_c, 4, 69, 0
6, 24450, Note_on_c, 4, 72, 90
6, 24479, Note_on_c, 4, 72, 0
6, 24480, Note_on_c, 4, 67, 90
6, 24509, Note_on_c, 4, 67, 0
6, 24510, Note_on_c, 4, 71, 90
6, 24539, Note_on_c, 4, 71, 0
6, 24540, Note_on_c, 4, 69, 90
6, 24569, Note_on_c, 4, 69, 0
6, 24570, Note_on_c, 4, 67, 90
6, 24599, Note_on_c, 4, 67, 0
6, 24600, Note_on_c, 4, 74, 90
6, 24689, Note_on_c, 4, 74, 0
6, 24690, Note_on_c, 4, 72, 90
6, 24719, Note_on_c, 4, 72, 0
6, 24720, Note_on_c, 4, 71, 90
6, 24749, Note_on_c, 4, 71, 0
6, 24750, Note_on_c, 4, 67, 90
6, 24779, Note_on_c, 4, 67, 0
6, 24780, Note_on_c, 4, 66, 90
6, 24809, Note_on_c, 4, 66, 0
6, 24810, Note_on_c, 4, 67, 90
6, 24839, Note_on_c, 4, 67, 0
6, 24840, Note_on_c, 4, 60, 90
6, 24869, Note_on_c, 4, 60, 0
6, 24870, Note_on_c, 4, 59, 90
6, 24899, Note_on_c, 4, 59, 0
6, 24900, Note_on_c, 4, 57, 90
6, 24929, Note_on_c, 4, 57, 0
6, 24930, Note_on_c, 4, 55, 90
6, 24959, Note_on_c, 4, 55, 0
6, 24960, Note_on_c, 4, 55, 90
6, 25200, Note_on_c, 4, 55, 0
6, 153960, Note_on_c, 4, 62, 90
6, 154055, Note_on_c, 4, 62, 0
6, 154080, Note_on_c, 4, 64, 90
6, 154175, Note_on_c, 4, 64, 0
6, 154200, Note_on_c, 4, 67, 90
6, 154295, Note_on_c, 4, 67, 0
6, 154320, Note_on_c, 4, 60, 90
6, 154415, Note_on_c, 4, 60, 0
6, 154440, Note_on_c, 4, 60, 90
6, 154535, Note_on_c, 4, 60, 0
6, 154560, Note_on_c, 4, 62, 90
6, 154655, Note_on_c, 4, 62, 0
6, 154680, Note_on_c, 4, 62, 90
6, 154871, Note_on_c, 4, 62, 0
6, 154920, Note_on_c, 4, 62, 90
6, 155015, Note_on_c, 4, 62, 0
6, 155040, Note_on_c, 4, 62, 90
6, 155135, Note_on_c, 4, 62, 0
6, 155160, Note_on_c, 4, 59, 90
6, 155255, Note_on_c, 4, 59, 0
6, 155280, Note_on_c, 4, 64, 90
6, 155375, Note_on_c, 4, 64, 0
6, 155400, Note_on_c, 4, 62, 90
6, 155495, Note_on_c, 4, 62, 0
6, 155520, Note_on_c, 4, 57, 90
6, 155615, Note_on_c, 4, 57, 0
6, 155640, Note_on_c, 4, 55, 90
6, 155831, Note_on_c, 4, 55, 0
6, 155880, Note_on_c, 4, 62, 90
6, 155975, Note_on_c, 4, 62, 0
6, 156000, Note_on_c, 4, 67, 90
6, 156095, Note_on_c, 4, 67, 0
6, 156120, Note_on_c, 4, 64, 90
6, 156215, Note_on_c, 4, 64, 0
6, 156240, Note_on_c, 4, 66, 90
6, 156335, Note_on_c, 4, 66, 0
6, 156360, Note_on_c, 4, 67, 90
6, 156455, Note_on_c, 4, 67, 0
6, 156480, Note_on_c, 4, 69, 90
6, 156575, Note_on_c, 4, 69, 0
6, 156600, Note_on_c, 4, 69, 90
6, 156791, Note_on_c, 4, 69, 0
6, 156840, Note_on_c, 4, 69, 90
6, 156935, Note_on_c, 4, 69, 0
6, 156960, Note_on_c, 4, 67, 90
6, 157055, Note_on_c, 4, 67, 0
6, 157080, Note_on_c, 4, 66, 90
6, 157175, Note_on_c, 4, 66, 0
6, 157200, Note_on_c, 4, 71, 90
6, 157295, Note_on_c, 4, 71, 0
6, 157320, Note_on_c, 4, 69, 90
6, 157415, Note_on_c, 4, 69, 0
6, 157440, Note_on_c, 4, 64, 90
6, 157535, Note_on_c, 4, 64, 0
6, 157560, Note_on_c, 4, 66, 90
6, 157751, Note_on_c, 4, 66, 0
6, 157800, Note_on_c, 4, 62, 90
6, 157895, Note_on_c, 4, 62, 0
6, 157920, Note_on_c, 4, 67, 90
6, 158015, Note_on_c, 4, 67, 0
6, 158040, Note_on_c, 4, 67, 90
6, 158135, Note_on_c, 4, 67, 0
6, 158160, Note_on_c, 4, 64, 90
6, 158255, Note_on_c, 4, 64, 0
6, 158280, Note_on_c, 4, 64, 90
6, 158375, Note_on_c, 4, 64, 0
6, 158400, Note_on_c, 4, 64, 90
6, 158495, Note_on_c, 4, 64, 0
6, 158520, Note_on_c, 4, 64, 90
6, 158711, Note_on_c, 4, 64, 0
6, 158760, Note_on_c, 4, 62, 90
6, 158855, Note_on_c, 4, 62, 0
6, 158880, Note_on_c, 4, 62, 90
6, 158975, Note_on_c, 4, 62, 0
6, 159000, Note_on_c, 4, 59, 90
6, 159095, Note_on_c, 4, 59, 0
6, 159120, Note_on_c, 4, 59, 90
6, 159215, Note_on_c, 4, 59, 0
6, 159240, Note_on_c, 4, 57, 90
6, 159335, Note_on_c, 4, 57, 0
6, 159360, Note_on_c, 4, 57, 90
6, 159455, Note_on_c, 4, 57, 0
6, 159480, Note_on_c, 4, 57, 90
6, 159671, Note_on_c, 4, 57, 0
6, 159720, Note_on_c, 4, 62, 90
6, 159815, Note_on_c, 4, 62, 0
6, 159840, Note_on_c, 4, 62, 90
6, 159935, Note_on_c, 4, 62, 0
6, 159960, Note_on_c, 4, 62, 90
6, 160103, Note_on_c, 4, 62, 0
6, 160140, Note_on_c, 4, 62, 90
6, 160187, Note_on_c, 4, 62, 0
6, 160200, Note_on_c, 4, 64, 90
6, 160295, Note_on_c, 4, 64, 0
6, 160320, Note_on_c, 4, 65, 90
6, 160415, Note_on_c, 4, 65, 0
6, 160440, Note_on_c, 4, 67, 90
6, 160583, Note_on_c, 4, 67, 0
6, 160620, Note_on_c, 4, 67, 90
6, 160667, Note_on_c, 4, 67, 0
6, 160680, Note_on_c, 4, 64, 90
6, 160775, Note_on_c, 4, 64, 0
6, 160800, Note_on_c, 4, 69, 90
6, 160895, Note_on_c, 4, 69, 0
6, 160920, Note_on_c, 4, 62, 90
6, 161015, Note_on_c, 4, 62, 0
6, 161040, Note_on_c, 4, 60, 90
6, 161087, Note_on_c, 4, 60, 0
6, 161100, Note_on_c, 4, 59, 90
6, 161147, Note_on_c, 4, 59, 0
6, 161160, Note_on_c, 4, 57, 90
6, 161255, Note_on_c, 4, 57, 0
6, 161280, Note_on_c, 4, 62, 90
6, 161375, Note_on_c, 4, 62, 0
6, 161400, Note_on_c, 4, 59, 90
6, 161591, Note_on_c, 4, 59, 0
6, 162240, Note_on_c, 4, 62, 90
6, 162335, Note_on_c, 4, 62, 0
6, 162360, Note_on_c, 4, 57, 90
6, 162551, Note_on_c, 4, 57, 0
6, 163200, Note_on_c, 4, 62, 90
6, 163295, Note_on_c, 4, 62, 0
6, 163320, Note_on_c, 4, 62, 90
6, 163511, Note_on_c, 4, 62, 0
6, 164160, Note_on_c, 4, 62, 90
6, 164255, Note_on_c, 4, 62, 0
6, 164280, Note_on_c, 4, 64, 90
6, 164471, Note_on_c, 4, 64, 0
6, 164520, Note_on_c, 4, 57, 90
6, 164567, Note_on_c, 4, 57, 0
6, 164580, Note_on_c, 4, 61, 90
6, 164627, Note_on_c, 4, 61, 0
6, 164640, Note_on_c, 4, 66, 90
6, 164687, Note_on_c, 4, 66, 0
6, 164700, Note_on_c, 4, 69, 90
6, 164747, Note_on_c, 4, 69, 0
6, 164760, Note_on_c, 4, 57, 90
6, 164807, Note_on_c, 4, 57, 0
6, 164820, Note_on_c, 4, 62, 90
6, 164867, Note_on_c, 4, 62, 0
6, 164880, Note_on_c, 4, 67, 90
6, 164927, Note_on_c, 4, 67, 0
6, 164940, Note_on_c, 4, 71, 90
6, 164987, Note_on_c, 4, 71, 0
6, 165000, Note_on_c, 4, 61, 90
6, 165047, Note_on_c, 4, 61, 0
6, 165060, Note_on_c, 4, 69, 90
6, 165107, Note_on_c, 4, 69, 0
6, 165120, Note_on_c, 4, 64, 90
6, 165167, Note_on_c, 4, 64, 0
6, 165180, Note_on_c, 4, 67, 90
6, 165227, Note_on_c, 4, 67, 0
6, 165240, Note_on_c, 4, 67, 90
6, 165287, Note_on_c, 4, 67, 0
6, 165300, Note_on_c, 4, 66, 90
6, 165347, Note_on_c, 4, 66, 0
6, 165360, Note_on_c, 4, 64, 90
6, 165407, Note_on_c, 4, 64, 0
6, 165420, Note_on_c, 4, 62, 90
6, 165467, Note_on_c, 4, 62, 0
6, 165480, Note_on_c, 4, 62, 90
6, 165527, Note_on_c, 4, 62, 0
6, 165540, Note_on_c, 4, 67, 90
6, 165587, Note_on_c, 4, 67, 0
6, 165600, Note_on_c, 4, 71, 90
6, 165647, Note_on_c, 4, 71, 0
6, 165660, Note_on_c, 4, 74, 90
6, 165707, Note_on_c, 4, 74, 0
6, 165720, Note_on_c, 4, 60, 90
6, 165767, Note_on_c, 4, 60, 0
6, 165780, Note_on_c, 4, 64, 90
6, 165827, Note_on_c, 4, 64, 0
6, 165840, Note_on_c, 4, 67, 90
6, 165887, Note_on_c, 4, 67, 0
6, 165900, Note_on_c, 4, 72, 90
6, 165947, Note_on_c, 4, 72, 0
6, 165960, Note_on_c, 4, 59, 90
6, 166007, Note_on_c, 4, 59, 0
6, 166020, Note_on_c, 4, 62, 90
6, 166067, Note_on_c, 4, 62, 0
6, 166080, Note_on_c, 4, 56, 90
6, 166127, Note_on_c, 4, 56, 0
6, 166140, Note_on_c, 4, 59, 90
6, 166187, Note_on_c, 4, 59, 0
6, 166200, Note_on_c, 4, 57, 90
6, 166247, Note_on_c, 4, 57, 0
6, 166260, Note_on_c, 4, 60, 90
6, 166307, Note_on_c, 4, 60, 0
6, 166320, Note_on_c, 4, 64, 90
6, 166367, Note_on_c, 4, 64, 0
6, 166380, Note_on_c, 4, 69, 90
6, 166427, Note_on_c, 4, 69, 0
6, 167040, Note_on_c, 4, 69, 90
6, 167135, Note_on_c, 4, 69, 0
6, 167160, Note_on_c, 4, 69, 90
6, 167351, Note_on_c, 4, 69, 0
6, 168000, Note_on_c, 4, 65, 90
6, 168095, Note_on_c, 4, 65, 0
6, 168120, Note_on_c, 4, 67, 90
6, 168311, Note_on_c, 4, 67, 0
6, 168960, Note_on_c, 4, 66, 90
6, 169055, Note_on_c, 4, 66, 0
6, 169080, Note_on_c, 4, 62, 90
6, 169271, Note_on_c, 4, 62, 0
6, 169320, Note_on_c, 4, 62, 90
6, 169415, Note_on_c, 4, 62, 0
6, 169440, Note_on_c, 4, 64, 90
6, 169535, Note_on_c, 4, 64, 0
6, 169560, Note_on_c, 4, 67, 90
6, 169655, Note_on_c, 4, 67, 0
6, 169680, Note_on_c, 4, 60, 90
6, 169775, Note_on_c, 4, 60, 0
6, 169800, Note_on_c, 4, 60, 90
6, 169895, Note_on_c, 4, 60, 0
6, 169920, Note_on_c, 4, 62, 90
6, 170015, Note_on_c, 4, 62, 0
6, 170040, Note_on_c, 4, 62, 90
6, 170231, Note_on_c, 4, 62, 0
6, 170280, Note_on_c, 4, 62, 90
6, 170375, Note_on_c, 4, 62, 0
6, 170400, Note_on_c, 4, 62, 90
6, 170495, Note_on_c, 4, 62, 0
6, 170520, Note_on_c, 4, 59, 90
6, 170615, Note_on_c, 4, 59, 0
6, 170640, Note_on_c, 4, 64, 90
6, 170735, Note_on_c, 4, 64, 0
6, 170760, Note_on_c, 4, 62, 90
6, 170855, Note_on_c, 4, 62, 0
6, 170880, Note_on_c, 4, 57, 90
6, 170975, Note_on_c, 4, 57, 0
6, 171000, Note_on_c, 4, 55, 90
6, 171191, Note_on_c, 4, 55, 0
6, 171240, Note_on_c, 4, 62, 90
6, 171335, Note_on_c, 4, 62, 0
6, 171360, Note_on_c, 4, 67, 90
6, 171455, Note_on_c, 4, 67, 0
6, 171480, Note_on_c, 4, 64, 90
6, 171575, Note_on_c, 4, 64, 0
6, 171600, Note_on_c, 4, 66, 90
6, 171695, Note_on_c, 4, 66, 0
6, 171720, Note_on_c, 4, 67, 90
6, 171815, Note_on_c, 4, 67, 0
6, 171840, Note_on_c, 4, 69, 90
6, 171935, Note_on_c, 4, 69, 0
6, 171960, Note_on_c, 4, 69, 90
6, 172151, Note_on_c, 4, 69, 0
6, 172200, Note_on_c, 4, 69, 90
6, 172295, Note_on_c, 4, 69, 0
6, 172320, Note_on_c, 4, 67, 90
6, 172415, Note_on_c, 4, 67, 0
6, 172440, Note_on_c, 4, 66, 90
6, 172535, Note_on_c, 4, 66, 0
6, 172560, Note_on_c, 4, 71, 90
6, 172655, Note_on_c, 4, 71, 0
6, 172680, Note_on_c, 4, 69, 90
6, 172775, Note_on_c, 4, 69, 0
6, 172800, Note_on_c, 4, 64, 90
6, 172895, Note_on_c, 4, 64, 0
6, 172920, Note_on_c, 4, 66, 90
6, 173111, Note_on_c, 4, 66, 0
6, 173160, Note_on_c, 4, 62, 90
6, 173255, Note_on_c, 4, 62, 0
6, 173280, Note_on_c, 4, 67, 90
6, 173375, Note_on_c, 4, 67, 0
6, 173400, Note_on_c, 4, 67, 90
6, 173495, Note_on_c, 4, 67, 0
6, 173520, Note_on_c, 4, 64, 90
6, 173615, Note_on_c, 4, 64, 0
6, 173640, Note_on_c, 4, 64, 90
6, 173735, Note_on_c, 4, 64, 0
6, 173760, Note_on_c, 4, 64, 90
6, 173855, Note_on_c, 4, 64, 0
6, 173880, Note_on_c, 4, 64, 90
6, 174071, Note_on_c, 4, 64, 0
6, 174120, Note_on_c, 4, 62, 90
6, 174215, Note_on_c, 4, 62, 0
6, 174240, Note_on_c, 4, 62, 90
6, 174335, Note_on_c, 4, 62, 0
6, 174360, Note_on_c, 4, 59, 90
6, 174455, Note_on_c, 4, 59, 0
6, 174480, Note_on_c, 4, 59, 90
6, 174575, Note_on_c, 4, 59, 0
6, 174600, Note_on_c, 4, 57, 90
6, 174695, Note_on_c, 4, 57, 0
6, 174720, Note_on_c, 4, 57, 90
6, 174815, Note_on_c, 4, 57, 0
6, 174840, Note_on_c, 4, 57, 90
6, 175031, Note_on_c, 4, 57, 0
6, 175080, Note_on_c, 4, 62, 90
6, 175175, Note_on_c, 4, 62, 0
6, 175200, Note_on_c, 4, 62, 90
6, 175295, Note_on_c, 4, 62, 0
6, 175320, Note_on_c, 4, 62, 90
6, 175463, Note_on_c, 4, 62, 0
6, 175500, Note_on_c, 4, 62, 90
6, 175547, Note_on_c, 4, 62, 0
6, 175560, Note_on_c, 4, 64, 90
6, 175655, Note_on_c, 4, 64, 0
6, 175680, Note_on_c, 4, 65, 90
6, 175775, Note_on_c, 4, 65, 0
6, 175800, Note_on_c, 4, 67, 90
6, 175943, Note_on_c, 4, 67, 0
6, 175980, Note_on_c, 4, 67, 90
6, 176027, Note_on_c, 4, 67, 0
6, 176040, Note_on_c, 4, 64, 90
6, 176135, Note_on_c, 4, 64, 0
6, 176160, Note_on_c, 4, 69, 90
6, 176255, Note_on_c, 4, 69, 0
6, 176280, Note_on_c, 4, 62, 90
6, 176375, Note_on_c, 4, 62, 0
6, 176400, Note_on_c, 4, 60, 90
6, 176447, Note_on_c, 4, 60, 0
6, 176460, Note_on_c, 4, 59, 90
6, 176507, Note_on_c, 4, 59, 0
6, 176520, Note_on_c, 4, 57, 90
6, 176615, Note_on_c, 4, 57, 0
6, 176640, Note_on_c, 4, 62, 90
6, 176735, Note_on_c, 4, 62, 0
6, 176760, Note_on_c, 4, 59, 90
6, 176951, Note_on_c, 4, 59, 0
6, 176951, End_track
7, 0, Start_track
7, 0, MIDI_port, 0
7, 0, Title_t, "soprano"
7, 0, Program_c, 5, 56
7, 2160, Note_on_c, 5, 74, 100
7, 2310, Note_on_c, 5, 74, 0
7, 2310, Note_on_c, 5, 72, 100
7, 2325, Note_on_c, 5, 72, 0
7, 2325, Note_on_c, 5, 71, 100
7, 2340, Note_on_c, 5, 71, 0
7, 2340, Note_on_c, 5, 69, 100
7, 2350, Note_on_c, 5, 69, 0
7, 2350, Note_on_c, 5, 71, 100
7, 2360, Note_on_c, 5, 71, 0
7, 2360, Note_on_c, 5, 69, 100
7, 2370, Note_on_c, 5, 69, 0
7, 2370, Note_on_c, 5, 67, 100
7, 2400, Note_on_c, 5, 67, 0
7, 2400, Note_on_c, 5, 67, 100
7, 2520, Note_on_c, 5, 67, 0
7, 2580, Note_on_c, 5, 67, 100
7, 2640, Note_on_c, 5, 67, 0
7, 2640, Note_on_c, 5, 75, 100
7, 2790, Note_on_c, 5, 75, 0
7, 2790, Note_on_c, 5, 74, 100
7, 2820, Note_on_c, 5, 74, 0
7, 2820, Note_on_c, 5, 73, 100
7, 2850, Note_on_c, 5, 73, 0
7, 2850, Note_on_c, 5, 74, 100
7, 2880, Note_on_c, 5, 74, 0
7, 2880, Note_on_c, 5, 73, 100
7, 2940, Note_on_c, 5, 73, 0
7, 2940, Note_on_c, 5, 71, 100
7, 2970, Note_on_c, 5, 71, 0
7, 2970, Note_on_c, 5, 69, 100
7, 3000, Note_on_c, 5, 69, 0
7, 3060, Note_on_c, 5, 69, 100
7, 3120, Note_on_c, 5, 69, 0
7, 3120, Note_on_c, 5, 77, 100
7, 3150, Note_on_c, 5, 77, 0
7, 3150, Note_on_c, 5, 79, 100
7, 3165, Note_on_c, 5, 79, 0
7, 3165, Note_on_c, 5, 77, 100
7, 3180, Note_on_c, 5, 77, 0
7, 3180, Note_on_c, 5, 76, 100
7, 3210, Note_on_c, 5, 76, 0
7, 3210, Note_on_c, 5, 77, 100
7, 3225, Note_on_c, 5, 77, 0
7, 3225, Note_on_c, 5, 74, 100
7, 3240, Note_on_c, 5, 74, 0
7, 3240, Note_on_c, 5, 76, 100
7, 3390, Note_on_c, 5, 76, 0
7, 3390, Note_on_c, 5, 77, 100
7, 3405, Note_on_c, 5, 77, 0
7, 3405, Note_on_c, 5, 76, 100
7, 3420, Note_on_c, 5, 76, 0
7, 3420, Note_on_c, 5, 74, 100
7, 3450, Note_on_c, 5, 74, 0
7, 3450, Note_on_c, 5, 76, 100
7, 3465, Note_on_c, 5, 76, 0
7, 3465, Note_on_c, 5, 73, 100
7, 3480, Note_on_c, 5, 73, 0
7, 3480, Note_on_c, 5, 74, 100
7, 3540, Note_on_c, 5, 74, 0
7, 3540, Note_on_c, 5, 70, 100
7, 3600, Note_on_c, 5, 70, 0
7, 3600, Note_on_c, 5, 67, 100
7, 3750, Note_on_c, 5, 67, 0
7, 3750, Note_on_c, 5, 70, 100
7, 3780, Note_on_c, 5, 70, 0
7, 3780, Note_on_c, 5, 69, 100
7, 3810, Note_on_c, 5, 69, 0
7, 3810, Note_on_c, 5, 67, 100
7, 3840, Note_on_c, 5, 67, 0
7, 3840, Note_on_c, 5, 77, 100
7, 3870, Note_on_c, 5, 77, 0
7, 3870, Note_on_c, 5, 76, 100
7, 3900, Note_on_c, 5, 76, 0
7, 3900, Note_on_c, 5, 73, 100
7, 3930, Note_on_c, 5, 73, 0
7, 3930, Note_on_c, 5, 74, 100
7, 3960, Note_on_c, 5, 74, 0
7, 3960, Note_on_c, 5, 65, 100
7, 4020, Note_on_c, 5, 65, 0
7, 4020, Note_on_c, 5, 64, 100
7, 4050, Note_on_c, 5, 64, 0
7, 4050, Note_on_c, 5, 62, 100
7, 4080, Note_on_c, 5, 62, 0
7, 4080, Note_on_c, 5, 62, 100
7, 4560, Note_on_c, 5, 62, 0
7, 4680, Note_on_c, 5, 74, 100
7, 4710, Note_on_c, 5, 74, 0
7, 4710, Note_on_c, 5, 72, 100
7, 4725, Note_on_c, 5, 72, 0
7, 4725, Note_on_c, 5, 71, 100
7, 4740, Note_on_c, 5, 71, 0
7, 4740, Note_on_c, 5, 69, 100
7, 4770, Note_on_c, 5, 69, 0
7, 4770, Note_on_c, 5, 67, 100
7, 4800, Note_on_c, 5, 67, 0
7, 4800, Note_on_c, 5, 67, 100
7, 4920, Note_on_c, 5, 67, 0
7, 4980, Note_on_c, 5, 67, 100
7, 5010, Note_on_c, 5, 67, 0
7, 5010, Note_on_c, 5, 70, 100
7, 5025, Note_on_c, 5, 70, 0
7, 5025, Note_on_c, 5, 69, 100
7, 5040, Note_on_c, 5, 69, 0
7, 5040, Note_on_c, 5, 70, 100
7, 5100, Note_on_c, 5, 70, 0
7, 5100, Note_on_c, 5, 69, 100
7, 5190, Note_on_c, 5, 69, 0
7, 5190, Note_on_c, 5, 70, 100
7, 5205, Note_on_c, 5, 70, 0
7, 5205, Note_on_c, 5, 72, 100
7, 5220, Note_on_c, 5, 72, 0
7, 5220, Note_on_c, 5, 69, 100
7, 5250, Note_on_c, 5, 69, 0
7, 5250, Note_on_c, 5, 67, 100
7, 5280, Note_on_c, 5, 67, 0
7, 5280, Note_on_c, 5, 66, 100
7, 5340, Note_on_c, 5, 66, 0
7, 5340, Note_on_c, 5, 62, 100
7, 5400, Note_on_c, 5, 62, 0
7, 5520, Note_on_c, 5, 75, 100
7, 5640, Note_on_c, 5, 75, 0
7, 5700, Note_on_c, 5, 69, 100
7, 5760, Note_on_c, 5, 69, 0
7, 5760, Note_on_c, 5, 74, 100
7, 5775, Note_on_c, 5, 74, 0
7, 5775, Note_on_c, 5, 75, 100
7, 5790, Note_on_c, 5, 75, 0
7, 5790, Note_on_c, 5, 74, 100
7, 5805, Note_on_c, 5, 74, 0
7, 5805, Note_on_c, 5, 72, 100
7, 5820, Note_on_c, 5, 72, 0
7, 5820, Note_on_c, 5, 70, 100
7, 5835, Note_on_c, 5, 70, 0
7, 5835, Note_on_c, 5, 69, 100
7, 5850, Note_on_c, 5, 69, 0
7, 5850, Note_on_c, 5, 70, 100
7, 5865, Note_on_c, 5, 70, 0
7, 5865, Note_on_c, 5, 67, 100
7, 5880, Note_on_c, 5, 67, 0
7, 5880, Note_on_c, 5, 62, 100
7, 5970, Note_on_c, 5, 62, 0
7, 5970, Note_on_c, 5, 66, 100
7, 6000, Note_on_c, 5, 66, 0
7, 6000, Note_on_c, 5, 67, 100
7, 6480, Note_on_c, 5, 67, 0
7, 6720, Note_on_c, 5, 77, 100
7, 6870, Note_on_c, 5, 77, 0
7, 6870, Note_on_c, 5, 79, 100
7, 6885, Note_on_c, 5, 79, 0
7, 6885, Note_on_c, 5, 77, 100
7, 6900, Note_on_c, 5, 77, 0
7, 6900, Note_on_c, 5, 76, 100
7, 6930, Note_on_c, 5, 76, 0
7, 6930, Note_on_c, 5, 77, 100
7, 6945, Note_on_c, 5, 77, 0
7, 6945, Note_on_c, 5, 74, 100
7, 6960, Note_on_c, 5, 74, 0
7, 6960, Note_on_c, 5, 76, 100
7, 6990, Note_on_c, 5, 76, 0
7, 6990, Note_on_c, 5, 78, 100
7, 7020, Note_on_c, 5, 78, 0
7, 7020, Note_on_c, 5, 78, 100
7, 7050, Note_on_c, 5, 78, 0
7, 7050, Note_on_c, 5, 79, 100
7, 7080, Note_on_c, 5, 79, 0
7, 7080, Note_on_c, 5, 71, 100
7, 7140, Note_on_c, 5, 71, 0
7, 7140, Note_on_c, 5, 69, 100
7, 7170, Note_on_c, 5, 69, 0
7, 7170, Note_on_c, 5, 67, 100
7, 7200, Note_on_c, 5, 67, 0
7, 7200, Note_on_c, 5, 67, 100
7, 7680, Note_on_c, 5, 67, 0
7, 8760, Note_on_c, 5, 74, 100
7, 8820, Note_on_c, 5, 74, 0
7, 8820, Note_on_c, 5, 76, 100
7, 8850, Note_on_c, 5, 76, 0
7, 8850, Note_on_c, 5, 79, 100
7, 8865, Note_on_c, 5, 79, 0
7, 8865, Note_on_c, 5, 78, 100
7, 8880, Note_on_c, 5, 78, 0
7, 8880, Note_on_c, 5, 78, 100
7, 8940, Note_on_c, 5, 78, 0
7, 9000, Note_on_c, 5, 76, 100
7, 9060, Note_on_c, 5, 76, 0
7, 9060, Note_on_c, 5, 78, 100
7, 9090, Note_on_c, 5, 78, 0
7, 9090, Note_on_c, 5, 74, 100
7, 9120, Note_on_c, 5, 74, 0
7, 9120, Note_on_c, 5, 73, 100
7, 9180, Note_on_c, 5, 73, 0
7, 9240, Note_on_c, 5, 76, 100
7, 9270, Note_on_c, 5, 76, 0
7, 9270, Note_on_c, 5, 78, 100
7, 9285, Note_on_c, 5, 78, 0
7, 9285, Note_on_c, 5, 79, 100
7, 9300, Note_on_c, 5, 79, 0
7, 9300, Note_on_c, 5, 78, 100
7, 9330, Note_on_c, 5, 78, 0
7, 9330, Note_on_c, 5, 74, 100
7, 9360, Note_on_c, 5, 74, 0
7, 9360, Note_on_c, 5, 76, 100
7, 9390, Note_on_c, 5, 76, 0
7, 9390, Note_on_c, 5, 73, 100
7, 9420, Note_on_c, 5, 73, 0
7, 9420, Note_on_c, 5, 74, 100
7, 9480, Note_on_c, 5, 74, 0
7, 9480, Note_on_c, 5, 76, 100
7, 9510, Note_on_c, 5, 76, 0
7, 9510, Note_on_c, 5, 78, 100
7, 9525, Note_on_c, 5, 78, 0
7, 9525, Note_on_c, 5, 79, 100
7, 9540, Note_on_c, 5, 79, 0
7, 9540, Note_on_c, 5, 78, 100
7, 9570, Note_on_c, 5, 78, 0
7, 9570, Note_on_c, 5, 74, 100
7, 9600, Note_on_c, 5, 74, 0
7, 9600, Note_on_c, 5, 76, 100
7, 9660, Note_on_c, 5, 76, 0
7, 9660, Note_on_c, 5, 69, 100
7, 9720, Note_on_c, 5, 69, 0
7, 9720, Note_on_c, 5, 78, 100
7, 9750, Note_on_c, 5, 78, 0
7, 9750, Note_on_c, 5, 79, 100
7, 9765, Note_on_c, 5, 79, 0
7, 9765, Note_on_c, 5, 81, 100
7, 9780, Note_on_c, 5, 81, 0
7, 9780, Note_on_c, 5, 79, 100
7, 9810, Note_on_c, 5, 79, 0
7, 9810, Note_on_c, 5, 76, 100
7, 9840, Note_on_c, 5, 76, 0
7, 9840, Note_on_c, 5, 78, 100
7, 9870, Note_on_c, 5, 78, 0
7, 9870, Note_on_c, 5, 75, 100
7, 9900, Note_on_c, 5, 75, 0
7, 9900, Note_on_c, 5, 76, 100
7, 9960, Note_on_c, 5, 76, 0
7, 9960, Note_on_c, 5, 78, 100
7, 9990, Note_on_c, 5, 78, 0
7, 9990, Note_on_c, 5, 79, 100
7, 10005, Note_on_c, 5, 79, 0
7, 10005, Note_on_c, 5, 81, 100
7, 10020, Note_on_c, 5, 81, 0
7, 10020, Note_on_c, 5, 79, 100
7, 10050, Note_on_c, 5, 79, 0
7, 10050, Note_on_c, 5, 76, 100
7, 10080, Note_on_c, 5, 76, 0
7, 10080, Note_on_c, 5, 78, 100
7, 10140, Note_on_c, 5, 78, 0
7, 10140, Note_on_c, 5, 71, 100
7, 10200, Note_on_c, 5, 71, 0
7, 10260, Note_on_c, 5, 79, 100
7, 10290, Note_on_c, 5, 79, 0
7, 10290, Note_on_c, 5, 78, 100
7, 10320, Note_on_c, 5, 78, 0
7, 10320, Note_on_c, 5, 76, 100
7, 10410, Note_on_c, 5, 76, 0
7, 10410, Note_on_c, 5, 78, 100
7, 10440, Note_on_c, 5, 78, 0
7, 10440, Note_on_c, 5, 75, 100
7, 10530, Note_on_c, 5, 75, 0
7, 10530, Note_on_c, 5, 76, 100
7, 10560, Note_on_c, 5, 76, 0
7, 10560, Note_on_c, 5, 76, 100
7, 10680, Note_on_c, 5, 76, 0
7, 12120, Note_on_c, 5, 74, 100
7, 12180, Note_on_c, 5, 74, 0
7, 12180, Note_on_c, 5, 77, 100
7, 12210, Note_on_c, 5, 77, 0
7, 12210, Note_on_c, 5, 76, 100
7, 12240, Note_on_c, 5, 76, 0
7, 12240, Note_on_c, 5, 76, 100
7, 12300, Note_on_c, 5, 76, 0
7, 12360, Note_on_c, 5, 74, 100
7, 12420, Note_on_c, 5, 74, 0
7, 12420, Note_on_c, 5, 76, 100
7, 12450, Note_on_c, 5, 76, 0
7, 12450, Note_on_c, 5, 72, 100
7, 12480, Note_on_c, 5, 72, 0
7, 12480, Note_on_c, 5, 71, 100
7, 12540, Note_on_c, 5, 71, 0
7, 12600, Note_on_c, 5, 74, 100
7, 12630, Note_on_c, 5, 74, 0
7, 12630, Note_on_c, 5, 76, 100
7, 12645, Note_on_c, 5, 76, 0
7, 12645, Note_on_c, 5, 77, 100
7, 12660, Note_on_c, 5, 77, 0
7, 12660, Note_on_c, 5, 76, 100
7, 12690, Note_on_c, 5, 76, 0
7, 12690, Note_on_c, 5, 72, 100
7, 12720, Note_on_c, 5, 72, 0
7, 12720, Note_on_c, 5, 74, 100
7, 12750, Note_on_c, 5, 74, 0
7, 12750, Note_on_c, 5, 71, 100
7, 12780, Note_on_c, 5, 71, 0
7, 12780, Note_on_c, 5, 72, 100
7, 12840, Note_on_c, 5, 72, 0
7, 12840, Note_on_c, 5, 74, 100
7, 12870, Note_on_c, 5, 74, 0
7, 12870, Note_on_c, 5, 76, 100
7, 12885, Note_on_c, 5, 76, 0
7, 12885, Note_on_c, 5, 77, 100
7, 12900, Note_on_c, 5, 77, 0
7, 12900, Note_on_c, 5, 76, 100
7, 12930, Note_on_c, 5, 76, 0
7, 12930, Note_on_c, 5, 72, 100
7, 12960, Note_on_c, 5, 72, 0
7, 12960, Note_on_c, 5, 74, 100
7, 13020, Note_on_c, 5, 74, 0
7, 13020, Note_on_c, 5, 67, 100
7, 13080, Note_on_c, 5, 67, 0
7, 13080, Note_on_c, 5, 76, 100
7, 13110, Note_on_c, 5, 76, 0
7, 13110, Note_on_c, 5, 78, 100
7, 13125, Note_on_c, 5, 78, 0
7, 13125, Note_on_c, 5, 79, 100
7, 13140, Note_on_c, 5, 79, 0
7, 13140, Note_on_c, 5, 78, 100
7, 13170, Note_on_c, 5, 78, 0
7, 13170, Note_on_c, 5, 74, 100
7, 13200, Note_on_c, 5, 74, 0
7, 13200, Note_on_c, 5, 76, 100
7, 13230, Note_on_c, 5, 76, 0
7, 13230, Note_on_c, 5, 73, 100
7, 13260, Note_on_c, 5, 73, 0
7, 13260, Note_on_c, 5, 74, 100
7, 13320, Note_on_c, 5, 74, 0
7, 13320, Note_on_c, 5, 76, 100
7, 13350, Note_on_c, 5, 76, 0
7, 13350, Note_on_c, 5, 78, 100
7, 13365, Note_on_c, 5, 78, 0
7, 13365, Note_on_c, 5, 79, 100
7, 13380, Note_on_c, 5, 79, 0
7, 13380, Note_on_c, 5, 78, 100
7, 13410, Note_on_c, 5, 78, 0
7, 13410, Note_on_c, 5, 74, 100
7, 13440, Note_on_c, 5, 74, 0
7, 13440, Note_on_c, 5, 76, 100
7, 13500, Note_on_c, 5, 76, 0
7, 13500, Note_on_c, 5, 69, 100
7, 13560, Note_on_c, 5, 69, 0
7, 13620, Note_on_c, 5, 78, 100
7, 13650, Note_on_c, 5, 78, 0
7, 13650, Note_on_c, 5, 76, 100
7, 13680, Note_on_c, 5, 76, 0
7, 13680, Note_on_c, 5, 74, 100
7, 13830, Note_on_c, 5, 74, 0
7, 13830, Note_on_c, 5, 71, 100
7, 13860, Note_on_c, 5, 71, 0
7, 13860, Note_on_c, 5, 76, 100
7, 13890, Note_on_c, 5, 76, 0
7, 13890, Note_on_c, 5, 74, 100
7, 13920, Note_on_c, 5, 74, 0
7, 13920, Note_on_c, 5, 73, 100
7, 14070, Note_on_c, 5, 73, 0
7, 14070, Note_on_c, 5, 69, 100
7, 14100, Note_on_c, 5, 69, 0
7, 14100, Note_on_c, 5, 74, 100
7, 14130, Note_on_c, 5, 74, 0
7, 14130, Note_on_c, 5, 73, 100
7, 14160, Note_on_c, 5, 73, 0
7, 14160, Note_on_c, 5, 71, 100
7, 14310, Note_on_c, 5, 71, 0
7, 14310, Note_on_c, 5, 76, 100
7, 14340, Note_on_c, 5, 76, 0
7, 14340, Note_on_c, 5, 79, 100
7, 14370, Note_on_c, 5, 79, 0
7, 14370, Note_on_c, 5, 78, 100
7, 14400, Note_on_c, 5, 78, 0
7, 14400, Note_on_c, 5, 76, 100
7, 14430, Note_on_c, 5, 76, 0
7, 14430, Note_on_c, 5, 74, 100
7, 14445, Note_on_c, 5, 74, 0
7, 14445, Note_on_c, 5, 73, 100
7, 14460, Note_on_c, 5, 73, 0
7, 14460, Note_on_c, 5, 74, 100
7, 14490, Note_on_c, 5, 74, 0
7, 14490, Note_on_c, 5, 76, 100
7, 14520, Note_on_c, 5, 76, 0
7, 14520, Note_on_c, 5, 70, 100
7, 14610, Note_on_c, 5, 70, 0
7, 14610, Note_on_c, 5, 71, 100
7, 14640, Note_on_c, 5, 71, 0
7, 14640, Note_on_c, 5, 71, 100
7, 14760, Note_on_c, 5, 71, 0
7, 14820, Note_on_c, 5, 71, 100
7, 14850, Note_on_c, 5, 71, 0
7, 14850, Note_on_c, 5, 69, 100
7, 14880, Note_on_c, 5, 69, 0
7, 14880, Note_on_c, 5, 67, 100
7, 15030, Note_on_c, 5, 67, 0
7, 15030, Note_on_c, 5, 64, 100
7, 15060, Note_on_c, 5, 64, 0
7, 15060, Note_on_c, 5, 69, 100
7, 15090, Note_on_c, 5, 69, 0
7, 15090, Note_on_c, 5, 67, 100
7, 15120, Note_on_c, 5, 67, 0
7, 15120, Note_on_c, 5, 66, 100
7, 15270, Note_on_c, 5, 66, 0
7, 15270, Note_on_c, 5, 69, 100
7, 15300, Note_on_c, 5, 69, 0
7, 15300, Note_on_c, 5, 74, 100
7, 15330, Note_on_c, 5, 74, 0
7, 15330, Note_on_c, 5, 72, 100
7, 15360, Note_on_c, 5, 72, 0
7, 15360, Note_on_c, 5, 71, 100
7, 15510, Note_on_c, 5, 71, 0
7, 15510, Note_on_c, 5, 71, 100
7, 15540, Note_on_c, 5, 71, 0
7, 15540, Note_on_c, 5, 76, 100
7, 15570, Note_on_c, 5, 76, 0
7, 15570, Note_on_c, 5, 74, 100
7, 15600, Note_on_c, 5, 74, 0
7, 15600, Note_on_c, 5, 73, 100
7, 15750, Note_on_c, 5, 73, 0
7, 15750, Note_on_c, 5, 73, 100
7, 15780, Note_on_c, 5, 73, 0
7, 15780, Note_on_c, 5, 78, 100
7, 15810, Note_on_c, 5, 78, 0
7, 15810, Note_on_c, 5, 76, 100
7, 15840, Note_on_c, 5, 76, 0
7, 15840, Note_on_c, 5, 74, 100
7, 15930, Note_on_c, 5, 74, 0
7, 15930, Note_on_c, 5, 76, 100
7, 15960, Note_on_c, 5, 76, 0
7, 15960, Note_on_c, 5, 73, 100
7, 16050, Note_on_c, 5, 73, 0
7, 16050, Note_on_c, 5, 74, 100
7, 16080, Note_on_c, 5, 74, 0
7, 16080, Note_on_c, 5, 74, 100
7, 16200, Note_on_c, 5, 74, 0
7, 18480, Note_on_c, 5, 74, 100
7, 18630, Note_on_c, 5, 74, 0
7, 18630, Note_on_c, 5, 72, 100
7, 18645, Note_on_c, 5, 72, 0
7, 18645, Note_on_c, 5, 71, 100
7, 18660, Note_on_c, 5, 71, 0
7, 18660, Note_on_c, 5, 69, 100
7, 18670, Note_on_c, 5, 69, 0
7, 18670, Note_on_c, 5, 71, 100
7, 18680, Note_on_c, 5, 71, 0
7, 18680, Note_on_c, 5, 69, 100
7, 18690, Note_on_c, 5, 69, 0
7, 18690, Note_on_c, 5, 67, 100
7, 18720, Note_on_c, 5, 67, 0
7, 18720, Note_on_c, 5, 67, 100
7, 18840, Note_on_c, 5, 67, 0
7, 18900, Note_on_c, 5, 67, 100
7, 18960, Note_on_c, 5, 67, 0
7, 18960, Note_on_c, 5, 75, 100
7, 19110, Note_on_c, 5, 75, 0
7, 19110, Note_on_c, 5, 74, 100
7, 19140, Note_on_c, 5, 74, 0
7, 19140, Note_on_c, 5, 73, 100
7, 19170, Note_on_c, 5, 73, 0
7, 19170, Note_on_c, 5, 74, 100
7, 19200, Note_on_c, 5, 74, 0
7, 19200, Note_on_c, 5, 73, 100
7, 19260, Note_on_c, 5, 73, 0
7, 19260, Note_on_c, 5, 71, 100
7, 19290, Note_on_c, 5, 71, 0
7, 19290, Note_on_c, 5, 69, 100
7, 19320, Note_on_c, 5, 69, 0
7, 19380, Note_on_c, 5, 69, 100
7, 19440, Note_on_c, 5, 69, 0
7, 19440, Note_on_c, 5, 77, 100
7, 19470, Note_on_c, 5, 77, 0
7, 19470, Note_on_c, 5, 79, 100
7, 19485, Note_on_c, 5, 79, 0
7, 19485, Note_on_c, 5, 77, 100
7, 19500, Note_on_c, 5, 77, 0
7, 19500, Note_on_c, 5, 76, 100
7, 19530, Note_on_c, 5, 76, 0
7, 19530, Note_on_c, 5, 77, 100
7, 19545, Note_on_c, 5, 77, 0
7, 19545, Note_on_c, 5, 74, 100
7, 19560, Note_on_c, 5, 74, 0
7, 19560, Note_on_c, 5, 76, 100
7, 19710, Note_on_c, 5, 76, 0
7, 19710, Note_on_c, 5, 77, 100
7, 19725, Note_on_c, 5, 77, 0
7, 19725, Note_on_c, 5, 76, 100
7, 19740, Note_on_c, 5, 76, 0
7, 19740, Note_on_c, 5, 74, 100
7, 19770, Note_on_c, 5, 74, 0
7, 19770, Note_on_c, 5, 76, 100
7, 19785, Note_on_c, 5, 76, 0
7, 19785, Note_on_c, 5, 73, 100
7, 19800, Note_on_c, 5, 73, 0
7, 19800, Note_on_c, 5, 74, 100
7, 19860, Note_on_c, 5, 74, 0
7, 19860, Note_on_c, 5, 70, 100
7, 19920, Note_on_c, 5, 70, 0
7, 19920, Note_on_c, 5, 67, 100
7, 20070, Note_on_c, 5, 67, 0
7, 20070, Note_on_c, 5, 70, 100
7, 20100, Note_on_c, 5, 70, 0
7, 20100, Note_on_c, 5, 69, 100
7, 20130, Note_on_c, 5, 69, 0
7, 20130, Note_on_c, 5, 67, 100
7, 20160, Note_on_c, 5, 67, 0
7, 20160, Note_on_c, 5, 77, 100
7, 20190, Note_on_c, 5, 77, 0
7, 20190, Note_on_c, 5, 76, 100
7, 20220, Note_on_c, 5, 76, 0
7, 20220, Note_on_c, 5, 73, 100
7, 20250, Note_on_c, 5, 73, 0
7, 20250, Note_on_c, 5, 74, 100
7, 20280, Note_on_c, 5, 74, 0
7, 20280, Note_on_c, 5, 65, 100
7, 20340, Note_on_c, 5, 65, 0
7, 20340, Note_on_c, 5, 64, 100
7, 20370, Note_on_c, 5, 64, 0
7, 20370, Note_on_c, 5, 62, 100
7, 20400, Note_on_c, 5, 62, 0
7, 20400, Note_on_c, 5, 62, 100
7, 20880, Note_on_c, 5, 62, 0
7, 21000, Note_on_c, 5, 74, 100
7, 21030, Note_on_c, 5, 74, 0
7, 21030, Note_on_c, 5, 72, 100
7, 21045, Note_on_c, 5, 72, 0
7, 21045, Note_on_c, 5, 71, 100
7, 21060, Note_on_c, 5, 71, 0
7, 21060, Note_on_c, 5, 69, 100
7, 21090, Note_on_c, 5, 69, 0
7, 21090, Note_on_c, 5, 67, 100
7, 21120, Note_on_c, 5, 67, 0
7, 21120, Note_on_c, 5, 67, 100
7, 21240, Note_on_c, 5, 67, 0
7, 21300, Note_on_c, 5, 67, 100
7, 21330, Note_on_c, 5, 67, 0
7, 21330, Note_on_c, 5, 70, 100
7, 21345, Note_on_c, 5, 70, 0
7, 21345, Note_on_c, 5, 69, 100
7, 21360, Note_on_c, 5, 69, 0
7, 21360, Note_on_c, 5, 70, 100
7, 21420, Note_on_c, 5, 70, 0
7, 21420, Note_on_c, 5, 69, 100
7, 21510, Note_on_c, 5, 69, 0
7, 21510, Note_on_c, 5, 70, 100
7, 21525, Note_on_c, 5, 70, 0
7, 21525, Note_on_c, 5, 72, 100
7, 21540, Note_on_c, 5, 72, 0
7, 21540, Note_on_c, 5, 69, 100
7, 21570, Note_on_c, 5, 69, 0
7, 21570, Note_on_c, 5, 67, 100
7, 21600, Note_on_c, 5, 67, 0
7, 21600, Note_on_c, 5, 66, 100
7, 21660, Note_on_c, 5, 66, 0
7, 21660, Note_on_c, 5, 62, 100
7, 21720, Note_on_c, 5, 62, 0
7, 21840, Note_on_c, 5, 75, 100
7, 21960, Note_on_c, 5, 75, 0
7, 22020, Note_on_c, 5, 69, 100
7, 22080, Note_on_c, 5, 69, 0
7, 22080, Note_on_c, 5, 74, 100
7, 22095, Note_on_c, 5, 74, 0
7, 22095, Note_on_c, 5, 75, 100
7, 22110, Note_on_c, 5, 75, 0
7, 22110, Note_on_c, 5, 74, 100
7, 22125, Note_on_c, 5, 74, 0
7, 22125, Note_on_c, 5, 72, 100
7, 22140, Note_on_c, 5, 72, 0
7, 22140, Note_on_c, 5, 70, 100
7, 22155, Note_on_c, 5, 70, 0
7, 22155, Note_on_c, 5, 69, 100
7, 22170, Note_on_c, 5, 69, 0
7, 22170, Note_on_c, 5, 70, 100
7, 22185, Note_on_c, 5, 70, 0
7, 22185, Note_on_c, 5, 67, 100
7, 22200, Note_on_c, 5, 67, 0
7, 22200, Note_on_c, 5, 62, 100
7, 22290, Note_on_c, 5, 62, 0
7, 22290, Note_on_c, 5, 66, 100
7, 22320, Note_on_c, 5, 66, 0
7, 22320, Note_on_c, 5, 67, 100
7, 22800, Note_on_c, 5, 67, 0
7, 23040, Note_on_c, 5, 77, 100
7, 23190, Note_on_c, 5, 77, 0
7, 23190, Note_on_c, 5, 79, 100
7, 23205, Note_on_c, 5, 79, 0
7, 23205, Note_on_c, 5, 77, 100
7, 23220, Note_on_c, 5, 77, 0
7, 23220, Note_on_c, 5, 76, 100
7, 23250, Note_on_c, 5, 76, 0
7, 23250, Note_on_c, 5, 77, 100
7, 23265, Note_on_c, 5, 77, 0
7, 23265, Note_on_c, 5, 74, 100
7, 23280, Note_on_c, 5, 74, 0
7, 23280, Note_on_c, 5, 76, 100
7, 23310, Note_on_c, 5, 76, 0
7, 23310, Note_on_c, 5, 78, 100
7, 23340, Note_on_c, 5, 78, 0
7, 23340, Note_on_c, 5, 78, 100
7, 23370, Note_on_c, 5, 78, 0
7, 23370, Note_on_c, 5, 79, 100
7, 23400, Note_on_c, 5, 79, 0
7, 23400, Note_on_c, 5, 71, 100
7, 23460, Note_on_c, 5, 71, 0
7, 23460, Note_on_c, 5, 69, 100
7, 23490, Note_on_c, 5, 69, 0
7, 23490, Note_on_c, 5, 67, 100
7, 23520, Note_on_c, 5, 67, 0
7, 23520, Note_on_c, 5, 67, 100
7, 24000, Note_on_c, 5, 67, 0
7, 25620, Note_on_c, 5, 67, 100
7, 25680, Note_on_c, 5, 67, 0
7, 25680, Note_on_c, 5, 72, 100
7, 25740, Note_on_c, 5, 72, 0
7, 25740, Note_on_c, 5, 72, 100
7, 25800, Note_on_c, 5, 72, 0
7, 25800, Note_on_c, 5, 72, 100
7, 25860, Note_on_c, 5, 72, 0
7, 25860, Note_on_c, 5, 74, 100
7, 25920, Note_on_c, 5, 74, 0
7, 25920, Note_on_c, 5, 76, 100
7, 26040, Note_on_c, 5, 76, 0
7, 26100, Note_on_c, 5, 72, 100
7, 26160, Note_on_c, 5, 72, 0
7, 26160, Note_on_c, 5, 79, 100
7, 26220, Note_on_c, 5, 79, 0
7, 26220, Note_on_c, 5, 72, 100
7, 26280, Note_on_c, 5, 72, 0
7, 26280, Note_on_c, 5, 70, 100
7, 26310, Note_on_c, 5, 70, 0
7, 26310, Note_on_c, 5, 69, 100
7, 26340, Note_on_c, 5, 69, 0
7, 26340, Note_on_c, 5, 70, 100
7, 26400, Note_on_c, 5, 70, 0
7, 26400, Note_on_c, 5, 69, 100
7, 26460, Note_on_c, 5, 69, 0
7, 26460, Note_on_c, 5, 69, 100
7, 26520, Note_on_c, 5, 69, 0
7, 26550, Note_on_c, 5, 69, 100
7, 26580, Note_on_c, 5, 69, 0
7, 26580, Note_on_c, 5, 74, 100
7, 26610, Note_on_c, 5, 74, 0
7, 26610, Note_on_c, 5, 76, 100
7, 26640, Note_on_c, 5, 76, 0
7, 26640, Note_on_c, 5, 77, 100
7, 26700, Note_on_c, 5, 77, 0
7, 26700, Note_on_c, 5, 76, 100
7, 26730, Note_on_c, 5, 76, 0
7, 26730, Note_on_c, 5, 74, 100
7, 26760, Note_on_c, 5, 74, 0
7, 26760, Note_on_c, 5, 74, 100
7, 26820, Note_on_c, 5, 74, 0
7, 26820, Note_on_c, 5, 72, 100
7, 26850, Note_on_c, 5, 72, 0
7, 26850, Note_on_c, 5, 71, 100
7, 26880, Note_on_c, 5, 71, 0
7, 26880, Note_on_c, 5, 71, 100
7, 26940, Note_on_c, 5, 71, 0
7, 26940, Note_on_c, 5, 71, 100
7, 27000, Note_on_c, 5, 71, 0
7, 27000, Note_on_c, 5, 71, 100
7, 27030, Note_on_c, 5, 71, 0
7, 27030, Note_on_c, 5, 72, 100
7, 27060, Note_on_c, 5, 72, 0
7, 27060, Note_on_c, 5, 71, 100
7, 27090, Note_on_c, 5, 71, 0
7, 27090, Note_on_c, 5, 72, 100
7, 27120, Note_on_c, 5, 72, 0
7, 27120, Note_on_c, 5, 74, 100
7, 27150, Note_on_c, 5, 74, 0
7, 27150, Note_on_c, 5, 71, 100
7, 27180, Note_on_c, 5, 71, 0
7, 27180, Note_on_c, 5, 67, 100
7, 27240, Note_on_c, 5, 67, 0
7, 27300, Note_on_c, 5, 74, 100
7, 27360, Note_on_c, 5, 74, 0
7, 27360, Note_on_c, 5, 76, 100
7, 27480, Note_on_c, 5, 76, 0
7, 27540, Note_on_c, 5, 69, 100
7, 27600, Note_on_c, 5, 69, 0
7, 27600, Note_on_c, 5, 71, 100
7, 27660, Note_on_c, 5, 71, 0
7, 27660, Note_on_c, 5, 72, 100
7, 27690, Note_on_c, 5, 72, 0
7, 27690, Note_on_c, 5, 74, 100
7, 27720, Note_on_c, 5, 74, 0
7, 27720, Note_on_c, 5, 67, 100
7, 27810, Note_on_c, 5, 67, 0
7, 27810, Note_on_c, 5, 71, 100
7, 27840, Note_on_c, 5, 71, 0
7, 27840, Note_on_c, 5, 72, 100
7, 27960, Note_on_c, 5, 72, 0
7, 31320, Note_on_c, 5, 72, 100
7, 31500, Note_on_c, 5, 72, 0
7, 31500, Note_on_c, 5, 74, 100
7, 31680, Note_on_c, 5, 74, 0
7, 31680, Note_on_c, 5, 76, 100
7, 31710, Note_on_c, 5, 76, 0
7, 31710, Note_on_c, 5, 77, 100
7, 31740, Note_on_c, 5, 77, 0
7, 31740, Note_on_c, 5, 76, 100
7, 31770, Note_on_c, 5, 76, 0
7, 31770, Note_on_c, 5, 74, 100
7, 31800, Note_on_c, 5, 74, 0
7, 31800, Note_on_c, 5, 76, 100
7, 31830, Note_on_c, 5, 76, 0
7, 31830, Note_on_c, 5, 72, 100
7, 31860, Note_on_c, 5, 72, 0
7, 31860, Note_on_c, 5, 77, 100
7, 31890, Note_on_c, 5, 77, 0
7, 31890, Note_on_c, 5, 79, 100
7, 31920, Note_on_c, 5, 79, 0
7, 31920, Note_on_c, 5, 77, 100
7, 31950, Note_on_c, 5, 77, 0
7, 31950, Note_on_c, 5, 76, 100
7, 31980, Note_on_c, 5, 76, 0
7, 31980, Note_on_c, 5, 77, 100
7, 32010, Note_on_c, 5, 77, 0
7, 32010, Note_on_c, 5, 74, 100
7, 32040, Note_on_c, 5, 74, 0
7, 32040, Note_on_c, 5, 79, 100
7, 32100, Note_on_c, 5, 79, 0
7, 32100, Note_on_c, 5, 77, 100
7, 32160, Note_on_c, 5, 77, 0
7, 32160, Note_on_c, 5, 76, 100
7, 32220, Note_on_c, 5, 76, 0
7, 32220, Note_on_c, 5, 74, 100
7, 32250, Note_on_c, 5, 74, 0
7, 32250, Note_on_c, 5, 77, 100
7, 32280, Note_on_c, 5, 77, 0
7, 32280, Note_on_c, 5, 76, 100
7, 32310, Note_on_c, 5, 76, 0
7, 32310, Note_on_c, 5, 74, 100
7, 32340, Note_on_c, 5, 74, 0
7, 32340, Note_on_c, 5, 76, 100
7, 32370, Note_on_c, 5, 76, 0
7, 32370, Note_on_c, 5, 72, 100
7, 32400, Note_on_c, 5, 72, 0
7, 32400, Note_on_c, 5, 71, 100
7, 32520, Note_on_c, 5, 71, 0
7, 32520, Note_on_c, 5, 67, 100
7, 32580, Note_on_c, 5, 67, 0
7, 34560, Note_on_c, 5, 76, 100
7, 34740, Note_on_c, 5, 76, 0
7, 34740, Note_on_c, 5, 77, 100
7, 34920, Note_on_c, 5, 77, 0
7, 34920, Note_on_c, 5, 79, 100
7, 34980, Note_on_c, 5, 79, 0
7, 34980, Note_on_c, 5, 77, 100
7, 35040, Note_on_c, 5, 77, 0
7, 35040, Note_on_c, 5, 76, 100
7, 35100, Note_on_c, 5, 76, 0
7, 35100, Note_on_c, 5, 74, 100
7, 35130, Note_on_c, 5, 74, 0
7, 35130, Note_on_c, 5, 77, 100
7, 35160, Note_on_c, 5, 77, 0
7, 35160, Note_on_c, 5, 76, 100
7, 35190, Note_on_c, 5, 76, 0
7, 35190, Note_on_c, 5, 74, 100
7, 35220, Note_on_c, 5, 74, 0
7, 35220, Note_on_c, 5, 76, 100
7, 35250, Note_on_c, 5, 76, 0
7, 35250, Note_on_c, 5, 72, 100
7, 35280, Note_on_c, 5, 72, 0
7, 35280, Note_on_c, 5, 71, 100
7, 35340, Note_on_c, 5, 71, 0
7, 35340, Note_on_c, 5, 69, 100
7, 35400, Note_on_c, 5, 69, 0
7, 35400, Note_on_c, 5, 67, 100
7, 35460, Note_on_c, 5, 67, 0
7, 35460, Note_on_c, 5, 72, 100
7, 35520, Note_on_c, 5, 72, 0
7, 35520, Note_on_c, 5, 74, 100
7, 35550, Note_on_c, 5, 74, 0
7, 35550, Note_on_c, 5, 72, 100
7, 35580, Note_on_c, 5, 72, 0
7, 35580, Note_on_c, 5, 71, 100
7, 35610, Note_on_c, 5, 71, 0
7, 35610, Note_on_c, 5, 69, 100
7, 35640, Note_on_c, 5, 69, 0
7, 35640, Note_on_c, 5, 74, 100
7, 35700, Note_on_c, 5, 74, 0
7, 35700, Note_on_c, 5, 76, 100
7, 35730, Note_on_c, 5, 76, 0
7, 35730, Note_on_c, 5, 74, 100
7, 35760, Note_on_c, 5, 74, 0
7, 35760, Note_on_c, 5, 72, 100
7, 35790, Note_on_c, 5, 72, 0
7, 35790, Note_on_c, 5, 71, 100
7, 35820, Note_on_c, 5, 71, 0
7, 35820, Note_on_c, 5, 76, 100
7, 35880, Note_on_c, 5, 76, 0
7, 35880, Note_on_c, 5, 78, 100
7, 35940, Note_on_c, 5, 78, 0
7, 35940, Note_on_c, 5, 79, 100
7, 36000, Note_on_c, 5, 79, 0
7, 36000, Note_on_c, 5, 69, 100
7, 36180, Note_on_c, 5, 69, 0
7, 36360, Note_on_c, 5, 74, 90
7, 36599, Note_on_c, 5, 74, 0
7, 36600, Note_on_c, 5, 72, 90
7, 36659, Note_on_c, 5, 72, 0
7, 36660, Note_on_c, 5, 71, 90
7, 36719, Note_on_c, 5, 71, 0
7, 36720, Note_on_c, 5, 72, 90
7, 36779, Note_on_c, 5, 72, 0
7, 36780, Note_on_c, 5, 71, 90
7, 36839, Note_on_c, 5, 71, 0
7, 36840, Note_on_c, 5, 69, 90
7, 36899, Note_on_c, 5, 69, 0
7, 36900, Note_on_c, 5, 74, 90
7, 36959, Note_on_c, 5, 74, 0
7, 36960, Note_on_c, 5, 62, 90
7, 37019, Note_on_c, 5, 62, 0
7, 37020, Note_on_c, 5, 67, 90
7, 37079, Note_on_c, 5, 67, 0
7, 37080, Note_on_c, 5, 66, 90
7, 37199, Note_on_c, 5, 66, 0
7, 37260, Note_on_c, 5, 79, 90
7, 37319, Note_on_c, 5, 79, 0
7, 37320, Note_on_c, 5, 78, 90
7, 37379, Note_on_c, 5, 78, 0
7, 37380, Note_on_c, 5, 76, 90
7, 37439, Note_on_c, 5, 76, 0
7, 37440, Note_on_c, 5, 74, 90
7, 37529, Note_on_c, 5, 74, 0
7, 37530, Note_on_c, 5, 76, 90
7, 37559, Note_on_c, 5, 76, 0
7, 37560, Note_on_c, 5, 74, 90
7, 37589, Note_on_c, 5, 74, 0
7, 37590, Note_on_c, 5, 72, 90
7, 37619, Note_on_c, 5, 72, 0
7, 37620, Note_on_c, 5, 71, 90
7, 37649, Note_on_c, 5, 71, 0
7, 37650, Note_on_c, 5, 72, 90
7, 37679, Note_on_c, 5, 72, 0
7, 37680, Note_on_c, 5, 74, 90
7, 37694, Note_on_c, 5, 74, 0
7, 37695, Note_on_c, 5, 72, 90
7, 37709, Note_on_c, 5, 72, 0
7, 37710, Note_on_c, 5, 74, 90
7, 37724, Note_on_c, 5, 74, 0
7, 37725, Note_on_c, 5, 72, 90
7, 37739, Note_on_c, 5, 72, 0
7, 37740, Note_on_c, 5, 74, 90
7, 37754, Note_on_c, 5, 74, 0
7, 37755, Note_on_c, 5, 72, 90
7, 37769, Note_on_c, 5, 72, 0
7, 37770, Note_on_c, 5, 71, 90
7, 37784, Note_on_c, 5, 71, 0
7, 37785, Note_on_c, 5, 72, 90
7, 37799, Note_on_c, 5, 72, 0
7, 37800, Note_on_c, 5, 74, 90
7, 37859, Note_on_c, 5, 74, 0
7, 37860, Note_on_c, 5, 67, 90
7, 37919, Note_on_c, 5, 67, 0
7, 37920, Note_on_c, 5, 72, 90
7, 37979, Note_on_c, 5, 72, 0
7, 37980, Note_on_c, 5, 71, 90
7, 38039, Note_on_c, 5, 71, 0
7, 38040, Note_on_c, 5, 69, 90
7, 38099, Note_on_c, 5, 69, 0
7, 38100, Note_on_c, 5, 67, 90
7, 38159, Note_on_c, 5, 67, 0
7, 38160, Note_on_c, 5, 67, 90
7, 38339, Note_on_c, 5, 67, 0
7, 38520, Note_on_c, 5, 74, 90
7, 38699, Note_on_c, 5, 74, 0
7, 38700, Note_on_c, 5, 76, 90
7, 38879, Note_on_c, 5, 76, 0
7, 38880, Note_on_c, 5, 77, 90
7, 38909, Note_on_c, 5, 77, 0
7, 38910, Note_on_c, 5, 79, 90
7, 38939, Note_on_c, 5, 79, 0
7, 38940, Note_on_c, 5, 77, 90
7, 38969, Note_on_c, 5, 77, 0
7, 38970, Note_on_c, 5, 76, 90
7, 38999, Note_on_c, 5, 76, 0
7, 39000, Note_on_c, 5, 77, 90
7, 39029, Note_on_c, 5, 77, 0
7, 39030, Note_on_c, 5, 76, 90
7, 39059, Note_on_c, 5, 76, 0
7, 39060, Note_on_c, 5, 74, 90
7, 39089, Note_on_c, 5, 74, 0
7, 39090, Note_on_c, 5, 76, 90
7, 39119, Note_on_c, 5, 76, 0
7, 39120, Note_on_c, 5, 74, 90
7, 39149, Note_on_c, 5, 74, 0
7, 39150, Note_on_c, 5, 72, 90
7, 39179, Note_on_c, 5, 72, 0
7, 39180, Note_on_c, 5, 74, 90
7, 39209, Note_on_c, 5, 74, 0
7, 39210, Note_on_c, 5, 72, 90
7, 39239, Note_on_c, 5, 72, 0
7, 39240, Note_on_c, 5, 71, 90
7, 39269, Note_on_c, 5, 71, 0
7, 39270, Note_on_c, 5, 72, 90
7, 39299, Note_on_c, 5, 72, 0
7, 39300, Note_on_c, 5, 71, 90
7, 39329, Note_on_c, 5, 71, 0
7, 39330, Note_on_c, 5, 69, 90
7, 39359, Note_on_c, 5, 69, 0
7, 39360, Note_on_c, 5, 71, 90
7, 39389, Note_on_c, 5, 71, 0
7, 39390, Note_on_c, 5, 67, 90
7, 39419, Note_on_c, 5, 67, 0
7, 39420, Note_on_c, 5, 72, 90
7, 39449, Note_on_c, 5, 72, 0
7, 39450, Note_on_c, 5, 74, 90
7, 39479, Note_on_c, 5, 74, 0
7, 39480, Note_on_c, 5, 72, 90
7, 39509, Note_on_c, 5, 72, 0
7, 39510, Note_on_c, 5, 71, 90
7, 39539, Note_on_c, 5, 71, 0
7, 39540, Note_on_c, 5, 72, 90
7, 39569, Note_on_c, 5, 72, 0
7, 39570, Note_on_c, 5, 69, 90
7, 39599, Note_on_c, 5, 69, 0
7, 39600, Note_on_c, 5, 74, 90
7, 39629, Note_on_c, 5, 74, 0
7, 39630, Note_on_c, 5, 76, 90
7, 39659, Note_on_c, 5, 76, 0
7, 39660, Note_on_c, 5, 74, 90
7, 39689, Note_on_c, 5, 74, 0
7, 39690, Note_on_c, 5, 72, 90
7, 39719, Note_on_c, 5, 72, 0
7, 39720, Note_on_c, 5, 74, 90
7, 39749, Note_on_c, 5, 74, 0
7, 39750, Note_on_c, 5, 71, 90
7, 39779, Note_on_c, 5, 71, 0
7, 39780, Note_on_c, 5, 76, 90
7, 39809, Note_on_c, 5, 76, 0
7, 39810, Note_on_c, 5, 77, 90
7, 39839, Note_on_c, 5, 77, 0
7, 39840, Note_on_c, 5, 76, 90
7, 39869, Note_on_c, 5, 76, 0
7, 39870, Note_on_c, 5, 74, 90
7, 39899, Note_on_c, 5, 74, 0
7, 39900, Note_on_c, 5, 76, 90
7, 39929, Note_on_c, 5, 76, 0
7, 39930, Note_on_c, 5, 72, 90
7, 39959, Note_on_c, 5, 72, 0
7, 39960, Note_on_c, 5, 77, 90
7, 40019, Note_on_c, 5, 77, 0
7, 40020, Note_on_c, 5, 76, 90
7, 40079, Note_on_c, 5, 76, 0
7, 40080, Note_on_c, 5, 74, 90
7, 40139, Note_on_c, 5, 74, 0
7, 40140, Note_on_c, 5, 79, 90
7, 40199, Note_on_c, 5, 79, 0
7, 40200, Note_on_c, 5, 77, 90
7, 40229, Note_on_c, 5, 77, 0
7, 40230, Note_on_c, 5, 76, 90
7, 40259, Note_on_c, 5, 76, 0
7, 40260, Note_on_c, 5, 74, 90
7, 40289, Note_on_c, 5, 74, 0
7, 40290, Note_on_c, 5, 72, 90
7, 40319, Note_on_c, 5, 72, 0
7, 40320, Note_on_c, 5, 71, 90
7, 40439, Note_on_c, 5, 71, 0
7, 40440, Note_on_c, 5, 67, 90
7, 40499, Note_on_c, 5, 67, 0
7, 40500, Note_on_c, 5, 72, 90
7, 40559, Note_on_c, 5, 72, 0
7, 40560, Note_on_c, 5, 74, 90
7, 40619, Note_on_c, 5, 74, 0
7, 40620, Note_on_c, 5, 76, 90
7, 40679, Note_on_c, 5, 76, 0
7, 40680, Note_on_c, 5, 77, 90
7, 40919, Note_on_c, 5, 77, 0
7, 40920, Note_on_c, 5, 79, 90
7, 40949, Note_on_c, 5, 79, 0
7, 40950, Note_on_c, 5, 77, 90
7, 40979, Note_on_c, 5, 77, 0
7, 40980, Note_on_c, 5, 76, 90
7, 41009, Note_on_c, 5, 76, 0
7, 41010, Note_on_c, 5, 77, 90
7, 41039, Note_on_c, 5, 77, 0
7, 41040, Note_on_c, 5, 79, 90
7, 41099, Note_on_c, 5, 79, 0
7, 41100, Note_on_c, 5, 72, 90
7, 41159, Note_on_c, 5, 72, 0
7, 41160, Note_on_c, 5, 74, 90
7, 41219, Note_on_c, 5, 74, 0
7, 41220, Note_on_c, 5, 67, 90
7, 41279, Note_on_c, 5, 67, 0
7, 41280, Note_on_c, 5, 76, 90
7, 41339, Note_on_c, 5, 76, 0
7, 41340, Note_on_c, 5, 74, 90
7, 41399, Note_on_c, 5, 74, 0
7, 41400, Note_on_c, 5, 72, 90
7, 41579, Note_on_c, 5, 72, 0
7, 43740, Note_on_c, 5, 67, 90
7, 43859, Note_on_c, 5, 67, 0
7, 43860, Note_on_c, 5, 69, 90
7, 43919, Note_on_c, 5, 69, 0
7, 43920, Note_on_c, 5, 71, 90
7, 44039, Note_on_c, 5, 71, 0
7, 44040, Note_on_c, 5, 72, 90
7, 44099, Note_on_c, 5, 72, 0
7, 44100, Note_on_c, 5, 74, 90
7, 44159, Note_on_c, 5, 74, 0
7, 44160, Note_on_c, 5, 71, 90
7, 44219, Note_on_c, 5, 71, 0
7, 44220, Note_on_c, 5, 76, 90
7, 44279, Note_on_c, 5, 76, 0
7, 44280, Note_on_c, 5, 72, 90
7, 44459, Note_on_c, 5, 72, 0
7, 44460, Note_on_c, 5, 74, 90
7, 44519, Note_on_c, 5, 74, 0
7, 44520, Note_on_c, 5, 76, 90
7, 44579, Note_on_c, 5, 76, 0
7, 44580, Note_on_c, 5, 77, 90
7, 44639, Note_on_c, 5, 77, 0
7, 44640, Note_on_c, 5, 76, 90
7, 44699, Note_on_c, 5, 76, 0
7, 44700, Note_on_c, 5, 74, 90
7, 44759, Note_on_c, 5, 74, 0
7, 44760, Note_on_c, 5, 72, 90
7, 44819, Note_on_c, 5, 72, 0
7, 44820, Note_on_c, 5, 71, 90
7, 44879, Note_on_c, 5, 71, 0
7, 44880, Note_on_c, 5, 74, 90
7, 44939, Note_on_c, 5, 74, 0
7, 44940, Note_on_c, 5, 69, 90
7, 44999, Note_on_c, 5, 69, 0
7, 45000, Note_on_c, 5, 68, 90
7, 45119, Note_on_c, 5, 68, 0
7, 45120, Note_on_c, 5, 72, 90
7, 45179, Note_on_c, 5, 72, 0
7, 45180, Note_on_c, 5, 71, 90
7, 45239, Note_on_c, 5, 71, 0
7, 45240, Note_on_c, 5, 68, 90
7, 45299, Note_on_c, 5, 68, 0
7, 45300, Note_on_c, 5, 69, 90
7, 45359, Note_on_c, 5, 69, 0
7, 45360, Note_on_c, 5, 64, 90
7, 45539, Note_on_c, 5, 64, 0
7, 45540, Note_on_c, 5, 76, 90
7, 45599, Note_on_c, 5, 76, 0
7, 45600, Note_on_c, 5, 72, 90
7, 45659, Note_on_c, 5, 72, 0
7, 45660, Note_on_c, 5, 69, 90
7, 45719, Note_on_c, 5, 69, 0
7, 45720, Note_on_c, 5, 74, 90
7, 45779, Note_on_c, 5, 74, 0
7, 45780, Note_on_c, 5, 76, 90
7, 45839, Note_on_c, 5, 76, 0
7, 45840, Note_on_c, 5, 77, 90
7, 45899, Note_on_c, 5, 77, 0
7, 45900, Note_on_c, 5, 76, 90
7, 45959, Note_on_c, 5, 76, 0
7, 45960, Note_on_c, 5, 74, 90
7, 46019, Note_on_c, 5, 74, 0
7, 46020, Note_on_c, 5, 72, 90
7, 46079, Note_on_c, 5, 72, 0
7, 46080, Note_on_c, 5, 71, 90
7, 46139, Note_on_c, 5, 71, 0
7, 46140, Note_on_c, 5, 72, 90
7, 46199, Note_on_c, 5, 72, 0
7, 46200, Note_on_c, 5, 74, 90
7, 46259, Note_on_c, 5, 74, 0
7, 46260, Note_on_c, 5, 72, 90
7, 46319, Note_on_c, 5, 72, 0
7, 46320, Note_on_c, 5, 71, 90
7, 46379, Note_on_c, 5, 71, 0
7, 46380, Note_on_c, 5, 69, 90
7, 46439, Note_on_c, 5, 69, 0
7, 46440, Note_on_c, 5, 77, 90
7, 46740, Note_on_c, 5, 77, 0
7, 46740, Note_on_c, 5, 71, 90
7, 46799, Note_on_c, 5, 71, 0
7, 46800, Note_on_c, 5, 76, 90
7, 46859, Note_on_c, 5, 76, 0
7, 46860, Note_on_c, 5, 69, 90
7, 46919, Note_on_c, 5, 69, 0
7, 46920, Note_on_c, 5, 71, 90
7, 46979, Note_on_c, 5, 71, 0
7, 46980, Note_on_c, 5, 64, 90
7, 47039, Note_on_c, 5, 64, 0
7, 47040, Note_on_c, 5, 69, 90
7, 47099, Note_on_c, 5, 69, 0
7, 47100, Note_on_c, 5, 68, 90
7, 47159, Note_on_c, 5, 68, 0
7, 47160, Note_on_c, 5, 69, 90
7, 47279, Note_on_c, 5, 69, 0
7, 47280, Note_on_c, 5, 69, 90
7, 47339, Note_on_c, 5, 69, 0
7, 47340, Note_on_c, 5, 72, 90
7, 47459, Note_on_c, 5, 72, 0
7, 47460, Note_on_c, 5, 72, 90
7, 47519, Note_on_c, 5, 72, 0
7, 47520, Note_on_c, 5, 72, 90
7, 47579, Note_on_c, 5, 72, 0
7, 47580, Note_on_c, 5, 69, 90
7, 47639, Note_on_c, 5, 69, 0
7, 47640, Note_on_c, 5, 71, 90
7, 47699, Note_on_c, 5, 71, 0
7, 47700, Note_on_c, 5, 72, 90
7, 47759, Note_on_c, 5, 72, 0
7, 47760, Note_on_c, 5, 76, 90
7, 47819, Note_on_c, 5, 76, 0
7, 47820, Note_on_c, 5, 74, 90
7, 47879, Note_on_c, 5, 74, 0
7, 47880, Note_on_c, 5, 71, 90
7, 48059, Note_on_c, 5, 71, 0
7, 48060, Note_on_c, 5, 76, 90
7, 48179, Note_on_c, 5, 76, 0
7, 48180, Note_on_c, 5, 78, 90
7, 48239, Note_on_c, 5, 78, 0
7, 48240, Note_on_c, 5, 79, 90
7, 48359, Note_on_c, 5, 79, 0
7, 48360, Note_on_c, 5, 78, 90
7, 48419, Note_on_c, 5, 78, 0
7, 48420, Note_on_c, 5, 76, 90
7, 48479, Note_on_c, 5, 76, 0
7, 48480, Note_on_c, 5, 75, 90
7, 48539, Note_on_c, 5, 75, 0
7, 48540, Note_on_c, 5, 76, 90
7, 48599, Note_on_c, 5, 76, 0
7, 48600, Note_on_c, 5, 71, 90
7, 48719, Note_on_c, 5, 71, 0
7, 48780, Note_on_c, 5, 72, 90
7, 48899, Note_on_c, 5, 72, 0
7, 48960, Note_on_c, 5, 71, 90
7, 49079, Note_on_c, 5, 71, 0
7, 49140, Note_on_c, 5, 76, 90
7, 49259, Note_on_c, 5, 76, 0
7, 49260, Note_on_c, 5, 78, 90
7, 49289, Note_on_c, 5, 78, 0
7, 49290, Note_on_c, 5, 79, 90
7, 49319, Note_on_c, 5, 79, 0
7, 49320, Note_on_c, 5, 78, 90
7, 49439, Note_on_c, 5, 78, 0
7, 49500, Note_on_c, 5, 71, 90
7, 49619, Note_on_c, 5, 71, 0
7, 49620, Note_on_c, 5, 64, 90
7, 49679, Note_on_c, 5, 64, 0
7, 49680, Note_on_c, 5, 69, 90
7, 49739, Note_on_c, 5, 69, 0
7, 49740, Note_on_c, 5, 72, 90
7, 49799, Note_on_c, 5, 72, 0
7, 49800, Note_on_c, 5, 71, 90
7, 49859, Note_on_c, 5, 71, 0
7, 49860, Note_on_c, 5, 69, 90
7, 49919, Note_on_c, 5, 69, 0
7, 49920, Note_on_c, 5, 66, 90
7, 49979, Note_on_c, 5, 66, 0
7, 49980, Note_on_c, 5, 76, 90
7, 50039, Note_on_c, 5, 76, 0
7, 50040, Note_on_c, 5, 75, 90
7, 50159, Note_on_c, 5, 75, 0
7, 50220, Note_on_c, 5, 76, 90
7, 50279, Note_on_c, 5, 76, 0
7, 50280, Note_on_c, 5, 78, 90
7, 50339, Note_on_c, 5, 78, 0
7, 50340, Note_on_c, 5, 79, 90
7, 50399, Note_on_c, 5, 79, 0
7, 50400, Note_on_c, 5, 69, 90
7, 50519, Note_on_c, 5, 69, 0
7, 50520, Note_on_c, 5, 78, 90
7, 50579, Note_on_c, 5, 78, 0
7, 50580, Note_on_c, 5, 67, 90
7, 50639, Note_on_c, 5, 67, 0
7, 50640, Note_on_c, 5, 69, 90
7, 50699, Note_on_c, 5, 69, 0
7, 50700, Note_on_c, 5, 72, 90
7, 50759, Note_on_c, 5, 72, 0
7, 50760, Note_on_c, 5, 71, 90
7, 50819, Note_on_c, 5, 71, 0
7, 50820, Note_on_c, 5, 69, 90
7, 50879, Note_on_c, 5, 69, 0
7, 50880, Note_on_c, 5, 67, 90
7, 50939, Note_on_c, 5, 67, 0
7, 50940, Note_on_c, 5, 67, 90
7, 50999, Note_on_c, 5, 67, 0
7, 51000, Note_on_c, 5, 66, 90
7, 51059, Note_on_c, 5, 66, 0
7, 51060, Note_on_c, 5, 64, 90
7, 51119, Note_on_c, 5, 64, 0
7, 51120, Note_on_c, 5, 64, 90
7, 51239, Note_on_c, 5, 64, 0
7, 51240, Note_on_c, 5, 64, 90
7, 51299, Note_on_c, 5, 64, 0
7, 54360, Note_on_c, 5, 72, 100
7, 54540, Note_on_c, 5, 72, 0
7, 54540, Note_on_c, 5, 74, 100
7, 54720, Note_on_c, 5, 74, 0
7, 54720, Note_on_c, 5, 76, 100
7, 54750, Note_on_c, 5, 76, 0
7, 54750, Note_on_c, 5, 77, 100
7, 54780, Note_on_c, 5, 77, 0
7, 54780, Note_on_c, 5, 76, 100
7, 54810, Note_on_c, 5, 76, 0
7, 54810, Note_on_c, 5, 74, 100
7, 54840, Note_on_c, 5, 74, 0
7, 54840, Note_on_c, 5, 76, 100
7, 54870, Note_on_c, 5, 76, 0
7, 54870, Note_on_c, 5, 72, 100
7, 54900, Note_on_c, 5, 72, 0
7, 54900, Note_on_c, 5, 77, 100
7, 54930, Note_on_c, 5, 77, 0
7, 54930, Note_on_c, 5, 79, 100
7, 54960, Note_on_c, 5, 79, 0
7, 54960, Note_on_c, 5, 77, 100
7, 54990, Note_on_c, 5, 77, 0
7, 54990, Note_on_c, 5, 76, 100
7, 55020, Note_on_c, 5, 76, 0
7, 55020, Note_on_c, 5, 77, 100
7, 55050, Note_on_c, 5, 77, 0
7, 55050, Note_on_c, 5, 74, 100
7, 55080, Note_on_c, 5, 74, 0
7, 55080, Note_on_c, 5, 79, 100
7, 55140, Note_on_c, 5, 79, 0
7, 55140, Note_on_c, 5, 77, 100
7, 55200, Note_on_c, 5, 77, 0
7, 55200, Note_on_c, 5, 76, 100
7, 55260, Note_on_c, 5, 76, 0
7, 55260, Note_on_c, 5, 74, 100
7, 55290, Note_on_c, 5, 74, 0
7, 55290, Note_on_c, 5, 77, 100
7, 55320, Note_on_c, 5, 77, 0
7, 55320, Note_on_c, 5, 76, 100
7, 55350, Note_on_c, 5, 76, 0
7, 55350, Note_on_c, 5, 74, 100
7, 55380, Note_on_c, 5, 74, 0
7, 55380, Note_on_c, 5, 76, 100
7, 55410, Note_on_c, 5, 76, 0
7, 55410, Note_on_c, 5, 72, 100
7, 55440, Note_on_c, 5, 72, 0
7, 55440, Note_on_c, 5, 71, 100
7, 55560, Note_on_c, 5, 71, 0
7, 55560, Note_on_c, 5, 67, 100
7, 55620, Note_on_c, 5, 67, 0
7, 57600, Note_on_c, 5, 76, 100
7, 57780, Note_on_c, 5, 76, 0
7, 57780, Note_on_c, 5, 77, 100
7, 57960, Note_on_c, 5, 77, 0
7, 57960, Note_on_c, 5, 79, 100
7, 58020, Note_on_c, 5, 79, 0
7, 58020, Note_on_c, 5, 77, 100
7, 58080, Note_on_c, 5, 77, 0
7, 58080, Note_on_c, 5, 76, 100
7, 58140, Note_on_c, 5, 76, 0
7, 58140, Note_on_c, 5, 74, 100
7, 58170, Note_on_c, 5, 74, 0
7, 58170, Note_on_c, 5, 77, 100
7, 58200, Note_on_c, 5, 77, 0
7, 58200, Note_on_c, 5, 76, 100
7, 58230, Note_on_c, 5, 76, 0
7, 58230, Note_on_c, 5, 74, 100
7, 58260, Note_on_c, 5, 74, 0
7, 58260, Note_on_c, 5, 76, 100
7, 58290, Note_on_c, 5, 76, 0
7, 58290, Note_on_c, 5, 72, 100
7, 58320, Note_on_c, 5, 72, 0
7, 58320, Note_on_c, 5, 71, 100
7, 58380, Note_on_c, 5, 71, 0
7, 58380, Note_on_c, 5, 69, 100
7, 58440, Note_on_c, 5, 69, 0
7, 58440, Note_on_c, 5, 67, 100
7, 58500, Note_on_c, 5, 67, 0
7, 58500, Note_on_c, 5, 72, 100
7, 58560, Note_on_c, 5, 72, 0
7, 58560, Note_on_c, 5, 74, 100
7, 58590, Note_on_c, 5, 74, 0
7, 58590, Note_on_c, 5, 72, 100
7, 58620, Note_on_c, 5, 72, 0
7, 58620, Note_on_c, 5, 71, 100
7, 58650, Note_on_c, 5, 71, 0
7, 58650, Note_on_c, 5, 69, 100
7, 58680, Note_on_c, 5, 69, 0
7, 58680, Note_on_c, 5, 74, 100
7, 58740, Note_on_c, 5, 74, 0
7, 58740, Note_on_c, 5, 76, 100
7, 58770, Note_on_c, 5, 76, 0
7, 58770, Note_on_c, 5, 74, 100
7, 58800, Note_on_c, 5, 74, 0
7, 58800, Note_on_c, 5, 72, 100
7, 58830, Note_on_c, 5, 72, 0
7, 58830, Note_on_c, 5, 71, 100
7, 58860, Note_on_c, 5, 71, 0
7, 58860, Note_on_c, 5, 76, 100
7, 58920, Note_on_c, 5, 76, 0
7, 58920, Note_on_c, 5, 78, 100
7, 58980, Note_on_c, 5, 78, 0
7, 58980, Note_on_c, 5, 79, 100
7, 59040, Note_on_c, 5, 79, 0
7, 59040, Note_on_c, 5, 69, 100
7, 59220, Note_on_c, 5, 69, 0
7, 59400, Note_on_c, 5, 74, 90
7, 59639, Note_on_c, 5, 74, 0
7, 59640, Note_on_c, 5, 72, 90
7, 59699, Note_on_c, 5, 72, 0
7, 59700, Note_on_c, 5, 71, 90
7, 59759, Note_on_c, 5, 71, 0
7, 59760, Note_on_c, 5, 72, 90
7, 59819, Note_on_c, 5, 72, 0
7, 59820, Note_on_c, 5, 71, 90
7, 59879, Note_on_c, 5, 71, 0
7, 59880, Note_on_c, 5, 69, 90
7, 59939, Note_on_c, 5, 69, 0
7, 59940, Note_on_c, 5, 74, 90
7, 59999, Note_on_c, 5, 74, 0
7, 60000, Note_on_c, 5, 62, 90
7, 60059, Note_on_c, 5, 62, 0
7, 60060, Note_on_c, 5, 67, 90
7, 60119, Note_on_c, 5, 67, 0
7, 60120, Note_on_c, 5, 66, 90
7, 60239, Note_on_c, 5, 66, 0
7, 60300, Note_on_c, 5, 79, 90
7, 60359, Note_on_c, 5, 79, 0
7, 60360, Note_on_c, 5, 78, 90
7, 60419, Note_on_c, 5, 78, 0
7, 60420, Note_on_c, 5, 76, 90
7, 60479, Note_on_c, 5, 76, 0
7, 60480, Note_on_c, 5, 74, 90
7, 60569, Note_on_c, 5, 74, 0
7, 60570, Note_on_c, 5, 76, 90
7, 60599, Note_on_c, 5, 76, 0
7, 60600, Note_on_c, 5, 74, 90
7, 60629, Note_on_c, 5, 74, 0
7, 60630, Note_on_c, 5, 72, 90
7, 60659, Note_on_c, 5, 72, 0
7, 60660, Note_on_c, 5, 71, 90
7, 60689, Note_on_c, 5, 71, 0
7, 60690, Note_on_c, 5, 72, 90
7, 60719, Note_on_c, 5, 72, 0
7, 60720, Note_on_c, 5, 74, 90
7, 60734, Note_on_c, 5, 74, 0
7, 60735, Note_on_c, 5, 72, 90
7, 60749, Note_on_c, 5, 72, 0
7, 60750, Note_on_c, 5, 74, 90
7, 60764, Note_on_c, 5, 74, 0
7, 60765, Note_on_c, 5, 72, 90
7, 60779, Note_on_c, 5, 72, 0
7, 60780, Note_on_c, 5, 74, 90
7, 60794, Note_on_c, 5, 74, 0
7, 60795, Note_on_c, 5, 72, 90
7, 60809, Note_on_c, 5, 72, 0
7, 60810, Note_on_c, 5, 71, 90
7, 60824, Note_on_c, 5, 71, 0
7, 60825, Note_on_c, 5, 72, 90
7, 60839, Note_on_c, 5, 72, 0
7, 60840, Note_on_c, 5, 74, 90
7, 60899, Note_on_c, 5, 74, 0
7, 60900, Note_on_c, 5, 67, 90
7, 60959, Note_on_c, 5, 67, 0
7, 60960, Note_on_c, 5, 72, 90
7, 61019, Note_on_c, 5, 72, 0
7, 61020, Note_on_c, 5, 71, 90
7, 61079, Note_on_c, 5, 71, 0
7, 61080, Note_on_c, 5, 69, 90
7, 61139, Note_on_c, 5, 69, 0
7, 61140, Note_on_c, 5, 67, 90
7, 61199, Note_on_c, 5, 67, 0
7, 61200, Note_on_c, 5, 67, 90
7, 61379, Note_on_c, 5, 67, 0
7, 61560, Note_on_c, 5, 74, 90
7, 61739, Note_on_c, 5, 74, 0
7, 61740, Note_on_c, 5, 76, 90
7, 61919, Note_on_c, 5, 76, 0
7, 61920, Note_on_c, 5, 77, 90
7, 61949, Note_on_c, 5, 77, 0
7, 61950, Note_on_c, 5, 79, 90
7, 61979, Note_on_c, 5, 79, 0
7, 61980, Note_on_c, 5, 77, 90
7, 62009, Note_on_c, 5, 77, 0
7, 62010, Note_on_c, 5, 76, 90
7, 62039, Note_on_c, 5, 76, 0
7, 62040, Note_on_c, 5, 77, 90
7, 62069, Note_on_c, 5, 77, 0
7, 62070, Note_on_c, 5, 76, 90
7, 62099, Note_on_c, 5, 76, 0
7, 62100, Note_on_c, 5, 74, 90
7, 62129, Note_on_c, 5, 74, 0
7, 62130, Note_on_c, 5, 76, 90
7, 62159, Note_on_c, 5, 76, 0
7, 62160, Note_on_c, 5, 74, 90
7, 62189, Note_on_c, 5, 74, 0
7, 62190, Note_on_c, 5, 72, 90
7, 62219, Note_on_c, 5, 72, 0
7, 62220, Note_on_c, 5, 74, 90
7, 62249, Note_on_c, 5, 74, 0
7, 62250, Note_on_c, 5, 72, 90
7, 62279, Note_on_c, 5, 72, 0
7, 62280, Note_on_c, 5, 71, 90
7, 62309, Note_on_c, 5, 71, 0
7, 62310, Note_on_c, 5, 72, 90
7, 62339, Note_on_c, 5, 72, 0
7, 62340, Note_on_c, 5, 71, 90
7, 62369, Note_on_c, 5, 71, 0
7, 62370, Note_on_c, 5, 69, 90
7, 62399, Note_on_c, 5, 69, 0
7, 62400, Note_on_c, 5, 71, 90
7, 62429, Note_on_c, 5, 71, 0
7, 62430, Note_on_c, 5, 67, 90
7, 62459, Note_on_c, 5, 67, 0
7, 62460, Note_on_c, 5, 72, 90
7, 62489, Note_on_c, 5, 72, 0
7, 62490, Note_on_c, 5, 74, 90
7, 62519, Note_on_c, 5, 74, 0
7, 62520, Note_on_c, 5, 72, 90
7, 62549, Note_on_c, 5, 72, 0
7, 62550, Note_on_c, 5, 71, 90
7, 62579, Note_on_c, 5, 71, 0
7, 62580, Note_on_c, 5, 72, 90
7, 62609, Note_on_c, 5, 72, 0
7, 62610, Note_on_c, 5, 69, 90
7, 62639, Note_on_c, 5, 69, 0
7, 62640, Note_on_c, 5, 74, 90
7, 62669, Note_on_c, 5, 74, 0
7, 62670, Note_on_c, 5, 76, 90
7, 62699, Note_on_c, 5, 76, 0
7, 62700, Note_on_c, 5, 74, 90
7, 62729, Note_on_c, 5, 74, 0
7, 62730, Note_on_c, 5, 72, 90
7, 62759, Note_on_c, 5, 72, 0
7, 62760, Note_on_c, 5, 74, 90
7, 62789, Note_on_c, 5, 74, 0
7, 62790, Note_on_c, 5, 71, 90
7, 62819, Note_on_c, 5, 71, 0
7, 62820, Note_on_c, 5, 76, 90
7, 62849, Note_on_c, 5, 76, 0
7, 62850, Note_on_c, 5, 77, 90
7, 62879, Note_on_c, 5, 77, 0
7, 62880, Note_on_c, 5, 76, 90
7, 62909, Note_on_c, 5, 76, 0
7, 62910, Note_on_c, 5, 74, 90
7, 62939, Note_on_c, 5, 74, 0
7, 62940, Note_on_c, 5, 76, 90
7, 62969, Note_on_c, 5, 76, 0
7, 62970, Note_on_c, 5, 72, 90
7, 62999, Note_on_c, 5, 72, 0
7, 63000, Note_on_c, 5, 77, 90
7, 63059, Note_on_c, 5, 77, 0
7, 63060, Note_on_c, 5, 76, 90
7, 63119, Note_on_c, 5, 76, 0
7, 63120, Note_on_c, 5, 74, 90
7, 63179, Note_on_c, 5, 74, 0
7, 63180, Note_on_c, 5, 79, 90
7, 63239, Note_on_c, 5, 79, 0
7, 63240, Note_on_c, 5, 77, 90
7, 63269, Note_on_c, 5, 77, 0
7, 63270, Note_on_c, 5, 76, 90
7, 63299, Note_on_c, 5, 76, 0
7, 63300, Note_on_c, 5, 74, 90
7, 63329, Note_on_c, 5, 74, 0
7, 63330, Note_on_c, 5, 72, 90
7, 63359, Note_on_c, 5, 72, 0
7, 63360, Note_on_c, 5, 71, 90
7, 63479, Note_on_c, 5, 71, 0
7, 63480, Note_on_c, 5, 67, 90
7, 63539, Note_on_c, 5, 67, 0
7, 63540, Note_on_c, 5, 72, 90
7, 63599, Note_on_c, 5, 72, 0
7, 63600, Note_on_c, 5, 74, 90
7, 63659, Note_on_c, 5, 74, 0
7, 63660, Note_on_c, 5, 76, 90
7, 63719, Note_on_c, 5, 76, 0
7, 63720, Note_on_c, 5, 77, 90
7, 63959, Note_on_c, 5, 77, 0
7, 63960, Note_on_c, 5, 79, 90
7, 63989, Note_on_c, 5, 79, 0
7, 63990, Note_on_c, 5, 77, 90
7, 64019, Note_on_c, 5, 77, 0
7, 64020, Note_on_c, 5, 76, 90
7, 64049, Note_on_c, 5, 76, 0
7, 64050, Note_on_c, 5, 77, 90
7, 64079, Note_on_c, 5, 77, 0
7, 64080, Note_on_c, 5, 79, 90
7, 64139, Note_on_c, 5, 79, 0
7, 64140, Note_on_c, 5, 72, 90
7, 64199, Note_on_c, 5, 72, 0
7, 64200, Note_on_c, 5, 74, 90
7, 64259, Note_on_c, 5, 74, 0
7, 64260, Note_on_c, 5, 67, 90
7, 64319, Note_on_c, 5, 67, 0
7, 64320, Note_on_c, 5, 76, 90
7, 64379, Note_on_c, 5, 76, 0
7, 64380, Note_on_c, 5, 74, 90
7, 64439, Note_on_c, 5, 74, 0
7, 64440, Note_on_c, 5, 72, 90
7, 64619, Note_on_c, 5, 72, 0
7, 67020, Note_on_c, 5, 64, 90
7, 67080, Note_on_c, 5, 64, 0
7, 67080, Note_on_c, 5, 68, 90
7, 67170, Note_on_c, 5, 68, 0
7, 67170, Note_on_c, 5, 69, 90
7, 67200, Note_on_c, 5, 69, 0
7, 67200, Note_on_c, 5, 71, 90
7, 67260, Note_on_c, 5, 71, 0
7, 67260, Note_on_c, 5, 71, 90
7, 67320, Note_on_c, 5, 71, 0
7, 67320, Note_on_c, 5, 72, 90
7, 67380, Note_on_c, 5, 72, 0
7, 67380, Note_on_c, 5, 74, 90
7, 67440, Note_on_c, 5, 74, 0
7, 67440, Note_on_c, 5, 72, 90
7, 67500, Note_on_c, 5, 72, 0
7, 67500, Note_on_c, 5, 72, 90
7, 67560, Note_on_c, 5, 72, 0
7, 67620, Note_on_c, 5, 69, 90
7, 67680, Note_on_c, 5, 69, 0
7, 67680, Note_on_c, 5, 76, 90
7, 67800, Note_on_c, 5, 76, 0
7, 67800, Note_on_c, 5, 76, 90
7, 67920, Note_on_c, 5, 76, 0
7, 67920, Note_on_c, 5, 67, 90
7, 67980, Note_on_c, 5, 67, 0
7, 67980, Note_on_c, 5, 67, 90
7, 68040, Note_on_c, 5, 67, 0
7, 68040, Note_on_c, 5, 71, 90
7, 68100, Note_on_c, 5, 71, 0
7, 68100, Note_on_c, 5, 69, 90
7, 68160, Note_on_c, 5, 69, 0
7, 68160, Note_on_c, 5, 66, 90
7, 68220, Note_on_c, 5, 66, 0
7, 68250, Note_on_c, 5, 62, 90
7, 68280, Note_on_c, 5, 62, 0
7, 68280, Note_on_c, 5, 66, 90
7, 68370, Note_on_c, 5, 66, 0
7, 68370, Note_on_c, 5, 67, 90
7, 68400, Note_on_c, 5, 67, 0
7, 68400, Note_on_c, 5, 69, 90
7, 68460, Note_on_c, 5, 69, 0
7, 68460, Note_on_c, 5, 69, 90
7, 68520, Note_on_c, 5, 69, 0
7, 68520, Note_on_c, 5, 71, 90
7, 68580, Note_on_c, 5, 71, 0
7, 68580, Note_on_c, 5, 72, 90
7, 68640, Note_on_c, 5, 72, 0
7, 68640, Note_on_c, 5, 71, 90
7, 68760, Note_on_c, 5, 71, 0
7, 68820, Note_on_c, 5, 74, 90
7, 68880, Note_on_c, 5, 74, 0
7, 68880, Note_on_c, 5, 76, 90
7, 68940, Note_on_c, 5, 76, 0
7, 68940, Note_on_c, 5, 75, 90
7, 69000, Note_on_c, 5, 75, 0
7, 69000, Note_on_c, 5, 76, 90
7, 69060, Note_on_c, 5, 76, 0
7, 69060, Note_on_c, 5, 78, 90
7, 69120, Note_on_c, 5, 78, 0
7, 69120, Note_on_c, 5, 79, 90
7, 69240, Note_on_c, 5, 79, 0
7, 69300, Note_on_c, 5, 78, 90
7, 69360, Note_on_c, 5, 78, 0
7, 69360, Note_on_c, 5, 76, 90
7, 69420, Note_on_c, 5, 76, 0
7, 69420, Note_on_c, 5, 75, 90
7, 69480, Note_on_c, 5, 75, 0
7, 69480, Note_on_c, 5, 76, 90
7, 69540, Note_on_c, 5, 76, 0
7, 69540, Note_on_c, 5, 78, 90
7, 69600, Note_on_c, 5, 78, 0
7, 69600, Note_on_c, 5, 69, 90
7, 69720, Note_on_c, 5, 69, 0
7, 69780, Note_on_c, 5, 72, 90
7, 69840, Note_on_c, 5, 72, 0
7, 69840, Note_on_c, 5, 71, 90
7, 69900, Note_on_c, 5, 71, 0
7, 69900, Note_on_c, 5, 69, 90
7, 69960, Note_on_c, 5, 69, 0
7, 69960, Note_on_c, 5, 71, 90
7, 70020, Note_on_c, 5, 71, 0
7, 70020, Note_on_c, 5, 72, 90
7, 70080, Note_on_c, 5, 72, 0
7, 70080, Note_on_c, 5, 63, 90
7, 70200, Note_on_c, 5, 63, 0
7, 70260, Note_on_c, 5, 72, 90
7, 70320, Note_on_c, 5, 72, 0
7, 70320, Note_on_c, 5, 71, 90
7, 70380, Note_on_c, 5, 71, 0
7, 70380, Note_on_c, 5, 76, 90
7, 70410, Note_on_c, 5, 76, 0
7, 70410, Note_on_c, 5, 78, 90
7, 70440, Note_on_c, 5, 78, 0
7, 70440, Note_on_c, 5, 79, 90
7, 70500, Note_on_c, 5, 79, 0
7, 70500, Note_on_c, 5, 78, 90
7, 70530, Note_on_c, 5, 78, 0
7, 70530, Note_on_c, 5, 76, 90
7, 70560, Note_on_c, 5, 76, 0
7, 70560, Note_on_c, 5, 76, 90
7, 70680, Note_on_c, 5, 76, 0
7, 70680, Note_on_c, 5, 76, 90
7, 70800, Note_on_c, 5, 76, 0
7, 74160, Note_on_c, 5, 71, 90
7, 74279, Note_on_c, 5, 71, 0
7, 74280, Note_on_c, 5, 76, 90
7, 74369, Note_on_c, 5, 76, 0
7, 74370, Note_on_c, 5, 78, 90
7, 74385, Note_on_c, 5, 78, 0
7, 74385, Note_on_c, 5, 79, 90
7, 74400, Note_on_c, 5, 79, 0
7, 74400, Note_on_c, 5, 78, 90
7, 74460, Note_on_c, 5, 78, 0
7, 74460, Note_on_c, 5, 76, 90
7, 74520, Note_on_c, 5, 76, 0
7, 74520, Note_on_c, 5, 74, 90
7, 74580, Note_on_c, 5, 74, 0
7, 74580, Note_on_c, 5, 72, 90
7, 74640, Note_on_c, 5, 72, 0
7, 74640, Note_on_c, 5, 71, 90
7, 74700, Note_on_c, 5, 71, 0
7, 74700, Note_on_c, 5, 69, 90
7, 74760, Note_on_c, 5, 69, 0
7, 74760, Note_on_c, 5, 72, 90
7, 74820, Note_on_c, 5, 72, 0
7, 74820, Note_on_c, 5, 71, 90
7, 74880, Note_on_c, 5, 71, 0
7, 74880, Note_on_c, 5, 76, 90
7, 74909, Note_on_c, 5, 76, 0
7, 74910, Note_on_c, 5, 75, 90
7, 74939, Note_on_c, 5, 75, 0
7, 74940, Note_on_c, 5, 76, 90
7, 74969, Note_on_c, 5, 76, 0
7, 74970, Note_on_c, 5, 75, 90
7, 74999, Note_on_c, 5, 75, 0
7, 75000, Note_on_c, 5, 76, 90
7, 75090, Note_on_c, 5, 76, 0
7, 75090, Note_on_c, 5, 78, 90
7, 75119, Note_on_c, 5, 78, 0
7, 75120, Note_on_c, 5, 71, 90
7, 75240, Note_on_c, 5, 71, 0
7, 76080, Note_on_c, 5, 71, 90
7, 76200, Note_on_c, 5, 71, 0
7, 76200, Note_on_c, 5, 76, 90
7, 76289, Note_on_c, 5, 76, 0
7, 76290, Note_on_c, 5, 78, 90
7, 76305, Note_on_c, 5, 78, 0
7, 76305, Note_on_c, 5, 79, 90
7, 76320, Note_on_c, 5, 79, 0
7, 76320, Note_on_c, 5, 78, 90
7, 76379, Note_on_c, 5, 78, 0
7, 76380, Note_on_c, 5, 76, 90
7, 76439, Note_on_c, 5, 76, 0
7, 76440, Note_on_c, 5, 74, 90
7, 76499, Note_on_c, 5, 74, 0
7, 76500, Note_on_c, 5, 72, 90
7, 76559, Note_on_c, 5, 72, 0
7, 76560, Note_on_c, 5, 71, 90
7, 76619, Note_on_c, 5, 71, 0
7, 76620, Note_on_c, 5, 69, 90
7, 76679, Note_on_c, 5, 69, 0
7, 76680, Note_on_c, 5, 72, 90
7, 76739, Note_on_c, 5, 72, 0
7, 76740, Note_on_c, 5, 71, 90
7, 76799, Note_on_c, 5, 71, 0
7, 76800, Note_on_c, 5, 76, 90
7, 76829, Note_on_c, 5, 76, 0
7, 76830, Note_on_c, 5, 75, 90
7, 76859, Note_on_c, 5, 75, 0
7, 76860, Note_on_c, 5, 76, 90
7, 76889, Note_on_c, 5, 76, 0
7, 76890, Note_on_c, 5, 75, 90
7, 76919, Note_on_c, 5, 75, 0
7, 76920, Note_on_c, 5, 76, 90
7, 77010, Note_on_c, 5, 76, 0
7, 77010, Note_on_c, 5, 78, 90
7, 77039, Note_on_c, 5, 78, 0
7, 77040, Note_on_c, 5, 71, 90
7, 77159, Note_on_c, 5, 71, 0
7, 77280, Note_on_c, 5, 74, 90
7, 77399, Note_on_c, 5, 74, 0
7, 77400, Note_on_c, 5, 71, 90
7, 77519, Note_on_c, 5, 71, 0
7, 77520, Note_on_c, 5, 72, 90
7, 77580, Note_on_c, 5, 72, 0
7, 77580, Note_on_c, 5, 71, 90
7, 77640, Note_on_c, 5, 71, 0
7, 77640, Note_on_c, 5, 69, 90
7, 77700, Note_on_c, 5, 69, 0
7, 77700, Note_on_c, 5, 67, 90
7, 77760, Note_on_c, 5, 67, 0
7, 77760, Note_on_c, 5, 66, 90
7, 77820, Note_on_c, 5, 66, 0
7, 77820, Note_on_c, 5, 64, 90
7, 77849, Note_on_c, 5, 64, 0
7, 77850, Note_on_c, 5, 62, 90
7, 77879, Note_on_c, 5, 62, 0
7, 77880, Note_on_c, 5, 67, 90
7, 77940, Note_on_c, 5, 67, 0
7, 77940, Note_on_c, 5, 69, 90
7, 78000, Note_on_c, 5, 69, 0
7, 78000, Note_on_c, 5, 71, 90
7, 78060, Note_on_c, 5, 71, 0
7, 78060, Note_on_c, 5, 72, 90
7, 78089, Note_on_c, 5, 72, 0
7, 78090, Note_on_c, 5, 74, 90
7, 78119, Note_on_c, 5, 74, 0
7, 78120, Note_on_c, 5, 71, 90
7, 78180, Note_on_c, 5, 71, 0
7, 78180, Note_on_c, 5, 69, 90
7, 78209, Note_on_c, 5, 69, 0
7, 78210, Note_on_c, 5, 67, 90
7, 78239, Note_on_c, 5, 67, 0
7, 78240, Note_on_c, 5, 67, 90
7, 78360, Note_on_c, 5, 67, 0
7, 78480, Note_on_c, 5, 69, 90
7, 78540, Note_on_c, 5, 69, 0
7, 78540, Note_on_c, 5, 72, 90
7, 78600, Note_on_c, 5, 72, 0
7, 78600, Note_on_c, 5, 71, 90
7, 78660, Note_on_c, 5, 71, 0
7, 78660, Note_on_c, 5, 69, 90
7, 78689, Note_on_c, 5, 69, 0
7, 78690, Note_on_c, 5, 67, 90
7, 78719, Note_on_c, 5, 67, 0
7, 78720, Note_on_c, 5, 69, 90
7, 78780, Note_on_c, 5, 69, 0
7, 78780, Note_on_c, 5, 72, 90
7, 78840, Note_on_c, 5, 72, 0
7, 78840, Note_on_c, 5, 71, 90
7, 78900, Note_on_c, 5, 71, 0
7, 78900, Note_on_c, 5, 69, 90
7, 78929, Note_on_c, 5, 69, 0
7, 78930, Note_on_c, 5, 67, 90
7, 78959, Note_on_c, 5, 67, 0
7, 78960, Note_on_c, 5, 69, 90
7, 79020, Note_on_c, 5, 69, 0
7, 79020, Note_on_c, 5, 72, 90
7, 79080, Note_on_c, 5, 72, 0
7, 79080, Note_on_c, 5, 71, 90
7, 79140, Note_on_c, 5, 71, 0
7, 79140, Note_on_c, 5, 69, 90
7, 79169, Note_on_c, 5, 69, 0
7, 79170, Note_on_c, 5, 67, 90
7, 79199, Note_on_c, 5, 67, 0
7, 79200, Note_on_c, 5, 69, 90
7, 79260, Note_on_c, 5, 69, 0
7, 79260, Note_on_c, 5, 72, 90
7, 79320, Note_on_c, 5, 72, 0
7, 79320, Note_on_c, 5, 71, 90
7, 79380, Note_on_c, 5, 71, 0
7, 79380, Note_on_c, 5, 69, 90
7, 79410, Note_on_c, 5, 69, 0
7, 79410, Note_on_c, 5, 67, 90
7, 79440, Note_on_c, 5, 67, 0
7, 79440, Note_on_c, 5, 76, 90
7, 79559, Note_on_c, 5, 76, 0
7, 79560, Note_on_c, 5, 73, 90
7, 79679, Note_on_c, 5, 73, 0
7, 79680, Note_on_c, 5, 70, 90
7, 79740, Note_on_c, 5, 70, 0
7, 79740, Note_on_c, 5, 78, 90
7, 79800, Note_on_c, 5, 78, 0
7, 79800, Note_on_c, 5, 74, 90
7, 79860, Note_on_c, 5, 74, 0
7, 79860, Note_on_c, 5, 73, 90
7, 79890, Note_on_c, 5, 73, 0
7, 79890, Note_on_c, 5, 71, 90
7, 79920, Note_on_c, 5, 71, 0
7, 79920, Note_on_c, 5, 71, 90
7, 80040, Note_on_c, 5, 71, 0
7, 80100, Note_on_c, 5, 74, 90
7, 80160, Note_on_c, 5, 74, 0
7, 80160, Note_on_c, 5, 73, 90
7, 80249, Note_on_c, 5, 73, 0
7, 80250, Note_on_c, 5, 74, 90
7, 80264, Note_on_c, 5, 74, 0
7, 80265, Note_on_c, 5, 76, 90
7, 80279, Note_on_c, 5, 76, 0
7, 80280, Note_on_c, 5, 73, 90
7, 80400, Note_on_c, 5, 73, 0
7, 80400, Note_on_c, 5, 70, 90
7, 80520, Note_on_c, 5, 70, 0
7, 80520, Note_on_c, 5, 71, 90
7, 80580, Note_on_c, 5, 71, 0
7, 80580, Note_on_c, 5, 73, 90
7, 80640, Note_on_c, 5, 73, 0
7, 80640, Note_on_c, 5, 74, 90
7, 80700, Note_on_c, 5, 74, 0
7, 80700, Note_on_c, 5, 79, 90
7, 80729, Note_on_c, 5, 79, 0
7, 80730, Note_on_c, 5, 78, 90
7, 80759, Note_on_c, 5, 78, 0
7, 80760, Note_on_c, 5, 74, 90
7, 80820, Note_on_c, 5, 74, 0
7, 80820, Note_on_c, 5, 73, 90
7, 80849, Note_on_c, 5, 73, 0
7, 80850, Note_on_c, 5, 71, 90
7, 80879, Note_on_c, 5, 71, 0
7, 80880, Note_on_c, 5, 71, 90
7, 81000, Note_on_c, 5, 71, 0
7, 83280, Note_on_c, 5, 76, 90
7, 83400, Note_on_c, 5, 76, 0
7, 83400, Note_on_c, 5, 76, 90
7, 83490, Note_on_c, 5, 76, 0
7, 83490, Note_on_c, 5, 78, 90
7, 83505, Note_on_c, 5, 78, 0
7, 83505, Note_on_c, 5, 79, 90
7, 83520, Note_on_c, 5, 79, 0
7, 83520, Note_on_c, 5, 78, 90
7, 83580, Note_on_c, 5, 78, 0
7, 83580, Note_on_c, 5, 73, 90
7, 83640, Note_on_c, 5, 73, 0
7, 83640, Note_on_c, 5, 74, 90
7, 83730, Note_on_c, 5, 74, 0
7, 83730, Note_on_c, 5, 76, 90
7, 83760, Note_on_c, 5, 76, 0
7, 83760, Note_on_c, 5, 69, 90
7, 83880, Note_on_c, 5, 69, 0
7, 84000, Note_on_c, 5, 78, 90
7, 84090, Note_on_c, 5, 78, 0
7, 84090, Note_on_c, 5, 79, 90
7, 84105, Note_on_c, 5, 79, 0
7, 84105, Note_on_c, 5, 81, 90
7, 84120, Note_on_c, 5, 81, 0
7, 84120, Note_on_c, 5, 78, 90
7, 84240, Note_on_c, 5, 78, 0
7, 84240, Note_on_c, 5, 74, 90
7, 84420, Note_on_c, 5, 74, 0
7, 84420, Note_on_c, 5, 79, 90
7, 84480, Note_on_c, 5, 79, 0
7, 84480, Note_on_c, 5, 78, 90
7, 84600, Note_on_c, 5, 78, 0
7, 84600, Note_on_c, 5, 76, 90
7, 84629, Note_on_c, 5, 76, 0
7, 84630, Note_on_c, 5, 74, 90
7, 84659, Note_on_c, 5, 74, 0
7, 84660, Note_on_c, 5, 76, 90
7, 84720, Note_on_c, 5, 76, 0
7, 84720, Note_on_c, 5, 74, 90
7, 84840, Note_on_c, 5, 74, 0
7, 84960, Note_on_c, 5, 76, 90
7, 85020, Note_on_c, 5, 76, 0
7, 85020, Note_on_c, 5, 79, 90
7, 85080, Note_on_c, 5, 79, 0
7, 85080, Note_on_c, 5, 78, 90
7, 85140, Note_on_c, 5, 78, 0
7, 85140, Note_on_c, 5, 76, 90
7, 85169, Note_on_c, 5, 76, 0
7, 85170, Note_on_c, 5, 74, 90
7, 85199, Note_on_c, 5, 74, 0
7, 85200, Note_on_c, 5, 76, 90
7, 85260, Note_on_c, 5, 76, 0
7, 85260, Note_on_c, 5, 79, 90
7, 85320, Note_on_c, 5, 79, 0
7, 85320, Note_on_c, 5, 78, 90
7, 85440, Note_on_c, 5, 78, 0
7, 85440, Note_on_c, 5, 76, 90
7, 85500, Note_on_c, 5, 76, 0
7, 85500, Note_on_c, 5, 79, 90
7, 85560, Note_on_c, 5, 79, 0
7, 85560, Note_on_c, 5, 78, 90
7, 85620, Note_on_c, 5, 78, 0
7, 85620, Note_on_c, 5, 76, 90
7, 85650, Note_on_c, 5, 76, 0
7, 85650, Note_on_c, 5, 74, 90
7, 85680, Note_on_c, 5, 74, 0
7, 85680, Note_on_c, 5, 76, 90
7, 85740, Note_on_c, 5, 76, 0
7, 85740, Note_on_c, 5, 79, 90
7, 85800, Note_on_c, 5, 79, 0
7, 85800, Note_on_c, 5, 78, 90
7, 85920, Note_on_c, 5, 78, 0
7, 85920, Note_on_c, 5, 72, 90
7, 86100, Note_on_c, 5, 72, 0
7, 86100, Note_on_c, 5, 74, 90
7, 86160, Note_on_c, 5, 74, 0
7, 86160, Note_on_c, 5, 71, 90
7, 86340, Note_on_c, 5, 71, 0
7, 86340, Note_on_c, 5, 73, 90
7, 86400, Note_on_c, 5, 73, 0
7, 86400, Note_on_c, 5, 74, 90
7, 86580, Note_on_c, 5, 74, 0
7, 86580, Note_on_c, 5, 76, 90
7, 86640, Note_on_c, 5, 76, 0
7, 86640, Note_on_c, 5, 73, 90
7, 86760, Note_on_c, 5, 73, 0
7, 86760, Note_on_c, 5, 75, 90
7, 86820, Note_on_c, 5, 75, 0
7, 86820, Note_on_c, 5, 76, 90
7, 86880, Note_on_c, 5, 76, 0
7, 86880, Note_on_c, 5, 75, 90
7, 86940, Note_on_c, 5, 75, 0
7, 86940, Note_on_c, 5, 76, 90
7, 87000, Note_on_c, 5, 76, 0
7, 87000, Note_on_c, 5, 71, 90
7, 87060, Note_on_c, 5, 71, 0
7, 87060, Note_on_c, 5, 79, 90
7, 87120, Note_on_c, 5, 79, 0
7, 87120, Note_on_c, 5, 78, 90
7, 87240, Note_on_c, 5, 78, 0
7, 87240, Note_on_c, 5, 76, 90
7, 87300, Note_on_c, 5, 76, 0
7, 87300, Note_on_c, 5, 71, 90
7, 87360, Note_on_c, 5, 71, 0
7, 87360, Note_on_c, 5, 72, 90
7, 87420, Note_on_c, 5, 72, 0
7, 87420, Note_on_c, 5, 71, 90
7, 87480, Note_on_c, 5, 71, 0
7, 87480, Note_on_c, 5, 69, 90
7, 87540, Note_on_c, 5, 69, 0
7, 87540, Note_on_c, 5, 74, 90
7, 87600, Note_on_c, 5, 74, 0
7, 87600, Note_on_c, 5, 71, 90
7, 87720, Note_on_c, 5, 71, 0
7, 87720, Note_on_c, 5, 71, 90
7, 87780, Note_on_c, 5, 71, 0
7, 87780, Note_on_c, 5, 76, 90
7, 87840, Note_on_c, 5, 76, 0
7, 87840, Note_on_c, 5, 75, 90
7, 87900, Note_on_c, 5, 75, 0
7, 87900, Note_on_c, 5, 76, 90
7, 87960, Note_on_c, 5, 76, 0
7, 87960, Note_on_c, 5, 69, 90
7, 88020, Note_on_c, 5, 69, 0
7, 88020, Note_on_c, 5, 71, 90
7, 88050, Note_on_c, 5, 71, 0
7, 88050, Note_on_c, 5, 72, 90
7, 88080, Note_on_c, 5, 72, 0
7, 88080, Note_on_c, 5, 66, 90
7, 88199, Note_on_c, 5, 66, 0
7, 88500, Note_on_c, 5, 75, 90
7, 88560, Note_on_c, 5, 75, 0
7, 88560, Note_on_c, 5, 76, 90
7, 88680, Note_on_c, 5, 76, 0
7, 88740, Note_on_c, 5, 71, 90
7, 88800, Note_on_c, 5, 71, 0
7, 88800, Note_on_c, 5, 72, 90
7, 88920, Note_on_c, 5, 72, 0
7, 88920, Note_on_c, 5, 71, 90
7, 88980, Note_on_c, 5, 71, 0
7, 88980, Note_on_c, 5, 72, 90
7, 89010, Note_on_c, 5, 72, 0
7, 89010, Note_on_c, 5, 69, 90
7, 89040, Note_on_c, 5, 69, 0
7, 89040, Note_on_c, 5, 67, 90
7, 89160, Note_on_c, 5, 67, 0
7, 89160, Note_on_c, 5, 76, 90
7, 89280, Note_on_c, 5, 76, 0
7, 89340, Note_on_c, 5, 79, 90
7, 89400, Note_on_c, 5, 79, 0
7, 89400, Note_on_c, 5, 78, 90
7, 89460, Note_on_c, 5, 78, 0
7, 89460, Note_on_c, 5, 76, 90
7, 89520, Note_on_c, 5, 76, 0
7, 89520, Note_on_c, 5, 75, 90
7, 89580, Note_on_c, 5, 75, 0
7, 89580, Note_on_c, 5, 73, 90
7, 89640, Note_on_c, 5, 73, 0
7, 89640, Note_on_c, 5, 71, 90
7, 89700, Note_on_c, 5, 71, 0
7, 89700, Note_on_c, 5, 76, 90
7, 89760, Note_on_c, 5, 76, 0
7, 89760, Note_on_c, 5, 67, 90
7, 89880, Note_on_c, 5, 67, 0
7, 89880, Note_on_c, 5, 66, 90
7, 89910, Note_on_c, 5, 66, 0
7, 89910, Note_on_c, 5, 64, 90
7, 89940, Note_on_c, 5, 64, 0
7, 89940, Note_on_c, 5, 66, 90
7, 89999, Note_on_c, 5, 66, 0
7, 90000, Note_on_c, 5, 64, 90
7, 90120, Note_on_c, 5, 64, 0
7, 93540, Note_on_c, 5, 69, 90
7, 93600, Note_on_c, 5, 69, 0
7, 93600, Note_on_c, 5, 76, 90
7, 93660, Note_on_c, 5, 76, 0
7, 93660, Note_on_c, 5, 76, 90
7, 93720, Note_on_c, 5, 76, 0
7, 93720, Note_on_c, 5, 73, 90
7, 93780, Note_on_c, 5, 73, 0
7, 93780, Note_on_c, 5, 76, 90
7, 93840, Note_on_c, 5, 76, 0
7, 93840, Note_on_c, 5, 69, 90
7, 93900, Note_on_c, 5, 69, 0
7, 93900, Note_on_c, 5, 69, 90
7, 93960, Note_on_c, 5, 69, 0
7, 93990, Note_on_c, 5, 69, 90
7, 94020, Note_on_c, 5, 69, 0
7, 94020, Note_on_c, 5, 73, 90
7, 94050, Note_on_c, 5, 73, 0
7, 94050, Note_on_c, 5, 74, 90
7, 94080, Note_on_c, 5, 74, 0
7, 94080, Note_on_c, 5, 76, 90
7, 94140, Note_on_c, 5, 76, 0
7, 94140, Note_on_c, 5, 76, 90
7, 94200, Note_on_c, 5, 76, 0
7, 94200, Note_on_c, 5, 78, 90
7, 94260, Note_on_c, 5, 78, 0
7, 94260, Note_on_c, 5, 73, 90
7, 94320, Note_on_c, 5, 73, 0
7, 94320, Note_on_c, 5, 74, 90
7, 94380, Note_on_c, 5, 74, 0
7, 94380, Note_on_c, 5, 74, 90
7, 94440, Note_on_c, 5, 74, 0
7, 94500, Note_on_c, 5, 74, 90
7, 94560, Note_on_c, 5, 74, 0
7, 94560, Note_on_c, 5, 74, 90
7, 94680, Note_on_c, 5, 74, 0
7, 94680, Note_on_c, 5, 69, 90
7, 94800, Note_on_c, 5, 69, 0
7, 94800, Note_on_c, 5, 69, 90
7, 94860, Note_on_c, 5, 69, 0
7, 94860, Note_on_c, 5, 69, 90
7, 94920, Note_on_c, 5, 69, 0
7, 94920, Note_on_c, 5, 71, 90
7, 94980, Note_on_c, 5, 71, 0
7, 94980, Note_on_c, 5, 72, 90
7, 95040, Note_on_c, 5, 72, 0
7, 95040, Note_on_c, 5, 71, 90
7, 95100, Note_on_c, 5, 71, 0
7, 95100, Note_on_c, 5, 71, 90
7, 95160, Note_on_c, 5, 71, 0
7, 95220, Note_on_c, 5, 71, 90
7, 95280, Note_on_c, 5, 71, 0
7, 95280, Note_on_c, 5, 79, 90
7, 95399, Note_on_c, 5, 79, 0
7, 95400, Note_on_c, 5, 76, 90
7, 95519, Note_on_c, 5, 76, 0
7, 95520, Note_on_c, 5, 73, 90
7, 95639, Note_on_c, 5, 73, 0
7, 95700, Note_on_c, 5, 76, 90
7, 95759, Note_on_c, 5, 76, 0
7, 95760, Note_on_c, 5, 69, 90
7, 95879, Note_on_c, 5, 69, 0
7, 95940, Note_on_c, 5, 74, 90
7, 95999, Note_on_c, 5, 74, 0
7, 96000, Note_on_c, 5, 67, 90
7, 96029, Note_on_c, 5, 67, 0
7, 96030, Note_on_c, 5, 66, 90
7, 96059, Note_on_c, 5, 66, 0
7, 96060, Note_on_c, 5, 64, 90
7, 96089, Note_on_c, 5, 64, 0
7, 96090, Note_on_c, 5, 66, 90
7, 96119, Note_on_c, 5, 66, 0
7, 96120, Note_on_c, 5, 67, 90
7, 96149, Note_on_c, 5, 67, 0
7, 96150, Note_on_c, 5, 71, 90
7, 96179, Note_on_c, 5, 71, 0
7, 96180, Note_on_c, 5, 69, 90
7, 96209, Note_on_c, 5, 69, 0
7, 96210, Note_on_c, 5, 67, 90
7, 96239, Note_on_c, 5, 67, 0
7, 96240, Note_on_c, 5, 66, 90
7, 96269, Note_on_c, 5, 66, 0
7, 96270, Note_on_c, 5, 69, 90
7, 96299, Note_on_c, 5, 69, 0
7, 96300, Note_on_c, 5, 71, 90
7, 96329, Note_on_c, 5, 71, 0
7, 96330, Note_on_c, 5, 73, 90
7, 96359, Note_on_c, 5, 73, 0
7, 96360, Note_on_c, 5, 74, 90
7, 96389, Note_on_c, 5, 74, 0
7, 96390, Note_on_c, 5, 76, 90
7, 96419, Note_on_c, 5, 76, 0
7, 96420, Note_on_c, 5, 74, 90
7, 96449, Note_on_c, 5, 74, 0
7, 96450, Note_on_c, 5, 73, 90
7, 96479, Note_on_c, 5, 73, 0
7, 96480, Note_on_c, 5, 71, 90
7, 96509, Note_on_c, 5, 71, 0
7, 96510, Note_on_c, 5, 74, 90
7, 96539, Note_on_c, 5, 74, 0
7, 96540, Note_on_c, 5, 73, 90
7, 96569, Note_on_c, 5, 73, 0
7, 96570, Note_on_c, 5, 74, 90
7, 96599, Note_on_c, 5, 74, 0
7, 96600, Note_on_c, 5, 76, 90
7, 96629, Note_on_c, 5, 76, 0
7, 96630, Note_on_c, 5, 78, 90
7, 96659, Note_on_c, 5, 78, 0
7, 96660, Note_on_c, 5, 76, 90
7, 96689, Note_on_c, 5, 76, 0
7, 96690, Note_on_c, 5, 74, 90
7, 96719, Note_on_c, 5, 74, 0
7, 96720, Note_on_c, 5, 73, 90
7, 96779, Note_on_c, 5, 73, 0
7, 96780, Note_on_c, 5, 69, 90
7, 96839, Note_on_c, 5, 69, 0
7, 96900, Note_on_c, 5, 76, 90
7, 96959, Note_on_c, 5, 76, 0
7, 96960, Note_on_c, 5, 81, 90
7, 97079, Note_on_c, 5, 81, 0
7, 97080, Note_on_c, 5, 78, 90
7, 97199, Note_on_c, 5, 78, 0
7, 97200, Note_on_c, 5, 74, 90
7, 97379, Note_on_c, 5, 74, 0
7, 97380, Note_on_c, 5, 76, 90
7, 97439, Note_on_c, 5, 76, 0
7, 97440, Note_on_c, 5, 69, 90
7, 97499, Note_on_c, 5, 69, 0
7, 97500, Note_on_c, 5, 79, 90
7, 97559, Note_on_c, 5, 79, 0
7, 97560, Note_on_c, 5, 78, 90
7, 97619, Note_on_c, 5, 78, 0
7, 97620, Note_on_c, 5, 76, 90
7, 97649, Note_on_c, 5, 76, 0
7, 97650, Note_on_c, 5, 74, 90
7, 97679, Note_on_c, 5, 74, 0
7, 97680, Note_on_c, 5, 74, 90
7, 97799, Note_on_c, 5, 74, 0
7, 97800, Note_on_c, 5, 74, 90
7, 97919, Note_on_c, 5, 74, 0
7, 102720, Note_on_c, 5, 74, 90
7, 102780, Note_on_c, 5, 74, 0
7, 102780, Note_on_c, 5, 69, 90
7, 102840, Note_on_c, 5, 69, 0
7, 102840, Note_on_c, 5, 74, 90
7, 102869, Note_on_c, 5, 74, 0
7, 102870, Note_on_c, 5, 73, 90
7, 102899, Note_on_c, 5, 73, 0
7, 102900, Note_on_c, 5, 74, 90
7, 102960, Note_on_c, 5, 74, 0
7, 102960, Note_on_c, 5, 74, 90
7, 103020, Note_on_c, 5, 74, 0
7, 103020, Note_on_c, 5, 76, 90
7, 103080, Note_on_c, 5, 76, 0
7, 103080, Note_on_c, 5, 78, 90
7, 103140, Note_on_c, 5, 78, 0
7, 103140, Note_on_c, 5, 73, 90
7, 103200, Note_on_c, 5, 73, 0
7, 103200, Note_on_c, 5, 76, 90
7, 103229, Note_on_c, 5, 76, 0
7, 103230, Note_on_c, 5, 74, 90
7, 103259, Note_on_c, 5, 74, 0
7, 103260, Note_on_c, 5, 76, 90
7, 103320, Note_on_c, 5, 76, 0
7, 103320, Note_on_c, 5, 76, 90
7, 103380, Note_on_c, 5, 76, 0
7, 103380, Note_on_c, 5, 78, 90
7, 103440, Note_on_c, 5, 78, 0
7, 103440, Note_on_c, 5, 79, 90
7, 103500, Note_on_c, 5, 79, 0
7, 103500, Note_on_c, 5, 69, 90
7, 103560, Note_on_c, 5, 69, 0
7, 103560, Note_on_c, 5, 78, 90
7, 103589, Note_on_c, 5, 78, 0
7, 103590, Note_on_c, 5, 76, 90
7, 103619, Note_on_c, 5, 76, 0
7, 103620, Note_on_c, 5, 78, 90
7, 103680, Note_on_c, 5, 78, 0
7, 103680, Note_on_c, 5, 78, 90
7, 103740, Note_on_c, 5, 78, 0
7, 103740, Note_on_c, 5, 76, 90
7, 103769, Note_on_c, 5, 76, 0
7, 103770, Note_on_c, 5, 74, 90
7, 103799, Note_on_c, 5, 74, 0
7, 103800, Note_on_c, 5, 73, 90
7, 103829, Note_on_c, 5, 73, 0
7, 103830, Note_on_c, 5, 74, 90
7, 103859, Note_on_c, 5, 74, 0
7, 103860, Note_on_c, 5, 76, 90
7, 103889, Note_on_c, 5, 76, 0
7, 103890, Note_on_c, 5, 78, 90
7, 103919, Note_on_c, 5, 78, 0
7, 103920, Note_on_c, 5, 76, 90
7, 103949, Note_on_c, 5, 76, 0
7, 103950, Note_on_c, 5, 74, 90
7, 103979, Note_on_c, 5, 74, 0
7, 103980, Note_on_c, 5, 73, 90
7, 104009, Note_on_c, 5, 73, 0
7, 104010, Note_on_c, 5, 71, 90
7, 104039, Note_on_c, 5, 71, 0
7, 104040, Note_on_c, 5, 69, 90
7, 104160, Note_on_c, 5, 69, 0
7, 104160, Note_on_c, 5, 76, 90
7, 104219, Note_on_c, 5, 76, 0
7, 104220, Note_on_c, 5, 78, 90
7, 104279, Note_on_c, 5, 78, 0
7, 104280, Note_on_c, 5, 76, 90
7, 104310, Note_on_c, 5, 76, 0
7, 104310, Note_on_c, 5, 74, 90
7, 104340, Note_on_c, 5, 74, 0
7, 104340, Note_on_c, 5, 78, 90
7, 104399, Note_on_c, 5, 78, 0
7, 104400, Note_on_c, 5, 78, 90
7, 104459, Note_on_c, 5, 78, 0
7, 104460, Note_on_c, 5, 71, 90
7, 104519, Note_on_c, 5, 71, 0
7, 104520, Note_on_c, 5, 74, 90
7, 104579, Note_on_c, 5, 74, 0
7, 104580, Note_on_c, 5, 76, 90
7, 104639, Note_on_c, 5, 76, 0
7, 104640, Note_on_c, 5, 74, 90
7, 104670, Note_on_c, 5, 74, 0
7, 104670, Note_on_c, 5, 73, 90
7, 104700, Note_on_c, 5, 73, 0
7, 104700, Note_on_c, 5, 76, 90
7, 104759, Note_on_c, 5, 76, 0
7, 104760, Note_on_c, 5, 76, 90
7, 104819, Note_on_c, 5, 76, 0
7, 104820, Note_on_c, 5, 69, 90
7, 104879, Note_on_c, 5, 69, 0
7, 104880, Note_on_c, 5, 73, 90
7, 104939, Note_on_c, 5, 73, 0
7, 104940, Note_on_c, 5, 74, 90
7, 104999, Note_on_c, 5, 74, 0
7, 105000, Note_on_c, 5, 76, 90
7, 105059, Note_on_c, 5, 76, 0
7, 105060, Note_on_c, 5, 78, 90
7, 105119, Note_on_c, 5, 78, 0
7, 105120, Note_on_c, 5, 76, 90
7, 105179, Note_on_c, 5, 76, 0
7, 105180, Note_on_c, 5, 78, 90
7, 105210, Note_on_c, 5, 78, 0
7, 105210, Note_on_c, 5, 76, 90
7, 105240, Note_on_c, 5, 76, 0
7, 105240, Note_on_c, 5, 74, 90
7, 105270, Note_on_c, 5, 74, 0
7, 105270, Note_on_c, 5, 76, 90
7, 105300, Note_on_c, 5, 76, 0
7, 105300, Note_on_c, 5, 73, 90
7, 105359, Note_on_c, 5, 73, 0
7, 105360, Note_on_c, 5, 71, 90
7, 105390, Note_on_c, 5, 71, 0
7, 105390, Note_on_c, 5, 69, 90
7, 105420, Note_on_c, 5, 69, 0
7, 105420, Note_on_c, 5, 74, 90
7, 105479, Note_on_c, 5, 74, 0
7, 105480, Note_on_c, 5, 71, 90
7, 105600, Note_on_c, 5, 71, 0
7, 105600, Note_on_c, 5, 69, 90
7, 105659, Note_on_c, 5, 69, 0
7, 105660, Note_on_c, 5, 64, 90
7, 105719, Note_on_c, 5, 64, 0
7, 105720, Note_on_c, 5, 69, 90
7, 105750, Note_on_c, 5, 69, 0
7, 105750, Note_on_c, 5, 68, 90
7, 105780, Note_on_c, 5, 68, 0
7, 105780, Note_on_c, 5, 69, 90
7, 105839, Note_on_c, 5, 69, 0
7, 105840, Note_on_c, 5, 69, 90
7, 105899, Note_on_c, 5, 69, 0
7, 105900, Note_on_c, 5, 71, 90
7, 105959, Note_on_c, 5, 71, 0
7, 105960, Note_on_c, 5, 73, 90
7, 106019, Note_on_c, 5, 73, 0
7, 106020, Note_on_c, 5, 64, 90
7, 106079, Note_on_c, 5, 64, 0
7, 106080, Note_on_c, 5, 71, 90
7, 106110, Note_on_c, 5, 71, 0
7, 106110, Note_on_c, 5, 69, 90
7, 106140, Note_on_c, 5, 69, 0
7, 106140, Note_on_c, 5, 71, 90
7, 106199, Note_on_c, 5, 71, 0
7, 106200, Note_on_c, 5, 71, 90
7, 106259, Note_on_c, 5, 71, 0
7, 106260, Note_on_c, 5, 73, 90
7, 106319, Note_on_c, 5, 73, 0
7, 106320, Note_on_c, 5, 74, 90
7, 106379, Note_on_c, 5, 74, 0
7, 106380, Note_on_c, 5, 73, 90
7, 106439, Note_on_c, 5, 73, 0
7, 106440, Note_on_c, 5, 71, 90
7, 106470, Note_on_c, 5, 71, 0
7, 106470, Note_on_c, 5, 69, 90
7, 106500, Note_on_c, 5, 69, 0
7, 106500, Note_on_c, 5, 68, 90
7, 106530, Note_on_c, 5, 68, 0
7, 106530, Note_on_c, 5, 66, 90
7, 106560, Note_on_c, 5, 66, 0
7, 106560, Note_on_c, 5, 64, 90
7, 106620, Note_on_c, 5, 64, 0
7, 106620, Note_on_c, 5, 69, 90
7, 106680, Note_on_c, 5, 69, 0
7, 106680, Note_on_c, 5, 71, 90
7, 106740, Note_on_c, 5, 71, 0
7, 106740, Note_on_c, 5, 73, 90
7, 106800, Note_on_c, 5, 73, 0
7, 106800, Note_on_c, 5, 74, 90
7, 106830, Note_on_c, 5, 74, 0
7, 106830, Note_on_c, 5, 73, 90
7, 106860, Note_on_c, 5, 73, 0
7, 106860, Note_on_c, 5, 71, 90
7, 106890, Note_on_c, 5, 71, 0
7, 106890, Note_on_c, 5, 73, 90
7, 106920, Note_on_c, 5, 73, 0
7, 106920, Note_on_c, 5, 69, 90
7, 107040, Note_on_c, 5, 69, 0
7, 109560, Note_on_c, 5, 76, 90
7, 109620, Note_on_c, 5, 76, 0
7, 109620, Note_on_c, 5, 78, 90
7, 109680, Note_on_c, 5, 78, 0
7, 109680, Note_on_c, 5, 76, 90
7, 109709, Note_on_c, 5, 76, 0
7, 109710, Note_on_c, 5, 74, 90
7, 109739, Note_on_c, 5, 74, 0
7, 109740, Note_on_c, 5, 76, 90
7, 109800, Note_on_c, 5, 76, 0
7, 109800, Note_on_c, 5, 78, 90
7, 109860, Note_on_c, 5, 78, 0
7, 109860, Note_on_c, 5, 74, 90
7, 109920, Note_on_c, 5, 74, 0
7, 109920, Note_on_c, 5, 69, 90
7, 109980, Note_on_c, 5, 69, 0
7, 109980, Note_on_c, 5, 71, 90
7, 110040, Note_on_c, 5, 71, 0
7, 110040, Note_on_c, 5, 69, 90
7, 110069, Note_on_c, 5, 69, 0
7, 110070, Note_on_c, 5, 67, 90
7, 110099, Note_on_c, 5, 67, 0
7, 110100, Note_on_c, 5, 69, 90
7, 110160, Note_on_c, 5, 69, 0
7, 110160, Note_on_c, 5, 71, 90
7, 110220, Note_on_c, 5, 71, 0
7, 110220, Note_on_c, 5, 67, 90
7, 110280, Note_on_c, 5, 67, 0
7, 110280, Note_on_c, 5, 71, 90
7, 110340, Note_on_c, 5, 71, 0
7, 110340, Note_on_c, 5, 76, 90
7, 110369, Note_on_c, 5, 76, 0
7, 110370, Note_on_c, 5, 75, 90
7, 110399, Note_on_c, 5, 75, 0
7, 110400, Note_on_c, 5, 76, 90
7, 110460, Note_on_c, 5, 76, 0
7, 110460, Note_on_c, 5, 78, 90
7, 110520, Note_on_c, 5, 78, 0
7, 110520, Note_on_c, 5, 79, 90
7, 110610, Note_on_c, 5, 79, 0
7, 110610, Note_on_c, 5, 78, 90
7, 110639, Note_on_c, 5, 78, 0
7, 110640, Note_on_c, 5, 76, 90
7, 110700, Note_on_c, 5, 76, 0
7, 110700, Note_on_c, 5, 74, 90
7, 110760, Note_on_c, 5, 74, 0
7, 110760, Note_on_c, 5, 73, 90
7, 110789, Note_on_c, 5, 73, 0
7, 110790, Note_on_c, 5, 71, 90
7, 110819, Note_on_c, 5, 71, 0
7, 110820, Note_on_c, 5, 76, 90
7, 110880, Note_on_c, 5, 76, 0
7, 110880, Note_on_c, 5, 73, 90
7, 110940, Note_on_c, 5, 73, 0
7, 111000, Note_on_c, 5, 74, 90
7, 111060, Note_on_c, 5, 74, 0
7, 111060, Note_on_c, 5, 69, 90
7, 111120, Note_on_c, 5, 69, 0
7, 111120, Note_on_c, 5, 74, 90
7, 111150, Note_on_c, 5, 74, 0
7, 111150, Note_on_c, 5, 73, 90
7, 111180, Note_on_c, 5, 73, 0
7, 111180, Note_on_c, 5, 74, 90
7, 111240, Note_on_c, 5, 74, 0
7, 111240, Note_on_c, 5, 74, 90
7, 111300, Note_on_c, 5, 74, 0
7, 111300, Note_on_c, 5, 76, 90
7, 111360, Note_on_c, 5, 76, 0
7, 111360, Note_on_c, 5, 78, 90
7, 111420, Note_on_c, 5, 78, 0
7, 111420, Note_on_c, 5, 69, 90
7, 111480, Note_on_c, 5, 69, 0
7, 111480, Note_on_c, 5, 76, 90
7, 111510, Note_on_c, 5, 76, 0
7, 111510, Note_on_c, 5, 74, 90
7, 111540, Note_on_c, 5, 74, 0
7, 111540, Note_on_c, 5, 76, 90
7, 111600, Note_on_c, 5, 76, 0
7, 111600, Note_on_c, 5, 76, 90
7, 111660, Note_on_c, 5, 76, 0
7, 111660, Note_on_c, 5, 78, 90
7, 111720, Note_on_c, 5, 78, 0
7, 111720, Note_on_c, 5, 79, 90
7, 111780, Note_on_c, 5, 79, 0
7, 111780, Note_on_c, 5, 78, 90
7, 111840, Note_on_c, 5, 78, 0
7, 111840, Note_on_c, 5, 76, 90
7, 111869, Note_on_c, 5, 76, 0
7, 111870, Note_on_c, 5, 74, 90
7, 111899, Note_on_c, 5, 74, 0
7, 111900, Note_on_c, 5, 73, 90
7, 111929, Note_on_c, 5, 73, 0
7, 111930, Note_on_c, 5, 71, 90
7, 111959, Note_on_c, 5, 71, 0
7, 111960, Note_on_c, 5, 69, 90
7, 112020, Note_on_c, 5, 69, 0
7, 112020, Note_on_c, 5, 71, 90
7, 112049, Note_on_c, 5, 71, 0
7, 112050, Note_on_c, 5, 69, 90
7, 112079, Note_on_c, 5, 69, 0
7, 112080, Note_on_c, 5, 67, 90
7, 112109, Note_on_c, 5, 67, 0
7, 112110, Note_on_c, 5, 69, 90
7, 112139, Note_on_c, 5, 69, 0
7, 112140, Note_on_c, 5, 66, 90
7, 112200, Note_on_c, 5, 66, 0
7, 112200, Note_on_c, 5, 74, 90
7, 112260, Note_on_c, 5, 74, 0
7, 112260, Note_on_c, 5, 73, 90
7, 112320, Note_on_c, 5, 73, 0
7, 112320, Note_on_c, 5, 74, 90
7, 112440, Note_on_c, 5, 74, 0
7, 116400, Note_on_c, 5, 73, 90
7, 116459, Note_on_c, 5, 73, 0
7, 116460, Note_on_c, 5, 74, 90
7, 116519, Note_on_c, 5, 74, 0
7, 116520, Note_on_c, 5, 78, 90
7, 116550, Note_on_c, 5, 78, 0
7, 116550, Note_on_c, 5, 76, 90
7, 116580, Note_on_c, 5, 76, 0
7, 116580, Note_on_c, 5, 74, 90
7, 116610, Note_on_c, 5, 74, 0
7, 116610, Note_on_c, 5, 73, 90
7, 116640, Note_on_c, 5, 73, 0
7, 116640, Note_on_c, 5, 74, 90
7, 116699, Note_on_c, 5, 74, 0
7, 116700, Note_on_c, 5, 71, 90
7, 116759, Note_on_c, 5, 71, 0
7, 116760, Note_on_c, 5, 74, 90
7, 116819, Note_on_c, 5, 74, 0
7, 116820, Note_on_c, 5, 73, 90
7, 116879, Note_on_c, 5, 73, 0
7, 116880, Note_on_c, 5, 76, 90
7, 116910, Note_on_c, 5, 76, 0
7, 116910, Note_on_c, 5, 74, 90
7, 116940, Note_on_c, 5, 74, 0
7, 116940, Note_on_c, 5, 73, 90
7, 116970, Note_on_c, 5, 73, 0
7, 116970, Note_on_c, 5, 71, 90
7, 117000, Note_on_c, 5, 71, 0
7, 117000, Note_on_c, 5, 73, 90
7, 117059, Note_on_c, 5, 73, 0
7, 117060, Note_on_c, 5, 69, 90
7, 117119, Note_on_c, 5, 69, 0
7, 117120, Note_on_c, 5, 73, 90
7, 117179, Note_on_c, 5, 73, 0
7, 117180, Note_on_c, 5, 78, 90
7, 117210, Note_on_c, 5, 78, 0
7, 117210, Note_on_c, 5, 74, 90
7, 117240, Note_on_c, 5, 74, 0
7, 117240, Note_on_c, 5, 73, 90
7, 117270, Note_on_c, 5, 73, 0
7, 117270, Note_on_c, 5, 71, 90
7, 117300, Note_on_c, 5, 71, 0
7, 117300, Note_on_c, 5, 69, 90
7, 117330, Note_on_c, 5, 69, 0
7, 117330, Note_on_c, 5, 68, 90
7, 117360, Note_on_c, 5, 68, 0
7, 117360, Note_on_c, 5, 69, 90
7, 117390, Note_on_c, 5, 69, 0
7, 117390, Note_on_c, 5, 73, 90
7, 117420, Note_on_c, 5, 73, 0
7, 117420, Note_on_c, 5, 71, 90
7, 117450, Note_on_c, 5, 71, 0
7, 117450, Note_on_c, 5, 69, 90
7, 117480, Note_on_c, 5, 69, 0
7, 117480, Note_on_c, 5, 68, 90
7, 117510, Note_on_c, 5, 68, 0
7, 117510, Note_on_c, 5, 66, 90
7, 117540, Note_on_c, 5, 66, 0
7, 117540, Note_on_c, 5, 74, 90
7, 117600, Note_on_c, 5, 74, 0
7, 117600, Note_on_c, 5, 73, 90
7, 117660, Note_on_c, 5, 73, 0
7, 117660, Note_on_c, 5, 78, 90
7, 117720, Note_on_c, 5, 78, 0
7, 117720, Note_on_c, 5, 77, 90
7, 117840, Note_on_c, 5, 77, 0
7, 117840, Note_on_c, 5, 68, 90
7, 117900, Note_on_c, 5, 68, 0
7, 117900, Note_on_c, 5, 69, 90
7, 117960, Note_on_c, 5, 69, 0
7, 117960, Note_on_c, 5, 68, 90
7, 117990, Note_on_c, 5, 68, 0
7, 117990, Note_on_c, 5, 66, 90
7, 118020, Note_on_c, 5, 66, 0
7, 118020, Note_on_c, 5, 68, 90
7, 118080, Note_on_c, 5, 68, 0
7, 118080, Note_on_c, 5, 69, 90
7, 118140, Note_on_c, 5, 69, 0
7, 118140, Note_on_c, 5, 66, 90
7, 118200, Note_on_c, 5, 66, 0
7, 118200, Note_on_c, 5, 73, 90
7, 118260, Note_on_c, 5, 73, 0
7, 118260, Note_on_c, 5, 73, 90
7, 118320, Note_on_c, 5, 73, 0
7, 118320, Note_on_c, 5, 71, 90
7, 118350, Note_on_c, 5, 71, 0
7, 118350, Note_on_c, 5, 69, 90
7, 118380, Note_on_c, 5, 69, 0
7, 118380, Note_on_c, 5, 68, 90
7, 118410, Note_on_c, 5, 68, 0
7, 118410, Note_on_c, 5, 66, 90
7, 118440, Note_on_c, 5, 66, 0
7, 118440, Note_on_c, 5, 68, 90
7, 118500, Note_on_c, 5, 68, 0
7, 118500, Note_on_c, 5, 61, 90
7, 118560, Note_on_c, 5, 61, 0
7, 118560, Note_on_c, 5, 65, 90
7, 118620, Note_on_c, 5, 65, 0
7, 118620, Note_on_c, 5, 66, 90
7, 118680, Note_on_c, 5, 66, 0
7, 118680, Note_on_c, 5, 68, 90
7, 118740, Note_on_c, 5, 68, 0
7, 118740, Note_on_c, 5, 69, 90
7, 118800, Note_on_c, 5, 69, 0
7, 118800, Note_on_c, 5, 71, 90
7, 118860, Note_on_c, 5, 71, 0
7, 118860, Note_on_c, 5, 73, 90
7, 118920, Note_on_c, 5, 73, 0
7, 118920, Note_on_c, 5, 74, 90
7, 118980, Note_on_c, 5, 74, 0
7, 118980, Note_on_c, 5, 69, 90
7, 119040, Note_on_c, 5, 69, 0
7, 119040, Note_on_c, 5, 71, 90
7, 119070, Note_on_c, 5, 71, 0
7, 119070, Note_on_c, 5, 69, 90
7, 119100, Note_on_c, 5, 69, 0
7, 119100, Note_on_c, 5, 68, 90
7, 119130, Note_on_c, 5, 68, 0
7, 119130, Note_on_c, 5, 69, 90
7, 119160, Note_on_c, 5, 69, 0
7, 119160, Note_on_c, 5, 66, 90
7, 119280, Note_on_c, 5, 66, 0
7, 121800, Note_on_c, 5, 69, 90
7, 121860, Note_on_c, 5, 69, 0
7, 121860, Note_on_c, 5, 68, 90
7, 121920, Note_on_c, 5, 68, 0
7, 121920, Note_on_c, 5, 73, 90
7, 121950, Note_on_c, 5, 73, 0
7, 121950, Note_on_c, 5, 71, 90
7, 121980, Note_on_c, 5, 71, 0
7, 121980, Note_on_c, 5, 73, 90
7, 122010, Note_on_c, 5, 73, 0
7, 122010, Note_on_c, 5, 68, 90
7, 122040, Note_on_c, 5, 68, 0
7, 122040, Note_on_c, 5, 69, 90
7, 122100, Note_on_c, 5, 69, 0
7, 122100, Note_on_c, 5, 71, 90
7, 122160, Note_on_c, 5, 71, 0
7, 122160, Note_on_c, 5, 73, 90
7, 122220, Note_on_c, 5, 73, 0
7, 122220, Note_on_c, 5, 71, 90
7, 122280, Note_on_c, 5, 71, 0
7, 122280, Note_on_c, 5, 76, 90
7, 122310, Note_on_c, 5, 76, 0
7, 122310, Note_on_c, 5, 74, 90
7, 122340, Note_on_c, 5, 74, 0
7, 122340, Note_on_c, 5, 76, 90
7, 122370, Note_on_c, 5, 76, 0
7, 122370, Note_on_c, 5, 71, 90
7, 122400, Note_on_c, 5, 71, 0
7, 122400, Note_on_c, 5, 73, 90
7, 122460, Note_on_c, 5, 73, 0
7, 122460, Note_on_c, 5, 74, 90
7, 122520, Note_on_c, 5, 74, 0
7, 122520, Note_on_c, 5, 76, 90
7, 122580, Note_on_c, 5, 76, 0
7, 122580, Note_on_c, 5, 78, 90
7, 122640, Note_on_c, 5, 78, 0
7, 122640, Note_on_c, 5, 79, 90
7, 122670, Note_on_c, 5, 79, 0
7, 122670, Note_on_c, 5, 78, 90
7, 122700, Note_on_c, 5, 78, 0
7, 122700, Note_on_c, 5, 76, 90
7, 122730, Note_on_c, 5, 76, 0
7, 122730, Note_on_c, 5, 74, 90
7, 122760, Note_on_c, 5, 74, 0
7, 122760, Note_on_c, 5, 76, 90
7, 122820, Note_on_c, 5, 76, 0
7, 122820, Note_on_c, 5, 73, 90
7, 122880, Note_on_c, 5, 73, 0
7, 122880, Note_on_c, 5, 78, 90
7, 122940, Note_on_c, 5, 78, 0
7, 122940, Note_on_c, 5, 74, 90
7, 123000, Note_on_c, 5, 74, 0
7, 123000, Note_on_c, 5, 76, 90
7, 123030, Note_on_c, 5, 76, 0
7, 123030, Note_on_c, 5, 74, 90
7, 123060, Note_on_c, 5, 74, 0
7, 123060, Note_on_c, 5, 73, 90
7, 123090, Note_on_c, 5, 73, 0
7, 123090, Note_on_c, 5, 71, 90
7, 123120, Note_on_c, 5, 71, 0
7, 123120, Note_on_c, 5, 70, 90
7, 123240, Note_on_c, 5, 70, 0
7, 123240, Note_on_c, 5, 78, 90
7, 123300, Note_on_c, 5, 78, 0
7, 123300, Note_on_c, 5, 78, 90
7, 123360, Note_on_c, 5, 78, 0
7, 123360, Note_on_c, 5, 76, 90
7, 123390, Note_on_c, 5, 76, 0
7, 123390, Note_on_c, 5, 74, 90
7, 123420, Note_on_c, 5, 74, 0
7, 123420, Note_on_c, 5, 73, 90
7, 123450, Note_on_c, 5, 73, 0
7, 123450, Note_on_c, 5, 71, 90
7, 123480, Note_on_c, 5, 71, 0
7, 123480, Note_on_c, 5, 78, 90
7, 123540, Note_on_c, 5, 78, 0
7, 123540, Note_on_c, 5, 76, 90
7, 123570, Note_on_c, 5, 76, 0
7, 123570, Note_on_c, 5, 74, 90
7, 123600, Note_on_c, 5, 74, 0
7, 123600, Note_on_c, 5, 73, 90
7, 123630, Note_on_c, 5, 73, 0
7, 123630, Note_on_c, 5, 71, 90
7, 123660, Note_on_c, 5, 71, 0
7, 123660, Note_on_c, 5, 76, 90
7, 123720, Note_on_c, 5, 76, 0
7, 123720, Note_on_c, 5, 74, 90
7, 123750, Note_on_c, 5, 74, 0
7, 123750, Note_on_c, 5, 73, 90
7, 123780, Note_on_c, 5, 73, 0
7, 123780, Note_on_c, 5, 74, 90
7, 123810, Note_on_c, 5, 74, 0
7, 123810, Note_on_c, 5, 71, 90
7, 123840, Note_on_c, 5, 71, 0
7, 123840, Note_on_c, 5, 73, 90
7, 123900, Note_on_c, 5, 73, 0
7, 123900, Note_on_c, 5, 66, 90
7, 123960, Note_on_c, 5, 66, 0
7, 123960, Note_on_c, 5, 70, 90
7, 124020, Note_on_c, 5, 70, 0
7, 124020, Note_on_c, 5, 71, 90
7, 124080, Note_on_c, 5, 71, 0
7, 124080, Note_on_c, 5, 73, 90
7, 124140, Note_on_c, 5, 73, 0
7, 124140, Note_on_c, 5, 74, 90
7, 124200, Note_on_c, 5, 74, 0
7, 124200, Note_on_c, 5, 76, 90
7, 124260, Note_on_c, 5, 76, 0
7, 124260, Note_on_c, 5, 78, 90
7, 124320, Note_on_c, 5, 78, 0
7, 124320, Note_on_c, 5, 79, 90
7, 124380, Note_on_c, 5, 79, 0
7, 124380, Note_on_c, 5, 74, 90
7, 124440, Note_on_c, 5, 74, 0
7, 124440, Note_on_c, 5, 76, 90
7, 124470, Note_on_c, 5, 76, 0
7, 124470, Note_on_c, 5, 74, 90
7, 124500, Note_on_c, 5, 74, 0
7, 124500, Note_on_c, 5, 73, 90
7, 124530, Note_on_c, 5, 73, 0
7, 124530, Note_on_c, 5, 74, 90
7, 124560, Note_on_c, 5, 74, 0
7, 124560, Note_on_c, 5, 71, 90
7, 124679, Note_on_c, 5, 71, 0
7, 128820, Note_on_c, 5, 74, 90
7, 128880, Note_on_c, 5, 74, 0
7, 128880, Note_on_c, 5, 69, 90
7, 128940, Note_on_c, 5, 69, 0
7, 128940, Note_on_c, 5, 74, 90
7, 128969, Note_on_c, 5, 74, 0
7, 128970, Note_on_c, 5, 73, 90
7, 128999, Note_on_c, 5, 73, 0
7, 129000, Note_on_c, 5, 74, 90
7, 129060, Note_on_c, 5, 74, 0
7, 129060, Note_on_c, 5, 74, 90
7, 129120, Note_on_c, 5, 74, 0
7, 129120, Note_on_c, 5, 76, 90
7, 129180, Note_on_c, 5, 76, 0
7, 129180, Note_on_c, 5, 78, 90
7, 129240, Note_on_c, 5, 78, 0
7, 129240, Note_on_c, 5, 73, 90
7, 129300, Note_on_c, 5, 73, 0
7, 129300, Note_on_c, 5, 76, 90
7, 129329, Note_on_c, 5, 76, 0
7, 129330, Note_on_c, 5, 74, 90
7, 129359, Note_on_c, 5, 74, 0
7, 129360, Note_on_c, 5, 76, 90
7, 129420, Note_on_c, 5, 76, 0
7, 129420, Note_on_c, 5, 76, 90
7, 129480, Note_on_c, 5, 76, 0
7, 129480, Note_on_c, 5, 78, 90
7, 129540, Note_on_c, 5, 78, 0
7, 129540, Note_on_c, 5, 79, 90
7, 129600, Note_on_c, 5, 79, 0
7, 129600, Note_on_c, 5, 69, 90
7, 129660, Note_on_c, 5, 69, 0
7, 129660, Note_on_c, 5, 78, 90
7, 129689, Note_on_c, 5, 78, 0
7, 129690, Note_on_c, 5, 76, 90
7, 129719, Note_on_c, 5, 76, 0
7, 129720, Note_on_c, 5, 78, 90
7, 129780, Note_on_c, 5, 78, 0
7, 129780, Note_on_c, 5, 78, 90
7, 129840, Note_on_c, 5, 78, 0
7, 129840, Note_on_c, 5, 76, 90
7, 129869, Note_on_c, 5, 76, 0
7, 129870, Note_on_c, 5, 74, 90
7, 129899, Note_on_c, 5, 74, 0
7, 129900, Note_on_c, 5, 73, 90
7, 129929, Note_on_c, 5, 73, 0
7, 129930, Note_on_c, 5, 74, 90
7, 129959, Note_on_c, 5, 74, 0
7, 129960, Note_on_c, 5, 76, 90
7, 129989, Note_on_c, 5, 76, 0
7, 129990, Note_on_c, 5, 78, 90
7, 130019, Note_on_c, 5, 78, 0
7, 130020, Note_on_c, 5, 76, 90
7, 130049, Note_on_c, 5, 76, 0
7, 130050, Note_on_c, 5, 74, 90
7, 130079, Note_on_c, 5, 74, 0
7, 130080, Note_on_c, 5, 73, 90
7, 130109, Note_on_c, 5, 73, 0
7, 130110, Note_on_c, 5, 71, 90
7, 130139, Note_on_c, 5, 71, 0
7, 130140, Note_on_c, 5, 69, 90
7, 130260, Note_on_c, 5, 69, 0
7, 130260, Note_on_c, 5, 76, 90
7, 130319, Note_on_c, 5, 76, 0
7, 130320, Note_on_c, 5, 78, 90
7, 130379, Note_on_c, 5, 78, 0
7, 130380, Note_on_c, 5, 76, 90
7, 130410, Note_on_c, 5, 76, 0
7, 130410, Note_on_c, 5, 74, 90
7, 130440, Note_on_c, 5, 74, 0
7, 130440, Note_on_c, 5, 78, 90
7, 130499, Note_on_c, 5, 78, 0
7, 130500, Note_on_c, 5, 78, 90
7, 130559, Note_on_c, 5, 78, 0
7, 130560, Note_on_c, 5, 71, 90
7, 130619, Note_on_c, 5, 71, 0
7, 130620, Note_on_c, 5, 74, 90
7, 130679, Note_on_c, 5, 74, 0
7, 130680, Note_on_c, 5, 76, 90
7, 130739, Note_on_c, 5, 76, 0
7, 130740, Note_on_c, 5, 74, 90
7, 130770, Note_on_c, 5, 74, 0
7, 130770, Note_on_c, 5, 73, 90
7, 130800, Note_on_c, 5, 73, 0
7, 130800, Note_on_c, 5, 76, 90
7, 130859, Note_on_c, 5, 76, 0
7, 130860, Note_on_c, 5, 76, 90
7, 130919, Note_on_c, 5, 76, 0
7, 130920, Note_on_c, 5, 69, 90
7, 130979, Note_on_c, 5, 69, 0
7, 130980, Note_on_c, 5, 73, 90
7, 131039, Note_on_c, 5, 73, 0
7, 131040, Note_on_c, 5, 74, 90
7, 131099, Note_on_c, 5, 74, 0
7, 131100, Note_on_c, 5, 76, 90
7, 131159, Note_on_c, 5, 76, 0
7, 131160, Note_on_c, 5, 78, 90
7, 131219, Note_on_c, 5, 78, 0
7, 131220, Note_on_c, 5, 76, 90
7, 131279, Note_on_c, 5, 76, 0
7, 131280, Note_on_c, 5, 78, 90
7, 131310, Note_on_c, 5, 78, 0
7, 131310, Note_on_c, 5, 76, 90
7, 131340, Note_on_c, 5, 76, 0
7, 131340, Note_on_c, 5, 74, 90
7, 131370, Note_on_c, 5, 74, 0
7, 131370, Note_on_c, 5, 76, 90
7, 131400, Note_on_c, 5, 76, 0
7, 131400, Note_on_c, 5, 73, 90
7, 131459, Note_on_c, 5, 73, 0
7, 131460, Note_on_c, 5, 71, 90
7, 131490, Note_on_c, 5, 71, 0
7, 131490, Note_on_c, 5, 69, 90
7, 131520, Note_on_c, 5, 69, 0
7, 131520, Note_on_c, 5, 74, 90
7, 131579, Note_on_c, 5, 74, 0
7, 131580, Note_on_c, 5, 71, 90
7, 131700, Note_on_c, 5, 71, 0
7, 131700, Note_on_c, 5, 69, 90
7, 131759, Note_on_c, 5, 69, 0
7, 131760, Note_on_c, 5, 64, 90
7, 131819, Note_on_c, 5, 64, 0
7, 131820, Note_on_c, 5, 69, 90
7, 131850, Note_on_c, 5, 69, 0
7, 131850, Note_on_c, 5, 68, 90
7, 131880, Note_on_c, 5, 68, 0
7, 131880, Note_on_c, 5, 69, 90
7, 131939, Note_on_c, 5, 69, 0
7, 131940, Note_on_c, 5, 69, 90
7, 131999, Note_on_c, 5, 69, 0
7, 132000, Note_on_c, 5, 71, 90
7, 132059, Note_on_c, 5, 71, 0
7, 132060, Note_on_c, 5, 73, 90
7, 132119, Note_on_c, 5, 73, 0
7, 132120, Note_on_c, 5, 64, 90
7, 132179, Note_on_c, 5, 64, 0
7, 132180, Note_on_c, 5, 71, 90
7, 132210, Note_on_c, 5, 71, 0
7, 132210, Note_on_c, 5, 69, 90
7, 132240, Note_on_c, 5, 69, 0
7, 132240, Note_on_c, 5, 71, 90
7, 132299, Note_on_c, 5, 71, 0
7, 132300, Note_on_c, 5, 71, 90
7, 132359, Note_on_c, 5, 71, 0
7, 132360, Note_on_c, 5, 73, 90
7, 132419, Note_on_c, 5, 73, 0
7, 132420, Note_on_c, 5, 74, 90
7, 132479, Note_on_c, 5, 74, 0
7, 132480, Note_on_c, 5, 73, 90
7, 132539, Note_on_c, 5, 73, 0
7, 132540, Note_on_c, 5, 71, 90
7, 132570, Note_on_c, 5, 71, 0
7, 132570, Note_on_c, 5, 69, 90
7, 132600, Note_on_c, 5, 69, 0
7, 132600, Note_on_c, 5, 68, 90
7, 132630, Note_on_c, 5, 68, 0
7, 132630, Note_on_c, 5, 66, 90
7, 132660, Note_on_c, 5, 66, 0
7, 132660, Note_on_c, 5, 64, 90
7, 132720, Note_on_c, 5, 64, 0
7, 132720, Note_on_c, 5, 69, 90
7, 132780, Note_on_c, 5, 69, 0
7, 132780, Note_on_c, 5, 71, 90
7, 132840, Note_on_c, 5, 71, 0
7, 132840, Note_on_c, 5, 73, 90
7, 132900, Note_on_c, 5, 73, 0
7, 132900, Note_on_c, 5, 74, 90
7, 132930, Note_on_c, 5, 74, 0
7, 132930, Note_on_c, 5, 73, 90
7, 132960, Note_on_c, 5, 73, 0
7, 132960, Note_on_c, 5, 71, 90
7, 132990, Note_on_c, 5, 71, 0
7, 132990, Note_on_c, 5, 73, 90
7, 133020, Note_on_c, 5, 73, 0
7, 133020, Note_on_c, 5, 69, 90
7, 133140, Note_on_c, 5, 69, 0
7, 135660, Note_on_c, 5, 76, 90
7, 135720, Note_on_c, 5, 76, 0
7, 135720, Note_on_c, 5, 78, 90
7, 135780, Note_on_c, 5, 78, 0
7, 135780, Note_on_c, 5, 76, 90
7, 135809, Note_on_c, 5, 76, 0
7, 135810, Note_on_c, 5, 74, 90
7, 135839, Note_on_c, 5, 74, 0
7, 135840, Note_on_c, 5, 76, 90
7, 135900, Note_on_c, 5, 76, 0
7, 135900, Note_on_c, 5, 78, 90
7, 135960, Note_on_c, 5, 78, 0
7, 135960, Note_on_c, 5, 74, 90
7, 136020, Note_on_c, 5, 74, 0
7, 136020, Note_on_c, 5, 69, 90
7, 136080, Note_on_c, 5, 69, 0
7, 136080, Note_on_c, 5, 71, 90
7, 136140, Note_on_c, 5, 71, 0
7, 136140, Note_on_c, 5, 69, 90
7, 136169, Note_on_c, 5, 69, 0
7, 136170, Note_on_c, 5, 67, 90
7, 136199, Note_on_c, 5, 67, 0
7, 136200, Note_on_c, 5, 69, 90
7, 136260, Note_on_c, 5, 69, 0
7, 136260, Note_on_c, 5, 71, 90
7, 136320, Note_on_c, 5, 71, 0
7, 136320, Note_on_c, 5, 67, 90
7, 136380, Note_on_c, 5, 67, 0
7, 136380, Note_on_c, 5, 71, 90
7, 136440, Note_on_c, 5, 71, 0
7, 136440, Note_on_c, 5, 76, 90
7, 136469, Note_on_c, 5, 76, 0
7, 136470, Note_on_c, 5, 75, 90
7, 136499, Note_on_c, 5, 75, 0
7, 136500, Note_on_c, 5, 76, 90
7, 136560, Note_on_c, 5, 76, 0
7, 136560, Note_on_c, 5, 78, 90
7, 136620, Note_on_c, 5, 78, 0
7, 136620, Note_on_c, 5, 79, 90
7, 136710, Note_on_c, 5, 79, 0
7, 136710, Note_on_c, 5, 78, 90
7, 136739, Note_on_c, 5, 78, 0
7, 136740, Note_on_c, 5, 76, 90
7, 136800, Note_on_c, 5, 76, 0
7, 136800, Note_on_c, 5, 74, 90
7, 136860, Note_on_c, 5, 74, 0
7, 136860, Note_on_c, 5, 73, 90
7, 136889, Note_on_c, 5, 73, 0
7, 136890, Note_on_c, 5, 71, 90
7, 136919, Note_on_c, 5, 71, 0
7, 136920, Note_on_c, 5, 76, 90
7, 136980, Note_on_c, 5, 76, 0
7, 136980, Note_on_c, 5, 73, 90
7, 137040, Note_on_c, 5, 73, 0
7, 137100, Note_on_c, 5, 74, 90
7, 137160, Note_on_c, 5, 74, 0
7, 137160, Note_on_c, 5, 69, 90
7, 137220, Note_on_c, 5, 69, 0
7, 137220, Note_on_c, 5, 74, 90
7, 137250, Note_on_c, 5, 74, 0
7, 137250, Note_on_c, 5, 73, 90
7, 137280, Note_on_c, 5, 73, 0
7, 137280, Note_on_c, 5, 74, 90
7, 137340, Note_on_c, 5, 74, 0
7, 137340, Note_on_c, 5, 74, 90
7, 137400, Note_on_c, 5, 74, 0
7, 137400, Note_on_c, 5, 76, 90
7, 137460, Note_on_c, 5, 76, 0
7, 137460, Note_on_c, 5, 78, 90
7, 137520, Note_on_c, 5, 78, 0
7, 137520, Note_on_c, 5, 69, 90
7, 137580, Note_on_c, 5, 69, 0
7, 137580, Note_on_c, 5, 76, 90
7, 137610, Note_on_c, 5, 76, 0
7, 137610, Note_on_c, 5, 74, 90
7, 137640, Note_on_c, 5, 74, 0
7, 137640, Note_on_c, 5, 76, 90
7, 137700, Note_on_c, 5, 76, 0
7, 137700, Note_on_c, 5, 76, 90
7, 137760, Note_on_c, 5, 76, 0
7, 137760, Note_on_c, 5, 78, 90
7, 137820, Note_on_c, 5, 78, 0
7, 137820, Note_on_c, 5, 79, 90
7, 137880, Note_on_c, 5, 79, 0
7, 137880, Note_on_c, 5, 78, 90
7, 137940, Note_on_c, 5, 78, 0
7, 137940, Note_on_c, 5, 76, 90
7, 137969, Note_on_c, 5, 76, 0
7, 137970, Note_on_c, 5, 74, 90
7, 137999, Note_on_c, 5, 74, 0
7, 138000, Note_on_c, 5, 73, 90
7, 138029, Note_on_c, 5, 73, 0
7, 138030, Note_on_c, 5, 71, 90
7, 138059, Note_on_c, 5, 71, 0
7, 138060, Note_on_c, 5, 69, 90
7, 138120, Note_on_c, 5, 69, 0
7, 138120, Note_on_c, 5, 71, 90
7, 138149, Note_on_c, 5, 71, 0
7, 138150, Note_on_c, 5, 69, 90
7, 138179, Note_on_c, 5, 69, 0
7, 138180, Note_on_c, 5, 67, 90
7, 138209, Note_on_c, 5, 67, 0
7, 138210, Note_on_c, 5, 69, 90
7, 138239, Note_on_c, 5, 69, 0
7, 138240, Note_on_c, 5, 66, 90
7, 138300, Note_on_c, 5, 66, 0
7, 138300, Note_on_c, 5, 74, 90
7, 138360, Note_on_c, 5, 74, 0
7, 138360, Note_on_c, 5, 73, 90
7, 138420, Note_on_c, 5, 73, 0
7, 138420, Note_on_c, 5, 74, 90
7, 138540, Note_on_c, 5, 74, 0
7, 142500, Note_on_c, 5, 73, 90
7, 142559, Note_on_c, 5, 73, 0
7, 142560, Note_on_c, 5, 74, 90
7, 142619, Note_on_c, 5, 74, 0
7, 142620, Note_on_c, 5, 78, 90
7, 142650, Note_on_c, 5, 78, 0
7, 142650, Note_on_c, 5, 76, 90
7, 142680, Note_on_c, 5, 76, 0
7, 142680, Note_on_c, 5, 74, 90
7, 142710, Note_on_c, 5, 74, 0
7, 142710, Note_on_c, 5, 73, 90
7, 142740, Note_on_c, 5, 73, 0
7, 142740, Note_on_c, 5, 74, 90
7, 142799, Note_on_c, 5, 74, 0
7, 142800, Note_on_c, 5, 71, 90
7, 142859, Note_on_c, 5, 71, 0
7, 142860, Note_on_c, 5, 74, 90
7, 142919, Note_on_c, 5, 74, 0
7, 142920, Note_on_c, 5, 73, 90
7, 142979, Note_on_c, 5, 73, 0
7, 142980, Note_on_c, 5, 76, 90
7, 143010, Note_on_c, 5, 76, 0
7, 143010, Note_on_c, 5, 74, 90
7, 143040, Note_on_c, 5, 74, 0
7, 143040, Note_on_c, 5, 73, 90
7, 143070, Note_on_c, 5, 73, 0
7, 143070, Note_on_c, 5, 71, 90
7, 143100, Note_on_c, 5, 71, 0
7, 143100, Note_on_c, 5, 73, 90
7, 143159, Note_on_c, 5, 73, 0
7, 143160, Note_on_c, 5, 69, 90
7, 143219, Note_on_c, 5, 69, 0
7, 143220, Note_on_c, 5, 73, 90
7, 143279, Note_on_c, 5, 73, 0
7, 143280, Note_on_c, 5, 78, 90
7, 143310, Note_on_c, 5, 78, 0
7, 143310, Note_on_c, 5, 74, 90
7, 143340, Note_on_c, 5, 74, 0
7, 143340, Note_on_c, 5, 73, 90
7, 143370, Note_on_c, 5, 73, 0
7, 143370, Note_on_c, 5, 71, 90
7, 143400, Note_on_c, 5, 71, 0
7, 143400, Note_on_c, 5, 69, 90
7, 143430, Note_on_c, 5, 69, 0
7, 143430, Note_on_c, 5, 68, 90
7, 143460, Note_on_c, 5, 68, 0
7, 143460, Note_on_c, 5, 69, 90
7, 143490, Note_on_c, 5, 69, 0
7, 143490, Note_on_c, 5, 73, 90
7, 143520, Note_on_c, 5, 73, 0
7, 143520, Note_on_c, 5, 71, 90
7, 143550, Note_on_c, 5, 71, 0
7, 143550, Note_on_c, 5, 69, 90
7, 143580, Note_on_c, 5, 69, 0
7, 143580, Note_on_c, 5, 68, 90
7, 143610, Note_on_c, 5, 68, 0
7, 143610, Note_on_c, 5, 66, 90
7, 143640, Note_on_c, 5, 66, 0
7, 143640, Note_on_c, 5, 74, 90
7, 143700, Note_on_c, 5, 74, 0
7, 143700, Note_on_c, 5, 73, 90
7, 143760, Note_on_c, 5, 73, 0
7, 143760, Note_on_c, 5, 78, 90
7, 143820, Note_on_c, 5, 78, 0
7, 143820, Note_on_c, 5, 77, 90
7, 143940, Note_on_c, 5, 77, 0
7, 143940, Note_on_c, 5, 68, 90
7, 144000, Note_on_c, 5, 68, 0
7, 144000, Note_on_c, 5, 69, 90
7, 144060, Note_on_c, 5, 69, 0
7, 144060, Note_on_c, 5, 68, 90
7, 144090, Note_on_c, 5, 68, 0
7, 144090, Note_on_c, 5, 66, 90
7, 144120, Note_on_c, 5, 66, 0
7, 144120, Note_on_c, 5, 68, 90
7, 144180, Note_on_c, 5, 68, 0
7, 144180, Note_on_c, 5, 69, 90
7, 144240, Note_on_c, 5, 69, 0
7, 144240, Note_on_c, 5, 66, 90
7, 144300, Note_on_c, 5, 66, 0
7, 144300, Note_on_c, 5, 73, 90
7, 144360, Note_on_c, 5, 73, 0
7, 144360, Note_on_c, 5, 73, 90
7, 144420, Note_on_c, 5, 73, 0
7, 144420, Note_on_c, 5, 71, 90
7, 144450, Note_on_c, 5, 71, 0
7, 144450, Note_on_c, 5, 69, 90
7, 144480, Note_on_c, 5, 69, 0
7, 144480, Note_on_c, 5, 68, 90
7, 144510, Note_on_c, 5, 68, 0
7, 144510, Note_on_c, 5, 66, 90
7, 144540, Note_on_c, 5, 66, 0
7, 144540, Note_on_c, 5, 68, 90
7, 144600, Note_on_c, 5, 68, 0
7, 144600, Note_on_c, 5, 61, 90
7, 144660, Note_on_c, 5, 61, 0
7, 144660, Note_on_c, 5, 65, 90
7, 144720, Note_on_c, 5, 65, 0
7, 144720, Note_on_c, 5, 66, 90
7, 144780, Note_on_c, 5, 66, 0
7, 144780, Note_on_c, 5, 68, 90
7, 144840, Note_on_c, 5, 68, 0
7, 144840, Note_on_c, 5, 69, 90
7, 144900, Note_on_c, 5, 69, 0
7, 144900, Note_on_c, 5, 71, 90
7, 144960, Note_on_c, 5, 71, 0
7, 144960, Note_on_c, 5, 73, 90
7, 145020, Note_on_c, 5, 73, 0
7, 145020, Note_on_c, 5, 74, 90
7, 145080, Note_on_c, 5, 74, 0
7, 145080, Note_on_c, 5, 69, 90
7, 145140, Note_on_c, 5, 69, 0
7, 145140, Note_on_c, 5, 71, 90
7, 145170, Note_on_c, 5, 71, 0
7, 145170, Note_on_c, 5, 69, 90
7, 145200, Note_on_c, 5, 69, 0
7, 145200, Note_on_c, 5, 68, 90
7, 145230, Note_on_c, 5, 68, 0
7, 145230, Note_on_c, 5, 69, 90
7, 145260, Note_on_c, 5, 69, 0
7, 145260, Note_on_c, 5, 66, 90
7, 145380, Note_on_c, 5, 66, 0
7, 147900, Note_on_c, 5, 69, 90
7, 147960, Note_on_c, 5, 69, 0
7, 147960, Note_on_c, 5, 68, 90
7, 148020, Note_on_c, 5, 68, 0
7, 148020, Note_on_c, 5, 73, 90
7, 148050, Note_on_c, 5, 73, 0
7, 148050, Note_on_c, 5, 71, 90
7, 148080, Note_on_c, 5, 71, 0
7, 148080, Note_on_c, 5, 73, 90
7, 148110, Note_on_c, 5, 73, 0
7, 148110, Note_on_c, 5, 68, 90
7, 148140, Note_on_c, 5, 68, 0
7, 148140, Note_on_c, 5, 69, 90
7, 148200, Note_on_c, 5, 69, 0
7, 148200, Note_on_c, 5, 71, 90
7, 148260, Note_on_c, 5, 71, 0
7, 148260, Note_on_c, 5, 73, 90
7, 148320, Note_on_c, 5, 73, 0
7, 148320, Note_on_c, 5, 71, 90
7, 148380, Note_on_c, 5, 71, 0
7, 148380, Note_on_c, 5, 76, 90
7, 148410, Note_on_c, 5, 76, 0
7, 148410, Note_on_c, 5, 74, 90
7, 148440, Note_on_c, 5, 74, 0
7, 148440, Note_on_c, 5, 76, 90
7, 148470, Note_on_c, 5, 76, 0
7, 148470, Note_on_c, 5, 71, 90
7, 148500, Note_on_c, 5, 71, 0
7, 148500, Note_on_c, 5, 73, 90
7, 148560, Note_on_c, 5, 73, 0
7, 148560, Note_on_c, 5, 74, 90
7, 148620, Note_on_c, 5, 74, 0
7, 148620, Note_on_c, 5, 76, 90
7, 148680, Note_on_c, 5, 76, 0
7, 148680, Note_on_c, 5, 78, 90
7, 148740, Note_on_c, 5, 78, 0
7, 148740, Note_on_c, 5, 79, 90
7, 148770, Note_on_c, 5, 79, 0
7, 148770, Note_on_c, 5, 78, 90
7, 148800, Note_on_c, 5, 78, 0
7, 148800, Note_on_c, 5, 76, 90
7, 148830, Note_on_c, 5, 76, 0
7, 148830, Note_on_c, 5, 74, 90
7, 148860, Note_on_c, 5, 74, 0
7, 148860, Note_on_c, 5, 76, 90
7, 148920, Note_on_c, 5, 76, 0
7, 148920, Note_on_c, 5, 73, 90
7, 148980, Note_on_c, 5, 73, 0
7, 148980, Note_on_c, 5, 78, 90
7, 149040, Note_on_c, 5, 78, 0
7, 149040, Note_on_c, 5, 74, 90
7, 149100, Note_on_c, 5, 74, 0
7, 149100, Note_on_c, 5, 76, 90
7, 149130, Note_on_c, 5, 76, 0
7, 149130, Note_on_c, 5, 74, 90
7, 149160, Note_on_c, 5, 74, 0
7, 149160, Note_on_c, 5, 73, 90
7, 149190, Note_on_c, 5, 73, 0
7, 149190, Note_on_c, 5, 71, 90
7, 149220, Note_on_c, 5, 71, 0
7, 149220, Note_on_c, 5, 70, 90
7, 149340, Note_on_c, 5, 70, 0
7, 149340, Note_on_c, 5, 78, 90
7, 149400, Note_on_c, 5, 78, 0
7, 149400, Note_on_c, 5, 78, 90
7, 149460, Note_on_c, 5, 78, 0
7, 149460, Note_on_c, 5, 76, 90
7, 149490, Note_on_c, 5, 76, 0
7, 149490, Note_on_c, 5, 74, 90
7, 149520, Note_on_c, 5, 74, 0
7, 149520, Note_on_c, 5, 73, 90
7, 149550, Note_on_c, 5, 73, 0
7, 149550, Note_on_c, 5, 71, 90
7, 149580, Note_on_c, 5, 71, 0
7, 149580, Note_on_c, 5, 78, 90
7, 149640, Note_on_c, 5, 78, 0
7, 149640, Note_on_c, 5, 76, 90
7, 149670, Note_on_c, 5, 76, 0
7, 149670, Note_on_c, 5, 74, 90
7, 149700, Note_on_c, 5, 74, 0
7, 149700, Note_on_c, 5, 73, 90
7, 149730, Note_on_c, 5, 73, 0
7, 149730, Note_on_c, 5, 71, 90
7, 149760, Note_on_c, 5, 71, 0
7, 149760, Note_on_c, 5, 76, 90
7, 149820, Note_on_c, 5, 76, 0
7, 149820, Note_on_c, 5, 74, 90
7, 149850, Note_on_c, 5, 74, 0
7, 149850, Note_on_c, 5, 73, 90
7, 149880, Note_on_c, 5, 73, 0
7, 149880, Note_on_c, 5, 74, 90
7, 149910, Note_on_c, 5, 74, 0
7, 149910, Note_on_c, 5, 71, 90
7, 149940, Note_on_c, 5, 71, 0
7, 149940, Note_on_c, 5, 73, 90
7, 150000, Note_on_c, 5, 73, 0
7, 150000, Note_on_c, 5, 66, 90
7, 150060, Note_on_c, 5, 66, 0
7, 150060, Note_on_c, 5, 70, 90
7, 150120, Note_on_c, 5, 70, 0
7, 150120, Note_on_c, 5, 71, 90
7, 150180, Note_on_c, 5, 71, 0
7, 150180, Note_on_c, 5, 73, 90
7, 150240, Note_on_c, 5, 73, 0
7, 150240, Note_on_c, 5, 74, 90
7, 150300, Note_on_c, 5, 74, 0
7, 150300, Note_on_c, 5, 76, 90
7, 150360, Note_on_c, 5, 76, 0
7, 150360, Note_on_c, 5, 78, 90
7, 150420, Note_on_c, 5, 78, 0
7, 150420, Note_on_c, 5, 79, 90
7, 150480, Note_on_c, 5, 79, 0
7, 150480, Note_on_c, 5, 74, 90
7, 150540, Note_on_c, 5, 74, 0
7, 150540, Note_on_c, 5, 76, 90
7, 150570, Note_on_c, 5, 76, 0
7, 150570, Note_on_c, 5, 74, 90
7, 150600, Note_on_c, 5, 74, 0
7, 150600, Note_on_c, 5, 73, 90
7, 150630, Note_on_c, 5, 73, 0
7, 150630, Note_on_c, 5, 74, 90
7, 150660, Note_on_c, 5, 74, 0
7, 150660, Note_on_c, 5, 71, 90
7, 150779, Note_on_c, 5, 71, 0
7, 150900, Note_on_c, 5, 74, 90
7, 150960, Note_on_c, 5, 74, 0
7, 150960, Note_on_c, 5, 69, 90
7, 151020, Note_on_c, 5, 69, 0
7, 151020, Note_on_c, 5, 71, 90
7, 151080, Note_on_c, 5, 71, 0
7, 151080, Note_on_c, 5, 72, 90
7, 151140, Note_on_c, 5, 72, 0
7, 151140, Note_on_c, 5, 72, 90
7, 151200, Note_on_c, 5, 72, 0
7, 151200, Note_on_c, 5, 76, 90
7, 151260, Note_on_c, 5, 76, 0
7, 151260, Note_on_c, 5, 74, 90
7, 151320, Note_on_c, 5, 74, 0
7, 151320, Note_on_c, 5, 71, 90
7, 151380, Note_on_c, 5, 71, 0
7, 151380, Note_on_c, 5, 71, 90
7, 151440, Note_on_c, 5, 71, 0
7, 151500, Note_on_c, 5, 71, 90
7, 151560, Note_on_c, 5, 71, 0
7, 151560, Note_on_c, 5, 74, 90
7, 151680, Note_on_c, 5, 74, 0
7, 151680, Note_on_c, 5, 71, 90
7, 151800, Note_on_c, 5, 71, 0
7, 151800, Note_on_c, 5, 67, 90
7, 151860, Note_on_c, 5, 67, 0
7, 151890, Note_on_c, 5, 67, 90
7, 151920, Note_on_c, 5, 67, 0
7, 151920, Note_on_c, 5, 74, 90
7, 151980, Note_on_c, 5, 74, 0
7, 151980, Note_on_c, 5, 76, 90
7, 152040, Note_on_c, 5, 76, 0
7, 152040, Note_on_c, 5, 77, 90
7, 152100, Note_on_c, 5, 77, 0
7, 152100, Note_on_c, 5, 77, 90
7, 152160, Note_on_c, 5, 77, 0
7, 152160, Note_on_c, 5, 79, 90
7, 152220, Note_on_c, 5, 79, 0
7, 152220, Note_on_c, 5, 74, 90
7, 152280, Note_on_c, 5, 74, 0
7, 152280, Note_on_c, 5, 76, 90
7, 152400, Note_on_c, 5, 76, 0
7, 152460, Note_on_c, 5, 72, 90
7, 152520, Note_on_c, 5, 72, 0
7, 152520, Note_on_c, 5, 77, 90
7, 152610, Note_on_c, 5, 77, 0
7, 152610, Note_on_c, 5, 76, 90
7, 152640, Note_on_c, 5, 76, 0
7, 152640, Note_on_c, 5, 74, 90
7, 152670, Note_on_c, 5, 74, 0
7, 152670, Note_on_c, 5, 72, 90
7, 152700, Note_on_c, 5, 72, 0
7, 152700, Note_on_c, 5, 71, 90
7, 152730, Note_on_c, 5, 71, 0
7, 152730, Note_on_c, 5, 69, 90
7, 152760, Note_on_c, 5, 69, 0
7, 152760, Note_on_c, 5, 68, 90
7, 152880, Note_on_c, 5, 68, 0
7, 152910, Note_on_c, 5, 71, 90
7, 152940, Note_on_c, 5, 71, 0
7, 152940, Note_on_c, 5, 76, 90
7, 152970, Note_on_c, 5, 76, 0
7, 152970, Note_on_c, 5, 71, 90
7, 153000, Note_on_c, 5, 71, 0
7, 153000, Note_on_c, 5, 72, 90
7, 153120, Note_on_c, 5, 72, 0
7, 153150, Note_on_c, 5, 69, 90
7, 153180, Note_on_c, 5, 69, 0
7, 153180, Note_on_c, 5, 74, 90
7, 153210, Note_on_c, 5, 74, 0
7, 153210, Note_on_c, 5, 69, 90
7, 153240, Note_on_c, 5, 69, 0
7, 153240, Note_on_c, 5, 71, 90
7, 153300, Note_on_c, 5, 71, 0
7, 153300, Note_on_c, 5, 72, 90
7, 153330, Note_on_c, 5, 72, 0
7, 153330, Note_on_c, 5, 74, 90
7, 153360, Note_on_c, 5, 74, 0
7, 153360, Note_on_c, 5, 71, 90
7, 153420, Note_on_c, 5, 71, 0
7, 153420, Note_on_c, 5, 69, 90
7, 153450, Note_on_c, 5, 69, 0
7, 153450, Note_on_c, 5, 67, 90
7, 153480, Note_on_c, 5, 67, 0
7, 153480, Note_on_c, 5, 67, 90
7, 153600, Note_on_c, 5, 67, 0
7, 153600, Note_on_c, 5, 67, 90
7, 153720, Note_on_c, 5, 67, 0
7, 161640, Note_on_c, 5, 72, 90
7, 161699, Note_on_c, 5, 72, 0
7, 161700, Note_on_c, 5, 71, 90
7, 161759, Note_on_c, 5, 71, 0
7, 161760, Note_on_c, 5, 69, 90
7, 161819, Note_on_c, 5, 69, 0
7, 161820, Note_on_c, 5, 67, 90
7, 161879, Note_on_c, 5, 67, 0
7, 161880, Note_on_c, 5, 74, 90
7, 162059, Note_on_c, 5, 74, 0
7, 162060, Note_on_c, 5, 76, 90
7, 162119, Note_on_c, 5, 76, 0
7, 162120, Note_on_c, 5, 74, 90
7, 162179, Note_on_c, 5, 74, 0
7, 162180, Note_on_c, 5, 72, 90
7, 162239, Note_on_c, 5, 72, 0
7, 162240, Note_on_c, 5, 71, 90
7, 162299, Note_on_c, 5, 71, 0
7, 162300, Note_on_c, 5, 72, 90
7, 162329, Note_on_c, 5, 72, 0
7, 162330, Note_on_c, 5, 69, 90
7, 162359, Note_on_c, 5, 69, 0
7, 162360, Note_on_c, 5, 69, 90
7, 162599, Note_on_c, 5, 69, 0
7, 162600, Note_on_c, 5, 71, 90
7, 162659, Note_on_c, 5, 71, 0
7, 162660, Note_on_c, 5, 72, 90
7, 162689, Note_on_c, 5, 72, 0
7, 162690, Note_on_c, 5, 74, 90
7, 162719, Note_on_c, 5, 74, 0
7, 162720, Note_on_c, 5, 72, 90
7, 162779, Note_on_c, 5, 72, 0
7, 162780, Note_on_c, 5, 71, 90
7, 162839, Note_on_c, 5, 71, 0
7, 162840, Note_on_c, 5, 67, 90
7, 163019, Note_on_c, 5, 67, 0
7, 163020, Note_on_c, 5, 72, 90
7, 163079, Note_on_c, 5, 72, 0
7, 163080, Note_on_c, 5, 71, 90
7, 163139, Note_on_c, 5, 71, 0
7, 163140, Note_on_c, 5, 69, 90
7, 163199, Note_on_c, 5, 69, 0
7, 163200, Note_on_c, 5, 74, 90
7, 163319, Note_on_c, 5, 74, 0
7, 163320, Note_on_c, 5, 72, 90
7, 163379, Note_on_c, 5, 72, 0
7, 163380, Note_on_c, 5, 71, 90
7, 163439, Note_on_c, 5, 71, 0
7, 163440, Note_on_c, 5, 69, 90
7, 163499, Note_on_c, 5, 69, 0
7, 163500, Note_on_c, 5, 67, 90
7, 163559, Note_on_c, 5, 67, 0
7, 163560, Note_on_c, 5, 71, 90
7, 163679, Note_on_c, 5, 71, 0
7, 163680, Note_on_c, 5, 73, 90
7, 163739, Note_on_c, 5, 73, 0
7, 163740, Note_on_c, 5, 74, 90
7, 163769, Note_on_c, 5, 74, 0
7, 163770, Note_on_c, 5, 76, 90
7, 163799, Note_on_c, 5, 76, 0
7, 163800, Note_on_c, 5, 73, 90
7, 163979, Note_on_c, 5, 73, 0
7, 163980, Note_on_c, 5, 74, 90
7, 164039, Note_on_c, 5, 74, 0
7, 164040, Note_on_c, 5, 76, 90
7, 164099, Note_on_c, 5, 76, 0
7, 164100, Note_on_c, 5, 79, 90
7, 164159, Note_on_c, 5, 79, 0
7, 164160, Note_on_c, 5, 78, 90
7, 164219, Note_on_c, 5, 78, 0
7, 164220, Note_on_c, 5, 76, 90
7, 164279, Note_on_c, 5, 76, 0
7, 164280, Note_on_c, 5, 76, 90
7, 164519, Note_on_c, 5, 76, 0
7, 164520, Note_on_c, 5, 78, 90
7, 164579, Note_on_c, 5, 78, 0
7, 164580, Note_on_c, 5, 79, 90
7, 164609, Note_on_c, 5, 79, 0
7, 164610, Note_on_c, 5, 81, 90
7, 164639, Note_on_c, 5, 81, 0
7, 164640, Note_on_c, 5, 73, 90
7, 164759, Note_on_c, 5, 73, 0
7, 164760, Note_on_c, 5, 74, 90
7, 164939, Note_on_c, 5, 74, 0
7, 164940, Note_on_c, 5, 76, 90
7, 164999, Note_on_c, 5, 76, 0
7, 165000, Note_on_c, 5, 69, 90
7, 165059, Note_on_c, 5, 69, 0
7, 165060, Note_on_c, 5, 78, 90
7, 165119, Note_on_c, 5, 78, 0
7, 165120, Note_on_c, 5, 76, 90
7, 165179, Note_on_c, 5, 76, 0
7, 165180, Note_on_c, 5, 74, 90
7, 165239, Note_on_c, 5, 74, 0
7, 165240, Note_on_c, 5, 74, 90
7, 165359, Note_on_c, 5, 74, 0
7, 165360, Note_on_c, 5, 74, 90
7, 165479, Note_on_c, 5, 74, 0
7, 165480, Note_on_c, 5, 79, 90
7, 165599, Note_on_c, 5, 79, 0
7, 165600, Note_on_c, 5, 74, 90
7, 165719, Note_on_c, 5, 74, 0
7, 165720, Note_on_c, 5, 76, 90
7, 165899, Note_on_c, 5, 76, 0
7, 165900, Note_on_c, 5, 77, 90
7, 165959, Note_on_c, 5, 77, 0
7, 165960, Note_on_c, 5, 76, 90
7, 166019, Note_on_c, 5, 76, 0
7, 166020, Note_on_c, 5, 74, 90
7, 166079, Note_on_c, 5, 74, 0
7, 166080, Note_on_c, 5, 72, 90
7, 166139, Note_on_c, 5, 72, 0
7, 166140, Note_on_c, 5, 71, 90
7, 166199, Note_on_c, 5, 71, 0
7, 166200, Note_on_c, 5, 72, 90
7, 166439, Note_on_c, 5, 72, 0
7, 166440, Note_on_c, 5, 74, 90
7, 166559, Note_on_c, 5, 74, 0
7, 166560, Note_on_c, 5, 69, 90
7, 166679, Note_on_c, 5, 69, 0
7, 166680, Note_on_c, 5, 71, 90
7, 166799, Note_on_c, 5, 71, 0
7, 166800, Note_on_c, 5, 69, 90
7, 166859, Note_on_c, 5, 69, 0
7, 166860, Note_on_c, 5, 67, 90
7, 166919, Note_on_c, 5, 67, 0
7, 166920, Note_on_c, 5, 66, 90
7, 166979, Note_on_c, 5, 66, 0
7, 166980, Note_on_c, 5, 64, 90
7, 167039, Note_on_c, 5, 64, 0
7, 167040, Note_on_c, 5, 69, 90
7, 167159, Note_on_c, 5, 69, 0
7, 167160, Note_on_c, 5, 67, 90
7, 167219, Note_on_c, 5, 67, 0
7, 167220, Note_on_c, 5, 66, 90
7, 167279, Note_on_c, 5, 66, 0
7, 167280, Note_on_c, 5, 64, 90
7, 167339, Note_on_c, 5, 64, 0
7, 167340, Note_on_c, 5, 62, 90
7, 167399, Note_on_c, 5, 62, 0
7, 167400, Note_on_c, 5, 69, 90
7, 167519, Note_on_c, 5, 69, 0
7, 167520, Note_on_c, 5, 74, 90
7, 167639, Note_on_c, 5, 74, 0
7, 167640, Note_on_c, 5, 71, 90
7, 167819, Note_on_c, 5, 71, 0
7, 167820, Note_on_c, 5, 71, 90
7, 167879, Note_on_c, 5, 71, 0
7, 167880, Note_on_c, 5, 72, 90
7, 167939, Note_on_c, 5, 72, 0
7, 167940, Note_on_c, 5, 71, 90
7, 167999, Note_on_c, 5, 71, 0
7, 168000, Note_on_c, 5, 72, 90
7, 168059, Note_on_c, 5, 72, 0
7, 168060, Note_on_c, 5, 74, 90
7, 168119, Note_on_c, 5, 74, 0
7, 168120, Note_on_c, 5, 76, 90
7, 168299, Note_on_c, 5, 76, 0
7, 168300, Note_on_c, 5, 74, 90
7, 168359, Note_on_c, 5, 74, 0
7, 168360, Note_on_c, 5, 72, 90
7, 168419, Note_on_c, 5, 72, 0
7, 168420, Note_on_c, 5, 71, 90
7, 168479, Note_on_c, 5, 71, 0
7, 168480, Note_on_c, 5, 69, 90
7, 168539, Note_on_c, 5, 69, 0
7, 168540, Note_on_c, 5, 67, 90
7, 168599, Note_on_c, 5, 67, 0
7, 168600, Note_on_c, 5, 74, 90
7, 168779, Note_on_c, 5, 74, 0
7, 168780, Note_on_c, 5, 76, 90
7, 168839, Note_on_c, 5, 76, 0
7, 168840, Note_on_c, 5, 71, 90
7, 168959, Note_on_c, 5, 71, 0
7, 168960, Note_on_c, 5, 69, 90
7, 169019, Note_on_c, 5, 69, 0
7, 169020, Note_on_c, 5, 67, 90
7, 169079, Note_on_c, 5, 67, 0
7, 169080, Note_on_c, 5, 67, 90
7, 169199, Note_on_c, 5, 67, 0
7, 169200, Note_on_c, 5, 67, 90
7, 169319, Note_on_c, 5, 67, 0
7, 169319, End_track
8, 0, Start_track
8, 0, MIDI_port, 0
8, 0, Title_t, "Fagott"
8, 0, Program_c, 6, 70
8, 8640, Note_on_c, 6, 43, 90
8, 8699, Note_on_c, 6, 43, 0
8, 8700, Note_on_c, 6, 55, 90
8, 8759, Note_on_c, 6, 55, 0
8, 8760, Note_on_c, 6, 54, 90
8, 8819, Note_on_c, 6, 54, 0
8, 8820, Note_on_c, 6, 52, 90
8, 8879, Note_on_c, 6, 52, 0
8, 8880, Note_on_c, 6, 50, 90
8, 8939, Note_on_c, 6, 50, 0
8, 8940, Note_on_c, 6, 54, 90
8, 8999, Note_on_c, 6, 54, 0
8, 9000, Note_on_c, 6, 55, 90
8, 9059, Note_on_c, 6, 55, 0
8, 9060, Note_on_c, 6, 52, 90
8, 9119, Note_on_c, 6, 52, 0
8, 9120, Note_on_c, 6, 57, 90
8, 9179, Note_on_c, 6, 57, 0
8, 9180, Note_on_c, 6, 59, 90
8, 9239, Note_on_c, 6, 59, 0
8, 9240, Note_on_c, 6, 61, 90
8, 9299, Note_on_c, 6, 61, 0
8, 9300, Note_on_c, 6, 62, 90
8, 9359, Note_on_c, 6, 62, 0
8, 9360, Note_on_c, 6, 57, 90
8, 9419, Note_on_c, 6, 57, 0
8, 9420, Note_on_c, 6, 59, 90
8, 9479, Note_on_c, 6, 59, 0
8, 9480, Note_on_c, 6, 61, 90
8, 9539, Note_on_c, 6, 61, 0
8, 9540, Note_on_c, 6, 62, 90
8, 9599, Note_on_c, 6, 62, 0
8, 9600, Note_on_c, 6, 57, 90
8, 9659, Note_on_c, 6, 57, 0
8, 9660, Note_on_c, 6, 55, 90
8, 9719, Note_on_c, 6, 55, 0
8, 9720, Note_on_c, 6, 54, 90
8, 9779, Note_on_c, 6, 54, 0
8, 9780, Note_on_c, 6, 52, 90
8, 9839, Note_on_c, 6, 52, 0
8, 9840, Note_on_c, 6, 59, 90
8, 9899, Note_on_c, 6, 59, 0
8, 9900, Note_on_c, 6, 55, 90
8, 9959, Note_on_c, 6, 55, 0
8, 9960, Note_on_c, 6, 54, 90
8, 10019, Note_on_c, 6, 54, 0
8, 10020, Note_on_c, 6, 52, 90
8, 10079, Note_on_c, 6, 52, 0
8, 10080, Note_on_c, 6, 59, 90
8, 10139, Note_on_c, 6, 59, 0
8, 10140, Note_on_c, 6, 57, 90
8, 10199, Note_on_c, 6, 57, 0
8, 10200, Note_on_c, 6, 59, 90
8, 10259, Note_on_c, 6, 59, 0
8, 10260, Note_on_c, 6, 55, 90
8, 10319, Note_on_c, 6, 55, 0
8, 10320, Note_on_c, 6, 60, 90
8, 10379, Note_on_c, 6, 60, 0
8, 10380, Note_on_c, 6, 57, 90
8, 10439, Note_on_c, 6, 57, 0
8, 10440, Note_on_c, 6, 59, 90
8, 10499, Note_on_c, 6, 59, 0
8, 10500, Note_on_c, 6, 47, 90
8, 10559, Note_on_c, 6, 47, 0
8, 10560, Note_on_c, 6, 52, 90
8, 10619, Note_on_c, 6, 52, 0
8, 10620, Note_on_c, 6, 54, 90
8, 10679, Note_on_c, 6, 54, 0
8, 10680, Note_on_c, 6, 55, 90
8, 10739, Note_on_c, 6, 55, 0
8, 10740, Note_on_c, 6, 52, 90
8, 10799, Note_on_c, 6, 52, 0
8, 10800, Note_on_c, 6, 54, 90
8, 10859, Note_on_c, 6, 54, 0
8, 10860, Note_on_c, 6, 50, 90
8, 10919, Note_on_c, 6, 50, 0
8, 10920, Note_on_c, 6, 55, 90
8, 10979, Note_on_c, 6, 55, 0
8, 10980, Note_on_c, 6, 43, 90
8, 11039, Note_on_c, 6, 43, 0
8, 11040, Note_on_c, 6, 50, 90
8, 11099, Note_on_c, 6, 50, 0
8, 11100, Note_on_c, 6, 52, 90
8, 11159, Note_on_c, 6, 52, 0
8, 11160, Note_on_c, 6, 54, 90
8, 11219, Note_on_c, 6, 54, 0
8, 11220, Note_on_c, 6, 55, 90
8, 11279, Note_on_c, 6, 55, 0
8, 11280, Note_on_c, 6, 50, 90
8, 11339, Note_on_c, 6, 50, 0
8, 11340, Note_on_c, 6, 52, 90
8, 11399, Note_on_c, 6, 52, 0
8, 11400, Note_on_c, 6, 54, 90
8, 11459, Note_on_c, 6, 54, 0
8, 11460, Note_on_c, 6, 55, 90
8, 11519, Note_on_c, 6, 55, 0
8, 11520, Note_on_c, 6, 50, 90
8, 11579, Note_on_c, 6, 50, 0
8, 11580, Note_on_c, 6, 48, 90
8, 11639, Note_on_c, 6, 48, 0
8, 11640, Note_on_c, 6, 47, 90
8, 11699, Note_on_c, 6, 47, 0
8, 11700, Note_on_c, 6, 45, 90
8, 11759, Note_on_c, 6, 45, 0
8, 11760, Note_on_c, 6, 52, 90
8, 11819, Note_on_c, 6, 52, 0
8, 11820, Note_on_c, 6, 48, 90
8, 11879, Note_on_c, 6, 48, 0
8, 11880, Note_on_c, 6, 47, 90
8, 11939, Note_on_c, 6, 47, 0
8, 11940, Note_on_c, 6, 45, 90
8, 11999, Note_on_c, 6, 45, 0
8, 12000, Note_on_c, 6, 52, 90
8, 12059, Note_on_c, 6, 52, 0
8, 12060, Note_on_c, 6, 50, 90
8, 12089, Note_on_c, 6, 50, 0
8, 12090, Note_on_c, 6, 48, 90
8, 12119, Note_on_c, 6, 48, 0
8, 12120, Note_on_c, 6, 47, 90
8, 12179, Note_on_c, 6, 47, 0
8, 12180, Note_on_c, 6, 43, 90
8, 12239, Note_on_c, 6, 43, 0
8, 12240, Note_on_c, 6, 48, 90
8, 12299, Note_on_c, 6, 48, 0
8, 12300, Note_on_c, 6, 52, 90
8, 12359, Note_on_c, 6, 52, 0
8, 12360, Note_on_c, 6, 53, 90
8, 12419, Note_on_c, 6, 53, 0
8, 12420, Note_on_c, 6, 50, 90
8, 12479, Note_on_c, 6, 50, 0
8, 12480, Note_on_c, 6, 55, 90
8, 12539, Note_on_c, 6, 55, 0
8, 12540, Note_on_c, 6, 57, 90
8, 12599, Note_on_c, 6, 57, 0
8, 12600, Note_on_c, 6, 59, 90
8, 12659, Note_on_c, 6, 59, 0
8, 12660, Note_on_c, 6, 60, 90
8, 12719, Note_on_c, 6, 60, 0
8, 12720, Note_on_c, 6, 55, 90
8, 12779, Note_on_c, 6, 55, 0
8, 12780, Note_on_c, 6, 57, 90
8, 12839, Note_on_c, 6, 57, 0
8, 12840, Note_on_c, 6, 59, 90
8, 12899, Note_on_c, 6, 59, 0
8, 12900, Note_on_c, 6, 60, 90
8, 12959, Note_on_c, 6, 60, 0
8, 12960, Note_on_c, 6, 55, 90
8, 13019, Note_on_c, 6, 55, 0
8, 13020, Note_on_c, 6, 54, 90
8, 13079, Note_on_c, 6, 54, 0
8, 13080, Note_on_c, 6, 52, 90
8, 13139, Note_on_c, 6, 52, 0
8, 13140, Note_on_c, 6, 50, 90
8, 13199, Note_on_c, 6, 50, 0
8, 13200, Note_on_c, 6, 57, 90
8, 13259, Note_on_c, 6, 57, 0
8, 13260, Note_on_c, 6, 54, 90
8, 13319, Note_on_c, 6, 54, 0
8, 13320, Note_on_c, 6, 52, 90
8, 13379, Note_on_c, 6, 52, 0
8, 13380, Note_on_c, 6, 50, 90
8, 13439, Note_on_c, 6, 50, 0
8, 13440, Note_on_c, 6, 57, 90
8, 13499, Note_on_c, 6, 57, 0
8, 13500, Note_on_c, 6, 55, 90
8, 13559, Note_on_c, 6, 55, 0
8, 13560, Note_on_c, 6, 57, 90
8, 13619, Note_on_c, 6, 57, 0
8, 13620, Note_on_c, 6, 54, 90
8, 13679, Note_on_c, 6, 54, 0
8, 13680, Note_on_c, 6, 59, 90
8, 13739, Note_on_c, 6, 59, 0
8, 13740, Note_on_c, 6, 55, 90
8, 13799, Note_on_c, 6, 55, 0
8, 13800, Note_on_c, 6, 52, 90
8, 13859, Note_on_c, 6, 52, 0
8, 13860, Note_on_c, 6, 55, 90
8, 13919, Note_on_c, 6, 55, 0
8, 13920, Note_on_c, 6, 57, 90
8, 13979, Note_on_c, 6, 57, 0
8, 13980, Note_on_c, 6, 54, 90
8, 14039, Note_on_c, 6, 54, 0
8, 14040, Note_on_c, 6, 50, 90
8, 14099, Note_on_c, 6, 50, 0
8, 14100, Note_on_c, 6, 54, 90
8, 14159, Note_on_c, 6, 54, 0
8, 14160, Note_on_c, 6, 55, 90
8, 14219, Note_on_c, 6, 55, 0
8, 14220, Note_on_c, 6, 52, 90
8, 14279, Note_on_c, 6, 52, 0
8, 14280, Note_on_c, 6, 49, 90
8, 14339, Note_on_c, 6, 49, 0
8, 14340, Note_on_c, 6, 47, 90
8, 14399, Note_on_c, 6, 47, 0
8, 14400, Note_on_c, 6, 46, 90
8, 14429, Note_on_c, 6, 46, 0
8, 14430, Note_on_c, 6, 54, 90
8, 14459, Note_on_c, 6, 54, 0
8, 14460, Note_on_c, 6, 59, 90
8, 14489, Note_on_c, 6, 59, 0
8, 14490, Note_on_c, 6, 52, 90
8, 14519, Note_on_c, 6, 52, 0
8, 14520, Note_on_c, 6, 54, 90
8, 14579, Note_on_c, 6, 54, 0
8, 14580, Note_on_c, 6, 42, 90
8, 14639, Note_on_c, 6, 42, 0
8, 14640, Note_on_c, 6, 47, 90
8, 14699, Note_on_c, 6, 47, 0
8, 14700, Note_on_c, 6, 49, 90
8, 14759, Note_on_c, 6, 49, 0
8, 14760, Note_on_c, 6, 50, 90
8, 14819, Note_on_c, 6, 50, 0
8, 14820, Note_on_c, 6, 47, 90
8, 14879, Note_on_c, 6, 47, 0
8, 14880, Note_on_c, 6, 52, 90
8, 14939, Note_on_c, 6, 52, 0
8, 14940, Note_on_c, 6, 55, 90
8, 14999, Note_on_c, 6, 55, 0
8, 15000, Note_on_c, 6, 57, 90
8, 15059, Note_on_c, 6, 57, 0
8, 15060, Note_on_c, 6, 45, 90
8, 15119, Note_on_c, 6, 45, 0
8, 15120, Note_on_c, 6, 50, 90
8, 15179, Note_on_c, 6, 50, 0
8, 15180, Note_on_c, 6, 52, 90
8, 15239, Note_on_c, 6, 52, 0
8, 15240, Note_on_c, 6, 54, 90
8, 15299, Note_on_c, 6, 54, 0
8, 15300, Note_on_c, 6, 50, 90
8, 15359, Note_on_c, 6, 50, 0
8, 15360, Note_on_c, 6, 55, 90
8, 15419, Note_on_c, 6, 55, 0
8, 15420, Note_on_c, 6, 54, 90
8, 15479, Note_on_c, 6, 54, 0
8, 15480, Note_on_c, 6, 52, 90
8, 15539, Note_on_c, 6, 52, 0
8, 15540, Note_on_c, 6, 55, 90
8, 15599, Note_on_c, 6, 55, 0
8, 15600, Note_on_c, 6, 57, 90
8, 15659, Note_on_c, 6, 57, 0
8, 15660, Note_on_c, 6, 55, 90
8, 15719, Note_on_c, 6, 55, 0
8, 15720, Note_on_c, 6, 54, 90
8, 15779, Note_on_c, 6, 54, 0
8, 15780, Note_on_c, 6, 57, 90
8, 15839, Note_on_c, 6, 57, 0
8, 15840, Note_on_c, 6, 59, 90
8, 15899, Note_on_c, 6, 59, 0
8, 15900, Note_on_c, 6, 57, 90
8, 15929, Note_on_c, 6, 57, 0
8, 15930, Note_on_c, 6, 55, 90
8, 15959, Note_on_c, 6, 55, 0
8, 15960, Note_on_c, 6, 57, 90
8, 16019, Note_on_c, 6, 57, 0
8, 16020, Note_on_c, 6, 45, 90
8, 16079, Note_on_c, 6, 45, 0
8, 16080, Note_on_c, 6, 50, 90
8, 16199, Note_on_c, 6, 50, 0
8, 24960, Note_on_c, 6, 43, 90
8, 25200, Note_on_c, 6, 43, 0
8, 28440, Note_on_c, 6, 48, 100
8, 28500, Note_on_c, 6, 48, 0
8, 28500, Note_on_c, 6, 60, 100
8, 28560, Note_on_c, 6, 60, 0
8, 28560, Note_on_c, 6, 60, 100
8, 28620, Note_on_c, 6, 60, 0
8, 28620, Note_on_c, 6, 50, 100
8, 28680, Note_on_c, 6, 50, 0
8, 28680, Note_on_c, 6, 60, 100
8, 28740, Note_on_c, 6, 60, 0
8, 28740, Note_on_c, 6, 60, 100
8, 28800, Note_on_c, 6, 60, 0
8, 28800, Note_on_c, 6, 52, 100
8, 28830, Note_on_c, 6, 52, 0
8, 28830, Note_on_c, 6, 55, 100
8, 28860, Note_on_c, 6, 55, 0
8, 28860, Note_on_c, 6, 57, 100
8, 28890, Note_on_c, 6, 57, 0
8, 28890, Note_on_c, 6, 59, 100
8, 28920, Note_on_c, 6, 59, 0
8, 28920, Note_on_c, 6, 60, 100
8, 28950, Note_on_c, 6, 60, 0
8, 28950, Note_on_c, 6, 52, 100
8, 28980, Note_on_c, 6, 52, 0
8, 28980, Note_on_c, 6, 54, 100
8, 29010, Note_on_c, 6, 54, 0
8, 29010, Note_on_c, 6, 55, 100
8, 29040, Note_on_c, 6, 55, 0
8, 29040, Note_on_c, 6, 57, 100
8, 29070, Note_on_c, 6, 57, 0
8, 29070, Note_on_c, 6, 59, 100
8, 29100, Note_on_c, 6, 59, 0
8, 29100, Note_on_c, 6, 60, 100
8, 29130, Note_on_c, 6, 60, 0
8, 29130, Note_on_c, 6, 54, 100
8, 29160, Note_on_c, 6, 54, 0
8, 29160, Note_on_c, 6, 55, 100
8, 29220, Note_on_c, 6, 55, 0
8, 29220, Note_on_c, 6, 67, 100
8, 29280, Note_on_c, 6, 67, 0
8, 29280, Note_on_c, 6, 67, 100
8, 29340, Note_on_c, 6, 67, 0
8, 29340, Note_on_c, 6, 57, 100
8, 29400, Note_on_c, 6, 57, 0
8, 29400, Note_on_c, 6, 67, 100
8, 29460, Note_on_c, 6, 67, 0
8, 29460, Note_on_c, 6, 67, 100
8, 29520, Note_on_c, 6, 67, 0
8, 29520, Note_on_c, 6, 59, 100
8, 29550, Note_on_c, 6, 59, 0
8, 29550, Note_on_c, 6, 62, 100
8, 29580, Note_on_c, 6, 62, 0
8, 29580, Note_on_c, 6, 64, 100
8, 29610, Note_on_c, 6, 64, 0
8, 29610, Note_on_c, 6, 65, 100
8, 29640, Note_on_c, 6, 65, 0
8, 29640, Note_on_c, 6, 67, 100
8, 29670, Note_on_c, 6, 67, 0
8, 29670, Note_on_c, 6, 59, 100
8, 29700, Note_on_c, 6, 59, 0
8, 29700, Note_on_c, 6, 61, 100
8, 29730, Note_on_c, 6, 61, 0
8, 29730, Note_on_c, 6, 62, 100
8, 29760, Note_on_c, 6, 62, 0
8, 29760, Note_on_c, 6, 64, 100
8, 29790, Note_on_c, 6, 64, 0
8, 29790, Note_on_c, 6, 65, 100
8, 29820, Note_on_c, 6, 65, 0
8, 29820, Note_on_c, 6, 67, 100
8, 29850, Note_on_c, 6, 67, 0
8, 29850, Note_on_c, 6, 61, 100
8, 29880, Note_on_c, 6, 61, 0
8, 29880, Note_on_c, 6, 62, 100
8, 29910, Note_on_c, 6, 62, 0
8, 29910, Note_on_c, 6, 67, 100
8, 29940, Note_on_c, 6, 67, 0
8, 29940, Note_on_c, 6, 65, 100
8, 29970, Note_on_c, 6, 65, 0
8, 29970, Note_on_c, 6, 64, 100
8, 30000, Note_on_c, 6, 64, 0
8, 30000, Note_on_c, 6, 65, 100
8, 30030, Note_on_c, 6, 65, 0
8, 30030, Note_on_c, 6, 62, 100
8, 30060, Note_on_c, 6, 62, 0
8, 30060, Note_on_c, 6, 59, 100
8, 30090, Note_on_c, 6, 59, 0
8, 30090, Note_on_c, 6, 65, 100
8, 30120, Note_on_c, 6, 65, 0
8, 30120, Note_on_c, 6, 64, 100
8, 30150, Note_on_c, 6, 64, 0
8, 30150, Note_on_c, 6, 62, 100
8, 30180, Note_on_c, 6, 62, 0
8, 30180, Note_on_c, 6, 64, 100
8, 30210, Note_on_c, 6, 64, 0
8, 30210, Note_on_c, 6, 60, 100
8, 30240, Note_on_c, 6, 60, 0
8, 30240, Note_on_c, 6, 55, 100
8, 30270, Note_on_c, 6, 55, 0
8, 30270, Note_on_c, 6, 64, 100
8, 30300, Note_on_c, 6, 64, 0
8, 30300, Note_on_c, 6, 62, 100
8, 30330, Note_on_c, 6, 62, 0
8, 30330, Note_on_c, 6, 60, 100
8, 30360, Note_on_c, 6, 60, 0
8, 30360, Note_on_c, 6, 62, 100
8, 30390, Note_on_c, 6, 62, 0
8, 30390, Note_on_c, 6, 59, 100
8, 30420, Note_on_c, 6, 59, 0
8, 30420, Note_on_c, 6, 55, 100
8, 30450, Note_on_c, 6, 55, 0
8, 30450, Note_on_c, 6, 62, 100
8, 30480, Note_on_c, 6, 62, 0
8, 30480, Note_on_c, 6, 60, 100
8, 30510, Note_on_c, 6, 60, 0
8, 30510, Note_on_c, 6, 59, 100
8, 30540, Note_on_c, 6, 59, 0
8, 30540, Note_on_c, 6, 60, 100
8, 30570, Note_on_c, 6, 60, 0
8, 30570, Note_on_c, 6, 57, 100
8, 30600, Note_on_c, 6, 57, 0
8, 30600, Note_on_c, 6, 55, 100
8, 30630, Note_on_c, 6, 55, 0
8, 30630, Note_on_c, 6, 60, 100
8, 30660, Note_on_c, 6, 60, 0
8, 30660, Note_on_c, 6, 59, 100
8, 30690, Note_on_c, 6, 59, 0
8, 30690, Note_on_c, 6, 57, 100
8, 30720, Note_on_c, 6, 57, 0
8, 30720, Note_on_c, 6, 59, 100
8, 30750, Note_on_c, 6, 59, 0
8, 30750, Note_on_c, 6, 55, 100
8, 30780, Note_on_c, 6, 55, 0
8, 30780, Note_on_c, 6, 60, 100
8, 30840, Note_on_c, 6, 60, 0
8, 30840, Note_on_c, 6, 59, 100
8, 30870, Note_on_c, 6, 59, 0
8, 30870, Note_on_c, 6, 57, 100
8, 30900, Note_on_c, 6, 57, 0
8, 30900, Note_on_c, 6, 55, 100
8, 30930, Note_on_c, 6, 55, 0
8, 30930, Note_on_c, 6, 53, 100
8, 30960, Note_on_c, 6, 53, 0
8, 30960, Note_on_c, 6, 52, 100
8, 31020, Note_on_c, 6, 52, 0
8, 31020, Note_on_c, 6, 53, 100
8, 31050, Note_on_c, 6, 53, 0
8, 31050, Note_on_c, 6, 52, 100
8, 31080, Note_on_c, 6, 52, 0
8, 31080, Note_on_c, 6, 50, 100
8, 31110, Note_on_c, 6, 50, 0
8, 31110, Note_on_c, 6, 48, 100
8, 31140, Note_on_c, 6, 48, 0
8, 31140, Note_on_c, 6, 55, 100
8, 31200, Note_on_c, 6, 55, 0
8, 31200, Note_on_c, 6, 53, 100
8, 31260, Note_on_c, 6, 53, 0
8, 31260, Note_on_c, 6, 55, 100
8, 31320, Note_on_c, 6, 55, 0
8, 31320, Note_on_c, 6, 48, 100
8, 31500, Note_on_c, 6, 48, 0
8, 31680, Note_on_c, 6, 48, 100
8, 31740, Note_on_c, 6, 48, 0
8, 31740, Note_on_c, 6, 60, 100
8, 31800, Note_on_c, 6, 60, 0
8, 31800, Note_on_c, 6, 60, 100
8, 31860, Note_on_c, 6, 60, 0
8, 31860, Note_on_c, 6, 50, 100
8, 31920, Note_on_c, 6, 50, 0
8, 31920, Note_on_c, 6, 60, 100
8, 31980, Note_on_c, 6, 60, 0
8, 31980, Note_on_c, 6, 60, 100
8, 32040, Note_on_c, 6, 60, 0
8, 32040, Note_on_c, 6, 52, 100
8, 32070, Note_on_c, 6, 52, 0
8, 32070, Note_on_c, 6, 55, 100
8, 32100, Note_on_c, 6, 55, 0
8, 32100, Note_on_c, 6, 57, 100
8, 32130, Note_on_c, 6, 57, 0
8, 32130, Note_on_c, 6, 59, 100
8, 32160, Note_on_c, 6, 59, 0
8, 32160, Note_on_c, 6, 60, 100
8, 32190, Note_on_c, 6, 60, 0
8, 32190, Note_on_c, 6, 52, 100
8, 32220, Note_on_c, 6, 52, 0
8, 32220, Note_on_c, 6, 54, 100
8, 32250, Note_on_c, 6, 54, 0
8, 32250, Note_on_c, 6, 55, 100
8, 32280, Note_on_c, 6, 55, 0
8, 32280, Note_on_c, 6, 57, 100
8, 32310, Note_on_c, 6, 57, 0
8, 32310, Note_on_c, 6, 59, 100
8, 32340, Note_on_c, 6, 59, 0
8, 32340, Note_on_c, 6, 60, 100
8, 32370, Note_on_c, 6, 60, 0
8, 32370, Note_on_c, 6, 54, 100
8, 32400, Note_on_c, 6, 54, 0
8, 32400, Note_on_c, 6, 55, 100
8, 32460, Note_on_c, 6, 55, 0
8, 32460, Note_on_c, 6, 67, 100
8, 32520, Note_on_c, 6, 67, 0
8, 32520, Note_on_c, 6, 67, 100
8, 32580, Note_on_c, 6, 67, 0
8, 32580, Note_on_c, 6, 57, 100
8, 32640, Note_on_c, 6, 57, 0
8, 32640, Note_on_c, 6, 67, 100
8, 32700, Note_on_c, 6, 67, 0
8, 32700, Note_on_c, 6, 67, 100
8, 32760, Note_on_c, 6, 67, 0
8, 32760, Note_on_c, 6, 59, 100
8, 32790, Note_on_c, 6, 59, 0
8, 32790, Note_on_c, 6, 62, 100
8, 32820, Note_on_c, 6, 62, 0
8, 32820, Note_on_c, 6, 64, 100
8, 32850, Note_on_c, 6, 64, 0
8, 32850, Note_on_c, 6, 65, 100
8, 32880, Note_on_c, 6, 65, 0
8, 32880, Note_on_c, 6, 67, 100
8, 32910, Note_on_c, 6, 67, 0
8, 32910, Note_on_c, 6, 59, 100
8, 32940, Note_on_c, 6, 59, 0
8, 32940, Note_on_c, 6, 61, 100
8, 32970, Note_on_c, 6, 61, 0
8, 32970, Note_on_c, 6, 62, 100
8, 33000, Note_on_c, 6, 62, 0
8, 33000, Note_on_c, 6, 64, 100
8, 33030, Note_on_c, 6, 64, 0
8, 33030, Note_on_c, 6, 65, 100
8, 33060, Note_on_c, 6, 65, 0
8, 33060, Note_on_c, 6, 67, 100
8, 33090, Note_on_c, 6, 67, 0
8, 33090, Note_on_c, 6, 61, 100
8, 33120, Note_on_c, 6, 61, 0
8, 33120, Note_on_c, 6, 62, 100
8, 33150, Note_on_c, 6, 62, 0
8, 33150, Note_on_c, 6, 67, 100
8, 33180, Note_on_c, 6, 67, 0
8, 33180, Note_on_c, 6, 65, 100
8, 33210, Note_on_c, 6, 65, 0
8, 33210, Note_on_c, 6, 64, 100
8, 33240, Note_on_c, 6, 64, 0
8, 33240, Note_on_c, 6, 65, 100
8, 33270, Note_on_c, 6, 65, 0
8, 33270, Note_on_c, 6, 62, 100
8, 33300, Note_on_c, 6, 62, 0
8, 33300, Note_on_c, 6, 59, 100
8, 33330, Note_on_c, 6, 59, 0
8, 33330, Note_on_c, 6, 65, 100
8, 33360, Note_on_c, 6, 65, 0
8, 33360, Note_on_c, 6, 64, 100
8, 33390, Note_on_c, 6, 64, 0
8, 33390, Note_on_c, 6, 62, 100
8, 33420, Note_on_c, 6, 62, 0
8, 33420, Note_on_c, 6, 64, 100
8, 33450, Note_on_c, 6, 64, 0
8, 33450, Note_on_c, 6, 60, 100
8, 33480, Note_on_c, 6, 60, 0
8, 33480, Note_on_c, 6, 55, 100
8, 33510, Note_on_c, 6, 55, 0
8, 33510, Note_on_c, 6, 64, 100
8, 33540, Note_on_c, 6, 64, 0
8, 33540, Note_on_c, 6, 62, 100
8, 33570, Note_on_c, 6, 62, 0
8, 33570, Note_on_c, 6, 60, 100
8, 33600, Note_on_c, 6, 60, 0
8, 33600, Note_on_c, 6, 62, 100
8, 33630, Note_on_c, 6, 62, 0
8, 33630, Note_on_c, 6, 59, 100
8, 33660, Note_on_c, 6, 59, 0
8, 33660, Note_on_c, 6, 55, 100
8, 33690, Note_on_c, 6, 55, 0
8, 33690, Note_on_c, 6, 62, 100
8, 33720, Note_on_c, 6, 62, 0
8, 33720, Note_on_c, 6, 60, 100
8, 33750, Note_on_c, 6, 60, 0
8, 33750, Note_on_c, 6, 59, 100
8, 33780, Note_on_c, 6, 59, 0
8, 33780, Note_on_c, 6, 60, 100
8, 33810, Note_on_c, 6, 60, 0
8, 33810, Note_on_c, 6, 57, 100
8, 33840, Note_on_c, 6, 57, 0
8, 33840, Note_on_c, 6, 55, 100
8, 33870, Note_on_c, 6, 55, 0
8, 33870, Note_on_c, 6, 60, 100
8, 33900, Note_on_c, 6, 60, 0
8, 33900, Note_on_c, 6, 59, 100
8, 33930, Note_on_c, 6, 59, 0
8, 33930, Note_on_c, 6, 57, 100
8, 33960, Note_on_c, 6, 57, 0
8, 33960, Note_on_c, 6, 59, 100
8, 33990, Note_on_c, 6, 59, 0
8, 33990, Note_on_c, 6, 55, 100
8, 34020, Note_on_c, 6, 55, 0
8, 34020, Note_on_c, 6, 60, 100
8, 34080, Note_on_c, 6, 60, 0
8, 34080, Note_on_c, 6, 59, 100
8, 34110, Note_on_c, 6, 59, 0
8, 34110, Note_on_c, 6, 57, 100
8, 34140, Note_on_c, 6, 57, 0
8, 34140, Note_on_c, 6, 55, 100
8, 34170, Note_on_c, 6, 55, 0
8, 34170, Note_on_c, 6, 53, 100
8, 34200, Note_on_c, 6, 53, 0
8, 34200, Note_on_c, 6, 52, 100
8, 34260, Note_on_c, 6, 52, 0
8, 34260, Note_on_c, 6, 53, 100
8, 34290, Note_on_c, 6, 53, 0
8, 34290, Note_on_c, 6, 52, 100
8, 34320, Note_on_c, 6, 52, 0
8, 34320, Note_on_c, 6, 50, 100
8, 34350, Note_on_c, 6, 50, 0
8, 34350, Note_on_c, 6, 48, 100
8, 34380, Note_on_c, 6, 48, 0
8, 34380, Note_on_c, 6, 55, 100
8, 34440, Note_on_c, 6, 55, 0
8, 34440, Note_on_c, 6, 53, 100
8, 34500, Note_on_c, 6, 53, 0
8, 34500, Note_on_c, 6, 55, 100
8, 34560, Note_on_c, 6, 55, 0
8, 34560, Note_on_c, 6, 48, 100
8, 34620, Note_on_c, 6, 48, 0
8, 34620, Note_on_c, 6, 60, 100
8, 34680, Note_on_c, 6, 60, 0
8, 34680, Note_on_c, 6, 60, 100
8, 34740, Note_on_c, 6, 60, 0
8, 34740, Note_on_c, 6, 50, 100
8, 34800, Note_on_c, 6, 50, 0
8, 34800, Note_on_c, 6, 60, 100
8, 34860, Note_on_c, 6, 60, 0
8, 34860, Note_on_c, 6, 60, 100
8, 34920, Note_on_c, 6, 60, 0
8, 34920, Note_on_c, 6, 52, 100
8, 34950, Note_on_c, 6, 52, 0
8, 34950, Note_on_c, 6, 55, 100
8, 34980, Note_on_c, 6, 55, 0
8, 34980, Note_on_c, 6, 57, 100
8, 35010, Note_on_c, 6, 57, 0
8, 35010, Note_on_c, 6, 59, 100
8, 35040, Note_on_c, 6, 59, 0
8, 35040, Note_on_c, 6, 60, 100
8, 35070, Note_on_c, 6, 60, 0
8, 35070, Note_on_c, 6, 52, 100
8, 35100, Note_on_c, 6, 52, 0
8, 35100, Note_on_c, 6, 54, 100
8, 35130, Note_on_c, 6, 54, 0
8, 35130, Note_on_c, 6, 55, 100
8, 35160, Note_on_c, 6, 55, 0
8, 35160, Note_on_c, 6, 57, 100
8, 35190, Note_on_c, 6, 57, 0
8, 35190, Note_on_c, 6, 59, 100
8, 35220, Note_on_c, 6, 59, 0
8, 35220, Note_on_c, 6, 60, 100
8, 35250, Note_on_c, 6, 60, 0
8, 35250, Note_on_c, 6, 54, 100
8, 35280, Note_on_c, 6, 54, 0
8, 35280, Note_on_c, 6, 55, 100
8, 35340, Note_on_c, 6, 55, 0
8, 35460, Note_on_c, 6, 57, 100
8, 35520, Note_on_c, 6, 57, 0
8, 35640, Note_on_c, 6, 59, 100
8, 35700, Note_on_c, 6, 59, 0
8, 35820, Note_on_c, 6, 60, 100
8, 35880, Note_on_c, 6, 60, 0
8, 36000, Note_on_c, 6, 50, 100
8, 36060, Note_on_c, 6, 50, 0
8, 36060, Note_on_c, 6, 62, 100
8, 36120, Note_on_c, 6, 62, 0
8, 36120, Note_on_c, 6, 62, 100
8, 36180, Note_on_c, 6, 62, 0
8, 36180, Note_on_c, 6, 52, 100
8, 36240, Note_on_c, 6, 52, 0
8, 36240, Note_on_c, 6, 62, 100
8, 36300, Note_on_c, 6, 62, 0
8, 36300, Note_on_c, 6, 62, 100
8, 36360, Note_on_c, 6, 62, 0
8, 36360, Note_on_c, 6, 54, 90
8, 36389, Note_on_c, 6, 54, 0
8, 36390, Note_on_c, 6, 57, 90
8, 36419, Note_on_c, 6, 57, 0
8, 36420, Note_on_c, 6, 59, 90
8, 36449, Note_on_c, 6, 59, 0
8, 36450, Note_on_c, 6, 60, 90
8, 36479, Note_on_c, 6, 60, 0
8, 36480, Note_on_c, 6, 62, 90
8, 36509, Note_on_c, 6, 62, 0
8, 36510, Note_on_c, 6, 54, 90
8, 36539, Note_on_c, 6, 54, 0
8, 36540, Note_on_c, 6, 56, 90
8, 36569, Note_on_c, 6, 56, 0
8, 36570, Note_on_c, 6, 57, 90
8, 36599, Note_on_c, 6, 57, 0
8, 36600, Note_on_c, 6, 59, 90
8, 36629, Note_on_c, 6, 59, 0
8, 36630, Note_on_c, 6, 60, 90
8, 36659, Note_on_c, 6, 60, 0
8, 36660, Note_on_c, 6, 62, 90
8, 36689, Note_on_c, 6, 62, 0
8, 36690, Note_on_c, 6, 56, 90
8, 36719, Note_on_c, 6, 56, 0
8, 36720, Note_on_c, 6, 57, 90
8, 36749, Note_on_c, 6, 57, 0
8, 36750, Note_on_c, 6, 62, 90
8, 36779, Note_on_c, 6, 62, 0
8, 36780, Note_on_c, 6, 60, 90
8, 36809, Note_on_c, 6, 60, 0
8, 36810, Note_on_c, 6, 59, 90
8, 36839, Note_on_c, 6, 59, 0
8, 36840, Note_on_c, 6, 60, 90
8, 36869, Note_on_c, 6, 60, 0
8, 36870, Note_on_c, 6, 57, 90
8, 36899, Note_on_c, 6, 57, 0
8, 36900, Note_on_c, 6, 54, 90
8, 36929, Note_on_c, 6, 54, 0
8, 36930, Note_on_c, 6, 60, 90
8, 36959, Note_on_c, 6, 60, 0
8, 36960, Note_on_c, 6, 59, 90
8, 36989, Note_on_c, 6, 59, 0
8, 36990, Note_on_c, 6, 57, 90
8, 37019, Note_on_c, 6, 57, 0
8, 37020, Note_on_c, 6, 59, 90
8, 37049, Note_on_c, 6, 59, 0
8, 37050, Note_on_c, 6, 55, 90
8, 37079, Note_on_c, 6, 55, 0
8, 37080, Note_on_c, 6, 50, 90
8, 37109, Note_on_c, 6, 50, 0
8, 37110, Note_on_c, 6, 59, 90
8, 37139, Note_on_c, 6, 59, 0
8, 37140, Note_on_c, 6, 57, 90
8, 37169, Note_on_c, 6, 57, 0
8, 37170, Note_on_c, 6, 55, 90
8, 37199, Note_on_c, 6, 55, 0
8, 37200, Note_on_c, 6, 57, 90
8, 37229, Note_on_c, 6, 57, 0
8, 37230, Note_on_c, 6, 54, 90
8, 37259, Note_on_c, 6, 54, 0
8, 37260, Note_on_c, 6, 50, 90
8, 37289, Note_on_c, 6, 50, 0
8, 37290, Note_on_c, 6, 57, 90
8, 37319, Note_on_c, 6, 57, 0
8, 37320, Note_on_c, 6, 55, 90
8, 37349, Note_on_c, 6, 55, 0
8, 37350, Note_on_c, 6, 54, 90
8, 37379, Note_on_c, 6, 54, 0
8, 37380, Note_on_c, 6, 55, 90
8, 37409, Note_on_c, 6, 55, 0
8, 37410, Note_on_c, 6, 52, 90
8, 37439, Note_on_c, 6, 52, 0
8, 37440, Note_on_c, 6, 50, 90
8, 37469, Note_on_c, 6, 50, 0
8, 37470, Note_on_c, 6, 55, 90
8, 37499, Note_on_c, 6, 55, 0
8, 37500, Note_on_c, 6, 54, 90
8, 37529, Note_on_c, 6, 54, 0
8, 37530, Note_on_c, 6, 52, 90
8, 37559, Note_on_c, 6, 52, 0
8, 37560, Note_on_c, 6, 54, 90
8, 37589, Note_on_c, 6, 54, 0
8, 37590, Note_on_c, 6, 50, 90
8, 37619, Note_on_c, 6, 50, 0
8, 37620, Note_on_c, 6, 55, 90
8, 37679, Note_on_c, 6, 55, 0
8, 37680, Note_on_c, 6, 54, 90
8, 37709, Note_on_c, 6, 54, 0
8, 37710, Note_on_c, 6, 52, 90
8, 37739, Note_on_c, 6, 52, 0
8, 37740, Note_on_c, 6, 50, 90
8, 37769, Note_on_c, 6, 50, 0
8, 37770, Note_on_c, 6, 48, 90
8, 37799, Note_on_c, 6, 48, 0
8, 37800, Note_on_c, 6, 47, 90
8, 37859, Note_on_c, 6, 47, 0
8, 37860, Note_on_c, 6, 48, 90
8, 37889, Note_on_c, 6, 48, 0
8, 37890, Note_on_c, 6, 47, 90
8, 37919, Note_on_c, 6, 47, 0
8, 37920, Note_on_c, 6, 45, 90
8, 37949, Note_on_c, 6, 45, 0
8, 37950, Note_on_c, 6, 43, 90
8, 37979, Note_on_c, 6, 43, 0
8, 37980, Note_on_c, 6, 50, 90
8, 38039, Note_on_c, 6, 50, 0
8, 38040, Note_on_c, 6, 48, 90
8, 38099, Note_on_c, 6, 48, 0
8, 38100, Note_on_c, 6, 50, 90
8, 38159, Note_on_c, 6, 50, 0
8, 38160, Note_on_c, 6, 43, 90
8, 38219, Note_on_c, 6, 43, 0
8, 38220, Note_on_c, 6, 55, 90
8, 38279, Note_on_c, 6, 55, 0
8, 38280, Note_on_c, 6, 55, 90
8, 38339, Note_on_c, 6, 55, 0
8, 38340, Note_on_c, 6, 45, 90
8, 38399, Note_on_c, 6, 45, 0
8, 38400, Note_on_c, 6, 55, 90
8, 38459, Note_on_c, 6, 55, 0
8, 38460, Note_on_c, 6, 55, 90
8, 38519, Note_on_c, 6, 55, 0
8, 38519, Note_on_c, 6, 47, 90
8, 38548, Note_on_c, 6, 47, 0
8, 38549, Note_on_c, 6, 50, 90
8, 38578, Note_on_c, 6, 50, 0
8, 38579, Note_on_c, 6, 52, 90
8, 38608, Note_on_c, 6, 52, 0
8, 38609, Note_on_c, 6, 53, 90
8, 38638, Note_on_c, 6, 53, 0
8, 38639, Note_on_c, 6, 55, 90
8, 38668, Note_on_c, 6, 55, 0
8, 38669, Note_on_c, 6, 47, 90
8, 38698, Note_on_c, 6, 47, 0
8, 38699, Note_on_c, 6, 49, 90
8, 38728, Note_on_c, 6, 49, 0
8, 38729, Note_on_c, 6, 50, 90
8, 38758, Note_on_c, 6, 50, 0
8, 38759, Note_on_c, 6, 52, 90
8, 38788, Note_on_c, 6, 52, 0
8, 38789, Note_on_c, 6, 53, 90
8, 38818, Note_on_c, 6, 53, 0
8, 38820, Note_on_c, 6, 55, 90
8, 38849, Note_on_c, 6, 55, 0
8, 38850, Note_on_c, 6, 49, 90
8, 38879, Note_on_c, 6, 49, 0
8, 38880, Note_on_c, 6, 50, 90
8, 38939, Note_on_c, 6, 50, 0
8, 39000, Note_on_c, 6, 52, 90
8, 39059, Note_on_c, 6, 52, 0
8, 39060, Note_on_c, 6, 53, 90
8, 39119, Note_on_c, 6, 53, 0
8, 39180, Note_on_c, 6, 50, 90
8, 39239, Note_on_c, 6, 50, 0
8, 39240, Note_on_c, 6, 55, 90
8, 39299, Note_on_c, 6, 55, 0
8, 39300, Note_on_c, 6, 67, 90
8, 39359, Note_on_c, 6, 67, 0
8, 39360, Note_on_c, 6, 67, 90
8, 39419, Note_on_c, 6, 67, 0
8, 39420, Note_on_c, 6, 57, 90
8, 39479, Note_on_c, 6, 57, 0
8, 39480, Note_on_c, 6, 67, 90
8, 39539, Note_on_c, 6, 67, 0
8, 39540, Note_on_c, 6, 67, 90
8, 39599, Note_on_c, 6, 67, 0
8, 39600, Note_on_c, 6, 59, 90
8, 39629, Note_on_c, 6, 59, 0
8, 39630, Note_on_c, 6, 62, 90
8, 39659, Note_on_c, 6, 62, 0
8, 39660, Note_on_c, 6, 64, 90
8, 39689, Note_on_c, 6, 64, 0
8, 39690, Note_on_c, 6, 65, 90
8, 39719, Note_on_c, 6, 65, 0
8, 39720, Note_on_c, 6, 67, 90
8, 39749, Note_on_c, 6, 67, 0
8, 39750, Note_on_c, 6, 59, 90
8, 39779, Note_on_c, 6, 59, 0
8, 39780, Note_on_c, 6, 60, 90
8, 39809, Note_on_c, 6, 60, 0
8, 39810, Note_on_c, 6, 62, 90
8, 39839, Note_on_c, 6, 62, 0
8, 39840, Note_on_c, 6, 64, 90
8, 39869, Note_on_c, 6, 64, 0
8, 39870, Note_on_c, 6, 65, 90
8, 39899, Note_on_c, 6, 65, 0
8, 39900, Note_on_c, 6, 67, 90
8, 39929, Note_on_c, 6, 67, 0
8, 39930, Note_on_c, 6, 60, 90
8, 39959, Note_on_c, 6, 60, 0
8, 39960, Note_on_c, 6, 62, 90
8, 39989, Note_on_c, 6, 62, 0
8, 39990, Note_on_c, 6, 67, 90
8, 40019, Note_on_c, 6, 67, 0
8, 40020, Note_on_c, 6, 65, 90
8, 40049, Note_on_c, 6, 65, 0
8, 40050, Note_on_c, 6, 64, 90
8, 40079, Note_on_c, 6, 64, 0
8, 40080, Note_on_c, 6, 65, 90
8, 40109, Note_on_c, 6, 65, 0
8, 40110, Note_on_c, 6, 62, 90
8, 40139, Note_on_c, 6, 62, 0
8, 40140, Note_on_c, 6, 59, 90
8, 40169, Note_on_c, 6, 59, 0
8, 40170, Note_on_c, 6, 65, 90
8, 40199, Note_on_c, 6, 65, 0
8, 40200, Note_on_c, 6, 64, 90
8, 40229, Note_on_c, 6, 64, 0
8, 40230, Note_on_c, 6, 62, 90
8, 40259, Note_on_c, 6, 62, 0
8, 40260, Note_on_c, 6, 64, 90
8, 40289, Note_on_c, 6, 64, 0
8, 40290, Note_on_c, 6, 60, 90
8, 40319, Note_on_c, 6, 60, 0
8, 40320, Note_on_c, 6, 55, 90
8, 40349, Note_on_c, 6, 55, 0
8, 40350, Note_on_c, 6, 64, 90
8, 40379, Note_on_c, 6, 64, 0
8, 40380, Note_on_c, 6, 62, 90
8, 40409, Note_on_c, 6, 62, 0
8, 40410, Note_on_c, 6, 60, 90
8, 40439, Note_on_c, 6, 60, 0
8, 40440, Note_on_c, 6, 62, 90
8, 40469, Note_on_c, 6, 62, 0
8, 40470, Note_on_c, 6, 59, 90
8, 40499, Note_on_c, 6, 59, 0
8, 40500, Note_on_c, 6, 55, 90
8, 40529, Note_on_c, 6, 55, 0
8, 40530, Note_on_c, 6, 62, 90
8, 40559, Note_on_c, 6, 62, 0
8, 40560, Note_on_c, 6, 60, 90
8, 40589, Note_on_c, 6, 60, 0
8, 40590, Note_on_c, 6, 59, 90
8, 40619, Note_on_c, 6, 59, 0
8, 40620, Note_on_c, 6, 60, 90
8, 40649, Note_on_c, 6, 60, 0
8, 40650, Note_on_c, 6, 57, 90
8, 40679, Note_on_c, 6, 57, 0
8, 40680, Note_on_c, 6, 55, 90
8, 40709, Note_on_c, 6, 55, 0
8, 40710, Note_on_c, 6, 60, 90
8, 40739, Note_on_c, 6, 60, 0
8, 40740, Note_on_c, 6, 59, 90
8, 40769, Note_on_c, 6, 59, 0
8, 40770, Note_on_c, 6, 57, 90
8, 40799, Note_on_c, 6, 57, 0
8, 40800, Note_on_c, 6, 59, 90
8, 40829, Note_on_c, 6, 59, 0
8, 40830, Note_on_c, 6, 55, 90
8, 40859, Note_on_c, 6, 55, 0
8, 40860, Note_on_c, 6, 60, 90
8, 40919, Note_on_c, 6, 60, 0
8, 40920, Note_on_c, 6, 59, 90
8, 40949, Note_on_c, 6, 59, 0
8, 40950, Note_on_c, 6, 57, 90
8, 40979, Note_on_c, 6, 57, 0
8, 40980, Note_on_c, 6, 55, 90
8, 41009, Note_on_c, 6, 55, 0
8, 41010, Note_on_c, 6, 53, 90
8, 41039, Note_on_c, 6, 53, 0
8, 41040, Note_on_c, 6, 52, 90
8, 41099, Note_on_c, 6, 52, 0
8, 41100, Note_on_c, 6, 53, 90
8, 41129, Note_on_c, 6, 53, 0
8, 41130, Note_on_c, 6, 52, 90
8, 41159, Note_on_c, 6, 52, 0
8, 41160, Note_on_c, 6, 50, 90
8, 41189, Note_on_c, 6, 50, 0
8, 41190, Note_on_c, 6, 48, 90
8, 41219, Note_on_c, 6, 48, 0
8, 41220, Note_on_c, 6, 55, 90
8, 41279, Note_on_c, 6, 55, 0
8, 41280, Note_on_c, 6, 53, 90
8, 41339, Note_on_c, 6, 53, 0
8, 41340, Note_on_c, 6, 55, 90
8, 41399, Note_on_c, 6, 55, 0
8, 41400, Note_on_c, 6, 48, 90
8, 41429, Note_on_c, 6, 48, 0
8, 41430, Note_on_c, 6, 62, 90
8, 41459, Note_on_c, 6, 62, 0
8, 41460, Note_on_c, 6, 60, 90
8, 41489, Note_on_c, 6, 60, 0
8, 41490, Note_on_c, 6, 58, 90
8, 41519, Note_on_c, 6, 58, 0
8, 41520, Note_on_c, 6, 60, 90
8, 41549, Note_on_c, 6, 60, 0
8, 41550, Note_on_c, 6, 57, 90
8, 41579, Note_on_c, 6, 57, 0
8, 41580, Note_on_c, 6, 48, 90
8, 41609, Note_on_c, 6, 48, 0
8, 41610, Note_on_c, 6, 60, 90
8, 41639, Note_on_c, 6, 60, 0
8, 41640, Note_on_c, 6, 58, 90
8, 41669, Note_on_c, 6, 58, 0
8, 41670, Note_on_c, 6, 57, 90
8, 41699, Note_on_c, 6, 57, 0
8, 41700, Note_on_c, 6, 58, 90
8, 41729, Note_on_c, 6, 58, 0
8, 41730, Note_on_c, 6, 55, 90
8, 41759, Note_on_c, 6, 55, 0
8, 41760, Note_on_c, 6, 48, 90
8, 41789, Note_on_c, 6, 48, 0
8, 41790, Note_on_c, 6, 58, 90
8, 41819, Note_on_c, 6, 58, 0
8, 41820, Note_on_c, 6, 57, 90
8, 41849, Note_on_c, 6, 57, 0
8, 41850, Note_on_c, 6, 55, 90
8, 41879, Note_on_c, 6, 55, 0
8, 41880, Note_on_c, 6, 57, 90
8, 41909, Note_on_c, 6, 57, 0
8, 41910, Note_on_c, 6, 53, 90
8, 41939, Note_on_c, 6, 53, 0
8, 41940, Note_on_c, 6, 48, 90
8, 41969, Note_on_c, 6, 48, 0
8, 41970, Note_on_c, 6, 57, 90
8, 41999, Note_on_c, 6, 57, 0
8, 42000, Note_on_c, 6, 55, 90
8, 42029, Note_on_c, 6, 55, 0
8, 42030, Note_on_c, 6, 53, 90
8, 42059, Note_on_c, 6, 53, 0
8, 42060, Note_on_c, 6, 55, 90
8, 42089, Note_on_c, 6, 55, 0
8, 42090, Note_on_c, 6, 52, 90
8, 42119, Note_on_c, 6, 52, 0
8, 42120, Note_on_c, 6, 50, 90
8, 42149, Note_on_c, 6, 50, 0
8, 42150, Note_on_c, 6, 55, 90
8, 42179, Note_on_c, 6, 55, 0
8, 42180, Note_on_c, 6, 53, 90
8, 42209, Note_on_c, 6, 53, 0
8, 42210, Note_on_c, 6, 52, 90
8, 42239, Note_on_c, 6, 52, 0
8, 42240, Note_on_c, 6, 53, 90
8, 42269, Note_on_c, 6, 53, 0
8, 42270, Note_on_c, 6, 50, 90
8, 42299, Note_on_c, 6, 50, 0
8, 42300, Note_on_c, 6, 47, 90
8, 42329, Note_on_c, 6, 47, 0
8, 42330, Note_on_c, 6, 53, 90
8, 42359, Note_on_c, 6, 53, 0
8, 42360, Note_on_c, 6, 52, 90
8, 42389, Note_on_c, 6, 52, 0
8, 42390, Note_on_c, 6, 50, 90
8, 42419, Note_on_c, 6, 50, 0
8, 42420, Note_on_c, 6, 52, 90
8, 42449, Note_on_c, 6, 52, 0
8, 42450, Note_on_c, 6, 48, 90
8, 42479, Note_on_c, 6, 48, 0
8, 42480, Note_on_c, 6, 43, 90
8, 42509, Note_on_c, 6, 43, 0
8, 42510, Note_on_c, 6, 52, 90
8, 42539, Note_on_c, 6, 52, 0
8, 42540, Note_on_c, 6, 50, 90
8, 42569, Note_on_c, 6, 50, 0
8, 42570, Note_on_c, 6, 48, 90
8, 42599, Note_on_c, 6, 48, 0
8, 42600, Note_on_c, 6, 50, 90
8, 42629, Note_on_c, 6, 50, 0
8, 42630, Note_on_c, 6, 47, 90
8, 42659, Note_on_c, 6, 47, 0
8, 42660, Note_on_c, 6, 43, 90
8, 42689, Note_on_c, 6, 43, 0
8, 42690, Note_on_c, 6, 50, 90
8, 42719, Note_on_c, 6, 50, 0
8, 42720, Note_on_c, 6, 48, 90
8, 42749, Note_on_c, 6, 48, 0
8, 42750, Note_on_c, 6, 47, 90
8, 42779, Note_on_c, 6, 47, 0
8, 42780, Note_on_c, 6, 48, 90
8, 42809, Note_on_c, 6, 48, 0
8, 42810, Note_on_c, 6, 45, 90
8, 42839, Note_on_c, 6, 45, 0
8, 42840, Note_on_c, 6, 43, 90
8, 42869, Note_on_c, 6, 43, 0
8, 42870, Note_on_c, 6, 48, 90
8, 42899, Note_on_c, 6, 48, 0
8, 42900, Note_on_c, 6, 47, 90
8, 42929, Note_on_c, 6, 47, 0
8, 42930, Note_on_c, 6, 45, 90
8, 42959, Note_on_c, 6, 45, 0
8, 42960, Note_on_c, 6, 47, 90
8, 42989, Note_on_c, 6, 47, 0
8, 42990, Note_on_c, 6, 43, 90
8, 43019, Note_on_c, 6, 43, 0
8, 43020, Note_on_c, 6, 48, 90
8, 43079, Note_on_c, 6, 48, 0
8, 43080, Note_on_c, 6, 47, 90
8, 43109, Note_on_c, 6, 47, 0
8, 43110, Note_on_c, 6, 45, 90
8, 43139, Note_on_c, 6, 45, 0
8, 43140, Note_on_c, 6, 43, 90
8, 43169, Note_on_c, 6, 43, 0
8, 43170, Note_on_c, 6, 41, 90
8, 43199, Note_on_c, 6, 41, 0
8, 43200, Note_on_c, 6, 40, 90
8, 43259, Note_on_c, 6, 40, 0
8, 43260, Note_on_c, 6, 41, 90
8, 43289, Note_on_c, 6, 41, 0
8, 43290, Note_on_c, 6, 40, 90
8, 43319, Note_on_c, 6, 40, 0
8, 43320, Note_on_c, 6, 38, 90
8, 43349, Note_on_c, 6, 38, 0
8, 43350, Note_on_c, 6, 36, 90
8, 43379, Note_on_c, 6, 36, 0
8, 43380, Note_on_c, 6, 43, 90
8, 43439, Note_on_c, 6, 43, 0
8, 43440, Note_on_c, 6, 41, 90
8, 43499, Note_on_c, 6, 41, 0
8, 43500, Note_on_c, 6, 43, 90
8, 43559, Note_on_c, 6, 43, 0
8, 43560, Note_on_c, 6, 36, 90
8, 43739, Note_on_c, 6, 36, 0
8, 43920, Note_on_c, 6, 43, 90
8, 44040, Note_on_c, 6, 43, 0
8, 44040, Note_on_c, 6, 45, 90
8, 44100, Note_on_c, 6, 45, 0
8, 44100, Note_on_c, 6, 47, 90
8, 44160, Note_on_c, 6, 47, 0
8, 44160, Note_on_c, 6, 45, 90
8, 44220, Note_on_c, 6, 45, 0
8, 44220, Note_on_c, 6, 44, 90
8, 44280, Note_on_c, 6, 44, 0
8, 44280, Note_on_c, 6, 45, 90
8, 44339, Note_on_c, 6, 45, 0
8, 44340, Note_on_c, 6, 57, 90
8, 44399, Note_on_c, 6, 57, 0
8, 44400, Note_on_c, 6, 57, 90
8, 44459, Note_on_c, 6, 57, 0
8, 44460, Note_on_c, 6, 47, 90
8, 44519, Note_on_c, 6, 47, 0
8, 44520, Note_on_c, 6, 57, 90
8, 44579, Note_on_c, 6, 57, 0
8, 44580, Note_on_c, 6, 57, 90
8, 44639, Note_on_c, 6, 57, 0
8, 44640, Note_on_c, 6, 48, 90
8, 44669, Note_on_c, 6, 48, 0
8, 44670, Note_on_c, 6, 52, 90
8, 44699, Note_on_c, 6, 52, 0
8, 44700, Note_on_c, 6, 54, 90
8, 44729, Note_on_c, 6, 54, 0
8, 44730, Note_on_c, 6, 56, 90
8, 44759, Note_on_c, 6, 56, 0
8, 44760, Note_on_c, 6, 57, 90
8, 44789, Note_on_c, 6, 57, 0
8, 44790, Note_on_c, 6, 48, 90
8, 44819, Note_on_c, 6, 48, 0
8, 44820, Note_on_c, 6, 50, 90
8, 44849, Note_on_c, 6, 50, 0
8, 44850, Note_on_c, 6, 52, 90
8, 44879, Note_on_c, 6, 52, 0
8, 44880, Note_on_c, 6, 53, 90
8, 44909, Note_on_c, 6, 53, 0
8, 44910, Note_on_c, 6, 55, 90
8, 44939, Note_on_c, 6, 55, 0
8, 44940, Note_on_c, 6, 57, 90
8, 44969, Note_on_c, 6, 57, 0
8, 44970, Note_on_c, 6, 50, 90
8, 44999, Note_on_c, 6, 50, 0
8, 45000, Note_on_c, 6, 52, 90
8, 45059, Note_on_c, 6, 52, 0
8, 45060, Note_on_c, 6, 64, 90
8, 45119, Note_on_c, 6, 64, 0
8, 45120, Note_on_c, 6, 64, 90
8, 45179, Note_on_c, 6, 64, 0
8, 45180, Note_on_c, 6, 54, 90
8, 45239, Note_on_c, 6, 54, 0
8, 45240, Note_on_c, 6, 64, 90
8, 45299, Note_on_c, 6, 64, 0
8, 45300, Note_on_c, 6, 64, 90
8, 45359, Note_on_c, 6, 64, 0
8, 45360, Note_on_c, 6, 56, 90
8, 45389, Note_on_c, 6, 56, 0
8, 45390, Note_on_c, 6, 59, 90
8, 45419, Note_on_c, 6, 59, 0
8, 45420, Note_on_c, 6, 60, 90
8, 45449, Note_on_c, 6, 60, 0
8, 45450, Note_on_c, 6, 62, 90
8, 45479, Note_on_c, 6, 62, 0
8, 45480, Note_on_c, 6, 64, 90
8, 45509, Note_on_c, 6, 64, 0
8, 45510, Note_on_c, 6, 56, 90
8, 45539, Note_on_c, 6, 56, 0
8, 45540, Note_on_c, 6, 57, 90
8, 45569, Note_on_c, 6, 57, 0
8, 45570, Note_on_c, 6, 59, 90
8, 45599, Note_on_c, 6, 59, 0
8, 45600, Note_on_c, 6, 60, 90
8, 45629, Note_on_c, 6, 60, 0
8, 45630, Note_on_c, 6, 62, 90
8, 45659, Note_on_c, 6, 62, 0
8, 45660, Note_on_c, 6, 64, 90
8, 45689, Note_on_c, 6, 64, 0
8, 45690, Note_on_c, 6, 57, 90
8, 45719, Note_on_c, 6, 57, 0
8, 45720, Note_on_c, 6, 59, 90
8, 45749, Note_on_c, 6, 59, 0
8, 45750, Note_on_c, 6, 64, 90
8, 45779, Note_on_c, 6, 64, 0
8, 45780, Note_on_c, 6, 62, 90
8, 45809, Note_on_c, 6, 62, 0
8, 45810, Note_on_c, 6, 60, 90
8, 45839, Note_on_c, 6, 60, 0
8, 45840, Note_on_c, 6, 62, 90
8, 45869, Note_on_c, 6, 62, 0
8, 45870, Note_on_c, 6, 59, 90
8, 45899, Note_on_c, 6, 59, 0
8, 45900, Note_on_c, 6, 56, 90
8, 45929, Note_on_c, 6, 56, 0
8, 45930, Note_on_c, 6, 62, 90
8, 45959, Note_on_c, 6, 62, 0
8, 45960, Note_on_c, 6, 60, 90
8, 45989, Note_on_c, 6, 60, 0
8, 45990, Note_on_c, 6, 59, 90
8, 46019, Note_on_c, 6, 59, 0
8, 46020, Note_on_c, 6, 60, 90
8, 46049, Note_on_c, 6, 60, 0
8, 46050, Note_on_c, 6, 57, 90
8, 46079, Note_on_c, 6, 57, 0
8, 46080, Note_on_c, 6, 52, 90
8, 46109, Note_on_c, 6, 52, 0
8, 46110, Note_on_c, 6, 60, 90
8, 46139, Note_on_c, 6, 60, 0
8, 46140, Note_on_c, 6, 59, 90
8, 46169, Note_on_c, 6, 59, 0
8, 46170, Note_on_c, 6, 57, 90
8, 46199, Note_on_c, 6, 57, 0
8, 46200, Note_on_c, 6, 59, 90
8, 46229, Note_on_c, 6, 59, 0
8, 46230, Note_on_c, 6, 56, 90
8, 46259, Note_on_c, 6, 56, 0
8, 46260, Note_on_c, 6, 52, 90
8, 46289, Note_on_c, 6, 52, 0
8, 46290, Note_on_c, 6, 59, 90
8, 46319, Note_on_c, 6, 59, 0
8, 46320, Note_on_c, 6, 57, 90
8, 46349, Note_on_c, 6, 57, 0
8, 46350, Note_on_c, 6, 56, 90
8, 46379, Note_on_c, 6, 56, 0
8, 46380, Note_on_c, 6, 57, 90
8, 46409, Note_on_c, 6, 57, 0
8, 46410, Note_on_c, 6, 54, 90
8, 46439, Note_on_c, 6, 54, 0
8, 46440, Note_on_c, 6, 52, 90
8, 46469, Note_on_c, 6, 52, 0
8, 46470, Note_on_c, 6, 57, 90
8, 46499, Note_on_c, 6, 57, 0
8, 46500, Note_on_c, 6, 56, 90
8, 46529, Note_on_c, 6, 56, 0
8, 46530, Note_on_c, 6, 54, 90
8, 46559, Note_on_c, 6, 54, 0
8, 46560, Note_on_c, 6, 56, 90
8, 46589, Note_on_c, 6, 56, 0
8, 46590, Note_on_c, 6, 52, 90
8, 46619, Note_on_c, 6, 52, 0
8, 46620, Note_on_c, 6, 57, 90
8, 46679, Note_on_c, 6, 57, 0
8, 46680, Note_on_c, 6, 55, 90
8, 46709, Note_on_c, 6, 55, 0
8, 46710, Note_on_c, 6, 53, 90
8, 46739, Note_on_c, 6, 53, 0
8, 46740, Note_on_c, 6, 52, 90
8, 46769, Note_on_c, 6, 52, 0
8, 46770, Note_on_c, 6, 50, 90
8, 46799, Note_on_c, 6, 50, 0
8, 46800, Note_on_c, 6, 48, 90
8, 46859, Note_on_c, 6, 48, 0
8, 46860, Note_on_c, 6, 50, 90
8, 46889, Note_on_c, 6, 50, 0
8, 46890, Note_on_c, 6, 48, 90
8, 46919, Note_on_c, 6, 48, 0
8, 46920, Note_on_c, 6, 47, 90
8, 46949, Note_on_c, 6, 47, 0
8, 46950, Note_on_c, 6, 45, 90
8, 46979, Note_on_c, 6, 45, 0
8, 46980, Note_on_c, 6, 52, 90
8, 47039, Note_on_c, 6, 52, 0
8, 47040, Note_on_c, 6, 50, 90
8, 47099, Note_on_c, 6, 50, 0
8, 47100, Note_on_c, 6, 52, 90
8, 47159, Note_on_c, 6, 52, 0
8, 47160, Note_on_c, 6, 45, 90
8, 47219, Note_on_c, 6, 45, 0
8, 47220, Note_on_c, 6, 52, 90
8, 47279, Note_on_c, 6, 52, 0
8, 47280, Note_on_c, 6, 52, 90
8, 47339, Note_on_c, 6, 52, 0
8, 47340, Note_on_c, 6, 43, 90
8, 47399, Note_on_c, 6, 43, 0
8, 47400, Note_on_c, 6, 52, 90
8, 47459, Note_on_c, 6, 52, 0
8, 47460, Note_on_c, 6, 52, 90
8, 47519, Note_on_c, 6, 52, 0
8, 47520, Note_on_c, 6, 42, 90
8, 47549, Note_on_c, 6, 42, 0
8, 47550, Note_on_c, 6, 45, 90
8, 47579, Note_on_c, 6, 45, 0
8, 47580, Note_on_c, 6, 47, 90
8, 47609, Note_on_c, 6, 47, 0
8, 47610, Note_on_c, 6, 48, 90
8, 47639, Note_on_c, 6, 48, 0
8, 47640, Note_on_c, 6, 50, 90
8, 47669, Note_on_c, 6, 50, 0
8, 47670, Note_on_c, 6, 40, 90
8, 47699, Note_on_c, 6, 40, 0
8, 47700, Note_on_c, 6, 38, 90
8, 47729, Note_on_c, 6, 38, 0
8, 47730, Note_on_c, 6, 45, 90
8, 47759, Note_on_c, 6, 45, 0
8, 47760, Note_on_c, 6, 47, 90
8, 47789, Note_on_c, 6, 47, 0
8, 47790, Note_on_c, 6, 48, 90
8, 47819, Note_on_c, 6, 48, 0
8, 47820, Note_on_c, 6, 50, 90
8, 47849, Note_on_c, 6, 50, 0
8, 47850, Note_on_c, 6, 42, 90
8, 47879, Note_on_c, 6, 42, 0
8, 47880, Note_on_c, 6, 43, 90
8, 47939, Note_on_c, 6, 43, 0
8, 47940, Note_on_c, 6, 50, 90
8, 47969, Note_on_c, 6, 50, 0
8, 47970, Note_on_c, 6, 48, 90
8, 47999, Note_on_c, 6, 48, 0
8, 48000, Note_on_c, 6, 47, 90
8, 48029, Note_on_c, 6, 47, 0
8, 48030, Note_on_c, 6, 45, 90
8, 48059, Note_on_c, 6, 45, 0
8, 48060, Note_on_c, 6, 43, 90
8, 48119, Note_on_c, 6, 43, 0
8, 48120, Note_on_c, 6, 47, 90
8, 48149, Note_on_c, 6, 47, 0
8, 48150, Note_on_c, 6, 45, 90
8, 48179, Note_on_c, 6, 45, 0
8, 48180, Note_on_c, 6, 43, 90
8, 48209, Note_on_c, 6, 43, 0
8, 48210, Note_on_c, 6, 42, 90
8, 48239, Note_on_c, 6, 42, 0
8, 48240, Note_on_c, 6, 40, 90
8, 48299, Note_on_c, 6, 40, 0
8, 48300, Note_on_c, 6, 52, 90
8, 48359, Note_on_c, 6, 52, 0
8, 48360, Note_on_c, 6, 52, 90
8, 48419, Note_on_c, 6, 52, 0
8, 48420, Note_on_c, 6, 42, 90
8, 48479, Note_on_c, 6, 42, 0
8, 48480, Note_on_c, 6, 52, 90
8, 48539, Note_on_c, 6, 52, 0
8, 48540, Note_on_c, 6, 52, 90
8, 48599, Note_on_c, 6, 52, 0
8, 48600, Note_on_c, 6, 43, 90
8, 48629, Note_on_c, 6, 43, 0
8, 48630, Note_on_c, 6, 47, 90
8, 48659, Note_on_c, 6, 47, 0
8, 48660, Note_on_c, 6, 49, 90
8, 48689, Note_on_c, 6, 49, 0
8, 48690, Note_on_c, 6, 51, 90
8, 48719, Note_on_c, 6, 51, 0
8, 48720, Note_on_c, 6, 52, 90
8, 48749, Note_on_c, 6, 52, 0
8, 48750, Note_on_c, 6, 43, 90
8, 48779, Note_on_c, 6, 43, 0
8, 48780, Note_on_c, 6, 45, 90
8, 48809, Note_on_c, 6, 45, 0
8, 48810, Note_on_c, 6, 47, 90
8, 48839, Note_on_c, 6, 47, 0
8, 48840, Note_on_c, 6, 48, 90
8, 48869, Note_on_c, 6, 48, 0
8, 48870, Note_on_c, 6, 50, 90
8, 48899, Note_on_c, 6, 50, 0
8, 48900, Note_on_c, 6, 52, 90
8, 48929, Note_on_c, 6, 52, 0
8, 48930, Note_on_c, 6, 45, 90
8, 48959, Note_on_c, 6, 45, 0
8, 48960, Note_on_c, 6, 47, 90
8, 49019, Note_on_c, 6, 47, 0
8, 49020, Note_on_c, 6, 59, 90
8, 49079, Note_on_c, 6, 59, 0
8, 49080, Note_on_c, 6, 59, 90
8, 49139, Note_on_c, 6, 59, 0
8, 49140, Note_on_c, 6, 49, 90
8, 49199, Note_on_c, 6, 49, 0
8, 49200, Note_on_c, 6, 59, 90
8, 49259, Note_on_c, 6, 59, 0
8, 49260, Note_on_c, 6, 59, 90
8, 49319, Note_on_c, 6, 59, 0
8, 49320, Note_on_c, 6, 51, 90
8, 49349, Note_on_c, 6, 51, 0
8, 49350, Note_on_c, 6, 54, 90
8, 49379, Note_on_c, 6, 54, 0
8, 49380, Note_on_c, 6, 55, 90
8, 49409, Note_on_c, 6, 55, 0
8, 49410, Note_on_c, 6, 57, 90
8, 49439, Note_on_c, 6, 57, 0
8, 49440, Note_on_c, 6, 59, 90
8, 49469, Note_on_c, 6, 59, 0
8, 49470, Note_on_c, 6, 51, 90
8, 49499, Note_on_c, 6, 51, 0
8, 49500, Note_on_c, 6, 52, 90
8, 49529, Note_on_c, 6, 52, 0
8, 49530, Note_on_c, 6, 54, 90
8, 49559, Note_on_c, 6, 54, 0
8, 49560, Note_on_c, 6, 55, 90
8, 49589, Note_on_c, 6, 55, 0
8, 49590, Note_on_c, 6, 57, 90
8, 49619, Note_on_c, 6, 57, 0
8, 49620, Note_on_c, 6, 59, 90
8, 49649, Note_on_c, 6, 59, 0
8, 49650, Note_on_c, 6, 52, 90
8, 49679, Note_on_c, 6, 52, 0
8, 49680, Note_on_c, 6, 54, 90
8, 49709, Note_on_c, 6, 54, 0
8, 49710, Note_on_c, 6, 59, 90
8, 49739, Note_on_c, 6, 59, 0
8, 49740, Note_on_c, 6, 57, 90
8, 49769, Note_on_c, 6, 57, 0
8, 49770, Note_on_c, 6, 55, 90
8, 49799, Note_on_c, 6, 55, 0
8, 49800, Note_on_c, 6, 57, 90
8, 49829, Note_on_c, 6, 57, 0
8, 49830, Note_on_c, 6, 54, 90
8, 49859, Note_on_c, 6, 54, 0
8, 49860, Note_on_c, 6, 51, 90
8, 49889, Note_on_c, 6, 51, 0
8, 49890, Note_on_c, 6, 57, 90
8, 49919, Note_on_c, 6, 57, 0
8, 49920, Note_on_c, 6, 55, 90
8, 49949, Note_on_c, 6, 55, 0
8, 49950, Note_on_c, 6, 54, 90
8, 49979, Note_on_c, 6, 54, 0
8, 49980, Note_on_c, 6, 55, 90
8, 50009, Note_on_c, 6, 55, 0
8, 50010, Note_on_c, 6, 52, 90
8, 50039, Note_on_c, 6, 52, 0
8, 50040, Note_on_c, 6, 47, 90
8, 50069, Note_on_c, 6, 47, 0
8, 50070, Note_on_c, 6, 55, 90
8, 50099, Note_on_c, 6, 55, 0
8, 50100, Note_on_c, 6, 54, 90
8, 50129, Note_on_c, 6, 54, 0
8, 50130, Note_on_c, 6, 52, 90
8, 50159, Note_on_c, 6, 52, 0
8, 50160, Note_on_c, 6, 54, 90
8, 50189, Note_on_c, 6, 54, 0
8, 50190, Note_on_c, 6, 51, 90
8, 50219, Note_on_c, 6, 51, 0
8, 50220, Note_on_c, 6, 47, 90
8, 50249, Note_on_c, 6, 47, 0
8, 50250, Note_on_c, 6, 54, 90
8, 50279, Note_on_c, 6, 54, 0
8, 50280, Note_on_c, 6, 52, 90
8, 50309, Note_on_c, 6, 52, 0
8, 50310, Note_on_c, 6, 51, 90
8, 50339, Note_on_c, 6, 51, 0
8, 50340, Note_on_c, 6, 52, 90
8, 50369, Note_on_c, 6, 52, 0
8, 50370, Note_on_c, 6, 49, 90
8, 50399, Note_on_c, 6, 49, 0
8, 50400, Note_on_c, 6, 47, 90
8, 50429, Note_on_c, 6, 47, 0
8, 50430, Note_on_c, 6, 52, 90
8, 50459, Note_on_c, 6, 52, 0
8, 50460, Note_on_c, 6, 51, 90
8, 50489, Note_on_c, 6, 51, 0
8, 50490, Note_on_c, 6, 49, 90
8, 50519, Note_on_c, 6, 49, 0
8, 50520, Note_on_c, 6, 51, 90
8, 50549, Note_on_c, 6, 51, 0
8, 50550, Note_on_c, 6, 47, 90
8, 50579, Note_on_c, 6, 47, 0
8, 50580, Note_on_c, 6, 52, 90
8, 50639, Note_on_c, 6, 52, 0
8, 50640, Note_on_c, 6, 50, 90
8, 50669, Note_on_c, 6, 50, 0
8, 50670, Note_on_c, 6, 48, 90
8, 50699, Note_on_c, 6, 48, 0
8, 50700, Note_on_c, 6, 47, 90
8, 50729, Note_on_c, 6, 47, 0
8, 50730, Note_on_c, 6, 45, 90
8, 50759, Note_on_c, 6, 45, 0
8, 50760, Note_on_c, 6, 43, 90
8, 50819, Note_on_c, 6, 43, 0
8, 50820, Note_on_c, 6, 45, 90
8, 50849, Note_on_c, 6, 45, 0
8, 50850, Note_on_c, 6, 43, 90
8, 50879, Note_on_c, 6, 43, 0
8, 50880, Note_on_c, 6, 42, 90
8, 50909, Note_on_c, 6, 42, 0
8, 50910, Note_on_c, 6, 40, 90
8, 50939, Note_on_c, 6, 40, 0
8, 50940, Note_on_c, 6, 47, 90
8, 50999, Note_on_c, 6, 47, 0
8, 51000, Note_on_c, 6, 45, 90
8, 51059, Note_on_c, 6, 45, 0
8, 51060, Note_on_c, 6, 47, 90
8, 51119, Note_on_c, 6, 47, 0
8, 51120, Note_on_c, 6, 40, 90
8, 51299, Note_on_c, 6, 40, 0
8, 51480, Note_on_c, 6, 48, 100
8, 51540, Note_on_c, 6, 48, 0
8, 51540, Note_on_c, 6, 60, 100
8, 51600, Note_on_c, 6, 60, 0
8, 51600, Note_on_c, 6, 60, 100
8, 51660, Note_on_c, 6, 60, 0
8, 51660, Note_on_c, 6, 50, 100
8, 51720, Note_on_c, 6, 50, 0
8, 51720, Note_on_c, 6, 60, 100
8, 51780, Note_on_c, 6, 60, 0
8, 51780, Note_on_c, 6, 60, 100
8, 51840, Note_on_c, 6, 60, 0
8, 51840, Note_on_c, 6, 52, 100
8, 51870, Note_on_c, 6, 52, 0
8, 51870, Note_on_c, 6, 55, 100
8, 51900, Note_on_c, 6, 55, 0
8, 51900, Note_on_c, 6, 57, 100
8, 51930, Note_on_c, 6, 57, 0
8, 51930, Note_on_c, 6, 59, 100
8, 51960, Note_on_c, 6, 59, 0
8, 51960, Note_on_c, 6, 60, 100
8, 51990, Note_on_c, 6, 60, 0
8, 51990, Note_on_c, 6, 52, 100
8, 52020, Note_on_c, 6, 52, 0
8, 52020, Note_on_c, 6, 54, 100
8, 52050, Note_on_c, 6, 54, 0
8, 52050, Note_on_c, 6, 55, 100
8, 52080, Note_on_c, 6, 55, 0
8, 52080, Note_on_c, 6, 57, 100
8, 52110, Note_on_c, 6, 57, 0
8, 52110, Note_on_c, 6, 59, 100
8, 52140, Note_on_c, 6, 59, 0
8, 52140, Note_on_c, 6, 60, 100
8, 52170, Note_on_c, 6, 60, 0
8, 52170, Note_on_c, 6, 54, 100
8, 52200, Note_on_c, 6, 54, 0
8, 52200, Note_on_c, 6, 55, 100
8, 52260, Note_on_c, 6, 55, 0
8, 52260, Note_on_c, 6, 67, 100
8, 52320, Note_on_c, 6, 67, 0
8, 52320, Note_on_c, 6, 67, 100
8, 52380, Note_on_c, 6, 67, 0
8, 52380, Note_on_c, 6, 57, 100
8, 52440, Note_on_c, 6, 57, 0
8, 52440, Note_on_c, 6, 67, 100
8, 52500, Note_on_c, 6, 67, 0
8, 52500, Note_on_c, 6, 67, 100
8, 52560, Note_on_c, 6, 67, 0
8, 52560, Note_on_c, 6, 59, 100
8, 52590, Note_on_c, 6, 59, 0
8, 52590, Note_on_c, 6, 62, 100
8, 52620, Note_on_c, 6, 62, 0
8, 52620, Note_on_c, 6, 64, 100
8, 52650, Note_on_c, 6, 64, 0
8, 52650, Note_on_c, 6, 65, 100
8, 52680, Note_on_c, 6, 65, 0
8, 52680, Note_on_c, 6, 67, 100
8, 52710, Note_on_c, 6, 67, 0
8, 52710, Note_on_c, 6, 59, 100
8, 52740, Note_on_c, 6, 59, 0
8, 52740, Note_on_c, 6, 61, 100
8, 52770, Note_on_c, 6, 61, 0
8, 52770, Note_on_c, 6, 62, 100
8, 52800, Note_on_c, 6, 62, 0
8, 52800, Note_on_c, 6, 64, 100
8, 52830, Note_on_c, 6, 64, 0
8, 52830, Note_on_c, 6, 65, 100
8, 52860, Note_on_c, 6, 65, 0
8, 52860, Note_on_c, 6, 67, 100
8, 52890, Note_on_c, 6, 67, 0
8, 52890, Note_on_c, 6, 61, 100
8, 52920, Note_on_c, 6, 61, 0
8, 52920, Note_on_c, 6, 62, 100
8, 52950, Note_on_c, 6, 62, 0
8, 52950, Note_on_c, 6, 67, 100
8, 52980, Note_on_c, 6, 67, 0
8, 52980, Note_on_c, 6, 65, 100
8, 53010, Note_on_c, 6, 65, 0
8, 53010, Note_on_c, 6, 64, 100
8, 53040, Note_on_c, 6, 64, 0
8, 53040, Note_on_c, 6, 65, 100
8, 53070, Note_on_c, 6, 65, 0
8, 53070, Note_on_c, 6, 62, 100
8, 53100, Note_on_c, 6, 62, 0
8, 53100, Note_on_c, 6, 59, 100
8, 53130, Note_on_c, 6, 59, 0
8, 53130, Note_on_c, 6, 65, 100
8, 53160, Note_on_c, 6, 65, 0
8, 53160, Note_on_c, 6, 64, 100
8, 53190, Note_on_c, 6, 64, 0
8, 53190, Note_on_c, 6, 62, 100
8, 53220, Note_on_c, 6, 62, 0
8, 53220, Note_on_c, 6, 64, 100
8, 53250, Note_on_c, 6, 64, 0
8, 53250, Note_on_c, 6, 60, 100
8, 53280, Note_on_c, 6, 60, 0
8, 53280, Note_on_c, 6, 55, 100
8, 53310, Note_on_c, 6, 55, 0
8, 53310, Note_on_c, 6, 64, 100
8, 53340, Note_on_c, 6, 64, 0
8, 53340, Note_on_c, 6, 62, 100
8, 53370, Note_on_c, 6, 62, 0
8, 53370, Note_on_c, 6, 60, 100
8, 53400, Note_on_c, 6, 60, 0
8, 53400, Note_on_c, 6, 62, 100
8, 53430, Note_on_c, 6, 62, 0
8, 53430, Note_on_c, 6, 59, 100
8, 53460, Note_on_c, 6, 59, 0
8, 53460, Note_on_c, 6, 55, 100
8, 53490, Note_on_c, 6, 55, 0
8, 53490, Note_on_c, 6, 62, 100
8, 53520, Note_on_c, 6, 62, 0
8, 53520, Note_on_c, 6, 60, 100
8, 53550, Note_on_c, 6, 60, 0
8, 53550, Note_on_c, 6, 59, 100
8, 53580, Note_on_c, 6, 59, 0
8, 53580, Note_on_c, 6, 60, 100
8, 53610, Note_on_c, 6, 60, 0
8, 53610, Note_on_c, 6, 57, 100
8, 53640, Note_on_c, 6, 57, 0
8, 53640, Note_on_c, 6, 55, 100
8, 53670, Note_on_c, 6, 55, 0
8, 53670, Note_on_c, 6, 60, 100
8, 53700, Note_on_c, 6, 60, 0
8, 53700, Note_on_c, 6, 59, 100
8, 53730, Note_on_c, 6, 59, 0
8, 53730, Note_on_c, 6, 57, 100
8, 53760, Note_on_c, 6, 57, 0
8, 53760, Note_on_c, 6, 59, 100
8, 53790, Note_on_c, 6, 59, 0
8, 53790, Note_on_c, 6, 55, 100
8, 53820, Note_on_c, 6, 55, 0
8, 53820, Note_on_c, 6, 60, 100
8, 53880, Note_on_c, 6, 60, 0
8, 53880, Note_on_c, 6, 59, 100
8, 53910, Note_on_c, 6, 59, 0
8, 53910, Note_on_c, 6, 57, 100
8, 53940, Note_on_c, 6, 57, 0
8, 53940, Note_on_c, 6, 55, 100
8, 53970, Note_on_c, 6, 55, 0
8, 53970, Note_on_c, 6, 53, 100
8, 54000, Note_on_c, 6, 53, 0
8, 54000, Note_on_c, 6, 52, 100
8, 54060, Note_on_c, 6, 52, 0
8, 54060, Note_on_c, 6, 53, 100
8, 54090, Note_on_c, 6, 53, 0
8, 54090, Note_on_c, 6, 52, 100
8, 54120, Note_on_c, 6, 52, 0
8, 54120, Note_on_c, 6, 50, 100
8, 54150, Note_on_c, 6, 50, 0
8, 54150, Note_on_c, 6, 48, 100
8, 54180, Note_on_c, 6, 48, 0
8, 54180, Note_on_c, 6, 55, 100
8, 54240, Note_on_c, 6, 55, 0
8, 54240, Note_on_c, 6, 53, 100
8, 54300, Note_on_c, 6, 53, 0
8, 54300, Note_on_c, 6, 55, 100
8, 54360, Note_on_c, 6, 55, 0
8, 54360, Note_on_c, 6, 48, 100
8, 54540, Note_on_c, 6, 48, 0
8, 54720, Note_on_c, 6, 48, 100
8, 54780, Note_on_c, 6, 48, 0
8, 54780, Note_on_c, 6, 60, 100
8, 54840, Note_on_c, 6, 60, 0
8, 54840, Note_on_c, 6, 60, 100
8, 54900, Note_on_c, 6, 60, 0
8, 54900, Note_on_c, 6, 50, 100
8, 54960, Note_on_c, 6, 50, 0
8, 54960, Note_on_c, 6, 60, 100
8, 55020, Note_on_c, 6, 60, 0
8, 55020, Note_on_c, 6, 60, 100
8, 55080, Note_on_c, 6, 60, 0
8, 55080, Note_on_c, 6, 52, 100
8, 55110, Note_on_c, 6, 52, 0
8, 55110, Note_on_c, 6, 55, 100
8, 55140, Note_on_c, 6, 55, 0
8, 55140, Note_on_c, 6, 57, 100
8, 55170, Note_on_c, 6, 57, 0
8, 55170, Note_on_c, 6, 59, 100
8, 55200, Note_on_c, 6, 59, 0
8, 55200, Note_on_c, 6, 60, 100
8, 55230, Note_on_c, 6, 60, 0
8, 55230, Note_on_c, 6, 52, 100
8, 55260, Note_on_c, 6, 52, 0
8, 55260, Note_on_c, 6, 54, 100
8, 55290, Note_on_c, 6, 54, 0
8, 55290, Note_on_c, 6, 55, 100
8, 55320, Note_on_c, 6, 55, 0
8, 55320, Note_on_c, 6, 57, 100
8, 55350, Note_on_c, 6, 57, 0
8, 55350, Note_on_c, 6, 59, 100
8, 55380, Note_on_c, 6, 59, 0
8, 55380, Note_on_c, 6, 60, 100
8, 55410, Note_on_c, 6, 60, 0
8, 55410, Note_on_c, 6, 54, 100
8, 55440, Note_on_c, 6, 54, 0
8, 55440, Note_on_c, 6, 55, 100
8, 55500, Note_on_c, 6, 55, 0
8, 55500, Note_on_c, 6, 67, 100
8, 55560, Note_on_c, 6, 67, 0
8, 55560, Note_on_c, 6, 67, 100
8, 55620, Note_on_c, 6, 67, 0
8, 55620, Note_on_c, 6, 57, 100
8, 55680, Note_on_c, 6, 57, 0
8, 55680, Note_on_c, 6, 67, 100
8, 55740, Note_on_c, 6, 67, 0
8, 55740, Note_on_c, 6, 67, 100
8, 55800, Note_on_c, 6, 67, 0
8, 55800, Note_on_c, 6, 59, 100
8, 55830, Note_on_c, 6, 59, 0
8, 55830, Note_on_c, 6, 62, 100
8, 55860, Note_on_c, 6, 62, 0
8, 55860, Note_on_c, 6, 64, 100
8, 55890, Note_on_c, 6, 64, 0
8, 55890, Note_on_c, 6, 65, 100
8, 55920, Note_on_c, 6, 65, 0
8, 55920, Note_on_c, 6, 67, 100
8, 55950, Note_on_c, 6, 67, 0
8, 55950, Note_on_c, 6, 59, 100
8, 55980, Note_on_c, 6, 59, 0
8, 55980, Note_on_c, 6, 61, 100
8, 56010, Note_on_c, 6, 61, 0
8, 56010, Note_on_c, 6, 62, 100
8, 56040, Note_on_c, 6, 62, 0
8, 56040, Note_on_c, 6, 64, 100
8, 56070, Note_on_c, 6, 64, 0
8, 56070, Note_on_c, 6, 65, 100
8, 56100, Note_on_c, 6, 65, 0
8, 56100, Note_on_c, 6, 67, 100
8, 56130, Note_on_c, 6, 67, 0
8, 56130, Note_on_c, 6, 61, 100
8, 56160, Note_on_c, 6, 61, 0
8, 56160, Note_on_c, 6, 62, 100
8, 56190, Note_on_c, 6, 62, 0
8, 56190, Note_on_c, 6, 67, 100
8, 56220, Note_on_c, 6, 67, 0
8, 56220, Note_on_c, 6, 65, 100
8, 56250, Note_on_c, 6, 65, 0
8, 56250, Note_on_c, 6, 64, 100
8, 56280, Note_on_c, 6, 64, 0
8, 56280, Note_on_c, 6, 65, 100
8, 56310, Note_on_c, 6, 65, 0
8, 56310, Note_on_c, 6, 62, 100
8, 56340, Note_on_c, 6, 62, 0
8, 56340, Note_on_c, 6, 59, 100
8, 56370, Note_on_c, 6, 59, 0
8, 56370, Note_on_c, 6, 65, 100
8, 56400, Note_on_c, 6, 65, 0
8, 56400, Note_on_c, 6, 64, 100
8, 56430, Note_on_c, 6, 64, 0
8, 56430, Note_on_c, 6, 62, 100
8, 56460, Note_on_c, 6, 62, 0
8, 56460, Note_on_c, 6, 64, 100
8, 56490, Note_on_c, 6, 64, 0
8, 56490, Note_on_c, 6, 60, 100
8, 56520, Note_on_c, 6, 60, 0
8, 56520, Note_on_c, 6, 55, 100
8, 56550, Note_on_c, 6, 55, 0
8, 56550, Note_on_c, 6, 64, 100
8, 56580, Note_on_c, 6, 64, 0
8, 56580, Note_on_c, 6, 62, 100
8, 56610, Note_on_c, 6, 62, 0
8, 56610, Note_on_c, 6, 60, 100
8, 56640, Note_on_c, 6, 60, 0
8, 56640, Note_on_c, 6, 62, 100
8, 56670, Note_on_c, 6, 62, 0
8, 56670, Note_on_c, 6, 59, 100
8, 56700, Note_on_c, 6, 59, 0
8, 56700, Note_on_c, 6, 55, 100
8, 56730, Note_on_c, 6, 55, 0
8, 56730, Note_on_c, 6, 62, 100
8, 56760, Note_on_c, 6, 62, 0
8, 56760, Note_on_c, 6, 60, 100
8, 56790, Note_on_c, 6, 60, 0
8, 56790, Note_on_c, 6, 59, 100
8, 56820, Note_on_c, 6, 59, 0
8, 56820, Note_on_c, 6, 60, 100
8, 56850, Note_on_c, 6, 60, 0
8, 56850, Note_on_c, 6, 57, 100
8, 56880, Note_on_c, 6, 57, 0
8, 56880, Note_on_c, 6, 55, 100
8, 56910, Note_on_c, 6, 55, 0
8, 56910, Note_on_c, 6, 60, 100
8, 56940, Note_on_c, 6, 60, 0
8, 56940, Note_on_c, 6, 59, 100
8, 56970, Note_on_c, 6, 59, 0
8, 56970, Note_on_c, 6, 57, 100
8, 57000, Note_on_c, 6, 57, 0
8, 57000, Note_on_c, 6, 59, 100
8, 57030, Note_on_c, 6, 59, 0
8, 57030, Note_on_c, 6, 55, 100
8, 57060, Note_on_c, 6, 55, 0
8, 57060, Note_on_c, 6, 60, 100
8, 57120, Note_on_c, 6, 60, 0
8, 57120, Note_on_c, 6, 59, 100
8, 57150, Note_on_c, 6, 59, 0
8, 57150, Note_on_c, 6, 57, 100
8, 57180, Note_on_c, 6, 57, 0
8, 57180, Note_on_c, 6, 55, 100
8, 57210, Note_on_c, 6, 55, 0
8, 57210, Note_on_c, 6, 53, 100
8, 57240, Note_on_c, 6, 53, 0
8, 57240, Note_on_c, 6, 52, 100
8, 57300, Note_on_c, 6, 52, 0
8, 57300, Note_on_c, 6, 53, 100
8, 57330, Note_on_c, 6, 53, 0
8, 57330, Note_on_c, 6, 52, 100
8, 57360, Note_on_c, 6, 52, 0
8, 57360, Note_on_c, 6, 50, 100
8, 57390, Note_on_c, 6, 50, 0
8, 57390, Note_on_c, 6, 48, 100
8, 57420, Note_on_c, 6, 48, 0
8, 57420, Note_on_c, 6, 55, 100
8, 57480, Note_on_c, 6, 55, 0
8, 57480, Note_on_c, 6, 53, 100
8, 57540, Note_on_c, 6, 53, 0
8, 57540, Note_on_c, 6, 55, 100
8, 57600, Note_on_c, 6, 55, 0
8, 57600, Note_on_c, 6, 48, 100
8, 57660, Note_on_c, 6, 48, 0
8, 57660, Note_on_c, 6, 60, 100
8, 57720, Note_on_c, 6, 60, 0
8, 57720, Note_on_c, 6, 60, 100
8, 57780, Note_on_c, 6, 60, 0
8, 57780, Note_on_c, 6, 50, 100
8, 57840, Note_on_c, 6, 50, 0
8, 57840, Note_on_c, 6, 60, 100
8, 57900, Note_on_c, 6, 60, 0
8, 57900, Note_on_c, 6, 60, 100
8, 57960, Note_on_c, 6, 60, 0
8, 57960, Note_on_c, 6, 52, 100
8, 57990, Note_on_c, 6, 52, 0
8, 57990, Note_on_c, 6, 55, 100
8, 58020, Note_on_c, 6, 55, 0
8, 58020, Note_on_c, 6, 57, 100
8, 58050, Note_on_c, 6, 57, 0
8, 58050, Note_on_c, 6, 59, 100
8, 58080, Note_on_c, 6, 59, 0
8, 58080, Note_on_c, 6, 60, 100
8, 58110, Note_on_c, 6, 60, 0
8, 58110, Note_on_c, 6, 52, 100
8, 58140, Note_on_c, 6, 52, 0
8, 58140, Note_on_c, 6, 54, 100
8, 58170, Note_on_c, 6, 54, 0
8, 58170, Note_on_c, 6, 55, 100
8, 58200, Note_on_c, 6, 55, 0
8, 58200, Note_on_c, 6, 57, 100
8, 58230, Note_on_c, 6, 57, 0
8, 58230, Note_on_c, 6, 59, 100
8, 58260, Note_on_c, 6, 59, 0
8, 58260, Note_on_c, 6, 60, 100
8, 58290, Note_on_c, 6, 60, 0
8, 58290, Note_on_c, 6, 54, 100
8, 58320, Note_on_c, 6, 54, 0
8, 58320, Note_on_c, 6, 55, 100
8, 58380, Note_on_c, 6, 55, 0
8, 58500, Note_on_c, 6, 57, 100
8, 58560, Note_on_c, 6, 57, 0
8, 58680, Note_on_c, 6, 59, 100
8, 58740, Note_on_c, 6, 59, 0
8, 58860, Note_on_c, 6, 60, 100
8, 58920, Note_on_c, 6, 60, 0
8, 59040, Note_on_c, 6, 50, 100
8, 59100, Note_on_c, 6, 50, 0
8, 59100, Note_on_c, 6, 62, 100
8, 59160, Note_on_c, 6, 62, 0
8, 59160, Note_on_c, 6, 62, 100
8, 59220, Note_on_c, 6, 62, 0
8, 59220, Note_on_c, 6, 52, 100
8, 59280, Note_on_c, 6, 52, 0
8, 59280, Note_on_c, 6, 62, 100
8, 59340, Note_on_c, 6, 62, 0
8, 59340, Note_on_c, 6, 62, 100
8, 59400, Note_on_c, 6, 62, 0
8, 59400, Note_on_c, 6, 54, 90
8, 59429, Note_on_c, 6, 54, 0
8, 59430, Note_on_c, 6, 57, 90
8, 59459, Note_on_c, 6, 57, 0
8, 59460, Note_on_c, 6, 59, 90
8, 59489, Note_on_c, 6, 59, 0
8, 59490, Note_on_c, 6, 60, 90
8, 59519, Note_on_c, 6, 60, 0
8, 59520, Note_on_c, 6, 62, 90
8, 59549, Note_on_c, 6, 62, 0
8, 59550, Note_on_c, 6, 54, 90
8, 59579, Note_on_c, 6, 54, 0
8, 59580, Note_on_c, 6, 56, 90
8, 59609, Note_on_c, 6, 56, 0
8, 59610, Note_on_c, 6, 57, 90
8, 59639, Note_on_c, 6, 57, 0
8, 59640, Note_on_c, 6, 59, 90
8, 59669, Note_on_c, 6, 59, 0
8, 59670, Note_on_c, 6, 60, 90
8, 59699, Note_on_c, 6, 60, 0
8, 59700, Note_on_c, 6, 62, 90
8, 59729, Note_on_c, 6, 62, 0
8, 59730, Note_on_c, 6, 56, 90
8, 59759, Note_on_c, 6, 56, 0
8, 59760, Note_on_c, 6, 57, 90
8, 59789, Note_on_c, 6, 57, 0
8, 59790, Note_on_c, 6, 62, 90
8, 59819, Note_on_c, 6, 62, 0
8, 59820, Note_on_c, 6, 60, 90
8, 59849, Note_on_c, 6, 60, 0
8, 59850, Note_on_c, 6, 59, 90
8, 59879, Note_on_c, 6, 59, 0
8, 59880, Note_on_c, 6, 60, 90
8, 59909, Note_on_c, 6, 60, 0
8, 59910, Note_on_c, 6, 57, 90
8, 59939, Note_on_c, 6, 57, 0
8, 59940, Note_on_c, 6, 54, 90
8, 59969, Note_on_c, 6, 54, 0
8, 59970, Note_on_c, 6, 60, 90
8, 59999, Note_on_c, 6, 60, 0
8, 60000, Note_on_c, 6, 59, 90
8, 60029, Note_on_c, 6, 59, 0
8, 60030, Note_on_c, 6, 57, 90
8, 60059, Note_on_c, 6, 57, 0
8, 60060, Note_on_c, 6, 59, 90
8, 60089, Note_on_c, 6, 59, 0
8, 60090, Note_on_c, 6, 55, 90
8, 60119, Note_on_c, 6, 55, 0
8, 60120, Note_on_c, 6, 50, 90
8, 60149, Note_on_c, 6, 50, 0
8, 60150, Note_on_c, 6, 59, 90
8, 60179, Note_on_c, 6, 59, 0
8, 60180, Note_on_c, 6, 57, 90
8, 60209, Note_on_c, 6, 57, 0
8, 60210, Note_on_c, 6, 55, 90
8, 60239, Note_on_c, 6, 55, 0
8, 60240, Note_on_c, 6, 57, 90
8, 60269, Note_on_c, 6, 57, 0
8, 60270, Note_on_c, 6, 54, 90
8, 60299, Note_on_c, 6, 54, 0
8, 60300, Note_on_c, 6, 50, 90
8, 60329, Note_on_c, 6, 50, 0
8, 60330, Note_on_c, 6, 57, 90
8, 60359, Note_on_c, 6, 57, 0
8, 60360, Note_on_c, 6, 55, 90
8, 60389, Note_on_c, 6, 55, 0
8, 60390, Note_on_c, 6, 54, 90
8, 60419, Note_on_c, 6, 54, 0
8, 60420, Note_on_c, 6, 55, 90
8, 60449, Note_on_c, 6, 55, 0
8, 60450, Note_on_c, 6, 52, 90
8, 60479, Note_on_c, 6, 52, 0
8, 60480, Note_on_c, 6, 50, 90
8, 60509, Note_on_c, 6, 50, 0
8, 60510, Note_on_c, 6, 55, 90
8, 60539, Note_on_c, 6, 55, 0
8, 60540, Note_on_c, 6, 54, 90
8, 60569, Note_on_c, 6, 54, 0
8, 60570, Note_on_c, 6, 52, 90
8, 60599, Note_on_c, 6, 52, 0
8, 60600, Note_on_c, 6, 54, 90
8, 60629, Note_on_c, 6, 54, 0
8, 60630, Note_on_c, 6, 50, 90
8, 60659, Note_on_c, 6, 50, 0
8, 60660, Note_on_c, 6, 55, 90
8, 60719, Note_on_c, 6, 55, 0
8, 60720, Note_on_c, 6, 54, 90
8, 60749, Note_on_c, 6, 54, 0
8, 60750, Note_on_c, 6, 52, 90
8, 60779, Note_on_c, 6, 52, 0
8, 60780, Note_on_c, 6, 50, 90
8, 60809, Note_on_c, 6, 50, 0
8, 60810, Note_on_c, 6, 48, 90
8, 60839, Note_on_c, 6, 48, 0
8, 60840, Note_on_c, 6, 47, 90
8, 60899, Note_on_c, 6, 47, 0
8, 60900, Note_on_c, 6, 48, 90
8, 60929, Note_on_c, 6, 48, 0
8, 60930, Note_on_c, 6, 47, 90
8, 60959, Note_on_c, 6, 47, 0
8, 60960, Note_on_c, 6, 45, 90
8, 60989, Note_on_c, 6, 45, 0
8, 60990, Note_on_c, 6, 43, 90
8, 61019, Note_on_c, 6, 43, 0
8, 61020, Note_on_c, 6, 50, 90
8, 61079, Note_on_c, 6, 50, 0
8, 61080, Note_on_c, 6, 48, 90
8, 61139, Note_on_c, 6, 48, 0
8, 61140, Note_on_c, 6, 50, 90
8, 61199, Note_on_c, 6, 50, 0
8, 61200, Note_on_c, 6, 43, 90
8, 61259, Note_on_c, 6, 43, 0
8, 61260, Note_on_c, 6, 55, 90
8, 61319, Note_on_c, 6, 55, 0
8, 61320, Note_on_c, 6, 55, 90
8, 61379, Note_on_c, 6, 55, 0
8, 61380, Note_on_c, 6, 45, 90
8, 61439, Note_on_c, 6, 45, 0
8, 61440, Note_on_c, 6, 55, 90
8, 61499, Note_on_c, 6, 55, 0
8, 61500, Note_on_c, 6, 55, 90
8, 61559, Note_on_c, 6, 55, 0
8, 61559, Note_on_c, 6, 47, 90
8, 61588, Note_on_c, 6, 47, 0
8, 61589, Note_on_c, 6, 50, 90
8, 61618, Note_on_c, 6, 50, 0
8, 61619, Note_on_c, 6, 52, 90
8, 61648, Note_on_c, 6, 52, 0
8, 61649, Note_on_c, 6, 53, 90
8, 61678, Note_on_c, 6, 53, 0
8, 61679, Note_on_c, 6, 55, 90
8, 61708, Note_on_c, 6, 55, 0
8, 61709, Note_on_c, 6, 47, 90
8, 61738, Note_on_c, 6, 47, 0
8, 61739, Note_on_c, 6, 49, 90
8, 61768, Note_on_c, 6, 49, 0
8, 61769, Note_on_c, 6, 50, 90
8, 61798, Note_on_c, 6, 50, 0
8, 61799, Note_on_c, 6, 52, 90
8, 61828, Note_on_c, 6, 52, 0
8, 61829, Note_on_c, 6, 53, 90
8, 61858, Note_on_c, 6, 53, 0
8, 61860, Note_on_c, 6, 55, 90
8, 61889, Note_on_c, 6, 55, 0
8, 61890, Note_on_c, 6, 49, 90
8, 61919, Note_on_c, 6, 49, 0
8, 61920, Note_on_c, 6, 50, 90
8, 61979, Note_on_c, 6, 50, 0
8, 62040, Note_on_c, 6, 52, 90
8, 62099, Note_on_c, 6, 52, 0
8, 62100, Note_on_c, 6, 53, 90
8, 62159, Note_on_c, 6, 53, 0
8, 62220, Note_on_c, 6, 50, 90
8, 62279, Note_on_c, 6, 50, 0
8, 62280, Note_on_c, 6, 55, 90
8, 62339, Note_on_c, 6, 55, 0
8, 62340, Note_on_c, 6, 67, 90
8, 62399, Note_on_c, 6, 67, 0
8, 62400, Note_on_c, 6, 67, 90
8, 62459, Note_on_c, 6, 67, 0
8, 62460, Note_on_c, 6, 57, 90
8, 62519, Note_on_c, 6, 57, 0
8, 62520, Note_on_c, 6, 67, 90
8, 62579, Note_on_c, 6, 67, 0
8, 62580, Note_on_c, 6, 67, 90
8, 62639, Note_on_c, 6, 67, 0
8, 62640, Note_on_c, 6, 59, 90
8, 62669, Note_on_c, 6, 59, 0
8, 62670, Note_on_c, 6, 62, 90
8, 62699, Note_on_c, 6, 62, 0
8, 62700, Note_on_c, 6, 64, 90
8, 62729, Note_on_c, 6, 64, 0
8, 62730, Note_on_c, 6, 65, 90
8, 62759, Note_on_c, 6, 65, 0
8, 62760, Note_on_c, 6, 67, 90
8, 62789, Note_on_c, 6, 67, 0
8, 62790, Note_on_c, 6, 59, 90
8, 62819, Note_on_c, 6, 59, 0
8, 62820, Note_on_c, 6, 60, 90
8, 62849, Note_on_c, 6, 60, 0
8, 62850, Note_on_c, 6, 62, 90
8, 62879, Note_on_c, 6, 62, 0
8, 62880, Note_on_c, 6, 64, 90
8, 62909, Note_on_c, 6, 64, 0
8, 62910, Note_on_c, 6, 65, 90
8, 62939, Note_on_c, 6, 65, 0
8, 62940, Note_on_c, 6, 67, 90
8, 62969, Note_on_c, 6, 67, 0
8, 62970, Note_on_c, 6, 60, 90
8, 62999, Note_on_c, 6, 60, 0
8, 63000, Note_on_c, 6, 62, 90
8, 63029, Note_on_c, 6, 62, 0
8, 63030, Note_on_c, 6, 67, 90
8, 63059, Note_on_c, 6, 67, 0
8, 63060, Note_on_c, 6, 65, 90
8, 63089, Note_on_c, 6, 65, 0
8, 63090, Note_on_c, 6, 64, 90
8, 63119, Note_on_c, 6, 64, 0
8, 63120, Note_on_c, 6, 65, 90
8, 63149, Note_on_c, 6, 65, 0
8, 63150, Note_on_c, 6, 62, 90
8, 63179, Note_on_c, 6, 62, 0
8, 63180, Note_on_c, 6, 59, 90
8, 63209, Note_on_c, 6, 59, 0
8, 63210, Note_on_c, 6, 65, 90
8, 63239, Note_on_c, 6, 65, 0
8, 63240, Note_on_c, 6, 64, 90
8, 63269, Note_on_c, 6, 64, 0
8, 63270, Note_on_c, 6, 62, 90
8, 63299, Note_on_c, 6, 62, 0
8, 63300, Note_on_c, 6, 64, 90
8, 63329, Note_on_c, 6, 64, 0
8, 63330, Note_on_c, 6, 60, 90
8, 63359, Note_on_c, 6, 60, 0
8, 63360, Note_on_c, 6, 55, 90
8, 63389, Note_on_c, 6, 55, 0
8, 63390, Note_on_c, 6, 64, 90
8, 63419, Note_on_c, 6, 64, 0
8, 63420, Note_on_c, 6, 62, 90
8, 63449, Note_on_c, 6, 62, 0
8, 63450, Note_on_c, 6, 60, 90
8, 63479, Note_on_c, 6, 60, 0
8, 63480, Note_on_c, 6, 62, 90
8, 63509, Note_on_c, 6, 62, 0
8, 63510, Note_on_c, 6, 59, 90
8, 63539, Note_on_c, 6, 59, 0
8, 63540, Note_on_c, 6, 55, 90
8, 63569, Note_on_c, 6, 55, 0
8, 63570, Note_on_c, 6, 62, 90
8, 63599, Note_on_c, 6, 62, 0
8, 63600, Note_on_c, 6, 60, 90
8, 63629, Note_on_c, 6, 60, 0
8, 63630, Note_on_c, 6, 59, 90
8, 63659, Note_on_c, 6, 59, 0
8, 63660, Note_on_c, 6, 60, 90
8, 63689, Note_on_c, 6, 60, 0
8, 63690, Note_on_c, 6, 57, 90
8, 63719, Note_on_c, 6, 57, 0
8, 63720, Note_on_c, 6, 55, 90
8, 63749, Note_on_c, 6, 55, 0
8, 63750, Note_on_c, 6, 60, 90
8, 63779, Note_on_c, 6, 60, 0
8, 63780, Note_on_c, 6, 59, 90
8, 63809, Note_on_c, 6, 59, 0
8, 63810, Note_on_c, 6, 57, 90
8, 63839, Note_on_c, 6, 57, 0
8, 63840, Note_on_c, 6, 59, 90
8, 63869, Note_on_c, 6, 59, 0
8, 63870, Note_on_c, 6, 55, 90
8, 63899, Note_on_c, 6, 55, 0
8, 63900, Note_on_c, 6, 60, 90
8, 63959, Note_on_c, 6, 60, 0
8, 63960, Note_on_c, 6, 59, 90
8, 63989, Note_on_c, 6, 59, 0
8, 63990, Note_on_c, 6, 57, 90
8, 64019, Note_on_c, 6, 57, 0
8, 64020, Note_on_c, 6, 55, 90
8, 64049, Note_on_c, 6, 55, 0
8, 64050, Note_on_c, 6, 53, 90
8, 64079, Note_on_c, 6, 53, 0
8, 64080, Note_on_c, 6, 52, 90
8, 64139, Note_on_c, 6, 52, 0
8, 64140, Note_on_c, 6, 53, 90
8, 64169, Note_on_c, 6, 53, 0
8, 64170, Note_on_c, 6, 52, 90
8, 64199, Note_on_c, 6, 52, 0
8, 64200, Note_on_c, 6, 50, 90
8, 64229, Note_on_c, 6, 50, 0
8, 64230, Note_on_c, 6, 48, 90
8, 64259, Note_on_c, 6, 48, 0
8, 64260, Note_on_c, 6, 55, 90
8, 64319, Note_on_c, 6, 55, 0
8, 64320, Note_on_c, 6, 53, 90
8, 64379, Note_on_c, 6, 53, 0
8, 64380, Note_on_c, 6, 55, 90
8, 64439, Note_on_c, 6, 55, 0
8, 64440, Note_on_c, 6, 48, 90
8, 64469, Note_on_c, 6, 48, 0
8, 64470, Note_on_c, 6, 62, 90
8, 64499, Note_on_c, 6, 62, 0
8, 64500, Note_on_c, 6, 60, 90
8, 64529, Note_on_c, 6, 60, 0
8, 64530, Note_on_c, 6, 58, 90
8, 64559, Note_on_c, 6, 58, 0
8, 64560, Note_on_c, 6, 60, 90
8, 64589, Note_on_c, 6, 60, 0
8, 64590, Note_on_c, 6, 57, 90
8, 64619, Note_on_c, 6, 57, 0
8, 64620, Note_on_c, 6, 48, 90
8, 64649, Note_on_c, 6, 48, 0
8, 64650, Note_on_c, 6, 60, 90
8, 64679, Note_on_c, 6, 60, 0
8, 64680, Note_on_c, 6, 58, 90
8, 64709, Note_on_c, 6, 58, 0
8, 64710, Note_on_c, 6, 57, 90
8, 64739, Note_on_c, 6, 57, 0
8, 64740, Note_on_c, 6, 58, 90
8, 64769, Note_on_c, 6, 58, 0
8, 64770, Note_on_c, 6, 55, 90
8, 64799, Note_on_c, 6, 55, 0
8, 64800, Note_on_c, 6, 48, 90
8, 64829, Note_on_c, 6, 48, 0
8, 64830, Note_on_c, 6, 58, 90
8, 64859, Note_on_c, 6, 58, 0
8, 64860, Note_on_c, 6, 57, 90
8, 64889, Note_on_c, 6, 57, 0
8, 64890, Note_on_c, 6, 55, 90
8, 64919, Note_on_c, 6, 55, 0
8, 64920, Note_on_c, 6, 57, 90
8, 64949, Note_on_c, 6, 57, 0
8, 64950, Note_on_c, 6, 53, 90
8, 64979, Note_on_c, 6, 53, 0
8, 64980, Note_on_c, 6, 48, 90
8, 65009, Note_on_c, 6, 48, 0
8, 65010, Note_on_c, 6, 57, 90
8, 65039, Note_on_c, 6, 57, 0
8, 65040, Note_on_c, 6, 55, 90
8, 65069, Note_on_c, 6, 55, 0
8, 65070, Note_on_c, 6, 53, 90
8, 65099, Note_on_c, 6, 53, 0
8, 65100, Note_on_c, 6, 55, 90
8, 65129, Note_on_c, 6, 55, 0
8, 65130, Note_on_c, 6, 52, 90
8, 65159, Note_on_c, 6, 52, 0
8, 65160, Note_on_c, 6, 50, 90
8, 65189, Note_on_c, 6, 50, 0
8, 65190, Note_on_c, 6, 55, 90
8, 65219, Note_on_c, 6, 55, 0
8, 65220, Note_on_c, 6, 53, 90
8, 65249, Note_on_c, 6, 53, 0
8, 65250, Note_on_c, 6, 52, 90
8, 65279, Note_on_c, 6, 52, 0
8, 65280, Note_on_c, 6, 53, 90
8, 65309, Note_on_c, 6, 53, 0
8, 65310, Note_on_c, 6, 50, 90
8, 65339, Note_on_c, 6, 50, 0
8, 65340, Note_on_c, 6, 47, 90
8, 65369, Note_on_c, 6, 47, 0
8, 65370, Note_on_c, 6, 53, 90
8, 65399, Note_on_c, 6, 53, 0
8, 65400, Note_on_c, 6, 52, 90
8, 65429, Note_on_c, 6, 52, 0
8, 65430, Note_on_c, 6, 50, 90
8, 65459, Note_on_c, 6, 50, 0
8, 65460, Note_on_c, 6, 52, 90
8, 65489, Note_on_c, 6, 52, 0
8, 65490, Note_on_c, 6, 48, 90
8, 65519, Note_on_c, 6, 48, 0
8, 65520, Note_on_c, 6, 43, 90
8, 65549, Note_on_c, 6, 43, 0
8, 65550, Note_on_c, 6, 52, 90
8, 65579, Note_on_c, 6, 52, 0
8, 65580, Note_on_c, 6, 50, 90
8, 65609, Note_on_c, 6, 50, 0
8, 65610, Note_on_c, 6, 48, 90
8, 65639, Note_on_c, 6, 48, 0
8, 65640, Note_on_c, 6, 50, 90
8, 65669, Note_on_c, 6, 50, 0
8, 65670, Note_on_c, 6, 47, 90
8, 65699, Note_on_c, 6, 47, 0
8, 65700, Note_on_c, 6, 43, 90
8, 65729, Note_on_c, 6, 43, 0
8, 65730, Note_on_c, 6, 50, 90
8, 65759, Note_on_c, 6, 50, 0
8, 65760, Note_on_c, 6, 48, 90
8, 65789, Note_on_c, 6, 48, 0
8, 65790, Note_on_c, 6, 47, 90
8, 65819, Note_on_c, 6, 47, 0
8, 65820, Note_on_c, 6, 48, 90
8, 65849, Note_on_c, 6, 48, 0
8, 65850, Note_on_c, 6, 45, 90
8, 65879, Note_on_c, 6, 45, 0
8, 65880, Note_on_c, 6, 43, 90
8, 65909, Note_on_c, 6, 43, 0
8, 65910, Note_on_c, 6, 48, 90
8, 65939, Note_on_c, 6, 48, 0
8, 65940, Note_on_c, 6, 47, 90
8, 65969, Note_on_c, 6, 47, 0
8, 65970, Note_on_c, 6, 45, 90
8, 65999, Note_on_c, 6, 45, 0
8, 66000, Note_on_c, 6, 47, 90
8, 66029, Note_on_c, 6, 47, 0
8, 66030, Note_on_c, 6, 43, 90
8, 66059, Note_on_c, 6, 43, 0
8, 66060, Note_on_c, 6, 48, 90
8, 66119, Note_on_c, 6, 48, 0
8, 66120, Note_on_c, 6, 47, 90
8, 66149, Note_on_c, 6, 47, 0
8, 66150, Note_on_c, 6, 45, 90
8, 66179, Note_on_c, 6, 45, 0
8, 66180, Note_on_c, 6, 43, 90
8, 66209, Note_on_c, 6, 43, 0
8, 66210, Note_on_c, 6, 41, 90
8, 66239, Note_on_c, 6, 41, 0
8, 66240, Note_on_c, 6, 40, 90
8, 66299, Note_on_c, 6, 40, 0
8, 66300, Note_on_c, 6, 41, 90
8, 66329, Note_on_c, 6, 41, 0
8, 66330, Note_on_c, 6, 40, 90
8, 66359, Note_on_c, 6, 40, 0
8, 66360, Note_on_c, 6, 38, 90
8, 66389, Note_on_c, 6, 38, 0
8, 66390, Note_on_c, 6, 36, 90
8, 66419, Note_on_c, 6, 36, 0
8, 66420, Note_on_c, 6, 43, 90
8, 66479, Note_on_c, 6, 43, 0
8, 66480, Note_on_c, 6, 41, 90
8, 66539, Note_on_c, 6, 41, 0
8, 66540, Note_on_c, 6, 43, 90
8, 66599, Note_on_c, 6, 43, 0
8, 66600, Note_on_c, 6, 36, 90
8, 66779, Note_on_c, 6, 36, 0
8, 153960, Note_on_c, 6, 55, 90
8, 154055, Note_on_c, 6, 55, 0
8, 154080, Note_on_c, 6, 52, 90
8, 154175, Note_on_c, 6, 52, 0
8, 154200, Note_on_c, 6, 47, 90
8, 154295, Note_on_c, 6, 47, 0
8, 154320, Note_on_c, 6, 48, 90
8, 154415, Note_on_c, 6, 48, 0
8, 154440, Note_on_c, 6, 45, 90
8, 154535, Note_on_c, 6, 45, 0
8, 154560, Note_on_c, 6, 43, 90
8, 154655, Note_on_c, 6, 43, 0
8, 154680, Note_on_c, 6, 50, 90
8, 154775, Note_on_c, 6, 50, 0
8, 154800, Note_on_c, 6, 48, 90
8, 154895, Note_on_c, 6, 48, 0
8, 154920, Note_on_c, 6, 47, 90
8, 155015, Note_on_c, 6, 47, 0
8, 155040, Note_on_c, 6, 50, 90
8, 155135, Note_on_c, 6, 50, 0
8, 155160, Note_on_c, 6, 52, 90
8, 155255, Note_on_c, 6, 52, 0
8, 155280, Note_on_c, 6, 48, 90
8, 155375, Note_on_c, 6, 48, 0
8, 155400, Note_on_c, 6, 50, 90
8, 155495, Note_on_c, 6, 50, 0
8, 155520, Note_on_c, 6, 38, 90
8, 155615, Note_on_c, 6, 38, 0
8, 155640, Note_on_c, 6, 43, 90
8, 155831, Note_on_c, 6, 43, 0
8, 155880, Note_on_c, 6, 55, 90
8, 155975, Note_on_c, 6, 55, 0
8, 156000, Note_on_c, 6, 52, 90
8, 156095, Note_on_c, 6, 52, 0
8, 156120, Note_on_c, 6, 57, 90
8, 156215, Note_on_c, 6, 57, 0
8, 156240, Note_on_c, 6, 54, 90
8, 156335, Note_on_c, 6, 54, 0
8, 156360, Note_on_c, 6, 52, 90
8, 156455, Note_on_c, 6, 52, 0
8, 156480, Note_on_c, 6, 50, 90
8, 156575, Note_on_c, 6, 50, 0
8, 156600, Note_on_c, 6, 57, 90
8, 156695, Note_on_c, 6, 57, 0
8, 156720, Note_on_c, 6, 55, 90
8, 156815, Note_on_c, 6, 55, 0
8, 156840, Note_on_c, 6, 54, 90
8, 156935, Note_on_c, 6, 54, 0
8, 156960, Note_on_c, 6, 57, 90
8, 157055, Note_on_c, 6, 57, 0
8, 157080, Note_on_c, 6, 59, 90
8, 157175, Note_on_c, 6, 59, 0
8, 157200, Note_on_c, 6, 55, 90
8, 157295, Note_on_c, 6, 55, 0
8, 157320, Note_on_c, 6, 57, 90
8, 157415, Note_on_c, 6, 57, 0
8, 157440, Note_on_c, 6, 45, 90
8, 157535, Note_on_c, 6, 45, 0
8, 157560, Note_on_c, 6, 50, 90
8, 157703, Note_on_c, 6, 50, 0
8, 157740, Note_on_c, 6, 48, 90
8, 157787, Note_on_c, 6, 48, 0
8, 157800, Note_on_c, 6, 47, 90
8, 157895, Note_on_c, 6, 47, 0
8, 157920, Note_on_c, 6, 43, 90
8, 158015, Note_on_c, 6, 43, 0
8, 158040, Note_on_c, 6, 48, 90
8, 158135, Note_on_c, 6, 48, 0
8, 158160, Note_on_c, 6, 60, 90
8, 158255, Note_on_c, 6, 60, 0
8, 158280, Note_on_c, 6, 56, 90
8, 158375, Note_on_c, 6, 56, 0
8, 158400, Note_on_c, 6, 52, 90
8, 158495, Note_on_c, 6, 52, 0
8, 158520, Note_on_c, 6, 57, 90
8, 158615, Note_on_c, 6, 57, 0
8, 158640, Note_on_c, 6, 55, 90
8, 158735, Note_on_c, 6, 55, 0
8, 158760, Note_on_c, 6, 54, 90
8, 158855, Note_on_c, 6, 54, 0
8, 158880, Note_on_c, 6, 50, 90
8, 158975, Note_on_c, 6, 50, 0
8, 159000, Note_on_c, 6, 55, 90
8, 159095, Note_on_c, 6, 55, 0
8, 159120, Note_on_c, 6, 52, 90
8, 159215, Note_on_c, 6, 52, 0
8, 159240, Note_on_c, 6, 57, 90
8, 159335, Note_on_c, 6, 57, 0
8, 159360, Note_on_c, 6, 45, 90
8, 159455, Note_on_c, 6, 45, 0
8, 159480, Note_on_c, 6, 50, 90
8, 159575, Note_on_c, 6, 50, 0
8, 159600, Note_on_c, 6, 52, 90
8, 159695, Note_on_c, 6, 52, 0
8, 159720, Note_on_c, 6, 54, 90
8, 159815, Note_on_c, 6, 54, 0
8, 159840, Note_on_c, 6, 50, 90
8, 159935, Note_on_c, 6, 50, 0
8, 159960, Note_on_c, 6, 55, 90
8, 160055, Note_on_c, 6, 55, 0
8, 160080, Note_on_c, 6, 53, 90
8, 160175, Note_on_c, 6, 53, 0
8, 160200, Note_on_c, 6, 52, 90
8, 160295, Note_on_c, 6, 52, 0
8, 160320, Note_on_c, 6, 50, 90
8, 160415, Note_on_c, 6, 50, 0
8, 160440, Note_on_c, 6, 48, 90
8, 160535, Note_on_c, 6, 48, 0
8, 160560, Note_on_c, 6, 47, 90
8, 160655, Note_on_c, 6, 47, 0
8, 160680, Note_on_c, 6, 48, 90
8, 160775, Note_on_c, 6, 48, 0
8, 160800, Note_on_c, 6, 45, 90
8, 160895, Note_on_c, 6, 45, 0
8, 160920, Note_on_c, 6, 47, 90
8, 161015, Note_on_c, 6, 47, 0
8, 161040, Note_on_c, 6, 45, 90
8, 161087, Note_on_c, 6, 45, 0
8, 161100, Note_on_c, 6, 43, 90
8, 161147, Note_on_c, 6, 43, 0
8, 161160, Note_on_c, 6, 50, 90
8, 161255, Note_on_c, 6, 50, 0
8, 161280, Note_on_c, 6, 38, 90
8, 161375, Note_on_c, 6, 38, 0
8, 161400, Note_on_c, 6, 43, 90
8, 161591, Note_on_c, 6, 43, 0
8, 161640, Note_on_c, 6, 55, 90
8, 161735, Note_on_c, 6, 55, 0
8, 161760, Note_on_c, 6, 52, 90
8, 161855, Note_on_c, 6, 52, 0
8, 161880, Note_on_c, 6, 47, 90
8, 161975, Note_on_c, 6, 47, 0
8, 162000, Note_on_c, 6, 48, 90
8, 162095, Note_on_c, 6, 48, 0
8, 162120, Note_on_c, 6, 45, 90
8, 162215, Note_on_c, 6, 45, 0
8, 162240, Note_on_c, 6, 43, 90
8, 162335, Note_on_c, 6, 43, 0
8, 162360, Note_on_c, 6, 50, 90
8, 162455, Note_on_c, 6, 50, 0
8, 162480, Note_on_c, 6, 48, 90
8, 162575, Note_on_c, 6, 48, 0
8, 162600, Note_on_c, 6, 47, 90
8, 162695, Note_on_c, 6, 47, 0
8, 162720, Note_on_c, 6, 50, 90
8, 162815, Note_on_c, 6, 50, 0
8, 162840, Note_on_c, 6, 52, 90
8, 162935, Note_on_c, 6, 52, 0
8, 162960, Note_on_c, 6, 48, 90
8, 163055, Note_on_c, 6, 48, 0
8, 163080, Note_on_c, 6, 50, 90
8, 163175, Note_on_c, 6, 50, 0
8, 163200, Note_on_c, 6, 38, 90
8, 163295, Note_on_c, 6, 38, 0
8, 163320, Note_on_c, 6, 43, 90
8, 163415, Note_on_c, 6, 43, 0
8, 163440, Note_on_c, 6, 50, 90
8, 163535, Note_on_c, 6, 50, 0
8, 163560, Note_on_c, 6, 55, 90
8, 163655, Note_on_c, 6, 55, 0
8, 163680, Note_on_c, 6, 52, 90
8, 163775, Note_on_c, 6, 52, 0
8, 163800, Note_on_c, 6, 57, 90
8, 163895, Note_on_c, 6, 57, 0
8, 163920, Note_on_c, 6, 54, 90
8, 164015, Note_on_c, 6, 54, 0
8, 164040, Note_on_c, 6, 52, 90
8, 164135, Note_on_c, 6, 52, 0
8, 164160, Note_on_c, 6, 50, 90
8, 164255, Note_on_c, 6, 50, 0
8, 164280, Note_on_c, 6, 57, 90
8, 164375, Note_on_c, 6, 57, 0
8, 164400, Note_on_c, 6, 55, 90
8, 164495, Note_on_c, 6, 55, 0
8, 164520, Note_on_c, 6, 57, 90
8, 164615, Note_on_c, 6, 57, 0
8, 164640, Note_on_c, 6, 54, 90
8, 164735, Note_on_c, 6, 54, 0
8, 164760, Note_on_c, 6, 59, 90
8, 164855, Note_on_c, 6, 59, 0
8, 164880, Note_on_c, 6, 55, 90
8, 164975, Note_on_c, 6, 55, 0
8, 165000, Note_on_c, 6, 57, 90
8, 165095, Note_on_c, 6, 57, 0
8, 165120, Note_on_c, 6, 45, 90
8, 165215, Note_on_c, 6, 45, 0
8, 165240, Note_on_c, 6, 50, 90
8, 165335, Note_on_c, 6, 50, 0
8, 165360, Note_on_c, 6, 48, 90
8, 165455, Note_on_c, 6, 48, 0
8, 165480, Note_on_c, 6, 47, 90
8, 165575, Note_on_c, 6, 47, 0
8, 165600, Note_on_c, 6, 43, 90
8, 165695, Note_on_c, 6, 43, 0
8, 165720, Note_on_c, 6, 48, 90
8, 165815, Note_on_c, 6, 48, 0
8, 165840, Note_on_c, 6, 60, 90
8, 165935, Note_on_c, 6, 60, 0
8, 165960, Note_on_c, 6, 56, 90
8, 166055, Note_on_c, 6, 56, 0
8, 166080, Note_on_c, 6, 52, 90
8, 166175, Note_on_c, 6, 52, 0
8, 166200, Note_on_c, 6, 57, 90
8, 166295, Note_on_c, 6, 57, 0
8, 166320, Note_on_c, 6, 55, 90
8, 166415, Note_on_c, 6, 55, 0
8, 166440, Note_on_c, 6, 54, 90
8, 166535, Note_on_c, 6, 54, 0
8, 166560, Note_on_c, 6, 50, 90
8, 166655, Note_on_c, 6, 50, 0
8, 166680, Note_on_c, 6, 55, 90
8, 166775, Note_on_c, 6, 55, 0
8, 166800, Note_on_c, 6, 52, 90
8, 166895, Note_on_c, 6, 52, 0
8, 166920, Note_on_c, 6, 57, 90
8, 167015, Note_on_c, 6, 57, 0
8, 167040, Note_on_c, 6, 45, 90
8, 167135, Note_on_c, 6, 45, 0
8, 167160, Note_on_c, 6, 50, 90
8, 167255, Note_on_c, 6, 50, 0
8, 167280, Note_on_c, 6, 52, 90
8, 167375, Note_on_c, 6, 52, 0
8, 167400, Note_on_c, 6, 54, 90
8, 167495, Note_on_c, 6, 54, 0
8, 167520, Note_on_c, 6, 50, 90
8, 167615, Note_on_c, 6, 50, 0
8, 167640, Note_on_c, 6, 55, 90
8, 167735, Note_on_c, 6, 55, 0
8, 167760, Note_on_c, 6, 53, 90
8, 167855, Note_on_c, 6, 53, 0
8, 167880, Note_on_c, 6, 52, 90
8, 167975, Note_on_c, 6, 52, 0
8, 168000, Note_on_c, 6, 50, 90
8, 168095, Note_on_c, 6, 50, 0
8, 168120, Note_on_c, 6, 48, 90
8, 168215, Note_on_c, 6, 48, 0
8, 168240, Note_on_c, 6, 50, 90
8, 168335, Note_on_c, 6, 50, 0
8, 168360, Note_on_c, 6, 52, 90
8, 168455, Note_on_c, 6, 52, 0
8, 168480, Note_on_c, 6, 48, 90
8, 168575, Note_on_c, 6, 48, 0
8, 168600, Note_on_c, 6, 47, 90
8, 168695, Note_on_c, 6, 47, 0
8, 168720, Note_on_c, 6, 48, 90
8, 168815, Note_on_c, 6, 48, 0
8, 168840, Note_on_c, 6, 50, 90
8, 168935, Note_on_c, 6, 50, 0
8, 168960, Note_on_c, 6, 38, 90
8, 169055, Note_on_c, 6, 38, 0
8, 169080, Note_on_c, 6, 43, 90
8, 169271, Note_on_c, 6, 43, 0
8, 169320, Note_on_c, 6, 55, 90
8, 169415, Note_on_c, 6, 55, 0
8, 169440, Note_on_c, 6, 52, 90
8, 169535, Note_on_c, 6, 52, 0
8, 169560, Note_on_c, 6, 47, 90
8, 169655, Note_on_c, 6, 47, 0
8, 169680, Note_on_c, 6, 48, 90
8, 169775, Note_on_c, 6, 48, 0
8, 169800, Note_on_c, 6, 45, 90
8, 169895, Note_on_c, 6, 45, 0
8, 169920, Note_on_c, 6, 43, 90
8, 170015, Note_on_c, 6, 43, 0
8, 170040, Note_on_c, 6, 50, 90
8, 170135, Note_on_c, 6, 50, 0
8, 170160, Note_on_c, 6, 48, 90
8, 170255, Note_on_c, 6, 48, 0
8, 170280, Note_on_c, 6, 47, 90
8, 170375, Note_on_c, 6, 47, 0
8, 170400, Note_on_c, 6, 50, 90
8, 170495, Note_on_c, 6, 50, 0
8, 170520, Note_on_c, 6, 52, 90
8, 170615, Note_on_c, 6, 52, 0
8, 170640, Note_on_c, 6, 48, 90
8, 170735, Note_on_c, 6, 48, 0
8, 170760, Note_on_c, 6, 50, 90
8, 170855, Note_on_c, 6, 50, 0
8, 170880, Note_on_c, 6, 38, 90
8, 170975, Note_on_c, 6, 38, 0
8, 171000, Note_on_c, 6, 43, 90
8, 171191, Note_on_c, 6, 43, 0
8, 171240, Note_on_c, 6, 55, 90
8, 171335, Note_on_c, 6, 55, 0
8, 171360, Note_on_c, 6, 52, 90
8, 171455, Note_on_c, 6, 52, 0
8, 171480, Note_on_c, 6, 57, 90
8, 171575, Note_on_c, 6, 57, 0
8, 171600, Note_on_c, 6, 54, 90
8, 171695, Note_on_c, 6, 54, 0
8, 171720, Note_on_c, 6, 52, 90
8, 171815, Note_on_c, 6, 52, 0
8, 171840, Note_on_c, 6, 50, 90
8, 171935, Note_on_c, 6, 50, 0
8, 171960, Note_on_c, 6, 57, 90
8, 172055, Note_on_c, 6, 57, 0
8, 172080, Note_on_c, 6, 55, 90
8, 172175, Note_on_c, 6, 55, 0
8, 172200, Note_on_c, 6, 54, 90
8, 172295, Note_on_c, 6, 54, 0
8, 172320, Note_on_c, 6, 57, 90
8, 172415, Note_on_c, 6, 57, 0
8, 172440, Note_on_c, 6, 59, 90
8, 172535, Note_on_c, 6, 59, 0
8, 172560, Note_on_c, 6, 55, 90
8, 172655, Note_on_c, 6, 55, 0
8, 172680, Note_on_c, 6, 57, 90
8, 172775, Note_on_c, 6, 57, 0
8, 172800, Note_on_c, 6, 45, 90
8, 172895, Note_on_c, 6, 45, 0
8, 172920, Note_on_c, 6, 50, 90
8, 173063, Note_on_c, 6, 50, 0
8, 173100, Note_on_c, 6, 48, 90
8, 173147, Note_on_c, 6, 48, 0
8, 173160, Note_on_c, 6, 47, 90
8, 173255, Note_on_c, 6, 47, 0
8, 173280, Note_on_c, 6, 43, 90
8, 173375, Note_on_c, 6, 43, 0
8, 173400, Note_on_c, 6, 48, 90
8, 173495, Note_on_c, 6, 48, 0
8, 173520, Note_on_c, 6, 60, 90
8, 173615, Note_on_c, 6, 60, 0
8, 173640, Note_on_c, 6, 56, 90
8, 173735, Note_on_c, 6, 56, 0
8, 173760, Note_on_c, 6, 52, 90
8, 173855, Note_on_c, 6, 52, 0
8, 173880, Note_on_c, 6, 57, 90
8, 173975, Note_on_c, 6, 57, 0
8, 174000, Note_on_c, 6, 55, 90
8, 174095, Note_on_c, 6, 55, 0
8, 174120, Note_on_c, 6, 54, 90
8, 174215, Note_on_c, 6, 54, 0
8, 174240, Note_on_c, 6, 50, 90
8, 174335, Note_on_c, 6, 50, 0
8, 174360, Note_on_c, 6, 55, 90
8, 174455, Note_on_c, 6, 55, 0
8, 174480, Note_on_c, 6, 52, 90
8, 174575, Note_on_c, 6, 52, 0
8, 174600, Note_on_c, 6, 57, 90
8, 174695, Note_on_c, 6, 57, 0
8, 174720, Note_on_c, 6, 45, 90
8, 174815, Note_on_c, 6, 45, 0
8, 174840, Note_on_c, 6, 50, 90
8, 174935, Note_on_c, 6, 50, 0
8, 174960, Note_on_c, 6, 52, 90
8, 175055, Note_on_c, 6, 52, 0
8, 175080, Note_on_c, 6, 54, 90
8, 175175, Note_on_c, 6, 54, 0
8, 175200, Note_on_c, 6, 50, 90
8, 175295, Note_on_c, 6, 50, 0
8, 175320, Note_on_c, 6, 55, 90
8, 175415, Note_on_c, 6, 55, 0
8, 175440, Note_on_c, 6, 53, 90
8, 175535, Note_on_c, 6, 53, 0
8, 175560, Note_on_c, 6, 52, 90
8, 175655, Note_on_c, 6, 52, 0
8, 175680, Note_on_c, 6, 50, 90
8, 175775, Note_on_c, 6, 50, 0
8, 175800, Note_on_c, 6, 48, 90
8, 175895, Note_on_c, 6, 48, 0
8, 175920, Note_on_c, 6, 47, 90
8, 176015, Note_on_c, 6, 47, 0
8, 176040, Note_on_c, 6, 48, 90
8, 176135, Note_on_c, 6, 48, 0
8, 176160, Note_on_c, 6, 45, 90
8, 176255, Note_on_c, 6, 45, 0
8, 176280, Note_on_c, 6, 47, 90
8, 176375, Note_on_c, 6, 47, 0
8, 176400, Note_on_c, 6, 45, 90
8, 176447, Note_on_c, 6, 45, 0
8, 176460, Note_on_c, 6, 43, 90
8, 176507, Note_on_c, 6, 43, 0
8, 176520, Note_on_c, 6, 50, 90
8, 176615, Note_on_c, 6, 50, 0
8, 176640, Note_on_c, 6, 38, 90
8, 176735, Note_on_c, 6, 38, 0
8, 176760, Note_on_c, 6, 43, 90
8, 176951, Note_on_c, 6, 43, 0
8, 176951, End_track
9, 0, Start_track
9, 0, MIDI_port, 0
9, 0, Title_t, "cello"
9, 0, Program_c, 7, 42
9, 0, Note_on_c, 7, 43, 90
9, 119, Note_on_c, 7, 43, 0
9, 240, Note_on_c, 7, 43, 90
9, 359, Note_on_c, 7, 43, 0
9, 480, Note_on_c, 7, 45, 90
9, 599, Note_on_c, 7, 45, 0
9, 720, Note_on_c, 7, 47, 90
9, 839, Note_on_c, 7, 47, 0
9, 960, Note_on_c, 7, 48, 90
9, 1079, Note_on_c, 7, 48, 0
9, 1200, Note_on_c, 7, 48, 90
9, 1319, Note_on_c, 7, 48, 0
9, 1440, Note_on_c, 7, 47, 90
9, 1559, Note_on_c, 7, 47, 0
9, 1680, Note_on_c, 7, 52, 90
9, 1799, Note_on_c, 7, 52, 0
9, 1920, Note_on_c, 7, 45, 90
9, 2039, Note_on_c, 7, 45, 0
9, 2160, Note_on_c, 7, 48, 90
9, 2279, Note_on_c, 7, 48, 0
9, 2400, Note_on_c, 7, 47, 90
9, 2519, Note_on_c, 7, 47, 0
9, 2640, Note_on_c, 7, 42, 90
9, 2759, Note_on_c, 7, 42, 0
9, 2880, Note_on_c, 7, 43, 90
9, 2999, Note_on_c, 7, 43, 0
9, 3120, Note_on_c, 7, 44, 90
9, 3239, Note_on_c, 7, 44, 0
9, 3360, Note_on_c, 7, 46, 90
9, 3479, Note_on_c, 7, 46, 0
9, 3600, Note_on_c, 7, 47, 90
9, 3719, Note_on_c, 7, 47, 0
9, 3720, Note_on_c, 7, 49, 90
9, 3839, Note_on_c, 7, 49, 0
9, 3840, Note_on_c, 7, 50, 90
9, 3899, Note_on_c, 7, 50, 0
9, 3900, Note_on_c, 7, 55, 90
9, 3959, Note_on_c, 7, 55, 0
9, 3960, Note_on_c, 7, 57, 90
9, 4019, Note_on_c, 7, 57, 0
9, 4020, Note_on_c, 7, 45, 90
9, 4079, Note_on_c, 7, 45, 0
9, 4080, Note_on_c, 7, 50, 90
9, 4199, Note_on_c, 7, 50, 0
9, 4320, Note_on_c, 7, 48, 90
9, 4439, Note_on_c, 7, 48, 0
9, 4560, Note_on_c, 7, 47, 90
9, 4679, Note_on_c, 7, 47, 0
9, 4800, Note_on_c, 7, 52, 90
9, 4919, Note_on_c, 7, 52, 0
9, 5040, Note_on_c, 7, 45, 90
9, 5159, Note_on_c, 7, 45, 0
9, 5280, Note_on_c, 7, 50, 90
9, 5399, Note_on_c, 7, 50, 0
9, 5520, Note_on_c, 7, 48, 90
9, 5639, Note_on_c, 7, 48, 0
9, 5700, Note_on_c, 7, 48, 90
9, 5759, Note_on_c, 7, 48, 0
9, 5760, Note_on_c, 7, 46, 90
9, 5819, Note_on_c, 7, 46, 0
9, 5820, Note_on_c, 7, 48, 90
9, 5879, Note_on_c, 7, 48, 0
9, 5880, Note_on_c, 7, 50, 90
9, 5939, Note_on_c, 7, 50, 0
9, 5940, Note_on_c, 7, 38, 90
9, 5999, Note_on_c, 7, 38, 0
9, 6000, Note_on_c, 7, 43, 90
9, 6119, Note_on_c, 7, 43, 0
9, 6240, Note_on_c, 7, 41, 90
9, 6359, Note_on_c, 7, 41, 0
9, 6480, Note_on_c, 7, 40, 90
9, 6599, Note_on_c, 7, 40, 0
9, 6720, Note_on_c, 7, 38, 90
9, 6839, Note_on_c, 7, 38, 0
9, 6900, Note_on_c, 7, 43, 90
9, 6959, Note_on_c, 7, 43, 0
9, 6960, Note_on_c, 7, 48, 90
9, 6989, Note_on_c, 7, 48, 0
9, 6990, Note_on_c, 7, 47, 90
9, 7019, Note_on_c, 7, 47, 0
9, 7020, Note_on_c, 7, 45, 90
9, 7049, Note_on_c, 7, 45, 0
9, 7050, Note_on_c, 7, 43, 90
9, 7079, Note_on_c, 7, 43, 0
9, 7080, Note_on_c, 7, 50, 90
9, 7139, Note_on_c, 7, 50, 0
9, 7140, Note_on_c, 7, 38, 90
9, 7199, Note_on_c, 7, 38, 0
9, 7200, Note_on_c, 7, 43, 90
9, 7319, Note_on_c, 7, 43, 0
9, 7440, Note_on_c, 7, 43, 90
9, 7559, Note_on_c, 7, 43, 0
9, 7680, Note_on_c, 7, 43, 90
9, 7799, Note_on_c, 7, 43, 0
9, 7920, Note_on_c, 7, 45, 90
9, 8039, Note_on_c, 7, 45, 0
9, 8160, Note_on_c, 7, 47, 90
9, 8219, Note_on_c, 7, 47, 0
9, 8220, Note_on_c, 7, 48, 90
9, 8279, Note_on_c, 7, 48, 0
9, 8280, Note_on_c, 7, 50, 90
9, 8339, Note_on_c, 7, 50, 0
9, 8340, Note_on_c, 7, 47, 90
9, 8399, Note_on_c, 7, 47, 0
9, 8400, Note_on_c, 7, 52, 90
9, 8459, Note_on_c, 7, 52, 0
9, 8460, Note_on_c, 7, 48, 90
9, 8519, Note_on_c, 7, 48, 0
9, 8520, Note_on_c, 7, 50, 90
9, 8579, Note_on_c, 7, 50, 0
9, 8580, Note_on_c, 7, 38, 90
9, 8639, Note_on_c, 7, 38, 0
9, 8640, Note_on_c, 7, 43, 90
9, 8699, Note_on_c, 7, 43, 0
9, 8700, Note_on_c, 7, 55, 90
9, 8759, Note_on_c, 7, 55, 0
9, 8760, Note_on_c, 7, 54, 90
9, 8819, Note_on_c, 7, 54, 0
9, 8820, Note_on_c, 7, 52, 90
9, 8879, Note_on_c, 7, 52, 0
9, 8880, Note_on_c, 7, 50, 90
9, 8939, Note_on_c, 7, 50, 0
9, 8940, Note_on_c, 7, 54, 90
9, 8999, Note_on_c, 7, 54, 0
9, 9000, Note_on_c, 7, 55, 90
9, 9059, Note_on_c, 7, 55, 0
9, 9060, Note_on_c, 7, 52, 90
9, 9119, Note_on_c, 7, 52, 0
9, 9120, Note_on_c, 7, 57, 90
9, 9179, Note_on_c, 7, 57, 0
9, 9180, Note_on_c, 7, 59, 90
9, 9239, Note_on_c, 7, 59, 0
9, 9240, Note_on_c, 7, 61, 90
9, 9299, Note_on_c, 7, 61, 0
9, 9300, Note_on_c, 7, 62, 90
9, 9359, Note_on_c, 7, 62, 0
9, 9360, Note_on_c, 7, 57, 90
9, 9419, Note_on_c, 7, 57, 0
9, 9420, Note_on_c, 7, 59, 90
9, 9479, Note_on_c, 7, 59, 0
9, 9480, Note_on_c, 7, 61, 90
9, 9539, Note_on_c, 7, 61, 0
9, 9540, Note_on_c, 7, 62, 90
9, 9599, Note_on_c, 7, 62, 0
9, 9600, Note_on_c, 7, 57, 90
9, 9659, Note_on_c, 7, 57, 0
9, 9660, Note_on_c, 7, 55, 90
9, 9719, Note_on_c, 7, 55, 0
9, 9720, Note_on_c, 7, 54, 90
9, 9779, Note_on_c, 7, 54, 0
9, 9780, Note_on_c, 7, 52, 90
9, 9839, Note_on_c, 7, 52, 0
9, 9840, Note_on_c, 7, 59, 90
9, 9899, Note_on_c, 7, 59, 0
9, 9900, Note_on_c, 7, 55, 90
9, 9959, Note_on_c, 7, 55, 0
9, 9960, Note_on_c, 7, 54, 90
9, 10019, Note_on_c, 7, 54, 0
9, 10020, Note_on_c, 7, 52, 90
9, 10079, Note_on_c, 7, 52, 0
9, 10080, Note_on_c, 7, 59, 90
9, 10139, Note_on_c, 7, 59, 0
9, 10140, Note_on_c, 7, 57, 90
9, 10199, Note_on_c, 7, 57, 0
9, 10200, Note_on_c, 7, 59, 90
9, 10259, Note_on_c, 7, 59, 0
9, 10260, Note_on_c, 7, 55, 90
9, 10319, Note_on_c, 7, 55, 0
9, 10320, Note_on_c, 7, 60, 90
9, 10379, Note_on_c, 7, 60, 0
9, 10380, Note_on_c, 7, 57, 90
9, 10439, Note_on_c, 7, 57, 0
9, 10440, Note_on_c, 7, 59, 90
9, 10499, Note_on_c, 7, 59, 0
9, 10500, Note_on_c, 7, 47, 90
9, 10559, Note_on_c, 7, 47, 0
9, 10560, Note_on_c, 7, 52, 90
9, 10619, Note_on_c, 7, 52, 0
9, 10620, Note_on_c, 7, 54, 90
9, 10679, Note_on_c, 7, 54, 0
9, 10680, Note_on_c, 7, 55, 90
9, 10739, Note_on_c, 7, 55, 0
9, 10740, Note_on_c, 7, 52, 90
9, 10799, Note_on_c, 7, 52, 0
9, 10800, Note_on_c, 7, 54, 90
9, 10859, Note_on_c, 7, 54, 0
9, 10860, Note_on_c, 7, 50, 90
9, 10919, Note_on_c, 7, 50, 0
9, 10920, Note_on_c, 7, 55, 90
9, 10979, Note_on_c, 7, 55, 0
9, 10980, Note_on_c, 7, 43, 90
9, 11039, Note_on_c, 7, 43, 0
9, 11040, Note_on_c, 7, 50, 90
9, 11099, Note_on_c, 7, 50, 0
9, 11100, Note_on_c, 7, 52, 90
9, 11159, Note_on_c, 7, 52, 0
9, 11160, Note_on_c, 7, 54, 90
9, 11219, Note_on_c, 7, 54, 0
9, 11220, Note_on_c, 7, 55, 90
9, 11279, Note_on_c, 7, 55, 0
9, 11280, Note_on_c, 7, 50, 90
9, 11339, Note_on_c, 7, 50, 0
9, 11340, Note_on_c, 7, 52, 90
9, 11399, Note_on_c, 7, 52, 0
9, 11400, Note_on_c, 7, 54, 90
9, 11459, Note_on_c, 7, 54, 0
9, 11460, Note_on_c, 7, 55, 90
9, 11519, Note_on_c, 7, 55, 0
9, 11520, Note_on_c, 7, 50, 90
9, 11579, Note_on_c, 7, 50, 0
9, 11580, Note_on_c, 7, 48, 90
9, 11639, Note_on_c, 7, 48, 0
9, 11640, Note_on_c, 7, 47, 90
9, 11699, Note_on_c, 7, 47, 0
9, 11700, Note_on_c, 7, 45, 90
9, 11759, Note_on_c, 7, 45, 0
9, 11760, Note_on_c, 7, 52, 90
9, 11819, Note_on_c, 7, 52, 0
9, 11820, Note_on_c, 7, 48, 90
9, 11879, Note_on_c, 7, 48, 0
9, 11880, Note_on_c, 7, 47, 90
9, 11939, Note_on_c, 7, 47, 0
9, 11940, Note_on_c, 7, 45, 90
9, 11999, Note_on_c, 7, 45, 0
9, 12000, Note_on_c, 7, 52, 90
9, 12059, Note_on_c, 7, 52, 0
9, 12060, Note_on_c, 7, 50, 90
9, 12089, Note_on_c, 7, 50, 0
9, 12090, Note_on_c, 7, 48, 90
9, 12119, Note_on_c, 7, 48, 0
9, 12120, Note_on_c, 7, 47, 90
9, 12179, Note_on_c, 7, 47, 0
9, 12180, Note_on_c, 7, 43, 90
9, 12239, Note_on_c, 7, 43, 0
9, 12240, Note_on_c, 7, 48, 90
9, 12299, Note_on_c, 7, 48, 0
9, 12300, Note_on_c, 7, 52, 90
9, 12359, Note_on_c, 7, 52, 0
9, 12360, Note_on_c, 7, 53, 90
9, 12419, Note_on_c, 7, 53, 0
9, 12420, Note_on_c, 7, 50, 90
9, 12479, Note_on_c, 7, 50, 0
9, 12480, Note_on_c, 7, 55, 90
9, 12539, Note_on_c, 7, 55, 0
9, 12540, Note_on_c, 7, 57, 90
9, 12599, Note_on_c, 7, 57, 0
9, 12600, Note_on_c, 7, 59, 90
9, 12659, Note_on_c, 7, 59, 0
9, 12660, Note_on_c, 7, 60, 90
9, 12719, Note_on_c, 7, 60, 0
9, 12720, Note_on_c, 7, 55, 90
9, 12779, Note_on_c, 7, 55, 0
9, 12780, Note_on_c, 7, 57, 90
9, 12839, Note_on_c, 7, 57, 0
9, 12840, Note_on_c, 7, 59, 90
9, 12899, Note_on_c, 7, 59, 0
9, 12900, Note_on_c, 7, 60, 90
9, 12959, Note_on_c, 7, 60, 0
9, 12960, Note_on_c, 7, 55, 90
9, 13019, Note_on_c, 7, 55, 0
9, 13020, Note_on_c, 7, 54, 90
9, 13079, Note_on_c, 7, 54, 0
9, 13080, Note_on_c, 7, 52, 90
9, 13139, Note_on_c, 7, 52, 0
9, 13140, Note_on_c, 7, 50, 90
9, 13199, Note_on_c, 7, 50, 0
9, 13200, Note_on_c, 7, 57, 90
9, 13259, Note_on_c, 7, 57, 0
9, 13260, Note_on_c, 7, 54, 90
9, 13319, Note_on_c, 7, 54, 0
9, 13320, Note_on_c, 7, 52, 90
9, 13379, Note_on_c, 7, 52, 0
9, 13380, Note_on_c, 7, 50, 90
9, 13439, Note_on_c, 7, 50, 0
9, 13440, Note_on_c, 7, 57, 90
9, 13499, Note_on_c, 7, 57, 0
9, 13500, Note_on_c, 7, 55, 90
9, 13559, Note_on_c, 7, 55, 0
9, 13560, Note_on_c, 7, 57, 90
9, 13619, Note_on_c, 7, 57, 0
9, 13620, Note_on_c, 7, 54, 90
9, 13679, Note_on_c, 7, 54, 0
9, 13680, Note_on_c, 7, 59, 90
9, 13739, Note_on_c, 7, 59, 0
9, 13740, Note_on_c, 7, 55, 90
9, 13799, Note_on_c, 7, 55, 0
9, 13800, Note_on_c, 7, 52, 90
9, 13859, Note_on_c, 7, 52, 0
9, 13860, Note_on_c, 7, 55, 90
9, 13919, Note_on_c, 7, 55, 0
9, 13920, Note_on_c, 7, 57, 90
9, 13979, Note_on_c, 7, 57, 0
9, 13980, Note_on_c, 7, 54, 90
9, 14039, Note_on_c, 7, 54, 0
9, 14040, Note_on_c, 7, 50, 90
9, 14099, Note_on_c, 7, 50, 0
9, 14100, Note_on_c, 7, 54, 90
9, 14159, Note_on_c, 7, 54, 0
9, 14160, Note_on_c, 7, 55, 90
9, 14219, Note_on_c, 7, 55, 0
9, 14220, Note_on_c, 7, 52, 90
9, 14279, Note_on_c, 7, 52, 0
9, 14280, Note_on_c, 7, 49, 90
9, 14339, Note_on_c, 7, 49, 0
9, 14340, Note_on_c, 7, 47, 90
9, 14399, Note_on_c, 7, 47, 0
9, 14400, Note_on_c, 7, 46, 90
9, 14429, Note_on_c, 7, 46, 0
9, 14430, Note_on_c, 7, 54, 90
9, 14459, Note_on_c, 7, 54, 0
9, 14460, Note_on_c, 7, 59, 90
9, 14489, Note_on_c, 7, 59, 0
9, 14490, Note_on_c, 7, 52, 90
9, 14519, Note_on_c, 7, 52, 0
9, 14520, Note_on_c, 7, 54, 90
9, 14579, Note_on_c, 7, 54, 0
9, 14580, Note_on_c, 7, 42, 90
9, 14639, Note_on_c, 7, 42, 0
9, 14640, Note_on_c, 7, 47, 90
9, 14699, Note_on_c, 7, 47, 0
9, 14700, Note_on_c, 7, 49, 90
9, 14759, Note_on_c, 7, 49, 0
9, 14760, Note_on_c, 7, 50, 90
9, 14819, Note_on_c, 7, 50, 0
9, 14820, Note_on_c, 7, 47, 90
9, 14879, Note_on_c, 7, 47, 0
9, 14880, Note_on_c, 7, 52, 90
9, 14939, Note_on_c, 7, 52, 0
9, 14940, Note_on_c, 7, 55, 90
9, 14999, Note_on_c, 7, 55, 0
9, 15000, Note_on_c, 7, 57, 90
9, 15059, Note_on_c, 7, 57, 0
9, 15060, Note_on_c, 7, 45, 90
9, 15119, Note_on_c, 7, 45, 0
9, 15120, Note_on_c, 7, 50, 90
9, 15179, Note_on_c, 7, 50, 0
9, 15180, Note_on_c, 7, 52, 90
9, 15239, Note_on_c, 7, 52, 0
9, 15240, Note_on_c, 7, 54, 90
9, 15299, Note_on_c, 7, 54, 0
9, 15300, Note_on_c, 7, 50, 90
9, 15359, Note_on_c, 7, 50, 0
9, 15360, Note_on_c, 7, 55, 90
9, 15419, Note_on_c, 7, 55, 0
9, 15420, Note_on_c, 7, 54, 90
9, 15479, Note_on_c, 7, 54, 0
9, 15480, Note_on_c, 7, 52, 90
9, 15539, Note_on_c, 7, 52, 0
9, 15540, Note_on_c, 7, 55, 90
9, 15599, Note_on_c, 7, 55, 0
9, 15600, Note_on_c, 7, 57, 90
9, 15659, Note_on_c, 7, 57, 0
9, 15660, Note_on_c, 7, 55, 90
9, 15719, Note_on_c, 7, 55, 0
9, 15720, Note_on_c, 7, 54, 90
9, 15779, Note_on_c, 7, 54, 0
9, 15780, Note_on_c, 7, 57, 90
9, 15839, Note_on_c, 7, 57, 0
9, 15840, Note_on_c, 7, 59, 90
9, 15899, Note_on_c, 7, 59, 0
9, 15900, Note_on_c, 7, 57, 90
9, 15929, Note_on_c, 7, 57, 0
9, 15930, Note_on_c, 7, 55, 90
9, 15959, Note_on_c, 7, 55, 0
9, 15960, Note_on_c, 7, 57, 90
9, 16019, Note_on_c, 7, 57, 0
9, 16020, Note_on_c, 7, 45, 90
9, 16079, Note_on_c, 7, 45, 0
9, 16080, Note_on_c, 7, 50, 90
9, 16199, Note_on_c, 7, 50, 0
9, 16320, Note_on_c, 7, 43, 90
9, 16439, Note_on_c, 7, 43, 0
9, 16560, Note_on_c, 7, 43, 90
9, 16679, Note_on_c, 7, 43, 0
9, 16800, Note_on_c, 7, 45, 90
9, 16919, Note_on_c, 7, 45, 0
9, 17040, Note_on_c, 7, 47, 90
9, 17159, Note_on_c, 7, 47, 0
9, 17280, Note_on_c, 7, 48, 90
9, 17399, Note_on_c, 7, 48, 0
9, 17520, Note_on_c, 7, 48, 90
9, 17639, Note_on_c, 7, 48, 0
9, 17760, Note_on_c, 7, 47, 90
9, 17879, Note_on_c, 7, 47, 0
9, 18000, Note_on_c, 7, 52, 90
9, 18119, Note_on_c, 7, 52, 0
9, 18240, Note_on_c, 7, 45, 90
9, 18359, Note_on_c, 7, 45, 0
9, 18480, Note_on_c, 7, 48, 90
9, 18599, Note_on_c, 7, 48, 0
9, 18720, Note_on_c, 7, 47, 90
9, 18839, Note_on_c, 7, 47, 0
9, 18960, Note_on_c, 7, 42, 90
9, 19079, Note_on_c, 7, 42, 0
9, 19200, Note_on_c, 7, 43, 90
9, 19319, Note_on_c, 7, 43, 0
9, 19440, Note_on_c, 7, 44, 90
9, 19559, Note_on_c, 7, 44, 0
9, 19680, Note_on_c, 7, 46, 90
9, 19799, Note_on_c, 7, 46, 0
9, 19920, Note_on_c, 7, 47, 90
9, 20039, Note_on_c, 7, 47, 0
9, 20040, Note_on_c, 7, 49, 90
9, 20159, Note_on_c, 7, 49, 0
9, 20160, Note_on_c, 7, 50, 90
9, 20219, Note_on_c, 7, 50, 0
9, 20220, Note_on_c, 7, 55, 90
9, 20279, Note_on_c, 7, 55, 0
9, 20280, Note_on_c, 7, 57, 90
9, 20339, Note_on_c, 7, 57, 0
9, 20340, Note_on_c, 7, 45, 90
9, 20399, Note_on_c, 7, 45, 0
9, 20400, Note_on_c, 7, 50, 90
9, 20519, Note_on_c, 7, 50, 0
9, 20640, Note_on_c, 7, 48, 90
9, 20759, Note_on_c, 7, 48, 0
9, 20880, Note_on_c, 7, 47, 90
9, 20999, Note_on_c, 7, 47, 0
9, 21120, Note_on_c, 7, 52, 90
9, 21239, Note_on_c, 7, 52, 0
9, 21360, Note_on_c, 7, 45, 90
9, 21479, Note_on_c, 7, 45, 0
9, 21600, Note_on_c, 7, 50, 90
9, 21719, Note_on_c, 7, 50, 0
9, 21840, Note_on_c, 7, 48, 90
9, 21959, Note_on_c, 7, 48, 0
9, 22020, Note_on_c, 7, 48, 90
9, 22079, Note_on_c, 7, 48, 0
9, 22080, Note_on_c, 7, 46, 90
9, 22139, Note_on_c, 7, 46, 0
9, 22140, Note_on_c, 7, 48, 90
9, 22199, Note_on_c, 7, 48, 0
9, 22200, Note_on_c, 7, 50, 90
9, 22259, Note_on_c, 7, 50, 0
9, 22260, Note_on_c, 7, 38, 90
9, 22319, Note_on_c, 7, 38, 0
9, 22320, Note_on_c, 7, 43, 90
9, 22439, Note_on_c, 7, 43, 0
9, 22560, Note_on_c, 7, 41, 90
9, 22679, Note_on_c, 7, 41, 0
9, 22800, Note_on_c, 7, 40, 90
9, 22919, Note_on_c, 7, 40, 0
9, 23040, Note_on_c, 7, 38, 90
9, 23159, Note_on_c, 7, 38, 0
9, 23220, Note_on_c, 7, 43, 90
9, 23279, Note_on_c, 7, 43, 0
9, 23280, Note_on_c, 7, 48, 90
9, 23309, Note_on_c, 7, 48, 0
9, 23310, Note_on_c, 7, 47, 90
9, 23339, Note_on_c, 7, 47, 0
9, 23340, Note_on_c, 7, 45, 90
9, 23369, Note_on_c, 7, 45, 0
9, 23370, Note_on_c, 7, 43, 90
9, 23399, Note_on_c, 7, 43, 0
9, 23400, Note_on_c, 7, 50, 90
9, 23459, Note_on_c, 7, 50, 0
9, 23460, Note_on_c, 7, 38, 90
9, 23519, Note_on_c, 7, 38, 0
9, 23520, Note_on_c, 7, 43, 90
9, 23639, Note_on_c, 7, 43, 0
9, 23760, Note_on_c, 7, 43, 90
9, 23879, Note_on_c, 7, 43, 0
9, 24000, Note_on_c, 7, 43, 90
9, 24119, Note_on_c, 7, 43, 0
9, 24240, Note_on_c, 7, 45, 90
9, 24359, Note_on_c, 7, 45, 0
9, 24480, Note_on_c, 7, 47, 90
9, 24539, Note_on_c, 7, 47, 0
9, 24540, Note_on_c, 7, 48, 90
9, 24599, Note_on_c, 7, 48, 0
9, 24600, Note_on_c, 7, 50, 90
9, 24659, Note_on_c, 7, 50, 0
9, 24660, Note_on_c, 7, 47, 90
9, 24719, Note_on_c, 7, 47, 0
9, 24720, Note_on_c, 7, 52, 90
9, 24779, Note_on_c, 7, 52, 0
9, 24780, Note_on_c, 7, 48, 90
9, 24839, Note_on_c, 7, 48, 0
9, 24840, Note_on_c, 7, 50, 90
9, 24899, Note_on_c, 7, 50, 0
9, 24900, Note_on_c, 7, 38, 90
9, 24959, Note_on_c, 7, 38, 0
9, 24960, Note_on_c, 7, 43, 90
9, 25200, Note_on_c, 7, 43, 0
9, 25440, Note_on_c, 7, 48, 100
9, 26160, Note_on_c, 7, 48, 0
9, 26160, Note_on_c, 7, 52, 100
9, 26400, Note_on_c, 7, 52, 0
9, 26400, Note_on_c, 7, 53, 100
9, 26640, Note_on_c, 7, 53, 0
9, 26640, Note_on_c, 7, 50, 100
9, 27120, Note_on_c, 7, 50, 0
9, 27120, Note_on_c, 7, 47, 100
9, 27360, Note_on_c, 7, 47, 0
9, 27360, Note_on_c, 7, 48, 100
9, 27420, Note_on_c, 7, 48, 0
9, 27420, Note_on_c, 7, 50, 100
9, 27450, Note_on_c, 7, 50, 0
9, 27450, Note_on_c, 7, 52, 100
9, 27480, Note_on_c, 7, 52, 0
9, 27480, Note_on_c, 7, 53, 100
9, 27660, Note_on_c, 7, 53, 0
9, 27660, Note_on_c, 7, 52, 100
9, 27690, Note_on_c, 7, 52, 0
9, 27690, Note_on_c, 7, 53, 100
9, 27720, Note_on_c, 7, 53, 0
9, 27720, Note_on_c, 7, 55, 100
9, 27780, Note_on_c, 7, 55, 0
9, 27780, Note_on_c, 7, 52, 100
9, 27810, Note_on_c, 7, 52, 0
9, 27810, Note_on_c, 7, 55, 100
9, 27840, Note_on_c, 7, 55, 0
9, 27840, Note_on_c, 7, 57, 100
9, 27900, Note_on_c, 7, 57, 0
9, 27900, Note_on_c, 7, 55, 100
9, 27930, Note_on_c, 7, 55, 0
9, 27930, Note_on_c, 7, 53, 100
9, 27960, Note_on_c, 7, 53, 0
9, 27960, Note_on_c, 7, 55, 100
9, 28020, Note_on_c, 7, 55, 0
9, 28020, Note_on_c, 7, 43, 100
9, 28080, Note_on_c, 7, 43, 0
9, 28080, Note_on_c, 7, 36, 100
9, 28320, Note_on_c, 7, 36, 0
9, 28395, Control_c, 7, 0, 0
9, 28395, Control_c, 7, 0, 0
9, 28395, Control_c, 7, 0, 0
9, 28395, Program_c, 7, 45
9, 28440, Note_on_c, 7, 48, 100
9, 28500, Note_on_c, 7, 48, 0
9, 28620, Note_on_c, 7, 50, 100
9, 28680, Note_on_c, 7, 50, 0
9, 28800, Note_on_c, 7, 52, 100
9, 28860, Note_on_c, 7, 52, 0
9, 28920, Note_on_c, 7, 60, 100
9, 28980, Note_on_c, 7, 60, 0
9, 28980, Note_on_c, 7, 54, 100
9, 29040, Note_on_c, 7, 54, 0
9, 29160, Note_on_c, 7, 55, 100
9, 29220, Note_on_c, 7, 55, 0
9, 29340, Note_on_c, 7, 43, 100
9, 29400, Note_on_c, 7, 43, 0
9, 29520, Note_on_c, 7, 47, 100
9, 29580, Note_on_c, 7, 47, 0
9, 29700, Note_on_c, 7, 49, 100
9, 29760, Note_on_c, 7, 49, 0
9, 29880, Note_on_c, 7, 50, 100
9, 29940, Note_on_c, 7, 50, 0
9, 30060, Note_on_c, 7, 47, 100
9, 30120, Note_on_c, 7, 47, 0
9, 30240, Note_on_c, 7, 43, 100
9, 30300, Note_on_c, 7, 43, 0
9, 30420, Note_on_c, 7, 43, 100
9, 30480, Note_on_c, 7, 43, 0
9, 30600, Note_on_c, 7, 43, 100
9, 30660, Note_on_c, 7, 43, 0
9, 30780, Note_on_c, 7, 48, 100
9, 30840, Note_on_c, 7, 48, 0
9, 30960, Note_on_c, 7, 52, 100
9, 31020, Note_on_c, 7, 52, 0
9, 31020, Note_on_c, 7, 53, 100
9, 31050, Note_on_c, 7, 53, 0
9, 31050, Note_on_c, 7, 52, 100
9, 31080, Note_on_c, 7, 52, 0
9, 31080, Note_on_c, 7, 50, 100
9, 31110, Note_on_c, 7, 50, 0
9, 31110, Note_on_c, 7, 48, 100
9, 31140, Note_on_c, 7, 48, 0
9, 31140, Note_on_c, 7, 55, 100
9, 31200, Note_on_c, 7, 55, 0
9, 31200, Note_on_c, 7, 53, 100
9, 31260, Note_on_c, 7, 53, 0
9, 31260, Note_on_c, 7, 55, 100
9, 31320, Note_on_c, 7, 55, 0
9, 31320, Note_on_c, 7, 48, 100
9, 31500, Note_on_c, 7, 48, 0
9, 31680, Note_on_c, 7, 48, 100
9, 31740, Note_on_c, 7, 48, 0
9, 31860, Note_on_c, 7, 50, 100
9, 31920, Note_on_c, 7, 50, 0
9, 32040, Note_on_c, 7, 52, 100
9, 32100, Note_on_c, 7, 52, 0
9, 32160, Note_on_c, 7, 60, 100
9, 32220, Note_on_c, 7, 60, 0
9, 32220, Note_on_c, 7, 54, 100
9, 32280, Note_on_c, 7, 54, 0
9, 32400, Note_on_c, 7, 55, 100
9, 32460, Note_on_c, 7, 55, 0
9, 32580, Note_on_c, 7, 57, 100
9, 32640, Note_on_c, 7, 57, 0
9, 32760, Note_on_c, 7, 59, 100
9, 32820, Note_on_c, 7, 59, 0
9, 32940, Note_on_c, 7, 61, 100
9, 33000, Note_on_c, 7, 61, 0
9, 33120, Note_on_c, 7, 62, 100
9, 33180, Note_on_c, 7, 62, 0
9, 33300, Note_on_c, 7, 59, 100
9, 33360, Note_on_c, 7, 59, 0
9, 33480, Note_on_c, 7, 55, 100
9, 33540, Note_on_c, 7, 55, 0
9, 33660, Note_on_c, 7, 55, 100
9, 33720, Note_on_c, 7, 55, 0
9, 33840, Note_on_c, 7, 55, 100
9, 33900, Note_on_c, 7, 55, 0
9, 34020, Note_on_c, 7, 48, 100
9, 34080, Note_on_c, 7, 48, 0
9, 34140, Note_on_c, 7, 55, 100
9, 34200, Note_on_c, 7, 55, 0
9, 34200, Note_on_c, 7, 52, 100
9, 34260, Note_on_c, 7, 52, 0
9, 34260, Note_on_c, 7, 53, 100
9, 34290, Note_on_c, 7, 53, 0
9, 34290, Note_on_c, 7, 52, 100
9, 34320, Note_on_c, 7, 52, 0
9, 34320, Note_on_c, 7, 50, 100
9, 34350, Note_on_c, 7, 50, 0
9, 34350, Note_on_c, 7, 48, 100
9, 34380, Note_on_c, 7, 48, 0
9, 34380, Note_on_c, 7, 55, 100
9, 34440, Note_on_c, 7, 55, 0
9, 34440, Note_on_c, 7, 53, 100
9, 34500, Note_on_c, 7, 53, 0
9, 34500, Note_on_c, 7, 55, 100
9, 34560, Note_on_c, 7, 55, 0
9, 34560, Note_on_c, 7, 48, 100
9, 34620, Note_on_c, 7, 48, 0
9, 34740, Note_on_c, 7, 50, 100
9, 34800, Note_on_c, 7, 50, 0
9, 34920, Note_on_c, 7, 52, 100
9, 34980, Note_on_c, 7, 52, 0
9, 35100, Note_on_c, 7, 54, 100
9, 35160, Note_on_c, 7, 54, 0
9, 35280, Note_on_c, 7, 55, 100
9, 35340, Note_on_c, 7, 55, 0
9, 35460, Note_on_c, 7, 57, 100
9, 35520, Note_on_c, 7, 57, 0
9, 35640, Note_on_c, 7, 59, 100
9, 35700, Note_on_c, 7, 59, 0
9, 35820, Note_on_c, 7, 60, 100
9, 35880, Note_on_c, 7, 60, 0
9, 36000, Note_on_c, 7, 50, 100
9, 36060, Note_on_c, 7, 50, 0
9, 36180, Note_on_c, 7, 52, 100
9, 36240, Note_on_c, 7, 52, 0
9, 36360, Note_on_c, 7, 54, 100
9, 36420, Note_on_c, 7, 54, 0
9, 36480, Note_on_c, 7, 50, 100
9, 36540, Note_on_c, 7, 50, 0
9, 36540, Note_on_c, 7, 56, 100
9, 36600, Note_on_c, 7, 56, 0
9, 36660, Note_on_c, 7, 50, 100
9, 36720, Note_on_c, 7, 50, 0
9, 36720, Note_on_c, 7, 57, 100
9, 36780, Note_on_c, 7, 57, 0
9, 36900, Note_on_c, 7, 54, 100
9, 36960, Note_on_c, 7, 54, 0
9, 37080, Note_on_c, 7, 50, 100
9, 37140, Note_on_c, 7, 50, 0
9, 37260, Note_on_c, 7, 50, 100
9, 37320, Note_on_c, 7, 50, 0
9, 37440, Note_on_c, 7, 50, 100
9, 37500, Note_on_c, 7, 50, 0
9, 37620, Note_on_c, 7, 55, 100
9, 37680, Note_on_c, 7, 55, 0
9, 37680, Note_on_c, 7, 54, 90
9, 37709, Note_on_c, 7, 54, 0
9, 37710, Note_on_c, 7, 52, 90
9, 37739, Note_on_c, 7, 52, 0
9, 37740, Note_on_c, 7, 50, 90
9, 37769, Note_on_c, 7, 50, 0
9, 37770, Note_on_c, 7, 48, 90
9, 37799, Note_on_c, 7, 48, 0
9, 37800, Note_on_c, 7, 47, 100
9, 37860, Note_on_c, 7, 47, 0
9, 37860, Note_on_c, 7, 48, 90
9, 37889, Note_on_c, 7, 48, 0
9, 37890, Note_on_c, 7, 47, 90
9, 37919, Note_on_c, 7, 47, 0
9, 37920, Note_on_c, 7, 45, 90
9, 37949, Note_on_c, 7, 45, 0
9, 37950, Note_on_c, 7, 43, 90
9, 37979, Note_on_c, 7, 43, 0
9, 37980, Note_on_c, 7, 50, 90
9, 38039, Note_on_c, 7, 50, 0
9, 38040, Note_on_c, 7, 48, 90
9, 38099, Note_on_c, 7, 48, 0
9, 38100, Note_on_c, 7, 50, 90
9, 38159, Note_on_c, 7, 50, 0
9, 38160, Note_on_c, 7, 43, 90
9, 38219, Note_on_c, 7, 43, 0
9, 38340, Note_on_c, 7, 45, 90
9, 38399, Note_on_c, 7, 45, 0
9, 38520, Note_on_c, 7, 47, 90
9, 38579, Note_on_c, 7, 47, 0
9, 38700, Note_on_c, 7, 49, 90
9, 38759, Note_on_c, 7, 49, 0
9, 38880, Note_on_c, 7, 50, 90
9, 38939, Note_on_c, 7, 50, 0
9, 39000, Note_on_c, 7, 52, 90
9, 39059, Note_on_c, 7, 52, 0
9, 39060, Note_on_c, 7, 53, 90
9, 39119, Note_on_c, 7, 53, 0
9, 39180, Note_on_c, 7, 50, 90
9, 39239, Note_on_c, 7, 50, 0
9, 39240, Note_on_c, 7, 55, 90
9, 39299, Note_on_c, 7, 55, 0
9, 39420, Note_on_c, 7, 57, 90
9, 39479, Note_on_c, 7, 57, 0
9, 39600, Note_on_c, 7, 59, 90
9, 39659, Note_on_c, 7, 59, 0
9, 39720, Note_on_c, 7, 55, 90
9, 39779, Note_on_c, 7, 55, 0
9, 39780, Note_on_c, 7, 60, 90
9, 39839, Note_on_c, 7, 60, 0
9, 39900, Note_on_c, 7, 55, 90
9, 39959, Note_on_c, 7, 55, 0
9, 39960, Note_on_c, 7, 62, 90
9, 40019, Note_on_c, 7, 62, 0
9, 40140, Note_on_c, 7, 59, 90
9, 40199, Note_on_c, 7, 59, 0
9, 40320, Note_on_c, 7, 55, 90
9, 40379, Note_on_c, 7, 55, 0
9, 40500, Note_on_c, 7, 55, 90
9, 40559, Note_on_c, 7, 55, 0
9, 40680, Note_on_c, 7, 55, 90
9, 40739, Note_on_c, 7, 55, 0
9, 40860, Note_on_c, 7, 60, 90
9, 40919, Note_on_c, 7, 60, 0
9, 40920, Note_on_c, 7, 59, 90
9, 40949, Note_on_c, 7, 59, 0
9, 40950, Note_on_c, 7, 57, 90
9, 40979, Note_on_c, 7, 57, 0
9, 40980, Note_on_c, 7, 55, 90
9, 41009, Note_on_c, 7, 55, 0
9, 41010, Note_on_c, 7, 53, 90
9, 41039, Note_on_c, 7, 53, 0
9, 41040, Note_on_c, 7, 52, 90
9, 41099, Note_on_c, 7, 52, 0
9, 41100, Note_on_c, 7, 53, 90
9, 41129, Note_on_c, 7, 53, 0
9, 41130, Note_on_c, 7, 52, 90
9, 41159, Note_on_c, 7, 52, 0
9, 41160, Note_on_c, 7, 50, 90
9, 41189, Note_on_c, 7, 50, 0
9, 41190, Note_on_c, 7, 48, 90
9, 41219, Note_on_c, 7, 48, 0
9, 41220, Note_on_c, 7, 55, 90
9, 41279, Note_on_c, 7, 55, 0
9, 41280, Note_on_c, 7, 53, 90
9, 41339, Note_on_c, 7, 53, 0
9, 41340, Note_on_c, 7, 55, 90
9, 41399, Note_on_c, 7, 55, 0
9, 41400, Note_on_c, 7, 48, 90
9, 41459, Note_on_c, 7, 48, 0
9, 41580, Note_on_c, 7, 48, 90
9, 41639, Note_on_c, 7, 48, 0
9, 41760, Note_on_c, 7, 48, 90
9, 41819, Note_on_c, 7, 48, 0
9, 41940, Note_on_c, 7, 48, 90
9, 41999, Note_on_c, 7, 48, 0
9, 42120, Note_on_c, 7, 50, 90
9, 42179, Note_on_c, 7, 50, 0
9, 42300, Note_on_c, 7, 47, 90
9, 42359, Note_on_c, 7, 47, 0
9, 42480, Note_on_c, 7, 43, 90
9, 42539, Note_on_c, 7, 43, 0
9, 42660, Note_on_c, 7, 43, 90
9, 42719, Note_on_c, 7, 43, 0
9, 42840, Note_on_c, 7, 43, 90
9, 42899, Note_on_c, 7, 43, 0
9, 42960, Note_on_c, 7, 43, 90
9, 43019, Note_on_c, 7, 43, 0
9, 43020, Note_on_c, 7, 48, 90
9, 43079, Note_on_c, 7, 48, 0
9, 43200, Note_on_c, 7, 40, 90
9, 43259, Note_on_c, 7, 40, 0
9, 43260, Note_on_c, 7, 41, 90
9, 43289, Note_on_c, 7, 41, 0
9, 43290, Note_on_c, 7, 40, 90
9, 43319, Note_on_c, 7, 40, 0
9, 43320, Note_on_c, 7, 38, 90
9, 43349, Note_on_c, 7, 38, 0
9, 43350, Note_on_c, 7, 36, 90
9, 43379, Note_on_c, 7, 36, 0
9, 43380, Note_on_c, 7, 43, 90
9, 43439, Note_on_c, 7, 43, 0
9, 43440, Note_on_c, 7, 41, 90
9, 43499, Note_on_c, 7, 41, 0
9, 43500, Note_on_c, 7, 43, 90
9, 43559, Note_on_c, 7, 43, 0
9, 43560, Note_on_c, 7, 36, 90
9, 43739, Note_on_c, 7, 36, 0
9, 43920, Note_on_c, 7, 43, 90
9, 44040, Note_on_c, 7, 43, 0
9, 44040, Note_on_c, 7, 45, 90
9, 44100, Note_on_c, 7, 45, 0
9, 44100, Note_on_c, 7, 47, 90
9, 44160, Note_on_c, 7, 47, 0
9, 44220, Note_on_c, 7, 44, 90
9, 44279, Note_on_c, 7, 44, 0
9, 44280, Note_on_c, 7, 45, 90
9, 44339, Note_on_c, 7, 45, 0
9, 44460, Note_on_c, 7, 47, 90
9, 44519, Note_on_c, 7, 47, 0
9, 44640, Note_on_c, 7, 48, 90
9, 44699, Note_on_c, 7, 48, 0
9, 44820, Note_on_c, 7, 50, 90
9, 44879, Note_on_c, 7, 50, 0
9, 45000, Note_on_c, 7, 52, 90
9, 45059, Note_on_c, 7, 52, 0
9, 45180, Note_on_c, 7, 54, 90
9, 45239, Note_on_c, 7, 54, 0
9, 45360, Note_on_c, 7, 56, 90
9, 45419, Note_on_c, 7, 56, 0
9, 45480, Note_on_c, 7, 56, 90
9, 45539, Note_on_c, 7, 56, 0
9, 45540, Note_on_c, 7, 57, 90
9, 45599, Note_on_c, 7, 57, 0
9, 45720, Note_on_c, 7, 59, 90
9, 45779, Note_on_c, 7, 59, 0
9, 45900, Note_on_c, 7, 56, 90
9, 45959, Note_on_c, 7, 56, 0
9, 46080, Note_on_c, 7, 52, 90
9, 46139, Note_on_c, 7, 52, 0
9, 46260, Note_on_c, 7, 52, 90
9, 46319, Note_on_c, 7, 52, 0
9, 46440, Note_on_c, 7, 52, 90
9, 46499, Note_on_c, 7, 52, 0
9, 46620, Note_on_c, 7, 57, 90
9, 46679, Note_on_c, 7, 57, 0
9, 46740, Note_on_c, 7, 52, 90
9, 46799, Note_on_c, 7, 52, 0
9, 46800, Note_on_c, 7, 48, 90
9, 46859, Note_on_c, 7, 48, 0
9, 46860, Note_on_c, 7, 50, 90
9, 46889, Note_on_c, 7, 50, 0
9, 46890, Note_on_c, 7, 48, 90
9, 46919, Note_on_c, 7, 48, 0
9, 46920, Note_on_c, 7, 47, 90
9, 46949, Note_on_c, 7, 47, 0
9, 46950, Note_on_c, 7, 45, 90
9, 46979, Note_on_c, 7, 45, 0
9, 46980, Note_on_c, 7, 52, 90
9, 47039, Note_on_c, 7, 52, 0
9, 47040, Note_on_c, 7, 50, 90
9, 47099, Note_on_c, 7, 50, 0
9, 47100, Note_on_c, 7, 52, 90
9, 47159, Note_on_c, 7, 52, 0
9, 47160, Note_on_c, 7, 45, 90
9, 47219, Note_on_c, 7, 45, 0
9, 47340, Note_on_c, 7, 43, 90
9, 47399, Note_on_c, 7, 43, 0
9, 47520, Note_on_c, 7, 42, 90
9, 47579, Note_on_c, 7, 42, 0
9, 47700, Note_on_c, 7, 38, 90
9, 47759, Note_on_c, 7, 38, 0
9, 47880, Note_on_c, 7, 43, 90
9, 47939, Note_on_c, 7, 43, 0
9, 48000, Note_on_c, 7, 47, 90
9, 48059, Note_on_c, 7, 47, 0
9, 48060, Note_on_c, 7, 43, 90
9, 48119, Note_on_c, 7, 43, 0
9, 48180, Note_on_c, 7, 43, 90
9, 48239, Note_on_c, 7, 43, 0
9, 48240, Note_on_c, 7, 40, 90
9, 48299, Note_on_c, 7, 40, 0
9, 48420, Note_on_c, 7, 42, 90
9, 48479, Note_on_c, 7, 42, 0
9, 48600, Note_on_c, 7, 43, 90
9, 48659, Note_on_c, 7, 43, 0
9, 48720, Note_on_c, 7, 43, 90
9, 48779, Note_on_c, 7, 43, 0
9, 48780, Note_on_c, 7, 45, 90
9, 48839, Note_on_c, 7, 45, 0
9, 48960, Note_on_c, 7, 47, 90
9, 49019, Note_on_c, 7, 47, 0
9, 49140, Note_on_c, 7, 49, 90
9, 49199, Note_on_c, 7, 49, 0
9, 49320, Note_on_c, 7, 51, 90
9, 49379, Note_on_c, 7, 51, 0
9, 49500, Note_on_c, 7, 52, 90
9, 49559, Note_on_c, 7, 52, 0
9, 49680, Note_on_c, 7, 54, 90
9, 49739, Note_on_c, 7, 54, 0
9, 49860, Note_on_c, 7, 51, 90
9, 49919, Note_on_c, 7, 51, 0
9, 50040, Note_on_c, 7, 47, 90
9, 50099, Note_on_c, 7, 47, 0
9, 50220, Note_on_c, 7, 47, 90
9, 50279, Note_on_c, 7, 47, 0
9, 50400, Note_on_c, 7, 47, 90
9, 50459, Note_on_c, 7, 47, 0
9, 50580, Note_on_c, 7, 52, 90
9, 50639, Note_on_c, 7, 52, 0
9, 50700, Note_on_c, 7, 47, 90
9, 50759, Note_on_c, 7, 47, 0
9, 50760, Note_on_c, 7, 43, 90
9, 50819, Note_on_c, 7, 43, 0
9, 50820, Note_on_c, 7, 45, 90
9, 50849, Note_on_c, 7, 45, 0
9, 50850, Note_on_c, 7, 43, 90
9, 50879, Note_on_c, 7, 43, 0
9, 50880, Note_on_c, 7, 42, 90
9, 50909, Note_on_c, 7, 42, 0
9, 50910, Note_on_c, 7, 40, 90
9, 50939, Note_on_c, 7, 40, 0
9, 50940, Note_on_c, 7, 47, 90
9, 50999, Note_on_c, 7, 47, 0
9, 51000, Note_on_c, 7, 45, 90
9, 51059, Note_on_c, 7, 45, 0
9, 51060, Note_on_c, 7, 47, 90
9, 51119, Note_on_c, 7, 47, 0
9, 51120, Note_on_c, 7, 40, 90
9, 51299, Note_on_c, 7, 40, 0
9, 51480, Note_on_c, 7, 48, 100
9, 51540, Note_on_c, 7, 48, 0
9, 51660, Note_on_c, 7, 50, 100
9, 51720, Note_on_c, 7, 50, 0
9, 51840, Note_on_c, 7, 52, 100
9, 51900, Note_on_c, 7, 52, 0
9, 51960, Note_on_c, 7, 60, 100
9, 52020, Note_on_c, 7, 60, 0
9, 52020, Note_on_c, 7, 54, 100
9, 52080, Note_on_c, 7, 54, 0
9, 52200, Note_on_c, 7, 55, 100
9, 52260, Note_on_c, 7, 55, 0
9, 52380, Note_on_c, 7, 43, 100
9, 52440, Note_on_c, 7, 43, 0
9, 52560, Note_on_c, 7, 47, 100
9, 52620, Note_on_c, 7, 47, 0
9, 52740, Note_on_c, 7, 49, 100
9, 52800, Note_on_c, 7, 49, 0
9, 52920, Note_on_c, 7, 50, 100
9, 52980, Note_on_c, 7, 50, 0
9, 53100, Note_on_c, 7, 47, 100
9, 53160, Note_on_c, 7, 47, 0
9, 53280, Note_on_c, 7, 43, 100
9, 53340, Note_on_c, 7, 43, 0
9, 53460, Note_on_c, 7, 43, 100
9, 53520, Note_on_c, 7, 43, 0
9, 53640, Note_on_c, 7, 43, 100
9, 53700, Note_on_c, 7, 43, 0
9, 53820, Note_on_c, 7, 48, 100
9, 53880, Note_on_c, 7, 48, 0
9, 54000, Note_on_c, 7, 52, 100
9, 54060, Note_on_c, 7, 52, 0
9, 54060, Note_on_c, 7, 53, 100
9, 54090, Note_on_c, 7, 53, 0
9, 54090, Note_on_c, 7, 52, 100
9, 54120, Note_on_c, 7, 52, 0
9, 54120, Note_on_c, 7, 50, 100
9, 54150, Note_on_c, 7, 50, 0
9, 54150, Note_on_c, 7, 48, 100
9, 54180, Note_on_c, 7, 48, 0
9, 54180, Note_on_c, 7, 55, 100
9, 54240, Note_on_c, 7, 55, 0
9, 54240, Note_on_c, 7, 53, 100
9, 54300, Note_on_c, 7, 53, 0
9, 54300, Note_on_c, 7, 55, 100
9, 54360, Note_on_c, 7, 55, 0
9, 54360, Note_on_c, 7, 48, 100
9, 54540, Note_on_c, 7, 48, 0
9, 54720, Note_on_c, 7, 48, 100
9, 54780, Note_on_c, 7, 48, 0
9, 54900, Note_on_c, 7, 50, 100
9, 54960, Note_on_c, 7, 50, 0
9, 55080, Note_on_c, 7, 52, 100
9, 55140, Note_on_c, 7, 52, 0
9, 55200, Note_on_c, 7, 60, 100
9, 55260, Note_on_c, 7, 60, 0
9, 55260, Note_on_c, 7, 54, 100
9, 55320, Note_on_c, 7, 54, 0
9, 55440, Note_on_c, 7, 55, 100
9, 55500, Note_on_c, 7, 55, 0
9, 55620, Note_on_c, 7, 57, 100
9, 55680, Note_on_c, 7, 57, 0
9, 55800, Note_on_c, 7, 59, 100
9, 55860, Note_on_c, 7, 59, 0
9, 55980, Note_on_c, 7, 61, 100
9, 56040, Note_on_c, 7, 61, 0
9, 56160, Note_on_c, 7, 62, 100
9, 56220, Note_on_c, 7, 62, 0
9, 56340, Note_on_c, 7, 59, 100
9, 56400, Note_on_c, 7, 59, 0
9, 56520, Note_on_c, 7, 55, 100
9, 56580, Note_on_c, 7, 55, 0
9, 56700, Note_on_c, 7, 55, 100
9, 56760, Note_on_c, 7, 55, 0
9, 56880, Note_on_c, 7, 55, 100
9, 56940, Note_on_c, 7, 55, 0
9, 57060, Note_on_c, 7, 48, 100
9, 57120, Note_on_c, 7, 48, 0
9, 57180, Note_on_c, 7, 55, 100
9, 57240, Note_on_c, 7, 55, 0
9, 57240, Note_on_c, 7, 52, 100
9, 57300, Note_on_c, 7, 52, 0
9, 57300, Note_on_c, 7, 53, 100
9, 57330, Note_on_c, 7, 53, 0
9, 57330, Note_on_c, 7, 52, 100
9, 57360, Note_on_c, 7, 52, 0
9, 57360, Note_on_c, 7, 50, 100
9, 57390, Note_on_c, 7, 50, 0
9, 57390, Note_on_c, 7, 48, 100
9, 57420, Note_on_c, 7, 48, 0
9, 57420, Note_on_c, 7, 55, 100
9, 57480, Note_on_c, 7, 55, 0
9, 57480, Note_on_c, 7, 53, 100
9, 57540, Note_on_c, 7, 53, 0
9, 57540, Note_on_c, 7, 55, 100
9, 57600, Note_on_c, 7, 55, 0
9, 57600, Note_on_c, 7, 48, 100
9, 57660, Note_on_c, 7, 48, 0
9, 57780, Note_on_c, 7, 50, 100
9, 57840, Note_on_c, 7, 50, 0
9, 57960, Note_on_c, 7, 52, 100
9, 58020, Note_on_c, 7, 52, 0
9, 58140, Note_on_c, 7, 54, 100
9, 58200, Note_on_c, 7, 54, 0
9, 58320, Note_on_c, 7, 55, 100
9, 58380, Note_on_c, 7, 55, 0
9, 58500, Note_on_c, 7, 57, 100
9, 58560, Note_on_c, 7, 57, 0
9, 58680, Note_on_c, 7, 59, 100
9, 58740, Note_on_c, 7, 59, 0
9, 58860, Note_on_c, 7, 60, 100
9, 58920, Note_on_c, 7, 60, 0
9, 59040, Note_on_c, 7, 50, 100
9, 59100, Note_on_c, 7, 50, 0
9, 59220, Note_on_c, 7, 52, 100
9, 59280, Note_on_c, 7, 52, 0
9, 59400, Note_on_c, 7, 54, 100
9, 59460, Note_on_c, 7, 54, 0
9, 59520, Note_on_c, 7, 50, 100
9, 59580, Note_on_c, 7, 50, 0
9, 59580, Note_on_c, 7, 56, 100
9, 59640, Note_on_c, 7, 56, 0
9, 59700, Note_on_c, 7, 50, 100
9, 59760, Note_on_c, 7, 50, 0
9, 59760, Note_on_c, 7, 57, 100
9, 59820, Note_on_c, 7, 57, 0
9, 59940, Note_on_c, 7, 54, 100
9, 60000, Note_on_c, 7, 54, 0
9, 60120, Note_on_c, 7, 50, 100
9, 60180, Note_on_c, 7, 50, 0
9, 60300, Note_on_c, 7, 50, 100
9, 60360, Note_on_c, 7, 50, 0
9, 60480, Note_on_c, 7, 50, 100
9, 60540, Note_on_c, 7, 50, 0
9, 60660, Note_on_c, 7, 55, 100
9, 60720, Note_on_c, 7, 55, 0
9, 60720, Note_on_c, 7, 54, 90
9, 60749, Note_on_c, 7, 54, 0
9, 60750, Note_on_c, 7, 52, 90
9, 60779, Note_on_c, 7, 52, 0
9, 60780, Note_on_c, 7, 50, 90
9, 60809, Note_on_c, 7, 50, 0
9, 60810, Note_on_c, 7, 48, 90
9, 60839, Note_on_c, 7, 48, 0
9, 60840, Note_on_c, 7, 47, 100
9, 60900, Note_on_c, 7, 47, 0
9, 60900, Note_on_c, 7, 48, 90
9, 60929, Note_on_c, 7, 48, 0
9, 60930, Note_on_c, 7, 47, 90
9, 60959, Note_on_c, 7, 47, 0
9, 60960, Note_on_c, 7, 45, 90
9, 60989, Note_on_c, 7, 45, 0
9, 60990, Note_on_c, 7, 43, 90
9, 61019, Note_on_c, 7, 43, 0
9, 61020, Note_on_c, 7, 50, 90
9, 61079, Note_on_c, 7, 50, 0
9, 61080, Note_on_c, 7, 48, 90
9, 61139, Note_on_c, 7, 48, 0
9, 61140, Note_on_c, 7, 50, 90
9, 61199, Note_on_c, 7, 50, 0
9, 61200, Note_on_c, 7, 43, 90
9, 61259, Note_on_c, 7, 43, 0
9, 61380, Note_on_c, 7, 45, 90
9, 61439, Note_on_c, 7, 45, 0
9, 61560, Note_on_c, 7, 47, 90
9, 61619, Note_on_c, 7, 47, 0
9, 61740, Note_on_c, 7, 49, 90
9, 61799, Note_on_c, 7, 49, 0
9, 61920, Note_on_c, 7, 50, 90
9, 61979, Note_on_c, 7, 50, 0
9, 62040, Note_on_c, 7, 52, 90
9, 62099, Note_on_c, 7, 52, 0
9, 62100, Note_on_c, 7, 53, 90
9, 62159, Note_on_c, 7, 53, 0
9, 62220, Note_on_c, 7, 50, 90
9, 62279, Note_on_c, 7, 50, 0
9, 62280, Note_on_c, 7, 55, 90
9, 62339, Note_on_c, 7, 55, 0
9, 62460, Note_on_c, 7, 57, 90
9, 62519, Note_on_c, 7, 57, 0
9, 62640, Note_on_c, 7, 59, 90
9, 62699, Note_on_c, 7, 59, 0
9, 62760, Note_on_c, 7, 55, 90
9, 62819, Note_on_c, 7, 55, 0
9, 62820, Note_on_c, 7, 60, 90
9, 62879, Note_on_c, 7, 60, 0
9, 62940, Note_on_c, 7, 55, 90
9, 62999, Note_on_c, 7, 55, 0
9, 63000, Note_on_c, 7, 62, 90
9, 63059, Note_on_c, 7, 62, 0
9, 63180, Note_on_c, 7, 59, 90
9, 63239, Note_on_c, 7, 59, 0
9, 63360, Note_on_c, 7, 55, 90
9, 63419, Note_on_c, 7, 55, 0
9, 63540, Note_on_c, 7, 55, 90
9, 63599, Note_on_c, 7, 55, 0
9, 63720, Note_on_c, 7, 55, 90
9, 63779, Note_on_c, 7, 55, 0
9, 63900, Note_on_c, 7, 60, 90
9, 63959, Note_on_c, 7, 60, 0
9, 63960, Note_on_c, 7, 59, 90
9, 63989, Note_on_c, 7, 59, 0
9, 63990, Note_on_c, 7, 57, 90
9, 64019, Note_on_c, 7, 57, 0
9, 64020, Note_on_c, 7, 55, 90
9, 64049, Note_on_c, 7, 55, 0
9, 64050, Note_on_c, 7, 53, 90
9, 64079, Note_on_c, 7, 53, 0
9, 64080, Note_on_c, 7, 52, 90
9, 64139, Note_on_c, 7, 52, 0
9, 64140, Note_on_c, 7, 53, 90
9, 64169, Note_on_c, 7, 53, 0
9, 64170, Note_on_c, 7, 52, 90
9, 64199, Note_on_c, 7, 52, 0
9, 64200, Note_on_c, 7, 50, 90
9, 64229, Note_on_c, 7, 50, 0
9, 64230, Note_on_c, 7, 48, 90
9, 64259, Note_on_c, 7, 48, 0
9, 64260, Note_on_c, 7, 55, 90
9, 64319, Note_on_c, 7, 55, 0
9, 64320, Note_on_c, 7, 53, 90
9, 64379, Note_on_c, 7, 53, 0
9, 64380, Note_on_c, 7, 55, 90
9, 64439, Note_on_c, 7, 55, 0
9, 64440, Note_on_c, 7, 48, 90
9, 64499, Note_on_c, 7, 48, 0
9, 64620, Note_on_c, 7, 48, 90
9, 64679, Note_on_c, 7, 48, 0
9, 64800, Note_on_c, 7, 48, 90
9, 64859, Note_on_c, 7, 48, 0
9, 64980, Note_on_c, 7, 48, 90
9, 65039, Note_on_c, 7, 48, 0
9, 65160, Note_on_c, 7, 50, 90
9, 65219, Note_on_c, 7, 50, 0
9, 65340, Note_on_c, 7, 47, 90
9, 65399, Note_on_c, 7, 47, 0
9, 65520, Note_on_c, 7, 43, 90
9, 65579, Note_on_c, 7, 43, 0
9, 65700, Note_on_c, 7, 43, 90
9, 65759, Note_on_c, 7, 43, 0
9, 65880, Note_on_c, 7, 43, 90
9, 65939, Note_on_c, 7, 43, 0
9, 66000, Note_on_c, 7, 43, 90
9, 66059, Note_on_c, 7, 43, 0
9, 66060, Note_on_c, 7, 48, 90
9, 66119, Note_on_c, 7, 48, 0
9, 66240, Note_on_c, 7, 40, 90
9, 66299, Note_on_c, 7, 40, 0
9, 66300, Note_on_c, 7, 41, 90
9, 66329, Note_on_c, 7, 41, 0
9, 66330, Note_on_c, 7, 40, 90
9, 66359, Note_on_c, 7, 40, 0
9, 66360, Note_on_c, 7, 38, 90
9, 66389, Note_on_c, 7, 38, 0
9, 66390, Note_on_c, 7, 36, 90
9, 66419, Note_on_c, 7, 36, 0
9, 66420, Note_on_c, 7, 43, 90
9, 66479, Note_on_c, 7, 43, 0
9, 66480, Note_on_c, 7, 41, 90
9, 66539, Note_on_c, 7, 41, 0
9, 66540, Note_on_c, 7, 43, 90
9, 66599, Note_on_c, 7, 43, 0
9, 66600, Note_on_c, 7, 36, 90
9, 66779, Note_on_c, 7, 36, 0
9, 66780, Control_c, 7, 0, 100
9, 66780, Control_c, 7, 0, 100
9, 66780, Control_c, 7, 0, 100
9, 66780, Program_c, 7, 42
9, 66960, Note_on_c, 7, 44, 90
9, 67439, Note_on_c, 7, 44, 0
9, 67440, Note_on_c, 7, 45, 90
9, 67679, Note_on_c, 7, 45, 0
9, 67680, Note_on_c, 7, 43, 90
9, 67919, Note_on_c, 7, 43, 0
9, 67920, Note_on_c, 7, 49, 90
9, 68159, Note_on_c, 7, 49, 0
9, 68160, Note_on_c, 7, 50, 90
9, 68639, Note_on_c, 7, 50, 0
9, 68640, Note_on_c, 7, 43, 90
9, 68879, Note_on_c, 7, 43, 0
9, 69060, Note_on_c, 7, 47, 90
9, 69119, Note_on_c, 7, 47, 0
9, 69120, Note_on_c, 7, 52, 90
9, 69179, Note_on_c, 7, 52, 0
9, 69180, Note_on_c, 7, 51, 90
9, 69239, Note_on_c, 7, 51, 0
9, 69240, Note_on_c, 7, 52, 90
9, 69299, Note_on_c, 7, 52, 0
9, 69300, Note_on_c, 7, 54, 90
9, 69359, Note_on_c, 7, 54, 0
9, 69360, Note_on_c, 7, 55, 90
9, 69419, Note_on_c, 7, 55, 0
9, 69420, Note_on_c, 7, 54, 90
9, 69479, Note_on_c, 7, 54, 0
9, 69480, Note_on_c, 7, 52, 90
9, 69539, Note_on_c, 7, 52, 0
9, 69540, Note_on_c, 7, 51, 90
9, 69599, Note_on_c, 7, 51, 0
9, 69600, Note_on_c, 7, 49, 90
9, 69659, Note_on_c, 7, 49, 0
9, 69660, Note_on_c, 7, 51, 90
9, 69719, Note_on_c, 7, 51, 0
9, 69720, Note_on_c, 7, 52, 90
9, 69779, Note_on_c, 7, 52, 0
9, 69780, Note_on_c, 7, 54, 90
9, 69839, Note_on_c, 7, 54, 0
9, 69840, Note_on_c, 7, 55, 90
9, 69899, Note_on_c, 7, 55, 0
9, 69900, Note_on_c, 7, 54, 90
9, 69959, Note_on_c, 7, 54, 0
9, 69960, Note_on_c, 7, 55, 90
9, 70019, Note_on_c, 7, 55, 0
9, 70020, Note_on_c, 7, 57, 90
9, 70079, Note_on_c, 7, 57, 0
9, 70080, Note_on_c, 7, 59, 90
9, 70139, Note_on_c, 7, 59, 0
9, 70140, Note_on_c, 7, 57, 90
9, 70199, Note_on_c, 7, 57, 0
9, 70200, Note_on_c, 7, 55, 90
9, 70259, Note_on_c, 7, 55, 0
9, 70260, Note_on_c, 7, 54, 90
9, 70319, Note_on_c, 7, 54, 0
9, 70320, Note_on_c, 7, 55, 90
9, 70379, Note_on_c, 7, 55, 0
9, 70380, Note_on_c, 7, 57, 90
9, 70439, Note_on_c, 7, 57, 0
9, 70440, Note_on_c, 7, 59, 90
9, 70499, Note_on_c, 7, 59, 0
9, 70500, Note_on_c, 7, 57, 90
9, 70559, Note_on_c, 7, 57, 0
9, 70560, Note_on_c, 7, 55, 90
9, 70619, Note_on_c, 7, 55, 0
9, 70620, Note_on_c, 7, 54, 90
9, 70679, Note_on_c, 7, 54, 0
9, 70680, Note_on_c, 7, 52, 90
9, 70739, Note_on_c, 7, 52, 0
9, 70740, Note_on_c, 7, 50, 90
9, 70799, Note_on_c, 7, 50, 0
9, 70800, Note_on_c, 7, 48, 90
9, 70859, Note_on_c, 7, 48, 0
9, 70860, Note_on_c, 7, 47, 90
9, 70919, Note_on_c, 7, 47, 0
9, 70920, Note_on_c, 7, 45, 90
9, 70979, Note_on_c, 7, 45, 0
9, 70980, Note_on_c, 7, 47, 90
9, 71039, Note_on_c, 7, 47, 0
9, 71040, Note_on_c, 7, 40, 90
9, 71279, Note_on_c, 7, 40, 0
9, 71280, Note_on_c, 7, 52, 90
9, 71339, Note_on_c, 7, 52, 0
9, 71340, Note_on_c, 7, 54, 90
9, 71399, Note_on_c, 7, 54, 0
9, 71400, Note_on_c, 7, 55, 90
9, 71459, Note_on_c, 7, 55, 0
9, 71460, Note_on_c, 7, 52, 90
9, 71519, Note_on_c, 7, 52, 0
9, 71520, Note_on_c, 7, 57, 90
9, 71579, Note_on_c, 7, 57, 0
9, 71580, Note_on_c, 7, 55, 90
9, 71639, Note_on_c, 7, 55, 0
9, 71640, Note_on_c, 7, 54, 90
9, 71699, Note_on_c, 7, 54, 0
9, 71700, Note_on_c, 7, 50, 90
9, 71759, Note_on_c, 7, 50, 0
9, 71760, Note_on_c, 7, 55, 90
9, 71819, Note_on_c, 7, 55, 0
9, 71820, Note_on_c, 7, 54, 90
9, 71879, Note_on_c, 7, 54, 0
9, 71880, Note_on_c, 7, 52, 90
9, 71939, Note_on_c, 7, 52, 0
9, 71940, Note_on_c, 7, 50, 90
9, 71999, Note_on_c, 7, 50, 0
9, 72000, Note_on_c, 7, 48, 90
9, 72059, Note_on_c, 7, 48, 0
9, 72060, Note_on_c, 7, 47, 90
9, 72119, Note_on_c, 7, 47, 0
9, 72120, Note_on_c, 7, 45, 90
9, 72179, Note_on_c, 7, 45, 0
9, 72180, Note_on_c, 7, 42, 90
9, 72239, Note_on_c, 7, 42, 0
9, 72240, Note_on_c, 7, 47, 90
9, 72359, Note_on_c, 7, 47, 0
9, 72480, Note_on_c, 7, 45, 90
9, 72599, Note_on_c, 7, 45, 0
9, 72720, Note_on_c, 7, 43, 90
9, 72839, Note_on_c, 7, 43, 0
9, 72960, Note_on_c, 7, 42, 90
9, 73079, Note_on_c, 7, 42, 0
9, 73200, Note_on_c, 7, 40, 90
9, 73259, Note_on_c, 7, 40, 0
9, 73260, Note_on_c, 7, 42, 90
9, 73319, Note_on_c, 7, 42, 0
9, 73320, Note_on_c, 7, 43, 90
9, 73379, Note_on_c, 7, 43, 0
9, 73380, Note_on_c, 7, 40, 90
9, 73439, Note_on_c, 7, 40, 0
9, 73440, Note_on_c, 7, 45, 90
9, 73499, Note_on_c, 7, 45, 0
9, 73500, Note_on_c, 7, 47, 90
9, 73559, Note_on_c, 7, 47, 0
9, 73560, Note_on_c, 7, 48, 90
9, 73619, Note_on_c, 7, 48, 0
9, 73620, Note_on_c, 7, 45, 90
9, 73679, Note_on_c, 7, 45, 0
9, 73680, Note_on_c, 7, 47, 90
9, 73739, Note_on_c, 7, 47, 0
9, 73740, Note_on_c, 7, 51, 90
9, 73799, Note_on_c, 7, 51, 0
9, 73800, Note_on_c, 7, 52, 90
9, 73859, Note_on_c, 7, 52, 0
9, 73860, Note_on_c, 7, 55, 90
9, 73919, Note_on_c, 7, 55, 0
9, 73920, Note_on_c, 7, 60, 90
9, 73979, Note_on_c, 7, 60, 0
9, 73980, Note_on_c, 7, 57, 90
9, 74039, Note_on_c, 7, 57, 0
9, 74040, Note_on_c, 7, 59, 90
9, 74099, Note_on_c, 7, 59, 0
9, 74100, Note_on_c, 7, 47, 90
9, 74159, Note_on_c, 7, 47, 0
9, 74160, Note_on_c, 7, 52, 90
9, 74219, Note_on_c, 7, 52, 0
9, 74220, Note_on_c, 7, 54, 90
9, 74279, Note_on_c, 7, 54, 0
9, 74280, Note_on_c, 7, 55, 90
9, 74339, Note_on_c, 7, 55, 0
9, 74340, Note_on_c, 7, 52, 90
9, 74399, Note_on_c, 7, 52, 0
9, 74400, Note_on_c, 7, 57, 90
9, 74459, Note_on_c, 7, 57, 0
9, 74460, Note_on_c, 7, 55, 90
9, 74519, Note_on_c, 7, 55, 0
9, 74520, Note_on_c, 7, 54, 90
9, 74579, Note_on_c, 7, 54, 0
9, 74580, Note_on_c, 7, 50, 90
9, 74639, Note_on_c, 7, 50, 0
9, 74640, Note_on_c, 7, 55, 90
9, 74699, Note_on_c, 7, 55, 0
9, 74700, Note_on_c, 7, 54, 90
9, 74759, Note_on_c, 7, 54, 0
9, 74760, Note_on_c, 7, 52, 90
9, 74819, Note_on_c, 7, 52, 0
9, 74820, Note_on_c, 7, 50, 90
9, 74879, Note_on_c, 7, 50, 0
9, 74880, Note_on_c, 7, 48, 90
9, 74939, Note_on_c, 7, 48, 0
9, 74940, Note_on_c, 7, 47, 90
9, 74999, Note_on_c, 7, 47, 0
9, 75000, Note_on_c, 7, 48, 90
9, 75059, Note_on_c, 7, 48, 0
9, 75060, Note_on_c, 7, 45, 90
9, 75119, Note_on_c, 7, 45, 0
9, 75120, Note_on_c, 7, 47, 90
9, 75239, Note_on_c, 7, 47, 0
9, 75360, Note_on_c, 7, 45, 90
9, 75479, Note_on_c, 7, 45, 0
9, 75600, Note_on_c, 7, 43, 90
9, 75719, Note_on_c, 7, 43, 0
9, 75840, Note_on_c, 7, 42, 90
9, 75959, Note_on_c, 7, 42, 0
9, 76080, Note_on_c, 7, 52, 90
9, 76139, Note_on_c, 7, 52, 0
9, 76140, Note_on_c, 7, 54, 90
9, 76199, Note_on_c, 7, 54, 0
9, 76200, Note_on_c, 7, 55, 90
9, 76259, Note_on_c, 7, 55, 0
9, 76260, Note_on_c, 7, 52, 90
9, 76319, Note_on_c, 7, 52, 0
9, 76320, Note_on_c, 7, 57, 90
9, 76379, Note_on_c, 7, 57, 0
9, 76380, Note_on_c, 7, 55, 90
9, 76439, Note_on_c, 7, 55, 0
9, 76440, Note_on_c, 7, 54, 90
9, 76499, Note_on_c, 7, 54, 0
9, 76500, Note_on_c, 7, 50, 90
9, 76559, Note_on_c, 7, 50, 0
9, 76560, Note_on_c, 7, 55, 90
9, 76619, Note_on_c, 7, 55, 0
9, 76620, Note_on_c, 7, 54, 90
9, 76679, Note_on_c, 7, 54, 0
9, 76680, Note_on_c, 7, 52, 90
9, 76739, Note_on_c, 7, 52, 0
9, 76740, Note_on_c, 7, 50, 90
9, 76799, Note_on_c, 7, 50, 0
9, 76800, Note_on_c, 7, 48, 90
9, 76859, Note_on_c, 7, 48, 0
9, 76860, Note_on_c, 7, 47, 90
9, 76919, Note_on_c, 7, 47, 0
9, 76920, Note_on_c, 7, 48, 90
9, 76979, Note_on_c, 7, 48, 0
9, 76980, Note_on_c, 7, 45, 90
9, 77039, Note_on_c, 7, 45, 0
9, 77040, Note_on_c, 7, 47, 90
9, 77099, Note_on_c, 7, 47, 0
9, 77100, Note_on_c, 7, 48, 90
9, 77159, Note_on_c, 7, 48, 0
9, 77160, Note_on_c, 7, 47, 90
9, 77219, Note_on_c, 7, 47, 0
9, 77220, Note_on_c, 7, 45, 90
9, 77279, Note_on_c, 7, 45, 0
9, 77280, Note_on_c, 7, 44, 90
9, 77339, Note_on_c, 7, 44, 0
9, 77340, Note_on_c, 7, 42, 90
9, 77399, Note_on_c, 7, 42, 0
9, 77400, Note_on_c, 7, 44, 90
9, 77459, Note_on_c, 7, 44, 0
9, 77460, Note_on_c, 7, 40, 90
9, 77519, Note_on_c, 7, 40, 0
9, 77520, Note_on_c, 7, 45, 90
9, 77579, Note_on_c, 7, 45, 0
9, 77580, Note_on_c, 7, 47, 90
9, 77639, Note_on_c, 7, 47, 0
9, 77640, Note_on_c, 7, 48, 90
9, 77699, Note_on_c, 7, 48, 0
9, 77700, Note_on_c, 7, 45, 90
9, 77759, Note_on_c, 7, 45, 0
9, 77760, Note_on_c, 7, 50, 90
9, 77819, Note_on_c, 7, 50, 0
9, 77820, Note_on_c, 7, 48, 90
9, 77879, Note_on_c, 7, 48, 0
9, 77880, Note_on_c, 7, 47, 90
9, 77939, Note_on_c, 7, 47, 0
9, 77940, Note_on_c, 7, 45, 90
9, 77999, Note_on_c, 7, 45, 0
9, 78000, Note_on_c, 7, 43, 90
9, 78059, Note_on_c, 7, 43, 0
9, 78060, Note_on_c, 7, 48, 90
9, 78119, Note_on_c, 7, 48, 0
9, 78120, Note_on_c, 7, 50, 90
9, 78179, Note_on_c, 7, 50, 0
9, 78180, Note_on_c, 7, 38, 90
9, 78239, Note_on_c, 7, 38, 0
9, 78240, Note_on_c, 7, 43, 90
9, 78299, Note_on_c, 7, 43, 0
9, 78300, Note_on_c, 7, 45, 90
9, 78359, Note_on_c, 7, 45, 0
9, 78360, Note_on_c, 7, 47, 90
9, 78419, Note_on_c, 7, 47, 0
9, 78420, Note_on_c, 7, 43, 90
9, 78479, Note_on_c, 7, 43, 0
9, 78480, Note_on_c, 7, 42, 90
9, 78539, Note_on_c, 7, 42, 0
9, 78540, Note_on_c, 7, 50, 90
9, 78599, Note_on_c, 7, 50, 0
9, 78600, Note_on_c, 7, 55, 90
9, 78659, Note_on_c, 7, 55, 0
9, 78660, Note_on_c, 7, 59, 90
9, 78719, Note_on_c, 7, 59, 0
9, 78720, Note_on_c, 7, 54, 90
9, 78779, Note_on_c, 7, 54, 0
9, 78780, Note_on_c, 7, 52, 90
9, 78809, Note_on_c, 7, 52, 0
9, 78810, Note_on_c, 7, 50, 90
9, 78839, Note_on_c, 7, 50, 0
9, 78840, Note_on_c, 7, 55, 90
9, 78899, Note_on_c, 7, 55, 0
9, 78900, Note_on_c, 7, 59, 90
9, 78959, Note_on_c, 7, 59, 0
9, 78960, Note_on_c, 7, 54, 90
9, 79019, Note_on_c, 7, 54, 0
9, 79020, Note_on_c, 7, 52, 90
9, 79049, Note_on_c, 7, 52, 0
9, 79050, Note_on_c, 7, 50, 90
9, 79079, Note_on_c, 7, 50, 0
9, 79080, Note_on_c, 7, 55, 90
9, 79139, Note_on_c, 7, 55, 0
9, 79140, Note_on_c, 7, 59, 90
9, 79199, Note_on_c, 7, 59, 0
9, 79200, Note_on_c, 7, 54, 90
9, 79259, Note_on_c, 7, 54, 0
9, 79260, Note_on_c, 7, 52, 90
9, 79289, Note_on_c, 7, 52, 0
9, 79290, Note_on_c, 7, 50, 90
9, 79319, Note_on_c, 7, 50, 0
9, 79320, Note_on_c, 7, 55, 90
9, 79379, Note_on_c, 7, 55, 0
9, 79380, Note_on_c, 7, 59, 90
9, 79439, Note_on_c, 7, 59, 0
9, 79440, Note_on_c, 7, 49, 90
9, 79499, Note_on_c, 7, 49, 0
9, 79500, Note_on_c, 7, 50, 90
9, 79559, Note_on_c, 7, 50, 0
9, 79560, Note_on_c, 7, 52, 90
9, 79619, Note_on_c, 7, 52, 0
9, 79620, Note_on_c, 7, 49, 90
9, 79679, Note_on_c, 7, 49, 0
9, 79680, Note_on_c, 7, 54, 90
9, 79739, Note_on_c, 7, 54, 0
9, 79740, Note_on_c, 7, 50, 90
9, 79799, Note_on_c, 7, 50, 0
9, 79800, Note_on_c, 7, 52, 90
9, 79859, Note_on_c, 7, 52, 0
9, 79860, Note_on_c, 7, 54, 90
9, 79919, Note_on_c, 7, 54, 0
9, 79920, Note_on_c, 7, 47, 90
9, 79979, Note_on_c, 7, 47, 0
9, 79980, Note_on_c, 7, 49, 90
9, 80039, Note_on_c, 7, 49, 0
9, 80040, Note_on_c, 7, 50, 90
9, 80099, Note_on_c, 7, 50, 0
9, 80100, Note_on_c, 7, 47, 90
9, 80159, Note_on_c, 7, 47, 0
9, 80160, Note_on_c, 7, 52, 90
9, 80219, Note_on_c, 7, 52, 0
9, 80220, Note_on_c, 7, 54, 90
9, 80279, Note_on_c, 7, 54, 0
9, 80280, Note_on_c, 7, 55, 90
9, 80339, Note_on_c, 7, 55, 0
9, 80340, Note_on_c, 7, 52, 90
9, 80399, Note_on_c, 7, 52, 0
9, 80400, Note_on_c, 7, 54, 90
9, 80519, Note_on_c, 7, 54, 0
9, 80580, Note_on_c, 7, 54, 90
9, 80639, Note_on_c, 7, 54, 0
9, 80640, Note_on_c, 7, 59, 90
9, 80699, Note_on_c, 7, 59, 0
9, 80700, Note_on_c, 7, 52, 90
9, 80759, Note_on_c, 7, 52, 0
9, 80760, Note_on_c, 7, 54, 90
9, 80819, Note_on_c, 7, 54, 0
9, 80820, Note_on_c, 7, 42, 90
9, 80879, Note_on_c, 7, 42, 0
9, 80880, Note_on_c, 7, 47, 90
9, 80939, Note_on_c, 7, 47, 0
9, 80940, Note_on_c, 7, 49, 90
9, 80999, Note_on_c, 7, 49, 0
9, 81000, Note_on_c, 7, 50, 90
9, 81059, Note_on_c, 7, 50, 0
9, 81060, Note_on_c, 7, 47, 90
9, 81119, Note_on_c, 7, 47, 0
9, 81120, Note_on_c, 7, 52, 90
9, 81179, Note_on_c, 7, 52, 0
9, 81180, Note_on_c, 7, 50, 90
9, 81239, Note_on_c, 7, 50, 0
9, 81240, Note_on_c, 7, 49, 90
9, 81299, Note_on_c, 7, 49, 0
9, 81300, Note_on_c, 7, 45, 90
9, 81359, Note_on_c, 7, 45, 0
9, 81360, Note_on_c, 7, 50, 90
9, 81419, Note_on_c, 7, 50, 0
9, 81420, Note_on_c, 7, 49, 90
9, 81479, Note_on_c, 7, 49, 0
9, 81480, Note_on_c, 7, 47, 90
9, 81539, Note_on_c, 7, 47, 0
9, 81540, Note_on_c, 7, 45, 90
9, 81599, Note_on_c, 7, 45, 0
9, 81600, Note_on_c, 7, 43, 90
9, 81659, Note_on_c, 7, 43, 0
9, 81660, Note_on_c, 7, 42, 90
9, 81719, Note_on_c, 7, 42, 0
9, 81720, Note_on_c, 7, 40, 90
9, 81779, Note_on_c, 7, 40, 0
9, 81780, Note_on_c, 7, 49, 90
9, 81839, Note_on_c, 7, 49, 0
9, 81840, Note_on_c, 7, 54, 90
9, 81959, Note_on_c, 7, 54, 0
9, 82080, Note_on_c, 7, 52, 90
9, 82199, Note_on_c, 7, 52, 0
9, 82320, Note_on_c, 7, 50, 90
9, 82439, Note_on_c, 7, 50, 0
9, 82560, Note_on_c, 7, 49, 90
9, 82679, Note_on_c, 7, 49, 0
9, 82800, Note_on_c, 7, 47, 90
9, 82859, Note_on_c, 7, 47, 0
9, 82860, Note_on_c, 7, 49, 90
9, 82919, Note_on_c, 7, 49, 0
9, 82920, Note_on_c, 7, 50, 90
9, 82979, Note_on_c, 7, 50, 0
9, 82980, Note_on_c, 7, 47, 90
9, 83039, Note_on_c, 7, 47, 0
9, 83040, Note_on_c, 7, 52, 90
9, 83099, Note_on_c, 7, 52, 0
9, 83100, Note_on_c, 7, 54, 90
9, 83159, Note_on_c, 7, 54, 0
9, 83160, Note_on_c, 7, 55, 90
9, 83219, Note_on_c, 7, 55, 0
9, 83220, Note_on_c, 7, 52, 90
9, 83279, Note_on_c, 7, 52, 0
9, 83280, Note_on_c, 7, 49, 90
9, 83339, Note_on_c, 7, 49, 0
9, 83340, Note_on_c, 7, 47, 90
9, 83399, Note_on_c, 7, 47, 0
9, 83400, Note_on_c, 7, 49, 90
9, 83459, Note_on_c, 7, 49, 0
9, 83460, Note_on_c, 7, 45, 90
9, 83519, Note_on_c, 7, 45, 0
9, 83520, Note_on_c, 7, 50, 90
9, 83579, Note_on_c, 7, 50, 0
9, 83580, Note_on_c, 7, 52, 90
9, 83639, Note_on_c, 7, 52, 0
9, 83640, Note_on_c, 7, 54, 90
9, 83699, Note_on_c, 7, 54, 0
9, 83700, Note_on_c, 7, 49, 90
9, 83759, Note_on_c, 7, 49, 0
9, 83760, Note_on_c, 7, 50, 90
9, 83819, Note_on_c, 7, 50, 0
9, 83820, Note_on_c, 7, 52, 90
9, 83879, Note_on_c, 7, 52, 0
9, 83880, Note_on_c, 7, 54, 90
9, 83939, Note_on_c, 7, 54, 0
9, 83940, Note_on_c, 7, 49, 90
9, 83999, Note_on_c, 7, 49, 0
9, 84000, Note_on_c, 7, 50, 90
9, 84059, Note_on_c, 7, 50, 0
9, 84060, Note_on_c, 7, 57, 90
9, 84119, Note_on_c, 7, 57, 0
9, 84120, Note_on_c, 7, 62, 90
9, 84179, Note_on_c, 7, 62, 0
9, 84180, Note_on_c, 7, 60, 90
9, 84239, Note_on_c, 7, 60, 0
9, 84240, Note_on_c, 7, 59, 90
9, 84299, Note_on_c, 7, 59, 0
9, 84300, Note_on_c, 7, 57, 90
9, 84359, Note_on_c, 7, 57, 0
9, 84360, Note_on_c, 7, 59, 90
9, 84419, Note_on_c, 7, 59, 0
9, 84420, Note_on_c, 7, 55, 90
9, 84479, Note_on_c, 7, 55, 0
9, 84480, Note_on_c, 7, 57, 90
9, 84539, Note_on_c, 7, 57, 0
9, 84540, Note_on_c, 7, 55, 90
9, 84599, Note_on_c, 7, 55, 0
9, 84600, Note_on_c, 7, 57, 90
9, 84659, Note_on_c, 7, 57, 0
9, 84660, Note_on_c, 7, 45, 90
9, 84719, Note_on_c, 7, 45, 0
9, 84720, Note_on_c, 7, 50, 90
9, 84779, Note_on_c, 7, 50, 0
9, 84780, Note_on_c, 7, 52, 90
9, 84839, Note_on_c, 7, 52, 0
9, 84840, Note_on_c, 7, 54, 90
9, 84899, Note_on_c, 7, 54, 0
9, 84900, Note_on_c, 7, 50, 90
9, 84959, Note_on_c, 7, 50, 0
9, 84960, Note_on_c, 7, 49, 90
9, 85019, Note_on_c, 7, 49, 0
9, 85020, Note_on_c, 7, 45, 90
9, 85079, Note_on_c, 7, 45, 0
9, 85080, Note_on_c, 7, 50, 90
9, 85139, Note_on_c, 7, 50, 0
9, 85140, Note_on_c, 7, 54, 90
9, 85199, Note_on_c, 7, 54, 0
9, 85200, Note_on_c, 7, 49, 90
9, 85259, Note_on_c, 7, 49, 0
9, 85260, Note_on_c, 7, 47, 90
9, 85289, Note_on_c, 7, 47, 0
9, 85290, Note_on_c, 7, 45, 90
9, 85319, Note_on_c, 7, 45, 0
9, 85320, Note_on_c, 7, 50, 90
9, 85379, Note_on_c, 7, 50, 0
9, 85380, Note_on_c, 7, 54, 90
9, 85439, Note_on_c, 7, 54, 0
9, 85440, Note_on_c, 7, 49, 90
9, 85499, Note_on_c, 7, 49, 0
9, 85500, Note_on_c, 7, 47, 90
9, 85529, Note_on_c, 7, 47, 0
9, 85530, Note_on_c, 7, 45, 90
9, 85559, Note_on_c, 7, 45, 0
9, 85560, Note_on_c, 7, 50, 90
9, 85619, Note_on_c, 7, 50, 0
9, 85620, Note_on_c, 7, 54, 90
9, 85679, Note_on_c, 7, 54, 0
9, 85680, Note_on_c, 7, 49, 90
9, 85739, Note_on_c, 7, 49, 0
9, 85740, Note_on_c, 7, 47, 90
9, 85769, Note_on_c, 7, 47, 0
9, 85770, Note_on_c, 7, 45, 90
9, 85799, Note_on_c, 7, 45, 0
9, 85800, Note_on_c, 7, 50, 90
9, 85859, Note_on_c, 7, 50, 0
9, 85860, Note_on_c, 7, 52, 90
9, 85919, Note_on_c, 7, 52, 0
9, 85920, Note_on_c, 7, 54, 90
9, 85979, Note_on_c, 7, 54, 0
9, 85980, Note_on_c, 7, 50, 90
9, 86039, Note_on_c, 7, 50, 0
9, 86040, Note_on_c, 7, 52, 90
9, 86099, Note_on_c, 7, 52, 0
9, 86100, Note_on_c, 7, 54, 90
9, 86159, Note_on_c, 7, 54, 0
9, 86160, Note_on_c, 7, 55, 90
9, 86219, Note_on_c, 7, 55, 0
9, 86220, Note_on_c, 7, 57, 90
9, 86279, Note_on_c, 7, 57, 0
9, 86280, Note_on_c, 7, 59, 90
9, 86339, Note_on_c, 7, 59, 0
9, 86340, Note_on_c, 7, 57, 90
9, 86399, Note_on_c, 7, 57, 0
9, 86400, Note_on_c, 7, 56, 90
9, 86459, Note_on_c, 7, 56, 0
9, 86460, Note_on_c, 7, 52, 90
9, 86519, Note_on_c, 7, 52, 0
9, 86520, Note_on_c, 7, 54, 90
9, 86579, Note_on_c, 7, 54, 0
9, 86580, Note_on_c, 7, 56, 90
9, 86639, Note_on_c, 7, 56, 0
9, 86640, Note_on_c, 7, 57, 90
9, 86699, Note_on_c, 7, 57, 0
9, 86700, Note_on_c, 7, 59, 90
9, 86759, Note_on_c, 7, 59, 0
9, 86760, Note_on_c, 7, 57, 90
9, 86819, Note_on_c, 7, 57, 0
9, 86820, Note_on_c, 7, 55, 90
9, 86879, Note_on_c, 7, 55, 0
9, 86880, Note_on_c, 7, 54, 90
9, 86939, Note_on_c, 7, 54, 0
9, 86940, Note_on_c, 7, 52, 90
9, 86999, Note_on_c, 7, 52, 0
9, 87000, Note_on_c, 7, 51, 90
9, 87059, Note_on_c, 7, 51, 0
9, 87060, Note_on_c, 7, 52, 90
9, 87119, Note_on_c, 7, 52, 0
9, 87120, Note_on_c, 7, 59, 90
9, 87179, Note_on_c, 7, 59, 0
9, 87180, Note_on_c, 7, 57, 90
9, 87239, Note_on_c, 7, 57, 0
9, 87240, Note_on_c, 7, 55, 90
9, 87299, Note_on_c, 7, 55, 0
9, 87300, Note_on_c, 7, 52, 90
9, 87359, Note_on_c, 7, 52, 0
9, 87360, Note_on_c, 7, 57, 90
9, 87419, Note_on_c, 7, 57, 0
9, 87420, Note_on_c, 7, 55, 90
9, 87479, Note_on_c, 7, 55, 0
9, 87480, Note_on_c, 7, 54, 90
9, 87539, Note_on_c, 7, 54, 0
9, 87540, Note_on_c, 7, 50, 90
9, 87599, Note_on_c, 7, 50, 0
9, 87600, Note_on_c, 7, 55, 90
9, 87659, Note_on_c, 7, 55, 0
9, 87660, Note_on_c, 7, 54, 90
9, 87719, Note_on_c, 7, 54, 0
9, 87720, Note_on_c, 7, 52, 90
9, 87779, Note_on_c, 7, 52, 0
9, 87780, Note_on_c, 7, 55, 90
9, 87839, Note_on_c, 7, 55, 0
9, 87840, Note_on_c, 7, 54, 90
9, 87899, Note_on_c, 7, 54, 0
9, 87900, Note_on_c, 7, 52, 90
9, 87959, Note_on_c, 7, 52, 0
9, 87960, Note_on_c, 7, 51, 90
9, 88019, Note_on_c, 7, 51, 0
9, 88020, Note_on_c, 7, 52, 90
9, 88079, Note_on_c, 7, 52, 0
9, 88080, Note_on_c, 7, 47, 90
9, 88199, Note_on_c, 7, 47, 0
9, 88320, Note_on_c, 7, 45, 90
9, 88439, Note_on_c, 7, 45, 0
9, 88560, Note_on_c, 7, 43, 90
9, 88679, Note_on_c, 7, 43, 0
9, 88800, Note_on_c, 7, 42, 90
9, 88919, Note_on_c, 7, 42, 0
9, 89040, Note_on_c, 7, 52, 90
9, 89099, Note_on_c, 7, 52, 0
9, 89100, Note_on_c, 7, 50, 90
9, 89159, Note_on_c, 7, 50, 0
9, 89160, Note_on_c, 7, 48, 90
9, 89219, Note_on_c, 7, 48, 0
9, 89220, Note_on_c, 7, 47, 90
9, 89279, Note_on_c, 7, 47, 0
9, 89280, Note_on_c, 7, 45, 90
9, 89339, Note_on_c, 7, 45, 0
9, 89340, Note_on_c, 7, 47, 90
9, 89399, Note_on_c, 7, 47, 0
9, 89400, Note_on_c, 7, 48, 90
9, 89459, Note_on_c, 7, 48, 0
9, 89460, Note_on_c, 7, 45, 90
9, 89519, Note_on_c, 7, 45, 0
9, 89520, Note_on_c, 7, 47, 90
9, 89579, Note_on_c, 7, 47, 0
9, 89580, Note_on_c, 7, 51, 90
9, 89639, Note_on_c, 7, 51, 0
9, 89640, Note_on_c, 7, 52, 90
9, 89699, Note_on_c, 7, 52, 0
9, 89700, Note_on_c, 7, 60, 90
9, 89759, Note_on_c, 7, 60, 0
9, 89760, Note_on_c, 7, 59, 90
9, 89819, Note_on_c, 7, 59, 0
9, 89820, Note_on_c, 7, 57, 90
9, 89879, Note_on_c, 7, 57, 0
9, 89880, Note_on_c, 7, 59, 90
9, 89939, Note_on_c, 7, 59, 0
9, 89940, Note_on_c, 7, 47, 90
9, 89999, Note_on_c, 7, 47, 0
9, 90000, Note_on_c, 7, 52, 90
9, 90059, Note_on_c, 7, 52, 0
9, 90060, Note_on_c, 7, 54, 90
9, 90119, Note_on_c, 7, 54, 0
9, 90120, Note_on_c, 7, 55, 90
9, 90179, Note_on_c, 7, 55, 0
9, 90180, Note_on_c, 7, 52, 90
9, 90239, Note_on_c, 7, 52, 0
9, 90240, Note_on_c, 7, 57, 90
9, 90299, Note_on_c, 7, 57, 0
9, 90300, Note_on_c, 7, 55, 90
9, 90359, Note_on_c, 7, 55, 0
9, 90360, Note_on_c, 7, 54, 90
9, 90419, Note_on_c, 7, 54, 0
9, 90420, Note_on_c, 7, 50, 90
9, 90479, Note_on_c, 7, 50, 0
9, 90480, Note_on_c, 7, 55, 90
9, 90539, Note_on_c, 7, 55, 0
9, 90540, Note_on_c, 7, 54, 90
9, 90599, Note_on_c, 7, 54, 0
9, 90600, Note_on_c, 7, 52, 90
9, 90659, Note_on_c, 7, 52, 0
9, 90660, Note_on_c, 7, 50, 90
9, 90719, Note_on_c, 7, 50, 0
9, 90720, Note_on_c, 7, 48, 90
9, 90779, Note_on_c, 7, 48, 0
9, 90780, Note_on_c, 7, 47, 90
9, 90839, Note_on_c, 7, 47, 0
9, 90840, Note_on_c, 7, 45, 90
9, 90899, Note_on_c, 7, 45, 0
9, 90900, Note_on_c, 7, 42, 90
9, 90959, Note_on_c, 7, 42, 0
9, 90960, Note_on_c, 7, 47, 90
9, 91079, Note_on_c, 7, 47, 0
9, 91200, Note_on_c, 7, 45, 90
9, 91319, Note_on_c, 7, 45, 0
9, 91440, Note_on_c, 7, 43, 90
9, 91559, Note_on_c, 7, 43, 0
9, 91680, Note_on_c, 7, 42, 90
9, 91799, Note_on_c, 7, 42, 0
9, 91920, Note_on_c, 7, 40, 90
9, 91979, Note_on_c, 7, 40, 0
9, 91980, Note_on_c, 7, 42, 90
9, 92039, Note_on_c, 7, 42, 0
9, 92040, Note_on_c, 7, 43, 90
9, 92099, Note_on_c, 7, 43, 0
9, 92100, Note_on_c, 7, 40, 90
9, 92159, Note_on_c, 7, 40, 0
9, 92160, Note_on_c, 7, 45, 90
9, 92219, Note_on_c, 7, 45, 0
9, 92220, Note_on_c, 7, 47, 90
9, 92279, Note_on_c, 7, 47, 0
9, 92280, Note_on_c, 7, 48, 90
9, 92339, Note_on_c, 7, 48, 0
9, 92340, Note_on_c, 7, 45, 90
9, 92399, Note_on_c, 7, 45, 0
9, 92400, Note_on_c, 7, 47, 90
9, 92459, Note_on_c, 7, 47, 0
9, 92460, Note_on_c, 7, 51, 90
9, 92519, Note_on_c, 7, 51, 0
9, 92520, Note_on_c, 7, 52, 90
9, 92579, Note_on_c, 7, 52, 0
9, 92580, Note_on_c, 7, 55, 90
9, 92639, Note_on_c, 7, 55, 0
9, 92640, Note_on_c, 7, 60, 90
9, 92699, Note_on_c, 7, 60, 0
9, 92700, Note_on_c, 7, 57, 90
9, 92759, Note_on_c, 7, 57, 0
9, 92760, Note_on_c, 7, 59, 90
9, 92819, Note_on_c, 7, 59, 0
9, 92820, Note_on_c, 7, 47, 90
9, 92879, Note_on_c, 7, 47, 0
9, 92880, Note_on_c, 7, 52, 90
9, 92999, Note_on_c, 7, 52, 0
9, 93360, Note_on_c, 7, 49, 90
9, 94200, Note_on_c, 7, 49, 0
9, 94200, Note_on_c, 7, 46, 90
9, 94320, Note_on_c, 7, 46, 0
9, 94320, Note_on_c, 7, 47, 90
9, 94560, Note_on_c, 7, 47, 0
9, 94560, Note_on_c, 7, 54, 90
9, 95040, Note_on_c, 7, 54, 0
9, 95040, Note_on_c, 7, 55, 90
9, 95099, Note_on_c, 7, 55, 0
9, 95100, Note_on_c, 7, 57, 90
9, 95159, Note_on_c, 7, 57, 0
9, 95160, Note_on_c, 7, 55, 90
9, 95219, Note_on_c, 7, 55, 0
9, 95220, Note_on_c, 7, 54, 90
9, 95279, Note_on_c, 7, 54, 0
9, 95280, Note_on_c, 7, 52, 90
9, 95339, Note_on_c, 7, 52, 0
9, 95340, Note_on_c, 7, 54, 90
9, 95399, Note_on_c, 7, 54, 0
9, 95400, Note_on_c, 7, 55, 90
9, 95459, Note_on_c, 7, 55, 0
9, 95460, Note_on_c, 7, 52, 90
9, 95519, Note_on_c, 7, 52, 0
9, 95520, Note_on_c, 7, 57, 90
9, 95579, Note_on_c, 7, 57, 0
9, 95580, Note_on_c, 7, 59, 90
9, 95639, Note_on_c, 7, 59, 0
9, 95640, Note_on_c, 7, 57, 90
9, 95699, Note_on_c, 7, 57, 0
9, 95700, Note_on_c, 7, 55, 90
9, 95759, Note_on_c, 7, 55, 0
9, 95760, Note_on_c, 7, 54, 90
9, 95819, Note_on_c, 7, 54, 0
9, 95820, Note_on_c, 7, 52, 90
9, 95879, Note_on_c, 7, 52, 0
9, 95880, Note_on_c, 7, 50, 90
9, 95939, Note_on_c, 7, 50, 0
9, 95940, Note_on_c, 7, 47, 90
9, 95999, Note_on_c, 7, 47, 0
9, 96000, Note_on_c, 7, 52, 90
9, 96059, Note_on_c, 7, 52, 0
9, 96060, Note_on_c, 7, 50, 90
9, 96119, Note_on_c, 7, 50, 0
9, 96120, Note_on_c, 7, 49, 90
9, 96179, Note_on_c, 7, 49, 0
9, 96180, Note_on_c, 7, 45, 90
9, 96239, Note_on_c, 7, 45, 0
9, 96240, Note_on_c, 7, 50, 90
9, 96299, Note_on_c, 7, 50, 0
9, 96300, Note_on_c, 7, 49, 90
9, 96359, Note_on_c, 7, 49, 0
9, 96360, Note_on_c, 7, 47, 90
9, 96419, Note_on_c, 7, 47, 0
9, 96420, Note_on_c, 7, 50, 90
9, 96479, Note_on_c, 7, 50, 0
9, 96480, Note_on_c, 7, 55, 90
9, 96539, Note_on_c, 7, 55, 0
9, 96540, Note_on_c, 7, 59, 90
9, 96599, Note_on_c, 7, 59, 0
9, 96600, Note_on_c, 7, 56, 90
9, 96659, Note_on_c, 7, 56, 0
9, 96660, Note_on_c, 7, 52, 90
9, 96719, Note_on_c, 7, 52, 0
9, 96720, Note_on_c, 7, 57, 90
9, 96779, Note_on_c, 7, 57, 0
9, 96780, Note_on_c, 7, 59, 90
9, 96839, Note_on_c, 7, 59, 0
9, 96840, Note_on_c, 7, 57, 90
9, 96899, Note_on_c, 7, 57, 0
9, 96900, Note_on_c, 7, 55, 90
9, 96959, Note_on_c, 7, 55, 0
9, 96960, Note_on_c, 7, 54, 90
9, 97019, Note_on_c, 7, 54, 0
9, 97020, Note_on_c, 7, 55, 90
9, 97079, Note_on_c, 7, 55, 0
9, 97080, Note_on_c, 7, 57, 90
9, 97139, Note_on_c, 7, 57, 0
9, 97140, Note_on_c, 7, 54, 90
9, 97199, Note_on_c, 7, 54, 0
9, 97200, Note_on_c, 7, 59, 90
9, 97259, Note_on_c, 7, 59, 0
9, 97260, Note_on_c, 7, 57, 90
9, 97319, Note_on_c, 7, 57, 0
9, 97320, Note_on_c, 7, 59, 90
9, 97379, Note_on_c, 7, 59, 0
9, 97380, Note_on_c, 7, 55, 90
9, 97439, Note_on_c, 7, 55, 0
9, 97440, Note_on_c, 7, 57, 90
9, 97499, Note_on_c, 7, 57, 0
9, 97500, Note_on_c, 7, 55, 90
9, 97559, Note_on_c, 7, 55, 0
9, 97560, Note_on_c, 7, 57, 90
9, 97619, Note_on_c, 7, 57, 0
9, 97620, Note_on_c, 7, 45, 90
9, 97679, Note_on_c, 7, 45, 0
9, 97680, Note_on_c, 7, 50, 90
9, 97739, Note_on_c, 7, 50, 0
9, 97740, Note_on_c, 7, 52, 90
9, 97799, Note_on_c, 7, 52, 0
9, 97800, Note_on_c, 7, 54, 90
9, 97859, Note_on_c, 7, 54, 0
9, 97860, Note_on_c, 7, 50, 90
9, 97919, Note_on_c, 7, 50, 0
9, 97920, Note_on_c, 7, 47, 90
9, 97979, Note_on_c, 7, 47, 0
9, 97980, Note_on_c, 7, 49, 90
9, 98039, Note_on_c, 7, 49, 0
9, 98040, Note_on_c, 7, 47, 90
9, 98099, Note_on_c, 7, 47, 0
9, 98100, Note_on_c, 7, 45, 90
9, 98159, Note_on_c, 7, 45, 0
9, 98160, Note_on_c, 7, 43, 90
9, 98219, Note_on_c, 7, 43, 0
9, 98220, Note_on_c, 7, 42, 90
9, 98279, Note_on_c, 7, 42, 0
9, 98280, Note_on_c, 7, 43, 90
9, 98339, Note_on_c, 7, 43, 0
9, 98340, Note_on_c, 7, 45, 90
9, 98399, Note_on_c, 7, 45, 0
9, 98400, Note_on_c, 7, 38, 90
9, 98639, Note_on_c, 7, 38, 0
9, 98820, Note_on_c, 7, 50, 90
9, 98879, Note_on_c, 7, 50, 0
9, 98880, Note_on_c, 7, 54, 90
9, 98939, Note_on_c, 7, 54, 0
9, 98940, Note_on_c, 7, 57, 90
9, 98999, Note_on_c, 7, 57, 0
9, 99000, Note_on_c, 7, 50, 90
9, 99059, Note_on_c, 7, 50, 0
9, 99060, Note_on_c, 7, 54, 90
9, 99119, Note_on_c, 7, 54, 0
9, 99120, Note_on_c, 7, 57, 90
9, 99179, Note_on_c, 7, 57, 0
9, 99180, Note_on_c, 7, 49, 90
9, 99239, Note_on_c, 7, 49, 0
9, 99240, Note_on_c, 7, 52, 90
9, 99299, Note_on_c, 7, 52, 0
9, 99300, Note_on_c, 7, 57, 90
9, 99359, Note_on_c, 7, 57, 0
9, 99360, Note_on_c, 7, 49, 90
9, 99419, Note_on_c, 7, 49, 0
9, 99420, Note_on_c, 7, 52, 90
9, 99479, Note_on_c, 7, 52, 0
9, 99480, Note_on_c, 7, 57, 90
9, 99539, Note_on_c, 7, 57, 0
9, 99540, Note_on_c, 7, 50, 90
9, 99599, Note_on_c, 7, 50, 0
9, 99600, Note_on_c, 7, 54, 90
9, 99659, Note_on_c, 7, 54, 0
9, 99660, Note_on_c, 7, 57, 90
9, 99719, Note_on_c, 7, 57, 0
9, 99720, Note_on_c, 7, 50, 90
9, 99779, Note_on_c, 7, 50, 0
9, 99780, Note_on_c, 7, 54, 90
9, 99839, Note_on_c, 7, 54, 0
9, 99840, Note_on_c, 7, 57, 90
9, 99899, Note_on_c, 7, 57, 0
9, 99900, Note_on_c, 7, 45, 90
9, 99959, Note_on_c, 7, 45, 0
9, 99960, Note_on_c, 7, 57, 90
9, 99989, Note_on_c, 7, 57, 0
9, 99990, Note_on_c, 7, 56, 90
9, 100019, Note_on_c, 7, 56, 0
9, 100020, Note_on_c, 7, 57, 90
9, 100049, Note_on_c, 7, 57, 0
9, 100050, Note_on_c, 7, 52, 90
9, 100079, Note_on_c, 7, 52, 0
9, 100080, Note_on_c, 7, 49, 90
9, 100139, Note_on_c, 7, 49, 0
9, 100140, Note_on_c, 7, 47, 90
9, 100199, Note_on_c, 7, 47, 0
9, 100200, Note_on_c, 7, 45, 90
9, 100259, Note_on_c, 7, 45, 0
9, 100260, Note_on_c, 7, 47, 90
9, 100319, Note_on_c, 7, 47, 0
9, 100320, Note_on_c, 7, 50, 90
9, 100379, Note_on_c, 7, 50, 0
9, 100380, Note_on_c, 7, 55, 90
9, 100439, Note_on_c, 7, 55, 0
9, 100440, Note_on_c, 7, 49, 90
9, 100499, Note_on_c, 7, 49, 0
9, 100500, Note_on_c, 7, 52, 90
9, 100559, Note_on_c, 7, 52, 0
9, 100560, Note_on_c, 7, 57, 90
9, 100619, Note_on_c, 7, 57, 0
9, 100620, Note_on_c, 7, 50, 90
9, 100679, Note_on_c, 7, 50, 0
9, 100680, Note_on_c, 7, 54, 90
9, 100739, Note_on_c, 7, 54, 0
9, 100740, Note_on_c, 7, 57, 90
9, 100799, Note_on_c, 7, 57, 0
9, 100800, Note_on_c, 7, 54, 90
9, 100859, Note_on_c, 7, 54, 0
9, 100860, Note_on_c, 7, 57, 90
9, 100919, Note_on_c, 7, 57, 0
9, 100920, Note_on_c, 7, 62, 90
9, 100979, Note_on_c, 7, 62, 0
9, 100980, Note_on_c, 7, 55, 90
9, 101039, Note_on_c, 7, 55, 0
9, 101040, Note_on_c, 7, 59, 90
9, 101099, Note_on_c, 7, 59, 0
9, 101100, Note_on_c, 7, 62, 90
9, 101159, Note_on_c, 7, 62, 0
9, 101160, Note_on_c, 7, 56, 90
9, 101219, Note_on_c, 7, 56, 0
9, 101220, Note_on_c, 7, 59, 90
9, 101279, Note_on_c, 7, 59, 0
9, 101280, Note_on_c, 7, 64, 90
9, 101339, Note_on_c, 7, 64, 0
9, 101340, Note_on_c, 7, 57, 90
9, 101399, Note_on_c, 7, 57, 0
9, 101400, Note_on_c, 7, 61, 90
9, 101459, Note_on_c, 7, 61, 0
9, 101460, Note_on_c, 7, 64, 90
9, 101519, Note_on_c, 7, 64, 0
9, 101520, Note_on_c, 7, 55, 90
9, 101579, Note_on_c, 7, 55, 0
9, 101580, Note_on_c, 7, 61, 90
9, 101639, Note_on_c, 7, 61, 0
9, 101640, Note_on_c, 7, 64, 90
9, 101699, Note_on_c, 7, 64, 0
9, 101700, Note_on_c, 7, 52, 90
9, 101759, Note_on_c, 7, 52, 0
9, 101760, Note_on_c, 7, 55, 90
9, 101819, Note_on_c, 7, 55, 0
9, 101820, Note_on_c, 7, 61, 90
9, 101879, Note_on_c, 7, 61, 0
9, 101880, Note_on_c, 7, 49, 90
9, 101939, Note_on_c, 7, 49, 0
9, 101940, Note_on_c, 7, 52, 90
9, 101999, Note_on_c, 7, 52, 0
9, 102000, Note_on_c, 7, 57, 90
9, 102059, Note_on_c, 7, 57, 0
9, 102060, Note_on_c, 7, 50, 90
9, 102119, Note_on_c, 7, 50, 0
9, 102120, Note_on_c, 7, 59, 90
9, 102179, Note_on_c, 7, 59, 0
9, 102180, Note_on_c, 7, 55, 90
9, 102239, Note_on_c, 7, 55, 0
9, 102240, Note_on_c, 7, 54, 90
9, 102269, Note_on_c, 7, 54, 0
9, 102270, Note_on_c, 7, 52, 90
9, 102299, Note_on_c, 7, 52, 0
9, 102300, Note_on_c, 7, 54, 90
9, 102329, Note_on_c, 7, 54, 0
9, 102330, Note_on_c, 7, 55, 90
9, 102359, Note_on_c, 7, 55, 0
9, 102360, Note_on_c, 7, 57, 90
9, 102419, Note_on_c, 7, 57, 0
9, 102420, Note_on_c, 7, 50, 90
9, 102479, Note_on_c, 7, 50, 0
9, 102480, Note_on_c, 7, 54, 90
9, 102539, Note_on_c, 7, 54, 0
9, 102540, Note_on_c, 7, 57, 90
9, 102599, Note_on_c, 7, 57, 0
9, 102600, Note_on_c, 7, 62, 90
9, 102719, Note_on_c, 7, 62, 0
9, 102780, Note_on_c, 7, 50, 90
9, 102839, Note_on_c, 7, 50, 0
9, 102840, Note_on_c, 7, 54, 90
9, 102899, Note_on_c, 7, 54, 0
9, 102900, Note_on_c, 7, 57, 90
9, 102959, Note_on_c, 7, 57, 0
9, 102960, Note_on_c, 7, 50, 90
9, 103019, Note_on_c, 7, 50, 0
9, 103020, Note_on_c, 7, 54, 90
9, 103079, Note_on_c, 7, 54, 0
9, 103080, Note_on_c, 7, 57, 90
9, 103139, Note_on_c, 7, 57, 0
9, 103140, Note_on_c, 7, 49, 90
9, 103199, Note_on_c, 7, 49, 0
9, 103200, Note_on_c, 7, 52, 90
9, 103259, Note_on_c, 7, 52, 0
9, 103260, Note_on_c, 7, 57, 90
9, 103319, Note_on_c, 7, 57, 0
9, 103320, Note_on_c, 7, 49, 90
9, 103379, Note_on_c, 7, 49, 0
9, 103380, Note_on_c, 7, 52, 90
9, 103439, Note_on_c, 7, 52, 0
9, 103440, Note_on_c, 7, 57, 90
9, 103499, Note_on_c, 7, 57, 0
9, 103500, Note_on_c, 7, 50, 90
9, 103559, Note_on_c, 7, 50, 0
9, 103560, Note_on_c, 7, 54, 90
9, 103619, Note_on_c, 7, 54, 0
9, 103620, Note_on_c, 7, 57, 90
9, 103679, Note_on_c, 7, 57, 0
9, 103680, Note_on_c, 7, 50, 90
9, 103739, Note_on_c, 7, 50, 0
9, 103740, Note_on_c, 7, 54, 90
9, 103799, Note_on_c, 7, 54, 0
9, 103800, Note_on_c, 7, 57, 90
9, 103859, Note_on_c, 7, 57, 0
9, 103860, Note_on_c, 7, 45, 90
9, 103919, Note_on_c, 7, 45, 0
9, 103920, Note_on_c, 7, 57, 90
9, 103949, Note_on_c, 7, 57, 0
9, 103950, Note_on_c, 7, 56, 90
9, 103979, Note_on_c, 7, 56, 0
9, 103980, Note_on_c, 7, 57, 90
9, 104009, Note_on_c, 7, 57, 0
9, 104010, Note_on_c, 7, 52, 90
9, 104039, Note_on_c, 7, 52, 0
9, 104040, Note_on_c, 7, 49, 90
9, 104099, Note_on_c, 7, 49, 0
9, 104100, Note_on_c, 7, 47, 90
9, 104159, Note_on_c, 7, 47, 0
9, 104160, Note_on_c, 7, 45, 90
9, 104219, Note_on_c, 7, 45, 0
9, 104220, Note_on_c, 7, 50, 100
9, 104340, Note_on_c, 7, 50, 0
9, 104400, Note_on_c, 7, 47, 90
9, 104459, Note_on_c, 7, 47, 0
9, 104460, Note_on_c, 7, 45, 90
9, 104519, Note_on_c, 7, 45, 0
9, 104520, Note_on_c, 7, 44, 90
9, 104579, Note_on_c, 7, 44, 0
9, 104580, Note_on_c, 7, 49, 90
9, 104699, Note_on_c, 7, 49, 0
9, 104760, Note_on_c, 7, 45, 90
9, 104819, Note_on_c, 7, 45, 0
9, 104820, Note_on_c, 7, 44, 90
9, 104879, Note_on_c, 7, 44, 0
9, 104880, Note_on_c, 7, 42, 90
9, 104939, Note_on_c, 7, 42, 0
9, 104940, Note_on_c, 7, 47, 90
9, 105059, Note_on_c, 7, 47, 0
9, 105120, Note_on_c, 7, 44, 90
9, 105179, Note_on_c, 7, 44, 0
9, 105180, Note_on_c, 7, 42, 90
9, 105239, Note_on_c, 7, 42, 0
9, 105240, Note_on_c, 7, 40, 90
9, 105299, Note_on_c, 7, 40, 0
9, 105300, Note_on_c, 7, 45, 90
9, 105359, Note_on_c, 7, 45, 0
9, 105360, Note_on_c, 7, 54, 90
9, 105419, Note_on_c, 7, 54, 0
9, 105420, Note_on_c, 7, 50, 90
9, 105479, Note_on_c, 7, 50, 0
9, 105480, Note_on_c, 7, 52, 90
9, 105509, Note_on_c, 7, 52, 0
9, 105510, Note_on_c, 7, 54, 90
9, 105539, Note_on_c, 7, 54, 0
9, 105540, Note_on_c, 7, 52, 90
9, 105569, Note_on_c, 7, 52, 0
9, 105570, Note_on_c, 7, 50, 90
9, 105599, Note_on_c, 7, 50, 0
9, 105600, Note_on_c, 7, 49, 90
9, 105629, Note_on_c, 7, 49, 0
9, 105630, Note_on_c, 7, 47, 90
9, 105659, Note_on_c, 7, 47, 0
9, 105660, Note_on_c, 7, 45, 90
9, 105719, Note_on_c, 7, 45, 0
9, 105720, Note_on_c, 7, 49, 90
9, 105779, Note_on_c, 7, 49, 0
9, 105780, Note_on_c, 7, 52, 90
9, 105839, Note_on_c, 7, 52, 0
9, 105840, Note_on_c, 7, 45, 90
9, 105899, Note_on_c, 7, 45, 0
9, 105900, Note_on_c, 7, 49, 90
9, 105959, Note_on_c, 7, 49, 0
9, 105960, Note_on_c, 7, 52, 90
9, 106019, Note_on_c, 7, 52, 0
9, 106020, Note_on_c, 7, 44, 90
9, 106079, Note_on_c, 7, 44, 0
9, 106080, Note_on_c, 7, 47, 90
9, 106139, Note_on_c, 7, 47, 0
9, 106140, Note_on_c, 7, 52, 90
9, 106199, Note_on_c, 7, 52, 0
9, 106200, Note_on_c, 7, 44, 90
9, 106259, Note_on_c, 7, 44, 0
9, 106260, Note_on_c, 7, 47, 90
9, 106319, Note_on_c, 7, 47, 0
9, 106320, Note_on_c, 7, 52, 90
9, 106379, Note_on_c, 7, 52, 0
9, 106380, Note_on_c, 7, 45, 90
9, 106499, Note_on_c, 7, 45, 0
9, 106500, Note_on_c, 7, 47, 90
9, 106559, Note_on_c, 7, 47, 0
9, 106560, Note_on_c, 7, 49, 90
9, 106679, Note_on_c, 7, 49, 0
9, 106680, Note_on_c, 7, 50, 90
9, 106739, Note_on_c, 7, 50, 0
9, 106740, Note_on_c, 7, 52, 90
9, 106799, Note_on_c, 7, 52, 0
9, 106800, Note_on_c, 7, 50, 90
9, 106859, Note_on_c, 7, 50, 0
9, 106860, Note_on_c, 7, 52, 90
9, 106919, Note_on_c, 7, 52, 0
9, 106920, Note_on_c, 7, 45, 90
9, 106979, Note_on_c, 7, 45, 0
9, 106980, Note_on_c, 7, 49, 90
9, 107009, Note_on_c, 7, 49, 0
9, 107010, Note_on_c, 7, 47, 90
9, 107039, Note_on_c, 7, 47, 0
9, 107040, Note_on_c, 7, 49, 90
9, 107069, Note_on_c, 7, 49, 0
9, 107070, Note_on_c, 7, 45, 90
9, 107099, Note_on_c, 7, 45, 0
9, 107100, Note_on_c, 7, 47, 90
9, 107159, Note_on_c, 7, 47, 0
9, 107160, Note_on_c, 7, 50, 90
9, 107219, Note_on_c, 7, 50, 0
9, 107220, Note_on_c, 7, 54, 90
9, 107279, Note_on_c, 7, 54, 0
9, 107280, Note_on_c, 7, 44, 90
9, 107339, Note_on_c, 7, 44, 0
9, 107340, Note_on_c, 7, 47, 90
9, 107399, Note_on_c, 7, 47, 0
9, 107400, Note_on_c, 7, 52, 90
9, 107459, Note_on_c, 7, 52, 0
9, 107460, Note_on_c, 7, 45, 90
9, 107519, Note_on_c, 7, 45, 0
9, 107520, Note_on_c, 7, 49, 90
9, 107579, Note_on_c, 7, 49, 0
9, 107580, Note_on_c, 7, 52, 90
9, 107639, Note_on_c, 7, 52, 0
9, 107640, Note_on_c, 7, 49, 90
9, 107699, Note_on_c, 7, 49, 0
9, 107700, Note_on_c, 7, 52, 90
9, 107759, Note_on_c, 7, 52, 0
9, 107760, Note_on_c, 7, 57, 90
9, 107819, Note_on_c, 7, 57, 0
9, 107820, Note_on_c, 7, 50, 90
9, 107879, Note_on_c, 7, 50, 0
9, 107880, Note_on_c, 7, 54, 90
9, 107939, Note_on_c, 7, 54, 0
9, 107940, Note_on_c, 7, 57, 90
9, 107999, Note_on_c, 7, 57, 0
9, 108000, Note_on_c, 7, 51, 90
9, 108059, Note_on_c, 7, 51, 0
9, 108060, Note_on_c, 7, 54, 90
9, 108119, Note_on_c, 7, 54, 0
9, 108120, Note_on_c, 7, 59, 90
9, 108179, Note_on_c, 7, 59, 0
9, 108180, Note_on_c, 7, 52, 90
9, 108239, Note_on_c, 7, 52, 0
9, 108240, Note_on_c, 7, 56, 90
9, 108299, Note_on_c, 7, 56, 0
9, 108300, Note_on_c, 7, 59, 90
9, 108359, Note_on_c, 7, 59, 0
9, 108360, Note_on_c, 7, 50, 90
9, 108419, Note_on_c, 7, 50, 0
9, 108420, Note_on_c, 7, 56, 90
9, 108479, Note_on_c, 7, 56, 0
9, 108480, Note_on_c, 7, 59, 90
9, 108539, Note_on_c, 7, 59, 0
9, 108540, Note_on_c, 7, 47, 90
9, 108599, Note_on_c, 7, 47, 0
9, 108600, Note_on_c, 7, 50, 90
9, 108659, Note_on_c, 7, 50, 0
9, 108660, Note_on_c, 7, 56, 90
9, 108719, Note_on_c, 7, 56, 0
9, 108720, Note_on_c, 7, 44, 90
9, 108779, Note_on_c, 7, 44, 0
9, 108780, Note_on_c, 7, 47, 90
9, 108839, Note_on_c, 7, 47, 0
9, 108840, Note_on_c, 7, 52, 90
9, 108899, Note_on_c, 7, 52, 0
9, 108900, Note_on_c, 7, 45, 90
9, 108959, Note_on_c, 7, 45, 0
9, 108960, Note_on_c, 7, 54, 90
9, 109019, Note_on_c, 7, 54, 0
9, 109020, Note_on_c, 7, 50, 90
9, 109079, Note_on_c, 7, 50, 0
9, 109080, Note_on_c, 7, 49, 90
9, 109109, Note_on_c, 7, 49, 0
9, 109110, Note_on_c, 7, 47, 90
9, 109139, Note_on_c, 7, 47, 0
9, 109140, Note_on_c, 7, 49, 90
9, 109169, Note_on_c, 7, 49, 0
9, 109170, Note_on_c, 7, 50, 90
9, 109199, Note_on_c, 7, 50, 0
9, 109200, Note_on_c, 7, 52, 90
9, 109259, Note_on_c, 7, 52, 0
9, 109260, Note_on_c, 7, 45, 90
9, 109319, Note_on_c, 7, 45, 0
9, 109320, Note_on_c, 7, 49, 90
9, 109379, Note_on_c, 7, 49, 0
9, 109380, Note_on_c, 7, 52, 90
9, 109439, Note_on_c, 7, 52, 0
9, 109440, Note_on_c, 7, 57, 90
9, 109499, Note_on_c, 7, 57, 0
9, 109500, Note_on_c, 7, 49, 90
9, 109529, Note_on_c, 7, 49, 0
9, 109530, Note_on_c, 7, 47, 90
9, 109559, Note_on_c, 7, 47, 0
9, 109560, Note_on_c, 7, 49, 90
9, 109589, Note_on_c, 7, 49, 0
9, 109590, Note_on_c, 7, 45, 90
9, 109619, Note_on_c, 7, 45, 0
9, 109620, Note_on_c, 7, 50, 90
9, 109679, Note_on_c, 7, 50, 0
9, 109680, Note_on_c, 7, 54, 90
9, 109739, Note_on_c, 7, 54, 0
9, 109740, Note_on_c, 7, 57, 90
9, 109799, Note_on_c, 7, 57, 0
9, 109800, Note_on_c, 7, 50, 90
9, 109859, Note_on_c, 7, 50, 0
9, 109860, Note_on_c, 7, 54, 90
9, 109889, Note_on_c, 7, 54, 0
9, 109890, Note_on_c, 7, 52, 90
9, 109919, Note_on_c, 7, 52, 0
9, 109920, Note_on_c, 7, 54, 90
9, 109949, Note_on_c, 7, 54, 0
9, 109950, Note_on_c, 7, 50, 90
9, 109979, Note_on_c, 7, 50, 0
9, 109980, Note_on_c, 7, 55, 90
9, 110039, Note_on_c, 7, 55, 0
9, 110040, Note_on_c, 7, 59, 90
9, 110099, Note_on_c, 7, 59, 0
9, 110100, Note_on_c, 7, 62, 90
9, 110159, Note_on_c, 7, 62, 0
9, 110160, Note_on_c, 7, 55, 90
9, 110219, Note_on_c, 7, 55, 0
9, 110220, Note_on_c, 7, 59, 90
9, 110249, Note_on_c, 7, 59, 0
9, 110250, Note_on_c, 7, 57, 90
9, 110279, Note_on_c, 7, 57, 0
9, 110280, Note_on_c, 7, 59, 90
9, 110309, Note_on_c, 7, 59, 0
9, 110310, Note_on_c, 7, 55, 90
9, 110339, Note_on_c, 7, 55, 0
9, 110340, Note_on_c, 7, 52, 90
9, 110399, Note_on_c, 7, 52, 0
9, 110400, Note_on_c, 7, 55, 90
9, 110459, Note_on_c, 7, 55, 0
9, 110460, Note_on_c, 7, 59, 90
9, 110519, Note_on_c, 7, 59, 0
9, 110520, Note_on_c, 7, 52, 90
9, 110549, Note_on_c, 7, 52, 0
9, 110550, Note_on_c, 7, 51, 90
9, 110579, Note_on_c, 7, 51, 0
9, 110580, Note_on_c, 7, 52, 90
9, 110609, Note_on_c, 7, 52, 0
9, 110610, Note_on_c, 7, 54, 90
9, 110639, Note_on_c, 7, 54, 0
9, 110640, Note_on_c, 7, 55, 90
9, 110669, Note_on_c, 7, 55, 0
9, 110670, Note_on_c, 7, 52, 90
9, 110699, Note_on_c, 7, 52, 0
9, 110700, Note_on_c, 7, 54, 90
9, 110759, Note_on_c, 7, 54, 0
9, 110760, Note_on_c, 7, 56, 90
9, 110819, Note_on_c, 7, 56, 0
9, 110820, Note_on_c, 7, 52, 90
9, 110879, Note_on_c, 7, 52, 0
9, 110880, Note_on_c, 7, 57, 90
9, 110939, Note_on_c, 7, 57, 0
9, 110940, Note_on_c, 7, 45, 90
9, 110999, Note_on_c, 7, 45, 0
9, 111060, Note_on_c, 7, 50, 90
9, 111119, Note_on_c, 7, 50, 0
9, 111120, Note_on_c, 7, 54, 90
9, 111179, Note_on_c, 7, 54, 0
9, 111180, Note_on_c, 7, 57, 90
9, 111239, Note_on_c, 7, 57, 0
9, 111240, Note_on_c, 7, 50, 90
9, 111299, Note_on_c, 7, 50, 0
9, 111300, Note_on_c, 7, 54, 90
9, 111359, Note_on_c, 7, 54, 0
9, 111360, Note_on_c, 7, 57, 90
9, 111419, Note_on_c, 7, 57, 0
9, 111420, Note_on_c, 7, 49, 90
9, 111479, Note_on_c, 7, 49, 0
9, 111480, Note_on_c, 7, 52, 90
9, 111539, Note_on_c, 7, 52, 0
9, 111540, Note_on_c, 7, 57, 90
9, 111599, Note_on_c, 7, 57, 0
9, 111600, Note_on_c, 7, 49, 90
9, 111659, Note_on_c, 7, 49, 0
9, 111660, Note_on_c, 7, 52, 90
9, 111719, Note_on_c, 7, 52, 0
9, 111720, Note_on_c, 7, 57, 90
9, 111779, Note_on_c, 7, 57, 0
9, 111780, Note_on_c, 7, 50, 90
9, 111899, Note_on_c, 7, 50, 0
9, 111900, Note_on_c, 7, 52, 90
9, 111959, Note_on_c, 7, 52, 0
9, 111960, Note_on_c, 7, 54, 90
9, 112079, Note_on_c, 7, 54, 0
9, 112080, Note_on_c, 7, 55, 90
9, 112139, Note_on_c, 7, 55, 0
9, 112140, Note_on_c, 7, 57, 90
9, 112199, Note_on_c, 7, 57, 0
9, 112200, Note_on_c, 7, 55, 90
9, 112259, Note_on_c, 7, 55, 0
9, 112260, Note_on_c, 7, 57, 90
9, 112319, Note_on_c, 7, 57, 0
9, 112320, Note_on_c, 7, 50, 90
9, 112440, Note_on_c, 7, 50, 0
9, 112500, Note_on_c, 7, 50, 90
9, 112559, Note_on_c, 7, 50, 0
9, 112560, Note_on_c, 7, 54, 90
9, 112619, Note_on_c, 7, 54, 0
9, 112620, Note_on_c, 7, 57, 90
9, 112679, Note_on_c, 7, 57, 0
9, 112680, Note_on_c, 7, 50, 90
9, 112739, Note_on_c, 7, 50, 0
9, 112740, Note_on_c, 7, 54, 90
9, 112799, Note_on_c, 7, 54, 0
9, 112800, Note_on_c, 7, 57, 90
9, 112859, Note_on_c, 7, 57, 0
9, 112860, Note_on_c, 7, 49, 90
9, 112919, Note_on_c, 7, 49, 0
9, 112920, Note_on_c, 7, 52, 90
9, 112979, Note_on_c, 7, 52, 0
9, 112980, Note_on_c, 7, 57, 90
9, 113039, Note_on_c, 7, 57, 0
9, 113040, Note_on_c, 7, 49, 90
9, 113099, Note_on_c, 7, 49, 0
9, 113100, Note_on_c, 7, 52, 90
9, 113159, Note_on_c, 7, 52, 0
9, 113160, Note_on_c, 7, 57, 90
9, 113219, Note_on_c, 7, 57, 0
9, 113220, Note_on_c, 7, 50, 90
9, 113279, Note_on_c, 7, 50, 0
9, 113280, Note_on_c, 7, 54, 90
9, 113339, Note_on_c, 7, 54, 0
9, 113340, Note_on_c, 7, 57, 90
9, 113399, Note_on_c, 7, 57, 0
9, 113400, Note_on_c, 7, 50, 90
9, 113459, Note_on_c, 7, 50, 0
9, 113460, Note_on_c, 7, 54, 90
9, 113519, Note_on_c, 7, 54, 0
9, 113520, Note_on_c, 7, 57, 90
9, 113579, Note_on_c, 7, 57, 0
9, 113580, Note_on_c, 7, 45, 90
9, 113639, Note_on_c, 7, 45, 0
9, 113640, Note_on_c, 7, 57, 90
9, 113669, Note_on_c, 7, 57, 0
9, 113670, Note_on_c, 7, 56, 90
9, 113699, Note_on_c, 7, 56, 0
9, 113700, Note_on_c, 7, 57, 90
9, 113729, Note_on_c, 7, 57, 0
9, 113730, Note_on_c, 7, 52, 90
9, 113759, Note_on_c, 7, 52, 0
9, 113760, Note_on_c, 7, 49, 90
9, 113819, Note_on_c, 7, 49, 0
9, 113820, Note_on_c, 7, 47, 90
9, 113879, Note_on_c, 7, 47, 0
9, 113880, Note_on_c, 7, 45, 90
9, 113939, Note_on_c, 7, 45, 0
9, 113940, Note_on_c, 7, 47, 90
9, 113999, Note_on_c, 7, 47, 0
9, 114000, Note_on_c, 7, 50, 90
9, 114059, Note_on_c, 7, 50, 0
9, 114060, Note_on_c, 7, 55, 90
9, 114119, Note_on_c, 7, 55, 0
9, 114120, Note_on_c, 7, 49, 90
9, 114179, Note_on_c, 7, 49, 0
9, 114180, Note_on_c, 7, 52, 90
9, 114239, Note_on_c, 7, 52, 0
9, 114240, Note_on_c, 7, 57, 90
9, 114299, Note_on_c, 7, 57, 0
9, 114300, Note_on_c, 7, 50, 90
9, 114359, Note_on_c, 7, 50, 0
9, 114360, Note_on_c, 7, 54, 90
9, 114419, Note_on_c, 7, 54, 0
9, 114420, Note_on_c, 7, 57, 90
9, 114479, Note_on_c, 7, 57, 0
9, 114480, Note_on_c, 7, 54, 90
9, 114539, Note_on_c, 7, 54, 0
9, 114540, Note_on_c, 7, 57, 90
9, 114599, Note_on_c, 7, 57, 0
9, 114600, Note_on_c, 7, 62, 90
9, 114659, Note_on_c, 7, 62, 0
9, 114660, Note_on_c, 7, 55, 90
9, 114719, Note_on_c, 7, 55, 0
9, 114720, Note_on_c, 7, 59, 90
9, 114779, Note_on_c, 7, 59, 0
9, 114780, Note_on_c, 7, 62, 90
9, 114839, Note_on_c, 7, 62, 0
9, 114840, Note_on_c, 7, 56, 90
9, 114899, Note_on_c, 7, 56, 0
9, 114900, Note_on_c, 7, 59, 90
9, 114959, Note_on_c, 7, 59, 0
9, 114960, Note_on_c, 7, 64, 90
9, 115019, Note_on_c, 7, 64, 0
9, 115020, Note_on_c, 7, 57, 90
9, 115079, Note_on_c, 7, 57, 0
9, 115080, Note_on_c, 7, 61, 90
9, 115139, Note_on_c, 7, 61, 0
9, 115140, Note_on_c, 7, 64, 90
9, 115199, Note_on_c, 7, 64, 0
9, 115200, Note_on_c, 7, 55, 90
9, 115259, Note_on_c, 7, 55, 0
9, 115260, Note_on_c, 7, 61, 90
9, 115319, Note_on_c, 7, 61, 0
9, 115320, Note_on_c, 7, 64, 90
9, 115379, Note_on_c, 7, 64, 0
9, 115380, Note_on_c, 7, 52, 90
9, 115439, Note_on_c, 7, 52, 0
9, 115440, Note_on_c, 7, 55, 90
9, 115499, Note_on_c, 7, 55, 0
9, 115500, Note_on_c, 7, 61, 90
9, 115559, Note_on_c, 7, 61, 0
9, 115560, Note_on_c, 7, 49, 90
9, 115619, Note_on_c, 7, 49, 0
9, 115620, Note_on_c, 7, 52, 90
9, 115679, Note_on_c, 7, 52, 0
9, 115680, Note_on_c, 7, 57, 90
9, 115739, Note_on_c, 7, 57, 0
9, 115740, Note_on_c, 7, 50, 90
9, 115799, Note_on_c, 7, 50, 0
9, 115800, Note_on_c, 7, 59, 90
9, 115859, Note_on_c, 7, 59, 0
9, 115860, Note_on_c, 7, 55, 90
9, 115919, Note_on_c, 7, 55, 0
9, 115920, Note_on_c, 7, 54, 90
9, 115949, Note_on_c, 7, 54, 0
9, 115950, Note_on_c, 7, 52, 90
9, 115979, Note_on_c, 7, 52, 0
9, 115980, Note_on_c, 7, 54, 90
9, 116009, Note_on_c, 7, 54, 0
9, 116010, Note_on_c, 7, 55, 90
9, 116039, Note_on_c, 7, 55, 0
9, 116040, Note_on_c, 7, 57, 90
9, 116099, Note_on_c, 7, 57, 0
9, 116100, Note_on_c, 7, 50, 90
9, 116159, Note_on_c, 7, 50, 0
9, 116160, Note_on_c, 7, 42, 90
9, 116219, Note_on_c, 7, 42, 0
9, 116220, Note_on_c, 7, 45, 90
9, 116279, Note_on_c, 7, 45, 0
9, 116280, Note_on_c, 7, 38, 90
9, 116399, Note_on_c, 7, 38, 0
9, 116400, Note_on_c, 7, 54, 90
9, 116459, Note_on_c, 7, 54, 0
9, 116460, Note_on_c, 7, 47, 90
9, 116519, Note_on_c, 7, 47, 0
9, 116520, Note_on_c, 7, 50, 90
9, 116579, Note_on_c, 7, 50, 0
9, 116580, Note_on_c, 7, 54, 90
9, 116639, Note_on_c, 7, 54, 0
9, 116640, Note_on_c, 7, 59, 90
9, 116699, Note_on_c, 7, 59, 0
9, 116700, Note_on_c, 7, 56, 90
9, 116729, Note_on_c, 7, 56, 0
9, 116730, Note_on_c, 7, 54, 90
9, 116759, Note_on_c, 7, 54, 0
9, 116760, Note_on_c, 7, 56, 90
9, 116789, Note_on_c, 7, 56, 0
9, 116790, Note_on_c, 7, 52, 90
9, 116819, Note_on_c, 7, 52, 0
9, 116820, Note_on_c, 7, 45, 90
9, 116879, Note_on_c, 7, 45, 0
9, 116880, Note_on_c, 7, 49, 90
9, 116939, Note_on_c, 7, 49, 0
9, 116940, Note_on_c, 7, 52, 90
9, 116999, Note_on_c, 7, 52, 0
9, 117000, Note_on_c, 7, 57, 90
9, 117059, Note_on_c, 7, 57, 0
9, 117060, Note_on_c, 7, 49, 90
9, 117089, Note_on_c, 7, 49, 0
9, 117090, Note_on_c, 7, 47, 90
9, 117119, Note_on_c, 7, 47, 0
9, 117120, Note_on_c, 7, 49, 90
9, 117149, Note_on_c, 7, 49, 0
9, 117150, Note_on_c, 7, 45, 90
9, 117179, Note_on_c, 7, 45, 0
9, 117180, Note_on_c, 7, 47, 90
9, 117239, Note_on_c, 7, 47, 0
9, 117240, Note_on_c, 7, 50, 90
9, 117299, Note_on_c, 7, 50, 0
9, 117300, Note_on_c, 7, 56, 90
9, 117359, Note_on_c, 7, 56, 0
9, 117360, Note_on_c, 7, 45, 90
9, 117419, Note_on_c, 7, 45, 0
9, 117420, Note_on_c, 7, 49, 90
9, 117479, Note_on_c, 7, 49, 0
9, 117480, Note_on_c, 7, 54, 90
9, 117539, Note_on_c, 7, 54, 0
9, 117540, Note_on_c, 7, 44, 90
9, 117599, Note_on_c, 7, 44, 0
9, 117600, Note_on_c, 7, 45, 90
9, 117629, Note_on_c, 7, 45, 0
9, 117630, Note_on_c, 7, 44, 90
9, 117659, Note_on_c, 7, 44, 0
9, 117660, Note_on_c, 7, 45, 90
9, 117689, Note_on_c, 7, 45, 0
9, 117690, Note_on_c, 7, 42, 90
9, 117719, Note_on_c, 7, 42, 0
9, 117720, Note_on_c, 7, 49, 90
9, 117749, Note_on_c, 7, 49, 0
9, 117750, Note_on_c, 7, 50, 90
9, 117779, Note_on_c, 7, 50, 0
9, 117780, Note_on_c, 7, 49, 90
9, 117809, Note_on_c, 7, 49, 0
9, 117810, Note_on_c, 7, 47, 90
9, 117839, Note_on_c, 7, 47, 0
9, 117840, Note_on_c, 7, 45, 90
9, 117869, Note_on_c, 7, 45, 0
9, 117870, Note_on_c, 7, 44, 90
9, 117899, Note_on_c, 7, 44, 0
9, 117900, Note_on_c, 7, 42, 90
9, 117959, Note_on_c, 7, 42, 0
9, 117960, Note_on_c, 7, 45, 90
9, 118019, Note_on_c, 7, 45, 0
9, 118020, Note_on_c, 7, 49, 90
9, 118079, Note_on_c, 7, 49, 0
9, 118080, Note_on_c, 7, 42, 90
9, 118139, Note_on_c, 7, 42, 0
9, 118140, Note_on_c, 7, 45, 90
9, 118199, Note_on_c, 7, 45, 0
9, 118200, Note_on_c, 7, 49, 90
9, 118259, Note_on_c, 7, 49, 0
9, 118260, Note_on_c, 7, 41, 90
9, 118319, Note_on_c, 7, 41, 0
9, 118320, Note_on_c, 7, 44, 90
9, 118379, Note_on_c, 7, 44, 0
9, 118380, Note_on_c, 7, 49, 90
9, 118439, Note_on_c, 7, 49, 0
9, 118440, Note_on_c, 7, 41, 90
9, 118499, Note_on_c, 7, 41, 0
9, 118500, Note_on_c, 7, 44, 90
9, 118559, Note_on_c, 7, 44, 0
9, 118560, Note_on_c, 7, 49, 90
9, 118619, Note_on_c, 7, 49, 0
9, 118620, Note_on_c, 7, 42, 90
9, 118739, Note_on_c, 7, 42, 0
9, 118740, Note_on_c, 7, 54, 90
9, 118799, Note_on_c, 7, 54, 0
9, 118800, Note_on_c, 7, 59, 90
9, 118919, Note_on_c, 7, 59, 0
9, 118920, Note_on_c, 7, 47, 90
9, 118979, Note_on_c, 7, 47, 0
9, 118980, Note_on_c, 7, 49, 90
9, 119039, Note_on_c, 7, 49, 0
9, 119040, Note_on_c, 7, 47, 90
9, 119099, Note_on_c, 7, 47, 0
9, 119100, Note_on_c, 7, 49, 90
9, 119159, Note_on_c, 7, 49, 0
9, 119160, Note_on_c, 7, 54, 90
9, 119219, Note_on_c, 7, 54, 0
9, 119220, Note_on_c, 7, 57, 90
9, 119279, Note_on_c, 7, 57, 0
9, 119280, Note_on_c, 7, 61, 90
9, 119339, Note_on_c, 7, 61, 0
9, 119340, Note_on_c, 7, 51, 90
9, 119399, Note_on_c, 7, 51, 0
9, 119400, Note_on_c, 7, 54, 90
9, 119459, Note_on_c, 7, 54, 0
9, 119460, Note_on_c, 7, 59, 90
9, 119519, Note_on_c, 7, 59, 0
9, 119520, Note_on_c, 7, 53, 90
9, 119579, Note_on_c, 7, 53, 0
9, 119580, Note_on_c, 7, 56, 90
9, 119639, Note_on_c, 7, 56, 0
9, 119640, Note_on_c, 7, 61, 90
9, 119699, Note_on_c, 7, 61, 0
9, 119700, Note_on_c, 7, 54, 90
9, 119759, Note_on_c, 7, 54, 0
9, 119760, Note_on_c, 7, 57, 90
9, 119819, Note_on_c, 7, 57, 0
9, 119820, Note_on_c, 7, 61, 90
9, 119879, Note_on_c, 7, 61, 0
9, 119880, Note_on_c, 7, 50, 90
9, 119939, Note_on_c, 7, 50, 0
9, 119940, Note_on_c, 7, 54, 90
9, 119999, Note_on_c, 7, 54, 0
9, 120000, Note_on_c, 7, 57, 90
9, 120059, Note_on_c, 7, 57, 0
9, 120060, Note_on_c, 7, 47, 90
9, 120119, Note_on_c, 7, 47, 0
9, 120120, Note_on_c, 7, 50, 90
9, 120179, Note_on_c, 7, 50, 0
9, 120180, Note_on_c, 7, 56, 90
9, 120239, Note_on_c, 7, 56, 0
9, 120240, Note_on_c, 7, 48, 90
9, 120299, Note_on_c, 7, 48, 0
9, 120300, Note_on_c, 7, 51, 90
9, 120359, Note_on_c, 7, 51, 0
9, 120360, Note_on_c, 7, 56, 90
9, 120419, Note_on_c, 7, 56, 0
9, 120420, Note_on_c, 7, 49, 90
9, 120479, Note_on_c, 7, 49, 0
9, 120480, Note_on_c, 7, 53, 90
9, 120539, Note_on_c, 7, 53, 0
9, 120540, Note_on_c, 7, 56, 90
9, 120599, Note_on_c, 7, 56, 0
9, 120600, Note_on_c, 7, 47, 90
9, 120659, Note_on_c, 7, 47, 0
9, 120660, Note_on_c, 7, 50, 90
9, 120719, Note_on_c, 7, 50, 0
9, 120720, Note_on_c, 7, 56, 90
9, 120779, Note_on_c, 7, 56, 0
9, 120780, Note_on_c, 7, 44, 90
9, 120839, Note_on_c, 7, 44, 0
9, 120840, Note_on_c, 7, 47, 90
9, 120899, Note_on_c, 7, 47, 0
9, 120900, Note_on_c, 7, 50, 90
9, 120959, Note_on_c, 7, 50, 0
9, 120960, Note_on_c, 7, 41, 90
9, 121019, Note_on_c, 7, 41, 0
9, 121020, Note_on_c, 7, 44, 90
9, 121079, Note_on_c, 7, 44, 0
9, 121080, Note_on_c, 7, 49, 90
9, 121139, Note_on_c, 7, 49, 0
9, 121140, Note_on_c, 7, 42, 90
9, 121199, Note_on_c, 7, 42, 0
9, 121200, Note_on_c, 7, 50, 90
9, 121259, Note_on_c, 7, 50, 0
9, 121260, Note_on_c, 7, 47, 90
9, 121319, Note_on_c, 7, 47, 0
9, 121320, Note_on_c, 7, 45, 90
9, 121349, Note_on_c, 7, 45, 0
9, 121350, Note_on_c, 7, 44, 90
9, 121379, Note_on_c, 7, 44, 0
9, 121380, Note_on_c, 7, 45, 90
9, 121409, Note_on_c, 7, 45, 0
9, 121410, Note_on_c, 7, 47, 90
9, 121439, Note_on_c, 7, 47, 0
9, 121440, Note_on_c, 7, 49, 90
9, 121499, Note_on_c, 7, 49, 0
9, 121500, Note_on_c, 7, 42, 90
9, 121559, Note_on_c, 7, 42, 0
9, 121560, Note_on_c, 7, 45, 90
9, 121619, Note_on_c, 7, 45, 0
9, 121620, Note_on_c, 7, 49, 90
9, 121679, Note_on_c, 7, 49, 0
9, 121680, Note_on_c, 7, 54, 90
9, 121739, Note_on_c, 7, 54, 0
9, 121740, Note_on_c, 7, 57, 90
9, 121769, Note_on_c, 7, 57, 0
9, 121770, Note_on_c, 7, 56, 90
9, 121799, Note_on_c, 7, 56, 0
9, 121800, Note_on_c, 7, 57, 90
9, 121829, Note_on_c, 7, 57, 0
9, 121830, Note_on_c, 7, 54, 90
9, 121859, Note_on_c, 7, 54, 0
9, 121860, Note_on_c, 7, 53, 90
9, 121919, Note_on_c, 7, 53, 0
9, 121920, Note_on_c, 7, 56, 90
9, 121979, Note_on_c, 7, 56, 0
9, 121980, Note_on_c, 7, 61, 90
9, 122039, Note_on_c, 7, 61, 0
9, 122040, Note_on_c, 7, 54, 90
9, 122099, Note_on_c, 7, 54, 0
9, 122100, Note_on_c, 7, 57, 90
9, 122129, Note_on_c, 7, 57, 0
9, 122130, Note_on_c, 7, 56, 90
9, 122159, Note_on_c, 7, 56, 0
9, 122160, Note_on_c, 7, 57, 90
9, 122189, Note_on_c, 7, 57, 0
9, 122190, Note_on_c, 7, 54, 90
9, 122219, Note_on_c, 7, 54, 0
9, 122220, Note_on_c, 7, 56, 90
9, 122279, Note_on_c, 7, 56, 0
9, 122280, Note_on_c, 7, 59, 90
9, 122339, Note_on_c, 7, 59, 0
9, 122340, Note_on_c, 7, 64, 90
9, 122399, Note_on_c, 7, 64, 0
9, 122400, Note_on_c, 7, 57, 90
9, 122459, Note_on_c, 7, 57, 0
9, 122460, Note_on_c, 7, 61, 90
9, 122489, Note_on_c, 7, 61, 0
9, 122490, Note_on_c, 7, 59, 90
9, 122519, Note_on_c, 7, 59, 0
9, 122520, Note_on_c, 7, 61, 90
9, 122549, Note_on_c, 7, 61, 0
9, 122550, Note_on_c, 7, 57, 90
9, 122579, Note_on_c, 7, 57, 0
9, 122580, Note_on_c, 7, 62, 90
9, 122639, Note_on_c, 7, 62, 0
9, 122640, Note_on_c, 7, 59, 90
9, 122699, Note_on_c, 7, 59, 0
9, 122700, Note_on_c, 7, 56, 90
9, 122759, Note_on_c, 7, 56, 0
9, 122760, Note_on_c, 7, 61, 90
9, 122819, Note_on_c, 7, 61, 0
9, 122820, Note_on_c, 7, 58, 90
9, 122879, Note_on_c, 7, 58, 0
9, 122880, Note_on_c, 7, 54, 90
9, 122939, Note_on_c, 7, 54, 0
9, 122940, Note_on_c, 7, 59, 90
9, 122999, Note_on_c, 7, 59, 0
9, 123000, Note_on_c, 7, 55, 90
9, 123059, Note_on_c, 7, 55, 0
9, 123060, Note_on_c, 7, 52, 90
9, 123119, Note_on_c, 7, 52, 0
9, 123120, Note_on_c, 7, 54, 90
9, 123179, Note_on_c, 7, 54, 0
9, 123180, Note_on_c, 7, 52, 90
9, 123209, Note_on_c, 7, 52, 0
9, 123210, Note_on_c, 7, 50, 90
9, 123239, Note_on_c, 7, 50, 0
9, 123240, Note_on_c, 7, 52, 90
9, 123269, Note_on_c, 7, 52, 0
9, 123270, Note_on_c, 7, 49, 90
9, 123299, Note_on_c, 7, 49, 0
9, 123300, Note_on_c, 7, 50, 90
9, 123359, Note_on_c, 7, 50, 0
9, 123360, Note_on_c, 7, 54, 90
9, 123419, Note_on_c, 7, 54, 0
9, 123420, Note_on_c, 7, 59, 90
9, 123479, Note_on_c, 7, 59, 0
9, 123480, Note_on_c, 7, 47, 90
9, 123539, Note_on_c, 7, 47, 0
9, 123540, Note_on_c, 7, 50, 90
9, 123599, Note_on_c, 7, 50, 0
9, 123600, Note_on_c, 7, 54, 90
9, 123659, Note_on_c, 7, 54, 0
9, 123660, Note_on_c, 7, 46, 90
9, 123899, Note_on_c, 7, 46, 0
9, 123900, Note_on_c, 7, 54, 90
9, 123959, Note_on_c, 7, 54, 0
9, 123960, Note_on_c, 7, 52, 90
9, 124019, Note_on_c, 7, 52, 0
9, 124020, Note_on_c, 7, 50, 90
9, 124079, Note_on_c, 7, 50, 0
9, 124080, Note_on_c, 7, 49, 90
9, 124139, Note_on_c, 7, 49, 0
9, 124140, Note_on_c, 7, 47, 90
9, 124199, Note_on_c, 7, 47, 0
9, 124200, Note_on_c, 7, 52, 90
9, 124319, Note_on_c, 7, 52, 0
9, 124320, Note_on_c, 7, 40, 90
9, 124379, Note_on_c, 7, 40, 0
9, 124380, Note_on_c, 7, 42, 90
9, 124439, Note_on_c, 7, 42, 0
9, 124440, Note_on_c, 7, 40, 90
9, 124499, Note_on_c, 7, 40, 0
9, 124500, Note_on_c, 7, 42, 90
9, 124559, Note_on_c, 7, 42, 0
9, 124560, Note_on_c, 7, 47, 90
9, 124679, Note_on_c, 7, 47, 0
9, 124920, Note_on_c, 7, 50, 90
9, 124979, Note_on_c, 7, 50, 0
9, 124980, Note_on_c, 7, 54, 90
9, 125039, Note_on_c, 7, 54, 0
9, 125040, Note_on_c, 7, 57, 90
9, 125099, Note_on_c, 7, 57, 0
9, 125100, Note_on_c, 7, 50, 90
9, 125159, Note_on_c, 7, 50, 0
9, 125160, Note_on_c, 7, 54, 90
9, 125219, Note_on_c, 7, 54, 0
9, 125220, Note_on_c, 7, 57, 90
9, 125279, Note_on_c, 7, 57, 0
9, 125280, Note_on_c, 7, 49, 90
9, 125339, Note_on_c, 7, 49, 0
9, 125340, Note_on_c, 7, 52, 90
9, 125399, Note_on_c, 7, 52, 0
9, 125400, Note_on_c, 7, 57, 90
9, 125459, Note_on_c, 7, 57, 0
9, 125460, Note_on_c, 7, 49, 90
9, 125519, Note_on_c, 7, 49, 0
9, 125520, Note_on_c, 7, 52, 90
9, 125579, Note_on_c, 7, 52, 0
9, 125580, Note_on_c, 7, 57, 90
9, 125639, Note_on_c, 7, 57, 0
9, 125640, Note_on_c, 7, 50, 90
9, 125699, Note_on_c, 7, 50, 0
9, 125700, Note_on_c, 7, 54, 90
9, 125759, Note_on_c, 7, 54, 0
9, 125760, Note_on_c, 7, 57, 90
9, 125819, Note_on_c, 7, 57, 0
9, 125820, Note_on_c, 7, 50, 90
9, 125879, Note_on_c, 7, 50, 0
9, 125880, Note_on_c, 7, 54, 90
9, 125939, Note_on_c, 7, 54, 0
9, 125940, Note_on_c, 7, 57, 90
9, 125999, Note_on_c, 7, 57, 0
9, 126000, Note_on_c, 7, 45, 90
9, 126059, Note_on_c, 7, 45, 0
9, 126060, Note_on_c, 7, 57, 90
9, 126089, Note_on_c, 7, 57, 0
9, 126090, Note_on_c, 7, 56, 90
9, 126119, Note_on_c, 7, 56, 0
9, 126120, Note_on_c, 7, 57, 90
9, 126149, Note_on_c, 7, 57, 0
9, 126150, Note_on_c, 7, 52, 90
9, 126179, Note_on_c, 7, 52, 0
9, 126180, Note_on_c, 7, 49, 90
9, 126239, Note_on_c, 7, 49, 0
9, 126240, Note_on_c, 7, 47, 90
9, 126299, Note_on_c, 7, 47, 0
9, 126300, Note_on_c, 7, 45, 90
9, 126359, Note_on_c, 7, 45, 0
9, 126360, Note_on_c, 7, 47, 90
9, 126419, Note_on_c, 7, 47, 0
9, 126420, Note_on_c, 7, 50, 90
9, 126479, Note_on_c, 7, 50, 0
9, 126480, Note_on_c, 7, 55, 90
9, 126539, Note_on_c, 7, 55, 0
9, 126540, Note_on_c, 7, 49, 90
9, 126599, Note_on_c, 7, 49, 0
9, 126600, Note_on_c, 7, 52, 90
9, 126659, Note_on_c, 7, 52, 0
9, 126660, Note_on_c, 7, 57, 90
9, 126719, Note_on_c, 7, 57, 0
9, 126720, Note_on_c, 7, 50, 90
9, 126779, Note_on_c, 7, 50, 0
9, 126780, Note_on_c, 7, 54, 90
9, 126839, Note_on_c, 7, 54, 0
9, 126840, Note_on_c, 7, 57, 90
9, 126899, Note_on_c, 7, 57, 0
9, 126900, Note_on_c, 7, 54, 90
9, 126959, Note_on_c, 7, 54, 0
9, 126960, Note_on_c, 7, 57, 90
9, 127019, Note_on_c, 7, 57, 0
9, 127020, Note_on_c, 7, 62, 90
9, 127079, Note_on_c, 7, 62, 0
9, 127080, Note_on_c, 7, 55, 90
9, 127139, Note_on_c, 7, 55, 0
9, 127140, Note_on_c, 7, 59, 90
9, 127199, Note_on_c, 7, 59, 0
9, 127200, Note_on_c, 7, 62, 90
9, 127259, Note_on_c, 7, 62, 0
9, 127260, Note_on_c, 7, 56, 90
9, 127319, Note_on_c, 7, 56, 0
9, 127320, Note_on_c, 7, 59, 90
9, 127379, Note_on_c, 7, 59, 0
9, 127380, Note_on_c, 7, 64, 90
9, 127439, Note_on_c, 7, 64, 0
9, 127440, Note_on_c, 7, 57, 90
9, 127499, Note_on_c, 7, 57, 0
9, 127500, Note_on_c, 7, 61, 90
9, 127559, Note_on_c, 7, 61, 0
9, 127560, Note_on_c, 7, 64, 90
9, 127619, Note_on_c, 7, 64, 0
9, 127620, Note_on_c, 7, 55, 90
9, 127679, Note_on_c, 7, 55, 0
9, 127680, Note_on_c, 7, 61, 90
9, 127739, Note_on_c, 7, 61, 0
9, 127740, Note_on_c, 7, 64, 90
9, 127799, Note_on_c, 7, 64, 0
9, 127800, Note_on_c, 7, 52, 90
9, 127859, Note_on_c, 7, 52, 0
9, 127860, Note_on_c, 7, 55, 90
9, 127919, Note_on_c, 7, 55, 0
9, 127920, Note_on_c, 7, 61, 90
9, 127979, Note_on_c, 7, 61, 0
9, 127980, Note_on_c, 7, 49, 90
9, 128039, Note_on_c, 7, 49, 0
9, 128040, Note_on_c, 7, 52, 90
9, 128099, Note_on_c, 7, 52, 0
9, 128100, Note_on_c, 7, 57, 90
9, 128159, Note_on_c, 7, 57, 0
9, 128160, Note_on_c, 7, 50, 90
9, 128219, Note_on_c, 7, 50, 0
9, 128220, Note_on_c, 7, 59, 90
9, 128279, Note_on_c, 7, 59, 0
9, 128280, Note_on_c, 7, 55, 90
9, 128339, Note_on_c, 7, 55, 0
9, 128340, Note_on_c, 7, 54, 90
9, 128369, Note_on_c, 7, 54, 0
9, 128370, Note_on_c, 7, 52, 90
9, 128399, Note_on_c, 7, 52, 0
9, 128400, Note_on_c, 7, 54, 90
9, 128429, Note_on_c, 7, 54, 0
9, 128430, Note_on_c, 7, 55, 90
9, 128459, Note_on_c, 7, 55, 0
9, 128460, Note_on_c, 7, 57, 90
9, 128519, Note_on_c, 7, 57, 0
9, 128520, Note_on_c, 7, 50, 90
9, 128579, Note_on_c, 7, 50, 0
9, 128580, Note_on_c, 7, 54, 90
9, 128639, Note_on_c, 7, 54, 0
9, 128640, Note_on_c, 7, 57, 90
9, 128699, Note_on_c, 7, 57, 0
9, 128700, Note_on_c, 7, 62, 90
9, 128819, Note_on_c, 7, 62, 0
9, 128880, Note_on_c, 7, 50, 90
9, 128939, Note_on_c, 7, 50, 0
9, 128940, Note_on_c, 7, 54, 90
9, 128999, Note_on_c, 7, 54, 0
9, 129000, Note_on_c, 7, 57, 90
9, 129059, Note_on_c, 7, 57, 0
9, 129060, Note_on_c, 7, 50, 90
9, 129119, Note_on_c, 7, 50, 0
9, 129120, Note_on_c, 7, 54, 90
9, 129179, Note_on_c, 7, 54, 0
9, 129180, Note_on_c, 7, 57, 90
9, 129239, Note_on_c, 7, 57, 0
9, 129240, Note_on_c, 7, 49, 90
9, 129299, Note_on_c, 7, 49, 0
9, 129300, Note_on_c, 7, 52, 90
9, 129359, Note_on_c, 7, 52, 0
9, 129360, Note_on_c, 7, 57, 90
9, 129419, Note_on_c, 7, 57, 0
9, 129420, Note_on_c, 7, 49, 90
9, 129479, Note_on_c, 7, 49, 0
9, 129480, Note_on_c, 7, 52, 90
9, 129539, Note_on_c, 7, 52, 0
9, 129540, Note_on_c, 7, 57, 90
9, 129599, Note_on_c, 7, 57, 0
9, 129600, Note_on_c, 7, 50, 90
9, 129659, Note_on_c, 7, 50, 0
9, 129660, Note_on_c, 7, 54, 90
9, 129719, Note_on_c, 7, 54, 0
9, 129720, Note_on_c, 7, 57, 90
9, 129779, Note_on_c, 7, 57, 0
9, 129780, Note_on_c, 7, 50, 90
9, 129839, Note_on_c, 7, 50, 0
9, 129840, Note_on_c, 7, 54, 90
9, 129899, Note_on_c, 7, 54, 0
9, 129900, Note_on_c, 7, 57, 90
9, 129959, Note_on_c, 7, 57, 0
9, 129960, Note_on_c, 7, 45, 90
9, 130019, Note_on_c, 7, 45, 0
9, 130020, Note_on_c, 7, 57, 90
9, 130049, Note_on_c, 7, 57, 0
9, 130050, Note_on_c, 7, 56, 90
9, 130079, Note_on_c, 7, 56, 0
9, 130080, Note_on_c, 7, 57, 90
9, 130109, Note_on_c, 7, 57, 0
9, 130110, Note_on_c, 7, 52, 90
9, 130139, Note_on_c, 7, 52, 0
9, 130140, Note_on_c, 7, 49, 90
9, 130199, Note_on_c, 7, 49, 0
9, 130200, Note_on_c, 7, 47, 90
9, 130259, Note_on_c, 7, 47, 0
9, 130260, Note_on_c, 7, 45, 90
9, 130319, Note_on_c, 7, 45, 0
9, 130320, Note_on_c, 7, 50, 100
9, 130440, Note_on_c, 7, 50, 0
9, 130500, Note_on_c, 7, 47, 90
9, 130559, Note_on_c, 7, 47, 0
9, 130560, Note_on_c, 7, 45, 90
9, 130619, Note_on_c, 7, 45, 0
9, 130620, Note_on_c, 7, 44, 90
9, 130679, Note_on_c, 7, 44, 0
9, 130680, Note_on_c, 7, 49, 90
9, 130799, Note_on_c, 7, 49, 0
9, 130860, Note_on_c, 7, 45, 90
9, 130919, Note_on_c, 7, 45, 0
9, 130920, Note_on_c, 7, 44, 90
9, 130979, Note_on_c, 7, 44, 0
9, 130980, Note_on_c, 7, 42, 90
9, 131039, Note_on_c, 7, 42, 0
9, 131040, Note_on_c, 7, 47, 90
9, 131159, Note_on_c, 7, 47, 0
9, 131220, Note_on_c, 7, 44, 90
9, 131279, Note_on_c, 7, 44, 0
9, 131280, Note_on_c, 7, 42, 90
9, 131339, Note_on_c, 7, 42, 0
9, 131340, Note_on_c, 7, 40, 90
9, 131399, Note_on_c, 7, 40, 0
9, 131400, Note_on_c, 7, 45, 90
9, 131459, Note_on_c, 7, 45, 0
9, 131460, Note_on_c, 7, 54, 90
9, 131519, Note_on_c, 7, 54, 0
9, 131520, Note_on_c, 7, 50, 90
9, 131579, Note_on_c, 7, 50, 0
9, 131580, Note_on_c, 7, 52, 90
9, 131609, Note_on_c, 7, 52, 0
9, 131610, Note_on_c, 7, 54, 90
9, 131639, Note_on_c, 7, 54, 0
9, 131640, Note_on_c, 7, 52, 90
9, 131669, Note_on_c, 7, 52, 0
9, 131670, Note_on_c, 7, 50, 90
9, 131699, Note_on_c, 7, 50, 0
9, 131700, Note_on_c, 7, 49, 90
9, 131729, Note_on_c, 7, 49, 0
9, 131730, Note_on_c, 7, 47, 90
9, 131759, Note_on_c, 7, 47, 0
9, 131760, Note_on_c, 7, 45, 90
9, 131819, Note_on_c, 7, 45, 0
9, 131820, Note_on_c, 7, 49, 90
9, 131879, Note_on_c, 7, 49, 0
9, 131880, Note_on_c, 7, 52, 90
9, 131939, Note_on_c, 7, 52, 0
9, 131940, Note_on_c, 7, 45, 90
9, 131999, Note_on_c, 7, 45, 0
9, 132000, Note_on_c, 7, 49, 90
9, 132059, Note_on_c, 7, 49, 0
9, 132060, Note_on_c, 7, 52, 90
9, 132119, Note_on_c, 7, 52, 0
9, 132120, Note_on_c, 7, 44, 90
9, 132179, Note_on_c, 7, 44, 0
9, 132180, Note_on_c, 7, 47, 90
9, 132239, Note_on_c, 7, 47, 0
9, 132240, Note_on_c, 7, 52, 90
9, 132299, Note_on_c, 7, 52, 0
9, 132300, Note_on_c, 7, 44, 90
9, 132359, Note_on_c, 7, 44, 0
9, 132360, Note_on_c, 7, 47, 90
9, 132419, Note_on_c, 7, 47, 0
9, 132420, Note_on_c, 7, 52, 90
9, 132479, Note_on_c, 7, 52, 0
9, 132480, Note_on_c, 7, 45, 90
9, 132599, Note_on_c, 7, 45, 0
9, 132600, Note_on_c, 7, 47, 90
9, 132659, Note_on_c, 7, 47, 0
9, 132660, Note_on_c, 7, 49, 90
9, 132779, Note_on_c, 7, 49, 0
9, 132780, Note_on_c, 7, 50, 90
9, 132839, Note_on_c, 7, 50, 0
9, 132840, Note_on_c, 7, 52, 90
9, 132899, Note_on_c, 7, 52, 0
9, 132900, Note_on_c, 7, 50, 90
9, 132959, Note_on_c, 7, 50, 0
9, 132960, Note_on_c, 7, 52, 90
9, 133019, Note_on_c, 7, 52, 0
9, 133020, Note_on_c, 7, 45, 90
9, 133079, Note_on_c, 7, 45, 0
9, 133080, Note_on_c, 7, 49, 90
9, 133109, Note_on_c, 7, 49, 0
9, 133110, Note_on_c, 7, 47, 90
9, 133139, Note_on_c, 7, 47, 0
9, 133140, Note_on_c, 7, 49, 90
9, 133169, Note_on_c, 7, 49, 0
9, 133170, Note_on_c, 7, 45, 90
9, 133199, Note_on_c, 7, 45, 0
9, 133200, Note_on_c, 7, 47, 90
9, 133259, Note_on_c, 7, 47, 0
9, 133260, Note_on_c, 7, 50, 90
9, 133319, Note_on_c, 7, 50, 0
9, 133320, Note_on_c, 7, 54, 90
9, 133379, Note_on_c, 7, 54, 0
9, 133380, Note_on_c, 7, 44, 90
9, 133439, Note_on_c, 7, 44, 0
9, 133440, Note_on_c, 7, 47, 90
9, 133499, Note_on_c, 7, 47, 0
9, 133500, Note_on_c, 7, 52, 90
9, 133559, Note_on_c, 7, 52, 0
9, 133560, Note_on_c, 7, 45, 90
9, 133619, Note_on_c, 7, 45, 0
9, 133620, Note_on_c, 7, 49, 90
9, 133679, Note_on_c, 7, 49, 0
9, 133680, Note_on_c, 7, 52, 90
9, 133739, Note_on_c, 7, 52, 0
9, 133740, Note_on_c, 7, 49, 90
9, 133799, Note_on_c, 7, 49, 0
9, 133800, Note_on_c, 7, 52, 90
9, 133859, Note_on_c, 7, 52, 0
9, 133860, Note_on_c, 7, 57, 90
9, 133919, Note_on_c, 7, 57, 0
9, 133920, Note_on_c, 7, 50, 90
9, 133979, Note_on_c, 7, 50, 0
9, 133980, Note_on_c, 7, 54, 90
9, 134039, Note_on_c, 7, 54, 0
9, 134040, Note_on_c, 7, 57, 90
9, 134099, Note_on_c, 7, 57, 0
9, 134100, Note_on_c, 7, 51, 90
9, 134159, Note_on_c, 7, 51, 0
9, 134160, Note_on_c, 7, 54, 90
9, 134219, Note_on_c, 7, 54, 0
9, 134220, Note_on_c, 7, 59, 90
9, 134279, Note_on_c, 7, 59, 0
9, 134280, Note_on_c, 7, 52, 90
9, 134339, Note_on_c, 7, 52, 0
9, 134340, Note_on_c, 7, 56, 90
9, 134399, Note_on_c, 7, 56, 0
9, 134400, Note_on_c, 7, 59, 90
9, 134459, Note_on_c, 7, 59, 0
9, 134460, Note_on_c, 7, 50, 90
9, 134519, Note_on_c, 7, 50, 0
9, 134520, Note_on_c, 7, 56, 90
9, 134579, Note_on_c, 7, 56, 0
9, 134580, Note_on_c, 7, 59, 90
9, 134639, Note_on_c, 7, 59, 0
9, 134640, Note_on_c, 7, 47, 90
9, 134699, Note_on_c, 7, 47, 0
9, 134700, Note_on_c, 7, 50, 90
9, 134759, Note_on_c, 7, 50, 0
9, 134760, Note_on_c, 7, 56, 90
9, 134819, Note_on_c, 7, 56, 0
9, 134820, Note_on_c, 7, 44, 90
9, 134879, Note_on_c, 7, 44, 0
9, 134880, Note_on_c, 7, 47, 90
9, 134939, Note_on_c, 7, 47, 0
9, 134940, Note_on_c, 7, 52, 90
9, 134999, Note_on_c, 7, 52, 0
9, 135000, Note_on_c, 7, 45, 90
9, 135059, Note_on_c, 7, 45, 0
9, 135060, Note_on_c, 7, 54, 90
9, 135119, Note_on_c, 7, 54, 0
9, 135120, Note_on_c, 7, 50, 90
9, 135179, Note_on_c, 7, 50, 0
9, 135180, Note_on_c, 7, 49, 90
9, 135209, Note_on_c, 7, 49, 0
9, 135210, Note_on_c, 7, 47, 90
9, 135239, Note_on_c, 7, 47, 0
9, 135240, Note_on_c, 7, 49, 90
9, 135269, Note_on_c, 7, 49, 0
9, 135270, Note_on_c, 7, 50, 90
9, 135299, Note_on_c, 7, 50, 0
9, 135300, Note_on_c, 7, 52, 90
9, 135359, Note_on_c, 7, 52, 0
9, 135360, Note_on_c, 7, 45, 90
9, 135419, Note_on_c, 7, 45, 0
9, 135420, Note_on_c, 7, 49, 90
9, 135479, Note_on_c, 7, 49, 0
9, 135480, Note_on_c, 7, 52, 90
9, 135539, Note_on_c, 7, 52, 0
9, 135540, Note_on_c, 7, 57, 90
9, 135599, Note_on_c, 7, 57, 0
9, 135600, Note_on_c, 7, 49, 90
9, 135629, Note_on_c, 7, 49, 0
9, 135630, Note_on_c, 7, 47, 90
9, 135659, Note_on_c, 7, 47, 0
9, 135660, Note_on_c, 7, 49, 90
9, 135689, Note_on_c, 7, 49, 0
9, 135690, Note_on_c, 7, 45, 90
9, 135719, Note_on_c, 7, 45, 0
9, 135720, Note_on_c, 7, 50, 90
9, 135779, Note_on_c, 7, 50, 0
9, 135780, Note_on_c, 7, 54, 90
9, 135839, Note_on_c, 7, 54, 0
9, 135840, Note_on_c, 7, 57, 90
9, 135899, Note_on_c, 7, 57, 0
9, 135900, Note_on_c, 7, 50, 90
9, 135959, Note_on_c, 7, 50, 0
9, 135960, Note_on_c, 7, 54, 90
9, 135989, Note_on_c, 7, 54, 0
9, 135990, Note_on_c, 7, 52, 90
9, 136019, Note_on_c, 7, 52, 0
9, 136020, Note_on_c, 7, 54, 90
9, 136049, Note_on_c, 7, 54, 0
9, 136050, Note_on_c, 7, 50, 90
9, 136079, Note_on_c, 7, 50, 0
9, 136080, Note_on_c, 7, 55, 90
9, 136139, Note_on_c, 7, 55, 0
9, 136140, Note_on_c, 7, 59, 90
9, 136199, Note_on_c, 7, 59, 0
9, 136200, Note_on_c, 7, 62, 90
9, 136259, Note_on_c, 7, 62, 0
9, 136260, Note_on_c, 7, 55, 90
9, 136319, Note_on_c, 7, 55, 0
9, 136320, Note_on_c, 7, 59, 90
9, 136349, Note_on_c, 7, 59, 0
9, 136350, Note_on_c, 7, 57, 90
9, 136379, Note_on_c, 7, 57, 0
9, 136380, Note_on_c, 7, 59, 90
9, 136409, Note_on_c, 7, 59, 0
9, 136410, Note_on_c, 7, 55, 90
9, 136439, Note_on_c, 7, 55, 0
9, 136440, Note_on_c, 7, 52, 90
9, 136499, Note_on_c, 7, 52, 0
9, 136500, Note_on_c, 7, 55, 90
9, 136559, Note_on_c, 7, 55, 0
9, 136560, Note_on_c, 7, 59, 90
9, 136619, Note_on_c, 7, 59, 0
9, 136620, Note_on_c, 7, 52, 90
9, 136649, Note_on_c, 7, 52, 0
9, 136650, Note_on_c, 7, 51, 90
9, 136679, Note_on_c, 7, 51, 0
9, 136680, Note_on_c, 7, 52, 90
9, 136709, Note_on_c, 7, 52, 0
9, 136710, Note_on_c, 7, 54, 90
9, 136739, Note_on_c, 7, 54, 0
9, 136740, Note_on_c, 7, 55, 90
9, 136769, Note_on_c, 7, 55, 0
9, 136770, Note_on_c, 7, 52, 90
9, 136799, Note_on_c, 7, 52, 0
9, 136800, Note_on_c, 7, 54, 90
9, 136859, Note_on_c, 7, 54, 0
9, 136860, Note_on_c, 7, 56, 90
9, 136919, Note_on_c, 7, 56, 0
9, 136920, Note_on_c, 7, 52, 90
9, 136979, Note_on_c, 7, 52, 0
9, 136980, Note_on_c, 7, 57, 90
9, 137039, Note_on_c, 7, 57, 0
9, 137040, Note_on_c, 7, 45, 90
9, 137099, Note_on_c, 7, 45, 0
9, 137160, Note_on_c, 7, 50, 90
9, 137219, Note_on_c, 7, 50, 0
9, 137220, Note_on_c, 7, 54, 90
9, 137279, Note_on_c, 7, 54, 0
9, 137280, Note_on_c, 7, 57, 90
9, 137339, Note_on_c, 7, 57, 0
9, 137340, Note_on_c, 7, 50, 90
9, 137399, Note_on_c, 7, 50, 0
9, 137400, Note_on_c, 7, 54, 90
9, 137459, Note_on_c, 7, 54, 0
9, 137460, Note_on_c, 7, 57, 90
9, 137519, Note_on_c, 7, 57, 0
9, 137520, Note_on_c, 7, 49, 90
9, 137579, Note_on_c, 7, 49, 0
9, 137580, Note_on_c, 7, 52, 90
9, 137639, Note_on_c, 7, 52, 0
9, 137640, Note_on_c, 7, 57, 90
9, 137699, Note_on_c, 7, 57, 0
9, 137700, Note_on_c, 7, 49, 90
9, 137759, Note_on_c, 7, 49, 0
9, 137760, Note_on_c, 7, 52, 90
9, 137819, Note_on_c, 7, 52, 0
9, 137820, Note_on_c, 7, 57, 90
9, 137879, Note_on_c, 7, 57, 0
9, 137880, Note_on_c, 7, 50, 90
9, 137999, Note_on_c, 7, 50, 0
9, 138000, Note_on_c, 7, 52, 90
9, 138059, Note_on_c, 7, 52, 0
9, 138060, Note_on_c, 7, 54, 90
9, 138179, Note_on_c, 7, 54, 0
9, 138180, Note_on_c, 7, 55, 90
9, 138239, Note_on_c, 7, 55, 0
9, 138240, Note_on_c, 7, 57, 90
9, 138299, Note_on_c, 7, 57, 0
9, 138300, Note_on_c, 7, 55, 90
9, 138359, Note_on_c, 7, 55, 0
9, 138360, Note_on_c, 7, 57, 90
9, 138419, Note_on_c, 7, 57, 0
9, 138420, Note_on_c, 7, 50, 90
9, 138540, Note_on_c, 7, 50, 0
9, 138600, Note_on_c, 7, 50, 90
9, 138659, Note_on_c, 7, 50, 0
9, 138660, Note_on_c, 7, 54, 90
9, 138719, Note_on_c, 7, 54, 0
9, 138720, Note_on_c, 7, 57, 90
9, 138779, Note_on_c, 7, 57, 0
9, 138780, Note_on_c, 7, 50, 90
9, 138839, Note_on_c, 7, 50, 0
9, 138840, Note_on_c, 7, 54, 90
9, 138899, Note_on_c, 7, 54, 0
9, 138900, Note_on_c, 7, 57, 90
9, 138959, Note_on_c, 7, 57, 0
9, 138960, Note_on_c, 7, 49, 90
9, 139019, Note_on_c, 7, 49, 0
9, 139020, Note_on_c, 7, 52, 90
9, 139079, Note_on_c, 7, 52, 0
9, 139080, Note_on_c, 7, 57, 90
9, 139139, Note_on_c, 7, 57, 0
9, 139140, Note_on_c, 7, 49, 90
9, 139199, Note_on_c, 7, 49, 0
9, 139200, Note_on_c, 7, 52, 90
9, 139259, Note_on_c, 7, 52, 0
9, 139260, Note_on_c, 7, 57, 90
9, 139319, Note_on_c, 7, 57, 0
9, 139320, Note_on_c, 7, 50, 90
9, 139379, Note_on_c, 7, 50, 0
9, 139380, Note_on_c, 7, 54, 90
9, 139439, Note_on_c, 7, 54, 0
9, 139440, Note_on_c, 7, 57, 90
9, 139499, Note_on_c, 7, 57, 0
9, 139500, Note_on_c, 7, 50, 90
9, 139559, Note_on_c, 7, 50, 0
9, 139560, Note_on_c, 7, 54, 90
9, 139619, Note_on_c, 7, 54, 0
9, 139620, Note_on_c, 7, 57, 90
9, 139679, Note_on_c, 7, 57, 0
9, 139680, Note_on_c, 7, 45, 90
9, 139739, Note_on_c, 7, 45, 0
9, 139740, Note_on_c, 7, 57, 90
9, 139769, Note_on_c, 7, 57, 0
9, 139770, Note_on_c, 7, 56, 90
9, 139799, Note_on_c, 7, 56, 0
9, 139800, Note_on_c, 7, 57, 90
9, 139829, Note_on_c, 7, 57, 0
9, 139830, Note_on_c, 7, 52, 90
9, 139859, Note_on_c, 7, 52, 0
9, 139860, Note_on_c, 7, 49, 90
9, 139919, Note_on_c, 7, 49, 0
9, 139920, Note_on_c, 7, 47, 90
9, 139979, Note_on_c, 7, 47, 0
9, 139980, Note_on_c, 7, 45, 90
9, 140039, Note_on_c, 7, 45, 0
9, 140040, Note_on_c, 7, 47, 90
9, 140099, Note_on_c, 7, 47, 0
9, 140100, Note_on_c, 7, 50, 90
9, 140159, Note_on_c, 7, 50, 0
9, 140160, Note_on_c, 7, 55, 90
9, 140219, Note_on_c, 7, 55, 0
9, 140220, Note_on_c, 7, 49, 90
9, 140279, Note_on_c, 7, 49, 0
9, 140280, Note_on_c, 7, 52, 90
9, 140339, Note_on_c, 7, 52, 0
9, 140340, Note_on_c, 7, 57, 90
9, 140399, Note_on_c, 7, 57, 0
9, 140400, Note_on_c, 7, 50, 90
9, 140459, Note_on_c, 7, 50, 0
9, 140460, Note_on_c, 7, 54, 90
9, 140519, Note_on_c, 7, 54, 0
9, 140520, Note_on_c, 7, 57, 90
9, 140579, Note_on_c, 7, 57, 0
9, 140580, Note_on_c, 7, 54, 90
9, 140639, Note_on_c, 7, 54, 0
9, 140640, Note_on_c, 7, 57, 90
9, 140699, Note_on_c, 7, 57, 0
9, 140700, Note_on_c, 7, 62, 90
9, 140759, Note_on_c, 7, 62, 0
9, 140760, Note_on_c, 7, 55, 90
9, 140819, Note_on_c, 7, 55, 0
9, 140820, Note_on_c, 7, 59, 90
9, 140879, Note_on_c, 7, 59, 0
9, 140880, Note_on_c, 7, 62, 90
9, 140939, Note_on_c, 7, 62, 0
9, 140940, Note_on_c, 7, 56, 90
9, 140999, Note_on_c, 7, 56, 0
9, 141000, Note_on_c, 7, 59, 90
9, 141059, Note_on_c, 7, 59, 0
9, 141060, Note_on_c, 7, 64, 90
9, 141119, Note_on_c, 7, 64, 0
9, 141120, Note_on_c, 7, 57, 90
9, 141179, Note_on_c, 7, 57, 0
9, 141180, Note_on_c, 7, 61, 90
9, 141239, Note_on_c, 7, 61, 0
9, 141240, Note_on_c, 7, 64, 90
9, 141299, Note_on_c, 7, 64, 0
9, 141300, Note_on_c, 7, 55, 90
9, 141359, Note_on_c, 7, 55, 0
9, 141360, Note_on_c, 7, 61, 90
9, 141419, Note_on_c, 7, 61, 0
9, 141420, Note_on_c, 7, 64, 90
9, 141479, Note_on_c, 7, 64, 0
9, 141480, Note_on_c, 7, 52, 90
9, 141539, Note_on_c, 7, 52, 0
9, 141540, Note_on_c, 7, 55, 90
9, 141599, Note_on_c, 7, 55, 0
9, 141600, Note_on_c, 7, 61, 90
9, 141659, Note_on_c, 7, 61, 0
9, 141660, Note_on_c, 7, 49, 90
9, 141719, Note_on_c, 7, 49, 0
9, 141720, Note_on_c, 7, 52, 90
9, 141779, Note_on_c, 7, 52, 0
9, 141780, Note_on_c, 7, 57, 90
9, 141839, Note_on_c, 7, 57, 0
9, 141840, Note_on_c, 7, 50, 90
9, 141899, Note_on_c, 7, 50, 0
9, 141900, Note_on_c, 7, 59, 90
9, 141959, Note_on_c, 7, 59, 0
9, 141960, Note_on_c, 7, 55, 90
9, 142019, Note_on_c, 7, 55, 0
9, 142020, Note_on_c, 7, 54, 90
9, 142049, Note_on_c, 7, 54, 0
9, 142050, Note_on_c, 7, 52, 90
9, 142079, Note_on_c, 7, 52, 0
9, 142080, Note_on_c, 7, 54, 90
9, 142109, Note_on_c, 7, 54, 0
9, 142110, Note_on_c, 7, 55, 90
9, 142139, Note_on_c, 7, 55, 0
9, 142140, Note_on_c, 7, 57, 90
9, 142199, Note_on_c, 7, 57, 0
9, 142200, Note_on_c, 7, 50, 90
9, 142259, Note_on_c, 7, 50, 0
9, 142260, Note_on_c, 7, 42, 90
9, 142319, Note_on_c, 7, 42, 0
9, 142320, Note_on_c, 7, 45, 90
9, 142379, Note_on_c, 7, 45, 0
9, 142380, Note_on_c, 7, 38, 90
9, 142499, Note_on_c, 7, 38, 0
9, 142500, Note_on_c, 7, 54, 90
9, 142559, Note_on_c, 7, 54, 0
9, 142560, Note_on_c, 7, 47, 90
9, 142619, Note_on_c, 7, 47, 0
9, 142620, Note_on_c, 7, 50, 90
9, 142679, Note_on_c, 7, 50, 0
9, 142680, Note_on_c, 7, 54, 90
9, 142739, Note_on_c, 7, 54, 0
9, 142740, Note_on_c, 7, 59, 90
9, 142799, Note_on_c, 7, 59, 0
9, 142800, Note_on_c, 7, 56, 90
9, 142829, Note_on_c, 7, 56, 0
9, 142830, Note_on_c, 7, 54, 90
9, 142859, Note_on_c, 7, 54, 0
9, 142860, Note_on_c, 7, 56, 90
9, 142889, Note_on_c, 7, 56, 0
9, 142890, Note_on_c, 7, 52, 90
9, 142919, Note_on_c, 7, 52, 0
9, 142920, Note_on_c, 7, 45, 90
9, 142979, Note_on_c, 7, 45, 0
9, 142980, Note_on_c, 7, 49, 90
9, 143039, Note_on_c, 7, 49, 0
9, 143040, Note_on_c, 7, 52, 90
9, 143099, Note_on_c, 7, 52, 0
9, 143100, Note_on_c, 7, 57, 90
9, 143159, Note_on_c, 7, 57, 0
9, 143160, Note_on_c, 7, 49, 90
9, 143189, Note_on_c, 7, 49, 0
9, 143190, Note_on_c, 7, 47, 90
9, 143219, Note_on_c, 7, 47, 0
9, 143220, Note_on_c, 7, 49, 90
9, 143249, Note_on_c, 7, 49, 0
9, 143250, Note_on_c, 7, 45, 90
9, 143279, Note_on_c, 7, 45, 0
9, 143280, Note_on_c, 7, 47, 90
9, 143339, Note_on_c, 7, 47, 0
9, 143340, Note_on_c, 7, 50, 90
9, 143399, Note_on_c, 7, 50, 0
9, 143400, Note_on_c, 7, 56, 90
9, 143459, Note_on_c, 7, 56, 0
9, 143460, Note_on_c, 7, 45, 90
9, 143519, Note_on_c, 7, 45, 0
9, 143520, Note_on_c, 7, 49, 90
9, 143579, Note_on_c, 7, 49, 0
9, 143580, Note_on_c, 7, 54, 90
9, 143639, Note_on_c, 7, 54, 0
9, 143640, Note_on_c, 7, 44, 90
9, 143699, Note_on_c, 7, 44, 0
9, 143700, Note_on_c, 7, 45, 90
9, 143729, Note_on_c, 7, 45, 0
9, 143730, Note_on_c, 7, 44, 90
9, 143759, Note_on_c, 7, 44, 0
9, 143760, Note_on_c, 7, 45, 90
9, 143789, Note_on_c, 7, 45, 0
9, 143790, Note_on_c, 7, 42, 90
9, 143819, Note_on_c, 7, 42, 0
9, 143820, Note_on_c, 7, 49, 90
9, 143849, Note_on_c, 7, 49, 0
9, 143850, Note_on_c, 7, 50, 90
9, 143879, Note_on_c, 7, 50, 0
9, 143880, Note_on_c, 7, 49, 90
9, 143909, Note_on_c, 7, 49, 0
9, 143910, Note_on_c, 7, 47, 90
9, 143939, Note_on_c, 7, 47, 0
9, 143940, Note_on_c, 7, 45, 90
9, 143969, Note_on_c, 7, 45, 0
9, 143970, Note_on_c, 7, 44, 90
9, 143999, Note_on_c, 7, 44, 0
9, 144000, Note_on_c, 7, 42, 90
9, 144059, Note_on_c, 7, 42, 0
9, 144060, Note_on_c, 7, 45, 90
9, 144119, Note_on_c, 7, 45, 0
9, 144120, Note_on_c, 7, 49, 90
9, 144179, Note_on_c, 7, 49, 0
9, 144180, Note_on_c, 7, 42, 90
9, 144239, Note_on_c, 7, 42, 0
9, 144240, Note_on_c, 7, 45, 90
9, 144299, Note_on_c, 7, 45, 0
9, 144300, Note_on_c, 7, 49, 90
9, 144359, Note_on_c, 7, 49, 0
9, 144360, Note_on_c, 7, 41, 90
9, 144419, Note_on_c, 7, 41, 0
9, 144420, Note_on_c, 7, 44, 90
9, 144479, Note_on_c, 7, 44, 0
9, 144480, Note_on_c, 7, 49, 90
9, 144539, Note_on_c, 7, 49, 0
9, 144540, Note_on_c, 7, 41, 90
9, 144599, Note_on_c, 7, 41, 0
9, 144600, Note_on_c, 7, 44, 90
9, 144659, Note_on_c, 7, 44, 0
9, 144660, Note_on_c, 7, 49, 90
9, 144719, Note_on_c, 7, 49, 0
9, 144720, Note_on_c, 7, 42, 90
9, 144839, Note_on_c, 7, 42, 0
9, 144840, Note_on_c, 7, 54, 90
9, 144899, Note_on_c, 7, 54, 0
9, 144900, Note_on_c, 7, 59, 90
9, 145019, Note_on_c, 7, 59, 0
9, 145020, Note_on_c, 7, 47, 90
9, 145079, Note_on_c, 7, 47, 0
9, 145080, Note_on_c, 7, 49, 90
9, 145139, Note_on_c, 7, 49, 0
9, 145140, Note_on_c, 7, 47, 90
9, 145199, Note_on_c, 7, 47, 0
9, 145200, Note_on_c, 7, 49, 90
9, 145259, Note_on_c, 7, 49, 0
9, 145260, Note_on_c, 7, 54, 90
9, 145319, Note_on_c, 7, 54, 0
9, 145320, Note_on_c, 7, 57, 90
9, 145379, Note_on_c, 7, 57, 0
9, 145380, Note_on_c, 7, 61, 90
9, 145439, Note_on_c, 7, 61, 0
9, 145440, Note_on_c, 7, 51, 90
9, 145499, Note_on_c, 7, 51, 0
9, 145500, Note_on_c, 7, 54, 90
9, 145559, Note_on_c, 7, 54, 0
9, 145560, Note_on_c, 7, 59, 90
9, 145619, Note_on_c, 7, 59, 0
9, 145620, Note_on_c, 7, 53, 90
9, 145679, Note_on_c, 7, 53, 0
9, 145680, Note_on_c, 7, 56, 90
9, 145739, Note_on_c, 7, 56, 0
9, 145740, Note_on_c, 7, 61, 90
9, 145799, Note_on_c, 7, 61, 0
9, 145800, Note_on_c, 7, 54, 90
9, 145859, Note_on_c, 7, 54, 0
9, 145860, Note_on_c, 7, 57, 90
9, 145919, Note_on_c, 7, 57, 0
9, 145920, Note_on_c, 7, 61, 90
9, 145979, Note_on_c, 7, 61, 0
9, 145980, Note_on_c, 7, 50, 90
9, 146039, Note_on_c, 7, 50, 0
9, 146040, Note_on_c, 7, 54, 90
9, 146099, Note_on_c, 7, 54, 0
9, 146100, Note_on_c, 7, 57, 90
9, 146159, Note_on_c, 7, 57, 0
9, 146160, Note_on_c, 7, 47, 90
9, 146219, Note_on_c, 7, 47, 0
9, 146220, Note_on_c, 7, 50, 90
9, 146279, Note_on_c, 7, 50, 0
9, 146280, Note_on_c, 7, 56, 90
9, 146339, Note_on_c, 7, 56, 0
9, 146340, Note_on_c, 7, 48, 90
9, 146399, Note_on_c, 7, 48, 0
9, 146400, Note_on_c, 7, 51, 90
9, 146459, Note_on_c, 7, 51, 0
9, 146460, Note_on_c, 7, 56, 90
9, 146519, Note_on_c, 7, 56, 0
9, 146520, Note_on_c, 7, 49, 90
9, 146579, Note_on_c, 7, 49, 0
9, 146580, Note_on_c, 7, 53, 90
9, 146639, Note_on_c, 7, 53, 0
9, 146640, Note_on_c, 7, 56, 90
9, 146699, Note_on_c, 7, 56, 0
9, 146700, Note_on_c, 7, 47, 90
9, 146759, Note_on_c, 7, 47, 0
9, 146760, Note_on_c, 7, 50, 90
9, 146819, Note_on_c, 7, 50, 0
9, 146820, Note_on_c, 7, 56, 90
9, 146879, Note_on_c, 7, 56, 0
9, 146880, Note_on_c, 7, 44, 90
9, 146939, Note_on_c, 7, 44, 0
9, 146940, Note_on_c, 7, 47, 90
9, 146999, Note_on_c, 7, 47, 0
9, 147000, Note_on_c, 7, 50, 90
9, 147059, Note_on_c, 7, 50, 0
9, 147060, Note_on_c, 7, 41, 90
9, 147119, Note_on_c, 7, 41, 0
9, 147120, Note_on_c, 7, 44, 90
9, 147179, Note_on_c, 7, 44, 0
9, 147180, Note_on_c, 7, 49, 90
9, 147239, Note_on_c, 7, 49, 0
9, 147240, Note_on_c, 7, 42, 90
9, 147299, Note_on_c, 7, 42, 0
9, 147300, Note_on_c, 7, 50, 90
9, 147359, Note_on_c, 7, 50, 0
9, 147360, Note_on_c, 7, 47, 90
9, 147419, Note_on_c, 7, 47, 0
9, 147420, Note_on_c, 7, 45, 90
9, 147449, Note_on_c, 7, 45, 0
9, 147450, Note_on_c, 7, 44, 90
9, 147479, Note_on_c, 7, 44, 0
9, 147480, Note_on_c, 7, 45, 90
9, 147509, Note_on_c, 7, 45, 0
9, 147510, Note_on_c, 7, 47, 90
9, 147539, Note_on_c, 7, 47, 0
9, 147540, Note_on_c, 7, 49, 90
9, 147599, Note_on_c, 7, 49, 0
9, 147600, Note_on_c, 7, 42, 90
9, 147659, Note_on_c, 7, 42, 0
9, 147660, Note_on_c, 7, 45, 90
9, 147719, Note_on_c, 7, 45, 0
9, 147720, Note_on_c, 7, 49, 90
9, 147779, Note_on_c, 7, 49, 0
9, 147780, Note_on_c, 7, 54, 90
9, 147839, Note_on_c, 7, 54, 0
9, 147840, Note_on_c, 7, 57, 90
9, 147869, Note_on_c, 7, 57, 0
9, 147870, Note_on_c, 7, 56, 90
9, 147899, Note_on_c, 7, 56, 0
9, 147900, Note_on_c, 7, 57, 90
9, 147929, Note_on_c, 7, 57, 0
9, 147930, Note_on_c, 7, 54, 90
9, 147959, Note_on_c, 7, 54, 0
9, 147960, Note_on_c, 7, 53, 90
9, 148019, Note_on_c, 7, 53, 0
9, 148020, Note_on_c, 7, 56, 90
9, 148079, Note_on_c, 7, 56, 0
9, 148080, Note_on_c, 7, 61, 90
9, 148139, Note_on_c, 7, 61, 0
9, 148140, Note_on_c, 7, 54, 90
9, 148199, Note_on_c, 7, 54, 0
9, 148200, Note_on_c, 7, 57, 90
9, 148229, Note_on_c, 7, 57, 0
9, 148230, Note_on_c, 7, 56, 90
9, 148259, Note_on_c, 7, 56, 0
9, 148260, Note_on_c, 7, 57, 90
9, 148289, Note_on_c, 7, 57, 0
9, 148290, Note_on_c, 7, 54, 90
9, 148319, Note_on_c, 7, 54, 0
9, 148320, Note_on_c, 7, 56, 90
9, 148379, Note_on_c, 7, 56, 0
9, 148380, Note_on_c, 7, 59, 90
9, 148439, Note_on_c, 7, 59, 0
9, 148440, Note_on_c, 7, 64, 90
9, 148499, Note_on_c, 7, 64, 0
9, 148500, Note_on_c, 7, 57, 90
9, 148559, Note_on_c, 7, 57, 0
9, 148560, Note_on_c, 7, 61, 90
9, 148589, Note_on_c, 7, 61, 0
9, 148590, Note_on_c, 7, 59, 90
9, 148619, Note_on_c, 7, 59, 0
9, 148620, Note_on_c, 7, 61, 90
9, 148649, Note_on_c, 7, 61, 0
9, 148650, Note_on_c, 7, 57, 90
9, 148679, Note_on_c, 7, 57, 0
9, 148680, Note_on_c, 7, 62, 90
9, 148739, Note_on_c, 7, 62, 0
9, 148740, Note_on_c, 7, 59, 90
9, 148799, Note_on_c, 7, 59, 0
9, 148800, Note_on_c, 7, 56, 90
9, 148859, Note_on_c, 7, 56, 0
9, 148860, Note_on_c, 7, 61, 90
9, 148919, Note_on_c, 7, 61, 0
9, 148920, Note_on_c, 7, 58, 90
9, 148979, Note_on_c, 7, 58, 0
9, 148980, Note_on_c, 7, 54, 90
9, 149039, Note_on_c, 7, 54, 0
9, 149040, Note_on_c, 7, 59, 90
9, 149099, Note_on_c, 7, 59, 0
9, 149100, Note_on_c, 7, 55, 90
9, 149159, Note_on_c, 7, 55, 0
9, 149160, Note_on_c, 7, 52, 90
9, 149219, Note_on_c, 7, 52, 0
9, 149220, Note_on_c, 7, 54, 90
9, 149279, Note_on_c, 7, 54, 0
9, 149280, Note_on_c, 7, 52, 90
9, 149309, Note_on_c, 7, 52, 0
9, 149310, Note_on_c, 7, 50, 90
9, 149339, Note_on_c, 7, 50, 0
9, 149340, Note_on_c, 7, 52, 90
9, 149369, Note_on_c, 7, 52, 0
9, 149370, Note_on_c, 7, 49, 90
9, 149399, Note_on_c, 7, 49, 0
9, 149400, Note_on_c, 7, 50, 90
9, 149459, Note_on_c, 7, 50, 0
9, 149460, Note_on_c, 7, 54, 90
9, 149519, Note_on_c, 7, 54, 0
9, 149520, Note_on_c, 7, 59, 90
9, 149579, Note_on_c, 7, 59, 0
9, 149580, Note_on_c, 7, 47, 90
9, 149639, Note_on_c, 7, 47, 0
9, 149640, Note_on_c, 7, 50, 90
9, 149699, Note_on_c, 7, 50, 0
9, 149700, Note_on_c, 7, 54, 90
9, 149759, Note_on_c, 7, 54, 0
9, 149760, Note_on_c, 7, 46, 90
9, 149999, Note_on_c, 7, 46, 0
9, 150000, Note_on_c, 7, 54, 90
9, 150059, Note_on_c, 7, 54, 0
9, 150060, Note_on_c, 7, 52, 90
9, 150119, Note_on_c, 7, 52, 0
9, 150120, Note_on_c, 7, 50, 90
9, 150179, Note_on_c, 7, 50, 0
9, 150180, Note_on_c, 7, 49, 90
9, 150239, Note_on_c, 7, 49, 0
9, 150240, Note_on_c, 7, 47, 90
9, 150299, Note_on_c, 7, 47, 0
9, 150300, Note_on_c, 7, 52, 90
9, 150419, Note_on_c, 7, 52, 0
9, 150420, Note_on_c, 7, 40, 90
9, 150479, Note_on_c, 7, 40, 0
9, 150480, Note_on_c, 7, 42, 90
9, 150539, Note_on_c, 7, 42, 0
9, 150540, Note_on_c, 7, 40, 90
9, 150599, Note_on_c, 7, 40, 0
9, 150600, Note_on_c, 7, 42, 90
9, 150659, Note_on_c, 7, 42, 0
9, 150660, Note_on_c, 7, 47, 90
9, 150779, Note_on_c, 7, 47, 0
9, 150840, Note_on_c, 7, 54, 90
9, 151320, Note_on_c, 7, 54, 0
9, 151320, Note_on_c, 7, 55, 90
9, 151800, Note_on_c, 7, 55, 0
9, 151800, Note_on_c, 7, 47, 90
9, 152280, Note_on_c, 7, 47, 0
9, 152280, Note_on_c, 7, 48, 90
9, 152520, Note_on_c, 7, 48, 0
9, 152520, Note_on_c, 7, 44, 90
9, 152790, Note_on_c, 7, 44, 0
9, 152790, Note_on_c, 7, 65, 90
9, 152819, Note_on_c, 7, 65, 0
9, 152820, Note_on_c, 7, 62, 90
9, 152849, Note_on_c, 7, 62, 0
9, 152850, Note_on_c, 7, 59, 90
9, 152879, Note_on_c, 7, 59, 0
9, 152880, Note_on_c, 7, 56, 90
9, 152909, Note_on_c, 7, 56, 0
9, 152910, Note_on_c, 7, 59, 90
9, 152939, Note_on_c, 7, 59, 0
9, 152940, Note_on_c, 7, 56, 90
9, 152969, Note_on_c, 7, 56, 0
9, 152970, Note_on_c, 7, 52, 90
9, 152999, Note_on_c, 7, 52, 0
9, 153000, Note_on_c, 7, 45, 90
9, 153029, Note_on_c, 7, 45, 0
9, 153030, Note_on_c, 7, 64, 90
9, 153059, Note_on_c, 7, 64, 0
9, 153060, Note_on_c, 7, 61, 90
9, 153089, Note_on_c, 7, 61, 0
9, 153090, Note_on_c, 7, 57, 90
9, 153119, Note_on_c, 7, 57, 0
9, 153120, Note_on_c, 7, 54, 90
9, 153149, Note_on_c, 7, 54, 0
9, 153150, Note_on_c, 7, 57, 90
9, 153179, Note_on_c, 7, 57, 0
9, 153180, Note_on_c, 7, 54, 90
9, 153209, Note_on_c, 7, 54, 0
9, 153210, Note_on_c, 7, 50, 90
9, 153239, Note_on_c, 7, 50, 0
9, 153240, Note_on_c, 7, 43, 90
9, 153269, Note_on_c, 7, 43, 0
9, 153270, Note_on_c, 7, 55, 90
9, 153299, Note_on_c, 7, 55, 0
9, 153300, Note_on_c, 7, 52, 90
9, 153329, Note_on_c, 7, 52, 0
9, 153330, Note_on_c, 7, 49, 90
9, 153359, Note_on_c, 7, 49, 0
9, 153360, Note_on_c, 7, 50, 90
9, 153419, Note_on_c, 7, 50, 0
9, 153420, Note_on_c, 7, 38, 90
9, 153479, Note_on_c, 7, 38, 0
9, 153480, Note_on_c, 7, 43, 90
9, 153719, Note_on_c, 7, 43, 0
9, 153960, Note_on_c, 7, 55, 90
9, 154055, Note_on_c, 7, 55, 0
9, 154080, Note_on_c, 7, 52, 90
9, 154175, Note_on_c, 7, 52, 0
9, 154200, Note_on_c, 7, 47, 90
9, 154295, Note_on_c, 7, 47, 0
9, 154320, Note_on_c, 7, 48, 90
9, 154415, Note_on_c, 7, 48, 0
9, 154440, Note_on_c, 7, 45, 90
9, 154535, Note_on_c, 7, 45, 0
9, 154560, Note_on_c, 7, 43, 90
9, 154655, Note_on_c, 7, 43, 0
9, 154680, Note_on_c, 7, 50, 90
9, 154775, Note_on_c, 7, 50, 0
9, 154800, Note_on_c, 7, 48, 90
9, 154895, Note_on_c, 7, 48, 0
9, 154920, Note_on_c, 7, 47, 90
9, 155015, Note_on_c, 7, 47, 0
9, 155040, Note_on_c, 7, 50, 90
9, 155135, Note_on_c, 7, 50, 0
9, 155160, Note_on_c, 7, 52, 90
9, 155255, Note_on_c, 7, 52, 0
9, 155280, Note_on_c, 7, 48, 90
9, 155375, Note_on_c, 7, 48, 0
9, 155400, Note_on_c, 7, 50, 90
9, 155495, Note_on_c, 7, 50, 0
9, 155520, Note_on_c, 7, 38, 90
9, 155615, Note_on_c, 7, 38, 0
9, 155640, Note_on_c, 7, 43, 90
9, 155831, Note_on_c, 7, 43, 0
9, 155880, Note_on_c, 7, 55, 90
9, 155975, Note_on_c, 7, 55, 0
9, 156000, Note_on_c, 7, 52, 90
9, 156095, Note_on_c, 7, 52, 0
9, 156120, Note_on_c, 7, 57, 90
9, 156215, Note_on_c, 7, 57, 0
9, 156240, Note_on_c, 7, 54, 90
9, 156335, Note_on_c, 7, 54, 0
9, 156360, Note_on_c, 7, 52, 90
9, 156455, Note_on_c, 7, 52, 0
9, 156480, Note_on_c, 7, 50, 90
9, 156575, Note_on_c, 7, 50, 0
9, 156600, Note_on_c, 7, 57, 90
9, 156695, Note_on_c, 7, 57, 0
9, 156720, Note_on_c, 7, 55, 90
9, 156815, Note_on_c, 7, 55, 0
9, 156840, Note_on_c, 7, 54, 90
9, 156935, Note_on_c, 7, 54, 0
9, 156960, Note_on_c, 7, 57, 90
9, 157055, Note_on_c, 7, 57, 0
9, 157080, Note_on_c, 7, 59, 90
9, 157175, Note_on_c, 7, 59, 0
9, 157200, Note_on_c, 7, 55, 90
9, 157295, Note_on_c, 7, 55, 0
9, 157320, Note_on_c, 7, 57, 90
9, 157415, Note_on_c, 7, 57, 0
9, 157440, Note_on_c, 7, 45, 90
9, 157535, Note_on_c, 7, 45, 0
9, 157560, Note_on_c, 7, 50, 90
9, 157703, Note_on_c, 7, 50, 0
9, 157740, Note_on_c, 7, 48, 90
9, 157787, Note_on_c, 7, 48, 0
9, 157800, Note_on_c, 7, 47, 90
9, 157895, Note_on_c, 7, 47, 0
9, 157920, Note_on_c, 7, 43, 90
9, 158015, Note_on_c, 7, 43, 0
9, 158040, Note_on_c, 7, 48, 90
9, 158135, Note_on_c, 7, 48, 0
9, 158160, Note_on_c, 7, 60, 90
9, 158255, Note_on_c, 7, 60, 0
9, 158280, Note_on_c, 7, 56, 90
9, 158375, Note_on_c, 7, 56, 0
9, 158400, Note_on_c, 7, 52, 90
9, 158495, Note_on_c, 7, 52, 0
9, 158520, Note_on_c, 7, 57, 90
9, 158615, Note_on_c, 7, 57, 0
9, 158640, Note_on_c, 7, 55, 90
9, 158735, Note_on_c, 7, 55, 0
9, 158760, Note_on_c, 7, 54, 90
9, 158855, Note_on_c, 7, 54, 0
9, 158880, Note_on_c, 7, 50, 90
9, 158975, Note_on_c, 7, 50, 0
9, 159000, Note_on_c, 7, 55, 90
9, 159095, Note_on_c, 7, 55, 0
9, 159120, Note_on_c, 7, 52, 90
9, 159215, Note_on_c, 7, 52, 0
9, 159240, Note_on_c, 7, 57, 90
9, 159335, Note_on_c, 7, 57, 0
9, 159360, Note_on_c, 7, 45, 90
9, 159455, Note_on_c, 7, 45, 0
9, 159480, Note_on_c, 7, 50, 90
9, 159575, Note_on_c, 7, 50, 0
9, 159600, Note_on_c, 7, 52, 90
9, 159695, Note_on_c, 7, 52, 0
9, 159720, Note_on_c, 7, 54, 90
9, 159815, Note_on_c, 7, 54, 0
9, 159840, Note_on_c, 7, 50, 90
9, 159935, Note_on_c, 7, 50, 0
9, 159960, Note_on_c, 7, 55, 90
9, 160055, Note_on_c, 7, 55, 0
9, 160080, Note_on_c, 7, 53, 90
9, 160175, Note_on_c, 7, 53, 0
9, 160200, Note_on_c, 7, 52, 90
9, 160295, Note_on_c, 7, 52, 0
9, 160320, Note_on_c, 7, 50, 90
9, 160415, Note_on_c, 7, 50, 0
9, 160440, Note_on_c, 7, 48, 90
9, 160535, Note_on_c, 7, 48, 0
9, 160560, Note_on_c, 7, 47, 90
9, 160655, Note_on_c, 7, 47, 0
9, 160680, Note_on_c, 7, 48, 90
9, 160775, Note_on_c, 7, 48, 0
9, 160800, Note_on_c, 7, 45, 90
9, 160895, Note_on_c, 7, 45, 0
9, 160920, Note_on_c, 7, 47, 90
9, 161015, Note_on_c, 7, 47, 0
9, 161040, Note_on_c, 7, 45, 90
9, 161087, Note_on_c, 7, 45, 0
9, 161100, Note_on_c, 7, 43, 90
9, 161147, Note_on_c, 7, 43, 0
9, 161160, Note_on_c, 7, 50, 90
9, 161255, Note_on_c, 7, 50, 0
9, 161280, Note_on_c, 7, 38, 90
9, 161375, Note_on_c, 7, 38, 0
9, 161400, Note_on_c, 7, 43, 90
9, 161591, Note_on_c, 7, 43, 0
9, 161640, Note_on_c, 7, 55, 90
9, 161735, Note_on_c, 7, 55, 0
9, 161760, Note_on_c, 7, 52, 90
9, 161855, Note_on_c, 7, 52, 0
9, 161880, Note_on_c, 7, 47, 90
9, 161975, Note_on_c, 7, 47, 0
9, 162000, Note_on_c, 7, 48, 90
9, 162095, Note_on_c, 7, 48, 0
9, 162120, Note_on_c, 7, 45, 90
9, 162215, Note_on_c, 7, 45, 0
9, 162240, Note_on_c, 7, 43, 90
9, 162335, Note_on_c, 7, 43, 0
9, 162360, Note_on_c, 7, 50, 90
9, 162455, Note_on_c, 7, 50, 0
9, 162480, Note_on_c, 7, 48, 90
9, 162575, Note_on_c, 7, 48, 0
9, 162600, Note_on_c, 7, 47, 90
9, 162695, Note_on_c, 7, 47, 0
9, 162720, Note_on_c, 7, 50, 90
9, 162815, Note_on_c, 7, 50, 0
9, 162840, Note_on_c, 7, 52, 90
9, 162935, Note_on_c, 7, 52, 0
9, 162960, Note_on_c, 7, 48, 90
9, 163055, Note_on_c, 7, 48, 0
9, 163080, Note_on_c, 7, 50, 90
9, 163175, Note_on_c, 7, 50, 0
9, 163200, Note_on_c, 7, 38, 90
9, 163295, Note_on_c, 7, 38, 0
9, 163320, Note_on_c, 7, 43, 90
9, 163415, Note_on_c, 7, 43, 0
9, 163440, Note_on_c, 7, 50, 90
9, 163535, Note_on_c, 7, 50, 0
9, 163560, Note_on_c, 7, 55, 90
9, 163655, Note_on_c, 7, 55, 0
9, 163680, Note_on_c, 7, 52, 90
9, 163775, Note_on_c, 7, 52, 0
9, 163800, Note_on_c, 7, 57, 90
9, 163895, Note_on_c, 7, 57, 0
9, 163920, Note_on_c, 7, 54, 90
9, 164015, Note_on_c, 7, 54, 0
9, 164040, Note_on_c, 7, 52, 90
9, 164135, Note_on_c, 7, 52, 0
9, 164160, Note_on_c, 7, 50, 90
9, 164255, Note_on_c, 7, 50, 0
9, 164280, Note_on_c, 7, 57, 90
9, 164375, Note_on_c, 7, 57, 0
9, 164400, Note_on_c, 7, 55, 90
9, 164495, Note_on_c, 7, 55, 0
9, 164520, Note_on_c, 7, 57, 90
9, 164615, Note_on_c, 7, 57, 0
9, 164640, Note_on_c, 7, 54, 90
9, 164735, Note_on_c, 7, 54, 0
9, 164760, Note_on_c, 7, 59, 90
9, 164855, Note_on_c, 7, 59, 0
9, 164880, Note_on_c, 7, 55, 90
9, 164975, Note_on_c, 7, 55, 0
9, 165000, Note_on_c, 7, 57, 90
9, 165095, Note_on_c, 7, 57, 0
9, 165120, Note_on_c, 7, 45, 90
9, 165215, Note_on_c, 7, 45, 0
9, 165240, Note_on_c, 7, 50, 90
9, 165335, Note_on_c, 7, 50, 0
9, 165360, Note_on_c, 7, 48, 90
9, 165455, Note_on_c, 7, 48, 0
9, 165480, Note_on_c, 7, 47, 90
9, 165575, Note_on_c, 7, 47, 0
9, 165600, Note_on_c, 7, 43, 90
9, 165695, Note_on_c, 7, 43, 0
9, 165720, Note_on_c, 7, 48, 90
9, 165815, Note_on_c, 7, 48, 0
9, 165840, Note_on_c, 7, 60, 90
9, 165935, Note_on_c, 7, 60, 0
9, 165960, Note_on_c, 7, 56, 90
9, 166055, Note_on_c, 7, 56, 0
9, 166080, Note_on_c, 7, 52, 90
9, 166175, Note_on_c, 7, 52, 0
9, 166200, Note_on_c, 7, 57, 90
9, 166295, Note_on_c, 7, 57, 0
9, 166320, Note_on_c, 7, 55, 90
9, 166415, Note_on_c, 7, 55, 0
9, 166440, Note_on_c, 7, 54, 90
9, 166535, Note_on_c, 7, 54, 0
9, 166560, Note_on_c, 7, 50, 90
9, 166655, Note_on_c, 7, 50, 0
9, 166680, Note_on_c, 7, 55, 90
9, 166775, Note_on_c, 7, 55, 0
9, 166800, Note_on_c, 7, 52, 90
9, 166895, Note_on_c, 7, 52, 0
9, 166920, Note_on_c, 7, 57, 90
9, 167015, Note_on_c, 7, 57, 0
9, 167040, Note_on_c, 7, 45, 90
9, 167135, Note_on_c, 7, 45, 0
9, 167160, Note_on_c, 7, 50, 90
9, 167255, Note_on_c, 7, 50, 0
9, 167280, Note_on_c, 7, 52, 90
9, 167375, Note_on_c, 7, 52, 0
9, 167400, Note_on_c, 7, 54, 90
9, 167495, Note_on_c, 7, 54, 0
9, 167520, Note_on_c, 7, 50, 90
9, 167615, Note_on_c, 7, 50, 0
9, 167640, Note_on_c, 7, 55, 90
9, 167735, Note_on_c, 7, 55, 0
9, 167760, Note_on_c, 7, 53, 90
9, 167855, Note_on_c, 7, 53, 0
9, 167880, Note_on_c, 7, 52, 90
9, 167975, Note_on_c, 7, 52, 0
9, 168000, Note_on_c, 7, 50, 90
9, 168095, Note_on_c, 7, 50, 0
9, 168120, Note_on_c, 7, 48, 90
9, 168215, Note_on_c, 7, 48, 0
9, 168240, Note_on_c, 7, 50, 90
9, 168335, Note_on_c, 7, 50, 0
9, 168360, Note_on_c, 7, 52, 90
9, 168455, Note_on_c, 7, 52, 0
9, 168480, Note_on_c, 7, 48, 90
9, 168575, Note_on_c, 7, 48, 0
9, 168600, Note_on_c, 7, 47, 90
9, 168695, Note_on_c, 7, 47, 0
9, 168720, Note_on_c, 7, 48, 90
9, 168815, Note_on_c, 7, 48, 0
9, 168840, Note_on_c, 7, 50, 90
9, 168935, Note_on_c, 7, 50, 0
9, 168960, Note_on_c, 7, 38, 90
9, 169055, Note_on_c, 7, 38, 0
9, 169080, Note_on_c, 7, 43, 90
9, 169271, Note_on_c, 7, 43, 0
9, 169320, Note_on_c, 7, 55, 90
9, 169415, Note_on_c, 7, 55, 0
9, 169440, Note_on_c, 7, 52, 90
9, 169535, Note_on_c, 7, 52, 0
9, 169560, Note_on_c, 7, 47, 90
9, 169655, Note_on_c, 7, 47, 0
9, 169680, Note_on_c, 7, 48, 90
9, 169775, Note_on_c, 7, 48, 0
9, 169800, Note_on_c, 7, 45, 90
9, 169895, Note_on_c, 7, 45, 0
9, 169920, Note_on_c, 7, 43, 90
9, 170015, Note_on_c, 7, 43, 0
9, 170040, Note_on_c, 7, 50, 90
9, 170135, Note_on_c, 7, 50, 0
9, 170160, Note_on_c, 7, 48, 90
9, 170255, Note_on_c, 7, 48, 0
9, 170280, Note_on_c, 7, 47, 90
9, 170375, Note_on_c, 7, 47, 0
9, 170400, Note_on_c, 7, 50, 90
9, 170495, Note_on_c, 7, 50, 0
9, 170520, Note_on_c, 7, 52, 90
9, 170615, Note_on_c, 7, 52, 0
9, 170640, Note_on_c, 7, 48, 90
9, 170735, Note_on_c, 7, 48, 0
9, 170760, Note_on_c, 7, 50, 90
9, 170855, Note_on_c, 7, 50, 0
9, 170880, Note_on_c, 7, 38, 90
9, 170975, Note_on_c, 7, 38, 0
9, 171000, Note_on_c, 7, 43, 90
9, 171191, Note_on_c, 7, 43, 0
9, 171240, Note_on_c, 7, 55, 90
9, 171335, Note_on_c, 7, 55, 0
9, 171360, Note_on_c, 7, 52, 90
9, 171455, Note_on_c, 7, 52, 0
9, 171480, Note_on_c, 7, 57, 90
9, 171575, Note_on_c, 7, 57, 0
9, 171600, Note_on_c, 7, 54, 90
9, 171695, Note_on_c, 7, 54, 0
9, 171720, Note_on_c, 7, 52, 90
9, 171815, Note_on_c, 7, 52, 0
9, 171840, Note_on_c, 7, 50, 90
9, 171935, Note_on_c, 7, 50, 0
9, 171960, Note_on_c, 7, 57, 90
9, 172055, Note_on_c, 7, 57, 0
9, 172080, Note_on_c, 7, 55, 90
9, 172175, Note_on_c, 7, 55, 0
9, 172200, Note_on_c, 7, 54, 90
9, 172295, Note_on_c, 7, 54, 0
9, 172320, Note_on_c, 7, 57, 90
9, 172415, Note_on_c, 7, 57, 0
9, 172440, Note_on_c, 7, 59, 90
9, 172535, Note_on_c, 7, 59, 0
9, 172560, Note_on_c, 7, 55, 90
9, 172655, Note_on_c, 7, 55, 0
9, 172680, Note_on_c, 7, 57, 90
9, 172775, Note_on_c, 7, 57, 0
9, 172800, Note_on_c, 7, 45, 90
9, 172895, Note_on_c, 7, 45, 0
9, 172920, Note_on_c, 7, 50, 90
9, 173063, Note_on_c, 7, 50, 0
9, 173100, Note_on_c, 7, 48, 90
9, 173147, Note_on_c, 7, 48, 0
9, 173160, Note_on_c, 7, 47, 90
9, 173255, Note_on_c, 7, 47, 0
9, 173280, Note_on_c, 7, 43, 90
9, 173375, Note_on_c, 7, 43, 0
9, 173400, Note_on_c, 7, 48, 90
9, 173495, Note_on_c, 7, 48, 0
9, 173520, Note_on_c, 7, 60, 90
9, 173615, Note_on_c, 7, 60, 0
9, 173640, Note_on_c, 7, 56, 90
9, 173735, Note_on_c, 7, 56, 0
9, 173760, Note_on_c, 7, 52, 90
9, 173855, Note_on_c, 7, 52, 0
9, 173880, Note_on_c, 7, 57, 90
9, 173975, Note_on_c, 7, 57, 0
9, 174000, Note_on_c, 7, 55, 90
9, 174095, Note_on_c, 7, 55, 0
9, 174120, Note_on_c, 7, 54, 90
9, 174215, Note_on_c, 7, 54, 0
9, 174240, Note_on_c, 7, 50, 90
9, 174335, Note_on_c, 7, 50, 0
9, 174360, Note_on_c, 7, 55, 90
9, 174455, Note_on_c, 7, 55, 0
9, 174480, Note_on_c, 7, 52, 90
9, 174575, Note_on_c, 7, 52, 0
9, 174600, Note_on_c, 7, 57, 90
9, 174695, Note_on_c, 7, 57, 0
9, 174720, Note_on_c, 7, 45, 90
9, 174815, Note_on_c, 7, 45, 0
9, 174840, Note_on_c, 7, 50, 90
9, 174935, Note_on_c, 7, 50, 0
9, 174960, Note_on_c, 7, 52, 90
9, 175055, Note_on_c, 7, 52, 0
9, 175080, Note_on_c, 7, 54, 90
9, 175175, Note_on_c, 7, 54, 0
9, 175200, Note_on_c, 7, 50, 90
9, 175295, Note_on_c, 7, 50, 0
9, 175320, Note_on_c, 7, 55, 90
9, 175415, Note_on_c, 7, 55, 0
9, 175440, Note_on_c, 7, 53, 90
9, 175535, Note_on_c, 7, 53, 0
9, 175560, Note_on_c, 7, 52, 90
9, 175655, Note_on_c, 7, 52, 0
9, 175680, Note_on_c, 7, 50, 90
9, 175775, Note_on_c, 7, 50, 0
9, 175800, Note_on_c, 7, 48, 90
9, 175895, Note_on_c, 7, 48, 0
9, 175920, Note_on_c, 7, 47, 90
9, 176015, Note_on_c, 7, 47, 0
9, 176040, Note_on_c, 7, 48, 90
9, 176135, Note_on_c, 7, 48, 0
9, 176160, Note_on_c, 7, 45, 90
9, 176255, Note_on_c, 7, 45, 0
9, 176280, Note_on_c, 7, 47, 90
9, 176375, Note_on_c, 7, 47, 0
9, 176400, Note_on_c, 7, 45, 90
9, 176447, Note_on_c, 7, 45, 0
9, 176460, Note_on_c, 7, 43, 90
9, 176507, Note_on_c, 7, 43, 0
9, 176520, Note_on_c, 7, 50, 90
9, 176615, Note_on_c, 7, 50, 0
9, 176640, Note_on_c, 7, 38, 90
9, 176735, Note_on_c, 7, 38, 0
9, 176760, Note_on_c, 7, 43, 90
9, 176951, Note_on_c, 7, 43, 0
9, 176951, End_track
10, 0, Start_track
10, 0, MIDI_port, 0
10, 0, Title_t, "Cbass"
10, 0, Program_c, 8, 43
10, 0, Note_on_c, 8, 31, 90
10, 119, Note_on_c, 8, 31, 0
10, 240, Note_on_c, 8, 31, 90
10, 359, Note_on_c, 8, 31, 0
10, 480, Note_on_c, 8, 33, 90
10, 599, Note_on_c, 8, 33, 0
10, 720, Note_on_c, 8, 35, 90
10, 839, Note_on_c, 8, 35, 0
10, 960, Note_on_c, 8, 36, 90
10, 1079, Note_on_c, 8, 36, 0
10, 1200, Note_on_c, 8, 36, 90
10, 1319, Note_on_c, 8, 36, 0
10, 1440, Note_on_c, 8, 35, 90
10, 1559, Note_on_c, 8, 35, 0
10, 1680, Note_on_c, 8, 40, 90
10, 1799, Note_on_c, 8, 40, 0
10, 1920, Note_on_c, 8, 33, 90
10, 2039, Note_on_c, 8, 33, 0
10, 2160, Note_on_c, 8, 36, 90
10, 2279, Note_on_c, 8, 36, 0
10, 2400, Note_on_c, 8, 35, 90
10, 2519, Note_on_c, 8, 35, 0
10, 2640, Note_on_c, 8, 30, 90
10, 2759, Note_on_c, 8, 30, 0
10, 2880, Note_on_c, 8, 31, 90
10, 2999, Note_on_c, 8, 31, 0
10, 3120, Note_on_c, 8, 32, 90
10, 3239, Note_on_c, 8, 32, 0
10, 3360, Note_on_c, 8, 34, 90
10, 3479, Note_on_c, 8, 34, 0
10, 3600, Note_on_c, 8, 35, 90
10, 3719, Note_on_c, 8, 35, 0
10, 3720, Note_on_c, 8, 37, 90
10, 3839, Note_on_c, 8, 37, 0
10, 3840, Note_on_c, 8, 38, 90
10, 3899, Note_on_c, 8, 38, 0
10, 3900, Note_on_c, 8, 43, 90
10, 3959, Note_on_c, 8, 43, 0
10, 3960, Note_on_c, 8, 45, 90
10, 4019, Note_on_c, 8, 45, 0
10, 4020, Note_on_c, 8, 33, 90
10, 4079, Note_on_c, 8, 33, 0
10, 4080, Note_on_c, 8, 38, 90
10, 4199, Note_on_c, 8, 38, 0
10, 4320, Note_on_c, 8, 36, 90
10, 4439, Note_on_c, 8, 36, 0
10, 4560, Note_on_c, 8, 35, 90
10, 4679, Note_on_c, 8, 35, 0
10, 4800, Note_on_c, 8, 40, 90
10, 4919, Note_on_c, 8, 40, 0
10, 5040, Note_on_c, 8, 33, 90
10, 5159, Note_on_c, 8, 33, 0
10, 5280, Note_on_c, 8, 38, 90
10, 5399, Note_on_c, 8, 38, 0
10, 5520, Note_on_c, 8, 36, 90
10, 5639, Note_on_c, 8, 36, 0
10, 5700, Note_on_c, 8, 36, 90
10, 5759, Note_on_c, 8, 36, 0
10, 5760, Note_on_c, 8, 34, 90
10, 5819, Note_on_c, 8, 34, 0
10, 5820, Note_on_c, 8, 36, 90
10, 5879, Note_on_c, 8, 36, 0
10, 5880, Note_on_c, 8, 38, 90
10, 5939, Note_on_c, 8, 38, 0
10, 5940, Note_on_c, 8, 26, 90
10, 5999, Note_on_c, 8, 26, 0
10, 6000, Note_on_c, 8, 31, 90
10, 6119, Note_on_c, 8, 31, 0
10, 6240, Note_on_c, 8, 29, 90
10, 6359, Note_on_c, 8, 29, 0
10, 6480, Note_on_c, 8, 28, 90
10, 6599, Note_on_c, 8, 28, 0
10, 6720, Note_on_c, 8, 26, 90
10, 6839, Note_on_c, 8, 26, 0
10, 6900, Note_on_c, 8, 31, 90
10, 6959, Note_on_c, 8, 31, 0
10, 6960, Note_on_c, 8, 36, 90
10, 6989, Note_on_c, 8, 36, 0
10, 6990, Note_on_c, 8, 35, 90
10, 7019, Note_on_c, 8, 35, 0
10, 7020, Note_on_c, 8, 33, 90
10, 7049, Note_on_c, 8, 33, 0
10, 7050, Note_on_c, 8, 31, 90
10, 7079, Note_on_c, 8, 31, 0
10, 7080, Note_on_c, 8, 38, 90
10, 7139, Note_on_c, 8, 38, 0
10, 7140, Note_on_c, 8, 26, 90
10, 7199, Note_on_c, 8, 26, 0
10, 7200, Note_on_c, 8, 31, 90
10, 7319, Note_on_c, 8, 31, 0
10, 7440, Note_on_c, 8, 31, 90
10, 7559, Note_on_c, 8, 31, 0
10, 7680, Note_on_c, 8, 31, 90
10, 7799, Note_on_c, 8, 31, 0
10, 7920, Note_on_c, 8, 33, 90
10, 8039, Note_on_c, 8, 33, 0
10, 8160, Note_on_c, 8, 35, 90
10, 8219, Note_on_c, 8, 35, 0
10, 8220, Note_on_c, 8, 36, 90
10, 8279, Note_on_c, 8, 36, 0
10, 8280, Note_on_c, 8, 38, 90
10, 8339, Note_on_c, 8, 38, 0
10, 8340, Note_on_c, 8, 35, 90
10, 8399, Note_on_c, 8, 35, 0
10, 8400, Note_on_c, 8, 40, 90
10, 8459, Note_on_c, 8, 40, 0
10, 8460, Note_on_c, 8, 36, 90
10, 8519, Note_on_c, 8, 36, 0
10, 8520, Note_on_c, 8, 38, 90
10, 8579, Note_on_c, 8, 38, 0
10, 8580, Note_on_c, 8, 26, 90
10, 8639, Note_on_c, 8, 26, 0
10, 8640, Note_on_c, 8, 31, 90
10, 8699, Note_on_c, 8, 31, 0
10, 8700, Note_on_c, 8, 43, 90
10, 8759, Note_on_c, 8, 43, 0
10, 8760, Note_on_c, 8, 42, 90
10, 8819, Note_on_c, 8, 42, 0
10, 8820, Note_on_c, 8, 40, 90
10, 8879, Note_on_c, 8, 40, 0
10, 8880, Note_on_c, 8, 38, 90
10, 8939, Note_on_c, 8, 38, 0
10, 8940, Note_on_c, 8, 42, 90
10, 8999, Note_on_c, 8, 42, 0
10, 9000, Note_on_c, 8, 43, 90
10, 9059, Note_on_c, 8, 43, 0
10, 9060, Note_on_c, 8, 40, 90
10, 9119, Note_on_c, 8, 40, 0
10, 9120, Note_on_c, 8, 45, 90
10, 9179, Note_on_c, 8, 45, 0
10, 9180, Note_on_c, 8, 47, 90
10, 9239, Note_on_c, 8, 47, 0
10, 9240, Note_on_c, 8, 49, 90
10, 9299, Note_on_c, 8, 49, 0
10, 9300, Note_on_c, 8, 50, 90
10, 9359, Note_on_c, 8, 50, 0
10, 9360, Note_on_c, 8, 45, 90
10, 9419, Note_on_c, 8, 45, 0
10, 9420, Note_on_c, 8, 47, 90
10, 9479, Note_on_c, 8, 47, 0
10, 9480, Note_on_c, 8, 49, 90
10, 9539, Note_on_c, 8, 49, 0
10, 9540, Note_on_c, 8, 50, 90
10, 9599, Note_on_c, 8, 50, 0
10, 9600, Note_on_c, 8, 45, 90
10, 9659, Note_on_c, 8, 45, 0
10, 9660, Note_on_c, 8, 43, 90
10, 9719, Note_on_c, 8, 43, 0
10, 9720, Note_on_c, 8, 42, 90
10, 9779, Note_on_c, 8, 42, 0
10, 9780, Note_on_c, 8, 40, 90
10, 9839, Note_on_c, 8, 40, 0
10, 9840, Note_on_c, 8, 47, 90
10, 9899, Note_on_c, 8, 47, 0
10, 9900, Note_on_c, 8, 43, 90
10, 9959, Note_on_c, 8, 43, 0
10, 9960, Note_on_c, 8, 42, 90
10, 10019, Note_on_c, 8, 42, 0
10, 10020, Note_on_c, 8, 40, 90
10, 10079, Note_on_c, 8, 40, 0
10, 10080, Note_on_c, 8, 47, 90
10, 10139, Note_on_c, 8, 47, 0
10, 10140, Note_on_c, 8, 45, 90
10, 10199, Note_on_c, 8, 45, 0
10, 10200, Note_on_c, 8, 47, 90
10, 10259, Note_on_c, 8, 47, 0
10, 10260, Note_on_c, 8, 43, 90
10, 10319, Note_on_c, 8, 43, 0
10, 10320, Note_on_c, 8, 48, 90
10, 10379, Note_on_c, 8, 48, 0
10, 10380, Note_on_c, 8, 45, 90
10, 10439, Note_on_c, 8, 45, 0
10, 10440, Note_on_c, 8, 47, 90
10, 10499, Note_on_c, 8, 47, 0
10, 10500, Note_on_c, 8, 35, 90
10, 10559, Note_on_c, 8, 35, 0
10, 10560, Note_on_c, 8, 40, 90
10, 10619, Note_on_c, 8, 40, 0
10, 10620, Note_on_c, 8, 42, 90
10, 10679, Note_on_c, 8, 42, 0
10, 10680, Note_on_c, 8, 43, 90
10, 10739, Note_on_c, 8, 43, 0
10, 10740, Note_on_c, 8, 40, 90
10, 10799, Note_on_c, 8, 40, 0
10, 10800, Note_on_c, 8, 42, 90
10, 10859, Note_on_c, 8, 42, 0
10, 10860, Note_on_c, 8, 38, 90
10, 10919, Note_on_c, 8, 38, 0
10, 10920, Note_on_c, 8, 43, 90
10, 10979, Note_on_c, 8, 43, 0
10, 10980, Note_on_c, 8, 31, 90
10, 11039, Note_on_c, 8, 31, 0
10, 11040, Note_on_c, 8, 38, 90
10, 11099, Note_on_c, 8, 38, 0
10, 11100, Note_on_c, 8, 40, 90
10, 11159, Note_on_c, 8, 40, 0
10, 11160, Note_on_c, 8, 42, 90
10, 11219, Note_on_c, 8, 42, 0
10, 11220, Note_on_c, 8, 43, 90
10, 11279, Note_on_c, 8, 43, 0
10, 11280, Note_on_c, 8, 38, 90
10, 11339, Note_on_c, 8, 38, 0
10, 11340, Note_on_c, 8, 40, 90
10, 11399, Note_on_c, 8, 40, 0
10, 11400, Note_on_c, 8, 42, 90
10, 11459, Note_on_c, 8, 42, 0
10, 11460, Note_on_c, 8, 43, 90
10, 11519, Note_on_c, 8, 43, 0
10, 11520, Note_on_c, 8, 38, 90
10, 11579, Note_on_c, 8, 38, 0
10, 11580, Note_on_c, 8, 36, 90
10, 11639, Note_on_c, 8, 36, 0
10, 11640, Note_on_c, 8, 35, 90
10, 11699, Note_on_c, 8, 35, 0
10, 11700, Note_on_c, 8, 33, 90
10, 11759, Note_on_c, 8, 33, 0
10, 11760, Note_on_c, 8, 40, 90
10, 11819, Note_on_c, 8, 40, 0
10, 11820, Note_on_c, 8, 36, 90
10, 11879, Note_on_c, 8, 36, 0
10, 11880, Note_on_c, 8, 35, 90
10, 11939, Note_on_c, 8, 35, 0
10, 11940, Note_on_c, 8, 33, 90
10, 11999, Note_on_c, 8, 33, 0
10, 12000, Note_on_c, 8, 40, 90
10, 12059, Note_on_c, 8, 40, 0
10, 12060, Note_on_c, 8, 38, 90
10, 12089, Note_on_c, 8, 38, 0
10, 12090, Note_on_c, 8, 36, 90
10, 12119, Note_on_c, 8, 36, 0
10, 12120, Note_on_c, 8, 35, 90
10, 12179, Note_on_c, 8, 35, 0
10, 12180, Note_on_c, 8, 31, 90
10, 12239, Note_on_c, 8, 31, 0
10, 12240, Note_on_c, 8, 36, 90
10, 12299, Note_on_c, 8, 36, 0
10, 12300, Note_on_c, 8, 40, 90
10, 12359, Note_on_c, 8, 40, 0
10, 12360, Note_on_c, 8, 41, 90
10, 12419, Note_on_c, 8, 41, 0
10, 12420, Note_on_c, 8, 38, 90
10, 12479, Note_on_c, 8, 38, 0
10, 12480, Note_on_c, 8, 43, 90
10, 12539, Note_on_c, 8, 43, 0
10, 12540, Note_on_c, 8, 45, 90
10, 12599, Note_on_c, 8, 45, 0
10, 12600, Note_on_c, 8, 47, 90
10, 12659, Note_on_c, 8, 47, 0
10, 12660, Note_on_c, 8, 48, 90
10, 12719, Note_on_c, 8, 48, 0
10, 12720, Note_on_c, 8, 43, 90
10, 12779, Note_on_c, 8, 43, 0
10, 12780, Note_on_c, 8, 45, 90
10, 12839, Note_on_c, 8, 45, 0
10, 12840, Note_on_c, 8, 47, 90
10, 12899, Note_on_c, 8, 47, 0
10, 12900, Note_on_c, 8, 48, 90
10, 12959, Note_on_c, 8, 48, 0
10, 12960, Note_on_c, 8, 43, 90
10, 13019, Note_on_c, 8, 43, 0
10, 13020, Note_on_c, 8, 42, 90
10, 13079, Note_on_c, 8, 42, 0
10, 13080, Note_on_c, 8, 40, 90
10, 13139, Note_on_c, 8, 40, 0
10, 13140, Note_on_c, 8, 38, 90
10, 13199, Note_on_c, 8, 38, 0
10, 13200, Note_on_c, 8, 45, 90
10, 13259, Note_on_c, 8, 45, 0
10, 13260, Note_on_c, 8, 42, 90
10, 13319, Note_on_c, 8, 42, 0
10, 13320, Note_on_c, 8, 40, 90
10, 13379, Note_on_c, 8, 40, 0
10, 13380, Note_on_c, 8, 38, 90
10, 13439, Note_on_c, 8, 38, 0
10, 13440, Note_on_c, 8, 45, 90
10, 13499, Note_on_c, 8, 45, 0
10, 13500, Note_on_c, 8, 43, 90
10, 13559, Note_on_c, 8, 43, 0
10, 13560, Note_on_c, 8, 45, 90
10, 13619, Note_on_c, 8, 45, 0
10, 13620, Note_on_c, 8, 42, 90
10, 13679, Note_on_c, 8, 42, 0
10, 13680, Note_on_c, 8, 47, 90
10, 13739, Note_on_c, 8, 47, 0
10, 13740, Note_on_c, 8, 43, 90
10, 13799, Note_on_c, 8, 43, 0
10, 13800, Note_on_c, 8, 40, 90
10, 13859, Note_on_c, 8, 40, 0
10, 13860, Note_on_c, 8, 43, 90
10, 13919, Note_on_c, 8, 43, 0
10, 13920, Note_on_c, 8, 45, 90
10, 13979, Note_on_c, 8, 45, 0
10, 13980, Note_on_c, 8, 42, 90
10, 14039, Note_on_c, 8, 42, 0
10, 14040, Note_on_c, 8, 38, 90
10, 14099, Note_on_c, 8, 38, 0
10, 14100, Note_on_c, 8, 42, 90
10, 14159, Note_on_c, 8, 42, 0
10, 14160, Note_on_c, 8, 43, 90
10, 14219, Note_on_c, 8, 43, 0
10, 14220, Note_on_c, 8, 40, 90
10, 14279, Note_on_c, 8, 40, 0
10, 14280, Note_on_c, 8, 37, 90
10, 14339, Note_on_c, 8, 37, 0
10, 14340, Note_on_c, 8, 35, 90
10, 14399, Note_on_c, 8, 35, 0
10, 14400, Note_on_c, 8, 34, 90
10, 14429, Note_on_c, 8, 34, 0
10, 14430, Note_on_c, 8, 42, 90
10, 14459, Note_on_c, 8, 42, 0
10, 14460, Note_on_c, 8, 47, 90
10, 14489, Note_on_c, 8, 47, 0
10, 14490, Note_on_c, 8, 40, 90
10, 14519, Note_on_c, 8, 40, 0
10, 14520, Note_on_c, 8, 42, 90
10, 14579, Note_on_c, 8, 42, 0
10, 14580, Note_on_c, 8, 30, 90
10, 14639, Note_on_c, 8, 30, 0
10, 14640, Note_on_c, 8, 35, 90
10, 14699, Note_on_c, 8, 35, 0
10, 14700, Note_on_c, 8, 37, 90
10, 14759, Note_on_c, 8, 37, 0
10, 14760, Note_on_c, 8, 38, 90
10, 14819, Note_on_c, 8, 38, 0
10, 14820, Note_on_c, 8, 35, 90
10, 14879, Note_on_c, 8, 35, 0
10, 14880, Note_on_c, 8, 40, 90
10, 14939, Note_on_c, 8, 40, 0
10, 14940, Note_on_c, 8, 43, 90
10, 14999, Note_on_c, 8, 43, 0
10, 15000, Note_on_c, 8, 45, 90
10, 15059, Note_on_c, 8, 45, 0
10, 15060, Note_on_c, 8, 33, 90
10, 15119, Note_on_c, 8, 33, 0
10, 15120, Note_on_c, 8, 38, 90
10, 15179, Note_on_c, 8, 38, 0
10, 15180, Note_on_c, 8, 40, 90
10, 15239, Note_on_c, 8, 40, 0
10, 15240, Note_on_c, 8, 42, 90
10, 15299, Note_on_c, 8, 42, 0
10, 15300, Note_on_c, 8, 38, 90
10, 15359, Note_on_c, 8, 38, 0
10, 15360, Note_on_c, 8, 43, 90
10, 15419, Note_on_c, 8, 43, 0
10, 15420, Note_on_c, 8, 42, 90
10, 15479, Note_on_c, 8, 42, 0
10, 15480, Note_on_c, 8, 40, 90
10, 15539, Note_on_c, 8, 40, 0
10, 15540, Note_on_c, 8, 43, 90
10, 15599, Note_on_c, 8, 43, 0
10, 15600, Note_on_c, 8, 45, 90
10, 15659, Note_on_c, 8, 45, 0
10, 15660, Note_on_c, 8, 43, 90
10, 15719, Note_on_c, 8, 43, 0
10, 15720, Note_on_c, 8, 42, 90
10, 15779, Note_on_c, 8, 42, 0
10, 15780, Note_on_c, 8, 45, 90
10, 15839, Note_on_c, 8, 45, 0
10, 15840, Note_on_c, 8, 47, 90
10, 15899, Note_on_c, 8, 47, 0
10, 15900, Note_on_c, 8, 45, 90
10, 15929, Note_on_c, 8, 45, 0
10, 15930, Note_on_c, 8, 43, 90
10, 15959, Note_on_c, 8, 43, 0
10, 15960, Note_on_c, 8, 45, 90
10, 16019, Note_on_c, 8, 45, 0
10, 16020, Note_on_c, 8, 33, 90
10, 16079, Note_on_c, 8, 33, 0
10, 16080, Note_on_c, 8, 38, 90
10, 16199, Note_on_c, 8, 38, 0
10, 16320, Note_on_c, 8, 31, 90
10, 16439, Note_on_c, 8, 31, 0
10, 16560, Note_on_c, 8, 31, 90
10, 16679, Note_on_c, 8, 31, 0
10, 16800, Note_on_c, 8, 33, 90
10, 16919, Note_on_c, 8, 33, 0
10, 17040, Note_on_c, 8, 35, 90
10, 17159, Note_on_c, 8, 35, 0
10, 17280, Note_on_c, 8, 36, 90
10, 17399, Note_on_c, 8, 36, 0
10, 17520, Note_on_c, 8, 36, 90
10, 17639, Note_on_c, 8, 36, 0
10, 17760, Note_on_c, 8, 35, 90
10, 17879, Note_on_c, 8, 35, 0
10, 18000, Note_on_c, 8, 40, 90
10, 18119, Note_on_c, 8, 40, 0
10, 18240, Note_on_c, 8, 33, 90
10, 18359, Note_on_c, 8, 33, 0
10, 18480, Note_on_c, 8, 36, 90
10, 18599, Note_on_c, 8, 36, 0
10, 18720, Note_on_c, 8, 35, 90
10, 18839, Note_on_c, 8, 35, 0
10, 18960, Note_on_c, 8, 30, 90
10, 19079, Note_on_c, 8, 30, 0
10, 19200, Note_on_c, 8, 31, 90
10, 19319, Note_on_c, 8, 31, 0
10, 19440, Note_on_c, 8, 32, 90
10, 19559, Note_on_c, 8, 32, 0
10, 19680, Note_on_c, 8, 34, 90
10, 19799, Note_on_c, 8, 34, 0
10, 19920, Note_on_c, 8, 35, 90
10, 20039, Note_on_c, 8, 35, 0
10, 20040, Note_on_c, 8, 37, 90
10, 20159, Note_on_c, 8, 37, 0
10, 20160, Note_on_c, 8, 38, 90
10, 20219, Note_on_c, 8, 38, 0
10, 20220, Note_on_c, 8, 43, 90
10, 20279, Note_on_c, 8, 43, 0
10, 20280, Note_on_c, 8, 45, 90
10, 20339, Note_on_c, 8, 45, 0
10, 20340, Note_on_c, 8, 33, 90
10, 20399, Note_on_c, 8, 33, 0
10, 20400, Note_on_c, 8, 38, 90
10, 20519, Note_on_c, 8, 38, 0
10, 20640, Note_on_c, 8, 36, 90
10, 20759, Note_on_c, 8, 36, 0
10, 20880, Note_on_c, 8, 35, 90
10, 20999, Note_on_c, 8, 35, 0
10, 21120, Note_on_c, 8, 40, 90
10, 21239, Note_on_c, 8, 40, 0
10, 21360, Note_on_c, 8, 33, 90
10, 21479, Note_on_c, 8, 33, 0
10, 21600, Note_on_c, 8, 38, 90
10, 21719, Note_on_c, 8, 38, 0
10, 21840, Note_on_c, 8, 36, 90
10, 21959, Note_on_c, 8, 36, 0
10, 22020, Note_on_c, 8, 36, 90
10, 22079, Note_on_c, 8, 36, 0
10, 22080, Note_on_c, 8, 34, 90
10, 22139, Note_on_c, 8, 34, 0
10, 22140, Note_on_c, 8, 36, 90
10, 22199, Note_on_c, 8, 36, 0
10, 22200, Note_on_c, 8, 38, 90
10, 22259, Note_on_c, 8, 38, 0
10, 22260, Note_on_c, 8, 26, 90
10, 22319, Note_on_c, 8, 26, 0
10, 22320, Note_on_c, 8, 31, 90
10, 22439, Note_on_c, 8, 31, 0
10, 22560, Note_on_c, 8, 29, 90
10, 22679, Note_on_c, 8, 29, 0
10, 22800, Note_on_c, 8, 28, 90
10, 22919, Note_on_c, 8, 28, 0
10, 23040, Note_on_c, 8, 26, 90
10, 23159, Note_on_c, 8, 26, 0
10, 23220, Note_on_c, 8, 31, 90
10, 23279, Note_on_c, 8, 31, 0
10, 23280, Note_on_c, 8, 36, 90
10, 23309, Note_on_c, 8, 36, 0
10, 23310, Note_on_c, 8, 35, 90
10, 23339, Note_on_c, 8, 35, 0
10, 23340, Note_on_c, 8, 33, 90
10, 23369, Note_on_c, 8, 33, 0
10, 23370, Note_on_c, 8, 31, 90
10, 23399, Note_on_c, 8, 31, 0
10, 23400, Note_on_c, 8, 38, 90
10, 23459, Note_on_c, 8, 38, 0
10, 23460, Note_on_c, 8, 26, 90
10, 23519, Note_on_c, 8, 26, 0
10, 23520, Note_on_c, 8, 31, 90
10, 23639, Note_on_c, 8, 31, 0
10, 23760, Note_on_c, 8, 31, 90
10, 23879, Note_on_c, 8, 31, 0
10, 24000, Note_on_c, 8, 31, 90
10, 24119, Note_on_c, 8, 31, 0
10, 24240, Note_on_c, 8, 33, 90
10, 24359, Note_on_c, 8, 33, 0
10, 24480, Note_on_c, 8, 35, 90
10, 24539, Note_on_c, 8, 35, 0
10, 24540, Note_on_c, 8, 36, 90
10, 24599, Note_on_c, 8, 36, 0
10, 24600, Note_on_c, 8, 38, 90
10, 24659, Note_on_c, 8, 38, 0
10, 24660, Note_on_c, 8, 35, 90
10, 24719, Note_on_c, 8, 35, 0
10, 24720, Note_on_c, 8, 40, 90
10, 24779, Note_on_c, 8, 40, 0
10, 24780, Note_on_c, 8, 36, 90
10, 24839, Note_on_c, 8, 36, 0
10, 24840, Note_on_c, 8, 38, 90
10, 24899, Note_on_c, 8, 38, 0
10, 24900, Note_on_c, 8, 26, 90
10, 24959, Note_on_c, 8, 26, 0
10, 24960, Note_on_c, 8, 31, 90
10, 25200, Note_on_c, 8, 31, 0
10, 25440, Note_on_c, 8, 36, 100
10, 26160, Note_on_c, 8, 36, 0
10, 26160, Note_on_c, 8, 40, 100
10, 26400, Note_on_c, 8, 40, 0
10, 26400, Note_on_c, 8, 41, 100
10, 26640, Note_on_c, 8, 41, 0
10, 26640, Note_on_c, 8, 38, 100
10, 27120, Note_on_c, 8, 38, 0
10, 27120, Note_on_c, 8, 35, 100
10, 27360, Note_on_c, 8, 35, 0
10, 27360, Note_on_c, 8, 36, 100
10, 27420, Note_on_c, 8, 36, 0
10, 27420, Note_on_c, 8, 38, 100
10, 27450, Note_on_c, 8, 38, 0
10, 27450, Note_on_c, 8, 40, 100
10, 27480, Note_on_c, 8, 40, 0
10, 27480, Note_on_c, 8, 41, 100
10, 27660, Note_on_c, 8, 41, 0
10, 27660, Note_on_c, 8, 40, 100
10, 27690, Note_on_c, 8, 40, 0
10, 27690, Note_on_c, 8, 41, 100
10, 27720, Note_on_c, 8, 41, 0
10, 27720, Note_on_c, 8, 43, 100
10, 27780, Note_on_c, 8, 43, 0
10, 27780, Note_on_c, 8, 40, 100
10, 27810, Note_on_c, 8, 40, 0
10, 27810, Note_on_c, 8, 43, 100
10, 27840, Note_on_c, 8, 43, 0
10, 27840, Note_on_c, 8, 45, 100
10, 27900, Note_on_c, 8, 45, 0
10, 27900, Note_on_c, 8, 43, 100
10, 27930, Note_on_c, 8, 43, 0
10, 27930, Note_on_c, 8, 41, 100
10, 27960, Note_on_c, 8, 41, 0
10, 27960, Note_on_c, 8, 43, 100
10, 28020, Note_on_c, 8, 43, 0
10, 28020, Note_on_c, 8, 31, 100
10, 28080, Note_on_c, 8, 31, 0
10, 28080, Note_on_c, 8, 24, 100
10, 28320, Note_on_c, 8, 24, 0
10, 66960, Note_on_c, 8, 32, 90
10, 67439, Note_on_c, 8, 32, 0
10, 67440, Note_on_c, 8, 33, 90
10, 67679, Note_on_c, 8, 33, 0
10, 67680, Note_on_c, 8, 31, 90
10, 67919, Note_on_c, 8, 31, 0
10, 67920, Note_on_c, 8, 37, 90
10, 68159, Note_on_c, 8, 37, 0
10, 68160, Note_on_c, 8, 38, 90
10, 68639, Note_on_c, 8, 38, 0
10, 68640, Note_on_c, 8, 31, 90
10, 68879, Note_on_c, 8, 31, 0
10, 69060, Note_on_c, 8, 35, 90
10, 69119, Note_on_c, 8, 35, 0
10, 69120, Note_on_c, 8, 40, 90
10, 69179, Note_on_c, 8, 40, 0
10, 69180, Note_on_c, 8, 39, 90
10, 69239, Note_on_c, 8, 39, 0
10, 69240, Note_on_c, 8, 40, 90
10, 69299, Note_on_c, 8, 40, 0
10, 69300, Note_on_c, 8, 42, 90
10, 69359, Note_on_c, 8, 42, 0
10, 69360, Note_on_c, 8, 43, 90
10, 69419, Note_on_c, 8, 43, 0
10, 69420, Note_on_c, 8, 42, 90
10, 69479, Note_on_c, 8, 42, 0
10, 69480, Note_on_c, 8, 40, 90
10, 69539, Note_on_c, 8, 40, 0
10, 69540, Note_on_c, 8, 39, 90
10, 69599, Note_on_c, 8, 39, 0
10, 69600, Note_on_c, 8, 37, 90
10, 69659, Note_on_c, 8, 37, 0
10, 69660, Note_on_c, 8, 39, 90
10, 69719, Note_on_c, 8, 39, 0
10, 69720, Note_on_c, 8, 40, 90
10, 69779, Note_on_c, 8, 40, 0
10, 69780, Note_on_c, 8, 42, 90
10, 69839, Note_on_c, 8, 42, 0
10, 69840, Note_on_c, 8, 43, 90
10, 69899, Note_on_c, 8, 43, 0
10, 69900, Note_on_c, 8, 42, 90
10, 69959, Note_on_c, 8, 42, 0
10, 69960, Note_on_c, 8, 43, 90
10, 70019, Note_on_c, 8, 43, 0
10, 70020, Note_on_c, 8, 45, 90
10, 70079, Note_on_c, 8, 45, 0
10, 70080, Note_on_c, 8, 47, 90
10, 70139, Note_on_c, 8, 47, 0
10, 70140, Note_on_c, 8, 45, 90
10, 70199, Note_on_c, 8, 45, 0
10, 70200, Note_on_c, 8, 43, 90
10, 70259, Note_on_c, 8, 43, 0
10, 70260, Note_on_c, 8, 42, 90
10, 70319, Note_on_c, 8, 42, 0
10, 70320, Note_on_c, 8, 43, 90
10, 70379, Note_on_c, 8, 43, 0
10, 70380, Note_on_c, 8, 45, 90
10, 70439, Note_on_c, 8, 45, 0
10, 70440, Note_on_c, 8, 47, 90
10, 70499, Note_on_c, 8, 47, 0
10, 70500, Note_on_c, 8, 45, 90
10, 70559, Note_on_c, 8, 45, 0
10, 70560, Note_on_c, 8, 43, 90
10, 70619, Note_on_c, 8, 43, 0
10, 70620, Note_on_c, 8, 42, 90
10, 70679, Note_on_c, 8, 42, 0
10, 70680, Note_on_c, 8, 40, 90
10, 70739, Note_on_c, 8, 40, 0
10, 70740, Note_on_c, 8, 38, 90
10, 70799, Note_on_c, 8, 38, 0
10, 70800, Note_on_c, 8, 36, 90
10, 70859, Note_on_c, 8, 36, 0
10, 70860, Note_on_c, 8, 35, 90
10, 70919, Note_on_c, 8, 35, 0
10, 70920, Note_on_c, 8, 33, 90
10, 70979, Note_on_c, 8, 33, 0
10, 70980, Note_on_c, 8, 35, 90
10, 71039, Note_on_c, 8, 35, 0
10, 71040, Note_on_c, 8, 28, 90
10, 71279, Note_on_c, 8, 28, 0
10, 71280, Note_on_c, 8, 40, 90
10, 71339, Note_on_c, 8, 40, 0
10, 71340, Note_on_c, 8, 42, 90
10, 71399, Note_on_c, 8, 42, 0
10, 71400, Note_on_c, 8, 43, 90
10, 71459, Note_on_c, 8, 43, 0
10, 71460, Note_on_c, 8, 40, 90
10, 71519, Note_on_c, 8, 40, 0
10, 71520, Note_on_c, 8, 45, 90
10, 71579, Note_on_c, 8, 45, 0
10, 71580, Note_on_c, 8, 43, 90
10, 71639, Note_on_c, 8, 43, 0
10, 71640, Note_on_c, 8, 42, 90
10, 71699, Note_on_c, 8, 42, 0
10, 71700, Note_on_c, 8, 38, 90
10, 71759, Note_on_c, 8, 38, 0
10, 71760, Note_on_c, 8, 43, 90
10, 71819, Note_on_c, 8, 43, 0
10, 71820, Note_on_c, 8, 42, 90
10, 71879, Note_on_c, 8, 42, 0
10, 71880, Note_on_c, 8, 40, 90
10, 71939, Note_on_c, 8, 40, 0
10, 71940, Note_on_c, 8, 38, 90
10, 71999, Note_on_c, 8, 38, 0
10, 72000, Note_on_c, 8, 36, 90
10, 72059, Note_on_c, 8, 36, 0
10, 72060, Note_on_c, 8, 35, 90
10, 72119, Note_on_c, 8, 35, 0
10, 72120, Note_on_c, 8, 33, 90
10, 72179, Note_on_c, 8, 33, 0
10, 72180, Note_on_c, 8, 30, 90
10, 72239, Note_on_c, 8, 30, 0
10, 72240, Note_on_c, 8, 35, 90
10, 72359, Note_on_c, 8, 35, 0
10, 72480, Note_on_c, 8, 33, 90
10, 72599, Note_on_c, 8, 33, 0
10, 72720, Note_on_c, 8, 31, 90
10, 72839, Note_on_c, 8, 31, 0
10, 72960, Note_on_c, 8, 30, 90
10, 73079, Note_on_c, 8, 30, 0
10, 73200, Note_on_c, 8, 28, 90
10, 73259, Note_on_c, 8, 28, 0
10, 73260, Note_on_c, 8, 30, 90
10, 73319, Note_on_c, 8, 30, 0
10, 73320, Note_on_c, 8, 31, 90
10, 73379, Note_on_c, 8, 31, 0
10, 73380, Note_on_c, 8, 28, 90
10, 73439, Note_on_c, 8, 28, 0
10, 73440, Note_on_c, 8, 33, 90
10, 73499, Note_on_c, 8, 33, 0
10, 73500, Note_on_c, 8, 35, 90
10, 73559, Note_on_c, 8, 35, 0
10, 73560, Note_on_c, 8, 36, 90
10, 73619, Note_on_c, 8, 36, 0
10, 73620, Note_on_c, 8, 33, 90
10, 73679, Note_on_c, 8, 33, 0
10, 73680, Note_on_c, 8, 35, 90
10, 73739, Note_on_c, 8, 35, 0
10, 73740, Note_on_c, 8, 39, 90
10, 73799, Note_on_c, 8, 39, 0
10, 73800, Note_on_c, 8, 40, 90
10, 73859, Note_on_c, 8, 40, 0
10, 73860, Note_on_c, 8, 43, 90
10, 73919, Note_on_c, 8, 43, 0
10, 73920, Note_on_c, 8, 48, 90
10, 73979, Note_on_c, 8, 48, 0
10, 73980, Note_on_c, 8, 45, 90
10, 74039, Note_on_c, 8, 45, 0
10, 74040, Note_on_c, 8, 47, 90
10, 74099, Note_on_c, 8, 47, 0
10, 74100, Note_on_c, 8, 35, 90
10, 74159, Note_on_c, 8, 35, 0
10, 74160, Note_on_c, 8, 40, 90
10, 74219, Note_on_c, 8, 40, 0
10, 74220, Note_on_c, 8, 42, 90
10, 74279, Note_on_c, 8, 42, 0
10, 74280, Note_on_c, 8, 43, 90
10, 74339, Note_on_c, 8, 43, 0
10, 74340, Note_on_c, 8, 40, 90
10, 74399, Note_on_c, 8, 40, 0
10, 74400, Note_on_c, 8, 45, 90
10, 74459, Note_on_c, 8, 45, 0
10, 74460, Note_on_c, 8, 43, 90
10, 74519, Note_on_c, 8, 43, 0
10, 74520, Note_on_c, 8, 42, 90
10, 74579, Note_on_c, 8, 42, 0
10, 74580, Note_on_c, 8, 38, 90
10, 74639, Note_on_c, 8, 38, 0
10, 74640, Note_on_c, 8, 43, 90
10, 74699, Note_on_c, 8, 43, 0
10, 74700, Note_on_c, 8, 42, 90
10, 74759, Note_on_c, 8, 42, 0
10, 74760, Note_on_c, 8, 40, 90
10, 74819, Note_on_c, 8, 40, 0
10, 74820, Note_on_c, 8, 38, 90
10, 74879, Note_on_c, 8, 38, 0
10, 74880, Note_on_c, 8, 36, 90
10, 74939, Note_on_c, 8, 36, 0
10, 74940, Note_on_c, 8, 35, 90
10, 74999, Note_on_c, 8, 35, 0
10, 75000, Note_on_c, 8, 36, 90
10, 75059, Note_on_c, 8, 36, 0
10, 75060, Note_on_c, 8, 33, 90
10, 75119, Note_on_c, 8, 33, 0
10, 75120, Note_on_c, 8, 35, 90
10, 75239, Note_on_c, 8, 35, 0
10, 75360, Note_on_c, 8, 33, 90
10, 75479, Note_on_c, 8, 33, 0
10, 75600, Note_on_c, 8, 31, 90
10, 75719, Note_on_c, 8, 31, 0
10, 75840, Note_on_c, 8, 30, 90
10, 75959, Note_on_c, 8, 30, 0
10, 76080, Note_on_c, 8, 40, 90
10, 76139, Note_on_c, 8, 40, 0
10, 76140, Note_on_c, 8, 42, 90
10, 76199, Note_on_c, 8, 42, 0
10, 76200, Note_on_c, 8, 43, 90
10, 76259, Note_on_c, 8, 43, 0
10, 76260, Note_on_c, 8, 40, 90
10, 76319, Note_on_c, 8, 40, 0
10, 76320, Note_on_c, 8, 45, 90
10, 76379, Note_on_c, 8, 45, 0
10, 76380, Note_on_c, 8, 43, 90
10, 76439, Note_on_c, 8, 43, 0
10, 76440, Note_on_c, 8, 42, 90
10, 76499, Note_on_c, 8, 42, 0
10, 76500, Note_on_c, 8, 38, 90
10, 76559, Note_on_c, 8, 38, 0
10, 76560, Note_on_c, 8, 43, 90
10, 76619, Note_on_c, 8, 43, 0
10, 76620, Note_on_c, 8, 42, 90
10, 76679, Note_on_c, 8, 42, 0
10, 76680, Note_on_c, 8, 40, 90
10, 76739, Note_on_c, 8, 40, 0
10, 76740, Note_on_c, 8, 38, 90
10, 76799, Note_on_c, 8, 38, 0
10, 76800, Note_on_c, 8, 36, 90
10, 76859, Note_on_c, 8, 36, 0
10, 76860, Note_on_c, 8, 35, 90
10, 76919, Note_on_c, 8, 35, 0
10, 76920, Note_on_c, 8, 36, 90
10, 76979, Note_on_c, 8, 36, 0
10, 76980, Note_on_c, 8, 33, 90
10, 77039, Note_on_c, 8, 33, 0
10, 77040, Note_on_c, 8, 35, 90
10, 77099, Note_on_c, 8, 35, 0
10, 77100, Note_on_c, 8, 36, 90
10, 77159, Note_on_c, 8, 36, 0
10, 77160, Note_on_c, 8, 35, 90
10, 77219, Note_on_c, 8, 35, 0
10, 77220, Note_on_c, 8, 33, 90
10, 77279, Note_on_c, 8, 33, 0
10, 77280, Note_on_c, 8, 32, 90
10, 77339, Note_on_c, 8, 32, 0
10, 77340, Note_on_c, 8, 30, 90
10, 77399, Note_on_c, 8, 30, 0
10, 77400, Note_on_c, 8, 32, 90
10, 77459, Note_on_c, 8, 32, 0
10, 77460, Note_on_c, 8, 28, 90
10, 77519, Note_on_c, 8, 28, 0
10, 77520, Note_on_c, 8, 33, 90
10, 77579, Note_on_c, 8, 33, 0
10, 77580, Note_on_c, 8, 35, 90
10, 77639, Note_on_c, 8, 35, 0
10, 77640, Note_on_c, 8, 36, 90
10, 77699, Note_on_c, 8, 36, 0
10, 77700, Note_on_c, 8, 33, 90
10, 77759, Note_on_c, 8, 33, 0
10, 77760, Note_on_c, 8, 38, 90
10, 77819, Note_on_c, 8, 38, 0
10, 77820, Note_on_c, 8, 36, 90
10, 77879, Note_on_c, 8, 36, 0
10, 77880, Note_on_c, 8, 35, 90
10, 77939, Note_on_c, 8, 35, 0
10, 77940, Note_on_c, 8, 33, 90
10, 77999, Note_on_c, 8, 33, 0
10, 78000, Note_on_c, 8, 31, 90
10, 78059, Note_on_c, 8, 31, 0
10, 78060, Note_on_c, 8, 36, 90
10, 78119, Note_on_c, 8, 36, 0
10, 78120, Note_on_c, 8, 38, 90
10, 78179, Note_on_c, 8, 38, 0
10, 78180, Note_on_c, 8, 26, 90
10, 78239, Note_on_c, 8, 26, 0
10, 78240, Note_on_c, 8, 31, 90
10, 78299, Note_on_c, 8, 31, 0
10, 78300, Note_on_c, 8, 33, 90
10, 78359, Note_on_c, 8, 33, 0
10, 78360, Note_on_c, 8, 35, 90
10, 78419, Note_on_c, 8, 35, 0
10, 78420, Note_on_c, 8, 31, 90
10, 78479, Note_on_c, 8, 31, 0
10, 78480, Note_on_c, 8, 30, 90
10, 78539, Note_on_c, 8, 30, 0
10, 78540, Note_on_c, 8, 38, 90
10, 78599, Note_on_c, 8, 38, 0
10, 78600, Note_on_c, 8, 43, 90
10, 78659, Note_on_c, 8, 43, 0
10, 78660, Note_on_c, 8, 47, 90
10, 78719, Note_on_c, 8, 47, 0
10, 78720, Note_on_c, 8, 42, 90
10, 78779, Note_on_c, 8, 42, 0
10, 78780, Note_on_c, 8, 40, 90
10, 78809, Note_on_c, 8, 40, 0
10, 78810, Note_on_c, 8, 38, 90
10, 78839, Note_on_c, 8, 38, 0
10, 78840, Note_on_c, 8, 43, 90
10, 78899, Note_on_c, 8, 43, 0
10, 78900, Note_on_c, 8, 47, 90
10, 78959, Note_on_c, 8, 47, 0
10, 78960, Note_on_c, 8, 42, 90
10, 79019, Note_on_c, 8, 42, 0
10, 79020, Note_on_c, 8, 40, 90
10, 79049, Note_on_c, 8, 40, 0
10, 79050, Note_on_c, 8, 38, 90
10, 79079, Note_on_c, 8, 38, 0
10, 79080, Note_on_c, 8, 43, 90
10, 79139, Note_on_c, 8, 43, 0
10, 79140, Note_on_c, 8, 47, 90
10, 79199, Note_on_c, 8, 47, 0
10, 79200, Note_on_c, 8, 42, 90
10, 79259, Note_on_c, 8, 42, 0
10, 79260, Note_on_c, 8, 40, 90
10, 79289, Note_on_c, 8, 40, 0
10, 79290, Note_on_c, 8, 38, 90
10, 79319, Note_on_c, 8, 38, 0
10, 79320, Note_on_c, 8, 43, 90
10, 79379, Note_on_c, 8, 43, 0
10, 79380, Note_on_c, 8, 47, 90
10, 79439, Note_on_c, 8, 47, 0
10, 79440, Note_on_c, 8, 37, 90
10, 79499, Note_on_c, 8, 37, 0
10, 79500, Note_on_c, 8, 38, 90
10, 79559, Note_on_c, 8, 38, 0
10, 79560, Note_on_c, 8, 40, 90
10, 79619, Note_on_c, 8, 40, 0
10, 79620, Note_on_c, 8, 37, 90
10, 79679, Note_on_c, 8, 37, 0
10, 79680, Note_on_c, 8, 42, 90
10, 79739, Note_on_c, 8, 42, 0
10, 79740, Note_on_c, 8, 38, 90
10, 79799, Note_on_c, 8, 38, 0
10, 79800, Note_on_c, 8, 40, 90
10, 79859, Note_on_c, 8, 40, 0
10, 79860, Note_on_c, 8, 42, 90
10, 79919, Note_on_c, 8, 42, 0
10, 79920, Note_on_c, 8, 35, 90
10, 79979, Note_on_c, 8, 35, 0
10, 79980, Note_on_c, 8, 37, 90
10, 80039, Note_on_c, 8, 37, 0
10, 80040, Note_on_c, 8, 38, 90
10, 80099, Note_on_c, 8, 38, 0
10, 80100, Note_on_c, 8, 35, 90
10, 80159, Note_on_c, 8, 35, 0
10, 80160, Note_on_c, 8, 40, 90
10, 80219, Note_on_c, 8, 40, 0
10, 80220, Note_on_c, 8, 42, 90
10, 80279, Note_on_c, 8, 42, 0
10, 80280, Note_on_c, 8, 43, 90
10, 80339, Note_on_c, 8, 43, 0
10, 80340, Note_on_c, 8, 40, 90
10, 80399, Note_on_c, 8, 40, 0
10, 80400, Note_on_c, 8, 42, 90
10, 80519, Note_on_c, 8, 42, 0
10, 80580, Note_on_c, 8, 42, 90
10, 80639, Note_on_c, 8, 42, 0
10, 80640, Note_on_c, 8, 47, 90
10, 80699, Note_on_c, 8, 47, 0
10, 80700, Note_on_c, 8, 40, 90
10, 80759, Note_on_c, 8, 40, 0
10, 80760, Note_on_c, 8, 42, 90
10, 80819, Note_on_c, 8, 42, 0
10, 80820, Note_on_c, 8, 30, 90
10, 80879, Note_on_c, 8, 30, 0
10, 80880, Note_on_c, 8, 35, 90
10, 80939, Note_on_c, 8, 35, 0
10, 80940, Note_on_c, 8, 37, 90
10, 80999, Note_on_c, 8, 37, 0
10, 81000, Note_on_c, 8, 38, 90
10, 81059, Note_on_c, 8, 38, 0
10, 81060, Note_on_c, 8, 35, 90
10, 81119, Note_on_c, 8, 35, 0
10, 81120, Note_on_c, 8, 40, 90
10, 81179, Note_on_c, 8, 40, 0
10, 81180, Note_on_c, 8, 38, 90
10, 81239, Note_on_c, 8, 38, 0
10, 81240, Note_on_c, 8, 37, 90
10, 81299, Note_on_c, 8, 37, 0
10, 81300, Note_on_c, 8, 33, 90
10, 81359, Note_on_c, 8, 33, 0
10, 81360, Note_on_c, 8, 38, 90
10, 81419, Note_on_c, 8, 38, 0
10, 81420, Note_on_c, 8, 37, 90
10, 81479, Note_on_c, 8, 37, 0
10, 81480, Note_on_c, 8, 35, 90
10, 81539, Note_on_c, 8, 35, 0
10, 81540, Note_on_c, 8, 33, 90
10, 81599, Note_on_c, 8, 33, 0
10, 81600, Note_on_c, 8, 31, 90
10, 81659, Note_on_c, 8, 31, 0
10, 81660, Note_on_c, 8, 30, 90
10, 81719, Note_on_c, 8, 30, 0
10, 81720, Note_on_c, 8, 28, 90
10, 81779, Note_on_c, 8, 28, 0
10, 81780, Note_on_c, 8, 37, 90
10, 81839, Note_on_c, 8, 37, 0
10, 81840, Note_on_c, 8, 42, 90
10, 81959, Note_on_c, 8, 42, 0
10, 82080, Note_on_c, 8, 40, 90
10, 82199, Note_on_c, 8, 40, 0
10, 82320, Note_on_c, 8, 38, 90
10, 82439, Note_on_c, 8, 38, 0
10, 82560, Note_on_c, 8, 37, 90
10, 82679, Note_on_c, 8, 37, 0
10, 82800, Note_on_c, 8, 35, 90
10, 82859, Note_on_c, 8, 35, 0
10, 82860, Note_on_c, 8, 37, 90
10, 82919, Note_on_c, 8, 37, 0
10, 82920, Note_on_c, 8, 38, 90
10, 82979, Note_on_c, 8, 38, 0
10, 82980, Note_on_c, 8, 35, 90
10, 83039, Note_on_c, 8, 35, 0
10, 83040, Note_on_c, 8, 40, 90
10, 83099, Note_on_c, 8, 40, 0
10, 83100, Note_on_c, 8, 42, 90
10, 83159, Note_on_c, 8, 42, 0
10, 83160, Note_on_c, 8, 43, 90
10, 83219, Note_on_c, 8, 43, 0
10, 83220, Note_on_c, 8, 40, 90
10, 83279, Note_on_c, 8, 40, 0
10, 83280, Note_on_c, 8, 37, 90
10, 83339, Note_on_c, 8, 37, 0
10, 83340, Note_on_c, 8, 35, 90
10, 83399, Note_on_c, 8, 35, 0
10, 83400, Note_on_c, 8, 37, 90
10, 83459, Note_on_c, 8, 37, 0
10, 83460, Note_on_c, 8, 33, 90
10, 83519, Note_on_c, 8, 33, 0
10, 83520, Note_on_c, 8, 38, 90
10, 83579, Note_on_c, 8, 38, 0
10, 83580, Note_on_c, 8, 40, 90
10, 83639, Note_on_c, 8, 40, 0
10, 83640, Note_on_c, 8, 42, 90
10, 83699, Note_on_c, 8, 42, 0
10, 83700, Note_on_c, 8, 37, 90
10, 83759, Note_on_c, 8, 37, 0
10, 83760, Note_on_c, 8, 38, 90
10, 83819, Note_on_c, 8, 38, 0
10, 83820, Note_on_c, 8, 40, 90
10, 83879, Note_on_c, 8, 40, 0
10, 83880, Note_on_c, 8, 42, 90
10, 83939, Note_on_c, 8, 42, 0
10, 83940, Note_on_c, 8, 37, 90
10, 83999, Note_on_c, 8, 37, 0
10, 84000, Note_on_c, 8, 38, 90
10, 84059, Note_on_c, 8, 38, 0
10, 84060, Note_on_c, 8, 45, 90
10, 84119, Note_on_c, 8, 45, 0
10, 84120, Note_on_c, 8, 50, 90
10, 84179, Note_on_c, 8, 50, 0
10, 84180, Note_on_c, 8, 48, 90
10, 84239, Note_on_c, 8, 48, 0
10, 84240, Note_on_c, 8, 47, 90
10, 84299, Note_on_c, 8, 47, 0
10, 84300, Note_on_c, 8, 45, 90
10, 84359, Note_on_c, 8, 45, 0
10, 84360, Note_on_c, 8, 47, 90
10, 84419, Note_on_c, 8, 47, 0
10, 84420, Note_on_c, 8, 43, 90
10, 84479, Note_on_c, 8, 43, 0
10, 84480, Note_on_c, 8, 45, 90
10, 84539, Note_on_c, 8, 45, 0
10, 84540, Note_on_c, 8, 43, 90
10, 84599, Note_on_c, 8, 43, 0
10, 84600, Note_on_c, 8, 45, 90
10, 84659, Note_on_c, 8, 45, 0
10, 84660, Note_on_c, 8, 33, 90
10, 84719, Note_on_c, 8, 33, 0
10, 84720, Note_on_c, 8, 38, 90
10, 84779, Note_on_c, 8, 38, 0
10, 84780, Note_on_c, 8, 40, 90
10, 84839, Note_on_c, 8, 40, 0
10, 84840, Note_on_c, 8, 42, 90
10, 84899, Note_on_c, 8, 42, 0
10, 84900, Note_on_c, 8, 38, 90
10, 84959, Note_on_c, 8, 38, 0
10, 84960, Note_on_c, 8, 37, 90
10, 85019, Note_on_c, 8, 37, 0
10, 85020, Note_on_c, 8, 33, 90
10, 85079, Note_on_c, 8, 33, 0
10, 85080, Note_on_c, 8, 38, 90
10, 85139, Note_on_c, 8, 38, 0
10, 85140, Note_on_c, 8, 42, 90
10, 85199, Note_on_c, 8, 42, 0
10, 85200, Note_on_c, 8, 37, 90
10, 85259, Note_on_c, 8, 37, 0
10, 85260, Note_on_c, 8, 35, 90
10, 85289, Note_on_c, 8, 35, 0
10, 85290, Note_on_c, 8, 33, 90
10, 85319, Note_on_c, 8, 33, 0
10, 85320, Note_on_c, 8, 38, 90
10, 85379, Note_on_c, 8, 38, 0
10, 85380, Note_on_c, 8, 42, 90
10, 85439, Note_on_c, 8, 42, 0
10, 85440, Note_on_c, 8, 37, 90
10, 85499, Note_on_c, 8, 37, 0
10, 85500, Note_on_c, 8, 35, 90
10, 85529, Note_on_c, 8, 35, 0
10, 85530, Note_on_c, 8, 33, 90
10, 85559, Note_on_c, 8, 33, 0
10, 85560, Note_on_c, 8, 38, 90
10, 85619, Note_on_c, 8, 38, 0
10, 85620, Note_on_c, 8, 42, 90
10, 85679, Note_on_c, 8, 42, 0
10, 85680, Note_on_c, 8, 37, 90
10, 85739, Note_on_c, 8, 37, 0
10, 85740, Note_on_c, 8, 35, 90
10, 85769, Note_on_c, 8, 35, 0
10, 85770, Note_on_c, 8, 33, 90
10, 85799, Note_on_c, 8, 33, 0
10, 85800, Note_on_c, 8, 38, 90
10, 85859, Note_on_c, 8, 38, 0
10, 85860, Note_on_c, 8, 40, 90
10, 85919, Note_on_c, 8, 40, 0
10, 85920, Note_on_c, 8, 42, 90
10, 85979, Note_on_c, 8, 42, 0
10, 85980, Note_on_c, 8, 38, 90
10, 86039, Note_on_c, 8, 38, 0
10, 86040, Note_on_c, 8, 40, 90
10, 86099, Note_on_c, 8, 40, 0
10, 86100, Note_on_c, 8, 42, 90
10, 86159, Note_on_c, 8, 42, 0
10, 86160, Note_on_c, 8, 43, 90
10, 86219, Note_on_c, 8, 43, 0
10, 86220, Note_on_c, 8, 45, 90
10, 86279, Note_on_c, 8, 45, 0
10, 86280, Note_on_c, 8, 47, 90
10, 86339, Note_on_c, 8, 47, 0
10, 86340, Note_on_c, 8, 45, 90
10, 86399, Note_on_c, 8, 45, 0
10, 86400, Note_on_c, 8, 44, 90
10, 86459, Note_on_c, 8, 44, 0
10, 86460, Note_on_c, 8, 40, 90
10, 86519, Note_on_c, 8, 40, 0
10, 86520, Note_on_c, 8, 42, 90
10, 86579, Note_on_c, 8, 42, 0
10, 86580, Note_on_c, 8, 44, 90
10, 86639, Note_on_c, 8, 44, 0
10, 86640, Note_on_c, 8, 45, 90
10, 86699, Note_on_c, 8, 45, 0
10, 86700, Note_on_c, 8, 47, 90
10, 86759, Note_on_c, 8, 47, 0
10, 86760, Note_on_c, 8, 45, 90
10, 86819, Note_on_c, 8, 45, 0
10, 86820, Note_on_c, 8, 43, 90
10, 86879, Note_on_c, 8, 43, 0
10, 86880, Note_on_c, 8, 42, 90
10, 86939, Note_on_c, 8, 42, 0
10, 86940, Note_on_c, 8, 40, 90
10, 86999, Note_on_c, 8, 40, 0
10, 87000, Note_on_c, 8, 39, 90
10, 87059, Note_on_c, 8, 39, 0
10, 87060, Note_on_c, 8, 40, 90
10, 87119, Note_on_c, 8, 40, 0
10, 87120, Note_on_c, 8, 47, 90
10, 87179, Note_on_c, 8, 47, 0
10, 87180, Note_on_c, 8, 45, 90
10, 87239, Note_on_c, 8, 45, 0
10, 87240, Note_on_c, 8, 43, 90
10, 87299, Note_on_c, 8, 43, 0
10, 87300, Note_on_c, 8, 40, 90
10, 87359, Note_on_c, 8, 40, 0
10, 87360, Note_on_c, 8, 45, 90
10, 87419, Note_on_c, 8, 45, 0
10, 87420, Note_on_c, 8, 43, 90
10, 87479, Note_on_c, 8, 43, 0
10, 87480, Note_on_c, 8, 42, 90
10, 87539, Note_on_c, 8, 42, 0
10, 87540, Note_on_c, 8, 38, 90
10, 87599, Note_on_c, 8, 38, 0
10, 87600, Note_on_c, 8, 43, 90
10, 87659, Note_on_c, 8, 43, 0
10, 87660, Note_on_c, 8, 42, 90
10, 87719, Note_on_c, 8, 42, 0
10, 87720, Note_on_c, 8, 40, 90
10, 87779, Note_on_c, 8, 40, 0
10, 87780, Note_on_c, 8, 43, 90
10, 87839, Note_on_c, 8, 43, 0
10, 87840, Note_on_c, 8, 42, 90
10, 87899, Note_on_c, 8, 42, 0
10, 87900, Note_on_c, 8, 40, 90
10, 87959, Note_on_c, 8, 40, 0
10, 87960, Note_on_c, 8, 39, 90
10, 88019, Note_on_c, 8, 39, 0
10, 88020, Note_on_c, 8, 40, 90
10, 88079, Note_on_c, 8, 40, 0
10, 88080, Note_on_c, 8, 35, 90
10, 88199, Note_on_c, 8, 35, 0
10, 88320, Note_on_c, 8, 33, 90
10, 88439, Note_on_c, 8, 33, 0
10, 88560, Note_on_c, 8, 31, 90
10, 88679, Note_on_c, 8, 31, 0
10, 88800, Note_on_c, 8, 30, 90
10, 88919, Note_on_c, 8, 30, 0
10, 89040, Note_on_c, 8, 40, 90
10, 89099, Note_on_c, 8, 40, 0
10, 89100, Note_on_c, 8, 38, 90
10, 89159, Note_on_c, 8, 38, 0
10, 89160, Note_on_c, 8, 36, 90
10, 89219, Note_on_c, 8, 36, 0
10, 89220, Note_on_c, 8, 35, 90
10, 89279, Note_on_c, 8, 35, 0
10, 89280, Note_on_c, 8, 33, 90
10, 89339, Note_on_c, 8, 33, 0
10, 89340, Note_on_c, 8, 35, 90
10, 89399, Note_on_c, 8, 35, 0
10, 89400, Note_on_c, 8, 36, 90
10, 89459, Note_on_c, 8, 36, 0
10, 89460, Note_on_c, 8, 33, 90
10, 89519, Note_on_c, 8, 33, 0
10, 89520, Note_on_c, 8, 35, 90
10, 89579, Note_on_c, 8, 35, 0
10, 89580, Note_on_c, 8, 39, 90
10, 89639, Note_on_c, 8, 39, 0
10, 89640, Note_on_c, 8, 40, 90
10, 89699, Note_on_c, 8, 40, 0
10, 89700, Note_on_c, 8, 48, 90
10, 89759, Note_on_c, 8, 48, 0
10, 89760, Note_on_c, 8, 47, 90
10, 89819, Note_on_c, 8, 47, 0
10, 89820, Note_on_c, 8, 45, 90
10, 89879, Note_on_c, 8, 45, 0
10, 89880, Note_on_c, 8, 47, 90
10, 89939, Note_on_c, 8, 47, 0
10, 89940, Note_on_c, 8, 35, 90
10, 89999, Note_on_c, 8, 35, 0
10, 90000, Note_on_c, 8, 40, 90
10, 90059, Note_on_c, 8, 40, 0
10, 90060, Note_on_c, 8, 42, 90
10, 90119, Note_on_c, 8, 42, 0
10, 90120, Note_on_c, 8, 43, 90
10, 90179, Note_on_c, 8, 43, 0
10, 90180, Note_on_c, 8, 40, 90
10, 90239, Note_on_c, 8, 40, 0
10, 90240, Note_on_c, 8, 45, 90
10, 90299, Note_on_c, 8, 45, 0
10, 90300, Note_on_c, 8, 43, 90
10, 90359, Note_on_c, 8, 43, 0
10, 90360, Note_on_c, 8, 42, 90
10, 90419, Note_on_c, 8, 42, 0
10, 90420, Note_on_c, 8, 38, 90
10, 90479, Note_on_c, 8, 38, 0
10, 90480, Note_on_c, 8, 43, 90
10, 90539, Note_on_c, 8, 43, 0
10, 90540, Note_on_c, 8, 42, 90
10, 90599, Note_on_c, 8, 42, 0
10, 90600, Note_on_c, 8, 40, 90
10, 90659, Note_on_c, 8, 40, 0
10, 90660, Note_on_c, 8, 38, 90
10, 90719, Note_on_c, 8, 38, 0
10, 90720, Note_on_c, 8, 36, 90
10, 90779, Note_on_c, 8, 36, 0
10, 90780, Note_on_c, 8, 35, 90
10, 90839, Note_on_c, 8, 35, 0
10, 90840, Note_on_c, 8, 33, 90
10, 90899, Note_on_c, 8, 33, 0
10, 90900, Note_on_c, 8, 30, 90
10, 90959, Note_on_c, 8, 30, 0
10, 90960, Note_on_c, 8, 35, 90
10, 91079, Note_on_c, 8, 35, 0
10, 91200, Note_on_c, 8, 33, 90
10, 91319, Note_on_c, 8, 33, 0
10, 91440, Note_on_c, 8, 31, 90
10, 91559, Note_on_c, 8, 31, 0
10, 91680, Note_on_c, 8, 30, 90
10, 91799, Note_on_c, 8, 30, 0
10, 91920, Note_on_c, 8, 28, 90
10, 91979, Note_on_c, 8, 28, 0
10, 91980, Note_on_c, 8, 30, 90
10, 92039, Note_on_c, 8, 30, 0
10, 92040, Note_on_c, 8, 31, 90
10, 92099, Note_on_c, 8, 31, 0
10, 92100, Note_on_c, 8, 28, 90
10, 92159, Note_on_c, 8, 28, 0
10, 92160, Note_on_c, 8, 33, 90
10, 92219, Note_on_c, 8, 33, 0
10, 92220, Note_on_c, 8, 35, 90
10, 92279, Note_on_c, 8, 35, 0
10, 92280, Note_on_c, 8, 36, 90
10, 92339, Note_on_c, 8, 36, 0
10, 92340, Note_on_c, 8, 33, 90
10, 92399, Note_on_c, 8, 33, 0
10, 92400, Note_on_c, 8, 35, 90
10, 92459, Note_on_c, 8, 35, 0
10, 92460, Note_on_c, 8, 39, 90
10, 92519, Note_on_c, 8, 39, 0
10, 92520, Note_on_c, 8, 40, 90
10, 92579, Note_on_c, 8, 40, 0
10, 92580, Note_on_c, 8, 43, 90
10, 92639, Note_on_c, 8, 43, 0
10, 92640, Note_on_c, 8, 48, 90
10, 92699, Note_on_c, 8, 48, 0
10, 92700, Note_on_c, 8, 45, 90
10, 92759, Note_on_c, 8, 45, 0
10, 92760, Note_on_c, 8, 47, 90
10, 92819, Note_on_c, 8, 47, 0
10, 92820, Note_on_c, 8, 35, 90
10, 92879, Note_on_c, 8, 35, 0
10, 92880, Note_on_c, 8, 40, 90
10, 92999, Note_on_c, 8, 40, 0
10, 93360, Note_on_c, 8, 37, 90
10, 94200, Note_on_c, 8, 37, 0
10, 94200, Note_on_c, 8, 34, 90
10, 94320, Note_on_c, 8, 34, 0
10, 94320, Note_on_c, 8, 35, 90
10, 94560, Note_on_c, 8, 35, 0
10, 94560, Note_on_c, 8, 42, 90
10, 95040, Note_on_c, 8, 42, 0
10, 95040, Note_on_c, 8, 43, 90
10, 95099, Note_on_c, 8, 43, 0
10, 95100, Note_on_c, 8, 45, 90
10, 95159, Note_on_c, 8, 45, 0
10, 95160, Note_on_c, 8, 43, 90
10, 95219, Note_on_c, 8, 43, 0
10, 95220, Note_on_c, 8, 42, 90
10, 95279, Note_on_c, 8, 42, 0
10, 95280, Note_on_c, 8, 40, 90
10, 95339, Note_on_c, 8, 40, 0
10, 95340, Note_on_c, 8, 42, 90
10, 95399, Note_on_c, 8, 42, 0
10, 95400, Note_on_c, 8, 43, 90
10, 95459, Note_on_c, 8, 43, 0
10, 95460, Note_on_c, 8, 40, 90
10, 95519, Note_on_c, 8, 40, 0
10, 95520, Note_on_c, 8, 45, 90
10, 95579, Note_on_c, 8, 45, 0
10, 95580, Note_on_c, 8, 47, 90
10, 95639, Note_on_c, 8, 47, 0
10, 95640, Note_on_c, 8, 45, 90
10, 95699, Note_on_c, 8, 45, 0
10, 95700, Note_on_c, 8, 43, 90
10, 95759, Note_on_c, 8, 43, 0
10, 95760, Note_on_c, 8, 42, 90
10, 95819, Note_on_c, 8, 42, 0
10, 95820, Note_on_c, 8, 40, 90
10, 95879, Note_on_c, 8, 40, 0
10, 95880, Note_on_c, 8, 38, 90
10, 95939, Note_on_c, 8, 38, 0
10, 95940, Note_on_c, 8, 35, 90
10, 95999, Note_on_c, 8, 35, 0
10, 96000, Note_on_c, 8, 40, 90
10, 96059, Note_on_c, 8, 40, 0
10, 96060, Note_on_c, 8, 38, 90
10, 96119, Note_on_c, 8, 38, 0
10, 96120, Note_on_c, 8, 37, 90
10, 96179, Note_on_c, 8, 37, 0
10, 96180, Note_on_c, 8, 33, 90
10, 96239, Note_on_c, 8, 33, 0
10, 96240, Note_on_c, 8, 38, 90
10, 96299, Note_on_c, 8, 38, 0
10, 96300, Note_on_c, 8, 37, 90
10, 96359, Note_on_c, 8, 37, 0
10, 96360, Note_on_c, 8, 35, 90
10, 96419, Note_on_c, 8, 35, 0
10, 96420, Note_on_c, 8, 38, 90
10, 96479, Note_on_c, 8, 38, 0
10, 96480, Note_on_c, 8, 43, 90
10, 96539, Note_on_c, 8, 43, 0
10, 96540, Note_on_c, 8, 47, 90
10, 96599, Note_on_c, 8, 47, 0
10, 96600, Note_on_c, 8, 44, 90
10, 96659, Note_on_c, 8, 44, 0
10, 96660, Note_on_c, 8, 40, 90
10, 96719, Note_on_c, 8, 40, 0
10, 96720, Note_on_c, 8, 45, 90
10, 96779, Note_on_c, 8, 45, 0
10, 96780, Note_on_c, 8, 47, 90
10, 96839, Note_on_c, 8, 47, 0
10, 96840, Note_on_c, 8, 45, 90
10, 96899, Note_on_c, 8, 45, 0
10, 96900, Note_on_c, 8, 43, 90
10, 96959, Note_on_c, 8, 43, 0
10, 96960, Note_on_c, 8, 42, 90
10, 97019, Note_on_c, 8, 42, 0
10, 97020, Note_on_c, 8, 43, 90
10, 97079, Note_on_c, 8, 43, 0
10, 97080, Note_on_c, 8, 45, 90
10, 97139, Note_on_c, 8, 45, 0
10, 97140, Note_on_c, 8, 42, 90
10, 97199, Note_on_c, 8, 42, 0
10, 97200, Note_on_c, 8, 47, 90
10, 97259, Note_on_c, 8, 47, 0
10, 97260, Note_on_c, 8, 45, 90
10, 97319, Note_on_c, 8, 45, 0
10, 97320, Note_on_c, 8, 47, 90
10, 97379, Note_on_c, 8, 47, 0
10, 97380, Note_on_c, 8, 43, 90
10, 97439, Note_on_c, 8, 43, 0
10, 97440, Note_on_c, 8, 45, 90
10, 97499, Note_on_c, 8, 45, 0
10, 97500, Note_on_c, 8, 43, 90
10, 97559, Note_on_c, 8, 43, 0
10, 97560, Note_on_c, 8, 45, 90
10, 97619, Note_on_c, 8, 45, 0
10, 97620, Note_on_c, 8, 33, 90
10, 97679, Note_on_c, 8, 33, 0
10, 97680, Note_on_c, 8, 38, 90
10, 97739, Note_on_c, 8, 38, 0
10, 97740, Note_on_c, 8, 40, 90
10, 97799, Note_on_c, 8, 40, 0
10, 97800, Note_on_c, 8, 42, 90
10, 97859, Note_on_c, 8, 42, 0
10, 97860, Note_on_c, 8, 38, 90
10, 97919, Note_on_c, 8, 38, 0
10, 97920, Note_on_c, 8, 35, 90
10, 97979, Note_on_c, 8, 35, 0
10, 97980, Note_on_c, 8, 37, 90
10, 98039, Note_on_c, 8, 37, 0
10, 98040, Note_on_c, 8, 35, 90
10, 98099, Note_on_c, 8, 35, 0
10, 98100, Note_on_c, 8, 33, 90
10, 98159, Note_on_c, 8, 33, 0
10, 98160, Note_on_c, 8, 31, 90
10, 98219, Note_on_c, 8, 31, 0
10, 98220, Note_on_c, 8, 30, 90
10, 98279, Note_on_c, 8, 30, 0
10, 98280, Note_on_c, 8, 31, 90
10, 98339, Note_on_c, 8, 31, 0
10, 98340, Note_on_c, 8, 33, 90
10, 98399, Note_on_c, 8, 33, 0
10, 98400, Note_on_c, 8, 26, 90
10, 98639, Note_on_c, 8, 26, 0
10, 150840, Note_on_c, 8, 42, 90
10, 151320, Note_on_c, 8, 42, 0
10, 151320, Note_on_c, 8, 43, 90
10, 151800, Note_on_c, 8, 43, 0
10, 151800, Note_on_c, 8, 35, 90
10, 152280, Note_on_c, 8, 35, 0
10, 152280, Note_on_c, 8, 36, 90
10, 152520, Note_on_c, 8, 36, 0
10, 152520, Note_on_c, 8, 32, 90
10, 152790, Note_on_c, 8, 32, 0
10, 152790, Note_on_c, 8, 53, 90
10, 152819, Note_on_c, 8, 53, 0
10, 152820, Note_on_c, 8, 50, 90
10, 152849, Note_on_c, 8, 50, 0
10, 152850, Note_on_c, 8, 47, 90
10, 152879, Note_on_c, 8, 47, 0
10, 152880, Note_on_c, 8, 44, 90
10, 152909, Note_on_c, 8, 44, 0
10, 152910, Note_on_c, 8, 47, 90
10, 152939, Note_on_c, 8, 47, 0
10, 152940, Note_on_c, 8, 44, 90
10, 152969, Note_on_c, 8, 44, 0
10, 152970, Note_on_c, 8, 40, 90
10, 152999, Note_on_c, 8, 40, 0
10, 153000, Note_on_c, 8, 33, 90
10, 153029, Note_on_c, 8, 33, 0
10, 153030, Note_on_c, 8, 52, 90
10, 153059, Note_on_c, 8, 52, 0
10, 153060, Note_on_c, 8, 49, 90
10, 153089, Note_on_c, 8, 49, 0
10, 153090, Note_on_c, 8, 45, 90
10, 153119, Note_on_c, 8, 45, 0
10, 153120, Note_on_c, 8, 42, 90
10, 153149, Note_on_c, 8, 42, 0
10, 153150, Note_on_c, 8, 45, 90
10, 153179, Note_on_c, 8, 45, 0
10, 153180, Note_on_c, 8, 42, 90
10, 153209, Note_on_c, 8, 42, 0
10, 153210, Note_on_c, 8, 38, 90
10, 153239, Note_on_c, 8, 38, 0
10, 153240, Note_on_c, 8, 31, 90
10, 153269, Note_on_c, 8, 31, 0
10, 153270, Note_on_c, 8, 43, 90
10, 153299, Note_on_c, 8, 43, 0
10, 153300, Note_on_c, 8, 40, 90
10, 153329, Note_on_c, 8, 40, 0
10, 153330, Note_on_c, 8, 37, 90
10, 153359, Note_on_c, 8, 37, 0
10, 153360, Note_on_c, 8, 38, 90
10, 153419, Note_on_c, 8, 38, 0
10, 153420, Note_on_c, 8, 26, 90
10, 153479, Note_on_c, 8, 26, 0
10, 153480, Note_on_c, 8, 31, 90
10, 153719, Note_on_c, 8, 31, 0
10, 153960, Note_on_c, 8, 43, 90
10, 154055, Note_on_c, 8, 43, 0
10, 154080, Note_on_c, 8, 40, 90
10, 154175, Note_on_c, 8, 40, 0
10, 154200, Note_on_c, 8, 35, 90
10, 154295, Note_on_c, 8, 35, 0
10, 154320, Note_on_c, 8, 36, 90
10, 154415, Note_on_c, 8, 36, 0
10, 154440, Note_on_c, 8, 33, 90
10, 154535, Note_on_c, 8, 33, 0
10, 154560, Note_on_c, 8, 31, 90
10, 154655, Note_on_c, 8, 31, 0
10, 154680, Note_on_c, 8, 38, 90
10, 154775, Note_on_c, 8, 38, 0
10, 154800, Note_on_c, 8, 36, 90
10, 154895, Note_on_c, 8, 36, 0
10, 154920, Note_on_c, 8, 35, 90
10, 155015, Note_on_c, 8, 35, 0
10, 155040, Note_on_c, 8, 38, 90
10, 155135, Note_on_c, 8, 38, 0
10, 155160, Note_on_c, 8, 40, 90
10, 155255, Note_on_c, 8, 40, 0
10, 155280, Note_on_c, 8, 36, 90
10, 155375, Note_on_c, 8, 36, 0
10, 155400, Note_on_c, 8, 38, 90
10, 155495, Note_on_c, 8, 38, 0
10, 155520, Note_on_c, 8, 26, 90
10, 155615, Note_on_c, 8, 26, 0
10, 155640, Note_on_c, 8, 31, 90
10, 155831, Note_on_c, 8, 31, 0
10, 155880, Note_on_c, 8, 43, 90
10, 155975, Note_on_c, 8, 43, 0
10, 156000, Note_on_c, 8, 40, 90
10, 156095, Note_on_c, 8, 40, 0
10, 156120, Note_on_c, 8, 45, 90
10, 156215, Note_on_c, 8, 45, 0
10, 156240, Note_on_c, 8, 42, 90
10, 156335, Note_on_c, 8, 42, 0
10, 156360, Note_on_c, 8, 40, 90
10, 156455, Note_on_c, 8, 40, 0
10, 156480, Note_on_c, 8, 38, 90
10, 156575, Note_on_c, 8, 38, 0
10, 156600, Note_on_c, 8, 45, 90
10, 156695, Note_on_c, 8, 45, 0
10, 156720, Note_on_c, 8, 43, 90
10, 156815, Note_on_c, 8, 43, 0
10, 156840, Note_on_c, 8, 42, 90
10, 156935, Note_on_c, 8, 42, 0
10, 156960, Note_on_c, 8, 45, 90
10, 157055, Note_on_c, 8, 45, 0
10, 157080, Note_on_c, 8, 47, 90
10, 157175, Note_on_c, 8, 47, 0
10, 157200, Note_on_c, 8, 43, 90
10, 157295, Note_on_c, 8, 43, 0
10, 157320, Note_on_c, 8, 45, 90
10, 157415, Note_on_c, 8, 45, 0
10, 157440, Note_on_c, 8, 33, 90
10, 157535, Note_on_c, 8, 33, 0
10, 157560, Note_on_c, 8, 38, 90
10, 157703, Note_on_c, 8, 38, 0
10, 157740, Note_on_c, 8, 36, 90
10, 157787, Note_on_c, 8, 36, 0
10, 157800, Note_on_c, 8, 35, 90
10, 157895, Note_on_c, 8, 35, 0
10, 157920, Note_on_c, 8, 31, 90
10, 158015, Note_on_c, 8, 31, 0
10, 158040, Note_on_c, 8, 36, 90
10, 158135, Note_on_c, 8, 36, 0
10, 158160, Note_on_c, 8, 48, 90
10, 158255, Note_on_c, 8, 48, 0
10, 158280, Note_on_c, 8, 44, 90
10, 158375, Note_on_c, 8, 44, 0
10, 158400, Note_on_c, 8, 40, 90
10, 158495, Note_on_c, 8, 40, 0
10, 158520, Note_on_c, 8, 45, 90
10, 158615, Note_on_c, 8, 45, 0
10, 158640, Note_on_c, 8, 43, 90
10, 158735, Note_on_c, 8, 43, 0
10, 158760, Note_on_c, 8, 42, 90
10, 158855, Note_on_c, 8, 42, 0
10, 158880, Note_on_c, 8, 38, 90
10, 158975, Note_on_c, 8, 38, 0
10, 159000, Note_on_c, 8, 43, 90
10, 159095, Note_on_c, 8, 43, 0
10, 159120, Note_on_c, 8, 40, 90
10, 159215, Note_on_c, 8, 40, 0
10, 159240, Note_on_c, 8, 45, 90
10, 159335, Note_on_c, 8, 45, 0
10, 159360, Note_on_c, 8, 33, 90
10, 159455, Note_on_c, 8, 33, 0
10, 159480, Note_on_c, 8, 38, 90
10, 159575, Note_on_c, 8, 38, 0
10, 159600, Note_on_c, 8, 40, 90
10, 159695, Note_on_c, 8, 40, 0
10, 159720, Note_on_c, 8, 42, 90
10, 159815, Note_on_c, 8, 42, 0
10, 159840, Note_on_c, 8, 38, 90
10, 159935, Note_on_c, 8, 38, 0
10, 159960, Note_on_c, 8, 43, 90
10, 160055, Note_on_c, 8, 43, 0
10, 160080, Note_on_c, 8, 41, 90
10, 160175, Note_on_c, 8, 41, 0
10, 160200, Note_on_c, 8, 40, 90
10, 160295, Note_on_c, 8, 40, 0
10, 160320, Note_on_c, 8, 38, 90
10, 160415, Note_on_c, 8, 38, 0
10, 160440, Note_on_c, 8, 36, 90
10, 160535, Note_on_c, 8, 36, 0
10, 160560, Note_on_c, 8, 35, 90
10, 160655, Note_on_c, 8, 35, 0
10, 160680, Note_on_c, 8, 36, 90
10, 160775, Note_on_c, 8, 36, 0
10, 160800, Note_on_c, 8, 33, 90
10, 160895, Note_on_c, 8, 33, 0
10, 160920, Note_on_c, 8, 35, 90
10, 161015, Note_on_c, 8, 35, 0
10, 161040, Note_on_c, 8, 33, 90
10, 161087, Note_on_c, 8, 33, 0
10, 161100, Note_on_c, 8, 31, 90
10, 161147, Note_on_c, 8, 31, 0
10, 161160, Note_on_c, 8, 38, 90
10, 161255, Note_on_c, 8, 38, 0
10, 161280, Note_on_c, 8, 26, 90
10, 161375, Note_on_c, 8, 26, 0
10, 161400, Note_on_c, 8, 31, 90
10, 161591, Note_on_c, 8, 31, 0
10, 161640, Note_on_c, 8, 43, 90
10, 161735, Note_on_c, 8, 43, 0
10, 161760, Note_on_c, 8, 40, 90
10, 161855, Note_on_c, 8, 40, 0
10, 161880, Note_on_c, 8, 35, 90
10, 161975, Note_on_c, 8, 35, 0
10, 162000, Note_on_c, 8, 36, 90
10, 162095, Note_on_c, 8, 36, 0
10, 162120, Note_on_c, 8, 33, 90
10, 162215, Note_on_c, 8, 33, 0
10, 162240, Note_on_c, 8, 31, 90
10, 162335, Note_on_c, 8, 31, 0
10, 162360, Note_on_c, 8, 38, 90
10, 162455, Note_on_c, 8, 38, 0
10, 162480, Note_on_c, 8, 36, 90
10, 162575, Note_on_c, 8, 36, 0
10, 162600, Note_on_c, 8, 35, 90
10, 162695, Note_on_c, 8, 35, 0
10, 162720, Note_on_c, 8, 38, 90
10, 162815, Note_on_c, 8, 38, 0
10, 162840, Note_on_c, 8, 40, 90
10, 162935, Note_on_c, 8, 40, 0
10, 162960, Note_on_c, 8, 36, 90
10, 163055, Note_on_c, 8, 36, 0
10, 163080, Note_on_c, 8, 38, 90
10, 163175, Note_on_c, 8, 38, 0
10, 163200, Note_on_c, 8, 26, 90
10, 163295, Note_on_c, 8, 26, 0
10, 163320, Note_on_c, 8, 31, 90
10, 163415, Note_on_c, 8, 31, 0
10, 163440, Note_on_c, 8, 38, 90
10, 163535, Note_on_c, 8, 38, 0
10, 163560, Note_on_c, 8, 43, 90
10, 163655, Note_on_c, 8, 43, 0
10, 163680, Note_on_c, 8, 40, 90
10, 163775, Note_on_c, 8, 40, 0
10, 163800, Note_on_c, 8, 45, 90
10, 163895, Note_on_c, 8, 45, 0
10, 163920, Note_on_c, 8, 42, 90
10, 164015, Note_on_c, 8, 42, 0
10, 164040, Note_on_c, 8, 40, 90
10, 164135, Note_on_c, 8, 40, 0
10, 164160, Note_on_c, 8, 38, 90
10, 164255, Note_on_c, 8, 38, 0
10, 164280, Note_on_c, 8, 45, 90
10, 164375, Note_on_c, 8, 45, 0
10, 164400, Note_on_c, 8, 43, 90
10, 164495, Note_on_c, 8, 43, 0
10, 164520, Note_on_c, 8, 45, 90
10, 164615, Note_on_c, 8, 45, 0
10, 164640, Note_on_c, 8, 42, 90
10, 164735, Note_on_c, 8, 42, 0
10, 164760, Note_on_c, 8, 47, 90
10, 164855, Note_on_c, 8, 47, 0
10, 164880, Note_on_c, 8, 43, 90
10, 164975, Note_on_c, 8, 43, 0
10, 165000, Note_on_c, 8, 45, 90
10, 165095, Note_on_c, 8, 45, 0
10, 165120, Note_on_c, 8, 33, 90
10, 165215, Note_on_c, 8, 33, 0
10, 165240, Note_on_c, 8, 38, 90
10, 165335, Note_on_c, 8, 38, 0
10, 165360, Note_on_c, 8, 36, 90
10, 165455, Note_on_c, 8, 36, 0
10, 165480, Note_on_c, 8, 35, 90
10, 165575, Note_on_c, 8, 35, 0
10, 165600, Note_on_c, 8, 31, 90
10, 165695, Note_on_c, 8, 31, 0
10, 165720, Note_on_c, 8, 36, 90
10, 165815, Note_on_c, 8, 36, 0
10, 165840, Note_on_c, 8, 48, 90
10, 165935, Note_on_c, 8, 48, 0
10, 165960, Note_on_c, 8, 44, 90
10, 166055, Note_on_c, 8, 44, 0
10, 166080, Note_on_c, 8, 40, 90
10, 166175, Note_on_c, 8, 40, 0
10, 166200, Note_on_c, 8, 45, 90
10, 166295, Note_on_c, 8, 45, 0
10, 166320, Note_on_c, 8, 43, 90
10, 166415, Note_on_c, 8, 43, 0
10, 166440, Note_on_c, 8, 42, 90
10, 166535, Note_on_c, 8, 42, 0
10, 166560, Note_on_c, 8, 38, 90
10, 166655, Note_on_c, 8, 38, 0
10, 166680, Note_on_c, 8, 43, 90
10, 166775, Note_on_c, 8, 43, 0
10, 166800, Note_on_c, 8, 40, 90
10, 166895, Note_on_c, 8, 40, 0
10, 166920, Note_on_c, 8, 45, 90
10, 167015, Note_on_c, 8, 45, 0
10, 167040, Note_on_c, 8, 33, 90
10, 167135, Note_on_c, 8, 33, 0
10, 167160, Note_on_c, 8, 38, 90
10, 167255, Note_on_c, 8, 38, 0
10, 167280, Note_on_c, 8, 40, 90
10, 167375, Note_on_c, 8, 40, 0
10, 167400, Note_on_c, 8, 42, 90
10, 167495, Note_on_c, 8, 42, 0
10, 167520, Note_on_c, 8, 38, 90
10, 167615, Note_on_c, 8, 38, 0
10, 167640, Note_on_c, 8, 43, 90
10, 167735, Note_on_c, 8, 43, 0
10, 167760, Note_on_c, 8, 41, 90
10, 167855, Note_on_c, 8, 41, 0
10, 167880, Note_on_c, 8, 40, 90
10, 167975, Note_on_c, 8, 40, 0
10, 168000, Note_on_c, 8, 38, 90
10, 168095, Note_on_c, 8, 38, 0
10, 168120, Note_on_c, 8, 36, 90
10, 168215, Note_on_c, 8, 36, 0
10, 168240, Note_on_c, 8, 38, 90
10, 168335, Note_on_c, 8, 38, 0
10, 168360, Note_on_c, 8, 40, 90
10, 168455, Note_on_c, 8, 40, 0
10, 168480, Note_on_c, 8, 36, 90
10, 168575, Note_on_c, 8, 36, 0
10, 168600, Note_on_c, 8, 35, 90
10, 168695, Note_on_c, 8, 35, 0
10, 168720, Note_on_c, 8, 36, 90
10, 168815, Note_on_c, 8, 36, 0
10, 168840, Note_on_c, 8, 38, 90
10, 168935, Note_on_c, 8, 38, 0
10, 168960, Note_on_c, 8, 26, 90
10, 169055, Note_on_c, 8, 26, 0
10, 169080, Note_on_c, 8, 31, 90
10, 169271, Note_on_c, 8, 31, 0
10, 169320, Note_on_c, 8, 43, 90
10, 169415, Note_on_c, 8, 43, 0
10, 169440, Note_on_c, 8, 40, 90
10, 169535, Note_on_c, 8, 40, 0
10, 169560, Note_on_c, 8, 35, 90
10, 169655, Note_on_c, 8, 35, 0
10, 169680, Note_on_c, 8, 36, 90
10, 169775, Note_on_c, 8, 36, 0
10, 169800, Note_on_c, 8, 33, 90
10, 169895, Note_on_c, 8, 33, 0
10, 169920, Note_on_c, 8, 31, 90
10, 170015, Note_on_c, 8, 31, 0
10, 170040, Note_on_c, 8, 38, 90
10, 170135, Note_on_c, 8, 38, 0
10, 170160, Note_on_c, 8, 36, 90
10, 170255, Note_on_c, 8, 36, 0
10, 170280, Note_on_c, 8, 35, 90
10, 170375, Note_on_c, 8, 35, 0
10, 170400, Note_on_c, 8, 38, 90
10, 170495, Note_on_c, 8, 38, 0
10, 170520, Note_on_c, 8, 40, 90
10, 170615, Note_on_c, 8, 40, 0
10, 170640, Note_on_c, 8, 36, 90
10, 170735, Note_on_c, 8, 36, 0
10, 170760, Note_on_c, 8, 38, 90
10, 170855, Note_on_c, 8, 38, 0
10, 170880, Note_on_c, 8, 26, 90
10, 170975, Note_on_c, 8, 26, 0
10, 171000, Note_on_c, 8, 31, 90
10, 171191, Note_on_c, 8, 31, 0
10, 171240, Note_on_c, 8, 43, 90
10, 171335, Note_on_c, 8, 43, 0
10, 171360, Note_on_c, 8, 40, 90
10, 171455, Note_on_c, 8, 40, 0
10, 171480, Note_on_c, 8, 45, 90
10, 171575, Note_on_c, 8, 45, 0
10, 171600, Note_on_c, 8, 42, 90
10, 171695, Note_on_c, 8, 42, 0
10, 171720, Note_on_c, 8, 40, 90
10, 171815, Note_on_c, 8, 40, 0
10, 171840, Note_on_c, 8, 38, 90
10, 171935, Note_on_c, 8, 38, 0
10, 171960, Note_on_c, 8, 45, 90
10, 172055, Note_on_c, 8, 45, 0
10, 172080, Note_on_c, 8, 43, 90
10, 172175, Note_on_c, 8, 43, 0
10, 172200, Note_on_c, 8, 42, 90
10, 172295, Note_on_c, 8, 42, 0
10, 172320, Note_on_c, 8, 45, 90
10, 172415, Note_on_c, 8, 45, 0
10, 172440, Note_on_c, 8, 47, 90
10, 172535, Note_on_c, 8, 47, 0
10, 172560, Note_on_c, 8, 43, 90
10, 172655, Note_on_c, 8, 43, 0
10, 172680, Note_on_c, 8, 45, 90
10, 172775, Note_on_c, 8, 45, 0
10, 172800, Note_on_c, 8, 33, 90
10, 172895, Note_on_c, 8, 33, 0
10, 172920, Note_on_c, 8, 38, 90
10, 173063, Note_on_c, 8, 38, 0
10, 173100, Note_on_c, 8, 36, 90
10, 173147, Note_on_c, 8, 36, 0
10, 173160, Note_on_c, 8, 35, 90
10, 173255, Note_on_c, 8, 35, 0
10, 173280, Note_on_c, 8, 31, 90
10, 173375, Note_on_c, 8, 31, 0
10, 173400, Note_on_c, 8, 36, 90
10, 173495, Note_on_c, 8, 36, 0
10, 173520, Note_on_c, 8, 48, 90
10, 173615, Note_on_c, 8, 48, 0
10, 173640, Note_on_c, 8, 44, 90
10, 173735, Note_on_c, 8, 44, 0
10, 173760, Note_on_c, 8, 40, 90
10, 173855, Note_on_c, 8, 40, 0
10, 173880, Note_on_c, 8, 45, 90
10, 173975, Note_on_c, 8, 45, 0
10, 174000, Note_on_c, 8, 43, 90
10, 174095, Note_on_c, 8, 43, 0
10, 174120, Note_on_c, 8, 42, 90
10, 174215, Note_on_c, 8, 42, 0
10, 174240, Note_on_c, 8, 38, 90
10, 174335, Note_on_c, 8, 38, 0
10, 174360, Note_on_c, 8, 43, 90
10, 174455, Note_on_c, 8, 43, 0
10, 174480, Note_on_c, 8, 40, 90
10, 174575, Note_on_c, 8, 40, 0
10, 174600, Note_on_c, 8, 45, 90
10, 174695, Note_on_c, 8, 45, 0
10, 174720, Note_on_c, 8, 33, 90
10, 174815, Note_on_c, 8, 33, 0
10, 174840, Note_on_c, 8, 38, 90
10, 174935, Note_on_c, 8, 38, 0
10, 174960, Note_on_c, 8, 40, 90
10, 175055, Note_on_c, 8, 40, 0
10, 175080, Note_on_c, 8, 42, 90
10, 175175, Note_on_c, 8, 42, 0
10, 175200, Note_on_c, 8, 38, 90
10, 175295, Note_on_c, 8, 38, 0
10, 175320, Note_on_c, 8, 43, 90
10, 175415, Note_on_c, 8, 43, 0
10, 175440, Note_on_c, 8, 41, 90
10, 175535, Note_on_c, 8, 41, 0
10, 175560, Note_on_c, 8, 40, 90
10, 175655, Note_on_c, 8, 40, 0
10, 175680, Note_on_c, 8, 38, 90
10, 175775, Note_on_c, 8, 38, 0
10, 175800, Note_on_c, 8, 36, 90
10, 175895, Note_on_c, 8, 36, 0
10, 175920, Note_on_c, 8, 35, 90
10, 176015, Note_on_c, 8, 35, 0
10, 176040, Note_on_c, 8, 36, 90
10, 176135, Note_on_c, 8, 36, 0
10, 176160, Note_on_c, 8, 33, 90
10, 176255, Note_on_c, 8, 33, 0
10, 176280, Note_on_c, 8, 35, 90
10, 176375, Note_on_c, 8, 35, 0
10, 176400, Note_on_c, 8, 33, 90
10, 176447, Note_on_c, 8, 33, 0
10, 176460, Note_on_c, 8, 31, 90
10, 176507, Note_on_c, 8, 31, 0
10, 176520, Note_on_c, 8, 38, 90
10, 176615, Note_on_c, 8, 38, 0
10, 176640, Note_on_c, 8, 26, 90
10, 176735, Note_on_c, 8, 26, 0
10, 176760, Note_on_c, 8, 31, 90
10, 176951, Note_on_c, 8, 31, 0
10, 176951, End_track
11, 0, Start_track
11, 0, MIDI_port, 0
11, 0, Title_t, "Continuo H"
11, 0, Program_c, 10, 6
11, 0, Note_on_c, 10, 62, 65
11, 0, Note_on_c, 10, 67, 65
11, 0, Note_on_c, 10, 71, 65
11, 0, Note_on_c, 10, 74, 65
11, 239, Note_on_c, 10, 74, 0
11, 239, Note_on_c, 10, 62, 0
11, 239, Note_on_c, 10, 67, 0
11, 239, Note_on_c, 10, 71, 0
11, 240, Note_on_c, 10, 60, 65
11, 240, Note_on_c, 10, 67, 65
11, 240, Note_on_c, 10, 72, 65
11, 240, Note_on_c, 10, 76, 65
11, 479, Note_on_c, 10, 76, 0
11, 479, Note_on_c, 10, 60, 0
11, 479, Note_on_c, 10, 67, 0
11, 479, Note_on_c, 10, 72, 0
11, 480, Note_on_c, 10, 66, 65
11, 480, Note_on_c, 10, 69, 65
11, 480, Note_on_c, 10, 72, 65
11, 480, Note_on_c, 10, 74, 65
11, 719, Note_on_c, 10, 74, 0
11, 719, Note_on_c, 10, 66, 0
11, 719, Note_on_c, 10, 69, 0
11, 719, Note_on_c, 10, 72, 0
11, 720, Note_on_c, 10, 67, 65
11, 720, Note_on_c, 10, 71, 65
11, 720, Note_on_c, 10, 74, 65
11, 720, Note_on_c, 10, 79, 65
11, 959, Note_on_c, 10, 79, 0
11, 959, Note_on_c, 10, 67, 0
11, 959, Note_on_c, 10, 71, 0
11, 959, Note_on_c, 10, 74, 0
11, 960, Note_on_c, 10, 60, 65
11, 960, Note_on_c, 10, 67, 65
11, 960, Note_on_c, 10, 72, 65
11, 960, Note_on_c, 10, 76, 65
11, 960, Note_on_c, 10, 79, 65
11, 1199, Note_on_c, 10, 79, 0
11, 1199, Note_on_c, 10, 72, 0
11, 1199, Note_on_c, 10, 60, 0
11, 1199, Note_on_c, 10, 67, 0
11, 1199, Note_on_c, 10, 76, 0
11, 1200, Note_on_c, 10, 60, 65
11, 1200, Note_on_c, 10, 66, 65
11, 1200, Note_on_c, 10, 69, 65
11, 1200, Note_on_c, 10, 74, 65
11, 1200, Note_on_c, 10, 78, 65
11, 1439, Note_on_c, 10, 78, 0
11, 1439, Note_on_c, 10, 69, 0
11, 1439, Note_on_c, 10, 60, 0
11, 1439, Note_on_c, 10, 66, 0
11, 1439, Note_on_c, 10, 74, 0
11, 1440, Note_on_c, 10, 67, 65
11, 1440, Note_on_c, 10, 71, 65
11, 1440, Note_on_c, 10, 74, 65
11, 1440, Note_on_c, 10, 79, 65
11, 1679, Note_on_c, 10, 79, 0
11, 1679, Note_on_c, 10, 67, 0
11, 1679, Note_on_c, 10, 71, 0
11, 1679, Note_on_c, 10, 74, 0
11, 1680, Note_on_c, 10, 64, 65
11, 1680, Note_on_c, 10, 67, 65
11, 1680, Note_on_c, 10, 71, 65
11, 1680, Note_on_c, 10, 74, 65
11, 1919, Note_on_c, 10, 74, 0
11, 1919, Note_on_c, 10, 64, 0
11, 1919, Note_on_c, 10, 67, 0
11, 1919, Note_on_c, 10, 71, 0
11, 1920, Note_on_c, 10, 67, 65
11, 1920, Note_on_c, 10, 72, 65
11, 1920, Note_on_c, 10, 76, 65
11, 1920, Note_on_c, 10, 79, 65
11, 2159, Note_on_c, 10, 79, 0
11, 2159, Note_on_c, 10, 67, 0
11, 2159, Note_on_c, 10, 72, 0
11, 2159, Note_on_c, 10, 76, 0
11, 2160, Note_on_c, 10, 60, 65
11, 2160, Note_on_c, 10, 66, 65
11, 2160, Note_on_c, 10, 69, 65
11, 2160, Note_on_c, 10, 74, 65
11, 2160, Note_on_c, 10, 78, 65
11, 2399, Note_on_c, 10, 78, 0
11, 2399, Note_on_c, 10, 69, 0
11, 2399, Note_on_c, 10, 60, 0
11, 2399, Note_on_c, 10, 66, 0
11, 2399, Note_on_c, 10, 74, 0
11, 2400, Note_on_c, 10, 67, 65
11, 2400, Note_on_c, 10, 71, 65
11, 2400, Note_on_c, 10, 74, 65
11, 2400, Note_on_c, 10, 79, 65
11, 2639, Note_on_c, 10, 79, 0
11, 2639, Note_on_c, 10, 67, 0
11, 2639, Note_on_c, 10, 71, 0
11, 2639, Note_on_c, 10, 74, 0
11, 2640, Note_on_c, 10, 69, 65
11, 2640, Note_on_c, 10, 60, 65
11, 2640, Note_on_c, 10, 66, 65
11, 2640, Note_on_c, 10, 75, 65
11, 2879, Note_on_c, 10, 75, 0
11, 2879, Note_on_c, 10, 69, 0
11, 2879, Note_on_c, 10, 60, 0
11, 2879, Note_on_c, 10, 66, 0
11, 2880, Note_on_c, 10, 69, 65
11, 2880, Note_on_c, 10, 64, 65
11, 2880, Note_on_c, 10, 72, 65
11, 2880, Note_on_c, 10, 74, 65
11, 3119, Note_on_c, 10, 74, 0
11, 3119, Note_on_c, 10, 69, 0
11, 3119, Note_on_c, 10, 64, 0
11, 3119, Note_on_c, 10, 72, 0
11, 3120, Note_on_c, 10, 77, 65
11, 3120, Note_on_c, 10, 62, 65
11, 3120, Note_on_c, 10, 67, 65
11, 3239, Note_on_c, 10, 77, 0
11, 3240, Note_on_c, 10, 76, 65
11, 3359, Note_on_c, 10, 76, 0
11, 3359, Note_on_c, 10, 67, 0
11, 3359, Note_on_c, 10, 62, 0
11, 3360, Note_on_c, 10, 61, 65
11, 3360, Note_on_c, 10, 76, 65
11, 3360, Note_on_c, 10, 67, 65
11, 3360, Note_on_c, 10, 70, 65
11, 3479, Note_on_c, 10, 76, 0
11, 3480, Note_on_c, 10, 74, 65
11, 3599, Note_on_c, 10, 74, 0
11, 3599, Note_on_c, 10, 70, 0
11, 3599, Note_on_c, 10, 67, 0
11, 3599, Note_on_c, 10, 61, 0
11, 3600, Note_on_c, 10, 65, 65
11, 3600, Note_on_c, 10, 71, 65
11, 3600, Note_on_c, 10, 74, 65
11, 3600, Note_on_c, 10, 67, 65
11, 3719, Note_on_c, 10, 67, 0
11, 3719, Note_on_c, 10, 65, 0
11, 3719, Note_on_c, 10, 71, 0
11, 3719, Note_on_c, 10, 74, 0
11, 3720, Note_on_c, 10, 64, 65
11, 3720, Note_on_c, 10, 67, 65
11, 3720, Note_on_c, 10, 69, 65
11, 3839, Note_on_c, 10, 69, 0
11, 3839, Note_on_c, 10, 67, 0
11, 3839, Note_on_c, 10, 64, 0
11, 3840, Note_on_c, 10, 62, 65
11, 3840, Note_on_c, 10, 65, 65
11, 3840, Note_on_c, 10, 69, 65
11, 3959, Note_on_c, 10, 69, 0
11, 3959, Note_on_c, 10, 65, 0
11, 3959, Note_on_c, 10, 62, 0
11, 3960, Note_on_c, 10, 65, 65
11, 3960, Note_on_c, 10, 74, 65
11, 3960, Note_on_c, 10, 69, 65
11, 4019, Note_on_c, 10, 69, 0
11, 4019, Note_on_c, 10, 74, 0
11, 4019, Note_on_c, 10, 65, 0
11, 4020, Note_on_c, 10, 73, 65
11, 4020, Note_on_c, 10, 64, 65
11, 4020, Note_on_c, 10, 67, 65
11, 4020, Note_on_c, 10, 69, 65
11, 4079, Note_on_c, 10, 69, 0
11, 4079, Note_on_c, 10, 73, 0
11, 4079, Note_on_c, 10, 64, 0
11, 4079, Note_on_c, 10, 67, 0
11, 4080, Note_on_c, 10, 74, 65
11, 4080, Note_on_c, 10, 65, 65
11, 4080, Note_on_c, 10, 69, 65
11, 4319, Note_on_c, 10, 69, 0
11, 4319, Note_on_c, 10, 65, 0
11, 4319, Note_on_c, 10, 74, 0
11, 4320, Note_on_c, 10, 62, 65
11, 4320, Note_on_c, 10, 65, 65
11, 4320, Note_on_c, 10, 69, 65
11, 4559, Note_on_c, 10, 69, 0
11, 4559, Note_on_c, 10, 65, 0
11, 4559, Note_on_c, 10, 62, 0
11, 4560, Note_on_c, 10, 62, 65
11, 4560, Note_on_c, 10, 67, 65
11, 4560, Note_on_c, 10, 71, 65
11, 4799, Note_on_c, 10, 71, 0
11, 4799, Note_on_c, 10, 67, 0
11, 4799, Note_on_c, 10, 62, 0
11, 4800, Note_on_c, 10, 71, 65
11, 4800, Note_on_c, 10, 74, 65
11, 4800, Note_on_c, 10, 67, 65
11, 5039, Note_on_c, 10, 67, 0
11, 5039, Note_on_c, 10, 74, 0
11, 5039, Note_on_c, 10, 71, 0
11, 5040, Note_on_c, 10, 70, 65
11, 5040, Note_on_c, 10, 73, 65
11, 5100, Note_on_c, 10, 70, 0
11, 5100, Note_on_c, 10, 69, 65
11, 5130, Note_on_c, 10, 69, 0
11, 5130, Note_on_c, 10, 73, 0
11, 5130, Note_on_c, 10, 72, 65
11, 5160, Note_on_c, 10, 72, 0
11, 5160, Note_on_c, 10, 63, 65
11, 5160, Note_on_c, 10, 67, 65
11, 5160, Note_on_c, 10, 69, 65
11, 5279, Note_on_c, 10, 69, 0
11, 5279, Note_on_c, 10, 67, 0
11, 5279, Note_on_c, 10, 63, 0
11, 5280, Note_on_c, 10, 66, 65
11, 5280, Note_on_c, 10, 62, 65
11, 5280, Note_on_c, 10, 72, 65
11, 5280, Note_on_c, 10, 69, 65
11, 5399, Note_on_c, 10, 69, 0
11, 5399, Note_on_c, 10, 66, 0
11, 5399, Note_on_c, 10, 62, 0
11, 5399, Note_on_c, 10, 72, 0
11, 5400, Note_on_c, 10, 62, 65
11, 5400, Note_on_c, 10, 70, 65
11, 5400, Note_on_c, 10, 67, 65
11, 5519, Note_on_c, 10, 67, 0
11, 5519, Note_on_c, 10, 70, 0
11, 5519, Note_on_c, 10, 62, 0
11, 5520, Note_on_c, 10, 60, 65
11, 5520, Note_on_c, 10, 63, 65
11, 5520, Note_on_c, 10, 66, 65
11, 5520, Note_on_c, 10, 72, 65
11, 5760, Note_on_c, 10, 72, 0
11, 5760, Note_on_c, 10, 60, 0
11, 5760, Note_on_c, 10, 63, 0
11, 5760, Note_on_c, 10, 66, 0
11, 5760, Note_on_c, 10, 62, 65
11, 5760, Note_on_c, 10, 67, 65
11, 5760, Note_on_c, 10, 70, 65
11, 5819, Note_on_c, 10, 70, 0
11, 5819, Note_on_c, 10, 67, 0
11, 5819, Note_on_c, 10, 62, 0
11, 5820, Note_on_c, 10, 63, 65
11, 5820, Note_on_c, 10, 70, 65
11, 5820, Note_on_c, 10, 67, 65
11, 5879, Note_on_c, 10, 67, 0
11, 5879, Note_on_c, 10, 70, 0
11, 5879, Note_on_c, 10, 63, 0
11, 5880, Note_on_c, 10, 62, 65
11, 5880, Note_on_c, 10, 67, 65
11, 5880, Note_on_c, 10, 70, 65
11, 5939, Note_on_c, 10, 70, 0
11, 5939, Note_on_c, 10, 67, 0
11, 5939, Note_on_c, 10, 62, 0
11, 5940, Note_on_c, 10, 72, 65
11, 5940, Note_on_c, 10, 69, 65
11, 5940, Note_on_c, 10, 66, 65
11, 5940, Note_on_c, 10, 62, 65
11, 5999, Note_on_c, 10, 62, 0
11, 5999, Note_on_c, 10, 72, 0
11, 5999, Note_on_c, 10, 69, 0
11, 5999, Note_on_c, 10, 66, 0
11, 6000, Note_on_c, 10, 74, 65
11, 6000, Note_on_c, 10, 71, 65
11, 6000, Note_on_c, 10, 67, 65
11, 6000, Note_on_c, 10, 62, 65
11, 6239, Note_on_c, 10, 62, 0
11, 6239, Note_on_c, 10, 74, 0
11, 6239, Note_on_c, 10, 71, 0
11, 6239, Note_on_c, 10, 67, 0
11, 6240, Note_on_c, 10, 67, 65
11, 6240, Note_on_c, 10, 71, 65
11, 6240, Note_on_c, 10, 62, 65
11, 6479, Note_on_c, 10, 62, 0
11, 6479, Note_on_c, 10, 71, 0
11, 6479, Note_on_c, 10, 67, 0
11, 6480, Note_on_c, 10, 64, 65
11, 6480, Note_on_c, 10, 67, 65
11, 6480, Note_on_c, 10, 72, 65
11, 6719, Note_on_c, 10, 72, 0
11, 6719, Note_on_c, 10, 67, 0
11, 6719, Note_on_c, 10, 64, 0
11, 6720, Note_on_c, 10, 65, 65
11, 6720, Note_on_c, 10, 67, 65
11, 6720, Note_on_c, 10, 71, 65
11, 6959, Note_on_c, 10, 71, 0
11, 6959, Note_on_c, 10, 67, 0
11, 6959, Note_on_c, 10, 65, 0
11, 6960, Note_on_c, 10, 64, 65
11, 6960, Note_on_c, 10, 67, 65
11, 6960, Note_on_c, 10, 72, 65
11, 7199, Note_on_c, 10, 72, 0
11, 7199, Note_on_c, 10, 67, 0
11, 7199, Note_on_c, 10, 64, 0
11, 7200, Note_on_c, 10, 62, 65
11, 7200, Note_on_c, 10, 65, 65
11, 7200, Note_on_c, 10, 71, 65
11, 7259, Note_on_c, 10, 71, 0
11, 7259, Note_on_c, 10, 65, 0
11, 7259, Note_on_c, 10, 62, 0
11, 7260, Note_on_c, 10, 66, 65
11, 7260, Note_on_c, 10, 62, 65
11, 7260, Note_on_c, 10, 72, 65
11, 7319, Note_on_c, 10, 72, 0
11, 7319, Note_on_c, 10, 62, 0
11, 7319, Note_on_c, 10, 66, 0
11, 7320, Note_on_c, 10, 62, 65
11, 7320, Note_on_c, 10, 67, 65
11, 7320, Note_on_c, 10, 71, 65
11, 7440, Note_on_c, 10, 71, 0
11, 7440, Note_on_c, 10, 67, 0
11, 7440, Note_on_c, 10, 62, 0
11, 7440, Note_on_c, 10, 65, 65
11, 7440, Note_on_c, 10, 62, 65
11, 7440, Note_on_c, 10, 71, 65
11, 7679, Note_on_c, 10, 71, 0
11, 7679, Note_on_c, 10, 62, 0
11, 7679, Note_on_c, 10, 65, 0
11, 7680, Note_on_c, 10, 64, 65
11, 7680, Note_on_c, 10, 67, 65
11, 7680, Note_on_c, 10, 72, 65
11, 7680, Note_on_c, 10, 60, 65
11, 7919, Note_on_c, 10, 60, 0
11, 7919, Note_on_c, 10, 64, 0
11, 7919, Note_on_c, 10, 67, 0
11, 7919, Note_on_c, 10, 72, 0
11, 7920, Note_on_c, 10, 66, 65
11, 7920, Note_on_c, 10, 60, 65
11, 7920, Note_on_c, 10, 69, 65
11, 8159, Note_on_c, 10, 69, 0
11, 8159, Note_on_c, 10, 60, 0
11, 8159, Note_on_c, 10, 66, 0
11, 8160, Note_on_c, 10, 62, 65
11, 8160, Note_on_c, 10, 67, 65
11, 8160, Note_on_c, 10, 71, 65
11, 8339, Note_on_c, 10, 71, 0
11, 8339, Note_on_c, 10, 67, 0
11, 8339, Note_on_c, 10, 62, 0
11, 8340, Note_on_c, 10, 66, 65
11, 8340, Note_on_c, 10, 62, 65
11, 8340, Note_on_c, 10, 69, 65
11, 8399, Note_on_c, 10, 69, 0
11, 8399, Note_on_c, 10, 62, 0
11, 8399, Note_on_c, 10, 66, 0
11, 8400, Note_on_c, 10, 71, 65
11, 8400, Note_on_c, 10, 64, 65
11, 8400, Note_on_c, 10, 67, 65
11, 8459, Note_on_c, 10, 67, 0
11, 8459, Note_on_c, 10, 64, 0
11, 8459, Note_on_c, 10, 71, 0
11, 8460, Note_on_c, 10, 64, 65
11, 8460, Note_on_c, 10, 67, 65
11, 8460, Note_on_c, 10, 69, 65
11, 8519, Note_on_c, 10, 69, 0
11, 8519, Note_on_c, 10, 67, 0
11, 8519, Note_on_c, 10, 64, 0
11, 8520, Note_on_c, 10, 62, 65
11, 8520, Note_on_c, 10, 67, 65
11, 8520, Note_on_c, 10, 71, 65
11, 8579, Note_on_c, 10, 71, 0
11, 8579, Note_on_c, 10, 67, 0
11, 8579, Note_on_c, 10, 62, 0
11, 8580, Note_on_c, 10, 62, 65
11, 8580, Note_on_c, 10, 66, 65
11, 8580, Note_on_c, 10, 69, 65
11, 8639, Note_on_c, 10, 69, 0
11, 8639, Note_on_c, 10, 66, 0
11, 8639, Note_on_c, 10, 62, 0
11, 8640, Note_on_c, 10, 62, 65
11, 8640, Note_on_c, 10, 67, 65
11, 8640, Note_on_c, 10, 71, 65
11, 8759, Note_on_c, 10, 71, 0
11, 8759, Note_on_c, 10, 67, 0
11, 8759, Note_on_c, 10, 62, 0
11, 8760, Note_on_c, 10, 66, 65
11, 8760, Note_on_c, 10, 62, 65
11, 8760, Note_on_c, 10, 69, 65
11, 8819, Note_on_c, 10, 69, 0
11, 8819, Note_on_c, 10, 62, 0
11, 8819, Note_on_c, 10, 66, 0
11, 8820, Note_on_c, 10, 64, 65
11, 8820, Note_on_c, 10, 73, 65
11, 8820, Note_on_c, 10, 67, 65
11, 8879, Note_on_c, 10, 67, 0
11, 8879, Note_on_c, 10, 73, 0
11, 8879, Note_on_c, 10, 64, 0
11, 8880, Note_on_c, 10, 62, 65
11, 8880, Note_on_c, 10, 66, 65
11, 8880, Note_on_c, 10, 74, 65
11, 8880, Note_on_c, 10, 69, 65
11, 8939, Note_on_c, 10, 69, 0
11, 8939, Note_on_c, 10, 62, 0
11, 8939, Note_on_c, 10, 66, 0
11, 8939, Note_on_c, 10, 74, 0
11, 8940, Note_on_c, 10, 62, 65
11, 8940, Note_on_c, 10, 66, 65
11, 8940, Note_on_c, 10, 69, 65
11, 8999, Note_on_c, 10, 69, 0
11, 8999, Note_on_c, 10, 66, 0
11, 8999, Note_on_c, 10, 62, 0
11, 9000, Note_on_c, 10, 67, 65
11, 9000, Note_on_c, 10, 64, 65
11, 9059, Note_on_c, 10, 64, 0
11, 9059, Note_on_c, 10, 67, 0
11, 9060, Note_on_c, 10, 62, 65
11, 9060, Note_on_c, 10, 64, 65
11, 9060, Note_on_c, 10, 67, 65
11, 9060, Note_on_c, 10, 71, 65
11, 9119, Note_on_c, 10, 71, 0
11, 9119, Note_on_c, 10, 62, 0
11, 9119, Note_on_c, 10, 64, 0
11, 9119, Note_on_c, 10, 67, 0
11, 9120, Note_on_c, 10, 73, 65
11, 9120, Note_on_c, 10, 64, 65
11, 9120, Note_on_c, 10, 67, 65
11, 9239, Note_on_c, 10, 67, 0
11, 9239, Note_on_c, 10, 64, 0
11, 9239, Note_on_c, 10, 73, 0
11, 9240, Note_on_c, 10, 61, 65
11, 9240, Note_on_c, 10, 69, 65
11, 9240, Note_on_c, 10, 64, 65
11, 9359, Note_on_c, 10, 64, 0
11, 9359, Note_on_c, 10, 69, 0
11, 9359, Note_on_c, 10, 61, 0
11, 9360, Note_on_c, 10, 64, 65
11, 9360, Note_on_c, 10, 69, 65
11, 9360, Note_on_c, 10, 73, 65
11, 9479, Note_on_c, 10, 73, 0
11, 9479, Note_on_c, 10, 69, 0
11, 9479, Note_on_c, 10, 64, 0
11, 9480, Note_on_c, 10, 61, 65
11, 9480, Note_on_c, 10, 69, 65
11, 9480, Note_on_c, 10, 64, 65
11, 9599, Note_on_c, 10, 64, 0
11, 9599, Note_on_c, 10, 69, 0
11, 9599, Note_on_c, 10, 61, 0
11, 9600, Note_on_c, 10, 64, 65
11, 9600, Note_on_c, 10, 67, 65
11, 9600, Note_on_c, 10, 73, 65
11, 9719, Note_on_c, 10, 73, 0
11, 9719, Note_on_c, 10, 67, 0
11, 9719, Note_on_c, 10, 64, 0
11, 9720, Note_on_c, 10, 63, 65
11, 9720, Note_on_c, 10, 66, 65
11, 9720, Note_on_c, 10, 71, 65
11, 9779, Note_on_c, 10, 71, 0
11, 9779, Note_on_c, 10, 66, 0
11, 9779, Note_on_c, 10, 63, 0
11, 9780, Note_on_c, 10, 64, 65
11, 9780, Note_on_c, 10, 67, 65
11, 9780, Note_on_c, 10, 71, 65
11, 9839, Note_on_c, 10, 71, 0
11, 9839, Note_on_c, 10, 67, 0
11, 9839, Note_on_c, 10, 64, 0
11, 9840, Note_on_c, 10, 63, 65
11, 9840, Note_on_c, 10, 66, 65
11, 9840, Note_on_c, 10, 69, 65
11, 9899, Note_on_c, 10, 69, 0
11, 9899, Note_on_c, 10, 66, 0
11, 9899, Note_on_c, 10, 63, 0
11, 9900, Note_on_c, 10, 59, 65
11, 9900, Note_on_c, 10, 64, 65
11, 9900, Note_on_c, 10, 67, 65
11, 9959, Note_on_c, 10, 67, 0
11, 9959, Note_on_c, 10, 64, 0
11, 9959, Note_on_c, 10, 59, 0
11, 9960, Note_on_c, 10, 62, 65
11, 9960, Note_on_c, 10, 66, 65
11, 9960, Note_on_c, 10, 69, 65
11, 10019, Note_on_c, 10, 69, 0
11, 10019, Note_on_c, 10, 66, 0
11, 10019, Note_on_c, 10, 62, 0
11, 10020, Note_on_c, 10, 64, 65
11, 10020, Note_on_c, 10, 67, 65
11, 10020, Note_on_c, 10, 71, 65
11, 10079, Note_on_c, 10, 71, 0
11, 10079, Note_on_c, 10, 67, 0
11, 10079, Note_on_c, 10, 64, 0
11, 10080, Note_on_c, 10, 63, 65
11, 10080, Note_on_c, 10, 66, 65
11, 10080, Note_on_c, 10, 71, 65
11, 10199, Note_on_c, 10, 71, 0
11, 10199, Note_on_c, 10, 66, 0
11, 10199, Note_on_c, 10, 63, 0
11, 10200, Note_on_c, 10, 63, 65
11, 10200, Note_on_c, 10, 67, 65
11, 10200, Note_on_c, 10, 71, 65
11, 10319, Note_on_c, 10, 71, 0
11, 10319, Note_on_c, 10, 67, 0
11, 10319, Note_on_c, 10, 63, 0
11, 10320, Note_on_c, 10, 64, 65
11, 10320, Note_on_c, 10, 67, 65
11, 10320, Note_on_c, 10, 72, 65
11, 10379, Note_on_c, 10, 72, 0
11, 10379, Note_on_c, 10, 67, 0
11, 10379, Note_on_c, 10, 64, 0
11, 10380, Note_on_c, 10, 64, 65
11, 10380, Note_on_c, 10, 66, 65
11, 10380, Note_on_c, 10, 69, 65
11, 10439, Note_on_c, 10, 69, 0
11, 10439, Note_on_c, 10, 66, 0
11, 10439, Note_on_c, 10, 64, 0
11, 10440, Note_on_c, 10, 71, 65
11, 10440, Note_on_c, 10, 63, 65
11, 10440, Note_on_c, 10, 66, 65
11, 10499, Note_on_c, 10, 66, 0
11, 10499, Note_on_c, 10, 63, 0
11, 10499, Note_on_c, 10, 71, 0
11, 10500, Note_on_c, 10, 63, 65
11, 10500, Note_on_c, 10, 66, 65
11, 10500, Note_on_c, 10, 69, 65
11, 10500, Note_on_c, 10, 71, 65
11, 10559, Note_on_c, 10, 71, 0
11, 10559, Note_on_c, 10, 63, 0
11, 10559, Note_on_c, 10, 66, 0
11, 10559, Note_on_c, 10, 69, 0
11, 10560, Note_on_c, 10, 64, 65
11, 10560, Note_on_c, 10, 71, 65
11, 10560, Note_on_c, 10, 67, 65
11, 10679, Note_on_c, 10, 67, 0
11, 10679, Note_on_c, 10, 71, 0
11, 10679, Note_on_c, 10, 64, 0
11, 10680, Note_on_c, 10, 64, 65
11, 10680, Note_on_c, 10, 67, 65
11, 10739, Note_on_c, 10, 67, 0
11, 10739, Note_on_c, 10, 64, 0
11, 10740, Note_on_c, 10, 64, 65
11, 10740, Note_on_c, 10, 67, 65
11, 10740, Note_on_c, 10, 72, 65
11, 10799, Note_on_c, 10, 72, 0
11, 10799, Note_on_c, 10, 67, 0
11, 10799, Note_on_c, 10, 64, 0
11, 10800, Note_on_c, 10, 62, 65
11, 10800, Note_on_c, 10, 66, 65
11, 10800, Note_on_c, 10, 69, 65
11, 10859, Note_on_c, 10, 69, 0
11, 10859, Note_on_c, 10, 66, 0
11, 10859, Note_on_c, 10, 62, 0
11, 10860, Note_on_c, 10, 66, 65
11, 10860, Note_on_c, 10, 62, 65
11, 10860, Note_on_c, 10, 72, 65
11, 10860, Note_on_c, 10, 69, 65
11, 10919, Note_on_c, 10, 69, 0
11, 10919, Note_on_c, 10, 66, 0
11, 10919, Note_on_c, 10, 62, 0
11, 10919, Note_on_c, 10, 72, 0
11, 10920, Note_on_c, 10, 66, 65
11, 10920, Note_on_c, 10, 69, 65
11, 10920, Note_on_c, 10, 62, 65
11, 10979, Note_on_c, 10, 62, 0
11, 10979, Note_on_c, 10, 69, 0
11, 10979, Note_on_c, 10, 66, 0
11, 10980, Note_on_c, 10, 62, 65
11, 10980, Note_on_c, 10, 64, 65
11, 10980, Note_on_c, 10, 71, 65
11, 11039, Note_on_c, 10, 71, 0
11, 11039, Note_on_c, 10, 64, 0
11, 11039, Note_on_c, 10, 62, 0
11, 11040, Note_on_c, 10, 69, 65
11, 11040, Note_on_c, 10, 66, 65
11, 11040, Note_on_c, 10, 74, 65
11, 11159, Note_on_c, 10, 74, 0
11, 11159, Note_on_c, 10, 66, 0
11, 11159, Note_on_c, 10, 69, 0
11, 11160, Note_on_c, 10, 62, 65
11, 11160, Note_on_c, 10, 66, 65
11, 11160, Note_on_c, 10, 69, 65
11, 11279, Note_on_c, 10, 69, 0
11, 11279, Note_on_c, 10, 66, 0
11, 11279, Note_on_c, 10, 62, 0
11, 11280, Note_on_c, 10, 66, 65
11, 11280, Note_on_c, 10, 69, 65
11, 11280, Note_on_c, 10, 74, 65
11, 11399, Note_on_c, 10, 74, 0
11, 11399, Note_on_c, 10, 69, 0
11, 11399, Note_on_c, 10, 66, 0
11, 11400, Note_on_c, 10, 62, 65
11, 11400, Note_on_c, 10, 66, 65
11, 11400, Note_on_c, 10, 69, 65
11, 11519, Note_on_c, 10, 69, 0
11, 11519, Note_on_c, 10, 66, 0
11, 11519, Note_on_c, 10, 62, 0
11, 11520, Note_on_c, 10, 66, 65
11, 11520, Note_on_c, 10, 69, 65
11, 11520, Note_on_c, 10, 74, 65
11, 11639, Note_on_c, 10, 74, 0
11, 11639, Note_on_c, 10, 69, 0
11, 11639, Note_on_c, 10, 66, 0
11, 11640, Note_on_c, 10, 62, 65
11, 11640, Note_on_c, 10, 71, 65
11, 11640, Note_on_c, 10, 68, 65
11, 11759, Note_on_c, 10, 68, 0
11, 11759, Note_on_c, 10, 71, 0
11, 11759, Note_on_c, 10, 62, 0
11, 11760, Note_on_c, 10, 64, 65
11, 11760, Note_on_c, 10, 68, 65
11, 11760, Note_on_c, 10, 71, 65
11, 11879, Note_on_c, 10, 71, 0
11, 11879, Note_on_c, 10, 68, 0
11, 11879, Note_on_c, 10, 64, 0
11, 11880, Note_on_c, 10, 64, 65
11, 11880, Note_on_c, 10, 62, 65
11, 11880, Note_on_c, 10, 68, 65
11, 11880, Note_on_c, 10, 71, 65
11, 11999, Note_on_c, 10, 71, 0
11, 11999, Note_on_c, 10, 64, 0
11, 11999, Note_on_c, 10, 62, 0
11, 11999, Note_on_c, 10, 68, 0
11, 12000, Note_on_c, 10, 64, 65
11, 12000, Note_on_c, 10, 68, 65
11, 12000, Note_on_c, 10, 71, 65
11, 12119, Note_on_c, 10, 71, 0
11, 12119, Note_on_c, 10, 68, 0
11, 12119, Note_on_c, 10, 64, 0
11, 12120, Note_on_c, 10, 62, 65
11, 12120, Note_on_c, 10, 67, 65
11, 12120, Note_on_c, 10, 71, 65
11, 12239, Note_on_c, 10, 71, 0
11, 12239, Note_on_c, 10, 67, 0
11, 12239, Note_on_c, 10, 62, 0
11, 12240, Note_on_c, 10, 72, 65
11, 12240, Note_on_c, 10, 64, 65
11, 12240, Note_on_c, 10, 67, 65
11, 12299, Note_on_c, 10, 67, 0
11, 12299, Note_on_c, 10, 64, 0
11, 12299, Note_on_c, 10, 72, 0
11, 12300, Note_on_c, 10, 64, 65
11, 12300, Note_on_c, 10, 60, 65
11, 12300, Note_on_c, 10, 67, 65
11, 12359, Note_on_c, 10, 67, 0
11, 12359, Note_on_c, 10, 60, 0
11, 12359, Note_on_c, 10, 64, 0
11, 12360, Note_on_c, 10, 62, 65
11, 12360, Note_on_c, 10, 65, 65
11, 12419, Note_on_c, 10, 65, 0
11, 12419, Note_on_c, 10, 62, 0
11, 12420, Note_on_c, 10, 62, 65
11, 12420, Note_on_c, 10, 65, 65
11, 12420, Note_on_c, 10, 69, 65
11, 12479, Note_on_c, 10, 69, 0
11, 12479, Note_on_c, 10, 65, 0
11, 12479, Note_on_c, 10, 62, 0
11, 12480, Note_on_c, 10, 74, 65
11, 12480, Note_on_c, 10, 71, 65
11, 12480, Note_on_c, 10, 67, 65
11, 12599, Note_on_c, 10, 67, 0
11, 12599, Note_on_c, 10, 71, 0
11, 12599, Note_on_c, 10, 74, 0
11, 12600, Note_on_c, 10, 71, 65
11, 12600, Note_on_c, 10, 67, 65
11, 12600, Note_on_c, 10, 62, 65
11, 12719, Note_on_c, 10, 62, 0
11, 12719, Note_on_c, 10, 67, 0
11, 12719, Note_on_c, 10, 71, 0
11, 12720, Note_on_c, 10, 74, 65
11, 12720, Note_on_c, 10, 71, 65
11, 12720, Note_on_c, 10, 67, 65
11, 12839, Note_on_c, 10, 67, 0
11, 12839, Note_on_c, 10, 71, 0
11, 12839, Note_on_c, 10, 74, 0
11, 12840, Note_on_c, 10, 71, 65
11, 12840, Note_on_c, 10, 67, 65
11, 12840, Note_on_c, 10, 62, 65
11, 12959, Note_on_c, 10, 62, 0
11, 12959, Note_on_c, 10, 67, 0
11, 12959, Note_on_c, 10, 71, 0
11, 12960, Note_on_c, 10, 74, 65
11, 12960, Note_on_c, 10, 71, 65
11, 12960, Note_on_c, 10, 67, 65
11, 13079, Note_on_c, 10, 67, 0
11, 13079, Note_on_c, 10, 71, 0
11, 13079, Note_on_c, 10, 74, 0
11, 13080, Note_on_c, 10, 73, 65
11, 13080, Note_on_c, 10, 64, 65
11, 13080, Note_on_c, 10, 67, 65
11, 13199, Note_on_c, 10, 67, 0
11, 13199, Note_on_c, 10, 64, 0
11, 13199, Note_on_c, 10, 73, 0
11, 13200, Note_on_c, 10, 64, 65
11, 13200, Note_on_c, 10, 69, 65
11, 13200, Note_on_c, 10, 73, 65
11, 13259, Note_on_c, 10, 73, 0
11, 13259, Note_on_c, 10, 69, 0
11, 13259, Note_on_c, 10, 64, 0
11, 13260, Note_on_c, 10, 62, 65
11, 13260, Note_on_c, 10, 66, 65
11, 13260, Note_on_c, 10, 69, 65
11, 13319, Note_on_c, 10, 69, 0
11, 13319, Note_on_c, 10, 66, 0
11, 13319, Note_on_c, 10, 62, 0
11, 13320, Note_on_c, 10, 67, 65
11, 13320, Note_on_c, 10, 64, 65
11, 13320, Note_on_c, 10, 73, 65
11, 13379, Note_on_c, 10, 73, 0
11, 13379, Note_on_c, 10, 64, 0
11, 13379, Note_on_c, 10, 67, 0
11, 13380, Note_on_c, 10, 66, 65
11, 13380, Note_on_c, 10, 62, 65
11, 13380, Note_on_c, 10, 74, 65
11, 13380, Note_on_c, 10, 69, 65
11, 13439, Note_on_c, 10, 69, 0
11, 13439, Note_on_c, 10, 66, 0
11, 13439, Note_on_c, 10, 62, 0
11, 13439, Note_on_c, 10, 74, 0
11, 13440, Note_on_c, 10, 64, 65
11, 13440, Note_on_c, 10, 69, 65
11, 13440, Note_on_c, 10, 73, 65
11, 13559, Note_on_c, 10, 73, 0
11, 13559, Note_on_c, 10, 69, 0
11, 13559, Note_on_c, 10, 64, 0
11, 13560, Note_on_c, 10, 69, 65
11, 13560, Note_on_c, 10, 66, 65
11, 13560, Note_on_c, 10, 61, 65
11, 13560, Note_on_c, 10, 61, 65
11, 13679, Note_on_c, 10, 61, 0
11, 13679, Note_on_c, 10, 69, 0
11, 13679, Note_on_c, 10, 66, 0
11, 13679, Note_on_c, 10, 61, 0
11, 13680, Note_on_c, 10, 71, 65
11, 13680, Note_on_c, 10, 62, 65
11, 13680, Note_on_c, 10, 66, 65
11, 13799, Note_on_c, 10, 66, 0
11, 13799, Note_on_c, 10, 62, 0
11, 13799, Note_on_c, 10, 71, 0
11, 13800, Note_on_c, 10, 64, 65
11, 13800, Note_on_c, 10, 67, 65
11, 13800, Note_on_c, 10, 71, 65
11, 13919, Note_on_c, 10, 71, 0
11, 13919, Note_on_c, 10, 67, 0
11, 13919, Note_on_c, 10, 64, 0
11, 13920, Note_on_c, 10, 64, 65
11, 13920, Note_on_c, 10, 73, 65
11, 13920, Note_on_c, 10, 67, 65
11, 14039, Note_on_c, 10, 67, 0
11, 14039, Note_on_c, 10, 73, 0
11, 14039, Note_on_c, 10, 64, 0
11, 14040, Note_on_c, 10, 73, 65
11, 14040, Note_on_c, 10, 62, 65
11, 14040, Note_on_c, 10, 66, 65
11, 14159, Note_on_c, 10, 66, 0
11, 14159, Note_on_c, 10, 62, 0
11, 14159, Note_on_c, 10, 73, 0
11, 14160, Note_on_c, 10, 74, 65
11, 14160, Note_on_c, 10, 71, 65
11, 14160, Note_on_c, 10, 67, 65
11, 14279, Note_on_c, 10, 67, 0
11, 14279, Note_on_c, 10, 71, 0
11, 14279, Note_on_c, 10, 74, 0
11, 14280, Note_on_c, 10, 64, 65
11, 14280, Note_on_c, 10, 67, 65
11, 14280, Note_on_c, 10, 71, 65
11, 14339, Note_on_c, 10, 71, 0
11, 14339, Note_on_c, 10, 67, 0
11, 14339, Note_on_c, 10, 64, 0
11, 14340, Note_on_c, 10, 64, 65
11, 14340, Note_on_c, 10, 67, 65
11, 14340, Note_on_c, 10, 71, 65
11, 14399, Note_on_c, 10, 71, 0
11, 14399, Note_on_c, 10, 67, 0
11, 14399, Note_on_c, 10, 64, 0
11, 14400, Note_on_c, 10, 66, 65
11, 14400, Note_on_c, 10, 70, 65
11, 14400, Note_on_c, 10, 76, 65
11, 14489, Note_on_c, 10, 76, 0
11, 14489, Note_on_c, 10, 70, 0
11, 14489, Note_on_c, 10, 66, 0
11, 14490, Note_on_c, 10, 73, 65
11, 14490, Note_on_c, 10, 64, 65
11, 14490, Note_on_c, 10, 71, 65
11, 14519, Note_on_c, 10, 71, 0
11, 14519, Note_on_c, 10, 64, 0
11, 14519, Note_on_c, 10, 73, 0
11, 14520, Note_on_c, 10, 66, 65
11, 14520, Note_on_c, 10, 70, 65
11, 14520, Note_on_c, 10, 73, 65
11, 14639, Note_on_c, 10, 73, 0
11, 14639, Note_on_c, 10, 70, 0
11, 14639, Note_on_c, 10, 66, 0
11, 14640, Note_on_c, 10, 62, 65
11, 14640, Note_on_c, 10, 66, 65
11, 14640, Note_on_c, 10, 71, 65
11, 14699, Note_on_c, 10, 71, 0
11, 14699, Note_on_c, 10, 66, 0
11, 14699, Note_on_c, 10, 62, 0
11, 14700, Note_on_c, 10, 61, 65
11, 14700, Note_on_c, 10, 64, 65
11, 14700, Note_on_c, 10, 70, 65
11, 14759, Note_on_c, 10, 70, 0
11, 14759, Note_on_c, 10, 64, 0
11, 14759, Note_on_c, 10, 61, 0
11, 14760, Note_on_c, 10, 62, 65
11, 14760, Note_on_c, 10, 71, 65
11, 14760, Note_on_c, 10, 66, 65
11, 14879, Note_on_c, 10, 66, 0
11, 14879, Note_on_c, 10, 71, 0
11, 14879, Note_on_c, 10, 62, 0
11, 14880, Note_on_c, 10, 62, 65
11, 14880, Note_on_c, 10, 67, 65
11, 14880, Note_on_c, 10, 71, 65
11, 14999, Note_on_c, 10, 71, 0
11, 14999, Note_on_c, 10, 67, 0
11, 14999, Note_on_c, 10, 62, 0
11, 15000, Note_on_c, 10, 64, 65
11, 15000, Note_on_c, 10, 73, 65
11, 15000, Note_on_c, 10, 67, 65
11, 15119, Note_on_c, 10, 67, 0
11, 15119, Note_on_c, 10, 73, 0
11, 15119, Note_on_c, 10, 64, 0
11, 15120, Note_on_c, 10, 66, 65
11, 15120, Note_on_c, 10, 62, 65
11, 15120, Note_on_c, 10, 74, 65
11, 15239, Note_on_c, 10, 74, 0
11, 15239, Note_on_c, 10, 62, 0
11, 15239, Note_on_c, 10, 66, 0
11, 15240, Note_on_c, 10, 62, 65
11, 15240, Note_on_c, 10, 66, 65
11, 15240, Note_on_c, 10, 69, 65
11, 15359, Note_on_c, 10, 69, 0
11, 15359, Note_on_c, 10, 66, 0
11, 15359, Note_on_c, 10, 62, 0
11, 15360, Note_on_c, 10, 62, 65
11, 15360, Note_on_c, 10, 67, 65
11, 15360, Note_on_c, 10, 71, 65
11, 15539, Note_on_c, 10, 71, 0
11, 15539, Note_on_c, 10, 67, 0
11, 15539, Note_on_c, 10, 62, 0
11, 15540, Note_on_c, 10, 64, 65
11, 15540, Note_on_c, 10, 67, 65
11, 15540, Note_on_c, 10, 71, 65
11, 15599, Note_on_c, 10, 71, 0
11, 15599, Note_on_c, 10, 67, 0
11, 15599, Note_on_c, 10, 64, 0
11, 15600, Note_on_c, 10, 64, 65
11, 15600, Note_on_c, 10, 69, 65
11, 15600, Note_on_c, 10, 73, 65
11, 15719, Note_on_c, 10, 73, 0
11, 15719, Note_on_c, 10, 69, 0
11, 15719, Note_on_c, 10, 64, 0
11, 15720, Note_on_c, 10, 66, 65
11, 15720, Note_on_c, 10, 73, 65
11, 15720, Note_on_c, 10, 69, 65
11, 15779, Note_on_c, 10, 69, 0
11, 15779, Note_on_c, 10, 73, 0
11, 15779, Note_on_c, 10, 66, 0
11, 15780, Note_on_c, 10, 73, 65
11, 15780, Note_on_c, 10, 69, 65
11, 15780, Note_on_c, 10, 66, 65
11, 15839, Note_on_c, 10, 66, 0
11, 15839, Note_on_c, 10, 69, 0
11, 15839, Note_on_c, 10, 73, 0
11, 15840, Note_on_c, 10, 66, 65
11, 15840, Note_on_c, 10, 71, 65
11, 15840, Note_on_c, 10, 74, 65
11, 15869, Note_on_c, 10, 66, 0
11, 15870, Note_on_c, 10, 67, 65
11, 15899, Note_on_c, 10, 67, 0
11, 15899, Note_on_c, 10, 74, 0
11, 15899, Note_on_c, 10, 71, 0
11, 15900, Note_on_c, 10, 62, 65
11, 15900, Note_on_c, 10, 66, 65
11, 15900, Note_on_c, 10, 69, 65
11, 15929, Note_on_c, 10, 69, 0
11, 15929, Note_on_c, 10, 66, 0
11, 15929, Note_on_c, 10, 62, 0
11, 15930, Note_on_c, 10, 62, 65
11, 15930, Note_on_c, 10, 64, 65
11, 15930, Note_on_c, 10, 67, 65
11, 15959, Note_on_c, 10, 67, 0
11, 15959, Note_on_c, 10, 64, 0
11, 15959, Note_on_c, 10, 62, 0
11, 15960, Note_on_c, 10, 73, 65
11, 15960, Note_on_c, 10, 69, 65
11, 15960, Note_on_c, 10, 64, 65
11, 16079, Note_on_c, 10, 64, 0
11, 16079, Note_on_c, 10, 69, 0
11, 16079, Note_on_c, 10, 73, 0
11, 16080, Note_on_c, 10, 66, 65
11, 16080, Note_on_c, 10, 74, 65
11, 16080, Note_on_c, 10, 69, 65
11, 16199, Note_on_c, 10, 69, 0
11, 16199, Note_on_c, 10, 74, 0
11, 16199, Note_on_c, 10, 66, 0
11, 16320, Note_on_c, 10, 62, 65
11, 16320, Note_on_c, 10, 67, 65
11, 16320, Note_on_c, 10, 71, 65
11, 16320, Note_on_c, 10, 74, 65
11, 16559, Note_on_c, 10, 74, 0
11, 16559, Note_on_c, 10, 62, 0
11, 16559, Note_on_c, 10, 67, 0
11, 16559, Note_on_c, 10, 71, 0
11, 16560, Note_on_c, 10, 60, 65
11, 16560, Note_on_c, 10, 67, 65
11, 16560, Note_on_c, 10, 72, 65
11, 16560, Note_on_c, 10, 76, 65
11, 16799, Note_on_c, 10, 76, 0
11, 16799, Note_on_c, 10, 60, 0
11, 16799, Note_on_c, 10, 67, 0
11, 16799, Note_on_c, 10, 72, 0
11, 16800, Note_on_c, 10, 66, 65
11, 16800, Note_on_c, 10, 69, 65
11, 16800, Note_on_c, 10, 72, 65
11, 16800, Note_on_c, 10, 74, 65
11, 17039, Note_on_c, 10, 74, 0
11, 17039, Note_on_c, 10, 66, 0
11, 17039, Note_on_c, 10, 69, 0
11, 17039, Note_on_c, 10, 72, 0
11, 17040, Note_on_c, 10, 67, 65
11, 17040, Note_on_c, 10, 71, 65
11, 17040, Note_on_c, 10, 74, 65
11, 17040, Note_on_c, 10, 79, 65
11, 17279, Note_on_c, 10, 79, 0
11, 17279, Note_on_c, 10, 67, 0
11, 17279, Note_on_c, 10, 71, 0
11, 17279, Note_on_c, 10, 74, 0
11, 17280, Note_on_c, 10, 60, 65
11, 17280, Note_on_c, 10, 67, 65
11, 17280, Note_on_c, 10, 72, 65
11, 17280, Note_on_c, 10, 76, 65
11, 17280, Note_on_c, 10, 79, 65
11, 17519, Note_on_c, 10, 79, 0
11, 17519, Note_on_c, 10, 72, 0
11, 17519, Note_on_c, 10, 60, 0
11, 17519, Note_on_c, 10, 67, 0
11, 17519, Note_on_c, 10, 76, 0
11, 17520, Note_on_c, 10, 60, 65
11, 17520, Note_on_c, 10, 66, 65
11, 17520, Note_on_c, 10, 69, 65
11, 17520, Note_on_c, 10, 74, 65
11, 17520, Note_on_c, 10, 78, 65
11, 17759, Note_on_c, 10, 78, 0
11, 17759, Note_on_c, 10, 69, 0
11, 17759, Note_on_c, 10, 60, 0
11, 17759, Note_on_c, 10, 66, 0
11, 17759, Note_on_c, 10, 74, 0
11, 17760, Note_on_c, 10, 67, 65
11, 17760, Note_on_c, 10, 71, 65
11, 17760, Note_on_c, 10, 74, 65
11, 17760, Note_on_c, 10, 79, 65
11, 17999, Note_on_c, 10, 79, 0
11, 17999, Note_on_c, 10, 67, 0
11, 17999, Note_on_c, 10, 71, 0
11, 17999, Note_on_c, 10, 74, 0
11, 18000, Note_on_c, 10, 64, 65
11, 18000, Note_on_c, 10, 67, 65
11, 18000, Note_on_c, 10, 71, 65
11, 18000, Note_on_c, 10, 74, 65
11, 18239, Note_on_c, 10, 74, 0
11, 18239, Note_on_c, 10, 64, 0
11, 18239, Note_on_c, 10, 67, 0
11, 18239, Note_on_c, 10, 71, 0
11, 18240, Note_on_c, 10, 67, 65
11, 18240, Note_on_c, 10, 72, 65
11, 18240, Note_on_c, 10, 76, 65
11, 18240, Note_on_c, 10, 79, 65
11, 18479, Note_on_c, 10, 79, 0
11, 18479, Note_on_c, 10, 67, 0
11, 18479, Note_on_c, 10, 72, 0
11, 18479, Note_on_c, 10, 76, 0
11, 18480, Note_on_c, 10, 60, 65
11, 18480, Note_on_c, 10, 66, 65
11, 18480, Note_on_c, 10, 69, 65
11, 18480, Note_on_c, 10, 74, 65
11, 18480, Note_on_c, 10, 78, 65
11, 18719, Note_on_c, 10, 78, 0
11, 18719, Note_on_c, 10, 69, 0
11, 18719, Note_on_c, 10, 60, 0
11, 18719, Note_on_c, 10, 66, 0
11, 18719, Note_on_c, 10, 74, 0
11, 18720, Note_on_c, 10, 67, 65
11, 18720, Note_on_c, 10, 71, 65
11, 18720, Note_on_c, 10, 74, 65
11, 18720, Note_on_c, 10, 79, 65
11, 18959, Note_on_c, 10, 79, 0
11, 18959, Note_on_c, 10, 67, 0
11, 18959, Note_on_c, 10, 71, 0
11, 18959, Note_on_c, 10, 74, 0
11, 18960, Note_on_c, 10, 69, 65
11, 18960, Note_on_c, 10, 60, 65
11, 18960, Note_on_c, 10, 66, 65
11, 18960, Note_on_c, 10, 75, 65
11, 19199, Note_on_c, 10, 75, 0
11, 19199, Note_on_c, 10, 69, 0
11, 19199, Note_on_c, 10, 60, 0
11, 19199, Note_on_c, 10, 66, 0
11, 19200, Note_on_c, 10, 69, 65
11, 19200, Note_on_c, 10, 64, 65
11, 19200, Note_on_c, 10, 72, 65
11, 19200, Note_on_c, 10, 74, 65
11, 19439, Note_on_c, 10, 74, 0
11, 19439, Note_on_c, 10, 69, 0
11, 19439, Note_on_c, 10, 64, 0
11, 19439, Note_on_c, 10, 72, 0
11, 19440, Note_on_c, 10, 77, 65
11, 19440, Note_on_c, 10, 62, 65
11, 19440, Note_on_c, 10, 67, 65
11, 19559, Note_on_c, 10, 77, 0
11, 19560, Note_on_c, 10, 76, 65
11, 19679, Note_on_c, 10, 76, 0
11, 19679, Note_on_c, 10, 67, 0
11, 19679, Note_on_c, 10, 62, 0
11, 19680, Note_on_c, 10, 61, 65
11, 19680, Note_on_c, 10, 76, 65
11, 19680, Note_on_c, 10, 67, 65
11, 19680, Note_on_c, 10, 70, 65
11, 19799, Note_on_c, 10, 76, 0
11, 19800, Note_on_c, 10, 74, 65
11, 19919, Note_on_c, 10, 74, 0
11, 19919, Note_on_c, 10, 70, 0
11, 19919, Note_on_c, 10, 67, 0
11, 19919, Note_on_c, 10, 61, 0
11, 19920, Note_on_c, 10, 65, 65
11, 19920, Note_on_c, 10, 71, 65
11, 19920, Note_on_c, 10, 74, 65
11, 19920, Note_on_c, 10, 67, 65
11, 20039, Note_on_c, 10, 67, 0
11, 20039, Note_on_c, 10, 65, 0
11, 20039, Note_on_c, 10, 71, 0
11, 20039, Note_on_c, 10, 74, 0
11, 20040, Note_on_c, 10, 64, 65
11, 20040, Note_on_c, 10, 67, 65
11, 20040, Note_on_c, 10, 69, 65
11, 20159, Note_on_c, 10, 69, 0
11, 20159, Note_on_c, 10, 67, 0
11, 20159, Note_on_c, 10, 64, 0
11, 20160, Note_on_c, 10, 62, 65
11, 20160, Note_on_c, 10, 65, 65
11, 20160, Note_on_c, 10, 69, 65
11, 20279, Note_on_c, 10, 69, 0
11, 20279, Note_on_c, 10, 65, 0
11, 20279, Note_on_c, 10, 62, 0
11, 20280, Note_on_c, 10, 65, 65
11, 20280, Note_on_c, 10, 74, 65
11, 20280, Note_on_c, 10, 69, 65
11, 20339, Note_on_c, 10, 69, 0
11, 20339, Note_on_c, 10, 74, 0
11, 20339, Note_on_c, 10, 65, 0
11, 20340, Note_on_c, 10, 73, 65
11, 20340, Note_on_c, 10, 64, 65
11, 20340, Note_on_c, 10, 67, 65
11, 20340, Note_on_c, 10, 69, 65
11, 20399, Note_on_c, 10, 69, 0
11, 20399, Note_on_c, 10, 73, 0
11, 20399, Note_on_c, 10, 64, 0
11, 20399, Note_on_c, 10, 67, 0
11, 20400, Note_on_c, 10, 74, 65
11, 20400, Note_on_c, 10, 65, 65
11, 20400, Note_on_c, 10, 69, 65
11, 20639, Note_on_c, 10, 69, 0
11, 20639, Note_on_c, 10, 65, 0
11, 20639, Note_on_c, 10, 74, 0
11, 20640, Note_on_c, 10, 62, 65
11, 20640, Note_on_c, 10, 65, 65
11, 20640, Note_on_c, 10, 69, 65
11, 20879, Note_on_c, 10, 69, 0
11, 20879, Note_on_c, 10, 65, 0
11, 20879, Note_on_c, 10, 62, 0
11, 20880, Note_on_c, 10, 62, 65
11, 20880, Note_on_c, 10, 67, 65
11, 20880, Note_on_c, 10, 71, 65
11, 21119, Note_on_c, 10, 71, 0
11, 21119, Note_on_c, 10, 67, 0
11, 21119, Note_on_c, 10, 62, 0
11, 21120, Note_on_c, 10, 71, 65
11, 21120, Note_on_c, 10, 74, 65
11, 21120, Note_on_c, 10, 67, 65
11, 21359, Note_on_c, 10, 67, 0
11, 21359, Note_on_c, 10, 74, 0
11, 21359, Note_on_c, 10, 71, 0
11, 21360, Note_on_c, 10, 70, 65
11, 21360, Note_on_c, 10, 73, 65
11, 21420, Note_on_c, 10, 70, 0
11, 21420, Note_on_c, 10, 69, 65
11, 21450, Note_on_c, 10, 69, 0
11, 21450, Note_on_c, 10, 73, 0
11, 21450, Note_on_c, 10, 72, 65
11, 21480, Note_on_c, 10, 72, 0
11, 21480, Note_on_c, 10, 63, 65
11, 21480, Note_on_c, 10, 67, 65
11, 21480, Note_on_c, 10, 69, 65
11, 21599, Note_on_c, 10, 69, 0
11, 21599, Note_on_c, 10, 67, 0
11, 21599, Note_on_c, 10, 63, 0
11, 21600, Note_on_c, 10, 66, 65
11, 21600, Note_on_c, 10, 62, 65
11, 21600, Note_on_c, 10, 72, 65
11, 21600, Note_on_c, 10, 69, 65
11, 21719, Note_on_c, 10, 69, 0
11, 21719, Note_on_c, 10, 66, 0
11, 21719, Note_on_c, 10, 62, 0
11, 21719, Note_on_c, 10, 72, 0
11, 21720, Note_on_c, 10, 62, 65
11, 21720, Note_on_c, 10, 70, 65
11, 21720, Note_on_c, 10, 67, 65
11, 21839, Note_on_c, 10, 67, 0
11, 21839, Note_on_c, 10, 70, 0
11, 21839, Note_on_c, 10, 62, 0
11, 21840, Note_on_c, 10, 60, 65
11, 21840, Note_on_c, 10, 63, 65
11, 21840, Note_on_c, 10, 66, 65
11, 21840, Note_on_c, 10, 72, 65
11, 22080, Note_on_c, 10, 72, 0
11, 22080, Note_on_c, 10, 60, 0
11, 22080, Note_on_c, 10, 63, 0
11, 22080, Note_on_c, 10, 66, 0
11, 22080, Note_on_c, 10, 62, 65
11, 22080, Note_on_c, 10, 67, 65
11, 22080, Note_on_c, 10, 70, 65
11, 22139, Note_on_c, 10, 70, 0
11, 22139, Note_on_c, 10, 67, 0
11, 22139, Note_on_c, 10, 62, 0
11, 22140, Note_on_c, 10, 63, 65
11, 22140, Note_on_c, 10, 70, 65
11, 22140, Note_on_c, 10, 67, 65
11, 22199, Note_on_c, 10, 67, 0
11, 22199, Note_on_c, 10, 70, 0
11, 22199, Note_on_c, 10, 63, 0
11, 22200, Note_on_c, 10, 62, 65
11, 22200, Note_on_c, 10, 67, 65
11, 22200, Note_on_c, 10, 70, 65
11, 22259, Note_on_c, 10, 70, 0
11, 22259, Note_on_c, 10, 67, 0
11, 22259, Note_on_c, 10, 62, 0
11, 22260, Note_on_c, 10, 72, 65
11, 22260, Note_on_c, 10, 69, 65
11, 22260, Note_on_c, 10, 66, 65
11, 22260, Note_on_c, 10, 62, 65
11, 22319, Note_on_c, 10, 62, 0
11, 22319, Note_on_c, 10, 72, 0
11, 22319, Note_on_c, 10, 69, 0
11, 22319, Note_on_c, 10, 66, 0
11, 22320, Note_on_c, 10, 74, 65
11, 22320, Note_on_c, 10, 71, 65
11, 22320, Note_on_c, 10, 67, 65
11, 22320, Note_on_c, 10, 62, 65
11, 22559, Note_on_c, 10, 62, 0
11, 22559, Note_on_c, 10, 74, 0
11, 22559, Note_on_c, 10, 71, 0
11, 22559, Note_on_c, 10, 67, 0
11, 22560, Note_on_c, 10, 67, 65
11, 22560, Note_on_c, 10, 71, 65
11, 22560, Note_on_c, 10, 62, 65
11, 22799, Note_on_c, 10, 62, 0
11, 22799, Note_on_c, 10, 71, 0
11, 22799, Note_on_c, 10, 67, 0
11, 22800, Note_on_c, 10, 64, 65
11, 22800, Note_on_c, 10, 67, 65
11, 22800, Note_on_c, 10, 72, 65
11, 23039, Note_on_c, 10, 72, 0
11, 23039, Note_on_c, 10, 67, 0
11, 23039, Note_on_c, 10, 64, 0
11, 23040, Note_on_c, 10, 65, 65
11, 23040, Note_on_c, 10, 67, 65
11, 23040, Note_on_c, 10, 71, 65
11, 23279, Note_on_c, 10, 71, 0
11, 23279, Note_on_c, 10, 67, 0
11, 23279, Note_on_c, 10, 65, 0
11, 23280, Note_on_c, 10, 64, 65
11, 23280, Note_on_c, 10, 67, 65
11, 23280, Note_on_c, 10, 72, 65
11, 23519, Note_on_c, 10, 72, 0
11, 23519, Note_on_c, 10, 67, 0
11, 23519, Note_on_c, 10, 64, 0
11, 23520, Note_on_c, 10, 62, 65
11, 23520, Note_on_c, 10, 65, 65
11, 23520, Note_on_c, 10, 71, 65
11, 23579, Note_on_c, 10, 71, 0
11, 23579, Note_on_c, 10, 65, 0
11, 23579, Note_on_c, 10, 62, 0
11, 23580, Note_on_c, 10, 66, 65
11, 23580, Note_on_c, 10, 62, 65
11, 23580, Note_on_c, 10, 72, 65
11, 23639, Note_on_c, 10, 72, 0
11, 23639, Note_on_c, 10, 62, 0
11, 23639, Note_on_c, 10, 66, 0
11, 23640, Note_on_c, 10, 62, 65
11, 23640, Note_on_c, 10, 67, 65
11, 23640, Note_on_c, 10, 71, 65
11, 23760, Note_on_c, 10, 71, 0
11, 23760, Note_on_c, 10, 67, 0
11, 23760, Note_on_c, 10, 62, 0
11, 23760, Note_on_c, 10, 65, 65
11, 23760, Note_on_c, 10, 62, 65
11, 23760, Note_on_c, 10, 71, 65
11, 23999, Note_on_c, 10, 71, 0
11, 23999, Note_on_c, 10, 62, 0
11, 23999, Note_on_c, 10, 65, 0
11, 24000, Note_on_c, 10, 64, 65
11, 24000, Note_on_c, 10, 67, 65
11, 24000, Note_on_c, 10, 72, 65
11, 24000, Note_on_c, 10, 60, 65
11, 24239, Note_on_c, 10, 60, 0
11, 24239, Note_on_c, 10, 64, 0
11, 24239, Note_on_c, 10, 67, 0
11, 24239, Note_on_c, 10, 72, 0
11, 24240, Note_on_c, 10, 66, 65
11, 24240, Note_on_c, 10, 60, 65
11, 24240, Note_on_c, 10, 69, 65
11, 24479, Note_on_c, 10, 69, 0
11, 24479, Note_on_c, 10, 60, 0
11, 24479, Note_on_c, 10, 66, 0
11, 24480, Note_on_c, 10, 62, 65
11, 24480, Note_on_c, 10, 67, 65
11, 24480, Note_on_c, 10, 71, 65
11, 24659, Note_on_c, 10, 71, 0
11, 24659, Note_on_c, 10, 67, 0
11, 24659, Note_on_c, 10, 62, 0
11, 24660, Note_on_c, 10, 66, 65
11, 24660, Note_on_c, 10, 62, 65
11, 24660, Note_on_c, 10, 69, 65
11, 24719, Note_on_c, 10, 69, 0
11, 24719, Note_on_c, 10, 62, 0
11, 24719, Note_on_c, 10, 66, 0
11, 24720, Note_on_c, 10, 71, 65
11, 24720, Note_on_c, 10, 64, 65
11, 24720, Note_on_c, 10, 67, 65
11, 24779, Note_on_c, 10, 67, 0
11, 24779, Note_on_c, 10, 64, 0
11, 24779, Note_on_c, 10, 71, 0
11, 24780, Note_on_c, 10, 64, 65
11, 24780, Note_on_c, 10, 67, 65
11, 24780, Note_on_c, 10, 69, 65
11, 24839, Note_on_c, 10, 69, 0
11, 24839, Note_on_c, 10, 67, 0
11, 24839, Note_on_c, 10, 64, 0
11, 24840, Note_on_c, 10, 62, 65
11, 24840, Note_on_c, 10, 67, 65
11, 24840, Note_on_c, 10, 71, 65
11, 24899, Note_on_c, 10, 71, 0
11, 24899, Note_on_c, 10, 67, 0
11, 24899, Note_on_c, 10, 62, 0
11, 24900, Note_on_c, 10, 62, 65
11, 24900, Note_on_c, 10, 66, 65
11, 24900, Note_on_c, 10, 69, 65
11, 24959, Note_on_c, 10, 69, 0
11, 24959, Note_on_c, 10, 66, 0
11, 24959, Note_on_c, 10, 62, 0
11, 24960, Note_on_c, 10, 62, 65
11, 24960, Note_on_c, 10, 67, 65
11, 24960, Note_on_c, 10, 71, 65
11, 25200, Note_on_c, 10, 71, 0
11, 25200, Note_on_c, 10, 67, 0
11, 25200, Note_on_c, 10, 62, 0
11, 25440, Note_on_c, 10, 60, 75
11, 25440, Note_on_c, 10, 64, 75
11, 25440, Note_on_c, 10, 67, 75
11, 26160, Note_on_c, 10, 67, 0
11, 26160, Note_on_c, 10, 64, 0
11, 26160, Note_on_c, 10, 60, 0
11, 26160, Note_on_c, 10, 64, 75
11, 26160, Note_on_c, 10, 67, 75
11, 26160, Note_on_c, 10, 72, 75
11, 26400, Note_on_c, 10, 72, 0
11, 26400, Note_on_c, 10, 67, 0
11, 26400, Note_on_c, 10, 64, 0
11, 26400, Note_on_c, 10, 60, 75
11, 26400, Note_on_c, 10, 65, 75
11, 26400, Note_on_c, 10, 69, 75
11, 26640, Note_on_c, 10, 69, 0
11, 26640, Note_on_c, 10, 65, 0
11, 26640, Note_on_c, 10, 60, 0
11, 26640, Note_on_c, 10, 69, 75
11, 26640, Note_on_c, 10, 62, 75
11, 26640, Note_on_c, 10, 65, 75
11, 26880, Note_on_c, 10, 65, 0
11, 26880, Note_on_c, 10, 62, 0
11, 26880, Note_on_c, 10, 69, 0
11, 26880, Note_on_c, 10, 71, 75
11, 26880, Note_on_c, 10, 67, 75
11, 26880, Note_on_c, 10, 65, 75
11, 27120, Note_on_c, 10, 65, 0
11, 27120, Note_on_c, 10, 67, 0
11, 27120, Note_on_c, 10, 71, 0
11, 27120, Note_on_c, 10, 62, 75
11, 27120, Note_on_c, 10, 67, 75
11, 27120, Note_on_c, 10, 65, 75
11, 27360, Note_on_c, 10, 65, 0
11, 27360, Note_on_c, 10, 67, 0
11, 27360, Note_on_c, 10, 62, 0
11, 27360, Note_on_c, 10, 60, 75
11, 27360, Note_on_c, 10, 64, 75
11, 27360, Note_on_c, 10, 67, 75
11, 27480, Note_on_c, 10, 67, 0
11, 27480, Note_on_c, 10, 64, 0
11, 27480, Note_on_c, 10, 60, 0
11, 27480, Note_on_c, 10, 60, 75
11, 27480, Note_on_c, 10, 65, 75
11, 27480, Note_on_c, 10, 69, 75
11, 27720, Note_on_c, 10, 69, 0
11, 27720, Note_on_c, 10, 65, 0
11, 27720, Note_on_c, 10, 60, 0
11, 27720, Note_on_c, 10, 62, 75
11, 27720, Note_on_c, 10, 71, 75
11, 27720, Note_on_c, 10, 67, 75
11, 27810, Note_on_c, 10, 67, 0
11, 27810, Note_on_c, 10, 65, 75
11, 27840, Note_on_c, 10, 65, 0
11, 27840, Note_on_c, 10, 71, 0
11, 27840, Note_on_c, 10, 62, 0
11, 27840, Note_on_c, 10, 64, 75
11, 27840, Note_on_c, 10, 60, 75
11, 27930, Note_on_c, 10, 64, 0
11, 27930, Note_on_c, 10, 60, 75
11, 27960, Note_on_c, 10, 60, 0
11, 27960, Note_on_c, 10, 60, 0
11, 27960, Note_on_c, 10, 60, 75
11, 27960, Note_on_c, 10, 67, 75
11, 27960, Note_on_c, 10, 64, 75
11, 28020, Note_on_c, 10, 64, 0
11, 28020, Note_on_c, 10, 67, 0
11, 28020, Note_on_c, 10, 60, 0
11, 28020, Note_on_c, 10, 65, 75
11, 28020, Note_on_c, 10, 59, 75
11, 28020, Note_on_c, 10, 62, 75
11, 28080, Note_on_c, 10, 62, 0
11, 28080, Note_on_c, 10, 59, 0
11, 28080, Note_on_c, 10, 65, 0
11, 28080, Note_on_c, 10, 60, 75
11, 28080, Note_on_c, 10, 64, 75
11, 28320, Note_on_c, 10, 64, 0
11, 28320, Note_on_c, 10, 60, 0
11, 28440, Note_on_c, 10, 67, 75
11, 28440, Note_on_c, 10, 64, 75
11, 28440, Note_on_c, 10, 60, 75
11, 28500, Note_on_c, 10, 64, 75
11, 28500, Note_on_c, 10, 72, 75
11, 28560, Note_on_c, 10, 72, 0
11, 28560, Note_on_c, 10, 64, 0
11, 28560, Note_on_c, 10, 64, 75
11, 28560, Note_on_c, 10, 72, 75
11, 28620, Note_on_c, 10, 72, 0
11, 28620, Note_on_c, 10, 67, 0
11, 28620, Note_on_c, 10, 60, 0
11, 28620, Note_on_c, 10, 64, 0
11, 28620, Note_on_c, 10, 64, 0
11, 28620, Note_on_c, 10, 69, 75
11, 28620, Note_on_c, 10, 65, 75
11, 28620, Note_on_c, 10, 62, 75
11, 28680, Note_on_c, 10, 72, 75
11, 28680, Note_on_c, 10, 65, 75
11, 28740, Note_on_c, 10, 65, 0
11, 28740, Note_on_c, 10, 72, 0
11, 28740, Note_on_c, 10, 72, 75
11, 28740, Note_on_c, 10, 65, 75
11, 28755, Note_on_c, 10, 72, 0
11, 28755, Note_on_c, 10, 71, 75
11, 28770, Note_on_c, 10, 71, 0
11, 28770, Note_on_c, 10, 69, 75
11, 28785, Note_on_c, 10, 69, 0
11, 28785, Note_on_c, 10, 71, 75
11, 28800, Note_on_c, 10, 71, 0
11, 28800, Note_on_c, 10, 65, 0
11, 28800, Note_on_c, 10, 62, 0
11, 28800, Note_on_c, 10, 65, 0
11, 28800, Note_on_c, 10, 69, 0
11, 28800, Note_on_c, 10, 67, 75
11, 28800, Note_on_c, 10, 72, 75
11, 28800, Note_on_c, 10, 64, 75
11, 28860, Note_on_c, 10, 64, 75
11, 28860, Note_on_c, 10, 72, 75
11, 28920, Note_on_c, 10, 72, 0
11, 28920, Note_on_c, 10, 64, 0
11, 28920, Note_on_c, 10, 64, 75
11, 28920, Note_on_c, 10, 72, 75
11, 28980, Note_on_c, 10, 72, 0
11, 28980, Note_on_c, 10, 67, 0
11, 28980, Note_on_c, 10, 64, 0
11, 28980, Note_on_c, 10, 72, 0
11, 28980, Note_on_c, 10, 64, 0
11, 28980, Note_on_c, 10, 74, 75
11, 28980, Note_on_c, 10, 66, 75
11, 28980, Note_on_c, 10, 62, 75
11, 28980, Note_on_c, 10, 69, 75
11, 29040, Note_on_c, 10, 74, 0
11, 29040, Note_on_c, 10, 66, 75
11, 29040, Note_on_c, 10, 74, 75
11, 29100, Note_on_c, 10, 74, 0
11, 29100, Note_on_c, 10, 66, 0
11, 29100, Note_on_c, 10, 66, 75
11, 29100, Note_on_c, 10, 72, 75
11, 29160, Note_on_c, 10, 72, 0
11, 29160, Note_on_c, 10, 69, 0
11, 29160, Note_on_c, 10, 66, 0
11, 29160, Note_on_c, 10, 62, 0
11, 29160, Note_on_c, 10, 66, 0
11, 29160, Note_on_c, 10, 71, 75
11, 29160, Note_on_c, 10, 67, 75
11, 29160, Note_on_c, 10, 62, 75
11, 29220, Note_on_c, 10, 62, 75
11, 29220, Note_on_c, 10, 67, 75
11, 29220, Note_on_c, 10, 74, 75
11, 29280, Note_on_c, 10, 74, 0
11, 29280, Note_on_c, 10, 62, 0
11, 29280, Note_on_c, 10, 67, 0
11, 29280, Note_on_c, 10, 62, 75
11, 29280, Note_on_c, 10, 67, 75
11, 29280, Note_on_c, 10, 74, 75
11, 29340, Note_on_c, 10, 74, 0
11, 29340, Note_on_c, 10, 62, 0
11, 29340, Note_on_c, 10, 71, 0
11, 29340, Note_on_c, 10, 67, 0
11, 29340, Note_on_c, 10, 67, 0
11, 29340, Note_on_c, 10, 62, 0
11, 29340, Note_on_c, 10, 72, 75
11, 29340, Note_on_c, 10, 69, 75
11, 29340, Note_on_c, 10, 64, 75
11, 29400, Note_on_c, 10, 76, 75
11, 29400, Note_on_c, 10, 67, 75
11, 29460, Note_on_c, 10, 67, 0
11, 29460, Note_on_c, 10, 76, 0
11, 29460, Note_on_c, 10, 76, 75
11, 29460, Note_on_c, 10, 67, 75
11, 29475, Note_on_c, 10, 76, 0
11, 29475, Note_on_c, 10, 74, 75
11, 29490, Note_on_c, 10, 74, 0
11, 29490, Note_on_c, 10, 72, 75
11, 29505, Note_on_c, 10, 72, 0
11, 29505, Note_on_c, 10, 74, 75
11, 29520, Note_on_c, 10, 74, 0
11, 29520, Note_on_c, 10, 67, 0
11, 29520, Note_on_c, 10, 64, 0
11, 29520, Note_on_c, 10, 69, 0
11, 29520, Note_on_c, 10, 72, 0
11, 29520, Note_on_c, 10, 62, 75
11, 29520, Note_on_c, 10, 71, 75
11, 29580, Note_on_c, 10, 74, 75
11, 29640, Note_on_c, 10, 74, 0
11, 29640, Note_on_c, 10, 71, 75
11, 29700, Note_on_c, 10, 71, 0
11, 29700, Note_on_c, 10, 71, 0
11, 29700, Note_on_c, 10, 62, 0
11, 29700, Note_on_c, 10, 64, 75
11, 29700, Note_on_c, 10, 69, 75
11, 29700, Note_on_c, 10, 61, 75
11, 29760, Note_on_c, 10, 69, 75
11, 29820, Note_on_c, 10, 69, 0
11, 29820, Note_on_c, 10, 67, 75
11, 29880, Note_on_c, 10, 67, 0
11, 29880, Note_on_c, 10, 61, 0
11, 29880, Note_on_c, 10, 69, 0
11, 29880, Note_on_c, 10, 64, 0
11, 29880, Note_on_c, 10, 62, 75
11, 29880, Note_on_c, 10, 65, 75
11, 29880, Note_on_c, 10, 69, 75
11, 29940, Note_on_c, 10, 71, 75
11, 30000, Note_on_c, 10, 71, 0
11, 30000, Note_on_c, 10, 67, 75
11, 30060, Note_on_c, 10, 67, 0
11, 30060, Note_on_c, 10, 69, 0
11, 30060, Note_on_c, 10, 65, 0
11, 30060, Note_on_c, 10, 62, 0
11, 30060, Note_on_c, 10, 65, 75
11, 30060, Note_on_c, 10, 62, 75
11, 30060, Note_on_c, 10, 67, 75
11, 30240, Note_on_c, 10, 67, 0
11, 30240, Note_on_c, 10, 62, 0
11, 30240, Note_on_c, 10, 65, 0
11, 30240, Note_on_c, 10, 64, 75
11, 30240, Note_on_c, 10, 67, 75
11, 30420, Note_on_c, 10, 67, 0
11, 30420, Note_on_c, 10, 64, 0
11, 30420, Note_on_c, 10, 62, 75
11, 30420, Note_on_c, 10, 65, 75
11, 30600, Note_on_c, 10, 65, 0
11, 30600, Note_on_c, 10, 62, 0
11, 30600, Note_on_c, 10, 62, 75
11, 30600, Note_on_c, 10, 65, 75
11, 30780, Note_on_c, 10, 65, 0
11, 30780, Note_on_c, 10, 62, 0
11, 30780, Note_on_c, 10, 60, 75
11, 30780, Note_on_c, 10, 64, 75
11, 30780, Note_on_c, 10, 67, 75
11, 30840, Note_on_c, 10, 67, 0
11, 30840, Note_on_c, 10, 64, 0
11, 30840, Note_on_c, 10, 60, 0
11, 30840, Note_on_c, 10, 67, 75
11, 30870, Note_on_c, 10, 67, 0
11, 30870, Note_on_c, 10, 65, 75
11, 30900, Note_on_c, 10, 65, 0
11, 30900, Note_on_c, 10, 64, 75
11, 30930, Note_on_c, 10, 64, 0
11, 30930, Note_on_c, 10, 62, 75
11, 30960, Note_on_c, 10, 62, 0
11, 30960, Note_on_c, 10, 64, 75
11, 31020, Note_on_c, 10, 64, 0
11, 31020, Note_on_c, 10, 69, 75
11, 31050, Note_on_c, 10, 69, 0
11, 31050, Note_on_c, 10, 67, 75
11, 31080, Note_on_c, 10, 67, 0
11, 31080, Note_on_c, 10, 65, 75
11, 31110, Note_on_c, 10, 65, 0
11, 31110, Note_on_c, 10, 64, 75
11, 31140, Note_on_c, 10, 64, 0
11, 31140, Note_on_c, 10, 65, 75
11, 31200, Note_on_c, 10, 65, 0
11, 31200, Note_on_c, 10, 67, 75
11, 31260, Note_on_c, 10, 67, 0
11, 31260, Note_on_c, 10, 65, 75
11, 31320, Note_on_c, 10, 65, 0
11, 31320, Note_on_c, 10, 60, 75
11, 31320, Note_on_c, 10, 64, 75
11, 31500, Note_on_c, 10, 64, 0
11, 31500, Note_on_c, 10, 60, 0
11, 31680, Note_on_c, 10, 67, 75
11, 31680, Note_on_c, 10, 64, 75
11, 31680, Note_on_c, 10, 60, 75
11, 31740, Note_on_c, 10, 64, 75
11, 31740, Note_on_c, 10, 72, 75
11, 31800, Note_on_c, 10, 72, 0
11, 31800, Note_on_c, 10, 64, 0
11, 31800, Note_on_c, 10, 64, 75
11, 31800, Note_on_c, 10, 72, 75
11, 31860, Note_on_c, 10, 72, 0
11, 31860, Note_on_c, 10, 67, 0
11, 31860, Note_on_c, 10, 60, 0
11, 31860, Note_on_c, 10, 64, 0
11, 31860, Note_on_c, 10, 64, 0
11, 31860, Note_on_c, 10, 69, 75
11, 31860, Note_on_c, 10, 65, 75
11, 31860, Note_on_c, 10, 62, 75
11, 31920, Note_on_c, 10, 72, 75
11, 31920, Note_on_c, 10, 65, 75
11, 31980, Note_on_c, 10, 65, 0
11, 31980, Note_on_c, 10, 72, 0
11, 31980, Note_on_c, 10, 72, 75
11, 31980, Note_on_c, 10, 65, 75
11, 31995, Note_on_c, 10, 72, 0
11, 31995, Note_on_c, 10, 71, 75
11, 32010, Note_on_c, 10, 71, 0
11, 32010, Note_on_c, 10, 69, 75
11, 32025, Note_on_c, 10, 69, 0
11, 32025, Note_on_c, 10, 71, 75
11, 32040, Note_on_c, 10, 71, 0
11, 32040, Note_on_c, 10, 65, 0
11, 32040, Note_on_c, 10, 62, 0
11, 32040, Note_on_c, 10, 65, 0
11, 32040, Note_on_c, 10, 69, 0
11, 32040, Note_on_c, 10, 67, 75
11, 32040, Note_on_c, 10, 72, 75
11, 32040, Note_on_c, 10, 64, 75
11, 32100, Note_on_c, 10, 64, 75
11, 32100, Note_on_c, 10, 72, 75
11, 32160, Note_on_c, 10, 72, 0
11, 32160, Note_on_c, 10, 64, 0
11, 32160, Note_on_c, 10, 64, 75
11, 32160, Note_on_c, 10, 72, 75
11, 32220, Note_on_c, 10, 72, 0
11, 32220, Note_on_c, 10, 67, 0
11, 32220, Note_on_c, 10, 64, 0
11, 32220, Note_on_c, 10, 72, 0
11, 32220, Note_on_c, 10, 64, 0
11, 32220, Note_on_c, 10, 74, 75
11, 32220, Note_on_c, 10, 66, 75
11, 32220, Note_on_c, 10, 62, 75
11, 32220, Note_on_c, 10, 69, 75
11, 32280, Note_on_c, 10, 74, 0
11, 32280, Note_on_c, 10, 66, 75
11, 32280, Note_on_c, 10, 74, 75
11, 32340, Note_on_c, 10, 74, 0
11, 32340, Note_on_c, 10, 66, 0
11, 32340, Note_on_c, 10, 66, 75
11, 32340, Note_on_c, 10, 72, 75
11, 32400, Note_on_c, 10, 72, 0
11, 32400, Note_on_c, 10, 69, 0
11, 32400, Note_on_c, 10, 66, 0
11, 32400, Note_on_c, 10, 62, 0
11, 32400, Note_on_c, 10, 66, 0
11, 32400, Note_on_c, 10, 71, 75
11, 32400, Note_on_c, 10, 67, 75
11, 32400, Note_on_c, 10, 62, 75
11, 32460, Note_on_c, 10, 62, 75
11, 32460, Note_on_c, 10, 67, 75
11, 32460, Note_on_c, 10, 74, 75
11, 32520, Note_on_c, 10, 74, 0
11, 32520, Note_on_c, 10, 62, 0
11, 32520, Note_on_c, 10, 67, 0
11, 32520, Note_on_c, 10, 62, 75
11, 32520, Note_on_c, 10, 67, 75
11, 32520, Note_on_c, 10, 74, 75
11, 32580, Note_on_c, 10, 74, 0
11, 32580, Note_on_c, 10, 62, 0
11, 32580, Note_on_c, 10, 71, 0
11, 32580, Note_on_c, 10, 67, 0
11, 32580, Note_on_c, 10, 67, 0
11, 32580, Note_on_c, 10, 62, 0
11, 32580, Note_on_c, 10, 72, 75
11, 32580, Note_on_c, 10, 69, 75
11, 32580, Note_on_c, 10, 64, 75
11, 32640, Note_on_c, 10, 76, 75
11, 32640, Note_on_c, 10, 67, 75
11, 32700, Note_on_c, 10, 67, 0
11, 32700, Note_on_c, 10, 76, 0
11, 32700, Note_on_c, 10, 76, 75
11, 32700, Note_on_c, 10, 67, 75
11, 32715, Note_on_c, 10, 76, 0
11, 32715, Note_on_c, 10, 74, 75
11, 32730, Note_on_c, 10, 74, 0
11, 32730, Note_on_c, 10, 72, 75
11, 32745, Note_on_c, 10, 72, 0
11, 32745, Note_on_c, 10, 74, 75
11, 32760, Note_on_c, 10, 74, 0
11, 32760, Note_on_c, 10, 67, 0
11, 32760, Note_on_c, 10, 64, 0
11, 32760, Note_on_c, 10, 69, 0
11, 32760, Note_on_c, 10, 72, 0
11, 32760, Note_on_c, 10, 62, 75
11, 32760, Note_on_c, 10, 71, 75
11, 32820, Note_on_c, 10, 74, 75
11, 32880, Note_on_c, 10, 74, 0
11, 32880, Note_on_c, 10, 71, 75
11, 32940, Note_on_c, 10, 71, 0
11, 32940, Note_on_c, 10, 71, 0
11, 32940, Note_on_c, 10, 62, 0
11, 32940, Note_on_c, 10, 64, 75
11, 32940, Note_on_c, 10, 69, 75
11, 32940, Note_on_c, 10, 61, 75
11, 33000, Note_on_c, 10, 69, 75
11, 33060, Note_on_c, 10, 69, 0
11, 33060, Note_on_c, 10, 67, 75
11, 33120, Note_on_c, 10, 67, 0
11, 33120, Note_on_c, 10, 61, 0
11, 33120, Note_on_c, 10, 69, 0
11, 33120, Note_on_c, 10, 64, 0
11, 33120, Note_on_c, 10, 62, 75
11, 33120, Note_on_c, 10, 65, 75
11, 33120, Note_on_c, 10, 69, 75
11, 33180, Note_on_c, 10, 71, 75
11, 33240, Note_on_c, 10, 71, 0
11, 33240, Note_on_c, 10, 67, 75
11, 33300, Note_on_c, 10, 67, 0
11, 33300, Note_on_c, 10, 69, 0
11, 33300, Note_on_c, 10, 65, 0
11, 33300, Note_on_c, 10, 62, 0
11, 33300, Note_on_c, 10, 65, 75
11, 33300, Note_on_c, 10, 62, 75
11, 33300, Note_on_c, 10, 67, 75
11, 33480, Note_on_c, 10, 67, 0
11, 33480, Note_on_c, 10, 62, 0
11, 33480, Note_on_c, 10, 65, 0
11, 33480, Note_on_c, 10, 64, 75
11, 33480, Note_on_c, 10, 67, 75
11, 33660, Note_on_c, 10, 67, 0
11, 33660, Note_on_c, 10, 64, 0
11, 33660, Note_on_c, 10, 62, 75
11, 33660, Note_on_c, 10, 65, 75
11, 33840, Note_on_c, 10, 65, 0
11, 33840, Note_on_c, 10, 62, 0
11, 33840, Note_on_c, 10, 62, 75
11, 33840, Note_on_c, 10, 65, 75
11, 34020, Note_on_c, 10, 65, 0
11, 34020, Note_on_c, 10, 62, 0
11, 34020, Note_on_c, 10, 60, 75
11, 34020, Note_on_c, 10, 64, 75
11, 34020, Note_on_c, 10, 67, 75
11, 34080, Note_on_c, 10, 67, 0
11, 34080, Note_on_c, 10, 64, 0
11, 34080, Note_on_c, 10, 60, 0
11, 34080, Note_on_c, 10, 67, 75
11, 34110, Note_on_c, 10, 67, 0
11, 34110, Note_on_c, 10, 65, 75
11, 34140, Note_on_c, 10, 65, 0
11, 34140, Note_on_c, 10, 64, 75
11, 34170, Note_on_c, 10, 64, 0
11, 34170, Note_on_c, 10, 62, 75
11, 34200, Note_on_c, 10, 62, 0
11, 34200, Note_on_c, 10, 64, 75
11, 34260, Note_on_c, 10, 64, 0
11, 34260, Note_on_c, 10, 69, 75
11, 34290, Note_on_c, 10, 69, 0
11, 34290, Note_on_c, 10, 67, 75
11, 34320, Note_on_c, 10, 67, 0
11, 34320, Note_on_c, 10, 65, 75
11, 34350, Note_on_c, 10, 65, 0
11, 34350, Note_on_c, 10, 64, 75
11, 34380, Note_on_c, 10, 64, 0
11, 34380, Note_on_c, 10, 65, 75
11, 34440, Note_on_c, 10, 65, 0
11, 34440, Note_on_c, 10, 67, 75
11, 34500, Note_on_c, 10, 67, 0
11, 34500, Note_on_c, 10, 65, 75
11, 34560, Note_on_c, 10, 65, 0
11, 34560, Note_on_c, 10, 60, 75
11, 34560, Note_on_c, 10, 64, 75
11, 34620, Note_on_c, 10, 64, 75
11, 34620, Note_on_c, 10, 67, 75
11, 34680, Note_on_c, 10, 67, 0
11, 34680, Note_on_c, 10, 64, 0
11, 34680, Note_on_c, 10, 64, 75
11, 34680, Note_on_c, 10, 67, 75
11, 34740, Note_on_c, 10, 67, 0
11, 34740, Note_on_c, 10, 60, 0
11, 34740, Note_on_c, 10, 64, 0
11, 34740, Note_on_c, 10, 64, 0
11, 34740, Note_on_c, 10, 62, 75
11, 34740, Note_on_c, 10, 65, 75
11, 34800, Note_on_c, 10, 65, 75
11, 34860, Note_on_c, 10, 65, 0
11, 34860, Note_on_c, 10, 65, 75
11, 34920, Note_on_c, 10, 65, 0
11, 34920, Note_on_c, 10, 65, 0
11, 34920, Note_on_c, 10, 62, 0
11, 34920, Note_on_c, 10, 60, 75
11, 34920, Note_on_c, 10, 67, 75
11, 34920, Note_on_c, 10, 64, 75
11, 34980, Note_on_c, 10, 64, 0
11, 34980, Note_on_c, 10, 67, 0
11, 34980, Note_on_c, 10, 60, 0
11, 35100, Note_on_c, 10, 62, 75
11, 35100, Note_on_c, 10, 69, 75
11, 35160, Note_on_c, 10, 69, 0
11, 35160, Note_on_c, 10, 62, 0
11, 35280, Note_on_c, 10, 62, 75
11, 35280, Note_on_c, 10, 67, 75
11, 35340, Note_on_c, 10, 67, 0
11, 35340, Note_on_c, 10, 62, 0
11, 35460, Note_on_c, 10, 60, 75
11, 35460, Note_on_c, 10, 64, 75
11, 35460, Note_on_c, 10, 69, 75
11, 35520, Note_on_c, 10, 69, 0
11, 35520, Note_on_c, 10, 64, 0
11, 35520, Note_on_c, 10, 60, 0
11, 35640, Note_on_c, 10, 67, 75
11, 35640, Note_on_c, 10, 62, 75
11, 35640, Note_on_c, 10, 71, 75
11, 35700, Note_on_c, 10, 71, 0
11, 35700, Note_on_c, 10, 62, 0
11, 35700, Note_on_c, 10, 67, 0
11, 35820, Note_on_c, 10, 64, 75
11, 35820, Note_on_c, 10, 72, 75
11, 35820, Note_on_c, 10, 67, 75
11, 35880, Note_on_c, 10, 67, 0
11, 35880, Note_on_c, 10, 72, 0
11, 35880, Note_on_c, 10, 64, 0
11, 36000, Note_on_c, 10, 62, 75
11, 36060, Note_on_c, 10, 62, 0
11, 36060, Note_on_c, 10, 66, 75
11, 36060, Note_on_c, 10, 69, 75
11, 36120, Note_on_c, 10, 69, 0
11, 36120, Note_on_c, 10, 66, 0
11, 36120, Note_on_c, 10, 74, 75
11, 36180, Note_on_c, 10, 74, 0
11, 36180, Note_on_c, 10, 64, 75
11, 36240, Note_on_c, 10, 64, 0
11, 36240, Note_on_c, 10, 69, 75
11, 36300, Note_on_c, 10, 69, 0
11, 36300, Note_on_c, 10, 74, 75
11, 36360, Note_on_c, 10, 74, 0
11, 36360, Note_on_c, 10, 62, 75
11, 36360, Note_on_c, 10, 69, 75
11, 36360, Note_on_c, 10, 66, 75
11, 36420, Note_on_c, 10, 66, 0
11, 36420, Note_on_c, 10, 69, 0
11, 36420, Note_on_c, 10, 62, 0
11, 36480, Note_on_c, 10, 62, 75
11, 36480, Note_on_c, 10, 66, 75
11, 36480, Note_on_c, 10, 69, 75
11, 36540, Note_on_c, 10, 69, 0
11, 36540, Note_on_c, 10, 66, 0
11, 36540, Note_on_c, 10, 62, 0
11, 36540, Note_on_c, 10, 64, 75
11, 36540, Note_on_c, 10, 68, 75
11, 36600, Note_on_c, 10, 68, 0
11, 36600, Note_on_c, 10, 64, 0
11, 36660, Note_on_c, 10, 68, 75
11, 36660, Note_on_c, 10, 64, 75
11, 36660, Note_on_c, 10, 62, 75
11, 36720, Note_on_c, 10, 62, 0
11, 36720, Note_on_c, 10, 64, 0
11, 36720, Note_on_c, 10, 68, 0
11, 36720, Note_on_c, 10, 60, 75
11, 36720, Note_on_c, 10, 64, 75
11, 36720, Note_on_c, 10, 69, 75
11, 36780, Note_on_c, 10, 69, 0
11, 36780, Note_on_c, 10, 64, 0
11, 36780, Note_on_c, 10, 60, 0
11, 36900, Note_on_c, 10, 69, 75
11, 36900, Note_on_c, 10, 66, 75
11, 36900, Note_on_c, 10, 62, 75
11, 36960, Note_on_c, 10, 62, 0
11, 36960, Note_on_c, 10, 66, 0
11, 36960, Note_on_c, 10, 69, 0
11, 37080, Note_on_c, 10, 62, 65
11, 37080, Note_on_c, 10, 66, 65
11, 37199, Note_on_c, 10, 66, 0
11, 37199, Note_on_c, 10, 62, 0
11, 37260, Note_on_c, 10, 67, 65
11, 37260, Note_on_c, 10, 62, 65
11, 37379, Note_on_c, 10, 62, 0
11, 37379, Note_on_c, 10, 67, 0
11, 37440, Note_on_c, 10, 62, 65
11, 37440, Note_on_c, 10, 66, 65
11, 37559, Note_on_c, 10, 66, 0
11, 37559, Note_on_c, 10, 62, 0
11, 37620, Note_on_c, 10, 71, 65
11, 37620, Note_on_c, 10, 62, 65
11, 37620, Note_on_c, 10, 67, 65
11, 37679, Note_on_c, 10, 67, 0
11, 37679, Note_on_c, 10, 62, 0
11, 37679, Note_on_c, 10, 71, 0
11, 37680, Note_on_c, 10, 74, 65
11, 37709, Note_on_c, 10, 74, 0
11, 37710, Note_on_c, 10, 72, 65
11, 37739, Note_on_c, 10, 72, 0
11, 37740, Note_on_c, 10, 71, 65
11, 37769, Note_on_c, 10, 71, 0
11, 37770, Note_on_c, 10, 69, 65
11, 37799, Note_on_c, 10, 69, 0
11, 37800, Note_on_c, 10, 71, 65
11, 37800, Note_on_c, 10, 67, 65
11, 37859, Note_on_c, 10, 67, 0
11, 37859, Note_on_c, 10, 71, 0
11, 37860, Note_on_c, 10, 67, 65
11, 37860, Note_on_c, 10, 76, 65
11, 37889, Note_on_c, 10, 76, 0
11, 37890, Note_on_c, 10, 74, 65
11, 37919, Note_on_c, 10, 74, 0
11, 37919, Note_on_c, 10, 67, 0
11, 37920, Note_on_c, 10, 69, 65
11, 37920, Note_on_c, 10, 72, 65
11, 37949, Note_on_c, 10, 72, 0
11, 37950, Note_on_c, 10, 71, 65
11, 37979, Note_on_c, 10, 71, 0
11, 37979, Note_on_c, 10, 69, 0
11, 37980, Note_on_c, 10, 74, 65
11, 38039, Note_on_c, 10, 74, 0
11, 38040, Note_on_c, 10, 72, 65
11, 38040, Note_on_c, 10, 69, 65
11, 38099, Note_on_c, 10, 69, 0
11, 38099, Note_on_c, 10, 72, 0
11, 38100, Note_on_c, 10, 74, 65
11, 38100, Note_on_c, 10, 67, 65
11, 38115, Note_on_c, 10, 74, 0
11, 38115, Note_on_c, 10, 72, 65
11, 38130, Note_on_c, 10, 72, 0
11, 38130, Note_on_c, 10, 71, 65
11, 38145, Note_on_c, 10, 71, 0
11, 38145, Note_on_c, 10, 72, 65
11, 38159, Note_on_c, 10, 67, 0
11, 38160, Note_on_c, 10, 72, 0
11, 38160, Note_on_c, 10, 67, 65
11, 38160, Note_on_c, 10, 71, 65
11, 38160, Note_on_c, 10, 74, 65
11, 38280, Note_on_c, 10, 74, 0
11, 38280, Note_on_c, 10, 71, 0
11, 38280, Note_on_c, 10, 67, 0
11, 38340, Note_on_c, 10, 74, 65
11, 38340, Note_on_c, 10, 72, 65
11, 38340, Note_on_c, 10, 69, 65
11, 38460, Note_on_c, 10, 69, 0
11, 38460, Note_on_c, 10, 72, 0
11, 38460, Note_on_c, 10, 74, 0
11, 38520, Note_on_c, 10, 67, 65
11, 38520, Note_on_c, 10, 71, 65
11, 38520, Note_on_c, 10, 74, 65
11, 38579, Note_on_c, 10, 74, 0
11, 38579, Note_on_c, 10, 71, 0
11, 38579, Note_on_c, 10, 67, 0
11, 38700, Note_on_c, 10, 69, 65
11, 38700, Note_on_c, 10, 73, 65
11, 38700, Note_on_c, 10, 76, 65
11, 38759, Note_on_c, 10, 76, 0
11, 38759, Note_on_c, 10, 73, 0
11, 38759, Note_on_c, 10, 69, 0
11, 38880, Note_on_c, 10, 74, 65
11, 38880, Note_on_c, 10, 69, 65
11, 38880, Note_on_c, 10, 65, 65
11, 39000, Note_on_c, 10, 65, 0
11, 39000, Note_on_c, 10, 69, 0
11, 39000, Note_on_c, 10, 74, 0
11, 39000, Note_on_c, 10, 64, 65
11, 39000, Note_on_c, 10, 69, 65
11, 39059, Note_on_c, 10, 69, 0
11, 39059, Note_on_c, 10, 64, 0
11, 39060, Note_on_c, 10, 65, 65
11, 39060, Note_on_c, 10, 69, 65
11, 39060, Note_on_c, 10, 74, 65
11, 39180, Note_on_c, 10, 74, 0
11, 39180, Note_on_c, 10, 69, 0
11, 39180, Note_on_c, 10, 65, 0
11, 39180, Note_on_c, 10, 65, 65
11, 39180, Note_on_c, 10, 69, 65
11, 39180, Note_on_c, 10, 72, 65
11, 39239, Note_on_c, 10, 72, 0
11, 39239, Note_on_c, 10, 69, 0
11, 39239, Note_on_c, 10, 65, 0
11, 39240, Note_on_c, 10, 67, 65
11, 39240, Note_on_c, 10, 71, 65
11, 39240, Note_on_c, 10, 74, 65
11, 39360, Note_on_c, 10, 74, 0
11, 39360, Note_on_c, 10, 71, 0
11, 39360, Note_on_c, 10, 67, 0
11, 39420, Note_on_c, 10, 69, 65
11, 39420, Note_on_c, 10, 72, 65
11, 39420, Note_on_c, 10, 74, 65
11, 39540, Note_on_c, 10, 74, 0
11, 39540, Note_on_c, 10, 72, 0
11, 39540, Note_on_c, 10, 69, 0
11, 39600, Note_on_c, 10, 71, 65
11, 39600, Note_on_c, 10, 74, 65
11, 39720, Note_on_c, 10, 74, 0
11, 39720, Note_on_c, 10, 71, 0
11, 39780, Note_on_c, 10, 76, 65
11, 39780, Note_on_c, 10, 72, 65
11, 39900, Note_on_c, 10, 72, 0
11, 39900, Note_on_c, 10, 76, 0
11, 39960, Note_on_c, 10, 74, 65
11, 39960, Note_on_c, 10, 77, 65
11, 40080, Note_on_c, 10, 77, 0
11, 40080, Note_on_c, 10, 74, 0
11, 40140, Note_on_c, 10, 67, 65
11, 40140, Note_on_c, 10, 71, 65
11, 40260, Note_on_c, 10, 71, 0
11, 40260, Note_on_c, 10, 67, 0
11, 40320, Note_on_c, 10, 64, 65
11, 40320, Note_on_c, 10, 67, 65
11, 40440, Note_on_c, 10, 67, 0
11, 40440, Note_on_c, 10, 64, 0
11, 40500, Note_on_c, 10, 62, 65
11, 40500, Note_on_c, 10, 67, 65
11, 40620, Note_on_c, 10, 67, 0
11, 40620, Note_on_c, 10, 62, 0
11, 40680, Note_on_c, 10, 60, 65
11, 40680, Note_on_c, 10, 67, 65
11, 40800, Note_on_c, 10, 67, 0
11, 40800, Note_on_c, 10, 60, 0
11, 40860, Note_on_c, 10, 64, 65
11, 40860, Note_on_c, 10, 67, 65
11, 40919, Note_on_c, 10, 67, 0
11, 40919, Note_on_c, 10, 64, 0
11, 40920, Note_on_c, 10, 67, 65
11, 40949, Note_on_c, 10, 67, 0
11, 40950, Note_on_c, 10, 65, 65
11, 40979, Note_on_c, 10, 65, 0
11, 40980, Note_on_c, 10, 64, 65
11, 41009, Note_on_c, 10, 64, 0
11, 41010, Note_on_c, 10, 62, 65
11, 41039, Note_on_c, 10, 62, 0
11, 41040, Note_on_c, 10, 60, 65
11, 41099, Note_on_c, 10, 60, 0
11, 41100, Note_on_c, 10, 69, 65
11, 41129, Note_on_c, 10, 69, 0
11, 41130, Note_on_c, 10, 67, 65
11, 41159, Note_on_c, 10, 67, 0
11, 41160, Note_on_c, 10, 65, 65
11, 41189, Note_on_c, 10, 65, 0
11, 41190, Note_on_c, 10, 64, 65
11, 41219, Note_on_c, 10, 64, 0
11, 41220, Note_on_c, 10, 67, 65
11, 41279, Note_on_c, 10, 67, 0
11, 41280, Note_on_c, 10, 67, 65
11, 41309, Note_on_c, 10, 67, 0
11, 41310, Note_on_c, 10, 65, 65
11, 41339, Note_on_c, 10, 65, 0
11, 41340, Note_on_c, 10, 64, 65
11, 41369, Note_on_c, 10, 64, 0
11, 41370, Note_on_c, 10, 62, 65
11, 41399, Note_on_c, 10, 62, 0
11, 41400, Note_on_c, 10, 60, 65
11, 41400, Note_on_c, 10, 64, 65
11, 41579, Note_on_c, 10, 64, 0
11, 41579, Note_on_c, 10, 60, 0
11, 41580, Note_on_c, 10, 60, 65
11, 41580, Note_on_c, 10, 64, 65
11, 41700, Note_on_c, 10, 64, 0
11, 41700, Note_on_c, 10, 60, 0
11, 41760, Note_on_c, 10, 59, 65
11, 41760, Note_on_c, 10, 64, 65
11, 41880, Note_on_c, 10, 64, 0
11, 41880, Note_on_c, 10, 59, 0
11, 41940, Note_on_c, 10, 57, 65
11, 41940, Note_on_c, 10, 64, 65
11, 42060, Note_on_c, 10, 64, 0
11, 42060, Note_on_c, 10, 57, 0
11, 42120, Note_on_c, 10, 67, 65
11, 42120, Note_on_c, 10, 62, 65
11, 42240, Note_on_c, 10, 62, 0
11, 42240, Note_on_c, 10, 67, 0
11, 42300, Note_on_c, 10, 62, 65
11, 42300, Note_on_c, 10, 65, 65
11, 42420, Note_on_c, 10, 65, 0
11, 42420, Note_on_c, 10, 62, 0
11, 42480, Note_on_c, 10, 64, 65
11, 42480, Note_on_c, 10, 67, 65
11, 42600, Note_on_c, 10, 67, 0
11, 42600, Note_on_c, 10, 64, 0
11, 42660, Note_on_c, 10, 62, 65
11, 42660, Note_on_c, 10, 67, 65
11, 42780, Note_on_c, 10, 67, 0
11, 42780, Note_on_c, 10, 62, 0
11, 42840, Note_on_c, 10, 60, 65
11, 42840, Note_on_c, 10, 67, 65
11, 42960, Note_on_c, 10, 67, 0
11, 42960, Note_on_c, 10, 60, 0
11, 42960, Note_on_c, 10, 62, 65
11, 42960, Note_on_c, 10, 65, 65
11, 43019, Note_on_c, 10, 65, 0
11, 43019, Note_on_c, 10, 62, 0
11, 43020, Note_on_c, 10, 60, 65
11, 43020, Note_on_c, 10, 64, 65
11, 43020, Note_on_c, 10, 67, 65
11, 43079, Note_on_c, 10, 67, 0
11, 43079, Note_on_c, 10, 64, 0
11, 43079, Note_on_c, 10, 60, 0
11, 43080, Note_on_c, 10, 67, 65
11, 43109, Note_on_c, 10, 67, 0
11, 43110, Note_on_c, 10, 65, 65
11, 43139, Note_on_c, 10, 65, 0
11, 43140, Note_on_c, 10, 64, 65
11, 43169, Note_on_c, 10, 64, 0
11, 43170, Note_on_c, 10, 62, 65
11, 43199, Note_on_c, 10, 62, 0
11, 43200, Note_on_c, 10, 60, 65
11, 43259, Note_on_c, 10, 60, 0
11, 43260, Note_on_c, 10, 69, 65
11, 43289, Note_on_c, 10, 69, 0
11, 43290, Note_on_c, 10, 67, 65
11, 43319, Note_on_c, 10, 67, 0
11, 43320, Note_on_c, 10, 65, 65
11, 43349, Note_on_c, 10, 65, 0
11, 43350, Note_on_c, 10, 64, 65
11, 43379, Note_on_c, 10, 64, 0
11, 43380, Note_on_c, 10, 65, 65
11, 43439, Note_on_c, 10, 65, 0
11, 43440, Note_on_c, 10, 67, 65
11, 43469, Note_on_c, 10, 67, 0
11, 43470, Note_on_c, 10, 65, 65
11, 43499, Note_on_c, 10, 65, 0
11, 43500, Note_on_c, 10, 64, 65
11, 43529, Note_on_c, 10, 64, 0
11, 43530, Note_on_c, 10, 62, 65
11, 43559, Note_on_c, 10, 62, 0
11, 43560, Note_on_c, 10, 60, 65
11, 43739, Note_on_c, 10, 60, 0
11, 43920, Note_on_c, 10, 59, 65
11, 43920, Note_on_c, 10, 62, 65
11, 43920, Note_on_c, 10, 67, 65
11, 44040, Note_on_c, 10, 67, 0
11, 44040, Note_on_c, 10, 62, 0
11, 44040, Note_on_c, 10, 59, 0
11, 44040, Note_on_c, 10, 57, 65
11, 44040, Note_on_c, 10, 60, 65
11, 44100, Note_on_c, 10, 60, 0
11, 44100, Note_on_c, 10, 57, 0
11, 44100, Note_on_c, 10, 59, 65
11, 44100, Note_on_c, 10, 62, 65
11, 44160, Note_on_c, 10, 62, 0
11, 44160, Note_on_c, 10, 59, 0
11, 44160, Note_on_c, 10, 60, 65
11, 44160, Note_on_c, 10, 64, 65
11, 44220, Note_on_c, 10, 64, 0
11, 44220, Note_on_c, 10, 60, 0
11, 44220, Note_on_c, 10, 62, 65
11, 44220, Note_on_c, 10, 64, 65
11, 44280, Note_on_c, 10, 64, 0
11, 44280, Note_on_c, 10, 62, 0
11, 44280, Note_on_c, 10, 60, 65
11, 44280, Note_on_c, 10, 64, 65
11, 44400, Note_on_c, 10, 64, 0
11, 44400, Note_on_c, 10, 60, 0
11, 44460, Note_on_c, 10, 62, 65
11, 44460, Note_on_c, 10, 64, 65
11, 44460, Note_on_c, 10, 59, 65
11, 44580, Note_on_c, 10, 59, 0
11, 44580, Note_on_c, 10, 64, 0
11, 44580, Note_on_c, 10, 62, 0
11, 44640, Note_on_c, 10, 64, 65
11, 44640, Note_on_c, 10, 60, 65
11, 44760, Note_on_c, 10, 60, 0
11, 44760, Note_on_c, 10, 64, 0
11, 44820, Note_on_c, 10, 65, 65
11, 44820, Note_on_c, 10, 62, 65
11, 44940, Note_on_c, 10, 62, 0
11, 44940, Note_on_c, 10, 65, 0
11, 45000, Note_on_c, 10, 68, 65
11, 45000, Note_on_c, 10, 64, 65
11, 45120, Note_on_c, 10, 64, 0
11, 45120, Note_on_c, 10, 68, 0
11, 45180, Note_on_c, 10, 71, 65
11, 45180, Note_on_c, 10, 66, 65
11, 45300, Note_on_c, 10, 66, 0
11, 45300, Note_on_c, 10, 71, 0
11, 45360, Note_on_c, 10, 64, 65
11, 45360, Note_on_c, 10, 71, 65
11, 45360, Note_on_c, 10, 68, 65
11, 45480, Note_on_c, 10, 68, 0
11, 45480, Note_on_c, 10, 71, 0
11, 45480, Note_on_c, 10, 64, 0
11, 45480, Note_on_c, 10, 68, 65
11, 45480, Note_on_c, 10, 64, 65
11, 45480, Note_on_c, 10, 62, 65
11, 45539, Note_on_c, 10, 62, 0
11, 45539, Note_on_c, 10, 64, 0
11, 45539, Note_on_c, 10, 68, 0
11, 45540, Note_on_c, 10, 69, 65
11, 45540, Note_on_c, 10, 64, 65
11, 45540, Note_on_c, 10, 60, 65
11, 45660, Note_on_c, 10, 60, 0
11, 45660, Note_on_c, 10, 64, 0
11, 45660, Note_on_c, 10, 69, 0
11, 45720, Note_on_c, 10, 68, 65
11, 45720, Note_on_c, 10, 64, 65
11, 45840, Note_on_c, 10, 64, 0
11, 45840, Note_on_c, 10, 68, 0
11, 45900, Note_on_c, 10, 62, 65
11, 45900, Note_on_c, 10, 68, 65
11, 45900, Note_on_c, 10, 64, 65
11, 46020, Note_on_c, 10, 64, 0
11, 46020, Note_on_c, 10, 68, 0
11, 46020, Note_on_c, 10, 62, 0
11, 46080, Note_on_c, 10, 60, 65
11, 46080, Note_on_c, 10, 64, 65
11, 46200, Note_on_c, 10, 64, 0
11, 46200, Note_on_c, 10, 60, 0
11, 46260, Note_on_c, 10, 59, 65
11, 46260, Note_on_c, 10, 64, 65
11, 46380, Note_on_c, 10, 64, 0
11, 46380, Note_on_c, 10, 59, 0
11, 46440, Note_on_c, 10, 65, 65
11, 46440, Note_on_c, 10, 57, 65
11, 46440, Note_on_c, 10, 64, 65
11, 46560, Note_on_c, 10, 64, 0
11, 46560, Note_on_c, 10, 57, 0
11, 46560, Note_on_c, 10, 65, 0
11, 46620, Note_on_c, 10, 64, 65
11, 46620, Note_on_c, 10, 69, 65
11, 46679, Note_on_c, 10, 69, 0
11, 46679, Note_on_c, 10, 64, 0
11, 46680, Note_on_c, 10, 71, 65
11, 46709, Note_on_c, 10, 71, 0
11, 46710, Note_on_c, 10, 69, 65
11, 46739, Note_on_c, 10, 69, 0
11, 46740, Note_on_c, 10, 67, 65
11, 46769, Note_on_c, 10, 67, 0
11, 46770, Note_on_c, 10, 65, 65
11, 46799, Note_on_c, 10, 65, 0
11, 46800, Note_on_c, 10, 64, 65
11, 46859, Note_on_c, 10, 64, 0
11, 46860, Note_on_c, 10, 69, 65
11, 46889, Note_on_c, 10, 69, 0
11, 46890, Note_on_c, 10, 67, 65
11, 46919, Note_on_c, 10, 67, 0
11, 46920, Note_on_c, 10, 65, 65
11, 46949, Note_on_c, 10, 65, 0
11, 46950, Note_on_c, 10, 64, 65
11, 46979, Note_on_c, 10, 64, 0
11, 46980, Note_on_c, 10, 62, 65
11, 47039, Note_on_c, 10, 62, 0
11, 47040, Note_on_c, 10, 72, 65
11, 47069, Note_on_c, 10, 72, 0
11, 47070, Note_on_c, 10, 71, 65
11, 47099, Note_on_c, 10, 71, 0
11, 47100, Note_on_c, 10, 69, 65
11, 47129, Note_on_c, 10, 69, 0
11, 47130, Note_on_c, 10, 68, 65
11, 47159, Note_on_c, 10, 68, 0
11, 47160, Note_on_c, 10, 60, 65
11, 47160, Note_on_c, 10, 64, 65
11, 47160, Note_on_c, 10, 69, 65
11, 47279, Note_on_c, 10, 69, 0
11, 47279, Note_on_c, 10, 64, 0
11, 47279, Note_on_c, 10, 60, 0
11, 47340, Note_on_c, 10, 60, 65
11, 47340, Note_on_c, 10, 64, 65
11, 47340, Note_on_c, 10, 67, 65
11, 47459, Note_on_c, 10, 67, 0
11, 47459, Note_on_c, 10, 64, 0
11, 47459, Note_on_c, 10, 60, 0
11, 47520, Note_on_c, 10, 57, 65
11, 47520, Note_on_c, 10, 60, 65
11, 47520, Note_on_c, 10, 66, 65
11, 47639, Note_on_c, 10, 66, 0
11, 47639, Note_on_c, 10, 60, 0
11, 47639, Note_on_c, 10, 57, 0
11, 47700, Note_on_c, 10, 57, 65
11, 47700, Note_on_c, 10, 62, 65
11, 47700, Note_on_c, 10, 66, 65
11, 47819, Note_on_c, 10, 66, 0
11, 47819, Note_on_c, 10, 62, 0
11, 47819, Note_on_c, 10, 57, 0
11, 47820, Note_on_c, 10, 60, 65
11, 47880, Note_on_c, 10, 60, 0
11, 47880, Note_on_c, 10, 59, 65
11, 47880, Note_on_c, 10, 62, 65
11, 47880, Note_on_c, 10, 67, 65
11, 47999, Note_on_c, 10, 67, 0
11, 47999, Note_on_c, 10, 62, 0
11, 47999, Note_on_c, 10, 59, 0
11, 48000, Note_on_c, 10, 62, 65
11, 48000, Note_on_c, 10, 67, 65
11, 48000, Note_on_c, 10, 65, 65
11, 48059, Note_on_c, 10, 65, 0
11, 48059, Note_on_c, 10, 67, 0
11, 48059, Note_on_c, 10, 62, 0
11, 48060, Note_on_c, 10, 60, 65
11, 48060, Note_on_c, 10, 64, 65
11, 48060, Note_on_c, 10, 67, 65
11, 48179, Note_on_c, 10, 67, 0
11, 48179, Note_on_c, 10, 64, 0
11, 48179, Note_on_c, 10, 60, 0
11, 48240, Note_on_c, 10, 67, 65
11, 48240, Note_on_c, 10, 59, 65
11, 48240, Note_on_c, 10, 64, 65
11, 48299, Note_on_c, 10, 64, 0
11, 48299, Note_on_c, 10, 59, 0
11, 48299, Note_on_c, 10, 67, 0
11, 48300, Note_on_c, 10, 78, 65
11, 48329, Note_on_c, 10, 78, 0
11, 48330, Note_on_c, 10, 76, 65
11, 48359, Note_on_c, 10, 76, 0
11, 48360, Note_on_c, 10, 74, 65
11, 48389, Note_on_c, 10, 74, 0
11, 48390, Note_on_c, 10, 72, 65
11, 48419, Note_on_c, 10, 72, 0
11, 48420, Note_on_c, 10, 71, 65
11, 48420, Note_on_c, 10, 63, 65
11, 48420, Note_on_c, 10, 66, 65
11, 48479, Note_on_c, 10, 66, 0
11, 48479, Note_on_c, 10, 63, 0
11, 48479, Note_on_c, 10, 71, 0
11, 48480, Note_on_c, 10, 75, 65
11, 48509, Note_on_c, 10, 75, 0
11, 48510, Note_on_c, 10, 73, 65
11, 48539, Note_on_c, 10, 73, 0
11, 48540, Note_on_c, 10, 71, 65
11, 48569, Note_on_c, 10, 71, 0
11, 48570, Note_on_c, 10, 69, 65
11, 48599, Note_on_c, 10, 69, 0
11, 48600, Note_on_c, 10, 59, 65
11, 48600, Note_on_c, 10, 64, 65
11, 48600, Note_on_c, 10, 67, 65
11, 48719, Note_on_c, 10, 67, 0
11, 48719, Note_on_c, 10, 64, 0
11, 48719, Note_on_c, 10, 59, 0
11, 48780, Note_on_c, 10, 60, 65
11, 48780, Note_on_c, 10, 69, 65
11, 48780, Note_on_c, 10, 64, 65
11, 48899, Note_on_c, 10, 64, 0
11, 48899, Note_on_c, 10, 69, 0
11, 48899, Note_on_c, 10, 60, 0
11, 48960, Note_on_c, 10, 67, 65
11, 48960, Note_on_c, 10, 64, 65
11, 48960, Note_on_c, 10, 59, 65
11, 49079, Note_on_c, 10, 59, 0
11, 49079, Note_on_c, 10, 64, 0
11, 49079, Note_on_c, 10, 67, 0
11, 49140, Note_on_c, 10, 67, 65
11, 49140, Note_on_c, 10, 61, 65
11, 49140, Note_on_c, 10, 64, 65
11, 49259, Note_on_c, 10, 64, 0
11, 49259, Note_on_c, 10, 61, 0
11, 49259, Note_on_c, 10, 67, 0
11, 49320, Note_on_c, 10, 69, 65
11, 49320, Note_on_c, 10, 63, 65
11, 49320, Note_on_c, 10, 66, 65
11, 49439, Note_on_c, 10, 66, 0
11, 49439, Note_on_c, 10, 63, 0
11, 49439, Note_on_c, 10, 69, 0
11, 49500, Note_on_c, 10, 59, 65
11, 49500, Note_on_c, 10, 64, 65
11, 49500, Note_on_c, 10, 67, 65
11, 49619, Note_on_c, 10, 67, 0
11, 49619, Note_on_c, 10, 64, 0
11, 49619, Note_on_c, 10, 59, 0
11, 49680, Note_on_c, 10, 60, 65
11, 49680, Note_on_c, 10, 69, 65
11, 49680, Note_on_c, 10, 66, 65
11, 49799, Note_on_c, 10, 66, 0
11, 49799, Note_on_c, 10, 69, 0
11, 49799, Note_on_c, 10, 60, 0
11, 49860, Note_on_c, 10, 66, 65
11, 49860, Note_on_c, 10, 69, 65
11, 49860, Note_on_c, 10, 63, 65
11, 49979, Note_on_c, 10, 63, 0
11, 49979, Note_on_c, 10, 69, 0
11, 49979, Note_on_c, 10, 66, 0
11, 49980, Note_on_c, 10, 64, 65
11, 49980, Note_on_c, 10, 67, 65
11, 50040, Note_on_c, 10, 67, 0
11, 50040, Note_on_c, 10, 64, 0
11, 50040, Note_on_c, 10, 63, 65
11, 50040, Note_on_c, 10, 66, 65
11, 50159, Note_on_c, 10, 66, 0
11, 50159, Note_on_c, 10, 63, 0
11, 50220, Note_on_c, 10, 59, 65
11, 50220, Note_on_c, 10, 66, 65
11, 50339, Note_on_c, 10, 66, 0
11, 50339, Note_on_c, 10, 59, 0
11, 50400, Note_on_c, 10, 69, 65
11, 50400, Note_on_c, 10, 59, 65
11, 50400, Note_on_c, 10, 64, 65
11, 50519, Note_on_c, 10, 64, 0
11, 50519, Note_on_c, 10, 59, 0
11, 50519, Note_on_c, 10, 69, 0
11, 50580, Note_on_c, 10, 64, 65
11, 50580, Note_on_c, 10, 67, 65
11, 50639, Note_on_c, 10, 67, 0
11, 50639, Note_on_c, 10, 64, 0
11, 50640, Note_on_c, 10, 66, 65
11, 50669, Note_on_c, 10, 66, 0
11, 50670, Note_on_c, 10, 64, 65
11, 50699, Note_on_c, 10, 64, 0
11, 50700, Note_on_c, 10, 62, 65
11, 50729, Note_on_c, 10, 62, 0
11, 50730, Note_on_c, 10, 60, 65
11, 50759, Note_on_c, 10, 60, 0
11, 50760, Note_on_c, 10, 64, 65
11, 50760, Note_on_c, 10, 67, 65
11, 50760, Note_on_c, 10, 59, 65
11, 50819, Note_on_c, 10, 59, 0
11, 50819, Note_on_c, 10, 67, 0
11, 50819, Note_on_c, 10, 64, 0
11, 50820, Note_on_c, 10, 62, 65
11, 50849, Note_on_c, 10, 62, 0
11, 50850, Note_on_c, 10, 60, 65
11, 50879, Note_on_c, 10, 60, 0
11, 50880, Note_on_c, 10, 59, 65
11, 50909, Note_on_c, 10, 59, 0
11, 50910, Note_on_c, 10, 57, 65
11, 50939, Note_on_c, 10, 57, 0
11, 50940, Note_on_c, 10, 64, 65
11, 50940, Note_on_c, 10, 67, 65
11, 50999, Note_on_c, 10, 67, 0
11, 50999, Note_on_c, 10, 64, 0
11, 51000, Note_on_c, 10, 66, 65
11, 51029, Note_on_c, 10, 66, 0
11, 51030, Note_on_c, 10, 64, 65
11, 51059, Note_on_c, 10, 64, 0
11, 51060, Note_on_c, 10, 63, 65
11, 51089, Note_on_c, 10, 63, 0
11, 51090, Note_on_c, 10, 61, 65
11, 51119, Note_on_c, 10, 61, 0
11, 51120, Note_on_c, 10, 64, 65
11, 51299, Note_on_c, 10, 64, 0
11, 51480, Note_on_c, 10, 67, 75
11, 51480, Note_on_c, 10, 64, 75
11, 51480, Note_on_c, 10, 60, 75
11, 51540, Note_on_c, 10, 64, 75
11, 51540, Note_on_c, 10, 72, 75
11, 51600, Note_on_c, 10, 72, 0
11, 51600, Note_on_c, 10, 64, 0
11, 51600, Note_on_c, 10, 64, 75
11, 51600, Note_on_c, 10, 72, 75
11, 51660, Note_on_c, 10, 72, 0
11, 51660, Note_on_c, 10, 67, 0
11, 51660, Note_on_c, 10, 60, 0
11, 51660, Note_on_c, 10, 64, 0
11, 51660, Note_on_c, 10, 64, 0
11, 51660, Note_on_c, 10, 69, 75
11, 51660, Note_on_c, 10, 65, 75
11, 51660, Note_on_c, 10, 62, 75
11, 51720, Note_on_c, 10, 72, 75
11, 51720, Note_on_c, 10, 65, 75
11, 51780, Note_on_c, 10, 65, 0
11, 51780, Note_on_c, 10, 72, 0
11, 51780, Note_on_c, 10, 72, 75
11, 51780, Note_on_c, 10, 65, 75
11, 51795, Note_on_c, 10, 72, 0
11, 51795, Note_on_c, 10, 71, 75
11, 51810, Note_on_c, 10, 71, 0
11, 51810, Note_on_c, 10, 69, 75
11, 51825, Note_on_c, 10, 69, 0
11, 51825, Note_on_c, 10, 71, 75
11, 51840, Note_on_c, 10, 71, 0
11, 51840, Note_on_c, 10, 65, 0
11, 51840, Note_on_c, 10, 62, 0
11, 51840, Note_on_c, 10, 65, 0
11, 51840, Note_on_c, 10, 69, 0
11, 51840, Note_on_c, 10, 67, 75
11, 51840, Note_on_c, 10, 72, 75
11, 51840, Note_on_c, 10, 64, 75
11, 51900, Note_on_c, 10, 64, 75
11, 51900, Note_on_c, 10, 72, 75
11, 51960, Note_on_c, 10, 72, 0
11, 51960, Note_on_c, 10, 64, 0
11, 51960, Note_on_c, 10, 64, 75
11, 51960, Note_on_c, 10, 72, 75
11, 52020, Note_on_c, 10, 72, 0
11, 52020, Note_on_c, 10, 67, 0
11, 52020, Note_on_c, 10, 64, 0
11, 52020, Note_on_c, 10, 72, 0
11, 52020, Note_on_c, 10, 64, 0
11, 52020, Note_on_c, 10, 74, 75
11, 52020, Note_on_c, 10, 66, 75
11, 52020, Note_on_c, 10, 62, 75
11, 52020, Note_on_c, 10, 69, 75
11, 52080, Note_on_c, 10, 74, 0
11, 52080, Note_on_c, 10, 66, 75
11, 52080, Note_on_c, 10, 74, 75
11, 52140, Note_on_c, 10, 74, 0
11, 52140, Note_on_c, 10, 66, 0
11, 52140, Note_on_c, 10, 66, 75
11, 52140, Note_on_c, 10, 72, 75
11, 52200, Note_on_c, 10, 72, 0
11, 52200, Note_on_c, 10, 69, 0
11, 52200, Note_on_c, 10, 66, 0
11, 52200, Note_on_c, 10, 62, 0
11, 52200, Note_on_c, 10, 66, 0
11, 52200, Note_on_c, 10, 71, 75
11, 52200, Note_on_c, 10, 67, 75
11, 52200, Note_on_c, 10, 62, 75
11, 52260, Note_on_c, 10, 62, 75
11, 52260, Note_on_c, 10, 67, 75
11, 52260, Note_on_c, 10, 74, 75
11, 52320, Note_on_c, 10, 74, 0
11, 52320, Note_on_c, 10, 62, 0
11, 52320, Note_on_c, 10, 67, 0
11, 52320, Note_on_c, 10, 62, 75
11, 52320, Note_on_c, 10, 67, 75
11, 52320, Note_on_c, 10, 74, 75
11, 52380, Note_on_c, 10, 74, 0
11, 52380, Note_on_c, 10, 62, 0
11, 52380, Note_on_c, 10, 71, 0
11, 52380, Note_on_c, 10, 67, 0
11, 52380, Note_on_c, 10, 67, 0
11, 52380, Note_on_c, 10, 62, 0
11, 52380, Note_on_c, 10, 72, 75
11, 52380, Note_on_c, 10, 69, 75
11, 52380, Note_on_c, 10, 64, 75
11, 52440, Note_on_c, 10, 76, 75
11, 52440, Note_on_c, 10, 67, 75
11, 52500, Note_on_c, 10, 67, 0
11, 52500, Note_on_c, 10, 76, 0
11, 52500, Note_on_c, 10, 76, 75
11, 52500, Note_on_c, 10, 67, 75
11, 52515, Note_on_c, 10, 76, 0
11, 52515, Note_on_c, 10, 74, 75
11, 52530, Note_on_c, 10, 74, 0
11, 52530, Note_on_c, 10, 72, 75
11, 52545, Note_on_c, 10, 72, 0
11, 52545, Note_on_c, 10, 74, 75
11, 52560, Note_on_c, 10, 74, 0
11, 52560, Note_on_c, 10, 67, 0
11, 52560, Note_on_c, 10, 64, 0
11, 52560, Note_on_c, 10, 69, 0
11, 52560, Note_on_c, 10, 72, 0
11, 52560, Note_on_c, 10, 62, 75
11, 52560, Note_on_c, 10, 71, 75
11, 52620, Note_on_c, 10, 74, 75
11, 52680, Note_on_c, 10, 74, 0
11, 52680, Note_on_c, 10, 71, 75
11, 52740, Note_on_c, 10, 71, 0
11, 52740, Note_on_c, 10, 71, 0
11, 52740, Note_on_c, 10, 62, 0
11, 52740, Note_on_c, 10, 64, 75
11, 52740, Note_on_c, 10, 69, 75
11, 52740, Note_on_c, 10, 61, 75
11, 52800, Note_on_c, 10, 69, 75
11, 52860, Note_on_c, 10, 69, 0
11, 52860, Note_on_c, 10, 67, 75
11, 52920, Note_on_c, 10, 67, 0
11, 52920, Note_on_c, 10, 61, 0
11, 52920, Note_on_c, 10, 69, 0
11, 52920, Note_on_c, 10, 64, 0
11, 52920, Note_on_c, 10, 62, 75
11, 52920, Note_on_c, 10, 65, 75
11, 52920, Note_on_c, 10, 69, 75
11, 52980, Note_on_c, 10, 71, 75
11, 53040, Note_on_c, 10, 71, 0
11, 53040, Note_on_c, 10, 67, 75
11, 53100, Note_on_c, 10, 67, 0
11, 53100, Note_on_c, 10, 69, 0
11, 53100, Note_on_c, 10, 65, 0
11, 53100, Note_on_c, 10, 62, 0
11, 53100, Note_on_c, 10, 65, 75
11, 53100, Note_on_c, 10, 62, 75
11, 53100, Note_on_c, 10, 67, 75
11, 53280, Note_on_c, 10, 67, 0
11, 53280, Note_on_c, 10, 62, 0
11, 53280, Note_on_c, 10, 65, 0
11, 53280, Note_on_c, 10, 64, 75
11, 53280, Note_on_c, 10, 67, 75
11, 53460, Note_on_c, 10, 67, 0
11, 53460, Note_on_c, 10, 64, 0
11, 53460, Note_on_c, 10, 62, 75
11, 53460, Note_on_c, 10, 65, 75
11, 53640, Note_on_c, 10, 65, 0
11, 53640, Note_on_c, 10, 62, 0
11, 53640, Note_on_c, 10, 62, 75
11, 53640, Note_on_c, 10, 65, 75
11, 53820, Note_on_c, 10, 65, 0
11, 53820, Note_on_c, 10, 62, 0
11, 53820, Note_on_c, 10, 60, 75
11, 53820, Note_on_c, 10, 64, 75
11, 53820, Note_on_c, 10, 67, 75
11, 53880, Note_on_c, 10, 67, 0
11, 53880, Note_on_c, 10, 64, 0
11, 53880, Note_on_c, 10, 60, 0
11, 53880, Note_on_c, 10, 67, 75
11, 53910, Note_on_c, 10, 67, 0
11, 53910, Note_on_c, 10, 65, 75
11, 53940, Note_on_c, 10, 65, 0
11, 53940, Note_on_c, 10, 64, 75
11, 53970, Note_on_c, 10, 64, 0
11, 53970, Note_on_c, 10, 62, 75
11, 54000, Note_on_c, 10, 62, 0
11, 54000, Note_on_c, 10, 64, 75
11, 54060, Note_on_c, 10, 64, 0
11, 54060, Note_on_c, 10, 69, 75
11, 54090, Note_on_c, 10, 69, 0
11, 54090, Note_on_c, 10, 67, 75
11, 54120, Note_on_c, 10, 67, 0
11, 54120, Note_on_c, 10, 65, 75
11, 54150, Note_on_c, 10, 65, 0
11, 54150, Note_on_c, 10, 64, 75
11, 54180, Note_on_c, 10, 64, 0
11, 54180, Note_on_c, 10, 65, 75
11, 54240, Note_on_c, 10, 65, 0
11, 54240, Note_on_c, 10, 67, 75
11, 54300, Note_on_c, 10, 67, 0
11, 54300, Note_on_c, 10, 65, 75
11, 54360, Note_on_c, 10, 65, 0
11, 54360, Note_on_c, 10, 60, 75
11, 54360, Note_on_c, 10, 64, 75
11, 54540, Note_on_c, 10, 64, 0
11, 54540, Note_on_c, 10, 60, 0
11, 54720, Note_on_c, 10, 67, 75
11, 54720, Note_on_c, 10, 64, 75
11, 54720, Note_on_c, 10, 60, 75
11, 54780, Note_on_c, 10, 64, 75
11, 54780, Note_on_c, 10, 72, 75
11, 54840, Note_on_c, 10, 72, 0
11, 54840, Note_on_c, 10, 64, 0
11, 54840, Note_on_c, 10, 64, 75
11, 54840, Note_on_c, 10, 72, 75
11, 54900, Note_on_c, 10, 72, 0
11, 54900, Note_on_c, 10, 67, 0
11, 54900, Note_on_c, 10, 60, 0
11, 54900, Note_on_c, 10, 64, 0
11, 54900, Note_on_c, 10, 64, 0
11, 54900, Note_on_c, 10, 69, 75
11, 54900, Note_on_c, 10, 65, 75
11, 54900, Note_on_c, 10, 62, 75
11, 54960, Note_on_c, 10, 72, 75
11, 54960, Note_on_c, 10, 65, 75
11, 55020, Note_on_c, 10, 65, 0
11, 55020, Note_on_c, 10, 72, 0
11, 55020, Note_on_c, 10, 72, 75
11, 55020, Note_on_c, 10, 65, 75
11, 55035, Note_on_c, 10, 72, 0
11, 55035, Note_on_c, 10, 71, 75
11, 55050, Note_on_c, 10, 71, 0
11, 55050, Note_on_c, 10, 69, 75
11, 55065, Note_on_c, 10, 69, 0
11, 55065, Note_on_c, 10, 71, 75
11, 55080, Note_on_c, 10, 71, 0
11, 55080, Note_on_c, 10, 65, 0
11, 55080, Note_on_c, 10, 62, 0
11, 55080, Note_on_c, 10, 65, 0
11, 55080, Note_on_c, 10, 69, 0
11, 55080, Note_on_c, 10, 67, 75
11, 55080, Note_on_c, 10, 72, 75
11, 55080, Note_on_c, 10, 64, 75
11, 55140, Note_on_c, 10, 64, 75
11, 55140, Note_on_c, 10, 72, 75
11, 55200, Note_on_c, 10, 72, 0
11, 55200, Note_on_c, 10, 64, 0
11, 55200, Note_on_c, 10, 64, 75
11, 55200, Note_on_c, 10, 72, 75
11, 55260, Note_on_c, 10, 72, 0
11, 55260, Note_on_c, 10, 67, 0
11, 55260, Note_on_c, 10, 64, 0
11, 55260, Note_on_c, 10, 72, 0
11, 55260, Note_on_c, 10, 64, 0
11, 55260, Note_on_c, 10, 74, 75
11, 55260, Note_on_c, 10, 66, 75
11, 55260, Note_on_c, 10, 62, 75
11, 55260, Note_on_c, 10, 69, 75
11, 55320, Note_on_c, 10, 74, 0
11, 55320, Note_on_c, 10, 66, 75
11, 55320, Note_on_c, 10, 74, 75
11, 55380, Note_on_c, 10, 74, 0
11, 55380, Note_on_c, 10, 66, 0
11, 55380, Note_on_c, 10, 66, 75
11, 55380, Note_on_c, 10, 72, 75
11, 55440, Note_on_c, 10, 72, 0
11, 55440, Note_on_c, 10, 69, 0
11, 55440, Note_on_c, 10, 66, 0
11, 55440, Note_on_c, 10, 62, 0
11, 55440, Note_on_c, 10, 66, 0
11, 55440, Note_on_c, 10, 71, 75
11, 55440, Note_on_c, 10, 67, 75
11, 55440, Note_on_c, 10, 62, 75
11, 55500, Note_on_c, 10, 62, 75
11, 55500, Note_on_c, 10, 67, 75
11, 55500, Note_on_c, 10, 74, 75
11, 55560, Note_on_c, 10, 74, 0
11, 55560, Note_on_c, 10, 62, 0
11, 55560, Note_on_c, 10, 67, 0
11, 55560, Note_on_c, 10, 62, 75
11, 55560, Note_on_c, 10, 67, 75
11, 55560, Note_on_c, 10, 74, 75
11, 55620, Note_on_c, 10, 74, 0
11, 55620, Note_on_c, 10, 62, 0
11, 55620, Note_on_c, 10, 71, 0
11, 55620, Note_on_c, 10, 67, 0
11, 55620, Note_on_c, 10, 67, 0
11, 55620, Note_on_c, 10, 62, 0
11, 55620, Note_on_c, 10, 72, 75
11, 55620, Note_on_c, 10, 69, 75
11, 55620, Note_on_c, 10, 64, 75
11, 55680, Note_on_c, 10, 76, 75
11, 55680, Note_on_c, 10, 67, 75
11, 55740, Note_on_c, 10, 67, 0
11, 55740, Note_on_c, 10, 76, 0
11, 55740, Note_on_c, 10, 76, 75
11, 55740, Note_on_c, 10, 67, 75
11, 55755, Note_on_c, 10, 76, 0
11, 55755, Note_on_c, 10, 74, 75
11, 55770, Note_on_c, 10, 74, 0
11, 55770, Note_on_c, 10, 72, 75
11, 55785, Note_on_c, 10, 72, 0
11, 55785, Note_on_c, 10, 74, 75
11, 55800, Note_on_c, 10, 74, 0
11, 55800, Note_on_c, 10, 67, 0
11, 55800, Note_on_c, 10, 64, 0
11, 55800, Note_on_c, 10, 69, 0
11, 55800, Note_on_c, 10, 72, 0
11, 55800, Note_on_c, 10, 62, 75
11, 55800, Note_on_c, 10, 71, 75
11, 55860, Note_on_c, 10, 74, 75
11, 55920, Note_on_c, 10, 74, 0
11, 55920, Note_on_c, 10, 71, 75
11, 55980, Note_on_c, 10, 71, 0
11, 55980, Note_on_c, 10, 71, 0
11, 55980, Note_on_c, 10, 62, 0
11, 55980, Note_on_c, 10, 64, 75
11, 55980, Note_on_c, 10, 69, 75
11, 55980, Note_on_c, 10, 61, 75
11, 56040, Note_on_c, 10, 69, 75
11, 56100, Note_on_c, 10, 69, 0
11, 56100, Note_on_c, 10, 67, 75
11, 56160, Note_on_c, 10, 67, 0
11, 56160, Note_on_c, 10, 61, 0
11, 56160, Note_on_c, 10, 69, 0
11, 56160, Note_on_c, 10, 64, 0
11, 56160, Note_on_c, 10, 62, 75
11, 56160, Note_on_c, 10, 65, 75
11, 56160, Note_on_c, 10, 69, 75
11, 56220, Note_on_c, 10, 71, 75
11, 56280, Note_on_c, 10, 71, 0
11, 56280, Note_on_c, 10, 67, 75
11, 56340, Note_on_c, 10, 67, 0
11, 56340, Note_on_c, 10, 69, 0
11, 56340, Note_on_c, 10, 65, 0
11, 56340, Note_on_c, 10, 62, 0
11, 56340, Note_on_c, 10, 65, 75
11, 56340, Note_on_c, 10, 62, 75
11, 56340, Note_on_c, 10, 67, 75
11, 56520, Note_on_c, 10, 67, 0
11, 56520, Note_on_c, 10, 62, 0
11, 56520, Note_on_c, 10, 65, 0
11, 56520, Note_on_c, 10, 64, 75
11, 56520, Note_on_c, 10, 67, 75
11, 56700, Note_on_c, 10, 67, 0
11, 56700, Note_on_c, 10, 64, 0
11, 56700, Note_on_c, 10, 62, 75
11, 56700, Note_on_c, 10, 65, 75
11, 56880, Note_on_c, 10, 65, 0
11, 56880, Note_on_c, 10, 62, 0
11, 56880, Note_on_c, 10, 62, 75
11, 56880, Note_on_c, 10, 65, 75
11, 57060, Note_on_c, 10, 65, 0
11, 57060, Note_on_c, 10, 62, 0
11, 57060, Note_on_c, 10, 60, 75
11, 57060, Note_on_c, 10, 64, 75
11, 57060, Note_on_c, 10, 67, 75
11, 57120, Note_on_c, 10, 67, 0
11, 57120, Note_on_c, 10, 64, 0
11, 57120, Note_on_c, 10, 60, 0
11, 57120, Note_on_c, 10, 67, 75
11, 57150, Note_on_c, 10, 67, 0
11, 57150, Note_on_c, 10, 65, 75
11, 57180, Note_on_c, 10, 65, 0
11, 57180, Note_on_c, 10, 64, 75
11, 57210, Note_on_c, 10, 64, 0
11, 57210, Note_on_c, 10, 62, 75
11, 57240, Note_on_c, 10, 62, 0
11, 57240, Note_on_c, 10, 64, 75
11, 57300, Note_on_c, 10, 64, 0
11, 57300, Note_on_c, 10, 69, 75
11, 57330, Note_on_c, 10, 69, 0
11, 57330, Note_on_c, 10, 67, 75
11, 57360, Note_on_c, 10, 67, 0
11, 57360, Note_on_c, 10, 65, 75
11, 57390, Note_on_c, 10, 65, 0
11, 57390, Note_on_c, 10, 64, 75
11, 57420, Note_on_c, 10, 64, 0
11, 57420, Note_on_c, 10, 65, 75
11, 57480, Note_on_c, 10, 65, 0
11, 57480, Note_on_c, 10, 67, 75
11, 57540, Note_on_c, 10, 67, 0
11, 57540, Note_on_c, 10, 65, 75
11, 57600, Note_on_c, 10, 65, 0
11, 57600, Note_on_c, 10, 60, 75
11, 57600, Note_on_c, 10, 64, 75
11, 57660, Note_on_c, 10, 64, 75
11, 57660, Note_on_c, 10, 67, 75
11, 57720, Note_on_c, 10, 67, 0
11, 57720, Note_on_c, 10, 64, 0
11, 57720, Note_on_c, 10, 64, 75
11, 57720, Note_on_c, 10, 67, 75
11, 57780, Note_on_c, 10, 67, 0
11, 57780, Note_on_c, 10, 60, 0
11, 57780, Note_on_c, 10, 64, 0
11, 57780, Note_on_c, 10, 64, 0
11, 57780, Note_on_c, 10, 62, 75
11, 57780, Note_on_c, 10, 65, 75
11, 57840, Note_on_c, 10, 65, 75
11, 57900, Note_on_c, 10, 65, 0
11, 57900, Note_on_c, 10, 65, 75
11, 57960, Note_on_c, 10, 65, 0
11, 57960, Note_on_c, 10, 65, 0
11, 57960, Note_on_c, 10, 62, 0
11, 57960, Note_on_c, 10, 60, 75
11, 57960, Note_on_c, 10, 67, 75
11, 57960, Note_on_c, 10, 64, 75
11, 58020, Note_on_c, 10, 64, 0
11, 58020, Note_on_c, 10, 67, 0
11, 58020, Note_on_c, 10, 60, 0
11, 58140, Note_on_c, 10, 62, 75
11, 58140, Note_on_c, 10, 69, 75
11, 58200, Note_on_c, 10, 69, 0
11, 58200, Note_on_c, 10, 62, 0
11, 58320, Note_on_c, 10, 62, 75
11, 58320, Note_on_c, 10, 67, 75
11, 58380, Note_on_c, 10, 67, 0
11, 58380, Note_on_c, 10, 62, 0
11, 58500, Note_on_c, 10, 60, 75
11, 58500, Note_on_c, 10, 64, 75
11, 58500, Note_on_c, 10, 69, 75
11, 58560, Note_on_c, 10, 69, 0
11, 58560, Note_on_c, 10, 64, 0
11, 58560, Note_on_c, 10, 60, 0
11, 58680, Note_on_c, 10, 67, 75
11, 58680, Note_on_c, 10, 62, 75
11, 58680, Note_on_c, 10, 71, 75
11, 58740, Note_on_c, 10, 71, 0
11, 58740, Note_on_c, 10, 62, 0
11, 58740, Note_on_c, 10, 67, 0
11, 58860, Note_on_c, 10, 64, 75
11, 58860, Note_on_c, 10, 72, 75
11, 58860, Note_on_c, 10, 67, 75
11, 58920, Note_on_c, 10, 67, 0
11, 58920, Note_on_c, 10, 72, 0
11, 58920, Note_on_c, 10, 64, 0
11, 59040, Note_on_c, 10, 62, 75
11, 59100, Note_on_c, 10, 62, 0
11, 59100, Note_on_c, 10, 66, 75
11, 59100, Note_on_c, 10, 69, 75
11, 59160, Note_on_c, 10, 69, 0
11, 59160, Note_on_c, 10, 66, 0
11, 59160, Note_on_c, 10, 74, 75
11, 59220, Note_on_c, 10, 74, 0
11, 59220, Note_on_c, 10, 64, 75
11, 59280, Note_on_c, 10, 64, 0
11, 59280, Note_on_c, 10, 69, 75
11, 59340, Note_on_c, 10, 69, 0
11, 59340, Note_on_c, 10, 74, 75
11, 59400, Note_on_c, 10, 74, 0
11, 59400, Note_on_c, 10, 62, 75
11, 59400, Note_on_c, 10, 69, 75
11, 59400, Note_on_c, 10, 66, 75
11, 59460, Note_on_c, 10, 66, 0
11, 59460, Note_on_c, 10, 69, 0
11, 59460, Note_on_c, 10, 62, 0
11, 59520, Note_on_c, 10, 62, 75
11, 59520, Note_on_c, 10, 66, 75
11, 59520, Note_on_c, 10, 69, 75
11, 59580, Note_on_c, 10, 69, 0
11, 59580, Note_on_c, 10, 66, 0
11, 59580, Note_on_c, 10, 62, 0
11, 59580, Note_on_c, 10, 64, 75
11, 59580, Note_on_c, 10, 68, 75
11, 59640, Note_on_c, 10, 68, 0
11, 59640, Note_on_c, 10, 64, 0
11, 59700, Note_on_c, 10, 68, 75
11, 59700, Note_on_c, 10, 64, 75
11, 59700, Note_on_c, 10, 62, 75
11, 59760, Note_on_c, 10, 62, 0
11, 59760, Note_on_c, 10, 64, 0
11, 59760, Note_on_c, 10, 68, 0
11, 59760, Note_on_c, 10, 60, 75
11, 59760, Note_on_c, 10, 64, 75
11, 59760, Note_on_c, 10, 69, 75
11, 59820, Note_on_c, 10, 69, 0
11, 59820, Note_on_c, 10, 64, 0
11, 59820, Note_on_c, 10, 60, 0
11, 59940, Note_on_c, 10, 69, 75
11, 59940, Note_on_c, 10, 66, 75
11, 59940, Note_on_c, 10, 62, 75
11, 60000, Note_on_c, 10, 62, 0
11, 60000, Note_on_c, 10, 66, 0
11, 60000, Note_on_c, 10, 69, 0
11, 60120, Note_on_c, 10, 62, 65
11, 60120, Note_on_c, 10, 66, 65
11, 60239, Note_on_c, 10, 66, 0
11, 60239, Note_on_c, 10, 62, 0
11, 60300, Note_on_c, 10, 67, 65
11, 60300, Note_on_c, 10, 62, 65
11, 60419, Note_on_c, 10, 62, 0
11, 60419, Note_on_c, 10, 67, 0
11, 60480, Note_on_c, 10, 62, 65
11, 60480, Note_on_c, 10, 66, 65
11, 60599, Note_on_c, 10, 66, 0
11, 60599, Note_on_c, 10, 62, 0
11, 60660, Note_on_c, 10, 71, 65
11, 60660, Note_on_c, 10, 62, 65
11, 60660, Note_on_c, 10, 67, 65
11, 60719, Note_on_c, 10, 67, 0
11, 60719, Note_on_c, 10, 62, 0
11, 60719, Note_on_c, 10, 71, 0
11, 60720, Note_on_c, 10, 74, 65
11, 60749, Note_on_c, 10, 74, 0
11, 60750, Note_on_c, 10, 72, 65
11, 60779, Note_on_c, 10, 72, 0
11, 60780, Note_on_c, 10, 71, 65
11, 60809, Note_on_c, 10, 71, 0
11, 60810, Note_on_c, 10, 69, 65
11, 60839, Note_on_c, 10, 69, 0
11, 60840, Note_on_c, 10, 71, 65
11, 60840, Note_on_c, 10, 67, 65
11, 60899, Note_on_c, 10, 67, 0
11, 60899, Note_on_c, 10, 71, 0
11, 60900, Note_on_c, 10, 67, 65
11, 60900, Note_on_c, 10, 76, 65
11, 60929, Note_on_c, 10, 76, 0
11, 60930, Note_on_c, 10, 74, 65
11, 60959, Note_on_c, 10, 74, 0
11, 60959, Note_on_c, 10, 67, 0
11, 60960, Note_on_c, 10, 69, 65
11, 60960, Note_on_c, 10, 72, 65
11, 60989, Note_on_c, 10, 72, 0
11, 60990, Note_on_c, 10, 71, 65
11, 61019, Note_on_c, 10, 71, 0
11, 61019, Note_on_c, 10, 69, 0
11, 61020, Note_on_c, 10, 74, 65
11, 61079, Note_on_c, 10, 74, 0
11, 61080, Note_on_c, 10, 72, 65
11, 61080, Note_on_c, 10, 69, 65
11, 61139, Note_on_c, 10, 69, 0
11, 61139, Note_on_c, 10, 72, 0
11, 61140, Note_on_c, 10, 74, 65
11, 61140, Note_on_c, 10, 67, 65
11, 61155, Note_on_c, 10, 74, 0
11, 61155, Note_on_c, 10, 72, 65
11, 61170, Note_on_c, 10, 72, 0
11, 61170, Note_on_c, 10, 71, 65
11, 61185, Note_on_c, 10, 71, 0
11, 61185, Note_on_c, 10, 72, 65
11, 61199, Note_on_c, 10, 67, 0
11, 61200, Note_on_c, 10, 72, 0
11, 61200, Note_on_c, 10, 67, 65
11, 61200, Note_on_c, 10, 71, 65
11, 61200, Note_on_c, 10, 74, 65
11, 61320, Note_on_c, 10, 74, 0
11, 61320, Note_on_c, 10, 71, 0
11, 61320, Note_on_c, 10, 67, 0
11, 61380, Note_on_c, 10, 74, 65
11, 61380, Note_on_c, 10, 72, 65
11, 61380, Note_on_c, 10, 69, 65
11, 61500, Note_on_c, 10, 69, 0
11, 61500, Note_on_c, 10, 72, 0
11, 61500, Note_on_c, 10, 74, 0
11, 61560, Note_on_c, 10, 67, 65
11, 61560, Note_on_c, 10, 71, 65
11, 61560, Note_on_c, 10, 74, 65
11, 61619, Note_on_c, 10, 74, 0
11, 61619, Note_on_c, 10, 71, 0
11, 61619, Note_on_c, 10, 67, 0
11, 61740, Note_on_c, 10, 69, 65
11, 61740, Note_on_c, 10, 73, 65
11, 61740, Note_on_c, 10, 76, 65
11, 61799, Note_on_c, 10, 76, 0
11, 61799, Note_on_c, 10, 73, 0
11, 61799, Note_on_c, 10, 69, 0
11, 61920, Note_on_c, 10, 74, 65
11, 61920, Note_on_c, 10, 69, 65
11, 61920, Note_on_c, 10, 65, 65
11, 62040, Note_on_c, 10, 65, 0
11, 62040, Note_on_c, 10, 69, 0
11, 62040, Note_on_c, 10, 74, 0
11, 62040, Note_on_c, 10, 64, 65
11, 62040, Note_on_c, 10, 69, 65
11, 62099, Note_on_c, 10, 69, 0
11, 62099, Note_on_c, 10, 64, 0
11, 62100, Note_on_c, 10, 65, 65
11, 62100, Note_on_c, 10, 69, 65
11, 62100, Note_on_c, 10, 74, 65
11, 62220, Note_on_c, 10, 74, 0
11, 62220, Note_on_c, 10, 69, 0
11, 62220, Note_on_c, 10, 65, 0
11, 62220, Note_on_c, 10, 65, 65
11, 62220, Note_on_c, 10, 69, 65
11, 62220, Note_on_c, 10, 72, 65
11, 62279, Note_on_c, 10, 72, 0
11, 62279, Note_on_c, 10, 69, 0
11, 62279, Note_on_c, 10, 65, 0
11, 62280, Note_on_c, 10, 67, 65
11, 62280, Note_on_c, 10, 71, 65
11, 62280, Note_on_c, 10, 74, 65
11, 62400, Note_on_c, 10, 74, 0
11, 62400, Note_on_c, 10, 71, 0
11, 62400, Note_on_c, 10, 67, 0
11, 62460, Note_on_c, 10, 69, 65
11, 62460, Note_on_c, 10, 72, 65
11, 62460, Note_on_c, 10, 74, 65
11, 62580, Note_on_c, 10, 74, 0
11, 62580, Note_on_c, 10, 72, 0
11, 62580, Note_on_c, 10, 69, 0
11, 62640, Note_on_c, 10, 71, 65
11, 62640, Note_on_c, 10, 74, 65
11, 62760, Note_on_c, 10, 74, 0
11, 62760, Note_on_c, 10, 71, 0
11, 62820, Note_on_c, 10, 76, 65
11, 62820, Note_on_c, 10, 72, 65
11, 62940, Note_on_c, 10, 72, 0
11, 62940, Note_on_c, 10, 76, 0
11, 63000, Note_on_c, 10, 74, 65
11, 63000, Note_on_c, 10, 77, 65
11, 63120, Note_on_c, 10, 77, 0
11, 63120, Note_on_c, 10, 74, 0
11, 63180, Note_on_c, 10, 67, 65
11, 63180, Note_on_c, 10, 71, 65
11, 63300, Note_on_c, 10, 71, 0
11, 63300, Note_on_c, 10, 67, 0
11, 63360, Note_on_c, 10, 64, 65
11, 63360, Note_on_c, 10, 67, 65
11, 63480, Note_on_c, 10, 67, 0
11, 63480, Note_on_c, 10, 64, 0
11, 63540, Note_on_c, 10, 62, 65
11, 63540, Note_on_c, 10, 67, 65
11, 63660, Note_on_c, 10, 67, 0
11, 63660, Note_on_c, 10, 62, 0
11, 63720, Note_on_c, 10, 60, 65
11, 63720, Note_on_c, 10, 67, 65
11, 63840, Note_on_c, 10, 67, 0
11, 63840, Note_on_c, 10, 60, 0
11, 63900, Note_on_c, 10, 64, 65
11, 63900, Note_on_c, 10, 67, 65
11, 63959, Note_on_c, 10, 67, 0
11, 63959, Note_on_c, 10, 64, 0
11, 63960, Note_on_c, 10, 67, 65
11, 63989, Note_on_c, 10, 67, 0
11, 63990, Note_on_c, 10, 65, 65
11, 64019, Note_on_c, 10, 65, 0
11, 64020, Note_on_c, 10, 64, 65
11, 64049, Note_on_c, 10, 64, 0
11, 64050, Note_on_c, 10, 62, 65
11, 64079, Note_on_c, 10, 62, 0
11, 64080, Note_on_c, 10, 60, 65
11, 64139, Note_on_c, 10, 60, 0
11, 64140, Note_on_c, 10, 69, 65
11, 64169, Note_on_c, 10, 69, 0
11, 64170, Note_on_c, 10, 67, 65
11, 64199, Note_on_c, 10, 67, 0
11, 64200, Note_on_c, 10, 65, 65
11, 64229, Note_on_c, 10, 65, 0
11, 64230, Note_on_c, 10, 64, 65
11, 64259, Note_on_c, 10, 64, 0
11, 64260, Note_on_c, 10, 67, 65
11, 64319, Note_on_c, 10, 67, 0
11, 64320, Note_on_c, 10, 67, 65
11, 64349, Note_on_c, 10, 67, 0
11, 64350, Note_on_c, 10, 65, 65
11, 64379, Note_on_c, 10, 65, 0
11, 64380, Note_on_c, 10, 64, 65
11, 64409, Note_on_c, 10, 64, 0
11, 64410, Note_on_c, 10, 62, 65
11, 64439, Note_on_c, 10, 62, 0
11, 64440, Note_on_c, 10, 60, 65
11, 64440, Note_on_c, 10, 64, 65
11, 64619, Note_on_c, 10, 64, 0
11, 64619, Note_on_c, 10, 60, 0
11, 64620, Note_on_c, 10, 60, 65
11, 64620, Note_on_c, 10, 64, 65
11, 64740, Note_on_c, 10, 64, 0
11, 64740, Note_on_c, 10, 60, 0
11, 64800, Note_on_c, 10, 59, 65
11, 64800, Note_on_c, 10, 64, 65
11, 64920, Note_on_c, 10, 64, 0
11, 64920, Note_on_c, 10, 59, 0
11, 64980, Note_on_c, 10, 57, 65
11, 64980, Note_on_c, 10, 64, 65
11, 65100, Note_on_c, 10, 64, 0
11, 65100, Note_on_c, 10, 57, 0
11, 65160, Note_on_c, 10, 67, 65
11, 65160, Note_on_c, 10, 62, 65
11, 65280, Note_on_c, 10, 62, 0
11, 65280, Note_on_c, 10, 67, 0
11, 65340, Note_on_c, 10, 62, 65
11, 65340, Note_on_c, 10, 65, 65
11, 65460, Note_on_c, 10, 65, 0
11, 65460, Note_on_c, 10, 62, 0
11, 65520, Note_on_c, 10, 64, 65
11, 65520, Note_on_c, 10, 67, 65
11, 65640, Note_on_c, 10, 67, 0
11, 65640, Note_on_c, 10, 64, 0
11, 65700, Note_on_c, 10, 62, 65
11, 65700, Note_on_c, 10, 67, 65
11, 65820, Note_on_c, 10, 67, 0
11, 65820, Note_on_c, 10, 62, 0
11, 65880, Note_on_c, 10, 60, 65
11, 65880, Note_on_c, 10, 67, 65
11, 66000, Note_on_c, 10, 67, 0
11, 66000, Note_on_c, 10, 60, 0
11, 66000, Note_on_c, 10, 62, 65
11, 66000, Note_on_c, 10, 65, 65
11, 66059, Note_on_c, 10, 65, 0
11, 66059, Note_on_c, 10, 62, 0
11, 66060, Note_on_c, 10, 60, 65
11, 66060, Note_on_c, 10, 64, 65
11, 66060, Note_on_c, 10, 67, 65
11, 66119, Note_on_c, 10, 67, 0
11, 66119, Note_on_c, 10, 64, 0
11, 66119, Note_on_c, 10, 60, 0
11, 66120, Note_on_c, 10, 67, 65
11, 66149, Note_on_c, 10, 67, 0
11, 66150, Note_on_c, 10, 65, 65
11, 66179, Note_on_c, 10, 65, 0
11, 66180, Note_on_c, 10, 64, 65
11, 66209, Note_on_c, 10, 64, 0
11, 66210, Note_on_c, 10, 62, 65
11, 66239, Note_on_c, 10, 62, 0
11, 66240, Note_on_c, 10, 60, 65
11, 66299, Note_on_c, 10, 60, 0
11, 66300, Note_on_c, 10, 69, 65
11, 66329, Note_on_c, 10, 69, 0
11, 66330, Note_on_c, 10, 67, 65
11, 66359, Note_on_c, 10, 67, 0
11, 66360, Note_on_c, 10, 65, 65
11, 66389, Note_on_c, 10, 65, 0
11, 66390, Note_on_c, 10, 64, 65
11, 66419, Note_on_c, 10, 64, 0
11, 66420, Note_on_c, 10, 65, 65
11, 66479, Note_on_c, 10, 65, 0
11, 66480, Note_on_c, 10, 67, 65
11, 66509, Note_on_c, 10, 67, 0
11, 66510, Note_on_c, 10, 65, 65
11, 66539, Note_on_c, 10, 65, 0
11, 66540, Note_on_c, 10, 64, 65
11, 66569, Note_on_c, 10, 64, 0
11, 66570, Note_on_c, 10, 62, 65
11, 66599, Note_on_c, 10, 62, 0
11, 66600, Note_on_c, 10, 60, 65
11, 66779, Note_on_c, 10, 60, 0
11, 66960, Note_on_c, 10, 59, 65
11, 66960, Note_on_c, 10, 68, 65
11, 66960, Note_on_c, 10, 64, 65
11, 67439, Note_on_c, 10, 64, 0
11, 67439, Note_on_c, 10, 68, 0
11, 67439, Note_on_c, 10, 59, 0
11, 67440, Note_on_c, 10, 60, 65
11, 67440, Note_on_c, 10, 64, 65
11, 67440, Note_on_c, 10, 69, 65
11, 67679, Note_on_c, 10, 69, 0
11, 67679, Note_on_c, 10, 64, 0
11, 67679, Note_on_c, 10, 60, 0
11, 67680, Note_on_c, 10, 60, 65
11, 67680, Note_on_c, 10, 64, 65
11, 67680, Note_on_c, 10, 69, 65
11, 67919, Note_on_c, 10, 69, 0
11, 67919, Note_on_c, 10, 64, 0
11, 67919, Note_on_c, 10, 60, 0
11, 67920, Note_on_c, 10, 64, 65
11, 67920, Note_on_c, 10, 69, 65
11, 67920, Note_on_c, 10, 67, 65
11, 68159, Note_on_c, 10, 67, 0
11, 68159, Note_on_c, 10, 69, 0
11, 68159, Note_on_c, 10, 64, 0
11, 68160, Note_on_c, 10, 69, 65
11, 68160, Note_on_c, 10, 62, 65
11, 68160, Note_on_c, 10, 66, 65
11, 68639, Note_on_c, 10, 66, 0
11, 68639, Note_on_c, 10, 62, 0
11, 68639, Note_on_c, 10, 69, 0
11, 68640, Note_on_c, 10, 71, 65
11, 68640, Note_on_c, 10, 62, 65
11, 68640, Note_on_c, 10, 67, 65
11, 68879, Note_on_c, 10, 67, 0
11, 68879, Note_on_c, 10, 62, 0
11, 68879, Note_on_c, 10, 71, 0
11, 69300, Note_on_c, 10, 66, 65
11, 69359, Note_on_c, 10, 66, 0
11, 69360, Note_on_c, 10, 67, 65
11, 69420, Note_on_c, 10, 67, 0
11, 69420, Note_on_c, 10, 66, 65
11, 69480, Note_on_c, 10, 66, 0
11, 69480, Note_on_c, 10, 67, 65
11, 69540, Note_on_c, 10, 67, 0
11, 69540, Note_on_c, 10, 69, 65
11, 69600, Note_on_c, 10, 69, 0
11, 69600, Note_on_c, 10, 61, 65
11, 69600, Note_on_c, 10, 66, 65
11, 69720, Note_on_c, 10, 66, 0
11, 69720, Note_on_c, 10, 61, 0
11, 69780, Note_on_c, 10, 66, 65
11, 69780, Note_on_c, 10, 69, 65
11, 69840, Note_on_c, 10, 69, 0
11, 69840, Note_on_c, 10, 66, 0
11, 69840, Note_on_c, 10, 67, 65
11, 69900, Note_on_c, 10, 67, 0
11, 69900, Note_on_c, 10, 66, 65
11, 69960, Note_on_c, 10, 66, 0
11, 69960, Note_on_c, 10, 67, 65
11, 70020, Note_on_c, 10, 67, 0
11, 70020, Note_on_c, 10, 69, 65
11, 70080, Note_on_c, 10, 69, 0
11, 70080, Note_on_c, 10, 71, 65
11, 70080, Note_on_c, 10, 66, 65
11, 70200, Note_on_c, 10, 66, 0
11, 70200, Note_on_c, 10, 71, 0
11, 70260, Note_on_c, 10, 66, 65
11, 70260, Note_on_c, 10, 72, 65
11, 70320, Note_on_c, 10, 72, 0
11, 70320, Note_on_c, 10, 66, 0
11, 70320, Note_on_c, 10, 67, 65
11, 70320, Note_on_c, 10, 71, 65
11, 70440, Note_on_c, 10, 71, 0
11, 70440, Note_on_c, 10, 67, 0
11, 70440, Note_on_c, 10, 64, 65
11, 70440, Note_on_c, 10, 67, 65
11, 70440, Note_on_c, 10, 71, 65
11, 70560, Note_on_c, 10, 71, 0
11, 70560, Note_on_c, 10, 67, 0
11, 70560, Note_on_c, 10, 64, 0
11, 70560, Note_on_c, 10, 64, 65
11, 70560, Note_on_c, 10, 67, 65
11, 70680, Note_on_c, 10, 67, 0
11, 70680, Note_on_c, 10, 64, 0
11, 70680, Note_on_c, 10, 64, 65
11, 70680, Note_on_c, 10, 67, 65
11, 70800, Note_on_c, 10, 67, 0
11, 70800, Note_on_c, 10, 64, 0
11, 70800, Note_on_c, 10, 64, 65
11, 70800, Note_on_c, 10, 69, 65
11, 70859, Note_on_c, 10, 69, 0
11, 70859, Note_on_c, 10, 64, 0
11, 70860, Note_on_c, 10, 67, 65
11, 70919, Note_on_c, 10, 67, 0
11, 70920, Note_on_c, 10, 69, 65
11, 70920, Note_on_c, 10, 66, 65
11, 70979, Note_on_c, 10, 66, 0
11, 70979, Note_on_c, 10, 69, 0
11, 70980, Note_on_c, 10, 64, 65
11, 71039, Note_on_c, 10, 64, 0
11, 71040, Note_on_c, 10, 59, 65
11, 71040, Note_on_c, 10, 64, 65
11, 71279, Note_on_c, 10, 64, 0
11, 71279, Note_on_c, 10, 59, 0
11, 71280, Note_on_c, 10, 59, 65
11, 71280, Note_on_c, 10, 64, 65
11, 71280, Note_on_c, 10, 67, 65
11, 71339, Note_on_c, 10, 67, 0
11, 71340, Note_on_c, 10, 69, 65
11, 71399, Note_on_c, 10, 69, 0
11, 71400, Note_on_c, 10, 71, 65
11, 71459, Note_on_c, 10, 71, 0
11, 71460, Note_on_c, 10, 67, 65
11, 71519, Note_on_c, 10, 67, 0
11, 71520, Note_on_c, 10, 64, 0
11, 71520, Note_on_c, 10, 59, 0
11, 71520, Note_on_c, 10, 60, 65
11, 71520, Note_on_c, 10, 66, 65
11, 71579, Note_on_c, 10, 66, 0
11, 71580, Note_on_c, 10, 64, 65
11, 71639, Note_on_c, 10, 64, 0
11, 71640, Note_on_c, 10, 62, 65
11, 71699, Note_on_c, 10, 62, 0
11, 71700, Note_on_c, 10, 59, 65
11, 71759, Note_on_c, 10, 59, 0
11, 71760, Note_on_c, 10, 60, 0
11, 71760, Note_on_c, 10, 60, 65
11, 71760, Note_on_c, 10, 64, 65
11, 71819, Note_on_c, 10, 64, 0
11, 71820, Note_on_c, 10, 62, 65
11, 71879, Note_on_c, 10, 62, 0
11, 71880, Note_on_c, 10, 60, 65
11, 71939, Note_on_c, 10, 60, 0
11, 71940, Note_on_c, 10, 59, 65
11, 71999, Note_on_c, 10, 59, 0
11, 72000, Note_on_c, 10, 60, 0
11, 72000, Note_on_c, 10, 60, 65
11, 72000, Note_on_c, 10, 64, 65
11, 72059, Note_on_c, 10, 64, 0
11, 72060, Note_on_c, 10, 62, 65
11, 72119, Note_on_c, 10, 62, 0
11, 72120, Note_on_c, 10, 60, 65
11, 72179, Note_on_c, 10, 60, 0
11, 72180, Note_on_c, 10, 57, 65
11, 72239, Note_on_c, 10, 57, 0
11, 72240, Note_on_c, 10, 60, 0
11, 72240, Note_on_c, 10, 63, 65
11, 72240, Note_on_c, 10, 66, 65
11, 72240, Note_on_c, 10, 59, 65
11, 72360, Note_on_c, 10, 59, 0
11, 72360, Note_on_c, 10, 66, 0
11, 72360, Note_on_c, 10, 63, 0
11, 72480, Note_on_c, 10, 63, 65
11, 72480, Note_on_c, 10, 59, 65
11, 72480, Note_on_c, 10, 66, 65
11, 72600, Note_on_c, 10, 66, 0
11, 72600, Note_on_c, 10, 59, 0
11, 72600, Note_on_c, 10, 63, 0
11, 72720, Note_on_c, 10, 64, 65
11, 72720, Note_on_c, 10, 59, 65
11, 72720, Note_on_c, 10, 55, 65
11, 72840, Note_on_c, 10, 55, 0
11, 72840, Note_on_c, 10, 59, 0
11, 72840, Note_on_c, 10, 64, 0
11, 72960, Note_on_c, 10, 66, 65
11, 72960, Note_on_c, 10, 63, 65
11, 72960, Note_on_c, 10, 57, 65
11, 73080, Note_on_c, 10, 57, 0
11, 73080, Note_on_c, 10, 63, 0
11, 73080, Note_on_c, 10, 66, 0
11, 73200, Note_on_c, 10, 67, 65
11, 73259, Note_on_c, 10, 67, 0
11, 73260, Note_on_c, 10, 69, 65
11, 73319, Note_on_c, 10, 69, 0
11, 73320, Note_on_c, 10, 71, 65
11, 73379, Note_on_c, 10, 71, 0
11, 73380, Note_on_c, 10, 67, 65
11, 73439, Note_on_c, 10, 67, 0
11, 73440, Note_on_c, 10, 60, 65
11, 73499, Note_on_c, 10, 60, 0
11, 73500, Note_on_c, 10, 62, 65
11, 73559, Note_on_c, 10, 62, 0
11, 73560, Note_on_c, 10, 64, 65
11, 73619, Note_on_c, 10, 64, 0
11, 73620, Note_on_c, 10, 60, 65
11, 73679, Note_on_c, 10, 60, 0
11, 73680, Note_on_c, 10, 63, 65
11, 73680, Note_on_c, 10, 66, 65
11, 73739, Note_on_c, 10, 66, 0
11, 73739, Note_on_c, 10, 63, 0
11, 73740, Note_on_c, 10, 66, 65
11, 73740, Note_on_c, 10, 69, 65
11, 73799, Note_on_c, 10, 69, 0
11, 73799, Note_on_c, 10, 66, 0
11, 73800, Note_on_c, 10, 64, 65
11, 73800, Note_on_c, 10, 67, 65
11, 73859, Note_on_c, 10, 67, 0
11, 73859, Note_on_c, 10, 64, 0
11, 73860, Note_on_c, 10, 59, 65
11, 73860, Note_on_c, 10, 64, 65
11, 73919, Note_on_c, 10, 64, 0
11, 73919, Note_on_c, 10, 59, 0
11, 73920, Note_on_c, 10, 64, 65
11, 73920, Note_on_c, 10, 67, 65
11, 73979, Note_on_c, 10, 67, 0
11, 73979, Note_on_c, 10, 64, 0
11, 73980, Note_on_c, 10, 64, 65
11, 73980, Note_on_c, 10, 69, 65
11, 74039, Note_on_c, 10, 69, 0
11, 74039, Note_on_c, 10, 64, 0
11, 74040, Note_on_c, 10, 63, 65
11, 74040, Note_on_c, 10, 66, 65
11, 74099, Note_on_c, 10, 66, 0
11, 74099, Note_on_c, 10, 63, 0
11, 74100, Note_on_c, 10, 66, 65
11, 74100, Note_on_c, 10, 59, 65
11, 74100, Note_on_c, 10, 63, 65
11, 74100, Note_on_c, 10, 69, 65
11, 74159, Note_on_c, 10, 69, 0
11, 74159, Note_on_c, 10, 66, 0
11, 74159, Note_on_c, 10, 59, 0
11, 74159, Note_on_c, 10, 63, 0
11, 74160, Note_on_c, 10, 59, 65
11, 74160, Note_on_c, 10, 64, 65
11, 74160, Note_on_c, 10, 67, 65
11, 74219, Note_on_c, 10, 67, 0
11, 74220, Note_on_c, 10, 69, 65
11, 74279, Note_on_c, 10, 69, 0
11, 74280, Note_on_c, 10, 71, 65
11, 74339, Note_on_c, 10, 71, 0
11, 74340, Note_on_c, 10, 67, 65
11, 74399, Note_on_c, 10, 67, 0
11, 74400, Note_on_c, 10, 64, 0
11, 74400, Note_on_c, 10, 59, 0
11, 74400, Note_on_c, 10, 59, 65
11, 74400, Note_on_c, 10, 66, 65
11, 74459, Note_on_c, 10, 66, 0
11, 74460, Note_on_c, 10, 64, 65
11, 74519, Note_on_c, 10, 64, 0
11, 74520, Note_on_c, 10, 62, 65
11, 74579, Note_on_c, 10, 62, 0
11, 74580, Note_on_c, 10, 59, 65
11, 74639, Note_on_c, 10, 59, 0
11, 74640, Note_on_c, 10, 59, 0
11, 74640, Note_on_c, 10, 60, 65
11, 74640, Note_on_c, 10, 64, 65
11, 74699, Note_on_c, 10, 64, 0
11, 74700, Note_on_c, 10, 62, 65
11, 74759, Note_on_c, 10, 62, 0
11, 74760, Note_on_c, 10, 60, 65
11, 74819, Note_on_c, 10, 60, 0
11, 74820, Note_on_c, 10, 59, 65
11, 74879, Note_on_c, 10, 59, 0
11, 74880, Note_on_c, 10, 60, 0
11, 74880, Note_on_c, 10, 59, 65
11, 74880, Note_on_c, 10, 64, 65
11, 74939, Note_on_c, 10, 64, 0
11, 74940, Note_on_c, 10, 63, 65
11, 74999, Note_on_c, 10, 63, 0
11, 75000, Note_on_c, 10, 64, 65
11, 75059, Note_on_c, 10, 64, 0
11, 75060, Note_on_c, 10, 66, 65
11, 75060, Note_on_c, 10, 64, 65
11, 75119, Note_on_c, 10, 64, 0
11, 75119, Note_on_c, 10, 66, 0
11, 75120, Note_on_c, 10, 59, 0
11, 75120, Note_on_c, 10, 66, 65
11, 75120, Note_on_c, 10, 59, 65
11, 75120, Note_on_c, 10, 63, 65
11, 75239, Note_on_c, 10, 63, 0
11, 75239, Note_on_c, 10, 59, 0
11, 75239, Note_on_c, 10, 66, 0
11, 75360, Note_on_c, 10, 66, 65
11, 75360, Note_on_c, 10, 63, 65
11, 75360, Note_on_c, 10, 69, 65
11, 75479, Note_on_c, 10, 69, 0
11, 75479, Note_on_c, 10, 63, 0
11, 75479, Note_on_c, 10, 66, 0
11, 75600, Note_on_c, 10, 59, 65
11, 75600, Note_on_c, 10, 64, 65
11, 75600, Note_on_c, 10, 67, 65
11, 75719, Note_on_c, 10, 67, 0
11, 75719, Note_on_c, 10, 64, 0
11, 75719, Note_on_c, 10, 59, 0
11, 75840, Note_on_c, 10, 59, 65
11, 75840, Note_on_c, 10, 63, 65
11, 75840, Note_on_c, 10, 66, 65
11, 75959, Note_on_c, 10, 66, 0
11, 75959, Note_on_c, 10, 63, 0
11, 75959, Note_on_c, 10, 59, 0
11, 76080, Note_on_c, 10, 59, 65
11, 76080, Note_on_c, 10, 67, 65
11, 76080, Note_on_c, 10, 64, 65
11, 76139, Note_on_c, 10, 67, 0
11, 76140, Note_on_c, 10, 69, 65
11, 76199, Note_on_c, 10, 69, 0
11, 76200, Note_on_c, 10, 64, 0
11, 76200, Note_on_c, 10, 59, 0
11, 76200, Note_on_c, 10, 71, 65
11, 76259, Note_on_c, 10, 71, 0
11, 76260, Note_on_c, 10, 67, 65
11, 76319, Note_on_c, 10, 67, 0
11, 76320, Note_on_c, 10, 60, 65
11, 76320, Note_on_c, 10, 69, 65
11, 76320, Note_on_c, 10, 66, 65
11, 76379, Note_on_c, 10, 66, 0
11, 76380, Note_on_c, 10, 64, 65
11, 76439, Note_on_c, 10, 64, 0
11, 76440, Note_on_c, 10, 69, 0
11, 76440, Note_on_c, 10, 60, 0
11, 76440, Note_on_c, 10, 62, 65
11, 76499, Note_on_c, 10, 62, 0
11, 76500, Note_on_c, 10, 72, 65
11, 76559, Note_on_c, 10, 72, 0
11, 76560, Note_on_c, 10, 71, 65
11, 76619, Note_on_c, 10, 71, 0
11, 76620, Note_on_c, 10, 69, 65
11, 76679, Note_on_c, 10, 69, 0
11, 76680, Note_on_c, 10, 67, 65
11, 76739, Note_on_c, 10, 67, 0
11, 76740, Note_on_c, 10, 66, 65
11, 76799, Note_on_c, 10, 66, 0
11, 76800, Note_on_c, 10, 64, 65
11, 76800, Note_on_c, 10, 60, 65
11, 76800, Note_on_c, 10, 69, 65
11, 76920, Note_on_c, 10, 69, 0
11, 76920, Note_on_c, 10, 60, 0
11, 76920, Note_on_c, 10, 64, 0
11, 76920, Note_on_c, 10, 60, 65
11, 76920, Note_on_c, 10, 66, 65
11, 77040, Note_on_c, 10, 66, 0
11, 77040, Note_on_c, 10, 60, 0
11, 77040, Note_on_c, 10, 71, 65
11, 77040, Note_on_c, 10, 63, 65
11, 77040, Note_on_c, 10, 66, 65
11, 77160, Note_on_c, 10, 66, 0
11, 77160, Note_on_c, 10, 63, 0
11, 77160, Note_on_c, 10, 71, 0
11, 77280, Note_on_c, 10, 71, 65
11, 77280, Note_on_c, 10, 68, 65
11, 77280, Note_on_c, 10, 62, 65
11, 77400, Note_on_c, 10, 62, 0
11, 77400, Note_on_c, 10, 68, 0
11, 77400, Note_on_c, 10, 71, 0
11, 77400, Note_on_c, 10, 68, 65
11, 77400, Note_on_c, 10, 64, 65
11, 77400, Note_on_c, 10, 71, 65
11, 77520, Note_on_c, 10, 71, 0
11, 77520, Note_on_c, 10, 64, 0
11, 77520, Note_on_c, 10, 68, 0
11, 77520, Note_on_c, 10, 64, 65
11, 77520, Note_on_c, 10, 69, 65
11, 77520, Note_on_c, 10, 72, 65
11, 77579, Note_on_c, 10, 72, 0
11, 77580, Note_on_c, 10, 74, 65
11, 77639, Note_on_c, 10, 74, 0
11, 77640, Note_on_c, 10, 69, 0
11, 77640, Note_on_c, 10, 64, 0
11, 77640, Note_on_c, 10, 76, 65
11, 77699, Note_on_c, 10, 76, 0
11, 77700, Note_on_c, 10, 72, 65
11, 77759, Note_on_c, 10, 72, 0
11, 77760, Note_on_c, 10, 66, 65
11, 77760, Note_on_c, 10, 69, 65
11, 77760, Note_on_c, 10, 78, 65
11, 77819, Note_on_c, 10, 78, 0
11, 77820, Note_on_c, 10, 76, 65
11, 77879, Note_on_c, 10, 76, 0
11, 77880, Note_on_c, 10, 69, 0
11, 77880, Note_on_c, 10, 66, 0
11, 77880, Note_on_c, 10, 74, 65
11, 77939, Note_on_c, 10, 74, 0
11, 77940, Note_on_c, 10, 72, 65
11, 77999, Note_on_c, 10, 72, 0
11, 78000, Note_on_c, 10, 71, 65
11, 78000, Note_on_c, 10, 64, 65
11, 78000, Note_on_c, 10, 67, 65
11, 78059, Note_on_c, 10, 71, 0
11, 78060, Note_on_c, 10, 69, 65
11, 78119, Note_on_c, 10, 69, 0
11, 78120, Note_on_c, 10, 67, 0
11, 78120, Note_on_c, 10, 64, 0
11, 78120, Note_on_c, 10, 62, 65
11, 78120, Note_on_c, 10, 69, 65
11, 78120, Note_on_c, 10, 66, 65
11, 78179, Note_on_c, 10, 62, 0
11, 78180, Note_on_c, 10, 60, 65
11, 78239, Note_on_c, 10, 60, 0
11, 78240, Note_on_c, 10, 66, 0
11, 78240, Note_on_c, 10, 69, 0
11, 78240, Note_on_c, 10, 67, 65
11, 78240, Note_on_c, 10, 62, 65
11, 78240, Note_on_c, 10, 59, 65
11, 78299, Note_on_c, 10, 59, 0
11, 78300, Note_on_c, 10, 60, 65
11, 78359, Note_on_c, 10, 60, 0
11, 78360, Note_on_c, 10, 62, 0
11, 78360, Note_on_c, 10, 67, 0
11, 78360, Note_on_c, 10, 67, 65
11, 78360, Note_on_c, 10, 62, 65
11, 78419, Note_on_c, 10, 62, 0
11, 78420, Note_on_c, 10, 59, 65
11, 78479, Note_on_c, 10, 59, 0
11, 78480, Note_on_c, 10, 67, 0
11, 78480, Note_on_c, 10, 62, 65
11, 78480, Note_on_c, 10, 66, 65
11, 78600, Note_on_c, 10, 66, 0
11, 78600, Note_on_c, 10, 62, 0
11, 78600, Note_on_c, 10, 67, 65
11, 78600, Note_on_c, 10, 62, 65
11, 78720, Note_on_c, 10, 62, 0
11, 78720, Note_on_c, 10, 67, 0
11, 78720, Note_on_c, 10, 62, 65
11, 78720, Note_on_c, 10, 66, 65
11, 78840, Note_on_c, 10, 66, 0
11, 78840, Note_on_c, 10, 62, 0
11, 78840, Note_on_c, 10, 62, 65
11, 78840, Note_on_c, 10, 71, 65
11, 78840, Note_on_c, 10, 67, 65
11, 78960, Note_on_c, 10, 67, 0
11, 78960, Note_on_c, 10, 71, 0
11, 78960, Note_on_c, 10, 62, 0
11, 78960, Note_on_c, 10, 59, 65
11, 78960, Note_on_c, 10, 62, 65
11, 78960, Note_on_c, 10, 66, 65
11, 79080, Note_on_c, 10, 66, 0
11, 79080, Note_on_c, 10, 62, 0
11, 79080, Note_on_c, 10, 59, 0
11, 79080, Note_on_c, 10, 71, 65
11, 79080, Note_on_c, 10, 67, 65
11, 79140, Note_on_c, 10, 71, 0
11, 79140, Note_on_c, 10, 69, 65
11, 79200, Note_on_c, 10, 69, 0
11, 79200, Note_on_c, 10, 67, 0
11, 79200, Note_on_c, 10, 69, 65
11, 79200, Note_on_c, 10, 62, 65
11, 79200, Note_on_c, 10, 66, 65
11, 79320, Note_on_c, 10, 66, 0
11, 79320, Note_on_c, 10, 62, 0
11, 79320, Note_on_c, 10, 69, 0
11, 79320, Note_on_c, 10, 67, 65
11, 79320, Note_on_c, 10, 74, 65
11, 79320, Note_on_c, 10, 71, 65
11, 79440, Note_on_c, 10, 71, 0
11, 79440, Note_on_c, 10, 74, 0
11, 79440, Note_on_c, 10, 67, 0
11, 79440, Note_on_c, 10, 64, 65
11, 79440, Note_on_c, 10, 73, 65
11, 79440, Note_on_c, 10, 67, 65
11, 79499, Note_on_c, 10, 64, 0
11, 79500, Note_on_c, 10, 66, 65
11, 79559, Note_on_c, 10, 66, 0
11, 79560, Note_on_c, 10, 67, 0
11, 79560, Note_on_c, 10, 73, 0
11, 79560, Note_on_c, 10, 67, 65
11, 79619, Note_on_c, 10, 67, 0
11, 79620, Note_on_c, 10, 64, 65
11, 79679, Note_on_c, 10, 64, 0
11, 79680, Note_on_c, 10, 62, 65
11, 79680, Note_on_c, 10, 66, 65
11, 79800, Note_on_c, 10, 66, 0
11, 79800, Note_on_c, 10, 62, 0
11, 79800, Note_on_c, 10, 64, 65
11, 79800, Note_on_c, 10, 61, 65
11, 79890, Note_on_c, 10, 61, 0
11, 79890, Note_on_c, 10, 64, 0
11, 79890, Note_on_c, 10, 59, 65
11, 79920, Note_on_c, 10, 59, 0
11, 79920, Note_on_c, 10, 62, 65
11, 79920, Note_on_c, 10, 59, 65
11, 80040, Note_on_c, 10, 59, 0
11, 80040, Note_on_c, 10, 62, 0
11, 80040, Note_on_c, 10, 62, 65
11, 80040, Note_on_c, 10, 66, 65
11, 80160, Note_on_c, 10, 66, 0
11, 80160, Note_on_c, 10, 62, 0
11, 80160, Note_on_c, 10, 64, 65
11, 80160, Note_on_c, 10, 67, 65
11, 80219, Note_on_c, 10, 67, 0
11, 80220, Note_on_c, 10, 69, 65
11, 80279, Note_on_c, 10, 69, 0
11, 80280, Note_on_c, 10, 64, 0
11, 80280, Note_on_c, 10, 71, 65
11, 80339, Note_on_c, 10, 71, 0
11, 80340, Note_on_c, 10, 67, 65
11, 80399, Note_on_c, 10, 67, 0
11, 80400, Note_on_c, 10, 66, 65
11, 80400, Note_on_c, 10, 70, 65
11, 80519, Note_on_c, 10, 70, 0
11, 80519, Note_on_c, 10, 66, 0
11, 80580, Note_on_c, 10, 66, 65
11, 80580, Note_on_c, 10, 70, 65
11, 80639, Note_on_c, 10, 70, 0
11, 80639, Note_on_c, 10, 66, 0
11, 80640, Note_on_c, 10, 62, 65
11, 80640, Note_on_c, 10, 66, 65
11, 80640, Note_on_c, 10, 71, 65
11, 80699, Note_on_c, 10, 71, 0
11, 80699, Note_on_c, 10, 66, 0
11, 80699, Note_on_c, 10, 62, 0
11, 80700, Note_on_c, 10, 71, 65
11, 80730, Note_on_c, 10, 71, 0
11, 80730, Note_on_c, 10, 70, 65
11, 80760, Note_on_c, 10, 70, 0
11, 80760, Note_on_c, 10, 70, 65
11, 80760, Note_on_c, 10, 66, 65
11, 80819, Note_on_c, 10, 66, 0
11, 80819, Note_on_c, 10, 70, 0
11, 80820, Note_on_c, 10, 73, 65
11, 80820, Note_on_c, 10, 70, 65
11, 80820, Note_on_c, 10, 66, 65
11, 80879, Note_on_c, 10, 66, 0
11, 80879, Note_on_c, 10, 70, 0
11, 80879, Note_on_c, 10, 73, 0
11, 81840, Note_on_c, 10, 61, 65
11, 81840, Note_on_c, 10, 70, 65
11, 81840, Note_on_c, 10, 66, 65
11, 81959, Note_on_c, 10, 66, 0
11, 81959, Note_on_c, 10, 70, 0
11, 81959, Note_on_c, 10, 61, 0
11, 82080, Note_on_c, 10, 61, 65
11, 82080, Note_on_c, 10, 70, 65
11, 82080, Note_on_c, 10, 66, 65
11, 82199, Note_on_c, 10, 66, 0
11, 82199, Note_on_c, 10, 70, 0
11, 82199, Note_on_c, 10, 61, 0
11, 82320, Note_on_c, 10, 62, 65
11, 82320, Note_on_c, 10, 66, 65
11, 82320, Note_on_c, 10, 71, 65
11, 82439, Note_on_c, 10, 71, 0
11, 82439, Note_on_c, 10, 66, 0
11, 82439, Note_on_c, 10, 62, 0
11, 82560, Note_on_c, 10, 61, 65
11, 82560, Note_on_c, 10, 64, 65
11, 82560, Note_on_c, 10, 70, 65
11, 82679, Note_on_c, 10, 70, 0
11, 82679, Note_on_c, 10, 64, 0
11, 82679, Note_on_c, 10, 61, 0
11, 82800, Note_on_c, 10, 62, 65
11, 82800, Note_on_c, 10, 66, 65
11, 82859, Note_on_c, 10, 62, 0
11, 82860, Note_on_c, 10, 64, 65
11, 82919, Note_on_c, 10, 64, 0
11, 82919, Note_on_c, 10, 66, 0
11, 82920, Note_on_c, 10, 66, 65
11, 82979, Note_on_c, 10, 66, 0
11, 82980, Note_on_c, 10, 62, 65
11, 83039, Note_on_c, 10, 62, 0
11, 83040, Note_on_c, 10, 59, 65
11, 83040, Note_on_c, 10, 67, 65
11, 83040, Note_on_c, 10, 64, 65
11, 83160, Note_on_c, 10, 64, 0
11, 83160, Note_on_c, 10, 67, 0
11, 83160, Note_on_c, 10, 59, 0
11, 83160, Note_on_c, 10, 59, 65
11, 83160, Note_on_c, 10, 67, 65
11, 83160, Note_on_c, 10, 64, 65
11, 83280, Note_on_c, 10, 64, 0
11, 83280, Note_on_c, 10, 67, 0
11, 83280, Note_on_c, 10, 59, 0
11, 83280, Note_on_c, 10, 64, 65
11, 83280, Note_on_c, 10, 69, 65
11, 83280, Note_on_c, 10, 61, 65
11, 83400, Note_on_c, 10, 61, 0
11, 83400, Note_on_c, 10, 69, 0
11, 83400, Note_on_c, 10, 64, 0
11, 83400, Note_on_c, 10, 64, 65
11, 83459, Note_on_c, 10, 64, 0
11, 83460, Note_on_c, 10, 67, 65
11, 83519, Note_on_c, 10, 67, 0
11, 83520, Note_on_c, 10, 62, 65
11, 83520, Note_on_c, 10, 66, 65
11, 83579, Note_on_c, 10, 66, 0
11, 83580, Note_on_c, 10, 67, 65
11, 83639, Note_on_c, 10, 67, 0
11, 83640, Note_on_c, 10, 62, 0
11, 83640, Note_on_c, 10, 69, 65
11, 83699, Note_on_c, 10, 69, 0
11, 83700, Note_on_c, 10, 64, 65
11, 83759, Note_on_c, 10, 64, 0
11, 83760, Note_on_c, 10, 62, 65
11, 83760, Note_on_c, 10, 66, 65
11, 83819, Note_on_c, 10, 66, 0
11, 83819, Note_on_c, 10, 62, 0
11, 83820, Note_on_c, 10, 67, 65
11, 83879, Note_on_c, 10, 67, 0
11, 83880, Note_on_c, 10, 69, 65
11, 83939, Note_on_c, 10, 69, 0
11, 83940, Note_on_c, 10, 67, 65
11, 83999, Note_on_c, 10, 67, 0
11, 84000, Note_on_c, 10, 69, 65
11, 84000, Note_on_c, 10, 66, 65
11, 84000, Note_on_c, 10, 62, 65
11, 84120, Note_on_c, 10, 62, 0
11, 84120, Note_on_c, 10, 66, 0
11, 84120, Note_on_c, 10, 69, 0
11, 84120, Note_on_c, 10, 66, 65
11, 84179, Note_on_c, 10, 66, 0
11, 84180, Note_on_c, 10, 64, 65
11, 84239, Note_on_c, 10, 64, 0
11, 84240, Note_on_c, 10, 66, 65
11, 84240, Note_on_c, 10, 62, 65
11, 84480, Note_on_c, 10, 62, 0
11, 84480, Note_on_c, 10, 66, 0
11, 84480, Note_on_c, 10, 66, 65
11, 84480, Note_on_c, 10, 69, 65
11, 84600, Note_on_c, 10, 69, 0
11, 84600, Note_on_c, 10, 66, 0
11, 84600, Note_on_c, 10, 61, 65
11, 84600, Note_on_c, 10, 64, 65
11, 84689, Note_on_c, 10, 64, 0
11, 84689, Note_on_c, 10, 61, 0
11, 84690, Note_on_c, 10, 62, 65
11, 84719, Note_on_c, 10, 62, 0
11, 84720, Note_on_c, 10, 66, 65
11, 84720, Note_on_c, 10, 62, 65
11, 84960, Note_on_c, 10, 62, 0
11, 84960, Note_on_c, 10, 66, 0
11, 84960, Note_on_c, 10, 61, 65
11, 84960, Note_on_c, 10, 69, 65
11, 85080, Note_on_c, 10, 61, 0
11, 85080, Note_on_c, 10, 62, 65
11, 85200, Note_on_c, 10, 62, 0
11, 85200, Note_on_c, 10, 69, 0
11, 85200, Note_on_c, 10, 64, 65
11, 85200, Note_on_c, 10, 69, 65
11, 85200, Note_on_c, 10, 61, 65
11, 85320, Note_on_c, 10, 61, 0
11, 85320, Note_on_c, 10, 64, 0
11, 85320, Note_on_c, 10, 66, 65
11, 85320, Note_on_c, 10, 62, 65
11, 85440, Note_on_c, 10, 62, 0
11, 85440, Note_on_c, 10, 66, 0
11, 85440, Note_on_c, 10, 69, 0
11, 85440, Note_on_c, 10, 64, 65
11, 85440, Note_on_c, 10, 61, 65
11, 85440, Note_on_c, 10, 69, 65
11, 85560, Note_on_c, 10, 61, 0
11, 85560, Note_on_c, 10, 64, 0
11, 85560, Note_on_c, 10, 66, 65
11, 85560, Note_on_c, 10, 62, 65
11, 85680, Note_on_c, 10, 62, 0
11, 85680, Note_on_c, 10, 66, 0
11, 85680, Note_on_c, 10, 69, 0
11, 85680, Note_on_c, 10, 61, 65
11, 85680, Note_on_c, 10, 64, 65
11, 85680, Note_on_c, 10, 69, 65
11, 85800, Note_on_c, 10, 64, 0
11, 85800, Note_on_c, 10, 61, 0
11, 85800, Note_on_c, 10, 62, 65
11, 85800, Note_on_c, 10, 66, 65
11, 85920, Note_on_c, 10, 66, 0
11, 85920, Note_on_c, 10, 62, 0
11, 85920, Note_on_c, 10, 69, 0
11, 85920, Note_on_c, 10, 69, 65
11, 85920, Note_on_c, 10, 66, 65
11, 86040, Note_on_c, 10, 66, 0
11, 86040, Note_on_c, 10, 69, 0
11, 86100, Note_on_c, 10, 69, 65
11, 86100, Note_on_c, 10, 62, 65
11, 86100, Note_on_c, 10, 66, 65
11, 86159, Note_on_c, 10, 69, 0
11, 86160, Note_on_c, 10, 66, 0
11, 86160, Note_on_c, 10, 62, 0
11, 86160, Note_on_c, 10, 62, 65
11, 86160, Note_on_c, 10, 67, 65
11, 86160, Note_on_c, 10, 71, 65
11, 86400, Note_on_c, 10, 71, 0
11, 86400, Note_on_c, 10, 67, 0
11, 86400, Note_on_c, 10, 62, 0
11, 86400, Note_on_c, 10, 64, 65
11, 86400, Note_on_c, 10, 68, 65
11, 86400, Note_on_c, 10, 71, 65
11, 86640, Note_on_c, 10, 71, 0
11, 86640, Note_on_c, 10, 68, 0
11, 86640, Note_on_c, 10, 64, 0
11, 86640, Note_on_c, 10, 64, 65
11, 86640, Note_on_c, 10, 69, 65
11, 86640, Note_on_c, 10, 73, 65
11, 86880, Note_on_c, 10, 73, 0
11, 86880, Note_on_c, 10, 69, 0
11, 86880, Note_on_c, 10, 64, 0
11, 86880, Note_on_c, 10, 73, 65
11, 86880, Note_on_c, 10, 69, 65
11, 86880, Note_on_c, 10, 66, 65
11, 87000, Note_on_c, 10, 69, 0
11, 87000, Note_on_c, 10, 73, 0
11, 87120, Note_on_c, 10, 66, 0
11, 87120, Note_on_c, 10, 66, 65
11, 87120, Note_on_c, 10, 71, 65
11, 87120, Note_on_c, 10, 75, 65
11, 87360, Note_on_c, 10, 75, 0
11, 87360, Note_on_c, 10, 71, 0
11, 87360, Note_on_c, 10, 66, 0
11, 87360, Note_on_c, 10, 66, 65
11, 87360, Note_on_c, 10, 69, 65
11, 87360, Note_on_c, 10, 73, 65
11, 87480, Note_on_c, 10, 73, 0
11, 87480, Note_on_c, 10, 69, 0
11, 87480, Note_on_c, 10, 66, 0
11, 87480, Note_on_c, 10, 69, 65
11, 87480, Note_on_c, 10, 62, 65
11, 87480, Note_on_c, 10, 66, 65
11, 87600, Note_on_c, 10, 66, 0
11, 87600, Note_on_c, 10, 62, 0
11, 87600, Note_on_c, 10, 69, 0
11, 87600, Note_on_c, 10, 62, 65
11, 87600, Note_on_c, 10, 71, 65
11, 87600, Note_on_c, 10, 67, 65
11, 87720, Note_on_c, 10, 67, 0
11, 87720, Note_on_c, 10, 71, 0
11, 87720, Note_on_c, 10, 62, 0
11, 87720, Note_on_c, 10, 59, 65
11, 87720, Note_on_c, 10, 64, 65
11, 87720, Note_on_c, 10, 67, 65
11, 87840, Note_on_c, 10, 67, 0
11, 87840, Note_on_c, 10, 64, 0
11, 87840, Note_on_c, 10, 59, 0
11, 87840, Note_on_c, 10, 66, 65
11, 87840, Note_on_c, 10, 60, 65
11, 87840, Note_on_c, 10, 69, 65
11, 87960, Note_on_c, 10, 69, 0
11, 87960, Note_on_c, 10, 60, 0
11, 87960, Note_on_c, 10, 66, 0
11, 87960, Note_on_c, 10, 69, 65
11, 87960, Note_on_c, 10, 61, 65
11, 87960, Note_on_c, 10, 66, 65
11, 88080, Note_on_c, 10, 66, 0
11, 88080, Note_on_c, 10, 61, 0
11, 88080, Note_on_c, 10, 69, 0
11, 88080, Note_on_c, 10, 63, 65
11, 88080, Note_on_c, 10, 71, 65
11, 88080, Note_on_c, 10, 66, 65
11, 88200, Note_on_c, 10, 66, 0
11, 88200, Note_on_c, 10, 71, 0
11, 88200, Note_on_c, 10, 63, 0
11, 88320, Note_on_c, 10, 63, 65
11, 88320, Note_on_c, 10, 66, 65
11, 88320, Note_on_c, 10, 71, 65
11, 88440, Note_on_c, 10, 71, 0
11, 88440, Note_on_c, 10, 66, 0
11, 88440, Note_on_c, 10, 63, 0
11, 88560, Note_on_c, 10, 71, 65
11, 88560, Note_on_c, 10, 64, 65
11, 88560, Note_on_c, 10, 67, 65
11, 88680, Note_on_c, 10, 67, 0
11, 88680, Note_on_c, 10, 64, 0
11, 88680, Note_on_c, 10, 71, 0
11, 88800, Note_on_c, 10, 69, 65
11, 88800, Note_on_c, 10, 66, 65
11, 88800, Note_on_c, 10, 63, 65
11, 88920, Note_on_c, 10, 63, 0
11, 88920, Note_on_c, 10, 66, 0
11, 88920, Note_on_c, 10, 69, 0
11, 89040, Note_on_c, 10, 64, 65
11, 89040, Note_on_c, 10, 67, 65
11, 89099, Note_on_c, 10, 67, 0
11, 89100, Note_on_c, 10, 62, 65
11, 89159, Note_on_c, 10, 62, 0
11, 89160, Note_on_c, 10, 64, 0
11, 89160, Note_on_c, 10, 64, 65
11, 89219, Note_on_c, 10, 64, 0
11, 89220, Note_on_c, 10, 63, 65
11, 89279, Note_on_c, 10, 63, 0
11, 89280, Note_on_c, 10, 60, 65
11, 89280, Note_on_c, 10, 64, 65
11, 89280, Note_on_c, 10, 69, 65
11, 89400, Note_on_c, 10, 69, 0
11, 89400, Note_on_c, 10, 64, 0
11, 89400, Note_on_c, 10, 60, 0
11, 89400, Note_on_c, 10, 72, 65
11, 89400, Note_on_c, 10, 69, 65
11, 89520, Note_on_c, 10, 69, 0
11, 89520, Note_on_c, 10, 72, 0
11, 89520, Note_on_c, 10, 63, 65
11, 89520, Note_on_c, 10, 66, 65
11, 89520, Note_on_c, 10, 71, 65
11, 89640, Note_on_c, 10, 71, 0
11, 89640, Note_on_c, 10, 66, 0
11, 89640, Note_on_c, 10, 63, 0
11, 89640, Note_on_c, 10, 60, 65
11, 89640, Note_on_c, 10, 64, 65
11, 89640, Note_on_c, 10, 69, 65
11, 89760, Note_on_c, 10, 69, 0
11, 89760, Note_on_c, 10, 64, 0
11, 89760, Note_on_c, 10, 60, 0
11, 89760, Note_on_c, 10, 71, 65
11, 89760, Note_on_c, 10, 63, 65
11, 89760, Note_on_c, 10, 66, 65
11, 89880, Note_on_c, 10, 66, 0
11, 89880, Note_on_c, 10, 63, 0
11, 89880, Note_on_c, 10, 71, 0
11, 89880, Note_on_c, 10, 63, 65
11, 89880, Note_on_c, 10, 66, 65
11, 89880, Note_on_c, 10, 71, 65
11, 89940, Note_on_c, 10, 71, 0
11, 89940, Note_on_c, 10, 69, 65
11, 90000, Note_on_c, 10, 69, 0
11, 90000, Note_on_c, 10, 66, 0
11, 90000, Note_on_c, 10, 63, 0
11, 90000, Note_on_c, 10, 59, 65
11, 90000, Note_on_c, 10, 64, 65
11, 90000, Note_on_c, 10, 67, 65
11, 90059, Note_on_c, 10, 67, 0
11, 90060, Note_on_c, 10, 69, 65
11, 90119, Note_on_c, 10, 69, 0
11, 90120, Note_on_c, 10, 71, 65
11, 90179, Note_on_c, 10, 71, 0
11, 90180, Note_on_c, 10, 67, 65
11, 90239, Note_on_c, 10, 67, 0
11, 90240, Note_on_c, 10, 64, 0
11, 90240, Note_on_c, 10, 59, 0
11, 90240, Note_on_c, 10, 60, 65
11, 90240, Note_on_c, 10, 66, 65
11, 90299, Note_on_c, 10, 66, 0
11, 90300, Note_on_c, 10, 64, 65
11, 90359, Note_on_c, 10, 64, 0
11, 90360, Note_on_c, 10, 62, 65
11, 90419, Note_on_c, 10, 62, 0
11, 90420, Note_on_c, 10, 59, 65
11, 90479, Note_on_c, 10, 59, 0
11, 90480, Note_on_c, 10, 60, 0
11, 90480, Note_on_c, 10, 60, 65
11, 90480, Note_on_c, 10, 64, 65
11, 90539, Note_on_c, 10, 64, 0
11, 90540, Note_on_c, 10, 62, 65
11, 90599, Note_on_c, 10, 62, 0
11, 90600, Note_on_c, 10, 60, 65
11, 90659, Note_on_c, 10, 60, 0
11, 90660, Note_on_c, 10, 59, 65
11, 90719, Note_on_c, 10, 59, 0
11, 90720, Note_on_c, 10, 60, 0
11, 90720, Note_on_c, 10, 60, 65
11, 90720, Note_on_c, 10, 64, 65
11, 90779, Note_on_c, 10, 64, 0
11, 90780, Note_on_c, 10, 62, 65
11, 90839, Note_on_c, 10, 62, 0
11, 90840, Note_on_c, 10, 60, 65
11, 90899, Note_on_c, 10, 60, 0
11, 90900, Note_on_c, 10, 57, 65
11, 90959, Note_on_c, 10, 57, 0
11, 90960, Note_on_c, 10, 60, 0
11, 90960, Note_on_c, 10, 63, 65
11, 90960, Note_on_c, 10, 66, 65
11, 90960, Note_on_c, 10, 59, 65
11, 91080, Note_on_c, 10, 59, 0
11, 91080, Note_on_c, 10, 66, 0
11, 91080, Note_on_c, 10, 63, 0
11, 91200, Note_on_c, 10, 63, 65
11, 91200, Note_on_c, 10, 59, 65
11, 91200, Note_on_c, 10, 66, 65
11, 91320, Note_on_c, 10, 66, 0
11, 91320, Note_on_c, 10, 59, 0
11, 91320, Note_on_c, 10, 63, 0
11, 91440, Note_on_c, 10, 64, 65
11, 91440, Note_on_c, 10, 59, 65
11, 91440, Note_on_c, 10, 55, 65
11, 91560, Note_on_c, 10, 55, 0
11, 91560, Note_on_c, 10, 59, 0
11, 91560, Note_on_c, 10, 64, 0
11, 91680, Note_on_c, 10, 66, 65
11, 91680, Note_on_c, 10, 63, 65
11, 91680, Note_on_c, 10, 57, 65
11, 91800, Note_on_c, 10, 57, 0
11, 91800, Note_on_c, 10, 63, 0
11, 91800, Note_on_c, 10, 66, 0
11, 91920, Note_on_c, 10, 67, 65
11, 91979, Note_on_c, 10, 67, 0
11, 91980, Note_on_c, 10, 69, 65
11, 92039, Note_on_c, 10, 69, 0
11, 92040, Note_on_c, 10, 71, 65
11, 92099, Note_on_c, 10, 71, 0
11, 92100, Note_on_c, 10, 67, 65
11, 92159, Note_on_c, 10, 67, 0
11, 92160, Note_on_c, 10, 60, 65
11, 92219, Note_on_c, 10, 60, 0
11, 92220, Note_on_c, 10, 62, 65
11, 92279, Note_on_c, 10, 62, 0
11, 92280, Note_on_c, 10, 64, 65
11, 92339, Note_on_c, 10, 64, 0
11, 92340, Note_on_c, 10, 60, 65
11, 92399, Note_on_c, 10, 60, 0
11, 92400, Note_on_c, 10, 63, 65
11, 92400, Note_on_c, 10, 66, 65
11, 92459, Note_on_c, 10, 66, 0
11, 92459, Note_on_c, 10, 63, 0
11, 92460, Note_on_c, 10, 66, 65
11, 92460, Note_on_c, 10, 69, 65
11, 92519, Note_on_c, 10, 69, 0
11, 92519, Note_on_c, 10, 66, 0
11, 92520, Note_on_c, 10, 64, 65
11, 92520, Note_on_c, 10, 67, 65
11, 92579, Note_on_c, 10, 67, 0
11, 92579, Note_on_c, 10, 64, 0
11, 92580, Note_on_c, 10, 59, 65
11, 92580, Note_on_c, 10, 64, 65
11, 92639, Note_on_c, 10, 64, 0
11, 92639, Note_on_c, 10, 59, 0
11, 92640, Note_on_c, 10, 64, 65
11, 92640, Note_on_c, 10, 67, 65
11, 92699, Note_on_c, 10, 67, 0
11, 92699, Note_on_c, 10, 64, 0
11, 92700, Note_on_c, 10, 64, 65
11, 92700, Note_on_c, 10, 69, 65
11, 92759, Note_on_c, 10, 69, 0
11, 92759, Note_on_c, 10, 64, 0
11, 92760, Note_on_c, 10, 63, 65
11, 92760, Note_on_c, 10, 66, 65
11, 92819, Note_on_c, 10, 66, 0
11, 92819, Note_on_c, 10, 63, 0
11, 92820, Note_on_c, 10, 66, 65
11, 92820, Note_on_c, 10, 59, 65
11, 92820, Note_on_c, 10, 63, 65
11, 92820, Note_on_c, 10, 69, 65
11, 92879, Note_on_c, 10, 69, 0
11, 92879, Note_on_c, 10, 66, 0
11, 92879, Note_on_c, 10, 59, 0
11, 92879, Note_on_c, 10, 63, 0
11, 92880, Note_on_c, 10, 59, 65
11, 92880, Note_on_c, 10, 64, 65
11, 92880, Note_on_c, 10, 67, 65
11, 92999, Note_on_c, 10, 67, 0
11, 92999, Note_on_c, 10, 64, 0
11, 92999, Note_on_c, 10, 59, 0
11, 93360, Note_on_c, 10, 69, 65
11, 93360, Note_on_c, 10, 61, 65
11, 93360, Note_on_c, 10, 64, 65
11, 94200, Note_on_c, 10, 64, 0
11, 94200, Note_on_c, 10, 61, 0
11, 94200, Note_on_c, 10, 69, 0
11, 94200, Note_on_c, 10, 61, 65
11, 94200, Note_on_c, 10, 66, 65
11, 94320, Note_on_c, 10, 66, 0
11, 94320, Note_on_c, 10, 61, 0
11, 94320, Note_on_c, 10, 62, 65
11, 94320, Note_on_c, 10, 66, 65
11, 94560, Note_on_c, 10, 66, 0
11, 94560, Note_on_c, 10, 62, 0
11, 94560, Note_on_c, 10, 69, 65
11, 94560, Note_on_c, 10, 66, 65
11, 94560, Note_on_c, 10, 62, 65
11, 95040, Note_on_c, 10, 62, 0
11, 95040, Note_on_c, 10, 66, 0
11, 95040, Note_on_c, 10, 69, 0
11, 95040, Note_on_c, 10, 71, 65
11, 95040, Note_on_c, 10, 62, 65
11, 95040, Note_on_c, 10, 67, 65
11, 95160, Note_on_c, 10, 67, 0
11, 95160, Note_on_c, 10, 62, 0
11, 95160, Note_on_c, 10, 71, 0
11, 95220, Note_on_c, 10, 66, 65
11, 95220, Note_on_c, 10, 71, 65
11, 95280, Note_on_c, 10, 71, 0
11, 95280, Note_on_c, 10, 66, 0
11, 95280, Note_on_c, 10, 64, 65
11, 95280, Note_on_c, 10, 67, 65
11, 95280, Note_on_c, 10, 71, 65
11, 95520, Note_on_c, 10, 71, 0
11, 95520, Note_on_c, 10, 67, 0
11, 95520, Note_on_c, 10, 64, 0
11, 95520, Note_on_c, 10, 64, 65
11, 95520, Note_on_c, 10, 69, 65
11, 95520, Note_on_c, 10, 73, 65
11, 95760, Note_on_c, 10, 73, 0
11, 95760, Note_on_c, 10, 69, 0
11, 95760, Note_on_c, 10, 64, 0
11, 95760, Note_on_c, 10, 62, 65
11, 95760, Note_on_c, 10, 66, 65
11, 95760, Note_on_c, 10, 69, 65
11, 96000, Note_on_c, 10, 69, 0
11, 96000, Note_on_c, 10, 66, 0
11, 96000, Note_on_c, 10, 62, 0
11, 96000, Note_on_c, 10, 64, 65
11, 96000, Note_on_c, 10, 67, 65
11, 96120, Note_on_c, 10, 64, 0
11, 96120, Note_on_c, 10, 61, 65
11, 96240, Note_on_c, 10, 61, 0
11, 96240, Note_on_c, 10, 67, 0
11, 96240, Note_on_c, 10, 57, 65
11, 96240, Note_on_c, 10, 66, 65
11, 96240, Note_on_c, 10, 62, 65
11, 96360, Note_on_c, 10, 62, 0
11, 96360, Note_on_c, 10, 66, 0
11, 96360, Note_on_c, 10, 57, 0
11, 96360, Note_on_c, 10, 66, 65
11, 96360, Note_on_c, 10, 59, 65
11, 96360, Note_on_c, 10, 62, 65
11, 96480, Note_on_c, 10, 62, 0
11, 96480, Note_on_c, 10, 59, 0
11, 96480, Note_on_c, 10, 66, 0
11, 96480, Note_on_c, 10, 59, 65
11, 96480, Note_on_c, 10, 62, 65
11, 96480, Note_on_c, 10, 67, 65
11, 96600, Note_on_c, 10, 67, 0
11, 96600, Note_on_c, 10, 62, 0
11, 96600, Note_on_c, 10, 59, 0
11, 96600, Note_on_c, 10, 59, 65
11, 96600, Note_on_c, 10, 64, 65
11, 96600, Note_on_c, 10, 68, 65
11, 96720, Note_on_c, 10, 68, 0
11, 96720, Note_on_c, 10, 64, 0
11, 96720, Note_on_c, 10, 59, 0
11, 96720, Note_on_c, 10, 61, 65
11, 96720, Note_on_c, 10, 64, 65
11, 96720, Note_on_c, 10, 69, 65
11, 96840, Note_on_c, 10, 69, 0
11, 96840, Note_on_c, 10, 64, 0
11, 96840, Note_on_c, 10, 61, 0
11, 96840, Note_on_c, 10, 61, 65
11, 96840, Note_on_c, 10, 64, 65
11, 96960, Note_on_c, 10, 64, 0
11, 96960, Note_on_c, 10, 61, 0
11, 97020, Note_on_c, 10, 64, 65
11, 97080, Note_on_c, 10, 64, 0
11, 97080, Note_on_c, 10, 66, 65
11, 97080, Note_on_c, 10, 69, 65
11, 97199, Note_on_c, 10, 69, 0
11, 97199, Note_on_c, 10, 66, 0
11, 97200, Note_on_c, 10, 71, 65
11, 97200, Note_on_c, 10, 62, 65
11, 97319, Note_on_c, 10, 62, 0
11, 97319, Note_on_c, 10, 71, 0
11, 97320, Note_on_c, 10, 64, 65
11, 97320, Note_on_c, 10, 71, 65
11, 97439, Note_on_c, 10, 71, 0
11, 97439, Note_on_c, 10, 64, 0
11, 97440, Note_on_c, 10, 61, 65
11, 97440, Note_on_c, 10, 69, 65
11, 97440, Note_on_c, 10, 64, 65
11, 97559, Note_on_c, 10, 64, 0
11, 97559, Note_on_c, 10, 69, 0
11, 97559, Note_on_c, 10, 61, 0
11, 97560, Note_on_c, 10, 64, 65
11, 97560, Note_on_c, 10, 69, 65
11, 97619, Note_on_c, 10, 69, 0
11, 97620, Note_on_c, 10, 67, 65
11, 97679, Note_on_c, 10, 67, 0
11, 97679, Note_on_c, 10, 64, 0
11, 97680, Note_on_c, 10, 57, 65
11, 97680, Note_on_c, 10, 62, 65
11, 97680, Note_on_c, 10, 66, 65
11, 97739, Note_on_c, 10, 66, 0
11, 97740, Note_on_c, 10, 67, 65
11, 97799, Note_on_c, 10, 67, 0
11, 97799, Note_on_c, 10, 62, 0
11, 97799, Note_on_c, 10, 57, 0
11, 97800, Note_on_c, 10, 69, 65
11, 97859, Note_on_c, 10, 69, 0
11, 97860, Note_on_c, 10, 66, 65
11, 97919, Note_on_c, 10, 66, 0
11, 97920, Note_on_c, 10, 59, 65
11, 97920, Note_on_c, 10, 62, 65
11, 97979, Note_on_c, 10, 62, 0
11, 97980, Note_on_c, 10, 64, 65
11, 98039, Note_on_c, 10, 64, 0
11, 98039, Note_on_c, 10, 59, 0
11, 98040, Note_on_c, 10, 62, 65
11, 98099, Note_on_c, 10, 62, 0
11, 98100, Note_on_c, 10, 61, 65
11, 98159, Note_on_c, 10, 61, 0
11, 98160, Note_on_c, 10, 59, 65
11, 98160, Note_on_c, 10, 62, 65
11, 98160, Note_on_c, 10, 67, 65
11, 98280, Note_on_c, 10, 67, 0
11, 98280, Note_on_c, 10, 62, 0
11, 98280, Note_on_c, 10, 59, 0
11, 98280, Note_on_c, 10, 61, 65
11, 98280, Note_on_c, 10, 64, 65
11, 98310, Note_on_c, 10, 67, 65
11, 98340, Note_on_c, 10, 67, 0
11, 98340, Note_on_c, 10, 66, 65
11, 98370, Note_on_c, 10, 66, 0
11, 98370, Note_on_c, 10, 64, 65
11, 98400, Note_on_c, 10, 64, 0
11, 98400, Note_on_c, 10, 64, 0
11, 98400, Note_on_c, 10, 61, 0
11, 98400, Note_on_c, 10, 62, 65
11, 98639, Note_on_c, 10, 62, 0
11, 98820, Note_on_c, 10, 66, 65
11, 98820, Note_on_c, 10, 69, 65
11, 98820, Note_on_c, 10, 74, 65
11, 99000, Note_on_c, 10, 74, 0
11, 99000, Note_on_c, 10, 69, 0
11, 99000, Note_on_c, 10, 66, 0
11, 99000, Note_on_c, 10, 66, 65
11, 99000, Note_on_c, 10, 69, 65
11, 99000, Note_on_c, 10, 74, 65
11, 99180, Note_on_c, 10, 74, 0
11, 99180, Note_on_c, 10, 69, 0
11, 99180, Note_on_c, 10, 66, 0
11, 99180, Note_on_c, 10, 64, 65
11, 99180, Note_on_c, 10, 69, 65
11, 99180, Note_on_c, 10, 73, 65
11, 99360, Note_on_c, 10, 73, 0
11, 99360, Note_on_c, 10, 69, 0
11, 99360, Note_on_c, 10, 64, 0
11, 99360, Note_on_c, 10, 67, 65
11, 99360, Note_on_c, 10, 69, 65
11, 99360, Note_on_c, 10, 73, 65
11, 99540, Note_on_c, 10, 73, 0
11, 99540, Note_on_c, 10, 69, 0
11, 99540, Note_on_c, 10, 67, 0
11, 99540, Note_on_c, 10, 74, 65
11, 99540, Note_on_c, 10, 69, 65
11, 99540, Note_on_c, 10, 66, 65
11, 99720, Note_on_c, 10, 66, 0
11, 99720, Note_on_c, 10, 69, 0
11, 99720, Note_on_c, 10, 74, 0
11, 99720, Note_on_c, 10, 62, 65
11, 99720, Note_on_c, 10, 69, 65
11, 99720, Note_on_c, 10, 78, 65
11, 99900, Note_on_c, 10, 78, 0
11, 99900, Note_on_c, 10, 69, 0
11, 99900, Note_on_c, 10, 62, 0
11, 99900, Note_on_c, 10, 76, 65
11, 99900, Note_on_c, 10, 69, 65
11, 99900, Note_on_c, 10, 73, 65
11, 99959, Note_on_c, 10, 76, 0
11, 99960, Note_on_c, 10, 76, 65
11, 99989, Note_on_c, 10, 76, 0
11, 99990, Note_on_c, 10, 74, 65
11, 100019, Note_on_c, 10, 74, 0
11, 100020, Note_on_c, 10, 73, 65
11, 100049, Note_on_c, 10, 73, 0
11, 100050, Note_on_c, 10, 71, 65
11, 100079, Note_on_c, 10, 71, 0
11, 100080, Note_on_c, 10, 73, 0
11, 100080, Note_on_c, 10, 69, 0
11, 100080, Note_on_c, 10, 69, 65
11, 100109, Note_on_c, 10, 69, 0
11, 100110, Note_on_c, 10, 73, 65
11, 100139, Note_on_c, 10, 73, 0
11, 100140, Note_on_c, 10, 74, 65
11, 100169, Note_on_c, 10, 74, 0
11, 100170, Note_on_c, 10, 73, 65
11, 100199, Note_on_c, 10, 73, 0
11, 100200, Note_on_c, 10, 71, 65
11, 100229, Note_on_c, 10, 71, 0
11, 100230, Note_on_c, 10, 69, 65
11, 100259, Note_on_c, 10, 69, 0
11, 100260, Note_on_c, 10, 71, 65
11, 100260, Note_on_c, 10, 62, 65
11, 100260, Note_on_c, 10, 67, 65
11, 100440, Note_on_c, 10, 67, 0
11, 100440, Note_on_c, 10, 62, 0
11, 100440, Note_on_c, 10, 71, 0
11, 100440, Note_on_c, 10, 64, 65
11, 100440, Note_on_c, 10, 69, 65
11, 100440, Note_on_c, 10, 73, 65
11, 100620, Note_on_c, 10, 73, 0
11, 100620, Note_on_c, 10, 69, 0
11, 100620, Note_on_c, 10, 64, 0
11, 100620, Note_on_c, 10, 74, 65
11, 100620, Note_on_c, 10, 69, 65
11, 100620, Note_on_c, 10, 66, 65
11, 100800, Note_on_c, 10, 66, 0
11, 100800, Note_on_c, 10, 69, 0
11, 100800, Note_on_c, 10, 74, 0
11, 100800, Note_on_c, 10, 69, 65
11, 100800, Note_on_c, 10, 66, 65
11, 100800, Note_on_c, 10, 62, 65
11, 100980, Note_on_c, 10, 62, 0
11, 100980, Note_on_c, 10, 66, 0
11, 100980, Note_on_c, 10, 69, 0
11, 100980, Note_on_c, 10, 74, 65
11, 100980, Note_on_c, 10, 67, 65
11, 100980, Note_on_c, 10, 64, 65
11, 101160, Note_on_c, 10, 64, 0
11, 101160, Note_on_c, 10, 67, 0
11, 101160, Note_on_c, 10, 74, 0
11, 101160, Note_on_c, 10, 64, 65
11, 101160, Note_on_c, 10, 74, 65
11, 101160, Note_on_c, 10, 68, 65
11, 101340, Note_on_c, 10, 68, 0
11, 101340, Note_on_c, 10, 74, 0
11, 101340, Note_on_c, 10, 64, 0
11, 101340, Note_on_c, 10, 76, 65
11, 101340, Note_on_c, 10, 69, 65
11, 101340, Note_on_c, 10, 64, 65
11, 101520, Note_on_c, 10, 64, 0
11, 101520, Note_on_c, 10, 69, 0
11, 101520, Note_on_c, 10, 76, 0
11, 101520, Note_on_c, 10, 67, 65
11, 101520, Note_on_c, 10, 73, 65
11, 101520, Note_on_c, 10, 76, 65
11, 101700, Note_on_c, 10, 76, 0
11, 101700, Note_on_c, 10, 73, 0
11, 101700, Note_on_c, 10, 67, 0
11, 101700, Note_on_c, 10, 64, 65
11, 101700, Note_on_c, 10, 73, 65
11, 101700, Note_on_c, 10, 67, 65
11, 101880, Note_on_c, 10, 67, 0
11, 101880, Note_on_c, 10, 73, 0
11, 101880, Note_on_c, 10, 64, 0
11, 101880, Note_on_c, 10, 64, 65
11, 101880, Note_on_c, 10, 73, 65
11, 101880, Note_on_c, 10, 69, 65
11, 102060, Note_on_c, 10, 69, 0
11, 102060, Note_on_c, 10, 73, 0
11, 102060, Note_on_c, 10, 64, 0
11, 102060, Note_on_c, 10, 66, 65
11, 102119, Note_on_c, 10, 66, 0
11, 102120, Note_on_c, 10, 67, 65
11, 102179, Note_on_c, 10, 67, 0
11, 102180, Note_on_c, 10, 64, 65
11, 102239, Note_on_c, 10, 64, 0
11, 102240, Note_on_c, 10, 66, 65
11, 102269, Note_on_c, 10, 66, 0
11, 102270, Note_on_c, 10, 67, 65
11, 102299, Note_on_c, 10, 67, 0
11, 102300, Note_on_c, 10, 66, 65
11, 102329, Note_on_c, 10, 66, 0
11, 102330, Note_on_c, 10, 64, 65
11, 102359, Note_on_c, 10, 64, 0
11, 102360, Note_on_c, 10, 61, 65
11, 102419, Note_on_c, 10, 61, 0
11, 102420, Note_on_c, 10, 62, 65
11, 102479, Note_on_c, 10, 62, 0
11, 102480, Note_on_c, 10, 69, 65
11, 102480, Note_on_c, 10, 74, 65
11, 102510, Note_on_c, 10, 69, 0
11, 102510, Note_on_c, 10, 67, 65
11, 102539, Note_on_c, 10, 74, 0
11, 102540, Note_on_c, 10, 67, 0
11, 102540, Note_on_c, 10, 66, 65
11, 102540, Note_on_c, 10, 69, 65
11, 102570, Note_on_c, 10, 66, 0
11, 102570, Note_on_c, 10, 64, 65
11, 102599, Note_on_c, 10, 69, 0
11, 102600, Note_on_c, 10, 64, 0
11, 102600, Note_on_c, 10, 74, 65
11, 102719, Note_on_c, 10, 74, 0
11, 102780, Note_on_c, 10, 66, 65
11, 102780, Note_on_c, 10, 69, 65
11, 102780, Note_on_c, 10, 74, 65
11, 102960, Note_on_c, 10, 74, 0
11, 102960, Note_on_c, 10, 69, 0
11, 102960, Note_on_c, 10, 66, 0
11, 102960, Note_on_c, 10, 66, 65
11, 102960, Note_on_c, 10, 69, 65
11, 102960, Note_on_c, 10, 74, 65
11, 103140, Note_on_c, 10, 74, 0
11, 103140, Note_on_c, 10, 69, 0
11, 103140, Note_on_c, 10, 66, 0
11, 103140, Note_on_c, 10, 64, 65
11, 103140, Note_on_c, 10, 69, 65
11, 103140, Note_on_c, 10, 73, 65
11, 103320, Note_on_c, 10, 73, 0
11, 103320, Note_on_c, 10, 69, 0
11, 103320, Note_on_c, 10, 64, 0
11, 103320, Note_on_c, 10, 67, 65
11, 103320, Note_on_c, 10, 69, 65
11, 103320, Note_on_c, 10, 73, 65
11, 103500, Note_on_c, 10, 73, 0
11, 103500, Note_on_c, 10, 69, 0
11, 103500, Note_on_c, 10, 67, 0
11, 103500, Note_on_c, 10, 74, 65
11, 103500, Note_on_c, 10, 69, 65
11, 103500, Note_on_c, 10, 66, 65
11, 103680, Note_on_c, 10, 66, 0
11, 103680, Note_on_c, 10, 69, 0
11, 103680, Note_on_c, 10, 74, 0
11, 103680, Note_on_c, 10, 62, 65
11, 103680, Note_on_c, 10, 69, 65
11, 103680, Note_on_c, 10, 78, 65
11, 103860, Note_on_c, 10, 78, 0
11, 103860, Note_on_c, 10, 69, 0
11, 103860, Note_on_c, 10, 62, 0
11, 103860, Note_on_c, 10, 76, 65
11, 103860, Note_on_c, 10, 69, 65
11, 103860, Note_on_c, 10, 73, 65
11, 103919, Note_on_c, 10, 76, 0
11, 103920, Note_on_c, 10, 76, 65
11, 103949, Note_on_c, 10, 76, 0
11, 103950, Note_on_c, 10, 74, 65
11, 103979, Note_on_c, 10, 74, 0
11, 103980, Note_on_c, 10, 73, 65
11, 104009, Note_on_c, 10, 73, 0
11, 104010, Note_on_c, 10, 71, 65
11, 104039, Note_on_c, 10, 71, 0
11, 104040, Note_on_c, 10, 73, 0
11, 104040, Note_on_c, 10, 69, 0
11, 104040, Note_on_c, 10, 69, 65
11, 104069, Note_on_c, 10, 69, 0
11, 104070, Note_on_c, 10, 73, 65
11, 104099, Note_on_c, 10, 73, 0
11, 104100, Note_on_c, 10, 74, 65
11, 104129, Note_on_c, 10, 74, 0
11, 104130, Note_on_c, 10, 73, 65
11, 104159, Note_on_c, 10, 73, 0
11, 104160, Note_on_c, 10, 71, 65
11, 104189, Note_on_c, 10, 71, 0
11, 104190, Note_on_c, 10, 69, 65
11, 104219, Note_on_c, 10, 69, 0
11, 104220, Note_on_c, 10, 62, 75
11, 104220, Note_on_c, 10, 66, 75
11, 104220, Note_on_c, 10, 69, 75
11, 104340, Note_on_c, 10, 69, 0
11, 104340, Note_on_c, 10, 66, 0
11, 104340, Note_on_c, 10, 62, 0
11, 104400, Note_on_c, 10, 71, 65
11, 104400, Note_on_c, 10, 62, 75
11, 104400, Note_on_c, 10, 66, 75
11, 104459, Note_on_c, 10, 71, 0
11, 104460, Note_on_c, 10, 71, 65
11, 104490, Note_on_c, 10, 71, 0
11, 104490, Note_on_c, 10, 69, 65
11, 104520, Note_on_c, 10, 69, 0
11, 104520, Note_on_c, 10, 66, 0
11, 104520, Note_on_c, 10, 62, 0
11, 104520, Note_on_c, 10, 68, 65
11, 104520, Note_on_c, 10, 71, 65
11, 104579, Note_on_c, 10, 71, 0
11, 104579, Note_on_c, 10, 68, 0
11, 104580, Note_on_c, 10, 64, 75
11, 104580, Note_on_c, 10, 73, 75
11, 104580, Note_on_c, 10, 69, 75
11, 104700, Note_on_c, 10, 69, 0
11, 104700, Note_on_c, 10, 73, 0
11, 104700, Note_on_c, 10, 64, 0
11, 104760, Note_on_c, 10, 73, 65
11, 104760, Note_on_c, 10, 69, 65
11, 104760, Note_on_c, 10, 64, 65
11, 104819, Note_on_c, 10, 73, 0
11, 104820, Note_on_c, 10, 73, 65
11, 104850, Note_on_c, 10, 73, 0
11, 104850, Note_on_c, 10, 71, 65
11, 104879, Note_on_c, 10, 64, 0
11, 104879, Note_on_c, 10, 69, 0
11, 104880, Note_on_c, 10, 71, 0
11, 104880, Note_on_c, 10, 66, 65
11, 104880, Note_on_c, 10, 69, 65
11, 104880, Note_on_c, 10, 73, 65
11, 104939, Note_on_c, 10, 73, 0
11, 104939, Note_on_c, 10, 69, 0
11, 104939, Note_on_c, 10, 66, 0
11, 104940, Note_on_c, 10, 62, 65
11, 104940, Note_on_c, 10, 66, 65
11, 104940, Note_on_c, 10, 71, 65
11, 105059, Note_on_c, 10, 71, 0
11, 105059, Note_on_c, 10, 66, 0
11, 105059, Note_on_c, 10, 62, 0
11, 105120, Note_on_c, 10, 71, 65
11, 105120, Note_on_c, 10, 64, 65
11, 105120, Note_on_c, 10, 68, 65
11, 105179, Note_on_c, 10, 71, 0
11, 105180, Note_on_c, 10, 69, 65
11, 105210, Note_on_c, 10, 69, 0
11, 105210, Note_on_c, 10, 68, 65
11, 105239, Note_on_c, 10, 68, 0
11, 105239, Note_on_c, 10, 64, 0
11, 105240, Note_on_c, 10, 68, 0
11, 105240, Note_on_c, 10, 66, 65
11, 105270, Note_on_c, 10, 66, 0
11, 105270, Note_on_c, 10, 64, 65
11, 105300, Note_on_c, 10, 64, 0
11, 105300, Note_on_c, 10, 64, 65
11, 105300, Note_on_c, 10, 69, 65
11, 105300, Note_on_c, 10, 73, 65
11, 105419, Note_on_c, 10, 73, 0
11, 105419, Note_on_c, 10, 69, 0
11, 105419, Note_on_c, 10, 64, 0
11, 105420, Note_on_c, 10, 69, 65
11, 105479, Note_on_c, 10, 69, 0
11, 105480, Note_on_c, 10, 71, 65
11, 105480, Note_on_c, 10, 68, 65
11, 105480, Note_on_c, 10, 64, 65
11, 105539, Note_on_c, 10, 64, 0
11, 105539, Note_on_c, 10, 68, 0
11, 105539, Note_on_c, 10, 71, 0
11, 105540, Note_on_c, 10, 68, 65
11, 105569, Note_on_c, 10, 68, 0
11, 105570, Note_on_c, 10, 66, 65
11, 105599, Note_on_c, 10, 66, 0
11, 105600, Note_on_c, 10, 64, 65
11, 105629, Note_on_c, 10, 64, 0
11, 105630, Note_on_c, 10, 62, 65
11, 105659, Note_on_c, 10, 62, 0
11, 105660, Note_on_c, 10, 69, 65
11, 105660, Note_on_c, 10, 61, 65
11, 105660, Note_on_c, 10, 64, 65
11, 105840, Note_on_c, 10, 64, 0
11, 105840, Note_on_c, 10, 61, 0
11, 105840, Note_on_c, 10, 69, 0
11, 105840, Note_on_c, 10, 69, 65
11, 105870, Note_on_c, 10, 69, 0
11, 105870, Note_on_c, 10, 68, 65
11, 105900, Note_on_c, 10, 68, 0
11, 105900, Note_on_c, 10, 69, 65
11, 105960, Note_on_c, 10, 69, 0
11, 105960, Note_on_c, 10, 64, 65
11, 106020, Note_on_c, 10, 64, 0
11, 106020, Note_on_c, 10, 64, 65
11, 106020, Note_on_c, 10, 68, 65
11, 106020, Note_on_c, 10, 71, 65
11, 106200, Note_on_c, 10, 71, 0
11, 106200, Note_on_c, 10, 68, 0
11, 106200, Note_on_c, 10, 64, 0
11, 106200, Note_on_c, 10, 71, 65
11, 106230, Note_on_c, 10, 71, 0
11, 106230, Note_on_c, 10, 69, 65
11, 106260, Note_on_c, 10, 69, 0
11, 106260, Note_on_c, 10, 71, 65
11, 106319, Note_on_c, 10, 71, 0
11, 106320, Note_on_c, 10, 68, 65
11, 106379, Note_on_c, 10, 68, 0
11, 106380, Note_on_c, 10, 73, 65
11, 106380, Note_on_c, 10, 64, 65
11, 106380, Note_on_c, 10, 69, 65
11, 106499, Note_on_c, 10, 69, 0
11, 106499, Note_on_c, 10, 64, 0
11, 106499, Note_on_c, 10, 73, 0
11, 106500, Note_on_c, 10, 64, 65
11, 106500, Note_on_c, 10, 71, 65
11, 106500, Note_on_c, 10, 68, 65
11, 106559, Note_on_c, 10, 68, 0
11, 106559, Note_on_c, 10, 71, 0
11, 106559, Note_on_c, 10, 64, 0
11, 106560, Note_on_c, 10, 64, 65
11, 106560, Note_on_c, 10, 69, 65
11, 106679, Note_on_c, 10, 69, 0
11, 106679, Note_on_c, 10, 64, 0
11, 106680, Note_on_c, 10, 66, 65
11, 106739, Note_on_c, 10, 66, 0
11, 106740, Note_on_c, 10, 69, 65
11, 106799, Note_on_c, 10, 69, 0
11, 106800, Note_on_c, 10, 71, 65
11, 106800, Note_on_c, 10, 68, 65
11, 106859, Note_on_c, 10, 68, 0
11, 106859, Note_on_c, 10, 71, 0
11, 106860, Note_on_c, 10, 68, 65
11, 106860, Note_on_c, 10, 71, 65
11, 106860, Note_on_c, 10, 74, 65
11, 106919, Note_on_c, 10, 74, 0
11, 106919, Note_on_c, 10, 71, 0
11, 106919, Note_on_c, 10, 68, 0
11, 106920, Note_on_c, 10, 73, 65
11, 106920, Note_on_c, 10, 76, 65
11, 106920, Note_on_c, 10, 64, 65
11, 106920, Note_on_c, 10, 69, 65
11, 106979, Note_on_c, 10, 73, 0
11, 106980, Note_on_c, 10, 76, 65
11, 107009, Note_on_c, 10, 76, 0
11, 107010, Note_on_c, 10, 74, 65
11, 107039, Note_on_c, 10, 74, 0
11, 107040, Note_on_c, 10, 76, 0
11, 107040, Note_on_c, 10, 64, 0
11, 107040, Note_on_c, 10, 69, 0
11, 107040, Note_on_c, 10, 73, 65
11, 107099, Note_on_c, 10, 73, 0
11, 107100, Note_on_c, 10, 62, 65
11, 107100, Note_on_c, 10, 66, 65
11, 107100, Note_on_c, 10, 71, 65
11, 107280, Note_on_c, 10, 71, 0
11, 107280, Note_on_c, 10, 66, 0
11, 107280, Note_on_c, 10, 62, 0
11, 107280, Note_on_c, 10, 64, 65
11, 107280, Note_on_c, 10, 68, 65
11, 107280, Note_on_c, 10, 71, 65
11, 107460, Note_on_c, 10, 71, 0
11, 107460, Note_on_c, 10, 68, 0
11, 107460, Note_on_c, 10, 64, 0
11, 107460, Note_on_c, 10, 61, 65
11, 107460, Note_on_c, 10, 64, 65
11, 107460, Note_on_c, 10, 69, 65
11, 107640, Note_on_c, 10, 69, 0
11, 107640, Note_on_c, 10, 64, 0
11, 107640, Note_on_c, 10, 61, 0
11, 107640, Note_on_c, 10, 61, 65
11, 107640, Note_on_c, 10, 64, 65
11, 107640, Note_on_c, 10, 69, 65
11, 107820, Note_on_c, 10, 69, 0
11, 107820, Note_on_c, 10, 64, 0
11, 107820, Note_on_c, 10, 61, 0
11, 107820, Note_on_c, 10, 69, 65
11, 107820, Note_on_c, 10, 66, 65
11, 107820, Note_on_c, 10, 62, 65
11, 108000, Note_on_c, 10, 62, 0
11, 108000, Note_on_c, 10, 66, 0
11, 108000, Note_on_c, 10, 69, 0
11, 108000, Note_on_c, 10, 71, 65
11, 108000, Note_on_c, 10, 66, 65
11, 108000, Note_on_c, 10, 63, 65
11, 108180, Note_on_c, 10, 63, 0
11, 108180, Note_on_c, 10, 66, 0
11, 108180, Note_on_c, 10, 71, 0
11, 108180, Note_on_c, 10, 71, 65
11, 108180, Note_on_c, 10, 68, 65
11, 108180, Note_on_c, 10, 64, 65
11, 108360, Note_on_c, 10, 64, 0
11, 108360, Note_on_c, 10, 68, 0
11, 108360, Note_on_c, 10, 71, 0
11, 108360, Note_on_c, 10, 71, 65
11, 108360, Note_on_c, 10, 68, 65
11, 108360, Note_on_c, 10, 64, 65
11, 108540, Note_on_c, 10, 64, 0
11, 108540, Note_on_c, 10, 68, 0
11, 108540, Note_on_c, 10, 71, 0
11, 108540, Note_on_c, 10, 68, 65
11, 108540, Note_on_c, 10, 64, 65
11, 108540, Note_on_c, 10, 62, 65
11, 108720, Note_on_c, 10, 62, 0
11, 108720, Note_on_c, 10, 64, 0
11, 108720, Note_on_c, 10, 68, 0
11, 108720, Note_on_c, 10, 64, 65
11, 108720, Note_on_c, 10, 71, 65
11, 108720, Note_on_c, 10, 68, 65
11, 108900, Note_on_c, 10, 68, 0
11, 108900, Note_on_c, 10, 71, 0
11, 108900, Note_on_c, 10, 64, 0
11, 108900, Note_on_c, 10, 61, 65
11, 108900, Note_on_c, 10, 69, 65
11, 108900, Note_on_c, 10, 64, 65
11, 109080, Note_on_c, 10, 64, 0
11, 109080, Note_on_c, 10, 69, 0
11, 109080, Note_on_c, 10, 61, 0
11, 109080, Note_on_c, 10, 76, 65
11, 109109, Note_on_c, 10, 76, 0
11, 109110, Note_on_c, 10, 74, 65
11, 109139, Note_on_c, 10, 74, 0
11, 109140, Note_on_c, 10, 73, 65
11, 109169, Note_on_c, 10, 73, 0
11, 109170, Note_on_c, 10, 71, 65
11, 109199, Note_on_c, 10, 71, 0
11, 109200, Note_on_c, 10, 64, 65
11, 109200, Note_on_c, 10, 71, 65
11, 109200, Note_on_c, 10, 68, 65
11, 109260, Note_on_c, 10, 68, 0
11, 109260, Note_on_c, 10, 71, 0
11, 109260, Note_on_c, 10, 64, 0
11, 109260, Note_on_c, 10, 61, 65
11, 109260, Note_on_c, 10, 64, 65
11, 109260, Note_on_c, 10, 69, 65
11, 109440, Note_on_c, 10, 69, 0
11, 109440, Note_on_c, 10, 64, 0
11, 109440, Note_on_c, 10, 61, 0
11, 109440, Note_on_c, 10, 64, 65
11, 109440, Note_on_c, 10, 69, 65
11, 109440, Note_on_c, 10, 73, 65
11, 109620, Note_on_c, 10, 73, 0
11, 109620, Note_on_c, 10, 69, 0
11, 109620, Note_on_c, 10, 64, 0
11, 109620, Note_on_c, 10, 66, 65
11, 109620, Note_on_c, 10, 62, 65
11, 109679, Note_on_c, 10, 62, 0
11, 109679, Note_on_c, 10, 66, 0
11, 109680, Note_on_c, 10, 64, 65
11, 109709, Note_on_c, 10, 64, 0
11, 109710, Note_on_c, 10, 62, 65
11, 109739, Note_on_c, 10, 62, 0
11, 109740, Note_on_c, 10, 64, 65
11, 109769, Note_on_c, 10, 64, 0
11, 109770, Note_on_c, 10, 61, 65
11, 109799, Note_on_c, 10, 61, 0
11, 109800, Note_on_c, 10, 69, 65
11, 109800, Note_on_c, 10, 66, 65
11, 109800, Note_on_c, 10, 62, 65
11, 109980, Note_on_c, 10, 62, 0
11, 109980, Note_on_c, 10, 66, 0
11, 109980, Note_on_c, 10, 69, 0
11, 109980, Note_on_c, 10, 71, 65
11, 109980, Note_on_c, 10, 67, 65
11, 110039, Note_on_c, 10, 67, 0
11, 110039, Note_on_c, 10, 71, 0
11, 110040, Note_on_c, 10, 69, 65
11, 110069, Note_on_c, 10, 69, 0
11, 110070, Note_on_c, 10, 67, 65
11, 110099, Note_on_c, 10, 67, 0
11, 110100, Note_on_c, 10, 69, 65
11, 110129, Note_on_c, 10, 69, 0
11, 110130, Note_on_c, 10, 66, 65
11, 110159, Note_on_c, 10, 66, 0
11, 110160, Note_on_c, 10, 62, 65
11, 110160, Note_on_c, 10, 67, 65
11, 110160, Note_on_c, 10, 71, 65
11, 110340, Note_on_c, 10, 71, 0
11, 110340, Note_on_c, 10, 67, 0
11, 110340, Note_on_c, 10, 62, 0
11, 110340, Note_on_c, 10, 59, 65
11, 110340, Note_on_c, 10, 64, 65
11, 110340, Note_on_c, 10, 67, 65
11, 110460, Note_on_c, 10, 67, 0
11, 110460, Note_on_c, 10, 64, 0
11, 110460, Note_on_c, 10, 59, 0
11, 110460, Note_on_c, 10, 64, 65
11, 110460, Note_on_c, 10, 67, 65
11, 110460, Note_on_c, 10, 71, 65
11, 110520, Note_on_c, 10, 71, 0
11, 110520, Note_on_c, 10, 67, 0
11, 110520, Note_on_c, 10, 64, 0
11, 110520, Note_on_c, 10, 64, 65
11, 110520, Note_on_c, 10, 67, 65
11, 110520, Note_on_c, 10, 71, 65
11, 110640, Note_on_c, 10, 71, 0
11, 110640, Note_on_c, 10, 67, 0
11, 110640, Note_on_c, 10, 64, 0
11, 110640, Note_on_c, 10, 76, 65
11, 110640, Note_on_c, 10, 67, 65
11, 110640, Note_on_c, 10, 71, 65
11, 110700, Note_on_c, 10, 71, 0
11, 110700, Note_on_c, 10, 67, 0
11, 110700, Note_on_c, 10, 76, 0
11, 110700, Note_on_c, 10, 71, 65
11, 110700, Note_on_c, 10, 66, 65
11, 110700, Note_on_c, 10, 74, 65
11, 110759, Note_on_c, 10, 74, 0
11, 110759, Note_on_c, 10, 66, 0
11, 110759, Note_on_c, 10, 71, 0
11, 110760, Note_on_c, 10, 73, 65
11, 110819, Note_on_c, 10, 73, 0
11, 110820, Note_on_c, 10, 68, 65
11, 110820, Note_on_c, 10, 64, 65
11, 110879, Note_on_c, 10, 64, 0
11, 110879, Note_on_c, 10, 68, 0
11, 110880, Note_on_c, 10, 64, 65
11, 110880, Note_on_c, 10, 69, 65
11, 110880, Note_on_c, 10, 73, 65
11, 111000, Note_on_c, 10, 73, 0
11, 111000, Note_on_c, 10, 69, 0
11, 111000, Note_on_c, 10, 64, 0
11, 111060, Note_on_c, 10, 69, 65
11, 111060, Note_on_c, 10, 66, 65
11, 111060, Note_on_c, 10, 62, 65
11, 111240, Note_on_c, 10, 62, 0
11, 111240, Note_on_c, 10, 66, 0
11, 111240, Note_on_c, 10, 69, 0
11, 111240, Note_on_c, 10, 69, 65
11, 111240, Note_on_c, 10, 66, 65
11, 111240, Note_on_c, 10, 62, 65
11, 111420, Note_on_c, 10, 62, 0
11, 111420, Note_on_c, 10, 66, 0
11, 111420, Note_on_c, 10, 69, 0
11, 111420, Note_on_c, 10, 61, 65
11, 111420, Note_on_c, 10, 69, 65
11, 111420, Note_on_c, 10, 64, 65
11, 111600, Note_on_c, 10, 64, 0
11, 111600, Note_on_c, 10, 69, 0
11, 111600, Note_on_c, 10, 61, 0
11, 111600, Note_on_c, 10, 73, 65
11, 111600, Note_on_c, 10, 69, 65
11, 111600, Note_on_c, 10, 64, 65
11, 111780, Note_on_c, 10, 64, 0
11, 111780, Note_on_c, 10, 69, 0
11, 111780, Note_on_c, 10, 73, 0
11, 111780, Note_on_c, 10, 74, 65
11, 111780, Note_on_c, 10, 66, 65
11, 111780, Note_on_c, 10, 69, 65
11, 111899, Note_on_c, 10, 69, 0
11, 111899, Note_on_c, 10, 66, 0
11, 111899, Note_on_c, 10, 74, 0
11, 111900, Note_on_c, 10, 64, 65
11, 111900, Note_on_c, 10, 69, 65
11, 111900, Note_on_c, 10, 73, 65
11, 111959, Note_on_c, 10, 73, 0
11, 111959, Note_on_c, 10, 69, 0
11, 111959, Note_on_c, 10, 64, 0
11, 111960, Note_on_c, 10, 69, 65
11, 111960, Note_on_c, 10, 66, 65
11, 112079, Note_on_c, 10, 66, 0
11, 112079, Note_on_c, 10, 69, 0
11, 112080, Note_on_c, 10, 64, 65
11, 112080, Note_on_c, 10, 67, 65
11, 112139, Note_on_c, 10, 67, 0
11, 112139, Note_on_c, 10, 64, 0
11, 112140, Note_on_c, 10, 66, 65
11, 112199, Note_on_c, 10, 66, 0
11, 112200, Note_on_c, 10, 66, 65
11, 112200, Note_on_c, 10, 62, 65
11, 112259, Note_on_c, 10, 62, 0
11, 112259, Note_on_c, 10, 66, 0
11, 112260, Note_on_c, 10, 67, 65
11, 112260, Note_on_c, 10, 64, 65
11, 112319, Note_on_c, 10, 64, 0
11, 112319, Note_on_c, 10, 67, 0
11, 112320, Note_on_c, 10, 62, 65
11, 112320, Note_on_c, 10, 66, 65
11, 112440, Note_on_c, 10, 66, 0
11, 112440, Note_on_c, 10, 62, 0
11, 112500, Note_on_c, 10, 66, 65
11, 112500, Note_on_c, 10, 69, 65
11, 112500, Note_on_c, 10, 74, 65
11, 112680, Note_on_c, 10, 74, 0
11, 112680, Note_on_c, 10, 69, 0
11, 112680, Note_on_c, 10, 66, 0
11, 112680, Note_on_c, 10, 66, 65
11, 112680, Note_on_c, 10, 69, 65
11, 112680, Note_on_c, 10, 74, 65
11, 112860, Note_on_c, 10, 74, 0
11, 112860, Note_on_c, 10, 69, 0
11, 112860, Note_on_c, 10, 66, 0
11, 112860, Note_on_c, 10, 64, 65
11, 112860, Note_on_c, 10, 69, 65
11, 112860, Note_on_c, 10, 73, 65
11, 113040, Note_on_c, 10, 73, 0
11, 113040, Note_on_c, 10, 69, 0
11, 113040, Note_on_c, 10, 64, 0
11, 113040, Note_on_c, 10, 67, 65
11, 113040, Note_on_c, 10, 69, 65
11, 113040, Note_on_c, 10, 73, 65
11, 113220, Note_on_c, 10, 73, 0
11, 113220, Note_on_c, 10, 69, 0
11, 113220, Note_on_c, 10, 67, 0
11, 113220, Note_on_c, 10, 74, 65
11, 113220, Note_on_c, 10, 69, 65
11, 113220, Note_on_c, 10, 66, 65
11, 113400, Note_on_c, 10, 66, 0
11, 113400, Note_on_c, 10, 69, 0
11, 113400, Note_on_c, 10, 74, 0
11, 113400, Note_on_c, 10, 62, 65
11, 113400, Note_on_c, 10, 69, 65
11, 113400, Note_on_c, 10, 78, 65
11, 113580, Note_on_c, 10, 78, 0
11, 113580, Note_on_c, 10, 69, 0
11, 113580, Note_on_c, 10, 62, 0
11, 113580, Note_on_c, 10, 76, 65
11, 113580, Note_on_c, 10, 69, 65
11, 113580, Note_on_c, 10, 73, 65
11, 113639, Note_on_c, 10, 76, 0
11, 113640, Note_on_c, 10, 76, 65
11, 113669, Note_on_c, 10, 76, 0
11, 113670, Note_on_c, 10, 74, 65
11, 113699, Note_on_c, 10, 74, 0
11, 113700, Note_on_c, 10, 73, 65
11, 113729, Note_on_c, 10, 73, 0
11, 113730, Note_on_c, 10, 71, 65
11, 113759, Note_on_c, 10, 71, 0
11, 113760, Note_on_c, 10, 73, 0
11, 113760, Note_on_c, 10, 69, 0
11, 113760, Note_on_c, 10, 69, 65
11, 113789, Note_on_c, 10, 69, 0
11, 113790, Note_on_c, 10, 73, 65
11, 113819, Note_on_c, 10, 73, 0
11, 113820, Note_on_c, 10, 74, 65
11, 113849, Note_on_c, 10, 74, 0
11, 113850, Note_on_c, 10, 73, 65
11, 113879, Note_on_c, 10, 73, 0
11, 113880, Note_on_c, 10, 71, 65
11, 113909, Note_on_c, 10, 71, 0
11, 113910, Note_on_c, 10, 69, 65
11, 113939, Note_on_c, 10, 69, 0
11, 113940, Note_on_c, 10, 71, 65
11, 113940, Note_on_c, 10, 62, 65
11, 113940, Note_on_c, 10, 67, 65
11, 114120, Note_on_c, 10, 67, 0
11, 114120, Note_on_c, 10, 62, 0
11, 114120, Note_on_c, 10, 71, 0
11, 114120, Note_on_c, 10, 64, 65
11, 114120, Note_on_c, 10, 69, 65
11, 114120, Note_on_c, 10, 73, 65
11, 114300, Note_on_c, 10, 73, 0
11, 114300, Note_on_c, 10, 69, 0
11, 114300, Note_on_c, 10, 64, 0
11, 114300, Note_on_c, 10, 74, 65
11, 114300, Note_on_c, 10, 69, 65
11, 114300, Note_on_c, 10, 66, 65
11, 114480, Note_on_c, 10, 66, 0
11, 114480, Note_on_c, 10, 69, 0
11, 114480, Note_on_c, 10, 74, 0
11, 114480, Note_on_c, 10, 69, 65
11, 114480, Note_on_c, 10, 66, 65
11, 114480, Note_on_c, 10, 62, 65
11, 114660, Note_on_c, 10, 62, 0
11, 114660, Note_on_c, 10, 66, 0
11, 114660, Note_on_c, 10, 69, 0
11, 114660, Note_on_c, 10, 74, 65
11, 114660, Note_on_c, 10, 67, 65
11, 114660, Note_on_c, 10, 64, 65
11, 114840, Note_on_c, 10, 64, 0
11, 114840, Note_on_c, 10, 67, 0
11, 114840, Note_on_c, 10, 74, 0
11, 114840, Note_on_c, 10, 64, 65
11, 114840, Note_on_c, 10, 74, 65
11, 114840, Note_on_c, 10, 68, 65
11, 115020, Note_on_c, 10, 68, 0
11, 115020, Note_on_c, 10, 74, 0
11, 115020, Note_on_c, 10, 64, 0
11, 115020, Note_on_c, 10, 76, 65
11, 115020, Note_on_c, 10, 69, 65
11, 115020, Note_on_c, 10, 64, 65
11, 115200, Note_on_c, 10, 64, 0
11, 115200, Note_on_c, 10, 69, 0
11, 115200, Note_on_c, 10, 76, 0
11, 115200, Note_on_c, 10, 67, 65
11, 115200, Note_on_c, 10, 73, 65
11, 115200, Note_on_c, 10, 76, 65
11, 115380, Note_on_c, 10, 76, 0
11, 115380, Note_on_c, 10, 73, 0
11, 115380, Note_on_c, 10, 67, 0
11, 115380, Note_on_c, 10, 64, 65
11, 115380, Note_on_c, 10, 73, 65
11, 115380, Note_on_c, 10, 67, 65
11, 115560, Note_on_c, 10, 67, 0
11, 115560, Note_on_c, 10, 73, 0
11, 115560, Note_on_c, 10, 64, 0
11, 115560, Note_on_c, 10, 64, 65
11, 115560, Note_on_c, 10, 73, 65
11, 115560, Note_on_c, 10, 69, 65
11, 115740, Note_on_c, 10, 69, 0
11, 115740, Note_on_c, 10, 73, 0
11, 115740, Note_on_c, 10, 64, 0
11, 115740, Note_on_c, 10, 66, 65
11, 115799, Note_on_c, 10, 66, 0
11, 115800, Note_on_c, 10, 67, 65
11, 115859, Note_on_c, 10, 67, 0
11, 115860, Note_on_c, 10, 64, 65
11, 115919, Note_on_c, 10, 64, 0
11, 115920, Note_on_c, 10, 66, 65
11, 115949, Note_on_c, 10, 66, 0
11, 115950, Note_on_c, 10, 67, 65
11, 115979, Note_on_c, 10, 67, 0
11, 115980, Note_on_c, 10, 66, 65
11, 116009, Note_on_c, 10, 66, 0
11, 116010, Note_on_c, 10, 64, 65
11, 116039, Note_on_c, 10, 64, 0
11, 116040, Note_on_c, 10, 61, 65
11, 116099, Note_on_c, 10, 61, 0
11, 116100, Note_on_c, 10, 62, 65
11, 116159, Note_on_c, 10, 62, 0
11, 116160, Note_on_c, 10, 69, 65
11, 116160, Note_on_c, 10, 74, 65
11, 116190, Note_on_c, 10, 69, 0
11, 116190, Note_on_c, 10, 67, 65
11, 116219, Note_on_c, 10, 74, 0
11, 116220, Note_on_c, 10, 67, 0
11, 116220, Note_on_c, 10, 66, 65
11, 116220, Note_on_c, 10, 69, 65
11, 116250, Note_on_c, 10, 66, 0
11, 116250, Note_on_c, 10, 64, 65
11, 116279, Note_on_c, 10, 69, 0
11, 116280, Note_on_c, 10, 64, 0
11, 116280, Note_on_c, 10, 62, 65
11, 116399, Note_on_c, 10, 62, 0
11, 116400, Note_on_c, 10, 70, 65
11, 116400, Note_on_c, 10, 66, 65
11, 116400, Note_on_c, 10, 73, 65
11, 116459, Note_on_c, 10, 73, 0
11, 116459, Note_on_c, 10, 66, 0
11, 116459, Note_on_c, 10, 70, 0
11, 116460, Note_on_c, 10, 66, 65
11, 116460, Note_on_c, 10, 74, 65
11, 116460, Note_on_c, 10, 71, 65
11, 116640, Note_on_c, 10, 71, 0
11, 116640, Note_on_c, 10, 74, 0
11, 116640, Note_on_c, 10, 66, 0
11, 116640, Note_on_c, 10, 66, 65
11, 116640, Note_on_c, 10, 71, 65
11, 116640, Note_on_c, 10, 74, 65
11, 116699, Note_on_c, 10, 74, 0
11, 116699, Note_on_c, 10, 71, 0
11, 116699, Note_on_c, 10, 66, 0
11, 116700, Note_on_c, 10, 76, 65
11, 116730, Note_on_c, 10, 76, 0
11, 116730, Note_on_c, 10, 74, 65
11, 116760, Note_on_c, 10, 74, 0
11, 116760, Note_on_c, 10, 73, 65
11, 116790, Note_on_c, 10, 73, 0
11, 116790, Note_on_c, 10, 71, 65
11, 116820, Note_on_c, 10, 71, 0
11, 116820, Note_on_c, 10, 64, 65
11, 116820, Note_on_c, 10, 69, 65
11, 116820, Note_on_c, 10, 73, 65
11, 117000, Note_on_c, 10, 73, 0
11, 117000, Note_on_c, 10, 69, 0
11, 117000, Note_on_c, 10, 64, 0
11, 117000, Note_on_c, 10, 64, 65
11, 117000, Note_on_c, 10, 69, 65
11, 117000, Note_on_c, 10, 73, 65
11, 117059, Note_on_c, 10, 73, 0
11, 117059, Note_on_c, 10, 69, 0
11, 117059, Note_on_c, 10, 64, 0
11, 117060, Note_on_c, 10, 69, 65
11, 117089, Note_on_c, 10, 69, 0
11, 117090, Note_on_c, 10, 68, 65
11, 117119, Note_on_c, 10, 68, 0
11, 117120, Note_on_c, 10, 66, 65
11, 117149, Note_on_c, 10, 66, 0
11, 117150, Note_on_c, 10, 64, 65
11, 117179, Note_on_c, 10, 64, 0
11, 117180, Note_on_c, 10, 62, 65
11, 117180, Note_on_c, 10, 66, 65
11, 117180, Note_on_c, 10, 71, 65
11, 117300, Note_on_c, 10, 71, 0
11, 117300, Note_on_c, 10, 66, 0
11, 117300, Note_on_c, 10, 62, 0
11, 117300, Note_on_c, 10, 68, 65
11, 117300, Note_on_c, 10, 64, 65
11, 117359, Note_on_c, 10, 64, 0
11, 117359, Note_on_c, 10, 68, 0
11, 117360, Note_on_c, 10, 64, 65
11, 117360, Note_on_c, 10, 73, 65
11, 117360, Note_on_c, 10, 69, 65
11, 117480, Note_on_c, 10, 69, 0
11, 117480, Note_on_c, 10, 73, 0
11, 117480, Note_on_c, 10, 64, 0
11, 117480, Note_on_c, 10, 68, 65
11, 117480, Note_on_c, 10, 61, 65
11, 117480, Note_on_c, 10, 66, 65
11, 117539, Note_on_c, 10, 66, 0
11, 117539, Note_on_c, 10, 61, 0
11, 117539, Note_on_c, 10, 68, 0
11, 117540, Note_on_c, 10, 65, 65
11, 117540, Note_on_c, 10, 68, 65
11, 117720, Note_on_c, 10, 68, 0
11, 117720, Note_on_c, 10, 65, 0
11, 117720, Note_on_c, 10, 73, 65
11, 117720, Note_on_c, 10, 65, 65
11, 117720, Note_on_c, 10, 68, 65
11, 117900, Note_on_c, 10, 68, 0
11, 117900, Note_on_c, 10, 65, 0
11, 117900, Note_on_c, 10, 73, 0
11, 117900, Note_on_c, 10, 69, 65
11, 117900, Note_on_c, 10, 61, 65
11, 117900, Note_on_c, 10, 66, 65
11, 118080, Note_on_c, 10, 66, 0
11, 118080, Note_on_c, 10, 61, 0
11, 118080, Note_on_c, 10, 69, 0
11, 118080, Note_on_c, 10, 61, 65
11, 118080, Note_on_c, 10, 66, 65
11, 118080, Note_on_c, 10, 69, 65
11, 118260, Note_on_c, 10, 69, 0
11, 118260, Note_on_c, 10, 66, 0
11, 118260, Note_on_c, 10, 61, 0
11, 118260, Note_on_c, 10, 61, 65
11, 118260, Note_on_c, 10, 68, 65
11, 118260, Note_on_c, 10, 65, 65
11, 118440, Note_on_c, 10, 65, 0
11, 118440, Note_on_c, 10, 68, 0
11, 118440, Note_on_c, 10, 61, 0
11, 118440, Note_on_c, 10, 65, 65
11, 118440, Note_on_c, 10, 68, 65
11, 118440, Note_on_c, 10, 73, 65
11, 118620, Note_on_c, 10, 73, 0
11, 118620, Note_on_c, 10, 68, 0
11, 118620, Note_on_c, 10, 65, 0
11, 118620, Note_on_c, 10, 61, 65
11, 118620, Note_on_c, 10, 70, 65
11, 118620, Note_on_c, 10, 66, 65
11, 118739, Note_on_c, 10, 66, 0
11, 118739, Note_on_c, 10, 70, 0
11, 118739, Note_on_c, 10, 61, 0
11, 118740, Note_on_c, 10, 66, 65
11, 118740, Note_on_c, 10, 73, 65
11, 118740, Note_on_c, 10, 70, 65
11, 118799, Note_on_c, 10, 70, 0
11, 118799, Note_on_c, 10, 73, 0
11, 118799, Note_on_c, 10, 66, 0
11, 118800, Note_on_c, 10, 62, 65
11, 118800, Note_on_c, 10, 66, 65
11, 118800, Note_on_c, 10, 71, 65
11, 118919, Note_on_c, 10, 71, 0
11, 118919, Note_on_c, 10, 66, 0
11, 118919, Note_on_c, 10, 62, 0
11, 118920, Note_on_c, 10, 71, 65
11, 118920, Note_on_c, 10, 62, 65
11, 118920, Note_on_c, 10, 68, 65
11, 118979, Note_on_c, 10, 68, 0
11, 118979, Note_on_c, 10, 62, 0
11, 118979, Note_on_c, 10, 71, 0
11, 118980, Note_on_c, 10, 65, 65
11, 118980, Note_on_c, 10, 69, 65
11, 118980, Note_on_c, 10, 73, 65
11, 119100, Note_on_c, 10, 73, 0
11, 119100, Note_on_c, 10, 69, 0
11, 119100, Note_on_c, 10, 65, 0
11, 119160, Note_on_c, 10, 61, 65
11, 119160, Note_on_c, 10, 69, 65
11, 119160, Note_on_c, 10, 66, 65
11, 119340, Note_on_c, 10, 66, 0
11, 119340, Note_on_c, 10, 69, 0
11, 119340, Note_on_c, 10, 61, 0
11, 119340, Note_on_c, 10, 71, 65
11, 119340, Note_on_c, 10, 66, 65
11, 119340, Note_on_c, 10, 63, 65
11, 119520, Note_on_c, 10, 63, 0
11, 119520, Note_on_c, 10, 66, 0
11, 119520, Note_on_c, 10, 71, 0
11, 119520, Note_on_c, 10, 73, 65
11, 119520, Note_on_c, 10, 68, 65
11, 119520, Note_on_c, 10, 65, 65
11, 119700, Note_on_c, 10, 65, 0
11, 119700, Note_on_c, 10, 68, 0
11, 119700, Note_on_c, 10, 73, 0
11, 119700, Note_on_c, 10, 73, 65
11, 119700, Note_on_c, 10, 69, 65
11, 119700, Note_on_c, 10, 66, 65
11, 119880, Note_on_c, 10, 66, 0
11, 119880, Note_on_c, 10, 69, 0
11, 119880, Note_on_c, 10, 73, 0
11, 119880, Note_on_c, 10, 66, 65
11, 119880, Note_on_c, 10, 69, 65
11, 119880, Note_on_c, 10, 74, 65
11, 120060, Note_on_c, 10, 74, 0
11, 120060, Note_on_c, 10, 69, 0
11, 120060, Note_on_c, 10, 66, 0
11, 120060, Note_on_c, 10, 68, 65
11, 120060, Note_on_c, 10, 74, 65
11, 120060, Note_on_c, 10, 71, 65
11, 120240, Note_on_c, 10, 71, 0
11, 120240, Note_on_c, 10, 74, 0
11, 120240, Note_on_c, 10, 68, 0
11, 120240, Note_on_c, 10, 68, 65
11, 120240, Note_on_c, 10, 63, 65
11, 120240, Note_on_c, 10, 72, 65
11, 120420, Note_on_c, 10, 72, 0
11, 120420, Note_on_c, 10, 63, 0
11, 120420, Note_on_c, 10, 68, 0
11, 120420, Note_on_c, 10, 65, 65
11, 120420, Note_on_c, 10, 68, 65
11, 120420, Note_on_c, 10, 73, 65
11, 120600, Note_on_c, 10, 73, 0
11, 120600, Note_on_c, 10, 68, 0
11, 120600, Note_on_c, 10, 65, 0
11, 120600, Note_on_c, 10, 68, 65
11, 120600, Note_on_c, 10, 62, 65
11, 120600, Note_on_c, 10, 71, 65
11, 120780, Note_on_c, 10, 71, 0
11, 120780, Note_on_c, 10, 62, 0
11, 120780, Note_on_c, 10, 68, 0
11, 120780, Note_on_c, 10, 68, 65
11, 120780, Note_on_c, 10, 62, 65
11, 120780, Note_on_c, 10, 71, 65
11, 120960, Note_on_c, 10, 71, 0
11, 120960, Note_on_c, 10, 62, 0
11, 120960, Note_on_c, 10, 68, 0
11, 120960, Note_on_c, 10, 61, 65
11, 120960, Note_on_c, 10, 68, 65
11, 120960, Note_on_c, 10, 65, 65
11, 121140, Note_on_c, 10, 65, 0
11, 121140, Note_on_c, 10, 68, 0
11, 121140, Note_on_c, 10, 61, 0
11, 121140, Note_on_c, 10, 69, 65
11, 121140, Note_on_c, 10, 73, 65
11, 121140, Note_on_c, 10, 66, 65
11, 121320, Note_on_c, 10, 66, 0
11, 121320, Note_on_c, 10, 73, 0
11, 121320, Note_on_c, 10, 69, 0
11, 121320, Note_on_c, 10, 69, 65
11, 121320, Note_on_c, 10, 73, 65
11, 121380, Note_on_c, 10, 73, 0
11, 121380, Note_on_c, 10, 69, 0
11, 121380, Note_on_c, 10, 78, 65
11, 121440, Note_on_c, 10, 78, 0
11, 121440, Note_on_c, 10, 71, 65
11, 121440, Note_on_c, 10, 77, 65
11, 121500, Note_on_c, 10, 77, 0
11, 121500, Note_on_c, 10, 71, 0
11, 121500, Note_on_c, 10, 69, 65
11, 121500, Note_on_c, 10, 73, 65
11, 121500, Note_on_c, 10, 78, 65
11, 121739, Note_on_c, 10, 78, 0
11, 121739, Note_on_c, 10, 73, 0
11, 121739, Note_on_c, 10, 69, 0
11, 121800, Note_on_c, 10, 66, 65
11, 121800, Note_on_c, 10, 69, 65
11, 121860, Note_on_c, 10, 69, 0
11, 121860, Note_on_c, 10, 66, 0
11, 121860, Note_on_c, 10, 65, 65
11, 121860, Note_on_c, 10, 68, 65
11, 121920, Note_on_c, 10, 68, 0
11, 121920, Note_on_c, 10, 65, 0
11, 121920, Note_on_c, 10, 73, 65
11, 121950, Note_on_c, 10, 73, 0
11, 121950, Note_on_c, 10, 71, 65
11, 121980, Note_on_c, 10, 71, 0
11, 121980, Note_on_c, 10, 69, 65
11, 122010, Note_on_c, 10, 69, 0
11, 122010, Note_on_c, 10, 68, 65
11, 122040, Note_on_c, 10, 68, 0
11, 122040, Note_on_c, 10, 66, 65
11, 122100, Note_on_c, 10, 66, 0
11, 122100, Note_on_c, 10, 68, 65
11, 122160, Note_on_c, 10, 68, 0
11, 122160, Note_on_c, 10, 69, 65
11, 122220, Note_on_c, 10, 69, 0
11, 122220, Note_on_c, 10, 71, 65
11, 122280, Note_on_c, 10, 71, 0
11, 122280, Note_on_c, 10, 76, 65
11, 122310, Note_on_c, 10, 76, 0
11, 122310, Note_on_c, 10, 74, 65
11, 122340, Note_on_c, 10, 74, 0
11, 122340, Note_on_c, 10, 73, 65
11, 122370, Note_on_c, 10, 73, 0
11, 122370, Note_on_c, 10, 71, 65
11, 122400, Note_on_c, 10, 71, 0
11, 122400, Note_on_c, 10, 69, 65
11, 122460, Note_on_c, 10, 69, 0
11, 122460, Note_on_c, 10, 71, 65
11, 122520, Note_on_c, 10, 71, 0
11, 122520, Note_on_c, 10, 73, 65
11, 122580, Note_on_c, 10, 73, 0
11, 122580, Note_on_c, 10, 74, 65
11, 122640, Note_on_c, 10, 74, 0
11, 122640, Note_on_c, 10, 76, 65
11, 122670, Note_on_c, 10, 76, 0
11, 122670, Note_on_c, 10, 74, 65
11, 122700, Note_on_c, 10, 74, 0
11, 122700, Note_on_c, 10, 73, 65
11, 122730, Note_on_c, 10, 73, 0
11, 122730, Note_on_c, 10, 71, 65
11, 122760, Note_on_c, 10, 71, 0
11, 122760, Note_on_c, 10, 76, 65
11, 122820, Note_on_c, 10, 76, 0
11, 122820, Note_on_c, 10, 78, 65
11, 122850, Note_on_c, 10, 78, 0
11, 122850, Note_on_c, 10, 76, 65
11, 122880, Note_on_c, 10, 76, 0
11, 122880, Note_on_c, 10, 74, 65
11, 122910, Note_on_c, 10, 74, 0
11, 122910, Note_on_c, 10, 73, 65
11, 122940, Note_on_c, 10, 73, 0
11, 122940, Note_on_c, 10, 74, 65
11, 123000, Note_on_c, 10, 74, 0
11, 123000, Note_on_c, 10, 76, 65
11, 123030, Note_on_c, 10, 76, 0
11, 123030, Note_on_c, 10, 74, 65
11, 123060, Note_on_c, 10, 74, 0
11, 123060, Note_on_c, 10, 73, 65
11, 123090, Note_on_c, 10, 73, 0
11, 123090, Note_on_c, 10, 71, 65
11, 123120, Note_on_c, 10, 71, 0
11, 123120, Note_on_c, 10, 70, 65
11, 123179, Note_on_c, 10, 70, 0
11, 123180, Note_on_c, 10, 73, 65
11, 123209, Note_on_c, 10, 73, 0
11, 123210, Note_on_c, 10, 71, 65
11, 123239, Note_on_c, 10, 71, 0
11, 123240, Note_on_c, 10, 70, 65
11, 123269, Note_on_c, 10, 70, 0
11, 123270, Note_on_c, 10, 66, 65
11, 123299, Note_on_c, 10, 66, 0
11, 123300, Note_on_c, 10, 71, 65
11, 123300, Note_on_c, 10, 62, 65
11, 123300, Note_on_c, 10, 66, 65
11, 123480, Note_on_c, 10, 66, 0
11, 123480, Note_on_c, 10, 62, 0
11, 123480, Note_on_c, 10, 71, 0
11, 123480, Note_on_c, 10, 59, 65
11, 123480, Note_on_c, 10, 62, 65
11, 123480, Note_on_c, 10, 66, 65
11, 123660, Note_on_c, 10, 66, 0
11, 123660, Note_on_c, 10, 62, 0
11, 123660, Note_on_c, 10, 59, 0
11, 123660, Note_on_c, 10, 61, 65
11, 123660, Note_on_c, 10, 70, 65
11, 123660, Note_on_c, 10, 66, 65
11, 123840, Note_on_c, 10, 66, 0
11, 123840, Note_on_c, 10, 70, 0
11, 123840, Note_on_c, 10, 61, 0
11, 123900, Note_on_c, 10, 70, 65
11, 123900, Note_on_c, 10, 66, 65
11, 123959, Note_on_c, 10, 66, 0
11, 123959, Note_on_c, 10, 70, 0
11, 123960, Note_on_c, 10, 73, 65
11, 123960, Note_on_c, 10, 70, 65
11, 123960, Note_on_c, 10, 64, 65
11, 124019, Note_on_c, 10, 64, 0
11, 124019, Note_on_c, 10, 70, 0
11, 124019, Note_on_c, 10, 73, 0
11, 124020, Note_on_c, 10, 66, 65
11, 124020, Note_on_c, 10, 62, 65
11, 124079, Note_on_c, 10, 62, 0
11, 124079, Note_on_c, 10, 66, 0
11, 124080, Note_on_c, 10, 64, 65
11, 124080, Note_on_c, 10, 61, 65
11, 124139, Note_on_c, 10, 61, 0
11, 124139, Note_on_c, 10, 64, 0
11, 124140, Note_on_c, 10, 62, 65
11, 124140, Note_on_c, 10, 59, 65
11, 124199, Note_on_c, 10, 59, 0
11, 124199, Note_on_c, 10, 62, 0
11, 124200, Note_on_c, 10, 59, 65
11, 124200, Note_on_c, 10, 64, 65
11, 124200, Note_on_c, 10, 67, 65
11, 124319, Note_on_c, 10, 67, 0
11, 124319, Note_on_c, 10, 64, 0
11, 124319, Note_on_c, 10, 59, 0
11, 124320, Note_on_c, 10, 67, 65
11, 124320, Note_on_c, 10, 61, 65
11, 124320, Note_on_c, 10, 64, 65
11, 124379, Note_on_c, 10, 64, 0
11, 124379, Note_on_c, 10, 61, 0
11, 124379, Note_on_c, 10, 67, 0
11, 124380, Note_on_c, 10, 61, 65
11, 124380, Note_on_c, 10, 66, 65
11, 124380, Note_on_c, 10, 70, 65
11, 124439, Note_on_c, 10, 70, 0
11, 124439, Note_on_c, 10, 66, 0
11, 124439, Note_on_c, 10, 61, 0
11, 124440, Note_on_c, 10, 73, 65
11, 124440, Note_on_c, 10, 70, 65
11, 124529, Note_on_c, 10, 70, 0
11, 124529, Note_on_c, 10, 73, 0
11, 124530, Note_on_c, 10, 71, 65
11, 124530, Note_on_c, 10, 74, 65
11, 124559, Note_on_c, 10, 74, 0
11, 124559, Note_on_c, 10, 71, 0
11, 124560, Note_on_c, 10, 74, 65
11, 124560, Note_on_c, 10, 71, 65
11, 124560, Note_on_c, 10, 66, 65
11, 124560, Note_on_c, 10, 62, 65
11, 124680, Note_on_c, 10, 62, 0
11, 124680, Note_on_c, 10, 74, 0
11, 124680, Note_on_c, 10, 71, 0
11, 124680, Note_on_c, 10, 66, 0
11, 124920, Note_on_c, 10, 66, 65
11, 124920, Note_on_c, 10, 69, 65
11, 124920, Note_on_c, 10, 74, 65
11, 125100, Note_on_c, 10, 74, 0
11, 125100, Note_on_c, 10, 69, 0
11, 125100, Note_on_c, 10, 66, 0
11, 125100, Note_on_c, 10, 66, 65
11, 125100, Note_on_c, 10, 69, 65
11, 125100, Note_on_c, 10, 74, 65
11, 125280, Note_on_c, 10, 74, 0
11, 125280, Note_on_c, 10, 69, 0
11, 125280, Note_on_c, 10, 66, 0
11, 125280, Note_on_c, 10, 64, 65
11, 125280, Note_on_c, 10, 69, 65
11, 125280, Note_on_c, 10, 73, 65
11, 125460, Note_on_c, 10, 73, 0
11, 125460, Note_on_c, 10, 69, 0
11, 125460, Note_on_c, 10, 64, 0
11, 125460, Note_on_c, 10, 67, 65
11, 125460, Note_on_c, 10, 69, 65
11, 125460, Note_on_c, 10, 73, 65
11, 125640, Note_on_c, 10, 73, 0
11, 125640, Note_on_c, 10, 69, 0
11, 125640, Note_on_c, 10, 67, 0
11, 125640, Note_on_c, 10, 74, 65
11, 125640, Note_on_c, 10, 69, 65
11, 125640, Note_on_c, 10, 66, 65
11, 125820, Note_on_c, 10, 66, 0
11, 125820, Note_on_c, 10, 69, 0
11, 125820, Note_on_c, 10, 74, 0
11, 125820, Note_on_c, 10, 62, 65
11, 125820, Note_on_c, 10, 69, 65
11, 125820, Note_on_c, 10, 78, 65
11, 126000, Note_on_c, 10, 78, 0
11, 126000, Note_on_c, 10, 69, 0
11, 126000, Note_on_c, 10, 62, 0
11, 126000, Note_on_c, 10, 76, 65
11, 126000, Note_on_c, 10, 69, 65
11, 126000, Note_on_c, 10, 73, 65
11, 126059, Note_on_c, 10, 76, 0
11, 126060, Note_on_c, 10, 76, 65
11, 126089, Note_on_c, 10, 76, 0
11, 126090, Note_on_c, 10, 74, 65
11, 126119, Note_on_c, 10, 74, 0
11, 126120, Note_on_c, 10, 73, 65
11, 126149, Note_on_c, 10, 73, 0
11, 126150, Note_on_c, 10, 71, 65
11, 126179, Note_on_c, 10, 71, 0
11, 126180, Note_on_c, 10, 73, 0
11, 126180, Note_on_c, 10, 69, 0
11, 126180, Note_on_c, 10, 69, 65
11, 126209, Note_on_c, 10, 69, 0
11, 126210, Note_on_c, 10, 73, 65
11, 126239, Note_on_c, 10, 73, 0
11, 126240, Note_on_c, 10, 74, 65
11, 126269, Note_on_c, 10, 74, 0
11, 126270, Note_on_c, 10, 73, 65
11, 126299, Note_on_c, 10, 73, 0
11, 126300, Note_on_c, 10, 71, 65
11, 126329, Note_on_c, 10, 71, 0
11, 126330, Note_on_c, 10, 69, 65
11, 126359, Note_on_c, 10, 69, 0
11, 126360, Note_on_c, 10, 71, 65
11, 126360, Note_on_c, 10, 62, 65
11, 126360, Note_on_c, 10, 67, 65
11, 126540, Note_on_c, 10, 67, 0
11, 126540, Note_on_c, 10, 62, 0
11, 126540, Note_on_c, 10, 71, 0
11, 126540, Note_on_c, 10, 64, 65
11, 126540, Note_on_c, 10, 69, 65
11, 126540, Note_on_c, 10, 73, 65
11, 126720, Note_on_c, 10, 73, 0
11, 126720, Note_on_c, 10, 69, 0
11, 126720, Note_on_c, 10, 64, 0
11, 126720, Note_on_c, 10, 74, 65
11, 126720, Note_on_c, 10, 69, 65
11, 126720, Note_on_c, 10, 66, 65
11, 126900, Note_on_c, 10, 66, 0
11, 126900, Note_on_c, 10, 69, 0
11, 126900, Note_on_c, 10, 74, 0
11, 126900, Note_on_c, 10, 69, 65
11, 126900, Note_on_c, 10, 66, 65
11, 126900, Note_on_c, 10, 62, 65
11, 127080, Note_on_c, 10, 62, 0
11, 127080, Note_on_c, 10, 66, 0
11, 127080, Note_on_c, 10, 69, 0
11, 127080, Note_on_c, 10, 74, 65
11, 127080, Note_on_c, 10, 67, 65
11, 127080, Note_on_c, 10, 64, 65
11, 127260, Note_on_c, 10, 64, 0
11, 127260, Note_on_c, 10, 67, 0
11, 127260, Note_on_c, 10, 74, 0
11, 127260, Note_on_c, 10, 64, 65
11, 127260, Note_on_c, 10, 74, 65
11, 127260, Note_on_c, 10, 68, 65
11, 127440, Note_on_c, 10, 68, 0
11, 127440, Note_on_c, 10, 74, 0
11, 127440, Note_on_c, 10, 64, 0
11, 127440, Note_on_c, 10, 76, 65
11, 127440, Note_on_c, 10, 69, 65
11, 127440, Note_on_c, 10, 64, 65
11, 127620, Note_on_c, 10, 64, 0
11, 127620, Note_on_c, 10, 69, 0
11, 127620, Note_on_c, 10, 76, 0
11, 127620, Note_on_c, 10, 67, 65
11, 127620, Note_on_c, 10, 73, 65
11, 127620, Note_on_c, 10, 76, 65
11, 127800, Note_on_c, 10, 76, 0
11, 127800, Note_on_c, 10, 73, 0
11, 127800, Note_on_c, 10, 67, 0
11, 127800, Note_on_c, 10, 64, 65
11, 127800, Note_on_c, 10, 73, 65
11, 127800, Note_on_c, 10, 67, 65
11, 127980, Note_on_c, 10, 67, 0
11, 127980, Note_on_c, 10, 73, 0
11, 127980, Note_on_c, 10, 64, 0
11, 127980, Note_on_c, 10, 64, 65
11, 127980, Note_on_c, 10, 73, 65
11, 127980, Note_on_c, 10, 69, 65
11, 128160, Note_on_c, 10, 69, 0
11, 128160, Note_on_c, 10, 73, 0
11, 128160, Note_on_c, 10, 64, 0
11, 128160, Note_on_c, 10, 66, 65
11, 128219, Note_on_c, 10, 66, 0
11, 128220, Note_on_c, 10, 67, 65
11, 128279, Note_on_c, 10, 67, 0
11, 128280, Note_on_c, 10, 64, 65
11, 128339, Note_on_c, 10, 64, 0
11, 128340, Note_on_c, 10, 66, 65
11, 128369, Note_on_c, 10, 66, 0
11, 128370, Note_on_c, 10, 67, 65
11, 128399, Note_on_c, 10, 67, 0
11, 128400, Note_on_c, 10, 66, 65
11, 128429, Note_on_c, 10, 66, 0
11, 128430, Note_on_c, 10, 64, 65
11, 128459, Note_on_c, 10, 64, 0
11, 128460, Note_on_c, 10, 61, 65
11, 128519, Note_on_c, 10, 61, 0
11, 128520, Note_on_c, 10, 62, 65
11, 128579, Note_on_c, 10, 62, 0
11, 128580, Note_on_c, 10, 69, 65
11, 128580, Note_on_c, 10, 74, 65
11, 128610, Note_on_c, 10, 69, 0
11, 128610, Note_on_c, 10, 67, 65
11, 128639, Note_on_c, 10, 74, 0
11, 128640, Note_on_c, 10, 67, 0
11, 128640, Note_on_c, 10, 66, 65
11, 128640, Note_on_c, 10, 69, 65
11, 128670, Note_on_c, 10, 66, 0
11, 128670, Note_on_c, 10, 64, 65
11, 128699, Note_on_c, 10, 69, 0
11, 128700, Note_on_c, 10, 64, 0
11, 128700, Note_on_c, 10, 74, 65
11, 128819, Note_on_c, 10, 74, 0
11, 128880, Note_on_c, 10, 66, 65
11, 128880, Note_on_c, 10, 69, 65
11, 128880, Note_on_c, 10, 74, 65
11, 129060, Note_on_c, 10, 74, 0
11, 129060, Note_on_c, 10, 69, 0
11, 129060, Note_on_c, 10, 66, 0
11, 129060, Note_on_c, 10, 66, 65
11, 129060, Note_on_c, 10, 69, 65
11, 129060, Note_on_c, 10, 74, 65
11, 129240, Note_on_c, 10, 74, 0
11, 129240, Note_on_c, 10, 69, 0
11, 129240, Note_on_c, 10, 66, 0
11, 129240, Note_on_c, 10, 64, 65
11, 129240, Note_on_c, 10, 69, 65
11, 129240, Note_on_c, 10, 73, 65
11, 129420, Note_on_c, 10, 73, 0
11, 129420, Note_on_c, 10, 69, 0
11, 129420, Note_on_c, 10, 64, 0
11, 129420, Note_on_c, 10, 67, 65
11, 129420, Note_on_c, 10, 69, 65
11, 129420, Note_on_c, 10, 73, 65
11, 129600, Note_on_c, 10, 73, 0
11, 129600, Note_on_c, 10, 69, 0
11, 129600, Note_on_c, 10, 67, 0
11, 129600, Note_on_c, 10, 74, 65
11, 129600, Note_on_c, 10, 69, 65
11, 129600, Note_on_c, 10, 66, 65
11, 129780, Note_on_c, 10, 66, 0
11, 129780, Note_on_c, 10, 69, 0
11, 129780, Note_on_c, 10, 74, 0
11, 129780, Note_on_c, 10, 62, 65
11, 129780, Note_on_c, 10, 69, 65
11, 129780, Note_on_c, 10, 78, 65
11, 129960, Note_on_c, 10, 78, 0
11, 129960, Note_on_c, 10, 69, 0
11, 129960, Note_on_c, 10, 62, 0
11, 129960, Note_on_c, 10, 76, 65
11, 129960, Note_on_c, 10, 69, 65
11, 129960, Note_on_c, 10, 73, 65
11, 130019, Note_on_c, 10, 76, 0
11, 130020, Note_on_c, 10, 76, 65
11, 130049, Note_on_c, 10, 76, 0
11, 130050, Note_on_c, 10, 74, 65
11, 130079, Note_on_c, 10, 74, 0
11, 130080, Note_on_c, 10, 73, 65
11, 130109, Note_on_c, 10, 73, 0
11, 130110, Note_on_c, 10, 71, 65
11, 130139, Note_on_c, 10, 71, 0
11, 130140, Note_on_c, 10, 73, 0
11, 130140, Note_on_c, 10, 69, 0
11, 130140, Note_on_c, 10, 69, 65
11, 130169, Note_on_c, 10, 69, 0
11, 130170, Note_on_c, 10, 73, 65
11, 130199, Note_on_c, 10, 73, 0
11, 130200, Note_on_c, 10, 74, 65
11, 130229, Note_on_c, 10, 74, 0
11, 130230, Note_on_c, 10, 73, 65
11, 130259, Note_on_c, 10, 73, 0
11, 130260, Note_on_c, 10, 71, 65
11, 130289, Note_on_c, 10, 71, 0
11, 130290, Note_on_c, 10, 69, 65
11, 130319, Note_on_c, 10, 69, 0
11, 130320, Note_on_c, 10, 62, 75
11, 130320, Note_on_c, 10, 66, 75
11, 130320, Note_on_c, 10, 69, 75
11, 130440, Note_on_c, 10, 69, 0
11, 130440, Note_on_c, 10, 66, 0
11, 130440, Note_on_c, 10, 62, 0
11, 130500, Note_on_c, 10, 71, 65
11, 130500, Note_on_c, 10, 62, 75
11, 130500, Note_on_c, 10, 66, 75
11, 130559, Note_on_c, 10, 71, 0
11, 130560, Note_on_c, 10, 71, 65
11, 130590, Note_on_c, 10, 71, 0
11, 130590, Note_on_c, 10, 69, 65
11, 130620, Note_on_c, 10, 69, 0
11, 130620, Note_on_c, 10, 66, 0
11, 130620, Note_on_c, 10, 62, 0
11, 130620, Note_on_c, 10, 68, 65
11, 130620, Note_on_c, 10, 71, 65
11, 130679, Note_on_c, 10, 71, 0
11, 130679, Note_on_c, 10, 68, 0
11, 130680, Note_on_c, 10, 64, 75
11, 130680, Note_on_c, 10, 73, 75
11, 130680, Note_on_c, 10, 69, 75
11, 130800, Note_on_c, 10, 69, 0
11, 130800, Note_on_c, 10, 73, 0
11, 130800, Note_on_c, 10, 64, 0
11, 130860, Note_on_c, 10, 73, 65
11, 130860, Note_on_c, 10, 69, 65
11, 130860, Note_on_c, 10, 64, 65
11, 130919, Note_on_c, 10, 73, 0
11, 130920, Note_on_c, 10, 73, 65
11, 130950, Note_on_c, 10, 73, 0
11, 130950, Note_on_c, 10, 71, 65
11, 130979, Note_on_c, 10, 64, 0
11, 130979, Note_on_c, 10, 69, 0
11, 130980, Note_on_c, 10, 71, 0
11, 130980, Note_on_c, 10, 66, 65
11, 130980, Note_on_c, 10, 69, 65
11, 130980, Note_on_c, 10, 73, 65
11, 131039, Note_on_c, 10, 73, 0
11, 131039, Note_on_c, 10, 69, 0
11, 131039, Note_on_c, 10, 66, 0
11, 131040, Note_on_c, 10, 62, 65
11, 131040, Note_on_c, 10, 66, 65
11, 131040, Note_on_c, 10, 71, 65
11, 131159, Note_on_c, 10, 71, 0
11, 131159, Note_on_c, 10, 66, 0
11, 131159, Note_on_c, 10, 62, 0
11, 131220, Note_on_c, 10, 71, 65
11, 131220, Note_on_c, 10, 64, 65
11, 131220, Note_on_c, 10, 68, 65
11, 131279, Note_on_c, 10, 71, 0
11, 131280, Note_on_c, 10, 69, 65
11, 131310, Note_on_c, 10, 69, 0
11, 131310, Note_on_c, 10, 68, 65
11, 131339, Note_on_c, 10, 68, 0
11, 131339, Note_on_c, 10, 64, 0
11, 131340, Note_on_c, 10, 68, 0
11, 131340, Note_on_c, 10, 66, 65
11, 131370, Note_on_c, 10, 66, 0
11, 131370, Note_on_c, 10, 64, 65
11, 131400, Note_on_c, 10, 64, 0
11, 131400, Note_on_c, 10, 64, 65
11, 131400, Note_on_c, 10, 69, 65
11, 131400, Note_on_c, 10, 73, 65
11, 131519, Note_on_c, 10, 73, 0
11, 131519, Note_on_c, 10, 69, 0
11, 131519, Note_on_c, 10, 64, 0
11, 131520, Note_on_c, 10, 69, 65
11, 131579, Note_on_c, 10, 69, 0
11, 131580, Note_on_c, 10, 71, 65
11, 131580, Note_on_c, 10, 68, 65
11, 131580, Note_on_c, 10, 64, 65
11, 131639, Note_on_c, 10, 64, 0
11, 131639, Note_on_c, 10, 68, 0
11, 131639, Note_on_c, 10, 71, 0
11, 131640, Note_on_c, 10, 68, 65
11, 131669, Note_on_c, 10, 68, 0
11, 131670, Note_on_c, 10, 66, 65
11, 131699, Note_on_c, 10, 66, 0
11, 131700, Note_on_c, 10, 64, 65
11, 131729, Note_on_c, 10, 64, 0
11, 131730, Note_on_c, 10, 62, 65
11, 131759, Note_on_c, 10, 62, 0
11, 131760, Note_on_c, 10, 69, 65
11, 131760, Note_on_c, 10, 61, 65
11, 131760, Note_on_c, 10, 64, 65
11, 131940, Note_on_c, 10, 64, 0
11, 131940, Note_on_c, 10, 61, 0
11, 131940, Note_on_c, 10, 69, 0
11, 131940, Note_on_c, 10, 69, 65
11, 131970, Note_on_c, 10, 69, 0
11, 131970, Note_on_c, 10, 68, 65
11, 132000, Note_on_c, 10, 68, 0
11, 132000, Note_on_c, 10, 69, 65
11, 132060, Note_on_c, 10, 69, 0
11, 132060, Note_on_c, 10, 64, 65
11, 132120, Note_on_c, 10, 64, 0
11, 132120, Note_on_c, 10, 64, 65
11, 132120, Note_on_c, 10, 68, 65
11, 132120, Note_on_c, 10, 71, 65
11, 132300, Note_on_c, 10, 71, 0
11, 132300, Note_on_c, 10, 68, 0
11, 132300, Note_on_c, 10, 64, 0
11, 132300, Note_on_c, 10, 71, 65
11, 132330, Note_on_c, 10, 71, 0
11, 132330, Note_on_c, 10, 69, 65
11, 132360, Note_on_c, 10, 69, 0
11, 132360, Note_on_c, 10, 71, 65
11, 132419, Note_on_c, 10, 71, 0
11, 132420, Note_on_c, 10, 68, 65
11, 132479, Note_on_c, 10, 68, 0
11, 132480, Note_on_c, 10, 73, 65
11, 132480, Note_on_c, 10, 64, 65
11, 132480, Note_on_c, 10, 69, 65
11, 132599, Note_on_c, 10, 69, 0
11, 132599, Note_on_c, 10, 64, 0
11, 132599, Note_on_c, 10, 73, 0
11, 132600, Note_on_c, 10, 64, 65
11, 132600, Note_on_c, 10, 71, 65
11, 132600, Note_on_c, 10, 68, 65
11, 132659, Note_on_c, 10, 68, 0
11, 132659, Note_on_c, 10, 71, 0
11, 132659, Note_on_c, 10, 64, 0
11, 132660, Note_on_c, 10, 64, 65
11, 132660, Note_on_c, 10, 69, 65
11, 132779, Note_on_c, 10, 69, 0
11, 132779, Note_on_c, 10, 64, 0
11, 132780, Note_on_c, 10, 66, 65
11, 132839, Note_on_c, 10, 66, 0
11, 132840, Note_on_c, 10, 69, 65
11, 132899, Note_on_c, 10, 69, 0
11, 132900, Note_on_c, 10, 71, 65
11, 132900, Note_on_c, 10, 68, 65
11, 132959, Note_on_c, 10, 68, 0
11, 132959, Note_on_c, 10, 71, 0
11, 132960, Note_on_c, 10, 68, 65
11, 132960, Note_on_c, 10, 71, 65
11, 132960, Note_on_c, 10, 74, 65
11, 133019, Note_on_c, 10, 74, 0
11, 133019, Note_on_c, 10, 71, 0
11, 133019, Note_on_c, 10, 68, 0
11, 133020, Note_on_c, 10, 73, 65
11, 133020, Note_on_c, 10, 76, 65
11, 133020, Note_on_c, 10, 64, 65
11, 133020, Note_on_c, 10, 69, 65
11, 133079, Note_on_c, 10, 73, 0
11, 133080, Note_on_c, 10, 76, 65
11, 133109, Note_on_c, 10, 76, 0
11, 133110, Note_on_c, 10, 74, 65
11, 133139, Note_on_c, 10, 74, 0
11, 133140, Note_on_c, 10, 76, 0
11, 133140, Note_on_c, 10, 64, 0
11, 133140, Note_on_c, 10, 69, 0
11, 133140, Note_on_c, 10, 73, 65
11, 133199, Note_on_c, 10, 73, 0
11, 133200, Note_on_c, 10, 62, 65
11, 133200, Note_on_c, 10, 66, 65
11, 133200, Note_on_c, 10, 71, 65
11, 133380, Note_on_c, 10, 71, 0
11, 133380, Note_on_c, 10, 66, 0
11, 133380, Note_on_c, 10, 62, 0
11, 133380, Note_on_c, 10, 64, 65
11, 133380, Note_on_c, 10, 68, 65
11, 133380, Note_on_c, 10, 71, 65
11, 133560, Note_on_c, 10, 71, 0
11, 133560, Note_on_c, 10, 68, 0
11, 133560, Note_on_c, 10, 64, 0
11, 133560, Note_on_c, 10, 61, 65
11, 133560, Note_on_c, 10, 64, 65
11, 133560, Note_on_c, 10, 69, 65
11, 133740, Note_on_c, 10, 69, 0
11, 133740, Note_on_c, 10, 64, 0
11, 133740, Note_on_c, 10, 61, 0
11, 133740, Note_on_c, 10, 61, 65
11, 133740, Note_on_c, 10, 64, 65
11, 133740, Note_on_c, 10, 69, 65
11, 133920, Note_on_c, 10, 69, 0
11, 133920, Note_on_c, 10, 64, 0
11, 133920, Note_on_c, 10, 61, 0
11, 133920, Note_on_c, 10, 69, 65
11, 133920, Note_on_c, 10, 66, 65
11, 133920, Note_on_c, 10, 62, 65
11, 134100, Note_on_c, 10, 62, 0
11, 134100, Note_on_c, 10, 66, 0
11, 134100, Note_on_c, 10, 69, 0
11, 134100, Note_on_c, 10, 71, 65
11, 134100, Note_on_c, 10, 66, 65
11, 134100, Note_on_c, 10, 63, 65
11, 134280, Note_on_c, 10, 63, 0
11, 134280, Note_on_c, 10, 66, 0
11, 134280, Note_on_c, 10, 71, 0
11, 134280, Note_on_c, 10, 71, 65
11, 134280, Note_on_c, 10, 68, 65
11, 134280, Note_on_c, 10, 64, 65
11, 134460, Note_on_c, 10, 64, 0
11, 134460, Note_on_c, 10, 68, 0
11, 134460, Note_on_c, 10, 71, 0
11, 134460, Note_on_c, 10, 71, 65
11, 134460, Note_on_c, 10, 68, 65
11, 134460, Note_on_c, 10, 64, 65
11, 134640, Note_on_c, 10, 64, 0
11, 134640, Note_on_c, 10, 68, 0
11, 134640, Note_on_c, 10, 71, 0
11, 134640, Note_on_c, 10, 68, 65
11, 134640, Note_on_c, 10, 64, 65
11, 134640, Note_on_c, 10, 62, 65
11, 134820, Note_on_c, 10, 62, 0
11, 134820, Note_on_c, 10, 64, 0
11, 134820, Note_on_c, 10, 68, 0
11, 134820, Note_on_c, 10, 64, 65
11, 134820, Note_on_c, 10, 71, 65
11, 134820, Note_on_c, 10, 68, 65
11, 135000, Note_on_c, 10, 68, 0
11, 135000, Note_on_c, 10, 71, 0
11, 135000, Note_on_c, 10, 64, 0
11, 135000, Note_on_c, 10, 61, 65
11, 135000, Note_on_c, 10, 69, 65
11, 135000, Note_on_c, 10, 64, 65
11, 135180, Note_on_c, 10, 64, 0
11, 135180, Note_on_c, 10, 69, 0
11, 135180, Note_on_c, 10, 61, 0
11, 135180, Note_on_c, 10, 76, 65
11, 135209, Note_on_c, 10, 76, 0
11, 135210, Note_on_c, 10, 74, 65
11, 135239, Note_on_c, 10, 74, 0
11, 135240, Note_on_c, 10, 73, 65
11, 135269, Note_on_c, 10, 73, 0
11, 135270, Note_on_c, 10, 71, 65
11, 135299, Note_on_c, 10, 71, 0
11, 135300, Note_on_c, 10, 64, 65
11, 135300, Note_on_c, 10, 71, 65
11, 135300, Note_on_c, 10, 68, 65
11, 135360, Note_on_c, 10, 68, 0
11, 135360, Note_on_c, 10, 71, 0
11, 135360, Note_on_c, 10, 64, 0
11, 135360, Note_on_c, 10, 61, 65
11, 135360, Note_on_c, 10, 64, 65
11, 135360, Note_on_c, 10, 69, 65
11, 135540, Note_on_c, 10, 69, 0
11, 135540, Note_on_c, 10, 64, 0
11, 135540, Note_on_c, 10, 61, 0
11, 135540, Note_on_c, 10, 64, 65
11, 135540, Note_on_c, 10, 69, 65
11, 135540, Note_on_c, 10, 73, 65
11, 135720, Note_on_c, 10, 73, 0
11, 135720, Note_on_c, 10, 69, 0
11, 135720, Note_on_c, 10, 64, 0
11, 135720, Note_on_c, 10, 66, 65
11, 135720, Note_on_c, 10, 62, 65
11, 135779, Note_on_c, 10, 62, 0
11, 135779, Note_on_c, 10, 66, 0
11, 135780, Note_on_c, 10, 64, 65
11, 135809, Note_on_c, 10, 64, 0
11, 135810, Note_on_c, 10, 62, 65
11, 135839, Note_on_c, 10, 62, 0
11, 135840, Note_on_c, 10, 64, 65
11, 135869, Note_on_c, 10, 64, 0
11, 135870, Note_on_c, 10, 61, 65
11, 135899, Note_on_c, 10, 61, 0
11, 135900, Note_on_c, 10, 69, 65
11, 135900, Note_on_c, 10, 66, 65
11, 135900, Note_on_c, 10, 62, 65
11, 136080, Note_on_c, 10, 62, 0
11, 136080, Note_on_c, 10, 66, 0
11, 136080, Note_on_c, 10, 69, 0
11, 136080, Note_on_c, 10, 71, 65
11, 136080, Note_on_c, 10, 67, 65
11, 136139, Note_on_c, 10, 67, 0
11, 136139, Note_on_c, 10, 71, 0
11, 136140, Note_on_c, 10, 69, 65
11, 136169, Note_on_c, 10, 69, 0
11, 136170, Note_on_c, 10, 67, 65
11, 136199, Note_on_c, 10, 67, 0
11, 136200, Note_on_c, 10, 69, 65
11, 136229, Note_on_c, 10, 69, 0
11, 136230, Note_on_c, 10, 66, 65
11, 136259, Note_on_c, 10, 66, 0
11, 136260, Note_on_c, 10, 62, 65
11, 136260, Note_on_c, 10, 67, 65
11, 136260, Note_on_c, 10, 71, 65
11, 136440, Note_on_c, 10, 71, 0
11, 136440, Note_on_c, 10, 67, 0
11, 136440, Note_on_c, 10, 62, 0
11, 136440, Note_on_c, 10, 59, 65
11, 136440, Note_on_c, 10, 64, 65
11, 136440, Note_on_c, 10, 67, 65
11, 136560, Note_on_c, 10, 67, 0
11, 136560, Note_on_c, 10, 64, 0
11, 136560, Note_on_c, 10, 59, 0
11, 136560, Note_on_c, 10, 64, 65
11, 136560, Note_on_c, 10, 67, 65
11, 136560, Note_on_c, 10, 71, 65
11, 136620, Note_on_c, 10, 71, 0
11, 136620, Note_on_c, 10, 67, 0
11, 136620, Note_on_c, 10, 64, 0
11, 136620, Note_on_c, 10, 64, 65
11, 136620, Note_on_c, 10, 67, 65
11, 136620, Note_on_c, 10, 71, 65
11, 136740, Note_on_c, 10, 71, 0
11, 136740, Note_on_c, 10, 67, 0
11, 136740, Note_on_c, 10, 64, 0
11, 136740, Note_on_c, 10, 76, 65
11, 136740, Note_on_c, 10, 67, 65
11, 136740, Note_on_c, 10, 71, 65
11, 136800, Note_on_c, 10, 71, 0
11, 136800, Note_on_c, 10, 67, 0
11, 136800, Note_on_c, 10, 76, 0
11, 136800, Note_on_c, 10, 71, 65
11, 136800, Note_on_c, 10, 66, 65
11, 136800, Note_on_c, 10, 74, 65
11, 136859, Note_on_c, 10, 74, 0
11, 136859, Note_on_c, 10, 66, 0
11, 136859, Note_on_c, 10, 71, 0
11, 136860, Note_on_c, 10, 73, 65
11, 136919, Note_on_c, 10, 73, 0
11, 136920, Note_on_c, 10, 68, 65
11, 136920, Note_on_c, 10, 64, 65
11, 136979, Note_on_c, 10, 64, 0
11, 136979, Note_on_c, 10, 68, 0
11, 136980, Note_on_c, 10, 64, 65
11, 136980, Note_on_c, 10, 69, 65
11, 136980, Note_on_c, 10, 73, 65
11, 137100, Note_on_c, 10, 73, 0
11, 137100, Note_on_c, 10, 69, 0
11, 137100, Note_on_c, 10, 64, 0
11, 137160, Note_on_c, 10, 69, 65
11, 137160, Note_on_c, 10, 66, 65
11, 137160, Note_on_c, 10, 62, 65
11, 137340, Note_on_c, 10, 62, 0
11, 137340, Note_on_c, 10, 66, 0
11, 137340, Note_on_c, 10, 69, 0
11, 137340, Note_on_c, 10, 69, 65
11, 137340, Note_on_c, 10, 66, 65
11, 137340, Note_on_c, 10, 62, 65
11, 137520, Note_on_c, 10, 62, 0
11, 137520, Note_on_c, 10, 66, 0
11, 137520, Note_on_c, 10, 69, 0
11, 137520, Note_on_c, 10, 61, 65
11, 137520, Note_on_c, 10, 69, 65
11, 137520, Note_on_c, 10, 64, 65
11, 137700, Note_on_c, 10, 64, 0
11, 137700, Note_on_c, 10, 69, 0
11, 137700, Note_on_c, 10, 61, 0
11, 137700, Note_on_c, 10, 73, 65
11, 137700, Note_on_c, 10, 69, 65
11, 137700, Note_on_c, 10, 64, 65
11, 137880, Note_on_c, 10, 64, 0
11, 137880, Note_on_c, 10, 69, 0
11, 137880, Note_on_c, 10, 73, 0
11, 137880, Note_on_c, 10, 74, 65
11, 137880, Note_on_c, 10, 66, 65
11, 137880, Note_on_c, 10, 69, 65
11, 137999, Note_on_c, 10, 69, 0
11, 137999, Note_on_c, 10, 66, 0
11, 137999, Note_on_c, 10, 74, 0
11, 138000, Note_on_c, 10, 64, 65
11, 138000, Note_on_c, 10, 69, 65
11, 138000, Note_on_c, 10, 73, 65
11, 138059, Note_on_c, 10, 73, 0
11, 138059, Note_on_c, 10, 69, 0
11, 138059, Note_on_c, 10, 64, 0
11, 138060, Note_on_c, 10, 69, 65
11, 138060, Note_on_c, 10, 66, 65
11, 138179, Note_on_c, 10, 66, 0
11, 138179, Note_on_c, 10, 69, 0
11, 138180, Note_on_c, 10, 64, 65
11, 138180, Note_on_c, 10, 67, 65
11, 138239, Note_on_c, 10, 67, 0
11, 138239, Note_on_c, 10, 64, 0
11, 138240, Note_on_c, 10, 66, 65
11, 138299, Note_on_c, 10, 66, 0
11, 138300, Note_on_c, 10, 66, 65
11, 138300, Note_on_c, 10, 62, 65
11, 138359, Note_on_c, 10, 62, 0
11, 138359, Note_on_c, 10, 66, 0
11, 138360, Note_on_c, 10, 67, 65
11, 138360, Note_on_c, 10, 64, 65
11, 138419, Note_on_c, 10, 64, 0
11, 138419, Note_on_c, 10, 67, 0
11, 138420, Note_on_c, 10, 62, 65
11, 138420, Note_on_c, 10, 66, 65
11, 138540, Note_on_c, 10, 66, 0
11, 138540, Note_on_c, 10, 62, 0
11, 138600, Note_on_c, 10, 66, 65
11, 138600, Note_on_c, 10, 69, 65
11, 138600, Note_on_c, 10, 74, 65
11, 138780, Note_on_c, 10, 74, 0
11, 138780, Note_on_c, 10, 69, 0
11, 138780, Note_on_c, 10, 66, 0
11, 138780, Note_on_c, 10, 66, 65
11, 138780, Note_on_c, 10, 69, 65
11, 138780, Note_on_c, 10, 74, 65
11, 138960, Note_on_c, 10, 74, 0
11, 138960, Note_on_c, 10, 69, 0
11, 138960, Note_on_c, 10, 66, 0
11, 138960, Note_on_c, 10, 64, 65
11, 138960, Note_on_c, 10, 69, 65
11, 138960, Note_on_c, 10, 73, 65
11, 139140, Note_on_c, 10, 73, 0
11, 139140, Note_on_c, 10, 69, 0
11, 139140, Note_on_c, 10, 64, 0
11, 139140, Note_on_c, 10, 67, 65
11, 139140, Note_on_c, 10, 69, 65
11, 139140, Note_on_c, 10, 73, 65
11, 139320, Note_on_c, 10, 73, 0
11, 139320, Note_on_c, 10, 69, 0
11, 139320, Note_on_c, 10, 67, 0
11, 139320, Note_on_c, 10, 74, 65
11, 139320, Note_on_c, 10, 69, 65
11, 139320, Note_on_c, 10, 66, 65
11, 139500, Note_on_c, 10, 66, 0
11, 139500, Note_on_c, 10, 69, 0
11, 139500, Note_on_c, 10, 74, 0
11, 139500, Note_on_c, 10, 62, 65
11, 139500, Note_on_c, 10, 69, 65
11, 139500, Note_on_c, 10, 78, 65
11, 139680, Note_on_c, 10, 78, 0
11, 139680, Note_on_c, 10, 69, 0
11, 139680, Note_on_c, 10, 62, 0
11, 139680, Note_on_c, 10, 76, 65
11, 139680, Note_on_c, 10, 69, 65
11, 139680, Note_on_c, 10, 73, 65
11, 139739, Note_on_c, 10, 76, 0
11, 139740, Note_on_c, 10, 76, 65
11, 139769, Note_on_c, 10, 76, 0
11, 139770, Note_on_c, 10, 74, 65
11, 139799, Note_on_c, 10, 74, 0
11, 139800, Note_on_c, 10, 73, 65
11, 139829, Note_on_c, 10, 73, 0
11, 139830, Note_on_c, 10, 71, 65
11, 139859, Note_on_c, 10, 71, 0
11, 139860, Note_on_c, 10, 73, 0
11, 139860, Note_on_c, 10, 69, 0
11, 139860, Note_on_c, 10, 69, 65
11, 139889, Note_on_c, 10, 69, 0
11, 139890, Note_on_c, 10, 73, 65
11, 139919, Note_on_c, 10, 73, 0
11, 139920, Note_on_c, 10, 74, 65
11, 139949, Note_on_c, 10, 74, 0
11, 139950, Note_on_c, 10, 73, 65
11, 139979, Note_on_c, 10, 73, 0
11, 139980, Note_on_c, 10, 71, 65
11, 140009, Note_on_c, 10, 71, 0
11, 140010, Note_on_c, 10, 69, 65
11, 140039, Note_on_c, 10, 69, 0
11, 140040, Note_on_c, 10, 71, 65
11, 140040, Note_on_c, 10, 62, 65
11, 140040, Note_on_c, 10, 67, 65
11, 140220, Note_on_c, 10, 67, 0
11, 140220, Note_on_c, 10, 62, 0
11, 140220, Note_on_c, 10, 71, 0
11, 140220, Note_on_c, 10, 64, 65
11, 140220, Note_on_c, 10, 69, 65
11, 140220, Note_on_c, 10, 73, 65
11, 140400, Note_on_c, 10, 73, 0
11, 140400, Note_on_c, 10, 69, 0
11, 140400, Note_on_c, 10, 64, 0
11, 140400, Note_on_c, 10, 74, 65
11, 140400, Note_on_c, 10, 69, 65
11, 140400, Note_on_c, 10, 66, 65
11, 140580, Note_on_c, 10, 66, 0
11, 140580, Note_on_c, 10, 69, 0
11, 140580, Note_on_c, 10, 74, 0
11, 140580, Note_on_c, 10, 69, 65
11, 140580, Note_on_c, 10, 66, 65
11, 140580, Note_on_c, 10, 62, 65
11, 140760, Note_on_c, 10, 62, 0
11, 140760, Note_on_c, 10, 66, 0
11, 140760, Note_on_c, 10, 69, 0
11, 140760, Note_on_c, 10, 74, 65
11, 140760, Note_on_c, 10, 67, 65
11, 140760, Note_on_c, 10, 64, 65
11, 140940, Note_on_c, 10, 64, 0
11, 140940, Note_on_c, 10, 67, 0
11, 140940, Note_on_c, 10, 74, 0
11, 140940, Note_on_c, 10, 64, 65
11, 140940, Note_on_c, 10, 74, 65
11, 140940, Note_on_c, 10, 68, 65
11, 141120, Note_on_c, 10, 68, 0
11, 141120, Note_on_c, 10, 74, 0
11, 141120, Note_on_c, 10, 64, 0
11, 141120, Note_on_c, 10, 76, 65
11, 141120, Note_on_c, 10, 69, 65
11, 141120, Note_on_c, 10, 64, 65
11, 141300, Note_on_c, 10, 64, 0
11, 141300, Note_on_c, 10, 69, 0
11, 141300, Note_on_c, 10, 76, 0
11, 141300, Note_on_c, 10, 67, 65
11, 141300, Note_on_c, 10, 73, 65
11, 141300, Note_on_c, 10, 76, 65
11, 141480, Note_on_c, 10, 76, 0
11, 141480, Note_on_c, 10, 73, 0
11, 141480, Note_on_c, 10, 67, 0
11, 141480, Note_on_c, 10, 64, 65
11, 141480, Note_on_c, 10, 73, 65
11, 141480, Note_on_c, 10, 67, 65
11, 141660, Note_on_c, 10, 67, 0
11, 141660, Note_on_c, 10, 73, 0
11, 141660, Note_on_c, 10, 64, 0
11, 141660, Note_on_c, 10, 64, 65
11, 141660, Note_on_c, 10, 73, 65
11, 141660, Note_on_c, 10, 69, 65
11, 141840, Note_on_c, 10, 69, 0
11, 141840, Note_on_c, 10, 73, 0
11, 141840, Note_on_c, 10, 64, 0
11, 141840, Note_on_c, 10, 66, 65
11, 141899, Note_on_c, 10, 66, 0
11, 141900, Note_on_c, 10, 67, 65
11, 141959, Note_on_c, 10, 67, 0
11, 141960, Note_on_c, 10, 64, 65
11, 142019, Note_on_c, 10, 64, 0
11, 142020, Note_on_c, 10, 66, 65
11, 142049, Note_on_c, 10, 66, 0
11, 142050, Note_on_c, 10, 67, 65
11, 142079, Note_on_c, 10, 67, 0
11, 142080, Note_on_c, 10, 66, 65
11, 142109, Note_on_c, 10, 66, 0
11, 142110, Note_on_c, 10, 64, 65
11, 142139, Note_on_c, 10, 64, 0
11, 142140, Note_on_c, 10, 61, 65
11, 142199, Note_on_c, 10, 61, 0
11, 142200, Note_on_c, 10, 62, 65
11, 142259, Note_on_c, 10, 62, 0
11, 142260, Note_on_c, 10, 69, 65
11, 142260, Note_on_c, 10, 74, 65
11, 142290, Note_on_c, 10, 69, 0
11, 142290, Note_on_c, 10, 67, 65
11, 142319, Note_on_c, 10, 74, 0
11, 142320, Note_on_c, 10, 67, 0
11, 142320, Note_on_c, 10, 66, 65
11, 142320, Note_on_c, 10, 69, 65
11, 142350, Note_on_c, 10, 66, 0
11, 142350, Note_on_c, 10, 64, 65
11, 142379, Note_on_c, 10, 69, 0
11, 142380, Note_on_c, 10, 64, 0
11, 142380, Note_on_c, 10, 62, 65
11, 142499, Note_on_c, 10, 62, 0
11, 142500, Note_on_c, 10, 70, 65
11, 142500, Note_on_c, 10, 66, 65
11, 142500, Note_on_c, 10, 73, 65
11, 142559, Note_on_c, 10, 73, 0
11, 142559, Note_on_c, 10, 66, 0
11, 142559, Note_on_c, 10, 70, 0
11, 142560, Note_on_c, 10, 66, 65
11, 142560, Note_on_c, 10, 74, 65
11, 142560, Note_on_c, 10, 71, 65
11, 142740, Note_on_c, 10, 71, 0
11, 142740, Note_on_c, 10, 74, 0
11, 142740, Note_on_c, 10, 66, 0
11, 142740, Note_on_c, 10, 66, 65
11, 142740, Note_on_c, 10, 71, 65
11, 142740, Note_on_c, 10, 74, 65
11, 142799, Note_on_c, 10, 74, 0
11, 142799, Note_on_c, 10, 71, 0
11, 142799, Note_on_c, 10, 66, 0
11, 142800, Note_on_c, 10, 76, 65
11, 142830, Note_on_c, 10, 76, 0
11, 142830, Note_on_c, 10, 74, 65
11, 142860, Note_on_c, 10, 74, 0
11, 142860, Note_on_c, 10, 73, 65
11, 142890, Note_on_c, 10, 73, 0
11, 142890, Note_on_c, 10, 71, 65
11, 142920, Note_on_c, 10, 71, 0
11, 142920, Note_on_c, 10, 64, 65
11, 142920, Note_on_c, 10, 69, 65
11, 142920, Note_on_c, 10, 73, 65
11, 143100, Note_on_c, 10, 73, 0
11, 143100, Note_on_c, 10, 69, 0
11, 143100, Note_on_c, 10, 64, 0
11, 143100, Note_on_c, 10, 64, 65
11, 143100, Note_on_c, 10, 69, 65
11, 143100, Note_on_c, 10, 73, 65
11, 143159, Note_on_c, 10, 73, 0
11, 143159, Note_on_c, 10, 69, 0
11, 143159, Note_on_c, 10, 64, 0
11, 143160, Note_on_c, 10, 69, 65
11, 143189, Note_on_c, 10, 69, 0
11, 143190, Note_on_c, 10, 68, 65
11, 143219, Note_on_c, 10, 68, 0
11, 143220, Note_on_c, 10, 66, 65
11, 143249, Note_on_c, 10, 66, 0
11, 143250, Note_on_c, 10, 64, 65
11, 143279, Note_on_c, 10, 64, 0
11, 143280, Note_on_c, 10, 62, 65
11, 143280, Note_on_c, 10, 66, 65
11, 143280, Note_on_c, 10, 71, 65
11, 143400, Note_on_c, 10, 71, 0
11, 143400, Note_on_c, 10, 66, 0
11, 143400, Note_on_c, 10, 62, 0
11, 143400, Note_on_c, 10, 68, 65
11, 143400, Note_on_c, 10, 64, 65
11, 143459, Note_on_c, 10, 64, 0
11, 143459, Note_on_c, 10, 68, 0
11, 143460, Note_on_c, 10, 64, 65
11, 143460, Note_on_c, 10, 73, 65
11, 143460, Note_on_c, 10, 69, 65
11, 143580, Note_on_c, 10, 69, 0
11, 143580, Note_on_c, 10, 73, 0
11, 143580, Note_on_c, 10, 64, 0
11, 143580, Note_on_c, 10, 68, 65
11, 143580, Note_on_c, 10, 61, 65
11, 143580, Note_on_c, 10, 66, 65
11, 143639, Note_on_c, 10, 66, 0
11, 143639, Note_on_c, 10, 61, 0
11, 143639, Note_on_c, 10, 68, 0
11, 143640, Note_on_c, 10, 65, 65
11, 143640, Note_on_c, 10, 68, 65
11, 143820, Note_on_c, 10, 68, 0
11, 143820, Note_on_c, 10, 65, 0
11, 143820, Note_on_c, 10, 73, 65
11, 143820, Note_on_c, 10, 65, 65
11, 143820, Note_on_c, 10, 68, 65
11, 144000, Note_on_c, 10, 68, 0
11, 144000, Note_on_c, 10, 65, 0
11, 144000, Note_on_c, 10, 73, 0
11, 144000, Note_on_c, 10, 69, 65
11, 144000, Note_on_c, 10, 61, 65
11, 144000, Note_on_c, 10, 66, 65
11, 144180, Note_on_c, 10, 66, 0
11, 144180, Note_on_c, 10, 61, 0
11, 144180, Note_on_c, 10, 69, 0
11, 144180, Note_on_c, 10, 61, 65
11, 144180, Note_on_c, 10, 66, 65
11, 144180, Note_on_c, 10, 69, 65
11, 144360, Note_on_c, 10, 69, 0
11, 144360, Note_on_c, 10, 66, 0
11, 144360, Note_on_c, 10, 61, 0
11, 144360, Note_on_c, 10, 61, 65
11, 144360, Note_on_c, 10, 68, 65
11, 144360, Note_on_c, 10, 65, 65
11, 144540, Note_on_c, 10, 65, 0
11, 144540, Note_on_c, 10, 68, 0
11, 144540, Note_on_c, 10, 61, 0
11, 144540, Note_on_c, 10, 65, 65
11, 144540, Note_on_c, 10, 68, 65
11, 144540, Note_on_c, 10, 73, 65
11, 144720, Note_on_c, 10, 73, 0
11, 144720, Note_on_c, 10, 68, 0
11, 144720, Note_on_c, 10, 65, 0
11, 144720, Note_on_c, 10, 61, 65
11, 144720, Note_on_c, 10, 70, 65
11, 144720, Note_on_c, 10, 66, 65
11, 144839, Note_on_c, 10, 66, 0
11, 144839, Note_on_c, 10, 70, 0
11, 144839, Note_on_c, 10, 61, 0
11, 144840, Note_on_c, 10, 66, 65
11, 144840, Note_on_c, 10, 73, 65
11, 144840, Note_on_c, 10, 70, 65
11, 144899, Note_on_c, 10, 70, 0
11, 144899, Note_on_c, 10, 73, 0
11, 144899, Note_on_c, 10, 66, 0
11, 144900, Note_on_c, 10, 62, 65
11, 144900, Note_on_c, 10, 66, 65
11, 144900, Note_on_c, 10, 71, 65
11, 145019, Note_on_c, 10, 71, 0
11, 145019, Note_on_c, 10, 66, 0
11, 145019, Note_on_c, 10, 62, 0
11, 145020, Note_on_c, 10, 71, 65
11, 145020, Note_on_c, 10, 62, 65
11, 145020, Note_on_c, 10, 68, 65
11, 145079, Note_on_c, 10, 68, 0
11, 145079, Note_on_c, 10, 62, 0
11, 145079, Note_on_c, 10, 71, 0
11, 145080, Note_on_c, 10, 65, 65
11, 145080, Note_on_c, 10, 69, 65
11, 145080, Note_on_c, 10, 73, 65
11, 145200, Note_on_c, 10, 73, 0
11, 145200, Note_on_c, 10, 69, 0
11, 145200, Note_on_c, 10, 65, 0
11, 145260, Note_on_c, 10, 61, 65
11, 145260, Note_on_c, 10, 69, 65
11, 145260, Note_on_c, 10, 66, 65
11, 145440, Note_on_c, 10, 66, 0
11, 145440, Note_on_c, 10, 69, 0
11, 145440, Note_on_c, 10, 61, 0
11, 145440, Note_on_c, 10, 71, 65
11, 145440, Note_on_c, 10, 66, 65
11, 145440, Note_on_c, 10, 63, 65
11, 145620, Note_on_c, 10, 63, 0
11, 145620, Note_on_c, 10, 66, 0
11, 145620, Note_on_c, 10, 71, 0
11, 145620, Note_on_c, 10, 73, 65
11, 145620, Note_on_c, 10, 68, 65
11, 145620, Note_on_c, 10, 65, 65
11, 145800, Note_on_c, 10, 65, 0
11, 145800, Note_on_c, 10, 68, 0
11, 145800, Note_on_c, 10, 73, 0
11, 145800, Note_on_c, 10, 73, 65
11, 145800, Note_on_c, 10, 69, 65
11, 145800, Note_on_c, 10, 66, 65
11, 145980, Note_on_c, 10, 66, 0
11, 145980, Note_on_c, 10, 69, 0
11, 145980, Note_on_c, 10, 73, 0
11, 145980, Note_on_c, 10, 66, 65
11, 145980, Note_on_c, 10, 69, 65
11, 145980, Note_on_c, 10, 74, 65
11, 146160, Note_on_c, 10, 74, 0
11, 146160, Note_on_c, 10, 69, 0
11, 146160, Note_on_c, 10, 66, 0
11, 146160, Note_on_c, 10, 68, 65
11, 146160, Note_on_c, 10, 74, 65
11, 146160, Note_on_c, 10, 71, 65
11, 146340, Note_on_c, 10, 71, 0
11, 146340, Note_on_c, 10, 74, 0
11, 146340, Note_on_c, 10, 68, 0
11, 146340, Note_on_c, 10, 68, 65
11, 146340, Note_on_c, 10, 63, 65
11, 146340, Note_on_c, 10, 72, 65
11, 146520, Note_on_c, 10, 72, 0
11, 146520, Note_on_c, 10, 63, 0
11, 146520, Note_on_c, 10, 68, 0
11, 146520, Note_on_c, 10, 65, 65
11, 146520, Note_on_c, 10, 68, 65
11, 146520, Note_on_c, 10, 73, 65
11, 146700, Note_on_c, 10, 73, 0
11, 146700, Note_on_c, 10, 68, 0
11, 146700, Note_on_c, 10, 65, 0
11, 146700, Note_on_c, 10, 68, 65
11, 146700, Note_on_c, 10, 62, 65
11, 146700, Note_on_c, 10, 71, 65
11, 146880, Note_on_c, 10, 71, 0
11, 146880, Note_on_c, 10, 62, 0
11, 146880, Note_on_c, 10, 68, 0
11, 146880, Note_on_c, 10, 68, 65
11, 146880, Note_on_c, 10, 62, 65
11, 146880, Note_on_c, 10, 71, 65
11, 147060, Note_on_c, 10, 71, 0
11, 147060, Note_on_c, 10, 62, 0
11, 147060, Note_on_c, 10, 68, 0
11, 147060, Note_on_c, 10, 61, 65
11, 147060, Note_on_c, 10, 68, 65
11, 147060, Note_on_c, 10, 65, 65
11, 147240, Note_on_c, 10, 65, 0
11, 147240, Note_on_c, 10, 68, 0
11, 147240, Note_on_c, 10, 61, 0
11, 147240, Note_on_c, 10, 69, 65
11, 147240, Note_on_c, 10, 73, 65
11, 147240, Note_on_c, 10, 66, 65
11, 147420, Note_on_c, 10, 66, 0
11, 147420, Note_on_c, 10, 73, 0
11, 147420, Note_on_c, 10, 69, 0
11, 147420, Note_on_c, 10, 69, 65
11, 147420, Note_on_c, 10, 73, 65
11, 147480, Note_on_c, 10, 73, 0
11, 147480, Note_on_c, 10, 69, 0
11, 147480, Note_on_c, 10, 78, 65
11, 147540, Note_on_c, 10, 78, 0
11, 147540, Note_on_c, 10, 71, 65
11, 147540, Note_on_c, 10, 77, 65
11, 147600, Note_on_c, 10, 77, 0
11, 147600, Note_on_c, 10, 71, 0
11, 147600, Note_on_c, 10, 69, 65
11, 147600, Note_on_c, 10, 73, 65
11, 147600, Note_on_c, 10, 78, 65
11, 147839, Note_on_c, 10, 78, 0
11, 147839, Note_on_c, 10, 73, 0
11, 147839, Note_on_c, 10, 69, 0
11, 147900, Note_on_c, 10, 66, 65
11, 147900, Note_on_c, 10, 69, 65
11, 147960, Note_on_c, 10, 69, 0
11, 147960, Note_on_c, 10, 66, 0
11, 147960, Note_on_c, 10, 65, 65
11, 147960, Note_on_c, 10, 68, 65
11, 148020, Note_on_c, 10, 68, 0
11, 148020, Note_on_c, 10, 65, 0
11, 148020, Note_on_c, 10, 73, 65
11, 148050, Note_on_c, 10, 73, 0
11, 148050, Note_on_c, 10, 71, 65
11, 148080, Note_on_c, 10, 71, 0
11, 148080, Note_on_c, 10, 69, 65
11, 148110, Note_on_c, 10, 69, 0
11, 148110, Note_on_c, 10, 68, 65
11, 148140, Note_on_c, 10, 68, 0
11, 148140, Note_on_c, 10, 66, 65
11, 148200, Note_on_c, 10, 66, 0
11, 148200, Note_on_c, 10, 68, 65
11, 148260, Note_on_c, 10, 68, 0
11, 148260, Note_on_c, 10, 69, 65
11, 148320, Note_on_c, 10, 69, 0
11, 148320, Note_on_c, 10, 71, 65
11, 148380, Note_on_c, 10, 71, 0
11, 148380, Note_on_c, 10, 76, 65
11, 148410, Note_on_c, 10, 76, 0
11, 148410, Note_on_c, 10, 74, 65
11, 148440, Note_on_c, 10, 74, 0
11, 148440, Note_on_c, 10, 73, 65
11, 148470, Note_on_c, 10, 73, 0
11, 148470, Note_on_c, 10, 71, 65
11, 148500, Note_on_c, 10, 71, 0
11, 148500, Note_on_c, 10, 69, 65
11, 148560, Note_on_c, 10, 69, 0
11, 148560, Note_on_c, 10, 71, 65
11, 148620, Note_on_c, 10, 71, 0
11, 148620, Note_on_c, 10, 73, 65
11, 148680, Note_on_c, 10, 73, 0
11, 148680, Note_on_c, 10, 74, 65
11, 148740, Note_on_c, 10, 74, 0
11, 148740, Note_on_c, 10, 76, 65
11, 148770, Note_on_c, 10, 76, 0
11, 148770, Note_on_c, 10, 74, 65
11, 148800, Note_on_c, 10, 74, 0
11, 148800, Note_on_c, 10, 73, 65
11, 148830, Note_on_c, 10, 73, 0
11, 148830, Note_on_c, 10, 71, 65
11, 148860, Note_on_c, 10, 71, 0
11, 148860, Note_on_c, 10, 76, 65
11, 148920, Note_on_c, 10, 76, 0
11, 148920, Note_on_c, 10, 78, 65
11, 148950, Note_on_c, 10, 78, 0
11, 148950, Note_on_c, 10, 76, 65
11, 148980, Note_on_c, 10, 76, 0
11, 148980, Note_on_c, 10, 74, 65
11, 149010, Note_on_c, 10, 74, 0
11, 149010, Note_on_c, 10, 73, 65
11, 149040, Note_on_c, 10, 73, 0
11, 149040, Note_on_c, 10, 74, 65
11, 149100, Note_on_c, 10, 74, 0
11, 149100, Note_on_c, 10, 76, 65
11, 149130, Note_on_c, 10, 76, 0
11, 149130, Note_on_c, 10, 74, 65
11, 149160, Note_on_c, 10, 74, 0
11, 149160, Note_on_c, 10, 73, 65
11, 149190, Note_on_c, 10, 73, 0
11, 149190, Note_on_c, 10, 71, 65
11, 149220, Note_on_c, 10, 71, 0
11, 149220, Note_on_c, 10, 70, 65
11, 149279, Note_on_c, 10, 70, 0
11, 149280, Note_on_c, 10, 73, 65
11, 149309, Note_on_c, 10, 73, 0
11, 149310, Note_on_c, 10, 71, 65
11, 149339, Note_on_c, 10, 71, 0
11, 149340, Note_on_c, 10, 70, 65
11, 149369, Note_on_c, 10, 70, 0
11, 149370, Note_on_c, 10, 66, 65
11, 149399, Note_on_c, 10, 66, 0
11, 149400, Note_on_c, 10, 71, 65
11, 149400, Note_on_c, 10, 62, 65
11, 149400, Note_on_c, 10, 66, 65
11, 149580, Note_on_c, 10, 66, 0
11, 149580, Note_on_c, 10, 62, 0
11, 149580, Note_on_c, 10, 71, 0
11, 149580, Note_on_c, 10, 59, 65
11, 149580, Note_on_c, 10, 62, 65
11, 149580, Note_on_c, 10, 66, 65
11, 149760, Note_on_c, 10, 66, 0
11, 149760, Note_on_c, 10, 62, 0
11, 149760, Note_on_c, 10, 59, 0
11, 149760, Note_on_c, 10, 61, 65
11, 149760, Note_on_c, 10, 70, 65
11, 149760, Note_on_c, 10, 66, 65
11, 149940, Note_on_c, 10, 66, 0
11, 149940, Note_on_c, 10, 70, 0
11, 149940, Note_on_c, 10, 61, 0
11, 150000, Note_on_c, 10, 70, 65
11, 150000, Note_on_c, 10, 66, 65
11, 150059, Note_on_c, 10, 66, 0
11, 150059, Note_on_c, 10, 70, 0
11, 150060, Note_on_c, 10, 73, 65
11, 150060, Note_on_c, 10, 70, 65
11, 150060, Note_on_c, 10, 64, 65
11, 150119, Note_on_c, 10, 64, 0
11, 150119, Note_on_c, 10, 70, 0
11, 150119, Note_on_c, 10, 73, 0
11, 150120, Note_on_c, 10, 66, 65
11, 150120, Note_on_c, 10, 62, 65
11, 150179, Note_on_c, 10, 62, 0
11, 150179, Note_on_c, 10, 66, 0
11, 150180, Note_on_c, 10, 64, 65
11, 150180, Note_on_c, 10, 61, 65
11, 150239, Note_on_c, 10, 61, 0
11, 150239, Note_on_c, 10, 64, 0
11, 150240, Note_on_c, 10, 62, 65
11, 150240, Note_on_c, 10, 59, 65
11, 150299, Note_on_c, 10, 59, 0
11, 150299, Note_on_c, 10, 62, 0
11, 150300, Note_on_c, 10, 59, 65
11, 150300, Note_on_c, 10, 64, 65
11, 150300, Note_on_c, 10, 67, 65
11, 150419, Note_on_c, 10, 67, 0
11, 150419, Note_on_c, 10, 64, 0
11, 150419, Note_on_c, 10, 59, 0
11, 150420, Note_on_c, 10, 67, 65
11, 150420, Note_on_c, 10, 61, 65
11, 150420, Note_on_c, 10, 64, 65
11, 150479, Note_on_c, 10, 64, 0
11, 150479, Note_on_c, 10, 61, 0
11, 150479, Note_on_c, 10, 67, 0
11, 150480, Note_on_c, 10, 61, 65
11, 150480, Note_on_c, 10, 66, 65
11, 150480, Note_on_c, 10, 70, 65
11, 150539, Note_on_c, 10, 70, 0
11, 150539, Note_on_c, 10, 66, 0
11, 150539, Note_on_c, 10, 61, 0
11, 150540, Note_on_c, 10, 73, 65
11, 150540, Note_on_c, 10, 70, 65
11, 150629, Note_on_c, 10, 70, 0
11, 150629, Note_on_c, 10, 73, 0
11, 150630, Note_on_c, 10, 71, 65
11, 150630, Note_on_c, 10, 74, 65
11, 150659, Note_on_c, 10, 74, 0
11, 150659, Note_on_c, 10, 71, 0
11, 150660, Note_on_c, 10, 74, 65
11, 150660, Note_on_c, 10, 71, 65
11, 150660, Note_on_c, 10, 66, 65
11, 150660, Note_on_c, 10, 62, 65
11, 150780, Note_on_c, 10, 62, 0
11, 150780, Note_on_c, 10, 74, 0
11, 150780, Note_on_c, 10, 71, 0
11, 150780, Note_on_c, 10, 66, 0
11, 150840, Note_on_c, 10, 66, 65
11, 150840, Note_on_c, 10, 69, 65
11, 150840, Note_on_c, 10, 74, 65
11, 151080, Note_on_c, 10, 74, 0
11, 151080, Note_on_c, 10, 72, 65
11, 151320, Note_on_c, 10, 72, 0
11, 151320, Note_on_c, 10, 69, 0
11, 151320, Note_on_c, 10, 66, 0
11, 151320, Note_on_c, 10, 62, 65
11, 151320, Note_on_c, 10, 67, 65
11, 151320, Note_on_c, 10, 71, 65
11, 151800, Note_on_c, 10, 71, 0
11, 151800, Note_on_c, 10, 67, 0
11, 151800, Note_on_c, 10, 62, 0
11, 151800, Note_on_c, 10, 71, 65
11, 151800, Note_on_c, 10, 62, 65
11, 151800, Note_on_c, 10, 66, 65
11, 152280, Note_on_c, 10, 66, 0
11, 152280, Note_on_c, 10, 62, 0
11, 152280, Note_on_c, 10, 71, 0
11, 152280, Note_on_c, 10, 60, 65
11, 152280, Note_on_c, 10, 67, 65
11, 152280, Note_on_c, 10, 64, 65
11, 152520, Note_on_c, 10, 64, 0
11, 152520, Note_on_c, 10, 67, 0
11, 152520, Note_on_c, 10, 60, 0
11, 152520, Note_on_c, 10, 62, 65
11, 152520, Note_on_c, 10, 68, 65
11, 152520, Note_on_c, 10, 65, 65
11, 152640, Note_on_c, 10, 65, 0
11, 152640, Note_on_c, 10, 64, 65
11, 152760, Note_on_c, 10, 64, 0
11, 152760, Note_on_c, 10, 68, 0
11, 152760, Note_on_c, 10, 62, 0
11, 152760, Note_on_c, 10, 71, 65
11, 152760, Note_on_c, 10, 62, 65
11, 152760, Note_on_c, 10, 68, 65
11, 152880, Note_on_c, 10, 68, 0
11, 152880, Note_on_c, 10, 62, 0
11, 152880, Note_on_c, 10, 71, 0
11, 152880, Note_on_c, 10, 68, 65
11, 152880, Note_on_c, 10, 71, 65
11, 152880, Note_on_c, 10, 76, 65
11, 152880, Note_on_c, 10, 74, 65
11, 153000, Note_on_c, 10, 74, 0
11, 153000, Note_on_c, 10, 68, 0
11, 153000, Note_on_c, 10, 71, 0
11, 153000, Note_on_c, 10, 76, 0
11, 153000, Note_on_c, 10, 64, 65
11, 153000, Note_on_c, 10, 69, 65
11, 153000, Note_on_c, 10, 72, 65
11, 153120, Note_on_c, 10, 72, 0
11, 153120, Note_on_c, 10, 69, 0
11, 153120, Note_on_c, 10, 64, 0
11, 153120, Note_on_c, 10, 69, 65
11, 153120, Note_on_c, 10, 66, 65
11, 153120, Note_on_c, 10, 74, 65
11, 153120, Note_on_c, 10, 72, 65
11, 153240, Note_on_c, 10, 72, 0
11, 153240, Note_on_c, 10, 69, 0
11, 153240, Note_on_c, 10, 66, 0
11, 153240, Note_on_c, 10, 74, 0
11, 153240, Note_on_c, 10, 62, 65
11, 153240, Note_on_c, 10, 67, 65
11, 153240, Note_on_c, 10, 71, 65
11, 153360, Note_on_c, 10, 71, 0
11, 153360, Note_on_c, 10, 67, 0
11, 153360, Note_on_c, 10, 62, 0
11, 153360, Note_on_c, 10, 74, 65
11, 153360, Note_on_c, 10, 62, 65
11, 153360, Note_on_c, 10, 66, 65
11, 153360, Note_on_c, 10, 69, 65
11, 153419, Note_on_c, 10, 69, 0
11, 153419, Note_on_c, 10, 74, 0
11, 153419, Note_on_c, 10, 62, 0
11, 153419, Note_on_c, 10, 66, 0
11, 153420, Note_on_c, 10, 66, 65
11, 153420, Note_on_c, 10, 69, 65
11, 153420, Note_on_c, 10, 72, 65
11, 153479, Note_on_c, 10, 72, 0
11, 153479, Note_on_c, 10, 69, 0
11, 153479, Note_on_c, 10, 66, 0
11, 153480, Note_on_c, 10, 62, 65
11, 153480, Note_on_c, 10, 67, 65
11, 153480, Note_on_c, 10, 71, 65
11, 153719, Note_on_c, 10, 71, 0
11, 153719, Note_on_c, 10, 67, 0
11, 153719, Note_on_c, 10, 62, 0
11, 153719, End_track
12, 0, Start_track
12, 0, MIDI_port, 0
12, 0, Title_t, "Continuo L"
12, 0, Program_c, 11, 6
12, 0, Note_on_c, 11, 43, 90
12, 119, Note_on_c, 11, 43, 0
12, 240, Note_on_c, 11, 43, 90
12, 359, Note_on_c, 11, 43, 0
12, 480, Note_on_c, 11, 45, 90
12, 599, Note_on_c, 11, 45, 0
12, 720, Note_on_c, 11, 47, 90
12, 839, Note_on_c, 11, 47, 0
12, 960, Note_on_c, 11, 48, 90
12, 1079, Note_on_c, 11, 48, 0
12, 1200, Note_on_c, 11, 48, 90
12, 1319, Note_on_c, 11, 48, 0
12, 1440, Note_on_c, 11, 47, 90
12, 1559, Note_on_c, 11, 47, 0
12, 1680, Note_on_c, 11, 52, 90
12, 1799, Note_on_c, 11, 52, 0
12, 1920, Note_on_c, 11, 45, 90
12, 2039, Note_on_c, 11, 45, 0
12, 2160, Note_on_c, 11, 48, 90
12, 2279, Note_on_c, 11, 48, 0
12, 2400, Note_on_c, 11, 47, 90
12, 2519, Note_on_c, 11, 47, 0
12, 2640, Note_on_c, 11, 42, 90
12, 2759, Note_on_c, 11, 42, 0
12, 2880, Note_on_c, 11, 43, 90
12, 2999, Note_on_c, 11, 43, 0
12, 3120, Note_on_c, 11, 44, 90
12, 3239, Note_on_c, 11, 44, 0
12, 3360, Note_on_c, 11, 46, 90
12, 3479, Note_on_c, 11, 46, 0
12, 3600, Note_on_c, 11, 47, 90
12, 3719, Note_on_c, 11, 47, 0
12, 3720, Note_on_c, 11, 49, 90
12, 3839, Note_on_c, 11, 49, 0
12, 3840, Note_on_c, 11, 50, 90
12, 3899, Note_on_c, 11, 50, 0
12, 3900, Note_on_c, 11, 55, 90
12, 3959, Note_on_c, 11, 55, 0
12, 3960, Note_on_c, 11, 57, 90
12, 4019, Note_on_c, 11, 57, 0
12, 4020, Note_on_c, 11, 45, 90
12, 4079, Note_on_c, 11, 45, 0
12, 4080, Note_on_c, 11, 50, 90
12, 4199, Note_on_c, 11, 50, 0
12, 4320, Note_on_c, 11, 48, 90
12, 4439, Note_on_c, 11, 48, 0
12, 4560, Note_on_c, 11, 47, 90
12, 4679, Note_on_c, 11, 47, 0
12, 4800, Note_on_c, 11, 52, 90
12, 4919, Note_on_c, 11, 52, 0
12, 5040, Note_on_c, 11, 45, 90
12, 5159, Note_on_c, 11, 45, 0
12, 5280, Note_on_c, 11, 50, 90
12, 5399, Note_on_c, 11, 50, 0
12, 5520, Note_on_c, 11, 48, 90
12, 5639, Note_on_c, 11, 48, 0
12, 5700, Note_on_c, 11, 48, 90
12, 5759, Note_on_c, 11, 48, 0
12, 5760, Note_on_c, 11, 46, 90
12, 5819, Note_on_c, 11, 46, 0
12, 5820, Note_on_c, 11, 48, 90
12, 5879, Note_on_c, 11, 48, 0
12, 5880, Note_on_c, 11, 50, 90
12, 5939, Note_on_c, 11, 50, 0
12, 5940, Note_on_c, 11, 38, 90
12, 5999, Note_on_c, 11, 38, 0
12, 6000, Note_on_c, 11, 43, 90
12, 6119, Note_on_c, 11, 43, 0
12, 6240, Note_on_c, 11, 41, 90
12, 6359, Note_on_c, 11, 41, 0
12, 6480, Note_on_c, 11, 40, 90
12, 6599, Note_on_c, 11, 40, 0
12, 6720, Note_on_c, 11, 38, 90
12, 6839, Note_on_c, 11, 38, 0
12, 6900, Note_on_c, 11, 43, 90
12, 6959, Note_on_c, 11, 43, 0
12, 6960, Note_on_c, 11, 48, 90
12, 6989, Note_on_c, 11, 48, 0
12, 6990, Note_on_c, 11, 47, 90
12, 7019, Note_on_c, 11, 47, 0
12, 7020, Note_on_c, 11, 45, 90
12, 7049, Note_on_c, 11, 45, 0
12, 7050, Note_on_c, 11, 43, 90
12, 7079, Note_on_c, 11, 43, 0
12, 7080, Note_on_c, 11, 50, 90
12, 7139, Note_on_c, 11, 50, 0
12, 7140, Note_on_c, 11, 38, 90
12, 7199, Note_on_c, 11, 38, 0
12, 7200, Note_on_c, 11, 43, 90
12, 7319, Note_on_c, 11, 43, 0
12, 7440, Note_on_c, 11, 43, 90
12, 7559, Note_on_c, 11, 43, 0
12, 7680, Note_on_c, 11, 43, 90
12, 7799, Note_on_c, 11, 43, 0
12, 7920, Note_on_c, 11, 45, 90
12, 8039, Note_on_c, 11, 45, 0
12, 8160, Note_on_c, 11, 47, 90
12, 8219, Note_on_c, 11, 47, 0
12, 8220, Note_on_c, 11, 48, 90
12, 8279, Note_on_c, 11, 48, 0
12, 8280, Note_on_c, 11, 50, 90
12, 8339, Note_on_c, 11, 50, 0
12, 8340, Note_on_c, 11, 47, 90
12, 8399, Note_on_c, 11, 47, 0
12, 8400, Note_on_c, 11, 52, 90
12, 8459, Note_on_c, 11, 52, 0
12, 8460, Note_on_c, 11, 48, 90
12, 8519, Note_on_c, 11, 48, 0
12, 8520, Note_on_c, 11, 50, 90
12, 8579, Note_on_c, 11, 50, 0
12, 8580, Note_on_c, 11, 38, 90
12, 8639, Note_on_c, 11, 38, 0
12, 8640, Note_on_c, 11, 43, 90
12, 8699, Note_on_c, 11, 43, 0
12, 8700, Note_on_c, 11, 55, 90
12, 8759, Note_on_c, 11, 55, 0
12, 8760, Note_on_c, 11, 54, 90
12, 8819, Note_on_c, 11, 54, 0
12, 8820, Note_on_c, 11, 52, 90
12, 8879, Note_on_c, 11, 52, 0
12, 8880, Note_on_c, 11, 50, 90
12, 8939, Note_on_c, 11, 50, 0
12, 8940, Note_on_c, 11, 54, 90
12, 8999, Note_on_c, 11, 54, 0
12, 9000, Note_on_c, 11, 55, 90
12, 9059, Note_on_c, 11, 55, 0
12, 9060, Note_on_c, 11, 52, 90
12, 9119, Note_on_c, 11, 52, 0
12, 9120, Note_on_c, 11, 57, 90
12, 9179, Note_on_c, 11, 57, 0
12, 9180, Note_on_c, 11, 59, 90
12, 9239, Note_on_c, 11, 59, 0
12, 9240, Note_on_c, 11, 61, 90
12, 9299, Note_on_c, 11, 61, 0
12, 9300, Note_on_c, 11, 62, 90
12, 9359, Note_on_c, 11, 62, 0
12, 9360, Note_on_c, 11, 57, 90
12, 9419, Note_on_c, 11, 57, 0
12, 9420, Note_on_c, 11, 59, 90
12, 9479, Note_on_c, 11, 59, 0
12, 9480, Note_on_c, 11, 61, 90
12, 9539, Note_on_c, 11, 61, 0
12, 9540, Note_on_c, 11, 62, 90
12, 9599, Note_on_c, 11, 62, 0
12, 9600, Note_on_c, 11, 57, 90
12, 9659, Note_on_c, 11, 57, 0
12, 9660, Note_on_c, 11, 55, 90
12, 9719, Note_on_c, 11, 55, 0
12, 9720, Note_on_c, 11, 54, 90
12, 9779, Note_on_c, 11, 54, 0
12, 9780, Note_on_c, 11, 52, 90
12, 9839, Note_on_c, 11, 52, 0
12, 9840, Note_on_c, 11, 59, 90
12, 9899, Note_on_c, 11, 59, 0
12, 9900, Note_on_c, 11, 55, 90
12, 9959, Note_on_c, 11, 55, 0
12, 9960, Note_on_c, 11, 54, 90
12, 10019, Note_on_c, 11, 54, 0
12, 10020, Note_on_c, 11, 52, 90
12, 10079, Note_on_c, 11, 52, 0
12, 10080, Note_on_c, 11, 59, 90
12, 10139, Note_on_c, 11, 59, 0
12, 10140, Note_on_c, 11, 57, 90
12, 10199, Note_on_c, 11, 57, 0
12, 10200, Note_on_c, 11, 59, 90
12, 10259, Note_on_c, 11, 59, 0
12, 10260, Note_on_c, 11, 55, 90
12, 10319, Note_on_c, 11, 55, 0
12, 10320, Note_on_c, 11, 60, 90
12, 10379, Note_on_c, 11, 60, 0
12, 10380, Note_on_c, 11, 57, 90
12, 10439, Note_on_c, 11, 57, 0
12, 10440, Note_on_c, 11, 59, 90
12, 10499, Note_on_c, 11, 59, 0
12, 10500, Note_on_c, 11, 47, 90
12, 10559, Note_on_c, 11, 47, 0
12, 10560, Note_on_c, 11, 52, 90
12, 10619, Note_on_c, 11, 52, 0
12, 10620, Note_on_c, 11, 54, 90
12, 10679, Note_on_c, 11, 54, 0
12, 10680, Note_on_c, 11, 55, 90
12, 10739, Note_on_c, 11, 55, 0
12, 10740, Note_on_c, 11, 52, 90
12, 10799, Note_on_c, 11, 52, 0
12, 10800, Note_on_c, 11, 54, 90
12, 10859, Note_on_c, 11, 54, 0
12, 10860, Note_on_c, 11, 50, 90
12, 10919, Note_on_c, 11, 50, 0
12, 10920, Note_on_c, 11, 55, 90
12, 10979, Note_on_c, 11, 55, 0
12, 10980, Note_on_c, 11, 43, 90
12, 11039, Note_on_c, 11, 43, 0
12, 11040, Note_on_c, 11, 50, 90
12, 11099, Note_on_c, 11, 50, 0
12, 11100, Note_on_c, 11, 52, 90
12, 11159, Note_on_c, 11, 52, 0
12, 11160, Note_on_c, 11, 54, 90
12, 11219, Note_on_c, 11, 54, 0
12, 11220, Note_on_c, 11, 55, 90
12, 11279, Note_on_c, 11, 55, 0
12, 11280, Note_on_c, 11, 50, 90
12, 11339, Note_on_c, 11, 50, 0
12, 11340, Note_on_c, 11, 52, 90
12, 11399, Note_on_c, 11, 52, 0
12, 11400, Note_on_c, 11, 54, 90
12, 11459, Note_on_c, 11, 54, 0
12, 11460, Note_on_c, 11, 55, 90
12, 11519, Note_on_c, 11, 55, 0
12, 11520, Note_on_c, 11, 50, 90
12, 11579, Note_on_c, 11, 50, 0
12, 11580, Note_on_c, 11, 48, 90
12, 11639, Note_on_c, 11, 48, 0
12, 11640, Note_on_c, 11, 47, 90
12, 11699, Note_on_c, 11, 47, 0
12, 11700, Note_on_c, 11, 45, 90
12, 11759, Note_on_c, 11, 45, 0
12, 11760, Note_on_c, 11, 52, 90
12, 11819, Note_on_c, 11, 52, 0
12, 11820, Note_on_c, 11, 48, 90
12, 11879, Note_on_c, 11, 48, 0
12, 11880, Note_on_c, 11, 47, 90
12, 11939, Note_on_c, 11, 47, 0
12, 11940, Note_on_c, 11, 45, 90
12, 11999, Note_on_c, 11, 45, 0
12, 12000, Note_on_c, 11, 52, 90
12, 12059, Note_on_c, 11, 52, 0
12, 12060, Note_on_c, 11, 50, 90
12, 12089, Note_on_c, 11, 50, 0
12, 12090, Note_on_c, 11, 48, 90
12, 12119, Note_on_c, 11, 48, 0
12, 12120, Note_on_c, 11, 47, 90
12, 12179, Note_on_c, 11, 47, 0
12, 12180, Note_on_c, 11, 43, 90
12, 12239, Note_on_c, 11, 43, 0
12, 12240, Note_on_c, 11, 48, 90
12, 12299, Note_on_c, 11, 48, 0
12, 12300, Note_on_c, 11, 52, 90
12, 12359, Note_on_c, 11, 52, 0
12, 12360, Note_on_c, 11, 53, 90
12, 12419, Note_on_c, 11, 53, 0
12, 12420, Note_on_c, 11, 50, 90
12, 12479, Note_on_c, 11, 50, 0
12, 12480, Note_on_c, 11, 55, 90
12, 12539, Note_on_c, 11, 55, 0
12, 12540, Note_on_c, 11, 57, 90
12, 12599, Note_on_c, 11, 57, 0
12, 12600, Note_on_c, 11, 59, 90
12, 12659, Note_on_c, 11, 59, 0
12, 12660, Note_on_c, 11, 60, 90
12, 12719, Note_on_c, 11, 60, 0
12, 12720, Note_on_c, 11, 55, 90
12, 12779, Note_on_c, 11, 55, 0
12, 12780, Note_on_c, 11, 57, 90
12, 12839, Note_on_c, 11, 57, 0
12, 12840, Note_on_c, 11, 59, 90
12, 12899, Note_on_c, 11, 59, 0
12, 12900, Note_on_c, 11, 60, 90
12, 12959, Note_on_c, 11, 60, 0
12, 12960, Note_on_c, 11, 55, 90
12, 13019, Note_on_c, 11, 55, 0
12, 13020, Note_on_c, 11, 54, 90
12, 13079, Note_on_c, 11, 54, 0
12, 13080, Note_on_c, 11, 52, 90
12, 13139, Note_on_c, 11, 52, 0
12, 13140, Note_on_c, 11, 50, 90
12, 13199, Note_on_c, 11, 50, 0
12, 13200, Note_on_c, 11, 57, 90
12, 13259, Note_on_c, 11, 57, 0
12, 13260, Note_on_c, 11, 54, 90
12, 13319, Note_on_c, 11, 54, 0
12, 13320, Note_on_c, 11, 52, 90
12, 13379, Note_on_c, 11, 52, 0
12, 13380, Note_on_c, 11, 50, 90
12, 13439, Note_on_c, 11, 50, 0
12, 13440, Note_on_c, 11, 57, 90
12, 13499, Note_on_c, 11, 57, 0
12, 13500, Note_on_c, 11, 55, 90
12, 13559, Note_on_c, 11, 55, 0
12, 13560, Note_on_c, 11, 57, 90
12, 13619, Note_on_c, 11, 57, 0
12, 13620, Note_on_c, 11, 54, 90
12, 13679, Note_on_c, 11, 54, 0
12, 13680, Note_on_c, 11, 59, 90
12, 13739, Note_on_c, 11, 59, 0
12, 13740, Note_on_c, 11, 55, 90
12, 13799, Note_on_c, 11, 55, 0
12, 13800, Note_on_c, 11, 52, 90
12, 13859, Note_on_c, 11, 52, 0
12, 13860, Note_on_c, 11, 55, 90
12, 13919, Note_on_c, 11, 55, 0
12, 13920, Note_on_c, 11, 57, 90
12, 13979, Note_on_c, 11, 57, 0
12, 13980, Note_on_c, 11, 54, 90
12, 14039, Note_on_c, 11, 54, 0
12, 14040, Note_on_c, 11, 50, 90
12, 14099, Note_on_c, 11, 50, 0
12, 14100, Note_on_c, 11, 54, 90
12, 14159, Note_on_c, 11, 54, 0
12, 14160, Note_on_c, 11, 55, 90
12, 14219, Note_on_c, 11, 55, 0
12, 14220, Note_on_c, 11, 52, 90
12, 14279, Note_on_c, 11, 52, 0
12, 14280, Note_on_c, 11, 49, 90
12, 14339, Note_on_c, 11, 49, 0
12, 14340, Note_on_c, 11, 47, 90
12, 14399, Note_on_c, 11, 47, 0
12, 14400, Note_on_c, 11, 46, 90
12, 14429, Note_on_c, 11, 46, 0
12, 14430, Note_on_c, 11, 54, 90
12, 14459, Note_on_c, 11, 54, 0
12, 14460, Note_on_c, 11, 59, 90
12, 14489, Note_on_c, 11, 59, 0
12, 14490, Note_on_c, 11, 52, 90
12, 14519, Note_on_c, 11, 52, 0
12, 14520, Note_on_c, 11, 54, 90
12, 14579, Note_on_c, 11, 54, 0
12, 14580, Note_on_c, 11, 42, 90
12, 14639, Note_on_c, 11, 42, 0
12, 14640, Note_on_c, 11, 47, 90
12, 14699, Note_on_c, 11, 47, 0
12, 14700, Note_on_c, 11, 49, 90
12, 14759, Note_on_c, 11, 49, 0
12, 14760, Note_on_c, 11, 50, 90
12, 14819, Note_on_c, 11, 50, 0
12, 14820, Note_on_c, 11, 47, 90
12, 14879, Note_on_c, 11, 47, 0
12, 14880, Note_on_c, 11, 52, 90
12, 14939, Note_on_c, 11, 52, 0
12, 14940, Note_on_c, 11, 55, 90
12, 14999, Note_on_c, 11, 55, 0
12, 15000, Note_on_c, 11, 57, 90
12, 15059, Note_on_c, 11, 57, 0
12, 15060, Note_on_c, 11, 45, 90
12, 15119, Note_on_c, 11, 45, 0
12, 15120, Note_on_c, 11, 50, 90
12, 15179, Note_on_c, 11, 50, 0
12, 15180, Note_on_c, 11, 52, 90
12, 15239, Note_on_c, 11, 52, 0
12, 15240, Note_on_c, 11, 54, 90
12, 15299, Note_on_c, 11, 54, 0
12, 15300, Note_on_c, 11, 50, 90
12, 15359, Note_on_c, 11, 50, 0
12, 15360, Note_on_c, 11, 55, 90
12, 15419, Note_on_c, 11, 55, 0
12, 15420, Note_on_c, 11, 54, 90
12, 15479, Note_on_c, 11, 54, 0
12, 15480, Note_on_c, 11, 52, 90
12, 15539, Note_on_c, 11, 52, 0
12, 15540, Note_on_c, 11, 55, 90
12, 15599, Note_on_c, 11, 55, 0
12, 15600, Note_on_c, 11, 57, 90
12, 15659, Note_on_c, 11, 57, 0
12, 15660, Note_on_c, 11, 55, 90
12, 15719, Note_on_c, 11, 55, 0
12, 15720, Note_on_c, 11, 54, 90
12, 15779, Note_on_c, 11, 54, 0
12, 15780, Note_on_c, 11, 57, 90
12, 15839, Note_on_c, 11, 57, 0
12, 15840, Note_on_c, 11, 59, 90
12, 15899, Note_on_c, 11, 59, 0
12, 15900, Note_on_c, 11, 57, 90
12, 15929, Note_on_c, 11, 57, 0
12, 15930, Note_on_c, 11, 55, 90
12, 15959, Note_on_c, 11, 55, 0
12, 15960, Note_on_c, 11, 57, 90
12, 16019, Note_on_c, 11, 57, 0
12, 16020, Note_on_c, 11, 45, 90
12, 16079, Note_on_c, 11, 45, 0
12, 16080, Note_on_c, 11, 50, 90
12, 16199, Note_on_c, 11, 50, 0
12, 16320, Note_on_c, 11, 43, 90
12, 16439, Note_on_c, 11, 43, 0
12, 16560, Note_on_c, 11, 43, 90
12, 16679, Note_on_c, 11, 43, 0
12, 16800, Note_on_c, 11, 45, 90
12, 16919, Note_on_c, 11, 45, 0
12, 17040, Note_on_c, 11, 47, 90
12, 17159, Note_on_c, 11, 47, 0
12, 17280, Note_on_c, 11, 48, 90
12, 17399, Note_on_c, 11, 48, 0
12, 17520, Note_on_c, 11, 48, 90
12, 17639, Note_on_c, 11, 48, 0
12, 17760, Note_on_c, 11, 47, 90
12, 17879, Note_on_c, 11, 47, 0
12, 18000, Note_on_c, 11, 52, 90
12, 18119, Note_on_c, 11, 52, 0
12, 18240, Note_on_c, 11, 45, 90
12, 18359, Note_on_c, 11, 45, 0
12, 18480, Note_on_c, 11, 48, 90
12, 18599, Note_on_c, 11, 48, 0
12, 18720, Note_on_c, 11, 47, 90
12, 18839, Note_on_c, 11, 47, 0
12, 18960, Note_on_c, 11, 42, 90
12, 19079, Note_on_c, 11, 42, 0
12, 19200, Note_on_c, 11, 43, 90
12, 19319, Note_on_c, 11, 43, 0
12, 19440, Note_on_c, 11, 44, 90
12, 19559, Note_on_c, 11, 44, 0
12, 19680, Note_on_c, 11, 46, 90
12, 19799, Note_on_c, 11, 46, 0
12, 19920, Note_on_c, 11, 47, 90
12, 20039, Note_on_c, 11, 47, 0
12, 20040, Note_on_c, 11, 49, 90
12, 20159, Note_on_c, 11, 49, 0
12, 20160, Note_on_c, 11, 50, 90
12, 20219, Note_on_c, 11, 50, 0
12, 20220, Note_on_c, 11, 55, 90
12, 20279, Note_on_c, 11, 55, 0
12, 20280, Note_on_c, 11, 57, 90
12, 20339, Note_on_c, 11, 57, 0
12, 20340, Note_on_c, 11, 45, 90
12, 20399, Note_on_c, 11, 45, 0
12, 20400, Note_on_c, 11, 50, 90
12, 20519, Note_on_c, 11, 50, 0
12, 20640, Note_on_c, 11, 48, 90
12, 20759, Note_on_c, 11, 48, 0
12, 20880, Note_on_c, 11, 47, 90
12, 20999, Note_on_c, 11, 47, 0
12, 21120, Note_on_c, 11, 52, 90
12, 21239, Note_on_c, 11, 52, 0
12, 21360, Note_on_c, 11, 45, 90
12, 21479, Note_on_c, 11, 45, 0
12, 21600, Note_on_c, 11, 50, 90
12, 21719, Note_on_c, 11, 50, 0
12, 21840, Note_on_c, 11, 48, 90
12, 21959, Note_on_c, 11, 48, 0
12, 22020, Note_on_c, 11, 48, 90
12, 22079, Note_on_c, 11, 48, 0
12, 22080, Note_on_c, 11, 46, 90
12, 22139, Note_on_c, 11, 46, 0
12, 22140, Note_on_c, 11, 48, 90
12, 22199, Note_on_c, 11, 48, 0
12, 22200, Note_on_c, 11, 50, 90
12, 22259, Note_on_c, 11, 50, 0
12, 22260, Note_on_c, 11, 38, 90
12, 22319, Note_on_c, 11, 38, 0
12, 22320, Note_on_c, 11, 43, 90
12, 22439, Note_on_c, 11, 43, 0
12, 22560, Note_on_c, 11, 41, 90
12, 22679, Note_on_c, 11, 41, 0
12, 22800, Note_on_c, 11, 40, 90
12, 22919, Note_on_c, 11, 40, 0
12, 23040, Note_on_c, 11, 38, 90
12, 23159, Note_on_c, 11, 38, 0
12, 23220, Note_on_c, 11, 43, 90
12, 23279, Note_on_c, 11, 43, 0
12, 23280, Note_on_c, 11, 48, 90
12, 23309, Note_on_c, 11, 48, 0
12, 23310, Note_on_c, 11, 47, 90
12, 23339, Note_on_c, 11, 47, 0
12, 23340, Note_on_c, 11, 45, 90
12, 23369, Note_on_c, 11, 45, 0
12, 23370, Note_on_c, 11, 43, 90
12, 23399, Note_on_c, 11, 43, 0
12, 23400, Note_on_c, 11, 50, 90
12, 23459, Note_on_c, 11, 50, 0
12, 23460, Note_on_c, 11, 38, 90
12, 23519, Note_on_c, 11, 38, 0
12, 23520, Note_on_c, 11, 43, 90
12, 23639, Note_on_c, 11, 43, 0
12, 23760, Note_on_c, 11, 43, 90
12, 23879, Note_on_c, 11, 43, 0
12, 24000, Note_on_c, 11, 43, 90
12, 24119, Note_on_c, 11, 43, 0
12, 24240, Note_on_c, 11, 45, 90
12, 24359, Note_on_c, 11, 45, 0
12, 24480, Note_on_c, 11, 47, 90
12, 24539, Note_on_c, 11, 47, 0
12, 24540, Note_on_c, 11, 48, 90
12, 24599, Note_on_c, 11, 48, 0
12, 24600, Note_on_c, 11, 50, 90
12, 24659, Note_on_c, 11, 50, 0
12, 24660, Note_on_c, 11, 47, 90
12, 24719, Note_on_c, 11, 47, 0
12, 24720, Note_on_c, 11, 52, 90
12, 24779, Note_on_c, 11, 52, 0
12, 24780, Note_on_c, 11, 48, 90
12, 24839, Note_on_c, 11, 48, 0
12, 24840, Note_on_c, 11, 50, 90
12, 24899, Note_on_c, 11, 50, 0
12, 24900, Note_on_c, 11, 38, 90
12, 24959, Note_on_c, 11, 38, 0
12, 24960, Note_on_c, 11, 43, 90
12, 25200, Note_on_c, 11, 43, 0
12, 25440, Note_on_c, 11, 48, 100
12, 26160, Note_on_c, 11, 48, 0
12, 26160, Note_on_c, 11, 52, 100
12, 26400, Note_on_c, 11, 52, 0
12, 26400, Note_on_c, 11, 53, 100
12, 26640, Note_on_c, 11, 53, 0
12, 26640, Note_on_c, 11, 50, 100
12, 27120, Note_on_c, 11, 50, 0
12, 27120, Note_on_c, 11, 47, 100
12, 27360, Note_on_c, 11, 47, 0
12, 27360, Note_on_c, 11, 48, 100
12, 27420, Note_on_c, 11, 48, 0
12, 27420, Note_on_c, 11, 50, 100
12, 27450, Note_on_c, 11, 50, 0
12, 27450, Note_on_c, 11, 52, 100
12, 27480, Note_on_c, 11, 52, 0
12, 27480, Note_on_c, 11, 53, 100
12, 27660, Note_on_c, 11, 53, 0
12, 27660, Note_on_c, 11, 52, 100
12, 27690, Note_on_c, 11, 52, 0
12, 27690, Note_on_c, 11, 53, 100
12, 27720, Note_on_c, 11, 53, 0
12, 27720, Note_on_c, 11, 55, 100
12, 27780, Note_on_c, 11, 55, 0
12, 27780, Note_on_c, 11, 52, 100
12, 27810, Note_on_c, 11, 52, 0
12, 27810, Note_on_c, 11, 55, 100
12, 27840, Note_on_c, 11, 55, 0
12, 27840, Note_on_c, 11, 57, 100
12, 27900, Note_on_c, 11, 57, 0
12, 27900, Note_on_c, 11, 55, 100
12, 27930, Note_on_c, 11, 55, 0
12, 27930, Note_on_c, 11, 53, 100
12, 27960, Note_on_c, 11, 53, 0
12, 27960, Note_on_c, 11, 55, 100
12, 28020, Note_on_c, 11, 55, 0
12, 28020, Note_on_c, 11, 43, 100
12, 28080, Note_on_c, 11, 43, 0
12, 28080, Note_on_c, 11, 36, 100
12, 28320, Note_on_c, 11, 36, 0
12, 28440, Note_on_c, 11, 48, 100
12, 28500, Note_on_c, 11, 48, 0
12, 28620, Note_on_c, 11, 50, 100
12, 28680, Note_on_c, 11, 50, 0
12, 28800, Note_on_c, 11, 52, 100
12, 28860, Note_on_c, 11, 52, 0
12, 28920, Note_on_c, 11, 60, 100
12, 28980, Note_on_c, 11, 60, 0
12, 28980, Note_on_c, 11, 54, 100
12, 29040, Note_on_c, 11, 54, 0
12, 29160, Note_on_c, 11, 55, 100
12, 29220, Note_on_c, 11, 55, 0
12, 29340, Note_on_c, 11, 43, 100
12, 29400, Note_on_c, 11, 43, 0
12, 29520, Note_on_c, 11, 47, 100
12, 29580, Note_on_c, 11, 47, 0
12, 29700, Note_on_c, 11, 49, 100
12, 29760, Note_on_c, 11, 49, 0
12, 29880, Note_on_c, 11, 50, 100
12, 29940, Note_on_c, 11, 50, 0
12, 30060, Note_on_c, 11, 47, 100
12, 30120, Note_on_c, 11, 47, 0
12, 30240, Note_on_c, 11, 43, 100
12, 30300, Note_on_c, 11, 43, 0
12, 30420, Note_on_c, 11, 43, 100
12, 30480, Note_on_c, 11, 43, 0
12, 30600, Note_on_c, 11, 43, 100
12, 30660, Note_on_c, 11, 43, 0
12, 30780, Note_on_c, 11, 48, 100
12, 30840, Note_on_c, 11, 48, 0
12, 30960, Note_on_c, 11, 52, 100
12, 31020, Note_on_c, 11, 52, 0
12, 31020, Note_on_c, 11, 53, 100
12, 31050, Note_on_c, 11, 53, 0
12, 31050, Note_on_c, 11, 52, 100
12, 31080, Note_on_c, 11, 52, 0
12, 31080, Note_on_c, 11, 50, 100
12, 31110, Note_on_c, 11, 50, 0
12, 31110, Note_on_c, 11, 48, 100
12, 31140, Note_on_c, 11, 48, 0
12, 31140, Note_on_c, 11, 55, 100
12, 31200, Note_on_c, 11, 55, 0
12, 31200, Note_on_c, 11, 53, 100
12, 31260, Note_on_c, 11, 53, 0
12, 31260, Note_on_c, 11, 55, 100
12, 31320, Note_on_c, 11, 55, 0
12, 31320, Note_on_c, 11, 48, 100
12, 31500, Note_on_c, 11, 48, 0
12, 31680, Note_on_c, 11, 48, 100
12, 31740, Note_on_c, 11, 48, 0
12, 31860, Note_on_c, 11, 50, 100
12, 31920, Note_on_c, 11, 50, 0
12, 32040, Note_on_c, 11, 52, 100
12, 32100, Note_on_c, 11, 52, 0
12, 32160, Note_on_c, 11, 60, 100
12, 32220, Note_on_c, 11, 60, 0
12, 32220, Note_on_c, 11, 54, 100
12, 32280, Note_on_c, 11, 54, 0
12, 32400, Note_on_c, 11, 55, 100
12, 32460, Note_on_c, 11, 55, 0
12, 32580, Note_on_c, 11, 57, 100
12, 32640, Note_on_c, 11, 57, 0
12, 32760, Note_on_c, 11, 59, 100
12, 32820, Note_on_c, 11, 59, 0
12, 32940, Note_on_c, 11, 61, 100
12, 33000, Note_on_c, 11, 61, 0
12, 33120, Note_on_c, 11, 62, 100
12, 33180, Note_on_c, 11, 62, 0
12, 33300, Note_on_c, 11, 59, 100
12, 33360, Note_on_c, 11, 59, 0
12, 33480, Note_on_c, 11, 55, 100
12, 33540, Note_on_c, 11, 55, 0
12, 33660, Note_on_c, 11, 55, 100
12, 33720, Note_on_c, 11, 55, 0
12, 33840, Note_on_c, 11, 55, 100
12, 33900, Note_on_c, 11, 55, 0
12, 34020, Note_on_c, 11, 48, 100
12, 34080, Note_on_c, 11, 48, 0
12, 34140, Note_on_c, 11, 55, 100
12, 34200, Note_on_c, 11, 55, 0
12, 34200, Note_on_c, 11, 52, 100
12, 34260, Note_on_c, 11, 52, 0
12, 34260, Note_on_c, 11, 53, 100
12, 34290, Note_on_c, 11, 53, 0
12, 34290, Note_on_c, 11, 52, 100
12, 34320, Note_on_c, 11, 52, 0
12, 34320, Note_on_c, 11, 50, 100
12, 34350, Note_on_c, 11, 50, 0
12, 34350, Note_on_c, 11, 48, 100
12, 34380, Note_on_c, 11, 48, 0
12, 34380, Note_on_c, 11, 55, 100
12, 34440, Note_on_c, 11, 55, 0
12, 34440, Note_on_c, 11, 53, 100
12, 34500, Note_on_c, 11, 53, 0
12, 34500, Note_on_c, 11, 55, 100
12, 34560, Note_on_c, 11, 55, 0
12, 34560, Note_on_c, 11, 48, 100
12, 34620, Note_on_c, 11, 48, 0
12, 34740, Note_on_c, 11, 50, 100
12, 34800, Note_on_c, 11, 50, 0
12, 34920, Note_on_c, 11, 52, 100
12, 34980, Note_on_c, 11, 52, 0
12, 35100, Note_on_c, 11, 54, 100
12, 35160, Note_on_c, 11, 54, 0
12, 35280, Note_on_c, 11, 55, 100
12, 35340, Note_on_c, 11, 55, 0
12, 35460, Note_on_c, 11, 57, 100
12, 35520, Note_on_c, 11, 57, 0
12, 35640, Note_on_c, 11, 59, 100
12, 35700, Note_on_c, 11, 59, 0
12, 35820, Note_on_c, 11, 60, 100
12, 35880, Note_on_c, 11, 60, 0
12, 36000, Note_on_c, 11, 50, 100
12, 36060, Note_on_c, 11, 50, 0
12, 36180, Note_on_c, 11, 52, 100
12, 36240, Note_on_c, 11, 52, 0
12, 36360, Note_on_c, 11, 54, 100
12, 36420, Note_on_c, 11, 54, 0
12, 36480, Note_on_c, 11, 50, 100
12, 36540, Note_on_c, 11, 50, 0
12, 36540, Note_on_c, 11, 56, 100
12, 36600, Note_on_c, 11, 56, 0
12, 36660, Note_on_c, 11, 50, 100
12, 36720, Note_on_c, 11, 50, 0
12, 36720, Note_on_c, 11, 57, 100
12, 36780, Note_on_c, 11, 57, 0
12, 36900, Note_on_c, 11, 54, 100
12, 36960, Note_on_c, 11, 54, 0
12, 37080, Note_on_c, 11, 50, 100
12, 37140, Note_on_c, 11, 50, 0
12, 37260, Note_on_c, 11, 50, 100
12, 37320, Note_on_c, 11, 50, 0
12, 37440, Note_on_c, 11, 50, 100
12, 37500, Note_on_c, 11, 50, 0
12, 37620, Note_on_c, 11, 55, 100
12, 37680, Note_on_c, 11, 55, 0
12, 37680, Note_on_c, 11, 54, 90
12, 37709, Note_on_c, 11, 54, 0
12, 37710, Note_on_c, 11, 52, 90
12, 37739, Note_on_c, 11, 52, 0
12, 37740, Note_on_c, 11, 50, 90
12, 37769, Note_on_c, 11, 50, 0
12, 37770, Note_on_c, 11, 48, 90
12, 37799, Note_on_c, 11, 48, 0
12, 37800, Note_on_c, 11, 47, 100
12, 37860, Note_on_c, 11, 47, 0
12, 37860, Note_on_c, 11, 48, 90
12, 37889, Note_on_c, 11, 48, 0
12, 37890, Note_on_c, 11, 47, 90
12, 37919, Note_on_c, 11, 47, 0
12, 37920, Note_on_c, 11, 45, 90
12, 37949, Note_on_c, 11, 45, 0
12, 37950, Note_on_c, 11, 43, 90
12, 37979, Note_on_c, 11, 43, 0
12, 37980, Note_on_c, 11, 50, 90
12, 38039, Note_on_c, 11, 50, 0
12, 38040, Note_on_c, 11, 48, 90
12, 38099, Note_on_c, 11, 48, 0
12, 38100, Note_on_c, 11, 50, 90
12, 38159, Note_on_c, 11, 50, 0
12, 38160, Note_on_c, 11, 43, 90
12, 38219, Note_on_c, 11, 43, 0
12, 38340, Note_on_c, 11, 45, 90
12, 38399, Note_on_c, 11, 45, 0
12, 38520, Note_on_c, 11, 47, 90
12, 38579, Note_on_c, 11, 47, 0
12, 38700, Note_on_c, 11, 49, 90
12, 38759, Note_on_c, 11, 49, 0
12, 38880, Note_on_c, 11, 50, 90
12, 38939, Note_on_c, 11, 50, 0
12, 39000, Note_on_c, 11, 52, 90
12, 39059, Note_on_c, 11, 52, 0
12, 39060, Note_on_c, 11, 53, 90
12, 39119, Note_on_c, 11, 53, 0
12, 39180, Note_on_c, 11, 50, 90
12, 39239, Note_on_c, 11, 50, 0
12, 39240, Note_on_c, 11, 55, 90
12, 39299, Note_on_c, 11, 55, 0
12, 39420, Note_on_c, 11, 57, 90
12, 39479, Note_on_c, 11, 57, 0
12, 39600, Note_on_c, 11, 59, 90
12, 39659, Note_on_c, 11, 59, 0
12, 39720, Note_on_c, 11, 55, 90
12, 39779, Note_on_c, 11, 55, 0
12, 39780, Note_on_c, 11, 60, 90
12, 39839, Note_on_c, 11, 60, 0
12, 39900, Note_on_c, 11, 55, 90
12, 39959, Note_on_c, 11, 55, 0
12, 39960, Note_on_c, 11, 62, 90
12, 40019, Note_on_c, 11, 62, 0
12, 40140, Note_on_c, 11, 59, 90
12, 40199, Note_on_c, 11, 59, 0
12, 40320, Note_on_c, 11, 55, 90
12, 40379, Note_on_c, 11, 55, 0
12, 40500, Note_on_c, 11, 55, 90
12, 40559, Note_on_c, 11, 55, 0
12, 40680, Note_on_c, 11, 55, 90
12, 40739, Note_on_c, 11, 55, 0
12, 40860, Note_on_c, 11, 60, 90
12, 40919, Note_on_c, 11, 60, 0
12, 40920, Note_on_c, 11, 59, 90
12, 40949, Note_on_c, 11, 59, 0
12, 40950, Note_on_c, 11, 57, 90
12, 40979, Note_on_c, 11, 57, 0
12, 40980, Note_on_c, 11, 55, 90
12, 41009, Note_on_c, 11, 55, 0
12, 41010, Note_on_c, 11, 53, 90
12, 41039, Note_on_c, 11, 53, 0
12, 41040, Note_on_c, 11, 52, 90
12, 41099, Note_on_c, 11, 52, 0
12, 41100, Note_on_c, 11, 53, 90
12, 41129, Note_on_c, 11, 53, 0
12, 41130, Note_on_c, 11, 52, 90
12, 41159, Note_on_c, 11, 52, 0
12, 41160, Note_on_c, 11, 50, 90
12, 41189, Note_on_c, 11, 50, 0
12, 41190, Note_on_c, 11, 48, 90
12, 41219, Note_on_c, 11, 48, 0
12, 41220, Note_on_c, 11, 55, 90
12, 41279, Note_on_c, 11, 55, 0
12, 41280, Note_on_c, 11, 53, 90
12, 41339, Note_on_c, 11, 53, 0
12, 41340, Note_on_c, 11, 55, 90
12, 41399, Note_on_c, 11, 55, 0
12, 41400, Note_on_c, 11, 48, 90
12, 41459, Note_on_c, 11, 48, 0
12, 41580, Note_on_c, 11, 48, 90
12, 41639, Note_on_c, 11, 48, 0
12, 41760, Note_on_c, 11, 48, 90
12, 41819, Note_on_c, 11, 48, 0
12, 41940, Note_on_c, 11, 48, 90
12, 41999, Note_on_c, 11, 48, 0
12, 42120, Note_on_c, 11, 50, 90
12, 42179, Note_on_c, 11, 50, 0
12, 42300, Note_on_c, 11, 47, 90
12, 42359, Note_on_c, 11, 47, 0
12, 42480, Note_on_c, 11, 43, 90
12, 42539, Note_on_c, 11, 43, 0
12, 42660, Note_on_c, 11, 43, 90
12, 42719, Note_on_c, 11, 43, 0
12, 42840, Note_on_c, 11, 43, 90
12, 42899, Note_on_c, 11, 43, 0
12, 42960, Note_on_c, 11, 43, 90
12, 43019, Note_on_c, 11, 43, 0
12, 43020, Note_on_c, 11, 48, 90
12, 43079, Note_on_c, 11, 48, 0
12, 43200, Note_on_c, 11, 40, 90
12, 43259, Note_on_c, 11, 40, 0
12, 43260, Note_on_c, 11, 41, 90
12, 43289, Note_on_c, 11, 41, 0
12, 43290, Note_on_c, 11, 40, 90
12, 43319, Note_on_c, 11, 40, 0
12, 43320, Note_on_c, 11, 38, 90
12, 43349, Note_on_c, 11, 38, 0
12, 43350, Note_on_c, 11, 36, 90
12, 43379, Note_on_c, 11, 36, 0
12, 43380, Note_on_c, 11, 43, 90
12, 43439, Note_on_c, 11, 43, 0
12, 43440, Note_on_c, 11, 41, 90
12, 43499, Note_on_c, 11, 41, 0
12, 43500, Note_on_c, 11, 43, 90
12, 43559, Note_on_c, 11, 43, 0
12, 43560, Note_on_c, 11, 36, 90
12, 43739, Note_on_c, 11, 36, 0
12, 43920, Note_on_c, 11, 43, 90
12, 44040, Note_on_c, 11, 43, 0
12, 44040, Note_on_c, 11, 45, 90
12, 44100, Note_on_c, 11, 45, 0
12, 44100, Note_on_c, 11, 47, 90
12, 44160, Note_on_c, 11, 47, 0
12, 44220, Note_on_c, 11, 44, 90
12, 44279, Note_on_c, 11, 44, 0
12, 44280, Note_on_c, 11, 45, 90
12, 44339, Note_on_c, 11, 45, 0
12, 44460, Note_on_c, 11, 47, 90
12, 44519, Note_on_c, 11, 47, 0
12, 44640, Note_on_c, 11, 48, 90
12, 44699, Note_on_c, 11, 48, 0
12, 44820, Note_on_c, 11, 50, 90
12, 44879, Note_on_c, 11, 50, 0
12, 45000, Note_on_c, 11, 52, 90
12, 45059, Note_on_c, 11, 52, 0
12, 45180, Note_on_c, 11, 54, 90
12, 45239, Note_on_c, 11, 54, 0
12, 45360, Note_on_c, 11, 56, 90
12, 45419, Note_on_c, 11, 56, 0
12, 45480, Note_on_c, 11, 56, 90
12, 45539, Note_on_c, 11, 56, 0
12, 45540, Note_on_c, 11, 57, 90
12, 45599, Note_on_c, 11, 57, 0
12, 45720, Note_on_c, 11, 59, 90
12, 45779, Note_on_c, 11, 59, 0
12, 45900, Note_on_c, 11, 56, 90
12, 45959, Note_on_c, 11, 56, 0
12, 46080, Note_on_c, 11, 52, 90
12, 46139, Note_on_c, 11, 52, 0
12, 46260, Note_on_c, 11, 52, 90
12, 46319, Note_on_c, 11, 52, 0
12, 46440, Note_on_c, 11, 52, 90
12, 46499, Note_on_c, 11, 52, 0
12, 46620, Note_on_c, 11, 57, 90
12, 46679, Note_on_c, 11, 57, 0
12, 46740, Note_on_c, 11, 52, 90
12, 46799, Note_on_c, 11, 52, 0
12, 46800, Note_on_c, 11, 48, 90
12, 46859, Note_on_c, 11, 48, 0
12, 46860, Note_on_c, 11, 50, 90
12, 46889, Note_on_c, 11, 50, 0
12, 46890, Note_on_c, 11, 48, 90
12, 46919, Note_on_c, 11, 48, 0
12, 46920, Note_on_c, 11, 47, 90
12, 46949, Note_on_c, 11, 47, 0
12, 46950, Note_on_c, 11, 45, 90
12, 46979, Note_on_c, 11, 45, 0
12, 46980, Note_on_c, 11, 52, 90
12, 47039, Note_on_c, 11, 52, 0
12, 47040, Note_on_c, 11, 50, 90
12, 47099, Note_on_c, 11, 50, 0
12, 47100, Note_on_c, 11, 52, 90
12, 47159, Note_on_c, 11, 52, 0
12, 47160, Note_on_c, 11, 45, 90
12, 47219, Note_on_c, 11, 45, 0
12, 47340, Note_on_c, 11, 43, 90
12, 47399, Note_on_c, 11, 43, 0
12, 47520, Note_on_c, 11, 42, 90
12, 47579, Note_on_c, 11, 42, 0
12, 47700, Note_on_c, 11, 38, 90
12, 47759, Note_on_c, 11, 38, 0
12, 47880, Note_on_c, 11, 43, 90
12, 47939, Note_on_c, 11, 43, 0
12, 48000, Note_on_c, 11, 47, 90
12, 48059, Note_on_c, 11, 47, 0
12, 48060, Note_on_c, 11, 43, 90
12, 48119, Note_on_c, 11, 43, 0
12, 48180, Note_on_c, 11, 43, 90
12, 48239, Note_on_c, 11, 43, 0
12, 48240, Note_on_c, 11, 40, 90
12, 48299, Note_on_c, 11, 40, 0
12, 48420, Note_on_c, 11, 42, 90
12, 48479, Note_on_c, 11, 42, 0
12, 48600, Note_on_c, 11, 43, 90
12, 48659, Note_on_c, 11, 43, 0
12, 48720, Note_on_c, 11, 43, 90
12, 48779, Note_on_c, 11, 43, 0
12, 48780, Note_on_c, 11, 45, 90
12, 48839, Note_on_c, 11, 45, 0
12, 48960, Note_on_c, 11, 47, 90
12, 49019, Note_on_c, 11, 47, 0
12, 49140, Note_on_c, 11, 49, 90
12, 49199, Note_on_c, 11, 49, 0
12, 49320, Note_on_c, 11, 51, 90
12, 49379, Note_on_c, 11, 51, 0
12, 49500, Note_on_c, 11, 52, 90
12, 49559, Note_on_c, 11, 52, 0
12, 49680, Note_on_c, 11, 54, 90
12, 49739, Note_on_c, 11, 54, 0
12, 49860, Note_on_c, 11, 51, 90
12, 49919, Note_on_c, 11, 51, 0
12, 50040, Note_on_c, 11, 47, 90
12, 50099, Note_on_c, 11, 47, 0
12, 50220, Note_on_c, 11, 47, 90
12, 50279, Note_on_c, 11, 47, 0
12, 50400, Note_on_c, 11, 47, 90
12, 50459, Note_on_c, 11, 47, 0
12, 50580, Note_on_c, 11, 52, 90
12, 50639, Note_on_c, 11, 52, 0
12, 50700, Note_on_c, 11, 47, 90
12, 50759, Note_on_c, 11, 47, 0
12, 50760, Note_on_c, 11, 43, 90
12, 50819, Note_on_c, 11, 43, 0
12, 50820, Note_on_c, 11, 45, 90
12, 50849, Note_on_c, 11, 45, 0
12, 50850, Note_on_c, 11, 43, 90
12, 50879, Note_on_c, 11, 43, 0
12, 50880, Note_on_c, 11, 42, 90
12, 50909, Note_on_c, 11, 42, 0
12, 50910, Note_on_c, 11, 40, 90
12, 50939, Note_on_c, 11, 40, 0
12, 50940, Note_on_c, 11, 47, 90
12, 50999, Note_on_c, 11, 47, 0
12, 51000, Note_on_c, 11, 45, 90
12, 51059, Note_on_c, 11, 45, 0
12, 51060, Note_on_c, 11, 47, 90
12, 51119, Note_on_c, 11, 47, 0
12, 51120, Note_on_c, 11, 40, 90
12, 51299, Note_on_c, 11, 40, 0
12, 51480, Note_on_c, 11, 48, 100
12, 51540, Note_on_c, 11, 48, 0
12, 51660, Note_on_c, 11, 50, 100
12, 51720, Note_on_c, 11, 50, 0
12, 51840, Note_on_c, 11, 52, 100
12, 51900, Note_on_c, 11, 52, 0
12, 51960, Note_on_c, 11, 60, 100
12, 52020, Note_on_c, 11, 60, 0
12, 52020, Note_on_c, 11, 54, 100
12, 52080, Note_on_c, 11, 54, 0
12, 52200, Note_on_c, 11, 55, 100
12, 52260, Note_on_c, 11, 55, 0
12, 52380, Note_on_c, 11, 43, 100
12, 52440, Note_on_c, 11, 43, 0
12, 52560, Note_on_c, 11, 47, 100
12, 52620, Note_on_c, 11, 47, 0
12, 52740, Note_on_c, 11, 49, 100
12, 52800, Note_on_c, 11, 49, 0
12, 52920, Note_on_c, 11, 50, 100
12, 52980, Note_on_c, 11, 50, 0
12, 53100, Note_on_c, 11, 47, 100
12, 53160, Note_on_c, 11, 47, 0
12, 53280, Note_on_c, 11, 43, 100
12, 53340, Note_on_c, 11, 43, 0
12, 53460, Note_on_c, 11, 43, 100
12, 53520, Note_on_c, 11, 43, 0
12, 53640, Note_on_c, 11, 43, 100
12, 53700, Note_on_c, 11, 43, 0
12, 53820, Note_on_c, 11, 48, 100
12, 53880, Note_on_c, 11, 48, 0
12, 54000, Note_on_c, 11, 52, 100
12, 54060, Note_on_c, 11, 52, 0
12, 54060, Note_on_c, 11, 53, 100
12, 54090, Note_on_c, 11, 53, 0
12, 54090, Note_on_c, 11, 52, 100
12, 54120, Note_on_c, 11, 52, 0
12, 54120, Note_on_c, 11, 50, 100
12, 54150, Note_on_c, 11, 50, 0
12, 54150, Note_on_c, 11, 48, 100
12, 54180, Note_on_c, 11, 48, 0
12, 54180, Note_on_c, 11, 55, 100
12, 54240, Note_on_c, 11, 55, 0
12, 54240, Note_on_c, 11, 53, 100
12, 54300, Note_on_c, 11, 53, 0
12, 54300, Note_on_c, 11, 55, 100
12, 54360, Note_on_c, 11, 55, 0
12, 54360, Note_on_c, 11, 48, 100
12, 54540, Note_on_c, 11, 48, 0
12, 54720, Note_on_c, 11, 48, 100
12, 54780, Note_on_c, 11, 48, 0
12, 54900, Note_on_c, 11, 50, 100
12, 54960, Note_on_c, 11, 50, 0
12, 55080, Note_on_c, 11, 52, 100
12, 55140, Note_on_c, 11, 52, 0
12, 55200, Note_on_c, 11, 60, 100
12, 55260, Note_on_c, 11, 60, 0
12, 55260, Note_on_c, 11, 54, 100
12, 55320, Note_on_c, 11, 54, 0
12, 55440, Note_on_c, 11, 55, 100
12, 55500, Note_on_c, 11, 55, 0
12, 55620, Note_on_c, 11, 57, 100
12, 55680, Note_on_c, 11, 57, 0
12, 55800, Note_on_c, 11, 59, 100
12, 55860, Note_on_c, 11, 59, 0
12, 55980, Note_on_c, 11, 61, 100
12, 56040, Note_on_c, 11, 61, 0
12, 56160, Note_on_c, 11, 62, 100
12, 56220, Note_on_c, 11, 62, 0
12, 56340, Note_on_c, 11, 59, 100
12, 56400, Note_on_c, 11, 59, 0
12, 56520, Note_on_c, 11, 55, 100
12, 56580, Note_on_c, 11, 55, 0
12, 56700, Note_on_c, 11, 55, 100
12, 56760, Note_on_c, 11, 55, 0
12, 56880, Note_on_c, 11, 55, 100
12, 56940, Note_on_c, 11, 55, 0
12, 57060, Note_on_c, 11, 48, 100
12, 57120, Note_on_c, 11, 48, 0
12, 57180, Note_on_c, 11, 55, 100
12, 57240, Note_on_c, 11, 55, 0
12, 57240, Note_on_c, 11, 52, 100
12, 57300, Note_on_c, 11, 52, 0
12, 57300, Note_on_c, 11, 53, 100
12, 57330, Note_on_c, 11, 53, 0
12, 57330, Note_on_c, 11, 52, 100
12, 57360, Note_on_c, 11, 52, 0
12, 57360, Note_on_c, 11, 50, 100
12, 57390, Note_on_c, 11, 50, 0
12, 57390, Note_on_c, 11, 48, 100
12, 57420, Note_on_c, 11, 48, 0
12, 57420, Note_on_c, 11, 55, 100
12, 57480, Note_on_c, 11, 55, 0
12, 57480, Note_on_c, 11, 53, 100
12, 57540, Note_on_c, 11, 53, 0
12, 57540, Note_on_c, 11, 55, 100
12, 57600, Note_on_c, 11, 55, 0
12, 57600, Note_on_c, 11, 48, 100
12, 57660, Note_on_c, 11, 48, 0
12, 57780, Note_on_c, 11, 50, 100
12, 57840, Note_on_c, 11, 50, 0
12, 57960, Note_on_c, 11, 52, 100
12, 58020, Note_on_c, 11, 52, 0
12, 58140, Note_on_c, 11, 54, 100
12, 58200, Note_on_c, 11, 54, 0
12, 58320, Note_on_c, 11, 55, 100
12, 58380, Note_on_c, 11, 55, 0
12, 58500, Note_on_c, 11, 57, 100
12, 58560, Note_on_c, 11, 57, 0
12, 58680, Note_on_c, 11, 59, 100
12, 58740, Note_on_c, 11, 59, 0
12, 58860, Note_on_c, 11, 60, 100
12, 58920, Note_on_c, 11, 60, 0
12, 59040, Note_on_c, 11, 50, 100
12, 59100, Note_on_c, 11, 50, 0
12, 59220, Note_on_c, 11, 52, 100
12, 59280, Note_on_c, 11, 52, 0
12, 59400, Note_on_c, 11, 54, 100
12, 59460, Note_on_c, 11, 54, 0
12, 59520, Note_on_c, 11, 50, 100
12, 59580, Note_on_c, 11, 50, 0
12, 59580, Note_on_c, 11, 56, 100
12, 59640, Note_on_c, 11, 56, 0
12, 59700, Note_on_c, 11, 50, 100
12, 59760, Note_on_c, 11, 50, 0
12, 59760, Note_on_c, 11, 57, 100
12, 59820, Note_on_c, 11, 57, 0
12, 59940, Note_on_c, 11, 54, 100
12, 60000, Note_on_c, 11, 54, 0
12, 60120, Note_on_c, 11, 50, 100
12, 60180, Note_on_c, 11, 50, 0
12, 60300, Note_on_c, 11, 50, 100
12, 60360, Note_on_c, 11, 50, 0
12, 60480, Note_on_c, 11, 50, 100
12, 60540, Note_on_c, 11, 50, 0
12, 60660, Note_on_c, 11, 55, 100
12, 60720, Note_on_c, 11, 55, 0
12, 60720, Note_on_c, 11, 54, 90
12, 60749, Note_on_c, 11, 54, 0
12, 60750, Note_on_c, 11, 52, 90
12, 60779, Note_on_c, 11, 52, 0
12, 60780, Note_on_c, 11, 50, 90
12, 60809, Note_on_c, 11, 50, 0
12, 60810, Note_on_c, 11, 48, 90
12, 60839, Note_on_c, 11, 48, 0
12, 60840, Note_on_c, 11, 47, 100
12, 60900, Note_on_c, 11, 47, 0
12, 60900, Note_on_c, 11, 48, 90
12, 60929, Note_on_c, 11, 48, 0
12, 60930, Note_on_c, 11, 47, 90
12, 60959, Note_on_c, 11, 47, 0
12, 60960, Note_on_c, 11, 45, 90
12, 60989, Note_on_c, 11, 45, 0
12, 60990, Note_on_c, 11, 43, 90
12, 61019, Note_on_c, 11, 43, 0
12, 61020, Note_on_c, 11, 50, 90
12, 61079, Note_on_c, 11, 50, 0
12, 61080, Note_on_c, 11, 48, 90
12, 61139, Note_on_c, 11, 48, 0
12, 61140, Note_on_c, 11, 50, 90
12, 61199, Note_on_c, 11, 50, 0
12, 61200, Note_on_c, 11, 43, 90
12, 61259, Note_on_c, 11, 43, 0
12, 61380, Note_on_c, 11, 45, 90
12, 61439, Note_on_c, 11, 45, 0
12, 61560, Note_on_c, 11, 47, 90
12, 61619, Note_on_c, 11, 47, 0
12, 61740, Note_on_c, 11, 49, 90
12, 61799, Note_on_c, 11, 49, 0
12, 61920, Note_on_c, 11, 50, 90
12, 61979, Note_on_c, 11, 50, 0
12, 62040, Note_on_c, 11, 52, 90
12, 62099, Note_on_c, 11, 52, 0
12, 62100, Note_on_c, 11, 53, 90
12, 62159, Note_on_c, 11, 53, 0
12, 62220, Note_on_c, 11, 50, 90
12, 62279, Note_on_c, 11, 50, 0
12, 62280, Note_on_c, 11, 55, 90
12, 62339, Note_on_c, 11, 55, 0
12, 62460, Note_on_c, 11, 57, 90
12, 62519, Note_on_c, 11, 57, 0
12, 62640, Note_on_c, 11, 59, 90
12, 62699, Note_on_c, 11, 59, 0
12, 62760, Note_on_c, 11, 55, 90
12, 62819, Note_on_c, 11, 55, 0
12, 62820, Note_on_c, 11, 60, 90
12, 62879, Note_on_c, 11, 60, 0
12, 62940, Note_on_c, 11, 55, 90
12, 62999, Note_on_c, 11, 55, 0
12, 63000, Note_on_c, 11, 62, 90
12, 63059, Note_on_c, 11, 62, 0
12, 63180, Note_on_c, 11, 59, 90
12, 63239, Note_on_c, 11, 59, 0
12, 63360, Note_on_c, 11, 55, 90
12, 63419, Note_on_c, 11, 55, 0
12, 63540, Note_on_c, 11, 55, 90
12, 63599, Note_on_c, 11, 55, 0
12, 63720, Note_on_c, 11, 55, 90
12, 63779, Note_on_c, 11, 55, 0
12, 63900, Note_on_c, 11, 60, 90
12, 63959, Note_on_c, 11, 60, 0
12, 63960, Note_on_c, 11, 59, 90
12, 63989, Note_on_c, 11, 59, 0
12, 63990, Note_on_c, 11, 57, 90
12, 64019, Note_on_c, 11, 57, 0
12, 64020, Note_on_c, 11, 55, 90
12, 64049, Note_on_c, 11, 55, 0
12, 64050, Note_on_c, 11, 53, 90
12, 64079, Note_on_c, 11, 53, 0
12, 64080, Note_on_c, 11, 52, 90
12, 64139, Note_on_c, 11, 52, 0
12, 64140, Note_on_c, 11, 53, 90
12, 64169, Note_on_c, 11, 53, 0
12, 64170, Note_on_c, 11, 52, 90
12, 64199, Note_on_c, 11, 52, 0
12, 64200, Note_on_c, 11, 50, 90
12, 64229, Note_on_c, 11, 50, 0
12, 64230, Note_on_c, 11, 48, 90
12, 64259, Note_on_c, 11, 48, 0
12, 64260, Note_on_c, 11, 55, 90
12, 64319, Note_on_c, 11, 55, 0
12, 64320, Note_on_c, 11, 53, 90
12, 64379, Note_on_c, 11, 53, 0
12, 64380, Note_on_c, 11, 55, 90
12, 64439, Note_on_c, 11, 55, 0
12, 64440, Note_on_c, 11, 48, 90
12, 64499, Note_on_c, 11, 48, 0
12, 64620, Note_on_c, 11, 48, 90
12, 64679, Note_on_c, 11, 48, 0
12, 64800, Note_on_c, 11, 48, 90
12, 64859, Note_on_c, 11, 48, 0
12, 64980, Note_on_c, 11, 48, 90
12, 65039, Note_on_c, 11, 48, 0
12, 65160, Note_on_c, 11, 50, 90
12, 65219, Note_on_c, 11, 50, 0
12, 65340, Note_on_c, 11, 47, 90
12, 65399, Note_on_c, 11, 47, 0
12, 65520, Note_on_c, 11, 43, 90
12, 65579, Note_on_c, 11, 43, 0
12, 65700, Note_on_c, 11, 43, 90
12, 65759, Note_on_c, 11, 43, 0
12, 65880, Note_on_c, 11, 43, 90
12, 65939, Note_on_c, 11, 43, 0
12, 66000, Note_on_c, 11, 43, 90
12, 66059, Note_on_c, 11, 43, 0
12, 66060, Note_on_c, 11, 48, 90
12, 66119, Note_on_c, 11, 48, 0
12, 66240, Note_on_c, 11, 40, 90
12, 66299, Note_on_c, 11, 40, 0
12, 66300, Note_on_c, 11, 41, 90
12, 66329, Note_on_c, 11, 41, 0
12, 66330, Note_on_c, 11, 40, 90
12, 66359, Note_on_c, 11, 40, 0
12, 66360, Note_on_c, 11, 38, 90
12, 66389, Note_on_c, 11, 38, 0
12, 66390, Note_on_c, 11, 36, 90
12, 66419, Note_on_c, 11, 36, 0
12, 66420, Note_on_c, 11, 43, 90
12, 66479, Note_on_c, 11, 43, 0
12, 66480, Note_on_c, 11, 41, 90
12, 66539, Note_on_c, 11, 41, 0
12, 66540, Note_on_c, 11, 43, 90
12, 66599, Note_on_c, 11, 43, 0
12, 66600, Note_on_c, 11, 36, 90
12, 66779, Note_on_c, 11, 36, 0
12, 66780, Control_c, 11, 0, 100
12, 66780, Control_c, 11, 0, 100
12, 66780, Control_c, 11, 0, 100
12, 66780, Program_c, 11, 42
12, 66960, Note_on_c, 11, 44, 90
12, 67439, Note_on_c, 11, 44, 0
12, 67440, Note_on_c, 11, 45, 90
12, 67679, Note_on_c, 11, 45, 0
12, 67680, Note_on_c, 11, 43, 90
12, 67919, Note_on_c, 11, 43, 0
12, 67920, Note_on_c, 11, 49, 90
12, 68159, Note_on_c, 11, 49, 0
12, 68160, Note_on_c, 11, 50, 90
12, 68639, Note_on_c, 11, 50, 0
12, 68640, Note_on_c, 11, 43, 90
12, 68879, Note_on_c, 11, 43, 0
12, 69060, Note_on_c, 11, 47, 90
12, 69119, Note_on_c, 11, 47, 0
12, 69120, Note_on_c, 11, 52, 90
12, 69179, Note_on_c, 11, 52, 0
12, 69180, Note_on_c, 11, 51, 90
12, 69239, Note_on_c, 11, 51, 0
12, 69240, Note_on_c, 11, 52, 90
12, 69299, Note_on_c, 11, 52, 0
12, 69300, Note_on_c, 11, 54, 90
12, 69359, Note_on_c, 11, 54, 0
12, 69360, Note_on_c, 11, 55, 90
12, 69419, Note_on_c, 11, 55, 0
12, 69420, Note_on_c, 11, 54, 90
12, 69479, Note_on_c, 11, 54, 0
12, 69480, Note_on_c, 11, 52, 90
12, 69539, Note_on_c, 11, 52, 0
12, 69540, Note_on_c, 11, 51, 90
12, 69599, Note_on_c, 11, 51, 0
12, 69600, Note_on_c, 11, 49, 90
12, 69659, Note_on_c, 11, 49, 0
12, 69660, Note_on_c, 11, 51, 90
12, 69719, Note_on_c, 11, 51, 0
12, 69720, Note_on_c, 11, 52, 90
12, 69779, Note_on_c, 11, 52, 0
12, 69780, Note_on_c, 11, 54, 90
12, 69839, Note_on_c, 11, 54, 0
12, 69840, Note_on_c, 11, 55, 90
12, 69899, Note_on_c, 11, 55, 0
12, 69900, Note_on_c, 11, 54, 90
12, 69959, Note_on_c, 11, 54, 0
12, 69960, Note_on_c, 11, 55, 90
12, 70019, Note_on_c, 11, 55, 0
12, 70020, Note_on_c, 11, 57, 90
12, 70079, Note_on_c, 11, 57, 0
12, 70080, Note_on_c, 11, 59, 90
12, 70139, Note_on_c, 11, 59, 0
12, 70140, Note_on_c, 11, 57, 90
12, 70199, Note_on_c, 11, 57, 0
12, 70200, Note_on_c, 11, 55, 90
12, 70259, Note_on_c, 11, 55, 0
12, 70260, Note_on_c, 11, 54, 90
12, 70319, Note_on_c, 11, 54, 0
12, 70320, Note_on_c, 11, 55, 90
12, 70379, Note_on_c, 11, 55, 0
12, 70380, Note_on_c, 11, 57, 90
12, 70439, Note_on_c, 11, 57, 0
12, 70440, Note_on_c, 11, 59, 90
12, 70499, Note_on_c, 11, 59, 0
12, 70500, Note_on_c, 11, 57, 90
12, 70559, Note_on_c, 11, 57, 0
12, 70560, Note_on_c, 11, 55, 90
12, 70619, Note_on_c, 11, 55, 0
12, 70620, Note_on_c, 11, 54, 90
12, 70679, Note_on_c, 11, 54, 0
12, 70680, Note_on_c, 11, 52, 90
12, 70739, Note_on_c, 11, 52, 0
12, 70740, Note_on_c, 11, 50, 90
12, 70799, Note_on_c, 11, 50, 0
12, 70800, Note_on_c, 11, 48, 90
12, 70859, Note_on_c, 11, 48, 0
12, 70860, Note_on_c, 11, 47, 90
12, 70919, Note_on_c, 11, 47, 0
12, 70920, Note_on_c, 11, 45, 90
12, 70979, Note_on_c, 11, 45, 0
12, 70980, Note_on_c, 11, 47, 90
12, 71039, Note_on_c, 11, 47, 0
12, 71040, Note_on_c, 11, 40, 90
12, 71279, Note_on_c, 11, 40, 0
12, 71280, Note_on_c, 11, 52, 90
12, 71339, Note_on_c, 11, 52, 0
12, 71340, Note_on_c, 11, 54, 90
12, 71399, Note_on_c, 11, 54, 0
12, 71400, Note_on_c, 11, 55, 90
12, 71459, Note_on_c, 11, 55, 0
12, 71460, Note_on_c, 11, 52, 90
12, 71519, Note_on_c, 11, 52, 0
12, 71520, Note_on_c, 11, 57, 90
12, 71579, Note_on_c, 11, 57, 0
12, 71580, Note_on_c, 11, 55, 90
12, 71639, Note_on_c, 11, 55, 0
12, 71640, Note_on_c, 11, 54, 90
12, 71699, Note_on_c, 11, 54, 0
12, 71700, Note_on_c, 11, 50, 90
12, 71759, Note_on_c, 11, 50, 0
12, 71760, Note_on_c, 11, 55, 90
12, 71819, Note_on_c, 11, 55, 0
12, 71820, Note_on_c, 11, 54, 90
12, 71879, Note_on_c, 11, 54, 0
12, 71880, Note_on_c, 11, 52, 90
12, 71939, Note_on_c, 11, 52, 0
12, 71940, Note_on_c, 11, 50, 90
12, 71999, Note_on_c, 11, 50, 0
12, 72000, Note_on_c, 11, 48, 90
12, 72059, Note_on_c, 11, 48, 0
12, 72060, Note_on_c, 11, 47, 90
12, 72119, Note_on_c, 11, 47, 0
12, 72120, Note_on_c, 11, 45, 90
12, 72179, Note_on_c, 11, 45, 0
12, 72180, Note_on_c, 11, 42, 90
12, 72239, Note_on_c, 11, 42, 0
12, 72240, Note_on_c, 11, 47, 90
12, 72359, Note_on_c, 11, 47, 0
12, 72480, Note_on_c, 11, 45, 90
12, 72599, Note_on_c, 11, 45, 0
12, 72720, Note_on_c, 11, 43, 90
12, 72839, Note_on_c, 11, 43, 0
12, 72960, Note_on_c, 11, 42, 90
12, 73079, Note_on_c, 11, 42, 0
12, 73200, Note_on_c, 11, 40, 90
12, 73259, Note_on_c, 11, 40, 0
12, 73260, Note_on_c, 11, 42, 90
12, 73319, Note_on_c, 11, 42, 0
12, 73320, Note_on_c, 11, 43, 90
12, 73379, Note_on_c, 11, 43, 0
12, 73380, Note_on_c, 11, 40, 90
12, 73439, Note_on_c, 11, 40, 0
12, 73440, Note_on_c, 11, 45, 90
12, 73499, Note_on_c, 11, 45, 0
12, 73500, Note_on_c, 11, 47, 90
12, 73559, Note_on_c, 11, 47, 0
12, 73560, Note_on_c, 11, 48, 90
12, 73619, Note_on_c, 11, 48, 0
12, 73620, Note_on_c, 11, 45, 90
12, 73679, Note_on_c, 11, 45, 0
12, 73680, Note_on_c, 11, 47, 90
12, 73739, Note_on_c, 11, 47, 0
12, 73740, Note_on_c, 11, 51, 90
12, 73799, Note_on_c, 11, 51, 0
12, 73800, Note_on_c, 11, 52, 90
12, 73859, Note_on_c, 11, 52, 0
12, 73860, Note_on_c, 11, 55, 90
12, 73919, Note_on_c, 11, 55, 0
12, 73920, Note_on_c, 11, 60, 90
12, 73979, Note_on_c, 11, 60, 0
12, 73980, Note_on_c, 11, 57, 90
12, 74039, Note_on_c, 11, 57, 0
12, 74040, Note_on_c, 11, 59, 90
12, 74099, Note_on_c, 11, 59, 0
12, 74100, Note_on_c, 11, 47, 90
12, 74159, Note_on_c, 11, 47, 0
12, 74160, Note_on_c, 11, 52, 90
12, 74219, Note_on_c, 11, 52, 0
12, 74220, Note_on_c, 11, 54, 90
12, 74279, Note_on_c, 11, 54, 0
12, 74280, Note_on_c, 11, 55, 90
12, 74339, Note_on_c, 11, 55, 0
12, 74340, Note_on_c, 11, 52, 90
12, 74399, Note_on_c, 11, 52, 0
12, 74400, Note_on_c, 11, 57, 90
12, 74459, Note_on_c, 11, 57, 0
12, 74460, Note_on_c, 11, 55, 90
12, 74519, Note_on_c, 11, 55, 0
12, 74520, Note_on_c, 11, 54, 90
12, 74579, Note_on_c, 11, 54, 0
12, 74580, Note_on_c, 11, 50, 90
12, 74639, Note_on_c, 11, 50, 0
12, 74640, Note_on_c, 11, 55, 90
12, 74699, Note_on_c, 11, 55, 0
12, 74700, Note_on_c, 11, 54, 90
12, 74759, Note_on_c, 11, 54, 0
12, 74760, Note_on_c, 11, 52, 90
12, 74819, Note_on_c, 11, 52, 0
12, 74820, Note_on_c, 11, 50, 90
12, 74879, Note_on_c, 11, 50, 0
12, 74880, Note_on_c, 11, 48, 90
12, 74939, Note_on_c, 11, 48, 0
12, 74940, Note_on_c, 11, 47, 90
12, 74999, Note_on_c, 11, 47, 0
12, 75000, Note_on_c, 11, 48, 90
12, 75059, Note_on_c, 11, 48, 0
12, 75060, Note_on_c, 11, 45, 90
12, 75119, Note_on_c, 11, 45, 0
12, 75120, Note_on_c, 11, 47, 90
12, 75239, Note_on_c, 11, 47, 0
12, 75360, Note_on_c, 11, 45, 90
12, 75479, Note_on_c, 11, 45, 0
12, 75600, Note_on_c, 11, 43, 90
12, 75719, Note_on_c, 11, 43, 0
12, 75840, Note_on_c, 11, 42, 90
12, 75959, Note_on_c, 11, 42, 0
12, 76080, Note_on_c, 11, 52, 90
12, 76139, Note_on_c, 11, 52, 0
12, 76140, Note_on_c, 11, 54, 90
12, 76199, Note_on_c, 11, 54, 0
12, 76200, Note_on_c, 11, 55, 90
12, 76259, Note_on_c, 11, 55, 0
12, 76260, Note_on_c, 11, 52, 90
12, 76319, Note_on_c, 11, 52, 0
12, 76320, Note_on_c, 11, 57, 90
12, 76379, Note_on_c, 11, 57, 0
12, 76380, Note_on_c, 11, 55, 90
12, 76439, Note_on_c, 11, 55, 0
12, 76440, Note_on_c, 11, 54, 90
12, 76499, Note_on_c, 11, 54, 0
12, 76500, Note_on_c, 11, 50, 90
12, 76559, Note_on_c, 11, 50, 0
12, 76560, Note_on_c, 11, 55, 90
12, 76619, Note_on_c, 11, 55, 0
12, 76620, Note_on_c, 11, 54, 90
12, 76679, Note_on_c, 11, 54, 0
12, 76680, Note_on_c, 11, 52, 90
12, 76739, Note_on_c, 11, 52, 0
12, 76740, Note_on_c, 11, 50, 90
12, 76799, Note_on_c, 11, 50, 0
12, 76800, Note_on_c, 11, 48, 90
12, 76859, Note_on_c, 11, 48, 0
12, 76860, Note_on_c, 11, 47, 90
12, 76919, Note_on_c, 11, 47, 0
12, 76920, Note_on_c, 11, 48, 90
12, 76979, Note_on_c, 11, 48, 0
12, 76980, Note_on_c, 11, 45, 90
12, 77039, Note_on_c, 11, 45, 0
12, 77040, Note_on_c, 11, 47, 90
12, 77099, Note_on_c, 11, 47, 0
12, 77100, Note_on_c, 11, 48, 90
12, 77159, Note_on_c, 11, 48, 0
12, 77160, Note_on_c, 11, 47, 90
12, 77219, Note_on_c, 11, 47, 0
12, 77220, Note_on_c, 11, 45, 90
12, 77279, Note_on_c, 11, 45, 0
12, 77280, Note_on_c, 11, 44, 90
12, 77339, Note_on_c, 11, 44, 0
12, 77340, Note_on_c, 11, 42, 90
12, 77399, Note_on_c, 11, 42, 0
12, 77400, Note_on_c, 11, 44, 90
12, 77459, Note_on_c, 11, 44, 0
12, 77460, Note_on_c, 11, 40, 90
12, 77519, Note_on_c, 11, 40, 0
12, 77520, Note_on_c, 11, 45, 90
12, 77579, Note_on_c, 11, 45, 0
12, 77580, Note_on_c, 11, 47, 90
12, 77639, Note_on_c, 11, 47, 0
12, 77640, Note_on_c, 11, 48, 90
12, 77699, Note_on_c, 11, 48, 0
12, 77700, Note_on_c, 11, 45, 90
12, 77759, Note_on_c, 11, 45, 0
12, 77760, Note_on_c, 11, 50, 90
12, 77819, Note_on_c, 11, 50, 0
12, 77820, Note_on_c, 11, 48, 90
12, 77879, Note_on_c, 11, 48, 0
12, 77880, Note_on_c, 11, 47, 90
12, 77939, Note_on_c, 11, 47, 0
12, 77940, Note_on_c, 11, 45, 90
12, 77999, Note_on_c, 11, 45, 0
12, 78000, Note_on_c, 11, 43, 90
12, 78059, Note_on_c, 11, 43, 0
12, 78060, Note_on_c, 11, 48, 90
12, 78119, Note_on_c, 11, 48, 0
12, 78120, Note_on_c, 11, 50, 90
12, 78179, Note_on_c, 11, 50, 0
12, 78180, Note_on_c, 11, 38, 90
12, 78239, Note_on_c, 11, 38, 0
12, 78240, Note_on_c, 11, 43, 90
12, 78299, Note_on_c, 11, 43, 0
12, 78300, Note_on_c, 11, 45, 90
12, 78359, Note_on_c, 11, 45, 0
12, 78360, Note_on_c, 11, 47, 90
12, 78419, Note_on_c, 11, 47, 0
12, 78420, Note_on_c, 11, 43, 90
12, 78479, Note_on_c, 11, 43, 0
12, 78480, Note_on_c, 11, 42, 90
12, 78539, Note_on_c, 11, 42, 0
12, 78540, Note_on_c, 11, 50, 90
12, 78599, Note_on_c, 11, 50, 0
12, 78600, Note_on_c, 11, 55, 90
12, 78659, Note_on_c, 11, 55, 0
12, 78660, Note_on_c, 11, 59, 90
12, 78719, Note_on_c, 11, 59, 0
12, 78720, Note_on_c, 11, 54, 90
12, 78779, Note_on_c, 11, 54, 0
12, 78780, Note_on_c, 11, 52, 90
12, 78809, Note_on_c, 11, 52, 0
12, 78810, Note_on_c, 11, 50, 90
12, 78839, Note_on_c, 11, 50, 0
12, 78840, Note_on_c, 11, 55, 90
12, 78899, Note_on_c, 11, 55, 0
12, 78900, Note_on_c, 11, 59, 90
12, 78959, Note_on_c, 11, 59, 0
12, 78960, Note_on_c, 11, 54, 90
12, 79019, Note_on_c, 11, 54, 0
12, 79020, Note_on_c, 11, 52, 90
12, 79049, Note_on_c, 11, 52, 0
12, 79050, Note_on_c, 11, 50, 90
12, 79079, Note_on_c, 11, 50, 0
12, 79080, Note_on_c, 11, 55, 90
12, 79139, Note_on_c, 11, 55, 0
12, 79140, Note_on_c, 11, 59, 90
12, 79199, Note_on_c, 11, 59, 0
12, 79200, Note_on_c, 11, 54, 90
12, 79259, Note_on_c, 11, 54, 0
12, 79260, Note_on_c, 11, 52, 90
12, 79289, Note_on_c, 11, 52, 0
12, 79290, Note_on_c, 11, 50, 90
12, 79319, Note_on_c, 11, 50, 0
12, 79320, Note_on_c, 11, 55, 90
12, 79379, Note_on_c, 11, 55, 0
12, 79380, Note_on_c, 11, 59, 90
12, 79439, Note_on_c, 11, 59, 0
12, 79440, Note_on_c, 11, 49, 90
12, 79499, Note_on_c, 11, 49, 0
12, 79500, Note_on_c, 11, 50, 90
12, 79559, Note_on_c, 11, 50, 0
12, 79560, Note_on_c, 11, 52, 90
12, 79619, Note_on_c, 11, 52, 0
12, 79620, Note_on_c, 11, 49, 90
12, 79679, Note_on_c, 11, 49, 0
12, 79680, Note_on_c, 11, 54, 90
12, 79739, Note_on_c, 11, 54, 0
12, 79740, Note_on_c, 11, 50, 90
12, 79799, Note_on_c, 11, 50, 0
12, 79800, Note_on_c, 11, 52, 90
12, 79859, Note_on_c, 11, 52, 0
12, 79860, Note_on_c, 11, 54, 90
12, 79919, Note_on_c, 11, 54, 0
12, 79920, Note_on_c, 11, 47, 90
12, 79979, Note_on_c, 11, 47, 0
12, 79980, Note_on_c, 11, 49, 90
12, 80039, Note_on_c, 11, 49, 0
12, 80040, Note_on_c, 11, 50, 90
12, 80099, Note_on_c, 11, 50, 0
12, 80100, Note_on_c, 11, 47, 90
12, 80159, Note_on_c, 11, 47, 0
12, 80160, Note_on_c, 11, 52, 90
12, 80219, Note_on_c, 11, 52, 0
12, 80220, Note_on_c, 11, 54, 90
12, 80279, Note_on_c, 11, 54, 0
12, 80280, Note_on_c, 11, 55, 90
12, 80339, Note_on_c, 11, 55, 0
12, 80340, Note_on_c, 11, 52, 90
12, 80399, Note_on_c, 11, 52, 0
12, 80400, Note_on_c, 11, 54, 90
12, 80519, Note_on_c, 11, 54, 0
12, 80580, Note_on_c, 11, 54, 90
12, 80639, Note_on_c, 11, 54, 0
12, 80640, Note_on_c, 11, 59, 90
12, 80699, Note_on_c, 11, 59, 0
12, 80700, Note_on_c, 11, 52, 90
12, 80759, Note_on_c, 11, 52, 0
12, 80760, Note_on_c, 11, 54, 90
12, 80819, Note_on_c, 11, 54, 0
12, 80820, Note_on_c, 11, 42, 90
12, 80879, Note_on_c, 11, 42, 0
12, 80880, Note_on_c, 11, 47, 90
12, 80939, Note_on_c, 11, 47, 0
12, 80940, Note_on_c, 11, 49, 90
12, 80999, Note_on_c, 11, 49, 0
12, 81000, Note_on_c, 11, 50, 90
12, 81059, Note_on_c, 11, 50, 0
12, 81060, Note_on_c, 11, 47, 90
12, 81119, Note_on_c, 11, 47, 0
12, 81120, Note_on_c, 11, 52, 90
12, 81179, Note_on_c, 11, 52, 0
12, 81180, Note_on_c, 11, 50, 90
12, 81239, Note_on_c, 11, 50, 0
12, 81240, Note_on_c, 11, 49, 90
12, 81299, Note_on_c, 11, 49, 0
12, 81300, Note_on_c, 11, 45, 90
12, 81359, Note_on_c, 11, 45, 0
12, 81360, Note_on_c, 11, 50, 90
12, 81419, Note_on_c, 11, 50, 0
12, 81420, Note_on_c, 11, 49, 90
12, 81479, Note_on_c, 11, 49, 0
12, 81480, Note_on_c, 11, 47, 90
12, 81539, Note_on_c, 11, 47, 0
12, 81540, Note_on_c, 11, 45, 90
12, 81599, Note_on_c, 11, 45, 0
12, 81600, Note_on_c, 11, 43, 90
12, 81659, Note_on_c, 11, 43, 0
12, 81660, Note_on_c, 11, 42, 90
12, 81719, Note_on_c, 11, 42, 0
12, 81720, Note_on_c, 11, 40, 90
12, 81779, Note_on_c, 11, 40, 0
12, 81780, Note_on_c, 11, 49, 90
12, 81839, Note_on_c, 11, 49, 0
12, 81840, Note_on_c, 11, 54, 90
12, 81959, Note_on_c, 11, 54, 0
12, 82080, Note_on_c, 11, 52, 90
12, 82199, Note_on_c, 11, 52, 0
12, 82320, Note_on_c, 11, 50, 90
12, 82439, Note_on_c, 11, 50, 0
12, 82560, Note_on_c, 11, 49, 90
12, 82679, Note_on_c, 11, 49, 0
12, 82800, Note_on_c, 11, 47, 90
12, 82859, Note_on_c, 11, 47, 0
12, 82860, Note_on_c, 11, 49, 90
12, 82919, Note_on_c, 11, 49, 0
12, 82920, Note_on_c, 11, 50, 90
12, 82979, Note_on_c, 11, 50, 0
12, 82980, Note_on_c, 11, 47, 90
12, 83039, Note_on_c, 11, 47, 0
12, 83040, Note_on_c, 11, 52, 90
12, 83099, Note_on_c, 11, 52, 0
12, 83100, Note_on_c, 11, 54, 90
12, 83159, Note_on_c, 11, 54, 0
12, 83160, Note_on_c, 11, 55, 90
12, 83219, Note_on_c, 11, 55, 0
12, 83220, Note_on_c, 11, 52, 90
12, 83279, Note_on_c, 11, 52, 0
12, 83280, Note_on_c, 11, 49, 90
12, 83339, Note_on_c, 11, 49, 0
12, 83340, Note_on_c, 11, 47, 90
12, 83399, Note_on_c, 11, 47, 0
12, 83400, Note_on_c, 11, 49, 90
12, 83459, Note_on_c, 11, 49, 0
12, 83460, Note_on_c, 11, 45, 90
12, 83519, Note_on_c, 11, 45, 0
12, 83520, Note_on_c, 11, 50, 90
12, 83579, Note_on_c, 11, 50, 0
12, 83580, Note_on_c, 11, 52, 90
12, 83639, Note_on_c, 11, 52, 0
12, 83640, Note_on_c, 11, 54, 90
12, 83699, Note_on_c, 11, 54, 0
12, 83700, Note_on_c, 11, 49, 90
12, 83759, Note_on_c, 11, 49, 0
12, 83760, Note_on_c, 11, 50, 90
12, 83819, Note_on_c, 11, 50, 0
12, 83820, Note_on_c, 11, 52, 90
12, 83879, Note_on_c, 11, 52, 0
12, 83880, Note_on_c, 11, 54, 90
12, 83939, Note_on_c, 11, 54, 0
12, 83940, Note_on_c, 11, 49, 90
12, 83999, Note_on_c, 11, 49, 0
12, 84000, Note_on_c, 11, 50, 90
12, 84059, Note_on_c, 11, 50, 0
12, 84060, Note_on_c, 11, 57, 90
12, 84119, Note_on_c, 11, 57, 0
12, 84120, Note_on_c, 11, 62, 90
12, 84179, Note_on_c, 11, 62, 0
12, 84180, Note_on_c, 11, 60, 90
12, 84239, Note_on_c, 11, 60, 0
12, 84240, Note_on_c, 11, 59, 90
12, 84299, Note_on_c, 11, 59, 0
12, 84300, Note_on_c, 11, 57, 90
12, 84359, Note_on_c, 11, 57, 0
12, 84360, Note_on_c, 11, 59, 90
12, 84419, Note_on_c, 11, 59, 0
12, 84420, Note_on_c, 11, 55, 90
12, 84479, Note_on_c, 11, 55, 0
12, 84480, Note_on_c, 11, 57, 90
12, 84539, Note_on_c, 11, 57, 0
12, 84540, Note_on_c, 11, 55, 90
12, 84599, Note_on_c, 11, 55, 0
12, 84600, Note_on_c, 11, 57, 90
12, 84659, Note_on_c, 11, 57, 0
12, 84660, Note_on_c, 11, 45, 90
12, 84719, Note_on_c, 11, 45, 0
12, 84720, Note_on_c, 11, 50, 90
12, 84779, Note_on_c, 11, 50, 0
12, 84780, Note_on_c, 11, 52, 90
12, 84839, Note_on_c, 11, 52, 0
12, 84840, Note_on_c, 11, 54, 90
12, 84899, Note_on_c, 11, 54, 0
12, 84900, Note_on_c, 11, 50, 90
12, 84959, Note_on_c, 11, 50, 0
12, 84960, Note_on_c, 11, 49, 90
12, 85019, Note_on_c, 11, 49, 0
12, 85020, Note_on_c, 11, 45, 90
12, 85079, Note_on_c, 11, 45, 0
12, 85080, Note_on_c, 11, 50, 90
12, 85139, Note_on_c, 11, 50, 0
12, 85140, Note_on_c, 11, 54, 90
12, 85199, Note_on_c, 11, 54, 0
12, 85200, Note_on_c, 11, 49, 90
12, 85259, Note_on_c, 11, 49, 0
12, 85260, Note_on_c, 11, 47, 90
12, 85289, Note_on_c, 11, 47, 0
12, 85290, Note_on_c, 11, 45, 90
12, 85319, Note_on_c, 11, 45, 0
12, 85320, Note_on_c, 11, 50, 90
12, 85379, Note_on_c, 11, 50, 0
12, 85380, Note_on_c, 11, 54, 90
12, 85439, Note_on_c, 11, 54, 0
12, 85440, Note_on_c, 11, 49, 90
12, 85499, Note_on_c, 11, 49, 0
12, 85500, Note_on_c, 11, 47, 90
12, 85529, Note_on_c, 11, 47, 0
12, 85530, Note_on_c, 11, 45, 90
12, 85559, Note_on_c, 11, 45, 0
12, 85560, Note_on_c, 11, 50, 90
12, 85619, Note_on_c, 11, 50, 0
12, 85620, Note_on_c, 11, 54, 90
12, 85679, Note_on_c, 11, 54, 0
12, 85680, Note_on_c, 11, 49, 90
12, 85739, Note_on_c, 11, 49, 0
12, 85740, Note_on_c, 11, 47, 90
12, 85769, Note_on_c, 11, 47, 0
12, 85770, Note_on_c, 11, 45, 90
12, 85799, Note_on_c, 11, 45, 0
12, 85800, Note_on_c, 11, 50, 90
12, 85859, Note_on_c, 11, 50, 0
12, 85860, Note_on_c, 11, 52, 90
12, 85919, Note_on_c, 11, 52, 0
12, 85920, Note_on_c, 11, 54, 90
12, 85979, Note_on_c, 11, 54, 0
12, 85980, Note_on_c, 11, 50, 90
12, 86039, Note_on_c, 11, 50, 0
12, 86040, Note_on_c, 11, 52, 90
12, 86099, Note_on_c, 11, 52, 0
12, 86100, Note_on_c, 11, 54, 90
12, 86159, Note_on_c, 11, 54, 0
12, 86160, Note_on_c, 11, 55, 90
12, 86219, Note_on_c, 11, 55, 0
12, 86220, Note_on_c, 11, 57, 90
12, 86279, Note_on_c, 11, 57, 0
12, 86280, Note_on_c, 11, 59, 90
12, 86339, Note_on_c, 11, 59, 0
12, 86340, Note_on_c, 11, 57, 90
12, 86399, Note_on_c, 11, 57, 0
12, 86400, Note_on_c, 11, 56, 90
12, 86459, Note_on_c, 11, 56, 0
12, 86460, Note_on_c, 11, 52, 90
12, 86519, Note_on_c, 11, 52, 0
12, 86520, Note_on_c, 11, 54, 90
12, 86579, Note_on_c, 11, 54, 0
12, 86580, Note_on_c, 11, 56, 90
12, 86639, Note_on_c, 11, 56, 0
12, 86640, Note_on_c, 11, 57, 90
12, 86699, Note_on_c, 11, 57, 0
12, 86700, Note_on_c, 11, 59, 90
12, 86759, Note_on_c, 11, 59, 0
12, 86760, Note_on_c, 11, 57, 90
12, 86819, Note_on_c, 11, 57, 0
12, 86820, Note_on_c, 11, 55, 90
12, 86879, Note_on_c, 11, 55, 0
12, 86880, Note_on_c, 11, 54, 90
12, 86939, Note_on_c, 11, 54, 0
12, 86940, Note_on_c, 11, 52, 90
12, 86999, Note_on_c, 11, 52, 0
12, 87000, Note_on_c, 11, 51, 90
12, 87059, Note_on_c, 11, 51, 0
12, 87060, Note_on_c, 11, 52, 90
12, 87119, Note_on_c, 11, 52, 0
12, 87120, Note_on_c, 11, 59, 90
12, 87179, Note_on_c, 11, 59, 0
12, 87180, Note_on_c, 11, 57, 90
12, 87239, Note_on_c, 11, 57, 0
12, 87240, Note_on_c, 11, 55, 90
12, 87299, Note_on_c, 11, 55, 0
12, 87300, Note_on_c, 11, 52, 90
12, 87359, Note_on_c, 11, 52, 0
12, 87360, Note_on_c, 11, 57, 90
12, 87419, Note_on_c, 11, 57, 0
12, 87420, Note_on_c, 11, 55, 90
12, 87479, Note_on_c, 11, 55, 0
12, 87480, Note_on_c, 11, 54, 90
12, 87539, Note_on_c, 11, 54, 0
12, 87540, Note_on_c, 11, 50, 90
12, 87599, Note_on_c, 11, 50, 0
12, 87600, Note_on_c, 11, 55, 90
12, 87659, Note_on_c, 11, 55, 0
12, 87660, Note_on_c, 11, 54, 90
12, 87719, Note_on_c, 11, 54, 0
12, 87720, Note_on_c, 11, 52, 90
12, 87779, Note_on_c, 11, 52, 0
12, 87780, Note_on_c, 11, 55, 90
12, 87839, Note_on_c, 11, 55, 0
12, 87840, Note_on_c, 11, 54, 90
12, 87899, Note_on_c, 11, 54, 0
12, 87900, Note_on_c, 11, 52, 90
12, 87959, Note_on_c, 11, 52, 0
12, 87960, Note_on_c, 11, 51, 90
12, 88019, Note_on_c, 11, 51, 0
12, 88020, Note_on_c, 11, 52, 90
12, 88079, Note_on_c, 11, 52, 0
12, 88080, Note_on_c, 11, 47, 90
12, 88199, Note_on_c, 11, 47, 0
12, 88320, Note_on_c, 11, 45, 90
12, 88439, Note_on_c, 11, 45, 0
12, 88560, Note_on_c, 11, 43, 90
12, 88679, Note_on_c, 11, 43, 0
12, 88800, Note_on_c, 11, 42, 90
12, 88919, Note_on_c, 11, 42, 0
12, 89040, Note_on_c, 11, 52, 90
12, 89099, Note_on_c, 11, 52, 0
12, 89100, Note_on_c, 11, 50, 90
12, 89159, Note_on_c, 11, 50, 0
12, 89160, Note_on_c, 11, 48, 90
12, 89219, Note_on_c, 11, 48, 0
12, 89220, Note_on_c, 11, 47, 90
12, 89279, Note_on_c, 11, 47, 0
12, 89280, Note_on_c, 11, 45, 90
12, 89339, Note_on_c, 11, 45, 0
12, 89340, Note_on_c, 11, 47, 90
12, 89399, Note_on_c, 11, 47, 0
12, 89400, Note_on_c, 11, 48, 90
12, 89459, Note_on_c, 11, 48, 0
12, 89460, Note_on_c, 11, 45, 90
12, 89519, Note_on_c, 11, 45, 0
12, 89520, Note_on_c, 11, 47, 90
12, 89579, Note_on_c, 11, 47, 0
12, 89580, Note_on_c, 11, 51, 90
12, 89639, Note_on_c, 11, 51, 0
12, 89640, Note_on_c, 11, 52, 90
12, 89699, Note_on_c, 11, 52, 0
12, 89700, Note_on_c, 11, 60, 90
12, 89759, Note_on_c, 11, 60, 0
12, 89760, Note_on_c, 11, 59, 90
12, 89819, Note_on_c, 11, 59, 0
12, 89820, Note_on_c, 11, 57, 90
12, 89879, Note_on_c, 11, 57, 0
12, 89880, Note_on_c, 11, 59, 90
12, 89939, Note_on_c, 11, 59, 0
12, 89940, Note_on_c, 11, 47, 90
12, 89999, Note_on_c, 11, 47, 0
12, 90000, Note_on_c, 11, 52, 90
12, 90059, Note_on_c, 11, 52, 0
12, 90060, Note_on_c, 11, 54, 90
12, 90119, Note_on_c, 11, 54, 0
12, 90120, Note_on_c, 11, 55, 90
12, 90179, Note_on_c, 11, 55, 0
12, 90180, Note_on_c, 11, 52, 90
12, 90239, Note_on_c, 11, 52, 0
12, 90240, Note_on_c, 11, 57, 90
12, 90299, Note_on_c, 11, 57, 0
12, 90300, Note_on_c, 11, 55, 90
12, 90359, Note_on_c, 11, 55, 0
12, 90360, Note_on_c, 11, 54, 90
12, 90419, Note_on_c, 11, 54, 0
12, 90420, Note_on_c, 11, 50, 90
12, 90479, Note_on_c, 11, 50, 0
12, 90480, Note_on_c, 11, 55, 90
12, 90539, Note_on_c, 11, 55, 0
12, 90540, Note_on_c, 11, 54, 90
12, 90599, Note_on_c, 11, 54, 0
12, 90600, Note_on_c, 11, 52, 90
12, 90659, Note_on_c, 11, 52, 0
12, 90660, Note_on_c, 11, 50, 90
12, 90719, Note_on_c, 11, 50, 0
12, 90720, Note_on_c, 11, 48, 90
12, 90779, Note_on_c, 11, 48, 0
12, 90780, Note_on_c, 11, 47, 90
12, 90839, Note_on_c, 11, 47, 0
12, 90840, Note_on_c, 11, 45, 90
12, 90899, Note_on_c, 11, 45, 0
12, 90900, Note_on_c, 11, 42, 90
12, 90959, Note_on_c, 11, 42, 0
12, 90960, Note_on_c, 11, 47, 90
12, 91079, Note_on_c, 11, 47, 0
12, 91200, Note_on_c, 11, 45, 90
12, 91319, Note_on_c, 11, 45, 0
12, 91440, Note_on_c, 11, 43, 90
12, 91559, Note_on_c, 11, 43, 0
12, 91680, Note_on_c, 11, 42, 90
12, 91799, Note_on_c, 11, 42, 0
12, 91920, Note_on_c, 11, 40, 90
12, 91979, Note_on_c, 11, 40, 0
12, 91980, Note_on_c, 11, 42, 90
12, 92039, Note_on_c, 11, 42, 0
12, 92040, Note_on_c, 11, 43, 90
12, 92099, Note_on_c, 11, 43, 0
12, 92100, Note_on_c, 11, 40, 90
12, 92159, Note_on_c, 11, 40, 0
12, 92160, Note_on_c, 11, 45, 90
12, 92219, Note_on_c, 11, 45, 0
12, 92220, Note_on_c, 11, 47, 90
12, 92279, Note_on_c, 11, 47, 0
12, 92280, Note_on_c, 11, 48, 90
12, 92339, Note_on_c, 11, 48, 0
12, 92340, Note_on_c, 11, 45, 90
12, 92399, Note_on_c, 11, 45, 0
12, 92400, Note_on_c, 11, 47, 90
12, 92459, Note_on_c, 11, 47, 0
12, 92460, Note_on_c, 11, 51, 90
12, 92519, Note_on_c, 11, 51, 0
12, 92520, Note_on_c, 11, 52, 90
12, 92579, Note_on_c, 11, 52, 0
12, 92580, Note_on_c, 11, 55, 90
12, 92639, Note_on_c, 11, 55, 0
12, 92640, Note_on_c, 11, 60, 90
12, 92699, Note_on_c, 11, 60, 0
12, 92700, Note_on_c, 11, 57, 90
12, 92759, Note_on_c, 11, 57, 0
12, 92760, Note_on_c, 11, 59, 90
12, 92819, Note_on_c, 11, 59, 0
12, 92820, Note_on_c, 11, 47, 90
12, 92879, Note_on_c, 11, 47, 0
12, 92880, Note_on_c, 11, 52, 90
12, 92999, Note_on_c, 11, 52, 0
12, 93360, Note_on_c, 11, 49, 90
12, 94200, Note_on_c, 11, 49, 0
12, 94200, Note_on_c, 11, 46, 90
12, 94320, Note_on_c, 11, 46, 0
12, 94320, Note_on_c, 11, 47, 90
12, 94560, Note_on_c, 11, 47, 0
12, 94560, Note_on_c, 11, 54, 90
12, 95040, Note_on_c, 11, 54, 0
12, 95040, Note_on_c, 11, 55, 90
12, 95099, Note_on_c, 11, 55, 0
12, 95100, Note_on_c, 11, 57, 90
12, 95159, Note_on_c, 11, 57, 0
12, 95160, Note_on_c, 11, 55, 90
12, 95219, Note_on_c, 11, 55, 0
12, 95220, Note_on_c, 11, 54, 90
12, 95279, Note_on_c, 11, 54, 0
12, 95280, Note_on_c, 11, 52, 90
12, 95339, Note_on_c, 11, 52, 0
12, 95340, Note_on_c, 11, 54, 90
12, 95399, Note_on_c, 11, 54, 0
12, 95400, Note_on_c, 11, 55, 90
12, 95459, Note_on_c, 11, 55, 0
12, 95460, Note_on_c, 11, 52, 90
12, 95519, Note_on_c, 11, 52, 0
12, 95520, Note_on_c, 11, 57, 90
12, 95579, Note_on_c, 11, 57, 0
12, 95580, Note_on_c, 11, 59, 90
12, 95639, Note_on_c, 11, 59, 0
12, 95640, Note_on_c, 11, 57, 90
12, 95699, Note_on_c, 11, 57, 0
12, 95700, Note_on_c, 11, 55, 90
12, 95759, Note_on_c, 11, 55, 0
12, 95760, Note_on_c, 11, 54, 90
12, 95819, Note_on_c, 11, 54, 0
12, 95820, Note_on_c, 11, 52, 90
12, 95879, Note_on_c, 11, 52, 0
12, 95880, Note_on_c, 11, 50, 90
12, 95939, Note_on_c, 11, 50, 0
12, 95940, Note_on_c, 11, 47, 90
12, 95999, Note_on_c, 11, 47, 0
12, 96000, Note_on_c, 11, 52, 90
12, 96059, Note_on_c, 11, 52, 0
12, 96060, Note_on_c, 11, 50, 90
12, 96119, Note_on_c, 11, 50, 0
12, 96120, Note_on_c, 11, 49, 90
12, 96179, Note_on_c, 11, 49, 0
12, 96180, Note_on_c, 11, 45, 90
12, 96239, Note_on_c, 11, 45, 0
12, 96240, Note_on_c, 11, 50, 90
12, 96299, Note_on_c, 11, 50, 0
12, 96300, Note_on_c, 11, 49, 90
12, 96359, Note_on_c, 11, 49, 0
12, 96360, Note_on_c, 11, 47, 90
12, 96419, Note_on_c, 11, 47, 0
12, 96420, Note_on_c, 11, 50, 90
12, 96479, Note_on_c, 11, 50, 0
12, 96480, Note_on_c, 11, 55, 90
12, 96539, Note_on_c, 11, 55, 0
12, 96540, Note_on_c, 11, 59, 90
12, 96599, Note_on_c, 11, 59, 0
12, 96600, Note_on_c, 11, 56, 90
12, 96659, Note_on_c, 11, 56, 0
12, 96660, Note_on_c, 11, 52, 90
12, 96719, Note_on_c, 11, 52, 0
12, 96720, Note_on_c, 11, 57, 90
12, 96779, Note_on_c, 11, 57, 0
12, 96780, Note_on_c, 11, 59, 90
12, 96839, Note_on_c, 11, 59, 0
12, 96840, Note_on_c, 11, 57, 90
12, 96899, Note_on_c, 11, 57, 0
12, 96900, Note_on_c, 11, 55, 90
12, 96959, Note_on_c, 11, 55, 0
12, 96960, Note_on_c, 11, 54, 90
12, 97019, Note_on_c, 11, 54, 0
12, 97020, Note_on_c, 11, 55, 90
12, 97079, Note_on_c, 11, 55, 0
12, 97080, Note_on_c, 11, 57, 90
12, 97139, Note_on_c, 11, 57, 0
12, 97140, Note_on_c, 11, 54, 90
12, 97199, Note_on_c, 11, 54, 0
12, 97200, Note_on_c, 11, 59, 90
12, 97259, Note_on_c, 11, 59, 0
12, 97260, Note_on_c, 11, 57, 90
12, 97319, Note_on_c, 11, 57, 0
12, 97320, Note_on_c, 11, 59, 90
12, 97379, Note_on_c, 11, 59, 0
12, 97380, Note_on_c, 11, 55, 90
12, 97439, Note_on_c, 11, 55, 0
12, 97440, Note_on_c, 11, 57, 90
12, 97499, Note_on_c, 11, 57, 0
12, 97500, Note_on_c, 11, 55, 90
12, 97559, Note_on_c, 11, 55, 0
12, 97560, Note_on_c, 11, 57, 90
12, 97619, Note_on_c, 11, 57, 0
12, 97620, Note_on_c, 11, 45, 90
12, 97679, Note_on_c, 11, 45, 0
12, 97680, Note_on_c, 11, 50, 90
12, 97739, Note_on_c, 11, 50, 0
12, 97740, Note_on_c, 11, 52, 90
12, 97799, Note_on_c, 11, 52, 0
12, 97800, Note_on_c, 11, 54, 90
12, 97859, Note_on_c, 11, 54, 0
12, 97860, Note_on_c, 11, 50, 90
12, 97919, Note_on_c, 11, 50, 0
12, 97920, Note_on_c, 11, 47, 90
12, 97979, Note_on_c, 11, 47, 0
12, 97980, Note_on_c, 11, 49, 90
12, 98039, Note_on_c, 11, 49, 0
12, 98040, Note_on_c, 11, 47, 90
12, 98099, Note_on_c, 11, 47, 0
12, 98100, Note_on_c, 11, 45, 90
12, 98159, Note_on_c, 11, 45, 0
12, 98160, Note_on_c, 11, 43, 90
12, 98219, Note_on_c, 11, 43, 0
12, 98220, Note_on_c, 11, 42, 90
12, 98279, Note_on_c, 11, 42, 0
12, 98280, Note_on_c, 11, 43, 90
12, 98339, Note_on_c, 11, 43, 0
12, 98340, Note_on_c, 11, 45, 90
12, 98399, Note_on_c, 11, 45, 0
12, 98400, Note_on_c, 11, 38, 90
12, 98639, Note_on_c, 11, 38, 0
12, 98820, Note_on_c, 11, 50, 90
12, 98879, Note_on_c, 11, 50, 0
12, 98880, Note_on_c, 11, 54, 90
12, 98939, Note_on_c, 11, 54, 0
12, 98940, Note_on_c, 11, 57, 90
12, 98999, Note_on_c, 11, 57, 0
12, 99000, Note_on_c, 11, 50, 90
12, 99059, Note_on_c, 11, 50, 0
12, 99060, Note_on_c, 11, 54, 90
12, 99119, Note_on_c, 11, 54, 0
12, 99120, Note_on_c, 11, 57, 90
12, 99179, Note_on_c, 11, 57, 0
12, 99180, Note_on_c, 11, 49, 90
12, 99239, Note_on_c, 11, 49, 0
12, 99240, Note_on_c, 11, 52, 90
12, 99299, Note_on_c, 11, 52, 0
12, 99300, Note_on_c, 11, 57, 90
12, 99359, Note_on_c, 11, 57, 0
12, 99360, Note_on_c, 11, 49, 90
12, 99419, Note_on_c, 11, 49, 0
12, 99420, Note_on_c, 11, 52, 90
12, 99479, Note_on_c, 11, 52, 0
12, 99480, Note_on_c, 11, 57, 90
12, 99539, Note_on_c, 11, 57, 0
12, 99540, Note_on_c, 11, 50, 90
12, 99599, Note_on_c, 11, 50, 0
12, 99600, Note_on_c, 11, 54, 90
12, 99659, Note_on_c, 11, 54, 0
12, 99660, Note_on_c, 11, 57, 90
12, 99719, Note_on_c, 11, 57, 0
12, 99720, Note_on_c, 11, 50, 90
12, 99779, Note_on_c, 11, 50, 0
12, 99780, Note_on_c, 11, 54, 90
12, 99839, Note_on_c, 11, 54, 0
12, 99840, Note_on_c, 11, 57, 90
12, 99899, Note_on_c, 11, 57, 0
12, 99900, Note_on_c, 11, 45, 90
12, 99959, Note_on_c, 11, 45, 0
12, 99960, Note_on_c, 11, 57, 90
12, 99989, Note_on_c, 11, 57, 0
12, 99990, Note_on_c, 11, 56, 90
12, 100019, Note_on_c, 11, 56, 0
12, 100020, Note_on_c, 11, 57, 90
12, 100049, Note_on_c, 11, 57, 0
12, 100050, Note_on_c, 11, 52, 90
12, 100079, Note_on_c, 11, 52, 0
12, 100080, Note_on_c, 11, 64, 90
12, 100080, Note_on_c, 11, 49, 90
12, 100139, Note_on_c, 11, 49, 0
12, 100139, Note_on_c, 11, 64, 0
12, 100140, Note_on_c, 11, 62, 90
12, 100140, Note_on_c, 11, 47, 90
12, 100199, Note_on_c, 11, 47, 0
12, 100199, Note_on_c, 11, 62, 0
12, 100200, Note_on_c, 11, 61, 90
12, 100200, Note_on_c, 11, 45, 90
12, 100259, Note_on_c, 11, 45, 0
12, 100259, Note_on_c, 11, 61, 0
12, 100260, Note_on_c, 11, 47, 90
12, 100319, Note_on_c, 11, 47, 0
12, 100320, Note_on_c, 11, 50, 90
12, 100379, Note_on_c, 11, 50, 0
12, 100380, Note_on_c, 11, 55, 90
12, 100439, Note_on_c, 11, 55, 0
12, 100440, Note_on_c, 11, 49, 90
12, 100499, Note_on_c, 11, 49, 0
12, 100500, Note_on_c, 11, 52, 90
12, 100559, Note_on_c, 11, 52, 0
12, 100560, Note_on_c, 11, 57, 90
12, 100619, Note_on_c, 11, 57, 0
12, 100620, Note_on_c, 11, 50, 90
12, 100679, Note_on_c, 11, 50, 0
12, 100680, Note_on_c, 11, 54, 90
12, 100739, Note_on_c, 11, 54, 0
12, 100740, Note_on_c, 11, 57, 90
12, 100799, Note_on_c, 11, 57, 0
12, 100800, Note_on_c, 11, 54, 90
12, 100859, Note_on_c, 11, 54, 0
12, 100860, Note_on_c, 11, 57, 90
12, 100919, Note_on_c, 11, 57, 0
12, 100920, Note_on_c, 11, 62, 90
12, 100979, Note_on_c, 11, 62, 0
12, 100980, Note_on_c, 11, 55, 90
12, 101039, Note_on_c, 11, 55, 0
12, 101040, Note_on_c, 11, 59, 90
12, 101099, Note_on_c, 11, 59, 0
12, 101100, Note_on_c, 11, 62, 90
12, 101159, Note_on_c, 11, 62, 0
12, 101160, Note_on_c, 11, 56, 90
12, 101219, Note_on_c, 11, 56, 0
12, 101220, Note_on_c, 11, 59, 90
12, 101279, Note_on_c, 11, 59, 0
12, 101280, Note_on_c, 11, 64, 90
12, 101339, Note_on_c, 11, 64, 0
12, 101340, Note_on_c, 11, 57, 90
12, 101399, Note_on_c, 11, 57, 0
12, 101400, Note_on_c, 11, 61, 90
12, 101459, Note_on_c, 11, 61, 0
12, 101460, Note_on_c, 11, 64, 90
12, 101519, Note_on_c, 11, 64, 0
12, 101520, Note_on_c, 11, 55, 90
12, 101579, Note_on_c, 11, 55, 0
12, 101580, Note_on_c, 11, 61, 90
12, 101639, Note_on_c, 11, 61, 0
12, 101640, Note_on_c, 11, 64, 90
12, 101699, Note_on_c, 11, 64, 0
12, 101700, Note_on_c, 11, 52, 90
12, 101759, Note_on_c, 11, 52, 0
12, 101760, Note_on_c, 11, 55, 90
12, 101819, Note_on_c, 11, 55, 0
12, 101820, Note_on_c, 11, 61, 90
12, 101879, Note_on_c, 11, 61, 0
12, 101880, Note_on_c, 11, 49, 90
12, 101939, Note_on_c, 11, 49, 0
12, 101940, Note_on_c, 11, 52, 90
12, 101999, Note_on_c, 11, 52, 0
12, 102000, Note_on_c, 11, 57, 90
12, 102059, Note_on_c, 11, 57, 0
12, 102060, Note_on_c, 11, 50, 90
12, 102119, Note_on_c, 11, 50, 0
12, 102120, Note_on_c, 11, 59, 90
12, 102179, Note_on_c, 11, 59, 0
12, 102180, Note_on_c, 11, 55, 90
12, 102239, Note_on_c, 11, 55, 0
12, 102240, Note_on_c, 11, 54, 90
12, 102269, Note_on_c, 11, 54, 0
12, 102270, Note_on_c, 11, 52, 90
12, 102299, Note_on_c, 11, 52, 0
12, 102300, Note_on_c, 11, 54, 90
12, 102329, Note_on_c, 11, 54, 0
12, 102330, Note_on_c, 11, 55, 90
12, 102359, Note_on_c, 11, 55, 0
12, 102360, Note_on_c, 11, 57, 90
12, 102419, Note_on_c, 11, 57, 0
12, 102420, Note_on_c, 11, 50, 90
12, 102479, Note_on_c, 11, 50, 0
12, 102480, Note_on_c, 11, 54, 90
12, 102539, Note_on_c, 11, 54, 0
12, 102540, Note_on_c, 11, 57, 90
12, 102599, Note_on_c, 11, 57, 0
12, 102600, Note_on_c, 11, 62, 90
12, 102719, Note_on_c, 11, 62, 0
12, 102780, Note_on_c, 11, 50, 90
12, 102839, Note_on_c, 11, 50, 0
12, 102840, Note_on_c, 11, 54, 90
12, 102899, Note_on_c, 11, 54, 0
12, 102900, Note_on_c, 11, 57, 90
12, 102959, Note_on_c, 11, 57, 0
12, 102960, Note_on_c, 11, 50, 90
12, 103019, Note_on_c, 11, 50, 0
12, 103020, Note_on_c, 11, 54, 90
12, 103079, Note_on_c, 11, 54, 0
12, 103080, Note_on_c, 11, 57, 90
12, 103139, Note_on_c, 11, 57, 0
12, 103140, Note_on_c, 11, 49, 90
12, 103199, Note_on_c, 11, 49, 0
12, 103200, Note_on_c, 11, 52, 90
12, 103259, Note_on_c, 11, 52, 0
12, 103260, Note_on_c, 11, 57, 90
12, 103319, Note_on_c, 11, 57, 0
12, 103320, Note_on_c, 11, 49, 90
12, 103379, Note_on_c, 11, 49, 0
12, 103380, Note_on_c, 11, 52, 90
12, 103439, Note_on_c, 11, 52, 0
12, 103440, Note_on_c, 11, 57, 90
12, 103499, Note_on_c, 11, 57, 0
12, 103500, Note_on_c, 11, 50, 90
12, 103559, Note_on_c, 11, 50, 0
12, 103560, Note_on_c, 11, 54, 90
12, 103619, Note_on_c, 11, 54, 0
12, 103620, Note_on_c, 11, 57, 90
12, 103679, Note_on_c, 11, 57, 0
12, 103680, Note_on_c, 11, 50, 90
12, 103739, Note_on_c, 11, 50, 0
12, 103740, Note_on_c, 11, 54, 90
12, 103799, Note_on_c, 11, 54, 0
12, 103800, Note_on_c, 11, 57, 90
12, 103859, Note_on_c, 11, 57, 0
12, 103860, Note_on_c, 11, 45, 90
12, 103919, Note_on_c, 11, 45, 0
12, 103920, Note_on_c, 11, 57, 90
12, 103949, Note_on_c, 11, 57, 0
12, 103950, Note_on_c, 11, 56, 90
12, 103979, Note_on_c, 11, 56, 0
12, 103980, Note_on_c, 11, 57, 90
12, 104009, Note_on_c, 11, 57, 0
12, 104010, Note_on_c, 11, 52, 90
12, 104039, Note_on_c, 11, 52, 0
12, 104040, Note_on_c, 11, 52, 90
12, 104040, Note_on_c, 11, 49, 90
12, 104099, Note_on_c, 11, 49, 0
12, 104099, Note_on_c, 11, 52, 0
12, 104100, Note_on_c, 11, 50, 90
12, 104100, Note_on_c, 11, 47, 90
12, 104159, Note_on_c, 11, 47, 0
12, 104159, Note_on_c, 11, 50, 0
12, 104160, Note_on_c, 11, 49, 90
12, 104160, Note_on_c, 11, 45, 90
12, 104219, Note_on_c, 11, 45, 0
12, 104219, Note_on_c, 11, 49, 0
12, 104220, Note_on_c, 11, 50, 100
12, 104340, Note_on_c, 11, 50, 0
12, 104400, Note_on_c, 11, 47, 90
12, 104459, Note_on_c, 11, 47, 0
12, 104460, Note_on_c, 11, 45, 90
12, 104519, Note_on_c, 11, 45, 0
12, 104520, Note_on_c, 11, 44, 90
12, 104579, Note_on_c, 11, 44, 0
12, 104580, Note_on_c, 11, 49, 90
12, 104699, Note_on_c, 11, 49, 0
12, 104760, Note_on_c, 11, 45, 90
12, 104819, Note_on_c, 11, 45, 0
12, 104820, Note_on_c, 11, 44, 90
12, 104879, Note_on_c, 11, 44, 0
12, 104880, Note_on_c, 11, 42, 90
12, 104939, Note_on_c, 11, 42, 0
12, 104940, Note_on_c, 11, 47, 90
12, 105059, Note_on_c, 11, 47, 0
12, 105120, Note_on_c, 11, 44, 90
12, 105179, Note_on_c, 11, 44, 0
12, 105180, Note_on_c, 11, 42, 90
12, 105239, Note_on_c, 11, 42, 0
12, 105240, Note_on_c, 11, 40, 90
12, 105299, Note_on_c, 11, 40, 0
12, 105300, Note_on_c, 11, 45, 90
12, 105359, Note_on_c, 11, 45, 0
12, 105360, Note_on_c, 11, 54, 90
12, 105419, Note_on_c, 11, 54, 0
12, 105420, Note_on_c, 11, 50, 90
12, 105479, Note_on_c, 11, 50, 0
12, 105480, Note_on_c, 11, 52, 90
12, 105509, Note_on_c, 11, 52, 0
12, 105510, Note_on_c, 11, 54, 90
12, 105539, Note_on_c, 11, 54, 0
12, 105540, Note_on_c, 11, 52, 90
12, 105569, Note_on_c, 11, 52, 0
12, 105570, Note_on_c, 11, 50, 90
12, 105599, Note_on_c, 11, 50, 0
12, 105600, Note_on_c, 11, 49, 90
12, 105629, Note_on_c, 11, 49, 0
12, 105630, Note_on_c, 11, 47, 90
12, 105659, Note_on_c, 11, 47, 0
12, 105660, Note_on_c, 11, 45, 90
12, 105719, Note_on_c, 11, 45, 0
12, 105720, Note_on_c, 11, 49, 90
12, 105779, Note_on_c, 11, 49, 0
12, 105780, Note_on_c, 11, 52, 90
12, 105839, Note_on_c, 11, 52, 0
12, 105840, Note_on_c, 11, 45, 90
12, 105899, Note_on_c, 11, 45, 0
12, 105900, Note_on_c, 11, 49, 90
12, 105959, Note_on_c, 11, 49, 0
12, 105960, Note_on_c, 11, 52, 90
12, 106019, Note_on_c, 11, 52, 0
12, 106020, Note_on_c, 11, 44, 90
12, 106079, Note_on_c, 11, 44, 0
12, 106080, Note_on_c, 11, 47, 90
12, 106139, Note_on_c, 11, 47, 0
12, 106140, Note_on_c, 11, 52, 90
12, 106199, Note_on_c, 11, 52, 0
12, 106200, Note_on_c, 11, 44, 90
12, 106259, Note_on_c, 11, 44, 0
12, 106260, Note_on_c, 11, 47, 90
12, 106319, Note_on_c, 11, 47, 0
12, 106320, Note_on_c, 11, 52, 90
12, 106379, Note_on_c, 11, 52, 0
12, 106380, Note_on_c, 11, 45, 90
12, 106499, Note_on_c, 11, 45, 0
12, 106500, Note_on_c, 11, 47, 90
12, 106559, Note_on_c, 11, 47, 0
12, 106560, Note_on_c, 11, 49, 90
12, 106679, Note_on_c, 11, 49, 0
12, 106680, Note_on_c, 11, 50, 90
12, 106739, Note_on_c, 11, 50, 0
12, 106740, Note_on_c, 11, 52, 90
12, 106799, Note_on_c, 11, 52, 0
12, 106800, Note_on_c, 11, 50, 90
12, 106859, Note_on_c, 11, 50, 0
12, 106860, Note_on_c, 11, 52, 90
12, 106919, Note_on_c, 11, 52, 0
12, 106920, Note_on_c, 11, 45, 90
12, 106979, Note_on_c, 11, 45, 0
12, 106980, Note_on_c, 11, 49, 90
12, 107009, Note_on_c, 11, 49, 0
12, 107010, Note_on_c, 11, 47, 90
12, 107039, Note_on_c, 11, 47, 0
12, 107040, Note_on_c, 11, 49, 90
12, 107069, Note_on_c, 11, 49, 0
12, 107070, Note_on_c, 11, 45, 90
12, 107099, Note_on_c, 11, 45, 0
12, 107100, Note_on_c, 11, 47, 90
12, 107159, Note_on_c, 11, 47, 0
12, 107160, Note_on_c, 11, 50, 90
12, 107219, Note_on_c, 11, 50, 0
12, 107220, Note_on_c, 11, 54, 90
12, 107279, Note_on_c, 11, 54, 0
12, 107280, Note_on_c, 11, 44, 90
12, 107339, Note_on_c, 11, 44, 0
12, 107340, Note_on_c, 11, 47, 90
12, 107399, Note_on_c, 11, 47, 0
12, 107400, Note_on_c, 11, 52, 90
12, 107459, Note_on_c, 11, 52, 0
12, 107460, Note_on_c, 11, 45, 90
12, 107519, Note_on_c, 11, 45, 0
12, 107520, Note_on_c, 11, 49, 90
12, 107579, Note_on_c, 11, 49, 0
12, 107580, Note_on_c, 11, 52, 90
12, 107639, Note_on_c, 11, 52, 0
12, 107640, Note_on_c, 11, 49, 90
12, 107699, Note_on_c, 11, 49, 0
12, 107700, Note_on_c, 11, 52, 90
12, 107759, Note_on_c, 11, 52, 0
12, 107760, Note_on_c, 11, 57, 90
12, 107819, Note_on_c, 11, 57, 0
12, 107820, Note_on_c, 11, 50, 90
12, 107879, Note_on_c, 11, 50, 0
12, 107880, Note_on_c, 11, 54, 90
12, 107939, Note_on_c, 11, 54, 0
12, 107940, Note_on_c, 11, 57, 90
12, 107999, Note_on_c, 11, 57, 0
12, 108000, Note_on_c, 11, 51, 90
12, 108059, Note_on_c, 11, 51, 0
12, 108060, Note_on_c, 11, 54, 90
12, 108119, Note_on_c, 11, 54, 0
12, 108120, Note_on_c, 11, 59, 90
12, 108179, Note_on_c, 11, 59, 0
12, 108180, Note_on_c, 11, 52, 90
12, 108239, Note_on_c, 11, 52, 0
12, 108240, Note_on_c, 11, 56, 90
12, 108299, Note_on_c, 11, 56, 0
12, 108300, Note_on_c, 11, 59, 90
12, 108359, Note_on_c, 11, 59, 0
12, 108360, Note_on_c, 11, 50, 90
12, 108419, Note_on_c, 11, 50, 0
12, 108420, Note_on_c, 11, 56, 90
12, 108479, Note_on_c, 11, 56, 0
12, 108480, Note_on_c, 11, 59, 90
12, 108539, Note_on_c, 11, 59, 0
12, 108540, Note_on_c, 11, 47, 90
12, 108599, Note_on_c, 11, 47, 0
12, 108600, Note_on_c, 11, 50, 90
12, 108659, Note_on_c, 11, 50, 0
12, 108660, Note_on_c, 11, 56, 90
12, 108719, Note_on_c, 11, 56, 0
12, 108720, Note_on_c, 11, 44, 90
12, 108779, Note_on_c, 11, 44, 0
12, 108780, Note_on_c, 11, 47, 90
12, 108839, Note_on_c, 11, 47, 0
12, 108840, Note_on_c, 11, 52, 90
12, 108899, Note_on_c, 11, 52, 0
12, 108900, Note_on_c, 11, 45, 90
12, 108959, Note_on_c, 11, 45, 0
12, 108960, Note_on_c, 11, 54, 90
12, 109019, Note_on_c, 11, 54, 0
12, 109020, Note_on_c, 11, 50, 90
12, 109079, Note_on_c, 11, 50, 0
12, 109080, Note_on_c, 11, 49, 90
12, 109109, Note_on_c, 11, 49, 0
12, 109110, Note_on_c, 11, 47, 90
12, 109139, Note_on_c, 11, 47, 0
12, 109140, Note_on_c, 11, 49, 90
12, 109169, Note_on_c, 11, 49, 0
12, 109170, Note_on_c, 11, 50, 90
12, 109199, Note_on_c, 11, 50, 0
12, 109200, Note_on_c, 11, 52, 90
12, 109259, Note_on_c, 11, 52, 0
12, 109260, Note_on_c, 11, 45, 90
12, 109319, Note_on_c, 11, 45, 0
12, 109320, Note_on_c, 11, 49, 90
12, 109379, Note_on_c, 11, 49, 0
12, 109380, Note_on_c, 11, 52, 90
12, 109439, Note_on_c, 11, 52, 0
12, 109440, Note_on_c, 11, 57, 90
12, 109499, Note_on_c, 11, 57, 0
12, 109500, Note_on_c, 11, 49, 90
12, 109529, Note_on_c, 11, 49, 0
12, 109530, Note_on_c, 11, 47, 90
12, 109559, Note_on_c, 11, 47, 0
12, 109560, Note_on_c, 11, 49, 90
12, 109589, Note_on_c, 11, 49, 0
12, 109590, Note_on_c, 11, 45, 90
12, 109619, Note_on_c, 11, 45, 0
12, 109620, Note_on_c, 11, 50, 90
12, 109679, Note_on_c, 11, 50, 0
12, 109680, Note_on_c, 11, 54, 90
12, 109739, Note_on_c, 11, 54, 0
12, 109740, Note_on_c, 11, 57, 90
12, 109799, Note_on_c, 11, 57, 0
12, 109800, Note_on_c, 11, 50, 90
12, 109859, Note_on_c, 11, 50, 0
12, 109860, Note_on_c, 11, 54, 90
12, 109889, Note_on_c, 11, 54, 0
12, 109890, Note_on_c, 11, 52, 90
12, 109919, Note_on_c, 11, 52, 0
12, 109920, Note_on_c, 11, 54, 90
12, 109949, Note_on_c, 11, 54, 0
12, 109950, Note_on_c, 11, 50, 90
12, 109979, Note_on_c, 11, 50, 0
12, 109980, Note_on_c, 11, 55, 90
12, 110039, Note_on_c, 11, 55, 0
12, 110040, Note_on_c, 11, 59, 90
12, 110099, Note_on_c, 11, 59, 0
12, 110100, Note_on_c, 11, 62, 90
12, 110159, Note_on_c, 11, 62, 0
12, 110160, Note_on_c, 11, 55, 90
12, 110219, Note_on_c, 11, 55, 0
12, 110220, Note_on_c, 11, 59, 90
12, 110249, Note_on_c, 11, 59, 0
12, 110250, Note_on_c, 11, 57, 90
12, 110279, Note_on_c, 11, 57, 0
12, 110280, Note_on_c, 11, 59, 90
12, 110309, Note_on_c, 11, 59, 0
12, 110310, Note_on_c, 11, 55, 90
12, 110339, Note_on_c, 11, 55, 0
12, 110340, Note_on_c, 11, 52, 90
12, 110399, Note_on_c, 11, 52, 0
12, 110400, Note_on_c, 11, 55, 90
12, 110459, Note_on_c, 11, 55, 0
12, 110460, Note_on_c, 11, 59, 90
12, 110519, Note_on_c, 11, 59, 0
12, 110520, Note_on_c, 11, 52, 90
12, 110549, Note_on_c, 11, 52, 0
12, 110550, Note_on_c, 11, 51, 90
12, 110579, Note_on_c, 11, 51, 0
12, 110580, Note_on_c, 11, 52, 90
12, 110609, Note_on_c, 11, 52, 0
12, 110610, Note_on_c, 11, 54, 90
12, 110639, Note_on_c, 11, 54, 0
12, 110640, Note_on_c, 11, 55, 90
12, 110669, Note_on_c, 11, 55, 0
12, 110670, Note_on_c, 11, 52, 90
12, 110699, Note_on_c, 11, 52, 0
12, 110700, Note_on_c, 11, 54, 90
12, 110759, Note_on_c, 11, 54, 0
12, 110760, Note_on_c, 11, 56, 90
12, 110819, Note_on_c, 11, 56, 0
12, 110820, Note_on_c, 11, 52, 90
12, 110879, Note_on_c, 11, 52, 0
12, 110880, Note_on_c, 11, 57, 90
12, 110939, Note_on_c, 11, 57, 0
12, 110940, Note_on_c, 11, 45, 90
12, 110999, Note_on_c, 11, 45, 0
12, 111060, Note_on_c, 11, 50, 90
12, 111119, Note_on_c, 11, 50, 0
12, 111120, Note_on_c, 11, 54, 90
12, 111179, Note_on_c, 11, 54, 0
12, 111180, Note_on_c, 11, 57, 90
12, 111239, Note_on_c, 11, 57, 0
12, 111240, Note_on_c, 11, 50, 90
12, 111299, Note_on_c, 11, 50, 0
12, 111300, Note_on_c, 11, 54, 90
12, 111359, Note_on_c, 11, 54, 0
12, 111360, Note_on_c, 11, 57, 90
12, 111419, Note_on_c, 11, 57, 0
12, 111420, Note_on_c, 11, 49, 90
12, 111479, Note_on_c, 11, 49, 0
12, 111480, Note_on_c, 11, 52, 90
12, 111539, Note_on_c, 11, 52, 0
12, 111540, Note_on_c, 11, 57, 90
12, 111599, Note_on_c, 11, 57, 0
12, 111600, Note_on_c, 11, 49, 90
12, 111659, Note_on_c, 11, 49, 0
12, 111660, Note_on_c, 11, 52, 90
12, 111719, Note_on_c, 11, 52, 0
12, 111720, Note_on_c, 11, 57, 90
12, 111779, Note_on_c, 11, 57, 0
12, 111780, Note_on_c, 11, 50, 90
12, 111899, Note_on_c, 11, 50, 0
12, 111900, Note_on_c, 11, 52, 90
12, 111959, Note_on_c, 11, 52, 0
12, 111960, Note_on_c, 11, 54, 90
12, 112079, Note_on_c, 11, 54, 0
12, 112080, Note_on_c, 11, 55, 90
12, 112139, Note_on_c, 11, 55, 0
12, 112140, Note_on_c, 11, 57, 90
12, 112199, Note_on_c, 11, 57, 0
12, 112200, Note_on_c, 11, 55, 90
12, 112259, Note_on_c, 11, 55, 0
12, 112260, Note_on_c, 11, 57, 90
12, 112319, Note_on_c, 11, 57, 0
12, 112320, Note_on_c, 11, 50, 90
12, 112440, Note_on_c, 11, 50, 0
12, 112500, Note_on_c, 11, 50, 90
12, 112559, Note_on_c, 11, 50, 0
12, 112560, Note_on_c, 11, 54, 90
12, 112619, Note_on_c, 11, 54, 0
12, 112620, Note_on_c, 11, 57, 90
12, 112679, Note_on_c, 11, 57, 0
12, 112680, Note_on_c, 11, 50, 90
12, 112739, Note_on_c, 11, 50, 0
12, 112740, Note_on_c, 11, 54, 90
12, 112799, Note_on_c, 11, 54, 0
12, 112800, Note_on_c, 11, 57, 90
12, 112859, Note_on_c, 11, 57, 0
12, 112860, Note_on_c, 11, 49, 90
12, 112919, Note_on_c, 11, 49, 0
12, 112920, Note_on_c, 11, 52, 90
12, 112979, Note_on_c, 11, 52, 0
12, 112980, Note_on_c, 11, 57, 90
12, 113039, Note_on_c, 11, 57, 0
12, 113040, Note_on_c, 11, 49, 90
12, 113099, Note_on_c, 11, 49, 0
12, 113100, Note_on_c, 11, 52, 90
12, 113159, Note_on_c, 11, 52, 0
12, 113160, Note_on_c, 11, 57, 90
12, 113219, Note_on_c, 11, 57, 0
12, 113220, Note_on_c, 11, 50, 90
12, 113279, Note_on_c, 11, 50, 0
12, 113280, Note_on_c, 11, 54, 90
12, 113339, Note_on_c, 11, 54, 0
12, 113340, Note_on_c, 11, 57, 90
12, 113399, Note_on_c, 11, 57, 0
12, 113400, Note_on_c, 11, 50, 90
12, 113459, Note_on_c, 11, 50, 0
12, 113460, Note_on_c, 11, 54, 90
12, 113519, Note_on_c, 11, 54, 0
12, 113520, Note_on_c, 11, 57, 90
12, 113579, Note_on_c, 11, 57, 0
12, 113580, Note_on_c, 11, 45, 90
12, 113639, Note_on_c, 11, 45, 0
12, 113640, Note_on_c, 11, 57, 90
12, 113669, Note_on_c, 11, 57, 0
12, 113670, Note_on_c, 11, 56, 90
12, 113699, Note_on_c, 11, 56, 0
12, 113700, Note_on_c, 11, 57, 90
12, 113729, Note_on_c, 11, 57, 0
12, 113730, Note_on_c, 11, 52, 90
12, 113759, Note_on_c, 11, 52, 0
12, 113760, Note_on_c, 11, 64, 90
12, 113760, Note_on_c, 11, 49, 90
12, 113819, Note_on_c, 11, 49, 0
12, 113819, Note_on_c, 11, 64, 0
12, 113820, Note_on_c, 11, 62, 90
12, 113820, Note_on_c, 11, 47, 90
12, 113879, Note_on_c, 11, 47, 0
12, 113879, Note_on_c, 11, 62, 0
12, 113880, Note_on_c, 11, 61, 90
12, 113880, Note_on_c, 11, 45, 90
12, 113939, Note_on_c, 11, 45, 0
12, 113939, Note_on_c, 11, 61, 0
12, 113940, Note_on_c, 11, 47, 90
12, 113999, Note_on_c, 11, 47, 0
12, 114000, Note_on_c, 11, 50, 90
12, 114059, Note_on_c, 11, 50, 0
12, 114060, Note_on_c, 11, 55, 90
12, 114119, Note_on_c, 11, 55, 0
12, 114120, Note_on_c, 11, 49, 90
12, 114179, Note_on_c, 11, 49, 0
12, 114180, Note_on_c, 11, 52, 90
12, 114239, Note_on_c, 11, 52, 0
12, 114240, Note_on_c, 11, 57, 90
12, 114299, Note_on_c, 11, 57, 0
12, 114300, Note_on_c, 11, 50, 90
12, 114359, Note_on_c, 11, 50, 0
12, 114360, Note_on_c, 11, 54, 90
12, 114419, Note_on_c, 11, 54, 0
12, 114420, Note_on_c, 11, 57, 90
12, 114479, Note_on_c, 11, 57, 0
12, 114480, Note_on_c, 11, 54, 90
12, 114539, Note_on_c, 11, 54, 0
12, 114540, Note_on_c, 11, 57, 90
12, 114599, Note_on_c, 11, 57, 0
12, 114600, Note_on_c, 11, 62, 90
12, 114659, Note_on_c, 11, 62, 0
12, 114660, Note_on_c, 11, 55, 90
12, 114719, Note_on_c, 11, 55, 0
12, 114720, Note_on_c, 11, 59, 90
12, 114779, Note_on_c, 11, 59, 0
12, 114780, Note_on_c, 11, 62, 90
12, 114839, Note_on_c, 11, 62, 0
12, 114840, Note_on_c, 11, 56, 90
12, 114899, Note_on_c, 11, 56, 0
12, 114900, Note_on_c, 11, 59, 90
12, 114959, Note_on_c, 11, 59, 0
12, 114960, Note_on_c, 11, 64, 90
12, 115019, Note_on_c, 11, 64, 0
12, 115020, Note_on_c, 11, 57, 90
12, 115079, Note_on_c, 11, 57, 0
12, 115080, Note_on_c, 11, 61, 90
12, 115139, Note_on_c, 11, 61, 0
12, 115140, Note_on_c, 11, 64, 90
12, 115199, Note_on_c, 11, 64, 0
12, 115200, Note_on_c, 11, 55, 90
12, 115259, Note_on_c, 11, 55, 0
12, 115260, Note_on_c, 11, 61, 90
12, 115319, Note_on_c, 11, 61, 0
12, 115320, Note_on_c, 11, 64, 90
12, 115379, Note_on_c, 11, 64, 0
12, 115380, Note_on_c, 11, 52, 90
12, 115439, Note_on_c, 11, 52, 0
12, 115440, Note_on_c, 11, 55, 90
12, 115499, Note_on_c, 11, 55, 0
12, 115500, Note_on_c, 11, 61, 90
12, 115559, Note_on_c, 11, 61, 0
12, 115560, Note_on_c, 11, 49, 90
12, 115619, Note_on_c, 11, 49, 0
12, 115620, Note_on_c, 11, 52, 90
12, 115679, Note_on_c, 11, 52, 0
12, 115680, Note_on_c, 11, 57, 90
12, 115739, Note_on_c, 11, 57, 0
12, 115740, Note_on_c, 11, 50, 90
12, 115799, Note_on_c, 11, 50, 0
12, 115800, Note_on_c, 11, 59, 90
12, 115859, Note_on_c, 11, 59, 0
12, 115860, Note_on_c, 11, 55, 90
12, 115919, Note_on_c, 11, 55, 0
12, 115920, Note_on_c, 11, 54, 90
12, 115949, Note_on_c, 11, 54, 0
12, 115950, Note_on_c, 11, 52, 90
12, 115979, Note_on_c, 11, 52, 0
12, 115980, Note_on_c, 11, 54, 90
12, 116009, Note_on_c, 11, 54, 0
12, 116010, Note_on_c, 11, 55, 90
12, 116039, Note_on_c, 11, 55, 0
12, 116040, Note_on_c, 11, 57, 90
12, 116099, Note_on_c, 11, 57, 0
12, 116100, Note_on_c, 11, 50, 90
12, 116159, Note_on_c, 11, 50, 0
12, 116160, Note_on_c, 11, 42, 90
12, 116219, Note_on_c, 11, 42, 0
12, 116220, Note_on_c, 11, 45, 90
12, 116279, Note_on_c, 11, 45, 0
12, 116280, Note_on_c, 11, 38, 90
12, 116399, Note_on_c, 11, 38, 0
12, 116400, Note_on_c, 11, 54, 90
12, 116459, Note_on_c, 11, 54, 0
12, 116460, Note_on_c, 11, 47, 90
12, 116519, Note_on_c, 11, 47, 0
12, 116520, Note_on_c, 11, 50, 90
12, 116579, Note_on_c, 11, 50, 0
12, 116580, Note_on_c, 11, 54, 90
12, 116639, Note_on_c, 11, 54, 0
12, 116640, Note_on_c, 11, 59, 90
12, 116699, Note_on_c, 11, 59, 0
12, 116700, Note_on_c, 11, 56, 90
12, 116729, Note_on_c, 11, 56, 0
12, 116730, Note_on_c, 11, 54, 90
12, 116759, Note_on_c, 11, 54, 0
12, 116760, Note_on_c, 11, 56, 90
12, 116789, Note_on_c, 11, 56, 0
12, 116790, Note_on_c, 11, 52, 90
12, 116819, Note_on_c, 11, 52, 0
12, 116820, Note_on_c, 11, 45, 90
12, 116879, Note_on_c, 11, 45, 0
12, 116880, Note_on_c, 11, 49, 90
12, 116939, Note_on_c, 11, 49, 0
12, 116940, Note_on_c, 11, 52, 90
12, 116999, Note_on_c, 11, 52, 0
12, 117000, Note_on_c, 11, 57, 90
12, 117059, Note_on_c, 11, 57, 0
12, 117060, Note_on_c, 11, 49, 90
12, 117089, Note_on_c, 11, 49, 0
12, 117090, Note_on_c, 11, 47, 90
12, 117119, Note_on_c, 11, 47, 0
12, 117120, Note_on_c, 11, 49, 90
12, 117149, Note_on_c, 11, 49, 0
12, 117150, Note_on_c, 11, 45, 90
12, 117179, Note_on_c, 11, 45, 0
12, 117180, Note_on_c, 11, 47, 90
12, 117239, Note_on_c, 11, 47, 0
12, 117240, Note_on_c, 11, 50, 90
12, 117299, Note_on_c, 11, 50, 0
12, 117300, Note_on_c, 11, 56, 90
12, 117359, Note_on_c, 11, 56, 0
12, 117360, Note_on_c, 11, 45, 90
12, 117419, Note_on_c, 11, 45, 0
12, 117420, Note_on_c, 11, 49, 90
12, 117479, Note_on_c, 11, 49, 0
12, 117480, Note_on_c, 11, 54, 90
12, 117539, Note_on_c, 11, 54, 0
12, 117540, Note_on_c, 11, 44, 90
12, 117599, Note_on_c, 11, 44, 0
12, 117600, Note_on_c, 11, 45, 90
12, 117629, Note_on_c, 11, 45, 0
12, 117630, Note_on_c, 11, 44, 90
12, 117659, Note_on_c, 11, 44, 0
12, 117660, Note_on_c, 11, 45, 90
12, 117689, Note_on_c, 11, 45, 0
12, 117690, Note_on_c, 11, 42, 90
12, 117719, Note_on_c, 11, 42, 0
12, 117720, Note_on_c, 11, 49, 90
12, 117749, Note_on_c, 11, 49, 0
12, 117750, Note_on_c, 11, 50, 90
12, 117779, Note_on_c, 11, 50, 0
12, 117780, Note_on_c, 11, 49, 90
12, 117809, Note_on_c, 11, 49, 0
12, 117810, Note_on_c, 11, 47, 90
12, 117839, Note_on_c, 11, 47, 0
12, 117840, Note_on_c, 11, 45, 90
12, 117869, Note_on_c, 11, 45, 0
12, 117870, Note_on_c, 11, 44, 90
12, 117899, Note_on_c, 11, 44, 0
12, 117900, Note_on_c, 11, 42, 90
12, 117959, Note_on_c, 11, 42, 0
12, 117960, Note_on_c, 11, 45, 90
12, 118019, Note_on_c, 11, 45, 0
12, 118020, Note_on_c, 11, 49, 90
12, 118079, Note_on_c, 11, 49, 0
12, 118080, Note_on_c, 11, 42, 90
12, 118139, Note_on_c, 11, 42, 0
12, 118140, Note_on_c, 11, 45, 90
12, 118199, Note_on_c, 11, 45, 0
12, 118200, Note_on_c, 11, 49, 90
12, 118259, Note_on_c, 11, 49, 0
12, 118260, Note_on_c, 11, 41, 90
12, 118319, Note_on_c, 11, 41, 0
12, 118320, Note_on_c, 11, 44, 90
12, 118379, Note_on_c, 11, 44, 0
12, 118380, Note_on_c, 11, 49, 90
12, 118439, Note_on_c, 11, 49, 0
12, 118440, Note_on_c, 11, 41, 90
12, 118499, Note_on_c, 11, 41, 0
12, 118500, Note_on_c, 11, 44, 90
12, 118559, Note_on_c, 11, 44, 0
12, 118560, Note_on_c, 11, 49, 90
12, 118619, Note_on_c, 11, 49, 0
12, 118620, Note_on_c, 11, 42, 90
12, 118739, Note_on_c, 11, 42, 0
12, 118740, Note_on_c, 11, 54, 90
12, 118799, Note_on_c, 11, 54, 0
12, 118800, Note_on_c, 11, 59, 90
12, 118919, Note_on_c, 11, 59, 0
12, 118920, Note_on_c, 11, 47, 90
12, 118979, Note_on_c, 11, 47, 0
12, 118980, Note_on_c, 11, 49, 90
12, 119039, Note_on_c, 11, 49, 0
12, 119040, Note_on_c, 11, 47, 90
12, 119099, Note_on_c, 11, 47, 0
12, 119100, Note_on_c, 11, 49, 90
12, 119159, Note_on_c, 11, 49, 0
12, 119160, Note_on_c, 11, 54, 90
12, 119219, Note_on_c, 11, 54, 0
12, 119220, Note_on_c, 11, 57, 90
12, 119279, Note_on_c, 11, 57, 0
12, 119280, Note_on_c, 11, 61, 90
12, 119339, Note_on_c, 11, 61, 0
12, 119340, Note_on_c, 11, 51, 90
12, 119399, Note_on_c, 11, 51, 0
12, 119400, Note_on_c, 11, 54, 90
12, 119459, Note_on_c, 11, 54, 0
12, 119460, Note_on_c, 11, 59, 90
12, 119519, Note_on_c, 11, 59, 0
12, 119520, Note_on_c, 11, 53, 90
12, 119579, Note_on_c, 11, 53, 0
12, 119580, Note_on_c, 11, 56, 90
12, 119639, Note_on_c, 11, 56, 0
12, 119640, Note_on_c, 11, 61, 90
12, 119699, Note_on_c, 11, 61, 0
12, 119700, Note_on_c, 11, 54, 90
12, 119759, Note_on_c, 11, 54, 0
12, 119760, Note_on_c, 11, 57, 90
12, 119819, Note_on_c, 11, 57, 0
12, 119820, Note_on_c, 11, 61, 90
12, 119879, Note_on_c, 11, 61, 0
12, 119880, Note_on_c, 11, 50, 90
12, 119939, Note_on_c, 11, 50, 0
12, 119940, Note_on_c, 11, 54, 90
12, 119999, Note_on_c, 11, 54, 0
12, 120000, Note_on_c, 11, 57, 90
12, 120059, Note_on_c, 11, 57, 0
12, 120060, Note_on_c, 11, 47, 90
12, 120119, Note_on_c, 11, 47, 0
12, 120120, Note_on_c, 11, 50, 90
12, 120179, Note_on_c, 11, 50, 0
12, 120180, Note_on_c, 11, 56, 90
12, 120239, Note_on_c, 11, 56, 0
12, 120240, Note_on_c, 11, 48, 90
12, 120299, Note_on_c, 11, 48, 0
12, 120300, Note_on_c, 11, 51, 90
12, 120359, Note_on_c, 11, 51, 0
12, 120360, Note_on_c, 11, 56, 90
12, 120419, Note_on_c, 11, 56, 0
12, 120420, Note_on_c, 11, 49, 90
12, 120479, Note_on_c, 11, 49, 0
12, 120480, Note_on_c, 11, 53, 90
12, 120539, Note_on_c, 11, 53, 0
12, 120540, Note_on_c, 11, 56, 90
12, 120599, Note_on_c, 11, 56, 0
12, 120600, Note_on_c, 11, 47, 90
12, 120659, Note_on_c, 11, 47, 0
12, 120660, Note_on_c, 11, 50, 90
12, 120719, Note_on_c, 11, 50, 0
12, 120720, Note_on_c, 11, 56, 90
12, 120779, Note_on_c, 11, 56, 0
12, 120780, Note_on_c, 11, 44, 90
12, 120839, Note_on_c, 11, 44, 0
12, 120840, Note_on_c, 11, 47, 90
12, 120899, Note_on_c, 11, 47, 0
12, 120900, Note_on_c, 11, 50, 90
12, 120959, Note_on_c, 11, 50, 0
12, 120960, Note_on_c, 11, 41, 90
12, 121019, Note_on_c, 11, 41, 0
12, 121020, Note_on_c, 11, 44, 90
12, 121079, Note_on_c, 11, 44, 0
12, 121080, Note_on_c, 11, 49, 90
12, 121139, Note_on_c, 11, 49, 0
12, 121140, Note_on_c, 11, 42, 90
12, 121199, Note_on_c, 11, 42, 0
12, 121200, Note_on_c, 11, 50, 90
12, 121259, Note_on_c, 11, 50, 0
12, 121260, Note_on_c, 11, 47, 90
12, 121319, Note_on_c, 11, 47, 0
12, 121320, Note_on_c, 11, 45, 90
12, 121349, Note_on_c, 11, 45, 0
12, 121350, Note_on_c, 11, 44, 90
12, 121379, Note_on_c, 11, 44, 0
12, 121380, Note_on_c, 11, 45, 90
12, 121409, Note_on_c, 11, 45, 0
12, 121410, Note_on_c, 11, 47, 90
12, 121439, Note_on_c, 11, 47, 0
12, 121440, Note_on_c, 11, 49, 90
12, 121499, Note_on_c, 11, 49, 0
12, 121500, Note_on_c, 11, 42, 90
12, 121559, Note_on_c, 11, 42, 0
12, 121560, Note_on_c, 11, 45, 90
12, 121619, Note_on_c, 11, 45, 0
12, 121620, Note_on_c, 11, 49, 90
12, 121679, Note_on_c, 11, 49, 0
12, 121680, Note_on_c, 11, 54, 90
12, 121739, Note_on_c, 11, 54, 0
12, 121740, Note_on_c, 11, 57, 90
12, 121769, Note_on_c, 11, 57, 0
12, 121770, Note_on_c, 11, 56, 90
12, 121799, Note_on_c, 11, 56, 0
12, 121800, Note_on_c, 11, 57, 90
12, 121829, Note_on_c, 11, 57, 0
12, 121830, Note_on_c, 11, 54, 90
12, 121859, Note_on_c, 11, 54, 0
12, 121860, Note_on_c, 11, 53, 90
12, 121919, Note_on_c, 11, 53, 0
12, 121920, Note_on_c, 11, 56, 90
12, 121979, Note_on_c, 11, 56, 0
12, 121980, Note_on_c, 11, 61, 90
12, 122039, Note_on_c, 11, 61, 0
12, 122040, Note_on_c, 11, 54, 90
12, 122099, Note_on_c, 11, 54, 0
12, 122100, Note_on_c, 11, 57, 90
12, 122129, Note_on_c, 11, 57, 0
12, 122130, Note_on_c, 11, 56, 90
12, 122159, Note_on_c, 11, 56, 0
12, 122160, Note_on_c, 11, 57, 90
12, 122189, Note_on_c, 11, 57, 0
12, 122190, Note_on_c, 11, 54, 90
12, 122219, Note_on_c, 11, 54, 0
12, 122220, Note_on_c, 11, 56, 90
12, 122279, Note_on_c, 11, 56, 0
12, 122280, Note_on_c, 11, 59, 90
12, 122339, Note_on_c, 11, 59, 0
12, 122340, Note_on_c, 11, 64, 90
12, 122399, Note_on_c, 11, 64, 0
12, 122400, Note_on_c, 11, 57, 90
12, 122459, Note_on_c, 11, 57, 0
12, 122460, Note_on_c, 11, 61, 90
12, 122489, Note_on_c, 11, 61, 0
12, 122490, Note_on_c, 11, 59, 90
12, 122519, Note_on_c, 11, 59, 0
12, 122520, Note_on_c, 11, 61, 90
12, 122549, Note_on_c, 11, 61, 0
12, 122550, Note_on_c, 11, 57, 90
12, 122579, Note_on_c, 11, 57, 0
12, 122580, Note_on_c, 11, 62, 90
12, 122639, Note_on_c, 11, 62, 0
12, 122640, Note_on_c, 11, 59, 90
12, 122699, Note_on_c, 11, 59, 0
12, 122700, Note_on_c, 11, 56, 90
12, 122759, Note_on_c, 11, 56, 0
12, 122760, Note_on_c, 11, 61, 90
12, 122819, Note_on_c, 11, 61, 0
12, 122820, Note_on_c, 11, 58, 90
12, 122879, Note_on_c, 11, 58, 0
12, 122880, Note_on_c, 11, 54, 90
12, 122939, Note_on_c, 11, 54, 0
12, 122940, Note_on_c, 11, 59, 90
12, 122999, Note_on_c, 11, 59, 0
12, 123000, Note_on_c, 11, 55, 90
12, 123059, Note_on_c, 11, 55, 0
12, 123060, Note_on_c, 11, 52, 90
12, 123119, Note_on_c, 11, 52, 0
12, 123120, Note_on_c, 11, 54, 90
12, 123179, Note_on_c, 11, 54, 0
12, 123180, Note_on_c, 11, 52, 90
12, 123209, Note_on_c, 11, 52, 0
12, 123210, Note_on_c, 11, 50, 90
12, 123239, Note_on_c, 11, 50, 0
12, 123240, Note_on_c, 11, 52, 90
12, 123269, Note_on_c, 11, 52, 0
12, 123270, Note_on_c, 11, 49, 90
12, 123299, Note_on_c, 11, 49, 0
12, 123300, Note_on_c, 11, 50, 90
12, 123359, Note_on_c, 11, 50, 0
12, 123360, Note_on_c, 11, 54, 90
12, 123419, Note_on_c, 11, 54, 0
12, 123420, Note_on_c, 11, 59, 90
12, 123479, Note_on_c, 11, 59, 0
12, 123480, Note_on_c, 11, 47, 90
12, 123539, Note_on_c, 11, 47, 0
12, 123540, Note_on_c, 11, 50, 90
12, 123599, Note_on_c, 11, 50, 0
12, 123600, Note_on_c, 11, 54, 90
12, 123659, Note_on_c, 11, 54, 0
12, 123660, Note_on_c, 11, 46, 90
12, 123899, Note_on_c, 11, 46, 0
12, 123900, Note_on_c, 11, 54, 90
12, 123959, Note_on_c, 11, 54, 0
12, 123960, Note_on_c, 11, 52, 90
12, 124019, Note_on_c, 11, 52, 0
12, 124020, Note_on_c, 11, 50, 90
12, 124079, Note_on_c, 11, 50, 0
12, 124080, Note_on_c, 11, 49, 90
12, 124139, Note_on_c, 11, 49, 0
12, 124140, Note_on_c, 11, 47, 90
12, 124199, Note_on_c, 11, 47, 0
12, 124200, Note_on_c, 11, 52, 90
12, 124319, Note_on_c, 11, 52, 0
12, 124320, Note_on_c, 11, 40, 90
12, 124379, Note_on_c, 11, 40, 0
12, 124380, Note_on_c, 11, 42, 90
12, 124439, Note_on_c, 11, 42, 0
12, 124440, Note_on_c, 11, 40, 90
12, 124499, Note_on_c, 11, 40, 0
12, 124500, Note_on_c, 11, 42, 90
12, 124559, Note_on_c, 11, 42, 0
12, 124560, Note_on_c, 11, 47, 90
12, 124679, Note_on_c, 11, 47, 0
12, 124920, Note_on_c, 11, 50, 90
12, 124979, Note_on_c, 11, 50, 0
12, 124980, Note_on_c, 11, 54, 90
12, 125039, Note_on_c, 11, 54, 0
12, 125040, Note_on_c, 11, 57, 90
12, 125099, Note_on_c, 11, 57, 0
12, 125100, Note_on_c, 11, 50, 90
12, 125159, Note_on_c, 11, 50, 0
12, 125160, Note_on_c, 11, 54, 90
12, 125219, Note_on_c, 11, 54, 0
12, 125220, Note_on_c, 11, 57, 90
12, 125279, Note_on_c, 11, 57, 0
12, 125280, Note_on_c, 11, 49, 90
12, 125339, Note_on_c, 11, 49, 0
12, 125340, Note_on_c, 11, 52, 90
12, 125399, Note_on_c, 11, 52, 0
12, 125400, Note_on_c, 11, 57, 90
12, 125459, Note_on_c, 11, 57, 0
12, 125460, Note_on_c, 11, 49, 90
12, 125519, Note_on_c, 11, 49, 0
12, 125520, Note_on_c, 11, 52, 90
12, 125579, Note_on_c, 11, 52, 0
12, 125580, Note_on_c, 11, 57, 90
12, 125639, Note_on_c, 11, 57, 0
12, 125640, Note_on_c, 11, 50, 90
12, 125699, Note_on_c, 11, 50, 0
12, 125700, Note_on_c, 11, 54, 90
12, 125759, Note_on_c, 11, 54, 0
12, 125760, Note_on_c, 11, 57, 90
12, 125819, Note_on_c, 11, 57, 0
12, 125820, Note_on_c, 11, 50, 90
12, 125879, Note_on_c, 11, 50, 0
12, 125880, Note_on_c, 11, 54, 90
12, 125939, Note_on_c, 11, 54, 0
12, 125940, Note_on_c, 11, 57, 90
12, 125999, Note_on_c, 11, 57, 0
12, 126000, Note_on_c, 11, 45, 90
12, 126059, Note_on_c, 11, 45, 0
12, 126060, Note_on_c, 11, 57, 90
12, 126089, Note_on_c, 11, 57, 0
12, 126090, Note_on_c, 11, 56, 90
12, 126119, Note_on_c, 11, 56, 0
12, 126120, Note_on_c, 11, 57, 90
12, 126149, Note_on_c, 11, 57, 0
12, 126150, Note_on_c, 11, 52, 90
12, 126179, Note_on_c, 11, 52, 0
12, 126180, Note_on_c, 11, 64, 90
12, 126180, Note_on_c, 11, 49, 90
12, 126239, Note_on_c, 11, 49, 0
12, 126239, Note_on_c, 11, 64, 0
12, 126240, Note_on_c, 11, 62, 90
12, 126240, Note_on_c, 11, 47, 90
12, 126299, Note_on_c, 11, 47, 0
12, 126299, Note_on_c, 11, 62, 0
12, 126300, Note_on_c, 11, 61, 90
12, 126300, Note_on_c, 11, 45, 90
12, 126359, Note_on_c, 11, 45, 0
12, 126359, Note_on_c, 11, 61, 0
12, 126360, Note_on_c, 11, 47, 90
12, 126419, Note_on_c, 11, 47, 0
12, 126420, Note_on_c, 11, 50, 90
12, 126479, Note_on_c, 11, 50, 0
12, 126480, Note_on_c, 11, 55, 90
12, 126539, Note_on_c, 11, 55, 0
12, 126540, Note_on_c, 11, 49, 90
12, 126599, Note_on_c, 11, 49, 0
12, 126600, Note_on_c, 11, 52, 90
12, 126659, Note_on_c, 11, 52, 0
12, 126660, Note_on_c, 11, 57, 90
12, 126719, Note_on_c, 11, 57, 0
12, 126720, Note_on_c, 11, 50, 90
12, 126779, Note_on_c, 11, 50, 0
12, 126780, Note_on_c, 11, 54, 90
12, 126839, Note_on_c, 11, 54, 0
12, 126840, Note_on_c, 11, 57, 90
12, 126899, Note_on_c, 11, 57, 0
12, 126900, Note_on_c, 11, 54, 90
12, 126959, Note_on_c, 11, 54, 0
12, 126960, Note_on_c, 11, 57, 90
12, 127019, Note_on_c, 11, 57, 0
12, 127020, Note_on_c, 11, 62, 90
12, 127079, Note_on_c, 11, 62, 0
12, 127080, Note_on_c, 11, 55, 90
12, 127139, Note_on_c, 11, 55, 0
12, 127140, Note_on_c, 11, 59, 90
12, 127199, Note_on_c, 11, 59, 0
12, 127200, Note_on_c, 11, 62, 90
12, 127259, Note_on_c, 11, 62, 0
12, 127260, Note_on_c, 11, 56, 90
12, 127319, Note_on_c, 11, 56, 0
12, 127320, Note_on_c, 11, 59, 90
12, 127379, Note_on_c, 11, 59, 0
12, 127380, Note_on_c, 11, 64, 90
12, 127439, Note_on_c, 11, 64, 0
12, 127440, Note_on_c, 11, 57, 90
12, 127499, Note_on_c, 11, 57, 0
12, 127500, Note_on_c, 11, 61, 90
12, 127559, Note_on_c, 11, 61, 0
12, 127560, Note_on_c, 11, 64, 90
12, 127619, Note_on_c, 11, 64, 0
12, 127620, Note_on_c, 11, 55, 90
12, 127679, Note_on_c, 11, 55, 0
12, 127680, Note_on_c, 11, 61, 90
12, 127739, Note_on_c, 11, 61, 0
12, 127740, Note_on_c, 11, 64, 90
12, 127799, Note_on_c, 11, 64, 0
12, 127800, Note_on_c, 11, 52, 90
12, 127859, Note_on_c, 11, 52, 0
12, 127860, Note_on_c, 11, 55, 90
12, 127919, Note_on_c, 11, 55, 0
12, 127920, Note_on_c, 11, 61, 90
12, 127979, Note_on_c, 11, 61, 0
12, 127980, Note_on_c, 11, 49, 90
12, 128039, Note_on_c, 11, 49, 0
12, 128040, Note_on_c, 11, 52, 90
12, 128099, Note_on_c, 11, 52, 0
12, 128100, Note_on_c, 11, 57, 90
12, 128159, Note_on_c, 11, 57, 0
12, 128160, Note_on_c, 11, 50, 90
12, 128219, Note_on_c, 11, 50, 0
12, 128220, Note_on_c, 11, 59, 90
12, 128279, Note_on_c, 11, 59, 0
12, 128280, Note_on_c, 11, 55, 90
12, 128339, Note_on_c, 11, 55, 0
12, 128340, Note_on_c, 11, 54, 90
12, 128369, Note_on_c, 11, 54, 0
12, 128370, Note_on_c, 11, 52, 90
12, 128399, Note_on_c, 11, 52, 0
12, 128400, Note_on_c, 11, 54, 90
12, 128429, Note_on_c, 11, 54, 0
12, 128430, Note_on_c, 11, 55, 90
12, 128459, Note_on_c, 11, 55, 0
12, 128460, Note_on_c, 11, 57, 90
12, 128519, Note_on_c, 11, 57, 0
12, 128520, Note_on_c, 11, 50, 90
12, 128579, Note_on_c, 11, 50, 0
12, 128580, Note_on_c, 11, 54, 90
12, 128639, Note_on_c, 11, 54, 0
12, 128640, Note_on_c, 11, 57, 90
12, 128699, Note_on_c, 11, 57, 0
12, 128700, Note_on_c, 11, 62, 90
12, 128819, Note_on_c, 11, 62, 0
12, 128880, Note_on_c, 11, 50, 90
12, 128939, Note_on_c, 11, 50, 0
12, 128940, Note_on_c, 11, 54, 90
12, 128999, Note_on_c, 11, 54, 0
12, 129000, Note_on_c, 11, 57, 90
12, 129059, Note_on_c, 11, 57, 0
12, 129060, Note_on_c, 11, 50, 90
12, 129119, Note_on_c, 11, 50, 0
12, 129120, Note_on_c, 11, 54, 90
12, 129179, Note_on_c, 11, 54, 0
12, 129180, Note_on_c, 11, 57, 90
12, 129239, Note_on_c, 11, 57, 0
12, 129240, Note_on_c, 11, 49, 90
12, 129299, Note_on_c, 11, 49, 0
12, 129300, Note_on_c, 11, 52, 90
12, 129359, Note_on_c, 11, 52, 0
12, 129360, Note_on_c, 11, 57, 90
12, 129419, Note_on_c, 11, 57, 0
12, 129420, Note_on_c, 11, 49, 90
12, 129479, Note_on_c, 11, 49, 0
12, 129480, Note_on_c, 11, 52, 90
12, 129539, Note_on_c, 11, 52, 0
12, 129540, Note_on_c, 11, 57, 90
12, 129599, Note_on_c, 11, 57, 0
12, 129600, Note_on_c, 11, 50, 90
12, 129659, Note_on_c, 11, 50, 0
12, 129660, Note_on_c, 11, 54, 90
12, 129719, Note_on_c, 11, 54, 0
12, 129720, Note_on_c, 11, 57, 90
12, 129779, Note_on_c, 11, 57, 0
12, 129780, Note_on_c, 11, 50, 90
12, 129839, Note_on_c, 11, 50, 0
12, 129840, Note_on_c, 11, 54, 90
12, 129899, Note_on_c, 11, 54, 0
12, 129900, Note_on_c, 11, 57, 90
12, 129959, Note_on_c, 11, 57, 0
12, 129960, Note_on_c, 11, 45, 90
12, 130019, Note_on_c, 11, 45, 0
12, 130020, Note_on_c, 11, 57, 90
12, 130049, Note_on_c, 11, 57, 0
12, 130050, Note_on_c, 11, 56, 90
12, 130079, Note_on_c, 11, 56, 0
12, 130080, Note_on_c, 11, 57, 90
12, 130109, Note_on_c, 11, 57, 0
12, 130110, Note_on_c, 11, 52, 90
12, 130139, Note_on_c, 11, 52, 0
12, 130140, Note_on_c, 11, 52, 90
12, 130140, Note_on_c, 11, 49, 90
12, 130199, Note_on_c, 11, 49, 0
12, 130199, Note_on_c, 11, 52, 0
12, 130200, Note_on_c, 11, 50, 90
12, 130200, Note_on_c, 11, 47, 90
12, 130259, Note_on_c, 11, 47, 0
12, 130259, Note_on_c, 11, 50, 0
12, 130260, Note_on_c, 11, 49, 90
12, 130260, Note_on_c, 11, 45, 90
12, 130319, Note_on_c, 11, 45, 0
12, 130319, Note_on_c, 11, 49, 0
12, 130320, Note_on_c, 11, 50, 100
12, 130440, Note_on_c, 11, 50, 0
12, 130500, Note_on_c, 11, 47, 90
12, 130559, Note_on_c, 11, 47, 0
12, 130560, Note_on_c, 11, 45, 90
12, 130619, Note_on_c, 11, 45, 0
12, 130620, Note_on_c, 11, 44, 90
12, 130679, Note_on_c, 11, 44, 0
12, 130680, Note_on_c, 11, 49, 90
12, 130799, Note_on_c, 11, 49, 0
12, 130860, Note_on_c, 11, 45, 90
12, 130919, Note_on_c, 11, 45, 0
12, 130920, Note_on_c, 11, 44, 90
12, 130979, Note_on_c, 11, 44, 0
12, 130980, Note_on_c, 11, 42, 90
12, 131039, Note_on_c, 11, 42, 0
12, 131040, Note_on_c, 11, 47, 90
12, 131159, Note_on_c, 11, 47, 0
12, 131220, Note_on_c, 11, 44, 90
12, 131279, Note_on_c, 11, 44, 0
12, 131280, Note_on_c, 11, 42, 90
12, 131339, Note_on_c, 11, 42, 0
12, 131340, Note_on_c, 11, 40, 90
12, 131399, Note_on_c, 11, 40, 0
12, 131400, Note_on_c, 11, 45, 90
12, 131459, Note_on_c, 11, 45, 0
12, 131460, Note_on_c, 11, 54, 90
12, 131519, Note_on_c, 11, 54, 0
12, 131520, Note_on_c, 11, 50, 90
12, 131579, Note_on_c, 11, 50, 0
12, 131580, Note_on_c, 11, 52, 90
12, 131609, Note_on_c, 11, 52, 0
12, 131610, Note_on_c, 11, 54, 90
12, 131639, Note_on_c, 11, 54, 0
12, 131640, Note_on_c, 11, 52, 90
12, 131669, Note_on_c, 11, 52, 0
12, 131670, Note_on_c, 11, 50, 90
12, 131699, Note_on_c, 11, 50, 0
12, 131700, Note_on_c, 11, 49, 90
12, 131729, Note_on_c, 11, 49, 0
12, 131730, Note_on_c, 11, 47, 90
12, 131759, Note_on_c, 11, 47, 0
12, 131760, Note_on_c, 11, 45, 90
12, 131819, Note_on_c, 11, 45, 0
12, 131820, Note_on_c, 11, 49, 90
12, 131879, Note_on_c, 11, 49, 0
12, 131880, Note_on_c, 11, 52, 90
12, 131939, Note_on_c, 11, 52, 0
12, 131940, Note_on_c, 11, 45, 90
12, 131999, Note_on_c, 11, 45, 0
12, 132000, Note_on_c, 11, 49, 90
12, 132059, Note_on_c, 11, 49, 0
12, 132060, Note_on_c, 11, 52, 90
12, 132119, Note_on_c, 11, 52, 0
12, 132120, Note_on_c, 11, 44, 90
12, 132179, Note_on_c, 11, 44, 0
12, 132180, Note_on_c, 11, 47, 90
12, 132239, Note_on_c, 11, 47, 0
12, 132240, Note_on_c, 11, 52, 90
12, 132299, Note_on_c, 11, 52, 0
12, 132300, Note_on_c, 11, 44, 90
12, 132359, Note_on_c, 11, 44, 0
12, 132360, Note_on_c, 11, 47, 90
12, 132419, Note_on_c, 11, 47, 0
12, 132420, Note_on_c, 11, 52, 90
12, 132479, Note_on_c, 11, 52, 0
12, 132480, Note_on_c, 11, 45, 90
12, 132599, Note_on_c, 11, 45, 0
12, 132600, Note_on_c, 11, 47, 90
12, 132659, Note_on_c, 11, 47, 0
12, 132660, Note_on_c, 11, 49, 90
12, 132779, Note_on_c, 11, 49, 0
12, 132780, Note_on_c, 11, 50, 90
12, 132839, Note_on_c, 11, 50, 0
12, 132840, Note_on_c, 11, 52, 90
12, 132899, Note_on_c, 11, 52, 0
12, 132900, Note_on_c, 11, 50, 90
12, 132959, Note_on_c, 11, 50, 0
12, 132960, Note_on_c, 11, 52, 90
12, 133019, Note_on_c, 11, 52, 0
12, 133020, Note_on_c, 11, 45, 90
12, 133079, Note_on_c, 11, 45, 0
12, 133080, Note_on_c, 11, 49, 90
12, 133109, Note_on_c, 11, 49, 0
12, 133110, Note_on_c, 11, 47, 90
12, 133139, Note_on_c, 11, 47, 0
12, 133140, Note_on_c, 11, 49, 90
12, 133169, Note_on_c, 11, 49, 0
12, 133170, Note_on_c, 11, 45, 90
12, 133199, Note_on_c, 11, 45, 0
12, 133200, Note_on_c, 11, 47, 90
12, 133259, Note_on_c, 11, 47, 0
12, 133260, Note_on_c, 11, 50, 90
12, 133319, Note_on_c, 11, 50, 0
12, 133320, Note_on_c, 11, 54, 90
12, 133379, Note_on_c, 11, 54, 0
12, 133380, Note_on_c, 11, 44, 90
12, 133439, Note_on_c, 11, 44, 0
12, 133440, Note_on_c, 11, 47, 90
12, 133499, Note_on_c, 11, 47, 0
12, 133500, Note_on_c, 11, 52, 90
12, 133559, Note_on_c, 11, 52, 0
12, 133560, Note_on_c, 11, 45, 90
12, 133619, Note_on_c, 11, 45, 0
12, 133620, Note_on_c, 11, 49, 90
12, 133679, Note_on_c, 11, 49, 0
12, 133680, Note_on_c, 11, 52, 90
12, 133739, Note_on_c, 11, 52, 0
12, 133740, Note_on_c, 11, 49, 90
12, 133799, Note_on_c, 11, 49, 0
12, 133800, Note_on_c, 11, 52, 90
12, 133859, Note_on_c, 11, 52, 0
12, 133860, Note_on_c, 11, 57, 90
12, 133919, Note_on_c, 11, 57, 0
12, 133920, Note_on_c, 11, 50, 90
12, 133979, Note_on_c, 11, 50, 0
12, 133980, Note_on_c, 11, 54, 90
12, 134039, Note_on_c, 11, 54, 0
12, 134040, Note_on_c, 11, 57, 90
12, 134099, Note_on_c, 11, 57, 0
12, 134100, Note_on_c, 11, 51, 90
12, 134159, Note_on_c, 11, 51, 0
12, 134160, Note_on_c, 11, 54, 90
12, 134219, Note_on_c, 11, 54, 0
12, 134220, Note_on_c, 11, 59, 90
12, 134279, Note_on_c, 11, 59, 0
12, 134280, Note_on_c, 11, 52, 90
12, 134339, Note_on_c, 11, 52, 0
12, 134340, Note_on_c, 11, 56, 90
12, 134399, Note_on_c, 11, 56, 0
12, 134400, Note_on_c, 11, 59, 90
12, 134459, Note_on_c, 11, 59, 0
12, 134460, Note_on_c, 11, 50, 90
12, 134519, Note_on_c, 11, 50, 0
12, 134520, Note_on_c, 11, 56, 90
12, 134579, Note_on_c, 11, 56, 0
12, 134580, Note_on_c, 11, 59, 90
12, 134639, Note_on_c, 11, 59, 0
12, 134640, Note_on_c, 11, 47, 90
12, 134699, Note_on_c, 11, 47, 0
12, 134700, Note_on_c, 11, 50, 90
12, 134759, Note_on_c, 11, 50, 0
12, 134760, Note_on_c, 11, 56, 90
12, 134819, Note_on_c, 11, 56, 0
12, 134820, Note_on_c, 11, 44, 90
12, 134879, Note_on_c, 11, 44, 0
12, 134880, Note_on_c, 11, 47, 90
12, 134939, Note_on_c, 11, 47, 0
12, 134940, Note_on_c, 11, 52, 90
12, 134999, Note_on_c, 11, 52, 0
12, 135000, Note_on_c, 11, 45, 90
12, 135059, Note_on_c, 11, 45, 0
12, 135060, Note_on_c, 11, 54, 90
12, 135119, Note_on_c, 11, 54, 0
12, 135120, Note_on_c, 11, 50, 90
12, 135179, Note_on_c, 11, 50, 0
12, 135180, Note_on_c, 11, 49, 90
12, 135209, Note_on_c, 11, 49, 0
12, 135210, Note_on_c, 11, 47, 90
12, 135239, Note_on_c, 11, 47, 0
12, 135240, Note_on_c, 11, 49, 90
12, 135269, Note_on_c, 11, 49, 0
12, 135270, Note_on_c, 11, 50, 90
12, 135299, Note_on_c, 11, 50, 0
12, 135300, Note_on_c, 11, 52, 90
12, 135359, Note_on_c, 11, 52, 0
12, 135360, Note_on_c, 11, 45, 90
12, 135419, Note_on_c, 11, 45, 0
12, 135420, Note_on_c, 11, 49, 90
12, 135479, Note_on_c, 11, 49, 0
12, 135480, Note_on_c, 11, 52, 90
12, 135539, Note_on_c, 11, 52, 0
12, 135540, Note_on_c, 11, 57, 90
12, 135599, Note_on_c, 11, 57, 0
12, 135600, Note_on_c, 11, 49, 90
12, 135629, Note_on_c, 11, 49, 0
12, 135630, Note_on_c, 11, 47, 90
12, 135659, Note_on_c, 11, 47, 0
12, 135660, Note_on_c, 11, 49, 90
12, 135689, Note_on_c, 11, 49, 0
12, 135690, Note_on_c, 11, 45, 90
12, 135719, Note_on_c, 11, 45, 0
12, 135720, Note_on_c, 11, 50, 90
12, 135779, Note_on_c, 11, 50, 0
12, 135780, Note_on_c, 11, 54, 90
12, 135839, Note_on_c, 11, 54, 0
12, 135840, Note_on_c, 11, 57, 90
12, 135899, Note_on_c, 11, 57, 0
12, 135900, Note_on_c, 11, 50, 90
12, 135959, Note_on_c, 11, 50, 0
12, 135960, Note_on_c, 11, 54, 90
12, 135989, Note_on_c, 11, 54, 0
12, 135990, Note_on_c, 11, 52, 90
12, 136019, Note_on_c, 11, 52, 0
12, 136020, Note_on_c, 11, 54, 90
12, 136049, Note_on_c, 11, 54, 0
12, 136050, Note_on_c, 11, 50, 90
12, 136079, Note_on_c, 11, 50, 0
12, 136080, Note_on_c, 11, 55, 90
12, 136139, Note_on_c, 11, 55, 0
12, 136140, Note_on_c, 11, 59, 90
12, 136199, Note_on_c, 11, 59, 0
12, 136200, Note_on_c, 11, 62, 90
12, 136259, Note_on_c, 11, 62, 0
12, 136260, Note_on_c, 11, 55, 90
12, 136319, Note_on_c, 11, 55, 0
12, 136320, Note_on_c, 11, 59, 90
12, 136349, Note_on_c, 11, 59, 0
12, 136350, Note_on_c, 11, 57, 90
12, 136379, Note_on_c, 11, 57, 0
12, 136380, Note_on_c, 11, 59, 90
12, 136409, Note_on_c, 11, 59, 0
12, 136410, Note_on_c, 11, 55, 90
12, 136439, Note_on_c, 11, 55, 0
12, 136440, Note_on_c, 11, 52, 90
12, 136499, Note_on_c, 11, 52, 0
12, 136500, Note_on_c, 11, 55, 90
12, 136559, Note_on_c, 11, 55, 0
12, 136560, Note_on_c, 11, 59, 90
12, 136619, Note_on_c, 11, 59, 0
12, 136620, Note_on_c, 11, 52, 90
12, 136649, Note_on_c, 11, 52, 0
12, 136650, Note_on_c, 11, 51, 90
12, 136679, Note_on_c, 11, 51, 0
12, 136680, Note_on_c, 11, 52, 90
12, 136709, Note_on_c, 11, 52, 0
12, 136710, Note_on_c, 11, 54, 90
12, 136739, Note_on_c, 11, 54, 0
12, 136740, Note_on_c, 11, 55, 90
12, 136769, Note_on_c, 11, 55, 0
12, 136770, Note_on_c, 11, 52, 90
12, 136799, Note_on_c, 11, 52, 0
12, 136800, Note_on_c, 11, 54, 90
12, 136859, Note_on_c, 11, 54, 0
12, 136860, Note_on_c, 11, 56, 90
12, 136919, Note_on_c, 11, 56, 0
12, 136920, Note_on_c, 11, 52, 90
12, 136979, Note_on_c, 11, 52, 0
12, 136980, Note_on_c, 11, 57, 90
12, 137039, Note_on_c, 11, 57, 0
12, 137040, Note_on_c, 11, 45, 90
12, 137099, Note_on_c, 11, 45, 0
12, 137160, Note_on_c, 11, 50, 90
12, 137219, Note_on_c, 11, 50, 0
12, 137220, Note_on_c, 11, 54, 90
12, 137279, Note_on_c, 11, 54, 0
12, 137280, Note_on_c, 11, 57, 90
12, 137339, Note_on_c, 11, 57, 0
12, 137340, Note_on_c, 11, 50, 90
12, 137399, Note_on_c, 11, 50, 0
12, 137400, Note_on_c, 11, 54, 90
12, 137459, Note_on_c, 11, 54, 0
12, 137460, Note_on_c, 11, 57, 90
12, 137519, Note_on_c, 11, 57, 0
12, 137520, Note_on_c, 11, 49, 90
12, 137579, Note_on_c, 11, 49, 0
12, 137580, Note_on_c, 11, 52, 90
12, 137639, Note_on_c, 11, 52, 0
12, 137640, Note_on_c, 11, 57, 90
12, 137699, Note_on_c, 11, 57, 0
12, 137700, Note_on_c, 11, 49, 90
12, 137759, Note_on_c, 11, 49, 0
12, 137760, Note_on_c, 11, 52, 90
12, 137819, Note_on_c, 11, 52, 0
12, 137820, Note_on_c, 11, 57, 90
12, 137879, Note_on_c, 11, 57, 0
12, 137880, Note_on_c, 11, 50, 90
12, 137999, Note_on_c, 11, 50, 0
12, 138000, Note_on_c, 11, 52, 90
12, 138059, Note_on_c, 11, 52, 0
12, 138060, Note_on_c, 11, 54, 90
12, 138179, Note_on_c, 11, 54, 0
12, 138180, Note_on_c, 11, 55, 90
12, 138239, Note_on_c, 11, 55, 0
12, 138240, Note_on_c, 11, 57, 90
12, 138299, Note_on_c, 11, 57, 0
12, 138300, Note_on_c, 11, 55, 90
12, 138359, Note_on_c, 11, 55, 0
12, 138360, Note_on_c, 11, 57, 90
12, 138419, Note_on_c, 11, 57, 0
12, 138420, Note_on_c, 11, 50, 90
12, 138540, Note_on_c, 11, 50, 0
12, 138600, Note_on_c, 11, 50, 90
12, 138659, Note_on_c, 11, 50, 0
12, 138660, Note_on_c, 11, 54, 90
12, 138719, Note_on_c, 11, 54, 0
12, 138720, Note_on_c, 11, 57, 90
12, 138779, Note_on_c, 11, 57, 0
12, 138780, Note_on_c, 11, 50, 90
12, 138839, Note_on_c, 11, 50, 0
12, 138840, Note_on_c, 11, 54, 90
12, 138899, Note_on_c, 11, 54, 0
12, 138900, Note_on_c, 11, 57, 90
12, 138959, Note_on_c, 11, 57, 0
12, 138960, Note_on_c, 11, 49, 90
12, 139019, Note_on_c, 11, 49, 0
12, 139020, Note_on_c, 11, 52, 90
12, 139079, Note_on_c, 11, 52, 0
12, 139080, Note_on_c, 11, 57, 90
12, 139139, Note_on_c, 11, 57, 0
12, 139140, Note_on_c, 11, 49, 90
12, 139199, Note_on_c, 11, 49, 0
12, 139200, Note_on_c, 11, 52, 90
12, 139259, Note_on_c, 11, 52, 0
12, 139260, Note_on_c, 11, 57, 90
12, 139319, Note_on_c, 11, 57, 0
12, 139320, Note_on_c, 11, 50, 90
12, 139379, Note_on_c, 11, 50, 0
12, 139380, Note_on_c, 11, 54, 90
12, 139439, Note_on_c, 11, 54, 0
12, 139440, Note_on_c, 11, 57, 90
12, 139499, Note_on_c, 11, 57, 0
12, 139500, Note_on_c, 11, 50, 90
12, 139559, Note_on_c, 11, 50, 0
12, 139560, Note_on_c, 11, 54, 90
12, 139619, Note_on_c, 11, 54, 0
12, 139620, Note_on_c, 11, 57, 90
12, 139679, Note_on_c, 11, 57, 0
12, 139680, Note_on_c, 11, 45, 90
12, 139739, Note_on_c, 11, 45, 0
12, 139740, Note_on_c, 11, 57, 90
12, 139769, Note_on_c, 11, 57, 0
12, 139770, Note_on_c, 11, 56, 90
12, 139799, Note_on_c, 11, 56, 0
12, 139800, Note_on_c, 11, 57, 90
12, 139829, Note_on_c, 11, 57, 0
12, 139830, Note_on_c, 11, 52, 90
12, 139859, Note_on_c, 11, 52, 0
12, 139860, Note_on_c, 11, 64, 90
12, 139860, Note_on_c, 11, 49, 90
12, 139919, Note_on_c, 11, 49, 0
12, 139919, Note_on_c, 11, 64, 0
12, 139920, Note_on_c, 11, 62, 90
12, 139920, Note_on_c, 11, 47, 90
12, 139979, Note_on_c, 11, 47, 0
12, 139979, Note_on_c, 11, 62, 0
12, 139980, Note_on_c, 11, 61, 90
12, 139980, Note_on_c, 11, 45, 90
12, 140039, Note_on_c, 11, 45, 0
12, 140039, Note_on_c, 11, 61, 0
12, 140040, Note_on_c, 11, 47, 90
12, 140099, Note_on_c, 11, 47, 0
12, 140100, Note_on_c, 11, 50, 90
12, 140159, Note_on_c, 11, 50, 0
12, 140160, Note_on_c, 11, 55, 90
12, 140219, Note_on_c, 11, 55, 0
12, 140220, Note_on_c, 11, 49, 90
12, 140279, Note_on_c, 11, 49, 0
12, 140280, Note_on_c, 11, 52, 90
12, 140339, Note_on_c, 11, 52, 0
12, 140340, Note_on_c, 11, 57, 90
12, 140399, Note_on_c, 11, 57, 0
12, 140400, Note_on_c, 11, 50, 90
12, 140459, Note_on_c, 11, 50, 0
12, 140460, Note_on_c, 11, 54, 90
12, 140519, Note_on_c, 11, 54, 0
12, 140520, Note_on_c, 11, 57, 90
12, 140579, Note_on_c, 11, 57, 0
12, 140580, Note_on_c, 11, 54, 90
12, 140639, Note_on_c, 11, 54, 0
12, 140640, Note_on_c, 11, 57, 90
12, 140699, Note_on_c, 11, 57, 0
12, 140700, Note_on_c, 11, 62, 90
12, 140759, Note_on_c, 11, 62, 0
12, 140760, Note_on_c, 11, 55, 90
12, 140819, Note_on_c, 11, 55, 0
12, 140820, Note_on_c, 11, 59, 90
12, 140879, Note_on_c, 11, 59, 0
12, 140880, Note_on_c, 11, 62, 90
12, 140939, Note_on_c, 11, 62, 0
12, 140940, Note_on_c, 11, 56, 90
12, 140999, Note_on_c, 11, 56, 0
12, 141000, Note_on_c, 11, 59, 90
12, 141059, Note_on_c, 11, 59, 0
12, 141060, Note_on_c, 11, 64, 90
12, 141119, Note_on_c, 11, 64, 0
12, 141120, Note_on_c, 11, 57, 90
12, 141179, Note_on_c, 11, 57, 0
12, 141180, Note_on_c, 11, 61, 90
12, 141239, Note_on_c, 11, 61, 0
12, 141240, Note_on_c, 11, 64, 90
12, 141299, Note_on_c, 11, 64, 0
12, 141300, Note_on_c, 11, 55, 90
12, 141359, Note_on_c, 11, 55, 0
12, 141360, Note_on_c, 11, 61, 90
12, 141419, Note_on_c, 11, 61, 0
12, 141420, Note_on_c, 11, 64, 90
12, 141479, Note_on_c, 11, 64, 0
12, 141480, Note_on_c, 11, 52, 90
12, 141539, Note_on_c, 11, 52, 0
12, 141540, Note_on_c, 11, 55, 90
12, 141599, Note_on_c, 11, 55, 0
12, 141600, Note_on_c, 11, 61, 90
12, 141659, Note_on_c, 11, 61, 0
12, 141660, Note_on_c, 11, 49, 90
12, 141719, Note_on_c, 11, 49, 0
12, 141720, Note_on_c, 11, 52, 90
12, 141779, Note_on_c, 11, 52, 0
12, 141780, Note_on_c, 11, 57, 90
12, 141839, Note_on_c, 11, 57, 0
12, 141840, Note_on_c, 11, 50, 90
12, 141899, Note_on_c, 11, 50, 0
12, 141900, Note_on_c, 11, 59, 90
12, 141959, Note_on_c, 11, 59, 0
12, 141960, Note_on_c, 11, 55, 90
12, 142019, Note_on_c, 11, 55, 0
12, 142020, Note_on_c, 11, 54, 90
12, 142049, Note_on_c, 11, 54, 0
12, 142050, Note_on_c, 11, 52, 90
12, 142079, Note_on_c, 11, 52, 0
12, 142080, Note_on_c, 11, 54, 90
12, 142109, Note_on_c, 11, 54, 0
12, 142110, Note_on_c, 11, 55, 90
12, 142139, Note_on_c, 11, 55, 0
12, 142140, Note_on_c, 11, 57, 90
12, 142199, Note_on_c, 11, 57, 0
12, 142200, Note_on_c, 11, 50, 90
12, 142259, Note_on_c, 11, 50, 0
12, 142260, Note_on_c, 11, 42, 90
12, 142319, Note_on_c, 11, 42, 0
12, 142320, Note_on_c, 11, 45, 90
12, 142379, Note_on_c, 11, 45, 0
12, 142380, Note_on_c, 11, 38, 90
12, 142499, Note_on_c, 11, 38, 0
12, 142500, Note_on_c, 11, 54, 90
12, 142559, Note_on_c, 11, 54, 0
12, 142560, Note_on_c, 11, 47, 90
12, 142619, Note_on_c, 11, 47, 0
12, 142620, Note_on_c, 11, 50, 90
12, 142679, Note_on_c, 11, 50, 0
12, 142680, Note_on_c, 11, 54, 90
12, 142739, Note_on_c, 11, 54, 0
12, 142740, Note_on_c, 11, 59, 90
12, 142799, Note_on_c, 11, 59, 0
12, 142800, Note_on_c, 11, 56, 90
12, 142829, Note_on_c, 11, 56, 0
12, 142830, Note_on_c, 11, 54, 90
12, 142859, Note_on_c, 11, 54, 0
12, 142860, Note_on_c, 11, 56, 90
12, 142889, Note_on_c, 11, 56, 0
12, 142890, Note_on_c, 11, 52, 90
12, 142919, Note_on_c, 11, 52, 0
12, 142920, Note_on_c, 11, 45, 90
12, 142979, Note_on_c, 11, 45, 0
12, 142980, Note_on_c, 11, 49, 90
12, 143039, Note_on_c, 11, 49, 0
12, 143040, Note_on_c, 11, 52, 90
12, 143099, Note_on_c, 11, 52, 0
12, 143100, Note_on_c, 11, 57, 90
12, 143159, Note_on_c, 11, 57, 0
12, 143160, Note_on_c, 11, 49, 90
12, 143189, Note_on_c, 11, 49, 0
12, 143190, Note_on_c, 11, 47, 90
12, 143219, Note_on_c, 11, 47, 0
12, 143220, Note_on_c, 11, 49, 90
12, 143249, Note_on_c, 11, 49, 0
12, 143250, Note_on_c, 11, 45, 90
12, 143279, Note_on_c, 11, 45, 0
12, 143280, Note_on_c, 11, 47, 90
12, 143339, Note_on_c, 11, 47, 0
12, 143340, Note_on_c, 11, 50, 90
12, 143399, Note_on_c, 11, 50, 0
12, 143400, Note_on_c, 11, 56, 90
12, 143459, Note_on_c, 11, 56, 0
12, 143460, Note_on_c, 11, 45, 90
12, 143519, Note_on_c, 11, 45, 0
12, 143520, Note_on_c, 11, 49, 90
12, 143579, Note_on_c, 11, 49, 0
12, 143580, Note_on_c, 11, 54, 90
12, 143639, Note_on_c, 11, 54, 0
12, 143640, Note_on_c, 11, 44, 90
12, 143699, Note_on_c, 11, 44, 0
12, 143700, Note_on_c, 11, 45, 90
12, 143729, Note_on_c, 11, 45, 0
12, 143730, Note_on_c, 11, 44, 90
12, 143759, Note_on_c, 11, 44, 0
12, 143760, Note_on_c, 11, 45, 90
12, 143789, Note_on_c, 11, 45, 0
12, 143790, Note_on_c, 11, 42, 90
12, 143819, Note_on_c, 11, 42, 0
12, 143820, Note_on_c, 11, 49, 90
12, 143849, Note_on_c, 11, 49, 0
12, 143850, Note_on_c, 11, 50, 90
12, 143879, Note_on_c, 11, 50, 0
12, 143880, Note_on_c, 11, 49, 90
12, 143909, Note_on_c, 11, 49, 0
12, 143910, Note_on_c, 11, 47, 90
12, 143939, Note_on_c, 11, 47, 0
12, 143940, Note_on_c, 11, 45, 90
12, 143969, Note_on_c, 11, 45, 0
12, 143970, Note_on_c, 11, 44, 90
12, 143999, Note_on_c, 11, 44, 0
12, 144000, Note_on_c, 11, 42, 90
12, 144059, Note_on_c, 11, 42, 0
12, 144060, Note_on_c, 11, 45, 90
12, 144119, Note_on_c, 11, 45, 0
12, 144120, Note_on_c, 11, 49, 90
12, 144179, Note_on_c, 11, 49, 0
12, 144180, Note_on_c, 11, 42, 90
12, 144239, Note_on_c, 11, 42, 0
12, 144240, Note_on_c, 11, 45, 90
12, 144299, Note_on_c, 11, 45, 0
12, 144300, Note_on_c, 11, 49, 90
12, 144359, Note_on_c, 11, 49, 0
12, 144360, Note_on_c, 11, 41, 90
12, 144419, Note_on_c, 11, 41, 0
12, 144420, Note_on_c, 11, 44, 90
12, 144479, Note_on_c, 11, 44, 0
12, 144480, Note_on_c, 11, 49, 90
12, 144539, Note_on_c, 11, 49, 0
12, 144540, Note_on_c, 11, 41, 90
12, 144599, Note_on_c, 11, 41, 0
12, 144600, Note_on_c, 11, 44, 90
12, 144659, Note_on_c, 11, 44, 0
12, 144660, Note_on_c, 11, 49, 90
12, 144719, Note_on_c, 11, 49, 0
12, 144720, Note_on_c, 11, 42, 90
12, 144839, Note_on_c, 11, 42, 0
12, 144840, Note_on_c, 11, 54, 90
12, 144899, Note_on_c, 11, 54, 0
12, 144900, Note_on_c, 11, 59, 90
12, 145019, Note_on_c, 11, 59, 0
12, 145020, Note_on_c, 11, 47, 90
12, 145079, Note_on_c, 11, 47, 0
12, 145080, Note_on_c, 11, 49, 90
12, 145139, Note_on_c, 11, 49, 0
12, 145140, Note_on_c, 11, 47, 90
12, 145199, Note_on_c, 11, 47, 0
12, 145200, Note_on_c, 11, 49, 90
12, 145259, Note_on_c, 11, 49, 0
12, 145260, Note_on_c, 11, 54, 90
12, 145319, Note_on_c, 11, 54, 0
12, 145320, Note_on_c, 11, 57, 90
12, 145379, Note_on_c, 11, 57, 0
12, 145380, Note_on_c, 11, 61, 90
12, 145439, Note_on_c, 11, 61, 0
12, 145440, Note_on_c, 11, 51, 90
12, 145499, Note_on_c, 11, 51, 0
12, 145500, Note_on_c, 11, 54, 90
12, 145559, Note_on_c, 11, 54, 0
12, 145560, Note_on_c, 11, 59, 90
12, 145619, Note_on_c, 11, 59, 0
12, 145620, Note_on_c, 11, 53, 90
12, 145679, Note_on_c, 11, 53, 0
12, 145680, Note_on_c, 11, 56, 90
12, 145739, Note_on_c, 11, 56, 0
12, 145740, Note_on_c, 11, 61, 90
12, 145799, Note_on_c, 11, 61, 0
12, 145800, Note_on_c, 11, 54, 90
12, 145859, Note_on_c, 11, 54, 0
12, 145860, Note_on_c, 11, 57, 90
12, 145919, Note_on_c, 11, 57, 0
12, 145920, Note_on_c, 11, 61, 90
12, 145979, Note_on_c, 11, 61, 0
12, 145980, Note_on_c, 11, 50, 90
12, 146039, Note_on_c, 11, 50, 0
12, 146040, Note_on_c, 11, 54, 90
12, 146099, Note_on_c, 11, 54, 0
12, 146100, Note_on_c, 11, 57, 90
12, 146159, Note_on_c, 11, 57, 0
12, 146160, Note_on_c, 11, 47, 90
12, 146219, Note_on_c, 11, 47, 0
12, 146220, Note_on_c, 11, 50, 90
12, 146279, Note_on_c, 11, 50, 0
12, 146280, Note_on_c, 11, 56, 90
12, 146339, Note_on_c, 11, 56, 0
12, 146340, Note_on_c, 11, 48, 90
12, 146399, Note_on_c, 11, 48, 0
12, 146400, Note_on_c, 11, 51, 90
12, 146459, Note_on_c, 11, 51, 0
12, 146460, Note_on_c, 11, 56, 90
12, 146519, Note_on_c, 11, 56, 0
12, 146520, Note_on_c, 11, 49, 90
12, 146579, Note_on_c, 11, 49, 0
12, 146580, Note_on_c, 11, 53, 90
12, 146639, Note_on_c, 11, 53, 0
12, 146640, Note_on_c, 11, 56, 90
12, 146699, Note_on_c, 11, 56, 0
12, 146700, Note_on_c, 11, 47, 90
12, 146759, Note_on_c, 11, 47, 0
12, 146760, Note_on_c, 11, 50, 90
12, 146819, Note_on_c, 11, 50, 0
12, 146820, Note_on_c, 11, 56, 90
12, 146879, Note_on_c, 11, 56, 0
12, 146880, Note_on_c, 11, 44, 90
12, 146939, Note_on_c, 11, 44, 0
12, 146940, Note_on_c, 11, 47, 90
12, 146999, Note_on_c, 11, 47, 0
12, 147000, Note_on_c, 11, 50, 90
12, 147059, Note_on_c, 11, 50, 0
12, 147060, Note_on_c, 11, 41, 90
12, 147119, Note_on_c, 11, 41, 0
12, 147120, Note_on_c, 11, 44, 90
12, 147179, Note_on_c, 11, 44, 0
12, 147180, Note_on_c, 11, 49, 90
12, 147239, Note_on_c, 11, 49, 0
12, 147240, Note_on_c, 11, 42, 90
12, 147299, Note_on_c, 11, 42, 0
12, 147300, Note_on_c, 11, 50, 90
12, 147359, Note_on_c, 11, 50, 0
12, 147360, Note_on_c, 11, 47, 90
12, 147419, Note_on_c, 11, 47, 0
12, 147420, Note_on_c, 11, 45, 90
12, 147449, Note_on_c, 11, 45, 0
12, 147450, Note_on_c, 11, 44, 90
12, 147479, Note_on_c, 11, 44, 0
12, 147480, Note_on_c, 11, 45, 90
12, 147509, Note_on_c, 11, 45, 0
12, 147510, Note_on_c, 11, 47, 90
12, 147539, Note_on_c, 11, 47, 0
12, 147540, Note_on_c, 11, 49, 90
12, 147599, Note_on_c, 11, 49, 0
12, 147600, Note_on_c, 11, 42, 90
12, 147659, Note_on_c, 11, 42, 0
12, 147660, Note_on_c, 11, 45, 90
12, 147719, Note_on_c, 11, 45, 0
12, 147720, Note_on_c, 11, 49, 90
12, 147779, Note_on_c, 11, 49, 0
12, 147780, Note_on_c, 11, 54, 90
12, 147839, Note_on_c, 11, 54, 0
12, 147840, Note_on_c, 11, 57, 90
12, 147869, Note_on_c, 11, 57, 0
12, 147870, Note_on_c, 11, 56, 90
12, 147899, Note_on_c, 11, 56, 0
12, 147900, Note_on_c, 11, 57, 90
12, 147929, Note_on_c, 11, 57, 0
12, 147930, Note_on_c, 11, 54, 90
12, 147959, Note_on_c, 11, 54, 0
12, 147960, Note_on_c, 11, 53, 90
12, 148019, Note_on_c, 11, 53, 0
12, 148020, Note_on_c, 11, 56, 90
12, 148079, Note_on_c, 11, 56, 0
12, 148080, Note_on_c, 11, 61, 90
12, 148139, Note_on_c, 11, 61, 0
12, 148140, Note_on_c, 11, 54, 90
12, 148199, Note_on_c, 11, 54, 0
12, 148200, Note_on_c, 11, 57, 90
12, 148229, Note_on_c, 11, 57, 0
12, 148230, Note_on_c, 11, 56, 90
12, 148259, Note_on_c, 11, 56, 0
12, 148260, Note_on_c, 11, 57, 90
12, 148289, Note_on_c, 11, 57, 0
12, 148290, Note_on_c, 11, 54, 90
12, 148319, Note_on_c, 11, 54, 0
12, 148320, Note_on_c, 11, 56, 90
12, 148379, Note_on_c, 11, 56, 0
12, 148380, Note_on_c, 11, 59, 90
12, 148439, Note_on_c, 11, 59, 0
12, 148440, Note_on_c, 11, 64, 90
12, 148499, Note_on_c, 11, 64, 0
12, 148500, Note_on_c, 11, 57, 90
12, 148559, Note_on_c, 11, 57, 0
12, 148560, Note_on_c, 11, 61, 90
12, 148589, Note_on_c, 11, 61, 0
12, 148590, Note_on_c, 11, 59, 90
12, 148619, Note_on_c, 11, 59, 0
12, 148620, Note_on_c, 11, 61, 90
12, 148649, Note_on_c, 11, 61, 0
12, 148650, Note_on_c, 11, 57, 90
12, 148679, Note_on_c, 11, 57, 0
12, 148680, Note_on_c, 11, 62, 90
12, 148739, Note_on_c, 11, 62, 0
12, 148740, Note_on_c, 11, 59, 90
12, 148799, Note_on_c, 11, 59, 0
12, 148800, Note_on_c, 11, 56, 90
12, 148859, Note_on_c, 11, 56, 0
12, 148860, Note_on_c, 11, 61, 90
12, 148919, Note_on_c, 11, 61, 0
12, 148920, Note_on_c, 11, 58, 90
12, 148979, Note_on_c, 11, 58, 0
12, 148980, Note_on_c, 11, 54, 90
12, 149039, Note_on_c, 11, 54, 0
12, 149040, Note_on_c, 11, 59, 90
12, 149099, Note_on_c, 11, 59, 0
12, 149100, Note_on_c, 11, 55, 90
12, 149159, Note_on_c, 11, 55, 0
12, 149160, Note_on_c, 11, 52, 90
12, 149219, Note_on_c, 11, 52, 0
12, 149220, Note_on_c, 11, 54, 90
12, 149279, Note_on_c, 11, 54, 0
12, 149280, Note_on_c, 11, 52, 90
12, 149309, Note_on_c, 11, 52, 0
12, 149310, Note_on_c, 11, 50, 90
12, 149339, Note_on_c, 11, 50, 0
12, 149340, Note_on_c, 11, 52, 90
12, 149369, Note_on_c, 11, 52, 0
12, 149370, Note_on_c, 11, 49, 90
12, 149399, Note_on_c, 11, 49, 0
12, 149400, Note_on_c, 11, 50, 90
12, 149459, Note_on_c, 11, 50, 0
12, 149460, Note_on_c, 11, 54, 90
12, 149519, Note_on_c, 11, 54, 0
12, 149520, Note_on_c, 11, 59, 90
12, 149579, Note_on_c, 11, 59, 0
12, 149580, Note_on_c, 11, 47, 90
12, 149639, Note_on_c, 11, 47, 0
12, 149640, Note_on_c, 11, 50, 90
12, 149699, Note_on_c, 11, 50, 0
12, 149700, Note_on_c, 11, 54, 90
12, 149759, Note_on_c, 11, 54, 0
12, 149760, Note_on_c, 11, 46, 90
12, 149999, Note_on_c, 11, 46, 0
12, 150000, Note_on_c, 11, 54, 90
12, 150059, Note_on_c, 11, 54, 0
12, 150060, Note_on_c, 11, 52, 90
12, 150119, Note_on_c, 11, 52, 0
12, 150120, Note_on_c, 11, 50, 90
12, 150179, Note_on_c, 11, 50, 0
12, 150180, Note_on_c, 11, 49, 90
12, 150239, Note_on_c, 11, 49, 0
12, 150240, Note_on_c, 11, 47, 90
12, 150299, Note_on_c, 11, 47, 0
12, 150300, Note_on_c, 11, 52, 90
12, 150419, Note_on_c, 11, 52, 0
12, 150420, Note_on_c, 11, 40, 90
12, 150479, Note_on_c, 11, 40, 0
12, 150480, Note_on_c, 11, 42, 90
12, 150539, Note_on_c, 11, 42, 0
12, 150540, Note_on_c, 11, 40, 90
12, 150599, Note_on_c, 11, 40, 0
12, 150600, Note_on_c, 11, 42, 90
12, 150659, Note_on_c, 11, 42, 0
12, 150660, Note_on_c, 11, 47, 90
12, 150779, Note_on_c, 11, 47, 0
12, 150840, Note_on_c, 11, 54, 90
12, 151320, Note_on_c, 11, 54, 0
12, 151320, Note_on_c, 11, 55, 90
12, 151800, Note_on_c, 11, 55, 0
12, 151800, Note_on_c, 11, 47, 90
12, 152280, Note_on_c, 11, 47, 0
12, 152280, Note_on_c, 11, 48, 90
12, 152520, Note_on_c, 11, 48, 0
12, 152520, Note_on_c, 11, 44, 90
12, 152790, Note_on_c, 11, 44, 0
12, 152790, Note_on_c, 11, 65, 90
12, 152819, Note_on_c, 11, 65, 0
12, 152820, Note_on_c, 11, 62, 90
12, 152849, Note_on_c, 11, 62, 0
12, 152850, Note_on_c, 11, 59, 90
12, 152879, Note_on_c, 11, 59, 0
12, 152880, Note_on_c, 11, 56, 90
12, 152909, Note_on_c, 11, 56, 0
12, 152910, Note_on_c, 11, 59, 90
12, 152939, Note_on_c, 11, 59, 0
12, 152940, Note_on_c, 11, 56, 90
12, 152969, Note_on_c, 11, 56, 0
12, 152970, Note_on_c, 11, 52, 90
12, 152999, Note_on_c, 11, 52, 0
12, 153000, Note_on_c, 11, 45, 90
12, 153029, Note_on_c, 11, 45, 0
12, 153030, Note_on_c, 11, 64, 90
12, 153059, Note_on_c, 11, 64, 0
12, 153060, Note_on_c, 11, 60, 90
12, 153089, Note_on_c, 11, 60, 0
12, 153090, Note_on_c, 11, 57, 90
12, 153119, Note_on_c, 11, 57, 0
12, 153120, Note_on_c, 11, 54, 90
12, 153149, Note_on_c, 11, 54, 0
12, 153150, Note_on_c, 11, 57, 90
12, 153179, Note_on_c, 11, 57, 0
12, 153180, Note_on_c, 11, 54, 90
12, 153209, Note_on_c, 11, 54, 0
12, 153210, Note_on_c, 11, 50, 90
12, 153239, Note_on_c, 11, 50, 0
12, 153240, Note_on_c, 11, 43, 90
12, 153269, Note_on_c, 11, 43, 0
12, 153270, Note_on_c, 11, 55, 90
12, 153299, Note_on_c, 11, 55, 0
12, 153300, Note_on_c, 11, 52, 90
12, 153329, Note_on_c, 11, 52, 0
12, 153330, Note_on_c, 11, 49, 90
12, 153359, Note_on_c, 11, 49, 0
12, 153360, Note_on_c, 11, 50, 90
12, 153419, Note_on_c, 11, 50, 0
12, 153420, Note_on_c, 11, 38, 90
12, 153479, Note_on_c, 11, 38, 0
12, 153480, Note_on_c, 11, 43, 90
12, 153719, Note_on_c, 11, 43, 0
12, 153960, Note_on_c, 11, 55, 90
12, 154055, Note_on_c, 11, 55, 0
12, 154080, Note_on_c, 11, 52, 90
12, 154175, Note_on_c, 11, 52, 0
12, 154200, Note_on_c, 11, 47, 90
12, 154295, Note_on_c, 11, 47, 0
12, 154320, Note_on_c, 11, 48, 90
12, 154415, Note_on_c, 11, 48, 0
12, 154440, Note_on_c, 11, 45, 90
12, 154535, Note_on_c, 11, 45, 0
12, 154560, Note_on_c, 11, 43, 90
12, 154655, Note_on_c, 11, 43, 0
12, 154680, Note_on_c, 11, 50, 90
12, 154775, Note_on_c, 11, 50, 0
12, 154800, Note_on_c, 11, 48, 90
12, 154895, Note_on_c, 11, 48, 0
12, 154920, Note_on_c, 11, 47, 90
12, 155015, Note_on_c, 11, 47, 0
12, 155040, Note_on_c, 11, 50, 90
12, 155135, Note_on_c, 11, 50, 0
12, 155160, Note_on_c, 11, 52, 90
12, 155255, Note_on_c, 11, 52, 0
12, 155280, Note_on_c, 11, 48, 90
12, 155375, Note_on_c, 11, 48, 0
12, 155400, Note_on_c, 11, 50, 90
12, 155495, Note_on_c, 11, 50, 0
12, 155520, Note_on_c, 11, 38, 90
12, 155615, Note_on_c, 11, 38, 0
12, 155640, Note_on_c, 11, 43, 90
12, 155831, Note_on_c, 11, 43, 0
12, 155880, Note_on_c, 11, 55, 90
12, 155975, Note_on_c, 11, 55, 0
12, 156000, Note_on_c, 11, 52, 90
12, 156095, Note_on_c, 11, 52, 0
12, 156120, Note_on_c, 11, 57, 90
12, 156215, Note_on_c, 11, 57, 0
12, 156240, Note_on_c, 11, 54, 90
12, 156335, Note_on_c, 11, 54, 0
12, 156360, Note_on_c, 11, 52, 90
12, 156455, Note_on_c, 11, 52, 0
12, 156480, Note_on_c, 11, 50, 90
12, 156575, Note_on_c, 11, 50, 0
12, 156600, Note_on_c, 11, 57, 90
12, 156695, Note_on_c, 11, 57, 0
12, 156720, Note_on_c, 11, 55, 90
12, 156815, Note_on_c, 11, 55, 0
12, 156840, Note_on_c, 11, 54, 90
12, 156935, Note_on_c, 11, 54, 0
12, 156960, Note_on_c, 11, 57, 90
12, 157055, Note_on_c, 11, 57, 0
12, 157080, Note_on_c, 11, 59, 90
12, 157175, Note_on_c, 11, 59, 0
12, 157200, Note_on_c, 11, 55, 90
12, 157295, Note_on_c, 11, 55, 0
12, 157320, Note_on_c, 11, 57, 90
12, 157415, Note_on_c, 11, 57, 0
12, 157440, Note_on_c, 11, 45, 90
12, 157535, Note_on_c, 11, 45, 0
12, 157560, Note_on_c, 11, 50, 90
12, 157703, Note_on_c, 11, 50, 0
12, 157740, Note_on_c, 11, 48, 90
12, 157787, Note_on_c, 11, 48, 0
12, 157800, Note_on_c, 11, 47, 90
12, 157895, Note_on_c, 11, 47, 0
12, 157920, Note_on_c, 11, 43, 90
12, 158015, Note_on_c, 11, 43, 0
12, 158040, Note_on_c, 11, 48, 90
12, 158135, Note_on_c, 11, 48, 0
12, 158160, Note_on_c, 11, 60, 90
12, 158255, Note_on_c, 11, 60, 0
12, 158280, Note_on_c, 11, 56, 90
12, 158375, Note_on_c, 11, 56, 0
12, 158400, Note_on_c, 11, 52, 90
12, 158495, Note_on_c, 11, 52, 0
12, 158520, Note_on_c, 11, 57, 90
12, 158615, Note_on_c, 11, 57, 0
12, 158640, Note_on_c, 11, 55, 90
12, 158735, Note_on_c, 11, 55, 0
12, 158760, Note_on_c, 11, 54, 90
12, 158855, Note_on_c, 11, 54, 0
12, 158880, Note_on_c, 11, 50, 90
12, 158975, Note_on_c, 11, 50, 0
12, 159000, Note_on_c, 11, 55, 90
12, 159095, Note_on_c, 11, 55, 0
12, 159120, Note_on_c, 11, 52, 90
12, 159215, Note_on_c, 11, 52, 0
12, 159240, Note_on_c, 11, 57, 90
12, 159335, Note_on_c, 11, 57, 0
12, 159360, Note_on_c, 11, 45, 90
12, 159455, Note_on_c, 11, 45, 0
12, 159480, Note_on_c, 11, 50, 90
12, 159575, Note_on_c, 11, 50, 0
12, 159600, Note_on_c, 11, 52, 90
12, 159695, Note_on_c, 11, 52, 0
12, 159720, Note_on_c, 11, 54, 90
12, 159815, Note_on_c, 11, 54, 0
12, 159840, Note_on_c, 11, 50, 90
12, 159935, Note_on_c, 11, 50, 0
12, 159960, Note_on_c, 11, 55, 90
12, 160055, Note_on_c, 11, 55, 0
12, 160080, Note_on_c, 11, 53, 90
12, 160175, Note_on_c, 11, 53, 0
12, 160200, Note_on_c, 11, 52, 90
12, 160295, Note_on_c, 11, 52, 0
12, 160320, Note_on_c, 11, 50, 90
12, 160415, Note_on_c, 11, 50, 0
12, 160440, Note_on_c, 11, 48, 90
12, 160535, Note_on_c, 11, 48, 0
12, 160560, Note_on_c, 11, 47, 90
12, 160655, Note_on_c, 11, 47, 0
12, 160680, Note_on_c, 11, 48, 90
12, 160775, Note_on_c, 11, 48, 0
12, 160800, Note_on_c, 11, 45, 90
12, 160895, Note_on_c, 11, 45, 0
12, 160920, Note_on_c, 11, 47, 90
12, 161015, Note_on_c, 11, 47, 0
12, 161040, Note_on_c, 11, 45, 90
12, 161087, Note_on_c, 11, 45, 0
12, 161100, Note_on_c, 11, 43, 90
12, 161147, Note_on_c, 11, 43, 0
12, 161160, Note_on_c, 11, 50, 90
12, 161255, Note_on_c, 11, 50, 0
12, 161280, Note_on_c, 11, 38, 90
12, 161375, Note_on_c, 11, 38, 0
12, 161400, Note_on_c, 11, 43, 90
12, 161591, Note_on_c, 11, 43, 0
12, 161640, Note_on_c, 11, 55, 90
12, 161735, Note_on_c, 11, 55, 0
12, 161760, Note_on_c, 11, 52, 90
12, 161855, Note_on_c, 11, 52, 0
12, 161880, Note_on_c, 11, 47, 90
12, 161975, Note_on_c, 11, 47, 0
12, 162000, Note_on_c, 11, 48, 90
12, 162095, Note_on_c, 11, 48, 0
12, 162120, Note_on_c, 11, 45, 90
12, 162215, Note_on_c, 11, 45, 0
12, 162240, Note_on_c, 11, 43, 90
12, 162335, Note_on_c, 11, 43, 0
12, 162360, Note_on_c, 11, 50, 90
12, 162455, Note_on_c, 11, 50, 0
12, 162480, Note_on_c, 11, 48, 90
12, 162575, Note_on_c, 11, 48, 0
12, 162600, Note_on_c, 11, 47, 90
12, 162695, Note_on_c, 11, 47, 0
12, 162720, Note_on_c, 11, 50, 90
12, 162815, Note_on_c, 11, 50, 0
12, 162840, Note_on_c, 11, 52, 90
12, 162935, Note_on_c, 11, 52, 0
12, 162960, Note_on_c, 11, 48, 90
12, 163055, Note_on_c, 11, 48, 0
12, 163080, Note_on_c, 11, 50, 90
12, 163175, Note_on_c, 11, 50, 0
12, 163200, Note_on_c, 11, 38, 90
12, 163295, Note_on_c, 11, 38, 0
12, 163320, Note_on_c, 11, 43, 90
12, 163415, Note_on_c, 11, 43, 0
12, 163440, Note_on_c, 11, 50, 90
12, 163535, Note_on_c, 11, 50, 0
12, 163560, Note_on_c, 11, 55, 90
12, 163655, Note_on_c, 11, 55, 0
12, 163680, Note_on_c, 11, 52, 90
12, 163775, Note_on_c, 11, 52, 0
12, 163800, Note_on_c, 11, 57, 90
12, 163895, Note_on_c, 11, 57, 0
12, 163920, Note_on_c, 11, 54, 90
12, 164015, Note_on_c, 11, 54, 0
12, 164040, Note_on_c, 11, 52, 90
12, 164135, Note_on_c, 11, 52, 0
12, 164160, Note_on_c, 11, 50, 90
12, 164255, Note_on_c, 11, 50, 0
12, 164280, Note_on_c, 11, 57, 90
12, 164375, Note_on_c, 11, 57, 0
12, 164400, Note_on_c, 11, 55, 90
12, 164495, Note_on_c, 11, 55, 0
12, 164520, Note_on_c, 11, 57, 90
12, 164615, Note_on_c, 11, 57, 0
12, 164640, Note_on_c, 11, 54, 90
12, 164735, Note_on_c, 11, 54, 0
12, 164760, Note_on_c, 11, 59, 90
12, 164855, Note_on_c, 11, 59, 0
12, 164880, Note_on_c, 11, 55, 90
12, 164975, Note_on_c, 11, 55, 0
12, 165000, Note_on_c, 11, 57, 90
12, 165095, Note_on_c, 11, 57, 0
12, 165120, Note_on_c, 11, 45, 90
12, 165215, Note_on_c, 11, 45, 0
12, 165240, Note_on_c, 11, 50, 90
12, 165335, Note_on_c, 11, 50, 0
12, 165360, Note_on_c, 11, 48, 90
12, 165455, Note_on_c, 11, 48, 0
12, 165480, Note_on_c, 11, 47, 90
12, 165575, Note_on_c, 11, 47, 0
12, 165600, Note_on_c, 11, 43, 90
12, 165695, Note_on_c, 11, 43, 0
12, 165720, Note_on_c, 11, 48, 90
12, 165815, Note_on_c, 11, 48, 0
12, 165840, Note_on_c, 11, 60, 90
12, 165935, Note_on_c, 11, 60, 0
12, 165960, Note_on_c, 11, 56, 90
12, 166055, Note_on_c, 11, 56, 0
12, 166080, Note_on_c, 11, 52, 90
12, 166175, Note_on_c, 11, 52, 0
12, 166200, Note_on_c, 11, 57, 90
12, 166295, Note_on_c, 11, 57, 0
12, 166320, Note_on_c, 11, 55, 90
12, 166415, Note_on_c, 11, 55, 0
12, 166440, Note_on_c, 11, 54, 90
12, 166535, Note_on_c, 11, 54, 0
12, 166560, Note_on_c, 11, 50, 90
12, 166655, Note_on_c, 11, 50, 0
12, 166680, Note_on_c, 11, 55, 90
12, 166775, Note_on_c, 11, 55, 0
12, 166800, Note_on_c, 11, 52, 90
12, 166895, Note_on_c, 11, 52, 0
12, 166920, Note_on_c, 11, 57, 90
12, 167015, Note_on_c, 11, 57, 0
12, 167040, Note_on_c, 11, 45, 90
12, 167135, Note_on_c, 11, 45, 0
12, 167160, Note_on_c, 11, 50, 90
12, 167255, Note_on_c, 11, 50, 0
12, 167280, Note_on_c, 11, 52, 90
12, 167375, Note_on_c, 11, 52, 0
12, 167400, Note_on_c, 11, 54, 90
12, 167495, Note_on_c, 11, 54, 0
12, 167520, Note_on_c, 11, 50, 90
12, 167615, Note_on_c, 11, 50, 0
12, 167640, Note_on_c, 11, 55, 90
12, 167735, Note_on_c, 11, 55, 0
12, 167760, Note_on_c, 11, 53, 90
12, 167855, Note_on_c, 11, 53, 0
12, 167880, Note_on_c, 11, 52, 90
12, 167975, Note_on_c, 11, 52, 0
12, 168000, Note_on_c, 11, 50, 90
12, 168095, Note_on_c, 11, 50, 0
12, 168120, Note_on_c, 11, 48, 90
12, 168215, Note_on_c, 11, 48, 0
12, 168240, Note_on_c, 11, 50, 90
12, 168335, Note_on_c, 11, 50, 0
12, 168360, Note_on_c, 11, 52, 90
12, 168455, Note_on_c, 11, 52, 0
12, 168480, Note_on_c, 11, 48, 90
12, 168575, Note_on_c, 11, 48, 0
12, 168600, Note_on_c, 11, 47, 90
12, 168695, Note_on_c, 11, 47, 0
12, 168720, Note_on_c, 11, 48, 90
12, 168815, Note_on_c, 11, 48, 0
12, 168840, Note_on_c, 11, 50, 90
12, 168935, Note_on_c, 11, 50, 0
12, 168960, Note_on_c, 11, 38, 90
12, 169055, Note_on_c, 11, 38, 0
12, 169080, Note_on_c, 11, 43, 90
12, 169271, Note_on_c, 11, 43, 0
12, 169320, Note_on_c, 11, 55, 90
12, 169415, Note_on_c, 11, 55, 0
12, 169440, Note_on_c, 11, 52, 90
12, 169535, Note_on_c, 11, 52, 0
12, 169560, Note_on_c, 11, 47, 90
12, 169655, Note_on_c, 11, 47, 0
12, 169680, Note_on_c, 11, 48, 90
12, 169775, Note_on_c, 11, 48, 0
12, 169800, Note_on_c, 11, 45, 90
12, 169895, Note_on_c, 11, 45, 0
12, 169920, Note_on_c, 11, 43, 90
12, 170015, Note_on_c, 11, 43, 0
12, 170040, Note_on_c, 11, 50, 90
12, 170135, Note_on_c, 11, 50, 0
12, 170160, Note_on_c, 11, 48, 90
12, 170255, Note_on_c, 11, 48, 0
12, 170280, Note_on_c, 11, 47, 90
12, 170375, Note_on_c, 11, 47, 0
12, 170400, Note_on_c, 11, 50, 90
12, 170495, Note_on_c, 11, 50, 0
12, 170520, Note_on_c, 11, 52, 90
12, 170615, Note_on_c, 11, 52, 0
12, 170640, Note_on_c, 11, 48, 90
12, 170735, Note_on_c, 11, 48, 0
12, 170760, Note_on_c, 11, 50, 90
12, 170855, Note_on_c, 11, 50, 0
12, 170880, Note_on_c, 11, 38, 90
12, 170975, Note_on_c, 11, 38, 0
12, 171000, Note_on_c, 11, 43, 90
12, 171191, Note_on_c, 11, 43, 0
12, 171240, Note_on_c, 11, 55, 90
12, 171335, Note_on_c, 11, 55, 0
12, 171360, Note_on_c, 11, 52, 90
12, 171455, Note_on_c, 11, 52, 0
12, 171480, Note_on_c, 11, 57, 90
12, 171575, Note_on_c, 11, 57, 0
12, 171600, Note_on_c, 11, 54, 90
12, 171695, Note_on_c, 11, 54, 0
12, 171720, Note_on_c, 11, 52, 90
12, 171815, Note_on_c, 11, 52, 0
12, 171840, Note_on_c, 11, 50, 90
12, 171935, Note_on_c, 11, 50, 0
12, 171960, Note_on_c, 11, 57, 90
12, 172055, Note_on_c, 11, 57, 0
12, 172080, Note_on_c, 11, 55, 90
12, 172175, Note_on_c, 11, 55, 0
12, 172200, Note_on_c, 11, 54, 90
12, 172295, Note_on_c, 11, 54, 0
12, 172320, Note_on_c, 11, 57, 90
12, 172415, Note_on_c, 11, 57, 0
12, 172440, Note_on_c, 11, 59, 90
12, 172535, Note_on_c, 11, 59, 0
12, 172560, Note_on_c, 11, 55, 90
12, 172655, Note_on_c, 11, 55, 0
12, 172680, Note_on_c, 11, 57, 90
12, 172775, Note_on_c, 11, 57, 0
12, 172800, Note_on_c, 11, 45, 90
12, 172895, Note_on_c, 11, 45, 0
12, 172920, Note_on_c, 11, 50, 90
12, 173063, Note_on_c, 11, 50, 0
12, 173100, Note_on_c, 11, 48, 90
12, 173147, Note_on_c, 11, 48, 0
12, 173160, Note_on_c, 11, 47, 90
12, 173255, Note_on_c, 11, 47, 0
12, 173280, Note_on_c, 11, 43, 90
12, 173375, Note_on_c, 11, 43, 0
12, 173400, Note_on_c, 11, 48, 90
12, 173495, Note_on_c, 11, 48, 0
12, 173520, Note_on_c, 11, 60, 90
12, 173615, Note_on_c, 11, 60, 0
12, 173640, Note_on_c, 11, 56, 90
12, 173735, Note_on_c, 11, 56, 0
12, 173760, Note_on_c, 11, 52, 90
12, 173855, Note_on_c, 11, 52, 0
12, 173880, Note_on_c, 11, 57, 90
12, 173975, Note_on_c, 11, 57, 0
12, 174000, Note_on_c, 11, 55, 90
12, 174095, Note_on_c, 11, 55, 0
12, 174120, Note_on_c, 11, 54, 90
12, 174215, Note_on_c, 11, 54, 0
12, 174240, Note_on_c, 11, 50, 90
12, 174335, Note_on_c, 11, 50, 0
12, 174360, Note_on_c, 11, 55, 90
12, 174455, Note_on_c, 11, 55, 0
12, 174480, Note_on_c, 11, 52, 90
12, 174575, Note_on_c, 11, 52, 0
12, 174600, Note_on_c, 11, 57, 90
12, 174695, Note_on_c, 11, 57, 0
12, 174720, Note_on_c, 11, 45, 90
12, 174815, Note_on_c, 11, 45, 0
12, 174840, Note_on_c, 11, 50, 90
12, 174935, Note_on_c, 11, 50, 0
12, 174960, Note_on_c, 11, 52, 90
12, 175055, Note_on_c, 11, 52, 0
12, 175080, Note_on_c, 11, 54, 90
12, 175175, Note_on_c, 11, 54, 0
12, 175200, Note_on_c, 11, 50, 90
12, 175295, Note_on_c, 11, 50, 0
12, 175320, Note_on_c, 11, 55, 90
12, 175415, Note_on_c, 11, 55, 0
12, 175440, Note_on_c, 11, 53, 90
12, 175535, Note_on_c, 11, 53, 0
12, 175560, Note_on_c, 11, 52, 90
12, 175655, Note_on_c, 11, 52, 0
12, 175680, Note_on_c, 11, 50, 90
12, 175775, Note_on_c, 11, 50, 0
12, 175800, Note_on_c, 11, 48, 90
12, 175895, Note_on_c, 11, 48, 0
12, 175920, Note_on_c, 11, 47, 90
12, 176015, Note_on_c, 11, 47, 0
12, 176040, Note_on_c, 11, 48, 90
12, 176135, Note_on_c, 11, 48, 0
12, 176160, Note_on_c, 11, 45, 90
12, 176255, Note_on_c, 11, 45, 0
12, 176280, Note_on_c, 11, 47, 90
12, 176375, Note_on_c, 11, 47, 0
12, 176400, Note_on_c, 11, 45, 90
12, 176447, Note_on_c, 11, 45, 0
12, 176460, Note_on_c, 11, 43, 90
12, 176507, Note_on_c, 11, 43, 0
12, 176520, Note_on_c, 11, 50, 90
12, 176615, Note_on_c, 11, 50, 0
12, 176640, Note_on_c, 11, 38, 90
12, 176735, Note_on_c, 11, 38, 0
12, 176760, Note_on_c, 11, 43, 90
12, 176951, Note_on_c, 11, 43, 0
12, 176951, End_track
13, 0, Start_track
13, 0, MIDI_port, 0
13, 0, Title_t, "J.S.BACH"
13, 0, End_track
14, 0, Start_track
14, 0, MIDI_port, 0
14, 0, Title_t, "BWV 202"
14, 0, End_track
15, 0, Start_track
15, 0, MIDI_port, 0
15, 0, Title_t, "CANTATA BWV 202"
15, 0, End_track
16, 0, Start_track
16, 0, MIDI_port, 0
16, 0, Title_t, "Weichet nur, betrbte Schatten"
16, 0, End_track
17, 0, Start_track
17, 0, MIDI_port, 0
17, 0, Title_t, "(cantata de boda)"
17, 0, End_track
18, 0, Start_track
18, 0, MIDI_port, 0
18, 0, Title_t, "SECUENCED BY"
18, 0, End_track
19, 0, Start_track
19, 0, MIDI_port, 0
19, 0, Title_t, "MARCELO COPIA M"
19, 0, End_track
20, 0, Start_track
20, 0, MIDI_port, 0
20, 0, Title_t, "mcopia@entelchile.net"
20, 0, End_track
0, 0, End_of_file
