0, 0, Header, 1, 4, 240
1, 0, Start_track
1, 0, Time_signature, 4, 2, 24, 8
1, 0, Tempo, 750000
1, 78000, Tempo, 789474
1, 78240, Tempo, 833333
1, 78480, Tempo, 869565
1, 78720, Tempo, 923077
1, 78960, Tempo, 983607
1, 79200, Tempo, 1052632
1, 79440, Tempo, 1111111
1, 79440, End_track
2, 0, Start_track
2, 0, Title_t, "Fugue in G-Major - BWV 541"
2, 0, Program_c, 0, 19
2, 0, Control_c, 0, 7, 127
2, 120, Note_on_c, 0, 62, 127
2, 216, Note_off_c, 0, 62, 64
2, 240, Note_on_c, 0, 62, 127
2, 336, Note_off_c, 0, 62, 64
2, 360, Note_on_c, 0, 62, 127
2, 456, Note_off_c, 0, 62, 64
2, 480, Note_on_c, 0, 67, 127
2, 576, Note_off_c, 0, 67, 64
2, 600, Note_on_c, 0, 67, 127
2, 696, Note_off_c, 0, 67, 64
2, 720, Note_on_c, 0, 67, 127
2, 816, Note_off_c, 0, 67, 64
2, 840, Note_on_c, 0, 67, 127
2, 936, Note_off_c, 0, 67, 64
2, 960, Note_on_c, 0, 67, 127
2, 1056, Note_off_c, 0, 67, 64
2, 1080, Note_on_c, 0, 66, 127
2, 1128, Note_off_c, 0, 66, 64
2, 1140, Note_on_c, 0, 64, 127
2, 1188, Note_off_c, 0, 64, 64
2, 1200, Note_on_c, 0, 66, 127
2, 1296, Note_off_c, 0, 66, 64
2, 1320, Note_on_c, 0, 62, 127
2, 1416, Note_off_c, 0, 62, 64
2, 1440, Note_on_c, 0, 71, 127
2, 1536, Note_off_c, 0, 71, 64
2, 1560, Note_on_c, 0, 71, 127
2, 1656, Note_off_c, 0, 71, 64
2, 1680, Note_on_c, 0, 71, 127
2, 1776, Note_off_c, 0, 71, 64
2, 1800, Note_on_c, 0, 71, 127
2, 1896, Note_off_c, 0, 71, 64
2, 1920, Note_on_c, 0, 71, 127
2, 2016, Note_off_c, 0, 71, 64
2, 2040, Note_on_c, 0, 69, 127
2, 2088, Note_off_c, 0, 69, 64
2, 2100, Note_on_c, 0, 67, 127
2, 2148, Note_off_c, 0, 67, 64
2, 2160, Note_on_c, 0, 69, 127
2, 2256, Note_off_c, 0, 69, 64
2, 2280, Note_on_c, 0, 69, 127
2, 2376, Note_off_c, 0, 69, 64
2, 2400, Note_on_c, 0, 69, 127
2, 2496, Note_off_c, 0, 69, 64
2, 2520, Note_on_c, 0, 62, 127
2, 2616, Note_off_c, 0, 62, 64
2, 2640, Note_on_c, 0, 67, 127
2, 2976, Note_off_c, 0, 67, 64
2, 3000, Note_on_c, 0, 69, 127
2, 3048, Note_off_c, 0, 69, 64
2, 3060, Note_on_c, 0, 67, 127
2, 3108, Note_off_c, 0, 67, 64
2, 3120, Note_on_c, 0, 66, 127
2, 3168, Note_off_c, 0, 66, 64
2, 3180, Note_on_c, 0, 67, 127
2, 3228, Note_off_c, 0, 67, 64
2, 3240, Note_on_c, 0, 64, 127
2, 3288, Note_off_c, 0, 64, 64
2, 3300, Note_on_c, 0, 66, 127
2, 3348, Note_off_c, 0, 66, 64
2, 3360, Note_on_c, 0, 67, 127
2, 3408, Note_off_c, 0, 67, 64
2, 3420, Note_on_c, 0, 66, 127
2, 3468, Note_off_c, 0, 66, 64
2, 3480, Note_on_c, 0, 67, 127
2, 3528, Note_off_c, 0, 67, 64
2, 3540, Note_on_c, 0, 69, 127
2, 3588, Note_off_c, 0, 69, 64
2, 3600, Note_on_c, 0, 67, 127
2, 3648, Note_off_c, 0, 67, 64
2, 3660, Note_on_c, 0, 71, 127
2, 3708, Note_off_c, 0, 71, 64
2, 3720, Note_on_c, 0, 69, 127
2, 3768, Note_off_c, 0, 69, 64
2, 3780, Note_on_c, 0, 67, 127
2, 3828, Note_off_c, 0, 67, 64
2, 3840, Note_on_c, 0, 66, 127
2, 3888, Note_off_c, 0, 66, 64
2, 3900, Note_on_c, 0, 64, 127
2, 3948, Note_off_c, 0, 64, 64
2, 3960, Note_on_c, 0, 66, 127
2, 4008, Note_off_c, 0, 66, 64
2, 4020, Note_on_c, 0, 67, 127
2, 4068, Note_off_c, 0, 67, 64
2, 4080, Note_on_c, 0, 66, 127
2, 4128, Note_off_c, 0, 66, 64
2, 4140, Note_on_c, 0, 69, 127
2, 4188, Note_off_c, 0, 69, 64
2, 4200, Note_on_c, 0, 67, 127
2, 4248, Note_off_c, 0, 67, 64
2, 4260, Note_on_c, 0, 66, 127
2, 4308, Note_off_c, 0, 66, 64
2, 4320, Note_on_c, 0, 64, 127
2, 4512, Note_off_c, 0, 64, 64
2, 4560, Note_on_c, 0, 76, 127
2, 4848, Note_off_c, 0, 76, 64
2, 4860, Note_on_c, 0, 69, 127
2, 4908, Note_off_c, 0, 69, 64
2, 4920, Note_on_c, 0, 71, 127
2, 4968, Note_off_c, 0, 71, 64
2, 4980, Note_on_c, 0, 73, 127
2, 5028, Note_off_c, 0, 73, 64
2, 5040, Note_on_c, 0, 74, 127
2, 5088, Note_off_c, 0, 74, 64
2, 5100, Note_on_c, 0, 76, 127
2, 5148, Note_off_c, 0, 76, 64
2, 5160, Note_on_c, 0, 73, 127
2, 5208, Note_off_c, 0, 73, 64
2, 5220, Note_on_c, 0, 74, 127
2, 5268, Note_off_c, 0, 74, 64
2, 5280, Note_on_c, 0, 67, 127
2, 5568, Note_off_c, 0, 67, 64
2, 5580, Note_on_c, 0, 71, 127
2, 5628, Note_off_c, 0, 71, 64
2, 5640, Note_on_c, 0, 69, 127
2, 5688, Note_off_c, 0, 69, 64
2, 5700, Note_on_c, 0, 67, 127
2, 5748, Note_off_c, 0, 67, 64
2, 5760, Note_on_c, 0, 66, 127
2, 6048, Note_off_c, 0, 66, 64
2, 6060, Note_on_c, 0, 67, 127
2, 6108, Note_off_c, 0, 67, 64
2, 6120, Note_on_c, 0, 69, 127
2, 6168, Note_off_c, 0, 69, 64
2, 6180, Note_on_c, 0, 71, 127
2, 6228, Note_off_c, 0, 71, 64
2, 6240, Note_on_c, 0, 73, 127
2, 6288, Note_off_c, 0, 73, 64
2, 6300, Note_on_c, 0, 74, 127
2, 6348, Note_off_c, 0, 74, 64
2, 6360, Note_on_c, 0, 73, 127
2, 6408, Note_off_c, 0, 73, 64
2, 6420, Note_on_c, 0, 74, 127
2, 6468, Note_off_c, 0, 74, 64
2, 6480, Note_on_c, 0, 64, 127
2, 6576, Note_off_c, 0, 64, 64
2, 6600, Note_on_c, 0, 69, 127
2, 6696, Note_off_c, 0, 69, 64
2, 6720, Note_on_c, 0, 66, 127
2, 6768, Note_off_c, 0, 66, 64
2, 6780, Note_on_c, 0, 64, 127
2, 6828, Note_off_c, 0, 64, 64
2, 6840, Note_on_c, 0, 66, 127
2, 6888, Note_off_c, 0, 66, 64
2, 6900, Note_on_c, 0, 67, 127
2, 6948, Note_off_c, 0, 67, 64
2, 6960, Note_on_c, 0, 66, 127
2, 7008, Note_off_c, 0, 66, 64
2, 7020, Note_on_c, 0, 67, 127
2, 7068, Note_off_c, 0, 67, 64
2, 7080, Note_on_c, 0, 69, 127
2, 7296, Note_off_c, 0, 69, 64
2, 7320, Note_on_c, 0, 67, 127
2, 7416, Note_off_c, 0, 67, 64
2, 7560, Note_on_c, 0, 67, 127
2, 7656, Note_off_c, 0, 67, 64
2, 7680, Note_on_c, 0, 72, 127
2, 7728, Note_off_c, 0, 72, 64
2, 7740, Note_on_c, 0, 71, 127
2, 7788, Note_off_c, 0, 71, 64
2, 7800, Note_on_c, 0, 69, 127
2, 7848, Note_off_c, 0, 69, 64
2, 7860, Note_on_c, 0, 71, 127
2, 7908, Note_off_c, 0, 71, 64
2, 7920, Note_on_c, 0, 72, 127
2, 7968, Note_off_c, 0, 72, 64
2, 7980, Note_on_c, 0, 74, 127
2, 8028, Note_off_c, 0, 74, 64
2, 8040, Note_on_c, 0, 71, 127
2, 8088, Note_off_c, 0, 71, 64
2, 8100, Note_on_c, 0, 72, 127
2, 8148, Note_off_c, 0, 72, 64
2, 8160, Note_on_c, 0, 74, 127
2, 8352, Note_off_c, 0, 74, 64
2, 8520, Note_on_c, 0, 74, 127
2, 8616, Note_off_c, 0, 74, 64
2, 8640, Note_on_c, 0, 76, 127
2, 8688, Note_off_c, 0, 76, 64
2, 8700, Note_on_c, 0, 74, 127
2, 8748, Note_off_c, 0, 74, 64
2, 8760, Note_on_c, 0, 76, 127
2, 8808, Note_off_c, 0, 76, 64
2, 8820, Note_on_c, 0, 77, 127
2, 8868, Note_off_c, 0, 77, 64
2, 8880, Note_on_c, 0, 76, 127
2, 8928, Note_off_c, 0, 76, 64
2, 8940, Note_on_c, 0, 79, 127
2, 8988, Note_off_c, 0, 79, 64
2, 9000, Note_on_c, 0, 78, 127
2, 9048, Note_off_c, 0, 78, 64
2, 9060, Note_on_c, 0, 81, 127
2, 9108, Note_off_c, 0, 81, 64
2, 9120, Note_on_c, 0, 74, 127
2, 9168, Note_off_c, 0, 74, 64
2, 9180, Note_on_c, 0, 72, 127
2, 9228, Note_off_c, 0, 72, 64
2, 9240, Note_on_c, 0, 74, 127
2, 9288, Note_off_c, 0, 74, 64
2, 9300, Note_on_c, 0, 76, 127
2, 9348, Note_off_c, 0, 76, 64
2, 9360, Note_on_c, 0, 74, 127
2, 9408, Note_off_c, 0, 74, 64
2, 9420, Note_on_c, 0, 79, 127
2, 9468, Note_off_c, 0, 79, 64
2, 9480, Note_on_c, 0, 78, 127
2, 9528, Note_off_c, 0, 78, 64
2, 9540, Note_on_c, 0, 79, 127
2, 9588, Note_off_c, 0, 79, 64
2, 9600, Note_on_c, 0, 69, 127
2, 9648, Note_off_c, 0, 69, 64
2, 9660, Note_on_c, 0, 71, 127
2, 9708, Note_off_c, 0, 71, 64
2, 9720, Note_on_c, 0, 69, 127
2, 9768, Note_off_c, 0, 69, 64
2, 9780, Note_on_c, 0, 71, 127
2, 9828, Note_off_c, 0, 71, 64
2, 9840, Note_on_c, 0, 72, 127
2, 9888, Note_off_c, 0, 72, 64
2, 9900, Note_on_c, 0, 74, 127
2, 9948, Note_off_c, 0, 74, 64
2, 9960, Note_on_c, 0, 72, 127
2, 10008, Note_off_c, 0, 72, 64
2, 10020, Note_on_c, 0, 74, 127
2, 10068, Note_off_c, 0, 74, 64
2, 10080, Note_on_c, 0, 71, 127
2, 10128, Note_off_c, 0, 71, 64
2, 10140, Note_on_c, 0, 72, 127
2, 10188, Note_off_c, 0, 72, 64
2, 10200, Note_on_c, 0, 71, 127
2, 10248, Note_off_c, 0, 71, 64
2, 10260, Note_on_c, 0, 69, 127
2, 10308, Note_off_c, 0, 69, 64
2, 10320, Note_on_c, 0, 67, 127
2, 10368, Note_off_c, 0, 67, 64
2, 10380, Note_on_c, 0, 71, 127
2, 10428, Note_off_c, 0, 71, 64
2, 10440, Note_on_c, 0, 76, 127
2, 10488, Note_off_c, 0, 76, 64
2, 10500, Note_on_c, 0, 74, 127
2, 10548, Note_off_c, 0, 74, 64
2, 10560, Note_on_c, 0, 73, 127
2, 10608, Note_off_c, 0, 73, 64
2, 10620, Note_on_c, 0, 71, 127
2, 10668, Note_off_c, 0, 71, 64
2, 10680, Note_on_c, 0, 69, 127
2, 10728, Note_off_c, 0, 69, 64
2, 10740, Note_on_c, 0, 67, 127
2, 10788, Note_off_c, 0, 67, 64
2, 10800, Note_on_c, 0, 66, 127
2, 11088, Note_off_c, 0, 66, 64
2, 11100, Note_on_c, 0, 66, 127
2, 11148, Note_off_c, 0, 66, 64
2, 11160, Note_on_c, 0, 67, 127
2, 11208, Note_off_c, 0, 67, 64
2, 11220, Note_on_c, 0, 69, 127
2, 11268, Note_off_c, 0, 69, 64
2, 11280, Note_on_c, 0, 71, 127
2, 11328, Note_off_c, 0, 71, 64
2, 11340, Note_on_c, 0, 72, 127
2, 11388, Note_off_c, 0, 72, 64
2, 11400, Note_on_c, 0, 71, 127
2, 11448, Note_off_c, 0, 71, 64
2, 11460, Note_on_c, 0, 69, 127
2, 11508, Note_off_c, 0, 69, 64
2, 11520, Note_on_c, 0, 67, 127
2, 12048, Note_off_c, 0, 67, 64
2, 12060, Note_on_c, 0, 64, 127
2, 12108, Note_off_c, 0, 64, 64
2, 12120, Note_on_c, 0, 66, 127
2, 12168, Note_off_c, 0, 66, 64
2, 12180, Note_on_c, 0, 67, 127
2, 12228, Note_off_c, 0, 67, 64
2, 12240, Note_on_c, 0, 69, 127
2, 12288, Note_off_c, 0, 69, 64
2, 12300, Note_on_c, 0, 71, 127
2, 12348, Note_off_c, 0, 71, 64
2, 12360, Note_on_c, 0, 69, 127
2, 12408, Note_off_c, 0, 69, 64
2, 12420, Note_on_c, 0, 67, 127
2, 12468, Note_off_c, 0, 67, 64
2, 12480, Note_on_c, 0, 66, 127
2, 12600, Note_on_c, 0, 69, 127
2, 12672, Note_off_c, 0, 66, 64
2, 12696, Note_off_c, 0, 69, 64
2, 12720, Note_on_c, 0, 69, 127
2, 12816, Note_off_c, 0, 69, 64
2, 12840, Note_on_c, 0, 64, 127
2, 12840, Note_on_c, 0, 69, 127
2, 12936, Note_off_c, 0, 69, 64
2, 12936, Note_off_c, 0, 64, 64
2, 12960, Note_on_c, 0, 66, 127
2, 12960, Note_on_c, 0, 74, 127
2, 13056, Note_off_c, 0, 74, 64
2, 13056, Note_off_c, 0, 66, 64
2, 13080, Note_on_c, 0, 74, 127
2, 13080, Note_on_c, 0, 64, 127
2, 13176, Note_off_c, 0, 64, 64
2, 13176, Note_off_c, 0, 74, 64
2, 13200, Note_on_c, 0, 64, 127
2, 13200, Note_on_c, 0, 74, 127
2, 13296, Note_off_c, 0, 74, 64
2, 13296, Note_off_c, 0, 64, 64
2, 13320, Note_on_c, 0, 64, 127
2, 13320, Note_on_c, 0, 74, 127
2, 13416, Note_off_c, 0, 74, 64
2, 13416, Note_off_c, 0, 64, 64
2, 13440, Note_on_c, 0, 64, 127
2, 13440, Note_on_c, 0, 74, 127
2, 13536, Note_off_c, 0, 74, 64
2, 13560, Note_on_c, 0, 73, 127
2, 13608, Note_off_c, 0, 73, 64
2, 13620, Note_on_c, 0, 71, 127
2, 13632, Note_off_c, 0, 64, 64
2, 13668, Note_off_c, 0, 71, 64
2, 13680, Note_on_c, 0, 73, 127
2, 13776, Note_off_c, 0, 73, 64
2, 13800, Note_on_c, 0, 69, 127
2, 13896, Note_off_c, 0, 69, 64
2, 13920, Note_on_c, 0, 78, 127
2, 14016, Note_off_c, 0, 78, 64
2, 14040, Note_on_c, 0, 69, 127
2, 14040, Note_on_c, 0, 78, 127
2, 14136, Note_off_c, 0, 78, 64
2, 14136, Note_off_c, 0, 69, 64
2, 14160, Note_on_c, 0, 74, 127
2, 14160, Note_on_c, 0, 78, 127
2, 14256, Note_off_c, 0, 78, 64
2, 14256, Note_off_c, 0, 74, 64
2, 14280, Note_on_c, 0, 72, 127
2, 14280, Note_on_c, 0, 78, 127
2, 14376, Note_off_c, 0, 78, 64
2, 14376, Note_off_c, 0, 72, 64
2, 14400, Note_on_c, 0, 71, 127
2, 14400, Note_on_c, 0, 78, 127
2, 14496, Note_off_c, 0, 78, 64
2, 14520, Note_on_c, 0, 76, 127
2, 14568, Note_off_c, 0, 76, 64
2, 14580, Note_on_c, 0, 74, 127
2, 14628, Note_off_c, 0, 74, 64
2, 14640, Note_on_c, 0, 76, 127
2, 14736, Note_off_c, 0, 76, 64
2, 14760, Note_on_c, 0, 76, 127
2, 14784, Note_off_c, 0, 71, 64
2, 14856, Note_off_c, 0, 76, 64
2, 14880, Note_on_c, 0, 76, 127
2, 14940, Note_on_c, 0, 67, 127
2, 14976, Note_off_c, 0, 76, 64
2, 14988, Note_off_c, 0, 67, 64
2, 15000, Note_on_c, 0, 66, 127
2, 15000, Note_on_c, 0, 69, 127
2, 15048, Note_off_c, 0, 66, 64
2, 15060, Note_on_c, 0, 64, 127
2, 15096, Note_off_c, 0, 69, 64
2, 15108, Note_off_c, 0, 64, 64
2, 15120, Note_on_c, 0, 62, 127
2, 15120, Note_on_c, 0, 74, 127
2, 15216, Note_off_c, 0, 62, 64
2, 15240, Note_on_c, 0, 66, 127
2, 15312, Note_off_c, 0, 74, 64
2, 15336, Note_off_c, 0, 66, 64
2, 15360, Note_on_c, 0, 74, 127
2, 15360, Note_on_c, 0, 71, 127
2, 15456, Note_off_c, 0, 71, 64
2, 15456, Note_off_c, 0, 74, 64
2, 15480, Note_on_c, 0, 67, 127
2, 15480, Note_on_c, 0, 76, 127
2, 15528, Note_off_c, 0, 76, 64
2, 15540, Note_on_c, 0, 74, 127
2, 15576, Note_off_c, 0, 67, 64
2, 15588, Note_off_c, 0, 74, 64
2, 15600, Note_on_c, 0, 64, 127
2, 15600, Note_on_c, 0, 73, 127
2, 15648, Note_off_c, 0, 73, 64
2, 15660, Note_on_c, 0, 74, 127
2, 15708, Note_off_c, 0, 74, 64
2, 15720, Note_on_c, 0, 71, 127
2, 15768, Note_off_c, 0, 71, 64
2, 15780, Note_on_c, 0, 73, 127
2, 15792, Note_off_c, 0, 64, 64
2, 15828, Note_off_c, 0, 73, 64
2, 15840, Note_on_c, 0, 62, 127
2, 15840, Note_on_c, 0, 74, 127
2, 15936, Note_off_c, 0, 74, 64
2, 15960, Note_on_c, 0, 69, 127
2, 16008, Note_off_c, 0, 69, 64
2, 16020, Note_on_c, 0, 67, 127
2, 16032, Note_off_c, 0, 62, 64
2, 16068, Note_off_c, 0, 67, 64
2, 16080, Note_on_c, 0, 69, 127
2, 16128, Note_off_c, 0, 69, 64
2, 16140, Note_on_c, 0, 72, 127
2, 16188, Note_off_c, 0, 72, 64
2, 16200, Note_on_c, 0, 71, 127
2, 16248, Note_off_c, 0, 71, 64
2, 16260, Note_on_c, 0, 74, 127
2, 16308, Note_off_c, 0, 74, 64
2, 16320, Note_on_c, 0, 72, 127
2, 16440, Note_on_c, 0, 64, 127
2, 16488, Note_off_c, 0, 64, 64
2, 16500, Note_on_c, 0, 62, 127
2, 16548, Note_off_c, 0, 62, 64
2, 16560, Note_on_c, 0, 64, 127
2, 16608, Note_off_c, 0, 64, 64
2, 16620, Note_on_c, 0, 67, 127
2, 16668, Note_off_c, 0, 67, 64
2, 16680, Note_on_c, 0, 66, 127
2, 16704, Note_off_c, 0, 72, 64
2, 16728, Note_off_c, 0, 66, 64
2, 16740, Note_on_c, 0, 69, 127
2, 16788, Note_off_c, 0, 69, 64
2, 16800, Note_on_c, 0, 67, 127
2, 16920, Note_on_c, 0, 71, 127
2, 16968, Note_off_c, 0, 71, 64
2, 16980, Note_on_c, 0, 69, 127
2, 17028, Note_off_c, 0, 69, 64
2, 17040, Note_on_c, 0, 71, 127
2, 17088, Note_off_c, 0, 71, 64
2, 17100, Note_on_c, 0, 74, 127
2, 17148, Note_off_c, 0, 74, 64
2, 17160, Note_on_c, 0, 72, 127
2, 17184, Note_off_c, 0, 67, 64
2, 17208, Note_off_c, 0, 72, 64
2, 17220, Note_on_c, 0, 76, 127
2, 17268, Note_off_c, 0, 76, 64
2, 17280, Note_on_c, 0, 74, 127
2, 17400, Note_on_c, 0, 66, 127
2, 17448, Note_off_c, 0, 66, 64
2, 17460, Note_on_c, 0, 64, 127
2, 17508, Note_off_c, 0, 64, 64
2, 17520, Note_on_c, 0, 66, 127
2, 17568, Note_off_c, 0, 66, 64
2, 17580, Note_on_c, 0, 69, 127
2, 17628, Note_off_c, 0, 69, 64
2, 17640, Note_on_c, 0, 68, 127
2, 17688, Note_off_c, 0, 68, 64
2, 17700, Note_on_c, 0, 71, 127
2, 17748, Note_off_c, 0, 71, 64
2, 17760, Note_on_c, 0, 69, 127
2, 17856, Note_off_c, 0, 74, 64
2, 17856, Note_off_c, 0, 69, 64
2, 17880, Note_on_c, 0, 72, 127
2, 17880, Note_on_c, 0, 64, 127
2, 17928, Note_off_c, 0, 72, 64
2, 17940, Note_on_c, 0, 71, 127
2, 17988, Note_off_c, 0, 71, 64
2, 18000, Note_on_c, 0, 72, 127
2, 18072, Note_off_c, 0, 64, 64
2, 18096, Note_off_c, 0, 72, 64
2, 18120, Note_on_c, 0, 60, 127
2, 18120, Note_on_c, 0, 69, 127
2, 18216, Note_off_c, 0, 69, 64
2, 18216, Note_off_c, 0, 60, 64
2, 18240, Note_on_c, 0, 77, 127
2, 18240, Note_on_c, 0, 60, 127
2, 18336, Note_off_c, 0, 77, 64
2, 18360, Note_on_c, 0, 77, 127
2, 18432, Note_off_c, 0, 60, 64
2, 18456, Note_off_c, 0, 77, 64
2, 18480, Note_on_c, 0, 77, 127
2, 18576, Note_off_c, 0, 77, 64
2, 18600, Note_on_c, 0, 59, 127
2, 18600, Note_on_c, 0, 77, 127
2, 18696, Note_off_c, 0, 77, 64
2, 18696, Note_off_c, 0, 59, 64
2, 18720, Note_on_c, 0, 59, 127
2, 18720, Note_on_c, 0, 77, 127
2, 18816, Note_off_c, 0, 77, 64
2, 18816, Note_off_c, 0, 59, 64
2, 18840, Note_on_c, 0, 76, 127
2, 18840, Note_on_c, 0, 72, 127
2, 18888, Note_off_c, 0, 72, 64
2, 18888, Note_off_c, 0, 76, 64
2, 18900, Note_on_c, 0, 74, 127
2, 18900, Note_on_c, 0, 71, 127
2, 18948, Note_off_c, 0, 71, 64
2, 18948, Note_off_c, 0, 74, 64
2, 18960, Note_on_c, 0, 69, 127
2, 18960, Note_on_c, 0, 76, 127
2, 19008, Note_off_c, 0, 69, 64
2, 19020, Note_on_c, 0, 67, 127
2, 19056, Note_off_c, 0, 76, 64
2, 19068, Note_off_c, 0, 67, 64
2, 19080, Note_on_c, 0, 76, 127
2, 19080, Note_on_c, 0, 66, 127
2, 19128, Note_off_c, 0, 66, 64
2, 19140, Note_on_c, 0, 64, 127
2, 19176, Note_off_c, 0, 76, 64
2, 19188, Note_off_c, 0, 64, 64
2, 19200, Note_on_c, 0, 66, 127
2, 19200, Note_on_c, 0, 76, 127
2, 19296, Note_off_c, 0, 76, 64
2, 19320, Note_on_c, 0, 69, 127
2, 19392, Note_off_c, 0, 66, 64
2, 19416, Note_off_c, 0, 69, 64
2, 19440, Note_on_c, 0, 68, 127
2, 19440, Note_on_c, 0, 74, 127
2, 19536, Note_off_c, 0, 74, 64
2, 19560, Note_on_c, 0, 74, 127
2, 19632, Note_off_c, 0, 68, 64
2, 19656, Note_off_c, 0, 74, 64
2, 19680, Note_on_c, 0, 74, 127
2, 19680, Note_on_c, 0, 64, 127
2, 19776, Note_off_c, 0, 74, 64
2, 19800, Note_on_c, 0, 72, 127
2, 19848, Note_off_c, 0, 72, 64
2, 19860, Note_on_c, 0, 71, 127
2, 19872, Note_off_c, 0, 64, 64
2, 19908, Note_off_c, 0, 71, 64
2, 19920, Note_on_c, 0, 72, 127
2, 19980, Note_on_c, 0, 67, 127
2, 20016, Note_off_c, 0, 72, 64
2, 20028, Note_off_c, 0, 67, 64
2, 20040, Note_on_c, 0, 69, 127
2, 20040, Note_on_c, 0, 65, 127
2, 20088, Note_off_c, 0, 65, 64
2, 20100, Note_on_c, 0, 64, 127
2, 20136, Note_off_c, 0, 69, 64
2, 20148, Note_off_c, 0, 64, 64
2, 20160, Note_on_c, 0, 62, 127
2, 20160, Note_on_c, 0, 71, 127
2, 20208, Note_off_c, 0, 62, 64
2, 20220, Note_on_c, 0, 64, 127
2, 20256, Note_off_c, 0, 71, 64
2, 20268, Note_off_c, 0, 64, 64
2, 20280, Note_on_c, 0, 73, 127
2, 20280, Note_on_c, 0, 62, 127
2, 20328, Note_off_c, 0, 62, 64
2, 20340, Note_on_c, 0, 61, 127
2, 20376, Note_off_c, 0, 73, 64
2, 20388, Note_off_c, 0, 61, 64
2, 20400, Note_on_c, 0, 59, 127
2, 20400, Note_on_c, 0, 74, 127
2, 20448, Note_off_c, 0, 59, 64
2, 20460, Note_on_c, 0, 64, 127
2, 20496, Note_off_c, 0, 74, 64
2, 20508, Note_off_c, 0, 64, 64
2, 20520, Note_on_c, 0, 62, 127
2, 20520, Note_on_c, 0, 76, 127
2, 20568, Note_off_c, 0, 62, 64
2, 20580, Note_on_c, 0, 64, 127
2, 20616, Note_off_c, 0, 76, 64
2, 20628, Note_off_c, 0, 64, 64
2, 20640, Note_on_c, 0, 57, 127
2, 20640, Note_on_c, 0, 73, 127
2, 20736, Note_off_c, 0, 73, 64
2, 20736, Note_off_c, 0, 57, 64
2, 20760, Note_on_c, 0, 69, 127
2, 20856, Note_off_c, 0, 69, 64
2, 20880, Note_on_c, 0, 81, 127
2, 20976, Note_off_c, 0, 81, 64
2, 21000, Note_on_c, 0, 81, 127
2, 21096, Note_off_c, 0, 81, 64
2, 21120, Note_on_c, 0, 81, 127
2, 21216, Note_off_c, 0, 81, 64
2, 21240, Note_on_c, 0, 79, 127
2, 21288, Note_off_c, 0, 79, 64
2, 21300, Note_on_c, 0, 78, 127
2, 21348, Note_off_c, 0, 78, 64
2, 21360, Note_on_c, 0, 79, 127
2, 21408, Note_off_c, 0, 79, 64
2, 21420, Note_on_c, 0, 78, 127
2, 21468, Note_off_c, 0, 78, 64
2, 21480, Note_on_c, 0, 76, 127
2, 21528, Note_off_c, 0, 76, 64
2, 21540, Note_on_c, 0, 79, 127
2, 21588, Note_off_c, 0, 79, 64
2, 21600, Note_on_c, 0, 78, 127
2, 21648, Note_off_c, 0, 78, 64
2, 21660, Note_on_c, 0, 76, 127
2, 21708, Note_off_c, 0, 76, 64
2, 21720, Note_on_c, 0, 74, 127
2, 21768, Note_off_c, 0, 74, 64
2, 21780, Note_on_c, 0, 78, 127
2, 21828, Note_off_c, 0, 78, 64
2, 21840, Note_on_c, 0, 76, 127
2, 21888, Note_off_c, 0, 76, 64
2, 21900, Note_on_c, 0, 79, 127
2, 21948, Note_off_c, 0, 79, 64
2, 21960, Note_on_c, 0, 78, 127
2, 22008, Note_off_c, 0, 78, 64
2, 22020, Note_on_c, 0, 81, 127
2, 22068, Note_off_c, 0, 81, 64
2, 22080, Note_on_c, 0, 79, 127
2, 22128, Note_off_c, 0, 79, 64
2, 22140, Note_on_c, 0, 76, 127
2, 22188, Note_off_c, 0, 76, 64
2, 22200, Note_on_c, 0, 78, 127
2, 22248, Note_off_c, 0, 78, 64
2, 22260, Note_on_c, 0, 79, 127
2, 22308, Note_off_c, 0, 79, 64
2, 22320, Note_on_c, 0, 81, 127
2, 22368, Note_off_c, 0, 81, 64
2, 22380, Note_on_c, 0, 79, 127
2, 22428, Note_off_c, 0, 79, 64
2, 22440, Note_on_c, 0, 78, 127
2, 22488, Note_off_c, 0, 78, 64
2, 22500, Note_on_c, 0, 76, 127
2, 22548, Note_off_c, 0, 76, 64
2, 22560, Note_on_c, 0, 74, 127
2, 22656, Note_off_c, 0, 74, 64
2, 22680, Note_on_c, 0, 79, 127
2, 22776, Note_off_c, 0, 79, 64
2, 22800, Note_on_c, 0, 79, 127
2, 22896, Note_off_c, 0, 79, 64
2, 22920, Note_on_c, 0, 79, 127
2, 23016, Note_off_c, 0, 79, 64
2, 23040, Note_on_c, 0, 79, 127
2, 23136, Note_off_c, 0, 79, 64
2, 23160, Note_on_c, 0, 77, 127
2, 23208, Note_off_c, 0, 77, 64
2, 23220, Note_on_c, 0, 76, 127
2, 23268, Note_off_c, 0, 76, 64
2, 23280, Note_on_c, 0, 77, 127
2, 23328, Note_off_c, 0, 77, 64
2, 23340, Note_on_c, 0, 76, 127
2, 23388, Note_off_c, 0, 76, 64
2, 23400, Note_on_c, 0, 74, 127
2, 23448, Note_off_c, 0, 74, 64
2, 23460, Note_on_c, 0, 77, 127
2, 23508, Note_off_c, 0, 77, 64
2, 23520, Note_on_c, 0, 76, 127
2, 23568, Note_off_c, 0, 76, 64
2, 23580, Note_on_c, 0, 77, 127
2, 23628, Note_off_c, 0, 77, 64
2, 23640, Note_on_c, 0, 76, 127
2, 23688, Note_off_c, 0, 76, 64
2, 23700, Note_on_c, 0, 74, 127
2, 23748, Note_off_c, 0, 74, 64
2, 23760, Note_on_c, 0, 72, 127
2, 23808, Note_off_c, 0, 72, 64
2, 23820, Note_on_c, 0, 71, 127
2, 23868, Note_off_c, 0, 71, 64
2, 23880, Note_on_c, 0, 69, 127
2, 23928, Note_off_c, 0, 69, 64
2, 23940, Note_on_c, 0, 67, 127
2, 23988, Note_off_c, 0, 67, 64
2, 24000, Note_on_c, 0, 66, 127
2, 24048, Note_off_c, 0, 66, 64
2, 24060, Note_on_c, 0, 64, 127
2, 24108, Note_off_c, 0, 64, 64
2, 24120, Note_on_c, 0, 66, 127
2, 24120, Note_on_c, 0, 62, 127
2, 24168, Note_off_c, 0, 66, 64
2, 24180, Note_on_c, 0, 69, 127
2, 24216, Note_off_c, 0, 62, 64
2, 24228, Note_off_c, 0, 69, 64
2, 24240, Note_on_c, 0, 74, 127
2, 24240, Note_on_c, 0, 62, 127
2, 24336, Note_off_c, 0, 62, 64
2, 24360, Note_on_c, 0, 62, 127
2, 24456, Note_off_c, 0, 62, 64
2, 24480, Note_on_c, 0, 67, 127
2, 24576, Note_off_c, 0, 67, 64
2, 24600, Note_on_c, 0, 67, 127
2, 24624, Note_off_c, 0, 74, 64
2, 24696, Note_off_c, 0, 67, 64
2, 24720, Note_on_c, 0, 73, 127
2, 24720, Note_on_c, 0, 67, 127
2, 24816, Note_off_c, 0, 67, 64
2, 24840, Note_on_c, 0, 67, 127
2, 24912, Note_off_c, 0, 73, 64
2, 24936, Note_off_c, 0, 67, 64
2, 24960, Note_on_c, 0, 67, 127
2, 24960, Note_on_c, 0, 74, 127
2, 25056, Note_off_c, 0, 74, 64
2, 25056, Note_off_c, 0, 67, 64
2, 25080, Note_on_c, 0, 66, 127
2, 25080, Note_on_c, 0, 69, 127
2, 25128, Note_off_c, 0, 66, 64
2, 25140, Note_on_c, 0, 64, 127
2, 25176, Note_off_c, 0, 69, 64
2, 25188, Note_off_c, 0, 64, 64
2, 25200, Note_on_c, 0, 66, 127
2, 25200, Note_on_c, 0, 81, 127
2, 25296, Note_off_c, 0, 66, 64
2, 25320, Note_on_c, 0, 62, 127
2, 25416, Note_off_c, 0, 62, 64
2, 25440, Note_on_c, 0, 71, 127
2, 25488, Note_off_c, 0, 81, 64
2, 25500, Note_on_c, 0, 74, 127
2, 25536, Note_off_c, 0, 71, 64
2, 25548, Note_off_c, 0, 74, 64
2, 25560, Note_on_c, 0, 76, 127
2, 25560, Note_on_c, 0, 71, 127
2, 25608, Note_off_c, 0, 76, 64
2, 25620, Note_on_c, 0, 78, 127
2, 25656, Note_off_c, 0, 71, 64
2, 25668, Note_off_c, 0, 78, 64
2, 25680, Note_on_c, 0, 79, 127
2, 25680, Note_on_c, 0, 71, 127
2, 25728, Note_off_c, 0, 79, 64
2, 25740, Note_on_c, 0, 81, 127
2, 25776, Note_off_c, 0, 71, 64
2, 25788, Note_off_c, 0, 81, 64
2, 25800, Note_on_c, 0, 78, 127
2, 25800, Note_on_c, 0, 71, 127
2, 25848, Note_off_c, 0, 78, 64
2, 25860, Note_on_c, 0, 79, 127
2, 25896, Note_off_c, 0, 71, 64
2, 25908, Note_off_c, 0, 79, 64
2, 25920, Note_on_c, 0, 71, 127
2, 25920, Note_on_c, 0, 72, 127
2, 26016, Note_off_c, 0, 71, 64
2, 26040, Note_on_c, 0, 69, 127
2, 26088, Note_off_c, 0, 69, 64
2, 26100, Note_on_c, 0, 67, 127
2, 26148, Note_off_c, 0, 67, 64
2, 26160, Note_on_c, 0, 69, 127
2, 26208, Note_off_c, 0, 72, 64
2, 26220, Note_on_c, 0, 76, 127
2, 26256, Note_off_c, 0, 69, 64
2, 26268, Note_off_c, 0, 76, 64
2, 26280, Note_on_c, 0, 69, 127
2, 26280, Note_on_c, 0, 74, 127
2, 26328, Note_off_c, 0, 74, 64
2, 26340, Note_on_c, 0, 72, 127
2, 26376, Note_off_c, 0, 69, 64
2, 26388, Note_off_c, 0, 72, 64
2, 26400, Note_on_c, 0, 71, 127
2, 26400, Note_on_c, 0, 69, 127
2, 26448, Note_off_c, 0, 71, 64
2, 26460, Note_on_c, 0, 69, 127
2, 26496, Note_off_c, 0, 69, 64
2, 26508, Note_off_c, 0, 69, 64
2, 26520, Note_on_c, 0, 62, 127
2, 26520, Note_on_c, 0, 71, 127
2, 26568, Note_off_c, 0, 71, 64
2, 26580, Note_on_c, 0, 72, 127
2, 26616, Note_off_c, 0, 62, 64
2, 26628, Note_off_c, 0, 72, 64
2, 26640, Note_on_c, 0, 71, 127
2, 26640, Note_on_c, 0, 67, 127
2, 26688, Note_off_c, 0, 71, 64
2, 26700, Note_on_c, 0, 72, 127
2, 26748, Note_off_c, 0, 72, 64
2, 26760, Note_on_c, 0, 74, 127
2, 26808, Note_off_c, 0, 74, 64
2, 26820, Note_on_c, 0, 76, 127
2, 26868, Note_off_c, 0, 76, 64
2, 26880, Note_on_c, 0, 78, 127
2, 26928, Note_off_c, 0, 78, 64
2, 26940, Note_on_c, 0, 79, 127
2, 26988, Note_off_c, 0, 79, 64
2, 27000, Note_on_c, 0, 78, 127
2, 27048, Note_off_c, 0, 78, 64
2, 27060, Note_on_c, 0, 79, 127
2, 27072, Note_off_c, 0, 67, 64
2, 27108, Note_off_c, 0, 79, 64
2, 27120, Note_on_c, 0, 66, 127
2, 27120, Note_on_c, 0, 69, 127
2, 27168, Note_off_c, 0, 69, 64
2, 27180, Note_on_c, 0, 74, 127
2, 27228, Note_off_c, 0, 74, 64
2, 27240, Note_on_c, 0, 72, 127
2, 27288, Note_off_c, 0, 72, 64
2, 27300, Note_on_c, 0, 74, 127
2, 27348, Note_off_c, 0, 74, 64
2, 27360, Note_on_c, 0, 71, 127
2, 27408, Note_off_c, 0, 66, 64
2, 27420, Note_on_c, 0, 59, 127
2, 27468, Note_off_c, 0, 59, 64
2, 27480, Note_on_c, 0, 61, 127
2, 27528, Note_off_c, 0, 61, 64
2, 27540, Note_on_c, 0, 63, 127
2, 27588, Note_off_c, 0, 63, 64
2, 27600, Note_on_c, 0, 64, 127
2, 27648, Note_off_c, 0, 71, 64
2, 27660, Note_on_c, 0, 69, 127
2, 27708, Note_off_c, 0, 69, 64
2, 27720, Note_on_c, 0, 71, 127
2, 27768, Note_off_c, 0, 71, 64
2, 27780, Note_on_c, 0, 73, 127
2, 27828, Note_off_c, 0, 73, 64
2, 27840, Note_on_c, 0, 75, 127
2, 27888, Note_off_c, 0, 75, 64
2, 27900, Note_on_c, 0, 76, 127
2, 27948, Note_off_c, 0, 76, 64
2, 27960, Note_on_c, 0, 75, 127
2, 28008, Note_off_c, 0, 75, 64
2, 28020, Note_on_c, 0, 76, 127
2, 28032, Note_off_c, 0, 64, 64
2, 28068, Note_off_c, 0, 76, 64
2, 28080, Note_on_c, 0, 63, 127
2, 28080, Note_on_c, 0, 66, 127
2, 28128, Note_off_c, 0, 66, 64
2, 28140, Note_on_c, 0, 71, 127
2, 28188, Note_off_c, 0, 71, 64
2, 28200, Note_on_c, 0, 69, 127
2, 28248, Note_off_c, 0, 69, 64
2, 28260, Note_on_c, 0, 71, 127
2, 28272, Note_off_c, 0, 63, 64
2, 28308, Note_off_c, 0, 71, 64
2, 28320, Note_on_c, 0, 67, 127
2, 28320, Note_on_c, 0, 64, 127
2, 28368, Note_off_c, 0, 64, 64
2, 28380, Note_on_c, 0, 59, 127
2, 28416, Note_off_c, 0, 67, 64
2, 28428, Note_off_c, 0, 59, 64
2, 28440, Note_on_c, 0, 83, 127
2, 28440, Note_on_c, 0, 64, 127
2, 28488, Note_off_c, 0, 64, 64
2, 28500, Note_on_c, 0, 67, 127
2, 28536, Note_off_c, 0, 83, 64
2, 28548, Note_off_c, 0, 67, 64
2, 28560, Note_on_c, 0, 71, 127
2, 28560, Note_on_c, 0, 83, 127
2, 28608, Note_off_c, 0, 71, 64
2, 28620, Note_on_c, 0, 64, 127
2, 28656, Note_off_c, 0, 83, 64
2, 28668, Note_off_c, 0, 64, 64
2, 28680, Note_on_c, 0, 67, 127
2, 28680, Note_on_c, 0, 83, 127
2, 28728, Note_off_c, 0, 67, 64
2, 28740, Note_on_c, 0, 71, 127
2, 28776, Note_off_c, 0, 83, 64
2, 28788, Note_off_c, 0, 71, 64
2, 28800, Note_on_c, 0, 72, 127
2, 28800, Note_on_c, 0, 83, 127
2, 28848, Note_off_c, 0, 72, 64
2, 28860, Note_on_c, 0, 57, 127
2, 28896, Note_off_c, 0, 83, 64
2, 28908, Note_off_c, 0, 57, 64
2, 28920, Note_on_c, 0, 83, 80
2, 28920, Note_on_c, 0, 60, 127
2, 28932, Note_off_c, 0, 83, 64
2, 28935, Note_on_c, 0, 81, 80
2, 28947, Note_off_c, 0, 81, 64
2, 28950, Note_on_c, 0, 83, 80
2, 28962, Note_off_c, 0, 83, 64
2, 28965, Note_on_c, 0, 81, 127
2, 28968, Note_off_c, 0, 60, 64
2, 28980, Note_off_c, 0, 81, 64
2, 28980, Note_on_c, 0, 64, 127
2, 28980, Note_on_c, 0, 79, 127
2, 29028, Note_off_c, 0, 79, 64
2, 29028, Note_off_c, 0, 64, 64
2, 29040, Note_on_c, 0, 69, 127
2, 29040, Note_on_c, 0, 81, 127
2, 29088, Note_off_c, 0, 69, 64
2, 29100, Note_on_c, 0, 62, 127
2, 29136, Note_off_c, 0, 81, 64
2, 29148, Note_off_c, 0, 62, 64
2, 29160, Note_on_c, 0, 81, 127
2, 29160, Note_on_c, 0, 66, 127
2, 29208, Note_off_c, 0, 66, 64
2, 29220, Note_on_c, 0, 69, 127
2, 29256, Note_off_c, 0, 81, 64
2, 29268, Note_off_c, 0, 69, 64
2, 29280, Note_on_c, 0, 71, 127
2, 29280, Note_on_c, 0, 81, 127
2, 29328, Note_off_c, 0, 71, 64
2, 29340, Note_on_c, 0, 69, 127
2, 29376, Note_off_c, 0, 81, 64
2, 29388, Note_off_c, 0, 69, 64
2, 29400, Note_on_c, 0, 67, 127
2, 29400, Note_on_c, 0, 74, 127
2, 29448, Note_off_c, 0, 67, 64
2, 29460, Note_on_c, 0, 66, 127
2, 29496, Note_off_c, 0, 74, 64
2, 29508, Note_off_c, 0, 66, 64
2, 29520, Note_on_c, 0, 64, 127
2, 29520, Note_on_c, 0, 79, 127
2, 29568, Note_off_c, 0, 64, 64
2, 29580, Note_on_c, 0, 62, 127
2, 29616, Note_off_c, 0, 79, 64
2, 29628, Note_off_c, 0, 62, 64
2, 29640, Note_on_c, 0, 79, 127
2, 29640, Note_on_c, 0, 60, 127
2, 29688, Note_off_c, 0, 60, 64
2, 29700, Note_on_c, 0, 59, 127
2, 29736, Note_off_c, 0, 79, 64
2, 29748, Note_off_c, 0, 59, 64
2, 29760, Note_on_c, 0, 79, 127
2, 29760, Note_on_c, 0, 57, 127
2, 29808, Note_off_c, 0, 57, 64
2, 29820, Note_on_c, 0, 71, 127
2, 29856, Note_off_c, 0, 79, 64
2, 29868, Note_off_c, 0, 71, 64
2, 29880, Note_on_c, 0, 69, 127
2, 29880, Note_on_c, 0, 79, 80
2, 29892, Note_off_c, 0, 79, 64
2, 29895, Note_on_c, 0, 78, 80
2, 29907, Note_off_c, 0, 78, 64
2, 29910, Note_on_c, 0, 79, 80
2, 29922, Note_off_c, 0, 79, 64
2, 29925, Note_on_c, 0, 78, 127
2, 29928, Note_off_c, 0, 69, 64
2, 29940, Note_off_c, 0, 78, 64
2, 29940, Note_on_c, 0, 67, 127
2, 29940, Note_on_c, 0, 76, 127
2, 29988, Note_off_c, 0, 76, 64
2, 29988, Note_off_c, 0, 67, 64
2, 30000, Note_on_c, 0, 78, 127
2, 30000, Note_on_c, 0, 66, 127
2, 30048, Note_off_c, 0, 66, 64
2, 30060, Note_on_c, 0, 64, 127
2, 30096, Note_off_c, 0, 78, 64
2, 30108, Note_off_c, 0, 64, 64
2, 30120, Note_on_c, 0, 63, 127
2, 30120, Note_on_c, 0, 78, 127
2, 30168, Note_off_c, 0, 63, 64
2, 30180, Note_on_c, 0, 61, 127
2, 30216, Note_off_c, 0, 78, 64
2, 30228, Note_off_c, 0, 61, 64
2, 30240, Note_on_c, 0, 59, 127
2, 30240, Note_on_c, 0, 78, 127
2, 30288, Note_off_c, 0, 78, 64
2, 30300, Note_on_c, 0, 76, 127
2, 30348, Note_off_c, 0, 76, 64
2, 30360, Note_on_c, 0, 75, 127
2, 30408, Note_off_c, 0, 75, 64
2, 30420, Note_on_c, 0, 78, 127
2, 30432, Note_off_c, 0, 59, 64
2, 30468, Note_off_c, 0, 78, 64
2, 30480, Note_on_c, 0, 76, 127
2, 30480, Note_on_c, 0, 71, 127
2, 30528, Note_off_c, 0, 76, 64
2, 30540, Note_on_c, 0, 74, 127
2, 30588, Note_off_c, 0, 74, 64
2, 30600, Note_on_c, 0, 72, 127
2, 30648, Note_off_c, 0, 72, 64
2, 30660, Note_on_c, 0, 71, 127
2, 30708, Note_off_c, 0, 71, 64
2, 30720, Note_on_c, 0, 72, 127
2, 30768, Note_off_c, 0, 71, 64
2, 30780, Note_on_c, 0, 69, 127
2, 30828, Note_off_c, 0, 69, 64
2, 30840, Note_on_c, 0, 68, 127
2, 30888, Note_off_c, 0, 68, 64
2, 30900, Note_on_c, 0, 71, 127
2, 30948, Note_off_c, 0, 71, 64
2, 30960, Note_on_c, 0, 69, 127
2, 31008, Note_off_c, 0, 69, 64
2, 31020, Note_on_c, 0, 67, 127
2, 31068, Note_off_c, 0, 67, 64
2, 31080, Note_on_c, 0, 66, 127
2, 31128, Note_off_c, 0, 66, 64
2, 31140, Note_on_c, 0, 64, 127
2, 31188, Note_off_c, 0, 64, 64
2, 31200, Note_on_c, 0, 63, 127
2, 31248, Note_off_c, 0, 72, 64
2, 31260, Note_on_c, 0, 71, 127
2, 31308, Note_off_c, 0, 71, 64
2, 31320, Note_on_c, 0, 69, 127
2, 31368, Note_off_c, 0, 69, 64
2, 31380, Note_on_c, 0, 72, 127
2, 31428, Note_off_c, 0, 72, 64
2, 31440, Note_on_c, 0, 71, 127
2, 31488, Note_off_c, 0, 71, 64
2, 31500, Note_on_c, 0, 69, 127
2, 31548, Note_off_c, 0, 69, 64
2, 31560, Note_on_c, 0, 67, 127
2, 31584, Note_off_c, 0, 63, 64
2, 31608, Note_off_c, 0, 67, 64
2, 31620, Note_on_c, 0, 66, 127
2, 31668, Note_off_c, 0, 66, 64
2, 31680, Note_on_c, 0, 64, 127
2, 31680, Note_on_c, 0, 67, 127
2, 31728, Note_off_c, 0, 67, 64
2, 31740, Note_on_c, 0, 71, 127
2, 31776, Note_off_c, 0, 64, 64
2, 31788, Note_off_c, 0, 71, 64
2, 31800, Note_on_c, 0, 59, 127
2, 31800, Note_on_c, 0, 76, 127
2, 31848, Note_off_c, 0, 59, 64
2, 31860, Note_on_c, 0, 64, 127
2, 31908, Note_off_c, 0, 64, 64
2, 31920, Note_on_c, 0, 67, 127
2, 31968, Note_off_c, 0, 76, 64
2, 31980, Note_on_c, 0, 79, 127
2, 32016, Note_off_c, 0, 67, 64
2, 32028, Note_off_c, 0, 79, 64
2, 32040, Note_on_c, 0, 84, 127
2, 32040, Note_on_c, 0, 64, 127
2, 32088, Note_off_c, 0, 64, 64
2, 32100, Note_on_c, 0, 67, 127
2, 32148, Note_off_c, 0, 67, 64
2, 32160, Note_on_c, 0, 72, 127
2, 32208, Note_off_c, 0, 84, 64
2, 32208, Note_off_c, 0, 72, 64
2, 32220, Note_on_c, 0, 79, 127
2, 32220, Note_on_c, 0, 71, 127
2, 32268, Note_off_c, 0, 71, 64
2, 32268, Note_off_c, 0, 79, 64
2, 32280, Note_on_c, 0, 69, 127
2, 32280, Note_on_c, 0, 78, 127
2, 32328, Note_off_c, 0, 78, 64
2, 32328, Note_off_c, 0, 69, 64
2, 32340, Note_on_c, 0, 76, 127
2, 32340, Note_on_c, 0, 67, 127
2, 32388, Note_off_c, 0, 67, 64
2, 32388, Note_off_c, 0, 76, 64
2, 32400, Note_on_c, 0, 66, 127
2, 32400, Note_on_c, 0, 75, 127
2, 32448, Note_off_c, 0, 66, 64
2, 32460, Note_on_c, 0, 72, 127
2, 32508, Note_off_c, 0, 72, 64
2, 32520, Note_on_c, 0, 71, 127
2, 32544, Note_off_c, 0, 75, 64
2, 32568, Note_off_c, 0, 71, 64
2, 32580, Note_on_c, 0, 69, 127
2, 32580, Note_on_c, 0, 76, 127
2, 32628, Note_off_c, 0, 76, 64
2, 32628, Note_off_c, 0, 69, 64
2, 32640, Note_on_c, 0, 76, 127
2, 32640, Note_on_c, 0, 67, 127
2, 32736, Note_off_c, 0, 67, 64
2, 32736, Note_off_c, 0, 76, 64
2, 32760, Note_on_c, 0, 66, 127
2, 32856, Note_off_c, 0, 66, 64
2, 32880, Note_on_c, 0, 67, 127
2, 32976, Note_off_c, 0, 67, 64
2, 33000, Note_on_c, 0, 69, 127
2, 33096, Note_off_c, 0, 69, 64
2, 33120, Note_on_c, 0, 71, 127
2, 33240, Note_on_c, 0, 75, 127
2, 33336, Note_off_c, 0, 75, 64
2, 33360, Note_on_c, 0, 76, 127
2, 33456, Note_off_c, 0, 76, 64
2, 33480, Note_on_c, 0, 78, 127
2, 33504, Note_off_c, 0, 71, 64
2, 33576, Note_off_c, 0, 78, 64
2, 33600, Note_on_c, 0, 71, 127
2, 33600, Note_on_c, 0, 79, 127
2, 33696, Note_off_c, 0, 79, 64
2, 33720, Note_on_c, 0, 78, 127
2, 33768, Note_off_c, 0, 78, 64
2, 33780, Note_on_c, 0, 76, 127
2, 33792, Note_off_c, 0, 71, 64
2, 33828, Note_off_c, 0, 76, 64
2, 33840, Note_on_c, 0, 78, 127
2, 33936, Note_off_c, 0, 78, 64
2, 33960, Note_on_c, 0, 74, 127
2, 33960, Note_on_c, 0, 74, 127
2, 34056, Note_off_c, 0, 74, 64
2, 34056, Note_off_c, 0, 74, 64
2, 34080, Note_on_c, 0, 74, 127
2, 34080, Note_on_c, 0, 83, 127
2, 34176, Note_off_c, 0, 83, 64
2, 34200, Note_on_c, 0, 83, 127
2, 34272, Note_off_c, 0, 74, 64
2, 34296, Note_off_c, 0, 83, 64
2, 34320, Note_on_c, 0, 83, 127
2, 34416, Note_off_c, 0, 83, 64
2, 34440, Note_on_c, 0, 83, 127
2, 34440, Note_on_c, 0, 67, 127
2, 34536, Note_off_c, 0, 67, 64
2, 34536, Note_off_c, 0, 83, 64
2, 34560, Note_on_c, 0, 74, 127
2, 34560, Note_on_c, 0, 83, 127
2, 34656, Note_off_c, 0, 83, 64
2, 34680, Note_on_c, 0, 81, 127
2, 34728, Note_off_c, 0, 81, 64
2, 34740, Note_on_c, 0, 79, 127
2, 34752, Note_off_c, 0, 74, 64
2, 34788, Note_off_c, 0, 79, 64
2, 34800, Note_on_c, 0, 81, 127
2, 34896, Note_off_c, 0, 81, 64
2, 34920, Note_on_c, 0, 71, 127
2, 34920, Note_on_c, 0, 81, 127
2, 35016, Note_off_c, 0, 81, 64
2, 35016, Note_off_c, 0, 71, 64
2, 35040, Note_on_c, 0, 71, 127
2, 35040, Note_on_c, 0, 81, 127
2, 35136, Note_off_c, 0, 81, 64
2, 35160, Note_on_c, 0, 79, 127
2, 35208, Note_off_c, 0, 79, 64
2, 35220, Note_on_c, 0, 78, 127
2, 35232, Note_off_c, 0, 71, 64
2, 35268, Note_off_c, 0, 78, 64
2, 35280, Note_on_c, 0, 79, 127
2, 35376, Note_off_c, 0, 79, 64
2, 35400, Note_on_c, 0, 76, 127
2, 35400, Note_on_c, 0, 71, 127
2, 35496, Note_off_c, 0, 71, 64
2, 35496, Note_off_c, 0, 76, 64
2, 35520, Note_on_c, 0, 84, 127
2, 35520, Note_on_c, 0, 69, 127
2, 35568, Note_off_c, 0, 84, 64
2, 35580, Note_on_c, 0, 83, 127
2, 35628, Note_off_c, 0, 83, 64
2, 35640, Note_on_c, 0, 81, 127
2, 35688, Note_off_c, 0, 81, 64
2, 35700, Note_on_c, 0, 79, 127
2, 35712, Note_off_c, 0, 69, 64
2, 35748, Note_off_c, 0, 79, 64
2, 35760, Note_on_c, 0, 78, 127
2, 35808, Note_off_c, 0, 78, 64
2, 35820, Note_on_c, 0, 83, 127
2, 35868, Note_off_c, 0, 83, 64
2, 35880, Note_on_c, 0, 81, 127
2, 35928, Note_off_c, 0, 81, 64
2, 35940, Note_on_c, 0, 83, 127
2, 35988, Note_off_c, 0, 83, 64
2, 36000, Note_on_c, 0, 79, 127
2, 36000, Note_on_c, 0, 64, 127
2, 36048, Note_off_c, 0, 64, 64
2, 36060, Note_on_c, 0, 66, 127
2, 36108, Note_off_c, 0, 66, 64
2, 36120, Note_on_c, 0, 67, 127
2, 36168, Note_off_c, 0, 67, 64
2, 36180, Note_on_c, 0, 69, 127
2, 36228, Note_off_c, 0, 69, 64
2, 36240, Note_on_c, 0, 71, 127
2, 36288, Note_off_c, 0, 71, 64
2, 36300, Note_on_c, 0, 73, 127
2, 36348, Note_off_c, 0, 73, 64
2, 36360, Note_on_c, 0, 74, 127
2, 36408, Note_off_c, 0, 74, 64
2, 36420, Note_on_c, 0, 71, 127
2, 36468, Note_off_c, 0, 71, 64
2, 36480, Note_on_c, 0, 73, 127
2, 36576, Note_off_c, 0, 73, 64
2, 36600, Note_on_c, 0, 74, 127
2, 36696, Note_off_c, 0, 74, 64
2, 36720, Note_on_c, 0, 76, 127
2, 36816, Note_off_c, 0, 76, 64
2, 36840, Note_on_c, 0, 73, 127
2, 36864, Note_off_c, 0, 79, 64
2, 36936, Note_off_c, 0, 73, 64
2, 36960, Note_on_c, 0, 78, 127
2, 36960, Note_on_c, 0, 62, 127
2, 37008, Note_off_c, 0, 62, 64
2, 37020, Note_on_c, 0, 64, 127
2, 37068, Note_off_c, 0, 64, 64
2, 37080, Note_on_c, 0, 66, 127
2, 37128, Note_off_c, 0, 66, 64
2, 37140, Note_on_c, 0, 67, 127
2, 37188, Note_off_c, 0, 67, 64
2, 37200, Note_on_c, 0, 69, 127
2, 37248, Note_off_c, 0, 69, 64
2, 37260, Note_on_c, 0, 71, 127
2, 37308, Note_off_c, 0, 71, 64
2, 37320, Note_on_c, 0, 72, 127
2, 37368, Note_off_c, 0, 72, 64
2, 37380, Note_on_c, 0, 69, 127
2, 37428, Note_off_c, 0, 69, 64
2, 37440, Note_on_c, 0, 71, 127
2, 37536, Note_off_c, 0, 71, 64
2, 37560, Note_on_c, 0, 72, 127
2, 37656, Note_off_c, 0, 72, 64
2, 37680, Note_on_c, 0, 74, 127
2, 37776, Note_off_c, 0, 74, 64
2, 37800, Note_on_c, 0, 71, 127
2, 37824, Note_off_c, 0, 78, 64
2, 37896, Note_off_c, 0, 71, 64
2, 37920, Note_on_c, 0, 76, 127
2, 37920, Note_on_c, 0, 61, 127
2, 37968, Note_off_c, 0, 61, 64
2, 37980, Note_on_c, 0, 62, 127
2, 38028, Note_off_c, 0, 62, 64
2, 38040, Note_on_c, 0, 64, 127
2, 38088, Note_off_c, 0, 64, 64
2, 38100, Note_on_c, 0, 66, 127
2, 38148, Note_off_c, 0, 66, 64
2, 38160, Note_on_c, 0, 68, 127
2, 38208, Note_off_c, 0, 68, 64
2, 38220, Note_on_c, 0, 70, 127
2, 38268, Note_off_c, 0, 70, 64
2, 38280, Note_on_c, 0, 71, 127
2, 38328, Note_off_c, 0, 71, 64
2, 38340, Note_on_c, 0, 68, 127
2, 38388, Note_off_c, 0, 68, 64
2, 38400, Note_on_c, 0, 70, 127
2, 38496, Note_off_c, 0, 70, 64
2, 38520, Note_on_c, 0, 71, 127
2, 38616, Note_off_c, 0, 71, 64
2, 38640, Note_on_c, 0, 73, 127
2, 38736, Note_off_c, 0, 73, 64
2, 38760, Note_on_c, 0, 70, 127
2, 38784, Note_off_c, 0, 76, 64
2, 38856, Note_off_c, 0, 70, 64
2, 38880, Note_on_c, 0, 74, 127
2, 38880, Note_on_c, 0, 71, 127
2, 38928, Note_off_c, 0, 71, 64
2, 38940, Note_on_c, 0, 66, 127
2, 38988, Note_off_c, 0, 66, 64
2, 39000, Note_on_c, 0, 71, 127
2, 39048, Note_off_c, 0, 71, 64
2, 39060, Note_on_c, 0, 74, 127
2, 39072, Note_off_c, 0, 74, 64
2, 39108, Note_off_c, 0, 74, 64
2, 39120, Note_on_c, 0, 68, 127
2, 39180, Note_on_c, 0, 74, 127
2, 39228, Note_off_c, 0, 74, 64
2, 39240, Note_on_c, 0, 71, 127
2, 39288, Note_off_c, 0, 71, 64
2, 39300, Note_on_c, 0, 68, 127
2, 39312, Note_off_c, 0, 68, 64
2, 39348, Note_off_c, 0, 68, 64
2, 39360, Note_on_c, 0, 72, 127
2, 39420, Note_on_c, 0, 64, 127
2, 39468, Note_off_c, 0, 64, 64
2, 39480, Note_on_c, 0, 69, 127
2, 39528, Note_off_c, 0, 69, 64
2, 39540, Note_on_c, 0, 72, 127
2, 39552, Note_off_c, 0, 72, 64
2, 39588, Note_off_c, 0, 72, 64
2, 39600, Note_on_c, 0, 66, 127
2, 39660, Note_on_c, 0, 72, 127
2, 39708, Note_off_c, 0, 72, 64
2, 39720, Note_on_c, 0, 69, 127
2, 39768, Note_off_c, 0, 69, 64
2, 39780, Note_on_c, 0, 66, 127
2, 39792, Note_off_c, 0, 66, 64
2, 39828, Note_off_c, 0, 66, 64
2, 39840, Note_on_c, 0, 71, 127
2, 39840, Note_on_c, 0, 67, 127
2, 39936, Note_off_c, 0, 67, 64
2, 39960, Note_on_c, 0, 66, 127
2, 40032, Note_off_c, 0, 71, 64
2, 40056, Note_off_c, 0, 66, 64
2, 40080, Note_on_c, 0, 76, 127
2, 40080, Note_on_c, 0, 64, 127
2, 40176, Note_off_c, 0, 76, 64
2, 40200, Note_on_c, 0, 72, 127
2, 40272, Note_off_c, 0, 64, 64
2, 40296, Note_off_c, 0, 72, 64
2, 40320, Note_on_c, 0, 66, 127
2, 40320, Note_on_c, 0, 69, 127
2, 40416, Note_off_c, 0, 66, 64
2, 40440, Note_on_c, 0, 64, 127
2, 40536, Note_off_c, 0, 64, 64
2, 40560, Note_on_c, 0, 63, 127
2, 40608, Note_off_c, 0, 69, 64
2, 40620, Note_on_c, 0, 72, 127
2, 40668, Note_off_c, 0, 72, 64
2, 40680, Note_on_c, 0, 71, 127
2, 40728, Note_off_c, 0, 71, 64
2, 40740, Note_on_c, 0, 69, 127
2, 40752, Note_off_c, 0, 63, 64
2, 40788, Note_off_c, 0, 69, 64
2, 40800, Note_on_c, 0, 67, 127
2, 40800, Note_on_c, 0, 64, 127
2, 40848, Note_off_c, 0, 67, 64
2, 40860, Note_on_c, 0, 69, 127
2, 40908, Note_off_c, 0, 69, 64
2, 40920, Note_on_c, 0, 71, 127
2, 40968, Note_off_c, 0, 71, 64
2, 40980, Note_on_c, 0, 67, 127
2, 40992, Note_off_c, 0, 64, 64
2, 41028, Note_off_c, 0, 67, 64
2, 41040, Note_on_c, 0, 64, 127
2, 41088, Note_off_c, 0, 64, 64
2, 41100, Note_on_c, 0, 71, 127
2, 41148, Note_off_c, 0, 71, 64
2, 41160, Note_on_c, 0, 67, 127
2, 41208, Note_off_c, 0, 67, 64
2, 41220, Note_on_c, 0, 64, 127
2, 41268, Note_off_c, 0, 64, 64
2, 41280, Note_on_c, 0, 62, 127
2, 41328, Note_off_c, 0, 62, 64
2, 41340, Note_on_c, 0, 71, 127
2, 41388, Note_off_c, 0, 71, 64
2, 41400, Note_on_c, 0, 68, 127
2, 41448, Note_off_c, 0, 68, 64
2, 41460, Note_on_c, 0, 62, 127
2, 41508, Note_off_c, 0, 62, 64
2, 41520, Note_on_c, 0, 71, 127
2, 41568, Note_off_c, 0, 71, 64
2, 41580, Note_on_c, 0, 65, 127
2, 41628, Note_off_c, 0, 65, 64
2, 41640, Note_on_c, 0, 64, 127
2, 41688, Note_off_c, 0, 64, 64
2, 41700, Note_on_c, 0, 62, 127
2, 41748, Note_off_c, 0, 62, 64
2, 41760, Note_on_c, 0, 60, 127
2, 41808, Note_off_c, 0, 60, 64
2, 41820, Note_on_c, 0, 62, 127
2, 41868, Note_off_c, 0, 62, 64
2, 41880, Note_on_c, 0, 64, 127
2, 41928, Note_off_c, 0, 64, 64
2, 41940, Note_on_c, 0, 60, 127
2, 41988, Note_off_c, 0, 60, 64
2, 42000, Note_on_c, 0, 57, 127
2, 42060, Note_on_c, 0, 64, 127
2, 42096, Note_off_c, 0, 57, 64
2, 42108, Note_off_c, 0, 64, 64
2, 42120, Note_on_c, 0, 69, 127
2, 42120, Note_on_c, 0, 60, 127
2, 42168, Note_off_c, 0, 60, 64
2, 42180, Note_on_c, 0, 57, 127
2, 42216, Note_off_c, 0, 69, 64
2, 42228, Note_off_c, 0, 57, 64
2, 42240, Note_on_c, 0, 73, 127
2, 42336, Note_off_c, 0, 73, 64
2, 42360, Note_on_c, 0, 76, 127
2, 42456, Note_off_c, 0, 76, 64
2, 42480, Note_on_c, 0, 73, 127
2, 42576, Note_off_c, 0, 73, 64
2, 42600, Note_on_c, 0, 69, 127
2, 42696, Note_off_c, 0, 69, 64
2, 42720, Note_on_c, 0, 74, 127
2, 42768, Note_off_c, 0, 74, 64
2, 42780, Note_on_c, 0, 76, 127
2, 42828, Note_off_c, 0, 76, 64
2, 42840, Note_on_c, 0, 78, 127
2, 42888, Note_off_c, 0, 78, 64
2, 42900, Note_on_c, 0, 74, 127
2, 42948, Note_off_c, 0, 74, 64
2, 42960, Note_on_c, 0, 81, 127
2, 43008, Note_off_c, 0, 81, 64
2, 43020, Note_on_c, 0, 78, 127
2, 43068, Note_off_c, 0, 78, 64
2, 43080, Note_on_c, 0, 74, 127
2, 43128, Note_off_c, 0, 74, 64
2, 43140, Note_on_c, 0, 69, 127
2, 43188, Note_off_c, 0, 69, 64
2, 43200, Note_on_c, 0, 75, 127
2, 43248, Note_off_c, 0, 75, 64
2, 43260, Note_on_c, 0, 72, 127
2, 43308, Note_off_c, 0, 72, 64
2, 43320, Note_on_c, 0, 69, 127
2, 43368, Note_off_c, 0, 69, 64
2, 43380, Note_on_c, 0, 66, 127
2, 43428, Note_off_c, 0, 66, 64
2, 43440, Note_on_c, 0, 78, 127
2, 43488, Note_off_c, 0, 78, 64
2, 43500, Note_on_c, 0, 72, 127
2, 43548, Note_off_c, 0, 72, 64
2, 43560, Note_on_c, 0, 71, 127
2, 43608, Note_off_c, 0, 71, 64
2, 43620, Note_on_c, 0, 69, 127
2, 43668, Note_off_c, 0, 69, 64
2, 43680, Note_on_c, 0, 67, 127
2, 43728, Note_off_c, 0, 67, 64
2, 43740, Note_on_c, 0, 74, 127
2, 43788, Note_off_c, 0, 74, 64
2, 43800, Note_on_c, 0, 71, 127
2, 43848, Note_off_c, 0, 71, 64
2, 43860, Note_on_c, 0, 67, 127
2, 43908, Note_off_c, 0, 67, 64
2, 43920, Note_on_c, 0, 76, 127
2, 43968, Note_off_c, 0, 76, 64
2, 43980, Note_on_c, 0, 71, 127
2, 44028, Note_off_c, 0, 71, 64
2, 44040, Note_on_c, 0, 69, 127
2, 44088, Note_off_c, 0, 69, 64
2, 44100, Note_on_c, 0, 67, 127
2, 44148, Note_off_c, 0, 67, 64
2, 44160, Note_on_c, 0, 66, 127
2, 44208, Note_off_c, 0, 66, 64
2, 44220, Note_on_c, 0, 73, 127
2, 44268, Note_off_c, 0, 73, 64
2, 44280, Note_on_c, 0, 69, 127
2, 44328, Note_off_c, 0, 69, 64
2, 44340, Note_on_c, 0, 66, 127
2, 44388, Note_off_c, 0, 66, 64
2, 44400, Note_on_c, 0, 74, 127
2, 44448, Note_off_c, 0, 74, 64
2, 44460, Note_on_c, 0, 69, 127
2, 44508, Note_off_c, 0, 69, 64
2, 44520, Note_on_c, 0, 67, 127
2, 44568, Note_off_c, 0, 67, 64
2, 44580, Note_on_c, 0, 66, 127
2, 44628, Note_off_c, 0, 66, 64
2, 44640, Note_on_c, 0, 64, 127
2, 44688, Note_off_c, 0, 64, 64
2, 44700, Note_on_c, 0, 71, 127
2, 44748, Note_off_c, 0, 71, 64
2, 44760, Note_on_c, 0, 67, 127
2, 44808, Note_off_c, 0, 67, 64
2, 44820, Note_on_c, 0, 64, 127
2, 44868, Note_off_c, 0, 64, 64
2, 44880, Note_on_c, 0, 73, 127
2, 44928, Note_off_c, 0, 73, 64
2, 44940, Note_on_c, 0, 67, 127
2, 44988, Note_off_c, 0, 67, 64
2, 45000, Note_on_c, 0, 66, 127
2, 45048, Note_off_c, 0, 66, 64
2, 45060, Note_on_c, 0, 64, 127
2, 45108, Note_off_c, 0, 64, 64
2, 45120, Note_on_c, 0, 62, 127
2, 45168, Note_off_c, 0, 62, 64
2, 45180, Note_on_c, 0, 69, 127
2, 45228, Note_off_c, 0, 69, 64
2, 45240, Note_on_c, 0, 66, 127
2, 45288, Note_off_c, 0, 66, 64
2, 45300, Note_on_c, 0, 62, 127
2, 45348, Note_off_c, 0, 62, 64
2, 45360, Note_on_c, 0, 74, 127
2, 45408, Note_off_c, 0, 74, 64
2, 45420, Note_on_c, 0, 69, 127
2, 45468, Note_off_c, 0, 69, 64
2, 45480, Note_on_c, 0, 67, 127
2, 45528, Note_off_c, 0, 67, 64
2, 45540, Note_on_c, 0, 66, 127
2, 45588, Note_off_c, 0, 66, 64
2, 45600, Note_on_c, 0, 64, 127
2, 45648, Note_off_c, 0, 64, 64
2, 45660, Note_on_c, 0, 71, 127
2, 45708, Note_off_c, 0, 71, 64
2, 45720, Note_on_c, 0, 67, 127
2, 45768, Note_off_c, 0, 67, 64
2, 45780, Note_on_c, 0, 64, 127
2, 45828, Note_off_c, 0, 64, 64
2, 45840, Note_on_c, 0, 76, 127
2, 45888, Note_off_c, 0, 76, 64
2, 45900, Note_on_c, 0, 71, 127
2, 45948, Note_off_c, 0, 71, 64
2, 45960, Note_on_c, 0, 69, 127
2, 46008, Note_off_c, 0, 69, 64
2, 46020, Note_on_c, 0, 67, 127
2, 46068, Note_off_c, 0, 67, 64
2, 46080, Note_on_c, 0, 66, 127
2, 46128, Note_off_c, 0, 66, 64
2, 46140, Note_on_c, 0, 73, 127
2, 46188, Note_off_c, 0, 73, 64
2, 46200, Note_on_c, 0, 69, 127
2, 46248, Note_off_c, 0, 69, 64
2, 46260, Note_on_c, 0, 66, 127
2, 46308, Note_off_c, 0, 66, 64
2, 46320, Note_on_c, 0, 78, 127
2, 46368, Note_off_c, 0, 78, 64
2, 46380, Note_on_c, 0, 72, 127
2, 46428, Note_off_c, 0, 72, 64
2, 46440, Note_on_c, 0, 71, 127
2, 46488, Note_off_c, 0, 71, 64
2, 46500, Note_on_c, 0, 69, 127
2, 46548, Note_off_c, 0, 69, 64
2, 46560, Note_on_c, 0, 67, 127
2, 46608, Note_off_c, 0, 67, 64
2, 46620, Note_on_c, 0, 74, 127
2, 46668, Note_off_c, 0, 74, 64
2, 46680, Note_on_c, 0, 71, 127
2, 46728, Note_off_c, 0, 71, 64
2, 46740, Note_on_c, 0, 67, 127
2, 46788, Note_off_c, 0, 67, 64
2, 46800, Note_on_c, 0, 79, 127
2, 46848, Note_off_c, 0, 79, 64
2, 46860, Note_on_c, 0, 78, 127
2, 46908, Note_off_c, 0, 78, 64
2, 46920, Note_on_c, 0, 76, 127
2, 46968, Note_off_c, 0, 76, 64
2, 46980, Note_on_c, 0, 74, 127
2, 47028, Note_off_c, 0, 74, 64
2, 47040, Note_on_c, 0, 73, 127
2, 47088, Note_off_c, 0, 73, 64
2, 47100, Note_on_c, 0, 76, 127
2, 47148, Note_off_c, 0, 76, 64
2, 47160, Note_on_c, 0, 73, 127
2, 47208, Note_off_c, 0, 73, 64
2, 47220, Note_on_c, 0, 69, 127
2, 47268, Note_off_c, 0, 69, 64
2, 47280, Note_on_c, 0, 81, 127
2, 47328, Note_off_c, 0, 81, 64
2, 47340, Note_on_c, 0, 76, 127
2, 47388, Note_off_c, 0, 76, 64
2, 47400, Note_on_c, 0, 73, 127
2, 47448, Note_off_c, 0, 73, 64
2, 47460, Note_on_c, 0, 69, 127
2, 47508, Note_off_c, 0, 69, 64
2, 47520, Note_on_c, 0, 74, 127
2, 47568, Note_off_c, 0, 74, 64
2, 47580, Note_on_c, 0, 78, 127
2, 47628, Note_off_c, 0, 78, 64
2, 47640, Note_on_c, 0, 74, 127
2, 47688, Note_off_c, 0, 74, 64
2, 47700, Note_on_c, 0, 69, 127
2, 47748, Note_off_c, 0, 69, 64
2, 47760, Note_on_c, 0, 81, 127
2, 47808, Note_off_c, 0, 81, 64
2, 47820, Note_on_c, 0, 78, 127
2, 47868, Note_off_c, 0, 78, 64
2, 47880, Note_on_c, 0, 74, 127
2, 47928, Note_off_c, 0, 74, 64
2, 47940, Note_on_c, 0, 69, 127
2, 47988, Note_off_c, 0, 69, 64
2, 48000, Note_on_c, 0, 76, 127
2, 48048, Note_off_c, 0, 76, 64
2, 48060, Note_on_c, 0, 79, 127
2, 48108, Note_off_c, 0, 79, 64
2, 48120, Note_on_c, 0, 76, 127
2, 48168, Note_off_c, 0, 76, 64
2, 48180, Note_on_c, 0, 73, 127
2, 48228, Note_off_c, 0, 73, 64
2, 48240, Note_on_c, 0, 81, 127
2, 48288, Note_off_c, 0, 81, 64
2, 48300, Note_on_c, 0, 76, 127
2, 48348, Note_off_c, 0, 76, 64
2, 48360, Note_on_c, 0, 73, 127
2, 48408, Note_off_c, 0, 73, 64
2, 48420, Note_on_c, 0, 69, 127
2, 48468, Note_off_c, 0, 69, 64
2, 48480, Note_on_c, 0, 78, 127
2, 48528, Note_off_c, 0, 78, 64
2, 48540, Note_on_c, 0, 81, 127
2, 48588, Note_off_c, 0, 81, 64
2, 48600, Note_on_c, 0, 78, 127
2, 48648, Note_off_c, 0, 78, 64
2, 48660, Note_on_c, 0, 74, 127
2, 48708, Note_off_c, 0, 74, 64
2, 48720, Note_on_c, 0, 79, 127
2, 48768, Note_off_c, 0, 79, 64
2, 48780, Note_on_c, 0, 76, 127
2, 48828, Note_off_c, 0, 76, 64
2, 48840, Note_on_c, 0, 73, 127
2, 48888, Note_off_c, 0, 73, 64
2, 48900, Note_on_c, 0, 69, 127
2, 48948, Note_off_c, 0, 69, 64
2, 48960, Note_on_c, 0, 78, 127
2, 49008, Note_off_c, 0, 78, 64
2, 49020, Note_on_c, 0, 74, 127
2, 49068, Note_off_c, 0, 74, 64
2, 49080, Note_on_c, 0, 71, 127
2, 49128, Note_off_c, 0, 71, 64
2, 49140, Note_on_c, 0, 69, 127
2, 49188, Note_off_c, 0, 69, 64
2, 49200, Note_on_c, 0, 67, 127
2, 49248, Note_off_c, 0, 67, 64
2, 49260, Note_on_c, 0, 76, 127
2, 49308, Note_off_c, 0, 76, 64
2, 49320, Note_on_c, 0, 73, 127
2, 49368, Note_off_c, 0, 73, 64
2, 49380, Note_on_c, 0, 67, 127
2, 49428, Note_off_c, 0, 67, 64
2, 49440, Note_on_c, 0, 66, 127
2, 49488, Note_off_c, 0, 66, 64
2, 49500, Note_on_c, 0, 69, 127
2, 49548, Note_off_c, 0, 69, 64
2, 49560, Note_on_c, 0, 74, 127
2, 49608, Note_off_c, 0, 74, 64
2, 49620, Note_on_c, 0, 66, 127
2, 49668, Note_off_c, 0, 66, 64
2, 49680, Note_on_c, 0, 64, 127
2, 49728, Note_off_c, 0, 64, 64
2, 49740, Note_on_c, 0, 74, 127
2, 49788, Note_off_c, 0, 74, 64
2, 49800, Note_on_c, 0, 67, 127
2, 49800, Note_on_c, 0, 67, 127
2, 49848, Note_off_c, 0, 67, 64
2, 49860, Note_on_c, 0, 73, 127
2, 49908, Note_off_c, 0, 73, 64
2, 49920, Note_on_c, 0, 74, 127
2, 49968, Note_off_c, 0, 67, 64
2, 49980, Note_on_c, 0, 67, 127
2, 50028, Note_off_c, 0, 67, 64
2, 50040, Note_on_c, 0, 66, 127
2, 50088, Note_off_c, 0, 66, 64
2, 50100, Note_on_c, 0, 64, 127
2, 50112, Note_off_c, 0, 74, 64
2, 50148, Note_off_c, 0, 64, 64
2, 50160, Note_on_c, 0, 66, 127
2, 50208, Note_off_c, 0, 66, 64
2, 50220, Note_on_c, 0, 69, 127
2, 50268, Note_off_c, 0, 69, 64
2, 50280, Note_on_c, 0, 67, 127
2, 50328, Note_off_c, 0, 67, 64
2, 50340, Note_on_c, 0, 66, 127
2, 50388, Note_off_c, 0, 66, 64
2, 50400, Note_on_c, 0, 64, 127
2, 50496, Note_off_c, 0, 64, 64
2, 50640, Note_on_c, 0, 76, 127
2, 50937, Note_off_c, 0, 76, 64
2, 50940, Note_on_c, 0, 69, 127
2, 50988, Note_off_c, 0, 69, 64
2, 51000, Note_on_c, 0, 71, 127
2, 51048, Note_off_c, 0, 71, 64
2, 51060, Note_on_c, 0, 73, 127
2, 51108, Note_off_c, 0, 73, 64
2, 51120, Note_on_c, 0, 74, 127
2, 51168, Note_off_c, 0, 74, 64
2, 51180, Note_on_c, 0, 76, 127
2, 51228, Note_off_c, 0, 76, 64
2, 51240, Note_on_c, 0, 73, 127
2, 51288, Note_off_c, 0, 73, 64
2, 51300, Note_on_c, 0, 74, 127
2, 51348, Note_off_c, 0, 74, 64
2, 51360, Note_on_c, 0, 67, 127
2, 51648, Note_off_c, 0, 67, 64
2, 51660, Note_on_c, 0, 71, 127
2, 51708, Note_off_c, 0, 71, 64
2, 51720, Note_on_c, 0, 69, 127
2, 51768, Note_off_c, 0, 69, 64
2, 51780, Note_on_c, 0, 67, 127
2, 51828, Note_off_c, 0, 67, 64
2, 51840, Note_on_c, 0, 66, 127
2, 52128, Note_off_c, 0, 66, 64
2, 52140, Note_on_c, 0, 67, 127
2, 52188, Note_off_c, 0, 67, 64
2, 52200, Note_on_c, 0, 69, 127
2, 52248, Note_off_c, 0, 69, 64
2, 52260, Note_on_c, 0, 71, 127
2, 52308, Note_off_c, 0, 71, 64
2, 52320, Note_on_c, 0, 73, 127
2, 52368, Note_off_c, 0, 73, 64
2, 52380, Note_on_c, 0, 74, 127
2, 52428, Note_off_c, 0, 74, 64
2, 52440, Note_on_c, 0, 73, 127
2, 52488, Note_off_c, 0, 73, 64
2, 52500, Note_on_c, 0, 74, 127
2, 52548, Note_off_c, 0, 74, 64
2, 52560, Note_on_c, 0, 64, 127
2, 52656, Note_off_c, 0, 64, 64
2, 52680, Note_on_c, 0, 69, 127
2, 52776, Note_off_c, 0, 69, 64
2, 52800, Note_on_c, 0, 66, 127
2, 52848, Note_off_c, 0, 66, 64
2, 52860, Note_on_c, 0, 64, 127
2, 52908, Note_off_c, 0, 64, 64
2, 52920, Note_on_c, 0, 66, 127
2, 52968, Note_off_c, 0, 66, 64
2, 52980, Note_on_c, 0, 69, 127
2, 53028, Note_off_c, 0, 69, 64
2, 53040, Note_on_c, 0, 74, 127
2, 53136, Note_off_c, 0, 74, 64
2, 53160, Note_on_c, 0, 74, 127
2, 53256, Note_off_c, 0, 74, 64
2, 53280, Note_on_c, 0, 74, 127
2, 53376, Note_off_c, 0, 74, 64
2, 53400, Note_on_c, 0, 72, 127
2, 53448, Note_off_c, 0, 72, 64
2, 53460, Note_on_c, 0, 71, 127
2, 53508, Note_off_c, 0, 71, 64
2, 53520, Note_on_c, 0, 72, 127
2, 53568, Note_off_c, 0, 72, 64
2, 53580, Note_on_c, 0, 71, 127
2, 53628, Note_off_c, 0, 71, 64
2, 53640, Note_on_c, 0, 69, 127
2, 53688, Note_off_c, 0, 69, 64
2, 53700, Note_on_c, 0, 72, 127
2, 53748, Note_off_c, 0, 72, 64
2, 53760, Note_on_c, 0, 71, 127
2, 53808, Note_off_c, 0, 71, 64
2, 53820, Note_on_c, 0, 69, 127
2, 53868, Note_off_c, 0, 69, 64
2, 53880, Note_on_c, 0, 67, 127
2, 53928, Note_off_c, 0, 67, 64
2, 53940, Note_on_c, 0, 71, 127
2, 53988, Note_off_c, 0, 71, 64
2, 54000, Note_on_c, 0, 69, 127
2, 54048, Note_off_c, 0, 69, 64
2, 54060, Note_on_c, 0, 72, 127
2, 54108, Note_off_c, 0, 72, 64
2, 54120, Note_on_c, 0, 71, 127
2, 54168, Note_off_c, 0, 71, 64
2, 54180, Note_on_c, 0, 74, 127
2, 54228, Note_off_c, 0, 74, 64
2, 54240, Note_on_c, 0, 72, 127
2, 54288, Note_off_c, 0, 72, 64
2, 54300, Note_on_c, 0, 69, 127
2, 54348, Note_off_c, 0, 69, 64
2, 54360, Note_on_c, 0, 71, 127
2, 54408, Note_off_c, 0, 71, 64
2, 54420, Note_on_c, 0, 72, 127
2, 54468, Note_off_c, 0, 72, 64
2, 54480, Note_on_c, 0, 74, 127
2, 54528, Note_off_c, 0, 74, 64
2, 54540, Note_on_c, 0, 72, 127
2, 54588, Note_off_c, 0, 72, 64
2, 54600, Note_on_c, 0, 71, 127
2, 54648, Note_off_c, 0, 71, 64
2, 54660, Note_on_c, 0, 69, 127
2, 54708, Note_off_c, 0, 69, 64
2, 54720, Note_on_c, 0, 67, 127
2, 54816, Note_off_c, 0, 67, 64
2, 54840, Note_on_c, 0, 72, 127
2, 54936, Note_off_c, 0, 72, 64
2, 54960, Note_on_c, 0, 72, 127
2, 55056, Note_off_c, 0, 72, 64
2, 55080, Note_on_c, 0, 72, 127
2, 55176, Note_off_c, 0, 72, 64
2, 55200, Note_on_c, 0, 72, 127
2, 55296, Note_off_c, 0, 72, 64
2, 55320, Note_on_c, 0, 70, 127
2, 55368, Note_off_c, 0, 70, 64
2, 55380, Note_on_c, 0, 69, 127
2, 55428, Note_off_c, 0, 69, 64
2, 55440, Note_on_c, 0, 70, 127
2, 55488, Note_off_c, 0, 70, 64
2, 55500, Note_on_c, 0, 69, 127
2, 55548, Note_off_c, 0, 69, 64
2, 55560, Note_on_c, 0, 67, 127
2, 55608, Note_off_c, 0, 67, 64
2, 55620, Note_on_c, 0, 70, 127
2, 55668, Note_off_c, 0, 70, 64
2, 55680, Note_on_c, 0, 69, 127
2, 55728, Note_off_c, 0, 69, 64
2, 55740, Note_on_c, 0, 68, 127
2, 55788, Note_off_c, 0, 68, 64
2, 55800, Note_on_c, 0, 69, 127
2, 55848, Note_off_c, 0, 69, 64
2, 55860, Note_on_c, 0, 71, 127
2, 55908, Note_off_c, 0, 71, 64
2, 55920, Note_on_c, 0, 69, 127
2, 55968, Note_off_c, 0, 69, 64
2, 55980, Note_on_c, 0, 72, 127
2, 56028, Note_off_c, 0, 72, 64
2, 56040, Note_on_c, 0, 71, 127
2, 56088, Note_off_c, 0, 71, 64
2, 56100, Note_on_c, 0, 69, 127
2, 56148, Note_off_c, 0, 69, 64
2, 56160, Note_on_c, 0, 68, 127
2, 56208, Note_off_c, 0, 68, 64
2, 56220, Note_on_c, 0, 71, 127
2, 56268, Note_off_c, 0, 71, 64
2, 56280, Note_on_c, 0, 76, 127
2, 56280, Note_on_c, 0, 64, 127
2, 56328, Note_off_c, 0, 64, 64
2, 56340, Note_on_c, 0, 68, 127
2, 56376, Note_off_c, 0, 76, 64
2, 56388, Note_off_c, 0, 68, 64
2, 56400, Note_on_c, 0, 69, 127
2, 56400, Note_on_c, 0, 76, 127
2, 56448, Note_off_c, 0, 69, 64
2, 56460, Note_on_c, 0, 72, 127
2, 56496, Note_off_c, 0, 76, 64
2, 56508, Note_off_c, 0, 72, 64
2, 56520, Note_on_c, 0, 68, 127
2, 56520, Note_on_c, 0, 76, 127
2, 56568, Note_off_c, 0, 68, 64
2, 56580, Note_on_c, 0, 71, 127
2, 56616, Note_off_c, 0, 76, 64
2, 56628, Note_off_c, 0, 71, 64
2, 56640, Note_on_c, 0, 81, 127
2, 56640, Note_on_c, 0, 72, 127
2, 56688, Note_off_c, 0, 72, 64
2, 56700, Note_on_c, 0, 76, 127
2, 56736, Note_off_c, 0, 81, 64
2, 56748, Note_off_c, 0, 76, 64
2, 56760, Note_on_c, 0, 81, 127
2, 56760, Note_on_c, 0, 69, 127
2, 56856, Note_off_c, 0, 81, 64
2, 56880, Note_on_c, 0, 81, 127
2, 56928, Note_off_c, 0, 69, 64
2, 56940, Note_on_c, 0, 76, 127
2, 56976, Note_off_c, 0, 81, 64
2, 56988, Note_off_c, 0, 76, 64
2, 57000, Note_on_c, 0, 74, 127
2, 57000, Note_on_c, 0, 81, 127
2, 57048, Note_off_c, 0, 74, 64
2, 57060, Note_on_c, 0, 77, 127
2, 57096, Note_off_c, 0, 81, 64
2, 57108, Note_off_c, 0, 77, 64
2, 57120, Note_on_c, 0, 81, 127
2, 57120, Note_on_c, 0, 71, 127
2, 57216, Note_off_c, 0, 81, 64
2, 57240, Note_on_c, 0, 80, 127
2, 57288, Note_off_c, 0, 80, 64
2, 57300, Note_on_c, 0, 78, 127
2, 57312, Note_off_c, 0, 71, 64
2, 57348, Note_off_c, 0, 78, 64
2, 57360, Note_on_c, 0, 80, 127
2, 57456, Note_off_c, 0, 80, 64
2, 57480, Note_on_c, 0, 76, 127
2, 57576, Note_off_c, 0, 76, 64
2, 57600, Note_on_c, 0, 84, 127
2, 57696, Note_off_c, 0, 84, 64
2, 57720, Note_on_c, 0, 84, 127
2, 57816, Note_off_c, 0, 84, 64
2, 57840, Note_on_c, 0, 84, 127
2, 57900, Note_on_c, 0, 72, 127
2, 57936, Note_off_c, 0, 84, 64
2, 57948, Note_off_c, 0, 72, 64
2, 57960, Note_on_c, 0, 76, 127
2, 57960, Note_on_c, 0, 84, 127
2, 58008, Note_off_c, 0, 76, 64
2, 58020, Note_on_c, 0, 72, 127
2, 58056, Note_off_c, 0, 84, 64
2, 58068, Note_off_c, 0, 72, 64
2, 58080, Note_on_c, 0, 84, 127
2, 58080, Note_on_c, 0, 77, 127
2, 58176, Note_off_c, 0, 84, 64
2, 58200, Note_on_c, 0, 83, 127
2, 58248, Note_off_c, 0, 83, 64
2, 58260, Note_on_c, 0, 81, 127
2, 58272, Note_off_c, 0, 77, 64
2, 58308, Note_off_c, 0, 81, 64
2, 58320, Note_on_c, 0, 83, 127
2, 58380, Note_on_c, 0, 74, 127
2, 58416, Note_off_c, 0, 83, 64
2, 58428, Note_off_c, 0, 74, 64
2, 58440, Note_on_c, 0, 71, 127
2, 58440, Note_on_c, 0, 83, 127
2, 58488, Note_off_c, 0, 71, 64
2, 58500, Note_on_c, 0, 74, 127
2, 58536, Note_off_c, 0, 83, 64
2, 58548, Note_off_c, 0, 74, 64
2, 58560, Note_on_c, 0, 68, 127
2, 58560, Note_on_c, 0, 83, 127
2, 58656, Note_off_c, 0, 83, 64
2, 58680, Note_on_c, 0, 76, 127
2, 58752, Note_off_c, 0, 68, 64
2, 58776, Note_off_c, 0, 76, 64
2, 58800, Note_on_c, 0, 81, 127
2, 58860, Note_on_c, 0, 76, 127
2, 58908, Note_off_c, 0, 76, 64
2, 58920, Note_on_c, 0, 72, 127
2, 58968, Note_off_c, 0, 72, 64
2, 58980, Note_on_c, 0, 76, 127
2, 59028, Note_off_c, 0, 76, 64
2, 59040, Note_on_c, 0, 69, 127
2, 59136, Note_off_c, 0, 69, 64
2, 59136, Note_off_c, 0, 81, 64
2, 59160, Note_on_c, 0, 83, 127
2, 59160, Note_on_c, 0, 74, 127
2, 59208, Note_off_c, 0, 83, 64
2, 59220, Note_on_c, 0, 81, 127
2, 59268, Note_off_c, 0, 81, 64
2, 59280, Note_on_c, 0, 80, 127
2, 59328, Note_off_c, 0, 80, 64
2, 59328, Note_off_c, 0, 74, 64
2, 59340, Note_on_c, 0, 72, 127
2, 59340, Note_on_c, 0, 81, 127
2, 59388, Note_off_c, 0, 81, 64
2, 59388, Note_off_c, 0, 72, 64
2, 59400, Note_on_c, 0, 74, 127
2, 59400, Note_on_c, 0, 78, 127
2, 59448, Note_off_c, 0, 78, 64
2, 59448, Note_off_c, 0, 74, 64
2, 59460, Note_on_c, 0, 80, 127
2, 59460, Note_on_c, 0, 71, 127
2, 59508, Note_off_c, 0, 71, 64
2, 59508, Note_off_c, 0, 80, 64
2, 59520, Note_on_c, 0, 81, 127
2, 59520, Note_on_c, 0, 72, 127
2, 59712, Note_off_c, 0, 72, 64
2, 59712, Note_off_c, 0, 81, 64
2, 60600, Note_on_c, 0, 69, 127
2, 60696, Note_off_c, 0, 69, 64
2, 60720, Note_on_c, 0, 74, 127
2, 60816, Note_off_c, 0, 74, 64
2, 60840, Note_on_c, 0, 74, 127
2, 60936, Note_off_c, 0, 74, 64
2, 60960, Note_on_c, 0, 74, 127
2, 61056, Note_off_c, 0, 74, 64
2, 61080, Note_on_c, 0, 72, 127
2, 61128, Note_off_c, 0, 72, 64
2, 61140, Note_on_c, 0, 71, 127
2, 61188, Note_off_c, 0, 71, 64
2, 61200, Note_on_c, 0, 72, 127
2, 61296, Note_off_c, 0, 72, 64
2, 61320, Note_on_c, 0, 72, 127
2, 61416, Note_off_c, 0, 72, 64
2, 61440, Note_on_c, 0, 72, 127
2, 61536, Note_off_c, 0, 72, 64
2, 61560, Note_on_c, 0, 71, 127
2, 61560, Note_on_c, 0, 74, 127
2, 61608, Note_off_c, 0, 71, 64
2, 61620, Note_on_c, 0, 69, 127
2, 61656, Note_off_c, 0, 74, 64
2, 61668, Note_off_c, 0, 69, 64
2, 61680, Note_on_c, 0, 79, 127
2, 61680, Note_on_c, 0, 71, 127
2, 61776, Note_off_c, 0, 71, 64
2, 61776, Note_off_c, 0, 79, 64
2, 61800, Note_on_c, 0, 76, 127
2, 61800, Note_on_c, 0, 79, 127
2, 61896, Note_off_c, 0, 79, 64
2, 61896, Note_off_c, 0, 76, 64
2, 61920, Note_on_c, 0, 72, 127
2, 61920, Note_on_c, 0, 79, 127
2, 62016, Note_off_c, 0, 79, 64
2, 62016, Note_off_c, 0, 72, 64
2, 62040, Note_on_c, 0, 77, 127
2, 62040, Note_on_c, 0, 69, 127
2, 62088, Note_off_c, 0, 77, 64
2, 62100, Note_on_c, 0, 76, 127
2, 62136, Note_off_c, 0, 69, 64
2, 62148, Note_off_c, 0, 76, 64
2, 62160, Note_on_c, 0, 77, 127
2, 62160, Note_on_c, 0, 74, 127
2, 62256, Note_off_c, 0, 74, 64
2, 62256, Note_off_c, 0, 77, 64
2, 62280, Note_on_c, 0, 71, 127
2, 62280, Note_on_c, 0, 77, 127
2, 62376, Note_off_c, 0, 77, 64
2, 62376, Note_off_c, 0, 71, 64
2, 62400, Note_on_c, 0, 67, 127
2, 62400, Note_on_c, 0, 77, 127
2, 62496, Note_off_c, 0, 77, 64
2, 62520, Note_on_c, 0, 76, 127
2, 62568, Note_off_c, 0, 76, 64
2, 62580, Note_on_c, 0, 74, 127
2, 62628, Note_off_c, 0, 74, 64
2, 62640, Note_on_c, 0, 76, 127
2, 62688, Note_off_c, 0, 76, 64
2, 62700, Note_on_c, 0, 79, 127
2, 62748, Note_off_c, 0, 79, 64
2, 62760, Note_on_c, 0, 77, 127
2, 62808, Note_off_c, 0, 77, 64
2, 62820, Note_on_c, 0, 76, 127
2, 62868, Note_off_c, 0, 76, 64
2, 62880, Note_on_c, 0, 74, 127
2, 62928, Note_off_c, 0, 74, 64
2, 62940, Note_on_c, 0, 72, 127
2, 62988, Note_off_c, 0, 72, 64
2, 63000, Note_on_c, 0, 74, 127
2, 63048, Note_off_c, 0, 74, 64
2, 63060, Note_on_c, 0, 76, 127
2, 63108, Note_off_c, 0, 76, 64
2, 63120, Note_on_c, 0, 74, 127
2, 63168, Note_off_c, 0, 74, 64
2, 63168, Note_off_c, 0, 67, 64
2, 63180, Note_on_c, 0, 77, 127
2, 63228, Note_off_c, 0, 77, 64
2, 63240, Note_on_c, 0, 76, 127
2, 63288, Note_off_c, 0, 76, 64
2, 63300, Note_on_c, 0, 74, 127
2, 63348, Note_off_c, 0, 74, 64
2, 63360, Note_on_c, 0, 73, 127
2, 63456, Note_off_c, 0, 73, 64
2, 63480, Note_on_c, 0, 69, 127
2, 63576, Note_off_c, 0, 69, 64
2, 63600, Note_on_c, 0, 81, 127
2, 63936, Note_off_c, 0, 81, 64
2, 63960, Note_on_c, 0, 79, 127
2, 64008, Note_off_c, 0, 79, 64
2, 64020, Note_on_c, 0, 78, 127
2, 64068, Note_off_c, 0, 78, 64
2, 64080, Note_on_c, 0, 79, 127
2, 64176, Note_off_c, 0, 79, 64
2, 64200, Note_on_c, 0, 74, 127
2, 64296, Note_off_c, 0, 74, 64
2, 64320, Note_on_c, 0, 75, 127
2, 64380, Note_on_c, 0, 67, 127
2, 64428, Note_off_c, 0, 67, 64
2, 64440, Note_on_c, 0, 69, 127
2, 64488, Note_off_c, 0, 69, 64
2, 64500, Note_on_c, 0, 70, 127
2, 64548, Note_off_c, 0, 70, 64
2, 64560, Note_on_c, 0, 72, 127
2, 64608, Note_off_c, 0, 72, 64
2, 64620, Note_on_c, 0, 69, 127
2, 64656, Note_off_c, 0, 75, 64
2, 64668, Note_off_c, 0, 69, 64
2, 64680, Note_on_c, 0, 74, 127
2, 64680, Note_on_c, 0, 70, 127
2, 64728, Note_off_c, 0, 70, 64
2, 64728, Note_off_c, 0, 74, 64
2, 64740, Note_on_c, 0, 67, 127
2, 64740, Note_on_c, 0, 72, 127
2, 64788, Note_off_c, 0, 72, 64
2, 64788, Note_off_c, 0, 67, 64
2, 64800, Note_on_c, 0, 74, 127
2, 64800, Note_on_c, 0, 66, 127
2, 64992, Note_off_c, 0, 66, 64
2, 65040, Note_on_c, 0, 67, 127
2, 65088, Note_off_c, 0, 74, 64
2, 65100, Note_on_c, 0, 77, 127
2, 65148, Note_off_c, 0, 77, 64
2, 65160, Note_on_c, 0, 75, 127
2, 65208, Note_off_c, 0, 75, 64
2, 65220, Note_on_c, 0, 74, 127
2, 65232, Note_off_c, 0, 67, 64
2, 65268, Note_off_c, 0, 74, 64
2, 65280, Note_on_c, 0, 72, 127
2, 65280, Note_on_c, 0, 69, 127
2, 65328, Note_off_c, 0, 72, 64
2, 65340, Note_on_c, 0, 71, 127
2, 65388, Note_off_c, 0, 71, 64
2, 65400, Note_on_c, 0, 72, 127
2, 65448, Note_off_c, 0, 72, 64
2, 65460, Note_on_c, 0, 74, 127
2, 65508, Note_off_c, 0, 74, 64
2, 65520, Note_on_c, 0, 72, 127
2, 65568, Note_off_c, 0, 72, 64
2, 65580, Note_on_c, 0, 75, 127
2, 65628, Note_off_c, 0, 75, 64
2, 65640, Note_on_c, 0, 74, 127
2, 65664, Note_off_c, 0, 69, 64
2, 65688, Note_off_c, 0, 74, 64
2, 65700, Note_on_c, 0, 72, 127
2, 65748, Note_off_c, 0, 72, 64
2, 65760, Note_on_c, 0, 67, 127
2, 65760, Note_on_c, 0, 71, 127
2, 65808, Note_off_c, 0, 71, 64
2, 65820, Note_on_c, 0, 69, 127
2, 65856, Note_off_c, 0, 67, 64
2, 65868, Note_off_c, 0, 69, 64
2, 65880, Note_on_c, 0, 67, 127
2, 65880, Note_on_c, 0, 67, 127
2, 65928, Note_off_c, 0, 67, 64
2, 65940, Note_on_c, 0, 74, 127
2, 65976, Note_off_c, 0, 67, 64
2, 66000, Note_on_c, 0, 65, 127
2, 66048, Note_off_c, 0, 65, 64
2, 66060, Note_on_c, 0, 68, 127
2, 66108, Note_off_c, 0, 68, 64
2, 66120, Note_on_c, 0, 67, 127
2, 66168, Note_off_c, 0, 67, 64
2, 66180, Note_on_c, 0, 65, 127
2, 66228, Note_off_c, 0, 65, 64
2, 66240, Note_on_c, 0, 63, 127
2, 66288, Note_off_c, 0, 74, 64
2, 66300, Note_on_c, 0, 72, 127
2, 66324, Note_off_c, 0, 72, 64
2, 66330, Note_on_c, 0, 70, 127
2, 66354, Note_off_c, 0, 70, 64
2, 66360, Note_on_c, 0, 68, 127
2, 66408, Note_off_c, 0, 68, 64
2, 66420, Note_on_c, 0, 72, 127
2, 66480, Note_on_c, 0, 67, 127
2, 66528, Note_off_c, 0, 67, 64
2, 66540, Note_on_c, 0, 70, 127
2, 66588, Note_off_c, 0, 70, 64
2, 66600, Note_on_c, 0, 68, 127
2, 66648, Note_off_c, 0, 68, 64
2, 66660, Note_on_c, 0, 67, 127
2, 66708, Note_off_c, 0, 67, 64
2, 66768, Note_off_c, 0, 63, 64
2, 66780, Note_on_c, 0, 62, 127
2, 66828, Note_off_c, 0, 62, 64
2, 66840, Note_on_c, 0, 60, 127
2, 66864, Note_off_c, 0, 72, 64
2, 66888, Note_off_c, 0, 60, 64
2, 66900, Note_on_c, 0, 63, 127
2, 66948, Note_off_c, 0, 63, 64
2, 67080, Note_on_c, 0, 66, 127
2, 67080, Note_on_c, 0, 62, 127
2, 67080, Note_on_c, 0, 72, 127
2, 67176, Note_off_c, 0, 72, 64
2, 67176, Note_off_c, 0, 62, 64
2, 67176, Note_off_c, 0, 66, 64
2, 67200, Note_on_c, 0, 62, 127
2, 67200, Note_on_c, 0, 70, 127
2, 67200, Note_on_c, 0, 67, 127
2, 67392, Note_off_c, 0, 67, 64
2, 67392, Note_off_c, 0, 70, 64
2, 67392, Note_off_c, 0, 62, 64
2, 67560, Note_on_c, 0, 67, 127
2, 67560, Note_on_c, 0, 62, 127
2, 67560, Note_on_c, 0, 70, 127
2, 67656, Note_off_c, 0, 70, 64
2, 67656, Note_off_c, 0, 62, 64
2, 67656, Note_off_c, 0, 67, 64
2, 67680, Note_on_c, 0, 64, 127
2, 67680, Note_on_c, 0, 70, 127
2, 67680, Note_on_c, 0, 67, 127
2, 67872, Note_off_c, 0, 67, 64
2, 67872, Note_off_c, 0, 70, 64
2, 67872, Note_off_c, 0, 64, 64
2, 67980, Note_on_c, 0, 69, 127
2, 68028, Note_off_c, 0, 69, 64
2, 68040, Note_on_c, 0, 70, 127
2, 68088, Note_off_c, 0, 70, 64
2, 68100, Note_on_c, 0, 67, 127
2, 68148, Note_off_c, 0, 67, 64
2, 68160, Note_on_c, 0, 66, 127
2, 68160, Note_on_c, 0, 62, 127
2, 68256, Note_off_c, 0, 62, 64
2, 68256, Note_off_c, 0, 66, 64
2, 68280, Note_on_c, 0, 69, 127
2, 68328, Note_off_c, 0, 69, 64
2, 68340, Note_on_c, 0, 67, 127
2, 68388, Note_off_c, 0, 67, 64
2, 68400, Note_on_c, 0, 66, 127
2, 68448, Note_off_c, 0, 66, 64
2, 68460, Note_on_c, 0, 64, 127
2, 68508, Note_off_c, 0, 64, 64
2, 68520, Note_on_c, 0, 62, 127
2, 68568, Note_off_c, 0, 62, 64
2, 68580, Note_on_c, 0, 60, 127
2, 68628, Note_off_c, 0, 60, 64
2, 68760, Note_on_c, 0, 62, 127
2, 68856, Note_off_c, 0, 62, 64
2, 68880, Note_on_c, 0, 62, 127
2, 68976, Note_off_c, 0, 62, 64
2, 69000, Note_on_c, 0, 62, 127
2, 69096, Note_off_c, 0, 62, 64
2, 69120, Note_on_c, 0, 69, 127
2, 69216, Note_off_c, 0, 69, 64
2, 69240, Note_on_c, 0, 69, 127
2, 69336, Note_off_c, 0, 69, 64
2, 69360, Note_on_c, 0, 69, 127
2, 69456, Note_off_c, 0, 69, 64
2, 69480, Note_on_c, 0, 69, 127
2, 69576, Note_off_c, 0, 69, 64
2, 69600, Note_on_c, 0, 69, 127
2, 69696, Note_off_c, 0, 69, 64
2, 69720, Note_on_c, 0, 67, 127
2, 69768, Note_off_c, 0, 67, 64
2, 69780, Note_on_c, 0, 66, 127
2, 69828, Note_off_c, 0, 66, 64
2, 69840, Note_on_c, 0, 67, 127
2, 69936, Note_off_c, 0, 67, 64
2, 69960, Note_on_c, 0, 64, 127
2, 70056, Note_off_c, 0, 64, 64
2, 70080, Note_on_c, 0, 72, 127
2, 70176, Note_off_c, 0, 72, 64
2, 70200, Note_on_c, 0, 72, 127
2, 70296, Note_off_c, 0, 72, 64
2, 70320, Note_on_c, 0, 72, 127
2, 70416, Note_off_c, 0, 72, 64
2, 70440, Note_on_c, 0, 72, 127
2, 70536, Note_off_c, 0, 72, 64
2, 70560, Note_on_c, 0, 72, 127
2, 70656, Note_off_c, 0, 72, 64
2, 70680, Note_on_c, 0, 71, 127
2, 70728, Note_off_c, 0, 71, 64
2, 70740, Note_on_c, 0, 69, 127
2, 70788, Note_off_c, 0, 69, 64
2, 70800, Note_on_c, 0, 71, 127
2, 70896, Note_off_c, 0, 71, 64
2, 70920, Note_on_c, 0, 71, 127
2, 71016, Note_off_c, 0, 71, 64
2, 71040, Note_on_c, 0, 71, 127
2, 71136, Note_off_c, 0, 71, 64
2, 71160, Note_on_c, 0, 64, 127
2, 71256, Note_off_c, 0, 64, 64
2, 71280, Note_on_c, 0, 69, 127
2, 71616, Note_off_c, 0, 69, 64
2, 71640, Note_on_c, 0, 74, 127
2, 71640, Note_on_c, 0, 67, 127
2, 71688, Note_off_c, 0, 67, 64
2, 71700, Note_on_c, 0, 66, 127
2, 71736, Note_off_c, 0, 74, 64
2, 71748, Note_off_c, 0, 66, 64
2, 71760, Note_on_c, 0, 67, 127
2, 71760, Note_on_c, 0, 74, 127
2, 71856, Note_off_c, 0, 74, 64
2, 71856, Note_off_c, 0, 67, 64
2, 71880, Note_on_c, 0, 74, 127
2, 71976, Note_off_c, 0, 74, 64
2, 72000, Note_on_c, 0, 79, 127
2, 72096, Note_off_c, 0, 79, 64
2, 72120, Note_on_c, 0, 79, 127
2, 72120, Note_on_c, 0, 67, 127
2, 72216, Note_off_c, 0, 67, 64
2, 72216, Note_off_c, 0, 79, 64
2, 72240, Note_on_c, 0, 79, 127
2, 72240, Note_on_c, 0, 67, 127
2, 72336, Note_off_c, 0, 67, 64
2, 72336, Note_off_c, 0, 79, 64
2, 72360, Note_on_c, 0, 67, 127
2, 72360, Note_on_c, 0, 79, 127
2, 72456, Note_off_c, 0, 79, 64
2, 72456, Note_off_c, 0, 67, 64
2, 72480, Note_on_c, 0, 74, 127
2, 72480, Note_on_c, 0, 79, 127
2, 72576, Note_off_c, 0, 79, 64
2, 72576, Note_off_c, 0, 74, 64
2, 72600, Note_on_c, 0, 78, 127
2, 72600, Note_on_c, 0, 74, 127
2, 72657, Note_off_c, 0, 78, 64
2, 72660, Note_on_c, 0, 76, 127
2, 72696, Note_off_c, 0, 74, 64
2, 72717, Note_off_c, 0, 76, 64
2, 72720, Note_on_c, 0, 74, 127
2, 72720, Note_on_c, 0, 78, 127
2, 72816, Note_off_c, 0, 78, 64
2, 72816, Note_off_c, 0, 74, 64
2, 72840, Note_on_c, 0, 74, 127
2, 72840, Note_on_c, 0, 74, 127
2, 72936, Note_off_c, 0, 74, 64
2, 72936, Note_off_c, 0, 74, 64
2, 72960, Note_on_c, 0, 83, 127
2, 72960, Note_on_c, 0, 74, 127
2, 73056, Note_off_c, 0, 74, 64
2, 73056, Note_off_c, 0, 83, 64
2, 73080, Note_on_c, 0, 71, 127
2, 73080, Note_on_c, 0, 83, 127
2, 73128, Note_off_c, 0, 71, 64
2, 73140, Note_on_c, 0, 69, 127
2, 73176, Note_off_c, 0, 83, 64
2, 73188, Note_off_c, 0, 69, 64
2, 73200, Note_on_c, 0, 83, 127
2, 73200, Note_on_c, 0, 71, 127
2, 73296, Note_off_c, 0, 71, 64
2, 73296, Note_off_c, 0, 83, 64
2, 73320, Note_on_c, 0, 67, 127
2, 73320, Note_on_c, 0, 83, 127
2, 73416, Note_off_c, 0, 83, 64
2, 73416, Note_off_c, 0, 67, 64
2, 73440, Note_on_c, 0, 83, 127
2, 73440, Note_on_c, 0, 76, 127
2, 73536, Note_off_c, 0, 76, 64
2, 73536, Note_off_c, 0, 83, 64
2, 73560, Note_on_c, 0, 76, 127
2, 73560, Note_on_c, 0, 81, 127
2, 73608, Note_off_c, 0, 81, 64
2, 73620, Note_on_c, 0, 79, 127
2, 73656, Note_off_c, 0, 76, 64
2, 73668, Note_off_c, 0, 79, 64
2, 73680, Note_on_c, 0, 81, 127
2, 73680, Note_on_c, 0, 76, 127
2, 73776, Note_off_c, 0, 76, 64
2, 73776, Note_off_c, 0, 81, 64
2, 73800, Note_on_c, 0, 76, 127
2, 73800, Note_on_c, 0, 81, 127
2, 73896, Note_off_c, 0, 81, 64
2, 73896, Note_off_c, 0, 76, 64
2, 73920, Note_on_c, 0, 81, 127
2, 73920, Note_on_c, 0, 76, 127
2, 74016, Note_off_c, 0, 76, 64
2, 74016, Note_off_c, 0, 81, 64
2, 74040, Note_on_c, 0, 74, 127
2, 74040, Note_on_c, 0, 74, 127
2, 74088, Note_off_c, 0, 74, 64
2, 74100, Note_on_c, 0, 72, 127
2, 74136, Note_off_c, 0, 74, 64
2, 74148, Note_off_c, 0, 72, 64
2, 74160, Note_on_c, 0, 74, 127
2, 74160, Note_on_c, 0, 79, 127
2, 74256, Note_off_c, 0, 74, 64
2, 74280, Note_on_c, 0, 74, 127
2, 74376, Note_off_c, 0, 74, 64
2, 74400, Note_on_c, 0, 74, 127
2, 74496, Note_off_c, 0, 79, 64
2, 74496, Note_off_c, 0, 74, 64
2, 74520, Note_on_c, 0, 81, 127
2, 74520, Note_on_c, 0, 67, 127
2, 74568, Note_off_c, 0, 81, 64
2, 74580, Note_on_c, 0, 79, 127
2, 74616, Note_off_c, 0, 67, 64
2, 74628, Note_off_c, 0, 79, 64
2, 74640, Note_on_c, 0, 72, 127
2, 74640, Note_on_c, 0, 78, 127
2, 74688, Note_off_c, 0, 78, 64
2, 74700, Note_on_c, 0, 79, 127
2, 74748, Note_off_c, 0, 79, 64
2, 74760, Note_on_c, 0, 76, 127
2, 74808, Note_off_c, 0, 76, 64
2, 74820, Note_on_c, 0, 78, 127
2, 74868, Note_off_c, 0, 78, 64
2, 74880, Note_on_c, 0, 79, 127
2, 74976, Note_off_c, 0, 72, 64
2, 75000, Note_on_c, 0, 74, 127
2, 75048, Note_off_c, 0, 74, 64
2, 75060, Note_on_c, 0, 72, 127
2, 75108, Note_off_c, 0, 72, 64
2, 75120, Note_on_c, 0, 71, 127
2, 75168, Note_off_c, 0, 71, 64
2, 75180, Note_on_c, 0, 72, 127
2, 75228, Note_off_c, 0, 72, 64
2, 75240, Note_on_c, 0, 69, 127
2, 75288, Note_off_c, 0, 69, 64
2, 75300, Note_on_c, 0, 71, 127
2, 75348, Note_off_c, 0, 71, 64
2, 75360, Note_on_c, 0, 72, 127
2, 75408, Note_off_c, 0, 72, 64
2, 75420, Note_on_c, 0, 71, 127
2, 75468, Note_off_c, 0, 71, 64
2, 75480, Note_on_c, 0, 72, 127
2, 75528, Note_off_c, 0, 72, 64
2, 75540, Note_on_c, 0, 74, 127
2, 75588, Note_off_c, 0, 74, 64
2, 75600, Note_on_c, 0, 72, 127
2, 75648, Note_off_c, 0, 72, 64
2, 75660, Note_on_c, 0, 74, 127
2, 75708, Note_off_c, 0, 74, 64
2, 75720, Note_on_c, 0, 71, 127
2, 75768, Note_off_c, 0, 71, 64
2, 75780, Note_on_c, 0, 72, 127
2, 75828, Note_off_c, 0, 72, 64
2, 75840, Note_on_c, 0, 74, 127
2, 75888, Note_off_c, 0, 74, 64
2, 75900, Note_on_c, 0, 72, 127
2, 75948, Note_off_c, 0, 72, 64
2, 75960, Note_on_c, 0, 74, 127
2, 76008, Note_off_c, 0, 74, 64
2, 76020, Note_on_c, 0, 76, 127
2, 76068, Note_off_c, 0, 76, 64
2, 76080, Note_on_c, 0, 74, 127
2, 76128, Note_off_c, 0, 74, 64
2, 76140, Note_on_c, 0, 76, 127
2, 76188, Note_off_c, 0, 76, 64
2, 76200, Note_on_c, 0, 72, 127
2, 76248, Note_off_c, 0, 72, 64
2, 76260, Note_on_c, 0, 74, 127
2, 76308, Note_off_c, 0, 74, 64
2, 76320, Note_on_c, 0, 76, 127
2, 76368, Note_off_c, 0, 76, 64
2, 76380, Note_on_c, 0, 74, 127
2, 76428, Note_off_c, 0, 74, 64
2, 76440, Note_on_c, 0, 72, 127
2, 76488, Note_off_c, 0, 72, 64
2, 76500, Note_on_c, 0, 71, 127
2, 76548, Note_off_c, 0, 71, 64
2, 76560, Note_on_c, 0, 72, 127
2, 76896, Note_off_c, 0, 72, 64
2, 76920, Note_on_c, 0, 71, 127
2, 76968, Note_off_c, 0, 71, 64
2, 76980, Note_on_c, 0, 69, 127
2, 77028, Note_off_c, 0, 69, 64
2, 77040, Note_on_c, 0, 71, 127
2, 77136, Note_off_c, 0, 71, 64
2, 77160, Note_on_c, 0, 72, 127
2, 77208, Note_off_c, 0, 72, 64
2, 77220, Note_on_c, 0, 74, 127
2, 77268, Note_off_c, 0, 74, 64
2, 77280, Note_on_c, 0, 76, 127
2, 77328, Note_off_c, 0, 76, 64
2, 77340, Note_on_c, 0, 74, 127
2, 77388, Note_off_c, 0, 74, 64
2, 77400, Note_on_c, 0, 76, 127
2, 77448, Note_off_c, 0, 76, 64
2, 77460, Note_on_c, 0, 77, 127
2, 77508, Note_off_c, 0, 77, 64
2, 77520, Note_on_c, 0, 76, 127
2, 77568, Note_off_c, 0, 76, 64
2, 77580, Note_on_c, 0, 79, 127
2, 77628, Note_off_c, 0, 79, 64
2, 77640, Note_on_c, 0, 77, 127
2, 77688, Note_off_c, 0, 77, 64
2, 77700, Note_on_c, 0, 76, 127
2, 77748, Note_off_c, 0, 76, 64
2, 77760, Note_on_c, 0, 74, 127
2, 77808, Note_off_c, 0, 74, 64
2, 77820, Note_on_c, 0, 72, 127
2, 77868, Note_off_c, 0, 72, 64
2, 77880, Note_on_c, 0, 71, 127
2, 77928, Note_off_c, 0, 71, 64
2, 77940, Note_on_c, 0, 72, 127
2, 77988, Note_off_c, 0, 72, 64
2, 78000, Note_on_c, 0, 74, 127
2, 78048, Note_off_c, 0, 74, 64
2, 78060, Note_on_c, 0, 77, 127
2, 78108, Note_off_c, 0, 77, 64
2, 78120, Note_on_c, 0, 76, 127
2, 78168, Note_off_c, 0, 76, 64
2, 78180, Note_on_c, 0, 74, 127
2, 78228, Note_off_c, 0, 74, 64
2, 78240, Note_on_c, 0, 72, 127
2, 78336, Note_off_c, 0, 79, 64
2, 78360, Note_on_c, 0, 81, 127
2, 78408, Note_off_c, 0, 81, 64
2, 78420, Note_on_c, 0, 79, 127
2, 78468, Note_off_c, 0, 79, 64
2, 78480, Note_on_c, 0, 78, 127
2, 78528, Note_off_c, 0, 78, 64
2, 78540, Note_on_c, 0, 79, 127
2, 78588, Note_off_c, 0, 79, 64
2, 78600, Note_on_c, 0, 76, 127
2, 78648, Note_off_c, 0, 76, 64
2, 78660, Note_on_c, 0, 78, 127
2, 78708, Note_off_c, 0, 78, 64
2, 78720, Note_on_c, 0, 79, 127
2, 78816, Note_off_c, 0, 72, 64
2, 78840, Note_on_c, 0, 74, 127
2, 78888, Note_off_c, 0, 74, 64
2, 78900, Note_on_c, 0, 72, 127
2, 78948, Note_off_c, 0, 72, 64
2, 78960, Note_on_c, 0, 71, 127
2, 79008, Note_off_c, 0, 71, 64
2, 79020, Note_on_c, 0, 72, 127
2, 79068, Note_off_c, 0, 72, 64
2, 79080, Note_on_c, 0, 69, 127
2, 79128, Note_off_c, 0, 69, 64
2, 79140, Note_on_c, 0, 72, 127
2, 79188, Note_off_c, 0, 72, 64
2, 79200, Note_on_c, 0, 71, 127
2, 79488, Note_off_c, 0, 79, 64
2, 79584, Note_off_c, 0, 71, 64
2, 79584, End_track
3, 0, Start_track
3, 0, Title_t, "J.S. Bach/Arr. G. Bricault"
3, 0, Program_c, 0, 19
3, 0, Control_c, 0, 7, 127
3, 3480, Note_on_c, 0, 55, 127
3, 3576, Note_off_c, 0, 55, 64
3, 3600, Note_on_c, 0, 55, 127
3, 3696, Note_off_c, 0, 55, 64
3, 3720, Note_on_c, 0, 55, 127
3, 3816, Note_off_c, 0, 55, 64
3, 3840, Note_on_c, 0, 62, 127
3, 3936, Note_off_c, 0, 62, 64
3, 3960, Note_on_c, 0, 62, 127
3, 4056, Note_off_c, 0, 62, 64
3, 4080, Note_on_c, 0, 62, 127
3, 4176, Note_off_c, 0, 62, 64
3, 4200, Note_on_c, 0, 62, 127
3, 4296, Note_off_c, 0, 62, 64
3, 4320, Note_on_c, 0, 62, 127
3, 4416, Note_off_c, 0, 62, 64
3, 4440, Note_on_c, 0, 61, 127
3, 4488, Note_off_c, 0, 61, 64
3, 4500, Note_on_c, 0, 59, 127
3, 4548, Note_off_c, 0, 59, 64
3, 4560, Note_on_c, 0, 61, 127
3, 4656, Note_off_c, 0, 61, 64
3, 4680, Note_on_c, 0, 57, 127
3, 4776, Note_off_c, 0, 57, 64
3, 4800, Note_on_c, 0, 66, 127
3, 4896, Note_off_c, 0, 66, 64
3, 4920, Note_on_c, 0, 66, 127
3, 5016, Note_off_c, 0, 66, 64
3, 5040, Note_on_c, 0, 66, 127
3, 5136, Note_off_c, 0, 66, 64
3, 5160, Note_on_c, 0, 66, 127
3, 5256, Note_off_c, 0, 66, 64
3, 5280, Note_on_c, 0, 66, 127
3, 5376, Note_off_c, 0, 66, 64
3, 5400, Note_on_c, 0, 64, 127
3, 5448, Note_off_c, 0, 64, 64
3, 5460, Note_on_c, 0, 62, 127
3, 5508, Note_off_c, 0, 62, 64
3, 5520, Note_on_c, 0, 64, 127
3, 5616, Note_off_c, 0, 64, 64
3, 5640, Note_on_c, 0, 64, 127
3, 5736, Note_off_c, 0, 64, 64
3, 5760, Note_on_c, 0, 64, 127
3, 5856, Note_off_c, 0, 64, 64
3, 5880, Note_on_c, 0, 57, 127
3, 5976, Note_off_c, 0, 57, 64
3, 6000, Note_on_c, 0, 62, 127
3, 6336, Note_off_c, 0, 62, 64
3, 6360, Note_on_c, 0, 64, 127
3, 6408, Note_off_c, 0, 64, 64
3, 6420, Note_on_c, 0, 62, 127
3, 6468, Note_off_c, 0, 62, 64
3, 6480, Note_on_c, 0, 61, 127
3, 6528, Note_off_c, 0, 61, 64
3, 6540, Note_on_c, 0, 62, 127
3, 6588, Note_off_c, 0, 62, 64
3, 6600, Note_on_c, 0, 59, 127
3, 6648, Note_off_c, 0, 59, 64
3, 6660, Note_on_c, 0, 61, 127
3, 6708, Note_off_c, 0, 61, 64
3, 6720, Note_on_c, 0, 62, 127
3, 6768, Note_off_c, 0, 62, 64
3, 6780, Note_on_c, 0, 61, 127
3, 6828, Note_off_c, 0, 61, 64
3, 6840, Note_on_c, 0, 62, 127
3, 6888, Note_off_c, 0, 62, 64
3, 6900, Note_on_c, 0, 64, 127
3, 6948, Note_off_c, 0, 64, 64
3, 6960, Note_on_c, 0, 62, 127
3, 7008, Note_off_c, 0, 62, 64
3, 7020, Note_on_c, 0, 64, 127
3, 7068, Note_off_c, 0, 64, 64
3, 7080, Note_on_c, 0, 62, 127
3, 7128, Note_off_c, 0, 62, 64
3, 7140, Note_on_c, 0, 60, 127
3, 7188, Note_off_c, 0, 60, 64
3, 7200, Note_on_c, 0, 59, 127
3, 7248, Note_off_c, 0, 59, 64
3, 7260, Note_on_c, 0, 57, 127
3, 7308, Note_off_c, 0, 57, 64
3, 7320, Note_on_c, 0, 59, 127
3, 7368, Note_off_c, 0, 59, 64
3, 7380, Note_on_c, 0, 60, 127
3, 7428, Note_off_c, 0, 60, 64
3, 7440, Note_on_c, 0, 59, 127
3, 7488, Note_off_c, 0, 59, 64
3, 7500, Note_on_c, 0, 62, 127
3, 7548, Note_off_c, 0, 62, 64
3, 7560, Note_on_c, 0, 60, 127
3, 7608, Note_off_c, 0, 60, 64
3, 7620, Note_on_c, 0, 59, 127
3, 7668, Note_off_c, 0, 59, 64
3, 7680, Note_on_c, 0, 57, 127
3, 7872, Note_off_c, 0, 57, 64
3, 7920, Note_on_c, 0, 69, 127
3, 8208, Note_off_c, 0, 69, 64
3, 8220, Note_on_c, 0, 62, 127
3, 8268, Note_off_c, 0, 62, 64
3, 8280, Note_on_c, 0, 64, 127
3, 8328, Note_off_c, 0, 64, 64
3, 8340, Note_on_c, 0, 66, 127
3, 8388, Note_off_c, 0, 66, 64
3, 8400, Note_on_c, 0, 67, 127
3, 8448, Note_off_c, 0, 67, 64
3, 8460, Note_on_c, 0, 69, 127
3, 8508, Note_off_c, 0, 69, 64
3, 8520, Note_on_c, 0, 66, 127
3, 8568, Note_off_c, 0, 66, 64
3, 8580, Note_on_c, 0, 67, 127
3, 8628, Note_off_c, 0, 67, 64
3, 8640, Note_on_c, 0, 60, 127
3, 8928, Note_off_c, 0, 60, 64
3, 8940, Note_on_c, 0, 64, 127
3, 8988, Note_off_c, 0, 64, 64
3, 9000, Note_on_c, 0, 62, 127
3, 9048, Note_off_c, 0, 62, 64
3, 9060, Note_on_c, 0, 60, 127
3, 9108, Note_off_c, 0, 60, 64
3, 9120, Note_on_c, 0, 59, 127
3, 9408, Note_off_c, 0, 59, 64
3, 9420, Note_on_c, 0, 60, 127
3, 9468, Note_off_c, 0, 60, 64
3, 9480, Note_on_c, 0, 62, 127
3, 9528, Note_off_c, 0, 62, 64
3, 9540, Note_on_c, 0, 64, 127
3, 9588, Note_off_c, 0, 64, 64
3, 9600, Note_on_c, 0, 66, 127
3, 9648, Note_off_c, 0, 66, 64
3, 9660, Note_on_c, 0, 67, 127
3, 9708, Note_off_c, 0, 67, 64
3, 9720, Note_on_c, 0, 66, 127
3, 9768, Note_off_c, 0, 66, 64
3, 9780, Note_on_c, 0, 67, 127
3, 9828, Note_off_c, 0, 67, 64
3, 9840, Note_on_c, 0, 57, 127
3, 9936, Note_off_c, 0, 57, 64
3, 9960, Note_on_c, 0, 62, 127
3, 10176, Note_off_c, 0, 62, 64
3, 10200, Note_on_c, 0, 59, 127
3, 10296, Note_off_c, 0, 59, 64
3, 10320, Note_on_c, 0, 64, 127
3, 10848, Note_off_c, 0, 64, 64
3, 10860, Note_on_c, 0, 64, 127
3, 10908, Note_off_c, 0, 64, 64
3, 10920, Note_on_c, 0, 62, 127
3, 10968, Note_off_c, 0, 62, 64
3, 10980, Note_on_c, 0, 61, 127
3, 11028, Note_off_c, 0, 61, 64
3, 11040, Note_on_c, 0, 62, 127
3, 11568, Note_off_c, 0, 62, 64
3, 11580, Note_on_c, 0, 59, 127
3, 11628, Note_off_c, 0, 59, 64
3, 11640, Note_on_c, 0, 61, 127
3, 11688, Note_off_c, 0, 61, 64
3, 11700, Note_on_c, 0, 62, 127
3, 11748, Note_off_c, 0, 62, 64
3, 11760, Note_on_c, 0, 64, 127
3, 11808, Note_off_c, 0, 64, 64
3, 11820, Note_on_c, 0, 66, 127
3, 11868, Note_off_c, 0, 66, 64
3, 11880, Note_on_c, 0, 64, 127
3, 11928, Note_off_c, 0, 64, 64
3, 11940, Note_on_c, 0, 62, 127
3, 11988, Note_off_c, 0, 62, 64
3, 12000, Note_on_c, 0, 61, 127
3, 12288, Note_off_c, 0, 61, 64
3, 12300, Note_on_c, 0, 57, 127
3, 12348, Note_off_c, 0, 57, 64
3, 12360, Note_on_c, 0, 59, 127
3, 12408, Note_off_c, 0, 59, 64
3, 12420, Note_on_c, 0, 61, 127
3, 12468, Note_off_c, 0, 61, 64
3, 12480, Note_on_c, 0, 62, 127
3, 12672, Note_off_c, 0, 62, 64
3, 12840, Note_on_c, 0, 57, 127
3, 13056, Note_off_c, 0, 57, 64
3, 13080, Note_on_c, 0, 56, 127
3, 13128, Note_off_c, 0, 56, 64
3, 13140, Note_on_c, 0, 54, 127
3, 13188, Note_off_c, 0, 54, 64
3, 13200, Note_on_c, 0, 56, 127
3, 13392, Note_off_c, 0, 56, 64
3, 13440, Note_on_c, 0, 57, 127
3, 13632, Note_off_c, 0, 57, 64
3, 14280, Note_on_c, 0, 62, 127
3, 14376, Note_off_c, 0, 62, 64
3, 14400, Note_on_c, 0, 67, 127
3, 14448, Note_off_c, 0, 67, 64
3, 14460, Note_on_c, 0, 69, 127
3, 14508, Note_off_c, 0, 69, 64
3, 14520, Note_on_c, 0, 67, 127
3, 14568, Note_off_c, 0, 67, 64
3, 14580, Note_on_c, 0, 66, 127
3, 14628, Note_off_c, 0, 66, 64
3, 14640, Note_on_c, 0, 64, 127
3, 14688, Note_off_c, 0, 64, 64
3, 14700, Note_on_c, 0, 62, 127
3, 14748, Note_off_c, 0, 62, 64
3, 14760, Note_on_c, 0, 61, 127
3, 14808, Note_off_c, 0, 61, 64
3, 14820, Note_on_c, 0, 59, 127
3, 14868, Note_off_c, 0, 59, 64
3, 14880, Note_on_c, 0, 57, 127
3, 15168, Note_off_c, 0, 57, 64
3, 15180, Note_on_c, 0, 55, 127
3, 15228, Note_off_c, 0, 55, 64
3, 15240, Note_on_c, 0, 57, 127
3, 15288, Note_off_c, 0, 57, 64
3, 15300, Note_on_c, 0, 54, 127
3, 15348, Note_off_c, 0, 54, 64
3, 15360, Note_on_c, 0, 55, 127
3, 15408, Note_off_c, 0, 55, 64
3, 15420, Note_on_c, 0, 54, 127
3, 15468, Note_off_c, 0, 54, 64
3, 15480, Note_on_c, 0, 55, 127
3, 15528, Note_off_c, 0, 55, 64
3, 15540, Note_on_c, 0, 57, 127
3, 15588, Note_off_c, 0, 57, 64
3, 15600, Note_on_c, 0, 55, 127
3, 15648, Note_off_c, 0, 55, 64
3, 15660, Note_on_c, 0, 59, 127
3, 15708, Note_off_c, 0, 59, 64
3, 15720, Note_on_c, 0, 57, 127
3, 15768, Note_off_c, 0, 57, 64
3, 15780, Note_on_c, 0, 55, 127
3, 15828, Note_off_c, 0, 55, 64
3, 15840, Note_on_c, 0, 54, 127
3, 15936, Note_off_c, 0, 54, 64
3, 15960, Note_on_c, 0, 52, 127
3, 16056, Note_off_c, 0, 52, 64
3, 16080, Note_on_c, 0, 54, 127
3, 16176, Note_off_c, 0, 54, 64
3, 16200, Note_on_c, 0, 56, 127
3, 16296, Note_off_c, 0, 56, 64
3, 16320, Note_on_c, 0, 57, 127
3, 16704, Note_off_c, 0, 57, 64
3, 16920, Note_on_c, 0, 54, 127
3, 17016, Note_off_c, 0, 54, 64
3, 17040, Note_on_c, 0, 55, 127
3, 17136, Note_off_c, 0, 55, 64
3, 17160, Note_on_c, 0, 57, 127
3, 17256, Note_off_c, 0, 57, 64
3, 17280, Note_on_c, 0, 59, 127
3, 17664, Note_off_c, 0, 59, 64
3, 17880, Note_on_c, 0, 59, 127
3, 18096, Note_off_c, 0, 59, 64
3, 18120, Note_on_c, 0, 57, 127
3, 18168, Note_off_c, 0, 57, 64
3, 18180, Note_on_c, 0, 56, 127
3, 18228, Note_off_c, 0, 56, 64
3, 18240, Note_on_c, 0, 57, 127
3, 18336, Note_off_c, 0, 57, 64
3, 18360, Note_on_c, 0, 57, 127
3, 18456, Note_off_c, 0, 57, 64
3, 18480, Note_on_c, 0, 62, 127
3, 18576, Note_off_c, 0, 62, 64
3, 18600, Note_on_c, 0, 62, 127
3, 18696, Note_off_c, 0, 62, 64
3, 18720, Note_on_c, 0, 62, 127
3, 18816, Note_off_c, 0, 62, 64
3, 18840, Note_on_c, 0, 55, 127
3, 18936, Note_off_c, 0, 55, 64
3, 18960, Note_on_c, 0, 60, 127
3, 19152, Note_off_c, 0, 60, 64
3, 19200, Note_on_c, 0, 57, 127
3, 19392, Note_off_c, 0, 57, 64
3, 19440, Note_on_c, 0, 59, 127
3, 19776, Note_off_c, 0, 59, 64
3, 19800, Note_on_c, 0, 57, 127
3, 19848, Note_off_c, 0, 57, 64
3, 19860, Note_on_c, 0, 56, 127
3, 19908, Note_off_c, 0, 56, 64
3, 19920, Note_on_c, 0, 57, 127
3, 20016, Note_off_c, 0, 57, 64
3, 20040, Note_on_c, 0, 60, 127
3, 20136, Note_off_c, 0, 60, 64
3, 20160, Note_on_c, 0, 59, 127
3, 20352, Note_off_c, 0, 59, 64
3, 20400, Note_on_c, 0, 52, 127
3, 20736, Note_off_c, 0, 52, 64
3, 20760, Note_on_c, 0, 50, 127
3, 20856, Note_off_c, 0, 50, 64
3, 20940, Note_on_c, 0, 57, 127
3, 20988, Note_off_c, 0, 57, 64
3, 21000, Note_on_c, 0, 59, 127
3, 21048, Note_off_c, 0, 59, 64
3, 21060, Note_on_c, 0, 61, 127
3, 21108, Note_off_c, 0, 61, 64
3, 21120, Note_on_c, 0, 62, 127
3, 21168, Note_off_c, 0, 62, 64
3, 21180, Note_on_c, 0, 64, 127
3, 21228, Note_off_c, 0, 64, 64
3, 21240, Note_on_c, 0, 61, 127
3, 21288, Note_off_c, 0, 61, 64
3, 21300, Note_on_c, 0, 62, 127
3, 21348, Note_off_c, 0, 62, 64
3, 21360, Note_on_c, 0, 64, 127
3, 21408, Note_off_c, 0, 64, 64
3, 21420, Note_on_c, 0, 62, 127
3, 21468, Note_off_c, 0, 62, 64
3, 21480, Note_on_c, 0, 61, 127
3, 21528, Note_off_c, 0, 61, 64
3, 21540, Note_on_c, 0, 59, 127
3, 21588, Note_off_c, 0, 59, 64
3, 21600, Note_on_c, 0, 57, 127
3, 21696, Note_off_c, 0, 57, 64
3, 21720, Note_on_c, 0, 62, 127
3, 21816, Note_off_c, 0, 62, 64
3, 21840, Note_on_c, 0, 62, 127
3, 21936, Note_off_c, 0, 62, 64
3, 21960, Note_on_c, 0, 62, 127
3, 22056, Note_off_c, 0, 62, 64
3, 22080, Note_on_c, 0, 62, 127
3, 22176, Note_off_c, 0, 62, 64
3, 22200, Note_on_c, 0, 60, 127
3, 22248, Note_off_c, 0, 60, 64
3, 22260, Note_on_c, 0, 59, 127
3, 22308, Note_off_c, 0, 59, 64
3, 22320, Note_on_c, 0, 60, 127
3, 22368, Note_off_c, 0, 60, 64
3, 22380, Note_on_c, 0, 59, 127
3, 22428, Note_off_c, 0, 59, 64
3, 22440, Note_on_c, 0, 57, 127
3, 22488, Note_off_c, 0, 57, 64
3, 22500, Note_on_c, 0, 60, 127
3, 22548, Note_off_c, 0, 60, 64
3, 22560, Note_on_c, 0, 59, 127
3, 22608, Note_off_c, 0, 59, 64
3, 22620, Note_on_c, 0, 57, 127
3, 22668, Note_off_c, 0, 57, 64
3, 22680, Note_on_c, 0, 55, 127
3, 22728, Note_off_c, 0, 55, 64
3, 22740, Note_on_c, 0, 59, 127
3, 22788, Note_off_c, 0, 59, 64
3, 22800, Note_on_c, 0, 57, 127
3, 22848, Note_off_c, 0, 57, 64
3, 22860, Note_on_c, 0, 60, 127
3, 22908, Note_off_c, 0, 60, 64
3, 22920, Note_on_c, 0, 59, 127
3, 22968, Note_off_c, 0, 59, 64
3, 22980, Note_on_c, 0, 62, 127
3, 23028, Note_off_c, 0, 62, 64
3, 23040, Note_on_c, 0, 60, 127
3, 23088, Note_off_c, 0, 60, 64
3, 23100, Note_on_c, 0, 57, 127
3, 23148, Note_off_c, 0, 57, 64
3, 23160, Note_on_c, 0, 59, 127
3, 23208, Note_off_c, 0, 59, 64
3, 23220, Note_on_c, 0, 60, 127
3, 23268, Note_off_c, 0, 60, 64
3, 23280, Note_on_c, 0, 62, 127
3, 23328, Note_off_c, 0, 62, 64
3, 23340, Note_on_c, 0, 60, 127
3, 23388, Note_off_c, 0, 60, 64
3, 23400, Note_on_c, 0, 59, 127
3, 23448, Note_off_c, 0, 59, 64
3, 23460, Note_on_c, 0, 57, 127
3, 23508, Note_off_c, 0, 57, 64
3, 23520, Note_on_c, 0, 55, 127
3, 23616, Note_off_c, 0, 55, 64
3, 23640, Note_on_c, 0, 55, 127
3, 23736, Note_off_c, 0, 55, 64
3, 23760, Note_on_c, 0, 57, 127
3, 24096, Note_off_c, 0, 57, 64
3, 24120, Note_on_c, 0, 57, 127
3, 24216, Note_off_c, 0, 57, 64
3, 24240, Note_on_c, 0, 59, 127
3, 24288, Note_off_c, 0, 59, 64
3, 24300, Note_on_c, 0, 60, 127
3, 24348, Note_off_c, 0, 60, 64
3, 24360, Note_on_c, 0, 59, 127
3, 24408, Note_off_c, 0, 59, 64
3, 24420, Note_on_c, 0, 57, 127
3, 24468, Note_off_c, 0, 57, 64
3, 24480, Note_on_c, 0, 55, 127
3, 24528, Note_off_c, 0, 55, 64
3, 24540, Note_on_c, 0, 57, 127
3, 24588, Note_off_c, 0, 57, 64
3, 24600, Note_on_c, 0, 55, 127
3, 24648, Note_off_c, 0, 55, 64
3, 24660, Note_on_c, 0, 54, 127
3, 24708, Note_off_c, 0, 54, 64
3, 24720, Note_on_c, 0, 52, 127
3, 24768, Note_off_c, 0, 52, 64
3, 24780, Note_on_c, 0, 55, 127
3, 24828, Note_off_c, 0, 55, 64
3, 24840, Note_on_c, 0, 54, 127
3, 24888, Note_off_c, 0, 54, 64
3, 24900, Note_on_c, 0, 52, 127
3, 24948, Note_off_c, 0, 52, 64
3, 24960, Note_on_c, 0, 50, 127
3, 25152, Note_off_c, 0, 50, 64
3, 32760, Note_on_c, 0, 59, 127
3, 32856, Note_off_c, 0, 59, 64
3, 32880, Note_on_c, 0, 59, 127
3, 32976, Note_off_c, 0, 59, 64
3, 33000, Note_on_c, 0, 59, 127
3, 33096, Note_off_c, 0, 59, 64
3, 33120, Note_on_c, 0, 64, 127
3, 33216, Note_off_c, 0, 64, 64
3, 33240, Note_on_c, 0, 64, 127
3, 33336, Note_off_c, 0, 64, 64
3, 33360, Note_on_c, 0, 64, 127
3, 33456, Note_off_c, 0, 64, 64
3, 33480, Note_on_c, 0, 64, 127
3, 33576, Note_off_c, 0, 64, 64
3, 33600, Note_on_c, 0, 64, 127
3, 33696, Note_off_c, 0, 64, 64
3, 33720, Note_on_c, 0, 62, 127
3, 33768, Note_off_c, 0, 62, 64
3, 33780, Note_on_c, 0, 61, 127
3, 33828, Note_off_c, 0, 61, 64
3, 33840, Note_on_c, 0, 62, 127
3, 33936, Note_off_c, 0, 62, 64
3, 33960, Note_on_c, 0, 59, 127
3, 34056, Note_off_c, 0, 59, 64
3, 34080, Note_on_c, 0, 67, 127
3, 34176, Note_off_c, 0, 67, 64
3, 34200, Note_on_c, 0, 67, 127
3, 34296, Note_off_c, 0, 67, 64
3, 34320, Note_on_c, 0, 67, 127
3, 34416, Note_off_c, 0, 67, 64
3, 34440, Note_on_c, 0, 67, 127
3, 34536, Note_off_c, 0, 67, 64
3, 34560, Note_on_c, 0, 67, 127
3, 34656, Note_off_c, 0, 67, 64
3, 34680, Note_on_c, 0, 66, 127
3, 34728, Note_off_c, 0, 66, 64
3, 34740, Note_on_c, 0, 64, 127
3, 34788, Note_off_c, 0, 64, 64
3, 34800, Note_on_c, 0, 66, 127
3, 34896, Note_off_c, 0, 66, 64
3, 34920, Note_on_c, 0, 66, 127
3, 35016, Note_off_c, 0, 66, 64
3, 35040, Note_on_c, 0, 66, 127
3, 35136, Note_off_c, 0, 66, 64
3, 35160, Note_on_c, 0, 64, 127
3, 35208, Note_off_c, 0, 64, 64
3, 35220, Note_on_c, 0, 63, 127
3, 35268, Note_off_c, 0, 63, 64
3, 35280, Note_on_c, 0, 64, 127
3, 35616, Note_off_c, 0, 64, 64
3, 35640, Note_on_c, 0, 66, 127
3, 35688, Note_off_c, 0, 66, 64
3, 35700, Note_on_c, 0, 64, 127
3, 35748, Note_off_c, 0, 64, 64
3, 35760, Note_on_c, 0, 63, 127
3, 35808, Note_off_c, 0, 63, 64
3, 35820, Note_on_c, 0, 64, 127
3, 35868, Note_off_c, 0, 64, 64
3, 35880, Note_on_c, 0, 61, 127
3, 35928, Note_off_c, 0, 61, 64
3, 35940, Note_on_c, 0, 63, 127
3, 35988, Note_off_c, 0, 63, 64
3, 36000, Note_on_c, 0, 64, 127
3, 36192, Note_off_c, 0, 64, 64
3, 36360, Note_on_c, 0, 64, 127
3, 36456, Note_off_c, 0, 64, 64
3, 36480, Note_on_c, 0, 69, 127
3, 36528, Note_off_c, 0, 69, 64
3, 36540, Note_on_c, 0, 67, 127
3, 36588, Note_off_c, 0, 67, 64
3, 36600, Note_on_c, 0, 66, 127
3, 36648, Note_off_c, 0, 66, 64
3, 36660, Note_on_c, 0, 64, 127
3, 36708, Note_off_c, 0, 64, 64
3, 36720, Note_on_c, 0, 62, 127
3, 36768, Note_off_c, 0, 62, 64
3, 36780, Note_on_c, 0, 61, 127
3, 36828, Note_off_c, 0, 61, 64
3, 36840, Note_on_c, 0, 59, 127
3, 36888, Note_off_c, 0, 59, 64
3, 36900, Note_on_c, 0, 57, 127
3, 36948, Note_off_c, 0, 57, 64
3, 36960, Note_on_c, 0, 62, 127
3, 37152, Note_off_c, 0, 62, 64
3, 37320, Note_on_c, 0, 62, 127
3, 37416, Note_off_c, 0, 62, 64
3, 37440, Note_on_c, 0, 67, 127
3, 37488, Note_off_c, 0, 67, 64
3, 37500, Note_on_c, 0, 66, 127
3, 37548, Note_off_c, 0, 66, 64
3, 37560, Note_on_c, 0, 64, 127
3, 37608, Note_off_c, 0, 64, 64
3, 37620, Note_on_c, 0, 62, 127
3, 37668, Note_off_c, 0, 62, 64
3, 37680, Note_on_c, 0, 60, 127
3, 37728, Note_off_c, 0, 60, 64
3, 37740, Note_on_c, 0, 59, 127
3, 37788, Note_off_c, 0, 59, 64
3, 37800, Note_on_c, 0, 57, 127
3, 37848, Note_off_c, 0, 57, 64
3, 37860, Note_on_c, 0, 56, 127
3, 37908, Note_off_c, 0, 56, 64
3, 37920, Note_on_c, 0, 61, 127
3, 38112, Note_off_c, 0, 61, 64
3, 38280, Note_on_c, 0, 61, 127
3, 38376, Note_off_c, 0, 61, 64
3, 38400, Note_on_c, 0, 66, 127
3, 38448, Note_off_c, 0, 66, 64
3, 38460, Note_on_c, 0, 64, 127
3, 38508, Note_off_c, 0, 64, 64
3, 38520, Note_on_c, 0, 62, 127
3, 38568, Note_off_c, 0, 62, 64
3, 38580, Note_on_c, 0, 61, 127
3, 38628, Note_off_c, 0, 61, 64
3, 38640, Note_on_c, 0, 59, 127
3, 38688, Note_off_c, 0, 59, 64
3, 38700, Note_on_c, 0, 58, 127
3, 38748, Note_off_c, 0, 58, 64
3, 38760, Note_on_c, 0, 56, 127
3, 38808, Note_off_c, 0, 56, 64
3, 38820, Note_on_c, 0, 54, 127
3, 38868, Note_off_c, 0, 54, 64
3, 38880, Note_on_c, 0, 59, 127
3, 38976, Note_off_c, 0, 59, 64
3, 39000, Note_on_c, 0, 62, 127
3, 39096, Note_off_c, 0, 62, 64
3, 39120, Note_on_c, 0, 64, 127
3, 39216, Note_off_c, 0, 64, 64
3, 39240, Note_on_c, 0, 52, 127
3, 39336, Note_off_c, 0, 52, 64
3, 39360, Note_on_c, 0, 57, 127
3, 39456, Note_off_c, 0, 57, 64
3, 39480, Note_on_c, 0, 60, 127
3, 39576, Note_off_c, 0, 60, 64
3, 39600, Note_on_c, 0, 62, 127
3, 39696, Note_off_c, 0, 62, 64
3, 39720, Note_on_c, 0, 50, 127
3, 39816, Note_off_c, 0, 50, 64
3, 39900, Note_on_c, 0, 55, 127
3, 39948, Note_off_c, 0, 55, 64
3, 39960, Note_on_c, 0, 59, 127
3, 40008, Note_off_c, 0, 59, 64
3, 40020, Note_on_c, 0, 62, 127
3, 40068, Note_off_c, 0, 62, 64
3, 40080, Note_on_c, 0, 48, 127
3, 40128, Note_off_c, 0, 48, 64
3, 40140, Note_on_c, 0, 55, 127
3, 40188, Note_off_c, 0, 55, 64
3, 40200, Note_on_c, 0, 52, 127
3, 40248, Note_off_c, 0, 52, 64
3, 40260, Note_on_c, 0, 48, 127
3, 40308, Note_off_c, 0, 48, 64
3, 40380, Note_on_c, 0, 54, 127
3, 40428, Note_off_c, 0, 54, 64
3, 40440, Note_on_c, 0, 57, 127
3, 40488, Note_off_c, 0, 57, 64
3, 40500, Note_on_c, 0, 60, 127
3, 40548, Note_off_c, 0, 60, 64
3, 40560, Note_on_c, 0, 47, 127
3, 40608, Note_off_c, 0, 47, 64
3, 40620, Note_on_c, 0, 54, 127
3, 40668, Note_off_c, 0, 54, 64
3, 40680, Note_on_c, 0, 51, 127
3, 40728, Note_off_c, 0, 51, 64
3, 40740, Note_on_c, 0, 47, 127
3, 40788, Note_off_c, 0, 47, 64
3, 40800, Note_on_c, 0, 52, 127
3, 40896, Note_off_c, 0, 52, 64
3, 40920, Note_on_c, 0, 40, 127
3, 41016, Note_off_c, 0, 40, 64
3, 41160, Note_on_c, 0, 52, 127
3, 41256, Note_off_c, 0, 52, 64
3, 41280, Note_on_c, 0, 56, 127
3, 41376, Note_off_c, 0, 56, 64
3, 41400, Note_on_c, 0, 59, 127
3, 41496, Note_off_c, 0, 59, 64
3, 41520, Note_on_c, 0, 56, 127
3, 41616, Note_off_c, 0, 56, 64
3, 41640, Note_on_c, 0, 52, 127
3, 41736, Note_off_c, 0, 52, 64
3, 41760, Note_on_c, 0, 57, 127
3, 41856, Note_off_c, 0, 57, 64
3, 41880, Note_on_c, 0, 45, 127
3, 41976, Note_off_c, 0, 45, 64
3, 42240, Note_on_c, 0, 55, 127
3, 42288, Note_off_c, 0, 55, 64
3, 42300, Note_on_c, 0, 64, 127
3, 42348, Note_off_c, 0, 64, 64
3, 42360, Note_on_c, 0, 61, 127
3, 42408, Note_off_c, 0, 61, 64
3, 42420, Note_on_c, 0, 55, 127
3, 42468, Note_off_c, 0, 55, 64
3, 42480, Note_on_c, 0, 64, 127
3, 42528, Note_off_c, 0, 64, 64
3, 42540, Note_on_c, 0, 58, 127
3, 42588, Note_off_c, 0, 58, 64
3, 42600, Note_on_c, 0, 57, 127
3, 42648, Note_off_c, 0, 57, 64
3, 42660, Note_on_c, 0, 55, 127
3, 42708, Note_off_c, 0, 55, 64
3, 42720, Note_on_c, 0, 54, 127
3, 42768, Note_off_c, 0, 54, 64
3, 42780, Note_on_c, 0, 55, 127
3, 42828, Note_off_c, 0, 55, 64
3, 42840, Note_on_c, 0, 57, 127
3, 42888, Note_off_c, 0, 57, 64
3, 42900, Note_on_c, 0, 54, 127
3, 42948, Note_off_c, 0, 54, 64
3, 42960, Note_on_c, 0, 50, 127
3, 43020, Note_on_c, 0, 57, 127
3, 43056, Note_off_c, 0, 50, 64
3, 43068, Note_off_c, 0, 57, 64
3, 43080, Note_on_c, 0, 54, 127
3, 43128, Note_off_c, 0, 54, 64
3, 43140, Note_on_c, 0, 50, 127
3, 43188, Note_off_c, 0, 50, 64
3, 43200, Note_on_c, 0, 48, 127
3, 43248, Note_off_c, 0, 48, 64
3, 43260, Note_on_c, 0, 57, 127
3, 43308, Note_off_c, 0, 57, 64
3, 43320, Note_on_c, 0, 54, 127
3, 43368, Note_off_c, 0, 54, 64
3, 43380, Note_on_c, 0, 48, 127
3, 43428, Note_off_c, 0, 48, 64
3, 43440, Note_on_c, 0, 57, 127
3, 43488, Note_off_c, 0, 57, 64
3, 43500, Note_on_c, 0, 51, 127
3, 43548, Note_off_c, 0, 51, 64
3, 43560, Note_on_c, 0, 50, 127
3, 43608, Note_off_c, 0, 50, 64
3, 43620, Note_on_c, 0, 48, 127
3, 43668, Note_off_c, 0, 48, 64
3, 43680, Note_on_c, 0, 47, 127
3, 43800, Note_on_c, 0, 55, 127
3, 43872, Note_off_c, 0, 47, 64
3, 43896, Note_off_c, 0, 55, 64
3, 43920, Note_on_c, 0, 49, 127
3, 43980, Note_on_c, 0, 55, 127
3, 44028, Note_off_c, 0, 55, 64
3, 44040, Note_on_c, 0, 54, 127
3, 44088, Note_off_c, 0, 54, 64
3, 44100, Note_on_c, 0, 52, 127
3, 44112, Note_off_c, 0, 49, 64
3, 44148, Note_off_c, 0, 52, 64
3, 44160, Note_on_c, 0, 57, 127
3, 44256, Note_off_c, 0, 57, 64
3, 44280, Note_on_c, 0, 54, 127
3, 44376, Note_off_c, 0, 54, 64
3, 44400, Note_on_c, 0, 47, 127
3, 44460, Note_on_c, 0, 54, 127
3, 44496, Note_off_c, 0, 47, 64
3, 44508, Note_off_c, 0, 54, 64
3, 44520, Note_on_c, 0, 52, 127
3, 44568, Note_off_c, 0, 52, 64
3, 44580, Note_on_c, 0, 50, 127
3, 44628, Note_off_c, 0, 50, 64
3, 44640, Note_on_c, 0, 55, 127
3, 44736, Note_off_c, 0, 55, 64
3, 44760, Note_on_c, 0, 52, 127
3, 44856, Note_off_c, 0, 52, 64
3, 44880, Note_on_c, 0, 45, 127
3, 44940, Note_on_c, 0, 52, 127
3, 44976, Note_off_c, 0, 45, 64
3, 44988, Note_off_c, 0, 52, 64
3, 45000, Note_on_c, 0, 50, 127
3, 45048, Note_off_c, 0, 50, 64
3, 45060, Note_on_c, 0, 49, 127
3, 45108, Note_off_c, 0, 49, 64
3, 45120, Note_on_c, 0, 42, 127
3, 45240, Note_on_c, 0, 50, 127
3, 45288, Note_off_c, 0, 50, 64
3, 45300, Note_on_c, 0, 52, 127
3, 45312, Note_off_c, 0, 42, 64
3, 45348, Note_off_c, 0, 52, 64
3, 45360, Note_on_c, 0, 54, 127
3, 45456, Note_off_c, 0, 54, 64
3, 45480, Note_on_c, 0, 50, 127
3, 45576, Note_off_c, 0, 50, 64
3, 45600, Note_on_c, 0, 43, 127
3, 45720, Note_on_c, 0, 52, 127
3, 45768, Note_off_c, 0, 52, 64
3, 45780, Note_on_c, 0, 54, 127
3, 45792, Note_off_c, 0, 43, 64
3, 45828, Note_off_c, 0, 54, 64
3, 45840, Note_on_c, 0, 55, 127
3, 45936, Note_off_c, 0, 55, 64
3, 45960, Note_on_c, 0, 52, 127
3, 46056, Note_off_c, 0, 52, 64
3, 46080, Note_on_c, 0, 45, 127
3, 46200, Note_on_c, 0, 54, 127
3, 46248, Note_off_c, 0, 54, 64
3, 46260, Note_on_c, 0, 55, 127
3, 46272, Note_off_c, 0, 45, 64
3, 46308, Note_off_c, 0, 55, 64
3, 46320, Note_on_c, 0, 57, 127
3, 46416, Note_off_c, 0, 57, 64
3, 46440, Note_on_c, 0, 54, 127
3, 46536, Note_off_c, 0, 54, 64
3, 46560, Note_on_c, 0, 47, 127
3, 46680, Note_on_c, 0, 55, 127
3, 46728, Note_off_c, 0, 55, 64
3, 46740, Note_on_c, 0, 57, 127
3, 46752, Note_off_c, 0, 47, 64
3, 46788, Note_off_c, 0, 57, 64
3, 46800, Note_on_c, 0, 59, 127
3, 46896, Note_off_c, 0, 59, 64
3, 46920, Note_on_c, 0, 55, 127
3, 47016, Note_off_c, 0, 55, 64
3, 47040, Note_on_c, 0, 45, 127
3, 47160, Note_on_c, 0, 55, 127
3, 47208, Note_off_c, 0, 55, 64
3, 47220, Note_on_c, 0, 54, 127
3, 47232, Note_off_c, 0, 45, 64
3, 47268, Note_off_c, 0, 54, 64
3, 47280, Note_on_c, 0, 52, 127
3, 47376, Note_off_c, 0, 52, 64
3, 47400, Note_on_c, 0, 55, 127
3, 47496, Note_off_c, 0, 55, 64
3, 47520, Note_on_c, 0, 45, 127
3, 47640, Note_on_c, 0, 54, 127
3, 47688, Note_off_c, 0, 54, 64
3, 47700, Note_on_c, 0, 52, 127
3, 47712, Note_off_c, 0, 45, 64
3, 47748, Note_off_c, 0, 52, 64
3, 47760, Note_on_c, 0, 50, 127
3, 47856, Note_off_c, 0, 50, 64
3, 47880, Note_on_c, 0, 54, 127
3, 47976, Note_off_c, 0, 54, 64
3, 48000, Note_on_c, 0, 45, 127
3, 48120, Note_on_c, 0, 52, 127
3, 48168, Note_off_c, 0, 52, 64
3, 48180, Note_on_c, 0, 50, 127
3, 48192, Note_off_c, 0, 45, 64
3, 48228, Note_off_c, 0, 50, 64
3, 48240, Note_on_c, 0, 49, 127
3, 48336, Note_off_c, 0, 49, 64
3, 48360, Note_on_c, 0, 52, 127
3, 48456, Note_off_c, 0, 52, 64
3, 48480, Note_on_c, 0, 45, 127
3, 48576, Note_off_c, 0, 45, 64
3, 48600, Note_on_c, 0, 50, 127
3, 48624, Note_off_c, 0, 50, 64
3, 48630, Note_on_c, 0, 49, 127
3, 48654, Note_off_c, 0, 49, 64
3, 48660, Note_on_c, 0, 50, 127
3, 48708, Note_off_c, 0, 50, 64
3, 48720, Note_on_c, 0, 45, 127
3, 48816, Note_off_c, 0, 45, 64
3, 48840, Note_on_c, 0, 52, 127
3, 48864, Note_off_c, 0, 52, 64
3, 48870, Note_on_c, 0, 50, 127
3, 48894, Note_off_c, 0, 50, 64
3, 48900, Note_on_c, 0, 52, 127
3, 48948, Note_off_c, 0, 52, 64
3, 48960, Note_on_c, 0, 45, 127
3, 49056, Note_off_c, 0, 45, 64
3, 49080, Note_on_c, 0, 54, 127
3, 49104, Note_off_c, 0, 54, 64
3, 49110, Note_on_c, 0, 52, 127
3, 49134, Note_off_c, 0, 52, 64
3, 49140, Note_on_c, 0, 54, 127
3, 49188, Note_off_c, 0, 54, 64
3, 49200, Note_on_c, 0, 45, 127
3, 49296, Note_off_c, 0, 45, 64
3, 49320, Note_on_c, 0, 55, 127
3, 49344, Note_off_c, 0, 55, 64
3, 49350, Note_on_c, 0, 54, 127
3, 49374, Note_off_c, 0, 54, 64
3, 49380, Note_on_c, 0, 55, 127
3, 49428, Note_off_c, 0, 55, 64
3, 49440, Note_on_c, 0, 57, 127
3, 49500, Note_on_c, 0, 55, 127
3, 49536, Note_off_c, 0, 57, 64
3, 49548, Note_off_c, 0, 55, 64
3, 49560, Note_on_c, 0, 54, 127
3, 49608, Note_off_c, 0, 54, 64
3, 49620, Note_on_c, 0, 55, 127
3, 49668, Note_off_c, 0, 55, 64
3, 49680, Note_on_c, 0, 57, 127
3, 49872, Note_off_c, 0, 57, 64
3, 49920, Note_on_c, 0, 57, 127
3, 50448, Note_off_c, 0, 57, 64
3, 50460, Note_on_c, 0, 62, 127
3, 50508, Note_off_c, 0, 62, 64
3, 50520, Note_on_c, 0, 64, 127
3, 50568, Note_off_c, 0, 64, 64
3, 50580, Note_on_c, 0, 66, 127
3, 50628, Note_off_c, 0, 66, 64
3, 50640, Note_on_c, 0, 64, 127
3, 50688, Note_off_c, 0, 64, 64
3, 50700, Note_on_c, 0, 62, 127
3, 50748, Note_off_c, 0, 62, 64
3, 50760, Note_on_c, 0, 61, 127
3, 50808, Note_off_c, 0, 61, 64
3, 50820, Note_on_c, 0, 59, 127
3, 50868, Note_off_c, 0, 59, 64
3, 50880, Note_on_c, 0, 57, 127
3, 51072, Note_off_c, 0, 57, 64
3, 51240, Note_on_c, 0, 57, 127
3, 51336, Note_off_c, 0, 57, 64
3, 51360, Note_on_c, 0, 59, 127
3, 51408, Note_off_c, 0, 59, 64
3, 51420, Note_on_c, 0, 57, 127
3, 51468, Note_off_c, 0, 57, 64
3, 51480, Note_on_c, 0, 59, 127
3, 51528, Note_off_c, 0, 59, 64
3, 51540, Note_on_c, 0, 62, 127
3, 51588, Note_off_c, 0, 62, 64
3, 51600, Note_on_c, 0, 61, 127
3, 51648, Note_off_c, 0, 61, 64
3, 51660, Note_on_c, 0, 62, 127
3, 51708, Note_off_c, 0, 62, 64
3, 51720, Note_on_c, 0, 61, 127
3, 51768, Note_off_c, 0, 61, 64
3, 51780, Note_on_c, 0, 59, 127
3, 51828, Note_off_c, 0, 59, 64
3, 51840, Note_on_c, 0, 57, 127
3, 51888, Note_off_c, 0, 57, 64
3, 51900, Note_on_c, 0, 55, 127
3, 51948, Note_off_c, 0, 55, 64
3, 51960, Note_on_c, 0, 54, 127
3, 52008, Note_off_c, 0, 54, 64
3, 52020, Note_on_c, 0, 52, 127
3, 52068, Note_off_c, 0, 52, 64
3, 52080, Note_on_c, 0, 50, 127
3, 52128, Note_off_c, 0, 50, 64
3, 52140, Note_on_c, 0, 52, 127
3, 52188, Note_off_c, 0, 52, 64
3, 52200, Note_on_c, 0, 54, 127
3, 52248, Note_off_c, 0, 54, 64
3, 52260, Note_on_c, 0, 55, 127
3, 52308, Note_off_c, 0, 55, 64
3, 52320, Note_on_c, 0, 57, 127
3, 52368, Note_off_c, 0, 57, 64
3, 52380, Note_on_c, 0, 55, 127
3, 52428, Note_off_c, 0, 55, 64
3, 52440, Note_on_c, 0, 57, 127
3, 52488, Note_off_c, 0, 57, 64
3, 52500, Note_on_c, 0, 59, 127
3, 52548, Note_off_c, 0, 59, 64
3, 52560, Note_on_c, 0, 57, 127
3, 52608, Note_off_c, 0, 57, 64
3, 52620, Note_on_c, 0, 55, 127
3, 52668, Note_off_c, 0, 55, 64
3, 52680, Note_on_c, 0, 54, 127
3, 52728, Note_off_c, 0, 54, 64
3, 52740, Note_on_c, 0, 52, 127
3, 52788, Note_off_c, 0, 52, 64
3, 52800, Note_on_c, 0, 50, 127
3, 52896, Note_off_c, 0, 50, 64
3, 53100, Note_on_c, 0, 57, 127
3, 53148, Note_off_c, 0, 57, 64
3, 53160, Note_on_c, 0, 62, 127
3, 53208, Note_off_c, 0, 62, 64
3, 53220, Note_on_c, 0, 66, 127
3, 53268, Note_off_c, 0, 66, 64
3, 53280, Note_on_c, 0, 67, 127
3, 53328, Note_off_c, 0, 67, 64
3, 53340, Note_on_c, 0, 64, 127
3, 53388, Note_off_c, 0, 64, 64
3, 53400, Note_on_c, 0, 66, 127
3, 53448, Note_off_c, 0, 66, 64
3, 53460, Note_on_c, 0, 67, 127
3, 53508, Note_off_c, 0, 67, 64
3, 53520, Note_on_c, 0, 69, 127
3, 53568, Note_off_c, 0, 69, 64
3, 53580, Note_on_c, 0, 67, 127
3, 53628, Note_off_c, 0, 67, 64
3, 53640, Note_on_c, 0, 66, 127
3, 53688, Note_off_c, 0, 66, 64
3, 53700, Note_on_c, 0, 64, 127
3, 53748, Note_off_c, 0, 64, 64
3, 53760, Note_on_c, 0, 62, 127
3, 53856, Note_off_c, 0, 62, 64
3, 53880, Note_on_c, 0, 67, 127
3, 53976, Note_off_c, 0, 67, 64
3, 54000, Note_on_c, 0, 67, 127
3, 54096, Note_off_c, 0, 67, 64
3, 54120, Note_on_c, 0, 67, 127
3, 54216, Note_off_c, 0, 67, 64
3, 54240, Note_on_c, 0, 67, 127
3, 54336, Note_off_c, 0, 67, 64
3, 54360, Note_on_c, 0, 65, 127
3, 54408, Note_off_c, 0, 65, 64
3, 54420, Note_on_c, 0, 64, 127
3, 54468, Note_off_c, 0, 64, 64
3, 54480, Note_on_c, 0, 65, 127
3, 54528, Note_off_c, 0, 65, 64
3, 54540, Note_on_c, 0, 64, 127
3, 54588, Note_off_c, 0, 64, 64
3, 54600, Note_on_c, 0, 62, 127
3, 54648, Note_off_c, 0, 62, 64
3, 54660, Note_on_c, 0, 65, 127
3, 54708, Note_off_c, 0, 65, 64
3, 54720, Note_on_c, 0, 64, 127
3, 54768, Note_off_c, 0, 64, 64
3, 54780, Note_on_c, 0, 62, 127
3, 54828, Note_off_c, 0, 62, 64
3, 54840, Note_on_c, 0, 60, 127
3, 54888, Note_off_c, 0, 60, 64
3, 54900, Note_on_c, 0, 64, 127
3, 54948, Note_off_c, 0, 64, 64
3, 54960, Note_on_c, 0, 62, 127
3, 55008, Note_off_c, 0, 62, 64
3, 55020, Note_on_c, 0, 65, 127
3, 55068, Note_off_c, 0, 65, 64
3, 55080, Note_on_c, 0, 64, 127
3, 55128, Note_off_c, 0, 64, 64
3, 55140, Note_on_c, 0, 67, 127
3, 55188, Note_off_c, 0, 67, 64
3, 55200, Note_on_c, 0, 65, 127
3, 55248, Note_off_c, 0, 65, 64
3, 55260, Note_on_c, 0, 62, 127
3, 55308, Note_off_c, 0, 62, 64
3, 55320, Note_on_c, 0, 64, 127
3, 55368, Note_off_c, 0, 64, 64
3, 55380, Note_on_c, 0, 65, 127
3, 55428, Note_off_c, 0, 65, 64
3, 55440, Note_on_c, 0, 67, 127
3, 55488, Note_off_c, 0, 67, 64
3, 55500, Note_on_c, 0, 65, 127
3, 55548, Note_off_c, 0, 65, 64
3, 55560, Note_on_c, 0, 64, 127
3, 55608, Note_off_c, 0, 64, 64
3, 55620, Note_on_c, 0, 62, 127
3, 55668, Note_off_c, 0, 62, 64
3, 55680, Note_on_c, 0, 60, 127
3, 55728, Note_off_c, 0, 60, 64
3, 55740, Note_on_c, 0, 59, 127
3, 55788, Note_off_c, 0, 59, 64
3, 55800, Note_on_c, 0, 60, 127
3, 55848, Note_off_c, 0, 60, 64
3, 55860, Note_on_c, 0, 62, 127
3, 55908, Note_off_c, 0, 62, 64
3, 55920, Note_on_c, 0, 60, 127
3, 55968, Note_off_c, 0, 60, 64
3, 55980, Note_on_c, 0, 64, 127
3, 56028, Note_off_c, 0, 64, 64
3, 56040, Note_on_c, 0, 62, 127
3, 56088, Note_off_c, 0, 62, 64
3, 56100, Note_on_c, 0, 60, 127
3, 56148, Note_off_c, 0, 60, 64
3, 56160, Note_on_c, 0, 59, 127
3, 56208, Note_off_c, 0, 59, 64
3, 56220, Note_on_c, 0, 62, 127
3, 56268, Note_off_c, 0, 62, 64
3, 56280, Note_on_c, 0, 56, 127
3, 56328, Note_off_c, 0, 56, 64
3, 56340, Note_on_c, 0, 59, 127
3, 56388, Note_off_c, 0, 59, 64
3, 56400, Note_on_c, 0, 60, 127
3, 56448, Note_off_c, 0, 60, 64
3, 56460, Note_on_c, 0, 64, 127
3, 56508, Note_off_c, 0, 64, 64
3, 56520, Note_on_c, 0, 62, 127
3, 56568, Note_off_c, 0, 62, 64
3, 56580, Note_on_c, 0, 59, 127
3, 56628, Note_off_c, 0, 59, 64
3, 56640, Note_on_c, 0, 64, 127
3, 56688, Note_off_c, 0, 64, 64
3, 56700, Note_on_c, 0, 62, 127
3, 56748, Note_off_c, 0, 62, 64
3, 56760, Note_on_c, 0, 60, 127
3, 56808, Note_off_c, 0, 60, 64
3, 56820, Note_on_c, 0, 62, 127
3, 56868, Note_off_c, 0, 62, 64
3, 56880, Note_on_c, 0, 64, 127
3, 56928, Note_off_c, 0, 64, 64
3, 56940, Note_on_c, 0, 60, 127
3, 56988, Note_off_c, 0, 60, 64
3, 57000, Note_on_c, 0, 59, 127
3, 57048, Note_off_c, 0, 59, 64
3, 57060, Note_on_c, 0, 57, 127
3, 57108, Note_off_c, 0, 57, 64
3, 57120, Note_on_c, 0, 64, 127
3, 57216, Note_off_c, 0, 64, 64
3, 57240, Note_on_c, 0, 59, 127
3, 57336, Note_off_c, 0, 59, 64
3, 57360, Note_on_c, 0, 64, 127
3, 57648, Note_off_c, 0, 64, 64
3, 57660, Note_on_c, 0, 64, 127
3, 57708, Note_off_c, 0, 64, 64
3, 57720, Note_on_c, 0, 68, 127
3, 57768, Note_off_c, 0, 68, 64
3, 57780, Note_on_c, 0, 64, 127
3, 57828, Note_off_c, 0, 64, 64
3, 57840, Note_on_c, 0, 69, 127
3, 58128, Note_off_c, 0, 69, 64
3, 58140, Note_on_c, 0, 69, 127
3, 58188, Note_off_c, 0, 69, 64
3, 58200, Note_on_c, 0, 65, 127
3, 58248, Note_off_c, 0, 65, 64
3, 58260, Note_on_c, 0, 69, 127
3, 58308, Note_off_c, 0, 69, 64
3, 58320, Note_on_c, 0, 62, 127
3, 58608, Note_off_c, 0, 62, 64
3, 58620, Note_on_c, 0, 65, 127
3, 58668, Note_off_c, 0, 65, 64
3, 58680, Note_on_c, 0, 59, 127
3, 58728, Note_off_c, 0, 59, 64
3, 58740, Note_on_c, 0, 62, 127
3, 58788, Note_off_c, 0, 62, 64
3, 58800, Note_on_c, 0, 60, 127
3, 59136, Note_off_c, 0, 60, 64
3, 59160, Note_on_c, 0, 65, 127
3, 59256, Note_off_c, 0, 65, 64
3, 59280, Note_on_c, 0, 64, 127
3, 59633, Note_off_c, 0, 64, 64
3, 59640, Note_on_c, 0, 64, 127
3, 59753, Note_off_c, 0, 64, 64
3, 59760, Note_on_c, 0, 69, 127
3, 59873, Note_off_c, 0, 69, 64
3, 59880, Note_on_c, 0, 69, 127
3, 59993, Note_off_c, 0, 69, 64
3, 60000, Note_on_c, 0, 69, 127
3, 60096, Note_off_c, 0, 69, 64
3, 60120, Note_on_c, 0, 67, 127
3, 60168, Note_off_c, 0, 67, 64
3, 60180, Note_on_c, 0, 66, 127
3, 60228, Note_off_c, 0, 66, 64
3, 60240, Note_on_c, 0, 67, 127
3, 60336, Note_off_c, 0, 67, 64
3, 60360, Note_on_c, 0, 67, 127
3, 60456, Note_off_c, 0, 67, 64
3, 60480, Note_on_c, 0, 67, 127
3, 60576, Note_off_c, 0, 67, 64
3, 60600, Note_on_c, 0, 66, 127
3, 60648, Note_off_c, 0, 66, 64
3, 60660, Note_on_c, 0, 64, 127
3, 60708, Note_off_c, 0, 64, 64
3, 60720, Note_on_c, 0, 66, 127
3, 60816, Note_off_c, 0, 66, 64
3, 60840, Note_on_c, 0, 71, 127
3, 60936, Note_off_c, 0, 71, 64
3, 60960, Note_on_c, 0, 67, 127
3, 61056, Note_off_c, 0, 67, 64
3, 61080, Note_on_c, 0, 64, 127
3, 61176, Note_off_c, 0, 64, 64
3, 61200, Note_on_c, 0, 69, 127
3, 61296, Note_off_c, 0, 69, 64
3, 61320, Note_on_c, 0, 66, 127
3, 61416, Note_off_c, 0, 66, 64
3, 61440, Note_on_c, 0, 62, 127
3, 61536, Note_off_c, 0, 62, 64
3, 61560, Note_on_c, 0, 47, 127
3, 61608, Note_off_c, 0, 47, 64
3, 61620, Note_on_c, 0, 45, 127
3, 61668, Note_off_c, 0, 45, 64
3, 61680, Note_on_c, 0, 47, 127
3, 61776, Note_off_c, 0, 47, 64
3, 61800, Note_on_c, 0, 47, 127
3, 61896, Note_off_c, 0, 47, 64
3, 61920, Note_on_c, 0, 64, 127
3, 62016, Note_off_c, 0, 64, 64
3, 62040, Note_on_c, 0, 60, 127
3, 62136, Note_off_c, 0, 60, 64
3, 62160, Note_on_c, 0, 59, 127
3, 62256, Note_off_c, 0, 59, 64
3, 62280, Note_on_c, 0, 55, 127
3, 62496, Note_off_c, 0, 55, 64
3, 62520, Note_on_c, 0, 55, 127
3, 62616, Note_off_c, 0, 55, 64
3, 62640, Note_on_c, 0, 60, 127
3, 62976, Note_off_c, 0, 60, 64
3, 63000, Note_on_c, 0, 59, 127
3, 63048, Note_off_c, 0, 59, 64
3, 63060, Note_on_c, 0, 57, 127
3, 63108, Note_off_c, 0, 57, 64
3, 63120, Note_on_c, 0, 59, 127
3, 63216, Note_off_c, 0, 59, 64
3, 63240, Note_on_c, 0, 58, 127
3, 63336, Note_off_c, 0, 58, 64
3, 63360, Note_on_c, 0, 57, 127
3, 63408, Note_off_c, 0, 57, 64
3, 63420, Note_on_c, 0, 55, 127
3, 63468, Note_off_c, 0, 55, 64
3, 63480, Note_on_c, 0, 57, 127
3, 63528, Note_off_c, 0, 57, 64
3, 63540, Note_on_c, 0, 58, 127
3, 63588, Note_off_c, 0, 58, 64
3, 63600, Note_on_c, 0, 57, 127
3, 63648, Note_off_c, 0, 57, 64
3, 63660, Note_on_c, 0, 55, 127
3, 63708, Note_off_c, 0, 55, 64
3, 63720, Note_on_c, 0, 54, 127
3, 63768, Note_off_c, 0, 54, 64
3, 63780, Note_on_c, 0, 52, 127
3, 63828, Note_off_c, 0, 52, 64
3, 63840, Note_on_c, 0, 50, 127
3, 63888, Note_off_c, 0, 50, 64
3, 63900, Note_on_c, 0, 54, 127
3, 63948, Note_off_c, 0, 54, 64
3, 63960, Note_on_c, 0, 55, 127
3, 64008, Note_off_c, 0, 55, 64
3, 64020, Note_on_c, 0, 57, 127
3, 64068, Note_off_c, 0, 57, 64
3, 64080, Note_on_c, 0, 58, 127
3, 64128, Note_off_c, 0, 58, 64
3, 64140, Note_on_c, 0, 55, 127
3, 64188, Note_off_c, 0, 55, 64
3, 64200, Note_on_c, 0, 57, 127
3, 64248, Note_off_c, 0, 57, 64
3, 64260, Note_on_c, 0, 58, 127
3, 64308, Note_off_c, 0, 58, 64
3, 64320, Note_on_c, 0, 60, 127
3, 64848, Note_off_c, 0, 60, 64
3, 64860, Note_on_c, 0, 63, 127
3, 64908, Note_off_c, 0, 63, 64
3, 64920, Note_on_c, 0, 62, 127
3, 64968, Note_off_c, 0, 62, 64
3, 64980, Note_on_c, 0, 60, 127
3, 65028, Note_off_c, 0, 60, 64
3, 65040, Note_on_c, 0, 59, 127
3, 65088, Note_off_c, 0, 59, 64
3, 65100, Note_on_c, 0, 62, 127
3, 65148, Note_off_c, 0, 62, 64
3, 65160, Note_on_c, 0, 60, 127
3, 65208, Note_off_c, 0, 60, 64
3, 65220, Note_on_c, 0, 59, 127
3, 65268, Note_off_c, 0, 59, 64
3, 65280, Note_on_c, 0, 57, 127
3, 65472, Note_off_c, 0, 57, 64
3, 65520, Note_on_c, 0, 62, 127
3, 65712, Note_off_c, 0, 62, 64
3, 65760, Note_on_c, 0, 62, 127
3, 65952, Note_off_c, 0, 62, 64
3, 66120, Note_on_c, 0, 55, 127
3, 66120, Note_on_c, 0, 59, 127
3, 66216, Note_off_c, 0, 59, 64
3, 66216, Note_off_c, 0, 55, 64
3, 66240, Note_on_c, 0, 60, 127
3, 66240, Note_on_c, 0, 55, 127
3, 66432, Note_off_c, 0, 55, 64
3, 66432, Note_off_c, 0, 60, 64
3, 66600, Note_on_c, 0, 60, 127
3, 66713, Note_off_c, 0, 60, 64
3, 66720, Note_on_c, 0, 57, 127
3, 66912, Note_off_c, 0, 57, 64
3, 66960, Note_on_c, 0, 57, 127
3, 67008, Note_off_c, 0, 57, 64
3, 67020, Note_on_c, 0, 60, 127
3, 67068, Note_off_c, 0, 60, 64
3, 67080, Note_on_c, 0, 58, 127
3, 67128, Note_off_c, 0, 58, 64
3, 67140, Note_on_c, 0, 57, 127
3, 67188, Note_off_c, 0, 57, 64
3, 67200, Note_on_c, 0, 55, 127
3, 67248, Note_off_c, 0, 55, 64
3, 67260, Note_on_c, 0, 53, 127
3, 67308, Note_off_c, 0, 53, 64
3, 67320, Note_on_c, 0, 51, 127
3, 67368, Note_off_c, 0, 51, 64
3, 67380, Note_on_c, 0, 55, 127
3, 67428, Note_off_c, 0, 55, 64
3, 67440, Note_on_c, 0, 50, 127
3, 67488, Note_off_c, 0, 50, 64
3, 67500, Note_on_c, 0, 53, 127
3, 67548, Note_off_c, 0, 53, 64
3, 67560, Note_on_c, 0, 52, 127
3, 67608, Note_off_c, 0, 52, 64
3, 67620, Note_on_c, 0, 50, 127
3, 67668, Note_off_c, 0, 50, 64
3, 67680, Note_on_c, 0, 49, 127
3, 67872, Note_off_c, 0, 49, 64
3, 68160, Note_on_c, 0, 50, 127
3, 68160, Note_on_c, 0, 57, 127
3, 68256, Note_off_c, 0, 57, 64
3, 68256, Note_off_c, 0, 50, 64
3, 68640, Note_on_c, 0, 59, 127
3, 68688, Note_off_c, 0, 59, 64
3, 68700, Note_on_c, 0, 57, 127
3, 68748, Note_off_c, 0, 57, 64
3, 68760, Note_on_c, 0, 59, 127
3, 68808, Note_off_c, 0, 59, 64
3, 68820, Note_on_c, 0, 60, 127
3, 68868, Note_off_c, 0, 60, 64
3, 68880, Note_on_c, 0, 59, 127
3, 68928, Note_off_c, 0, 59, 64
3, 68940, Note_on_c, 0, 60, 127
3, 68988, Note_off_c, 0, 60, 64
3, 69000, Note_on_c, 0, 57, 127
3, 69048, Note_off_c, 0, 57, 64
3, 69060, Note_on_c, 0, 59, 127
3, 69108, Note_off_c, 0, 59, 64
3, 69120, Note_on_c, 0, 60, 127
3, 69168, Note_off_c, 0, 60, 64
3, 69180, Note_on_c, 0, 59, 127
3, 69228, Note_off_c, 0, 59, 64
3, 69240, Note_on_c, 0, 60, 127
3, 69288, Note_off_c, 0, 60, 64
3, 69300, Note_on_c, 0, 62, 127
3, 69348, Note_off_c, 0, 62, 64
3, 69360, Note_on_c, 0, 60, 127
3, 69408, Note_off_c, 0, 60, 64
3, 69420, Note_on_c, 0, 62, 127
3, 69468, Note_off_c, 0, 62, 64
3, 69480, Note_on_c, 0, 59, 127
3, 69528, Note_off_c, 0, 59, 64
3, 69540, Note_on_c, 0, 60, 127
3, 69588, Note_off_c, 0, 60, 64
3, 69600, Note_on_c, 0, 62, 127
3, 69648, Note_off_c, 0, 62, 64
3, 69660, Note_on_c, 0, 60, 127
3, 69708, Note_off_c, 0, 60, 64
3, 69720, Note_on_c, 0, 62, 127
3, 69768, Note_off_c, 0, 62, 64
3, 69780, Note_on_c, 0, 64, 127
3, 69828, Note_off_c, 0, 64, 64
3, 69840, Note_on_c, 0, 62, 127
3, 69888, Note_off_c, 0, 62, 64
3, 69900, Note_on_c, 0, 64, 127
3, 69948, Note_off_c, 0, 64, 64
3, 69960, Note_on_c, 0, 60, 127
3, 70008, Note_off_c, 0, 60, 64
3, 70020, Note_on_c, 0, 62, 127
3, 70068, Note_off_c, 0, 62, 64
3, 70080, Note_on_c, 0, 64, 127
3, 70128, Note_off_c, 0, 64, 64
3, 70140, Note_on_c, 0, 62, 127
3, 70188, Note_off_c, 0, 62, 64
3, 70200, Note_on_c, 0, 64, 127
3, 70248, Note_off_c, 0, 64, 64
3, 70260, Note_on_c, 0, 66, 127
3, 70308, Note_off_c, 0, 66, 64
3, 70320, Note_on_c, 0, 64, 127
3, 70368, Note_off_c, 0, 64, 64
3, 70380, Note_on_c, 0, 66, 127
3, 70428, Note_off_c, 0, 66, 64
3, 70440, Note_on_c, 0, 62, 127
3, 70488, Note_off_c, 0, 62, 64
3, 70500, Note_on_c, 0, 64, 127
3, 70548, Note_off_c, 0, 64, 64
3, 70560, Note_on_c, 0, 66, 127
3, 70608, Note_off_c, 0, 66, 64
3, 70620, Note_on_c, 0, 69, 127
3, 70668, Note_off_c, 0, 69, 64
3, 70680, Note_on_c, 0, 67, 127
3, 70728, Note_off_c, 0, 67, 64
3, 70740, Note_on_c, 0, 66, 127
3, 70788, Note_off_c, 0, 66, 64
3, 70800, Note_on_c, 0, 64, 127
3, 70848, Note_off_c, 0, 64, 64
3, 70860, Note_on_c, 0, 62, 127
3, 70908, Note_off_c, 0, 62, 64
3, 70920, Note_on_c, 0, 60, 127
3, 70968, Note_off_c, 0, 60, 64
3, 70980, Note_on_c, 0, 59, 127
3, 71028, Note_off_c, 0, 59, 64
3, 71040, Note_on_c, 0, 60, 127
3, 71088, Note_off_c, 0, 60, 64
3, 71100, Note_on_c, 0, 59, 127
3, 71148, Note_off_c, 0, 59, 64
3, 71160, Note_on_c, 0, 60, 127
3, 71208, Note_off_c, 0, 60, 64
3, 71220, Note_on_c, 0, 62, 127
3, 71268, Note_off_c, 0, 62, 64
3, 71280, Note_on_c, 0, 60, 127
3, 71328, Note_off_c, 0, 60, 64
3, 71340, Note_on_c, 0, 64, 127
3, 71388, Note_off_c, 0, 64, 64
3, 71400, Note_on_c, 0, 62, 127
3, 71448, Note_off_c, 0, 62, 64
3, 71460, Note_on_c, 0, 60, 127
3, 71508, Note_off_c, 0, 60, 64
3, 71520, Note_on_c, 0, 59, 127
3, 71568, Note_off_c, 0, 59, 64
3, 71580, Note_on_c, 0, 57, 127
3, 71628, Note_off_c, 0, 57, 64
3, 71640, Note_on_c, 0, 59, 127
3, 71688, Note_off_c, 0, 59, 64
3, 71700, Note_on_c, 0, 60, 127
3, 71748, Note_off_c, 0, 60, 64
3, 71760, Note_on_c, 0, 59, 127
3, 71808, Note_off_c, 0, 59, 64
3, 71820, Note_on_c, 0, 60, 127
3, 71868, Note_off_c, 0, 60, 64
3, 71880, Note_on_c, 0, 57, 127
3, 71928, Note_off_c, 0, 57, 64
3, 71940, Note_on_c, 0, 59, 127
3, 71988, Note_off_c, 0, 59, 64
3, 72000, Note_on_c, 0, 61, 127
3, 72048, Note_off_c, 0, 61, 64
3, 72060, Note_on_c, 0, 59, 127
3, 72108, Note_off_c, 0, 59, 64
3, 72120, Note_on_c, 0, 61, 127
3, 72168, Note_off_c, 0, 61, 64
3, 72180, Note_on_c, 0, 62, 127
3, 72228, Note_off_c, 0, 62, 64
3, 72240, Note_on_c, 0, 61, 127
3, 72288, Note_off_c, 0, 61, 64
3, 72300, Note_on_c, 0, 62, 127
3, 72348, Note_off_c, 0, 62, 64
3, 72360, Note_on_c, 0, 59, 127
3, 72408, Note_off_c, 0, 59, 64
3, 72420, Note_on_c, 0, 61, 127
3, 72468, Note_off_c, 0, 61, 64
3, 72480, Note_on_c, 0, 62, 127
3, 72528, Note_off_c, 0, 62, 64
3, 72540, Note_on_c, 0, 61, 127
3, 72588, Note_off_c, 0, 61, 64
3, 72600, Note_on_c, 0, 62, 127
3, 72648, Note_off_c, 0, 62, 64
3, 72660, Note_on_c, 0, 64, 127
3, 72708, Note_off_c, 0, 64, 64
3, 72720, Note_on_c, 0, 62, 127
3, 72768, Note_off_c, 0, 62, 64
3, 72780, Note_on_c, 0, 64, 127
3, 72828, Note_off_c, 0, 64, 64
3, 72840, Note_on_c, 0, 66, 127
3, 72888, Note_off_c, 0, 66, 64
3, 72900, Note_on_c, 0, 62, 127
3, 72948, Note_off_c, 0, 62, 64
3, 72960, Note_on_c, 0, 67, 127
3, 73488, Note_off_c, 0, 67, 64
3, 73500, Note_on_c, 0, 67, 127
3, 73548, Note_off_c, 0, 67, 64
3, 73560, Note_on_c, 0, 69, 127
3, 73608, Note_off_c, 0, 69, 64
3, 73620, Note_on_c, 0, 71, 127
3, 73668, Note_off_c, 0, 71, 64
3, 73680, Note_on_c, 0, 72, 127
3, 73776, Note_off_c, 0, 72, 64
3, 73800, Note_on_c, 0, 72, 127
3, 73896, Note_off_c, 0, 72, 64
3, 73920, Note_on_c, 0, 72, 127
3, 74016, Note_off_c, 0, 72, 64
3, 74040, Note_on_c, 0, 71, 127
3, 74088, Note_off_c, 0, 71, 64
3, 74100, Note_on_c, 0, 69, 127
3, 74148, Note_off_c, 0, 69, 64
3, 74160, Note_on_c, 0, 67, 127
3, 74256, Note_off_c, 0, 67, 64
3, 74280, Note_on_c, 0, 71, 127
3, 74496, Note_off_c, 0, 71, 64
3, 74520, Note_on_c, 0, 72, 127
3, 74568, Note_off_c, 0, 72, 64
3, 74580, Note_on_c, 0, 71, 127
3, 74628, Note_off_c, 0, 71, 64
3, 74640, Note_on_c, 0, 69, 127
3, 74832, Note_off_c, 0, 69, 64
3, 74880, Note_on_c, 0, 67, 127
3, 75000, Note_on_c, 0, 55, 127
3, 75072, Note_off_c, 0, 67, 64
3, 75096, Note_off_c, 0, 55, 64
3, 75120, Note_on_c, 0, 55, 127
3, 75216, Note_off_c, 0, 55, 64
3, 75240, Note_on_c, 0, 62, 127
3, 75240, Note_on_c, 0, 55, 127
3, 75336, Note_off_c, 0, 55, 64
3, 75336, Note_off_c, 0, 62, 64
3, 75360, Note_on_c, 0, 60, 127
3, 75360, Note_on_c, 0, 64, 127
3, 75456, Note_off_c, 0, 60, 64
3, 75480, Note_on_c, 0, 60, 127
3, 75552, Note_off_c, 0, 64, 64
3, 75576, Note_off_c, 0, 60, 64
3, 75600, Note_on_c, 0, 60, 127
3, 75696, Note_off_c, 0, 60, 64
3, 75720, Note_on_c, 0, 64, 127
3, 75720, Note_on_c, 0, 60, 127
3, 75816, Note_off_c, 0, 60, 64
3, 75816, Note_off_c, 0, 64, 64
3, 75840, Note_on_c, 0, 60, 127
3, 75840, Note_on_c, 0, 65, 127
3, 75936, Note_off_c, 0, 60, 64
3, 75960, Note_on_c, 0, 59, 127
3, 76008, Note_off_c, 0, 59, 64
3, 76020, Note_on_c, 0, 57, 127
3, 76032, Note_off_c, 0, 65, 64
3, 76068, Note_off_c, 0, 57, 64
3, 76080, Note_on_c, 0, 59, 127
3, 76176, Note_off_c, 0, 59, 64
3, 76200, Note_on_c, 0, 65, 127
3, 76200, Note_on_c, 0, 55, 127
3, 76296, Note_off_c, 0, 55, 64
3, 76296, Note_off_c, 0, 65, 64
3, 76320, Note_on_c, 0, 67, 127
3, 76320, Note_on_c, 0, 64, 127
3, 76416, Note_off_c, 0, 64, 64
3, 76440, Note_on_c, 0, 64, 127
3, 76536, Note_off_c, 0, 64, 64
3, 76560, Note_on_c, 0, 64, 127
3, 76608, Note_off_c, 0, 67, 64
3, 76620, Note_on_c, 0, 69, 127
3, 76656, Note_off_c, 0, 64, 64
3, 76668, Note_off_c, 0, 69, 64
3, 76680, Note_on_c, 0, 64, 127
3, 76680, Note_on_c, 0, 67, 127
3, 76728, Note_off_c, 0, 67, 64
3, 76740, Note_on_c, 0, 66, 127
3, 76776, Note_off_c, 0, 64, 64
3, 76788, Note_off_c, 0, 66, 64
3, 76800, Note_on_c, 0, 64, 127
3, 76800, Note_on_c, 0, 67, 127
3, 76896, Note_off_c, 0, 64, 64
3, 76920, Note_on_c, 0, 62, 127
3, 76968, Note_off_c, 0, 62, 64
3, 76980, Note_on_c, 0, 60, 127
3, 77028, Note_off_c, 0, 60, 64
3, 77040, Note_on_c, 0, 62, 127
3, 77136, Note_off_c, 0, 62, 64
3, 77160, Note_on_c, 0, 62, 127
3, 77256, Note_off_c, 0, 62, 64
3, 77280, Note_on_c, 0, 62, 127
3, 77376, Note_off_c, 0, 62, 64
3, 77376, Note_off_c, 0, 67, 64
3, 77400, Note_on_c, 0, 55, 127
3, 77400, Note_on_c, 0, 71, 127
3, 77496, Note_off_c, 0, 71, 64
3, 77496, Note_off_c, 0, 55, 64
3, 77520, Note_on_c, 0, 60, 127
3, 77520, Note_on_c, 0, 72, 127
3, 77712, Note_off_c, 0, 72, 64
3, 77760, Note_on_c, 0, 67, 127
3, 77760, Note_on_c, 0, 67, 127
3, 77856, Note_off_c, 0, 60, 64
3, 77880, Note_on_c, 0, 62, 127
3, 77928, Note_off_c, 0, 62, 64
3, 77940, Note_on_c, 0, 60, 127
3, 77952, Note_off_c, 0, 67, 64
3, 77988, Note_off_c, 0, 60, 64
3, 78000, Note_on_c, 0, 62, 127
3, 78000, Note_on_c, 0, 59, 127
3, 78048, Note_off_c, 0, 59, 64
3, 78060, Note_on_c, 0, 60, 127
3, 78108, Note_off_c, 0, 60, 64
3, 78120, Note_on_c, 0, 57, 127
3, 78144, Note_off_c, 0, 67, 64
3, 78168, Note_off_c, 0, 57, 64
3, 78180, Note_on_c, 0, 59, 127
3, 78192, Note_off_c, 0, 62, 64
3, 78228, Note_off_c, 0, 59, 64
3, 78240, Note_on_c, 0, 63, 127
3, 78240, Note_on_c, 0, 69, 127
3, 78240, Note_on_c, 0, 60, 127
3, 78624, Note_off_c, 0, 60, 64
3, 78624, Note_off_c, 0, 69, 64
3, 78624, Note_off_c, 0, 63, 64
3, 78720, Note_on_c, 0, 62, 127
3, 78720, Note_on_c, 0, 67, 127
3, 78720, Note_on_c, 0, 55, 127
3, 79488, Note_off_c, 0, 55, 64
3, 79488, Note_off_c, 0, 67, 64
3, 79488, Note_off_c, 0, 62, 64
3, 79488, End_track
4, 0, Start_track
4, 0, Title_t, "Copyright 1998(c), G. Bricault"
4, 0, Program_c, 0, 19
4, 0, Control_c, 0, 7, 127
4, 6840, Note_on_c, 0, 50, 127
4, 6936, Note_off_c, 0, 50, 64
4, 6960, Note_on_c, 0, 50, 127
4, 7056, Note_off_c, 0, 50, 64
4, 7080, Note_on_c, 0, 50, 127
4, 7176, Note_off_c, 0, 50, 64
4, 7200, Note_on_c, 0, 55, 127
4, 7296, Note_off_c, 0, 55, 64
4, 7320, Note_on_c, 0, 55, 127
4, 7416, Note_off_c, 0, 55, 64
4, 7440, Note_on_c, 0, 55, 127
4, 7536, Note_off_c, 0, 55, 64
4, 7560, Note_on_c, 0, 55, 127
4, 7656, Note_off_c, 0, 55, 64
4, 7680, Note_on_c, 0, 55, 127
4, 7776, Note_off_c, 0, 55, 64
4, 7800, Note_on_c, 0, 54, 127
4, 7848, Note_off_c, 0, 54, 64
4, 7860, Note_on_c, 0, 52, 127
4, 7908, Note_off_c, 0, 52, 64
4, 7920, Note_on_c, 0, 54, 127
4, 8016, Note_off_c, 0, 54, 64
4, 8040, Note_on_c, 0, 50, 127
4, 8136, Note_off_c, 0, 50, 64
4, 8160, Note_on_c, 0, 59, 127
4, 8256, Note_off_c, 0, 59, 64
4, 8280, Note_on_c, 0, 59, 127
4, 8376, Note_off_c, 0, 59, 64
4, 8400, Note_on_c, 0, 59, 127
4, 8496, Note_off_c, 0, 59, 64
4, 8520, Note_on_c, 0, 59, 127
4, 8616, Note_off_c, 0, 59, 64
4, 8640, Note_on_c, 0, 59, 127
4, 8736, Note_off_c, 0, 59, 64
4, 8760, Note_on_c, 0, 57, 127
4, 8808, Note_off_c, 0, 57, 64
4, 8820, Note_on_c, 0, 55, 127
4, 8868, Note_off_c, 0, 55, 64
4, 8880, Note_on_c, 0, 57, 127
4, 8976, Note_off_c, 0, 57, 64
4, 9000, Note_on_c, 0, 57, 127
4, 9096, Note_off_c, 0, 57, 64
4, 9120, Note_on_c, 0, 57, 127
4, 9216, Note_off_c, 0, 57, 64
4, 9240, Note_on_c, 0, 50, 127
4, 9336, Note_off_c, 0, 50, 64
4, 9360, Note_on_c, 0, 55, 127
4, 9792, Note_off_c, 0, 55, 64
4, 9840, Note_on_c, 0, 54, 127
4, 10032, Note_off_c, 0, 54, 64
4, 10080, Note_on_c, 0, 55, 127
4, 10272, Note_off_c, 0, 55, 64
4, 10440, Note_on_c, 0, 55, 127
4, 10536, Note_off_c, 0, 55, 64
4, 10560, Note_on_c, 0, 57, 127
4, 10656, Note_off_c, 0, 57, 64
4, 10680, Note_on_c, 0, 55, 127
4, 10776, Note_off_c, 0, 55, 64
4, 10800, Note_on_c, 0, 57, 127
4, 10896, Note_off_c, 0, 57, 64
4, 10920, Note_on_c, 0, 54, 127
4, 11016, Note_off_c, 0, 54, 64
4, 11040, Note_on_c, 0, 59, 127
4, 11136, Note_off_c, 0, 59, 64
4, 11160, Note_on_c, 0, 57, 127
4, 11256, Note_off_c, 0, 57, 64
4, 11280, Note_on_c, 0, 55, 127
4, 11376, Note_off_c, 0, 55, 64
4, 11400, Note_on_c, 0, 54, 127
4, 11496, Note_off_c, 0, 54, 64
4, 11520, Note_on_c, 0, 52, 127
4, 11616, Note_off_c, 0, 52, 64
4, 11640, Note_on_c, 0, 50, 127
4, 11736, Note_off_c, 0, 50, 64
4, 11760, Note_on_c, 0, 49, 127
4, 11856, Note_off_c, 0, 49, 64
4, 11880, Note_on_c, 0, 47, 127
4, 11976, Note_off_c, 0, 47, 64
4, 12000, Note_on_c, 0, 45, 127
4, 12096, Note_off_c, 0, 45, 64
4, 12120, Note_on_c, 0, 55, 127
4, 12216, Note_off_c, 0, 55, 64
4, 12240, Note_on_c, 0, 54, 127
4, 12336, Note_off_c, 0, 54, 64
4, 12360, Note_on_c, 0, 52, 127
4, 12456, Note_off_c, 0, 52, 64
4, 12480, Note_on_c, 0, 50, 127
4, 12528, Note_off_c, 0, 50, 64
4, 12540, Note_on_c, 0, 54, 127
4, 12588, Note_off_c, 0, 54, 64
4, 12600, Note_on_c, 0, 52, 127
4, 12648, Note_off_c, 0, 52, 64
4, 12660, Note_on_c, 0, 54, 127
4, 12708, Note_off_c, 0, 54, 64
4, 12720, Note_on_c, 0, 50, 127
4, 12768, Note_off_c, 0, 50, 64
4, 12780, Note_on_c, 0, 52, 127
4, 12828, Note_off_c, 0, 52, 64
4, 12840, Note_on_c, 0, 49, 127
4, 12888, Note_off_c, 0, 49, 64
4, 12900, Note_on_c, 0, 50, 127
4, 12948, Note_off_c, 0, 50, 64
4, 12960, Note_on_c, 0, 47, 127
4, 13008, Note_off_c, 0, 47, 64
4, 13020, Note_on_c, 0, 52, 127
4, 13068, Note_off_c, 0, 52, 64
4, 13080, Note_on_c, 0, 50, 127
4, 13128, Note_off_c, 0, 50, 64
4, 13140, Note_on_c, 0, 52, 127
4, 13188, Note_off_c, 0, 52, 64
4, 13200, Note_on_c, 0, 49, 127
4, 13248, Note_off_c, 0, 49, 64
4, 13260, Note_on_c, 0, 50, 127
4, 13308, Note_off_c, 0, 50, 64
4, 13320, Note_on_c, 0, 47, 127
4, 13368, Note_off_c, 0, 47, 64
4, 13380, Note_on_c, 0, 49, 127
4, 13428, Note_off_c, 0, 49, 64
4, 13440, Note_on_c, 0, 45, 127
4, 13488, Note_off_c, 0, 45, 64
4, 13500, Note_on_c, 0, 57, 127
4, 13548, Note_off_c, 0, 57, 64
4, 13560, Note_on_c, 0, 55, 127
4, 13608, Note_off_c, 0, 55, 64
4, 13620, Note_on_c, 0, 57, 127
4, 13668, Note_off_c, 0, 57, 64
4, 13680, Note_on_c, 0, 54, 127
4, 13728, Note_off_c, 0, 54, 64
4, 13740, Note_on_c, 0, 55, 127
4, 13788, Note_off_c, 0, 55, 64
4, 13800, Note_on_c, 0, 52, 127
4, 13848, Note_off_c, 0, 52, 64
4, 13860, Note_on_c, 0, 54, 127
4, 13908, Note_off_c, 0, 54, 64
4, 13920, Note_on_c, 0, 50, 127
4, 13968, Note_off_c, 0, 50, 64
4, 13980, Note_on_c, 0, 52, 127
4, 14028, Note_off_c, 0, 52, 64
4, 14040, Note_on_c, 0, 49, 127
4, 14088, Note_off_c, 0, 49, 64
4, 14100, Note_on_c, 0, 50, 127
4, 14148, Note_off_c, 0, 50, 64
4, 14160, Note_on_c, 0, 47, 127
4, 14208, Note_off_c, 0, 47, 64
4, 14220, Note_on_c, 0, 48, 127
4, 14268, Note_off_c, 0, 48, 64
4, 14280, Note_on_c, 0, 45, 127
4, 14328, Note_off_c, 0, 45, 64
4, 14340, Note_on_c, 0, 47, 127
4, 14388, Note_off_c, 0, 47, 64
4, 14400, Note_on_c, 0, 43, 127
4, 14496, Note_off_c, 0, 43, 64
4, 14520, Note_on_c, 0, 55, 127
4, 14688, Note_off_c, 0, 55, 64
4, 14700, Note_on_c, 0, 54, 127
4, 14748, Note_off_c, 0, 54, 64
4, 14760, Note_on_c, 0, 55, 127
4, 14808, Note_off_c, 0, 55, 64
4, 14820, Note_on_c, 0, 52, 127
4, 14868, Note_off_c, 0, 52, 64
4, 14880, Note_on_c, 0, 54, 127
4, 15168, Note_off_c, 0, 54, 64
4, 15180, Note_on_c, 0, 52, 127
4, 15228, Note_off_c, 0, 52, 64
4, 15240, Note_on_c, 0, 54, 127
4, 15288, Note_off_c, 0, 54, 64
4, 15300, Note_on_c, 0, 50, 127
4, 15348, Note_off_c, 0, 50, 64
4, 15360, Note_on_c, 0, 55, 127
4, 15552, Note_off_c, 0, 55, 64
4, 15600, Note_on_c, 0, 45, 127
4, 15792, Note_off_c, 0, 45, 64
4, 15840, Note_on_c, 0, 50, 127
4, 16032, Note_off_c, 0, 50, 64
4, 16320, Note_on_c, 0, 45, 127
4, 16416, Note_off_c, 0, 45, 64
4, 16440, Note_on_c, 0, 47, 127
4, 16536, Note_off_c, 0, 47, 64
4, 16560, Note_on_c, 0, 48, 127
4, 16656, Note_off_c, 0, 48, 64
4, 16680, Note_on_c, 0, 50, 127
4, 16776, Note_off_c, 0, 50, 64
4, 16800, Note_on_c, 0, 52, 127
4, 16992, Note_off_c, 0, 52, 64
4, 17280, Note_on_c, 0, 47, 127
4, 17376, Note_off_c, 0, 47, 64
4, 17400, Note_on_c, 0, 48, 127
4, 17496, Note_off_c, 0, 48, 64
4, 17520, Note_on_c, 0, 50, 127
4, 17616, Note_off_c, 0, 50, 64
4, 17640, Note_on_c, 0, 52, 127
4, 17736, Note_off_c, 0, 52, 64
4, 17760, Note_on_c, 0, 54, 127
4, 17856, Note_off_c, 0, 54, 64
4, 17880, Note_on_c, 0, 56, 127
4, 17976, Note_off_c, 0, 56, 64
4, 18000, Note_on_c, 0, 57, 127
4, 18096, Note_off_c, 0, 57, 64
4, 18120, Note_on_c, 0, 45, 127
4, 18216, Note_off_c, 0, 45, 64
4, 18240, Note_on_c, 0, 50, 127
4, 18288, Note_off_c, 0, 50, 64
4, 18300, Note_on_c, 0, 53, 127
4, 18348, Note_off_c, 0, 53, 64
4, 18360, Note_on_c, 0, 52, 127
4, 18408, Note_off_c, 0, 52, 64
4, 18420, Note_on_c, 0, 55, 127
4, 18468, Note_off_c, 0, 55, 64
4, 18480, Note_on_c, 0, 53, 127
4, 18528, Note_off_c, 0, 53, 64
4, 18540, Note_on_c, 0, 57, 127
4, 18588, Note_off_c, 0, 57, 64
4, 18600, Note_on_c, 0, 55, 127
4, 18648, Note_off_c, 0, 55, 64
4, 18660, Note_on_c, 0, 59, 127
4, 18708, Note_off_c, 0, 59, 64
4, 18720, Note_on_c, 0, 48, 127
4, 18912, Note_off_c, 0, 48, 64
4, 19080, Note_on_c, 0, 48, 127
4, 19176, Note_off_c, 0, 48, 64
4, 19200, Note_on_c, 0, 50, 127
4, 19248, Note_off_c, 0, 50, 64
4, 19260, Note_on_c, 0, 52, 127
4, 19308, Note_off_c, 0, 52, 64
4, 19320, Note_on_c, 0, 48, 127
4, 19368, Note_off_c, 0, 48, 64
4, 19380, Note_on_c, 0, 50, 127
4, 19428, Note_off_c, 0, 50, 64
4, 19440, Note_on_c, 0, 47, 127
4, 19488, Note_off_c, 0, 47, 64
4, 19500, Note_on_c, 0, 52, 127
4, 19548, Note_off_c, 0, 52, 64
4, 19560, Note_on_c, 0, 50, 127
4, 19608, Note_off_c, 0, 50, 64
4, 19620, Note_on_c, 0, 52, 127
4, 19668, Note_off_c, 0, 52, 64
4, 19680, Note_on_c, 0, 45, 127
4, 19872, Note_off_c, 0, 45, 64
4, 19920, Note_on_c, 0, 57, 127
4, 20352, Note_off_c, 0, 57, 64
4, 20400, Note_on_c, 0, 55, 127
4, 20736, Note_off_c, 0, 55, 64
4, 20760, Note_on_c, 0, 54, 127
4, 20808, Note_off_c, 0, 54, 64
4, 20820, Note_on_c, 0, 52, 127
4, 20868, Note_off_c, 0, 52, 64
4, 20880, Note_on_c, 0, 54, 127
4, 20976, Note_off_c, 0, 54, 64
4, 21000, Note_on_c, 0, 45, 127
4, 21096, Note_off_c, 0, 45, 64
4, 21120, Note_on_c, 0, 47, 127
4, 21216, Note_off_c, 0, 47, 64
4, 21240, Note_on_c, 0, 47, 127
4, 21336, Note_off_c, 0, 47, 64
4, 21360, Note_on_c, 0, 49, 127
4, 21456, Note_off_c, 0, 49, 64
4, 21480, Note_on_c, 0, 49, 127
4, 21576, Note_off_c, 0, 49, 64
4, 21600, Note_on_c, 0, 50, 127
4, 21792, Note_off_c, 0, 50, 64
4, 21960, Note_on_c, 0, 50, 127
4, 22056, Note_off_c, 0, 50, 64
4, 22080, Note_on_c, 0, 52, 127
4, 22176, Note_off_c, 0, 52, 64
4, 22200, Note_on_c, 0, 52, 127
4, 22296, Note_off_c, 0, 52, 64
4, 22320, Note_on_c, 0, 54, 127
4, 22416, Note_off_c, 0, 54, 64
4, 22440, Note_on_c, 0, 54, 127
4, 22536, Note_off_c, 0, 54, 64
4, 22560, Note_on_c, 0, 55, 127
4, 22752, Note_off_c, 0, 55, 64
4, 22920, Note_on_c, 0, 43, 127
4, 23016, Note_off_c, 0, 43, 64
4, 23040, Note_on_c, 0, 45, 127
4, 23136, Note_off_c, 0, 45, 64
4, 23160, Note_on_c, 0, 45, 127
4, 23256, Note_off_c, 0, 45, 64
4, 23280, Note_on_c, 0, 47, 127
4, 23376, Note_off_c, 0, 47, 64
4, 23400, Note_on_c, 0, 47, 127
4, 23496, Note_off_c, 0, 47, 64
4, 23520, Note_on_c, 0, 48, 127
4, 23712, Note_off_c, 0, 48, 64
4, 23880, Note_on_c, 0, 49, 127
4, 23976, Note_off_c, 0, 49, 64
4, 24000, Note_on_c, 0, 50, 127
4, 24192, Note_off_c, 0, 50, 64
4, 24360, Note_on_c, 0, 47, 127
4, 24456, Note_off_c, 0, 47, 64
4, 24480, Note_on_c, 0, 52, 127
4, 24672, Note_off_c, 0, 52, 64
4, 24720, Note_on_c, 0, 45, 127
4, 24912, Note_off_c, 0, 45, 64
4, 24960, Note_on_c, 0, 50, 127
4, 25056, Note_off_c, 0, 50, 64
4, 25080, Note_on_c, 0, 38, 127
4, 25176, Note_off_c, 0, 38, 64
4, 25260, Note_on_c, 0, 50, 127
4, 25308, Note_off_c, 0, 50, 64
4, 25320, Note_on_c, 0, 54, 127
4, 25368, Note_off_c, 0, 54, 64
4, 25380, Note_on_c, 0, 50, 127
4, 25428, Note_off_c, 0, 50, 64
4, 25440, Note_on_c, 0, 55, 127
4, 25536, Note_off_c, 0, 55, 64
4, 25560, Note_on_c, 0, 43, 127
4, 25656, Note_off_c, 0, 43, 64
4, 25740, Note_on_c, 0, 52, 127
4, 25788, Note_off_c, 0, 52, 64
4, 25800, Note_on_c, 0, 55, 127
4, 25848, Note_off_c, 0, 55, 64
4, 25860, Note_on_c, 0, 52, 127
4, 25908, Note_off_c, 0, 52, 64
4, 25920, Note_on_c, 0, 57, 127
4, 26016, Note_off_c, 0, 57, 64
4, 26040, Note_on_c, 0, 55, 127
4, 26136, Note_off_c, 0, 55, 64
4, 26160, Note_on_c, 0, 54, 127
4, 26256, Note_off_c, 0, 54, 64
4, 26280, Note_on_c, 0, 50, 127
4, 26376, Note_off_c, 0, 50, 64
4, 26400, Note_on_c, 0, 55, 127
4, 26496, Note_off_c, 0, 55, 64
4, 26520, Note_on_c, 0, 54, 127
4, 26616, Note_off_c, 0, 54, 64
4, 26640, Note_on_c, 0, 52, 127
4, 26736, Note_off_c, 0, 52, 64
4, 26760, Note_on_c, 0, 50, 127
4, 26856, Note_off_c, 0, 50, 64
4, 26880, Note_on_c, 0, 48, 127
4, 26976, Note_off_c, 0, 48, 64
4, 27000, Note_on_c, 0, 45, 127
4, 27096, Note_off_c, 0, 45, 64
4, 27120, Note_on_c, 0, 50, 127
4, 27216, Note_off_c, 0, 50, 64
4, 27240, Note_on_c, 0, 38, 127
4, 27336, Note_off_c, 0, 38, 64
4, 27360, Note_on_c, 0, 43, 127
4, 27552, Note_off_c, 0, 43, 64
4, 27720, Note_on_c, 0, 55, 127
4, 27816, Note_off_c, 0, 55, 64
4, 27840, Note_on_c, 0, 60, 127
4, 27936, Note_off_c, 0, 60, 64
4, 27960, Note_on_c, 0, 57, 127
4, 28056, Note_off_c, 0, 57, 64
4, 28080, Note_on_c, 0, 59, 127
4, 28176, Note_off_c, 0, 59, 64
4, 28200, Note_on_c, 0, 47, 127
4, 28296, Note_off_c, 0, 47, 64
4, 28320, Note_on_c, 0, 52, 127
4, 28512, Note_off_c, 0, 52, 64
4, 28680, Note_on_c, 0, 52, 127
4, 28776, Note_off_c, 0, 52, 64
4, 28800, Note_on_c, 0, 57, 127
4, 28896, Note_off_c, 0, 57, 64
4, 28920, Note_on_c, 0, 55, 127
4, 29016, Note_off_c, 0, 55, 64
4, 29040, Note_on_c, 0, 54, 127
4, 29136, Note_off_c, 0, 54, 64
4, 29160, Note_on_c, 0, 50, 127
4, 29256, Note_off_c, 0, 50, 64
4, 29280, Note_on_c, 0, 55, 127
4, 29472, Note_off_c, 0, 55, 64
4, 29640, Note_on_c, 0, 52, 127
4, 29736, Note_off_c, 0, 52, 64
4, 29760, Note_on_c, 0, 54, 127
4, 29856, Note_off_c, 0, 54, 64
4, 29880, Note_on_c, 0, 52, 127
4, 29976, Note_off_c, 0, 52, 64
4, 30000, Note_on_c, 0, 51, 127
4, 30096, Note_off_c, 0, 51, 64
4, 30120, Note_on_c, 0, 47, 127
4, 30216, Note_off_c, 0, 47, 64
4, 30240, Note_on_c, 0, 43, 127
4, 30336, Note_off_c, 0, 43, 64
4, 30360, Note_on_c, 0, 55, 127
4, 30408, Note_off_c, 0, 55, 64
4, 30420, Note_on_c, 0, 54, 127
4, 30468, Note_off_c, 0, 54, 64
4, 30480, Note_on_c, 0, 55, 127
4, 30576, Note_off_c, 0, 55, 64
4, 30600, Note_on_c, 0, 52, 127
4, 30696, Note_off_c, 0, 52, 64
4, 30720, Note_on_c, 0, 57, 127
4, 30816, Note_off_c, 0, 57, 64
4, 30840, Note_on_c, 0, 52, 127
4, 30936, Note_off_c, 0, 52, 64
4, 30960, Note_on_c, 0, 48, 127
4, 31056, Note_off_c, 0, 48, 64
4, 31080, Note_on_c, 0, 45, 127
4, 31176, Note_off_c, 0, 45, 64
4, 31200, Note_on_c, 0, 47, 127
4, 31296, Note_off_c, 0, 47, 64
4, 31320, Note_on_c, 0, 59, 127
4, 31368, Note_off_c, 0, 59, 64
4, 31380, Note_on_c, 0, 57, 127
4, 31428, Note_off_c, 0, 57, 64
4, 31440, Note_on_c, 0, 59, 127
4, 31536, Note_off_c, 0, 59, 64
4, 31560, Note_on_c, 0, 47, 127
4, 31656, Note_off_c, 0, 47, 64
4, 31680, Note_on_c, 0, 52, 127
4, 31776, Note_off_c, 0, 52, 64
4, 31800, Note_on_c, 0, 50, 127
4, 31896, Note_off_c, 0, 50, 64
4, 31920, Note_on_c, 0, 48, 127
4, 32016, Note_off_c, 0, 48, 64
4, 32040, Note_on_c, 0, 47, 127
4, 32136, Note_off_c, 0, 47, 64
4, 32160, Note_on_c, 0, 45, 127
4, 32256, Note_off_c, 0, 45, 64
4, 32280, Note_on_c, 0, 57, 127
4, 32376, Note_off_c, 0, 57, 64
4, 32400, Note_on_c, 0, 59, 127
4, 32496, Note_off_c, 0, 59, 64
4, 32520, Note_on_c, 0, 47, 127
4, 32616, Note_off_c, 0, 47, 64
4, 32640, Note_on_c, 0, 52, 127
4, 32688, Note_off_c, 0, 52, 64
4, 32700, Note_on_c, 0, 54, 127
4, 32748, Note_off_c, 0, 54, 64
4, 32760, Note_on_c, 0, 51, 127
4, 32808, Note_off_c, 0, 51, 64
4, 32820, Note_on_c, 0, 54, 127
4, 32868, Note_off_c, 0, 54, 64
4, 32880, Note_on_c, 0, 52, 127
4, 32928, Note_off_c, 0, 52, 64
4, 32940, Note_on_c, 0, 55, 127
4, 32988, Note_off_c, 0, 55, 64
4, 33000, Note_on_c, 0, 54, 127
4, 33048, Note_off_c, 0, 54, 64
4, 33060, Note_on_c, 0, 57, 127
4, 33108, Note_off_c, 0, 57, 64
4, 33120, Note_on_c, 0, 55, 127
4, 33168, Note_off_c, 0, 55, 64
4, 33180, Note_on_c, 0, 57, 127
4, 33228, Note_off_c, 0, 57, 64
4, 33240, Note_on_c, 0, 54, 127
4, 33288, Note_off_c, 0, 54, 64
4, 33300, Note_on_c, 0, 57, 127
4, 33348, Note_off_c, 0, 57, 64
4, 33360, Note_on_c, 0, 55, 127
4, 33408, Note_off_c, 0, 55, 64
4, 33420, Note_on_c, 0, 59, 127
4, 33468, Note_off_c, 0, 59, 64
4, 33480, Note_on_c, 0, 57, 127
4, 33528, Note_off_c, 0, 57, 64
4, 33540, Note_on_c, 0, 60, 127
4, 33588, Note_off_c, 0, 60, 64
4, 33600, Note_on_c, 0, 59, 127
4, 33696, Note_off_c, 0, 59, 64
4, 33720, Note_on_c, 0, 47, 127
4, 33816, Note_off_c, 0, 47, 64
4, 33900, Note_on_c, 0, 47, 127
4, 33948, Note_off_c, 0, 47, 64
4, 33960, Note_on_c, 0, 45, 127
4, 34008, Note_off_c, 0, 45, 64
4, 34020, Note_on_c, 0, 47, 127
4, 34068, Note_off_c, 0, 47, 64
4, 34080, Note_on_c, 0, 43, 127
4, 34128, Note_off_c, 0, 43, 64
4, 34140, Note_on_c, 0, 47, 127
4, 34188, Note_off_c, 0, 47, 64
4, 34200, Note_on_c, 0, 45, 127
4, 34248, Note_off_c, 0, 45, 64
4, 34260, Note_on_c, 0, 48, 127
4, 34308, Note_off_c, 0, 48, 64
4, 34320, Note_on_c, 0, 47, 127
4, 34368, Note_off_c, 0, 47, 64
4, 34380, Note_on_c, 0, 50, 127
4, 34428, Note_off_c, 0, 50, 64
4, 34440, Note_on_c, 0, 49, 127
4, 34488, Note_off_c, 0, 49, 64
4, 34500, Note_on_c, 0, 52, 127
4, 34548, Note_off_c, 0, 52, 64
4, 34560, Note_on_c, 0, 50, 127
4, 34656, Note_off_c, 0, 50, 64
4, 34680, Note_on_c, 0, 38, 127
4, 34776, Note_off_c, 0, 38, 64
4, 34860, Note_on_c, 0, 50, 127
4, 34908, Note_off_c, 0, 50, 64
4, 34920, Note_on_c, 0, 51, 127
4, 34968, Note_off_c, 0, 51, 64
4, 34980, Note_on_c, 0, 47, 127
4, 35028, Note_off_c, 0, 47, 64
4, 35040, Note_on_c, 0, 52, 127
4, 35136, Note_off_c, 0, 52, 64
4, 35160, Note_on_c, 0, 40, 127
4, 35256, Note_off_c, 0, 40, 64
4, 35340, Note_on_c, 0, 52, 127
4, 35388, Note_off_c, 0, 52, 64
4, 35400, Note_on_c, 0, 55, 127
4, 35448, Note_off_c, 0, 55, 64
4, 35460, Note_on_c, 0, 52, 127
4, 35508, Note_off_c, 0, 52, 64
4, 35520, Note_on_c, 0, 57, 127
4, 35616, Note_off_c, 0, 57, 64
4, 35640, Note_on_c, 0, 54, 127
4, 35736, Note_off_c, 0, 54, 64
4, 35760, Note_on_c, 0, 59, 127
4, 35856, Note_off_c, 0, 59, 64
4, 35880, Note_on_c, 0, 47, 127
4, 35976, Note_off_c, 0, 47, 64
4, 36000, Note_on_c, 0, 40, 127
4, 36192, Note_off_c, 0, 40, 64
4, 49560, Note_on_c, 0, 45, 127
4, 49656, Note_off_c, 0, 45, 64
4, 49680, Note_on_c, 0, 45, 127
4, 49776, Note_off_c, 0, 45, 64
4, 49800, Note_on_c, 0, 45, 127
4, 49896, Note_off_c, 0, 45, 64
4, 49920, Note_on_c, 0, 50, 127
4, 50016, Note_off_c, 0, 50, 64
4, 50040, Note_on_c, 0, 50, 127
4, 50136, Note_off_c, 0, 50, 64
4, 50160, Note_on_c, 0, 50, 127
4, 50256, Note_off_c, 0, 50, 64
4, 50280, Note_on_c, 0, 50, 127
4, 50376, Note_off_c, 0, 50, 64
4, 50400, Note_on_c, 0, 50, 127
4, 50496, Note_off_c, 0, 50, 64
4, 50520, Note_on_c, 0, 49, 127
4, 50568, Note_off_c, 0, 49, 64
4, 50580, Note_on_c, 0, 47, 127
4, 50628, Note_off_c, 0, 47, 64
4, 50640, Note_on_c, 0, 49, 127
4, 50736, Note_off_c, 0, 49, 64
4, 50760, Note_on_c, 0, 45, 127
4, 50856, Note_off_c, 0, 45, 64
4, 50880, Note_on_c, 0, 54, 127
4, 50976, Note_off_c, 0, 54, 64
4, 51000, Note_on_c, 0, 54, 127
4, 51096, Note_off_c, 0, 54, 64
4, 51120, Note_on_c, 0, 54, 127
4, 51216, Note_off_c, 0, 54, 64
4, 51240, Note_on_c, 0, 54, 127
4, 51336, Note_off_c, 0, 54, 64
4, 51360, Note_on_c, 0, 54, 127
4, 51456, Note_off_c, 0, 54, 64
4, 51480, Note_on_c, 0, 52, 127
4, 51528, Note_off_c, 0, 52, 64
4, 51540, Note_on_c, 0, 50, 127
4, 51588, Note_off_c, 0, 50, 64
4, 51600, Note_on_c, 0, 52, 127
4, 51696, Note_off_c, 0, 52, 64
4, 51720, Note_on_c, 0, 52, 127
4, 51816, Note_off_c, 0, 52, 64
4, 51840, Note_on_c, 0, 52, 127
4, 51936, Note_off_c, 0, 52, 64
4, 51960, Note_on_c, 0, 45, 127
4, 52056, Note_off_c, 0, 45, 64
4, 52080, Note_on_c, 0, 50, 127
4, 52464, Note_off_c, 0, 50, 64
4, 52560, Note_on_c, 0, 49, 127
4, 52752, Note_off_c, 0, 49, 64
4, 52800, Note_on_c, 0, 50, 127
4, 52896, Note_off_c, 0, 50, 64
4, 52920, Note_on_c, 0, 52, 127
4, 53016, Note_off_c, 0, 52, 64
4, 53040, Note_on_c, 0, 54, 127
4, 53136, Note_off_c, 0, 54, 64
4, 53160, Note_on_c, 0, 50, 127
4, 53256, Note_off_c, 0, 50, 64
4, 53280, Note_on_c, 0, 52, 127
4, 53376, Note_off_c, 0, 52, 64
4, 53400, Note_on_c, 0, 52, 127
4, 53496, Note_off_c, 0, 52, 64
4, 53520, Note_on_c, 0, 54, 127
4, 53616, Note_off_c, 0, 54, 64
4, 53640, Note_on_c, 0, 54, 127
4, 53736, Note_off_c, 0, 54, 64
4, 53760, Note_on_c, 0, 55, 127
4, 53952, Note_off_c, 0, 55, 64
4, 54120, Note_on_c, 0, 43, 127
4, 54216, Note_off_c, 0, 43, 64
4, 54240, Note_on_c, 0, 45, 127
4, 54336, Note_off_c, 0, 45, 64
4, 54360, Note_on_c, 0, 45, 127
4, 54456, Note_off_c, 0, 45, 64
4, 54480, Note_on_c, 0, 47, 127
4, 54576, Note_off_c, 0, 47, 64
4, 54600, Note_on_c, 0, 47, 127
4, 54696, Note_off_c, 0, 47, 64
4, 54720, Note_on_c, 0, 48, 127
4, 54912, Note_off_c, 0, 48, 64
4, 55080, Note_on_c, 0, 48, 127
4, 55176, Note_off_c, 0, 48, 64
4, 55200, Note_on_c, 0, 50, 127
4, 55296, Note_off_c, 0, 50, 64
4, 55320, Note_on_c, 0, 50, 127
4, 55416, Note_off_c, 0, 50, 64
4, 55440, Note_on_c, 0, 52, 127
4, 55536, Note_off_c, 0, 52, 64
4, 55560, Note_on_c, 0, 52, 127
4, 55656, Note_off_c, 0, 52, 64
4, 55680, Note_on_c, 0, 53, 127
4, 55776, Note_off_c, 0, 53, 64
4, 55800, Note_on_c, 0, 52, 127
4, 55896, Note_off_c, 0, 52, 64
4, 55920, Note_on_c, 0, 53, 127
4, 56016, Note_off_c, 0, 53, 64
4, 56040, Note_on_c, 0, 50, 127
4, 56136, Note_off_c, 0, 50, 64
4, 56160, Note_on_c, 0, 52, 127
4, 56256, Note_off_c, 0, 52, 64
4, 56280, Note_on_c, 0, 50, 127
4, 56376, Note_off_c, 0, 50, 64
4, 56400, Note_on_c, 0, 48, 127
4, 56496, Note_off_c, 0, 48, 64
4, 56520, Note_on_c, 0, 47, 127
4, 56616, Note_off_c, 0, 47, 64
4, 56640, Note_on_c, 0, 45, 127
4, 56736, Note_off_c, 0, 45, 64
4, 56760, Note_on_c, 0, 43, 127
4, 56856, Note_off_c, 0, 43, 64
4, 56880, Note_on_c, 0, 41, 127
4, 57072, Note_off_c, 0, 41, 64
4, 57120, Note_on_c, 0, 40, 127
4, 57216, Note_off_c, 0, 40, 64
4, 57240, Note_on_c, 0, 52, 127
4, 57336, Note_off_c, 0, 52, 64
4, 57420, Note_on_c, 0, 52, 127
4, 57468, Note_off_c, 0, 52, 64
4, 57480, Note_on_c, 0, 56, 127
4, 57528, Note_off_c, 0, 56, 64
4, 57540, Note_on_c, 0, 52, 127
4, 57588, Note_off_c, 0, 52, 64
4, 57600, Note_on_c, 0, 57, 127
4, 57696, Note_off_c, 0, 57, 64
4, 57720, Note_on_c, 0, 45, 127
4, 57816, Note_off_c, 0, 45, 64
4, 57900, Note_on_c, 0, 45, 127
4, 57948, Note_off_c, 0, 45, 64
4, 57960, Note_on_c, 0, 48, 127
4, 58008, Note_off_c, 0, 48, 64
4, 58020, Note_on_c, 0, 45, 127
4, 58068, Note_off_c, 0, 45, 64
4, 58080, Note_on_c, 0, 50, 127
4, 58176, Note_off_c, 0, 50, 64
4, 58200, Note_on_c, 0, 38, 127
4, 58296, Note_off_c, 0, 38, 64
4, 58380, Note_on_c, 0, 47, 127
4, 58428, Note_off_c, 0, 47, 64
4, 58440, Note_on_c, 0, 50, 127
4, 58488, Note_off_c, 0, 50, 64
4, 58500, Note_on_c, 0, 47, 127
4, 58548, Note_off_c, 0, 47, 64
4, 58560, Note_on_c, 0, 48, 127
4, 58656, Note_off_c, 0, 48, 64
4, 58680, Note_on_c, 0, 36, 127
4, 58776, Note_off_c, 0, 36, 64
4, 58860, Note_on_c, 0, 48, 127
4, 58908, Note_off_c, 0, 48, 64
4, 58920, Note_on_c, 0, 52, 127
4, 58968, Note_off_c, 0, 52, 64
4, 58980, Note_on_c, 0, 48, 127
4, 59028, Note_off_c, 0, 48, 64
4, 59040, Note_on_c, 0, 53, 127
4, 59136, Note_off_c, 0, 53, 64
4, 59160, Note_on_c, 0, 50, 127
4, 59256, Note_off_c, 0, 50, 64
4, 59280, Note_on_c, 0, 52, 127
4, 59376, Note_off_c, 0, 52, 64
4, 59400, Note_on_c, 0, 40, 127
4, 59496, Note_off_c, 0, 40, 64
4, 59520, Note_on_c, 0, 45, 127
4, 59712, Note_off_c, 0, 45, 64
4, 59820, Note_on_c, 0, 45, 127
4, 59868, Note_off_c, 0, 45, 64
4, 59880, Note_on_c, 0, 48, 127
4, 59928, Note_off_c, 0, 48, 64
4, 59940, Note_on_c, 0, 45, 127
4, 59988, Note_off_c, 0, 45, 64
4, 60000, Note_on_c, 0, 50, 127
4, 60192, Note_off_c, 0, 50, 64
4, 60300, Note_on_c, 0, 49, 127
4, 60348, Note_off_c, 0, 49, 64
4, 60360, Note_on_c, 0, 52, 127
4, 60408, Note_off_c, 0, 52, 64
4, 60420, Note_on_c, 0, 49, 127
4, 60468, Note_off_c, 0, 49, 64
4, 60480, Note_on_c, 0, 50, 127
4, 60672, Note_off_c, 0, 50, 64
4, 60780, Note_on_c, 0, 50, 127
4, 60828, Note_off_c, 0, 50, 64
4, 60840, Note_on_c, 0, 54, 127
4, 60888, Note_off_c, 0, 54, 64
4, 60900, Note_on_c, 0, 50, 127
4, 60948, Note_off_c, 0, 50, 64
4, 60960, Note_on_c, 0, 52, 127
4, 61152, Note_off_c, 0, 52, 64
4, 61260, Note_on_c, 0, 54, 127
4, 61308, Note_off_c, 0, 54, 64
4, 61320, Note_on_c, 0, 57, 127
4, 61368, Note_off_c, 0, 57, 64
4, 61380, Note_on_c, 0, 54, 127
4, 61428, Note_off_c, 0, 54, 64
4, 61440, Note_on_c, 0, 55, 127
4, 61632, Note_off_c, 0, 55, 64
4, 61740, Note_on_c, 0, 55, 127
4, 61788, Note_off_c, 0, 55, 64
4, 61800, Note_on_c, 0, 59, 127
4, 61848, Note_off_c, 0, 59, 64
4, 61860, Note_on_c, 0, 55, 127
4, 61908, Note_off_c, 0, 55, 64
4, 61920, Note_on_c, 0, 57, 127
4, 62112, Note_off_c, 0, 57, 64
4, 62220, Note_on_c, 0, 59, 127
4, 62268, Note_off_c, 0, 59, 64
4, 62280, Note_on_c, 0, 62, 127
4, 62328, Note_off_c, 0, 62, 64
4, 62340, Note_on_c, 0, 59, 127
4, 62388, Note_off_c, 0, 59, 64
4, 62400, Note_on_c, 0, 60, 127
4, 62496, Note_off_c, 0, 60, 64
4, 62520, Note_on_c, 0, 48, 127
4, 62616, Note_off_c, 0, 48, 64
4, 62640, Note_on_c, 0, 48, 127
4, 62736, Note_off_c, 0, 48, 64
4, 62760, Note_on_c, 0, 48, 127
4, 62856, Note_off_c, 0, 48, 64
4, 62880, Note_on_c, 0, 55, 127
4, 62976, Note_off_c, 0, 55, 64
4, 63000, Note_on_c, 0, 55, 127
4, 63096, Note_off_c, 0, 55, 64
4, 63120, Note_on_c, 0, 55, 127
4, 63216, Note_off_c, 0, 55, 64
4, 63240, Note_on_c, 0, 55, 127
4, 63336, Note_off_c, 0, 55, 64
4, 63360, Note_on_c, 0, 55, 127
4, 63456, Note_off_c, 0, 55, 64
4, 63480, Note_on_c, 0, 54, 127
4, 63528, Note_off_c, 0, 54, 64
4, 63540, Note_on_c, 0, 52, 127
4, 63588, Note_off_c, 0, 52, 64
4, 63600, Note_on_c, 0, 54, 127
4, 63696, Note_off_c, 0, 54, 64
4, 63720, Note_on_c, 0, 50, 127
4, 63816, Note_off_c, 0, 50, 64
4, 63840, Note_on_c, 0, 58, 127
4, 63936, Note_off_c, 0, 58, 64
4, 63960, Note_on_c, 0, 58, 127
4, 64056, Note_off_c, 0, 58, 64
4, 64080, Note_on_c, 0, 58, 127
4, 64176, Note_off_c, 0, 58, 64
4, 64200, Note_on_c, 0, 58, 127
4, 64296, Note_off_c, 0, 58, 64
4, 64320, Note_on_c, 0, 58, 127
4, 64416, Note_off_c, 0, 58, 64
4, 64440, Note_on_c, 0, 57, 127
4, 64488, Note_off_c, 0, 57, 64
4, 64500, Note_on_c, 0, 55, 127
4, 64548, Note_off_c, 0, 55, 64
4, 64560, Note_on_c, 0, 57, 127
4, 64656, Note_off_c, 0, 57, 64
4, 64680, Note_on_c, 0, 57, 127
4, 64776, Note_off_c, 0, 57, 64
4, 64800, Note_on_c, 0, 57, 127
4, 64896, Note_off_c, 0, 57, 64
4, 64920, Note_on_c, 0, 50, 127
4, 65016, Note_off_c, 0, 50, 64
4, 65040, Note_on_c, 0, 55, 127
4, 65232, Note_off_c, 0, 55, 64
4, 65280, Note_on_c, 0, 55, 127
4, 65472, Note_off_c, 0, 55, 64
4, 65520, Note_on_c, 0, 54, 127
4, 65712, Note_off_c, 0, 54, 64
4, 65760, Note_on_c, 0, 55, 127
4, 65952, Note_off_c, 0, 55, 64
4, 66120, Note_on_c, 0, 43, 127
4, 66216, Note_off_c, 0, 43, 64
4, 66240, Note_on_c, 0, 48, 127
4, 66432, Note_off_c, 0, 48, 64
4, 66600, Note_on_c, 0, 48, 127
4, 66696, Note_off_c, 0, 48, 64
4, 66720, Note_on_c, 0, 50, 127
4, 66912, Note_off_c, 0, 50, 64
4, 67200, Note_on_c, 0, 50, 127
4, 67392, Note_off_c, 0, 50, 64
4, 67680, Note_on_c, 0, 38, 127
4, 67872, Note_off_c, 0, 38, 64
4, 68160, Note_on_c, 0, 38, 127
4, 68256, Note_off_c, 0, 38, 64
4, 68280, Note_on_c, 0, 50, 127
4, 68376, Note_off_c, 0, 50, 64
4, 68400, Note_on_c, 0, 50, 127
4, 68496, Note_off_c, 0, 50, 64
4, 68520, Note_on_c, 0, 50, 127
4, 68616, Note_off_c, 0, 50, 64
4, 68640, Note_on_c, 0, 55, 127
4, 68736, Note_off_c, 0, 55, 64
4, 68760, Note_on_c, 0, 55, 127
4, 68856, Note_off_c, 0, 55, 64
4, 68880, Note_on_c, 0, 55, 127
4, 68976, Note_off_c, 0, 55, 64
4, 69000, Note_on_c, 0, 55, 127
4, 69096, Note_off_c, 0, 55, 64
4, 69120, Note_on_c, 0, 55, 127
4, 69216, Note_off_c, 0, 55, 64
4, 69240, Note_on_c, 0, 54, 127
4, 69288, Note_off_c, 0, 54, 64
4, 69300, Note_on_c, 0, 52, 127
4, 69348, Note_off_c, 0, 52, 64
4, 69360, Note_on_c, 0, 54, 127
4, 69456, Note_off_c, 0, 54, 64
4, 69480, Note_on_c, 0, 50, 127
4, 69576, Note_off_c, 0, 50, 64
4, 69600, Note_on_c, 0, 59, 127
4, 69696, Note_off_c, 0, 59, 64
4, 69720, Note_on_c, 0, 59, 127
4, 69816, Note_off_c, 0, 59, 64
4, 69840, Note_on_c, 0, 59, 127
4, 69936, Note_off_c, 0, 59, 64
4, 69960, Note_on_c, 0, 59, 127
4, 70056, Note_off_c, 0, 59, 64
4, 70080, Note_on_c, 0, 59, 127
4, 70176, Note_off_c, 0, 59, 64
4, 70200, Note_on_c, 0, 57, 127
4, 70248, Note_off_c, 0, 57, 64
4, 70260, Note_on_c, 0, 55, 127
4, 70308, Note_off_c, 0, 55, 64
4, 70320, Note_on_c, 0, 57, 127
4, 70416, Note_off_c, 0, 57, 64
4, 70440, Note_on_c, 0, 57, 127
4, 70536, Note_off_c, 0, 57, 64
4, 70560, Note_on_c, 0, 57, 127
4, 70656, Note_off_c, 0, 57, 64
4, 70680, Note_on_c, 0, 50, 127
4, 70776, Note_off_c, 0, 50, 64
4, 70800, Note_on_c, 0, 55, 127
4, 70992, Note_off_c, 0, 55, 64
4, 71040, Note_on_c, 0, 55, 127
4, 71232, Note_off_c, 0, 55, 64
4, 71280, Note_on_c, 0, 54, 127
4, 71472, Note_off_c, 0, 54, 64
4, 71520, Note_on_c, 0, 55, 127
4, 71712, Note_off_c, 0, 55, 64
4, 71880, Note_on_c, 0, 54, 127
4, 71976, Note_off_c, 0, 54, 64
4, 72000, Note_on_c, 0, 55, 127
4, 72384, Note_off_c, 0, 55, 64
4, 72480, Note_on_c, 0, 50, 127
4, 72576, Note_off_c, 0, 50, 64
4, 72600, Note_on_c, 0, 48, 127
4, 72696, Note_off_c, 0, 48, 64
4, 72720, Note_on_c, 0, 47, 127
4, 72816, Note_off_c, 0, 47, 64
4, 72840, Note_on_c, 0, 45, 127
4, 72936, Note_off_c, 0, 45, 64
4, 72960, Note_on_c, 0, 43, 127
4, 73008, Note_off_c, 0, 43, 64
4, 73020, Note_on_c, 0, 55, 127
4, 73068, Note_off_c, 0, 55, 64
4, 73080, Note_on_c, 0, 54, 127
4, 73128, Note_off_c, 0, 54, 64
4, 73140, Note_on_c, 0, 55, 127
4, 73188, Note_off_c, 0, 55, 64
4, 73200, Note_on_c, 0, 52, 127
4, 73248, Note_off_c, 0, 52, 64
4, 73260, Note_on_c, 0, 54, 127
4, 73308, Note_off_c, 0, 54, 64
4, 73320, Note_on_c, 0, 50, 127
4, 73368, Note_off_c, 0, 50, 64
4, 73380, Note_on_c, 0, 52, 127
4, 73428, Note_off_c, 0, 52, 64
4, 73440, Note_on_c, 0, 48, 127
4, 73632, Note_off_c, 0, 48, 64
4, 73740, Note_on_c, 0, 60, 127
4, 73788, Note_off_c, 0, 60, 64
4, 73800, Note_on_c, 0, 59, 127
4, 73848, Note_off_c, 0, 59, 64
4, 73860, Note_on_c, 0, 60, 127
4, 73908, Note_off_c, 0, 60, 64
4, 73920, Note_on_c, 0, 54, 127
4, 73968, Note_off_c, 0, 54, 64
4, 73980, Note_on_c, 0, 55, 127
4, 74028, Note_off_c, 0, 55, 64
4, 74040, Note_on_c, 0, 54, 127
4, 74088, Note_off_c, 0, 54, 64
4, 74100, Note_on_c, 0, 57, 127
4, 74148, Note_off_c, 0, 57, 64
4, 74160, Note_on_c, 0, 47, 127
4, 74208, Note_off_c, 0, 47, 64
4, 74220, Note_on_c, 0, 48, 127
4, 74268, Note_off_c, 0, 48, 64
4, 74280, Note_on_c, 0, 47, 127
4, 74328, Note_off_c, 0, 47, 64
4, 74340, Note_on_c, 0, 50, 127
4, 74388, Note_off_c, 0, 50, 64
4, 74400, Note_on_c, 0, 40, 127
4, 74496, Note_off_c, 0, 40, 64
4, 74520, Note_on_c, 0, 52, 127
4, 74616, Note_off_c, 0, 52, 64
4, 74640, Note_on_c, 0, 45, 127
4, 74736, Note_off_c, 0, 45, 64
4, 74760, Note_on_c, 0, 50, 127
4, 74856, Note_off_c, 0, 50, 64
4, 74880, Note_on_c, 0, 43, 127
4, 75072, Note_off_c, 0, 43, 64
4, 75240, Note_on_c, 0, 41, 127
4, 75336, Note_off_c, 0, 41, 64
4, 75360, Note_on_c, 0, 40, 127
4, 75552, Note_off_c, 0, 40, 64
4, 75720, Note_on_c, 0, 40, 127
4, 75816, Note_off_c, 0, 40, 64
4, 75840, Note_on_c, 0, 38, 127
4, 76032, Note_off_c, 0, 38, 64
4, 76200, Note_on_c, 0, 38, 127
4, 76296, Note_off_c, 0, 38, 64
4, 76320, Note_on_c, 0, 36, 127
4, 76512, Note_off_c, 0, 36, 64
4, 76680, Note_on_c, 0, 36, 127
4, 76776, Note_off_c, 0, 36, 64
4, 76800, Note_on_c, 0, 43, 127
4, 79488, Note_off_c, 0, 43, 64
4, 79488, End_track
0, 0, End_of_file
