0, 0, Header, 1, 26, 120
1, 0, Start_track
1, 0, Time_signature, 3, 2, 24, 8
1, 0, Key_signature, 1, "major"
1, 0, Tempo, 600000
1, 0, Marker_t, "Coro: Ehre sei dir, Gott, Gesungen"
1, 80640, Time_signature, 4, 2, 24, 8
1, 80640, Key_signature, 3, "major"
1, 80640, Tempo, 1000000
1, 80640, Marker_t, "Recit Evangelist"
1, 83520, Key_signature, 2, "major"
1, 83520, Marker_t, "Coro"
1, 83760, Tempo, 600000
1, 85920, Tempo, 857143
1, 86400, Marker_t, "Recit Alto"
1, 87360, Marker_t, "Coro"
1, 87420, Tempo, 600000
1, 92400, Tempo, 857143
1, 92640, Marker_t, "Recit Alto"
1, 97440, Key_signature, 3, "major"
1, 97440, Tempo, 1000000
1, 97440, Marker_t, "Choral"
1, 99961, Tempo, 1008403
1, 99964, Tempo, 1016949
1, 99967, Tempo, 1025641
1, 99970, Tempo, 1034483
1, 99973, Tempo, 1043478
1, 99976, Tempo, 1052632
1, 99979, Tempo, 1061947
1, 99982, Tempo, 1071429
1, 99985, Tempo, 1081081
1, 99988, Tempo, 1090909
1, 99991, Tempo, 1100917
1, 99993, Tempo, 1111111
1, 99996, Tempo, 1121495
1, 99999, Tempo, 1132075
1, 100002, Tempo, 1142857
1, 100005, Tempo, 1153846
1, 100008, Tempo, 1165049
1, 100011, Tempo, 1176471
1, 100014, Tempo, 1188119
1, 100017, Tempo, 1200000
1, 100020, Tempo, 1212121
1, 100022, Tempo, 1224490
1, 100025, Tempo, 1237113
1, 100028, Tempo, 1250000
1, 100031, Tempo, 1263158
1, 100034, Tempo, 1276596
1, 100037, Tempo, 1290323
1, 100040, Tempo, 1304348
1, 100043, Tempo, 1318681
1, 100046, Tempo, 1333333
1, 100049, Tempo, 1348315
1, 100051, Tempo, 1363636
1, 100054, Tempo, 1379310
1, 100057, Tempo, 1395349
1, 100060, Tempo, 1411765
1, 100063, Tempo, 1428571
1, 100066, Tempo, 1445783
1, 100069, Tempo, 1463415
1, 100072, Tempo, 1481481
1, 100075, Tempo, 1500000
1, 100078, Tempo, 1518987
1, 100080, Tempo, 1538462
1, 100200, Tempo, 1000000
1, 100920, Tempo, 1000000
1, 100924, Tempo, 1008403
1, 100927, Tempo, 1016949
1, 100930, Tempo, 1025641
1, 100933, Tempo, 1034483
1, 100936, Tempo, 1043478
1, 100939, Tempo, 1052632
1, 100942, Tempo, 1061947
1, 100945, Tempo, 1071429
1, 100948, Tempo, 1081081
1, 100951, Tempo, 1090909
1, 100954, Tempo, 1100917
1, 100957, Tempo, 1111111
1, 100960, Tempo, 1121495
1, 100963, Tempo, 1132075
1, 100966, Tempo, 1142857
1, 100969, Tempo, 1153846
1, 100972, Tempo, 1165049
1, 100975, Tempo, 1176471
1, 100978, Tempo, 1188119
1, 100981, Tempo, 1200000
1, 100984, Tempo, 1212121
1, 100987, Tempo, 1224490
1, 100990, Tempo, 1237113
1, 100993, Tempo, 1250000
1, 100996, Tempo, 1263158
1, 100999, Tempo, 1276596
1, 101002, Tempo, 1290323
1, 101005, Tempo, 1304348
1, 101008, Tempo, 1318681
1, 101011, Tempo, 1333333
1, 101014, Tempo, 1348315
1, 101017, Tempo, 1363636
1, 101020, Tempo, 1379310
1, 101023, Tempo, 1395349
1, 101026, Tempo, 1411765
1, 101029, Tempo, 1428571
1, 101032, Tempo, 1445783
1, 101035, Tempo, 1463415
1, 101038, Tempo, 1481481
1, 101040, Tempo, 1500000
1, 101160, Tempo, 1000000
1, 101520, Tempo, 1500000
1, 101640, Tempo, 1000000
1, 102000, Tempo, 1500000
1, 102120, Tempo, 1000000
1, 103680, Time_signature, 2, 2, 24, 8
1, 103680, Tempo, 857143
1, 103680, Marker_t, "Aria Basso: Erleucht' auch meine finstre Sinnen"
1, 138479, Tempo, 1000000
1, 138720, Time_signature, 4, 2, 24, 8
1, 138720, Marker_t, "Recit Evangelist"
1, 140160, Marker_t, "Recit Alto"
1, 143760, Marker_t, "Recit Evangelist"
1, 147840, Marker_t, "Andante"
1, 153120, Time_signature, 1, 2, 24, 8
1, 153240, Time_signature, 2, 2, 24, 8
1, 153240, Key_signature, 2, "major"
1, 153240, Tempo, 923077
1, 153240, Marker_t, "Terzetto: Ach! wann wird die Zeit ercheinen?"
1, 198600, Time_signature, 1, 2, 24, 8
1, 198720, Time_signature, 4, 2, 24, 8
1, 198720, Key_signature, 3, "major"
1, 198720, Marker_t, "Recit Alto"
1, 201120, Time_signature, 1, 2, 24, 8
1, 201240, Time_signature, 4, 2, 24, 8
1, 201240, Marker_t, "Choral"
1, 201936, Tempo, 923077
1, 202072, Tempo, 1428571
1, 202076, Tempo, 1445783
1, 202078, Tempo, 1463415
1, 202080, Tempo, 1481481
1, 202082, Tempo, 1500000
1, 202200, Tempo, 923077
1, 204000, Tempo, 1500000
1, 204120, Tempo, 923077
1, 205920, Tempo, 1500000
1, 206040, Tempo, 923077
1, 206685, Tempo, 923077
1, 206691, Tempo, 930233
1, 206697, Tempo, 937500
1, 206703, Tempo, 944882
1, 206707, Tempo, 952381
1, 206713, Tempo, 960000
1, 206719, Tempo, 967742
1, 206725, Tempo, 975610
1, 206729, Tempo, 983607
1, 206735, Tempo, 991736
1, 206741, Tempo, 1000000
1, 206747, Tempo, 1008403
1, 206751, Tempo, 1016949
1, 206757, Tempo, 1025641
1, 206763, Tempo, 1034483
1, 206769, Tempo, 1043478
1, 206773, Tempo, 1052632
1, 206779, Tempo, 1061947
1, 206785, Tempo, 1071429
1, 206791, Tempo, 1081081
1, 206795, Tempo, 1090909
1, 206801, Tempo, 1100917
1, 206807, Tempo, 1111111
1, 206813, Tempo, 1121495
1, 206817, Tempo, 1132075
1, 206823, Tempo, 1142857
1, 206829, Tempo, 1153846
1, 206835, Tempo, 1165049
1, 206839, Tempo, 1176471
1, 206845, Tempo, 1188119
1, 206851, Tempo, 1200000
1, 206857, Tempo, 1212121
1, 206861, Tempo, 1224490
1, 206867, Tempo, 1237113
1, 206873, Tempo, 1250000
1, 206879, Tempo, 1263158
1, 206883, Tempo, 1276596
1, 206889, Tempo, 1290323
1, 206895, Tempo, 1304348
1, 206901, Tempo, 1318681
1, 206905, Tempo, 1333333
1, 206911, Tempo, 1348315
1, 206917, Tempo, 1363636
1, 206923, Tempo, 1379310
1, 206927, Tempo, 1395349
1, 206933, Tempo, 1411765
1, 206939, Tempo, 1428571
1, 206945, Tempo, 1445783
1, 206949, Tempo, 1463415
1, 206955, Tempo, 1481481
1, 206961, Tempo, 1500000
1, 206967, Tempo, 1518987
1, 206971, Tempo, 1538462
1, 206977, Tempo, 1558442
1, 206983, Tempo, 1578947
1, 206989, Tempo, 1600000
1, 206993, Tempo, 1621622
1, 206993, End_track
2, 0, Start_track
2, 0, MIDI_port, 0
2, 0, Title_t, "Oboe d'amore I"
2, 0, Program_c, 0, 68
2, 0, Control_c, 0, 7, 127
2, 0, Control_c, 0, 10, 37
2, 60, Note_on_c, 0, 61, 90
2, 89, Note_on_c, 0, 61, 0
2, 90, Note_on_c, 0, 62, 90
2, 119, Note_on_c, 0, 62, 0
2, 120, Note_on_c, 0, 64, 90
2, 179, Note_on_c, 0, 64, 0
2, 180, Note_on_c, 0, 64, 90
2, 239, Note_on_c, 0, 64, 0
2, 240, Note_on_c, 0, 66, 90
2, 269, Note_on_c, 0, 66, 0
2, 270, Note_on_c, 0, 64, 90
2, 299, Note_on_c, 0, 64, 0
2, 300, Note_on_c, 0, 62, 90
2, 329, Note_on_c, 0, 62, 0
2, 330, Note_on_c, 0, 66, 90
2, 359, Note_on_c, 0, 66, 0
2, 360, Note_on_c, 0, 64, 90
2, 419, Note_on_c, 0, 64, 0
2, 480, Note_on_c, 0, 69, 90
2, 509, Note_on_c, 0, 69, 0
2, 600, Note_on_c, 0, 71, 90
2, 629, Note_on_c, 0, 71, 0
2, 720, Note_on_c, 0, 73, 90
2, 779, Note_on_c, 0, 73, 0
2, 780, Note_on_c, 0, 69, 90
2, 809, Note_on_c, 0, 69, 0
2, 810, Note_on_c, 0, 71, 90
2, 839, Note_on_c, 0, 71, 0
2, 840, Note_on_c, 0, 73, 90
2, 869, Note_on_c, 0, 73, 0
2, 870, Note_on_c, 0, 74, 90
2, 899, Note_on_c, 0, 74, 0
2, 900, Note_on_c, 0, 71, 90
2, 929, Note_on_c, 0, 71, 0
2, 930, Note_on_c, 0, 73, 90
2, 959, Note_on_c, 0, 73, 0
2, 960, Note_on_c, 0, 74, 90
2, 989, Note_on_c, 0, 74, 0
2, 990, Note_on_c, 0, 73, 90
2, 1019, Note_on_c, 0, 73, 0
2, 1020, Note_on_c, 0, 71, 90
2, 1049, Note_on_c, 0, 71, 0
2, 1050, Note_on_c, 0, 74, 90
2, 1079, Note_on_c, 0, 74, 0
2, 1080, Note_on_c, 0, 73, 90
2, 1139, Note_on_c, 0, 73, 0
2, 1200, Note_on_c, 0, 76, 90
2, 1229, Note_on_c, 0, 76, 0
2, 1320, Note_on_c, 0, 80, 90
2, 1349, Note_on_c, 0, 80, 0
2, 1440, Note_on_c, 0, 81, 90
2, 1559, Note_on_c, 0, 81, 0
2, 1560, Note_on_c, 0, 76, 90
2, 1859, Note_on_c, 0, 76, 0
2, 1860, Note_on_c, 0, 69, 90
2, 1979, Note_on_c, 0, 69, 0
2, 1980, Note_on_c, 0, 74, 90
2, 2099, Note_on_c, 0, 74, 0
2, 2100, Note_on_c, 0, 78, 90
2, 2159, Note_on_c, 0, 78, 0
2, 2160, Note_on_c, 0, 71, 90
2, 2580, Note_on_c, 0, 71, 0
2, 2580, Note_on_c, 0, 68, 90
2, 2699, Note_on_c, 0, 68, 0
2, 2700, Note_on_c, 0, 71, 90
2, 2819, Note_on_c, 0, 71, 0
2, 2820, Note_on_c, 0, 74, 90
2, 2879, Note_on_c, 0, 74, 0
2, 2880, Note_on_c, 0, 64, 90
2, 3300, Note_on_c, 0, 64, 0
2, 3300, Note_on_c, 0, 76, 90
2, 3419, Note_on_c, 0, 76, 0
2, 3420, Note_on_c, 0, 79, 90
2, 3539, Note_on_c, 0, 79, 0
2, 3540, Note_on_c, 0, 78, 90
2, 3569, Note_on_c, 0, 78, 0
2, 3570, Note_on_c, 0, 76, 90
2, 3599, Note_on_c, 0, 76, 0
2, 3600, Note_on_c, 0, 78, 90
2, 3659, Note_on_c, 0, 78, 0
2, 3660, Note_on_c, 0, 74, 90
2, 3779, Note_on_c, 0, 74, 0
2, 3780, Note_on_c, 0, 78, 90
2, 3899, Note_on_c, 0, 78, 0
2, 3900, Note_on_c, 0, 76, 90
2, 3929, Note_on_c, 0, 76, 0
2, 3930, Note_on_c, 0, 74, 90
2, 3959, Note_on_c, 0, 74, 0
2, 3960, Note_on_c, 0, 76, 90
2, 4019, Note_on_c, 0, 76, 0
2, 4020, Note_on_c, 0, 73, 90
2, 4139, Note_on_c, 0, 73, 0
2, 4140, Note_on_c, 0, 76, 90
2, 4259, Note_on_c, 0, 76, 0
2, 4260, Note_on_c, 0, 74, 90
2, 4289, Note_on_c, 0, 74, 0
2, 4290, Note_on_c, 0, 73, 90
2, 4319, Note_on_c, 0, 73, 0
2, 4320, Note_on_c, 0, 74, 90
2, 4379, Note_on_c, 0, 74, 0
2, 4380, Note_on_c, 0, 71, 90
2, 4499, Note_on_c, 0, 71, 0
2, 4500, Note_on_c, 0, 74, 90
2, 4619, Note_on_c, 0, 74, 0
2, 4620, Note_on_c, 0, 73, 90
2, 4649, Note_on_c, 0, 73, 0
2, 4650, Note_on_c, 0, 71, 90
2, 4679, Note_on_c, 0, 71, 0
2, 4680, Note_on_c, 0, 73, 90
2, 4709, Note_on_c, 0, 73, 0
2, 4740, Note_on_c, 0, 69, 90
2, 4769, Note_on_c, 0, 69, 0
2, 4800, Note_on_c, 0, 74, 90
2, 4829, Note_on_c, 0, 74, 0
2, 4860, Note_on_c, 0, 69, 90
2, 4889, Note_on_c, 0, 69, 0
2, 4920, Note_on_c, 0, 76, 90
2, 4949, Note_on_c, 0, 76, 0
2, 4980, Note_on_c, 0, 69, 90
2, 5009, Note_on_c, 0, 69, 0
2, 5040, Note_on_c, 0, 78, 90
2, 5069, Note_on_c, 0, 78, 0
2, 5100, Note_on_c, 0, 74, 90
2, 5129, Note_on_c, 0, 74, 0
2, 5160, Note_on_c, 0, 80, 90
2, 5189, Note_on_c, 0, 80, 0
2, 5220, Note_on_c, 0, 74, 90
2, 5249, Note_on_c, 0, 74, 0
2, 5280, Note_on_c, 0, 81, 90
2, 5309, Note_on_c, 0, 81, 0
2, 5340, Note_on_c, 0, 74, 90
2, 5369, Note_on_c, 0, 74, 0
2, 5400, Note_on_c, 0, 83, 90
2, 5429, Note_on_c, 0, 83, 0
2, 5460, Note_on_c, 0, 74, 90
2, 5519, Note_on_c, 0, 74, 0
2, 5520, Note_on_c, 0, 73, 90
2, 5579, Note_on_c, 0, 73, 0
2, 5580, Note_on_c, 0, 76, 90
2, 5639, Note_on_c, 0, 76, 0
2, 5640, Note_on_c, 0, 73, 90
2, 5699, Note_on_c, 0, 73, 0
2, 5700, Note_on_c, 0, 71, 90
2, 5729, Note_on_c, 0, 71, 0
2, 5730, Note_on_c, 0, 69, 90
2, 5759, Note_on_c, 0, 69, 0
2, 5760, Note_on_c, 0, 69, 90
2, 5879, Note_on_c, 0, 69, 0
2, 6540, Note_on_c, 0, 61, 90
2, 6569, Note_on_c, 0, 61, 0
2, 6570, Note_on_c, 0, 62, 90
2, 6599, Note_on_c, 0, 62, 0
2, 6600, Note_on_c, 0, 64, 90
2, 6659, Note_on_c, 0, 64, 0
2, 6660, Note_on_c, 0, 64, 90
2, 6719, Note_on_c, 0, 64, 0
2, 6720, Note_on_c, 0, 66, 90
2, 6749, Note_on_c, 0, 66, 0
2, 6750, Note_on_c, 0, 64, 90
2, 6779, Note_on_c, 0, 64, 0
2, 6780, Note_on_c, 0, 62, 90
2, 6809, Note_on_c, 0, 62, 0
2, 6810, Note_on_c, 0, 66, 90
2, 6839, Note_on_c, 0, 66, 0
2, 6840, Note_on_c, 0, 64, 90
2, 6899, Note_on_c, 0, 64, 0
2, 6960, Note_on_c, 0, 69, 90
2, 6989, Note_on_c, 0, 69, 0
2, 7080, Note_on_c, 0, 71, 90
2, 7109, Note_on_c, 0, 71, 0
2, 7200, Note_on_c, 0, 73, 90
2, 7259, Note_on_c, 0, 73, 0
2, 7260, Note_on_c, 0, 69, 90
2, 7289, Note_on_c, 0, 69, 0
2, 7290, Note_on_c, 0, 71, 90
2, 7319, Note_on_c, 0, 71, 0
2, 7320, Note_on_c, 0, 73, 90
2, 7349, Note_on_c, 0, 73, 0
2, 7350, Note_on_c, 0, 74, 90
2, 7379, Note_on_c, 0, 74, 0
2, 7380, Note_on_c, 0, 71, 90
2, 7409, Note_on_c, 0, 71, 0
2, 7410, Note_on_c, 0, 73, 90
2, 7439, Note_on_c, 0, 73, 0
2, 7440, Note_on_c, 0, 74, 90
2, 7469, Note_on_c, 0, 74, 0
2, 7470, Note_on_c, 0, 73, 90
2, 7499, Note_on_c, 0, 73, 0
2, 7500, Note_on_c, 0, 71, 90
2, 7529, Note_on_c, 0, 71, 0
2, 7530, Note_on_c, 0, 69, 90
2, 7559, Note_on_c, 0, 69, 0
2, 7560, Note_on_c, 0, 68, 90
2, 7619, Note_on_c, 0, 68, 0
2, 8340, Note_on_c, 0, 76, 90
2, 8369, Note_on_c, 0, 76, 0
2, 8370, Note_on_c, 0, 78, 90
2, 8399, Note_on_c, 0, 78, 0
2, 8400, Note_on_c, 0, 80, 90
2, 8459, Note_on_c, 0, 80, 0
2, 8460, Note_on_c, 0, 80, 90
2, 8519, Note_on_c, 0, 80, 0
2, 8520, Note_on_c, 0, 81, 90
2, 8549, Note_on_c, 0, 81, 0
2, 8550, Note_on_c, 0, 80, 90
2, 8579, Note_on_c, 0, 80, 0
2, 8580, Note_on_c, 0, 78, 90
2, 8609, Note_on_c, 0, 78, 0
2, 8610, Note_on_c, 0, 81, 90
2, 8639, Note_on_c, 0, 81, 0
2, 8640, Note_on_c, 0, 80, 90
2, 8699, Note_on_c, 0, 80, 0
2, 8760, Note_on_c, 0, 83, 90
2, 8789, Note_on_c, 0, 83, 0
2, 8880, Note_on_c, 0, 75, 90
2, 8909, Note_on_c, 0, 75, 0
2, 9000, Note_on_c, 0, 76, 90
2, 9059, Note_on_c, 0, 76, 0
2, 9060, Note_on_c, 0, 71, 90
2, 9089, Note_on_c, 0, 71, 0
2, 9090, Note_on_c, 0, 73, 90
2, 9119, Note_on_c, 0, 73, 0
2, 9120, Note_on_c, 0, 74, 90
2, 9149, Note_on_c, 0, 74, 0
2, 9150, Note_on_c, 0, 76, 90
2, 9179, Note_on_c, 0, 76, 0
2, 9180, Note_on_c, 0, 73, 90
2, 9209, Note_on_c, 0, 73, 0
2, 9210, Note_on_c, 0, 74, 90
2, 9239, Note_on_c, 0, 74, 0
2, 9240, Note_on_c, 0, 76, 90
2, 9269, Note_on_c, 0, 76, 0
2, 9270, Note_on_c, 0, 74, 90
2, 9299, Note_on_c, 0, 74, 0
2, 9300, Note_on_c, 0, 73, 90
2, 9329, Note_on_c, 0, 73, 0
2, 9330, Note_on_c, 0, 71, 90
2, 9359, Note_on_c, 0, 71, 0
2, 9360, Note_on_c, 0, 69, 90
2, 9419, Note_on_c, 0, 69, 0
2, 10140, Note_on_c, 0, 68, 90
2, 10169, Note_on_c, 0, 68, 0
2, 10170, Note_on_c, 0, 69, 90
2, 10199, Note_on_c, 0, 69, 0
2, 10200, Note_on_c, 0, 71, 90
2, 10229, Note_on_c, 0, 71, 0
2, 10230, Note_on_c, 0, 73, 90
2, 10259, Note_on_c, 0, 73, 0
2, 10260, Note_on_c, 0, 69, 90
2, 10289, Note_on_c, 0, 69, 0
2, 10290, Note_on_c, 0, 71, 90
2, 10319, Note_on_c, 0, 71, 0
2, 10320, Note_on_c, 0, 73, 90
2, 10349, Note_on_c, 0, 73, 0
2, 10350, Note_on_c, 0, 71, 90
2, 10379, Note_on_c, 0, 71, 0
2, 10380, Note_on_c, 0, 69, 90
2, 10409, Note_on_c, 0, 69, 0
2, 10410, Note_on_c, 0, 68, 90
2, 10439, Note_on_c, 0, 68, 0
2, 10440, Note_on_c, 0, 69, 90
2, 10499, Note_on_c, 0, 69, 0
2, 10560, Note_on_c, 0, 76, 90
2, 10589, Note_on_c, 0, 76, 0
2, 10680, Note_on_c, 0, 80, 90
2, 10709, Note_on_c, 0, 80, 0
2, 10800, Note_on_c, 0, 81, 90
2, 10829, Note_on_c, 0, 81, 0
2, 13140, Note_on_c, 0, 76, 90
2, 13259, Note_on_c, 0, 76, 0
2, 13260, Note_on_c, 0, 73, 90
2, 13319, Note_on_c, 0, 73, 0
2, 13320, Note_on_c, 0, 69, 90
2, 13379, Note_on_c, 0, 69, 0
2, 13380, Note_on_c, 0, 71, 90
2, 13409, Note_on_c, 0, 71, 0
2, 13410, Note_on_c, 0, 73, 90
2, 13439, Note_on_c, 0, 73, 0
2, 13440, Note_on_c, 0, 74, 90
2, 13469, Note_on_c, 0, 74, 0
2, 13470, Note_on_c, 0, 76, 90
2, 13499, Note_on_c, 0, 76, 0
2, 13500, Note_on_c, 0, 78, 90
2, 13529, Note_on_c, 0, 78, 0
2, 13560, Note_on_c, 0, 76, 90
2, 13619, Note_on_c, 0, 76, 0
2, 13620, Note_on_c, 0, 74, 90
2, 13649, Note_on_c, 0, 74, 0
2, 13650, Note_on_c, 0, 73, 90
2, 13679, Note_on_c, 0, 73, 0
2, 13680, Note_on_c, 0, 71, 90
2, 13739, Note_on_c, 0, 71, 0
2, 13740, Note_on_c, 0, 68, 90
2, 13769, Note_on_c, 0, 68, 0
2, 13770, Note_on_c, 0, 69, 90
2, 13799, Note_on_c, 0, 69, 0
2, 13800, Note_on_c, 0, 71, 90
2, 13829, Note_on_c, 0, 71, 0
2, 13830, Note_on_c, 0, 73, 90
2, 13859, Note_on_c, 0, 73, 0
2, 13860, Note_on_c, 0, 74, 90
2, 13889, Note_on_c, 0, 74, 0
2, 13920, Note_on_c, 0, 74, 90
2, 14099, Note_on_c, 0, 74, 0
2, 14100, Note_on_c, 0, 73, 90
2, 14129, Note_on_c, 0, 73, 0
2, 14130, Note_on_c, 0, 71, 90
2, 14159, Note_on_c, 0, 71, 0
2, 14160, Note_on_c, 0, 73, 90
2, 14189, Note_on_c, 0, 73, 0
2, 14190, Note_on_c, 0, 75, 90
2, 14219, Note_on_c, 0, 75, 0
2, 14220, Note_on_c, 0, 76, 90
2, 14249, Note_on_c, 0, 76, 0
2, 14280, Note_on_c, 0, 78, 90
2, 14309, Note_on_c, 0, 78, 0
2, 14310, Note_on_c, 0, 80, 90
2, 14339, Note_on_c, 0, 80, 0
2, 14340, Note_on_c, 0, 78, 90
2, 14369, Note_on_c, 0, 78, 0
2, 14370, Note_on_c, 0, 76, 90
2, 14399, Note_on_c, 0, 76, 0
2, 14400, Note_on_c, 0, 75, 90
2, 14429, Note_on_c, 0, 75, 0
2, 14430, Note_on_c, 0, 76, 90
2, 14459, Note_on_c, 0, 76, 0
2, 14460, Note_on_c, 0, 78, 90
2, 14579, Note_on_c, 0, 78, 0
2, 14580, Note_on_c, 0, 75, 90
2, 14639, Note_on_c, 0, 75, 0
2, 14640, Note_on_c, 0, 71, 90
2, 14699, Note_on_c, 0, 71, 0
2, 14700, Note_on_c, 0, 75, 90
2, 14759, Note_on_c, 0, 75, 0
2, 14760, Note_on_c, 0, 76, 90
2, 15179, Note_on_c, 0, 76, 0
2, 15180, Note_on_c, 0, 64, 90
2, 15299, Note_on_c, 0, 64, 0
2, 15300, Note_on_c, 0, 69, 90
2, 15419, Note_on_c, 0, 69, 0
2, 15420, Note_on_c, 0, 73, 90
2, 15479, Note_on_c, 0, 73, 0
2, 15480, Note_on_c, 0, 78, 90
2, 15899, Note_on_c, 0, 78, 0
2, 15900, Note_on_c, 0, 75, 90
2, 16019, Note_on_c, 0, 75, 0
2, 16020, Note_on_c, 0, 78, 90
2, 16139, Note_on_c, 0, 78, 0
2, 16140, Note_on_c, 0, 81, 90
2, 16199, Note_on_c, 0, 81, 0
2, 16200, Note_on_c, 0, 71, 90
2, 16619, Note_on_c, 0, 71, 0
2, 16620, Note_on_c, 0, 80, 90
2, 16739, Note_on_c, 0, 80, 0
2, 16740, Note_on_c, 0, 83, 90
2, 16859, Note_on_c, 0, 83, 0
2, 16860, Note_on_c, 0, 81, 90
2, 16889, Note_on_c, 0, 81, 0
2, 16890, Note_on_c, 0, 80, 90
2, 16919, Note_on_c, 0, 80, 0
2, 16920, Note_on_c, 0, 81, 90
2, 16979, Note_on_c, 0, 81, 0
2, 16980, Note_on_c, 0, 73, 90
2, 17099, Note_on_c, 0, 73, 0
2, 17100, Note_on_c, 0, 81, 90
2, 17219, Note_on_c, 0, 81, 0
2, 17220, Note_on_c, 0, 80, 90
2, 17249, Note_on_c, 0, 80, 0
2, 17250, Note_on_c, 0, 78, 90
2, 17279, Note_on_c, 0, 78, 0
2, 17280, Note_on_c, 0, 80, 90
2, 17339, Note_on_c, 0, 80, 0
2, 17340, Note_on_c, 0, 71, 90
2, 17459, Note_on_c, 0, 71, 0
2, 17460, Note_on_c, 0, 80, 90
2, 17579, Note_on_c, 0, 80, 0
2, 17580, Note_on_c, 0, 78, 90
2, 17609, Note_on_c, 0, 78, 0
2, 17610, Note_on_c, 0, 76, 90
2, 17639, Note_on_c, 0, 76, 0
2, 17640, Note_on_c, 0, 78, 90
2, 17699, Note_on_c, 0, 78, 0
2, 17700, Note_on_c, 0, 69, 90
2, 17819, Note_on_c, 0, 69, 0
2, 17820, Note_on_c, 0, 78, 90
2, 17939, Note_on_c, 0, 78, 0
2, 17940, Note_on_c, 0, 76, 90
2, 17969, Note_on_c, 0, 76, 0
2, 17970, Note_on_c, 0, 75, 90
2, 17999, Note_on_c, 0, 75, 0
2, 18000, Note_on_c, 0, 76, 90
2, 18419, Note_on_c, 0, 76, 0
2, 18420, Note_on_c, 0, 78, 90
2, 18479, Note_on_c, 0, 78, 0
2, 18480, Note_on_c, 0, 71, 90
2, 18779, Note_on_c, 0, 71, 0
2, 18780, Note_on_c, 0, 75, 90
2, 18839, Note_on_c, 0, 75, 0
2, 18840, Note_on_c, 0, 76, 90
2, 18899, Note_on_c, 0, 76, 0
2, 18900, Note_on_c, 0, 76, 90
2, 18959, Note_on_c, 0, 76, 0
2, 18960, Note_on_c, 0, 76, 90
2, 19019, Note_on_c, 0, 76, 0
2, 19020, Note_on_c, 0, 75, 90
2, 19079, Note_on_c, 0, 75, 0
2, 19080, Note_on_c, 0, 76, 90
2, 19139, Note_on_c, 0, 76, 0
2, 19140, Note_on_c, 0, 68, 90
2, 19169, Note_on_c, 0, 68, 0
2, 19170, Note_on_c, 0, 69, 90
2, 19199, Note_on_c, 0, 69, 0
2, 19200, Note_on_c, 0, 71, 90
2, 19259, Note_on_c, 0, 71, 0
2, 19260, Note_on_c, 0, 71, 90
2, 19319, Note_on_c, 0, 71, 0
2, 19320, Note_on_c, 0, 73, 90
2, 19349, Note_on_c, 0, 73, 0
2, 19350, Note_on_c, 0, 71, 90
2, 19379, Note_on_c, 0, 71, 0
2, 19380, Note_on_c, 0, 69, 90
2, 19409, Note_on_c, 0, 69, 0
2, 19410, Note_on_c, 0, 73, 90
2, 19439, Note_on_c, 0, 73, 0
2, 19440, Note_on_c, 0, 71, 90
2, 19499, Note_on_c, 0, 71, 0
2, 19560, Note_on_c, 0, 76, 90
2, 19590, Note_on_c, 0, 76, 0
2, 19680, Note_on_c, 0, 78, 90
2, 19710, Note_on_c, 0, 78, 0
2, 19800, Note_on_c, 0, 80, 90
2, 19860, Note_on_c, 0, 80, 0
2, 19860, Note_on_c, 0, 76, 90
2, 19889, Note_on_c, 0, 76, 0
2, 19890, Note_on_c, 0, 78, 90
2, 19919, Note_on_c, 0, 78, 0
2, 19920, Note_on_c, 0, 80, 90
2, 19949, Note_on_c, 0, 80, 0
2, 19950, Note_on_c, 0, 81, 90
2, 19979, Note_on_c, 0, 81, 0
2, 19980, Note_on_c, 0, 78, 90
2, 20009, Note_on_c, 0, 78, 0
2, 20010, Note_on_c, 0, 80, 90
2, 20039, Note_on_c, 0, 80, 0
2, 20040, Note_on_c, 0, 81, 90
2, 20069, Note_on_c, 0, 81, 0
2, 20070, Note_on_c, 0, 80, 90
2, 20099, Note_on_c, 0, 80, 0
2, 20100, Note_on_c, 0, 78, 90
2, 20129, Note_on_c, 0, 78, 0
2, 20130, Note_on_c, 0, 81, 90
2, 20159, Note_on_c, 0, 81, 0
2, 20160, Note_on_c, 0, 80, 90
2, 20219, Note_on_c, 0, 80, 0
2, 20280, Note_on_c, 0, 71, 90
2, 20309, Note_on_c, 0, 71, 0
2, 20400, Note_on_c, 0, 75, 90
2, 20429, Note_on_c, 0, 75, 0
2, 20520, Note_on_c, 0, 76, 90
2, 20549, Note_on_c, 0, 76, 0
2, 21660, Note_on_c, 0, 73, 100
2, 21690, Note_on_c, 0, 73, 0
2, 21690, Note_on_c, 0, 74, 100
2, 21720, Note_on_c, 0, 74, 0
2, 21720, Note_on_c, 0, 76, 100
2, 21780, Note_on_c, 0, 76, 0
2, 21780, Note_on_c, 0, 76, 100
2, 21840, Note_on_c, 0, 76, 0
2, 21840, Note_on_c, 0, 78, 100
2, 21870, Note_on_c, 0, 78, 0
2, 21870, Note_on_c, 0, 76, 100
2, 21900, Note_on_c, 0, 76, 0
2, 21900, Note_on_c, 0, 74, 100
2, 21930, Note_on_c, 0, 74, 0
2, 21930, Note_on_c, 0, 78, 100
2, 21960, Note_on_c, 0, 78, 0
2, 21960, Note_on_c, 0, 76, 100
2, 22020, Note_on_c, 0, 76, 0
2, 22080, Note_on_c, 0, 69, 100
2, 22110, Note_on_c, 0, 69, 0
2, 22200, Note_on_c, 0, 71, 100
2, 22230, Note_on_c, 0, 71, 0
2, 22320, Note_on_c, 0, 73, 100
2, 22380, Note_on_c, 0, 73, 0
2, 22380, Note_on_c, 0, 69, 100
2, 22410, Note_on_c, 0, 69, 0
2, 22410, Note_on_c, 0, 71, 100
2, 22440, Note_on_c, 0, 71, 0
2, 22440, Note_on_c, 0, 73, 100
2, 22470, Note_on_c, 0, 73, 0
2, 22470, Note_on_c, 0, 74, 100
2, 22500, Note_on_c, 0, 74, 0
2, 22500, Note_on_c, 0, 71, 100
2, 22530, Note_on_c, 0, 71, 0
2, 22530, Note_on_c, 0, 73, 100
2, 22560, Note_on_c, 0, 73, 0
2, 22560, Note_on_c, 0, 74, 100
2, 22590, Note_on_c, 0, 74, 0
2, 22590, Note_on_c, 0, 73, 100
2, 22620, Note_on_c, 0, 73, 0
2, 22620, Note_on_c, 0, 71, 100
2, 22650, Note_on_c, 0, 71, 0
2, 22650, Note_on_c, 0, 74, 100
2, 22680, Note_on_c, 0, 74, 0
2, 22680, Note_on_c, 0, 73, 100
2, 22740, Note_on_c, 0, 73, 0
2, 22800, Note_on_c, 0, 76, 100
2, 22830, Note_on_c, 0, 76, 0
2, 22920, Note_on_c, 0, 80, 100
2, 22950, Note_on_c, 0, 80, 0
2, 23040, Note_on_c, 0, 81, 100
2, 23070, Note_on_c, 0, 81, 0
2, 24300, Note_on_c, 0, 74, 100
2, 24330, Note_on_c, 0, 74, 0
2, 24330, Note_on_c, 0, 76, 100
2, 24360, Note_on_c, 0, 76, 0
2, 24360, Note_on_c, 0, 78, 100
2, 24420, Note_on_c, 0, 78, 0
2, 24660, Note_on_c, 0, 68, 100
2, 24690, Note_on_c, 0, 68, 0
2, 24690, Note_on_c, 0, 69, 100
2, 24720, Note_on_c, 0, 69, 0
2, 24720, Note_on_c, 0, 71, 100
2, 24780, Note_on_c, 0, 71, 0
2, 25020, Note_on_c, 0, 73, 100
2, 25050, Note_on_c, 0, 73, 0
2, 25050, Note_on_c, 0, 74, 100
2, 25080, Note_on_c, 0, 74, 0
2, 25080, Note_on_c, 0, 76, 100
2, 25140, Note_on_c, 0, 76, 0
2, 25380, Note_on_c, 0, 66, 100
2, 25410, Note_on_c, 0, 66, 0
2, 25410, Note_on_c, 0, 68, 100
2, 25440, Note_on_c, 0, 68, 0
2, 25440, Note_on_c, 0, 69, 100
2, 25500, Note_on_c, 0, 69, 0
2, 25680, Note_on_c, 0, 74, 100
2, 26340, Note_on_c, 0, 74, 0
2, 26340, Note_on_c, 0, 73, 90
2, 26369, Note_on_c, 0, 73, 0
2, 26370, Note_on_c, 0, 74, 90
2, 26399, Note_on_c, 0, 74, 0
2, 26400, Note_on_c, 0, 76, 90
2, 26429, Note_on_c, 0, 76, 0
2, 26430, Note_on_c, 0, 74, 90
2, 26459, Note_on_c, 0, 74, 0
2, 26460, Note_on_c, 0, 78, 90
2, 26489, Note_on_c, 0, 78, 0
2, 26490, Note_on_c, 0, 76, 90
2, 26519, Note_on_c, 0, 76, 0
2, 26520, Note_on_c, 0, 74, 90
2, 26549, Note_on_c, 0, 74, 0
2, 26550, Note_on_c, 0, 73, 90
2, 26579, Note_on_c, 0, 73, 0
2, 26580, Note_on_c, 0, 71, 90
2, 26609, Note_on_c, 0, 71, 0
2, 26610, Note_on_c, 0, 69, 90
2, 26639, Note_on_c, 0, 69, 0
2, 26640, Note_on_c, 0, 73, 90
2, 26699, Note_on_c, 0, 73, 0
2, 26700, Note_on_c, 0, 71, 90
2, 26759, Note_on_c, 0, 71, 0
2, 26760, Note_on_c, 0, 71, 90
2, 26789, Note_on_c, 0, 71, 0
2, 26880, Note_on_c, 0, 74, 90
2, 26909, Note_on_c, 0, 74, 0
2, 27000, Note_on_c, 0, 73, 90
2, 27029, Note_on_c, 0, 73, 0
2, 27120, Note_on_c, 0, 78, 90
2, 27149, Note_on_c, 0, 78, 0
2, 27240, Note_on_c, 0, 76, 90
2, 27269, Note_on_c, 0, 76, 0
2, 27360, Note_on_c, 0, 76, 90
2, 27389, Note_on_c, 0, 76, 0
2, 27480, Note_on_c, 0, 74, 90
2, 27509, Note_on_c, 0, 74, 0
2, 27600, Note_on_c, 0, 73, 90
2, 27629, Note_on_c, 0, 73, 0
2, 27720, Note_on_c, 0, 73, 90
2, 27749, Note_on_c, 0, 73, 0
2, 27840, Note_on_c, 0, 71, 90
2, 27869, Note_on_c, 0, 71, 0
2, 27960, Note_on_c, 0, 76, 90
2, 27989, Note_on_c, 0, 76, 0
2, 28080, Note_on_c, 0, 76, 90
2, 28109, Note_on_c, 0, 76, 0
2, 28200, Note_on_c, 0, 74, 90
2, 28229, Note_on_c, 0, 74, 0
2, 28320, Note_on_c, 0, 71, 90
2, 28349, Note_on_c, 0, 71, 0
2, 28440, Note_on_c, 0, 69, 90
2, 28469, Note_on_c, 0, 69, 0
2, 28560, Note_on_c, 0, 76, 90
2, 28589, Note_on_c, 0, 76, 0
2, 28680, Note_on_c, 0, 73, 90
2, 28709, Note_on_c, 0, 73, 0
2, 28800, Note_on_c, 0, 78, 90
2, 28829, Note_on_c, 0, 78, 0
2, 28920, Note_on_c, 0, 74, 90
2, 28949, Note_on_c, 0, 74, 0
2, 29040, Note_on_c, 0, 72, 90
2, 29069, Note_on_c, 0, 72, 0
2, 29160, Note_on_c, 0, 71, 90
2, 29189, Note_on_c, 0, 71, 0
2, 29280, Note_on_c, 0, 76, 90
2, 29309, Note_on_c, 0, 76, 0
2, 29700, Note_on_c, 0, 76, 90
2, 29820, Note_on_c, 0, 76, 0
2, 29820, Note_on_c, 0, 73, 90
2, 29879, Note_on_c, 0, 73, 0
2, 29880, Note_on_c, 0, 69, 90
2, 29939, Note_on_c, 0, 69, 0
2, 29940, Note_on_c, 0, 71, 90
2, 29969, Note_on_c, 0, 71, 0
2, 29970, Note_on_c, 0, 73, 90
2, 29999, Note_on_c, 0, 73, 0
2, 30000, Note_on_c, 0, 74, 90
2, 30029, Note_on_c, 0, 74, 0
2, 30030, Note_on_c, 0, 76, 90
2, 30059, Note_on_c, 0, 76, 0
2, 30060, Note_on_c, 0, 78, 90
2, 30089, Note_on_c, 0, 78, 0
2, 30120, Note_on_c, 0, 76, 90
2, 30179, Note_on_c, 0, 76, 0
2, 30180, Note_on_c, 0, 74, 90
2, 30209, Note_on_c, 0, 74, 0
2, 30210, Note_on_c, 0, 73, 90
2, 30239, Note_on_c, 0, 73, 0
2, 30240, Note_on_c, 0, 71, 90
2, 30299, Note_on_c, 0, 71, 0
2, 30300, Note_on_c, 0, 68, 90
2, 30329, Note_on_c, 0, 68, 0
2, 30330, Note_on_c, 0, 69, 90
2, 30359, Note_on_c, 0, 69, 0
2, 30360, Note_on_c, 0, 71, 90
2, 30389, Note_on_c, 0, 71, 0
2, 30390, Note_on_c, 0, 73, 90
2, 30419, Note_on_c, 0, 73, 0
2, 30420, Note_on_c, 0, 74, 90
2, 30449, Note_on_c, 0, 74, 0
2, 30480, Note_on_c, 0, 74, 90
2, 30659, Note_on_c, 0, 74, 0
2, 30660, Note_on_c, 0, 73, 90
2, 30779, Note_on_c, 0, 73, 0
2, 30780, Note_on_c, 0, 76, 90
2, 30899, Note_on_c, 0, 76, 0
2, 30900, Note_on_c, 0, 79, 90
2, 30959, Note_on_c, 0, 79, 0
2, 30960, Note_on_c, 0, 78, 90
2, 31379, Note_on_c, 0, 78, 0
2, 31380, Note_on_c, 0, 75, 90
2, 31499, Note_on_c, 0, 75, 0
2, 31500, Note_on_c, 0, 78, 90
2, 31619, Note_on_c, 0, 78, 0
2, 31620, Note_on_c, 0, 81, 90
2, 31679, Note_on_c, 0, 81, 0
2, 31680, Note_on_c, 0, 80, 90
2, 32099, Note_on_c, 0, 80, 0
2, 32100, Note_on_c, 0, 71, 90
2, 32219, Note_on_c, 0, 71, 0
2, 32220, Note_on_c, 0, 76, 90
2, 32339, Note_on_c, 0, 76, 0
2, 32340, Note_on_c, 0, 80, 90
2, 32399, Note_on_c, 0, 80, 0
2, 32400, Note_on_c, 0, 81, 90
2, 32459, Note_on_c, 0, 81, 0
2, 32460, Note_on_c, 0, 76, 90
2, 32579, Note_on_c, 0, 76, 0
2, 32580, Note_on_c, 0, 79, 90
2, 32699, Note_on_c, 0, 79, 0
2, 32700, Note_on_c, 0, 78, 90
2, 32729, Note_on_c, 0, 78, 0
2, 32730, Note_on_c, 0, 76, 90
2, 32759, Note_on_c, 0, 76, 0
2, 32760, Note_on_c, 0, 78, 90
2, 32819, Note_on_c, 0, 78, 0
2, 32820, Note_on_c, 0, 74, 90
2, 32939, Note_on_c, 0, 74, 0
2, 32940, Note_on_c, 0, 78, 90
2, 33059, Note_on_c, 0, 78, 0
2, 33060, Note_on_c, 0, 76, 90
2, 33089, Note_on_c, 0, 76, 0
2, 33090, Note_on_c, 0, 74, 90
2, 33119, Note_on_c, 0, 74, 0
2, 33120, Note_on_c, 0, 76, 90
2, 33179, Note_on_c, 0, 76, 0
2, 33180, Note_on_c, 0, 73, 90
2, 33299, Note_on_c, 0, 73, 0
2, 33300, Note_on_c, 0, 76, 90
2, 33419, Note_on_c, 0, 76, 0
2, 33420, Note_on_c, 0, 74, 90
2, 33449, Note_on_c, 0, 74, 0
2, 33450, Note_on_c, 0, 73, 90
2, 33479, Note_on_c, 0, 73, 0
2, 33480, Note_on_c, 0, 74, 90
2, 33540, Note_on_c, 0, 74, 0
2, 33540, Note_on_c, 0, 71, 90
2, 33660, Note_on_c, 0, 71, 0
2, 33660, Note_on_c, 0, 74, 90
2, 33780, Note_on_c, 0, 74, 0
2, 33780, Note_on_c, 0, 73, 90
2, 33809, Note_on_c, 0, 73, 0
2, 33810, Note_on_c, 0, 71, 90
2, 33839, Note_on_c, 0, 71, 0
2, 33840, Note_on_c, 0, 73, 90
2, 33869, Note_on_c, 0, 73, 0
2, 33900, Note_on_c, 0, 69, 90
2, 33929, Note_on_c, 0, 69, 0
2, 33960, Note_on_c, 0, 74, 90
2, 33989, Note_on_c, 0, 74, 0
2, 34020, Note_on_c, 0, 69, 90
2, 34049, Note_on_c, 0, 69, 0
2, 34080, Note_on_c, 0, 76, 90
2, 34109, Note_on_c, 0, 76, 0
2, 34140, Note_on_c, 0, 69, 90
2, 34169, Note_on_c, 0, 69, 0
2, 34200, Note_on_c, 0, 78, 90
2, 34229, Note_on_c, 0, 78, 0
2, 34260, Note_on_c, 0, 74, 90
2, 34289, Note_on_c, 0, 74, 0
2, 34320, Note_on_c, 0, 80, 90
2, 34349, Note_on_c, 0, 80, 0
2, 34380, Note_on_c, 0, 74, 90
2, 34409, Note_on_c, 0, 74, 0
2, 34440, Note_on_c, 0, 81, 90
2, 34469, Note_on_c, 0, 81, 0
2, 34500, Note_on_c, 0, 74, 90
2, 34529, Note_on_c, 0, 74, 0
2, 34560, Note_on_c, 0, 83, 90
2, 34589, Note_on_c, 0, 83, 0
2, 34620, Note_on_c, 0, 74, 90
2, 34679, Note_on_c, 0, 74, 0
2, 34680, Note_on_c, 0, 73, 90
2, 34739, Note_on_c, 0, 73, 0
2, 34740, Note_on_c, 0, 76, 90
2, 34799, Note_on_c, 0, 76, 0
2, 34800, Note_on_c, 0, 73, 90
2, 34859, Note_on_c, 0, 73, 0
2, 34860, Note_on_c, 0, 71, 90
2, 34889, Note_on_c, 0, 71, 0
2, 34890, Note_on_c, 0, 69, 90
2, 34919, Note_on_c, 0, 69, 0
2, 34920, Note_on_c, 0, 69, 90
2, 35039, Note_on_c, 0, 69, 0
2, 35700, Note_on_c, 0, 69, 90
2, 35729, Note_on_c, 0, 69, 0
2, 35730, Note_on_c, 0, 71, 90
2, 35759, Note_on_c, 0, 71, 0
2, 35760, Note_on_c, 0, 73, 90
2, 35819, Note_on_c, 0, 73, 0
2, 35820, Note_on_c, 0, 73, 90
2, 35879, Note_on_c, 0, 73, 0
2, 35880, Note_on_c, 0, 74, 90
2, 35909, Note_on_c, 0, 74, 0
2, 35910, Note_on_c, 0, 73, 90
2, 35939, Note_on_c, 0, 73, 0
2, 35940, Note_on_c, 0, 71, 90
2, 35969, Note_on_c, 0, 71, 0
2, 35970, Note_on_c, 0, 74, 90
2, 35999, Note_on_c, 0, 74, 0
2, 36000, Note_on_c, 0, 73, 90
2, 36059, Note_on_c, 0, 73, 0
2, 36120, Note_on_c, 0, 78, 90
2, 36149, Note_on_c, 0, 78, 0
2, 36240, Note_on_c, 0, 80, 90
2, 36269, Note_on_c, 0, 80, 0
2, 36360, Note_on_c, 0, 81, 90
2, 36389, Note_on_c, 0, 81, 0
2, 37500, Note_on_c, 0, 75, 90
2, 37529, Note_on_c, 0, 75, 0
2, 37530, Note_on_c, 0, 76, 90
2, 37559, Note_on_c, 0, 76, 0
2, 37560, Note_on_c, 0, 78, 90
2, 37589, Note_on_c, 0, 78, 0
2, 37590, Note_on_c, 0, 80, 90
2, 37619, Note_on_c, 0, 80, 0
2, 37620, Note_on_c, 0, 76, 90
2, 37649, Note_on_c, 0, 76, 0
2, 37650, Note_on_c, 0, 78, 90
2, 37679, Note_on_c, 0, 78, 0
2, 37680, Note_on_c, 0, 80, 90
2, 37709, Note_on_c, 0, 80, 0
2, 37710, Note_on_c, 0, 78, 90
2, 37739, Note_on_c, 0, 78, 0
2, 37740, Note_on_c, 0, 76, 90
2, 37769, Note_on_c, 0, 76, 0
2, 37770, Note_on_c, 0, 75, 90
2, 37799, Note_on_c, 0, 75, 0
2, 37800, Note_on_c, 0, 76, 90
2, 37979, Note_on_c, 0, 76, 0
2, 37980, Note_on_c, 0, 78, 90
2, 38009, Note_on_c, 0, 78, 0
2, 38010, Note_on_c, 0, 80, 90
2, 38039, Note_on_c, 0, 80, 0
2, 38040, Note_on_c, 0, 78, 90
2, 38099, Note_on_c, 0, 78, 0
2, 38100, Note_on_c, 0, 76, 90
2, 38159, Note_on_c, 0, 76, 0
2, 38160, Note_on_c, 0, 75, 90
2, 38339, Note_on_c, 0, 75, 0
2, 38340, Note_on_c, 0, 76, 90
2, 38369, Note_on_c, 0, 76, 0
2, 38370, Note_on_c, 0, 78, 90
2, 38399, Note_on_c, 0, 78, 0
2, 38400, Note_on_c, 0, 76, 90
2, 38459, Note_on_c, 0, 76, 0
2, 38460, Note_on_c, 0, 75, 90
2, 38519, Note_on_c, 0, 75, 0
2, 38520, Note_on_c, 0, 73, 90
2, 38699, Note_on_c, 0, 73, 0
2, 38700, Note_on_c, 0, 75, 90
2, 38729, Note_on_c, 0, 75, 0
2, 38730, Note_on_c, 0, 76, 90
2, 38759, Note_on_c, 0, 76, 0
2, 38760, Note_on_c, 0, 75, 90
2, 38819, Note_on_c, 0, 75, 0
2, 38820, Note_on_c, 0, 73, 90
2, 38879, Note_on_c, 0, 73, 0
2, 38880, Note_on_c, 0, 72, 90
2, 38909, Note_on_c, 0, 72, 0
2, 38910, Note_on_c, 0, 73, 90
2, 38939, Note_on_c, 0, 73, 0
2, 38940, Note_on_c, 0, 75, 90
2, 38969, Note_on_c, 0, 75, 0
2, 38970, Note_on_c, 0, 72, 90
2, 38999, Note_on_c, 0, 72, 0
2, 39000, Note_on_c, 0, 68, 90
2, 39059, Note_on_c, 0, 68, 0
2, 39060, Note_on_c, 0, 80, 90
2, 39119, Note_on_c, 0, 80, 0
2, 39120, Note_on_c, 0, 80, 90
2, 39149, Note_on_c, 0, 80, 0
2, 39150, Note_on_c, 0, 78, 90
2, 39179, Note_on_c, 0, 78, 0
2, 39180, Note_on_c, 0, 76, 90
2, 39209, Note_on_c, 0, 76, 0
2, 39210, Note_on_c, 0, 75, 90
2, 39239, Note_on_c, 0, 75, 0
2, 39240, Note_on_c, 0, 76, 90
2, 39269, Note_on_c, 0, 76, 0
2, 39270, Note_on_c, 0, 80, 90
2, 39299, Note_on_c, 0, 80, 0
2, 39300, Note_on_c, 0, 78, 90
2, 39329, Note_on_c, 0, 78, 0
2, 39330, Note_on_c, 0, 81, 90
2, 39359, Note_on_c, 0, 81, 0
2, 39360, Note_on_c, 0, 80, 90
2, 39419, Note_on_c, 0, 80, 0
2, 39420, Note_on_c, 0, 73, 90
2, 39479, Note_on_c, 0, 73, 0
2, 39480, Note_on_c, 0, 76, 90
2, 39509, Note_on_c, 0, 76, 0
2, 39510, Note_on_c, 0, 75, 90
2, 39539, Note_on_c, 0, 75, 0
2, 39540, Note_on_c, 0, 73, 90
2, 39569, Note_on_c, 0, 73, 0
2, 39570, Note_on_c, 0, 72, 90
2, 39599, Note_on_c, 0, 72, 0
2, 39600, Note_on_c, 0, 73, 90
2, 39659, Note_on_c, 0, 73, 0
2, 39660, Note_on_c, 0, 73, 90
2, 39689, Note_on_c, 0, 73, 0
2, 39690, Note_on_c, 0, 75, 90
2, 39719, Note_on_c, 0, 75, 0
2, 39720, Note_on_c, 0, 76, 90
2, 39779, Note_on_c, 0, 76, 0
2, 39780, Note_on_c, 0, 76, 90
2, 39839, Note_on_c, 0, 76, 0
2, 39840, Note_on_c, 0, 78, 90
2, 39869, Note_on_c, 0, 78, 0
2, 39870, Note_on_c, 0, 76, 90
2, 39899, Note_on_c, 0, 76, 0
2, 39900, Note_on_c, 0, 75, 90
2, 39929, Note_on_c, 0, 75, 0
2, 39930, Note_on_c, 0, 78, 90
2, 39959, Note_on_c, 0, 78, 0
2, 39960, Note_on_c, 0, 76, 90
2, 40019, Note_on_c, 0, 76, 0
2, 40080, Note_on_c, 0, 80, 90
2, 40109, Note_on_c, 0, 80, 0
2, 40200, Note_on_c, 0, 72, 90
2, 40229, Note_on_c, 0, 72, 0
2, 40320, Note_on_c, 0, 73, 90
2, 40349, Note_on_c, 0, 73, 0
2, 41100, Note_on_c, 0, 74, 90
2, 41129, Note_on_c, 0, 74, 0
2, 41130, Note_on_c, 0, 76, 90
2, 41159, Note_on_c, 0, 76, 0
2, 41160, Note_on_c, 0, 78, 90
2, 41189, Note_on_c, 0, 78, 0
2, 41190, Note_on_c, 0, 79, 90
2, 41219, Note_on_c, 0, 79, 0
2, 41220, Note_on_c, 0, 76, 90
2, 41249, Note_on_c, 0, 76, 0
2, 41250, Note_on_c, 0, 78, 90
2, 41279, Note_on_c, 0, 78, 0
2, 41280, Note_on_c, 0, 79, 90
2, 41309, Note_on_c, 0, 79, 0
2, 41310, Note_on_c, 0, 78, 90
2, 41339, Note_on_c, 0, 78, 0
2, 41340, Note_on_c, 0, 76, 90
2, 41369, Note_on_c, 0, 76, 0
2, 41370, Note_on_c, 0, 79, 90
2, 41399, Note_on_c, 0, 79, 0
2, 41400, Note_on_c, 0, 78, 90
2, 41459, Note_on_c, 0, 78, 0
2, 41520, Note_on_c, 0, 71, 90
2, 41549, Note_on_c, 0, 71, 0
2, 41640, Note_on_c, 0, 73, 90
2, 41669, Note_on_c, 0, 73, 0
2, 41760, Note_on_c, 0, 74, 90
2, 41789, Note_on_c, 0, 74, 0
2, 42540, Note_on_c, 0, 69, 90
2, 42569, Note_on_c, 0, 69, 0
2, 42570, Note_on_c, 0, 71, 90
2, 42599, Note_on_c, 0, 71, 0
2, 42600, Note_on_c, 0, 73, 90
2, 42629, Note_on_c, 0, 73, 0
2, 42630, Note_on_c, 0, 74, 90
2, 42659, Note_on_c, 0, 74, 0
2, 42660, Note_on_c, 0, 71, 90
2, 42689, Note_on_c, 0, 71, 0
2, 42690, Note_on_c, 0, 73, 90
2, 42719, Note_on_c, 0, 73, 0
2, 42720, Note_on_c, 0, 74, 90
2, 42749, Note_on_c, 0, 74, 0
2, 42750, Note_on_c, 0, 73, 90
2, 42779, Note_on_c, 0, 73, 0
2, 42780, Note_on_c, 0, 71, 90
2, 42809, Note_on_c, 0, 71, 0
2, 42810, Note_on_c, 0, 74, 90
2, 42839, Note_on_c, 0, 74, 0
2, 42840, Note_on_c, 0, 73, 90
2, 43199, Note_on_c, 0, 73, 0
2, 43200, Note_on_c, 0, 71, 90
2, 43259, Note_on_c, 0, 71, 0
2, 43260, Note_on_c, 0, 78, 90
2, 43289, Note_on_c, 0, 78, 0
2, 43290, Note_on_c, 0, 76, 90
2, 43319, Note_on_c, 0, 76, 0
2, 43320, Note_on_c, 0, 74, 90
2, 43349, Note_on_c, 0, 74, 0
2, 43350, Note_on_c, 0, 76, 90
2, 43379, Note_on_c, 0, 76, 0
2, 43380, Note_on_c, 0, 73, 90
2, 43409, Note_on_c, 0, 73, 0
2, 43410, Note_on_c, 0, 74, 90
2, 43439, Note_on_c, 0, 74, 0
2, 43440, Note_on_c, 0, 71, 90
2, 43619, Note_on_c, 0, 71, 0
2, 43620, Note_on_c, 0, 73, 90
2, 43649, Note_on_c, 0, 73, 0
2, 43650, Note_on_c, 0, 74, 90
2, 43679, Note_on_c, 0, 74, 0
2, 43680, Note_on_c, 0, 73, 90
2, 43739, Note_on_c, 0, 73, 0
2, 43740, Note_on_c, 0, 71, 90
2, 43799, Note_on_c, 0, 71, 0
2, 43800, Note_on_c, 0, 76, 90
2, 43829, Note_on_c, 0, 76, 0
2, 43830, Note_on_c, 0, 74, 90
2, 43859, Note_on_c, 0, 74, 0
2, 43860, Note_on_c, 0, 73, 90
2, 43889, Note_on_c, 0, 73, 0
2, 43890, Note_on_c, 0, 71, 90
2, 43919, Note_on_c, 0, 71, 0
2, 43920, Note_on_c, 0, 69, 90
2, 43949, Note_on_c, 0, 69, 0
2, 43950, Note_on_c, 0, 73, 90
2, 43979, Note_on_c, 0, 73, 0
2, 43980, Note_on_c, 0, 71, 90
2, 44009, Note_on_c, 0, 71, 0
2, 44010, Note_on_c, 0, 69, 90
2, 44039, Note_on_c, 0, 69, 0
2, 44040, Note_on_c, 0, 68, 90
2, 44069, Note_on_c, 0, 68, 0
2, 44070, Note_on_c, 0, 69, 90
2, 44099, Note_on_c, 0, 69, 0
2, 44100, Note_on_c, 0, 71, 90
2, 44129, Note_on_c, 0, 71, 0
2, 44130, Note_on_c, 0, 73, 90
2, 44159, Note_on_c, 0, 73, 0
2, 44160, Note_on_c, 0, 74, 90
2, 44189, Note_on_c, 0, 74, 0
2, 44190, Note_on_c, 0, 73, 90
2, 44219, Note_on_c, 0, 73, 0
2, 44220, Note_on_c, 0, 74, 90
2, 44339, Note_on_c, 0, 74, 0
2, 44340, Note_on_c, 0, 73, 90
2, 44369, Note_on_c, 0, 73, 0
2, 44370, Note_on_c, 0, 71, 90
2, 44399, Note_on_c, 0, 71, 0
2, 44400, Note_on_c, 0, 73, 90
2, 44459, Note_on_c, 0, 73, 0
2, 44460, Note_on_c, 0, 71, 90
2, 44489, Note_on_c, 0, 71, 0
2, 44490, Note_on_c, 0, 69, 90
2, 44519, Note_on_c, 0, 69, 0
2, 44520, Note_on_c, 0, 71, 90
2, 44549, Note_on_c, 0, 71, 0
2, 44550, Note_on_c, 0, 69, 90
2, 44579, Note_on_c, 0, 69, 0
2, 44580, Note_on_c, 0, 68, 90
2, 44609, Note_on_c, 0, 68, 0
2, 44610, Note_on_c, 0, 71, 90
2, 44639, Note_on_c, 0, 71, 0
2, 44640, Note_on_c, 0, 69, 90
2, 44669, Note_on_c, 0, 69, 0
2, 44670, Note_on_c, 0, 73, 90
2, 44699, Note_on_c, 0, 73, 0
2, 44700, Note_on_c, 0, 71, 90
2, 44729, Note_on_c, 0, 71, 0
2, 44730, Note_on_c, 0, 74, 90
2, 44759, Note_on_c, 0, 74, 0
2, 44760, Note_on_c, 0, 73, 90
2, 44819, Note_on_c, 0, 73, 0
2, 44820, Note_on_c, 0, 66, 90
2, 44879, Note_on_c, 0, 66, 0
2, 44880, Note_on_c, 0, 69, 90
2, 44909, Note_on_c, 0, 69, 0
2, 44910, Note_on_c, 0, 68, 90
2, 44939, Note_on_c, 0, 68, 0
2, 44940, Note_on_c, 0, 66, 90
2, 44969, Note_on_c, 0, 66, 0
2, 44970, Note_on_c, 0, 65, 90
2, 44999, Note_on_c, 0, 65, 0
2, 45000, Note_on_c, 0, 66, 90
2, 45119, Note_on_c, 0, 66, 0
2, 45420, Note_on_c, 0, 61, 90
2, 45449, Note_on_c, 0, 61, 0
2, 45450, Note_on_c, 0, 62, 90
2, 45479, Note_on_c, 0, 62, 0
2, 45480, Note_on_c, 0, 64, 90
2, 45539, Note_on_c, 0, 64, 0
2, 45540, Note_on_c, 0, 64, 90
2, 45599, Note_on_c, 0, 64, 0
2, 45600, Note_on_c, 0, 66, 90
2, 45629, Note_on_c, 0, 66, 0
2, 45630, Note_on_c, 0, 64, 90
2, 45659, Note_on_c, 0, 64, 0
2, 45660, Note_on_c, 0, 62, 90
2, 45689, Note_on_c, 0, 62, 0
2, 45690, Note_on_c, 0, 66, 90
2, 45719, Note_on_c, 0, 66, 0
2, 45720, Note_on_c, 0, 64, 90
2, 45779, Note_on_c, 0, 64, 0
2, 45840, Note_on_c, 0, 69, 90
2, 45869, Note_on_c, 0, 69, 0
2, 45960, Note_on_c, 0, 71, 90
2, 45989, Note_on_c, 0, 71, 0
2, 46080, Note_on_c, 0, 73, 90
2, 46139, Note_on_c, 0, 73, 0
2, 46140, Note_on_c, 0, 69, 90
2, 46169, Note_on_c, 0, 69, 0
2, 46170, Note_on_c, 0, 71, 90
2, 46199, Note_on_c, 0, 71, 0
2, 46200, Note_on_c, 0, 73, 90
2, 46229, Note_on_c, 0, 73, 0
2, 46230, Note_on_c, 0, 74, 90
2, 46259, Note_on_c, 0, 74, 0
2, 46260, Note_on_c, 0, 71, 90
2, 46289, Note_on_c, 0, 71, 0
2, 46290, Note_on_c, 0, 73, 90
2, 46319, Note_on_c, 0, 73, 0
2, 46320, Note_on_c, 0, 74, 90
2, 46349, Note_on_c, 0, 74, 0
2, 46350, Note_on_c, 0, 73, 90
2, 46379, Note_on_c, 0, 73, 0
2, 46380, Note_on_c, 0, 71, 90
2, 46409, Note_on_c, 0, 71, 0
2, 46410, Note_on_c, 0, 74, 90
2, 46439, Note_on_c, 0, 74, 0
2, 46440, Note_on_c, 0, 73, 90
2, 46499, Note_on_c, 0, 73, 0
2, 46560, Note_on_c, 0, 76, 90
2, 46589, Note_on_c, 0, 76, 0
2, 46680, Note_on_c, 0, 80, 90
2, 46709, Note_on_c, 0, 80, 0
2, 46800, Note_on_c, 0, 81, 90
2, 46919, Note_on_c, 0, 81, 0
2, 46920, Note_on_c, 0, 76, 90
2, 47219, Note_on_c, 0, 76, 0
2, 47220, Note_on_c, 0, 69, 90
2, 47339, Note_on_c, 0, 69, 0
2, 47340, Note_on_c, 0, 74, 90
2, 47459, Note_on_c, 0, 74, 0
2, 47460, Note_on_c, 0, 78, 90
2, 47519, Note_on_c, 0, 78, 0
2, 47520, Note_on_c, 0, 71, 90
2, 47940, Note_on_c, 0, 71, 0
2, 47940, Note_on_c, 0, 68, 90
2, 48059, Note_on_c, 0, 68, 0
2, 48060, Note_on_c, 0, 71, 90
2, 48179, Note_on_c, 0, 71, 0
2, 48180, Note_on_c, 0, 74, 90
2, 48239, Note_on_c, 0, 74, 0
2, 48240, Note_on_c, 0, 64, 90
2, 48660, Note_on_c, 0, 64, 0
2, 48660, Note_on_c, 0, 76, 90
2, 48779, Note_on_c, 0, 76, 0
2, 48780, Note_on_c, 0, 79, 90
2, 48899, Note_on_c, 0, 79, 0
2, 48900, Note_on_c, 0, 78, 90
2, 48929, Note_on_c, 0, 78, 0
2, 48930, Note_on_c, 0, 76, 90
2, 48959, Note_on_c, 0, 76, 0
2, 48960, Note_on_c, 0, 78, 90
2, 49019, Note_on_c, 0, 78, 0
2, 49020, Note_on_c, 0, 74, 90
2, 49139, Note_on_c, 0, 74, 0
2, 49140, Note_on_c, 0, 78, 90
2, 49259, Note_on_c, 0, 78, 0
2, 49260, Note_on_c, 0, 76, 90
2, 49289, Note_on_c, 0, 76, 0
2, 49290, Note_on_c, 0, 74, 90
2, 49319, Note_on_c, 0, 74, 0
2, 49320, Note_on_c, 0, 76, 90
2, 49379, Note_on_c, 0, 76, 0
2, 49380, Note_on_c, 0, 73, 90
2, 49499, Note_on_c, 0, 73, 0
2, 49500, Note_on_c, 0, 76, 90
2, 49619, Note_on_c, 0, 76, 0
2, 49620, Note_on_c, 0, 74, 90
2, 49649, Note_on_c, 0, 74, 0
2, 49650, Note_on_c, 0, 73, 90
2, 49679, Note_on_c, 0, 73, 0
2, 49680, Note_on_c, 0, 74, 90
2, 49739, Note_on_c, 0, 74, 0
2, 49740, Note_on_c, 0, 71, 90
2, 49859, Note_on_c, 0, 71, 0
2, 49860, Note_on_c, 0, 74, 90
2, 49979, Note_on_c, 0, 74, 0
2, 49980, Note_on_c, 0, 73, 90
2, 50009, Note_on_c, 0, 73, 0
2, 50010, Note_on_c, 0, 71, 90
2, 50039, Note_on_c, 0, 71, 0
2, 50040, Note_on_c, 0, 73, 90
2, 50069, Note_on_c, 0, 73, 0
2, 50100, Note_on_c, 0, 69, 90
2, 50129, Note_on_c, 0, 69, 0
2, 50160, Note_on_c, 0, 74, 90
2, 50189, Note_on_c, 0, 74, 0
2, 50220, Note_on_c, 0, 69, 90
2, 50249, Note_on_c, 0, 69, 0
2, 50280, Note_on_c, 0, 76, 90
2, 50309, Note_on_c, 0, 76, 0
2, 50340, Note_on_c, 0, 69, 90
2, 50369, Note_on_c, 0, 69, 0
2, 50400, Note_on_c, 0, 78, 90
2, 50429, Note_on_c, 0, 78, 0
2, 50460, Note_on_c, 0, 74, 90
2, 50489, Note_on_c, 0, 74, 0
2, 50520, Note_on_c, 0, 80, 90
2, 50549, Note_on_c, 0, 80, 0
2, 50580, Note_on_c, 0, 74, 90
2, 50609, Note_on_c, 0, 74, 0
2, 50640, Note_on_c, 0, 81, 90
2, 50669, Note_on_c, 0, 81, 0
2, 50700, Note_on_c, 0, 74, 90
2, 50729, Note_on_c, 0, 74, 0
2, 50760, Note_on_c, 0, 83, 90
2, 50789, Note_on_c, 0, 83, 0
2, 50820, Note_on_c, 0, 74, 90
2, 50879, Note_on_c, 0, 74, 0
2, 50880, Note_on_c, 0, 73, 90
2, 50939, Note_on_c, 0, 73, 0
2, 50940, Note_on_c, 0, 76, 90
2, 50999, Note_on_c, 0, 76, 0
2, 51000, Note_on_c, 0, 73, 90
2, 51059, Note_on_c, 0, 73, 0
2, 51060, Note_on_c, 0, 71, 90
2, 51089, Note_on_c, 0, 71, 0
2, 51090, Note_on_c, 0, 69, 90
2, 51119, Note_on_c, 0, 69, 0
2, 51120, Note_on_c, 0, 69, 90
2, 51239, Note_on_c, 0, 69, 0
2, 51900, Note_on_c, 0, 61, 90
2, 51929, Note_on_c, 0, 61, 0
2, 51930, Note_on_c, 0, 62, 90
2, 51959, Note_on_c, 0, 62, 0
2, 51960, Note_on_c, 0, 64, 90
2, 52019, Note_on_c, 0, 64, 0
2, 52020, Note_on_c, 0, 64, 90
2, 52079, Note_on_c, 0, 64, 0
2, 52080, Note_on_c, 0, 66, 90
2, 52109, Note_on_c, 0, 66, 0
2, 52110, Note_on_c, 0, 64, 90
2, 52139, Note_on_c, 0, 64, 0
2, 52140, Note_on_c, 0, 62, 90
2, 52169, Note_on_c, 0, 62, 0
2, 52170, Note_on_c, 0, 66, 90
2, 52199, Note_on_c, 0, 66, 0
2, 52200, Note_on_c, 0, 64, 90
2, 52259, Note_on_c, 0, 64, 0
2, 52320, Note_on_c, 0, 69, 90
2, 52349, Note_on_c, 0, 69, 0
2, 52440, Note_on_c, 0, 71, 90
2, 52469, Note_on_c, 0, 71, 0
2, 52560, Note_on_c, 0, 73, 90
2, 52619, Note_on_c, 0, 73, 0
2, 52620, Note_on_c, 0, 69, 90
2, 52649, Note_on_c, 0, 69, 0
2, 52650, Note_on_c, 0, 71, 90
2, 52679, Note_on_c, 0, 71, 0
2, 52680, Note_on_c, 0, 73, 90
2, 52709, Note_on_c, 0, 73, 0
2, 52710, Note_on_c, 0, 74, 90
2, 52739, Note_on_c, 0, 74, 0
2, 52740, Note_on_c, 0, 71, 90
2, 52769, Note_on_c, 0, 71, 0
2, 52770, Note_on_c, 0, 73, 90
2, 52799, Note_on_c, 0, 73, 0
2, 52800, Note_on_c, 0, 74, 90
2, 52829, Note_on_c, 0, 74, 0
2, 52830, Note_on_c, 0, 73, 90
2, 52859, Note_on_c, 0, 73, 0
2, 52860, Note_on_c, 0, 71, 90
2, 52889, Note_on_c, 0, 71, 0
2, 52890, Note_on_c, 0, 69, 90
2, 52919, Note_on_c, 0, 69, 0
2, 52920, Note_on_c, 0, 68, 90
2, 52979, Note_on_c, 0, 68, 0
2, 53700, Note_on_c, 0, 76, 90
2, 53729, Note_on_c, 0, 76, 0
2, 53730, Note_on_c, 0, 78, 90
2, 53759, Note_on_c, 0, 78, 0
2, 53760, Note_on_c, 0, 80, 90
2, 53819, Note_on_c, 0, 80, 0
2, 53820, Note_on_c, 0, 80, 90
2, 53879, Note_on_c, 0, 80, 0
2, 53880, Note_on_c, 0, 81, 90
2, 53909, Note_on_c, 0, 81, 0
2, 53910, Note_on_c, 0, 80, 90
2, 53939, Note_on_c, 0, 80, 0
2, 53940, Note_on_c, 0, 78, 90
2, 53969, Note_on_c, 0, 78, 0
2, 53970, Note_on_c, 0, 81, 90
2, 53999, Note_on_c, 0, 81, 0
2, 54000, Note_on_c, 0, 80, 90
2, 54059, Note_on_c, 0, 80, 0
2, 54120, Note_on_c, 0, 83, 90
2, 54149, Note_on_c, 0, 83, 0
2, 54240, Note_on_c, 0, 75, 90
2, 54269, Note_on_c, 0, 75, 0
2, 54360, Note_on_c, 0, 76, 90
2, 54419, Note_on_c, 0, 76, 0
2, 54420, Note_on_c, 0, 71, 90
2, 54449, Note_on_c, 0, 71, 0
2, 54450, Note_on_c, 0, 73, 90
2, 54479, Note_on_c, 0, 73, 0
2, 54480, Note_on_c, 0, 74, 90
2, 54509, Note_on_c, 0, 74, 0
2, 54510, Note_on_c, 0, 76, 90
2, 54539, Note_on_c, 0, 76, 0
2, 54540, Note_on_c, 0, 73, 90
2, 54569, Note_on_c, 0, 73, 0
2, 54570, Note_on_c, 0, 74, 90
2, 54599, Note_on_c, 0, 74, 0
2, 54600, Note_on_c, 0, 76, 90
2, 54629, Note_on_c, 0, 76, 0
2, 54630, Note_on_c, 0, 74, 90
2, 54659, Note_on_c, 0, 74, 0
2, 54660, Note_on_c, 0, 73, 90
2, 54689, Note_on_c, 0, 73, 0
2, 54690, Note_on_c, 0, 71, 90
2, 54719, Note_on_c, 0, 71, 0
2, 54720, Note_on_c, 0, 69, 90
2, 54779, Note_on_c, 0, 69, 0
2, 55500, Note_on_c, 0, 68, 90
2, 55529, Note_on_c, 0, 68, 0
2, 55530, Note_on_c, 0, 69, 90
2, 55559, Note_on_c, 0, 69, 0
2, 55560, Note_on_c, 0, 71, 90
2, 55589, Note_on_c, 0, 71, 0
2, 55590, Note_on_c, 0, 73, 90
2, 55619, Note_on_c, 0, 73, 0
2, 55620, Note_on_c, 0, 69, 90
2, 55649, Note_on_c, 0, 69, 0
2, 55650, Note_on_c, 0, 71, 90
2, 55679, Note_on_c, 0, 71, 0
2, 55680, Note_on_c, 0, 73, 90
2, 55709, Note_on_c, 0, 73, 0
2, 55710, Note_on_c, 0, 71, 90
2, 55739, Note_on_c, 0, 71, 0
2, 55740, Note_on_c, 0, 69, 90
2, 55769, Note_on_c, 0, 69, 0
2, 55770, Note_on_c, 0, 68, 90
2, 55799, Note_on_c, 0, 68, 0
2, 55800, Note_on_c, 0, 69, 90
2, 55859, Note_on_c, 0, 69, 0
2, 55920, Note_on_c, 0, 76, 90
2, 55949, Note_on_c, 0, 76, 0
2, 56040, Note_on_c, 0, 80, 90
2, 56069, Note_on_c, 0, 80, 0
2, 56160, Note_on_c, 0, 81, 90
2, 56189, Note_on_c, 0, 81, 0
2, 58500, Note_on_c, 0, 76, 90
2, 58619, Note_on_c, 0, 76, 0
2, 58620, Note_on_c, 0, 73, 90
2, 58679, Note_on_c, 0, 73, 0
2, 58680, Note_on_c, 0, 69, 90
2, 58739, Note_on_c, 0, 69, 0
2, 58740, Note_on_c, 0, 71, 90
2, 58769, Note_on_c, 0, 71, 0
2, 58770, Note_on_c, 0, 73, 90
2, 58799, Note_on_c, 0, 73, 0
2, 58800, Note_on_c, 0, 74, 90
2, 58829, Note_on_c, 0, 74, 0
2, 58830, Note_on_c, 0, 76, 90
2, 58859, Note_on_c, 0, 76, 0
2, 58860, Note_on_c, 0, 78, 90
2, 58889, Note_on_c, 0, 78, 0
2, 58920, Note_on_c, 0, 76, 90
2, 58979, Note_on_c, 0, 76, 0
2, 58980, Note_on_c, 0, 74, 90
2, 59009, Note_on_c, 0, 74, 0
2, 59010, Note_on_c, 0, 73, 90
2, 59039, Note_on_c, 0, 73, 0
2, 59040, Note_on_c, 0, 71, 90
2, 59099, Note_on_c, 0, 71, 0
2, 59100, Note_on_c, 0, 68, 90
2, 59129, Note_on_c, 0, 68, 0
2, 59130, Note_on_c, 0, 69, 90
2, 59159, Note_on_c, 0, 69, 0
2, 59160, Note_on_c, 0, 71, 90
2, 59189, Note_on_c, 0, 71, 0
2, 59190, Note_on_c, 0, 73, 90
2, 59219, Note_on_c, 0, 73, 0
2, 59220, Note_on_c, 0, 74, 90
2, 59249, Note_on_c, 0, 74, 0
2, 59280, Note_on_c, 0, 74, 90
2, 59459, Note_on_c, 0, 74, 0
2, 59460, Note_on_c, 0, 73, 90
2, 59489, Note_on_c, 0, 73, 0
2, 59490, Note_on_c, 0, 71, 90
2, 59519, Note_on_c, 0, 71, 0
2, 59520, Note_on_c, 0, 73, 90
2, 59549, Note_on_c, 0, 73, 0
2, 59550, Note_on_c, 0, 75, 90
2, 59579, Note_on_c, 0, 75, 0
2, 59580, Note_on_c, 0, 76, 90
2, 59609, Note_on_c, 0, 76, 0
2, 59640, Note_on_c, 0, 78, 90
2, 59669, Note_on_c, 0, 78, 0
2, 59670, Note_on_c, 0, 80, 90
2, 59699, Note_on_c, 0, 80, 0
2, 59700, Note_on_c, 0, 78, 90
2, 59729, Note_on_c, 0, 78, 0
2, 59730, Note_on_c, 0, 76, 90
2, 59759, Note_on_c, 0, 76, 0
2, 59760, Note_on_c, 0, 75, 90
2, 59789, Note_on_c, 0, 75, 0
2, 59790, Note_on_c, 0, 76, 90
2, 59819, Note_on_c, 0, 76, 0
2, 59820, Note_on_c, 0, 78, 90
2, 59939, Note_on_c, 0, 78, 0
2, 59940, Note_on_c, 0, 75, 90
2, 59999, Note_on_c, 0, 75, 0
2, 60000, Note_on_c, 0, 71, 90
2, 60059, Note_on_c, 0, 71, 0
2, 60060, Note_on_c, 0, 75, 90
2, 60119, Note_on_c, 0, 75, 0
2, 60120, Note_on_c, 0, 76, 90
2, 60539, Note_on_c, 0, 76, 0
2, 60540, Note_on_c, 0, 64, 90
2, 60659, Note_on_c, 0, 64, 0
2, 60660, Note_on_c, 0, 69, 90
2, 60779, Note_on_c, 0, 69, 0
2, 60780, Note_on_c, 0, 73, 90
2, 60839, Note_on_c, 0, 73, 0
2, 60840, Note_on_c, 0, 78, 90
2, 61259, Note_on_c, 0, 78, 0
2, 61260, Note_on_c, 0, 75, 90
2, 61379, Note_on_c, 0, 75, 0
2, 61380, Note_on_c, 0, 78, 90
2, 61499, Note_on_c, 0, 78, 0
2, 61500, Note_on_c, 0, 81, 90
2, 61559, Note_on_c, 0, 81, 0
2, 61560, Note_on_c, 0, 71, 90
2, 61979, Note_on_c, 0, 71, 0
2, 61980, Note_on_c, 0, 80, 90
2, 62099, Note_on_c, 0, 80, 0
2, 62100, Note_on_c, 0, 83, 90
2, 62219, Note_on_c, 0, 83, 0
2, 62220, Note_on_c, 0, 81, 90
2, 62249, Note_on_c, 0, 81, 0
2, 62250, Note_on_c, 0, 80, 90
2, 62279, Note_on_c, 0, 80, 0
2, 62280, Note_on_c, 0, 81, 90
2, 62339, Note_on_c, 0, 81, 0
2, 62340, Note_on_c, 0, 73, 90
2, 62459, Note_on_c, 0, 73, 0
2, 62460, Note_on_c, 0, 81, 90
2, 62579, Note_on_c, 0, 81, 0
2, 62580, Note_on_c, 0, 80, 90
2, 62609, Note_on_c, 0, 80, 0
2, 62610, Note_on_c, 0, 78, 90
2, 62639, Note_on_c, 0, 78, 0
2, 62640, Note_on_c, 0, 80, 90
2, 62699, Note_on_c, 0, 80, 0
2, 62700, Note_on_c, 0, 71, 90
2, 62819, Note_on_c, 0, 71, 0
2, 62820, Note_on_c, 0, 80, 90
2, 62939, Note_on_c, 0, 80, 0
2, 62940, Note_on_c, 0, 78, 90
2, 62969, Note_on_c, 0, 78, 0
2, 62970, Note_on_c, 0, 76, 90
2, 62999, Note_on_c, 0, 76, 0
2, 63000, Note_on_c, 0, 78, 90
2, 63059, Note_on_c, 0, 78, 0
2, 63060, Note_on_c, 0, 69, 90
2, 63179, Note_on_c, 0, 69, 0
2, 63180, Note_on_c, 0, 78, 90
2, 63299, Note_on_c, 0, 78, 0
2, 63300, Note_on_c, 0, 76, 90
2, 63329, Note_on_c, 0, 76, 0
2, 63330, Note_on_c, 0, 75, 90
2, 63359, Note_on_c, 0, 75, 0
2, 63360, Note_on_c, 0, 76, 90
2, 63779, Note_on_c, 0, 76, 0
2, 63780, Note_on_c, 0, 78, 90
2, 63839, Note_on_c, 0, 78, 0
2, 63840, Note_on_c, 0, 71, 90
2, 64139, Note_on_c, 0, 71, 0
2, 64140, Note_on_c, 0, 75, 90
2, 64199, Note_on_c, 0, 75, 0
2, 64200, Note_on_c, 0, 76, 90
2, 64259, Note_on_c, 0, 76, 0
2, 64260, Note_on_c, 0, 76, 90
2, 64319, Note_on_c, 0, 76, 0
2, 64320, Note_on_c, 0, 76, 90
2, 64379, Note_on_c, 0, 76, 0
2, 64380, Note_on_c, 0, 75, 90
2, 64439, Note_on_c, 0, 75, 0
2, 64440, Note_on_c, 0, 76, 90
2, 64499, Note_on_c, 0, 76, 0
2, 64500, Note_on_c, 0, 68, 90
2, 64529, Note_on_c, 0, 68, 0
2, 64530, Note_on_c, 0, 69, 90
2, 64559, Note_on_c, 0, 69, 0
2, 64560, Note_on_c, 0, 71, 90
2, 64619, Note_on_c, 0, 71, 0
2, 64620, Note_on_c, 0, 71, 90
2, 64679, Note_on_c, 0, 71, 0
2, 64680, Note_on_c, 0, 73, 90
2, 64709, Note_on_c, 0, 73, 0
2, 64710, Note_on_c, 0, 71, 90
2, 64739, Note_on_c, 0, 71, 0
2, 64740, Note_on_c, 0, 69, 90
2, 64769, Note_on_c, 0, 69, 0
2, 64770, Note_on_c, 0, 73, 90
2, 64799, Note_on_c, 0, 73, 0
2, 64800, Note_on_c, 0, 71, 90
2, 64859, Note_on_c, 0, 71, 0
2, 64920, Note_on_c, 0, 76, 90
2, 64950, Note_on_c, 0, 76, 0
2, 65040, Note_on_c, 0, 78, 90
2, 65070, Note_on_c, 0, 78, 0
2, 65160, Note_on_c, 0, 80, 90
2, 65220, Note_on_c, 0, 80, 0
2, 65220, Note_on_c, 0, 76, 90
2, 65249, Note_on_c, 0, 76, 0
2, 65250, Note_on_c, 0, 78, 90
2, 65279, Note_on_c, 0, 78, 0
2, 65280, Note_on_c, 0, 80, 90
2, 65309, Note_on_c, 0, 80, 0
2, 65310, Note_on_c, 0, 81, 90
2, 65339, Note_on_c, 0, 81, 0
2, 65340, Note_on_c, 0, 78, 90
2, 65369, Note_on_c, 0, 78, 0
2, 65370, Note_on_c, 0, 80, 90
2, 65399, Note_on_c, 0, 80, 0
2, 65400, Note_on_c, 0, 81, 90
2, 65429, Note_on_c, 0, 81, 0
2, 65430, Note_on_c, 0, 80, 90
2, 65459, Note_on_c, 0, 80, 0
2, 65460, Note_on_c, 0, 78, 90
2, 65489, Note_on_c, 0, 78, 0
2, 65490, Note_on_c, 0, 81, 90
2, 65519, Note_on_c, 0, 81, 0
2, 65520, Note_on_c, 0, 80, 90
2, 65579, Note_on_c, 0, 80, 0
2, 65640, Note_on_c, 0, 71, 90
2, 65669, Note_on_c, 0, 71, 0
2, 65760, Note_on_c, 0, 75, 90
2, 65789, Note_on_c, 0, 75, 0
2, 65880, Note_on_c, 0, 76, 90
2, 65909, Note_on_c, 0, 76, 0
2, 67020, Note_on_c, 0, 73, 100
2, 67050, Note_on_c, 0, 73, 0
2, 67050, Note_on_c, 0, 74, 100
2, 67080, Note_on_c, 0, 74, 0
2, 67080, Note_on_c, 0, 76, 100
2, 67140, Note_on_c, 0, 76, 0
2, 67140, Note_on_c, 0, 76, 100
2, 67200, Note_on_c, 0, 76, 0
2, 67200, Note_on_c, 0, 78, 100
2, 67230, Note_on_c, 0, 78, 0
2, 67230, Note_on_c, 0, 76, 100
2, 67260, Note_on_c, 0, 76, 0
2, 67260, Note_on_c, 0, 74, 100
2, 67290, Note_on_c, 0, 74, 0
2, 67290, Note_on_c, 0, 78, 100
2, 67320, Note_on_c, 0, 78, 0
2, 67320, Note_on_c, 0, 76, 100
2, 67380, Note_on_c, 0, 76, 0
2, 67440, Note_on_c, 0, 69, 100
2, 67470, Note_on_c, 0, 69, 0
2, 67560, Note_on_c, 0, 71, 100
2, 67590, Note_on_c, 0, 71, 0
2, 67680, Note_on_c, 0, 73, 100
2, 67740, Note_on_c, 0, 73, 0
2, 67740, Note_on_c, 0, 69, 100
2, 67770, Note_on_c, 0, 69, 0
2, 67770, Note_on_c, 0, 71, 100
2, 67800, Note_on_c, 0, 71, 0
2, 67800, Note_on_c, 0, 73, 100
2, 67830, Note_on_c, 0, 73, 0
2, 67830, Note_on_c, 0, 74, 100
2, 67860, Note_on_c, 0, 74, 0
2, 67860, Note_on_c, 0, 71, 100
2, 67890, Note_on_c, 0, 71, 0
2, 67890, Note_on_c, 0, 73, 100
2, 67920, Note_on_c, 0, 73, 0
2, 67920, Note_on_c, 0, 74, 100
2, 67950, Note_on_c, 0, 74, 0
2, 67950, Note_on_c, 0, 73, 100
2, 67980, Note_on_c, 0, 73, 0
2, 67980, Note_on_c, 0, 71, 100
2, 68010, Note_on_c, 0, 71, 0
2, 68010, Note_on_c, 0, 74, 100
2, 68040, Note_on_c, 0, 74, 0
2, 68040, Note_on_c, 0, 73, 100
2, 68100, Note_on_c, 0, 73, 0
2, 68160, Note_on_c, 0, 76, 100
2, 68190, Note_on_c, 0, 76, 0
2, 68280, Note_on_c, 0, 80, 100
2, 68310, Note_on_c, 0, 80, 0
2, 68400, Note_on_c, 0, 81, 100
2, 68430, Note_on_c, 0, 81, 0
2, 69660, Note_on_c, 0, 74, 100
2, 69690, Note_on_c, 0, 74, 0
2, 69690, Note_on_c, 0, 76, 100
2, 69720, Note_on_c, 0, 76, 0
2, 69720, Note_on_c, 0, 78, 100
2, 69780, Note_on_c, 0, 78, 0
2, 70020, Note_on_c, 0, 68, 100
2, 70050, Note_on_c, 0, 68, 0
2, 70050, Note_on_c, 0, 69, 100
2, 70080, Note_on_c, 0, 69, 0
2, 70080, Note_on_c, 0, 71, 100
2, 70140, Note_on_c, 0, 71, 0
2, 70380, Note_on_c, 0, 73, 100
2, 70410, Note_on_c, 0, 73, 0
2, 70410, Note_on_c, 0, 74, 100
2, 70440, Note_on_c, 0, 74, 0
2, 70440, Note_on_c, 0, 76, 100
2, 70500, Note_on_c, 0, 76, 0
2, 70740, Note_on_c, 0, 66, 100
2, 70770, Note_on_c, 0, 66, 0
2, 70770, Note_on_c, 0, 68, 100
2, 70800, Note_on_c, 0, 68, 0
2, 70800, Note_on_c, 0, 69, 100
2, 70860, Note_on_c, 0, 69, 0
2, 71040, Note_on_c, 0, 74, 100
2, 71700, Note_on_c, 0, 74, 0
2, 71700, Note_on_c, 0, 73, 90
2, 71729, Note_on_c, 0, 73, 0
2, 71730, Note_on_c, 0, 74, 90
2, 71759, Note_on_c, 0, 74, 0
2, 71760, Note_on_c, 0, 76, 90
2, 71789, Note_on_c, 0, 76, 0
2, 71790, Note_on_c, 0, 74, 90
2, 71819, Note_on_c, 0, 74, 0
2, 71820, Note_on_c, 0, 78, 90
2, 71849, Note_on_c, 0, 78, 0
2, 71850, Note_on_c, 0, 76, 90
2, 71879, Note_on_c, 0, 76, 0
2, 71880, Note_on_c, 0, 74, 90
2, 71909, Note_on_c, 0, 74, 0
2, 71910, Note_on_c, 0, 73, 90
2, 71939, Note_on_c, 0, 73, 0
2, 71940, Note_on_c, 0, 71, 90
2, 71969, Note_on_c, 0, 71, 0
2, 71970, Note_on_c, 0, 69, 90
2, 71999, Note_on_c, 0, 69, 0
2, 72000, Note_on_c, 0, 73, 90
2, 72059, Note_on_c, 0, 73, 0
2, 72060, Note_on_c, 0, 71, 90
2, 72119, Note_on_c, 0, 71, 0
2, 72120, Note_on_c, 0, 71, 90
2, 72149, Note_on_c, 0, 71, 0
2, 72240, Note_on_c, 0, 74, 90
2, 72269, Note_on_c, 0, 74, 0
2, 72360, Note_on_c, 0, 73, 90
2, 72389, Note_on_c, 0, 73, 0
2, 72480, Note_on_c, 0, 78, 90
2, 72509, Note_on_c, 0, 78, 0
2, 72600, Note_on_c, 0, 76, 90
2, 72629, Note_on_c, 0, 76, 0
2, 72720, Note_on_c, 0, 76, 90
2, 72749, Note_on_c, 0, 76, 0
2, 72840, Note_on_c, 0, 74, 90
2, 72869, Note_on_c, 0, 74, 0
2, 72960, Note_on_c, 0, 73, 90
2, 72989, Note_on_c, 0, 73, 0
2, 73080, Note_on_c, 0, 73, 90
2, 73109, Note_on_c, 0, 73, 0
2, 73200, Note_on_c, 0, 71, 90
2, 73229, Note_on_c, 0, 71, 0
2, 73320, Note_on_c, 0, 76, 90
2, 73349, Note_on_c, 0, 76, 0
2, 73440, Note_on_c, 0, 76, 90
2, 73469, Note_on_c, 0, 76, 0
2, 73560, Note_on_c, 0, 74, 90
2, 73589, Note_on_c, 0, 74, 0
2, 73680, Note_on_c, 0, 71, 90
2, 73709, Note_on_c, 0, 71, 0
2, 73800, Note_on_c, 0, 69, 90
2, 73829, Note_on_c, 0, 69, 0
2, 73920, Note_on_c, 0, 76, 90
2, 73949, Note_on_c, 0, 76, 0
2, 74040, Note_on_c, 0, 73, 90
2, 74069, Note_on_c, 0, 73, 0
2, 74160, Note_on_c, 0, 78, 90
2, 74189, Note_on_c, 0, 78, 0
2, 74280, Note_on_c, 0, 74, 90
2, 74309, Note_on_c, 0, 74, 0
2, 74400, Note_on_c, 0, 72, 90
2, 74429, Note_on_c, 0, 72, 0
2, 74520, Note_on_c, 0, 71, 90
2, 74549, Note_on_c, 0, 71, 0
2, 74640, Note_on_c, 0, 76, 90
2, 74669, Note_on_c, 0, 76, 0
2, 75060, Note_on_c, 0, 76, 90
2, 75180, Note_on_c, 0, 76, 0
2, 75180, Note_on_c, 0, 73, 90
2, 75239, Note_on_c, 0, 73, 0
2, 75240, Note_on_c, 0, 69, 90
2, 75299, Note_on_c, 0, 69, 0
2, 75300, Note_on_c, 0, 71, 90
2, 75329, Note_on_c, 0, 71, 0
2, 75330, Note_on_c, 0, 73, 90
2, 75359, Note_on_c, 0, 73, 0
2, 75360, Note_on_c, 0, 74, 90
2, 75389, Note_on_c, 0, 74, 0
2, 75390, Note_on_c, 0, 76, 90
2, 75419, Note_on_c, 0, 76, 0
2, 75420, Note_on_c, 0, 78, 90
2, 75449, Note_on_c, 0, 78, 0
2, 75480, Note_on_c, 0, 76, 90
2, 75539, Note_on_c, 0, 76, 0
2, 75540, Note_on_c, 0, 74, 90
2, 75569, Note_on_c, 0, 74, 0
2, 75570, Note_on_c, 0, 73, 90
2, 75599, Note_on_c, 0, 73, 0
2, 75600, Note_on_c, 0, 71, 90
2, 75659, Note_on_c, 0, 71, 0
2, 75660, Note_on_c, 0, 68, 90
2, 75689, Note_on_c, 0, 68, 0
2, 75690, Note_on_c, 0, 69, 90
2, 75719, Note_on_c, 0, 69, 0
2, 75720, Note_on_c, 0, 71, 90
2, 75749, Note_on_c, 0, 71, 0
2, 75750, Note_on_c, 0, 73, 90
2, 75779, Note_on_c, 0, 73, 0
2, 75780, Note_on_c, 0, 74, 90
2, 75809, Note_on_c, 0, 74, 0
2, 75840, Note_on_c, 0, 74, 90
2, 76019, Note_on_c, 0, 74, 0
2, 76020, Note_on_c, 0, 73, 90
2, 76139, Note_on_c, 0, 73, 0
2, 76140, Note_on_c, 0, 76, 90
2, 76259, Note_on_c, 0, 76, 0
2, 76260, Note_on_c, 0, 79, 90
2, 76319, Note_on_c, 0, 79, 0
2, 76320, Note_on_c, 0, 78, 90
2, 76739, Note_on_c, 0, 78, 0
2, 76740, Note_on_c, 0, 75, 90
2, 76859, Note_on_c, 0, 75, 0
2, 76860, Note_on_c, 0, 78, 90
2, 76979, Note_on_c, 0, 78, 0
2, 76980, Note_on_c, 0, 81, 90
2, 77039, Note_on_c, 0, 81, 0
2, 77040, Note_on_c, 0, 80, 90
2, 77459, Note_on_c, 0, 80, 0
2, 77460, Note_on_c, 0, 71, 90
2, 77579, Note_on_c, 0, 71, 0
2, 77580, Note_on_c, 0, 76, 90
2, 77699, Note_on_c, 0, 76, 0
2, 77700, Note_on_c, 0, 80, 90
2, 77759, Note_on_c, 0, 80, 0
2, 77760, Note_on_c, 0, 81, 90
2, 77819, Note_on_c, 0, 81, 0
2, 77820, Note_on_c, 0, 76, 90
2, 77939, Note_on_c, 0, 76, 0
2, 77940, Note_on_c, 0, 79, 90
2, 78059, Note_on_c, 0, 79, 0
2, 78060, Note_on_c, 0, 78, 90
2, 78089, Note_on_c, 0, 78, 0
2, 78090, Note_on_c, 0, 76, 90
2, 78119, Note_on_c, 0, 76, 0
2, 78120, Note_on_c, 0, 78, 90
2, 78179, Note_on_c, 0, 78, 0
2, 78180, Note_on_c, 0, 74, 90
2, 78299, Note_on_c, 0, 74, 0
2, 78300, Note_on_c, 0, 78, 90
2, 78419, Note_on_c, 0, 78, 0
2, 78420, Note_on_c, 0, 76, 90
2, 78449, Note_on_c, 0, 76, 0
2, 78450, Note_on_c, 0, 74, 90
2, 78479, Note_on_c, 0, 74, 0
2, 78480, Note_on_c, 0, 76, 90
2, 78539, Note_on_c, 0, 76, 0
2, 78540, Note_on_c, 0, 73, 90
2, 78659, Note_on_c, 0, 73, 0
2, 78660, Note_on_c, 0, 76, 90
2, 78779, Note_on_c, 0, 76, 0
2, 78780, Note_on_c, 0, 74, 90
2, 78809, Note_on_c, 0, 74, 0
2, 78810, Note_on_c, 0, 73, 90
2, 78839, Note_on_c, 0, 73, 0
2, 78840, Note_on_c, 0, 74, 90
2, 78900, Note_on_c, 0, 74, 0
2, 78900, Note_on_c, 0, 71, 90
2, 79020, Note_on_c, 0, 71, 0
2, 79020, Note_on_c, 0, 74, 90
2, 79140, Note_on_c, 0, 74, 0
2, 79140, Note_on_c, 0, 73, 90
2, 79169, Note_on_c, 0, 73, 0
2, 79170, Note_on_c, 0, 71, 90
2, 79199, Note_on_c, 0, 71, 0
2, 79200, Note_on_c, 0, 73, 90
2, 79229, Note_on_c, 0, 73, 0
2, 79260, Note_on_c, 0, 69, 90
2, 79289, Note_on_c, 0, 69, 0
2, 79320, Note_on_c, 0, 74, 90
2, 79349, Note_on_c, 0, 74, 0
2, 79380, Note_on_c, 0, 69, 90
2, 79409, Note_on_c, 0, 69, 0
2, 79440, Note_on_c, 0, 76, 90
2, 79469, Note_on_c, 0, 76, 0
2, 79500, Note_on_c, 0, 69, 90
2, 79529, Note_on_c, 0, 69, 0
2, 79560, Note_on_c, 0, 78, 90
2, 79589, Note_on_c, 0, 78, 0
2, 79620, Note_on_c, 0, 74, 90
2, 79649, Note_on_c, 0, 74, 0
2, 79680, Note_on_c, 0, 80, 90
2, 79709, Note_on_c, 0, 80, 0
2, 79740, Note_on_c, 0, 74, 90
2, 79769, Note_on_c, 0, 74, 0
2, 79800, Note_on_c, 0, 81, 90
2, 79829, Note_on_c, 0, 81, 0
2, 79860, Note_on_c, 0, 74, 90
2, 79889, Note_on_c, 0, 74, 0
2, 79920, Note_on_c, 0, 83, 90
2, 79949, Note_on_c, 0, 83, 0
2, 79980, Note_on_c, 0, 74, 90
2, 80039, Note_on_c, 0, 74, 0
2, 80040, Note_on_c, 0, 73, 90
2, 80099, Note_on_c, 0, 73, 0
2, 80100, Note_on_c, 0, 76, 90
2, 80159, Note_on_c, 0, 76, 0
2, 80160, Note_on_c, 0, 73, 90
2, 80219, Note_on_c, 0, 73, 0
2, 80220, Note_on_c, 0, 71, 90
2, 80249, Note_on_c, 0, 71, 0
2, 80250, Note_on_c, 0, 69, 90
2, 80279, Note_on_c, 0, 69, 0
2, 80280, Note_on_c, 0, 69, 90
2, 80399, Note_on_c, 0, 69, 0
2, 83880, Note_on_c, 0, 74, 90
2, 83975, Note_on_c, 0, 74, 0
2, 84120, Note_on_c, 0, 78, 90
2, 84215, Note_on_c, 0, 78, 0
2, 84300, Note_on_c, 0, 74, 90
2, 84347, Note_on_c, 0, 74, 0
2, 84360, Note_on_c, 0, 78, 90
2, 84407, Note_on_c, 0, 78, 0
2, 84420, Note_on_c, 0, 74, 90
2, 84467, Note_on_c, 0, 74, 0
2, 84480, Note_on_c, 0, 71, 90
2, 84527, Note_on_c, 0, 71, 0
2, 84540, Note_on_c, 0, 71, 90
2, 84587, Note_on_c, 0, 71, 0
2, 84600, Note_on_c, 0, 71, 90
2, 84647, Note_on_c, 0, 71, 0
2, 84660, Note_on_c, 0, 73, 90
2, 84683, Note_on_c, 0, 73, 0
2, 84690, Note_on_c, 0, 75, 90
2, 84713, Note_on_c, 0, 75, 0
2, 84720, Note_on_c, 0, 76, 90
2, 84767, Note_on_c, 0, 76, 0
2, 84780, Note_on_c, 0, 71, 90
2, 84827, Note_on_c, 0, 71, 0
2, 84840, Note_on_c, 0, 83, 90
2, 84935, Note_on_c, 0, 83, 0
2, 85020, Note_on_c, 0, 73, 90
2, 85067, Note_on_c, 0, 73, 0
2, 85080, Note_on_c, 0, 76, 90
2, 85127, Note_on_c, 0, 76, 0
2, 85140, Note_on_c, 0, 73, 90
2, 85187, Note_on_c, 0, 73, 0
2, 85200, Note_on_c, 0, 69, 90
2, 85247, Note_on_c, 0, 69, 0
2, 85260, Note_on_c, 0, 69, 90
2, 85307, Note_on_c, 0, 69, 0
2, 85320, Note_on_c, 0, 69, 90
2, 85367, Note_on_c, 0, 69, 0
2, 85380, Note_on_c, 0, 71, 90
2, 85403, Note_on_c, 0, 71, 0
2, 85410, Note_on_c, 0, 73, 90
2, 85433, Note_on_c, 0, 73, 0
2, 85440, Note_on_c, 0, 74, 90
2, 85487, Note_on_c, 0, 74, 0
2, 85500, Note_on_c, 0, 69, 90
2, 85547, Note_on_c, 0, 69, 0
2, 85560, Note_on_c, 0, 81, 90
2, 85655, Note_on_c, 0, 81, 0
2, 85740, Note_on_c, 0, 79, 90
2, 85787, Note_on_c, 0, 79, 0
2, 85800, Note_on_c, 0, 76, 90
2, 85847, Note_on_c, 0, 76, 0
2, 85860, Note_on_c, 0, 81, 90
2, 85907, Note_on_c, 0, 81, 0
2, 85920, Note_on_c, 0, 81, 90
2, 86160, Note_on_c, 0, 81, 0
2, 88140, Note_on_c, 0, 73, 90
2, 88187, Note_on_c, 0, 73, 0
2, 88200, Note_on_c, 0, 73, 90
2, 88247, Note_on_c, 0, 73, 0
2, 88260, Note_on_c, 0, 74, 90
2, 88307, Note_on_c, 0, 74, 0
2, 88320, Note_on_c, 0, 76, 90
2, 88367, Note_on_c, 0, 76, 0
2, 88380, Note_on_c, 0, 76, 90
2, 88427, Note_on_c, 0, 76, 0
2, 88440, Note_on_c, 0, 76, 90
2, 88487, Note_on_c, 0, 76, 0
2, 88500, Note_on_c, 0, 78, 90
2, 88547, Note_on_c, 0, 78, 0
2, 88560, Note_on_c, 0, 79, 90
2, 88607, Note_on_c, 0, 79, 0
2, 88620, Note_on_c, 0, 74, 90
2, 88667, Note_on_c, 0, 74, 0
2, 88680, Note_on_c, 0, 74, 90
2, 88727, Note_on_c, 0, 74, 0
2, 88740, Note_on_c, 0, 76, 90
2, 88787, Note_on_c, 0, 76, 0
2, 88800, Note_on_c, 0, 78, 90
2, 88847, Note_on_c, 0, 78, 0
2, 88860, Note_on_c, 0, 78, 90
2, 88907, Note_on_c, 0, 78, 0
2, 88920, Note_on_c, 0, 76, 90
2, 88967, Note_on_c, 0, 76, 0
2, 88980, Note_on_c, 0, 74, 90
2, 89027, Note_on_c, 0, 74, 0
2, 89040, Note_on_c, 0, 81, 90
2, 89087, Note_on_c, 0, 81, 0
2, 89100, Note_on_c, 0, 76, 90
2, 89147, Note_on_c, 0, 76, 0
2, 89160, Note_on_c, 0, 76, 90
2, 89207, Note_on_c, 0, 76, 0
2, 89220, Note_on_c, 0, 78, 90
2, 89267, Note_on_c, 0, 78, 0
2, 89280, Note_on_c, 0, 71, 90
2, 89327, Note_on_c, 0, 71, 0
2, 89340, Note_on_c, 0, 71, 90
2, 89387, Note_on_c, 0, 71, 0
2, 89400, Note_on_c, 0, 71, 90
2, 89447, Note_on_c, 0, 71, 0
2, 89460, Note_on_c, 0, 73, 90
2, 89507, Note_on_c, 0, 73, 0
2, 89520, Note_on_c, 0, 74, 90
2, 89567, Note_on_c, 0, 74, 0
2, 89580, Note_on_c, 0, 74, 90
2, 89627, Note_on_c, 0, 74, 0
2, 89640, Note_on_c, 0, 73, 90
2, 89687, Note_on_c, 0, 73, 0
2, 89700, Note_on_c, 0, 71, 90
2, 89747, Note_on_c, 0, 71, 0
2, 89760, Note_on_c, 0, 73, 90
2, 89807, Note_on_c, 0, 73, 0
2, 89820, Note_on_c, 0, 76, 90
2, 89915, Note_on_c, 0, 76, 0
2, 89940, Note_on_c, 0, 75, 90
2, 89987, Note_on_c, 0, 75, 0
2, 90000, Note_on_c, 0, 76, 90
2, 90047, Note_on_c, 0, 76, 0
2, 90060, Note_on_c, 0, 74, 90
2, 90107, Note_on_c, 0, 74, 0
2, 90120, Note_on_c, 0, 73, 90
2, 90167, Note_on_c, 0, 73, 0
2, 90180, Note_on_c, 0, 78, 90
2, 90227, Note_on_c, 0, 78, 0
2, 90240, Note_on_c, 0, 71, 90
2, 90287, Note_on_c, 0, 71, 0
2, 90300, Note_on_c, 0, 78, 90
2, 90395, Note_on_c, 0, 78, 0
2, 90420, Note_on_c, 0, 77, 90
2, 90467, Note_on_c, 0, 77, 0
2, 90480, Note_on_c, 0, 78, 90
2, 90527, Note_on_c, 0, 78, 0
2, 90540, Note_on_c, 0, 73, 90
2, 90587, Note_on_c, 0, 73, 0
2, 90600, Note_on_c, 0, 73, 90
2, 90647, Note_on_c, 0, 73, 0
2, 90660, Note_on_c, 0, 71, 90
2, 90707, Note_on_c, 0, 71, 0
2, 90720, Note_on_c, 0, 69, 90
2, 90863, Note_on_c, 0, 69, 0
2, 90900, Note_on_c, 0, 67, 90
2, 90947, Note_on_c, 0, 67, 0
2, 90960, Note_on_c, 0, 66, 90
2, 91007, Note_on_c, 0, 66, 0
2, 91020, Note_on_c, 0, 69, 90
2, 91067, Note_on_c, 0, 69, 0
2, 91080, Note_on_c, 0, 74, 90
2, 91223, Note_on_c, 0, 74, 0
2, 91260, Note_on_c, 0, 73, 90
2, 91307, Note_on_c, 0, 73, 0
2, 91320, Note_on_c, 0, 73, 90
2, 91367, Note_on_c, 0, 73, 0
2, 91380, Note_on_c, 0, 69, 90
2, 91427, Note_on_c, 0, 69, 0
2, 91440, Note_on_c, 0, 74, 90
2, 91487, Note_on_c, 0, 74, 0
2, 91500, Note_on_c, 0, 76, 90
2, 91547, Note_on_c, 0, 76, 0
2, 91560, Note_on_c, 0, 78, 90
2, 91703, Note_on_c, 0, 78, 0
2, 91740, Note_on_c, 0, 76, 90
2, 91763, Note_on_c, 0, 76, 0
2, 91770, Note_on_c, 0, 75, 90
2, 91793, Note_on_c, 0, 75, 0
2, 91800, Note_on_c, 0, 76, 90
2, 91847, Note_on_c, 0, 76, 0
2, 91860, Note_on_c, 0, 78, 90
2, 91907, Note_on_c, 0, 78, 0
2, 91920, Note_on_c, 0, 79, 90
2, 91967, Note_on_c, 0, 79, 0
2, 91980, Note_on_c, 0, 78, 90
2, 92027, Note_on_c, 0, 78, 0
2, 92040, Note_on_c, 0, 78, 90
2, 92183, Note_on_c, 0, 78, 0
2, 92220, Note_on_c, 0, 76, 90
2, 92243, Note_on_c, 0, 76, 0
2, 92250, Note_on_c, 0, 74, 90
2, 92273, Note_on_c, 0, 74, 0
2, 92280, Note_on_c, 0, 76, 90
2, 92327, Note_on_c, 0, 76, 0
2, 92340, Note_on_c, 0, 77, 90
2, 92387, Note_on_c, 0, 77, 0
2, 92400, Note_on_c, 0, 78, 90
2, 92520, Note_on_c, 0, 78, 0
2, 97800, Note_on_c, 0, 69, 90
2, 97919, Note_on_c, 0, 69, 0
2, 97920, Note_on_c, 0, 69, 90
2, 98039, Note_on_c, 0, 69, 0
2, 98040, Note_on_c, 0, 76, 90
2, 98159, Note_on_c, 0, 76, 0
2, 98160, Note_on_c, 0, 76, 90
2, 98279, Note_on_c, 0, 76, 0
2, 98280, Note_on_c, 0, 74, 90
2, 98339, Note_on_c, 0, 74, 0
2, 98340, Note_on_c, 0, 73, 90
2, 98399, Note_on_c, 0, 73, 0
2, 98400, Note_on_c, 0, 71, 90
2, 98519, Note_on_c, 0, 71, 0
2, 98520, Note_on_c, 0, 73, 90
2, 98639, Note_on_c, 0, 73, 0
2, 98640, Note_on_c, 0, 74, 90
2, 98699, Note_on_c, 0, 74, 0
2, 98700, Note_on_c, 0, 73, 90
2, 98759, Note_on_c, 0, 73, 0
2, 98760, Note_on_c, 0, 71, 90
2, 98879, Note_on_c, 0, 71, 0
2, 98880, Note_on_c, 0, 69, 90
2, 99119, Note_on_c, 0, 69, 0
2, 99240, Note_on_c, 0, 69, 90
2, 99359, Note_on_c, 0, 69, 0
2, 99360, Note_on_c, 0, 71, 90
2, 99479, Note_on_c, 0, 71, 0
2, 99480, Note_on_c, 0, 73, 90
2, 99599, Note_on_c, 0, 73, 0
2, 99600, Note_on_c, 0, 74, 90
2, 99719, Note_on_c, 0, 74, 0
2, 99720, Note_on_c, 0, 71, 90
2, 99839, Note_on_c, 0, 71, 0
2, 99840, Note_on_c, 0, 76, 90
2, 99959, Note_on_c, 0, 76, 0
2, 99960, Note_on_c, 0, 78, 90
2, 100079, Note_on_c, 0, 78, 0
2, 100080, Note_on_c, 0, 76, 90
2, 100175, Note_on_c, 0, 76, 0
2, 100200, Note_on_c, 0, 73, 90
2, 100319, Note_on_c, 0, 73, 0
2, 100320, Note_on_c, 0, 73, 90
2, 100379, Note_on_c, 0, 73, 0
2, 100380, Note_on_c, 0, 74, 90
2, 100439, Note_on_c, 0, 74, 0
2, 100440, Note_on_c, 0, 76, 90
2, 100559, Note_on_c, 0, 76, 0
2, 100560, Note_on_c, 0, 74, 90
2, 100679, Note_on_c, 0, 74, 0
2, 100680, Note_on_c, 0, 73, 90
2, 100739, Note_on_c, 0, 73, 0
2, 100740, Note_on_c, 0, 71, 90
2, 100799, Note_on_c, 0, 71, 0
2, 100800, Note_on_c, 0, 69, 90
2, 100859, Note_on_c, 0, 69, 0
2, 100860, Note_on_c, 0, 71, 90
2, 100919, Note_on_c, 0, 71, 0
2, 100920, Note_on_c, 0, 73, 90
2, 101039, Note_on_c, 0, 73, 0
2, 101040, Note_on_c, 0, 71, 90
2, 101135, Note_on_c, 0, 71, 0
2, 101160, Note_on_c, 0, 73, 90
2, 101279, Note_on_c, 0, 73, 0
2, 101280, Note_on_c, 0, 69, 90
2, 101399, Note_on_c, 0, 69, 0
2, 101400, Note_on_c, 0, 71, 90
2, 101459, Note_on_c, 0, 71, 0
2, 101460, Note_on_c, 0, 73, 90
2, 101519, Note_on_c, 0, 73, 0
2, 101520, Note_on_c, 0, 74, 90
2, 101615, Note_on_c, 0, 74, 0
2, 101640, Note_on_c, 0, 73, 90
2, 101759, Note_on_c, 0, 73, 0
2, 101760, Note_on_c, 0, 71, 90
2, 101879, Note_on_c, 0, 71, 0
2, 101880, Note_on_c, 0, 73, 90
2, 101999, Note_on_c, 0, 73, 0
2, 102000, Note_on_c, 0, 74, 90
2, 102095, Note_on_c, 0, 74, 0
2, 102120, Note_on_c, 0, 73, 90
2, 102239, Note_on_c, 0, 73, 0
2, 102240, Note_on_c, 0, 71, 90
2, 102359, Note_on_c, 0, 71, 0
2, 102360, Note_on_c, 0, 69, 90
2, 102479, Note_on_c, 0, 69, 0
2, 102480, Note_on_c, 0, 76, 90
2, 102659, Note_on_c, 0, 76, 0
2, 102660, Note_on_c, 0, 74, 90
2, 102719, Note_on_c, 0, 74, 0
2, 102720, Note_on_c, 0, 73, 90
2, 102839, Note_on_c, 0, 73, 0
2, 102840, Note_on_c, 0, 74, 90
2, 102899, Note_on_c, 0, 74, 0
2, 102900, Note_on_c, 0, 73, 90
2, 102959, Note_on_c, 0, 73, 0
2, 102960, Note_on_c, 0, 71, 90
2, 103199, Note_on_c, 0, 71, 0
2, 103200, Note_on_c, 0, 69, 90
2, 103559, Note_on_c, 0, 69, 0
2, 103860, Note_on_c, 0, 61, 90
2, 103919, Note_on_c, 0, 61, 0
2, 103920, Note_on_c, 0, 66, 90
2, 104039, Note_on_c, 0, 66, 0
2, 104040, Note_on_c, 0, 66, 90
2, 104129, Note_on_c, 0, 66, 0
2, 104130, Note_on_c, 0, 68, 90
2, 104144, Note_on_c, 0, 68, 0
2, 104145, Note_on_c, 0, 69, 90
2, 104159, Note_on_c, 0, 69, 0
2, 104160, Note_on_c, 0, 68, 90
2, 104219, Note_on_c, 0, 68, 0
2, 104220, Note_on_c, 0, 66, 90
2, 104279, Note_on_c, 0, 66, 0
2, 104280, Note_on_c, 0, 65, 90
2, 104339, Note_on_c, 0, 65, 0
2, 104340, Note_on_c, 0, 66, 90
2, 104369, Note_on_c, 0, 66, 0
2, 104400, Note_on_c, 0, 71, 90
2, 104459, Note_on_c, 0, 71, 0
2, 104460, Note_on_c, 0, 71, 90
2, 104489, Note_on_c, 0, 71, 0
2, 104490, Note_on_c, 0, 73, 90
2, 104504, Note_on_c, 0, 73, 0
2, 104505, Note_on_c, 0, 74, 90
2, 104519, Note_on_c, 0, 74, 0
2, 104520, Note_on_c, 0, 73, 90
2, 104579, Note_on_c, 0, 73, 0
2, 104580, Note_on_c, 0, 71, 90
2, 104609, Note_on_c, 0, 71, 0
2, 104640, Note_on_c, 0, 73, 90
2, 104669, Note_on_c, 0, 73, 0
2, 104670, Note_on_c, 0, 71, 90
2, 104699, Note_on_c, 0, 71, 0
2, 104700, Note_on_c, 0, 69, 90
2, 104729, Note_on_c, 0, 69, 0
2, 104730, Note_on_c, 0, 68, 90
2, 104759, Note_on_c, 0, 68, 0
2, 104760, Note_on_c, 0, 66, 90
2, 104819, Note_on_c, 0, 66, 0
2, 104820, Note_on_c, 0, 69, 90
2, 104849, Note_on_c, 0, 69, 0
2, 104880, Note_on_c, 0, 68, 90
2, 104909, Note_on_c, 0, 68, 0
2, 104910, Note_on_c, 0, 69, 90
2, 104939, Note_on_c, 0, 69, 0
2, 104940, Note_on_c, 0, 71, 90
2, 104969, Note_on_c, 0, 71, 0
2, 104970, Note_on_c, 0, 69, 90
2, 104999, Note_on_c, 0, 69, 0
2, 105000, Note_on_c, 0, 68, 90
2, 105059, Note_on_c, 0, 68, 0
2, 105060, Note_on_c, 0, 66, 90
2, 105089, Note_on_c, 0, 66, 0
2, 105120, Note_on_c, 0, 66, 90
2, 105127, Note_on_c, 0, 68, 90
2, 105128, Note_on_c, 0, 66, 0
2, 105135, Note_on_c, 0, 68, 0
2, 105135, Note_on_c, 0, 66, 90
2, 105180, Note_on_c, 0, 66, 0
2, 105180, Note_on_c, 0, 65, 90
2, 105239, Note_on_c, 0, 65, 0
2, 105240, Note_on_c, 0, 73, 90
2, 105299, Note_on_c, 0, 73, 0
2, 105300, Note_on_c, 0, 74, 90
2, 105359, Note_on_c, 0, 74, 0
2, 105360, Note_on_c, 0, 65, 90
2, 105389, Note_on_c, 0, 65, 0
2, 105390, Note_on_c, 0, 66, 90
2, 105419, Note_on_c, 0, 66, 0
2, 105420, Note_on_c, 0, 68, 90
2, 105449, Note_on_c, 0, 68, 0
2, 105450, Note_on_c, 0, 69, 90
2, 105479, Note_on_c, 0, 69, 0
2, 105480, Note_on_c, 0, 71, 90
2, 105509, Note_on_c, 0, 71, 0
2, 105510, Note_on_c, 0, 68, 90
2, 105539, Note_on_c, 0, 68, 0
2, 105540, Note_on_c, 0, 69, 90
2, 105569, Note_on_c, 0, 69, 0
2, 105570, Note_on_c, 0, 66, 90
2, 105599, Note_on_c, 0, 66, 0
2, 105600, Note_on_c, 0, 68, 90
2, 105629, Note_on_c, 0, 68, 0
2, 105630, Note_on_c, 0, 66, 90
2, 105659, Note_on_c, 0, 66, 0
2, 105660, Note_on_c, 0, 65, 90
2, 105689, Note_on_c, 0, 65, 0
2, 105690, Note_on_c, 0, 63, 90
2, 105719, Note_on_c, 0, 63, 0
2, 105720, Note_on_c, 0, 61, 90
2, 105779, Note_on_c, 0, 61, 0
2, 105780, Note_on_c, 0, 68, 90
2, 105839, Note_on_c, 0, 68, 0
2, 105840, Note_on_c, 0, 69, 90
2, 105869, Note_on_c, 0, 69, 0
2, 105870, Note_on_c, 0, 68, 90
2, 105899, Note_on_c, 0, 68, 0
2, 105900, Note_on_c, 0, 66, 90
2, 105929, Note_on_c, 0, 66, 0
2, 105930, Note_on_c, 0, 68, 90
2, 105959, Note_on_c, 0, 68, 0
2, 105960, Note_on_c, 0, 69, 90
2, 105989, Note_on_c, 0, 69, 0
2, 105990, Note_on_c, 0, 73, 90
2, 106019, Note_on_c, 0, 73, 0
2, 106020, Note_on_c, 0, 71, 90
2, 106049, Note_on_c, 0, 71, 0
2, 106050, Note_on_c, 0, 69, 90
2, 106079, Note_on_c, 0, 69, 0
2, 106080, Note_on_c, 0, 71, 90
2, 106109, Note_on_c, 0, 71, 0
2, 106110, Note_on_c, 0, 69, 90
2, 106139, Note_on_c, 0, 69, 0
2, 106140, Note_on_c, 0, 68, 90
2, 106169, Note_on_c, 0, 68, 0
2, 106170, Note_on_c, 0, 66, 90
2, 106199, Note_on_c, 0, 66, 0
2, 106200, Note_on_c, 0, 64, 90
2, 106259, Note_on_c, 0, 64, 0
2, 106260, Note_on_c, 0, 62, 90
2, 106290, Note_on_c, 0, 62, 0
2, 106320, Note_on_c, 0, 61, 90
2, 106350, Note_on_c, 0, 61, 0
2, 106380, Note_on_c, 0, 69, 90
2, 106410, Note_on_c, 0, 69, 0
2, 106440, Note_on_c, 0, 59, 90
2, 106470, Note_on_c, 0, 59, 0
2, 106500, Note_on_c, 0, 68, 90
2, 106530, Note_on_c, 0, 68, 0
2, 106560, Note_on_c, 0, 57, 90
2, 106679, Note_on_c, 0, 57, 0
2, 106710, Note_on_c, 0, 76, 90
2, 106739, Note_on_c, 0, 76, 0
2, 106740, Note_on_c, 0, 73, 90
2, 106769, Note_on_c, 0, 73, 0
2, 106770, Note_on_c, 0, 69, 90
2, 106799, Note_on_c, 0, 69, 0
2, 106800, Note_on_c, 0, 64, 90
2, 106829, Note_on_c, 0, 64, 0
2, 106860, Note_on_c, 0, 64, 90
2, 106889, Note_on_c, 0, 64, 0
2, 106920, Note_on_c, 0, 64, 90
2, 106949, Note_on_c, 0, 64, 0
2, 106980, Note_on_c, 0, 64, 90
2, 107009, Note_on_c, 0, 64, 0
2, 107040, Note_on_c, 0, 64, 90
2, 107189, Note_on_c, 0, 64, 0
2, 107190, Note_on_c, 0, 76, 90
2, 107219, Note_on_c, 0, 76, 0
2, 107220, Note_on_c, 0, 73, 90
2, 107249, Note_on_c, 0, 73, 0
2, 107250, Note_on_c, 0, 70, 90
2, 107279, Note_on_c, 0, 70, 0
2, 107280, Note_on_c, 0, 66, 90
2, 107309, Note_on_c, 0, 66, 0
2, 107340, Note_on_c, 0, 66, 90
2, 107369, Note_on_c, 0, 66, 0
2, 107400, Note_on_c, 0, 66, 90
2, 107414, Note_on_c, 0, 66, 0
2, 107415, Note_on_c, 0, 68, 90
2, 107429, Note_on_c, 0, 68, 0
2, 107430, Note_on_c, 0, 70, 90
2, 107519, Note_on_c, 0, 70, 0
2, 107520, Note_on_c, 0, 70, 90
2, 107534, Note_on_c, 0, 70, 0
2, 107535, Note_on_c, 0, 71, 90
2, 107549, Note_on_c, 0, 71, 0
2, 107550, Note_on_c, 0, 73, 90
2, 107639, Note_on_c, 0, 73, 0
2, 107640, Note_on_c, 0, 73, 90
2, 107654, Note_on_c, 0, 73, 0
2, 107655, Note_on_c, 0, 74, 90
2, 107669, Note_on_c, 0, 74, 0
2, 107670, Note_on_c, 0, 76, 90
2, 107789, Note_on_c, 0, 76, 0
2, 107790, Note_on_c, 0, 79, 90
2, 107819, Note_on_c, 0, 79, 0
2, 107820, Note_on_c, 0, 78, 90
2, 107849, Note_on_c, 0, 78, 0
2, 107850, Note_on_c, 0, 76, 90
2, 107879, Note_on_c, 0, 76, 0
2, 107880, Note_on_c, 0, 78, 90
2, 107909, Note_on_c, 0, 78, 0
2, 107910, Note_on_c, 0, 76, 90
2, 107939, Note_on_c, 0, 76, 0
2, 107940, Note_on_c, 0, 74, 90
2, 107969, Note_on_c, 0, 74, 0
2, 107970, Note_on_c, 0, 73, 90
2, 107999, Note_on_c, 0, 73, 0
2, 108000, Note_on_c, 0, 74, 90
2, 108014, Note_on_c, 0, 74, 0
2, 108015, Note_on_c, 0, 73, 90
2, 108029, Note_on_c, 0, 73, 0
2, 108030, Note_on_c, 0, 71, 90
2, 108149, Note_on_c, 0, 71, 0
2, 108150, Note_on_c, 0, 70, 90
2, 108179, Note_on_c, 0, 70, 0
2, 108180, Note_on_c, 0, 73, 90
2, 108209, Note_on_c, 0, 73, 0
2, 108210, Note_on_c, 0, 76, 90
2, 108239, Note_on_c, 0, 76, 0
2, 108240, Note_on_c, 0, 74, 90
2, 108269, Note_on_c, 0, 74, 0
2, 108270, Note_on_c, 0, 71, 90
2, 108299, Note_on_c, 0, 71, 0
2, 108300, Note_on_c, 0, 74, 90
2, 108329, Note_on_c, 0, 74, 0
2, 108330, Note_on_c, 0, 78, 90
2, 108359, Note_on_c, 0, 78, 0
2, 108360, Note_on_c, 0, 73, 90
2, 108389, Note_on_c, 0, 73, 0
2, 108390, Note_on_c, 0, 70, 90
2, 108419, Note_on_c, 0, 70, 0
2, 108420, Note_on_c, 0, 73, 90
2, 108449, Note_on_c, 0, 73, 0
2, 108450, Note_on_c, 0, 76, 90
2, 108479, Note_on_c, 0, 76, 0
2, 108480, Note_on_c, 0, 74, 90
2, 108494, Note_on_c, 0, 74, 0
2, 108495, Note_on_c, 0, 73, 90
2, 108509, Note_on_c, 0, 73, 0
2, 108510, Note_on_c, 0, 71, 90
2, 108629, Note_on_c, 0, 71, 0
2, 108630, Note_on_c, 0, 66, 90
2, 108659, Note_on_c, 0, 66, 0
2, 108660, Note_on_c, 0, 71, 90
2, 108689, Note_on_c, 0, 71, 0
2, 108690, Note_on_c, 0, 73, 90
2, 108719, Note_on_c, 0, 73, 0
2, 108720, Note_on_c, 0, 74, 90
2, 108749, Note_on_c, 0, 74, 0
2, 108750, Note_on_c, 0, 73, 90
2, 108779, Note_on_c, 0, 73, 0
2, 108780, Note_on_c, 0, 71, 90
2, 108809, Note_on_c, 0, 71, 0
2, 108810, Note_on_c, 0, 69, 90
2, 108839, Note_on_c, 0, 69, 0
2, 108840, Note_on_c, 0, 68, 90
2, 108899, Note_on_c, 0, 68, 0
2, 108900, Note_on_c, 0, 78, 90
2, 108989, Note_on_c, 0, 78, 0
2, 108990, Note_on_c, 0, 77, 90
2, 109019, Note_on_c, 0, 77, 0
2, 109020, Note_on_c, 0, 78, 90
2, 109049, Note_on_c, 0, 78, 0
2, 109050, Note_on_c, 0, 80, 90
2, 109079, Note_on_c, 0, 80, 0
2, 109080, Note_on_c, 0, 71, 90
2, 109109, Note_on_c, 0, 71, 0
2, 109110, Note_on_c, 0, 74, 90
2, 109139, Note_on_c, 0, 74, 0
2, 109140, Note_on_c, 0, 73, 90
2, 109169, Note_on_c, 0, 73, 0
2, 109170, Note_on_c, 0, 71, 90
2, 109199, Note_on_c, 0, 71, 0
2, 109200, Note_on_c, 0, 69, 90
2, 109229, Note_on_c, 0, 69, 0
2, 109230, Note_on_c, 0, 71, 90
2, 109259, Note_on_c, 0, 71, 0
2, 109260, Note_on_c, 0, 73, 90
2, 109289, Note_on_c, 0, 73, 0
2, 109290, Note_on_c, 0, 66, 90
2, 109319, Note_on_c, 0, 66, 0
2, 109320, Note_on_c, 0, 69, 90
2, 109349, Note_on_c, 0, 69, 0
2, 109350, Note_on_c, 0, 68, 90
2, 109379, Note_on_c, 0, 68, 0
2, 109380, Note_on_c, 0, 66, 90
2, 109409, Note_on_c, 0, 66, 0
2, 109410, Note_on_c, 0, 65, 90
2, 109439, Note_on_c, 0, 65, 0
2, 109440, Note_on_c, 0, 66, 90
2, 109559, Note_on_c, 0, 66, 0
2, 109590, Note_on_c, 0, 73, 90
2, 109619, Note_on_c, 0, 73, 0
2, 109620, Note_on_c, 0, 68, 90
2, 109649, Note_on_c, 0, 68, 0
2, 109650, Note_on_c, 0, 65, 90
2, 109679, Note_on_c, 0, 65, 0
2, 109680, Note_on_c, 0, 61, 90
2, 109709, Note_on_c, 0, 61, 0
2, 109740, Note_on_c, 0, 61, 90
2, 109769, Note_on_c, 0, 61, 0
2, 109800, Note_on_c, 0, 61, 90
2, 109829, Note_on_c, 0, 61, 0
2, 109860, Note_on_c, 0, 61, 90
2, 109889, Note_on_c, 0, 61, 0
2, 109920, Note_on_c, 0, 61, 90
2, 110069, Note_on_c, 0, 61, 0
2, 110070, Note_on_c, 0, 73, 90
2, 110099, Note_on_c, 0, 73, 0
2, 110100, Note_on_c, 0, 69, 90
2, 110129, Note_on_c, 0, 69, 0
2, 110130, Note_on_c, 0, 66, 90
2, 110159, Note_on_c, 0, 66, 0
2, 110160, Note_on_c, 0, 65, 90
2, 110174, Note_on_c, 0, 65, 0
2, 110175, Note_on_c, 0, 66, 90
2, 110189, Note_on_c, 0, 66, 0
2, 110190, Note_on_c, 0, 68, 90
2, 110279, Note_on_c, 0, 68, 0
2, 110280, Note_on_c, 0, 68, 90
2, 110294, Note_on_c, 0, 68, 0
2, 110295, Note_on_c, 0, 69, 90
2, 110309, Note_on_c, 0, 69, 0
2, 110310, Note_on_c, 0, 71, 90
2, 110429, Note_on_c, 0, 71, 0
2, 110430, Note_on_c, 0, 74, 90
2, 110459, Note_on_c, 0, 74, 0
2, 110460, Note_on_c, 0, 73, 90
2, 110489, Note_on_c, 0, 73, 0
2, 110490, Note_on_c, 0, 71, 90
2, 110519, Note_on_c, 0, 71, 0
2, 110520, Note_on_c, 0, 73, 90
2, 110549, Note_on_c, 0, 73, 0
2, 110550, Note_on_c, 0, 71, 90
2, 110579, Note_on_c, 0, 71, 0
2, 110580, Note_on_c, 0, 69, 90
2, 110609, Note_on_c, 0, 69, 0
2, 110610, Note_on_c, 0, 68, 90
2, 110639, Note_on_c, 0, 68, 0
2, 110640, Note_on_c, 0, 66, 90
2, 110669, Note_on_c, 0, 66, 0
2, 110670, Note_on_c, 0, 63, 90
2, 110699, Note_on_c, 0, 63, 0
2, 110700, Note_on_c, 0, 65, 90
2, 110729, Note_on_c, 0, 65, 0
2, 110730, Note_on_c, 0, 66, 90
2, 110759, Note_on_c, 0, 66, 0
2, 110760, Note_on_c, 0, 71, 90
2, 110789, Note_on_c, 0, 71, 0
2, 110790, Note_on_c, 0, 68, 90
2, 110819, Note_on_c, 0, 68, 0
2, 110820, Note_on_c, 0, 69, 90
2, 110849, Note_on_c, 0, 69, 0
2, 110850, Note_on_c, 0, 66, 90
2, 110879, Note_on_c, 0, 66, 0
2, 110880, Note_on_c, 0, 66, 90
2, 110909, Note_on_c, 0, 66, 0
2, 110910, Note_on_c, 0, 63, 90
2, 110939, Note_on_c, 0, 63, 0
2, 110940, Note_on_c, 0, 65, 90
2, 110969, Note_on_c, 0, 65, 0
2, 110970, Note_on_c, 0, 68, 90
2, 110999, Note_on_c, 0, 68, 0
2, 111000, Note_on_c, 0, 71, 90
2, 111029, Note_on_c, 0, 71, 0
2, 111030, Note_on_c, 0, 74, 90
2, 111059, Note_on_c, 0, 74, 0
2, 111060, Note_on_c, 0, 73, 90
2, 111089, Note_on_c, 0, 73, 0
2, 111090, Note_on_c, 0, 71, 90
2, 111119, Note_on_c, 0, 71, 0
2, 111120, Note_on_c, 0, 73, 90
2, 111390, Note_on_c, 0, 73, 0
2, 111390, Note_on_c, 0, 68, 90
2, 111419, Note_on_c, 0, 68, 0
2, 111420, Note_on_c, 0, 73, 90
2, 111449, Note_on_c, 0, 73, 0
2, 111450, Note_on_c, 0, 77, 90
2, 111479, Note_on_c, 0, 77, 0
2, 111480, Note_on_c, 0, 80, 90
2, 111509, Note_on_c, 0, 80, 0
2, 111510, Note_on_c, 0, 77, 90
2, 111539, Note_on_c, 0, 77, 0
2, 111540, Note_on_c, 0, 78, 90
2, 111629, Note_on_c, 0, 78, 0
2, 111630, Note_on_c, 0, 68, 90
2, 111659, Note_on_c, 0, 68, 0
2, 111660, Note_on_c, 0, 69, 90
2, 111689, Note_on_c, 0, 69, 0
2, 111690, Note_on_c, 0, 73, 90
2, 111719, Note_on_c, 0, 73, 0
2, 111720, Note_on_c, 0, 78, 90
2, 111779, Note_on_c, 0, 78, 0
2, 111780, Note_on_c, 0, 72, 90
2, 111899, Note_on_c, 0, 72, 0
2, 111900, Note_on_c, 0, 73, 90
2, 111959, Note_on_c, 0, 73, 0
2, 112350, Note_on_c, 0, 74, 90
2, 112379, Note_on_c, 0, 74, 0
2, 112380, Note_on_c, 0, 71, 90
2, 112409, Note_on_c, 0, 71, 0
2, 112410, Note_on_c, 0, 68, 90
2, 112439, Note_on_c, 0, 68, 0
2, 112440, Note_on_c, 0, 64, 90
2, 112469, Note_on_c, 0, 64, 0
2, 112500, Note_on_c, 0, 64, 90
2, 112529, Note_on_c, 0, 64, 0
2, 112560, Note_on_c, 0, 64, 90
2, 112589, Note_on_c, 0, 64, 0
2, 112590, Note_on_c, 0, 76, 90
2, 112619, Note_on_c, 0, 76, 0
2, 112620, Note_on_c, 0, 74, 90
2, 112649, Note_on_c, 0, 74, 0
2, 112650, Note_on_c, 0, 73, 90
2, 112679, Note_on_c, 0, 73, 0
2, 112680, Note_on_c, 0, 76, 90
2, 112709, Note_on_c, 0, 76, 0
2, 112710, Note_on_c, 0, 74, 90
2, 112739, Note_on_c, 0, 74, 0
2, 112740, Note_on_c, 0, 73, 90
2, 112769, Note_on_c, 0, 73, 0
2, 112770, Note_on_c, 0, 71, 90
2, 112799, Note_on_c, 0, 71, 0
2, 112800, Note_on_c, 0, 69, 90
2, 112829, Note_on_c, 0, 69, 0
2, 112830, Note_on_c, 0, 64, 90
2, 112859, Note_on_c, 0, 64, 0
2, 112860, Note_on_c, 0, 61, 90
2, 112889, Note_on_c, 0, 61, 0
2, 112890, Note_on_c, 0, 64, 90
2, 112919, Note_on_c, 0, 64, 0
2, 112920, Note_on_c, 0, 57, 90
2, 112949, Note_on_c, 0, 57, 0
2, 112950, Note_on_c, 0, 61, 90
2, 112979, Note_on_c, 0, 61, 0
2, 112980, Note_on_c, 0, 64, 90
2, 113009, Note_on_c, 0, 64, 0
2, 113010, Note_on_c, 0, 68, 90
2, 113039, Note_on_c, 0, 68, 0
2, 113040, Note_on_c, 0, 69, 90
2, 113159, Note_on_c, 0, 69, 0
2, 113160, Note_on_c, 0, 69, 90
2, 113249, Note_on_c, 0, 69, 0
2, 113250, Note_on_c, 0, 71, 90
2, 113264, Note_on_c, 0, 71, 0
2, 113265, Note_on_c, 0, 73, 90
2, 113279, Note_on_c, 0, 73, 0
2, 113280, Note_on_c, 0, 71, 90
2, 113339, Note_on_c, 0, 71, 0
2, 113340, Note_on_c, 0, 69, 90
2, 113399, Note_on_c, 0, 69, 0
2, 113400, Note_on_c, 0, 68, 90
2, 113459, Note_on_c, 0, 68, 0
2, 113460, Note_on_c, 0, 69, 90
2, 113489, Note_on_c, 0, 69, 0
2, 113520, Note_on_c, 0, 74, 90
2, 113549, Note_on_c, 0, 74, 0
2, 113580, Note_on_c, 0, 74, 90
2, 113609, Note_on_c, 0, 74, 0
2, 113610, Note_on_c, 0, 76, 90
2, 113624, Note_on_c, 0, 76, 0
2, 113625, Note_on_c, 0, 78, 90
2, 113639, Note_on_c, 0, 78, 0
2, 113640, Note_on_c, 0, 76, 90
2, 113699, Note_on_c, 0, 76, 0
2, 113700, Note_on_c, 0, 74, 90
2, 113729, Note_on_c, 0, 74, 0
2, 113760, Note_on_c, 0, 76, 90
2, 113789, Note_on_c, 0, 76, 0
2, 113790, Note_on_c, 0, 74, 90
2, 113819, Note_on_c, 0, 74, 0
2, 113820, Note_on_c, 0, 73, 90
2, 113849, Note_on_c, 0, 73, 0
2, 113850, Note_on_c, 0, 71, 90
2, 113879, Note_on_c, 0, 71, 0
2, 113880, Note_on_c, 0, 69, 90
2, 113909, Note_on_c, 0, 69, 0
2, 113910, Note_on_c, 0, 73, 90
2, 113939, Note_on_c, 0, 73, 0
2, 113940, Note_on_c, 0, 71, 90
2, 113969, Note_on_c, 0, 71, 0
2, 113970, Note_on_c, 0, 69, 90
2, 113999, Note_on_c, 0, 69, 0
2, 114000, Note_on_c, 0, 71, 90
2, 114029, Note_on_c, 0, 71, 0
2, 114030, Note_on_c, 0, 69, 90
2, 114059, Note_on_c, 0, 69, 0
2, 114060, Note_on_c, 0, 68, 90
2, 114089, Note_on_c, 0, 68, 0
2, 114090, Note_on_c, 0, 71, 90
2, 114119, Note_on_c, 0, 71, 0
2, 114120, Note_on_c, 0, 69, 90
2, 114149, Note_on_c, 0, 69, 0
2, 114150, Note_on_c, 0, 68, 90
2, 114179, Note_on_c, 0, 68, 0
2, 114180, Note_on_c, 0, 66, 90
2, 114209, Note_on_c, 0, 66, 0
2, 114210, Note_on_c, 0, 69, 90
2, 114239, Note_on_c, 0, 69, 0
2, 114240, Note_on_c, 0, 68, 90
2, 114299, Note_on_c, 0, 68, 0
2, 114300, Note_on_c, 0, 64, 90
2, 114359, Note_on_c, 0, 64, 0
2, 114420, Note_on_c, 0, 80, 90
2, 114539, Note_on_c, 0, 80, 0
2, 114540, Note_on_c, 0, 78, 90
2, 114659, Note_on_c, 0, 78, 0
2, 114660, Note_on_c, 0, 77, 90
2, 114719, Note_on_c, 0, 77, 0
2, 114720, Note_on_c, 0, 78, 90
2, 114749, Note_on_c, 0, 78, 0
2, 114750, Note_on_c, 0, 66, 90
2, 114779, Note_on_c, 0, 66, 0
2, 114780, Note_on_c, 0, 69, 90
2, 114809, Note_on_c, 0, 69, 0
2, 114810, Note_on_c, 0, 73, 90
2, 114839, Note_on_c, 0, 73, 0
2, 114840, Note_on_c, 0, 78, 90
2, 114869, Note_on_c, 0, 78, 0
2, 114870, Note_on_c, 0, 76, 90
2, 114899, Note_on_c, 0, 76, 0
2, 114900, Note_on_c, 0, 75, 90
2, 114929, Note_on_c, 0, 75, 0
2, 114930, Note_on_c, 0, 78, 90
2, 114959, Note_on_c, 0, 78, 0
2, 114960, Note_on_c, 0, 76, 90
2, 114989, Note_on_c, 0, 76, 0
2, 114990, Note_on_c, 0, 75, 90
2, 115019, Note_on_c, 0, 75, 0
2, 115020, Note_on_c, 0, 73, 90
2, 115049, Note_on_c, 0, 73, 0
2, 115050, Note_on_c, 0, 76, 90
2, 115079, Note_on_c, 0, 76, 0
2, 115080, Note_on_c, 0, 75, 90
2, 115109, Note_on_c, 0, 75, 0
2, 115110, Note_on_c, 0, 73, 90
2, 115139, Note_on_c, 0, 73, 0
2, 115140, Note_on_c, 0, 72, 90
2, 115169, Note_on_c, 0, 72, 0
2, 115170, Note_on_c, 0, 75, 90
2, 115199, Note_on_c, 0, 75, 0
2, 115200, Note_on_c, 0, 73, 90
2, 115214, Note_on_c, 0, 73, 0
2, 115215, Note_on_c, 0, 75, 90
2, 115229, Note_on_c, 0, 75, 0
2, 115230, Note_on_c, 0, 76, 90
2, 115319, Note_on_c, 0, 76, 0
2, 115320, Note_on_c, 0, 76, 90
2, 115334, Note_on_c, 0, 76, 0
2, 115335, Note_on_c, 0, 78, 90
2, 115349, Note_on_c, 0, 78, 0
2, 115350, Note_on_c, 0, 80, 90
2, 115469, Note_on_c, 0, 80, 0
2, 115470, Note_on_c, 0, 73, 90
2, 115499, Note_on_c, 0, 73, 0
2, 115500, Note_on_c, 0, 72, 90
2, 115529, Note_on_c, 0, 72, 0
2, 115530, Note_on_c, 0, 73, 90
2, 115559, Note_on_c, 0, 73, 0
2, 115560, Note_on_c, 0, 78, 90
2, 115589, Note_on_c, 0, 78, 0
2, 115590, Note_on_c, 0, 75, 90
2, 115619, Note_on_c, 0, 75, 0
2, 115620, Note_on_c, 0, 76, 90
2, 115649, Note_on_c, 0, 76, 0
2, 115650, Note_on_c, 0, 73, 90
2, 115679, Note_on_c, 0, 73, 0
2, 115680, Note_on_c, 0, 75, 90
2, 115709, Note_on_c, 0, 75, 0
2, 115710, Note_on_c, 0, 73, 90
2, 115739, Note_on_c, 0, 73, 0
2, 115740, Note_on_c, 0, 72, 90
2, 115769, Note_on_c, 0, 72, 0
2, 115770, Note_on_c, 0, 73, 90
2, 115799, Note_on_c, 0, 73, 0
2, 115800, Note_on_c, 0, 75, 90
2, 115859, Note_on_c, 0, 75, 0
2, 115860, Note_on_c, 0, 68, 90
2, 115889, Note_on_c, 0, 68, 0
2, 115920, Note_on_c, 0, 73, 90
2, 116039, Note_on_c, 0, 73, 0
2, 116040, Note_on_c, 0, 73, 90
2, 116129, Note_on_c, 0, 73, 0
2, 116130, Note_on_c, 0, 75, 90
2, 116144, Note_on_c, 0, 75, 0
2, 116145, Note_on_c, 0, 76, 90
2, 116159, Note_on_c, 0, 76, 0
2, 116160, Note_on_c, 0, 75, 90
2, 116219, Note_on_c, 0, 75, 0
2, 116220, Note_on_c, 0, 73, 90
2, 116279, Note_on_c, 0, 73, 0
2, 116280, Note_on_c, 0, 72, 90
2, 116339, Note_on_c, 0, 72, 0
2, 116340, Note_on_c, 0, 75, 90
2, 116369, Note_on_c, 0, 75, 0
2, 116400, Note_on_c, 0, 78, 90
2, 116429, Note_on_c, 0, 78, 0
2, 116460, Note_on_c, 0, 78, 90
2, 116489, Note_on_c, 0, 78, 0
2, 116490, Note_on_c, 0, 80, 90
2, 116504, Note_on_c, 0, 80, 0
2, 116505, Note_on_c, 0, 81, 90
2, 116519, Note_on_c, 0, 81, 0
2, 116520, Note_on_c, 0, 80, 90
2, 116579, Note_on_c, 0, 80, 0
2, 116580, Note_on_c, 0, 78, 90
2, 116609, Note_on_c, 0, 78, 0
2, 116640, Note_on_c, 0, 80, 90
2, 116699, Note_on_c, 0, 80, 0
2, 116700, Note_on_c, 0, 76, 90
2, 116759, Note_on_c, 0, 76, 0
2, 116760, Note_on_c, 0, 73, 90
2, 116819, Note_on_c, 0, 73, 0
2, 116820, Note_on_c, 0, 79, 90
2, 116939, Note_on_c, 0, 79, 0
2, 116940, Note_on_c, 0, 80, 90
2, 116999, Note_on_c, 0, 80, 0
2, 117000, Note_on_c, 0, 78, 90
2, 117029, Note_on_c, 0, 78, 0
2, 117030, Note_on_c, 0, 76, 90
2, 117059, Note_on_c, 0, 76, 0
2, 117060, Note_on_c, 0, 75, 90
2, 117089, Note_on_c, 0, 75, 0
2, 117090, Note_on_c, 0, 73, 90
2, 117119, Note_on_c, 0, 73, 0
2, 117120, Note_on_c, 0, 75, 90
2, 117179, Note_on_c, 0, 75, 0
2, 117180, Note_on_c, 0, 72, 90
2, 117239, Note_on_c, 0, 72, 0
2, 117240, Note_on_c, 0, 68, 90
2, 117299, Note_on_c, 0, 68, 0
2, 118230, Note_on_c, 0, 80, 90
2, 118259, Note_on_c, 0, 80, 0
2, 118260, Note_on_c, 0, 76, 90
2, 118289, Note_on_c, 0, 76, 0
2, 118290, Note_on_c, 0, 73, 90
2, 118319, Note_on_c, 0, 73, 0
2, 118320, Note_on_c, 0, 68, 90
2, 118349, Note_on_c, 0, 68, 0
2, 118380, Note_on_c, 0, 68, 90
2, 118409, Note_on_c, 0, 68, 0
2, 118440, Note_on_c, 0, 68, 90
2, 118469, Note_on_c, 0, 68, 0
2, 118500, Note_on_c, 0, 68, 90
2, 118529, Note_on_c, 0, 68, 0
2, 118560, Note_on_c, 0, 68, 90
2, 118709, Note_on_c, 0, 68, 0
2, 118710, Note_on_c, 0, 71, 90
2, 118739, Note_on_c, 0, 71, 0
2, 118740, Note_on_c, 0, 68, 90
2, 118769, Note_on_c, 0, 68, 0
2, 118770, Note_on_c, 0, 65, 90
2, 118799, Note_on_c, 0, 65, 0
2, 118800, Note_on_c, 0, 61, 90
2, 118829, Note_on_c, 0, 61, 0
2, 118860, Note_on_c, 0, 61, 90
2, 118889, Note_on_c, 0, 61, 0
2, 118920, Note_on_c, 0, 61, 90
2, 118934, Note_on_c, 0, 61, 0
2, 118935, Note_on_c, 0, 63, 90
2, 118949, Note_on_c, 0, 63, 0
2, 118950, Note_on_c, 0, 65, 90
2, 119039, Note_on_c, 0, 65, 0
2, 119040, Note_on_c, 0, 65, 90
2, 119054, Note_on_c, 0, 65, 0
2, 119055, Note_on_c, 0, 66, 90
2, 119069, Note_on_c, 0, 66, 0
2, 119070, Note_on_c, 0, 68, 90
2, 119159, Note_on_c, 0, 68, 0
2, 119160, Note_on_c, 0, 68, 90
2, 119174, Note_on_c, 0, 68, 0
2, 119175, Note_on_c, 0, 69, 90
2, 119189, Note_on_c, 0, 69, 0
2, 119190, Note_on_c, 0, 71, 90
2, 119309, Note_on_c, 0, 71, 0
2, 119310, Note_on_c, 0, 74, 90
2, 119339, Note_on_c, 0, 74, 0
2, 119340, Note_on_c, 0, 73, 90
2, 119369, Note_on_c, 0, 73, 0
2, 119370, Note_on_c, 0, 71, 90
2, 119399, Note_on_c, 0, 71, 0
2, 119400, Note_on_c, 0, 73, 90
2, 119429, Note_on_c, 0, 73, 0
2, 119430, Note_on_c, 0, 71, 90
2, 119459, Note_on_c, 0, 71, 0
2, 119460, Note_on_c, 0, 69, 90
2, 119489, Note_on_c, 0, 69, 0
2, 119490, Note_on_c, 0, 68, 90
2, 119519, Note_on_c, 0, 68, 0
2, 119520, Note_on_c, 0, 69, 90
2, 119534, Note_on_c, 0, 69, 0
2, 119535, Note_on_c, 0, 68, 90
2, 119549, Note_on_c, 0, 68, 0
2, 119550, Note_on_c, 0, 66, 90
2, 119669, Note_on_c, 0, 66, 0
2, 119670, Note_on_c, 0, 65, 90
2, 119699, Note_on_c, 0, 65, 0
2, 119700, Note_on_c, 0, 68, 90
2, 119729, Note_on_c, 0, 68, 0
2, 119730, Note_on_c, 0, 71, 90
2, 119759, Note_on_c, 0, 71, 0
2, 119760, Note_on_c, 0, 69, 90
2, 119789, Note_on_c, 0, 69, 0
2, 119790, Note_on_c, 0, 66, 90
2, 119819, Note_on_c, 0, 66, 0
2, 119820, Note_on_c, 0, 69, 90
2, 119849, Note_on_c, 0, 69, 0
2, 119850, Note_on_c, 0, 73, 90
2, 119879, Note_on_c, 0, 73, 0
2, 119880, Note_on_c, 0, 68, 90
2, 119909, Note_on_c, 0, 68, 0
2, 119910, Note_on_c, 0, 65, 90
2, 119939, Note_on_c, 0, 65, 0
2, 119940, Note_on_c, 0, 68, 90
2, 119969, Note_on_c, 0, 68, 0
2, 119970, Note_on_c, 0, 71, 90
2, 119999, Note_on_c, 0, 71, 0
2, 120000, Note_on_c, 0, 69, 90
2, 120014, Note_on_c, 0, 69, 0
2, 120015, Note_on_c, 0, 68, 90
2, 120029, Note_on_c, 0, 68, 0
2, 120030, Note_on_c, 0, 66, 90
2, 120149, Note_on_c, 0, 66, 0
2, 120150, Note_on_c, 0, 61, 90
2, 120179, Note_on_c, 0, 61, 0
2, 120180, Note_on_c, 0, 66, 90
2, 120209, Note_on_c, 0, 66, 0
2, 120210, Note_on_c, 0, 68, 90
2, 120239, Note_on_c, 0, 68, 0
2, 120240, Note_on_c, 0, 69, 90
2, 120269, Note_on_c, 0, 69, 0
2, 120270, Note_on_c, 0, 68, 90
2, 120299, Note_on_c, 0, 68, 0
2, 120300, Note_on_c, 0, 66, 90
2, 120329, Note_on_c, 0, 66, 0
2, 120330, Note_on_c, 0, 64, 90
2, 120359, Note_on_c, 0, 64, 0
2, 120360, Note_on_c, 0, 63, 90
2, 120419, Note_on_c, 0, 63, 0
2, 120420, Note_on_c, 0, 73, 90
2, 120509, Note_on_c, 0, 73, 0
2, 120510, Note_on_c, 0, 72, 90
2, 120539, Note_on_c, 0, 72, 0
2, 120540, Note_on_c, 0, 73, 90
2, 120569, Note_on_c, 0, 73, 0
2, 120570, Note_on_c, 0, 75, 90
2, 120599, Note_on_c, 0, 75, 0
2, 120600, Note_on_c, 0, 66, 90
2, 120629, Note_on_c, 0, 66, 0
2, 120630, Note_on_c, 0, 69, 90
2, 120659, Note_on_c, 0, 69, 0
2, 120660, Note_on_c, 0, 68, 90
2, 120689, Note_on_c, 0, 68, 0
2, 120690, Note_on_c, 0, 66, 90
2, 120719, Note_on_c, 0, 66, 0
2, 120720, Note_on_c, 0, 64, 90
2, 120749, Note_on_c, 0, 64, 0
2, 120750, Note_on_c, 0, 66, 90
2, 120779, Note_on_c, 0, 66, 0
2, 120780, Note_on_c, 0, 68, 90
2, 120809, Note_on_c, 0, 68, 0
2, 120810, Note_on_c, 0, 61, 90
2, 120839, Note_on_c, 0, 61, 0
2, 120840, Note_on_c, 0, 64, 90
2, 120869, Note_on_c, 0, 64, 0
2, 120870, Note_on_c, 0, 63, 90
2, 120899, Note_on_c, 0, 63, 0
2, 120900, Note_on_c, 0, 61, 90
2, 120929, Note_on_c, 0, 61, 0
2, 120930, Note_on_c, 0, 60, 90
2, 120959, Note_on_c, 0, 60, 0
2, 120960, Note_on_c, 0, 61, 90
2, 121079, Note_on_c, 0, 61, 0
2, 121590, Note_on_c, 0, 76, 90
2, 121619, Note_on_c, 0, 76, 0
2, 121620, Note_on_c, 0, 73, 90
2, 121649, Note_on_c, 0, 73, 0
2, 121650, Note_on_c, 0, 69, 90
2, 121679, Note_on_c, 0, 69, 0
2, 121680, Note_on_c, 0, 66, 90
2, 121709, Note_on_c, 0, 66, 0
2, 121740, Note_on_c, 0, 66, 90
2, 121769, Note_on_c, 0, 66, 0
2, 121800, Note_on_c, 0, 66, 90
2, 121829, Note_on_c, 0, 66, 0
2, 121860, Note_on_c, 0, 66, 90
2, 121949, Note_on_c, 0, 66, 0
2, 121950, Note_on_c, 0, 76, 90
2, 121979, Note_on_c, 0, 76, 0
2, 121980, Note_on_c, 0, 71, 90
2, 122009, Note_on_c, 0, 71, 0
2, 122010, Note_on_c, 0, 68, 90
2, 122039, Note_on_c, 0, 68, 0
2, 122040, Note_on_c, 0, 64, 90
2, 122099, Note_on_c, 0, 64, 0
2, 122190, Note_on_c, 0, 76, 90
2, 122219, Note_on_c, 0, 76, 0
2, 122220, Note_on_c, 0, 73, 90
2, 122249, Note_on_c, 0, 73, 0
2, 122250, Note_on_c, 0, 70, 90
2, 122279, Note_on_c, 0, 70, 0
2, 122280, Note_on_c, 0, 66, 90
2, 122309, Note_on_c, 0, 66, 0
2, 122340, Note_on_c, 0, 66, 90
2, 122369, Note_on_c, 0, 66, 0
2, 122400, Note_on_c, 0, 66, 90
2, 122429, Note_on_c, 0, 66, 0
2, 122460, Note_on_c, 0, 66, 90
2, 122489, Note_on_c, 0, 66, 0
2, 122520, Note_on_c, 0, 66, 90
2, 122669, Note_on_c, 0, 66, 0
2, 122670, Note_on_c, 0, 78, 90
2, 122699, Note_on_c, 0, 78, 0
2, 122700, Note_on_c, 0, 73, 90
2, 122729, Note_on_c, 0, 73, 0
2, 122730, Note_on_c, 0, 70, 90
2, 122759, Note_on_c, 0, 70, 0
2, 122760, Note_on_c, 0, 66, 90
2, 122789, Note_on_c, 0, 66, 0
2, 122820, Note_on_c, 0, 66, 90
2, 122849, Note_on_c, 0, 66, 0
2, 122880, Note_on_c, 0, 66, 90
2, 122909, Note_on_c, 0, 66, 0
2, 122940, Note_on_c, 0, 66, 90
2, 122969, Note_on_c, 0, 66, 0
2, 123000, Note_on_c, 0, 66, 90
2, 123149, Note_on_c, 0, 66, 0
2, 123150, Note_on_c, 0, 78, 90
2, 123179, Note_on_c, 0, 78, 0
2, 123180, Note_on_c, 0, 73, 90
2, 123209, Note_on_c, 0, 73, 0
2, 123210, Note_on_c, 0, 70, 90
2, 123239, Note_on_c, 0, 70, 0
2, 123240, Note_on_c, 0, 66, 90
2, 123299, Note_on_c, 0, 66, 0
2, 124020, Note_on_c, 0, 66, 90
2, 124079, Note_on_c, 0, 66, 0
2, 124080, Note_on_c, 0, 71, 90
2, 124199, Note_on_c, 0, 71, 0
2, 124200, Note_on_c, 0, 71, 90
2, 124289, Note_on_c, 0, 71, 0
2, 124290, Note_on_c, 0, 73, 90
2, 124304, Note_on_c, 0, 73, 0
2, 124305, Note_on_c, 0, 74, 90
2, 124319, Note_on_c, 0, 74, 0
2, 124320, Note_on_c, 0, 73, 90
2, 124379, Note_on_c, 0, 73, 0
2, 124380, Note_on_c, 0, 71, 90
2, 124439, Note_on_c, 0, 71, 0
2, 124440, Note_on_c, 0, 70, 90
2, 124499, Note_on_c, 0, 70, 0
2, 124500, Note_on_c, 0, 71, 90
2, 124529, Note_on_c, 0, 71, 0
2, 124560, Note_on_c, 0, 76, 90
2, 124589, Note_on_c, 0, 76, 0
2, 124620, Note_on_c, 0, 76, 90
2, 124634, Note_on_c, 0, 76, 0
2, 124635, Note_on_c, 0, 78, 90
2, 124649, Note_on_c, 0, 78, 0
2, 124650, Note_on_c, 0, 79, 90
2, 124680, Note_on_c, 0, 79, 0
2, 124680, Note_on_c, 0, 78, 90
2, 124739, Note_on_c, 0, 78, 0
2, 124740, Note_on_c, 0, 76, 90
2, 124770, Note_on_c, 0, 76, 0
2, 124800, Note_on_c, 0, 78, 90
2, 124829, Note_on_c, 0, 78, 0
2, 124830, Note_on_c, 0, 76, 90
2, 124859, Note_on_c, 0, 76, 0
2, 124860, Note_on_c, 0, 74, 90
2, 124889, Note_on_c, 0, 74, 0
2, 124890, Note_on_c, 0, 73, 90
2, 124919, Note_on_c, 0, 73, 0
2, 124920, Note_on_c, 0, 71, 90
2, 124979, Note_on_c, 0, 71, 0
2, 124980, Note_on_c, 0, 74, 90
2, 125009, Note_on_c, 0, 74, 0
2, 125040, Note_on_c, 0, 73, 90
2, 125069, Note_on_c, 0, 73, 0
2, 125070, Note_on_c, 0, 74, 90
2, 125099, Note_on_c, 0, 74, 0
2, 125100, Note_on_c, 0, 76, 90
2, 125129, Note_on_c, 0, 76, 0
2, 125130, Note_on_c, 0, 74, 90
2, 125159, Note_on_c, 0, 74, 0
2, 125160, Note_on_c, 0, 73, 90
2, 125219, Note_on_c, 0, 73, 0
2, 125220, Note_on_c, 0, 71, 90
2, 125249, Note_on_c, 0, 71, 0
2, 125280, Note_on_c, 0, 71, 90
2, 125339, Note_on_c, 0, 71, 0
2, 125340, Note_on_c, 0, 70, 90
2, 125399, Note_on_c, 0, 70, 0
2, 125400, Note_on_c, 0, 78, 90
2, 125459, Note_on_c, 0, 78, 0
2, 125460, Note_on_c, 0, 79, 90
2, 125519, Note_on_c, 0, 79, 0
2, 125520, Note_on_c, 0, 70, 90
2, 125549, Note_on_c, 0, 70, 0
2, 125550, Note_on_c, 0, 71, 90
2, 125579, Note_on_c, 0, 71, 0
2, 125580, Note_on_c, 0, 73, 90
2, 125609, Note_on_c, 0, 73, 0
2, 125610, Note_on_c, 0, 74, 90
2, 125639, Note_on_c, 0, 74, 0
2, 125640, Note_on_c, 0, 76, 90
2, 125669, Note_on_c, 0, 76, 0
2, 125670, Note_on_c, 0, 73, 90
2, 125699, Note_on_c, 0, 73, 0
2, 125700, Note_on_c, 0, 74, 90
2, 125729, Note_on_c, 0, 74, 0
2, 125730, Note_on_c, 0, 71, 90
2, 125759, Note_on_c, 0, 71, 0
2, 125760, Note_on_c, 0, 73, 90
2, 125789, Note_on_c, 0, 73, 0
2, 125790, Note_on_c, 0, 71, 90
2, 125819, Note_on_c, 0, 71, 0
2, 125820, Note_on_c, 0, 70, 90
2, 125849, Note_on_c, 0, 70, 0
2, 125850, Note_on_c, 0, 68, 90
2, 125879, Note_on_c, 0, 68, 0
2, 125880, Note_on_c, 0, 66, 90
2, 125939, Note_on_c, 0, 66, 0
2, 126390, Note_on_c, 0, 78, 90
2, 126419, Note_on_c, 0, 78, 0
2, 126420, Note_on_c, 0, 74, 90
2, 126449, Note_on_c, 0, 74, 0
2, 126450, Note_on_c, 0, 73, 90
2, 126479, Note_on_c, 0, 73, 0
2, 126480, Note_on_c, 0, 74, 90
2, 126509, Note_on_c, 0, 74, 0
2, 126510, Note_on_c, 0, 83, 90
2, 126539, Note_on_c, 0, 83, 0
2, 126540, Note_on_c, 0, 80, 90
2, 126569, Note_on_c, 0, 80, 0
2, 126570, Note_on_c, 0, 74, 90
2, 126599, Note_on_c, 0, 74, 0
2, 126600, Note_on_c, 0, 64, 90
2, 126659, Note_on_c, 0, 64, 0
2, 126870, Note_on_c, 0, 76, 90
2, 126899, Note_on_c, 0, 76, 0
2, 126900, Note_on_c, 0, 73, 90
2, 126929, Note_on_c, 0, 73, 0
2, 126930, Note_on_c, 0, 71, 90
2, 126959, Note_on_c, 0, 71, 0
2, 126960, Note_on_c, 0, 73, 90
2, 126989, Note_on_c, 0, 73, 0
2, 126990, Note_on_c, 0, 81, 90
2, 127019, Note_on_c, 0, 81, 0
2, 127020, Note_on_c, 0, 78, 90
2, 127049, Note_on_c, 0, 78, 0
2, 127050, Note_on_c, 0, 73, 90
2, 127079, Note_on_c, 0, 73, 0
2, 127080, Note_on_c, 0, 62, 90
2, 127139, Note_on_c, 0, 62, 0
2, 127590, Note_on_c, 0, 73, 90
2, 127619, Note_on_c, 0, 73, 0
2, 127620, Note_on_c, 0, 68, 90
2, 127649, Note_on_c, 0, 68, 0
2, 127650, Note_on_c, 0, 65, 90
2, 127679, Note_on_c, 0, 65, 0
2, 127680, Note_on_c, 0, 61, 90
2, 127709, Note_on_c, 0, 61, 0
2, 127740, Note_on_c, 0, 61, 90
2, 127769, Note_on_c, 0, 61, 0
2, 127800, Note_on_c, 0, 61, 90
2, 127829, Note_on_c, 0, 61, 0
2, 127860, Note_on_c, 0, 61, 90
2, 127949, Note_on_c, 0, 61, 0
2, 127950, Note_on_c, 0, 71, 90
2, 127979, Note_on_c, 0, 71, 0
2, 127980, Note_on_c, 0, 70, 90
2, 128009, Note_on_c, 0, 70, 0
2, 128010, Note_on_c, 0, 71, 90
2, 128039, Note_on_c, 0, 71, 0
2, 128040, Note_on_c, 0, 65, 90
2, 128099, Note_on_c, 0, 65, 0
2, 128430, Note_on_c, 0, 78, 90
2, 128459, Note_on_c, 0, 78, 0
2, 128460, Note_on_c, 0, 73, 90
2, 128489, Note_on_c, 0, 73, 0
2, 128490, Note_on_c, 0, 69, 90
2, 128519, Note_on_c, 0, 69, 0
2, 128520, Note_on_c, 0, 66, 90
2, 128549, Note_on_c, 0, 66, 0
2, 128550, Note_on_c, 0, 73, 90
2, 128579, Note_on_c, 0, 73, 0
2, 128580, Note_on_c, 0, 69, 90
2, 128609, Note_on_c, 0, 69, 0
2, 128610, Note_on_c, 0, 66, 90
2, 128639, Note_on_c, 0, 66, 0
2, 128640, Note_on_c, 0, 61, 90
2, 128669, Note_on_c, 0, 61, 0
2, 128700, Note_on_c, 0, 61, 90
2, 128729, Note_on_c, 0, 61, 0
2, 128760, Note_on_c, 0, 61, 90
2, 128789, Note_on_c, 0, 61, 0
2, 128820, Note_on_c, 0, 61, 90
2, 128849, Note_on_c, 0, 61, 0
2, 128880, Note_on_c, 0, 61, 90
2, 129029, Note_on_c, 0, 61, 0
2, 129030, Note_on_c, 0, 76, 90
2, 129059, Note_on_c, 0, 76, 0
2, 129060, Note_on_c, 0, 73, 90
2, 129089, Note_on_c, 0, 73, 0
2, 129090, Note_on_c, 0, 70, 90
2, 129119, Note_on_c, 0, 70, 0
2, 129120, Note_on_c, 0, 66, 90
2, 129149, Note_on_c, 0, 66, 0
2, 129180, Note_on_c, 0, 66, 90
2, 129209, Note_on_c, 0, 66, 0
2, 129240, Note_on_c, 0, 66, 90
2, 129254, Note_on_c, 0, 66, 0
2, 129255, Note_on_c, 0, 68, 90
2, 129269, Note_on_c, 0, 68, 0
2, 129270, Note_on_c, 0, 70, 90
2, 129359, Note_on_c, 0, 70, 0
2, 129360, Note_on_c, 0, 70, 90
2, 129374, Note_on_c, 0, 70, 0
2, 129375, Note_on_c, 0, 71, 90
2, 129389, Note_on_c, 0, 71, 0
2, 129390, Note_on_c, 0, 73, 90
2, 129479, Note_on_c, 0, 73, 0
2, 129480, Note_on_c, 0, 73, 90
2, 129494, Note_on_c, 0, 73, 0
2, 129495, Note_on_c, 0, 74, 90
2, 129509, Note_on_c, 0, 74, 0
2, 129510, Note_on_c, 0, 76, 90
2, 129629, Note_on_c, 0, 76, 0
2, 129630, Note_on_c, 0, 79, 90
2, 129659, Note_on_c, 0, 79, 0
2, 129660, Note_on_c, 0, 78, 90
2, 129689, Note_on_c, 0, 78, 0
2, 129690, Note_on_c, 0, 76, 90
2, 129719, Note_on_c, 0, 76, 0
2, 129720, Note_on_c, 0, 78, 90
2, 129749, Note_on_c, 0, 78, 0
2, 129750, Note_on_c, 0, 76, 90
2, 129779, Note_on_c, 0, 76, 0
2, 129780, Note_on_c, 0, 74, 90
2, 129809, Note_on_c, 0, 74, 0
2, 129810, Note_on_c, 0, 73, 90
2, 129839, Note_on_c, 0, 73, 0
2, 129840, Note_on_c, 0, 74, 90
2, 129854, Note_on_c, 0, 74, 0
2, 129855, Note_on_c, 0, 73, 90
2, 129869, Note_on_c, 0, 73, 0
2, 129870, Note_on_c, 0, 71, 90
2, 129989, Note_on_c, 0, 71, 0
2, 129990, Note_on_c, 0, 70, 90
2, 130019, Note_on_c, 0, 70, 0
2, 130020, Note_on_c, 0, 73, 90
2, 130049, Note_on_c, 0, 73, 0
2, 130050, Note_on_c, 0, 76, 90
2, 130079, Note_on_c, 0, 76, 0
2, 130080, Note_on_c, 0, 74, 90
2, 130109, Note_on_c, 0, 74, 0
2, 130110, Note_on_c, 0, 71, 90
2, 130139, Note_on_c, 0, 71, 0
2, 130140, Note_on_c, 0, 74, 90
2, 130169, Note_on_c, 0, 74, 0
2, 130170, Note_on_c, 0, 78, 90
2, 130199, Note_on_c, 0, 78, 0
2, 130200, Note_on_c, 0, 73, 90
2, 130229, Note_on_c, 0, 73, 0
2, 130230, Note_on_c, 0, 70, 90
2, 130259, Note_on_c, 0, 70, 0
2, 130260, Note_on_c, 0, 73, 90
2, 130289, Note_on_c, 0, 73, 0
2, 130290, Note_on_c, 0, 76, 90
2, 130319, Note_on_c, 0, 76, 0
2, 130320, Note_on_c, 0, 74, 90
2, 130334, Note_on_c, 0, 74, 0
2, 130335, Note_on_c, 0, 73, 90
2, 130349, Note_on_c, 0, 73, 0
2, 130350, Note_on_c, 0, 71, 90
2, 130469, Note_on_c, 0, 71, 0
2, 130470, Note_on_c, 0, 68, 90
2, 130499, Note_on_c, 0, 68, 0
2, 130500, Note_on_c, 0, 71, 90
2, 130529, Note_on_c, 0, 71, 0
2, 130530, Note_on_c, 0, 74, 90
2, 130559, Note_on_c, 0, 74, 0
2, 130560, Note_on_c, 0, 73, 90
2, 130589, Note_on_c, 0, 73, 0
2, 130590, Note_on_c, 0, 69, 90
2, 130619, Note_on_c, 0, 69, 0
2, 130620, Note_on_c, 0, 73, 90
2, 130649, Note_on_c, 0, 73, 0
2, 130650, Note_on_c, 0, 76, 90
2, 130679, Note_on_c, 0, 76, 0
2, 130680, Note_on_c, 0, 71, 90
2, 130709, Note_on_c, 0, 71, 0
2, 130710, Note_on_c, 0, 68, 90
2, 130739, Note_on_c, 0, 68, 0
2, 130740, Note_on_c, 0, 71, 90
2, 130769, Note_on_c, 0, 71, 0
2, 130770, Note_on_c, 0, 74, 90
2, 130799, Note_on_c, 0, 74, 0
2, 130800, Note_on_c, 0, 73, 90
2, 130814, Note_on_c, 0, 73, 0
2, 130815, Note_on_c, 0, 71, 90
2, 130829, Note_on_c, 0, 71, 0
2, 130830, Note_on_c, 0, 69, 90
2, 130980, Note_on_c, 0, 69, 0
2, 130980, Note_on_c, 0, 71, 90
2, 131009, Note_on_c, 0, 71, 0
2, 131010, Note_on_c, 0, 73, 90
2, 131039, Note_on_c, 0, 73, 0
2, 131040, Note_on_c, 0, 74, 90
2, 131069, Note_on_c, 0, 74, 0
2, 131070, Note_on_c, 0, 73, 90
2, 131099, Note_on_c, 0, 73, 0
2, 131100, Note_on_c, 0, 71, 90
2, 131129, Note_on_c, 0, 71, 0
2, 131130, Note_on_c, 0, 69, 90
2, 131159, Note_on_c, 0, 69, 0
2, 131160, Note_on_c, 0, 68, 90
2, 131219, Note_on_c, 0, 68, 0
2, 131220, Note_on_c, 0, 78, 90
2, 131309, Note_on_c, 0, 78, 0
2, 131310, Note_on_c, 0, 77, 90
2, 131339, Note_on_c, 0, 77, 0
2, 131340, Note_on_c, 0, 78, 90
2, 131369, Note_on_c, 0, 78, 0
2, 131370, Note_on_c, 0, 80, 90
2, 131399, Note_on_c, 0, 80, 0
2, 131400, Note_on_c, 0, 73, 90
2, 131429, Note_on_c, 0, 73, 0
2, 131430, Note_on_c, 0, 71, 90
2, 131459, Note_on_c, 0, 71, 0
2, 131460, Note_on_c, 0, 69, 90
2, 131489, Note_on_c, 0, 69, 0
2, 131490, Note_on_c, 0, 68, 90
2, 131519, Note_on_c, 0, 68, 0
2, 131520, Note_on_c, 0, 69, 90
2, 131549, Note_on_c, 0, 69, 0
2, 131550, Note_on_c, 0, 71, 90
2, 131579, Note_on_c, 0, 71, 0
2, 131580, Note_on_c, 0, 73, 90
2, 131609, Note_on_c, 0, 73, 0
2, 131610, Note_on_c, 0, 66, 90
2, 131639, Note_on_c, 0, 66, 0
2, 131640, Note_on_c, 0, 69, 90
2, 131669, Note_on_c, 0, 69, 0
2, 131670, Note_on_c, 0, 68, 90
2, 131699, Note_on_c, 0, 68, 0
2, 131700, Note_on_c, 0, 66, 90
2, 131729, Note_on_c, 0, 66, 0
2, 131730, Note_on_c, 0, 65, 90
2, 131759, Note_on_c, 0, 65, 0
2, 131760, Note_on_c, 0, 66, 90
2, 131879, Note_on_c, 0, 66, 0
2, 132660, Note_on_c, 0, 61, 90
2, 132719, Note_on_c, 0, 61, 0
2, 132720, Note_on_c, 0, 66, 90
2, 132839, Note_on_c, 0, 66, 0
2, 132840, Note_on_c, 0, 66, 90
2, 132929, Note_on_c, 0, 66, 0
2, 132930, Note_on_c, 0, 68, 90
2, 132944, Note_on_c, 0, 68, 0
2, 132945, Note_on_c, 0, 69, 90
2, 132959, Note_on_c, 0, 69, 0
2, 132960, Note_on_c, 0, 68, 90
2, 133019, Note_on_c, 0, 68, 0
2, 133020, Note_on_c, 0, 66, 90
2, 133079, Note_on_c, 0, 66, 0
2, 133080, Note_on_c, 0, 65, 90
2, 133139, Note_on_c, 0, 65, 0
2, 133140, Note_on_c, 0, 66, 90
2, 133169, Note_on_c, 0, 66, 0
2, 133200, Note_on_c, 0, 71, 90
2, 133229, Note_on_c, 0, 71, 0
2, 133260, Note_on_c, 0, 71, 90
2, 133289, Note_on_c, 0, 71, 0
2, 133290, Note_on_c, 0, 73, 90
2, 133304, Note_on_c, 0, 73, 0
2, 133305, Note_on_c, 0, 74, 90
2, 133319, Note_on_c, 0, 74, 0
2, 133320, Note_on_c, 0, 73, 90
2, 133379, Note_on_c, 0, 73, 0
2, 133380, Note_on_c, 0, 71, 90
2, 133409, Note_on_c, 0, 71, 0
2, 133440, Note_on_c, 0, 73, 90
2, 133469, Note_on_c, 0, 73, 0
2, 133470, Note_on_c, 0, 71, 90
2, 133499, Note_on_c, 0, 71, 0
2, 133500, Note_on_c, 0, 69, 90
2, 133529, Note_on_c, 0, 69, 0
2, 133530, Note_on_c, 0, 68, 90
2, 133559, Note_on_c, 0, 68, 0
2, 133560, Note_on_c, 0, 66, 90
2, 133619, Note_on_c, 0, 66, 0
2, 133620, Note_on_c, 0, 69, 90
2, 133649, Note_on_c, 0, 69, 0
2, 133680, Note_on_c, 0, 68, 90
2, 133709, Note_on_c, 0, 68, 0
2, 133710, Note_on_c, 0, 69, 90
2, 133739, Note_on_c, 0, 69, 0
2, 133740, Note_on_c, 0, 71, 90
2, 133769, Note_on_c, 0, 71, 0
2, 133770, Note_on_c, 0, 69, 90
2, 133799, Note_on_c, 0, 69, 0
2, 133800, Note_on_c, 0, 68, 90
2, 133859, Note_on_c, 0, 68, 0
2, 133860, Note_on_c, 0, 66, 90
2, 133889, Note_on_c, 0, 66, 0
2, 133920, Note_on_c, 0, 66, 90
2, 133979, Note_on_c, 0, 66, 0
2, 133980, Note_on_c, 0, 65, 90
2, 134039, Note_on_c, 0, 65, 0
2, 134040, Note_on_c, 0, 73, 90
2, 134099, Note_on_c, 0, 73, 0
2, 134100, Note_on_c, 0, 74, 90
2, 134159, Note_on_c, 0, 74, 0
2, 134160, Note_on_c, 0, 65, 90
2, 134189, Note_on_c, 0, 65, 0
2, 134190, Note_on_c, 0, 66, 90
2, 134219, Note_on_c, 0, 66, 0
2, 134220, Note_on_c, 0, 68, 90
2, 134249, Note_on_c, 0, 68, 0
2, 134250, Note_on_c, 0, 69, 90
2, 134279, Note_on_c, 0, 69, 0
2, 134280, Note_on_c, 0, 71, 90
2, 134309, Note_on_c, 0, 71, 0
2, 134310, Note_on_c, 0, 68, 90
2, 134339, Note_on_c, 0, 68, 0
2, 134340, Note_on_c, 0, 69, 90
2, 134369, Note_on_c, 0, 69, 0
2, 134370, Note_on_c, 0, 66, 90
2, 134399, Note_on_c, 0, 66, 0
2, 134400, Note_on_c, 0, 68, 90
2, 134429, Note_on_c, 0, 68, 0
2, 134430, Note_on_c, 0, 66, 90
2, 134459, Note_on_c, 0, 66, 0
2, 134460, Note_on_c, 0, 65, 90
2, 134489, Note_on_c, 0, 65, 0
2, 134490, Note_on_c, 0, 63, 90
2, 134519, Note_on_c, 0, 63, 0
2, 134520, Note_on_c, 0, 61, 90
2, 134579, Note_on_c, 0, 61, 0
2, 134580, Note_on_c, 0, 68, 90
2, 134639, Note_on_c, 0, 68, 0
2, 134640, Note_on_c, 0, 69, 90
2, 134669, Note_on_c, 0, 69, 0
2, 134670, Note_on_c, 0, 68, 90
2, 134699, Note_on_c, 0, 68, 0
2, 134700, Note_on_c, 0, 66, 90
2, 134729, Note_on_c, 0, 66, 0
2, 134730, Note_on_c, 0, 68, 90
2, 134759, Note_on_c, 0, 68, 0
2, 134760, Note_on_c, 0, 69, 90
2, 134789, Note_on_c, 0, 69, 0
2, 134790, Note_on_c, 0, 73, 90
2, 134819, Note_on_c, 0, 73, 0
2, 134820, Note_on_c, 0, 71, 90
2, 134849, Note_on_c, 0, 71, 0
2, 134850, Note_on_c, 0, 69, 90
2, 134879, Note_on_c, 0, 69, 0
2, 134880, Note_on_c, 0, 71, 90
2, 134909, Note_on_c, 0, 71, 0
2, 134910, Note_on_c, 0, 69, 90
2, 134939, Note_on_c, 0, 69, 0
2, 134940, Note_on_c, 0, 68, 90
2, 134969, Note_on_c, 0, 68, 0
2, 134970, Note_on_c, 0, 66, 90
2, 134999, Note_on_c, 0, 66, 0
2, 135000, Note_on_c, 0, 64, 90
2, 135059, Note_on_c, 0, 64, 0
2, 135060, Note_on_c, 0, 62, 90
2, 135089, Note_on_c, 0, 62, 0
2, 135120, Note_on_c, 0, 61, 90
2, 135149, Note_on_c, 0, 61, 0
2, 135180, Note_on_c, 0, 69, 90
2, 135209, Note_on_c, 0, 69, 0
2, 135240, Note_on_c, 0, 59, 90
2, 135269, Note_on_c, 0, 59, 0
2, 135300, Note_on_c, 0, 68, 90
2, 135329, Note_on_c, 0, 68, 0
2, 135360, Note_on_c, 0, 57, 90
2, 135479, Note_on_c, 0, 57, 0
2, 135510, Note_on_c, 0, 76, 90
2, 135539, Note_on_c, 0, 76, 0
2, 135540, Note_on_c, 0, 73, 90
2, 135569, Note_on_c, 0, 73, 0
2, 135570, Note_on_c, 0, 69, 90
2, 135599, Note_on_c, 0, 69, 0
2, 135600, Note_on_c, 0, 64, 90
2, 135629, Note_on_c, 0, 64, 0
2, 135660, Note_on_c, 0, 64, 90
2, 135689, Note_on_c, 0, 64, 0
2, 135720, Note_on_c, 0, 64, 90
2, 135749, Note_on_c, 0, 64, 0
2, 135780, Note_on_c, 0, 64, 90
2, 135809, Note_on_c, 0, 64, 0
2, 135840, Note_on_c, 0, 64, 90
2, 135989, Note_on_c, 0, 64, 0
2, 135990, Note_on_c, 0, 76, 90
2, 136019, Note_on_c, 0, 76, 0
2, 136020, Note_on_c, 0, 73, 90
2, 136049, Note_on_c, 0, 73, 0
2, 136050, Note_on_c, 0, 70, 90
2, 136079, Note_on_c, 0, 70, 0
2, 136080, Note_on_c, 0, 66, 90
2, 136109, Note_on_c, 0, 66, 0
2, 136140, Note_on_c, 0, 66, 90
2, 136169, Note_on_c, 0, 66, 0
2, 136200, Note_on_c, 0, 66, 90
2, 136214, Note_on_c, 0, 66, 0
2, 136215, Note_on_c, 0, 68, 90
2, 136229, Note_on_c, 0, 68, 0
2, 136230, Note_on_c, 0, 70, 90
2, 136319, Note_on_c, 0, 70, 0
2, 136320, Note_on_c, 0, 70, 90
2, 136334, Note_on_c, 0, 70, 0
2, 136335, Note_on_c, 0, 71, 90
2, 136349, Note_on_c, 0, 71, 0
2, 136350, Note_on_c, 0, 73, 90
2, 136439, Note_on_c, 0, 73, 0
2, 136440, Note_on_c, 0, 73, 90
2, 136454, Note_on_c, 0, 73, 0
2, 136455, Note_on_c, 0, 74, 90
2, 136469, Note_on_c, 0, 74, 0
2, 136470, Note_on_c, 0, 76, 90
2, 136589, Note_on_c, 0, 76, 0
2, 136590, Note_on_c, 0, 79, 90
2, 136619, Note_on_c, 0, 79, 0
2, 136620, Note_on_c, 0, 78, 90
2, 136649, Note_on_c, 0, 78, 0
2, 136650, Note_on_c, 0, 76, 90
2, 136679, Note_on_c, 0, 76, 0
2, 136680, Note_on_c, 0, 78, 90
2, 136709, Note_on_c, 0, 78, 0
2, 136710, Note_on_c, 0, 76, 90
2, 136739, Note_on_c, 0, 76, 0
2, 136740, Note_on_c, 0, 74, 90
2, 136769, Note_on_c, 0, 74, 0
2, 136770, Note_on_c, 0, 73, 90
2, 136799, Note_on_c, 0, 73, 0
2, 136800, Note_on_c, 0, 74, 90
2, 136814, Note_on_c, 0, 74, 0
2, 136815, Note_on_c, 0, 73, 90
2, 136829, Note_on_c, 0, 73, 0
2, 136830, Note_on_c, 0, 71, 90
2, 136949, Note_on_c, 0, 71, 0
2, 136950, Note_on_c, 0, 70, 90
2, 136979, Note_on_c, 0, 70, 0
2, 136980, Note_on_c, 0, 73, 90
2, 137009, Note_on_c, 0, 73, 0
2, 137010, Note_on_c, 0, 76, 90
2, 137039, Note_on_c, 0, 76, 0
2, 137040, Note_on_c, 0, 74, 90
2, 137069, Note_on_c, 0, 74, 0
2, 137070, Note_on_c, 0, 71, 90
2, 137099, Note_on_c, 0, 71, 0
2, 137100, Note_on_c, 0, 74, 90
2, 137129, Note_on_c, 0, 74, 0
2, 137130, Note_on_c, 0, 78, 90
2, 137159, Note_on_c, 0, 78, 0
2, 137160, Note_on_c, 0, 73, 90
2, 137189, Note_on_c, 0, 73, 0
2, 137190, Note_on_c, 0, 70, 90
2, 137219, Note_on_c, 0, 70, 0
2, 137220, Note_on_c, 0, 73, 90
2, 137249, Note_on_c, 0, 73, 0
2, 137250, Note_on_c, 0, 76, 90
2, 137279, Note_on_c, 0, 76, 0
2, 137280, Note_on_c, 0, 74, 90
2, 137294, Note_on_c, 0, 74, 0
2, 137295, Note_on_c, 0, 73, 90
2, 137309, Note_on_c, 0, 73, 0
2, 137310, Note_on_c, 0, 71, 90
2, 137429, Note_on_c, 0, 71, 0
2, 137430, Note_on_c, 0, 66, 90
2, 137459, Note_on_c, 0, 66, 0
2, 137460, Note_on_c, 0, 71, 90
2, 137489, Note_on_c, 0, 71, 0
2, 137490, Note_on_c, 0, 73, 90
2, 137519, Note_on_c, 0, 73, 0
2, 137520, Note_on_c, 0, 74, 90
2, 137549, Note_on_c, 0, 74, 0
2, 137550, Note_on_c, 0, 73, 90
2, 137579, Note_on_c, 0, 73, 0
2, 137580, Note_on_c, 0, 71, 90
2, 137609, Note_on_c, 0, 71, 0
2, 137610, Note_on_c, 0, 69, 90
2, 137639, Note_on_c, 0, 69, 0
2, 137640, Note_on_c, 0, 68, 90
2, 137699, Note_on_c, 0, 68, 0
2, 137700, Note_on_c, 0, 78, 90
2, 137789, Note_on_c, 0, 78, 0
2, 137790, Note_on_c, 0, 77, 90
2, 137819, Note_on_c, 0, 77, 0
2, 137820, Note_on_c, 0, 78, 90
2, 137849, Note_on_c, 0, 78, 0
2, 137850, Note_on_c, 0, 80, 90
2, 137879, Note_on_c, 0, 80, 0
2, 137880, Note_on_c, 0, 71, 90
2, 137909, Note_on_c, 0, 71, 0
2, 137910, Note_on_c, 0, 74, 90
2, 137939, Note_on_c, 0, 74, 0
2, 137940, Note_on_c, 0, 73, 90
2, 137969, Note_on_c, 0, 73, 0
2, 137970, Note_on_c, 0, 71, 90
2, 137999, Note_on_c, 0, 71, 0
2, 138000, Note_on_c, 0, 69, 90
2, 138029, Note_on_c, 0, 69, 0
2, 138030, Note_on_c, 0, 71, 90
2, 138059, Note_on_c, 0, 71, 0
2, 138060, Note_on_c, 0, 73, 90
2, 138089, Note_on_c, 0, 73, 0
2, 138090, Note_on_c, 0, 66, 90
2, 138119, Note_on_c, 0, 66, 0
2, 138120, Note_on_c, 0, 69, 90
2, 138149, Note_on_c, 0, 69, 0
2, 138150, Note_on_c, 0, 68, 90
2, 138179, Note_on_c, 0, 68, 0
2, 138180, Note_on_c, 0, 66, 90
2, 138209, Note_on_c, 0, 66, 0
2, 138210, Note_on_c, 0, 65, 90
2, 138239, Note_on_c, 0, 65, 0
2, 138240, Note_on_c, 0, 66, 90
2, 138479, Note_on_c, 0, 66, 0
2, 198720, Note_on_c, 0, 73, 90
2, 199439, Note_on_c, 0, 73, 0
2, 199440, Note_on_c, 0, 75, 90
2, 199679, Note_on_c, 0, 75, 0
2, 199680, Note_on_c, 0, 76, 90
2, 200520, Note_on_c, 0, 76, 0
2, 200520, Note_on_c, 0, 74, 90
2, 200549, Note_on_c, 0, 74, 0
2, 200550, Note_on_c, 0, 71, 90
2, 200579, Note_on_c, 0, 71, 0
2, 200580, Note_on_c, 0, 73, 90
2, 200639, Note_on_c, 0, 73, 0
2, 200760, Note_on_c, 0, 73, 90
2, 200789, Note_on_c, 0, 73, 0
2, 200790, Note_on_c, 0, 69, 90
2, 200819, Note_on_c, 0, 69, 0
2, 200820, Note_on_c, 0, 71, 90
2, 200879, Note_on_c, 0, 71, 0
2, 200880, Note_on_c, 0, 69, 90
2, 201119, Note_on_c, 0, 69, 0
2, 201240, Note_on_c, 0, 69, 90
2, 201359, Note_on_c, 0, 69, 0
2, 201360, Note_on_c, 0, 71, 90
2, 201479, Note_on_c, 0, 71, 0
2, 201480, Note_on_c, 0, 73, 90
2, 201539, Note_on_c, 0, 73, 0
2, 201540, Note_on_c, 0, 74, 90
2, 201599, Note_on_c, 0, 74, 0
2, 201600, Note_on_c, 0, 76, 90
2, 201719, Note_on_c, 0, 76, 0
2, 201720, Note_on_c, 0, 69, 90
2, 201839, Note_on_c, 0, 69, 0
2, 201840, Note_on_c, 0, 68, 90
2, 201959, Note_on_c, 0, 68, 0
2, 201960, Note_on_c, 0, 66, 90
2, 202079, Note_on_c, 0, 66, 0
2, 202080, Note_on_c, 0, 64, 90
2, 202175, Note_on_c, 0, 64, 0
2, 202200, Note_on_c, 0, 66, 90
2, 202319, Note_on_c, 0, 66, 0
2, 202320, Note_on_c, 0, 68, 90
2, 202439, Note_on_c, 0, 68, 0
2, 202440, Note_on_c, 0, 69, 90
2, 202559, Note_on_c, 0, 69, 0
2, 202560, Note_on_c, 0, 71, 90
2, 202679, Note_on_c, 0, 71, 0
2, 202680, Note_on_c, 0, 73, 90
2, 202739, Note_on_c, 0, 73, 0
2, 202740, Note_on_c, 0, 74, 90
2, 202799, Note_on_c, 0, 74, 0
2, 202800, Note_on_c, 0, 71, 90
2, 202919, Note_on_c, 0, 71, 0
2, 202920, Note_on_c, 0, 69, 90
2, 203135, Note_on_c, 0, 69, 0
2, 203160, Note_on_c, 0, 69, 90
2, 203279, Note_on_c, 0, 69, 0
2, 203280, Note_on_c, 0, 71, 90
2, 203399, Note_on_c, 0, 71, 0
2, 203400, Note_on_c, 0, 73, 90
2, 203459, Note_on_c, 0, 73, 0
2, 203460, Note_on_c, 0, 74, 90
2, 203519, Note_on_c, 0, 74, 0
2, 203520, Note_on_c, 0, 76, 90
2, 203639, Note_on_c, 0, 76, 0
2, 203640, Note_on_c, 0, 69, 90
2, 203759, Note_on_c, 0, 69, 0
2, 203760, Note_on_c, 0, 68, 90
2, 203879, Note_on_c, 0, 68, 0
2, 203880, Note_on_c, 0, 66, 90
2, 203999, Note_on_c, 0, 66, 0
2, 204000, Note_on_c, 0, 64, 90
2, 204095, Note_on_c, 0, 64, 0
2, 204120, Note_on_c, 0, 66, 90
2, 204239, Note_on_c, 0, 66, 0
2, 204240, Note_on_c, 0, 68, 90
2, 204359, Note_on_c, 0, 68, 0
2, 204360, Note_on_c, 0, 69, 90
2, 204479, Note_on_c, 0, 69, 0
2, 204480, Note_on_c, 0, 71, 90
2, 204599, Note_on_c, 0, 71, 0
2, 204600, Note_on_c, 0, 73, 90
2, 204659, Note_on_c, 0, 73, 0
2, 204660, Note_on_c, 0, 74, 90
2, 204719, Note_on_c, 0, 74, 0
2, 204720, Note_on_c, 0, 71, 90
2, 204839, Note_on_c, 0, 71, 0
2, 204840, Note_on_c, 0, 69, 90
2, 205055, Note_on_c, 0, 69, 0
2, 205080, Note_on_c, 0, 73, 90
2, 205199, Note_on_c, 0, 73, 0
2, 205200, Note_on_c, 0, 73, 90
2, 205319, Note_on_c, 0, 73, 0
2, 205320, Note_on_c, 0, 71, 90
2, 205439, Note_on_c, 0, 71, 0
2, 205440, Note_on_c, 0, 73, 90
2, 205559, Note_on_c, 0, 73, 0
2, 205560, Note_on_c, 0, 74, 90
2, 205679, Note_on_c, 0, 74, 0
2, 205680, Note_on_c, 0, 73, 90
2, 205739, Note_on_c, 0, 73, 0
2, 205740, Note_on_c, 0, 71, 90
2, 205799, Note_on_c, 0, 71, 0
2, 205800, Note_on_c, 0, 71, 90
2, 205859, Note_on_c, 0, 71, 0
2, 205860, Note_on_c, 0, 69, 90
2, 205919, Note_on_c, 0, 69, 0
2, 205920, Note_on_c, 0, 71, 90
2, 206015, Note_on_c, 0, 71, 0
2, 206040, Note_on_c, 0, 66, 90
2, 206159, Note_on_c, 0, 66, 0
2, 206160, Note_on_c, 0, 68, 90
2, 206279, Note_on_c, 0, 68, 0
2, 206280, Note_on_c, 0, 69, 90
2, 206399, Note_on_c, 0, 69, 0
2, 206400, Note_on_c, 0, 71, 90
2, 206519, Note_on_c, 0, 71, 0
2, 206520, Note_on_c, 0, 73, 90
2, 206579, Note_on_c, 0, 73, 0
2, 206580, Note_on_c, 0, 74, 90
2, 206639, Note_on_c, 0, 74, 0
2, 206640, Note_on_c, 0, 71, 90
2, 206759, Note_on_c, 0, 71, 0
2, 206760, Note_on_c, 0, 69, 90
2, 206819, Note_on_c, 0, 69, 0
2, 206820, Note_on_c, 0, 68, 90
2, 206879, Note_on_c, 0, 68, 0
2, 206880, Note_on_c, 0, 69, 90
2, 206999, Note_on_c, 0, 69, 0
2, 206999, End_track
3, 0, Start_track
3, 0, MIDI_port, 0
3, 0, Title_t, "Oboe d'amore II"
3, 0, Program_c, 1, 68
3, 0, Control_c, 1, 7, 127
3, 0, Control_c, 1, 10, 89
3, 60, Note_on_c, 1, 57, 90
3, 89, Note_on_c, 1, 57, 0
3, 90, Note_on_c, 1, 59, 90
3, 119, Note_on_c, 1, 59, 0
3, 120, Note_on_c, 1, 61, 90
3, 179, Note_on_c, 1, 61, 0
3, 180, Note_on_c, 1, 61, 90
3, 239, Note_on_c, 1, 61, 0
3, 240, Note_on_c, 1, 62, 90
3, 269, Note_on_c, 1, 62, 0
3, 270, Note_on_c, 1, 61, 90
3, 299, Note_on_c, 1, 61, 0
3, 300, Note_on_c, 1, 59, 90
3, 329, Note_on_c, 1, 59, 0
3, 330, Note_on_c, 1, 62, 90
3, 359, Note_on_c, 1, 62, 0
3, 360, Note_on_c, 1, 61, 90
3, 419, Note_on_c, 1, 61, 0
3, 480, Note_on_c, 1, 64, 90
3, 509, Note_on_c, 1, 64, 0
3, 600, Note_on_c, 1, 68, 90
3, 629, Note_on_c, 1, 68, 0
3, 720, Note_on_c, 1, 69, 90
3, 779, Note_on_c, 1, 69, 0
3, 780, Note_on_c, 1, 61, 90
3, 809, Note_on_c, 1, 61, 0
3, 810, Note_on_c, 1, 62, 90
3, 839, Note_on_c, 1, 62, 0
3, 840, Note_on_c, 1, 64, 90
3, 869, Note_on_c, 1, 64, 0
3, 870, Note_on_c, 1, 66, 90
3, 899, Note_on_c, 1, 66, 0
3, 900, Note_on_c, 1, 62, 90
3, 929, Note_on_c, 1, 62, 0
3, 930, Note_on_c, 1, 64, 90
3, 959, Note_on_c, 1, 64, 0
3, 960, Note_on_c, 1, 66, 90
3, 989, Note_on_c, 1, 66, 0
3, 990, Note_on_c, 1, 64, 90
3, 1019, Note_on_c, 1, 64, 0
3, 1020, Note_on_c, 1, 62, 90
3, 1049, Note_on_c, 1, 62, 0
3, 1050, Note_on_c, 1, 66, 90
3, 1079, Note_on_c, 1, 66, 0
3, 1080, Note_on_c, 1, 64, 90
3, 1139, Note_on_c, 1, 64, 0
3, 1200, Note_on_c, 1, 69, 90
3, 1229, Note_on_c, 1, 69, 0
3, 1320, Note_on_c, 1, 71, 90
3, 1349, Note_on_c, 1, 71, 0
3, 1440, Note_on_c, 1, 73, 90
3, 1499, Note_on_c, 1, 73, 0
3, 1500, Note_on_c, 1, 61, 90
3, 1619, Note_on_c, 1, 61, 0
3, 1620, Note_on_c, 1, 64, 90
3, 1739, Note_on_c, 1, 64, 0
3, 1740, Note_on_c, 1, 67, 90
3, 1799, Note_on_c, 1, 67, 0
3, 1800, Note_on_c, 1, 66, 100
3, 2220, Note_on_c, 1, 66, 0
3, 2220, Note_on_c, 1, 63, 90
3, 2339, Note_on_c, 1, 63, 0
3, 2340, Note_on_c, 1, 66, 90
3, 2459, Note_on_c, 1, 66, 0
3, 2460, Note_on_c, 1, 69, 90
3, 2519, Note_on_c, 1, 69, 0
3, 2520, Note_on_c, 1, 68, 100
3, 2940, Note_on_c, 1, 68, 0
3, 2940, Note_on_c, 1, 71, 90
3, 3059, Note_on_c, 1, 71, 0
3, 3060, Note_on_c, 1, 76, 90
3, 3179, Note_on_c, 1, 76, 0
3, 3180, Note_on_c, 1, 80, 90
3, 3239, Note_on_c, 1, 80, 0
3, 3240, Note_on_c, 1, 81, 90
3, 3299, Note_on_c, 1, 81, 0
3, 3300, Note_on_c, 1, 73, 90
3, 3419, Note_on_c, 1, 73, 0
3, 3420, Note_on_c, 1, 76, 90
3, 3539, Note_on_c, 1, 76, 0
3, 3540, Note_on_c, 1, 74, 90
3, 3569, Note_on_c, 1, 74, 0
3, 3570, Note_on_c, 1, 73, 90
3, 3599, Note_on_c, 1, 73, 0
3, 3600, Note_on_c, 1, 74, 90
3, 3659, Note_on_c, 1, 74, 0
3, 3660, Note_on_c, 1, 69, 90
3, 3779, Note_on_c, 1, 69, 0
3, 3780, Note_on_c, 1, 74, 90
3, 3899, Note_on_c, 1, 74, 0
3, 3900, Note_on_c, 1, 73, 90
3, 3929, Note_on_c, 1, 73, 0
3, 3930, Note_on_c, 1, 71, 90
3, 3959, Note_on_c, 1, 71, 0
3, 3960, Note_on_c, 1, 73, 90
3, 4019, Note_on_c, 1, 73, 0
3, 4020, Note_on_c, 1, 69, 90
3, 4139, Note_on_c, 1, 69, 0
3, 4140, Note_on_c, 1, 73, 90
3, 4259, Note_on_c, 1, 73, 0
3, 4260, Note_on_c, 1, 71, 90
3, 4289, Note_on_c, 1, 71, 0
3, 4290, Note_on_c, 1, 69, 90
3, 4319, Note_on_c, 1, 69, 0
3, 4320, Note_on_c, 1, 71, 90
3, 4379, Note_on_c, 1, 71, 0
3, 4380, Note_on_c, 1, 68, 90
3, 4499, Note_on_c, 1, 68, 0
3, 4500, Note_on_c, 1, 71, 90
3, 4619, Note_on_c, 1, 71, 0
3, 4620, Note_on_c, 1, 69, 90
3, 4649, Note_on_c, 1, 69, 0
3, 4650, Note_on_c, 1, 68, 90
3, 4679, Note_on_c, 1, 68, 0
3, 4680, Note_on_c, 1, 69, 100
3, 5100, Note_on_c, 1, 69, 0
3, 5100, Note_on_c, 1, 71, 100
3, 5160, Note_on_c, 1, 71, 0
3, 5160, Note_on_c, 1, 64, 100
3, 5460, Note_on_c, 1, 64, 0
3, 5460, Note_on_c, 1, 68, 100
3, 5520, Note_on_c, 1, 68, 0
3, 5520, Note_on_c, 1, 69, 100
3, 5580, Note_on_c, 1, 69, 0
3, 5580, Note_on_c, 1, 69, 100
3, 5640, Note_on_c, 1, 69, 0
3, 5640, Note_on_c, 1, 69, 100
3, 5700, Note_on_c, 1, 69, 0
3, 5700, Note_on_c, 1, 68, 100
3, 5760, Note_on_c, 1, 68, 0
3, 5760, Note_on_c, 1, 69, 100
3, 5880, Note_on_c, 1, 69, 0
3, 6540, Note_on_c, 1, 57, 90
3, 6569, Note_on_c, 1, 57, 0
3, 6570, Note_on_c, 1, 59, 90
3, 6599, Note_on_c, 1, 59, 0
3, 6600, Note_on_c, 1, 61, 90
3, 6659, Note_on_c, 1, 61, 0
3, 6660, Note_on_c, 1, 61, 90
3, 6719, Note_on_c, 1, 61, 0
3, 6720, Note_on_c, 1, 62, 90
3, 6749, Note_on_c, 1, 62, 0
3, 6750, Note_on_c, 1, 61, 90
3, 6779, Note_on_c, 1, 61, 0
3, 6780, Note_on_c, 1, 59, 90
3, 6809, Note_on_c, 1, 59, 0
3, 6810, Note_on_c, 1, 62, 90
3, 6839, Note_on_c, 1, 62, 0
3, 6840, Note_on_c, 1, 61, 90
3, 6899, Note_on_c, 1, 61, 0
3, 6960, Note_on_c, 1, 64, 90
3, 6989, Note_on_c, 1, 64, 0
3, 7080, Note_on_c, 1, 68, 90
3, 7109, Note_on_c, 1, 68, 0
3, 7200, Note_on_c, 1, 69, 90
3, 7259, Note_on_c, 1, 69, 0
3, 7260, Note_on_c, 1, 61, 90
3, 7289, Note_on_c, 1, 61, 0
3, 7290, Note_on_c, 1, 62, 90
3, 7319, Note_on_c, 1, 62, 0
3, 7320, Note_on_c, 1, 64, 90
3, 7349, Note_on_c, 1, 64, 0
3, 7350, Note_on_c, 1, 66, 90
3, 7379, Note_on_c, 1, 66, 0
3, 7380, Note_on_c, 1, 62, 90
3, 7409, Note_on_c, 1, 62, 0
3, 7410, Note_on_c, 1, 64, 90
3, 7439, Note_on_c, 1, 64, 0
3, 7440, Note_on_c, 1, 66, 90
3, 7469, Note_on_c, 1, 66, 0
3, 7470, Note_on_c, 1, 64, 90
3, 7499, Note_on_c, 1, 64, 0
3, 7500, Note_on_c, 1, 62, 90
3, 7529, Note_on_c, 1, 62, 0
3, 7530, Note_on_c, 1, 61, 90
3, 7559, Note_on_c, 1, 61, 0
3, 7560, Note_on_c, 1, 59, 90
3, 7619, Note_on_c, 1, 59, 0
3, 8340, Note_on_c, 1, 68, 90
3, 8369, Note_on_c, 1, 68, 0
3, 8370, Note_on_c, 1, 69, 90
3, 8399, Note_on_c, 1, 69, 0
3, 8400, Note_on_c, 1, 71, 90
3, 8459, Note_on_c, 1, 71, 0
3, 8460, Note_on_c, 1, 71, 90
3, 8519, Note_on_c, 1, 71, 0
3, 8520, Note_on_c, 1, 73, 90
3, 8549, Note_on_c, 1, 73, 0
3, 8550, Note_on_c, 1, 71, 90
3, 8579, Note_on_c, 1, 71, 0
3, 8580, Note_on_c, 1, 69, 90
3, 8609, Note_on_c, 1, 69, 0
3, 8610, Note_on_c, 1, 73, 90
3, 8639, Note_on_c, 1, 73, 0
3, 8640, Note_on_c, 1, 71, 90
3, 8699, Note_on_c, 1, 71, 0
3, 8760, Note_on_c, 1, 64, 90
3, 8789, Note_on_c, 1, 64, 0
3, 8880, Note_on_c, 1, 66, 90
3, 8909, Note_on_c, 1, 66, 0
3, 9000, Note_on_c, 1, 68, 90
3, 9059, Note_on_c, 1, 68, 0
3, 9060, Note_on_c, 1, 68, 90
3, 9089, Note_on_c, 1, 68, 0
3, 9090, Note_on_c, 1, 69, 90
3, 9119, Note_on_c, 1, 69, 0
3, 9120, Note_on_c, 1, 71, 90
3, 9149, Note_on_c, 1, 71, 0
3, 9150, Note_on_c, 1, 73, 90
3, 9179, Note_on_c, 1, 73, 0
3, 9180, Note_on_c, 1, 69, 90
3, 9209, Note_on_c, 1, 69, 0
3, 9210, Note_on_c, 1, 71, 90
3, 9239, Note_on_c, 1, 71, 0
3, 9240, Note_on_c, 1, 73, 90
3, 9269, Note_on_c, 1, 73, 0
3, 9270, Note_on_c, 1, 71, 90
3, 9299, Note_on_c, 1, 71, 0
3, 9300, Note_on_c, 1, 69, 90
3, 9329, Note_on_c, 1, 69, 0
3, 9330, Note_on_c, 1, 68, 90
3, 9359, Note_on_c, 1, 68, 0
3, 9360, Note_on_c, 1, 66, 90
3, 9419, Note_on_c, 1, 66, 0
3, 10140, Note_on_c, 1, 59, 90
3, 10169, Note_on_c, 1, 59, 0
3, 10170, Note_on_c, 1, 61, 90
3, 10199, Note_on_c, 1, 61, 0
3, 10200, Note_on_c, 1, 62, 90
3, 10229, Note_on_c, 1, 62, 0
3, 10230, Note_on_c, 1, 64, 90
3, 10259, Note_on_c, 1, 64, 0
3, 10260, Note_on_c, 1, 61, 90
3, 10289, Note_on_c, 1, 61, 0
3, 10290, Note_on_c, 1, 62, 90
3, 10319, Note_on_c, 1, 62, 0
3, 10320, Note_on_c, 1, 64, 90
3, 10349, Note_on_c, 1, 64, 0
3, 10350, Note_on_c, 1, 62, 90
3, 10379, Note_on_c, 1, 62, 0
3, 10380, Note_on_c, 1, 61, 90
3, 10409, Note_on_c, 1, 61, 0
3, 10410, Note_on_c, 1, 59, 90
3, 10439, Note_on_c, 1, 59, 0
3, 10440, Note_on_c, 1, 61, 90
3, 10499, Note_on_c, 1, 61, 0
3, 10560, Note_on_c, 1, 69, 90
3, 10589, Note_on_c, 1, 69, 0
3, 10680, Note_on_c, 1, 71, 90
3, 10709, Note_on_c, 1, 71, 0
3, 10800, Note_on_c, 1, 69, 90
3, 10829, Note_on_c, 1, 69, 0
3, 13860, Note_on_c, 1, 71, 90
3, 13979, Note_on_c, 1, 71, 0
3, 13980, Note_on_c, 1, 68, 90
3, 14039, Note_on_c, 1, 68, 0
3, 14040, Note_on_c, 1, 64, 90
3, 14099, Note_on_c, 1, 64, 0
3, 14100, Note_on_c, 1, 66, 90
3, 14129, Note_on_c, 1, 66, 0
3, 14130, Note_on_c, 1, 68, 90
3, 14159, Note_on_c, 1, 68, 0
3, 14160, Note_on_c, 1, 69, 90
3, 14189, Note_on_c, 1, 69, 0
3, 14190, Note_on_c, 1, 71, 90
3, 14219, Note_on_c, 1, 71, 0
3, 14220, Note_on_c, 1, 73, 90
3, 14249, Note_on_c, 1, 73, 0
3, 14280, Note_on_c, 1, 71, 90
3, 14339, Note_on_c, 1, 71, 0
3, 14340, Note_on_c, 1, 69, 90
3, 14369, Note_on_c, 1, 69, 0
3, 14370, Note_on_c, 1, 68, 90
3, 14399, Note_on_c, 1, 68, 0
3, 14400, Note_on_c, 1, 66, 90
3, 14459, Note_on_c, 1, 66, 0
3, 14460, Note_on_c, 1, 63, 90
3, 14489, Note_on_c, 1, 63, 0
3, 14490, Note_on_c, 1, 64, 90
3, 14519, Note_on_c, 1, 64, 0
3, 14520, Note_on_c, 1, 66, 90
3, 14549, Note_on_c, 1, 66, 0
3, 14550, Note_on_c, 1, 68, 90
3, 14579, Note_on_c, 1, 68, 0
3, 14580, Note_on_c, 1, 69, 90
3, 14609, Note_on_c, 1, 69, 0
3, 14640, Note_on_c, 1, 69, 90
3, 14819, Note_on_c, 1, 69, 0
3, 14820, Note_on_c, 1, 68, 90
3, 14939, Note_on_c, 1, 68, 0
3, 14940, Note_on_c, 1, 71, 90
3, 15059, Note_on_c, 1, 71, 0
3, 15060, Note_on_c, 1, 74, 90
3, 15119, Note_on_c, 1, 74, 0
3, 15120, Note_on_c, 1, 73, 90
3, 15540, Note_on_c, 1, 73, 0
3, 15540, Note_on_c, 1, 70, 90
3, 15660, Note_on_c, 1, 70, 0
3, 15660, Note_on_c, 1, 73, 90
3, 15780, Note_on_c, 1, 73, 0
3, 15780, Note_on_c, 1, 76, 90
3, 15840, Note_on_c, 1, 76, 0
3, 15840, Note_on_c, 1, 75, 90
3, 16260, Note_on_c, 1, 75, 0
3, 16260, Note_on_c, 1, 66, 90
3, 16380, Note_on_c, 1, 66, 0
3, 16380, Note_on_c, 1, 71, 90
3, 16500, Note_on_c, 1, 71, 0
3, 16500, Note_on_c, 1, 75, 90
3, 16560, Note_on_c, 1, 75, 0
3, 16560, Note_on_c, 1, 76, 90
3, 16619, Note_on_c, 1, 76, 0
3, 16620, Note_on_c, 1, 71, 90
3, 16739, Note_on_c, 1, 71, 0
3, 16740, Note_on_c, 1, 74, 90
3, 16859, Note_on_c, 1, 74, 0
3, 16860, Note_on_c, 1, 73, 90
3, 16889, Note_on_c, 1, 73, 0
3, 16890, Note_on_c, 1, 71, 90
3, 16919, Note_on_c, 1, 71, 0
3, 16920, Note_on_c, 1, 73, 90
3, 16979, Note_on_c, 1, 73, 0
3, 16980, Note_on_c, 1, 69, 90
3, 17099, Note_on_c, 1, 69, 0
3, 17100, Note_on_c, 1, 73, 90
3, 17219, Note_on_c, 1, 73, 0
3, 17220, Note_on_c, 1, 71, 90
3, 17249, Note_on_c, 1, 71, 0
3, 17250, Note_on_c, 1, 69, 90
3, 17279, Note_on_c, 1, 69, 0
3, 17280, Note_on_c, 1, 71, 90
3, 17339, Note_on_c, 1, 71, 0
3, 17340, Note_on_c, 1, 68, 90
3, 17459, Note_on_c, 1, 68, 0
3, 17460, Note_on_c, 1, 71, 90
3, 17579, Note_on_c, 1, 71, 0
3, 17580, Note_on_c, 1, 69, 90
3, 17609, Note_on_c, 1, 69, 0
3, 17610, Note_on_c, 1, 68, 90
3, 17639, Note_on_c, 1, 68, 0
3, 17640, Note_on_c, 1, 69, 90
3, 17699, Note_on_c, 1, 69, 0
3, 17700, Note_on_c, 1, 66, 90
3, 17819, Note_on_c, 1, 66, 0
3, 17820, Note_on_c, 1, 69, 90
3, 17939, Note_on_c, 1, 69, 0
3, 17940, Note_on_c, 1, 68, 90
3, 17969, Note_on_c, 1, 68, 0
3, 17970, Note_on_c, 1, 66, 90
3, 17999, Note_on_c, 1, 66, 0
3, 18000, Note_on_c, 1, 68, 90
3, 18029, Note_on_c, 1, 68, 0
3, 18060, Note_on_c, 1, 64, 90
3, 18089, Note_on_c, 1, 64, 0
3, 18120, Note_on_c, 1, 69, 90
3, 18149, Note_on_c, 1, 69, 0
3, 18180, Note_on_c, 1, 64, 90
3, 18209, Note_on_c, 1, 64, 0
3, 18240, Note_on_c, 1, 71, 90
3, 18269, Note_on_c, 1, 71, 0
3, 18300, Note_on_c, 1, 64, 90
3, 18329, Note_on_c, 1, 64, 0
3, 18360, Note_on_c, 1, 73, 90
3, 18389, Note_on_c, 1, 73, 0
3, 18420, Note_on_c, 1, 69, 90
3, 18449, Note_on_c, 1, 69, 0
3, 18480, Note_on_c, 1, 75, 90
3, 18509, Note_on_c, 1, 75, 0
3, 18540, Note_on_c, 1, 69, 90
3, 18569, Note_on_c, 1, 69, 0
3, 18600, Note_on_c, 1, 76, 90
3, 18629, Note_on_c, 1, 76, 0
3, 18660, Note_on_c, 1, 69, 90
3, 18689, Note_on_c, 1, 69, 0
3, 18720, Note_on_c, 1, 78, 90
3, 18749, Note_on_c, 1, 78, 0
3, 18780, Note_on_c, 1, 69, 90
3, 18839, Note_on_c, 1, 69, 0
3, 18840, Note_on_c, 1, 68, 90
3, 18899, Note_on_c, 1, 68, 0
3, 18900, Note_on_c, 1, 71, 90
3, 18959, Note_on_c, 1, 71, 0
3, 18960, Note_on_c, 1, 68, 90
3, 19019, Note_on_c, 1, 68, 0
3, 19020, Note_on_c, 1, 66, 90
3, 19049, Note_on_c, 1, 66, 0
3, 19050, Note_on_c, 1, 64, 90
3, 19079, Note_on_c, 1, 64, 0
3, 19080, Note_on_c, 1, 64, 90
3, 19139, Note_on_c, 1, 64, 0
3, 19140, Note_on_c, 1, 64, 90
3, 19169, Note_on_c, 1, 64, 0
3, 19170, Note_on_c, 1, 66, 90
3, 19199, Note_on_c, 1, 66, 0
3, 19200, Note_on_c, 1, 68, 90
3, 19259, Note_on_c, 1, 68, 0
3, 19260, Note_on_c, 1, 68, 90
3, 19319, Note_on_c, 1, 68, 0
3, 19320, Note_on_c, 1, 69, 90
3, 19349, Note_on_c, 1, 69, 0
3, 19350, Note_on_c, 1, 68, 90
3, 19379, Note_on_c, 1, 68, 0
3, 19380, Note_on_c, 1, 66, 90
3, 19409, Note_on_c, 1, 66, 0
3, 19410, Note_on_c, 1, 69, 90
3, 19439, Note_on_c, 1, 69, 0
3, 19440, Note_on_c, 1, 68, 90
3, 19499, Note_on_c, 1, 68, 0
3, 19560, Note_on_c, 1, 71, 90
3, 19589, Note_on_c, 1, 71, 0
3, 19680, Note_on_c, 1, 75, 90
3, 19709, Note_on_c, 1, 75, 0
3, 19800, Note_on_c, 1, 76, 90
3, 19859, Note_on_c, 1, 76, 0
3, 19860, Note_on_c, 1, 68, 90
3, 19889, Note_on_c, 1, 68, 0
3, 19890, Note_on_c, 1, 69, 90
3, 19919, Note_on_c, 1, 69, 0
3, 19920, Note_on_c, 1, 71, 90
3, 19949, Note_on_c, 1, 71, 0
3, 19950, Note_on_c, 1, 73, 90
3, 19979, Note_on_c, 1, 73, 0
3, 19980, Note_on_c, 1, 69, 90
3, 20009, Note_on_c, 1, 69, 0
3, 20010, Note_on_c, 1, 71, 90
3, 20039, Note_on_c, 1, 71, 0
3, 20040, Note_on_c, 1, 73, 90
3, 20069, Note_on_c, 1, 73, 0
3, 20070, Note_on_c, 1, 71, 90
3, 20099, Note_on_c, 1, 71, 0
3, 20100, Note_on_c, 1, 69, 90
3, 20129, Note_on_c, 1, 69, 0
3, 20130, Note_on_c, 1, 73, 90
3, 20159, Note_on_c, 1, 73, 0
3, 20160, Note_on_c, 1, 71, 90
3, 20219, Note_on_c, 1, 71, 0
3, 20280, Note_on_c, 1, 76, 90
3, 20309, Note_on_c, 1, 76, 0
3, 20400, Note_on_c, 1, 78, 90
3, 20429, Note_on_c, 1, 78, 0
3, 20520, Note_on_c, 1, 80, 90
3, 20549, Note_on_c, 1, 80, 0
3, 21660, Note_on_c, 1, 69, 100
3, 21690, Note_on_c, 1, 69, 0
3, 21690, Note_on_c, 1, 71, 100
3, 21720, Note_on_c, 1, 71, 0
3, 21720, Note_on_c, 1, 73, 100
3, 21780, Note_on_c, 1, 73, 0
3, 21780, Note_on_c, 1, 73, 100
3, 21840, Note_on_c, 1, 73, 0
3, 21840, Note_on_c, 1, 74, 100
3, 21870, Note_on_c, 1, 74, 0
3, 21870, Note_on_c, 1, 73, 100
3, 21900, Note_on_c, 1, 73, 0
3, 21900, Note_on_c, 1, 71, 100
3, 21930, Note_on_c, 1, 71, 0
3, 21930, Note_on_c, 1, 74, 100
3, 21960, Note_on_c, 1, 74, 0
3, 21960, Note_on_c, 1, 73, 100
3, 22020, Note_on_c, 1, 73, 0
3, 22080, Note_on_c, 1, 64, 100
3, 22110, Note_on_c, 1, 64, 0
3, 22200, Note_on_c, 1, 68, 100
3, 22230, Note_on_c, 1, 68, 0
3, 22320, Note_on_c, 1, 69, 100
3, 22380, Note_on_c, 1, 69, 0
3, 22380, Note_on_c, 1, 61, 100
3, 22410, Note_on_c, 1, 61, 0
3, 22410, Note_on_c, 1, 62, 100
3, 22440, Note_on_c, 1, 62, 0
3, 22440, Note_on_c, 1, 64, 100
3, 22470, Note_on_c, 1, 64, 0
3, 22470, Note_on_c, 1, 66, 100
3, 22500, Note_on_c, 1, 66, 0
3, 22500, Note_on_c, 1, 62, 100
3, 22530, Note_on_c, 1, 62, 0
3, 22530, Note_on_c, 1, 64, 100
3, 22560, Note_on_c, 1, 64, 0
3, 22560, Note_on_c, 1, 66, 100
3, 22590, Note_on_c, 1, 66, 0
3, 22590, Note_on_c, 1, 64, 100
3, 22620, Note_on_c, 1, 64, 0
3, 22620, Note_on_c, 1, 62, 100
3, 22650, Note_on_c, 1, 62, 0
3, 22650, Note_on_c, 1, 66, 100
3, 22680, Note_on_c, 1, 66, 0
3, 22680, Note_on_c, 1, 64, 100
3, 22740, Note_on_c, 1, 64, 0
3, 22800, Note_on_c, 1, 69, 100
3, 22830, Note_on_c, 1, 69, 0
3, 22920, Note_on_c, 1, 71, 100
3, 22950, Note_on_c, 1, 71, 0
3, 23040, Note_on_c, 1, 73, 100
3, 23070, Note_on_c, 1, 73, 0
3, 24300, Note_on_c, 1, 66, 100
3, 24330, Note_on_c, 1, 66, 0
3, 24330, Note_on_c, 1, 67, 100
3, 24360, Note_on_c, 1, 67, 0
3, 24360, Note_on_c, 1, 69, 100
3, 24420, Note_on_c, 1, 69, 0
3, 24660, Note_on_c, 1, 64, 100
3, 24690, Note_on_c, 1, 64, 0
3, 24690, Note_on_c, 1, 66, 100
3, 24720, Note_on_c, 1, 66, 0
3, 24720, Note_on_c, 1, 68, 100
3, 24780, Note_on_c, 1, 68, 0
3, 25020, Note_on_c, 1, 69, 100
3, 25050, Note_on_c, 1, 69, 0
3, 25050, Note_on_c, 1, 71, 100
3, 25080, Note_on_c, 1, 71, 0
3, 25080, Note_on_c, 1, 73, 100
3, 25140, Note_on_c, 1, 73, 0
3, 25380, Note_on_c, 1, 62, 100
3, 25410, Note_on_c, 1, 62, 0
3, 25410, Note_on_c, 1, 64, 100
3, 25440, Note_on_c, 1, 64, 0
3, 25440, Note_on_c, 1, 66, 100
3, 25500, Note_on_c, 1, 66, 0
3, 25680, Note_on_c, 1, 71, 100
3, 26340, Note_on_c, 1, 71, 0
3, 26340, Note_on_c, 1, 69, 90
3, 26369, Note_on_c, 1, 69, 0
3, 26370, Note_on_c, 1, 71, 90
3, 26399, Note_on_c, 1, 71, 0
3, 26400, Note_on_c, 1, 73, 90
3, 26459, Note_on_c, 1, 73, 0
3, 26460, Note_on_c, 1, 68, 90
3, 26519, Note_on_c, 1, 68, 0
3, 26520, Note_on_c, 1, 69, 90
3, 26579, Note_on_c, 1, 69, 0
3, 26580, Note_on_c, 1, 69, 90
3, 26639, Note_on_c, 1, 69, 0
3, 26640, Note_on_c, 1, 69, 90
3, 26699, Note_on_c, 1, 69, 0
3, 26700, Note_on_c, 1, 68, 90
3, 26759, Note_on_c, 1, 68, 0
3, 26760, Note_on_c, 1, 68, 90
3, 26789, Note_on_c, 1, 68, 0
3, 26880, Note_on_c, 1, 71, 90
3, 26909, Note_on_c, 1, 71, 0
3, 27000, Note_on_c, 1, 69, 90
3, 27029, Note_on_c, 1, 69, 0
3, 27120, Note_on_c, 1, 73, 90
3, 27149, Note_on_c, 1, 73, 0
3, 27240, Note_on_c, 1, 69, 90
3, 27269, Note_on_c, 1, 69, 0
3, 27360, Note_on_c, 1, 69, 90
3, 27389, Note_on_c, 1, 69, 0
3, 27480, Note_on_c, 1, 71, 90
3, 27509, Note_on_c, 1, 71, 0
3, 27600, Note_on_c, 1, 64, 90
3, 27629, Note_on_c, 1, 64, 0
3, 27720, Note_on_c, 1, 66, 90
3, 27749, Note_on_c, 1, 66, 0
3, 27840, Note_on_c, 1, 66, 90
3, 27869, Note_on_c, 1, 66, 0
3, 27960, Note_on_c, 1, 64, 90
3, 27989, Note_on_c, 1, 64, 0
3, 28080, Note_on_c, 1, 68, 90
3, 28109, Note_on_c, 1, 68, 0
3, 28200, Note_on_c, 1, 64, 90
3, 28229, Note_on_c, 1, 64, 0
3, 28320, Note_on_c, 1, 64, 90
3, 28349, Note_on_c, 1, 64, 0
3, 28440, Note_on_c, 1, 64, 90
3, 28469, Note_on_c, 1, 64, 0
3, 28560, Note_on_c, 1, 69, 90
3, 28589, Note_on_c, 1, 69, 0
3, 28680, Note_on_c, 1, 69, 90
3, 28709, Note_on_c, 1, 69, 0
3, 28800, Note_on_c, 1, 69, 90
3, 28829, Note_on_c, 1, 69, 0
3, 28980, Note_on_c, 1, 69, 90
3, 29100, Note_on_c, 1, 69, 0
3, 29100, Note_on_c, 1, 66, 90
3, 29159, Note_on_c, 1, 66, 0
3, 29160, Note_on_c, 1, 62, 90
3, 29219, Note_on_c, 1, 62, 0
3, 29220, Note_on_c, 1, 64, 90
3, 29249, Note_on_c, 1, 64, 0
3, 29250, Note_on_c, 1, 66, 90
3, 29279, Note_on_c, 1, 66, 0
3, 29280, Note_on_c, 1, 67, 90
3, 29309, Note_on_c, 1, 67, 0
3, 29310, Note_on_c, 1, 69, 90
3, 29339, Note_on_c, 1, 69, 0
3, 29340, Note_on_c, 1, 71, 90
3, 29369, Note_on_c, 1, 71, 0
3, 29400, Note_on_c, 1, 69, 90
3, 29459, Note_on_c, 1, 69, 0
3, 29460, Note_on_c, 1, 67, 90
3, 29489, Note_on_c, 1, 67, 0
3, 29490, Note_on_c, 1, 66, 90
3, 29519, Note_on_c, 1, 66, 0
3, 29520, Note_on_c, 1, 64, 90
3, 29579, Note_on_c, 1, 64, 0
3, 29580, Note_on_c, 1, 61, 90
3, 29609, Note_on_c, 1, 61, 0
3, 29610, Note_on_c, 1, 62, 90
3, 29639, Note_on_c, 1, 62, 0
3, 29640, Note_on_c, 1, 64, 90
3, 29669, Note_on_c, 1, 64, 0
3, 29670, Note_on_c, 1, 66, 90
3, 29699, Note_on_c, 1, 66, 0
3, 29700, Note_on_c, 1, 67, 90
3, 29729, Note_on_c, 1, 67, 0
3, 29760, Note_on_c, 1, 67, 90
3, 29939, Note_on_c, 1, 67, 0
3, 29940, Note_on_c, 1, 66, 90
3, 29969, Note_on_c, 1, 66, 0
3, 29970, Note_on_c, 1, 64, 90
3, 29999, Note_on_c, 1, 64, 0
3, 30000, Note_on_c, 1, 66, 90
3, 30029, Note_on_c, 1, 66, 0
3, 30030, Note_on_c, 1, 68, 90
3, 30059, Note_on_c, 1, 68, 0
3, 30060, Note_on_c, 1, 69, 90
3, 30089, Note_on_c, 1, 69, 0
3, 30120, Note_on_c, 1, 71, 90
3, 30179, Note_on_c, 1, 71, 0
3, 30180, Note_on_c, 1, 69, 90
3, 30239, Note_on_c, 1, 69, 0
3, 30240, Note_on_c, 1, 68, 90
3, 30269, Note_on_c, 1, 68, 0
3, 30270, Note_on_c, 1, 69, 90
3, 30299, Note_on_c, 1, 69, 0
3, 30300, Note_on_c, 1, 71, 90
3, 30419, Note_on_c, 1, 71, 0
3, 30420, Note_on_c, 1, 68, 90
3, 30479, Note_on_c, 1, 68, 0
3, 30480, Note_on_c, 1, 64, 90
3, 30539, Note_on_c, 1, 64, 0
3, 30540, Note_on_c, 1, 68, 90
3, 30599, Note_on_c, 1, 68, 0
3, 30600, Note_on_c, 1, 69, 90
3, 31019, Note_on_c, 1, 69, 0
3, 31020, Note_on_c, 1, 69, 90
3, 31139, Note_on_c, 1, 69, 0
3, 31140, Note_on_c, 1, 74, 90
3, 31259, Note_on_c, 1, 74, 0
3, 31260, Note_on_c, 1, 78, 90
3, 31319, Note_on_c, 1, 78, 0
3, 31320, Note_on_c, 1, 71, 90
3, 31739, Note_on_c, 1, 71, 0
3, 31740, Note_on_c, 1, 68, 90
3, 31859, Note_on_c, 1, 68, 0
3, 31860, Note_on_c, 1, 71, 90
3, 31979, Note_on_c, 1, 71, 0
3, 31980, Note_on_c, 1, 74, 90
3, 32039, Note_on_c, 1, 74, 0
3, 32040, Note_on_c, 1, 64, 90
3, 32459, Note_on_c, 1, 64, 0
3, 32460, Note_on_c, 1, 73, 90
3, 32579, Note_on_c, 1, 73, 0
3, 32580, Note_on_c, 1, 76, 90
3, 32699, Note_on_c, 1, 76, 0
3, 32700, Note_on_c, 1, 74, 90
3, 32729, Note_on_c, 1, 74, 0
3, 32730, Note_on_c, 1, 73, 90
3, 32759, Note_on_c, 1, 73, 0
3, 32760, Note_on_c, 1, 74, 90
3, 32819, Note_on_c, 1, 74, 0
3, 32820, Note_on_c, 1, 69, 90
3, 32939, Note_on_c, 1, 69, 0
3, 32940, Note_on_c, 1, 74, 90
3, 33059, Note_on_c, 1, 74, 0
3, 33060, Note_on_c, 1, 73, 90
3, 33089, Note_on_c, 1, 73, 0
3, 33090, Note_on_c, 1, 71, 90
3, 33119, Note_on_c, 1, 71, 0
3, 33120, Note_on_c, 1, 73, 90
3, 33179, Note_on_c, 1, 73, 0
3, 33180, Note_on_c, 1, 69, 90
3, 33299, Note_on_c, 1, 69, 0
3, 33300, Note_on_c, 1, 73, 90
3, 33419, Note_on_c, 1, 73, 0
3, 33420, Note_on_c, 1, 71, 90
3, 33449, Note_on_c, 1, 71, 0
3, 33450, Note_on_c, 1, 69, 90
3, 33479, Note_on_c, 1, 69, 0
3, 33480, Note_on_c, 1, 71, 90
3, 33539, Note_on_c, 1, 71, 0
3, 33540, Note_on_c, 1, 68, 90
3, 33659, Note_on_c, 1, 68, 0
3, 33660, Note_on_c, 1, 71, 90
3, 33779, Note_on_c, 1, 71, 0
3, 33780, Note_on_c, 1, 69, 90
3, 33809, Note_on_c, 1, 69, 0
3, 33810, Note_on_c, 1, 68, 90
3, 33839, Note_on_c, 1, 68, 0
3, 33840, Note_on_c, 1, 69, 90
3, 34259, Note_on_c, 1, 69, 0
3, 34260, Note_on_c, 1, 71, 90
3, 34319, Note_on_c, 1, 71, 0
3, 34320, Note_on_c, 1, 64, 90
3, 34619, Note_on_c, 1, 64, 0
3, 34620, Note_on_c, 1, 68, 90
3, 34679, Note_on_c, 1, 68, 0
3, 34680, Note_on_c, 1, 69, 90
3, 34739, Note_on_c, 1, 69, 0
3, 34740, Note_on_c, 1, 69, 90
3, 34799, Note_on_c, 1, 69, 0
3, 34800, Note_on_c, 1, 69, 90
3, 34859, Note_on_c, 1, 69, 0
3, 34860, Note_on_c, 1, 68, 90
3, 34919, Note_on_c, 1, 68, 0
3, 34920, Note_on_c, 1, 69, 90
3, 35039, Note_on_c, 1, 69, 0
3, 35700, Note_on_c, 1, 66, 90
3, 35729, Note_on_c, 1, 66, 0
3, 35730, Note_on_c, 1, 68, 90
3, 35759, Note_on_c, 1, 68, 0
3, 35760, Note_on_c, 1, 69, 90
3, 35819, Note_on_c, 1, 69, 0
3, 35820, Note_on_c, 1, 69, 90
3, 35879, Note_on_c, 1, 69, 0
3, 35880, Note_on_c, 1, 71, 90
3, 35909, Note_on_c, 1, 71, 0
3, 35910, Note_on_c, 1, 69, 90
3, 35939, Note_on_c, 1, 69, 0
3, 35940, Note_on_c, 1, 68, 90
3, 35969, Note_on_c, 1, 68, 0
3, 35970, Note_on_c, 1, 71, 90
3, 35999, Note_on_c, 1, 71, 0
3, 36000, Note_on_c, 1, 69, 90
3, 36059, Note_on_c, 1, 69, 0
3, 36120, Note_on_c, 1, 73, 90
3, 36149, Note_on_c, 1, 73, 0
3, 36240, Note_on_c, 1, 77, 90
3, 36269, Note_on_c, 1, 77, 0
3, 36360, Note_on_c, 1, 78, 90
3, 36389, Note_on_c, 1, 78, 0
3, 37140, Note_on_c, 1, 66, 90
3, 37169, Note_on_c, 1, 66, 0
3, 37170, Note_on_c, 1, 68, 90
3, 37199, Note_on_c, 1, 68, 0
3, 37200, Note_on_c, 1, 69, 90
3, 37229, Note_on_c, 1, 69, 0
3, 37230, Note_on_c, 1, 71, 90
3, 37259, Note_on_c, 1, 71, 0
3, 37260, Note_on_c, 1, 68, 90
3, 37289, Note_on_c, 1, 68, 0
3, 37290, Note_on_c, 1, 69, 90
3, 37319, Note_on_c, 1, 69, 0
3, 37320, Note_on_c, 1, 71, 90
3, 37349, Note_on_c, 1, 71, 0
3, 37350, Note_on_c, 1, 69, 90
3, 37379, Note_on_c, 1, 69, 0
3, 37380, Note_on_c, 1, 68, 90
3, 37409, Note_on_c, 1, 68, 0
3, 37410, Note_on_c, 1, 66, 90
3, 37439, Note_on_c, 1, 66, 0
3, 37440, Note_on_c, 1, 68, 90
3, 37980, Note_on_c, 1, 68, 0
3, 37980, Note_on_c, 1, 69, 90
3, 38009, Note_on_c, 1, 69, 0
3, 38010, Note_on_c, 1, 71, 90
3, 38039, Note_on_c, 1, 71, 0
3, 38040, Note_on_c, 1, 73, 90
3, 38099, Note_on_c, 1, 73, 0
3, 38100, Note_on_c, 1, 69, 90
3, 38159, Note_on_c, 1, 69, 0
3, 38160, Note_on_c, 1, 66, 90
3, 38339, Note_on_c, 1, 66, 0
3, 38340, Note_on_c, 1, 68, 90
3, 38369, Note_on_c, 1, 68, 0
3, 38370, Note_on_c, 1, 69, 90
3, 38399, Note_on_c, 1, 69, 0
3, 38400, Note_on_c, 1, 71, 90
3, 38459, Note_on_c, 1, 71, 0
3, 38460, Note_on_c, 1, 68, 90
3, 38519, Note_on_c, 1, 68, 0
3, 38520, Note_on_c, 1, 64, 90
3, 38699, Note_on_c, 1, 64, 0
3, 38700, Note_on_c, 1, 66, 90
3, 38729, Note_on_c, 1, 66, 0
3, 38730, Note_on_c, 1, 68, 90
3, 38759, Note_on_c, 1, 68, 0
3, 38760, Note_on_c, 1, 69, 90
3, 38819, Note_on_c, 1, 69, 0
3, 38820, Note_on_c, 1, 66, 90
3, 38879, Note_on_c, 1, 66, 0
3, 38880, Note_on_c, 1, 63, 90
3, 39029, Note_on_c, 1, 63, 0
3, 39030, Note_on_c, 1, 61, 90
3, 39059, Note_on_c, 1, 61, 0
3, 39060, Note_on_c, 1, 63, 90
3, 39089, Note_on_c, 1, 63, 0
3, 39090, Note_on_c, 1, 64, 90
3, 39119, Note_on_c, 1, 64, 0
3, 39120, Note_on_c, 1, 66, 90
3, 39179, Note_on_c, 1, 66, 0
3, 39180, Note_on_c, 1, 68, 90
3, 39299, Note_on_c, 1, 68, 0
3, 39300, Note_on_c, 1, 73, 90
3, 39419, Note_on_c, 1, 73, 0
3, 39420, Note_on_c, 1, 69, 90
3, 39539, Note_on_c, 1, 69, 0
3, 39540, Note_on_c, 1, 68, 90
3, 39569, Note_on_c, 1, 68, 0
3, 39570, Note_on_c, 1, 66, 90
3, 39599, Note_on_c, 1, 66, 0
3, 39600, Note_on_c, 1, 64, 90
3, 39659, Note_on_c, 1, 64, 0
3, 39660, Note_on_c, 1, 64, 90
3, 39689, Note_on_c, 1, 64, 0
3, 39690, Note_on_c, 1, 66, 90
3, 39719, Note_on_c, 1, 66, 0
3, 39720, Note_on_c, 1, 68, 90
3, 39779, Note_on_c, 1, 68, 0
3, 39780, Note_on_c, 1, 68, 90
3, 39839, Note_on_c, 1, 68, 0
3, 39840, Note_on_c, 1, 69, 90
3, 39869, Note_on_c, 1, 69, 0
3, 39870, Note_on_c, 1, 68, 90
3, 39899, Note_on_c, 1, 68, 0
3, 39900, Note_on_c, 1, 66, 90
3, 39929, Note_on_c, 1, 66, 0
3, 39930, Note_on_c, 1, 69, 90
3, 39959, Note_on_c, 1, 69, 0
3, 39960, Note_on_c, 1, 68, 90
3, 40019, Note_on_c, 1, 68, 0
3, 40080, Note_on_c, 1, 73, 90
3, 40109, Note_on_c, 1, 73, 0
3, 40200, Note_on_c, 1, 75, 90
3, 40229, Note_on_c, 1, 75, 0
3, 40320, Note_on_c, 1, 76, 90
3, 40349, Note_on_c, 1, 76, 0
3, 41100, Note_on_c, 1, 71, 90
3, 41129, Note_on_c, 1, 71, 0
3, 41130, Note_on_c, 1, 73, 90
3, 41159, Note_on_c, 1, 73, 0
3, 41160, Note_on_c, 1, 74, 90
3, 41189, Note_on_c, 1, 74, 0
3, 41190, Note_on_c, 1, 76, 90
3, 41219, Note_on_c, 1, 76, 0
3, 41220, Note_on_c, 1, 73, 90
3, 41249, Note_on_c, 1, 73, 0
3, 41250, Note_on_c, 1, 74, 90
3, 41279, Note_on_c, 1, 74, 0
3, 41280, Note_on_c, 1, 76, 90
3, 41309, Note_on_c, 1, 76, 0
3, 41310, Note_on_c, 1, 74, 90
3, 41339, Note_on_c, 1, 74, 0
3, 41340, Note_on_c, 1, 73, 90
3, 41369, Note_on_c, 1, 73, 0
3, 41370, Note_on_c, 1, 76, 90
3, 41399, Note_on_c, 1, 76, 0
3, 41400, Note_on_c, 1, 74, 90
3, 41459, Note_on_c, 1, 74, 0
3, 41520, Note_on_c, 1, 78, 90
3, 41549, Note_on_c, 1, 78, 0
3, 41640, Note_on_c, 1, 70, 90
3, 41669, Note_on_c, 1, 70, 0
3, 41760, Note_on_c, 1, 71, 90
3, 41789, Note_on_c, 1, 71, 0
3, 42540, Note_on_c, 1, 61, 90
3, 42569, Note_on_c, 1, 61, 0
3, 42570, Note_on_c, 1, 62, 90
3, 42599, Note_on_c, 1, 62, 0
3, 42600, Note_on_c, 1, 64, 90
3, 42629, Note_on_c, 1, 64, 0
3, 42630, Note_on_c, 1, 66, 90
3, 42659, Note_on_c, 1, 66, 0
3, 42660, Note_on_c, 1, 62, 90
3, 42689, Note_on_c, 1, 62, 0
3, 42690, Note_on_c, 1, 64, 90
3, 42719, Note_on_c, 1, 64, 0
3, 42720, Note_on_c, 1, 66, 90
3, 42749, Note_on_c, 1, 66, 0
3, 42750, Note_on_c, 1, 64, 90
3, 42779, Note_on_c, 1, 64, 0
3, 42780, Note_on_c, 1, 62, 90
3, 42809, Note_on_c, 1, 62, 0
3, 42810, Note_on_c, 1, 66, 90
3, 42839, Note_on_c, 1, 66, 0
3, 42840, Note_on_c, 1, 64, 90
3, 43199, Note_on_c, 1, 64, 0
3, 43200, Note_on_c, 1, 62, 90
3, 43259, Note_on_c, 1, 62, 0
3, 43260, Note_on_c, 1, 61, 90
3, 43319, Note_on_c, 1, 61, 0
3, 43320, Note_on_c, 1, 59, 90
3, 43379, Note_on_c, 1, 59, 0
3, 43380, Note_on_c, 1, 66, 90
3, 43439, Note_on_c, 1, 66, 0
3, 43440, Note_on_c, 1, 71, 90
3, 43499, Note_on_c, 1, 71, 0
3, 43500, Note_on_c, 1, 69, 90
3, 43559, Note_on_c, 1, 69, 0
3, 43560, Note_on_c, 1, 68, 90
3, 43739, Note_on_c, 1, 68, 0
3, 43740, Note_on_c, 1, 69, 90
3, 43769, Note_on_c, 1, 69, 0
3, 43770, Note_on_c, 1, 71, 90
3, 43799, Note_on_c, 1, 71, 0
3, 43800, Note_on_c, 1, 69, 90
3, 43859, Note_on_c, 1, 69, 0
3, 43860, Note_on_c, 1, 68, 90
3, 43919, Note_on_c, 1, 68, 0
3, 43920, Note_on_c, 1, 66, 90
3, 44099, Note_on_c, 1, 66, 0
3, 44100, Note_on_c, 1, 68, 90
3, 44129, Note_on_c, 1, 68, 0
3, 44130, Note_on_c, 1, 69, 90
3, 44159, Note_on_c, 1, 69, 0
3, 44160, Note_on_c, 1, 68, 90
3, 44189, Note_on_c, 1, 68, 0
3, 44190, Note_on_c, 1, 69, 90
3, 44219, Note_on_c, 1, 69, 0
3, 44220, Note_on_c, 1, 66, 90
3, 44249, Note_on_c, 1, 66, 0
3, 44250, Note_on_c, 1, 68, 90
3, 44279, Note_on_c, 1, 68, 0
3, 44280, Note_on_c, 1, 65, 90
3, 44339, Note_on_c, 1, 65, 0
3, 44340, Note_on_c, 1, 66, 90
3, 44399, Note_on_c, 1, 66, 0
3, 44400, Note_on_c, 1, 68, 90
3, 44459, Note_on_c, 1, 68, 0
3, 44460, Note_on_c, 1, 65, 90
3, 44519, Note_on_c, 1, 65, 0
3, 44520, Note_on_c, 1, 66, 90
3, 44579, Note_on_c, 1, 66, 0
3, 44580, Note_on_c, 1, 68, 90
3, 44699, Note_on_c, 1, 68, 0
3, 44700, Note_on_c, 1, 66, 90
3, 44729, Note_on_c, 1, 66, 0
3, 44730, Note_on_c, 1, 65, 90
3, 44759, Note_on_c, 1, 65, 0
3, 44760, Note_on_c, 1, 66, 90
3, 44819, Note_on_c, 1, 66, 0
3, 44820, Note_on_c, 1, 57, 90
3, 44879, Note_on_c, 1, 57, 0
3, 44880, Note_on_c, 1, 62, 90
3, 44939, Note_on_c, 1, 62, 0
3, 44940, Note_on_c, 1, 61, 90
3, 44969, Note_on_c, 1, 61, 0
3, 44970, Note_on_c, 1, 59, 90
3, 44999, Note_on_c, 1, 59, 0
3, 45000, Note_on_c, 1, 57, 90
3, 45119, Note_on_c, 1, 57, 0
3, 45420, Note_on_c, 1, 57, 90
3, 45449, Note_on_c, 1, 57, 0
3, 45450, Note_on_c, 1, 59, 90
3, 45479, Note_on_c, 1, 59, 0
3, 45480, Note_on_c, 1, 61, 90
3, 45539, Note_on_c, 1, 61, 0
3, 45540, Note_on_c, 1, 61, 90
3, 45599, Note_on_c, 1, 61, 0
3, 45600, Note_on_c, 1, 62, 90
3, 45629, Note_on_c, 1, 62, 0
3, 45630, Note_on_c, 1, 61, 90
3, 45659, Note_on_c, 1, 61, 0
3, 45660, Note_on_c, 1, 59, 90
3, 45689, Note_on_c, 1, 59, 0
3, 45690, Note_on_c, 1, 62, 90
3, 45719, Note_on_c, 1, 62, 0
3, 45720, Note_on_c, 1, 61, 90
3, 45779, Note_on_c, 1, 61, 0
3, 45840, Note_on_c, 1, 64, 90
3, 45869, Note_on_c, 1, 64, 0
3, 45960, Note_on_c, 1, 68, 90
3, 45989, Note_on_c, 1, 68, 0
3, 46080, Note_on_c, 1, 69, 90
3, 46139, Note_on_c, 1, 69, 0
3, 46140, Note_on_c, 1, 61, 90
3, 46169, Note_on_c, 1, 61, 0
3, 46170, Note_on_c, 1, 62, 90
3, 46199, Note_on_c, 1, 62, 0
3, 46200, Note_on_c, 1, 64, 90
3, 46229, Note_on_c, 1, 64, 0
3, 46230, Note_on_c, 1, 66, 90
3, 46259, Note_on_c, 1, 66, 0
3, 46260, Note_on_c, 1, 62, 90
3, 46289, Note_on_c, 1, 62, 0
3, 46290, Note_on_c, 1, 64, 90
3, 46319, Note_on_c, 1, 64, 0
3, 46320, Note_on_c, 1, 66, 90
3, 46349, Note_on_c, 1, 66, 0
3, 46350, Note_on_c, 1, 64, 90
3, 46379, Note_on_c, 1, 64, 0
3, 46380, Note_on_c, 1, 62, 90
3, 46409, Note_on_c, 1, 62, 0
3, 46410, Note_on_c, 1, 66, 90
3, 46439, Note_on_c, 1, 66, 0
3, 46440, Note_on_c, 1, 64, 90
3, 46499, Note_on_c, 1, 64, 0
3, 46560, Note_on_c, 1, 69, 90
3, 46589, Note_on_c, 1, 69, 0
3, 46680, Note_on_c, 1, 71, 90
3, 46709, Note_on_c, 1, 71, 0
3, 46800, Note_on_c, 1, 73, 90
3, 46859, Note_on_c, 1, 73, 0
3, 46860, Note_on_c, 1, 61, 90
3, 46979, Note_on_c, 1, 61, 0
3, 46980, Note_on_c, 1, 64, 90
3, 47099, Note_on_c, 1, 64, 0
3, 47100, Note_on_c, 1, 67, 90
3, 47159, Note_on_c, 1, 67, 0
3, 47160, Note_on_c, 1, 66, 100
3, 47580, Note_on_c, 1, 66, 0
3, 47580, Note_on_c, 1, 63, 90
3, 47699, Note_on_c, 1, 63, 0
3, 47700, Note_on_c, 1, 66, 90
3, 47819, Note_on_c, 1, 66, 0
3, 47820, Note_on_c, 1, 69, 90
3, 47879, Note_on_c, 1, 69, 0
3, 47880, Note_on_c, 1, 68, 100
3, 48300, Note_on_c, 1, 68, 0
3, 48300, Note_on_c, 1, 71, 90
3, 48419, Note_on_c, 1, 71, 0
3, 48420, Note_on_c, 1, 76, 90
3, 48539, Note_on_c, 1, 76, 0
3, 48540, Note_on_c, 1, 80, 90
3, 48599, Note_on_c, 1, 80, 0
3, 48600, Note_on_c, 1, 81, 90
3, 48659, Note_on_c, 1, 81, 0
3, 48660, Note_on_c, 1, 73, 90
3, 48779, Note_on_c, 1, 73, 0
3, 48780, Note_on_c, 1, 76, 90
3, 48899, Note_on_c, 1, 76, 0
3, 48900, Note_on_c, 1, 74, 90
3, 48929, Note_on_c, 1, 74, 0
3, 48930, Note_on_c, 1, 73, 90
3, 48959, Note_on_c, 1, 73, 0
3, 48960, Note_on_c, 1, 74, 90
3, 49019, Note_on_c, 1, 74, 0
3, 49020, Note_on_c, 1, 69, 90
3, 49139, Note_on_c, 1, 69, 0
3, 49140, Note_on_c, 1, 74, 90
3, 49259, Note_on_c, 1, 74, 0
3, 49260, Note_on_c, 1, 73, 90
3, 49289, Note_on_c, 1, 73, 0
3, 49290, Note_on_c, 1, 71, 90
3, 49319, Note_on_c, 1, 71, 0
3, 49320, Note_on_c, 1, 73, 90
3, 49379, Note_on_c, 1, 73, 0
3, 49380, Note_on_c, 1, 69, 90
3, 49499, Note_on_c, 1, 69, 0
3, 49500, Note_on_c, 1, 73, 90
3, 49619, Note_on_c, 1, 73, 0
3, 49620, Note_on_c, 1, 71, 90
3, 49649, Note_on_c, 1, 71, 0
3, 49650, Note_on_c, 1, 69, 90
3, 49679, Note_on_c, 1, 69, 0
3, 49680, Note_on_c, 1, 71, 90
3, 49739, Note_on_c, 1, 71, 0
3, 49740, Note_on_c, 1, 68, 90
3, 49859, Note_on_c, 1, 68, 0
3, 49860, Note_on_c, 1, 71, 90
3, 49979, Note_on_c, 1, 71, 0
3, 49980, Note_on_c, 1, 69, 90
3, 50009, Note_on_c, 1, 69, 0
3, 50010, Note_on_c, 1, 68, 90
3, 50039, Note_on_c, 1, 68, 0
3, 50040, Note_on_c, 1, 69, 100
3, 50460, Note_on_c, 1, 69, 0
3, 50460, Note_on_c, 1, 71, 100
3, 50520, Note_on_c, 1, 71, 0
3, 50520, Note_on_c, 1, 64, 100
3, 50820, Note_on_c, 1, 64, 0
3, 50820, Note_on_c, 1, 68, 100
3, 50880, Note_on_c, 1, 68, 0
3, 50880, Note_on_c, 1, 69, 100
3, 50940, Note_on_c, 1, 69, 0
3, 50940, Note_on_c, 1, 69, 100
3, 51000, Note_on_c, 1, 69, 0
3, 51000, Note_on_c, 1, 69, 100
3, 51060, Note_on_c, 1, 69, 0
3, 51060, Note_on_c, 1, 68, 100
3, 51120, Note_on_c, 1, 68, 0
3, 51120, Note_on_c, 1, 69, 100
3, 51240, Note_on_c, 1, 69, 0
3, 51900, Note_on_c, 1, 57, 90
3, 51929, Note_on_c, 1, 57, 0
3, 51930, Note_on_c, 1, 59, 90
3, 51959, Note_on_c, 1, 59, 0
3, 51960, Note_on_c, 1, 61, 90
3, 52019, Note_on_c, 1, 61, 0
3, 52020, Note_on_c, 1, 61, 90
3, 52079, Note_on_c, 1, 61, 0
3, 52080, Note_on_c, 1, 62, 90
3, 52109, Note_on_c, 1, 62, 0
3, 52110, Note_on_c, 1, 61, 90
3, 52139, Note_on_c, 1, 61, 0
3, 52140, Note_on_c, 1, 59, 90
3, 52169, Note_on_c, 1, 59, 0
3, 52170, Note_on_c, 1, 62, 90
3, 52199, Note_on_c, 1, 62, 0
3, 52200, Note_on_c, 1, 61, 90
3, 52259, Note_on_c, 1, 61, 0
3, 52320, Note_on_c, 1, 64, 90
3, 52349, Note_on_c, 1, 64, 0
3, 52440, Note_on_c, 1, 68, 90
3, 52469, Note_on_c, 1, 68, 0
3, 52560, Note_on_c, 1, 69, 90
3, 52619, Note_on_c, 1, 69, 0
3, 52620, Note_on_c, 1, 61, 90
3, 52649, Note_on_c, 1, 61, 0
3, 52650, Note_on_c, 1, 62, 90
3, 52679, Note_on_c, 1, 62, 0
3, 52680, Note_on_c, 1, 64, 90
3, 52709, Note_on_c, 1, 64, 0
3, 52710, Note_on_c, 1, 66, 90
3, 52739, Note_on_c, 1, 66, 0
3, 52740, Note_on_c, 1, 62, 90
3, 52769, Note_on_c, 1, 62, 0
3, 52770, Note_on_c, 1, 64, 90
3, 52799, Note_on_c, 1, 64, 0
3, 52800, Note_on_c, 1, 66, 90
3, 52829, Note_on_c, 1, 66, 0
3, 52830, Note_on_c, 1, 64, 90
3, 52859, Note_on_c, 1, 64, 0
3, 52860, Note_on_c, 1, 62, 90
3, 52889, Note_on_c, 1, 62, 0
3, 52890, Note_on_c, 1, 61, 90
3, 52919, Note_on_c, 1, 61, 0
3, 52920, Note_on_c, 1, 59, 90
3, 52979, Note_on_c, 1, 59, 0
3, 53700, Note_on_c, 1, 68, 90
3, 53729, Note_on_c, 1, 68, 0
3, 53730, Note_on_c, 1, 69, 90
3, 53759, Note_on_c, 1, 69, 0
3, 53760, Note_on_c, 1, 71, 90
3, 53819, Note_on_c, 1, 71, 0
3, 53820, Note_on_c, 1, 71, 90
3, 53879, Note_on_c, 1, 71, 0
3, 53880, Note_on_c, 1, 73, 90
3, 53909, Note_on_c, 1, 73, 0
3, 53910, Note_on_c, 1, 71, 90
3, 53939, Note_on_c, 1, 71, 0
3, 53940, Note_on_c, 1, 69, 90
3, 53969, Note_on_c, 1, 69, 0
3, 53970, Note_on_c, 1, 73, 90
3, 53999, Note_on_c, 1, 73, 0
3, 54000, Note_on_c, 1, 71, 90
3, 54059, Note_on_c, 1, 71, 0
3, 54120, Note_on_c, 1, 64, 90
3, 54149, Note_on_c, 1, 64, 0
3, 54240, Note_on_c, 1, 66, 90
3, 54269, Note_on_c, 1, 66, 0
3, 54360, Note_on_c, 1, 68, 90
3, 54419, Note_on_c, 1, 68, 0
3, 54420, Note_on_c, 1, 68, 90
3, 54449, Note_on_c, 1, 68, 0
3, 54450, Note_on_c, 1, 69, 90
3, 54479, Note_on_c, 1, 69, 0
3, 54480, Note_on_c, 1, 71, 90
3, 54509, Note_on_c, 1, 71, 0
3, 54510, Note_on_c, 1, 73, 90
3, 54539, Note_on_c, 1, 73, 0
3, 54540, Note_on_c, 1, 69, 90
3, 54569, Note_on_c, 1, 69, 0
3, 54570, Note_on_c, 1, 71, 90
3, 54599, Note_on_c, 1, 71, 0
3, 54600, Note_on_c, 1, 73, 90
3, 54629, Note_on_c, 1, 73, 0
3, 54630, Note_on_c, 1, 71, 90
3, 54659, Note_on_c, 1, 71, 0
3, 54660, Note_on_c, 1, 69, 90
3, 54689, Note_on_c, 1, 69, 0
3, 54690, Note_on_c, 1, 68, 90
3, 54719, Note_on_c, 1, 68, 0
3, 54720, Note_on_c, 1, 66, 90
3, 54779, Note_on_c, 1, 66, 0
3, 55500, Note_on_c, 1, 59, 90
3, 55529, Note_on_c, 1, 59, 0
3, 55530, Note_on_c, 1, 61, 90
3, 55559, Note_on_c, 1, 61, 0
3, 55560, Note_on_c, 1, 62, 90
3, 55589, Note_on_c, 1, 62, 0
3, 55590, Note_on_c, 1, 64, 90
3, 55619, Note_on_c, 1, 64, 0
3, 55620, Note_on_c, 1, 61, 90
3, 55649, Note_on_c, 1, 61, 0
3, 55650, Note_on_c, 1, 62, 90
3, 55679, Note_on_c, 1, 62, 0
3, 55680, Note_on_c, 1, 64, 90
3, 55709, Note_on_c, 1, 64, 0
3, 55710, Note_on_c, 1, 62, 90
3, 55739, Note_on_c, 1, 62, 0
3, 55740, Note_on_c, 1, 61, 90
3, 55769, Note_on_c, 1, 61, 0
3, 55770, Note_on_c, 1, 59, 90
3, 55799, Note_on_c, 1, 59, 0
3, 55800, Note_on_c, 1, 61, 90
3, 55859, Note_on_c, 1, 61, 0
3, 55920, Note_on_c, 1, 69, 90
3, 55949, Note_on_c, 1, 69, 0
3, 56040, Note_on_c, 1, 71, 90
3, 56069, Note_on_c, 1, 71, 0
3, 56160, Note_on_c, 1, 69, 90
3, 56189, Note_on_c, 1, 69, 0
3, 59220, Note_on_c, 1, 71, 90
3, 59339, Note_on_c, 1, 71, 0
3, 59340, Note_on_c, 1, 68, 90
3, 59399, Note_on_c, 1, 68, 0
3, 59400, Note_on_c, 1, 64, 90
3, 59459, Note_on_c, 1, 64, 0
3, 59460, Note_on_c, 1, 66, 90
3, 59489, Note_on_c, 1, 66, 0
3, 59490, Note_on_c, 1, 68, 90
3, 59519, Note_on_c, 1, 68, 0
3, 59520, Note_on_c, 1, 69, 90
3, 59549, Note_on_c, 1, 69, 0
3, 59550, Note_on_c, 1, 71, 90
3, 59579, Note_on_c, 1, 71, 0
3, 59580, Note_on_c, 1, 73, 90
3, 59609, Note_on_c, 1, 73, 0
3, 59640, Note_on_c, 1, 71, 90
3, 59699, Note_on_c, 1, 71, 0
3, 59700, Note_on_c, 1, 69, 90
3, 59729, Note_on_c, 1, 69, 0
3, 59730, Note_on_c, 1, 68, 90
3, 59759, Note_on_c, 1, 68, 0
3, 59760, Note_on_c, 1, 66, 90
3, 59819, Note_on_c, 1, 66, 0
3, 59820, Note_on_c, 1, 63, 90
3, 59849, Note_on_c, 1, 63, 0
3, 59850, Note_on_c, 1, 64, 90
3, 59879, Note_on_c, 1, 64, 0
3, 59880, Note_on_c, 1, 66, 90
3, 59909, Note_on_c, 1, 66, 0
3, 59910, Note_on_c, 1, 68, 90
3, 59939, Note_on_c, 1, 68, 0
3, 59940, Note_on_c, 1, 69, 90
3, 59969, Note_on_c, 1, 69, 0
3, 60000, Note_on_c, 1, 69, 90
3, 60179, Note_on_c, 1, 69, 0
3, 60180, Note_on_c, 1, 68, 90
3, 60299, Note_on_c, 1, 68, 0
3, 60300, Note_on_c, 1, 71, 90
3, 60419, Note_on_c, 1, 71, 0
3, 60420, Note_on_c, 1, 74, 90
3, 60479, Note_on_c, 1, 74, 0
3, 60480, Note_on_c, 1, 73, 90
3, 60900, Note_on_c, 1, 73, 0
3, 60900, Note_on_c, 1, 70, 90
3, 61020, Note_on_c, 1, 70, 0
3, 61020, Note_on_c, 1, 73, 90
3, 61140, Note_on_c, 1, 73, 0
3, 61140, Note_on_c, 1, 76, 90
3, 61200, Note_on_c, 1, 76, 0
3, 61200, Note_on_c, 1, 75, 90
3, 61620, Note_on_c, 1, 75, 0
3, 61620, Note_on_c, 1, 66, 90
3, 61740, Note_on_c, 1, 66, 0
3, 61740, Note_on_c, 1, 71, 90
3, 61860, Note_on_c, 1, 71, 0
3, 61860, Note_on_c, 1, 75, 90
3, 61920, Note_on_c, 1, 75, 0
3, 61920, Note_on_c, 1, 76, 90
3, 61979, Note_on_c, 1, 76, 0
3, 61980, Note_on_c, 1, 71, 90
3, 62099, Note_on_c, 1, 71, 0
3, 62100, Note_on_c, 1, 74, 90
3, 62219, Note_on_c, 1, 74, 0
3, 62220, Note_on_c, 1, 73, 90
3, 62249, Note_on_c, 1, 73, 0
3, 62250, Note_on_c, 1, 71, 90
3, 62279, Note_on_c, 1, 71, 0
3, 62280, Note_on_c, 1, 73, 90
3, 62339, Note_on_c, 1, 73, 0
3, 62340, Note_on_c, 1, 69, 90
3, 62459, Note_on_c, 1, 69, 0
3, 62460, Note_on_c, 1, 73, 90
3, 62579, Note_on_c, 1, 73, 0
3, 62580, Note_on_c, 1, 71, 90
3, 62609, Note_on_c, 1, 71, 0
3, 62610, Note_on_c, 1, 69, 90
3, 62639, Note_on_c, 1, 69, 0
3, 62640, Note_on_c, 1, 71, 90
3, 62699, Note_on_c, 1, 71, 0
3, 62700, Note_on_c, 1, 68, 90
3, 62819, Note_on_c, 1, 68, 0
3, 62820, Note_on_c, 1, 71, 90
3, 62939, Note_on_c, 1, 71, 0
3, 62940, Note_on_c, 1, 69, 90
3, 62969, Note_on_c, 1, 69, 0
3, 62970, Note_on_c, 1, 68, 90
3, 62999, Note_on_c, 1, 68, 0
3, 63000, Note_on_c, 1, 69, 90
3, 63059, Note_on_c, 1, 69, 0
3, 63060, Note_on_c, 1, 66, 90
3, 63179, Note_on_c, 1, 66, 0
3, 63180, Note_on_c, 1, 69, 90
3, 63299, Note_on_c, 1, 69, 0
3, 63300, Note_on_c, 1, 68, 90
3, 63329, Note_on_c, 1, 68, 0
3, 63330, Note_on_c, 1, 66, 90
3, 63359, Note_on_c, 1, 66, 0
3, 63360, Note_on_c, 1, 68, 90
3, 63389, Note_on_c, 1, 68, 0
3, 63420, Note_on_c, 1, 64, 90
3, 63449, Note_on_c, 1, 64, 0
3, 63480, Note_on_c, 1, 69, 90
3, 63509, Note_on_c, 1, 69, 0
3, 63540, Note_on_c, 1, 64, 90
3, 63569, Note_on_c, 1, 64, 0
3, 63600, Note_on_c, 1, 71, 90
3, 63629, Note_on_c, 1, 71, 0
3, 63660, Note_on_c, 1, 64, 90
3, 63689, Note_on_c, 1, 64, 0
3, 63720, Note_on_c, 1, 73, 90
3, 63749, Note_on_c, 1, 73, 0
3, 63780, Note_on_c, 1, 69, 90
3, 63809, Note_on_c, 1, 69, 0
3, 63840, Note_on_c, 1, 75, 90
3, 63869, Note_on_c, 1, 75, 0
3, 63900, Note_on_c, 1, 69, 90
3, 63929, Note_on_c, 1, 69, 0
3, 63960, Note_on_c, 1, 76, 90
3, 63989, Note_on_c, 1, 76, 0
3, 64020, Note_on_c, 1, 69, 90
3, 64049, Note_on_c, 1, 69, 0
3, 64080, Note_on_c, 1, 78, 90
3, 64109, Note_on_c, 1, 78, 0
3, 64140, Note_on_c, 1, 69, 90
3, 64199, Note_on_c, 1, 69, 0
3, 64200, Note_on_c, 1, 68, 90
3, 64259, Note_on_c, 1, 68, 0
3, 64260, Note_on_c, 1, 71, 90
3, 64319, Note_on_c, 1, 71, 0
3, 64320, Note_on_c, 1, 68, 90
3, 64379, Note_on_c, 1, 68, 0
3, 64380, Note_on_c, 1, 66, 90
3, 64409, Note_on_c, 1, 66, 0
3, 64410, Note_on_c, 1, 64, 90
3, 64439, Note_on_c, 1, 64, 0
3, 64440, Note_on_c, 1, 64, 90
3, 64499, Note_on_c, 1, 64, 0
3, 64500, Note_on_c, 1, 64, 90
3, 64529, Note_on_c, 1, 64, 0
3, 64530, Note_on_c, 1, 66, 90
3, 64559, Note_on_c, 1, 66, 0
3, 64560, Note_on_c, 1, 68, 90
3, 64619, Note_on_c, 1, 68, 0
3, 64620, Note_on_c, 1, 68, 90
3, 64679, Note_on_c, 1, 68, 0
3, 64680, Note_on_c, 1, 69, 90
3, 64709, Note_on_c, 1, 69, 0
3, 64710, Note_on_c, 1, 68, 90
3, 64739, Note_on_c, 1, 68, 0
3, 64740, Note_on_c, 1, 66, 90
3, 64769, Note_on_c, 1, 66, 0
3, 64770, Note_on_c, 1, 69, 90
3, 64799, Note_on_c, 1, 69, 0
3, 64800, Note_on_c, 1, 68, 90
3, 64859, Note_on_c, 1, 68, 0
3, 64920, Note_on_c, 1, 71, 90
3, 64949, Note_on_c, 1, 71, 0
3, 65040, Note_on_c, 1, 75, 90
3, 65069, Note_on_c, 1, 75, 0
3, 65160, Note_on_c, 1, 76, 90
3, 65219, Note_on_c, 1, 76, 0
3, 65220, Note_on_c, 1, 68, 90
3, 65249, Note_on_c, 1, 68, 0
3, 65250, Note_on_c, 1, 69, 90
3, 65279, Note_on_c, 1, 69, 0
3, 65280, Note_on_c, 1, 71, 90
3, 65309, Note_on_c, 1, 71, 0
3, 65310, Note_on_c, 1, 73, 90
3, 65339, Note_on_c, 1, 73, 0
3, 65340, Note_on_c, 1, 69, 90
3, 65369, Note_on_c, 1, 69, 0
3, 65370, Note_on_c, 1, 71, 90
3, 65399, Note_on_c, 1, 71, 0
3, 65400, Note_on_c, 1, 73, 90
3, 65429, Note_on_c, 1, 73, 0
3, 65430, Note_on_c, 1, 71, 90
3, 65459, Note_on_c, 1, 71, 0
3, 65460, Note_on_c, 1, 69, 90
3, 65489, Note_on_c, 1, 69, 0
3, 65490, Note_on_c, 1, 73, 90
3, 65519, Note_on_c, 1, 73, 0
3, 65520, Note_on_c, 1, 71, 90
3, 65579, Note_on_c, 1, 71, 0
3, 65640, Note_on_c, 1, 76, 90
3, 65669, Note_on_c, 1, 76, 0
3, 65760, Note_on_c, 1, 78, 90
3, 65789, Note_on_c, 1, 78, 0
3, 65880, Note_on_c, 1, 80, 90
3, 65909, Note_on_c, 1, 80, 0
3, 67020, Note_on_c, 1, 69, 100
3, 67050, Note_on_c, 1, 69, 0
3, 67050, Note_on_c, 1, 71, 100
3, 67080, Note_on_c, 1, 71, 0
3, 67080, Note_on_c, 1, 73, 100
3, 67140, Note_on_c, 1, 73, 0
3, 67140, Note_on_c, 1, 73, 100
3, 67200, Note_on_c, 1, 73, 0
3, 67200, Note_on_c, 1, 74, 100
3, 67230, Note_on_c, 1, 74, 0
3, 67230, Note_on_c, 1, 73, 100
3, 67260, Note_on_c, 1, 73, 0
3, 67260, Note_on_c, 1, 71, 100
3, 67290, Note_on_c, 1, 71, 0
3, 67290, Note_on_c, 1, 74, 100
3, 67320, Note_on_c, 1, 74, 0
3, 67320, Note_on_c, 1, 73, 100
3, 67380, Note_on_c, 1, 73, 0
3, 67440, Note_on_c, 1, 64, 100
3, 67470, Note_on_c, 1, 64, 0
3, 67560, Note_on_c, 1, 68, 100
3, 67590, Note_on_c, 1, 68, 0
3, 67680, Note_on_c, 1, 69, 100
3, 67740, Note_on_c, 1, 69, 0
3, 67740, Note_on_c, 1, 61, 100
3, 67770, Note_on_c, 1, 61, 0
3, 67770, Note_on_c, 1, 62, 100
3, 67800, Note_on_c, 1, 62, 0
3, 67800, Note_on_c, 1, 64, 100
3, 67830, Note_on_c, 1, 64, 0
3, 67830, Note_on_c, 1, 66, 100
3, 67860, Note_on_c, 1, 66, 0
3, 67860, Note_on_c, 1, 62, 100
3, 67890, Note_on_c, 1, 62, 0
3, 67890, Note_on_c, 1, 64, 100
3, 67920, Note_on_c, 1, 64, 0
3, 67920, Note_on_c, 1, 66, 100
3, 67950, Note_on_c, 1, 66, 0
3, 67950, Note_on_c, 1, 64, 100
3, 67980, Note_on_c, 1, 64, 0
3, 67980, Note_on_c, 1, 62, 100
3, 68010, Note_on_c, 1, 62, 0
3, 68010, Note_on_c, 1, 66, 100
3, 68040, Note_on_c, 1, 66, 0
3, 68040, Note_on_c, 1, 64, 100
3, 68100, Note_on_c, 1, 64, 0
3, 68160, Note_on_c, 1, 69, 100
3, 68190, Note_on_c, 1, 69, 0
3, 68280, Note_on_c, 1, 71, 100
3, 68310, Note_on_c, 1, 71, 0
3, 68400, Note_on_c, 1, 73, 100
3, 68430, Note_on_c, 1, 73, 0
3, 69660, Note_on_c, 1, 66, 100
3, 69690, Note_on_c, 1, 66, 0
3, 69690, Note_on_c, 1, 67, 100
3, 69720, Note_on_c, 1, 67, 0
3, 69720, Note_on_c, 1, 69, 100
3, 69780, Note_on_c, 1, 69, 0
3, 70020, Note_on_c, 1, 64, 100
3, 70050, Note_on_c, 1, 64, 0
3, 70050, Note_on_c, 1, 66, 100
3, 70080, Note_on_c, 1, 66, 0
3, 70080, Note_on_c, 1, 68, 100
3, 70140, Note_on_c, 1, 68, 0
3, 70380, Note_on_c, 1, 69, 100
3, 70410, Note_on_c, 1, 69, 0
3, 70410, Note_on_c, 1, 71, 100
3, 70440, Note_on_c, 1, 71, 0
3, 70440, Note_on_c, 1, 73, 100
3, 70500, Note_on_c, 1, 73, 0
3, 70740, Note_on_c, 1, 62, 100
3, 70770, Note_on_c, 1, 62, 0
3, 70770, Note_on_c, 1, 64, 100
3, 70800, Note_on_c, 1, 64, 0
3, 70800, Note_on_c, 1, 66, 100
3, 70860, Note_on_c, 1, 66, 0
3, 71040, Note_on_c, 1, 71, 100
3, 71700, Note_on_c, 1, 71, 0
3, 71700, Note_on_c, 1, 69, 90
3, 71729, Note_on_c, 1, 69, 0
3, 71730, Note_on_c, 1, 71, 90
3, 71759, Note_on_c, 1, 71, 0
3, 71760, Note_on_c, 1, 73, 90
3, 71819, Note_on_c, 1, 73, 0
3, 71820, Note_on_c, 1, 68, 90
3, 71879, Note_on_c, 1, 68, 0
3, 71880, Note_on_c, 1, 69, 90
3, 71939, Note_on_c, 1, 69, 0
3, 71940, Note_on_c, 1, 69, 90
3, 71999, Note_on_c, 1, 69, 0
3, 72000, Note_on_c, 1, 69, 90
3, 72059, Note_on_c, 1, 69, 0
3, 72060, Note_on_c, 1, 68, 90
3, 72119, Note_on_c, 1, 68, 0
3, 72120, Note_on_c, 1, 68, 90
3, 72149, Note_on_c, 1, 68, 0
3, 72240, Note_on_c, 1, 71, 90
3, 72269, Note_on_c, 1, 71, 0
3, 72360, Note_on_c, 1, 69, 90
3, 72389, Note_on_c, 1, 69, 0
3, 72480, Note_on_c, 1, 73, 90
3, 72509, Note_on_c, 1, 73, 0
3, 72600, Note_on_c, 1, 69, 90
3, 72629, Note_on_c, 1, 69, 0
3, 72720, Note_on_c, 1, 69, 90
3, 72749, Note_on_c, 1, 69, 0
3, 72840, Note_on_c, 1, 71, 90
3, 72869, Note_on_c, 1, 71, 0
3, 72960, Note_on_c, 1, 64, 90
3, 72989, Note_on_c, 1, 64, 0
3, 73080, Note_on_c, 1, 66, 90
3, 73109, Note_on_c, 1, 66, 0
3, 73200, Note_on_c, 1, 66, 90
3, 73229, Note_on_c, 1, 66, 0
3, 73320, Note_on_c, 1, 64, 90
3, 73349, Note_on_c, 1, 64, 0
3, 73440, Note_on_c, 1, 68, 90
3, 73469, Note_on_c, 1, 68, 0
3, 73560, Note_on_c, 1, 64, 90
3, 73589, Note_on_c, 1, 64, 0
3, 73680, Note_on_c, 1, 64, 90
3, 73709, Note_on_c, 1, 64, 0
3, 73800, Note_on_c, 1, 64, 90
3, 73829, Note_on_c, 1, 64, 0
3, 73920, Note_on_c, 1, 69, 90
3, 73949, Note_on_c, 1, 69, 0
3, 74040, Note_on_c, 1, 69, 90
3, 74069, Note_on_c, 1, 69, 0
3, 74160, Note_on_c, 1, 69, 90
3, 74189, Note_on_c, 1, 69, 0
3, 74340, Note_on_c, 1, 69, 90
3, 74460, Note_on_c, 1, 69, 0
3, 74460, Note_on_c, 1, 66, 90
3, 74519, Note_on_c, 1, 66, 0
3, 74520, Note_on_c, 1, 62, 90
3, 74579, Note_on_c, 1, 62, 0
3, 74580, Note_on_c, 1, 64, 90
3, 74609, Note_on_c, 1, 64, 0
3, 74610, Note_on_c, 1, 66, 90
3, 74639, Note_on_c, 1, 66, 0
3, 74640, Note_on_c, 1, 67, 90
3, 74669, Note_on_c, 1, 67, 0
3, 74670, Note_on_c, 1, 69, 90
3, 74699, Note_on_c, 1, 69, 0
3, 74700, Note_on_c, 1, 71, 90
3, 74729, Note_on_c, 1, 71, 0
3, 74760, Note_on_c, 1, 69, 90
3, 74819, Note_on_c, 1, 69, 0
3, 74820, Note_on_c, 1, 67, 90
3, 74849, Note_on_c, 1, 67, 0
3, 74850, Note_on_c, 1, 66, 90
3, 74879, Note_on_c, 1, 66, 0
3, 74880, Note_on_c, 1, 64, 90
3, 74939, Note_on_c, 1, 64, 0
3, 74940, Note_on_c, 1, 61, 90
3, 74969, Note_on_c, 1, 61, 0
3, 74970, Note_on_c, 1, 62, 90
3, 74999, Note_on_c, 1, 62, 0
3, 75000, Note_on_c, 1, 64, 90
3, 75029, Note_on_c, 1, 64, 0
3, 75030, Note_on_c, 1, 66, 90
3, 75059, Note_on_c, 1, 66, 0
3, 75060, Note_on_c, 1, 67, 90
3, 75089, Note_on_c, 1, 67, 0
3, 75120, Note_on_c, 1, 67, 90
3, 75299, Note_on_c, 1, 67, 0
3, 75300, Note_on_c, 1, 66, 90
3, 75329, Note_on_c, 1, 66, 0
3, 75330, Note_on_c, 1, 64, 90
3, 75359, Note_on_c, 1, 64, 0
3, 75360, Note_on_c, 1, 66, 90
3, 75389, Note_on_c, 1, 66, 0
3, 75390, Note_on_c, 1, 68, 90
3, 75419, Note_on_c, 1, 68, 0
3, 75420, Note_on_c, 1, 69, 90
3, 75449, Note_on_c, 1, 69, 0
3, 75480, Note_on_c, 1, 71, 90
3, 75539, Note_on_c, 1, 71, 0
3, 75540, Note_on_c, 1, 69, 90
3, 75599, Note_on_c, 1, 69, 0
3, 75600, Note_on_c, 1, 68, 90
3, 75629, Note_on_c, 1, 68, 0
3, 75630, Note_on_c, 1, 69, 90
3, 75659, Note_on_c, 1, 69, 0
3, 75660, Note_on_c, 1, 71, 90
3, 75779, Note_on_c, 1, 71, 0
3, 75780, Note_on_c, 1, 68, 90
3, 75839, Note_on_c, 1, 68, 0
3, 75840, Note_on_c, 1, 64, 90
3, 75899, Note_on_c, 1, 64, 0
3, 75900, Note_on_c, 1, 68, 90
3, 75959, Note_on_c, 1, 68, 0
3, 75960, Note_on_c, 1, 69, 90
3, 76379, Note_on_c, 1, 69, 0
3, 76380, Note_on_c, 1, 69, 90
3, 76499, Note_on_c, 1, 69, 0
3, 76500, Note_on_c, 1, 74, 90
3, 76619, Note_on_c, 1, 74, 0
3, 76620, Note_on_c, 1, 78, 90
3, 76679, Note_on_c, 1, 78, 0
3, 76680, Note_on_c, 1, 71, 90
3, 77099, Note_on_c, 1, 71, 0
3, 77100, Note_on_c, 1, 68, 90
3, 77219, Note_on_c, 1, 68, 0
3, 77220, Note_on_c, 1, 71, 90
3, 77339, Note_on_c, 1, 71, 0
3, 77340, Note_on_c, 1, 74, 90
3, 77399, Note_on_c, 1, 74, 0
3, 77400, Note_on_c, 1, 64, 90
3, 77819, Note_on_c, 1, 64, 0
3, 77820, Note_on_c, 1, 73, 90
3, 77939, Note_on_c, 1, 73, 0
3, 77940, Note_on_c, 1, 76, 90
3, 78059, Note_on_c, 1, 76, 0
3, 78060, Note_on_c, 1, 74, 90
3, 78089, Note_on_c, 1, 74, 0
3, 78090, Note_on_c, 1, 73, 90
3, 78119, Note_on_c, 1, 73, 0
3, 78120, Note_on_c, 1, 74, 90
3, 78179, Note_on_c, 1, 74, 0
3, 78180, Note_on_c, 1, 69, 90
3, 78299, Note_on_c, 1, 69, 0
3, 78300, Note_on_c, 1, 74, 90
3, 78419, Note_on_c, 1, 74, 0
3, 78420, Note_on_c, 1, 73, 90
3, 78449, Note_on_c, 1, 73, 0
3, 78450, Note_on_c, 1, 71, 90
3, 78479, Note_on_c, 1, 71, 0
3, 78480, Note_on_c, 1, 73, 90
3, 78539, Note_on_c, 1, 73, 0
3, 78540, Note_on_c, 1, 69, 90
3, 78659, Note_on_c, 1, 69, 0
3, 78660, Note_on_c, 1, 73, 90
3, 78779, Note_on_c, 1, 73, 0
3, 78780, Note_on_c, 1, 71, 90
3, 78809, Note_on_c, 1, 71, 0
3, 78810, Note_on_c, 1, 69, 90
3, 78839, Note_on_c, 1, 69, 0
3, 78840, Note_on_c, 1, 71, 90
3, 78899, Note_on_c, 1, 71, 0
3, 78900, Note_on_c, 1, 68, 90
3, 79019, Note_on_c, 1, 68, 0
3, 79020, Note_on_c, 1, 71, 90
3, 79139, Note_on_c, 1, 71, 0
3, 79140, Note_on_c, 1, 69, 90
3, 79169, Note_on_c, 1, 69, 0
3, 79170, Note_on_c, 1, 68, 90
3, 79199, Note_on_c, 1, 68, 0
3, 79200, Note_on_c, 1, 69, 90
3, 79619, Note_on_c, 1, 69, 0
3, 79620, Note_on_c, 1, 71, 90
3, 79679, Note_on_c, 1, 71, 0
3, 79680, Note_on_c, 1, 64, 90
3, 79979, Note_on_c, 1, 64, 0
3, 79980, Note_on_c, 1, 68, 90
3, 80039, Note_on_c, 1, 68, 0
3, 80040, Note_on_c, 1, 69, 90
3, 80099, Note_on_c, 1, 69, 0
3, 80100, Note_on_c, 1, 69, 90
3, 80159, Note_on_c, 1, 69, 0
3, 80160, Note_on_c, 1, 69, 90
3, 80219, Note_on_c, 1, 69, 0
3, 80220, Note_on_c, 1, 68, 90
3, 80279, Note_on_c, 1, 68, 0
3, 80280, Note_on_c, 1, 69, 90
3, 80399, Note_on_c, 1, 69, 0
3, 83880, Note_on_c, 1, 71, 90
3, 83975, Note_on_c, 1, 71, 0
3, 84120, Note_on_c, 1, 73, 90
3, 84215, Note_on_c, 1, 73, 0
3, 84300, Note_on_c, 1, 71, 90
3, 84347, Note_on_c, 1, 71, 0
3, 84360, Note_on_c, 1, 74, 90
3, 84407, Note_on_c, 1, 74, 0
3, 84420, Note_on_c, 1, 71, 90
3, 84467, Note_on_c, 1, 71, 0
3, 84480, Note_on_c, 1, 71, 90
3, 84527, Note_on_c, 1, 71, 0
3, 84540, Note_on_c, 1, 67, 90
3, 84587, Note_on_c, 1, 67, 0
3, 84600, Note_on_c, 1, 66, 90
3, 84647, Note_on_c, 1, 66, 0
3, 84660, Note_on_c, 1, 67, 90
3, 84683, Note_on_c, 1, 67, 0
3, 84690, Note_on_c, 1, 69, 90
3, 84713, Note_on_c, 1, 69, 0
3, 84720, Note_on_c, 1, 71, 90
3, 84767, Note_on_c, 1, 71, 0
3, 84780, Note_on_c, 1, 67, 90
3, 84827, Note_on_c, 1, 67, 0
3, 84840, Note_on_c, 1, 76, 90
3, 84935, Note_on_c, 1, 76, 0
3, 85020, Note_on_c, 1, 69, 90
3, 85067, Note_on_c, 1, 69, 0
3, 85080, Note_on_c, 1, 73, 90
3, 85127, Note_on_c, 1, 73, 0
3, 85140, Note_on_c, 1, 69, 90
3, 85187, Note_on_c, 1, 69, 0
3, 85200, Note_on_c, 1, 69, 90
3, 85247, Note_on_c, 1, 69, 0
3, 85260, Note_on_c, 1, 66, 90
3, 85307, Note_on_c, 1, 66, 0
3, 85320, Note_on_c, 1, 64, 90
3, 85367, Note_on_c, 1, 64, 0
3, 85380, Note_on_c, 1, 66, 90
3, 85403, Note_on_c, 1, 66, 0
3, 85410, Note_on_c, 1, 67, 90
3, 85433, Note_on_c, 1, 67, 0
3, 85440, Note_on_c, 1, 69, 90
3, 85487, Note_on_c, 1, 69, 0
3, 85500, Note_on_c, 1, 66, 90
3, 85547, Note_on_c, 1, 66, 0
3, 85560, Note_on_c, 1, 74, 90
3, 85655, Note_on_c, 1, 74, 0
3, 85740, Note_on_c, 1, 71, 90
3, 85787, Note_on_c, 1, 71, 0
3, 85800, Note_on_c, 1, 69, 90
3, 85847, Note_on_c, 1, 69, 0
3, 85860, Note_on_c, 1, 72, 90
3, 85907, Note_on_c, 1, 72, 0
3, 85920, Note_on_c, 1, 71, 90
3, 86160, Note_on_c, 1, 71, 0
3, 87900, Note_on_c, 1, 66, 90
3, 87947, Note_on_c, 1, 66, 0
3, 87960, Note_on_c, 1, 66, 90
3, 88007, Note_on_c, 1, 66, 0
3, 88020, Note_on_c, 1, 67, 90
3, 88067, Note_on_c, 1, 67, 0
3, 88080, Note_on_c, 1, 69, 90
3, 88127, Note_on_c, 1, 69, 0
3, 88140, Note_on_c, 1, 69, 90
3, 88187, Note_on_c, 1, 69, 0
3, 88200, Note_on_c, 1, 69, 90
3, 88247, Note_on_c, 1, 69, 0
3, 88260, Note_on_c, 1, 71, 90
3, 88307, Note_on_c, 1, 71, 0
3, 88320, Note_on_c, 1, 73, 90
3, 88367, Note_on_c, 1, 73, 0
3, 88380, Note_on_c, 1, 73, 90
3, 88427, Note_on_c, 1, 73, 0
3, 88440, Note_on_c, 1, 73, 90
3, 88487, Note_on_c, 1, 73, 0
3, 88500, Note_on_c, 1, 75, 90
3, 88547, Note_on_c, 1, 75, 0
3, 88560, Note_on_c, 1, 76, 90
3, 88607, Note_on_c, 1, 76, 0
3, 88620, Note_on_c, 1, 71, 90
3, 88667, Note_on_c, 1, 71, 0
3, 88680, Note_on_c, 1, 69, 90
3, 88727, Note_on_c, 1, 69, 0
3, 88740, Note_on_c, 1, 67, 90
3, 88787, Note_on_c, 1, 67, 0
3, 88800, Note_on_c, 1, 66, 90
3, 88847, Note_on_c, 1, 66, 0
3, 88860, Note_on_c, 1, 69, 90
3, 88907, Note_on_c, 1, 69, 0
3, 88920, Note_on_c, 1, 69, 90
3, 88967, Note_on_c, 1, 69, 0
3, 88980, Note_on_c, 1, 71, 90
3, 89027, Note_on_c, 1, 71, 0
3, 89040, Note_on_c, 1, 64, 90
3, 89087, Note_on_c, 1, 64, 0
3, 89100, Note_on_c, 1, 69, 90
3, 89147, Note_on_c, 1, 69, 0
3, 89160, Note_on_c, 1, 69, 90
3, 89207, Note_on_c, 1, 69, 0
3, 89220, Note_on_c, 1, 69, 90
3, 89267, Note_on_c, 1, 69, 0
3, 89280, Note_on_c, 1, 67, 90
3, 89327, Note_on_c, 1, 67, 0
3, 89340, Note_on_c, 1, 67, 90
3, 89387, Note_on_c, 1, 67, 0
3, 89400, Note_on_c, 1, 68, 90
3, 89447, Note_on_c, 1, 68, 0
3, 89460, Note_on_c, 1, 70, 90
3, 89507, Note_on_c, 1, 70, 0
3, 89520, Note_on_c, 1, 71, 90
3, 89567, Note_on_c, 1, 71, 0
3, 89580, Note_on_c, 1, 66, 90
3, 89627, Note_on_c, 1, 66, 0
3, 89640, Note_on_c, 1, 66, 90
3, 89687, Note_on_c, 1, 66, 0
3, 89700, Note_on_c, 1, 68, 90
3, 89747, Note_on_c, 1, 68, 0
3, 89760, Note_on_c, 1, 69, 90
3, 89807, Note_on_c, 1, 69, 0
3, 89820, Note_on_c, 1, 69, 90
3, 89867, Note_on_c, 1, 69, 0
3, 89880, Note_on_c, 1, 67, 90
3, 89927, Note_on_c, 1, 67, 0
3, 89940, Note_on_c, 1, 66, 90
3, 89987, Note_on_c, 1, 66, 0
3, 90000, Note_on_c, 1, 67, 90
3, 90047, Note_on_c, 1, 67, 0
3, 90060, Note_on_c, 1, 71, 90
3, 90155, Note_on_c, 1, 71, 0
3, 90180, Note_on_c, 1, 70, 90
3, 90227, Note_on_c, 1, 70, 0
3, 90240, Note_on_c, 1, 71, 90
3, 90287, Note_on_c, 1, 71, 0
3, 90300, Note_on_c, 1, 69, 90
3, 90347, Note_on_c, 1, 69, 0
3, 90360, Note_on_c, 1, 68, 90
3, 90455, Note_on_c, 1, 68, 0
3, 90480, Note_on_c, 1, 69, 90
3, 90527, Note_on_c, 1, 69, 0
3, 90540, Note_on_c, 1, 66, 90
3, 90587, Note_on_c, 1, 66, 0
3, 90600, Note_on_c, 1, 69, 90
3, 90647, Note_on_c, 1, 69, 0
3, 90660, Note_on_c, 1, 68, 90
3, 90707, Note_on_c, 1, 68, 0
3, 90720, Note_on_c, 1, 66, 90
3, 90863, Note_on_c, 1, 66, 0
3, 90900, Note_on_c, 1, 64, 90
3, 90947, Note_on_c, 1, 64, 0
3, 90960, Note_on_c, 1, 62, 90
3, 91007, Note_on_c, 1, 62, 0
3, 91020, Note_on_c, 1, 64, 90
3, 91067, Note_on_c, 1, 64, 0
3, 91080, Note_on_c, 1, 66, 90
3, 91127, Note_on_c, 1, 66, 0
3, 91140, Note_on_c, 1, 64, 90
3, 91187, Note_on_c, 1, 64, 0
3, 91200, Note_on_c, 1, 64, 90
3, 91295, Note_on_c, 1, 64, 0
3, 91320, Note_on_c, 1, 64, 90
3, 91367, Note_on_c, 1, 64, 0
3, 91380, Note_on_c, 1, 64, 90
3, 91427, Note_on_c, 1, 64, 0
3, 91440, Note_on_c, 1, 66, 90
3, 91487, Note_on_c, 1, 66, 0
3, 91500, Note_on_c, 1, 67, 90
3, 91547, Note_on_c, 1, 67, 0
3, 91560, Note_on_c, 1, 69, 90
3, 91607, Note_on_c, 1, 69, 0
3, 91620, Note_on_c, 1, 67, 90
3, 91643, Note_on_c, 1, 67, 0
3, 91650, Note_on_c, 1, 66, 90
3, 91673, Note_on_c, 1, 66, 0
3, 91680, Note_on_c, 1, 71, 90
3, 91919, Note_on_c, 1, 71, 0
3, 91980, Note_on_c, 1, 70, 90
3, 92027, Note_on_c, 1, 70, 0
3, 92040, Note_on_c, 1, 71, 90
3, 92087, Note_on_c, 1, 71, 0
3, 92100, Note_on_c, 1, 74, 90
3, 92195, Note_on_c, 1, 74, 0
3, 92220, Note_on_c, 1, 73, 90
3, 92243, Note_on_c, 1, 73, 0
3, 92250, Note_on_c, 1, 71, 90
3, 92273, Note_on_c, 1, 71, 0
3, 92280, Note_on_c, 1, 73, 90
3, 92303, Note_on_c, 1, 73, 0
3, 92310, Note_on_c, 1, 70, 90
3, 92333, Note_on_c, 1, 70, 0
3, 92340, Note_on_c, 1, 71, 90
3, 92387, Note_on_c, 1, 71, 0
3, 92400, Note_on_c, 1, 70, 100
3, 92520, Note_on_c, 1, 70, 0
3, 97800, Note_on_c, 1, 69, 90
3, 97919, Note_on_c, 1, 69, 0
3, 97920, Note_on_c, 1, 69, 90
3, 98039, Note_on_c, 1, 69, 0
3, 98040, Note_on_c, 1, 76, 90
3, 98159, Note_on_c, 1, 76, 0
3, 98160, Note_on_c, 1, 76, 90
3, 98279, Note_on_c, 1, 76, 0
3, 98280, Note_on_c, 1, 74, 90
3, 98339, Note_on_c, 1, 74, 0
3, 98340, Note_on_c, 1, 73, 90
3, 98399, Note_on_c, 1, 73, 0
3, 98400, Note_on_c, 1, 71, 90
3, 98519, Note_on_c, 1, 71, 0
3, 98520, Note_on_c, 1, 73, 90
3, 98639, Note_on_c, 1, 73, 0
3, 98640, Note_on_c, 1, 74, 90
3, 98699, Note_on_c, 1, 74, 0
3, 98700, Note_on_c, 1, 73, 90
3, 98759, Note_on_c, 1, 73, 0
3, 98760, Note_on_c, 1, 71, 90
3, 98879, Note_on_c, 1, 71, 0
3, 98880, Note_on_c, 1, 69, 90
3, 99119, Note_on_c, 1, 69, 0
3, 99240, Note_on_c, 1, 69, 90
3, 99359, Note_on_c, 1, 69, 0
3, 99360, Note_on_c, 1, 71, 90
3, 99479, Note_on_c, 1, 71, 0
3, 99480, Note_on_c, 1, 73, 90
3, 99599, Note_on_c, 1, 73, 0
3, 99600, Note_on_c, 1, 74, 90
3, 99719, Note_on_c, 1, 74, 0
3, 99720, Note_on_c, 1, 71, 90
3, 99839, Note_on_c, 1, 71, 0
3, 99840, Note_on_c, 1, 76, 90
3, 99959, Note_on_c, 1, 76, 0
3, 99960, Note_on_c, 1, 78, 90
3, 100079, Note_on_c, 1, 78, 0
3, 100080, Note_on_c, 1, 76, 90
3, 100175, Note_on_c, 1, 76, 0
3, 100200, Note_on_c, 1, 73, 90
3, 100319, Note_on_c, 1, 73, 0
3, 100320, Note_on_c, 1, 73, 90
3, 100379, Note_on_c, 1, 73, 0
3, 100380, Note_on_c, 1, 74, 90
3, 100439, Note_on_c, 1, 74, 0
3, 100440, Note_on_c, 1, 76, 90
3, 100559, Note_on_c, 1, 76, 0
3, 100560, Note_on_c, 1, 74, 90
3, 100679, Note_on_c, 1, 74, 0
3, 100680, Note_on_c, 1, 73, 90
3, 100739, Note_on_c, 1, 73, 0
3, 100740, Note_on_c, 1, 71, 90
3, 100799, Note_on_c, 1, 71, 0
3, 100800, Note_on_c, 1, 69, 90
3, 100859, Note_on_c, 1, 69, 0
3, 100860, Note_on_c, 1, 71, 90
3, 100919, Note_on_c, 1, 71, 0
3, 100920, Note_on_c, 1, 73, 90
3, 101039, Note_on_c, 1, 73, 0
3, 101040, Note_on_c, 1, 71, 90
3, 101135, Note_on_c, 1, 71, 0
3, 101160, Note_on_c, 1, 73, 90
3, 101279, Note_on_c, 1, 73, 0
3, 101280, Note_on_c, 1, 69, 90
3, 101399, Note_on_c, 1, 69, 0
3, 101400, Note_on_c, 1, 71, 90
3, 101459, Note_on_c, 1, 71, 0
3, 101460, Note_on_c, 1, 73, 90
3, 101519, Note_on_c, 1, 73, 0
3, 101520, Note_on_c, 1, 74, 90
3, 101615, Note_on_c, 1, 74, 0
3, 101640, Note_on_c, 1, 73, 90
3, 101759, Note_on_c, 1, 73, 0
3, 101760, Note_on_c, 1, 71, 90
3, 101879, Note_on_c, 1, 71, 0
3, 101880, Note_on_c, 1, 73, 90
3, 101999, Note_on_c, 1, 73, 0
3, 102000, Note_on_c, 1, 74, 90
3, 102095, Note_on_c, 1, 74, 0
3, 102120, Note_on_c, 1, 73, 90
3, 102239, Note_on_c, 1, 73, 0
3, 102240, Note_on_c, 1, 71, 90
3, 102359, Note_on_c, 1, 71, 0
3, 102360, Note_on_c, 1, 69, 90
3, 102479, Note_on_c, 1, 69, 0
3, 102480, Note_on_c, 1, 76, 90
3, 102659, Note_on_c, 1, 76, 0
3, 102660, Note_on_c, 1, 74, 90
3, 102719, Note_on_c, 1, 74, 0
3, 102720, Note_on_c, 1, 73, 90
3, 102839, Note_on_c, 1, 73, 0
3, 102840, Note_on_c, 1, 74, 90
3, 102899, Note_on_c, 1, 74, 0
3, 102900, Note_on_c, 1, 73, 90
3, 102959, Note_on_c, 1, 73, 0
3, 102960, Note_on_c, 1, 71, 90
3, 103199, Note_on_c, 1, 71, 0
3, 103200, Note_on_c, 1, 69, 90
3, 103559, Note_on_c, 1, 69, 0
3, 198720, Note_on_c, 1, 68, 90
3, 199199, Note_on_c, 1, 68, 0
3, 199200, Note_on_c, 1, 66, 90
3, 199319, Note_on_c, 1, 66, 0
3, 199320, Note_on_c, 1, 69, 90
3, 199679, Note_on_c, 1, 69, 0
3, 199680, Note_on_c, 1, 68, 90
3, 199799, Note_on_c, 1, 68, 0
3, 199800, Note_on_c, 1, 71, 90
3, 200159, Note_on_c, 1, 71, 0
3, 200160, Note_on_c, 1, 73, 90
3, 200519, Note_on_c, 1, 73, 0
3, 200520, Note_on_c, 1, 71, 90
3, 200549, Note_on_c, 1, 71, 0
3, 200550, Note_on_c, 1, 68, 90
3, 200579, Note_on_c, 1, 68, 0
3, 200580, Note_on_c, 1, 69, 90
3, 200639, Note_on_c, 1, 69, 0
3, 200760, Note_on_c, 1, 64, 90
3, 200789, Note_on_c, 1, 64, 0
3, 200790, Note_on_c, 1, 61, 90
3, 200819, Note_on_c, 1, 61, 0
3, 200820, Note_on_c, 1, 62, 90
3, 200879, Note_on_c, 1, 62, 0
3, 200880, Note_on_c, 1, 61, 90
3, 201119, Note_on_c, 1, 61, 0
3, 201240, Note_on_c, 1, 69, 90
3, 201359, Note_on_c, 1, 69, 0
3, 201360, Note_on_c, 1, 71, 90
3, 201479, Note_on_c, 1, 71, 0
3, 201480, Note_on_c, 1, 73, 90
3, 201539, Note_on_c, 1, 73, 0
3, 201540, Note_on_c, 1, 74, 90
3, 201599, Note_on_c, 1, 74, 0
3, 201600, Note_on_c, 1, 76, 90
3, 201719, Note_on_c, 1, 76, 0
3, 201720, Note_on_c, 1, 69, 90
3, 201839, Note_on_c, 1, 69, 0
3, 201840, Note_on_c, 1, 68, 90
3, 201959, Note_on_c, 1, 68, 0
3, 201960, Note_on_c, 1, 66, 90
3, 202079, Note_on_c, 1, 66, 0
3, 202080, Note_on_c, 1, 64, 90
3, 202175, Note_on_c, 1, 64, 0
3, 202200, Note_on_c, 1, 66, 90
3, 202319, Note_on_c, 1, 66, 0
3, 202320, Note_on_c, 1, 68, 90
3, 202439, Note_on_c, 1, 68, 0
3, 202440, Note_on_c, 1, 69, 90
3, 202559, Note_on_c, 1, 69, 0
3, 202560, Note_on_c, 1, 71, 90
3, 202679, Note_on_c, 1, 71, 0
3, 202680, Note_on_c, 1, 73, 90
3, 202739, Note_on_c, 1, 73, 0
3, 202740, Note_on_c, 1, 74, 90
3, 202799, Note_on_c, 1, 74, 0
3, 202800, Note_on_c, 1, 71, 90
3, 202919, Note_on_c, 1, 71, 0
3, 202920, Note_on_c, 1, 69, 90
3, 203135, Note_on_c, 1, 69, 0
3, 203160, Note_on_c, 1, 69, 90
3, 203279, Note_on_c, 1, 69, 0
3, 203280, Note_on_c, 1, 71, 90
3, 203399, Note_on_c, 1, 71, 0
3, 203400, Note_on_c, 1, 73, 90
3, 203459, Note_on_c, 1, 73, 0
3, 203460, Note_on_c, 1, 74, 90
3, 203519, Note_on_c, 1, 74, 0
3, 203520, Note_on_c, 1, 76, 90
3, 203639, Note_on_c, 1, 76, 0
3, 203640, Note_on_c, 1, 69, 90
3, 203759, Note_on_c, 1, 69, 0
3, 203760, Note_on_c, 1, 68, 90
3, 203879, Note_on_c, 1, 68, 0
3, 203880, Note_on_c, 1, 66, 90
3, 203999, Note_on_c, 1, 66, 0
3, 204000, Note_on_c, 1, 64, 90
3, 204095, Note_on_c, 1, 64, 0
3, 204120, Note_on_c, 1, 66, 90
3, 204239, Note_on_c, 1, 66, 0
3, 204240, Note_on_c, 1, 68, 90
3, 204359, Note_on_c, 1, 68, 0
3, 204360, Note_on_c, 1, 69, 90
3, 204479, Note_on_c, 1, 69, 0
3, 204480, Note_on_c, 1, 71, 90
3, 204599, Note_on_c, 1, 71, 0
3, 204600, Note_on_c, 1, 73, 90
3, 204659, Note_on_c, 1, 73, 0
3, 204660, Note_on_c, 1, 74, 90
3, 204719, Note_on_c, 1, 74, 0
3, 204720, Note_on_c, 1, 71, 90
3, 204839, Note_on_c, 1, 71, 0
3, 204840, Note_on_c, 1, 69, 90
3, 205055, Note_on_c, 1, 69, 0
3, 205080, Note_on_c, 1, 73, 90
3, 205199, Note_on_c, 1, 73, 0
3, 205200, Note_on_c, 1, 73, 90
3, 205319, Note_on_c, 1, 73, 0
3, 205320, Note_on_c, 1, 71, 90
3, 205439, Note_on_c, 1, 71, 0
3, 205440, Note_on_c, 1, 73, 90
3, 205559, Note_on_c, 1, 73, 0
3, 205560, Note_on_c, 1, 74, 90
3, 205679, Note_on_c, 1, 74, 0
3, 205680, Note_on_c, 1, 73, 90
3, 205739, Note_on_c, 1, 73, 0
3, 205740, Note_on_c, 1, 71, 90
3, 205799, Note_on_c, 1, 71, 0
3, 205800, Note_on_c, 1, 71, 90
3, 205859, Note_on_c, 1, 71, 0
3, 205860, Note_on_c, 1, 69, 90
3, 205919, Note_on_c, 1, 69, 0
3, 205920, Note_on_c, 1, 71, 90
3, 206015, Note_on_c, 1, 71, 0
3, 206040, Note_on_c, 1, 66, 90
3, 206159, Note_on_c, 1, 66, 0
3, 206160, Note_on_c, 1, 68, 90
3, 206279, Note_on_c, 1, 68, 0
3, 206280, Note_on_c, 1, 69, 90
3, 206399, Note_on_c, 1, 69, 0
3, 206400, Note_on_c, 1, 71, 90
3, 206519, Note_on_c, 1, 71, 0
3, 206520, Note_on_c, 1, 73, 90
3, 206579, Note_on_c, 1, 73, 0
3, 206580, Note_on_c, 1, 74, 90
3, 206639, Note_on_c, 1, 74, 0
3, 206640, Note_on_c, 1, 71, 90
3, 206759, Note_on_c, 1, 71, 0
3, 206760, Note_on_c, 1, 69, 90
3, 206819, Note_on_c, 1, 69, 0
3, 206820, Note_on_c, 1, 68, 90
3, 206879, Note_on_c, 1, 68, 0
3, 206880, Note_on_c, 1, 69, 90
3, 206999, Note_on_c, 1, 69, 0
3, 206999, End_track
4, 0, Start_track
4, 0, MIDI_port, 0
4, 0, Title_t, "Violin I"
4, 0, Program_c, 2, 48
4, 0, Control_c, 2, 7, 127
4, 0, Control_c, 2, 10, 84
4, 0, Note_on_c, 2, 76, 90
4, 47, Note_on_c, 2, 76, 0
4, 60, Note_on_c, 2, 73, 90
4, 107, Note_on_c, 2, 73, 0
4, 390, Note_on_c, 2, 76, 90
4, 413, Note_on_c, 2, 76, 0
4, 420, Note_on_c, 2, 81, 90
4, 443, Note_on_c, 2, 81, 0
4, 450, Note_on_c, 2, 76, 90
4, 473, Note_on_c, 2, 76, 0
4, 480, Note_on_c, 2, 73, 90
4, 503, Note_on_c, 2, 73, 0
4, 510, Note_on_c, 2, 76, 90
4, 533, Note_on_c, 2, 76, 0
4, 540, Note_on_c, 2, 69, 90
4, 563, Note_on_c, 2, 69, 0
4, 570, Note_on_c, 2, 73, 90
4, 593, Note_on_c, 2, 73, 0
4, 600, Note_on_c, 2, 68, 90
4, 623, Note_on_c, 2, 68, 0
4, 630, Note_on_c, 2, 74, 90
4, 653, Note_on_c, 2, 74, 0
4, 660, Note_on_c, 2, 73, 90
4, 683, Note_on_c, 2, 73, 0
4, 690, Note_on_c, 2, 71, 90
4, 713, Note_on_c, 2, 71, 0
4, 720, Note_on_c, 2, 73, 90
4, 767, Note_on_c, 2, 73, 0
4, 780, Note_on_c, 2, 69, 90
4, 827, Note_on_c, 2, 69, 0
4, 1110, Note_on_c, 2, 73, 90
4, 1133, Note_on_c, 2, 73, 0
4, 1140, Note_on_c, 2, 76, 90
4, 1163, Note_on_c, 2, 76, 0
4, 1170, Note_on_c, 2, 73, 90
4, 1193, Note_on_c, 2, 73, 0
4, 1200, Note_on_c, 2, 69, 90
4, 1223, Note_on_c, 2, 69, 0
4, 1230, Note_on_c, 2, 73, 90
4, 1253, Note_on_c, 2, 73, 0
4, 1260, Note_on_c, 2, 64, 90
4, 1283, Note_on_c, 2, 64, 0
4, 1290, Note_on_c, 2, 69, 90
4, 1313, Note_on_c, 2, 69, 0
4, 1320, Note_on_c, 2, 62, 90
4, 1343, Note_on_c, 2, 62, 0
4, 1350, Note_on_c, 2, 66, 90
4, 1373, Note_on_c, 2, 66, 0
4, 1380, Note_on_c, 2, 64, 90
4, 1403, Note_on_c, 2, 64, 0
4, 1410, Note_on_c, 2, 62, 90
4, 1433, Note_on_c, 2, 62, 0
4, 1440, Note_on_c, 2, 61, 90
4, 1463, Note_on_c, 2, 61, 0
4, 1470, Note_on_c, 2, 64, 90
4, 1493, Note_on_c, 2, 64, 0
4, 1500, Note_on_c, 2, 69, 90
4, 1523, Note_on_c, 2, 69, 0
4, 1530, Note_on_c, 2, 64, 90
4, 1553, Note_on_c, 2, 64, 0
4, 1560, Note_on_c, 2, 61, 90
4, 1583, Note_on_c, 2, 61, 0
4, 1590, Note_on_c, 2, 64, 90
4, 1613, Note_on_c, 2, 64, 0
4, 1620, Note_on_c, 2, 57, 90
4, 1643, Note_on_c, 2, 57, 0
4, 1650, Note_on_c, 2, 64, 90
4, 1673, Note_on_c, 2, 64, 0
4, 1680, Note_on_c, 2, 61, 90
4, 1703, Note_on_c, 2, 61, 0
4, 1710, Note_on_c, 2, 64, 90
4, 1733, Note_on_c, 2, 64, 0
4, 1740, Note_on_c, 2, 57, 90
4, 1763, Note_on_c, 2, 57, 0
4, 1770, Note_on_c, 2, 64, 90
4, 1793, Note_on_c, 2, 64, 0
4, 1800, Note_on_c, 2, 66, 90
4, 1823, Note_on_c, 2, 66, 0
4, 1830, Note_on_c, 2, 69, 90
4, 1853, Note_on_c, 2, 69, 0
4, 1860, Note_on_c, 2, 74, 90
4, 1883, Note_on_c, 2, 74, 0
4, 1890, Note_on_c, 2, 69, 90
4, 1913, Note_on_c, 2, 69, 0
4, 1920, Note_on_c, 2, 66, 90
4, 1943, Note_on_c, 2, 66, 0
4, 1950, Note_on_c, 2, 69, 90
4, 1973, Note_on_c, 2, 69, 0
4, 1980, Note_on_c, 2, 62, 90
4, 2003, Note_on_c, 2, 62, 0
4, 2010, Note_on_c, 2, 69, 90
4, 2033, Note_on_c, 2, 69, 0
4, 2040, Note_on_c, 2, 66, 90
4, 2063, Note_on_c, 2, 66, 0
4, 2070, Note_on_c, 2, 69, 90
4, 2093, Note_on_c, 2, 69, 0
4, 2100, Note_on_c, 2, 62, 90
4, 2123, Note_on_c, 2, 62, 0
4, 2130, Note_on_c, 2, 69, 90
4, 2153, Note_on_c, 2, 69, 0
4, 2160, Note_on_c, 2, 66, 90
4, 2183, Note_on_c, 2, 66, 0
4, 2190, Note_on_c, 2, 69, 90
4, 2213, Note_on_c, 2, 69, 0
4, 2220, Note_on_c, 2, 75, 90
4, 2243, Note_on_c, 2, 75, 0
4, 2250, Note_on_c, 2, 69, 90
4, 2273, Note_on_c, 2, 69, 0
4, 2280, Note_on_c, 2, 66, 90
4, 2303, Note_on_c, 2, 66, 0
4, 2310, Note_on_c, 2, 69, 90
4, 2333, Note_on_c, 2, 69, 0
4, 2340, Note_on_c, 2, 63, 90
4, 2363, Note_on_c, 2, 63, 0
4, 2370, Note_on_c, 2, 69, 90
4, 2393, Note_on_c, 2, 69, 0
4, 2400, Note_on_c, 2, 66, 90
4, 2423, Note_on_c, 2, 66, 0
4, 2430, Note_on_c, 2, 69, 90
4, 2453, Note_on_c, 2, 69, 0
4, 2460, Note_on_c, 2, 63, 90
4, 2483, Note_on_c, 2, 63, 0
4, 2490, Note_on_c, 2, 69, 90
4, 2513, Note_on_c, 2, 69, 0
4, 2520, Note_on_c, 2, 68, 90
4, 2543, Note_on_c, 2, 68, 0
4, 2550, Note_on_c, 2, 71, 90
4, 2573, Note_on_c, 2, 71, 0
4, 2580, Note_on_c, 2, 76, 90
4, 2603, Note_on_c, 2, 76, 0
4, 2610, Note_on_c, 2, 71, 90
4, 2633, Note_on_c, 2, 71, 0
4, 2640, Note_on_c, 2, 68, 90
4, 2663, Note_on_c, 2, 68, 0
4, 2670, Note_on_c, 2, 71, 90
4, 2693, Note_on_c, 2, 71, 0
4, 2700, Note_on_c, 2, 64, 90
4, 2723, Note_on_c, 2, 64, 0
4, 2730, Note_on_c, 2, 71, 90
4, 2753, Note_on_c, 2, 71, 0
4, 2760, Note_on_c, 2, 68, 90
4, 2783, Note_on_c, 2, 68, 0
4, 2790, Note_on_c, 2, 71, 90
4, 2813, Note_on_c, 2, 71, 0
4, 2820, Note_on_c, 2, 64, 90
4, 2843, Note_on_c, 2, 64, 0
4, 2850, Note_on_c, 2, 71, 90
4, 2873, Note_on_c, 2, 71, 0
4, 2880, Note_on_c, 2, 74, 90
4, 2903, Note_on_c, 2, 74, 0
4, 2910, Note_on_c, 2, 80, 90
4, 2933, Note_on_c, 2, 80, 0
4, 2940, Note_on_c, 2, 83, 90
4, 2963, Note_on_c, 2, 83, 0
4, 2970, Note_on_c, 2, 80, 90
4, 2993, Note_on_c, 2, 80, 0
4, 3000, Note_on_c, 2, 74, 90
4, 3023, Note_on_c, 2, 74, 0
4, 3030, Note_on_c, 2, 80, 90
4, 3053, Note_on_c, 2, 80, 0
4, 3060, Note_on_c, 2, 71, 90
4, 3083, Note_on_c, 2, 71, 0
4, 3090, Note_on_c, 2, 80, 90
4, 3113, Note_on_c, 2, 80, 0
4, 3120, Note_on_c, 2, 74, 90
4, 3143, Note_on_c, 2, 74, 0
4, 3150, Note_on_c, 2, 80, 90
4, 3173, Note_on_c, 2, 80, 0
4, 3180, Note_on_c, 2, 71, 90
4, 3203, Note_on_c, 2, 71, 0
4, 3210, Note_on_c, 2, 80, 90
4, 3233, Note_on_c, 2, 80, 0
4, 3240, Note_on_c, 2, 81, 90
4, 3263, Note_on_c, 2, 81, 0
4, 3270, Note_on_c, 2, 76, 90
4, 3293, Note_on_c, 2, 76, 0
4, 3300, Note_on_c, 2, 73, 90
4, 3323, Note_on_c, 2, 73, 0
4, 3330, Note_on_c, 2, 76, 90
4, 3353, Note_on_c, 2, 76, 0
4, 3360, Note_on_c, 2, 81, 90
4, 3383, Note_on_c, 2, 81, 0
4, 3390, Note_on_c, 2, 76, 90
4, 3413, Note_on_c, 2, 76, 0
4, 3420, Note_on_c, 2, 81, 90
4, 3443, Note_on_c, 2, 81, 0
4, 3450, Note_on_c, 2, 85, 90
4, 3473, Note_on_c, 2, 85, 0
4, 3480, Note_on_c, 2, 88, 90
4, 3503, Note_on_c, 2, 88, 0
4, 3510, Note_on_c, 2, 79, 90
4, 3533, Note_on_c, 2, 79, 0
4, 3540, Note_on_c, 2, 78, 90
4, 3563, Note_on_c, 2, 78, 0
4, 3570, Note_on_c, 2, 76, 90
4, 3593, Note_on_c, 2, 76, 0
4, 3600, Note_on_c, 2, 78, 90
4, 3623, Note_on_c, 2, 78, 0
4, 3630, Note_on_c, 2, 74, 90
4, 3653, Note_on_c, 2, 74, 0
4, 3660, Note_on_c, 2, 69, 90
4, 3683, Note_on_c, 2, 69, 0
4, 3690, Note_on_c, 2, 74, 90
4, 3713, Note_on_c, 2, 74, 0
4, 3720, Note_on_c, 2, 78, 90
4, 3743, Note_on_c, 2, 78, 0
4, 3750, Note_on_c, 2, 74, 90
4, 3773, Note_on_c, 2, 74, 0
4, 3780, Note_on_c, 2, 78, 90
4, 3803, Note_on_c, 2, 78, 0
4, 3810, Note_on_c, 2, 81, 90
4, 3833, Note_on_c, 2, 81, 0
4, 3840, Note_on_c, 2, 86, 90
4, 3863, Note_on_c, 2, 86, 0
4, 3870, Note_on_c, 2, 78, 90
4, 3893, Note_on_c, 2, 78, 0
4, 3900, Note_on_c, 2, 76, 90
4, 3923, Note_on_c, 2, 76, 0
4, 3930, Note_on_c, 2, 74, 90
4, 3953, Note_on_c, 2, 74, 0
4, 3960, Note_on_c, 2, 76, 90
4, 3983, Note_on_c, 2, 76, 0
4, 3990, Note_on_c, 2, 73, 90
4, 4013, Note_on_c, 2, 73, 0
4, 4020, Note_on_c, 2, 69, 90
4, 4043, Note_on_c, 2, 69, 0
4, 4050, Note_on_c, 2, 73, 90
4, 4073, Note_on_c, 2, 73, 0
4, 4080, Note_on_c, 2, 76, 90
4, 4103, Note_on_c, 2, 76, 0
4, 4110, Note_on_c, 2, 73, 90
4, 4133, Note_on_c, 2, 73, 0
4, 4140, Note_on_c, 2, 76, 90
4, 4163, Note_on_c, 2, 76, 0
4, 4170, Note_on_c, 2, 81, 90
4, 4193, Note_on_c, 2, 81, 0
4, 4200, Note_on_c, 2, 85, 90
4, 4223, Note_on_c, 2, 85, 0
4, 4230, Note_on_c, 2, 76, 90
4, 4253, Note_on_c, 2, 76, 0
4, 4260, Note_on_c, 2, 74, 90
4, 4283, Note_on_c, 2, 74, 0
4, 4290, Note_on_c, 2, 73, 90
4, 4313, Note_on_c, 2, 73, 0
4, 4320, Note_on_c, 2, 74, 90
4, 4343, Note_on_c, 2, 74, 0
4, 4350, Note_on_c, 2, 71, 90
4, 4373, Note_on_c, 2, 71, 0
4, 4380, Note_on_c, 2, 68, 90
4, 4403, Note_on_c, 2, 68, 0
4, 4410, Note_on_c, 2, 71, 90
4, 4433, Note_on_c, 2, 71, 0
4, 4440, Note_on_c, 2, 74, 90
4, 4463, Note_on_c, 2, 74, 0
4, 4470, Note_on_c, 2, 71, 90
4, 4493, Note_on_c, 2, 71, 0
4, 4500, Note_on_c, 2, 74, 90
4, 4523, Note_on_c, 2, 74, 0
4, 4530, Note_on_c, 2, 80, 90
4, 4553, Note_on_c, 2, 80, 0
4, 4560, Note_on_c, 2, 83, 90
4, 4583, Note_on_c, 2, 83, 0
4, 4590, Note_on_c, 2, 74, 90
4, 4613, Note_on_c, 2, 74, 0
4, 4620, Note_on_c, 2, 73, 90
4, 4643, Note_on_c, 2, 73, 0
4, 4650, Note_on_c, 2, 71, 90
4, 4673, Note_on_c, 2, 71, 0
4, 4680, Note_on_c, 2, 73, 90
4, 4703, Note_on_c, 2, 73, 0
4, 4710, Note_on_c, 2, 69, 90
4, 4733, Note_on_c, 2, 69, 0
4, 4740, Note_on_c, 2, 71, 90
4, 4763, Note_on_c, 2, 71, 0
4, 4770, Note_on_c, 2, 73, 90
4, 4793, Note_on_c, 2, 73, 0
4, 4800, Note_on_c, 2, 74, 90
4, 4823, Note_on_c, 2, 74, 0
4, 4830, Note_on_c, 2, 71, 90
4, 4853, Note_on_c, 2, 71, 0
4, 4860, Note_on_c, 2, 73, 90
4, 4883, Note_on_c, 2, 73, 0
4, 4890, Note_on_c, 2, 74, 90
4, 4913, Note_on_c, 2, 74, 0
4, 4920, Note_on_c, 2, 76, 90
4, 4943, Note_on_c, 2, 76, 0
4, 4950, Note_on_c, 2, 73, 90
4, 4973, Note_on_c, 2, 73, 0
4, 4980, Note_on_c, 2, 74, 90
4, 5003, Note_on_c, 2, 74, 0
4, 5010, Note_on_c, 2, 76, 90
4, 5033, Note_on_c, 2, 76, 0
4, 5040, Note_on_c, 2, 78, 90
4, 5063, Note_on_c, 2, 78, 0
4, 5070, Note_on_c, 2, 74, 90
4, 5093, Note_on_c, 2, 74, 0
4, 5100, Note_on_c, 2, 76, 90
4, 5123, Note_on_c, 2, 76, 0
4, 5130, Note_on_c, 2, 78, 90
4, 5153, Note_on_c, 2, 78, 0
4, 5160, Note_on_c, 2, 80, 90
4, 5183, Note_on_c, 2, 80, 0
4, 5190, Note_on_c, 2, 76, 90
4, 5213, Note_on_c, 2, 76, 0
4, 5220, Note_on_c, 2, 78, 90
4, 5243, Note_on_c, 2, 78, 0
4, 5250, Note_on_c, 2, 80, 90
4, 5273, Note_on_c, 2, 80, 0
4, 5280, Note_on_c, 2, 81, 90
4, 5303, Note_on_c, 2, 81, 0
4, 5310, Note_on_c, 2, 78, 90
4, 5333, Note_on_c, 2, 78, 0
4, 5340, Note_on_c, 2, 80, 90
4, 5363, Note_on_c, 2, 80, 0
4, 5370, Note_on_c, 2, 81, 90
4, 5393, Note_on_c, 2, 81, 0
4, 5400, Note_on_c, 2, 83, 90
4, 5423, Note_on_c, 2, 83, 0
4, 5430, Note_on_c, 2, 74, 90
4, 5453, Note_on_c, 2, 74, 0
4, 5460, Note_on_c, 2, 73, 90
4, 5483, Note_on_c, 2, 73, 0
4, 5490, Note_on_c, 2, 71, 90
4, 5513, Note_on_c, 2, 71, 0
4, 5520, Note_on_c, 2, 73, 90
4, 5543, Note_on_c, 2, 73, 0
4, 5550, Note_on_c, 2, 76, 90
4, 5573, Note_on_c, 2, 76, 0
4, 5580, Note_on_c, 2, 73, 90
4, 5603, Note_on_c, 2, 73, 0
4, 5610, Note_on_c, 2, 69, 90
4, 5633, Note_on_c, 2, 69, 0
4, 5640, Note_on_c, 2, 64, 90
4, 5687, Note_on_c, 2, 64, 0
4, 5700, Note_on_c, 2, 68, 90
4, 5747, Note_on_c, 2, 68, 0
4, 5760, Note_on_c, 2, 69, 90
4, 5855, Note_on_c, 2, 69, 0
4, 6870, Note_on_c, 2, 76, 90
4, 6893, Note_on_c, 2, 76, 0
4, 6900, Note_on_c, 2, 81, 90
4, 6923, Note_on_c, 2, 81, 0
4, 6930, Note_on_c, 2, 76, 90
4, 6953, Note_on_c, 2, 76, 0
4, 6960, Note_on_c, 2, 73, 90
4, 6983, Note_on_c, 2, 73, 0
4, 6990, Note_on_c, 2, 76, 90
4, 7013, Note_on_c, 2, 76, 0
4, 7020, Note_on_c, 2, 69, 90
4, 7043, Note_on_c, 2, 69, 0
4, 7050, Note_on_c, 2, 73, 90
4, 7073, Note_on_c, 2, 73, 0
4, 7080, Note_on_c, 2, 68, 90
4, 7103, Note_on_c, 2, 68, 0
4, 7110, Note_on_c, 2, 74, 90
4, 7133, Note_on_c, 2, 74, 0
4, 7140, Note_on_c, 2, 73, 90
4, 7163, Note_on_c, 2, 73, 0
4, 7170, Note_on_c, 2, 71, 90
4, 7193, Note_on_c, 2, 71, 0
4, 7200, Note_on_c, 2, 73, 90
4, 7247, Note_on_c, 2, 73, 0
4, 7260, Note_on_c, 2, 69, 90
4, 7307, Note_on_c, 2, 69, 0
4, 8670, Note_on_c, 2, 71, 90
4, 8693, Note_on_c, 2, 71, 0
4, 8700, Note_on_c, 2, 76, 90
4, 8723, Note_on_c, 2, 76, 0
4, 8730, Note_on_c, 2, 71, 90
4, 8753, Note_on_c, 2, 71, 0
4, 8760, Note_on_c, 2, 68, 90
4, 8783, Note_on_c, 2, 68, 0
4, 8790, Note_on_c, 2, 71, 90
4, 8813, Note_on_c, 2, 71, 0
4, 8820, Note_on_c, 2, 64, 90
4, 8843, Note_on_c, 2, 64, 0
4, 8850, Note_on_c, 2, 68, 90
4, 8873, Note_on_c, 2, 68, 0
4, 8880, Note_on_c, 2, 63, 90
4, 8903, Note_on_c, 2, 63, 0
4, 8910, Note_on_c, 2, 69, 90
4, 8933, Note_on_c, 2, 69, 0
4, 8940, Note_on_c, 2, 68, 90
4, 8963, Note_on_c, 2, 68, 0
4, 8970, Note_on_c, 2, 66, 90
4, 8993, Note_on_c, 2, 66, 0
4, 9000, Note_on_c, 2, 68, 90
4, 9047, Note_on_c, 2, 68, 0
4, 9060, Note_on_c, 2, 64, 90
4, 9107, Note_on_c, 2, 64, 0
4, 10470, Note_on_c, 2, 76, 90
4, 10493, Note_on_c, 2, 76, 0
4, 10500, Note_on_c, 2, 81, 90
4, 10523, Note_on_c, 2, 81, 0
4, 10530, Note_on_c, 2, 76, 90
4, 10553, Note_on_c, 2, 76, 0
4, 10560, Note_on_c, 2, 73, 90
4, 10583, Note_on_c, 2, 73, 0
4, 10590, Note_on_c, 2, 76, 90
4, 10613, Note_on_c, 2, 76, 0
4, 10620, Note_on_c, 2, 69, 90
4, 10643, Note_on_c, 2, 69, 0
4, 10650, Note_on_c, 2, 73, 90
4, 10673, Note_on_c, 2, 73, 0
4, 10680, Note_on_c, 2, 68, 90
4, 10703, Note_on_c, 2, 68, 0
4, 10710, Note_on_c, 2, 74, 90
4, 10733, Note_on_c, 2, 74, 0
4, 10740, Note_on_c, 2, 73, 90
4, 10763, Note_on_c, 2, 73, 0
4, 10770, Note_on_c, 2, 71, 90
4, 10793, Note_on_c, 2, 71, 0
4, 10800, Note_on_c, 2, 73, 90
4, 10847, Note_on_c, 2, 73, 0
4, 10860, Note_on_c, 2, 69, 90
4, 10907, Note_on_c, 2, 69, 0
4, 11520, Note_on_c, 2, 71, 90
4, 11550, Note_on_c, 2, 71, 0
4, 11580, Note_on_c, 2, 76, 90
4, 11610, Note_on_c, 2, 76, 0
4, 12240, Note_on_c, 2, 78, 90
4, 12270, Note_on_c, 2, 78, 0
4, 12300, Note_on_c, 2, 71, 90
4, 12330, Note_on_c, 2, 71, 0
4, 12960, Note_on_c, 2, 73, 90
4, 12990, Note_on_c, 2, 73, 0
4, 13020, Note_on_c, 2, 81, 90
4, 13050, Note_on_c, 2, 81, 0
4, 13680, Note_on_c, 2, 80, 90
4, 13710, Note_on_c, 2, 80, 0
4, 13740, Note_on_c, 2, 76, 90
4, 13770, Note_on_c, 2, 76, 0
4, 14430, Note_on_c, 2, 78, 90
4, 14453, Note_on_c, 2, 78, 0
4, 14460, Note_on_c, 2, 83, 90
4, 14483, Note_on_c, 2, 83, 0
4, 14490, Note_on_c, 2, 78, 90
4, 14513, Note_on_c, 2, 78, 0
4, 14520, Note_on_c, 2, 75, 90
4, 14543, Note_on_c, 2, 75, 0
4, 14550, Note_on_c, 2, 78, 90
4, 14573, Note_on_c, 2, 78, 0
4, 14580, Note_on_c, 2, 71, 90
4, 14603, Note_on_c, 2, 71, 0
4, 14610, Note_on_c, 2, 75, 90
4, 14633, Note_on_c, 2, 75, 0
4, 14640, Note_on_c, 2, 66, 90
4, 14663, Note_on_c, 2, 66, 0
4, 14670, Note_on_c, 2, 69, 90
4, 14693, Note_on_c, 2, 69, 0
4, 14700, Note_on_c, 2, 68, 90
4, 14723, Note_on_c, 2, 68, 0
4, 14730, Note_on_c, 2, 66, 90
4, 14753, Note_on_c, 2, 66, 0
4, 14760, Note_on_c, 2, 64, 90
4, 14783, Note_on_c, 2, 64, 0
4, 14790, Note_on_c, 2, 71, 90
4, 14813, Note_on_c, 2, 71, 0
4, 14820, Note_on_c, 2, 76, 90
4, 14843, Note_on_c, 2, 76, 0
4, 14850, Note_on_c, 2, 71, 90
4, 14873, Note_on_c, 2, 71, 0
4, 14880, Note_on_c, 2, 68, 90
4, 14903, Note_on_c, 2, 68, 0
4, 14910, Note_on_c, 2, 71, 90
4, 14933, Note_on_c, 2, 71, 0
4, 14940, Note_on_c, 2, 64, 90
4, 14963, Note_on_c, 2, 64, 0
4, 14970, Note_on_c, 2, 71, 90
4, 14993, Note_on_c, 2, 71, 0
4, 15000, Note_on_c, 2, 68, 90
4, 15023, Note_on_c, 2, 68, 0
4, 15030, Note_on_c, 2, 71, 90
4, 15053, Note_on_c, 2, 71, 0
4, 15060, Note_on_c, 2, 64, 90
4, 15083, Note_on_c, 2, 64, 0
4, 15090, Note_on_c, 2, 71, 90
4, 15113, Note_on_c, 2, 71, 0
4, 15120, Note_on_c, 2, 73, 90
4, 15143, Note_on_c, 2, 73, 0
4, 15150, Note_on_c, 2, 76, 90
4, 15173, Note_on_c, 2, 76, 0
4, 15180, Note_on_c, 2, 81, 90
4, 15203, Note_on_c, 2, 81, 0
4, 15210, Note_on_c, 2, 76, 90
4, 15233, Note_on_c, 2, 76, 0
4, 15240, Note_on_c, 2, 73, 90
4, 15263, Note_on_c, 2, 73, 0
4, 15270, Note_on_c, 2, 76, 90
4, 15293, Note_on_c, 2, 76, 0
4, 15300, Note_on_c, 2, 69, 90
4, 15323, Note_on_c, 2, 69, 0
4, 15330, Note_on_c, 2, 76, 90
4, 15353, Note_on_c, 2, 76, 0
4, 15360, Note_on_c, 2, 73, 90
4, 15383, Note_on_c, 2, 73, 0
4, 15390, Note_on_c, 2, 76, 90
4, 15413, Note_on_c, 2, 76, 0
4, 15420, Note_on_c, 2, 69, 90
4, 15443, Note_on_c, 2, 69, 0
4, 15450, Note_on_c, 2, 76, 90
4, 15473, Note_on_c, 2, 76, 0
4, 15480, Note_on_c, 2, 73, 90
4, 15503, Note_on_c, 2, 73, 0
4, 15510, Note_on_c, 2, 76, 90
4, 15533, Note_on_c, 2, 76, 0
4, 15540, Note_on_c, 2, 82, 90
4, 15563, Note_on_c, 2, 82, 0
4, 15570, Note_on_c, 2, 76, 90
4, 15593, Note_on_c, 2, 76, 0
4, 15600, Note_on_c, 2, 73, 90
4, 15623, Note_on_c, 2, 73, 0
4, 15630, Note_on_c, 2, 76, 90
4, 15653, Note_on_c, 2, 76, 0
4, 15660, Note_on_c, 2, 70, 90
4, 15683, Note_on_c, 2, 70, 0
4, 15690, Note_on_c, 2, 76, 90
4, 15713, Note_on_c, 2, 76, 0
4, 15720, Note_on_c, 2, 73, 90
4, 15743, Note_on_c, 2, 73, 0
4, 15750, Note_on_c, 2, 76, 90
4, 15773, Note_on_c, 2, 76, 0
4, 15780, Note_on_c, 2, 70, 90
4, 15803, Note_on_c, 2, 70, 0
4, 15810, Note_on_c, 2, 76, 90
4, 15833, Note_on_c, 2, 76, 0
4, 15840, Note_on_c, 2, 75, 90
4, 15863, Note_on_c, 2, 75, 0
4, 15870, Note_on_c, 2, 78, 90
4, 15893, Note_on_c, 2, 78, 0
4, 15900, Note_on_c, 2, 83, 90
4, 15923, Note_on_c, 2, 83, 0
4, 15930, Note_on_c, 2, 78, 90
4, 15953, Note_on_c, 2, 78, 0
4, 15960, Note_on_c, 2, 75, 90
4, 15983, Note_on_c, 2, 75, 0
4, 15990, Note_on_c, 2, 78, 90
4, 16013, Note_on_c, 2, 78, 0
4, 16020, Note_on_c, 2, 71, 90
4, 16043, Note_on_c, 2, 71, 0
4, 16050, Note_on_c, 2, 78, 90
4, 16073, Note_on_c, 2, 78, 0
4, 16080, Note_on_c, 2, 75, 90
4, 16103, Note_on_c, 2, 75, 0
4, 16110, Note_on_c, 2, 78, 90
4, 16133, Note_on_c, 2, 78, 0
4, 16140, Note_on_c, 2, 71, 90
4, 16163, Note_on_c, 2, 71, 0
4, 16170, Note_on_c, 2, 78, 90
4, 16193, Note_on_c, 2, 78, 0
4, 16200, Note_on_c, 2, 69, 90
4, 16223, Note_on_c, 2, 69, 0
4, 16230, Note_on_c, 2, 75, 90
4, 16253, Note_on_c, 2, 75, 0
4, 16260, Note_on_c, 2, 78, 90
4, 16283, Note_on_c, 2, 78, 0
4, 16290, Note_on_c, 2, 75, 90
4, 16313, Note_on_c, 2, 75, 0
4, 16320, Note_on_c, 2, 69, 90
4, 16343, Note_on_c, 2, 69, 0
4, 16350, Note_on_c, 2, 75, 90
4, 16373, Note_on_c, 2, 75, 0
4, 16380, Note_on_c, 2, 66, 90
4, 16403, Note_on_c, 2, 66, 0
4, 16410, Note_on_c, 2, 75, 90
4, 16433, Note_on_c, 2, 75, 0
4, 16440, Note_on_c, 2, 69, 90
4, 16463, Note_on_c, 2, 69, 0
4, 16470, Note_on_c, 2, 75, 90
4, 16493, Note_on_c, 2, 75, 0
4, 16500, Note_on_c, 2, 66, 90
4, 16523, Note_on_c, 2, 66, 0
4, 16530, Note_on_c, 2, 75, 90
4, 16553, Note_on_c, 2, 75, 0
4, 16560, Note_on_c, 2, 76, 90
4, 16583, Note_on_c, 2, 76, 0
4, 16590, Note_on_c, 2, 71, 90
4, 16613, Note_on_c, 2, 71, 0
4, 16620, Note_on_c, 2, 68, 90
4, 16643, Note_on_c, 2, 68, 0
4, 16650, Note_on_c, 2, 71, 90
4, 16673, Note_on_c, 2, 71, 0
4, 16680, Note_on_c, 2, 76, 90
4, 16703, Note_on_c, 2, 76, 0
4, 16710, Note_on_c, 2, 71, 90
4, 16733, Note_on_c, 2, 71, 0
4, 16740, Note_on_c, 2, 76, 90
4, 16763, Note_on_c, 2, 76, 0
4, 16770, Note_on_c, 2, 80, 90
4, 16793, Note_on_c, 2, 80, 0
4, 16800, Note_on_c, 2, 83, 90
4, 16823, Note_on_c, 2, 83, 0
4, 16830, Note_on_c, 2, 74, 90
4, 16853, Note_on_c, 2, 74, 0
4, 16860, Note_on_c, 2, 73, 90
4, 16883, Note_on_c, 2, 73, 0
4, 16890, Note_on_c, 2, 71, 90
4, 16913, Note_on_c, 2, 71, 0
4, 16920, Note_on_c, 2, 73, 90
4, 16943, Note_on_c, 2, 73, 0
4, 16950, Note_on_c, 2, 69, 90
4, 16973, Note_on_c, 2, 69, 0
4, 16980, Note_on_c, 2, 64, 90
4, 17003, Note_on_c, 2, 64, 0
4, 17010, Note_on_c, 2, 69, 90
4, 17033, Note_on_c, 2, 69, 0
4, 17040, Note_on_c, 2, 73, 90
4, 17063, Note_on_c, 2, 73, 0
4, 17070, Note_on_c, 2, 69, 90
4, 17093, Note_on_c, 2, 69, 0
4, 17100, Note_on_c, 2, 73, 90
4, 17123, Note_on_c, 2, 73, 0
4, 17130, Note_on_c, 2, 76, 90
4, 17153, Note_on_c, 2, 76, 0
4, 17160, Note_on_c, 2, 81, 90
4, 17183, Note_on_c, 2, 81, 0
4, 17190, Note_on_c, 2, 73, 90
4, 17213, Note_on_c, 2, 73, 0
4, 17220, Note_on_c, 2, 71, 90
4, 17243, Note_on_c, 2, 71, 0
4, 17250, Note_on_c, 2, 69, 90
4, 17273, Note_on_c, 2, 69, 0
4, 17280, Note_on_c, 2, 71, 90
4, 17303, Note_on_c, 2, 71, 0
4, 17310, Note_on_c, 2, 68, 90
4, 17333, Note_on_c, 2, 68, 0
4, 17340, Note_on_c, 2, 64, 90
4, 17363, Note_on_c, 2, 64, 0
4, 17370, Note_on_c, 2, 68, 90
4, 17393, Note_on_c, 2, 68, 0
4, 17400, Note_on_c, 2, 71, 90
4, 17423, Note_on_c, 2, 71, 0
4, 17430, Note_on_c, 2, 68, 90
4, 17453, Note_on_c, 2, 68, 0
4, 17460, Note_on_c, 2, 71, 90
4, 17483, Note_on_c, 2, 71, 0
4, 17490, Note_on_c, 2, 76, 90
4, 17513, Note_on_c, 2, 76, 0
4, 17520, Note_on_c, 2, 80, 90
4, 17543, Note_on_c, 2, 80, 0
4, 17550, Note_on_c, 2, 71, 90
4, 17573, Note_on_c, 2, 71, 0
4, 17580, Note_on_c, 2, 69, 90
4, 17603, Note_on_c, 2, 69, 0
4, 17610, Note_on_c, 2, 68, 90
4, 17633, Note_on_c, 2, 68, 0
4, 17640, Note_on_c, 2, 69, 90
4, 17663, Note_on_c, 2, 69, 0
4, 17670, Note_on_c, 2, 66, 90
4, 17693, Note_on_c, 2, 66, 0
4, 17700, Note_on_c, 2, 63, 90
4, 17723, Note_on_c, 2, 63, 0
4, 17730, Note_on_c, 2, 66, 90
4, 17753, Note_on_c, 2, 66, 0
4, 17760, Note_on_c, 2, 69, 90
4, 17783, Note_on_c, 2, 69, 0
4, 17790, Note_on_c, 2, 66, 90
4, 17813, Note_on_c, 2, 66, 0
4, 17820, Note_on_c, 2, 69, 90
4, 17843, Note_on_c, 2, 69, 0
4, 17850, Note_on_c, 2, 75, 90
4, 17873, Note_on_c, 2, 75, 0
4, 17880, Note_on_c, 2, 78, 90
4, 17903, Note_on_c, 2, 78, 0
4, 17910, Note_on_c, 2, 69, 90
4, 17933, Note_on_c, 2, 69, 0
4, 17940, Note_on_c, 2, 68, 90
4, 17963, Note_on_c, 2, 68, 0
4, 17970, Note_on_c, 2, 66, 90
4, 17993, Note_on_c, 2, 66, 0
4, 18000, Note_on_c, 2, 68, 90
4, 18023, Note_on_c, 2, 68, 0
4, 18030, Note_on_c, 2, 64, 90
4, 18053, Note_on_c, 2, 64, 0
4, 18060, Note_on_c, 2, 66, 90
4, 18083, Note_on_c, 2, 66, 0
4, 18090, Note_on_c, 2, 68, 90
4, 18113, Note_on_c, 2, 68, 0
4, 18120, Note_on_c, 2, 69, 90
4, 18143, Note_on_c, 2, 69, 0
4, 18150, Note_on_c, 2, 66, 90
4, 18173, Note_on_c, 2, 66, 0
4, 18180, Note_on_c, 2, 68, 90
4, 18203, Note_on_c, 2, 68, 0
4, 18210, Note_on_c, 2, 69, 90
4, 18233, Note_on_c, 2, 69, 0
4, 18240, Note_on_c, 2, 71, 90
4, 18263, Note_on_c, 2, 71, 0
4, 18270, Note_on_c, 2, 68, 90
4, 18293, Note_on_c, 2, 68, 0
4, 18300, Note_on_c, 2, 69, 90
4, 18323, Note_on_c, 2, 69, 0
4, 18330, Note_on_c, 2, 71, 90
4, 18353, Note_on_c, 2, 71, 0
4, 18360, Note_on_c, 2, 73, 90
4, 18383, Note_on_c, 2, 73, 0
4, 18390, Note_on_c, 2, 69, 90
4, 18413, Note_on_c, 2, 69, 0
4, 18420, Note_on_c, 2, 71, 90
4, 18443, Note_on_c, 2, 71, 0
4, 18450, Note_on_c, 2, 73, 90
4, 18473, Note_on_c, 2, 73, 0
4, 18480, Note_on_c, 2, 75, 90
4, 18503, Note_on_c, 2, 75, 0
4, 18510, Note_on_c, 2, 71, 90
4, 18533, Note_on_c, 2, 71, 0
4, 18540, Note_on_c, 2, 73, 90
4, 18563, Note_on_c, 2, 73, 0
4, 18570, Note_on_c, 2, 75, 90
4, 18593, Note_on_c, 2, 75, 0
4, 18600, Note_on_c, 2, 76, 90
4, 18623, Note_on_c, 2, 76, 0
4, 18630, Note_on_c, 2, 73, 90
4, 18653, Note_on_c, 2, 73, 0
4, 18660, Note_on_c, 2, 75, 90
4, 18683, Note_on_c, 2, 75, 0
4, 18690, Note_on_c, 2, 76, 90
4, 18713, Note_on_c, 2, 76, 0
4, 18720, Note_on_c, 2, 78, 90
4, 18743, Note_on_c, 2, 78, 0
4, 18750, Note_on_c, 2, 69, 90
4, 18773, Note_on_c, 2, 69, 0
4, 18780, Note_on_c, 2, 68, 90
4, 18803, Note_on_c, 2, 68, 0
4, 18810, Note_on_c, 2, 66, 90
4, 18833, Note_on_c, 2, 66, 0
4, 18840, Note_on_c, 2, 68, 90
4, 18863, Note_on_c, 2, 68, 0
4, 18870, Note_on_c, 2, 71, 90
4, 18893, Note_on_c, 2, 71, 0
4, 18900, Note_on_c, 2, 68, 90
4, 18923, Note_on_c, 2, 68, 0
4, 18930, Note_on_c, 2, 64, 90
4, 18953, Note_on_c, 2, 64, 0
4, 18960, Note_on_c, 2, 59, 90
4, 19007, Note_on_c, 2, 59, 0
4, 19020, Note_on_c, 2, 75, 90
4, 19067, Note_on_c, 2, 75, 0
4, 19080, Note_on_c, 2, 76, 90
4, 19127, Note_on_c, 2, 76, 0
4, 19140, Note_on_c, 2, 71, 90
4, 19187, Note_on_c, 2, 71, 0
4, 19470, Note_on_c, 2, 83, 90
4, 19493, Note_on_c, 2, 83, 0
4, 19500, Note_on_c, 2, 88, 90
4, 19523, Note_on_c, 2, 88, 0
4, 19530, Note_on_c, 2, 83, 90
4, 19553, Note_on_c, 2, 83, 0
4, 19560, Note_on_c, 2, 80, 90
4, 19583, Note_on_c, 2, 80, 0
4, 19590, Note_on_c, 2, 83, 90
4, 19613, Note_on_c, 2, 83, 0
4, 19620, Note_on_c, 2, 76, 90
4, 19643, Note_on_c, 2, 76, 0
4, 19650, Note_on_c, 2, 80, 90
4, 19673, Note_on_c, 2, 80, 0
4, 19680, Note_on_c, 2, 75, 90
4, 19703, Note_on_c, 2, 75, 0
4, 19710, Note_on_c, 2, 81, 90
4, 19733, Note_on_c, 2, 81, 0
4, 19740, Note_on_c, 2, 80, 90
4, 19763, Note_on_c, 2, 80, 0
4, 19770, Note_on_c, 2, 78, 90
4, 19793, Note_on_c, 2, 78, 0
4, 19800, Note_on_c, 2, 80, 90
4, 19847, Note_on_c, 2, 80, 0
4, 19860, Note_on_c, 2, 76, 90
4, 19907, Note_on_c, 2, 76, 0
4, 20190, Note_on_c, 2, 80, 90
4, 20213, Note_on_c, 2, 80, 0
4, 20220, Note_on_c, 2, 83, 90
4, 20243, Note_on_c, 2, 83, 0
4, 20250, Note_on_c, 2, 80, 90
4, 20273, Note_on_c, 2, 80, 0
4, 20280, Note_on_c, 2, 76, 90
4, 20303, Note_on_c, 2, 76, 0
4, 20310, Note_on_c, 2, 80, 90
4, 20333, Note_on_c, 2, 80, 0
4, 20340, Note_on_c, 2, 71, 90
4, 20363, Note_on_c, 2, 71, 0
4, 20370, Note_on_c, 2, 76, 90
4, 20393, Note_on_c, 2, 76, 0
4, 20400, Note_on_c, 2, 69, 90
4, 20423, Note_on_c, 2, 69, 0
4, 20430, Note_on_c, 2, 73, 90
4, 20453, Note_on_c, 2, 73, 0
4, 20460, Note_on_c, 2, 71, 90
4, 20483, Note_on_c, 2, 71, 0
4, 20490, Note_on_c, 2, 69, 90
4, 20513, Note_on_c, 2, 69, 0
4, 20520, Note_on_c, 2, 68, 90
4, 20543, Note_on_c, 2, 68, 0
4, 20550, Note_on_c, 2, 71, 90
4, 20573, Note_on_c, 2, 71, 0
4, 20580, Note_on_c, 2, 76, 90
4, 20603, Note_on_c, 2, 76, 0
4, 20610, Note_on_c, 2, 71, 90
4, 20633, Note_on_c, 2, 71, 0
4, 20640, Note_on_c, 2, 68, 90
4, 20663, Note_on_c, 2, 68, 0
4, 20670, Note_on_c, 2, 71, 90
4, 20693, Note_on_c, 2, 71, 0
4, 20700, Note_on_c, 2, 64, 90
4, 20723, Note_on_c, 2, 64, 0
4, 20730, Note_on_c, 2, 71, 90
4, 20753, Note_on_c, 2, 71, 0
4, 20760, Note_on_c, 2, 68, 90
4, 20783, Note_on_c, 2, 68, 0
4, 20790, Note_on_c, 2, 71, 90
4, 20813, Note_on_c, 2, 71, 0
4, 20820, Note_on_c, 2, 64, 90
4, 20843, Note_on_c, 2, 64, 0
4, 20850, Note_on_c, 2, 71, 90
4, 20873, Note_on_c, 2, 71, 0
4, 20880, Note_on_c, 2, 69, 90
4, 20903, Note_on_c, 2, 69, 0
4, 20910, Note_on_c, 2, 73, 90
4, 20933, Note_on_c, 2, 73, 0
4, 20940, Note_on_c, 2, 76, 90
4, 20963, Note_on_c, 2, 76, 0
4, 20970, Note_on_c, 2, 73, 90
4, 20993, Note_on_c, 2, 73, 0
4, 21000, Note_on_c, 2, 69, 90
4, 21023, Note_on_c, 2, 69, 0
4, 21030, Note_on_c, 2, 73, 90
4, 21053, Note_on_c, 2, 73, 0
4, 21060, Note_on_c, 2, 64, 90
4, 21083, Note_on_c, 2, 64, 0
4, 21090, Note_on_c, 2, 73, 90
4, 21113, Note_on_c, 2, 73, 0
4, 21120, Note_on_c, 2, 69, 90
4, 21143, Note_on_c, 2, 69, 0
4, 21150, Note_on_c, 2, 73, 90
4, 21173, Note_on_c, 2, 73, 0
4, 21180, Note_on_c, 2, 64, 90
4, 21203, Note_on_c, 2, 64, 0
4, 21210, Note_on_c, 2, 73, 90
4, 21233, Note_on_c, 2, 73, 0
4, 21240, Note_on_c, 2, 71, 90
4, 21263, Note_on_c, 2, 71, 0
4, 21270, Note_on_c, 2, 74, 90
4, 21293, Note_on_c, 2, 74, 0
4, 21300, Note_on_c, 2, 76, 90
4, 21323, Note_on_c, 2, 76, 0
4, 21330, Note_on_c, 2, 74, 90
4, 21353, Note_on_c, 2, 74, 0
4, 21360, Note_on_c, 2, 71, 90
4, 21383, Note_on_c, 2, 71, 0
4, 21390, Note_on_c, 2, 74, 90
4, 21413, Note_on_c, 2, 74, 0
4, 21420, Note_on_c, 2, 64, 90
4, 21443, Note_on_c, 2, 64, 0
4, 21450, Note_on_c, 2, 74, 90
4, 21473, Note_on_c, 2, 74, 0
4, 21480, Note_on_c, 2, 71, 90
4, 21503, Note_on_c, 2, 71, 0
4, 21510, Note_on_c, 2, 74, 90
4, 21533, Note_on_c, 2, 74, 0
4, 21540, Note_on_c, 2, 64, 90
4, 21563, Note_on_c, 2, 64, 0
4, 21570, Note_on_c, 2, 74, 90
4, 21593, Note_on_c, 2, 74, 0
4, 21600, Note_on_c, 2, 73, 90
4, 21647, Note_on_c, 2, 73, 0
4, 21660, Note_on_c, 2, 69, 90
4, 21707, Note_on_c, 2, 69, 0
4, 21990, Note_on_c, 2, 76, 90
4, 22013, Note_on_c, 2, 76, 0
4, 22020, Note_on_c, 2, 81, 90
4, 22043, Note_on_c, 2, 81, 0
4, 22050, Note_on_c, 2, 76, 90
4, 22073, Note_on_c, 2, 76, 0
4, 22080, Note_on_c, 2, 73, 90
4, 22103, Note_on_c, 2, 73, 0
4, 22110, Note_on_c, 2, 76, 90
4, 22133, Note_on_c, 2, 76, 0
4, 22140, Note_on_c, 2, 69, 90
4, 22163, Note_on_c, 2, 69, 0
4, 22170, Note_on_c, 2, 73, 90
4, 22193, Note_on_c, 2, 73, 0
4, 22200, Note_on_c, 2, 68, 90
4, 22223, Note_on_c, 2, 68, 0
4, 22230, Note_on_c, 2, 74, 90
4, 22253, Note_on_c, 2, 74, 0
4, 22260, Note_on_c, 2, 73, 90
4, 22283, Note_on_c, 2, 73, 0
4, 22290, Note_on_c, 2, 71, 90
4, 22313, Note_on_c, 2, 71, 0
4, 22320, Note_on_c, 2, 73, 90
4, 22367, Note_on_c, 2, 73, 0
4, 22380, Note_on_c, 2, 69, 90
4, 22427, Note_on_c, 2, 69, 0
4, 22710, Note_on_c, 2, 73, 90
4, 22733, Note_on_c, 2, 73, 0
4, 22740, Note_on_c, 2, 76, 90
4, 22763, Note_on_c, 2, 76, 0
4, 22770, Note_on_c, 2, 73, 90
4, 22793, Note_on_c, 2, 73, 0
4, 22800, Note_on_c, 2, 69, 90
4, 22823, Note_on_c, 2, 69, 0
4, 22830, Note_on_c, 2, 73, 90
4, 22853, Note_on_c, 2, 73, 0
4, 22860, Note_on_c, 2, 64, 90
4, 22883, Note_on_c, 2, 64, 0
4, 22890, Note_on_c, 2, 69, 90
4, 22913, Note_on_c, 2, 69, 0
4, 22920, Note_on_c, 2, 62, 90
4, 22943, Note_on_c, 2, 62, 0
4, 22950, Note_on_c, 2, 66, 90
4, 22973, Note_on_c, 2, 66, 0
4, 22980, Note_on_c, 2, 64, 90
4, 23003, Note_on_c, 2, 64, 0
4, 23010, Note_on_c, 2, 62, 90
4, 23033, Note_on_c, 2, 62, 0
4, 23040, Note_on_c, 2, 61, 90
4, 23063, Note_on_c, 2, 61, 0
4, 23070, Note_on_c, 2, 64, 90
4, 23093, Note_on_c, 2, 64, 0
4, 23100, Note_on_c, 2, 69, 90
4, 23123, Note_on_c, 2, 69, 0
4, 23130, Note_on_c, 2, 64, 90
4, 23153, Note_on_c, 2, 64, 0
4, 23160, Note_on_c, 2, 61, 90
4, 23183, Note_on_c, 2, 61, 0
4, 23190, Note_on_c, 2, 64, 90
4, 23213, Note_on_c, 2, 64, 0
4, 23220, Note_on_c, 2, 57, 90
4, 23243, Note_on_c, 2, 57, 0
4, 23250, Note_on_c, 2, 64, 90
4, 23273, Note_on_c, 2, 64, 0
4, 23280, Note_on_c, 2, 61, 90
4, 23303, Note_on_c, 2, 61, 0
4, 23310, Note_on_c, 2, 64, 90
4, 23333, Note_on_c, 2, 64, 0
4, 23340, Note_on_c, 2, 57, 90
4, 23363, Note_on_c, 2, 57, 0
4, 23370, Note_on_c, 2, 64, 90
4, 23393, Note_on_c, 2, 64, 0
4, 23400, Note_on_c, 2, 62, 90
4, 23423, Note_on_c, 2, 62, 0
4, 23430, Note_on_c, 2, 66, 90
4, 23453, Note_on_c, 2, 66, 0
4, 23460, Note_on_c, 2, 69, 90
4, 23483, Note_on_c, 2, 69, 0
4, 23490, Note_on_c, 2, 66, 90
4, 23513, Note_on_c, 2, 66, 0
4, 23520, Note_on_c, 2, 62, 90
4, 23543, Note_on_c, 2, 62, 0
4, 23550, Note_on_c, 2, 66, 90
4, 23573, Note_on_c, 2, 66, 0
4, 23580, Note_on_c, 2, 57, 90
4, 23603, Note_on_c, 2, 57, 0
4, 23610, Note_on_c, 2, 66, 90
4, 23633, Note_on_c, 2, 66, 0
4, 23640, Note_on_c, 2, 62, 90
4, 23663, Note_on_c, 2, 62, 0
4, 23670, Note_on_c, 2, 66, 90
4, 23693, Note_on_c, 2, 66, 0
4, 23700, Note_on_c, 2, 57, 90
4, 23723, Note_on_c, 2, 57, 0
4, 23730, Note_on_c, 2, 66, 90
4, 23753, Note_on_c, 2, 66, 0
4, 23760, Note_on_c, 2, 64, 90
4, 23783, Note_on_c, 2, 64, 0
4, 23790, Note_on_c, 2, 67, 90
4, 23813, Note_on_c, 2, 67, 0
4, 23820, Note_on_c, 2, 69, 90
4, 23843, Note_on_c, 2, 69, 0
4, 23850, Note_on_c, 2, 67, 90
4, 23873, Note_on_c, 2, 67, 0
4, 23880, Note_on_c, 2, 64, 90
4, 23903, Note_on_c, 2, 64, 0
4, 23910, Note_on_c, 2, 67, 90
4, 23933, Note_on_c, 2, 67, 0
4, 23940, Note_on_c, 2, 57, 90
4, 23963, Note_on_c, 2, 57, 0
4, 23970, Note_on_c, 2, 67, 90
4, 23993, Note_on_c, 2, 67, 0
4, 24000, Note_on_c, 2, 64, 90
4, 24023, Note_on_c, 2, 64, 0
4, 24030, Note_on_c, 2, 67, 90
4, 24053, Note_on_c, 2, 67, 0
4, 24060, Note_on_c, 2, 57, 90
4, 24083, Note_on_c, 2, 57, 0
4, 24090, Note_on_c, 2, 67, 90
4, 24113, Note_on_c, 2, 67, 0
4, 24120, Note_on_c, 2, 66, 90
4, 24167, Note_on_c, 2, 66, 0
4, 24180, Note_on_c, 2, 62, 90
4, 24227, Note_on_c, 2, 62, 0
4, 24420, Note_on_c, 2, 78, 90
4, 24467, Note_on_c, 2, 78, 0
4, 24480, Note_on_c, 2, 71, 90
4, 24527, Note_on_c, 2, 71, 0
4, 24780, Note_on_c, 2, 71, 90
4, 24827, Note_on_c, 2, 71, 0
4, 24840, Note_on_c, 2, 76, 90
4, 24887, Note_on_c, 2, 76, 0
4, 25140, Note_on_c, 2, 76, 90
4, 25187, Note_on_c, 2, 76, 0
4, 25200, Note_on_c, 2, 69, 90
4, 25247, Note_on_c, 2, 69, 0
4, 25500, Note_on_c, 2, 69, 90
4, 25547, Note_on_c, 2, 69, 0
4, 25560, Note_on_c, 2, 74, 90
4, 25583, Note_on_c, 2, 74, 0
4, 25590, Note_on_c, 2, 78, 90
4, 25613, Note_on_c, 2, 78, 0
4, 25620, Note_on_c, 2, 83, 90
4, 25643, Note_on_c, 2, 83, 0
4, 25650, Note_on_c, 2, 78, 90
4, 25673, Note_on_c, 2, 78, 0
4, 25680, Note_on_c, 2, 74, 90
4, 25703, Note_on_c, 2, 74, 0
4, 25710, Note_on_c, 2, 78, 90
4, 25733, Note_on_c, 2, 78, 0
4, 25740, Note_on_c, 2, 71, 90
4, 25763, Note_on_c, 2, 71, 0
4, 25770, Note_on_c, 2, 78, 90
4, 25793, Note_on_c, 2, 78, 0
4, 25800, Note_on_c, 2, 74, 90
4, 25823, Note_on_c, 2, 74, 0
4, 25830, Note_on_c, 2, 78, 90
4, 25853, Note_on_c, 2, 78, 0
4, 25860, Note_on_c, 2, 71, 90
4, 25883, Note_on_c, 2, 71, 0
4, 25890, Note_on_c, 2, 78, 90
4, 25913, Note_on_c, 2, 78, 0
4, 25920, Note_on_c, 2, 74, 90
4, 25943, Note_on_c, 2, 74, 0
4, 25950, Note_on_c, 2, 76, 90
4, 25973, Note_on_c, 2, 76, 0
4, 25980, Note_on_c, 2, 83, 90
4, 26003, Note_on_c, 2, 83, 0
4, 26010, Note_on_c, 2, 76, 90
4, 26033, Note_on_c, 2, 76, 0
4, 26040, Note_on_c, 2, 74, 90
4, 26063, Note_on_c, 2, 74, 0
4, 26070, Note_on_c, 2, 76, 90
4, 26093, Note_on_c, 2, 76, 0
4, 26100, Note_on_c, 2, 71, 90
4, 26123, Note_on_c, 2, 71, 0
4, 26130, Note_on_c, 2, 76, 90
4, 26153, Note_on_c, 2, 76, 0
4, 26160, Note_on_c, 2, 74, 90
4, 26183, Note_on_c, 2, 74, 0
4, 26190, Note_on_c, 2, 76, 90
4, 26213, Note_on_c, 2, 76, 0
4, 26220, Note_on_c, 2, 71, 90
4, 26243, Note_on_c, 2, 71, 0
4, 26250, Note_on_c, 2, 76, 90
4, 26273, Note_on_c, 2, 76, 0
4, 26280, Note_on_c, 2, 74, 90
4, 26303, Note_on_c, 2, 74, 0
4, 26310, Note_on_c, 2, 76, 90
4, 26333, Note_on_c, 2, 76, 0
4, 26340, Note_on_c, 2, 73, 90
4, 26363, Note_on_c, 2, 73, 0
4, 26370, Note_on_c, 2, 74, 90
4, 26393, Note_on_c, 2, 74, 0
4, 26400, Note_on_c, 2, 76, 90
4, 26423, Note_on_c, 2, 76, 0
4, 26430, Note_on_c, 2, 74, 90
4, 26453, Note_on_c, 2, 74, 0
4, 26460, Note_on_c, 2, 78, 90
4, 26483, Note_on_c, 2, 78, 0
4, 26490, Note_on_c, 2, 76, 90
4, 26513, Note_on_c, 2, 76, 0
4, 26520, Note_on_c, 2, 74, 90
4, 26543, Note_on_c, 2, 74, 0
4, 26550, Note_on_c, 2, 73, 90
4, 26573, Note_on_c, 2, 73, 0
4, 26580, Note_on_c, 2, 71, 90
4, 26603, Note_on_c, 2, 71, 0
4, 26610, Note_on_c, 2, 69, 90
4, 26633, Note_on_c, 2, 69, 0
4, 26640, Note_on_c, 2, 73, 90
4, 26687, Note_on_c, 2, 73, 0
4, 26700, Note_on_c, 2, 71, 90
4, 26747, Note_on_c, 2, 71, 0
4, 26760, Note_on_c, 2, 71, 90
4, 26807, Note_on_c, 2, 71, 0
4, 27000, Note_on_c, 2, 73, 90
4, 27030, Note_on_c, 2, 73, 0
4, 27060, Note_on_c, 2, 69, 90
4, 27090, Note_on_c, 2, 69, 0
4, 27360, Note_on_c, 2, 69, 90
4, 27390, Note_on_c, 2, 69, 0
4, 27420, Note_on_c, 2, 73, 90
4, 27450, Note_on_c, 2, 73, 0
4, 27720, Note_on_c, 2, 73, 90
4, 27750, Note_on_c, 2, 73, 0
4, 27780, Note_on_c, 2, 78, 90
4, 27810, Note_on_c, 2, 78, 0
4, 28080, Note_on_c, 2, 80, 90
4, 28110, Note_on_c, 2, 80, 0
4, 28140, Note_on_c, 2, 76, 90
4, 28170, Note_on_c, 2, 76, 0
4, 28440, Note_on_c, 2, 76, 90
4, 28470, Note_on_c, 2, 76, 0
4, 28500, Note_on_c, 2, 81, 90
4, 28530, Note_on_c, 2, 81, 0
4, 28800, Note_on_c, 2, 81, 90
4, 28830, Note_on_c, 2, 81, 0
4, 28860, Note_on_c, 2, 78, 90
4, 28890, Note_on_c, 2, 78, 0
4, 29160, Note_on_c, 2, 83, 90
4, 29190, Note_on_c, 2, 83, 0
4, 29220, Note_on_c, 2, 79, 90
4, 29250, Note_on_c, 2, 79, 0
4, 29520, Note_on_c, 2, 79, 90
4, 29550, Note_on_c, 2, 79, 0
4, 29580, Note_on_c, 2, 76, 90
4, 29610, Note_on_c, 2, 76, 0
4, 30270, Note_on_c, 2, 71, 90
4, 30293, Note_on_c, 2, 71, 0
4, 30300, Note_on_c, 2, 76, 90
4, 30323, Note_on_c, 2, 76, 0
4, 30330, Note_on_c, 2, 71, 90
4, 30353, Note_on_c, 2, 71, 0
4, 30360, Note_on_c, 2, 68, 90
4, 30383, Note_on_c, 2, 68, 0
4, 30390, Note_on_c, 2, 71, 90
4, 30413, Note_on_c, 2, 71, 0
4, 30420, Note_on_c, 2, 64, 90
4, 30443, Note_on_c, 2, 64, 0
4, 30450, Note_on_c, 2, 68, 90
4, 30473, Note_on_c, 2, 68, 0
4, 30480, Note_on_c, 2, 59, 90
4, 30503, Note_on_c, 2, 59, 0
4, 30510, Note_on_c, 2, 62, 90
4, 30533, Note_on_c, 2, 62, 0
4, 30540, Note_on_c, 2, 61, 90
4, 30563, Note_on_c, 2, 61, 0
4, 30570, Note_on_c, 2, 59, 90
4, 30593, Note_on_c, 2, 59, 0
4, 30600, Note_on_c, 2, 57, 90
4, 30623, Note_on_c, 2, 57, 0
4, 30630, Note_on_c, 2, 64, 90
4, 30653, Note_on_c, 2, 64, 0
4, 30660, Note_on_c, 2, 69, 90
4, 30683, Note_on_c, 2, 69, 0
4, 30690, Note_on_c, 2, 64, 90
4, 30713, Note_on_c, 2, 64, 0
4, 30720, Note_on_c, 2, 61, 90
4, 30743, Note_on_c, 2, 61, 0
4, 30750, Note_on_c, 2, 64, 90
4, 30773, Note_on_c, 2, 64, 0
4, 30780, Note_on_c, 2, 57, 90
4, 30803, Note_on_c, 2, 57, 0
4, 30810, Note_on_c, 2, 64, 90
4, 30833, Note_on_c, 2, 64, 0
4, 30840, Note_on_c, 2, 61, 90
4, 30863, Note_on_c, 2, 61, 0
4, 30870, Note_on_c, 2, 64, 90
4, 30893, Note_on_c, 2, 64, 0
4, 30900, Note_on_c, 2, 57, 90
4, 30923, Note_on_c, 2, 57, 0
4, 30930, Note_on_c, 2, 64, 90
4, 30953, Note_on_c, 2, 64, 0
4, 30960, Note_on_c, 2, 66, 90
4, 30983, Note_on_c, 2, 66, 0
4, 30990, Note_on_c, 2, 69, 90
4, 31013, Note_on_c, 2, 69, 0
4, 31020, Note_on_c, 2, 74, 90
4, 31043, Note_on_c, 2, 74, 0
4, 31050, Note_on_c, 2, 69, 90
4, 31073, Note_on_c, 2, 69, 0
4, 31080, Note_on_c, 2, 66, 90
4, 31103, Note_on_c, 2, 66, 0
4, 31110, Note_on_c, 2, 69, 90
4, 31133, Note_on_c, 2, 69, 0
4, 31140, Note_on_c, 2, 62, 90
4, 31163, Note_on_c, 2, 62, 0
4, 31170, Note_on_c, 2, 69, 90
4, 31193, Note_on_c, 2, 69, 0
4, 31200, Note_on_c, 2, 66, 90
4, 31223, Note_on_c, 2, 66, 0
4, 31230, Note_on_c, 2, 69, 90
4, 31253, Note_on_c, 2, 69, 0
4, 31260, Note_on_c, 2, 62, 90
4, 31283, Note_on_c, 2, 62, 0
4, 31290, Note_on_c, 2, 69, 90
4, 31313, Note_on_c, 2, 69, 0
4, 31320, Note_on_c, 2, 66, 90
4, 31343, Note_on_c, 2, 66, 0
4, 31350, Note_on_c, 2, 69, 90
4, 31373, Note_on_c, 2, 69, 0
4, 31380, Note_on_c, 2, 75, 90
4, 31403, Note_on_c, 2, 75, 0
4, 31410, Note_on_c, 2, 69, 90
4, 31433, Note_on_c, 2, 69, 0
4, 31440, Note_on_c, 2, 66, 90
4, 31463, Note_on_c, 2, 66, 0
4, 31470, Note_on_c, 2, 69, 90
4, 31493, Note_on_c, 2, 69, 0
4, 31500, Note_on_c, 2, 63, 90
4, 31523, Note_on_c, 2, 63, 0
4, 31530, Note_on_c, 2, 69, 90
4, 31553, Note_on_c, 2, 69, 0
4, 31560, Note_on_c, 2, 66, 90
4, 31583, Note_on_c, 2, 66, 0
4, 31590, Note_on_c, 2, 69, 90
4, 31613, Note_on_c, 2, 69, 0
4, 31620, Note_on_c, 2, 63, 90
4, 31643, Note_on_c, 2, 63, 0
4, 31650, Note_on_c, 2, 69, 90
4, 31673, Note_on_c, 2, 69, 0
4, 31680, Note_on_c, 2, 68, 90
4, 31703, Note_on_c, 2, 68, 0
4, 31710, Note_on_c, 2, 71, 90
4, 31733, Note_on_c, 2, 71, 0
4, 31740, Note_on_c, 2, 76, 90
4, 31763, Note_on_c, 2, 76, 0
4, 31770, Note_on_c, 2, 71, 90
4, 31793, Note_on_c, 2, 71, 0
4, 31800, Note_on_c, 2, 68, 90
4, 31823, Note_on_c, 2, 68, 0
4, 31830, Note_on_c, 2, 71, 90
4, 31853, Note_on_c, 2, 71, 0
4, 31860, Note_on_c, 2, 64, 90
4, 31883, Note_on_c, 2, 64, 0
4, 31890, Note_on_c, 2, 71, 90
4, 31913, Note_on_c, 2, 71, 0
4, 31920, Note_on_c, 2, 68, 90
4, 31943, Note_on_c, 2, 68, 0
4, 31950, Note_on_c, 2, 71, 90
4, 31973, Note_on_c, 2, 71, 0
4, 31980, Note_on_c, 2, 64, 90
4, 32003, Note_on_c, 2, 64, 0
4, 32010, Note_on_c, 2, 71, 90
4, 32033, Note_on_c, 2, 71, 0
4, 32040, Note_on_c, 2, 74, 90
4, 32063, Note_on_c, 2, 74, 0
4, 32070, Note_on_c, 2, 80, 90
4, 32093, Note_on_c, 2, 80, 0
4, 32100, Note_on_c, 2, 83, 90
4, 32123, Note_on_c, 2, 83, 0
4, 32130, Note_on_c, 2, 80, 90
4, 32153, Note_on_c, 2, 80, 0
4, 32160, Note_on_c, 2, 74, 90
4, 32183, Note_on_c, 2, 74, 0
4, 32190, Note_on_c, 2, 80, 90
4, 32213, Note_on_c, 2, 80, 0
4, 32220, Note_on_c, 2, 71, 90
4, 32243, Note_on_c, 2, 71, 0
4, 32250, Note_on_c, 2, 80, 90
4, 32273, Note_on_c, 2, 80, 0
4, 32280, Note_on_c, 2, 74, 90
4, 32303, Note_on_c, 2, 74, 0
4, 32310, Note_on_c, 2, 80, 90
4, 32333, Note_on_c, 2, 80, 0
4, 32340, Note_on_c, 2, 71, 90
4, 32363, Note_on_c, 2, 71, 0
4, 32370, Note_on_c, 2, 80, 90
4, 32393, Note_on_c, 2, 80, 0
4, 32400, Note_on_c, 2, 81, 90
4, 32423, Note_on_c, 2, 81, 0
4, 32430, Note_on_c, 2, 76, 90
4, 32453, Note_on_c, 2, 76, 0
4, 32460, Note_on_c, 2, 73, 90
4, 32483, Note_on_c, 2, 73, 0
4, 32490, Note_on_c, 2, 76, 90
4, 32513, Note_on_c, 2, 76, 0
4, 32520, Note_on_c, 2, 81, 90
4, 32543, Note_on_c, 2, 81, 0
4, 32550, Note_on_c, 2, 76, 90
4, 32573, Note_on_c, 2, 76, 0
4, 32580, Note_on_c, 2, 81, 90
4, 32603, Note_on_c, 2, 81, 0
4, 32610, Note_on_c, 2, 85, 90
4, 32633, Note_on_c, 2, 85, 0
4, 32640, Note_on_c, 2, 88, 90
4, 32663, Note_on_c, 2, 88, 0
4, 32670, Note_on_c, 2, 79, 90
4, 32693, Note_on_c, 2, 79, 0
4, 32700, Note_on_c, 2, 78, 90
4, 32723, Note_on_c, 2, 78, 0
4, 32730, Note_on_c, 2, 76, 90
4, 32753, Note_on_c, 2, 76, 0
4, 32760, Note_on_c, 2, 78, 90
4, 32783, Note_on_c, 2, 78, 0
4, 32790, Note_on_c, 2, 74, 90
4, 32813, Note_on_c, 2, 74, 0
4, 32820, Note_on_c, 2, 69, 90
4, 32843, Note_on_c, 2, 69, 0
4, 32850, Note_on_c, 2, 74, 90
4, 32873, Note_on_c, 2, 74, 0
4, 32880, Note_on_c, 2, 78, 90
4, 32903, Note_on_c, 2, 78, 0
4, 32910, Note_on_c, 2, 74, 90
4, 32933, Note_on_c, 2, 74, 0
4, 32940, Note_on_c, 2, 78, 90
4, 32963, Note_on_c, 2, 78, 0
4, 32970, Note_on_c, 2, 81, 90
4, 32993, Note_on_c, 2, 81, 0
4, 33000, Note_on_c, 2, 86, 90
4, 33023, Note_on_c, 2, 86, 0
4, 33030, Note_on_c, 2, 78, 90
4, 33053, Note_on_c, 2, 78, 0
4, 33060, Note_on_c, 2, 76, 90
4, 33083, Note_on_c, 2, 76, 0
4, 33090, Note_on_c, 2, 74, 90
4, 33113, Note_on_c, 2, 74, 0
4, 33120, Note_on_c, 2, 76, 90
4, 33143, Note_on_c, 2, 76, 0
4, 33150, Note_on_c, 2, 73, 90
4, 33173, Note_on_c, 2, 73, 0
4, 33180, Note_on_c, 2, 69, 90
4, 33203, Note_on_c, 2, 69, 0
4, 33210, Note_on_c, 2, 73, 90
4, 33233, Note_on_c, 2, 73, 0
4, 33240, Note_on_c, 2, 76, 90
4, 33263, Note_on_c, 2, 76, 0
4, 33270, Note_on_c, 2, 73, 90
4, 33293, Note_on_c, 2, 73, 0
4, 33300, Note_on_c, 2, 76, 90
4, 33323, Note_on_c, 2, 76, 0
4, 33330, Note_on_c, 2, 81, 90
4, 33353, Note_on_c, 2, 81, 0
4, 33360, Note_on_c, 2, 85, 90
4, 33383, Note_on_c, 2, 85, 0
4, 33390, Note_on_c, 2, 76, 90
4, 33413, Note_on_c, 2, 76, 0
4, 33420, Note_on_c, 2, 74, 90
4, 33443, Note_on_c, 2, 74, 0
4, 33450, Note_on_c, 2, 73, 90
4, 33473, Note_on_c, 2, 73, 0
4, 33480, Note_on_c, 2, 74, 90
4, 33503, Note_on_c, 2, 74, 0
4, 33510, Note_on_c, 2, 71, 90
4, 33533, Note_on_c, 2, 71, 0
4, 33540, Note_on_c, 2, 68, 90
4, 33563, Note_on_c, 2, 68, 0
4, 33570, Note_on_c, 2, 71, 90
4, 33593, Note_on_c, 2, 71, 0
4, 33600, Note_on_c, 2, 74, 90
4, 33623, Note_on_c, 2, 74, 0
4, 33630, Note_on_c, 2, 71, 90
4, 33653, Note_on_c, 2, 71, 0
4, 33660, Note_on_c, 2, 74, 90
4, 33683, Note_on_c, 2, 74, 0
4, 33690, Note_on_c, 2, 80, 90
4, 33713, Note_on_c, 2, 80, 0
4, 33720, Note_on_c, 2, 83, 90
4, 33743, Note_on_c, 2, 83, 0
4, 33750, Note_on_c, 2, 74, 90
4, 33773, Note_on_c, 2, 74, 0
4, 33780, Note_on_c, 2, 73, 90
4, 33803, Note_on_c, 2, 73, 0
4, 33810, Note_on_c, 2, 71, 90
4, 33833, Note_on_c, 2, 71, 0
4, 33840, Note_on_c, 2, 73, 90
4, 33863, Note_on_c, 2, 73, 0
4, 33870, Note_on_c, 2, 69, 90
4, 33893, Note_on_c, 2, 69, 0
4, 33900, Note_on_c, 2, 71, 90
4, 33923, Note_on_c, 2, 71, 0
4, 33930, Note_on_c, 2, 73, 90
4, 33953, Note_on_c, 2, 73, 0
4, 33960, Note_on_c, 2, 74, 90
4, 33983, Note_on_c, 2, 74, 0
4, 33990, Note_on_c, 2, 71, 90
4, 34013, Note_on_c, 2, 71, 0
4, 34020, Note_on_c, 2, 73, 90
4, 34043, Note_on_c, 2, 73, 0
4, 34050, Note_on_c, 2, 74, 90
4, 34073, Note_on_c, 2, 74, 0
4, 34080, Note_on_c, 2, 76, 90
4, 34103, Note_on_c, 2, 76, 0
4, 34110, Note_on_c, 2, 73, 90
4, 34133, Note_on_c, 2, 73, 0
4, 34140, Note_on_c, 2, 74, 90
4, 34163, Note_on_c, 2, 74, 0
4, 34170, Note_on_c, 2, 76, 90
4, 34193, Note_on_c, 2, 76, 0
4, 34200, Note_on_c, 2, 78, 90
4, 34223, Note_on_c, 2, 78, 0
4, 34230, Note_on_c, 2, 74, 90
4, 34253, Note_on_c, 2, 74, 0
4, 34260, Note_on_c, 2, 76, 90
4, 34283, Note_on_c, 2, 76, 0
4, 34290, Note_on_c, 2, 78, 90
4, 34313, Note_on_c, 2, 78, 0
4, 34320, Note_on_c, 2, 80, 90
4, 34343, Note_on_c, 2, 80, 0
4, 34350, Note_on_c, 2, 76, 90
4, 34373, Note_on_c, 2, 76, 0
4, 34380, Note_on_c, 2, 78, 90
4, 34403, Note_on_c, 2, 78, 0
4, 34410, Note_on_c, 2, 80, 90
4, 34433, Note_on_c, 2, 80, 0
4, 34440, Note_on_c, 2, 81, 90
4, 34463, Note_on_c, 2, 81, 0
4, 34470, Note_on_c, 2, 78, 90
4, 34493, Note_on_c, 2, 78, 0
4, 34500, Note_on_c, 2, 80, 90
4, 34523, Note_on_c, 2, 80, 0
4, 34530, Note_on_c, 2, 81, 90
4, 34553, Note_on_c, 2, 81, 0
4, 34560, Note_on_c, 2, 83, 90
4, 34583, Note_on_c, 2, 83, 0
4, 34590, Note_on_c, 2, 74, 90
4, 34613, Note_on_c, 2, 74, 0
4, 34620, Note_on_c, 2, 73, 90
4, 34643, Note_on_c, 2, 73, 0
4, 34650, Note_on_c, 2, 71, 90
4, 34673, Note_on_c, 2, 71, 0
4, 34680, Note_on_c, 2, 73, 90
4, 34703, Note_on_c, 2, 73, 0
4, 34710, Note_on_c, 2, 76, 90
4, 34733, Note_on_c, 2, 76, 0
4, 34740, Note_on_c, 2, 73, 90
4, 34763, Note_on_c, 2, 73, 0
4, 34770, Note_on_c, 2, 69, 90
4, 34793, Note_on_c, 2, 69, 0
4, 34800, Note_on_c, 2, 64, 90
4, 34847, Note_on_c, 2, 64, 0
4, 34860, Note_on_c, 2, 68, 90
4, 34907, Note_on_c, 2, 68, 0
4, 34920, Note_on_c, 2, 69, 90
4, 35015, Note_on_c, 2, 69, 0
4, 36030, Note_on_c, 2, 81, 90
4, 36053, Note_on_c, 2, 81, 0
4, 36060, Note_on_c, 2, 85, 90
4, 36083, Note_on_c, 2, 85, 0
4, 36090, Note_on_c, 2, 81, 90
4, 36113, Note_on_c, 2, 81, 0
4, 36120, Note_on_c, 2, 78, 90
4, 36143, Note_on_c, 2, 78, 0
4, 36150, Note_on_c, 2, 81, 90
4, 36173, Note_on_c, 2, 81, 0
4, 36180, Note_on_c, 2, 73, 90
4, 36203, Note_on_c, 2, 73, 0
4, 36210, Note_on_c, 2, 78, 90
4, 36233, Note_on_c, 2, 78, 0
4, 36240, Note_on_c, 2, 71, 90
4, 36263, Note_on_c, 2, 71, 0
4, 36270, Note_on_c, 2, 80, 90
4, 36293, Note_on_c, 2, 80, 0
4, 36300, Note_on_c, 2, 78, 90
4, 36323, Note_on_c, 2, 78, 0
4, 36330, Note_on_c, 2, 77, 90
4, 36353, Note_on_c, 2, 77, 0
4, 36360, Note_on_c, 2, 78, 90
4, 36407, Note_on_c, 2, 78, 0
4, 36420, Note_on_c, 2, 73, 90
4, 36467, Note_on_c, 2, 73, 0
4, 37080, Note_on_c, 2, 75, 90
4, 37860, Note_on_c, 2, 75, 0
4, 37860, Note_on_c, 2, 73, 90
4, 37883, Note_on_c, 2, 73, 0
4, 37890, Note_on_c, 2, 72, 90
4, 37913, Note_on_c, 2, 72, 0
4, 37920, Note_on_c, 2, 73, 90
4, 37943, Note_on_c, 2, 73, 0
4, 37950, Note_on_c, 2, 76, 90
4, 37973, Note_on_c, 2, 76, 0
4, 37980, Note_on_c, 2, 78, 90
4, 38003, Note_on_c, 2, 78, 0
4, 38010, Note_on_c, 2, 80, 90
4, 38033, Note_on_c, 2, 80, 0
4, 38040, Note_on_c, 2, 78, 90
4, 38063, Note_on_c, 2, 78, 0
4, 38070, Note_on_c, 2, 80, 90
4, 38093, Note_on_c, 2, 80, 0
4, 38100, Note_on_c, 2, 76, 90
4, 38123, Note_on_c, 2, 76, 0
4, 38130, Note_on_c, 2, 78, 90
4, 38153, Note_on_c, 2, 78, 0
4, 38160, Note_on_c, 2, 75, 90
4, 38183, Note_on_c, 2, 75, 0
4, 38190, Note_on_c, 2, 73, 90
4, 38213, Note_on_c, 2, 73, 0
4, 38220, Note_on_c, 2, 71, 90
4, 38243, Note_on_c, 2, 71, 0
4, 38250, Note_on_c, 2, 69, 90
4, 38273, Note_on_c, 2, 69, 0
4, 38280, Note_on_c, 2, 71, 90
4, 38303, Note_on_c, 2, 71, 0
4, 38310, Note_on_c, 2, 75, 90
4, 38333, Note_on_c, 2, 75, 0
4, 38340, Note_on_c, 2, 76, 90
4, 38363, Note_on_c, 2, 76, 0
4, 38370, Note_on_c, 2, 78, 90
4, 38393, Note_on_c, 2, 78, 0
4, 38400, Note_on_c, 2, 76, 90
4, 38423, Note_on_c, 2, 76, 0
4, 38430, Note_on_c, 2, 78, 90
4, 38453, Note_on_c, 2, 78, 0
4, 38460, Note_on_c, 2, 75, 90
4, 38483, Note_on_c, 2, 75, 0
4, 38490, Note_on_c, 2, 76, 90
4, 38513, Note_on_c, 2, 76, 0
4, 38520, Note_on_c, 2, 73, 90
4, 38543, Note_on_c, 2, 73, 0
4, 38550, Note_on_c, 2, 71, 90
4, 38573, Note_on_c, 2, 71, 0
4, 38580, Note_on_c, 2, 69, 90
4, 38603, Note_on_c, 2, 69, 0
4, 38610, Note_on_c, 2, 68, 90
4, 38633, Note_on_c, 2, 68, 0
4, 38640, Note_on_c, 2, 69, 90
4, 38663, Note_on_c, 2, 69, 0
4, 38670, Note_on_c, 2, 73, 90
4, 38693, Note_on_c, 2, 73, 0
4, 38700, Note_on_c, 2, 75, 90
4, 38723, Note_on_c, 2, 75, 0
4, 38730, Note_on_c, 2, 76, 90
4, 38753, Note_on_c, 2, 76, 0
4, 38760, Note_on_c, 2, 75, 90
4, 38783, Note_on_c, 2, 75, 0
4, 38790, Note_on_c, 2, 76, 90
4, 38813, Note_on_c, 2, 76, 0
4, 38820, Note_on_c, 2, 73, 90
4, 38843, Note_on_c, 2, 73, 0
4, 38850, Note_on_c, 2, 75, 90
4, 38873, Note_on_c, 2, 75, 0
4, 38880, Note_on_c, 2, 72, 90
4, 38903, Note_on_c, 2, 72, 0
4, 38910, Note_on_c, 2, 73, 90
4, 38933, Note_on_c, 2, 73, 0
4, 38940, Note_on_c, 2, 75, 90
4, 38963, Note_on_c, 2, 75, 0
4, 38970, Note_on_c, 2, 72, 90
4, 38993, Note_on_c, 2, 72, 0
4, 39000, Note_on_c, 2, 68, 90
4, 39047, Note_on_c, 2, 68, 0
4, 39060, Note_on_c, 2, 80, 90
4, 39107, Note_on_c, 2, 80, 0
4, 39120, Note_on_c, 2, 80, 90
4, 39143, Note_on_c, 2, 80, 0
4, 39150, Note_on_c, 2, 78, 90
4, 39173, Note_on_c, 2, 78, 0
4, 39180, Note_on_c, 2, 76, 90
4, 39203, Note_on_c, 2, 76, 0
4, 39210, Note_on_c, 2, 75, 90
4, 39233, Note_on_c, 2, 75, 0
4, 39240, Note_on_c, 2, 76, 90
4, 39263, Note_on_c, 2, 76, 0
4, 39270, Note_on_c, 2, 80, 90
4, 39293, Note_on_c, 2, 80, 0
4, 39300, Note_on_c, 2, 78, 90
4, 39323, Note_on_c, 2, 78, 0
4, 39330, Note_on_c, 2, 81, 90
4, 39353, Note_on_c, 2, 81, 0
4, 39360, Note_on_c, 2, 80, 90
4, 39407, Note_on_c, 2, 80, 0
4, 39420, Note_on_c, 2, 73, 90
4, 39467, Note_on_c, 2, 73, 0
4, 39480, Note_on_c, 2, 76, 90
4, 39503, Note_on_c, 2, 76, 0
4, 39510, Note_on_c, 2, 75, 90
4, 39533, Note_on_c, 2, 75, 0
4, 39540, Note_on_c, 2, 73, 90
4, 39563, Note_on_c, 2, 73, 0
4, 39570, Note_on_c, 2, 72, 90
4, 39593, Note_on_c, 2, 72, 0
4, 39600, Note_on_c, 2, 73, 90
4, 39695, Note_on_c, 2, 73, 0
4, 39990, Note_on_c, 2, 80, 90
4, 40013, Note_on_c, 2, 80, 0
4, 40020, Note_on_c, 2, 85, 90
4, 40043, Note_on_c, 2, 85, 0
4, 40050, Note_on_c, 2, 80, 90
4, 40073, Note_on_c, 2, 80, 0
4, 40080, Note_on_c, 2, 76, 90
4, 40103, Note_on_c, 2, 76, 0
4, 40110, Note_on_c, 2, 80, 90
4, 40133, Note_on_c, 2, 80, 0
4, 40140, Note_on_c, 2, 73, 90
4, 40163, Note_on_c, 2, 73, 0
4, 40170, Note_on_c, 2, 76, 90
4, 40193, Note_on_c, 2, 76, 0
4, 40200, Note_on_c, 2, 72, 90
4, 40223, Note_on_c, 2, 72, 0
4, 40230, Note_on_c, 2, 78, 90
4, 40253, Note_on_c, 2, 78, 0
4, 40260, Note_on_c, 2, 76, 90
4, 40283, Note_on_c, 2, 76, 0
4, 40290, Note_on_c, 2, 75, 90
4, 40313, Note_on_c, 2, 75, 0
4, 40320, Note_on_c, 2, 76, 90
4, 40367, Note_on_c, 2, 76, 0
4, 40380, Note_on_c, 2, 73, 90
4, 40427, Note_on_c, 2, 73, 0
4, 41430, Note_on_c, 2, 78, 90
4, 41453, Note_on_c, 2, 78, 0
4, 41460, Note_on_c, 2, 83, 90
4, 41483, Note_on_c, 2, 83, 0
4, 41490, Note_on_c, 2, 78, 90
4, 41513, Note_on_c, 2, 78, 0
4, 41520, Note_on_c, 2, 74, 90
4, 41543, Note_on_c, 2, 74, 0
4, 41550, Note_on_c, 2, 78, 90
4, 41573, Note_on_c, 2, 78, 0
4, 41580, Note_on_c, 2, 71, 90
4, 41603, Note_on_c, 2, 71, 0
4, 41610, Note_on_c, 2, 74, 90
4, 41633, Note_on_c, 2, 74, 0
4, 41640, Note_on_c, 2, 70, 90
4, 41663, Note_on_c, 2, 70, 0
4, 41670, Note_on_c, 2, 76, 90
4, 41693, Note_on_c, 2, 76, 0
4, 41700, Note_on_c, 2, 74, 90
4, 41723, Note_on_c, 2, 74, 0
4, 41730, Note_on_c, 2, 73, 90
4, 41753, Note_on_c, 2, 73, 0
4, 41760, Note_on_c, 2, 74, 90
4, 41807, Note_on_c, 2, 74, 0
4, 41820, Note_on_c, 2, 71, 90
4, 41867, Note_on_c, 2, 71, 0
4, 42900, Note_on_c, 2, 73, 90
4, 42923, Note_on_c, 2, 73, 0
4, 42930, Note_on_c, 2, 74, 90
4, 42953, Note_on_c, 2, 74, 0
4, 42960, Note_on_c, 2, 76, 90
4, 42983, Note_on_c, 2, 76, 0
4, 42990, Note_on_c, 2, 78, 90
4, 43013, Note_on_c, 2, 78, 0
4, 43020, Note_on_c, 2, 74, 90
4, 43043, Note_on_c, 2, 74, 0
4, 43050, Note_on_c, 2, 76, 90
4, 43073, Note_on_c, 2, 76, 0
4, 43080, Note_on_c, 2, 78, 90
4, 43103, Note_on_c, 2, 78, 0
4, 43110, Note_on_c, 2, 76, 90
4, 43133, Note_on_c, 2, 76, 0
4, 43140, Note_on_c, 2, 74, 90
4, 43163, Note_on_c, 2, 74, 0
4, 43170, Note_on_c, 2, 73, 90
4, 43193, Note_on_c, 2, 73, 0
4, 43200, Note_on_c, 2, 74, 90
4, 43223, Note_on_c, 2, 74, 0
4, 43230, Note_on_c, 2, 76, 90
4, 43253, Note_on_c, 2, 76, 0
4, 43260, Note_on_c, 2, 78, 90
4, 43283, Note_on_c, 2, 78, 0
4, 43290, Note_on_c, 2, 76, 90
4, 43313, Note_on_c, 2, 76, 0
4, 43320, Note_on_c, 2, 74, 90
4, 43343, Note_on_c, 2, 74, 0
4, 43350, Note_on_c, 2, 76, 90
4, 43373, Note_on_c, 2, 76, 0
4, 43380, Note_on_c, 2, 73, 90
4, 43403, Note_on_c, 2, 73, 0
4, 43410, Note_on_c, 2, 74, 90
4, 43433, Note_on_c, 2, 74, 0
4, 43440, Note_on_c, 2, 71, 90
4, 43463, Note_on_c, 2, 71, 0
4, 43470, Note_on_c, 2, 66, 90
4, 43493, Note_on_c, 2, 66, 0
4, 43500, Note_on_c, 2, 62, 90
4, 43523, Note_on_c, 2, 62, 0
4, 43530, Note_on_c, 2, 66, 90
4, 43553, Note_on_c, 2, 66, 0
4, 43560, Note_on_c, 2, 68, 90
4, 43583, Note_on_c, 2, 68, 0
4, 43590, Note_on_c, 2, 71, 90
4, 43613, Note_on_c, 2, 71, 0
4, 43620, Note_on_c, 2, 73, 90
4, 43643, Note_on_c, 2, 73, 0
4, 43650, Note_on_c, 2, 74, 90
4, 43673, Note_on_c, 2, 74, 0
4, 43680, Note_on_c, 2, 73, 90
4, 43727, Note_on_c, 2, 73, 0
4, 43740, Note_on_c, 2, 71, 90
4, 43787, Note_on_c, 2, 71, 0
4, 43800, Note_on_c, 2, 76, 90
4, 43823, Note_on_c, 2, 76, 0
4, 43830, Note_on_c, 2, 74, 90
4, 43853, Note_on_c, 2, 74, 0
4, 43860, Note_on_c, 2, 73, 90
4, 43883, Note_on_c, 2, 73, 0
4, 43890, Note_on_c, 2, 71, 90
4, 43913, Note_on_c, 2, 71, 0
4, 43920, Note_on_c, 2, 69, 90
4, 43943, Note_on_c, 2, 69, 0
4, 43950, Note_on_c, 2, 73, 90
4, 43973, Note_on_c, 2, 73, 0
4, 43980, Note_on_c, 2, 71, 90
4, 44003, Note_on_c, 2, 71, 0
4, 44010, Note_on_c, 2, 69, 90
4, 44033, Note_on_c, 2, 69, 0
4, 44040, Note_on_c, 2, 68, 90
4, 44063, Note_on_c, 2, 68, 0
4, 44070, Note_on_c, 2, 69, 90
4, 44093, Note_on_c, 2, 69, 0
4, 44100, Note_on_c, 2, 71, 90
4, 44123, Note_on_c, 2, 71, 0
4, 44130, Note_on_c, 2, 73, 90
4, 44153, Note_on_c, 2, 73, 0
4, 44160, Note_on_c, 2, 74, 90
4, 44183, Note_on_c, 2, 74, 0
4, 44190, Note_on_c, 2, 73, 90
4, 44213, Note_on_c, 2, 73, 0
4, 44220, Note_on_c, 2, 74, 90
4, 44315, Note_on_c, 2, 74, 0
4, 44340, Note_on_c, 2, 73, 90
4, 44363, Note_on_c, 2, 73, 0
4, 44370, Note_on_c, 2, 71, 90
4, 44393, Note_on_c, 2, 71, 0
4, 44400, Note_on_c, 2, 73, 90
4, 44447, Note_on_c, 2, 73, 0
4, 44460, Note_on_c, 2, 71, 90
4, 44483, Note_on_c, 2, 71, 0
4, 44490, Note_on_c, 2, 69, 90
4, 44513, Note_on_c, 2, 69, 0
4, 44520, Note_on_c, 2, 71, 90
4, 44543, Note_on_c, 2, 71, 0
4, 44550, Note_on_c, 2, 69, 90
4, 44573, Note_on_c, 2, 69, 0
4, 44580, Note_on_c, 2, 68, 90
4, 44603, Note_on_c, 2, 68, 0
4, 44610, Note_on_c, 2, 71, 90
4, 44633, Note_on_c, 2, 71, 0
4, 44640, Note_on_c, 2, 69, 90
4, 44663, Note_on_c, 2, 69, 0
4, 44670, Note_on_c, 2, 73, 90
4, 44693, Note_on_c, 2, 73, 0
4, 44700, Note_on_c, 2, 71, 90
4, 44723, Note_on_c, 2, 71, 0
4, 44730, Note_on_c, 2, 74, 90
4, 44753, Note_on_c, 2, 74, 0
4, 44760, Note_on_c, 2, 73, 90
4, 44807, Note_on_c, 2, 73, 0
4, 44820, Note_on_c, 2, 66, 90
4, 44867, Note_on_c, 2, 66, 0
4, 44880, Note_on_c, 2, 69, 90
4, 44903, Note_on_c, 2, 69, 0
4, 44910, Note_on_c, 2, 68, 90
4, 44933, Note_on_c, 2, 68, 0
4, 44940, Note_on_c, 2, 66, 90
4, 44963, Note_on_c, 2, 66, 0
4, 44970, Note_on_c, 2, 65, 90
4, 44993, Note_on_c, 2, 65, 0
4, 45000, Note_on_c, 2, 66, 90
4, 45095, Note_on_c, 2, 66, 0
4, 45360, Note_on_c, 2, 76, 90
4, 45407, Note_on_c, 2, 76, 0
4, 45420, Note_on_c, 2, 73, 90
4, 45467, Note_on_c, 2, 73, 0
4, 45750, Note_on_c, 2, 76, 90
4, 45773, Note_on_c, 2, 76, 0
4, 45780, Note_on_c, 2, 81, 90
4, 45803, Note_on_c, 2, 81, 0
4, 45810, Note_on_c, 2, 76, 90
4, 45833, Note_on_c, 2, 76, 0
4, 45840, Note_on_c, 2, 73, 90
4, 45863, Note_on_c, 2, 73, 0
4, 45870, Note_on_c, 2, 76, 90
4, 45893, Note_on_c, 2, 76, 0
4, 45900, Note_on_c, 2, 69, 90
4, 45923, Note_on_c, 2, 69, 0
4, 45930, Note_on_c, 2, 73, 90
4, 45953, Note_on_c, 2, 73, 0
4, 45960, Note_on_c, 2, 68, 90
4, 45983, Note_on_c, 2, 68, 0
4, 45990, Note_on_c, 2, 74, 90
4, 46013, Note_on_c, 2, 74, 0
4, 46020, Note_on_c, 2, 73, 90
4, 46043, Note_on_c, 2, 73, 0
4, 46050, Note_on_c, 2, 71, 90
4, 46073, Note_on_c, 2, 71, 0
4, 46080, Note_on_c, 2, 73, 90
4, 46127, Note_on_c, 2, 73, 0
4, 46140, Note_on_c, 2, 69, 90
4, 46187, Note_on_c, 2, 69, 0
4, 46470, Note_on_c, 2, 73, 90
4, 46493, Note_on_c, 2, 73, 0
4, 46500, Note_on_c, 2, 76, 90
4, 46523, Note_on_c, 2, 76, 0
4, 46530, Note_on_c, 2, 73, 90
4, 46553, Note_on_c, 2, 73, 0
4, 46560, Note_on_c, 2, 69, 90
4, 46583, Note_on_c, 2, 69, 0
4, 46590, Note_on_c, 2, 73, 90
4, 46613, Note_on_c, 2, 73, 0
4, 46620, Note_on_c, 2, 64, 90
4, 46643, Note_on_c, 2, 64, 0
4, 46650, Note_on_c, 2, 69, 90
4, 46673, Note_on_c, 2, 69, 0
4, 46680, Note_on_c, 2, 62, 90
4, 46703, Note_on_c, 2, 62, 0
4, 46710, Note_on_c, 2, 66, 90
4, 46733, Note_on_c, 2, 66, 0
4, 46740, Note_on_c, 2, 64, 90
4, 46763, Note_on_c, 2, 64, 0
4, 46770, Note_on_c, 2, 62, 90
4, 46793, Note_on_c, 2, 62, 0
4, 46800, Note_on_c, 2, 61, 90
4, 46823, Note_on_c, 2, 61, 0
4, 46830, Note_on_c, 2, 64, 90
4, 46853, Note_on_c, 2, 64, 0
4, 46860, Note_on_c, 2, 69, 90
4, 46883, Note_on_c, 2, 69, 0
4, 46890, Note_on_c, 2, 64, 90
4, 46913, Note_on_c, 2, 64, 0
4, 46920, Note_on_c, 2, 61, 90
4, 46943, Note_on_c, 2, 61, 0
4, 46950, Note_on_c, 2, 64, 90
4, 46973, Note_on_c, 2, 64, 0
4, 46980, Note_on_c, 2, 57, 90
4, 47003, Note_on_c, 2, 57, 0
4, 47010, Note_on_c, 2, 64, 90
4, 47033, Note_on_c, 2, 64, 0
4, 47040, Note_on_c, 2, 61, 90
4, 47063, Note_on_c, 2, 61, 0
4, 47070, Note_on_c, 2, 64, 90
4, 47093, Note_on_c, 2, 64, 0
4, 47100, Note_on_c, 2, 57, 90
4, 47123, Note_on_c, 2, 57, 0
4, 47130, Note_on_c, 2, 64, 90
4, 47153, Note_on_c, 2, 64, 0
4, 47160, Note_on_c, 2, 66, 90
4, 47183, Note_on_c, 2, 66, 0
4, 47190, Note_on_c, 2, 69, 90
4, 47213, Note_on_c, 2, 69, 0
4, 47220, Note_on_c, 2, 74, 90
4, 47243, Note_on_c, 2, 74, 0
4, 47250, Note_on_c, 2, 69, 90
4, 47273, Note_on_c, 2, 69, 0
4, 47280, Note_on_c, 2, 66, 90
4, 47303, Note_on_c, 2, 66, 0
4, 47310, Note_on_c, 2, 69, 90
4, 47333, Note_on_c, 2, 69, 0
4, 47340, Note_on_c, 2, 62, 90
4, 47363, Note_on_c, 2, 62, 0
4, 47370, Note_on_c, 2, 69, 90
4, 47393, Note_on_c, 2, 69, 0
4, 47400, Note_on_c, 2, 66, 90
4, 47423, Note_on_c, 2, 66, 0
4, 47430, Note_on_c, 2, 69, 90
4, 47453, Note_on_c, 2, 69, 0
4, 47460, Note_on_c, 2, 62, 90
4, 47483, Note_on_c, 2, 62, 0
4, 47490, Note_on_c, 2, 69, 90
4, 47513, Note_on_c, 2, 69, 0
4, 47520, Note_on_c, 2, 66, 90
4, 47543, Note_on_c, 2, 66, 0
4, 47550, Note_on_c, 2, 69, 90
4, 47573, Note_on_c, 2, 69, 0
4, 47580, Note_on_c, 2, 75, 90
4, 47603, Note_on_c, 2, 75, 0
4, 47610, Note_on_c, 2, 69, 90
4, 47633, Note_on_c, 2, 69, 0
4, 47640, Note_on_c, 2, 66, 90
4, 47663, Note_on_c, 2, 66, 0
4, 47670, Note_on_c, 2, 69, 90
4, 47693, Note_on_c, 2, 69, 0
4, 47700, Note_on_c, 2, 63, 90
4, 47723, Note_on_c, 2, 63, 0
4, 47730, Note_on_c, 2, 69, 90
4, 47753, Note_on_c, 2, 69, 0
4, 47760, Note_on_c, 2, 66, 90
4, 47783, Note_on_c, 2, 66, 0
4, 47790, Note_on_c, 2, 69, 90
4, 47813, Note_on_c, 2, 69, 0
4, 47820, Note_on_c, 2, 63, 90
4, 47843, Note_on_c, 2, 63, 0
4, 47850, Note_on_c, 2, 69, 90
4, 47873, Note_on_c, 2, 69, 0
4, 47880, Note_on_c, 2, 68, 90
4, 47903, Note_on_c, 2, 68, 0
4, 47910, Note_on_c, 2, 71, 90
4, 47933, Note_on_c, 2, 71, 0
4, 47940, Note_on_c, 2, 76, 90
4, 47963, Note_on_c, 2, 76, 0
4, 47970, Note_on_c, 2, 71, 90
4, 47993, Note_on_c, 2, 71, 0
4, 48000, Note_on_c, 2, 68, 90
4, 48023, Note_on_c, 2, 68, 0
4, 48030, Note_on_c, 2, 71, 90
4, 48053, Note_on_c, 2, 71, 0
4, 48060, Note_on_c, 2, 64, 90
4, 48083, Note_on_c, 2, 64, 0
4, 48090, Note_on_c, 2, 71, 90
4, 48113, Note_on_c, 2, 71, 0
4, 48120, Note_on_c, 2, 68, 90
4, 48143, Note_on_c, 2, 68, 0
4, 48150, Note_on_c, 2, 71, 90
4, 48173, Note_on_c, 2, 71, 0
4, 48180, Note_on_c, 2, 64, 90
4, 48203, Note_on_c, 2, 64, 0
4, 48210, Note_on_c, 2, 71, 90
4, 48233, Note_on_c, 2, 71, 0
4, 48240, Note_on_c, 2, 74, 90
4, 48263, Note_on_c, 2, 74, 0
4, 48270, Note_on_c, 2, 80, 90
4, 48293, Note_on_c, 2, 80, 0
4, 48300, Note_on_c, 2, 83, 90
4, 48323, Note_on_c, 2, 83, 0
4, 48330, Note_on_c, 2, 80, 90
4, 48353, Note_on_c, 2, 80, 0
4, 48360, Note_on_c, 2, 74, 90
4, 48383, Note_on_c, 2, 74, 0
4, 48390, Note_on_c, 2, 80, 90
4, 48413, Note_on_c, 2, 80, 0
4, 48420, Note_on_c, 2, 71, 90
4, 48443, Note_on_c, 2, 71, 0
4, 48450, Note_on_c, 2, 80, 90
4, 48473, Note_on_c, 2, 80, 0
4, 48480, Note_on_c, 2, 74, 90
4, 48503, Note_on_c, 2, 74, 0
4, 48510, Note_on_c, 2, 80, 90
4, 48533, Note_on_c, 2, 80, 0
4, 48540, Note_on_c, 2, 71, 90
4, 48563, Note_on_c, 2, 71, 0
4, 48570, Note_on_c, 2, 80, 90
4, 48593, Note_on_c, 2, 80, 0
4, 48600, Note_on_c, 2, 81, 90
4, 48623, Note_on_c, 2, 81, 0
4, 48630, Note_on_c, 2, 76, 90
4, 48653, Note_on_c, 2, 76, 0
4, 48660, Note_on_c, 2, 73, 90
4, 48683, Note_on_c, 2, 73, 0
4, 48690, Note_on_c, 2, 76, 90
4, 48713, Note_on_c, 2, 76, 0
4, 48720, Note_on_c, 2, 81, 90
4, 48743, Note_on_c, 2, 81, 0
4, 48750, Note_on_c, 2, 76, 90
4, 48773, Note_on_c, 2, 76, 0
4, 48780, Note_on_c, 2, 81, 90
4, 48803, Note_on_c, 2, 81, 0
4, 48810, Note_on_c, 2, 85, 90
4, 48833, Note_on_c, 2, 85, 0
4, 48840, Note_on_c, 2, 88, 90
4, 48863, Note_on_c, 2, 88, 0
4, 48870, Note_on_c, 2, 79, 90
4, 48893, Note_on_c, 2, 79, 0
4, 48900, Note_on_c, 2, 78, 90
4, 48923, Note_on_c, 2, 78, 0
4, 48930, Note_on_c, 2, 76, 90
4, 48953, Note_on_c, 2, 76, 0
4, 48960, Note_on_c, 2, 78, 90
4, 48983, Note_on_c, 2, 78, 0
4, 48990, Note_on_c, 2, 74, 90
4, 49013, Note_on_c, 2, 74, 0
4, 49020, Note_on_c, 2, 69, 90
4, 49043, Note_on_c, 2, 69, 0
4, 49050, Note_on_c, 2, 74, 90
4, 49073, Note_on_c, 2, 74, 0
4, 49080, Note_on_c, 2, 78, 90
4, 49103, Note_on_c, 2, 78, 0
4, 49110, Note_on_c, 2, 74, 90
4, 49133, Note_on_c, 2, 74, 0
4, 49140, Note_on_c, 2, 78, 90
4, 49163, Note_on_c, 2, 78, 0
4, 49170, Note_on_c, 2, 81, 90
4, 49193, Note_on_c, 2, 81, 0
4, 49200, Note_on_c, 2, 86, 90
4, 49223, Note_on_c, 2, 86, 0
4, 49230, Note_on_c, 2, 78, 90
4, 49253, Note_on_c, 2, 78, 0
4, 49260, Note_on_c, 2, 76, 90
4, 49283, Note_on_c, 2, 76, 0
4, 49290, Note_on_c, 2, 74, 90
4, 49313, Note_on_c, 2, 74, 0
4, 49320, Note_on_c, 2, 76, 90
4, 49343, Note_on_c, 2, 76, 0
4, 49350, Note_on_c, 2, 73, 90
4, 49373, Note_on_c, 2, 73, 0
4, 49380, Note_on_c, 2, 69, 90
4, 49403, Note_on_c, 2, 69, 0
4, 49410, Note_on_c, 2, 73, 90
4, 49433, Note_on_c, 2, 73, 0
4, 49440, Note_on_c, 2, 76, 90
4, 49463, Note_on_c, 2, 76, 0
4, 49470, Note_on_c, 2, 73, 90
4, 49493, Note_on_c, 2, 73, 0
4, 49500, Note_on_c, 2, 76, 90
4, 49523, Note_on_c, 2, 76, 0
4, 49530, Note_on_c, 2, 81, 90
4, 49553, Note_on_c, 2, 81, 0
4, 49560, Note_on_c, 2, 85, 90
4, 49583, Note_on_c, 2, 85, 0
4, 49590, Note_on_c, 2, 76, 90
4, 49613, Note_on_c, 2, 76, 0
4, 49620, Note_on_c, 2, 74, 90
4, 49643, Note_on_c, 2, 74, 0
4, 49650, Note_on_c, 2, 73, 90
4, 49673, Note_on_c, 2, 73, 0
4, 49680, Note_on_c, 2, 74, 90
4, 49703, Note_on_c, 2, 74, 0
4, 49710, Note_on_c, 2, 71, 90
4, 49733, Note_on_c, 2, 71, 0
4, 49740, Note_on_c, 2, 68, 90
4, 49763, Note_on_c, 2, 68, 0
4, 49770, Note_on_c, 2, 71, 90
4, 49793, Note_on_c, 2, 71, 0
4, 49800, Note_on_c, 2, 74, 90
4, 49823, Note_on_c, 2, 74, 0
4, 49830, Note_on_c, 2, 71, 90
4, 49853, Note_on_c, 2, 71, 0
4, 49860, Note_on_c, 2, 74, 90
4, 49883, Note_on_c, 2, 74, 0
4, 49890, Note_on_c, 2, 80, 90
4, 49913, Note_on_c, 2, 80, 0
4, 49920, Note_on_c, 2, 83, 90
4, 49943, Note_on_c, 2, 83, 0
4, 49950, Note_on_c, 2, 74, 90
4, 49973, Note_on_c, 2, 74, 0
4, 49980, Note_on_c, 2, 73, 90
4, 50003, Note_on_c, 2, 73, 0
4, 50010, Note_on_c, 2, 71, 90
4, 50033, Note_on_c, 2, 71, 0
4, 50040, Note_on_c, 2, 73, 90
4, 50063, Note_on_c, 2, 73, 0
4, 50070, Note_on_c, 2, 69, 90
4, 50093, Note_on_c, 2, 69, 0
4, 50100, Note_on_c, 2, 71, 90
4, 50123, Note_on_c, 2, 71, 0
4, 50130, Note_on_c, 2, 73, 90
4, 50153, Note_on_c, 2, 73, 0
4, 50160, Note_on_c, 2, 74, 90
4, 50183, Note_on_c, 2, 74, 0
4, 50190, Note_on_c, 2, 71, 90
4, 50213, Note_on_c, 2, 71, 0
4, 50220, Note_on_c, 2, 73, 90
4, 50243, Note_on_c, 2, 73, 0
4, 50250, Note_on_c, 2, 74, 90
4, 50273, Note_on_c, 2, 74, 0
4, 50280, Note_on_c, 2, 76, 90
4, 50303, Note_on_c, 2, 76, 0
4, 50310, Note_on_c, 2, 73, 90
4, 50333, Note_on_c, 2, 73, 0
4, 50340, Note_on_c, 2, 74, 90
4, 50363, Note_on_c, 2, 74, 0
4, 50370, Note_on_c, 2, 76, 90
4, 50393, Note_on_c, 2, 76, 0
4, 50400, Note_on_c, 2, 78, 90
4, 50423, Note_on_c, 2, 78, 0
4, 50430, Note_on_c, 2, 74, 90
4, 50453, Note_on_c, 2, 74, 0
4, 50460, Note_on_c, 2, 76, 90
4, 50483, Note_on_c, 2, 76, 0
4, 50490, Note_on_c, 2, 78, 90
4, 50513, Note_on_c, 2, 78, 0
4, 50520, Note_on_c, 2, 80, 90
4, 50543, Note_on_c, 2, 80, 0
4, 50550, Note_on_c, 2, 76, 90
4, 50573, Note_on_c, 2, 76, 0
4, 50580, Note_on_c, 2, 78, 90
4, 50603, Note_on_c, 2, 78, 0
4, 50610, Note_on_c, 2, 80, 90
4, 50633, Note_on_c, 2, 80, 0
4, 50640, Note_on_c, 2, 81, 90
4, 50663, Note_on_c, 2, 81, 0
4, 50670, Note_on_c, 2, 78, 90
4, 50693, Note_on_c, 2, 78, 0
4, 50700, Note_on_c, 2, 80, 90
4, 50723, Note_on_c, 2, 80, 0
4, 50730, Note_on_c, 2, 81, 90
4, 50753, Note_on_c, 2, 81, 0
4, 50760, Note_on_c, 2, 83, 90
4, 50783, Note_on_c, 2, 83, 0
4, 50790, Note_on_c, 2, 74, 90
4, 50813, Note_on_c, 2, 74, 0
4, 50820, Note_on_c, 2, 73, 90
4, 50843, Note_on_c, 2, 73, 0
4, 50850, Note_on_c, 2, 71, 90
4, 50873, Note_on_c, 2, 71, 0
4, 50880, Note_on_c, 2, 73, 90
4, 50903, Note_on_c, 2, 73, 0
4, 50910, Note_on_c, 2, 76, 90
4, 50933, Note_on_c, 2, 76, 0
4, 50940, Note_on_c, 2, 73, 90
4, 50963, Note_on_c, 2, 73, 0
4, 50970, Note_on_c, 2, 69, 90
4, 50993, Note_on_c, 2, 69, 0
4, 51000, Note_on_c, 2, 64, 90
4, 51047, Note_on_c, 2, 64, 0
4, 51060, Note_on_c, 2, 68, 90
4, 51107, Note_on_c, 2, 68, 0
4, 51120, Note_on_c, 2, 69, 90
4, 51215, Note_on_c, 2, 69, 0
4, 52230, Note_on_c, 2, 76, 90
4, 52253, Note_on_c, 2, 76, 0
4, 52260, Note_on_c, 2, 81, 90
4, 52283, Note_on_c, 2, 81, 0
4, 52290, Note_on_c, 2, 76, 90
4, 52313, Note_on_c, 2, 76, 0
4, 52320, Note_on_c, 2, 73, 90
4, 52343, Note_on_c, 2, 73, 0
4, 52350, Note_on_c, 2, 76, 90
4, 52373, Note_on_c, 2, 76, 0
4, 52380, Note_on_c, 2, 69, 90
4, 52403, Note_on_c, 2, 69, 0
4, 52410, Note_on_c, 2, 73, 90
4, 52433, Note_on_c, 2, 73, 0
4, 52440, Note_on_c, 2, 68, 90
4, 52463, Note_on_c, 2, 68, 0
4, 52470, Note_on_c, 2, 74, 90
4, 52493, Note_on_c, 2, 74, 0
4, 52500, Note_on_c, 2, 73, 90
4, 52523, Note_on_c, 2, 73, 0
4, 52530, Note_on_c, 2, 71, 90
4, 52553, Note_on_c, 2, 71, 0
4, 52560, Note_on_c, 2, 73, 90
4, 52607, Note_on_c, 2, 73, 0
4, 52620, Note_on_c, 2, 69, 90
4, 52667, Note_on_c, 2, 69, 0
4, 54030, Note_on_c, 2, 71, 90
4, 54053, Note_on_c, 2, 71, 0
4, 54060, Note_on_c, 2, 76, 90
4, 54083, Note_on_c, 2, 76, 0
4, 54090, Note_on_c, 2, 71, 90
4, 54113, Note_on_c, 2, 71, 0
4, 54120, Note_on_c, 2, 68, 90
4, 54143, Note_on_c, 2, 68, 0
4, 54150, Note_on_c, 2, 71, 90
4, 54173, Note_on_c, 2, 71, 0
4, 54180, Note_on_c, 2, 64, 90
4, 54203, Note_on_c, 2, 64, 0
4, 54210, Note_on_c, 2, 68, 90
4, 54233, Note_on_c, 2, 68, 0
4, 54240, Note_on_c, 2, 63, 90
4, 54263, Note_on_c, 2, 63, 0
4, 54270, Note_on_c, 2, 69, 90
4, 54293, Note_on_c, 2, 69, 0
4, 54300, Note_on_c, 2, 68, 90
4, 54323, Note_on_c, 2, 68, 0
4, 54330, Note_on_c, 2, 66, 90
4, 54353, Note_on_c, 2, 66, 0
4, 54360, Note_on_c, 2, 68, 90
4, 54407, Note_on_c, 2, 68, 0
4, 54420, Note_on_c, 2, 64, 90
4, 54467, Note_on_c, 2, 64, 0
4, 55830, Note_on_c, 2, 76, 90
4, 55853, Note_on_c, 2, 76, 0
4, 55860, Note_on_c, 2, 81, 90
4, 55883, Note_on_c, 2, 81, 0
4, 55890, Note_on_c, 2, 76, 90
4, 55913, Note_on_c, 2, 76, 0
4, 55920, Note_on_c, 2, 73, 90
4, 55943, Note_on_c, 2, 73, 0
4, 55950, Note_on_c, 2, 76, 90
4, 55973, Note_on_c, 2, 76, 0
4, 55980, Note_on_c, 2, 69, 90
4, 56003, Note_on_c, 2, 69, 0
4, 56010, Note_on_c, 2, 73, 90
4, 56033, Note_on_c, 2, 73, 0
4, 56040, Note_on_c, 2, 68, 90
4, 56063, Note_on_c, 2, 68, 0
4, 56070, Note_on_c, 2, 74, 90
4, 56093, Note_on_c, 2, 74, 0
4, 56100, Note_on_c, 2, 73, 90
4, 56123, Note_on_c, 2, 73, 0
4, 56130, Note_on_c, 2, 71, 90
4, 56153, Note_on_c, 2, 71, 0
4, 56160, Note_on_c, 2, 73, 90
4, 56207, Note_on_c, 2, 73, 0
4, 56220, Note_on_c, 2, 69, 90
4, 56267, Note_on_c, 2, 69, 0
4, 56880, Note_on_c, 2, 71, 90
4, 56910, Note_on_c, 2, 71, 0
4, 56940, Note_on_c, 2, 76, 90
4, 56970, Note_on_c, 2, 76, 0
4, 57600, Note_on_c, 2, 78, 90
4, 57630, Note_on_c, 2, 78, 0
4, 57660, Note_on_c, 2, 71, 90
4, 57690, Note_on_c, 2, 71, 0
4, 58320, Note_on_c, 2, 73, 90
4, 58350, Note_on_c, 2, 73, 0
4, 58380, Note_on_c, 2, 81, 90
4, 58410, Note_on_c, 2, 81, 0
4, 59040, Note_on_c, 2, 80, 90
4, 59070, Note_on_c, 2, 80, 0
4, 59100, Note_on_c, 2, 76, 90
4, 59130, Note_on_c, 2, 76, 0
4, 59790, Note_on_c, 2, 78, 90
4, 59813, Note_on_c, 2, 78, 0
4, 59820, Note_on_c, 2, 83, 90
4, 59843, Note_on_c, 2, 83, 0
4, 59850, Note_on_c, 2, 78, 90
4, 59873, Note_on_c, 2, 78, 0
4, 59880, Note_on_c, 2, 75, 90
4, 59903, Note_on_c, 2, 75, 0
4, 59910, Note_on_c, 2, 78, 90
4, 59933, Note_on_c, 2, 78, 0
4, 59940, Note_on_c, 2, 71, 90
4, 59963, Note_on_c, 2, 71, 0
4, 59970, Note_on_c, 2, 75, 90
4, 59993, Note_on_c, 2, 75, 0
4, 60000, Note_on_c, 2, 66, 90
4, 60023, Note_on_c, 2, 66, 0
4, 60030, Note_on_c, 2, 69, 90
4, 60053, Note_on_c, 2, 69, 0
4, 60060, Note_on_c, 2, 68, 90
4, 60083, Note_on_c, 2, 68, 0
4, 60090, Note_on_c, 2, 66, 90
4, 60113, Note_on_c, 2, 66, 0
4, 60120, Note_on_c, 2, 64, 90
4, 60143, Note_on_c, 2, 64, 0
4, 60150, Note_on_c, 2, 71, 90
4, 60173, Note_on_c, 2, 71, 0
4, 60180, Note_on_c, 2, 76, 90
4, 60203, Note_on_c, 2, 76, 0
4, 60210, Note_on_c, 2, 71, 90
4, 60233, Note_on_c, 2, 71, 0
4, 60240, Note_on_c, 2, 68, 90
4, 60263, Note_on_c, 2, 68, 0
4, 60270, Note_on_c, 2, 71, 90
4, 60293, Note_on_c, 2, 71, 0
4, 60300, Note_on_c, 2, 64, 90
4, 60323, Note_on_c, 2, 64, 0
4, 60330, Note_on_c, 2, 71, 90
4, 60353, Note_on_c, 2, 71, 0
4, 60360, Note_on_c, 2, 68, 90
4, 60383, Note_on_c, 2, 68, 0
4, 60390, Note_on_c, 2, 71, 90
4, 60413, Note_on_c, 2, 71, 0
4, 60420, Note_on_c, 2, 64, 90
4, 60443, Note_on_c, 2, 64, 0
4, 60450, Note_on_c, 2, 71, 90
4, 60473, Note_on_c, 2, 71, 0
4, 60480, Note_on_c, 2, 73, 90
4, 60503, Note_on_c, 2, 73, 0
4, 60510, Note_on_c, 2, 76, 90
4, 60533, Note_on_c, 2, 76, 0
4, 60540, Note_on_c, 2, 81, 90
4, 60563, Note_on_c, 2, 81, 0
4, 60570, Note_on_c, 2, 76, 90
4, 60593, Note_on_c, 2, 76, 0
4, 60600, Note_on_c, 2, 73, 90
4, 60623, Note_on_c, 2, 73, 0
4, 60630, Note_on_c, 2, 76, 90
4, 60653, Note_on_c, 2, 76, 0
4, 60660, Note_on_c, 2, 69, 90
4, 60683, Note_on_c, 2, 69, 0
4, 60690, Note_on_c, 2, 76, 90
4, 60713, Note_on_c, 2, 76, 0
4, 60720, Note_on_c, 2, 73, 90
4, 60743, Note_on_c, 2, 73, 0
4, 60750, Note_on_c, 2, 76, 90
4, 60773, Note_on_c, 2, 76, 0
4, 60780, Note_on_c, 2, 69, 90
4, 60803, Note_on_c, 2, 69, 0
4, 60810, Note_on_c, 2, 76, 90
4, 60833, Note_on_c, 2, 76, 0
4, 60840, Note_on_c, 2, 73, 90
4, 60863, Note_on_c, 2, 73, 0
4, 60870, Note_on_c, 2, 76, 90
4, 60893, Note_on_c, 2, 76, 0
4, 60900, Note_on_c, 2, 82, 90
4, 60923, Note_on_c, 2, 82, 0
4, 60930, Note_on_c, 2, 76, 90
4, 60953, Note_on_c, 2, 76, 0
4, 60960, Note_on_c, 2, 73, 90
4, 60983, Note_on_c, 2, 73, 0
4, 60990, Note_on_c, 2, 76, 90
4, 61013, Note_on_c, 2, 76, 0
4, 61020, Note_on_c, 2, 70, 90
4, 61043, Note_on_c, 2, 70, 0
4, 61050, Note_on_c, 2, 76, 90
4, 61073, Note_on_c, 2, 76, 0
4, 61080, Note_on_c, 2, 73, 90
4, 61103, Note_on_c, 2, 73, 0
4, 61110, Note_on_c, 2, 76, 90
4, 61133, Note_on_c, 2, 76, 0
4, 61140, Note_on_c, 2, 70, 90
4, 61163, Note_on_c, 2, 70, 0
4, 61170, Note_on_c, 2, 76, 90
4, 61193, Note_on_c, 2, 76, 0
4, 61200, Note_on_c, 2, 75, 90
4, 61223, Note_on_c, 2, 75, 0
4, 61230, Note_on_c, 2, 78, 90
4, 61253, Note_on_c, 2, 78, 0
4, 61260, Note_on_c, 2, 83, 90
4, 61283, Note_on_c, 2, 83, 0
4, 61290, Note_on_c, 2, 78, 90
4, 61313, Note_on_c, 2, 78, 0
4, 61320, Note_on_c, 2, 75, 90
4, 61343, Note_on_c, 2, 75, 0
4, 61350, Note_on_c, 2, 78, 90
4, 61373, Note_on_c, 2, 78, 0
4, 61380, Note_on_c, 2, 71, 90
4, 61403, Note_on_c, 2, 71, 0
4, 61410, Note_on_c, 2, 78, 90
4, 61433, Note_on_c, 2, 78, 0
4, 61440, Note_on_c, 2, 75, 90
4, 61463, Note_on_c, 2, 75, 0
4, 61470, Note_on_c, 2, 78, 90
4, 61493, Note_on_c, 2, 78, 0
4, 61500, Note_on_c, 2, 71, 90
4, 61523, Note_on_c, 2, 71, 0
4, 61530, Note_on_c, 2, 78, 90
4, 61553, Note_on_c, 2, 78, 0
4, 61560, Note_on_c, 2, 69, 90
4, 61583, Note_on_c, 2, 69, 0
4, 61590, Note_on_c, 2, 75, 90
4, 61613, Note_on_c, 2, 75, 0
4, 61620, Note_on_c, 2, 78, 90
4, 61643, Note_on_c, 2, 78, 0
4, 61650, Note_on_c, 2, 75, 90
4, 61673, Note_on_c, 2, 75, 0
4, 61680, Note_on_c, 2, 69, 90
4, 61703, Note_on_c, 2, 69, 0
4, 61710, Note_on_c, 2, 75, 90
4, 61733, Note_on_c, 2, 75, 0
4, 61740, Note_on_c, 2, 66, 90
4, 61763, Note_on_c, 2, 66, 0
4, 61770, Note_on_c, 2, 75, 90
4, 61793, Note_on_c, 2, 75, 0
4, 61800, Note_on_c, 2, 69, 90
4, 61823, Note_on_c, 2, 69, 0
4, 61830, Note_on_c, 2, 75, 90
4, 61853, Note_on_c, 2, 75, 0
4, 61860, Note_on_c, 2, 66, 90
4, 61883, Note_on_c, 2, 66, 0
4, 61890, Note_on_c, 2, 75, 90
4, 61913, Note_on_c, 2, 75, 0
4, 61920, Note_on_c, 2, 76, 90
4, 61943, Note_on_c, 2, 76, 0
4, 61950, Note_on_c, 2, 71, 90
4, 61973, Note_on_c, 2, 71, 0
4, 61980, Note_on_c, 2, 68, 90
4, 62003, Note_on_c, 2, 68, 0
4, 62010, Note_on_c, 2, 71, 90
4, 62033, Note_on_c, 2, 71, 0
4, 62040, Note_on_c, 2, 76, 90
4, 62063, Note_on_c, 2, 76, 0
4, 62070, Note_on_c, 2, 71, 90
4, 62093, Note_on_c, 2, 71, 0
4, 62100, Note_on_c, 2, 76, 90
4, 62123, Note_on_c, 2, 76, 0
4, 62130, Note_on_c, 2, 80, 90
4, 62153, Note_on_c, 2, 80, 0
4, 62160, Note_on_c, 2, 83, 90
4, 62183, Note_on_c, 2, 83, 0
4, 62190, Note_on_c, 2, 74, 90
4, 62213, Note_on_c, 2, 74, 0
4, 62220, Note_on_c, 2, 73, 90
4, 62243, Note_on_c, 2, 73, 0
4, 62250, Note_on_c, 2, 71, 90
4, 62273, Note_on_c, 2, 71, 0
4, 62280, Note_on_c, 2, 73, 90
4, 62303, Note_on_c, 2, 73, 0
4, 62310, Note_on_c, 2, 69, 90
4, 62333, Note_on_c, 2, 69, 0
4, 62340, Note_on_c, 2, 64, 90
4, 62363, Note_on_c, 2, 64, 0
4, 62370, Note_on_c, 2, 69, 90
4, 62393, Note_on_c, 2, 69, 0
4, 62400, Note_on_c, 2, 73, 90
4, 62423, Note_on_c, 2, 73, 0
4, 62430, Note_on_c, 2, 69, 90
4, 62453, Note_on_c, 2, 69, 0
4, 62460, Note_on_c, 2, 73, 90
4, 62483, Note_on_c, 2, 73, 0
4, 62490, Note_on_c, 2, 76, 90
4, 62513, Note_on_c, 2, 76, 0
4, 62520, Note_on_c, 2, 81, 90
4, 62543, Note_on_c, 2, 81, 0
4, 62550, Note_on_c, 2, 73, 90
4, 62573, Note_on_c, 2, 73, 0
4, 62580, Note_on_c, 2, 71, 90
4, 62603, Note_on_c, 2, 71, 0
4, 62610, Note_on_c, 2, 69, 90
4, 62633, Note_on_c, 2, 69, 0
4, 62640, Note_on_c, 2, 71, 90
4, 62663, Note_on_c, 2, 71, 0
4, 62670, Note_on_c, 2, 68, 90
4, 62693, Note_on_c, 2, 68, 0
4, 62700, Note_on_c, 2, 64, 90
4, 62723, Note_on_c, 2, 64, 0
4, 62730, Note_on_c, 2, 68, 90
4, 62753, Note_on_c, 2, 68, 0
4, 62760, Note_on_c, 2, 71, 90
4, 62783, Note_on_c, 2, 71, 0
4, 62790, Note_on_c, 2, 68, 90
4, 62813, Note_on_c, 2, 68, 0
4, 62820, Note_on_c, 2, 71, 90
4, 62843, Note_on_c, 2, 71, 0
4, 62850, Note_on_c, 2, 76, 90
4, 62873, Note_on_c, 2, 76, 0
4, 62880, Note_on_c, 2, 80, 90
4, 62903, Note_on_c, 2, 80, 0
4, 62910, Note_on_c, 2, 71, 90
4, 62933, Note_on_c, 2, 71, 0
4, 62940, Note_on_c, 2, 69, 90
4, 62963, Note_on_c, 2, 69, 0
4, 62970, Note_on_c, 2, 68, 90
4, 62993, Note_on_c, 2, 68, 0
4, 63000, Note_on_c, 2, 69, 90
4, 63023, Note_on_c, 2, 69, 0
4, 63030, Note_on_c, 2, 66, 90
4, 63053, Note_on_c, 2, 66, 0
4, 63060, Note_on_c, 2, 63, 90
4, 63083, Note_on_c, 2, 63, 0
4, 63090, Note_on_c, 2, 66, 90
4, 63113, Note_on_c, 2, 66, 0
4, 63120, Note_on_c, 2, 69, 90
4, 63143, Note_on_c, 2, 69, 0
4, 63150, Note_on_c, 2, 66, 90
4, 63173, Note_on_c, 2, 66, 0
4, 63180, Note_on_c, 2, 69, 90
4, 63203, Note_on_c, 2, 69, 0
4, 63210, Note_on_c, 2, 75, 90
4, 63233, Note_on_c, 2, 75, 0
4, 63240, Note_on_c, 2, 78, 90
4, 63263, Note_on_c, 2, 78, 0
4, 63270, Note_on_c, 2, 69, 90
4, 63293, Note_on_c, 2, 69, 0
4, 63300, Note_on_c, 2, 68, 90
4, 63323, Note_on_c, 2, 68, 0
4, 63330, Note_on_c, 2, 66, 90
4, 63353, Note_on_c, 2, 66, 0
4, 63360, Note_on_c, 2, 68, 90
4, 63383, Note_on_c, 2, 68, 0
4, 63390, Note_on_c, 2, 64, 90
4, 63413, Note_on_c, 2, 64, 0
4, 63420, Note_on_c, 2, 66, 90
4, 63443, Note_on_c, 2, 66, 0
4, 63450, Note_on_c, 2, 68, 90
4, 63473, Note_on_c, 2, 68, 0
4, 63480, Note_on_c, 2, 69, 90
4, 63503, Note_on_c, 2, 69, 0
4, 63510, Note_on_c, 2, 66, 90
4, 63533, Note_on_c, 2, 66, 0
4, 63540, Note_on_c, 2, 68, 90
4, 63563, Note_on_c, 2, 68, 0
4, 63570, Note_on_c, 2, 69, 90
4, 63593, Note_on_c, 2, 69, 0
4, 63600, Note_on_c, 2, 71, 90
4, 63623, Note_on_c, 2, 71, 0
4, 63630, Note_on_c, 2, 68, 90
4, 63653, Note_on_c, 2, 68, 0
4, 63660, Note_on_c, 2, 69, 90
4, 63683, Note_on_c, 2, 69, 0
4, 63690, Note_on_c, 2, 71, 90
4, 63713, Note_on_c, 2, 71, 0
4, 63720, Note_on_c, 2, 73, 90
4, 63743, Note_on_c, 2, 73, 0
4, 63750, Note_on_c, 2, 69, 90
4, 63773, Note_on_c, 2, 69, 0
4, 63780, Note_on_c, 2, 71, 90
4, 63803, Note_on_c, 2, 71, 0
4, 63810, Note_on_c, 2, 73, 90
4, 63833, Note_on_c, 2, 73, 0
4, 63840, Note_on_c, 2, 75, 90
4, 63863, Note_on_c, 2, 75, 0
4, 63870, Note_on_c, 2, 71, 90
4, 63893, Note_on_c, 2, 71, 0
4, 63900, Note_on_c, 2, 73, 90
4, 63923, Note_on_c, 2, 73, 0
4, 63930, Note_on_c, 2, 75, 90
4, 63953, Note_on_c, 2, 75, 0
4, 63960, Note_on_c, 2, 76, 90
4, 63983, Note_on_c, 2, 76, 0
4, 63990, Note_on_c, 2, 73, 90
4, 64013, Note_on_c, 2, 73, 0
4, 64020, Note_on_c, 2, 75, 90
4, 64043, Note_on_c, 2, 75, 0
4, 64050, Note_on_c, 2, 76, 90
4, 64073, Note_on_c, 2, 76, 0
4, 64080, Note_on_c, 2, 78, 90
4, 64103, Note_on_c, 2, 78, 0
4, 64110, Note_on_c, 2, 69, 90
4, 64133, Note_on_c, 2, 69, 0
4, 64140, Note_on_c, 2, 68, 90
4, 64163, Note_on_c, 2, 68, 0
4, 64170, Note_on_c, 2, 66, 90
4, 64193, Note_on_c, 2, 66, 0
4, 64200, Note_on_c, 2, 68, 90
4, 64223, Note_on_c, 2, 68, 0
4, 64230, Note_on_c, 2, 71, 90
4, 64253, Note_on_c, 2, 71, 0
4, 64260, Note_on_c, 2, 68, 90
4, 64283, Note_on_c, 2, 68, 0
4, 64290, Note_on_c, 2, 64, 90
4, 64313, Note_on_c, 2, 64, 0
4, 64320, Note_on_c, 2, 59, 90
4, 64367, Note_on_c, 2, 59, 0
4, 64380, Note_on_c, 2, 75, 90
4, 64427, Note_on_c, 2, 75, 0
4, 64440, Note_on_c, 2, 76, 90
4, 64487, Note_on_c, 2, 76, 0
4, 64500, Note_on_c, 2, 71, 90
4, 64547, Note_on_c, 2, 71, 0
4, 64830, Note_on_c, 2, 83, 90
4, 64853, Note_on_c, 2, 83, 0
4, 64860, Note_on_c, 2, 88, 90
4, 64883, Note_on_c, 2, 88, 0
4, 64890, Note_on_c, 2, 83, 90
4, 64913, Note_on_c, 2, 83, 0
4, 64920, Note_on_c, 2, 80, 90
4, 64943, Note_on_c, 2, 80, 0
4, 64950, Note_on_c, 2, 83, 90
4, 64973, Note_on_c, 2, 83, 0
4, 64980, Note_on_c, 2, 76, 90
4, 65003, Note_on_c, 2, 76, 0
4, 65010, Note_on_c, 2, 80, 90
4, 65033, Note_on_c, 2, 80, 0
4, 65040, Note_on_c, 2, 75, 90
4, 65063, Note_on_c, 2, 75, 0
4, 65070, Note_on_c, 2, 81, 90
4, 65093, Note_on_c, 2, 81, 0
4, 65100, Note_on_c, 2, 80, 90
4, 65123, Note_on_c, 2, 80, 0
4, 65130, Note_on_c, 2, 78, 90
4, 65153, Note_on_c, 2, 78, 0
4, 65160, Note_on_c, 2, 80, 90
4, 65207, Note_on_c, 2, 80, 0
4, 65220, Note_on_c, 2, 76, 90
4, 65267, Note_on_c, 2, 76, 0
4, 65550, Note_on_c, 2, 80, 90
4, 65573, Note_on_c, 2, 80, 0
4, 65580, Note_on_c, 2, 83, 90
4, 65603, Note_on_c, 2, 83, 0
4, 65610, Note_on_c, 2, 80, 90
4, 65633, Note_on_c, 2, 80, 0
4, 65640, Note_on_c, 2, 76, 90
4, 65663, Note_on_c, 2, 76, 0
4, 65670, Note_on_c, 2, 80, 90
4, 65693, Note_on_c, 2, 80, 0
4, 65700, Note_on_c, 2, 71, 90
4, 65723, Note_on_c, 2, 71, 0
4, 65730, Note_on_c, 2, 76, 90
4, 65753, Note_on_c, 2, 76, 0
4, 65760, Note_on_c, 2, 69, 90
4, 65783, Note_on_c, 2, 69, 0
4, 65790, Note_on_c, 2, 73, 90
4, 65813, Note_on_c, 2, 73, 0
4, 65820, Note_on_c, 2, 71, 90
4, 65843, Note_on_c, 2, 71, 0
4, 65850, Note_on_c, 2, 69, 90
4, 65873, Note_on_c, 2, 69, 0
4, 65880, Note_on_c, 2, 68, 90
4, 65903, Note_on_c, 2, 68, 0
4, 65910, Note_on_c, 2, 71, 90
4, 65933, Note_on_c, 2, 71, 0
4, 65940, Note_on_c, 2, 76, 90
4, 65963, Note_on_c, 2, 76, 0
4, 65970, Note_on_c, 2, 71, 90
4, 65993, Note_on_c, 2, 71, 0
4, 66000, Note_on_c, 2, 68, 90
4, 66023, Note_on_c, 2, 68, 0
4, 66030, Note_on_c, 2, 71, 90
4, 66053, Note_on_c, 2, 71, 0
4, 66060, Note_on_c, 2, 64, 90
4, 66083, Note_on_c, 2, 64, 0
4, 66090, Note_on_c, 2, 71, 90
4, 66113, Note_on_c, 2, 71, 0
4, 66120, Note_on_c, 2, 68, 90
4, 66143, Note_on_c, 2, 68, 0
4, 66150, Note_on_c, 2, 71, 90
4, 66173, Note_on_c, 2, 71, 0
4, 66180, Note_on_c, 2, 64, 90
4, 66203, Note_on_c, 2, 64, 0
4, 66210, Note_on_c, 2, 71, 90
4, 66233, Note_on_c, 2, 71, 0
4, 66240, Note_on_c, 2, 69, 90
4, 66263, Note_on_c, 2, 69, 0
4, 66270, Note_on_c, 2, 73, 90
4, 66293, Note_on_c, 2, 73, 0
4, 66300, Note_on_c, 2, 76, 90
4, 66323, Note_on_c, 2, 76, 0
4, 66330, Note_on_c, 2, 73, 90
4, 66353, Note_on_c, 2, 73, 0
4, 66360, Note_on_c, 2, 69, 90
4, 66383, Note_on_c, 2, 69, 0
4, 66390, Note_on_c, 2, 73, 90
4, 66413, Note_on_c, 2, 73, 0
4, 66420, Note_on_c, 2, 64, 90
4, 66443, Note_on_c, 2, 64, 0
4, 66450, Note_on_c, 2, 73, 90
4, 66473, Note_on_c, 2, 73, 0
4, 66480, Note_on_c, 2, 69, 90
4, 66503, Note_on_c, 2, 69, 0
4, 66510, Note_on_c, 2, 73, 90
4, 66533, Note_on_c, 2, 73, 0
4, 66540, Note_on_c, 2, 64, 90
4, 66563, Note_on_c, 2, 64, 0
4, 66570, Note_on_c, 2, 73, 90
4, 66593, Note_on_c, 2, 73, 0
4, 66600, Note_on_c, 2, 71, 90
4, 66623, Note_on_c, 2, 71, 0
4, 66630, Note_on_c, 2, 74, 90
4, 66653, Note_on_c, 2, 74, 0
4, 66660, Note_on_c, 2, 76, 90
4, 66683, Note_on_c, 2, 76, 0
4, 66690, Note_on_c, 2, 74, 90
4, 66713, Note_on_c, 2, 74, 0
4, 66720, Note_on_c, 2, 71, 90
4, 66743, Note_on_c, 2, 71, 0
4, 66750, Note_on_c, 2, 74, 90
4, 66773, Note_on_c, 2, 74, 0
4, 66780, Note_on_c, 2, 64, 90
4, 66803, Note_on_c, 2, 64, 0
4, 66810, Note_on_c, 2, 74, 90
4, 66833, Note_on_c, 2, 74, 0
4, 66840, Note_on_c, 2, 71, 90
4, 66863, Note_on_c, 2, 71, 0
4, 66870, Note_on_c, 2, 74, 90
4, 66893, Note_on_c, 2, 74, 0
4, 66900, Note_on_c, 2, 64, 90
4, 66923, Note_on_c, 2, 64, 0
4, 66930, Note_on_c, 2, 74, 90
4, 66953, Note_on_c, 2, 74, 0
4, 66960, Note_on_c, 2, 73, 90
4, 67007, Note_on_c, 2, 73, 0
4, 67020, Note_on_c, 2, 69, 90
4, 67067, Note_on_c, 2, 69, 0
4, 67350, Note_on_c, 2, 76, 90
4, 67373, Note_on_c, 2, 76, 0
4, 67380, Note_on_c, 2, 81, 90
4, 67403, Note_on_c, 2, 81, 0
4, 67410, Note_on_c, 2, 76, 90
4, 67433, Note_on_c, 2, 76, 0
4, 67440, Note_on_c, 2, 73, 90
4, 67463, Note_on_c, 2, 73, 0
4, 67470, Note_on_c, 2, 76, 90
4, 67493, Note_on_c, 2, 76, 0
4, 67500, Note_on_c, 2, 69, 90
4, 67523, Note_on_c, 2, 69, 0
4, 67530, Note_on_c, 2, 73, 90
4, 67553, Note_on_c, 2, 73, 0
4, 67560, Note_on_c, 2, 68, 90
4, 67583, Note_on_c, 2, 68, 0
4, 67590, Note_on_c, 2, 74, 90
4, 67613, Note_on_c, 2, 74, 0
4, 67620, Note_on_c, 2, 73, 90
4, 67643, Note_on_c, 2, 73, 0
4, 67650, Note_on_c, 2, 71, 90
4, 67673, Note_on_c, 2, 71, 0
4, 67680, Note_on_c, 2, 73, 90
4, 67727, Note_on_c, 2, 73, 0
4, 67740, Note_on_c, 2, 69, 90
4, 67787, Note_on_c, 2, 69, 0
4, 68070, Note_on_c, 2, 73, 90
4, 68093, Note_on_c, 2, 73, 0
4, 68100, Note_on_c, 2, 76, 90
4, 68123, Note_on_c, 2, 76, 0
4, 68130, Note_on_c, 2, 73, 90
4, 68153, Note_on_c, 2, 73, 0
4, 68160, Note_on_c, 2, 69, 90
4, 68183, Note_on_c, 2, 69, 0
4, 68190, Note_on_c, 2, 73, 90
4, 68213, Note_on_c, 2, 73, 0
4, 68220, Note_on_c, 2, 64, 90
4, 68243, Note_on_c, 2, 64, 0
4, 68250, Note_on_c, 2, 69, 90
4, 68273, Note_on_c, 2, 69, 0
4, 68280, Note_on_c, 2, 62, 90
4, 68303, Note_on_c, 2, 62, 0
4, 68310, Note_on_c, 2, 66, 90
4, 68333, Note_on_c, 2, 66, 0
4, 68340, Note_on_c, 2, 64, 90
4, 68363, Note_on_c, 2, 64, 0
4, 68370, Note_on_c, 2, 62, 90
4, 68393, Note_on_c, 2, 62, 0
4, 68400, Note_on_c, 2, 61, 90
4, 68423, Note_on_c, 2, 61, 0
4, 68430, Note_on_c, 2, 64, 90
4, 68453, Note_on_c, 2, 64, 0
4, 68460, Note_on_c, 2, 69, 90
4, 68483, Note_on_c, 2, 69, 0
4, 68490, Note_on_c, 2, 64, 90
4, 68513, Note_on_c, 2, 64, 0
4, 68520, Note_on_c, 2, 61, 90
4, 68543, Note_on_c, 2, 61, 0
4, 68550, Note_on_c, 2, 64, 90
4, 68573, Note_on_c, 2, 64, 0
4, 68580, Note_on_c, 2, 57, 90
4, 68603, Note_on_c, 2, 57, 0
4, 68610, Note_on_c, 2, 64, 90
4, 68633, Note_on_c, 2, 64, 0
4, 68640, Note_on_c, 2, 61, 90
4, 68663, Note_on_c, 2, 61, 0
4, 68670, Note_on_c, 2, 64, 90
4, 68693, Note_on_c, 2, 64, 0
4, 68700, Note_on_c, 2, 57, 90
4, 68723, Note_on_c, 2, 57, 0
4, 68730, Note_on_c, 2, 64, 90
4, 68753, Note_on_c, 2, 64, 0
4, 68760, Note_on_c, 2, 62, 90
4, 68783, Note_on_c, 2, 62, 0
4, 68790, Note_on_c, 2, 66, 90
4, 68813, Note_on_c, 2, 66, 0
4, 68820, Note_on_c, 2, 69, 90
4, 68843, Note_on_c, 2, 69, 0
4, 68850, Note_on_c, 2, 66, 90
4, 68873, Note_on_c, 2, 66, 0
4, 68880, Note_on_c, 2, 62, 90
4, 68903, Note_on_c, 2, 62, 0
4, 68910, Note_on_c, 2, 66, 90
4, 68933, Note_on_c, 2, 66, 0
4, 68940, Note_on_c, 2, 57, 90
4, 68963, Note_on_c, 2, 57, 0
4, 68970, Note_on_c, 2, 66, 90
4, 68993, Note_on_c, 2, 66, 0
4, 69000, Note_on_c, 2, 62, 90
4, 69023, Note_on_c, 2, 62, 0
4, 69030, Note_on_c, 2, 66, 90
4, 69053, Note_on_c, 2, 66, 0
4, 69060, Note_on_c, 2, 57, 90
4, 69083, Note_on_c, 2, 57, 0
4, 69090, Note_on_c, 2, 66, 90
4, 69113, Note_on_c, 2, 66, 0
4, 69120, Note_on_c, 2, 64, 90
4, 69143, Note_on_c, 2, 64, 0
4, 69150, Note_on_c, 2, 67, 90
4, 69173, Note_on_c, 2, 67, 0
4, 69180, Note_on_c, 2, 69, 90
4, 69203, Note_on_c, 2, 69, 0
4, 69210, Note_on_c, 2, 67, 90
4, 69233, Note_on_c, 2, 67, 0
4, 69240, Note_on_c, 2, 64, 90
4, 69263, Note_on_c, 2, 64, 0
4, 69270, Note_on_c, 2, 67, 90
4, 69293, Note_on_c, 2, 67, 0
4, 69300, Note_on_c, 2, 57, 90
4, 69323, Note_on_c, 2, 57, 0
4, 69330, Note_on_c, 2, 67, 90
4, 69353, Note_on_c, 2, 67, 0
4, 69360, Note_on_c, 2, 64, 90
4, 69383, Note_on_c, 2, 64, 0
4, 69390, Note_on_c, 2, 67, 90
4, 69413, Note_on_c, 2, 67, 0
4, 69420, Note_on_c, 2, 57, 90
4, 69443, Note_on_c, 2, 57, 0
4, 69450, Note_on_c, 2, 67, 90
4, 69473, Note_on_c, 2, 67, 0
4, 69480, Note_on_c, 2, 66, 90
4, 69527, Note_on_c, 2, 66, 0
4, 69540, Note_on_c, 2, 62, 90
4, 69587, Note_on_c, 2, 62, 0
4, 69780, Note_on_c, 2, 78, 90
4, 69827, Note_on_c, 2, 78, 0
4, 69840, Note_on_c, 2, 71, 90
4, 69887, Note_on_c, 2, 71, 0
4, 70140, Note_on_c, 2, 71, 90
4, 70187, Note_on_c, 2, 71, 0
4, 70200, Note_on_c, 2, 76, 90
4, 70247, Note_on_c, 2, 76, 0
4, 70500, Note_on_c, 2, 76, 90
4, 70547, Note_on_c, 2, 76, 0
4, 70560, Note_on_c, 2, 69, 90
4, 70607, Note_on_c, 2, 69, 0
4, 70860, Note_on_c, 2, 69, 90
4, 70907, Note_on_c, 2, 69, 0
4, 70920, Note_on_c, 2, 74, 90
4, 70943, Note_on_c, 2, 74, 0
4, 70950, Note_on_c, 2, 78, 90
4, 70973, Note_on_c, 2, 78, 0
4, 70980, Note_on_c, 2, 83, 90
4, 71003, Note_on_c, 2, 83, 0
4, 71010, Note_on_c, 2, 78, 90
4, 71033, Note_on_c, 2, 78, 0
4, 71040, Note_on_c, 2, 74, 90
4, 71063, Note_on_c, 2, 74, 0
4, 71070, Note_on_c, 2, 78, 90
4, 71093, Note_on_c, 2, 78, 0
4, 71100, Note_on_c, 2, 71, 90
4, 71123, Note_on_c, 2, 71, 0
4, 71130, Note_on_c, 2, 78, 90
4, 71153, Note_on_c, 2, 78, 0
4, 71160, Note_on_c, 2, 74, 90
4, 71183, Note_on_c, 2, 74, 0
4, 71190, Note_on_c, 2, 78, 90
4, 71213, Note_on_c, 2, 78, 0
4, 71220, Note_on_c, 2, 71, 90
4, 71243, Note_on_c, 2, 71, 0
4, 71250, Note_on_c, 2, 78, 90
4, 71273, Note_on_c, 2, 78, 0
4, 71280, Note_on_c, 2, 74, 90
4, 71303, Note_on_c, 2, 74, 0
4, 71310, Note_on_c, 2, 76, 90
4, 71333, Note_on_c, 2, 76, 0
4, 71340, Note_on_c, 2, 83, 90
4, 71363, Note_on_c, 2, 83, 0
4, 71370, Note_on_c, 2, 76, 90
4, 71393, Note_on_c, 2, 76, 0
4, 71400, Note_on_c, 2, 74, 90
4, 71423, Note_on_c, 2, 74, 0
4, 71430, Note_on_c, 2, 76, 90
4, 71453, Note_on_c, 2, 76, 0
4, 71460, Note_on_c, 2, 71, 90
4, 71483, Note_on_c, 2, 71, 0
4, 71490, Note_on_c, 2, 76, 90
4, 71513, Note_on_c, 2, 76, 0
4, 71520, Note_on_c, 2, 74, 90
4, 71543, Note_on_c, 2, 74, 0
4, 71550, Note_on_c, 2, 76, 90
4, 71573, Note_on_c, 2, 76, 0
4, 71580, Note_on_c, 2, 71, 90
4, 71603, Note_on_c, 2, 71, 0
4, 71610, Note_on_c, 2, 76, 90
4, 71633, Note_on_c, 2, 76, 0
4, 71640, Note_on_c, 2, 74, 90
4, 71663, Note_on_c, 2, 74, 0
4, 71670, Note_on_c, 2, 76, 90
4, 71693, Note_on_c, 2, 76, 0
4, 71700, Note_on_c, 2, 73, 90
4, 71723, Note_on_c, 2, 73, 0
4, 71730, Note_on_c, 2, 74, 90
4, 71753, Note_on_c, 2, 74, 0
4, 71760, Note_on_c, 2, 76, 90
4, 71783, Note_on_c, 2, 76, 0
4, 71790, Note_on_c, 2, 74, 90
4, 71813, Note_on_c, 2, 74, 0
4, 71820, Note_on_c, 2, 78, 90
4, 71843, Note_on_c, 2, 78, 0
4, 71850, Note_on_c, 2, 76, 90
4, 71873, Note_on_c, 2, 76, 0
4, 71880, Note_on_c, 2, 74, 90
4, 71903, Note_on_c, 2, 74, 0
4, 71910, Note_on_c, 2, 73, 90
4, 71933, Note_on_c, 2, 73, 0
4, 71940, Note_on_c, 2, 71, 90
4, 71963, Note_on_c, 2, 71, 0
4, 71970, Note_on_c, 2, 69, 90
4, 71993, Note_on_c, 2, 69, 0
4, 72000, Note_on_c, 2, 73, 90
4, 72047, Note_on_c, 2, 73, 0
4, 72060, Note_on_c, 2, 71, 90
4, 72107, Note_on_c, 2, 71, 0
4, 72120, Note_on_c, 2, 71, 90
4, 72167, Note_on_c, 2, 71, 0
4, 72360, Note_on_c, 2, 73, 90
4, 72390, Note_on_c, 2, 73, 0
4, 72420, Note_on_c, 2, 69, 90
4, 72450, Note_on_c, 2, 69, 0
4, 72720, Note_on_c, 2, 69, 90
4, 72750, Note_on_c, 2, 69, 0
4, 72780, Note_on_c, 2, 73, 90
4, 72810, Note_on_c, 2, 73, 0
4, 73080, Note_on_c, 2, 73, 90
4, 73110, Note_on_c, 2, 73, 0
4, 73140, Note_on_c, 2, 78, 90
4, 73170, Note_on_c, 2, 78, 0
4, 73440, Note_on_c, 2, 80, 90
4, 73470, Note_on_c, 2, 80, 0
4, 73500, Note_on_c, 2, 76, 90
4, 73530, Note_on_c, 2, 76, 0
4, 73800, Note_on_c, 2, 76, 90
4, 73830, Note_on_c, 2, 76, 0
4, 73860, Note_on_c, 2, 81, 90
4, 73890, Note_on_c, 2, 81, 0
4, 74160, Note_on_c, 2, 81, 90
4, 74190, Note_on_c, 2, 81, 0
4, 74220, Note_on_c, 2, 78, 90
4, 74250, Note_on_c, 2, 78, 0
4, 74520, Note_on_c, 2, 83, 90
4, 74550, Note_on_c, 2, 83, 0
4, 74580, Note_on_c, 2, 79, 90
4, 74610, Note_on_c, 2, 79, 0
4, 74880, Note_on_c, 2, 79, 90
4, 74910, Note_on_c, 2, 79, 0
4, 74940, Note_on_c, 2, 76, 90
4, 74970, Note_on_c, 2, 76, 0
4, 75630, Note_on_c, 2, 71, 90
4, 75653, Note_on_c, 2, 71, 0
4, 75660, Note_on_c, 2, 76, 90
4, 75683, Note_on_c, 2, 76, 0
4, 75690, Note_on_c, 2, 71, 90
4, 75713, Note_on_c, 2, 71, 0
4, 75720, Note_on_c, 2, 68, 90
4, 75743, Note_on_c, 2, 68, 0
4, 75750, Note_on_c, 2, 71, 90
4, 75773, Note_on_c, 2, 71, 0
4, 75780, Note_on_c, 2, 64, 90
4, 75803, Note_on_c, 2, 64, 0
4, 75810, Note_on_c, 2, 68, 90
4, 75833, Note_on_c, 2, 68, 0
4, 75840, Note_on_c, 2, 59, 90
4, 75863, Note_on_c, 2, 59, 0
4, 75870, Note_on_c, 2, 62, 90
4, 75893, Note_on_c, 2, 62, 0
4, 75900, Note_on_c, 2, 61, 90
4, 75923, Note_on_c, 2, 61, 0
4, 75930, Note_on_c, 2, 59, 90
4, 75953, Note_on_c, 2, 59, 0
4, 75960, Note_on_c, 2, 57, 90
4, 75983, Note_on_c, 2, 57, 0
4, 75990, Note_on_c, 2, 64, 90
4, 76013, Note_on_c, 2, 64, 0
4, 76020, Note_on_c, 2, 69, 90
4, 76043, Note_on_c, 2, 69, 0
4, 76050, Note_on_c, 2, 64, 90
4, 76073, Note_on_c, 2, 64, 0
4, 76080, Note_on_c, 2, 61, 90
4, 76103, Note_on_c, 2, 61, 0
4, 76110, Note_on_c, 2, 64, 90
4, 76133, Note_on_c, 2, 64, 0
4, 76140, Note_on_c, 2, 57, 90
4, 76163, Note_on_c, 2, 57, 0
4, 76170, Note_on_c, 2, 64, 90
4, 76193, Note_on_c, 2, 64, 0
4, 76200, Note_on_c, 2, 61, 90
4, 76223, Note_on_c, 2, 61, 0
4, 76230, Note_on_c, 2, 64, 90
4, 76253, Note_on_c, 2, 64, 0
4, 76260, Note_on_c, 2, 57, 90
4, 76283, Note_on_c, 2, 57, 0
4, 76290, Note_on_c, 2, 64, 90
4, 76313, Note_on_c, 2, 64, 0
4, 76320, Note_on_c, 2, 66, 90
4, 76343, Note_on_c, 2, 66, 0
4, 76350, Note_on_c, 2, 69, 90
4, 76373, Note_on_c, 2, 69, 0
4, 76380, Note_on_c, 2, 74, 90
4, 76403, Note_on_c, 2, 74, 0
4, 76410, Note_on_c, 2, 69, 90
4, 76433, Note_on_c, 2, 69, 0
4, 76440, Note_on_c, 2, 66, 90
4, 76463, Note_on_c, 2, 66, 0
4, 76470, Note_on_c, 2, 69, 90
4, 76493, Note_on_c, 2, 69, 0
4, 76500, Note_on_c, 2, 62, 90
4, 76523, Note_on_c, 2, 62, 0
4, 76530, Note_on_c, 2, 69, 90
4, 76553, Note_on_c, 2, 69, 0
4, 76560, Note_on_c, 2, 66, 90
4, 76583, Note_on_c, 2, 66, 0
4, 76590, Note_on_c, 2, 69, 90
4, 76613, Note_on_c, 2, 69, 0
4, 76620, Note_on_c, 2, 62, 90
4, 76643, Note_on_c, 2, 62, 0
4, 76650, Note_on_c, 2, 69, 90
4, 76673, Note_on_c, 2, 69, 0
4, 76680, Note_on_c, 2, 66, 90
4, 76703, Note_on_c, 2, 66, 0
4, 76710, Note_on_c, 2, 69, 90
4, 76733, Note_on_c, 2, 69, 0
4, 76740, Note_on_c, 2, 75, 90
4, 76763, Note_on_c, 2, 75, 0
4, 76770, Note_on_c, 2, 69, 90
4, 76793, Note_on_c, 2, 69, 0
4, 76800, Note_on_c, 2, 66, 90
4, 76823, Note_on_c, 2, 66, 0
4, 76830, Note_on_c, 2, 69, 90
4, 76853, Note_on_c, 2, 69, 0
4, 76860, Note_on_c, 2, 63, 90
4, 76883, Note_on_c, 2, 63, 0
4, 76890, Note_on_c, 2, 69, 90
4, 76913, Note_on_c, 2, 69, 0
4, 76920, Note_on_c, 2, 66, 90
4, 76943, Note_on_c, 2, 66, 0
4, 76950, Note_on_c, 2, 69, 90
4, 76973, Note_on_c, 2, 69, 0
4, 76980, Note_on_c, 2, 63, 90
4, 77003, Note_on_c, 2, 63, 0
4, 77010, Note_on_c, 2, 69, 90
4, 77033, Note_on_c, 2, 69, 0
4, 77040, Note_on_c, 2, 68, 90
4, 77063, Note_on_c, 2, 68, 0
4, 77070, Note_on_c, 2, 71, 90
4, 77093, Note_on_c, 2, 71, 0
4, 77100, Note_on_c, 2, 76, 90
4, 77123, Note_on_c, 2, 76, 0
4, 77130, Note_on_c, 2, 71, 90
4, 77153, Note_on_c, 2, 71, 0
4, 77160, Note_on_c, 2, 68, 90
4, 77183, Note_on_c, 2, 68, 0
4, 77190, Note_on_c, 2, 71, 90
4, 77213, Note_on_c, 2, 71, 0
4, 77220, Note_on_c, 2, 64, 90
4, 77243, Note_on_c, 2, 64, 0
4, 77250, Note_on_c, 2, 71, 90
4, 77273, Note_on_c, 2, 71, 0
4, 77280, Note_on_c, 2, 68, 90
4, 77303, Note_on_c, 2, 68, 0
4, 77310, Note_on_c, 2, 71, 90
4, 77333, Note_on_c, 2, 71, 0
4, 77340, Note_on_c, 2, 64, 90
4, 77363, Note_on_c, 2, 64, 0
4, 77370, Note_on_c, 2, 71, 90
4, 77393, Note_on_c, 2, 71, 0
4, 77400, Note_on_c, 2, 74, 90
4, 77423, Note_on_c, 2, 74, 0
4, 77430, Note_on_c, 2, 80, 90
4, 77453, Note_on_c, 2, 80, 0
4, 77460, Note_on_c, 2, 83, 90
4, 77483, Note_on_c, 2, 83, 0
4, 77490, Note_on_c, 2, 80, 90
4, 77513, Note_on_c, 2, 80, 0
4, 77520, Note_on_c, 2, 74, 90
4, 77543, Note_on_c, 2, 74, 0
4, 77550, Note_on_c, 2, 80, 90
4, 77573, Note_on_c, 2, 80, 0
4, 77580, Note_on_c, 2, 71, 90
4, 77603, Note_on_c, 2, 71, 0
4, 77610, Note_on_c, 2, 80, 90
4, 77633, Note_on_c, 2, 80, 0
4, 77640, Note_on_c, 2, 74, 90
4, 77663, Note_on_c, 2, 74, 0
4, 77670, Note_on_c, 2, 80, 90
4, 77693, Note_on_c, 2, 80, 0
4, 77700, Note_on_c, 2, 71, 90
4, 77723, Note_on_c, 2, 71, 0
4, 77730, Note_on_c, 2, 80, 90
4, 77753, Note_on_c, 2, 80, 0
4, 77760, Note_on_c, 2, 81, 90
4, 77783, Note_on_c, 2, 81, 0
4, 77790, Note_on_c, 2, 76, 90
4, 77813, Note_on_c, 2, 76, 0
4, 77820, Note_on_c, 2, 73, 90
4, 77843, Note_on_c, 2, 73, 0
4, 77850, Note_on_c, 2, 76, 90
4, 77873, Note_on_c, 2, 76, 0
4, 77880, Note_on_c, 2, 81, 90
4, 77903, Note_on_c, 2, 81, 0
4, 77910, Note_on_c, 2, 76, 90
4, 77933, Note_on_c, 2, 76, 0
4, 77940, Note_on_c, 2, 81, 90
4, 77963, Note_on_c, 2, 81, 0
4, 77970, Note_on_c, 2, 85, 90
4, 77993, Note_on_c, 2, 85, 0
4, 78000, Note_on_c, 2, 88, 90
4, 78023, Note_on_c, 2, 88, 0
4, 78030, Note_on_c, 2, 79, 90
4, 78053, Note_on_c, 2, 79, 0
4, 78060, Note_on_c, 2, 78, 90
4, 78083, Note_on_c, 2, 78, 0
4, 78090, Note_on_c, 2, 76, 90
4, 78113, Note_on_c, 2, 76, 0
4, 78120, Note_on_c, 2, 78, 90
4, 78143, Note_on_c, 2, 78, 0
4, 78150, Note_on_c, 2, 74, 90
4, 78173, Note_on_c, 2, 74, 0
4, 78180, Note_on_c, 2, 69, 90
4, 78203, Note_on_c, 2, 69, 0
4, 78210, Note_on_c, 2, 74, 90
4, 78233, Note_on_c, 2, 74, 0
4, 78240, Note_on_c, 2, 78, 90
4, 78263, Note_on_c, 2, 78, 0
4, 78270, Note_on_c, 2, 74, 90
4, 78293, Note_on_c, 2, 74, 0
4, 78300, Note_on_c, 2, 78, 90
4, 78323, Note_on_c, 2, 78, 0
4, 78330, Note_on_c, 2, 81, 90
4, 78353, Note_on_c, 2, 81, 0
4, 78360, Note_on_c, 2, 86, 90
4, 78383, Note_on_c, 2, 86, 0
4, 78390, Note_on_c, 2, 78, 90
4, 78413, Note_on_c, 2, 78, 0
4, 78420, Note_on_c, 2, 76, 90
4, 78443, Note_on_c, 2, 76, 0
4, 78450, Note_on_c, 2, 74, 90
4, 78473, Note_on_c, 2, 74, 0
4, 78480, Note_on_c, 2, 76, 90
4, 78503, Note_on_c, 2, 76, 0
4, 78510, Note_on_c, 2, 73, 90
4, 78533, Note_on_c, 2, 73, 0
4, 78540, Note_on_c, 2, 69, 90
4, 78563, Note_on_c, 2, 69, 0
4, 78570, Note_on_c, 2, 73, 90
4, 78593, Note_on_c, 2, 73, 0
4, 78600, Note_on_c, 2, 76, 90
4, 78623, Note_on_c, 2, 76, 0
4, 78630, Note_on_c, 2, 73, 90
4, 78653, Note_on_c, 2, 73, 0
4, 78660, Note_on_c, 2, 76, 90
4, 78683, Note_on_c, 2, 76, 0
4, 78690, Note_on_c, 2, 81, 90
4, 78713, Note_on_c, 2, 81, 0
4, 78720, Note_on_c, 2, 85, 90
4, 78743, Note_on_c, 2, 85, 0
4, 78750, Note_on_c, 2, 76, 90
4, 78773, Note_on_c, 2, 76, 0
4, 78780, Note_on_c, 2, 74, 90
4, 78803, Note_on_c, 2, 74, 0
4, 78810, Note_on_c, 2, 73, 90
4, 78833, Note_on_c, 2, 73, 0
4, 78840, Note_on_c, 2, 74, 90
4, 78863, Note_on_c, 2, 74, 0
4, 78870, Note_on_c, 2, 71, 90
4, 78893, Note_on_c, 2, 71, 0
4, 78900, Note_on_c, 2, 68, 90
4, 78923, Note_on_c, 2, 68, 0
4, 78930, Note_on_c, 2, 71, 90
4, 78953, Note_on_c, 2, 71, 0
4, 78960, Note_on_c, 2, 74, 90
4, 78983, Note_on_c, 2, 74, 0
4, 78990, Note_on_c, 2, 71, 90
4, 79013, Note_on_c, 2, 71, 0
4, 79020, Note_on_c, 2, 74, 90
4, 79043, Note_on_c, 2, 74, 0
4, 79050, Note_on_c, 2, 80, 90
4, 79073, Note_on_c, 2, 80, 0
4, 79080, Note_on_c, 2, 83, 90
4, 79103, Note_on_c, 2, 83, 0
4, 79110, Note_on_c, 2, 74, 90
4, 79133, Note_on_c, 2, 74, 0
4, 79140, Note_on_c, 2, 73, 90
4, 79163, Note_on_c, 2, 73, 0
4, 79170, Note_on_c, 2, 71, 90
4, 79193, Note_on_c, 2, 71, 0
4, 79200, Note_on_c, 2, 73, 90
4, 79223, Note_on_c, 2, 73, 0
4, 79230, Note_on_c, 2, 69, 90
4, 79253, Note_on_c, 2, 69, 0
4, 79260, Note_on_c, 2, 71, 90
4, 79283, Note_on_c, 2, 71, 0
4, 79290, Note_on_c, 2, 73, 90
4, 79313, Note_on_c, 2, 73, 0
4, 79320, Note_on_c, 2, 74, 90
4, 79343, Note_on_c, 2, 74, 0
4, 79350, Note_on_c, 2, 71, 90
4, 79373, Note_on_c, 2, 71, 0
4, 79380, Note_on_c, 2, 73, 90
4, 79403, Note_on_c, 2, 73, 0
4, 79410, Note_on_c, 2, 74, 90
4, 79433, Note_on_c, 2, 74, 0
4, 79440, Note_on_c, 2, 76, 90
4, 79463, Note_on_c, 2, 76, 0
4, 79470, Note_on_c, 2, 73, 90
4, 79493, Note_on_c, 2, 73, 0
4, 79500, Note_on_c, 2, 74, 90
4, 79523, Note_on_c, 2, 74, 0
4, 79530, Note_on_c, 2, 76, 90
4, 79553, Note_on_c, 2, 76, 0
4, 79560, Note_on_c, 2, 78, 90
4, 79583, Note_on_c, 2, 78, 0
4, 79590, Note_on_c, 2, 74, 90
4, 79613, Note_on_c, 2, 74, 0
4, 79620, Note_on_c, 2, 76, 90
4, 79643, Note_on_c, 2, 76, 0
4, 79650, Note_on_c, 2, 78, 90
4, 79673, Note_on_c, 2, 78, 0
4, 79680, Note_on_c, 2, 80, 90
4, 79703, Note_on_c, 2, 80, 0
4, 79710, Note_on_c, 2, 76, 90
4, 79733, Note_on_c, 2, 76, 0
4, 79740, Note_on_c, 2, 78, 90
4, 79763, Note_on_c, 2, 78, 0
4, 79770, Note_on_c, 2, 80, 90
4, 79793, Note_on_c, 2, 80, 0
4, 79800, Note_on_c, 2, 81, 90
4, 79823, Note_on_c, 2, 81, 0
4, 79830, Note_on_c, 2, 78, 90
4, 79853, Note_on_c, 2, 78, 0
4, 79860, Note_on_c, 2, 80, 90
4, 79883, Note_on_c, 2, 80, 0
4, 79890, Note_on_c, 2, 81, 90
4, 79913, Note_on_c, 2, 81, 0
4, 79920, Note_on_c, 2, 83, 90
4, 79943, Note_on_c, 2, 83, 0
4, 79950, Note_on_c, 2, 74, 90
4, 79973, Note_on_c, 2, 74, 0
4, 79980, Note_on_c, 2, 73, 90
4, 80003, Note_on_c, 2, 73, 0
4, 80010, Note_on_c, 2, 71, 90
4, 80033, Note_on_c, 2, 71, 0
4, 80040, Note_on_c, 2, 73, 90
4, 80063, Note_on_c, 2, 73, 0
4, 80070, Note_on_c, 2, 76, 90
4, 80093, Note_on_c, 2, 76, 0
4, 80100, Note_on_c, 2, 73, 90
4, 80123, Note_on_c, 2, 73, 0
4, 80130, Note_on_c, 2, 69, 90
4, 80153, Note_on_c, 2, 69, 0
4, 80160, Note_on_c, 2, 64, 90
4, 80207, Note_on_c, 2, 64, 0
4, 80220, Note_on_c, 2, 68, 90
4, 80267, Note_on_c, 2, 68, 0
4, 80280, Note_on_c, 2, 69, 90
4, 80375, Note_on_c, 2, 69, 0
4, 83880, Note_on_c, 2, 74, 90
4, 83975, Note_on_c, 2, 74, 0
4, 84120, Note_on_c, 2, 78, 90
4, 84215, Note_on_c, 2, 78, 0
4, 84300, Note_on_c, 2, 74, 90
4, 84347, Note_on_c, 2, 74, 0
4, 84360, Note_on_c, 2, 78, 90
4, 84407, Note_on_c, 2, 78, 0
4, 84420, Note_on_c, 2, 74, 90
4, 84467, Note_on_c, 2, 74, 0
4, 84480, Note_on_c, 2, 71, 90
4, 84527, Note_on_c, 2, 71, 0
4, 84540, Note_on_c, 2, 71, 90
4, 84587, Note_on_c, 2, 71, 0
4, 84600, Note_on_c, 2, 71, 90
4, 84647, Note_on_c, 2, 71, 0
4, 84660, Note_on_c, 2, 73, 90
4, 84683, Note_on_c, 2, 73, 0
4, 84690, Note_on_c, 2, 75, 90
4, 84713, Note_on_c, 2, 75, 0
4, 84720, Note_on_c, 2, 76, 90
4, 84767, Note_on_c, 2, 76, 0
4, 84780, Note_on_c, 2, 71, 90
4, 84827, Note_on_c, 2, 71, 0
4, 84840, Note_on_c, 2, 83, 90
4, 84935, Note_on_c, 2, 83, 0
4, 85020, Note_on_c, 2, 73, 90
4, 85067, Note_on_c, 2, 73, 0
4, 85080, Note_on_c, 2, 76, 90
4, 85127, Note_on_c, 2, 76, 0
4, 85140, Note_on_c, 2, 73, 90
4, 85187, Note_on_c, 2, 73, 0
4, 85200, Note_on_c, 2, 69, 90
4, 85247, Note_on_c, 2, 69, 0
4, 85260, Note_on_c, 2, 69, 90
4, 85307, Note_on_c, 2, 69, 0
4, 85320, Note_on_c, 2, 69, 90
4, 85367, Note_on_c, 2, 69, 0
4, 85380, Note_on_c, 2, 71, 90
4, 85403, Note_on_c, 2, 71, 0
4, 85410, Note_on_c, 2, 73, 90
4, 85433, Note_on_c, 2, 73, 0
4, 85440, Note_on_c, 2, 74, 90
4, 85487, Note_on_c, 2, 74, 0
4, 85500, Note_on_c, 2, 69, 90
4, 85547, Note_on_c, 2, 69, 0
4, 85560, Note_on_c, 2, 81, 90
4, 85655, Note_on_c, 2, 81, 0
4, 85740, Note_on_c, 2, 79, 90
4, 85787, Note_on_c, 2, 79, 0
4, 85800, Note_on_c, 2, 76, 90
4, 85847, Note_on_c, 2, 76, 0
4, 85860, Note_on_c, 2, 81, 90
4, 85907, Note_on_c, 2, 81, 0
4, 85920, Note_on_c, 2, 81, 80
4, 86280, Note_on_c, 2, 81, 0
4, 86280, Note_on_c, 2, 75, 80
4, 86400, Note_on_c, 2, 75, 0
4, 86400, Note_on_c, 2, 76, 80
4, 86880, Note_on_c, 2, 76, 0
4, 86880, Note_on_c, 2, 78, 80
4, 87000, Note_on_c, 2, 78, 0
4, 87240, Note_on_c, 2, 81, 90
4, 87300, Note_on_c, 2, 81, 0
4, 87300, Note_on_c, 2, 79, 90
4, 87360, Note_on_c, 2, 79, 0
4, 87360, Note_on_c, 2, 78, 90
4, 87420, Note_on_c, 2, 78, 0
4, 87420, Note_on_c, 2, 76, 90
4, 87480, Note_on_c, 2, 76, 0
4, 88140, Note_on_c, 2, 73, 90
4, 88187, Note_on_c, 2, 73, 0
4, 88200, Note_on_c, 2, 73, 90
4, 88247, Note_on_c, 2, 73, 0
4, 88260, Note_on_c, 2, 74, 90
4, 88307, Note_on_c, 2, 74, 0
4, 88320, Note_on_c, 2, 76, 90
4, 88367, Note_on_c, 2, 76, 0
4, 88380, Note_on_c, 2, 76, 90
4, 88427, Note_on_c, 2, 76, 0
4, 88440, Note_on_c, 2, 76, 90
4, 88487, Note_on_c, 2, 76, 0
4, 88500, Note_on_c, 2, 78, 90
4, 88547, Note_on_c, 2, 78, 0
4, 88560, Note_on_c, 2, 79, 90
4, 88607, Note_on_c, 2, 79, 0
4, 88620, Note_on_c, 2, 74, 90
4, 88667, Note_on_c, 2, 74, 0
4, 88680, Note_on_c, 2, 74, 90
4, 88727, Note_on_c, 2, 74, 0
4, 88740, Note_on_c, 2, 76, 90
4, 88787, Note_on_c, 2, 76, 0
4, 88800, Note_on_c, 2, 78, 90
4, 88847, Note_on_c, 2, 78, 0
4, 88860, Note_on_c, 2, 78, 90
4, 88907, Note_on_c, 2, 78, 0
4, 88920, Note_on_c, 2, 76, 90
4, 88967, Note_on_c, 2, 76, 0
4, 88980, Note_on_c, 2, 74, 90
4, 89027, Note_on_c, 2, 74, 0
4, 89040, Note_on_c, 2, 81, 90
4, 89087, Note_on_c, 2, 81, 0
4, 89100, Note_on_c, 2, 76, 90
4, 89147, Note_on_c, 2, 76, 0
4, 89160, Note_on_c, 2, 76, 90
4, 89207, Note_on_c, 2, 76, 0
4, 89220, Note_on_c, 2, 78, 90
4, 89267, Note_on_c, 2, 78, 0
4, 89280, Note_on_c, 2, 71, 90
4, 89327, Note_on_c, 2, 71, 0
4, 89340, Note_on_c, 2, 71, 90
4, 89387, Note_on_c, 2, 71, 0
4, 89400, Note_on_c, 2, 71, 90
4, 89447, Note_on_c, 2, 71, 0
4, 89460, Note_on_c, 2, 73, 90
4, 89507, Note_on_c, 2, 73, 0
4, 89520, Note_on_c, 2, 74, 90
4, 89567, Note_on_c, 2, 74, 0
4, 89580, Note_on_c, 2, 74, 90
4, 89627, Note_on_c, 2, 74, 0
4, 89640, Note_on_c, 2, 73, 90
4, 89687, Note_on_c, 2, 73, 0
4, 89700, Note_on_c, 2, 71, 90
4, 89747, Note_on_c, 2, 71, 0
4, 89760, Note_on_c, 2, 73, 90
4, 89807, Note_on_c, 2, 73, 0
4, 89820, Note_on_c, 2, 76, 90
4, 89915, Note_on_c, 2, 76, 0
4, 89940, Note_on_c, 2, 75, 90
4, 89987, Note_on_c, 2, 75, 0
4, 90000, Note_on_c, 2, 76, 90
4, 90047, Note_on_c, 2, 76, 0
4, 90060, Note_on_c, 2, 74, 90
4, 90107, Note_on_c, 2, 74, 0
4, 90120, Note_on_c, 2, 73, 90
4, 90167, Note_on_c, 2, 73, 0
4, 90180, Note_on_c, 2, 78, 90
4, 90227, Note_on_c, 2, 78, 0
4, 90240, Note_on_c, 2, 71, 90
4, 90287, Note_on_c, 2, 71, 0
4, 90300, Note_on_c, 2, 78, 90
4, 90395, Note_on_c, 2, 78, 0
4, 90420, Note_on_c, 2, 77, 90
4, 90467, Note_on_c, 2, 77, 0
4, 90480, Note_on_c, 2, 78, 90
4, 90527, Note_on_c, 2, 78, 0
4, 90540, Note_on_c, 2, 73, 90
4, 90587, Note_on_c, 2, 73, 0
4, 90600, Note_on_c, 2, 73, 90
4, 90647, Note_on_c, 2, 73, 0
4, 90660, Note_on_c, 2, 71, 90
4, 90707, Note_on_c, 2, 71, 0
4, 90720, Note_on_c, 2, 69, 90
4, 90863, Note_on_c, 2, 69, 0
4, 90900, Note_on_c, 2, 67, 90
4, 90947, Note_on_c, 2, 67, 0
4, 90960, Note_on_c, 2, 66, 90
4, 91007, Note_on_c, 2, 66, 0
4, 91020, Note_on_c, 2, 69, 90
4, 91067, Note_on_c, 2, 69, 0
4, 91080, Note_on_c, 2, 74, 90
4, 91223, Note_on_c, 2, 74, 0
4, 91260, Note_on_c, 2, 73, 90
4, 91307, Note_on_c, 2, 73, 0
4, 91320, Note_on_c, 2, 73, 90
4, 91367, Note_on_c, 2, 73, 0
4, 91380, Note_on_c, 2, 69, 90
4, 91427, Note_on_c, 2, 69, 0
4, 91440, Note_on_c, 2, 74, 90
4, 91487, Note_on_c, 2, 74, 0
4, 91500, Note_on_c, 2, 76, 90
4, 91547, Note_on_c, 2, 76, 0
4, 91560, Note_on_c, 2, 78, 90
4, 91703, Note_on_c, 2, 78, 0
4, 91740, Note_on_c, 2, 76, 90
4, 91763, Note_on_c, 2, 76, 0
4, 91770, Note_on_c, 2, 75, 90
4, 91793, Note_on_c, 2, 75, 0
4, 91800, Note_on_c, 2, 76, 90
4, 91847, Note_on_c, 2, 76, 0
4, 91860, Note_on_c, 2, 78, 90
4, 91907, Note_on_c, 2, 78, 0
4, 91920, Note_on_c, 2, 79, 90
4, 91967, Note_on_c, 2, 79, 0
4, 91980, Note_on_c, 2, 78, 90
4, 92027, Note_on_c, 2, 78, 0
4, 92040, Note_on_c, 2, 78, 90
4, 92183, Note_on_c, 2, 78, 0
4, 92220, Note_on_c, 2, 76, 90
4, 92243, Note_on_c, 2, 76, 0
4, 92250, Note_on_c, 2, 74, 90
4, 92273, Note_on_c, 2, 74, 0
4, 92280, Note_on_c, 2, 76, 90
4, 92327, Note_on_c, 2, 76, 0
4, 92340, Note_on_c, 2, 77, 90
4, 92387, Note_on_c, 2, 77, 0
4, 92400, Note_on_c, 2, 78, 80
4, 93240, Note_on_c, 2, 78, 0
4, 93240, Note_on_c, 2, 74, 80
4, 93479, Note_on_c, 2, 74, 0
4, 93480, Note_on_c, 2, 73, 80
4, 93599, Note_on_c, 2, 73, 0
4, 93600, Note_on_c, 2, 74, 80
4, 94319, Note_on_c, 2, 74, 0
4, 94320, Note_on_c, 2, 78, 80
4, 94679, Note_on_c, 2, 78, 0
4, 94680, Note_on_c, 2, 75, 80
4, 94799, Note_on_c, 2, 75, 0
4, 94800, Note_on_c, 2, 76, 80
4, 95400, Note_on_c, 2, 76, 0
4, 95400, Note_on_c, 2, 70, 80
4, 95520, Note_on_c, 2, 70, 0
4, 95520, Note_on_c, 2, 71, 80
4, 95759, Note_on_c, 2, 71, 0
4, 95760, Note_on_c, 2, 74, 80
4, 95999, Note_on_c, 2, 74, 0
4, 96000, Note_on_c, 2, 73, 80
4, 96479, Note_on_c, 2, 73, 0
4, 96480, Note_on_c, 2, 75, 80
4, 96599, Note_on_c, 2, 75, 0
4, 96600, Note_on_c, 2, 80, 80
4, 96839, Note_on_c, 2, 80, 0
4, 96840, Note_on_c, 2, 81, 80
4, 97079, Note_on_c, 2, 81, 0
4, 97080, Note_on_c, 2, 80, 80
4, 97139, Note_on_c, 2, 80, 0
4, 97140, Note_on_c, 2, 78, 80
4, 97199, Note_on_c, 2, 78, 0
4, 97200, Note_on_c, 2, 77, 80
4, 97439, Note_on_c, 2, 77, 0
4, 97800, Note_on_c, 2, 69, 90
4, 97919, Note_on_c, 2, 69, 0
4, 97920, Note_on_c, 2, 69, 90
4, 98039, Note_on_c, 2, 69, 0
4, 98040, Note_on_c, 2, 76, 90
4, 98159, Note_on_c, 2, 76, 0
4, 98160, Note_on_c, 2, 76, 90
4, 98279, Note_on_c, 2, 76, 0
4, 98280, Note_on_c, 2, 74, 90
4, 98339, Note_on_c, 2, 74, 0
4, 98340, Note_on_c, 2, 73, 90
4, 98399, Note_on_c, 2, 73, 0
4, 98400, Note_on_c, 2, 71, 90
4, 98519, Note_on_c, 2, 71, 0
4, 98520, Note_on_c, 2, 73, 90
4, 98639, Note_on_c, 2, 73, 0
4, 98640, Note_on_c, 2, 74, 90
4, 98699, Note_on_c, 2, 74, 0
4, 98700, Note_on_c, 2, 73, 90
4, 98759, Note_on_c, 2, 73, 0
4, 98760, Note_on_c, 2, 71, 90
4, 98879, Note_on_c, 2, 71, 0
4, 98880, Note_on_c, 2, 69, 90
4, 99119, Note_on_c, 2, 69, 0
4, 99240, Note_on_c, 2, 69, 90
4, 99359, Note_on_c, 2, 69, 0
4, 99360, Note_on_c, 2, 71, 90
4, 99479, Note_on_c, 2, 71, 0
4, 99480, Note_on_c, 2, 73, 90
4, 99599, Note_on_c, 2, 73, 0
4, 99600, Note_on_c, 2, 74, 90
4, 99719, Note_on_c, 2, 74, 0
4, 99720, Note_on_c, 2, 71, 90
4, 99839, Note_on_c, 2, 71, 0
4, 99840, Note_on_c, 2, 76, 90
4, 99959, Note_on_c, 2, 76, 0
4, 99960, Note_on_c, 2, 78, 90
4, 100079, Note_on_c, 2, 78, 0
4, 100080, Note_on_c, 2, 76, 90
4, 100175, Note_on_c, 2, 76, 0
4, 100200, Note_on_c, 2, 73, 90
4, 100319, Note_on_c, 2, 73, 0
4, 100320, Note_on_c, 2, 73, 90
4, 100379, Note_on_c, 2, 73, 0
4, 100380, Note_on_c, 2, 74, 90
4, 100439, Note_on_c, 2, 74, 0
4, 100440, Note_on_c, 2, 76, 90
4, 100559, Note_on_c, 2, 76, 0
4, 100560, Note_on_c, 2, 74, 90
4, 100679, Note_on_c, 2, 74, 0
4, 100680, Note_on_c, 2, 73, 90
4, 100739, Note_on_c, 2, 73, 0
4, 100740, Note_on_c, 2, 71, 90
4, 100799, Note_on_c, 2, 71, 0
4, 100800, Note_on_c, 2, 69, 90
4, 100859, Note_on_c, 2, 69, 0
4, 100860, Note_on_c, 2, 71, 90
4, 100919, Note_on_c, 2, 71, 0
4, 100920, Note_on_c, 2, 73, 90
4, 101039, Note_on_c, 2, 73, 0
4, 101040, Note_on_c, 2, 71, 90
4, 101135, Note_on_c, 2, 71, 0
4, 101160, Note_on_c, 2, 73, 90
4, 101279, Note_on_c, 2, 73, 0
4, 101280, Note_on_c, 2, 69, 90
4, 101399, Note_on_c, 2, 69, 0
4, 101400, Note_on_c, 2, 71, 90
4, 101459, Note_on_c, 2, 71, 0
4, 101460, Note_on_c, 2, 73, 90
4, 101519, Note_on_c, 2, 73, 0
4, 101520, Note_on_c, 2, 74, 90
4, 101615, Note_on_c, 2, 74, 0
4, 101640, Note_on_c, 2, 73, 90
4, 101759, Note_on_c, 2, 73, 0
4, 101760, Note_on_c, 2, 71, 90
4, 101879, Note_on_c, 2, 71, 0
4, 101880, Note_on_c, 2, 73, 90
4, 101999, Note_on_c, 2, 73, 0
4, 102000, Note_on_c, 2, 74, 90
4, 102095, Note_on_c, 2, 74, 0
4, 102120, Note_on_c, 2, 73, 90
4, 102239, Note_on_c, 2, 73, 0
4, 102240, Note_on_c, 2, 71, 90
4, 102359, Note_on_c, 2, 71, 0
4, 102360, Note_on_c, 2, 69, 90
4, 102479, Note_on_c, 2, 69, 0
4, 102480, Note_on_c, 2, 76, 90
4, 102659, Note_on_c, 2, 76, 0
4, 102660, Note_on_c, 2, 74, 90
4, 102719, Note_on_c, 2, 74, 0
4, 102720, Note_on_c, 2, 73, 90
4, 102839, Note_on_c, 2, 73, 0
4, 102840, Note_on_c, 2, 74, 90
4, 102899, Note_on_c, 2, 74, 0
4, 102900, Note_on_c, 2, 73, 90
4, 102959, Note_on_c, 2, 73, 0
4, 102960, Note_on_c, 2, 71, 90
4, 103199, Note_on_c, 2, 71, 0
4, 103200, Note_on_c, 2, 69, 90
4, 103559, Note_on_c, 2, 69, 0
4, 140235, Note_on_c, 2, 68, 100
4, 140247, Note_on_c, 2, 68, 0
4, 140250, Note_on_c, 2, 68, 100
4, 140262, Note_on_c, 2, 68, 0
4, 140265, Note_on_c, 2, 68, 100
4, 140277, Note_on_c, 2, 68, 0
4, 140280, Note_on_c, 2, 68, 100
4, 140328, Note_on_c, 2, 68, 0
4, 140715, Note_on_c, 2, 78, 100
4, 140727, Note_on_c, 2, 78, 0
4, 140730, Note_on_c, 2, 78, 100
4, 140742, Note_on_c, 2, 78, 0
4, 140745, Note_on_c, 2, 78, 100
4, 140757, Note_on_c, 2, 78, 0
4, 140760, Note_on_c, 2, 78, 100
4, 140808, Note_on_c, 2, 78, 0
4, 141675, Note_on_c, 2, 78, 100
4, 141687, Note_on_c, 2, 78, 0
4, 141690, Note_on_c, 2, 78, 100
4, 141702, Note_on_c, 2, 78, 0
4, 141705, Note_on_c, 2, 78, 100
4, 141717, Note_on_c, 2, 78, 0
4, 141720, Note_on_c, 2, 78, 100
4, 141768, Note_on_c, 2, 78, 0
4, 141915, Note_on_c, 2, 83, 100
4, 141927, Note_on_c, 2, 83, 0
4, 141930, Note_on_c, 2, 83, 100
4, 141942, Note_on_c, 2, 83, 0
4, 141945, Note_on_c, 2, 83, 100
4, 141957, Note_on_c, 2, 83, 0
4, 141960, Note_on_c, 2, 83, 100
4, 142008, Note_on_c, 2, 83, 0
4, 142590, Note_on_c, 2, 83, 100
4, 142614, Note_on_c, 2, 83, 0
4, 142620, Note_on_c, 2, 83, 100
4, 142635, Note_on_c, 2, 83, 0
4, 142635, Note_on_c, 2, 81, 100
4, 142650, Note_on_c, 2, 81, 0
4, 142650, Note_on_c, 2, 83, 100
4, 142680, Note_on_c, 2, 83, 0
4, 142680, Note_on_c, 2, 80, 100
4, 142740, Note_on_c, 2, 80, 0
4, 143070, Note_on_c, 2, 81, 100
4, 143094, Note_on_c, 2, 81, 0
4, 143100, Note_on_c, 2, 81, 100
4, 143115, Note_on_c, 2, 81, 0
4, 143115, Note_on_c, 2, 80, 100
4, 143130, Note_on_c, 2, 80, 0
4, 143130, Note_on_c, 2, 81, 100
4, 143160, Note_on_c, 2, 81, 0
4, 143160, Note_on_c, 2, 78, 100
4, 143220, Note_on_c, 2, 78, 0
4, 143550, Note_on_c, 2, 80, 100
4, 143574, Note_on_c, 2, 80, 0
4, 143580, Note_on_c, 2, 80, 100
4, 143595, Note_on_c, 2, 80, 0
4, 143595, Note_on_c, 2, 78, 100
4, 143610, Note_on_c, 2, 78, 0
4, 143610, Note_on_c, 2, 80, 100
4, 143634, Note_on_c, 2, 80, 0
4, 143640, Note_on_c, 2, 81, 100
4, 143664, Note_on_c, 2, 81, 0
4, 143670, Note_on_c, 2, 75, 100
4, 143694, Note_on_c, 2, 75, 0
4, 143700, Note_on_c, 2, 75, 100
4, 143715, Note_on_c, 2, 75, 0
4, 143715, Note_on_c, 2, 73, 100
4, 143730, Note_on_c, 2, 73, 0
4, 143730, Note_on_c, 2, 75, 100
4, 143760, Note_on_c, 2, 75, 0
4, 143760, Note_on_c, 2, 76, 100
4, 143880, Note_on_c, 2, 76, 0
4, 153240, Program_c, 2, 40
4, 153240, Note_on_c, 2, 74, 90
4, 153299, Note_on_c, 2, 74, 0
4, 153300, Note_on_c, 2, 73, 90
4, 153419, Note_on_c, 2, 73, 0
4, 153420, Note_on_c, 2, 71, 90
4, 153479, Note_on_c, 2, 71, 0
4, 153480, Note_on_c, 2, 78, 90
4, 153539, Note_on_c, 2, 78, 0
4, 153540, Note_on_c, 2, 79, 90
4, 153659, Note_on_c, 2, 79, 0
4, 153660, Note_on_c, 2, 71, 90
4, 153719, Note_on_c, 2, 71, 0
4, 153720, Note_on_c, 2, 70, 90
4, 153749, Note_on_c, 2, 70, 0
4, 153750, Note_on_c, 2, 71, 90
4, 153779, Note_on_c, 2, 71, 0
4, 153780, Note_on_c, 2, 73, 90
4, 153809, Note_on_c, 2, 73, 0
4, 153810, Note_on_c, 2, 74, 90
4, 153839, Note_on_c, 2, 74, 0
4, 153840, Note_on_c, 2, 76, 90
4, 153899, Note_on_c, 2, 76, 0
4, 153900, Note_on_c, 2, 74, 90
4, 153929, Note_on_c, 2, 74, 0
4, 153960, Note_on_c, 2, 76, 90
4, 153969, Note_on_c, 2, 76, 0
4, 153970, Note_on_c, 2, 74, 90
4, 153979, Note_on_c, 2, 74, 0
4, 153980, Note_on_c, 2, 76, 90
4, 153989, Note_on_c, 2, 76, 0
4, 153990, Note_on_c, 2, 74, 90
4, 153999, Note_on_c, 2, 74, 0
4, 154000, Note_on_c, 2, 76, 90
4, 154009, Note_on_c, 2, 76, 0
4, 154010, Note_on_c, 2, 74, 90
4, 154019, Note_on_c, 2, 74, 0
4, 154020, Note_on_c, 2, 73, 90
4, 154109, Note_on_c, 2, 73, 0
4, 154110, Note_on_c, 2, 76, 90
4, 154139, Note_on_c, 2, 76, 0
4, 154140, Note_on_c, 2, 74, 90
4, 154169, Note_on_c, 2, 74, 0
4, 154170, Note_on_c, 2, 73, 90
4, 154199, Note_on_c, 2, 73, 0
4, 154200, Note_on_c, 2, 74, 90
4, 154229, Note_on_c, 2, 74, 0
4, 154230, Note_on_c, 2, 66, 90
4, 154259, Note_on_c, 2, 66, 0
4, 154260, Note_on_c, 2, 64, 90
4, 154289, Note_on_c, 2, 64, 0
4, 154290, Note_on_c, 2, 66, 90
4, 154319, Note_on_c, 2, 66, 0
4, 154320, Note_on_c, 2, 59, 90
4, 154349, Note_on_c, 2, 59, 0
4, 154350, Note_on_c, 2, 66, 90
4, 154379, Note_on_c, 2, 66, 0
4, 154380, Note_on_c, 2, 74, 90
4, 154409, Note_on_c, 2, 74, 0
4, 154410, Note_on_c, 2, 66, 90
4, 154439, Note_on_c, 2, 66, 0
4, 154440, Note_on_c, 2, 74, 90
4, 154469, Note_on_c, 2, 74, 0
4, 154470, Note_on_c, 2, 66, 90
4, 154499, Note_on_c, 2, 66, 0
4, 154500, Note_on_c, 2, 64, 90
4, 154529, Note_on_c, 2, 64, 0
4, 154530, Note_on_c, 2, 66, 90
4, 154559, Note_on_c, 2, 66, 0
4, 154560, Note_on_c, 2, 59, 90
4, 154589, Note_on_c, 2, 59, 0
4, 154590, Note_on_c, 2, 66, 90
4, 154619, Note_on_c, 2, 66, 0
4, 154620, Note_on_c, 2, 74, 90
4, 154649, Note_on_c, 2, 74, 0
4, 154650, Note_on_c, 2, 66, 90
4, 154679, Note_on_c, 2, 66, 0
4, 154680, Note_on_c, 2, 64, 90
4, 154709, Note_on_c, 2, 64, 0
4, 154710, Note_on_c, 2, 68, 90
4, 154739, Note_on_c, 2, 68, 0
4, 154740, Note_on_c, 2, 71, 90
4, 154769, Note_on_c, 2, 71, 0
4, 154770, Note_on_c, 2, 74, 90
4, 154799, Note_on_c, 2, 74, 0
4, 154800, Note_on_c, 2, 80, 90
4, 154829, Note_on_c, 2, 80, 0
4, 154830, Note_on_c, 2, 83, 90
4, 154859, Note_on_c, 2, 83, 0
4, 154860, Note_on_c, 2, 80, 90
4, 154889, Note_on_c, 2, 80, 0
4, 154890, Note_on_c, 2, 74, 90
4, 154919, Note_on_c, 2, 74, 0
4, 154920, Note_on_c, 2, 71, 90
4, 154949, Note_on_c, 2, 71, 0
4, 154950, Note_on_c, 2, 68, 90
4, 154979, Note_on_c, 2, 68, 0
4, 154980, Note_on_c, 2, 64, 90
4, 155009, Note_on_c, 2, 64, 0
4, 155010, Note_on_c, 2, 68, 90
4, 155039, Note_on_c, 2, 68, 0
4, 155040, Note_on_c, 2, 71, 90
4, 155069, Note_on_c, 2, 71, 0
4, 155070, Note_on_c, 2, 74, 90
4, 155099, Note_on_c, 2, 74, 0
4, 155100, Note_on_c, 2, 73, 90
4, 155129, Note_on_c, 2, 73, 0
4, 155130, Note_on_c, 2, 71, 90
4, 155159, Note_on_c, 2, 71, 0
4, 155160, Note_on_c, 2, 73, 90
4, 155189, Note_on_c, 2, 73, 0
4, 155190, Note_on_c, 2, 64, 90
4, 155219, Note_on_c, 2, 64, 0
4, 155220, Note_on_c, 2, 62, 90
4, 155249, Note_on_c, 2, 62, 0
4, 155250, Note_on_c, 2, 64, 90
4, 155279, Note_on_c, 2, 64, 0
4, 155280, Note_on_c, 2, 57, 90
4, 155309, Note_on_c, 2, 57, 0
4, 155310, Note_on_c, 2, 64, 90
4, 155339, Note_on_c, 2, 64, 0
4, 155340, Note_on_c, 2, 73, 90
4, 155369, Note_on_c, 2, 73, 0
4, 155370, Note_on_c, 2, 64, 90
4, 155399, Note_on_c, 2, 64, 0
4, 155400, Note_on_c, 2, 73, 90
4, 155429, Note_on_c, 2, 73, 0
4, 155430, Note_on_c, 2, 64, 90
4, 155459, Note_on_c, 2, 64, 0
4, 155460, Note_on_c, 2, 62, 90
4, 155489, Note_on_c, 2, 62, 0
4, 155490, Note_on_c, 2, 64, 90
4, 155519, Note_on_c, 2, 64, 0
4, 155520, Note_on_c, 2, 57, 90
4, 155549, Note_on_c, 2, 57, 0
4, 155550, Note_on_c, 2, 64, 90
4, 155579, Note_on_c, 2, 64, 0
4, 155580, Note_on_c, 2, 73, 90
4, 155609, Note_on_c, 2, 73, 0
4, 155610, Note_on_c, 2, 64, 90
4, 155639, Note_on_c, 2, 64, 0
4, 155640, Note_on_c, 2, 62, 90
4, 155669, Note_on_c, 2, 62, 0
4, 155670, Note_on_c, 2, 66, 90
4, 155699, Note_on_c, 2, 66, 0
4, 155700, Note_on_c, 2, 69, 90
4, 155729, Note_on_c, 2, 69, 0
4, 155730, Note_on_c, 2, 72, 90
4, 155759, Note_on_c, 2, 72, 0
4, 155760, Note_on_c, 2, 78, 90
4, 155789, Note_on_c, 2, 78, 0
4, 155790, Note_on_c, 2, 81, 90
4, 155819, Note_on_c, 2, 81, 0
4, 155820, Note_on_c, 2, 78, 90
4, 155849, Note_on_c, 2, 78, 0
4, 155850, Note_on_c, 2, 72, 90
4, 155879, Note_on_c, 2, 72, 0
4, 155880, Note_on_c, 2, 69, 90
4, 155909, Note_on_c, 2, 69, 0
4, 155910, Note_on_c, 2, 66, 90
4, 155939, Note_on_c, 2, 66, 0
4, 155940, Note_on_c, 2, 62, 90
4, 155969, Note_on_c, 2, 62, 0
4, 155970, Note_on_c, 2, 66, 90
4, 155999, Note_on_c, 2, 66, 0
4, 156000, Note_on_c, 2, 69, 90
4, 156029, Note_on_c, 2, 69, 0
4, 156030, Note_on_c, 2, 72, 90
4, 156059, Note_on_c, 2, 72, 0
4, 156060, Note_on_c, 2, 71, 90
4, 156089, Note_on_c, 2, 71, 0
4, 156090, Note_on_c, 2, 69, 90
4, 156119, Note_on_c, 2, 69, 0
4, 156120, Note_on_c, 2, 71, 90
4, 156134, Note_on_c, 2, 71, 0
4, 156135, Note_on_c, 2, 69, 90
4, 156149, Note_on_c, 2, 69, 0
4, 156150, Note_on_c, 2, 67, 90
4, 156179, Note_on_c, 2, 67, 0
4, 156180, Note_on_c, 2, 75, 90
4, 156299, Note_on_c, 2, 75, 0
4, 156300, Note_on_c, 2, 76, 90
4, 156329, Note_on_c, 2, 76, 0
4, 156330, Note_on_c, 2, 78, 90
4, 156359, Note_on_c, 2, 78, 0
4, 156360, Note_on_c, 2, 79, 90
4, 156389, Note_on_c, 2, 79, 0
4, 156390, Note_on_c, 2, 78, 90
4, 156419, Note_on_c, 2, 78, 0
4, 156420, Note_on_c, 2, 76, 90
4, 156509, Note_on_c, 2, 76, 0
4, 156510, Note_on_c, 2, 74, 90
4, 156539, Note_on_c, 2, 74, 0
4, 156540, Note_on_c, 2, 73, 90
4, 156569, Note_on_c, 2, 73, 0
4, 156570, Note_on_c, 2, 71, 90
4, 156599, Note_on_c, 2, 71, 0
4, 156600, Note_on_c, 2, 69, 90
4, 156614, Note_on_c, 2, 69, 0
4, 156615, Note_on_c, 2, 67, 90
4, 156629, Note_on_c, 2, 67, 0
4, 156630, Note_on_c, 2, 66, 90
4, 156659, Note_on_c, 2, 66, 0
4, 156660, Note_on_c, 2, 73, 90
4, 156779, Note_on_c, 2, 73, 0
4, 156780, Note_on_c, 2, 74, 90
4, 156809, Note_on_c, 2, 74, 0
4, 156810, Note_on_c, 2, 76, 90
4, 156839, Note_on_c, 2, 76, 0
4, 156840, Note_on_c, 2, 78, 90
4, 156869, Note_on_c, 2, 78, 0
4, 156870, Note_on_c, 2, 76, 90
4, 156899, Note_on_c, 2, 76, 0
4, 156900, Note_on_c, 2, 74, 90
4, 156989, Note_on_c, 2, 74, 0
4, 156990, Note_on_c, 2, 62, 90
4, 157019, Note_on_c, 2, 62, 0
4, 157020, Note_on_c, 2, 61, 90
4, 157049, Note_on_c, 2, 61, 0
4, 157050, Note_on_c, 2, 59, 90
4, 157079, Note_on_c, 2, 59, 0
4, 157080, Note_on_c, 2, 58, 90
4, 157095, Note_on_c, 2, 58, 0
4, 157110, Note_on_c, 2, 67, 90
4, 157139, Note_on_c, 2, 67, 0
4, 157140, Note_on_c, 2, 66, 90
4, 157169, Note_on_c, 2, 66, 0
4, 157170, Note_on_c, 2, 64, 90
4, 157199, Note_on_c, 2, 64, 0
4, 157200, Note_on_c, 2, 62, 90
4, 157215, Note_on_c, 2, 62, 0
4, 157230, Note_on_c, 2, 73, 90
4, 157259, Note_on_c, 2, 73, 0
4, 157260, Note_on_c, 2, 71, 90
4, 157289, Note_on_c, 2, 71, 0
4, 157290, Note_on_c, 2, 70, 90
4, 157319, Note_on_c, 2, 70, 0
4, 157320, Note_on_c, 2, 70, 90
4, 157335, Note_on_c, 2, 70, 0
4, 157350, Note_on_c, 2, 79, 90
4, 157379, Note_on_c, 2, 79, 0
4, 157380, Note_on_c, 2, 78, 90
4, 157409, Note_on_c, 2, 78, 0
4, 157410, Note_on_c, 2, 76, 90
4, 157439, Note_on_c, 2, 76, 0
4, 157440, Note_on_c, 2, 76, 90
4, 157455, Note_on_c, 2, 76, 0
4, 157470, Note_on_c, 2, 82, 90
4, 157499, Note_on_c, 2, 82, 0
4, 157500, Note_on_c, 2, 83, 90
4, 157529, Note_on_c, 2, 83, 0
4, 157530, Note_on_c, 2, 85, 90
4, 157559, Note_on_c, 2, 85, 0
4, 157560, Note_on_c, 2, 62, 90
4, 157619, Note_on_c, 2, 62, 0
4, 157620, Note_on_c, 2, 78, 90
4, 157679, Note_on_c, 2, 78, 0
4, 157680, Note_on_c, 2, 76, 90
4, 157694, Note_on_c, 2, 76, 0
4, 157695, Note_on_c, 2, 74, 90
4, 157709, Note_on_c, 2, 74, 0
4, 157710, Note_on_c, 2, 76, 90
4, 157724, Note_on_c, 2, 76, 0
4, 157725, Note_on_c, 2, 74, 90
4, 157739, Note_on_c, 2, 74, 0
4, 157740, Note_on_c, 2, 73, 90
4, 157769, Note_on_c, 2, 73, 0
4, 157770, Note_on_c, 2, 71, 90
4, 157799, Note_on_c, 2, 71, 0
4, 157800, Note_on_c, 2, 71, 90
4, 157814, Note_on_c, 2, 71, 0
4, 157815, Note_on_c, 2, 69, 90
4, 157829, Note_on_c, 2, 69, 0
4, 157830, Note_on_c, 2, 67, 90
4, 157859, Note_on_c, 2, 67, 0
4, 157860, Note_on_c, 2, 66, 90
4, 157949, Note_on_c, 2, 66, 0
4, 157950, Note_on_c, 2, 79, 90
4, 157979, Note_on_c, 2, 79, 0
4, 157980, Note_on_c, 2, 78, 90
4, 158009, Note_on_c, 2, 78, 0
4, 158010, Note_on_c, 2, 76, 90
4, 158039, Note_on_c, 2, 76, 0
4, 158040, Note_on_c, 2, 74, 90
4, 158054, Note_on_c, 2, 74, 0
4, 158055, Note_on_c, 2, 73, 90
4, 158069, Note_on_c, 2, 73, 0
4, 158070, Note_on_c, 2, 71, 90
4, 158099, Note_on_c, 2, 71, 0
4, 158100, Note_on_c, 2, 70, 90
4, 158189, Note_on_c, 2, 70, 0
4, 158190, Note_on_c, 2, 76, 90
4, 158219, Note_on_c, 2, 76, 0
4, 158220, Note_on_c, 2, 74, 90
4, 158249, Note_on_c, 2, 74, 0
4, 158250, Note_on_c, 2, 73, 90
4, 158279, Note_on_c, 2, 73, 0
4, 158280, Note_on_c, 2, 71, 90
4, 158309, Note_on_c, 2, 71, 0
4, 158310, Note_on_c, 2, 66, 90
4, 158339, Note_on_c, 2, 66, 0
4, 158340, Note_on_c, 2, 59, 90
4, 158399, Note_on_c, 2, 59, 0
4, 158700, Note_on_c, 2, 83, 90
4, 158775, Note_on_c, 2, 83, 0
4, 158775, Note_on_c, 2, 82, 90
4, 158789, Note_on_c, 2, 82, 0
4, 158790, Note_on_c, 2, 80, 90
4, 158819, Note_on_c, 2, 80, 0
4, 158820, Note_on_c, 2, 82, 90
4, 158849, Note_on_c, 2, 82, 0
4, 158850, Note_on_c, 2, 85, 90
4, 158879, Note_on_c, 2, 85, 0
4, 158880, Note_on_c, 2, 78, 90
4, 158909, Note_on_c, 2, 78, 0
4, 158910, Note_on_c, 2, 76, 90
4, 158939, Note_on_c, 2, 76, 0
4, 158940, Note_on_c, 2, 74, 90
4, 158969, Note_on_c, 2, 74, 0
4, 158970, Note_on_c, 2, 73, 90
4, 158999, Note_on_c, 2, 73, 0
4, 159000, Note_on_c, 2, 74, 90
4, 159014, Note_on_c, 2, 74, 0
4, 159015, Note_on_c, 2, 73, 90
4, 159029, Note_on_c, 2, 73, 0
4, 159030, Note_on_c, 2, 71, 90
4, 159059, Note_on_c, 2, 71, 0
4, 159060, Note_on_c, 2, 70, 90
4, 159119, Note_on_c, 2, 70, 0
4, 159120, Note_on_c, 2, 70, 90
4, 159149, Note_on_c, 2, 70, 0
4, 159150, Note_on_c, 2, 64, 90
4, 159179, Note_on_c, 2, 64, 0
4, 159180, Note_on_c, 2, 62, 90
4, 159209, Note_on_c, 2, 62, 0
4, 159210, Note_on_c, 2, 61, 90
4, 159239, Note_on_c, 2, 61, 0
4, 159240, Note_on_c, 2, 59, 90
4, 159269, Note_on_c, 2, 59, 0
4, 159270, Note_on_c, 2, 66, 90
4, 159299, Note_on_c, 2, 66, 0
4, 159300, Note_on_c, 2, 71, 90
4, 159359, Note_on_c, 2, 71, 0
4, 159660, Note_on_c, 2, 78, 90
4, 159735, Note_on_c, 2, 78, 0
4, 159735, Note_on_c, 2, 76, 90
4, 159749, Note_on_c, 2, 76, 0
4, 159750, Note_on_c, 2, 74, 90
4, 159779, Note_on_c, 2, 74, 0
4, 159780, Note_on_c, 2, 76, 90
4, 159869, Note_on_c, 2, 76, 0
4, 159870, Note_on_c, 2, 79, 90
4, 159899, Note_on_c, 2, 79, 0
4, 159900, Note_on_c, 2, 78, 90
4, 159929, Note_on_c, 2, 78, 0
4, 159930, Note_on_c, 2, 76, 90
4, 159959, Note_on_c, 2, 76, 0
4, 159960, Note_on_c, 2, 74, 90
4, 159989, Note_on_c, 2, 74, 0
4, 159990, Note_on_c, 2, 66, 90
4, 160019, Note_on_c, 2, 66, 0
4, 160020, Note_on_c, 2, 64, 90
4, 160049, Note_on_c, 2, 64, 0
4, 160050, Note_on_c, 2, 66, 90
4, 160079, Note_on_c, 2, 66, 0
4, 160080, Note_on_c, 2, 59, 90
4, 160109, Note_on_c, 2, 59, 0
4, 160110, Note_on_c, 2, 66, 90
4, 160139, Note_on_c, 2, 66, 0
4, 160140, Note_on_c, 2, 74, 90
4, 160169, Note_on_c, 2, 74, 0
4, 160170, Note_on_c, 2, 66, 90
4, 160199, Note_on_c, 2, 66, 0
4, 160200, Note_on_c, 2, 74, 90
4, 160229, Note_on_c, 2, 74, 0
4, 160230, Note_on_c, 2, 66, 90
4, 160259, Note_on_c, 2, 66, 0
4, 160260, Note_on_c, 2, 64, 90
4, 160289, Note_on_c, 2, 64, 0
4, 160290, Note_on_c, 2, 66, 90
4, 160319, Note_on_c, 2, 66, 0
4, 160320, Note_on_c, 2, 59, 90
4, 160349, Note_on_c, 2, 59, 0
4, 160350, Note_on_c, 2, 66, 90
4, 160379, Note_on_c, 2, 66, 0
4, 160380, Note_on_c, 2, 74, 90
4, 160409, Note_on_c, 2, 74, 0
4, 160410, Note_on_c, 2, 66, 90
4, 160439, Note_on_c, 2, 66, 0
4, 160440, Note_on_c, 2, 64, 90
4, 160469, Note_on_c, 2, 64, 0
4, 160470, Note_on_c, 2, 68, 90
4, 160499, Note_on_c, 2, 68, 0
4, 160500, Note_on_c, 2, 71, 90
4, 160529, Note_on_c, 2, 71, 0
4, 160530, Note_on_c, 2, 74, 90
4, 160559, Note_on_c, 2, 74, 0
4, 160560, Note_on_c, 2, 80, 90
4, 160589, Note_on_c, 2, 80, 0
4, 160590, Note_on_c, 2, 83, 90
4, 160619, Note_on_c, 2, 83, 0
4, 160620, Note_on_c, 2, 80, 90
4, 160649, Note_on_c, 2, 80, 0
4, 160650, Note_on_c, 2, 74, 90
4, 160679, Note_on_c, 2, 74, 0
4, 160680, Note_on_c, 2, 71, 90
4, 160709, Note_on_c, 2, 71, 0
4, 160710, Note_on_c, 2, 68, 90
4, 160739, Note_on_c, 2, 68, 0
4, 160740, Note_on_c, 2, 64, 90
4, 160769, Note_on_c, 2, 64, 0
4, 160770, Note_on_c, 2, 68, 90
4, 160799, Note_on_c, 2, 68, 0
4, 160800, Note_on_c, 2, 71, 90
4, 160829, Note_on_c, 2, 71, 0
4, 160830, Note_on_c, 2, 74, 90
4, 160859, Note_on_c, 2, 74, 0
4, 160860, Note_on_c, 2, 73, 90
4, 160889, Note_on_c, 2, 73, 0
4, 160890, Note_on_c, 2, 71, 90
4, 160919, Note_on_c, 2, 71, 0
4, 160920, Note_on_c, 2, 73, 90
4, 160949, Note_on_c, 2, 73, 0
4, 160950, Note_on_c, 2, 64, 90
4, 160979, Note_on_c, 2, 64, 0
4, 160980, Note_on_c, 2, 62, 90
4, 161009, Note_on_c, 2, 62, 0
4, 161010, Note_on_c, 2, 64, 90
4, 161039, Note_on_c, 2, 64, 0
4, 161040, Note_on_c, 2, 57, 90
4, 161069, Note_on_c, 2, 57, 0
4, 161070, Note_on_c, 2, 64, 90
4, 161099, Note_on_c, 2, 64, 0
4, 161100, Note_on_c, 2, 73, 90
4, 161129, Note_on_c, 2, 73, 0
4, 161130, Note_on_c, 2, 64, 90
4, 161159, Note_on_c, 2, 64, 0
4, 161160, Note_on_c, 2, 73, 90
4, 161189, Note_on_c, 2, 73, 0
4, 161190, Note_on_c, 2, 64, 90
4, 161219, Note_on_c, 2, 64, 0
4, 161220, Note_on_c, 2, 62, 90
4, 161249, Note_on_c, 2, 62, 0
4, 161250, Note_on_c, 2, 64, 90
4, 161279, Note_on_c, 2, 64, 0
4, 161280, Note_on_c, 2, 57, 90
4, 161309, Note_on_c, 2, 57, 0
4, 161310, Note_on_c, 2, 64, 90
4, 161339, Note_on_c, 2, 64, 0
4, 161340, Note_on_c, 2, 72, 90
4, 161369, Note_on_c, 2, 72, 0
4, 161370, Note_on_c, 2, 64, 90
4, 161399, Note_on_c, 2, 64, 0
4, 161400, Note_on_c, 2, 62, 90
4, 161429, Note_on_c, 2, 62, 0
4, 161430, Note_on_c, 2, 66, 90
4, 161459, Note_on_c, 2, 66, 0
4, 161460, Note_on_c, 2, 69, 90
4, 161489, Note_on_c, 2, 69, 0
4, 161490, Note_on_c, 2, 72, 90
4, 161519, Note_on_c, 2, 72, 0
4, 161520, Note_on_c, 2, 78, 90
4, 161549, Note_on_c, 2, 78, 0
4, 161550, Note_on_c, 2, 81, 90
4, 161579, Note_on_c, 2, 81, 0
4, 161580, Note_on_c, 2, 78, 90
4, 161609, Note_on_c, 2, 78, 0
4, 161610, Note_on_c, 2, 72, 90
4, 161639, Note_on_c, 2, 72, 0
4, 161640, Note_on_c, 2, 69, 90
4, 161669, Note_on_c, 2, 69, 0
4, 161670, Note_on_c, 2, 66, 90
4, 161699, Note_on_c, 2, 66, 0
4, 161700, Note_on_c, 2, 62, 90
4, 161729, Note_on_c, 2, 62, 0
4, 161730, Note_on_c, 2, 66, 90
4, 161759, Note_on_c, 2, 66, 0
4, 161760, Note_on_c, 2, 67, 90
4, 161789, Note_on_c, 2, 67, 0
4, 161790, Note_on_c, 2, 72, 90
4, 161819, Note_on_c, 2, 72, 0
4, 161820, Note_on_c, 2, 71, 90
4, 161849, Note_on_c, 2, 71, 0
4, 161850, Note_on_c, 2, 69, 90
4, 161879, Note_on_c, 2, 69, 0
4, 161880, Note_on_c, 2, 71, 90
4, 161894, Note_on_c, 2, 71, 0
4, 161895, Note_on_c, 2, 69, 90
4, 161909, Note_on_c, 2, 69, 0
4, 161910, Note_on_c, 2, 67, 90
4, 161939, Note_on_c, 2, 67, 0
4, 161940, Note_on_c, 2, 73, 90
4, 162029, Note_on_c, 2, 73, 0
4, 162030, Note_on_c, 2, 74, 90
4, 162059, Note_on_c, 2, 74, 0
4, 162060, Note_on_c, 2, 76, 90
4, 162089, Note_on_c, 2, 76, 0
4, 162090, Note_on_c, 2, 78, 90
4, 162119, Note_on_c, 2, 78, 0
4, 162120, Note_on_c, 2, 79, 90
4, 162134, Note_on_c, 2, 79, 0
4, 162135, Note_on_c, 2, 78, 90
4, 162149, Note_on_c, 2, 78, 0
4, 162150, Note_on_c, 2, 76, 90
4, 162179, Note_on_c, 2, 76, 0
4, 162180, Note_on_c, 2, 74, 90
4, 162209, Note_on_c, 2, 74, 0
4, 162210, Note_on_c, 2, 73, 90
4, 162239, Note_on_c, 2, 73, 0
4, 162240, Note_on_c, 2, 71, 90
4, 162269, Note_on_c, 2, 71, 0
4, 162270, Note_on_c, 2, 69, 90
4, 162299, Note_on_c, 2, 69, 0
4, 162510, Note_on_c, 2, 62, 90
4, 162539, Note_on_c, 2, 62, 0
4, 162540, Note_on_c, 2, 61, 90
4, 162569, Note_on_c, 2, 61, 0
4, 162570, Note_on_c, 2, 59, 90
4, 162599, Note_on_c, 2, 59, 0
4, 162600, Note_on_c, 2, 57, 90
4, 162615, Note_on_c, 2, 57, 0
4, 162630, Note_on_c, 2, 66, 90
4, 162659, Note_on_c, 2, 66, 0
4, 162660, Note_on_c, 2, 64, 90
4, 162689, Note_on_c, 2, 64, 0
4, 162690, Note_on_c, 2, 62, 90
4, 162719, Note_on_c, 2, 62, 0
4, 162720, Note_on_c, 2, 62, 90
4, 162735, Note_on_c, 2, 62, 0
4, 162750, Note_on_c, 2, 73, 90
4, 162779, Note_on_c, 2, 73, 0
4, 162780, Note_on_c, 2, 71, 90
4, 162809, Note_on_c, 2, 71, 0
4, 162810, Note_on_c, 2, 69, 90
4, 162839, Note_on_c, 2, 69, 0
4, 162840, Note_on_c, 2, 69, 90
4, 162899, Note_on_c, 2, 69, 0
4, 162990, Note_on_c, 2, 62, 90
4, 163019, Note_on_c, 2, 62, 0
4, 163020, Note_on_c, 2, 61, 90
4, 163049, Note_on_c, 2, 61, 0
4, 163050, Note_on_c, 2, 59, 90
4, 163079, Note_on_c, 2, 59, 0
4, 163080, Note_on_c, 2, 57, 90
4, 163095, Note_on_c, 2, 57, 0
4, 163110, Note_on_c, 2, 66, 90
4, 163139, Note_on_c, 2, 66, 0
4, 163140, Note_on_c, 2, 64, 90
4, 163169, Note_on_c, 2, 64, 0
4, 163170, Note_on_c, 2, 62, 90
4, 163199, Note_on_c, 2, 62, 0
4, 163200, Note_on_c, 2, 62, 90
4, 163215, Note_on_c, 2, 62, 0
4, 163230, Note_on_c, 2, 73, 90
4, 163259, Note_on_c, 2, 73, 0
4, 163260, Note_on_c, 2, 71, 90
4, 163289, Note_on_c, 2, 71, 0
4, 163290, Note_on_c, 2, 69, 90
4, 163319, Note_on_c, 2, 69, 0
4, 163320, Note_on_c, 2, 69, 90
4, 163379, Note_on_c, 2, 69, 0
4, 163470, Note_on_c, 2, 69, 90
4, 163499, Note_on_c, 2, 69, 0
4, 163500, Note_on_c, 2, 67, 90
4, 163529, Note_on_c, 2, 67, 0
4, 163530, Note_on_c, 2, 66, 90
4, 163559, Note_on_c, 2, 66, 0
4, 163560, Note_on_c, 2, 66, 90
4, 163575, Note_on_c, 2, 66, 0
4, 163590, Note_on_c, 2, 76, 90
4, 163619, Note_on_c, 2, 76, 0
4, 163620, Note_on_c, 2, 74, 90
4, 163649, Note_on_c, 2, 74, 0
4, 163650, Note_on_c, 2, 73, 90
4, 163679, Note_on_c, 2, 73, 0
4, 163680, Note_on_c, 2, 73, 90
4, 163695, Note_on_c, 2, 73, 0
4, 163710, Note_on_c, 2, 85, 90
4, 163739, Note_on_c, 2, 85, 0
4, 163740, Note_on_c, 2, 83, 90
4, 163769, Note_on_c, 2, 83, 0
4, 163770, Note_on_c, 2, 82, 90
4, 163799, Note_on_c, 2, 82, 0
4, 163800, Note_on_c, 2, 83, 90
4, 163815, Note_on_c, 2, 83, 0
4, 163830, Note_on_c, 2, 74, 90
4, 163859, Note_on_c, 2, 74, 0
4, 163860, Note_on_c, 2, 73, 90
4, 163889, Note_on_c, 2, 73, 0
4, 163890, Note_on_c, 2, 71, 90
4, 163919, Note_on_c, 2, 71, 0
4, 163920, Note_on_c, 2, 71, 90
4, 163935, Note_on_c, 2, 71, 0
4, 163950, Note_on_c, 2, 69, 90
4, 163979, Note_on_c, 2, 69, 0
4, 163980, Note_on_c, 2, 67, 90
4, 164009, Note_on_c, 2, 67, 0
4, 164010, Note_on_c, 2, 66, 90
4, 164039, Note_on_c, 2, 66, 0
4, 164040, Note_on_c, 2, 66, 90
4, 164055, Note_on_c, 2, 66, 0
4, 164070, Note_on_c, 2, 67, 90
4, 164099, Note_on_c, 2, 67, 0
4, 164100, Note_on_c, 2, 66, 90
4, 164129, Note_on_c, 2, 66, 0
4, 164130, Note_on_c, 2, 64, 90
4, 164159, Note_on_c, 2, 64, 0
4, 164160, Note_on_c, 2, 64, 90
4, 164175, Note_on_c, 2, 64, 0
4, 164190, Note_on_c, 2, 66, 90
4, 164219, Note_on_c, 2, 66, 0
4, 164220, Note_on_c, 2, 64, 90
4, 164249, Note_on_c, 2, 64, 0
4, 164250, Note_on_c, 2, 62, 90
4, 164279, Note_on_c, 2, 62, 0
4, 164280, Note_on_c, 2, 62, 90
4, 164295, Note_on_c, 2, 62, 0
4, 164310, Note_on_c, 2, 74, 90
4, 164339, Note_on_c, 2, 74, 0
4, 164340, Note_on_c, 2, 73, 90
4, 164369, Note_on_c, 2, 73, 0
4, 164370, Note_on_c, 2, 71, 90
4, 164399, Note_on_c, 2, 71, 0
4, 164400, Note_on_c, 2, 71, 90
4, 164415, Note_on_c, 2, 71, 0
4, 164430, Note_on_c, 2, 81, 90
4, 164459, Note_on_c, 2, 81, 0
4, 164460, Note_on_c, 2, 79, 90
4, 164489, Note_on_c, 2, 79, 0
4, 164490, Note_on_c, 2, 78, 90
4, 164519, Note_on_c, 2, 78, 0
4, 164520, Note_on_c, 2, 78, 90
4, 164535, Note_on_c, 2, 78, 0
4, 164550, Note_on_c, 2, 67, 90
4, 164579, Note_on_c, 2, 67, 0
4, 164580, Note_on_c, 2, 66, 90
4, 164609, Note_on_c, 2, 66, 0
4, 164610, Note_on_c, 2, 64, 90
4, 164639, Note_on_c, 2, 64, 0
4, 164640, Note_on_c, 2, 64, 90
4, 164655, Note_on_c, 2, 64, 0
4, 164670, Note_on_c, 2, 74, 90
4, 164699, Note_on_c, 2, 74, 0
4, 164700, Note_on_c, 2, 73, 90
4, 164729, Note_on_c, 2, 73, 0
4, 164730, Note_on_c, 2, 71, 90
4, 164759, Note_on_c, 2, 71, 0
4, 164760, Note_on_c, 2, 71, 90
4, 165030, Note_on_c, 2, 71, 0
4, 165030, Note_on_c, 2, 73, 90
4, 165060, Note_on_c, 2, 73, 0
4, 165060, Note_on_c, 2, 77, 90
4, 165090, Note_on_c, 2, 77, 0
4, 165090, Note_on_c, 2, 80, 90
4, 165120, Note_on_c, 2, 80, 0
4, 165120, Note_on_c, 2, 78, 90
4, 165180, Note_on_c, 2, 78, 0
4, 165480, Note_on_c, 2, 81, 90
4, 165540, Note_on_c, 2, 81, 0
4, 165540, Note_on_c, 2, 80, 90
4, 165659, Note_on_c, 2, 80, 0
4, 165660, Note_on_c, 2, 78, 90
4, 165720, Note_on_c, 2, 78, 0
4, 165720, Note_on_c, 2, 85, 90
4, 165780, Note_on_c, 2, 85, 0
4, 165780, Note_on_c, 2, 86, 90
4, 165840, Note_on_c, 2, 86, 0
4, 167640, Note_on_c, 2, 69, 90
4, 167699, Note_on_c, 2, 69, 0
4, 167700, Note_on_c, 2, 68, 90
4, 167819, Note_on_c, 2, 68, 0
4, 167820, Note_on_c, 2, 66, 90
4, 167879, Note_on_c, 2, 66, 0
4, 167880, Note_on_c, 2, 73, 90
4, 167939, Note_on_c, 2, 73, 0
4, 167940, Note_on_c, 2, 74, 90
4, 168059, Note_on_c, 2, 74, 0
4, 168060, Note_on_c, 2, 66, 90
4, 168119, Note_on_c, 2, 66, 0
4, 168120, Note_on_c, 2, 65, 90
4, 168149, Note_on_c, 2, 65, 0
4, 168150, Note_on_c, 2, 66, 90
4, 168179, Note_on_c, 2, 66, 0
4, 168180, Note_on_c, 2, 68, 90
4, 168209, Note_on_c, 2, 68, 0
4, 168210, Note_on_c, 2, 69, 90
4, 168239, Note_on_c, 2, 69, 0
4, 168240, Note_on_c, 2, 71, 90
4, 168299, Note_on_c, 2, 71, 0
4, 168300, Note_on_c, 2, 69, 90
4, 168329, Note_on_c, 2, 69, 0
4, 168360, Note_on_c, 2, 71, 90
4, 168375, Note_on_c, 2, 71, 0
4, 168375, Note_on_c, 2, 69, 90
4, 168390, Note_on_c, 2, 69, 0
4, 168390, Note_on_c, 2, 71, 90
4, 168405, Note_on_c, 2, 71, 0
4, 168405, Note_on_c, 2, 69, 90
4, 168420, Note_on_c, 2, 69, 0
4, 168420, Note_on_c, 2, 68, 90
4, 168509, Note_on_c, 2, 68, 0
4, 168510, Note_on_c, 2, 71, 90
4, 168539, Note_on_c, 2, 71, 0
4, 168540, Note_on_c, 2, 69, 90
4, 168569, Note_on_c, 2, 69, 0
4, 168570, Note_on_c, 2, 68, 90
4, 168599, Note_on_c, 2, 68, 0
4, 168600, Note_on_c, 2, 69, 90
4, 168629, Note_on_c, 2, 69, 0
4, 168630, Note_on_c, 2, 66, 90
4, 168659, Note_on_c, 2, 66, 0
4, 168660, Note_on_c, 2, 65, 90
4, 168689, Note_on_c, 2, 65, 0
4, 168690, Note_on_c, 2, 66, 90
4, 168719, Note_on_c, 2, 66, 0
4, 168720, Note_on_c, 2, 61, 90
4, 168749, Note_on_c, 2, 61, 0
4, 168750, Note_on_c, 2, 66, 90
4, 168779, Note_on_c, 2, 66, 0
4, 168780, Note_on_c, 2, 69, 90
4, 168809, Note_on_c, 2, 69, 0
4, 168810, Note_on_c, 2, 68, 90
4, 168839, Note_on_c, 2, 68, 0
4, 168840, Note_on_c, 2, 69, 90
4, 168869, Note_on_c, 2, 69, 0
4, 168870, Note_on_c, 2, 66, 90
4, 168899, Note_on_c, 2, 66, 0
4, 168900, Note_on_c, 2, 65, 90
4, 168929, Note_on_c, 2, 65, 0
4, 168930, Note_on_c, 2, 66, 90
4, 168959, Note_on_c, 2, 66, 0
4, 168960, Note_on_c, 2, 61, 90
4, 168989, Note_on_c, 2, 61, 0
4, 168990, Note_on_c, 2, 66, 90
4, 169019, Note_on_c, 2, 66, 0
4, 169020, Note_on_c, 2, 69, 90
4, 169049, Note_on_c, 2, 69, 0
4, 169050, Note_on_c, 2, 66, 90
4, 169079, Note_on_c, 2, 66, 0
4, 169080, Note_on_c, 2, 59, 90
4, 169109, Note_on_c, 2, 59, 0
4, 169110, Note_on_c, 2, 63, 90
4, 169139, Note_on_c, 2, 63, 0
4, 169140, Note_on_c, 2, 66, 90
4, 169169, Note_on_c, 2, 66, 0
4, 169170, Note_on_c, 2, 69, 90
4, 169199, Note_on_c, 2, 69, 0
4, 169200, Note_on_c, 2, 75, 90
4, 169229, Note_on_c, 2, 75, 0
4, 169230, Note_on_c, 2, 78, 90
4, 169259, Note_on_c, 2, 78, 0
4, 169260, Note_on_c, 2, 75, 90
4, 169289, Note_on_c, 2, 75, 0
4, 169290, Note_on_c, 2, 69, 90
4, 169319, Note_on_c, 2, 69, 0
4, 169320, Note_on_c, 2, 66, 90
4, 169349, Note_on_c, 2, 66, 0
4, 169350, Note_on_c, 2, 63, 90
4, 169379, Note_on_c, 2, 63, 0
4, 169380, Note_on_c, 2, 59, 90
4, 169409, Note_on_c, 2, 59, 0
4, 169410, Note_on_c, 2, 63, 90
4, 169439, Note_on_c, 2, 63, 0
4, 169440, Note_on_c, 2, 66, 90
4, 169469, Note_on_c, 2, 66, 0
4, 169470, Note_on_c, 2, 69, 90
4, 169499, Note_on_c, 2, 69, 0
4, 169500, Note_on_c, 2, 68, 90
4, 169529, Note_on_c, 2, 68, 0
4, 169530, Note_on_c, 2, 66, 90
4, 169559, Note_on_c, 2, 66, 0
4, 169560, Note_on_c, 2, 68, 90
4, 169589, Note_on_c, 2, 68, 0
4, 169590, Note_on_c, 2, 64, 90
4, 169619, Note_on_c, 2, 64, 0
4, 169620, Note_on_c, 2, 63, 90
4, 169649, Note_on_c, 2, 63, 0
4, 169650, Note_on_c, 2, 64, 90
4, 169679, Note_on_c, 2, 64, 0
4, 169680, Note_on_c, 2, 59, 90
4, 169709, Note_on_c, 2, 59, 0
4, 169710, Note_on_c, 2, 64, 90
4, 169739, Note_on_c, 2, 64, 0
4, 169740, Note_on_c, 2, 68, 90
4, 169769, Note_on_c, 2, 68, 0
4, 169770, Note_on_c, 2, 66, 90
4, 169799, Note_on_c, 2, 66, 0
4, 169800, Note_on_c, 2, 68, 90
4, 169829, Note_on_c, 2, 68, 0
4, 169830, Note_on_c, 2, 64, 90
4, 169859, Note_on_c, 2, 64, 0
4, 169860, Note_on_c, 2, 63, 90
4, 169889, Note_on_c, 2, 63, 0
4, 169890, Note_on_c, 2, 64, 90
4, 169919, Note_on_c, 2, 64, 0
4, 169920, Note_on_c, 2, 59, 90
4, 169949, Note_on_c, 2, 59, 0
4, 169950, Note_on_c, 2, 64, 90
4, 169979, Note_on_c, 2, 64, 0
4, 169980, Note_on_c, 2, 68, 90
4, 170009, Note_on_c, 2, 68, 0
4, 170010, Note_on_c, 2, 64, 90
4, 170039, Note_on_c, 2, 64, 0
4, 170040, Note_on_c, 2, 57, 90
4, 170069, Note_on_c, 2, 57, 0
4, 170070, Note_on_c, 2, 61, 90
4, 170099, Note_on_c, 2, 61, 0
4, 170100, Note_on_c, 2, 64, 90
4, 170129, Note_on_c, 2, 64, 0
4, 170130, Note_on_c, 2, 67, 90
4, 170159, Note_on_c, 2, 67, 0
4, 170160, Note_on_c, 2, 73, 90
4, 170189, Note_on_c, 2, 73, 0
4, 170190, Note_on_c, 2, 76, 90
4, 170219, Note_on_c, 2, 76, 0
4, 170220, Note_on_c, 2, 73, 90
4, 170249, Note_on_c, 2, 73, 0
4, 170250, Note_on_c, 2, 67, 90
4, 170279, Note_on_c, 2, 67, 0
4, 170280, Note_on_c, 2, 64, 90
4, 170309, Note_on_c, 2, 64, 0
4, 170310, Note_on_c, 2, 61, 90
4, 170339, Note_on_c, 2, 61, 0
4, 170340, Note_on_c, 2, 57, 90
4, 170369, Note_on_c, 2, 57, 0
4, 170370, Note_on_c, 2, 61, 90
4, 170399, Note_on_c, 2, 61, 0
4, 170400, Note_on_c, 2, 64, 90
4, 170429, Note_on_c, 2, 64, 0
4, 170430, Note_on_c, 2, 67, 90
4, 170459, Note_on_c, 2, 67, 0
4, 170460, Note_on_c, 2, 66, 90
4, 170489, Note_on_c, 2, 66, 0
4, 170490, Note_on_c, 2, 64, 90
4, 170519, Note_on_c, 2, 64, 0
4, 170520, Note_on_c, 2, 66, 90
4, 170534, Note_on_c, 2, 66, 0
4, 170535, Note_on_c, 2, 64, 90
4, 170549, Note_on_c, 2, 64, 0
4, 170550, Note_on_c, 2, 62, 90
4, 170579, Note_on_c, 2, 62, 0
4, 170580, Note_on_c, 2, 70, 90
4, 170699, Note_on_c, 2, 70, 0
4, 170700, Note_on_c, 2, 71, 90
4, 170729, Note_on_c, 2, 71, 0
4, 170730, Note_on_c, 2, 73, 90
4, 170759, Note_on_c, 2, 73, 0
4, 170760, Note_on_c, 2, 74, 90
4, 170789, Note_on_c, 2, 74, 0
4, 170790, Note_on_c, 2, 73, 90
4, 170819, Note_on_c, 2, 73, 0
4, 170820, Note_on_c, 2, 71, 90
4, 170909, Note_on_c, 2, 71, 0
4, 170910, Note_on_c, 2, 69, 90
4, 170939, Note_on_c, 2, 69, 0
4, 170940, Note_on_c, 2, 68, 90
4, 170969, Note_on_c, 2, 68, 0
4, 170970, Note_on_c, 2, 66, 90
4, 170999, Note_on_c, 2, 66, 0
4, 171000, Note_on_c, 2, 64, 90
4, 171014, Note_on_c, 2, 64, 0
4, 171015, Note_on_c, 2, 62, 90
4, 171029, Note_on_c, 2, 62, 0
4, 171030, Note_on_c, 2, 61, 90
4, 171059, Note_on_c, 2, 61, 0
4, 171060, Note_on_c, 2, 68, 90
4, 171179, Note_on_c, 2, 68, 0
4, 171180, Note_on_c, 2, 69, 90
4, 171209, Note_on_c, 2, 69, 0
4, 171210, Note_on_c, 2, 71, 90
4, 171239, Note_on_c, 2, 71, 0
4, 171240, Note_on_c, 2, 73, 90
4, 171269, Note_on_c, 2, 73, 0
4, 171270, Note_on_c, 2, 71, 90
4, 171299, Note_on_c, 2, 71, 0
4, 171300, Note_on_c, 2, 69, 90
4, 171389, Note_on_c, 2, 69, 0
4, 171390, Note_on_c, 2, 69, 90
4, 171419, Note_on_c, 2, 69, 0
4, 171420, Note_on_c, 2, 68, 90
4, 171449, Note_on_c, 2, 68, 0
4, 171450, Note_on_c, 2, 66, 90
4, 171479, Note_on_c, 2, 66, 0
4, 171480, Note_on_c, 2, 65, 90
4, 171495, Note_on_c, 2, 65, 0
4, 171510, Note_on_c, 2, 74, 90
4, 171539, Note_on_c, 2, 74, 0
4, 171540, Note_on_c, 2, 73, 90
4, 171569, Note_on_c, 2, 73, 0
4, 171570, Note_on_c, 2, 71, 90
4, 171599, Note_on_c, 2, 71, 0
4, 171600, Note_on_c, 2, 71, 90
4, 171615, Note_on_c, 2, 71, 0
4, 171630, Note_on_c, 2, 80, 90
4, 171659, Note_on_c, 2, 80, 0
4, 171660, Note_on_c, 2, 78, 90
4, 171689, Note_on_c, 2, 78, 0
4, 171690, Note_on_c, 2, 77, 90
4, 171719, Note_on_c, 2, 77, 0
4, 171720, Note_on_c, 2, 77, 90
4, 171735, Note_on_c, 2, 77, 0
4, 171750, Note_on_c, 2, 86, 90
4, 171779, Note_on_c, 2, 86, 0
4, 171780, Note_on_c, 2, 85, 90
4, 171809, Note_on_c, 2, 85, 0
4, 171810, Note_on_c, 2, 83, 90
4, 171839, Note_on_c, 2, 83, 0
4, 171840, Note_on_c, 2, 83, 90
4, 171855, Note_on_c, 2, 83, 0
4, 171870, Note_on_c, 2, 77, 90
4, 171899, Note_on_c, 2, 77, 0
4, 171900, Note_on_c, 2, 78, 90
4, 171929, Note_on_c, 2, 78, 0
4, 171930, Note_on_c, 2, 80, 90
4, 171959, Note_on_c, 2, 80, 0
4, 171960, Note_on_c, 2, 69, 90
4, 172019, Note_on_c, 2, 69, 0
4, 172020, Note_on_c, 2, 85, 90
4, 172079, Note_on_c, 2, 85, 0
4, 172080, Note_on_c, 2, 81, 90
4, 172139, Note_on_c, 2, 81, 0
4, 172140, Note_on_c, 2, 80, 90
4, 172149, Note_on_c, 2, 80, 0
4, 172150, Note_on_c, 2, 81, 90
4, 172159, Note_on_c, 2, 81, 0
4, 172160, Note_on_c, 2, 80, 90
4, 172169, Note_on_c, 2, 80, 0
4, 172170, Note_on_c, 2, 78, 90
4, 172199, Note_on_c, 2, 78, 0
4, 172200, Note_on_c, 2, 78, 90
4, 172319, Note_on_c, 2, 78, 0
4, 172740, Note_on_c, 2, 83, 90
4, 172799, Note_on_c, 2, 83, 0
4, 172800, Note_on_c, 2, 78, 90
4, 172859, Note_on_c, 2, 78, 0
4, 172860, Note_on_c, 2, 74, 90
4, 172919, Note_on_c, 2, 74, 0
4, 173220, Note_on_c, 2, 76, 90
4, 173249, Note_on_c, 2, 76, 0
4, 173250, Note_on_c, 2, 75, 90
4, 173279, Note_on_c, 2, 75, 0
4, 173280, Note_on_c, 2, 76, 90
4, 173339, Note_on_c, 2, 76, 0
4, 173340, Note_on_c, 2, 79, 90
4, 173399, Note_on_c, 2, 79, 0
4, 173700, Note_on_c, 2, 81, 90
4, 173759, Note_on_c, 2, 81, 0
4, 173760, Note_on_c, 2, 76, 90
4, 173819, Note_on_c, 2, 76, 0
4, 173820, Note_on_c, 2, 73, 90
4, 173879, Note_on_c, 2, 73, 0
4, 174060, Note_on_c, 2, 61, 90
4, 174119, Note_on_c, 2, 61, 0
4, 174120, Note_on_c, 2, 57, 90
4, 174179, Note_on_c, 2, 57, 0
4, 174180, Note_on_c, 2, 74, 90
4, 174209, Note_on_c, 2, 74, 0
4, 174210, Note_on_c, 2, 76, 90
4, 174239, Note_on_c, 2, 76, 0
4, 174240, Note_on_c, 2, 78, 90
4, 174299, Note_on_c, 2, 78, 0
4, 174300, Note_on_c, 2, 83, 90
4, 174359, Note_on_c, 2, 83, 0
4, 174540, Note_on_c, 2, 71, 90
4, 174599, Note_on_c, 2, 71, 0
4, 174600, Note_on_c, 2, 59, 90
4, 174659, Note_on_c, 2, 59, 0
4, 174660, Note_on_c, 2, 64, 90
4, 174689, Note_on_c, 2, 64, 0
4, 174690, Note_on_c, 2, 66, 90
4, 174719, Note_on_c, 2, 66, 0
4, 174720, Note_on_c, 2, 67, 90
4, 174779, Note_on_c, 2, 67, 0
4, 174780, Note_on_c, 2, 76, 90
4, 174839, Note_on_c, 2, 76, 0
4, 175020, Note_on_c, 2, 77, 90
4, 175079, Note_on_c, 2, 77, 0
4, 175080, Note_on_c, 2, 78, 90
4, 175139, Note_on_c, 2, 78, 0
4, 175140, Note_on_c, 2, 73, 90
4, 175259, Note_on_c, 2, 73, 0
4, 175260, Note_on_c, 2, 74, 90
4, 175319, Note_on_c, 2, 74, 0
4, 175320, Note_on_c, 2, 66, 90
4, 175379, Note_on_c, 2, 66, 0
4, 175380, Note_on_c, 2, 65, 90
4, 175439, Note_on_c, 2, 65, 0
4, 175500, Note_on_c, 2, 61, 90
4, 175559, Note_on_c, 2, 61, 0
4, 175560, Note_on_c, 2, 73, 90
4, 175710, Note_on_c, 2, 73, 0
4, 175710, Note_on_c, 2, 71, 90
4, 175739, Note_on_c, 2, 71, 0
4, 175740, Note_on_c, 2, 69, 90
4, 175769, Note_on_c, 2, 69, 0
4, 175770, Note_on_c, 2, 68, 90
4, 175799, Note_on_c, 2, 68, 0
4, 175800, Note_on_c, 2, 66, 90
4, 175859, Note_on_c, 2, 66, 0
4, 175980, Note_on_c, 2, 71, 90
4, 176039, Note_on_c, 2, 71, 0
4, 176040, Note_on_c, 2, 83, 90
4, 176190, Note_on_c, 2, 83, 0
4, 176190, Note_on_c, 2, 74, 90
4, 176219, Note_on_c, 2, 74, 0
4, 176220, Note_on_c, 2, 73, 90
4, 176249, Note_on_c, 2, 73, 0
4, 176250, Note_on_c, 2, 71, 90
4, 176279, Note_on_c, 2, 71, 0
4, 176280, Note_on_c, 2, 69, 90
4, 176339, Note_on_c, 2, 69, 0
4, 176520, Note_on_c, 2, 73, 90
4, 176579, Note_on_c, 2, 73, 0
4, 176580, Note_on_c, 2, 71, 90
4, 176699, Note_on_c, 2, 71, 0
4, 176700, Note_on_c, 2, 69, 90
4, 176759, Note_on_c, 2, 69, 0
4, 176760, Note_on_c, 2, 76, 90
4, 176819, Note_on_c, 2, 76, 0
4, 176820, Note_on_c, 2, 78, 90
4, 176939, Note_on_c, 2, 78, 0
4, 176940, Note_on_c, 2, 69, 90
4, 177000, Note_on_c, 2, 69, 0
4, 177000, Note_on_c, 2, 68, 90
4, 177029, Note_on_c, 2, 68, 0
4, 177030, Note_on_c, 2, 69, 90
4, 177059, Note_on_c, 2, 69, 0
4, 177060, Note_on_c, 2, 71, 90
4, 177089, Note_on_c, 2, 71, 0
4, 177090, Note_on_c, 2, 73, 90
4, 177119, Note_on_c, 2, 73, 0
4, 177120, Note_on_c, 2, 74, 90
4, 177179, Note_on_c, 2, 74, 0
4, 177180, Note_on_c, 2, 73, 90
4, 177209, Note_on_c, 2, 73, 0
4, 177240, Note_on_c, 2, 74, 90
4, 177254, Note_on_c, 2, 74, 0
4, 177255, Note_on_c, 2, 73, 90
4, 177269, Note_on_c, 2, 73, 0
4, 177270, Note_on_c, 2, 74, 90
4, 177284, Note_on_c, 2, 74, 0
4, 177285, Note_on_c, 2, 73, 90
4, 177299, Note_on_c, 2, 73, 0
4, 177300, Note_on_c, 2, 71, 90
4, 177359, Note_on_c, 2, 71, 0
4, 177360, Note_on_c, 2, 82, 90
4, 177419, Note_on_c, 2, 82, 0
4, 177420, Note_on_c, 2, 83, 90
4, 177479, Note_on_c, 2, 83, 0
4, 177540, Note_on_c, 2, 76, 90
4, 177659, Note_on_c, 2, 76, 0
4, 177660, Note_on_c, 2, 70, 90
4, 177719, Note_on_c, 2, 70, 0
4, 177720, Note_on_c, 2, 71, 90
4, 177749, Note_on_c, 2, 71, 0
4, 177750, Note_on_c, 2, 83, 90
4, 177779, Note_on_c, 2, 83, 0
4, 177780, Note_on_c, 2, 81, 90
4, 177809, Note_on_c, 2, 81, 0
4, 177810, Note_on_c, 2, 79, 90
4, 177839, Note_on_c, 2, 79, 0
4, 177840, Note_on_c, 2, 78, 90
4, 177899, Note_on_c, 2, 78, 0
4, 178260, Note_on_c, 2, 76, 90
4, 178319, Note_on_c, 2, 76, 0
4, 178320, Note_on_c, 2, 71, 90
4, 178379, Note_on_c, 2, 71, 0
4, 178380, Note_on_c, 2, 67, 90
4, 178439, Note_on_c, 2, 67, 0
4, 178740, Note_on_c, 2, 81, 90
4, 178769, Note_on_c, 2, 81, 0
4, 178770, Note_on_c, 2, 80, 90
4, 178799, Note_on_c, 2, 80, 0
4, 178800, Note_on_c, 2, 81, 90
4, 178859, Note_on_c, 2, 81, 0
4, 178860, Note_on_c, 2, 69, 90
4, 178919, Note_on_c, 2, 69, 0
4, 179220, Note_on_c, 2, 74, 90
4, 179279, Note_on_c, 2, 74, 0
4, 179280, Note_on_c, 2, 69, 90
4, 179339, Note_on_c, 2, 69, 0
4, 179340, Note_on_c, 2, 66, 90
4, 179399, Note_on_c, 2, 66, 0
4, 179580, Note_on_c, 2, 66, 90
4, 179639, Note_on_c, 2, 66, 0
4, 179640, Note_on_c, 2, 62, 90
4, 179699, Note_on_c, 2, 62, 0
4, 179700, Note_on_c, 2, 67, 90
4, 179729, Note_on_c, 2, 67, 0
4, 179730, Note_on_c, 2, 69, 90
4, 179759, Note_on_c, 2, 69, 0
4, 179760, Note_on_c, 2, 71, 90
4, 179819, Note_on_c, 2, 71, 0
4, 179820, Note_on_c, 2, 76, 90
4, 179879, Note_on_c, 2, 76, 0
4, 180060, Note_on_c, 2, 76, 90
4, 180119, Note_on_c, 2, 76, 0
4, 180120, Note_on_c, 2, 64, 90
4, 180179, Note_on_c, 2, 64, 0
4, 180180, Note_on_c, 2, 69, 90
4, 180209, Note_on_c, 2, 69, 0
4, 180210, Note_on_c, 2, 71, 90
4, 180239, Note_on_c, 2, 71, 0
4, 180240, Note_on_c, 2, 72, 90
4, 180299, Note_on_c, 2, 72, 0
4, 180300, Note_on_c, 2, 81, 90
4, 180359, Note_on_c, 2, 81, 0
4, 180540, Note_on_c, 2, 70, 90
4, 180599, Note_on_c, 2, 70, 0
4, 180600, Note_on_c, 2, 71, 90
4, 180659, Note_on_c, 2, 71, 0
4, 180660, Note_on_c, 2, 78, 90
4, 180779, Note_on_c, 2, 78, 0
4, 180780, Note_on_c, 2, 79, 90
4, 180839, Note_on_c, 2, 79, 0
4, 180840, Note_on_c, 2, 71, 90
4, 180899, Note_on_c, 2, 71, 0
4, 180900, Note_on_c, 2, 70, 90
4, 180959, Note_on_c, 2, 70, 0
4, 181020, Note_on_c, 2, 66, 90
4, 181079, Note_on_c, 2, 66, 0
4, 181080, Note_on_c, 2, 78, 90
4, 181230, Note_on_c, 2, 78, 0
4, 181230, Note_on_c, 2, 76, 90
4, 181259, Note_on_c, 2, 76, 0
4, 181260, Note_on_c, 2, 74, 90
4, 181289, Note_on_c, 2, 74, 0
4, 181290, Note_on_c, 2, 73, 90
4, 181319, Note_on_c, 2, 73, 0
4, 181320, Note_on_c, 2, 71, 90
4, 181379, Note_on_c, 2, 71, 0
4, 181500, Note_on_c, 2, 64, 90
4, 181559, Note_on_c, 2, 64, 0
4, 181560, Note_on_c, 2, 76, 90
4, 181710, Note_on_c, 2, 76, 0
4, 181710, Note_on_c, 2, 79, 90
4, 181739, Note_on_c, 2, 79, 0
4, 181740, Note_on_c, 2, 78, 90
4, 181769, Note_on_c, 2, 78, 0
4, 181770, Note_on_c, 2, 76, 90
4, 181799, Note_on_c, 2, 76, 0
4, 181800, Note_on_c, 2, 74, 90
4, 181859, Note_on_c, 2, 74, 0
4, 182040, Note_on_c, 2, 78, 90
4, 182099, Note_on_c, 2, 78, 0
4, 182100, Note_on_c, 2, 76, 90
4, 182219, Note_on_c, 2, 76, 0
4, 182220, Note_on_c, 2, 74, 90
4, 182279, Note_on_c, 2, 74, 0
4, 182280, Note_on_c, 2, 81, 90
4, 182339, Note_on_c, 2, 81, 0
4, 182340, Note_on_c, 2, 83, 90
4, 182459, Note_on_c, 2, 83, 0
4, 182460, Note_on_c, 2, 74, 90
4, 182519, Note_on_c, 2, 74, 0
4, 182520, Note_on_c, 2, 73, 90
4, 182549, Note_on_c, 2, 73, 0
4, 182550, Note_on_c, 2, 74, 90
4, 182579, Note_on_c, 2, 74, 0
4, 182580, Note_on_c, 2, 76, 90
4, 182609, Note_on_c, 2, 76, 0
4, 182610, Note_on_c, 2, 78, 90
4, 182639, Note_on_c, 2, 78, 0
4, 182640, Note_on_c, 2, 79, 90
4, 182699, Note_on_c, 2, 79, 0
4, 182700, Note_on_c, 2, 78, 90
4, 182729, Note_on_c, 2, 78, 0
4, 182760, Note_on_c, 2, 79, 90
4, 182774, Note_on_c, 2, 79, 0
4, 182775, Note_on_c, 2, 78, 90
4, 182789, Note_on_c, 2, 78, 0
4, 182790, Note_on_c, 2, 79, 90
4, 182804, Note_on_c, 2, 79, 0
4, 182805, Note_on_c, 2, 78, 90
4, 182819, Note_on_c, 2, 78, 0
4, 182820, Note_on_c, 2, 76, 90
4, 182879, Note_on_c, 2, 76, 0
4, 182880, Note_on_c, 2, 87, 90
4, 182939, Note_on_c, 2, 87, 0
4, 182940, Note_on_c, 2, 88, 90
4, 182999, Note_on_c, 2, 88, 0
4, 183060, Note_on_c, 2, 83, 90
4, 183119, Note_on_c, 2, 83, 0
4, 183120, Note_on_c, 2, 76, 90
4, 183179, Note_on_c, 2, 76, 0
4, 183180, Note_on_c, 2, 78, 90
4, 183239, Note_on_c, 2, 78, 0
4, 183240, Note_on_c, 2, 71, 90
4, 183299, Note_on_c, 2, 71, 0
4, 183300, Note_on_c, 2, 72, 90
4, 183419, Note_on_c, 2, 72, 0
4, 183420, Note_on_c, 2, 71, 90
4, 183480, Note_on_c, 2, 71, 0
4, 183480, Note_on_c, 2, 75, 90
4, 183539, Note_on_c, 2, 75, 0
4, 183540, Note_on_c, 2, 76, 90
4, 183629, Note_on_c, 2, 76, 0
4, 183630, Note_on_c, 2, 79, 90
4, 183659, Note_on_c, 2, 79, 0
4, 183660, Note_on_c, 2, 78, 90
4, 183689, Note_on_c, 2, 78, 0
4, 183690, Note_on_c, 2, 76, 90
4, 183719, Note_on_c, 2, 76, 0
4, 183720, Note_on_c, 2, 84, 90
4, 183749, Note_on_c, 2, 84, 0
4, 183750, Note_on_c, 2, 83, 90
4, 183779, Note_on_c, 2, 83, 0
4, 183780, Note_on_c, 2, 81, 90
4, 183809, Note_on_c, 2, 81, 0
4, 183810, Note_on_c, 2, 79, 90
4, 183839, Note_on_c, 2, 79, 0
4, 183840, Note_on_c, 2, 78, 90
4, 183899, Note_on_c, 2, 78, 0
4, 183900, Note_on_c, 2, 76, 90
4, 183959, Note_on_c, 2, 76, 0
4, 183960, Note_on_c, 2, 76, 90
4, 183989, Note_on_c, 2, 76, 0
4, 183990, Note_on_c, 2, 75, 90
4, 184019, Note_on_c, 2, 75, 0
4, 184020, Note_on_c, 2, 76, 90
4, 184049, Note_on_c, 2, 76, 0
4, 184050, Note_on_c, 2, 78, 90
4, 184079, Note_on_c, 2, 78, 0
4, 184080, Note_on_c, 2, 78, 90
4, 184109, Note_on_c, 2, 78, 0
4, 184110, Note_on_c, 2, 72, 90
4, 184139, Note_on_c, 2, 72, 0
4, 184140, Note_on_c, 2, 71, 90
4, 184169, Note_on_c, 2, 71, 0
4, 184170, Note_on_c, 2, 69, 90
4, 184199, Note_on_c, 2, 69, 0
4, 184200, Note_on_c, 2, 67, 90
4, 184214, Note_on_c, 2, 67, 0
4, 184215, Note_on_c, 2, 66, 90
4, 184229, Note_on_c, 2, 66, 0
4, 184230, Note_on_c, 2, 64, 90
4, 184259, Note_on_c, 2, 64, 0
4, 184260, Note_on_c, 2, 63, 90
4, 184349, Note_on_c, 2, 63, 0
4, 184350, Note_on_c, 2, 69, 90
4, 184379, Note_on_c, 2, 69, 0
4, 184380, Note_on_c, 2, 67, 90
4, 184409, Note_on_c, 2, 67, 0
4, 184410, Note_on_c, 2, 66, 90
4, 184439, Note_on_c, 2, 66, 0
4, 184440, Note_on_c, 2, 64, 90
4, 184469, Note_on_c, 2, 64, 0
4, 184470, Note_on_c, 2, 59, 90
4, 184499, Note_on_c, 2, 59, 0
4, 184500, Note_on_c, 2, 55, 90
4, 184559, Note_on_c, 2, 55, 0
4, 184860, Note_on_c, 2, 76, 90
4, 184935, Note_on_c, 2, 76, 0
4, 184935, Note_on_c, 2, 75, 90
4, 184949, Note_on_c, 2, 75, 0
4, 184950, Note_on_c, 2, 73, 90
4, 184979, Note_on_c, 2, 73, 0
4, 184980, Note_on_c, 2, 75, 90
4, 185009, Note_on_c, 2, 75, 0
4, 185010, Note_on_c, 2, 76, 90
4, 185039, Note_on_c, 2, 76, 0
4, 185040, Note_on_c, 2, 78, 90
4, 185069, Note_on_c, 2, 78, 0
4, 185070, Note_on_c, 2, 71, 90
4, 185099, Note_on_c, 2, 71, 0
4, 185100, Note_on_c, 2, 81, 90
4, 185129, Note_on_c, 2, 81, 0
4, 185130, Note_on_c, 2, 79, 90
4, 185159, Note_on_c, 2, 79, 0
4, 185160, Note_on_c, 2, 79, 90
4, 185174, Note_on_c, 2, 79, 0
4, 185175, Note_on_c, 2, 78, 90
4, 185189, Note_on_c, 2, 78, 0
4, 185190, Note_on_c, 2, 76, 90
4, 185219, Note_on_c, 2, 76, 0
4, 185220, Note_on_c, 2, 75, 90
4, 185309, Note_on_c, 2, 75, 0
4, 185310, Note_on_c, 2, 69, 90
4, 185339, Note_on_c, 2, 69, 0
4, 185340, Note_on_c, 2, 67, 90
4, 185369, Note_on_c, 2, 67, 0
4, 185370, Note_on_c, 2, 66, 90
4, 185399, Note_on_c, 2, 66, 0
4, 185400, Note_on_c, 2, 64, 90
4, 185429, Note_on_c, 2, 64, 0
4, 185430, Note_on_c, 2, 71, 90
4, 185459, Note_on_c, 2, 71, 0
4, 185460, Note_on_c, 2, 76, 90
4, 185519, Note_on_c, 2, 76, 0
4, 185820, Note_on_c, 2, 83, 90
4, 185895, Note_on_c, 2, 83, 0
4, 185895, Note_on_c, 2, 81, 90
4, 185909, Note_on_c, 2, 81, 0
4, 185910, Note_on_c, 2, 79, 90
4, 185939, Note_on_c, 2, 79, 0
4, 185940, Note_on_c, 2, 81, 90
4, 186029, Note_on_c, 2, 81, 0
4, 186030, Note_on_c, 2, 84, 90
4, 186059, Note_on_c, 2, 84, 0
4, 186060, Note_on_c, 2, 83, 90
4, 186089, Note_on_c, 2, 83, 0
4, 186090, Note_on_c, 2, 81, 90
4, 186119, Note_on_c, 2, 81, 0
4, 186120, Note_on_c, 2, 79, 90
4, 186149, Note_on_c, 2, 79, 0
4, 186150, Note_on_c, 2, 71, 90
4, 186179, Note_on_c, 2, 71, 0
4, 186180, Note_on_c, 2, 69, 90
4, 186209, Note_on_c, 2, 69, 0
4, 186210, Note_on_c, 2, 71, 90
4, 186239, Note_on_c, 2, 71, 0
4, 186240, Note_on_c, 2, 64, 90
4, 186269, Note_on_c, 2, 64, 0
4, 186270, Note_on_c, 2, 71, 90
4, 186299, Note_on_c, 2, 71, 0
4, 186300, Note_on_c, 2, 79, 90
4, 186329, Note_on_c, 2, 79, 0
4, 186330, Note_on_c, 2, 71, 90
4, 186359, Note_on_c, 2, 71, 0
4, 186360, Note_on_c, 2, 79, 90
4, 186389, Note_on_c, 2, 79, 0
4, 186390, Note_on_c, 2, 71, 90
4, 186419, Note_on_c, 2, 71, 0
4, 186420, Note_on_c, 2, 69, 90
4, 186449, Note_on_c, 2, 69, 0
4, 186450, Note_on_c, 2, 71, 90
4, 186479, Note_on_c, 2, 71, 0
4, 186480, Note_on_c, 2, 64, 90
4, 186509, Note_on_c, 2, 64, 0
4, 186510, Note_on_c, 2, 71, 90
4, 186539, Note_on_c, 2, 71, 0
4, 186540, Note_on_c, 2, 79, 90
4, 186569, Note_on_c, 2, 79, 0
4, 186570, Note_on_c, 2, 71, 90
4, 186599, Note_on_c, 2, 71, 0
4, 186600, Note_on_c, 2, 69, 90
4, 186629, Note_on_c, 2, 69, 0
4, 186630, Note_on_c, 2, 73, 90
4, 186659, Note_on_c, 2, 73, 0
4, 186660, Note_on_c, 2, 76, 90
4, 186689, Note_on_c, 2, 76, 0
4, 186690, Note_on_c, 2, 79, 90
4, 186719, Note_on_c, 2, 79, 0
4, 186720, Note_on_c, 2, 85, 90
4, 186749, Note_on_c, 2, 85, 0
4, 186750, Note_on_c, 2, 88, 90
4, 186779, Note_on_c, 2, 88, 0
4, 186780, Note_on_c, 2, 85, 90
4, 186809, Note_on_c, 2, 85, 0
4, 186810, Note_on_c, 2, 79, 90
4, 186839, Note_on_c, 2, 79, 0
4, 186840, Note_on_c, 2, 76, 90
4, 186869, Note_on_c, 2, 76, 0
4, 186870, Note_on_c, 2, 73, 90
4, 186899, Note_on_c, 2, 73, 0
4, 186900, Note_on_c, 2, 69, 90
4, 186929, Note_on_c, 2, 69, 0
4, 186930, Note_on_c, 2, 73, 90
4, 186959, Note_on_c, 2, 73, 0
4, 186960, Note_on_c, 2, 76, 90
4, 186989, Note_on_c, 2, 76, 0
4, 186990, Note_on_c, 2, 79, 90
4, 187019, Note_on_c, 2, 79, 0
4, 187020, Note_on_c, 2, 78, 90
4, 187049, Note_on_c, 2, 78, 0
4, 187050, Note_on_c, 2, 76, 90
4, 187079, Note_on_c, 2, 76, 0
4, 187080, Note_on_c, 2, 78, 90
4, 187109, Note_on_c, 2, 78, 0
4, 187110, Note_on_c, 2, 69, 90
4, 187139, Note_on_c, 2, 69, 0
4, 187140, Note_on_c, 2, 67, 90
4, 187169, Note_on_c, 2, 67, 0
4, 187170, Note_on_c, 2, 69, 90
4, 187199, Note_on_c, 2, 69, 0
4, 187200, Note_on_c, 2, 62, 90
4, 187229, Note_on_c, 2, 62, 0
4, 187230, Note_on_c, 2, 69, 90
4, 187259, Note_on_c, 2, 69, 0
4, 187260, Note_on_c, 2, 78, 90
4, 187289, Note_on_c, 2, 78, 0
4, 187290, Note_on_c, 2, 69, 90
4, 187319, Note_on_c, 2, 69, 0
4, 187320, Note_on_c, 2, 78, 90
4, 187349, Note_on_c, 2, 78, 0
4, 187350, Note_on_c, 2, 69, 90
4, 187379, Note_on_c, 2, 69, 0
4, 187380, Note_on_c, 2, 67, 90
4, 187409, Note_on_c, 2, 67, 0
4, 187410, Note_on_c, 2, 69, 90
4, 187439, Note_on_c, 2, 69, 0
4, 187440, Note_on_c, 2, 62, 90
4, 187469, Note_on_c, 2, 62, 0
4, 187470, Note_on_c, 2, 69, 90
4, 187499, Note_on_c, 2, 69, 0
4, 187500, Note_on_c, 2, 77, 90
4, 187529, Note_on_c, 2, 77, 0
4, 187530, Note_on_c, 2, 69, 90
4, 187559, Note_on_c, 2, 69, 0
4, 187560, Note_on_c, 2, 67, 90
4, 187589, Note_on_c, 2, 67, 0
4, 187590, Note_on_c, 2, 71, 90
4, 187619, Note_on_c, 2, 71, 0
4, 187620, Note_on_c, 2, 74, 90
4, 187649, Note_on_c, 2, 74, 0
4, 187650, Note_on_c, 2, 77, 90
4, 187679, Note_on_c, 2, 77, 0
4, 187680, Note_on_c, 2, 83, 90
4, 187709, Note_on_c, 2, 83, 0
4, 187710, Note_on_c, 2, 86, 90
4, 187739, Note_on_c, 2, 86, 0
4, 187740, Note_on_c, 2, 83, 90
4, 187769, Note_on_c, 2, 83, 0
4, 187770, Note_on_c, 2, 77, 90
4, 187799, Note_on_c, 2, 77, 0
4, 187800, Note_on_c, 2, 74, 90
4, 187829, Note_on_c, 2, 74, 0
4, 187830, Note_on_c, 2, 71, 90
4, 187859, Note_on_c, 2, 71, 0
4, 187860, Note_on_c, 2, 67, 90
4, 187889, Note_on_c, 2, 67, 0
4, 187890, Note_on_c, 2, 71, 90
4, 187919, Note_on_c, 2, 71, 0
4, 187920, Note_on_c, 2, 74, 90
4, 187949, Note_on_c, 2, 74, 0
4, 187950, Note_on_c, 2, 77, 90
4, 187979, Note_on_c, 2, 77, 0
4, 187980, Note_on_c, 2, 76, 90
4, 188009, Note_on_c, 2, 76, 0
4, 188010, Note_on_c, 2, 74, 90
4, 188039, Note_on_c, 2, 74, 0
4, 188040, Note_on_c, 2, 76, 90
4, 188054, Note_on_c, 2, 76, 0
4, 188055, Note_on_c, 2, 74, 90
4, 188069, Note_on_c, 2, 74, 0
4, 188070, Note_on_c, 2, 72, 90
4, 188099, Note_on_c, 2, 72, 0
4, 188100, Note_on_c, 2, 78, 90
4, 188189, Note_on_c, 2, 78, 0
4, 188190, Note_on_c, 2, 79, 90
4, 188219, Note_on_c, 2, 79, 0
4, 188220, Note_on_c, 2, 81, 90
4, 188249, Note_on_c, 2, 81, 0
4, 188250, Note_on_c, 2, 83, 90
4, 188279, Note_on_c, 2, 83, 0
4, 188280, Note_on_c, 2, 84, 90
4, 188294, Note_on_c, 2, 84, 0
4, 188295, Note_on_c, 2, 83, 90
4, 188309, Note_on_c, 2, 83, 0
4, 188310, Note_on_c, 2, 81, 90
4, 188339, Note_on_c, 2, 81, 0
4, 188340, Note_on_c, 2, 79, 90
4, 188369, Note_on_c, 2, 79, 0
4, 188370, Note_on_c, 2, 78, 90
4, 188399, Note_on_c, 2, 78, 0
4, 188400, Note_on_c, 2, 76, 90
4, 188429, Note_on_c, 2, 76, 0
4, 188430, Note_on_c, 2, 74, 90
4, 188459, Note_on_c, 2, 74, 0
4, 188670, Note_on_c, 2, 67, 90
4, 188699, Note_on_c, 2, 67, 0
4, 188700, Note_on_c, 2, 66, 90
4, 188729, Note_on_c, 2, 66, 0
4, 188730, Note_on_c, 2, 64, 90
4, 188759, Note_on_c, 2, 64, 0
4, 188760, Note_on_c, 2, 62, 90
4, 188775, Note_on_c, 2, 62, 0
4, 188790, Note_on_c, 2, 71, 90
4, 188819, Note_on_c, 2, 71, 0
4, 188820, Note_on_c, 2, 69, 90
4, 188849, Note_on_c, 2, 69, 0
4, 188850, Note_on_c, 2, 67, 90
4, 188879, Note_on_c, 2, 67, 0
4, 188880, Note_on_c, 2, 67, 90
4, 188895, Note_on_c, 2, 67, 0
4, 188910, Note_on_c, 2, 78, 90
4, 188939, Note_on_c, 2, 78, 0
4, 188940, Note_on_c, 2, 76, 90
4, 188969, Note_on_c, 2, 76, 0
4, 188970, Note_on_c, 2, 74, 90
4, 188999, Note_on_c, 2, 74, 0
4, 189000, Note_on_c, 2, 74, 90
4, 189059, Note_on_c, 2, 74, 0
4, 189150, Note_on_c, 2, 67, 90
4, 189179, Note_on_c, 2, 67, 0
4, 189180, Note_on_c, 2, 66, 90
4, 189209, Note_on_c, 2, 66, 0
4, 189210, Note_on_c, 2, 64, 90
4, 189239, Note_on_c, 2, 64, 0
4, 189240, Note_on_c, 2, 62, 90
4, 189255, Note_on_c, 2, 62, 0
4, 189270, Note_on_c, 2, 71, 90
4, 189299, Note_on_c, 2, 71, 0
4, 189300, Note_on_c, 2, 69, 90
4, 189329, Note_on_c, 2, 69, 0
4, 189330, Note_on_c, 2, 67, 90
4, 189359, Note_on_c, 2, 67, 0
4, 189360, Note_on_c, 2, 67, 90
4, 189375, Note_on_c, 2, 67, 0
4, 189390, Note_on_c, 2, 78, 90
4, 189419, Note_on_c, 2, 78, 0
4, 189420, Note_on_c, 2, 76, 90
4, 189449, Note_on_c, 2, 76, 0
4, 189450, Note_on_c, 2, 74, 90
4, 189479, Note_on_c, 2, 74, 0
4, 189480, Note_on_c, 2, 74, 90
4, 189539, Note_on_c, 2, 74, 0
4, 189630, Note_on_c, 2, 62, 90
4, 189659, Note_on_c, 2, 62, 0
4, 189660, Note_on_c, 2, 60, 90
4, 189689, Note_on_c, 2, 60, 0
4, 189690, Note_on_c, 2, 59, 90
4, 189719, Note_on_c, 2, 59, 0
4, 189720, Note_on_c, 2, 59, 90
4, 189735, Note_on_c, 2, 59, 0
4, 189750, Note_on_c, 2, 69, 90
4, 189779, Note_on_c, 2, 69, 0
4, 189780, Note_on_c, 2, 67, 90
4, 189809, Note_on_c, 2, 67, 0
4, 189810, Note_on_c, 2, 66, 90
4, 189839, Note_on_c, 2, 66, 0
4, 189840, Note_on_c, 2, 66, 90
4, 189855, Note_on_c, 2, 66, 0
4, 189870, Note_on_c, 2, 78, 90
4, 189899, Note_on_c, 2, 78, 0
4, 189900, Note_on_c, 2, 76, 90
4, 189929, Note_on_c, 2, 76, 0
4, 189930, Note_on_c, 2, 75, 90
4, 189959, Note_on_c, 2, 75, 0
4, 189960, Note_on_c, 2, 76, 90
4, 189975, Note_on_c, 2, 76, 0
4, 189990, Note_on_c, 2, 67, 90
4, 190019, Note_on_c, 2, 67, 0
4, 190020, Note_on_c, 2, 66, 90
4, 190049, Note_on_c, 2, 66, 0
4, 190050, Note_on_c, 2, 64, 90
4, 190079, Note_on_c, 2, 64, 0
4, 190080, Note_on_c, 2, 64, 90
4, 190095, Note_on_c, 2, 64, 0
4, 190110, Note_on_c, 2, 62, 90
4, 190139, Note_on_c, 2, 62, 0
4, 190140, Note_on_c, 2, 60, 90
4, 190169, Note_on_c, 2, 60, 0
4, 190170, Note_on_c, 2, 59, 90
4, 190199, Note_on_c, 2, 59, 0
4, 190200, Note_on_c, 2, 59, 90
4, 190215, Note_on_c, 2, 59, 0
4, 190230, Note_on_c, 2, 60, 90
4, 190259, Note_on_c, 2, 60, 0
4, 190260, Note_on_c, 2, 59, 90
4, 190289, Note_on_c, 2, 59, 0
4, 190290, Note_on_c, 2, 57, 90
4, 190319, Note_on_c, 2, 57, 0
4, 190320, Note_on_c, 2, 57, 90
4, 190335, Note_on_c, 2, 57, 0
4, 190350, Note_on_c, 2, 59, 90
4, 190379, Note_on_c, 2, 59, 0
4, 190380, Note_on_c, 2, 57, 90
4, 190409, Note_on_c, 2, 57, 0
4, 190410, Note_on_c, 2, 55, 90
4, 190439, Note_on_c, 2, 55, 0
4, 190440, Note_on_c, 2, 55, 90
4, 190455, Note_on_c, 2, 55, 0
4, 190470, Note_on_c, 2, 67, 90
4, 190499, Note_on_c, 2, 67, 0
4, 190500, Note_on_c, 2, 66, 90
4, 190529, Note_on_c, 2, 66, 0
4, 190530, Note_on_c, 2, 64, 90
4, 190559, Note_on_c, 2, 64, 0
4, 190560, Note_on_c, 2, 64, 90
4, 190575, Note_on_c, 2, 64, 0
4, 190590, Note_on_c, 2, 74, 90
4, 190619, Note_on_c, 2, 74, 0
4, 190620, Note_on_c, 2, 72, 90
4, 190649, Note_on_c, 2, 72, 0
4, 190650, Note_on_c, 2, 71, 90
4, 190679, Note_on_c, 2, 71, 0
4, 190680, Note_on_c, 2, 71, 90
4, 190695, Note_on_c, 2, 71, 0
4, 190710, Note_on_c, 2, 84, 90
4, 190739, Note_on_c, 2, 84, 0
4, 190740, Note_on_c, 2, 83, 90
4, 190769, Note_on_c, 2, 83, 0
4, 190770, Note_on_c, 2, 81, 90
4, 190799, Note_on_c, 2, 81, 0
4, 190800, Note_on_c, 2, 81, 90
4, 190815, Note_on_c, 2, 81, 0
4, 190830, Note_on_c, 2, 67, 90
4, 190859, Note_on_c, 2, 67, 0
4, 190860, Note_on_c, 2, 66, 90
4, 190889, Note_on_c, 2, 66, 0
4, 190890, Note_on_c, 2, 64, 90
4, 190919, Note_on_c, 2, 64, 0
4, 190920, Note_on_c, 2, 64, 90
4, 191190, Note_on_c, 2, 64, 0
4, 191190, Note_on_c, 2, 66, 90
4, 191219, Note_on_c, 2, 66, 0
4, 191220, Note_on_c, 2, 70, 90
4, 191249, Note_on_c, 2, 70, 0
4, 191250, Note_on_c, 2, 73, 90
4, 191279, Note_on_c, 2, 73, 0
4, 191280, Note_on_c, 2, 71, 90
4, 191339, Note_on_c, 2, 71, 0
4, 191640, Note_on_c, 2, 74, 90
4, 191699, Note_on_c, 2, 74, 0
4, 191700, Note_on_c, 2, 73, 90
4, 191819, Note_on_c, 2, 73, 0
4, 191820, Note_on_c, 2, 71, 90
4, 191879, Note_on_c, 2, 71, 0
4, 191880, Note_on_c, 2, 78, 90
4, 191939, Note_on_c, 2, 78, 0
4, 191940, Note_on_c, 2, 79, 90
4, 191999, Note_on_c, 2, 79, 0
4, 193800, Note_on_c, 2, 74, 90
4, 193859, Note_on_c, 2, 74, 0
4, 193860, Note_on_c, 2, 73, 90
4, 193979, Note_on_c, 2, 73, 0
4, 193980, Note_on_c, 2, 71, 90
4, 194039, Note_on_c, 2, 71, 0
4, 194040, Note_on_c, 2, 78, 90
4, 194099, Note_on_c, 2, 78, 0
4, 194100, Note_on_c, 2, 79, 90
4, 194219, Note_on_c, 2, 79, 0
4, 194220, Note_on_c, 2, 71, 90
4, 194279, Note_on_c, 2, 71, 0
4, 194280, Note_on_c, 2, 70, 90
4, 194309, Note_on_c, 2, 70, 0
4, 194310, Note_on_c, 2, 71, 90
4, 194339, Note_on_c, 2, 71, 0
4, 194340, Note_on_c, 2, 73, 90
4, 194369, Note_on_c, 2, 73, 0
4, 194370, Note_on_c, 2, 74, 90
4, 194399, Note_on_c, 2, 74, 0
4, 194400, Note_on_c, 2, 76, 90
4, 194459, Note_on_c, 2, 76, 0
4, 194460, Note_on_c, 2, 74, 90
4, 194489, Note_on_c, 2, 74, 0
4, 194520, Note_on_c, 2, 76, 90
4, 194529, Note_on_c, 2, 76, 0
4, 194530, Note_on_c, 2, 74, 90
4, 194539, Note_on_c, 2, 74, 0
4, 194540, Note_on_c, 2, 76, 90
4, 194549, Note_on_c, 2, 76, 0
4, 194550, Note_on_c, 2, 74, 90
4, 194559, Note_on_c, 2, 74, 0
4, 194560, Note_on_c, 2, 76, 90
4, 194569, Note_on_c, 2, 76, 0
4, 194570, Note_on_c, 2, 74, 90
4, 194579, Note_on_c, 2, 74, 0
4, 194580, Note_on_c, 2, 73, 90
4, 194669, Note_on_c, 2, 73, 0
4, 194670, Note_on_c, 2, 76, 90
4, 194699, Note_on_c, 2, 76, 0
4, 194700, Note_on_c, 2, 74, 90
4, 194729, Note_on_c, 2, 74, 0
4, 194730, Note_on_c, 2, 73, 90
4, 194759, Note_on_c, 2, 73, 0
4, 194760, Note_on_c, 2, 74, 90
4, 194789, Note_on_c, 2, 74, 0
4, 194790, Note_on_c, 2, 66, 90
4, 194819, Note_on_c, 2, 66, 0
4, 194820, Note_on_c, 2, 64, 90
4, 194849, Note_on_c, 2, 64, 0
4, 194850, Note_on_c, 2, 66, 90
4, 194879, Note_on_c, 2, 66, 0
4, 194880, Note_on_c, 2, 59, 90
4, 194909, Note_on_c, 2, 59, 0
4, 194910, Note_on_c, 2, 66, 90
4, 194939, Note_on_c, 2, 66, 0
4, 194940, Note_on_c, 2, 74, 90
4, 194969, Note_on_c, 2, 74, 0
4, 194970, Note_on_c, 2, 66, 90
4, 194999, Note_on_c, 2, 66, 0
4, 195000, Note_on_c, 2, 74, 90
4, 195029, Note_on_c, 2, 74, 0
4, 195030, Note_on_c, 2, 66, 90
4, 195059, Note_on_c, 2, 66, 0
4, 195060, Note_on_c, 2, 64, 90
4, 195089, Note_on_c, 2, 64, 0
4, 195090, Note_on_c, 2, 66, 90
4, 195119, Note_on_c, 2, 66, 0
4, 195120, Note_on_c, 2, 59, 90
4, 195149, Note_on_c, 2, 59, 0
4, 195150, Note_on_c, 2, 66, 90
4, 195179, Note_on_c, 2, 66, 0
4, 195180, Note_on_c, 2, 74, 90
4, 195209, Note_on_c, 2, 74, 0
4, 195210, Note_on_c, 2, 66, 90
4, 195239, Note_on_c, 2, 66, 0
4, 195240, Note_on_c, 2, 64, 90
4, 195269, Note_on_c, 2, 64, 0
4, 195270, Note_on_c, 2, 68, 90
4, 195299, Note_on_c, 2, 68, 0
4, 195300, Note_on_c, 2, 71, 90
4, 195329, Note_on_c, 2, 71, 0
4, 195330, Note_on_c, 2, 74, 90
4, 195359, Note_on_c, 2, 74, 0
4, 195360, Note_on_c, 2, 80, 90
4, 195389, Note_on_c, 2, 80, 0
4, 195390, Note_on_c, 2, 83, 90
4, 195419, Note_on_c, 2, 83, 0
4, 195420, Note_on_c, 2, 80, 90
4, 195449, Note_on_c, 2, 80, 0
4, 195450, Note_on_c, 2, 74, 90
4, 195479, Note_on_c, 2, 74, 0
4, 195480, Note_on_c, 2, 71, 90
4, 195509, Note_on_c, 2, 71, 0
4, 195510, Note_on_c, 2, 68, 90
4, 195539, Note_on_c, 2, 68, 0
4, 195540, Note_on_c, 2, 64, 90
4, 195569, Note_on_c, 2, 64, 0
4, 195570, Note_on_c, 2, 68, 90
4, 195599, Note_on_c, 2, 68, 0
4, 195600, Note_on_c, 2, 71, 90
4, 195629, Note_on_c, 2, 71, 0
4, 195630, Note_on_c, 2, 74, 90
4, 195659, Note_on_c, 2, 74, 0
4, 195660, Note_on_c, 2, 73, 90
4, 195689, Note_on_c, 2, 73, 0
4, 195690, Note_on_c, 2, 71, 90
4, 195719, Note_on_c, 2, 71, 0
4, 195720, Note_on_c, 2, 73, 90
4, 195749, Note_on_c, 2, 73, 0
4, 195750, Note_on_c, 2, 64, 90
4, 195779, Note_on_c, 2, 64, 0
4, 195780, Note_on_c, 2, 62, 90
4, 195809, Note_on_c, 2, 62, 0
4, 195810, Note_on_c, 2, 64, 90
4, 195839, Note_on_c, 2, 64, 0
4, 195840, Note_on_c, 2, 57, 90
4, 195869, Note_on_c, 2, 57, 0
4, 195870, Note_on_c, 2, 64, 90
4, 195899, Note_on_c, 2, 64, 0
4, 195900, Note_on_c, 2, 73, 90
4, 195929, Note_on_c, 2, 73, 0
4, 195930, Note_on_c, 2, 64, 90
4, 195959, Note_on_c, 2, 64, 0
4, 195960, Note_on_c, 2, 73, 90
4, 195989, Note_on_c, 2, 73, 0
4, 195990, Note_on_c, 2, 64, 90
4, 196019, Note_on_c, 2, 64, 0
4, 196020, Note_on_c, 2, 62, 90
4, 196049, Note_on_c, 2, 62, 0
4, 196050, Note_on_c, 2, 64, 90
4, 196079, Note_on_c, 2, 64, 0
4, 196080, Note_on_c, 2, 57, 90
4, 196109, Note_on_c, 2, 57, 0
4, 196110, Note_on_c, 2, 64, 90
4, 196139, Note_on_c, 2, 64, 0
4, 196140, Note_on_c, 2, 73, 90
4, 196169, Note_on_c, 2, 73, 0
4, 196170, Note_on_c, 2, 64, 90
4, 196199, Note_on_c, 2, 64, 0
4, 196200, Note_on_c, 2, 62, 90
4, 196229, Note_on_c, 2, 62, 0
4, 196230, Note_on_c, 2, 66, 90
4, 196259, Note_on_c, 2, 66, 0
4, 196260, Note_on_c, 2, 69, 90
4, 196289, Note_on_c, 2, 69, 0
4, 196290, Note_on_c, 2, 72, 90
4, 196319, Note_on_c, 2, 72, 0
4, 196320, Note_on_c, 2, 78, 90
4, 196349, Note_on_c, 2, 78, 0
4, 196350, Note_on_c, 2, 81, 90
4, 196379, Note_on_c, 2, 81, 0
4, 196380, Note_on_c, 2, 78, 90
4, 196409, Note_on_c, 2, 78, 0
4, 196410, Note_on_c, 2, 72, 90
4, 196439, Note_on_c, 2, 72, 0
4, 196440, Note_on_c, 2, 69, 90
4, 196469, Note_on_c, 2, 69, 0
4, 196470, Note_on_c, 2, 66, 90
4, 196499, Note_on_c, 2, 66, 0
4, 196500, Note_on_c, 2, 62, 90
4, 196529, Note_on_c, 2, 62, 0
4, 196530, Note_on_c, 2, 66, 90
4, 196559, Note_on_c, 2, 66, 0
4, 196560, Note_on_c, 2, 69, 90
4, 196589, Note_on_c, 2, 69, 0
4, 196590, Note_on_c, 2, 72, 90
4, 196619, Note_on_c, 2, 72, 0
4, 196620, Note_on_c, 2, 71, 90
4, 196649, Note_on_c, 2, 71, 0
4, 196650, Note_on_c, 2, 69, 90
4, 196679, Note_on_c, 2, 69, 0
4, 196680, Note_on_c, 2, 71, 90
4, 196694, Note_on_c, 2, 71, 0
4, 196695, Note_on_c, 2, 69, 90
4, 196709, Note_on_c, 2, 69, 0
4, 196710, Note_on_c, 2, 67, 90
4, 196739, Note_on_c, 2, 67, 0
4, 196740, Note_on_c, 2, 75, 90
4, 196859, Note_on_c, 2, 75, 0
4, 196860, Note_on_c, 2, 76, 90
4, 196889, Note_on_c, 2, 76, 0
4, 196890, Note_on_c, 2, 78, 90
4, 196919, Note_on_c, 2, 78, 0
4, 196920, Note_on_c, 2, 79, 90
4, 196949, Note_on_c, 2, 79, 0
4, 196950, Note_on_c, 2, 78, 90
4, 196979, Note_on_c, 2, 78, 0
4, 196980, Note_on_c, 2, 76, 90
4, 197069, Note_on_c, 2, 76, 0
4, 197070, Note_on_c, 2, 74, 90
4, 197099, Note_on_c, 2, 74, 0
4, 197100, Note_on_c, 2, 73, 90
4, 197129, Note_on_c, 2, 73, 0
4, 197130, Note_on_c, 2, 71, 90
4, 197159, Note_on_c, 2, 71, 0
4, 197160, Note_on_c, 2, 69, 90
4, 197174, Note_on_c, 2, 69, 0
4, 197175, Note_on_c, 2, 67, 90
4, 197189, Note_on_c, 2, 67, 0
4, 197190, Note_on_c, 2, 66, 90
4, 197219, Note_on_c, 2, 66, 0
4, 197220, Note_on_c, 2, 73, 90
4, 197339, Note_on_c, 2, 73, 0
4, 197340, Note_on_c, 2, 74, 90
4, 197369, Note_on_c, 2, 74, 0
4, 197370, Note_on_c, 2, 76, 90
4, 197399, Note_on_c, 2, 76, 0
4, 197400, Note_on_c, 2, 78, 90
4, 197429, Note_on_c, 2, 78, 0
4, 197430, Note_on_c, 2, 76, 90
4, 197459, Note_on_c, 2, 76, 0
4, 197460, Note_on_c, 2, 74, 90
4, 197549, Note_on_c, 2, 74, 0
4, 197550, Note_on_c, 2, 62, 90
4, 197579, Note_on_c, 2, 62, 0
4, 197580, Note_on_c, 2, 61, 90
4, 197609, Note_on_c, 2, 61, 0
4, 197610, Note_on_c, 2, 59, 90
4, 197639, Note_on_c, 2, 59, 0
4, 197640, Note_on_c, 2, 58, 90
4, 197655, Note_on_c, 2, 58, 0
4, 197670, Note_on_c, 2, 67, 90
4, 197699, Note_on_c, 2, 67, 0
4, 197700, Note_on_c, 2, 66, 90
4, 197729, Note_on_c, 2, 66, 0
4, 197730, Note_on_c, 2, 64, 90
4, 197759, Note_on_c, 2, 64, 0
4, 197760, Note_on_c, 2, 62, 90
4, 197775, Note_on_c, 2, 62, 0
4, 197790, Note_on_c, 2, 73, 90
4, 197819, Note_on_c, 2, 73, 0
4, 197820, Note_on_c, 2, 71, 90
4, 197849, Note_on_c, 2, 71, 0
4, 197850, Note_on_c, 2, 70, 90
4, 197879, Note_on_c, 2, 70, 0
4, 197880, Note_on_c, 2, 70, 90
4, 197895, Note_on_c, 2, 70, 0
4, 197910, Note_on_c, 2, 79, 90
4, 197939, Note_on_c, 2, 79, 0
4, 197940, Note_on_c, 2, 78, 90
4, 197969, Note_on_c, 2, 78, 0
4, 197970, Note_on_c, 2, 76, 90
4, 197999, Note_on_c, 2, 76, 0
4, 198000, Note_on_c, 2, 76, 90
4, 198015, Note_on_c, 2, 76, 0
4, 198030, Note_on_c, 2, 82, 90
4, 198059, Note_on_c, 2, 82, 0
4, 198060, Note_on_c, 2, 83, 90
4, 198089, Note_on_c, 2, 83, 0
4, 198090, Note_on_c, 2, 85, 90
4, 198119, Note_on_c, 2, 85, 0
4, 198120, Note_on_c, 2, 62, 90
4, 198179, Note_on_c, 2, 62, 0
4, 198180, Note_on_c, 2, 78, 90
4, 198239, Note_on_c, 2, 78, 0
4, 198240, Note_on_c, 2, 76, 90
4, 198254, Note_on_c, 2, 76, 0
4, 198255, Note_on_c, 2, 74, 90
4, 198269, Note_on_c, 2, 74, 0
4, 198270, Note_on_c, 2, 76, 90
4, 198284, Note_on_c, 2, 76, 0
4, 198285, Note_on_c, 2, 74, 90
4, 198299, Note_on_c, 2, 74, 0
4, 198300, Note_on_c, 2, 73, 90
4, 198329, Note_on_c, 2, 73, 0
4, 198330, Note_on_c, 2, 71, 90
4, 198359, Note_on_c, 2, 71, 0
4, 198360, Note_on_c, 2, 71, 90
4, 198600, Note_on_c, 2, 71, 0
4, 201240, Note_on_c, 2, 69, 90
4, 201359, Note_on_c, 2, 69, 0
4, 201360, Note_on_c, 2, 71, 90
4, 201479, Note_on_c, 2, 71, 0
4, 201480, Note_on_c, 2, 73, 90
4, 201539, Note_on_c, 2, 73, 0
4, 201540, Note_on_c, 2, 74, 90
4, 201599, Note_on_c, 2, 74, 0
4, 201600, Note_on_c, 2, 76, 90
4, 201719, Note_on_c, 2, 76, 0
4, 201720, Note_on_c, 2, 69, 90
4, 201839, Note_on_c, 2, 69, 0
4, 201840, Note_on_c, 2, 68, 90
4, 201959, Note_on_c, 2, 68, 0
4, 201960, Note_on_c, 2, 66, 90
4, 202079, Note_on_c, 2, 66, 0
4, 202080, Note_on_c, 2, 64, 90
4, 202175, Note_on_c, 2, 64, 0
4, 202200, Note_on_c, 2, 66, 90
4, 202319, Note_on_c, 2, 66, 0
4, 202320, Note_on_c, 2, 68, 90
4, 202439, Note_on_c, 2, 68, 0
4, 202440, Note_on_c, 2, 69, 90
4, 202559, Note_on_c, 2, 69, 0
4, 202560, Note_on_c, 2, 71, 90
4, 202679, Note_on_c, 2, 71, 0
4, 202680, Note_on_c, 2, 73, 90
4, 202739, Note_on_c, 2, 73, 0
4, 202740, Note_on_c, 2, 74, 90
4, 202799, Note_on_c, 2, 74, 0
4, 202800, Note_on_c, 2, 71, 90
4, 202919, Note_on_c, 2, 71, 0
4, 202920, Note_on_c, 2, 69, 90
4, 203135, Note_on_c, 2, 69, 0
4, 203160, Note_on_c, 2, 69, 90
4, 203279, Note_on_c, 2, 69, 0
4, 203280, Note_on_c, 2, 71, 90
4, 203399, Note_on_c, 2, 71, 0
4, 203400, Note_on_c, 2, 73, 90
4, 203459, Note_on_c, 2, 73, 0
4, 203460, Note_on_c, 2, 74, 90
4, 203519, Note_on_c, 2, 74, 0
4, 203520, Note_on_c, 2, 76, 90
4, 203639, Note_on_c, 2, 76, 0
4, 203640, Note_on_c, 2, 69, 90
4, 203759, Note_on_c, 2, 69, 0
4, 203760, Note_on_c, 2, 68, 90
4, 203879, Note_on_c, 2, 68, 0
4, 203880, Note_on_c, 2, 66, 90
4, 203999, Note_on_c, 2, 66, 0
4, 204000, Note_on_c, 2, 64, 90
4, 204095, Note_on_c, 2, 64, 0
4, 204120, Note_on_c, 2, 66, 90
4, 204239, Note_on_c, 2, 66, 0
4, 204240, Note_on_c, 2, 68, 90
4, 204359, Note_on_c, 2, 68, 0
4, 204360, Note_on_c, 2, 69, 90
4, 204479, Note_on_c, 2, 69, 0
4, 204480, Note_on_c, 2, 71, 90
4, 204599, Note_on_c, 2, 71, 0
4, 204600, Note_on_c, 2, 73, 90
4, 204659, Note_on_c, 2, 73, 0
4, 204660, Note_on_c, 2, 74, 90
4, 204719, Note_on_c, 2, 74, 0
4, 204720, Note_on_c, 2, 71, 90
4, 204839, Note_on_c, 2, 71, 0
4, 204840, Note_on_c, 2, 69, 90
4, 205055, Note_on_c, 2, 69, 0
4, 205080, Note_on_c, 2, 73, 90
4, 205199, Note_on_c, 2, 73, 0
4, 205200, Note_on_c, 2, 73, 90
4, 205319, Note_on_c, 2, 73, 0
4, 205320, Note_on_c, 2, 71, 90
4, 205439, Note_on_c, 2, 71, 0
4, 205440, Note_on_c, 2, 73, 90
4, 205559, Note_on_c, 2, 73, 0
4, 205560, Note_on_c, 2, 74, 90
4, 205679, Note_on_c, 2, 74, 0
4, 205680, Note_on_c, 2, 73, 90
4, 205739, Note_on_c, 2, 73, 0
4, 205740, Note_on_c, 2, 71, 90
4, 205799, Note_on_c, 2, 71, 0
4, 205800, Note_on_c, 2, 71, 90
4, 205859, Note_on_c, 2, 71, 0
4, 205860, Note_on_c, 2, 69, 90
4, 205919, Note_on_c, 2, 69, 0
4, 205920, Note_on_c, 2, 71, 90
4, 206015, Note_on_c, 2, 71, 0
4, 206040, Note_on_c, 2, 66, 90
4, 206159, Note_on_c, 2, 66, 0
4, 206160, Note_on_c, 2, 68, 90
4, 206279, Note_on_c, 2, 68, 0
4, 206280, Note_on_c, 2, 69, 90
4, 206399, Note_on_c, 2, 69, 0
4, 206400, Note_on_c, 2, 71, 90
4, 206519, Note_on_c, 2, 71, 0
4, 206520, Note_on_c, 2, 73, 90
4, 206579, Note_on_c, 2, 73, 0
4, 206580, Note_on_c, 2, 74, 90
4, 206639, Note_on_c, 2, 74, 0
4, 206640, Note_on_c, 2, 71, 90
4, 206759, Note_on_c, 2, 71, 0
4, 206760, Note_on_c, 2, 69, 90
4, 206819, Note_on_c, 2, 69, 0
4, 206820, Note_on_c, 2, 68, 90
4, 206879, Note_on_c, 2, 68, 0
4, 206880, Note_on_c, 2, 69, 90
4, 206999, Note_on_c, 2, 69, 0
4, 206999, End_track
5, 0, Start_track
5, 0, MIDI_port, 0
5, 0, Title_t, "Violin II"
5, 0, Program_c, 3, 48
5, 0, Control_c, 3, 7, 127
5, 0, Control_c, 3, 10, 42
5, 0, Note_on_c, 3, 73, 90
5, 47, Note_on_c, 3, 73, 0
5, 60, Note_on_c, 3, 69, 90
5, 107, Note_on_c, 3, 69, 0
5, 390, Note_on_c, 3, 73, 90
5, 413, Note_on_c, 3, 73, 0
5, 420, Note_on_c, 3, 76, 90
5, 443, Note_on_c, 3, 76, 0
5, 450, Note_on_c, 3, 73, 90
5, 473, Note_on_c, 3, 73, 0
5, 480, Note_on_c, 3, 69, 90
5, 503, Note_on_c, 3, 69, 0
5, 510, Note_on_c, 3, 73, 90
5, 533, Note_on_c, 3, 73, 0
5, 540, Note_on_c, 3, 64, 90
5, 563, Note_on_c, 3, 64, 0
5, 570, Note_on_c, 3, 69, 90
5, 593, Note_on_c, 3, 69, 0
5, 600, Note_on_c, 3, 59, 90
5, 647, Note_on_c, 3, 59, 0
5, 660, Note_on_c, 3, 68, 90
5, 707, Note_on_c, 3, 68, 0
5, 720, Note_on_c, 3, 69, 90
5, 767, Note_on_c, 3, 69, 0
5, 780, Note_on_c, 3, 64, 90
5, 827, Note_on_c, 3, 64, 0
5, 1110, Note_on_c, 3, 69, 90
5, 1133, Note_on_c, 3, 69, 0
5, 1140, Note_on_c, 3, 73, 90
5, 1163, Note_on_c, 3, 73, 0
5, 1170, Note_on_c, 3, 69, 90
5, 1193, Note_on_c, 3, 69, 0
5, 1200, Note_on_c, 3, 64, 90
5, 1223, Note_on_c, 3, 64, 0
5, 1230, Note_on_c, 3, 69, 90
5, 1253, Note_on_c, 3, 69, 0
5, 1260, Note_on_c, 3, 61, 90
5, 1283, Note_on_c, 3, 61, 0
5, 1290, Note_on_c, 3, 64, 90
5, 1313, Note_on_c, 3, 64, 0
5, 1320, Note_on_c, 3, 59, 90
5, 1367, Note_on_c, 3, 59, 0
5, 1380, Note_on_c, 3, 59, 90
5, 1427, Note_on_c, 3, 59, 0
5, 1440, Note_on_c, 3, 57, 90
5, 1487, Note_on_c, 3, 57, 0
5, 1500, Note_on_c, 3, 64, 90
5, 1547, Note_on_c, 3, 64, 0
5, 1620, Note_on_c, 3, 69, 90
5, 1667, Note_on_c, 3, 69, 0
5, 1680, Note_on_c, 3, 69, 90
5, 1727, Note_on_c, 3, 69, 0
5, 1740, Note_on_c, 3, 69, 90
5, 1787, Note_on_c, 3, 69, 0
5, 1800, Note_on_c, 3, 69, 90
5, 1895, Note_on_c, 3, 69, 0
5, 1980, Note_on_c, 3, 69, 90
5, 2027, Note_on_c, 3, 69, 0
5, 2040, Note_on_c, 3, 69, 90
5, 2087, Note_on_c, 3, 69, 0
5, 2100, Note_on_c, 3, 69, 90
5, 2147, Note_on_c, 3, 69, 0
5, 2160, Note_on_c, 3, 71, 90
5, 2207, Note_on_c, 3, 71, 0
5, 2220, Note_on_c, 3, 66, 90
5, 2267, Note_on_c, 3, 66, 0
5, 2340, Note_on_c, 3, 71, 90
5, 2387, Note_on_c, 3, 71, 0
5, 2400, Note_on_c, 3, 71, 90
5, 2447, Note_on_c, 3, 71, 0
5, 2460, Note_on_c, 3, 71, 90
5, 2507, Note_on_c, 3, 71, 0
5, 2520, Note_on_c, 3, 71, 90
5, 2567, Note_on_c, 3, 71, 0
5, 2580, Note_on_c, 3, 59, 90
5, 2627, Note_on_c, 3, 59, 0
5, 2700, Note_on_c, 3, 71, 90
5, 2747, Note_on_c, 3, 71, 0
5, 2760, Note_on_c, 3, 71, 90
5, 2807, Note_on_c, 3, 71, 0
5, 2820, Note_on_c, 3, 71, 90
5, 2867, Note_on_c, 3, 71, 0
5, 2880, Note_on_c, 3, 71, 90
5, 2975, Note_on_c, 3, 71, 0
5, 3060, Note_on_c, 3, 71, 90
5, 3107, Note_on_c, 3, 71, 0
5, 3120, Note_on_c, 3, 71, 90
5, 3167, Note_on_c, 3, 71, 0
5, 3180, Note_on_c, 3, 71, 90
5, 3227, Note_on_c, 3, 71, 0
5, 3240, Note_on_c, 3, 69, 90
5, 3287, Note_on_c, 3, 69, 0
5, 3300, Note_on_c, 3, 76, 90
5, 3347, Note_on_c, 3, 76, 0
5, 3360, Note_on_c, 3, 76, 90
5, 3407, Note_on_c, 3, 76, 0
5, 3420, Note_on_c, 3, 73, 90
5, 3467, Note_on_c, 3, 73, 0
5, 3480, Note_on_c, 3, 69, 90
5, 3527, Note_on_c, 3, 69, 0
5, 3540, Note_on_c, 3, 69, 90
5, 3587, Note_on_c, 3, 69, 0
5, 3600, Note_on_c, 3, 69, 90
5, 3647, Note_on_c, 3, 69, 0
5, 3660, Note_on_c, 3, 74, 90
5, 3707, Note_on_c, 3, 74, 0
5, 3720, Note_on_c, 3, 74, 90
5, 3767, Note_on_c, 3, 74, 0
5, 3780, Note_on_c, 3, 69, 90
5, 3827, Note_on_c, 3, 69, 0
5, 3840, Note_on_c, 3, 69, 90
5, 3887, Note_on_c, 3, 69, 0
5, 3900, Note_on_c, 3, 69, 90
5, 3947, Note_on_c, 3, 69, 0
5, 3960, Note_on_c, 3, 69, 90
5, 4007, Note_on_c, 3, 69, 0
5, 4020, Note_on_c, 3, 73, 90
5, 4067, Note_on_c, 3, 73, 0
5, 4080, Note_on_c, 3, 73, 90
5, 4127, Note_on_c, 3, 73, 0
5, 4140, Note_on_c, 3, 69, 90
5, 4187, Note_on_c, 3, 69, 0
5, 4200, Note_on_c, 3, 69, 90
5, 4247, Note_on_c, 3, 69, 0
5, 4260, Note_on_c, 3, 69, 90
5, 4307, Note_on_c, 3, 69, 0
5, 4320, Note_on_c, 3, 66, 90
5, 4367, Note_on_c, 3, 66, 0
5, 4380, Note_on_c, 3, 68, 90
5, 4427, Note_on_c, 3, 68, 0
5, 4440, Note_on_c, 3, 68, 90
5, 4487, Note_on_c, 3, 68, 0
5, 4500, Note_on_c, 3, 64, 90
5, 4547, Note_on_c, 3, 64, 0
5, 4560, Note_on_c, 3, 64, 90
5, 4607, Note_on_c, 3, 64, 0
5, 4620, Note_on_c, 3, 66, 90
5, 4643, Note_on_c, 3, 66, 0
5, 4650, Note_on_c, 3, 68, 90
5, 4673, Note_on_c, 3, 68, 0
5, 4680, Note_on_c, 3, 69, 90
5, 4727, Note_on_c, 3, 69, 0
5, 4800, Note_on_c, 3, 66, 90
5, 4847, Note_on_c, 3, 66, 0
5, 4920, Note_on_c, 3, 64, 90
5, 4967, Note_on_c, 3, 64, 0
5, 5040, Note_on_c, 3, 62, 90
5, 5087, Note_on_c, 3, 62, 0
5, 5160, Note_on_c, 3, 62, 90
5, 5207, Note_on_c, 3, 62, 0
5, 5280, Note_on_c, 3, 61, 90
5, 5327, Note_on_c, 3, 61, 0
5, 5400, Note_on_c, 3, 59, 90
5, 5447, Note_on_c, 3, 59, 0
5, 5460, Note_on_c, 3, 64, 90
5, 5507, Note_on_c, 3, 64, 0
5, 5520, Note_on_c, 3, 64, 90
5, 5567, Note_on_c, 3, 64, 0
5, 5580, Note_on_c, 3, 64, 90
5, 5627, Note_on_c, 3, 64, 0
5, 5640, Note_on_c, 3, 64, 90
5, 5687, Note_on_c, 3, 64, 0
5, 5700, Note_on_c, 3, 64, 90
5, 5747, Note_on_c, 3, 64, 0
5, 5760, Note_on_c, 3, 64, 90
5, 5855, Note_on_c, 3, 64, 0
5, 6870, Note_on_c, 3, 73, 90
5, 6893, Note_on_c, 3, 73, 0
5, 6900, Note_on_c, 3, 76, 90
5, 6923, Note_on_c, 3, 76, 0
5, 6930, Note_on_c, 3, 73, 90
5, 6953, Note_on_c, 3, 73, 0
5, 6960, Note_on_c, 3, 69, 90
5, 6983, Note_on_c, 3, 69, 0
5, 6990, Note_on_c, 3, 73, 90
5, 7013, Note_on_c, 3, 73, 0
5, 7020, Note_on_c, 3, 64, 90
5, 7043, Note_on_c, 3, 64, 0
5, 7050, Note_on_c, 3, 69, 90
5, 7073, Note_on_c, 3, 69, 0
5, 7080, Note_on_c, 3, 59, 90
5, 7127, Note_on_c, 3, 59, 0
5, 7140, Note_on_c, 3, 68, 90
5, 7187, Note_on_c, 3, 68, 0
5, 7200, Note_on_c, 3, 69, 90
5, 7247, Note_on_c, 3, 69, 0
5, 7260, Note_on_c, 3, 64, 90
5, 7307, Note_on_c, 3, 64, 0
5, 8670, Note_on_c, 3, 68, 90
5, 8693, Note_on_c, 3, 68, 0
5, 8700, Note_on_c, 3, 71, 90
5, 8723, Note_on_c, 3, 71, 0
5, 8730, Note_on_c, 3, 68, 90
5, 8753, Note_on_c, 3, 68, 0
5, 8760, Note_on_c, 3, 64, 90
5, 8783, Note_on_c, 3, 64, 0
5, 8790, Note_on_c, 3, 68, 90
5, 8813, Note_on_c, 3, 68, 0
5, 8820, Note_on_c, 3, 59, 90
5, 8843, Note_on_c, 3, 59, 0
5, 8850, Note_on_c, 3, 64, 90
5, 8873, Note_on_c, 3, 64, 0
5, 8880, Note_on_c, 3, 59, 90
5, 8927, Note_on_c, 3, 59, 0
5, 8940, Note_on_c, 3, 63, 90
5, 8987, Note_on_c, 3, 63, 0
5, 9000, Note_on_c, 3, 64, 90
5, 9047, Note_on_c, 3, 64, 0
5, 9060, Note_on_c, 3, 68, 90
5, 9107, Note_on_c, 3, 68, 0
5, 10470, Note_on_c, 3, 73, 90
5, 10493, Note_on_c, 3, 73, 0
5, 10500, Note_on_c, 3, 76, 90
5, 10523, Note_on_c, 3, 76, 0
5, 10530, Note_on_c, 3, 73, 90
5, 10553, Note_on_c, 3, 73, 0
5, 10560, Note_on_c, 3, 69, 90
5, 10583, Note_on_c, 3, 69, 0
5, 10590, Note_on_c, 3, 73, 90
5, 10613, Note_on_c, 3, 73, 0
5, 10620, Note_on_c, 3, 64, 90
5, 10643, Note_on_c, 3, 64, 0
5, 10650, Note_on_c, 3, 69, 90
5, 10673, Note_on_c, 3, 69, 0
5, 10680, Note_on_c, 3, 59, 90
5, 10727, Note_on_c, 3, 59, 0
5, 10740, Note_on_c, 3, 68, 90
5, 10787, Note_on_c, 3, 68, 0
5, 10800, Note_on_c, 3, 69, 90
5, 10847, Note_on_c, 3, 69, 0
5, 10860, Note_on_c, 3, 64, 90
5, 10907, Note_on_c, 3, 64, 0
5, 11520, Note_on_c, 3, 68, 90
5, 11550, Note_on_c, 3, 68, 0
5, 11580, Note_on_c, 3, 71, 90
5, 11610, Note_on_c, 3, 71, 0
5, 12240, Note_on_c, 3, 71, 90
5, 12270, Note_on_c, 3, 71, 0
5, 12300, Note_on_c, 3, 63, 90
5, 12330, Note_on_c, 3, 63, 0
5, 12960, Note_on_c, 3, 64, 90
5, 12990, Note_on_c, 3, 64, 0
5, 13020, Note_on_c, 3, 73, 90
5, 13050, Note_on_c, 3, 73, 0
5, 13680, Note_on_c, 3, 76, 90
5, 13710, Note_on_c, 3, 76, 0
5, 13740, Note_on_c, 3, 68, 90
5, 13770, Note_on_c, 3, 68, 0
5, 14580, Note_on_c, 3, 63, 90
5, 14627, Note_on_c, 3, 63, 0
5, 14640, Note_on_c, 3, 66, 90
5, 14687, Note_on_c, 3, 66, 0
5, 14700, Note_on_c, 3, 63, 90
5, 14747, Note_on_c, 3, 63, 0
5, 14760, Note_on_c, 3, 64, 90
5, 14807, Note_on_c, 3, 64, 0
5, 14820, Note_on_c, 3, 71, 90
5, 14867, Note_on_c, 3, 71, 0
5, 14940, Note_on_c, 3, 71, 90
5, 14987, Note_on_c, 3, 71, 0
5, 15000, Note_on_c, 3, 68, 90
5, 15047, Note_on_c, 3, 68, 0
5, 15060, Note_on_c, 3, 71, 90
5, 15107, Note_on_c, 3, 71, 0
5, 15120, Note_on_c, 3, 64, 90
5, 15167, Note_on_c, 3, 64, 0
5, 15180, Note_on_c, 3, 73, 90
5, 15227, Note_on_c, 3, 73, 0
5, 15300, Note_on_c, 3, 69, 90
5, 15347, Note_on_c, 3, 69, 0
5, 15360, Note_on_c, 3, 69, 90
5, 15407, Note_on_c, 3, 69, 0
5, 15420, Note_on_c, 3, 64, 90
5, 15467, Note_on_c, 3, 64, 0
5, 15480, Note_on_c, 3, 66, 90
5, 15527, Note_on_c, 3, 66, 0
5, 15540, Note_on_c, 3, 78, 90
5, 15587, Note_on_c, 3, 78, 0
5, 15660, Note_on_c, 3, 73, 90
5, 15707, Note_on_c, 3, 73, 0
5, 15720, Note_on_c, 3, 73, 90
5, 15767, Note_on_c, 3, 73, 0
5, 15780, Note_on_c, 3, 73, 90
5, 15827, Note_on_c, 3, 73, 0
5, 15840, Note_on_c, 3, 71, 90
5, 15887, Note_on_c, 3, 71, 0
5, 15900, Note_on_c, 3, 75, 90
5, 15947, Note_on_c, 3, 75, 0
5, 16020, Note_on_c, 3, 71, 90
5, 16067, Note_on_c, 3, 71, 0
5, 16080, Note_on_c, 3, 71, 90
5, 16127, Note_on_c, 3, 71, 0
5, 16140, Note_on_c, 3, 71, 90
5, 16187, Note_on_c, 3, 71, 0
5, 16200, Note_on_c, 3, 75, 90
5, 16247, Note_on_c, 3, 75, 0
5, 16260, Note_on_c, 3, 71, 90
5, 16307, Note_on_c, 3, 71, 0
5, 16380, Note_on_c, 3, 71, 90
5, 16427, Note_on_c, 3, 71, 0
5, 16440, Note_on_c, 3, 71, 90
5, 16487, Note_on_c, 3, 71, 0
5, 16500, Note_on_c, 3, 71, 90
5, 16547, Note_on_c, 3, 71, 0
5, 16560, Note_on_c, 3, 71, 90
5, 16607, Note_on_c, 3, 71, 0
5, 16620, Note_on_c, 3, 76, 90
5, 16667, Note_on_c, 3, 76, 0
5, 16680, Note_on_c, 3, 76, 90
5, 16727, Note_on_c, 3, 76, 0
5, 16740, Note_on_c, 3, 71, 90
5, 16787, Note_on_c, 3, 71, 0
5, 16800, Note_on_c, 3, 71, 90
5, 16847, Note_on_c, 3, 71, 0
5, 16860, Note_on_c, 3, 76, 90
5, 16907, Note_on_c, 3, 76, 0
5, 16920, Note_on_c, 3, 73, 90
5, 16967, Note_on_c, 3, 73, 0
5, 16980, Note_on_c, 3, 76, 90
5, 17027, Note_on_c, 3, 76, 0
5, 17040, Note_on_c, 3, 76, 90
5, 17087, Note_on_c, 3, 76, 0
5, 17100, Note_on_c, 3, 73, 90
5, 17147, Note_on_c, 3, 73, 0
5, 17160, Note_on_c, 3, 73, 90
5, 17207, Note_on_c, 3, 73, 0
5, 17220, Note_on_c, 3, 76, 90
5, 17267, Note_on_c, 3, 76, 0
5, 17280, Note_on_c, 3, 68, 90
5, 17327, Note_on_c, 3, 68, 0
5, 17340, Note_on_c, 3, 71, 90
5, 17387, Note_on_c, 3, 71, 0
5, 17400, Note_on_c, 3, 76, 90
5, 17447, Note_on_c, 3, 76, 0
5, 17460, Note_on_c, 3, 76, 90
5, 17507, Note_on_c, 3, 76, 0
5, 17520, Note_on_c, 3, 73, 90
5, 17567, Note_on_c, 3, 73, 0
5, 17580, Note_on_c, 3, 73, 90
5, 17627, Note_on_c, 3, 73, 0
5, 17640, Note_on_c, 3, 69, 90
5, 17687, Note_on_c, 3, 69, 0
5, 17700, Note_on_c, 3, 71, 90
5, 17747, Note_on_c, 3, 71, 0
5, 17760, Note_on_c, 3, 71, 90
5, 17807, Note_on_c, 3, 71, 0
5, 17820, Note_on_c, 3, 66, 90
5, 17867, Note_on_c, 3, 66, 0
5, 17880, Note_on_c, 3, 66, 90
5, 17927, Note_on_c, 3, 66, 0
5, 17940, Note_on_c, 3, 71, 90
5, 17987, Note_on_c, 3, 71, 0
5, 18000, Note_on_c, 3, 71, 90
5, 18047, Note_on_c, 3, 71, 0
5, 18120, Note_on_c, 3, 69, 90
5, 18167, Note_on_c, 3, 69, 0
5, 18240, Note_on_c, 3, 64, 90
5, 18287, Note_on_c, 3, 64, 0
5, 18360, Note_on_c, 3, 76, 90
5, 18407, Note_on_c, 3, 76, 0
5, 18480, Note_on_c, 3, 75, 90
5, 18527, Note_on_c, 3, 75, 0
5, 18600, Note_on_c, 3, 73, 90
5, 18647, Note_on_c, 3, 73, 0
5, 18720, Note_on_c, 3, 71, 90
5, 18767, Note_on_c, 3, 71, 0
5, 18780, Note_on_c, 3, 75, 90
5, 18827, Note_on_c, 3, 75, 0
5, 18840, Note_on_c, 3, 76, 90
5, 18887, Note_on_c, 3, 76, 0
5, 18900, Note_on_c, 3, 64, 90
5, 18923, Note_on_c, 3, 64, 0
5, 18930, Note_on_c, 3, 66, 90
5, 18953, Note_on_c, 3, 66, 0
5, 18960, Note_on_c, 3, 68, 90
5, 19007, Note_on_c, 3, 68, 0
5, 19020, Note_on_c, 3, 69, 90
5, 19067, Note_on_c, 3, 69, 0
5, 19080, Note_on_c, 3, 68, 90
5, 19127, Note_on_c, 3, 68, 0
5, 19140, Note_on_c, 3, 64, 90
5, 19187, Note_on_c, 3, 64, 0
5, 19470, Note_on_c, 3, 80, 90
5, 19493, Note_on_c, 3, 80, 0
5, 19500, Note_on_c, 3, 83, 90
5, 19523, Note_on_c, 3, 83, 0
5, 19530, Note_on_c, 3, 80, 90
5, 19553, Note_on_c, 3, 80, 0
5, 19560, Note_on_c, 3, 76, 90
5, 19583, Note_on_c, 3, 76, 0
5, 19590, Note_on_c, 3, 80, 90
5, 19613, Note_on_c, 3, 80, 0
5, 19620, Note_on_c, 3, 71, 90
5, 19643, Note_on_c, 3, 71, 0
5, 19650, Note_on_c, 3, 76, 90
5, 19673, Note_on_c, 3, 76, 0
5, 19680, Note_on_c, 3, 66, 90
5, 19727, Note_on_c, 3, 66, 0
5, 19740, Note_on_c, 3, 75, 90
5, 19787, Note_on_c, 3, 75, 0
5, 19800, Note_on_c, 3, 76, 90
5, 19847, Note_on_c, 3, 76, 0
5, 19860, Note_on_c, 3, 71, 90
5, 19907, Note_on_c, 3, 71, 0
5, 20190, Note_on_c, 3, 76, 90
5, 20213, Note_on_c, 3, 76, 0
5, 20220, Note_on_c, 3, 80, 90
5, 20243, Note_on_c, 3, 80, 0
5, 20250, Note_on_c, 3, 76, 90
5, 20273, Note_on_c, 3, 76, 0
5, 20280, Note_on_c, 3, 71, 90
5, 20303, Note_on_c, 3, 71, 0
5, 20310, Note_on_c, 3, 76, 90
5, 20333, Note_on_c, 3, 76, 0
5, 20340, Note_on_c, 3, 68, 90
5, 20363, Note_on_c, 3, 68, 0
5, 20370, Note_on_c, 3, 71, 90
5, 20393, Note_on_c, 3, 71, 0
5, 20400, Note_on_c, 3, 66, 90
5, 20447, Note_on_c, 3, 66, 0
5, 20460, Note_on_c, 3, 66, 90
5, 20507, Note_on_c, 3, 66, 0
5, 20520, Note_on_c, 3, 64, 90
5, 20567, Note_on_c, 3, 64, 0
5, 20580, Note_on_c, 3, 59, 90
5, 20627, Note_on_c, 3, 59, 0
5, 20700, Note_on_c, 3, 73, 90
5, 20723, Note_on_c, 3, 73, 0
5, 20730, Note_on_c, 3, 69, 90
5, 20753, Note_on_c, 3, 69, 0
5, 20760, Note_on_c, 3, 71, 90
5, 20807, Note_on_c, 3, 71, 0
5, 20820, Note_on_c, 3, 68, 90
5, 20867, Note_on_c, 3, 68, 0
5, 20880, Note_on_c, 3, 69, 90
5, 20927, Note_on_c, 3, 69, 0
5, 20940, Note_on_c, 3, 64, 90
5, 20987, Note_on_c, 3, 64, 0
5, 21060, Note_on_c, 3, 69, 90
5, 21083, Note_on_c, 3, 69, 0
5, 21090, Note_on_c, 3, 68, 90
5, 21113, Note_on_c, 3, 68, 0
5, 21120, Note_on_c, 3, 69, 90
5, 21167, Note_on_c, 3, 69, 0
5, 21180, Note_on_c, 3, 69, 90
5, 21227, Note_on_c, 3, 69, 0
5, 21240, Note_on_c, 3, 71, 90
5, 21287, Note_on_c, 3, 71, 0
5, 21300, Note_on_c, 3, 59, 90
5, 21347, Note_on_c, 3, 59, 0
5, 21420, Note_on_c, 3, 71, 90
5, 21443, Note_on_c, 3, 71, 0
5, 21450, Note_on_c, 3, 69, 90
5, 21473, Note_on_c, 3, 69, 0
5, 21480, Note_on_c, 3, 71, 90
5, 21527, Note_on_c, 3, 71, 0
5, 21540, Note_on_c, 3, 68, 90
5, 21587, Note_on_c, 3, 68, 0
5, 21600, Note_on_c, 3, 64, 90
5, 21647, Note_on_c, 3, 64, 0
5, 21660, Note_on_c, 3, 61, 90
5, 21707, Note_on_c, 3, 61, 0
5, 21990, Note_on_c, 3, 73, 90
5, 22013, Note_on_c, 3, 73, 0
5, 22020, Note_on_c, 3, 76, 90
5, 22043, Note_on_c, 3, 76, 0
5, 22050, Note_on_c, 3, 73, 90
5, 22073, Note_on_c, 3, 73, 0
5, 22080, Note_on_c, 3, 69, 90
5, 22103, Note_on_c, 3, 69, 0
5, 22110, Note_on_c, 3, 73, 90
5, 22133, Note_on_c, 3, 73, 0
5, 22140, Note_on_c, 3, 64, 90
5, 22163, Note_on_c, 3, 64, 0
5, 22170, Note_on_c, 3, 69, 90
5, 22193, Note_on_c, 3, 69, 0
5, 22200, Note_on_c, 3, 59, 90
5, 22247, Note_on_c, 3, 59, 0
5, 22260, Note_on_c, 3, 68, 90
5, 22307, Note_on_c, 3, 68, 0
5, 22320, Note_on_c, 3, 69, 90
5, 22367, Note_on_c, 3, 69, 0
5, 22380, Note_on_c, 3, 64, 90
5, 22427, Note_on_c, 3, 64, 0
5, 22710, Note_on_c, 3, 69, 90
5, 22733, Note_on_c, 3, 69, 0
5, 22740, Note_on_c, 3, 73, 90
5, 22763, Note_on_c, 3, 73, 0
5, 22770, Note_on_c, 3, 69, 90
5, 22793, Note_on_c, 3, 69, 0
5, 22800, Note_on_c, 3, 64, 90
5, 22823, Note_on_c, 3, 64, 0
5, 22830, Note_on_c, 3, 69, 90
5, 22853, Note_on_c, 3, 69, 0
5, 22860, Note_on_c, 3, 61, 90
5, 22883, Note_on_c, 3, 61, 0
5, 22890, Note_on_c, 3, 64, 90
5, 22913, Note_on_c, 3, 64, 0
5, 22920, Note_on_c, 3, 59, 90
5, 22967, Note_on_c, 3, 59, 0
5, 22980, Note_on_c, 3, 59, 90
5, 23027, Note_on_c, 3, 59, 0
5, 23040, Note_on_c, 3, 57, 90
5, 23087, Note_on_c, 3, 57, 0
5, 23100, Note_on_c, 3, 64, 90
5, 23147, Note_on_c, 3, 64, 0
5, 23220, Note_on_c, 3, 66, 90
5, 23243, Note_on_c, 3, 66, 0
5, 23250, Note_on_c, 3, 62, 90
5, 23273, Note_on_c, 3, 62, 0
5, 23280, Note_on_c, 3, 64, 90
5, 23327, Note_on_c, 3, 64, 0
5, 23340, Note_on_c, 3, 61, 90
5, 23387, Note_on_c, 3, 61, 0
5, 23400, Note_on_c, 3, 62, 90
5, 23447, Note_on_c, 3, 62, 0
5, 23460, Note_on_c, 3, 57, 90
5, 23507, Note_on_c, 3, 57, 0
5, 23580, Note_on_c, 3, 74, 90
5, 23603, Note_on_c, 3, 74, 0
5, 23610, Note_on_c, 3, 73, 90
5, 23633, Note_on_c, 3, 73, 0
5, 23640, Note_on_c, 3, 74, 90
5, 23687, Note_on_c, 3, 74, 0
5, 23700, Note_on_c, 3, 74, 90
5, 23747, Note_on_c, 3, 74, 0
5, 23760, Note_on_c, 3, 76, 90
5, 23807, Note_on_c, 3, 76, 0
5, 23820, Note_on_c, 3, 64, 90
5, 23867, Note_on_c, 3, 64, 0
5, 23940, Note_on_c, 3, 76, 90
5, 23963, Note_on_c, 3, 76, 0
5, 23970, Note_on_c, 3, 74, 90
5, 23993, Note_on_c, 3, 74, 0
5, 24000, Note_on_c, 3, 76, 90
5, 24047, Note_on_c, 3, 76, 0
5, 24060, Note_on_c, 3, 73, 90
5, 24107, Note_on_c, 3, 73, 0
5, 24120, Note_on_c, 3, 74, 90
5, 24167, Note_on_c, 3, 74, 0
5, 24180, Note_on_c, 3, 69, 90
5, 24227, Note_on_c, 3, 69, 0
5, 24420, Note_on_c, 3, 62, 90
5, 24467, Note_on_c, 3, 62, 0
5, 24480, Note_on_c, 3, 64, 90
5, 24527, Note_on_c, 3, 64, 0
5, 24780, Note_on_c, 3, 68, 90
5, 24827, Note_on_c, 3, 68, 0
5, 24840, Note_on_c, 3, 69, 90
5, 24887, Note_on_c, 3, 69, 0
5, 25140, Note_on_c, 3, 64, 90
5, 25187, Note_on_c, 3, 64, 0
5, 25200, Note_on_c, 3, 66, 90
5, 25247, Note_on_c, 3, 66, 0
5, 25500, Note_on_c, 3, 66, 90
5, 25547, Note_on_c, 3, 66, 0
5, 25560, Note_on_c, 3, 66, 90
5, 25607, Note_on_c, 3, 66, 0
5, 25620, Note_on_c, 3, 62, 90
5, 25667, Note_on_c, 3, 62, 0
5, 25740, Note_on_c, 3, 76, 90
5, 25787, Note_on_c, 3, 76, 0
5, 25800, Note_on_c, 3, 76, 90
5, 25847, Note_on_c, 3, 76, 0
5, 25860, Note_on_c, 3, 76, 90
5, 25907, Note_on_c, 3, 76, 0
5, 25920, Note_on_c, 3, 74, 90
5, 26015, Note_on_c, 3, 74, 0
5, 26100, Note_on_c, 3, 74, 90
5, 26147, Note_on_c, 3, 74, 0
5, 26160, Note_on_c, 3, 76, 90
5, 26207, Note_on_c, 3, 76, 0
5, 26220, Note_on_c, 3, 78, 90
5, 26267, Note_on_c, 3, 78, 0
5, 26280, Note_on_c, 3, 74, 90
5, 26327, Note_on_c, 3, 74, 0
5, 26340, Note_on_c, 3, 76, 90
5, 26387, Note_on_c, 3, 76, 0
5, 26400, Note_on_c, 3, 74, 90
5, 26447, Note_on_c, 3, 74, 0
5, 26460, Note_on_c, 3, 73, 90
5, 26507, Note_on_c, 3, 73, 0
5, 26520, Note_on_c, 3, 74, 90
5, 26567, Note_on_c, 3, 74, 0
5, 26580, Note_on_c, 3, 76, 90
5, 26627, Note_on_c, 3, 76, 0
5, 26640, Note_on_c, 3, 69, 90
5, 26687, Note_on_c, 3, 69, 0
5, 26700, Note_on_c, 3, 68, 90
5, 26747, Note_on_c, 3, 68, 0
5, 26760, Note_on_c, 3, 68, 90
5, 26807, Note_on_c, 3, 68, 0
5, 27000, Note_on_c, 3, 69, 90
5, 27030, Note_on_c, 3, 69, 0
5, 27060, Note_on_c, 3, 64, 90
5, 27090, Note_on_c, 3, 64, 0
5, 27360, Note_on_c, 3, 66, 90
5, 27390, Note_on_c, 3, 66, 0
5, 27420, Note_on_c, 3, 69, 90
5, 27450, Note_on_c, 3, 69, 0
5, 27720, Note_on_c, 3, 69, 90
5, 27750, Note_on_c, 3, 69, 0
5, 27780, Note_on_c, 3, 74, 90
5, 27810, Note_on_c, 3, 74, 0
5, 28080, Note_on_c, 3, 76, 90
5, 28110, Note_on_c, 3, 76, 0
5, 28140, Note_on_c, 3, 71, 90
5, 28170, Note_on_c, 3, 71, 0
5, 28440, Note_on_c, 3, 69, 90
5, 28470, Note_on_c, 3, 69, 0
5, 28500, Note_on_c, 3, 73, 90
5, 28530, Note_on_c, 3, 73, 0
5, 28800, Note_on_c, 3, 78, 90
5, 28830, Note_on_c, 3, 78, 0
5, 28860, Note_on_c, 3, 69, 90
5, 28890, Note_on_c, 3, 69, 0
5, 29160, Note_on_c, 3, 79, 90
5, 29190, Note_on_c, 3, 79, 0
5, 29220, Note_on_c, 3, 71, 90
5, 29250, Note_on_c, 3, 71, 0
5, 29520, Note_on_c, 3, 64, 90
5, 29550, Note_on_c, 3, 64, 0
5, 29580, Note_on_c, 3, 73, 90
5, 29610, Note_on_c, 3, 73, 0
5, 30420, Note_on_c, 3, 59, 90
5, 30467, Note_on_c, 3, 59, 0
5, 30480, Note_on_c, 3, 64, 90
5, 30527, Note_on_c, 3, 64, 0
5, 30540, Note_on_c, 3, 64, 90
5, 30587, Note_on_c, 3, 64, 0
5, 30600, Note_on_c, 3, 64, 90
5, 30647, Note_on_c, 3, 64, 0
5, 30660, Note_on_c, 3, 76, 90
5, 30707, Note_on_c, 3, 76, 0
5, 30780, Note_on_c, 3, 69, 90
5, 30827, Note_on_c, 3, 69, 0
5, 30840, Note_on_c, 3, 69, 90
5, 30887, Note_on_c, 3, 69, 0
5, 30900, Note_on_c, 3, 69, 90
5, 30947, Note_on_c, 3, 69, 0
5, 30960, Note_on_c, 3, 69, 90
5, 31007, Note_on_c, 3, 69, 0
5, 31020, Note_on_c, 3, 57, 90
5, 31067, Note_on_c, 3, 57, 0
5, 31140, Note_on_c, 3, 69, 90
5, 31187, Note_on_c, 3, 69, 0
5, 31200, Note_on_c, 3, 69, 90
5, 31247, Note_on_c, 3, 69, 0
5, 31260, Note_on_c, 3, 69, 90
5, 31307, Note_on_c, 3, 69, 0
5, 31320, Note_on_c, 3, 71, 90
5, 31367, Note_on_c, 3, 71, 0
5, 31380, Note_on_c, 3, 66, 90
5, 31427, Note_on_c, 3, 66, 0
5, 31500, Note_on_c, 3, 71, 90
5, 31547, Note_on_c, 3, 71, 0
5, 31560, Note_on_c, 3, 71, 90
5, 31607, Note_on_c, 3, 71, 0
5, 31620, Note_on_c, 3, 71, 90
5, 31667, Note_on_c, 3, 71, 0
5, 31680, Note_on_c, 3, 71, 90
5, 31727, Note_on_c, 3, 71, 0
5, 31740, Note_on_c, 3, 59, 90
5, 31787, Note_on_c, 3, 59, 0
5, 31860, Note_on_c, 3, 71, 90
5, 31907, Note_on_c, 3, 71, 0
5, 31920, Note_on_c, 3, 71, 90
5, 31967, Note_on_c, 3, 71, 0
5, 31980, Note_on_c, 3, 71, 90
5, 32027, Note_on_c, 3, 71, 0
5, 32040, Note_on_c, 3, 71, 90
5, 32135, Note_on_c, 3, 71, 0
5, 32220, Note_on_c, 3, 71, 90
5, 32267, Note_on_c, 3, 71, 0
5, 32280, Note_on_c, 3, 71, 90
5, 32327, Note_on_c, 3, 71, 0
5, 32340, Note_on_c, 3, 71, 90
5, 32387, Note_on_c, 3, 71, 0
5, 32400, Note_on_c, 3, 69, 90
5, 32447, Note_on_c, 3, 69, 0
5, 32460, Note_on_c, 3, 76, 90
5, 32507, Note_on_c, 3, 76, 0
5, 32520, Note_on_c, 3, 76, 90
5, 32567, Note_on_c, 3, 76, 0
5, 32580, Note_on_c, 3, 73, 90
5, 32627, Note_on_c, 3, 73, 0
5, 32640, Note_on_c, 3, 69, 90
5, 32687, Note_on_c, 3, 69, 0
5, 32700, Note_on_c, 3, 69, 90
5, 32747, Note_on_c, 3, 69, 0
5, 32760, Note_on_c, 3, 69, 90
5, 32807, Note_on_c, 3, 69, 0
5, 32820, Note_on_c, 3, 74, 90
5, 32867, Note_on_c, 3, 74, 0
5, 32880, Note_on_c, 3, 74, 90
5, 32927, Note_on_c, 3, 74, 0
5, 32940, Note_on_c, 3, 69, 90
5, 32987, Note_on_c, 3, 69, 0
5, 33000, Note_on_c, 3, 69, 90
5, 33047, Note_on_c, 3, 69, 0
5, 33060, Note_on_c, 3, 69, 90
5, 33107, Note_on_c, 3, 69, 0
5, 33120, Note_on_c, 3, 69, 90
5, 33167, Note_on_c, 3, 69, 0
5, 33180, Note_on_c, 3, 73, 90
5, 33227, Note_on_c, 3, 73, 0
5, 33240, Note_on_c, 3, 73, 90
5, 33287, Note_on_c, 3, 73, 0
5, 33300, Note_on_c, 3, 69, 90
5, 33347, Note_on_c, 3, 69, 0
5, 33360, Note_on_c, 3, 69, 90
5, 33407, Note_on_c, 3, 69, 0
5, 33420, Note_on_c, 3, 69, 90
5, 33467, Note_on_c, 3, 69, 0
5, 33480, Note_on_c, 3, 66, 90
5, 33527, Note_on_c, 3, 66, 0
5, 33540, Note_on_c, 3, 68, 90
5, 33587, Note_on_c, 3, 68, 0
5, 33600, Note_on_c, 3, 68, 90
5, 33647, Note_on_c, 3, 68, 0
5, 33660, Note_on_c, 3, 64, 90
5, 33707, Note_on_c, 3, 64, 0
5, 33720, Note_on_c, 3, 64, 90
5, 33767, Note_on_c, 3, 64, 0
5, 33780, Note_on_c, 3, 76, 90
5, 33803, Note_on_c, 3, 76, 0
5, 33810, Note_on_c, 3, 74, 90
5, 33833, Note_on_c, 3, 74, 0
5, 33840, Note_on_c, 3, 73, 90
5, 33887, Note_on_c, 3, 73, 0
5, 33960, Note_on_c, 3, 66, 90
5, 34007, Note_on_c, 3, 66, 0
5, 34080, Note_on_c, 3, 64, 90
5, 34127, Note_on_c, 3, 64, 0
5, 34200, Note_on_c, 3, 62, 90
5, 34247, Note_on_c, 3, 62, 0
5, 34320, Note_on_c, 3, 62, 90
5, 34367, Note_on_c, 3, 62, 0
5, 34440, Note_on_c, 3, 61, 90
5, 34487, Note_on_c, 3, 61, 0
5, 34560, Note_on_c, 3, 59, 90
5, 34607, Note_on_c, 3, 59, 0
5, 34620, Note_on_c, 3, 64, 90
5, 34667, Note_on_c, 3, 64, 0
5, 34680, Note_on_c, 3, 64, 90
5, 34727, Note_on_c, 3, 64, 0
5, 34740, Note_on_c, 3, 64, 90
5, 34787, Note_on_c, 3, 64, 0
5, 34800, Note_on_c, 3, 64, 90
5, 34847, Note_on_c, 3, 64, 0
5, 34860, Note_on_c, 3, 64, 90
5, 34907, Note_on_c, 3, 64, 0
5, 34920, Note_on_c, 3, 64, 90
5, 35015, Note_on_c, 3, 64, 0
5, 36030, Note_on_c, 3, 78, 90
5, 36053, Note_on_c, 3, 78, 0
5, 36060, Note_on_c, 3, 81, 90
5, 36083, Note_on_c, 3, 81, 0
5, 36090, Note_on_c, 3, 78, 90
5, 36113, Note_on_c, 3, 78, 0
5, 36120, Note_on_c, 3, 73, 90
5, 36143, Note_on_c, 3, 73, 0
5, 36150, Note_on_c, 3, 78, 90
5, 36173, Note_on_c, 3, 78, 0
5, 36180, Note_on_c, 3, 69, 90
5, 36203, Note_on_c, 3, 69, 0
5, 36210, Note_on_c, 3, 73, 90
5, 36233, Note_on_c, 3, 73, 0
5, 36240, Note_on_c, 3, 68, 90
5, 36287, Note_on_c, 3, 68, 0
5, 36300, Note_on_c, 3, 73, 90
5, 36347, Note_on_c, 3, 73, 0
5, 36360, Note_on_c, 3, 73, 90
5, 36407, Note_on_c, 3, 73, 0
5, 36420, Note_on_c, 3, 69, 69
5, 36467, Note_on_c, 3, 69, 0
5, 37080, Note_on_c, 3, 71, 90
5, 37440, Note_on_c, 3, 71, 0
5, 37440, Note_on_c, 3, 68, 90
5, 37980, Note_on_c, 3, 68, 0
5, 37980, Note_on_c, 3, 69, 90
5, 38003, Note_on_c, 3, 69, 0
5, 38010, Note_on_c, 3, 71, 90
5, 38033, Note_on_c, 3, 71, 0
5, 38040, Note_on_c, 3, 73, 90
5, 38063, Note_on_c, 3, 73, 0
5, 38100, Note_on_c, 3, 69, 90
5, 38123, Note_on_c, 3, 69, 0
5, 38160, Note_on_c, 3, 66, 90
5, 38303, Note_on_c, 3, 66, 0
5, 38340, Note_on_c, 3, 68, 90
5, 38363, Note_on_c, 3, 68, 0
5, 38370, Note_on_c, 3, 69, 90
5, 38393, Note_on_c, 3, 69, 0
5, 38400, Note_on_c, 3, 71, 90
5, 38423, Note_on_c, 3, 71, 0
5, 38460, Note_on_c, 3, 68, 90
5, 38483, Note_on_c, 3, 68, 0
5, 38520, Note_on_c, 3, 64, 90
5, 38663, Note_on_c, 3, 64, 0
5, 38700, Note_on_c, 3, 66, 90
5, 38723, Note_on_c, 3, 66, 0
5, 38730, Note_on_c, 3, 68, 90
5, 38753, Note_on_c, 3, 68, 0
5, 38760, Note_on_c, 3, 69, 90
5, 38783, Note_on_c, 3, 69, 0
5, 38820, Note_on_c, 3, 66, 90
5, 38843, Note_on_c, 3, 66, 0
5, 38880, Note_on_c, 3, 63, 90
5, 38999, Note_on_c, 3, 63, 0
5, 39030, Note_on_c, 3, 61, 90
5, 39053, Note_on_c, 3, 61, 0
5, 39060, Note_on_c, 3, 63, 90
5, 39083, Note_on_c, 3, 63, 0
5, 39090, Note_on_c, 3, 64, 90
5, 39113, Note_on_c, 3, 64, 0
5, 39120, Note_on_c, 3, 66, 90
5, 39167, Note_on_c, 3, 66, 0
5, 39180, Note_on_c, 3, 68, 90
5, 39275, Note_on_c, 3, 68, 0
5, 39300, Note_on_c, 3, 66, 90
5, 39347, Note_on_c, 3, 66, 0
5, 39360, Note_on_c, 3, 64, 90
5, 39407, Note_on_c, 3, 64, 0
5, 39420, Note_on_c, 3, 64, 90
5, 39467, Note_on_c, 3, 64, 0
5, 39480, Note_on_c, 3, 69, 90
5, 39527, Note_on_c, 3, 69, 0
5, 39540, Note_on_c, 3, 68, 90
5, 39587, Note_on_c, 3, 68, 0
5, 39600, Note_on_c, 3, 68, 90
5, 39695, Note_on_c, 3, 68, 0
5, 39990, Note_on_c, 3, 76, 90
5, 40013, Note_on_c, 3, 76, 0
5, 40020, Note_on_c, 3, 80, 90
5, 40043, Note_on_c, 3, 80, 0
5, 40050, Note_on_c, 3, 76, 90
5, 40073, Note_on_c, 3, 76, 0
5, 40080, Note_on_c, 3, 73, 90
5, 40103, Note_on_c, 3, 73, 0
5, 40110, Note_on_c, 3, 76, 90
5, 40133, Note_on_c, 3, 76, 0
5, 40140, Note_on_c, 3, 68, 90
5, 40163, Note_on_c, 3, 68, 0
5, 40170, Note_on_c, 3, 73, 90
5, 40193, Note_on_c, 3, 73, 0
5, 40200, Note_on_c, 3, 68, 90
5, 40247, Note_on_c, 3, 68, 0
5, 40260, Note_on_c, 3, 72, 90
5, 40307, Note_on_c, 3, 72, 0
5, 40320, Note_on_c, 3, 73, 90
5, 40367, Note_on_c, 3, 73, 0
5, 40380, Note_on_c, 3, 68, 90
5, 40427, Note_on_c, 3, 68, 0
5, 41430, Note_on_c, 3, 74, 90
5, 41453, Note_on_c, 3, 74, 0
5, 41460, Note_on_c, 3, 78, 90
5, 41483, Note_on_c, 3, 78, 0
5, 41490, Note_on_c, 3, 74, 90
5, 41513, Note_on_c, 3, 74, 0
5, 41520, Note_on_c, 3, 71, 90
5, 41543, Note_on_c, 3, 71, 0
5, 41550, Note_on_c, 3, 74, 90
5, 41573, Note_on_c, 3, 74, 0
5, 41580, Note_on_c, 3, 66, 90
5, 41603, Note_on_c, 3, 66, 0
5, 41610, Note_on_c, 3, 71, 90
5, 41633, Note_on_c, 3, 71, 0
5, 41640, Note_on_c, 3, 66, 90
5, 41687, Note_on_c, 3, 66, 0
5, 41700, Note_on_c, 3, 70, 90
5, 41747, Note_on_c, 3, 70, 0
5, 41760, Note_on_c, 3, 71, 90
5, 41807, Note_on_c, 3, 71, 0
5, 41820, Note_on_c, 3, 66, 90
5, 41867, Note_on_c, 3, 66, 0
5, 42900, Note_on_c, 3, 64, 90
5, 42923, Note_on_c, 3, 64, 0
5, 42930, Note_on_c, 3, 66, 90
5, 42953, Note_on_c, 3, 66, 0
5, 42960, Note_on_c, 3, 67, 90
5, 43007, Note_on_c, 3, 67, 0
5, 43020, Note_on_c, 3, 61, 90
5, 43067, Note_on_c, 3, 61, 0
5, 43080, Note_on_c, 3, 61, 90
5, 43127, Note_on_c, 3, 61, 0
5, 43140, Note_on_c, 3, 66, 90
5, 43187, Note_on_c, 3, 66, 0
5, 43200, Note_on_c, 3, 66, 90
5, 43343, Note_on_c, 3, 66, 0
5, 43380, Note_on_c, 3, 70, 90
5, 43427, Note_on_c, 3, 70, 0
5, 43440, Note_on_c, 3, 71, 90
5, 43487, Note_on_c, 3, 71, 0
5, 43500, Note_on_c, 3, 69, 90
5, 43547, Note_on_c, 3, 69, 0
5, 43560, Note_on_c, 3, 68, 90
5, 43703, Note_on_c, 3, 68, 0
5, 43740, Note_on_c, 3, 69, 90
5, 43763, Note_on_c, 3, 69, 0
5, 43770, Note_on_c, 3, 71, 90
5, 43793, Note_on_c, 3, 71, 0
5, 43800, Note_on_c, 3, 69, 90
5, 43847, Note_on_c, 3, 69, 0
5, 43860, Note_on_c, 3, 68, 90
5, 43907, Note_on_c, 3, 68, 0
5, 43920, Note_on_c, 3, 66, 90
5, 44063, Note_on_c, 3, 66, 0
5, 44100, Note_on_c, 3, 68, 90
5, 44123, Note_on_c, 3, 68, 0
5, 44130, Note_on_c, 3, 69, 90
5, 44153, Note_on_c, 3, 69, 0
5, 44160, Note_on_c, 3, 68, 90
5, 44207, Note_on_c, 3, 68, 0
5, 44220, Note_on_c, 3, 66, 90
5, 44267, Note_on_c, 3, 66, 0
5, 44280, Note_on_c, 3, 65, 90
5, 44327, Note_on_c, 3, 65, 0
5, 44340, Note_on_c, 3, 66, 90
5, 44387, Note_on_c, 3, 66, 0
5, 44400, Note_on_c, 3, 68, 90
5, 44447, Note_on_c, 3, 68, 0
5, 44460, Note_on_c, 3, 65, 90
5, 44507, Note_on_c, 3, 65, 0
5, 44520, Note_on_c, 3, 66, 90
5, 44567, Note_on_c, 3, 66, 0
5, 44580, Note_on_c, 3, 68, 90
5, 44675, Note_on_c, 3, 68, 0
5, 44700, Note_on_c, 3, 66, 90
5, 44723, Note_on_c, 3, 66, 0
5, 44730, Note_on_c, 3, 65, 90
5, 44753, Note_on_c, 3, 65, 0
5, 44760, Note_on_c, 3, 66, 90
5, 44807, Note_on_c, 3, 66, 0
5, 44820, Note_on_c, 3, 66, 90
5, 44867, Note_on_c, 3, 66, 0
5, 44880, Note_on_c, 3, 62, 90
5, 44927, Note_on_c, 3, 62, 0
5, 44940, Note_on_c, 3, 61, 90
5, 44987, Note_on_c, 3, 61, 0
5, 45000, Note_on_c, 3, 61, 90
5, 45095, Note_on_c, 3, 61, 0
5, 45360, Note_on_c, 3, 73, 90
5, 45407, Note_on_c, 3, 73, 0
5, 45420, Note_on_c, 3, 69, 90
5, 45467, Note_on_c, 3, 69, 0
5, 45750, Note_on_c, 3, 73, 90
5, 45773, Note_on_c, 3, 73, 0
5, 45780, Note_on_c, 3, 76, 90
5, 45803, Note_on_c, 3, 76, 0
5, 45810, Note_on_c, 3, 73, 90
5, 45833, Note_on_c, 3, 73, 0
5, 45840, Note_on_c, 3, 69, 90
5, 45863, Note_on_c, 3, 69, 0
5, 45870, Note_on_c, 3, 73, 90
5, 45893, Note_on_c, 3, 73, 0
5, 45900, Note_on_c, 3, 64, 90
5, 45923, Note_on_c, 3, 64, 0
5, 45930, Note_on_c, 3, 69, 90
5, 45953, Note_on_c, 3, 69, 0
5, 45960, Note_on_c, 3, 59, 90
5, 46007, Note_on_c, 3, 59, 0
5, 46020, Note_on_c, 3, 68, 90
5, 46067, Note_on_c, 3, 68, 0
5, 46080, Note_on_c, 3, 69, 90
5, 46127, Note_on_c, 3, 69, 0
5, 46140, Note_on_c, 3, 64, 90
5, 46187, Note_on_c, 3, 64, 0
5, 46470, Note_on_c, 3, 69, 90
5, 46493, Note_on_c, 3, 69, 0
5, 46500, Note_on_c, 3, 73, 90
5, 46523, Note_on_c, 3, 73, 0
5, 46530, Note_on_c, 3, 69, 90
5, 46553, Note_on_c, 3, 69, 0
5, 46560, Note_on_c, 3, 64, 90
5, 46583, Note_on_c, 3, 64, 0
5, 46590, Note_on_c, 3, 69, 90
5, 46613, Note_on_c, 3, 69, 0
5, 46620, Note_on_c, 3, 61, 90
5, 46643, Note_on_c, 3, 61, 0
5, 46650, Note_on_c, 3, 64, 90
5, 46673, Note_on_c, 3, 64, 0
5, 46680, Note_on_c, 3, 59, 90
5, 46727, Note_on_c, 3, 59, 0
5, 46740, Note_on_c, 3, 59, 90
5, 46787, Note_on_c, 3, 59, 0
5, 46800, Note_on_c, 3, 57, 90
5, 46847, Note_on_c, 3, 57, 0
5, 46860, Note_on_c, 3, 64, 90
5, 46907, Note_on_c, 3, 64, 0
5, 46980, Note_on_c, 3, 69, 90
5, 47027, Note_on_c, 3, 69, 0
5, 47040, Note_on_c, 3, 69, 90
5, 47087, Note_on_c, 3, 69, 0
5, 47100, Note_on_c, 3, 69, 90
5, 47147, Note_on_c, 3, 69, 0
5, 47160, Note_on_c, 3, 69, 90
5, 47255, Note_on_c, 3, 69, 0
5, 47340, Note_on_c, 3, 69, 90
5, 47387, Note_on_c, 3, 69, 0
5, 47400, Note_on_c, 3, 69, 90
5, 47447, Note_on_c, 3, 69, 0
5, 47460, Note_on_c, 3, 69, 90
5, 47507, Note_on_c, 3, 69, 0
5, 47520, Note_on_c, 3, 71, 90
5, 47567, Note_on_c, 3, 71, 0
5, 47580, Note_on_c, 3, 66, 90
5, 47627, Note_on_c, 3, 66, 0
5, 47700, Note_on_c, 3, 71, 90
5, 47747, Note_on_c, 3, 71, 0
5, 47760, Note_on_c, 3, 71, 90
5, 47807, Note_on_c, 3, 71, 0
5, 47820, Note_on_c, 3, 71, 90
5, 47867, Note_on_c, 3, 71, 0
5, 47880, Note_on_c, 3, 71, 90
5, 47927, Note_on_c, 3, 71, 0
5, 47940, Note_on_c, 3, 59, 90
5, 47987, Note_on_c, 3, 59, 0
5, 48060, Note_on_c, 3, 71, 90
5, 48107, Note_on_c, 3, 71, 0
5, 48120, Note_on_c, 3, 71, 90
5, 48167, Note_on_c, 3, 71, 0
5, 48180, Note_on_c, 3, 71, 90
5, 48227, Note_on_c, 3, 71, 0
5, 48240, Note_on_c, 3, 71, 90
5, 48335, Note_on_c, 3, 71, 0
5, 48420, Note_on_c, 3, 71, 90
5, 48467, Note_on_c, 3, 71, 0
5, 48480, Note_on_c, 3, 71, 90
5, 48527, Note_on_c, 3, 71, 0
5, 48540, Note_on_c, 3, 71, 90
5, 48587, Note_on_c, 3, 71, 0
5, 48600, Note_on_c, 3, 69, 90
5, 48647, Note_on_c, 3, 69, 0
5, 48660, Note_on_c, 3, 76, 90
5, 48707, Note_on_c, 3, 76, 0
5, 48720, Note_on_c, 3, 76, 90
5, 48767, Note_on_c, 3, 76, 0
5, 48780, Note_on_c, 3, 73, 90
5, 48827, Note_on_c, 3, 73, 0
5, 48840, Note_on_c, 3, 69, 90
5, 48887, Note_on_c, 3, 69, 0
5, 48900, Note_on_c, 3, 69, 90
5, 48947, Note_on_c, 3, 69, 0
5, 48960, Note_on_c, 3, 69, 90
5, 49007, Note_on_c, 3, 69, 0
5, 49020, Note_on_c, 3, 74, 90
5, 49067, Note_on_c, 3, 74, 0
5, 49080, Note_on_c, 3, 74, 90
5, 49127, Note_on_c, 3, 74, 0
5, 49140, Note_on_c, 3, 69, 90
5, 49187, Note_on_c, 3, 69, 0
5, 49200, Note_on_c, 3, 69, 90
5, 49247, Note_on_c, 3, 69, 0
5, 49260, Note_on_c, 3, 69, 90
5, 49307, Note_on_c, 3, 69, 0
5, 49320, Note_on_c, 3, 69, 90
5, 49367, Note_on_c, 3, 69, 0
5, 49380, Note_on_c, 3, 73, 90
5, 49427, Note_on_c, 3, 73, 0
5, 49440, Note_on_c, 3, 73, 90
5, 49487, Note_on_c, 3, 73, 0
5, 49500, Note_on_c, 3, 69, 90
5, 49547, Note_on_c, 3, 69, 0
5, 49560, Note_on_c, 3, 69, 90
5, 49607, Note_on_c, 3, 69, 0
5, 49620, Note_on_c, 3, 69, 90
5, 49667, Note_on_c, 3, 69, 0
5, 49680, Note_on_c, 3, 66, 90
5, 49727, Note_on_c, 3, 66, 0
5, 49740, Note_on_c, 3, 68, 90
5, 49787, Note_on_c, 3, 68, 0
5, 49800, Note_on_c, 3, 68, 90
5, 49847, Note_on_c, 3, 68, 0
5, 49860, Note_on_c, 3, 64, 90
5, 49907, Note_on_c, 3, 64, 0
5, 49920, Note_on_c, 3, 64, 90
5, 49967, Note_on_c, 3, 64, 0
5, 49980, Note_on_c, 3, 66, 90
5, 50003, Note_on_c, 3, 66, 0
5, 50010, Note_on_c, 3, 68, 90
5, 50033, Note_on_c, 3, 68, 0
5, 50040, Note_on_c, 3, 69, 90
5, 50087, Note_on_c, 3, 69, 0
5, 50160, Note_on_c, 3, 66, 90
5, 50207, Note_on_c, 3, 66, 0
5, 50280, Note_on_c, 3, 64, 90
5, 50327, Note_on_c, 3, 64, 0
5, 50400, Note_on_c, 3, 62, 90
5, 50447, Note_on_c, 3, 62, 0
5, 50520, Note_on_c, 3, 62, 90
5, 50567, Note_on_c, 3, 62, 0
5, 50640, Note_on_c, 3, 61, 90
5, 50687, Note_on_c, 3, 61, 0
5, 50760, Note_on_c, 3, 59, 90
5, 50807, Note_on_c, 3, 59, 0
5, 50820, Note_on_c, 3, 64, 90
5, 50867, Note_on_c, 3, 64, 0
5, 50880, Note_on_c, 3, 64, 90
5, 50927, Note_on_c, 3, 64, 0
5, 50940, Note_on_c, 3, 64, 90
5, 50987, Note_on_c, 3, 64, 0
5, 51000, Note_on_c, 3, 64, 90
5, 51047, Note_on_c, 3, 64, 0
5, 51060, Note_on_c, 3, 64, 90
5, 51107, Note_on_c, 3, 64, 0
5, 51120, Note_on_c, 3, 64, 90
5, 51215, Note_on_c, 3, 64, 0
5, 52230, Note_on_c, 3, 73, 90
5, 52253, Note_on_c, 3, 73, 0
5, 52260, Note_on_c, 3, 76, 90
5, 52283, Note_on_c, 3, 76, 0
5, 52290, Note_on_c, 3, 73, 90
5, 52313, Note_on_c, 3, 73, 0
5, 52320, Note_on_c, 3, 69, 90
5, 52343, Note_on_c, 3, 69, 0
5, 52350, Note_on_c, 3, 73, 90
5, 52373, Note_on_c, 3, 73, 0
5, 52380, Note_on_c, 3, 64, 90
5, 52403, Note_on_c, 3, 64, 0
5, 52410, Note_on_c, 3, 69, 90
5, 52433, Note_on_c, 3, 69, 0
5, 52440, Note_on_c, 3, 59, 90
5, 52487, Note_on_c, 3, 59, 0
5, 52500, Note_on_c, 3, 68, 90
5, 52547, Note_on_c, 3, 68, 0
5, 52560, Note_on_c, 3, 69, 90
5, 52607, Note_on_c, 3, 69, 0
5, 52620, Note_on_c, 3, 64, 90
5, 52667, Note_on_c, 3, 64, 0
5, 54030, Note_on_c, 3, 68, 90
5, 54053, Note_on_c, 3, 68, 0
5, 54060, Note_on_c, 3, 71, 90
5, 54083, Note_on_c, 3, 71, 0
5, 54090, Note_on_c, 3, 68, 90
5, 54113, Note_on_c, 3, 68, 0
5, 54120, Note_on_c, 3, 64, 90
5, 54143, Note_on_c, 3, 64, 0
5, 54150, Note_on_c, 3, 68, 90
5, 54173, Note_on_c, 3, 68, 0
5, 54180, Note_on_c, 3, 59, 90
5, 54203, Note_on_c, 3, 59, 0
5, 54210, Note_on_c, 3, 64, 90
5, 54233, Note_on_c, 3, 64, 0
5, 54240, Note_on_c, 3, 59, 90
5, 54287, Note_on_c, 3, 59, 0
5, 54300, Note_on_c, 3, 63, 90
5, 54347, Note_on_c, 3, 63, 0
5, 54360, Note_on_c, 3, 64, 90
5, 54407, Note_on_c, 3, 64, 0
5, 54420, Note_on_c, 3, 68, 90
5, 54467, Note_on_c, 3, 68, 0
5, 55830, Note_on_c, 3, 73, 90
5, 55853, Note_on_c, 3, 73, 0
5, 55860, Note_on_c, 3, 76, 90
5, 55883, Note_on_c, 3, 76, 0
5, 55890, Note_on_c, 3, 73, 90
5, 55913, Note_on_c, 3, 73, 0
5, 55920, Note_on_c, 3, 69, 90
5, 55943, Note_on_c, 3, 69, 0
5, 55950, Note_on_c, 3, 73, 90
5, 55973, Note_on_c, 3, 73, 0
5, 55980, Note_on_c, 3, 64, 90
5, 56003, Note_on_c, 3, 64, 0
5, 56010, Note_on_c, 3, 69, 90
5, 56033, Note_on_c, 3, 69, 0
5, 56040, Note_on_c, 3, 59, 90
5, 56087, Note_on_c, 3, 59, 0
5, 56100, Note_on_c, 3, 68, 90
5, 56147, Note_on_c, 3, 68, 0
5, 56160, Note_on_c, 3, 69, 90
5, 56207, Note_on_c, 3, 69, 0
5, 56220, Note_on_c, 3, 64, 90
5, 56267, Note_on_c, 3, 64, 0
5, 56880, Note_on_c, 3, 68, 90
5, 56910, Note_on_c, 3, 68, 0
5, 56940, Note_on_c, 3, 71, 90
5, 56970, Note_on_c, 3, 71, 0
5, 57600, Note_on_c, 3, 71, 90
5, 57630, Note_on_c, 3, 71, 0
5, 57660, Note_on_c, 3, 63, 90
5, 57690, Note_on_c, 3, 63, 0
5, 58320, Note_on_c, 3, 64, 90
5, 58350, Note_on_c, 3, 64, 0
5, 58380, Note_on_c, 3, 73, 90
5, 58410, Note_on_c, 3, 73, 0
5, 59040, Note_on_c, 3, 76, 90
5, 59070, Note_on_c, 3, 76, 0
5, 59100, Note_on_c, 3, 68, 90
5, 59130, Note_on_c, 3, 68, 0
5, 59940, Note_on_c, 3, 63, 90
5, 59987, Note_on_c, 3, 63, 0
5, 60000, Note_on_c, 3, 66, 90
5, 60047, Note_on_c, 3, 66, 0
5, 60060, Note_on_c, 3, 63, 90
5, 60107, Note_on_c, 3, 63, 0
5, 60120, Note_on_c, 3, 64, 90
5, 60167, Note_on_c, 3, 64, 0
5, 60180, Note_on_c, 3, 71, 90
5, 60227, Note_on_c, 3, 71, 0
5, 60300, Note_on_c, 3, 71, 90
5, 60347, Note_on_c, 3, 71, 0
5, 60360, Note_on_c, 3, 68, 90
5, 60407, Note_on_c, 3, 68, 0
5, 60420, Note_on_c, 3, 71, 90
5, 60467, Note_on_c, 3, 71, 0
5, 60480, Note_on_c, 3, 64, 90
5, 60527, Note_on_c, 3, 64, 0
5, 60540, Note_on_c, 3, 73, 90
5, 60587, Note_on_c, 3, 73, 0
5, 60660, Note_on_c, 3, 69, 90
5, 60707, Note_on_c, 3, 69, 0
5, 60720, Note_on_c, 3, 69, 90
5, 60767, Note_on_c, 3, 69, 0
5, 60780, Note_on_c, 3, 64, 90
5, 60827, Note_on_c, 3, 64, 0
5, 60840, Note_on_c, 3, 66, 90
5, 60887, Note_on_c, 3, 66, 0
5, 60900, Note_on_c, 3, 78, 90
5, 60947, Note_on_c, 3, 78, 0
5, 61020, Note_on_c, 3, 73, 90
5, 61067, Note_on_c, 3, 73, 0
5, 61080, Note_on_c, 3, 73, 90
5, 61127, Note_on_c, 3, 73, 0
5, 61140, Note_on_c, 3, 73, 90
5, 61187, Note_on_c, 3, 73, 0
5, 61200, Note_on_c, 3, 71, 90
5, 61247, Note_on_c, 3, 71, 0
5, 61260, Note_on_c, 3, 75, 90
5, 61307, Note_on_c, 3, 75, 0
5, 61380, Note_on_c, 3, 71, 90
5, 61427, Note_on_c, 3, 71, 0
5, 61440, Note_on_c, 3, 71, 90
5, 61487, Note_on_c, 3, 71, 0
5, 61500, Note_on_c, 3, 71, 90
5, 61547, Note_on_c, 3, 71, 0
5, 61560, Note_on_c, 3, 75, 90
5, 61607, Note_on_c, 3, 75, 0
5, 61620, Note_on_c, 3, 71, 90
5, 61667, Note_on_c, 3, 71, 0
5, 61740, Note_on_c, 3, 71, 90
5, 61787, Note_on_c, 3, 71, 0
5, 61800, Note_on_c, 3, 71, 90
5, 61847, Note_on_c, 3, 71, 0
5, 61860, Note_on_c, 3, 71, 90
5, 61907, Note_on_c, 3, 71, 0
5, 61920, Note_on_c, 3, 71, 90
5, 61967, Note_on_c, 3, 71, 0
5, 61980, Note_on_c, 3, 76, 90
5, 62027, Note_on_c, 3, 76, 0
5, 62040, Note_on_c, 3, 76, 90
5, 62087, Note_on_c, 3, 76, 0
5, 62100, Note_on_c, 3, 71, 90
5, 62147, Note_on_c, 3, 71, 0
5, 62160, Note_on_c, 3, 71, 90
5, 62207, Note_on_c, 3, 71, 0
5, 62220, Note_on_c, 3, 76, 90
5, 62267, Note_on_c, 3, 76, 0
5, 62280, Note_on_c, 3, 73, 90
5, 62327, Note_on_c, 3, 73, 0
5, 62340, Note_on_c, 3, 76, 90
5, 62387, Note_on_c, 3, 76, 0
5, 62400, Note_on_c, 3, 76, 90
5, 62447, Note_on_c, 3, 76, 0
5, 62460, Note_on_c, 3, 73, 90
5, 62507, Note_on_c, 3, 73, 0
5, 62520, Note_on_c, 3, 73, 90
5, 62567, Note_on_c, 3, 73, 0
5, 62580, Note_on_c, 3, 76, 90
5, 62627, Note_on_c, 3, 76, 0
5, 62640, Note_on_c, 3, 68, 90
5, 62687, Note_on_c, 3, 68, 0
5, 62700, Note_on_c, 3, 71, 90
5, 62747, Note_on_c, 3, 71, 0
5, 62760, Note_on_c, 3, 76, 90
5, 62807, Note_on_c, 3, 76, 0
5, 62820, Note_on_c, 3, 76, 90
5, 62867, Note_on_c, 3, 76, 0
5, 62880, Note_on_c, 3, 73, 90
5, 62927, Note_on_c, 3, 73, 0
5, 62940, Note_on_c, 3, 73, 90
5, 62987, Note_on_c, 3, 73, 0
5, 63000, Note_on_c, 3, 69, 90
5, 63047, Note_on_c, 3, 69, 0
5, 63060, Note_on_c, 3, 71, 90
5, 63107, Note_on_c, 3, 71, 0
5, 63120, Note_on_c, 3, 71, 90
5, 63167, Note_on_c, 3, 71, 0
5, 63180, Note_on_c, 3, 66, 90
5, 63227, Note_on_c, 3, 66, 0
5, 63240, Note_on_c, 3, 66, 90
5, 63287, Note_on_c, 3, 66, 0
5, 63300, Note_on_c, 3, 71, 90
5, 63347, Note_on_c, 3, 71, 0
5, 63360, Note_on_c, 3, 71, 90
5, 63407, Note_on_c, 3, 71, 0
5, 63480, Note_on_c, 3, 69, 90
5, 63527, Note_on_c, 3, 69, 0
5, 63600, Note_on_c, 3, 64, 90
5, 63647, Note_on_c, 3, 64, 0
5, 63720, Note_on_c, 3, 76, 90
5, 63767, Note_on_c, 3, 76, 0
5, 63840, Note_on_c, 3, 75, 90
5, 63887, Note_on_c, 3, 75, 0
5, 63960, Note_on_c, 3, 73, 90
5, 64007, Note_on_c, 3, 73, 0
5, 64080, Note_on_c, 3, 71, 90
5, 64127, Note_on_c, 3, 71, 0
5, 64140, Note_on_c, 3, 75, 90
5, 64187, Note_on_c, 3, 75, 0
5, 64200, Note_on_c, 3, 76, 90
5, 64247, Note_on_c, 3, 76, 0
5, 64260, Note_on_c, 3, 64, 90
5, 64283, Note_on_c, 3, 64, 0
5, 64290, Note_on_c, 3, 66, 90
5, 64313, Note_on_c, 3, 66, 0
5, 64320, Note_on_c, 3, 68, 90
5, 64367, Note_on_c, 3, 68, 0
5, 64380, Note_on_c, 3, 69, 90
5, 64427, Note_on_c, 3, 69, 0
5, 64440, Note_on_c, 3, 68, 90
5, 64487, Note_on_c, 3, 68, 0
5, 64500, Note_on_c, 3, 64, 90
5, 64547, Note_on_c, 3, 64, 0
5, 64830, Note_on_c, 3, 80, 90
5, 64853, Note_on_c, 3, 80, 0
5, 64860, Note_on_c, 3, 83, 90
5, 64883, Note_on_c, 3, 83, 0
5, 64890, Note_on_c, 3, 80, 90
5, 64913, Note_on_c, 3, 80, 0
5, 64920, Note_on_c, 3, 76, 90
5, 64943, Note_on_c, 3, 76, 0
5, 64950, Note_on_c, 3, 80, 90
5, 64973, Note_on_c, 3, 80, 0
5, 64980, Note_on_c, 3, 71, 90
5, 65003, Note_on_c, 3, 71, 0
5, 65010, Note_on_c, 3, 76, 90
5, 65033, Note_on_c, 3, 76, 0
5, 65040, Note_on_c, 3, 66, 90
5, 65087, Note_on_c, 3, 66, 0
5, 65100, Note_on_c, 3, 75, 90
5, 65147, Note_on_c, 3, 75, 0
5, 65160, Note_on_c, 3, 76, 90
5, 65207, Note_on_c, 3, 76, 0
5, 65220, Note_on_c, 3, 71, 90
5, 65267, Note_on_c, 3, 71, 0
5, 65550, Note_on_c, 3, 76, 90
5, 65573, Note_on_c, 3, 76, 0
5, 65580, Note_on_c, 3, 80, 90
5, 65603, Note_on_c, 3, 80, 0
5, 65610, Note_on_c, 3, 76, 90
5, 65633, Note_on_c, 3, 76, 0
5, 65640, Note_on_c, 3, 71, 90
5, 65663, Note_on_c, 3, 71, 0
5, 65670, Note_on_c, 3, 76, 90
5, 65693, Note_on_c, 3, 76, 0
5, 65700, Note_on_c, 3, 68, 90
5, 65723, Note_on_c, 3, 68, 0
5, 65730, Note_on_c, 3, 71, 90
5, 65753, Note_on_c, 3, 71, 0
5, 65760, Note_on_c, 3, 66, 90
5, 65807, Note_on_c, 3, 66, 0
5, 65820, Note_on_c, 3, 66, 90
5, 65867, Note_on_c, 3, 66, 0
5, 65880, Note_on_c, 3, 64, 90
5, 65927, Note_on_c, 3, 64, 0
5, 65940, Note_on_c, 3, 59, 90
5, 65987, Note_on_c, 3, 59, 0
5, 66060, Note_on_c, 3, 73, 90
5, 66083, Note_on_c, 3, 73, 0
5, 66090, Note_on_c, 3, 69, 90
5, 66113, Note_on_c, 3, 69, 0
5, 66120, Note_on_c, 3, 71, 90
5, 66167, Note_on_c, 3, 71, 0
5, 66180, Note_on_c, 3, 68, 90
5, 66227, Note_on_c, 3, 68, 0
5, 66240, Note_on_c, 3, 69, 90
5, 66287, Note_on_c, 3, 69, 0
5, 66300, Note_on_c, 3, 64, 90
5, 66347, Note_on_c, 3, 64, 0
5, 66420, Note_on_c, 3, 69, 90
5, 66443, Note_on_c, 3, 69, 0
5, 66450, Note_on_c, 3, 68, 90
5, 66473, Note_on_c, 3, 68, 0
5, 66480, Note_on_c, 3, 69, 90
5, 66527, Note_on_c, 3, 69, 0
5, 66540, Note_on_c, 3, 69, 90
5, 66587, Note_on_c, 3, 69, 0
5, 66600, Note_on_c, 3, 71, 90
5, 66647, Note_on_c, 3, 71, 0
5, 66660, Note_on_c, 3, 59, 90
5, 66707, Note_on_c, 3, 59, 0
5, 66780, Note_on_c, 3, 71, 90
5, 66803, Note_on_c, 3, 71, 0
5, 66810, Note_on_c, 3, 69, 90
5, 66833, Note_on_c, 3, 69, 0
5, 66840, Note_on_c, 3, 71, 90
5, 66887, Note_on_c, 3, 71, 0
5, 66900, Note_on_c, 3, 68, 90
5, 66947, Note_on_c, 3, 68, 0
5, 66960, Note_on_c, 3, 64, 90
5, 67007, Note_on_c, 3, 64, 0
5, 67020, Note_on_c, 3, 61, 90
5, 67067, Note_on_c, 3, 61, 0
5, 67350, Note_on_c, 3, 73, 90
5, 67373, Note_on_c, 3, 73, 0
5, 67380, Note_on_c, 3, 76, 90
5, 67403, Note_on_c, 3, 76, 0
5, 67410, Note_on_c, 3, 73, 90
5, 67433, Note_on_c, 3, 73, 0
5, 67440, Note_on_c, 3, 69, 90
5, 67463, Note_on_c, 3, 69, 0
5, 67470, Note_on_c, 3, 73, 90
5, 67493, Note_on_c, 3, 73, 0
5, 67500, Note_on_c, 3, 64, 90
5, 67523, Note_on_c, 3, 64, 0
5, 67530, Note_on_c, 3, 69, 90
5, 67553, Note_on_c, 3, 69, 0
5, 67560, Note_on_c, 3, 59, 90
5, 67607, Note_on_c, 3, 59, 0
5, 67620, Note_on_c, 3, 68, 90
5, 67667, Note_on_c, 3, 68, 0
5, 67680, Note_on_c, 3, 69, 90
5, 67727, Note_on_c, 3, 69, 0
5, 67740, Note_on_c, 3, 64, 90
5, 67787, Note_on_c, 3, 64, 0
5, 68070, Note_on_c, 3, 69, 90
5, 68093, Note_on_c, 3, 69, 0
5, 68100, Note_on_c, 3, 73, 90
5, 68123, Note_on_c, 3, 73, 0
5, 68130, Note_on_c, 3, 69, 90
5, 68153, Note_on_c, 3, 69, 0
5, 68160, Note_on_c, 3, 64, 90
5, 68183, Note_on_c, 3, 64, 0
5, 68190, Note_on_c, 3, 69, 90
5, 68213, Note_on_c, 3, 69, 0
5, 68220, Note_on_c, 3, 61, 90
5, 68243, Note_on_c, 3, 61, 0
5, 68250, Note_on_c, 3, 64, 90
5, 68273, Note_on_c, 3, 64, 0
5, 68280, Note_on_c, 3, 59, 90
5, 68327, Note_on_c, 3, 59, 0
5, 68340, Note_on_c, 3, 59, 90
5, 68387, Note_on_c, 3, 59, 0
5, 68400, Note_on_c, 3, 57, 90
5, 68447, Note_on_c, 3, 57, 0
5, 68460, Note_on_c, 3, 64, 90
5, 68507, Note_on_c, 3, 64, 0
5, 68580, Note_on_c, 3, 66, 90
5, 68603, Note_on_c, 3, 66, 0
5, 68610, Note_on_c, 3, 62, 90
5, 68633, Note_on_c, 3, 62, 0
5, 68640, Note_on_c, 3, 64, 90
5, 68687, Note_on_c, 3, 64, 0
5, 68700, Note_on_c, 3, 61, 90
5, 68747, Note_on_c, 3, 61, 0
5, 68760, Note_on_c, 3, 62, 90
5, 68807, Note_on_c, 3, 62, 0
5, 68820, Note_on_c, 3, 57, 90
5, 68867, Note_on_c, 3, 57, 0
5, 68940, Note_on_c, 3, 74, 90
5, 68963, Note_on_c, 3, 74, 0
5, 68970, Note_on_c, 3, 73, 90
5, 68993, Note_on_c, 3, 73, 0
5, 69000, Note_on_c, 3, 74, 90
5, 69047, Note_on_c, 3, 74, 0
5, 69060, Note_on_c, 3, 74, 90
5, 69107, Note_on_c, 3, 74, 0
5, 69120, Note_on_c, 3, 76, 90
5, 69167, Note_on_c, 3, 76, 0
5, 69180, Note_on_c, 3, 64, 90
5, 69227, Note_on_c, 3, 64, 0
5, 69300, Note_on_c, 3, 76, 90
5, 69323, Note_on_c, 3, 76, 0
5, 69330, Note_on_c, 3, 74, 90
5, 69353, Note_on_c, 3, 74, 0
5, 69360, Note_on_c, 3, 76, 90
5, 69407, Note_on_c, 3, 76, 0
5, 69420, Note_on_c, 3, 73, 90
5, 69467, Note_on_c, 3, 73, 0
5, 69480, Note_on_c, 3, 74, 90
5, 69527, Note_on_c, 3, 74, 0
5, 69540, Note_on_c, 3, 69, 90
5, 69587, Note_on_c, 3, 69, 0
5, 69780, Note_on_c, 3, 62, 90
5, 69827, Note_on_c, 3, 62, 0
5, 69840, Note_on_c, 3, 64, 90
5, 69887, Note_on_c, 3, 64, 0
5, 70140, Note_on_c, 3, 68, 90
5, 70187, Note_on_c, 3, 68, 0
5, 70200, Note_on_c, 3, 69, 90
5, 70247, Note_on_c, 3, 69, 0
5, 70500, Note_on_c, 3, 64, 90
5, 70547, Note_on_c, 3, 64, 0
5, 70560, Note_on_c, 3, 66, 90
5, 70607, Note_on_c, 3, 66, 0
5, 70860, Note_on_c, 3, 66, 90
5, 70907, Note_on_c, 3, 66, 0
5, 70920, Note_on_c, 3, 66, 90
5, 70967, Note_on_c, 3, 66, 0
5, 70980, Note_on_c, 3, 62, 90
5, 71027, Note_on_c, 3, 62, 0
5, 71100, Note_on_c, 3, 76, 90
5, 71147, Note_on_c, 3, 76, 0
5, 71160, Note_on_c, 3, 76, 90
5, 71207, Note_on_c, 3, 76, 0
5, 71220, Note_on_c, 3, 76, 90
5, 71267, Note_on_c, 3, 76, 0
5, 71280, Note_on_c, 3, 74, 90
5, 71375, Note_on_c, 3, 74, 0
5, 71460, Note_on_c, 3, 74, 90
5, 71507, Note_on_c, 3, 74, 0
5, 71520, Note_on_c, 3, 76, 90
5, 71567, Note_on_c, 3, 76, 0
5, 71580, Note_on_c, 3, 78, 90
5, 71627, Note_on_c, 3, 78, 0
5, 71640, Note_on_c, 3, 74, 90
5, 71687, Note_on_c, 3, 74, 0
5, 71700, Note_on_c, 3, 76, 90
5, 71747, Note_on_c, 3, 76, 0
5, 71760, Note_on_c, 3, 74, 90
5, 71807, Note_on_c, 3, 74, 0
5, 71820, Note_on_c, 3, 73, 90
5, 71867, Note_on_c, 3, 73, 0
5, 71880, Note_on_c, 3, 74, 90
5, 71927, Note_on_c, 3, 74, 0
5, 71940, Note_on_c, 3, 76, 90
5, 71987, Note_on_c, 3, 76, 0
5, 72000, Note_on_c, 3, 69, 90
5, 72047, Note_on_c, 3, 69, 0
5, 72060, Note_on_c, 3, 68, 90
5, 72107, Note_on_c, 3, 68, 0
5, 72120, Note_on_c, 3, 68, 90
5, 72167, Note_on_c, 3, 68, 0
5, 72360, Note_on_c, 3, 69, 90
5, 72390, Note_on_c, 3, 69, 0
5, 72420, Note_on_c, 3, 64, 90
5, 72450, Note_on_c, 3, 64, 0
5, 72720, Note_on_c, 3, 66, 90
5, 72750, Note_on_c, 3, 66, 0
5, 72780, Note_on_c, 3, 69, 90
5, 72810, Note_on_c, 3, 69, 0
5, 73080, Note_on_c, 3, 69, 90
5, 73110, Note_on_c, 3, 69, 0
5, 73140, Note_on_c, 3, 74, 90
5, 73170, Note_on_c, 3, 74, 0
5, 73440, Note_on_c, 3, 76, 90
5, 73470, Note_on_c, 3, 76, 0
5, 73500, Note_on_c, 3, 71, 90
5, 73530, Note_on_c, 3, 71, 0
5, 73800, Note_on_c, 3, 69, 90
5, 73830, Note_on_c, 3, 69, 0
5, 73860, Note_on_c, 3, 73, 90
5, 73890, Note_on_c, 3, 73, 0
5, 74160, Note_on_c, 3, 78, 90
5, 74190, Note_on_c, 3, 78, 0
5, 74220, Note_on_c, 3, 69, 90
5, 74250, Note_on_c, 3, 69, 0
5, 74520, Note_on_c, 3, 79, 90
5, 74550, Note_on_c, 3, 79, 0
5, 74580, Note_on_c, 3, 71, 90
5, 74610, Note_on_c, 3, 71, 0
5, 74880, Note_on_c, 3, 64, 90
5, 74910, Note_on_c, 3, 64, 0
5, 74940, Note_on_c, 3, 73, 90
5, 74970, Note_on_c, 3, 73, 0
5, 75780, Note_on_c, 3, 59, 90
5, 75827, Note_on_c, 3, 59, 0
5, 75840, Note_on_c, 3, 64, 90
5, 75887, Note_on_c, 3, 64, 0
5, 75900, Note_on_c, 3, 64, 90
5, 75947, Note_on_c, 3, 64, 0
5, 75960, Note_on_c, 3, 64, 90
5, 76007, Note_on_c, 3, 64, 0
5, 76020, Note_on_c, 3, 76, 90
5, 76067, Note_on_c, 3, 76, 0
5, 76140, Note_on_c, 3, 69, 90
5, 76187, Note_on_c, 3, 69, 0
5, 76200, Note_on_c, 3, 69, 90
5, 76247, Note_on_c, 3, 69, 0
5, 76260, Note_on_c, 3, 69, 90
5, 76307, Note_on_c, 3, 69, 0
5, 76320, Note_on_c, 3, 69, 90
5, 76367, Note_on_c, 3, 69, 0
5, 76380, Note_on_c, 3, 57, 90
5, 76427, Note_on_c, 3, 57, 0
5, 76500, Note_on_c, 3, 69, 90
5, 76547, Note_on_c, 3, 69, 0
5, 76560, Note_on_c, 3, 69, 90
5, 76607, Note_on_c, 3, 69, 0
5, 76620, Note_on_c, 3, 69, 90
5, 76667, Note_on_c, 3, 69, 0
5, 76680, Note_on_c, 3, 71, 90
5, 76727, Note_on_c, 3, 71, 0
5, 76740, Note_on_c, 3, 66, 90
5, 76787, Note_on_c, 3, 66, 0
5, 76860, Note_on_c, 3, 71, 90
5, 76907, Note_on_c, 3, 71, 0
5, 76920, Note_on_c, 3, 71, 90
5, 76967, Note_on_c, 3, 71, 0
5, 76980, Note_on_c, 3, 71, 90
5, 77027, Note_on_c, 3, 71, 0
5, 77040, Note_on_c, 3, 71, 90
5, 77087, Note_on_c, 3, 71, 0
5, 77100, Note_on_c, 3, 59, 90
5, 77147, Note_on_c, 3, 59, 0
5, 77220, Note_on_c, 3, 71, 90
5, 77267, Note_on_c, 3, 71, 0
5, 77280, Note_on_c, 3, 71, 90
5, 77327, Note_on_c, 3, 71, 0
5, 77340, Note_on_c, 3, 71, 90
5, 77387, Note_on_c, 3, 71, 0
5, 77400, Note_on_c, 3, 71, 90
5, 77495, Note_on_c, 3, 71, 0
5, 77580, Note_on_c, 3, 71, 90
5, 77627, Note_on_c, 3, 71, 0
5, 77640, Note_on_c, 3, 71, 90
5, 77687, Note_on_c, 3, 71, 0
5, 77700, Note_on_c, 3, 71, 90
5, 77747, Note_on_c, 3, 71, 0
5, 77760, Note_on_c, 3, 69, 90
5, 77807, Note_on_c, 3, 69, 0
5, 77820, Note_on_c, 3, 76, 90
5, 77867, Note_on_c, 3, 76, 0
5, 77880, Note_on_c, 3, 76, 90
5, 77927, Note_on_c, 3, 76, 0
5, 77940, Note_on_c, 3, 73, 90
5, 77987, Note_on_c, 3, 73, 0
5, 78000, Note_on_c, 3, 69, 90
5, 78047, Note_on_c, 3, 69, 0
5, 78060, Note_on_c, 3, 69, 90
5, 78107, Note_on_c, 3, 69, 0
5, 78120, Note_on_c, 3, 69, 90
5, 78167, Note_on_c, 3, 69, 0
5, 78180, Note_on_c, 3, 74, 90
5, 78227, Note_on_c, 3, 74, 0
5, 78240, Note_on_c, 3, 74, 90
5, 78287, Note_on_c, 3, 74, 0
5, 78300, Note_on_c, 3, 69, 90
5, 78347, Note_on_c, 3, 69, 0
5, 78360, Note_on_c, 3, 69, 90
5, 78407, Note_on_c, 3, 69, 0
5, 78420, Note_on_c, 3, 69, 90
5, 78467, Note_on_c, 3, 69, 0
5, 78480, Note_on_c, 3, 69, 90
5, 78527, Note_on_c, 3, 69, 0
5, 78540, Note_on_c, 3, 73, 90
5, 78587, Note_on_c, 3, 73, 0
5, 78600, Note_on_c, 3, 73, 90
5, 78647, Note_on_c, 3, 73, 0
5, 78660, Note_on_c, 3, 69, 90
5, 78707, Note_on_c, 3, 69, 0
5, 78720, Note_on_c, 3, 69, 90
5, 78767, Note_on_c, 3, 69, 0
5, 78780, Note_on_c, 3, 69, 90
5, 78827, Note_on_c, 3, 69, 0
5, 78840, Note_on_c, 3, 66, 90
5, 78887, Note_on_c, 3, 66, 0
5, 78900, Note_on_c, 3, 68, 90
5, 78947, Note_on_c, 3, 68, 0
5, 78960, Note_on_c, 3, 68, 90
5, 79007, Note_on_c, 3, 68, 0
5, 79020, Note_on_c, 3, 64, 90
5, 79067, Note_on_c, 3, 64, 0
5, 79080, Note_on_c, 3, 64, 90
5, 79127, Note_on_c, 3, 64, 0
5, 79140, Note_on_c, 3, 76, 90
5, 79163, Note_on_c, 3, 76, 0
5, 79170, Note_on_c, 3, 74, 90
5, 79193, Note_on_c, 3, 74, 0
5, 79200, Note_on_c, 3, 73, 90
5, 79247, Note_on_c, 3, 73, 0
5, 79320, Note_on_c, 3, 66, 90
5, 79367, Note_on_c, 3, 66, 0
5, 79440, Note_on_c, 3, 64, 90
5, 79487, Note_on_c, 3, 64, 0
5, 79560, Note_on_c, 3, 62, 90
5, 79607, Note_on_c, 3, 62, 0
5, 79680, Note_on_c, 3, 62, 90
5, 79727, Note_on_c, 3, 62, 0
5, 79800, Note_on_c, 3, 61, 90
5, 79847, Note_on_c, 3, 61, 0
5, 79920, Note_on_c, 3, 59, 90
5, 79967, Note_on_c, 3, 59, 0
5, 79980, Note_on_c, 3, 64, 90
5, 80027, Note_on_c, 3, 64, 0
5, 80040, Note_on_c, 3, 64, 90
5, 80087, Note_on_c, 3, 64, 0
5, 80100, Note_on_c, 3, 64, 90
5, 80147, Note_on_c, 3, 64, 0
5, 80160, Note_on_c, 3, 64, 90
5, 80207, Note_on_c, 3, 64, 0
5, 80220, Note_on_c, 3, 64, 90
5, 80267, Note_on_c, 3, 64, 0
5, 80280, Note_on_c, 3, 64, 90
5, 80375, Note_on_c, 3, 64, 0
5, 83880, Note_on_c, 3, 71, 90
5, 83975, Note_on_c, 3, 71, 0
5, 84120, Note_on_c, 3, 73, 90
5, 84215, Note_on_c, 3, 73, 0
5, 84300, Note_on_c, 3, 71, 90
5, 84347, Note_on_c, 3, 71, 0
5, 84360, Note_on_c, 3, 74, 90
5, 84407, Note_on_c, 3, 74, 0
5, 84420, Note_on_c, 3, 71, 90
5, 84467, Note_on_c, 3, 71, 0
5, 84480, Note_on_c, 3, 71, 90
5, 84527, Note_on_c, 3, 71, 0
5, 84540, Note_on_c, 3, 67, 90
5, 84587, Note_on_c, 3, 67, 0
5, 84600, Note_on_c, 3, 66, 90
5, 84647, Note_on_c, 3, 66, 0
5, 84660, Note_on_c, 3, 67, 90
5, 84683, Note_on_c, 3, 67, 0
5, 84690, Note_on_c, 3, 69, 90
5, 84713, Note_on_c, 3, 69, 0
5, 84720, Note_on_c, 3, 71, 90
5, 84767, Note_on_c, 3, 71, 0
5, 84780, Note_on_c, 3, 67, 90
5, 84827, Note_on_c, 3, 67, 0
5, 84840, Note_on_c, 3, 76, 90
5, 84935, Note_on_c, 3, 76, 0
5, 85020, Note_on_c, 3, 69, 90
5, 85067, Note_on_c, 3, 69, 0
5, 85080, Note_on_c, 3, 73, 90
5, 85127, Note_on_c, 3, 73, 0
5, 85140, Note_on_c, 3, 69, 90
5, 85187, Note_on_c, 3, 69, 0
5, 85200, Note_on_c, 3, 69, 90
5, 85247, Note_on_c, 3, 69, 0
5, 85260, Note_on_c, 3, 66, 90
5, 85307, Note_on_c, 3, 66, 0
5, 85320, Note_on_c, 3, 64, 90
5, 85367, Note_on_c, 3, 64, 0
5, 85380, Note_on_c, 3, 66, 90
5, 85403, Note_on_c, 3, 66, 0
5, 85410, Note_on_c, 3, 67, 90
5, 85433, Note_on_c, 3, 67, 0
5, 85440, Note_on_c, 3, 69, 90
5, 85487, Note_on_c, 3, 69, 0
5, 85500, Note_on_c, 3, 66, 90
5, 85547, Note_on_c, 3, 66, 0
5, 85560, Note_on_c, 3, 74, 90
5, 85655, Note_on_c, 3, 74, 0
5, 85740, Note_on_c, 3, 71, 90
5, 85787, Note_on_c, 3, 71, 0
5, 85800, Note_on_c, 3, 69, 90
5, 85847, Note_on_c, 3, 69, 0
5, 85860, Note_on_c, 3, 72, 90
5, 85907, Note_on_c, 3, 72, 0
5, 85920, Note_on_c, 3, 71, 80
5, 86640, Note_on_c, 3, 71, 0
5, 86640, Note_on_c, 3, 72, 80
5, 86880, Note_on_c, 3, 72, 0
5, 86880, Note_on_c, 3, 69, 80
5, 87000, Note_on_c, 3, 69, 0
5, 87240, Note_on_c, 3, 72, 90
5, 87300, Note_on_c, 3, 72, 0
5, 87300, Note_on_c, 3, 71, 90
5, 87360, Note_on_c, 3, 71, 0
5, 87360, Note_on_c, 3, 69, 90
5, 87420, Note_on_c, 3, 69, 0
5, 87420, Note_on_c, 3, 67, 90
5, 87480, Note_on_c, 3, 67, 0
5, 87900, Note_on_c, 3, 66, 90
5, 87947, Note_on_c, 3, 66, 0
5, 87960, Note_on_c, 3, 66, 90
5, 88007, Note_on_c, 3, 66, 0
5, 88020, Note_on_c, 3, 67, 90
5, 88067, Note_on_c, 3, 67, 0
5, 88080, Note_on_c, 3, 69, 90
5, 88127, Note_on_c, 3, 69, 0
5, 88140, Note_on_c, 3, 69, 90
5, 88187, Note_on_c, 3, 69, 0
5, 88200, Note_on_c, 3, 69, 90
5, 88247, Note_on_c, 3, 69, 0
5, 88260, Note_on_c, 3, 71, 90
5, 88307, Note_on_c, 3, 71, 0
5, 88320, Note_on_c, 3, 73, 90
5, 88367, Note_on_c, 3, 73, 0
5, 88380, Note_on_c, 3, 73, 90
5, 88427, Note_on_c, 3, 73, 0
5, 88440, Note_on_c, 3, 73, 90
5, 88487, Note_on_c, 3, 73, 0
5, 88500, Note_on_c, 3, 75, 90
5, 88547, Note_on_c, 3, 75, 0
5, 88560, Note_on_c, 3, 76, 90
5, 88607, Note_on_c, 3, 76, 0
5, 88620, Note_on_c, 3, 71, 90
5, 88667, Note_on_c, 3, 71, 0
5, 88680, Note_on_c, 3, 69, 90
5, 88727, Note_on_c, 3, 69, 0
5, 88740, Note_on_c, 3, 67, 90
5, 88787, Note_on_c, 3, 67, 0
5, 88800, Note_on_c, 3, 66, 90
5, 88847, Note_on_c, 3, 66, 0
5, 88860, Note_on_c, 3, 69, 90
5, 88907, Note_on_c, 3, 69, 0
5, 88920, Note_on_c, 3, 69, 90
5, 88967, Note_on_c, 3, 69, 0
5, 88980, Note_on_c, 3, 71, 90
5, 89027, Note_on_c, 3, 71, 0
5, 89040, Note_on_c, 3, 64, 90
5, 89087, Note_on_c, 3, 64, 0
5, 89100, Note_on_c, 3, 69, 90
5, 89147, Note_on_c, 3, 69, 0
5, 89160, Note_on_c, 3, 69, 90
5, 89207, Note_on_c, 3, 69, 0
5, 89220, Note_on_c, 3, 69, 90
5, 89267, Note_on_c, 3, 69, 0
5, 89280, Note_on_c, 3, 67, 90
5, 89327, Note_on_c, 3, 67, 0
5, 89340, Note_on_c, 3, 67, 90
5, 89387, Note_on_c, 3, 67, 0
5, 89400, Note_on_c, 3, 68, 90
5, 89447, Note_on_c, 3, 68, 0
5, 89460, Note_on_c, 3, 70, 90
5, 89507, Note_on_c, 3, 70, 0
5, 89520, Note_on_c, 3, 71, 90
5, 89567, Note_on_c, 3, 71, 0
5, 89580, Note_on_c, 3, 66, 90
5, 89627, Note_on_c, 3, 66, 0
5, 89640, Note_on_c, 3, 66, 90
5, 89687, Note_on_c, 3, 66, 0
5, 89700, Note_on_c, 3, 68, 90
5, 89747, Note_on_c, 3, 68, 0
5, 89760, Note_on_c, 3, 69, 90
5, 89807, Note_on_c, 3, 69, 0
5, 89820, Note_on_c, 3, 69, 90
5, 89867, Note_on_c, 3, 69, 0
5, 89880, Note_on_c, 3, 67, 90
5, 89927, Note_on_c, 3, 67, 0
5, 89940, Note_on_c, 3, 66, 90
5, 89987, Note_on_c, 3, 66, 0
5, 90000, Note_on_c, 3, 67, 90
5, 90047, Note_on_c, 3, 67, 0
5, 90060, Note_on_c, 3, 71, 90
5, 90155, Note_on_c, 3, 71, 0
5, 90180, Note_on_c, 3, 70, 90
5, 90227, Note_on_c, 3, 70, 0
5, 90240, Note_on_c, 3, 71, 90
5, 90287, Note_on_c, 3, 71, 0
5, 90300, Note_on_c, 3, 69, 90
5, 90347, Note_on_c, 3, 69, 0
5, 90360, Note_on_c, 3, 68, 90
5, 90455, Note_on_c, 3, 68, 0
5, 90480, Note_on_c, 3, 69, 90
5, 90527, Note_on_c, 3, 69, 0
5, 90540, Note_on_c, 3, 66, 90
5, 90587, Note_on_c, 3, 66, 0
5, 90600, Note_on_c, 3, 69, 90
5, 90647, Note_on_c, 3, 69, 0
5, 90660, Note_on_c, 3, 68, 90
5, 90707, Note_on_c, 3, 68, 0
5, 90720, Note_on_c, 3, 66, 90
5, 90863, Note_on_c, 3, 66, 0
5, 90900, Note_on_c, 3, 64, 90
5, 90947, Note_on_c, 3, 64, 0
5, 90960, Note_on_c, 3, 62, 90
5, 91007, Note_on_c, 3, 62, 0
5, 91020, Note_on_c, 3, 64, 90
5, 91067, Note_on_c, 3, 64, 0
5, 91080, Note_on_c, 3, 66, 90
5, 91127, Note_on_c, 3, 66, 0
5, 91140, Note_on_c, 3, 64, 90
5, 91187, Note_on_c, 3, 64, 0
5, 91200, Note_on_c, 3, 64, 90
5, 91295, Note_on_c, 3, 64, 0
5, 91320, Note_on_c, 3, 64, 90
5, 91367, Note_on_c, 3, 64, 0
5, 91380, Note_on_c, 3, 64, 90
5, 91427, Note_on_c, 3, 64, 0
5, 91440, Note_on_c, 3, 66, 90
5, 91487, Note_on_c, 3, 66, 0
5, 91500, Note_on_c, 3, 67, 90
5, 91547, Note_on_c, 3, 67, 0
5, 91560, Note_on_c, 3, 69, 90
5, 91607, Note_on_c, 3, 69, 0
5, 91620, Note_on_c, 3, 67, 90
5, 91643, Note_on_c, 3, 67, 0
5, 91650, Note_on_c, 3, 66, 90
5, 91673, Note_on_c, 3, 66, 0
5, 91680, Note_on_c, 3, 71, 90
5, 91919, Note_on_c, 3, 71, 0
5, 91980, Note_on_c, 3, 70, 90
5, 92027, Note_on_c, 3, 70, 0
5, 92040, Note_on_c, 3, 71, 90
5, 92087, Note_on_c, 3, 71, 0
5, 92100, Note_on_c, 3, 74, 90
5, 92195, Note_on_c, 3, 74, 0
5, 92220, Note_on_c, 3, 73, 90
5, 92243, Note_on_c, 3, 73, 0
5, 92250, Note_on_c, 3, 71, 90
5, 92273, Note_on_c, 3, 71, 0
5, 92280, Note_on_c, 3, 73, 90
5, 92303, Note_on_c, 3, 73, 0
5, 92310, Note_on_c, 3, 70, 90
5, 92333, Note_on_c, 3, 70, 0
5, 92340, Note_on_c, 3, 71, 90
5, 92387, Note_on_c, 3, 71, 0
5, 92400, Note_on_c, 3, 70, 80
5, 92520, Note_on_c, 3, 70, 0
5, 92520, Note_on_c, 3, 73, 80
5, 93120, Note_on_c, 3, 73, 0
5, 93120, Note_on_c, 3, 71, 80
5, 93479, Note_on_c, 3, 71, 0
5, 93480, Note_on_c, 3, 69, 80
5, 93599, Note_on_c, 3, 69, 0
5, 93600, Note_on_c, 3, 69, 80
5, 94319, Note_on_c, 3, 69, 0
5, 94320, Note_on_c, 3, 66, 80
5, 94799, Note_on_c, 3, 66, 0
5, 94800, Note_on_c, 3, 67, 80
5, 95400, Note_on_c, 3, 67, 0
5, 95400, Note_on_c, 3, 64, 80
5, 95520, Note_on_c, 3, 64, 0
5, 95520, Note_on_c, 3, 66, 80
5, 95759, Note_on_c, 3, 66, 0
5, 95760, Note_on_c, 3, 71, 80
5, 95999, Note_on_c, 3, 71, 0
5, 96000, Note_on_c, 3, 68, 80
5, 96239, Note_on_c, 3, 68, 0
5, 96240, Note_on_c, 3, 66, 80
5, 96599, Note_on_c, 3, 66, 0
5, 96600, Note_on_c, 3, 63, 80
5, 96719, Note_on_c, 3, 63, 0
5, 96720, Note_on_c, 3, 61, 80
5, 96839, Note_on_c, 3, 61, 0
5, 96840, Note_on_c, 3, 73, 80
5, 97079, Note_on_c, 3, 73, 0
5, 97080, Note_on_c, 3, 71, 80
5, 97199, Note_on_c, 3, 71, 0
5, 97200, Note_on_c, 3, 73, 80
5, 97439, Note_on_c, 3, 73, 0
5, 97800, Note_on_c, 3, 66, 90
5, 97919, Note_on_c, 3, 66, 0
5, 97920, Note_on_c, 3, 64, 90
5, 97979, Note_on_c, 3, 64, 0
5, 97980, Note_on_c, 3, 66, 90
5, 98039, Note_on_c, 3, 66, 0
5, 98040, Note_on_c, 3, 68, 90
5, 98099, Note_on_c, 3, 68, 0
5, 98100, Note_on_c, 3, 69, 90
5, 98159, Note_on_c, 3, 69, 0
5, 98160, Note_on_c, 3, 71, 90
5, 98279, Note_on_c, 3, 71, 0
5, 98280, Note_on_c, 3, 64, 90
5, 98399, Note_on_c, 3, 64, 0
5, 98400, Note_on_c, 3, 63, 90
5, 98519, Note_on_c, 3, 63, 0
5, 98520, Note_on_c, 3, 64, 90
5, 98639, Note_on_c, 3, 64, 0
5, 98640, Note_on_c, 3, 62, 90
5, 98699, Note_on_c, 3, 62, 0
5, 98700, Note_on_c, 3, 69, 90
5, 98759, Note_on_c, 3, 69, 0
5, 98760, Note_on_c, 3, 68, 90
5, 98880, Note_on_c, 3, 68, 0
5, 98880, Note_on_c, 3, 64, 90
5, 99119, Note_on_c, 3, 64, 0
5, 99240, Note_on_c, 3, 66, 90
5, 99359, Note_on_c, 3, 66, 0
5, 99360, Note_on_c, 3, 66, 90
5, 99479, Note_on_c, 3, 66, 0
5, 99480, Note_on_c, 3, 64, 90
5, 99539, Note_on_c, 3, 64, 0
5, 99540, Note_on_c, 3, 61, 90
5, 99599, Note_on_c, 3, 61, 0
5, 99600, Note_on_c, 3, 68, 90
5, 99659, Note_on_c, 3, 68, 0
5, 99660, Note_on_c, 3, 66, 90
5, 99719, Note_on_c, 3, 66, 0
5, 99720, Note_on_c, 3, 64, 90
5, 99779, Note_on_c, 3, 64, 0
5, 99780, Note_on_c, 3, 63, 90
5, 99839, Note_on_c, 3, 63, 0
5, 99840, Note_on_c, 3, 64, 90
5, 99899, Note_on_c, 3, 64, 0
5, 99900, Note_on_c, 3, 66, 90
5, 99929, Note_on_c, 3, 66, 0
5, 99930, Note_on_c, 3, 68, 90
5, 99959, Note_on_c, 3, 68, 0
5, 99960, Note_on_c, 3, 69, 90
5, 100019, Note_on_c, 3, 69, 0
5, 100020, Note_on_c, 3, 66, 90
5, 100079, Note_on_c, 3, 66, 0
5, 100080, Note_on_c, 3, 68, 90
5, 100175, Note_on_c, 3, 68, 0
5, 100200, Note_on_c, 3, 69, 90
5, 100319, Note_on_c, 3, 69, 0
5, 100320, Note_on_c, 3, 69, 90
5, 100439, Note_on_c, 3, 69, 0
5, 100440, Note_on_c, 3, 70, 90
5, 100559, Note_on_c, 3, 70, 0
5, 100560, Note_on_c, 3, 71, 90
5, 100619, Note_on_c, 3, 71, 0
5, 100620, Note_on_c, 3, 69, 90
5, 100679, Note_on_c, 3, 69, 0
5, 100680, Note_on_c, 3, 68, 90
5, 100739, Note_on_c, 3, 68, 0
5, 100740, Note_on_c, 3, 66, 90
5, 100799, Note_on_c, 3, 66, 0
5, 100800, Note_on_c, 3, 64, 90
5, 100859, Note_on_c, 3, 64, 0
5, 100860, Note_on_c, 3, 66, 90
5, 100889, Note_on_c, 3, 66, 0
5, 100890, Note_on_c, 3, 68, 90
5, 100919, Note_on_c, 3, 68, 0
5, 100920, Note_on_c, 3, 69, 90
5, 100979, Note_on_c, 3, 69, 0
5, 100980, Note_on_c, 3, 66, 90
5, 101039, Note_on_c, 3, 66, 0
5, 101040, Note_on_c, 3, 68, 90
5, 101135, Note_on_c, 3, 68, 0
5, 101160, Note_on_c, 3, 69, 90
5, 101219, Note_on_c, 3, 69, 0
5, 101220, Note_on_c, 3, 68, 90
5, 101279, Note_on_c, 3, 68, 0
5, 101280, Note_on_c, 3, 66, 90
5, 101459, Note_on_c, 3, 66, 0
5, 101460, Note_on_c, 3, 68, 90
5, 101489, Note_on_c, 3, 68, 0
5, 101490, Note_on_c, 3, 70, 90
5, 101519, Note_on_c, 3, 70, 0
5, 101520, Note_on_c, 3, 71, 90
5, 101615, Note_on_c, 3, 71, 0
5, 101640, Note_on_c, 3, 70, 90
5, 101759, Note_on_c, 3, 70, 0
5, 101760, Note_on_c, 3, 71, 90
5, 101819, Note_on_c, 3, 71, 0
5, 101820, Note_on_c, 3, 69, 90
5, 101879, Note_on_c, 3, 69, 0
5, 101880, Note_on_c, 3, 67, 90
5, 101999, Note_on_c, 3, 67, 0
5, 102000, Note_on_c, 3, 66, 90
5, 102095, Note_on_c, 3, 66, 0
5, 102120, Note_on_c, 3, 64, 90
5, 102179, Note_on_c, 3, 64, 0
5, 102180, Note_on_c, 3, 69, 90
5, 102299, Note_on_c, 3, 69, 0
5, 102300, Note_on_c, 3, 68, 90
5, 102419, Note_on_c, 3, 68, 0
5, 102420, Note_on_c, 3, 66, 90
5, 102479, Note_on_c, 3, 66, 0
5, 102480, Note_on_c, 3, 68, 90
5, 102539, Note_on_c, 3, 68, 0
5, 102540, Note_on_c, 3, 69, 90
5, 102599, Note_on_c, 3, 69, 0
5, 102600, Note_on_c, 3, 71, 90
5, 102779, Note_on_c, 3, 71, 0
5, 102780, Note_on_c, 3, 64, 90
5, 102839, Note_on_c, 3, 64, 0
5, 102840, Note_on_c, 3, 69, 90
5, 102959, Note_on_c, 3, 69, 0
5, 102960, Note_on_c, 3, 69, 90
5, 103079, Note_on_c, 3, 69, 0
5, 103080, Note_on_c, 3, 68, 90
5, 103199, Note_on_c, 3, 68, 0
5, 103200, Note_on_c, 3, 64, 90
5, 103559, Note_on_c, 3, 64, 0
5, 140235, Note_on_c, 3, 64, 100
5, 140247, Note_on_c, 3, 64, 0
5, 140250, Note_on_c, 3, 64, 100
5, 140262, Note_on_c, 3, 64, 0
5, 140265, Note_on_c, 3, 64, 100
5, 140277, Note_on_c, 3, 64, 0
5, 140280, Note_on_c, 3, 64, 100
5, 140328, Note_on_c, 3, 64, 0
5, 140715, Note_on_c, 3, 73, 100
5, 140727, Note_on_c, 3, 73, 0
5, 140730, Note_on_c, 3, 73, 100
5, 140742, Note_on_c, 3, 73, 0
5, 140745, Note_on_c, 3, 73, 100
5, 140757, Note_on_c, 3, 73, 0
5, 140760, Note_on_c, 3, 73, 100
5, 140808, Note_on_c, 3, 73, 0
5, 141675, Note_on_c, 3, 75, 100
5, 141687, Note_on_c, 3, 75, 0
5, 141690, Note_on_c, 3, 75, 100
5, 141702, Note_on_c, 3, 75, 0
5, 141705, Note_on_c, 3, 75, 100
5, 141717, Note_on_c, 3, 75, 0
5, 141720, Note_on_c, 3, 75, 100
5, 141768, Note_on_c, 3, 75, 0
5, 141915, Note_on_c, 3, 78, 100
5, 141927, Note_on_c, 3, 78, 0
5, 141930, Note_on_c, 3, 78, 100
5, 141942, Note_on_c, 3, 78, 0
5, 141945, Note_on_c, 3, 78, 100
5, 141957, Note_on_c, 3, 78, 0
5, 141960, Note_on_c, 3, 78, 100
5, 142008, Note_on_c, 3, 78, 0
5, 142590, Note_on_c, 3, 80, 100
5, 142614, Note_on_c, 3, 80, 0
5, 142620, Note_on_c, 3, 80, 100
5, 142635, Note_on_c, 3, 80, 0
5, 142635, Note_on_c, 3, 78, 100
5, 142650, Note_on_c, 3, 78, 0
5, 142650, Note_on_c, 3, 80, 100
5, 142680, Note_on_c, 3, 80, 0
5, 142680, Note_on_c, 3, 76, 100
5, 142740, Note_on_c, 3, 76, 0
5, 143070, Note_on_c, 3, 76, 100
5, 143094, Note_on_c, 3, 76, 0
5, 143100, Note_on_c, 3, 76, 100
5, 143115, Note_on_c, 3, 76, 0
5, 143115, Note_on_c, 3, 74, 100
5, 143130, Note_on_c, 3, 74, 0
5, 143130, Note_on_c, 3, 76, 100
5, 143160, Note_on_c, 3, 76, 0
5, 143160, Note_on_c, 3, 73, 100
5, 143220, Note_on_c, 3, 73, 0
5, 143550, Note_on_c, 3, 76, 100
5, 143574, Note_on_c, 3, 76, 0
5, 143580, Note_on_c, 3, 76, 100
5, 143595, Note_on_c, 3, 76, 0
5, 143595, Note_on_c, 3, 75, 100
5, 143610, Note_on_c, 3, 75, 0
5, 143610, Note_on_c, 3, 76, 100
5, 143634, Note_on_c, 3, 76, 0
5, 143640, Note_on_c, 3, 78, 100
5, 143664, Note_on_c, 3, 78, 0
5, 143670, Note_on_c, 3, 71, 100
5, 143694, Note_on_c, 3, 71, 0
5, 143700, Note_on_c, 3, 71, 100
5, 143715, Note_on_c, 3, 71, 0
5, 143715, Note_on_c, 3, 69, 100
5, 143730, Note_on_c, 3, 69, 0
5, 143730, Note_on_c, 3, 71, 100
5, 143760, Note_on_c, 3, 71, 0
5, 143760, Note_on_c, 3, 71, 100
5, 143880, Note_on_c, 3, 71, 0
5, 201240, Note_on_c, 3, 64, 90
5, 201359, Note_on_c, 3, 64, 0
5, 201360, Note_on_c, 3, 64, 90
5, 201479, Note_on_c, 3, 64, 0
5, 201480, Note_on_c, 3, 69, 90
5, 201599, Note_on_c, 3, 69, 0
5, 201600, Note_on_c, 3, 69, 90
5, 201659, Note_on_c, 3, 69, 0
5, 201660, Note_on_c, 3, 68, 90
5, 201779, Note_on_c, 3, 68, 0
5, 201780, Note_on_c, 3, 66, 90
5, 201899, Note_on_c, 3, 66, 0
5, 201900, Note_on_c, 3, 64, 90
5, 202019, Note_on_c, 3, 64, 0
5, 202020, Note_on_c, 3, 63, 90
5, 202079, Note_on_c, 3, 63, 0
5, 202080, Note_on_c, 3, 59, 90
5, 202175, Note_on_c, 3, 59, 0
5, 202200, Note_on_c, 3, 62, 90
5, 202259, Note_on_c, 3, 62, 0
5, 202260, Note_on_c, 3, 61, 90
5, 202319, Note_on_c, 3, 61, 0
5, 202320, Note_on_c, 3, 59, 90
5, 202439, Note_on_c, 3, 59, 0
5, 202440, Note_on_c, 3, 64, 90
5, 202559, Note_on_c, 3, 64, 0
5, 202560, Note_on_c, 3, 64, 90
5, 202679, Note_on_c, 3, 64, 0
5, 202680, Note_on_c, 3, 64, 90
5, 202739, Note_on_c, 3, 64, 0
5, 202740, Note_on_c, 3, 66, 90
5, 202799, Note_on_c, 3, 66, 0
5, 202800, Note_on_c, 3, 64, 90
5, 202919, Note_on_c, 3, 64, 0
5, 202920, Note_on_c, 3, 64, 90
5, 203135, Note_on_c, 3, 64, 0
5, 203160, Note_on_c, 3, 64, 90
5, 203279, Note_on_c, 3, 64, 0
5, 203280, Note_on_c, 3, 64, 90
5, 203399, Note_on_c, 3, 64, 0
5, 203400, Note_on_c, 3, 69, 90
5, 203519, Note_on_c, 3, 69, 0
5, 203520, Note_on_c, 3, 69, 90
5, 203579, Note_on_c, 3, 69, 0
5, 203580, Note_on_c, 3, 68, 90
5, 203699, Note_on_c, 3, 68, 0
5, 203700, Note_on_c, 3, 66, 90
5, 203819, Note_on_c, 3, 66, 0
5, 203820, Note_on_c, 3, 64, 90
5, 203939, Note_on_c, 3, 64, 0
5, 203940, Note_on_c, 3, 63, 90
5, 203999, Note_on_c, 3, 63, 0
5, 204000, Note_on_c, 3, 59, 90
5, 204095, Note_on_c, 3, 59, 0
5, 204120, Note_on_c, 3, 62, 90
5, 204179, Note_on_c, 3, 62, 0
5, 204180, Note_on_c, 3, 61, 90
5, 204239, Note_on_c, 3, 61, 0
5, 204240, Note_on_c, 3, 59, 90
5, 204359, Note_on_c, 3, 59, 0
5, 204360, Note_on_c, 3, 64, 90
5, 204479, Note_on_c, 3, 64, 0
5, 204480, Note_on_c, 3, 64, 90
5, 204599, Note_on_c, 3, 64, 0
5, 204600, Note_on_c, 3, 64, 90
5, 204659, Note_on_c, 3, 64, 0
5, 204660, Note_on_c, 3, 66, 90
5, 204719, Note_on_c, 3, 66, 0
5, 204720, Note_on_c, 3, 64, 90
5, 204839, Note_on_c, 3, 64, 0
5, 204840, Note_on_c, 3, 64, 90
5, 205055, Note_on_c, 3, 64, 0
5, 205080, Note_on_c, 3, 69, 90
5, 205199, Note_on_c, 3, 69, 0
5, 205200, Note_on_c, 3, 69, 90
5, 205319, Note_on_c, 3, 69, 0
5, 205320, Note_on_c, 3, 64, 90
5, 205379, Note_on_c, 3, 64, 0
5, 205380, Note_on_c, 3, 66, 90
5, 205439, Note_on_c, 3, 66, 0
5, 205440, Note_on_c, 3, 68, 90
5, 205559, Note_on_c, 3, 68, 0
5, 205560, Note_on_c, 3, 66, 90
5, 205679, Note_on_c, 3, 66, 0
5, 205680, Note_on_c, 3, 64, 90
5, 205739, Note_on_c, 3, 64, 0
5, 205740, Note_on_c, 3, 66, 90
5, 205799, Note_on_c, 3, 66, 0
5, 205800, Note_on_c, 3, 68, 90
5, 205859, Note_on_c, 3, 68, 0
5, 205860, Note_on_c, 3, 66, 90
5, 205919, Note_on_c, 3, 66, 0
5, 205920, Note_on_c, 3, 68, 90
5, 206015, Note_on_c, 3, 68, 0
5, 206040, Note_on_c, 3, 61, 90
5, 206099, Note_on_c, 3, 61, 0
5, 206100, Note_on_c, 3, 62, 90
5, 206159, Note_on_c, 3, 62, 0
5, 206160, Note_on_c, 3, 64, 90
5, 206339, Note_on_c, 3, 64, 0
5, 206340, Note_on_c, 3, 62, 90
5, 206369, Note_on_c, 3, 62, 0
5, 206370, Note_on_c, 3, 61, 90
5, 206399, Note_on_c, 3, 61, 0
5, 206400, Note_on_c, 3, 66, 90
5, 206519, Note_on_c, 3, 66, 0
5, 206520, Note_on_c, 3, 64, 90
5, 206639, Note_on_c, 3, 64, 0
5, 206640, Note_on_c, 3, 64, 90
5, 206759, Note_on_c, 3, 64, 0
5, 206760, Note_on_c, 3, 64, 90
5, 206819, Note_on_c, 3, 64, 0
5, 206820, Note_on_c, 3, 62, 90
5, 206879, Note_on_c, 3, 62, 0
5, 206880, Note_on_c, 3, 64, 90
5, 206999, Note_on_c, 3, 64, 0
5, 206999, End_track
6, 0, Start_track
6, 0, MIDI_port, 0
6, 0, Title_t, "Viola"
6, 0, Program_c, 4, 48
6, 0, Control_c, 4, 7, 127
6, 0, Control_c, 4, 10, 64
6, 0, Note_on_c, 4, 69, 90
6, 47, Note_on_c, 4, 69, 0
6, 60, Note_on_c, 4, 64, 90
6, 107, Note_on_c, 4, 64, 0
6, 390, Note_on_c, 4, 69, 90
6, 413, Note_on_c, 4, 69, 0
6, 420, Note_on_c, 4, 73, 90
6, 443, Note_on_c, 4, 73, 0
6, 450, Note_on_c, 4, 69, 90
6, 473, Note_on_c, 4, 69, 0
6, 480, Note_on_c, 4, 64, 90
6, 503, Note_on_c, 4, 64, 0
6, 510, Note_on_c, 4, 69, 90
6, 533, Note_on_c, 4, 69, 0
6, 540, Note_on_c, 4, 61, 90
6, 563, Note_on_c, 4, 61, 0
6, 570, Note_on_c, 4, 64, 90
6, 593, Note_on_c, 4, 64, 0
6, 600, Note_on_c, 4, 52, 90
6, 647, Note_on_c, 4, 52, 0
6, 660, Note_on_c, 4, 64, 90
6, 707, Note_on_c, 4, 64, 0
6, 720, Note_on_c, 4, 64, 90
6, 767, Note_on_c, 4, 64, 0
6, 780, Note_on_c, 4, 61, 90
6, 827, Note_on_c, 4, 61, 0
6, 1110, Note_on_c, 4, 64, 90
6, 1133, Note_on_c, 4, 64, 0
6, 1140, Note_on_c, 4, 69, 90
6, 1163, Note_on_c, 4, 69, 0
6, 1170, Note_on_c, 4, 64, 90
6, 1193, Note_on_c, 4, 64, 0
6, 1200, Note_on_c, 4, 61, 90
6, 1223, Note_on_c, 4, 61, 0
6, 1230, Note_on_c, 4, 64, 90
6, 1253, Note_on_c, 4, 64, 0
6, 1260, Note_on_c, 4, 57, 90
6, 1283, Note_on_c, 4, 57, 0
6, 1290, Note_on_c, 4, 61, 90
6, 1313, Note_on_c, 4, 61, 0
6, 1320, Note_on_c, 4, 56, 90
6, 1367, Note_on_c, 4, 56, 0
6, 1380, Note_on_c, 4, 56, 90
6, 1427, Note_on_c, 4, 56, 0
6, 1440, Note_on_c, 4, 52, 90
6, 1487, Note_on_c, 4, 52, 0
6, 1500, Note_on_c, 4, 61, 90
6, 1547, Note_on_c, 4, 61, 0
6, 1620, Note_on_c, 4, 64, 90
6, 1667, Note_on_c, 4, 64, 0
6, 1680, Note_on_c, 4, 61, 90
6, 1727, Note_on_c, 4, 61, 0
6, 1740, Note_on_c, 4, 64, 90
6, 1787, Note_on_c, 4, 64, 0
6, 1800, Note_on_c, 4, 57, 90
6, 1895, Note_on_c, 4, 57, 0
6, 1980, Note_on_c, 4, 62, 90
6, 2027, Note_on_c, 4, 62, 0
6, 2040, Note_on_c, 4, 62, 90
6, 2087, Note_on_c, 4, 62, 0
6, 2100, Note_on_c, 4, 57, 90
6, 2147, Note_on_c, 4, 57, 0
6, 2160, Note_on_c, 4, 59, 90
6, 2207, Note_on_c, 4, 59, 0
6, 2220, Note_on_c, 4, 71, 90
6, 2267, Note_on_c, 4, 71, 0
6, 2340, Note_on_c, 4, 66, 90
6, 2387, Note_on_c, 4, 66, 0
6, 2400, Note_on_c, 4, 66, 90
6, 2447, Note_on_c, 4, 66, 0
6, 2460, Note_on_c, 4, 66, 90
6, 2507, Note_on_c, 4, 66, 0
6, 2520, Note_on_c, 4, 64, 90
6, 2567, Note_on_c, 4, 64, 0
6, 2580, Note_on_c, 4, 68, 90
6, 2627, Note_on_c, 4, 68, 0
6, 2700, Note_on_c, 4, 64, 90
6, 2747, Note_on_c, 4, 64, 0
6, 2760, Note_on_c, 4, 64, 90
6, 2807, Note_on_c, 4, 64, 0
6, 2820, Note_on_c, 4, 64, 90
6, 2867, Note_on_c, 4, 64, 0
6, 2880, Note_on_c, 4, 68, 90
6, 2975, Note_on_c, 4, 68, 0
6, 3060, Note_on_c, 4, 64, 90
6, 3107, Note_on_c, 4, 64, 0
6, 3120, Note_on_c, 4, 64, 90
6, 3167, Note_on_c, 4, 64, 0
6, 3180, Note_on_c, 4, 64, 90
6, 3227, Note_on_c, 4, 64, 0
6, 3240, Note_on_c, 4, 64, 90
6, 3287, Note_on_c, 4, 64, 0
6, 3300, Note_on_c, 4, 69, 90
6, 3347, Note_on_c, 4, 69, 0
6, 3360, Note_on_c, 4, 69, 90
6, 3407, Note_on_c, 4, 69, 0
6, 3420, Note_on_c, 4, 64, 90
6, 3467, Note_on_c, 4, 64, 0
6, 3480, Note_on_c, 4, 64, 90
6, 3527, Note_on_c, 4, 64, 0
6, 3540, Note_on_c, 4, 69, 90
6, 3587, Note_on_c, 4, 69, 0
6, 3600, Note_on_c, 4, 66, 90
6, 3647, Note_on_c, 4, 66, 0
6, 3660, Note_on_c, 4, 69, 90
6, 3707, Note_on_c, 4, 69, 0
6, 3720, Note_on_c, 4, 69, 90
6, 3767, Note_on_c, 4, 69, 0
6, 3780, Note_on_c, 4, 66, 90
6, 3827, Note_on_c, 4, 66, 0
6, 3840, Note_on_c, 4, 66, 90
6, 3887, Note_on_c, 4, 66, 0
6, 3900, Note_on_c, 4, 69, 90
6, 3947, Note_on_c, 4, 69, 0
6, 3960, Note_on_c, 4, 61, 90
6, 4007, Note_on_c, 4, 61, 0
6, 4020, Note_on_c, 4, 64, 90
6, 4067, Note_on_c, 4, 64, 0
6, 4080, Note_on_c, 4, 69, 90
6, 4127, Note_on_c, 4, 69, 0
6, 4140, Note_on_c, 4, 69, 90
6, 4187, Note_on_c, 4, 69, 0
6, 4200, Note_on_c, 4, 66, 90
6, 4247, Note_on_c, 4, 66, 0
6, 4260, Note_on_c, 4, 66, 90
6, 4307, Note_on_c, 4, 66, 0
6, 4320, Note_on_c, 4, 62, 90
6, 4367, Note_on_c, 4, 62, 0
6, 4380, Note_on_c, 4, 64, 90
6, 4427, Note_on_c, 4, 64, 0
6, 4440, Note_on_c, 4, 64, 90
6, 4487, Note_on_c, 4, 64, 0
6, 4500, Note_on_c, 4, 59, 90
6, 4547, Note_on_c, 4, 59, 0
6, 4560, Note_on_c, 4, 59, 90
6, 4607, Note_on_c, 4, 59, 0
6, 4620, Note_on_c, 4, 64, 90
6, 4667, Note_on_c, 4, 64, 0
6, 4680, Note_on_c, 4, 64, 90
6, 4727, Note_on_c, 4, 64, 0
6, 4800, Note_on_c, 4, 62, 90
6, 4847, Note_on_c, 4, 62, 0
6, 4920, Note_on_c, 4, 57, 90
6, 4967, Note_on_c, 4, 57, 0
6, 5040, Note_on_c, 4, 69, 90
6, 5087, Note_on_c, 4, 69, 0
6, 5160, Note_on_c, 4, 68, 90
6, 5207, Note_on_c, 4, 68, 0
6, 5280, Note_on_c, 4, 66, 90
6, 5327, Note_on_c, 4, 66, 0
6, 5400, Note_on_c, 4, 64, 90
6, 5447, Note_on_c, 4, 64, 0
6, 5460, Note_on_c, 4, 68, 90
6, 5507, Note_on_c, 4, 68, 0
6, 5520, Note_on_c, 4, 69, 90
6, 5567, Note_on_c, 4, 69, 0
6, 5580, Note_on_c, 4, 57, 90
6, 5603, Note_on_c, 4, 57, 0
6, 5610, Note_on_c, 4, 59, 90
6, 5633, Note_on_c, 4, 59, 0
6, 5640, Note_on_c, 4, 61, 90
6, 5687, Note_on_c, 4, 61, 0
6, 5700, Note_on_c, 4, 62, 90
6, 5747, Note_on_c, 4, 62, 0
6, 5760, Note_on_c, 4, 61, 90
6, 5855, Note_on_c, 4, 61, 0
6, 6870, Note_on_c, 4, 69, 90
6, 6893, Note_on_c, 4, 69, 0
6, 6900, Note_on_c, 4, 73, 90
6, 6923, Note_on_c, 4, 73, 0
6, 6930, Note_on_c, 4, 69, 90
6, 6953, Note_on_c, 4, 69, 0
6, 6960, Note_on_c, 4, 64, 90
6, 6983, Note_on_c, 4, 64, 0
6, 6990, Note_on_c, 4, 69, 90
6, 7013, Note_on_c, 4, 69, 0
6, 7020, Note_on_c, 4, 61, 90
6, 7043, Note_on_c, 4, 61, 0
6, 7050, Note_on_c, 4, 64, 90
6, 7073, Note_on_c, 4, 64, 0
6, 7080, Note_on_c, 4, 52, 90
6, 7127, Note_on_c, 4, 52, 0
6, 7140, Note_on_c, 4, 64, 90
6, 7187, Note_on_c, 4, 64, 0
6, 7200, Note_on_c, 4, 64, 90
6, 7247, Note_on_c, 4, 64, 0
6, 7260, Note_on_c, 4, 61, 90
6, 7307, Note_on_c, 4, 61, 0
6, 8670, Note_on_c, 4, 64, 90
6, 8693, Note_on_c, 4, 64, 0
6, 8700, Note_on_c, 4, 68, 90
6, 8723, Note_on_c, 4, 68, 0
6, 8730, Note_on_c, 4, 64, 90
6, 8753, Note_on_c, 4, 64, 0
6, 8760, Note_on_c, 4, 59, 90
6, 8783, Note_on_c, 4, 59, 0
6, 8790, Note_on_c, 4, 64, 90
6, 8813, Note_on_c, 4, 64, 0
6, 8820, Note_on_c, 4, 56, 90
6, 8843, Note_on_c, 4, 56, 0
6, 8850, Note_on_c, 4, 59, 90
6, 8873, Note_on_c, 4, 59, 0
6, 8880, Note_on_c, 4, 54, 90
6, 8927, Note_on_c, 4, 54, 0
6, 8940, Note_on_c, 4, 59, 90
6, 8987, Note_on_c, 4, 59, 0
6, 9000, Note_on_c, 4, 59, 90
6, 9047, Note_on_c, 4, 59, 0
6, 9060, Note_on_c, 4, 71, 90
6, 9107, Note_on_c, 4, 71, 0
6, 10470, Note_on_c, 4, 69, 90
6, 10493, Note_on_c, 4, 69, 0
6, 10500, Note_on_c, 4, 73, 90
6, 10523, Note_on_c, 4, 73, 0
6, 10530, Note_on_c, 4, 69, 90
6, 10553, Note_on_c, 4, 69, 0
6, 10560, Note_on_c, 4, 64, 90
6, 10583, Note_on_c, 4, 64, 0
6, 10590, Note_on_c, 4, 69, 90
6, 10613, Note_on_c, 4, 69, 0
6, 10620, Note_on_c, 4, 61, 90
6, 10643, Note_on_c, 4, 61, 0
6, 10650, Note_on_c, 4, 64, 90
6, 10673, Note_on_c, 4, 64, 0
6, 10680, Note_on_c, 4, 52, 90
6, 10727, Note_on_c, 4, 52, 0
6, 10740, Note_on_c, 4, 64, 90
6, 10787, Note_on_c, 4, 64, 0
6, 10800, Note_on_c, 4, 64, 90
6, 10847, Note_on_c, 4, 64, 0
6, 10860, Note_on_c, 4, 61, 90
6, 10907, Note_on_c, 4, 61, 0
6, 11520, Note_on_c, 4, 64, 90
6, 11550, Note_on_c, 4, 64, 0
6, 11580, Note_on_c, 4, 68, 90
6, 11610, Note_on_c, 4, 68, 0
6, 12240, Note_on_c, 4, 63, 90
6, 12270, Note_on_c, 4, 63, 0
6, 12300, Note_on_c, 4, 66, 90
6, 12330, Note_on_c, 4, 66, 0
6, 12960, Note_on_c, 4, 57, 90
6, 12990, Note_on_c, 4, 57, 0
6, 13020, Note_on_c, 4, 64, 90
6, 13050, Note_on_c, 4, 64, 0
6, 13680, Note_on_c, 4, 59, 90
6, 13710, Note_on_c, 4, 59, 0
6, 13740, Note_on_c, 4, 71, 90
6, 13770, Note_on_c, 4, 71, 0
6, 14580, Note_on_c, 4, 54, 90
6, 14627, Note_on_c, 4, 54, 0
6, 14640, Note_on_c, 4, 59, 90
6, 14687, Note_on_c, 4, 59, 0
6, 14700, Note_on_c, 4, 59, 90
6, 14747, Note_on_c, 4, 59, 0
6, 14760, Note_on_c, 4, 59, 90
6, 14807, Note_on_c, 4, 59, 0
6, 14820, Note_on_c, 4, 68, 90
6, 14867, Note_on_c, 4, 68, 0
6, 14940, Note_on_c, 4, 64, 90
6, 14987, Note_on_c, 4, 64, 0
6, 15000, Note_on_c, 4, 64, 90
6, 15047, Note_on_c, 4, 64, 0
6, 15060, Note_on_c, 4, 64, 90
6, 15107, Note_on_c, 4, 64, 0
6, 15120, Note_on_c, 4, 64, 90
6, 15167, Note_on_c, 4, 64, 0
6, 15180, Note_on_c, 4, 52, 90
6, 15227, Note_on_c, 4, 52, 0
6, 15300, Note_on_c, 4, 64, 90
6, 15347, Note_on_c, 4, 64, 0
6, 15360, Note_on_c, 4, 64, 90
6, 15407, Note_on_c, 4, 64, 0
6, 15420, Note_on_c, 4, 64, 90
6, 15467, Note_on_c, 4, 64, 0
6, 15480, Note_on_c, 4, 66, 90
6, 15527, Note_on_c, 4, 66, 0
6, 15540, Note_on_c, 4, 61, 90
6, 15587, Note_on_c, 4, 61, 0
6, 15660, Note_on_c, 4, 66, 90
6, 15707, Note_on_c, 4, 66, 0
6, 15720, Note_on_c, 4, 66, 90
6, 15767, Note_on_c, 4, 66, 0
6, 15780, Note_on_c, 4, 66, 90
6, 15827, Note_on_c, 4, 66, 0
6, 15840, Note_on_c, 4, 66, 90
6, 15887, Note_on_c, 4, 66, 0
6, 15900, Note_on_c, 4, 54, 90
6, 15947, Note_on_c, 4, 54, 0
6, 16020, Note_on_c, 4, 66, 90
6, 16067, Note_on_c, 4, 66, 0
6, 16080, Note_on_c, 4, 66, 90
6, 16127, Note_on_c, 4, 66, 0
6, 16140, Note_on_c, 4, 66, 90
6, 16187, Note_on_c, 4, 66, 0
6, 16200, Note_on_c, 4, 66, 90
6, 16247, Note_on_c, 4, 66, 0
6, 16260, Note_on_c, 4, 63, 90
6, 16307, Note_on_c, 4, 63, 0
6, 16380, Note_on_c, 4, 66, 90
6, 16427, Note_on_c, 4, 66, 0
6, 16440, Note_on_c, 4, 66, 90
6, 16487, Note_on_c, 4, 66, 0
6, 16500, Note_on_c, 4, 66, 90
6, 16547, Note_on_c, 4, 66, 0
6, 16560, Note_on_c, 4, 64, 90
6, 16607, Note_on_c, 4, 64, 0
6, 16620, Note_on_c, 4, 71, 90
6, 16667, Note_on_c, 4, 71, 0
6, 16680, Note_on_c, 4, 71, 90
6, 16727, Note_on_c, 4, 71, 0
6, 16740, Note_on_c, 4, 68, 90
6, 16787, Note_on_c, 4, 68, 0
6, 16800, Note_on_c, 4, 64, 90
6, 16847, Note_on_c, 4, 64, 0
6, 16860, Note_on_c, 4, 64, 90
6, 16907, Note_on_c, 4, 64, 0
6, 16920, Note_on_c, 4, 64, 90
6, 16967, Note_on_c, 4, 64, 0
6, 16980, Note_on_c, 4, 69, 90
6, 17027, Note_on_c, 4, 69, 0
6, 17040, Note_on_c, 4, 69, 90
6, 17087, Note_on_c, 4, 69, 0
6, 17100, Note_on_c, 4, 64, 90
6, 17147, Note_on_c, 4, 64, 0
6, 17160, Note_on_c, 4, 64, 90
6, 17207, Note_on_c, 4, 64, 0
6, 17220, Note_on_c, 4, 64, 90
6, 17267, Note_on_c, 4, 64, 0
6, 17280, Note_on_c, 4, 64, 90
6, 17327, Note_on_c, 4, 64, 0
6, 17340, Note_on_c, 4, 68, 90
6, 17387, Note_on_c, 4, 68, 0
6, 17400, Note_on_c, 4, 68, 90
6, 17447, Note_on_c, 4, 68, 0
6, 17460, Note_on_c, 4, 64, 90
6, 17507, Note_on_c, 4, 64, 0
6, 17520, Note_on_c, 4, 64, 90
6, 17567, Note_on_c, 4, 64, 0
6, 17580, Note_on_c, 4, 64, 90
6, 17627, Note_on_c, 4, 64, 0
6, 17640, Note_on_c, 4, 61, 90
6, 17687, Note_on_c, 4, 61, 0
6, 17700, Note_on_c, 4, 63, 90
6, 17747, Note_on_c, 4, 63, 0
6, 17760, Note_on_c, 4, 63, 90
6, 17807, Note_on_c, 4, 63, 0
6, 17820, Note_on_c, 4, 59, 90
6, 17867, Note_on_c, 4, 59, 0
6, 17880, Note_on_c, 4, 59, 90
6, 17927, Note_on_c, 4, 59, 0
6, 17940, Note_on_c, 4, 71, 90
6, 17963, Note_on_c, 4, 71, 0
6, 17970, Note_on_c, 4, 69, 90
6, 17993, Note_on_c, 4, 69, 0
6, 18000, Note_on_c, 4, 69, 90
6, 18047, Note_on_c, 4, 69, 0
6, 18120, Note_on_c, 4, 73, 90
6, 18167, Note_on_c, 4, 73, 0
6, 18240, Note_on_c, 4, 71, 90
6, 18287, Note_on_c, 4, 71, 0
6, 18360, Note_on_c, 4, 69, 90
6, 18407, Note_on_c, 4, 69, 0
6, 18480, Note_on_c, 4, 69, 90
6, 18527, Note_on_c, 4, 69, 0
6, 18600, Note_on_c, 4, 68, 90
6, 18647, Note_on_c, 4, 68, 0
6, 18720, Note_on_c, 4, 66, 90
6, 18767, Note_on_c, 4, 66, 0
6, 18780, Note_on_c, 4, 71, 90
6, 18827, Note_on_c, 4, 71, 0
6, 18840, Note_on_c, 4, 71, 90
6, 18887, Note_on_c, 4, 71, 0
6, 18900, Note_on_c, 4, 59, 90
6, 18947, Note_on_c, 4, 59, 0
6, 18960, Note_on_c, 4, 59, 90
6, 19007, Note_on_c, 4, 59, 0
6, 19020, Note_on_c, 4, 59, 90
6, 19067, Note_on_c, 4, 59, 0
6, 19080, Note_on_c, 4, 59, 90
6, 19127, Note_on_c, 4, 59, 0
6, 19140, Note_on_c, 4, 68, 90
6, 19187, Note_on_c, 4, 68, 0
6, 19470, Note_on_c, 4, 64, 90
6, 19493, Note_on_c, 4, 64, 0
6, 19500, Note_on_c, 4, 68, 90
6, 19523, Note_on_c, 4, 68, 0
6, 19530, Note_on_c, 4, 64, 90
6, 19553, Note_on_c, 4, 64, 0
6, 19560, Note_on_c, 4, 59, 90
6, 19583, Note_on_c, 4, 59, 0
6, 19590, Note_on_c, 4, 64, 90
6, 19613, Note_on_c, 4, 64, 0
6, 19620, Note_on_c, 4, 71, 90
6, 19667, Note_on_c, 4, 71, 0
6, 19680, Note_on_c, 4, 71, 90
6, 19727, Note_on_c, 4, 71, 0
6, 19740, Note_on_c, 4, 71, 90
6, 19787, Note_on_c, 4, 71, 0
6, 19800, Note_on_c, 4, 71, 90
6, 19847, Note_on_c, 4, 71, 0
6, 19860, Note_on_c, 4, 68, 90
6, 19907, Note_on_c, 4, 68, 0
6, 20190, Note_on_c, 4, 71, 90
6, 20213, Note_on_c, 4, 71, 0
6, 20220, Note_on_c, 4, 76, 90
6, 20243, Note_on_c, 4, 76, 0
6, 20250, Note_on_c, 4, 71, 90
6, 20273, Note_on_c, 4, 71, 0
6, 20280, Note_on_c, 4, 68, 90
6, 20303, Note_on_c, 4, 68, 0
6, 20310, Note_on_c, 4, 71, 90
6, 20333, Note_on_c, 4, 71, 0
6, 20340, Note_on_c, 4, 64, 90
6, 20363, Note_on_c, 4, 64, 0
6, 20370, Note_on_c, 4, 68, 90
6, 20393, Note_on_c, 4, 68, 0
6, 20400, Note_on_c, 4, 63, 90
6, 20447, Note_on_c, 4, 63, 0
6, 20460, Note_on_c, 4, 63, 90
6, 20507, Note_on_c, 4, 63, 0
6, 20520, Note_on_c, 4, 59, 90
6, 20567, Note_on_c, 4, 59, 0
6, 20580, Note_on_c, 4, 56, 90
6, 20627, Note_on_c, 4, 56, 0
6, 20700, Note_on_c, 4, 69, 90
6, 20723, Note_on_c, 4, 69, 0
6, 20730, Note_on_c, 4, 66, 90
6, 20753, Note_on_c, 4, 66, 0
6, 20760, Note_on_c, 4, 68, 90
6, 20807, Note_on_c, 4, 68, 0
6, 20820, Note_on_c, 4, 71, 90
6, 20867, Note_on_c, 4, 71, 0
6, 20880, Note_on_c, 4, 64, 90
6, 20927, Note_on_c, 4, 64, 0
6, 20940, Note_on_c, 4, 61, 90
6, 20987, Note_on_c, 4, 61, 0
6, 21060, Note_on_c, 4, 64, 90
6, 21083, Note_on_c, 4, 64, 0
6, 21090, Note_on_c, 4, 62, 90
6, 21113, Note_on_c, 4, 62, 0
6, 21120, Note_on_c, 4, 64, 90
6, 21167, Note_on_c, 4, 64, 0
6, 21180, Note_on_c, 4, 61, 90
6, 21227, Note_on_c, 4, 61, 0
6, 21240, Note_on_c, 4, 64, 90
6, 21287, Note_on_c, 4, 64, 0
6, 21300, Note_on_c, 4, 68, 90
6, 21347, Note_on_c, 4, 68, 0
6, 21420, Note_on_c, 4, 64, 90
6, 21443, Note_on_c, 4, 64, 0
6, 21450, Note_on_c, 4, 66, 90
6, 21473, Note_on_c, 4, 66, 0
6, 21480, Note_on_c, 4, 64, 90
6, 21527, Note_on_c, 4, 64, 0
6, 21540, Note_on_c, 4, 59, 90
6, 21587, Note_on_c, 4, 59, 0
6, 21600, Note_on_c, 4, 57, 90
6, 21647, Note_on_c, 4, 57, 0
6, 21660, Note_on_c, 4, 64, 90
6, 21707, Note_on_c, 4, 64, 0
6, 21990, Note_on_c, 4, 69, 90
6, 22013, Note_on_c, 4, 69, 0
6, 22020, Note_on_c, 4, 73, 90
6, 22043, Note_on_c, 4, 73, 0
6, 22050, Note_on_c, 4, 69, 90
6, 22073, Note_on_c, 4, 69, 0
6, 22080, Note_on_c, 4, 64, 90
6, 22103, Note_on_c, 4, 64, 0
6, 22110, Note_on_c, 4, 69, 90
6, 22133, Note_on_c, 4, 69, 0
6, 22140, Note_on_c, 4, 61, 90
6, 22163, Note_on_c, 4, 61, 0
6, 22170, Note_on_c, 4, 64, 90
6, 22193, Note_on_c, 4, 64, 0
6, 22200, Note_on_c, 4, 52, 90
6, 22247, Note_on_c, 4, 52, 0
6, 22260, Note_on_c, 4, 64, 90
6, 22307, Note_on_c, 4, 64, 0
6, 22320, Note_on_c, 4, 64, 90
6, 22367, Note_on_c, 4, 64, 0
6, 22380, Note_on_c, 4, 61, 90
6, 22427, Note_on_c, 4, 61, 0
6, 22710, Note_on_c, 4, 64, 90
6, 22733, Note_on_c, 4, 64, 0
6, 22740, Note_on_c, 4, 69, 90
6, 22763, Note_on_c, 4, 69, 0
6, 22770, Note_on_c, 4, 64, 90
6, 22793, Note_on_c, 4, 64, 0
6, 22800, Note_on_c, 4, 61, 90
6, 22823, Note_on_c, 4, 61, 0
6, 22830, Note_on_c, 4, 64, 90
6, 22853, Note_on_c, 4, 64, 0
6, 22860, Note_on_c, 4, 57, 90
6, 22883, Note_on_c, 4, 57, 0
6, 22890, Note_on_c, 4, 61, 90
6, 22913, Note_on_c, 4, 61, 0
6, 22920, Note_on_c, 4, 56, 90
6, 22967, Note_on_c, 4, 56, 0
6, 22980, Note_on_c, 4, 56, 90
6, 23027, Note_on_c, 4, 56, 0
6, 23040, Note_on_c, 4, 52, 90
6, 23087, Note_on_c, 4, 52, 0
6, 23100, Note_on_c, 4, 61, 90
6, 23147, Note_on_c, 4, 61, 0
6, 23220, Note_on_c, 4, 62, 90
6, 23243, Note_on_c, 4, 62, 0
6, 23250, Note_on_c, 4, 59, 90
6, 23273, Note_on_c, 4, 59, 0
6, 23280, Note_on_c, 4, 61, 90
6, 23327, Note_on_c, 4, 61, 0
6, 23340, Note_on_c, 4, 64, 90
6, 23387, Note_on_c, 4, 64, 0
6, 23400, Note_on_c, 4, 57, 90
6, 23447, Note_on_c, 4, 57, 0
6, 23460, Note_on_c, 4, 54, 90
6, 23507, Note_on_c, 4, 54, 0
6, 23580, Note_on_c, 4, 57, 90
6, 23603, Note_on_c, 4, 57, 0
6, 23610, Note_on_c, 4, 55, 90
6, 23633, Note_on_c, 4, 55, 0
6, 23640, Note_on_c, 4, 57, 90
6, 23687, Note_on_c, 4, 57, 0
6, 23700, Note_on_c, 4, 66, 90
6, 23747, Note_on_c, 4, 66, 0
6, 23760, Note_on_c, 4, 57, 90
6, 23807, Note_on_c, 4, 57, 0
6, 23820, Note_on_c, 4, 61, 90
6, 23867, Note_on_c, 4, 61, 0
6, 23940, Note_on_c, 4, 64, 90
6, 23963, Note_on_c, 4, 64, 0
6, 23970, Note_on_c, 4, 66, 90
6, 23993, Note_on_c, 4, 66, 0
6, 24000, Note_on_c, 4, 64, 90
6, 24047, Note_on_c, 4, 64, 0
6, 24060, Note_on_c, 4, 69, 90
6, 24107, Note_on_c, 4, 69, 0
6, 24120, Note_on_c, 4, 69, 90
6, 24167, Note_on_c, 4, 69, 0
6, 24180, Note_on_c, 4, 66, 90
6, 24227, Note_on_c, 4, 66, 0
6, 24420, Note_on_c, 4, 57, 90
6, 24467, Note_on_c, 4, 57, 0
6, 24480, Note_on_c, 4, 56, 90
6, 24527, Note_on_c, 4, 56, 0
6, 24780, Note_on_c, 4, 62, 90
6, 24827, Note_on_c, 4, 62, 0
6, 24840, Note_on_c, 4, 61, 90
6, 24887, Note_on_c, 4, 61, 0
6, 25140, Note_on_c, 4, 61, 90
6, 25187, Note_on_c, 4, 61, 0
6, 25200, Note_on_c, 4, 62, 90
6, 25247, Note_on_c, 4, 62, 0
6, 25500, Note_on_c, 4, 61, 90
6, 25547, Note_on_c, 4, 61, 0
6, 25560, Note_on_c, 4, 59, 90
6, 25607, Note_on_c, 4, 59, 0
6, 25620, Note_on_c, 4, 54, 90
6, 25667, Note_on_c, 4, 54, 0
6, 25740, Note_on_c, 4, 66, 90
6, 25787, Note_on_c, 4, 66, 0
6, 25800, Note_on_c, 4, 66, 90
6, 25847, Note_on_c, 4, 66, 0
6, 25860, Note_on_c, 4, 66, 90
6, 25907, Note_on_c, 4, 66, 0
6, 25920, Note_on_c, 4, 64, 90
6, 26015, Note_on_c, 4, 64, 0
6, 26100, Note_on_c, 4, 64, 90
6, 26147, Note_on_c, 4, 64, 0
6, 26160, Note_on_c, 4, 66, 90
6, 26207, Note_on_c, 4, 66, 0
6, 26220, Note_on_c, 4, 68, 90
6, 26267, Note_on_c, 4, 68, 0
6, 26280, Note_on_c, 4, 64, 90
6, 26327, Note_on_c, 4, 64, 0
6, 26340, Note_on_c, 4, 66, 90
6, 26387, Note_on_c, 4, 66, 0
6, 26400, Note_on_c, 4, 64, 90
6, 26447, Note_on_c, 4, 64, 0
6, 26460, Note_on_c, 4, 62, 90
6, 26507, Note_on_c, 4, 62, 0
6, 26520, Note_on_c, 4, 64, 90
6, 26567, Note_on_c, 4, 64, 0
6, 26580, Note_on_c, 4, 66, 90
6, 26627, Note_on_c, 4, 66, 0
6, 26640, Note_on_c, 4, 64, 90
6, 26735, Note_on_c, 4, 64, 0
6, 26760, Note_on_c, 4, 64, 90
6, 26807, Note_on_c, 4, 64, 0
6, 27000, Note_on_c, 4, 64, 90
6, 27030, Note_on_c, 4, 64, 0
6, 27060, Note_on_c, 4, 61, 90
6, 27090, Note_on_c, 4, 61, 0
6, 27360, Note_on_c, 4, 57, 90
6, 27390, Note_on_c, 4, 57, 0
6, 27420, Note_on_c, 4, 61, 90
6, 27450, Note_on_c, 4, 61, 0
6, 27720, Note_on_c, 4, 66, 90
6, 27750, Note_on_c, 4, 66, 0
6, 27780, Note_on_c, 4, 59, 90
6, 27810, Note_on_c, 4, 59, 0
6, 28080, Note_on_c, 4, 59, 90
6, 28110, Note_on_c, 4, 59, 0
6, 28140, Note_on_c, 4, 68, 90
6, 28170, Note_on_c, 4, 68, 0
6, 28440, Note_on_c, 4, 64, 90
6, 28470, Note_on_c, 4, 64, 0
6, 28500, Note_on_c, 4, 76, 90
6, 28530, Note_on_c, 4, 76, 0
6, 28800, Note_on_c, 4, 74, 90
6, 28830, Note_on_c, 4, 74, 0
6, 28860, Note_on_c, 4, 62, 90
6, 28890, Note_on_c, 4, 62, 0
6, 29160, Note_on_c, 4, 62, 90
6, 29190, Note_on_c, 4, 62, 0
6, 29220, Note_on_c, 4, 64, 90
6, 29250, Note_on_c, 4, 64, 0
6, 29520, Note_on_c, 4, 61, 90
6, 29550, Note_on_c, 4, 61, 0
6, 29580, Note_on_c, 4, 69, 90
6, 29610, Note_on_c, 4, 69, 0
6, 30420, Note_on_c, 4, 56, 90
6, 30467, Note_on_c, 4, 56, 0
6, 30480, Note_on_c, 4, 59, 90
6, 30527, Note_on_c, 4, 59, 0
6, 30540, Note_on_c, 4, 56, 90
6, 30587, Note_on_c, 4, 56, 0
6, 30600, Note_on_c, 4, 57, 90
6, 30647, Note_on_c, 4, 57, 0
6, 30660, Note_on_c, 4, 61, 90
6, 30707, Note_on_c, 4, 61, 0
6, 30780, Note_on_c, 4, 64, 90
6, 30827, Note_on_c, 4, 64, 0
6, 30840, Note_on_c, 4, 61, 90
6, 30887, Note_on_c, 4, 61, 0
6, 30900, Note_on_c, 4, 64, 90
6, 30947, Note_on_c, 4, 64, 0
6, 30960, Note_on_c, 4, 57, 90
6, 31007, Note_on_c, 4, 57, 0
6, 31020, Note_on_c, 4, 66, 90
6, 31067, Note_on_c, 4, 66, 0
6, 31140, Note_on_c, 4, 62, 90
6, 31187, Note_on_c, 4, 62, 0
6, 31200, Note_on_c, 4, 62, 90
6, 31247, Note_on_c, 4, 62, 0
6, 31260, Note_on_c, 4, 57, 90
6, 31307, Note_on_c, 4, 57, 0
6, 31320, Note_on_c, 4, 59, 90
6, 31367, Note_on_c, 4, 59, 0
6, 31380, Note_on_c, 4, 71, 90
6, 31427, Note_on_c, 4, 71, 0
6, 31500, Note_on_c, 4, 66, 90
6, 31547, Note_on_c, 4, 66, 0
6, 31560, Note_on_c, 4, 66, 90
6, 31607, Note_on_c, 4, 66, 0
6, 31620, Note_on_c, 4, 66, 90
6, 31667, Note_on_c, 4, 66, 0
6, 31680, Note_on_c, 4, 64, 90
6, 31727, Note_on_c, 4, 64, 0
6, 31740, Note_on_c, 4, 68, 90
6, 31787, Note_on_c, 4, 68, 0
6, 31860, Note_on_c, 4, 64, 90
6, 31907, Note_on_c, 4, 64, 0
6, 31920, Note_on_c, 4, 64, 90
6, 31967, Note_on_c, 4, 64, 0
6, 31980, Note_on_c, 4, 64, 90
6, 32027, Note_on_c, 4, 64, 0
6, 32040, Note_on_c, 4, 56, 90
6, 32135, Note_on_c, 4, 56, 0
6, 32220, Note_on_c, 4, 64, 90
6, 32267, Note_on_c, 4, 64, 0
6, 32280, Note_on_c, 4, 64, 90
6, 32327, Note_on_c, 4, 64, 0
6, 32340, Note_on_c, 4, 64, 90
6, 32387, Note_on_c, 4, 64, 0
6, 32400, Note_on_c, 4, 64, 90
6, 32447, Note_on_c, 4, 64, 0
6, 32460, Note_on_c, 4, 69, 90
6, 32507, Note_on_c, 4, 69, 0
6, 32520, Note_on_c, 4, 69, 90
6, 32567, Note_on_c, 4, 69, 0
6, 32580, Note_on_c, 4, 64, 90
6, 32627, Note_on_c, 4, 64, 0
6, 32640, Note_on_c, 4, 64, 90
6, 32687, Note_on_c, 4, 64, 0
6, 32700, Note_on_c, 4, 69, 90
6, 32747, Note_on_c, 4, 69, 0
6, 32760, Note_on_c, 4, 66, 90
6, 32807, Note_on_c, 4, 66, 0
6, 32820, Note_on_c, 4, 69, 90
6, 32867, Note_on_c, 4, 69, 0
6, 32880, Note_on_c, 4, 69, 90
6, 32927, Note_on_c, 4, 69, 0
6, 32940, Note_on_c, 4, 66, 90
6, 32987, Note_on_c, 4, 66, 0
6, 33000, Note_on_c, 4, 66, 90
6, 33047, Note_on_c, 4, 66, 0
6, 33060, Note_on_c, 4, 69, 90
6, 33107, Note_on_c, 4, 69, 0
6, 33120, Note_on_c, 4, 61, 90
6, 33167, Note_on_c, 4, 61, 0
6, 33180, Note_on_c, 4, 64, 90
6, 33227, Note_on_c, 4, 64, 0
6, 33240, Note_on_c, 4, 69, 90
6, 33287, Note_on_c, 4, 69, 0
6, 33300, Note_on_c, 4, 69, 90
6, 33347, Note_on_c, 4, 69, 0
6, 33360, Note_on_c, 4, 66, 90
6, 33407, Note_on_c, 4, 66, 0
6, 33420, Note_on_c, 4, 66, 90
6, 33467, Note_on_c, 4, 66, 0
6, 33480, Note_on_c, 4, 62, 90
6, 33527, Note_on_c, 4, 62, 0
6, 33540, Note_on_c, 4, 64, 90
6, 33587, Note_on_c, 4, 64, 0
6, 33600, Note_on_c, 4, 64, 90
6, 33647, Note_on_c, 4, 64, 0
6, 33660, Note_on_c, 4, 59, 90
6, 33707, Note_on_c, 4, 59, 0
6, 33720, Note_on_c, 4, 59, 90
6, 33767, Note_on_c, 4, 59, 0
6, 33780, Note_on_c, 4, 64, 90
6, 33827, Note_on_c, 4, 64, 0
6, 33840, Note_on_c, 4, 64, 90
6, 33887, Note_on_c, 4, 64, 0
6, 33960, Note_on_c, 4, 62, 90
6, 34007, Note_on_c, 4, 62, 0
6, 34080, Note_on_c, 4, 57, 90
6, 34127, Note_on_c, 4, 57, 0
6, 34200, Note_on_c, 4, 69, 90
6, 34247, Note_on_c, 4, 69, 0
6, 34320, Note_on_c, 4, 68, 90
6, 34367, Note_on_c, 4, 68, 0
6, 34440, Note_on_c, 4, 66, 90
6, 34487, Note_on_c, 4, 66, 0
6, 34560, Note_on_c, 4, 64, 90
6, 34607, Note_on_c, 4, 64, 0
6, 34620, Note_on_c, 4, 68, 90
6, 34667, Note_on_c, 4, 68, 0
6, 34680, Note_on_c, 4, 69, 90
6, 34727, Note_on_c, 4, 69, 0
6, 34740, Note_on_c, 4, 57, 90
6, 34763, Note_on_c, 4, 57, 0
6, 34770, Note_on_c, 4, 59, 90
6, 34793, Note_on_c, 4, 59, 0
6, 34800, Note_on_c, 4, 61, 90
6, 34847, Note_on_c, 4, 61, 0
6, 34860, Note_on_c, 4, 62, 90
6, 34907, Note_on_c, 4, 62, 0
6, 34920, Note_on_c, 4, 61, 90
6, 35015, Note_on_c, 4, 61, 0
6, 36030, Note_on_c, 4, 61, 90
6, 36053, Note_on_c, 4, 61, 0
6, 36060, Note_on_c, 4, 66, 90
6, 36083, Note_on_c, 4, 66, 0
6, 36090, Note_on_c, 4, 61, 90
6, 36113, Note_on_c, 4, 61, 0
6, 36120, Note_on_c, 4, 57, 90
6, 36143, Note_on_c, 4, 57, 0
6, 36150, Note_on_c, 4, 61, 90
6, 36173, Note_on_c, 4, 61, 0
6, 36180, Note_on_c, 4, 66, 90
6, 36203, Note_on_c, 4, 66, 0
6, 36210, Note_on_c, 4, 69, 90
6, 36233, Note_on_c, 4, 69, 0
6, 36240, Note_on_c, 4, 61, 90
6, 36287, Note_on_c, 4, 61, 0
6, 36300, Note_on_c, 4, 68, 90
6, 36347, Note_on_c, 4, 68, 0
6, 36360, Note_on_c, 4, 69, 90
6, 36407, Note_on_c, 4, 69, 0
6, 36420, Note_on_c, 4, 66, 90
6, 36467, Note_on_c, 4, 66, 0
6, 37080, Note_on_c, 4, 66, 90
6, 37560, Note_on_c, 4, 66, 0
6, 37560, Note_on_c, 4, 63, 90
6, 37740, Note_on_c, 4, 63, 0
6, 37740, Note_on_c, 4, 68, 90
6, 37763, Note_on_c, 4, 68, 0
6, 37770, Note_on_c, 4, 66, 90
6, 37793, Note_on_c, 4, 66, 0
6, 37800, Note_on_c, 4, 64, 90
6, 37823, Note_on_c, 4, 64, 0
6, 37830, Note_on_c, 4, 66, 90
6, 37853, Note_on_c, 4, 66, 0
6, 37860, Note_on_c, 4, 64, 90
6, 37883, Note_on_c, 4, 64, 0
6, 37890, Note_on_c, 4, 63, 90
6, 37913, Note_on_c, 4, 63, 0
6, 37920, Note_on_c, 4, 61, 90
6, 38063, Note_on_c, 4, 61, 0
6, 38100, Note_on_c, 4, 61, 90
6, 38147, Note_on_c, 4, 61, 0
6, 38160, Note_on_c, 4, 59, 90
6, 38183, Note_on_c, 4, 59, 0
6, 38190, Note_on_c, 4, 64, 90
6, 38213, Note_on_c, 4, 64, 0
6, 38220, Note_on_c, 4, 63, 90
6, 38243, Note_on_c, 4, 63, 0
6, 38250, Note_on_c, 4, 61, 90
6, 38273, Note_on_c, 4, 61, 0
6, 38280, Note_on_c, 4, 59, 90
6, 38423, Note_on_c, 4, 59, 0
6, 38460, Note_on_c, 4, 59, 90
6, 38507, Note_on_c, 4, 59, 0
6, 38520, Note_on_c, 4, 57, 90
6, 38543, Note_on_c, 4, 57, 0
6, 38550, Note_on_c, 4, 62, 90
6, 38573, Note_on_c, 4, 62, 0
6, 38580, Note_on_c, 4, 61, 90
6, 38603, Note_on_c, 4, 61, 0
6, 38610, Note_on_c, 4, 59, 90
6, 38633, Note_on_c, 4, 59, 0
6, 38640, Note_on_c, 4, 57, 90
6, 38783, Note_on_c, 4, 57, 0
6, 38820, Note_on_c, 4, 57, 90
6, 38867, Note_on_c, 4, 57, 0
6, 38880, Note_on_c, 4, 56, 90
6, 39023, Note_on_c, 4, 56, 0
6, 39060, Note_on_c, 4, 60, 90
6, 39107, Note_on_c, 4, 60, 0
6, 39120, Note_on_c, 4, 61, 90
6, 39167, Note_on_c, 4, 61, 0
6, 39180, Note_on_c, 4, 63, 90
6, 39275, Note_on_c, 4, 63, 0
6, 39300, Note_on_c, 4, 61, 90
6, 39323, Note_on_c, 4, 61, 0
6, 39330, Note_on_c, 4, 60, 90
6, 39353, Note_on_c, 4, 60, 0
6, 39360, Note_on_c, 4, 61, 90
6, 39407, Note_on_c, 4, 61, 0
6, 39420, Note_on_c, 4, 61, 90
6, 39467, Note_on_c, 4, 61, 0
6, 39480, Note_on_c, 4, 66, 90
6, 39527, Note_on_c, 4, 66, 0
6, 39540, Note_on_c, 4, 64, 90
6, 39563, Note_on_c, 4, 64, 0
6, 39570, Note_on_c, 4, 63, 90
6, 39593, Note_on_c, 4, 63, 0
6, 39600, Note_on_c, 4, 64, 90
6, 39695, Note_on_c, 4, 64, 0
6, 39990, Note_on_c, 4, 73, 90
6, 40013, Note_on_c, 4, 73, 0
6, 40020, Note_on_c, 4, 76, 90
6, 40043, Note_on_c, 4, 76, 0
6, 40050, Note_on_c, 4, 73, 90
6, 40073, Note_on_c, 4, 73, 0
6, 40080, Note_on_c, 4, 68, 90
6, 40103, Note_on_c, 4, 68, 0
6, 40110, Note_on_c, 4, 73, 90
6, 40133, Note_on_c, 4, 73, 0
6, 40140, Note_on_c, 4, 64, 90
6, 40163, Note_on_c, 4, 64, 0
6, 40170, Note_on_c, 4, 68, 90
6, 40193, Note_on_c, 4, 68, 0
6, 40200, Note_on_c, 4, 63, 90
6, 40247, Note_on_c, 4, 63, 0
6, 40260, Note_on_c, 4, 68, 90
6, 40307, Note_on_c, 4, 68, 0
6, 40320, Note_on_c, 4, 68, 90
6, 40367, Note_on_c, 4, 68, 0
6, 40380, Note_on_c, 4, 64, 90
6, 40427, Note_on_c, 4, 64, 0
6, 41430, Note_on_c, 4, 71, 90
6, 41453, Note_on_c, 4, 71, 0
6, 41460, Note_on_c, 4, 74, 90
6, 41483, Note_on_c, 4, 74, 0
6, 41490, Note_on_c, 4, 71, 90
6, 41513, Note_on_c, 4, 71, 0
6, 41520, Note_on_c, 4, 66, 90
6, 41543, Note_on_c, 4, 66, 0
6, 41550, Note_on_c, 4, 71, 90
6, 41573, Note_on_c, 4, 71, 0
6, 41580, Note_on_c, 4, 62, 90
6, 41603, Note_on_c, 4, 62, 0
6, 41610, Note_on_c, 4, 66, 90
6, 41633, Note_on_c, 4, 66, 0
6, 41640, Note_on_c, 4, 61, 90
6, 41687, Note_on_c, 4, 61, 0
6, 41700, Note_on_c, 4, 66, 90
6, 41747, Note_on_c, 4, 66, 0
6, 41760, Note_on_c, 4, 66, 90
6, 41807, Note_on_c, 4, 66, 0
6, 41820, Note_on_c, 4, 62, 90
6, 41867, Note_on_c, 4, 62, 0
6, 42900, Note_on_c, 4, 67, 90
6, 42923, Note_on_c, 4, 67, 0
6, 42930, Note_on_c, 4, 66, 90
6, 42953, Note_on_c, 4, 66, 0
6, 42960, Note_on_c, 4, 64, 90
6, 43007, Note_on_c, 4, 64, 0
6, 43020, Note_on_c, 4, 67, 90
6, 43067, Note_on_c, 4, 67, 0
6, 43080, Note_on_c, 4, 66, 90
6, 43127, Note_on_c, 4, 66, 0
6, 43140, Note_on_c, 4, 54, 90
6, 43187, Note_on_c, 4, 54, 0
6, 43200, Note_on_c, 4, 59, 90
6, 43343, Note_on_c, 4, 59, 0
6, 43380, Note_on_c, 4, 64, 90
6, 43427, Note_on_c, 4, 64, 0
6, 43440, Note_on_c, 4, 66, 90
6, 43583, Note_on_c, 4, 66, 0
6, 43620, Note_on_c, 4, 64, 90
6, 43643, Note_on_c, 4, 64, 0
6, 43650, Note_on_c, 4, 62, 90
6, 43673, Note_on_c, 4, 62, 0
6, 43680, Note_on_c, 4, 64, 90
6, 43919, Note_on_c, 4, 64, 0
6, 43980, Note_on_c, 4, 62, 90
6, 44003, Note_on_c, 4, 62, 0
6, 44010, Note_on_c, 4, 61, 90
6, 44033, Note_on_c, 4, 61, 0
6, 44040, Note_on_c, 4, 62, 90
6, 44183, Note_on_c, 4, 62, 0
6, 44220, Note_on_c, 4, 59, 90
6, 44267, Note_on_c, 4, 59, 0
6, 44280, Note_on_c, 4, 56, 90
6, 44423, Note_on_c, 4, 56, 0
6, 44460, Note_on_c, 4, 61, 90
6, 44507, Note_on_c, 4, 61, 0
6, 44520, Note_on_c, 4, 54, 90
6, 44567, Note_on_c, 4, 54, 0
6, 44580, Note_on_c, 4, 61, 90
6, 44675, Note_on_c, 4, 61, 0
6, 44700, Note_on_c, 4, 54, 90
6, 44723, Note_on_c, 4, 54, 0
6, 44730, Note_on_c, 4, 56, 90
6, 44753, Note_on_c, 4, 56, 0
6, 44760, Note_on_c, 4, 57, 90
6, 44807, Note_on_c, 4, 57, 0
6, 44820, Note_on_c, 4, 57, 90
6, 44867, Note_on_c, 4, 57, 0
6, 44880, Note_on_c, 4, 59, 90
6, 44927, Note_on_c, 4, 59, 0
6, 44940, Note_on_c, 4, 57, 90
6, 44963, Note_on_c, 4, 57, 0
6, 44970, Note_on_c, 4, 56, 90
6, 44993, Note_on_c, 4, 56, 0
6, 45000, Note_on_c, 4, 57, 90
6, 45095, Note_on_c, 4, 57, 0
6, 45360, Note_on_c, 4, 69, 90
6, 45407, Note_on_c, 4, 69, 0
6, 45420, Note_on_c, 4, 64, 90
6, 45467, Note_on_c, 4, 64, 0
6, 45750, Note_on_c, 4, 69, 90
6, 45773, Note_on_c, 4, 69, 0
6, 45780, Note_on_c, 4, 73, 90
6, 45803, Note_on_c, 4, 73, 0
6, 45810, Note_on_c, 4, 69, 90
6, 45833, Note_on_c, 4, 69, 0
6, 45840, Note_on_c, 4, 64, 90
6, 45863, Note_on_c, 4, 64, 0
6, 45870, Note_on_c, 4, 69, 90
6, 45893, Note_on_c, 4, 69, 0
6, 45900, Note_on_c, 4, 61, 90
6, 45923, Note_on_c, 4, 61, 0
6, 45930, Note_on_c, 4, 64, 90
6, 45953, Note_on_c, 4, 64, 0
6, 45960, Note_on_c, 4, 52, 90
6, 46007, Note_on_c, 4, 52, 0
6, 46020, Note_on_c, 4, 64, 90
6, 46067, Note_on_c, 4, 64, 0
6, 46080, Note_on_c, 4, 64, 90
6, 46127, Note_on_c, 4, 64, 0
6, 46140, Note_on_c, 4, 61, 90
6, 46187, Note_on_c, 4, 61, 0
6, 46470, Note_on_c, 4, 64, 90
6, 46493, Note_on_c, 4, 64, 0
6, 46500, Note_on_c, 4, 69, 90
6, 46523, Note_on_c, 4, 69, 0
6, 46530, Note_on_c, 4, 64, 90
6, 46553, Note_on_c, 4, 64, 0
6, 46560, Note_on_c, 4, 61, 90
6, 46583, Note_on_c, 4, 61, 0
6, 46590, Note_on_c, 4, 64, 90
6, 46613, Note_on_c, 4, 64, 0
6, 46620, Note_on_c, 4, 57, 90
6, 46643, Note_on_c, 4, 57, 0
6, 46650, Note_on_c, 4, 61, 90
6, 46673, Note_on_c, 4, 61, 0
6, 46680, Note_on_c, 4, 56, 90
6, 46727, Note_on_c, 4, 56, 0
6, 46740, Note_on_c, 4, 56, 90
6, 46787, Note_on_c, 4, 56, 0
6, 46800, Note_on_c, 4, 52, 90
6, 46847, Note_on_c, 4, 52, 0
6, 46860, Note_on_c, 4, 61, 90
6, 46907, Note_on_c, 4, 61, 0
6, 46980, Note_on_c, 4, 64, 90
6, 47027, Note_on_c, 4, 64, 0
6, 47040, Note_on_c, 4, 61, 90
6, 47087, Note_on_c, 4, 61, 0
6, 47100, Note_on_c, 4, 64, 90
6, 47147, Note_on_c, 4, 64, 0
6, 47160, Note_on_c, 4, 57, 90
6, 47255, Note_on_c, 4, 57, 0
6, 47340, Note_on_c, 4, 62, 90
6, 47387, Note_on_c, 4, 62, 0
6, 47400, Note_on_c, 4, 62, 90
6, 47447, Note_on_c, 4, 62, 0
6, 47460, Note_on_c, 4, 57, 90
6, 47507, Note_on_c, 4, 57, 0
6, 47520, Note_on_c, 4, 59, 90
6, 47567, Note_on_c, 4, 59, 0
6, 47580, Note_on_c, 4, 71, 90
6, 47627, Note_on_c, 4, 71, 0
6, 47700, Note_on_c, 4, 66, 90
6, 47747, Note_on_c, 4, 66, 0
6, 47760, Note_on_c, 4, 66, 90
6, 47807, Note_on_c, 4, 66, 0
6, 47820, Note_on_c, 4, 66, 90
6, 47867, Note_on_c, 4, 66, 0
6, 47880, Note_on_c, 4, 64, 90
6, 47927, Note_on_c, 4, 64, 0
6, 47940, Note_on_c, 4, 68, 90
6, 47987, Note_on_c, 4, 68, 0
6, 48060, Note_on_c, 4, 64, 90
6, 48107, Note_on_c, 4, 64, 0
6, 48120, Note_on_c, 4, 64, 90
6, 48167, Note_on_c, 4, 64, 0
6, 48180, Note_on_c, 4, 64, 90
6, 48227, Note_on_c, 4, 64, 0
6, 48240, Note_on_c, 4, 68, 90
6, 48335, Note_on_c, 4, 68, 0
6, 48420, Note_on_c, 4, 64, 90
6, 48467, Note_on_c, 4, 64, 0
6, 48480, Note_on_c, 4, 64, 90
6, 48527, Note_on_c, 4, 64, 0
6, 48540, Note_on_c, 4, 64, 90
6, 48587, Note_on_c, 4, 64, 0
6, 48600, Note_on_c, 4, 64, 90
6, 48647, Note_on_c, 4, 64, 0
6, 48660, Note_on_c, 4, 69, 90
6, 48707, Note_on_c, 4, 69, 0
6, 48720, Note_on_c, 4, 69, 90
6, 48767, Note_on_c, 4, 69, 0
6, 48780, Note_on_c, 4, 64, 90
6, 48827, Note_on_c, 4, 64, 0
6, 48840, Note_on_c, 4, 64, 90
6, 48887, Note_on_c, 4, 64, 0
6, 48900, Note_on_c, 4, 69, 90
6, 48947, Note_on_c, 4, 69, 0
6, 48960, Note_on_c, 4, 66, 90
6, 49007, Note_on_c, 4, 66, 0
6, 49020, Note_on_c, 4, 69, 90
6, 49067, Note_on_c, 4, 69, 0
6, 49080, Note_on_c, 4, 69, 90
6, 49127, Note_on_c, 4, 69, 0
6, 49140, Note_on_c, 4, 66, 90
6, 49187, Note_on_c, 4, 66, 0
6, 49200, Note_on_c, 4, 66, 90
6, 49247, Note_on_c, 4, 66, 0
6, 49260, Note_on_c, 4, 69, 90
6, 49307, Note_on_c, 4, 69, 0
6, 49320, Note_on_c, 4, 61, 90
6, 49367, Note_on_c, 4, 61, 0
6, 49380, Note_on_c, 4, 64, 90
6, 49427, Note_on_c, 4, 64, 0
6, 49440, Note_on_c, 4, 69, 90
6, 49487, Note_on_c, 4, 69, 0
6, 49500, Note_on_c, 4, 69, 90
6, 49547, Note_on_c, 4, 69, 0
6, 49560, Note_on_c, 4, 66, 90
6, 49607, Note_on_c, 4, 66, 0
6, 49620, Note_on_c, 4, 66, 90
6, 49667, Note_on_c, 4, 66, 0
6, 49680, Note_on_c, 4, 62, 90
6, 49727, Note_on_c, 4, 62, 0
6, 49740, Note_on_c, 4, 64, 90
6, 49787, Note_on_c, 4, 64, 0
6, 49800, Note_on_c, 4, 64, 90
6, 49847, Note_on_c, 4, 64, 0
6, 49860, Note_on_c, 4, 59, 90
6, 49907, Note_on_c, 4, 59, 0
6, 49920, Note_on_c, 4, 59, 90
6, 49967, Note_on_c, 4, 59, 0
6, 49980, Note_on_c, 4, 64, 90
6, 50027, Note_on_c, 4, 64, 0
6, 50040, Note_on_c, 4, 64, 90
6, 50087, Note_on_c, 4, 64, 0
6, 50160, Note_on_c, 4, 62, 90
6, 50207, Note_on_c, 4, 62, 0
6, 50280, Note_on_c, 4, 57, 90
6, 50327, Note_on_c, 4, 57, 0
6, 50400, Note_on_c, 4, 69, 90
6, 50447, Note_on_c, 4, 69, 0
6, 50520, Note_on_c, 4, 68, 90
6, 50567, Note_on_c, 4, 68, 0
6, 50640, Note_on_c, 4, 66, 90
6, 50687, Note_on_c, 4, 66, 0
6, 50760, Note_on_c, 4, 64, 90
6, 50807, Note_on_c, 4, 64, 0
6, 50820, Note_on_c, 4, 68, 90
6, 50867, Note_on_c, 4, 68, 0
6, 50880, Note_on_c, 4, 69, 90
6, 50927, Note_on_c, 4, 69, 0
6, 50940, Note_on_c, 4, 57, 90
6, 50963, Note_on_c, 4, 57, 0
6, 50970, Note_on_c, 4, 59, 90
6, 50993, Note_on_c, 4, 59, 0
6, 51000, Note_on_c, 4, 61, 90
6, 51047, Note_on_c, 4, 61, 0
6, 51060, Note_on_c, 4, 62, 90
6, 51107, Note_on_c, 4, 62, 0
6, 51120, Note_on_c, 4, 61, 90
6, 51215, Note_on_c, 4, 61, 0
6, 52230, Note_on_c, 4, 69, 90
6, 52253, Note_on_c, 4, 69, 0
6, 52260, Note_on_c, 4, 73, 90
6, 52283, Note_on_c, 4, 73, 0
6, 52290, Note_on_c, 4, 69, 90
6, 52313, Note_on_c, 4, 69, 0
6, 52320, Note_on_c, 4, 64, 90
6, 52343, Note_on_c, 4, 64, 0
6, 52350, Note_on_c, 4, 69, 90
6, 52373, Note_on_c, 4, 69, 0
6, 52380, Note_on_c, 4, 61, 90
6, 52403, Note_on_c, 4, 61, 0
6, 52410, Note_on_c, 4, 64, 90
6, 52433, Note_on_c, 4, 64, 0
6, 52440, Note_on_c, 4, 52, 90
6, 52487, Note_on_c, 4, 52, 0
6, 52500, Note_on_c, 4, 64, 90
6, 52547, Note_on_c, 4, 64, 0
6, 52560, Note_on_c, 4, 64, 90
6, 52607, Note_on_c, 4, 64, 0
6, 52620, Note_on_c, 4, 61, 90
6, 52667, Note_on_c, 4, 61, 0
6, 54030, Note_on_c, 4, 64, 90
6, 54053, Note_on_c, 4, 64, 0
6, 54060, Note_on_c, 4, 68, 90
6, 54083, Note_on_c, 4, 68, 0
6, 54090, Note_on_c, 4, 64, 90
6, 54113, Note_on_c, 4, 64, 0
6, 54120, Note_on_c, 4, 59, 90
6, 54143, Note_on_c, 4, 59, 0
6, 54150, Note_on_c, 4, 64, 90
6, 54173, Note_on_c, 4, 64, 0
6, 54180, Note_on_c, 4, 56, 90
6, 54203, Note_on_c, 4, 56, 0
6, 54210, Note_on_c, 4, 59, 90
6, 54233, Note_on_c, 4, 59, 0
6, 54240, Note_on_c, 4, 54, 90
6, 54287, Note_on_c, 4, 54, 0
6, 54300, Note_on_c, 4, 59, 90
6, 54347, Note_on_c, 4, 59, 0
6, 54360, Note_on_c, 4, 59, 90
6, 54407, Note_on_c, 4, 59, 0
6, 54420, Note_on_c, 4, 71, 90
6, 54467, Note_on_c, 4, 71, 0
6, 55830, Note_on_c, 4, 69, 90
6, 55853, Note_on_c, 4, 69, 0
6, 55860, Note_on_c, 4, 73, 90
6, 55883, Note_on_c, 4, 73, 0
6, 55890, Note_on_c, 4, 69, 90
6, 55913, Note_on_c, 4, 69, 0
6, 55920, Note_on_c, 4, 64, 90
6, 55943, Note_on_c, 4, 64, 0
6, 55950, Note_on_c, 4, 69, 90
6, 55973, Note_on_c, 4, 69, 0
6, 55980, Note_on_c, 4, 61, 90
6, 56003, Note_on_c, 4, 61, 0
6, 56010, Note_on_c, 4, 64, 90
6, 56033, Note_on_c, 4, 64, 0
6, 56040, Note_on_c, 4, 52, 90
6, 56087, Note_on_c, 4, 52, 0
6, 56100, Note_on_c, 4, 64, 90
6, 56147, Note_on_c, 4, 64, 0
6, 56160, Note_on_c, 4, 64, 90
6, 56207, Note_on_c, 4, 64, 0
6, 56220, Note_on_c, 4, 61, 90
6, 56267, Note_on_c, 4, 61, 0
6, 56880, Note_on_c, 4, 64, 90
6, 56910, Note_on_c, 4, 64, 0
6, 56940, Note_on_c, 4, 68, 90
6, 56970, Note_on_c, 4, 68, 0
6, 57600, Note_on_c, 4, 63, 90
6, 57630, Note_on_c, 4, 63, 0
6, 57660, Note_on_c, 4, 66, 90
6, 57690, Note_on_c, 4, 66, 0
6, 58320, Note_on_c, 4, 57, 90
6, 58350, Note_on_c, 4, 57, 0
6, 58380, Note_on_c, 4, 64, 90
6, 58410, Note_on_c, 4, 64, 0
6, 59040, Note_on_c, 4, 59, 90
6, 59070, Note_on_c, 4, 59, 0
6, 59100, Note_on_c, 4, 71, 90
6, 59130, Note_on_c, 4, 71, 0
6, 59940, Note_on_c, 4, 54, 90
6, 59987, Note_on_c, 4, 54, 0
6, 60000, Note_on_c, 4, 59, 90
6, 60047, Note_on_c, 4, 59, 0
6, 60060, Note_on_c, 4, 59, 90
6, 60107, Note_on_c, 4, 59, 0
6, 60120, Note_on_c, 4, 59, 90
6, 60167, Note_on_c, 4, 59, 0
6, 60180, Note_on_c, 4, 68, 90
6, 60227, Note_on_c, 4, 68, 0
6, 60300, Note_on_c, 4, 64, 90
6, 60347, Note_on_c, 4, 64, 0
6, 60360, Note_on_c, 4, 64, 90
6, 60407, Note_on_c, 4, 64, 0
6, 60420, Note_on_c, 4, 64, 90
6, 60467, Note_on_c, 4, 64, 0
6, 60480, Note_on_c, 4, 64, 90
6, 60527, Note_on_c, 4, 64, 0
6, 60540, Note_on_c, 4, 52, 90
6, 60587, Note_on_c, 4, 52, 0
6, 60660, Note_on_c, 4, 64, 90
6, 60707, Note_on_c, 4, 64, 0
6, 60720, Note_on_c, 4, 64, 90
6, 60767, Note_on_c, 4, 64, 0
6, 60780, Note_on_c, 4, 64, 90
6, 60827, Note_on_c, 4, 64, 0
6, 60840, Note_on_c, 4, 66, 90
6, 60887, Note_on_c, 4, 66, 0
6, 60900, Note_on_c, 4, 61, 90
6, 60947, Note_on_c, 4, 61, 0
6, 61020, Note_on_c, 4, 66, 90
6, 61067, Note_on_c, 4, 66, 0
6, 61080, Note_on_c, 4, 66, 90
6, 61127, Note_on_c, 4, 66, 0
6, 61140, Note_on_c, 4, 66, 90
6, 61187, Note_on_c, 4, 66, 0
6, 61200, Note_on_c, 4, 66, 90
6, 61247, Note_on_c, 4, 66, 0
6, 61260, Note_on_c, 4, 54, 90
6, 61307, Note_on_c, 4, 54, 0
6, 61380, Note_on_c, 4, 66, 90
6, 61427, Note_on_c, 4, 66, 0
6, 61440, Note_on_c, 4, 66, 90
6, 61487, Note_on_c, 4, 66, 0
6, 61500, Note_on_c, 4, 66, 90
6, 61547, Note_on_c, 4, 66, 0
6, 61560, Note_on_c, 4, 66, 90
6, 61607, Note_on_c, 4, 66, 0
6, 61620, Note_on_c, 4, 63, 90
6, 61667, Note_on_c, 4, 63, 0
6, 61740, Note_on_c, 4, 66, 90
6, 61787, Note_on_c, 4, 66, 0
6, 61800, Note_on_c, 4, 66, 90
6, 61847, Note_on_c, 4, 66, 0
6, 61860, Note_on_c, 4, 66, 90
6, 61907, Note_on_c, 4, 66, 0
6, 61920, Note_on_c, 4, 64, 90
6, 61967, Note_on_c, 4, 64, 0
6, 61980, Note_on_c, 4, 71, 90
6, 62027, Note_on_c, 4, 71, 0
6, 62040, Note_on_c, 4, 71, 90
6, 62087, Note_on_c, 4, 71, 0
6, 62100, Note_on_c, 4, 68, 90
6, 62147, Note_on_c, 4, 68, 0
6, 62160, Note_on_c, 4, 64, 90
6, 62207, Note_on_c, 4, 64, 0
6, 62220, Note_on_c, 4, 64, 90
6, 62267, Note_on_c, 4, 64, 0
6, 62280, Note_on_c, 4, 64, 90
6, 62327, Note_on_c, 4, 64, 0
6, 62340, Note_on_c, 4, 69, 90
6, 62387, Note_on_c, 4, 69, 0
6, 62400, Note_on_c, 4, 69, 90
6, 62447, Note_on_c, 4, 69, 0
6, 62460, Note_on_c, 4, 64, 90
6, 62507, Note_on_c, 4, 64, 0
6, 62520, Note_on_c, 4, 64, 90
6, 62567, Note_on_c, 4, 64, 0
6, 62580, Note_on_c, 4, 64, 90
6, 62627, Note_on_c, 4, 64, 0
6, 62640, Note_on_c, 4, 64, 90
6, 62687, Note_on_c, 4, 64, 0
6, 62700, Note_on_c, 4, 68, 90
6, 62747, Note_on_c, 4, 68, 0
6, 62760, Note_on_c, 4, 68, 90
6, 62807, Note_on_c, 4, 68, 0
6, 62820, Note_on_c, 4, 64, 90
6, 62867, Note_on_c, 4, 64, 0
6, 62880, Note_on_c, 4, 64, 90
6, 62927, Note_on_c, 4, 64, 0
6, 62940, Note_on_c, 4, 64, 90
6, 62987, Note_on_c, 4, 64, 0
6, 63000, Note_on_c, 4, 61, 90
6, 63047, Note_on_c, 4, 61, 0
6, 63060, Note_on_c, 4, 63, 90
6, 63107, Note_on_c, 4, 63, 0
6, 63120, Note_on_c, 4, 63, 90
6, 63167, Note_on_c, 4, 63, 0
6, 63180, Note_on_c, 4, 59, 90
6, 63227, Note_on_c, 4, 59, 0
6, 63240, Note_on_c, 4, 59, 90
6, 63287, Note_on_c, 4, 59, 0
6, 63300, Note_on_c, 4, 71, 90
6, 63323, Note_on_c, 4, 71, 0
6, 63330, Note_on_c, 4, 69, 90
6, 63353, Note_on_c, 4, 69, 0
6, 63360, Note_on_c, 4, 69, 90
6, 63407, Note_on_c, 4, 69, 0
6, 63480, Note_on_c, 4, 73, 90
6, 63527, Note_on_c, 4, 73, 0
6, 63600, Note_on_c, 4, 71, 90
6, 63647, Note_on_c, 4, 71, 0
6, 63720, Note_on_c, 4, 69, 90
6, 63767, Note_on_c, 4, 69, 0
6, 63840, Note_on_c, 4, 69, 90
6, 63887, Note_on_c, 4, 69, 0
6, 63960, Note_on_c, 4, 68, 90
6, 64007, Note_on_c, 4, 68, 0
6, 64080, Note_on_c, 4, 66, 90
6, 64127, Note_on_c, 4, 66, 0
6, 64140, Note_on_c, 4, 71, 90
6, 64187, Note_on_c, 4, 71, 0
6, 64200, Note_on_c, 4, 71, 90
6, 64247, Note_on_c, 4, 71, 0
6, 64260, Note_on_c, 4, 59, 90
6, 64307, Note_on_c, 4, 59, 0
6, 64320, Note_on_c, 4, 59, 90
6, 64367, Note_on_c, 4, 59, 0
6, 64380, Note_on_c, 4, 59, 90
6, 64427, Note_on_c, 4, 59, 0
6, 64440, Note_on_c, 4, 59, 90
6, 64487, Note_on_c, 4, 59, 0
6, 64500, Note_on_c, 4, 68, 90
6, 64547, Note_on_c, 4, 68, 0
6, 64830, Note_on_c, 4, 64, 90
6, 64853, Note_on_c, 4, 64, 0
6, 64860, Note_on_c, 4, 68, 90
6, 64883, Note_on_c, 4, 68, 0
6, 64890, Note_on_c, 4, 64, 90
6, 64913, Note_on_c, 4, 64, 0
6, 64920, Note_on_c, 4, 59, 90
6, 64943, Note_on_c, 4, 59, 0
6, 64950, Note_on_c, 4, 64, 90
6, 64973, Note_on_c, 4, 64, 0
6, 64980, Note_on_c, 4, 71, 90
6, 65027, Note_on_c, 4, 71, 0
6, 65040, Note_on_c, 4, 71, 90
6, 65087, Note_on_c, 4, 71, 0
6, 65100, Note_on_c, 4, 71, 90
6, 65147, Note_on_c, 4, 71, 0
6, 65160, Note_on_c, 4, 71, 90
6, 65207, Note_on_c, 4, 71, 0
6, 65220, Note_on_c, 4, 68, 90
6, 65267, Note_on_c, 4, 68, 0
6, 65550, Note_on_c, 4, 71, 90
6, 65573, Note_on_c, 4, 71, 0
6, 65580, Note_on_c, 4, 76, 90
6, 65603, Note_on_c, 4, 76, 0
6, 65610, Note_on_c, 4, 71, 90
6, 65633, Note_on_c, 4, 71, 0
6, 65640, Note_on_c, 4, 68, 90
6, 65663, Note_on_c, 4, 68, 0
6, 65670, Note_on_c, 4, 71, 90
6, 65693, Note_on_c, 4, 71, 0
6, 65700, Note_on_c, 4, 64, 90
6, 65723, Note_on_c, 4, 64, 0
6, 65730, Note_on_c, 4, 68, 90
6, 65753, Note_on_c, 4, 68, 0
6, 65760, Note_on_c, 4, 63, 90
6, 65807, Note_on_c, 4, 63, 0
6, 65820, Note_on_c, 4, 63, 90
6, 65867, Note_on_c, 4, 63, 0
6, 65880, Note_on_c, 4, 59, 90
6, 65927, Note_on_c, 4, 59, 0
6, 65940, Note_on_c, 4, 56, 90
6, 65987, Note_on_c, 4, 56, 0
6, 66060, Note_on_c, 4, 69, 90
6, 66083, Note_on_c, 4, 69, 0
6, 66090, Note_on_c, 4, 66, 90
6, 66113, Note_on_c, 4, 66, 0
6, 66120, Note_on_c, 4, 68, 90
6, 66167, Note_on_c, 4, 68, 0
6, 66180, Note_on_c, 4, 71, 90
6, 66227, Note_on_c, 4, 71, 0
6, 66240, Note_on_c, 4, 64, 90
6, 66287, Note_on_c, 4, 64, 0
6, 66300, Note_on_c, 4, 61, 90
6, 66347, Note_on_c, 4, 61, 0
6, 66420, Note_on_c, 4, 64, 90
6, 66443, Note_on_c, 4, 64, 0
6, 66450, Note_on_c, 4, 62, 90
6, 66473, Note_on_c, 4, 62, 0
6, 66480, Note_on_c, 4, 64, 90
6, 66527, Note_on_c, 4, 64, 0
6, 66540, Note_on_c, 4, 61, 90
6, 66587, Note_on_c, 4, 61, 0
6, 66600, Note_on_c, 4, 64, 90
6, 66647, Note_on_c, 4, 64, 0
6, 66660, Note_on_c, 4, 68, 90
6, 66707, Note_on_c, 4, 68, 0
6, 66780, Note_on_c, 4, 64, 90
6, 66803, Note_on_c, 4, 64, 0
6, 66810, Note_on_c, 4, 66, 90
6, 66833, Note_on_c, 4, 66, 0
6, 66840, Note_on_c, 4, 64, 90
6, 66887, Note_on_c, 4, 64, 0
6, 66900, Note_on_c, 4, 59, 90
6, 66947, Note_on_c, 4, 59, 0
6, 66960, Note_on_c, 4, 57, 90
6, 67007, Note_on_c, 4, 57, 0
6, 67020, Note_on_c, 4, 64, 90
6, 67067, Note_on_c, 4, 64, 0
6, 67350, Note_on_c, 4, 69, 90
6, 67373, Note_on_c, 4, 69, 0
6, 67380, Note_on_c, 4, 73, 90
6, 67403, Note_on_c, 4, 73, 0
6, 67410, Note_on_c, 4, 69, 90
6, 67433, Note_on_c, 4, 69, 0
6, 67440, Note_on_c, 4, 64, 90
6, 67463, Note_on_c, 4, 64, 0
6, 67470, Note_on_c, 4, 69, 90
6, 67493, Note_on_c, 4, 69, 0
6, 67500, Note_on_c, 4, 61, 90
6, 67523, Note_on_c, 4, 61, 0
6, 67530, Note_on_c, 4, 64, 90
6, 67553, Note_on_c, 4, 64, 0
6, 67560, Note_on_c, 4, 52, 90
6, 67607, Note_on_c, 4, 52, 0
6, 67620, Note_on_c, 4, 64, 90
6, 67667, Note_on_c, 4, 64, 0
6, 67680, Note_on_c, 4, 64, 90
6, 67727, Note_on_c, 4, 64, 0
6, 67740, Note_on_c, 4, 61, 90
6, 67787, Note_on_c, 4, 61, 0
6, 68070, Note_on_c, 4, 64, 90
6, 68093, Note_on_c, 4, 64, 0
6, 68100, Note_on_c, 4, 69, 90
6, 68123, Note_on_c, 4, 69, 0
6, 68130, Note_on_c, 4, 64, 90
6, 68153, Note_on_c, 4, 64, 0
6, 68160, Note_on_c, 4, 61, 90
6, 68183, Note_on_c, 4, 61, 0
6, 68190, Note_on_c, 4, 64, 90
6, 68213, Note_on_c, 4, 64, 0
6, 68220, Note_on_c, 4, 57, 90
6, 68243, Note_on_c, 4, 57, 0
6, 68250, Note_on_c, 4, 61, 90
6, 68273, Note_on_c, 4, 61, 0
6, 68280, Note_on_c, 4, 56, 90
6, 68327, Note_on_c, 4, 56, 0
6, 68340, Note_on_c, 4, 56, 90
6, 68387, Note_on_c, 4, 56, 0
6, 68400, Note_on_c, 4, 52, 90
6, 68447, Note_on_c, 4, 52, 0
6, 68460, Note_on_c, 4, 61, 90
6, 68507, Note_on_c, 4, 61, 0
6, 68580, Note_on_c, 4, 62, 90
6, 68603, Note_on_c, 4, 62, 0
6, 68610, Note_on_c, 4, 59, 90
6, 68633, Note_on_c, 4, 59, 0
6, 68640, Note_on_c, 4, 61, 90
6, 68687, Note_on_c, 4, 61, 0
6, 68700, Note_on_c, 4, 64, 90
6, 68747, Note_on_c, 4, 64, 0
6, 68760, Note_on_c, 4, 57, 90
6, 68807, Note_on_c, 4, 57, 0
6, 68820, Note_on_c, 4, 54, 90
6, 68867, Note_on_c, 4, 54, 0
6, 68940, Note_on_c, 4, 57, 90
6, 68963, Note_on_c, 4, 57, 0
6, 68970, Note_on_c, 4, 55, 90
6, 68993, Note_on_c, 4, 55, 0
6, 69000, Note_on_c, 4, 57, 90
6, 69047, Note_on_c, 4, 57, 0
6, 69060, Note_on_c, 4, 66, 90
6, 69107, Note_on_c, 4, 66, 0
6, 69120, Note_on_c, 4, 57, 90
6, 69167, Note_on_c, 4, 57, 0
6, 69180, Note_on_c, 4, 61, 90
6, 69227, Note_on_c, 4, 61, 0
6, 69300, Note_on_c, 4, 64, 90
6, 69323, Note_on_c, 4, 64, 0
6, 69330, Note_on_c, 4, 66, 90
6, 69353, Note_on_c, 4, 66, 0
6, 69360, Note_on_c, 4, 64, 90
6, 69407, Note_on_c, 4, 64, 0
6, 69420, Note_on_c, 4, 69, 90
6, 69467, Note_on_c, 4, 69, 0
6, 69480, Note_on_c, 4, 69, 90
6, 69527, Note_on_c, 4, 69, 0
6, 69540, Note_on_c, 4, 66, 90
6, 69587, Note_on_c, 4, 66, 0
6, 69780, Note_on_c, 4, 57, 90
6, 69827, Note_on_c, 4, 57, 0
6, 69840, Note_on_c, 4, 56, 90
6, 69887, Note_on_c, 4, 56, 0
6, 70140, Note_on_c, 4, 62, 90
6, 70187, Note_on_c, 4, 62, 0
6, 70200, Note_on_c, 4, 61, 90
6, 70247, Note_on_c, 4, 61, 0
6, 70500, Note_on_c, 4, 61, 90
6, 70547, Note_on_c, 4, 61, 0
6, 70560, Note_on_c, 4, 62, 90
6, 70607, Note_on_c, 4, 62, 0
6, 70860, Note_on_c, 4, 61, 90
6, 70907, Note_on_c, 4, 61, 0
6, 70920, Note_on_c, 4, 59, 90
6, 70967, Note_on_c, 4, 59, 0
6, 70980, Note_on_c, 4, 54, 90
6, 71027, Note_on_c, 4, 54, 0
6, 71100, Note_on_c, 4, 66, 90
6, 71147, Note_on_c, 4, 66, 0
6, 71160, Note_on_c, 4, 66, 90
6, 71207, Note_on_c, 4, 66, 0
6, 71220, Note_on_c, 4, 66, 90
6, 71267, Note_on_c, 4, 66, 0
6, 71280, Note_on_c, 4, 64, 90
6, 71375, Note_on_c, 4, 64, 0
6, 71460, Note_on_c, 4, 64, 90
6, 71507, Note_on_c, 4, 64, 0
6, 71520, Note_on_c, 4, 66, 90
6, 71567, Note_on_c, 4, 66, 0
6, 71580, Note_on_c, 4, 68, 90
6, 71627, Note_on_c, 4, 68, 0
6, 71640, Note_on_c, 4, 64, 90
6, 71687, Note_on_c, 4, 64, 0
6, 71700, Note_on_c, 4, 66, 90
6, 71747, Note_on_c, 4, 66, 0
6, 71760, Note_on_c, 4, 64, 90
6, 71807, Note_on_c, 4, 64, 0
6, 71820, Note_on_c, 4, 62, 90
6, 71867, Note_on_c, 4, 62, 0
6, 71880, Note_on_c, 4, 64, 90
6, 71927, Note_on_c, 4, 64, 0
6, 71940, Note_on_c, 4, 66, 90
6, 71987, Note_on_c, 4, 66, 0
6, 72000, Note_on_c, 4, 64, 90
6, 72095, Note_on_c, 4, 64, 0
6, 72120, Note_on_c, 4, 64, 90
6, 72167, Note_on_c, 4, 64, 0
6, 72360, Note_on_c, 4, 64, 90
6, 72390, Note_on_c, 4, 64, 0
6, 72420, Note_on_c, 4, 61, 90
6, 72450, Note_on_c, 4, 61, 0
6, 72720, Note_on_c, 4, 57, 90
6, 72750, Note_on_c, 4, 57, 0
6, 72780, Note_on_c, 4, 61, 90
6, 72810, Note_on_c, 4, 61, 0
6, 73080, Note_on_c, 4, 66, 90
6, 73110, Note_on_c, 4, 66, 0
6, 73140, Note_on_c, 4, 59, 90
6, 73170, Note_on_c, 4, 59, 0
6, 73440, Note_on_c, 4, 59, 90
6, 73470, Note_on_c, 4, 59, 0
6, 73500, Note_on_c, 4, 68, 90
6, 73530, Note_on_c, 4, 68, 0
6, 73800, Note_on_c, 4, 64, 90
6, 73830, Note_on_c, 4, 64, 0
6, 73860, Note_on_c, 4, 76, 90
6, 73890, Note_on_c, 4, 76, 0
6, 74160, Note_on_c, 4, 74, 90
6, 74190, Note_on_c, 4, 74, 0
6, 74220, Note_on_c, 4, 62, 90
6, 74250, Note_on_c, 4, 62, 0
6, 74520, Note_on_c, 4, 62, 90
6, 74550, Note_on_c, 4, 62, 0
6, 74580, Note_on_c, 4, 64, 90
6, 74610, Note_on_c, 4, 64, 0
6, 74880, Note_on_c, 4, 61, 90
6, 74910, Note_on_c, 4, 61, 0
6, 74940, Note_on_c, 4, 69, 90
6, 74970, Note_on_c, 4, 69, 0
6, 75780, Note_on_c, 4, 56, 90
6, 75827, Note_on_c, 4, 56, 0
6, 75840, Note_on_c, 4, 59, 90
6, 75887, Note_on_c, 4, 59, 0
6, 75900, Note_on_c, 4, 56, 90
6, 75947, Note_on_c, 4, 56, 0
6, 75960, Note_on_c, 4, 57, 90
6, 76007, Note_on_c, 4, 57, 0
6, 76020, Note_on_c, 4, 61, 90
6, 76067, Note_on_c, 4, 61, 0
6, 76140, Note_on_c, 4, 64, 90
6, 76187, Note_on_c, 4, 64, 0
6, 76200, Note_on_c, 4, 61, 90
6, 76247, Note_on_c, 4, 61, 0
6, 76260, Note_on_c, 4, 64, 90
6, 76307, Note_on_c, 4, 64, 0
6, 76320, Note_on_c, 4, 57, 90
6, 76367, Note_on_c, 4, 57, 0
6, 76380, Note_on_c, 4, 66, 90
6, 76427, Note_on_c, 4, 66, 0
6, 76500, Note_on_c, 4, 62, 90
6, 76547, Note_on_c, 4, 62, 0
6, 76560, Note_on_c, 4, 62, 90
6, 76607, Note_on_c, 4, 62, 0
6, 76620, Note_on_c, 4, 57, 90
6, 76667, Note_on_c, 4, 57, 0
6, 76680, Note_on_c, 4, 59, 90
6, 76727, Note_on_c, 4, 59, 0
6, 76740, Note_on_c, 4, 71, 90
6, 76787, Note_on_c, 4, 71, 0
6, 76860, Note_on_c, 4, 66, 90
6, 76907, Note_on_c, 4, 66, 0
6, 76920, Note_on_c, 4, 66, 90
6, 76967, Note_on_c, 4, 66, 0
6, 76980, Note_on_c, 4, 66, 90
6, 77027, Note_on_c, 4, 66, 0
6, 77040, Note_on_c, 4, 64, 90
6, 77087, Note_on_c, 4, 64, 0
6, 77100, Note_on_c, 4, 68, 90
6, 77147, Note_on_c, 4, 68, 0
6, 77220, Note_on_c, 4, 64, 90
6, 77267, Note_on_c, 4, 64, 0
6, 77280, Note_on_c, 4, 64, 90
6, 77327, Note_on_c, 4, 64, 0
6, 77340, Note_on_c, 4, 64, 90
6, 77387, Note_on_c, 4, 64, 0
6, 77400, Note_on_c, 4, 56, 90
6, 77495, Note_on_c, 4, 56, 0
6, 77580, Note_on_c, 4, 64, 90
6, 77627, Note_on_c, 4, 64, 0
6, 77640, Note_on_c, 4, 64, 90
6, 77687, Note_on_c, 4, 64, 0
6, 77700, Note_on_c, 4, 64, 90
6, 77747, Note_on_c, 4, 64, 0
6, 77760, Note_on_c, 4, 64, 90
6, 77807, Note_on_c, 4, 64, 0
6, 77820, Note_on_c, 4, 69, 90
6, 77867, Note_on_c, 4, 69, 0
6, 77880, Note_on_c, 4, 69, 90
6, 77927, Note_on_c, 4, 69, 0
6, 77940, Note_on_c, 4, 64, 90
6, 77987, Note_on_c, 4, 64, 0
6, 78000, Note_on_c, 4, 64, 90
6, 78047, Note_on_c, 4, 64, 0
6, 78060, Note_on_c, 4, 69, 90
6, 78107, Note_on_c, 4, 69, 0
6, 78120, Note_on_c, 4, 66, 90
6, 78167, Note_on_c, 4, 66, 0
6, 78180, Note_on_c, 4, 69, 90
6, 78227, Note_on_c, 4, 69, 0
6, 78240, Note_on_c, 4, 69, 90
6, 78287, Note_on_c, 4, 69, 0
6, 78300, Note_on_c, 4, 66, 90
6, 78347, Note_on_c, 4, 66, 0
6, 78360, Note_on_c, 4, 66, 90
6, 78407, Note_on_c, 4, 66, 0
6, 78420, Note_on_c, 4, 69, 90
6, 78467, Note_on_c, 4, 69, 0
6, 78480, Note_on_c, 4, 61, 90
6, 78527, Note_on_c, 4, 61, 0
6, 78540, Note_on_c, 4, 64, 90
6, 78587, Note_on_c, 4, 64, 0
6, 78600, Note_on_c, 4, 69, 90
6, 78647, Note_on_c, 4, 69, 0
6, 78660, Note_on_c, 4, 69, 90
6, 78707, Note_on_c, 4, 69, 0
6, 78720, Note_on_c, 4, 66, 90
6, 78767, Note_on_c, 4, 66, 0
6, 78780, Note_on_c, 4, 66, 90
6, 78827, Note_on_c, 4, 66, 0
6, 78840, Note_on_c, 4, 62, 90
6, 78887, Note_on_c, 4, 62, 0
6, 78900, Note_on_c, 4, 64, 90
6, 78947, Note_on_c, 4, 64, 0
6, 78960, Note_on_c, 4, 64, 90
6, 79007, Note_on_c, 4, 64, 0
6, 79020, Note_on_c, 4, 59, 90
6, 79067, Note_on_c, 4, 59, 0
6, 79080, Note_on_c, 4, 59, 90
6, 79127, Note_on_c, 4, 59, 0
6, 79140, Note_on_c, 4, 64, 90
6, 79187, Note_on_c, 4, 64, 0
6, 79200, Note_on_c, 4, 64, 90
6, 79247, Note_on_c, 4, 64, 0
6, 79320, Note_on_c, 4, 62, 90
6, 79367, Note_on_c, 4, 62, 0
6, 79440, Note_on_c, 4, 57, 90
6, 79487, Note_on_c, 4, 57, 0
6, 79560, Note_on_c, 4, 69, 90
6, 79607, Note_on_c, 4, 69, 0
6, 79680, Note_on_c, 4, 68, 90
6, 79727, Note_on_c, 4, 68, 0
6, 79800, Note_on_c, 4, 66, 90
6, 79847, Note_on_c, 4, 66, 0
6, 79920, Note_on_c, 4, 64, 90
6, 79967, Note_on_c, 4, 64, 0
6, 79980, Note_on_c, 4, 68, 90
6, 80027, Note_on_c, 4, 68, 0
6, 80040, Note_on_c, 4, 69, 90
6, 80087, Note_on_c, 4, 69, 0
6, 80100, Note_on_c, 4, 57, 90
6, 80123, Note_on_c, 4, 57, 0
6, 80130, Note_on_c, 4, 59, 90
6, 80153, Note_on_c, 4, 59, 0
6, 80160, Note_on_c, 4, 61, 90
6, 80207, Note_on_c, 4, 61, 0
6, 80220, Note_on_c, 4, 62, 90
6, 80267, Note_on_c, 4, 62, 0
6, 80280, Note_on_c, 4, 61, 90
6, 80375, Note_on_c, 4, 61, 0
6, 83880, Note_on_c, 4, 66, 90
6, 83975, Note_on_c, 4, 66, 0
6, 84120, Note_on_c, 4, 66, 90
6, 84215, Note_on_c, 4, 66, 0
6, 84300, Note_on_c, 4, 66, 90
6, 84347, Note_on_c, 4, 66, 0
6, 84360, Note_on_c, 4, 71, 90
6, 84407, Note_on_c, 4, 71, 0
6, 84420, Note_on_c, 4, 66, 90
6, 84467, Note_on_c, 4, 66, 0
6, 84480, Note_on_c, 4, 67, 90
6, 84527, Note_on_c, 4, 67, 0
6, 84540, Note_on_c, 4, 64, 90
6, 84587, Note_on_c, 4, 64, 0
6, 84600, Note_on_c, 4, 63, 90
6, 84647, Note_on_c, 4, 63, 0
6, 84660, Note_on_c, 4, 64, 90
6, 84683, Note_on_c, 4, 64, 0
6, 84690, Note_on_c, 4, 66, 90
6, 84713, Note_on_c, 4, 66, 0
6, 84720, Note_on_c, 4, 67, 90
6, 84767, Note_on_c, 4, 67, 0
6, 84780, Note_on_c, 4, 64, 90
6, 84827, Note_on_c, 4, 64, 0
6, 84840, Note_on_c, 4, 67, 90
6, 84935, Note_on_c, 4, 67, 0
6, 85020, Note_on_c, 4, 64, 90
6, 85067, Note_on_c, 4, 64, 0
6, 85080, Note_on_c, 4, 69, 90
6, 85127, Note_on_c, 4, 69, 0
6, 85140, Note_on_c, 4, 64, 90
6, 85187, Note_on_c, 4, 64, 0
6, 85200, Note_on_c, 4, 66, 90
6, 85247, Note_on_c, 4, 66, 0
6, 85260, Note_on_c, 4, 62, 90
6, 85307, Note_on_c, 4, 62, 0
6, 85320, Note_on_c, 4, 59, 90
6, 85367, Note_on_c, 4, 59, 0
6, 85380, Note_on_c, 4, 62, 90
6, 85403, Note_on_c, 4, 62, 0
6, 85410, Note_on_c, 4, 64, 90
6, 85433, Note_on_c, 4, 64, 0
6, 85440, Note_on_c, 4, 66, 90
6, 85487, Note_on_c, 4, 66, 0
6, 85500, Note_on_c, 4, 62, 90
6, 85547, Note_on_c, 4, 62, 0
6, 85560, Note_on_c, 4, 66, 90
6, 85655, Note_on_c, 4, 66, 0
6, 85740, Note_on_c, 4, 62, 90
6, 85787, Note_on_c, 4, 62, 0
6, 85800, Note_on_c, 4, 64, 90
6, 85847, Note_on_c, 4, 64, 0
6, 85860, Note_on_c, 4, 64, 90
6, 85907, Note_on_c, 4, 64, 0
6, 85920, Note_on_c, 4, 66, 90
6, 86399, Note_on_c, 4, 66, 0
6, 86400, Note_on_c, 4, 67, 90
6, 86639, Note_on_c, 4, 67, 0
6, 86640, Note_on_c, 4, 64, 90
6, 86879, Note_on_c, 4, 64, 0
6, 86880, Note_on_c, 4, 63, 90
6, 86999, Note_on_c, 4, 63, 0
6, 87240, Note_on_c, 4, 63, 90
6, 87359, Note_on_c, 4, 63, 0
6, 87360, Note_on_c, 4, 59, 90
6, 87479, Note_on_c, 4, 59, 0
6, 87660, Note_on_c, 4, 59, 90
6, 87707, Note_on_c, 4, 59, 0
6, 87720, Note_on_c, 4, 59, 90
6, 87767, Note_on_c, 4, 59, 0
6, 87780, Note_on_c, 4, 61, 90
6, 87827, Note_on_c, 4, 61, 0
6, 87840, Note_on_c, 4, 62, 90
6, 87887, Note_on_c, 4, 62, 0
6, 87900, Note_on_c, 4, 62, 90
6, 87947, Note_on_c, 4, 62, 0
6, 87960, Note_on_c, 4, 62, 90
6, 88007, Note_on_c, 4, 62, 0
6, 88020, Note_on_c, 4, 64, 90
6, 88067, Note_on_c, 4, 64, 0
6, 88080, Note_on_c, 4, 66, 90
6, 88127, Note_on_c, 4, 66, 0
6, 88140, Note_on_c, 4, 66, 90
6, 88187, Note_on_c, 4, 66, 0
6, 88200, Note_on_c, 4, 67, 90
6, 88247, Note_on_c, 4, 67, 0
6, 88260, Note_on_c, 4, 66, 90
6, 88307, Note_on_c, 4, 66, 0
6, 88320, Note_on_c, 4, 64, 90
6, 88367, Note_on_c, 4, 64, 0
6, 88380, Note_on_c, 4, 61, 90
6, 88427, Note_on_c, 4, 61, 0
6, 88440, Note_on_c, 4, 59, 90
6, 88487, Note_on_c, 4, 59, 0
6, 88500, Note_on_c, 4, 57, 90
6, 88547, Note_on_c, 4, 57, 0
6, 88560, Note_on_c, 4, 59, 90
6, 88607, Note_on_c, 4, 59, 0
6, 88620, Note_on_c, 4, 67, 90
6, 88667, Note_on_c, 4, 67, 0
6, 88680, Note_on_c, 4, 66, 90
6, 88727, Note_on_c, 4, 66, 0
6, 88740, Note_on_c, 4, 64, 90
6, 88787, Note_on_c, 4, 64, 0
6, 88800, Note_on_c, 4, 62, 90
6, 88847, Note_on_c, 4, 62, 0
6, 88860, Note_on_c, 4, 66, 90
6, 88907, Note_on_c, 4, 66, 0
6, 88920, Note_on_c, 4, 66, 90
6, 88967, Note_on_c, 4, 66, 0
6, 88980, Note_on_c, 4, 68, 90
6, 89027, Note_on_c, 4, 68, 0
6, 89040, Note_on_c, 4, 69, 90
6, 89087, Note_on_c, 4, 69, 0
6, 89100, Note_on_c, 4, 69, 90
6, 89147, Note_on_c, 4, 69, 0
6, 89160, Note_on_c, 4, 67, 90
6, 89207, Note_on_c, 4, 67, 0
6, 89220, Note_on_c, 4, 66, 90
6, 89267, Note_on_c, 4, 66, 0
6, 89280, Note_on_c, 4, 64, 90
6, 89327, Note_on_c, 4, 64, 0
6, 89340, Note_on_c, 4, 64, 90
6, 89387, Note_on_c, 4, 64, 0
6, 89400, Note_on_c, 4, 64, 90
6, 89447, Note_on_c, 4, 64, 0
6, 89460, Note_on_c, 4, 64, 90
6, 89507, Note_on_c, 4, 64, 0
6, 89520, Note_on_c, 4, 66, 90
6, 89567, Note_on_c, 4, 66, 0
6, 89580, Note_on_c, 4, 59, 90
6, 89627, Note_on_c, 4, 59, 0
6, 89640, Note_on_c, 4, 61, 90
6, 89687, Note_on_c, 4, 61, 0
6, 89700, Note_on_c, 4, 65, 90
6, 89747, Note_on_c, 4, 65, 0
6, 89760, Note_on_c, 4, 61, 90
6, 89807, Note_on_c, 4, 61, 0
6, 89820, Note_on_c, 4, 61, 90
6, 89867, Note_on_c, 4, 61, 0
6, 89880, Note_on_c, 4, 59, 90
6, 89927, Note_on_c, 4, 59, 0
6, 89940, Note_on_c, 4, 59, 90
6, 89987, Note_on_c, 4, 59, 0
6, 90000, Note_on_c, 4, 59, 90
6, 90047, Note_on_c, 4, 59, 0
6, 90060, Note_on_c, 4, 62, 90
6, 90107, Note_on_c, 4, 62, 0
6, 90120, Note_on_c, 4, 67, 90
6, 90167, Note_on_c, 4, 67, 0
6, 90180, Note_on_c, 4, 66, 90
6, 90227, Note_on_c, 4, 66, 0
6, 90240, Note_on_c, 4, 66, 90
6, 90311, Note_on_c, 4, 66, 0
6, 90330, Note_on_c, 4, 64, 90
6, 90353, Note_on_c, 4, 64, 0
6, 90360, Note_on_c, 4, 62, 90
6, 90407, Note_on_c, 4, 62, 0
6, 90420, Note_on_c, 4, 61, 90
6, 90467, Note_on_c, 4, 61, 0
6, 90480, Note_on_c, 4, 61, 90
6, 90527, Note_on_c, 4, 61, 0
6, 90540, Note_on_c, 4, 57, 90
6, 90587, Note_on_c, 4, 57, 0
6, 90720, Note_on_c, 4, 61, 90
6, 90767, Note_on_c, 4, 61, 0
6, 90780, Note_on_c, 4, 61, 90
6, 90827, Note_on_c, 4, 61, 0
6, 90840, Note_on_c, 4, 62, 90
6, 90887, Note_on_c, 4, 62, 0
6, 90900, Note_on_c, 4, 62, 90
6, 90923, Note_on_c, 4, 62, 0
6, 90930, Note_on_c, 4, 61, 90
6, 90953, Note_on_c, 4, 61, 0
6, 90960, Note_on_c, 4, 62, 90
6, 91007, Note_on_c, 4, 62, 0
6, 91020, Note_on_c, 4, 57, 90
6, 91115, Note_on_c, 4, 57, 0
6, 91140, Note_on_c, 4, 56, 90
6, 91187, Note_on_c, 4, 56, 0
6, 91200, Note_on_c, 4, 57, 90
6, 91295, Note_on_c, 4, 57, 0
6, 91320, Note_on_c, 4, 57, 90
6, 91367, Note_on_c, 4, 57, 0
6, 91380, Note_on_c, 4, 61, 90
6, 91427, Note_on_c, 4, 61, 0
6, 91440, Note_on_c, 4, 62, 90
6, 91679, Note_on_c, 4, 62, 0
6, 91740, Note_on_c, 4, 66, 90
6, 91787, Note_on_c, 4, 66, 0
6, 91800, Note_on_c, 4, 64, 90
6, 91847, Note_on_c, 4, 64, 0
6, 91860, Note_on_c, 4, 63, 90
6, 91907, Note_on_c, 4, 63, 0
6, 91920, Note_on_c, 4, 64, 90
6, 91967, Note_on_c, 4, 64, 0
6, 91980, Note_on_c, 4, 61, 90
6, 92027, Note_on_c, 4, 61, 0
6, 92040, Note_on_c, 4, 62, 90
6, 92087, Note_on_c, 4, 62, 0
6, 92100, Note_on_c, 4, 66, 90
6, 92147, Note_on_c, 4, 66, 0
6, 92160, Note_on_c, 4, 59, 90
6, 92207, Note_on_c, 4, 59, 0
6, 92220, Note_on_c, 4, 62, 90
6, 92267, Note_on_c, 4, 62, 0
6, 92280, Note_on_c, 4, 67, 90
6, 92375, Note_on_c, 4, 67, 0
6, 92400, Note_on_c, 4, 61, 90
6, 92495, Note_on_c, 4, 61, 0
6, 92520, Note_on_c, 4, 66, 90
6, 92999, Note_on_c, 4, 66, 0
6, 93000, Note_on_c, 4, 61, 90
6, 93119, Note_on_c, 4, 61, 0
6, 93120, Note_on_c, 4, 62, 90
6, 93239, Note_on_c, 4, 62, 0
6, 93240, Note_on_c, 4, 66, 90
6, 93359, Note_on_c, 4, 66, 0
6, 93360, Note_on_c, 4, 64, 90
6, 93599, Note_on_c, 4, 64, 0
6, 93600, Note_on_c, 4, 66, 90
6, 94319, Note_on_c, 4, 66, 0
6, 94320, Note_on_c, 4, 71, 90
6, 94559, Note_on_c, 4, 71, 0
6, 94560, Note_on_c, 4, 59, 90
6, 95279, Note_on_c, 4, 59, 0
6, 95280, Note_on_c, 4, 61, 90
6, 95519, Note_on_c, 4, 61, 0
6, 95520, Note_on_c, 4, 54, 90
6, 95759, Note_on_c, 4, 54, 0
6, 95760, Note_on_c, 4, 56, 90
6, 95999, Note_on_c, 4, 56, 0
6, 96000, Note_on_c, 4, 61, 90
6, 96479, Note_on_c, 4, 61, 0
6, 96480, Note_on_c, 4, 60, 90
6, 96719, Note_on_c, 4, 60, 0
6, 96720, Note_on_c, 4, 56, 90
6, 96839, Note_on_c, 4, 56, 0
6, 96840, Note_on_c, 4, 54, 90
6, 97019, Note_on_c, 4, 54, 0
6, 97020, Note_on_c, 4, 57, 90
6, 97079, Note_on_c, 4, 57, 0
6, 97080, Note_on_c, 4, 62, 90
6, 97199, Note_on_c, 4, 62, 0
6, 97200, Note_on_c, 4, 56, 90
6, 97439, Note_on_c, 4, 56, 0
6, 97800, Note_on_c, 4, 61, 90
6, 97859, Note_on_c, 4, 61, 0
6, 97860, Note_on_c, 4, 62, 90
6, 97919, Note_on_c, 4, 62, 0
6, 97920, Note_on_c, 4, 64, 90
6, 98039, Note_on_c, 4, 64, 0
6, 98040, Note_on_c, 4, 62, 90
6, 98099, Note_on_c, 4, 62, 0
6, 98100, Note_on_c, 4, 61, 90
6, 98159, Note_on_c, 4, 61, 0
6, 98160, Note_on_c, 4, 59, 90
6, 98279, Note_on_c, 4, 59, 0
6, 98280, Note_on_c, 4, 57, 90
6, 98399, Note_on_c, 4, 57, 0
6, 98400, Note_on_c, 4, 59, 90
6, 98519, Note_on_c, 4, 59, 0
6, 98520, Note_on_c, 4, 57, 90
6, 98579, Note_on_c, 4, 57, 0
6, 98580, Note_on_c, 4, 55, 90
6, 98639, Note_on_c, 4, 55, 0
6, 98640, Note_on_c, 4, 57, 90
6, 98759, Note_on_c, 4, 57, 0
6, 98760, Note_on_c, 4, 64, 90
6, 98819, Note_on_c, 4, 64, 0
6, 98820, Note_on_c, 4, 62, 90
6, 98879, Note_on_c, 4, 62, 0
6, 98880, Note_on_c, 4, 61, 90
6, 99119, Note_on_c, 4, 61, 0
6, 99240, Note_on_c, 4, 57, 90
6, 99359, Note_on_c, 4, 57, 0
6, 99360, Note_on_c, 4, 57, 90
6, 99479, Note_on_c, 4, 57, 0
6, 99480, Note_on_c, 4, 56, 90
6, 99599, Note_on_c, 4, 56, 0
6, 99600, Note_on_c, 4, 59, 90
6, 99659, Note_on_c, 4, 59, 0
6, 99660, Note_on_c, 4, 57, 90
6, 99719, Note_on_c, 4, 57, 0
6, 99720, Note_on_c, 4, 59, 90
6, 99839, Note_on_c, 4, 59, 0
6, 99840, Note_on_c, 4, 59, 90
6, 99899, Note_on_c, 4, 59, 0
6, 99900, Note_on_c, 4, 64, 90
6, 100019, Note_on_c, 4, 64, 0
6, 100020, Note_on_c, 4, 63, 90
6, 100079, Note_on_c, 4, 63, 0
6, 100080, Note_on_c, 4, 64, 90
6, 100175, Note_on_c, 4, 64, 0
6, 100200, Note_on_c, 4, 64, 90
6, 100319, Note_on_c, 4, 64, 0
6, 100320, Note_on_c, 4, 66, 90
6, 100439, Note_on_c, 4, 66, 0
6, 100440, Note_on_c, 4, 66, 90
6, 100559, Note_on_c, 4, 66, 0
6, 100560, Note_on_c, 4, 66, 90
6, 100679, Note_on_c, 4, 66, 0
6, 100680, Note_on_c, 4, 64, 90
6, 100799, Note_on_c, 4, 64, 0
6, 100800, Note_on_c, 4, 64, 90
6, 100859, Note_on_c, 4, 64, 0
6, 100860, Note_on_c, 4, 62, 90
6, 100919, Note_on_c, 4, 62, 0
6, 100920, Note_on_c, 4, 61, 90
6, 100979, Note_on_c, 4, 61, 0
6, 100980, Note_on_c, 4, 63, 90
6, 101039, Note_on_c, 4, 63, 0
6, 101040, Note_on_c, 4, 64, 90
6, 101135, Note_on_c, 4, 64, 0
6, 101160, Note_on_c, 4, 64, 90
6, 101279, Note_on_c, 4, 64, 0
6, 101280, Note_on_c, 4, 62, 90
6, 101339, Note_on_c, 4, 62, 0
6, 101340, Note_on_c, 4, 61, 90
6, 101399, Note_on_c, 4, 61, 0
6, 101400, Note_on_c, 4, 62, 90
6, 101459, Note_on_c, 4, 62, 0
6, 101460, Note_on_c, 4, 64, 90
6, 101519, Note_on_c, 4, 64, 0
6, 101520, Note_on_c, 4, 66, 90
6, 101615, Note_on_c, 4, 66, 0
6, 101640, Note_on_c, 4, 66, 90
6, 101699, Note_on_c, 4, 66, 0
6, 101700, Note_on_c, 4, 64, 90
6, 101759, Note_on_c, 4, 64, 0
6, 101760, Note_on_c, 4, 62, 90
6, 101879, Note_on_c, 4, 62, 0
6, 101880, Note_on_c, 4, 64, 90
6, 101999, Note_on_c, 4, 64, 0
6, 102000, Note_on_c, 4, 57, 90
6, 102095, Note_on_c, 4, 57, 0
6, 102120, Note_on_c, 4, 57, 90
6, 102239, Note_on_c, 4, 57, 0
6, 102240, Note_on_c, 4, 59, 90
6, 102359, Note_on_c, 4, 59, 0
6, 102360, Note_on_c, 4, 61, 90
6, 102419, Note_on_c, 4, 61, 0
6, 102420, Note_on_c, 4, 63, 90
6, 102479, Note_on_c, 4, 63, 0
6, 102480, Note_on_c, 4, 64, 90
6, 102779, Note_on_c, 4, 64, 0
6, 102780, Note_on_c, 4, 61, 90
6, 102839, Note_on_c, 4, 61, 0
6, 102840, Note_on_c, 4, 57, 90
6, 102899, Note_on_c, 4, 57, 0
6, 102900, Note_on_c, 4, 61, 90
6, 102959, Note_on_c, 4, 61, 0
6, 102960, Note_on_c, 4, 66, 90
6, 103019, Note_on_c, 4, 66, 0
6, 103020, Note_on_c, 4, 62, 90
6, 103079, Note_on_c, 4, 62, 0
6, 103080, Note_on_c, 4, 59, 90
6, 103139, Note_on_c, 4, 59, 0
6, 103140, Note_on_c, 4, 64, 90
6, 103199, Note_on_c, 4, 64, 0
6, 103200, Note_on_c, 4, 61, 90
6, 103559, Note_on_c, 4, 61, 0
6, 140235, Note_on_c, 4, 61, 100
6, 140247, Note_on_c, 4, 61, 0
6, 140250, Note_on_c, 4, 61, 100
6, 140262, Note_on_c, 4, 61, 0
6, 140265, Note_on_c, 4, 61, 100
6, 140277, Note_on_c, 4, 61, 0
6, 140280, Note_on_c, 4, 61, 100
6, 140328, Note_on_c, 4, 61, 0
6, 140715, Note_on_c, 4, 70, 100
6, 140727, Note_on_c, 4, 70, 0
6, 140730, Note_on_c, 4, 70, 100
6, 140742, Note_on_c, 4, 70, 0
6, 140745, Note_on_c, 4, 70, 100
6, 140757, Note_on_c, 4, 70, 0
6, 140760, Note_on_c, 4, 70, 100
6, 140808, Note_on_c, 4, 70, 0
6, 141675, Note_on_c, 4, 71, 100
6, 141687, Note_on_c, 4, 71, 0
6, 141690, Note_on_c, 4, 71, 100
6, 141702, Note_on_c, 4, 71, 0
6, 141705, Note_on_c, 4, 71, 100
6, 141717, Note_on_c, 4, 71, 0
6, 141720, Note_on_c, 4, 71, 100
6, 141768, Note_on_c, 4, 71, 0
6, 141915, Note_on_c, 4, 71, 100
6, 141927, Note_on_c, 4, 71, 0
6, 141930, Note_on_c, 4, 71, 100
6, 141942, Note_on_c, 4, 71, 0
6, 141945, Note_on_c, 4, 71, 100
6, 141957, Note_on_c, 4, 71, 0
6, 141960, Note_on_c, 4, 71, 100
6, 142008, Note_on_c, 4, 71, 0
6, 142590, Note_on_c, 4, 76, 100
6, 142614, Note_on_c, 4, 76, 0
6, 142620, Note_on_c, 4, 76, 100
6, 142650, Note_on_c, 4, 76, 0
6, 142650, Note_on_c, 4, 76, 100
6, 142680, Note_on_c, 4, 76, 0
6, 142680, Note_on_c, 4, 71, 100
6, 142740, Note_on_c, 4, 71, 0
6, 143070, Note_on_c, 4, 73, 100
6, 143094, Note_on_c, 4, 73, 0
6, 143100, Note_on_c, 4, 73, 100
6, 143115, Note_on_c, 4, 73, 0
6, 143115, Note_on_c, 4, 71, 100
6, 143130, Note_on_c, 4, 71, 0
6, 143130, Note_on_c, 4, 73, 100
6, 143160, Note_on_c, 4, 73, 0
6, 143160, Note_on_c, 4, 66, 100
6, 143220, Note_on_c, 4, 66, 0
6, 143550, Note_on_c, 4, 71, 100
6, 143574, Note_on_c, 4, 71, 0
6, 143580, Note_on_c, 4, 71, 100
6, 143595, Note_on_c, 4, 71, 0
6, 143595, Note_on_c, 4, 69, 100
6, 143610, Note_on_c, 4, 69, 0
6, 143610, Note_on_c, 4, 71, 100
6, 143634, Note_on_c, 4, 71, 0
6, 143640, Note_on_c, 4, 63, 100
6, 143664, Note_on_c, 4, 63, 0
6, 143670, Note_on_c, 4, 66, 100
6, 143694, Note_on_c, 4, 66, 0
6, 143700, Note_on_c, 4, 66, 100
6, 143715, Note_on_c, 4, 66, 0
6, 143715, Note_on_c, 4, 64, 100
6, 143730, Note_on_c, 4, 64, 0
6, 143730, Note_on_c, 4, 66, 100
6, 143760, Note_on_c, 4, 66, 0
6, 143760, Note_on_c, 4, 68, 100
6, 143880, Note_on_c, 4, 68, 0
6, 201240, Note_on_c, 4, 61, 90
6, 201359, Note_on_c, 4, 61, 0
6, 201360, Note_on_c, 4, 59, 90
6, 201479, Note_on_c, 4, 59, 0
6, 201480, Note_on_c, 4, 57, 90
6, 201539, Note_on_c, 4, 57, 0
6, 201540, Note_on_c, 4, 59, 90
6, 201599, Note_on_c, 4, 59, 0
6, 201600, Note_on_c, 4, 61, 90
6, 201659, Note_on_c, 4, 61, 0
6, 201660, Note_on_c, 4, 62, 90
6, 201719, Note_on_c, 4, 62, 0
6, 201720, Note_on_c, 4, 64, 90
6, 201779, Note_on_c, 4, 64, 0
6, 201780, Note_on_c, 4, 59, 90
6, 201839, Note_on_c, 4, 59, 0
6, 201840, Note_on_c, 4, 59, 90
6, 201959, Note_on_c, 4, 59, 0
6, 201960, Note_on_c, 4, 59, 90
6, 202049, Note_on_c, 4, 59, 0
6, 202050, Note_on_c, 4, 57, 90
6, 202079, Note_on_c, 4, 57, 0
6, 202080, Note_on_c, 4, 56, 90
6, 202175, Note_on_c, 4, 56, 0
6, 202200, Note_on_c, 4, 59, 90
6, 202259, Note_on_c, 4, 59, 0
6, 202260, Note_on_c, 4, 61, 90
6, 202319, Note_on_c, 4, 61, 0
6, 202320, Note_on_c, 4, 62, 90
6, 202379, Note_on_c, 4, 62, 0
6, 202380, Note_on_c, 4, 64, 90
6, 202439, Note_on_c, 4, 64, 0
6, 202440, Note_on_c, 4, 57, 90
6, 202559, Note_on_c, 4, 57, 0
6, 202560, Note_on_c, 4, 52, 90
6, 202679, Note_on_c, 4, 52, 0
6, 202680, Note_on_c, 4, 57, 90
6, 202859, Note_on_c, 4, 57, 0
6, 202860, Note_on_c, 4, 56, 90
6, 202919, Note_on_c, 4, 56, 0
6, 202920, Note_on_c, 4, 61, 90
6, 203135, Note_on_c, 4, 61, 0
6, 203160, Note_on_c, 4, 61, 90
6, 203279, Note_on_c, 4, 61, 0
6, 203280, Note_on_c, 4, 59, 90
6, 203399, Note_on_c, 4, 59, 0
6, 203400, Note_on_c, 4, 57, 90
6, 203459, Note_on_c, 4, 57, 0
6, 203460, Note_on_c, 4, 59, 90
6, 203519, Note_on_c, 4, 59, 0
6, 203520, Note_on_c, 4, 61, 90
6, 203579, Note_on_c, 4, 61, 0
6, 203580, Note_on_c, 4, 62, 90
6, 203639, Note_on_c, 4, 62, 0
6, 203640, Note_on_c, 4, 64, 90
6, 203699, Note_on_c, 4, 64, 0
6, 203700, Note_on_c, 4, 59, 90
6, 203759, Note_on_c, 4, 59, 0
6, 203760, Note_on_c, 4, 59, 90
6, 203879, Note_on_c, 4, 59, 0
6, 203880, Note_on_c, 4, 59, 90
6, 203969, Note_on_c, 4, 59, 0
6, 203970, Note_on_c, 4, 57, 90
6, 203999, Note_on_c, 4, 57, 0
6, 204000, Note_on_c, 4, 56, 90
6, 204095, Note_on_c, 4, 56, 0
6, 204120, Note_on_c, 4, 59, 90
6, 204179, Note_on_c, 4, 59, 0
6, 204180, Note_on_c, 4, 61, 90
6, 204239, Note_on_c, 4, 61, 0
6, 204240, Note_on_c, 4, 62, 90
6, 204299, Note_on_c, 4, 62, 0
6, 204300, Note_on_c, 4, 64, 90
6, 204359, Note_on_c, 4, 64, 0
6, 204360, Note_on_c, 4, 57, 90
6, 204479, Note_on_c, 4, 57, 0
6, 204480, Note_on_c, 4, 52, 90
6, 204599, Note_on_c, 4, 52, 0
6, 204600, Note_on_c, 4, 57, 90
6, 204779, Note_on_c, 4, 57, 0
6, 204780, Note_on_c, 4, 56, 90
6, 204839, Note_on_c, 4, 56, 0
6, 204840, Note_on_c, 4, 61, 90
6, 205055, Note_on_c, 4, 61, 0
6, 205080, Note_on_c, 4, 64, 90
6, 205199, Note_on_c, 4, 64, 0
6, 205200, Note_on_c, 4, 64, 90
6, 205259, Note_on_c, 4, 64, 0
6, 205260, Note_on_c, 4, 63, 90
6, 205319, Note_on_c, 4, 63, 0
6, 205320, Note_on_c, 4, 64, 90
6, 205379, Note_on_c, 4, 64, 0
6, 205380, Note_on_c, 4, 62, 90
6, 205439, Note_on_c, 4, 62, 0
6, 205440, Note_on_c, 4, 61, 90
6, 205499, Note_on_c, 4, 61, 0
6, 205500, Note_on_c, 4, 59, 90
6, 205559, Note_on_c, 4, 59, 0
6, 205560, Note_on_c, 4, 57, 90
6, 205619, Note_on_c, 4, 57, 0
6, 205620, Note_on_c, 4, 59, 90
6, 205679, Note_on_c, 4, 59, 0
6, 205680, Note_on_c, 4, 61, 90
6, 205739, Note_on_c, 4, 61, 0
6, 205740, Note_on_c, 4, 63, 90
6, 205799, Note_on_c, 4, 63, 0
6, 205800, Note_on_c, 4, 64, 90
6, 205919, Note_on_c, 4, 64, 0
6, 205920, Note_on_c, 4, 64, 90
6, 206015, Note_on_c, 4, 64, 0
6, 206040, Note_on_c, 4, 58, 90
6, 206099, Note_on_c, 4, 58, 0
6, 206100, Note_on_c, 4, 59, 90
6, 206159, Note_on_c, 4, 59, 0
6, 206160, Note_on_c, 4, 59, 90
6, 206279, Note_on_c, 4, 59, 0
6, 206280, Note_on_c, 4, 57, 90
6, 206399, Note_on_c, 4, 57, 0
6, 206400, Note_on_c, 4, 57, 90
6, 206519, Note_on_c, 4, 57, 0
6, 206520, Note_on_c, 4, 57, 90
6, 206579, Note_on_c, 4, 57, 0
6, 206580, Note_on_c, 4, 59, 90
6, 206639, Note_on_c, 4, 59, 0
6, 206640, Note_on_c, 4, 56, 90
6, 206699, Note_on_c, 4, 56, 0
6, 206700, Note_on_c, 4, 62, 90
6, 206759, Note_on_c, 4, 62, 0
6, 206760, Note_on_c, 4, 61, 90
6, 206819, Note_on_c, 4, 61, 0
6, 206820, Note_on_c, 4, 59, 90
6, 206879, Note_on_c, 4, 59, 0
6, 206880, Note_on_c, 4, 61, 90
6, 206999, Note_on_c, 4, 61, 0
6, 206999, End_track
7, 0, Start_track
7, 0, MIDI_port, 0
7, 0, Title_t, "Evangelist"
7, 0, Program_c, 5, 57
7, 0, Control_c, 5, 7, 127
7, 0, Control_c, 5, 10, 81
7, 80700, Note_on_c, 5, 73, 90
7, 80759, Note_on_c, 5, 73, 0
7, 80760, Note_on_c, 5, 78, 90
7, 80819, Note_on_c, 5, 78, 0
7, 80820, Note_on_c, 5, 78, 90
7, 80849, Note_on_c, 5, 78, 0
7, 80850, Note_on_c, 5, 73, 90
7, 80879, Note_on_c, 5, 73, 0
7, 80880, Note_on_c, 5, 69, 90
7, 80939, Note_on_c, 5, 69, 0
7, 80940, Note_on_c, 5, 69, 90
7, 80999, Note_on_c, 5, 69, 0
7, 81000, Note_on_c, 5, 69, 90
7, 81059, Note_on_c, 5, 69, 0
7, 81060, Note_on_c, 5, 71, 90
7, 81119, Note_on_c, 5, 71, 0
7, 81120, Note_on_c, 5, 73, 90
7, 81209, Note_on_c, 5, 73, 0
7, 81210, Note_on_c, 5, 66, 90
7, 81239, Note_on_c, 5, 66, 0
7, 81240, Note_on_c, 5, 66, 90
7, 81299, Note_on_c, 5, 66, 0
7, 81420, Note_on_c, 5, 66, 90
7, 81479, Note_on_c, 5, 66, 0
7, 81480, Note_on_c, 5, 75, 90
7, 81539, Note_on_c, 5, 75, 0
7, 81540, Note_on_c, 5, 75, 90
7, 81569, Note_on_c, 5, 75, 0
7, 81570, Note_on_c, 5, 76, 90
7, 81599, Note_on_c, 5, 76, 0
7, 81600, Note_on_c, 5, 78, 90
7, 81659, Note_on_c, 5, 78, 0
7, 81660, Note_on_c, 5, 78, 90
7, 81719, Note_on_c, 5, 78, 0
7, 81780, Note_on_c, 5, 71, 90
7, 81839, Note_on_c, 5, 71, 0
7, 81840, Note_on_c, 5, 68, 90
7, 81899, Note_on_c, 5, 68, 0
7, 81930, Note_on_c, 5, 64, 90
7, 81959, Note_on_c, 5, 64, 0
7, 81960, Note_on_c, 5, 74, 90
7, 81989, Note_on_c, 5, 74, 0
7, 81990, Note_on_c, 5, 74, 90
7, 82019, Note_on_c, 5, 74, 0
7, 82020, Note_on_c, 5, 74, 90
7, 82049, Note_on_c, 5, 74, 0
7, 82050, Note_on_c, 5, 78, 90
7, 82079, Note_on_c, 5, 78, 0
7, 82080, Note_on_c, 5, 73, 90
7, 82139, Note_on_c, 5, 73, 0
7, 82140, Note_on_c, 5, 73, 90
7, 82199, Note_on_c, 5, 73, 0
7, 82320, Note_on_c, 5, 79, 90
7, 82379, Note_on_c, 5, 79, 0
7, 82380, Note_on_c, 5, 76, 90
7, 82439, Note_on_c, 5, 76, 0
7, 82500, Note_on_c, 5, 73, 90
7, 82559, Note_on_c, 5, 73, 0
7, 82560, Note_on_c, 5, 78, 90
7, 82619, Note_on_c, 5, 78, 0
7, 82620, Note_on_c, 5, 78, 90
7, 82649, Note_on_c, 5, 78, 0
7, 82650, Note_on_c, 5, 73, 90
7, 82679, Note_on_c, 5, 73, 0
7, 82680, Note_on_c, 5, 70, 90
7, 82739, Note_on_c, 5, 70, 0
7, 82740, Note_on_c, 5, 70, 90
7, 82769, Note_on_c, 5, 70, 0
7, 82770, Note_on_c, 5, 71, 90
7, 82799, Note_on_c, 5, 71, 0
7, 82800, Note_on_c, 5, 73, 90
7, 82859, Note_on_c, 5, 73, 0
7, 82860, Note_on_c, 5, 73, 90
7, 82919, Note_on_c, 5, 73, 0
7, 82920, Note_on_c, 5, 70, 90
7, 82979, Note_on_c, 5, 70, 0
7, 82980, Note_on_c, 5, 66, 90
7, 83039, Note_on_c, 5, 66, 0
7, 83040, Note_on_c, 5, 76, 90
7, 83099, Note_on_c, 5, 76, 0
7, 83100, Note_on_c, 5, 76, 90
7, 83159, Note_on_c, 5, 76, 0
7, 83160, Note_on_c, 5, 78, 90
7, 83219, Note_on_c, 5, 78, 0
7, 83220, Note_on_c, 5, 73, 90
7, 83279, Note_on_c, 5, 73, 0
7, 83280, Note_on_c, 5, 74, 90
7, 83399, Note_on_c, 5, 74, 0
7, 83460, Note_on_c, 5, 74, 90
7, 83519, Note_on_c, 5, 74, 0
7, 83520, Note_on_c, 5, 71, 90
7, 83579, Note_on_c, 5, 71, 0
7, 83580, Note_on_c, 5, 66, 90
7, 83639, Note_on_c, 5, 66, 0
7, 138780, Note_on_c, 5, 64, 90
7, 138839, Note_on_c, 5, 64, 0
7, 138840, Note_on_c, 5, 68, 90
7, 138899, Note_on_c, 5, 68, 0
7, 138900, Note_on_c, 5, 69, 90
7, 138959, Note_on_c, 5, 69, 0
7, 138960, Note_on_c, 5, 71, 90
7, 139019, Note_on_c, 5, 71, 0
7, 139020, Note_on_c, 5, 71, 90
7, 139049, Note_on_c, 5, 71, 0
7, 139050, Note_on_c, 5, 71, 90
7, 139079, Note_on_c, 5, 71, 0
7, 139080, Note_on_c, 5, 76, 90
7, 139139, Note_on_c, 5, 76, 0
7, 139140, Note_on_c, 5, 71, 90
7, 139199, Note_on_c, 5, 71, 0
7, 139200, Note_on_c, 5, 73, 90
7, 139259, Note_on_c, 5, 73, 0
7, 139260, Note_on_c, 5, 73, 90
7, 139319, Note_on_c, 5, 73, 0
7, 139380, Note_on_c, 5, 73, 90
7, 139439, Note_on_c, 5, 73, 0
7, 139440, Note_on_c, 5, 81, 90
7, 139499, Note_on_c, 5, 81, 0
7, 139500, Note_on_c, 5, 80, 90
7, 139559, Note_on_c, 5, 80, 0
7, 139620, Note_on_c, 5, 75, 90
7, 139649, Note_on_c, 5, 75, 0
7, 139650, Note_on_c, 5, 80, 90
7, 139679, Note_on_c, 5, 80, 0
7, 139680, Note_on_c, 5, 76, 90
7, 139739, Note_on_c, 5, 76, 0
7, 139740, Note_on_c, 5, 73, 90
7, 139799, Note_on_c, 5, 73, 0
7, 139800, Note_on_c, 5, 69, 90
7, 139859, Note_on_c, 5, 69, 0
7, 139860, Note_on_c, 5, 68, 90
7, 139889, Note_on_c, 5, 68, 0
7, 139890, Note_on_c, 5, 66, 90
7, 139919, Note_on_c, 5, 66, 0
7, 139920, Note_on_c, 5, 72, 90
7, 140009, Note_on_c, 5, 72, 0
7, 140010, Note_on_c, 5, 76, 90
7, 140039, Note_on_c, 5, 76, 0
7, 140040, Note_on_c, 5, 73, 90
7, 140160, Note_on_c, 5, 73, 0
7, 143940, Note_on_c, 5, 64, 90
7, 143999, Note_on_c, 5, 64, 0
7, 144000, Note_on_c, 5, 71, 90
7, 144059, Note_on_c, 5, 71, 0
7, 144060, Note_on_c, 5, 71, 90
7, 144119, Note_on_c, 5, 71, 0
7, 144120, Note_on_c, 5, 71, 90
7, 144179, Note_on_c, 5, 71, 0
7, 144180, Note_on_c, 5, 73, 90
7, 144239, Note_on_c, 5, 73, 0
7, 144240, Note_on_c, 5, 74, 90
7, 144299, Note_on_c, 5, 74, 0
7, 144300, Note_on_c, 5, 74, 90
7, 144359, Note_on_c, 5, 74, 0
7, 144360, Note_on_c, 5, 78, 90
7, 144419, Note_on_c, 5, 78, 0
7, 144420, Note_on_c, 5, 74, 90
7, 144479, Note_on_c, 5, 74, 0
7, 144480, Note_on_c, 5, 71, 90
7, 144539, Note_on_c, 5, 71, 0
7, 144540, Note_on_c, 5, 71, 90
7, 144569, Note_on_c, 5, 71, 0
7, 144570, Note_on_c, 5, 71, 90
7, 144599, Note_on_c, 5, 71, 0
7, 144600, Note_on_c, 5, 76, 90
7, 144659, Note_on_c, 5, 76, 0
7, 144660, Note_on_c, 5, 71, 90
7, 144719, Note_on_c, 5, 71, 0
7, 144720, Note_on_c, 5, 68, 90
7, 144779, Note_on_c, 5, 68, 0
7, 144780, Note_on_c, 5, 64, 90
7, 144839, Note_on_c, 5, 64, 0
7, 144840, Note_on_c, 5, 74, 90
7, 144899, Note_on_c, 5, 74, 0
7, 144900, Note_on_c, 5, 74, 90
7, 144929, Note_on_c, 5, 74, 0
7, 144930, Note_on_c, 5, 73, 90
7, 144959, Note_on_c, 5, 73, 0
7, 144960, Note_on_c, 5, 73, 90
7, 145079, Note_on_c, 5, 73, 0
7, 145140, Note_on_c, 5, 69, 90
7, 145169, Note_on_c, 5, 69, 0
7, 145170, Note_on_c, 5, 71, 90
7, 145199, Note_on_c, 5, 71, 0
7, 145200, Note_on_c, 5, 73, 90
7, 145259, Note_on_c, 5, 73, 0
7, 145260, Note_on_c, 5, 73, 90
7, 145319, Note_on_c, 5, 73, 0
7, 145320, Note_on_c, 5, 73, 90
7, 145379, Note_on_c, 5, 73, 0
7, 145380, Note_on_c, 5, 74, 90
7, 145439, Note_on_c, 5, 74, 0
7, 145440, Note_on_c, 5, 76, 90
7, 145499, Note_on_c, 5, 76, 0
7, 145500, Note_on_c, 5, 76, 90
7, 145559, Note_on_c, 5, 76, 0
7, 145620, Note_on_c, 5, 69, 90
7, 145679, Note_on_c, 5, 69, 0
7, 145680, Note_on_c, 5, 79, 90
7, 145799, Note_on_c, 5, 79, 0
7, 145800, Note_on_c, 5, 79, 90
7, 145919, Note_on_c, 5, 79, 0
7, 145920, Note_on_c, 5, 76, 90
7, 145979, Note_on_c, 5, 76, 0
7, 145980, Note_on_c, 5, 76, 90
7, 146009, Note_on_c, 5, 76, 0
7, 146010, Note_on_c, 5, 76, 90
7, 146039, Note_on_c, 5, 76, 0
7, 146040, Note_on_c, 5, 81, 90
7, 146099, Note_on_c, 5, 81, 0
7, 146100, Note_on_c, 5, 76, 90
7, 146159, Note_on_c, 5, 76, 0
7, 146160, Note_on_c, 5, 78, 90
7, 146219, Note_on_c, 5, 78, 0
7, 146220, Note_on_c, 5, 78, 90
7, 146279, Note_on_c, 5, 78, 0
7, 146340, Note_on_c, 5, 74, 90
7, 146369, Note_on_c, 5, 74, 0
7, 146370, Note_on_c, 5, 74, 90
7, 146399, Note_on_c, 5, 74, 0
7, 146400, Note_on_c, 5, 74, 90
7, 146459, Note_on_c, 5, 74, 0
7, 146460, Note_on_c, 5, 69, 90
7, 146519, Note_on_c, 5, 69, 0
7, 146520, Note_on_c, 5, 66, 90
7, 146579, Note_on_c, 5, 66, 0
7, 146610, Note_on_c, 5, 62, 90
7, 146639, Note_on_c, 5, 62, 0
7, 146640, Note_on_c, 5, 72, 90
7, 146699, Note_on_c, 5, 72, 0
7, 146700, Note_on_c, 5, 72, 90
7, 146759, Note_on_c, 5, 72, 0
7, 146760, Note_on_c, 5, 72, 90
7, 146819, Note_on_c, 5, 72, 0
7, 146940, Note_on_c, 5, 72, 90
7, 146999, Note_on_c, 5, 72, 0
7, 147000, Note_on_c, 5, 76, 90
7, 147059, Note_on_c, 5, 76, 0
7, 147060, Note_on_c, 5, 76, 90
7, 147089, Note_on_c, 5, 76, 0
7, 147090, Note_on_c, 5, 72, 90
7, 147119, Note_on_c, 5, 72, 0
7, 147120, Note_on_c, 5, 69, 90
7, 147179, Note_on_c, 5, 69, 0
7, 147180, Note_on_c, 5, 69, 90
7, 147239, Note_on_c, 5, 69, 0
7, 147300, Note_on_c, 5, 69, 90
7, 147359, Note_on_c, 5, 69, 0
7, 147360, Note_on_c, 5, 75, 90
7, 147419, Note_on_c, 5, 75, 0
7, 147420, Note_on_c, 5, 75, 90
7, 147479, Note_on_c, 5, 75, 0
7, 147480, Note_on_c, 5, 75, 90
7, 147539, Note_on_c, 5, 75, 0
7, 147540, Note_on_c, 5, 75, 90
7, 147569, Note_on_c, 5, 75, 0
7, 147570, Note_on_c, 5, 76, 90
7, 147599, Note_on_c, 5, 76, 0
7, 147600, Note_on_c, 5, 78, 90
7, 147659, Note_on_c, 5, 78, 0
7, 147660, Note_on_c, 5, 78, 90
7, 147689, Note_on_c, 5, 78, 0
7, 147690, Note_on_c, 5, 78, 90
7, 147719, Note_on_c, 5, 78, 0
7, 147720, Note_on_c, 5, 75, 90
7, 147779, Note_on_c, 5, 75, 0
7, 147780, Note_on_c, 5, 71, 90
7, 147839, Note_on_c, 5, 71, 0
7, 147840, Note_on_c, 5, 79, 90
7, 147899, Note_on_c, 5, 79, 0
7, 147900, Note_on_c, 5, 79, 90
7, 147959, Note_on_c, 5, 79, 0
7, 148080, Note_on_c, 5, 71, 90
7, 148199, Note_on_c, 5, 71, 0
7, 148200, Note_on_c, 5, 76, 90
7, 148319, Note_on_c, 5, 76, 0
7, 148320, Note_on_c, 5, 76, 90
7, 148409, Note_on_c, 5, 76, 0
7, 148410, Note_on_c, 5, 74, 90
7, 148439, Note_on_c, 5, 74, 0
7, 148440, Note_on_c, 5, 74, 90
7, 148559, Note_on_c, 5, 74, 0
7, 148620, Note_on_c, 5, 67, 90
7, 148679, Note_on_c, 5, 67, 0
7, 148680, Note_on_c, 5, 72, 90
7, 148739, Note_on_c, 5, 72, 0
7, 148740, Note_on_c, 5, 72, 90
7, 148769, Note_on_c, 5, 72, 0
7, 148770, Note_on_c, 5, 72, 90
7, 148799, Note_on_c, 5, 72, 0
7, 148800, Note_on_c, 5, 72, 90
7, 148859, Note_on_c, 5, 72, 0
7, 148860, Note_on_c, 5, 71, 90
7, 148919, Note_on_c, 5, 71, 0
7, 148920, Note_on_c, 5, 71, 90
7, 149039, Note_on_c, 5, 71, 0
7, 149160, Note_on_c, 5, 64, 90
7, 149219, Note_on_c, 5, 64, 0
7, 149220, Note_on_c, 5, 69, 90
7, 149279, Note_on_c, 5, 69, 0
7, 149280, Note_on_c, 5, 66, 90
7, 149339, Note_on_c, 5, 66, 0
7, 149340, Note_on_c, 5, 62, 90
7, 149399, Note_on_c, 5, 62, 0
7, 149460, Note_on_c, 5, 74, 90
7, 149519, Note_on_c, 5, 74, 0
7, 149520, Note_on_c, 5, 71, 90
7, 149579, Note_on_c, 5, 71, 0
7, 149580, Note_on_c, 5, 67, 90
7, 149639, Note_on_c, 5, 67, 0
7, 149640, Note_on_c, 5, 76, 90
7, 149819, Note_on_c, 5, 76, 0
7, 149820, Note_on_c, 5, 74, 90
7, 149849, Note_on_c, 5, 74, 0
7, 149850, Note_on_c, 5, 73, 90
7, 149879, Note_on_c, 5, 73, 0
7, 149880, Note_on_c, 5, 74, 90
7, 149939, Note_on_c, 5, 74, 0
7, 149940, Note_on_c, 5, 71, 90
7, 149999, Note_on_c, 5, 71, 0
7, 150000, Note_on_c, 5, 78, 90
7, 150119, Note_on_c, 5, 78, 0
7, 150120, Note_on_c, 5, 66, 90
7, 150239, Note_on_c, 5, 66, 0
7, 150300, Note_on_c, 5, 66, 90
7, 150419, Note_on_c, 5, 66, 0
7, 150420, Note_on_c, 5, 71, 90
7, 150479, Note_on_c, 5, 71, 0
7, 150480, Note_on_c, 5, 68, 90
7, 150509, Note_on_c, 5, 68, 0
7, 150510, Note_on_c, 5, 66, 90
7, 150539, Note_on_c, 5, 66, 0
7, 150540, Note_on_c, 5, 68, 90
7, 150659, Note_on_c, 5, 68, 0
7, 150660, Note_on_c, 5, 73, 90
7, 150719, Note_on_c, 5, 73, 0
7, 150720, Note_on_c, 5, 70, 90
7, 150749, Note_on_c, 5, 70, 0
7, 150750, Note_on_c, 5, 68, 90
7, 150779, Note_on_c, 5, 68, 0
7, 150780, Note_on_c, 5, 70, 90
7, 150899, Note_on_c, 5, 70, 0
7, 150900, Note_on_c, 5, 74, 90
7, 150959, Note_on_c, 5, 74, 0
7, 150960, Note_on_c, 5, 71, 90
7, 151019, Note_on_c, 5, 71, 0
7, 151020, Note_on_c, 5, 70, 90
7, 151079, Note_on_c, 5, 70, 0
7, 151080, Note_on_c, 5, 71, 90
7, 151199, Note_on_c, 5, 71, 0
7, 151260, Note_on_c, 5, 71, 90
7, 151319, Note_on_c, 5, 71, 0
7, 151320, Note_on_c, 5, 76, 90
7, 151379, Note_on_c, 5, 76, 0
7, 151380, Note_on_c, 5, 78, 90
7, 151439, Note_on_c, 5, 78, 0
7, 151440, Note_on_c, 5, 79, 90
7, 151499, Note_on_c, 5, 79, 0
7, 151500, Note_on_c, 5, 78, 90
7, 151559, Note_on_c, 5, 78, 0
7, 151560, Note_on_c, 5, 76, 90
7, 151739, Note_on_c, 5, 76, 0
7, 151740, Note_on_c, 5, 74, 90
7, 151769, Note_on_c, 5, 74, 0
7, 151770, Note_on_c, 5, 73, 90
7, 151799, Note_on_c, 5, 73, 0
7, 151800, Note_on_c, 5, 78, 90
7, 151859, Note_on_c, 5, 78, 0
7, 151860, Note_on_c, 5, 71, 90
7, 151919, Note_on_c, 5, 71, 0
7, 151920, Note_on_c, 5, 74, 90
7, 152039, Note_on_c, 5, 74, 0
7, 152040, Note_on_c, 5, 73, 90
7, 152159, Note_on_c, 5, 73, 0
7, 152160, Note_on_c, 5, 71, 90
7, 152279, Note_on_c, 5, 71, 0
7, 152279, End_track
8, 0, Start_track
8, 0, MIDI_port, 0
8, 0, Title_t, "Soprano Solo"
8, 0, Program_c, 6, 65
8, 0, Control_c, 6, 7, 127
8, 0, Control_c, 6, 10, 48
8, 158040, Note_on_c, 6, 74, 90
8, 158099, Note_on_c, 6, 74, 0
8, 158100, Note_on_c, 6, 73, 90
8, 158219, Note_on_c, 6, 73, 0
8, 158220, Note_on_c, 6, 71, 90
8, 158279, Note_on_c, 6, 71, 0
8, 158280, Note_on_c, 6, 78, 90
8, 158339, Note_on_c, 6, 78, 0
8, 158340, Note_on_c, 6, 79, 90
8, 158459, Note_on_c, 6, 79, 0
8, 158460, Note_on_c, 6, 71, 90
8, 158519, Note_on_c, 6, 71, 0
8, 158520, Note_on_c, 6, 70, 90
8, 158549, Note_on_c, 6, 70, 0
8, 158550, Note_on_c, 6, 71, 90
8, 158579, Note_on_c, 6, 71, 0
8, 158580, Note_on_c, 6, 73, 90
8, 158609, Note_on_c, 6, 73, 0
8, 158610, Note_on_c, 6, 74, 90
8, 158639, Note_on_c, 6, 74, 0
8, 158640, Note_on_c, 6, 76, 90
8, 158699, Note_on_c, 6, 76, 0
8, 158700, Note_on_c, 6, 74, 90
8, 158759, Note_on_c, 6, 74, 0
8, 158760, Note_on_c, 6, 76, 90
8, 158789, Note_on_c, 6, 76, 0
8, 158790, Note_on_c, 6, 74, 90
8, 158819, Note_on_c, 6, 74, 0
8, 158820, Note_on_c, 6, 73, 90
8, 158879, Note_on_c, 6, 73, 0
8, 158880, Note_on_c, 6, 78, 90
8, 158939, Note_on_c, 6, 78, 0
8, 159060, Note_on_c, 6, 76, 90
8, 159179, Note_on_c, 6, 76, 0
8, 159180, Note_on_c, 6, 78, 90
8, 159239, Note_on_c, 6, 78, 0
8, 159240, Note_on_c, 6, 76, 90
8, 159269, Note_on_c, 6, 76, 0
8, 159270, Note_on_c, 6, 74, 90
8, 159299, Note_on_c, 6, 74, 0
8, 159300, Note_on_c, 6, 73, 90
8, 159329, Note_on_c, 6, 73, 0
8, 159330, Note_on_c, 6, 71, 90
8, 159359, Note_on_c, 6, 71, 0
8, 159360, Note_on_c, 6, 71, 90
8, 159419, Note_on_c, 6, 71, 0
8, 159420, Note_on_c, 6, 79, 90
8, 159479, Note_on_c, 6, 79, 0
8, 159480, Note_on_c, 6, 79, 90
8, 159539, Note_on_c, 6, 79, 0
8, 159540, Note_on_c, 6, 78, 90
8, 159659, Note_on_c, 6, 78, 0
8, 159660, Note_on_c, 6, 71, 90
8, 159719, Note_on_c, 6, 71, 0
8, 159720, Note_on_c, 6, 71, 90
8, 159779, Note_on_c, 6, 71, 0
8, 159780, Note_on_c, 6, 70, 90
8, 159839, Note_on_c, 6, 70, 0
8, 159960, Note_on_c, 6, 66, 90
8, 160019, Note_on_c, 6, 66, 0
8, 160200, Note_on_c, 6, 71, 90
8, 160259, Note_on_c, 6, 71, 0
8, 160260, Note_on_c, 6, 70, 90
8, 160319, Note_on_c, 6, 70, 0
8, 160380, Note_on_c, 6, 66, 90
8, 160439, Note_on_c, 6, 66, 0
8, 160440, Note_on_c, 6, 71, 90
8, 160499, Note_on_c, 6, 71, 0
8, 160500, Note_on_c, 6, 74, 90
8, 160559, Note_on_c, 6, 74, 0
8, 160560, Note_on_c, 6, 74, 90
8, 160619, Note_on_c, 6, 74, 0
8, 160620, Note_on_c, 6, 71, 90
8, 160679, Note_on_c, 6, 71, 0
8, 160680, Note_on_c, 6, 76, 90
8, 160739, Note_on_c, 6, 76, 0
8, 160740, Note_on_c, 6, 64, 90
8, 160799, Note_on_c, 6, 64, 0
8, 160800, Note_on_c, 6, 74, 90
8, 160859, Note_on_c, 6, 74, 0
8, 161040, Note_on_c, 6, 69, 90
8, 161099, Note_on_c, 6, 69, 0
8, 161100, Note_on_c, 6, 68, 90
8, 161159, Note_on_c, 6, 68, 0
8, 161220, Note_on_c, 6, 71, 90
8, 161279, Note_on_c, 6, 71, 0
8, 161280, Note_on_c, 6, 72, 90
8, 161309, Note_on_c, 6, 72, 0
8, 161310, Note_on_c, 6, 71, 90
8, 161339, Note_on_c, 6, 71, 0
8, 161340, Note_on_c, 6, 72, 90
8, 161399, Note_on_c, 6, 72, 0
8, 161400, Note_on_c, 6, 72, 90
8, 161699, Note_on_c, 6, 72, 0
8, 161700, Note_on_c, 6, 69, 90
8, 161759, Note_on_c, 6, 69, 0
8, 161760, Note_on_c, 6, 78, 90
8, 161819, Note_on_c, 6, 78, 0
8, 161820, Note_on_c, 6, 74, 90
8, 161879, Note_on_c, 6, 74, 0
8, 161880, Note_on_c, 6, 71, 90
8, 161939, Note_on_c, 6, 71, 0
8, 161940, Note_on_c, 6, 69, 90
8, 161999, Note_on_c, 6, 69, 0
8, 162000, Note_on_c, 6, 67, 90
8, 162059, Note_on_c, 6, 67, 0
8, 162600, Note_on_c, 6, 78, 90
8, 162719, Note_on_c, 6, 78, 0
8, 162780, Note_on_c, 6, 78, 90
8, 162839, Note_on_c, 6, 78, 0
8, 162840, Note_on_c, 6, 78, 90
8, 162899, Note_on_c, 6, 78, 0
8, 162900, Note_on_c, 6, 76, 90
8, 162959, Note_on_c, 6, 76, 0
8, 163140, Note_on_c, 6, 69, 90
8, 163199, Note_on_c, 6, 69, 0
8, 163200, Note_on_c, 6, 74, 90
8, 163259, Note_on_c, 6, 74, 0
8, 163260, Note_on_c, 6, 74, 90
8, 163319, Note_on_c, 6, 74, 0
8, 163320, Note_on_c, 6, 74, 90
8, 163379, Note_on_c, 6, 74, 0
8, 163380, Note_on_c, 6, 73, 90
8, 163439, Note_on_c, 6, 73, 0
8, 163800, Note_on_c, 6, 66, 90
8, 163919, Note_on_c, 6, 66, 0
8, 163980, Note_on_c, 6, 74, 90
8, 164039, Note_on_c, 6, 74, 0
8, 164040, Note_on_c, 6, 74, 90
8, 164099, Note_on_c, 6, 74, 0
8, 164100, Note_on_c, 6, 73, 90
8, 164159, Note_on_c, 6, 73, 0
8, 164340, Note_on_c, 6, 66, 90
8, 164399, Note_on_c, 6, 66, 0
8, 164400, Note_on_c, 6, 71, 90
8, 164459, Note_on_c, 6, 71, 0
8, 164460, Note_on_c, 6, 71, 90
8, 164519, Note_on_c, 6, 71, 0
8, 164520, Note_on_c, 6, 71, 90
8, 164579, Note_on_c, 6, 71, 0
8, 164580, Note_on_c, 6, 70, 90
8, 164639, Note_on_c, 6, 70, 0
8, 165600, Note_on_c, 6, 73, 90
8, 165719, Note_on_c, 6, 73, 0
8, 165900, Note_on_c, 6, 73, 90
8, 165959, Note_on_c, 6, 73, 0
8, 165960, Note_on_c, 6, 78, 90
8, 166019, Note_on_c, 6, 78, 0
8, 166020, Note_on_c, 6, 76, 90
8, 166079, Note_on_c, 6, 76, 0
8, 166080, Note_on_c, 6, 74, 90
8, 166139, Note_on_c, 6, 74, 0
8, 166140, Note_on_c, 6, 73, 90
8, 166199, Note_on_c, 6, 73, 0
8, 166200, Note_on_c, 6, 74, 90
8, 166229, Note_on_c, 6, 74, 0
8, 166230, Note_on_c, 6, 73, 90
8, 166259, Note_on_c, 6, 73, 0
8, 166260, Note_on_c, 6, 74, 90
8, 166349, Note_on_c, 6, 74, 0
8, 166350, Note_on_c, 6, 78, 90
8, 166379, Note_on_c, 6, 78, 0
8, 166380, Note_on_c, 6, 76, 90
8, 166409, Note_on_c, 6, 76, 0
8, 166410, Note_on_c, 6, 74, 90
8, 166439, Note_on_c, 6, 74, 0
8, 166440, Note_on_c, 6, 73, 90
8, 166469, Note_on_c, 6, 73, 0
8, 166470, Note_on_c, 6, 71, 90
8, 166499, Note_on_c, 6, 71, 0
8, 166500, Note_on_c, 6, 73, 90
8, 166529, Note_on_c, 6, 73, 0
8, 166530, Note_on_c, 6, 74, 90
8, 166559, Note_on_c, 6, 74, 0
8, 166560, Note_on_c, 6, 73, 90
8, 166589, Note_on_c, 6, 73, 0
8, 166590, Note_on_c, 6, 76, 90
8, 166619, Note_on_c, 6, 76, 0
8, 166620, Note_on_c, 6, 74, 90
8, 166649, Note_on_c, 6, 74, 0
8, 166650, Note_on_c, 6, 73, 90
8, 166679, Note_on_c, 6, 73, 0
8, 166680, Note_on_c, 6, 71, 90
8, 166709, Note_on_c, 6, 71, 0
8, 166710, Note_on_c, 6, 69, 90
8, 166739, Note_on_c, 6, 69, 0
8, 166740, Note_on_c, 6, 71, 90
8, 166829, Note_on_c, 6, 71, 0
8, 166830, Note_on_c, 6, 74, 90
8, 166859, Note_on_c, 6, 74, 0
8, 166860, Note_on_c, 6, 73, 90
8, 166889, Note_on_c, 6, 73, 0
8, 166890, Note_on_c, 6, 71, 90
8, 166919, Note_on_c, 6, 71, 0
8, 166920, Note_on_c, 6, 69, 90
8, 166949, Note_on_c, 6, 69, 0
8, 166950, Note_on_c, 6, 68, 90
8, 166979, Note_on_c, 6, 68, 0
8, 166980, Note_on_c, 6, 69, 90
8, 167009, Note_on_c, 6, 69, 0
8, 167010, Note_on_c, 6, 71, 90
8, 167039, Note_on_c, 6, 71, 0
8, 167040, Note_on_c, 6, 73, 90
8, 167069, Note_on_c, 6, 73, 0
8, 167070, Note_on_c, 6, 75, 90
8, 167099, Note_on_c, 6, 75, 0
8, 167100, Note_on_c, 6, 77, 90
8, 167129, Note_on_c, 6, 77, 0
8, 167130, Note_on_c, 6, 78, 90
8, 167159, Note_on_c, 6, 78, 0
8, 167160, Note_on_c, 6, 77, 90
8, 167219, Note_on_c, 6, 77, 0
8, 167220, Note_on_c, 6, 75, 90
8, 167249, Note_on_c, 6, 75, 0
8, 167250, Note_on_c, 6, 77, 90
8, 167279, Note_on_c, 6, 77, 0
8, 167280, Note_on_c, 6, 73, 90
8, 167339, Note_on_c, 6, 73, 0
8, 172680, Note_on_c, 6, 66, 90
8, 172799, Note_on_c, 6, 66, 0
8, 172800, Note_on_c, 6, 71, 90
8, 172979, Note_on_c, 6, 71, 0
8, 172980, Note_on_c, 6, 69, 90
8, 173009, Note_on_c, 6, 69, 0
8, 173010, Note_on_c, 6, 67, 90
8, 173039, Note_on_c, 6, 67, 0
8, 173040, Note_on_c, 6, 69, 90
8, 173099, Note_on_c, 6, 69, 0
8, 173100, Note_on_c, 6, 66, 90
8, 173159, Note_on_c, 6, 66, 0
8, 173160, Note_on_c, 6, 67, 90
8, 173189, Note_on_c, 6, 67, 0
8, 173190, Note_on_c, 6, 66, 90
8, 173219, Note_on_c, 6, 66, 0
8, 173220, Note_on_c, 6, 67, 90
8, 173249, Note_on_c, 6, 67, 0
8, 173250, Note_on_c, 6, 69, 90
8, 173279, Note_on_c, 6, 69, 0
8, 173280, Note_on_c, 6, 67, 90
8, 173309, Note_on_c, 6, 67, 0
8, 173310, Note_on_c, 6, 66, 90
8, 173339, Note_on_c, 6, 66, 0
8, 173340, Note_on_c, 6, 64, 90
8, 173369, Note_on_c, 6, 64, 0
8, 173370, Note_on_c, 6, 67, 90
8, 173399, Note_on_c, 6, 67, 0
8, 173400, Note_on_c, 6, 66, 90
8, 173429, Note_on_c, 6, 66, 0
8, 173430, Note_on_c, 6, 64, 90
8, 173459, Note_on_c, 6, 64, 0
8, 173460, Note_on_c, 6, 66, 90
8, 173489, Note_on_c, 6, 66, 0
8, 173490, Note_on_c, 6, 67, 90
8, 173519, Note_on_c, 6, 67, 0
8, 173520, Note_on_c, 6, 66, 90
8, 173549, Note_on_c, 6, 66, 0
8, 173550, Note_on_c, 6, 69, 90
8, 173579, Note_on_c, 6, 69, 0
8, 173580, Note_on_c, 6, 68, 90
8, 173609, Note_on_c, 6, 68, 0
8, 173610, Note_on_c, 6, 71, 90
8, 173639, Note_on_c, 6, 71, 0
8, 173640, Note_on_c, 6, 69, 90
8, 173699, Note_on_c, 6, 69, 0
8, 173700, Note_on_c, 6, 64, 90
8, 173759, Note_on_c, 6, 64, 0
8, 173760, Note_on_c, 6, 64, 90
8, 173819, Note_on_c, 6, 64, 0
8, 173820, Note_on_c, 6, 69, 90
8, 173939, Note_on_c, 6, 69, 0
8, 173940, Note_on_c, 6, 67, 90
8, 173969, Note_on_c, 6, 67, 0
8, 173970, Note_on_c, 6, 66, 90
8, 173999, Note_on_c, 6, 66, 0
8, 174000, Note_on_c, 6, 67, 90
8, 174059, Note_on_c, 6, 67, 0
8, 174060, Note_on_c, 6, 64, 90
8, 174119, Note_on_c, 6, 64, 0
8, 174120, Note_on_c, 6, 66, 90
8, 174149, Note_on_c, 6, 66, 0
8, 174150, Note_on_c, 6, 64, 90
8, 174179, Note_on_c, 6, 64, 0
8, 174180, Note_on_c, 6, 66, 90
8, 174209, Note_on_c, 6, 66, 0
8, 174210, Note_on_c, 6, 67, 90
8, 174239, Note_on_c, 6, 67, 0
8, 174240, Note_on_c, 6, 66, 90
8, 174269, Note_on_c, 6, 66, 0
8, 174270, Note_on_c, 6, 64, 90
8, 174299, Note_on_c, 6, 64, 0
8, 174300, Note_on_c, 6, 62, 90
8, 174329, Note_on_c, 6, 62, 0
8, 174330, Note_on_c, 6, 66, 90
8, 174359, Note_on_c, 6, 66, 0
8, 174360, Note_on_c, 6, 64, 90
8, 174389, Note_on_c, 6, 64, 0
8, 174390, Note_on_c, 6, 62, 90
8, 174419, Note_on_c, 6, 62, 0
8, 174420, Note_on_c, 6, 64, 90
8, 174449, Note_on_c, 6, 64, 0
8, 174450, Note_on_c, 6, 66, 90
8, 174479, Note_on_c, 6, 66, 0
8, 174480, Note_on_c, 6, 64, 90
8, 174509, Note_on_c, 6, 64, 0
8, 174510, Note_on_c, 6, 67, 90
8, 174539, Note_on_c, 6, 67, 0
8, 174540, Note_on_c, 6, 66, 90
8, 174569, Note_on_c, 6, 66, 0
8, 174570, Note_on_c, 6, 69, 90
8, 174599, Note_on_c, 6, 69, 0
8, 174600, Note_on_c, 6, 67, 90
8, 174629, Note_on_c, 6, 67, 0
8, 174630, Note_on_c, 6, 66, 90
8, 174659, Note_on_c, 6, 66, 0
8, 174660, Note_on_c, 6, 67, 90
8, 174689, Note_on_c, 6, 67, 0
8, 174690, Note_on_c, 6, 69, 90
8, 174719, Note_on_c, 6, 69, 0
8, 174720, Note_on_c, 6, 67, 90
8, 174749, Note_on_c, 6, 67, 0
8, 174750, Note_on_c, 6, 66, 90
8, 174779, Note_on_c, 6, 66, 0
8, 174780, Note_on_c, 6, 64, 90
8, 174809, Note_on_c, 6, 64, 0
8, 174810, Note_on_c, 6, 67, 90
8, 174839, Note_on_c, 6, 67, 0
8, 174840, Note_on_c, 6, 66, 90
8, 174869, Note_on_c, 6, 66, 0
8, 174870, Note_on_c, 6, 64, 90
8, 174899, Note_on_c, 6, 64, 0
8, 174900, Note_on_c, 6, 66, 90
8, 174929, Note_on_c, 6, 66, 0
8, 174930, Note_on_c, 6, 67, 90
8, 174959, Note_on_c, 6, 67, 0
8, 174960, Note_on_c, 6, 66, 90
8, 174989, Note_on_c, 6, 66, 0
8, 174990, Note_on_c, 6, 69, 90
8, 175019, Note_on_c, 6, 69, 0
8, 175020, Note_on_c, 6, 68, 90
8, 175049, Note_on_c, 6, 68, 0
8, 175050, Note_on_c, 6, 71, 90
8, 175079, Note_on_c, 6, 71, 0
8, 175080, Note_on_c, 6, 69, 90
8, 175109, Note_on_c, 6, 69, 0
8, 175110, Note_on_c, 6, 68, 90
8, 175139, Note_on_c, 6, 68, 0
8, 175140, Note_on_c, 6, 69, 90
8, 175169, Note_on_c, 6, 69, 0
8, 175170, Note_on_c, 6, 71, 90
8, 175199, Note_on_c, 6, 71, 0
8, 175200, Note_on_c, 6, 69, 90
8, 175229, Note_on_c, 6, 69, 0
8, 175230, Note_on_c, 6, 68, 90
8, 175259, Note_on_c, 6, 68, 0
8, 175260, Note_on_c, 6, 66, 90
8, 175289, Note_on_c, 6, 66, 0
8, 175290, Note_on_c, 6, 69, 90
8, 175319, Note_on_c, 6, 69, 0
8, 175320, Note_on_c, 6, 68, 90
8, 175349, Note_on_c, 6, 68, 0
8, 175350, Note_on_c, 6, 66, 90
8, 175379, Note_on_c, 6, 66, 0
8, 175380, Note_on_c, 6, 68, 90
8, 175409, Note_on_c, 6, 68, 0
8, 175410, Note_on_c, 6, 69, 90
8, 175439, Note_on_c, 6, 69, 0
8, 175440, Note_on_c, 6, 68, 90
8, 175469, Note_on_c, 6, 68, 0
8, 175470, Note_on_c, 6, 66, 90
8, 175499, Note_on_c, 6, 66, 0
8, 175500, Note_on_c, 6, 65, 90
8, 175529, Note_on_c, 6, 65, 0
8, 175530, Note_on_c, 6, 68, 90
8, 175559, Note_on_c, 6, 68, 0
8, 175560, Note_on_c, 6, 66, 90
8, 175589, Note_on_c, 6, 66, 0
8, 175590, Note_on_c, 6, 68, 90
8, 175619, Note_on_c, 6, 68, 0
8, 175620, Note_on_c, 6, 69, 90
8, 175649, Note_on_c, 6, 69, 0
8, 175650, Note_on_c, 6, 71, 90
8, 175679, Note_on_c, 6, 71, 0
8, 175680, Note_on_c, 6, 73, 90
8, 175709, Note_on_c, 6, 73, 0
8, 175710, Note_on_c, 6, 74, 90
8, 175739, Note_on_c, 6, 74, 0
8, 175740, Note_on_c, 6, 76, 90
8, 175799, Note_on_c, 6, 76, 0
8, 175800, Note_on_c, 6, 74, 90
8, 175859, Note_on_c, 6, 74, 0
8, 175860, Note_on_c, 6, 74, 90
8, 175979, Note_on_c, 6, 74, 0
8, 175980, Note_on_c, 6, 73, 90
8, 176009, Note_on_c, 6, 73, 0
8, 176010, Note_on_c, 6, 71, 90
8, 176039, Note_on_c, 6, 71, 0
8, 176040, Note_on_c, 6, 69, 90
8, 176099, Note_on_c, 6, 69, 0
8, 176100, Note_on_c, 6, 68, 90
8, 176159, Note_on_c, 6, 68, 0
8, 176160, Note_on_c, 6, 78, 90
8, 176219, Note_on_c, 6, 78, 0
8, 176220, Note_on_c, 6, 76, 90
8, 176279, Note_on_c, 6, 76, 0
8, 176340, Note_on_c, 6, 69, 90
8, 176399, Note_on_c, 6, 69, 0
8, 176400, Note_on_c, 6, 71, 90
8, 176459, Note_on_c, 6, 71, 0
8, 176460, Note_on_c, 6, 68, 90
8, 176519, Note_on_c, 6, 68, 0
8, 176520, Note_on_c, 6, 69, 90
8, 176639, Note_on_c, 6, 69, 0
8, 177180, Note_on_c, 6, 69, 90
8, 177299, Note_on_c, 6, 69, 0
8, 177300, Note_on_c, 6, 68, 90
8, 177359, Note_on_c, 6, 68, 0
8, 177360, Note_on_c, 6, 76, 90
8, 177419, Note_on_c, 6, 76, 0
8, 177420, Note_on_c, 6, 74, 90
8, 177479, Note_on_c, 6, 74, 0
8, 177480, Note_on_c, 6, 74, 90
8, 177539, Note_on_c, 6, 74, 0
8, 177540, Note_on_c, 6, 73, 90
8, 177599, Note_on_c, 6, 73, 0
8, 177720, Note_on_c, 6, 66, 90
8, 177839, Note_on_c, 6, 66, 0
8, 177840, Note_on_c, 6, 71, 90
8, 178019, Note_on_c, 6, 71, 0
8, 178020, Note_on_c, 6, 69, 90
8, 178049, Note_on_c, 6, 69, 0
8, 178050, Note_on_c, 6, 67, 90
8, 178079, Note_on_c, 6, 67, 0
8, 178080, Note_on_c, 6, 69, 90
8, 178139, Note_on_c, 6, 69, 0
8, 178140, Note_on_c, 6, 66, 90
8, 178199, Note_on_c, 6, 66, 0
8, 178200, Note_on_c, 6, 67, 90
8, 178229, Note_on_c, 6, 67, 0
8, 178230, Note_on_c, 6, 66, 90
8, 178259, Note_on_c, 6, 66, 0
8, 178260, Note_on_c, 6, 67, 90
8, 178289, Note_on_c, 6, 67, 0
8, 178290, Note_on_c, 6, 69, 90
8, 178319, Note_on_c, 6, 69, 0
8, 178320, Note_on_c, 6, 67, 90
8, 178349, Note_on_c, 6, 67, 0
8, 178350, Note_on_c, 6, 66, 90
8, 178379, Note_on_c, 6, 66, 0
8, 178380, Note_on_c, 6, 64, 90
8, 178409, Note_on_c, 6, 64, 0
8, 178410, Note_on_c, 6, 67, 90
8, 178439, Note_on_c, 6, 67, 0
8, 178440, Note_on_c, 6, 66, 90
8, 178469, Note_on_c, 6, 66, 0
8, 178470, Note_on_c, 6, 64, 90
8, 178499, Note_on_c, 6, 64, 0
8, 178500, Note_on_c, 6, 66, 90
8, 178529, Note_on_c, 6, 66, 0
8, 178530, Note_on_c, 6, 67, 90
8, 178559, Note_on_c, 6, 67, 0
8, 178560, Note_on_c, 6, 66, 90
8, 178589, Note_on_c, 6, 66, 0
8, 178590, Note_on_c, 6, 69, 90
8, 178619, Note_on_c, 6, 69, 0
8, 178620, Note_on_c, 6, 68, 90
8, 178649, Note_on_c, 6, 68, 0
8, 178650, Note_on_c, 6, 71, 90
8, 178679, Note_on_c, 6, 71, 0
8, 178680, Note_on_c, 6, 69, 90
8, 178739, Note_on_c, 6, 69, 0
8, 178740, Note_on_c, 6, 64, 90
8, 178799, Note_on_c, 6, 64, 0
8, 178800, Note_on_c, 6, 64, 90
8, 178859, Note_on_c, 6, 64, 0
8, 178860, Note_on_c, 6, 69, 90
8, 178979, Note_on_c, 6, 69, 0
8, 178980, Note_on_c, 6, 67, 90
8, 179009, Note_on_c, 6, 67, 0
8, 179010, Note_on_c, 6, 66, 90
8, 179039, Note_on_c, 6, 66, 0
8, 179040, Note_on_c, 6, 67, 90
8, 179099, Note_on_c, 6, 67, 0
8, 179100, Note_on_c, 6, 64, 90
8, 179159, Note_on_c, 6, 64, 0
8, 179160, Note_on_c, 6, 66, 90
8, 179189, Note_on_c, 6, 66, 0
8, 179190, Note_on_c, 6, 64, 90
8, 179219, Note_on_c, 6, 64, 0
8, 179220, Note_on_c, 6, 66, 90
8, 179249, Note_on_c, 6, 66, 0
8, 179250, Note_on_c, 6, 67, 90
8, 179279, Note_on_c, 6, 67, 0
8, 179280, Note_on_c, 6, 66, 90
8, 179309, Note_on_c, 6, 66, 0
8, 179310, Note_on_c, 6, 64, 90
8, 179339, Note_on_c, 6, 64, 0
8, 179340, Note_on_c, 6, 62, 90
8, 179369, Note_on_c, 6, 62, 0
8, 179370, Note_on_c, 6, 66, 90
8, 179399, Note_on_c, 6, 66, 0
8, 179400, Note_on_c, 6, 64, 90
8, 179429, Note_on_c, 6, 64, 0
8, 179430, Note_on_c, 6, 62, 90
8, 179459, Note_on_c, 6, 62, 0
8, 179460, Note_on_c, 6, 64, 90
8, 179489, Note_on_c, 6, 64, 0
8, 179490, Note_on_c, 6, 66, 90
8, 179519, Note_on_c, 6, 66, 0
8, 179520, Note_on_c, 6, 64, 90
8, 179549, Note_on_c, 6, 64, 0
8, 179550, Note_on_c, 6, 67, 90
8, 179579, Note_on_c, 6, 67, 0
8, 179580, Note_on_c, 6, 66, 90
8, 179609, Note_on_c, 6, 66, 0
8, 179610, Note_on_c, 6, 69, 90
8, 179639, Note_on_c, 6, 69, 0
8, 179640, Note_on_c, 6, 67, 90
8, 179699, Note_on_c, 6, 67, 0
8, 179700, Note_on_c, 6, 62, 90
8, 179759, Note_on_c, 6, 62, 0
8, 179760, Note_on_c, 6, 67, 90
8, 179939, Note_on_c, 6, 67, 0
8, 179940, Note_on_c, 6, 66, 90
8, 179969, Note_on_c, 6, 66, 0
8, 179970, Note_on_c, 6, 64, 90
8, 179999, Note_on_c, 6, 64, 0
8, 180000, Note_on_c, 6, 66, 90
8, 180059, Note_on_c, 6, 66, 0
8, 180060, Note_on_c, 6, 68, 90
8, 180119, Note_on_c, 6, 68, 0
8, 180120, Note_on_c, 6, 69, 90
8, 180179, Note_on_c, 6, 69, 0
8, 180180, Note_on_c, 6, 64, 90
8, 180239, Note_on_c, 6, 64, 0
8, 180240, Note_on_c, 6, 69, 90
8, 180419, Note_on_c, 6, 69, 0
8, 180420, Note_on_c, 6, 67, 90
8, 180449, Note_on_c, 6, 67, 0
8, 180450, Note_on_c, 6, 66, 90
8, 180479, Note_on_c, 6, 66, 0
8, 180480, Note_on_c, 6, 67, 90
8, 180539, Note_on_c, 6, 67, 0
8, 180540, Note_on_c, 6, 79, 90
8, 180599, Note_on_c, 6, 79, 0
8, 180600, Note_on_c, 6, 78, 90
8, 180629, Note_on_c, 6, 78, 0
8, 180630, Note_on_c, 6, 76, 90
8, 180659, Note_on_c, 6, 76, 0
8, 180660, Note_on_c, 6, 78, 90
8, 180689, Note_on_c, 6, 78, 0
8, 180690, Note_on_c, 6, 79, 90
8, 180719, Note_on_c, 6, 79, 0
8, 180720, Note_on_c, 6, 78, 90
8, 180749, Note_on_c, 6, 78, 0
8, 180750, Note_on_c, 6, 76, 90
8, 180779, Note_on_c, 6, 76, 0
8, 180780, Note_on_c, 6, 74, 90
8, 180809, Note_on_c, 6, 74, 0
8, 180810, Note_on_c, 6, 78, 90
8, 180839, Note_on_c, 6, 78, 0
8, 180840, Note_on_c, 6, 76, 90
8, 180869, Note_on_c, 6, 76, 0
8, 180870, Note_on_c, 6, 74, 90
8, 180899, Note_on_c, 6, 74, 0
8, 180900, Note_on_c, 6, 76, 90
8, 180929, Note_on_c, 6, 76, 0
8, 180930, Note_on_c, 6, 78, 90
8, 180959, Note_on_c, 6, 78, 0
8, 180960, Note_on_c, 6, 76, 90
8, 180989, Note_on_c, 6, 76, 0
8, 180990, Note_on_c, 6, 74, 90
8, 181019, Note_on_c, 6, 74, 0
8, 181020, Note_on_c, 6, 73, 90
8, 181049, Note_on_c, 6, 73, 0
8, 181050, Note_on_c, 6, 76, 90
8, 181079, Note_on_c, 6, 76, 0
8, 181080, Note_on_c, 6, 74, 90
8, 181350, Note_on_c, 6, 74, 0
8, 181350, Note_on_c, 6, 71, 90
8, 181379, Note_on_c, 6, 71, 0
8, 181380, Note_on_c, 6, 73, 90
8, 181409, Note_on_c, 6, 73, 0
8, 181410, Note_on_c, 6, 74, 90
8, 181439, Note_on_c, 6, 74, 0
8, 181440, Note_on_c, 6, 76, 90
8, 181469, Note_on_c, 6, 76, 0
8, 181470, Note_on_c, 6, 78, 90
8, 181499, Note_on_c, 6, 78, 0
8, 181500, Note_on_c, 6, 79, 90
8, 181559, Note_on_c, 6, 79, 0
8, 181560, Note_on_c, 6, 79, 90
8, 181619, Note_on_c, 6, 79, 0
8, 181620, Note_on_c, 6, 76, 90
8, 181679, Note_on_c, 6, 76, 0
8, 181680, Note_on_c, 6, 74, 90
8, 181739, Note_on_c, 6, 74, 0
8, 181740, Note_on_c, 6, 73, 90
8, 181799, Note_on_c, 6, 73, 0
8, 181800, Note_on_c, 6, 71, 90
8, 181829, Note_on_c, 6, 71, 0
8, 181830, Note_on_c, 6, 69, 90
8, 181859, Note_on_c, 6, 69, 0
8, 181860, Note_on_c, 6, 74, 90
8, 181949, Note_on_c, 6, 74, 0
8, 181950, Note_on_c, 6, 76, 90
8, 181979, Note_on_c, 6, 76, 0
8, 181980, Note_on_c, 6, 73, 90
8, 182039, Note_on_c, 6, 73, 0
8, 182040, Note_on_c, 6, 74, 90
8, 182159, Note_on_c, 6, 74, 0
8, 182940, Note_on_c, 6, 76, 90
8, 183059, Note_on_c, 6, 76, 0
8, 183060, Note_on_c, 6, 75, 90
8, 183089, Note_on_c, 6, 75, 0
8, 183090, Note_on_c, 6, 76, 90
8, 183104, Note_on_c, 6, 76, 0
8, 183105, Note_on_c, 6, 78, 90
8, 183119, Note_on_c, 6, 78, 0
8, 183120, Note_on_c, 6, 71, 90
8, 183179, Note_on_c, 6, 71, 0
8, 183180, Note_on_c, 6, 69, 90
8, 183239, Note_on_c, 6, 69, 0
8, 183240, Note_on_c, 6, 67, 90
8, 183359, Note_on_c, 6, 67, 0
8, 185160, Note_on_c, 6, 67, 90
8, 185219, Note_on_c, 6, 67, 0
8, 185220, Note_on_c, 6, 66, 90
8, 185339, Note_on_c, 6, 66, 0
8, 185340, Note_on_c, 6, 64, 90
8, 185399, Note_on_c, 6, 64, 0
8, 185400, Note_on_c, 6, 71, 90
8, 185459, Note_on_c, 6, 71, 0
8, 185460, Note_on_c, 6, 72, 90
8, 185579, Note_on_c, 6, 72, 0
8, 185580, Note_on_c, 6, 64, 90
8, 185639, Note_on_c, 6, 64, 0
8, 185640, Note_on_c, 6, 63, 90
8, 185669, Note_on_c, 6, 63, 0
8, 185670, Note_on_c, 6, 64, 90
8, 185699, Note_on_c, 6, 64, 0
8, 185700, Note_on_c, 6, 66, 90
8, 185729, Note_on_c, 6, 66, 0
8, 185730, Note_on_c, 6, 67, 90
8, 185759, Note_on_c, 6, 67, 0
8, 185760, Note_on_c, 6, 69, 90
8, 185819, Note_on_c, 6, 69, 0
8, 185820, Note_on_c, 6, 67, 90
8, 185879, Note_on_c, 6, 67, 0
8, 185880, Note_on_c, 6, 67, 90
8, 185939, Note_on_c, 6, 67, 0
8, 185940, Note_on_c, 6, 66, 90
8, 185999, Note_on_c, 6, 66, 0
8, 186000, Note_on_c, 6, 69, 90
8, 186059, Note_on_c, 6, 69, 0
8, 186240, Note_on_c, 6, 76, 90
8, 186299, Note_on_c, 6, 76, 0
8, 186300, Note_on_c, 6, 75, 90
8, 186359, Note_on_c, 6, 75, 0
8, 186420, Note_on_c, 6, 66, 90
8, 186479, Note_on_c, 6, 66, 0
8, 186480, Note_on_c, 6, 67, 90
8, 186509, Note_on_c, 6, 67, 0
8, 186510, Note_on_c, 6, 66, 90
8, 186539, Note_on_c, 6, 66, 0
8, 186540, Note_on_c, 6, 67, 90
8, 186599, Note_on_c, 6, 67, 0
8, 186600, Note_on_c, 6, 67, 90
8, 186899, Note_on_c, 6, 67, 0
8, 186900, Note_on_c, 6, 76, 90
8, 186959, Note_on_c, 6, 76, 0
8, 186960, Note_on_c, 6, 73, 90
8, 187019, Note_on_c, 6, 73, 0
8, 187020, Note_on_c, 6, 69, 90
8, 187079, Note_on_c, 6, 69, 0
8, 187080, Note_on_c, 6, 78, 90
8, 187139, Note_on_c, 6, 78, 0
8, 187140, Note_on_c, 6, 76, 90
8, 187199, Note_on_c, 6, 76, 0
8, 187200, Note_on_c, 6, 74, 90
8, 187259, Note_on_c, 6, 74, 0
8, 187320, Note_on_c, 6, 74, 90
8, 187379, Note_on_c, 6, 74, 0
8, 187380, Note_on_c, 6, 73, 90
8, 187439, Note_on_c, 6, 73, 0
8, 187500, Note_on_c, 6, 69, 90
8, 187559, Note_on_c, 6, 69, 0
8, 187560, Note_on_c, 6, 74, 90
8, 187619, Note_on_c, 6, 74, 0
8, 187620, Note_on_c, 6, 77, 90
8, 187679, Note_on_c, 6, 77, 0
8, 187680, Note_on_c, 6, 77, 90
8, 187739, Note_on_c, 6, 77, 0
8, 187740, Note_on_c, 6, 74, 90
8, 187799, Note_on_c, 6, 74, 0
8, 187800, Note_on_c, 6, 79, 90
8, 187859, Note_on_c, 6, 79, 0
8, 187860, Note_on_c, 6, 67, 90
8, 187919, Note_on_c, 6, 67, 0
8, 187920, Note_on_c, 6, 77, 90
8, 187979, Note_on_c, 6, 77, 0
8, 188160, Note_on_c, 6, 72, 90
8, 188189, Note_on_c, 6, 72, 0
8, 188190, Note_on_c, 6, 71, 90
8, 188219, Note_on_c, 6, 71, 0
8, 188220, Note_on_c, 6, 72, 90
8, 188279, Note_on_c, 6, 72, 0
8, 188280, Note_on_c, 6, 62, 90
8, 188339, Note_on_c, 6, 62, 0
8, 188760, Note_on_c, 6, 67, 90
8, 188879, Note_on_c, 6, 67, 0
8, 188940, Note_on_c, 6, 67, 90
8, 188999, Note_on_c, 6, 67, 0
8, 189000, Note_on_c, 6, 67, 90
8, 189059, Note_on_c, 6, 67, 0
8, 189060, Note_on_c, 6, 66, 90
8, 189119, Note_on_c, 6, 66, 0
8, 189180, Note_on_c, 6, 69, 90
8, 189239, Note_on_c, 6, 69, 0
8, 189240, Note_on_c, 6, 71, 90
8, 189419, Note_on_c, 6, 71, 0
8, 189420, Note_on_c, 6, 71, 90
8, 189479, Note_on_c, 6, 71, 0
8, 189480, Note_on_c, 6, 71, 90
8, 189539, Note_on_c, 6, 71, 0
8, 189540, Note_on_c, 6, 69, 90
8, 189599, Note_on_c, 6, 69, 0
8, 189960, Note_on_c, 6, 76, 90
8, 190079, Note_on_c, 6, 76, 0
8, 190140, Note_on_c, 6, 76, 90
8, 190199, Note_on_c, 6, 76, 0
8, 190200, Note_on_c, 6, 76, 90
8, 190259, Note_on_c, 6, 76, 0
8, 190260, Note_on_c, 6, 75, 90
8, 190319, Note_on_c, 6, 75, 0
8, 190380, Note_on_c, 6, 78, 90
8, 190439, Note_on_c, 6, 78, 0
8, 190440, Note_on_c, 6, 79, 90
8, 190619, Note_on_c, 6, 79, 0
8, 190620, Note_on_c, 6, 79, 90
8, 190679, Note_on_c, 6, 79, 0
8, 190680, Note_on_c, 6, 79, 90
8, 190739, Note_on_c, 6, 79, 0
8, 190740, Note_on_c, 6, 78, 90
8, 190799, Note_on_c, 6, 78, 0
8, 191640, Note_on_c, 6, 78, 90
8, 191759, Note_on_c, 6, 78, 0
8, 191940, Note_on_c, 6, 73, 90
8, 191999, Note_on_c, 6, 73, 0
8, 192000, Note_on_c, 6, 78, 90
8, 192059, Note_on_c, 6, 78, 0
8, 192060, Note_on_c, 6, 76, 90
8, 192119, Note_on_c, 6, 76, 0
8, 192120, Note_on_c, 6, 74, 90
8, 192179, Note_on_c, 6, 74, 0
8, 192180, Note_on_c, 6, 75, 90
8, 192299, Note_on_c, 6, 75, 0
8, 192300, Note_on_c, 6, 75, 90
8, 192359, Note_on_c, 6, 75, 0
8, 192360, Note_on_c, 6, 76, 90
8, 192389, Note_on_c, 6, 76, 0
8, 192390, Note_on_c, 6, 75, 90
8, 192419, Note_on_c, 6, 75, 0
8, 192420, Note_on_c, 6, 76, 90
8, 192509, Note_on_c, 6, 76, 0
8, 192510, Note_on_c, 6, 79, 90
8, 192539, Note_on_c, 6, 79, 0
8, 192540, Note_on_c, 6, 78, 90
8, 192569, Note_on_c, 6, 78, 0
8, 192570, Note_on_c, 6, 76, 90
8, 192599, Note_on_c, 6, 76, 0
8, 192600, Note_on_c, 6, 74, 90
8, 192629, Note_on_c, 6, 74, 0
8, 192630, Note_on_c, 6, 73, 90
8, 192659, Note_on_c, 6, 73, 0
8, 192660, Note_on_c, 6, 74, 90
8, 192689, Note_on_c, 6, 74, 0
8, 192690, Note_on_c, 6, 76, 90
8, 192719, Note_on_c, 6, 76, 0
8, 192720, Note_on_c, 6, 74, 90
8, 192749, Note_on_c, 6, 74, 0
8, 192750, Note_on_c, 6, 78, 90
8, 192779, Note_on_c, 6, 78, 0
8, 192780, Note_on_c, 6, 76, 90
8, 192809, Note_on_c, 6, 76, 0
8, 192810, Note_on_c, 6, 74, 90
8, 192839, Note_on_c, 6, 74, 0
8, 192840, Note_on_c, 6, 73, 90
8, 192869, Note_on_c, 6, 73, 0
8, 192870, Note_on_c, 6, 71, 90
8, 192899, Note_on_c, 6, 71, 0
8, 192900, Note_on_c, 6, 73, 90
8, 192989, Note_on_c, 6, 73, 0
8, 192990, Note_on_c, 6, 76, 90
8, 193019, Note_on_c, 6, 76, 0
8, 193020, Note_on_c, 6, 74, 90
8, 193049, Note_on_c, 6, 74, 0
8, 193050, Note_on_c, 6, 73, 90
8, 193079, Note_on_c, 6, 73, 0
8, 193080, Note_on_c, 6, 71, 90
8, 193109, Note_on_c, 6, 71, 0
8, 193110, Note_on_c, 6, 70, 90
8, 193139, Note_on_c, 6, 70, 0
8, 193140, Note_on_c, 6, 71, 90
8, 193169, Note_on_c, 6, 71, 0
8, 193170, Note_on_c, 6, 73, 90
8, 193199, Note_on_c, 6, 73, 0
8, 193200, Note_on_c, 6, 74, 90
8, 193229, Note_on_c, 6, 74, 0
8, 193230, Note_on_c, 6, 76, 90
8, 193259, Note_on_c, 6, 76, 0
8, 193260, Note_on_c, 6, 78, 90
8, 193289, Note_on_c, 6, 78, 0
8, 193290, Note_on_c, 6, 79, 90
8, 193319, Note_on_c, 6, 79, 0
8, 193320, Note_on_c, 6, 73, 90
8, 193349, Note_on_c, 6, 73, 0
8, 193350, Note_on_c, 6, 74, 90
8, 193379, Note_on_c, 6, 74, 0
8, 193380, Note_on_c, 6, 76, 90
8, 193439, Note_on_c, 6, 76, 0
8, 193440, Note_on_c, 6, 76, 90
8, 193499, Note_on_c, 6, 76, 0
8, 193499, End_track
9, 0, Start_track
9, 0, MIDI_port, 0
9, 0, Title_t, "Alto Solo"
9, 0, Program_c, 7, 71
9, 0, Control_c, 7, 7, 127
9, 0, Control_c, 7, 10, 65
9, 86160, Note_on_c, 7, 71, 127
9, 86219, Note_on_c, 7, 71, 0
9, 86220, Note_on_c, 7, 66, 127
9, 86249, Note_on_c, 7, 66, 0
9, 86250, Note_on_c, 7, 67, 127
9, 86279, Note_on_c, 7, 67, 0
9, 86280, Note_on_c, 7, 69, 127
9, 86339, Note_on_c, 7, 69, 0
9, 86340, Note_on_c, 7, 67, 127
9, 86399, Note_on_c, 7, 67, 0
9, 86400, Note_on_c, 7, 67, 127
9, 86519, Note_on_c, 7, 67, 0
9, 86580, Note_on_c, 7, 64, 127
9, 86639, Note_on_c, 7, 64, 0
9, 86640, Note_on_c, 7, 72, 127
9, 86699, Note_on_c, 7, 72, 0
9, 86700, Note_on_c, 7, 72, 127
9, 86759, Note_on_c, 7, 72, 0
9, 86880, Note_on_c, 7, 63, 127
9, 86939, Note_on_c, 7, 63, 0
9, 86970, Note_on_c, 7, 66, 127
9, 86999, Note_on_c, 7, 66, 0
9, 87000, Note_on_c, 7, 69, 127
9, 87059, Note_on_c, 7, 69, 0
9, 87060, Note_on_c, 7, 67, 127
9, 87119, Note_on_c, 7, 67, 0
9, 87120, Note_on_c, 7, 66, 127
9, 87179, Note_on_c, 7, 66, 0
9, 87180, Note_on_c, 7, 64, 127
9, 87239, Note_on_c, 7, 64, 0
9, 92580, Note_on_c, 7, 66, 127
9, 92639, Note_on_c, 7, 66, 0
9, 92640, Note_on_c, 7, 73, 127
9, 92759, Note_on_c, 7, 73, 0
9, 92820, Note_on_c, 7, 73, 127
9, 92879, Note_on_c, 7, 73, 0
9, 92880, Note_on_c, 7, 70, 127
9, 92939, Note_on_c, 7, 70, 0
9, 92940, Note_on_c, 7, 66, 127
9, 92999, Note_on_c, 7, 66, 0
9, 93000, Note_on_c, 7, 76, 127
9, 93059, Note_on_c, 7, 76, 0
9, 93060, Note_on_c, 7, 74, 127
9, 93119, Note_on_c, 7, 74, 0
9, 93120, Note_on_c, 7, 74, 127
9, 93179, Note_on_c, 7, 74, 0
9, 93180, Note_on_c, 7, 74, 127
9, 93239, Note_on_c, 7, 74, 0
9, 93270, Note_on_c, 7, 71, 127
9, 93299, Note_on_c, 7, 71, 0
9, 93300, Note_on_c, 7, 71, 127
9, 93329, Note_on_c, 7, 71, 0
9, 93330, Note_on_c, 7, 66, 127
9, 93359, Note_on_c, 7, 66, 0
9, 93360, Note_on_c, 7, 67, 127
9, 93419, Note_on_c, 7, 67, 0
9, 93420, Note_on_c, 7, 67, 127
9, 93479, Note_on_c, 7, 67, 0
9, 93480, Note_on_c, 7, 64, 127
9, 93539, Note_on_c, 7, 64, 0
9, 93540, Note_on_c, 7, 69, 127
9, 93599, Note_on_c, 7, 69, 0
9, 93600, Note_on_c, 7, 66, 127
9, 93659, Note_on_c, 7, 66, 0
9, 93660, Note_on_c, 7, 66, 127
9, 93719, Note_on_c, 7, 66, 0
9, 93780, Note_on_c, 7, 74, 127
9, 93839, Note_on_c, 7, 74, 0
9, 93840, Note_on_c, 7, 74, 127
9, 93899, Note_on_c, 7, 74, 0
9, 93900, Note_on_c, 7, 69, 127
9, 93959, Note_on_c, 7, 69, 0
9, 93960, Note_on_c, 7, 66, 127
9, 94079, Note_on_c, 7, 66, 0
9, 94080, Note_on_c, 7, 69, 127
9, 94139, Note_on_c, 7, 69, 0
9, 94170, Note_on_c, 7, 62, 127
9, 94199, Note_on_c, 7, 62, 0
9, 94200, Note_on_c, 7, 72, 127
9, 94259, Note_on_c, 7, 72, 0
9, 94260, Note_on_c, 7, 71, 127
9, 94319, Note_on_c, 7, 71, 0
9, 94320, Note_on_c, 7, 71, 127
9, 94439, Note_on_c, 7, 71, 0
9, 94470, Note_on_c, 7, 63, 127
9, 94499, Note_on_c, 7, 63, 0
9, 94500, Note_on_c, 7, 63, 127
9, 94529, Note_on_c, 7, 63, 0
9, 94530, Note_on_c, 7, 64, 127
9, 94559, Note_on_c, 7, 64, 0
9, 94560, Note_on_c, 7, 66, 127
9, 94619, Note_on_c, 7, 66, 0
9, 94620, Note_on_c, 7, 59, 127
9, 94679, Note_on_c, 7, 59, 0
9, 94680, Note_on_c, 7, 69, 127
9, 94739, Note_on_c, 7, 69, 0
9, 94740, Note_on_c, 7, 67, 127
9, 94799, Note_on_c, 7, 67, 0
9, 94800, Note_on_c, 7, 67, 127
9, 94859, Note_on_c, 7, 67, 0
9, 94860, Note_on_c, 7, 67, 127
9, 94919, Note_on_c, 7, 67, 0
9, 94980, Note_on_c, 7, 64, 127
9, 95039, Note_on_c, 7, 64, 0
9, 95040, Note_on_c, 7, 71, 127
9, 95159, Note_on_c, 7, 71, 0
9, 95220, Note_on_c, 7, 71, 127
9, 95279, Note_on_c, 7, 71, 0
9, 95280, Note_on_c, 7, 70, 127
9, 95339, Note_on_c, 7, 70, 0
9, 95340, Note_on_c, 7, 73, 127
9, 95399, Note_on_c, 7, 73, 0
9, 95400, Note_on_c, 7, 76, 127
9, 95459, Note_on_c, 7, 76, 0
9, 95460, Note_on_c, 7, 73, 127
9, 95519, Note_on_c, 7, 73, 0
9, 95520, Note_on_c, 7, 74, 127
9, 95579, Note_on_c, 7, 74, 0
9, 95610, Note_on_c, 7, 74, 127
9, 95639, Note_on_c, 7, 74, 0
9, 95640, Note_on_c, 7, 74, 127
9, 95699, Note_on_c, 7, 74, 0
9, 95700, Note_on_c, 7, 71, 127
9, 95759, Note_on_c, 7, 71, 0
9, 95760, Note_on_c, 7, 68, 127
9, 95819, Note_on_c, 7, 68, 0
9, 95820, Note_on_c, 7, 68, 127
9, 95879, Note_on_c, 7, 68, 0
9, 95880, Note_on_c, 7, 71, 127
9, 95939, Note_on_c, 7, 71, 0
9, 95940, Note_on_c, 7, 68, 127
9, 95999, Note_on_c, 7, 68, 0
9, 96000, Note_on_c, 7, 65, 127
9, 96059, Note_on_c, 7, 65, 0
9, 96060, Note_on_c, 7, 65, 127
9, 96119, Note_on_c, 7, 65, 0
9, 96180, Note_on_c, 7, 68, 127
9, 96239, Note_on_c, 7, 68, 0
9, 96240, Note_on_c, 7, 73, 127
9, 96359, Note_on_c, 7, 73, 0
9, 96420, Note_on_c, 7, 66, 127
9, 96479, Note_on_c, 7, 66, 0
9, 96480, Note_on_c, 7, 72, 127
9, 96539, Note_on_c, 7, 72, 0
9, 96540, Note_on_c, 7, 75, 127
9, 96599, Note_on_c, 7, 75, 0
9, 96600, Note_on_c, 7, 75, 127
9, 96659, Note_on_c, 7, 75, 0
9, 96660, Note_on_c, 7, 68, 127
9, 96719, Note_on_c, 7, 68, 0
9, 96720, Note_on_c, 7, 73, 127
9, 96840, Note_on_c, 7, 73, 0
9, 96900, Note_on_c, 7, 61, 127
9, 96959, Note_on_c, 7, 61, 0
9, 96960, Note_on_c, 7, 66, 127
9, 97019, Note_on_c, 7, 66, 0
9, 97020, Note_on_c, 7, 66, 127
9, 97079, Note_on_c, 7, 66, 0
9, 97080, Note_on_c, 7, 71, 127
9, 97094, Note_on_c, 7, 71, 0
9, 97095, Note_on_c, 7, 73, 127
9, 97109, Note_on_c, 7, 73, 0
9, 97110, Note_on_c, 7, 74, 127
9, 97139, Note_on_c, 7, 74, 0
9, 97140, Note_on_c, 7, 66, 127
9, 97199, Note_on_c, 7, 66, 0
9, 97200, Note_on_c, 7, 68, 127
9, 97319, Note_on_c, 7, 68, 0
9, 140340, Note_on_c, 7, 68, 127
9, 140399, Note_on_c, 7, 68, 0
9, 140400, Note_on_c, 7, 64, 127
9, 140459, Note_on_c, 7, 64, 0
9, 140460, Note_on_c, 7, 64, 127
9, 140519, Note_on_c, 7, 64, 0
9, 140520, Note_on_c, 7, 63, 127
9, 140579, Note_on_c, 7, 63, 0
9, 140580, Note_on_c, 7, 61, 127
9, 140639, Note_on_c, 7, 61, 0
9, 140640, Note_on_c, 7, 70, 127
9, 140699, Note_on_c, 7, 70, 0
9, 140700, Note_on_c, 7, 70, 127
9, 140759, Note_on_c, 7, 70, 0
9, 140820, Note_on_c, 7, 66, 127
9, 140879, Note_on_c, 7, 66, 0
9, 140880, Note_on_c, 7, 70, 127
9, 140939, Note_on_c, 7, 70, 0
9, 140940, Note_on_c, 7, 70, 127
9, 140999, Note_on_c, 7, 70, 0
9, 141000, Note_on_c, 7, 70, 127
9, 141059, Note_on_c, 7, 70, 0
9, 141060, Note_on_c, 7, 73, 127
9, 141119, Note_on_c, 7, 73, 0
9, 141120, Note_on_c, 7, 73, 127
9, 141179, Note_on_c, 7, 73, 0
9, 141180, Note_on_c, 7, 70, 127
9, 141239, Note_on_c, 7, 70, 0
9, 141240, Note_on_c, 7, 66, 127
9, 141299, Note_on_c, 7, 66, 0
9, 141330, Note_on_c, 7, 61, 127
9, 141359, Note_on_c, 7, 61, 0
9, 141360, Note_on_c, 7, 66, 127
9, 141419, Note_on_c, 7, 66, 0
9, 141420, Note_on_c, 7, 66, 127
9, 141479, Note_on_c, 7, 66, 0
9, 141480, Note_on_c, 7, 68, 127
9, 141539, Note_on_c, 7, 68, 0
9, 141540, Note_on_c, 7, 70, 127
9, 141599, Note_on_c, 7, 70, 0
9, 141600, Note_on_c, 7, 71, 127
9, 141659, Note_on_c, 7, 71, 0
9, 141660, Note_on_c, 7, 71, 127
9, 141719, Note_on_c, 7, 71, 0
9, 141840, Note_on_c, 7, 69, 127
9, 141959, Note_on_c, 7, 69, 0
9, 142020, Note_on_c, 7, 69, 127
9, 142049, Note_on_c, 7, 69, 0
9, 142050, Note_on_c, 7, 66, 127
9, 142079, Note_on_c, 7, 66, 0
9, 142080, Note_on_c, 7, 63, 127
9, 142139, Note_on_c, 7, 63, 0
9, 142140, Note_on_c, 7, 64, 127
9, 142199, Note_on_c, 7, 64, 0
9, 142200, Note_on_c, 7, 66, 127
9, 142259, Note_on_c, 7, 66, 0
9, 142290, Note_on_c, 7, 59, 127
9, 142319, Note_on_c, 7, 59, 0
9, 142320, Note_on_c, 7, 69, 127
9, 142379, Note_on_c, 7, 69, 0
9, 142380, Note_on_c, 7, 69, 127
9, 142439, Note_on_c, 7, 69, 0
9, 142440, Note_on_c, 7, 73, 127
9, 142499, Note_on_c, 7, 73, 0
9, 142500, Note_on_c, 7, 71, 127
9, 142559, Note_on_c, 7, 71, 0
9, 142560, Note_on_c, 7, 68, 127
9, 142619, Note_on_c, 7, 68, 0
9, 142620, Note_on_c, 7, 68, 127
9, 142679, Note_on_c, 7, 68, 0
9, 142740, Note_on_c, 7, 64, 127
9, 142799, Note_on_c, 7, 64, 0
9, 142800, Note_on_c, 7, 71, 127
9, 142859, Note_on_c, 7, 71, 0
9, 142860, Note_on_c, 7, 71, 127
9, 142919, Note_on_c, 7, 71, 0
9, 142920, Note_on_c, 7, 73, 127
9, 142979, Note_on_c, 7, 73, 0
9, 142980, Note_on_c, 7, 74, 127
9, 143039, Note_on_c, 7, 74, 0
9, 143040, Note_on_c, 7, 73, 127
9, 143099, Note_on_c, 7, 73, 0
9, 143130, Note_on_c, 7, 73, 127
9, 143159, Note_on_c, 7, 73, 0
9, 143160, Note_on_c, 7, 69, 127
9, 143219, Note_on_c, 7, 69, 0
9, 143220, Note_on_c, 7, 66, 127
9, 143279, Note_on_c, 7, 66, 0
9, 143280, Note_on_c, 7, 75, 127
9, 143339, Note_on_c, 7, 75, 0
9, 143340, Note_on_c, 7, 76, 127
9, 143399, Note_on_c, 7, 76, 0
9, 143400, Note_on_c, 7, 69, 127
9, 143459, Note_on_c, 7, 69, 0
9, 143460, Note_on_c, 7, 68, 127
9, 143519, Note_on_c, 7, 68, 0
9, 143520, Note_on_c, 7, 64, 127
9, 143579, Note_on_c, 7, 64, 0
9, 143580, Note_on_c, 7, 64, 127
9, 143639, Note_on_c, 7, 64, 0
9, 162000, Note_on_c, 7, 71, 127
9, 162120, Note_on_c, 7, 71, 0
9, 162180, Note_on_c, 7, 76, 127
9, 162300, Note_on_c, 7, 76, 0
9, 162300, Note_on_c, 7, 67, 127
9, 162360, Note_on_c, 7, 67, 0
9, 162360, Note_on_c, 7, 66, 127
9, 162420, Note_on_c, 7, 66, 0
9, 162420, Note_on_c, 7, 69, 127
9, 162480, Note_on_c, 7, 69, 0
9, 162480, Note_on_c, 7, 66, 127
9, 162540, Note_on_c, 7, 66, 0
9, 162540, Note_on_c, 7, 64, 127
9, 162570, Note_on_c, 7, 64, 0
9, 162570, Note_on_c, 7, 62, 127
9, 162600, Note_on_c, 7, 62, 0
9, 162600, Note_on_c, 7, 62, 127
9, 162720, Note_on_c, 7, 62, 0
9, 162720, Note_on_c, 7, 69, 127
9, 162840, Note_on_c, 7, 69, 0
9, 162960, Note_on_c, 7, 69, 127
9, 163080, Note_on_c, 7, 69, 0
9, 163200, Note_on_c, 7, 69, 127
9, 163320, Note_on_c, 7, 69, 0
9, 163440, Note_on_c, 7, 69, 127
9, 163499, Note_on_c, 7, 69, 0
9, 163500, Note_on_c, 7, 73, 127
9, 163559, Note_on_c, 7, 73, 0
9, 163560, Note_on_c, 7, 73, 127
9, 163619, Note_on_c, 7, 73, 0
9, 163620, Note_on_c, 7, 66, 127
9, 163679, Note_on_c, 7, 66, 0
9, 163680, Note_on_c, 7, 66, 127
9, 163739, Note_on_c, 7, 66, 0
9, 163740, Note_on_c, 7, 66, 127
9, 163799, Note_on_c, 7, 66, 0
9, 163800, Note_on_c, 7, 74, 127
9, 163919, Note_on_c, 7, 74, 0
9, 163920, Note_on_c, 7, 66, 127
9, 164039, Note_on_c, 7, 66, 0
9, 164160, Note_on_c, 7, 66, 127
9, 164279, Note_on_c, 7, 66, 0
9, 164400, Note_on_c, 7, 66, 127
9, 164519, Note_on_c, 7, 66, 0
9, 164640, Note_on_c, 7, 66, 127
9, 164699, Note_on_c, 7, 66, 0
9, 164700, Note_on_c, 7, 64, 127
9, 164759, Note_on_c, 7, 64, 0
9, 164760, Note_on_c, 7, 62, 127
9, 164819, Note_on_c, 7, 62, 0
9, 164820, Note_on_c, 7, 66, 127
9, 164879, Note_on_c, 7, 66, 0
9, 164880, Note_on_c, 7, 71, 127
9, 164939, Note_on_c, 7, 71, 0
9, 164940, Note_on_c, 7, 68, 127
9, 164999, Note_on_c, 7, 68, 0
9, 165000, Note_on_c, 7, 65, 127
9, 165059, Note_on_c, 7, 65, 0
9, 165060, Note_on_c, 7, 74, 127
9, 165119, Note_on_c, 7, 74, 0
9, 165120, Note_on_c, 7, 73, 127
9, 165179, Note_on_c, 7, 73, 0
9, 165180, Note_on_c, 7, 71, 127
9, 165239, Note_on_c, 7, 71, 0
9, 165240, Note_on_c, 7, 69, 127
9, 165359, Note_on_c, 7, 69, 0
9, 165360, Note_on_c, 7, 68, 127
9, 165479, Note_on_c, 7, 68, 0
9, 165480, Note_on_c, 7, 66, 127
9, 165599, Note_on_c, 7, 66, 0
9, 165720, Note_on_c, 7, 66, 127
9, 165779, Note_on_c, 7, 66, 0
9, 165780, Note_on_c, 7, 65, 127
9, 165839, Note_on_c, 7, 65, 0
9, 166260, Note_on_c, 7, 71, 127
9, 166319, Note_on_c, 7, 71, 0
9, 166320, Note_on_c, 7, 69, 127
9, 166379, Note_on_c, 7, 69, 0
9, 166380, Note_on_c, 7, 68, 127
9, 166499, Note_on_c, 7, 68, 0
9, 166500, Note_on_c, 7, 61, 127
9, 166559, Note_on_c, 7, 61, 0
9, 166560, Note_on_c, 7, 66, 127
9, 166739, Note_on_c, 7, 66, 0
9, 166740, Note_on_c, 7, 71, 127
9, 166769, Note_on_c, 7, 71, 0
9, 166770, Note_on_c, 7, 68, 127
9, 166799, Note_on_c, 7, 68, 0
9, 166800, Note_on_c, 7, 66, 127
9, 166859, Note_on_c, 7, 66, 0
9, 166860, Note_on_c, 7, 65, 127
9, 166919, Note_on_c, 7, 65, 0
9, 167040, Note_on_c, 7, 73, 127
9, 167159, Note_on_c, 7, 73, 0
9, 167220, Note_on_c, 7, 68, 127
9, 167279, Note_on_c, 7, 68, 0
9, 167280, Note_on_c, 7, 65, 127
9, 167339, Note_on_c, 7, 65, 0
9, 167340, Note_on_c, 7, 61, 127
9, 167399, Note_on_c, 7, 61, 0
9, 167400, Note_on_c, 7, 66, 127
9, 167489, Note_on_c, 7, 66, 0
9, 167490, Note_on_c, 7, 71, 127
9, 167519, Note_on_c, 7, 71, 0
9, 167520, Note_on_c, 7, 68, 127
9, 167609, Note_on_c, 7, 68, 0
9, 167610, Note_on_c, 7, 66, 127
9, 167639, Note_on_c, 7, 66, 0
9, 167640, Note_on_c, 7, 66, 127
9, 167759, Note_on_c, 7, 66, 0
9, 188160, Note_on_c, 7, 76, 127
9, 188279, Note_on_c, 7, 76, 0
9, 188340, Note_on_c, 7, 69, 127
9, 188460, Note_on_c, 7, 69, 0
9, 188460, Note_on_c, 7, 72, 127
9, 188519, Note_on_c, 7, 72, 0
9, 188520, Note_on_c, 7, 71, 127
9, 188579, Note_on_c, 7, 71, 0
9, 188580, Note_on_c, 7, 74, 127
9, 188639, Note_on_c, 7, 74, 0
9, 188640, Note_on_c, 7, 71, 127
9, 188699, Note_on_c, 7, 71, 0
9, 188700, Note_on_c, 7, 69, 127
9, 188729, Note_on_c, 7, 69, 0
9, 188730, Note_on_c, 7, 67, 127
9, 188759, Note_on_c, 7, 67, 0
9, 188760, Note_on_c, 7, 67, 127
9, 188879, Note_on_c, 7, 67, 0
9, 188880, Note_on_c, 7, 74, 127
9, 188999, Note_on_c, 7, 74, 0
9, 189120, Note_on_c, 7, 74, 127
9, 189239, Note_on_c, 7, 74, 0
9, 189360, Note_on_c, 7, 74, 127
9, 189479, Note_on_c, 7, 74, 0
9, 189600, Note_on_c, 7, 62, 127
9, 189659, Note_on_c, 7, 62, 0
9, 189660, Note_on_c, 7, 66, 127
9, 189719, Note_on_c, 7, 66, 0
9, 189720, Note_on_c, 7, 66, 127
9, 189779, Note_on_c, 7, 66, 0
9, 189780, Note_on_c, 7, 59, 127
9, 189839, Note_on_c, 7, 59, 0
9, 189840, Note_on_c, 7, 59, 127
9, 189899, Note_on_c, 7, 59, 0
9, 189900, Note_on_c, 7, 59, 127
9, 189959, Note_on_c, 7, 59, 0
9, 189960, Note_on_c, 7, 67, 127
9, 190079, Note_on_c, 7, 67, 0
9, 190080, Note_on_c, 7, 71, 127
9, 190199, Note_on_c, 7, 71, 0
9, 190320, Note_on_c, 7, 71, 127
9, 190439, Note_on_c, 7, 71, 0
9, 190560, Note_on_c, 7, 71, 127
9, 190679, Note_on_c, 7, 71, 0
9, 190800, Note_on_c, 7, 71, 127
9, 190859, Note_on_c, 7, 71, 0
9, 190860, Note_on_c, 7, 69, 127
9, 190919, Note_on_c, 7, 69, 0
9, 190920, Note_on_c, 7, 67, 127
9, 190979, Note_on_c, 7, 67, 0
9, 190980, Note_on_c, 7, 71, 127
9, 191039, Note_on_c, 7, 71, 0
9, 191040, Note_on_c, 7, 73, 127
9, 191069, Note_on_c, 7, 73, 0
9, 191070, Note_on_c, 7, 74, 127
9, 191084, Note_on_c, 7, 74, 0
9, 191085, Note_on_c, 7, 76, 127
9, 191099, Note_on_c, 7, 76, 0
9, 191100, Note_on_c, 7, 74, 127
9, 191129, Note_on_c, 7, 74, 0
9, 191130, Note_on_c, 7, 73, 127
9, 191159, Note_on_c, 7, 73, 0
9, 191160, Note_on_c, 7, 71, 127
9, 191189, Note_on_c, 7, 71, 0
9, 191190, Note_on_c, 7, 70, 127
9, 191219, Note_on_c, 7, 70, 0
9, 191220, Note_on_c, 7, 67, 127
9, 191279, Note_on_c, 7, 67, 0
9, 191280, Note_on_c, 7, 66, 127
9, 191339, Note_on_c, 7, 66, 0
9, 191340, Note_on_c, 7, 64, 127
9, 191399, Note_on_c, 7, 64, 0
9, 191400, Note_on_c, 7, 62, 127
9, 191519, Note_on_c, 7, 62, 0
9, 191520, Note_on_c, 7, 61, 127
9, 191639, Note_on_c, 7, 61, 0
9, 191640, Note_on_c, 7, 59, 127
9, 191759, Note_on_c, 7, 59, 0
9, 191880, Note_on_c, 7, 71, 127
9, 191939, Note_on_c, 7, 71, 0
9, 191940, Note_on_c, 7, 70, 127
9, 191999, Note_on_c, 7, 70, 0
9, 192420, Note_on_c, 7, 64, 127
9, 192479, Note_on_c, 7, 64, 0
9, 192480, Note_on_c, 7, 73, 127
9, 192659, Note_on_c, 7, 73, 0
9, 192660, Note_on_c, 7, 66, 127
9, 192719, Note_on_c, 7, 66, 0
9, 192720, Note_on_c, 7, 71, 127
9, 192899, Note_on_c, 7, 71, 0
9, 192900, Note_on_c, 7, 70, 127
9, 192929, Note_on_c, 7, 70, 0
9, 192930, Note_on_c, 7, 68, 127
9, 192959, Note_on_c, 7, 68, 0
9, 192960, Note_on_c, 7, 70, 127
9, 193079, Note_on_c, 7, 70, 0
9, 193200, Note_on_c, 7, 66, 127
9, 193319, Note_on_c, 7, 66, 0
9, 193380, Note_on_c, 7, 73, 127
9, 193439, Note_on_c, 7, 73, 0
9, 193440, Note_on_c, 7, 70, 127
9, 193499, Note_on_c, 7, 70, 0
9, 193500, Note_on_c, 7, 66, 127
9, 193559, Note_on_c, 7, 66, 0
9, 193560, Note_on_c, 7, 71, 127
9, 193619, Note_on_c, 7, 71, 0
9, 193620, Note_on_c, 7, 66, 127
9, 193679, Note_on_c, 7, 66, 0
9, 193680, Note_on_c, 7, 64, 127
9, 193709, Note_on_c, 7, 64, 0
9, 193710, Note_on_c, 7, 62, 127
9, 193739, Note_on_c, 7, 62, 0
9, 193740, Note_on_c, 7, 61, 127
9, 193769, Note_on_c, 7, 61, 0
9, 193770, Note_on_c, 7, 59, 127
9, 193799, Note_on_c, 7, 59, 0
9, 193800, Note_on_c, 7, 59, 127
9, 193919, Note_on_c, 7, 59, 0
9, 198900, Note_on_c, 7, 61, 127
9, 198959, Note_on_c, 7, 61, 0
9, 198960, Note_on_c, 7, 68, 127
9, 199019, Note_on_c, 7, 68, 0
9, 199020, Note_on_c, 7, 68, 127
9, 199079, Note_on_c, 7, 68, 0
9, 199080, Note_on_c, 7, 73, 127
9, 199139, Note_on_c, 7, 73, 0
9, 199140, Note_on_c, 7, 68, 127
9, 199199, Note_on_c, 7, 68, 0
9, 199200, Note_on_c, 7, 69, 127
9, 199259, Note_on_c, 7, 69, 0
9, 199290, Note_on_c, 7, 73, 127
9, 199319, Note_on_c, 7, 73, 0
9, 199320, Note_on_c, 7, 73, 127
9, 199379, Note_on_c, 7, 73, 0
9, 199380, Note_on_c, 7, 69, 127
9, 199439, Note_on_c, 7, 69, 0
9, 199440, Note_on_c, 7, 66, 127
9, 199499, Note_on_c, 7, 66, 0
9, 199500, Note_on_c, 7, 66, 127
9, 199559, Note_on_c, 7, 66, 0
9, 199560, Note_on_c, 7, 68, 127
9, 199619, Note_on_c, 7, 68, 0
9, 199620, Note_on_c, 7, 69, 127
9, 199679, Note_on_c, 7, 69, 0
9, 199680, Note_on_c, 7, 71, 127
9, 199739, Note_on_c, 7, 71, 0
9, 199740, Note_on_c, 7, 71, 127
9, 199799, Note_on_c, 7, 71, 0
9, 199830, Note_on_c, 7, 64, 127
9, 199859, Note_on_c, 7, 64, 0
9, 199860, Note_on_c, 7, 68, 127
9, 199889, Note_on_c, 7, 68, 0
9, 199890, Note_on_c, 7, 71, 127
9, 199919, Note_on_c, 7, 71, 0
9, 199920, Note_on_c, 7, 76, 127
9, 199979, Note_on_c, 7, 76, 0
9, 199980, Note_on_c, 7, 71, 127
9, 200039, Note_on_c, 7, 71, 0
9, 200040, Note_on_c, 7, 74, 127
9, 200099, Note_on_c, 7, 74, 0
9, 200100, Note_on_c, 7, 73, 127
9, 200159, Note_on_c, 7, 73, 0
9, 200160, Note_on_c, 7, 73, 127
9, 200219, Note_on_c, 7, 73, 0
9, 200220, Note_on_c, 7, 73, 127
9, 200279, Note_on_c, 7, 73, 0
9, 200340, Note_on_c, 7, 69, 127
9, 200399, Note_on_c, 7, 69, 0
9, 200400, Note_on_c, 7, 66, 127
9, 200459, Note_on_c, 7, 66, 0
9, 200460, Note_on_c, 7, 69, 127
9, 200519, Note_on_c, 7, 69, 0
9, 200520, Note_on_c, 7, 74, 127
9, 200579, Note_on_c, 7, 74, 0
9, 200580, Note_on_c, 7, 73, 127
9, 200639, Note_on_c, 7, 73, 0
9, 200640, Note_on_c, 7, 71, 127
9, 200699, Note_on_c, 7, 71, 0
9, 200700, Note_on_c, 7, 69, 127
9, 200759, Note_on_c, 7, 69, 0
9, 200759, End_track
10, 0, Start_track
10, 0, MIDI_port, 0
10, 0, Title_t, "Tenore Solo"
10, 0, Program_c, 5, 57
10, 0, Control_c, 5, 7, 127
10, 0, Control_c, 5, 10, 81
10, 159000, Note_on_c, 5, 74, 90
10, 159059, Note_on_c, 5, 74, 0
10, 159060, Note_on_c, 5, 73, 90
10, 159179, Note_on_c, 5, 73, 0
10, 159180, Note_on_c, 5, 71, 90
10, 159239, Note_on_c, 5, 71, 0
10, 159240, Note_on_c, 5, 78, 90
10, 159299, Note_on_c, 5, 78, 0
10, 159300, Note_on_c, 5, 79, 90
10, 159419, Note_on_c, 5, 79, 0
10, 159420, Note_on_c, 5, 71, 90
10, 159479, Note_on_c, 5, 71, 0
10, 159480, Note_on_c, 5, 70, 90
10, 159509, Note_on_c, 5, 70, 0
10, 159510, Note_on_c, 5, 71, 90
10, 159539, Note_on_c, 5, 71, 0
10, 159540, Note_on_c, 5, 73, 90
10, 159569, Note_on_c, 5, 73, 0
10, 159570, Note_on_c, 5, 74, 90
10, 159599, Note_on_c, 5, 74, 0
10, 159600, Note_on_c, 5, 76, 90
10, 159659, Note_on_c, 5, 76, 0
10, 159660, Note_on_c, 5, 74, 90
10, 159719, Note_on_c, 5, 74, 0
10, 159720, Note_on_c, 5, 76, 90
10, 159749, Note_on_c, 5, 76, 0
10, 159750, Note_on_c, 5, 74, 90
10, 159779, Note_on_c, 5, 74, 0
10, 159780, Note_on_c, 5, 73, 90
10, 159839, Note_on_c, 5, 73, 0
10, 159840, Note_on_c, 5, 76, 90
10, 159899, Note_on_c, 5, 76, 0
10, 160080, Note_on_c, 5, 71, 90
10, 160139, Note_on_c, 5, 71, 0
10, 160140, Note_on_c, 5, 70, 90
10, 160199, Note_on_c, 5, 70, 0
10, 160260, Note_on_c, 5, 73, 90
10, 160319, Note_on_c, 5, 73, 0
10, 160320, Note_on_c, 5, 74, 90
10, 160349, Note_on_c, 5, 74, 0
10, 160350, Note_on_c, 5, 73, 90
10, 160379, Note_on_c, 5, 73, 0
10, 160380, Note_on_c, 5, 74, 90
10, 160439, Note_on_c, 5, 74, 0
10, 160440, Note_on_c, 5, 74, 90
10, 160739, Note_on_c, 5, 74, 0
10, 160740, Note_on_c, 5, 71, 90
10, 160799, Note_on_c, 5, 71, 0
10, 160800, Note_on_c, 5, 80, 90
10, 160859, Note_on_c, 5, 80, 0
10, 160860, Note_on_c, 5, 76, 90
10, 160919, Note_on_c, 5, 76, 0
10, 160920, Note_on_c, 5, 73, 90
10, 160979, Note_on_c, 5, 73, 0
10, 160980, Note_on_c, 5, 71, 90
10, 161039, Note_on_c, 5, 71, 0
10, 161040, Note_on_c, 5, 69, 90
10, 161099, Note_on_c, 5, 69, 0
10, 161160, Note_on_c, 5, 69, 90
10, 161219, Note_on_c, 5, 69, 0
10, 161220, Note_on_c, 5, 68, 90
10, 161279, Note_on_c, 5, 68, 0
10, 161340, Note_on_c, 5, 64, 90
10, 161399, Note_on_c, 5, 64, 0
10, 161400, Note_on_c, 5, 69, 90
10, 161459, Note_on_c, 5, 69, 0
10, 161460, Note_on_c, 5, 72, 90
10, 161519, Note_on_c, 5, 72, 0
10, 161520, Note_on_c, 5, 72, 90
10, 161579, Note_on_c, 5, 72, 0
10, 161580, Note_on_c, 5, 69, 90
10, 161639, Note_on_c, 5, 69, 0
10, 161640, Note_on_c, 5, 74, 90
10, 161699, Note_on_c, 5, 74, 0
10, 161700, Note_on_c, 5, 62, 90
10, 161759, Note_on_c, 5, 62, 0
10, 161760, Note_on_c, 5, 72, 90
10, 161819, Note_on_c, 5, 72, 0
10, 162000, Note_on_c, 5, 79, 90
10, 162029, Note_on_c, 5, 79, 0
10, 162030, Note_on_c, 5, 78, 90
10, 162059, Note_on_c, 5, 78, 0
10, 162060, Note_on_c, 5, 79, 90
10, 162119, Note_on_c, 5, 79, 0
10, 162120, Note_on_c, 5, 69, 90
10, 162179, Note_on_c, 5, 69, 0
10, 162600, Note_on_c, 5, 74, 90
10, 162719, Note_on_c, 5, 74, 0
10, 162780, Note_on_c, 5, 74, 90
10, 162839, Note_on_c, 5, 74, 0
10, 162840, Note_on_c, 5, 74, 90
10, 162899, Note_on_c, 5, 74, 0
10, 162900, Note_on_c, 5, 73, 90
10, 162959, Note_on_c, 5, 73, 0
10, 163020, Note_on_c, 5, 76, 90
10, 163079, Note_on_c, 5, 76, 0
10, 163080, Note_on_c, 5, 78, 90
10, 163259, Note_on_c, 5, 78, 0
10, 163260, Note_on_c, 5, 78, 90
10, 163319, Note_on_c, 5, 78, 0
10, 163320, Note_on_c, 5, 78, 90
10, 163379, Note_on_c, 5, 78, 0
10, 163380, Note_on_c, 5, 76, 90
10, 163439, Note_on_c, 5, 76, 0
10, 163800, Note_on_c, 5, 71, 90
10, 163919, Note_on_c, 5, 71, 0
10, 163980, Note_on_c, 5, 71, 90
10, 164039, Note_on_c, 5, 71, 0
10, 164040, Note_on_c, 5, 71, 90
10, 164099, Note_on_c, 5, 71, 0
10, 164100, Note_on_c, 5, 70, 90
10, 164159, Note_on_c, 5, 70, 0
10, 164220, Note_on_c, 5, 73, 90
10, 164279, Note_on_c, 5, 73, 0
10, 164280, Note_on_c, 5, 74, 90
10, 164459, Note_on_c, 5, 74, 0
10, 164460, Note_on_c, 5, 74, 90
10, 164519, Note_on_c, 5, 74, 0
10, 164520, Note_on_c, 5, 74, 90
10, 164579, Note_on_c, 5, 74, 0
10, 164580, Note_on_c, 5, 73, 90
10, 164639, Note_on_c, 5, 73, 0
10, 165480, Note_on_c, 5, 73, 90
10, 165599, Note_on_c, 5, 73, 0
10, 165780, Note_on_c, 5, 68, 90
10, 165839, Note_on_c, 5, 68, 0
10, 165840, Note_on_c, 5, 75, 90
10, 165899, Note_on_c, 5, 75, 0
10, 165900, Note_on_c, 5, 71, 90
10, 165959, Note_on_c, 5, 71, 0
10, 165960, Note_on_c, 5, 69, 90
10, 166019, Note_on_c, 5, 69, 0
10, 166020, Note_on_c, 5, 70, 90
10, 166139, Note_on_c, 5, 70, 0
10, 166140, Note_on_c, 5, 70, 90
10, 166199, Note_on_c, 5, 70, 0
10, 166200, Note_on_c, 5, 71, 90
10, 166229, Note_on_c, 5, 71, 0
10, 166230, Note_on_c, 5, 70, 90
10, 166259, Note_on_c, 5, 70, 0
10, 166260, Note_on_c, 5, 71, 90
10, 166349, Note_on_c, 5, 71, 0
10, 166350, Note_on_c, 5, 74, 90
10, 166379, Note_on_c, 5, 74, 0
10, 166380, Note_on_c, 5, 73, 90
10, 166409, Note_on_c, 5, 73, 0
10, 166410, Note_on_c, 5, 71, 90
10, 166439, Note_on_c, 5, 71, 0
10, 166440, Note_on_c, 5, 69, 90
10, 166469, Note_on_c, 5, 69, 0
10, 166470, Note_on_c, 5, 68, 90
10, 166499, Note_on_c, 5, 68, 0
10, 166500, Note_on_c, 5, 69, 90
10, 166529, Note_on_c, 5, 69, 0
10, 166530, Note_on_c, 5, 71, 90
10, 166559, Note_on_c, 5, 71, 0
10, 166560, Note_on_c, 5, 69, 90
10, 166589, Note_on_c, 5, 69, 0
10, 166590, Note_on_c, 5, 73, 90
10, 166619, Note_on_c, 5, 73, 0
10, 166620, Note_on_c, 5, 71, 90
10, 166649, Note_on_c, 5, 71, 0
10, 166650, Note_on_c, 5, 69, 90
10, 166679, Note_on_c, 5, 69, 0
10, 166680, Note_on_c, 5, 68, 90
10, 166709, Note_on_c, 5, 68, 0
10, 166710, Note_on_c, 5, 66, 90
10, 166739, Note_on_c, 5, 66, 0
10, 166740, Note_on_c, 5, 68, 90
10, 166829, Note_on_c, 5, 68, 0
10, 166830, Note_on_c, 5, 71, 90
10, 166859, Note_on_c, 5, 71, 0
10, 166860, Note_on_c, 5, 69, 90
10, 166889, Note_on_c, 5, 69, 0
10, 166890, Note_on_c, 5, 68, 90
10, 166919, Note_on_c, 5, 68, 0
10, 166920, Note_on_c, 5, 66, 90
10, 166949, Note_on_c, 5, 66, 0
10, 166950, Note_on_c, 5, 65, 90
10, 166979, Note_on_c, 5, 65, 0
10, 166980, Note_on_c, 5, 66, 90
10, 167009, Note_on_c, 5, 66, 0
10, 167010, Note_on_c, 5, 68, 90
10, 167039, Note_on_c, 5, 68, 0
10, 167040, Note_on_c, 5, 69, 90
10, 167069, Note_on_c, 5, 69, 0
10, 167070, Note_on_c, 5, 71, 90
10, 167099, Note_on_c, 5, 71, 0
10, 167100, Note_on_c, 5, 73, 90
10, 167129, Note_on_c, 5, 73, 0
10, 167130, Note_on_c, 5, 74, 90
10, 167159, Note_on_c, 5, 74, 0
10, 167160, Note_on_c, 5, 68, 90
10, 167189, Note_on_c, 5, 68, 0
10, 167190, Note_on_c, 5, 69, 90
10, 167219, Note_on_c, 5, 69, 0
10, 167220, Note_on_c, 5, 71, 90
10, 167279, Note_on_c, 5, 71, 0
10, 167280, Note_on_c, 5, 71, 90
10, 167339, Note_on_c, 5, 71, 0
10, 172200, Note_on_c, 5, 73, 90
10, 172319, Note_on_c, 5, 73, 0
10, 172320, Note_on_c, 5, 78, 90
10, 172499, Note_on_c, 5, 78, 0
10, 172500, Note_on_c, 5, 76, 90
10, 172529, Note_on_c, 5, 76, 0
10, 172530, Note_on_c, 5, 74, 90
10, 172559, Note_on_c, 5, 74, 0
10, 172560, Note_on_c, 5, 76, 90
10, 172619, Note_on_c, 5, 76, 0
10, 172620, Note_on_c, 5, 73, 90
10, 172679, Note_on_c, 5, 73, 0
10, 172680, Note_on_c, 5, 74, 90
10, 172709, Note_on_c, 5, 74, 0
10, 172710, Note_on_c, 5, 73, 90
10, 172739, Note_on_c, 5, 73, 0
10, 172740, Note_on_c, 5, 74, 90
10, 172769, Note_on_c, 5, 74, 0
10, 172770, Note_on_c, 5, 76, 90
10, 172799, Note_on_c, 5, 76, 0
10, 172800, Note_on_c, 5, 74, 90
10, 172829, Note_on_c, 5, 74, 0
10, 172830, Note_on_c, 5, 73, 90
10, 172859, Note_on_c, 5, 73, 0
10, 172860, Note_on_c, 5, 71, 90
10, 172889, Note_on_c, 5, 71, 0
10, 172890, Note_on_c, 5, 74, 90
10, 172919, Note_on_c, 5, 74, 0
10, 172920, Note_on_c, 5, 73, 90
10, 172949, Note_on_c, 5, 73, 0
10, 172950, Note_on_c, 5, 71, 90
10, 172979, Note_on_c, 5, 71, 0
10, 172980, Note_on_c, 5, 73, 90
10, 173009, Note_on_c, 5, 73, 0
10, 173010, Note_on_c, 5, 74, 90
10, 173039, Note_on_c, 5, 74, 0
10, 173040, Note_on_c, 5, 73, 90
10, 173069, Note_on_c, 5, 73, 0
10, 173070, Note_on_c, 5, 76, 90
10, 173099, Note_on_c, 5, 76, 0
10, 173100, Note_on_c, 5, 75, 90
10, 173129, Note_on_c, 5, 75, 0
10, 173130, Note_on_c, 5, 78, 90
10, 173159, Note_on_c, 5, 78, 0
10, 173160, Note_on_c, 5, 76, 90
10, 173219, Note_on_c, 5, 76, 0
10, 173220, Note_on_c, 5, 71, 90
10, 173279, Note_on_c, 5, 71, 0
10, 173280, Note_on_c, 5, 71, 90
10, 173339, Note_on_c, 5, 71, 0
10, 173340, Note_on_c, 5, 76, 90
10, 173459, Note_on_c, 5, 76, 0
10, 173460, Note_on_c, 5, 74, 90
10, 173489, Note_on_c, 5, 74, 0
10, 173490, Note_on_c, 5, 73, 90
10, 173519, Note_on_c, 5, 73, 0
10, 173520, Note_on_c, 5, 74, 90
10, 173579, Note_on_c, 5, 74, 0
10, 173580, Note_on_c, 5, 71, 90
10, 173639, Note_on_c, 5, 71, 0
10, 173640, Note_on_c, 5, 73, 90
10, 173669, Note_on_c, 5, 73, 0
10, 173670, Note_on_c, 5, 71, 90
10, 173699, Note_on_c, 5, 71, 0
10, 173700, Note_on_c, 5, 73, 90
10, 173729, Note_on_c, 5, 73, 0
10, 173730, Note_on_c, 5, 74, 90
10, 173759, Note_on_c, 5, 74, 0
10, 173760, Note_on_c, 5, 73, 90
10, 173789, Note_on_c, 5, 73, 0
10, 173790, Note_on_c, 5, 71, 90
10, 173819, Note_on_c, 5, 71, 0
10, 173820, Note_on_c, 5, 69, 90
10, 173849, Note_on_c, 5, 69, 0
10, 173850, Note_on_c, 5, 73, 90
10, 173879, Note_on_c, 5, 73, 0
10, 173880, Note_on_c, 5, 71, 90
10, 173909, Note_on_c, 5, 71, 0
10, 173910, Note_on_c, 5, 69, 90
10, 173939, Note_on_c, 5, 69, 0
10, 173940, Note_on_c, 5, 71, 90
10, 173969, Note_on_c, 5, 71, 0
10, 173970, Note_on_c, 5, 73, 90
10, 173999, Note_on_c, 5, 73, 0
10, 174000, Note_on_c, 5, 71, 90
10, 174029, Note_on_c, 5, 71, 0
10, 174030, Note_on_c, 5, 74, 90
10, 174059, Note_on_c, 5, 74, 0
10, 174060, Note_on_c, 5, 73, 90
10, 174089, Note_on_c, 5, 73, 0
10, 174090, Note_on_c, 5, 76, 90
10, 174119, Note_on_c, 5, 76, 0
10, 174120, Note_on_c, 5, 74, 90
10, 174179, Note_on_c, 5, 74, 0
10, 174180, Note_on_c, 5, 69, 90
10, 174239, Note_on_c, 5, 69, 0
10, 174240, Note_on_c, 5, 74, 90
10, 174419, Note_on_c, 5, 74, 0
10, 174420, Note_on_c, 5, 73, 90
10, 174449, Note_on_c, 5, 73, 0
10, 174450, Note_on_c, 5, 71, 90
10, 174479, Note_on_c, 5, 71, 0
10, 174480, Note_on_c, 5, 73, 90
10, 174539, Note_on_c, 5, 73, 0
10, 174540, Note_on_c, 5, 75, 90
10, 174599, Note_on_c, 5, 75, 0
10, 174600, Note_on_c, 5, 76, 90
10, 174659, Note_on_c, 5, 76, 0
10, 174660, Note_on_c, 5, 71, 90
10, 174719, Note_on_c, 5, 71, 0
10, 174720, Note_on_c, 5, 76, 90
10, 174899, Note_on_c, 5, 76, 0
10, 174900, Note_on_c, 5, 74, 90
10, 174929, Note_on_c, 5, 74, 0
10, 174930, Note_on_c, 5, 73, 90
10, 174959, Note_on_c, 5, 73, 0
10, 174960, Note_on_c, 5, 74, 90
10, 175019, Note_on_c, 5, 74, 0
10, 175020, Note_on_c, 5, 71, 90
10, 175079, Note_on_c, 5, 71, 0
10, 175080, Note_on_c, 5, 73, 90
10, 175109, Note_on_c, 5, 73, 0
10, 175110, Note_on_c, 5, 71, 90
10, 175139, Note_on_c, 5, 71, 0
10, 175140, Note_on_c, 5, 73, 90
10, 175169, Note_on_c, 5, 73, 0
10, 175170, Note_on_c, 5, 74, 90
10, 175199, Note_on_c, 5, 74, 0
10, 175200, Note_on_c, 5, 73, 90
10, 175229, Note_on_c, 5, 73, 0
10, 175230, Note_on_c, 5, 71, 90
10, 175259, Note_on_c, 5, 71, 0
10, 175260, Note_on_c, 5, 69, 90
10, 175289, Note_on_c, 5, 69, 0
10, 175290, Note_on_c, 5, 73, 90
10, 175319, Note_on_c, 5, 73, 0
10, 175320, Note_on_c, 5, 71, 90
10, 175349, Note_on_c, 5, 71, 0
10, 175350, Note_on_c, 5, 69, 90
10, 175379, Note_on_c, 5, 69, 0
10, 175380, Note_on_c, 5, 71, 90
10, 175409, Note_on_c, 5, 71, 0
10, 175410, Note_on_c, 5, 73, 90
10, 175439, Note_on_c, 5, 73, 0
10, 175440, Note_on_c, 5, 71, 90
10, 175469, Note_on_c, 5, 71, 0
10, 175470, Note_on_c, 5, 69, 90
10, 175499, Note_on_c, 5, 69, 0
10, 175500, Note_on_c, 5, 68, 90
10, 175529, Note_on_c, 5, 68, 0
10, 175530, Note_on_c, 5, 71, 90
10, 175559, Note_on_c, 5, 71, 0
10, 175560, Note_on_c, 5, 69, 90
10, 175829, Note_on_c, 5, 69, 0
10, 175830, Note_on_c, 5, 66, 90
10, 175859, Note_on_c, 5, 66, 0
10, 175860, Note_on_c, 5, 68, 90
10, 175889, Note_on_c, 5, 68, 0
10, 175890, Note_on_c, 5, 69, 90
10, 175919, Note_on_c, 5, 69, 0
10, 175920, Note_on_c, 5, 71, 90
10, 175949, Note_on_c, 5, 71, 0
10, 175950, Note_on_c, 5, 73, 90
10, 175979, Note_on_c, 5, 73, 0
10, 175980, Note_on_c, 5, 74, 90
10, 176039, Note_on_c, 5, 74, 0
10, 176040, Note_on_c, 5, 74, 90
10, 176099, Note_on_c, 5, 74, 0
10, 176100, Note_on_c, 5, 71, 90
10, 176159, Note_on_c, 5, 71, 0
10, 176160, Note_on_c, 5, 69, 90
10, 176219, Note_on_c, 5, 69, 0
10, 176220, Note_on_c, 5, 68, 90
10, 176279, Note_on_c, 5, 68, 0
10, 176280, Note_on_c, 5, 76, 90
10, 176339, Note_on_c, 5, 76, 0
10, 176340, Note_on_c, 5, 74, 90
10, 176369, Note_on_c, 5, 74, 0
10, 176370, Note_on_c, 5, 73, 90
10, 176399, Note_on_c, 5, 73, 0
10, 176400, Note_on_c, 5, 74, 90
10, 176459, Note_on_c, 5, 74, 0
10, 176460, Note_on_c, 5, 71, 90
10, 176519, Note_on_c, 5, 71, 0
10, 176520, Note_on_c, 5, 69, 90
10, 176639, Note_on_c, 5, 69, 0
10, 177420, Note_on_c, 5, 71, 90
10, 177539, Note_on_c, 5, 71, 0
10, 177540, Note_on_c, 5, 70, 90
10, 177599, Note_on_c, 5, 70, 0
10, 177600, Note_on_c, 5, 78, 90
10, 177659, Note_on_c, 5, 78, 0
10, 177660, Note_on_c, 5, 76, 90
10, 177719, Note_on_c, 5, 76, 0
10, 177720, Note_on_c, 5, 74, 90
10, 177839, Note_on_c, 5, 74, 0
10, 178200, Note_on_c, 5, 71, 90
10, 178319, Note_on_c, 5, 71, 0
10, 178320, Note_on_c, 5, 76, 90
10, 178499, Note_on_c, 5, 76, 0
10, 178500, Note_on_c, 5, 74, 90
10, 178529, Note_on_c, 5, 74, 0
10, 178530, Note_on_c, 5, 73, 90
10, 178559, Note_on_c, 5, 73, 0
10, 178560, Note_on_c, 5, 74, 90
10, 178619, Note_on_c, 5, 74, 0
10, 178620, Note_on_c, 5, 71, 90
10, 178679, Note_on_c, 5, 71, 0
10, 178680, Note_on_c, 5, 73, 90
10, 178709, Note_on_c, 5, 73, 0
10, 178710, Note_on_c, 5, 71, 90
10, 178739, Note_on_c, 5, 71, 0
10, 178740, Note_on_c, 5, 73, 90
10, 178769, Note_on_c, 5, 73, 0
10, 178770, Note_on_c, 5, 74, 90
10, 178799, Note_on_c, 5, 74, 0
10, 178800, Note_on_c, 5, 73, 90
10, 178829, Note_on_c, 5, 73, 0
10, 178830, Note_on_c, 5, 71, 90
10, 178859, Note_on_c, 5, 71, 0
10, 178860, Note_on_c, 5, 69, 90
10, 178889, Note_on_c, 5, 69, 0
10, 178890, Note_on_c, 5, 73, 90
10, 178919, Note_on_c, 5, 73, 0
10, 178920, Note_on_c, 5, 71, 90
10, 178949, Note_on_c, 5, 71, 0
10, 178950, Note_on_c, 5, 69, 90
10, 178979, Note_on_c, 5, 69, 0
10, 178980, Note_on_c, 5, 71, 90
10, 179009, Note_on_c, 5, 71, 0
10, 179010, Note_on_c, 5, 73, 90
10, 179039, Note_on_c, 5, 73, 0
10, 179040, Note_on_c, 5, 71, 90
10, 179069, Note_on_c, 5, 71, 0
10, 179070, Note_on_c, 5, 74, 90
10, 179099, Note_on_c, 5, 74, 0
10, 179100, Note_on_c, 5, 73, 90
10, 179129, Note_on_c, 5, 73, 0
10, 179130, Note_on_c, 5, 76, 90
10, 179159, Note_on_c, 5, 76, 0
10, 179160, Note_on_c, 5, 74, 90
10, 179219, Note_on_c, 5, 74, 0
10, 179220, Note_on_c, 5, 69, 90
10, 179279, Note_on_c, 5, 69, 0
10, 179280, Note_on_c, 5, 69, 90
10, 179339, Note_on_c, 5, 69, 0
10, 179340, Note_on_c, 5, 74, 90
10, 179459, Note_on_c, 5, 74, 0
10, 179460, Note_on_c, 5, 72, 90
10, 179489, Note_on_c, 5, 72, 0
10, 179490, Note_on_c, 5, 71, 90
10, 179519, Note_on_c, 5, 71, 0
10, 179520, Note_on_c, 5, 72, 90
10, 179579, Note_on_c, 5, 72, 0
10, 179580, Note_on_c, 5, 69, 90
10, 179639, Note_on_c, 5, 69, 0
10, 179640, Note_on_c, 5, 71, 90
10, 179669, Note_on_c, 5, 71, 0
10, 179670, Note_on_c, 5, 69, 90
10, 179699, Note_on_c, 5, 69, 0
10, 179700, Note_on_c, 5, 71, 90
10, 179729, Note_on_c, 5, 71, 0
10, 179730, Note_on_c, 5, 72, 90
10, 179759, Note_on_c, 5, 72, 0
10, 179760, Note_on_c, 5, 71, 90
10, 179789, Note_on_c, 5, 71, 0
10, 179790, Note_on_c, 5, 69, 90
10, 179819, Note_on_c, 5, 69, 0
10, 179820, Note_on_c, 5, 67, 90
10, 179849, Note_on_c, 5, 67, 0
10, 179850, Note_on_c, 5, 71, 90
10, 179879, Note_on_c, 5, 71, 0
10, 179880, Note_on_c, 5, 69, 90
10, 179909, Note_on_c, 5, 69, 0
10, 179910, Note_on_c, 5, 67, 90
10, 179939, Note_on_c, 5, 67, 0
10, 179940, Note_on_c, 5, 69, 90
10, 179969, Note_on_c, 5, 69, 0
10, 179970, Note_on_c, 5, 71, 90
10, 179999, Note_on_c, 5, 71, 0
10, 180000, Note_on_c, 5, 69, 90
10, 180029, Note_on_c, 5, 69, 0
10, 180030, Note_on_c, 5, 72, 90
10, 180059, Note_on_c, 5, 72, 0
10, 180060, Note_on_c, 5, 71, 90
10, 180089, Note_on_c, 5, 71, 0
10, 180090, Note_on_c, 5, 74, 90
10, 180119, Note_on_c, 5, 74, 0
10, 180120, Note_on_c, 5, 72, 90
10, 180149, Note_on_c, 5, 72, 0
10, 180150, Note_on_c, 5, 71, 90
10, 180179, Note_on_c, 5, 71, 0
10, 180180, Note_on_c, 5, 72, 90
10, 180209, Note_on_c, 5, 72, 0
10, 180210, Note_on_c, 5, 74, 90
10, 180239, Note_on_c, 5, 74, 0
10, 180240, Note_on_c, 5, 72, 90
10, 180269, Note_on_c, 5, 72, 0
10, 180270, Note_on_c, 5, 71, 90
10, 180299, Note_on_c, 5, 71, 0
10, 180300, Note_on_c, 5, 69, 90
10, 180329, Note_on_c, 5, 69, 0
10, 180330, Note_on_c, 5, 72, 90
10, 180359, Note_on_c, 5, 72, 0
10, 180360, Note_on_c, 5, 71, 90
10, 180389, Note_on_c, 5, 71, 0
10, 180390, Note_on_c, 5, 69, 90
10, 180419, Note_on_c, 5, 69, 0
10, 180420, Note_on_c, 5, 71, 90
10, 180449, Note_on_c, 5, 71, 0
10, 180450, Note_on_c, 5, 72, 90
10, 180479, Note_on_c, 5, 72, 0
10, 180480, Note_on_c, 5, 71, 90
10, 180509, Note_on_c, 5, 71, 0
10, 180510, Note_on_c, 5, 74, 90
10, 180539, Note_on_c, 5, 74, 0
10, 180540, Note_on_c, 5, 73, 90
10, 180569, Note_on_c, 5, 73, 0
10, 180570, Note_on_c, 5, 76, 90
10, 180599, Note_on_c, 5, 76, 0
10, 180600, Note_on_c, 5, 74, 90
10, 180629, Note_on_c, 5, 74, 0
10, 180630, Note_on_c, 5, 73, 90
10, 180659, Note_on_c, 5, 73, 0
10, 180660, Note_on_c, 5, 74, 90
10, 180689, Note_on_c, 5, 74, 0
10, 180690, Note_on_c, 5, 76, 90
10, 180719, Note_on_c, 5, 76, 0
10, 180720, Note_on_c, 5, 74, 90
10, 180749, Note_on_c, 5, 74, 0
10, 180750, Note_on_c, 5, 73, 90
10, 180779, Note_on_c, 5, 73, 0
10, 180780, Note_on_c, 5, 71, 90
10, 180809, Note_on_c, 5, 71, 0
10, 180810, Note_on_c, 5, 74, 90
10, 180839, Note_on_c, 5, 74, 0
10, 180840, Note_on_c, 5, 73, 90
10, 180869, Note_on_c, 5, 73, 0
10, 180870, Note_on_c, 5, 71, 90
10, 180899, Note_on_c, 5, 71, 0
10, 180900, Note_on_c, 5, 73, 90
10, 180929, Note_on_c, 5, 73, 0
10, 180930, Note_on_c, 5, 74, 90
10, 180959, Note_on_c, 5, 74, 0
10, 180960, Note_on_c, 5, 73, 90
10, 180989, Note_on_c, 5, 73, 0
10, 180990, Note_on_c, 5, 71, 90
10, 181019, Note_on_c, 5, 71, 0
10, 181020, Note_on_c, 5, 70, 90
10, 181049, Note_on_c, 5, 70, 0
10, 181050, Note_on_c, 5, 73, 90
10, 181079, Note_on_c, 5, 73, 0
10, 181080, Note_on_c, 5, 71, 90
10, 181109, Note_on_c, 5, 71, 0
10, 181110, Note_on_c, 5, 73, 90
10, 181139, Note_on_c, 5, 73, 0
10, 181140, Note_on_c, 5, 74, 90
10, 181169, Note_on_c, 5, 74, 0
10, 181170, Note_on_c, 5, 76, 90
10, 181199, Note_on_c, 5, 76, 0
10, 181200, Note_on_c, 5, 78, 90
10, 181229, Note_on_c, 5, 78, 0
10, 181230, Note_on_c, 5, 79, 90
10, 181259, Note_on_c, 5, 79, 0
10, 181260, Note_on_c, 5, 81, 90
10, 181319, Note_on_c, 5, 81, 0
10, 181320, Note_on_c, 5, 79, 90
10, 181379, Note_on_c, 5, 79, 0
10, 181380, Note_on_c, 5, 79, 90
10, 181499, Note_on_c, 5, 79, 0
10, 181500, Note_on_c, 5, 78, 90
10, 181529, Note_on_c, 5, 78, 0
10, 181530, Note_on_c, 5, 76, 90
10, 181559, Note_on_c, 5, 76, 0
10, 181560, Note_on_c, 5, 74, 90
10, 181619, Note_on_c, 5, 74, 0
10, 181620, Note_on_c, 5, 73, 90
10, 181679, Note_on_c, 5, 73, 0
10, 181680, Note_on_c, 5, 71, 90
10, 181739, Note_on_c, 5, 71, 0
10, 181740, Note_on_c, 5, 69, 90
10, 181799, Note_on_c, 5, 69, 0
10, 181860, Note_on_c, 5, 79, 90
10, 181889, Note_on_c, 5, 79, 0
10, 181890, Note_on_c, 5, 78, 90
10, 181919, Note_on_c, 5, 78, 0
10, 181920, Note_on_c, 5, 79, 90
10, 181979, Note_on_c, 5, 79, 0
10, 181980, Note_on_c, 5, 76, 90
10, 182039, Note_on_c, 5, 76, 0
10, 182040, Note_on_c, 5, 74, 90
10, 182159, Note_on_c, 5, 74, 0
10, 182700, Note_on_c, 5, 74, 90
10, 182819, Note_on_c, 5, 74, 0
10, 182820, Note_on_c, 5, 73, 90
10, 182879, Note_on_c, 5, 73, 0
10, 182880, Note_on_c, 5, 81, 90
10, 182939, Note_on_c, 5, 81, 0
10, 182940, Note_on_c, 5, 79, 90
10, 182999, Note_on_c, 5, 79, 0
10, 183000, Note_on_c, 5, 79, 90
10, 183059, Note_on_c, 5, 79, 0
10, 183060, Note_on_c, 5, 78, 90
10, 183119, Note_on_c, 5, 78, 0
10, 184200, Note_on_c, 5, 67, 90
10, 184259, Note_on_c, 5, 67, 0
10, 184260, Note_on_c, 5, 66, 90
10, 184379, Note_on_c, 5, 66, 0
10, 184380, Note_on_c, 5, 64, 90
10, 184439, Note_on_c, 5, 64, 0
10, 184440, Note_on_c, 5, 71, 90
10, 184499, Note_on_c, 5, 71, 0
10, 184500, Note_on_c, 5, 72, 90
10, 184619, Note_on_c, 5, 72, 0
10, 184620, Note_on_c, 5, 64, 90
10, 184679, Note_on_c, 5, 64, 0
10, 184680, Note_on_c, 5, 63, 90
10, 184709, Note_on_c, 5, 63, 0
10, 184710, Note_on_c, 5, 64, 90
10, 184739, Note_on_c, 5, 64, 0
10, 184740, Note_on_c, 5, 66, 90
10, 184769, Note_on_c, 5, 66, 0
10, 184770, Note_on_c, 5, 67, 90
10, 184799, Note_on_c, 5, 67, 0
10, 184800, Note_on_c, 5, 69, 90
10, 184859, Note_on_c, 5, 69, 0
10, 184860, Note_on_c, 5, 67, 90
10, 184919, Note_on_c, 5, 67, 0
10, 184920, Note_on_c, 5, 67, 90
10, 184979, Note_on_c, 5, 67, 0
10, 184980, Note_on_c, 5, 66, 90
10, 185039, Note_on_c, 5, 66, 0
10, 185040, Note_on_c, 5, 71, 90
10, 185099, Note_on_c, 5, 71, 0
10, 185220, Note_on_c, 5, 81, 90
10, 185339, Note_on_c, 5, 81, 0
10, 185340, Note_on_c, 5, 79, 90
10, 185369, Note_on_c, 5, 79, 0
10, 185370, Note_on_c, 5, 78, 90
10, 185399, Note_on_c, 5, 78, 0
10, 185400, Note_on_c, 5, 76, 90
10, 185429, Note_on_c, 5, 76, 0
10, 185430, Note_on_c, 5, 74, 90
10, 185459, Note_on_c, 5, 74, 0
10, 185460, Note_on_c, 5, 72, 90
10, 185489, Note_on_c, 5, 72, 0
10, 185490, Note_on_c, 5, 71, 90
10, 185519, Note_on_c, 5, 71, 0
10, 185520, Note_on_c, 5, 69, 90
10, 185579, Note_on_c, 5, 69, 0
10, 185580, Note_on_c, 5, 72, 90
10, 185639, Note_on_c, 5, 72, 0
10, 185640, Note_on_c, 5, 72, 90
10, 185699, Note_on_c, 5, 72, 0
10, 185700, Note_on_c, 5, 71, 90
10, 185819, Note_on_c, 5, 71, 0
10, 185820, Note_on_c, 5, 76, 90
10, 185879, Note_on_c, 5, 76, 0
10, 185880, Note_on_c, 5, 76, 90
10, 185939, Note_on_c, 5, 76, 0
10, 185940, Note_on_c, 5, 75, 90
10, 185999, Note_on_c, 5, 75, 0
10, 186120, Note_on_c, 5, 71, 90
10, 186179, Note_on_c, 5, 71, 0
10, 186360, Note_on_c, 5, 76, 90
10, 186419, Note_on_c, 5, 76, 0
10, 186420, Note_on_c, 5, 75, 90
10, 186479, Note_on_c, 5, 75, 0
10, 186540, Note_on_c, 5, 71, 90
10, 186599, Note_on_c, 5, 71, 0
10, 186600, Note_on_c, 5, 76, 90
10, 186659, Note_on_c, 5, 76, 0
10, 186660, Note_on_c, 5, 79, 90
10, 186719, Note_on_c, 5, 79, 0
10, 186720, Note_on_c, 5, 79, 90
10, 186779, Note_on_c, 5, 79, 0
10, 186780, Note_on_c, 5, 76, 90
10, 186839, Note_on_c, 5, 76, 0
10, 186840, Note_on_c, 5, 81, 90
10, 186899, Note_on_c, 5, 81, 0
10, 186900, Note_on_c, 5, 69, 90
10, 186959, Note_on_c, 5, 69, 0
10, 186960, Note_on_c, 5, 79, 90
10, 187019, Note_on_c, 5, 79, 0
10, 187200, Note_on_c, 5, 74, 90
10, 187259, Note_on_c, 5, 74, 0
10, 187260, Note_on_c, 5, 73, 90
10, 187319, Note_on_c, 5, 73, 0
10, 187380, Note_on_c, 5, 64, 90
10, 187439, Note_on_c, 5, 64, 0
10, 187440, Note_on_c, 5, 65, 90
10, 187469, Note_on_c, 5, 65, 0
10, 187470, Note_on_c, 5, 64, 90
10, 187499, Note_on_c, 5, 64, 0
10, 187500, Note_on_c, 5, 65, 90
10, 187559, Note_on_c, 5, 65, 0
10, 187560, Note_on_c, 5, 65, 90
10, 187859, Note_on_c, 5, 65, 0
10, 187860, Note_on_c, 5, 74, 90
10, 187919, Note_on_c, 5, 74, 0
10, 187920, Note_on_c, 5, 71, 90
10, 187979, Note_on_c, 5, 71, 0
10, 187980, Note_on_c, 5, 67, 90
10, 188039, Note_on_c, 5, 67, 0
10, 188040, Note_on_c, 5, 76, 90
10, 188099, Note_on_c, 5, 76, 0
10, 188100, Note_on_c, 5, 74, 90
10, 188159, Note_on_c, 5, 74, 0
10, 188160, Note_on_c, 5, 72, 90
10, 188219, Note_on_c, 5, 72, 0
10, 188280, Note_on_c, 5, 81, 90
10, 188309, Note_on_c, 5, 81, 0
10, 188310, Note_on_c, 5, 79, 90
10, 188339, Note_on_c, 5, 79, 0
10, 188340, Note_on_c, 5, 81, 90
10, 188399, Note_on_c, 5, 81, 0
10, 188400, Note_on_c, 5, 72, 90
10, 188459, Note_on_c, 5, 72, 0
10, 188760, Note_on_c, 5, 71, 90
10, 188879, Note_on_c, 5, 71, 0
10, 188940, Note_on_c, 5, 71, 90
10, 188999, Note_on_c, 5, 71, 0
10, 189000, Note_on_c, 5, 71, 90
10, 189059, Note_on_c, 5, 71, 0
10, 189060, Note_on_c, 5, 69, 90
10, 189119, Note_on_c, 5, 69, 0
10, 189300, Note_on_c, 5, 74, 90
10, 189359, Note_on_c, 5, 74, 0
10, 189360, Note_on_c, 5, 79, 90
10, 189419, Note_on_c, 5, 79, 0
10, 189420, Note_on_c, 5, 79, 90
10, 189479, Note_on_c, 5, 79, 0
10, 189480, Note_on_c, 5, 79, 90
10, 189539, Note_on_c, 5, 79, 0
10, 189540, Note_on_c, 5, 78, 90
10, 189599, Note_on_c, 5, 78, 0
10, 189960, Note_on_c, 5, 71, 90
10, 190079, Note_on_c, 5, 71, 0
10, 190140, Note_on_c, 5, 79, 90
10, 190199, Note_on_c, 5, 79, 0
10, 190200, Note_on_c, 5, 79, 90
10, 190259, Note_on_c, 5, 79, 0
10, 190260, Note_on_c, 5, 78, 90
10, 190319, Note_on_c, 5, 78, 0
10, 190500, Note_on_c, 5, 71, 90
10, 190559, Note_on_c, 5, 71, 0
10, 190560, Note_on_c, 5, 76, 90
10, 190619, Note_on_c, 5, 76, 0
10, 190620, Note_on_c, 5, 76, 90
10, 190679, Note_on_c, 5, 76, 0
10, 190680, Note_on_c, 5, 76, 90
10, 190739, Note_on_c, 5, 76, 0
10, 190740, Note_on_c, 5, 75, 90
10, 190799, Note_on_c, 5, 75, 0
10, 191760, Note_on_c, 5, 78, 90
10, 191879, Note_on_c, 5, 78, 0
10, 192060, Note_on_c, 5, 66, 90
10, 192119, Note_on_c, 5, 66, 0
10, 192120, Note_on_c, 5, 71, 90
10, 192179, Note_on_c, 5, 71, 0
10, 192180, Note_on_c, 5, 69, 90
10, 192239, Note_on_c, 5, 69, 0
10, 192240, Note_on_c, 5, 67, 90
10, 192299, Note_on_c, 5, 67, 0
10, 192300, Note_on_c, 5, 66, 90
10, 192359, Note_on_c, 5, 66, 0
10, 192360, Note_on_c, 5, 67, 90
10, 192389, Note_on_c, 5, 67, 0
10, 192390, Note_on_c, 5, 66, 90
10, 192419, Note_on_c, 5, 66, 0
10, 192420, Note_on_c, 5, 67, 90
10, 192509, Note_on_c, 5, 67, 0
10, 192510, Note_on_c, 5, 71, 90
10, 192539, Note_on_c, 5, 71, 0
10, 192540, Note_on_c, 5, 69, 90
10, 192569, Note_on_c, 5, 69, 0
10, 192570, Note_on_c, 5, 67, 90
10, 192599, Note_on_c, 5, 67, 0
10, 192600, Note_on_c, 5, 66, 90
10, 192629, Note_on_c, 5, 66, 0
10, 192630, Note_on_c, 5, 64, 90
10, 192659, Note_on_c, 5, 64, 0
10, 192660, Note_on_c, 5, 66, 90
10, 192689, Note_on_c, 5, 66, 0
10, 192690, Note_on_c, 5, 67, 90
10, 192719, Note_on_c, 5, 67, 0
10, 192720, Note_on_c, 5, 66, 90
10, 192749, Note_on_c, 5, 66, 0
10, 192750, Note_on_c, 5, 69, 90
10, 192779, Note_on_c, 5, 69, 0
10, 192780, Note_on_c, 5, 67, 90
10, 192809, Note_on_c, 5, 67, 0
10, 192810, Note_on_c, 5, 66, 90
10, 192839, Note_on_c, 5, 66, 0
10, 192840, Note_on_c, 5, 64, 90
10, 192869, Note_on_c, 5, 64, 0
10, 192870, Note_on_c, 5, 62, 90
10, 192899, Note_on_c, 5, 62, 0
10, 192900, Note_on_c, 5, 64, 90
10, 192989, Note_on_c, 5, 64, 0
10, 192990, Note_on_c, 5, 67, 90
10, 193019, Note_on_c, 5, 67, 0
10, 193020, Note_on_c, 5, 66, 90
10, 193049, Note_on_c, 5, 66, 0
10, 193050, Note_on_c, 5, 64, 90
10, 193079, Note_on_c, 5, 64, 0
10, 193080, Note_on_c, 5, 62, 90
10, 193109, Note_on_c, 5, 62, 0
10, 193110, Note_on_c, 5, 61, 90
10, 193139, Note_on_c, 5, 61, 0
10, 193140, Note_on_c, 5, 62, 90
10, 193169, Note_on_c, 5, 62, 0
10, 193170, Note_on_c, 5, 64, 90
10, 193199, Note_on_c, 5, 64, 0
10, 193200, Note_on_c, 5, 66, 90
10, 193229, Note_on_c, 5, 66, 0
10, 193230, Note_on_c, 5, 68, 90
10, 193259, Note_on_c, 5, 68, 0
10, 193260, Note_on_c, 5, 70, 90
10, 193289, Note_on_c, 5, 70, 0
10, 193290, Note_on_c, 5, 71, 90
10, 193319, Note_on_c, 5, 71, 0
10, 193320, Note_on_c, 5, 70, 90
10, 193379, Note_on_c, 5, 70, 0
10, 193380, Note_on_c, 5, 68, 90
10, 193409, Note_on_c, 5, 68, 0
10, 193410, Note_on_c, 5, 70, 90
10, 193439, Note_on_c, 5, 70, 0
10, 193440, Note_on_c, 5, 68, 90
10, 193499, Note_on_c, 5, 68, 0
10, 193499, End_track
11, 0, Start_track
11, 0, MIDI_port, 0
11, 0, Title_t, "Basso Solo"
11, 0, Program_c, 8, 67
11, 0, Control_c, 8, 7, 127
11, 0, Control_c, 8, 10, 77
11, 109620, Note_on_c, 8, 49, 80
11, 109679, Note_on_c, 8, 49, 0
11, 109680, Note_on_c, 8, 54, 80
11, 109799, Note_on_c, 8, 54, 0
11, 109800, Note_on_c, 8, 54, 80
11, 109889, Note_on_c, 8, 54, 0
11, 109890, Note_on_c, 8, 56, 80
11, 109904, Note_on_c, 8, 56, 0
11, 109905, Note_on_c, 8, 57, 80
11, 109919, Note_on_c, 8, 57, 0
11, 109920, Note_on_c, 8, 56, 80
11, 109979, Note_on_c, 8, 56, 0
11, 109980, Note_on_c, 8, 54, 80
11, 110039, Note_on_c, 8, 54, 0
11, 110040, Note_on_c, 8, 53, 80
11, 110099, Note_on_c, 8, 53, 0
11, 110100, Note_on_c, 8, 54, 80
11, 110159, Note_on_c, 8, 54, 0
11, 110160, Note_on_c, 8, 59, 80
11, 110249, Note_on_c, 8, 59, 0
11, 110250, Note_on_c, 8, 61, 80
11, 110264, Note_on_c, 8, 61, 0
11, 110265, Note_on_c, 8, 62, 80
11, 110279, Note_on_c, 8, 62, 0
11, 110280, Note_on_c, 8, 61, 80
11, 110339, Note_on_c, 8, 61, 0
11, 110340, Note_on_c, 8, 59, 80
11, 110399, Note_on_c, 8, 59, 0
11, 110400, Note_on_c, 8, 61, 80
11, 110459, Note_on_c, 8, 61, 0
11, 110460, Note_on_c, 8, 57, 80
11, 110519, Note_on_c, 8, 57, 0
11, 110520, Note_on_c, 8, 54, 80
11, 110579, Note_on_c, 8, 54, 0
11, 110580, Note_on_c, 8, 57, 80
11, 110639, Note_on_c, 8, 57, 0
11, 110640, Note_on_c, 8, 57, 80
11, 110699, Note_on_c, 8, 57, 0
11, 110700, Note_on_c, 8, 56, 80
11, 110819, Note_on_c, 8, 56, 0
11, 110820, Note_on_c, 8, 54, 80
11, 110879, Note_on_c, 8, 54, 0
11, 110880, Note_on_c, 8, 62, 80
11, 110939, Note_on_c, 8, 62, 0
11, 110940, Note_on_c, 8, 61, 80
11, 111059, Note_on_c, 8, 61, 0
11, 111060, Note_on_c, 8, 53, 80
11, 111119, Note_on_c, 8, 53, 0
11, 111120, Note_on_c, 8, 54, 80
11, 111209, Note_on_c, 8, 54, 0
11, 111210, Note_on_c, 8, 56, 80
11, 111224, Note_on_c, 8, 56, 0
11, 111225, Note_on_c, 8, 57, 80
11, 111239, Note_on_c, 8, 57, 0
11, 111240, Note_on_c, 8, 56, 80
11, 111299, Note_on_c, 8, 56, 0
11, 111300, Note_on_c, 8, 54, 80
11, 111359, Note_on_c, 8, 54, 0
11, 111360, Note_on_c, 8, 56, 80
11, 111419, Note_on_c, 8, 56, 0
11, 111420, Note_on_c, 8, 53, 80
11, 111479, Note_on_c, 8, 53, 0
11, 111480, Note_on_c, 8, 49, 80
11, 111539, Note_on_c, 8, 49, 0
11, 111540, Note_on_c, 8, 60, 80
11, 111599, Note_on_c, 8, 60, 0
11, 111600, Note_on_c, 8, 60, 80
11, 111659, Note_on_c, 8, 60, 0
11, 111660, Note_on_c, 8, 61, 80
11, 111719, Note_on_c, 8, 61, 0
11, 111720, Note_on_c, 8, 59, 80
11, 111749, Note_on_c, 8, 59, 0
11, 111750, Note_on_c, 8, 57, 80
11, 111779, Note_on_c, 8, 57, 0
11, 111780, Note_on_c, 8, 56, 80
11, 111809, Note_on_c, 8, 56, 0
11, 111810, Note_on_c, 8, 54, 80
11, 111839, Note_on_c, 8, 54, 0
11, 111840, Note_on_c, 8, 56, 80
11, 111899, Note_on_c, 8, 56, 0
11, 111900, Note_on_c, 8, 53, 80
11, 111959, Note_on_c, 8, 53, 0
11, 111960, Note_on_c, 8, 49, 80
11, 112019, Note_on_c, 8, 49, 0
11, 112020, Note_on_c, 8, 56, 80
11, 112079, Note_on_c, 8, 56, 0
11, 112080, Note_on_c, 8, 57, 80
11, 112139, Note_on_c, 8, 57, 0
11, 112140, Note_on_c, 8, 59, 80
11, 112169, Note_on_c, 8, 59, 0
11, 112170, Note_on_c, 8, 57, 80
11, 112199, Note_on_c, 8, 57, 0
11, 112200, Note_on_c, 8, 56, 80
11, 112229, Note_on_c, 8, 56, 0
11, 112230, Note_on_c, 8, 57, 80
11, 112259, Note_on_c, 8, 57, 0
11, 112260, Note_on_c, 8, 54, 80
11, 112289, Note_on_c, 8, 54, 0
11, 112290, Note_on_c, 8, 56, 80
11, 112319, Note_on_c, 8, 56, 0
11, 112320, Note_on_c, 8, 52, 80
11, 112379, Note_on_c, 8, 52, 0
11, 112380, Note_on_c, 8, 56, 80
11, 112439, Note_on_c, 8, 56, 0
11, 112440, Note_on_c, 8, 59, 80
11, 112499, Note_on_c, 8, 59, 0
11, 112500, Note_on_c, 8, 62, 80
11, 112589, Note_on_c, 8, 62, 0
11, 112590, Note_on_c, 8, 61, 80
11, 112619, Note_on_c, 8, 61, 0
11, 112620, Note_on_c, 8, 59, 80
11, 112649, Note_on_c, 8, 59, 0
11, 112650, Note_on_c, 8, 57, 80
11, 112679, Note_on_c, 8, 57, 0
11, 112680, Note_on_c, 8, 59, 80
11, 112739, Note_on_c, 8, 59, 0
11, 112740, Note_on_c, 8, 56, 80
11, 112799, Note_on_c, 8, 56, 0
11, 112800, Note_on_c, 8, 57, 80
11, 112919, Note_on_c, 8, 57, 0
11, 113100, Note_on_c, 8, 52, 80
11, 113159, Note_on_c, 8, 52, 0
11, 113160, Note_on_c, 8, 57, 80
11, 113309, Note_on_c, 8, 57, 0
11, 113310, Note_on_c, 8, 56, 80
11, 113339, Note_on_c, 8, 56, 0
11, 113340, Note_on_c, 8, 54, 80
11, 113369, Note_on_c, 8, 54, 0
11, 113370, Note_on_c, 8, 52, 80
11, 113399, Note_on_c, 8, 52, 0
11, 113400, Note_on_c, 8, 62, 80
11, 113459, Note_on_c, 8, 62, 0
11, 113460, Note_on_c, 8, 61, 80
11, 113519, Note_on_c, 8, 61, 0
11, 113520, Note_on_c, 8, 61, 80
11, 113579, Note_on_c, 8, 61, 0
11, 113580, Note_on_c, 8, 54, 80
11, 113639, Note_on_c, 8, 54, 0
11, 113640, Note_on_c, 8, 59, 80
11, 113819, Note_on_c, 8, 59, 0
11, 113820, Note_on_c, 8, 57, 80
11, 113849, Note_on_c, 8, 57, 0
11, 113850, Note_on_c, 8, 56, 80
11, 113879, Note_on_c, 8, 56, 0
11, 113880, Note_on_c, 8, 64, 80
11, 113939, Note_on_c, 8, 64, 0
11, 113940, Note_on_c, 8, 62, 80
11, 113969, Note_on_c, 8, 62, 0
11, 113970, Note_on_c, 8, 61, 80
11, 113999, Note_on_c, 8, 61, 0
11, 114000, Note_on_c, 8, 62, 80
11, 114029, Note_on_c, 8, 62, 0
11, 114030, Note_on_c, 8, 61, 80
11, 114059, Note_on_c, 8, 61, 0
11, 114060, Note_on_c, 8, 59, 80
11, 114089, Note_on_c, 8, 59, 0
11, 114090, Note_on_c, 8, 62, 80
11, 114119, Note_on_c, 8, 62, 0
11, 114120, Note_on_c, 8, 61, 80
11, 114149, Note_on_c, 8, 61, 0
11, 114150, Note_on_c, 8, 59, 80
11, 114179, Note_on_c, 8, 59, 0
11, 114180, Note_on_c, 8, 57, 80
11, 114209, Note_on_c, 8, 57, 0
11, 114210, Note_on_c, 8, 61, 80
11, 114239, Note_on_c, 8, 61, 0
11, 114240, Note_on_c, 8, 59, 80
11, 114269, Note_on_c, 8, 59, 0
11, 114270, Note_on_c, 8, 52, 80
11, 114299, Note_on_c, 8, 52, 0
11, 114300, Note_on_c, 8, 56, 80
11, 114329, Note_on_c, 8, 56, 0
11, 114330, Note_on_c, 8, 59, 80
11, 114359, Note_on_c, 8, 59, 0
11, 114360, Note_on_c, 8, 62, 80
11, 114389, Note_on_c, 8, 62, 0
11, 114390, Note_on_c, 8, 61, 80
11, 114419, Note_on_c, 8, 61, 0
11, 114420, Note_on_c, 8, 59, 80
11, 114449, Note_on_c, 8, 59, 0
11, 114450, Note_on_c, 8, 62, 80
11, 114479, Note_on_c, 8, 62, 0
11, 114480, Note_on_c, 8, 61, 80
11, 114509, Note_on_c, 8, 61, 0
11, 114510, Note_on_c, 8, 59, 80
11, 114539, Note_on_c, 8, 59, 0
11, 114540, Note_on_c, 8, 57, 80
11, 114569, Note_on_c, 8, 57, 0
11, 114570, Note_on_c, 8, 61, 80
11, 114599, Note_on_c, 8, 61, 0
11, 114600, Note_on_c, 8, 59, 80
11, 114629, Note_on_c, 8, 59, 0
11, 114630, Note_on_c, 8, 57, 80
11, 114659, Note_on_c, 8, 57, 0
11, 114660, Note_on_c, 8, 56, 80
11, 114689, Note_on_c, 8, 56, 0
11, 114690, Note_on_c, 8, 59, 80
11, 114719, Note_on_c, 8, 59, 0
11, 114720, Note_on_c, 8, 57, 80
11, 114779, Note_on_c, 8, 57, 0
11, 114780, Note_on_c, 8, 54, 80
11, 114839, Note_on_c, 8, 54, 0
11, 114900, Note_on_c, 8, 57, 80
11, 114959, Note_on_c, 8, 57, 0
11, 114960, Note_on_c, 8, 56, 80
11, 115019, Note_on_c, 8, 56, 0
11, 115020, Note_on_c, 8, 61, 80
11, 115079, Note_on_c, 8, 61, 0
11, 115080, Note_on_c, 8, 60, 80
11, 115139, Note_on_c, 8, 60, 0
11, 115140, Note_on_c, 8, 54, 80
11, 115199, Note_on_c, 8, 54, 0
11, 115200, Note_on_c, 8, 52, 80
11, 115259, Note_on_c, 8, 52, 0
11, 115260, Note_on_c, 8, 57, 80
11, 115319, Note_on_c, 8, 57, 0
11, 115320, Note_on_c, 8, 56, 80
11, 115379, Note_on_c, 8, 56, 0
11, 115380, Note_on_c, 8, 51, 80
11, 115439, Note_on_c, 8, 51, 0
11, 115440, Note_on_c, 8, 49, 80
11, 115499, Note_on_c, 8, 49, 0
11, 115500, Note_on_c, 8, 54, 80
11, 115529, Note_on_c, 8, 54, 0
11, 115530, Note_on_c, 8, 52, 80
11, 115559, Note_on_c, 8, 52, 0
11, 115560, Note_on_c, 8, 51, 80
11, 115619, Note_on_c, 8, 51, 0
11, 115620, Note_on_c, 8, 49, 80
11, 115679, Note_on_c, 8, 49, 0
11, 115680, Note_on_c, 8, 48, 80
11, 115739, Note_on_c, 8, 48, 0
11, 115740, Note_on_c, 8, 51, 80
11, 115799, Note_on_c, 8, 51, 0
11, 115800, Note_on_c, 8, 56, 80
11, 115979, Note_on_c, 8, 56, 0
11, 115980, Note_on_c, 8, 52, 80
11, 116009, Note_on_c, 8, 52, 0
11, 116010, Note_on_c, 8, 49, 80
11, 116039, Note_on_c, 8, 49, 0
11, 116040, Note_on_c, 8, 56, 80
11, 116219, Note_on_c, 8, 56, 0
11, 116220, Note_on_c, 8, 64, 80
11, 116279, Note_on_c, 8, 64, 0
11, 116280, Note_on_c, 8, 63, 80
11, 116339, Note_on_c, 8, 63, 0
11, 116340, Note_on_c, 8, 61, 80
11, 116399, Note_on_c, 8, 61, 0
11, 116400, Note_on_c, 8, 63, 80
11, 116459, Note_on_c, 8, 63, 0
11, 116460, Note_on_c, 8, 54, 80
11, 116519, Note_on_c, 8, 54, 0
11, 116520, Note_on_c, 8, 52, 80
11, 116579, Note_on_c, 8, 52, 0
11, 116580, Note_on_c, 8, 51, 80
11, 116639, Note_on_c, 8, 51, 0
11, 116640, Note_on_c, 8, 52, 80
11, 116669, Note_on_c, 8, 52, 0
11, 116670, Note_on_c, 8, 54, 80
11, 116699, Note_on_c, 8, 54, 0
11, 116700, Note_on_c, 8, 56, 80
11, 116759, Note_on_c, 8, 56, 0
11, 116760, Note_on_c, 8, 56, 80
11, 116819, Note_on_c, 8, 56, 0
11, 116820, Note_on_c, 8, 52, 80
11, 116879, Note_on_c, 8, 52, 0
11, 116880, Note_on_c, 8, 51, 80
11, 116939, Note_on_c, 8, 51, 0
11, 116940, Note_on_c, 8, 48, 80
11, 116999, Note_on_c, 8, 48, 0
11, 117000, Note_on_c, 8, 49, 80
11, 117059, Note_on_c, 8, 49, 0
11, 117060, Note_on_c, 8, 61, 80
11, 117119, Note_on_c, 8, 61, 0
11, 117120, Note_on_c, 8, 60, 80
11, 117149, Note_on_c, 8, 60, 0
11, 117150, Note_on_c, 8, 61, 80
11, 117179, Note_on_c, 8, 61, 0
11, 117180, Note_on_c, 8, 63, 80
11, 117239, Note_on_c, 8, 63, 0
11, 117240, Note_on_c, 8, 63, 80
11, 117299, Note_on_c, 8, 63, 0
11, 117300, Note_on_c, 8, 56, 80
11, 117359, Note_on_c, 8, 56, 0
11, 117360, Note_on_c, 8, 61, 80
11, 117419, Note_on_c, 8, 61, 0
11, 117420, Note_on_c, 8, 59, 80
11, 117449, Note_on_c, 8, 59, 0
11, 117450, Note_on_c, 8, 57, 80
11, 117479, Note_on_c, 8, 57, 0
11, 117480, Note_on_c, 8, 59, 80
11, 117539, Note_on_c, 8, 59, 0
11, 117540, Note_on_c, 8, 56, 80
11, 117599, Note_on_c, 8, 56, 0
11, 117600, Note_on_c, 8, 57, 80
11, 117659, Note_on_c, 8, 57, 0
11, 117660, Note_on_c, 8, 60, 80
11, 117719, Note_on_c, 8, 60, 0
11, 117720, Note_on_c, 8, 61, 80
11, 117779, Note_on_c, 8, 61, 0
11, 117780, Note_on_c, 8, 54, 80
11, 117839, Note_on_c, 8, 54, 0
11, 117840, Note_on_c, 8, 52, 80
11, 117899, Note_on_c, 8, 52, 0
11, 117900, Note_on_c, 8, 56, 80
11, 117929, Note_on_c, 8, 56, 0
11, 117930, Note_on_c, 8, 54, 80
11, 117959, Note_on_c, 8, 54, 0
11, 117960, Note_on_c, 8, 52, 80
11, 118019, Note_on_c, 8, 52, 0
11, 118020, Note_on_c, 8, 51, 80
11, 118079, Note_on_c, 8, 51, 0
11, 118080, Note_on_c, 8, 49, 80
11, 118199, Note_on_c, 8, 49, 0
11, 121140, Note_on_c, 8, 56, 80
11, 121199, Note_on_c, 8, 56, 0
11, 121200, Note_on_c, 8, 52, 80
11, 121319, Note_on_c, 8, 52, 0
11, 121320, Note_on_c, 8, 54, 80
11, 121409, Note_on_c, 8, 54, 0
11, 121410, Note_on_c, 8, 56, 80
11, 121424, Note_on_c, 8, 56, 0
11, 121425, Note_on_c, 8, 57, 80
11, 121439, Note_on_c, 8, 57, 0
11, 121440, Note_on_c, 8, 56, 80
11, 121499, Note_on_c, 8, 56, 0
11, 121500, Note_on_c, 8, 59, 80
11, 121559, Note_on_c, 8, 59, 0
11, 121560, Note_on_c, 8, 64, 80
11, 121739, Note_on_c, 8, 64, 0
11, 121740, Note_on_c, 8, 63, 80
11, 121769, Note_on_c, 8, 63, 0
11, 121770, Note_on_c, 8, 61, 80
11, 121799, Note_on_c, 8, 61, 0
11, 121800, Note_on_c, 8, 59, 80
11, 121859, Note_on_c, 8, 59, 0
11, 121860, Note_on_c, 8, 57, 80
11, 121919, Note_on_c, 8, 57, 0
11, 121920, Note_on_c, 8, 56, 80
11, 121979, Note_on_c, 8, 56, 0
11, 121980, Note_on_c, 8, 57, 80
11, 122039, Note_on_c, 8, 57, 0
11, 122040, Note_on_c, 8, 59, 80
11, 122099, Note_on_c, 8, 59, 0
11, 122100, Note_on_c, 8, 56, 80
11, 122159, Note_on_c, 8, 56, 0
11, 122160, Note_on_c, 8, 58, 80
11, 122189, Note_on_c, 8, 58, 0
11, 122190, Note_on_c, 8, 56, 80
11, 122219, Note_on_c, 8, 56, 0
11, 122220, Note_on_c, 8, 58, 80
11, 122309, Note_on_c, 8, 58, 0
11, 122310, Note_on_c, 8, 61, 80
11, 122339, Note_on_c, 8, 61, 0
11, 122340, Note_on_c, 8, 59, 80
11, 122369, Note_on_c, 8, 59, 0
11, 122370, Note_on_c, 8, 62, 80
11, 122399, Note_on_c, 8, 62, 0
11, 122400, Note_on_c, 8, 61, 80
11, 122429, Note_on_c, 8, 61, 0
11, 122430, Note_on_c, 8, 59, 80
11, 122459, Note_on_c, 8, 59, 0
11, 122460, Note_on_c, 8, 61, 80
11, 122489, Note_on_c, 8, 61, 0
11, 122490, Note_on_c, 8, 62, 80
11, 122519, Note_on_c, 8, 62, 0
11, 122520, Note_on_c, 8, 64, 80
11, 122549, Note_on_c, 8, 64, 0
11, 122550, Note_on_c, 8, 62, 80
11, 122579, Note_on_c, 8, 62, 0
11, 122580, Note_on_c, 8, 61, 80
11, 122609, Note_on_c, 8, 61, 0
11, 122610, Note_on_c, 8, 59, 80
11, 122639, Note_on_c, 8, 59, 0
11, 122640, Note_on_c, 8, 61, 80
11, 122669, Note_on_c, 8, 61, 0
11, 122670, Note_on_c, 8, 54, 80
11, 122699, Note_on_c, 8, 54, 0
11, 122700, Note_on_c, 8, 58, 80
11, 122729, Note_on_c, 8, 58, 0
11, 122730, Note_on_c, 8, 61, 80
11, 122759, Note_on_c, 8, 61, 0
11, 122760, Note_on_c, 8, 64, 80
11, 122789, Note_on_c, 8, 64, 0
11, 122790, Note_on_c, 8, 62, 80
11, 122819, Note_on_c, 8, 62, 0
11, 122820, Note_on_c, 8, 61, 80
11, 122849, Note_on_c, 8, 61, 0
11, 122850, Note_on_c, 8, 59, 80
11, 122879, Note_on_c, 8, 59, 0
11, 122880, Note_on_c, 8, 61, 80
11, 122909, Note_on_c, 8, 61, 0
11, 122910, Note_on_c, 8, 59, 80
11, 122939, Note_on_c, 8, 59, 0
11, 122940, Note_on_c, 8, 58, 80
11, 122969, Note_on_c, 8, 58, 0
11, 122970, Note_on_c, 8, 56, 80
11, 122999, Note_on_c, 8, 56, 0
11, 123000, Note_on_c, 8, 54, 80
11, 123029, Note_on_c, 8, 54, 0
11, 123030, Note_on_c, 8, 52, 80
11, 123059, Note_on_c, 8, 52, 0
11, 123060, Note_on_c, 8, 50, 80
11, 123089, Note_on_c, 8, 50, 0
11, 123090, Note_on_c, 8, 49, 80
11, 123119, Note_on_c, 8, 49, 0
11, 123120, Note_on_c, 8, 50, 80
11, 123149, Note_on_c, 8, 50, 0
11, 123150, Note_on_c, 8, 54, 80
11, 123179, Note_on_c, 8, 54, 0
11, 123180, Note_on_c, 8, 58, 80
11, 123269, Note_on_c, 8, 58, 0
11, 123270, Note_on_c, 8, 59, 80
11, 123299, Note_on_c, 8, 59, 0
11, 123300, Note_on_c, 8, 55, 80
11, 123359, Note_on_c, 8, 55, 0
11, 123360, Note_on_c, 8, 54, 80
11, 123389, Note_on_c, 8, 54, 0
11, 123390, Note_on_c, 8, 53, 80
11, 123419, Note_on_c, 8, 53, 0
11, 123420, Note_on_c, 8, 62, 80
11, 123539, Note_on_c, 8, 62, 0
11, 123540, Note_on_c, 8, 61, 80
11, 123599, Note_on_c, 8, 61, 0
11, 123600, Note_on_c, 8, 59, 80
11, 123719, Note_on_c, 8, 59, 0
11, 123720, Note_on_c, 8, 58, 80
11, 123809, Note_on_c, 8, 58, 0
11, 123810, Note_on_c, 8, 59, 80
11, 123839, Note_on_c, 8, 59, 0
11, 123840, Note_on_c, 8, 59, 80
11, 123959, Note_on_c, 8, 59, 0
11, 124980, Note_on_c, 8, 47, 80
11, 125039, Note_on_c, 8, 47, 0
11, 125040, Note_on_c, 8, 54, 80
11, 125099, Note_on_c, 8, 54, 0
11, 125100, Note_on_c, 8, 54, 80
11, 125219, Note_on_c, 8, 54, 0
11, 125220, Note_on_c, 8, 59, 80
11, 125279, Note_on_c, 8, 59, 0
11, 125280, Note_on_c, 8, 55, 80
11, 125339, Note_on_c, 8, 55, 0
11, 125340, Note_on_c, 8, 54, 80
11, 125459, Note_on_c, 8, 54, 0
11, 125460, Note_on_c, 8, 59, 80
11, 125519, Note_on_c, 8, 59, 0
11, 125520, Note_on_c, 8, 64, 80
11, 125579, Note_on_c, 8, 64, 0
11, 125580, Note_on_c, 8, 64, 80
11, 125609, Note_on_c, 8, 64, 0
11, 125610, Note_on_c, 8, 62, 80
11, 125639, Note_on_c, 8, 62, 0
11, 125640, Note_on_c, 8, 61, 80
11, 125699, Note_on_c, 8, 61, 0
11, 125700, Note_on_c, 8, 59, 80
11, 125759, Note_on_c, 8, 59, 0
11, 125760, Note_on_c, 8, 58, 80
11, 125789, Note_on_c, 8, 58, 0
11, 125790, Note_on_c, 8, 59, 80
11, 125819, Note_on_c, 8, 59, 0
11, 125820, Note_on_c, 8, 61, 80
11, 125879, Note_on_c, 8, 61, 0
11, 125880, Note_on_c, 8, 61, 80
11, 125939, Note_on_c, 8, 61, 0
11, 125940, Note_on_c, 8, 54, 80
11, 125999, Note_on_c, 8, 54, 0
11, 126000, Note_on_c, 8, 59, 80
11, 126029, Note_on_c, 8, 59, 0
11, 126030, Note_on_c, 8, 58, 80
11, 126059, Note_on_c, 8, 58, 0
11, 126060, Note_on_c, 8, 59, 80
11, 126089, Note_on_c, 8, 59, 0
11, 126090, Note_on_c, 8, 62, 80
11, 126119, Note_on_c, 8, 62, 0
11, 126120, Note_on_c, 8, 61, 80
11, 126149, Note_on_c, 8, 61, 0
11, 126150, Note_on_c, 8, 59, 80
11, 126179, Note_on_c, 8, 59, 0
11, 126180, Note_on_c, 8, 61, 80
11, 126209, Note_on_c, 8, 61, 0
11, 126210, Note_on_c, 8, 64, 80
11, 126239, Note_on_c, 8, 64, 0
11, 126240, Note_on_c, 8, 62, 80
11, 126269, Note_on_c, 8, 62, 0
11, 126270, Note_on_c, 8, 61, 80
11, 126299, Note_on_c, 8, 61, 0
11, 126300, Note_on_c, 8, 59, 80
11, 126329, Note_on_c, 8, 59, 0
11, 126330, Note_on_c, 8, 61, 80
11, 126359, Note_on_c, 8, 61, 0
11, 126360, Note_on_c, 8, 62, 80
11, 126419, Note_on_c, 8, 62, 0
11, 126420, Note_on_c, 8, 59, 80
11, 126479, Note_on_c, 8, 59, 0
11, 126480, Note_on_c, 8, 56, 80
11, 126509, Note_on_c, 8, 56, 0
11, 126510, Note_on_c, 8, 54, 80
11, 126539, Note_on_c, 8, 54, 0
11, 126540, Note_on_c, 8, 52, 80
11, 126629, Note_on_c, 8, 52, 0
11, 126630, Note_on_c, 8, 56, 80
11, 126659, Note_on_c, 8, 56, 0
11, 126660, Note_on_c, 8, 59, 80
11, 126689, Note_on_c, 8, 59, 0
11, 126690, Note_on_c, 8, 62, 80
11, 126719, Note_on_c, 8, 62, 0
11, 126720, Note_on_c, 8, 61, 80
11, 126749, Note_on_c, 8, 61, 0
11, 126750, Note_on_c, 8, 59, 80
11, 126779, Note_on_c, 8, 59, 0
11, 126780, Note_on_c, 8, 57, 80
11, 126809, Note_on_c, 8, 57, 0
11, 126810, Note_on_c, 8, 59, 80
11, 126839, Note_on_c, 8, 59, 0
11, 126840, Note_on_c, 8, 61, 80
11, 126899, Note_on_c, 8, 61, 0
11, 126900, Note_on_c, 8, 57, 80
11, 126959, Note_on_c, 8, 57, 0
11, 126960, Note_on_c, 8, 54, 80
11, 126989, Note_on_c, 8, 54, 0
11, 126990, Note_on_c, 8, 53, 80
11, 127019, Note_on_c, 8, 53, 0
11, 127020, Note_on_c, 8, 54, 80
11, 127139, Note_on_c, 8, 54, 0
11, 127140, Note_on_c, 8, 57, 80
11, 127199, Note_on_c, 8, 57, 0
11, 127200, Note_on_c, 8, 56, 80
11, 127229, Note_on_c, 8, 56, 0
11, 127230, Note_on_c, 8, 57, 80
11, 127259, Note_on_c, 8, 57, 0
11, 127260, Note_on_c, 8, 59, 80
11, 127289, Note_on_c, 8, 59, 0
11, 127290, Note_on_c, 8, 62, 80
11, 127319, Note_on_c, 8, 62, 0
11, 127320, Note_on_c, 8, 61, 80
11, 127349, Note_on_c, 8, 61, 0
11, 127350, Note_on_c, 8, 59, 80
11, 127379, Note_on_c, 8, 59, 0
11, 127380, Note_on_c, 8, 57, 80
11, 127409, Note_on_c, 8, 57, 0
11, 127410, Note_on_c, 8, 56, 80
11, 127439, Note_on_c, 8, 56, 0
11, 127440, Note_on_c, 8, 54, 80
11, 127469, Note_on_c, 8, 54, 0
11, 127470, Note_on_c, 8, 53, 80
11, 127499, Note_on_c, 8, 53, 0
11, 127500, Note_on_c, 8, 54, 80
11, 127529, Note_on_c, 8, 54, 0
11, 127530, Note_on_c, 8, 56, 80
11, 127559, Note_on_c, 8, 56, 0
11, 127560, Note_on_c, 8, 49, 80
11, 127619, Note_on_c, 8, 49, 0
11, 127620, Note_on_c, 8, 59, 80
11, 127679, Note_on_c, 8, 59, 0
11, 127680, Note_on_c, 8, 57, 80
11, 127739, Note_on_c, 8, 57, 0
11, 127740, Note_on_c, 8, 56, 80
11, 127769, Note_on_c, 8, 56, 0
11, 127770, Note_on_c, 8, 54, 80
11, 127799, Note_on_c, 8, 54, 0
11, 127800, Note_on_c, 8, 53, 80
11, 127829, Note_on_c, 8, 53, 0
11, 127830, Note_on_c, 8, 54, 80
11, 127859, Note_on_c, 8, 54, 0
11, 127860, Note_on_c, 8, 57, 80
11, 127889, Note_on_c, 8, 57, 0
11, 127890, Note_on_c, 8, 61, 80
11, 127919, Note_on_c, 8, 61, 0
11, 127920, Note_on_c, 8, 64, 80
11, 127949, Note_on_c, 8, 64, 0
11, 127950, Note_on_c, 8, 62, 80
11, 127979, Note_on_c, 8, 62, 0
11, 127980, Note_on_c, 8, 61, 80
11, 128009, Note_on_c, 8, 61, 0
11, 128010, Note_on_c, 8, 59, 80
11, 128039, Note_on_c, 8, 59, 0
11, 128040, Note_on_c, 8, 61, 80
11, 128099, Note_on_c, 8, 61, 0
11, 128100, Note_on_c, 8, 59, 80
11, 128159, Note_on_c, 8, 59, 0
11, 128160, Note_on_c, 8, 59, 80
11, 128189, Note_on_c, 8, 59, 0
11, 128190, Note_on_c, 8, 57, 80
11, 128219, Note_on_c, 8, 57, 0
11, 128220, Note_on_c, 8, 56, 80
11, 128249, Note_on_c, 8, 56, 0
11, 128250, Note_on_c, 8, 54, 80
11, 128279, Note_on_c, 8, 54, 0
11, 128280, Note_on_c, 8, 56, 80
11, 128339, Note_on_c, 8, 56, 0
11, 128340, Note_on_c, 8, 53, 80
11, 128399, Note_on_c, 8, 53, 0
11, 128400, Note_on_c, 8, 54, 80
11, 128519, Note_on_c, 8, 54, 0
11, 128580, Note_on_c, 8, 54, 80
11, 128639, Note_on_c, 8, 54, 0
11, 128640, Note_on_c, 8, 55, 80
11, 128654, Note_on_c, 8, 55, 0
11, 128655, Note_on_c, 8, 54, 80
11, 128669, Note_on_c, 8, 54, 0
11, 128670, Note_on_c, 8, 52, 80
11, 128775, Note_on_c, 8, 52, 0
11, 128775, Note_on_c, 8, 50, 80
11, 128789, Note_on_c, 8, 50, 0
11, 128790, Note_on_c, 8, 49, 80
11, 128940, Note_on_c, 8, 49, 0
11, 128940, Note_on_c, 8, 59, 80
11, 128999, Note_on_c, 8, 59, 0
11, 129000, Note_on_c, 8, 58, 80
11, 129059, Note_on_c, 8, 58, 0
11, 129060, Note_on_c, 8, 64, 80
11, 129119, Note_on_c, 8, 64, 0
11, 129120, Note_on_c, 8, 62, 80
11, 129179, Note_on_c, 8, 62, 0
11, 129180, Note_on_c, 8, 61, 80
11, 129239, Note_on_c, 8, 61, 0
11, 129240, Note_on_c, 8, 59, 80
11, 129299, Note_on_c, 8, 59, 0
11, 129300, Note_on_c, 8, 62, 80
11, 129359, Note_on_c, 8, 62, 0
11, 129360, Note_on_c, 8, 61, 80
11, 129419, Note_on_c, 8, 61, 0
11, 129420, Note_on_c, 8, 58, 80
11, 129479, Note_on_c, 8, 58, 0
11, 129480, Note_on_c, 8, 54, 80
11, 129539, Note_on_c, 8, 54, 0
11, 129540, Note_on_c, 8, 56, 80
11, 129599, Note_on_c, 8, 56, 0
11, 129600, Note_on_c, 8, 58, 80
11, 129659, Note_on_c, 8, 58, 0
11, 129660, Note_on_c, 8, 59, 80
11, 129719, Note_on_c, 8, 59, 0
11, 129720, Note_on_c, 8, 61, 80
11, 129779, Note_on_c, 8, 61, 0
11, 129780, Note_on_c, 8, 58, 80
11, 129839, Note_on_c, 8, 58, 0
11, 129840, Note_on_c, 8, 59, 80
11, 129854, Note_on_c, 8, 59, 0
11, 129855, Note_on_c, 8, 61, 80
11, 129869, Note_on_c, 8, 61, 0
11, 129870, Note_on_c, 8, 62, 80
11, 129959, Note_on_c, 8, 62, 0
11, 129960, Note_on_c, 8, 61, 80
11, 129974, Note_on_c, 8, 61, 0
11, 129975, Note_on_c, 8, 59, 80
11, 129989, Note_on_c, 8, 59, 0
11, 129990, Note_on_c, 8, 58, 80
11, 130079, Note_on_c, 8, 58, 0
11, 130080, Note_on_c, 8, 59, 80
11, 130139, Note_on_c, 8, 59, 0
11, 130140, Note_on_c, 8, 47, 80
11, 130199, Note_on_c, 8, 47, 0
11, 130260, Note_on_c, 8, 58, 80
11, 130319, Note_on_c, 8, 58, 0
11, 130320, Note_on_c, 8, 59, 80
11, 130349, Note_on_c, 8, 59, 0
11, 130350, Note_on_c, 8, 54, 80
11, 130379, Note_on_c, 8, 54, 0
11, 130380, Note_on_c, 8, 56, 80
11, 130409, Note_on_c, 8, 56, 0
11, 130410, Note_on_c, 8, 57, 80
11, 130439, Note_on_c, 8, 57, 0
11, 130440, Note_on_c, 8, 56, 80
11, 130469, Note_on_c, 8, 56, 0
11, 130470, Note_on_c, 8, 52, 80
11, 130499, Note_on_c, 8, 52, 0
11, 130500, Note_on_c, 8, 56, 80
11, 130529, Note_on_c, 8, 56, 0
11, 130530, Note_on_c, 8, 59, 80
11, 130559, Note_on_c, 8, 59, 0
11, 130560, Note_on_c, 8, 64, 80
11, 130589, Note_on_c, 8, 64, 0
11, 130590, Note_on_c, 8, 61, 80
11, 130619, Note_on_c, 8, 61, 0
11, 130620, Note_on_c, 8, 57, 80
11, 130709, Note_on_c, 8, 57, 0
11, 130710, Note_on_c, 8, 59, 80
11, 130739, Note_on_c, 8, 59, 0
11, 130740, Note_on_c, 8, 56, 80
11, 130799, Note_on_c, 8, 56, 0
11, 130800, Note_on_c, 8, 57, 80
11, 130889, Note_on_c, 8, 57, 0
11, 130890, Note_on_c, 8, 56, 80
11, 130919, Note_on_c, 8, 56, 0
11, 130920, Note_on_c, 8, 54, 80
11, 130949, Note_on_c, 8, 54, 0
11, 130950, Note_on_c, 8, 52, 80
11, 130979, Note_on_c, 8, 52, 0
11, 130980, Note_on_c, 8, 50, 80
11, 131009, Note_on_c, 8, 50, 0
11, 131010, Note_on_c, 8, 49, 80
11, 131039, Note_on_c, 8, 49, 0
11, 131040, Note_on_c, 8, 47, 80
11, 131069, Note_on_c, 8, 47, 0
11, 131070, Note_on_c, 8, 54, 80
11, 131099, Note_on_c, 8, 54, 0
11, 131100, Note_on_c, 8, 56, 80
11, 131129, Note_on_c, 8, 56, 0
11, 131130, Note_on_c, 8, 57, 80
11, 131159, Note_on_c, 8, 57, 0
11, 131160, Note_on_c, 8, 59, 80
11, 131189, Note_on_c, 8, 59, 0
11, 131190, Note_on_c, 8, 61, 80
11, 131219, Note_on_c, 8, 61, 0
11, 131220, Note_on_c, 8, 62, 80
11, 131339, Note_on_c, 8, 62, 0
11, 131340, Note_on_c, 8, 61, 80
11, 131369, Note_on_c, 8, 61, 0
11, 131370, Note_on_c, 8, 59, 80
11, 131399, Note_on_c, 8, 59, 0
11, 131400, Note_on_c, 8, 57, 80
11, 131429, Note_on_c, 8, 57, 0
11, 131430, Note_on_c, 8, 56, 80
11, 131459, Note_on_c, 8, 56, 0
11, 131460, Note_on_c, 8, 54, 80
11, 131489, Note_on_c, 8, 54, 0
11, 131490, Note_on_c, 8, 53, 80
11, 131519, Note_on_c, 8, 53, 0
11, 131520, Note_on_c, 8, 54, 80
11, 131609, Note_on_c, 8, 54, 0
11, 131610, Note_on_c, 8, 56, 80
11, 131639, Note_on_c, 8, 56, 0
11, 131640, Note_on_c, 8, 49, 80
11, 131669, Note_on_c, 8, 49, 0
11, 131670, Note_on_c, 8, 59, 80
11, 131699, Note_on_c, 8, 59, 0
11, 131700, Note_on_c, 8, 57, 80
11, 131729, Note_on_c, 8, 57, 0
11, 131730, Note_on_c, 8, 56, 80
11, 131759, Note_on_c, 8, 56, 0
11, 131760, Note_on_c, 8, 54, 80
11, 131819, Note_on_c, 8, 54, 0
11, 131820, Note_on_c, 8, 52, 80
11, 131879, Note_on_c, 8, 52, 0
11, 131880, Note_on_c, 8, 50, 80
11, 131939, Note_on_c, 8, 50, 0
11, 131940, Note_on_c, 8, 49, 80
11, 131999, Note_on_c, 8, 49, 0
11, 132000, Note_on_c, 8, 49, 80
11, 132029, Note_on_c, 8, 49, 0
11, 132030, Note_on_c, 8, 48, 80
11, 132059, Note_on_c, 8, 48, 0
11, 132060, Note_on_c, 8, 57, 80
11, 132179, Note_on_c, 8, 57, 0
11, 132180, Note_on_c, 8, 56, 80
11, 132239, Note_on_c, 8, 56, 0
11, 132240, Note_on_c, 8, 54, 80
11, 132359, Note_on_c, 8, 54, 0
11, 132360, Note_on_c, 8, 53, 80
11, 132449, Note_on_c, 8, 53, 0
11, 132450, Note_on_c, 8, 54, 80
11, 132479, Note_on_c, 8, 54, 0
11, 132480, Note_on_c, 8, 54, 80
11, 132599, Note_on_c, 8, 54, 0
11, 132599, End_track
12, 0, Start_track
12, 0, MIDI_port, 0
12, 0, Title_t, "Soprano"
12, 0, Program_c, 10, 52
12, 0, Control_c, 10, 7, 127
12, 0, Control_c, 10, 10, 41
12, 5820, Note_on_c, 10, 73, 115
12, 5850, Note_on_c, 10, 73, 0
12, 5850, Note_on_c, 10, 74, 115
12, 5880, Note_on_c, 10, 74, 0
12, 5880, Note_on_c, 10, 76, 115
12, 5940, Note_on_c, 10, 76, 0
12, 5940, Note_on_c, 10, 76, 115
12, 6000, Note_on_c, 10, 76, 0
12, 6000, Note_on_c, 10, 78, 115
12, 6030, Note_on_c, 10, 78, 0
12, 6030, Note_on_c, 10, 76, 115
12, 6060, Note_on_c, 10, 76, 0
12, 6060, Note_on_c, 10, 78, 115
12, 6120, Note_on_c, 10, 78, 0
12, 6120, Note_on_c, 10, 76, 115
12, 6180, Note_on_c, 10, 76, 0
12, 6180, Note_on_c, 10, 76, 115
12, 6300, Note_on_c, 10, 76, 0
12, 6300, Note_on_c, 10, 73, 115
12, 6360, Note_on_c, 10, 73, 0
12, 6360, Note_on_c, 10, 69, 115
12, 6420, Note_on_c, 10, 69, 0
12, 6420, Note_on_c, 10, 81, 115
12, 6480, Note_on_c, 10, 81, 0
12, 6480, Note_on_c, 10, 81, 115
12, 6540, Note_on_c, 10, 81, 0
12, 6840, Note_on_c, 10, 76, 115
12, 6900, Note_on_c, 10, 76, 0
12, 6900, Note_on_c, 10, 76, 115
12, 6960, Note_on_c, 10, 76, 0
12, 6960, Note_on_c, 10, 81, 115
12, 7020, Note_on_c, 10, 81, 0
12, 7020, Note_on_c, 10, 81, 115
12, 7080, Note_on_c, 10, 81, 0
12, 7080, Note_on_c, 10, 76, 115
12, 7140, Note_on_c, 10, 76, 0
12, 7140, Note_on_c, 10, 76, 115
12, 7200, Note_on_c, 10, 76, 0
12, 7200, Note_on_c, 10, 76, 115
12, 7260, Note_on_c, 10, 76, 0
12, 7260, Note_on_c, 10, 76, 115
12, 7290, Note_on_c, 10, 76, 0
12, 7290, Note_on_c, 10, 74, 115
12, 7320, Note_on_c, 10, 74, 0
12, 7320, Note_on_c, 10, 73, 115
12, 7380, Note_on_c, 10, 73, 0
12, 7980, Note_on_c, 10, 68, 115
12, 8010, Note_on_c, 10, 68, 0
12, 8010, Note_on_c, 10, 69, 115
12, 8040, Note_on_c, 10, 69, 0
12, 8040, Note_on_c, 10, 71, 115
12, 8100, Note_on_c, 10, 71, 0
12, 8100, Note_on_c, 10, 71, 115
12, 8160, Note_on_c, 10, 71, 0
12, 8160, Note_on_c, 10, 73, 115
12, 8190, Note_on_c, 10, 73, 0
12, 8190, Note_on_c, 10, 71, 115
12, 8220, Note_on_c, 10, 71, 0
12, 8220, Note_on_c, 10, 73, 115
12, 8280, Note_on_c, 10, 73, 0
12, 8280, Note_on_c, 10, 71, 115
12, 8340, Note_on_c, 10, 71, 0
12, 8640, Note_on_c, 10, 71, 115
12, 8700, Note_on_c, 10, 71, 0
12, 8700, Note_on_c, 10, 71, 115
12, 8760, Note_on_c, 10, 71, 0
12, 8760, Note_on_c, 10, 76, 115
12, 8820, Note_on_c, 10, 76, 0
12, 8820, Note_on_c, 10, 76, 115
12, 8880, Note_on_c, 10, 76, 0
12, 8880, Note_on_c, 10, 71, 115
12, 8940, Note_on_c, 10, 71, 0
12, 8940, Note_on_c, 10, 71, 115
12, 9000, Note_on_c, 10, 71, 0
12, 9000, Note_on_c, 10, 71, 115
12, 9060, Note_on_c, 10, 71, 0
12, 9060, Note_on_c, 10, 71, 115
12, 9090, Note_on_c, 10, 71, 0
12, 9090, Note_on_c, 10, 69, 115
12, 9120, Note_on_c, 10, 69, 0
12, 9120, Note_on_c, 10, 68, 115
12, 9180, Note_on_c, 10, 68, 0
12, 9780, Note_on_c, 10, 73, 115
12, 9810, Note_on_c, 10, 73, 0
12, 9810, Note_on_c, 10, 74, 115
12, 9840, Note_on_c, 10, 74, 0
12, 9840, Note_on_c, 10, 76, 115
12, 9900, Note_on_c, 10, 76, 0
12, 9900, Note_on_c, 10, 76, 115
12, 9960, Note_on_c, 10, 76, 0
12, 9960, Note_on_c, 10, 78, 115
12, 9990, Note_on_c, 10, 78, 0
12, 9990, Note_on_c, 10, 76, 115
12, 10020, Note_on_c, 10, 76, 0
12, 10020, Note_on_c, 10, 78, 115
12, 10080, Note_on_c, 10, 78, 0
12, 10080, Note_on_c, 10, 80, 115
12, 10140, Note_on_c, 10, 80, 0
12, 10440, Note_on_c, 10, 81, 115
12, 10500, Note_on_c, 10, 81, 0
12, 10500, Note_on_c, 10, 76, 115
12, 10560, Note_on_c, 10, 76, 0
12, 10560, Note_on_c, 10, 76, 115
12, 10620, Note_on_c, 10, 76, 0
12, 10620, Note_on_c, 10, 76, 115
12, 10680, Note_on_c, 10, 76, 0
12, 10680, Note_on_c, 10, 76, 115
12, 10740, Note_on_c, 10, 76, 0
12, 10740, Note_on_c, 10, 74, 115
12, 10800, Note_on_c, 10, 74, 0
12, 10800, Note_on_c, 10, 73, 115
12, 10860, Note_on_c, 10, 73, 0
12, 10860, Note_on_c, 10, 73, 115
12, 10890, Note_on_c, 10, 73, 0
12, 10890, Note_on_c, 10, 71, 115
12, 10920, Note_on_c, 10, 71, 0
12, 10920, Note_on_c, 10, 69, 115
12, 10980, Note_on_c, 10, 69, 0
12, 13140, Note_on_c, 10, 76, 115
12, 13259, Note_on_c, 10, 76, 0
12, 13260, Note_on_c, 10, 73, 115
12, 13319, Note_on_c, 10, 73, 0
12, 13320, Note_on_c, 10, 69, 115
12, 13379, Note_on_c, 10, 69, 0
12, 13380, Note_on_c, 10, 71, 115
12, 13409, Note_on_c, 10, 71, 0
12, 13410, Note_on_c, 10, 73, 115
12, 13439, Note_on_c, 10, 73, 0
12, 13440, Note_on_c, 10, 74, 115
12, 13469, Note_on_c, 10, 74, 0
12, 13470, Note_on_c, 10, 76, 115
12, 13499, Note_on_c, 10, 76, 0
12, 13500, Note_on_c, 10, 78, 115
12, 13559, Note_on_c, 10, 78, 0
12, 13560, Note_on_c, 10, 76, 115
12, 13619, Note_on_c, 10, 76, 0
12, 13620, Note_on_c, 10, 74, 115
12, 13649, Note_on_c, 10, 74, 0
12, 13650, Note_on_c, 10, 73, 115
12, 13679, Note_on_c, 10, 73, 0
12, 13680, Note_on_c, 10, 71, 115
12, 13739, Note_on_c, 10, 71, 0
12, 13740, Note_on_c, 10, 68, 115
12, 13769, Note_on_c, 10, 68, 0
12, 13770, Note_on_c, 10, 69, 115
12, 13799, Note_on_c, 10, 69, 0
12, 13800, Note_on_c, 10, 71, 115
12, 13829, Note_on_c, 10, 71, 0
12, 13830, Note_on_c, 10, 73, 115
12, 13859, Note_on_c, 10, 73, 0
12, 13860, Note_on_c, 10, 74, 115
12, 13919, Note_on_c, 10, 74, 0
12, 13920, Note_on_c, 10, 74, 115
12, 14099, Note_on_c, 10, 74, 0
12, 14100, Note_on_c, 10, 73, 115
12, 14129, Note_on_c, 10, 73, 0
12, 14130, Note_on_c, 10, 71, 115
12, 14159, Note_on_c, 10, 71, 0
12, 14160, Note_on_c, 10, 73, 115
12, 14189, Note_on_c, 10, 73, 0
12, 14190, Note_on_c, 10, 75, 115
12, 14219, Note_on_c, 10, 75, 0
12, 14220, Note_on_c, 10, 76, 115
12, 14279, Note_on_c, 10, 76, 0
12, 14280, Note_on_c, 10, 78, 115
12, 14339, Note_on_c, 10, 78, 0
12, 14340, Note_on_c, 10, 78, 115
12, 14369, Note_on_c, 10, 78, 0
12, 14370, Note_on_c, 10, 76, 115
12, 14399, Note_on_c, 10, 76, 0
12, 14400, Note_on_c, 10, 75, 115
12, 14459, Note_on_c, 10, 75, 0
12, 14460, Note_on_c, 10, 78, 115
12, 14579, Note_on_c, 10, 78, 0
12, 14580, Note_on_c, 10, 75, 115
12, 14639, Note_on_c, 10, 75, 0
12, 14640, Note_on_c, 10, 71, 115
12, 14699, Note_on_c, 10, 71, 0
12, 14700, Note_on_c, 10, 75, 115
12, 14759, Note_on_c, 10, 75, 0
12, 14760, Note_on_c, 10, 76, 115
12, 15540, Note_on_c, 10, 76, 0
12, 15540, Note_on_c, 10, 70, 115
12, 15659, Note_on_c, 10, 70, 0
12, 15660, Note_on_c, 10, 73, 115
12, 15719, Note_on_c, 10, 73, 0
12, 15720, Note_on_c, 10, 73, 115
12, 15779, Note_on_c, 10, 73, 0
12, 15780, Note_on_c, 10, 76, 115
12, 15839, Note_on_c, 10, 76, 0
12, 15840, Note_on_c, 10, 75, 115
12, 16259, Note_on_c, 10, 75, 0
12, 16260, Note_on_c, 10, 66, 115
12, 16379, Note_on_c, 10, 66, 0
12, 16380, Note_on_c, 10, 71, 115
12, 16439, Note_on_c, 10, 71, 0
12, 16440, Note_on_c, 10, 71, 115
12, 16499, Note_on_c, 10, 71, 0
12, 16500, Note_on_c, 10, 75, 115
12, 16559, Note_on_c, 10, 75, 0
12, 16560, Note_on_c, 10, 76, 115
12, 16619, Note_on_c, 10, 76, 0
12, 16620, Note_on_c, 10, 71, 115
12, 16739, Note_on_c, 10, 71, 0
12, 16740, Note_on_c, 10, 74, 115
12, 16859, Note_on_c, 10, 74, 0
12, 16860, Note_on_c, 10, 73, 115
12, 16889, Note_on_c, 10, 73, 0
12, 16890, Note_on_c, 10, 71, 115
12, 16919, Note_on_c, 10, 71, 0
12, 16920, Note_on_c, 10, 73, 115
12, 16979, Note_on_c, 10, 73, 0
12, 16980, Note_on_c, 10, 69, 115
12, 17099, Note_on_c, 10, 69, 0
12, 17100, Note_on_c, 10, 73, 115
12, 17219, Note_on_c, 10, 73, 0
12, 17220, Note_on_c, 10, 71, 115
12, 17249, Note_on_c, 10, 71, 0
12, 17250, Note_on_c, 10, 69, 115
12, 17279, Note_on_c, 10, 69, 0
12, 17280, Note_on_c, 10, 71, 115
12, 17339, Note_on_c, 10, 71, 0
12, 17340, Note_on_c, 10, 68, 115
12, 17459, Note_on_c, 10, 68, 0
12, 17460, Note_on_c, 10, 71, 115
12, 17579, Note_on_c, 10, 71, 0
12, 17580, Note_on_c, 10, 69, 115
12, 17609, Note_on_c, 10, 69, 0
12, 17610, Note_on_c, 10, 68, 115
12, 17639, Note_on_c, 10, 68, 0
12, 17640, Note_on_c, 10, 69, 115
12, 17699, Note_on_c, 10, 69, 0
12, 17700, Note_on_c, 10, 66, 115
12, 17819, Note_on_c, 10, 66, 0
12, 17820, Note_on_c, 10, 69, 115
12, 17939, Note_on_c, 10, 69, 0
12, 17940, Note_on_c, 10, 68, 115
12, 17969, Note_on_c, 10, 68, 0
12, 17970, Note_on_c, 10, 66, 115
12, 17999, Note_on_c, 10, 66, 0
12, 18000, Note_on_c, 10, 68, 115
12, 18059, Note_on_c, 10, 68, 0
12, 18120, Note_on_c, 10, 69, 115
12, 18179, Note_on_c, 10, 69, 0
12, 18240, Note_on_c, 10, 71, 115
12, 18299, Note_on_c, 10, 71, 0
12, 18360, Note_on_c, 10, 73, 115
12, 18419, Note_on_c, 10, 73, 0
12, 18420, Note_on_c, 10, 71, 115
12, 18449, Note_on_c, 10, 71, 0
12, 18450, Note_on_c, 10, 73, 115
12, 18479, Note_on_c, 10, 73, 0
12, 18480, Note_on_c, 10, 75, 115
12, 18539, Note_on_c, 10, 75, 0
12, 18540, Note_on_c, 10, 73, 115
12, 18569, Note_on_c, 10, 73, 0
12, 18570, Note_on_c, 10, 75, 115
12, 18599, Note_on_c, 10, 75, 0
12, 18600, Note_on_c, 10, 76, 115
12, 18659, Note_on_c, 10, 76, 0
12, 18660, Note_on_c, 10, 75, 115
12, 18689, Note_on_c, 10, 75, 0
12, 18690, Note_on_c, 10, 76, 115
12, 18719, Note_on_c, 10, 76, 0
12, 18720, Note_on_c, 10, 78, 115
12, 18779, Note_on_c, 10, 78, 0
12, 18780, Note_on_c, 10, 76, 115
12, 18809, Note_on_c, 10, 76, 0
12, 18810, Note_on_c, 10, 75, 115
12, 18839, Note_on_c, 10, 75, 0
12, 18840, Note_on_c, 10, 76, 115
12, 18899, Note_on_c, 10, 76, 0
12, 18900, Note_on_c, 10, 71, 115
12, 18959, Note_on_c, 10, 71, 0
12, 18960, Note_on_c, 10, 68, 115
12, 19019, Note_on_c, 10, 68, 0
12, 19020, Note_on_c, 10, 66, 115
12, 19049, Note_on_c, 10, 66, 0
12, 19050, Note_on_c, 10, 64, 115
12, 19079, Note_on_c, 10, 64, 0
12, 19080, Note_on_c, 10, 64, 115
12, 19199, Note_on_c, 10, 64, 0
12, 20580, Note_on_c, 10, 68, 115
12, 20609, Note_on_c, 10, 68, 0
12, 20610, Note_on_c, 10, 69, 115
12, 20639, Note_on_c, 10, 69, 0
12, 20640, Note_on_c, 10, 71, 115
12, 20699, Note_on_c, 10, 71, 0
12, 20700, Note_on_c, 10, 73, 115
12, 20729, Note_on_c, 10, 73, 0
12, 20730, Note_on_c, 10, 74, 115
12, 20759, Note_on_c, 10, 74, 0
12, 20760, Note_on_c, 10, 76, 115
12, 21300, Note_on_c, 10, 76, 0
12, 21300, Note_on_c, 10, 71, 115
12, 21359, Note_on_c, 10, 71, 0
12, 21360, Note_on_c, 10, 74, 115
12, 21419, Note_on_c, 10, 74, 0
12, 21420, Note_on_c, 10, 74, 115
12, 21479, Note_on_c, 10, 74, 0
12, 21480, Note_on_c, 10, 74, 115
12, 21539, Note_on_c, 10, 74, 0
12, 21540, Note_on_c, 10, 74, 115
12, 21599, Note_on_c, 10, 74, 0
12, 21600, Note_on_c, 10, 73, 115
12, 21659, Note_on_c, 10, 73, 0
12, 21660, Note_on_c, 10, 73, 115
12, 21689, Note_on_c, 10, 73, 0
12, 21690, Note_on_c, 10, 71, 115
12, 21719, Note_on_c, 10, 71, 0
12, 21720, Note_on_c, 10, 69, 115
12, 21779, Note_on_c, 10, 69, 0
12, 23460, Note_on_c, 10, 66, 115
12, 23489, Note_on_c, 10, 66, 0
12, 23490, Note_on_c, 10, 67, 115
12, 23519, Note_on_c, 10, 67, 0
12, 23520, Note_on_c, 10, 69, 115
12, 23579, Note_on_c, 10, 69, 0
12, 23580, Note_on_c, 10, 71, 115
12, 23609, Note_on_c, 10, 71, 0
12, 23610, Note_on_c, 10, 73, 115
12, 23639, Note_on_c, 10, 73, 0
12, 23640, Note_on_c, 10, 74, 115
12, 23699, Note_on_c, 10, 74, 0
12, 23700, Note_on_c, 10, 66, 115
12, 23759, Note_on_c, 10, 66, 0
12, 23760, Note_on_c, 10, 64, 115
12, 23819, Note_on_c, 10, 64, 0
12, 23820, Note_on_c, 10, 73, 115
12, 23939, Note_on_c, 10, 73, 0
12, 23940, Note_on_c, 10, 76, 115
12, 23999, Note_on_c, 10, 76, 0
12, 24000, Note_on_c, 10, 69, 115
12, 24059, Note_on_c, 10, 69, 0
12, 24060, Note_on_c, 10, 73, 115
12, 24119, Note_on_c, 10, 73, 0
12, 24120, Note_on_c, 10, 74, 115
12, 24179, Note_on_c, 10, 74, 0
12, 24180, Note_on_c, 10, 74, 115
12, 24209, Note_on_c, 10, 74, 0
12, 24210, Note_on_c, 10, 76, 115
12, 24239, Note_on_c, 10, 76, 0
12, 24240, Note_on_c, 10, 78, 115
12, 24299, Note_on_c, 10, 78, 0
12, 24300, Note_on_c, 10, 78, 115
12, 24359, Note_on_c, 10, 78, 0
12, 24360, Note_on_c, 10, 78, 115
12, 24389, Note_on_c, 10, 78, 0
12, 24390, Note_on_c, 10, 76, 115
12, 24419, Note_on_c, 10, 76, 0
12, 24420, Note_on_c, 10, 78, 115
12, 24479, Note_on_c, 10, 78, 0
12, 24480, Note_on_c, 10, 71, 115
12, 24539, Note_on_c, 10, 71, 0
12, 24540, Note_on_c, 10, 71, 115
12, 24659, Note_on_c, 10, 71, 0
12, 24660, Note_on_c, 10, 68, 115
12, 24719, Note_on_c, 10, 68, 0
12, 24720, Note_on_c, 10, 64, 115
12, 24779, Note_on_c, 10, 64, 0
12, 24780, Note_on_c, 10, 71, 115
12, 24839, Note_on_c, 10, 71, 0
12, 24840, Note_on_c, 10, 76, 115
12, 24899, Note_on_c, 10, 76, 0
12, 24900, Note_on_c, 10, 73, 115
12, 24929, Note_on_c, 10, 73, 0
12, 24930, Note_on_c, 10, 74, 115
12, 24959, Note_on_c, 10, 74, 0
12, 24960, Note_on_c, 10, 76, 115
12, 25019, Note_on_c, 10, 76, 0
12, 25020, Note_on_c, 10, 76, 115
12, 25079, Note_on_c, 10, 76, 0
12, 25080, Note_on_c, 10, 76, 115
12, 25109, Note_on_c, 10, 76, 0
12, 25110, Note_on_c, 10, 74, 115
12, 25139, Note_on_c, 10, 74, 0
12, 25140, Note_on_c, 10, 76, 115
12, 25199, Note_on_c, 10, 76, 0
12, 25200, Note_on_c, 10, 69, 115
12, 25259, Note_on_c, 10, 69, 0
12, 25260, Note_on_c, 10, 69, 115
12, 25379, Note_on_c, 10, 69, 0
12, 25380, Note_on_c, 10, 66, 115
12, 25439, Note_on_c, 10, 66, 0
12, 25440, Note_on_c, 10, 62, 115
12, 25499, Note_on_c, 10, 62, 0
12, 25500, Note_on_c, 10, 69, 115
12, 25559, Note_on_c, 10, 69, 0
12, 25560, Note_on_c, 10, 74, 115
12, 25619, Note_on_c, 10, 74, 0
12, 25620, Note_on_c, 10, 78, 115
12, 25649, Note_on_c, 10, 78, 0
12, 25650, Note_on_c, 10, 76, 115
12, 25679, Note_on_c, 10, 76, 0
12, 25680, Note_on_c, 10, 74, 115
12, 25739, Note_on_c, 10, 74, 0
12, 25740, Note_on_c, 10, 74, 115
12, 25799, Note_on_c, 10, 74, 0
12, 25800, Note_on_c, 10, 74, 115
12, 25859, Note_on_c, 10, 74, 0
12, 25860, Note_on_c, 10, 74, 115
12, 25919, Note_on_c, 10, 74, 0
12, 25920, Note_on_c, 10, 74, 115
12, 25979, Note_on_c, 10, 74, 0
12, 25980, Note_on_c, 10, 71, 115
12, 26009, Note_on_c, 10, 71, 0
12, 26010, Note_on_c, 10, 73, 115
12, 26039, Note_on_c, 10, 73, 0
12, 26040, Note_on_c, 10, 74, 115
12, 26099, Note_on_c, 10, 74, 0
12, 26100, Note_on_c, 10, 74, 115
12, 26159, Note_on_c, 10, 74, 0
12, 26160, Note_on_c, 10, 74, 115
12, 26219, Note_on_c, 10, 74, 0
12, 26220, Note_on_c, 10, 74, 115
12, 26279, Note_on_c, 10, 74, 0
12, 26280, Note_on_c, 10, 74, 115
12, 26339, Note_on_c, 10, 74, 0
12, 26340, Note_on_c, 10, 73, 115
12, 26369, Note_on_c, 10, 73, 0
12, 26370, Note_on_c, 10, 74, 115
12, 26399, Note_on_c, 10, 74, 0
12, 26400, Note_on_c, 10, 76, 115
12, 26459, Note_on_c, 10, 76, 0
12, 26460, Note_on_c, 10, 78, 115
12, 26489, Note_on_c, 10, 78, 0
12, 26490, Note_on_c, 10, 76, 115
12, 26519, Note_on_c, 10, 76, 0
12, 26520, Note_on_c, 10, 74, 115
12, 26549, Note_on_c, 10, 74, 0
12, 26550, Note_on_c, 10, 73, 115
12, 26579, Note_on_c, 10, 73, 0
12, 26580, Note_on_c, 10, 71, 115
12, 26609, Note_on_c, 10, 71, 0
12, 26610, Note_on_c, 10, 69, 115
12, 26639, Note_on_c, 10, 69, 0
12, 26640, Note_on_c, 10, 73, 115
12, 26699, Note_on_c, 10, 73, 0
12, 26700, Note_on_c, 10, 71, 115
12, 26759, Note_on_c, 10, 71, 0
12, 26760, Note_on_c, 10, 71, 115
12, 26819, Note_on_c, 10, 71, 0
12, 29700, Note_on_c, 10, 76, 115
12, 29819, Note_on_c, 10, 76, 0
12, 29820, Note_on_c, 10, 73, 115
12, 29879, Note_on_c, 10, 73, 0
12, 29880, Note_on_c, 10, 69, 115
12, 29939, Note_on_c, 10, 69, 0
12, 29940, Note_on_c, 10, 71, 115
12, 29969, Note_on_c, 10, 71, 0
12, 29970, Note_on_c, 10, 73, 115
12, 29999, Note_on_c, 10, 73, 0
12, 30000, Note_on_c, 10, 74, 115
12, 30029, Note_on_c, 10, 74, 0
12, 30030, Note_on_c, 10, 76, 115
12, 30059, Note_on_c, 10, 76, 0
12, 30060, Note_on_c, 10, 78, 115
12, 30119, Note_on_c, 10, 78, 0
12, 30120, Note_on_c, 10, 76, 115
12, 30179, Note_on_c, 10, 76, 0
12, 30180, Note_on_c, 10, 74, 115
12, 30209, Note_on_c, 10, 74, 0
12, 30210, Note_on_c, 10, 73, 115
12, 30239, Note_on_c, 10, 73, 0
12, 30240, Note_on_c, 10, 71, 115
12, 30299, Note_on_c, 10, 71, 0
12, 30300, Note_on_c, 10, 68, 115
12, 30329, Note_on_c, 10, 68, 0
12, 30330, Note_on_c, 10, 69, 115
12, 30359, Note_on_c, 10, 69, 0
12, 30360, Note_on_c, 10, 71, 115
12, 30389, Note_on_c, 10, 71, 0
12, 30390, Note_on_c, 10, 73, 115
12, 30419, Note_on_c, 10, 73, 0
12, 30420, Note_on_c, 10, 74, 115
12, 30479, Note_on_c, 10, 74, 0
12, 30480, Note_on_c, 10, 74, 115
12, 30659, Note_on_c, 10, 74, 0
12, 30660, Note_on_c, 10, 73, 115
12, 30689, Note_on_c, 10, 73, 0
12, 30690, Note_on_c, 10, 74, 115
12, 30719, Note_on_c, 10, 74, 0
12, 30720, Note_on_c, 10, 76, 115
12, 31020, Note_on_c, 10, 76, 0
12, 31020, Note_on_c, 10, 69, 115
12, 31139, Note_on_c, 10, 69, 0
12, 31140, Note_on_c, 10, 74, 115
12, 31199, Note_on_c, 10, 74, 0
12, 31200, Note_on_c, 10, 74, 115
12, 31259, Note_on_c, 10, 74, 0
12, 31260, Note_on_c, 10, 78, 115
12, 31319, Note_on_c, 10, 78, 0
12, 31320, Note_on_c, 10, 71, 115
12, 31739, Note_on_c, 10, 71, 0
12, 31740, Note_on_c, 10, 68, 115
12, 31859, Note_on_c, 10, 68, 0
12, 31860, Note_on_c, 10, 71, 115
12, 31919, Note_on_c, 10, 71, 0
12, 31920, Note_on_c, 10, 71, 115
12, 31979, Note_on_c, 10, 71, 0
12, 31980, Note_on_c, 10, 74, 115
12, 32039, Note_on_c, 10, 74, 0
12, 32040, Note_on_c, 10, 64, 115
12, 32459, Note_on_c, 10, 64, 0
12, 32460, Note_on_c, 10, 73, 115
12, 32579, Note_on_c, 10, 73, 0
12, 32580, Note_on_c, 10, 76, 115
12, 32699, Note_on_c, 10, 76, 0
12, 32700, Note_on_c, 10, 74, 115
12, 32729, Note_on_c, 10, 74, 0
12, 32730, Note_on_c, 10, 73, 115
12, 32759, Note_on_c, 10, 73, 0
12, 32760, Note_on_c, 10, 74, 115
12, 32819, Note_on_c, 10, 74, 0
12, 32820, Note_on_c, 10, 69, 115
12, 32939, Note_on_c, 10, 69, 0
12, 32940, Note_on_c, 10, 74, 115
12, 33059, Note_on_c, 10, 74, 0
12, 33060, Note_on_c, 10, 73, 115
12, 33089, Note_on_c, 10, 73, 0
12, 33090, Note_on_c, 10, 71, 115
12, 33119, Note_on_c, 10, 71, 0
12, 33120, Note_on_c, 10, 73, 115
12, 33179, Note_on_c, 10, 73, 0
12, 33180, Note_on_c, 10, 69, 115
12, 33299, Note_on_c, 10, 69, 0
12, 33300, Note_on_c, 10, 73, 115
12, 33419, Note_on_c, 10, 73, 0
12, 33420, Note_on_c, 10, 71, 115
12, 33449, Note_on_c, 10, 71, 0
12, 33450, Note_on_c, 10, 69, 115
12, 33479, Note_on_c, 10, 69, 0
12, 33480, Note_on_c, 10, 71, 115
12, 33539, Note_on_c, 10, 71, 0
12, 33540, Note_on_c, 10, 68, 115
12, 33659, Note_on_c, 10, 68, 0
12, 33660, Note_on_c, 10, 71, 115
12, 33779, Note_on_c, 10, 71, 0
12, 33780, Note_on_c, 10, 69, 115
12, 33809, Note_on_c, 10, 69, 0
12, 33810, Note_on_c, 10, 68, 115
12, 33839, Note_on_c, 10, 68, 0
12, 33840, Note_on_c, 10, 69, 115
12, 34259, Note_on_c, 10, 69, 0
12, 34260, Note_on_c, 10, 71, 115
12, 34319, Note_on_c, 10, 71, 0
12, 34320, Note_on_c, 10, 64, 115
12, 34619, Note_on_c, 10, 64, 0
12, 34620, Note_on_c, 10, 74, 115
12, 34679, Note_on_c, 10, 74, 0
12, 34680, Note_on_c, 10, 73, 115
12, 34739, Note_on_c, 10, 73, 0
12, 34740, Note_on_c, 10, 76, 115
12, 34799, Note_on_c, 10, 76, 0
12, 34800, Note_on_c, 10, 73, 115
12, 34859, Note_on_c, 10, 73, 0
12, 34860, Note_on_c, 10, 71, 115
12, 34889, Note_on_c, 10, 71, 0
12, 34890, Note_on_c, 10, 69, 115
12, 34919, Note_on_c, 10, 69, 0
12, 34920, Note_on_c, 10, 69, 115
12, 35039, Note_on_c, 10, 69, 0
12, 35100, Note_on_c, 10, 73, 115
12, 35219, Note_on_c, 10, 73, 0
12, 35220, Note_on_c, 10, 73, 115
12, 35279, Note_on_c, 10, 73, 0
12, 35280, Note_on_c, 10, 73, 115
12, 35309, Note_on_c, 10, 73, 0
12, 35310, Note_on_c, 10, 78, 115
12, 35339, Note_on_c, 10, 78, 0
12, 35340, Note_on_c, 10, 76, 115
12, 35369, Note_on_c, 10, 76, 0
12, 35370, Note_on_c, 10, 74, 115
12, 35399, Note_on_c, 10, 74, 0
12, 35400, Note_on_c, 10, 73, 115
12, 35459, Note_on_c, 10, 73, 0
12, 35460, Note_on_c, 10, 71, 115
12, 35519, Note_on_c, 10, 71, 0
12, 35520, Note_on_c, 10, 69, 115
12, 35549, Note_on_c, 10, 69, 0
12, 35550, Note_on_c, 10, 71, 115
12, 35579, Note_on_c, 10, 71, 0
12, 35580, Note_on_c, 10, 68, 115
12, 35639, Note_on_c, 10, 68, 0
12, 35640, Note_on_c, 10, 69, 115
12, 35759, Note_on_c, 10, 69, 0
12, 36540, Note_on_c, 10, 71, 115
12, 36569, Note_on_c, 10, 71, 0
12, 36570, Note_on_c, 10, 73, 115
12, 36599, Note_on_c, 10, 73, 0
12, 36600, Note_on_c, 10, 71, 115
12, 36659, Note_on_c, 10, 71, 0
12, 36660, Note_on_c, 10, 69, 115
12, 36719, Note_on_c, 10, 69, 0
12, 36720, Note_on_c, 10, 68, 115
12, 36779, Note_on_c, 10, 68, 0
12, 36780, Note_on_c, 10, 69, 115
12, 36839, Note_on_c, 10, 69, 0
12, 36840, Note_on_c, 10, 71, 115
12, 36899, Note_on_c, 10, 71, 0
12, 36900, Note_on_c, 10, 73, 115
12, 36929, Note_on_c, 10, 73, 0
12, 36930, Note_on_c, 10, 75, 115
12, 36959, Note_on_c, 10, 75, 0
12, 36960, Note_on_c, 10, 76, 115
12, 36989, Note_on_c, 10, 76, 0
12, 36990, Note_on_c, 10, 73, 115
12, 37019, Note_on_c, 10, 73, 0
12, 37020, Note_on_c, 10, 78, 115
12, 37079, Note_on_c, 10, 78, 0
12, 37080, Note_on_c, 10, 75, 115
12, 37199, Note_on_c, 10, 75, 0
12, 38040, Note_on_c, 10, 78, 115
12, 38099, Note_on_c, 10, 78, 0
12, 38100, Note_on_c, 10, 76, 115
12, 38159, Note_on_c, 10, 76, 0
12, 38160, Note_on_c, 10, 75, 115
12, 38339, Note_on_c, 10, 75, 0
12, 38340, Note_on_c, 10, 76, 115
12, 38369, Note_on_c, 10, 76, 0
12, 38370, Note_on_c, 10, 78, 115
12, 38399, Note_on_c, 10, 78, 0
12, 38400, Note_on_c, 10, 76, 115
12, 38459, Note_on_c, 10, 76, 0
12, 38460, Note_on_c, 10, 75, 115
12, 38519, Note_on_c, 10, 75, 0
12, 38520, Note_on_c, 10, 73, 115
12, 38699, Note_on_c, 10, 73, 0
12, 38700, Note_on_c, 10, 75, 115
12, 38729, Note_on_c, 10, 75, 0
12, 38730, Note_on_c, 10, 76, 115
12, 38759, Note_on_c, 10, 76, 0
12, 38760, Note_on_c, 10, 75, 115
12, 38819, Note_on_c, 10, 75, 0
12, 38820, Note_on_c, 10, 73, 115
12, 38879, Note_on_c, 10, 73, 0
12, 38880, Note_on_c, 10, 72, 115
12, 38909, Note_on_c, 10, 72, 0
12, 38910, Note_on_c, 10, 73, 115
12, 38939, Note_on_c, 10, 73, 0
12, 38940, Note_on_c, 10, 75, 115
12, 38969, Note_on_c, 10, 75, 0
12, 38970, Note_on_c, 10, 72, 115
12, 38999, Note_on_c, 10, 72, 0
12, 39000, Note_on_c, 10, 68, 115
12, 39059, Note_on_c, 10, 68, 0
12, 39060, Note_on_c, 10, 80, 115
12, 39119, Note_on_c, 10, 80, 0
12, 39120, Note_on_c, 10, 78, 115
12, 39179, Note_on_c, 10, 78, 0
12, 39180, Note_on_c, 10, 75, 115
12, 39239, Note_on_c, 10, 75, 0
12, 39240, Note_on_c, 10, 76, 115
12, 39299, Note_on_c, 10, 76, 0
12, 39300, Note_on_c, 10, 78, 115
12, 39359, Note_on_c, 10, 78, 0
12, 39360, Note_on_c, 10, 80, 115
12, 39419, Note_on_c, 10, 80, 0
12, 39420, Note_on_c, 10, 73, 115
12, 39479, Note_on_c, 10, 73, 0
12, 39480, Note_on_c, 10, 76, 115
12, 39509, Note_on_c, 10, 76, 0
12, 39510, Note_on_c, 10, 75, 115
12, 39539, Note_on_c, 10, 75, 0
12, 39540, Note_on_c, 10, 73, 115
12, 39569, Note_on_c, 10, 73, 0
12, 39570, Note_on_c, 10, 72, 115
12, 39599, Note_on_c, 10, 72, 0
12, 39600, Note_on_c, 10, 73, 115
12, 39719, Note_on_c, 10, 73, 0
12, 40380, Note_on_c, 10, 68, 115
12, 40499, Note_on_c, 10, 68, 0
12, 40500, Note_on_c, 10, 69, 115
12, 40559, Note_on_c, 10, 69, 0
12, 40560, Note_on_c, 10, 71, 115
12, 40739, Note_on_c, 10, 71, 0
12, 40740, Note_on_c, 10, 73, 115
12, 40769, Note_on_c, 10, 73, 0
12, 40770, Note_on_c, 10, 74, 115
12, 40799, Note_on_c, 10, 74, 0
12, 40800, Note_on_c, 10, 76, 115
12, 40829, Note_on_c, 10, 76, 0
12, 40830, Note_on_c, 10, 78, 115
12, 40859, Note_on_c, 10, 78, 0
12, 40860, Note_on_c, 10, 79, 115
12, 40919, Note_on_c, 10, 79, 0
12, 40920, Note_on_c, 10, 78, 115
12, 40979, Note_on_c, 10, 78, 0
12, 40980, Note_on_c, 10, 76, 115
12, 41039, Note_on_c, 10, 76, 0
12, 41040, Note_on_c, 10, 74, 115
12, 41159, Note_on_c, 10, 74, 0
12, 41820, Note_on_c, 10, 71, 115
12, 41939, Note_on_c, 10, 71, 0
12, 41940, Note_on_c, 10, 69, 115
12, 41999, Note_on_c, 10, 69, 0
12, 42000, Note_on_c, 10, 68, 115
12, 42179, Note_on_c, 10, 68, 0
12, 42180, Note_on_c, 10, 69, 115
12, 42209, Note_on_c, 10, 69, 0
12, 42210, Note_on_c, 10, 71, 115
12, 42239, Note_on_c, 10, 71, 0
12, 42240, Note_on_c, 10, 73, 115
12, 42269, Note_on_c, 10, 73, 0
12, 42270, Note_on_c, 10, 74, 115
12, 42299, Note_on_c, 10, 74, 0
12, 42300, Note_on_c, 10, 76, 115
12, 42389, Note_on_c, 10, 76, 0
12, 42390, Note_on_c, 10, 73, 115
12, 42419, Note_on_c, 10, 73, 0
12, 42420, Note_on_c, 10, 74, 115
12, 42479, Note_on_c, 10, 74, 0
12, 42480, Note_on_c, 10, 73, 115
12, 42599, Note_on_c, 10, 73, 0
12, 43320, Note_on_c, 10, 74, 115
12, 43379, Note_on_c, 10, 74, 0
12, 43380, Note_on_c, 10, 73, 115
12, 43439, Note_on_c, 10, 73, 0
12, 43440, Note_on_c, 10, 71, 115
12, 43619, Note_on_c, 10, 71, 0
12, 43620, Note_on_c, 10, 73, 115
12, 43649, Note_on_c, 10, 73, 0
12, 43650, Note_on_c, 10, 74, 115
12, 43679, Note_on_c, 10, 74, 0
12, 43680, Note_on_c, 10, 73, 115
12, 43739, Note_on_c, 10, 73, 0
12, 43740, Note_on_c, 10, 71, 115
12, 43799, Note_on_c, 10, 71, 0
12, 43800, Note_on_c, 10, 76, 115
12, 43829, Note_on_c, 10, 76, 0
12, 43830, Note_on_c, 10, 74, 115
12, 43859, Note_on_c, 10, 74, 0
12, 43860, Note_on_c, 10, 73, 115
12, 43889, Note_on_c, 10, 73, 0
12, 43890, Note_on_c, 10, 71, 115
12, 43919, Note_on_c, 10, 71, 0
12, 43920, Note_on_c, 10, 69, 115
12, 43949, Note_on_c, 10, 69, 0
12, 43950, Note_on_c, 10, 73, 115
12, 43979, Note_on_c, 10, 73, 0
12, 43980, Note_on_c, 10, 71, 115
12, 44009, Note_on_c, 10, 71, 0
12, 44010, Note_on_c, 10, 69, 115
12, 44039, Note_on_c, 10, 69, 0
12, 44040, Note_on_c, 10, 68, 115
12, 44069, Note_on_c, 10, 68, 0
12, 44070, Note_on_c, 10, 69, 115
12, 44099, Note_on_c, 10, 69, 0
12, 44100, Note_on_c, 10, 71, 115
12, 44129, Note_on_c, 10, 71, 0
12, 44130, Note_on_c, 10, 73, 115
12, 44159, Note_on_c, 10, 73, 0
12, 44160, Note_on_c, 10, 74, 115
12, 44219, Note_on_c, 10, 74, 0
12, 44220, Note_on_c, 10, 74, 115
12, 44279, Note_on_c, 10, 74, 0
12, 44280, Note_on_c, 10, 74, 115
12, 44339, Note_on_c, 10, 74, 0
12, 44340, Note_on_c, 10, 73, 115
12, 44399, Note_on_c, 10, 73, 0
12, 44400, Note_on_c, 10, 73, 115
12, 44459, Note_on_c, 10, 73, 0
12, 44460, Note_on_c, 10, 71, 115
12, 44489, Note_on_c, 10, 71, 0
12, 44490, Note_on_c, 10, 69, 115
12, 44519, Note_on_c, 10, 69, 0
12, 44520, Note_on_c, 10, 71, 115
12, 44579, Note_on_c, 10, 71, 0
12, 44580, Note_on_c, 10, 68, 115
12, 44639, Note_on_c, 10, 68, 0
12, 44640, Note_on_c, 10, 69, 115
12, 44699, Note_on_c, 10, 69, 0
12, 44700, Note_on_c, 10, 71, 115
12, 44759, Note_on_c, 10, 71, 0
12, 44760, Note_on_c, 10, 73, 115
12, 44819, Note_on_c, 10, 73, 0
12, 44820, Note_on_c, 10, 66, 115
12, 44879, Note_on_c, 10, 66, 0
12, 44880, Note_on_c, 10, 69, 115
12, 44909, Note_on_c, 10, 69, 0
12, 44910, Note_on_c, 10, 68, 115
12, 44939, Note_on_c, 10, 68, 0
12, 44940, Note_on_c, 10, 66, 115
12, 44969, Note_on_c, 10, 66, 0
12, 44970, Note_on_c, 10, 65, 115
12, 44999, Note_on_c, 10, 65, 0
12, 45000, Note_on_c, 10, 66, 115
12, 45119, Note_on_c, 10, 66, 0
12, 51180, Note_on_c, 10, 73, 115
12, 51210, Note_on_c, 10, 73, 0
12, 51210, Note_on_c, 10, 74, 115
12, 51240, Note_on_c, 10, 74, 0
12, 51240, Note_on_c, 10, 76, 115
12, 51300, Note_on_c, 10, 76, 0
12, 51300, Note_on_c, 10, 76, 115
12, 51360, Note_on_c, 10, 76, 0
12, 51360, Note_on_c, 10, 78, 115
12, 51390, Note_on_c, 10, 78, 0
12, 51390, Note_on_c, 10, 76, 115
12, 51420, Note_on_c, 10, 76, 0
12, 51420, Note_on_c, 10, 78, 115
12, 51480, Note_on_c, 10, 78, 0
12, 51480, Note_on_c, 10, 76, 115
12, 51540, Note_on_c, 10, 76, 0
12, 51540, Note_on_c, 10, 76, 115
12, 51660, Note_on_c, 10, 76, 0
12, 51660, Note_on_c, 10, 73, 115
12, 51720, Note_on_c, 10, 73, 0
12, 51720, Note_on_c, 10, 69, 115
12, 51780, Note_on_c, 10, 69, 0
12, 51780, Note_on_c, 10, 81, 115
12, 51840, Note_on_c, 10, 81, 0
12, 51840, Note_on_c, 10, 81, 115
12, 51900, Note_on_c, 10, 81, 0
12, 52200, Note_on_c, 10, 76, 115
12, 52260, Note_on_c, 10, 76, 0
12, 52260, Note_on_c, 10, 76, 115
12, 52320, Note_on_c, 10, 76, 0
12, 52320, Note_on_c, 10, 81, 115
12, 52380, Note_on_c, 10, 81, 0
12, 52380, Note_on_c, 10, 81, 115
12, 52440, Note_on_c, 10, 81, 0
12, 52440, Note_on_c, 10, 76, 115
12, 52500, Note_on_c, 10, 76, 0
12, 52500, Note_on_c, 10, 76, 115
12, 52560, Note_on_c, 10, 76, 0
12, 52560, Note_on_c, 10, 76, 115
12, 52620, Note_on_c, 10, 76, 0
12, 52620, Note_on_c, 10, 76, 115
12, 52650, Note_on_c, 10, 76, 0
12, 52650, Note_on_c, 10, 74, 115
12, 52680, Note_on_c, 10, 74, 0
12, 52680, Note_on_c, 10, 73, 115
12, 52740, Note_on_c, 10, 73, 0
12, 53340, Note_on_c, 10, 68, 115
12, 53370, Note_on_c, 10, 68, 0
12, 53370, Note_on_c, 10, 69, 115
12, 53400, Note_on_c, 10, 69, 0
12, 53400, Note_on_c, 10, 71, 115
12, 53460, Note_on_c, 10, 71, 0
12, 53460, Note_on_c, 10, 71, 115
12, 53520, Note_on_c, 10, 71, 0
12, 53520, Note_on_c, 10, 73, 115
12, 53550, Note_on_c, 10, 73, 0
12, 53550, Note_on_c, 10, 71, 115
12, 53580, Note_on_c, 10, 71, 0
12, 53580, Note_on_c, 10, 73, 115
12, 53640, Note_on_c, 10, 73, 0
12, 53640, Note_on_c, 10, 71, 115
12, 53700, Note_on_c, 10, 71, 0
12, 54000, Note_on_c, 10, 71, 115
12, 54060, Note_on_c, 10, 71, 0
12, 54060, Note_on_c, 10, 71, 115
12, 54120, Note_on_c, 10, 71, 0
12, 54120, Note_on_c, 10, 76, 115
12, 54180, Note_on_c, 10, 76, 0
12, 54180, Note_on_c, 10, 76, 115
12, 54240, Note_on_c, 10, 76, 0
12, 54240, Note_on_c, 10, 71, 115
12, 54300, Note_on_c, 10, 71, 0
12, 54300, Note_on_c, 10, 71, 115
12, 54360, Note_on_c, 10, 71, 0
12, 54360, Note_on_c, 10, 71, 115
12, 54420, Note_on_c, 10, 71, 0
12, 54420, Note_on_c, 10, 71, 115
12, 54450, Note_on_c, 10, 71, 0
12, 54450, Note_on_c, 10, 69, 115
12, 54480, Note_on_c, 10, 69, 0
12, 54480, Note_on_c, 10, 68, 115
12, 54540, Note_on_c, 10, 68, 0
12, 55140, Note_on_c, 10, 73, 115
12, 55170, Note_on_c, 10, 73, 0
12, 55170, Note_on_c, 10, 74, 115
12, 55200, Note_on_c, 10, 74, 0
12, 55200, Note_on_c, 10, 76, 115
12, 55260, Note_on_c, 10, 76, 0
12, 55260, Note_on_c, 10, 76, 115
12, 55320, Note_on_c, 10, 76, 0
12, 55320, Note_on_c, 10, 78, 115
12, 55350, Note_on_c, 10, 78, 0
12, 55350, Note_on_c, 10, 76, 115
12, 55380, Note_on_c, 10, 76, 0
12, 55380, Note_on_c, 10, 78, 115
12, 55440, Note_on_c, 10, 78, 0
12, 55440, Note_on_c, 10, 80, 115
12, 55500, Note_on_c, 10, 80, 0
12, 55800, Note_on_c, 10, 81, 115
12, 55860, Note_on_c, 10, 81, 0
12, 55860, Note_on_c, 10, 76, 115
12, 55920, Note_on_c, 10, 76, 0
12, 55920, Note_on_c, 10, 76, 115
12, 55980, Note_on_c, 10, 76, 0
12, 55980, Note_on_c, 10, 76, 115
12, 56040, Note_on_c, 10, 76, 0
12, 56040, Note_on_c, 10, 76, 115
12, 56100, Note_on_c, 10, 76, 0
12, 56100, Note_on_c, 10, 74, 115
12, 56160, Note_on_c, 10, 74, 0
12, 56160, Note_on_c, 10, 73, 115
12, 56220, Note_on_c, 10, 73, 0
12, 56220, Note_on_c, 10, 73, 115
12, 56250, Note_on_c, 10, 73, 0
12, 56250, Note_on_c, 10, 71, 115
12, 56280, Note_on_c, 10, 71, 0
12, 56280, Note_on_c, 10, 69, 115
12, 56340, Note_on_c, 10, 69, 0
12, 58500, Note_on_c, 10, 76, 115
12, 58619, Note_on_c, 10, 76, 0
12, 58620, Note_on_c, 10, 73, 115
12, 58679, Note_on_c, 10, 73, 0
12, 58680, Note_on_c, 10, 69, 115
12, 58739, Note_on_c, 10, 69, 0
12, 58740, Note_on_c, 10, 71, 115
12, 58769, Note_on_c, 10, 71, 0
12, 58770, Note_on_c, 10, 73, 115
12, 58799, Note_on_c, 10, 73, 0
12, 58800, Note_on_c, 10, 74, 115
12, 58829, Note_on_c, 10, 74, 0
12, 58830, Note_on_c, 10, 76, 115
12, 58859, Note_on_c, 10, 76, 0
12, 58860, Note_on_c, 10, 78, 115
12, 58919, Note_on_c, 10, 78, 0
12, 58920, Note_on_c, 10, 76, 115
12, 58979, Note_on_c, 10, 76, 0
12, 58980, Note_on_c, 10, 74, 115
12, 59009, Note_on_c, 10, 74, 0
12, 59010, Note_on_c, 10, 73, 115
12, 59039, Note_on_c, 10, 73, 0
12, 59040, Note_on_c, 10, 71, 115
12, 59099, Note_on_c, 10, 71, 0
12, 59100, Note_on_c, 10, 68, 115
12, 59129, Note_on_c, 10, 68, 0
12, 59130, Note_on_c, 10, 69, 115
12, 59159, Note_on_c, 10, 69, 0
12, 59160, Note_on_c, 10, 71, 115
12, 59189, Note_on_c, 10, 71, 0
12, 59190, Note_on_c, 10, 73, 115
12, 59219, Note_on_c, 10, 73, 0
12, 59220, Note_on_c, 10, 74, 115
12, 59279, Note_on_c, 10, 74, 0
12, 59280, Note_on_c, 10, 74, 115
12, 59459, Note_on_c, 10, 74, 0
12, 59460, Note_on_c, 10, 73, 115
12, 59489, Note_on_c, 10, 73, 0
12, 59490, Note_on_c, 10, 71, 115
12, 59519, Note_on_c, 10, 71, 0
12, 59520, Note_on_c, 10, 73, 115
12, 59549, Note_on_c, 10, 73, 0
12, 59550, Note_on_c, 10, 75, 115
12, 59579, Note_on_c, 10, 75, 0
12, 59580, Note_on_c, 10, 76, 115
12, 59639, Note_on_c, 10, 76, 0
12, 59640, Note_on_c, 10, 78, 115
12, 59699, Note_on_c, 10, 78, 0
12, 59700, Note_on_c, 10, 78, 115
12, 59729, Note_on_c, 10, 78, 0
12, 59730, Note_on_c, 10, 76, 115
12, 59759, Note_on_c, 10, 76, 0
12, 59760, Note_on_c, 10, 75, 115
12, 59819, Note_on_c, 10, 75, 0
12, 59820, Note_on_c, 10, 78, 115
12, 59939, Note_on_c, 10, 78, 0
12, 59940, Note_on_c, 10, 75, 115
12, 59999, Note_on_c, 10, 75, 0
12, 60000, Note_on_c, 10, 71, 115
12, 60059, Note_on_c, 10, 71, 0
12, 60060, Note_on_c, 10, 75, 115
12, 60119, Note_on_c, 10, 75, 0
12, 60120, Note_on_c, 10, 76, 115
12, 60900, Note_on_c, 10, 76, 0
12, 60900, Note_on_c, 10, 70, 115
12, 61019, Note_on_c, 10, 70, 0
12, 61020, Note_on_c, 10, 73, 115
12, 61079, Note_on_c, 10, 73, 0
12, 61080, Note_on_c, 10, 73, 115
12, 61139, Note_on_c, 10, 73, 0
12, 61140, Note_on_c, 10, 76, 115
12, 61199, Note_on_c, 10, 76, 0
12, 61200, Note_on_c, 10, 75, 115
12, 61619, Note_on_c, 10, 75, 0
12, 61620, Note_on_c, 10, 66, 115
12, 61739, Note_on_c, 10, 66, 0
12, 61740, Note_on_c, 10, 71, 115
12, 61799, Note_on_c, 10, 71, 0
12, 61800, Note_on_c, 10, 71, 115
12, 61859, Note_on_c, 10, 71, 0
12, 61860, Note_on_c, 10, 75, 115
12, 61919, Note_on_c, 10, 75, 0
12, 61920, Note_on_c, 10, 76, 115
12, 61979, Note_on_c, 10, 76, 0
12, 61980, Note_on_c, 10, 71, 115
12, 62099, Note_on_c, 10, 71, 0
12, 62100, Note_on_c, 10, 74, 115
12, 62219, Note_on_c, 10, 74, 0
12, 62220, Note_on_c, 10, 73, 115
12, 62249, Note_on_c, 10, 73, 0
12, 62250, Note_on_c, 10, 71, 115
12, 62279, Note_on_c, 10, 71, 0
12, 62280, Note_on_c, 10, 73, 115
12, 62339, Note_on_c, 10, 73, 0
12, 62340, Note_on_c, 10, 69, 115
12, 62459, Note_on_c, 10, 69, 0
12, 62460, Note_on_c, 10, 73, 115
12, 62579, Note_on_c, 10, 73, 0
12, 62580, Note_on_c, 10, 71, 115
12, 62609, Note_on_c, 10, 71, 0
12, 62610, Note_on_c, 10, 69, 115
12, 62639, Note_on_c, 10, 69, 0
12, 62640, Note_on_c, 10, 71, 115
12, 62699, Note_on_c, 10, 71, 0
12, 62700, Note_on_c, 10, 68, 115
12, 62819, Note_on_c, 10, 68, 0
12, 62820, Note_on_c, 10, 71, 115
12, 62939, Note_on_c, 10, 71, 0
12, 62940, Note_on_c, 10, 69, 115
12, 62969, Note_on_c, 10, 69, 0
12, 62970, Note_on_c, 10, 68, 115
12, 62999, Note_on_c, 10, 68, 0
12, 63000, Note_on_c, 10, 69, 115
12, 63059, Note_on_c, 10, 69, 0
12, 63060, Note_on_c, 10, 66, 115
12, 63179, Note_on_c, 10, 66, 0
12, 63180, Note_on_c, 10, 69, 115
12, 63299, Note_on_c, 10, 69, 0
12, 63300, Note_on_c, 10, 68, 115
12, 63329, Note_on_c, 10, 68, 0
12, 63330, Note_on_c, 10, 66, 115
12, 63359, Note_on_c, 10, 66, 0
12, 63360, Note_on_c, 10, 68, 115
12, 63419, Note_on_c, 10, 68, 0
12, 63480, Note_on_c, 10, 69, 115
12, 63539, Note_on_c, 10, 69, 0
12, 63600, Note_on_c, 10, 71, 115
12, 63659, Note_on_c, 10, 71, 0
12, 63720, Note_on_c, 10, 73, 115
12, 63779, Note_on_c, 10, 73, 0
12, 63780, Note_on_c, 10, 71, 115
12, 63809, Note_on_c, 10, 71, 0
12, 63810, Note_on_c, 10, 73, 115
12, 63839, Note_on_c, 10, 73, 0
12, 63840, Note_on_c, 10, 75, 115
12, 63899, Note_on_c, 10, 75, 0
12, 63900, Note_on_c, 10, 73, 115
12, 63929, Note_on_c, 10, 73, 0
12, 63930, Note_on_c, 10, 75, 115
12, 63959, Note_on_c, 10, 75, 0
12, 63960, Note_on_c, 10, 76, 115
12, 64019, Note_on_c, 10, 76, 0
12, 64020, Note_on_c, 10, 75, 115
12, 64049, Note_on_c, 10, 75, 0
12, 64050, Note_on_c, 10, 76, 115
12, 64079, Note_on_c, 10, 76, 0
12, 64080, Note_on_c, 10, 78, 115
12, 64139, Note_on_c, 10, 78, 0
12, 64140, Note_on_c, 10, 76, 115
12, 64169, Note_on_c, 10, 76, 0
12, 64170, Note_on_c, 10, 75, 115
12, 64199, Note_on_c, 10, 75, 0
12, 64200, Note_on_c, 10, 76, 115
12, 64259, Note_on_c, 10, 76, 0
12, 64260, Note_on_c, 10, 71, 115
12, 64319, Note_on_c, 10, 71, 0
12, 64320, Note_on_c, 10, 68, 115
12, 64379, Note_on_c, 10, 68, 0
12, 64380, Note_on_c, 10, 66, 115
12, 64409, Note_on_c, 10, 66, 0
12, 64410, Note_on_c, 10, 64, 115
12, 64439, Note_on_c, 10, 64, 0
12, 64440, Note_on_c, 10, 64, 115
12, 64559, Note_on_c, 10, 64, 0
12, 65940, Note_on_c, 10, 68, 115
12, 65969, Note_on_c, 10, 68, 0
12, 65970, Note_on_c, 10, 69, 115
12, 65999, Note_on_c, 10, 69, 0
12, 66000, Note_on_c, 10, 71, 115
12, 66059, Note_on_c, 10, 71, 0
12, 66060, Note_on_c, 10, 73, 115
12, 66089, Note_on_c, 10, 73, 0
12, 66090, Note_on_c, 10, 74, 115
12, 66119, Note_on_c, 10, 74, 0
12, 66120, Note_on_c, 10, 76, 115
12, 66660, Note_on_c, 10, 76, 0
12, 66660, Note_on_c, 10, 71, 115
12, 66719, Note_on_c, 10, 71, 0
12, 66720, Note_on_c, 10, 74, 115
12, 66779, Note_on_c, 10, 74, 0
12, 66780, Note_on_c, 10, 74, 115
12, 66839, Note_on_c, 10, 74, 0
12, 66840, Note_on_c, 10, 74, 115
12, 66899, Note_on_c, 10, 74, 0
12, 66900, Note_on_c, 10, 74, 115
12, 66959, Note_on_c, 10, 74, 0
12, 66960, Note_on_c, 10, 73, 115
12, 67019, Note_on_c, 10, 73, 0
12, 67020, Note_on_c, 10, 73, 115
12, 67049, Note_on_c, 10, 73, 0
12, 67050, Note_on_c, 10, 71, 115
12, 67079, Note_on_c, 10, 71, 0
12, 67080, Note_on_c, 10, 69, 115
12, 67139, Note_on_c, 10, 69, 0
12, 68820, Note_on_c, 10, 66, 115
12, 68849, Note_on_c, 10, 66, 0
12, 68850, Note_on_c, 10, 67, 115
12, 68879, Note_on_c, 10, 67, 0
12, 68880, Note_on_c, 10, 69, 115
12, 68939, Note_on_c, 10, 69, 0
12, 68940, Note_on_c, 10, 71, 115
12, 68969, Note_on_c, 10, 71, 0
12, 68970, Note_on_c, 10, 73, 115
12, 68999, Note_on_c, 10, 73, 0
12, 69000, Note_on_c, 10, 74, 115
12, 69059, Note_on_c, 10, 74, 0
12, 69060, Note_on_c, 10, 66, 115
12, 69119, Note_on_c, 10, 66, 0
12, 69120, Note_on_c, 10, 64, 115
12, 69179, Note_on_c, 10, 64, 0
12, 69180, Note_on_c, 10, 73, 115
12, 69299, Note_on_c, 10, 73, 0
12, 69300, Note_on_c, 10, 76, 115
12, 69359, Note_on_c, 10, 76, 0
12, 69360, Note_on_c, 10, 69, 115
12, 69419, Note_on_c, 10, 69, 0
12, 69420, Note_on_c, 10, 73, 115
12, 69479, Note_on_c, 10, 73, 0
12, 69480, Note_on_c, 10, 74, 115
12, 69539, Note_on_c, 10, 74, 0
12, 69540, Note_on_c, 10, 74, 115
12, 69569, Note_on_c, 10, 74, 0
12, 69570, Note_on_c, 10, 76, 115
12, 69599, Note_on_c, 10, 76, 0
12, 69600, Note_on_c, 10, 78, 115
12, 69659, Note_on_c, 10, 78, 0
12, 69660, Note_on_c, 10, 78, 115
12, 69719, Note_on_c, 10, 78, 0
12, 69720, Note_on_c, 10, 78, 115
12, 69749, Note_on_c, 10, 78, 0
12, 69750, Note_on_c, 10, 76, 115
12, 69779, Note_on_c, 10, 76, 0
12, 69780, Note_on_c, 10, 78, 115
12, 69839, Note_on_c, 10, 78, 0
12, 69840, Note_on_c, 10, 71, 115
12, 69899, Note_on_c, 10, 71, 0
12, 69900, Note_on_c, 10, 71, 115
12, 70019, Note_on_c, 10, 71, 0
12, 70020, Note_on_c, 10, 68, 115
12, 70079, Note_on_c, 10, 68, 0
12, 70080, Note_on_c, 10, 64, 115
12, 70139, Note_on_c, 10, 64, 0
12, 70140, Note_on_c, 10, 71, 115
12, 70199, Note_on_c, 10, 71, 0
12, 70200, Note_on_c, 10, 76, 115
12, 70259, Note_on_c, 10, 76, 0
12, 70260, Note_on_c, 10, 73, 115
12, 70289, Note_on_c, 10, 73, 0
12, 70290, Note_on_c, 10, 74, 115
12, 70319, Note_on_c, 10, 74, 0
12, 70320, Note_on_c, 10, 76, 115
12, 70379, Note_on_c, 10, 76, 0
12, 70380, Note_on_c, 10, 76, 115
12, 70439, Note_on_c, 10, 76, 0
12, 70440, Note_on_c, 10, 76, 115
12, 70469, Note_on_c, 10, 76, 0
12, 70470, Note_on_c, 10, 74, 115
12, 70499, Note_on_c, 10, 74, 0
12, 70500, Note_on_c, 10, 76, 115
12, 70559, Note_on_c, 10, 76, 0
12, 70560, Note_on_c, 10, 69, 115
12, 70619, Note_on_c, 10, 69, 0
12, 70620, Note_on_c, 10, 69, 115
12, 70739, Note_on_c, 10, 69, 0
12, 70740, Note_on_c, 10, 66, 115
12, 70799, Note_on_c, 10, 66, 0
12, 70800, Note_on_c, 10, 62, 115
12, 70859, Note_on_c, 10, 62, 0
12, 70860, Note_on_c, 10, 69, 115
12, 70919, Note_on_c, 10, 69, 0
12, 70920, Note_on_c, 10, 74, 115
12, 70979, Note_on_c, 10, 74, 0
12, 70980, Note_on_c, 10, 78, 115
12, 71009, Note_on_c, 10, 78, 0
12, 71010, Note_on_c, 10, 76, 115
12, 71039, Note_on_c, 10, 76, 0
12, 71040, Note_on_c, 10, 74, 115
12, 71099, Note_on_c, 10, 74, 0
12, 71100, Note_on_c, 10, 74, 115
12, 71159, Note_on_c, 10, 74, 0
12, 71160, Note_on_c, 10, 74, 115
12, 71219, Note_on_c, 10, 74, 0
12, 71220, Note_on_c, 10, 74, 115
12, 71279, Note_on_c, 10, 74, 0
12, 71280, Note_on_c, 10, 74, 115
12, 71339, Note_on_c, 10, 74, 0
12, 71340, Note_on_c, 10, 71, 115
12, 71369, Note_on_c, 10, 71, 0
12, 71370, Note_on_c, 10, 73, 115
12, 71399, Note_on_c, 10, 73, 0
12, 71400, Note_on_c, 10, 74, 115
12, 71459, Note_on_c, 10, 74, 0
12, 71460, Note_on_c, 10, 74, 115
12, 71519, Note_on_c, 10, 74, 0
12, 71520, Note_on_c, 10, 74, 115
12, 71579, Note_on_c, 10, 74, 0
12, 71580, Note_on_c, 10, 74, 115
12, 71639, Note_on_c, 10, 74, 0
12, 71640, Note_on_c, 10, 74, 115
12, 71699, Note_on_c, 10, 74, 0
12, 71700, Note_on_c, 10, 73, 115
12, 71729, Note_on_c, 10, 73, 0
12, 71730, Note_on_c, 10, 74, 115
12, 71759, Note_on_c, 10, 74, 0
12, 71760, Note_on_c, 10, 76, 115
12, 71819, Note_on_c, 10, 76, 0
12, 71820, Note_on_c, 10, 78, 115
12, 71849, Note_on_c, 10, 78, 0
12, 71850, Note_on_c, 10, 76, 115
12, 71879, Note_on_c, 10, 76, 0
12, 71880, Note_on_c, 10, 74, 115
12, 71909, Note_on_c, 10, 74, 0
12, 71910, Note_on_c, 10, 73, 115
12, 71939, Note_on_c, 10, 73, 0
12, 71940, Note_on_c, 10, 71, 115
12, 71969, Note_on_c, 10, 71, 0
12, 71970, Note_on_c, 10, 69, 115
12, 71999, Note_on_c, 10, 69, 0
12, 72000, Note_on_c, 10, 73, 115
12, 72059, Note_on_c, 10, 73, 0
12, 72060, Note_on_c, 10, 71, 115
12, 72119, Note_on_c, 10, 71, 0
12, 72120, Note_on_c, 10, 71, 115
12, 72179, Note_on_c, 10, 71, 0
12, 75060, Note_on_c, 10, 76, 115
12, 75179, Note_on_c, 10, 76, 0
12, 75180, Note_on_c, 10, 73, 115
12, 75239, Note_on_c, 10, 73, 0
12, 75240, Note_on_c, 10, 69, 115
12, 75299, Note_on_c, 10, 69, 0
12, 75300, Note_on_c, 10, 71, 115
12, 75329, Note_on_c, 10, 71, 0
12, 75330, Note_on_c, 10, 73, 115
12, 75359, Note_on_c, 10, 73, 0
12, 75360, Note_on_c, 10, 74, 115
12, 75389, Note_on_c, 10, 74, 0
12, 75390, Note_on_c, 10, 76, 115
12, 75419, Note_on_c, 10, 76, 0
12, 75420, Note_on_c, 10, 78, 115
12, 75479, Note_on_c, 10, 78, 0
12, 75480, Note_on_c, 10, 76, 115
12, 75539, Note_on_c, 10, 76, 0
12, 75540, Note_on_c, 10, 74, 115
12, 75569, Note_on_c, 10, 74, 0
12, 75570, Note_on_c, 10, 73, 115
12, 75599, Note_on_c, 10, 73, 0
12, 75600, Note_on_c, 10, 71, 115
12, 75659, Note_on_c, 10, 71, 0
12, 75660, Note_on_c, 10, 68, 115
12, 75689, Note_on_c, 10, 68, 0
12, 75690, Note_on_c, 10, 69, 115
12, 75719, Note_on_c, 10, 69, 0
12, 75720, Note_on_c, 10, 71, 115
12, 75749, Note_on_c, 10, 71, 0
12, 75750, Note_on_c, 10, 73, 115
12, 75779, Note_on_c, 10, 73, 0
12, 75780, Note_on_c, 10, 74, 115
12, 75839, Note_on_c, 10, 74, 0
12, 75840, Note_on_c, 10, 74, 115
12, 76019, Note_on_c, 10, 74, 0
12, 76020, Note_on_c, 10, 73, 115
12, 76049, Note_on_c, 10, 73, 0
12, 76050, Note_on_c, 10, 74, 115
12, 76079, Note_on_c, 10, 74, 0
12, 76080, Note_on_c, 10, 76, 115
12, 76380, Note_on_c, 10, 76, 0
12, 76380, Note_on_c, 10, 69, 115
12, 76499, Note_on_c, 10, 69, 0
12, 76500, Note_on_c, 10, 74, 115
12, 76559, Note_on_c, 10, 74, 0
12, 76560, Note_on_c, 10, 74, 115
12, 76619, Note_on_c, 10, 74, 0
12, 76620, Note_on_c, 10, 78, 115
12, 76679, Note_on_c, 10, 78, 0
12, 76680, Note_on_c, 10, 71, 115
12, 77099, Note_on_c, 10, 71, 0
12, 77100, Note_on_c, 10, 68, 115
12, 77219, Note_on_c, 10, 68, 0
12, 77220, Note_on_c, 10, 71, 115
12, 77279, Note_on_c, 10, 71, 0
12, 77280, Note_on_c, 10, 71, 115
12, 77339, Note_on_c, 10, 71, 0
12, 77340, Note_on_c, 10, 74, 115
12, 77399, Note_on_c, 10, 74, 0
12, 77400, Note_on_c, 10, 64, 115
12, 77819, Note_on_c, 10, 64, 0
12, 77820, Note_on_c, 10, 73, 115
12, 77939, Note_on_c, 10, 73, 0
12, 77940, Note_on_c, 10, 76, 115
12, 78059, Note_on_c, 10, 76, 0
12, 78060, Note_on_c, 10, 74, 115
12, 78089, Note_on_c, 10, 74, 0
12, 78090, Note_on_c, 10, 73, 115
12, 78119, Note_on_c, 10, 73, 0
12, 78120, Note_on_c, 10, 74, 115
12, 78179, Note_on_c, 10, 74, 0
12, 78180, Note_on_c, 10, 69, 115
12, 78299, Note_on_c, 10, 69, 0
12, 78300, Note_on_c, 10, 74, 115
12, 78419, Note_on_c, 10, 74, 0
12, 78420, Note_on_c, 10, 73, 115
12, 78449, Note_on_c, 10, 73, 0
12, 78450, Note_on_c, 10, 71, 115
12, 78479, Note_on_c, 10, 71, 0
12, 78480, Note_on_c, 10, 73, 115
12, 78539, Note_on_c, 10, 73, 0
12, 78540, Note_on_c, 10, 69, 115
12, 78659, Note_on_c, 10, 69, 0
12, 78660, Note_on_c, 10, 73, 115
12, 78779, Note_on_c, 10, 73, 0
12, 78780, Note_on_c, 10, 71, 115
12, 78809, Note_on_c, 10, 71, 0
12, 78810, Note_on_c, 10, 69, 115
12, 78839, Note_on_c, 10, 69, 0
12, 78840, Note_on_c, 10, 71, 115
12, 78899, Note_on_c, 10, 71, 0
12, 78900, Note_on_c, 10, 68, 115
12, 79019, Note_on_c, 10, 68, 0
12, 79020, Note_on_c, 10, 71, 115
12, 79139, Note_on_c, 10, 71, 0
12, 79140, Note_on_c, 10, 69, 115
12, 79169, Note_on_c, 10, 69, 0
12, 79170, Note_on_c, 10, 68, 115
12, 79199, Note_on_c, 10, 68, 0
12, 79200, Note_on_c, 10, 69, 115
12, 79619, Note_on_c, 10, 69, 0
12, 79620, Note_on_c, 10, 71, 115
12, 79679, Note_on_c, 10, 71, 0
12, 79680, Note_on_c, 10, 64, 115
12, 79979, Note_on_c, 10, 64, 0
12, 79980, Note_on_c, 10, 74, 115
12, 80039, Note_on_c, 10, 74, 0
12, 80040, Note_on_c, 10, 73, 115
12, 80099, Note_on_c, 10, 73, 0
12, 80100, Note_on_c, 10, 76, 115
12, 80159, Note_on_c, 10, 76, 0
12, 80160, Note_on_c, 10, 73, 115
12, 80219, Note_on_c, 10, 73, 0
12, 80220, Note_on_c, 10, 71, 115
12, 80249, Note_on_c, 10, 71, 0
12, 80250, Note_on_c, 10, 69, 115
12, 80279, Note_on_c, 10, 69, 0
12, 80280, Note_on_c, 10, 69, 115
12, 80399, Note_on_c, 10, 69, 0
12, 83760, Note_on_c, 10, 71, 90
12, 83879, Note_on_c, 10, 71, 0
12, 84000, Note_on_c, 10, 73, 90
12, 84119, Note_on_c, 10, 73, 0
12, 84180, Note_on_c, 10, 78, 90
12, 84239, Note_on_c, 10, 78, 0
12, 84240, Note_on_c, 10, 74, 90
12, 84299, Note_on_c, 10, 74, 0
12, 84300, Note_on_c, 10, 74, 90
12, 84359, Note_on_c, 10, 74, 0
12, 84360, Note_on_c, 10, 78, 90
12, 84419, Note_on_c, 10, 78, 0
12, 84420, Note_on_c, 10, 74, 90
12, 84479, Note_on_c, 10, 74, 0
12, 84480, Note_on_c, 10, 71, 90
12, 84539, Note_on_c, 10, 71, 0
12, 84540, Note_on_c, 10, 71, 90
12, 84599, Note_on_c, 10, 71, 0
12, 84600, Note_on_c, 10, 71, 90
12, 84659, Note_on_c, 10, 71, 0
12, 84660, Note_on_c, 10, 73, 90
12, 84689, Note_on_c, 10, 73, 0
12, 84690, Note_on_c, 10, 75, 90
12, 84719, Note_on_c, 10, 75, 0
12, 84720, Note_on_c, 10, 76, 90
12, 84779, Note_on_c, 10, 76, 0
12, 84780, Note_on_c, 10, 76, 90
12, 84839, Note_on_c, 10, 76, 0
12, 84900, Note_on_c, 10, 76, 90
12, 84959, Note_on_c, 10, 76, 0
12, 84960, Note_on_c, 10, 73, 90
12, 85019, Note_on_c, 10, 73, 0
12, 85020, Note_on_c, 10, 73, 90
12, 85079, Note_on_c, 10, 73, 0
12, 85080, Note_on_c, 10, 76, 90
12, 85139, Note_on_c, 10, 76, 0
12, 85140, Note_on_c, 10, 73, 90
12, 85199, Note_on_c, 10, 73, 0
12, 85200, Note_on_c, 10, 69, 90
12, 85259, Note_on_c, 10, 69, 0
12, 85260, Note_on_c, 10, 69, 90
12, 85319, Note_on_c, 10, 69, 0
12, 85320, Note_on_c, 10, 69, 90
12, 85379, Note_on_c, 10, 69, 0
12, 85380, Note_on_c, 10, 71, 90
12, 85409, Note_on_c, 10, 71, 0
12, 85410, Note_on_c, 10, 73, 90
12, 85439, Note_on_c, 10, 73, 0
12, 85440, Note_on_c, 10, 74, 90
12, 85499, Note_on_c, 10, 74, 0
12, 85500, Note_on_c, 10, 74, 90
12, 85559, Note_on_c, 10, 74, 0
12, 85620, Note_on_c, 10, 74, 90
12, 85679, Note_on_c, 10, 74, 0
12, 85680, Note_on_c, 10, 71, 90
12, 85799, Note_on_c, 10, 71, 0
12, 85860, Note_on_c, 10, 69, 90
12, 85919, Note_on_c, 10, 69, 0
12, 85920, Note_on_c, 10, 78, 90
12, 86039, Note_on_c, 10, 78, 0
12, 88140, Note_on_c, 10, 73, 90
12, 88199, Note_on_c, 10, 73, 0
12, 88200, Note_on_c, 10, 73, 90
12, 88259, Note_on_c, 10, 73, 0
12, 88260, Note_on_c, 10, 74, 90
12, 88319, Note_on_c, 10, 74, 0
12, 88320, Note_on_c, 10, 76, 90
12, 88379, Note_on_c, 10, 76, 0
12, 88380, Note_on_c, 10, 76, 90
12, 88439, Note_on_c, 10, 76, 0
12, 88440, Note_on_c, 10, 76, 90
12, 88499, Note_on_c, 10, 76, 0
12, 88500, Note_on_c, 10, 78, 90
12, 88559, Note_on_c, 10, 78, 0
12, 88560, Note_on_c, 10, 79, 90
12, 88619, Note_on_c, 10, 79, 0
12, 88620, Note_on_c, 10, 79, 90
12, 88679, Note_on_c, 10, 79, 0
12, 88740, Note_on_c, 10, 79, 90
12, 88799, Note_on_c, 10, 79, 0
12, 88800, Note_on_c, 10, 78, 90
12, 88919, Note_on_c, 10, 78, 0
12, 88920, Note_on_c, 10, 76, 90
12, 88979, Note_on_c, 10, 76, 0
12, 88980, Note_on_c, 10, 74, 90
12, 89039, Note_on_c, 10, 74, 0
12, 89040, Note_on_c, 10, 81, 90
12, 89099, Note_on_c, 10, 81, 0
12, 89100, Note_on_c, 10, 69, 90
12, 89159, Note_on_c, 10, 69, 0
12, 89340, Note_on_c, 10, 71, 90
12, 89399, Note_on_c, 10, 71, 0
12, 89400, Note_on_c, 10, 71, 90
12, 89459, Note_on_c, 10, 71, 0
12, 89460, Note_on_c, 10, 73, 90
12, 89519, Note_on_c, 10, 73, 0
12, 89520, Note_on_c, 10, 74, 90
12, 89579, Note_on_c, 10, 74, 0
12, 89580, Note_on_c, 10, 74, 90
12, 89639, Note_on_c, 10, 74, 0
12, 89640, Note_on_c, 10, 73, 90
12, 89699, Note_on_c, 10, 73, 0
12, 89700, Note_on_c, 10, 71, 90
12, 89759, Note_on_c, 10, 71, 0
12, 89760, Note_on_c, 10, 73, 90
12, 89819, Note_on_c, 10, 73, 0
12, 89820, Note_on_c, 10, 73, 90
12, 89879, Note_on_c, 10, 73, 0
12, 89940, Note_on_c, 10, 75, 90
12, 89999, Note_on_c, 10, 75, 0
12, 90000, Note_on_c, 10, 76, 90
12, 90059, Note_on_c, 10, 76, 0
12, 90060, Note_on_c, 10, 74, 90
12, 90119, Note_on_c, 10, 74, 0
12, 90120, Note_on_c, 10, 73, 90
12, 90239, Note_on_c, 10, 73, 0
12, 90240, Note_on_c, 10, 71, 90
12, 90299, Note_on_c, 10, 71, 0
12, 90300, Note_on_c, 10, 78, 90
12, 90359, Note_on_c, 10, 78, 0
12, 90360, Note_on_c, 10, 78, 90
12, 90419, Note_on_c, 10, 78, 0
12, 90420, Note_on_c, 10, 77, 90
12, 90479, Note_on_c, 10, 77, 0
12, 90480, Note_on_c, 10, 78, 90
12, 90539, Note_on_c, 10, 78, 0
12, 90540, Note_on_c, 10, 73, 90
12, 90599, Note_on_c, 10, 73, 0
12, 90600, Note_on_c, 10, 73, 90
12, 90659, Note_on_c, 10, 73, 0
12, 90660, Note_on_c, 10, 71, 90
12, 90719, Note_on_c, 10, 71, 0
12, 90720, Note_on_c, 10, 69, 90
12, 90839, Note_on_c, 10, 69, 0
12, 90840, Note_on_c, 10, 69, 90
12, 90899, Note_on_c, 10, 69, 0
12, 90900, Note_on_c, 10, 67, 90
12, 90959, Note_on_c, 10, 67, 0
12, 90960, Note_on_c, 10, 66, 90
12, 91019, Note_on_c, 10, 66, 0
12, 91020, Note_on_c, 10, 69, 90
12, 91079, Note_on_c, 10, 69, 0
12, 91080, Note_on_c, 10, 74, 90
12, 91259, Note_on_c, 10, 74, 0
12, 91260, Note_on_c, 10, 73, 90
12, 91319, Note_on_c, 10, 73, 0
12, 91320, Note_on_c, 10, 73, 90
12, 91379, Note_on_c, 10, 73, 0
12, 91380, Note_on_c, 10, 69, 90
12, 91439, Note_on_c, 10, 69, 0
12, 91440, Note_on_c, 10, 74, 90
12, 91499, Note_on_c, 10, 74, 0
12, 91500, Note_on_c, 10, 76, 90
12, 91559, Note_on_c, 10, 76, 0
12, 91560, Note_on_c, 10, 78, 90
12, 91739, Note_on_c, 10, 78, 0
12, 91740, Note_on_c, 10, 75, 90
12, 91799, Note_on_c, 10, 75, 0
12, 91800, Note_on_c, 10, 76, 90
12, 91859, Note_on_c, 10, 76, 0
12, 91860, Note_on_c, 10, 78, 90
12, 91919, Note_on_c, 10, 78, 0
12, 91920, Note_on_c, 10, 79, 90
12, 91979, Note_on_c, 10, 79, 0
12, 91980, Note_on_c, 10, 78, 90
12, 92039, Note_on_c, 10, 78, 0
12, 92040, Note_on_c, 10, 78, 90
12, 92219, Note_on_c, 10, 78, 0
12, 92220, Note_on_c, 10, 76, 90
12, 92249, Note_on_c, 10, 76, 0
12, 92250, Note_on_c, 10, 74, 90
12, 92279, Note_on_c, 10, 74, 0
12, 92280, Note_on_c, 10, 73, 90
12, 92309, Note_on_c, 10, 73, 0
12, 92310, Note_on_c, 10, 74, 90
12, 92339, Note_on_c, 10, 74, 0
12, 92340, Note_on_c, 10, 71, 90
12, 92399, Note_on_c, 10, 71, 0
12, 92400, Note_on_c, 10, 70, 90
12, 92519, Note_on_c, 10, 70, 0
12, 97800, Note_on_c, 10, 69, 90
12, 97919, Note_on_c, 10, 69, 0
12, 97920, Note_on_c, 10, 69, 90
12, 98039, Note_on_c, 10, 69, 0
12, 98040, Note_on_c, 10, 76, 90
12, 98159, Note_on_c, 10, 76, 0
12, 98160, Note_on_c, 10, 76, 90
12, 98279, Note_on_c, 10, 76, 0
12, 98280, Note_on_c, 10, 74, 90
12, 98339, Note_on_c, 10, 74, 0
12, 98340, Note_on_c, 10, 73, 90
12, 98399, Note_on_c, 10, 73, 0
12, 98400, Note_on_c, 10, 71, 90
12, 98519, Note_on_c, 10, 71, 0
12, 98520, Note_on_c, 10, 73, 90
12, 98639, Note_on_c, 10, 73, 0
12, 98640, Note_on_c, 10, 74, 90
12, 98699, Note_on_c, 10, 74, 0
12, 98700, Note_on_c, 10, 73, 90
12, 98759, Note_on_c, 10, 73, 0
12, 98760, Note_on_c, 10, 71, 90
12, 98879, Note_on_c, 10, 71, 0
12, 98880, Note_on_c, 10, 69, 90
12, 99119, Note_on_c, 10, 69, 0
12, 99240, Note_on_c, 10, 69, 90
12, 99359, Note_on_c, 10, 69, 0
12, 99360, Note_on_c, 10, 71, 90
12, 99479, Note_on_c, 10, 71, 0
12, 99480, Note_on_c, 10, 73, 90
12, 99599, Note_on_c, 10, 73, 0
12, 99600, Note_on_c, 10, 74, 90
12, 99719, Note_on_c, 10, 74, 0
12, 99720, Note_on_c, 10, 71, 90
12, 99839, Note_on_c, 10, 71, 0
12, 99840, Note_on_c, 10, 76, 90
12, 99959, Note_on_c, 10, 76, 0
12, 99960, Note_on_c, 10, 78, 90
12, 100079, Note_on_c, 10, 78, 0
12, 100080, Note_on_c, 10, 76, 90
12, 100175, Note_on_c, 10, 76, 0
12, 100200, Note_on_c, 10, 73, 90
12, 100319, Note_on_c, 10, 73, 0
12, 100320, Note_on_c, 10, 73, 90
12, 100379, Note_on_c, 10, 73, 0
12, 100380, Note_on_c, 10, 74, 90
12, 100439, Note_on_c, 10, 74, 0
12, 100440, Note_on_c, 10, 76, 90
12, 100559, Note_on_c, 10, 76, 0
12, 100560, Note_on_c, 10, 74, 90
12, 100679, Note_on_c, 10, 74, 0
12, 100680, Note_on_c, 10, 73, 90
12, 100739, Note_on_c, 10, 73, 0
12, 100740, Note_on_c, 10, 71, 90
12, 100799, Note_on_c, 10, 71, 0
12, 100800, Note_on_c, 10, 69, 90
12, 100859, Note_on_c, 10, 69, 0
12, 100860, Note_on_c, 10, 71, 90
12, 100919, Note_on_c, 10, 71, 0
12, 100920, Note_on_c, 10, 73, 90
12, 101039, Note_on_c, 10, 73, 0
12, 101040, Note_on_c, 10, 71, 90
12, 101135, Note_on_c, 10, 71, 0
12, 101160, Note_on_c, 10, 73, 90
12, 101279, Note_on_c, 10, 73, 0
12, 101280, Note_on_c, 10, 69, 90
12, 101399, Note_on_c, 10, 69, 0
12, 101400, Note_on_c, 10, 71, 90
12, 101459, Note_on_c, 10, 71, 0
12, 101460, Note_on_c, 10, 73, 90
12, 101519, Note_on_c, 10, 73, 0
12, 101520, Note_on_c, 10, 74, 90
12, 101615, Note_on_c, 10, 74, 0
12, 101640, Note_on_c, 10, 73, 90
12, 101759, Note_on_c, 10, 73, 0
12, 101760, Note_on_c, 10, 71, 90
12, 101879, Note_on_c, 10, 71, 0
12, 101880, Note_on_c, 10, 73, 90
12, 101999, Note_on_c, 10, 73, 0
12, 102000, Note_on_c, 10, 74, 90
12, 102095, Note_on_c, 10, 74, 0
12, 102120, Note_on_c, 10, 73, 90
12, 102239, Note_on_c, 10, 73, 0
12, 102240, Note_on_c, 10, 71, 90
12, 102359, Note_on_c, 10, 71, 0
12, 102360, Note_on_c, 10, 69, 90
12, 102479, Note_on_c, 10, 69, 0
12, 102480, Note_on_c, 10, 76, 90
12, 102659, Note_on_c, 10, 76, 0
12, 102660, Note_on_c, 10, 74, 90
12, 102719, Note_on_c, 10, 74, 0
12, 102720, Note_on_c, 10, 73, 90
12, 102839, Note_on_c, 10, 73, 0
12, 102840, Note_on_c, 10, 74, 90
12, 102899, Note_on_c, 10, 74, 0
12, 102900, Note_on_c, 10, 73, 90
12, 102959, Note_on_c, 10, 73, 0
12, 102960, Note_on_c, 10, 71, 90
12, 103199, Note_on_c, 10, 71, 0
12, 103200, Note_on_c, 10, 69, 90
12, 103559, Note_on_c, 10, 69, 0
12, 201240, Note_on_c, 10, 69, 90
12, 201359, Note_on_c, 10, 69, 0
12, 201360, Note_on_c, 10, 71, 90
12, 201479, Note_on_c, 10, 71, 0
12, 201480, Note_on_c, 10, 73, 90
12, 201539, Note_on_c, 10, 73, 0
12, 201540, Note_on_c, 10, 74, 90
12, 201599, Note_on_c, 10, 74, 0
12, 201600, Note_on_c, 10, 76, 90
12, 201719, Note_on_c, 10, 76, 0
12, 201720, Note_on_c, 10, 69, 90
12, 201839, Note_on_c, 10, 69, 0
12, 201840, Note_on_c, 10, 68, 90
12, 201959, Note_on_c, 10, 68, 0
12, 201960, Note_on_c, 10, 66, 90
12, 202079, Note_on_c, 10, 66, 0
12, 202080, Note_on_c, 10, 64, 90
12, 202175, Note_on_c, 10, 64, 0
12, 202200, Note_on_c, 10, 66, 90
12, 202319, Note_on_c, 10, 66, 0
12, 202320, Note_on_c, 10, 68, 90
12, 202439, Note_on_c, 10, 68, 0
12, 202440, Note_on_c, 10, 69, 90
12, 202559, Note_on_c, 10, 69, 0
12, 202560, Note_on_c, 10, 71, 90
12, 202679, Note_on_c, 10, 71, 0
12, 202680, Note_on_c, 10, 73, 90
12, 202739, Note_on_c, 10, 73, 0
12, 202740, Note_on_c, 10, 74, 90
12, 202799, Note_on_c, 10, 74, 0
12, 202800, Note_on_c, 10, 71, 90
12, 202919, Note_on_c, 10, 71, 0
12, 202920, Note_on_c, 10, 69, 90
12, 203135, Note_on_c, 10, 69, 0
12, 203160, Note_on_c, 10, 69, 90
12, 203279, Note_on_c, 10, 69, 0
12, 203280, Note_on_c, 10, 71, 90
12, 203399, Note_on_c, 10, 71, 0
12, 203400, Note_on_c, 10, 73, 90
12, 203459, Note_on_c, 10, 73, 0
12, 203460, Note_on_c, 10, 74, 90
12, 203519, Note_on_c, 10, 74, 0
12, 203520, Note_on_c, 10, 76, 90
12, 203639, Note_on_c, 10, 76, 0
12, 203640, Note_on_c, 10, 69, 90
12, 203759, Note_on_c, 10, 69, 0
12, 203760, Note_on_c, 10, 68, 90
12, 203879, Note_on_c, 10, 68, 0
12, 203880, Note_on_c, 10, 66, 90
12, 203999, Note_on_c, 10, 66, 0
12, 204000, Note_on_c, 10, 64, 90
12, 204095, Note_on_c, 10, 64, 0
12, 204120, Note_on_c, 10, 66, 90
12, 204239, Note_on_c, 10, 66, 0
12, 204240, Note_on_c, 10, 68, 90
12, 204359, Note_on_c, 10, 68, 0
12, 204360, Note_on_c, 10, 69, 90
12, 204479, Note_on_c, 10, 69, 0
12, 204480, Note_on_c, 10, 71, 90
12, 204599, Note_on_c, 10, 71, 0
12, 204600, Note_on_c, 10, 73, 90
12, 204659, Note_on_c, 10, 73, 0
12, 204660, Note_on_c, 10, 74, 90
12, 204719, Note_on_c, 10, 74, 0
12, 204720, Note_on_c, 10, 71, 90
12, 204839, Note_on_c, 10, 71, 0
12, 204840, Note_on_c, 10, 69, 90
12, 205055, Note_on_c, 10, 69, 0
12, 205080, Note_on_c, 10, 73, 90
12, 205199, Note_on_c, 10, 73, 0
12, 205200, Note_on_c, 10, 73, 90
12, 205319, Note_on_c, 10, 73, 0
12, 205320, Note_on_c, 10, 71, 90
12, 205439, Note_on_c, 10, 71, 0
12, 205440, Note_on_c, 10, 73, 90
12, 205559, Note_on_c, 10, 73, 0
12, 205560, Note_on_c, 10, 74, 90
12, 205679, Note_on_c, 10, 74, 0
12, 205680, Note_on_c, 10, 73, 90
12, 205739, Note_on_c, 10, 73, 0
12, 205740, Note_on_c, 10, 71, 90
12, 205799, Note_on_c, 10, 71, 0
12, 205800, Note_on_c, 10, 71, 90
12, 205859, Note_on_c, 10, 71, 0
12, 205860, Note_on_c, 10, 69, 90
12, 205919, Note_on_c, 10, 69, 0
12, 205920, Note_on_c, 10, 71, 90
12, 206015, Note_on_c, 10, 71, 0
12, 206040, Note_on_c, 10, 66, 90
12, 206159, Note_on_c, 10, 66, 0
12, 206160, Note_on_c, 10, 68, 90
12, 206279, Note_on_c, 10, 68, 0
12, 206280, Note_on_c, 10, 69, 90
12, 206399, Note_on_c, 10, 69, 0
12, 206400, Note_on_c, 10, 71, 90
12, 206519, Note_on_c, 10, 71, 0
12, 206520, Note_on_c, 10, 73, 90
12, 206579, Note_on_c, 10, 73, 0
12, 206580, Note_on_c, 10, 74, 90
12, 206639, Note_on_c, 10, 74, 0
12, 206640, Note_on_c, 10, 71, 90
12, 206759, Note_on_c, 10, 71, 0
12, 206760, Note_on_c, 10, 69, 90
12, 206819, Note_on_c, 10, 69, 0
12, 206820, Note_on_c, 10, 68, 90
12, 206879, Note_on_c, 10, 68, 0
12, 206880, Note_on_c, 10, 69, 90
12, 206999, Note_on_c, 10, 69, 0
12, 206999, End_track
13, 0, Start_track
13, 0, MIDI_port, 0
13, 0, Title_t, "Alto"
13, 0, Program_c, 11, 52
13, 0, Control_c, 11, 7, 127
13, 0, Control_c, 11, 10, 84
13, 6180, Note_on_c, 11, 69, 115
13, 6210, Note_on_c, 11, 69, 0
13, 6210, Note_on_c, 11, 71, 115
13, 6240, Note_on_c, 11, 71, 0
13, 6240, Note_on_c, 11, 73, 115
13, 6300, Note_on_c, 11, 73, 0
13, 6300, Note_on_c, 11, 73, 115
13, 6360, Note_on_c, 11, 73, 0
13, 6360, Note_on_c, 11, 74, 115
13, 6390, Note_on_c, 11, 74, 0
13, 6390, Note_on_c, 11, 73, 115
13, 6420, Note_on_c, 11, 73, 0
13, 6420, Note_on_c, 11, 74, 115
13, 6480, Note_on_c, 11, 74, 0
13, 6480, Note_on_c, 11, 73, 115
13, 6540, Note_on_c, 11, 73, 0
13, 6840, Note_on_c, 11, 69, 115
13, 6900, Note_on_c, 11, 69, 0
13, 6900, Note_on_c, 11, 69, 115
13, 6960, Note_on_c, 11, 69, 0
13, 6960, Note_on_c, 11, 73, 115
13, 7020, Note_on_c, 11, 73, 0
13, 7020, Note_on_c, 11, 69, 115
13, 7080, Note_on_c, 11, 69, 0
13, 7080, Note_on_c, 11, 68, 115
13, 7140, Note_on_c, 11, 68, 0
13, 7140, Note_on_c, 11, 68, 115
13, 7200, Note_on_c, 11, 68, 0
13, 7200, Note_on_c, 11, 69, 115
13, 7320, Note_on_c, 11, 69, 0
13, 7320, Note_on_c, 11, 64, 115
13, 7380, Note_on_c, 11, 64, 0
13, 7620, Note_on_c, 11, 64, 115
13, 7650, Note_on_c, 11, 64, 0
13, 7650, Note_on_c, 11, 66, 115
13, 7680, Note_on_c, 11, 66, 0
13, 7680, Note_on_c, 11, 68, 115
13, 7740, Note_on_c, 11, 68, 0
13, 7740, Note_on_c, 11, 68, 115
13, 7800, Note_on_c, 11, 68, 0
13, 7800, Note_on_c, 11, 69, 115
13, 7830, Note_on_c, 11, 69, 0
13, 7830, Note_on_c, 11, 68, 115
13, 7860, Note_on_c, 11, 68, 0
13, 7860, Note_on_c, 11, 69, 115
13, 7920, Note_on_c, 11, 69, 0
13, 7920, Note_on_c, 11, 68, 115
13, 7980, Note_on_c, 11, 68, 0
13, 7980, Note_on_c, 11, 68, 115
13, 8010, Note_on_c, 11, 68, 0
13, 8010, Note_on_c, 11, 66, 115
13, 8040, Note_on_c, 11, 66, 0
13, 8040, Note_on_c, 11, 64, 115
13, 8100, Note_on_c, 11, 64, 0
13, 8100, Note_on_c, 11, 71, 115
13, 8160, Note_on_c, 11, 71, 0
13, 8160, Note_on_c, 11, 71, 115
13, 8220, Note_on_c, 11, 71, 0
13, 8220, Note_on_c, 11, 69, 115
13, 8280, Note_on_c, 11, 69, 0
13, 8280, Note_on_c, 11, 68, 115
13, 8340, Note_on_c, 11, 68, 0
13, 8640, Note_on_c, 11, 68, 115
13, 8700, Note_on_c, 11, 68, 0
13, 8700, Note_on_c, 11, 68, 115
13, 8760, Note_on_c, 11, 68, 0
13, 8760, Note_on_c, 11, 68, 115
13, 8820, Note_on_c, 11, 68, 0
13, 8820, Note_on_c, 11, 68, 115
13, 8880, Note_on_c, 11, 68, 0
13, 8880, Note_on_c, 11, 66, 115
13, 8940, Note_on_c, 11, 66, 0
13, 8940, Note_on_c, 11, 66, 115
13, 9000, Note_on_c, 11, 66, 0
13, 9000, Note_on_c, 11, 68, 115
13, 9060, Note_on_c, 11, 68, 0
13, 9060, Note_on_c, 11, 68, 115
13, 9090, Note_on_c, 11, 68, 0
13, 9090, Note_on_c, 11, 66, 115
13, 9120, Note_on_c, 11, 66, 0
13, 9120, Note_on_c, 11, 64, 115
13, 9180, Note_on_c, 11, 64, 0
13, 9780, Note_on_c, 11, 64, 115
13, 9810, Note_on_c, 11, 64, 0
13, 9810, Note_on_c, 11, 66, 115
13, 9840, Note_on_c, 11, 66, 0
13, 9840, Note_on_c, 11, 68, 115
13, 9900, Note_on_c, 11, 68, 0
13, 9900, Note_on_c, 11, 68, 115
13, 9960, Note_on_c, 11, 68, 0
13, 9960, Note_on_c, 11, 69, 115
13, 9990, Note_on_c, 11, 69, 0
13, 9990, Note_on_c, 11, 68, 115
13, 10020, Note_on_c, 11, 68, 0
13, 10020, Note_on_c, 11, 69, 115
13, 10080, Note_on_c, 11, 69, 0
13, 10080, Note_on_c, 11, 71, 115
13, 10140, Note_on_c, 11, 71, 0
13, 10440, Note_on_c, 11, 73, 115
13, 10500, Note_on_c, 11, 73, 0
13, 10500, Note_on_c, 11, 73, 115
13, 10560, Note_on_c, 11, 73, 0
13, 10560, Note_on_c, 11, 69, 115
13, 10620, Note_on_c, 11, 69, 0
13, 10620, Note_on_c, 11, 69, 115
13, 10680, Note_on_c, 11, 69, 0
13, 10680, Note_on_c, 11, 68, 115
13, 10740, Note_on_c, 11, 68, 0
13, 10740, Note_on_c, 11, 68, 115
13, 10800, Note_on_c, 11, 68, 0
13, 10800, Note_on_c, 11, 69, 115
13, 10920, Note_on_c, 11, 69, 0
13, 10920, Note_on_c, 11, 64, 115
13, 10980, Note_on_c, 11, 64, 0
13, 11700, Note_on_c, 11, 71, 115
13, 11820, Note_on_c, 11, 71, 0
13, 11820, Note_on_c, 11, 68, 115
13, 11880, Note_on_c, 11, 68, 0
13, 11880, Note_on_c, 11, 64, 115
13, 11940, Note_on_c, 11, 64, 0
13, 11940, Note_on_c, 11, 66, 115
13, 11970, Note_on_c, 11, 66, 0
13, 11970, Note_on_c, 11, 68, 115
13, 12000, Note_on_c, 11, 68, 0
13, 12000, Note_on_c, 11, 69, 115
13, 12030, Note_on_c, 11, 69, 0
13, 12030, Note_on_c, 11, 71, 115
13, 12060, Note_on_c, 11, 71, 0
13, 12060, Note_on_c, 11, 73, 115
13, 12120, Note_on_c, 11, 73, 0
13, 12120, Note_on_c, 11, 71, 115
13, 12180, Note_on_c, 11, 71, 0
13, 12180, Note_on_c, 11, 69, 115
13, 12210, Note_on_c, 11, 69, 0
13, 12210, Note_on_c, 11, 68, 115
13, 12240, Note_on_c, 11, 68, 0
13, 12240, Note_on_c, 11, 66, 115
13, 12299, Note_on_c, 11, 66, 0
13, 12300, Note_on_c, 11, 63, 115
13, 12329, Note_on_c, 11, 63, 0
13, 12330, Note_on_c, 11, 64, 115
13, 12359, Note_on_c, 11, 64, 0
13, 12360, Note_on_c, 11, 66, 115
13, 12389, Note_on_c, 11, 66, 0
13, 12390, Note_on_c, 11, 68, 115
13, 12419, Note_on_c, 11, 68, 0
13, 12420, Note_on_c, 11, 69, 115
13, 12479, Note_on_c, 11, 69, 0
13, 12480, Note_on_c, 11, 69, 115
13, 12659, Note_on_c, 11, 69, 0
13, 12660, Note_on_c, 11, 68, 115
13, 12689, Note_on_c, 11, 68, 0
13, 12690, Note_on_c, 11, 66, 115
13, 12719, Note_on_c, 11, 66, 0
13, 12720, Note_on_c, 11, 64, 115
13, 12749, Note_on_c, 11, 64, 0
13, 12750, Note_on_c, 11, 66, 115
13, 12779, Note_on_c, 11, 66, 0
13, 12780, Note_on_c, 11, 68, 115
13, 12809, Note_on_c, 11, 68, 0
13, 12810, Note_on_c, 11, 69, 115
13, 12839, Note_on_c, 11, 69, 0
13, 12840, Note_on_c, 11, 71, 115
13, 12899, Note_on_c, 11, 71, 0
13, 12900, Note_on_c, 11, 71, 115
13, 12959, Note_on_c, 11, 71, 0
13, 12960, Note_on_c, 11, 71, 115
13, 13019, Note_on_c, 11, 71, 0
13, 13020, Note_on_c, 11, 69, 115
13, 13049, Note_on_c, 11, 69, 0
13, 13050, Note_on_c, 11, 68, 115
13, 13079, Note_on_c, 11, 68, 0
13, 13080, Note_on_c, 11, 69, 115
13, 13109, Note_on_c, 11, 69, 0
13, 13110, Note_on_c, 11, 71, 115
13, 13139, Note_on_c, 11, 71, 0
13, 13140, Note_on_c, 11, 73, 115
13, 13199, Note_on_c, 11, 73, 0
13, 13200, Note_on_c, 11, 73, 115
13, 13379, Note_on_c, 11, 73, 0
13, 13380, Note_on_c, 11, 71, 115
13, 13409, Note_on_c, 11, 71, 0
13, 13410, Note_on_c, 11, 69, 115
13, 13439, Note_on_c, 11, 69, 0
13, 13440, Note_on_c, 11, 68, 115
13, 13499, Note_on_c, 11, 68, 0
13, 13500, Note_on_c, 11, 69, 115
13, 13559, Note_on_c, 11, 69, 0
13, 13560, Note_on_c, 11, 71, 115
13, 13619, Note_on_c, 11, 71, 0
13, 13620, Note_on_c, 11, 69, 115
13, 13679, Note_on_c, 11, 69, 0
13, 13680, Note_on_c, 11, 68, 115
13, 13739, Note_on_c, 11, 68, 0
13, 13740, Note_on_c, 11, 71, 115
13, 13859, Note_on_c, 11, 71, 0
13, 13860, Note_on_c, 11, 68, 115
13, 13919, Note_on_c, 11, 68, 0
13, 13920, Note_on_c, 11, 64, 115
13, 13979, Note_on_c, 11, 64, 0
13, 13980, Note_on_c, 11, 68, 115
13, 14039, Note_on_c, 11, 68, 0
13, 14040, Note_on_c, 11, 69, 115
13, 14099, Note_on_c, 11, 69, 0
13, 14100, Note_on_c, 11, 69, 115
13, 14219, Note_on_c, 11, 69, 0
13, 14220, Note_on_c, 11, 64, 115
13, 14279, Note_on_c, 11, 64, 0
13, 14280, Note_on_c, 11, 71, 115
13, 14339, Note_on_c, 11, 71, 0
13, 14340, Note_on_c, 11, 71, 115
13, 14399, Note_on_c, 11, 71, 0
13, 14400, Note_on_c, 11, 71, 115
13, 14459, Note_on_c, 11, 71, 0
13, 14460, Note_on_c, 11, 71, 115
13, 14579, Note_on_c, 11, 71, 0
13, 14580, Note_on_c, 11, 66, 115
13, 14639, Note_on_c, 11, 66, 0
13, 14640, Note_on_c, 11, 66, 115
13, 14699, Note_on_c, 11, 66, 0
13, 14700, Note_on_c, 11, 71, 115
13, 14759, Note_on_c, 11, 71, 0
13, 14760, Note_on_c, 11, 71, 115
13, 15180, Note_on_c, 11, 71, 0
13, 15180, Note_on_c, 11, 64, 115
13, 15299, Note_on_c, 11, 64, 0
13, 15300, Note_on_c, 11, 69, 115
13, 15359, Note_on_c, 11, 69, 0
13, 15360, Note_on_c, 11, 69, 115
13, 15419, Note_on_c, 11, 69, 0
13, 15420, Note_on_c, 11, 73, 115
13, 15479, Note_on_c, 11, 73, 0
13, 15480, Note_on_c, 11, 66, 115
13, 15899, Note_on_c, 11, 66, 0
13, 15900, Note_on_c, 11, 63, 115
13, 16019, Note_on_c, 11, 63, 0
13, 16020, Note_on_c, 11, 66, 115
13, 16079, Note_on_c, 11, 66, 0
13, 16080, Note_on_c, 11, 66, 115
13, 16139, Note_on_c, 11, 66, 0
13, 16140, Note_on_c, 11, 69, 115
13, 16199, Note_on_c, 11, 69, 0
13, 16200, Note_on_c, 11, 59, 115
13, 16619, Note_on_c, 11, 59, 0
13, 16620, Note_on_c, 11, 68, 115
13, 16739, Note_on_c, 11, 68, 0
13, 16740, Note_on_c, 11, 71, 115
13, 16859, Note_on_c, 11, 71, 0
13, 16860, Note_on_c, 11, 69, 115
13, 16889, Note_on_c, 11, 69, 0
13, 16890, Note_on_c, 11, 68, 115
13, 16919, Note_on_c, 11, 68, 0
13, 16920, Note_on_c, 11, 69, 115
13, 16979, Note_on_c, 11, 69, 0
13, 16980, Note_on_c, 11, 64, 115
13, 17099, Note_on_c, 11, 64, 0
13, 17100, Note_on_c, 11, 69, 115
13, 17219, Note_on_c, 11, 69, 0
13, 17220, Note_on_c, 11, 68, 115
13, 17249, Note_on_c, 11, 68, 0
13, 17250, Note_on_c, 11, 66, 115
13, 17279, Note_on_c, 11, 66, 0
13, 17280, Note_on_c, 11, 68, 115
13, 17339, Note_on_c, 11, 68, 0
13, 17340, Note_on_c, 11, 64, 115
13, 17459, Note_on_c, 11, 64, 0
13, 17460, Note_on_c, 11, 68, 115
13, 17579, Note_on_c, 11, 68, 0
13, 17580, Note_on_c, 11, 66, 115
13, 17609, Note_on_c, 11, 66, 0
13, 17610, Note_on_c, 11, 64, 115
13, 17639, Note_on_c, 11, 64, 0
13, 17640, Note_on_c, 11, 66, 115
13, 17699, Note_on_c, 11, 66, 0
13, 17700, Note_on_c, 11, 63, 115
13, 17819, Note_on_c, 11, 63, 0
13, 17820, Note_on_c, 11, 66, 115
13, 17939, Note_on_c, 11, 66, 0
13, 17940, Note_on_c, 11, 64, 115
13, 17969, Note_on_c, 11, 64, 0
13, 17970, Note_on_c, 11, 63, 115
13, 17999, Note_on_c, 11, 63, 0
13, 18000, Note_on_c, 11, 64, 115
13, 18419, Note_on_c, 11, 64, 0
13, 18420, Note_on_c, 11, 66, 115
13, 18479, Note_on_c, 11, 66, 0
13, 18480, Note_on_c, 11, 59, 115
13, 18779, Note_on_c, 11, 59, 0
13, 18780, Note_on_c, 11, 69, 115
13, 18839, Note_on_c, 11, 69, 0
13, 18840, Note_on_c, 11, 68, 115
13, 18869, Note_on_c, 11, 68, 0
13, 18870, Note_on_c, 11, 66, 115
13, 18899, Note_on_c, 11, 66, 0
13, 18900, Note_on_c, 11, 64, 115
13, 19019, Note_on_c, 11, 64, 0
13, 19020, Note_on_c, 11, 63, 115
13, 19079, Note_on_c, 11, 63, 0
13, 19080, Note_on_c, 11, 64, 115
13, 19199, Note_on_c, 11, 64, 0
13, 20580, Note_on_c, 11, 64, 115
13, 20609, Note_on_c, 11, 64, 0
13, 20610, Note_on_c, 11, 66, 115
13, 20639, Note_on_c, 11, 66, 0
13, 20640, Note_on_c, 11, 68, 115
13, 20699, Note_on_c, 11, 68, 0
13, 20700, Note_on_c, 11, 69, 115
13, 20729, Note_on_c, 11, 69, 0
13, 20730, Note_on_c, 11, 66, 115
13, 20759, Note_on_c, 11, 66, 0
13, 20760, Note_on_c, 11, 68, 115
13, 20819, Note_on_c, 11, 68, 0
13, 20820, Note_on_c, 11, 64, 115
13, 20879, Note_on_c, 11, 64, 0
13, 20880, Note_on_c, 11, 69, 115
13, 20939, Note_on_c, 11, 69, 0
13, 20940, Note_on_c, 11, 68, 115
13, 20999, Note_on_c, 11, 68, 0
13, 21000, Note_on_c, 11, 69, 115
13, 21059, Note_on_c, 11, 69, 0
13, 21060, Note_on_c, 11, 69, 115
13, 21179, Note_on_c, 11, 69, 0
13, 21180, Note_on_c, 11, 68, 115
13, 21209, Note_on_c, 11, 68, 0
13, 21210, Note_on_c, 11, 69, 115
13, 21239, Note_on_c, 11, 69, 0
13, 21240, Note_on_c, 11, 71, 115
13, 21299, Note_on_c, 11, 71, 0
13, 21300, Note_on_c, 11, 68, 115
13, 21359, Note_on_c, 11, 68, 0
13, 21360, Note_on_c, 11, 68, 115
13, 21419, Note_on_c, 11, 68, 0
13, 21420, Note_on_c, 11, 71, 115
13, 21449, Note_on_c, 11, 71, 0
13, 21450, Note_on_c, 11, 69, 115
13, 21479, Note_on_c, 11, 69, 0
13, 21480, Note_on_c, 11, 71, 115
13, 21539, Note_on_c, 11, 71, 0
13, 21540, Note_on_c, 11, 68, 115
13, 21599, Note_on_c, 11, 68, 0
13, 21600, Note_on_c, 11, 69, 115
13, 21719, Note_on_c, 11, 69, 0
13, 21720, Note_on_c, 11, 64, 115
13, 21779, Note_on_c, 11, 64, 0
13, 23100, Note_on_c, 11, 61, 115
13, 23129, Note_on_c, 11, 61, 0
13, 23130, Note_on_c, 11, 62, 115
13, 23159, Note_on_c, 11, 62, 0
13, 23160, Note_on_c, 11, 64, 115
13, 23219, Note_on_c, 11, 64, 0
13, 23220, Note_on_c, 11, 66, 115
13, 23249, Note_on_c, 11, 66, 0
13, 23250, Note_on_c, 11, 68, 115
13, 23279, Note_on_c, 11, 68, 0
13, 23280, Note_on_c, 11, 69, 115
13, 23820, Note_on_c, 11, 69, 0
13, 23820, Note_on_c, 11, 64, 115
13, 23879, Note_on_c, 11, 64, 0
13, 23880, Note_on_c, 11, 67, 115
13, 23909, Note_on_c, 11, 67, 0
13, 23910, Note_on_c, 11, 66, 115
13, 23939, Note_on_c, 11, 66, 0
13, 23940, Note_on_c, 11, 67, 115
13, 24059, Note_on_c, 11, 67, 0
13, 24060, Note_on_c, 11, 67, 115
13, 24119, Note_on_c, 11, 67, 0
13, 24120, Note_on_c, 11, 66, 115
13, 24179, Note_on_c, 11, 66, 0
13, 24540, Note_on_c, 11, 64, 115
13, 24569, Note_on_c, 11, 64, 0
13, 24570, Note_on_c, 11, 66, 115
13, 24599, Note_on_c, 11, 66, 0
13, 24600, Note_on_c, 11, 68, 115
13, 24659, Note_on_c, 11, 68, 0
13, 24660, Note_on_c, 11, 68, 115
13, 24719, Note_on_c, 11, 68, 0
13, 24720, Note_on_c, 11, 68, 115
13, 24749, Note_on_c, 11, 68, 0
13, 24750, Note_on_c, 11, 66, 115
13, 24779, Note_on_c, 11, 66, 0
13, 24780, Note_on_c, 11, 68, 115
13, 24839, Note_on_c, 11, 68, 0
13, 24840, Note_on_c, 11, 69, 115
13, 24899, Note_on_c, 11, 69, 0
13, 25260, Note_on_c, 11, 66, 115
13, 25289, Note_on_c, 11, 66, 0
13, 25290, Note_on_c, 11, 68, 115
13, 25319, Note_on_c, 11, 68, 0
13, 25320, Note_on_c, 11, 69, 115
13, 25379, Note_on_c, 11, 69, 0
13, 25380, Note_on_c, 11, 69, 115
13, 25439, Note_on_c, 11, 69, 0
13, 25440, Note_on_c, 11, 69, 115
13, 25469, Note_on_c, 11, 69, 0
13, 25470, Note_on_c, 11, 68, 115
13, 25499, Note_on_c, 11, 68, 0
13, 25500, Note_on_c, 11, 69, 115
13, 25559, Note_on_c, 11, 69, 0
13, 25560, Note_on_c, 11, 62, 115
13, 25619, Note_on_c, 11, 62, 0
13, 25620, Note_on_c, 11, 62, 115
13, 25649, Note_on_c, 11, 62, 0
13, 25650, Note_on_c, 11, 64, 115
13, 25679, Note_on_c, 11, 64, 0
13, 25680, Note_on_c, 11, 66, 115
13, 25739, Note_on_c, 11, 66, 0
13, 25740, Note_on_c, 11, 66, 115
13, 25799, Note_on_c, 11, 66, 0
13, 25800, Note_on_c, 11, 66, 115
13, 25859, Note_on_c, 11, 66, 0
13, 25860, Note_on_c, 11, 66, 115
13, 25919, Note_on_c, 11, 66, 0
13, 25920, Note_on_c, 11, 64, 115
13, 25979, Note_on_c, 11, 64, 0
13, 25980, Note_on_c, 11, 68, 115
13, 26009, Note_on_c, 11, 68, 0
13, 26010, Note_on_c, 11, 69, 115
13, 26039, Note_on_c, 11, 69, 0
13, 26040, Note_on_c, 11, 71, 115
13, 26099, Note_on_c, 11, 71, 0
13, 26100, Note_on_c, 11, 71, 115
13, 26159, Note_on_c, 11, 71, 0
13, 26160, Note_on_c, 11, 71, 115
13, 26219, Note_on_c, 11, 71, 0
13, 26220, Note_on_c, 11, 71, 115
13, 26279, Note_on_c, 11, 71, 0
13, 26280, Note_on_c, 11, 71, 115
13, 26339, Note_on_c, 11, 71, 0
13, 26340, Note_on_c, 11, 69, 115
13, 26459, Note_on_c, 11, 69, 0
13, 26460, Note_on_c, 11, 68, 115
13, 26519, Note_on_c, 11, 68, 0
13, 26520, Note_on_c, 11, 69, 115
13, 26579, Note_on_c, 11, 69, 0
13, 26580, Note_on_c, 11, 69, 115
13, 26639, Note_on_c, 11, 69, 0
13, 26640, Note_on_c, 11, 69, 115
13, 26699, Note_on_c, 11, 69, 0
13, 26700, Note_on_c, 11, 68, 115
13, 26759, Note_on_c, 11, 68, 0
13, 26760, Note_on_c, 11, 68, 115
13, 26819, Note_on_c, 11, 68, 0
13, 28980, Note_on_c, 11, 69, 115
13, 29099, Note_on_c, 11, 69, 0
13, 29100, Note_on_c, 11, 66, 115
13, 29159, Note_on_c, 11, 66, 0
13, 29160, Note_on_c, 11, 62, 115
13, 29219, Note_on_c, 11, 62, 0
13, 29220, Note_on_c, 11, 64, 115
13, 29249, Note_on_c, 11, 64, 0
13, 29250, Note_on_c, 11, 66, 115
13, 29279, Note_on_c, 11, 66, 0
13, 29280, Note_on_c, 11, 67, 115
13, 29309, Note_on_c, 11, 67, 0
13, 29310, Note_on_c, 11, 69, 115
13, 29339, Note_on_c, 11, 69, 0
13, 29340, Note_on_c, 11, 71, 115
13, 29399, Note_on_c, 11, 71, 0
13, 29400, Note_on_c, 11, 69, 115
13, 29459, Note_on_c, 11, 69, 0
13, 29460, Note_on_c, 11, 67, 115
13, 29489, Note_on_c, 11, 67, 0
13, 29490, Note_on_c, 11, 66, 115
13, 29519, Note_on_c, 11, 66, 0
13, 29520, Note_on_c, 11, 64, 115
13, 29579, Note_on_c, 11, 64, 0
13, 29580, Note_on_c, 11, 61, 115
13, 29609, Note_on_c, 11, 61, 0
13, 29610, Note_on_c, 11, 62, 115
13, 29639, Note_on_c, 11, 62, 0
13, 29640, Note_on_c, 11, 64, 115
13, 29669, Note_on_c, 11, 64, 0
13, 29670, Note_on_c, 11, 66, 115
13, 29699, Note_on_c, 11, 66, 0
13, 29700, Note_on_c, 11, 67, 115
13, 29759, Note_on_c, 11, 67, 0
13, 29760, Note_on_c, 11, 67, 115
13, 29939, Note_on_c, 11, 67, 0
13, 29940, Note_on_c, 11, 66, 115
13, 29969, Note_on_c, 11, 66, 0
13, 29970, Note_on_c, 11, 64, 115
13, 29999, Note_on_c, 11, 64, 0
13, 30000, Note_on_c, 11, 66, 115
13, 30029, Note_on_c, 11, 66, 0
13, 30030, Note_on_c, 11, 68, 115
13, 30059, Note_on_c, 11, 68, 0
13, 30060, Note_on_c, 11, 69, 115
13, 30119, Note_on_c, 11, 69, 0
13, 30120, Note_on_c, 11, 71, 115
13, 30179, Note_on_c, 11, 71, 0
13, 30180, Note_on_c, 11, 69, 115
13, 30239, Note_on_c, 11, 69, 0
13, 30240, Note_on_c, 11, 68, 115
13, 30299, Note_on_c, 11, 68, 0
13, 30300, Note_on_c, 11, 71, 115
13, 30419, Note_on_c, 11, 71, 0
13, 30420, Note_on_c, 11, 68, 115
13, 30479, Note_on_c, 11, 68, 0
13, 30480, Note_on_c, 11, 64, 115
13, 30539, Note_on_c, 11, 64, 0
13, 30540, Note_on_c, 11, 68, 115
13, 30599, Note_on_c, 11, 68, 0
13, 30600, Note_on_c, 11, 69, 115
13, 31380, Note_on_c, 11, 69, 0
13, 31380, Note_on_c, 11, 63, 115
13, 31499, Note_on_c, 11, 63, 0
13, 31500, Note_on_c, 11, 66, 115
13, 31559, Note_on_c, 11, 66, 0
13, 31560, Note_on_c, 11, 66, 115
13, 31619, Note_on_c, 11, 66, 0
13, 31620, Note_on_c, 11, 69, 115
13, 31679, Note_on_c, 11, 69, 0
13, 31680, Note_on_c, 11, 68, 115
13, 32099, Note_on_c, 11, 68, 0
13, 32100, Note_on_c, 11, 59, 115
13, 32219, Note_on_c, 11, 59, 0
13, 32220, Note_on_c, 11, 64, 115
13, 32279, Note_on_c, 11, 64, 0
13, 32280, Note_on_c, 11, 64, 115
13, 32339, Note_on_c, 11, 64, 0
13, 32340, Note_on_c, 11, 68, 115
13, 32399, Note_on_c, 11, 68, 0
13, 32400, Note_on_c, 11, 69, 115
13, 32459, Note_on_c, 11, 69, 0
13, 32460, Note_on_c, 11, 64, 115
13, 32579, Note_on_c, 11, 64, 0
13, 32580, Note_on_c, 11, 67, 115
13, 32699, Note_on_c, 11, 67, 0
13, 32700, Note_on_c, 11, 66, 115
13, 32729, Note_on_c, 11, 66, 0
13, 32730, Note_on_c, 11, 64, 115
13, 32759, Note_on_c, 11, 64, 0
13, 32760, Note_on_c, 11, 66, 115
13, 32819, Note_on_c, 11, 66, 0
13, 32820, Note_on_c, 11, 62, 115
13, 32939, Note_on_c, 11, 62, 0
13, 32940, Note_on_c, 11, 66, 115
13, 33059, Note_on_c, 11, 66, 0
13, 33060, Note_on_c, 11, 64, 115
13, 33089, Note_on_c, 11, 64, 0
13, 33090, Note_on_c, 11, 62, 115
13, 33119, Note_on_c, 11, 62, 0
13, 33120, Note_on_c, 11, 64, 115
13, 33179, Note_on_c, 11, 64, 0
13, 33180, Note_on_c, 11, 61, 115
13, 33299, Note_on_c, 11, 61, 0
13, 33300, Note_on_c, 11, 64, 115
13, 33419, Note_on_c, 11, 64, 0
13, 33420, Note_on_c, 11, 62, 115
13, 33449, Note_on_c, 11, 62, 0
13, 33450, Note_on_c, 11, 61, 115
13, 33479, Note_on_c, 11, 61, 0
13, 33480, Note_on_c, 11, 62, 115
13, 33539, Note_on_c, 11, 62, 0
13, 33540, Note_on_c, 11, 59, 115
13, 33659, Note_on_c, 11, 59, 0
13, 33660, Note_on_c, 11, 62, 115
13, 33779, Note_on_c, 11, 62, 0
13, 33780, Note_on_c, 11, 61, 115
13, 33809, Note_on_c, 11, 61, 0
13, 33810, Note_on_c, 11, 59, 115
13, 33839, Note_on_c, 11, 59, 0
13, 33840, Note_on_c, 11, 61, 115
13, 33899, Note_on_c, 11, 61, 0
13, 33960, Note_on_c, 11, 62, 115
13, 34019, Note_on_c, 11, 62, 0
13, 34080, Note_on_c, 11, 64, 115
13, 34139, Note_on_c, 11, 64, 0
13, 34200, Note_on_c, 11, 66, 115
13, 34259, Note_on_c, 11, 66, 0
13, 34260, Note_on_c, 11, 64, 115
13, 34289, Note_on_c, 11, 64, 0
13, 34290, Note_on_c, 11, 66, 115
13, 34319, Note_on_c, 11, 66, 0
13, 34320, Note_on_c, 11, 68, 115
13, 34379, Note_on_c, 11, 68, 0
13, 34380, Note_on_c, 11, 66, 115
13, 34409, Note_on_c, 11, 66, 0
13, 34410, Note_on_c, 11, 68, 115
13, 34439, Note_on_c, 11, 68, 0
13, 34440, Note_on_c, 11, 69, 115
13, 34499, Note_on_c, 11, 69, 0
13, 34500, Note_on_c, 11, 68, 115
13, 34529, Note_on_c, 11, 68, 0
13, 34530, Note_on_c, 11, 69, 115
13, 34559, Note_on_c, 11, 69, 0
13, 34560, Note_on_c, 11, 71, 115
13, 34619, Note_on_c, 11, 71, 0
13, 34620, Note_on_c, 11, 69, 115
13, 34650, Note_on_c, 11, 69, 0
13, 34650, Note_on_c, 11, 68, 115
13, 34680, Note_on_c, 11, 68, 0
13, 34680, Note_on_c, 11, 69, 115
13, 34739, Note_on_c, 11, 69, 0
13, 34740, Note_on_c, 11, 69, 115
13, 34799, Note_on_c, 11, 69, 0
13, 34800, Note_on_c, 11, 69, 115
13, 34859, Note_on_c, 11, 69, 0
13, 34860, Note_on_c, 11, 68, 115
13, 34919, Note_on_c, 11, 68, 0
13, 34920, Note_on_c, 11, 64, 115
13, 35040, Note_on_c, 11, 64, 0
13, 35100, Note_on_c, 11, 69, 115
13, 35159, Note_on_c, 11, 69, 0
13, 35160, Note_on_c, 11, 64, 115
13, 35219, Note_on_c, 11, 64, 0
13, 35220, Note_on_c, 11, 65, 115
13, 35279, Note_on_c, 11, 65, 0
13, 35280, Note_on_c, 11, 66, 115
13, 35339, Note_on_c, 11, 66, 0
13, 35340, Note_on_c, 11, 71, 115
13, 35399, Note_on_c, 11, 71, 0
13, 35400, Note_on_c, 11, 69, 115
13, 35459, Note_on_c, 11, 69, 0
13, 35460, Note_on_c, 11, 68, 115
13, 35519, Note_on_c, 11, 68, 0
13, 35520, Note_on_c, 11, 66, 115
13, 35549, Note_on_c, 11, 66, 0
13, 35550, Note_on_c, 11, 68, 115
13, 35579, Note_on_c, 11, 68, 0
13, 35580, Note_on_c, 11, 65, 115
13, 35639, Note_on_c, 11, 65, 0
13, 35640, Note_on_c, 11, 66, 115
13, 35759, Note_on_c, 11, 66, 0
13, 36540, Note_on_c, 11, 66, 115
13, 36659, Note_on_c, 11, 66, 0
13, 36660, Note_on_c, 11, 63, 115
13, 36719, Note_on_c, 11, 63, 0
13, 36720, Note_on_c, 11, 64, 115
13, 36779, Note_on_c, 11, 64, 0
13, 36780, Note_on_c, 11, 63, 115
13, 36809, Note_on_c, 11, 63, 0
13, 36810, Note_on_c, 11, 61, 115
13, 36839, Note_on_c, 11, 61, 0
13, 36840, Note_on_c, 11, 59, 115
13, 36899, Note_on_c, 11, 59, 0
13, 36900, Note_on_c, 11, 69, 115
13, 36959, Note_on_c, 11, 69, 0
13, 36960, Note_on_c, 11, 68, 115
13, 37019, Note_on_c, 11, 68, 0
13, 37020, Note_on_c, 11, 66, 115
13, 37079, Note_on_c, 11, 66, 0
13, 37080, Note_on_c, 11, 66, 115
13, 37199, Note_on_c, 11, 66, 0
13, 38040, Note_on_c, 11, 73, 115
13, 38099, Note_on_c, 11, 73, 0
13, 38100, Note_on_c, 11, 69, 115
13, 38159, Note_on_c, 11, 69, 0
13, 38160, Note_on_c, 11, 71, 115
13, 38339, Note_on_c, 11, 71, 0
13, 38340, Note_on_c, 11, 71, 115
13, 38369, Note_on_c, 11, 71, 0
13, 38370, Note_on_c, 11, 69, 115
13, 38399, Note_on_c, 11, 69, 0
13, 38400, Note_on_c, 11, 71, 115
13, 38459, Note_on_c, 11, 71, 0
13, 38460, Note_on_c, 11, 68, 115
13, 38519, Note_on_c, 11, 68, 0
13, 38520, Note_on_c, 11, 69, 115
13, 38699, Note_on_c, 11, 69, 0
13, 38700, Note_on_c, 11, 69, 115
13, 38729, Note_on_c, 11, 69, 0
13, 38730, Note_on_c, 11, 68, 115
13, 38759, Note_on_c, 11, 68, 0
13, 38760, Note_on_c, 11, 69, 115
13, 38819, Note_on_c, 11, 69, 0
13, 38820, Note_on_c, 11, 66, 115
13, 38879, Note_on_c, 11, 66, 0
13, 38880, Note_on_c, 11, 66, 115
13, 38939, Note_on_c, 11, 66, 0
13, 38940, Note_on_c, 11, 64, 115
13, 38999, Note_on_c, 11, 64, 0
13, 39000, Note_on_c, 11, 63, 115
13, 39059, Note_on_c, 11, 63, 0
13, 39060, Note_on_c, 11, 63, 115
13, 39089, Note_on_c, 11, 63, 0
13, 39090, Note_on_c, 11, 64, 115
13, 39119, Note_on_c, 11, 64, 0
13, 39120, Note_on_c, 11, 66, 115
13, 39179, Note_on_c, 11, 66, 0
13, 39180, Note_on_c, 11, 68, 115
13, 39239, Note_on_c, 11, 68, 0
13, 39240, Note_on_c, 11, 68, 115
13, 39300, Note_on_c, 11, 68, 0
13, 39300, Note_on_c, 11, 66, 115
13, 39359, Note_on_c, 11, 66, 0
13, 39360, Note_on_c, 11, 64, 115
13, 39419, Note_on_c, 11, 64, 0
13, 39420, Note_on_c, 11, 64, 115
13, 39479, Note_on_c, 11, 64, 0
13, 39480, Note_on_c, 11, 69, 115
13, 39539, Note_on_c, 11, 69, 0
13, 39540, Note_on_c, 11, 68, 115
13, 39570, Note_on_c, 11, 68, 0
13, 39570, Note_on_c, 11, 68, 115
13, 39600, Note_on_c, 11, 68, 0
13, 39600, Note_on_c, 11, 68, 115
13, 39719, Note_on_c, 11, 68, 0
13, 40380, Note_on_c, 11, 64, 115
13, 40499, Note_on_c, 11, 64, 0
13, 40500, Note_on_c, 11, 66, 115
13, 40559, Note_on_c, 11, 66, 0
13, 40560, Note_on_c, 11, 68, 115
13, 40739, Note_on_c, 11, 68, 0
13, 40740, Note_on_c, 11, 70, 115
13, 40769, Note_on_c, 11, 70, 0
13, 40770, Note_on_c, 11, 71, 115
13, 40799, Note_on_c, 11, 71, 0
13, 40800, Note_on_c, 11, 73, 115
13, 40859, Note_on_c, 11, 73, 0
13, 40860, Note_on_c, 11, 73, 115
13, 40919, Note_on_c, 11, 73, 0
13, 40920, Note_on_c, 11, 73, 115
13, 40979, Note_on_c, 11, 73, 0
13, 40980, Note_on_c, 11, 70, 115
13, 41039, Note_on_c, 11, 70, 0
13, 41040, Note_on_c, 11, 71, 115
13, 41159, Note_on_c, 11, 71, 0
13, 42000, Note_on_c, 11, 68, 115
13, 42059, Note_on_c, 11, 68, 0
13, 42060, Note_on_c, 11, 66, 115
13, 42119, Note_on_c, 11, 66, 0
13, 42120, Note_on_c, 11, 64, 115
13, 42299, Note_on_c, 11, 64, 0
13, 42300, Note_on_c, 11, 69, 115
13, 42359, Note_on_c, 11, 69, 0
13, 42360, Note_on_c, 11, 69, 115
13, 42419, Note_on_c, 11, 69, 0
13, 42420, Note_on_c, 11, 68, 115
13, 42479, Note_on_c, 11, 68, 0
13, 42480, Note_on_c, 11, 64, 115
13, 42599, Note_on_c, 11, 64, 0
13, 43440, Note_on_c, 11, 71, 115
13, 43499, Note_on_c, 11, 71, 0
13, 43500, Note_on_c, 11, 69, 115
13, 43559, Note_on_c, 11, 69, 0
13, 43560, Note_on_c, 11, 68, 115
13, 43739, Note_on_c, 11, 68, 0
13, 43740, Note_on_c, 11, 69, 115
13, 43769, Note_on_c, 11, 69, 0
13, 43770, Note_on_c, 11, 71, 115
13, 43799, Note_on_c, 11, 71, 0
13, 43800, Note_on_c, 11, 69, 115
13, 43859, Note_on_c, 11, 69, 0
13, 43860, Note_on_c, 11, 68, 115
13, 43919, Note_on_c, 11, 68, 0
13, 43920, Note_on_c, 11, 66, 115
13, 44099, Note_on_c, 11, 66, 0
13, 44100, Note_on_c, 11, 68, 115
13, 44129, Note_on_c, 11, 68, 0
13, 44130, Note_on_c, 11, 69, 115
13, 44159, Note_on_c, 11, 69, 0
13, 44160, Note_on_c, 11, 68, 115
13, 44219, Note_on_c, 11, 68, 0
13, 44220, Note_on_c, 11, 66, 115
13, 44279, Note_on_c, 11, 66, 0
13, 44280, Note_on_c, 11, 65, 115
13, 44339, Note_on_c, 11, 65, 0
13, 44340, Note_on_c, 11, 66, 115
13, 44399, Note_on_c, 11, 66, 0
13, 44400, Note_on_c, 11, 68, 115
13, 44459, Note_on_c, 11, 68, 0
13, 44460, Note_on_c, 11, 65, 115
13, 44519, Note_on_c, 11, 65, 0
13, 44520, Note_on_c, 11, 66, 115
13, 44579, Note_on_c, 11, 66, 0
13, 44580, Note_on_c, 11, 68, 115
13, 44639, Note_on_c, 11, 68, 0
13, 44640, Note_on_c, 11, 68, 115
13, 44699, Note_on_c, 11, 68, 0
13, 44700, Note_on_c, 11, 66, 115
13, 44729, Note_on_c, 11, 66, 0
13, 44730, Note_on_c, 11, 65, 115
13, 44759, Note_on_c, 11, 65, 0
13, 44760, Note_on_c, 11, 66, 115
13, 44819, Note_on_c, 11, 66, 0
13, 44820, Note_on_c, 11, 66, 115
13, 44879, Note_on_c, 11, 66, 0
13, 44880, Note_on_c, 11, 62, 115
13, 44939, Note_on_c, 11, 62, 0
13, 44940, Note_on_c, 11, 61, 115
13, 44969, Note_on_c, 11, 61, 0
13, 44970, Note_on_c, 11, 61, 115
13, 44999, Note_on_c, 11, 61, 0
13, 45000, Note_on_c, 11, 61, 115
13, 45119, Note_on_c, 11, 61, 0
13, 51540, Note_on_c, 11, 69, 115
13, 51570, Note_on_c, 11, 69, 0
13, 51570, Note_on_c, 11, 71, 115
13, 51600, Note_on_c, 11, 71, 0
13, 51600, Note_on_c, 11, 73, 115
13, 51660, Note_on_c, 11, 73, 0
13, 51660, Note_on_c, 11, 73, 115
13, 51720, Note_on_c, 11, 73, 0
13, 51720, Note_on_c, 11, 74, 115
13, 51750, Note_on_c, 11, 74, 0
13, 51750, Note_on_c, 11, 73, 115
13, 51780, Note_on_c, 11, 73, 0
13, 51780, Note_on_c, 11, 74, 115
13, 51840, Note_on_c, 11, 74, 0
13, 51840, Note_on_c, 11, 73, 115
13, 51900, Note_on_c, 11, 73, 0
13, 52200, Note_on_c, 11, 69, 115
13, 52260, Note_on_c, 11, 69, 0
13, 52260, Note_on_c, 11, 69, 115
13, 52320, Note_on_c, 11, 69, 0
13, 52320, Note_on_c, 11, 73, 115
13, 52380, Note_on_c, 11, 73, 0
13, 52380, Note_on_c, 11, 69, 115
13, 52440, Note_on_c, 11, 69, 0
13, 52440, Note_on_c, 11, 68, 115
13, 52500, Note_on_c, 11, 68, 0
13, 52500, Note_on_c, 11, 68, 115
13, 52560, Note_on_c, 11, 68, 0
13, 52560, Note_on_c, 11, 69, 115
13, 52680, Note_on_c, 11, 69, 0
13, 52680, Note_on_c, 11, 64, 115
13, 52740, Note_on_c, 11, 64, 0
13, 52980, Note_on_c, 11, 64, 115
13, 53010, Note_on_c, 11, 64, 0
13, 53010, Note_on_c, 11, 66, 115
13, 53040, Note_on_c, 11, 66, 0
13, 53040, Note_on_c, 11, 68, 115
13, 53100, Note_on_c, 11, 68, 0
13, 53100, Note_on_c, 11, 68, 115
13, 53160, Note_on_c, 11, 68, 0
13, 53160, Note_on_c, 11, 69, 115
13, 53190, Note_on_c, 11, 69, 0
13, 53190, Note_on_c, 11, 68, 115
13, 53220, Note_on_c, 11, 68, 0
13, 53220, Note_on_c, 11, 69, 115
13, 53280, Note_on_c, 11, 69, 0
13, 53280, Note_on_c, 11, 68, 115
13, 53340, Note_on_c, 11, 68, 0
13, 53340, Note_on_c, 11, 68, 115
13, 53370, Note_on_c, 11, 68, 0
13, 53370, Note_on_c, 11, 66, 115
13, 53400, Note_on_c, 11, 66, 0
13, 53400, Note_on_c, 11, 64, 115
13, 53460, Note_on_c, 11, 64, 0
13, 53460, Note_on_c, 11, 71, 115
13, 53520, Note_on_c, 11, 71, 0
13, 53520, Note_on_c, 11, 71, 115
13, 53580, Note_on_c, 11, 71, 0
13, 53580, Note_on_c, 11, 69, 115
13, 53640, Note_on_c, 11, 69, 0
13, 53640, Note_on_c, 11, 68, 115
13, 53700, Note_on_c, 11, 68, 0
13, 54000, Note_on_c, 11, 68, 115
13, 54060, Note_on_c, 11, 68, 0
13, 54060, Note_on_c, 11, 68, 115
13, 54120, Note_on_c, 11, 68, 0
13, 54120, Note_on_c, 11, 68, 115
13, 54180, Note_on_c, 11, 68, 0
13, 54180, Note_on_c, 11, 68, 115
13, 54240, Note_on_c, 11, 68, 0
13, 54240, Note_on_c, 11, 66, 115
13, 54300, Note_on_c, 11, 66, 0
13, 54300, Note_on_c, 11, 66, 115
13, 54360, Note_on_c, 11, 66, 0
13, 54360, Note_on_c, 11, 68, 115
13, 54420, Note_on_c, 11, 68, 0
13, 54420, Note_on_c, 11, 68, 115
13, 54450, Note_on_c, 11, 68, 0
13, 54450, Note_on_c, 11, 66, 115
13, 54480, Note_on_c, 11, 66, 0
13, 54480, Note_on_c, 11, 64, 115
13, 54540, Note_on_c, 11, 64, 0
13, 55140, Note_on_c, 11, 64, 115
13, 55170, Note_on_c, 11, 64, 0
13, 55170, Note_on_c, 11, 66, 115
13, 55200, Note_on_c, 11, 66, 0
13, 55200, Note_on_c, 11, 68, 115
13, 55260, Note_on_c, 11, 68, 0
13, 55260, Note_on_c, 11, 68, 115
13, 55320, Note_on_c, 11, 68, 0
13, 55320, Note_on_c, 11, 69, 115
13, 55350, Note_on_c, 11, 69, 0
13, 55350, Note_on_c, 11, 68, 115
13, 55380, Note_on_c, 11, 68, 0
13, 55380, Note_on_c, 11, 69, 115
13, 55440, Note_on_c, 11, 69, 0
13, 55440, Note_on_c, 11, 71, 115
13, 55500, Note_on_c, 11, 71, 0
13, 55800, Note_on_c, 11, 73, 115
13, 55860, Note_on_c, 11, 73, 0
13, 55860, Note_on_c, 11, 73, 115
13, 55920, Note_on_c, 11, 73, 0
13, 55920, Note_on_c, 11, 69, 115
13, 55980, Note_on_c, 11, 69, 0
13, 55980, Note_on_c, 11, 69, 115
13, 56040, Note_on_c, 11, 69, 0
13, 56040, Note_on_c, 11, 68, 115
13, 56100, Note_on_c, 11, 68, 0
13, 56100, Note_on_c, 11, 68, 115
13, 56160, Note_on_c, 11, 68, 0
13, 56160, Note_on_c, 11, 69, 115
13, 56280, Note_on_c, 11, 69, 0
13, 56280, Note_on_c, 11, 64, 115
13, 56340, Note_on_c, 11, 64, 0
13, 57060, Note_on_c, 11, 71, 115
13, 57180, Note_on_c, 11, 71, 0
13, 57180, Note_on_c, 11, 68, 115
13, 57240, Note_on_c, 11, 68, 0
13, 57240, Note_on_c, 11, 64, 115
13, 57300, Note_on_c, 11, 64, 0
13, 57300, Note_on_c, 11, 66, 115
13, 57330, Note_on_c, 11, 66, 0
13, 57330, Note_on_c, 11, 68, 115
13, 57360, Note_on_c, 11, 68, 0
13, 57360, Note_on_c, 11, 69, 115
13, 57390, Note_on_c, 11, 69, 0
13, 57390, Note_on_c, 11, 71, 115
13, 57420, Note_on_c, 11, 71, 0
13, 57420, Note_on_c, 11, 73, 115
13, 57480, Note_on_c, 11, 73, 0
13, 57480, Note_on_c, 11, 71, 115
13, 57540, Note_on_c, 11, 71, 0
13, 57540, Note_on_c, 11, 69, 115
13, 57570, Note_on_c, 11, 69, 0
13, 57570, Note_on_c, 11, 68, 115
13, 57600, Note_on_c, 11, 68, 0
13, 57600, Note_on_c, 11, 66, 115
13, 57659, Note_on_c, 11, 66, 0
13, 57660, Note_on_c, 11, 63, 115
13, 57689, Note_on_c, 11, 63, 0
13, 57690, Note_on_c, 11, 64, 115
13, 57719, Note_on_c, 11, 64, 0
13, 57720, Note_on_c, 11, 66, 115
13, 57749, Note_on_c, 11, 66, 0
13, 57750, Note_on_c, 11, 68, 115
13, 57779, Note_on_c, 11, 68, 0
13, 57780, Note_on_c, 11, 69, 115
13, 57839, Note_on_c, 11, 69, 0
13, 57840, Note_on_c, 11, 69, 115
13, 58019, Note_on_c, 11, 69, 0
13, 58020, Note_on_c, 11, 68, 115
13, 58049, Note_on_c, 11, 68, 0
13, 58050, Note_on_c, 11, 66, 115
13, 58079, Note_on_c, 11, 66, 0
13, 58080, Note_on_c, 11, 64, 115
13, 58109, Note_on_c, 11, 64, 0
13, 58110, Note_on_c, 11, 66, 115
13, 58139, Note_on_c, 11, 66, 0
13, 58140, Note_on_c, 11, 68, 115
13, 58169, Note_on_c, 11, 68, 0
13, 58170, Note_on_c, 11, 69, 115
13, 58199, Note_on_c, 11, 69, 0
13, 58200, Note_on_c, 11, 71, 115
13, 58259, Note_on_c, 11, 71, 0
13, 58260, Note_on_c, 11, 71, 115
13, 58319, Note_on_c, 11, 71, 0
13, 58320, Note_on_c, 11, 71, 115
13, 58379, Note_on_c, 11, 71, 0
13, 58380, Note_on_c, 11, 69, 115
13, 58409, Note_on_c, 11, 69, 0
13, 58410, Note_on_c, 11, 68, 115
13, 58439, Note_on_c, 11, 68, 0
13, 58440, Note_on_c, 11, 69, 115
13, 58469, Note_on_c, 11, 69, 0
13, 58470, Note_on_c, 11, 71, 115
13, 58499, Note_on_c, 11, 71, 0
13, 58500, Note_on_c, 11, 73, 115
13, 58559, Note_on_c, 11, 73, 0
13, 58560, Note_on_c, 11, 73, 115
13, 58739, Note_on_c, 11, 73, 0
13, 58740, Note_on_c, 11, 71, 115
13, 58769, Note_on_c, 11, 71, 0
13, 58770, Note_on_c, 11, 69, 115
13, 58799, Note_on_c, 11, 69, 0
13, 58800, Note_on_c, 11, 68, 115
13, 58859, Note_on_c, 11, 68, 0
13, 58860, Note_on_c, 11, 69, 115
13, 58919, Note_on_c, 11, 69, 0
13, 58920, Note_on_c, 11, 71, 115
13, 58979, Note_on_c, 11, 71, 0
13, 58980, Note_on_c, 11, 69, 115
13, 59039, Note_on_c, 11, 69, 0
13, 59040, Note_on_c, 11, 68, 115
13, 59099, Note_on_c, 11, 68, 0
13, 59100, Note_on_c, 11, 71, 115
13, 59219, Note_on_c, 11, 71, 0
13, 59220, Note_on_c, 11, 68, 115
13, 59279, Note_on_c, 11, 68, 0
13, 59280, Note_on_c, 11, 64, 115
13, 59339, Note_on_c, 11, 64, 0
13, 59340, Note_on_c, 11, 68, 115
13, 59399, Note_on_c, 11, 68, 0
13, 59400, Note_on_c, 11, 69, 115
13, 59459, Note_on_c, 11, 69, 0
13, 59460, Note_on_c, 11, 69, 115
13, 59579, Note_on_c, 11, 69, 0
13, 59580, Note_on_c, 11, 64, 115
13, 59639, Note_on_c, 11, 64, 0
13, 59640, Note_on_c, 11, 71, 115
13, 59699, Note_on_c, 11, 71, 0
13, 59700, Note_on_c, 11, 71, 115
13, 59759, Note_on_c, 11, 71, 0
13, 59760, Note_on_c, 11, 71, 115
13, 59819, Note_on_c, 11, 71, 0
13, 59820, Note_on_c, 11, 71, 115
13, 59939, Note_on_c, 11, 71, 0
13, 59940, Note_on_c, 11, 66, 115
13, 59999, Note_on_c, 11, 66, 0
13, 60000, Note_on_c, 11, 66, 115
13, 60059, Note_on_c, 11, 66, 0
13, 60060, Note_on_c, 11, 71, 115
13, 60119, Note_on_c, 11, 71, 0
13, 60120, Note_on_c, 11, 71, 115
13, 60540, Note_on_c, 11, 71, 0
13, 60540, Note_on_c, 11, 64, 115
13, 60659, Note_on_c, 11, 64, 0
13, 60660, Note_on_c, 11, 69, 115
13, 60719, Note_on_c, 11, 69, 0
13, 60720, Note_on_c, 11, 69, 115
13, 60779, Note_on_c, 11, 69, 0
13, 60780, Note_on_c, 11, 73, 115
13, 60839, Note_on_c, 11, 73, 0
13, 60840, Note_on_c, 11, 66, 115
13, 61259, Note_on_c, 11, 66, 0
13, 61260, Note_on_c, 11, 63, 115
13, 61379, Note_on_c, 11, 63, 0
13, 61380, Note_on_c, 11, 66, 115
13, 61439, Note_on_c, 11, 66, 0
13, 61440, Note_on_c, 11, 66, 115
13, 61499, Note_on_c, 11, 66, 0
13, 61500, Note_on_c, 11, 69, 115
13, 61559, Note_on_c, 11, 69, 0
13, 61560, Note_on_c, 11, 59, 115
13, 61979, Note_on_c, 11, 59, 0
13, 61980, Note_on_c, 11, 68, 115
13, 62099, Note_on_c, 11, 68, 0
13, 62100, Note_on_c, 11, 71, 115
13, 62219, Note_on_c, 11, 71, 0
13, 62220, Note_on_c, 11, 69, 115
13, 62249, Note_on_c, 11, 69, 0
13, 62250, Note_on_c, 11, 68, 115
13, 62279, Note_on_c, 11, 68, 0
13, 62280, Note_on_c, 11, 69, 115
13, 62339, Note_on_c, 11, 69, 0
13, 62340, Note_on_c, 11, 64, 115
13, 62459, Note_on_c, 11, 64, 0
13, 62460, Note_on_c, 11, 69, 115
13, 62579, Note_on_c, 11, 69, 0
13, 62580, Note_on_c, 11, 68, 115
13, 62609, Note_on_c, 11, 68, 0
13, 62610, Note_on_c, 11, 66, 115
13, 62639, Note_on_c, 11, 66, 0
13, 62640, Note_on_c, 11, 68, 115
13, 62699, Note_on_c, 11, 68, 0
13, 62700, Note_on_c, 11, 64, 115
13, 62819, Note_on_c, 11, 64, 0
13, 62820, Note_on_c, 11, 68, 115
13, 62939, Note_on_c, 11, 68, 0
13, 62940, Note_on_c, 11, 66, 115
13, 62969, Note_on_c, 11, 66, 0
13, 62970, Note_on_c, 11, 64, 115
13, 62999, Note_on_c, 11, 64, 0
13, 63000, Note_on_c, 11, 66, 115
13, 63059, Note_on_c, 11, 66, 0
13, 63060, Note_on_c, 11, 63, 115
13, 63179, Note_on_c, 11, 63, 0
13, 63180, Note_on_c, 11, 66, 115
13, 63299, Note_on_c, 11, 66, 0
13, 63300, Note_on_c, 11, 64, 115
13, 63329, Note_on_c, 11, 64, 0
13, 63330, Note_on_c, 11, 63, 115
13, 63359, Note_on_c, 11, 63, 0
13, 63360, Note_on_c, 11, 64, 115
13, 63779, Note_on_c, 11, 64, 0
13, 63780, Note_on_c, 11, 66, 115
13, 63839, Note_on_c, 11, 66, 0
13, 63840, Note_on_c, 11, 59, 115
13, 64139, Note_on_c, 11, 59, 0
13, 64140, Note_on_c, 11, 69, 115
13, 64199, Note_on_c, 11, 69, 0
13, 64200, Note_on_c, 11, 68, 115
13, 64229, Note_on_c, 11, 68, 0
13, 64230, Note_on_c, 11, 66, 115
13, 64259, Note_on_c, 11, 66, 0
13, 64260, Note_on_c, 11, 64, 115
13, 64379, Note_on_c, 11, 64, 0
13, 64380, Note_on_c, 11, 63, 115
13, 64439, Note_on_c, 11, 63, 0
13, 64440, Note_on_c, 11, 64, 115
13, 64559, Note_on_c, 11, 64, 0
13, 65940, Note_on_c, 11, 64, 115
13, 65969, Note_on_c, 11, 64, 0
13, 65970, Note_on_c, 11, 66, 115
13, 65999, Note_on_c, 11, 66, 0
13, 66000, Note_on_c, 11, 68, 115
13, 66059, Note_on_c, 11, 68, 0
13, 66060, Note_on_c, 11, 69, 115
13, 66089, Note_on_c, 11, 69, 0
13, 66090, Note_on_c, 11, 66, 115
13, 66119, Note_on_c, 11, 66, 0
13, 66120, Note_on_c, 11, 68, 115
13, 66179, Note_on_c, 11, 68, 0
13, 66180, Note_on_c, 11, 64, 115
13, 66239, Note_on_c, 11, 64, 0
13, 66240, Note_on_c, 11, 69, 115
13, 66299, Note_on_c, 11, 69, 0
13, 66300, Note_on_c, 11, 68, 115
13, 66359, Note_on_c, 11, 68, 0
13, 66360, Note_on_c, 11, 69, 115
13, 66419, Note_on_c, 11, 69, 0
13, 66420, Note_on_c, 11, 69, 115
13, 66539, Note_on_c, 11, 69, 0
13, 66540, Note_on_c, 11, 68, 115
13, 66569, Note_on_c, 11, 68, 0
13, 66570, Note_on_c, 11, 69, 115
13, 66599, Note_on_c, 11, 69, 0
13, 66600, Note_on_c, 11, 71, 115
13, 66659, Note_on_c, 11, 71, 0
13, 66660, Note_on_c, 11, 68, 115
13, 66719, Note_on_c, 11, 68, 0
13, 66720, Note_on_c, 11, 68, 115
13, 66779, Note_on_c, 11, 68, 0
13, 66780, Note_on_c, 11, 71, 115
13, 66809, Note_on_c, 11, 71, 0
13, 66810, Note_on_c, 11, 69, 115
13, 66839, Note_on_c, 11, 69, 0
13, 66840, Note_on_c, 11, 71, 115
13, 66899, Note_on_c, 11, 71, 0
13, 66900, Note_on_c, 11, 68, 115
13, 66959, Note_on_c, 11, 68, 0
13, 66960, Note_on_c, 11, 69, 115
13, 67079, Note_on_c, 11, 69, 0
13, 67080, Note_on_c, 11, 64, 115
13, 67139, Note_on_c, 11, 64, 0
13, 68460, Note_on_c, 11, 61, 115
13, 68489, Note_on_c, 11, 61, 0
13, 68490, Note_on_c, 11, 62, 115
13, 68519, Note_on_c, 11, 62, 0
13, 68520, Note_on_c, 11, 64, 115
13, 68579, Note_on_c, 11, 64, 0
13, 68580, Note_on_c, 11, 66, 115
13, 68609, Note_on_c, 11, 66, 0
13, 68610, Note_on_c, 11, 68, 115
13, 68639, Note_on_c, 11, 68, 0
13, 68640, Note_on_c, 11, 69, 115
13, 69180, Note_on_c, 11, 69, 0
13, 69180, Note_on_c, 11, 64, 115
13, 69239, Note_on_c, 11, 64, 0
13, 69240, Note_on_c, 11, 67, 115
13, 69269, Note_on_c, 11, 67, 0
13, 69270, Note_on_c, 11, 66, 115
13, 69299, Note_on_c, 11, 66, 0
13, 69300, Note_on_c, 11, 67, 115
13, 69419, Note_on_c, 11, 67, 0
13, 69420, Note_on_c, 11, 67, 115
13, 69479, Note_on_c, 11, 67, 0
13, 69480, Note_on_c, 11, 66, 115
13, 69539, Note_on_c, 11, 66, 0
13, 69900, Note_on_c, 11, 64, 115
13, 69929, Note_on_c, 11, 64, 0
13, 69930, Note_on_c, 11, 66, 115
13, 69959, Note_on_c, 11, 66, 0
13, 69960, Note_on_c, 11, 68, 115
13, 70019, Note_on_c, 11, 68, 0
13, 70020, Note_on_c, 11, 68, 115
13, 70079, Note_on_c, 11, 68, 0
13, 70080, Note_on_c, 11, 68, 115
13, 70109, Note_on_c, 11, 68, 0
13, 70110, Note_on_c, 11, 66, 115
13, 70139, Note_on_c, 11, 66, 0
13, 70140, Note_on_c, 11, 68, 115
13, 70199, Note_on_c, 11, 68, 0
13, 70200, Note_on_c, 11, 69, 115
13, 70259, Note_on_c, 11, 69, 0
13, 70620, Note_on_c, 11, 66, 115
13, 70649, Note_on_c, 11, 66, 0
13, 70650, Note_on_c, 11, 68, 115
13, 70679, Note_on_c, 11, 68, 0
13, 70680, Note_on_c, 11, 69, 115
13, 70739, Note_on_c, 11, 69, 0
13, 70740, Note_on_c, 11, 69, 115
13, 70799, Note_on_c, 11, 69, 0
13, 70800, Note_on_c, 11, 69, 115
13, 70829, Note_on_c, 11, 69, 0
13, 70830, Note_on_c, 11, 68, 115
13, 70859, Note_on_c, 11, 68, 0
13, 70860, Note_on_c, 11, 69, 115
13, 70919, Note_on_c, 11, 69, 0
13, 70920, Note_on_c, 11, 62, 115
13, 70979, Note_on_c, 11, 62, 0
13, 70980, Note_on_c, 11, 62, 115
13, 71009, Note_on_c, 11, 62, 0
13, 71010, Note_on_c, 11, 64, 115
13, 71039, Note_on_c, 11, 64, 0
13, 71040, Note_on_c, 11, 66, 115
13, 71099, Note_on_c, 11, 66, 0
13, 71100, Note_on_c, 11, 66, 115
13, 71159, Note_on_c, 11, 66, 0
13, 71160, Note_on_c, 11, 66, 115
13, 71219, Note_on_c, 11, 66, 0
13, 71220, Note_on_c, 11, 66, 115
13, 71279, Note_on_c, 11, 66, 0
13, 71280, Note_on_c, 11, 64, 115
13, 71339, Note_on_c, 11, 64, 0
13, 71340, Note_on_c, 11, 68, 115
13, 71369, Note_on_c, 11, 68, 0
13, 71370, Note_on_c, 11, 69, 115
13, 71399, Note_on_c, 11, 69, 0
13, 71400, Note_on_c, 11, 71, 115
13, 71459, Note_on_c, 11, 71, 0
13, 71460, Note_on_c, 11, 71, 115
13, 71519, Note_on_c, 11, 71, 0
13, 71520, Note_on_c, 11, 71, 115
13, 71579, Note_on_c, 11, 71, 0
13, 71580, Note_on_c, 11, 71, 115
13, 71639, Note_on_c, 11, 71, 0
13, 71640, Note_on_c, 11, 71, 115
13, 71699, Note_on_c, 11, 71, 0
13, 71700, Note_on_c, 11, 69, 115
13, 71819, Note_on_c, 11, 69, 0
13, 71820, Note_on_c, 11, 68, 115
13, 71879, Note_on_c, 11, 68, 0
13, 71880, Note_on_c, 11, 69, 115
13, 71939, Note_on_c, 11, 69, 0
13, 71940, Note_on_c, 11, 69, 115
13, 71999, Note_on_c, 11, 69, 0
13, 72000, Note_on_c, 11, 69, 115
13, 72059, Note_on_c, 11, 69, 0
13, 72060, Note_on_c, 11, 68, 115
13, 72119, Note_on_c, 11, 68, 0
13, 72120, Note_on_c, 11, 68, 115
13, 72179, Note_on_c, 11, 68, 0
13, 74340, Note_on_c, 11, 69, 115
13, 74459, Note_on_c, 11, 69, 0
13, 74460, Note_on_c, 11, 66, 115
13, 74519, Note_on_c, 11, 66, 0
13, 74520, Note_on_c, 11, 62, 115
13, 74579, Note_on_c, 11, 62, 0
13, 74580, Note_on_c, 11, 64, 115
13, 74609, Note_on_c, 11, 64, 0
13, 74610, Note_on_c, 11, 66, 115
13, 74639, Note_on_c, 11, 66, 0
13, 74640, Note_on_c, 11, 67, 115
13, 74669, Note_on_c, 11, 67, 0
13, 74670, Note_on_c, 11, 69, 115
13, 74699, Note_on_c, 11, 69, 0
13, 74700, Note_on_c, 11, 71, 115
13, 74759, Note_on_c, 11, 71, 0
13, 74760, Note_on_c, 11, 69, 115
13, 74819, Note_on_c, 11, 69, 0
13, 74820, Note_on_c, 11, 67, 115
13, 74849, Note_on_c, 11, 67, 0
13, 74850, Note_on_c, 11, 66, 115
13, 74879, Note_on_c, 11, 66, 0
13, 74880, Note_on_c, 11, 64, 115
13, 74939, Note_on_c, 11, 64, 0
13, 74940, Note_on_c, 11, 61, 115
13, 74969, Note_on_c, 11, 61, 0
13, 74970, Note_on_c, 11, 62, 115
13, 74999, Note_on_c, 11, 62, 0
13, 75000, Note_on_c, 11, 64, 115
13, 75029, Note_on_c, 11, 64, 0
13, 75030, Note_on_c, 11, 66, 115
13, 75059, Note_on_c, 11, 66, 0
13, 75060, Note_on_c, 11, 67, 115
13, 75119, Note_on_c, 11, 67, 0
13, 75120, Note_on_c, 11, 67, 115
13, 75299, Note_on_c, 11, 67, 0
13, 75300, Note_on_c, 11, 66, 115
13, 75329, Note_on_c, 11, 66, 0
13, 75330, Note_on_c, 11, 64, 115
13, 75359, Note_on_c, 11, 64, 0
13, 75360, Note_on_c, 11, 66, 115
13, 75389, Note_on_c, 11, 66, 0
13, 75390, Note_on_c, 11, 68, 115
13, 75419, Note_on_c, 11, 68, 0
13, 75420, Note_on_c, 11, 69, 115
13, 75479, Note_on_c, 11, 69, 0
13, 75480, Note_on_c, 11, 71, 115
13, 75539, Note_on_c, 11, 71, 0
13, 75540, Note_on_c, 11, 69, 115
13, 75599, Note_on_c, 11, 69, 0
13, 75600, Note_on_c, 11, 68, 115
13, 75659, Note_on_c, 11, 68, 0
13, 75660, Note_on_c, 11, 71, 115
13, 75779, Note_on_c, 11, 71, 0
13, 75780, Note_on_c, 11, 68, 115
13, 75839, Note_on_c, 11, 68, 0
13, 75840, Note_on_c, 11, 64, 115
13, 75899, Note_on_c, 11, 64, 0
13, 75900, Note_on_c, 11, 68, 115
13, 75959, Note_on_c, 11, 68, 0
13, 75960, Note_on_c, 11, 69, 115
13, 76740, Note_on_c, 11, 69, 0
13, 76740, Note_on_c, 11, 63, 115
13, 76859, Note_on_c, 11, 63, 0
13, 76860, Note_on_c, 11, 66, 115
13, 76919, Note_on_c, 11, 66, 0
13, 76920, Note_on_c, 11, 66, 115
13, 76979, Note_on_c, 11, 66, 0
13, 76980, Note_on_c, 11, 69, 115
13, 77039, Note_on_c, 11, 69, 0
13, 77040, Note_on_c, 11, 68, 115
13, 77459, Note_on_c, 11, 68, 0
13, 77460, Note_on_c, 11, 59, 115
13, 77579, Note_on_c, 11, 59, 0
13, 77580, Note_on_c, 11, 64, 115
13, 77639, Note_on_c, 11, 64, 0
13, 77640, Note_on_c, 11, 64, 115
13, 77699, Note_on_c, 11, 64, 0
13, 77700, Note_on_c, 11, 68, 115
13, 77759, Note_on_c, 11, 68, 0
13, 77760, Note_on_c, 11, 69, 115
13, 77819, Note_on_c, 11, 69, 0
13, 77820, Note_on_c, 11, 64, 115
13, 77939, Note_on_c, 11, 64, 0
13, 77940, Note_on_c, 11, 67, 115
13, 78059, Note_on_c, 11, 67, 0
13, 78060, Note_on_c, 11, 66, 115
13, 78089, Note_on_c, 11, 66, 0
13, 78090, Note_on_c, 11, 64, 115
13, 78119, Note_on_c, 11, 64, 0
13, 78120, Note_on_c, 11, 66, 115
13, 78179, Note_on_c, 11, 66, 0
13, 78180, Note_on_c, 11, 62, 115
13, 78299, Note_on_c, 11, 62, 0
13, 78300, Note_on_c, 11, 66, 115
13, 78419, Note_on_c, 11, 66, 0
13, 78420, Note_on_c, 11, 64, 115
13, 78449, Note_on_c, 11, 64, 0
13, 78450, Note_on_c, 11, 62, 115
13, 78479, Note_on_c, 11, 62, 0
13, 78480, Note_on_c, 11, 64, 115
13, 78539, Note_on_c, 11, 64, 0
13, 78540, Note_on_c, 11, 61, 115
13, 78659, Note_on_c, 11, 61, 0
13, 78660, Note_on_c, 11, 64, 115
13, 78779, Note_on_c, 11, 64, 0
13, 78780, Note_on_c, 11, 62, 115
13, 78809, Note_on_c, 11, 62, 0
13, 78810, Note_on_c, 11, 61, 115
13, 78839, Note_on_c, 11, 61, 0
13, 78840, Note_on_c, 11, 62, 115
13, 78899, Note_on_c, 11, 62, 0
13, 78900, Note_on_c, 11, 59, 115
13, 79019, Note_on_c, 11, 59, 0
13, 79020, Note_on_c, 11, 62, 115
13, 79139, Note_on_c, 11, 62, 0
13, 79140, Note_on_c, 11, 61, 115
13, 79169, Note_on_c, 11, 61, 0
13, 79170, Note_on_c, 11, 59, 115
13, 79199, Note_on_c, 11, 59, 0
13, 79200, Note_on_c, 11, 61, 115
13, 79259, Note_on_c, 11, 61, 0
13, 79320, Note_on_c, 11, 62, 115
13, 79379, Note_on_c, 11, 62, 0
13, 79440, Note_on_c, 11, 64, 115
13, 79499, Note_on_c, 11, 64, 0
13, 79560, Note_on_c, 11, 66, 115
13, 79619, Note_on_c, 11, 66, 0
13, 79620, Note_on_c, 11, 64, 115
13, 79649, Note_on_c, 11, 64, 0
13, 79650, Note_on_c, 11, 66, 115
13, 79679, Note_on_c, 11, 66, 0
13, 79680, Note_on_c, 11, 68, 115
13, 79739, Note_on_c, 11, 68, 0
13, 79740, Note_on_c, 11, 66, 115
13, 79769, Note_on_c, 11, 66, 0
13, 79770, Note_on_c, 11, 68, 115
13, 79799, Note_on_c, 11, 68, 0
13, 79800, Note_on_c, 11, 69, 115
13, 79859, Note_on_c, 11, 69, 0
13, 79860, Note_on_c, 11, 68, 115
13, 79889, Note_on_c, 11, 68, 0
13, 79890, Note_on_c, 11, 69, 115
13, 79919, Note_on_c, 11, 69, 0
13, 79920, Note_on_c, 11, 71, 115
13, 79979, Note_on_c, 11, 71, 0
13, 79980, Note_on_c, 11, 69, 115
13, 80010, Note_on_c, 11, 69, 0
13, 80010, Note_on_c, 11, 68, 115
13, 80040, Note_on_c, 11, 68, 0
13, 80040, Note_on_c, 11, 69, 115
13, 80099, Note_on_c, 11, 69, 0
13, 80100, Note_on_c, 11, 69, 115
13, 80159, Note_on_c, 11, 69, 0
13, 80160, Note_on_c, 11, 69, 115
13, 80219, Note_on_c, 11, 69, 0
13, 80220, Note_on_c, 11, 68, 115
13, 80279, Note_on_c, 11, 68, 0
13, 80280, Note_on_c, 11, 64, 115
13, 80400, Note_on_c, 11, 64, 0
13, 83760, Note_on_c, 11, 66, 90
13, 83879, Note_on_c, 11, 66, 0
13, 84000, Note_on_c, 11, 66, 90
13, 84119, Note_on_c, 11, 66, 0
13, 84180, Note_on_c, 11, 66, 90
13, 84239, Note_on_c, 11, 66, 0
13, 84240, Note_on_c, 11, 66, 90
13, 84359, Note_on_c, 11, 66, 0
13, 84420, Note_on_c, 11, 66, 90
13, 84479, Note_on_c, 11, 66, 0
13, 84480, Note_on_c, 11, 67, 90
13, 84539, Note_on_c, 11, 67, 0
13, 84540, Note_on_c, 11, 67, 90
13, 84599, Note_on_c, 11, 67, 0
13, 84600, Note_on_c, 11, 66, 90
13, 84659, Note_on_c, 11, 66, 0
13, 84660, Note_on_c, 11, 67, 90
13, 84689, Note_on_c, 11, 67, 0
13, 84690, Note_on_c, 11, 69, 90
13, 84719, Note_on_c, 11, 69, 0
13, 84720, Note_on_c, 11, 71, 90
13, 84779, Note_on_c, 11, 71, 0
13, 84780, Note_on_c, 11, 71, 90
13, 84839, Note_on_c, 11, 71, 0
13, 84840, Note_on_c, 11, 67, 90
13, 84899, Note_on_c, 11, 67, 0
13, 84900, Note_on_c, 11, 69, 90
13, 84929, Note_on_c, 11, 69, 0
13, 84930, Note_on_c, 11, 71, 90
13, 84959, Note_on_c, 11, 71, 0
13, 84960, Note_on_c, 11, 69, 90
13, 85019, Note_on_c, 11, 69, 0
13, 85020, Note_on_c, 11, 69, 90
13, 85079, Note_on_c, 11, 69, 0
13, 85140, Note_on_c, 11, 64, 90
13, 85199, Note_on_c, 11, 64, 0
13, 85200, Note_on_c, 11, 66, 90
13, 85259, Note_on_c, 11, 66, 0
13, 85260, Note_on_c, 11, 66, 90
13, 85319, Note_on_c, 11, 66, 0
13, 85320, Note_on_c, 11, 64, 90
13, 85379, Note_on_c, 11, 64, 0
13, 85380, Note_on_c, 11, 66, 90
13, 85409, Note_on_c, 11, 66, 0
13, 85410, Note_on_c, 11, 67, 90
13, 85439, Note_on_c, 11, 67, 0
13, 85440, Note_on_c, 11, 69, 90
13, 85499, Note_on_c, 11, 69, 0
13, 85500, Note_on_c, 11, 69, 90
13, 85559, Note_on_c, 11, 69, 0
13, 85560, Note_on_c, 11, 66, 90
13, 85619, Note_on_c, 11, 66, 0
13, 85620, Note_on_c, 11, 67, 90
13, 85649, Note_on_c, 11, 67, 0
13, 85650, Note_on_c, 11, 69, 90
13, 85679, Note_on_c, 11, 69, 0
13, 85680, Note_on_c, 11, 67, 90
13, 85739, Note_on_c, 11, 67, 0
13, 85740, Note_on_c, 11, 67, 90
13, 85799, Note_on_c, 11, 67, 0
13, 85800, Note_on_c, 11, 69, 90
13, 85859, Note_on_c, 11, 69, 0
13, 85920, Note_on_c, 11, 71, 90
13, 86039, Note_on_c, 11, 71, 0
13, 87900, Note_on_c, 11, 66, 90
13, 87959, Note_on_c, 11, 66, 0
13, 87960, Note_on_c, 11, 66, 90
13, 88019, Note_on_c, 11, 66, 0
13, 88020, Note_on_c, 11, 67, 90
13, 88079, Note_on_c, 11, 67, 0
13, 88080, Note_on_c, 11, 69, 90
13, 88139, Note_on_c, 11, 69, 0
13, 88140, Note_on_c, 11, 69, 90
13, 88199, Note_on_c, 11, 69, 0
13, 88200, Note_on_c, 11, 69, 90
13, 88259, Note_on_c, 11, 69, 0
13, 88260, Note_on_c, 11, 71, 90
13, 88319, Note_on_c, 11, 71, 0
13, 88320, Note_on_c, 11, 73, 90
13, 88379, Note_on_c, 11, 73, 0
13, 88380, Note_on_c, 11, 73, 90
13, 88439, Note_on_c, 11, 73, 0
13, 88500, Note_on_c, 11, 69, 90
13, 88559, Note_on_c, 11, 69, 0
13, 88560, Note_on_c, 11, 67, 90
13, 88679, Note_on_c, 11, 67, 0
13, 88680, Note_on_c, 11, 66, 90
13, 88739, Note_on_c, 11, 66, 0
13, 88740, Note_on_c, 11, 64, 90
13, 88799, Note_on_c, 11, 64, 0
13, 88800, Note_on_c, 11, 71, 90
13, 88859, Note_on_c, 11, 71, 0
13, 88860, Note_on_c, 11, 59, 90
13, 88919, Note_on_c, 11, 59, 0
13, 89100, Note_on_c, 11, 64, 90
13, 89159, Note_on_c, 11, 64, 0
13, 89160, Note_on_c, 11, 64, 90
13, 89219, Note_on_c, 11, 64, 0
13, 89220, Note_on_c, 11, 66, 90
13, 89279, Note_on_c, 11, 66, 0
13, 89280, Note_on_c, 11, 59, 90
13, 89339, Note_on_c, 11, 59, 0
13, 89340, Note_on_c, 11, 59, 90
13, 89399, Note_on_c, 11, 59, 0
13, 89580, Note_on_c, 11, 66, 90
13, 89639, Note_on_c, 11, 66, 0
13, 89640, Note_on_c, 11, 66, 90
13, 89699, Note_on_c, 11, 66, 0
13, 89700, Note_on_c, 11, 68, 90
13, 89759, Note_on_c, 11, 68, 0
13, 89760, Note_on_c, 11, 69, 90
13, 89819, Note_on_c, 11, 69, 0
13, 89820, Note_on_c, 11, 69, 90
13, 89879, Note_on_c, 11, 69, 0
13, 89880, Note_on_c, 11, 67, 90
13, 89939, Note_on_c, 11, 67, 0
13, 89940, Note_on_c, 11, 66, 90
13, 89999, Note_on_c, 11, 66, 0
13, 90000, Note_on_c, 11, 67, 90
13, 90059, Note_on_c, 11, 67, 0
13, 90060, Note_on_c, 11, 67, 90
13, 90119, Note_on_c, 11, 67, 0
13, 90180, Note_on_c, 11, 70, 90
13, 90239, Note_on_c, 11, 70, 0
13, 90240, Note_on_c, 11, 71, 90
13, 90299, Note_on_c, 11, 71, 0
13, 90300, Note_on_c, 11, 69, 90
13, 90359, Note_on_c, 11, 69, 0
13, 90360, Note_on_c, 11, 68, 90
13, 90479, Note_on_c, 11, 68, 0
13, 90480, Note_on_c, 11, 66, 90
13, 90599, Note_on_c, 11, 66, 0
13, 90600, Note_on_c, 11, 69, 90
13, 90659, Note_on_c, 11, 69, 0
13, 90660, Note_on_c, 11, 68, 90
13, 90719, Note_on_c, 11, 68, 0
13, 90720, Note_on_c, 11, 66, 90
13, 90839, Note_on_c, 11, 66, 0
13, 90840, Note_on_c, 11, 66, 90
13, 90899, Note_on_c, 11, 66, 0
13, 90900, Note_on_c, 11, 64, 90
13, 90959, Note_on_c, 11, 64, 0
13, 90960, Note_on_c, 11, 62, 90
13, 91019, Note_on_c, 11, 62, 0
13, 91020, Note_on_c, 11, 64, 90
13, 91079, Note_on_c, 11, 64, 0
13, 91080, Note_on_c, 11, 66, 90
13, 91139, Note_on_c, 11, 66, 0
13, 91140, Note_on_c, 11, 64, 90
13, 91199, Note_on_c, 11, 64, 0
13, 91200, Note_on_c, 11, 64, 90
13, 91319, Note_on_c, 11, 64, 0
13, 91320, Note_on_c, 11, 64, 90
13, 91379, Note_on_c, 11, 64, 0
13, 91380, Note_on_c, 11, 64, 90
13, 91439, Note_on_c, 11, 64, 0
13, 91440, Note_on_c, 11, 66, 90
13, 91499, Note_on_c, 11, 66, 0
13, 91500, Note_on_c, 11, 67, 90
13, 91559, Note_on_c, 11, 67, 0
13, 91560, Note_on_c, 11, 69, 90
13, 91619, Note_on_c, 11, 69, 0
13, 91620, Note_on_c, 11, 67, 90
13, 91649, Note_on_c, 11, 67, 0
13, 91650, Note_on_c, 11, 66, 90
13, 91679, Note_on_c, 11, 66, 0
13, 91680, Note_on_c, 11, 71, 90
13, 91979, Note_on_c, 11, 71, 0
13, 91980, Note_on_c, 11, 70, 90
13, 92039, Note_on_c, 11, 70, 0
13, 92040, Note_on_c, 11, 71, 90
13, 92099, Note_on_c, 11, 71, 0
13, 92100, Note_on_c, 11, 62, 90
13, 92159, Note_on_c, 11, 62, 0
13, 92160, Note_on_c, 11, 62, 90
13, 92219, Note_on_c, 11, 62, 0
13, 92220, Note_on_c, 11, 64, 90
13, 92279, Note_on_c, 11, 64, 0
13, 92280, Note_on_c, 11, 64, 90
13, 92339, Note_on_c, 11, 64, 0
13, 92340, Note_on_c, 11, 65, 90
13, 92399, Note_on_c, 11, 65, 0
13, 92400, Note_on_c, 11, 66, 90
13, 92520, Note_on_c, 11, 66, 0
13, 97800, Note_on_c, 11, 66, 90
13, 97919, Note_on_c, 11, 66, 0
13, 97920, Note_on_c, 11, 64, 90
13, 97979, Note_on_c, 11, 64, 0
13, 97980, Note_on_c, 11, 66, 90
13, 98039, Note_on_c, 11, 66, 0
13, 98040, Note_on_c, 11, 68, 90
13, 98099, Note_on_c, 11, 68, 0
13, 98100, Note_on_c, 11, 69, 90
13, 98159, Note_on_c, 11, 69, 0
13, 98160, Note_on_c, 11, 71, 90
13, 98279, Note_on_c, 11, 71, 0
13, 98280, Note_on_c, 11, 64, 90
13, 98399, Note_on_c, 11, 64, 0
13, 98400, Note_on_c, 11, 63, 90
13, 98519, Note_on_c, 11, 63, 0
13, 98520, Note_on_c, 11, 64, 90
13, 98639, Note_on_c, 11, 64, 0
13, 98640, Note_on_c, 11, 62, 90
13, 98699, Note_on_c, 11, 62, 0
13, 98700, Note_on_c, 11, 69, 90
13, 98759, Note_on_c, 11, 69, 0
13, 98760, Note_on_c, 11, 68, 90
13, 98880, Note_on_c, 11, 68, 0
13, 98880, Note_on_c, 11, 64, 90
13, 99119, Note_on_c, 11, 64, 0
13, 99240, Note_on_c, 11, 66, 90
13, 99359, Note_on_c, 11, 66, 0
13, 99360, Note_on_c, 11, 66, 90
13, 99479, Note_on_c, 11, 66, 0
13, 99480, Note_on_c, 11, 64, 90
13, 99539, Note_on_c, 11, 64, 0
13, 99540, Note_on_c, 11, 61, 90
13, 99599, Note_on_c, 11, 61, 0
13, 99600, Note_on_c, 11, 68, 90
13, 99659, Note_on_c, 11, 68, 0
13, 99660, Note_on_c, 11, 66, 90
13, 99719, Note_on_c, 11, 66, 0
13, 99720, Note_on_c, 11, 64, 90
13, 99779, Note_on_c, 11, 64, 0
13, 99780, Note_on_c, 11, 63, 90
13, 99839, Note_on_c, 11, 63, 0
13, 99840, Note_on_c, 11, 64, 90
13, 99899, Note_on_c, 11, 64, 0
13, 99900, Note_on_c, 11, 66, 90
13, 99929, Note_on_c, 11, 66, 0
13, 99930, Note_on_c, 11, 68, 90
13, 99959, Note_on_c, 11, 68, 0
13, 99960, Note_on_c, 11, 69, 90
13, 100019, Note_on_c, 11, 69, 0
13, 100020, Note_on_c, 11, 66, 90
13, 100079, Note_on_c, 11, 66, 0
13, 100080, Note_on_c, 11, 68, 90
13, 100175, Note_on_c, 11, 68, 0
13, 100200, Note_on_c, 11, 69, 90
13, 100319, Note_on_c, 11, 69, 0
13, 100320, Note_on_c, 11, 69, 90
13, 100439, Note_on_c, 11, 69, 0
13, 100440, Note_on_c, 11, 70, 90
13, 100559, Note_on_c, 11, 70, 0
13, 100560, Note_on_c, 11, 71, 90
13, 100619, Note_on_c, 11, 71, 0
13, 100620, Note_on_c, 11, 69, 90
13, 100679, Note_on_c, 11, 69, 0
13, 100680, Note_on_c, 11, 68, 90
13, 100739, Note_on_c, 11, 68, 0
13, 100740, Note_on_c, 11, 66, 90
13, 100799, Note_on_c, 11, 66, 0
13, 100800, Note_on_c, 11, 64, 90
13, 100859, Note_on_c, 11, 64, 0
13, 100860, Note_on_c, 11, 66, 90
13, 100889, Note_on_c, 11, 66, 0
13, 100890, Note_on_c, 11, 68, 90
13, 100919, Note_on_c, 11, 68, 0
13, 100920, Note_on_c, 11, 69, 90
13, 100979, Note_on_c, 11, 69, 0
13, 100980, Note_on_c, 11, 66, 90
13, 101039, Note_on_c, 11, 66, 0
13, 101040, Note_on_c, 11, 68, 90
13, 101135, Note_on_c, 11, 68, 0
13, 101160, Note_on_c, 11, 69, 90
13, 101219, Note_on_c, 11, 69, 0
13, 101220, Note_on_c, 11, 68, 90
13, 101279, Note_on_c, 11, 68, 0
13, 101280, Note_on_c, 11, 66, 90
13, 101459, Note_on_c, 11, 66, 0
13, 101460, Note_on_c, 11, 68, 90
13, 101489, Note_on_c, 11, 68, 0
13, 101490, Note_on_c, 11, 70, 90
13, 101519, Note_on_c, 11, 70, 0
13, 101520, Note_on_c, 11, 71, 90
13, 101615, Note_on_c, 11, 71, 0
13, 101640, Note_on_c, 11, 70, 90
13, 101759, Note_on_c, 11, 70, 0
13, 101760, Note_on_c, 11, 71, 90
13, 101819, Note_on_c, 11, 71, 0
13, 101820, Note_on_c, 11, 69, 90
13, 101879, Note_on_c, 11, 69, 0
13, 101880, Note_on_c, 11, 67, 90
13, 101999, Note_on_c, 11, 67, 0
13, 102000, Note_on_c, 11, 66, 90
13, 102095, Note_on_c, 11, 66, 0
13, 102120, Note_on_c, 11, 64, 90
13, 102179, Note_on_c, 11, 64, 0
13, 102180, Note_on_c, 11, 69, 90
13, 102299, Note_on_c, 11, 69, 0
13, 102300, Note_on_c, 11, 68, 90
13, 102419, Note_on_c, 11, 68, 0
13, 102420, Note_on_c, 11, 66, 90
13, 102479, Note_on_c, 11, 66, 0
13, 102480, Note_on_c, 11, 68, 90
13, 102539, Note_on_c, 11, 68, 0
13, 102540, Note_on_c, 11, 69, 90
13, 102599, Note_on_c, 11, 69, 0
13, 102600, Note_on_c, 11, 71, 90
13, 102779, Note_on_c, 11, 71, 0
13, 102780, Note_on_c, 11, 64, 90
13, 102839, Note_on_c, 11, 64, 0
13, 102840, Note_on_c, 11, 69, 90
13, 102959, Note_on_c, 11, 69, 0
13, 102960, Note_on_c, 11, 69, 90
13, 103079, Note_on_c, 11, 69, 0
13, 103080, Note_on_c, 11, 68, 90
13, 103199, Note_on_c, 11, 68, 0
13, 103200, Note_on_c, 11, 64, 90
13, 103559, Note_on_c, 11, 64, 0
13, 201240, Note_on_c, 11, 64, 90
13, 201359, Note_on_c, 11, 64, 0
13, 201360, Note_on_c, 11, 64, 90
13, 201479, Note_on_c, 11, 64, 0
13, 201480, Note_on_c, 11, 69, 90
13, 201599, Note_on_c, 11, 69, 0
13, 201600, Note_on_c, 11, 69, 90
13, 201659, Note_on_c, 11, 69, 0
13, 201660, Note_on_c, 11, 68, 90
13, 201779, Note_on_c, 11, 68, 0
13, 201780, Note_on_c, 11, 66, 90
13, 201899, Note_on_c, 11, 66, 0
13, 201900, Note_on_c, 11, 64, 90
13, 202019, Note_on_c, 11, 64, 0
13, 202020, Note_on_c, 11, 63, 90
13, 202079, Note_on_c, 11, 63, 0
13, 202080, Note_on_c, 11, 59, 90
13, 202175, Note_on_c, 11, 59, 0
13, 202200, Note_on_c, 11, 62, 90
13, 202259, Note_on_c, 11, 62, 0
13, 202260, Note_on_c, 11, 61, 90
13, 202319, Note_on_c, 11, 61, 0
13, 202320, Note_on_c, 11, 59, 90
13, 202439, Note_on_c, 11, 59, 0
13, 202440, Note_on_c, 11, 64, 90
13, 202559, Note_on_c, 11, 64, 0
13, 202560, Note_on_c, 11, 64, 90
13, 202679, Note_on_c, 11, 64, 0
13, 202680, Note_on_c, 11, 64, 90
13, 202739, Note_on_c, 11, 64, 0
13, 202740, Note_on_c, 11, 66, 90
13, 202799, Note_on_c, 11, 66, 0
13, 202800, Note_on_c, 11, 64, 90
13, 202919, Note_on_c, 11, 64, 0
13, 202920, Note_on_c, 11, 64, 90
13, 203135, Note_on_c, 11, 64, 0
13, 203160, Note_on_c, 11, 64, 90
13, 203279, Note_on_c, 11, 64, 0
13, 203280, Note_on_c, 11, 64, 90
13, 203399, Note_on_c, 11, 64, 0
13, 203400, Note_on_c, 11, 69, 90
13, 203519, Note_on_c, 11, 69, 0
13, 203520, Note_on_c, 11, 69, 90
13, 203579, Note_on_c, 11, 69, 0
13, 203580, Note_on_c, 11, 68, 90
13, 203699, Note_on_c, 11, 68, 0
13, 203700, Note_on_c, 11, 66, 90
13, 203819, Note_on_c, 11, 66, 0
13, 203820, Note_on_c, 11, 64, 90
13, 203939, Note_on_c, 11, 64, 0
13, 203940, Note_on_c, 11, 63, 90
13, 203999, Note_on_c, 11, 63, 0
13, 204000, Note_on_c, 11, 59, 90
13, 204095, Note_on_c, 11, 59, 0
13, 204120, Note_on_c, 11, 62, 90
13, 204179, Note_on_c, 11, 62, 0
13, 204180, Note_on_c, 11, 61, 90
13, 204239, Note_on_c, 11, 61, 0
13, 204240, Note_on_c, 11, 59, 90
13, 204359, Note_on_c, 11, 59, 0
13, 204360, Note_on_c, 11, 64, 90
13, 204479, Note_on_c, 11, 64, 0
13, 204480, Note_on_c, 11, 64, 90
13, 204599, Note_on_c, 11, 64, 0
13, 204600, Note_on_c, 11, 64, 90
13, 204659, Note_on_c, 11, 64, 0
13, 204660, Note_on_c, 11, 66, 90
13, 204719, Note_on_c, 11, 66, 0
13, 204720, Note_on_c, 11, 64, 90
13, 204839, Note_on_c, 11, 64, 0
13, 204840, Note_on_c, 11, 64, 90
13, 205055, Note_on_c, 11, 64, 0
13, 205080, Note_on_c, 11, 69, 90
13, 205199, Note_on_c, 11, 69, 0
13, 205200, Note_on_c, 11, 69, 90
13, 205319, Note_on_c, 11, 69, 0
13, 205320, Note_on_c, 11, 64, 90
13, 205379, Note_on_c, 11, 64, 0
13, 205380, Note_on_c, 11, 66, 90
13, 205439, Note_on_c, 11, 66, 0
13, 205440, Note_on_c, 11, 68, 90
13, 205559, Note_on_c, 11, 68, 0
13, 205560, Note_on_c, 11, 66, 90
13, 205679, Note_on_c, 11, 66, 0
13, 205680, Note_on_c, 11, 64, 90
13, 205739, Note_on_c, 11, 64, 0
13, 205740, Note_on_c, 11, 66, 90
13, 205799, Note_on_c, 11, 66, 0
13, 205800, Note_on_c, 11, 68, 90
13, 205859, Note_on_c, 11, 68, 0
13, 205860, Note_on_c, 11, 66, 90
13, 205919, Note_on_c, 11, 66, 0
13, 205920, Note_on_c, 11, 68, 90
13, 206015, Note_on_c, 11, 68, 0
13, 206040, Note_on_c, 11, 61, 90
13, 206099, Note_on_c, 11, 61, 0
13, 206100, Note_on_c, 11, 62, 90
13, 206159, Note_on_c, 11, 62, 0
13, 206160, Note_on_c, 11, 64, 90
13, 206339, Note_on_c, 11, 64, 0
13, 206340, Note_on_c, 11, 62, 90
13, 206369, Note_on_c, 11, 62, 0
13, 206370, Note_on_c, 11, 61, 90
13, 206399, Note_on_c, 11, 61, 0
13, 206400, Note_on_c, 11, 66, 90
13, 206519, Note_on_c, 11, 66, 0
13, 206520, Note_on_c, 11, 64, 90
13, 206639, Note_on_c, 11, 64, 0
13, 206640, Note_on_c, 11, 64, 90
13, 206759, Note_on_c, 11, 64, 0
13, 206760, Note_on_c, 11, 64, 90
13, 206819, Note_on_c, 11, 64, 0
13, 206820, Note_on_c, 11, 62, 90
13, 206879, Note_on_c, 11, 62, 0
13, 206880, Note_on_c, 11, 64, 90
13, 206999, Note_on_c, 11, 64, 0
13, 206999, End_track
14, 0, Start_track
14, 0, MIDI_port, 0
14, 0, Title_t, "Tenore"
14, 0, Program_c, 12, 52
14, 0, Control_c, 12, 7, 127
14, 0, Control_c, 12, 10, 48
14, 6180, Note_on_c, 12, 61, 115
14, 6210, Note_on_c, 12, 61, 0
14, 6210, Note_on_c, 12, 62, 115
14, 6240, Note_on_c, 12, 62, 0
14, 6240, Note_on_c, 12, 64, 115
14, 6300, Note_on_c, 12, 64, 0
14, 6300, Note_on_c, 12, 64, 115
14, 6360, Note_on_c, 12, 64, 0
14, 6360, Note_on_c, 12, 66, 115
14, 6390, Note_on_c, 12, 66, 0
14, 6390, Note_on_c, 12, 64, 115
14, 6420, Note_on_c, 12, 64, 0
14, 6420, Note_on_c, 12, 66, 115
14, 6480, Note_on_c, 12, 66, 0
14, 6480, Note_on_c, 12, 64, 115
14, 6540, Note_on_c, 12, 64, 0
14, 6840, Note_on_c, 12, 61, 115
14, 6900, Note_on_c, 12, 61, 0
14, 6900, Note_on_c, 12, 61, 115
14, 6960, Note_on_c, 12, 61, 0
14, 6960, Note_on_c, 12, 64, 115
14, 7020, Note_on_c, 12, 64, 0
14, 7020, Note_on_c, 12, 61, 115
14, 7080, Note_on_c, 12, 61, 0
14, 7080, Note_on_c, 12, 59, 115
14, 7140, Note_on_c, 12, 59, 0
14, 7140, Note_on_c, 12, 59, 115
14, 7200, Note_on_c, 12, 59, 0
14, 7200, Note_on_c, 12, 61, 115
14, 7260, Note_on_c, 12, 61, 0
14, 7260, Note_on_c, 12, 61, 115
14, 7290, Note_on_c, 12, 61, 0
14, 7290, Note_on_c, 12, 59, 115
14, 7320, Note_on_c, 12, 59, 0
14, 7320, Note_on_c, 12, 57, 115
14, 7380, Note_on_c, 12, 57, 0
14, 7620, Note_on_c, 12, 56, 115
14, 7650, Note_on_c, 12, 56, 0
14, 7650, Note_on_c, 12, 57, 115
14, 7680, Note_on_c, 12, 57, 0
14, 7680, Note_on_c, 12, 59, 115
14, 7740, Note_on_c, 12, 59, 0
14, 7740, Note_on_c, 12, 59, 115
14, 7800, Note_on_c, 12, 59, 0
14, 7800, Note_on_c, 12, 61, 115
14, 7830, Note_on_c, 12, 61, 0
14, 7830, Note_on_c, 12, 59, 115
14, 7860, Note_on_c, 12, 59, 0
14, 7860, Note_on_c, 12, 61, 115
14, 7920, Note_on_c, 12, 61, 0
14, 7920, Note_on_c, 12, 59, 115
14, 7980, Note_on_c, 12, 59, 0
14, 7980, Note_on_c, 12, 59, 115
14, 8100, Note_on_c, 12, 59, 0
14, 8100, Note_on_c, 12, 56, 115
14, 8160, Note_on_c, 12, 56, 0
14, 8160, Note_on_c, 12, 52, 115
14, 8220, Note_on_c, 12, 52, 0
14, 8220, Note_on_c, 12, 64, 115
14, 8280, Note_on_c, 12, 64, 0
14, 8280, Note_on_c, 12, 64, 115
14, 8340, Note_on_c, 12, 64, 0
14, 8640, Note_on_c, 12, 64, 115
14, 8700, Note_on_c, 12, 64, 0
14, 8700, Note_on_c, 12, 64, 115
14, 8760, Note_on_c, 12, 64, 0
14, 8760, Note_on_c, 12, 59, 115
14, 8820, Note_on_c, 12, 59, 0
14, 8820, Note_on_c, 12, 64, 115
14, 8880, Note_on_c, 12, 64, 0
14, 8880, Note_on_c, 12, 63, 115
14, 8940, Note_on_c, 12, 63, 0
14, 8940, Note_on_c, 12, 63, 115
14, 9000, Note_on_c, 12, 63, 0
14, 9000, Note_on_c, 12, 64, 115
14, 9120, Note_on_c, 12, 64, 0
14, 9120, Note_on_c, 12, 59, 115
14, 9180, Note_on_c, 12, 59, 0
14, 9420, Note_on_c, 12, 57, 115
14, 9450, Note_on_c, 12, 57, 0
14, 9450, Note_on_c, 12, 59, 115
14, 9480, Note_on_c, 12, 59, 0
14, 9480, Note_on_c, 12, 61, 115
14, 9540, Note_on_c, 12, 61, 0
14, 9540, Note_on_c, 12, 61, 115
14, 9600, Note_on_c, 12, 61, 0
14, 9600, Note_on_c, 12, 62, 115
14, 9630, Note_on_c, 12, 62, 0
14, 9630, Note_on_c, 12, 61, 115
14, 9660, Note_on_c, 12, 61, 0
14, 9660, Note_on_c, 12, 62, 115
14, 9720, Note_on_c, 12, 62, 0
14, 9720, Note_on_c, 12, 64, 115
14, 9780, Note_on_c, 12, 64, 0
14, 9780, Note_on_c, 12, 64, 115
14, 9840, Note_on_c, 12, 64, 0
14, 9840, Note_on_c, 12, 62, 115
14, 9900, Note_on_c, 12, 62, 0
14, 9900, Note_on_c, 12, 61, 115
14, 9960, Note_on_c, 12, 61, 0
14, 9960, Note_on_c, 12, 59, 115
14, 10020, Note_on_c, 12, 59, 0
14, 10020, Note_on_c, 12, 57, 115
14, 10080, Note_on_c, 12, 57, 0
14, 10080, Note_on_c, 12, 64, 115
14, 10140, Note_on_c, 12, 64, 0
14, 10440, Note_on_c, 12, 64, 115
14, 10500, Note_on_c, 12, 64, 0
14, 10500, Note_on_c, 12, 61, 115
14, 10560, Note_on_c, 12, 61, 0
14, 10560, Note_on_c, 12, 61, 115
14, 10620, Note_on_c, 12, 61, 0
14, 10620, Note_on_c, 12, 64, 115
14, 10680, Note_on_c, 12, 64, 0
14, 10680, Note_on_c, 12, 64, 115
14, 10740, Note_on_c, 12, 64, 0
14, 10740, Note_on_c, 12, 64, 115
14, 10800, Note_on_c, 12, 64, 0
14, 10800, Note_on_c, 12, 64, 115
14, 10860, Note_on_c, 12, 64, 0
14, 10860, Note_on_c, 12, 64, 115
14, 10890, Note_on_c, 12, 64, 0
14, 10890, Note_on_c, 12, 62, 115
14, 10920, Note_on_c, 12, 62, 0
14, 10920, Note_on_c, 12, 61, 115
14, 10980, Note_on_c, 12, 61, 0
14, 10980, Note_on_c, 12, 64, 115
14, 11100, Note_on_c, 12, 64, 0
14, 11100, Note_on_c, 12, 61, 115
14, 11160, Note_on_c, 12, 61, 0
14, 11160, Note_on_c, 12, 57, 115
14, 11220, Note_on_c, 12, 57, 0
14, 11220, Note_on_c, 12, 59, 115
14, 11250, Note_on_c, 12, 59, 0
14, 11250, Note_on_c, 12, 61, 115
14, 11280, Note_on_c, 12, 61, 0
14, 11280, Note_on_c, 12, 62, 115
14, 11310, Note_on_c, 12, 62, 0
14, 11310, Note_on_c, 12, 64, 115
14, 11340, Note_on_c, 12, 64, 0
14, 11340, Note_on_c, 12, 66, 115
14, 11400, Note_on_c, 12, 66, 0
14, 11400, Note_on_c, 12, 64, 115
14, 11460, Note_on_c, 12, 64, 0
14, 11460, Note_on_c, 12, 62, 115
14, 11490, Note_on_c, 12, 62, 0
14, 11490, Note_on_c, 12, 61, 115
14, 11520, Note_on_c, 12, 61, 0
14, 11520, Note_on_c, 12, 59, 115
14, 11580, Note_on_c, 12, 59, 0
14, 11580, Note_on_c, 12, 56, 115
14, 11610, Note_on_c, 12, 56, 0
14, 11610, Note_on_c, 12, 57, 115
14, 11640, Note_on_c, 12, 57, 0
14, 11640, Note_on_c, 12, 59, 115
14, 11670, Note_on_c, 12, 59, 0
14, 11670, Note_on_c, 12, 61, 115
14, 11700, Note_on_c, 12, 61, 0
14, 11700, Note_on_c, 12, 62, 115
14, 11760, Note_on_c, 12, 62, 0
14, 11760, Note_on_c, 12, 62, 115
14, 11940, Note_on_c, 12, 62, 0
14, 11940, Note_on_c, 12, 61, 115
14, 11970, Note_on_c, 12, 61, 0
14, 11970, Note_on_c, 12, 59, 115
14, 12000, Note_on_c, 12, 59, 0
14, 12000, Note_on_c, 12, 61, 115
14, 12030, Note_on_c, 12, 61, 0
14, 12030, Note_on_c, 12, 63, 115
14, 12060, Note_on_c, 12, 63, 0
14, 12060, Note_on_c, 12, 64, 115
14, 12120, Note_on_c, 12, 64, 0
14, 12120, Note_on_c, 12, 66, 115
14, 12180, Note_on_c, 12, 66, 0
14, 12180, Note_on_c, 12, 64, 115
14, 12240, Note_on_c, 12, 64, 0
14, 12240, Note_on_c, 12, 63, 115
14, 12299, Note_on_c, 12, 63, 0
14, 12300, Note_on_c, 12, 66, 115
14, 12419, Note_on_c, 12, 66, 0
14, 12420, Note_on_c, 12, 63, 115
14, 12479, Note_on_c, 12, 63, 0
14, 12480, Note_on_c, 12, 59, 115
14, 12539, Note_on_c, 12, 59, 0
14, 12540, Note_on_c, 12, 63, 115
14, 12599, Note_on_c, 12, 63, 0
14, 12600, Note_on_c, 12, 64, 115
14, 12659, Note_on_c, 12, 64, 0
14, 12660, Note_on_c, 12, 59, 115
14, 12689, Note_on_c, 12, 59, 0
14, 12690, Note_on_c, 12, 57, 115
14, 12719, Note_on_c, 12, 57, 0
14, 12720, Note_on_c, 12, 59, 115
14, 12779, Note_on_c, 12, 59, 0
14, 12780, Note_on_c, 12, 52, 115
14, 12839, Note_on_c, 12, 52, 0
14, 12840, Note_on_c, 12, 62, 115
14, 12869, Note_on_c, 12, 62, 0
14, 12870, Note_on_c, 12, 61, 115
14, 12899, Note_on_c, 12, 61, 0
14, 12900, Note_on_c, 12, 62, 115
14, 12959, Note_on_c, 12, 62, 0
14, 12960, Note_on_c, 12, 61, 115
14, 13019, Note_on_c, 12, 61, 0
14, 13020, Note_on_c, 12, 64, 115
14, 13139, Note_on_c, 12, 64, 0
14, 13140, Note_on_c, 12, 61, 115
14, 13199, Note_on_c, 12, 61, 0
14, 13200, Note_on_c, 12, 57, 115
14, 13259, Note_on_c, 12, 57, 0
14, 13260, Note_on_c, 12, 64, 115
14, 13319, Note_on_c, 12, 64, 0
14, 13320, Note_on_c, 12, 66, 115
14, 13469, Note_on_c, 12, 66, 0
14, 13470, Note_on_c, 12, 64, 115
14, 13499, Note_on_c, 12, 64, 0
14, 13500, Note_on_c, 12, 62, 115
14, 13529, Note_on_c, 12, 62, 0
14, 13530, Note_on_c, 12, 61, 115
14, 13559, Note_on_c, 12, 61, 0
14, 13560, Note_on_c, 12, 59, 115
14, 13619, Note_on_c, 12, 59, 0
14, 13620, Note_on_c, 12, 64, 115
14, 13679, Note_on_c, 12, 64, 0
14, 13680, Note_on_c, 12, 64, 115
14, 13739, Note_on_c, 12, 64, 0
14, 13740, Note_on_c, 12, 52, 115
14, 13769, Note_on_c, 12, 52, 0
14, 13770, Note_on_c, 12, 54, 115
14, 13799, Note_on_c, 12, 54, 0
14, 13800, Note_on_c, 12, 56, 115
14, 13829, Note_on_c, 12, 56, 0
14, 13830, Note_on_c, 12, 57, 115
14, 13859, Note_on_c, 12, 57, 0
14, 13860, Note_on_c, 12, 59, 115
14, 13919, Note_on_c, 12, 59, 0
14, 13920, Note_on_c, 12, 59, 115
14, 13979, Note_on_c, 12, 59, 0
14, 13980, Note_on_c, 12, 64, 115
14, 14039, Note_on_c, 12, 64, 0
14, 14040, Note_on_c, 12, 64, 115
14, 14099, Note_on_c, 12, 64, 0
14, 14100, Note_on_c, 12, 57, 115
14, 14219, Note_on_c, 12, 57, 0
14, 14220, Note_on_c, 12, 56, 115
14, 14279, Note_on_c, 12, 56, 0
14, 14280, Note_on_c, 12, 54, 115
14, 14339, Note_on_c, 12, 54, 0
14, 14340, Note_on_c, 12, 56, 115
14, 14369, Note_on_c, 12, 56, 0
14, 14370, Note_on_c, 12, 57, 115
14, 14399, Note_on_c, 12, 57, 0
14, 14400, Note_on_c, 12, 59, 115
14, 14459, Note_on_c, 12, 59, 0
14, 14460, Note_on_c, 12, 63, 115
14, 14579, Note_on_c, 12, 63, 0
14, 14580, Note_on_c, 12, 54, 115
14, 14639, Note_on_c, 12, 54, 0
14, 14640, Note_on_c, 12, 59, 115
14, 14699, Note_on_c, 12, 59, 0
14, 14700, Note_on_c, 12, 66, 115
14, 14759, Note_on_c, 12, 66, 0
14, 14760, Note_on_c, 12, 64, 115
14, 14879, Note_on_c, 12, 64, 0
14, 14940, Note_on_c, 12, 59, 115
14, 15059, Note_on_c, 12, 59, 0
14, 15060, Note_on_c, 12, 62, 115
14, 15119, Note_on_c, 12, 62, 0
14, 15120, Note_on_c, 12, 61, 115
14, 15540, Note_on_c, 12, 61, 0
14, 15540, Note_on_c, 12, 61, 115
14, 15569, Note_on_c, 12, 61, 0
14, 15570, Note_on_c, 12, 59, 115
14, 15599, Note_on_c, 12, 59, 0
14, 15600, Note_on_c, 12, 61, 115
14, 15659, Note_on_c, 12, 61, 0
14, 15660, Note_on_c, 12, 58, 115
14, 15719, Note_on_c, 12, 58, 0
14, 15720, Note_on_c, 12, 54, 115
14, 15779, Note_on_c, 12, 54, 0
14, 15780, Note_on_c, 12, 58, 115
14, 15839, Note_on_c, 12, 58, 0
14, 15840, Note_on_c, 12, 59, 115
14, 15899, Note_on_c, 12, 59, 0
14, 15900, Note_on_c, 12, 66, 115
14, 16019, Note_on_c, 12, 66, 0
14, 16020, Note_on_c, 12, 66, 115
14, 16079, Note_on_c, 12, 66, 0
14, 16080, Note_on_c, 12, 63, 115
14, 16139, Note_on_c, 12, 63, 0
14, 16140, Note_on_c, 12, 59, 115
14, 16199, Note_on_c, 12, 59, 0
14, 16200, Note_on_c, 12, 54, 115
14, 16259, Note_on_c, 12, 54, 0
14, 16260, Note_on_c, 12, 63, 115
14, 16349, Note_on_c, 12, 63, 0
14, 16350, Note_on_c, 12, 64, 115
14, 16379, Note_on_c, 12, 64, 0
14, 16380, Note_on_c, 12, 66, 115
14, 16409, Note_on_c, 12, 66, 0
14, 16410, Note_on_c, 12, 68, 115
14, 16439, Note_on_c, 12, 68, 0
14, 16440, Note_on_c, 12, 69, 115
14, 16499, Note_on_c, 12, 69, 0
14, 16500, Note_on_c, 12, 66, 115
14, 16559, Note_on_c, 12, 66, 0
14, 16560, Note_on_c, 12, 64, 115
14, 17550, Note_on_c, 12, 64, 0
14, 17550, Note_on_c, 12, 63, 115
14, 17579, Note_on_c, 12, 63, 0
14, 17580, Note_on_c, 12, 61, 115
14, 17609, Note_on_c, 12, 61, 0
14, 17610, Note_on_c, 12, 59, 115
14, 17639, Note_on_c, 12, 59, 0
14, 17640, Note_on_c, 12, 61, 115
14, 17699, Note_on_c, 12, 61, 0
14, 17700, Note_on_c, 12, 63, 115
14, 17759, Note_on_c, 12, 63, 0
14, 17760, Note_on_c, 12, 66, 115
14, 17879, Note_on_c, 12, 66, 0
14, 17880, Note_on_c, 12, 59, 115
14, 17999, Note_on_c, 12, 59, 0
14, 18000, Note_on_c, 12, 59, 115
14, 18059, Note_on_c, 12, 59, 0
14, 18120, Note_on_c, 12, 57, 115
14, 18179, Note_on_c, 12, 57, 0
14, 18240, Note_on_c, 12, 64, 115
14, 18299, Note_on_c, 12, 64, 0
14, 18360, Note_on_c, 12, 61, 115
14, 18419, Note_on_c, 12, 61, 0
14, 18420, Note_on_c, 12, 69, 115
14, 18539, Note_on_c, 12, 69, 0
14, 18540, Note_on_c, 12, 68, 115
14, 18659, Note_on_c, 12, 68, 0
14, 18660, Note_on_c, 12, 69, 115
14, 18689, Note_on_c, 12, 69, 0
14, 18690, Note_on_c, 12, 68, 115
14, 18719, Note_on_c, 12, 68, 0
14, 18720, Note_on_c, 12, 66, 115
14, 18779, Note_on_c, 12, 66, 0
14, 18780, Note_on_c, 12, 66, 115
14, 18839, Note_on_c, 12, 66, 0
14, 18840, Note_on_c, 12, 64, 115
14, 18959, Note_on_c, 12, 64, 0
14, 18960, Note_on_c, 12, 59, 115
14, 19079, Note_on_c, 12, 59, 0
14, 19080, Note_on_c, 12, 59, 115
14, 19199, Note_on_c, 12, 59, 0
14, 20940, Note_on_c, 12, 61, 115
14, 20969, Note_on_c, 12, 61, 0
14, 20970, Note_on_c, 12, 62, 115
14, 20999, Note_on_c, 12, 62, 0
14, 21000, Note_on_c, 12, 64, 115
14, 21059, Note_on_c, 12, 64, 0
14, 21060, Note_on_c, 12, 66, 115
14, 21089, Note_on_c, 12, 66, 0
14, 21090, Note_on_c, 12, 68, 115
14, 21119, Note_on_c, 12, 68, 0
14, 21120, Note_on_c, 12, 69, 115
14, 21179, Note_on_c, 12, 69, 0
14, 21180, Note_on_c, 12, 61, 115
14, 21239, Note_on_c, 12, 61, 0
14, 21240, Note_on_c, 12, 59, 115
14, 21299, Note_on_c, 12, 59, 0
14, 21300, Note_on_c, 12, 64, 115
14, 21359, Note_on_c, 12, 64, 0
14, 21360, Note_on_c, 12, 64, 115
14, 21419, Note_on_c, 12, 64, 0
14, 21420, Note_on_c, 12, 64, 115
14, 21479, Note_on_c, 12, 64, 0
14, 21480, Note_on_c, 12, 64, 115
14, 21539, Note_on_c, 12, 64, 0
14, 21540, Note_on_c, 12, 64, 115
14, 21599, Note_on_c, 12, 64, 0
14, 21600, Note_on_c, 12, 64, 115
14, 21659, Note_on_c, 12, 64, 0
14, 21660, Note_on_c, 12, 64, 115
14, 21689, Note_on_c, 12, 64, 0
14, 21690, Note_on_c, 12, 62, 115
14, 21719, Note_on_c, 12, 62, 0
14, 21720, Note_on_c, 12, 61, 115
14, 21779, Note_on_c, 12, 61, 0
14, 23100, Note_on_c, 12, 57, 115
14, 23129, Note_on_c, 12, 57, 0
14, 23130, Note_on_c, 12, 59, 115
14, 23159, Note_on_c, 12, 59, 0
14, 23160, Note_on_c, 12, 61, 115
14, 23219, Note_on_c, 12, 61, 0
14, 23220, Note_on_c, 12, 62, 115
14, 23249, Note_on_c, 12, 62, 0
14, 23250, Note_on_c, 12, 59, 115
14, 23279, Note_on_c, 12, 59, 0
14, 23280, Note_on_c, 12, 61, 115
14, 23339, Note_on_c, 12, 61, 0
14, 23340, Note_on_c, 12, 57, 115
14, 23399, Note_on_c, 12, 57, 0
14, 23400, Note_on_c, 12, 62, 115
14, 23459, Note_on_c, 12, 62, 0
14, 23460, Note_on_c, 12, 61, 115
14, 23519, Note_on_c, 12, 61, 0
14, 23520, Note_on_c, 12, 62, 115
14, 23579, Note_on_c, 12, 62, 0
14, 23580, Note_on_c, 12, 62, 115
14, 23699, Note_on_c, 12, 62, 0
14, 23700, Note_on_c, 12, 61, 115
14, 23729, Note_on_c, 12, 61, 0
14, 23730, Note_on_c, 12, 62, 115
14, 23759, Note_on_c, 12, 62, 0
14, 23760, Note_on_c, 12, 64, 115
14, 23819, Note_on_c, 12, 64, 0
14, 23820, Note_on_c, 12, 57, 115
14, 23879, Note_on_c, 12, 57, 0
14, 23880, Note_on_c, 12, 64, 115
14, 23909, Note_on_c, 12, 64, 0
14, 23910, Note_on_c, 12, 62, 115
14, 23939, Note_on_c, 12, 62, 0
14, 23940, Note_on_c, 12, 64, 115
14, 24059, Note_on_c, 12, 64, 0
14, 24060, Note_on_c, 12, 64, 115
14, 24119, Note_on_c, 12, 64, 0
14, 24120, Note_on_c, 12, 62, 115
14, 24179, Note_on_c, 12, 62, 0
14, 24540, Note_on_c, 12, 56, 115
14, 24569, Note_on_c, 12, 56, 0
14, 24570, Note_on_c, 12, 57, 115
14, 24599, Note_on_c, 12, 57, 0
14, 24600, Note_on_c, 12, 59, 115
14, 24659, Note_on_c, 12, 59, 0
14, 24660, Note_on_c, 12, 59, 115
14, 24719, Note_on_c, 12, 59, 0
14, 24720, Note_on_c, 12, 59, 115
14, 24749, Note_on_c, 12, 59, 0
14, 24750, Note_on_c, 12, 57, 115
14, 24779, Note_on_c, 12, 57, 0
14, 24780, Note_on_c, 12, 59, 115
14, 24839, Note_on_c, 12, 59, 0
14, 24840, Note_on_c, 12, 52, 115
14, 24899, Note_on_c, 12, 52, 0
14, 25260, Note_on_c, 12, 62, 115
14, 25289, Note_on_c, 12, 62, 0
14, 25290, Note_on_c, 12, 64, 115
14, 25319, Note_on_c, 12, 64, 0
14, 25320, Note_on_c, 12, 66, 115
14, 25379, Note_on_c, 12, 66, 0
14, 25380, Note_on_c, 12, 66, 115
14, 25439, Note_on_c, 12, 66, 0
14, 25440, Note_on_c, 12, 66, 115
14, 25469, Note_on_c, 12, 66, 0
14, 25470, Note_on_c, 12, 64, 115
14, 25499, Note_on_c, 12, 64, 0
14, 25500, Note_on_c, 12, 66, 115
14, 25559, Note_on_c, 12, 66, 0
14, 25560, Note_on_c, 12, 59, 115
14, 25619, Note_on_c, 12, 59, 0
14, 25620, Note_on_c, 12, 62, 115
14, 25649, Note_on_c, 12, 62, 0
14, 25650, Note_on_c, 12, 61, 115
14, 25679, Note_on_c, 12, 61, 0
14, 25680, Note_on_c, 12, 59, 115
14, 25739, Note_on_c, 12, 59, 0
14, 25740, Note_on_c, 12, 59, 115
14, 25799, Note_on_c, 12, 59, 0
14, 25800, Note_on_c, 12, 59, 115
14, 25859, Note_on_c, 12, 59, 0
14, 25860, Note_on_c, 12, 59, 115
14, 25919, Note_on_c, 12, 59, 0
14, 25920, Note_on_c, 12, 59, 115
14, 25979, Note_on_c, 12, 59, 0
14, 25980, Note_on_c, 12, 62, 115
14, 26009, Note_on_c, 12, 62, 0
14, 26010, Note_on_c, 12, 61, 115
14, 26039, Note_on_c, 12, 61, 0
14, 26040, Note_on_c, 12, 59, 115
14, 26099, Note_on_c, 12, 59, 0
14, 26100, Note_on_c, 12, 64, 115
14, 26159, Note_on_c, 12, 64, 0
14, 26160, Note_on_c, 12, 66, 115
14, 26219, Note_on_c, 12, 66, 0
14, 26220, Note_on_c, 12, 68, 115
14, 26279, Note_on_c, 12, 68, 0
14, 26280, Note_on_c, 12, 64, 115
14, 26339, Note_on_c, 12, 64, 0
14, 26340, Note_on_c, 12, 66, 115
14, 26399, Note_on_c, 12, 66, 0
14, 26400, Note_on_c, 12, 64, 115
14, 26459, Note_on_c, 12, 64, 0
14, 26460, Note_on_c, 12, 62, 115
14, 26519, Note_on_c, 12, 62, 0
14, 26520, Note_on_c, 12, 64, 115
14, 26579, Note_on_c, 12, 64, 0
14, 26580, Note_on_c, 12, 66, 115
14, 26639, Note_on_c, 12, 66, 0
14, 26640, Note_on_c, 12, 64, 115
14, 26759, Note_on_c, 12, 64, 0
14, 26760, Note_on_c, 12, 64, 115
14, 26820, Note_on_c, 12, 64, 0
14, 27540, Note_on_c, 12, 64, 115
14, 27659, Note_on_c, 12, 64, 0
14, 27660, Note_on_c, 12, 61, 115
14, 27719, Note_on_c, 12, 61, 0
14, 27720, Note_on_c, 12, 57, 115
14, 27779, Note_on_c, 12, 57, 0
14, 27780, Note_on_c, 12, 59, 115
14, 27809, Note_on_c, 12, 59, 0
14, 27810, Note_on_c, 12, 61, 115
14, 27839, Note_on_c, 12, 61, 0
14, 27840, Note_on_c, 12, 62, 115
14, 27869, Note_on_c, 12, 62, 0
14, 27870, Note_on_c, 12, 64, 115
14, 27899, Note_on_c, 12, 64, 0
14, 27900, Note_on_c, 12, 66, 115
14, 27959, Note_on_c, 12, 66, 0
14, 27960, Note_on_c, 12, 64, 115
14, 28019, Note_on_c, 12, 64, 0
14, 28020, Note_on_c, 12, 62, 115
14, 28049, Note_on_c, 12, 62, 0
14, 28050, Note_on_c, 12, 61, 115
14, 28079, Note_on_c, 12, 61, 0
14, 28080, Note_on_c, 12, 59, 115
14, 28139, Note_on_c, 12, 59, 0
14, 28140, Note_on_c, 12, 56, 115
14, 28169, Note_on_c, 12, 56, 0
14, 28170, Note_on_c, 12, 57, 115
14, 28199, Note_on_c, 12, 57, 0
14, 28200, Note_on_c, 12, 59, 115
14, 28229, Note_on_c, 12, 59, 0
14, 28230, Note_on_c, 12, 61, 115
14, 28259, Note_on_c, 12, 61, 0
14, 28260, Note_on_c, 12, 62, 115
14, 28319, Note_on_c, 12, 62, 0
14, 28320, Note_on_c, 12, 62, 115
14, 28499, Note_on_c, 12, 62, 0
14, 28500, Note_on_c, 12, 61, 115
14, 28529, Note_on_c, 12, 61, 0
14, 28530, Note_on_c, 12, 59, 115
14, 28559, Note_on_c, 12, 59, 0
14, 28560, Note_on_c, 12, 57, 115
14, 28589, Note_on_c, 12, 57, 0
14, 28590, Note_on_c, 12, 59, 115
14, 28619, Note_on_c, 12, 59, 0
14, 28620, Note_on_c, 12, 61, 115
14, 28649, Note_on_c, 12, 61, 0
14, 28650, Note_on_c, 12, 62, 115
14, 28679, Note_on_c, 12, 62, 0
14, 28680, Note_on_c, 12, 64, 115
14, 28739, Note_on_c, 12, 64, 0
14, 28740, Note_on_c, 12, 64, 115
14, 28799, Note_on_c, 12, 64, 0
14, 28800, Note_on_c, 12, 64, 115
14, 28859, Note_on_c, 12, 64, 0
14, 28860, Note_on_c, 12, 62, 115
14, 28889, Note_on_c, 12, 62, 0
14, 28890, Note_on_c, 12, 61, 115
14, 28919, Note_on_c, 12, 61, 0
14, 28920, Note_on_c, 12, 62, 115
14, 28949, Note_on_c, 12, 62, 0
14, 28950, Note_on_c, 12, 64, 115
14, 28979, Note_on_c, 12, 64, 0
14, 28980, Note_on_c, 12, 66, 115
14, 29039, Note_on_c, 12, 66, 0
14, 29040, Note_on_c, 12, 66, 115
14, 29219, Note_on_c, 12, 66, 0
14, 29220, Note_on_c, 12, 64, 115
14, 29249, Note_on_c, 12, 64, 0
14, 29250, Note_on_c, 12, 62, 115
14, 29279, Note_on_c, 12, 62, 0
14, 29280, Note_on_c, 12, 61, 115
14, 29339, Note_on_c, 12, 61, 0
14, 29340, Note_on_c, 12, 62, 115
14, 29399, Note_on_c, 12, 62, 0
14, 29400, Note_on_c, 12, 64, 115
14, 29459, Note_on_c, 12, 64, 0
14, 29460, Note_on_c, 12, 62, 115
14, 29519, Note_on_c, 12, 62, 0
14, 29520, Note_on_c, 12, 61, 115
14, 29579, Note_on_c, 12, 61, 0
14, 29580, Note_on_c, 12, 64, 115
14, 29699, Note_on_c, 12, 64, 0
14, 29700, Note_on_c, 12, 61, 115
14, 29759, Note_on_c, 12, 61, 0
14, 29760, Note_on_c, 12, 57, 115
14, 29819, Note_on_c, 12, 57, 0
14, 29820, Note_on_c, 12, 61, 115
14, 29879, Note_on_c, 12, 61, 0
14, 29880, Note_on_c, 12, 62, 115
14, 29939, Note_on_c, 12, 62, 0
14, 29940, Note_on_c, 12, 62, 115
14, 30059, Note_on_c, 12, 62, 0
14, 30060, Note_on_c, 12, 61, 115
14, 30119, Note_on_c, 12, 61, 0
14, 30120, Note_on_c, 12, 59, 115
14, 30179, Note_on_c, 12, 59, 0
14, 30180, Note_on_c, 12, 64, 115
14, 30239, Note_on_c, 12, 64, 0
14, 30240, Note_on_c, 12, 64, 115
14, 30660, Note_on_c, 12, 64, 0
14, 30660, Note_on_c, 12, 57, 115
14, 30780, Note_on_c, 12, 57, 0
14, 30780, Note_on_c, 12, 64, 115
14, 30840, Note_on_c, 12, 64, 0
14, 30840, Note_on_c, 12, 61, 115
14, 30900, Note_on_c, 12, 61, 0
14, 30900, Note_on_c, 12, 57, 115
14, 30960, Note_on_c, 12, 57, 0
14, 30960, Note_on_c, 12, 66, 115
14, 31380, Note_on_c, 12, 66, 0
14, 31380, Note_on_c, 12, 66, 115
14, 31410, Note_on_c, 12, 66, 0
14, 31410, Note_on_c, 12, 64, 115
14, 31440, Note_on_c, 12, 64, 0
14, 31440, Note_on_c, 12, 66, 115
14, 31500, Note_on_c, 12, 66, 0
14, 31500, Note_on_c, 12, 63, 115
14, 31560, Note_on_c, 12, 63, 0
14, 31560, Note_on_c, 12, 59, 115
14, 31620, Note_on_c, 12, 59, 0
14, 31620, Note_on_c, 12, 63, 115
14, 31680, Note_on_c, 12, 63, 0
14, 31680, Note_on_c, 12, 64, 115
14, 31740, Note_on_c, 12, 64, 0
14, 31740, Note_on_c, 12, 59, 115
14, 31860, Note_on_c, 12, 59, 0
14, 31860, Note_on_c, 12, 59, 115
14, 31920, Note_on_c, 12, 59, 0
14, 31920, Note_on_c, 12, 56, 115
14, 31980, Note_on_c, 12, 56, 0
14, 31980, Note_on_c, 12, 52, 115
14, 32040, Note_on_c, 12, 52, 0
14, 32040, Note_on_c, 12, 59, 115
14, 32100, Note_on_c, 12, 59, 0
14, 32100, Note_on_c, 12, 56, 115
14, 32190, Note_on_c, 12, 56, 0
14, 32190, Note_on_c, 12, 57, 115
14, 32220, Note_on_c, 12, 57, 0
14, 32220, Note_on_c, 12, 59, 115
14, 32250, Note_on_c, 12, 59, 0
14, 32250, Note_on_c, 12, 61, 115
14, 32280, Note_on_c, 12, 61, 0
14, 32280, Note_on_c, 12, 62, 115
14, 32340, Note_on_c, 12, 62, 0
14, 32340, Note_on_c, 12, 59, 115
14, 32400, Note_on_c, 12, 59, 0
14, 32400, Note_on_c, 12, 57, 115
14, 33390, Note_on_c, 12, 57, 0
14, 33390, Note_on_c, 12, 56, 115
14, 33420, Note_on_c, 12, 56, 0
14, 33420, Note_on_c, 12, 54, 115
14, 33450, Note_on_c, 12, 54, 0
14, 33450, Note_on_c, 12, 52, 115
14, 33480, Note_on_c, 12, 52, 0
14, 33480, Note_on_c, 12, 54, 115
14, 33540, Note_on_c, 12, 54, 0
14, 33540, Note_on_c, 12, 56, 115
14, 33600, Note_on_c, 12, 56, 0
14, 33600, Note_on_c, 12, 59, 115
14, 33720, Note_on_c, 12, 59, 0
14, 33720, Note_on_c, 12, 64, 115
14, 33840, Note_on_c, 12, 64, 0
14, 33840, Note_on_c, 12, 64, 115
14, 33900, Note_on_c, 12, 64, 0
14, 33960, Note_on_c, 12, 62, 115
14, 34020, Note_on_c, 12, 62, 0
14, 34080, Note_on_c, 12, 57, 115
14, 34140, Note_on_c, 12, 57, 0
14, 34200, Note_on_c, 12, 54, 115
14, 34260, Note_on_c, 12, 54, 0
14, 34260, Note_on_c, 12, 62, 115
14, 34380, Note_on_c, 12, 62, 0
14, 34380, Note_on_c, 12, 61, 115
14, 34500, Note_on_c, 12, 61, 0
14, 34500, Note_on_c, 12, 62, 115
14, 34530, Note_on_c, 12, 62, 0
14, 34530, Note_on_c, 12, 61, 115
14, 34560, Note_on_c, 12, 61, 0
14, 34560, Note_on_c, 12, 59, 115
14, 34620, Note_on_c, 12, 59, 0
14, 34620, Note_on_c, 12, 59, 115
14, 34680, Note_on_c, 12, 59, 0
14, 34680, Note_on_c, 12, 57, 115
14, 34740, Note_on_c, 12, 57, 0
14, 34740, Note_on_c, 12, 52, 115
14, 34800, Note_on_c, 12, 52, 0
14, 34800, Note_on_c, 12, 64, 115
14, 34860, Note_on_c, 12, 64, 0
14, 34860, Note_on_c, 12, 62, 115
14, 34920, Note_on_c, 12, 62, 0
14, 34920, Note_on_c, 12, 61, 115
14, 35040, Note_on_c, 12, 61, 0
14, 35100, Note_on_c, 12, 64, 115
14, 35129, Note_on_c, 12, 64, 0
14, 35130, Note_on_c, 12, 62, 115
14, 35159, Note_on_c, 12, 62, 0
14, 35160, Note_on_c, 12, 61, 115
14, 35219, Note_on_c, 12, 61, 0
14, 35220, Note_on_c, 12, 59, 115
14, 35279, Note_on_c, 12, 59, 0
14, 35280, Note_on_c, 12, 57, 115
14, 35339, Note_on_c, 12, 57, 0
14, 35340, Note_on_c, 12, 59, 115
14, 35399, Note_on_c, 12, 59, 0
14, 35400, Note_on_c, 12, 61, 115
14, 35459, Note_on_c, 12, 61, 0
14, 35460, Note_on_c, 12, 62, 115
14, 35519, Note_on_c, 12, 62, 0
14, 35520, Note_on_c, 12, 61, 115
14, 35579, Note_on_c, 12, 61, 0
14, 35580, Note_on_c, 12, 61, 115
14, 35639, Note_on_c, 12, 61, 0
14, 35640, Note_on_c, 12, 61, 115
14, 35759, Note_on_c, 12, 61, 0
14, 36540, Note_on_c, 12, 54, 115
14, 36599, Note_on_c, 12, 54, 0
14, 36600, Note_on_c, 12, 57, 115
14, 36779, Note_on_c, 12, 57, 0
14, 36780, Note_on_c, 12, 66, 115
14, 36839, Note_on_c, 12, 66, 0
14, 36840, Note_on_c, 12, 64, 115
14, 36899, Note_on_c, 12, 64, 0
14, 36900, Note_on_c, 12, 57, 115
14, 36959, Note_on_c, 12, 57, 0
14, 36960, Note_on_c, 12, 59, 115
14, 37019, Note_on_c, 12, 59, 0
14, 37020, Note_on_c, 12, 61, 115
14, 37079, Note_on_c, 12, 61, 0
14, 37080, Note_on_c, 12, 59, 115
14, 37199, Note_on_c, 12, 59, 0
14, 38040, Note_on_c, 12, 61, 115
14, 38099, Note_on_c, 12, 61, 0
14, 38100, Note_on_c, 12, 66, 115
14, 38159, Note_on_c, 12, 66, 0
14, 38160, Note_on_c, 12, 66, 115
14, 38339, Note_on_c, 12, 66, 0
14, 38340, Note_on_c, 12, 59, 115
14, 38459, Note_on_c, 12, 59, 0
14, 38460, Note_on_c, 12, 64, 115
14, 38519, Note_on_c, 12, 64, 0
14, 38520, Note_on_c, 12, 64, 115
14, 38699, Note_on_c, 12, 64, 0
14, 38700, Note_on_c, 12, 57, 115
14, 38759, Note_on_c, 12, 57, 0
14, 38760, Note_on_c, 12, 57, 115
14, 38819, Note_on_c, 12, 57, 0
14, 38820, Note_on_c, 12, 57, 115
14, 38879, Note_on_c, 12, 57, 0
14, 38880, Note_on_c, 12, 56, 115
14, 38999, Note_on_c, 12, 56, 0
14, 39000, Note_on_c, 12, 56, 115
14, 39059, Note_on_c, 12, 56, 0
14, 39060, Note_on_c, 12, 60, 115
14, 39119, Note_on_c, 12, 60, 0
14, 39120, Note_on_c, 12, 61, 115
14, 39179, Note_on_c, 12, 61, 0
14, 39180, Note_on_c, 12, 63, 115
14, 39239, Note_on_c, 12, 63, 0
14, 39240, Note_on_c, 12, 63, 115
14, 39299, Note_on_c, 12, 63, 0
14, 39300, Note_on_c, 12, 61, 115
14, 39329, Note_on_c, 12, 61, 0
14, 39330, Note_on_c, 12, 60, 115
14, 39359, Note_on_c, 12, 60, 0
14, 39360, Note_on_c, 12, 61, 115
14, 39419, Note_on_c, 12, 61, 0
14, 39420, Note_on_c, 12, 61, 115
14, 39479, Note_on_c, 12, 61, 0
14, 39480, Note_on_c, 12, 66, 115
14, 39539, Note_on_c, 12, 66, 0
14, 39540, Note_on_c, 12, 64, 115
14, 39569, Note_on_c, 12, 64, 0
14, 39570, Note_on_c, 12, 63, 115
14, 39599, Note_on_c, 12, 63, 0
14, 39600, Note_on_c, 12, 64, 115
14, 39719, Note_on_c, 12, 64, 0
14, 40560, Note_on_c, 12, 56, 115
14, 40619, Note_on_c, 12, 56, 0
14, 40620, Note_on_c, 12, 57, 115
14, 40679, Note_on_c, 12, 57, 0
14, 40680, Note_on_c, 12, 59, 115
14, 40859, Note_on_c, 12, 59, 0
14, 40860, Note_on_c, 12, 64, 115
14, 40919, Note_on_c, 12, 64, 0
14, 40920, Note_on_c, 12, 61, 115
14, 40979, Note_on_c, 12, 61, 0
14, 40980, Note_on_c, 12, 66, 115
14, 41039, Note_on_c, 12, 66, 0
14, 41040, Note_on_c, 12, 66, 115
14, 41159, Note_on_c, 12, 66, 0
14, 41820, Note_on_c, 12, 62, 115
14, 41939, Note_on_c, 12, 62, 0
14, 41940, Note_on_c, 12, 61, 115
14, 41999, Note_on_c, 12, 61, 0
14, 42000, Note_on_c, 12, 59, 115
14, 42179, Note_on_c, 12, 59, 0
14, 42180, Note_on_c, 12, 57, 115
14, 42209, Note_on_c, 12, 57, 0
14, 42210, Note_on_c, 12, 56, 115
14, 42239, Note_on_c, 12, 56, 0
14, 42240, Note_on_c, 12, 57, 115
14, 42269, Note_on_c, 12, 57, 0
14, 42270, Note_on_c, 12, 59, 115
14, 42299, Note_on_c, 12, 59, 0
14, 42300, Note_on_c, 12, 61, 115
14, 42389, Note_on_c, 12, 61, 0
14, 42390, Note_on_c, 12, 57, 115
14, 42419, Note_on_c, 12, 57, 0
14, 42420, Note_on_c, 12, 59, 115
14, 42479, Note_on_c, 12, 59, 0
14, 42480, Note_on_c, 12, 57, 115
14, 42599, Note_on_c, 12, 57, 0
14, 43440, Note_on_c, 12, 66, 115
14, 43499, Note_on_c, 12, 66, 0
14, 43500, Note_on_c, 12, 62, 115
14, 43559, Note_on_c, 12, 62, 0
14, 43560, Note_on_c, 12, 59, 115
14, 43619, Note_on_c, 12, 59, 0
14, 43620, Note_on_c, 12, 64, 115
14, 43739, Note_on_c, 12, 64, 0
14, 43740, Note_on_c, 12, 64, 115
14, 43799, Note_on_c, 12, 64, 0
14, 43800, Note_on_c, 12, 64, 115
14, 43859, Note_on_c, 12, 64, 0
14, 43860, Note_on_c, 12, 57, 115
14, 43919, Note_on_c, 12, 57, 0
14, 43920, Note_on_c, 12, 57, 115
14, 43979, Note_on_c, 12, 57, 0
14, 43980, Note_on_c, 12, 54, 115
14, 44039, Note_on_c, 12, 54, 0
14, 44040, Note_on_c, 12, 59, 115
14, 44339, Note_on_c, 12, 59, 0
14, 44340, Note_on_c, 12, 57, 115
14, 44399, Note_on_c, 12, 57, 0
14, 44400, Note_on_c, 12, 56, 115
14, 44459, Note_on_c, 12, 56, 0
14, 44460, Note_on_c, 12, 61, 115
14, 44519, Note_on_c, 12, 61, 0
14, 44520, Note_on_c, 12, 54, 115
14, 44579, Note_on_c, 12, 54, 0
14, 44580, Note_on_c, 12, 61, 115
14, 44639, Note_on_c, 12, 61, 0
14, 44640, Note_on_c, 12, 61, 115
14, 44699, Note_on_c, 12, 61, 0
14, 44700, Note_on_c, 12, 54, 115
14, 44729, Note_on_c, 12, 54, 0
14, 44730, Note_on_c, 12, 56, 115
14, 44759, Note_on_c, 12, 56, 0
14, 44760, Note_on_c, 12, 57, 115
14, 44819, Note_on_c, 12, 57, 0
14, 44820, Note_on_c, 12, 57, 115
14, 44879, Note_on_c, 12, 57, 0
14, 44880, Note_on_c, 12, 59, 115
14, 44939, Note_on_c, 12, 59, 0
14, 44940, Note_on_c, 12, 57, 115
14, 44969, Note_on_c, 12, 57, 0
14, 44970, Note_on_c, 12, 56, 115
14, 44999, Note_on_c, 12, 56, 0
14, 45000, Note_on_c, 12, 57, 115
14, 45119, Note_on_c, 12, 57, 0
14, 51540, Note_on_c, 12, 61, 115
14, 51570, Note_on_c, 12, 61, 0
14, 51570, Note_on_c, 12, 62, 115
14, 51600, Note_on_c, 12, 62, 0
14, 51600, Note_on_c, 12, 64, 115
14, 51660, Note_on_c, 12, 64, 0
14, 51660, Note_on_c, 12, 64, 115
14, 51720, Note_on_c, 12, 64, 0
14, 51720, Note_on_c, 12, 66, 115
14, 51750, Note_on_c, 12, 66, 0
14, 51750, Note_on_c, 12, 64, 115
14, 51780, Note_on_c, 12, 64, 0
14, 51780, Note_on_c, 12, 66, 115
14, 51840, Note_on_c, 12, 66, 0
14, 51840, Note_on_c, 12, 64, 115
14, 51900, Note_on_c, 12, 64, 0
14, 52200, Note_on_c, 12, 61, 115
14, 52260, Note_on_c, 12, 61, 0
14, 52260, Note_on_c, 12, 61, 115
14, 52320, Note_on_c, 12, 61, 0
14, 52320, Note_on_c, 12, 64, 115
14, 52380, Note_on_c, 12, 64, 0
14, 52380, Note_on_c, 12, 61, 115
14, 52440, Note_on_c, 12, 61, 0
14, 52440, Note_on_c, 12, 59, 115
14, 52500, Note_on_c, 12, 59, 0
14, 52500, Note_on_c, 12, 59, 115
14, 52560, Note_on_c, 12, 59, 0
14, 52560, Note_on_c, 12, 61, 115
14, 52620, Note_on_c, 12, 61, 0
14, 52620, Note_on_c, 12, 61, 115
14, 52650, Note_on_c, 12, 61, 0
14, 52650, Note_on_c, 12, 59, 115
14, 52680, Note_on_c, 12, 59, 0
14, 52680, Note_on_c, 12, 57, 115
14, 52740, Note_on_c, 12, 57, 0
14, 52980, Note_on_c, 12, 56, 115
14, 53010, Note_on_c, 12, 56, 0
14, 53010, Note_on_c, 12, 57, 115
14, 53040, Note_on_c, 12, 57, 0
14, 53040, Note_on_c, 12, 59, 115
14, 53100, Note_on_c, 12, 59, 0
14, 53100, Note_on_c, 12, 59, 115
14, 53160, Note_on_c, 12, 59, 0
14, 53160, Note_on_c, 12, 61, 115
14, 53190, Note_on_c, 12, 61, 0
14, 53190, Note_on_c, 12, 59, 115
14, 53220, Note_on_c, 12, 59, 0
14, 53220, Note_on_c, 12, 61, 115
14, 53280, Note_on_c, 12, 61, 0
14, 53280, Note_on_c, 12, 59, 115
14, 53340, Note_on_c, 12, 59, 0
14, 53340, Note_on_c, 12, 59, 115
14, 53460, Note_on_c, 12, 59, 0
14, 53460, Note_on_c, 12, 56, 115
14, 53520, Note_on_c, 12, 56, 0
14, 53520, Note_on_c, 12, 52, 115
14, 53580, Note_on_c, 12, 52, 0
14, 53580, Note_on_c, 12, 64, 115
14, 53640, Note_on_c, 12, 64, 0
14, 53640, Note_on_c, 12, 64, 115
14, 53700, Note_on_c, 12, 64, 0
14, 54000, Note_on_c, 12, 64, 115
14, 54060, Note_on_c, 12, 64, 0
14, 54060, Note_on_c, 12, 64, 115
14, 54120, Note_on_c, 12, 64, 0
14, 54120, Note_on_c, 12, 59, 115
14, 54180, Note_on_c, 12, 59, 0
14, 54180, Note_on_c, 12, 64, 115
14, 54240, Note_on_c, 12, 64, 0
14, 54240, Note_on_c, 12, 63, 115
14, 54300, Note_on_c, 12, 63, 0
14, 54300, Note_on_c, 12, 63, 115
14, 54360, Note_on_c, 12, 63, 0
14, 54360, Note_on_c, 12, 64, 115
14, 54480, Note_on_c, 12, 64, 0
14, 54480, Note_on_c, 12, 59, 115
14, 54540, Note_on_c, 12, 59, 0
14, 54780, Note_on_c, 12, 57, 115
14, 54810, Note_on_c, 12, 57, 0
14, 54810, Note_on_c, 12, 59, 115
14, 54840, Note_on_c, 12, 59, 0
14, 54840, Note_on_c, 12, 61, 115
14, 54900, Note_on_c, 12, 61, 0
14, 54900, Note_on_c, 12, 61, 115
14, 54960, Note_on_c, 12, 61, 0
14, 54960, Note_on_c, 12, 62, 115
14, 54990, Note_on_c, 12, 62, 0
14, 54990, Note_on_c, 12, 61, 115
14, 55020, Note_on_c, 12, 61, 0
14, 55020, Note_on_c, 12, 62, 115
14, 55080, Note_on_c, 12, 62, 0
14, 55080, Note_on_c, 12, 64, 115
14, 55140, Note_on_c, 12, 64, 0
14, 55140, Note_on_c, 12, 64, 115
14, 55200, Note_on_c, 12, 64, 0
14, 55200, Note_on_c, 12, 62, 115
14, 55260, Note_on_c, 12, 62, 0
14, 55260, Note_on_c, 12, 61, 115
14, 55320, Note_on_c, 12, 61, 0
14, 55320, Note_on_c, 12, 59, 115
14, 55380, Note_on_c, 12, 59, 0
14, 55380, Note_on_c, 12, 57, 115
14, 55440, Note_on_c, 12, 57, 0
14, 55440, Note_on_c, 12, 64, 115
14, 55500, Note_on_c, 12, 64, 0
14, 55800, Note_on_c, 12, 64, 115
14, 55860, Note_on_c, 12, 64, 0
14, 55860, Note_on_c, 12, 61, 115
14, 55920, Note_on_c, 12, 61, 0
14, 55920, Note_on_c, 12, 61, 115
14, 55980, Note_on_c, 12, 61, 0
14, 55980, Note_on_c, 12, 64, 115
14, 56040, Note_on_c, 12, 64, 0
14, 56040, Note_on_c, 12, 64, 115
14, 56100, Note_on_c, 12, 64, 0
14, 56100, Note_on_c, 12, 64, 115
14, 56160, Note_on_c, 12, 64, 0
14, 56160, Note_on_c, 12, 64, 115
14, 56220, Note_on_c, 12, 64, 0
14, 56220, Note_on_c, 12, 64, 115
14, 56250, Note_on_c, 12, 64, 0
14, 56250, Note_on_c, 12, 62, 115
14, 56280, Note_on_c, 12, 62, 0
14, 56280, Note_on_c, 12, 61, 115
14, 56340, Note_on_c, 12, 61, 0
14, 56340, Note_on_c, 12, 64, 115
14, 56460, Note_on_c, 12, 64, 0
14, 56460, Note_on_c, 12, 61, 115
14, 56520, Note_on_c, 12, 61, 0
14, 56520, Note_on_c, 12, 57, 115
14, 56580, Note_on_c, 12, 57, 0
14, 56580, Note_on_c, 12, 59, 115
14, 56610, Note_on_c, 12, 59, 0
14, 56610, Note_on_c, 12, 61, 115
14, 56640, Note_on_c, 12, 61, 0
14, 56640, Note_on_c, 12, 62, 115
14, 56670, Note_on_c, 12, 62, 0
14, 56670, Note_on_c, 12, 64, 115
14, 56700, Note_on_c, 12, 64, 0
14, 56700, Note_on_c, 12, 66, 115
14, 56760, Note_on_c, 12, 66, 0
14, 56760, Note_on_c, 12, 64, 115
14, 56820, Note_on_c, 12, 64, 0
14, 56820, Note_on_c, 12, 62, 115
14, 56850, Note_on_c, 12, 62, 0
14, 56850, Note_on_c, 12, 61, 115
14, 56880, Note_on_c, 12, 61, 0
14, 56880, Note_on_c, 12, 59, 115
14, 56940, Note_on_c, 12, 59, 0
14, 56940, Note_on_c, 12, 56, 115
14, 56970, Note_on_c, 12, 56, 0
14, 56970, Note_on_c, 12, 57, 115
14, 57000, Note_on_c, 12, 57, 0
14, 57000, Note_on_c, 12, 59, 115
14, 57030, Note_on_c, 12, 59, 0
14, 57030, Note_on_c, 12, 61, 115
14, 57060, Note_on_c, 12, 61, 0
14, 57060, Note_on_c, 12, 62, 115
14, 57120, Note_on_c, 12, 62, 0
14, 57120, Note_on_c, 12, 62, 115
14, 57300, Note_on_c, 12, 62, 0
14, 57300, Note_on_c, 12, 61, 115
14, 57330, Note_on_c, 12, 61, 0
14, 57330, Note_on_c, 12, 59, 115
14, 57360, Note_on_c, 12, 59, 0
14, 57360, Note_on_c, 12, 61, 115
14, 57390, Note_on_c, 12, 61, 0
14, 57390, Note_on_c, 12, 63, 115
14, 57420, Note_on_c, 12, 63, 0
14, 57420, Note_on_c, 12, 64, 115
14, 57480, Note_on_c, 12, 64, 0
14, 57480, Note_on_c, 12, 66, 115
14, 57540, Note_on_c, 12, 66, 0
14, 57540, Note_on_c, 12, 64, 115
14, 57600, Note_on_c, 12, 64, 0
14, 57600, Note_on_c, 12, 63, 115
14, 57659, Note_on_c, 12, 63, 0
14, 57660, Note_on_c, 12, 66, 115
14, 57779, Note_on_c, 12, 66, 0
14, 57780, Note_on_c, 12, 63, 115
14, 57839, Note_on_c, 12, 63, 0
14, 57840, Note_on_c, 12, 59, 115
14, 57899, Note_on_c, 12, 59, 0
14, 57900, Note_on_c, 12, 63, 115
14, 57959, Note_on_c, 12, 63, 0
14, 57960, Note_on_c, 12, 64, 115
14, 58019, Note_on_c, 12, 64, 0
14, 58020, Note_on_c, 12, 59, 115
14, 58049, Note_on_c, 12, 59, 0
14, 58050, Note_on_c, 12, 57, 115
14, 58079, Note_on_c, 12, 57, 0
14, 58080, Note_on_c, 12, 59, 115
14, 58139, Note_on_c, 12, 59, 0
14, 58140, Note_on_c, 12, 52, 115
14, 58199, Note_on_c, 12, 52, 0
14, 58200, Note_on_c, 12, 62, 115
14, 58229, Note_on_c, 12, 62, 0
14, 58230, Note_on_c, 12, 61, 115
14, 58259, Note_on_c, 12, 61, 0
14, 58260, Note_on_c, 12, 62, 115
14, 58319, Note_on_c, 12, 62, 0
14, 58320, Note_on_c, 12, 61, 115
14, 58379, Note_on_c, 12, 61, 0
14, 58380, Note_on_c, 12, 64, 115
14, 58499, Note_on_c, 12, 64, 0
14, 58500, Note_on_c, 12, 61, 115
14, 58559, Note_on_c, 12, 61, 0
14, 58560, Note_on_c, 12, 57, 115
14, 58619, Note_on_c, 12, 57, 0
14, 58620, Note_on_c, 12, 64, 115
14, 58679, Note_on_c, 12, 64, 0
14, 58680, Note_on_c, 12, 66, 115
14, 58829, Note_on_c, 12, 66, 0
14, 58830, Note_on_c, 12, 64, 115
14, 58859, Note_on_c, 12, 64, 0
14, 58860, Note_on_c, 12, 62, 115
14, 58889, Note_on_c, 12, 62, 0
14, 58890, Note_on_c, 12, 61, 115
14, 58919, Note_on_c, 12, 61, 0
14, 58920, Note_on_c, 12, 59, 115
14, 58979, Note_on_c, 12, 59, 0
14, 58980, Note_on_c, 12, 64, 115
14, 59039, Note_on_c, 12, 64, 0
14, 59040, Note_on_c, 12, 64, 115
14, 59099, Note_on_c, 12, 64, 0
14, 59100, Note_on_c, 12, 52, 115
14, 59129, Note_on_c, 12, 52, 0
14, 59130, Note_on_c, 12, 54, 115
14, 59159, Note_on_c, 12, 54, 0
14, 59160, Note_on_c, 12, 56, 115
14, 59189, Note_on_c, 12, 56, 0
14, 59190, Note_on_c, 12, 57, 115
14, 59219, Note_on_c, 12, 57, 0
14, 59220, Note_on_c, 12, 59, 115
14, 59279, Note_on_c, 12, 59, 0
14, 59280, Note_on_c, 12, 59, 115
14, 59339, Note_on_c, 12, 59, 0
14, 59340, Note_on_c, 12, 64, 115
14, 59399, Note_on_c, 12, 64, 0
14, 59400, Note_on_c, 12, 64, 115
14, 59459, Note_on_c, 12, 64, 0
14, 59460, Note_on_c, 12, 57, 115
14, 59579, Note_on_c, 12, 57, 0
14, 59580, Note_on_c, 12, 56, 115
14, 59639, Note_on_c, 12, 56, 0
14, 59640, Note_on_c, 12, 54, 115
14, 59699, Note_on_c, 12, 54, 0
14, 59700, Note_on_c, 12, 56, 115
14, 59729, Note_on_c, 12, 56, 0
14, 59730, Note_on_c, 12, 57, 115
14, 59759, Note_on_c, 12, 57, 0
14, 59760, Note_on_c, 12, 59, 115
14, 59819, Note_on_c, 12, 59, 0
14, 59820, Note_on_c, 12, 63, 115
14, 59939, Note_on_c, 12, 63, 0
14, 59940, Note_on_c, 12, 54, 115
14, 59999, Note_on_c, 12, 54, 0
14, 60000, Note_on_c, 12, 59, 115
14, 60059, Note_on_c, 12, 59, 0
14, 60060, Note_on_c, 12, 66, 115
14, 60119, Note_on_c, 12, 66, 0
14, 60120, Note_on_c, 12, 64, 115
14, 60239, Note_on_c, 12, 64, 0
14, 60300, Note_on_c, 12, 59, 115
14, 60419, Note_on_c, 12, 59, 0
14, 60420, Note_on_c, 12, 62, 115
14, 60479, Note_on_c, 12, 62, 0
14, 60480, Note_on_c, 12, 61, 115
14, 60900, Note_on_c, 12, 61, 0
14, 60900, Note_on_c, 12, 61, 115
14, 60929, Note_on_c, 12, 61, 0
14, 60930, Note_on_c, 12, 59, 115
14, 60959, Note_on_c, 12, 59, 0
14, 60960, Note_on_c, 12, 61, 115
14, 61019, Note_on_c, 12, 61, 0
14, 61020, Note_on_c, 12, 58, 115
14, 61079, Note_on_c, 12, 58, 0
14, 61080, Note_on_c, 12, 54, 115
14, 61139, Note_on_c, 12, 54, 0
14, 61140, Note_on_c, 12, 58, 115
14, 61199, Note_on_c, 12, 58, 0
14, 61200, Note_on_c, 12, 59, 115
14, 61259, Note_on_c, 12, 59, 0
14, 61260, Note_on_c, 12, 66, 115
14, 61379, Note_on_c, 12, 66, 0
14, 61380, Note_on_c, 12, 66, 115
14, 61439, Note_on_c, 12, 66, 0
14, 61440, Note_on_c, 12, 63, 115
14, 61499, Note_on_c, 12, 63, 0
14, 61500, Note_on_c, 12, 59, 115
14, 61559, Note_on_c, 12, 59, 0
14, 61560, Note_on_c, 12, 54, 115
14, 61619, Note_on_c, 12, 54, 0
14, 61620, Note_on_c, 12, 63, 115
14, 61709, Note_on_c, 12, 63, 0
14, 61710, Note_on_c, 12, 64, 115
14, 61739, Note_on_c, 12, 64, 0
14, 61740, Note_on_c, 12, 66, 115
14, 61769, Note_on_c, 12, 66, 0
14, 61770, Note_on_c, 12, 68, 115
14, 61799, Note_on_c, 12, 68, 0
14, 61800, Note_on_c, 12, 69, 115
14, 61859, Note_on_c, 12, 69, 0
14, 61860, Note_on_c, 12, 66, 115
14, 61919, Note_on_c, 12, 66, 0
14, 61920, Note_on_c, 12, 64, 115
14, 62910, Note_on_c, 12, 64, 0
14, 62910, Note_on_c, 12, 63, 115
14, 62939, Note_on_c, 12, 63, 0
14, 62940, Note_on_c, 12, 61, 115
14, 62969, Note_on_c, 12, 61, 0
14, 62970, Note_on_c, 12, 59, 115
14, 62999, Note_on_c, 12, 59, 0
14, 63000, Note_on_c, 12, 61, 115
14, 63059, Note_on_c, 12, 61, 0
14, 63060, Note_on_c, 12, 63, 115
14, 63119, Note_on_c, 12, 63, 0
14, 63120, Note_on_c, 12, 66, 115
14, 63239, Note_on_c, 12, 66, 0
14, 63240, Note_on_c, 12, 59, 115
14, 63359, Note_on_c, 12, 59, 0
14, 63360, Note_on_c, 12, 59, 115
14, 63419, Note_on_c, 12, 59, 0
14, 63480, Note_on_c, 12, 57, 115
14, 63539, Note_on_c, 12, 57, 0
14, 63600, Note_on_c, 12, 64, 115
14, 63659, Note_on_c, 12, 64, 0
14, 63720, Note_on_c, 12, 61, 115
14, 63779, Note_on_c, 12, 61, 0
14, 63780, Note_on_c, 12, 69, 115
14, 63899, Note_on_c, 12, 69, 0
14, 63900, Note_on_c, 12, 68, 115
14, 64019, Note_on_c, 12, 68, 0
14, 64020, Note_on_c, 12, 69, 115
14, 64049, Note_on_c, 12, 69, 0
14, 64050, Note_on_c, 12, 68, 115
14, 64079, Note_on_c, 12, 68, 0
14, 64080, Note_on_c, 12, 66, 115
14, 64139, Note_on_c, 12, 66, 0
14, 64140, Note_on_c, 12, 66, 115
14, 64199, Note_on_c, 12, 66, 0
14, 64200, Note_on_c, 12, 64, 115
14, 64319, Note_on_c, 12, 64, 0
14, 64320, Note_on_c, 12, 59, 115
14, 64439, Note_on_c, 12, 59, 0
14, 64440, Note_on_c, 12, 59, 115
14, 64559, Note_on_c, 12, 59, 0
14, 66300, Note_on_c, 12, 61, 115
14, 66329, Note_on_c, 12, 61, 0
14, 66330, Note_on_c, 12, 62, 115
14, 66359, Note_on_c, 12, 62, 0
14, 66360, Note_on_c, 12, 64, 115
14, 66419, Note_on_c, 12, 64, 0
14, 66420, Note_on_c, 12, 66, 115
14, 66449, Note_on_c, 12, 66, 0
14, 66450, Note_on_c, 12, 68, 115
14, 66479, Note_on_c, 12, 68, 0
14, 66480, Note_on_c, 12, 69, 115
14, 66539, Note_on_c, 12, 69, 0
14, 66540, Note_on_c, 12, 61, 115
14, 66599, Note_on_c, 12, 61, 0
14, 66600, Note_on_c, 12, 59, 115
14, 66659, Note_on_c, 12, 59, 0
14, 66660, Note_on_c, 12, 64, 115
14, 66719, Note_on_c, 12, 64, 0
14, 66720, Note_on_c, 12, 64, 115
14, 66779, Note_on_c, 12, 64, 0
14, 66780, Note_on_c, 12, 64, 115
14, 66839, Note_on_c, 12, 64, 0
14, 66840, Note_on_c, 12, 64, 115
14, 66899, Note_on_c, 12, 64, 0
14, 66900, Note_on_c, 12, 64, 115
14, 66959, Note_on_c, 12, 64, 0
14, 66960, Note_on_c, 12, 64, 115
14, 67019, Note_on_c, 12, 64, 0
14, 67020, Note_on_c, 12, 64, 115
14, 67049, Note_on_c, 12, 64, 0
14, 67050, Note_on_c, 12, 62, 115
14, 67079, Note_on_c, 12, 62, 0
14, 67080, Note_on_c, 12, 61, 115
14, 67139, Note_on_c, 12, 61, 0
14, 68460, Note_on_c, 12, 57, 115
14, 68489, Note_on_c, 12, 57, 0
14, 68490, Note_on_c, 12, 59, 115
14, 68519, Note_on_c, 12, 59, 0
14, 68520, Note_on_c, 12, 61, 115
14, 68579, Note_on_c, 12, 61, 0
14, 68580, Note_on_c, 12, 62, 115
14, 68609, Note_on_c, 12, 62, 0
14, 68610, Note_on_c, 12, 59, 115
14, 68639, Note_on_c, 12, 59, 0
14, 68640, Note_on_c, 12, 61, 115
14, 68699, Note_on_c, 12, 61, 0
14, 68700, Note_on_c, 12, 57, 115
14, 68759, Note_on_c, 12, 57, 0
14, 68760, Note_on_c, 12, 62, 115
14, 68819, Note_on_c, 12, 62, 0
14, 68820, Note_on_c, 12, 61, 115
14, 68879, Note_on_c, 12, 61, 0
14, 68880, Note_on_c, 12, 62, 115
14, 68939, Note_on_c, 12, 62, 0
14, 68940, Note_on_c, 12, 62, 115
14, 69059, Note_on_c, 12, 62, 0
14, 69060, Note_on_c, 12, 61, 115
14, 69089, Note_on_c, 12, 61, 0
14, 69090, Note_on_c, 12, 62, 115
14, 69119, Note_on_c, 12, 62, 0
14, 69120, Note_on_c, 12, 64, 115
14, 69179, Note_on_c, 12, 64, 0
14, 69180, Note_on_c, 12, 57, 115
14, 69239, Note_on_c, 12, 57, 0
14, 69240, Note_on_c, 12, 64, 115
14, 69269, Note_on_c, 12, 64, 0
14, 69270, Note_on_c, 12, 62, 115
14, 69299, Note_on_c, 12, 62, 0
14, 69300, Note_on_c, 12, 64, 115
14, 69419, Note_on_c, 12, 64, 0
14, 69420, Note_on_c, 12, 64, 115
14, 69479, Note_on_c, 12, 64, 0
14, 69480, Note_on_c, 12, 62, 115
14, 69539, Note_on_c, 12, 62, 0
14, 69900, Note_on_c, 12, 56, 115
14, 69929, Note_on_c, 12, 56, 0
14, 69930, Note_on_c, 12, 57, 115
14, 69959, Note_on_c, 12, 57, 0
14, 69960, Note_on_c, 12, 59, 115
14, 70019, Note_on_c, 12, 59, 0
14, 70020, Note_on_c, 12, 59, 115
14, 70079, Note_on_c, 12, 59, 0
14, 70080, Note_on_c, 12, 59, 115
14, 70109, Note_on_c, 12, 59, 0
14, 70110, Note_on_c, 12, 57, 115
14, 70139, Note_on_c, 12, 57, 0
14, 70140, Note_on_c, 12, 59, 115
14, 70199, Note_on_c, 12, 59, 0
14, 70200, Note_on_c, 12, 52, 115
14, 70259, Note_on_c, 12, 52, 0
14, 70620, Note_on_c, 12, 62, 115
14, 70649, Note_on_c, 12, 62, 0
14, 70650, Note_on_c, 12, 64, 115
14, 70679, Note_on_c, 12, 64, 0
14, 70680, Note_on_c, 12, 66, 115
14, 70739, Note_on_c, 12, 66, 0
14, 70740, Note_on_c, 12, 66, 115
14, 70799, Note_on_c, 12, 66, 0
14, 70800, Note_on_c, 12, 66, 115
14, 70829, Note_on_c, 12, 66, 0
14, 70830, Note_on_c, 12, 64, 115
14, 70859, Note_on_c, 12, 64, 0
14, 70860, Note_on_c, 12, 66, 115
14, 70919, Note_on_c, 12, 66, 0
14, 70920, Note_on_c, 12, 59, 115
14, 70979, Note_on_c, 12, 59, 0
14, 70980, Note_on_c, 12, 62, 115
14, 71009, Note_on_c, 12, 62, 0
14, 71010, Note_on_c, 12, 61, 115
14, 71039, Note_on_c, 12, 61, 0
14, 71040, Note_on_c, 12, 59, 115
14, 71099, Note_on_c, 12, 59, 0
14, 71100, Note_on_c, 12, 59, 115
14, 71159, Note_on_c, 12, 59, 0
14, 71160, Note_on_c, 12, 59, 115
14, 71219, Note_on_c, 12, 59, 0
14, 71220, Note_on_c, 12, 59, 115
14, 71279, Note_on_c, 12, 59, 0
14, 71280, Note_on_c, 12, 59, 115
14, 71339, Note_on_c, 12, 59, 0
14, 71340, Note_on_c, 12, 62, 115
14, 71369, Note_on_c, 12, 62, 0
14, 71370, Note_on_c, 12, 61, 115
14, 71399, Note_on_c, 12, 61, 0
14, 71400, Note_on_c, 12, 59, 115
14, 71459, Note_on_c, 12, 59, 0
14, 71460, Note_on_c, 12, 64, 115
14, 71519, Note_on_c, 12, 64, 0
14, 71520, Note_on_c, 12, 66, 115
14, 71579, Note_on_c, 12, 66, 0
14, 71580, Note_on_c, 12, 68, 115
14, 71639, Note_on_c, 12, 68, 0
14, 71640, Note_on_c, 12, 64, 115
14, 71699, Note_on_c, 12, 64, 0
14, 71700, Note_on_c, 12, 66, 115
14, 71759, Note_on_c, 12, 66, 0
14, 71760, Note_on_c, 12, 64, 115
14, 71819, Note_on_c, 12, 64, 0
14, 71820, Note_on_c, 12, 62, 115
14, 71879, Note_on_c, 12, 62, 0
14, 71880, Note_on_c, 12, 64, 115
14, 71939, Note_on_c, 12, 64, 0
14, 71940, Note_on_c, 12, 66, 115
14, 71999, Note_on_c, 12, 66, 0
14, 72000, Note_on_c, 12, 64, 115
14, 72119, Note_on_c, 12, 64, 0
14, 72120, Note_on_c, 12, 64, 115
14, 72180, Note_on_c, 12, 64, 0
14, 72900, Note_on_c, 12, 64, 115
14, 73019, Note_on_c, 12, 64, 0
14, 73020, Note_on_c, 12, 61, 115
14, 73079, Note_on_c, 12, 61, 0
14, 73080, Note_on_c, 12, 57, 115
14, 73139, Note_on_c, 12, 57, 0
14, 73140, Note_on_c, 12, 59, 115
14, 73169, Note_on_c, 12, 59, 0
14, 73170, Note_on_c, 12, 61, 115
14, 73199, Note_on_c, 12, 61, 0
14, 73200, Note_on_c, 12, 62, 115
14, 73229, Note_on_c, 12, 62, 0
14, 73230, Note_on_c, 12, 64, 115
14, 73259, Note_on_c, 12, 64, 0
14, 73260, Note_on_c, 12, 66, 115
14, 73319, Note_on_c, 12, 66, 0
14, 73320, Note_on_c, 12, 64, 115
14, 73379, Note_on_c, 12, 64, 0
14, 73380, Note_on_c, 12, 62, 115
14, 73409, Note_on_c, 12, 62, 0
14, 73410, Note_on_c, 12, 61, 115
14, 73439, Note_on_c, 12, 61, 0
14, 73440, Note_on_c, 12, 59, 115
14, 73499, Note_on_c, 12, 59, 0
14, 73500, Note_on_c, 12, 56, 115
14, 73529, Note_on_c, 12, 56, 0
14, 73530, Note_on_c, 12, 57, 115
14, 73559, Note_on_c, 12, 57, 0
14, 73560, Note_on_c, 12, 59, 115
14, 73589, Note_on_c, 12, 59, 0
14, 73590, Note_on_c, 12, 61, 115
14, 73619, Note_on_c, 12, 61, 0
14, 73620, Note_on_c, 12, 62, 115
14, 73679, Note_on_c, 12, 62, 0
14, 73680, Note_on_c, 12, 62, 115
14, 73859, Note_on_c, 12, 62, 0
14, 73860, Note_on_c, 12, 61, 115
14, 73889, Note_on_c, 12, 61, 0
14, 73890, Note_on_c, 12, 59, 115
14, 73919, Note_on_c, 12, 59, 0
14, 73920, Note_on_c, 12, 57, 115
14, 73949, Note_on_c, 12, 57, 0
14, 73950, Note_on_c, 12, 59, 115
14, 73979, Note_on_c, 12, 59, 0
14, 73980, Note_on_c, 12, 61, 115
14, 74009, Note_on_c, 12, 61, 0
14, 74010, Note_on_c, 12, 62, 115
14, 74039, Note_on_c, 12, 62, 0
14, 74040, Note_on_c, 12, 64, 115
14, 74099, Note_on_c, 12, 64, 0
14, 74100, Note_on_c, 12, 64, 115
14, 74159, Note_on_c, 12, 64, 0
14, 74160, Note_on_c, 12, 64, 115
14, 74219, Note_on_c, 12, 64, 0
14, 74220, Note_on_c, 12, 62, 115
14, 74249, Note_on_c, 12, 62, 0
14, 74250, Note_on_c, 12, 61, 115
14, 74279, Note_on_c, 12, 61, 0
14, 74280, Note_on_c, 12, 62, 115
14, 74309, Note_on_c, 12, 62, 0
14, 74310, Note_on_c, 12, 64, 115
14, 74339, Note_on_c, 12, 64, 0
14, 74340, Note_on_c, 12, 66, 115
14, 74399, Note_on_c, 12, 66, 0
14, 74400, Note_on_c, 12, 66, 115
14, 74579, Note_on_c, 12, 66, 0
14, 74580, Note_on_c, 12, 64, 115
14, 74609, Note_on_c, 12, 64, 0
14, 74610, Note_on_c, 12, 62, 115
14, 74639, Note_on_c, 12, 62, 0
14, 74640, Note_on_c, 12, 61, 115
14, 74699, Note_on_c, 12, 61, 0
14, 74700, Note_on_c, 12, 62, 115
14, 74759, Note_on_c, 12, 62, 0
14, 74760, Note_on_c, 12, 64, 115
14, 74819, Note_on_c, 12, 64, 0
14, 74820, Note_on_c, 12, 62, 115
14, 74879, Note_on_c, 12, 62, 0
14, 74880, Note_on_c, 12, 61, 115
14, 74939, Note_on_c, 12, 61, 0
14, 74940, Note_on_c, 12, 64, 115
14, 75059, Note_on_c, 12, 64, 0
14, 75060, Note_on_c, 12, 61, 115
14, 75119, Note_on_c, 12, 61, 0
14, 75120, Note_on_c, 12, 57, 115
14, 75179, Note_on_c, 12, 57, 0
14, 75180, Note_on_c, 12, 61, 115
14, 75239, Note_on_c, 12, 61, 0
14, 75240, Note_on_c, 12, 62, 115
14, 75299, Note_on_c, 12, 62, 0
14, 75300, Note_on_c, 12, 62, 115
14, 75419, Note_on_c, 12, 62, 0
14, 75420, Note_on_c, 12, 61, 115
14, 75479, Note_on_c, 12, 61, 0
14, 75480, Note_on_c, 12, 59, 115
14, 75539, Note_on_c, 12, 59, 0
14, 75540, Note_on_c, 12, 64, 115
14, 75599, Note_on_c, 12, 64, 0
14, 75600, Note_on_c, 12, 64, 115
14, 76020, Note_on_c, 12, 64, 0
14, 76020, Note_on_c, 12, 57, 115
14, 76140, Note_on_c, 12, 57, 0
14, 76140, Note_on_c, 12, 64, 115
14, 76200, Note_on_c, 12, 64, 0
14, 76200, Note_on_c, 12, 61, 115
14, 76260, Note_on_c, 12, 61, 0
14, 76260, Note_on_c, 12, 57, 115
14, 76320, Note_on_c, 12, 57, 0
14, 76320, Note_on_c, 12, 66, 115
14, 76740, Note_on_c, 12, 66, 0
14, 76740, Note_on_c, 12, 66, 115
14, 76770, Note_on_c, 12, 66, 0
14, 76770, Note_on_c, 12, 64, 115
14, 76800, Note_on_c, 12, 64, 0
14, 76800, Note_on_c, 12, 66, 115
14, 76860, Note_on_c, 12, 66, 0
14, 76860, Note_on_c, 12, 63, 115
14, 76920, Note_on_c, 12, 63, 0
14, 76920, Note_on_c, 12, 59, 115
14, 76980, Note_on_c, 12, 59, 0
14, 76980, Note_on_c, 12, 63, 115
14, 77040, Note_on_c, 12, 63, 0
14, 77040, Note_on_c, 12, 64, 115
14, 77100, Note_on_c, 12, 64, 0
14, 77100, Note_on_c, 12, 59, 115
14, 77220, Note_on_c, 12, 59, 0
14, 77220, Note_on_c, 12, 59, 115
14, 77280, Note_on_c, 12, 59, 0
14, 77280, Note_on_c, 12, 56, 115
14, 77340, Note_on_c, 12, 56, 0
14, 77340, Note_on_c, 12, 52, 115
14, 77400, Note_on_c, 12, 52, 0
14, 77400, Note_on_c, 12, 59, 115
14, 77460, Note_on_c, 12, 59, 0
14, 77460, Note_on_c, 12, 56, 115
14, 77550, Note_on_c, 12, 56, 0
14, 77550, Note_on_c, 12, 57, 115
14, 77580, Note_on_c, 12, 57, 0
14, 77580, Note_on_c, 12, 59, 115
14, 77610, Note_on_c, 12, 59, 0
14, 77610, Note_on_c, 12, 61, 115
14, 77640, Note_on_c, 12, 61, 0
14, 77640, Note_on_c, 12, 62, 115
14, 77700, Note_on_c, 12, 62, 0
14, 77700, Note_on_c, 12, 59, 115
14, 77760, Note_on_c, 12, 59, 0
14, 77760, Note_on_c, 12, 57, 115
14, 78750, Note_on_c, 12, 57, 0
14, 78750, Note_on_c, 12, 56, 115
14, 78780, Note_on_c, 12, 56, 0
14, 78780, Note_on_c, 12, 54, 115
14, 78810, Note_on_c, 12, 54, 0
14, 78810, Note_on_c, 12, 52, 115
14, 78840, Note_on_c, 12, 52, 0
14, 78840, Note_on_c, 12, 54, 115
14, 78900, Note_on_c, 12, 54, 0
14, 78900, Note_on_c, 12, 56, 115
14, 78960, Note_on_c, 12, 56, 0
14, 78960, Note_on_c, 12, 59, 115
14, 79080, Note_on_c, 12, 59, 0
14, 79080, Note_on_c, 12, 64, 115
14, 79200, Note_on_c, 12, 64, 0
14, 79200, Note_on_c, 12, 64, 115
14, 79260, Note_on_c, 12, 64, 0
14, 79320, Note_on_c, 12, 62, 115
14, 79380, Note_on_c, 12, 62, 0
14, 79440, Note_on_c, 12, 57, 115
14, 79500, Note_on_c, 12, 57, 0
14, 79560, Note_on_c, 12, 54, 115
14, 79620, Note_on_c, 12, 54, 0
14, 79620, Note_on_c, 12, 62, 115
14, 79740, Note_on_c, 12, 62, 0
14, 79740, Note_on_c, 12, 61, 115
14, 79860, Note_on_c, 12, 61, 0
14, 79860, Note_on_c, 12, 62, 115
14, 79890, Note_on_c, 12, 62, 0
14, 79890, Note_on_c, 12, 61, 115
14, 79920, Note_on_c, 12, 61, 0
14, 79920, Note_on_c, 12, 59, 115
14, 79980, Note_on_c, 12, 59, 0
14, 79980, Note_on_c, 12, 59, 115
14, 80040, Note_on_c, 12, 59, 0
14, 80040, Note_on_c, 12, 57, 115
14, 80100, Note_on_c, 12, 57, 0
14, 80100, Note_on_c, 12, 52, 115
14, 80160, Note_on_c, 12, 52, 0
14, 80160, Note_on_c, 12, 64, 115
14, 80220, Note_on_c, 12, 64, 0
14, 80220, Note_on_c, 12, 62, 115
14, 80280, Note_on_c, 12, 62, 0
14, 80280, Note_on_c, 12, 61, 115
14, 80400, Note_on_c, 12, 61, 0
14, 83760, Note_on_c, 12, 62, 90
14, 83879, Note_on_c, 12, 62, 0
14, 84000, Note_on_c, 12, 61, 90
14, 84119, Note_on_c, 12, 61, 0
14, 84180, Note_on_c, 12, 58, 90
14, 84239, Note_on_c, 12, 58, 0
14, 84240, Note_on_c, 12, 59, 90
14, 84359, Note_on_c, 12, 59, 0
14, 84420, Note_on_c, 12, 59, 90
14, 84479, Note_on_c, 12, 59, 0
14, 84480, Note_on_c, 12, 64, 90
14, 84539, Note_on_c, 12, 64, 0
14, 84540, Note_on_c, 12, 64, 90
14, 84599, Note_on_c, 12, 64, 0
14, 84600, Note_on_c, 12, 63, 90
14, 84659, Note_on_c, 12, 63, 0
14, 84660, Note_on_c, 12, 64, 90
14, 84689, Note_on_c, 12, 64, 0
14, 84690, Note_on_c, 12, 66, 90
14, 84719, Note_on_c, 12, 66, 0
14, 84720, Note_on_c, 12, 67, 90
14, 84779, Note_on_c, 12, 67, 0
14, 84780, Note_on_c, 12, 67, 90
14, 84839, Note_on_c, 12, 67, 0
14, 84840, Note_on_c, 12, 64, 90
14, 84899, Note_on_c, 12, 64, 0
14, 84900, Note_on_c, 12, 64, 90
14, 84929, Note_on_c, 12, 64, 0
14, 84930, Note_on_c, 12, 64, 90
14, 84959, Note_on_c, 12, 64, 0
14, 84960, Note_on_c, 12, 64, 90
14, 85019, Note_on_c, 12, 64, 0
14, 85020, Note_on_c, 12, 64, 90
14, 85079, Note_on_c, 12, 64, 0
14, 85140, Note_on_c, 12, 57, 90
14, 85199, Note_on_c, 12, 57, 0
14, 85200, Note_on_c, 12, 62, 90
14, 85259, Note_on_c, 12, 62, 0
14, 85260, Note_on_c, 12, 62, 90
14, 85319, Note_on_c, 12, 62, 0
14, 85320, Note_on_c, 12, 61, 90
14, 85379, Note_on_c, 12, 61, 0
14, 85380, Note_on_c, 12, 62, 90
14, 85409, Note_on_c, 12, 62, 0
14, 85410, Note_on_c, 12, 64, 90
14, 85439, Note_on_c, 12, 64, 0
14, 85440, Note_on_c, 12, 66, 90
14, 85499, Note_on_c, 12, 66, 0
14, 85500, Note_on_c, 12, 66, 90
14, 85559, Note_on_c, 12, 66, 0
14, 85560, Note_on_c, 12, 62, 90
14, 85619, Note_on_c, 12, 62, 0
14, 85620, Note_on_c, 12, 62, 90
14, 85649, Note_on_c, 12, 62, 0
14, 85650, Note_on_c, 12, 62, 90
14, 85679, Note_on_c, 12, 62, 0
14, 85680, Note_on_c, 12, 62, 90
14, 85739, Note_on_c, 12, 62, 0
14, 85740, Note_on_c, 12, 62, 90
14, 85799, Note_on_c, 12, 62, 0
14, 85800, Note_on_c, 12, 64, 90
14, 85859, Note_on_c, 12, 64, 0
14, 85920, Note_on_c, 12, 66, 90
14, 86039, Note_on_c, 12, 66, 0
14, 87660, Note_on_c, 12, 59, 90
14, 87719, Note_on_c, 12, 59, 0
14, 87720, Note_on_c, 12, 59, 90
14, 87779, Note_on_c, 12, 59, 0
14, 87780, Note_on_c, 12, 61, 90
14, 87839, Note_on_c, 12, 61, 0
14, 87840, Note_on_c, 12, 62, 90
14, 87899, Note_on_c, 12, 62, 0
14, 87900, Note_on_c, 12, 62, 90
14, 87959, Note_on_c, 12, 62, 0
14, 87960, Note_on_c, 12, 62, 90
14, 88019, Note_on_c, 12, 62, 0
14, 88020, Note_on_c, 12, 64, 90
14, 88079, Note_on_c, 12, 64, 0
14, 88080, Note_on_c, 12, 66, 90
14, 88139, Note_on_c, 12, 66, 0
14, 88140, Note_on_c, 12, 66, 90
14, 88199, Note_on_c, 12, 66, 0
14, 88260, Note_on_c, 12, 62, 90
14, 88319, Note_on_c, 12, 62, 0
14, 88320, Note_on_c, 12, 61, 90
14, 88439, Note_on_c, 12, 61, 0
14, 88440, Note_on_c, 12, 59, 90
14, 88499, Note_on_c, 12, 59, 0
14, 88500, Note_on_c, 12, 57, 90
14, 88559, Note_on_c, 12, 57, 0
14, 88560, Note_on_c, 12, 64, 90
14, 88619, Note_on_c, 12, 64, 0
14, 88620, Note_on_c, 12, 52, 90
14, 88679, Note_on_c, 12, 52, 0
14, 88860, Note_on_c, 12, 66, 90
14, 88919, Note_on_c, 12, 66, 0
14, 88920, Note_on_c, 12, 66, 90
14, 88979, Note_on_c, 12, 66, 0
14, 88980, Note_on_c, 12, 68, 90
14, 89039, Note_on_c, 12, 68, 0
14, 89040, Note_on_c, 12, 69, 90
14, 89099, Note_on_c, 12, 69, 0
14, 89100, Note_on_c, 12, 69, 90
14, 89159, Note_on_c, 12, 69, 0
14, 89160, Note_on_c, 12, 67, 90
14, 89219, Note_on_c, 12, 67, 0
14, 89220, Note_on_c, 12, 66, 90
14, 89279, Note_on_c, 12, 66, 0
14, 89280, Note_on_c, 12, 67, 90
14, 89339, Note_on_c, 12, 67, 0
14, 89340, Note_on_c, 12, 67, 90
14, 89399, Note_on_c, 12, 67, 0
14, 89460, Note_on_c, 12, 64, 90
14, 89519, Note_on_c, 12, 64, 0
14, 89520, Note_on_c, 12, 66, 90
14, 89579, Note_on_c, 12, 66, 0
14, 89580, Note_on_c, 12, 59, 90
14, 89639, Note_on_c, 12, 59, 0
14, 89640, Note_on_c, 12, 61, 90
14, 89699, Note_on_c, 12, 61, 0
14, 89700, Note_on_c, 12, 65, 90
14, 89759, Note_on_c, 12, 65, 0
14, 89760, Note_on_c, 12, 61, 90
14, 89879, Note_on_c, 12, 61, 0
14, 89940, Note_on_c, 12, 59, 90
14, 90059, Note_on_c, 12, 59, 0
14, 90060, Note_on_c, 12, 62, 90
14, 90119, Note_on_c, 12, 62, 0
14, 90120, Note_on_c, 12, 67, 90
14, 90179, Note_on_c, 12, 67, 0
14, 90180, Note_on_c, 12, 66, 90
14, 90239, Note_on_c, 12, 66, 0
14, 90240, Note_on_c, 12, 66, 90
14, 90299, Note_on_c, 12, 66, 0
14, 90300, Note_on_c, 12, 66, 90
14, 90329, Note_on_c, 12, 66, 0
14, 90330, Note_on_c, 12, 64, 90
14, 90359, Note_on_c, 12, 64, 0
14, 90360, Note_on_c, 12, 62, 90
14, 90419, Note_on_c, 12, 62, 0
14, 90420, Note_on_c, 12, 61, 90
14, 90479, Note_on_c, 12, 61, 0
14, 90480, Note_on_c, 12, 61, 90
14, 90539, Note_on_c, 12, 61, 0
14, 90540, Note_on_c, 12, 57, 90
14, 90599, Note_on_c, 12, 57, 0
14, 90720, Note_on_c, 12, 57, 90
14, 90779, Note_on_c, 12, 57, 0
14, 90780, Note_on_c, 12, 55, 90
14, 90839, Note_on_c, 12, 55, 0
14, 90840, Note_on_c, 12, 54, 90
14, 90899, Note_on_c, 12, 54, 0
14, 90900, Note_on_c, 12, 55, 90
14, 90959, Note_on_c, 12, 55, 0
14, 90960, Note_on_c, 12, 57, 90
14, 91019, Note_on_c, 12, 57, 0
14, 91020, Note_on_c, 12, 57, 90
14, 91079, Note_on_c, 12, 57, 0
14, 91080, Note_on_c, 12, 57, 90
14, 91139, Note_on_c, 12, 57, 0
14, 91140, Note_on_c, 12, 56, 90
14, 91199, Note_on_c, 12, 56, 0
14, 91200, Note_on_c, 12, 57, 90
14, 91319, Note_on_c, 12, 57, 0
14, 91320, Note_on_c, 12, 57, 90
14, 91379, Note_on_c, 12, 57, 0
14, 91380, Note_on_c, 12, 61, 90
14, 91439, Note_on_c, 12, 61, 0
14, 91440, Note_on_c, 12, 62, 90
14, 91499, Note_on_c, 12, 62, 0
14, 91500, Note_on_c, 12, 57, 90
14, 91559, Note_on_c, 12, 57, 0
14, 91560, Note_on_c, 12, 62, 90
14, 91739, Note_on_c, 12, 62, 0
14, 91740, Note_on_c, 12, 66, 90
14, 91799, Note_on_c, 12, 66, 0
14, 91800, Note_on_c, 12, 64, 90
14, 91859, Note_on_c, 12, 64, 0
14, 91860, Note_on_c, 12, 63, 90
14, 91919, Note_on_c, 12, 63, 0
14, 91920, Note_on_c, 12, 64, 90
14, 91979, Note_on_c, 12, 64, 0
14, 91980, Note_on_c, 12, 61, 90
14, 92039, Note_on_c, 12, 61, 0
14, 92040, Note_on_c, 12, 62, 90
14, 92099, Note_on_c, 12, 62, 0
14, 92100, Note_on_c, 12, 66, 90
14, 92159, Note_on_c, 12, 66, 0
14, 92160, Note_on_c, 12, 59, 90
14, 92399, Note_on_c, 12, 59, 0
14, 92400, Note_on_c, 12, 61, 90
14, 92519, Note_on_c, 12, 61, 0
14, 97800, Note_on_c, 12, 61, 90
14, 97859, Note_on_c, 12, 61, 0
14, 97860, Note_on_c, 12, 62, 90
14, 97919, Note_on_c, 12, 62, 0
14, 97920, Note_on_c, 12, 64, 90
14, 98039, Note_on_c, 12, 64, 0
14, 98040, Note_on_c, 12, 62, 90
14, 98099, Note_on_c, 12, 62, 0
14, 98100, Note_on_c, 12, 61, 90
14, 98159, Note_on_c, 12, 61, 0
14, 98160, Note_on_c, 12, 59, 90
14, 98279, Note_on_c, 12, 59, 0
14, 98280, Note_on_c, 12, 57, 90
14, 98399, Note_on_c, 12, 57, 0
14, 98400, Note_on_c, 12, 59, 90
14, 98519, Note_on_c, 12, 59, 0
14, 98520, Note_on_c, 12, 57, 90
14, 98579, Note_on_c, 12, 57, 0
14, 98580, Note_on_c, 12, 55, 90
14, 98639, Note_on_c, 12, 55, 0
14, 98640, Note_on_c, 12, 57, 90
14, 98759, Note_on_c, 12, 57, 0
14, 98760, Note_on_c, 12, 64, 90
14, 98819, Note_on_c, 12, 64, 0
14, 98820, Note_on_c, 12, 62, 90
14, 98879, Note_on_c, 12, 62, 0
14, 98880, Note_on_c, 12, 61, 90
14, 99119, Note_on_c, 12, 61, 0
14, 99240, Note_on_c, 12, 57, 90
14, 99359, Note_on_c, 12, 57, 0
14, 99360, Note_on_c, 12, 57, 90
14, 99479, Note_on_c, 12, 57, 0
14, 99480, Note_on_c, 12, 56, 90
14, 99599, Note_on_c, 12, 56, 0
14, 99600, Note_on_c, 12, 59, 90
14, 99659, Note_on_c, 12, 59, 0
14, 99660, Note_on_c, 12, 57, 90
14, 99719, Note_on_c, 12, 57, 0
14, 99720, Note_on_c, 12, 59, 90
14, 99839, Note_on_c, 12, 59, 0
14, 99840, Note_on_c, 12, 59, 90
14, 99899, Note_on_c, 12, 59, 0
14, 99900, Note_on_c, 12, 64, 90
14, 100019, Note_on_c, 12, 64, 0
14, 100020, Note_on_c, 12, 63, 90
14, 100079, Note_on_c, 12, 63, 0
14, 100080, Note_on_c, 12, 64, 90
14, 100175, Note_on_c, 12, 64, 0
14, 100200, Note_on_c, 12, 64, 90
14, 100319, Note_on_c, 12, 64, 0
14, 100320, Note_on_c, 12, 66, 90
14, 100439, Note_on_c, 12, 66, 0
14, 100440, Note_on_c, 12, 66, 90
14, 100559, Note_on_c, 12, 66, 0
14, 100560, Note_on_c, 12, 66, 90
14, 100679, Note_on_c, 12, 66, 0
14, 100680, Note_on_c, 12, 64, 90
14, 100799, Note_on_c, 12, 64, 0
14, 100800, Note_on_c, 12, 64, 90
14, 100859, Note_on_c, 12, 64, 0
14, 100860, Note_on_c, 12, 62, 90
14, 100919, Note_on_c, 12, 62, 0
14, 100920, Note_on_c, 12, 61, 90
14, 100979, Note_on_c, 12, 61, 0
14, 100980, Note_on_c, 12, 63, 90
14, 101039, Note_on_c, 12, 63, 0
14, 101040, Note_on_c, 12, 64, 90
14, 101135, Note_on_c, 12, 64, 0
14, 101160, Note_on_c, 12, 64, 90
14, 101279, Note_on_c, 12, 64, 0
14, 101280, Note_on_c, 12, 62, 90
14, 101339, Note_on_c, 12, 62, 0
14, 101340, Note_on_c, 12, 61, 90
14, 101399, Note_on_c, 12, 61, 0
14, 101400, Note_on_c, 12, 62, 90
14, 101459, Note_on_c, 12, 62, 0
14, 101460, Note_on_c, 12, 64, 90
14, 101519, Note_on_c, 12, 64, 0
14, 101520, Note_on_c, 12, 66, 90
14, 101615, Note_on_c, 12, 66, 0
14, 101640, Note_on_c, 12, 66, 90
14, 101699, Note_on_c, 12, 66, 0
14, 101700, Note_on_c, 12, 64, 90
14, 101759, Note_on_c, 12, 64, 0
14, 101760, Note_on_c, 12, 62, 90
14, 101879, Note_on_c, 12, 62, 0
14, 101880, Note_on_c, 12, 64, 90
14, 101999, Note_on_c, 12, 64, 0
14, 102000, Note_on_c, 12, 57, 90
14, 102095, Note_on_c, 12, 57, 0
14, 102120, Note_on_c, 12, 57, 90
14, 102239, Note_on_c, 12, 57, 0
14, 102240, Note_on_c, 12, 59, 90
14, 102359, Note_on_c, 12, 59, 0
14, 102360, Note_on_c, 12, 61, 90
14, 102419, Note_on_c, 12, 61, 0
14, 102420, Note_on_c, 12, 63, 90
14, 102479, Note_on_c, 12, 63, 0
14, 102480, Note_on_c, 12, 64, 90
14, 102779, Note_on_c, 12, 64, 0
14, 102780, Note_on_c, 12, 61, 90
14, 102839, Note_on_c, 12, 61, 0
14, 102840, Note_on_c, 12, 57, 90
14, 102899, Note_on_c, 12, 57, 0
14, 102900, Note_on_c, 12, 61, 90
14, 102959, Note_on_c, 12, 61, 0
14, 102960, Note_on_c, 12, 66, 90
14, 103019, Note_on_c, 12, 66, 0
14, 103020, Note_on_c, 12, 62, 90
14, 103079, Note_on_c, 12, 62, 0
14, 103080, Note_on_c, 12, 59, 90
14, 103139, Note_on_c, 12, 59, 0
14, 103140, Note_on_c, 12, 64, 90
14, 103199, Note_on_c, 12, 64, 0
14, 103200, Note_on_c, 12, 61, 90
14, 103559, Note_on_c, 12, 61, 0
14, 201240, Note_on_c, 12, 61, 90
14, 201359, Note_on_c, 12, 61, 0
14, 201360, Note_on_c, 12, 59, 90
14, 201479, Note_on_c, 12, 59, 0
14, 201480, Note_on_c, 12, 57, 90
14, 201539, Note_on_c, 12, 57, 0
14, 201540, Note_on_c, 12, 59, 90
14, 201599, Note_on_c, 12, 59, 0
14, 201600, Note_on_c, 12, 61, 90
14, 201659, Note_on_c, 12, 61, 0
14, 201660, Note_on_c, 12, 62, 90
14, 201719, Note_on_c, 12, 62, 0
14, 201720, Note_on_c, 12, 64, 90
14, 201779, Note_on_c, 12, 64, 0
14, 201780, Note_on_c, 12, 59, 90
14, 201839, Note_on_c, 12, 59, 0
14, 201840, Note_on_c, 12, 59, 90
14, 201959, Note_on_c, 12, 59, 0
14, 201960, Note_on_c, 12, 59, 90
14, 202049, Note_on_c, 12, 59, 0
14, 202050, Note_on_c, 12, 57, 90
14, 202079, Note_on_c, 12, 57, 0
14, 202080, Note_on_c, 12, 56, 90
14, 202175, Note_on_c, 12, 56, 0
14, 202200, Note_on_c, 12, 59, 90
14, 202259, Note_on_c, 12, 59, 0
14, 202260, Note_on_c, 12, 61, 90
14, 202319, Note_on_c, 12, 61, 0
14, 202320, Note_on_c, 12, 62, 90
14, 202379, Note_on_c, 12, 62, 0
14, 202380, Note_on_c, 12, 64, 90
14, 202439, Note_on_c, 12, 64, 0
14, 202440, Note_on_c, 12, 57, 90
14, 202559, Note_on_c, 12, 57, 0
14, 202560, Note_on_c, 12, 52, 90
14, 202679, Note_on_c, 12, 52, 0
14, 202680, Note_on_c, 12, 57, 90
14, 202859, Note_on_c, 12, 57, 0
14, 202860, Note_on_c, 12, 56, 90
14, 202919, Note_on_c, 12, 56, 0
14, 202920, Note_on_c, 12, 61, 90
14, 203135, Note_on_c, 12, 61, 0
14, 203160, Note_on_c, 12, 61, 90
14, 203279, Note_on_c, 12, 61, 0
14, 203280, Note_on_c, 12, 59, 90
14, 203399, Note_on_c, 12, 59, 0
14, 203400, Note_on_c, 12, 57, 90
14, 203459, Note_on_c, 12, 57, 0
14, 203460, Note_on_c, 12, 59, 90
14, 203519, Note_on_c, 12, 59, 0
14, 203520, Note_on_c, 12, 61, 90
14, 203579, Note_on_c, 12, 61, 0
14, 203580, Note_on_c, 12, 62, 90
14, 203639, Note_on_c, 12, 62, 0
14, 203640, Note_on_c, 12, 64, 90
14, 203699, Note_on_c, 12, 64, 0
14, 203700, Note_on_c, 12, 59, 90
14, 203759, Note_on_c, 12, 59, 0
14, 203760, Note_on_c, 12, 59, 90
14, 203879, Note_on_c, 12, 59, 0
14, 203880, Note_on_c, 12, 59, 90
14, 203969, Note_on_c, 12, 59, 0
14, 203970, Note_on_c, 12, 57, 90
14, 203999, Note_on_c, 12, 57, 0
14, 204000, Note_on_c, 12, 56, 90
14, 204095, Note_on_c, 12, 56, 0
14, 204120, Note_on_c, 12, 59, 90
14, 204179, Note_on_c, 12, 59, 0
14, 204180, Note_on_c, 12, 61, 90
14, 204239, Note_on_c, 12, 61, 0
14, 204240, Note_on_c, 12, 62, 90
14, 204299, Note_on_c, 12, 62, 0
14, 204300, Note_on_c, 12, 64, 90
14, 204359, Note_on_c, 12, 64, 0
14, 204360, Note_on_c, 12, 57, 90
14, 204479, Note_on_c, 12, 57, 0
14, 204480, Note_on_c, 12, 52, 90
14, 204599, Note_on_c, 12, 52, 0
14, 204600, Note_on_c, 12, 57, 90
14, 204779, Note_on_c, 12, 57, 0
14, 204780, Note_on_c, 12, 56, 90
14, 204839, Note_on_c, 12, 56, 0
14, 204840, Note_on_c, 12, 61, 90
14, 205055, Note_on_c, 12, 61, 0
14, 205080, Note_on_c, 12, 64, 90
14, 205199, Note_on_c, 12, 64, 0
14, 205200, Note_on_c, 12, 64, 90
14, 205259, Note_on_c, 12, 64, 0
14, 205260, Note_on_c, 12, 63, 90
14, 205319, Note_on_c, 12, 63, 0
14, 205320, Note_on_c, 12, 64, 90
14, 205379, Note_on_c, 12, 64, 0
14, 205380, Note_on_c, 12, 62, 90
14, 205439, Note_on_c, 12, 62, 0
14, 205440, Note_on_c, 12, 61, 90
14, 205499, Note_on_c, 12, 61, 0
14, 205500, Note_on_c, 12, 59, 90
14, 205559, Note_on_c, 12, 59, 0
14, 205560, Note_on_c, 12, 57, 90
14, 205619, Note_on_c, 12, 57, 0
14, 205620, Note_on_c, 12, 59, 90
14, 205679, Note_on_c, 12, 59, 0
14, 205680, Note_on_c, 12, 61, 90
14, 205739, Note_on_c, 12, 61, 0
14, 205740, Note_on_c, 12, 63, 90
14, 205799, Note_on_c, 12, 63, 0
14, 205800, Note_on_c, 12, 64, 90
14, 205919, Note_on_c, 12, 64, 0
14, 205920, Note_on_c, 12, 64, 90
14, 206015, Note_on_c, 12, 64, 0
14, 206040, Note_on_c, 12, 58, 90
14, 206099, Note_on_c, 12, 58, 0
14, 206100, Note_on_c, 12, 59, 90
14, 206159, Note_on_c, 12, 59, 0
14, 206160, Note_on_c, 12, 59, 90
14, 206279, Note_on_c, 12, 59, 0
14, 206280, Note_on_c, 12, 57, 90
14, 206399, Note_on_c, 12, 57, 0
14, 206400, Note_on_c, 12, 57, 90
14, 206519, Note_on_c, 12, 57, 0
14, 206520, Note_on_c, 12, 57, 90
14, 206579, Note_on_c, 12, 57, 0
14, 206580, Note_on_c, 12, 59, 90
14, 206639, Note_on_c, 12, 59, 0
14, 206640, Note_on_c, 12, 56, 90
14, 206699, Note_on_c, 12, 56, 0
14, 206700, Note_on_c, 12, 62, 90
14, 206759, Note_on_c, 12, 62, 0
14, 206760, Note_on_c, 12, 61, 90
14, 206819, Note_on_c, 12, 61, 0
14, 206820, Note_on_c, 12, 59, 90
14, 206879, Note_on_c, 12, 59, 0
14, 206880, Note_on_c, 12, 61, 90
14, 206999, Note_on_c, 12, 61, 0
14, 206999, End_track
15, 0, Start_track
15, 0, MIDI_port, 0
15, 0, Title_t, "Basso"
15, 0, Program_c, 13, 52
15, 0, Control_c, 13, 7, 127
15, 0, Control_c, 13, 10, 77
15, 5820, Note_on_c, 13, 57, 115
15, 5850, Note_on_c, 13, 57, 0
15, 5850, Note_on_c, 13, 59, 115
15, 5880, Note_on_c, 13, 59, 0
15, 5880, Note_on_c, 13, 61, 115
15, 5940, Note_on_c, 13, 61, 0
15, 5940, Note_on_c, 13, 61, 115
15, 6000, Note_on_c, 13, 61, 0
15, 6000, Note_on_c, 13, 62, 115
15, 6030, Note_on_c, 13, 62, 0
15, 6030, Note_on_c, 13, 61, 115
15, 6060, Note_on_c, 13, 61, 0
15, 6060, Note_on_c, 13, 62, 115
15, 6120, Note_on_c, 13, 62, 0
15, 6120, Note_on_c, 13, 61, 115
15, 6180, Note_on_c, 13, 61, 0
15, 6180, Note_on_c, 13, 57, 115
15, 6300, Note_on_c, 13, 57, 0
15, 6300, Note_on_c, 13, 55, 115
15, 6360, Note_on_c, 13, 55, 0
15, 6360, Note_on_c, 13, 54, 115
15, 6420, Note_on_c, 13, 54, 0
15, 6420, Note_on_c, 13, 50, 115
15, 6480, Note_on_c, 13, 50, 0
15, 6480, Note_on_c, 13, 57, 115
15, 6540, Note_on_c, 13, 57, 0
15, 6840, Note_on_c, 13, 57, 115
15, 6900, Note_on_c, 13, 57, 0
15, 6900, Note_on_c, 13, 57, 115
15, 6960, Note_on_c, 13, 57, 0
15, 6960, Note_on_c, 13, 57, 115
15, 7020, Note_on_c, 13, 57, 0
15, 7020, Note_on_c, 13, 61, 115
15, 7080, Note_on_c, 13, 61, 0
15, 7080, Note_on_c, 13, 64, 115
15, 7140, Note_on_c, 13, 64, 0
15, 7140, Note_on_c, 13, 52, 115
15, 7200, Note_on_c, 13, 52, 0
15, 7200, Note_on_c, 13, 57, 115
15, 7320, Note_on_c, 13, 57, 0
15, 7320, Note_on_c, 13, 45, 115
15, 7380, Note_on_c, 13, 45, 0
15, 7980, Note_on_c, 13, 52, 115
15, 8010, Note_on_c, 13, 52, 0
15, 8010, Note_on_c, 13, 54, 115
15, 8040, Note_on_c, 13, 54, 0
15, 8040, Note_on_c, 13, 56, 115
15, 8100, Note_on_c, 13, 56, 0
15, 8100, Note_on_c, 13, 56, 115
15, 8160, Note_on_c, 13, 56, 0
15, 8160, Note_on_c, 13, 57, 115
15, 8190, Note_on_c, 13, 57, 0
15, 8190, Note_on_c, 13, 56, 115
15, 8220, Note_on_c, 13, 56, 0
15, 8220, Note_on_c, 13, 57, 115
15, 8280, Note_on_c, 13, 57, 0
15, 8280, Note_on_c, 13, 52, 115
15, 8340, Note_on_c, 13, 52, 0
15, 8640, Note_on_c, 13, 52, 115
15, 8700, Note_on_c, 13, 52, 0
15, 8700, Note_on_c, 13, 52, 115
15, 8760, Note_on_c, 13, 52, 0
15, 8760, Note_on_c, 13, 52, 115
15, 8820, Note_on_c, 13, 52, 0
15, 8820, Note_on_c, 13, 56, 115
15, 8880, Note_on_c, 13, 56, 0
15, 8880, Note_on_c, 13, 59, 115
15, 8940, Note_on_c, 13, 59, 0
15, 8940, Note_on_c, 13, 47, 115
15, 9000, Note_on_c, 13, 47, 0
15, 9000, Note_on_c, 13, 52, 115
15, 9120, Note_on_c, 13, 52, 0
15, 9120, Note_on_c, 13, 52, 115
15, 9180, Note_on_c, 13, 52, 0
15, 9420, Note_on_c, 13, 54, 115
15, 9450, Note_on_c, 13, 54, 0
15, 9450, Note_on_c, 13, 56, 115
15, 9480, Note_on_c, 13, 56, 0
15, 9480, Note_on_c, 13, 57, 115
15, 9540, Note_on_c, 13, 57, 0
15, 9540, Note_on_c, 13, 57, 115
15, 9600, Note_on_c, 13, 57, 0
15, 9600, Note_on_c, 13, 59, 115
15, 9630, Note_on_c, 13, 59, 0
15, 9630, Note_on_c, 13, 57, 115
15, 9660, Note_on_c, 13, 57, 0
15, 9660, Note_on_c, 13, 59, 115
15, 9720, Note_on_c, 13, 59, 0
15, 9720, Note_on_c, 13, 61, 115
15, 9780, Note_on_c, 13, 61, 0
15, 9780, Note_on_c, 13, 61, 115
15, 9840, Note_on_c, 13, 61, 0
15, 9840, Note_on_c, 13, 59, 115
15, 9900, Note_on_c, 13, 59, 0
15, 9900, Note_on_c, 13, 57, 115
15, 9960, Note_on_c, 13, 57, 0
15, 9960, Note_on_c, 13, 56, 115
15, 10020, Note_on_c, 13, 56, 0
15, 10020, Note_on_c, 13, 54, 115
15, 10080, Note_on_c, 13, 54, 0
15, 10080, Note_on_c, 13, 52, 115
15, 10140, Note_on_c, 13, 52, 0
15, 10440, Note_on_c, 13, 57, 115
15, 10500, Note_on_c, 13, 57, 0
15, 10500, Note_on_c, 13, 57, 115
15, 10560, Note_on_c, 13, 57, 0
15, 10560, Note_on_c, 13, 57, 115
15, 10620, Note_on_c, 13, 57, 0
15, 10620, Note_on_c, 13, 61, 115
15, 10680, Note_on_c, 13, 61, 0
15, 10680, Note_on_c, 13, 64, 115
15, 10740, Note_on_c, 13, 64, 0
15, 10740, Note_on_c, 13, 52, 115
15, 10800, Note_on_c, 13, 52, 0
15, 10800, Note_on_c, 13, 57, 115
15, 10920, Note_on_c, 13, 57, 0
15, 10920, Note_on_c, 13, 45, 115
15, 10980, Note_on_c, 13, 45, 0
15, 13860, Note_on_c, 13, 59, 115
15, 13979, Note_on_c, 13, 59, 0
15, 13980, Note_on_c, 13, 56, 115
15, 14039, Note_on_c, 13, 56, 0
15, 14040, Note_on_c, 13, 52, 115
15, 14099, Note_on_c, 13, 52, 0
15, 14100, Note_on_c, 13, 54, 115
15, 14129, Note_on_c, 13, 54, 0
15, 14130, Note_on_c, 13, 56, 115
15, 14159, Note_on_c, 13, 56, 0
15, 14160, Note_on_c, 13, 57, 115
15, 14189, Note_on_c, 13, 57, 0
15, 14190, Note_on_c, 13, 59, 115
15, 14219, Note_on_c, 13, 59, 0
15, 14220, Note_on_c, 13, 61, 115
15, 14279, Note_on_c, 13, 61, 0
15, 14280, Note_on_c, 13, 59, 115
15, 14339, Note_on_c, 13, 59, 0
15, 14340, Note_on_c, 13, 57, 115
15, 14369, Note_on_c, 13, 57, 0
15, 14370, Note_on_c, 13, 56, 115
15, 14399, Note_on_c, 13, 56, 0
15, 14400, Note_on_c, 13, 54, 115
15, 14459, Note_on_c, 13, 54, 0
15, 14460, Note_on_c, 13, 51, 115
15, 14489, Note_on_c, 13, 51, 0
15, 14490, Note_on_c, 13, 52, 115
15, 14519, Note_on_c, 13, 52, 0
15, 14520, Note_on_c, 13, 54, 115
15, 14549, Note_on_c, 13, 54, 0
15, 14550, Note_on_c, 13, 56, 115
15, 14579, Note_on_c, 13, 56, 0
15, 14580, Note_on_c, 13, 57, 115
15, 14639, Note_on_c, 13, 57, 0
15, 14640, Note_on_c, 13, 57, 115
15, 14819, Note_on_c, 13, 57, 0
15, 14820, Note_on_c, 13, 56, 115
15, 14879, Note_on_c, 13, 56, 0
15, 14880, Note_on_c, 13, 59, 115
15, 14939, Note_on_c, 13, 59, 0
15, 14940, Note_on_c, 13, 56, 115
15, 14999, Note_on_c, 13, 56, 0
15, 15000, Note_on_c, 13, 52, 115
15, 15059, Note_on_c, 13, 52, 0
15, 15060, Note_on_c, 13, 56, 115
15, 15119, Note_on_c, 13, 56, 0
15, 15120, Note_on_c, 13, 57, 115
15, 15419, Note_on_c, 13, 57, 0
15, 15420, Note_on_c, 13, 56, 115
15, 15479, Note_on_c, 13, 56, 0
15, 15480, Note_on_c, 13, 58, 115
15, 15539, Note_on_c, 13, 58, 0
15, 15540, Note_on_c, 13, 61, 115
15, 15599, Note_on_c, 13, 61, 0
15, 15600, Note_on_c, 13, 64, 115
15, 15659, Note_on_c, 13, 64, 0
15, 15660, Note_on_c, 13, 61, 115
15, 15719, Note_on_c, 13, 61, 0
15, 15720, Note_on_c, 13, 58, 115
15, 15779, Note_on_c, 13, 58, 0
15, 15780, Note_on_c, 13, 54, 115
15, 15839, Note_on_c, 13, 54, 0
15, 15840, Note_on_c, 13, 59, 115
15, 16260, Note_on_c, 13, 59, 0
15, 16260, Note_on_c, 13, 47, 115
15, 16379, Note_on_c, 13, 47, 0
15, 16380, Note_on_c, 13, 51, 115
15, 16439, Note_on_c, 13, 51, 0
15, 16440, Note_on_c, 13, 54, 115
15, 16499, Note_on_c, 13, 54, 0
15, 16500, Note_on_c, 13, 57, 115
15, 16559, Note_on_c, 13, 57, 0
15, 16560, Note_on_c, 13, 56, 115
15, 16619, Note_on_c, 13, 56, 0
15, 16620, Note_on_c, 13, 52, 115
15, 16649, Note_on_c, 13, 52, 0
15, 16650, Note_on_c, 13, 54, 115
15, 16679, Note_on_c, 13, 54, 0
15, 16680, Note_on_c, 13, 56, 115
15, 16739, Note_on_c, 13, 56, 0
15, 16740, Note_on_c, 13, 52, 115
15, 16799, Note_on_c, 13, 52, 0
15, 16800, Note_on_c, 13, 56, 115
15, 16859, Note_on_c, 13, 56, 0
15, 16860, Note_on_c, 13, 52, 115
15, 16919, Note_on_c, 13, 52, 0
15, 16920, Note_on_c, 13, 57, 115
15, 16979, Note_on_c, 13, 57, 0
15, 17040, Note_on_c, 13, 61, 115
15, 17099, Note_on_c, 13, 61, 0
15, 17160, Note_on_c, 13, 57, 115
15, 17219, Note_on_c, 13, 57, 0
15, 17280, Note_on_c, 13, 64, 115
15, 17339, Note_on_c, 13, 64, 0
15, 17400, Note_on_c, 13, 52, 115
15, 17459, Note_on_c, 13, 52, 0
15, 17520, Note_on_c, 13, 49, 115
15, 17579, Note_on_c, 13, 49, 0
15, 17640, Note_on_c, 13, 54, 115
15, 17699, Note_on_c, 13, 54, 0
15, 17760, Note_on_c, 13, 59, 115
15, 17819, Note_on_c, 13, 59, 0
15, 17880, Note_on_c, 13, 47, 115
15, 17939, Note_on_c, 13, 47, 0
15, 18000, Note_on_c, 13, 52, 115
15, 18059, Note_on_c, 13, 52, 0
15, 18060, Note_on_c, 13, 51, 115
15, 18089, Note_on_c, 13, 51, 0
15, 18090, Note_on_c, 13, 52, 115
15, 18119, Note_on_c, 13, 52, 0
15, 18120, Note_on_c, 13, 54, 115
15, 18179, Note_on_c, 13, 54, 0
15, 18180, Note_on_c, 13, 52, 115
15, 18209, Note_on_c, 13, 52, 0
15, 18210, Note_on_c, 13, 54, 115
15, 18239, Note_on_c, 13, 54, 0
15, 18240, Note_on_c, 13, 56, 115
15, 18299, Note_on_c, 13, 56, 0
15, 18300, Note_on_c, 13, 54, 115
15, 18329, Note_on_c, 13, 54, 0
15, 18330, Note_on_c, 13, 56, 115
15, 18359, Note_on_c, 13, 56, 0
15, 18360, Note_on_c, 13, 57, 115
15, 18419, Note_on_c, 13, 57, 0
15, 18420, Note_on_c, 13, 56, 115
15, 18449, Note_on_c, 13, 56, 0
15, 18450, Note_on_c, 13, 57, 115
15, 18479, Note_on_c, 13, 57, 0
15, 18480, Note_on_c, 13, 59, 115
15, 18539, Note_on_c, 13, 59, 0
15, 18540, Note_on_c, 13, 57, 115
15, 18569, Note_on_c, 13, 57, 0
15, 18570, Note_on_c, 13, 59, 115
15, 18599, Note_on_c, 13, 59, 0
15, 18600, Note_on_c, 13, 61, 115
15, 18659, Note_on_c, 13, 61, 0
15, 18660, Note_on_c, 13, 59, 115
15, 18689, Note_on_c, 13, 59, 0
15, 18690, Note_on_c, 13, 61, 115
15, 18719, Note_on_c, 13, 61, 0
15, 18720, Note_on_c, 13, 63, 115
15, 18779, Note_on_c, 13, 63, 0
15, 18780, Note_on_c, 13, 59, 115
15, 18839, Note_on_c, 13, 59, 0
15, 18840, Note_on_c, 13, 64, 115
15, 18899, Note_on_c, 13, 64, 0
15, 18900, Note_on_c, 13, 56, 115
15, 18929, Note_on_c, 13, 56, 0
15, 18930, Note_on_c, 13, 57, 115
15, 18959, Note_on_c, 13, 57, 0
15, 18960, Note_on_c, 13, 59, 115
15, 19019, Note_on_c, 13, 59, 0
15, 19020, Note_on_c, 13, 47, 115
15, 19079, Note_on_c, 13, 47, 0
15, 19080, Note_on_c, 13, 52, 115
15, 19199, Note_on_c, 13, 52, 0
15, 20700, Note_on_c, 13, 52, 115
15, 20729, Note_on_c, 13, 52, 0
15, 20730, Note_on_c, 13, 54, 115
15, 20759, Note_on_c, 13, 54, 0
15, 20760, Note_on_c, 13, 52, 115
15, 20819, Note_on_c, 13, 52, 0
15, 20820, Note_on_c, 13, 50, 115
15, 20879, Note_on_c, 13, 50, 0
15, 20880, Note_on_c, 13, 49, 115
15, 20939, Note_on_c, 13, 49, 0
15, 20940, Note_on_c, 13, 52, 115
15, 20999, Note_on_c, 13, 52, 0
15, 21000, Note_on_c, 13, 57, 115
15, 21059, Note_on_c, 13, 57, 0
15, 21060, Note_on_c, 13, 61, 115
15, 21089, Note_on_c, 13, 61, 0
15, 21090, Note_on_c, 13, 59, 115
15, 21119, Note_on_c, 13, 59, 0
15, 21120, Note_on_c, 13, 61, 115
15, 21179, Note_on_c, 13, 61, 0
15, 21180, Note_on_c, 13, 57, 115
15, 21239, Note_on_c, 13, 57, 0
15, 21240, Note_on_c, 13, 56, 115
15, 21299, Note_on_c, 13, 56, 0
15, 21300, Note_on_c, 13, 52, 115
15, 21359, Note_on_c, 13, 52, 0
15, 21360, Note_on_c, 13, 52, 115
15, 21419, Note_on_c, 13, 52, 0
15, 21420, Note_on_c, 13, 56, 115
15, 21479, Note_on_c, 13, 56, 0
15, 21480, Note_on_c, 13, 56, 115
15, 21539, Note_on_c, 13, 56, 0
15, 21540, Note_on_c, 13, 52, 115
15, 21599, Note_on_c, 13, 52, 0
15, 21600, Note_on_c, 13, 57, 115
15, 21719, Note_on_c, 13, 57, 0
15, 21720, Note_on_c, 13, 45, 115
15, 21779, Note_on_c, 13, 45, 0
15, 23220, Note_on_c, 13, 57, 115
15, 23249, Note_on_c, 13, 57, 0
15, 23250, Note_on_c, 13, 59, 115
15, 23279, Note_on_c, 13, 59, 0
15, 23280, Note_on_c, 13, 57, 115
15, 23339, Note_on_c, 13, 57, 0
15, 23340, Note_on_c, 13, 55, 115
15, 23399, Note_on_c, 13, 55, 0
15, 23400, Note_on_c, 13, 54, 115
15, 23459, Note_on_c, 13, 54, 0
15, 23460, Note_on_c, 13, 57, 115
15, 23519, Note_on_c, 13, 57, 0
15, 23520, Note_on_c, 13, 62, 115
15, 23579, Note_on_c, 13, 62, 0
15, 23580, Note_on_c, 13, 54, 115
15, 23609, Note_on_c, 13, 54, 0
15, 23610, Note_on_c, 13, 52, 115
15, 23639, Note_on_c, 13, 52, 0
15, 23640, Note_on_c, 13, 54, 115
15, 23699, Note_on_c, 13, 54, 0
15, 23700, Note_on_c, 13, 50, 115
15, 23759, Note_on_c, 13, 50, 0
15, 23760, Note_on_c, 13, 49, 115
15, 23819, Note_on_c, 13, 49, 0
15, 23820, Note_on_c, 13, 57, 115
15, 23939, Note_on_c, 13, 57, 0
15, 23940, Note_on_c, 13, 49, 115
15, 23969, Note_on_c, 13, 49, 0
15, 23970, Note_on_c, 13, 47, 115
15, 23999, Note_on_c, 13, 47, 0
15, 24000, Note_on_c, 13, 49, 115
15, 24059, Note_on_c, 13, 49, 0
15, 24060, Note_on_c, 13, 45, 115
15, 24119, Note_on_c, 13, 45, 0
15, 24120, Note_on_c, 13, 50, 115
15, 24179, Note_on_c, 13, 50, 0
15, 24180, Note_on_c, 13, 54, 115
15, 24209, Note_on_c, 13, 54, 0
15, 24210, Note_on_c, 13, 55, 115
15, 24239, Note_on_c, 13, 55, 0
15, 24240, Note_on_c, 13, 57, 115
15, 24299, Note_on_c, 13, 57, 0
15, 24300, Note_on_c, 13, 57, 115
15, 24359, Note_on_c, 13, 57, 0
15, 24360, Note_on_c, 13, 57, 115
15, 24389, Note_on_c, 13, 57, 0
15, 24390, Note_on_c, 13, 56, 115
15, 24419, Note_on_c, 13, 56, 0
15, 24420, Note_on_c, 13, 57, 115
15, 24479, Note_on_c, 13, 57, 0
15, 24480, Note_on_c, 13, 56, 115
15, 24539, Note_on_c, 13, 56, 0
15, 24540, Note_on_c, 13, 52, 115
15, 24659, Note_on_c, 13, 52, 0
15, 24660, Note_on_c, 13, 50, 115
15, 24719, Note_on_c, 13, 50, 0
15, 24720, Note_on_c, 13, 49, 115
15, 24779, Note_on_c, 13, 49, 0
15, 24780, Note_on_c, 13, 47, 115
15, 24839, Note_on_c, 13, 47, 0
15, 24840, Note_on_c, 13, 49, 115
15, 24899, Note_on_c, 13, 49, 0
15, 24900, Note_on_c, 13, 57, 115
15, 24929, Note_on_c, 13, 57, 0
15, 24930, Note_on_c, 13, 59, 115
15, 24959, Note_on_c, 13, 59, 0
15, 24960, Note_on_c, 13, 61, 115
15, 25019, Note_on_c, 13, 61, 0
15, 25020, Note_on_c, 13, 61, 115
15, 25079, Note_on_c, 13, 61, 0
15, 25080, Note_on_c, 13, 61, 115
15, 25109, Note_on_c, 13, 61, 0
15, 25110, Note_on_c, 13, 59, 115
15, 25139, Note_on_c, 13, 59, 0
15, 25140, Note_on_c, 13, 61, 115
15, 25199, Note_on_c, 13, 61, 0
15, 25200, Note_on_c, 13, 54, 115
15, 25259, Note_on_c, 13, 54, 0
15, 25260, Note_on_c, 13, 50, 115
15, 25379, Note_on_c, 13, 50, 0
15, 25380, Note_on_c, 13, 49, 115
15, 25439, Note_on_c, 13, 49, 0
15, 25440, Note_on_c, 13, 47, 115
15, 25499, Note_on_c, 13, 47, 0
15, 25500, Note_on_c, 13, 45, 115
15, 25559, Note_on_c, 13, 45, 0
15, 25560, Note_on_c, 13, 47, 115
15, 25619, Note_on_c, 13, 47, 0
15, 25620, Note_on_c, 13, 59, 115
15, 25649, Note_on_c, 13, 59, 0
15, 25650, Note_on_c, 13, 61, 115
15, 25679, Note_on_c, 13, 61, 0
15, 25680, Note_on_c, 13, 62, 115
15, 25739, Note_on_c, 13, 62, 0
15, 25740, Note_on_c, 13, 54, 115
15, 25799, Note_on_c, 13, 54, 0
15, 25800, Note_on_c, 13, 59, 115
15, 25859, Note_on_c, 13, 59, 0
15, 25860, Note_on_c, 13, 57, 115
15, 25919, Note_on_c, 13, 57, 0
15, 25920, Note_on_c, 13, 56, 115
15, 25979, Note_on_c, 13, 56, 0
15, 25980, Note_on_c, 13, 59, 115
15, 26009, Note_on_c, 13, 59, 0
15, 26010, Note_on_c, 13, 57, 115
15, 26039, Note_on_c, 13, 57, 0
15, 26040, Note_on_c, 13, 56, 115
15, 26099, Note_on_c, 13, 56, 0
15, 26100, Note_on_c, 13, 56, 115
15, 26159, Note_on_c, 13, 56, 0
15, 26160, Note_on_c, 13, 54, 115
15, 26219, Note_on_c, 13, 54, 0
15, 26220, Note_on_c, 13, 52, 115
15, 26279, Note_on_c, 13, 52, 0
15, 26280, Note_on_c, 13, 57, 115
15, 26339, Note_on_c, 13, 57, 0
15, 26340, Note_on_c, 13, 54, 115
15, 26399, Note_on_c, 13, 54, 0
15, 26400, Note_on_c, 13, 49, 115
15, 26459, Note_on_c, 13, 49, 0
15, 26460, Note_on_c, 13, 47, 115
15, 26519, Note_on_c, 13, 47, 0
15, 26520, Note_on_c, 13, 49, 115
15, 26579, Note_on_c, 13, 49, 0
15, 26580, Note_on_c, 13, 50, 115
15, 26639, Note_on_c, 13, 50, 0
15, 26640, Note_on_c, 13, 52, 115
15, 26759, Note_on_c, 13, 52, 0
15, 26760, Note_on_c, 13, 52, 115
15, 26819, Note_on_c, 13, 52, 0
15, 26820, Note_on_c, 13, 59, 115
15, 26939, Note_on_c, 13, 59, 0
15, 26940, Note_on_c, 13, 56, 115
15, 26999, Note_on_c, 13, 56, 0
15, 27000, Note_on_c, 13, 52, 115
15, 27059, Note_on_c, 13, 52, 0
15, 27060, Note_on_c, 13, 54, 115
15, 27089, Note_on_c, 13, 54, 0
15, 27090, Note_on_c, 13, 56, 115
15, 27119, Note_on_c, 13, 56, 0
15, 27120, Note_on_c, 13, 57, 115
15, 27149, Note_on_c, 13, 57, 0
15, 27150, Note_on_c, 13, 59, 115
15, 27179, Note_on_c, 13, 59, 0
15, 27180, Note_on_c, 13, 61, 115
15, 27239, Note_on_c, 13, 61, 0
15, 27240, Note_on_c, 13, 61, 115
15, 27269, Note_on_c, 13, 61, 0
15, 27270, Note_on_c, 13, 59, 115
15, 27299, Note_on_c, 13, 59, 0
15, 27300, Note_on_c, 13, 57, 115
15, 27329, Note_on_c, 13, 57, 0
15, 27330, Note_on_c, 13, 56, 115
15, 27359, Note_on_c, 13, 56, 0
15, 27360, Note_on_c, 13, 54, 115
15, 27419, Note_on_c, 13, 54, 0
15, 27420, Note_on_c, 13, 52, 115
15, 27449, Note_on_c, 13, 52, 0
15, 27450, Note_on_c, 13, 54, 115
15, 27479, Note_on_c, 13, 54, 0
15, 27480, Note_on_c, 13, 56, 115
15, 27509, Note_on_c, 13, 56, 0
15, 27510, Note_on_c, 13, 57, 115
15, 27539, Note_on_c, 13, 57, 0
15, 27540, Note_on_c, 13, 59, 115
15, 27599, Note_on_c, 13, 59, 0
15, 27600, Note_on_c, 13, 57, 115
15, 27779, Note_on_c, 13, 57, 0
15, 27780, Note_on_c, 13, 54, 115
15, 27809, Note_on_c, 13, 54, 0
15, 27810, Note_on_c, 13, 52, 115
15, 27839, Note_on_c, 13, 52, 0
15, 27840, Note_on_c, 13, 54, 115
15, 27869, Note_on_c, 13, 54, 0
15, 27870, Note_on_c, 13, 56, 115
15, 27899, Note_on_c, 13, 56, 0
15, 27900, Note_on_c, 13, 57, 115
15, 27959, Note_on_c, 13, 57, 0
15, 27960, Note_on_c, 13, 59, 115
15, 28019, Note_on_c, 13, 59, 0
15, 28020, Note_on_c, 13, 57, 115
15, 28079, Note_on_c, 13, 57, 0
15, 28080, Note_on_c, 13, 56, 115
15, 28139, Note_on_c, 13, 56, 0
15, 28140, Note_on_c, 13, 59, 115
15, 28259, Note_on_c, 13, 59, 0
15, 28260, Note_on_c, 13, 56, 115
15, 28319, Note_on_c, 13, 56, 0
15, 28320, Note_on_c, 13, 52, 115
15, 28379, Note_on_c, 13, 52, 0
15, 28380, Note_on_c, 13, 56, 115
15, 28439, Note_on_c, 13, 56, 0
15, 28440, Note_on_c, 13, 57, 115
15, 28499, Note_on_c, 13, 57, 0
15, 28500, Note_on_c, 13, 52, 115
15, 28529, Note_on_c, 13, 52, 0
15, 28530, Note_on_c, 13, 50, 115
15, 28559, Note_on_c, 13, 50, 0
15, 28560, Note_on_c, 13, 52, 115
15, 28619, Note_on_c, 13, 52, 0
15, 28620, Note_on_c, 13, 45, 115
15, 28679, Note_on_c, 13, 45, 0
15, 28680, Note_on_c, 13, 55, 115
15, 28709, Note_on_c, 13, 55, 0
15, 28710, Note_on_c, 13, 54, 115
15, 28739, Note_on_c, 13, 54, 0
15, 28740, Note_on_c, 13, 55, 115
15, 28799, Note_on_c, 13, 55, 0
15, 28800, Note_on_c, 13, 54, 115
15, 28859, Note_on_c, 13, 54, 0
15, 28860, Note_on_c, 13, 57, 115
15, 28979, Note_on_c, 13, 57, 0
15, 28980, Note_on_c, 13, 54, 115
15, 29039, Note_on_c, 13, 54, 0
15, 29040, Note_on_c, 13, 50, 115
15, 29099, Note_on_c, 13, 50, 0
15, 29100, Note_on_c, 13, 57, 115
15, 29159, Note_on_c, 13, 57, 0
15, 29160, Note_on_c, 13, 59, 115
15, 29309, Note_on_c, 13, 59, 0
15, 29310, Note_on_c, 13, 57, 115
15, 29339, Note_on_c, 13, 57, 0
15, 29340, Note_on_c, 13, 55, 115
15, 29369, Note_on_c, 13, 55, 0
15, 29370, Note_on_c, 13, 54, 115
15, 29399, Note_on_c, 13, 54, 0
15, 29400, Note_on_c, 13, 52, 115
15, 29459, Note_on_c, 13, 52, 0
15, 29460, Note_on_c, 13, 57, 115
15, 29519, Note_on_c, 13, 57, 0
15, 29520, Note_on_c, 13, 57, 115
15, 29579, Note_on_c, 13, 57, 0
15, 29580, Note_on_c, 13, 45, 115
15, 29609, Note_on_c, 13, 45, 0
15, 29610, Note_on_c, 13, 47, 115
15, 29639, Note_on_c, 13, 47, 0
15, 29640, Note_on_c, 13, 49, 115
15, 29669, Note_on_c, 13, 49, 0
15, 29670, Note_on_c, 13, 50, 115
15, 29699, Note_on_c, 13, 50, 0
15, 29700, Note_on_c, 13, 52, 115
15, 29759, Note_on_c, 13, 52, 0
15, 29760, Note_on_c, 13, 49, 115
15, 29819, Note_on_c, 13, 49, 0
15, 29820, Note_on_c, 13, 45, 115
15, 29879, Note_on_c, 13, 45, 0
15, 29880, Note_on_c, 13, 50, 115
15, 29939, Note_on_c, 13, 50, 0
15, 29940, Note_on_c, 13, 54, 115
15, 29999, Note_on_c, 13, 54, 0
15, 30000, Note_on_c, 13, 59, 115
15, 30059, Note_on_c, 13, 59, 0
15, 30060, Note_on_c, 13, 57, 115
15, 30119, Note_on_c, 13, 57, 0
15, 30120, Note_on_c, 13, 56, 115
15, 30179, Note_on_c, 13, 56, 0
15, 30180, Note_on_c, 13, 57, 115
15, 30239, Note_on_c, 13, 57, 0
15, 30240, Note_on_c, 13, 52, 115
15, 30299, Note_on_c, 13, 52, 0
15, 30300, Note_on_c, 13, 52, 115
15, 30329, Note_on_c, 13, 52, 0
15, 30330, Note_on_c, 13, 54, 115
15, 30359, Note_on_c, 13, 54, 0
15, 30360, Note_on_c, 13, 56, 115
15, 30419, Note_on_c, 13, 56, 0
15, 30420, Note_on_c, 13, 59, 115
15, 30479, Note_on_c, 13, 59, 0
15, 30480, Note_on_c, 13, 56, 115
15, 30539, Note_on_c, 13, 56, 0
15, 30540, Note_on_c, 13, 52, 115
15, 30599, Note_on_c, 13, 52, 0
15, 30600, Note_on_c, 13, 57, 115
15, 30659, Note_on_c, 13, 57, 0
15, 30660, Note_on_c, 13, 52, 115
15, 30779, Note_on_c, 13, 52, 0
15, 30780, Note_on_c, 13, 57, 115
15, 30839, Note_on_c, 13, 57, 0
15, 30840, Note_on_c, 13, 57, 115
15, 30899, Note_on_c, 13, 57, 0
15, 30900, Note_on_c, 13, 61, 115
15, 30959, Note_on_c, 13, 61, 0
15, 30960, Note_on_c, 13, 50, 115
15, 31259, Note_on_c, 13, 50, 0
15, 31260, Note_on_c, 13, 49, 115
15, 31319, Note_on_c, 13, 49, 0
15, 31320, Note_on_c, 13, 51, 115
15, 31379, Note_on_c, 13, 51, 0
15, 31380, Note_on_c, 13, 54, 115
15, 31439, Note_on_c, 13, 54, 0
15, 31440, Note_on_c, 13, 57, 115
15, 31499, Note_on_c, 13, 57, 0
15, 31500, Note_on_c, 13, 54, 115
15, 31559, Note_on_c, 13, 54, 0
15, 31560, Note_on_c, 13, 51, 115
15, 31619, Note_on_c, 13, 51, 0
15, 31620, Note_on_c, 13, 47, 115
15, 31679, Note_on_c, 13, 47, 0
15, 31680, Note_on_c, 13, 52, 115
15, 32099, Note_on_c, 13, 52, 0
15, 32100, Note_on_c, 13, 52, 115
15, 32219, Note_on_c, 13, 52, 0
15, 32220, Note_on_c, 13, 56, 115
15, 32279, Note_on_c, 13, 56, 0
15, 32280, Note_on_c, 13, 59, 115
15, 32339, Note_on_c, 13, 59, 0
15, 32340, Note_on_c, 13, 62, 115
15, 32399, Note_on_c, 13, 62, 0
15, 32400, Note_on_c, 13, 61, 115
15, 32459, Note_on_c, 13, 61, 0
15, 32460, Note_on_c, 13, 57, 115
15, 32489, Note_on_c, 13, 57, 0
15, 32490, Note_on_c, 13, 59, 115
15, 32519, Note_on_c, 13, 59, 0
15, 32520, Note_on_c, 13, 61, 115
15, 32579, Note_on_c, 13, 61, 0
15, 32580, Note_on_c, 13, 57, 115
15, 32639, Note_on_c, 13, 57, 0
15, 32640, Note_on_c, 13, 61, 115
15, 32699, Note_on_c, 13, 61, 0
15, 32700, Note_on_c, 13, 57, 115
15, 32759, Note_on_c, 13, 57, 0
15, 32760, Note_on_c, 13, 62, 115
15, 32819, Note_on_c, 13, 62, 0
15, 32880, Note_on_c, 13, 54, 115
15, 32939, Note_on_c, 13, 54, 0
15, 33000, Note_on_c, 13, 50, 115
15, 33059, Note_on_c, 13, 50, 0
15, 33120, Note_on_c, 13, 57, 115
15, 33179, Note_on_c, 13, 57, 0
15, 33240, Note_on_c, 13, 57, 115
15, 33299, Note_on_c, 13, 57, 0
15, 33360, Note_on_c, 13, 54, 115
15, 33419, Note_on_c, 13, 54, 0
15, 33480, Note_on_c, 13, 59, 115
15, 33539, Note_on_c, 13, 59, 0
15, 33600, Note_on_c, 13, 64, 115
15, 33659, Note_on_c, 13, 64, 0
15, 33720, Note_on_c, 13, 52, 115
15, 33779, Note_on_c, 13, 52, 0
15, 33840, Note_on_c, 13, 45, 115
15, 33899, Note_on_c, 13, 45, 0
15, 33900, Note_on_c, 13, 44, 115
15, 33929, Note_on_c, 13, 44, 0
15, 33930, Note_on_c, 13, 45, 115
15, 33959, Note_on_c, 13, 45, 0
15, 33960, Note_on_c, 13, 47, 115
15, 34019, Note_on_c, 13, 47, 0
15, 34020, Note_on_c, 13, 45, 115
15, 34049, Note_on_c, 13, 45, 0
15, 34050, Note_on_c, 13, 47, 115
15, 34079, Note_on_c, 13, 47, 0
15, 34080, Note_on_c, 13, 49, 115
15, 34139, Note_on_c, 13, 49, 0
15, 34140, Note_on_c, 13, 47, 115
15, 34169, Note_on_c, 13, 47, 0
15, 34170, Note_on_c, 13, 49, 115
15, 34199, Note_on_c, 13, 49, 0
15, 34200, Note_on_c, 13, 50, 115
15, 34259, Note_on_c, 13, 50, 0
15, 34260, Note_on_c, 13, 49, 115
15, 34289, Note_on_c, 13, 49, 0
15, 34290, Note_on_c, 13, 50, 115
15, 34319, Note_on_c, 13, 50, 0
15, 34320, Note_on_c, 13, 52, 115
15, 34379, Note_on_c, 13, 52, 0
15, 34380, Note_on_c, 13, 50, 115
15, 34409, Note_on_c, 13, 50, 0
15, 34410, Note_on_c, 13, 52, 115
15, 34439, Note_on_c, 13, 52, 0
15, 34440, Note_on_c, 13, 54, 115
15, 34499, Note_on_c, 13, 54, 0
15, 34500, Note_on_c, 13, 52, 115
15, 34529, Note_on_c, 13, 52, 0
15, 34530, Note_on_c, 13, 54, 115
15, 34559, Note_on_c, 13, 54, 0
15, 34560, Note_on_c, 13, 56, 115
15, 34619, Note_on_c, 13, 56, 0
15, 34620, Note_on_c, 13, 52, 115
15, 34679, Note_on_c, 13, 52, 0
15, 34680, Note_on_c, 13, 57, 115
15, 34739, Note_on_c, 13, 57, 0
15, 34740, Note_on_c, 13, 49, 115
15, 34769, Note_on_c, 13, 49, 0
15, 34770, Note_on_c, 13, 50, 115
15, 34799, Note_on_c, 13, 50, 0
15, 34800, Note_on_c, 13, 52, 115
15, 34859, Note_on_c, 13, 52, 0
15, 34860, Note_on_c, 13, 52, 115
15, 34919, Note_on_c, 13, 52, 0
15, 34920, Note_on_c, 13, 45, 115
15, 35039, Note_on_c, 13, 45, 0
15, 35100, Note_on_c, 13, 57, 115
15, 35129, Note_on_c, 13, 57, 0
15, 35130, Note_on_c, 13, 59, 115
15, 35159, Note_on_c, 13, 59, 0
15, 35160, Note_on_c, 13, 57, 115
15, 35219, Note_on_c, 13, 57, 0
15, 35220, Note_on_c, 13, 56, 115
15, 35279, Note_on_c, 13, 56, 0
15, 35280, Note_on_c, 13, 54, 115
15, 35339, Note_on_c, 13, 54, 0
15, 35340, Note_on_c, 13, 56, 115
15, 35399, Note_on_c, 13, 56, 0
15, 35400, Note_on_c, 13, 57, 115
15, 35459, Note_on_c, 13, 57, 0
15, 35460, Note_on_c, 13, 59, 115
15, 35519, Note_on_c, 13, 59, 0
15, 35520, Note_on_c, 13, 61, 115
15, 35579, Note_on_c, 13, 61, 0
15, 35580, Note_on_c, 13, 49, 115
15, 35639, Note_on_c, 13, 49, 0
15, 35640, Note_on_c, 13, 54, 115
15, 35759, Note_on_c, 13, 54, 0
15, 36420, Note_on_c, 13, 54, 115
15, 36449, Note_on_c, 13, 54, 0
15, 36450, Note_on_c, 13, 56, 115
15, 36479, Note_on_c, 13, 56, 0
15, 36480, Note_on_c, 13, 54, 115
15, 36539, Note_on_c, 13, 54, 0
15, 36540, Note_on_c, 13, 52, 115
15, 36599, Note_on_c, 13, 52, 0
15, 36600, Note_on_c, 13, 51, 115
15, 36659, Note_on_c, 13, 51, 0
15, 36660, Note_on_c, 13, 47, 115
15, 36719, Note_on_c, 13, 47, 0
15, 36720, Note_on_c, 13, 52, 115
15, 36779, Note_on_c, 13, 52, 0
15, 36780, Note_on_c, 13, 54, 115
15, 36839, Note_on_c, 13, 54, 0
15, 36840, Note_on_c, 13, 56, 115
15, 36899, Note_on_c, 13, 56, 0
15, 36900, Note_on_c, 13, 54, 115
15, 36959, Note_on_c, 13, 54, 0
15, 36960, Note_on_c, 13, 56, 115
15, 37019, Note_on_c, 13, 56, 0
15, 37020, Note_on_c, 13, 58, 115
15, 37079, Note_on_c, 13, 58, 0
15, 37080, Note_on_c, 13, 59, 115
15, 37199, Note_on_c, 13, 59, 0
15, 37920, Note_on_c, 13, 61, 115
15, 37979, Note_on_c, 13, 61, 0
15, 37980, Note_on_c, 13, 59, 115
15, 38039, Note_on_c, 13, 59, 0
15, 38040, Note_on_c, 13, 57, 115
15, 38219, Note_on_c, 13, 57, 0
15, 38220, Note_on_c, 13, 59, 115
15, 38249, Note_on_c, 13, 59, 0
15, 38250, Note_on_c, 13, 61, 115
15, 38279, Note_on_c, 13, 61, 0
15, 38280, Note_on_c, 13, 59, 115
15, 38339, Note_on_c, 13, 59, 0
15, 38340, Note_on_c, 13, 57, 115
15, 38399, Note_on_c, 13, 57, 0
15, 38400, Note_on_c, 13, 56, 115
15, 38579, Note_on_c, 13, 56, 0
15, 38580, Note_on_c, 13, 57, 115
15, 38609, Note_on_c, 13, 57, 0
15, 38610, Note_on_c, 13, 59, 115
15, 38639, Note_on_c, 13, 59, 0
15, 38640, Note_on_c, 13, 57, 115
15, 38699, Note_on_c, 13, 57, 0
15, 38700, Note_on_c, 13, 56, 115
15, 38759, Note_on_c, 13, 56, 0
15, 38760, Note_on_c, 13, 54, 115
15, 38819, Note_on_c, 13, 54, 0
15, 38820, Note_on_c, 13, 51, 115
15, 38879, Note_on_c, 13, 51, 0
15, 38880, Note_on_c, 13, 56, 115
15, 38939, Note_on_c, 13, 56, 0
15, 38940, Note_on_c, 13, 58, 115
15, 38999, Note_on_c, 13, 58, 0
15, 39000, Note_on_c, 13, 60, 115
15, 39059, Note_on_c, 13, 60, 0
15, 39060, Note_on_c, 13, 56, 115
15, 39119, Note_on_c, 13, 56, 0
15, 39120, Note_on_c, 13, 58, 115
15, 39179, Note_on_c, 13, 58, 0
15, 39180, Note_on_c, 13, 60, 115
15, 39239, Note_on_c, 13, 60, 0
15, 39240, Note_on_c, 13, 61, 115
15, 39299, Note_on_c, 13, 61, 0
15, 39300, Note_on_c, 13, 57, 115
15, 39359, Note_on_c, 13, 57, 0
15, 39360, Note_on_c, 13, 52, 115
15, 39419, Note_on_c, 13, 52, 0
15, 39420, Note_on_c, 13, 57, 115
15, 39479, Note_on_c, 13, 57, 0
15, 39480, Note_on_c, 13, 54, 115
15, 39539, Note_on_c, 13, 54, 0
15, 39540, Note_on_c, 13, 56, 115
15, 39569, Note_on_c, 13, 56, 0
15, 39570, Note_on_c, 13, 56, 115
15, 39599, Note_on_c, 13, 56, 0
15, 39600, Note_on_c, 13, 49, 115
15, 39719, Note_on_c, 13, 49, 0
15, 40560, Note_on_c, 13, 52, 115
15, 40619, Note_on_c, 13, 52, 0
15, 40620, Note_on_c, 13, 54, 115
15, 40679, Note_on_c, 13, 54, 0
15, 40680, Note_on_c, 13, 56, 115
15, 40829, Note_on_c, 13, 56, 0
15, 40830, Note_on_c, 13, 58, 115
15, 40859, Note_on_c, 13, 58, 0
15, 40860, Note_on_c, 13, 59, 115
15, 40919, Note_on_c, 13, 59, 0
15, 40920, Note_on_c, 13, 58, 115
15, 40979, Note_on_c, 13, 58, 0
15, 40980, Note_on_c, 13, 54, 115
15, 41039, Note_on_c, 13, 54, 0
15, 41040, Note_on_c, 13, 59, 115
15, 41159, Note_on_c, 13, 59, 0
15, 42000, Note_on_c, 13, 52, 115
15, 42059, Note_on_c, 13, 52, 0
15, 42060, Note_on_c, 13, 50, 115
15, 42119, Note_on_c, 13, 50, 0
15, 42120, Note_on_c, 13, 49, 115
15, 42299, Note_on_c, 13, 49, 0
15, 42300, Note_on_c, 13, 45, 115
15, 42359, Note_on_c, 13, 45, 0
15, 42360, Note_on_c, 13, 52, 115
15, 42419, Note_on_c, 13, 52, 0
15, 42420, Note_on_c, 13, 52, 115
15, 42479, Note_on_c, 13, 52, 0
15, 42480, Note_on_c, 13, 45, 115
15, 42599, Note_on_c, 13, 45, 0
15, 43320, Note_on_c, 13, 47, 115
15, 43379, Note_on_c, 13, 47, 0
15, 43380, Note_on_c, 13, 49, 115
15, 43439, Note_on_c, 13, 49, 0
15, 43440, Note_on_c, 13, 50, 115
15, 43619, Note_on_c, 13, 50, 0
15, 43620, Note_on_c, 13, 52, 115
15, 43649, Note_on_c, 13, 52, 0
15, 43650, Note_on_c, 13, 54, 115
15, 43679, Note_on_c, 13, 54, 0
15, 43680, Note_on_c, 13, 52, 115
15, 43739, Note_on_c, 13, 52, 0
15, 43740, Note_on_c, 13, 50, 115
15, 43799, Note_on_c, 13, 50, 0
15, 43800, Note_on_c, 13, 49, 115
15, 43979, Note_on_c, 13, 49, 0
15, 43980, Note_on_c, 13, 50, 115
15, 44009, Note_on_c, 13, 50, 0
15, 44010, Note_on_c, 13, 52, 115
15, 44039, Note_on_c, 13, 52, 0
15, 44040, Note_on_c, 13, 50, 115
15, 44099, Note_on_c, 13, 50, 0
15, 44100, Note_on_c, 13, 49, 115
15, 44159, Note_on_c, 13, 49, 0
15, 44160, Note_on_c, 13, 47, 115
15, 44219, Note_on_c, 13, 47, 0
15, 44220, Note_on_c, 13, 44, 115
15, 44279, Note_on_c, 13, 44, 0
15, 44280, Note_on_c, 13, 49, 115
15, 44339, Note_on_c, 13, 49, 0
15, 44340, Note_on_c, 13, 51, 115
15, 44399, Note_on_c, 13, 51, 0
15, 44400, Note_on_c, 13, 53, 115
15, 44459, Note_on_c, 13, 53, 0
15, 44460, Note_on_c, 13, 49, 115
15, 44519, Note_on_c, 13, 49, 0
15, 44520, Note_on_c, 13, 51, 115
15, 44579, Note_on_c, 13, 51, 0
15, 44580, Note_on_c, 13, 53, 115
15, 44639, Note_on_c, 13, 53, 0
15, 44640, Note_on_c, 13, 54, 115
15, 44699, Note_on_c, 13, 54, 0
15, 44700, Note_on_c, 13, 50, 115
15, 44759, Note_on_c, 13, 50, 0
15, 44760, Note_on_c, 13, 45, 115
15, 44819, Note_on_c, 13, 45, 0
15, 44820, Note_on_c, 13, 50, 115
15, 44879, Note_on_c, 13, 50, 0
15, 44880, Note_on_c, 13, 47, 115
15, 44939, Note_on_c, 13, 47, 0
15, 44940, Note_on_c, 13, 49, 115
15, 44969, Note_on_c, 13, 49, 0
15, 44970, Note_on_c, 13, 49, 115
15, 44999, Note_on_c, 13, 49, 0
15, 45000, Note_on_c, 13, 42, 115
15, 45119, Note_on_c, 13, 42, 0
15, 51180, Note_on_c, 13, 57, 115
15, 51210, Note_on_c, 13, 57, 0
15, 51210, Note_on_c, 13, 59, 115
15, 51240, Note_on_c, 13, 59, 0
15, 51240, Note_on_c, 13, 61, 115
15, 51300, Note_on_c, 13, 61, 0
15, 51300, Note_on_c, 13, 61, 115
15, 51360, Note_on_c, 13, 61, 0
15, 51360, Note_on_c, 13, 62, 115
15, 51390, Note_on_c, 13, 62, 0
15, 51390, Note_on_c, 13, 61, 115
15, 51420, Note_on_c, 13, 61, 0
15, 51420, Note_on_c, 13, 62, 115
15, 51480, Note_on_c, 13, 62, 0
15, 51480, Note_on_c, 13, 61, 115
15, 51540, Note_on_c, 13, 61, 0
15, 51540, Note_on_c, 13, 57, 115
15, 51660, Note_on_c, 13, 57, 0
15, 51660, Note_on_c, 13, 55, 115
15, 51720, Note_on_c, 13, 55, 0
15, 51720, Note_on_c, 13, 54, 115
15, 51780, Note_on_c, 13, 54, 0
15, 51780, Note_on_c, 13, 50, 115
15, 51840, Note_on_c, 13, 50, 0
15, 51840, Note_on_c, 13, 57, 115
15, 51900, Note_on_c, 13, 57, 0
15, 52200, Note_on_c, 13, 57, 115
15, 52260, Note_on_c, 13, 57, 0
15, 52260, Note_on_c, 13, 57, 115
15, 52320, Note_on_c, 13, 57, 0
15, 52320, Note_on_c, 13, 57, 115
15, 52380, Note_on_c, 13, 57, 0
15, 52380, Note_on_c, 13, 61, 115
15, 52440, Note_on_c, 13, 61, 0
15, 52440, Note_on_c, 13, 64, 115
15, 52500, Note_on_c, 13, 64, 0
15, 52500, Note_on_c, 13, 52, 115
15, 52560, Note_on_c, 13, 52, 0
15, 52560, Note_on_c, 13, 57, 115
15, 52680, Note_on_c, 13, 57, 0
15, 52680, Note_on_c, 13, 45, 115
15, 52740, Note_on_c, 13, 45, 0
15, 53340, Note_on_c, 13, 52, 115
15, 53370, Note_on_c, 13, 52, 0
15, 53370, Note_on_c, 13, 54, 115
15, 53400, Note_on_c, 13, 54, 0
15, 53400, Note_on_c, 13, 56, 115
15, 53460, Note_on_c, 13, 56, 0
15, 53460, Note_on_c, 13, 56, 115
15, 53520, Note_on_c, 13, 56, 0
15, 53520, Note_on_c, 13, 57, 115
15, 53550, Note_on_c, 13, 57, 0
15, 53550, Note_on_c, 13, 56, 115
15, 53580, Note_on_c, 13, 56, 0
15, 53580, Note_on_c, 13, 57, 115
15, 53640, Note_on_c, 13, 57, 0
15, 53640, Note_on_c, 13, 52, 115
15, 53700, Note_on_c, 13, 52, 0
15, 54000, Note_on_c, 13, 52, 115
15, 54060, Note_on_c, 13, 52, 0
15, 54060, Note_on_c, 13, 52, 115
15, 54120, Note_on_c, 13, 52, 0
15, 54120, Note_on_c, 13, 52, 115
15, 54180, Note_on_c, 13, 52, 0
15, 54180, Note_on_c, 13, 56, 115
15, 54240, Note_on_c, 13, 56, 0
15, 54240, Note_on_c, 13, 59, 115
15, 54300, Note_on_c, 13, 59, 0
15, 54300, Note_on_c, 13, 47, 115
15, 54360, Note_on_c, 13, 47, 0
15, 54360, Note_on_c, 13, 52, 115
15, 54480, Note_on_c, 13, 52, 0
15, 54480, Note_on_c, 13, 52, 115
15, 54540, Note_on_c, 13, 52, 0
15, 54780, Note_on_c, 13, 54, 115
15, 54810, Note_on_c, 13, 54, 0
15, 54810, Note_on_c, 13, 56, 115
15, 54840, Note_on_c, 13, 56, 0
15, 54840, Note_on_c, 13, 57, 115
15, 54900, Note_on_c, 13, 57, 0
15, 54900, Note_on_c, 13, 57, 115
15, 54960, Note_on_c, 13, 57, 0
15, 54960, Note_on_c, 13, 59, 115
15, 54990, Note_on_c, 13, 59, 0
15, 54990, Note_on_c, 13, 57, 115
15, 55020, Note_on_c, 13, 57, 0
15, 55020, Note_on_c, 13, 59, 115
15, 55080, Note_on_c, 13, 59, 0
15, 55080, Note_on_c, 13, 61, 115
15, 55140, Note_on_c, 13, 61, 0
15, 55140, Note_on_c, 13, 61, 115
15, 55200, Note_on_c, 13, 61, 0
15, 55200, Note_on_c, 13, 59, 115
15, 55260, Note_on_c, 13, 59, 0
15, 55260, Note_on_c, 13, 57, 115
15, 55320, Note_on_c, 13, 57, 0
15, 55320, Note_on_c, 13, 56, 115
15, 55380, Note_on_c, 13, 56, 0
15, 55380, Note_on_c, 13, 54, 115
15, 55440, Note_on_c, 13, 54, 0
15, 55440, Note_on_c, 13, 52, 115
15, 55500, Note_on_c, 13, 52, 0
15, 55800, Note_on_c, 13, 57, 115
15, 55860, Note_on_c, 13, 57, 0
15, 55860, Note_on_c, 13, 57, 115
15, 55920, Note_on_c, 13, 57, 0
15, 55920, Note_on_c, 13, 57, 115
15, 55980, Note_on_c, 13, 57, 0
15, 55980, Note_on_c, 13, 61, 115
15, 56040, Note_on_c, 13, 61, 0
15, 56040, Note_on_c, 13, 64, 115
15, 56100, Note_on_c, 13, 64, 0
15, 56100, Note_on_c, 13, 52, 115
15, 56160, Note_on_c, 13, 52, 0
15, 56160, Note_on_c, 13, 57, 115
15, 56280, Note_on_c, 13, 57, 0
15, 56280, Note_on_c, 13, 45, 115
15, 56340, Note_on_c, 13, 45, 0
15, 59220, Note_on_c, 13, 59, 115
15, 59339, Note_on_c, 13, 59, 0
15, 59340, Note_on_c, 13, 56, 115
15, 59399, Note_on_c, 13, 56, 0
15, 59400, Note_on_c, 13, 52, 115
15, 59459, Note_on_c, 13, 52, 0
15, 59460, Note_on_c, 13, 54, 115
15, 59489, Note_on_c, 13, 54, 0
15, 59490, Note_on_c, 13, 56, 115
15, 59519, Note_on_c, 13, 56, 0
15, 59520, Note_on_c, 13, 57, 115
15, 59549, Note_on_c, 13, 57, 0
15, 59550, Note_on_c, 13, 59, 115
15, 59579, Note_on_c, 13, 59, 0
15, 59580, Note_on_c, 13, 61, 115
15, 59639, Note_on_c, 13, 61, 0
15, 59640, Note_on_c, 13, 59, 115
15, 59699, Note_on_c, 13, 59, 0
15, 59700, Note_on_c, 13, 57, 115
15, 59729, Note_on_c, 13, 57, 0
15, 59730, Note_on_c, 13, 56, 115
15, 59759, Note_on_c, 13, 56, 0
15, 59760, Note_on_c, 13, 54, 115
15, 59819, Note_on_c, 13, 54, 0
15, 59820, Note_on_c, 13, 51, 115
15, 59849, Note_on_c, 13, 51, 0
15, 59850, Note_on_c, 13, 52, 115
15, 59879, Note_on_c, 13, 52, 0
15, 59880, Note_on_c, 13, 54, 115
15, 59909, Note_on_c, 13, 54, 0
15, 59910, Note_on_c, 13, 56, 115
15, 59939, Note_on_c, 13, 56, 0
15, 59940, Note_on_c, 13, 57, 115
15, 59999, Note_on_c, 13, 57, 0
15, 60000, Note_on_c, 13, 57, 115
15, 60179, Note_on_c, 13, 57, 0
15, 60180, Note_on_c, 13, 56, 115
15, 60239, Note_on_c, 13, 56, 0
15, 60240, Note_on_c, 13, 59, 115
15, 60299, Note_on_c, 13, 59, 0
15, 60300, Note_on_c, 13, 56, 115
15, 60359, Note_on_c, 13, 56, 0
15, 60360, Note_on_c, 13, 52, 115
15, 60419, Note_on_c, 13, 52, 0
15, 60420, Note_on_c, 13, 56, 115
15, 60479, Note_on_c, 13, 56, 0
15, 60480, Note_on_c, 13, 57, 115
15, 60779, Note_on_c, 13, 57, 0
15, 60780, Note_on_c, 13, 56, 115
15, 60839, Note_on_c, 13, 56, 0
15, 60840, Note_on_c, 13, 58, 115
15, 60899, Note_on_c, 13, 58, 0
15, 60900, Note_on_c, 13, 61, 115
15, 60959, Note_on_c, 13, 61, 0
15, 60960, Note_on_c, 13, 64, 115
15, 61019, Note_on_c, 13, 64, 0
15, 61020, Note_on_c, 13, 61, 115
15, 61079, Note_on_c, 13, 61, 0
15, 61080, Note_on_c, 13, 58, 115
15, 61139, Note_on_c, 13, 58, 0
15, 61140, Note_on_c, 13, 54, 115
15, 61199, Note_on_c, 13, 54, 0
15, 61200, Note_on_c, 13, 59, 115
15, 61620, Note_on_c, 13, 59, 0
15, 61620, Note_on_c, 13, 47, 115
15, 61739, Note_on_c, 13, 47, 0
15, 61740, Note_on_c, 13, 51, 115
15, 61799, Note_on_c, 13, 51, 0
15, 61800, Note_on_c, 13, 54, 115
15, 61859, Note_on_c, 13, 54, 0
15, 61860, Note_on_c, 13, 57, 115
15, 61919, Note_on_c, 13, 57, 0
15, 61920, Note_on_c, 13, 56, 115
15, 61979, Note_on_c, 13, 56, 0
15, 61980, Note_on_c, 13, 52, 115
15, 62009, Note_on_c, 13, 52, 0
15, 62010, Note_on_c, 13, 54, 115
15, 62039, Note_on_c, 13, 54, 0
15, 62040, Note_on_c, 13, 56, 115
15, 62099, Note_on_c, 13, 56, 0
15, 62100, Note_on_c, 13, 52, 115
15, 62159, Note_on_c, 13, 52, 0
15, 62160, Note_on_c, 13, 56, 115
15, 62219, Note_on_c, 13, 56, 0
15, 62220, Note_on_c, 13, 52, 115
15, 62279, Note_on_c, 13, 52, 0
15, 62280, Note_on_c, 13, 57, 115
15, 62339, Note_on_c, 13, 57, 0
15, 62400, Note_on_c, 13, 61, 115
15, 62459, Note_on_c, 13, 61, 0
15, 62520, Note_on_c, 13, 57, 115
15, 62579, Note_on_c, 13, 57, 0
15, 62640, Note_on_c, 13, 64, 115
15, 62699, Note_on_c, 13, 64, 0
15, 62760, Note_on_c, 13, 52, 115
15, 62819, Note_on_c, 13, 52, 0
15, 62880, Note_on_c, 13, 49, 115
15, 62939, Note_on_c, 13, 49, 0
15, 63000, Note_on_c, 13, 54, 115
15, 63059, Note_on_c, 13, 54, 0
15, 63120, Note_on_c, 13, 59, 115
15, 63179, Note_on_c, 13, 59, 0
15, 63240, Note_on_c, 13, 47, 115
15, 63299, Note_on_c, 13, 47, 0
15, 63360, Note_on_c, 13, 52, 115
15, 63419, Note_on_c, 13, 52, 0
15, 63420, Note_on_c, 13, 51, 115
15, 63449, Note_on_c, 13, 51, 0
15, 63450, Note_on_c, 13, 52, 115
15, 63479, Note_on_c, 13, 52, 0
15, 63480, Note_on_c, 13, 54, 115
15, 63539, Note_on_c, 13, 54, 0
15, 63540, Note_on_c, 13, 52, 115
15, 63569, Note_on_c, 13, 52, 0
15, 63570, Note_on_c, 13, 54, 115
15, 63599, Note_on_c, 13, 54, 0
15, 63600, Note_on_c, 13, 56, 115
15, 63659, Note_on_c, 13, 56, 0
15, 63660, Note_on_c, 13, 54, 115
15, 63689, Note_on_c, 13, 54, 0
15, 63690, Note_on_c, 13, 56, 115
15, 63719, Note_on_c, 13, 56, 0
15, 63720, Note_on_c, 13, 57, 115
15, 63779, Note_on_c, 13, 57, 0
15, 63780, Note_on_c, 13, 56, 115
15, 63809, Note_on_c, 13, 56, 0
15, 63810, Note_on_c, 13, 57, 115
15, 63839, Note_on_c, 13, 57, 0
15, 63840, Note_on_c, 13, 59, 115
15, 63899, Note_on_c, 13, 59, 0
15, 63900, Note_on_c, 13, 57, 115
15, 63929, Note_on_c, 13, 57, 0
15, 63930, Note_on_c, 13, 59, 115
15, 63959, Note_on_c, 13, 59, 0
15, 63960, Note_on_c, 13, 61, 115
15, 64019, Note_on_c, 13, 61, 0
15, 64020, Note_on_c, 13, 59, 115
15, 64049, Note_on_c, 13, 59, 0
15, 64050, Note_on_c, 13, 61, 115
15, 64079, Note_on_c, 13, 61, 0
15, 64080, Note_on_c, 13, 63, 115
15, 64139, Note_on_c, 13, 63, 0
15, 64140, Note_on_c, 13, 59, 115
15, 64199, Note_on_c, 13, 59, 0
15, 64200, Note_on_c, 13, 64, 115
15, 64259, Note_on_c, 13, 64, 0
15, 64260, Note_on_c, 13, 56, 115
15, 64289, Note_on_c, 13, 56, 0
15, 64290, Note_on_c, 13, 57, 115
15, 64319, Note_on_c, 13, 57, 0
15, 64320, Note_on_c, 13, 59, 115
15, 64379, Note_on_c, 13, 59, 0
15, 64380, Note_on_c, 13, 47, 115
15, 64439, Note_on_c, 13, 47, 0
15, 64440, Note_on_c, 13, 52, 115
15, 64559, Note_on_c, 13, 52, 0
15, 66060, Note_on_c, 13, 52, 115
15, 66089, Note_on_c, 13, 52, 0
15, 66090, Note_on_c, 13, 54, 115
15, 66119, Note_on_c, 13, 54, 0
15, 66120, Note_on_c, 13, 52, 115
15, 66179, Note_on_c, 13, 52, 0
15, 66180, Note_on_c, 13, 50, 115
15, 66239, Note_on_c, 13, 50, 0
15, 66240, Note_on_c, 13, 49, 115
15, 66299, Note_on_c, 13, 49, 0
15, 66300, Note_on_c, 13, 52, 115
15, 66359, Note_on_c, 13, 52, 0
15, 66360, Note_on_c, 13, 57, 115
15, 66419, Note_on_c, 13, 57, 0
15, 66420, Note_on_c, 13, 61, 115
15, 66449, Note_on_c, 13, 61, 0
15, 66450, Note_on_c, 13, 59, 115
15, 66479, Note_on_c, 13, 59, 0
15, 66480, Note_on_c, 13, 61, 115
15, 66539, Note_on_c, 13, 61, 0
15, 66540, Note_on_c, 13, 57, 115
15, 66599, Note_on_c, 13, 57, 0
15, 66600, Note_on_c, 13, 56, 115
15, 66659, Note_on_c, 13, 56, 0
15, 66660, Note_on_c, 13, 52, 115
15, 66719, Note_on_c, 13, 52, 0
15, 66720, Note_on_c, 13, 52, 115
15, 66779, Note_on_c, 13, 52, 0
15, 66780, Note_on_c, 13, 56, 115
15, 66839, Note_on_c, 13, 56, 0
15, 66840, Note_on_c, 13, 56, 115
15, 66899, Note_on_c, 13, 56, 0
15, 66900, Note_on_c, 13, 52, 115
15, 66959, Note_on_c, 13, 52, 0
15, 66960, Note_on_c, 13, 57, 115
15, 67079, Note_on_c, 13, 57, 0
15, 67080, Note_on_c, 13, 45, 115
15, 67139, Note_on_c, 13, 45, 0
15, 68580, Note_on_c, 13, 57, 115
15, 68609, Note_on_c, 13, 57, 0
15, 68610, Note_on_c, 13, 59, 115
15, 68639, Note_on_c, 13, 59, 0
15, 68640, Note_on_c, 13, 57, 115
15, 68699, Note_on_c, 13, 57, 0
15, 68700, Note_on_c, 13, 55, 115
15, 68759, Note_on_c, 13, 55, 0
15, 68760, Note_on_c, 13, 54, 115
15, 68819, Note_on_c, 13, 54, 0
15, 68820, Note_on_c, 13, 57, 115
15, 68879, Note_on_c, 13, 57, 0
15, 68880, Note_on_c, 13, 62, 115
15, 68939, Note_on_c, 13, 62, 0
15, 68940, Note_on_c, 13, 54, 115
15, 68969, Note_on_c, 13, 54, 0
15, 68970, Note_on_c, 13, 52, 115
15, 68999, Note_on_c, 13, 52, 0
15, 69000, Note_on_c, 13, 54, 115
15, 69059, Note_on_c, 13, 54, 0
15, 69060, Note_on_c, 13, 50, 115
15, 69119, Note_on_c, 13, 50, 0
15, 69120, Note_on_c, 13, 49, 115
15, 69179, Note_on_c, 13, 49, 0
15, 69180, Note_on_c, 13, 57, 115
15, 69299, Note_on_c, 13, 57, 0
15, 69300, Note_on_c, 13, 49, 115
15, 69329, Note_on_c, 13, 49, 0
15, 69330, Note_on_c, 13, 47, 115
15, 69359, Note_on_c, 13, 47, 0
15, 69360, Note_on_c, 13, 49, 115
15, 69419, Note_on_c, 13, 49, 0
15, 69420, Note_on_c, 13, 45, 115
15, 69479, Note_on_c, 13, 45, 0
15, 69480, Note_on_c, 13, 50, 115
15, 69539, Note_on_c, 13, 50, 0
15, 69540, Note_on_c, 13, 54, 115
15, 69569, Note_on_c, 13, 54, 0
15, 69570, Note_on_c, 13, 55, 115
15, 69599, Note_on_c, 13, 55, 0
15, 69600, Note_on_c, 13, 57, 115
15, 69659, Note_on_c, 13, 57, 0
15, 69660, Note_on_c, 13, 57, 115
15, 69719, Note_on_c, 13, 57, 0
15, 69720, Note_on_c, 13, 57, 115
15, 69749, Note_on_c, 13, 57, 0
15, 69750, Note_on_c, 13, 56, 115
15, 69779, Note_on_c, 13, 56, 0
15, 69780, Note_on_c, 13, 57, 115
15, 69839, Note_on_c, 13, 57, 0
15, 69840, Note_on_c, 13, 56, 115
15, 69899, Note_on_c, 13, 56, 0
15, 69900, Note_on_c, 13, 52, 115
15, 70019, Note_on_c, 13, 52, 0
15, 70020, Note_on_c, 13, 50, 115
15, 70079, Note_on_c, 13, 50, 0
15, 70080, Note_on_c, 13, 49, 115
15, 70139, Note_on_c, 13, 49, 0
15, 70140, Note_on_c, 13, 47, 115
15, 70199, Note_on_c, 13, 47, 0
15, 70200, Note_on_c, 13, 49, 115
15, 70259, Note_on_c, 13, 49, 0
15, 70260, Note_on_c, 13, 57, 115
15, 70289, Note_on_c, 13, 57, 0
15, 70290, Note_on_c, 13, 59, 115
15, 70319, Note_on_c, 13, 59, 0
15, 70320, Note_on_c, 13, 61, 115
15, 70379, Note_on_c, 13, 61, 0
15, 70380, Note_on_c, 13, 61, 115
15, 70439, Note_on_c, 13, 61, 0
15, 70440, Note_on_c, 13, 61, 115
15, 70469, Note_on_c, 13, 61, 0
15, 70470, Note_on_c, 13, 59, 115
15, 70499, Note_on_c, 13, 59, 0
15, 70500, Note_on_c, 13, 61, 115
15, 70559, Note_on_c, 13, 61, 0
15, 70560, Note_on_c, 13, 54, 115
15, 70619, Note_on_c, 13, 54, 0
15, 70620, Note_on_c, 13, 50, 115
15, 70739, Note_on_c, 13, 50, 0
15, 70740, Note_on_c, 13, 49, 115
15, 70799, Note_on_c, 13, 49, 0
15, 70800, Note_on_c, 13, 47, 115
15, 70859, Note_on_c, 13, 47, 0
15, 70860, Note_on_c, 13, 45, 115
15, 70919, Note_on_c, 13, 45, 0
15, 70920, Note_on_c, 13, 47, 115
15, 70979, Note_on_c, 13, 47, 0
15, 70980, Note_on_c, 13, 59, 115
15, 71009, Note_on_c, 13, 59, 0
15, 71010, Note_on_c, 13, 61, 115
15, 71039, Note_on_c, 13, 61, 0
15, 71040, Note_on_c, 13, 62, 115
15, 71099, Note_on_c, 13, 62, 0
15, 71100, Note_on_c, 13, 54, 115
15, 71159, Note_on_c, 13, 54, 0
15, 71160, Note_on_c, 13, 59, 115
15, 71219, Note_on_c, 13, 59, 0
15, 71220, Note_on_c, 13, 57, 115
15, 71279, Note_on_c, 13, 57, 0
15, 71280, Note_on_c, 13, 56, 115
15, 71339, Note_on_c, 13, 56, 0
15, 71340, Note_on_c, 13, 59, 115
15, 71369, Note_on_c, 13, 59, 0
15, 71370, Note_on_c, 13, 57, 115
15, 71399, Note_on_c, 13, 57, 0
15, 71400, Note_on_c, 13, 56, 115
15, 71459, Note_on_c, 13, 56, 0
15, 71460, Note_on_c, 13, 56, 115
15, 71519, Note_on_c, 13, 56, 0
15, 71520, Note_on_c, 13, 54, 115
15, 71579, Note_on_c, 13, 54, 0
15, 71580, Note_on_c, 13, 52, 115
15, 71639, Note_on_c, 13, 52, 0
15, 71640, Note_on_c, 13, 57, 115
15, 71699, Note_on_c, 13, 57, 0
15, 71700, Note_on_c, 13, 54, 115
15, 71759, Note_on_c, 13, 54, 0
15, 71760, Note_on_c, 13, 49, 115
15, 71819, Note_on_c, 13, 49, 0
15, 71820, Note_on_c, 13, 47, 115
15, 71879, Note_on_c, 13, 47, 0
15, 71880, Note_on_c, 13, 49, 115
15, 71939, Note_on_c, 13, 49, 0
15, 71940, Note_on_c, 13, 50, 115
15, 71999, Note_on_c, 13, 50, 0
15, 72000, Note_on_c, 13, 52, 115
15, 72119, Note_on_c, 13, 52, 0
15, 72120, Note_on_c, 13, 52, 115
15, 72179, Note_on_c, 13, 52, 0
15, 72180, Note_on_c, 13, 59, 115
15, 72299, Note_on_c, 13, 59, 0
15, 72300, Note_on_c, 13, 56, 115
15, 72359, Note_on_c, 13, 56, 0
15, 72360, Note_on_c, 13, 52, 115
15, 72419, Note_on_c, 13, 52, 0
15, 72420, Note_on_c, 13, 54, 115
15, 72449, Note_on_c, 13, 54, 0
15, 72450, Note_on_c, 13, 56, 115
15, 72479, Note_on_c, 13, 56, 0
15, 72480, Note_on_c, 13, 57, 115
15, 72509, Note_on_c, 13, 57, 0
15, 72510, Note_on_c, 13, 59, 115
15, 72539, Note_on_c, 13, 59, 0
15, 72540, Note_on_c, 13, 61, 115
15, 72599, Note_on_c, 13, 61, 0
15, 72600, Note_on_c, 13, 61, 115
15, 72629, Note_on_c, 13, 61, 0
15, 72630, Note_on_c, 13, 59, 115
15, 72659, Note_on_c, 13, 59, 0
15, 72660, Note_on_c, 13, 57, 115
15, 72689, Note_on_c, 13, 57, 0
15, 72690, Note_on_c, 13, 56, 115
15, 72719, Note_on_c, 13, 56, 0
15, 72720, Note_on_c, 13, 54, 115
15, 72779, Note_on_c, 13, 54, 0
15, 72780, Note_on_c, 13, 52, 115
15, 72809, Note_on_c, 13, 52, 0
15, 72810, Note_on_c, 13, 54, 115
15, 72839, Note_on_c, 13, 54, 0
15, 72840, Note_on_c, 13, 56, 115
15, 72869, Note_on_c, 13, 56, 0
15, 72870, Note_on_c, 13, 57, 115
15, 72899, Note_on_c, 13, 57, 0
15, 72900, Note_on_c, 13, 59, 115
15, 72959, Note_on_c, 13, 59, 0
15, 72960, Note_on_c, 13, 57, 115
15, 73139, Note_on_c, 13, 57, 0
15, 73140, Note_on_c, 13, 54, 115
15, 73169, Note_on_c, 13, 54, 0
15, 73170, Note_on_c, 13, 52, 115
15, 73199, Note_on_c, 13, 52, 0
15, 73200, Note_on_c, 13, 54, 115
15, 73229, Note_on_c, 13, 54, 0
15, 73230, Note_on_c, 13, 56, 115
15, 73259, Note_on_c, 13, 56, 0
15, 73260, Note_on_c, 13, 57, 115
15, 73319, Note_on_c, 13, 57, 0
15, 73320, Note_on_c, 13, 59, 115
15, 73379, Note_on_c, 13, 59, 0
15, 73380, Note_on_c, 13, 57, 115
15, 73439, Note_on_c, 13, 57, 0
15, 73440, Note_on_c, 13, 56, 115
15, 73499, Note_on_c, 13, 56, 0
15, 73500, Note_on_c, 13, 59, 115
15, 73619, Note_on_c, 13, 59, 0
15, 73620, Note_on_c, 13, 56, 115
15, 73679, Note_on_c, 13, 56, 0
15, 73680, Note_on_c, 13, 52, 115
15, 73739, Note_on_c, 13, 52, 0
15, 73740, Note_on_c, 13, 56, 115
15, 73799, Note_on_c, 13, 56, 0
15, 73800, Note_on_c, 13, 57, 115
15, 73859, Note_on_c, 13, 57, 0
15, 73860, Note_on_c, 13, 52, 115
15, 73889, Note_on_c, 13, 52, 0
15, 73890, Note_on_c, 13, 50, 115
15, 73919, Note_on_c, 13, 50, 0
15, 73920, Note_on_c, 13, 52, 115
15, 73979, Note_on_c, 13, 52, 0
15, 73980, Note_on_c, 13, 45, 115
15, 74039, Note_on_c, 13, 45, 0
15, 74040, Note_on_c, 13, 55, 115
15, 74069, Note_on_c, 13, 55, 0
15, 74070, Note_on_c, 13, 54, 115
15, 74099, Note_on_c, 13, 54, 0
15, 74100, Note_on_c, 13, 55, 115
15, 74159, Note_on_c, 13, 55, 0
15, 74160, Note_on_c, 13, 54, 115
15, 74219, Note_on_c, 13, 54, 0
15, 74220, Note_on_c, 13, 57, 115
15, 74339, Note_on_c, 13, 57, 0
15, 74340, Note_on_c, 13, 54, 115
15, 74399, Note_on_c, 13, 54, 0
15, 74400, Note_on_c, 13, 50, 115
15, 74459, Note_on_c, 13, 50, 0
15, 74460, Note_on_c, 13, 57, 115
15, 74519, Note_on_c, 13, 57, 0
15, 74520, Note_on_c, 13, 59, 115
15, 74669, Note_on_c, 13, 59, 0
15, 74670, Note_on_c, 13, 57, 115
15, 74699, Note_on_c, 13, 57, 0
15, 74700, Note_on_c, 13, 55, 115
15, 74729, Note_on_c, 13, 55, 0
15, 74730, Note_on_c, 13, 54, 115
15, 74759, Note_on_c, 13, 54, 0
15, 74760, Note_on_c, 13, 52, 115
15, 74819, Note_on_c, 13, 52, 0
15, 74820, Note_on_c, 13, 57, 115
15, 74879, Note_on_c, 13, 57, 0
15, 74880, Note_on_c, 13, 57, 115
15, 74939, Note_on_c, 13, 57, 0
15, 74940, Note_on_c, 13, 45, 115
15, 74969, Note_on_c, 13, 45, 0
15, 74970, Note_on_c, 13, 47, 115
15, 74999, Note_on_c, 13, 47, 0
15, 75000, Note_on_c, 13, 49, 115
15, 75029, Note_on_c, 13, 49, 0
15, 75030, Note_on_c, 13, 50, 115
15, 75059, Note_on_c, 13, 50, 0
15, 75060, Note_on_c, 13, 52, 115
15, 75119, Note_on_c, 13, 52, 0
15, 75120, Note_on_c, 13, 49, 115
15, 75179, Note_on_c, 13, 49, 0
15, 75180, Note_on_c, 13, 45, 115
15, 75239, Note_on_c, 13, 45, 0
15, 75240, Note_on_c, 13, 50, 115
15, 75299, Note_on_c, 13, 50, 0
15, 75300, Note_on_c, 13, 54, 115
15, 75359, Note_on_c, 13, 54, 0
15, 75360, Note_on_c, 13, 59, 115
15, 75419, Note_on_c, 13, 59, 0
15, 75420, Note_on_c, 13, 57, 115
15, 75479, Note_on_c, 13, 57, 0
15, 75480, Note_on_c, 13, 56, 115
15, 75539, Note_on_c, 13, 56, 0
15, 75540, Note_on_c, 13, 57, 115
15, 75599, Note_on_c, 13, 57, 0
15, 75600, Note_on_c, 13, 52, 115
15, 75659, Note_on_c, 13, 52, 0
15, 75660, Note_on_c, 13, 52, 115
15, 75689, Note_on_c, 13, 52, 0
15, 75690, Note_on_c, 13, 54, 115
15, 75719, Note_on_c, 13, 54, 0
15, 75720, Note_on_c, 13, 56, 115
15, 75779, Note_on_c, 13, 56, 0
15, 75780, Note_on_c, 13, 59, 115
15, 75839, Note_on_c, 13, 59, 0
15, 75840, Note_on_c, 13, 56, 115
15, 75899, Note_on_c, 13, 56, 0
15, 75900, Note_on_c, 13, 52, 115
15, 75959, Note_on_c, 13, 52, 0
15, 75960, Note_on_c, 13, 57, 115
15, 76019, Note_on_c, 13, 57, 0
15, 76020, Note_on_c, 13, 52, 115
15, 76139, Note_on_c, 13, 52, 0
15, 76140, Note_on_c, 13, 57, 115
15, 76199, Note_on_c, 13, 57, 0
15, 76200, Note_on_c, 13, 57, 115
15, 76259, Note_on_c, 13, 57, 0
15, 76260, Note_on_c, 13, 61, 115
15, 76319, Note_on_c, 13, 61, 0
15, 76320, Note_on_c, 13, 50, 115
15, 76619, Note_on_c, 13, 50, 0
15, 76620, Note_on_c, 13, 49, 115
15, 76679, Note_on_c, 13, 49, 0
15, 76680, Note_on_c, 13, 51, 115
15, 76739, Note_on_c, 13, 51, 0
15, 76740, Note_on_c, 13, 54, 115
15, 76799, Note_on_c, 13, 54, 0
15, 76800, Note_on_c, 13, 57, 115
15, 76859, Note_on_c, 13, 57, 0
15, 76860, Note_on_c, 13, 54, 115
15, 76919, Note_on_c, 13, 54, 0
15, 76920, Note_on_c, 13, 51, 115
15, 76979, Note_on_c, 13, 51, 0
15, 76980, Note_on_c, 13, 47, 115
15, 77039, Note_on_c, 13, 47, 0
15, 77040, Note_on_c, 13, 52, 115
15, 77459, Note_on_c, 13, 52, 0
15, 77460, Note_on_c, 13, 52, 115
15, 77579, Note_on_c, 13, 52, 0
15, 77580, Note_on_c, 13, 56, 115
15, 77639, Note_on_c, 13, 56, 0
15, 77640, Note_on_c, 13, 59, 115
15, 77699, Note_on_c, 13, 59, 0
15, 77700, Note_on_c, 13, 62, 115
15, 77759, Note_on_c, 13, 62, 0
15, 77760, Note_on_c, 13, 61, 115
15, 77819, Note_on_c, 13, 61, 0
15, 77820, Note_on_c, 13, 57, 115
15, 77849, Note_on_c, 13, 57, 0
15, 77850, Note_on_c, 13, 59, 115
15, 77879, Note_on_c, 13, 59, 0
15, 77880, Note_on_c, 13, 61, 115
15, 77939, Note_on_c, 13, 61, 0
15, 77940, Note_on_c, 13, 57, 115
15, 77999, Note_on_c, 13, 57, 0
15, 78000, Note_on_c, 13, 61, 115
15, 78059, Note_on_c, 13, 61, 0
15, 78060, Note_on_c, 13, 57, 115
15, 78119, Note_on_c, 13, 57, 0
15, 78120, Note_on_c, 13, 62, 115
15, 78179, Note_on_c, 13, 62, 0
15, 78240, Note_on_c, 13, 54, 115
15, 78299, Note_on_c, 13, 54, 0
15, 78360, Note_on_c, 13, 50, 115
15, 78419, Note_on_c, 13, 50, 0
15, 78480, Note_on_c, 13, 57, 115
15, 78539, Note_on_c, 13, 57, 0
15, 78600, Note_on_c, 13, 57, 115
15, 78659, Note_on_c, 13, 57, 0
15, 78720, Note_on_c, 13, 54, 115
15, 78779, Note_on_c, 13, 54, 0
15, 78840, Note_on_c, 13, 59, 115
15, 78899, Note_on_c, 13, 59, 0
15, 78960, Note_on_c, 13, 64, 115
15, 79019, Note_on_c, 13, 64, 0
15, 79080, Note_on_c, 13, 52, 115
15, 79139, Note_on_c, 13, 52, 0
15, 79200, Note_on_c, 13, 45, 115
15, 79259, Note_on_c, 13, 45, 0
15, 79260, Note_on_c, 13, 44, 115
15, 79289, Note_on_c, 13, 44, 0
15, 79290, Note_on_c, 13, 45, 115
15, 79319, Note_on_c, 13, 45, 0
15, 79320, Note_on_c, 13, 47, 115
15, 79379, Note_on_c, 13, 47, 0
15, 79380, Note_on_c, 13, 45, 115
15, 79409, Note_on_c, 13, 45, 0
15, 79410, Note_on_c, 13, 47, 115
15, 79439, Note_on_c, 13, 47, 0
15, 79440, Note_on_c, 13, 49, 115
15, 79499, Note_on_c, 13, 49, 0
15, 79500, Note_on_c, 13, 47, 115
15, 79529, Note_on_c, 13, 47, 0
15, 79530, Note_on_c, 13, 49, 115
15, 79559, Note_on_c, 13, 49, 0
15, 79560, Note_on_c, 13, 50, 115
15, 79619, Note_on_c, 13, 50, 0
15, 79620, Note_on_c, 13, 49, 115
15, 79649, Note_on_c, 13, 49, 0
15, 79650, Note_on_c, 13, 50, 115
15, 79679, Note_on_c, 13, 50, 0
15, 79680, Note_on_c, 13, 52, 115
15, 79739, Note_on_c, 13, 52, 0
15, 79740, Note_on_c, 13, 50, 115
15, 79769, Note_on_c, 13, 50, 0
15, 79770, Note_on_c, 13, 52, 115
15, 79799, Note_on_c, 13, 52, 0
15, 79800, Note_on_c, 13, 54, 115
15, 79859, Note_on_c, 13, 54, 0
15, 79860, Note_on_c, 13, 52, 115
15, 79889, Note_on_c, 13, 52, 0
15, 79890, Note_on_c, 13, 54, 115
15, 79919, Note_on_c, 13, 54, 0
15, 79920, Note_on_c, 13, 56, 115
15, 79979, Note_on_c, 13, 56, 0
15, 79980, Note_on_c, 13, 52, 115
15, 80039, Note_on_c, 13, 52, 0
15, 80040, Note_on_c, 13, 57, 115
15, 80099, Note_on_c, 13, 57, 0
15, 80100, Note_on_c, 13, 49, 115
15, 80129, Note_on_c, 13, 49, 0
15, 80130, Note_on_c, 13, 50, 115
15, 80159, Note_on_c, 13, 50, 0
15, 80160, Note_on_c, 13, 52, 115
15, 80219, Note_on_c, 13, 52, 0
15, 80220, Note_on_c, 13, 52, 115
15, 80279, Note_on_c, 13, 52, 0
15, 80280, Note_on_c, 13, 45, 115
15, 80399, Note_on_c, 13, 45, 0
15, 83760, Note_on_c, 13, 59, 90
15, 83879, Note_on_c, 13, 59, 0
15, 84000, Note_on_c, 13, 58, 90
15, 84119, Note_on_c, 13, 58, 0
15, 84180, Note_on_c, 13, 54, 90
15, 84239, Note_on_c, 13, 54, 0
15, 84240, Note_on_c, 13, 59, 90
15, 84359, Note_on_c, 13, 59, 0
15, 84420, Note_on_c, 13, 59, 90
15, 84479, Note_on_c, 13, 59, 0
15, 84480, Note_on_c, 13, 55, 90
15, 84539, Note_on_c, 13, 55, 0
15, 84540, Note_on_c, 13, 55, 90
15, 84599, Note_on_c, 13, 55, 0
15, 84600, Note_on_c, 13, 59, 90
15, 84659, Note_on_c, 13, 59, 0
15, 84660, Note_on_c, 13, 55, 90
15, 84719, Note_on_c, 13, 55, 0
15, 84720, Note_on_c, 13, 52, 90
15, 84779, Note_on_c, 13, 52, 0
15, 84780, Note_on_c, 13, 52, 90
15, 84839, Note_on_c, 13, 52, 0
15, 84840, Note_on_c, 13, 52, 90
15, 84899, Note_on_c, 13, 52, 0
15, 84900, Note_on_c, 13, 54, 90
15, 84929, Note_on_c, 13, 54, 0
15, 84930, Note_on_c, 13, 55, 90
15, 84959, Note_on_c, 13, 55, 0
15, 84960, Note_on_c, 13, 57, 90
15, 85019, Note_on_c, 13, 57, 0
15, 85020, Note_on_c, 13, 57, 90
15, 85079, Note_on_c, 13, 57, 0
15, 85140, Note_on_c, 13, 57, 90
15, 85199, Note_on_c, 13, 57, 0
15, 85200, Note_on_c, 13, 54, 90
15, 85259, Note_on_c, 13, 54, 0
15, 85260, Note_on_c, 13, 54, 90
15, 85319, Note_on_c, 13, 54, 0
15, 85320, Note_on_c, 13, 57, 90
15, 85379, Note_on_c, 13, 57, 0
15, 85380, Note_on_c, 13, 54, 90
15, 85439, Note_on_c, 13, 54, 0
15, 85440, Note_on_c, 13, 50, 90
15, 85499, Note_on_c, 13, 50, 0
15, 85500, Note_on_c, 13, 50, 90
15, 85559, Note_on_c, 13, 50, 0
15, 85560, Note_on_c, 13, 50, 90
15, 85619, Note_on_c, 13, 50, 0
15, 85620, Note_on_c, 13, 52, 90
15, 85649, Note_on_c, 13, 52, 0
15, 85650, Note_on_c, 13, 54, 90
15, 85679, Note_on_c, 13, 54, 0
15, 85680, Note_on_c, 13, 55, 90
15, 85739, Note_on_c, 13, 55, 0
15, 85740, Note_on_c, 13, 55, 90
15, 85799, Note_on_c, 13, 55, 0
15, 85800, Note_on_c, 13, 60, 90
15, 85859, Note_on_c, 13, 60, 0
15, 85920, Note_on_c, 13, 51, 90
15, 86039, Note_on_c, 13, 51, 0
15, 87420, Note_on_c, 13, 52, 90
15, 87479, Note_on_c, 13, 52, 0
15, 87480, Note_on_c, 13, 52, 90
15, 87539, Note_on_c, 13, 52, 0
15, 87540, Note_on_c, 13, 54, 90
15, 87599, Note_on_c, 13, 54, 0
15, 87600, Note_on_c, 13, 55, 90
15, 87659, Note_on_c, 13, 55, 0
15, 87660, Note_on_c, 13, 55, 90
15, 87719, Note_on_c, 13, 55, 0
15, 87720, Note_on_c, 13, 55, 90
15, 87779, Note_on_c, 13, 55, 0
15, 87780, Note_on_c, 13, 57, 90
15, 87839, Note_on_c, 13, 57, 0
15, 87840, Note_on_c, 13, 59, 90
15, 87899, Note_on_c, 13, 59, 0
15, 87900, Note_on_c, 13, 59, 90
15, 87959, Note_on_c, 13, 59, 0
15, 88020, Note_on_c, 13, 55, 90
15, 88079, Note_on_c, 13, 55, 0
15, 88080, Note_on_c, 13, 54, 90
15, 88199, Note_on_c, 13, 54, 0
15, 88200, Note_on_c, 13, 52, 90
15, 88259, Note_on_c, 13, 52, 0
15, 88260, Note_on_c, 13, 50, 90
15, 88319, Note_on_c, 13, 50, 0
15, 88320, Note_on_c, 13, 57, 90
15, 88379, Note_on_c, 13, 57, 0
15, 88380, Note_on_c, 13, 45, 90
15, 88439, Note_on_c, 13, 45, 0
15, 88620, Note_on_c, 13, 59, 90
15, 88679, Note_on_c, 13, 59, 0
15, 88680, Note_on_c, 13, 59, 90
15, 88739, Note_on_c, 13, 59, 0
15, 88740, Note_on_c, 13, 61, 90
15, 88799, Note_on_c, 13, 61, 0
15, 88800, Note_on_c, 13, 62, 90
15, 88859, Note_on_c, 13, 62, 0
15, 88860, Note_on_c, 13, 62, 90
15, 88919, Note_on_c, 13, 62, 0
15, 88920, Note_on_c, 13, 61, 90
15, 88979, Note_on_c, 13, 61, 0
15, 88980, Note_on_c, 13, 59, 90
15, 89039, Note_on_c, 13, 59, 0
15, 89040, Note_on_c, 13, 61, 90
15, 89099, Note_on_c, 13, 61, 0
15, 89100, Note_on_c, 13, 61, 90
15, 89159, Note_on_c, 13, 61, 0
15, 89220, Note_on_c, 13, 63, 90
15, 89279, Note_on_c, 13, 63, 0
15, 89280, Note_on_c, 13, 64, 90
15, 89339, Note_on_c, 13, 64, 0
15, 89340, Note_on_c, 13, 62, 90
15, 89399, Note_on_c, 13, 62, 0
15, 89400, Note_on_c, 13, 61, 90
15, 89519, Note_on_c, 13, 61, 0
15, 89520, Note_on_c, 13, 59, 90
15, 89579, Note_on_c, 13, 59, 0
15, 89580, Note_on_c, 13, 59, 90
15, 89639, Note_on_c, 13, 59, 0
15, 89640, Note_on_c, 13, 57, 90
15, 89699, Note_on_c, 13, 57, 0
15, 89700, Note_on_c, 13, 56, 90
15, 89759, Note_on_c, 13, 56, 0
15, 89760, Note_on_c, 13, 54, 90
15, 89819, Note_on_c, 13, 54, 0
15, 89820, Note_on_c, 13, 54, 90
15, 89879, Note_on_c, 13, 54, 0
15, 89880, Note_on_c, 13, 59, 90
15, 89939, Note_on_c, 13, 59, 0
15, 89940, Note_on_c, 13, 59, 90
15, 89999, Note_on_c, 13, 59, 0
15, 90000, Note_on_c, 13, 52, 90
15, 90059, Note_on_c, 13, 52, 0
15, 90060, Note_on_c, 13, 52, 90
15, 90119, Note_on_c, 13, 52, 0
15, 90180, Note_on_c, 13, 64, 90
15, 90239, Note_on_c, 13, 64, 0
15, 90240, Note_on_c, 13, 62, 90
15, 90299, Note_on_c, 13, 62, 0
15, 90300, Note_on_c, 13, 61, 90
15, 90359, Note_on_c, 13, 61, 0
15, 90360, Note_on_c, 13, 59, 90
15, 90419, Note_on_c, 13, 59, 0
15, 90420, Note_on_c, 13, 61, 90
15, 90479, Note_on_c, 13, 61, 0
15, 90480, Note_on_c, 13, 54, 90
15, 90599, Note_on_c, 13, 54, 0
15, 90720, Note_on_c, 13, 54, 90
15, 90779, Note_on_c, 13, 54, 0
15, 90780, Note_on_c, 13, 52, 90
15, 90839, Note_on_c, 13, 52, 0
15, 90840, Note_on_c, 13, 50, 90
15, 90959, Note_on_c, 13, 50, 0
15, 90960, Note_on_c, 13, 50, 90
15, 91019, Note_on_c, 13, 50, 0
15, 91020, Note_on_c, 13, 49, 90
15, 91079, Note_on_c, 13, 49, 0
15, 91080, Note_on_c, 13, 47, 90
15, 91139, Note_on_c, 13, 47, 0
15, 91140, Note_on_c, 13, 52, 90
15, 91199, Note_on_c, 13, 52, 0
15, 91200, Note_on_c, 13, 57, 90
15, 91319, Note_on_c, 13, 57, 0
15, 91320, Note_on_c, 13, 45, 90
15, 91379, Note_on_c, 13, 45, 0
15, 91380, Note_on_c, 13, 55, 90
15, 91439, Note_on_c, 13, 55, 0
15, 91440, Note_on_c, 13, 54, 90
15, 91499, Note_on_c, 13, 54, 0
15, 91500, Note_on_c, 13, 52, 90
15, 91559, Note_on_c, 13, 52, 0
15, 91560, Note_on_c, 13, 50, 90
15, 91619, Note_on_c, 13, 50, 0
15, 91620, Note_on_c, 13, 52, 90
15, 91649, Note_on_c, 13, 52, 0
15, 91650, Note_on_c, 13, 54, 90
15, 91679, Note_on_c, 13, 54, 0
15, 91680, Note_on_c, 13, 55, 90
15, 91739, Note_on_c, 13, 55, 0
15, 91740, Note_on_c, 13, 57, 90
15, 91799, Note_on_c, 13, 57, 0
15, 91800, Note_on_c, 13, 55, 90
15, 91859, Note_on_c, 13, 55, 0
15, 91860, Note_on_c, 13, 54, 90
15, 91919, Note_on_c, 13, 54, 0
15, 91920, Note_on_c, 13, 52, 90
15, 92039, Note_on_c, 13, 52, 0
15, 92040, Note_on_c, 13, 50, 90
15, 92099, Note_on_c, 13, 50, 0
15, 92100, Note_on_c, 13, 47, 90
15, 92159, Note_on_c, 13, 47, 0
15, 92160, Note_on_c, 13, 43, 90
15, 92399, Note_on_c, 13, 43, 0
15, 92400, Note_on_c, 13, 42, 90
15, 92519, Note_on_c, 13, 42, 0
15, 97800, Note_on_c, 13, 54, 90
15, 97919, Note_on_c, 13, 54, 0
15, 97920, Note_on_c, 13, 61, 90
15, 98039, Note_on_c, 13, 61, 0
15, 98040, Note_on_c, 13, 59, 90
15, 98099, Note_on_c, 13, 59, 0
15, 98100, Note_on_c, 13, 57, 90
15, 98159, Note_on_c, 13, 57, 0
15, 98160, Note_on_c, 13, 56, 90
15, 98279, Note_on_c, 13, 56, 0
15, 98280, Note_on_c, 13, 57, 90
15, 98459, Note_on_c, 13, 57, 0
15, 98460, Note_on_c, 13, 55, 90
15, 98519, Note_on_c, 13, 55, 0
15, 98520, Note_on_c, 13, 54, 90
15, 98579, Note_on_c, 13, 54, 0
15, 98580, Note_on_c, 13, 52, 90
15, 98639, Note_on_c, 13, 52, 0
15, 98640, Note_on_c, 13, 54, 90
15, 98699, Note_on_c, 13, 54, 0
15, 98700, Note_on_c, 13, 50, 90
15, 98759, Note_on_c, 13, 50, 0
15, 98760, Note_on_c, 13, 52, 90
15, 98879, Note_on_c, 13, 52, 0
15, 98880, Note_on_c, 13, 45, 90
15, 99119, Note_on_c, 13, 45, 0
15, 99240, Note_on_c, 13, 50, 90
15, 99359, Note_on_c, 13, 50, 0
15, 99360, Note_on_c, 13, 51, 90
15, 99419, Note_on_c, 13, 51, 0
15, 99420, Note_on_c, 13, 52, 90
15, 99539, Note_on_c, 13, 52, 0
15, 99540, Note_on_c, 13, 53, 90
15, 99659, Note_on_c, 13, 53, 0
15, 99660, Note_on_c, 13, 54, 90
15, 99719, Note_on_c, 13, 54, 0
15, 99720, Note_on_c, 13, 56, 90
15, 99779, Note_on_c, 13, 56, 0
15, 99780, Note_on_c, 13, 57, 90
15, 99839, Note_on_c, 13, 57, 0
15, 99840, Note_on_c, 13, 56, 90
15, 99899, Note_on_c, 13, 56, 0
15, 99900, Note_on_c, 13, 52, 90
15, 99959, Note_on_c, 13, 52, 0
15, 99960, Note_on_c, 13, 59, 90
15, 100079, Note_on_c, 13, 59, 0
15, 100080, Note_on_c, 13, 52, 90
15, 100175, Note_on_c, 13, 52, 0
15, 100200, Note_on_c, 13, 57, 90
15, 100259, Note_on_c, 13, 57, 0
15, 100260, Note_on_c, 13, 56, 90
15, 100319, Note_on_c, 13, 56, 0
15, 100320, Note_on_c, 13, 54, 90
15, 100379, Note_on_c, 13, 54, 0
15, 100380, Note_on_c, 13, 52, 90
15, 100439, Note_on_c, 13, 52, 0
15, 100440, Note_on_c, 13, 50, 90
15, 100499, Note_on_c, 13, 50, 0
15, 100500, Note_on_c, 13, 49, 90
15, 100559, Note_on_c, 13, 49, 0
15, 100560, Note_on_c, 13, 47, 90
15, 100679, Note_on_c, 13, 47, 0
15, 100680, Note_on_c, 13, 52, 90
15, 100739, Note_on_c, 13, 52, 0
15, 100740, Note_on_c, 13, 50, 90
15, 100799, Note_on_c, 13, 50, 0
15, 100800, Note_on_c, 13, 49, 90
15, 100859, Note_on_c, 13, 49, 0
15, 100860, Note_on_c, 13, 47, 90
15, 100919, Note_on_c, 13, 47, 0
15, 100920, Note_on_c, 13, 45, 90
15, 101039, Note_on_c, 13, 45, 0
15, 101040, Note_on_c, 13, 52, 90
15, 101135, Note_on_c, 13, 52, 0
15, 101160, Note_on_c, 13, 45, 90
15, 101279, Note_on_c, 13, 45, 0
15, 101280, Note_on_c, 13, 50, 90
15, 101339, Note_on_c, 13, 50, 0
15, 101340, Note_on_c, 13, 52, 90
15, 101399, Note_on_c, 13, 52, 0
15, 101400, Note_on_c, 13, 50, 90
15, 101459, Note_on_c, 13, 50, 0
15, 101460, Note_on_c, 13, 49, 90
15, 101519, Note_on_c, 13, 49, 0
15, 101520, Note_on_c, 13, 47, 90
15, 101615, Note_on_c, 13, 47, 0
15, 101640, Note_on_c, 13, 54, 90
15, 101759, Note_on_c, 13, 54, 0
15, 101760, Note_on_c, 13, 55, 90
15, 101819, Note_on_c, 13, 55, 0
15, 101820, Note_on_c, 13, 54, 90
15, 101879, Note_on_c, 13, 54, 0
15, 101880, Note_on_c, 13, 52, 90
15, 101999, Note_on_c, 13, 52, 0
15, 102000, Note_on_c, 13, 50, 90
15, 102095, Note_on_c, 13, 50, 0
15, 102120, Note_on_c, 13, 45, 90
15, 102239, Note_on_c, 13, 45, 0
15, 102240, Note_on_c, 13, 52, 90
15, 102539, Note_on_c, 13, 52, 0
15, 102540, Note_on_c, 13, 54, 90
15, 102599, Note_on_c, 13, 54, 0
15, 102600, Note_on_c, 13, 56, 90
15, 102659, Note_on_c, 13, 56, 0
15, 102660, Note_on_c, 13, 52, 90
15, 102719, Note_on_c, 13, 52, 0
15, 102720, Note_on_c, 13, 57, 90
15, 102779, Note_on_c, 13, 57, 0
15, 102780, Note_on_c, 13, 56, 90
15, 102839, Note_on_c, 13, 56, 0
15, 102840, Note_on_c, 13, 54, 90
15, 102899, Note_on_c, 13, 54, 0
15, 102900, Note_on_c, 13, 52, 90
15, 102959, Note_on_c, 13, 52, 0
15, 102960, Note_on_c, 13, 50, 90
15, 103019, Note_on_c, 13, 50, 0
15, 103020, Note_on_c, 13, 47, 90
15, 103079, Note_on_c, 13, 47, 0
15, 103080, Note_on_c, 13, 52, 90
15, 103199, Note_on_c, 13, 52, 0
15, 103200, Note_on_c, 13, 45, 90
15, 103560, Note_on_c, 13, 45, 0
15, 201240, Note_on_c, 13, 57, 90
15, 201359, Note_on_c, 13, 57, 0
15, 201360, Note_on_c, 13, 56, 90
15, 201479, Note_on_c, 13, 56, 0
15, 201480, Note_on_c, 13, 54, 90
15, 201599, Note_on_c, 13, 54, 0
15, 201600, Note_on_c, 13, 49, 90
15, 201659, Note_on_c, 13, 49, 0
15, 201660, Note_on_c, 13, 47, 90
15, 201719, Note_on_c, 13, 47, 0
15, 201720, Note_on_c, 13, 49, 90
15, 201779, Note_on_c, 13, 49, 0
15, 201780, Note_on_c, 13, 51, 90
15, 201839, Note_on_c, 13, 51, 0
15, 201840, Note_on_c, 13, 52, 90
15, 201959, Note_on_c, 13, 52, 0
15, 201960, Note_on_c, 13, 47, 90
15, 202079, Note_on_c, 13, 47, 0
15, 202080, Note_on_c, 13, 52, 90
15, 202175, Note_on_c, 13, 52, 0
15, 202200, Note_on_c, 13, 47, 90
15, 202319, Note_on_c, 13, 47, 0
15, 202320, Note_on_c, 13, 59, 90
15, 202379, Note_on_c, 13, 59, 0
15, 202380, Note_on_c, 13, 61, 90
15, 202409, Note_on_c, 13, 61, 0
15, 202410, Note_on_c, 13, 62, 90
15, 202439, Note_on_c, 13, 62, 0
15, 202440, Note_on_c, 13, 61, 90
15, 202499, Note_on_c, 13, 61, 0
15, 202500, Note_on_c, 13, 59, 90
15, 202559, Note_on_c, 13, 59, 0
15, 202560, Note_on_c, 13, 57, 90
15, 202619, Note_on_c, 13, 57, 0
15, 202620, Note_on_c, 13, 56, 90
15, 202679, Note_on_c, 13, 56, 0
15, 202680, Note_on_c, 13, 57, 90
15, 202739, Note_on_c, 13, 57, 0
15, 202740, Note_on_c, 13, 50, 90
15, 202799, Note_on_c, 13, 50, 0
15, 202800, Note_on_c, 13, 52, 90
15, 202919, Note_on_c, 13, 52, 0
15, 202920, Note_on_c, 13, 45, 90
15, 203135, Note_on_c, 13, 45, 0
15, 203160, Note_on_c, 13, 57, 90
15, 203279, Note_on_c, 13, 57, 0
15, 203280, Note_on_c, 13, 56, 90
15, 203399, Note_on_c, 13, 56, 0
15, 203400, Note_on_c, 13, 54, 90
15, 203519, Note_on_c, 13, 54, 0
15, 203520, Note_on_c, 13, 49, 90
15, 203579, Note_on_c, 13, 49, 0
15, 203580, Note_on_c, 13, 47, 90
15, 203639, Note_on_c, 13, 47, 0
15, 203640, Note_on_c, 13, 49, 90
15, 203699, Note_on_c, 13, 49, 0
15, 203700, Note_on_c, 13, 51, 90
15, 203759, Note_on_c, 13, 51, 0
15, 203760, Note_on_c, 13, 52, 90
15, 203879, Note_on_c, 13, 52, 0
15, 203880, Note_on_c, 13, 47, 90
15, 203999, Note_on_c, 13, 47, 0
15, 204000, Note_on_c, 13, 52, 90
15, 204095, Note_on_c, 13, 52, 0
15, 204120, Note_on_c, 13, 47, 90
15, 204239, Note_on_c, 13, 47, 0
15, 204240, Note_on_c, 13, 59, 90
15, 204299, Note_on_c, 13, 59, 0
15, 204300, Note_on_c, 13, 61, 90
15, 204329, Note_on_c, 13, 61, 0
15, 204330, Note_on_c, 13, 62, 90
15, 204359, Note_on_c, 13, 62, 0
15, 204360, Note_on_c, 13, 61, 90
15, 204419, Note_on_c, 13, 61, 0
15, 204420, Note_on_c, 13, 59, 90
15, 204479, Note_on_c, 13, 59, 0
15, 204480, Note_on_c, 13, 57, 90
15, 204539, Note_on_c, 13, 57, 0
15, 204540, Note_on_c, 13, 56, 90
15, 204599, Note_on_c, 13, 56, 0
15, 204600, Note_on_c, 13, 57, 90
15, 204659, Note_on_c, 13, 57, 0
15, 204660, Note_on_c, 13, 50, 90
15, 204719, Note_on_c, 13, 50, 0
15, 204720, Note_on_c, 13, 52, 90
15, 204839, Note_on_c, 13, 52, 0
15, 204840, Note_on_c, 13, 45, 90
15, 205055, Note_on_c, 13, 45, 0
15, 205080, Note_on_c, 13, 57, 90
15, 205139, Note_on_c, 13, 57, 0
15, 205140, Note_on_c, 13, 56, 90
15, 205199, Note_on_c, 13, 56, 0
15, 205200, Note_on_c, 13, 54, 90
15, 205319, Note_on_c, 13, 54, 0
15, 205320, Note_on_c, 13, 56, 90
15, 205379, Note_on_c, 13, 56, 0
15, 205380, Note_on_c, 13, 54, 90
15, 205439, Note_on_c, 13, 54, 0
15, 205440, Note_on_c, 13, 52, 90
15, 205559, Note_on_c, 13, 52, 0
15, 205560, Note_on_c, 13, 54, 90
15, 205619, Note_on_c, 13, 54, 0
15, 205620, Note_on_c, 13, 56, 90
15, 205679, Note_on_c, 13, 56, 0
15, 205680, Note_on_c, 13, 57, 90
15, 205799, Note_on_c, 13, 57, 0
15, 205800, Note_on_c, 13, 52, 90
15, 205919, Note_on_c, 13, 52, 0
15, 205920, Note_on_c, 13, 52, 90
15, 206015, Note_on_c, 13, 52, 0
15, 206040, Note_on_c, 13, 52, 90
15, 206099, Note_on_c, 13, 52, 0
15, 206100, Note_on_c, 13, 50, 90
15, 206159, Note_on_c, 13, 50, 0
15, 206160, Note_on_c, 13, 49, 90
15, 206219, Note_on_c, 13, 49, 0
15, 206220, Note_on_c, 13, 47, 90
15, 206279, Note_on_c, 13, 47, 0
15, 206280, Note_on_c, 13, 49, 90
15, 206339, Note_on_c, 13, 49, 0
15, 206340, Note_on_c, 13, 54, 90
15, 206399, Note_on_c, 13, 54, 0
15, 206400, Note_on_c, 13, 52, 90
15, 206459, Note_on_c, 13, 52, 0
15, 206460, Note_on_c, 13, 50, 90
15, 206519, Note_on_c, 13, 50, 0
15, 206520, Note_on_c, 13, 52, 90
15, 206639, Note_on_c, 13, 52, 0
15, 206640, Note_on_c, 13, 52, 90
15, 206759, Note_on_c, 13, 52, 0
15, 206760, Note_on_c, 13, 45, 90
15, 206879, Note_on_c, 13, 45, 0
15, 206880, Note_on_c, 13, 45, 90
15, 206999, Note_on_c, 13, 45, 0
15, 206999, End_track
16, 0, Start_track
16, 0, MIDI_port, 0
16, 0, Title_t, "Organo H"
16, 0, Program_c, 14, 19
16, 0, Control_c, 14, 7, 127
16, 0, Control_c, 14, 10, 83
16, 5760, Note_on_c, 14, 61, 100
16, 5760, Note_on_c, 14, 64, 100
16, 5760, Note_on_c, 14, 69, 100
16, 6000, Note_on_c, 14, 69, 0
16, 6000, Note_on_c, 14, 64, 0
16, 6000, Note_on_c, 14, 61, 0
16, 6000, Note_on_c, 14, 66, 100
16, 6000, Note_on_c, 14, 62, 100
16, 6120, Note_on_c, 14, 62, 0
16, 6120, Note_on_c, 14, 66, 0
16, 6120, Note_on_c, 14, 61, 100
16, 6120, Note_on_c, 14, 64, 100
16, 6120, Note_on_c, 14, 69, 100
16, 6360, Note_on_c, 14, 69, 0
16, 6360, Note_on_c, 14, 64, 0
16, 6360, Note_on_c, 14, 61, 0
16, 6360, Note_on_c, 14, 78, 100
16, 6360, Note_on_c, 14, 69, 100
16, 6360, Note_on_c, 14, 74, 100
16, 6480, Note_on_c, 14, 74, 0
16, 6480, Note_on_c, 14, 69, 0
16, 6480, Note_on_c, 14, 78, 0
16, 6480, Note_on_c, 14, 76, 100
16, 6480, Note_on_c, 14, 73, 100
16, 6480, Note_on_c, 14, 69, 100
16, 6600, Note_on_c, 14, 76, 0
16, 6600, Note_on_c, 14, 64, 100
16, 6720, Note_on_c, 14, 64, 0
16, 6720, Note_on_c, 14, 69, 0
16, 6720, Note_on_c, 14, 73, 0
16, 6720, Note_on_c, 14, 62, 100
16, 6720, Note_on_c, 14, 66, 100
16, 6840, Note_on_c, 14, 66, 0
16, 6840, Note_on_c, 14, 62, 0
16, 6840, Note_on_c, 14, 61, 100
16, 6840, Note_on_c, 14, 64, 100
16, 6840, Note_on_c, 14, 69, 100
16, 7080, Note_on_c, 14, 69, 0
16, 7080, Note_on_c, 14, 64, 0
16, 7080, Note_on_c, 14, 61, 0
16, 7560, Note_on_c, 14, 71, 100
16, 7560, Note_on_c, 14, 68, 100
16, 7800, Note_on_c, 14, 68, 0
16, 7800, Note_on_c, 14, 71, 0
16, 7800, Note_on_c, 14, 69, 100
16, 7800, Note_on_c, 14, 73, 100
16, 7920, Note_on_c, 14, 73, 0
16, 7920, Note_on_c, 14, 69, 0
16, 7920, Note_on_c, 14, 68, 100
16, 7920, Note_on_c, 14, 71, 100
16, 8160, Note_on_c, 14, 71, 0
16, 8160, Note_on_c, 14, 68, 0
16, 8160, Note_on_c, 14, 64, 100
16, 8160, Note_on_c, 14, 69, 100
16, 8280, Note_on_c, 14, 69, 0
16, 8280, Note_on_c, 14, 64, 0
16, 8280, Note_on_c, 14, 64, 100
16, 8280, Note_on_c, 14, 68, 100
16, 8520, Note_on_c, 14, 68, 0
16, 8520, Note_on_c, 14, 64, 0
16, 9360, Note_on_c, 14, 66, 100
16, 9360, Note_on_c, 14, 61, 100
16, 9600, Note_on_c, 14, 61, 0
16, 9600, Note_on_c, 14, 66, 0
16, 9600, Note_on_c, 14, 59, 100
16, 9600, Note_on_c, 14, 62, 100
16, 9720, Note_on_c, 14, 62, 0
16, 9720, Note_on_c, 14, 59, 0
16, 9720, Note_on_c, 14, 61, 100
16, 9720, Note_on_c, 14, 64, 100
16, 9840, Note_on_c, 14, 64, 0
16, 9840, Note_on_c, 14, 61, 0
16, 9840, Note_on_c, 14, 69, 100
16, 9840, Note_on_c, 14, 64, 100
16, 9840, Note_on_c, 14, 62, 100
16, 9960, Note_on_c, 14, 62, 0
16, 9960, Note_on_c, 14, 64, 0
16, 9960, Note_on_c, 14, 69, 0
16, 9960, Note_on_c, 14, 62, 100
16, 9960, Note_on_c, 14, 66, 100
16, 10080, Note_on_c, 14, 66, 0
16, 10080, Note_on_c, 14, 62, 0
16, 10080, Note_on_c, 14, 68, 100
16, 10080, Note_on_c, 14, 64, 100
16, 10200, Note_on_c, 14, 64, 0
16, 10200, Note_on_c, 14, 68, 0
16, 10920, Note_on_c, 14, 69, 100
16, 10920, Note_on_c, 14, 64, 100
16, 11160, Note_on_c, 14, 64, 0
16, 11160, Note_on_c, 14, 69, 0
16, 11160, Note_on_c, 14, 62, 100
16, 11160, Note_on_c, 14, 66, 100
16, 11400, Note_on_c, 14, 66, 0
16, 11400, Note_on_c, 14, 62, 0
16, 11400, Note_on_c, 14, 62, 100
16, 11400, Note_on_c, 14, 64, 100
16, 11520, Note_on_c, 14, 64, 0
16, 11520, Note_on_c, 14, 62, 0
16, 11520, Note_on_c, 14, 64, 100
16, 11520, Note_on_c, 14, 68, 100
16, 11880, Note_on_c, 14, 68, 0
16, 11880, Note_on_c, 14, 64, 0
16, 11880, Note_on_c, 14, 62, 100
16, 11880, Note_on_c, 14, 69, 100
16, 12120, Note_on_c, 14, 69, 0
16, 12120, Note_on_c, 14, 62, 0
16, 12120, Note_on_c, 14, 59, 100
16, 12120, Note_on_c, 14, 69, 100
16, 12240, Note_on_c, 14, 69, 0
16, 12240, Note_on_c, 14, 59, 0
16, 12240, Note_on_c, 14, 66, 100
16, 12240, Note_on_c, 14, 63, 100
16, 12360, Note_on_c, 14, 63, 0
16, 12360, Note_on_c, 14, 66, 0
16, 12360, Note_on_c, 14, 69, 100
16, 12360, Note_on_c, 14, 71, 100
16, 12600, Note_on_c, 14, 71, 0
16, 12600, Note_on_c, 14, 69, 0
16, 12600, Note_on_c, 14, 68, 100
16, 12600, Note_on_c, 14, 71, 100
16, 12840, Note_on_c, 14, 71, 0
16, 12840, Note_on_c, 14, 68, 0
16, 12840, Note_on_c, 14, 64, 100
16, 12840, Note_on_c, 14, 74, 100
16, 12960, Note_on_c, 14, 74, 0
16, 12960, Note_on_c, 14, 64, 0
16, 12960, Note_on_c, 14, 69, 100
16, 12960, Note_on_c, 14, 71, 100
16, 13080, Note_on_c, 14, 71, 0
16, 13080, Note_on_c, 14, 69, 0
16, 13080, Note_on_c, 14, 73, 100
16, 13080, Note_on_c, 14, 69, 100
16, 13320, Note_on_c, 14, 69, 0
16, 13320, Note_on_c, 14, 73, 0
16, 13320, Note_on_c, 14, 73, 90
16, 13380, Note_on_c, 14, 73, 0
16, 13380, Note_on_c, 14, 71, 90
16, 13410, Note_on_c, 14, 71, 0
16, 13410, Note_on_c, 14, 69, 90
16, 13440, Note_on_c, 14, 69, 0
16, 13440, Note_on_c, 14, 68, 90
16, 13500, Note_on_c, 14, 68, 0
16, 13500, Note_on_c, 14, 66, 90
16, 13560, Note_on_c, 14, 66, 0
16, 13560, Note_on_c, 14, 64, 90
16, 13620, Note_on_c, 14, 64, 0
16, 13680, Note_on_c, 14, 64, 90
16, 13680, Note_on_c, 14, 68, 90
16, 14040, Note_on_c, 14, 68, 0
16, 14040, Note_on_c, 14, 64, 0
16, 14040, Note_on_c, 14, 64, 90
16, 14040, Note_on_c, 14, 69, 90
16, 14280, Note_on_c, 14, 69, 0
16, 14280, Note_on_c, 14, 64, 0
16, 14280, Note_on_c, 14, 69, 90
16, 14280, Note_on_c, 14, 71, 90
16, 14400, Note_on_c, 14, 71, 0
16, 14400, Note_on_c, 14, 69, 0
16, 14400, Note_on_c, 14, 63, 90
16, 14400, Note_on_c, 14, 71, 90
16, 14640, Note_on_c, 14, 71, 0
16, 14640, Note_on_c, 14, 63, 0
16, 14640, Note_on_c, 14, 71, 90
16, 14640, Note_on_c, 14, 69, 90
16, 14760, Note_on_c, 14, 69, 0
16, 14760, Note_on_c, 14, 71, 0
16, 14760, Note_on_c, 14, 64, 90
16, 14760, Note_on_c, 14, 68, 90
16, 14760, Note_on_c, 14, 71, 90
16, 15000, Note_on_c, 14, 71, 0
16, 15000, Note_on_c, 14, 68, 0
16, 15000, Note_on_c, 14, 64, 0
16, 24600, Note_on_c, 14, 68, 90
16, 24600, Note_on_c, 14, 76, 90
16, 24647, Note_on_c, 14, 76, 0
16, 24647, Note_on_c, 14, 68, 0
16, 24660, Note_on_c, 14, 59, 90
16, 24660, Note_on_c, 14, 71, 90
16, 24707, Note_on_c, 14, 71, 0
16, 24707, Note_on_c, 14, 59, 0
16, 24960, Note_on_c, 14, 69, 90
16, 24960, Note_on_c, 14, 76, 90
16, 25007, Note_on_c, 14, 76, 0
16, 25007, Note_on_c, 14, 69, 0
16, 25020, Note_on_c, 14, 64, 90
16, 25020, Note_on_c, 14, 73, 90
16, 25067, Note_on_c, 14, 73, 0
16, 25067, Note_on_c, 14, 64, 0
16, 25320, Note_on_c, 14, 69, 90
16, 25320, Note_on_c, 14, 74, 90
16, 25367, Note_on_c, 14, 74, 0
16, 25367, Note_on_c, 14, 69, 0
16, 25380, Note_on_c, 14, 66, 90
16, 25380, Note_on_c, 14, 69, 90
16, 25427, Note_on_c, 14, 69, 0
16, 25427, Note_on_c, 14, 66, 0
16, 35160, Note_on_c, 14, 73, 90
16, 35160, Note_on_c, 14, 69, 90
16, 35207, Note_on_c, 14, 69, 0
16, 35207, Note_on_c, 14, 73, 0
16, 35220, Note_on_c, 14, 65, 90
16, 35267, Note_on_c, 14, 65, 0
16, 35280, Note_on_c, 14, 66, 90
16, 35280, Note_on_c, 14, 69, 90
16, 35580, Note_on_c, 14, 69, 0
16, 35580, Note_on_c, 14, 66, 0
16, 35580, Note_on_c, 14, 65, 90
16, 35580, Note_on_c, 14, 68, 90
16, 35627, Note_on_c, 14, 68, 0
16, 35627, Note_on_c, 14, 65, 0
16, 35640, Note_on_c, 14, 66, 90
16, 35640, Note_on_c, 14, 69, 90
16, 35880, Note_on_c, 14, 69, 0
16, 35880, Note_on_c, 14, 66, 0
16, 35880, Note_on_c, 14, 71, 90
16, 35880, Note_on_c, 14, 62, 90
16, 36000, Note_on_c, 14, 62, 0
16, 36000, Note_on_c, 14, 71, 0
16, 36000, Note_on_c, 14, 61, 90
16, 36000, Note_on_c, 14, 69, 90
16, 36240, Note_on_c, 14, 69, 0
16, 36240, Note_on_c, 14, 61, 0
16, 36240, Note_on_c, 14, 68, 90
16, 36240, Note_on_c, 14, 65, 90
16, 36360, Note_on_c, 14, 65, 0
16, 36360, Note_on_c, 14, 68, 0
16, 36360, Note_on_c, 14, 69, 90
16, 36360, Note_on_c, 14, 66, 90
16, 36600, Note_on_c, 14, 66, 0
16, 36600, Note_on_c, 14, 69, 0
16, 36600, Note_on_c, 14, 71, 90
16, 36600, Note_on_c, 14, 66, 90
16, 36600, Note_on_c, 14, 63, 90
16, 36660, Note_on_c, 14, 63, 0
16, 36660, Note_on_c, 14, 66, 0
16, 36660, Note_on_c, 14, 63, 90
16, 36660, Note_on_c, 14, 69, 90
16, 36720, Note_on_c, 14, 69, 0
16, 36720, Note_on_c, 14, 63, 0
16, 36720, Note_on_c, 14, 71, 0
16, 36720, Note_on_c, 14, 64, 90
16, 36720, Note_on_c, 14, 68, 90
16, 36720, Note_on_c, 14, 71, 90
16, 36780, Note_on_c, 14, 64, 0
16, 36780, Note_on_c, 14, 63, 90
16, 36840, Note_on_c, 14, 63, 0
16, 36840, Note_on_c, 14, 64, 90
16, 36900, Note_on_c, 14, 64, 0
16, 36900, Note_on_c, 14, 71, 0
16, 36900, Note_on_c, 14, 68, 0
16, 36900, Note_on_c, 14, 73, 90
16, 36930, Note_on_c, 14, 73, 0
16, 36930, Note_on_c, 14, 75, 90
16, 36960, Note_on_c, 14, 75, 0
16, 36960, Note_on_c, 14, 76, 90
16, 37020, Note_on_c, 14, 76, 0
16, 37020, Note_on_c, 14, 64, 90
16, 37020, Note_on_c, 14, 78, 90
16, 37080, Note_on_c, 14, 78, 0
16, 37080, Note_on_c, 14, 64, 0
16, 37080, Note_on_c, 14, 63, 90
16, 37080, Note_on_c, 14, 78, 90
16, 37320, Note_on_c, 14, 78, 0
16, 37320, Note_on_c, 14, 66, 90
16, 37320, Note_on_c, 14, 69, 90
16, 37440, Note_on_c, 14, 69, 0
16, 37440, Note_on_c, 14, 66, 0
16, 37440, Note_on_c, 14, 63, 0
16, 37440, Note_on_c, 14, 68, 90
16, 37440, Note_on_c, 14, 66, 90
16, 37440, Note_on_c, 14, 75, 90
16, 37800, Note_on_c, 14, 75, 0
16, 37800, Note_on_c, 14, 66, 0
16, 37800, Note_on_c, 14, 68, 0
16, 37800, Note_on_c, 14, 64, 90
16, 37800, Note_on_c, 14, 68, 90
16, 37800, Note_on_c, 14, 73, 90
16, 38040, Note_on_c, 14, 73, 0
16, 38040, Note_on_c, 14, 68, 0
16, 38040, Note_on_c, 14, 64, 0
16, 38040, Note_on_c, 14, 66, 90
16, 38087, Note_on_c, 14, 66, 0
16, 38100, Note_on_c, 14, 64, 90
16, 38147, Note_on_c, 14, 64, 0
16, 38160, Note_on_c, 14, 69, 90
16, 38160, Note_on_c, 14, 63, 90
16, 38400, Note_on_c, 14, 63, 0
16, 38400, Note_on_c, 14, 69, 0
16, 40440, Note_on_c, 14, 64, 90
16, 40440, Note_on_c, 14, 68, 90
16, 40487, Note_on_c, 14, 68, 0
16, 40487, Note_on_c, 14, 64, 0
16, 40500, Note_on_c, 14, 66, 90
16, 40547, Note_on_c, 14, 66, 0
16, 40560, Note_on_c, 14, 64, 90
16, 40607, Note_on_c, 14, 64, 0
16, 40620, Note_on_c, 14, 66, 90
16, 40667, Note_on_c, 14, 66, 0
16, 40680, Note_on_c, 14, 64, 90
16, 40680, Note_on_c, 14, 68, 90
16, 40800, Note_on_c, 14, 68, 0
16, 40800, Note_on_c, 14, 64, 0
16, 40800, Note_on_c, 14, 68, 90
16, 40830, Note_on_c, 14, 68, 0
16, 40830, Note_on_c, 14, 70, 90
16, 40860, Note_on_c, 14, 70, 0
16, 40860, Note_on_c, 14, 71, 90
16, 40860, Note_on_c, 14, 67, 90
16, 40920, Note_on_c, 14, 67, 0
16, 40920, Note_on_c, 14, 71, 0
16, 40920, Note_on_c, 14, 70, 90
16, 40920, Note_on_c, 14, 66, 90
16, 40980, Note_on_c, 14, 66, 0
16, 40980, Note_on_c, 14, 70, 0
16, 40980, Note_on_c, 14, 70, 90
16, 40980, Note_on_c, 14, 64, 90
16, 41040, Note_on_c, 14, 64, 0
16, 41040, Note_on_c, 14, 70, 0
16, 41040, Note_on_c, 14, 62, 90
16, 41040, Note_on_c, 14, 66, 90
16, 41040, Note_on_c, 14, 71, 90
16, 41280, Note_on_c, 14, 71, 0
16, 41280, Note_on_c, 14, 66, 0
16, 41280, Note_on_c, 14, 62, 0
16, 41760, Note_on_c, 14, 62, 90
16, 41760, Note_on_c, 14, 66, 90
16, 41760, Note_on_c, 14, 71, 90
16, 41940, Note_on_c, 14, 71, 0
16, 41940, Note_on_c, 14, 66, 0
16, 41940, Note_on_c, 14, 62, 0
16, 41940, Note_on_c, 14, 61, 90
16, 41940, Note_on_c, 14, 64, 90
16, 41940, Note_on_c, 14, 69, 90
16, 42120, Note_on_c, 14, 69, 0
16, 42120, Note_on_c, 14, 64, 0
16, 42120, Note_on_c, 14, 61, 0
16, 42120, Note_on_c, 14, 71, 90
16, 42180, Note_on_c, 14, 71, 0
16, 42180, Note_on_c, 14, 69, 90
16, 42240, Note_on_c, 14, 69, 0
16, 51120, Note_on_c, 14, 61, 100
16, 51120, Note_on_c, 14, 64, 100
16, 51120, Note_on_c, 14, 69, 100
16, 51360, Note_on_c, 14, 69, 0
16, 51360, Note_on_c, 14, 64, 0
16, 51360, Note_on_c, 14, 61, 0
16, 51360, Note_on_c, 14, 66, 100
16, 51360, Note_on_c, 14, 62, 100
16, 51480, Note_on_c, 14, 62, 0
16, 51480, Note_on_c, 14, 66, 0
16, 51480, Note_on_c, 14, 61, 100
16, 51480, Note_on_c, 14, 64, 100
16, 51480, Note_on_c, 14, 69, 100
16, 51720, Note_on_c, 14, 69, 0
16, 51720, Note_on_c, 14, 64, 0
16, 51720, Note_on_c, 14, 61, 0
16, 51720, Note_on_c, 14, 78, 100
16, 51720, Note_on_c, 14, 69, 100
16, 51720, Note_on_c, 14, 74, 100
16, 51840, Note_on_c, 14, 74, 0
16, 51840, Note_on_c, 14, 69, 0
16, 51840, Note_on_c, 14, 78, 0
16, 51840, Note_on_c, 14, 76, 100
16, 51840, Note_on_c, 14, 73, 100
16, 51840, Note_on_c, 14, 69, 100
16, 51960, Note_on_c, 14, 76, 0
16, 51960, Note_on_c, 14, 64, 100
16, 52080, Note_on_c, 14, 64, 0
16, 52080, Note_on_c, 14, 69, 0
16, 52080, Note_on_c, 14, 73, 0
16, 52080, Note_on_c, 14, 62, 100
16, 52080, Note_on_c, 14, 66, 100
16, 52200, Note_on_c, 14, 66, 0
16, 52200, Note_on_c, 14, 62, 0
16, 52200, Note_on_c, 14, 61, 100
16, 52200, Note_on_c, 14, 64, 100
16, 52200, Note_on_c, 14, 69, 100
16, 52440, Note_on_c, 14, 69, 0
16, 52440, Note_on_c, 14, 64, 0
16, 52440, Note_on_c, 14, 61, 0
16, 52920, Note_on_c, 14, 71, 100
16, 52920, Note_on_c, 14, 68, 100
16, 53160, Note_on_c, 14, 68, 0
16, 53160, Note_on_c, 14, 71, 0
16, 53160, Note_on_c, 14, 69, 100
16, 53160, Note_on_c, 14, 73, 100
16, 53280, Note_on_c, 14, 73, 0
16, 53280, Note_on_c, 14, 69, 0
16, 53280, Note_on_c, 14, 68, 100
16, 53280, Note_on_c, 14, 71, 100
16, 53520, Note_on_c, 14, 71, 0
16, 53520, Note_on_c, 14, 68, 0
16, 53520, Note_on_c, 14, 64, 100
16, 53520, Note_on_c, 14, 69, 100
16, 53640, Note_on_c, 14, 69, 0
16, 53640, Note_on_c, 14, 64, 0
16, 53640, Note_on_c, 14, 64, 100
16, 53640, Note_on_c, 14, 68, 100
16, 53880, Note_on_c, 14, 68, 0
16, 53880, Note_on_c, 14, 64, 0
16, 54720, Note_on_c, 14, 66, 100
16, 54720, Note_on_c, 14, 61, 100
16, 54960, Note_on_c, 14, 61, 0
16, 54960, Note_on_c, 14, 66, 0
16, 54960, Note_on_c, 14, 59, 100
16, 54960, Note_on_c, 14, 62, 100
16, 55080, Note_on_c, 14, 62, 0
16, 55080, Note_on_c, 14, 59, 0
16, 55080, Note_on_c, 14, 61, 100
16, 55080, Note_on_c, 14, 64, 100
16, 55200, Note_on_c, 14, 64, 0
16, 55200, Note_on_c, 14, 61, 0
16, 55200, Note_on_c, 14, 69, 100
16, 55200, Note_on_c, 14, 64, 100
16, 55200, Note_on_c, 14, 62, 100
16, 55320, Note_on_c, 14, 62, 0
16, 55320, Note_on_c, 14, 64, 0
16, 55320, Note_on_c, 14, 69, 0
16, 55320, Note_on_c, 14, 62, 100
16, 55320, Note_on_c, 14, 66, 100
16, 55440, Note_on_c, 14, 66, 0
16, 55440, Note_on_c, 14, 62, 0
16, 55440, Note_on_c, 14, 68, 100
16, 55440, Note_on_c, 14, 64, 100
16, 55560, Note_on_c, 14, 64, 0
16, 55560, Note_on_c, 14, 68, 0
16, 56280, Note_on_c, 14, 69, 100
16, 56280, Note_on_c, 14, 64, 100
16, 56520, Note_on_c, 14, 64, 0
16, 56520, Note_on_c, 14, 69, 0
16, 56520, Note_on_c, 14, 62, 100
16, 56520, Note_on_c, 14, 66, 100
16, 56760, Note_on_c, 14, 66, 0
16, 56760, Note_on_c, 14, 62, 0
16, 56760, Note_on_c, 14, 62, 100
16, 56760, Note_on_c, 14, 64, 100
16, 56880, Note_on_c, 14, 64, 0
16, 56880, Note_on_c, 14, 62, 0
16, 56880, Note_on_c, 14, 64, 100
16, 56880, Note_on_c, 14, 68, 100
16, 57240, Note_on_c, 14, 68, 0
16, 57240, Note_on_c, 14, 64, 0
16, 57240, Note_on_c, 14, 62, 100
16, 57240, Note_on_c, 14, 69, 100
16, 57480, Note_on_c, 14, 69, 0
16, 57480, Note_on_c, 14, 62, 0
16, 57480, Note_on_c, 14, 59, 100
16, 57480, Note_on_c, 14, 69, 100
16, 57600, Note_on_c, 14, 69, 0
16, 57600, Note_on_c, 14, 59, 0
16, 57600, Note_on_c, 14, 66, 100
16, 57600, Note_on_c, 14, 63, 100
16, 57720, Note_on_c, 14, 63, 0
16, 57720, Note_on_c, 14, 66, 0
16, 57720, Note_on_c, 14, 69, 100
16, 57720, Note_on_c, 14, 71, 100
16, 57960, Note_on_c, 14, 71, 0
16, 57960, Note_on_c, 14, 69, 0
16, 57960, Note_on_c, 14, 68, 100
16, 57960, Note_on_c, 14, 71, 100
16, 58200, Note_on_c, 14, 71, 0
16, 58200, Note_on_c, 14, 68, 0
16, 58200, Note_on_c, 14, 64, 100
16, 58200, Note_on_c, 14, 74, 100
16, 58320, Note_on_c, 14, 74, 0
16, 58320, Note_on_c, 14, 64, 0
16, 58320, Note_on_c, 14, 69, 100
16, 58320, Note_on_c, 14, 71, 100
16, 58440, Note_on_c, 14, 71, 0
16, 58440, Note_on_c, 14, 69, 0
16, 58440, Note_on_c, 14, 73, 100
16, 58440, Note_on_c, 14, 69, 100
16, 58680, Note_on_c, 14, 69, 0
16, 58680, Note_on_c, 14, 73, 0
16, 58680, Note_on_c, 14, 73, 90
16, 58740, Note_on_c, 14, 73, 0
16, 58740, Note_on_c, 14, 71, 90
16, 58770, Note_on_c, 14, 71, 0
16, 58770, Note_on_c, 14, 69, 90
16, 58800, Note_on_c, 14, 69, 0
16, 58800, Note_on_c, 14, 68, 90
16, 58860, Note_on_c, 14, 68, 0
16, 58860, Note_on_c, 14, 66, 90
16, 58920, Note_on_c, 14, 66, 0
16, 58920, Note_on_c, 14, 64, 90
16, 58980, Note_on_c, 14, 64, 0
16, 59040, Note_on_c, 14, 64, 90
16, 59040, Note_on_c, 14, 68, 90
16, 59400, Note_on_c, 14, 68, 0
16, 59400, Note_on_c, 14, 64, 0
16, 59400, Note_on_c, 14, 64, 90
16, 59400, Note_on_c, 14, 69, 90
16, 59640, Note_on_c, 14, 69, 0
16, 59640, Note_on_c, 14, 64, 0
16, 59640, Note_on_c, 14, 69, 90
16, 59640, Note_on_c, 14, 71, 90
16, 59760, Note_on_c, 14, 71, 0
16, 59760, Note_on_c, 14, 69, 0
16, 59760, Note_on_c, 14, 63, 90
16, 59760, Note_on_c, 14, 71, 90
16, 60000, Note_on_c, 14, 71, 0
16, 60000, Note_on_c, 14, 63, 0
16, 60000, Note_on_c, 14, 71, 90
16, 60000, Note_on_c, 14, 69, 90
16, 60120, Note_on_c, 14, 69, 0
16, 60120, Note_on_c, 14, 71, 0
16, 60120, Note_on_c, 14, 64, 90
16, 60120, Note_on_c, 14, 68, 90
16, 60120, Note_on_c, 14, 71, 90
16, 60360, Note_on_c, 14, 71, 0
16, 60360, Note_on_c, 14, 68, 0
16, 60360, Note_on_c, 14, 64, 0
16, 69960, Note_on_c, 14, 68, 90
16, 69960, Note_on_c, 14, 76, 90
16, 70007, Note_on_c, 14, 76, 0
16, 70007, Note_on_c, 14, 68, 0
16, 70020, Note_on_c, 14, 59, 90
16, 70020, Note_on_c, 14, 71, 90
16, 70067, Note_on_c, 14, 71, 0
16, 70067, Note_on_c, 14, 59, 0
16, 70320, Note_on_c, 14, 69, 90
16, 70320, Note_on_c, 14, 76, 90
16, 70367, Note_on_c, 14, 76, 0
16, 70367, Note_on_c, 14, 69, 0
16, 70380, Note_on_c, 14, 64, 90
16, 70380, Note_on_c, 14, 73, 90
16, 70427, Note_on_c, 14, 73, 0
16, 70427, Note_on_c, 14, 64, 0
16, 70680, Note_on_c, 14, 69, 90
16, 70680, Note_on_c, 14, 74, 90
16, 70727, Note_on_c, 14, 74, 0
16, 70727, Note_on_c, 14, 69, 0
16, 70740, Note_on_c, 14, 66, 90
16, 70740, Note_on_c, 14, 69, 90
16, 70787, Note_on_c, 14, 69, 0
16, 70787, Note_on_c, 14, 66, 0
16, 80640, Note_on_c, 14, 57, 100
16, 80640, Note_on_c, 14, 66, 100
16, 80640, Note_on_c, 14, 61, 100
16, 81360, Note_on_c, 14, 61, 0
16, 81360, Note_on_c, 14, 63, 100
16, 81600, Note_on_c, 14, 63, 0
16, 81600, Note_on_c, 14, 66, 0
16, 81600, Note_on_c, 14, 57, 0
16, 81600, Note_on_c, 14, 59, 100
16, 81600, Note_on_c, 14, 64, 100
16, 81960, Note_on_c, 14, 64, 0
16, 81960, Note_on_c, 14, 62, 100
16, 82080, Note_on_c, 14, 62, 0
16, 82080, Note_on_c, 14, 59, 0
16, 82080, Note_on_c, 14, 61, 100
16, 82080, Note_on_c, 14, 64, 100
16, 82080, Note_on_c, 14, 66, 100
16, 82320, Note_on_c, 14, 66, 0
16, 82320, Note_on_c, 14, 67, 100
16, 82560, Note_on_c, 14, 67, 0
16, 82560, Note_on_c, 14, 64, 0
16, 82560, Note_on_c, 14, 66, 100
16, 83040, Note_on_c, 14, 66, 0
16, 83040, Note_on_c, 14, 64, 100
16, 83280, Note_on_c, 14, 64, 0
16, 83280, Note_on_c, 14, 61, 0
16, 83280, Note_on_c, 14, 62, 100
16, 83280, Note_on_c, 14, 66, 100
16, 83400, Note_on_c, 14, 66, 0
16, 83400, Note_on_c, 14, 62, 0
16, 83400, Note_on_c, 14, 66, 100
16, 83400, Note_on_c, 14, 71, 100
16, 83520, Note_on_c, 14, 71, 0
16, 83520, Note_on_c, 14, 66, 0
16, 83880, Note_on_c, 14, 74, 90
16, 83880, Note_on_c, 14, 71, 90
16, 83975, Note_on_c, 14, 71, 0
16, 83975, Note_on_c, 14, 74, 0
16, 84120, Note_on_c, 14, 78, 90
16, 84120, Note_on_c, 14, 73, 90
16, 84215, Note_on_c, 14, 73, 0
16, 84215, Note_on_c, 14, 78, 0
16, 84300, Note_on_c, 14, 74, 90
16, 84300, Note_on_c, 14, 71, 90
16, 84347, Note_on_c, 14, 71, 0
16, 84347, Note_on_c, 14, 74, 0
16, 84360, Note_on_c, 14, 78, 90
16, 84360, Note_on_c, 14, 74, 90
16, 84407, Note_on_c, 14, 74, 0
16, 84407, Note_on_c, 14, 78, 0
16, 84420, Note_on_c, 14, 74, 90
16, 84420, Note_on_c, 14, 71, 90
16, 84467, Note_on_c, 14, 71, 0
16, 84467, Note_on_c, 14, 74, 0
16, 84480, Note_on_c, 14, 71, 90
16, 84527, Note_on_c, 14, 71, 0
16, 84540, Note_on_c, 14, 71, 90
16, 84540, Note_on_c, 14, 67, 90
16, 84587, Note_on_c, 14, 67, 0
16, 84587, Note_on_c, 14, 71, 0
16, 84600, Note_on_c, 14, 71, 90
16, 84600, Note_on_c, 14, 66, 90
16, 84647, Note_on_c, 14, 66, 0
16, 84647, Note_on_c, 14, 71, 0
16, 84660, Note_on_c, 14, 73, 90
16, 84660, Note_on_c, 14, 67, 90
16, 84683, Note_on_c, 14, 67, 0
16, 84683, Note_on_c, 14, 73, 0
16, 84690, Note_on_c, 14, 75, 90
16, 84690, Note_on_c, 14, 69, 90
16, 84713, Note_on_c, 14, 69, 0
16, 84713, Note_on_c, 14, 75, 0
16, 84720, Note_on_c, 14, 76, 90
16, 84720, Note_on_c, 14, 71, 90
16, 84767, Note_on_c, 14, 71, 0
16, 84767, Note_on_c, 14, 76, 0
16, 84780, Note_on_c, 14, 71, 90
16, 84780, Note_on_c, 14, 67, 90
16, 84827, Note_on_c, 14, 67, 0
16, 84827, Note_on_c, 14, 71, 0
16, 84840, Note_on_c, 14, 71, 90
16, 84840, Note_on_c, 14, 76, 90
16, 84935, Note_on_c, 14, 76, 0
16, 84935, Note_on_c, 14, 71, 0
16, 85020, Note_on_c, 14, 73, 90
16, 85020, Note_on_c, 14, 69, 90
16, 85067, Note_on_c, 14, 69, 0
16, 85067, Note_on_c, 14, 73, 0
16, 85080, Note_on_c, 14, 76, 90
16, 85080, Note_on_c, 14, 73, 90
16, 85127, Note_on_c, 14, 73, 0
16, 85127, Note_on_c, 14, 76, 0
16, 85140, Note_on_c, 14, 73, 90
16, 85140, Note_on_c, 14, 69, 90
16, 85187, Note_on_c, 14, 69, 0
16, 85187, Note_on_c, 14, 73, 0
16, 85200, Note_on_c, 14, 69, 90
16, 85247, Note_on_c, 14, 69, 0
16, 85260, Note_on_c, 14, 69, 90
16, 85260, Note_on_c, 14, 66, 90
16, 85307, Note_on_c, 14, 66, 0
16, 85307, Note_on_c, 14, 69, 0
16, 85320, Note_on_c, 14, 69, 90
16, 85320, Note_on_c, 14, 64, 90
16, 85367, Note_on_c, 14, 64, 0
16, 85367, Note_on_c, 14, 69, 0
16, 85380, Note_on_c, 14, 71, 90
16, 85380, Note_on_c, 14, 66, 90
16, 85403, Note_on_c, 14, 66, 0
16, 85403, Note_on_c, 14, 71, 0
16, 85410, Note_on_c, 14, 73, 90
16, 85410, Note_on_c, 14, 67, 90
16, 85433, Note_on_c, 14, 67, 0
16, 85433, Note_on_c, 14, 73, 0
16, 85440, Note_on_c, 14, 74, 90
16, 85440, Note_on_c, 14, 69, 90
16, 85487, Note_on_c, 14, 69, 0
16, 85487, Note_on_c, 14, 74, 0
16, 85500, Note_on_c, 14, 69, 90
16, 85500, Note_on_c, 14, 66, 90
16, 85547, Note_on_c, 14, 66, 0
16, 85547, Note_on_c, 14, 69, 0
16, 85560, Note_on_c, 14, 69, 90
16, 85560, Note_on_c, 14, 74, 90
16, 85655, Note_on_c, 14, 74, 0
16, 85655, Note_on_c, 14, 69, 0
16, 85740, Note_on_c, 14, 67, 90
16, 85740, Note_on_c, 14, 71, 90
16, 85787, Note_on_c, 14, 71, 0
16, 85787, Note_on_c, 14, 67, 0
16, 85800, Note_on_c, 14, 64, 90
16, 85800, Note_on_c, 14, 69, 90
16, 85847, Note_on_c, 14, 69, 0
16, 85847, Note_on_c, 14, 64, 0
16, 85860, Note_on_c, 14, 69, 90
16, 85860, Note_on_c, 14, 72, 90
16, 85907, Note_on_c, 14, 72, 0
16, 85907, Note_on_c, 14, 69, 0
16, 85920, Note_on_c, 14, 71, 90
16, 85920, Note_on_c, 14, 69, 90
16, 86279, Note_on_c, 14, 69, 0
16, 86279, Note_on_c, 14, 71, 0
16, 86280, Note_on_c, 14, 69, 90
16, 86280, Note_on_c, 14, 63, 90
16, 86399, Note_on_c, 14, 63, 0
16, 86399, Note_on_c, 14, 69, 0
16, 86400, Note_on_c, 14, 64, 90
16, 86400, Note_on_c, 14, 71, 90
16, 86400, Note_on_c, 14, 67, 90
16, 86639, Note_on_c, 14, 67, 0
16, 86639, Note_on_c, 14, 71, 0
16, 86639, Note_on_c, 14, 64, 0
16, 86640, Note_on_c, 14, 64, 90
16, 86640, Note_on_c, 14, 69, 90
16, 86640, Note_on_c, 14, 60, 90
16, 86879, Note_on_c, 14, 60, 0
16, 86879, Note_on_c, 14, 69, 0
16, 86879, Note_on_c, 14, 64, 0
16, 86880, Note_on_c, 14, 63, 90
16, 86880, Note_on_c, 14, 69, 90
16, 86880, Note_on_c, 14, 66, 90
16, 87119, Note_on_c, 14, 66, 0
16, 87119, Note_on_c, 14, 69, 0
16, 87119, Note_on_c, 14, 63, 0
16, 87240, Note_on_c, 14, 66, 90
16, 87240, Note_on_c, 14, 69, 90
16, 87240, Note_on_c, 14, 63, 90
16, 87359, Note_on_c, 14, 63, 0
16, 87359, Note_on_c, 14, 69, 0
16, 87359, Note_on_c, 14, 66, 0
16, 87360, Note_on_c, 14, 67, 90
16, 87360, Note_on_c, 14, 76, 90
16, 87840, Note_on_c, 14, 76, 0
16, 87840, Note_on_c, 14, 67, 0
16, 87840, Note_on_c, 14, 74, 90
16, 87840, Note_on_c, 14, 78, 90
16, 88080, Note_on_c, 14, 74, 0
16, 88080, Note_on_c, 14, 73, 90
16, 88320, Note_on_c, 14, 78, 0
16, 88320, Note_on_c, 14, 76, 90
16, 88560, Note_on_c, 14, 73, 0
16, 88560, Note_on_c, 14, 71, 90
16, 88800, Note_on_c, 14, 76, 0
16, 88800, Note_on_c, 14, 74, 90
16, 89040, Note_on_c, 14, 74, 0
16, 89040, Note_on_c, 14, 71, 0
16, 89100, Note_on_c, 14, 76, 90
16, 89100, Note_on_c, 14, 69, 90
16, 89147, Note_on_c, 14, 69, 0
16, 89147, Note_on_c, 14, 76, 0
16, 89160, Note_on_c, 14, 76, 90
16, 89160, Note_on_c, 14, 69, 90
16, 89207, Note_on_c, 14, 69, 0
16, 89207, Note_on_c, 14, 76, 0
16, 89220, Note_on_c, 14, 78, 90
16, 89220, Note_on_c, 14, 69, 90
16, 89267, Note_on_c, 14, 69, 0
16, 89267, Note_on_c, 14, 78, 0
16, 89280, Note_on_c, 14, 71, 90
16, 89280, Note_on_c, 14, 67, 90
16, 89327, Note_on_c, 14, 67, 0
16, 89327, Note_on_c, 14, 71, 0
16, 89340, Note_on_c, 14, 71, 90
16, 89340, Note_on_c, 14, 67, 90
16, 89387, Note_on_c, 14, 67, 0
16, 89387, Note_on_c, 14, 71, 0
16, 89400, Note_on_c, 14, 71, 90
16, 89400, Note_on_c, 14, 68, 90
16, 89447, Note_on_c, 14, 68, 0
16, 89447, Note_on_c, 14, 71, 0
16, 89460, Note_on_c, 14, 73, 90
16, 89460, Note_on_c, 14, 70, 90
16, 89507, Note_on_c, 14, 70, 0
16, 89507, Note_on_c, 14, 73, 0
16, 89520, Note_on_c, 14, 74, 90
16, 89520, Note_on_c, 14, 71, 90
16, 89567, Note_on_c, 14, 71, 0
16, 89567, Note_on_c, 14, 74, 0
16, 89580, Note_on_c, 14, 74, 90
16, 89580, Note_on_c, 14, 66, 90
16, 89627, Note_on_c, 14, 66, 0
16, 89627, Note_on_c, 14, 74, 0
16, 89640, Note_on_c, 14, 73, 90
16, 89640, Note_on_c, 14, 66, 90
16, 89687, Note_on_c, 14, 66, 0
16, 89687, Note_on_c, 14, 73, 0
16, 89700, Note_on_c, 14, 71, 90
16, 89700, Note_on_c, 14, 68, 90
16, 89747, Note_on_c, 14, 68, 0
16, 89747, Note_on_c, 14, 71, 0
16, 89760, Note_on_c, 14, 73, 90
16, 89760, Note_on_c, 14, 69, 90
16, 89807, Note_on_c, 14, 69, 0
16, 89807, Note_on_c, 14, 73, 0
16, 89820, Note_on_c, 14, 76, 90
16, 89820, Note_on_c, 14, 69, 90
16, 89867, Note_on_c, 14, 69, 0
16, 89880, Note_on_c, 14, 67, 90
16, 89915, Note_on_c, 14, 76, 0
16, 89927, Note_on_c, 14, 67, 0
16, 89940, Note_on_c, 14, 75, 90
16, 89940, Note_on_c, 14, 66, 90
16, 89987, Note_on_c, 14, 66, 0
16, 89987, Note_on_c, 14, 75, 0
16, 90000, Note_on_c, 14, 76, 90
16, 90000, Note_on_c, 14, 67, 90
16, 90047, Note_on_c, 14, 67, 0
16, 90047, Note_on_c, 14, 76, 0
16, 90060, Note_on_c, 14, 74, 90
16, 90060, Note_on_c, 14, 71, 90
16, 90107, Note_on_c, 14, 74, 0
16, 90120, Note_on_c, 14, 73, 90
16, 90155, Note_on_c, 14, 71, 0
16, 90167, Note_on_c, 14, 73, 0
16, 90180, Note_on_c, 14, 78, 90
16, 90180, Note_on_c, 14, 70, 90
16, 90227, Note_on_c, 14, 70, 0
16, 90227, Note_on_c, 14, 78, 0
16, 90240, Note_on_c, 14, 71, 90
16, 90287, Note_on_c, 14, 71, 0
16, 90300, Note_on_c, 14, 78, 90
16, 90300, Note_on_c, 14, 69, 90
16, 90347, Note_on_c, 14, 69, 0
16, 90360, Note_on_c, 14, 68, 90
16, 90395, Note_on_c, 14, 78, 0
16, 90420, Note_on_c, 14, 77, 90
16, 90455, Note_on_c, 14, 68, 0
16, 90467, Note_on_c, 14, 77, 0
16, 90480, Note_on_c, 14, 78, 90
16, 90480, Note_on_c, 14, 69, 90
16, 90527, Note_on_c, 14, 69, 0
16, 90527, Note_on_c, 14, 78, 0
16, 90540, Note_on_c, 14, 73, 90
16, 90540, Note_on_c, 14, 66, 90
16, 90587, Note_on_c, 14, 66, 0
16, 90587, Note_on_c, 14, 73, 0
16, 90600, Note_on_c, 14, 73, 90
16, 90600, Note_on_c, 14, 69, 90
16, 90647, Note_on_c, 14, 69, 0
16, 90647, Note_on_c, 14, 73, 0
16, 90660, Note_on_c, 14, 71, 90
16, 90660, Note_on_c, 14, 68, 90
16, 90707, Note_on_c, 14, 68, 0
16, 90707, Note_on_c, 14, 71, 0
16, 90720, Note_on_c, 14, 69, 90
16, 90720, Note_on_c, 14, 66, 90
16, 90863, Note_on_c, 14, 66, 0
16, 90863, Note_on_c, 14, 69, 0
16, 90900, Note_on_c, 14, 67, 90
16, 90900, Note_on_c, 14, 64, 90
16, 90947, Note_on_c, 14, 64, 0
16, 90947, Note_on_c, 14, 67, 0
16, 90960, Note_on_c, 14, 66, 90
16, 90960, Note_on_c, 14, 62, 90
16, 91007, Note_on_c, 14, 62, 0
16, 91007, Note_on_c, 14, 66, 0
16, 91020, Note_on_c, 14, 69, 90
16, 91020, Note_on_c, 14, 64, 90
16, 91067, Note_on_c, 14, 64, 0
16, 91067, Note_on_c, 14, 69, 0
16, 91080, Note_on_c, 14, 74, 90
16, 91080, Note_on_c, 14, 66, 90
16, 91127, Note_on_c, 14, 66, 0
16, 91140, Note_on_c, 14, 64, 90
16, 91187, Note_on_c, 14, 64, 0
16, 91200, Note_on_c, 14, 64, 90
16, 91223, Note_on_c, 14, 74, 0
16, 91260, Note_on_c, 14, 73, 90
16, 91295, Note_on_c, 14, 64, 0
16, 91307, Note_on_c, 14, 73, 0
16, 91320, Note_on_c, 14, 73, 90
16, 91320, Note_on_c, 14, 64, 90
16, 91367, Note_on_c, 14, 64, 0
16, 91367, Note_on_c, 14, 73, 0
16, 91380, Note_on_c, 14, 69, 90
16, 91380, Note_on_c, 14, 64, 90
16, 91427, Note_on_c, 14, 64, 0
16, 91427, Note_on_c, 14, 69, 0
16, 91440, Note_on_c, 14, 74, 90
16, 91440, Note_on_c, 14, 66, 90
16, 91487, Note_on_c, 14, 66, 0
16, 91487, Note_on_c, 14, 74, 0
16, 91500, Note_on_c, 14, 76, 90
16, 91500, Note_on_c, 14, 67, 90
16, 91547, Note_on_c, 14, 67, 0
16, 91547, Note_on_c, 14, 76, 0
16, 91560, Note_on_c, 14, 78, 90
16, 91560, Note_on_c, 14, 69, 90
16, 91607, Note_on_c, 14, 69, 0
16, 91620, Note_on_c, 14, 67, 90
16, 91643, Note_on_c, 14, 67, 0
16, 91650, Note_on_c, 14, 66, 90
16, 91673, Note_on_c, 14, 66, 0
16, 91680, Note_on_c, 14, 71, 90
16, 91703, Note_on_c, 14, 78, 0
16, 91740, Note_on_c, 14, 76, 90
16, 91763, Note_on_c, 14, 76, 0
16, 91770, Note_on_c, 14, 75, 90
16, 91793, Note_on_c, 14, 75, 0
16, 91800, Note_on_c, 14, 76, 90
16, 91847, Note_on_c, 14, 76, 0
16, 91860, Note_on_c, 14, 78, 90
16, 91907, Note_on_c, 14, 78, 0
16, 91919, Note_on_c, 14, 71, 0
16, 91920, Note_on_c, 14, 79, 90
16, 91967, Note_on_c, 14, 79, 0
16, 91980, Note_on_c, 14, 78, 90
16, 91980, Note_on_c, 14, 70, 90
16, 92027, Note_on_c, 14, 70, 0
16, 92027, Note_on_c, 14, 78, 0
16, 92040, Note_on_c, 14, 78, 90
16, 92040, Note_on_c, 14, 71, 90
16, 92087, Note_on_c, 14, 71, 0
16, 92100, Note_on_c, 14, 74, 90
16, 92183, Note_on_c, 14, 78, 0
16, 92195, Note_on_c, 14, 74, 0
16, 92220, Note_on_c, 14, 76, 90
16, 92220, Note_on_c, 14, 73, 90
16, 92243, Note_on_c, 14, 73, 0
16, 92243, Note_on_c, 14, 76, 0
16, 92250, Note_on_c, 14, 74, 90
16, 92250, Note_on_c, 14, 71, 90
16, 92273, Note_on_c, 14, 71, 0
16, 92273, Note_on_c, 14, 74, 0
16, 92280, Note_on_c, 14, 76, 90
16, 92280, Note_on_c, 14, 73, 90
16, 92303, Note_on_c, 14, 73, 0
16, 92310, Note_on_c, 14, 70, 90
16, 92327, Note_on_c, 14, 76, 0
16, 92333, Note_on_c, 14, 70, 0
16, 92340, Note_on_c, 14, 77, 90
16, 92340, Note_on_c, 14, 71, 90
16, 92387, Note_on_c, 14, 71, 0
16, 92387, Note_on_c, 14, 77, 0
16, 92400, Note_on_c, 14, 66, 90
16, 92400, Note_on_c, 14, 70, 100
16, 92520, Note_on_c, 14, 70, 0
16, 92520, Note_on_c, 14, 66, 0
16, 92520, Note_on_c, 14, 66, 90
16, 92520, Note_on_c, 14, 61, 90
16, 93000, Note_on_c, 14, 66, 0
16, 93000, Note_on_c, 14, 64, 90
16, 93120, Note_on_c, 14, 64, 0
16, 93120, Note_on_c, 14, 61, 0
16, 93120, Note_on_c, 14, 62, 90
16, 93120, Note_on_c, 14, 66, 90
16, 93359, Note_on_c, 14, 66, 0
16, 93359, Note_on_c, 14, 62, 0
16, 93360, Note_on_c, 14, 67, 90
16, 93360, Note_on_c, 14, 62, 90
16, 93479, Note_on_c, 14, 62, 0
16, 93479, Note_on_c, 14, 67, 0
16, 93480, Note_on_c, 14, 64, 90
16, 93480, Note_on_c, 14, 67, 90
16, 93599, Note_on_c, 14, 67, 0
16, 93599, Note_on_c, 14, 64, 0
16, 93600, Note_on_c, 14, 66, 90
16, 93600, Note_on_c, 14, 69, 90
16, 94200, Note_on_c, 14, 60, 90
16, 94320, Note_on_c, 14, 60, 0
16, 94320, Note_on_c, 14, 69, 0
16, 94320, Note_on_c, 14, 66, 0
16, 94320, Note_on_c, 14, 66, 90
16, 94320, Note_on_c, 14, 59, 90
16, 94679, Note_on_c, 14, 59, 0
16, 94679, Note_on_c, 14, 66, 0
16, 94680, Note_on_c, 14, 69, 90
16, 94680, Note_on_c, 14, 63, 90
16, 94799, Note_on_c, 14, 63, 0
16, 94799, Note_on_c, 14, 69, 0
16, 94800, Note_on_c, 14, 64, 90
16, 94800, Note_on_c, 14, 67, 90
16, 95039, Note_on_c, 14, 67, 0
16, 95039, Note_on_c, 14, 64, 0
16, 95040, Note_on_c, 14, 71, 90
16, 95040, Note_on_c, 14, 67, 90
16, 95040, Note_on_c, 14, 64, 90
16, 95279, Note_on_c, 14, 64, 0
16, 95279, Note_on_c, 14, 67, 0
16, 95279, Note_on_c, 14, 71, 0
16, 95280, Note_on_c, 14, 68, 90
16, 95280, Note_on_c, 14, 70, 90
16, 95519, Note_on_c, 14, 70, 0
16, 95519, Note_on_c, 14, 68, 0
16, 95520, Note_on_c, 14, 62, 90
16, 95520, Note_on_c, 14, 71, 90
16, 95520, Note_on_c, 14, 66, 90
16, 95759, Note_on_c, 14, 66, 0
16, 95760, Note_on_c, 14, 68, 90
16, 95999, Note_on_c, 14, 68, 0
16, 96000, Note_on_c, 14, 71, 0
16, 96000, Note_on_c, 14, 62, 0
16, 96000, Note_on_c, 14, 65, 90
16, 96000, Note_on_c, 14, 68, 90
16, 96000, Note_on_c, 14, 73, 90
16, 96240, Note_on_c, 14, 73, 0
16, 96240, Note_on_c, 14, 68, 0
16, 96240, Note_on_c, 14, 65, 0
16, 96240, Note_on_c, 14, 61, 90
16, 96240, Note_on_c, 14, 66, 90
16, 96480, Note_on_c, 14, 66, 0
16, 96480, Note_on_c, 14, 61, 0
16, 96480, Note_on_c, 14, 66, 90
16, 96480, Note_on_c, 14, 60, 90
16, 96599, Note_on_c, 14, 60, 0
16, 96599, Note_on_c, 14, 66, 0
16, 96600, Note_on_c, 14, 60, 90
16, 96600, Note_on_c, 14, 68, 90
16, 96719, Note_on_c, 14, 68, 0
16, 96719, Note_on_c, 14, 60, 0
16, 96720, Note_on_c, 14, 68, 90
16, 96720, Note_on_c, 14, 60, 90
16, 96839, Note_on_c, 14, 60, 0
16, 96839, Note_on_c, 14, 68, 0
16, 96840, Note_on_c, 14, 66, 90
16, 96840, Note_on_c, 14, 61, 90
16, 96959, Note_on_c, 14, 61, 0
16, 96959, Note_on_c, 14, 66, 0
16, 96960, Note_on_c, 14, 66, 90
16, 96960, Note_on_c, 14, 61, 90
16, 97079, Note_on_c, 14, 61, 0
16, 97079, Note_on_c, 14, 66, 0
16, 97080, Note_on_c, 14, 62, 90
16, 97080, Note_on_c, 14, 59, 90
16, 97199, Note_on_c, 14, 59, 0
16, 97199, Note_on_c, 14, 62, 0
16, 97200, Note_on_c, 14, 68, 90
16, 97200, Note_on_c, 14, 61, 90
16, 97200, Note_on_c, 14, 65, 90
16, 97439, Note_on_c, 14, 65, 0
16, 97439, Note_on_c, 14, 61, 0
16, 97439, Note_on_c, 14, 68, 0
16, 103860, Note_on_c, 14, 57, 90
16, 103860, Note_on_c, 14, 66, 90
16, 103889, Note_on_c, 14, 66, 0
16, 103889, Note_on_c, 14, 57, 0
16, 103890, Note_on_c, 14, 59, 90
16, 103890, Note_on_c, 14, 68, 90
16, 103919, Note_on_c, 14, 68, 0
16, 103919, Note_on_c, 14, 59, 0
16, 103920, Note_on_c, 14, 69, 90
16, 103920, Note_on_c, 14, 61, 90
16, 104040, Note_on_c, 14, 61, 0
16, 104040, Note_on_c, 14, 69, 0
16, 104040, Note_on_c, 14, 69, 90
16, 104040, Note_on_c, 14, 66, 90
16, 104160, Note_on_c, 14, 66, 0
16, 104160, Note_on_c, 14, 69, 0
16, 104160, Note_on_c, 14, 68, 90
16, 104160, Note_on_c, 14, 65, 90
16, 104280, Note_on_c, 14, 65, 0
16, 104280, Note_on_c, 14, 68, 0
16, 104340, Note_on_c, 14, 66, 90
16, 104399, Note_on_c, 14, 66, 0
16, 104400, Note_on_c, 14, 66, 90
16, 104400, Note_on_c, 14, 71, 90
16, 104520, Note_on_c, 14, 71, 0
16, 104520, Note_on_c, 14, 66, 0
16, 104520, Note_on_c, 14, 69, 90
16, 104520, Note_on_c, 14, 66, 90
16, 104579, Note_on_c, 14, 69, 0
16, 104580, Note_on_c, 14, 71, 90
16, 104580, Note_on_c, 14, 68, 90
16, 104639, Note_on_c, 14, 68, 0
16, 104639, Note_on_c, 14, 71, 0
16, 104640, Note_on_c, 14, 66, 0
16, 104640, Note_on_c, 14, 66, 90
16, 104640, Note_on_c, 14, 69, 90
16, 104760, Note_on_c, 14, 69, 0
16, 104760, Note_on_c, 14, 66, 0
16, 104760, Note_on_c, 14, 66, 90
16, 104760, Note_on_c, 14, 61, 90
16, 104880, Note_on_c, 14, 61, 0
16, 104880, Note_on_c, 14, 66, 0
16, 104880, Note_on_c, 14, 66, 90
16, 104880, Note_on_c, 14, 68, 90
16, 105120, Note_on_c, 14, 68, 0
16, 105120, Note_on_c, 14, 66, 0
16, 105120, Note_on_c, 14, 68, 90
16, 105120, Note_on_c, 14, 65, 90
16, 105120, Note_on_c, 14, 61, 90
16, 105240, Note_on_c, 14, 65, 0
16, 105240, Note_on_c, 14, 68, 0
16, 105240, Note_on_c, 14, 69, 90
16, 105240, Note_on_c, 14, 66, 90
16, 105360, Note_on_c, 14, 66, 0
16, 105360, Note_on_c, 14, 69, 0
16, 105360, Note_on_c, 14, 61, 0
16, 105360, Note_on_c, 14, 71, 90
16, 105360, Note_on_c, 14, 68, 90
16, 105480, Note_on_c, 14, 68, 0
16, 105480, Note_on_c, 14, 71, 0
16, 105480, Note_on_c, 14, 59, 90
16, 105480, Note_on_c, 14, 73, 90
16, 105600, Note_on_c, 14, 73, 0
16, 105600, Note_on_c, 14, 59, 0
16, 105600, Note_on_c, 14, 68, 90
16, 105600, Note_on_c, 14, 65, 90
16, 105720, Note_on_c, 14, 65, 0
16, 105720, Note_on_c, 14, 68, 0
16, 105720, Note_on_c, 14, 61, 90
16, 105720, Note_on_c, 14, 71, 90
16, 105840, Note_on_c, 14, 71, 0
16, 105840, Note_on_c, 14, 61, 0
16, 105840, Note_on_c, 14, 66, 90
16, 105840, Note_on_c, 14, 61, 90
16, 105840, Note_on_c, 14, 69, 90
16, 105960, Note_on_c, 14, 69, 0
16, 105960, Note_on_c, 14, 61, 0
16, 105960, Note_on_c, 14, 66, 0
16, 106020, Note_on_c, 14, 69, 90
16, 106020, Note_on_c, 14, 66, 90
16, 106079, Note_on_c, 14, 66, 0
16, 106079, Note_on_c, 14, 69, 0
16, 106080, Note_on_c, 14, 64, 90
16, 106080, Note_on_c, 14, 68, 90
16, 106260, Note_on_c, 14, 64, 0
16, 106260, Note_on_c, 14, 62, 90
16, 106319, Note_on_c, 14, 62, 0
16, 106320, Note_on_c, 14, 68, 0
16, 106320, Note_on_c, 14, 64, 90
16, 106320, Note_on_c, 14, 61, 90
16, 106440, Note_on_c, 14, 61, 0
16, 106440, Note_on_c, 14, 64, 0
16, 106440, Note_on_c, 14, 69, 90
16, 106440, Note_on_c, 14, 59, 90
16, 106560, Note_on_c, 14, 59, 0
16, 106560, Note_on_c, 14, 69, 0
16, 106560, Note_on_c, 14, 61, 90
16, 106560, Note_on_c, 14, 69, 90
16, 106680, Note_on_c, 14, 69, 0
16, 106680, Note_on_c, 14, 61, 0
16, 106740, Note_on_c, 14, 61, 90
16, 106740, Note_on_c, 14, 64, 90
16, 106799, Note_on_c, 14, 64, 0
16, 106799, Note_on_c, 14, 61, 0
16, 106800, Note_on_c, 14, 68, 90
16, 106800, Note_on_c, 14, 71, 90
16, 106920, Note_on_c, 14, 71, 0
16, 106920, Note_on_c, 14, 68, 0
16, 106920, Note_on_c, 14, 69, 90
16, 106920, Note_on_c, 14, 73, 90
16, 107040, Note_on_c, 14, 73, 0
16, 107040, Note_on_c, 14, 69, 0
16, 107040, Note_on_c, 14, 68, 90
16, 107040, Note_on_c, 14, 71, 90
16, 107160, Note_on_c, 14, 71, 0
16, 107160, Note_on_c, 14, 68, 0
16, 107160, Note_on_c, 14, 71, 90
16, 107220, Note_on_c, 14, 71, 0
16, 107220, Note_on_c, 14, 73, 90
16, 107280, Note_on_c, 14, 73, 0
16, 107280, Note_on_c, 14, 70, 90
16, 107280, Note_on_c, 14, 66, 90
16, 107400, Note_on_c, 14, 66, 0
16, 107400, Note_on_c, 14, 70, 0
16, 107400, Note_on_c, 14, 70, 90
16, 107400, Note_on_c, 14, 76, 90
16, 107400, Note_on_c, 14, 66, 90
16, 107520, Note_on_c, 14, 66, 0
16, 107520, Note_on_c, 14, 76, 0
16, 107520, Note_on_c, 14, 70, 0
16, 107520, Note_on_c, 14, 66, 90
16, 107520, Note_on_c, 14, 73, 90
16, 107520, Note_on_c, 14, 70, 90
16, 107640, Note_on_c, 14, 70, 0
16, 107640, Note_on_c, 14, 73, 0
16, 107640, Note_on_c, 14, 66, 0
16, 107640, Note_on_c, 14, 61, 90
16, 107640, Note_on_c, 14, 66, 90
16, 107640, Note_on_c, 14, 70, 90
16, 107760, Note_on_c, 14, 70, 0
16, 107760, Note_on_c, 14, 66, 0
16, 107760, Note_on_c, 14, 61, 0
16, 107760, Note_on_c, 14, 66, 90
16, 107760, Note_on_c, 14, 59, 90
16, 107819, Note_on_c, 14, 59, 0
16, 107819, Note_on_c, 14, 66, 0
16, 107820, Note_on_c, 14, 62, 90
16, 107820, Note_on_c, 14, 67, 90
16, 107879, Note_on_c, 14, 67, 0
16, 107879, Note_on_c, 14, 62, 0
16, 107880, Note_on_c, 14, 61, 90
16, 107880, Note_on_c, 14, 71, 90
16, 107939, Note_on_c, 14, 71, 0
16, 107939, Note_on_c, 14, 61, 0
16, 107940, Note_on_c, 14, 61, 90
16, 107940, Note_on_c, 14, 70, 90
16, 107999, Note_on_c, 14, 70, 0
16, 107999, Note_on_c, 14, 61, 0
16, 108000, Note_on_c, 14, 62, 90
16, 108000, Note_on_c, 14, 66, 90
16, 108000, Note_on_c, 14, 71, 90
16, 108120, Note_on_c, 14, 71, 0
16, 108120, Note_on_c, 14, 66, 0
16, 108120, Note_on_c, 14, 62, 0
16, 108240, Note_on_c, 14, 62, 90
16, 108240, Note_on_c, 14, 66, 90
16, 108360, Note_on_c, 14, 66, 0
16, 108360, Note_on_c, 14, 62, 0
16, 108360, Note_on_c, 14, 70, 90
16, 108360, Note_on_c, 14, 66, 90
16, 108480, Note_on_c, 14, 66, 0
16, 108480, Note_on_c, 14, 70, 0
16, 108480, Note_on_c, 14, 62, 90
16, 108480, Note_on_c, 14, 71, 90
16, 108600, Note_on_c, 14, 71, 0
16, 108600, Note_on_c, 14, 62, 0
16, 108720, Note_on_c, 14, 66, 90
16, 108840, Note_on_c, 14, 66, 0
16, 108840, Note_on_c, 14, 66, 90
16, 108840, Note_on_c, 14, 68, 90
16, 108960, Note_on_c, 14, 68, 0
16, 108960, Note_on_c, 14, 66, 0
16, 108960, Note_on_c, 14, 65, 90
16, 108960, Note_on_c, 14, 71, 90
16, 109080, Note_on_c, 14, 71, 0
16, 109080, Note_on_c, 14, 65, 0
16, 109080, Note_on_c, 14, 59, 90
16, 109080, Note_on_c, 14, 73, 90
16, 109200, Note_on_c, 14, 73, 0
16, 109200, Note_on_c, 14, 59, 0
16, 109200, Note_on_c, 14, 68, 90
16, 109260, Note_on_c, 14, 68, 0
16, 109260, Note_on_c, 14, 66, 90
16, 109320, Note_on_c, 14, 66, 0
16, 109320, Note_on_c, 14, 66, 90
16, 109320, Note_on_c, 14, 69, 90
16, 109380, Note_on_c, 14, 69, 0
16, 109380, Note_on_c, 14, 66, 0
16, 109380, Note_on_c, 14, 68, 90
16, 109380, Note_on_c, 14, 65, 90
16, 109440, Note_on_c, 14, 65, 0
16, 109440, Note_on_c, 14, 68, 0
16, 109440, Note_on_c, 14, 69, 90
16, 109500, Note_on_c, 14, 69, 0
16, 109500, Note_on_c, 14, 68, 90
16, 109560, Note_on_c, 14, 68, 0
16, 109560, Note_on_c, 14, 66, 90
16, 109620, Note_on_c, 14, 66, 0
16, 109620, Note_on_c, 14, 65, 90
16, 109680, Note_on_c, 14, 65, 0
16, 111960, Note_on_c, 14, 61, 90
16, 111960, Note_on_c, 14, 66, 90
16, 112020, Note_on_c, 14, 66, 0
16, 112020, Note_on_c, 14, 61, 0
16, 112020, Note_on_c, 14, 61, 90
16, 112020, Note_on_c, 14, 71, 90
16, 112020, Note_on_c, 14, 68, 90
16, 112080, Note_on_c, 14, 68, 0
16, 112080, Note_on_c, 14, 71, 0
16, 112080, Note_on_c, 14, 61, 0
16, 112080, Note_on_c, 14, 61, 90
16, 112080, Note_on_c, 14, 66, 90
16, 112080, Note_on_c, 14, 69, 90
16, 112200, Note_on_c, 14, 69, 0
16, 112200, Note_on_c, 14, 66, 0
16, 112200, Note_on_c, 14, 61, 0
16, 112200, Note_on_c, 14, 68, 90
16, 112260, Note_on_c, 14, 68, 0
16, 112260, Note_on_c, 14, 66, 90
16, 112320, Note_on_c, 14, 66, 0
16, 112320, Note_on_c, 14, 64, 90
16, 112380, Note_on_c, 14, 64, 0
16, 132660, Note_on_c, 14, 57, 90
16, 132660, Note_on_c, 14, 66, 90
16, 132689, Note_on_c, 14, 66, 0
16, 132689, Note_on_c, 14, 57, 0
16, 132690, Note_on_c, 14, 59, 90
16, 132690, Note_on_c, 14, 68, 90
16, 132719, Note_on_c, 14, 68, 0
16, 132719, Note_on_c, 14, 59, 0
16, 132720, Note_on_c, 14, 69, 90
16, 132720, Note_on_c, 14, 61, 90
16, 132840, Note_on_c, 14, 61, 0
16, 132840, Note_on_c, 14, 69, 0
16, 132840, Note_on_c, 14, 69, 90
16, 132840, Note_on_c, 14, 66, 90
16, 132960, Note_on_c, 14, 66, 0
16, 132960, Note_on_c, 14, 69, 0
16, 132960, Note_on_c, 14, 68, 90
16, 132960, Note_on_c, 14, 65, 90
16, 133080, Note_on_c, 14, 65, 0
16, 133080, Note_on_c, 14, 68, 0
16, 133140, Note_on_c, 14, 66, 90
16, 133199, Note_on_c, 14, 66, 0
16, 133200, Note_on_c, 14, 66, 90
16, 133200, Note_on_c, 14, 71, 90
16, 133320, Note_on_c, 14, 71, 0
16, 133320, Note_on_c, 14, 66, 0
16, 133320, Note_on_c, 14, 69, 90
16, 133320, Note_on_c, 14, 66, 90
16, 133379, Note_on_c, 14, 69, 0
16, 133380, Note_on_c, 14, 71, 90
16, 133380, Note_on_c, 14, 68, 90
16, 133439, Note_on_c, 14, 68, 0
16, 133439, Note_on_c, 14, 71, 0
16, 133440, Note_on_c, 14, 66, 0
16, 133440, Note_on_c, 14, 66, 90
16, 133440, Note_on_c, 14, 69, 90
16, 133560, Note_on_c, 14, 69, 0
16, 133560, Note_on_c, 14, 66, 0
16, 133560, Note_on_c, 14, 66, 90
16, 133560, Note_on_c, 14, 61, 90
16, 133680, Note_on_c, 14, 61, 0
16, 133680, Note_on_c, 14, 66, 0
16, 133680, Note_on_c, 14, 66, 90
16, 133680, Note_on_c, 14, 68, 90
16, 133920, Note_on_c, 14, 68, 0
16, 133920, Note_on_c, 14, 66, 0
16, 133920, Note_on_c, 14, 68, 90
16, 133920, Note_on_c, 14, 65, 90
16, 133920, Note_on_c, 14, 61, 90
16, 134040, Note_on_c, 14, 65, 0
16, 134040, Note_on_c, 14, 68, 0
16, 134040, Note_on_c, 14, 69, 90
16, 134040, Note_on_c, 14, 66, 90
16, 134160, Note_on_c, 14, 66, 0
16, 134160, Note_on_c, 14, 69, 0
16, 134160, Note_on_c, 14, 61, 0
16, 134160, Note_on_c, 14, 71, 90
16, 134160, Note_on_c, 14, 68, 90
16, 134280, Note_on_c, 14, 68, 0
16, 134280, Note_on_c, 14, 71, 0
16, 134280, Note_on_c, 14, 59, 90
16, 134280, Note_on_c, 14, 73, 90
16, 134400, Note_on_c, 14, 73, 0
16, 134400, Note_on_c, 14, 59, 0
16, 134400, Note_on_c, 14, 68, 90
16, 134400, Note_on_c, 14, 65, 90
16, 134520, Note_on_c, 14, 65, 0
16, 134520, Note_on_c, 14, 68, 0
16, 134520, Note_on_c, 14, 61, 90
16, 134520, Note_on_c, 14, 71, 90
16, 134640, Note_on_c, 14, 71, 0
16, 134640, Note_on_c, 14, 61, 0
16, 134640, Note_on_c, 14, 66, 90
16, 134640, Note_on_c, 14, 61, 90
16, 134640, Note_on_c, 14, 69, 90
16, 134760, Note_on_c, 14, 69, 0
16, 134760, Note_on_c, 14, 61, 0
16, 134760, Note_on_c, 14, 66, 0
16, 134820, Note_on_c, 14, 69, 90
16, 134820, Note_on_c, 14, 66, 90
16, 134879, Note_on_c, 14, 66, 0
16, 134879, Note_on_c, 14, 69, 0
16, 134880, Note_on_c, 14, 64, 90
16, 134880, Note_on_c, 14, 68, 90
16, 135060, Note_on_c, 14, 64, 0
16, 135060, Note_on_c, 14, 62, 90
16, 135119, Note_on_c, 14, 62, 0
16, 135120, Note_on_c, 14, 68, 0
16, 135120, Note_on_c, 14, 64, 90
16, 135120, Note_on_c, 14, 61, 90
16, 135240, Note_on_c, 14, 61, 0
16, 135240, Note_on_c, 14, 64, 0
16, 135240, Note_on_c, 14, 69, 90
16, 135240, Note_on_c, 14, 59, 90
16, 135360, Note_on_c, 14, 59, 0
16, 135360, Note_on_c, 14, 69, 0
16, 135360, Note_on_c, 14, 61, 90
16, 135360, Note_on_c, 14, 69, 90
16, 135480, Note_on_c, 14, 69, 0
16, 135480, Note_on_c, 14, 61, 0
16, 135540, Note_on_c, 14, 61, 90
16, 135540, Note_on_c, 14, 64, 90
16, 135599, Note_on_c, 14, 64, 0
16, 135599, Note_on_c, 14, 61, 0
16, 135600, Note_on_c, 14, 68, 90
16, 135600, Note_on_c, 14, 71, 90
16, 135720, Note_on_c, 14, 71, 0
16, 135720, Note_on_c, 14, 68, 0
16, 135720, Note_on_c, 14, 69, 90
16, 135720, Note_on_c, 14, 73, 90
16, 135840, Note_on_c, 14, 73, 0
16, 135840, Note_on_c, 14, 69, 0
16, 135840, Note_on_c, 14, 68, 90
16, 135840, Note_on_c, 14, 71, 90
16, 135960, Note_on_c, 14, 71, 0
16, 135960, Note_on_c, 14, 68, 0
16, 135960, Note_on_c, 14, 71, 90
16, 136020, Note_on_c, 14, 71, 0
16, 136020, Note_on_c, 14, 73, 90
16, 136080, Note_on_c, 14, 73, 0
16, 136080, Note_on_c, 14, 70, 90
16, 136080, Note_on_c, 14, 66, 90
16, 136200, Note_on_c, 14, 66, 0
16, 136200, Note_on_c, 14, 70, 0
16, 136200, Note_on_c, 14, 70, 90
16, 136200, Note_on_c, 14, 76, 90
16, 136200, Note_on_c, 14, 66, 90
16, 136320, Note_on_c, 14, 66, 0
16, 136320, Note_on_c, 14, 76, 0
16, 136320, Note_on_c, 14, 70, 0
16, 136320, Note_on_c, 14, 66, 90
16, 136320, Note_on_c, 14, 73, 90
16, 136320, Note_on_c, 14, 70, 90
16, 136440, Note_on_c, 14, 70, 0
16, 136440, Note_on_c, 14, 73, 0
16, 136440, Note_on_c, 14, 66, 0
16, 136440, Note_on_c, 14, 61, 90
16, 136440, Note_on_c, 14, 66, 90
16, 136440, Note_on_c, 14, 70, 90
16, 136560, Note_on_c, 14, 70, 0
16, 136560, Note_on_c, 14, 66, 0
16, 136560, Note_on_c, 14, 61, 0
16, 136560, Note_on_c, 14, 66, 90
16, 136560, Note_on_c, 14, 59, 90
16, 136619, Note_on_c, 14, 59, 0
16, 136619, Note_on_c, 14, 66, 0
16, 136620, Note_on_c, 14, 62, 90
16, 136620, Note_on_c, 14, 67, 90
16, 136679, Note_on_c, 14, 67, 0
16, 136679, Note_on_c, 14, 62, 0
16, 136680, Note_on_c, 14, 61, 90
16, 136680, Note_on_c, 14, 71, 90
16, 136739, Note_on_c, 14, 71, 0
16, 136739, Note_on_c, 14, 61, 0
16, 136740, Note_on_c, 14, 61, 90
16, 136740, Note_on_c, 14, 70, 90
16, 136799, Note_on_c, 14, 70, 0
16, 136799, Note_on_c, 14, 61, 0
16, 136800, Note_on_c, 14, 62, 90
16, 136800, Note_on_c, 14, 66, 90
16, 136800, Note_on_c, 14, 71, 90
16, 136920, Note_on_c, 14, 71, 0
16, 136920, Note_on_c, 14, 66, 0
16, 136920, Note_on_c, 14, 62, 0
16, 137040, Note_on_c, 14, 62, 90
16, 137040, Note_on_c, 14, 66, 90
16, 137160, Note_on_c, 14, 66, 0
16, 137160, Note_on_c, 14, 62, 0
16, 137160, Note_on_c, 14, 70, 90
16, 137160, Note_on_c, 14, 66, 90
16, 137280, Note_on_c, 14, 66, 0
16, 137280, Note_on_c, 14, 70, 0
16, 137280, Note_on_c, 14, 62, 90
16, 137280, Note_on_c, 14, 71, 90
16, 137400, Note_on_c, 14, 71, 0
16, 137400, Note_on_c, 14, 62, 0
16, 137520, Note_on_c, 14, 66, 90
16, 137640, Note_on_c, 14, 66, 0
16, 137640, Note_on_c, 14, 66, 90
16, 137640, Note_on_c, 14, 68, 90
16, 137760, Note_on_c, 14, 68, 0
16, 137760, Note_on_c, 14, 66, 0
16, 137760, Note_on_c, 14, 65, 90
16, 137760, Note_on_c, 14, 71, 90
16, 137880, Note_on_c, 14, 71, 0
16, 137880, Note_on_c, 14, 65, 0
16, 137880, Note_on_c, 14, 59, 90
16, 137880, Note_on_c, 14, 73, 90
16, 138000, Note_on_c, 14, 73, 0
16, 138000, Note_on_c, 14, 59, 0
16, 138000, Note_on_c, 14, 68, 90
16, 138060, Note_on_c, 14, 68, 0
16, 138060, Note_on_c, 14, 66, 90
16, 138120, Note_on_c, 14, 66, 0
16, 138120, Note_on_c, 14, 66, 90
16, 138120, Note_on_c, 14, 69, 90
16, 138180, Note_on_c, 14, 69, 0
16, 138180, Note_on_c, 14, 66, 0
16, 138180, Note_on_c, 14, 68, 90
16, 138180, Note_on_c, 14, 65, 90
16, 138240, Note_on_c, 14, 65, 0
16, 138240, Note_on_c, 14, 68, 0
16, 138240, Note_on_c, 14, 61, 90
16, 138240, Note_on_c, 14, 69, 90
16, 138240, Note_on_c, 14, 66, 90
16, 138479, Note_on_c, 14, 66, 0
16, 138479, Note_on_c, 14, 69, 0
16, 138479, Note_on_c, 14, 61, 0
16, 138720, Note_on_c, 14, 64, 90
16, 138720, Note_on_c, 14, 59, 90
16, 138720, Note_on_c, 14, 68, 90
16, 139199, Note_on_c, 14, 68, 0
16, 139199, Note_on_c, 14, 59, 0
16, 139200, Note_on_c, 14, 61, 90
16, 139200, Note_on_c, 14, 69, 90
16, 139440, Note_on_c, 14, 69, 0
16, 139440, Note_on_c, 14, 61, 0
16, 139440, Note_on_c, 14, 64, 0
16, 139440, Note_on_c, 14, 69, 90
16, 139440, Note_on_c, 14, 66, 90
16, 139560, Note_on_c, 14, 69, 0
16, 139560, Note_on_c, 14, 68, 90
16, 139680, Note_on_c, 14, 66, 0
16, 139680, Note_on_c, 14, 64, 90
16, 139799, Note_on_c, 14, 64, 0
16, 139800, Note_on_c, 14, 68, 0
16, 139800, Note_on_c, 14, 69, 90
16, 139800, Note_on_c, 14, 66, 90
16, 139919, Note_on_c, 14, 66, 0
16, 139919, Note_on_c, 14, 69, 0
16, 139920, Note_on_c, 14, 66, 90
16, 139920, Note_on_c, 14, 63, 90
16, 139920, Note_on_c, 14, 72, 90
16, 140039, Note_on_c, 14, 72, 0
16, 140039, Note_on_c, 14, 63, 0
16, 140039, Note_on_c, 14, 66, 0
16, 140040, Note_on_c, 14, 61, 90
16, 140040, Note_on_c, 14, 64, 90
16, 140100, Note_on_c, 14, 64, 0
16, 140100, Note_on_c, 14, 61, 0
16, 140100, Note_on_c, 14, 60, 90
16, 140100, Note_on_c, 14, 63, 90
16, 140160, Note_on_c, 14, 63, 0
16, 140160, Note_on_c, 14, 60, 0
16, 140160, Note_on_c, 14, 61, 100
16, 140160, Note_on_c, 14, 68, 100
16, 140160, Note_on_c, 14, 64, 100
16, 140640, Note_on_c, 14, 64, 0
16, 140640, Note_on_c, 14, 68, 0
16, 140640, Note_on_c, 14, 61, 0
16, 140640, Note_on_c, 14, 70, 100
16, 140640, Note_on_c, 14, 66, 100
16, 141600, Note_on_c, 14, 66, 0
16, 141600, Note_on_c, 14, 70, 0
16, 141600, Note_on_c, 14, 63, 100
16, 141600, Note_on_c, 14, 66, 100
16, 141600, Note_on_c, 14, 71, 100
16, 141840, Note_on_c, 14, 71, 0
16, 141840, Note_on_c, 14, 69, 100
16, 142080, Note_on_c, 14, 69, 0
16, 142080, Note_on_c, 14, 71, 100
16, 142320, Note_on_c, 14, 71, 0
16, 142560, Note_on_c, 14, 66, 0
16, 142560, Note_on_c, 14, 63, 0
16, 142560, Note_on_c, 14, 64, 100
16, 142560, Note_on_c, 14, 68, 100
16, 142560, Note_on_c, 14, 73, 100
16, 142800, Note_on_c, 14, 73, 0
16, 142800, Note_on_c, 14, 71, 100
16, 143040, Note_on_c, 14, 71, 0
16, 143040, Note_on_c, 14, 68, 0
16, 143040, Note_on_c, 14, 64, 0
16, 143040, Note_on_c, 14, 69, 100
16, 143040, Note_on_c, 14, 64, 100
16, 143160, Note_on_c, 14, 64, 0
16, 143160, Note_on_c, 14, 66, 100
16, 143280, Note_on_c, 14, 69, 0
16, 143280, Note_on_c, 14, 63, 100
16, 143280, Note_on_c, 14, 71, 100
16, 143400, Note_on_c, 14, 71, 0
16, 143400, Note_on_c, 14, 63, 0
16, 143400, Note_on_c, 14, 66, 0
16, 143400, Note_on_c, 14, 64, 100
16, 143400, Note_on_c, 14, 69, 100
16, 143520, Note_on_c, 14, 69, 0
16, 143520, Note_on_c, 14, 64, 0
16, 143640, Note_on_c, 14, 66, 100
16, 143640, Note_on_c, 14, 63, 100
16, 143640, Note_on_c, 14, 69, 100
16, 143760, Note_on_c, 14, 69, 0
16, 143760, Note_on_c, 14, 63, 0
16, 143760, Note_on_c, 14, 66, 0
16, 143760, Note_on_c, 14, 68, 90
16, 143760, Note_on_c, 14, 64, 90
16, 144239, Note_on_c, 14, 64, 0
16, 144239, Note_on_c, 14, 68, 0
16, 144240, Note_on_c, 14, 66, 90
16, 144240, Note_on_c, 14, 62, 90
16, 144479, Note_on_c, 14, 62, 0
16, 144479, Note_on_c, 14, 66, 0
16, 144480, Note_on_c, 14, 68, 90
16, 144480, Note_on_c, 14, 59, 90
16, 144480, Note_on_c, 14, 64, 90
16, 144840, Note_on_c, 14, 64, 0
16, 144840, Note_on_c, 14, 62, 90
16, 144959, Note_on_c, 14, 59, 0
16, 144959, Note_on_c, 14, 68, 0
16, 144960, Note_on_c, 14, 62, 0
16, 144960, Note_on_c, 14, 64, 90
16, 144960, Note_on_c, 14, 61, 90
16, 145679, Note_on_c, 14, 61, 0
16, 145679, Note_on_c, 14, 64, 0
16, 145680, Note_on_c, 14, 67, 90
16, 145680, Note_on_c, 14, 62, 90
16, 145919, Note_on_c, 14, 62, 0
16, 145920, Note_on_c, 14, 61, 90
16, 145920, Note_on_c, 14, 69, 90
16, 146159, Note_on_c, 14, 69, 0
16, 146159, Note_on_c, 14, 61, 0
16, 146160, Note_on_c, 14, 67, 0
16, 146160, Note_on_c, 14, 66, 90
16, 146160, Note_on_c, 14, 62, 90
16, 146639, Note_on_c, 14, 62, 0
16, 146639, Note_on_c, 14, 66, 0
16, 146640, Note_on_c, 14, 60, 90
16, 146640, Note_on_c, 14, 67, 90
16, 147119, Note_on_c, 14, 67, 0
16, 147119, Note_on_c, 14, 60, 0
16, 147120, Note_on_c, 14, 64, 90
16, 147120, Note_on_c, 14, 60, 90
16, 147360, Note_on_c, 14, 64, 0
16, 147360, Note_on_c, 14, 63, 90
16, 147599, Note_on_c, 14, 60, 0
16, 147600, Note_on_c, 14, 63, 0
16, 147600, Note_on_c, 14, 59, 90
16, 147600, Note_on_c, 14, 69, 90
16, 147840, Note_on_c, 14, 69, 0
16, 147840, Note_on_c, 14, 59, 0
16, 147840, Note_on_c, 14, 67, 90
16, 147840, Note_on_c, 14, 64, 90
16, 148080, Note_on_c, 14, 64, 0
16, 148080, Note_on_c, 14, 71, 90
16, 148320, Note_on_c, 14, 67, 0
16, 148320, Note_on_c, 14, 64, 90
16, 148379, Note_on_c, 14, 64, 0
16, 148380, Note_on_c, 14, 62, 90
16, 148439, Note_on_c, 14, 62, 0
16, 148440, Note_on_c, 14, 64, 90
16, 148499, Note_on_c, 14, 64, 0
16, 148500, Note_on_c, 14, 66, 90
16, 148559, Note_on_c, 14, 66, 0
16, 148560, Note_on_c, 14, 71, 0
16, 148560, Note_on_c, 14, 62, 90
16, 148560, Note_on_c, 14, 67, 90
16, 148620, Note_on_c, 14, 62, 0
16, 148620, Note_on_c, 14, 66, 90
16, 148680, Note_on_c, 14, 66, 0
16, 148680, Note_on_c, 14, 60, 90
16, 148740, Note_on_c, 14, 60, 0
16, 148740, Note_on_c, 14, 59, 90
16, 148800, Note_on_c, 14, 59, 0
16, 148800, Note_on_c, 14, 67, 0
16, 148800, Note_on_c, 14, 67, 90
16, 148800, Note_on_c, 14, 60, 90
16, 148859, Note_on_c, 14, 60, 0
16, 148860, Note_on_c, 14, 59, 90
16, 149040, Note_on_c, 14, 59, 0
16, 149040, Note_on_c, 14, 67, 0
16, 149040, Note_on_c, 14, 64, 90
16, 149040, Note_on_c, 14, 71, 90
16, 149160, Note_on_c, 14, 71, 0
16, 149160, Note_on_c, 14, 69, 90
16, 149219, Note_on_c, 14, 69, 0
16, 149220, Note_on_c, 14, 67, 90
16, 149279, Note_on_c, 14, 67, 0
16, 149280, Note_on_c, 14, 64, 0
16, 149280, Note_on_c, 14, 62, 90
16, 149280, Note_on_c, 14, 66, 90
16, 149339, Note_on_c, 14, 66, 0
16, 149340, Note_on_c, 14, 67, 90
16, 149399, Note_on_c, 14, 67, 0
16, 149400, Note_on_c, 14, 69, 90
16, 149459, Note_on_c, 14, 69, 0
16, 149520, Note_on_c, 14, 62, 0
16, 149520, Note_on_c, 14, 66, 90
16, 149640, Note_on_c, 14, 66, 0
16, 149640, Note_on_c, 14, 64, 90
16, 149760, Note_on_c, 14, 66, 90
16, 149880, Note_on_c, 14, 66, 0
16, 149880, Note_on_c, 14, 64, 0
16, 149880, Note_on_c, 14, 62, 90
16, 149940, Note_on_c, 14, 62, 0
16, 149940, Note_on_c, 14, 64, 90
16, 150000, Note_on_c, 14, 64, 0
16, 150000, Note_on_c, 14, 58, 90
16, 150000, Note_on_c, 14, 66, 90
16, 150120, Note_on_c, 14, 66, 0
16, 150120, Note_on_c, 14, 58, 0
16, 150120, Note_on_c, 14, 61, 90
16, 150240, Note_on_c, 14, 62, 100
16, 150360, Note_on_c, 14, 61, 0
16, 150360, Note_on_c, 14, 59, 90
16, 150480, Note_on_c, 14, 62, 0
16, 150480, Note_on_c, 14, 64, 100
16, 150600, Note_on_c, 14, 59, 0
16, 150600, Note_on_c, 14, 68, 90
16, 150600, Note_on_c, 14, 61, 90
16, 150630, Note_on_c, 14, 68, 0
16, 150630, Note_on_c, 14, 66, 90
16, 150660, Note_on_c, 14, 66, 0
16, 150660, Note_on_c, 14, 68, 90
16, 150719, Note_on_c, 14, 68, 0
16, 150720, Note_on_c, 14, 64, 0
16, 150720, Note_on_c, 14, 70, 90
16, 150840, Note_on_c, 14, 70, 0
16, 150840, Note_on_c, 14, 61, 0
16, 150840, Note_on_c, 14, 62, 90
16, 150840, Note_on_c, 14, 70, 90
16, 150870, Note_on_c, 14, 70, 0
16, 150870, Note_on_c, 14, 68, 90
16, 150900, Note_on_c, 14, 68, 0
16, 150900, Note_on_c, 14, 70, 90
16, 150959, Note_on_c, 14, 70, 0
16, 150960, Note_on_c, 14, 62, 100
16, 151080, Note_on_c, 14, 62, 0
16, 151080, Note_on_c, 14, 62, 0
16, 151080, Note_on_c, 14, 64, 90
16, 151080, Note_on_c, 14, 67, 90
16, 151110, Note_on_c, 14, 67, 0
16, 151110, Note_on_c, 14, 66, 90
16, 151140, Note_on_c, 14, 66, 0
16, 151140, Note_on_c, 14, 67, 90
16, 151170, Note_on_c, 14, 67, 0
16, 151170, Note_on_c, 14, 69, 90
16, 151200, Note_on_c, 14, 69, 0
16, 151200, Note_on_c, 14, 67, 90
16, 151200, Note_on_c, 14, 71, 90
16, 151320, Note_on_c, 14, 71, 0
16, 151320, Note_on_c, 14, 67, 0
16, 151320, Note_on_c, 14, 64, 0
16, 151320, Note_on_c, 14, 70, 90
16, 151440, Note_on_c, 14, 70, 0
16, 151440, Note_on_c, 14, 64, 90
16, 151440, Note_on_c, 14, 67, 90
16, 151619, Note_on_c, 14, 67, 0
16, 151619, Note_on_c, 14, 64, 0
16, 151620, Note_on_c, 14, 66, 90
16, 151649, Note_on_c, 14, 66, 0
16, 151650, Note_on_c, 14, 64, 90
16, 151679, Note_on_c, 14, 64, 0
16, 151680, Note_on_c, 14, 70, 90
16, 151680, Note_on_c, 14, 64, 90
16, 151739, Note_on_c, 14, 64, 0
16, 151740, Note_on_c, 14, 61, 90
16, 151740, Note_on_c, 14, 66, 90
16, 151799, Note_on_c, 14, 66, 0
16, 151799, Note_on_c, 14, 61, 0
16, 151800, Note_on_c, 14, 70, 0
16, 151800, Note_on_c, 14, 71, 90
16, 151800, Note_on_c, 14, 62, 90
16, 151859, Note_on_c, 14, 62, 0
16, 151860, Note_on_c, 14, 64, 90
16, 151919, Note_on_c, 14, 64, 0
16, 151920, Note_on_c, 14, 62, 90
16, 151979, Note_on_c, 14, 62, 0
16, 151980, Note_on_c, 14, 67, 90
16, 152040, Note_on_c, 14, 67, 0
16, 152040, Note_on_c, 14, 71, 0
16, 152040, Note_on_c, 14, 66, 90
16, 152040, Note_on_c, 14, 70, 90
16, 152100, Note_on_c, 14, 66, 0
16, 152100, Note_on_c, 14, 64, 90
16, 152160, Note_on_c, 14, 64, 0
16, 152160, Note_on_c, 14, 70, 0
16, 152160, Note_on_c, 14, 66, 90
16, 152160, Note_on_c, 14, 62, 90
16, 152160, Note_on_c, 14, 71, 90
16, 152280, Note_on_c, 14, 71, 0
16, 152280, Note_on_c, 14, 62, 0
16, 152280, Note_on_c, 14, 61, 90
16, 152340, Note_on_c, 14, 69, 90
16, 152400, Note_on_c, 14, 69, 0
16, 152400, Note_on_c, 14, 61, 0
16, 152400, Note_on_c, 14, 66, 0
16, 152400, Note_on_c, 14, 67, 90
16, 152400, Note_on_c, 14, 62, 90
16, 152460, Note_on_c, 14, 62, 0
16, 152460, Note_on_c, 14, 67, 0
16, 152460, Note_on_c, 14, 64, 90
16, 152580, Note_on_c, 14, 64, 0
16, 152580, Note_on_c, 14, 66, 90
16, 152580, Note_on_c, 14, 62, 90
16, 152640, Note_on_c, 14, 66, 0
16, 152640, Note_on_c, 14, 67, 90
16, 152640, Note_on_c, 14, 64, 90
16, 152700, Note_on_c, 14, 64, 0
16, 152700, Note_on_c, 14, 67, 0
16, 152700, Note_on_c, 14, 62, 0
16, 152700, Note_on_c, 14, 61, 90
16, 152760, Note_on_c, 14, 61, 0
16, 152760, Note_on_c, 14, 66, 90
16, 152760, Note_on_c, 14, 58, 90
16, 152820, Note_on_c, 14, 66, 0
16, 152820, Note_on_c, 14, 64, 90
16, 152880, Note_on_c, 14, 64, 0
16, 152880, Note_on_c, 14, 58, 0
16, 152880, Note_on_c, 14, 59, 90
16, 152880, Note_on_c, 14, 62, 90
16, 153119, Note_on_c, 14, 62, 0
16, 153119, Note_on_c, 14, 59, 0
16, 153240, Note_on_c, 14, 71, 90
16, 153240, Note_on_c, 14, 66, 90
16, 153240, Note_on_c, 14, 62, 90
16, 153299, Note_on_c, 14, 62, 0
16, 153299, Note_on_c, 14, 66, 0
16, 153299, Note_on_c, 14, 71, 0
16, 153360, Note_on_c, 14, 64, 90
16, 153360, Note_on_c, 14, 70, 90
16, 153419, Note_on_c, 14, 70, 0
16, 153419, Note_on_c, 14, 64, 0
16, 153480, Note_on_c, 14, 62, 90
16, 153480, Note_on_c, 14, 66, 90
16, 153480, Note_on_c, 14, 71, 90
16, 153539, Note_on_c, 14, 71, 0
16, 153539, Note_on_c, 14, 66, 0
16, 153539, Note_on_c, 14, 62, 0
16, 153600, Note_on_c, 14, 67, 90
16, 153600, Note_on_c, 14, 62, 90
16, 153600, Note_on_c, 14, 71, 90
16, 153659, Note_on_c, 14, 71, 0
16, 153659, Note_on_c, 14, 62, 0
16, 153659, Note_on_c, 14, 67, 0
16, 153720, Note_on_c, 14, 66, 90
16, 153720, Note_on_c, 14, 70, 90
16, 153720, Note_on_c, 14, 73, 90
16, 153779, Note_on_c, 14, 73, 0
16, 153779, Note_on_c, 14, 70, 0
16, 153779, Note_on_c, 14, 66, 0
16, 153780, Note_on_c, 14, 76, 90
16, 153810, Note_on_c, 14, 76, 0
16, 153810, Note_on_c, 14, 74, 90
16, 153840, Note_on_c, 14, 74, 0
16, 153840, Note_on_c, 14, 73, 90
16, 153840, Note_on_c, 14, 70, 90
16, 153840, Note_on_c, 14, 64, 90
16, 153840, Note_on_c, 14, 66, 90
16, 153899, Note_on_c, 14, 66, 0
16, 153899, Note_on_c, 14, 73, 0
16, 153899, Note_on_c, 14, 70, 0
16, 153899, Note_on_c, 14, 64, 0
16, 153900, Note_on_c, 14, 71, 90
16, 153900, Note_on_c, 14, 66, 90
16, 153900, Note_on_c, 14, 62, 90
16, 153959, Note_on_c, 14, 62, 0
16, 153959, Note_on_c, 14, 66, 0
16, 153959, Note_on_c, 14, 71, 0
16, 153960, Note_on_c, 14, 71, 90
16, 153960, Note_on_c, 14, 59, 90
16, 153960, Note_on_c, 14, 62, 90
16, 154019, Note_on_c, 14, 62, 0
16, 154019, Note_on_c, 14, 59, 0
16, 154019, Note_on_c, 14, 71, 0
16, 154020, Note_on_c, 14, 70, 90
16, 154020, Note_on_c, 14, 61, 90
16, 154079, Note_on_c, 14, 61, 0
16, 154079, Note_on_c, 14, 70, 0
16, 154080, Note_on_c, 14, 66, 90
16, 154139, Note_on_c, 14, 66, 0
16, 154140, Note_on_c, 14, 64, 90
16, 154140, Note_on_c, 14, 70, 90
16, 154199, Note_on_c, 14, 70, 0
16, 154199, Note_on_c, 14, 64, 0
16, 154200, Note_on_c, 14, 66, 90
16, 154200, Note_on_c, 14, 62, 90
16, 154200, Note_on_c, 14, 59, 90
16, 154259, Note_on_c, 14, 62, 0
16, 154260, Note_on_c, 14, 64, 90
16, 154319, Note_on_c, 14, 64, 0
16, 154320, Note_on_c, 14, 59, 0
16, 154320, Note_on_c, 14, 66, 0
16, 154320, Note_on_c, 14, 71, 90
16, 154320, Note_on_c, 14, 66, 90
16, 154320, Note_on_c, 14, 62, 90
16, 154379, Note_on_c, 14, 66, 0
16, 154380, Note_on_c, 14, 64, 90
16, 154439, Note_on_c, 14, 64, 0
16, 154440, Note_on_c, 14, 62, 0
16, 154440, Note_on_c, 14, 59, 90
16, 154440, Note_on_c, 14, 62, 90
16, 154499, Note_on_c, 14, 62, 0
16, 154500, Note_on_c, 14, 71, 0
16, 154500, Note_on_c, 14, 69, 90
16, 154500, Note_on_c, 14, 64, 90
16, 154530, Note_on_c, 14, 69, 0
16, 154530, Note_on_c, 14, 67, 90
16, 154559, Note_on_c, 14, 64, 0
16, 154560, Note_on_c, 14, 67, 0
16, 154560, Note_on_c, 14, 59, 0
16, 154560, Note_on_c, 14, 66, 90
16, 154560, Note_on_c, 14, 59, 90
16, 154560, Note_on_c, 14, 62, 90
16, 154619, Note_on_c, 14, 62, 0
16, 154620, Note_on_c, 14, 61, 90
16, 154679, Note_on_c, 14, 61, 0
16, 154680, Note_on_c, 14, 59, 0
16, 154680, Note_on_c, 14, 66, 0
16, 154680, Note_on_c, 14, 64, 90
16, 154680, Note_on_c, 14, 62, 90
16, 154739, Note_on_c, 14, 62, 0
16, 154739, Note_on_c, 14, 64, 0
16, 154800, Note_on_c, 14, 62, 90
16, 154800, Note_on_c, 14, 68, 90
16, 154859, Note_on_c, 14, 68, 0
16, 154859, Note_on_c, 14, 62, 0
16, 154920, Note_on_c, 14, 74, 90
16, 154920, Note_on_c, 14, 68, 90
16, 154920, Note_on_c, 14, 64, 90
16, 154979, Note_on_c, 14, 64, 0
16, 154979, Note_on_c, 14, 68, 0
16, 154979, Note_on_c, 14, 74, 0
16, 155040, Note_on_c, 14, 62, 90
16, 155040, Note_on_c, 14, 68, 90
16, 155099, Note_on_c, 14, 68, 0
16, 155099, Note_on_c, 14, 62, 0
16, 155160, Note_on_c, 14, 61, 90
16, 155160, Note_on_c, 14, 73, 90
16, 155219, Note_on_c, 14, 73, 0
16, 155219, Note_on_c, 14, 61, 0
16, 155220, Note_on_c, 14, 62, 90
16, 155220, Note_on_c, 14, 71, 90
16, 155279, Note_on_c, 14, 71, 0
16, 155279, Note_on_c, 14, 62, 0
16, 155280, Note_on_c, 14, 64, 90
16, 155280, Note_on_c, 14, 69, 90
16, 155339, Note_on_c, 14, 69, 0
16, 155339, Note_on_c, 14, 64, 0
16, 155340, Note_on_c, 14, 62, 90
16, 155340, Note_on_c, 14, 71, 90
16, 155399, Note_on_c, 14, 71, 0
16, 155399, Note_on_c, 14, 62, 0
16, 155400, Note_on_c, 14, 61, 90
16, 155400, Note_on_c, 14, 73, 90
16, 155459, Note_on_c, 14, 73, 0
16, 155459, Note_on_c, 14, 61, 0
16, 155460, Note_on_c, 14, 62, 90
16, 155460, Note_on_c, 14, 71, 90
16, 155519, Note_on_c, 14, 71, 0
16, 155519, Note_on_c, 14, 62, 0
16, 155520, Note_on_c, 14, 64, 90
16, 155520, Note_on_c, 14, 73, 90
16, 155579, Note_on_c, 14, 73, 0
16, 155579, Note_on_c, 14, 64, 0
16, 155580, Note_on_c, 14, 62, 90
16, 155580, Note_on_c, 14, 74, 90
16, 155639, Note_on_c, 14, 74, 0
16, 155639, Note_on_c, 14, 62, 0
16, 155640, Note_on_c, 14, 62, 90
16, 155640, Note_on_c, 14, 72, 90
16, 155699, Note_on_c, 14, 72, 0
16, 155699, Note_on_c, 14, 62, 0
16, 155760, Note_on_c, 14, 66, 90
16, 155760, Note_on_c, 14, 60, 90
16, 155819, Note_on_c, 14, 60, 0
16, 155819, Note_on_c, 14, 66, 0
16, 155880, Note_on_c, 14, 60, 90
16, 155880, Note_on_c, 14, 62, 90
16, 155939, Note_on_c, 14, 62, 0
16, 155939, Note_on_c, 14, 60, 0
16, 156000, Note_on_c, 14, 66, 90
16, 156000, Note_on_c, 14, 72, 90
16, 156059, Note_on_c, 14, 72, 0
16, 156059, Note_on_c, 14, 66, 0
16, 156120, Note_on_c, 14, 62, 90
16, 156120, Note_on_c, 14, 67, 90
16, 156120, Note_on_c, 14, 71, 90
16, 156179, Note_on_c, 14, 71, 0
16, 156179, Note_on_c, 14, 67, 0
16, 156179, Note_on_c, 14, 62, 0
16, 156180, Note_on_c, 14, 64, 90
16, 156180, Note_on_c, 14, 71, 90
16, 156239, Note_on_c, 14, 71, 0
16, 156239, Note_on_c, 14, 64, 0
16, 156240, Note_on_c, 14, 66, 90
16, 156240, Note_on_c, 14, 67, 90
16, 156240, Note_on_c, 14, 62, 90
16, 156299, Note_on_c, 14, 62, 0
16, 156299, Note_on_c, 14, 67, 0
16, 156299, Note_on_c, 14, 66, 0
16, 156300, Note_on_c, 14, 61, 90
16, 156300, Note_on_c, 14, 69, 90
16, 156300, Note_on_c, 14, 66, 90
16, 156359, Note_on_c, 14, 66, 0
16, 156359, Note_on_c, 14, 69, 0
16, 156359, Note_on_c, 14, 61, 0
16, 156360, Note_on_c, 14, 59, 90
16, 156360, Note_on_c, 14, 64, 90
16, 156360, Note_on_c, 14, 67, 90
16, 156419, Note_on_c, 14, 67, 0
16, 156419, Note_on_c, 14, 64, 0
16, 156419, Note_on_c, 14, 59, 0
16, 156480, Note_on_c, 14, 67, 90
16, 156480, Note_on_c, 14, 71, 90
16, 156480, Note_on_c, 14, 64, 90
16, 156539, Note_on_c, 14, 64, 0
16, 156539, Note_on_c, 14, 71, 0
16, 156539, Note_on_c, 14, 67, 0
16, 156600, Note_on_c, 14, 69, 90
16, 156600, Note_on_c, 14, 66, 90
16, 156659, Note_on_c, 14, 66, 0
16, 156659, Note_on_c, 14, 69, 0
16, 156660, Note_on_c, 14, 73, 90
16, 156660, Note_on_c, 14, 69, 90
16, 156719, Note_on_c, 14, 69, 0
16, 156719, Note_on_c, 14, 73, 0
16, 156720, Note_on_c, 14, 76, 90
16, 156720, Note_on_c, 14, 61, 90
16, 156779, Note_on_c, 14, 61, 0
16, 156779, Note_on_c, 14, 76, 0
16, 156780, Note_on_c, 14, 67, 90
16, 156780, Note_on_c, 14, 71, 90
16, 156780, Note_on_c, 14, 64, 90
16, 156840, Note_on_c, 14, 64, 0
16, 156840, Note_on_c, 14, 71, 0
16, 156840, Note_on_c, 14, 67, 0
16, 156840, Note_on_c, 14, 62, 90
16, 156840, Note_on_c, 14, 69, 90
16, 156840, Note_on_c, 14, 66, 90
16, 156900, Note_on_c, 14, 66, 0
16, 156900, Note_on_c, 14, 69, 0
16, 156900, Note_on_c, 14, 62, 0
16, 156960, Note_on_c, 14, 61, 90
16, 156960, Note_on_c, 14, 66, 90
16, 156960, Note_on_c, 14, 69, 90
16, 157020, Note_on_c, 14, 69, 0
16, 157020, Note_on_c, 14, 66, 0
16, 157020, Note_on_c, 14, 61, 0
16, 157020, Note_on_c, 14, 62, 90
16, 157020, Note_on_c, 14, 59, 90
16, 157020, Note_on_c, 14, 66, 90
16, 157080, Note_on_c, 14, 66, 0
16, 157080, Note_on_c, 14, 59, 0
16, 157080, Note_on_c, 14, 62, 0
16, 157080, Note_on_c, 14, 64, 90
16, 157080, Note_on_c, 14, 70, 90
16, 157080, Note_on_c, 14, 73, 90
16, 157140, Note_on_c, 14, 73, 0
16, 157140, Note_on_c, 14, 70, 0
16, 157140, Note_on_c, 14, 64, 0
16, 157200, Note_on_c, 14, 67, 90
16, 157200, Note_on_c, 14, 70, 90
16, 157260, Note_on_c, 14, 70, 0
16, 157260, Note_on_c, 14, 67, 0
16, 157320, Note_on_c, 14, 70, 90
16, 157320, Note_on_c, 14, 66, 90
16, 157320, Note_on_c, 14, 73, 90
16, 157380, Note_on_c, 14, 73, 0
16, 157380, Note_on_c, 14, 66, 0
16, 157380, Note_on_c, 14, 70, 0
16, 157440, Note_on_c, 14, 66, 90
16, 157440, Note_on_c, 14, 64, 90
16, 157500, Note_on_c, 14, 64, 0
16, 157500, Note_on_c, 14, 66, 0
16, 157500, Note_on_c, 14, 67, 90
16, 157560, Note_on_c, 14, 67, 0
16, 157560, Note_on_c, 14, 62, 90
16, 157560, Note_on_c, 14, 59, 90
16, 157560, Note_on_c, 14, 66, 90
16, 157620, Note_on_c, 14, 66, 0
16, 157620, Note_on_c, 14, 59, 0
16, 157620, Note_on_c, 14, 62, 0
16, 157620, Note_on_c, 14, 71, 90
16, 157620, Note_on_c, 14, 64, 90
16, 157680, Note_on_c, 14, 64, 0
16, 157680, Note_on_c, 14, 71, 0
16, 157680, Note_on_c, 14, 71, 90
16, 157680, Note_on_c, 14, 62, 90
16, 157740, Note_on_c, 14, 62, 0
16, 157740, Note_on_c, 14, 71, 0
16, 157740, Note_on_c, 14, 70, 90
16, 157740, Note_on_c, 14, 61, 90
16, 157800, Note_on_c, 14, 61, 0
16, 157800, Note_on_c, 14, 70, 0
16, 157800, Note_on_c, 14, 62, 90
16, 157800, Note_on_c, 14, 59, 90
16, 157800, Note_on_c, 14, 66, 90
16, 157800, Note_on_c, 14, 71, 90
16, 157920, Note_on_c, 14, 71, 0
16, 157920, Note_on_c, 14, 62, 0
16, 157920, Note_on_c, 14, 59, 0
16, 157920, Note_on_c, 14, 66, 0
16, 157920, Note_on_c, 14, 66, 90
16, 157920, Note_on_c, 14, 70, 90
16, 157920, Note_on_c, 14, 61, 90
16, 157979, Note_on_c, 14, 61, 0
16, 157979, Note_on_c, 14, 70, 0
16, 157979, Note_on_c, 14, 66, 0
16, 157980, Note_on_c, 14, 66, 90
16, 157980, Note_on_c, 14, 58, 90
16, 157980, Note_on_c, 14, 64, 90
16, 158039, Note_on_c, 14, 64, 0
16, 158039, Note_on_c, 14, 58, 0
16, 158039, Note_on_c, 14, 66, 0
16, 158040, Note_on_c, 14, 62, 90
16, 158040, Note_on_c, 14, 59, 90
16, 158040, Note_on_c, 14, 66, 90
16, 158099, Note_on_c, 14, 66, 0
16, 158099, Note_on_c, 14, 59, 0
16, 158099, Note_on_c, 14, 62, 0
16, 193800, Note_on_c, 14, 71, 90
16, 193800, Note_on_c, 14, 66, 90
16, 193800, Note_on_c, 14, 62, 90
16, 193859, Note_on_c, 14, 62, 0
16, 193859, Note_on_c, 14, 66, 0
16, 193859, Note_on_c, 14, 71, 0
16, 193920, Note_on_c, 14, 64, 90
16, 193920, Note_on_c, 14, 70, 90
16, 193979, Note_on_c, 14, 70, 0
16, 193979, Note_on_c, 14, 64, 0
16, 194040, Note_on_c, 14, 62, 90
16, 194040, Note_on_c, 14, 66, 90
16, 194040, Note_on_c, 14, 71, 90
16, 194099, Note_on_c, 14, 71, 0
16, 194099, Note_on_c, 14, 66, 0
16, 194099, Note_on_c, 14, 62, 0
16, 194160, Note_on_c, 14, 67, 90
16, 194160, Note_on_c, 14, 62, 90
16, 194160, Note_on_c, 14, 71, 90
16, 194219, Note_on_c, 14, 71, 0
16, 194219, Note_on_c, 14, 62, 0
16, 194219, Note_on_c, 14, 67, 0
16, 194280, Note_on_c, 14, 66, 90
16, 194280, Note_on_c, 14, 70, 90
16, 194280, Note_on_c, 14, 73, 90
16, 194339, Note_on_c, 14, 73, 0
16, 194339, Note_on_c, 14, 70, 0
16, 194339, Note_on_c, 14, 66, 0
16, 194340, Note_on_c, 14, 76, 90
16, 194370, Note_on_c, 14, 76, 0
16, 194370, Note_on_c, 14, 74, 90
16, 194400, Note_on_c, 14, 74, 0
16, 194400, Note_on_c, 14, 73, 90
16, 194400, Note_on_c, 14, 70, 90
16, 194400, Note_on_c, 14, 64, 90
16, 194400, Note_on_c, 14, 66, 90
16, 194459, Note_on_c, 14, 66, 0
16, 194459, Note_on_c, 14, 73, 0
16, 194459, Note_on_c, 14, 70, 0
16, 194459, Note_on_c, 14, 64, 0
16, 194460, Note_on_c, 14, 71, 90
16, 194460, Note_on_c, 14, 66, 90
16, 194460, Note_on_c, 14, 62, 90
16, 194519, Note_on_c, 14, 62, 0
16, 194519, Note_on_c, 14, 66, 0
16, 194519, Note_on_c, 14, 71, 0
16, 194520, Note_on_c, 14, 71, 90
16, 194520, Note_on_c, 14, 59, 90
16, 194520, Note_on_c, 14, 62, 90
16, 194579, Note_on_c, 14, 62, 0
16, 194579, Note_on_c, 14, 59, 0
16, 194579, Note_on_c, 14, 71, 0
16, 194580, Note_on_c, 14, 70, 90
16, 194580, Note_on_c, 14, 61, 90
16, 194639, Note_on_c, 14, 61, 0
16, 194639, Note_on_c, 14, 70, 0
16, 194640, Note_on_c, 14, 66, 90
16, 194699, Note_on_c, 14, 66, 0
16, 194700, Note_on_c, 14, 64, 90
16, 194700, Note_on_c, 14, 70, 90
16, 194759, Note_on_c, 14, 70, 0
16, 194759, Note_on_c, 14, 64, 0
16, 194760, Note_on_c, 14, 66, 90
16, 194760, Note_on_c, 14, 62, 90
16, 194760, Note_on_c, 14, 59, 90
16, 194819, Note_on_c, 14, 62, 0
16, 194820, Note_on_c, 14, 64, 90
16, 194879, Note_on_c, 14, 64, 0
16, 194880, Note_on_c, 14, 59, 0
16, 194880, Note_on_c, 14, 66, 0
16, 194880, Note_on_c, 14, 71, 90
16, 194880, Note_on_c, 14, 66, 90
16, 194880, Note_on_c, 14, 62, 90
16, 194939, Note_on_c, 14, 66, 0
16, 194940, Note_on_c, 14, 64, 90
16, 194999, Note_on_c, 14, 64, 0
16, 195000, Note_on_c, 14, 62, 0
16, 195000, Note_on_c, 14, 59, 90
16, 195000, Note_on_c, 14, 62, 90
16, 195059, Note_on_c, 14, 62, 0
16, 195060, Note_on_c, 14, 71, 0
16, 195060, Note_on_c, 14, 69, 90
16, 195060, Note_on_c, 14, 64, 90
16, 195090, Note_on_c, 14, 69, 0
16, 195090, Note_on_c, 14, 67, 90
16, 195119, Note_on_c, 14, 64, 0
16, 195120, Note_on_c, 14, 67, 0
16, 195120, Note_on_c, 14, 59, 0
16, 195120, Note_on_c, 14, 66, 90
16, 195120, Note_on_c, 14, 59, 90
16, 195120, Note_on_c, 14, 62, 90
16, 195179, Note_on_c, 14, 62, 0
16, 195180, Note_on_c, 14, 61, 90
16, 195239, Note_on_c, 14, 61, 0
16, 195240, Note_on_c, 14, 59, 0
16, 195240, Note_on_c, 14, 66, 0
16, 195240, Note_on_c, 14, 64, 90
16, 195240, Note_on_c, 14, 62, 90
16, 195299, Note_on_c, 14, 62, 0
16, 195299, Note_on_c, 14, 64, 0
16, 195360, Note_on_c, 14, 62, 90
16, 195360, Note_on_c, 14, 68, 90
16, 195419, Note_on_c, 14, 68, 0
16, 195419, Note_on_c, 14, 62, 0
16, 195480, Note_on_c, 14, 74, 90
16, 195480, Note_on_c, 14, 68, 90
16, 195480, Note_on_c, 14, 64, 90
16, 195539, Note_on_c, 14, 64, 0
16, 195539, Note_on_c, 14, 68, 0
16, 195539, Note_on_c, 14, 74, 0
16, 195600, Note_on_c, 14, 62, 90
16, 195600, Note_on_c, 14, 68, 90
16, 195659, Note_on_c, 14, 68, 0
16, 195659, Note_on_c, 14, 62, 0
16, 195720, Note_on_c, 14, 61, 90
16, 195720, Note_on_c, 14, 73, 90
16, 195779, Note_on_c, 14, 73, 0
16, 195779, Note_on_c, 14, 61, 0
16, 195780, Note_on_c, 14, 62, 90
16, 195780, Note_on_c, 14, 71, 90
16, 195839, Note_on_c, 14, 71, 0
16, 195839, Note_on_c, 14, 62, 0
16, 195840, Note_on_c, 14, 64, 90
16, 195840, Note_on_c, 14, 69, 90
16, 195899, Note_on_c, 14, 69, 0
16, 195899, Note_on_c, 14, 64, 0
16, 195900, Note_on_c, 14, 62, 90
16, 195900, Note_on_c, 14, 71, 90
16, 195959, Note_on_c, 14, 71, 0
16, 195959, Note_on_c, 14, 62, 0
16, 195960, Note_on_c, 14, 61, 90
16, 195960, Note_on_c, 14, 73, 90
16, 196019, Note_on_c, 14, 73, 0
16, 196019, Note_on_c, 14, 61, 0
16, 196020, Note_on_c, 14, 62, 90
16, 196020, Note_on_c, 14, 71, 90
16, 196079, Note_on_c, 14, 71, 0
16, 196079, Note_on_c, 14, 62, 0
16, 196080, Note_on_c, 14, 64, 90
16, 196080, Note_on_c, 14, 73, 90
16, 196139, Note_on_c, 14, 73, 0
16, 196139, Note_on_c, 14, 64, 0
16, 196140, Note_on_c, 14, 62, 90
16, 196140, Note_on_c, 14, 74, 90
16, 196199, Note_on_c, 14, 74, 0
16, 196199, Note_on_c, 14, 62, 0
16, 196200, Note_on_c, 14, 62, 90
16, 196200, Note_on_c, 14, 72, 90
16, 196259, Note_on_c, 14, 72, 0
16, 196259, Note_on_c, 14, 62, 0
16, 196320, Note_on_c, 14, 66, 90
16, 196320, Note_on_c, 14, 60, 90
16, 196379, Note_on_c, 14, 60, 0
16, 196379, Note_on_c, 14, 66, 0
16, 196440, Note_on_c, 14, 60, 90
16, 196440, Note_on_c, 14, 62, 90
16, 196499, Note_on_c, 14, 62, 0
16, 196499, Note_on_c, 14, 60, 0
16, 196560, Note_on_c, 14, 66, 90
16, 196560, Note_on_c, 14, 72, 90
16, 196619, Note_on_c, 14, 72, 0
16, 196619, Note_on_c, 14, 66, 0
16, 196680, Note_on_c, 14, 62, 90
16, 196680, Note_on_c, 14, 67, 90
16, 196680, Note_on_c, 14, 71, 90
16, 196739, Note_on_c, 14, 71, 0
16, 196739, Note_on_c, 14, 67, 0
16, 196739, Note_on_c, 14, 62, 0
16, 196740, Note_on_c, 14, 64, 90
16, 196740, Note_on_c, 14, 71, 90
16, 196799, Note_on_c, 14, 71, 0
16, 196799, Note_on_c, 14, 64, 0
16, 196800, Note_on_c, 14, 66, 90
16, 196800, Note_on_c, 14, 67, 90
16, 196800, Note_on_c, 14, 62, 90
16, 196859, Note_on_c, 14, 62, 0
16, 196859, Note_on_c, 14, 67, 0
16, 196859, Note_on_c, 14, 66, 0
16, 196860, Note_on_c, 14, 61, 90
16, 196860, Note_on_c, 14, 69, 90
16, 196860, Note_on_c, 14, 66, 90
16, 196919, Note_on_c, 14, 66, 0
16, 196919, Note_on_c, 14, 69, 0
16, 196919, Note_on_c, 14, 61, 0
16, 196920, Note_on_c, 14, 59, 90
16, 196920, Note_on_c, 14, 64, 90
16, 196920, Note_on_c, 14, 67, 90
16, 196979, Note_on_c, 14, 67, 0
16, 196979, Note_on_c, 14, 64, 0
16, 196979, Note_on_c, 14, 59, 0
16, 197040, Note_on_c, 14, 67, 90
16, 197040, Note_on_c, 14, 71, 90
16, 197040, Note_on_c, 14, 64, 90
16, 197099, Note_on_c, 14, 64, 0
16, 197099, Note_on_c, 14, 71, 0
16, 197099, Note_on_c, 14, 67, 0
16, 197160, Note_on_c, 14, 69, 90
16, 197160, Note_on_c, 14, 66, 90
16, 197219, Note_on_c, 14, 66, 0
16, 197219, Note_on_c, 14, 69, 0
16, 197220, Note_on_c, 14, 73, 90
16, 197220, Note_on_c, 14, 69, 90
16, 197279, Note_on_c, 14, 69, 0
16, 197279, Note_on_c, 14, 73, 0
16, 197280, Note_on_c, 14, 76, 90
16, 197280, Note_on_c, 14, 61, 90
16, 197339, Note_on_c, 14, 61, 0
16, 197339, Note_on_c, 14, 76, 0
16, 197340, Note_on_c, 14, 67, 90
16, 197340, Note_on_c, 14, 71, 90
16, 197340, Note_on_c, 14, 64, 90
16, 197400, Note_on_c, 14, 64, 0
16, 197400, Note_on_c, 14, 71, 0
16, 197400, Note_on_c, 14, 67, 0
16, 197400, Note_on_c, 14, 62, 90
16, 197400, Note_on_c, 14, 69, 90
16, 197400, Note_on_c, 14, 66, 90
16, 197460, Note_on_c, 14, 66, 0
16, 197460, Note_on_c, 14, 69, 0
16, 197460, Note_on_c, 14, 62, 0
16, 197520, Note_on_c, 14, 61, 90
16, 197520, Note_on_c, 14, 66, 90
16, 197520, Note_on_c, 14, 69, 90
16, 197580, Note_on_c, 14, 69, 0
16, 197580, Note_on_c, 14, 66, 0
16, 197580, Note_on_c, 14, 61, 0
16, 197580, Note_on_c, 14, 62, 90
16, 197580, Note_on_c, 14, 59, 90
16, 197580, Note_on_c, 14, 66, 90
16, 197640, Note_on_c, 14, 66, 0
16, 197640, Note_on_c, 14, 59, 0
16, 197640, Note_on_c, 14, 62, 0
16, 197640, Note_on_c, 14, 64, 90
16, 197640, Note_on_c, 14, 70, 90
16, 197640, Note_on_c, 14, 73, 90
16, 197700, Note_on_c, 14, 73, 0
16, 197700, Note_on_c, 14, 70, 0
16, 197700, Note_on_c, 14, 64, 0
16, 197760, Note_on_c, 14, 67, 90
16, 197760, Note_on_c, 14, 70, 90
16, 197820, Note_on_c, 14, 70, 0
16, 197820, Note_on_c, 14, 67, 0
16, 197880, Note_on_c, 14, 70, 90
16, 197880, Note_on_c, 14, 66, 90
16, 197880, Note_on_c, 14, 73, 90
16, 197940, Note_on_c, 14, 73, 0
16, 197940, Note_on_c, 14, 66, 0
16, 197940, Note_on_c, 14, 70, 0
16, 198000, Note_on_c, 14, 66, 90
16, 198000, Note_on_c, 14, 64, 90
16, 198060, Note_on_c, 14, 64, 0
16, 198060, Note_on_c, 14, 66, 0
16, 198060, Note_on_c, 14, 67, 90
16, 198120, Note_on_c, 14, 67, 0
16, 198120, Note_on_c, 14, 62, 90
16, 198120, Note_on_c, 14, 59, 90
16, 198120, Note_on_c, 14, 66, 90
16, 198180, Note_on_c, 14, 66, 0
16, 198180, Note_on_c, 14, 59, 0
16, 198180, Note_on_c, 14, 62, 0
16, 198180, Note_on_c, 14, 71, 90
16, 198180, Note_on_c, 14, 64, 90
16, 198240, Note_on_c, 14, 64, 0
16, 198240, Note_on_c, 14, 71, 0
16, 198240, Note_on_c, 14, 71, 90
16, 198240, Note_on_c, 14, 62, 90
16, 198300, Note_on_c, 14, 62, 0
16, 198300, Note_on_c, 14, 71, 0
16, 198300, Note_on_c, 14, 70, 90
16, 198300, Note_on_c, 14, 61, 90
16, 198360, Note_on_c, 14, 61, 0
16, 198360, Note_on_c, 14, 70, 0
16, 198360, Note_on_c, 14, 59, 90
16, 198360, Note_on_c, 14, 62, 90
16, 198360, Note_on_c, 14, 66, 90
16, 198360, Note_on_c, 14, 71, 90
16, 198600, Note_on_c, 14, 71, 0
16, 198600, Note_on_c, 14, 59, 0
16, 198600, Note_on_c, 14, 62, 0
16, 198600, Note_on_c, 14, 66, 0
16, 198720, Note_on_c, 14, 68, 90
16, 198720, Note_on_c, 14, 65, 90
16, 198720, Note_on_c, 14, 61, 90
16, 199199, Note_on_c, 14, 61, 0
16, 199199, Note_on_c, 14, 65, 0
16, 199199, Note_on_c, 14, 68, 0
16, 199200, Note_on_c, 14, 69, 90
16, 199200, Note_on_c, 14, 66, 90
16, 199200, Note_on_c, 14, 61, 90
16, 199440, Note_on_c, 14, 61, 0
16, 199440, Note_on_c, 14, 63, 90
16, 199679, Note_on_c, 14, 66, 0
16, 199679, Note_on_c, 14, 69, 0
16, 199680, Note_on_c, 14, 63, 0
16, 199680, Note_on_c, 14, 68, 90
16, 199680, Note_on_c, 14, 64, 90
16, 200040, Note_on_c, 14, 64, 0
16, 200040, Note_on_c, 14, 62, 90
16, 200159, Note_on_c, 14, 68, 0
16, 200160, Note_on_c, 14, 62, 0
16, 200160, Note_on_c, 14, 64, 90
16, 200160, Note_on_c, 14, 69, 90
16, 200400, Note_on_c, 14, 64, 0
16, 200400, Note_on_c, 14, 66, 90
16, 200640, Note_on_c, 14, 66, 0
16, 200640, Note_on_c, 14, 69, 0
16, 200760, Note_on_c, 14, 73, 90
16, 200760, Note_on_c, 14, 69, 90
16, 200820, Note_on_c, 14, 69, 0
16, 200820, Note_on_c, 14, 73, 0
16, 200820, Note_on_c, 14, 68, 90
16, 200820, Note_on_c, 14, 71, 90
16, 200880, Note_on_c, 14, 71, 0
16, 200880, Note_on_c, 14, 68, 0
16, 200880, Note_on_c, 14, 64, 90
16, 200880, Note_on_c, 14, 69, 90
16, 201119, Note_on_c, 14, 69, 0
16, 201119, Note_on_c, 14, 64, 0
16, 201119, End_track
17, 0, Start_track
17, 0, MIDI_port, 0
17, 0, Title_t, "Organo L"
17, 0, Program_c, 14, 19
17, 0, Control_c, 14, 7, 127
17, 0, Control_c, 14, 10, 83
17, 0, Note_on_c, 14, 45, 90
17, 47, Note_on_c, 14, 45, 0
17, 60, Note_on_c, 14, 57, 90
17, 107, Note_on_c, 14, 57, 0
17, 120, Note_on_c, 14, 57, 90
17, 167, Note_on_c, 14, 57, 0
17, 180, Note_on_c, 14, 57, 90
17, 227, Note_on_c, 14, 57, 0
17, 240, Note_on_c, 14, 57, 90
17, 287, Note_on_c, 14, 57, 0
17, 300, Note_on_c, 14, 57, 90
17, 347, Note_on_c, 14, 57, 0
17, 360, Note_on_c, 14, 57, 90
17, 407, Note_on_c, 14, 57, 0
17, 420, Note_on_c, 14, 45, 90
17, 467, Note_on_c, 14, 45, 0
17, 480, Note_on_c, 14, 45, 90
17, 527, Note_on_c, 14, 45, 0
17, 540, Note_on_c, 14, 49, 90
17, 587, Note_on_c, 14, 49, 0
17, 600, Note_on_c, 14, 52, 90
17, 647, Note_on_c, 14, 52, 0
17, 660, Note_on_c, 14, 40, 90
17, 707, Note_on_c, 14, 40, 0
17, 720, Note_on_c, 14, 45, 90
17, 767, Note_on_c, 14, 45, 0
17, 780, Note_on_c, 14, 57, 90
17, 827, Note_on_c, 14, 57, 0
17, 840, Note_on_c, 14, 57, 90
17, 887, Note_on_c, 14, 57, 0
17, 900, Note_on_c, 14, 57, 90
17, 947, Note_on_c, 14, 57, 0
17, 960, Note_on_c, 14, 57, 90
17, 1007, Note_on_c, 14, 57, 0
17, 1020, Note_on_c, 14, 57, 90
17, 1067, Note_on_c, 14, 57, 0
17, 1080, Note_on_c, 14, 57, 90
17, 1127, Note_on_c, 14, 57, 0
17, 1140, Note_on_c, 14, 45, 90
17, 1187, Note_on_c, 14, 45, 0
17, 1200, Note_on_c, 14, 45, 90
17, 1247, Note_on_c, 14, 45, 0
17, 1260, Note_on_c, 14, 49, 90
17, 1307, Note_on_c, 14, 49, 0
17, 1320, Note_on_c, 14, 52, 90
17, 1367, Note_on_c, 14, 52, 0
17, 1380, Note_on_c, 14, 40, 90
17, 1427, Note_on_c, 14, 40, 0
17, 1440, Note_on_c, 14, 45, 90
17, 1487, Note_on_c, 14, 45, 0
17, 1500, Note_on_c, 14, 57, 90
17, 1547, Note_on_c, 14, 57, 0
17, 1620, Note_on_c, 14, 49, 90
17, 1667, Note_on_c, 14, 49, 0
17, 1680, Note_on_c, 14, 45, 90
17, 1727, Note_on_c, 14, 45, 0
17, 1740, Note_on_c, 14, 49, 90
17, 1787, Note_on_c, 14, 49, 0
17, 1800, Note_on_c, 14, 50, 90
17, 1847, Note_on_c, 14, 50, 0
17, 1860, Note_on_c, 14, 62, 90
17, 1907, Note_on_c, 14, 62, 0
17, 1920, Note_on_c, 14, 57, 90
17, 1967, Note_on_c, 14, 57, 0
17, 1980, Note_on_c, 14, 54, 90
17, 2027, Note_on_c, 14, 54, 0
17, 2040, Note_on_c, 14, 50, 90
17, 2087, Note_on_c, 14, 50, 0
17, 2100, Note_on_c, 14, 49, 90
17, 2147, Note_on_c, 14, 49, 0
17, 2160, Note_on_c, 14, 51, 90
17, 2207, Note_on_c, 14, 51, 0
17, 2220, Note_on_c, 14, 47, 90
17, 2267, Note_on_c, 14, 47, 0
17, 2340, Note_on_c, 14, 47, 90
17, 2387, Note_on_c, 14, 47, 0
17, 2400, Note_on_c, 14, 51, 90
17, 2447, Note_on_c, 14, 51, 0
17, 2460, Note_on_c, 14, 47, 90
17, 2507, Note_on_c, 14, 47, 0
17, 2520, Note_on_c, 14, 52, 90
17, 2567, Note_on_c, 14, 52, 0
17, 2580, Note_on_c, 14, 64, 90
17, 2627, Note_on_c, 14, 64, 0
17, 2640, Note_on_c, 14, 59, 90
17, 2687, Note_on_c, 14, 59, 0
17, 2700, Note_on_c, 14, 56, 90
17, 2747, Note_on_c, 14, 56, 0
17, 2760, Note_on_c, 14, 52, 90
17, 2807, Note_on_c, 14, 52, 0
17, 2820, Note_on_c, 14, 47, 90
17, 2867, Note_on_c, 14, 47, 0
17, 2880, Note_on_c, 14, 40, 90
17, 2927, Note_on_c, 14, 40, 0
17, 2940, Note_on_c, 14, 52, 90
17, 2987, Note_on_c, 14, 52, 0
17, 3060, Note_on_c, 14, 56, 90
17, 3107, Note_on_c, 14, 56, 0
17, 3120, Note_on_c, 14, 59, 90
17, 3167, Note_on_c, 14, 59, 0
17, 3180, Note_on_c, 14, 62, 90
17, 3227, Note_on_c, 14, 62, 0
17, 3240, Note_on_c, 14, 61, 90
17, 3287, Note_on_c, 14, 61, 0
17, 3300, Note_on_c, 14, 57, 90
17, 3347, Note_on_c, 14, 57, 0
17, 3360, Note_on_c, 14, 61, 90
17, 3407, Note_on_c, 14, 61, 0
17, 3420, Note_on_c, 14, 57, 90
17, 3467, Note_on_c, 14, 57, 0
17, 3480, Note_on_c, 14, 61, 90
17, 3527, Note_on_c, 14, 61, 0
17, 3540, Note_on_c, 14, 57, 90
17, 3587, Note_on_c, 14, 57, 0
17, 3600, Note_on_c, 14, 62, 90
17, 3647, Note_on_c, 14, 62, 0
17, 3660, Note_on_c, 14, 54, 90
17, 3707, Note_on_c, 14, 54, 0
17, 3720, Note_on_c, 14, 54, 90
17, 3767, Note_on_c, 14, 54, 0
17, 3780, Note_on_c, 14, 50, 90
17, 3827, Note_on_c, 14, 50, 0
17, 3840, Note_on_c, 14, 50, 90
17, 3887, Note_on_c, 14, 50, 0
17, 3900, Note_on_c, 14, 57, 90
17, 3947, Note_on_c, 14, 57, 0
17, 3960, Note_on_c, 14, 57, 90
17, 4007, Note_on_c, 14, 57, 0
17, 4020, Note_on_c, 14, 45, 90
17, 4067, Note_on_c, 14, 45, 0
17, 4080, Note_on_c, 14, 45, 90
17, 4127, Note_on_c, 14, 45, 0
17, 4140, Note_on_c, 14, 42, 90
17, 4187, Note_on_c, 14, 42, 0
17, 4200, Note_on_c, 14, 42, 90
17, 4247, Note_on_c, 14, 42, 0
17, 4260, Note_on_c, 14, 47, 90
17, 4307, Note_on_c, 14, 47, 0
17, 4320, Note_on_c, 14, 47, 90
17, 4367, Note_on_c, 14, 47, 0
17, 4380, Note_on_c, 14, 52, 90
17, 4427, Note_on_c, 14, 52, 0
17, 4440, Note_on_c, 14, 52, 90
17, 4487, Note_on_c, 14, 52, 0
17, 4500, Note_on_c, 14, 44, 90
17, 4547, Note_on_c, 14, 44, 0
17, 4560, Note_on_c, 14, 44, 90
17, 4607, Note_on_c, 14, 44, 0
17, 4620, Note_on_c, 14, 40, 90
17, 4667, Note_on_c, 14, 40, 0
17, 4680, Note_on_c, 14, 45, 90
17, 4727, Note_on_c, 14, 45, 0
17, 4740, Note_on_c, 14, 44, 90
17, 4763, Note_on_c, 14, 44, 0
17, 4770, Note_on_c, 14, 45, 90
17, 4793, Note_on_c, 14, 45, 0
17, 4800, Note_on_c, 14, 47, 90
17, 4847, Note_on_c, 14, 47, 0
17, 4860, Note_on_c, 14, 45, 90
17, 4883, Note_on_c, 14, 45, 0
17, 4890, Note_on_c, 14, 47, 90
17, 4913, Note_on_c, 14, 47, 0
17, 4920, Note_on_c, 14, 49, 90
17, 4967, Note_on_c, 14, 49, 0
17, 4980, Note_on_c, 14, 47, 90
17, 5003, Note_on_c, 14, 47, 0
17, 5010, Note_on_c, 14, 49, 90
17, 5033, Note_on_c, 14, 49, 0
17, 5040, Note_on_c, 14, 50, 90
17, 5087, Note_on_c, 14, 50, 0
17, 5100, Note_on_c, 14, 49, 90
17, 5123, Note_on_c, 14, 49, 0
17, 5130, Note_on_c, 14, 50, 90
17, 5153, Note_on_c, 14, 50, 0
17, 5160, Note_on_c, 14, 52, 90
17, 5207, Note_on_c, 14, 52, 0
17, 5220, Note_on_c, 14, 50, 90
17, 5243, Note_on_c, 14, 50, 0
17, 5250, Note_on_c, 14, 52, 90
17, 5273, Note_on_c, 14, 52, 0
17, 5280, Note_on_c, 14, 54, 90
17, 5327, Note_on_c, 14, 54, 0
17, 5340, Note_on_c, 14, 52, 90
17, 5363, Note_on_c, 14, 52, 0
17, 5370, Note_on_c, 14, 54, 90
17, 5393, Note_on_c, 14, 54, 0
17, 5400, Note_on_c, 14, 56, 90
17, 5447, Note_on_c, 14, 56, 0
17, 5460, Note_on_c, 14, 52, 90
17, 5507, Note_on_c, 14, 52, 0
17, 5520, Note_on_c, 14, 57, 90
17, 5567, Note_on_c, 14, 57, 0
17, 5580, Note_on_c, 14, 49, 90
17, 5603, Note_on_c, 14, 49, 0
17, 5610, Note_on_c, 14, 50, 90
17, 5633, Note_on_c, 14, 50, 0
17, 5640, Note_on_c, 14, 52, 90
17, 5687, Note_on_c, 14, 52, 0
17, 5700, Note_on_c, 14, 40, 90
17, 5747, Note_on_c, 14, 40, 0
17, 5760, Note_on_c, 14, 45, 90
17, 5807, Note_on_c, 14, 45, 0
17, 5820, Note_on_c, 14, 57, 90
17, 5867, Note_on_c, 14, 57, 0
17, 5880, Note_on_c, 14, 57, 90
17, 5927, Note_on_c, 14, 57, 0
17, 5940, Note_on_c, 14, 57, 90
17, 5987, Note_on_c, 14, 57, 0
17, 6000, Note_on_c, 14, 57, 90
17, 6047, Note_on_c, 14, 57, 0
17, 6060, Note_on_c, 14, 57, 90
17, 6107, Note_on_c, 14, 57, 0
17, 6120, Note_on_c, 14, 57, 90
17, 6167, Note_on_c, 14, 57, 0
17, 6180, Note_on_c, 14, 45, 90
17, 6227, Note_on_c, 14, 45, 0
17, 6240, Note_on_c, 14, 57, 90
17, 6287, Note_on_c, 14, 57, 0
17, 6300, Note_on_c, 14, 55, 90
17, 6347, Note_on_c, 14, 55, 0
17, 6360, Note_on_c, 14, 54, 90
17, 6407, Note_on_c, 14, 54, 0
17, 6420, Note_on_c, 14, 50, 90
17, 6467, Note_on_c, 14, 50, 0
17, 6480, Note_on_c, 14, 57, 90
17, 6527, Note_on_c, 14, 57, 0
17, 6540, Note_on_c, 14, 45, 90
17, 6587, Note_on_c, 14, 45, 0
17, 6600, Note_on_c, 14, 45, 90
17, 6647, Note_on_c, 14, 45, 0
17, 6660, Note_on_c, 14, 45, 90
17, 6707, Note_on_c, 14, 45, 0
17, 6720, Note_on_c, 14, 45, 90
17, 6767, Note_on_c, 14, 45, 0
17, 6780, Note_on_c, 14, 45, 90
17, 6827, Note_on_c, 14, 45, 0
17, 6840, Note_on_c, 14, 45, 90
17, 6887, Note_on_c, 14, 45, 0
17, 6900, Note_on_c, 14, 57, 90
17, 6947, Note_on_c, 14, 57, 0
17, 6960, Note_on_c, 14, 45, 90
17, 7007, Note_on_c, 14, 45, 0
17, 7020, Note_on_c, 14, 49, 90
17, 7067, Note_on_c, 14, 49, 0
17, 7080, Note_on_c, 14, 52, 90
17, 7127, Note_on_c, 14, 52, 0
17, 7140, Note_on_c, 14, 40, 90
17, 7187, Note_on_c, 14, 40, 0
17, 7200, Note_on_c, 14, 45, 90
17, 7247, Note_on_c, 14, 45, 0
17, 7260, Note_on_c, 14, 57, 90
17, 7307, Note_on_c, 14, 57, 0
17, 7320, Note_on_c, 14, 57, 90
17, 7367, Note_on_c, 14, 57, 0
17, 7380, Note_on_c, 14, 45, 90
17, 7427, Note_on_c, 14, 45, 0
17, 7440, Note_on_c, 14, 44, 90
17, 7487, Note_on_c, 14, 44, 0
17, 7500, Note_on_c, 14, 45, 90
17, 7547, Note_on_c, 14, 45, 0
17, 7560, Note_on_c, 14, 52, 90
17, 7607, Note_on_c, 14, 52, 0
17, 7620, Note_on_c, 14, 40, 90
17, 7667, Note_on_c, 14, 40, 0
17, 7680, Note_on_c, 14, 40, 90
17, 7727, Note_on_c, 14, 40, 0
17, 7740, Note_on_c, 14, 40, 90
17, 7787, Note_on_c, 14, 40, 0
17, 7800, Note_on_c, 14, 40, 90
17, 7847, Note_on_c, 14, 40, 0
17, 7860, Note_on_c, 14, 40, 90
17, 7907, Note_on_c, 14, 40, 0
17, 7920, Note_on_c, 14, 40, 90
17, 7967, Note_on_c, 14, 40, 0
17, 7980, Note_on_c, 14, 52, 90
17, 8003, Note_on_c, 14, 52, 0
17, 8010, Note_on_c, 14, 54, 90
17, 8033, Note_on_c, 14, 54, 0
17, 8040, Note_on_c, 14, 56, 90
17, 8087, Note_on_c, 14, 56, 0
17, 8100, Note_on_c, 14, 52, 90
17, 8147, Note_on_c, 14, 52, 0
17, 8160, Note_on_c, 14, 57, 90
17, 8207, Note_on_c, 14, 57, 0
17, 8220, Note_on_c, 14, 45, 90
17, 8267, Note_on_c, 14, 45, 0
17, 8280, Note_on_c, 14, 52, 90
17, 8327, Note_on_c, 14, 52, 0
17, 8340, Note_on_c, 14, 40, 90
17, 8387, Note_on_c, 14, 40, 0
17, 8400, Note_on_c, 14, 40, 90
17, 8447, Note_on_c, 14, 40, 0
17, 8460, Note_on_c, 14, 40, 90
17, 8507, Note_on_c, 14, 40, 0
17, 8520, Note_on_c, 14, 40, 90
17, 8567, Note_on_c, 14, 40, 0
17, 8580, Note_on_c, 14, 40, 90
17, 8627, Note_on_c, 14, 40, 0
17, 8640, Note_on_c, 14, 40, 90
17, 8687, Note_on_c, 14, 40, 0
17, 8700, Note_on_c, 14, 52, 90
17, 8747, Note_on_c, 14, 52, 0
17, 8760, Note_on_c, 14, 52, 90
17, 8807, Note_on_c, 14, 52, 0
17, 8820, Note_on_c, 14, 56, 90
17, 8867, Note_on_c, 14, 56, 0
17, 8880, Note_on_c, 14, 59, 90
17, 8927, Note_on_c, 14, 59, 0
17, 8940, Note_on_c, 14, 47, 90
17, 8987, Note_on_c, 14, 47, 0
17, 9000, Note_on_c, 14, 52, 90
17, 9047, Note_on_c, 14, 52, 0
17, 9060, Note_on_c, 14, 40, 90
17, 9107, Note_on_c, 14, 40, 0
17, 9120, Note_on_c, 14, 40, 90
17, 9167, Note_on_c, 14, 40, 0
17, 9180, Note_on_c, 14, 50, 90
17, 9227, Note_on_c, 14, 50, 0
17, 9240, Note_on_c, 14, 49, 90
17, 9287, Note_on_c, 14, 49, 0
17, 9300, Note_on_c, 14, 52, 90
17, 9347, Note_on_c, 14, 52, 0
17, 9360, Note_on_c, 14, 54, 90
17, 9407, Note_on_c, 14, 54, 0
17, 9420, Note_on_c, 14, 42, 90
17, 9467, Note_on_c, 14, 42, 0
17, 9480, Note_on_c, 14, 42, 90
17, 9527, Note_on_c, 14, 42, 0
17, 9540, Note_on_c, 14, 54, 90
17, 9587, Note_on_c, 14, 54, 0
17, 9600, Note_on_c, 14, 52, 90
17, 9647, Note_on_c, 14, 52, 0
17, 9660, Note_on_c, 14, 50, 90
17, 9707, Note_on_c, 14, 50, 0
17, 9720, Note_on_c, 14, 49, 90
17, 9767, Note_on_c, 14, 49, 0
17, 9780, Note_on_c, 14, 61, 90
17, 9827, Note_on_c, 14, 61, 0
17, 9840, Note_on_c, 14, 59, 90
17, 9887, Note_on_c, 14, 59, 0
17, 9900, Note_on_c, 14, 57, 90
17, 9947, Note_on_c, 14, 57, 0
17, 9960, Note_on_c, 14, 56, 90
17, 10007, Note_on_c, 14, 56, 0
17, 10020, Note_on_c, 14, 54, 90
17, 10067, Note_on_c, 14, 54, 0
17, 10080, Note_on_c, 14, 52, 90
17, 10127, Note_on_c, 14, 52, 0
17, 10140, Note_on_c, 14, 40, 90
17, 10187, Note_on_c, 14, 40, 0
17, 10200, Note_on_c, 14, 52, 90
17, 10247, Note_on_c, 14, 52, 0
17, 10260, Note_on_c, 14, 54, 90
17, 10307, Note_on_c, 14, 54, 0
17, 10320, Note_on_c, 14, 49, 90
17, 10367, Note_on_c, 14, 49, 0
17, 10380, Note_on_c, 14, 52, 90
17, 10427, Note_on_c, 14, 52, 0
17, 10440, Note_on_c, 14, 57, 90
17, 10487, Note_on_c, 14, 57, 0
17, 10500, Note_on_c, 14, 45, 90
17, 10547, Note_on_c, 14, 45, 0
17, 10560, Note_on_c, 14, 45, 90
17, 10607, Note_on_c, 14, 45, 0
17, 10620, Note_on_c, 14, 49, 90
17, 10667, Note_on_c, 14, 49, 0
17, 10680, Note_on_c, 14, 52, 90
17, 10727, Note_on_c, 14, 52, 0
17, 10740, Note_on_c, 14, 40, 90
17, 10787, Note_on_c, 14, 40, 0
17, 10800, Note_on_c, 14, 45, 90
17, 10847, Note_on_c, 14, 45, 0
17, 10860, Note_on_c, 14, 57, 90
17, 10883, Note_on_c, 14, 57, 0
17, 10890, Note_on_c, 14, 56, 90
17, 10913, Note_on_c, 14, 56, 0
17, 10920, Note_on_c, 14, 57, 90
17, 10967, Note_on_c, 14, 57, 0
17, 10980, Note_on_c, 14, 49, 90
17, 11003, Note_on_c, 14, 49, 0
17, 11010, Note_on_c, 14, 47, 90
17, 11033, Note_on_c, 14, 47, 0
17, 11040, Note_on_c, 14, 49, 90
17, 11087, Note_on_c, 14, 49, 0
17, 11100, Note_on_c, 14, 45, 90
17, 11147, Note_on_c, 14, 45, 0
17, 11160, Note_on_c, 14, 50, 90
17, 11207, Note_on_c, 14, 50, 0
17, 11220, Note_on_c, 14, 49, 90
17, 11267, Note_on_c, 14, 49, 0
17, 11280, Note_on_c, 14, 47, 90
17, 11327, Note_on_c, 14, 47, 0
17, 11340, Note_on_c, 14, 45, 90
17, 11387, Note_on_c, 14, 45, 0
17, 11400, Note_on_c, 14, 44, 90
17, 11447, Note_on_c, 14, 44, 0
17, 11460, Note_on_c, 14, 45, 90
17, 11507, Note_on_c, 14, 45, 0
17, 11520, Note_on_c, 14, 40, 90
17, 11567, Note_on_c, 14, 40, 0
17, 11580, Note_on_c, 14, 52, 90
17, 11603, Note_on_c, 14, 52, 0
17, 11610, Note_on_c, 14, 54, 90
17, 11633, Note_on_c, 14, 54, 0
17, 11640, Note_on_c, 14, 56, 90
17, 11687, Note_on_c, 14, 56, 0
17, 11700, Note_on_c, 14, 59, 90
17, 11747, Note_on_c, 14, 59, 0
17, 11760, Note_on_c, 14, 56, 90
17, 11807, Note_on_c, 14, 56, 0
17, 11820, Note_on_c, 14, 52, 90
17, 11867, Note_on_c, 14, 52, 0
17, 11880, Note_on_c, 14, 57, 90
17, 11927, Note_on_c, 14, 57, 0
17, 11940, Note_on_c, 14, 56, 90
17, 11987, Note_on_c, 14, 56, 0
17, 12000, Note_on_c, 14, 54, 90
17, 12047, Note_on_c, 14, 54, 0
17, 12060, Note_on_c, 14, 52, 90
17, 12107, Note_on_c, 14, 52, 0
17, 12120, Note_on_c, 14, 51, 90
17, 12167, Note_on_c, 14, 51, 0
17, 12180, Note_on_c, 14, 52, 90
17, 12227, Note_on_c, 14, 52, 0
17, 12240, Note_on_c, 14, 59, 90
17, 12287, Note_on_c, 14, 59, 0
17, 12300, Note_on_c, 14, 47, 90
17, 12323, Note_on_c, 14, 47, 0
17, 12330, Note_on_c, 14, 49, 90
17, 12353, Note_on_c, 14, 49, 0
17, 12360, Note_on_c, 14, 51, 90
17, 12407, Note_on_c, 14, 51, 0
17, 12420, Note_on_c, 14, 54, 90
17, 12467, Note_on_c, 14, 54, 0
17, 12480, Note_on_c, 14, 51, 90
17, 12527, Note_on_c, 14, 51, 0
17, 12540, Note_on_c, 14, 47, 90
17, 12587, Note_on_c, 14, 47, 0
17, 12600, Note_on_c, 14, 52, 90
17, 12647, Note_on_c, 14, 52, 0
17, 12660, Note_on_c, 14, 40, 90
17, 12683, Note_on_c, 14, 40, 0
17, 12690, Note_on_c, 14, 42, 90
17, 12713, Note_on_c, 14, 42, 0
17, 12720, Note_on_c, 14, 44, 90
17, 12767, Note_on_c, 14, 44, 0
17, 12780, Note_on_c, 14, 47, 90
17, 12827, Note_on_c, 14, 47, 0
17, 12840, Note_on_c, 14, 44, 90
17, 12887, Note_on_c, 14, 44, 0
17, 12900, Note_on_c, 14, 40, 90
17, 12947, Note_on_c, 14, 40, 0
17, 12960, Note_on_c, 14, 45, 90
17, 13007, Note_on_c, 14, 45, 0
17, 13020, Note_on_c, 14, 57, 90
17, 13043, Note_on_c, 14, 57, 0
17, 13050, Note_on_c, 14, 59, 90
17, 13073, Note_on_c, 14, 59, 0
17, 13080, Note_on_c, 14, 61, 90
17, 13127, Note_on_c, 14, 61, 0
17, 13140, Note_on_c, 14, 64, 90
17, 13187, Note_on_c, 14, 64, 0
17, 13200, Note_on_c, 14, 61, 90
17, 13247, Note_on_c, 14, 61, 0
17, 13260, Note_on_c, 14, 57, 90
17, 13307, Note_on_c, 14, 57, 0
17, 13320, Note_on_c, 14, 62, 90
17, 13367, Note_on_c, 14, 62, 0
17, 13380, Note_on_c, 14, 61, 90
17, 13427, Note_on_c, 14, 61, 0
17, 13440, Note_on_c, 14, 59, 90
17, 13487, Note_on_c, 14, 59, 0
17, 13500, Note_on_c, 14, 57, 90
17, 13547, Note_on_c, 14, 57, 0
17, 13560, Note_on_c, 14, 56, 90
17, 13607, Note_on_c, 14, 56, 0
17, 13620, Note_on_c, 14, 57, 90
17, 13667, Note_on_c, 14, 57, 0
17, 13680, Note_on_c, 14, 64, 90
17, 13727, Note_on_c, 14, 64, 0
17, 13740, Note_on_c, 14, 52, 90
17, 13763, Note_on_c, 14, 52, 0
17, 13770, Note_on_c, 14, 54, 90
17, 13793, Note_on_c, 14, 54, 0
17, 13800, Note_on_c, 14, 56, 90
17, 13847, Note_on_c, 14, 56, 0
17, 13860, Note_on_c, 14, 59, 90
17, 13907, Note_on_c, 14, 59, 0
17, 13920, Note_on_c, 14, 56, 90
17, 13967, Note_on_c, 14, 56, 0
17, 13980, Note_on_c, 14, 52, 90
17, 14027, Note_on_c, 14, 52, 0
17, 14040, Note_on_c, 14, 57, 90
17, 14087, Note_on_c, 14, 57, 0
17, 14100, Note_on_c, 14, 56, 90
17, 14147, Note_on_c, 14, 56, 0
17, 14160, Note_on_c, 14, 54, 90
17, 14207, Note_on_c, 14, 54, 0
17, 14220, Note_on_c, 14, 52, 90
17, 14267, Note_on_c, 14, 52, 0
17, 14280, Note_on_c, 14, 51, 90
17, 14327, Note_on_c, 14, 51, 0
17, 14340, Note_on_c, 14, 52, 90
17, 14387, Note_on_c, 14, 52, 0
17, 14400, Note_on_c, 14, 59, 90
17, 14447, Note_on_c, 14, 59, 0
17, 14460, Note_on_c, 14, 47, 90
17, 14483, Note_on_c, 14, 47, 0
17, 14490, Note_on_c, 14, 49, 90
17, 14513, Note_on_c, 14, 49, 0
17, 14520, Note_on_c, 14, 51, 90
17, 14567, Note_on_c, 14, 51, 0
17, 14580, Note_on_c, 14, 54, 90
17, 14627, Note_on_c, 14, 54, 0
17, 14640, Note_on_c, 14, 51, 90
17, 14687, Note_on_c, 14, 51, 0
17, 14700, Note_on_c, 14, 47, 90
17, 14747, Note_on_c, 14, 47, 0
17, 14760, Note_on_c, 14, 52, 90
17, 14807, Note_on_c, 14, 52, 0
17, 14820, Note_on_c, 14, 40, 90
17, 14867, Note_on_c, 14, 40, 0
17, 14940, Note_on_c, 14, 44, 90
17, 14987, Note_on_c, 14, 44, 0
17, 15000, Note_on_c, 14, 40, 90
17, 15047, Note_on_c, 14, 40, 0
17, 15060, Note_on_c, 14, 44, 90
17, 15107, Note_on_c, 14, 44, 0
17, 15120, Note_on_c, 14, 45, 90
17, 15167, Note_on_c, 14, 45, 0
17, 15180, Note_on_c, 14, 57, 90
17, 15227, Note_on_c, 14, 57, 0
17, 15240, Note_on_c, 14, 52, 90
17, 15287, Note_on_c, 14, 52, 0
17, 15300, Note_on_c, 14, 49, 90
17, 15347, Note_on_c, 14, 49, 0
17, 15360, Note_on_c, 14, 45, 90
17, 15407, Note_on_c, 14, 45, 0
17, 15420, Note_on_c, 14, 44, 90
17, 15467, Note_on_c, 14, 44, 0
17, 15480, Note_on_c, 14, 46, 90
17, 15527, Note_on_c, 14, 46, 0
17, 15540, Note_on_c, 14, 42, 90
17, 15587, Note_on_c, 14, 42, 0
17, 15660, Note_on_c, 14, 42, 90
17, 15707, Note_on_c, 14, 42, 0
17, 15720, Note_on_c, 14, 46, 90
17, 15767, Note_on_c, 14, 46, 0
17, 15780, Note_on_c, 14, 42, 90
17, 15827, Note_on_c, 14, 42, 0
17, 15840, Note_on_c, 14, 47, 90
17, 15887, Note_on_c, 14, 47, 0
17, 15900, Note_on_c, 14, 59, 90
17, 15947, Note_on_c, 14, 59, 0
17, 15960, Note_on_c, 14, 54, 90
17, 16007, Note_on_c, 14, 54, 0
17, 16020, Note_on_c, 14, 51, 90
17, 16067, Note_on_c, 14, 51, 0
17, 16080, Note_on_c, 14, 47, 90
17, 16127, Note_on_c, 14, 47, 0
17, 16140, Note_on_c, 14, 54, 90
17, 16187, Note_on_c, 14, 54, 0
17, 16200, Note_on_c, 14, 59, 90
17, 16247, Note_on_c, 14, 59, 0
17, 16260, Note_on_c, 14, 47, 90
17, 16307, Note_on_c, 14, 47, 0
17, 16380, Note_on_c, 14, 51, 90
17, 16427, Note_on_c, 14, 51, 0
17, 16440, Note_on_c, 14, 54, 90
17, 16487, Note_on_c, 14, 54, 0
17, 16500, Note_on_c, 14, 57, 90
17, 16547, Note_on_c, 14, 57, 0
17, 16560, Note_on_c, 14, 56, 90
17, 16607, Note_on_c, 14, 56, 0
17, 16620, Note_on_c, 14, 52, 90
17, 16667, Note_on_c, 14, 52, 0
17, 16680, Note_on_c, 14, 56, 90
17, 16727, Note_on_c, 14, 56, 0
17, 16740, Note_on_c, 14, 52, 90
17, 16787, Note_on_c, 14, 52, 0
17, 16800, Note_on_c, 14, 56, 90
17, 16847, Note_on_c, 14, 56, 0
17, 16860, Note_on_c, 14, 52, 90
17, 16907, Note_on_c, 14, 52, 0
17, 16920, Note_on_c, 14, 57, 90
17, 16967, Note_on_c, 14, 57, 0
17, 16980, Note_on_c, 14, 61, 90
17, 17027, Note_on_c, 14, 61, 0
17, 17040, Note_on_c, 14, 61, 90
17, 17087, Note_on_c, 14, 61, 0
17, 17100, Note_on_c, 14, 57, 90
17, 17147, Note_on_c, 14, 57, 0
17, 17160, Note_on_c, 14, 57, 90
17, 17207, Note_on_c, 14, 57, 0
17, 17220, Note_on_c, 14, 64, 90
17, 17267, Note_on_c, 14, 64, 0
17, 17280, Note_on_c, 14, 64, 90
17, 17327, Note_on_c, 14, 64, 0
17, 17340, Note_on_c, 14, 52, 90
17, 17387, Note_on_c, 14, 52, 0
17, 17400, Note_on_c, 14, 52, 90
17, 17447, Note_on_c, 14, 52, 0
17, 17460, Note_on_c, 14, 49, 90
17, 17507, Note_on_c, 14, 49, 0
17, 17520, Note_on_c, 14, 49, 90
17, 17567, Note_on_c, 14, 49, 0
17, 17580, Note_on_c, 14, 54, 90
17, 17627, Note_on_c, 14, 54, 0
17, 17640, Note_on_c, 14, 54, 90
17, 17687, Note_on_c, 14, 54, 0
17, 17700, Note_on_c, 14, 59, 90
17, 17747, Note_on_c, 14, 59, 0
17, 17760, Note_on_c, 14, 59, 90
17, 17807, Note_on_c, 14, 59, 0
17, 17820, Note_on_c, 14, 51, 90
17, 17867, Note_on_c, 14, 51, 0
17, 17880, Note_on_c, 14, 51, 90
17, 17927, Note_on_c, 14, 51, 0
17, 17940, Note_on_c, 14, 47, 90
17, 17987, Note_on_c, 14, 47, 0
17, 18000, Note_on_c, 14, 52, 90
17, 18047, Note_on_c, 14, 52, 0
17, 18060, Note_on_c, 14, 51, 90
17, 18083, Note_on_c, 14, 51, 0
17, 18090, Note_on_c, 14, 52, 90
17, 18113, Note_on_c, 14, 52, 0
17, 18120, Note_on_c, 14, 54, 90
17, 18167, Note_on_c, 14, 54, 0
17, 18180, Note_on_c, 14, 52, 90
17, 18203, Note_on_c, 14, 52, 0
17, 18210, Note_on_c, 14, 54, 90
17, 18233, Note_on_c, 14, 54, 0
17, 18240, Note_on_c, 14, 56, 90
17, 18287, Note_on_c, 14, 56, 0
17, 18300, Note_on_c, 14, 54, 90
17, 18323, Note_on_c, 14, 54, 0
17, 18330, Note_on_c, 14, 56, 90
17, 18353, Note_on_c, 14, 56, 0
17, 18360, Note_on_c, 14, 57, 90
17, 18407, Note_on_c, 14, 57, 0
17, 18420, Note_on_c, 14, 56, 90
17, 18443, Note_on_c, 14, 56, 0
17, 18450, Note_on_c, 14, 57, 90
17, 18473, Note_on_c, 14, 57, 0
17, 18480, Note_on_c, 14, 59, 90
17, 18527, Note_on_c, 14, 59, 0
17, 18540, Note_on_c, 14, 57, 90
17, 18563, Note_on_c, 14, 57, 0
17, 18570, Note_on_c, 14, 59, 90
17, 18593, Note_on_c, 14, 59, 0
17, 18600, Note_on_c, 14, 61, 90
17, 18647, Note_on_c, 14, 61, 0
17, 18660, Note_on_c, 14, 59, 90
17, 18683, Note_on_c, 14, 59, 0
17, 18690, Note_on_c, 14, 61, 90
17, 18713, Note_on_c, 14, 61, 0
17, 18720, Note_on_c, 14, 63, 90
17, 18767, Note_on_c, 14, 63, 0
17, 18780, Note_on_c, 14, 59, 90
17, 18827, Note_on_c, 14, 59, 0
17, 18840, Note_on_c, 14, 64, 90
17, 18887, Note_on_c, 14, 64, 0
17, 18900, Note_on_c, 14, 56, 90
17, 18923, Note_on_c, 14, 56, 0
17, 18930, Note_on_c, 14, 57, 90
17, 18953, Note_on_c, 14, 57, 0
17, 18960, Note_on_c, 14, 59, 90
17, 19007, Note_on_c, 14, 59, 0
17, 19020, Note_on_c, 14, 47, 90
17, 19067, Note_on_c, 14, 47, 0
17, 19080, Note_on_c, 14, 52, 90
17, 19127, Note_on_c, 14, 52, 0
17, 19140, Note_on_c, 14, 40, 90
17, 19187, Note_on_c, 14, 40, 0
17, 19200, Note_on_c, 14, 40, 90
17, 19247, Note_on_c, 14, 40, 0
17, 19260, Note_on_c, 14, 40, 90
17, 19307, Note_on_c, 14, 40, 0
17, 19320, Note_on_c, 14, 40, 90
17, 19367, Note_on_c, 14, 40, 0
17, 19380, Note_on_c, 14, 40, 90
17, 19427, Note_on_c, 14, 40, 0
17, 19440, Note_on_c, 14, 40, 90
17, 19487, Note_on_c, 14, 40, 0
17, 19500, Note_on_c, 14, 52, 90
17, 19547, Note_on_c, 14, 52, 0
17, 19560, Note_on_c, 14, 52, 90
17, 19607, Note_on_c, 14, 52, 0
17, 19620, Note_on_c, 14, 56, 90
17, 19667, Note_on_c, 14, 56, 0
17, 19680, Note_on_c, 14, 59, 90
17, 19727, Note_on_c, 14, 59, 0
17, 19740, Note_on_c, 14, 47, 90
17, 19787, Note_on_c, 14, 47, 0
17, 19800, Note_on_c, 14, 52, 90
17, 19847, Note_on_c, 14, 52, 0
17, 19860, Note_on_c, 14, 40, 90
17, 19907, Note_on_c, 14, 40, 0
17, 19920, Note_on_c, 14, 40, 90
17, 19967, Note_on_c, 14, 40, 0
17, 19980, Note_on_c, 14, 40, 90
17, 20027, Note_on_c, 14, 40, 0
17, 20040, Note_on_c, 14, 40, 90
17, 20087, Note_on_c, 14, 40, 0
17, 20100, Note_on_c, 14, 40, 90
17, 20147, Note_on_c, 14, 40, 0
17, 20160, Note_on_c, 14, 40, 90
17, 20207, Note_on_c, 14, 40, 0
17, 20220, Note_on_c, 14, 52, 90
17, 20267, Note_on_c, 14, 52, 0
17, 20280, Note_on_c, 14, 52, 90
17, 20327, Note_on_c, 14, 52, 0
17, 20340, Note_on_c, 14, 56, 90
17, 20387, Note_on_c, 14, 56, 0
17, 20400, Note_on_c, 14, 59, 90
17, 20447, Note_on_c, 14, 59, 0
17, 20460, Note_on_c, 14, 47, 90
17, 20507, Note_on_c, 14, 47, 0
17, 20520, Note_on_c, 14, 52, 90
17, 20567, Note_on_c, 14, 52, 0
17, 20580, Note_on_c, 14, 40, 90
17, 20627, Note_on_c, 14, 40, 0
17, 20640, Note_on_c, 14, 40, 90
17, 20687, Note_on_c, 14, 40, 0
17, 20700, Note_on_c, 14, 52, 90
17, 20723, Note_on_c, 14, 52, 0
17, 20730, Note_on_c, 14, 54, 90
17, 20753, Note_on_c, 14, 54, 0
17, 20760, Note_on_c, 14, 52, 90
17, 20807, Note_on_c, 14, 52, 0
17, 20820, Note_on_c, 14, 50, 90
17, 20867, Note_on_c, 14, 50, 0
17, 20880, Note_on_c, 14, 49, 90
17, 20927, Note_on_c, 14, 49, 0
17, 20940, Note_on_c, 14, 61, 90
17, 20987, Note_on_c, 14, 61, 0
17, 21000, Note_on_c, 14, 61, 90
17, 21047, Note_on_c, 14, 61, 0
17, 21060, Note_on_c, 14, 49, 90
17, 21083, Note_on_c, 14, 49, 0
17, 21090, Note_on_c, 14, 47, 90
17, 21113, Note_on_c, 14, 47, 0
17, 21120, Note_on_c, 14, 49, 90
17, 21167, Note_on_c, 14, 49, 0
17, 21180, Note_on_c, 14, 45, 90
17, 21227, Note_on_c, 14, 45, 0
17, 21240, Note_on_c, 14, 44, 90
17, 21287, Note_on_c, 14, 44, 0
17, 21300, Note_on_c, 14, 40, 90
17, 21347, Note_on_c, 14, 40, 0
17, 21360, Note_on_c, 14, 40, 90
17, 21407, Note_on_c, 14, 40, 0
17, 21420, Note_on_c, 14, 44, 90
17, 21443, Note_on_c, 14, 44, 0
17, 21450, Note_on_c, 14, 42, 90
17, 21473, Note_on_c, 14, 42, 0
17, 21480, Note_on_c, 14, 44, 90
17, 21527, Note_on_c, 14, 44, 0
17, 21540, Note_on_c, 14, 40, 90
17, 21587, Note_on_c, 14, 40, 0
17, 21600, Note_on_c, 14, 45, 90
17, 21647, Note_on_c, 14, 45, 0
17, 21660, Note_on_c, 14, 57, 90
17, 21707, Note_on_c, 14, 57, 0
17, 21720, Note_on_c, 14, 57, 90
17, 21767, Note_on_c, 14, 57, 0
17, 21780, Note_on_c, 14, 57, 90
17, 21827, Note_on_c, 14, 57, 0
17, 21840, Note_on_c, 14, 57, 90
17, 21887, Note_on_c, 14, 57, 0
17, 21900, Note_on_c, 14, 57, 90
17, 21947, Note_on_c, 14, 57, 0
17, 21960, Note_on_c, 14, 57, 90
17, 22007, Note_on_c, 14, 57, 0
17, 22020, Note_on_c, 14, 45, 90
17, 22067, Note_on_c, 14, 45, 0
17, 22080, Note_on_c, 14, 45, 90
17, 22127, Note_on_c, 14, 45, 0
17, 22140, Note_on_c, 14, 49, 90
17, 22187, Note_on_c, 14, 49, 0
17, 22200, Note_on_c, 14, 52, 90
17, 22247, Note_on_c, 14, 52, 0
17, 22260, Note_on_c, 14, 40, 90
17, 22307, Note_on_c, 14, 40, 0
17, 22320, Note_on_c, 14, 45, 90
17, 22367, Note_on_c, 14, 45, 0
17, 22380, Note_on_c, 14, 57, 90
17, 22427, Note_on_c, 14, 57, 0
17, 22440, Note_on_c, 14, 57, 90
17, 22487, Note_on_c, 14, 57, 0
17, 22500, Note_on_c, 14, 57, 90
17, 22547, Note_on_c, 14, 57, 0
17, 22560, Note_on_c, 14, 57, 90
17, 22607, Note_on_c, 14, 57, 0
17, 22620, Note_on_c, 14, 57, 90
17, 22667, Note_on_c, 14, 57, 0
17, 22680, Note_on_c, 14, 57, 90
17, 22727, Note_on_c, 14, 57, 0
17, 22740, Note_on_c, 14, 45, 90
17, 22787, Note_on_c, 14, 45, 0
17, 22800, Note_on_c, 14, 45, 90
17, 22847, Note_on_c, 14, 45, 0
17, 22860, Note_on_c, 14, 49, 90
17, 22907, Note_on_c, 14, 49, 0
17, 22920, Note_on_c, 14, 52, 90
17, 22967, Note_on_c, 14, 52, 0
17, 22980, Note_on_c, 14, 40, 90
17, 23027, Note_on_c, 14, 40, 0
17, 23040, Note_on_c, 14, 45, 90
17, 23087, Note_on_c, 14, 45, 0
17, 23100, Note_on_c, 14, 57, 90
17, 23147, Note_on_c, 14, 57, 0
17, 23160, Note_on_c, 14, 57, 90
17, 23207, Note_on_c, 14, 57, 0
17, 23220, Note_on_c, 14, 45, 90
17, 23243, Note_on_c, 14, 45, 0
17, 23250, Note_on_c, 14, 47, 90
17, 23273, Note_on_c, 14, 47, 0
17, 23280, Note_on_c, 14, 45, 90
17, 23327, Note_on_c, 14, 45, 0
17, 23340, Note_on_c, 14, 43, 90
17, 23387, Note_on_c, 14, 43, 0
17, 23400, Note_on_c, 14, 42, 90
17, 23447, Note_on_c, 14, 42, 0
17, 23460, Note_on_c, 14, 54, 90
17, 23507, Note_on_c, 14, 54, 0
17, 23520, Note_on_c, 14, 54, 90
17, 23567, Note_on_c, 14, 54, 0
17, 23580, Note_on_c, 14, 42, 90
17, 23603, Note_on_c, 14, 42, 0
17, 23610, Note_on_c, 14, 40, 90
17, 23633, Note_on_c, 14, 40, 0
17, 23640, Note_on_c, 14, 42, 90
17, 23687, Note_on_c, 14, 42, 0
17, 23700, Note_on_c, 14, 50, 90
17, 23747, Note_on_c, 14, 50, 0
17, 23760, Note_on_c, 14, 49, 90
17, 23807, Note_on_c, 14, 49, 0
17, 23820, Note_on_c, 14, 57, 90
17, 23867, Note_on_c, 14, 57, 0
17, 23880, Note_on_c, 14, 57, 90
17, 23927, Note_on_c, 14, 57, 0
17, 23940, Note_on_c, 14, 49, 90
17, 23963, Note_on_c, 14, 49, 0
17, 23970, Note_on_c, 14, 47, 90
17, 23993, Note_on_c, 14, 47, 0
17, 24000, Note_on_c, 14, 49, 90
17, 24047, Note_on_c, 14, 49, 0
17, 24060, Note_on_c, 14, 45, 90
17, 24107, Note_on_c, 14, 45, 0
17, 24120, Note_on_c, 14, 50, 90
17, 24167, Note_on_c, 14, 50, 0
17, 24180, Note_on_c, 14, 62, 90
17, 24227, Note_on_c, 14, 62, 0
17, 24240, Note_on_c, 14, 62, 90
17, 24287, Note_on_c, 14, 62, 0
17, 24300, Note_on_c, 14, 62, 90
17, 24347, Note_on_c, 14, 62, 0
17, 24360, Note_on_c, 14, 62, 90
17, 24407, Note_on_c, 14, 62, 0
17, 24420, Note_on_c, 14, 62, 90
17, 24467, Note_on_c, 14, 62, 0
17, 24480, Note_on_c, 14, 50, 90
17, 24527, Note_on_c, 14, 50, 0
17, 24540, Note_on_c, 14, 62, 90
17, 24587, Note_on_c, 14, 62, 0
17, 24600, Note_on_c, 14, 62, 90
17, 24647, Note_on_c, 14, 62, 0
17, 24660, Note_on_c, 14, 50, 90
17, 24707, Note_on_c, 14, 50, 0
17, 24720, Note_on_c, 14, 49, 90
17, 24767, Note_on_c, 14, 49, 0
17, 24780, Note_on_c, 14, 47, 90
17, 24827, Note_on_c, 14, 47, 0
17, 24840, Note_on_c, 14, 49, 90
17, 24887, Note_on_c, 14, 49, 0
17, 24900, Note_on_c, 14, 61, 90
17, 24947, Note_on_c, 14, 61, 0
17, 24960, Note_on_c, 14, 61, 90
17, 25007, Note_on_c, 14, 61, 0
17, 25020, Note_on_c, 14, 61, 90
17, 25067, Note_on_c, 14, 61, 0
17, 25080, Note_on_c, 14, 61, 90
17, 25127, Note_on_c, 14, 61, 0
17, 25140, Note_on_c, 14, 61, 90
17, 25187, Note_on_c, 14, 61, 0
17, 25200, Note_on_c, 14, 49, 90
17, 25247, Note_on_c, 14, 49, 0
17, 25260, Note_on_c, 14, 61, 90
17, 25307, Note_on_c, 14, 61, 0
17, 25320, Note_on_c, 14, 61, 90
17, 25367, Note_on_c, 14, 61, 0
17, 25380, Note_on_c, 14, 49, 90
17, 25427, Note_on_c, 14, 49, 0
17, 25440, Note_on_c, 14, 47, 90
17, 25487, Note_on_c, 14, 47, 0
17, 25500, Note_on_c, 14, 45, 90
17, 25547, Note_on_c, 14, 45, 0
17, 25560, Note_on_c, 14, 47, 90
17, 25607, Note_on_c, 14, 47, 0
17, 25620, Note_on_c, 14, 59, 90
17, 25667, Note_on_c, 14, 59, 0
17, 25680, Note_on_c, 14, 59, 90
17, 25727, Note_on_c, 14, 59, 0
17, 25740, Note_on_c, 14, 45, 90
17, 25787, Note_on_c, 14, 45, 0
17, 25800, Note_on_c, 14, 44, 90
17, 25847, Note_on_c, 14, 44, 0
17, 25860, Note_on_c, 14, 42, 90
17, 25907, Note_on_c, 14, 42, 0
17, 25920, Note_on_c, 14, 44, 90
17, 25967, Note_on_c, 14, 44, 0
17, 25980, Note_on_c, 14, 56, 90
17, 26027, Note_on_c, 14, 56, 0
17, 26040, Note_on_c, 14, 56, 90
17, 26087, Note_on_c, 14, 56, 0
17, 26100, Note_on_c, 14, 44, 90
17, 26147, Note_on_c, 14, 44, 0
17, 26160, Note_on_c, 14, 42, 90
17, 26207, Note_on_c, 14, 42, 0
17, 26220, Note_on_c, 14, 40, 90
17, 26267, Note_on_c, 14, 40, 0
17, 26280, Note_on_c, 14, 45, 90
17, 26327, Note_on_c, 14, 45, 0
17, 26340, Note_on_c, 14, 54, 90
17, 26387, Note_on_c, 14, 54, 0
17, 26400, Note_on_c, 14, 49, 90
17, 26447, Note_on_c, 14, 49, 0
17, 26460, Note_on_c, 14, 47, 90
17, 26507, Note_on_c, 14, 47, 0
17, 26520, Note_on_c, 14, 49, 90
17, 26567, Note_on_c, 14, 49, 0
17, 26580, Note_on_c, 14, 50, 90
17, 26627, Note_on_c, 14, 50, 0
17, 26640, Note_on_c, 14, 52, 90
17, 26687, Note_on_c, 14, 52, 0
17, 26700, Note_on_c, 14, 40, 90
17, 26723, Note_on_c, 14, 40, 0
17, 26730, Note_on_c, 14, 38, 90
17, 26753, Note_on_c, 14, 38, 0
17, 26760, Note_on_c, 14, 40, 90
17, 26807, Note_on_c, 14, 40, 0
17, 26820, Note_on_c, 14, 44, 90
17, 26843, Note_on_c, 14, 44, 0
17, 26850, Note_on_c, 14, 42, 90
17, 26873, Note_on_c, 14, 42, 0
17, 26880, Note_on_c, 14, 44, 90
17, 26927, Note_on_c, 14, 44, 0
17, 26940, Note_on_c, 14, 40, 90
17, 26987, Note_on_c, 14, 40, 0
17, 27000, Note_on_c, 14, 45, 90
17, 27047, Note_on_c, 14, 45, 0
17, 27060, Note_on_c, 14, 44, 90
17, 27107, Note_on_c, 14, 44, 0
17, 27120, Note_on_c, 14, 42, 90
17, 27167, Note_on_c, 14, 42, 0
17, 27180, Note_on_c, 14, 44, 90
17, 27227, Note_on_c, 14, 44, 0
17, 27240, Note_on_c, 14, 45, 90
17, 27287, Note_on_c, 14, 45, 0
17, 27300, Note_on_c, 14, 49, 90
17, 27347, Note_on_c, 14, 49, 0
17, 27360, Note_on_c, 14, 50, 90
17, 27407, Note_on_c, 14, 50, 0
17, 27420, Note_on_c, 14, 49, 90
17, 27467, Note_on_c, 14, 49, 0
17, 27480, Note_on_c, 14, 47, 90
17, 27527, Note_on_c, 14, 47, 0
17, 27540, Note_on_c, 14, 44, 90
17, 27587, Note_on_c, 14, 44, 0
17, 27600, Note_on_c, 14, 49, 90
17, 27647, Note_on_c, 14, 49, 0
17, 27660, Note_on_c, 14, 45, 90
17, 27707, Note_on_c, 14, 45, 0
17, 27720, Note_on_c, 14, 54, 90
17, 27767, Note_on_c, 14, 54, 0
17, 27780, Note_on_c, 14, 50, 90
17, 27827, Note_on_c, 14, 50, 0
17, 27840, Note_on_c, 14, 47, 90
17, 27887, Note_on_c, 14, 47, 0
17, 27900, Note_on_c, 14, 42, 90
17, 27947, Note_on_c, 14, 42, 0
17, 27960, Note_on_c, 14, 44, 90
17, 28007, Note_on_c, 14, 44, 0
17, 28020, Note_on_c, 14, 45, 90
17, 28067, Note_on_c, 14, 45, 0
17, 28080, Note_on_c, 14, 40, 90
17, 28127, Note_on_c, 14, 40, 0
17, 28140, Note_on_c, 14, 52, 90
17, 28163, Note_on_c, 14, 52, 0
17, 28170, Note_on_c, 14, 54, 90
17, 28193, Note_on_c, 14, 54, 0
17, 28200, Note_on_c, 14, 56, 90
17, 28247, Note_on_c, 14, 56, 0
17, 28260, Note_on_c, 14, 59, 90
17, 28307, Note_on_c, 14, 59, 0
17, 28320, Note_on_c, 14, 56, 90
17, 28367, Note_on_c, 14, 56, 0
17, 28380, Note_on_c, 14, 52, 90
17, 28427, Note_on_c, 14, 52, 0
17, 28440, Note_on_c, 14, 57, 90
17, 28487, Note_on_c, 14, 57, 0
17, 28500, Note_on_c, 14, 45, 90
17, 28523, Note_on_c, 14, 45, 0
17, 28530, Note_on_c, 14, 47, 90
17, 28553, Note_on_c, 14, 47, 0
17, 28560, Note_on_c, 14, 49, 90
17, 28607, Note_on_c, 14, 49, 0
17, 28620, Note_on_c, 14, 52, 90
17, 28667, Note_on_c, 14, 52, 0
17, 28680, Note_on_c, 14, 49, 90
17, 28727, Note_on_c, 14, 49, 0
17, 28740, Note_on_c, 14, 45, 90
17, 28787, Note_on_c, 14, 45, 0
17, 28800, Note_on_c, 14, 38, 90
17, 28847, Note_on_c, 14, 38, 0
17, 28860, Note_on_c, 14, 50, 90
17, 28883, Note_on_c, 14, 50, 0
17, 28890, Note_on_c, 14, 52, 90
17, 28913, Note_on_c, 14, 52, 0
17, 28920, Note_on_c, 14, 54, 90
17, 28967, Note_on_c, 14, 54, 0
17, 28980, Note_on_c, 14, 57, 90
17, 29027, Note_on_c, 14, 57, 0
17, 29040, Note_on_c, 14, 54, 90
17, 29087, Note_on_c, 14, 54, 0
17, 29100, Note_on_c, 14, 50, 90
17, 29147, Note_on_c, 14, 50, 0
17, 29160, Note_on_c, 14, 55, 90
17, 29207, Note_on_c, 14, 55, 0
17, 29220, Note_on_c, 14, 54, 90
17, 29267, Note_on_c, 14, 54, 0
17, 29280, Note_on_c, 14, 52, 90
17, 29327, Note_on_c, 14, 52, 0
17, 29340, Note_on_c, 14, 50, 90
17, 29387, Note_on_c, 14, 50, 0
17, 29400, Note_on_c, 14, 49, 90
17, 29447, Note_on_c, 14, 49, 0
17, 29460, Note_on_c, 14, 50, 90
17, 29507, Note_on_c, 14, 50, 0
17, 29520, Note_on_c, 14, 57, 90
17, 29567, Note_on_c, 14, 57, 0
17, 29580, Note_on_c, 14, 45, 90
17, 29603, Note_on_c, 14, 45, 0
17, 29610, Note_on_c, 14, 47, 90
17, 29633, Note_on_c, 14, 47, 0
17, 29640, Note_on_c, 14, 49, 90
17, 29687, Note_on_c, 14, 49, 0
17, 29700, Note_on_c, 14, 52, 90
17, 29747, Note_on_c, 14, 52, 0
17, 29760, Note_on_c, 14, 49, 90
17, 29807, Note_on_c, 14, 49, 0
17, 29820, Note_on_c, 14, 45, 90
17, 29867, Note_on_c, 14, 45, 0
17, 29880, Note_on_c, 14, 50, 90
17, 29927, Note_on_c, 14, 50, 0
17, 29940, Note_on_c, 14, 49, 90
17, 29987, Note_on_c, 14, 49, 0
17, 30000, Note_on_c, 14, 47, 90
17, 30047, Note_on_c, 14, 47, 0
17, 30060, Note_on_c, 14, 45, 90
17, 30107, Note_on_c, 14, 45, 0
17, 30120, Note_on_c, 14, 44, 90
17, 30167, Note_on_c, 14, 44, 0
17, 30180, Note_on_c, 14, 45, 90
17, 30227, Note_on_c, 14, 45, 0
17, 30240, Note_on_c, 14, 52, 90
17, 30287, Note_on_c, 14, 52, 0
17, 30300, Note_on_c, 14, 40, 90
17, 30323, Note_on_c, 14, 40, 0
17, 30330, Note_on_c, 14, 42, 90
17, 30353, Note_on_c, 14, 42, 0
17, 30360, Note_on_c, 14, 44, 90
17, 30407, Note_on_c, 14, 44, 0
17, 30420, Note_on_c, 14, 47, 90
17, 30467, Note_on_c, 14, 47, 0
17, 30480, Note_on_c, 14, 44, 90
17, 30527, Note_on_c, 14, 44, 0
17, 30540, Note_on_c, 14, 40, 90
17, 30587, Note_on_c, 14, 40, 0
17, 30600, Note_on_c, 14, 45, 90
17, 30647, Note_on_c, 14, 45, 0
17, 30660, Note_on_c, 14, 57, 90
17, 30707, Note_on_c, 14, 57, 0
17, 30780, Note_on_c, 14, 49, 90
17, 30827, Note_on_c, 14, 49, 0
17, 30840, Note_on_c, 14, 45, 90
17, 30887, Note_on_c, 14, 45, 0
17, 30900, Note_on_c, 14, 49, 90
17, 30947, Note_on_c, 14, 49, 0
17, 30960, Note_on_c, 14, 50, 90
17, 31007, Note_on_c, 14, 50, 0
17, 31020, Note_on_c, 14, 62, 90
17, 31067, Note_on_c, 14, 62, 0
17, 31080, Note_on_c, 14, 57, 90
17, 31127, Note_on_c, 14, 57, 0
17, 31140, Note_on_c, 14, 54, 90
17, 31187, Note_on_c, 14, 54, 0
17, 31200, Note_on_c, 14, 50, 90
17, 31247, Note_on_c, 14, 50, 0
17, 31260, Note_on_c, 14, 49, 90
17, 31307, Note_on_c, 14, 49, 0
17, 31320, Note_on_c, 14, 51, 90
17, 31367, Note_on_c, 14, 51, 0
17, 31380, Note_on_c, 14, 47, 90
17, 31427, Note_on_c, 14, 47, 0
17, 31500, Note_on_c, 14, 47, 90
17, 31547, Note_on_c, 14, 47, 0
17, 31560, Note_on_c, 14, 51, 90
17, 31607, Note_on_c, 14, 51, 0
17, 31620, Note_on_c, 14, 47, 90
17, 31667, Note_on_c, 14, 47, 0
17, 31680, Note_on_c, 14, 52, 90
17, 31727, Note_on_c, 14, 52, 0
17, 31740, Note_on_c, 14, 64, 90
17, 31787, Note_on_c, 14, 64, 0
17, 31800, Note_on_c, 14, 59, 90
17, 31847, Note_on_c, 14, 59, 0
17, 31860, Note_on_c, 14, 56, 90
17, 31907, Note_on_c, 14, 56, 0
17, 31920, Note_on_c, 14, 52, 90
17, 31967, Note_on_c, 14, 52, 0
17, 31980, Note_on_c, 14, 47, 90
17, 32027, Note_on_c, 14, 47, 0
17, 32040, Note_on_c, 14, 52, 90
17, 32087, Note_on_c, 14, 52, 0
17, 32100, Note_on_c, 14, 40, 90
17, 32147, Note_on_c, 14, 40, 0
17, 32220, Note_on_c, 14, 52, 90
17, 32267, Note_on_c, 14, 52, 0
17, 32280, Note_on_c, 14, 56, 90
17, 32327, Note_on_c, 14, 56, 0
17, 32340, Note_on_c, 14, 59, 90
17, 32387, Note_on_c, 14, 59, 0
17, 32400, Note_on_c, 14, 61, 90
17, 32447, Note_on_c, 14, 61, 0
17, 32460, Note_on_c, 14, 57, 90
17, 32507, Note_on_c, 14, 57, 0
17, 32520, Note_on_c, 14, 61, 90
17, 32567, Note_on_c, 14, 61, 0
17, 32580, Note_on_c, 14, 57, 90
17, 32627, Note_on_c, 14, 57, 0
17, 32640, Note_on_c, 14, 61, 90
17, 32687, Note_on_c, 14, 61, 0
17, 32700, Note_on_c, 14, 57, 90
17, 32747, Note_on_c, 14, 57, 0
17, 32760, Note_on_c, 14, 62, 90
17, 32807, Note_on_c, 14, 62, 0
17, 32820, Note_on_c, 14, 54, 90
17, 32867, Note_on_c, 14, 54, 0
17, 32880, Note_on_c, 14, 54, 90
17, 32927, Note_on_c, 14, 54, 0
17, 32940, Note_on_c, 14, 50, 90
17, 32987, Note_on_c, 14, 50, 0
17, 33000, Note_on_c, 14, 50, 90
17, 33047, Note_on_c, 14, 50, 0
17, 33060, Note_on_c, 14, 57, 90
17, 33107, Note_on_c, 14, 57, 0
17, 33120, Note_on_c, 14, 57, 90
17, 33167, Note_on_c, 14, 57, 0
17, 33180, Note_on_c, 14, 45, 90
17, 33227, Note_on_c, 14, 45, 0
17, 33240, Note_on_c, 14, 45, 90
17, 33287, Note_on_c, 14, 45, 0
17, 33300, Note_on_c, 14, 42, 90
17, 33347, Note_on_c, 14, 42, 0
17, 33360, Note_on_c, 14, 42, 90
17, 33407, Note_on_c, 14, 42, 0
17, 33420, Note_on_c, 14, 47, 90
17, 33467, Note_on_c, 14, 47, 0
17, 33480, Note_on_c, 14, 47, 90
17, 33527, Note_on_c, 14, 47, 0
17, 33540, Note_on_c, 14, 52, 90
17, 33587, Note_on_c, 14, 52, 0
17, 33600, Note_on_c, 14, 52, 90
17, 33647, Note_on_c, 14, 52, 0
17, 33660, Note_on_c, 14, 44, 90
17, 33707, Note_on_c, 14, 44, 0
17, 33720, Note_on_c, 14, 44, 90
17, 33767, Note_on_c, 14, 44, 0
17, 33780, Note_on_c, 14, 40, 90
17, 33827, Note_on_c, 14, 40, 0
17, 33840, Note_on_c, 14, 45, 90
17, 33887, Note_on_c, 14, 45, 0
17, 33900, Note_on_c, 14, 44, 90
17, 33923, Note_on_c, 14, 44, 0
17, 33930, Note_on_c, 14, 45, 90
17, 33953, Note_on_c, 14, 45, 0
17, 33960, Note_on_c, 14, 47, 90
17, 34007, Note_on_c, 14, 47, 0
17, 34020, Note_on_c, 14, 45, 90
17, 34043, Note_on_c, 14, 45, 0
17, 34050, Note_on_c, 14, 47, 90
17, 34073, Note_on_c, 14, 47, 0
17, 34080, Note_on_c, 14, 49, 90
17, 34127, Note_on_c, 14, 49, 0
17, 34140, Note_on_c, 14, 47, 90
17, 34163, Note_on_c, 14, 47, 0
17, 34170, Note_on_c, 14, 49, 90
17, 34193, Note_on_c, 14, 49, 0
17, 34200, Note_on_c, 14, 50, 90
17, 34247, Note_on_c, 14, 50, 0
17, 34260, Note_on_c, 14, 49, 90
17, 34283, Note_on_c, 14, 49, 0
17, 34290, Note_on_c, 14, 50, 90
17, 34313, Note_on_c, 14, 50, 0
17, 34320, Note_on_c, 14, 52, 90
17, 34367, Note_on_c, 14, 52, 0
17, 34380, Note_on_c, 14, 50, 90
17, 34403, Note_on_c, 14, 50, 0
17, 34410, Note_on_c, 14, 52, 90
17, 34433, Note_on_c, 14, 52, 0
17, 34440, Note_on_c, 14, 54, 90
17, 34487, Note_on_c, 14, 54, 0
17, 34500, Note_on_c, 14, 52, 90
17, 34523, Note_on_c, 14, 52, 0
17, 34530, Note_on_c, 14, 54, 90
17, 34553, Note_on_c, 14, 54, 0
17, 34560, Note_on_c, 14, 56, 90
17, 34607, Note_on_c, 14, 56, 0
17, 34620, Note_on_c, 14, 52, 90
17, 34667, Note_on_c, 14, 52, 0
17, 34680, Note_on_c, 14, 57, 90
17, 34727, Note_on_c, 14, 57, 0
17, 34740, Note_on_c, 14, 49, 90
17, 34763, Note_on_c, 14, 49, 0
17, 34770, Note_on_c, 14, 50, 90
17, 34793, Note_on_c, 14, 50, 0
17, 34800, Note_on_c, 14, 52, 90
17, 34847, Note_on_c, 14, 52, 0
17, 34860, Note_on_c, 14, 40, 90
17, 34907, Note_on_c, 14, 40, 0
17, 34920, Note_on_c, 14, 45, 90
17, 34967, Note_on_c, 14, 45, 0
17, 34980, Note_on_c, 14, 49, 90
17, 35027, Note_on_c, 14, 49, 0
17, 35040, Note_on_c, 14, 52, 90
17, 35087, Note_on_c, 14, 52, 0
17, 35100, Note_on_c, 14, 57, 90
17, 35123, Note_on_c, 14, 57, 0
17, 35130, Note_on_c, 14, 59, 90
17, 35153, Note_on_c, 14, 59, 0
17, 35160, Note_on_c, 14, 57, 90
17, 35207, Note_on_c, 14, 57, 0
17, 35220, Note_on_c, 14, 56, 90
17, 35267, Note_on_c, 14, 56, 0
17, 35280, Note_on_c, 14, 54, 90
17, 35327, Note_on_c, 14, 54, 0
17, 35340, Note_on_c, 14, 56, 90
17, 35387, Note_on_c, 14, 56, 0
17, 35400, Note_on_c, 14, 57, 90
17, 35447, Note_on_c, 14, 57, 0
17, 35460, Note_on_c, 14, 59, 90
17, 35507, Note_on_c, 14, 59, 0
17, 35520, Note_on_c, 14, 61, 90
17, 35567, Note_on_c, 14, 61, 0
17, 35580, Note_on_c, 14, 49, 90
17, 35627, Note_on_c, 14, 49, 0
17, 35640, Note_on_c, 14, 54, 90
17, 35687, Note_on_c, 14, 54, 0
17, 35700, Note_on_c, 14, 42, 90
17, 35747, Note_on_c, 14, 42, 0
17, 35760, Note_on_c, 14, 42, 90
17, 35807, Note_on_c, 14, 42, 0
17, 35820, Note_on_c, 14, 42, 90
17, 35867, Note_on_c, 14, 42, 0
17, 35880, Note_on_c, 14, 42, 90
17, 35927, Note_on_c, 14, 42, 0
17, 35940, Note_on_c, 14, 42, 90
17, 35987, Note_on_c, 14, 42, 0
17, 36000, Note_on_c, 14, 42, 90
17, 36047, Note_on_c, 14, 42, 0
17, 36060, Note_on_c, 14, 54, 90
17, 36107, Note_on_c, 14, 54, 0
17, 36120, Note_on_c, 14, 54, 90
17, 36167, Note_on_c, 14, 54, 0
17, 36180, Note_on_c, 14, 57, 90
17, 36227, Note_on_c, 14, 57, 0
17, 36240, Note_on_c, 14, 61, 90
17, 36287, Note_on_c, 14, 61, 0
17, 36300, Note_on_c, 14, 49, 90
17, 36347, Note_on_c, 14, 49, 0
17, 36360, Note_on_c, 14, 54, 90
17, 36407, Note_on_c, 14, 54, 0
17, 36420, Note_on_c, 14, 42, 90
17, 36467, Note_on_c, 14, 42, 0
17, 36480, Note_on_c, 14, 54, 90
17, 36527, Note_on_c, 14, 54, 0
17, 36540, Note_on_c, 14, 52, 90
17, 36587, Note_on_c, 14, 52, 0
17, 36600, Note_on_c, 14, 51, 90
17, 36647, Note_on_c, 14, 51, 0
17, 36660, Note_on_c, 14, 47, 90
17, 36707, Note_on_c, 14, 47, 0
17, 36720, Note_on_c, 14, 52, 90
17, 36767, Note_on_c, 14, 52, 0
17, 36780, Note_on_c, 14, 54, 90
17, 36827, Note_on_c, 14, 54, 0
17, 36840, Note_on_c, 14, 56, 90
17, 36887, Note_on_c, 14, 56, 0
17, 36900, Note_on_c, 14, 54, 90
17, 36947, Note_on_c, 14, 54, 0
17, 36960, Note_on_c, 14, 56, 90
17, 37007, Note_on_c, 14, 56, 0
17, 37020, Note_on_c, 14, 58, 90
17, 37067, Note_on_c, 14, 58, 0
17, 37080, Note_on_c, 14, 59, 90
17, 37127, Note_on_c, 14, 59, 0
17, 37140, Note_on_c, 14, 47, 90
17, 37187, Note_on_c, 14, 47, 0
17, 37200, Note_on_c, 14, 47, 90
17, 37247, Note_on_c, 14, 47, 0
17, 37260, Note_on_c, 14, 47, 90
17, 37307, Note_on_c, 14, 47, 0
17, 37320, Note_on_c, 14, 47, 90
17, 37367, Note_on_c, 14, 47, 0
17, 37380, Note_on_c, 14, 47, 90
17, 37427, Note_on_c, 14, 47, 0
17, 37440, Note_on_c, 14, 48, 90
17, 37487, Note_on_c, 14, 48, 0
17, 37500, Note_on_c, 14, 60, 90
17, 37547, Note_on_c, 14, 60, 0
17, 37560, Note_on_c, 14, 60, 90
17, 37607, Note_on_c, 14, 60, 0
17, 37620, Note_on_c, 14, 60, 90
17, 37667, Note_on_c, 14, 60, 0
17, 37680, Note_on_c, 14, 60, 90
17, 37727, Note_on_c, 14, 60, 0
17, 37740, Note_on_c, 14, 60, 90
17, 37787, Note_on_c, 14, 60, 0
17, 37800, Note_on_c, 14, 61, 90
17, 37847, Note_on_c, 14, 61, 0
17, 37860, Note_on_c, 14, 49, 90
17, 37907, Note_on_c, 14, 49, 0
17, 37920, Note_on_c, 14, 61, 90
17, 37967, Note_on_c, 14, 61, 0
17, 37980, Note_on_c, 14, 59, 90
17, 38027, Note_on_c, 14, 59, 0
17, 38040, Note_on_c, 14, 57, 90
17, 38087, Note_on_c, 14, 57, 0
17, 38100, Note_on_c, 14, 54, 90
17, 38147, Note_on_c, 14, 54, 0
17, 38160, Note_on_c, 14, 59, 90
17, 38207, Note_on_c, 14, 59, 0
17, 38220, Note_on_c, 14, 47, 90
17, 38267, Note_on_c, 14, 47, 0
17, 38280, Note_on_c, 14, 59, 90
17, 38327, Note_on_c, 14, 59, 0
17, 38340, Note_on_c, 14, 57, 90
17, 38387, Note_on_c, 14, 57, 0
17, 38400, Note_on_c, 14, 56, 90
17, 38447, Note_on_c, 14, 56, 0
17, 38460, Note_on_c, 14, 52, 90
17, 38507, Note_on_c, 14, 52, 0
17, 38520, Note_on_c, 14, 57, 90
17, 38567, Note_on_c, 14, 57, 0
17, 38580, Note_on_c, 14, 45, 90
17, 38627, Note_on_c, 14, 45, 0
17, 38640, Note_on_c, 14, 57, 90
17, 38687, Note_on_c, 14, 57, 0
17, 38700, Note_on_c, 14, 56, 90
17, 38747, Note_on_c, 14, 56, 0
17, 38760, Note_on_c, 14, 54, 90
17, 38807, Note_on_c, 14, 54, 0
17, 38820, Note_on_c, 14, 51, 90
17, 38867, Note_on_c, 14, 51, 0
17, 38880, Note_on_c, 14, 56, 90
17, 38927, Note_on_c, 14, 56, 0
17, 38940, Note_on_c, 14, 58, 90
17, 38987, Note_on_c, 14, 58, 0
17, 39000, Note_on_c, 14, 60, 90
17, 39047, Note_on_c, 14, 60, 0
17, 39060, Note_on_c, 14, 56, 90
17, 39107, Note_on_c, 14, 56, 0
17, 39120, Note_on_c, 14, 58, 90
17, 39167, Note_on_c, 14, 58, 0
17, 39180, Note_on_c, 14, 60, 90
17, 39227, Note_on_c, 14, 60, 0
17, 39240, Note_on_c, 14, 61, 90
17, 39287, Note_on_c, 14, 61, 0
17, 39300, Note_on_c, 14, 57, 90
17, 39347, Note_on_c, 14, 57, 0
17, 39360, Note_on_c, 14, 52, 90
17, 39407, Note_on_c, 14, 52, 0
17, 39420, Note_on_c, 14, 57, 90
17, 39467, Note_on_c, 14, 57, 0
17, 39480, Note_on_c, 14, 54, 90
17, 39527, Note_on_c, 14, 54, 0
17, 39540, Note_on_c, 14, 56, 90
17, 39587, Note_on_c, 14, 56, 0
17, 39600, Note_on_c, 14, 49, 90
17, 39647, Note_on_c, 14, 49, 0
17, 39660, Note_on_c, 14, 61, 90
17, 39707, Note_on_c, 14, 61, 0
17, 39720, Note_on_c, 14, 61, 90
17, 39767, Note_on_c, 14, 61, 0
17, 39780, Note_on_c, 14, 61, 90
17, 39827, Note_on_c, 14, 61, 0
17, 39840, Note_on_c, 14, 61, 90
17, 39887, Note_on_c, 14, 61, 0
17, 39900, Note_on_c, 14, 61, 90
17, 39947, Note_on_c, 14, 61, 0
17, 39960, Note_on_c, 14, 61, 90
17, 40007, Note_on_c, 14, 61, 0
17, 40020, Note_on_c, 14, 49, 90
17, 40067, Note_on_c, 14, 49, 0
17, 40080, Note_on_c, 14, 49, 90
17, 40127, Note_on_c, 14, 49, 0
17, 40140, Note_on_c, 14, 52, 90
17, 40187, Note_on_c, 14, 52, 0
17, 40200, Note_on_c, 14, 56, 90
17, 40247, Note_on_c, 14, 56, 0
17, 40260, Note_on_c, 14, 44, 90
17, 40307, Note_on_c, 14, 44, 0
17, 40320, Note_on_c, 14, 49, 90
17, 40367, Note_on_c, 14, 49, 0
17, 40380, Note_on_c, 14, 61, 90
17, 40427, Note_on_c, 14, 61, 0
17, 40440, Note_on_c, 14, 59, 90
17, 40487, Note_on_c, 14, 59, 0
17, 40500, Note_on_c, 14, 57, 90
17, 40547, Note_on_c, 14, 57, 0
17, 40560, Note_on_c, 14, 56, 90
17, 40607, Note_on_c, 14, 56, 0
17, 40620, Note_on_c, 14, 54, 90
17, 40667, Note_on_c, 14, 54, 0
17, 40680, Note_on_c, 14, 52, 90
17, 40727, Note_on_c, 14, 52, 0
17, 40740, Note_on_c, 14, 50, 90
17, 40787, Note_on_c, 14, 50, 0
17, 40800, Note_on_c, 14, 49, 90
17, 40847, Note_on_c, 14, 49, 0
17, 40860, Note_on_c, 14, 47, 90
17, 40907, Note_on_c, 14, 47, 0
17, 40920, Note_on_c, 14, 46, 90
17, 40967, Note_on_c, 14, 46, 0
17, 40980, Note_on_c, 14, 42, 90
17, 41027, Note_on_c, 14, 42, 0
17, 41040, Note_on_c, 14, 47, 90
17, 41087, Note_on_c, 14, 47, 0
17, 41100, Note_on_c, 14, 59, 90
17, 41147, Note_on_c, 14, 59, 0
17, 41160, Note_on_c, 14, 59, 90
17, 41207, Note_on_c, 14, 59, 0
17, 41220, Note_on_c, 14, 59, 90
17, 41267, Note_on_c, 14, 59, 0
17, 41280, Note_on_c, 14, 59, 90
17, 41327, Note_on_c, 14, 59, 0
17, 41340, Note_on_c, 14, 59, 90
17, 41387, Note_on_c, 14, 59, 0
17, 41400, Note_on_c, 14, 59, 90
17, 41447, Note_on_c, 14, 59, 0
17, 41460, Note_on_c, 14, 47, 90
17, 41507, Note_on_c, 14, 47, 0
17, 41520, Note_on_c, 14, 47, 90
17, 41567, Note_on_c, 14, 47, 0
17, 41580, Note_on_c, 14, 50, 90
17, 41627, Note_on_c, 14, 50, 0
17, 41640, Note_on_c, 14, 54, 90
17, 41687, Note_on_c, 14, 54, 0
17, 41700, Note_on_c, 14, 42, 90
17, 41747, Note_on_c, 14, 42, 0
17, 41760, Note_on_c, 14, 47, 90
17, 41807, Note_on_c, 14, 47, 0
17, 41820, Note_on_c, 14, 59, 90
17, 41867, Note_on_c, 14, 59, 0
17, 41880, Note_on_c, 14, 47, 90
17, 41927, Note_on_c, 14, 47, 0
17, 41940, Note_on_c, 14, 49, 90
17, 41963, Note_on_c, 14, 49, 0
17, 41970, Note_on_c, 14, 50, 90
17, 41993, Note_on_c, 14, 50, 0
17, 42000, Note_on_c, 14, 52, 90
17, 42047, Note_on_c, 14, 52, 0
17, 42060, Note_on_c, 14, 50, 90
17, 42107, Note_on_c, 14, 50, 0
17, 42120, Note_on_c, 14, 49, 90
17, 42167, Note_on_c, 14, 49, 0
17, 42180, Note_on_c, 14, 61, 90
17, 42227, Note_on_c, 14, 61, 0
17, 42240, Note_on_c, 14, 61, 90
17, 42287, Note_on_c, 14, 61, 0
17, 42300, Note_on_c, 14, 57, 90
17, 42347, Note_on_c, 14, 57, 0
17, 42360, Note_on_c, 14, 64, 90
17, 42407, Note_on_c, 14, 64, 0
17, 42420, Note_on_c, 14, 52, 90
17, 42467, Note_on_c, 14, 52, 0
17, 42480, Note_on_c, 14, 45, 90
17, 42527, Note_on_c, 14, 45, 0
17, 42540, Note_on_c, 14, 57, 90
17, 42587, Note_on_c, 14, 57, 0
17, 42600, Note_on_c, 14, 57, 90
17, 42647, Note_on_c, 14, 57, 0
17, 42660, Note_on_c, 14, 57, 90
17, 42707, Note_on_c, 14, 57, 0
17, 42720, Note_on_c, 14, 57, 90
17, 42767, Note_on_c, 14, 57, 0
17, 42780, Note_on_c, 14, 57, 90
17, 42827, Note_on_c, 14, 57, 0
17, 42840, Note_on_c, 14, 58, 90
17, 42887, Note_on_c, 14, 58, 0
17, 42900, Note_on_c, 14, 46, 90
17, 42947, Note_on_c, 14, 46, 0
17, 42960, Note_on_c, 14, 46, 90
17, 43007, Note_on_c, 14, 46, 0
17, 43020, Note_on_c, 14, 46, 90
17, 43067, Note_on_c, 14, 46, 0
17, 43080, Note_on_c, 14, 46, 90
17, 43127, Note_on_c, 14, 46, 0
17, 43140, Note_on_c, 14, 46, 90
17, 43187, Note_on_c, 14, 46, 0
17, 43200, Note_on_c, 14, 47, 90
17, 43247, Note_on_c, 14, 47, 0
17, 43260, Note_on_c, 14, 46, 90
17, 43307, Note_on_c, 14, 46, 0
17, 43320, Note_on_c, 14, 47, 90
17, 43367, Note_on_c, 14, 47, 0
17, 43380, Note_on_c, 14, 49, 90
17, 43427, Note_on_c, 14, 49, 0
17, 43440, Note_on_c, 14, 50, 90
17, 43487, Note_on_c, 14, 50, 0
17, 43500, Note_on_c, 14, 47, 90
17, 43547, Note_on_c, 14, 47, 0
17, 43560, Note_on_c, 14, 52, 90
17, 43607, Note_on_c, 14, 52, 0
17, 43620, Note_on_c, 14, 40, 90
17, 43667, Note_on_c, 14, 40, 0
17, 43680, Note_on_c, 14, 52, 90
17, 43727, Note_on_c, 14, 52, 0
17, 43740, Note_on_c, 14, 50, 90
17, 43787, Note_on_c, 14, 50, 0
17, 43800, Note_on_c, 14, 49, 90
17, 43847, Note_on_c, 14, 49, 0
17, 43860, Note_on_c, 14, 45, 90
17, 43907, Note_on_c, 14, 45, 0
17, 43920, Note_on_c, 14, 50, 90
17, 43967, Note_on_c, 14, 50, 0
17, 43980, Note_on_c, 14, 38, 90
17, 44027, Note_on_c, 14, 38, 0
17, 44040, Note_on_c, 14, 50, 90
17, 44087, Note_on_c, 14, 50, 0
17, 44100, Note_on_c, 14, 49, 90
17, 44147, Note_on_c, 14, 49, 0
17, 44160, Note_on_c, 14, 47, 90
17, 44207, Note_on_c, 14, 47, 0
17, 44220, Note_on_c, 14, 44, 90
17, 44267, Note_on_c, 14, 44, 0
17, 44280, Note_on_c, 14, 49, 90
17, 44327, Note_on_c, 14, 49, 0
17, 44340, Note_on_c, 14, 51, 90
17, 44387, Note_on_c, 14, 51, 0
17, 44400, Note_on_c, 14, 53, 90
17, 44447, Note_on_c, 14, 53, 0
17, 44460, Note_on_c, 14, 49, 90
17, 44507, Note_on_c, 14, 49, 0
17, 44520, Note_on_c, 14, 51, 90
17, 44567, Note_on_c, 14, 51, 0
17, 44580, Note_on_c, 14, 53, 90
17, 44627, Note_on_c, 14, 53, 0
17, 44640, Note_on_c, 14, 54, 90
17, 44687, Note_on_c, 14, 54, 0
17, 44700, Note_on_c, 14, 50, 90
17, 44747, Note_on_c, 14, 50, 0
17, 44760, Note_on_c, 14, 45, 90
17, 44807, Note_on_c, 14, 45, 0
17, 44820, Note_on_c, 14, 50, 90
17, 44867, Note_on_c, 14, 50, 0
17, 44880, Note_on_c, 14, 47, 90
17, 44927, Note_on_c, 14, 47, 0
17, 44940, Note_on_c, 14, 49, 90
17, 44987, Note_on_c, 14, 49, 0
17, 45000, Note_on_c, 14, 42, 90
17, 45095, Note_on_c, 14, 42, 0
17, 45360, Note_on_c, 14, 45, 90
17, 45407, Note_on_c, 14, 45, 0
17, 45420, Note_on_c, 14, 57, 90
17, 45467, Note_on_c, 14, 57, 0
17, 45480, Note_on_c, 14, 57, 90
17, 45527, Note_on_c, 14, 57, 0
17, 45540, Note_on_c, 14, 57, 90
17, 45587, Note_on_c, 14, 57, 0
17, 45600, Note_on_c, 14, 57, 90
17, 45647, Note_on_c, 14, 57, 0
17, 45660, Note_on_c, 14, 57, 90
17, 45707, Note_on_c, 14, 57, 0
17, 45720, Note_on_c, 14, 57, 90
17, 45767, Note_on_c, 14, 57, 0
17, 45780, Note_on_c, 14, 45, 90
17, 45827, Note_on_c, 14, 45, 0
17, 45840, Note_on_c, 14, 45, 90
17, 45887, Note_on_c, 14, 45, 0
17, 45900, Note_on_c, 14, 49, 90
17, 45947, Note_on_c, 14, 49, 0
17, 45960, Note_on_c, 14, 52, 90
17, 46007, Note_on_c, 14, 52, 0
17, 46020, Note_on_c, 14, 40, 90
17, 46067, Note_on_c, 14, 40, 0
17, 46080, Note_on_c, 14, 45, 90
17, 46127, Note_on_c, 14, 45, 0
17, 46140, Note_on_c, 14, 57, 90
17, 46187, Note_on_c, 14, 57, 0
17, 46200, Note_on_c, 14, 57, 90
17, 46247, Note_on_c, 14, 57, 0
17, 46260, Note_on_c, 14, 57, 90
17, 46307, Note_on_c, 14, 57, 0
17, 46320, Note_on_c, 14, 57, 90
17, 46367, Note_on_c, 14, 57, 0
17, 46380, Note_on_c, 14, 57, 90
17, 46427, Note_on_c, 14, 57, 0
17, 46440, Note_on_c, 14, 57, 90
17, 46487, Note_on_c, 14, 57, 0
17, 46500, Note_on_c, 14, 45, 90
17, 46547, Note_on_c, 14, 45, 0
17, 46560, Note_on_c, 14, 45, 90
17, 46607, Note_on_c, 14, 45, 0
17, 46620, Note_on_c, 14, 49, 90
17, 46667, Note_on_c, 14, 49, 0
17, 46680, Note_on_c, 14, 52, 90
17, 46727, Note_on_c, 14, 52, 0
17, 46740, Note_on_c, 14, 40, 90
17, 46787, Note_on_c, 14, 40, 0
17, 46800, Note_on_c, 14, 45, 90
17, 46847, Note_on_c, 14, 45, 0
17, 46860, Note_on_c, 14, 57, 90
17, 46907, Note_on_c, 14, 57, 0
17, 46980, Note_on_c, 14, 49, 90
17, 47027, Note_on_c, 14, 49, 0
17, 47040, Note_on_c, 14, 45, 90
17, 47087, Note_on_c, 14, 45, 0
17, 47100, Note_on_c, 14, 49, 90
17, 47147, Note_on_c, 14, 49, 0
17, 47160, Note_on_c, 14, 50, 90
17, 47207, Note_on_c, 14, 50, 0
17, 47220, Note_on_c, 14, 62, 90
17, 47267, Note_on_c, 14, 62, 0
17, 47280, Note_on_c, 14, 57, 90
17, 47327, Note_on_c, 14, 57, 0
17, 47340, Note_on_c, 14, 54, 90
17, 47387, Note_on_c, 14, 54, 0
17, 47400, Note_on_c, 14, 50, 90
17, 47447, Note_on_c, 14, 50, 0
17, 47460, Note_on_c, 14, 49, 90
17, 47507, Note_on_c, 14, 49, 0
17, 47520, Note_on_c, 14, 51, 90
17, 47567, Note_on_c, 14, 51, 0
17, 47580, Note_on_c, 14, 47, 90
17, 47627, Note_on_c, 14, 47, 0
17, 47700, Note_on_c, 14, 47, 90
17, 47747, Note_on_c, 14, 47, 0
17, 47760, Note_on_c, 14, 51, 90
17, 47807, Note_on_c, 14, 51, 0
17, 47820, Note_on_c, 14, 47, 90
17, 47867, Note_on_c, 14, 47, 0
17, 47880, Note_on_c, 14, 52, 90
17, 47927, Note_on_c, 14, 52, 0
17, 47940, Note_on_c, 14, 64, 90
17, 47987, Note_on_c, 14, 64, 0
17, 48000, Note_on_c, 14, 59, 90
17, 48047, Note_on_c, 14, 59, 0
17, 48060, Note_on_c, 14, 56, 90
17, 48107, Note_on_c, 14, 56, 0
17, 48120, Note_on_c, 14, 52, 90
17, 48167, Note_on_c, 14, 52, 0
17, 48180, Note_on_c, 14, 47, 90
17, 48227, Note_on_c, 14, 47, 0
17, 48240, Note_on_c, 14, 40, 90
17, 48287, Note_on_c, 14, 40, 0
17, 48300, Note_on_c, 14, 52, 90
17, 48347, Note_on_c, 14, 52, 0
17, 48420, Note_on_c, 14, 56, 90
17, 48467, Note_on_c, 14, 56, 0
17, 48480, Note_on_c, 14, 59, 90
17, 48527, Note_on_c, 14, 59, 0
17, 48540, Note_on_c, 14, 62, 90
17, 48587, Note_on_c, 14, 62, 0
17, 48600, Note_on_c, 14, 61, 90
17, 48647, Note_on_c, 14, 61, 0
17, 48660, Note_on_c, 14, 57, 90
17, 48707, Note_on_c, 14, 57, 0
17, 48720, Note_on_c, 14, 61, 90
17, 48767, Note_on_c, 14, 61, 0
17, 48780, Note_on_c, 14, 57, 90
17, 48827, Note_on_c, 14, 57, 0
17, 48840, Note_on_c, 14, 61, 90
17, 48887, Note_on_c, 14, 61, 0
17, 48900, Note_on_c, 14, 57, 90
17, 48947, Note_on_c, 14, 57, 0
17, 48960, Note_on_c, 14, 62, 90
17, 49007, Note_on_c, 14, 62, 0
17, 49020, Note_on_c, 14, 54, 90
17, 49067, Note_on_c, 14, 54, 0
17, 49080, Note_on_c, 14, 54, 90
17, 49127, Note_on_c, 14, 54, 0
17, 49140, Note_on_c, 14, 50, 90
17, 49187, Note_on_c, 14, 50, 0
17, 49200, Note_on_c, 14, 50, 90
17, 49247, Note_on_c, 14, 50, 0
17, 49260, Note_on_c, 14, 57, 90
17, 49307, Note_on_c, 14, 57, 0
17, 49320, Note_on_c, 14, 57, 90
17, 49367, Note_on_c, 14, 57, 0
17, 49380, Note_on_c, 14, 45, 90
17, 49427, Note_on_c, 14, 45, 0
17, 49440, Note_on_c, 14, 45, 90
17, 49487, Note_on_c, 14, 45, 0
17, 49500, Note_on_c, 14, 42, 90
17, 49547, Note_on_c, 14, 42, 0
17, 49560, Note_on_c, 14, 42, 90
17, 49607, Note_on_c, 14, 42, 0
17, 49620, Note_on_c, 14, 47, 90
17, 49667, Note_on_c, 14, 47, 0
17, 49680, Note_on_c, 14, 47, 90
17, 49727, Note_on_c, 14, 47, 0
17, 49740, Note_on_c, 14, 52, 90
17, 49787, Note_on_c, 14, 52, 0
17, 49800, Note_on_c, 14, 52, 90
17, 49847, Note_on_c, 14, 52, 0
17, 49860, Note_on_c, 14, 44, 90
17, 49907, Note_on_c, 14, 44, 0
17, 49920, Note_on_c, 14, 44, 90
17, 49967, Note_on_c, 14, 44, 0
17, 49980, Note_on_c, 14, 40, 90
17, 50027, Note_on_c, 14, 40, 0
17, 50040, Note_on_c, 14, 45, 90
17, 50087, Note_on_c, 14, 45, 0
17, 50100, Note_on_c, 14, 44, 90
17, 50123, Note_on_c, 14, 44, 0
17, 50130, Note_on_c, 14, 45, 90
17, 50153, Note_on_c, 14, 45, 0
17, 50160, Note_on_c, 14, 47, 90
17, 50207, Note_on_c, 14, 47, 0
17, 50220, Note_on_c, 14, 45, 90
17, 50243, Note_on_c, 14, 45, 0
17, 50250, Note_on_c, 14, 47, 90
17, 50273, Note_on_c, 14, 47, 0
17, 50280, Note_on_c, 14, 49, 90
17, 50327, Note_on_c, 14, 49, 0
17, 50340, Note_on_c, 14, 47, 90
17, 50363, Note_on_c, 14, 47, 0
17, 50370, Note_on_c, 14, 49, 90
17, 50393, Note_on_c, 14, 49, 0
17, 50400, Note_on_c, 14, 50, 90
17, 50447, Note_on_c, 14, 50, 0
17, 50460, Note_on_c, 14, 49, 90
17, 50483, Note_on_c, 14, 49, 0
17, 50490, Note_on_c, 14, 50, 90
17, 50513, Note_on_c, 14, 50, 0
17, 50520, Note_on_c, 14, 52, 90
17, 50567, Note_on_c, 14, 52, 0
17, 50580, Note_on_c, 14, 50, 90
17, 50603, Note_on_c, 14, 50, 0
17, 50610, Note_on_c, 14, 52, 90
17, 50633, Note_on_c, 14, 52, 0
17, 50640, Note_on_c, 14, 54, 90
17, 50687, Note_on_c, 14, 54, 0
17, 50700, Note_on_c, 14, 52, 90
17, 50723, Note_on_c, 14, 52, 0
17, 50730, Note_on_c, 14, 54, 90
17, 50753, Note_on_c, 14, 54, 0
17, 50760, Note_on_c, 14, 56, 90
17, 50807, Note_on_c, 14, 56, 0
17, 50820, Note_on_c, 14, 52, 90
17, 50867, Note_on_c, 14, 52, 0
17, 50880, Note_on_c, 14, 57, 90
17, 50927, Note_on_c, 14, 57, 0
17, 50940, Note_on_c, 14, 49, 90
17, 50963, Note_on_c, 14, 49, 0
17, 50970, Note_on_c, 14, 50, 90
17, 50993, Note_on_c, 14, 50, 0
17, 51000, Note_on_c, 14, 52, 90
17, 51047, Note_on_c, 14, 52, 0
17, 51060, Note_on_c, 14, 40, 90
17, 51107, Note_on_c, 14, 40, 0
17, 51120, Note_on_c, 14, 45, 90
17, 51167, Note_on_c, 14, 45, 0
17, 51180, Note_on_c, 14, 57, 90
17, 51227, Note_on_c, 14, 57, 0
17, 51240, Note_on_c, 14, 57, 90
17, 51287, Note_on_c, 14, 57, 0
17, 51300, Note_on_c, 14, 57, 90
17, 51347, Note_on_c, 14, 57, 0
17, 51360, Note_on_c, 14, 57, 90
17, 51407, Note_on_c, 14, 57, 0
17, 51420, Note_on_c, 14, 57, 90
17, 51467, Note_on_c, 14, 57, 0
17, 51480, Note_on_c, 14, 57, 90
17, 51527, Note_on_c, 14, 57, 0
17, 51540, Note_on_c, 14, 45, 90
17, 51587, Note_on_c, 14, 45, 0
17, 51600, Note_on_c, 14, 57, 90
17, 51647, Note_on_c, 14, 57, 0
17, 51660, Note_on_c, 14, 55, 90
17, 51707, Note_on_c, 14, 55, 0
17, 51720, Note_on_c, 14, 54, 90
17, 51767, Note_on_c, 14, 54, 0
17, 51780, Note_on_c, 14, 50, 90
17, 51827, Note_on_c, 14, 50, 0
17, 51840, Note_on_c, 14, 57, 90
17, 51887, Note_on_c, 14, 57, 0
17, 51900, Note_on_c, 14, 45, 90
17, 51947, Note_on_c, 14, 45, 0
17, 51960, Note_on_c, 14, 45, 90
17, 52007, Note_on_c, 14, 45, 0
17, 52020, Note_on_c, 14, 45, 90
17, 52067, Note_on_c, 14, 45, 0
17, 52080, Note_on_c, 14, 45, 90
17, 52127, Note_on_c, 14, 45, 0
17, 52140, Note_on_c, 14, 45, 90
17, 52187, Note_on_c, 14, 45, 0
17, 52200, Note_on_c, 14, 45, 90
17, 52247, Note_on_c, 14, 45, 0
17, 52260, Note_on_c, 14, 57, 90
17, 52307, Note_on_c, 14, 57, 0
17, 52320, Note_on_c, 14, 45, 90
17, 52367, Note_on_c, 14, 45, 0
17, 52380, Note_on_c, 14, 49, 90
17, 52427, Note_on_c, 14, 49, 0
17, 52440, Note_on_c, 14, 52, 90
17, 52487, Note_on_c, 14, 52, 0
17, 52500, Note_on_c, 14, 40, 90
17, 52547, Note_on_c, 14, 40, 0
17, 52560, Note_on_c, 14, 45, 90
17, 52607, Note_on_c, 14, 45, 0
17, 52620, Note_on_c, 14, 57, 90
17, 52667, Note_on_c, 14, 57, 0
17, 52680, Note_on_c, 14, 57, 90
17, 52727, Note_on_c, 14, 57, 0
17, 52740, Note_on_c, 14, 45, 90
17, 52787, Note_on_c, 14, 45, 0
17, 52800, Note_on_c, 14, 44, 90
17, 52847, Note_on_c, 14, 44, 0
17, 52860, Note_on_c, 14, 45, 90
17, 52907, Note_on_c, 14, 45, 0
17, 52920, Note_on_c, 14, 52, 90
17, 52967, Note_on_c, 14, 52, 0
17, 52980, Note_on_c, 14, 40, 90
17, 53027, Note_on_c, 14, 40, 0
17, 53040, Note_on_c, 14, 40, 90
17, 53087, Note_on_c, 14, 40, 0
17, 53100, Note_on_c, 14, 40, 90
17, 53147, Note_on_c, 14, 40, 0
17, 53160, Note_on_c, 14, 40, 90
17, 53207, Note_on_c, 14, 40, 0
17, 53220, Note_on_c, 14, 40, 90
17, 53267, Note_on_c, 14, 40, 0
17, 53280, Note_on_c, 14, 40, 90
17, 53327, Note_on_c, 14, 40, 0
17, 53340, Note_on_c, 14, 52, 90
17, 53363, Note_on_c, 14, 52, 0
17, 53370, Note_on_c, 14, 54, 90
17, 53393, Note_on_c, 14, 54, 0
17, 53400, Note_on_c, 14, 56, 90
17, 53447, Note_on_c, 14, 56, 0
17, 53460, Note_on_c, 14, 52, 90
17, 53507, Note_on_c, 14, 52, 0
17, 53520, Note_on_c, 14, 57, 90
17, 53567, Note_on_c, 14, 57, 0
17, 53580, Note_on_c, 14, 45, 90
17, 53627, Note_on_c, 14, 45, 0
17, 53640, Note_on_c, 14, 52, 90
17, 53687, Note_on_c, 14, 52, 0
17, 53700, Note_on_c, 14, 40, 90
17, 53747, Note_on_c, 14, 40, 0
17, 53760, Note_on_c, 14, 40, 90
17, 53807, Note_on_c, 14, 40, 0
17, 53820, Note_on_c, 14, 40, 90
17, 53867, Note_on_c, 14, 40, 0
17, 53880, Note_on_c, 14, 40, 90
17, 53927, Note_on_c, 14, 40, 0
17, 53940, Note_on_c, 14, 40, 90
17, 53987, Note_on_c, 14, 40, 0
17, 54000, Note_on_c, 14, 40, 90
17, 54047, Note_on_c, 14, 40, 0
17, 54060, Note_on_c, 14, 52, 90
17, 54107, Note_on_c, 14, 52, 0
17, 54120, Note_on_c, 14, 52, 90
17, 54167, Note_on_c, 14, 52, 0
17, 54180, Note_on_c, 14, 56, 90
17, 54227, Note_on_c, 14, 56, 0
17, 54240, Note_on_c, 14, 59, 90
17, 54287, Note_on_c, 14, 59, 0
17, 54300, Note_on_c, 14, 47, 90
17, 54347, Note_on_c, 14, 47, 0
17, 54360, Note_on_c, 14, 52, 90
17, 54407, Note_on_c, 14, 52, 0
17, 54420, Note_on_c, 14, 40, 90
17, 54467, Note_on_c, 14, 40, 0
17, 54480, Note_on_c, 14, 40, 90
17, 54527, Note_on_c, 14, 40, 0
17, 54540, Note_on_c, 14, 50, 90
17, 54587, Note_on_c, 14, 50, 0
17, 54600, Note_on_c, 14, 49, 90
17, 54647, Note_on_c, 14, 49, 0
17, 54660, Note_on_c, 14, 52, 90
17, 54707, Note_on_c, 14, 52, 0
17, 54720, Note_on_c, 14, 54, 90
17, 54767, Note_on_c, 14, 54, 0
17, 54780, Note_on_c, 14, 42, 90
17, 54827, Note_on_c, 14, 42, 0
17, 54840, Note_on_c, 14, 42, 90
17, 54887, Note_on_c, 14, 42, 0
17, 54900, Note_on_c, 14, 54, 90
17, 54947, Note_on_c, 14, 54, 0
17, 54960, Note_on_c, 14, 52, 90
17, 55007, Note_on_c, 14, 52, 0
17, 55020, Note_on_c, 14, 50, 90
17, 55067, Note_on_c, 14, 50, 0
17, 55080, Note_on_c, 14, 49, 90
17, 55127, Note_on_c, 14, 49, 0
17, 55140, Note_on_c, 14, 61, 90
17, 55187, Note_on_c, 14, 61, 0
17, 55200, Note_on_c, 14, 59, 90
17, 55247, Note_on_c, 14, 59, 0
17, 55260, Note_on_c, 14, 57, 90
17, 55307, Note_on_c, 14, 57, 0
17, 55320, Note_on_c, 14, 56, 90
17, 55367, Note_on_c, 14, 56, 0
17, 55380, Note_on_c, 14, 54, 90
17, 55427, Note_on_c, 14, 54, 0
17, 55440, Note_on_c, 14, 52, 90
17, 55487, Note_on_c, 14, 52, 0
17, 55500, Note_on_c, 14, 40, 90
17, 55547, Note_on_c, 14, 40, 0
17, 55560, Note_on_c, 14, 52, 90
17, 55607, Note_on_c, 14, 52, 0
17, 55620, Note_on_c, 14, 54, 90
17, 55667, Note_on_c, 14, 54, 0
17, 55680, Note_on_c, 14, 49, 90
17, 55727, Note_on_c, 14, 49, 0
17, 55740, Note_on_c, 14, 52, 90
17, 55787, Note_on_c, 14, 52, 0
17, 55800, Note_on_c, 14, 57, 90
17, 55847, Note_on_c, 14, 57, 0
17, 55860, Note_on_c, 14, 45, 90
17, 55907, Note_on_c, 14, 45, 0
17, 55920, Note_on_c, 14, 45, 90
17, 55967, Note_on_c, 14, 45, 0
17, 55980, Note_on_c, 14, 49, 90
17, 56027, Note_on_c, 14, 49, 0
17, 56040, Note_on_c, 14, 52, 90
17, 56087, Note_on_c, 14, 52, 0
17, 56100, Note_on_c, 14, 40, 90
17, 56147, Note_on_c, 14, 40, 0
17, 56160, Note_on_c, 14, 45, 90
17, 56207, Note_on_c, 14, 45, 0
17, 56220, Note_on_c, 14, 57, 90
17, 56243, Note_on_c, 14, 57, 0
17, 56250, Note_on_c, 14, 56, 90
17, 56273, Note_on_c, 14, 56, 0
17, 56280, Note_on_c, 14, 57, 90
17, 56327, Note_on_c, 14, 57, 0
17, 56340, Note_on_c, 14, 49, 90
17, 56363, Note_on_c, 14, 49, 0
17, 56370, Note_on_c, 14, 47, 90
17, 56393, Note_on_c, 14, 47, 0
17, 56400, Note_on_c, 14, 49, 90
17, 56447, Note_on_c, 14, 49, 0
17, 56460, Note_on_c, 14, 45, 90
17, 56507, Note_on_c, 14, 45, 0
17, 56520, Note_on_c, 14, 50, 90
17, 56567, Note_on_c, 14, 50, 0
17, 56580, Note_on_c, 14, 49, 90
17, 56627, Note_on_c, 14, 49, 0
17, 56640, Note_on_c, 14, 47, 90
17, 56687, Note_on_c, 14, 47, 0
17, 56700, Note_on_c, 14, 45, 90
17, 56747, Note_on_c, 14, 45, 0
17, 56760, Note_on_c, 14, 44, 90
17, 56807, Note_on_c, 14, 44, 0
17, 56820, Note_on_c, 14, 45, 90
17, 56867, Note_on_c, 14, 45, 0
17, 56880, Note_on_c, 14, 40, 90
17, 56927, Note_on_c, 14, 40, 0
17, 56940, Note_on_c, 14, 52, 90
17, 56963, Note_on_c, 14, 52, 0
17, 56970, Note_on_c, 14, 54, 90
17, 56993, Note_on_c, 14, 54, 0
17, 57000, Note_on_c, 14, 56, 90
17, 57047, Note_on_c, 14, 56, 0
17, 57060, Note_on_c, 14, 59, 90
17, 57107, Note_on_c, 14, 59, 0
17, 57120, Note_on_c, 14, 56, 90
17, 57167, Note_on_c, 14, 56, 0
17, 57180, Note_on_c, 14, 52, 90
17, 57227, Note_on_c, 14, 52, 0
17, 57240, Note_on_c, 14, 57, 90
17, 57287, Note_on_c, 14, 57, 0
17, 57300, Note_on_c, 14, 56, 90
17, 57347, Note_on_c, 14, 56, 0
17, 57360, Note_on_c, 14, 54, 90
17, 57407, Note_on_c, 14, 54, 0
17, 57420, Note_on_c, 14, 52, 90
17, 57467, Note_on_c, 14, 52, 0
17, 57480, Note_on_c, 14, 51, 90
17, 57527, Note_on_c, 14, 51, 0
17, 57540, Note_on_c, 14, 52, 90
17, 57587, Note_on_c, 14, 52, 0
17, 57600, Note_on_c, 14, 59, 90
17, 57647, Note_on_c, 14, 59, 0
17, 57660, Note_on_c, 14, 47, 90
17, 57683, Note_on_c, 14, 47, 0
17, 57690, Note_on_c, 14, 49, 90
17, 57713, Note_on_c, 14, 49, 0
17, 57720, Note_on_c, 14, 51, 90
17, 57767, Note_on_c, 14, 51, 0
17, 57780, Note_on_c, 14, 54, 90
17, 57827, Note_on_c, 14, 54, 0
17, 57840, Note_on_c, 14, 51, 90
17, 57887, Note_on_c, 14, 51, 0
17, 57900, Note_on_c, 14, 47, 90
17, 57947, Note_on_c, 14, 47, 0
17, 57960, Note_on_c, 14, 52, 90
17, 58007, Note_on_c, 14, 52, 0
17, 58020, Note_on_c, 14, 40, 90
17, 58043, Note_on_c, 14, 40, 0
17, 58050, Note_on_c, 14, 42, 90
17, 58073, Note_on_c, 14, 42, 0
17, 58080, Note_on_c, 14, 44, 90
17, 58127, Note_on_c, 14, 44, 0
17, 58140, Note_on_c, 14, 47, 90
17, 58187, Note_on_c, 14, 47, 0
17, 58200, Note_on_c, 14, 44, 90
17, 58247, Note_on_c, 14, 44, 0
17, 58260, Note_on_c, 14, 40, 90
17, 58307, Note_on_c, 14, 40, 0
17, 58320, Note_on_c, 14, 45, 90
17, 58367, Note_on_c, 14, 45, 0
17, 58380, Note_on_c, 14, 57, 90
17, 58403, Note_on_c, 14, 57, 0
17, 58410, Note_on_c, 14, 59, 90
17, 58433, Note_on_c, 14, 59, 0
17, 58440, Note_on_c, 14, 61, 90
17, 58487, Note_on_c, 14, 61, 0
17, 58500, Note_on_c, 14, 64, 90
17, 58547, Note_on_c, 14, 64, 0
17, 58560, Note_on_c, 14, 61, 90
17, 58607, Note_on_c, 14, 61, 0
17, 58620, Note_on_c, 14, 57, 90
17, 58667, Note_on_c, 14, 57, 0
17, 58680, Note_on_c, 14, 62, 90
17, 58727, Note_on_c, 14, 62, 0
17, 58740, Note_on_c, 14, 61, 90
17, 58787, Note_on_c, 14, 61, 0
17, 58800, Note_on_c, 14, 59, 90
17, 58847, Note_on_c, 14, 59, 0
17, 58860, Note_on_c, 14, 57, 90
17, 58907, Note_on_c, 14, 57, 0
17, 58920, Note_on_c, 14, 56, 90
17, 58967, Note_on_c, 14, 56, 0
17, 58980, Note_on_c, 14, 57, 90
17, 59027, Note_on_c, 14, 57, 0
17, 59040, Note_on_c, 14, 64, 90
17, 59087, Note_on_c, 14, 64, 0
17, 59100, Note_on_c, 14, 52, 90
17, 59123, Note_on_c, 14, 52, 0
17, 59130, Note_on_c, 14, 54, 90
17, 59153, Note_on_c, 14, 54, 0
17, 59160, Note_on_c, 14, 56, 90
17, 59207, Note_on_c, 14, 56, 0
17, 59220, Note_on_c, 14, 59, 90
17, 59267, Note_on_c, 14, 59, 0
17, 59280, Note_on_c, 14, 56, 90
17, 59327, Note_on_c, 14, 56, 0
17, 59340, Note_on_c, 14, 52, 90
17, 59387, Note_on_c, 14, 52, 0
17, 59400, Note_on_c, 14, 57, 90
17, 59447, Note_on_c, 14, 57, 0
17, 59460, Note_on_c, 14, 56, 90
17, 59507, Note_on_c, 14, 56, 0
17, 59520, Note_on_c, 14, 54, 90
17, 59567, Note_on_c, 14, 54, 0
17, 59580, Note_on_c, 14, 52, 90
17, 59627, Note_on_c, 14, 52, 0
17, 59640, Note_on_c, 14, 51, 90
17, 59687, Note_on_c, 14, 51, 0
17, 59700, Note_on_c, 14, 52, 90
17, 59747, Note_on_c, 14, 52, 0
17, 59760, Note_on_c, 14, 59, 90
17, 59807, Note_on_c, 14, 59, 0
17, 59820, Note_on_c, 14, 47, 90
17, 59843, Note_on_c, 14, 47, 0
17, 59850, Note_on_c, 14, 49, 90
17, 59873, Note_on_c, 14, 49, 0
17, 59880, Note_on_c, 14, 51, 90
17, 59927, Note_on_c, 14, 51, 0
17, 59940, Note_on_c, 14, 54, 90
17, 59987, Note_on_c, 14, 54, 0
17, 60000, Note_on_c, 14, 51, 90
17, 60047, Note_on_c, 14, 51, 0
17, 60060, Note_on_c, 14, 47, 90
17, 60107, Note_on_c, 14, 47, 0
17, 60120, Note_on_c, 14, 52, 90
17, 60167, Note_on_c, 14, 52, 0
17, 60180, Note_on_c, 14, 40, 90
17, 60227, Note_on_c, 14, 40, 0
17, 60300, Note_on_c, 14, 44, 90
17, 60347, Note_on_c, 14, 44, 0
17, 60360, Note_on_c, 14, 40, 90
17, 60407, Note_on_c, 14, 40, 0
17, 60420, Note_on_c, 14, 44, 90
17, 60467, Note_on_c, 14, 44, 0
17, 60480, Note_on_c, 14, 45, 90
17, 60527, Note_on_c, 14, 45, 0
17, 60540, Note_on_c, 14, 57, 90
17, 60587, Note_on_c, 14, 57, 0
17, 60600, Note_on_c, 14, 52, 90
17, 60647, Note_on_c, 14, 52, 0
17, 60660, Note_on_c, 14, 49, 90
17, 60707, Note_on_c, 14, 49, 0
17, 60720, Note_on_c, 14, 45, 90
17, 60767, Note_on_c, 14, 45, 0
17, 60780, Note_on_c, 14, 44, 90
17, 60827, Note_on_c, 14, 44, 0
17, 60840, Note_on_c, 14, 46, 90
17, 60887, Note_on_c, 14, 46, 0
17, 60900, Note_on_c, 14, 42, 90
17, 60947, Note_on_c, 14, 42, 0
17, 61020, Note_on_c, 14, 42, 90
17, 61067, Note_on_c, 14, 42, 0
17, 61080, Note_on_c, 14, 46, 90
17, 61127, Note_on_c, 14, 46, 0
17, 61140, Note_on_c, 14, 42, 90
17, 61187, Note_on_c, 14, 42, 0
17, 61200, Note_on_c, 14, 47, 90
17, 61247, Note_on_c, 14, 47, 0
17, 61260, Note_on_c, 14, 59, 90
17, 61307, Note_on_c, 14, 59, 0
17, 61320, Note_on_c, 14, 54, 90
17, 61367, Note_on_c, 14, 54, 0
17, 61380, Note_on_c, 14, 51, 90
17, 61427, Note_on_c, 14, 51, 0
17, 61440, Note_on_c, 14, 47, 90
17, 61487, Note_on_c, 14, 47, 0
17, 61500, Note_on_c, 14, 54, 90
17, 61547, Note_on_c, 14, 54, 0
17, 61560, Note_on_c, 14, 59, 90
17, 61607, Note_on_c, 14, 59, 0
17, 61620, Note_on_c, 14, 47, 90
17, 61667, Note_on_c, 14, 47, 0
17, 61740, Note_on_c, 14, 51, 90
17, 61787, Note_on_c, 14, 51, 0
17, 61800, Note_on_c, 14, 54, 90
17, 61847, Note_on_c, 14, 54, 0
17, 61860, Note_on_c, 14, 57, 90
17, 61907, Note_on_c, 14, 57, 0
17, 61920, Note_on_c, 14, 56, 90
17, 61967, Note_on_c, 14, 56, 0
17, 61980, Note_on_c, 14, 52, 90
17, 62027, Note_on_c, 14, 52, 0
17, 62040, Note_on_c, 14, 56, 90
17, 62087, Note_on_c, 14, 56, 0
17, 62100, Note_on_c, 14, 52, 90
17, 62147, Note_on_c, 14, 52, 0
17, 62160, Note_on_c, 14, 56, 90
17, 62207, Note_on_c, 14, 56, 0
17, 62220, Note_on_c, 14, 52, 90
17, 62267, Note_on_c, 14, 52, 0
17, 62280, Note_on_c, 14, 57, 90
17, 62327, Note_on_c, 14, 57, 0
17, 62340, Note_on_c, 14, 61, 90
17, 62387, Note_on_c, 14, 61, 0
17, 62400, Note_on_c, 14, 61, 90
17, 62447, Note_on_c, 14, 61, 0
17, 62460, Note_on_c, 14, 57, 90
17, 62507, Note_on_c, 14, 57, 0
17, 62520, Note_on_c, 14, 57, 90
17, 62567, Note_on_c, 14, 57, 0
17, 62580, Note_on_c, 14, 64, 90
17, 62627, Note_on_c, 14, 64, 0
17, 62640, Note_on_c, 14, 64, 90
17, 62687, Note_on_c, 14, 64, 0
17, 62700, Note_on_c, 14, 52, 90
17, 62747, Note_on_c, 14, 52, 0
17, 62760, Note_on_c, 14, 52, 90
17, 62807, Note_on_c, 14, 52, 0
17, 62820, Note_on_c, 14, 49, 90
17, 62867, Note_on_c, 14, 49, 0
17, 62880, Note_on_c, 14, 49, 90
17, 62927, Note_on_c, 14, 49, 0
17, 62940, Note_on_c, 14, 54, 90
17, 62987, Note_on_c, 14, 54, 0
17, 63000, Note_on_c, 14, 54, 90
17, 63047, Note_on_c, 14, 54, 0
17, 63060, Note_on_c, 14, 59, 90
17, 63107, Note_on_c, 14, 59, 0
17, 63120, Note_on_c, 14, 59, 90
17, 63167, Note_on_c, 14, 59, 0
17, 63180, Note_on_c, 14, 51, 90
17, 63227, Note_on_c, 14, 51, 0
17, 63240, Note_on_c, 14, 51, 90
17, 63287, Note_on_c, 14, 51, 0
17, 63300, Note_on_c, 14, 47, 90
17, 63347, Note_on_c, 14, 47, 0
17, 63360, Note_on_c, 14, 52, 90
17, 63407, Note_on_c, 14, 52, 0
17, 63420, Note_on_c, 14, 51, 90
17, 63443, Note_on_c, 14, 51, 0
17, 63450, Note_on_c, 14, 52, 90
17, 63473, Note_on_c, 14, 52, 0
17, 63480, Note_on_c, 14, 54, 90
17, 63527, Note_on_c, 14, 54, 0
17, 63540, Note_on_c, 14, 52, 90
17, 63563, Note_on_c, 14, 52, 0
17, 63570, Note_on_c, 14, 54, 90
17, 63593, Note_on_c, 14, 54, 0
17, 63600, Note_on_c, 14, 56, 90
17, 63647, Note_on_c, 14, 56, 0
17, 63660, Note_on_c, 14, 54, 90
17, 63683, Note_on_c, 14, 54, 0
17, 63690, Note_on_c, 14, 56, 90
17, 63713, Note_on_c, 14, 56, 0
17, 63720, Note_on_c, 14, 57, 90
17, 63767, Note_on_c, 14, 57, 0
17, 63780, Note_on_c, 14, 56, 90
17, 63803, Note_on_c, 14, 56, 0
17, 63810, Note_on_c, 14, 57, 90
17, 63833, Note_on_c, 14, 57, 0
17, 63840, Note_on_c, 14, 59, 90
17, 63887, Note_on_c, 14, 59, 0
17, 63900, Note_on_c, 14, 57, 90
17, 63923, Note_on_c, 14, 57, 0
17, 63930, Note_on_c, 14, 59, 90
17, 63953, Note_on_c, 14, 59, 0
17, 63960, Note_on_c, 14, 61, 90
17, 64007, Note_on_c, 14, 61, 0
17, 64020, Note_on_c, 14, 59, 90
17, 64043, Note_on_c, 14, 59, 0
17, 64050, Note_on_c, 14, 61, 90
17, 64073, Note_on_c, 14, 61, 0
17, 64080, Note_on_c, 14, 63, 90
17, 64127, Note_on_c, 14, 63, 0
17, 64140, Note_on_c, 14, 59, 90
17, 64187, Note_on_c, 14, 59, 0
17, 64200, Note_on_c, 14, 64, 90
17, 64247, Note_on_c, 14, 64, 0
17, 64260, Note_on_c, 14, 56, 90
17, 64283, Note_on_c, 14, 56, 0
17, 64290, Note_on_c, 14, 57, 90
17, 64313, Note_on_c, 14, 57, 0
17, 64320, Note_on_c, 14, 59, 90
17, 64367, Note_on_c, 14, 59, 0
17, 64380, Note_on_c, 14, 47, 90
17, 64427, Note_on_c, 14, 47, 0
17, 64440, Note_on_c, 14, 52, 90
17, 64487, Note_on_c, 14, 52, 0
17, 64500, Note_on_c, 14, 40, 90
17, 64547, Note_on_c, 14, 40, 0
17, 64560, Note_on_c, 14, 40, 90
17, 64607, Note_on_c, 14, 40, 0
17, 64620, Note_on_c, 14, 40, 90
17, 64667, Note_on_c, 14, 40, 0
17, 64680, Note_on_c, 14, 40, 90
17, 64727, Note_on_c, 14, 40, 0
17, 64740, Note_on_c, 14, 40, 90
17, 64787, Note_on_c, 14, 40, 0
17, 64800, Note_on_c, 14, 40, 90
17, 64847, Note_on_c, 14, 40, 0
17, 64860, Note_on_c, 14, 52, 90
17, 64907, Note_on_c, 14, 52, 0
17, 64920, Note_on_c, 14, 52, 90
17, 64967, Note_on_c, 14, 52, 0
17, 64980, Note_on_c, 14, 56, 90
17, 65027, Note_on_c, 14, 56, 0
17, 65040, Note_on_c, 14, 59, 90
17, 65087, Note_on_c, 14, 59, 0
17, 65100, Note_on_c, 14, 47, 90
17, 65147, Note_on_c, 14, 47, 0
17, 65160, Note_on_c, 14, 52, 90
17, 65207, Note_on_c, 14, 52, 0
17, 65220, Note_on_c, 14, 40, 90
17, 65267, Note_on_c, 14, 40, 0
17, 65280, Note_on_c, 14, 40, 90
17, 65327, Note_on_c, 14, 40, 0
17, 65340, Note_on_c, 14, 40, 90
17, 65387, Note_on_c, 14, 40, 0
17, 65400, Note_on_c, 14, 40, 90
17, 65447, Note_on_c, 14, 40, 0
17, 65460, Note_on_c, 14, 40, 90
17, 65507, Note_on_c, 14, 40, 0
17, 65520, Note_on_c, 14, 40, 90
17, 65567, Note_on_c, 14, 40, 0
17, 65580, Note_on_c, 14, 52, 90
17, 65627, Note_on_c, 14, 52, 0
17, 65640, Note_on_c, 14, 52, 90
17, 65687, Note_on_c, 14, 52, 0
17, 65700, Note_on_c, 14, 56, 90
17, 65747, Note_on_c, 14, 56, 0
17, 65760, Note_on_c, 14, 59, 90
17, 65807, Note_on_c, 14, 59, 0
17, 65820, Note_on_c, 14, 47, 90
17, 65867, Note_on_c, 14, 47, 0
17, 65880, Note_on_c, 14, 52, 90
17, 65927, Note_on_c, 14, 52, 0
17, 65940, Note_on_c, 14, 40, 90
17, 65987, Note_on_c, 14, 40, 0
17, 66000, Note_on_c, 14, 40, 90
17, 66047, Note_on_c, 14, 40, 0
17, 66060, Note_on_c, 14, 52, 90
17, 66083, Note_on_c, 14, 52, 0
17, 66090, Note_on_c, 14, 54, 90
17, 66113, Note_on_c, 14, 54, 0
17, 66120, Note_on_c, 14, 52, 90
17, 66167, Note_on_c, 14, 52, 0
17, 66180, Note_on_c, 14, 50, 90
17, 66227, Note_on_c, 14, 50, 0
17, 66240, Note_on_c, 14, 49, 90
17, 66287, Note_on_c, 14, 49, 0
17, 66300, Note_on_c, 14, 61, 90
17, 66347, Note_on_c, 14, 61, 0
17, 66360, Note_on_c, 14, 61, 90
17, 66407, Note_on_c, 14, 61, 0
17, 66420, Note_on_c, 14, 49, 90
17, 66443, Note_on_c, 14, 49, 0
17, 66450, Note_on_c, 14, 47, 90
17, 66473, Note_on_c, 14, 47, 0
17, 66480, Note_on_c, 14, 49, 90
17, 66527, Note_on_c, 14, 49, 0
17, 66540, Note_on_c, 14, 45, 90
17, 66587, Note_on_c, 14, 45, 0
17, 66600, Note_on_c, 14, 44, 90
17, 66647, Note_on_c, 14, 44, 0
17, 66660, Note_on_c, 14, 40, 90
17, 66707, Note_on_c, 14, 40, 0
17, 66720, Note_on_c, 14, 40, 90
17, 66767, Note_on_c, 14, 40, 0
17, 66780, Note_on_c, 14, 44, 90
17, 66803, Note_on_c, 14, 44, 0
17, 66810, Note_on_c, 14, 42, 90
17, 66833, Note_on_c, 14, 42, 0
17, 66840, Note_on_c, 14, 44, 90
17, 66887, Note_on_c, 14, 44, 0
17, 66900, Note_on_c, 14, 40, 90
17, 66947, Note_on_c, 14, 40, 0
17, 66960, Note_on_c, 14, 45, 90
17, 67007, Note_on_c, 14, 45, 0
17, 67020, Note_on_c, 14, 57, 90
17, 67067, Note_on_c, 14, 57, 0
17, 67080, Note_on_c, 14, 57, 90
17, 67127, Note_on_c, 14, 57, 0
17, 67140, Note_on_c, 14, 57, 90
17, 67187, Note_on_c, 14, 57, 0
17, 67200, Note_on_c, 14, 57, 90
17, 67247, Note_on_c, 14, 57, 0
17, 67260, Note_on_c, 14, 57, 90
17, 67307, Note_on_c, 14, 57, 0
17, 67320, Note_on_c, 14, 57, 90
17, 67367, Note_on_c, 14, 57, 0
17, 67380, Note_on_c, 14, 45, 90
17, 67427, Note_on_c, 14, 45, 0
17, 67440, Note_on_c, 14, 45, 90
17, 67487, Note_on_c, 14, 45, 0
17, 67500, Note_on_c, 14, 49, 90
17, 67547, Note_on_c, 14, 49, 0
17, 67560, Note_on_c, 14, 52, 90
17, 67607, Note_on_c, 14, 52, 0
17, 67620, Note_on_c, 14, 40, 90
17, 67667, Note_on_c, 14, 40, 0
17, 67680, Note_on_c, 14, 45, 90
17, 67727, Note_on_c, 14, 45, 0
17, 67740, Note_on_c, 14, 57, 90
17, 67787, Note_on_c, 14, 57, 0
17, 67800, Note_on_c, 14, 57, 90
17, 67847, Note_on_c, 14, 57, 0
17, 67860, Note_on_c, 14, 57, 90
17, 67907, Note_on_c, 14, 57, 0
17, 67920, Note_on_c, 14, 57, 90
17, 67967, Note_on_c, 14, 57, 0
17, 67980, Note_on_c, 14, 57, 90
17, 68027, Note_on_c, 14, 57, 0
17, 68040, Note_on_c, 14, 57, 90
17, 68087, Note_on_c, 14, 57, 0
17, 68100, Note_on_c, 14, 45, 90
17, 68147, Note_on_c, 14, 45, 0
17, 68160, Note_on_c, 14, 45, 90
17, 68207, Note_on_c, 14, 45, 0
17, 68220, Note_on_c, 14, 49, 90
17, 68267, Note_on_c, 14, 49, 0
17, 68280, Note_on_c, 14, 52, 90
17, 68327, Note_on_c, 14, 52, 0
17, 68340, Note_on_c, 14, 40, 90
17, 68387, Note_on_c, 14, 40, 0
17, 68400, Note_on_c, 14, 45, 90
17, 68447, Note_on_c, 14, 45, 0
17, 68460, Note_on_c, 14, 57, 90
17, 68507, Note_on_c, 14, 57, 0
17, 68520, Note_on_c, 14, 57, 90
17, 68567, Note_on_c, 14, 57, 0
17, 68580, Note_on_c, 14, 45, 90
17, 68603, Note_on_c, 14, 45, 0
17, 68610, Note_on_c, 14, 47, 90
17, 68633, Note_on_c, 14, 47, 0
17, 68640, Note_on_c, 14, 45, 90
17, 68687, Note_on_c, 14, 45, 0
17, 68700, Note_on_c, 14, 43, 90
17, 68747, Note_on_c, 14, 43, 0
17, 68760, Note_on_c, 14, 42, 90
17, 68807, Note_on_c, 14, 42, 0
17, 68820, Note_on_c, 14, 54, 90
17, 68867, Note_on_c, 14, 54, 0
17, 68880, Note_on_c, 14, 54, 90
17, 68927, Note_on_c, 14, 54, 0
17, 68940, Note_on_c, 14, 42, 90
17, 68963, Note_on_c, 14, 42, 0
17, 68970, Note_on_c, 14, 40, 90
17, 68993, Note_on_c, 14, 40, 0
17, 69000, Note_on_c, 14, 42, 90
17, 69047, Note_on_c, 14, 42, 0
17, 69060, Note_on_c, 14, 50, 90
17, 69107, Note_on_c, 14, 50, 0
17, 69120, Note_on_c, 14, 49, 90
17, 69167, Note_on_c, 14, 49, 0
17, 69180, Note_on_c, 14, 57, 90
17, 69227, Note_on_c, 14, 57, 0
17, 69240, Note_on_c, 14, 57, 90
17, 69287, Note_on_c, 14, 57, 0
17, 69300, Note_on_c, 14, 49, 90
17, 69323, Note_on_c, 14, 49, 0
17, 69330, Note_on_c, 14, 47, 90
17, 69353, Note_on_c, 14, 47, 0
17, 69360, Note_on_c, 14, 49, 90
17, 69407, Note_on_c, 14, 49, 0
17, 69420, Note_on_c, 14, 45, 90
17, 69467, Note_on_c, 14, 45, 0
17, 69480, Note_on_c, 14, 50, 90
17, 69527, Note_on_c, 14, 50, 0
17, 69540, Note_on_c, 14, 62, 90
17, 69587, Note_on_c, 14, 62, 0
17, 69600, Note_on_c, 14, 62, 90
17, 69647, Note_on_c, 14, 62, 0
17, 69660, Note_on_c, 14, 62, 90
17, 69707, Note_on_c, 14, 62, 0
17, 69720, Note_on_c, 14, 62, 90
17, 69767, Note_on_c, 14, 62, 0
17, 69780, Note_on_c, 14, 62, 90
17, 69827, Note_on_c, 14, 62, 0
17, 69840, Note_on_c, 14, 50, 90
17, 69887, Note_on_c, 14, 50, 0
17, 69900, Note_on_c, 14, 62, 90
17, 69947, Note_on_c, 14, 62, 0
17, 69960, Note_on_c, 14, 62, 90
17, 70007, Note_on_c, 14, 62, 0
17, 70020, Note_on_c, 14, 50, 90
17, 70067, Note_on_c, 14, 50, 0
17, 70080, Note_on_c, 14, 49, 90
17, 70127, Note_on_c, 14, 49, 0
17, 70140, Note_on_c, 14, 47, 90
17, 70187, Note_on_c, 14, 47, 0
17, 70200, Note_on_c, 14, 49, 90
17, 70247, Note_on_c, 14, 49, 0
17, 70260, Note_on_c, 14, 61, 90
17, 70307, Note_on_c, 14, 61, 0
17, 70320, Note_on_c, 14, 61, 90
17, 70367, Note_on_c, 14, 61, 0
17, 70380, Note_on_c, 14, 61, 90
17, 70427, Note_on_c, 14, 61, 0
17, 70440, Note_on_c, 14, 61, 90
17, 70487, Note_on_c, 14, 61, 0
17, 70500, Note_on_c, 14, 61, 90
17, 70547, Note_on_c, 14, 61, 0
17, 70560, Note_on_c, 14, 49, 90
17, 70607, Note_on_c, 14, 49, 0
17, 70620, Note_on_c, 14, 61, 90
17, 70667, Note_on_c, 14, 61, 0
17, 70680, Note_on_c, 14, 61, 90
17, 70727, Note_on_c, 14, 61, 0
17, 70740, Note_on_c, 14, 49, 90
17, 70787, Note_on_c, 14, 49, 0
17, 70800, Note_on_c, 14, 47, 90
17, 70847, Note_on_c, 14, 47, 0
17, 70860, Note_on_c, 14, 45, 90
17, 70907, Note_on_c, 14, 45, 0
17, 70920, Note_on_c, 14, 47, 90
17, 70967, Note_on_c, 14, 47, 0
17, 70980, Note_on_c, 14, 59, 90
17, 71027, Note_on_c, 14, 59, 0
17, 71040, Note_on_c, 14, 59, 90
17, 71087, Note_on_c, 14, 59, 0
17, 71100, Note_on_c, 14, 45, 90
17, 71147, Note_on_c, 14, 45, 0
17, 71160, Note_on_c, 14, 44, 90
17, 71207, Note_on_c, 14, 44, 0
17, 71220, Note_on_c, 14, 42, 90
17, 71267, Note_on_c, 14, 42, 0
17, 71280, Note_on_c, 14, 44, 90
17, 71327, Note_on_c, 14, 44, 0
17, 71340, Note_on_c, 14, 56, 90
17, 71387, Note_on_c, 14, 56, 0
17, 71400, Note_on_c, 14, 56, 90
17, 71447, Note_on_c, 14, 56, 0
17, 71460, Note_on_c, 14, 44, 90
17, 71507, Note_on_c, 14, 44, 0
17, 71520, Note_on_c, 14, 42, 90
17, 71567, Note_on_c, 14, 42, 0
17, 71580, Note_on_c, 14, 40, 90
17, 71627, Note_on_c, 14, 40, 0
17, 71640, Note_on_c, 14, 45, 90
17, 71687, Note_on_c, 14, 45, 0
17, 71700, Note_on_c, 14, 54, 90
17, 71747, Note_on_c, 14, 54, 0
17, 71760, Note_on_c, 14, 49, 90
17, 71807, Note_on_c, 14, 49, 0
17, 71820, Note_on_c, 14, 47, 90
17, 71867, Note_on_c, 14, 47, 0
17, 71880, Note_on_c, 14, 49, 90
17, 71927, Note_on_c, 14, 49, 0
17, 71940, Note_on_c, 14, 50, 90
17, 71987, Note_on_c, 14, 50, 0
17, 72000, Note_on_c, 14, 52, 90
17, 72047, Note_on_c, 14, 52, 0
17, 72060, Note_on_c, 14, 40, 90
17, 72083, Note_on_c, 14, 40, 0
17, 72090, Note_on_c, 14, 38, 90
17, 72113, Note_on_c, 14, 38, 0
17, 72120, Note_on_c, 14, 40, 90
17, 72167, Note_on_c, 14, 40, 0
17, 72180, Note_on_c, 14, 44, 90
17, 72203, Note_on_c, 14, 44, 0
17, 72210, Note_on_c, 14, 42, 90
17, 72233, Note_on_c, 14, 42, 0
17, 72240, Note_on_c, 14, 44, 90
17, 72287, Note_on_c, 14, 44, 0
17, 72300, Note_on_c, 14, 40, 90
17, 72347, Note_on_c, 14, 40, 0
17, 72360, Note_on_c, 14, 45, 90
17, 72407, Note_on_c, 14, 45, 0
17, 72420, Note_on_c, 14, 44, 90
17, 72467, Note_on_c, 14, 44, 0
17, 72480, Note_on_c, 14, 42, 90
17, 72527, Note_on_c, 14, 42, 0
17, 72540, Note_on_c, 14, 44, 90
17, 72587, Note_on_c, 14, 44, 0
17, 72600, Note_on_c, 14, 45, 90
17, 72647, Note_on_c, 14, 45, 0
17, 72660, Note_on_c, 14, 49, 90
17, 72707, Note_on_c, 14, 49, 0
17, 72720, Note_on_c, 14, 50, 90
17, 72767, Note_on_c, 14, 50, 0
17, 72780, Note_on_c, 14, 49, 90
17, 72827, Note_on_c, 14, 49, 0
17, 72840, Note_on_c, 14, 47, 90
17, 72887, Note_on_c, 14, 47, 0
17, 72900, Note_on_c, 14, 44, 90
17, 72947, Note_on_c, 14, 44, 0
17, 72960, Note_on_c, 14, 49, 90
17, 73007, Note_on_c, 14, 49, 0
17, 73020, Note_on_c, 14, 45, 90
17, 73067, Note_on_c, 14, 45, 0
17, 73080, Note_on_c, 14, 54, 90
17, 73127, Note_on_c, 14, 54, 0
17, 73140, Note_on_c, 14, 50, 90
17, 73187, Note_on_c, 14, 50, 0
17, 73200, Note_on_c, 14, 47, 90
17, 73247, Note_on_c, 14, 47, 0
17, 73260, Note_on_c, 14, 42, 90
17, 73307, Note_on_c, 14, 42, 0
17, 73320, Note_on_c, 14, 44, 90
17, 73367, Note_on_c, 14, 44, 0
17, 73380, Note_on_c, 14, 45, 90
17, 73427, Note_on_c, 14, 45, 0
17, 73440, Note_on_c, 14, 40, 90
17, 73487, Note_on_c, 14, 40, 0
17, 73500, Note_on_c, 14, 52, 90
17, 73523, Note_on_c, 14, 52, 0
17, 73530, Note_on_c, 14, 54, 90
17, 73553, Note_on_c, 14, 54, 0
17, 73560, Note_on_c, 14, 56, 90
17, 73607, Note_on_c, 14, 56, 0
17, 73620, Note_on_c, 14, 59, 90
17, 73667, Note_on_c, 14, 59, 0
17, 73680, Note_on_c, 14, 56, 90
17, 73727, Note_on_c, 14, 56, 0
17, 73740, Note_on_c, 14, 52, 90
17, 73787, Note_on_c, 14, 52, 0
17, 73800, Note_on_c, 14, 57, 90
17, 73847, Note_on_c, 14, 57, 0
17, 73860, Note_on_c, 14, 45, 90
17, 73883, Note_on_c, 14, 45, 0
17, 73890, Note_on_c, 14, 47, 90
17, 73913, Note_on_c, 14, 47, 0
17, 73920, Note_on_c, 14, 49, 90
17, 73967, Note_on_c, 14, 49, 0
17, 73980, Note_on_c, 14, 52, 90
17, 74027, Note_on_c, 14, 52, 0
17, 74040, Note_on_c, 14, 49, 90
17, 74087, Note_on_c, 14, 49, 0
17, 74100, Note_on_c, 14, 45, 90
17, 74147, Note_on_c, 14, 45, 0
17, 74160, Note_on_c, 14, 38, 90
17, 74207, Note_on_c, 14, 38, 0
17, 74220, Note_on_c, 14, 50, 90
17, 74243, Note_on_c, 14, 50, 0
17, 74250, Note_on_c, 14, 52, 90
17, 74273, Note_on_c, 14, 52, 0
17, 74280, Note_on_c, 14, 54, 90
17, 74327, Note_on_c, 14, 54, 0
17, 74340, Note_on_c, 14, 57, 90
17, 74387, Note_on_c, 14, 57, 0
17, 74400, Note_on_c, 14, 54, 90
17, 74447, Note_on_c, 14, 54, 0
17, 74460, Note_on_c, 14, 50, 90
17, 74507, Note_on_c, 14, 50, 0
17, 74520, Note_on_c, 14, 55, 90
17, 74567, Note_on_c, 14, 55, 0
17, 74580, Note_on_c, 14, 54, 90
17, 74627, Note_on_c, 14, 54, 0
17, 74640, Note_on_c, 14, 52, 90
17, 74687, Note_on_c, 14, 52, 0
17, 74700, Note_on_c, 14, 50, 90
17, 74747, Note_on_c, 14, 50, 0
17, 74760, Note_on_c, 14, 49, 90
17, 74807, Note_on_c, 14, 49, 0
17, 74820, Note_on_c, 14, 50, 90
17, 74867, Note_on_c, 14, 50, 0
17, 74880, Note_on_c, 14, 57, 90
17, 74927, Note_on_c, 14, 57, 0
17, 74940, Note_on_c, 14, 45, 90
17, 74963, Note_on_c, 14, 45, 0
17, 74970, Note_on_c, 14, 47, 90
17, 74993, Note_on_c, 14, 47, 0
17, 75000, Note_on_c, 14, 49, 90
17, 75047, Note_on_c, 14, 49, 0
17, 75060, Note_on_c, 14, 52, 90
17, 75107, Note_on_c, 14, 52, 0
17, 75120, Note_on_c, 14, 49, 90
17, 75167, Note_on_c, 14, 49, 0
17, 75180, Note_on_c, 14, 45, 90
17, 75227, Note_on_c, 14, 45, 0
17, 75240, Note_on_c, 14, 50, 90
17, 75287, Note_on_c, 14, 50, 0
17, 75300, Note_on_c, 14, 49, 90
17, 75347, Note_on_c, 14, 49, 0
17, 75360, Note_on_c, 14, 47, 90
17, 75407, Note_on_c, 14, 47, 0
17, 75420, Note_on_c, 14, 45, 90
17, 75467, Note_on_c, 14, 45, 0
17, 75480, Note_on_c, 14, 44, 90
17, 75527, Note_on_c, 14, 44, 0
17, 75540, Note_on_c, 14, 45, 90
17, 75587, Note_on_c, 14, 45, 0
17, 75600, Note_on_c, 14, 52, 90
17, 75647, Note_on_c, 14, 52, 0
17, 75660, Note_on_c, 14, 40, 90
17, 75683, Note_on_c, 14, 40, 0
17, 75690, Note_on_c, 14, 42, 90
17, 75713, Note_on_c, 14, 42, 0
17, 75720, Note_on_c, 14, 44, 90
17, 75767, Note_on_c, 14, 44, 0
17, 75780, Note_on_c, 14, 47, 90
17, 75827, Note_on_c, 14, 47, 0
17, 75840, Note_on_c, 14, 44, 90
17, 75887, Note_on_c, 14, 44, 0
17, 75900, Note_on_c, 14, 40, 90
17, 75947, Note_on_c, 14, 40, 0
17, 75960, Note_on_c, 14, 45, 90
17, 76007, Note_on_c, 14, 45, 0
17, 76020, Note_on_c, 14, 57, 90
17, 76067, Note_on_c, 14, 57, 0
17, 76140, Note_on_c, 14, 49, 90
17, 76187, Note_on_c, 14, 49, 0
17, 76200, Note_on_c, 14, 45, 90
17, 76247, Note_on_c, 14, 45, 0
17, 76260, Note_on_c, 14, 49, 90
17, 76307, Note_on_c, 14, 49, 0
17, 76320, Note_on_c, 14, 50, 90
17, 76367, Note_on_c, 14, 50, 0
17, 76380, Note_on_c, 14, 62, 90
17, 76427, Note_on_c, 14, 62, 0
17, 76440, Note_on_c, 14, 57, 90
17, 76487, Note_on_c, 14, 57, 0
17, 76500, Note_on_c, 14, 54, 90
17, 76547, Note_on_c, 14, 54, 0
17, 76560, Note_on_c, 14, 50, 90
17, 76607, Note_on_c, 14, 50, 0
17, 76620, Note_on_c, 14, 49, 90
17, 76667, Note_on_c, 14, 49, 0
17, 76680, Note_on_c, 14, 51, 90
17, 76727, Note_on_c, 14, 51, 0
17, 76740, Note_on_c, 14, 47, 90
17, 76787, Note_on_c, 14, 47, 0
17, 76860, Note_on_c, 14, 47, 90
17, 76907, Note_on_c, 14, 47, 0
17, 76920, Note_on_c, 14, 51, 90
17, 76967, Note_on_c, 14, 51, 0
17, 76980, Note_on_c, 14, 47, 90
17, 77027, Note_on_c, 14, 47, 0
17, 77040, Note_on_c, 14, 52, 90
17, 77087, Note_on_c, 14, 52, 0
17, 77100, Note_on_c, 14, 64, 90
17, 77147, Note_on_c, 14, 64, 0
17, 77160, Note_on_c, 14, 59, 90
17, 77207, Note_on_c, 14, 59, 0
17, 77220, Note_on_c, 14, 56, 90
17, 77267, Note_on_c, 14, 56, 0
17, 77280, Note_on_c, 14, 52, 90
17, 77327, Note_on_c, 14, 52, 0
17, 77340, Note_on_c, 14, 47, 90
17, 77387, Note_on_c, 14, 47, 0
17, 77400, Note_on_c, 14, 52, 90
17, 77447, Note_on_c, 14, 52, 0
17, 77460, Note_on_c, 14, 40, 90
17, 77507, Note_on_c, 14, 40, 0
17, 77580, Note_on_c, 14, 52, 90
17, 77627, Note_on_c, 14, 52, 0
17, 77640, Note_on_c, 14, 56, 90
17, 77687, Note_on_c, 14, 56, 0
17, 77700, Note_on_c, 14, 59, 90
17, 77747, Note_on_c, 14, 59, 0
17, 77760, Note_on_c, 14, 61, 90
17, 77807, Note_on_c, 14, 61, 0
17, 77820, Note_on_c, 14, 57, 90
17, 77867, Note_on_c, 14, 57, 0
17, 77880, Note_on_c, 14, 61, 90
17, 77927, Note_on_c, 14, 61, 0
17, 77940, Note_on_c, 14, 57, 90
17, 77987, Note_on_c, 14, 57, 0
17, 78000, Note_on_c, 14, 61, 90
17, 78047, Note_on_c, 14, 61, 0
17, 78060, Note_on_c, 14, 57, 90
17, 78107, Note_on_c, 14, 57, 0
17, 78120, Note_on_c, 14, 62, 90
17, 78167, Note_on_c, 14, 62, 0
17, 78180, Note_on_c, 14, 54, 90
17, 78227, Note_on_c, 14, 54, 0
17, 78240, Note_on_c, 14, 54, 90
17, 78287, Note_on_c, 14, 54, 0
17, 78300, Note_on_c, 14, 50, 90
17, 78347, Note_on_c, 14, 50, 0
17, 78360, Note_on_c, 14, 50, 90
17, 78407, Note_on_c, 14, 50, 0
17, 78420, Note_on_c, 14, 57, 90
17, 78467, Note_on_c, 14, 57, 0
17, 78480, Note_on_c, 14, 57, 90
17, 78527, Note_on_c, 14, 57, 0
17, 78540, Note_on_c, 14, 45, 90
17, 78587, Note_on_c, 14, 45, 0
17, 78600, Note_on_c, 14, 45, 90
17, 78647, Note_on_c, 14, 45, 0
17, 78660, Note_on_c, 14, 42, 90
17, 78707, Note_on_c, 14, 42, 0
17, 78720, Note_on_c, 14, 42, 90
17, 78767, Note_on_c, 14, 42, 0
17, 78780, Note_on_c, 14, 47, 90
17, 78827, Note_on_c, 14, 47, 0
17, 78840, Note_on_c, 14, 47, 90
17, 78887, Note_on_c, 14, 47, 0
17, 78900, Note_on_c, 14, 52, 90
17, 78947, Note_on_c, 14, 52, 0
17, 78960, Note_on_c, 14, 52, 90
17, 79007, Note_on_c, 14, 52, 0
17, 79020, Note_on_c, 14, 44, 90
17, 79067, Note_on_c, 14, 44, 0
17, 79080, Note_on_c, 14, 44, 90
17, 79127, Note_on_c, 14, 44, 0
17, 79140, Note_on_c, 14, 40, 90
17, 79187, Note_on_c, 14, 40, 0
17, 79200, Note_on_c, 14, 45, 90
17, 79247, Note_on_c, 14, 45, 0
17, 79260, Note_on_c, 14, 44, 90
17, 79283, Note_on_c, 14, 44, 0
17, 79290, Note_on_c, 14, 45, 90
17, 79313, Note_on_c, 14, 45, 0
17, 79320, Note_on_c, 14, 47, 90
17, 79367, Note_on_c, 14, 47, 0
17, 79380, Note_on_c, 14, 45, 90
17, 79403, Note_on_c, 14, 45, 0
17, 79410, Note_on_c, 14, 47, 90
17, 79433, Note_on_c, 14, 47, 0
17, 79440, Note_on_c, 14, 49, 90
17, 79487, Note_on_c, 14, 49, 0
17, 79500, Note_on_c, 14, 47, 90
17, 79523, Note_on_c, 14, 47, 0
17, 79530, Note_on_c, 14, 49, 90
17, 79553, Note_on_c, 14, 49, 0
17, 79560, Note_on_c, 14, 50, 90
17, 79607, Note_on_c, 14, 50, 0
17, 79620, Note_on_c, 14, 49, 90
17, 79643, Note_on_c, 14, 49, 0
17, 79650, Note_on_c, 14, 50, 90
17, 79673, Note_on_c, 14, 50, 0
17, 79680, Note_on_c, 14, 52, 90
17, 79727, Note_on_c, 14, 52, 0
17, 79740, Note_on_c, 14, 50, 90
17, 79763, Note_on_c, 14, 50, 0
17, 79770, Note_on_c, 14, 52, 90
17, 79793, Note_on_c, 14, 52, 0
17, 79800, Note_on_c, 14, 54, 90
17, 79847, Note_on_c, 14, 54, 0
17, 79860, Note_on_c, 14, 52, 90
17, 79883, Note_on_c, 14, 52, 0
17, 79890, Note_on_c, 14, 54, 90
17, 79913, Note_on_c, 14, 54, 0
17, 79920, Note_on_c, 14, 56, 90
17, 79967, Note_on_c, 14, 56, 0
17, 79980, Note_on_c, 14, 52, 90
17, 80027, Note_on_c, 14, 52, 0
17, 80040, Note_on_c, 14, 57, 90
17, 80087, Note_on_c, 14, 57, 0
17, 80100, Note_on_c, 14, 49, 90
17, 80123, Note_on_c, 14, 49, 0
17, 80130, Note_on_c, 14, 50, 90
17, 80153, Note_on_c, 14, 50, 0
17, 80160, Note_on_c, 14, 52, 90
17, 80207, Note_on_c, 14, 52, 0
17, 80220, Note_on_c, 14, 40, 90
17, 80267, Note_on_c, 14, 40, 0
17, 80280, Note_on_c, 14, 45, 90
17, 80400, Note_on_c, 14, 45, 0
17, 80640, Note_on_c, 14, 42, 100
17, 81600, Note_on_c, 14, 42, 0
17, 81600, Note_on_c, 14, 44, 100
17, 82080, Note_on_c, 14, 44, 0
17, 82080, Note_on_c, 14, 46, 100
17, 83280, Note_on_c, 14, 46, 0
17, 83280, Note_on_c, 14, 47, 100
17, 83400, Note_on_c, 14, 47, 0
17, 83400, Note_on_c, 14, 50, 100
17, 83520, Note_on_c, 14, 50, 0
17, 83640, Note_on_c, 14, 54, 90
17, 83759, Note_on_c, 14, 54, 0
17, 83760, Note_on_c, 14, 47, 90
17, 83879, Note_on_c, 14, 47, 0
17, 84000, Note_on_c, 14, 46, 90
17, 84119, Note_on_c, 14, 46, 0
17, 84180, Note_on_c, 14, 42, 90
17, 84239, Note_on_c, 14, 42, 0
17, 84240, Note_on_c, 14, 47, 90
17, 84359, Note_on_c, 14, 47, 0
17, 84420, Note_on_c, 14, 59, 90
17, 84479, Note_on_c, 14, 59, 0
17, 84480, Note_on_c, 14, 55, 90
17, 84539, Note_on_c, 14, 55, 0
17, 84540, Note_on_c, 14, 55, 90
17, 84599, Note_on_c, 14, 55, 0
17, 84600, Note_on_c, 14, 59, 90
17, 84659, Note_on_c, 14, 59, 0
17, 84660, Note_on_c, 14, 55, 90
17, 84719, Note_on_c, 14, 55, 0
17, 84720, Note_on_c, 14, 52, 90
17, 84779, Note_on_c, 14, 52, 0
17, 84780, Note_on_c, 14, 52, 90
17, 84839, Note_on_c, 14, 52, 0
17, 84840, Note_on_c, 14, 52, 90
17, 84899, Note_on_c, 14, 52, 0
17, 84900, Note_on_c, 14, 54, 90
17, 84929, Note_on_c, 14, 54, 0
17, 84930, Note_on_c, 14, 55, 90
17, 84959, Note_on_c, 14, 55, 0
17, 84960, Note_on_c, 14, 57, 90
17, 85019, Note_on_c, 14, 57, 0
17, 85020, Note_on_c, 14, 45, 90
17, 85079, Note_on_c, 14, 45, 0
17, 85140, Note_on_c, 14, 57, 90
17, 85199, Note_on_c, 14, 57, 0
17, 85200, Note_on_c, 14, 54, 90
17, 85259, Note_on_c, 14, 54, 0
17, 85260, Note_on_c, 14, 54, 90
17, 85319, Note_on_c, 14, 54, 0
17, 85320, Note_on_c, 14, 57, 90
17, 85379, Note_on_c, 14, 57, 0
17, 85380, Note_on_c, 14, 54, 90
17, 85439, Note_on_c, 14, 54, 0
17, 85440, Note_on_c, 14, 50, 90
17, 85499, Note_on_c, 14, 50, 0
17, 85500, Note_on_c, 14, 50, 90
17, 85559, Note_on_c, 14, 50, 0
17, 85560, Note_on_c, 14, 50, 90
17, 85619, Note_on_c, 14, 50, 0
17, 85620, Note_on_c, 14, 52, 90
17, 85649, Note_on_c, 14, 52, 0
17, 85650, Note_on_c, 14, 54, 90
17, 85679, Note_on_c, 14, 54, 0
17, 85680, Note_on_c, 14, 55, 90
17, 85739, Note_on_c, 14, 55, 0
17, 85740, Note_on_c, 14, 43, 90
17, 85799, Note_on_c, 14, 43, 0
17, 85860, Note_on_c, 14, 60, 90
17, 85919, Note_on_c, 14, 60, 0
17, 85920, Note_on_c, 14, 51, 90
17, 86279, Note_on_c, 14, 51, 0
17, 86280, Note_on_c, 14, 47, 90
17, 86399, Note_on_c, 14, 47, 0
17, 86400, Note_on_c, 14, 52, 90
17, 86639, Note_on_c, 14, 52, 0
17, 86640, Note_on_c, 14, 45, 90
17, 86879, Note_on_c, 14, 45, 0
17, 86880, Note_on_c, 14, 48, 90
17, 87119, Note_on_c, 14, 48, 0
17, 87240, Note_on_c, 14, 47, 90
17, 87359, Note_on_c, 14, 47, 0
17, 87360, Note_on_c, 14, 40, 90
17, 87419, Note_on_c, 14, 40, 0
17, 87420, Note_on_c, 14, 52, 90
17, 87479, Note_on_c, 14, 52, 0
17, 87480, Note_on_c, 14, 52, 90
17, 87539, Note_on_c, 14, 52, 0
17, 87540, Note_on_c, 14, 54, 90
17, 87599, Note_on_c, 14, 54, 0
17, 87600, Note_on_c, 14, 55, 90
17, 87659, Note_on_c, 14, 55, 0
17, 87660, Note_on_c, 14, 55, 90
17, 87719, Note_on_c, 14, 55, 0
17, 87720, Note_on_c, 14, 55, 90
17, 87779, Note_on_c, 14, 55, 0
17, 87780, Note_on_c, 14, 57, 90
17, 87839, Note_on_c, 14, 57, 0
17, 87840, Note_on_c, 14, 59, 90
17, 87899, Note_on_c, 14, 59, 0
17, 87900, Note_on_c, 14, 47, 90
17, 87959, Note_on_c, 14, 47, 0
17, 87960, Note_on_c, 14, 45, 90
17, 88019, Note_on_c, 14, 45, 0
17, 88020, Note_on_c, 14, 43, 90
17, 88079, Note_on_c, 14, 43, 0
17, 88080, Note_on_c, 14, 42, 90
17, 88139, Note_on_c, 14, 42, 0
17, 88140, Note_on_c, 14, 54, 90
17, 88199, Note_on_c, 14, 54, 0
17, 88200, Note_on_c, 14, 52, 90
17, 88259, Note_on_c, 14, 52, 0
17, 88260, Note_on_c, 14, 50, 90
17, 88319, Note_on_c, 14, 50, 0
17, 88320, Note_on_c, 14, 57, 90
17, 88379, Note_on_c, 14, 57, 0
17, 88380, Note_on_c, 14, 45, 90
17, 88439, Note_on_c, 14, 45, 0
17, 88440, Note_on_c, 14, 43, 90
17, 88499, Note_on_c, 14, 43, 0
17, 88500, Note_on_c, 14, 42, 90
17, 88559, Note_on_c, 14, 42, 0
17, 88560, Note_on_c, 14, 40, 90
17, 88619, Note_on_c, 14, 40, 0
17, 88620, Note_on_c, 14, 47, 90
17, 88679, Note_on_c, 14, 47, 0
17, 88680, Note_on_c, 14, 47, 90
17, 88739, Note_on_c, 14, 47, 0
17, 88740, Note_on_c, 14, 49, 90
17, 88799, Note_on_c, 14, 49, 0
17, 88800, Note_on_c, 14, 50, 90
17, 88859, Note_on_c, 14, 50, 0
17, 88860, Note_on_c, 14, 50, 90
17, 88919, Note_on_c, 14, 50, 0
17, 88920, Note_on_c, 14, 49, 90
17, 88979, Note_on_c, 14, 49, 0
17, 88980, Note_on_c, 14, 47, 90
17, 89039, Note_on_c, 14, 47, 0
17, 89040, Note_on_c, 14, 49, 90
17, 89099, Note_on_c, 14, 49, 0
17, 89100, Note_on_c, 14, 49, 90
17, 89159, Note_on_c, 14, 49, 0
17, 89160, Note_on_c, 14, 49, 90
17, 89219, Note_on_c, 14, 49, 0
17, 89220, Note_on_c, 14, 51, 90
17, 89279, Note_on_c, 14, 51, 0
17, 89280, Note_on_c, 14, 52, 90
17, 89339, Note_on_c, 14, 52, 0
17, 89340, Note_on_c, 14, 50, 90
17, 89399, Note_on_c, 14, 50, 0
17, 89400, Note_on_c, 14, 49, 90
17, 89519, Note_on_c, 14, 49, 0
17, 89520, Note_on_c, 14, 47, 90
17, 89579, Note_on_c, 14, 47, 0
17, 89580, Note_on_c, 14, 59, 90
17, 89639, Note_on_c, 14, 59, 0
17, 89640, Note_on_c, 14, 57, 90
17, 89699, Note_on_c, 14, 57, 0
17, 89700, Note_on_c, 14, 56, 90
17, 89759, Note_on_c, 14, 56, 0
17, 89760, Note_on_c, 14, 54, 90
17, 89819, Note_on_c, 14, 54, 0
17, 89820, Note_on_c, 14, 42, 90
17, 89879, Note_on_c, 14, 42, 0
17, 89880, Note_on_c, 14, 47, 90
17, 89939, Note_on_c, 14, 47, 0
17, 89940, Note_on_c, 14, 45, 90
17, 89999, Note_on_c, 14, 45, 0
17, 90000, Note_on_c, 14, 43, 90
17, 90059, Note_on_c, 14, 43, 0
17, 90060, Note_on_c, 14, 42, 90
17, 90119, Note_on_c, 14, 42, 0
17, 90120, Note_on_c, 14, 40, 90
17, 90179, Note_on_c, 14, 40, 0
17, 90180, Note_on_c, 14, 52, 90
17, 90239, Note_on_c, 14, 52, 0
17, 90240, Note_on_c, 14, 50, 90
17, 90299, Note_on_c, 14, 50, 0
17, 90300, Note_on_c, 14, 49, 90
17, 90359, Note_on_c, 14, 49, 0
17, 90360, Note_on_c, 14, 47, 90
17, 90419, Note_on_c, 14, 47, 0
17, 90420, Note_on_c, 14, 49, 90
17, 90479, Note_on_c, 14, 49, 0
17, 90480, Note_on_c, 14, 42, 90
17, 90599, Note_on_c, 14, 42, 0
17, 90720, Note_on_c, 14, 54, 90
17, 90779, Note_on_c, 14, 54, 0
17, 90780, Note_on_c, 14, 52, 90
17, 90839, Note_on_c, 14, 52, 0
17, 90840, Note_on_c, 14, 50, 90
17, 91019, Note_on_c, 14, 50, 0
17, 91020, Note_on_c, 14, 49, 90
17, 91079, Note_on_c, 14, 49, 0
17, 91080, Note_on_c, 14, 47, 90
17, 91139, Note_on_c, 14, 47, 0
17, 91140, Note_on_c, 14, 52, 90
17, 91199, Note_on_c, 14, 52, 0
17, 91200, Note_on_c, 14, 57, 90
17, 91259, Note_on_c, 14, 57, 0
17, 91260, Note_on_c, 14, 45, 90
17, 91319, Note_on_c, 14, 45, 0
17, 91320, Note_on_c, 14, 57, 90
17, 91379, Note_on_c, 14, 57, 0
17, 91380, Note_on_c, 14, 55, 90
17, 91439, Note_on_c, 14, 55, 0
17, 91440, Note_on_c, 14, 54, 90
17, 91499, Note_on_c, 14, 54, 0
17, 91500, Note_on_c, 14, 52, 90
17, 91559, Note_on_c, 14, 52, 0
17, 91560, Note_on_c, 14, 50, 90
17, 91619, Note_on_c, 14, 50, 0
17, 91620, Note_on_c, 14, 52, 90
17, 91649, Note_on_c, 14, 52, 0
17, 91650, Note_on_c, 14, 54, 90
17, 91679, Note_on_c, 14, 54, 0
17, 91680, Note_on_c, 14, 55, 90
17, 91739, Note_on_c, 14, 55, 0
17, 91740, Note_on_c, 14, 57, 90
17, 91799, Note_on_c, 14, 57, 0
17, 91800, Note_on_c, 14, 55, 90
17, 91859, Note_on_c, 14, 55, 0
17, 91860, Note_on_c, 14, 54, 90
17, 91919, Note_on_c, 14, 54, 0
17, 91920, Note_on_c, 14, 52, 90
17, 92039, Note_on_c, 14, 52, 0
17, 92040, Note_on_c, 14, 50, 90
17, 92099, Note_on_c, 14, 50, 0
17, 92100, Note_on_c, 14, 47, 90
17, 92159, Note_on_c, 14, 47, 0
17, 92160, Note_on_c, 14, 43, 90
17, 92399, Note_on_c, 14, 43, 0
17, 92400, Note_on_c, 14, 42, 90
17, 92519, Note_on_c, 14, 42, 0
17, 92520, Note_on_c, 14, 46, 90
17, 93120, Note_on_c, 14, 46, 0
17, 93120, Note_on_c, 14, 47, 90
17, 93359, Note_on_c, 14, 47, 0
17, 93360, Note_on_c, 14, 52, 90
17, 93479, Note_on_c, 14, 52, 0
17, 93480, Note_on_c, 14, 45, 90
17, 93599, Note_on_c, 14, 45, 0
17, 93600, Note_on_c, 14, 50, 90
17, 94320, Note_on_c, 14, 50, 0
17, 94320, Note_on_c, 14, 51, 90
17, 94679, Note_on_c, 14, 51, 0
17, 94680, Note_on_c, 14, 47, 90
17, 94799, Note_on_c, 14, 47, 0
17, 94800, Note_on_c, 14, 52, 90
17, 95039, Note_on_c, 14, 52, 0
17, 95040, Note_on_c, 14, 50, 90
17, 95279, Note_on_c, 14, 50, 0
17, 95280, Note_on_c, 14, 49, 90
17, 95519, Note_on_c, 14, 49, 0
17, 95520, Note_on_c, 14, 47, 90
17, 96239, Note_on_c, 14, 47, 0
17, 96240, Note_on_c, 14, 45, 90
17, 96479, Note_on_c, 14, 45, 0
17, 96480, Note_on_c, 14, 44, 90
17, 96599, Note_on_c, 14, 44, 0
17, 96600, Note_on_c, 14, 42, 90
17, 96719, Note_on_c, 14, 42, 0
17, 96720, Note_on_c, 14, 41, 90
17, 96839, Note_on_c, 14, 41, 0
17, 96840, Note_on_c, 14, 42, 90
17, 96959, Note_on_c, 14, 42, 0
17, 96960, Note_on_c, 14, 38, 90
17, 97079, Note_on_c, 14, 38, 0
17, 97080, Note_on_c, 14, 50, 90
17, 97199, Note_on_c, 14, 50, 0
17, 97200, Note_on_c, 14, 49, 90
17, 97439, Note_on_c, 14, 49, 0
17, 97800, Note_on_c, 14, 54, 90
17, 97919, Note_on_c, 14, 54, 0
17, 97920, Note_on_c, 14, 61, 90
17, 98039, Note_on_c, 14, 61, 0
17, 98040, Note_on_c, 14, 59, 90
17, 98099, Note_on_c, 14, 59, 0
17, 98100, Note_on_c, 14, 57, 90
17, 98159, Note_on_c, 14, 57, 0
17, 98160, Note_on_c, 14, 56, 90
17, 98279, Note_on_c, 14, 56, 0
17, 98280, Note_on_c, 14, 57, 90
17, 98459, Note_on_c, 14, 57, 0
17, 98460, Note_on_c, 14, 55, 90
17, 98519, Note_on_c, 14, 55, 0
17, 98520, Note_on_c, 14, 54, 90
17, 98579, Note_on_c, 14, 54, 0
17, 98580, Note_on_c, 14, 52, 90
17, 98639, Note_on_c, 14, 52, 0
17, 98640, Note_on_c, 14, 54, 90
17, 98699, Note_on_c, 14, 54, 0
17, 98700, Note_on_c, 14, 50, 90
17, 98759, Note_on_c, 14, 50, 0
17, 98760, Note_on_c, 14, 52, 90
17, 98819, Note_on_c, 14, 52, 0
17, 98820, Note_on_c, 14, 40, 90
17, 98879, Note_on_c, 14, 40, 0
17, 98880, Note_on_c, 14, 45, 90
17, 99119, Note_on_c, 14, 45, 0
17, 99240, Note_on_c, 14, 50, 90
17, 99359, Note_on_c, 14, 50, 0
17, 99360, Note_on_c, 14, 51, 90
17, 99419, Note_on_c, 14, 51, 0
17, 99420, Note_on_c, 14, 52, 90
17, 99539, Note_on_c, 14, 52, 0
17, 99540, Note_on_c, 14, 53, 90
17, 99659, Note_on_c, 14, 53, 0
17, 99660, Note_on_c, 14, 54, 90
17, 99719, Note_on_c, 14, 54, 0
17, 99720, Note_on_c, 14, 56, 90
17, 99779, Note_on_c, 14, 56, 0
17, 99780, Note_on_c, 14, 57, 90
17, 99839, Note_on_c, 14, 57, 0
17, 99840, Note_on_c, 14, 56, 90
17, 99899, Note_on_c, 14, 56, 0
17, 99900, Note_on_c, 14, 52, 90
17, 99959, Note_on_c, 14, 52, 0
17, 99960, Note_on_c, 14, 59, 90
17, 100019, Note_on_c, 14, 59, 0
17, 100020, Note_on_c, 14, 47, 90
17, 100079, Note_on_c, 14, 47, 0
17, 100080, Note_on_c, 14, 52, 90
17, 100175, Note_on_c, 14, 52, 0
17, 100200, Note_on_c, 14, 57, 90
17, 100259, Note_on_c, 14, 57, 0
17, 100260, Note_on_c, 14, 56, 90
17, 100319, Note_on_c, 14, 56, 0
17, 100320, Note_on_c, 14, 54, 90
17, 100379, Note_on_c, 14, 54, 0
17, 100380, Note_on_c, 14, 52, 90
17, 100439, Note_on_c, 14, 52, 0
17, 100440, Note_on_c, 14, 50, 90
17, 100499, Note_on_c, 14, 50, 0
17, 100500, Note_on_c, 14, 49, 90
17, 100559, Note_on_c, 14, 49, 0
17, 100560, Note_on_c, 14, 47, 90
17, 100679, Note_on_c, 14, 47, 0
17, 100680, Note_on_c, 14, 52, 90
17, 100739, Note_on_c, 14, 52, 0
17, 100740, Note_on_c, 14, 50, 90
17, 100799, Note_on_c, 14, 50, 0
17, 100800, Note_on_c, 14, 49, 90
17, 100859, Note_on_c, 14, 49, 0
17, 100860, Note_on_c, 14, 47, 90
17, 100919, Note_on_c, 14, 47, 0
17, 100920, Note_on_c, 14, 45, 90
17, 101039, Note_on_c, 14, 45, 0
17, 101040, Note_on_c, 14, 52, 90
17, 101135, Note_on_c, 14, 52, 0
17, 101160, Note_on_c, 14, 45, 90
17, 101279, Note_on_c, 14, 45, 0
17, 101280, Note_on_c, 14, 50, 90
17, 101339, Note_on_c, 14, 50, 0
17, 101340, Note_on_c, 14, 52, 90
17, 101399, Note_on_c, 14, 52, 0
17, 101400, Note_on_c, 14, 50, 90
17, 101459, Note_on_c, 14, 50, 0
17, 101460, Note_on_c, 14, 49, 90
17, 101519, Note_on_c, 14, 49, 0
17, 101520, Note_on_c, 14, 47, 90
17, 101615, Note_on_c, 14, 47, 0
17, 101640, Note_on_c, 14, 54, 90
17, 101759, Note_on_c, 14, 54, 0
17, 101760, Note_on_c, 14, 55, 90
17, 101819, Note_on_c, 14, 55, 0
17, 101820, Note_on_c, 14, 54, 90
17, 101879, Note_on_c, 14, 54, 0
17, 101880, Note_on_c, 14, 52, 90
17, 101999, Note_on_c, 14, 52, 0
17, 102000, Note_on_c, 14, 50, 90
17, 102095, Note_on_c, 14, 50, 0
17, 102120, Note_on_c, 14, 45, 90
17, 102239, Note_on_c, 14, 45, 0
17, 102240, Note_on_c, 14, 52, 90
17, 102539, Note_on_c, 14, 52, 0
17, 102540, Note_on_c, 14, 54, 90
17, 102599, Note_on_c, 14, 54, 0
17, 102600, Note_on_c, 14, 56, 90
17, 102659, Note_on_c, 14, 56, 0
17, 102660, Note_on_c, 14, 52, 90
17, 102719, Note_on_c, 14, 52, 0
17, 102720, Note_on_c, 14, 57, 90
17, 102779, Note_on_c, 14, 57, 0
17, 102780, Note_on_c, 14, 56, 90
17, 102839, Note_on_c, 14, 56, 0
17, 102840, Note_on_c, 14, 54, 90
17, 102899, Note_on_c, 14, 54, 0
17, 102900, Note_on_c, 14, 52, 90
17, 102959, Note_on_c, 14, 52, 0
17, 102960, Note_on_c, 14, 50, 90
17, 103019, Note_on_c, 14, 50, 0
17, 103020, Note_on_c, 14, 47, 90
17, 103079, Note_on_c, 14, 47, 0
17, 103080, Note_on_c, 14, 52, 90
17, 103199, Note_on_c, 14, 52, 0
17, 103200, Note_on_c, 14, 45, 90
17, 103559, Note_on_c, 14, 45, 0
17, 103860, Note_on_c, 14, 54, 90
17, 103889, Note_on_c, 14, 54, 0
17, 103890, Note_on_c, 14, 56, 90
17, 103919, Note_on_c, 14, 56, 0
17, 103920, Note_on_c, 14, 57, 90
17, 103979, Note_on_c, 14, 57, 0
17, 103980, Note_on_c, 14, 56, 90
17, 104039, Note_on_c, 14, 56, 0
17, 104040, Note_on_c, 14, 57, 90
17, 104099, Note_on_c, 14, 57, 0
17, 104100, Note_on_c, 14, 54, 90
17, 104159, Note_on_c, 14, 54, 0
17, 104160, Note_on_c, 14, 61, 90
17, 104279, Note_on_c, 14, 61, 0
17, 104340, Note_on_c, 14, 57, 90
17, 104399, Note_on_c, 14, 57, 0
17, 104400, Note_on_c, 14, 62, 90
17, 104459, Note_on_c, 14, 62, 0
17, 104460, Note_on_c, 14, 59, 90
17, 104519, Note_on_c, 14, 59, 0
17, 104520, Note_on_c, 14, 57, 90
17, 104579, Note_on_c, 14, 57, 0
17, 104580, Note_on_c, 14, 56, 90
17, 104639, Note_on_c, 14, 56, 0
17, 104640, Note_on_c, 14, 57, 90
17, 104699, Note_on_c, 14, 57, 0
17, 104700, Note_on_c, 14, 61, 90
17, 104759, Note_on_c, 14, 61, 0
17, 104760, Note_on_c, 14, 57, 90
17, 104819, Note_on_c, 14, 57, 0
17, 104820, Note_on_c, 14, 54, 90
17, 104879, Note_on_c, 14, 54, 0
17, 104880, Note_on_c, 14, 59, 90
17, 104909, Note_on_c, 14, 59, 0
17, 104940, Note_on_c, 14, 59, 90
17, 104969, Note_on_c, 14, 59, 0
17, 105000, Note_on_c, 14, 59, 90
17, 105029, Note_on_c, 14, 59, 0
17, 105060, Note_on_c, 14, 59, 90
17, 105089, Note_on_c, 14, 59, 0
17, 105120, Note_on_c, 14, 59, 90
17, 105149, Note_on_c, 14, 59, 0
17, 105150, Note_on_c, 14, 62, 90
17, 105179, Note_on_c, 14, 62, 0
17, 105180, Note_on_c, 14, 61, 90
17, 105209, Note_on_c, 14, 61, 0
17, 105210, Note_on_c, 14, 59, 90
17, 105239, Note_on_c, 14, 59, 0
17, 105240, Note_on_c, 14, 57, 90
17, 105269, Note_on_c, 14, 57, 0
17, 105270, Note_on_c, 14, 61, 90
17, 105299, Note_on_c, 14, 61, 0
17, 105300, Note_on_c, 14, 59, 90
17, 105329, Note_on_c, 14, 59, 0
17, 105330, Note_on_c, 14, 57, 90
17, 105359, Note_on_c, 14, 57, 0
17, 105360, Note_on_c, 14, 56, 90
17, 105419, Note_on_c, 14, 56, 0
17, 105420, Note_on_c, 14, 54, 90
17, 105479, Note_on_c, 14, 54, 0
17, 105480, Note_on_c, 14, 53, 90
17, 105539, Note_on_c, 14, 53, 0
17, 105540, Note_on_c, 14, 54, 90
17, 105599, Note_on_c, 14, 54, 0
17, 105600, Note_on_c, 14, 49, 90
17, 105659, Note_on_c, 14, 49, 0
17, 105660, Note_on_c, 14, 51, 90
17, 105719, Note_on_c, 14, 51, 0
17, 105720, Note_on_c, 14, 53, 90
17, 105779, Note_on_c, 14, 53, 0
17, 105780, Note_on_c, 14, 49, 90
17, 105839, Note_on_c, 14, 49, 0
17, 105840, Note_on_c, 14, 54, 90
17, 105899, Note_on_c, 14, 54, 0
17, 105900, Note_on_c, 14, 42, 90
17, 105959, Note_on_c, 14, 42, 0
17, 106020, Note_on_c, 14, 54, 90
17, 106079, Note_on_c, 14, 54, 0
17, 106080, Note_on_c, 14, 56, 90
17, 106139, Note_on_c, 14, 56, 0
17, 106140, Note_on_c, 14, 59, 90
17, 106199, Note_on_c, 14, 59, 0
17, 106200, Note_on_c, 14, 56, 90
17, 106259, Note_on_c, 14, 56, 0
17, 106260, Note_on_c, 14, 52, 90
17, 106319, Note_on_c, 14, 52, 0
17, 106320, Note_on_c, 14, 57, 90
17, 106379, Note_on_c, 14, 57, 0
17, 106380, Note_on_c, 14, 54, 90
17, 106439, Note_on_c, 14, 54, 0
17, 106440, Note_on_c, 14, 50, 90
17, 106499, Note_on_c, 14, 50, 0
17, 106500, Note_on_c, 14, 52, 90
17, 106559, Note_on_c, 14, 52, 0
17, 106560, Note_on_c, 14, 45, 90
17, 106619, Note_on_c, 14, 45, 0
17, 106620, Note_on_c, 14, 57, 90
17, 106649, Note_on_c, 14, 57, 0
17, 106650, Note_on_c, 14, 59, 90
17, 106679, Note_on_c, 14, 59, 0
17, 106680, Note_on_c, 14, 61, 90
17, 106739, Note_on_c, 14, 61, 0
17, 106740, Note_on_c, 14, 57, 90
17, 106799, Note_on_c, 14, 57, 0
17, 106800, Note_on_c, 14, 56, 90
17, 106829, Note_on_c, 14, 56, 0
17, 106830, Note_on_c, 14, 64, 90
17, 106859, Note_on_c, 14, 64, 0
17, 106860, Note_on_c, 14, 62, 90
17, 106889, Note_on_c, 14, 62, 0
17, 106890, Note_on_c, 14, 59, 90
17, 106919, Note_on_c, 14, 59, 0
17, 106920, Note_on_c, 14, 57, 90
17, 106949, Note_on_c, 14, 57, 0
17, 106950, Note_on_c, 14, 64, 90
17, 106979, Note_on_c, 14, 64, 0
17, 106980, Note_on_c, 14, 61, 90
17, 107009, Note_on_c, 14, 61, 0
17, 107010, Note_on_c, 14, 57, 90
17, 107039, Note_on_c, 14, 57, 0
17, 107040, Note_on_c, 14, 56, 90
17, 107069, Note_on_c, 14, 56, 0
17, 107070, Note_on_c, 14, 64, 90
17, 107099, Note_on_c, 14, 64, 0
17, 107100, Note_on_c, 14, 59, 90
17, 107129, Note_on_c, 14, 59, 0
17, 107130, Note_on_c, 14, 56, 90
17, 107159, Note_on_c, 14, 56, 0
17, 107160, Note_on_c, 14, 52, 90
17, 107309, Note_on_c, 14, 52, 0
17, 107310, Note_on_c, 14, 64, 90
17, 107339, Note_on_c, 14, 64, 0
17, 107340, Note_on_c, 14, 61, 90
17, 107369, Note_on_c, 14, 61, 0
17, 107370, Note_on_c, 14, 59, 90
17, 107399, Note_on_c, 14, 59, 0
17, 107400, Note_on_c, 14, 58, 90
17, 107429, Note_on_c, 14, 58, 0
17, 107430, Note_on_c, 14, 64, 90
17, 107459, Note_on_c, 14, 64, 0
17, 107460, Note_on_c, 14, 61, 90
17, 107489, Note_on_c, 14, 61, 0
17, 107490, Note_on_c, 14, 58, 90
17, 107519, Note_on_c, 14, 58, 0
17, 107520, Note_on_c, 14, 54, 90
17, 107549, Note_on_c, 14, 54, 0
17, 107550, Note_on_c, 14, 64, 90
17, 107579, Note_on_c, 14, 64, 0
17, 107580, Note_on_c, 14, 61, 90
17, 107609, Note_on_c, 14, 61, 0
17, 107610, Note_on_c, 14, 58, 90
17, 107639, Note_on_c, 14, 58, 0
17, 107640, Note_on_c, 14, 52, 90
17, 107669, Note_on_c, 14, 52, 0
17, 107670, Note_on_c, 14, 61, 90
17, 107699, Note_on_c, 14, 61, 0
17, 107700, Note_on_c, 14, 58, 90
17, 107729, Note_on_c, 14, 58, 0
17, 107730, Note_on_c, 14, 54, 90
17, 107759, Note_on_c, 14, 54, 0
17, 107760, Note_on_c, 14, 50, 90
17, 107819, Note_on_c, 14, 50, 0
17, 107820, Note_on_c, 14, 55, 90
17, 107879, Note_on_c, 14, 55, 0
17, 107880, Note_on_c, 14, 52, 90
17, 107939, Note_on_c, 14, 52, 0
17, 107940, Note_on_c, 14, 54, 90
17, 107999, Note_on_c, 14, 54, 0
17, 108000, Note_on_c, 14, 47, 90
17, 108059, Note_on_c, 14, 47, 0
17, 108060, Note_on_c, 14, 50, 90
17, 108119, Note_on_c, 14, 50, 0
17, 108120, Note_on_c, 14, 49, 90
17, 108179, Note_on_c, 14, 49, 0
17, 108180, Note_on_c, 14, 46, 90
17, 108239, Note_on_c, 14, 46, 0
17, 108240, Note_on_c, 14, 47, 90
17, 108299, Note_on_c, 14, 47, 0
17, 108300, Note_on_c, 14, 42, 90
17, 108359, Note_on_c, 14, 42, 0
17, 108360, Note_on_c, 14, 46, 90
17, 108419, Note_on_c, 14, 46, 0
17, 108420, Note_on_c, 14, 42, 90
17, 108479, Note_on_c, 14, 42, 0
17, 108480, Note_on_c, 14, 47, 90
17, 108539, Note_on_c, 14, 47, 0
17, 108540, Note_on_c, 14, 50, 90
17, 108569, Note_on_c, 14, 50, 0
17, 108570, Note_on_c, 14, 49, 90
17, 108599, Note_on_c, 14, 49, 0
17, 108600, Note_on_c, 14, 47, 90
17, 108659, Note_on_c, 14, 47, 0
17, 108660, Note_on_c, 14, 45, 90
17, 108719, Note_on_c, 14, 45, 0
17, 108720, Note_on_c, 14, 44, 90
17, 108779, Note_on_c, 14, 44, 0
17, 108780, Note_on_c, 14, 45, 90
17, 108839, Note_on_c, 14, 45, 0
17, 108840, Note_on_c, 14, 47, 90
17, 108899, Note_on_c, 14, 47, 0
17, 108900, Note_on_c, 14, 44, 90
17, 108959, Note_on_c, 14, 44, 0
17, 108960, Note_on_c, 14, 49, 90
17, 109019, Note_on_c, 14, 49, 0
17, 109020, Note_on_c, 14, 51, 90
17, 109079, Note_on_c, 14, 51, 0
17, 109080, Note_on_c, 14, 53, 90
17, 109139, Note_on_c, 14, 53, 0
17, 109140, Note_on_c, 14, 49, 90
17, 109199, Note_on_c, 14, 49, 0
17, 109200, Note_on_c, 14, 54, 90
17, 109259, Note_on_c, 14, 54, 0
17, 109260, Note_on_c, 14, 45, 90
17, 109319, Note_on_c, 14, 45, 0
17, 109320, Note_on_c, 14, 47, 90
17, 109379, Note_on_c, 14, 47, 0
17, 109380, Note_on_c, 14, 49, 90
17, 109439, Note_on_c, 14, 49, 0
17, 109440, Note_on_c, 14, 42, 90
17, 109499, Note_on_c, 14, 42, 0
17, 109500, Note_on_c, 14, 44, 90
17, 109559, Note_on_c, 14, 44, 0
17, 109560, Note_on_c, 14, 45, 90
17, 109619, Note_on_c, 14, 45, 0
17, 109620, Note_on_c, 14, 47, 90
17, 109679, Note_on_c, 14, 47, 0
17, 109680, Note_on_c, 14, 45, 90
17, 109739, Note_on_c, 14, 45, 0
17, 109740, Note_on_c, 14, 44, 90
17, 109799, Note_on_c, 14, 44, 0
17, 109800, Note_on_c, 14, 45, 90
17, 109859, Note_on_c, 14, 45, 0
17, 109860, Note_on_c, 14, 42, 90
17, 109919, Note_on_c, 14, 42, 0
17, 109920, Note_on_c, 14, 47, 90
17, 109979, Note_on_c, 14, 47, 0
17, 109980, Note_on_c, 14, 45, 90
17, 110039, Note_on_c, 14, 45, 0
17, 110040, Note_on_c, 14, 44, 90
17, 110099, Note_on_c, 14, 44, 0
17, 110100, Note_on_c, 14, 45, 90
17, 110159, Note_on_c, 14, 45, 0
17, 110160, Note_on_c, 14, 50, 90
17, 110219, Note_on_c, 14, 50, 0
17, 110220, Note_on_c, 14, 42, 90
17, 110279, Note_on_c, 14, 42, 0
17, 110280, Note_on_c, 14, 41, 90
17, 110339, Note_on_c, 14, 41, 0
17, 110340, Note_on_c, 14, 44, 90
17, 110399, Note_on_c, 14, 44, 0
17, 110400, Note_on_c, 14, 42, 90
17, 110459, Note_on_c, 14, 42, 0
17, 110460, Note_on_c, 14, 44, 90
17, 110519, Note_on_c, 14, 44, 0
17, 110520, Note_on_c, 14, 45, 90
17, 110579, Note_on_c, 14, 45, 0
17, 110580, Note_on_c, 14, 42, 90
17, 110639, Note_on_c, 14, 42, 0
17, 110640, Note_on_c, 14, 49, 90
17, 110699, Note_on_c, 14, 49, 0
17, 110700, Note_on_c, 14, 47, 90
17, 110729, Note_on_c, 14, 47, 0
17, 110730, Note_on_c, 14, 49, 90
17, 110759, Note_on_c, 14, 49, 0
17, 110760, Note_on_c, 14, 50, 90
17, 110819, Note_on_c, 14, 50, 0
17, 110820, Note_on_c, 14, 49, 90
17, 110879, Note_on_c, 14, 49, 0
17, 110880, Note_on_c, 14, 47, 90
17, 110939, Note_on_c, 14, 47, 0
17, 110940, Note_on_c, 14, 44, 90
17, 110999, Note_on_c, 14, 44, 0
17, 111000, Note_on_c, 14, 41, 90
17, 111059, Note_on_c, 14, 41, 0
17, 111060, Note_on_c, 14, 47, 90
17, 111119, Note_on_c, 14, 47, 0
17, 111120, Note_on_c, 14, 45, 90
17, 111149, Note_on_c, 14, 45, 0
17, 111150, Note_on_c, 14, 49, 90
17, 111179, Note_on_c, 14, 49, 0
17, 111180, Note_on_c, 14, 45, 90
17, 111209, Note_on_c, 14, 45, 0
17, 111210, Note_on_c, 14, 42, 90
17, 111239, Note_on_c, 14, 42, 0
17, 111240, Note_on_c, 14, 41, 90
17, 111269, Note_on_c, 14, 41, 0
17, 111270, Note_on_c, 14, 47, 90
17, 111299, Note_on_c, 14, 47, 0
17, 111300, Note_on_c, 14, 45, 90
17, 111329, Note_on_c, 14, 45, 0
17, 111330, Note_on_c, 14, 42, 90
17, 111359, Note_on_c, 14, 42, 0
17, 111360, Note_on_c, 14, 49, 90
17, 111389, Note_on_c, 14, 49, 0
17, 111420, Note_on_c, 14, 49, 90
17, 111449, Note_on_c, 14, 49, 0
17, 111480, Note_on_c, 14, 49, 90
17, 111509, Note_on_c, 14, 49, 0
17, 111540, Note_on_c, 14, 49, 90
17, 111659, Note_on_c, 14, 49, 0
17, 111660, Note_on_c, 14, 49, 90
17, 111719, Note_on_c, 14, 49, 0
17, 111720, Note_on_c, 14, 50, 90
17, 111779, Note_on_c, 14, 50, 0
17, 111780, Note_on_c, 14, 50, 90
17, 111839, Note_on_c, 14, 50, 0
17, 111840, Note_on_c, 14, 49, 90
17, 111869, Note_on_c, 14, 49, 0
17, 111870, Note_on_c, 14, 50, 90
17, 111899, Note_on_c, 14, 50, 0
17, 111900, Note_on_c, 14, 49, 90
17, 111929, Note_on_c, 14, 49, 0
17, 111930, Note_on_c, 14, 47, 90
17, 111959, Note_on_c, 14, 47, 0
17, 111960, Note_on_c, 14, 45, 90
17, 111989, Note_on_c, 14, 45, 0
17, 111990, Note_on_c, 14, 44, 90
17, 112019, Note_on_c, 14, 44, 0
17, 112020, Note_on_c, 14, 42, 90
17, 112049, Note_on_c, 14, 42, 0
17, 112050, Note_on_c, 14, 41, 90
17, 112079, Note_on_c, 14, 41, 0
17, 112080, Note_on_c, 14, 42, 90
17, 112139, Note_on_c, 14, 42, 0
17, 112140, Note_on_c, 14, 44, 90
17, 112169, Note_on_c, 14, 44, 0
17, 112170, Note_on_c, 14, 45, 90
17, 112199, Note_on_c, 14, 45, 0
17, 112200, Note_on_c, 14, 47, 90
17, 112259, Note_on_c, 14, 47, 0
17, 112260, Note_on_c, 14, 45, 90
17, 112319, Note_on_c, 14, 45, 0
17, 112320, Note_on_c, 14, 44, 90
17, 112379, Note_on_c, 14, 44, 0
17, 112380, Note_on_c, 14, 47, 90
17, 112439, Note_on_c, 14, 47, 0
17, 112440, Note_on_c, 14, 45, 90
17, 112469, Note_on_c, 14, 45, 0
17, 112470, Note_on_c, 14, 44, 90
17, 112499, Note_on_c, 14, 44, 0
17, 112500, Note_on_c, 14, 42, 90
17, 112529, Note_on_c, 14, 42, 0
17, 112530, Note_on_c, 14, 40, 90
17, 112559, Note_on_c, 14, 40, 0
17, 112560, Note_on_c, 14, 45, 90
17, 112619, Note_on_c, 14, 45, 0
17, 112620, Note_on_c, 14, 54, 90
17, 112679, Note_on_c, 14, 54, 0
17, 112680, Note_on_c, 14, 50, 90
17, 112739, Note_on_c, 14, 50, 0
17, 112740, Note_on_c, 14, 52, 90
17, 112799, Note_on_c, 14, 52, 0
17, 112800, Note_on_c, 14, 45, 90
17, 112859, Note_on_c, 14, 45, 0
17, 112860, Note_on_c, 14, 47, 90
17, 112919, Note_on_c, 14, 47, 0
17, 112920, Note_on_c, 14, 49, 90
17, 112979, Note_on_c, 14, 49, 0
17, 112980, Note_on_c, 14, 50, 90
17, 113039, Note_on_c, 14, 50, 0
17, 113040, Note_on_c, 14, 49, 90
17, 113099, Note_on_c, 14, 49, 0
17, 113100, Note_on_c, 14, 47, 90
17, 113159, Note_on_c, 14, 47, 0
17, 113160, Note_on_c, 14, 49, 90
17, 113219, Note_on_c, 14, 49, 0
17, 113220, Note_on_c, 14, 45, 90
17, 113279, Note_on_c, 14, 45, 0
17, 113280, Note_on_c, 14, 52, 90
17, 113399, Note_on_c, 14, 52, 0
17, 113460, Note_on_c, 14, 54, 90
17, 113519, Note_on_c, 14, 54, 0
17, 113520, Note_on_c, 14, 59, 90
17, 113549, Note_on_c, 14, 59, 0
17, 113550, Note_on_c, 14, 62, 90
17, 113579, Note_on_c, 14, 62, 0
17, 113580, Note_on_c, 14, 59, 90
17, 113609, Note_on_c, 14, 59, 0
17, 113610, Note_on_c, 14, 54, 90
17, 113639, Note_on_c, 14, 54, 0
17, 113640, Note_on_c, 14, 56, 90
17, 113669, Note_on_c, 14, 56, 0
17, 113670, Note_on_c, 14, 59, 90
17, 113699, Note_on_c, 14, 59, 0
17, 113700, Note_on_c, 14, 56, 90
17, 113729, Note_on_c, 14, 56, 0
17, 113730, Note_on_c, 14, 52, 90
17, 113759, Note_on_c, 14, 52, 0
17, 113760, Note_on_c, 14, 49, 90
17, 113819, Note_on_c, 14, 49, 0
17, 113820, Note_on_c, 14, 52, 90
17, 113879, Note_on_c, 14, 52, 0
17, 113880, Note_on_c, 14, 49, 90
17, 113939, Note_on_c, 14, 49, 0
17, 113940, Note_on_c, 14, 45, 90
17, 113999, Note_on_c, 14, 45, 0
17, 114000, Note_on_c, 14, 44, 90
17, 114059, Note_on_c, 14, 44, 0
17, 114060, Note_on_c, 14, 52, 90
17, 114119, Note_on_c, 14, 52, 0
17, 114120, Note_on_c, 14, 45, 90
17, 114179, Note_on_c, 14, 45, 0
17, 114180, Note_on_c, 14, 52, 90
17, 114239, Note_on_c, 14, 52, 0
17, 114240, Note_on_c, 14, 40, 90
17, 114299, Note_on_c, 14, 40, 0
17, 114300, Note_on_c, 14, 47, 90
17, 114359, Note_on_c, 14, 47, 0
17, 114360, Note_on_c, 14, 52, 90
17, 114419, Note_on_c, 14, 52, 0
17, 114420, Note_on_c, 14, 40, 90
17, 114479, Note_on_c, 14, 40, 0
17, 114480, Note_on_c, 14, 45, 90
17, 114539, Note_on_c, 14, 45, 0
17, 114540, Note_on_c, 14, 50, 90
17, 114599, Note_on_c, 14, 50, 0
17, 114600, Note_on_c, 14, 44, 90
17, 114659, Note_on_c, 14, 44, 0
17, 114660, Note_on_c, 14, 49, 90
17, 114719, Note_on_c, 14, 49, 0
17, 114720, Note_on_c, 14, 42, 90
17, 114779, Note_on_c, 14, 42, 0
17, 114780, Note_on_c, 14, 54, 90
17, 114839, Note_on_c, 14, 54, 0
17, 114840, Note_on_c, 14, 48, 90
17, 114899, Note_on_c, 14, 48, 0
17, 114900, Note_on_c, 14, 48, 90
17, 114959, Note_on_c, 14, 48, 0
17, 114960, Note_on_c, 14, 49, 90
17, 115019, Note_on_c, 14, 49, 0
17, 115020, Note_on_c, 14, 47, 90
17, 115079, Note_on_c, 14, 47, 0
17, 115080, Note_on_c, 14, 42, 90
17, 115139, Note_on_c, 14, 42, 0
17, 115140, Note_on_c, 14, 44, 90
17, 115199, Note_on_c, 14, 44, 0
17, 115200, Note_on_c, 14, 49, 90
17, 115259, Note_on_c, 14, 49, 0
17, 115260, Note_on_c, 14, 49, 90
17, 115319, Note_on_c, 14, 49, 0
17, 115320, Note_on_c, 14, 47, 90
17, 115379, Note_on_c, 14, 47, 0
17, 115380, Note_on_c, 14, 47, 90
17, 115439, Note_on_c, 14, 47, 0
17, 115440, Note_on_c, 14, 45, 90
17, 115499, Note_on_c, 14, 45, 0
17, 115500, Note_on_c, 14, 39, 90
17, 115559, Note_on_c, 14, 39, 0
17, 115560, Note_on_c, 14, 48, 90
17, 115619, Note_on_c, 14, 48, 0
17, 115620, Note_on_c, 14, 49, 90
17, 115679, Note_on_c, 14, 49, 0
17, 115680, Note_on_c, 14, 44, 90
17, 115739, Note_on_c, 14, 44, 0
17, 115740, Note_on_c, 14, 44, 90
17, 115799, Note_on_c, 14, 44, 0
17, 115800, Note_on_c, 14, 42, 90
17, 115859, Note_on_c, 14, 42, 0
17, 115860, Note_on_c, 14, 42, 90
17, 115919, Note_on_c, 14, 42, 0
17, 115920, Note_on_c, 14, 40, 90
17, 115949, Note_on_c, 14, 40, 0
17, 115950, Note_on_c, 14, 52, 90
17, 115979, Note_on_c, 14, 52, 0
17, 115980, Note_on_c, 14, 49, 90
17, 116009, Note_on_c, 14, 49, 0
17, 116010, Note_on_c, 14, 44, 90
17, 116039, Note_on_c, 14, 44, 0
17, 116040, Note_on_c, 14, 40, 90
17, 116069, Note_on_c, 14, 40, 0
17, 116070, Note_on_c, 14, 56, 90
17, 116099, Note_on_c, 14, 56, 0
17, 116100, Note_on_c, 14, 52, 90
17, 116129, Note_on_c, 14, 52, 0
17, 116130, Note_on_c, 14, 49, 90
17, 116159, Note_on_c, 14, 49, 0
17, 116160, Note_on_c, 14, 48, 90
17, 116189, Note_on_c, 14, 48, 0
17, 116190, Note_on_c, 14, 49, 90
17, 116219, Note_on_c, 14, 49, 0
17, 116220, Note_on_c, 14, 51, 90
17, 116249, Note_on_c, 14, 51, 0
17, 116250, Note_on_c, 14, 52, 90
17, 116279, Note_on_c, 14, 52, 0
17, 116280, Note_on_c, 14, 54, 90
17, 116309, Note_on_c, 14, 54, 0
17, 116310, Note_on_c, 14, 56, 90
17, 116339, Note_on_c, 14, 56, 0
17, 116340, Note_on_c, 14, 57, 90
17, 116399, Note_on_c, 14, 57, 0
17, 116400, Note_on_c, 14, 44, 90
17, 116429, Note_on_c, 14, 44, 0
17, 116460, Note_on_c, 14, 44, 90
17, 116489, Note_on_c, 14, 44, 0
17, 116520, Note_on_c, 14, 44, 90
17, 116549, Note_on_c, 14, 44, 0
17, 116580, Note_on_c, 14, 44, 90
17, 116609, Note_on_c, 14, 44, 0
17, 116640, Note_on_c, 14, 44, 90
17, 116669, Note_on_c, 14, 44, 0
17, 116670, Note_on_c, 14, 52, 90
17, 116699, Note_on_c, 14, 52, 0
17, 116700, Note_on_c, 14, 49, 90
17, 116729, Note_on_c, 14, 49, 0
17, 116730, Note_on_c, 14, 44, 90
17, 116759, Note_on_c, 14, 44, 0
17, 116760, Note_on_c, 14, 40, 90
17, 116789, Note_on_c, 14, 40, 0
17, 116790, Note_on_c, 14, 44, 90
17, 116819, Note_on_c, 14, 44, 0
17, 116820, Note_on_c, 14, 49, 90
17, 116849, Note_on_c, 14, 49, 0
17, 116850, Note_on_c, 14, 52, 90
17, 116879, Note_on_c, 14, 52, 0
17, 116880, Note_on_c, 14, 44, 90
17, 116909, Note_on_c, 14, 44, 0
17, 116940, Note_on_c, 14, 44, 90
17, 116969, Note_on_c, 14, 44, 0
17, 117000, Note_on_c, 14, 44, 90
17, 117029, Note_on_c, 14, 44, 0
17, 117060, Note_on_c, 14, 44, 90
17, 117089, Note_on_c, 14, 44, 0
17, 117120, Note_on_c, 14, 44, 90
17, 117149, Note_on_c, 14, 44, 0
17, 117150, Note_on_c, 14, 57, 90
17, 117179, Note_on_c, 14, 57, 0
17, 117180, Note_on_c, 14, 54, 90
17, 117209, Note_on_c, 14, 54, 0
17, 117210, Note_on_c, 14, 51, 90
17, 117239, Note_on_c, 14, 51, 0
17, 117240, Note_on_c, 14, 48, 90
17, 117269, Note_on_c, 14, 48, 0
17, 117270, Note_on_c, 14, 51, 90
17, 117299, Note_on_c, 14, 51, 0
17, 117300, Note_on_c, 14, 48, 90
17, 117329, Note_on_c, 14, 48, 0
17, 117330, Note_on_c, 14, 44, 90
17, 117359, Note_on_c, 14, 44, 0
17, 117360, Note_on_c, 14, 40, 90
17, 117419, Note_on_c, 14, 40, 0
17, 117420, Note_on_c, 14, 49, 90
17, 117479, Note_on_c, 14, 49, 0
17, 117480, Note_on_c, 14, 41, 90
17, 117539, Note_on_c, 14, 41, 0
17, 117540, Note_on_c, 14, 49, 90
17, 117599, Note_on_c, 14, 49, 0
17, 117600, Note_on_c, 14, 42, 90
17, 117659, Note_on_c, 14, 42, 0
17, 117660, Note_on_c, 14, 51, 90
17, 117719, Note_on_c, 14, 51, 0
17, 117720, Note_on_c, 14, 52, 90
17, 117779, Note_on_c, 14, 52, 0
17, 117780, Note_on_c, 14, 48, 90
17, 117839, Note_on_c, 14, 48, 0
17, 117840, Note_on_c, 14, 49, 90
17, 117899, Note_on_c, 14, 49, 0
17, 117900, Note_on_c, 14, 40, 90
17, 117959, Note_on_c, 14, 40, 0
17, 117960, Note_on_c, 14, 42, 90
17, 118019, Note_on_c, 14, 42, 0
17, 118020, Note_on_c, 14, 44, 90
17, 118079, Note_on_c, 14, 44, 0
17, 118080, Note_on_c, 14, 49, 90
17, 118139, Note_on_c, 14, 49, 0
17, 118140, Note_on_c, 14, 51, 90
17, 118199, Note_on_c, 14, 51, 0
17, 118200, Note_on_c, 14, 52, 90
17, 118259, Note_on_c, 14, 52, 0
17, 118260, Note_on_c, 14, 49, 90
17, 118319, Note_on_c, 14, 49, 0
17, 118320, Note_on_c, 14, 48, 90
17, 118349, Note_on_c, 14, 48, 0
17, 118350, Note_on_c, 14, 56, 90
17, 118379, Note_on_c, 14, 56, 0
17, 118380, Note_on_c, 14, 54, 90
17, 118409, Note_on_c, 14, 54, 0
17, 118410, Note_on_c, 14, 51, 90
17, 118439, Note_on_c, 14, 51, 0
17, 118440, Note_on_c, 14, 49, 90
17, 118469, Note_on_c, 14, 49, 0
17, 118470, Note_on_c, 14, 56, 90
17, 118499, Note_on_c, 14, 56, 0
17, 118500, Note_on_c, 14, 52, 90
17, 118529, Note_on_c, 14, 52, 0
17, 118530, Note_on_c, 14, 49, 90
17, 118559, Note_on_c, 14, 49, 0
17, 118560, Note_on_c, 14, 48, 90
17, 118589, Note_on_c, 14, 48, 0
17, 118590, Note_on_c, 14, 56, 90
17, 118619, Note_on_c, 14, 56, 0
17, 118620, Note_on_c, 14, 51, 90
17, 118649, Note_on_c, 14, 51, 0
17, 118650, Note_on_c, 14, 47, 90
17, 118679, Note_on_c, 14, 47, 0
17, 118680, Note_on_c, 14, 44, 90
17, 118739, Note_on_c, 14, 44, 0
17, 118740, Note_on_c, 14, 54, 90
17, 118799, Note_on_c, 14, 54, 0
17, 118800, Note_on_c, 14, 53, 90
17, 118829, Note_on_c, 14, 53, 0
17, 118830, Note_on_c, 14, 59, 90
17, 118859, Note_on_c, 14, 59, 0
17, 118860, Note_on_c, 14, 56, 90
17, 118889, Note_on_c, 14, 56, 0
17, 118890, Note_on_c, 14, 54, 90
17, 118919, Note_on_c, 14, 54, 0
17, 118920, Note_on_c, 14, 53, 90
17, 118949, Note_on_c, 14, 53, 0
17, 118950, Note_on_c, 14, 62, 90
17, 118979, Note_on_c, 14, 62, 0
17, 118980, Note_on_c, 14, 59, 90
17, 119009, Note_on_c, 14, 59, 0
17, 119010, Note_on_c, 14, 56, 90
17, 119039, Note_on_c, 14, 56, 0
17, 119040, Note_on_c, 14, 53, 90
17, 119069, Note_on_c, 14, 53, 0
17, 119070, Note_on_c, 14, 59, 90
17, 119099, Note_on_c, 14, 59, 0
17, 119100, Note_on_c, 14, 56, 90
17, 119129, Note_on_c, 14, 56, 0
17, 119130, Note_on_c, 14, 53, 90
17, 119159, Note_on_c, 14, 53, 0
17, 119160, Note_on_c, 14, 49, 90
17, 119189, Note_on_c, 14, 49, 0
17, 119190, Note_on_c, 14, 56, 90
17, 119219, Note_on_c, 14, 56, 0
17, 119220, Note_on_c, 14, 53, 90
17, 119249, Note_on_c, 14, 53, 0
17, 119250, Note_on_c, 14, 49, 90
17, 119279, Note_on_c, 14, 49, 0
17, 119280, Note_on_c, 14, 45, 90
17, 119339, Note_on_c, 14, 45, 0
17, 119340, Note_on_c, 14, 50, 90
17, 119399, Note_on_c, 14, 50, 0
17, 119400, Note_on_c, 14, 47, 90
17, 119459, Note_on_c, 14, 47, 0
17, 119460, Note_on_c, 14, 49, 90
17, 119519, Note_on_c, 14, 49, 0
17, 119520, Note_on_c, 14, 42, 90
17, 119579, Note_on_c, 14, 42, 0
17, 119580, Note_on_c, 14, 45, 90
17, 119639, Note_on_c, 14, 45, 0
17, 119640, Note_on_c, 14, 49, 90
17, 119699, Note_on_c, 14, 49, 0
17, 119700, Note_on_c, 14, 53, 90
17, 119759, Note_on_c, 14, 53, 0
17, 119760, Note_on_c, 14, 54, 90
17, 119819, Note_on_c, 14, 54, 0
17, 119820, Note_on_c, 14, 49, 90
17, 119879, Note_on_c, 14, 49, 0
17, 119880, Note_on_c, 14, 53, 90
17, 119939, Note_on_c, 14, 53, 0
17, 119940, Note_on_c, 14, 49, 90
17, 119999, Note_on_c, 14, 49, 0
17, 120000, Note_on_c, 14, 54, 90
17, 120059, Note_on_c, 14, 54, 0
17, 120060, Note_on_c, 14, 57, 90
17, 120089, Note_on_c, 14, 57, 0
17, 120090, Note_on_c, 14, 56, 90
17, 120119, Note_on_c, 14, 56, 0
17, 120120, Note_on_c, 14, 54, 90
17, 120179, Note_on_c, 14, 54, 0
17, 120180, Note_on_c, 14, 52, 90
17, 120239, Note_on_c, 14, 52, 0
17, 120240, Note_on_c, 14, 51, 90
17, 120299, Note_on_c, 14, 51, 0
17, 120300, Note_on_c, 14, 52, 90
17, 120359, Note_on_c, 14, 52, 0
17, 120360, Note_on_c, 14, 54, 90
17, 120419, Note_on_c, 14, 54, 0
17, 120420, Note_on_c, 14, 51, 90
17, 120479, Note_on_c, 14, 51, 0
17, 120480, Note_on_c, 14, 56, 90
17, 120539, Note_on_c, 14, 56, 0
17, 120540, Note_on_c, 14, 58, 90
17, 120599, Note_on_c, 14, 58, 0
17, 120600, Note_on_c, 14, 60, 90
17, 120659, Note_on_c, 14, 60, 0
17, 120660, Note_on_c, 14, 56, 90
17, 120719, Note_on_c, 14, 56, 0
17, 120720, Note_on_c, 14, 61, 90
17, 120779, Note_on_c, 14, 61, 0
17, 120780, Note_on_c, 14, 52, 90
17, 120839, Note_on_c, 14, 52, 0
17, 120840, Note_on_c, 14, 54, 90
17, 120899, Note_on_c, 14, 54, 0
17, 120900, Note_on_c, 14, 56, 90
17, 120959, Note_on_c, 14, 56, 0
17, 120960, Note_on_c, 14, 49, 90
17, 120989, Note_on_c, 14, 49, 0
17, 120990, Note_on_c, 14, 56, 90
17, 121019, Note_on_c, 14, 56, 0
17, 121020, Note_on_c, 14, 52, 90
17, 121049, Note_on_c, 14, 52, 0
17, 121050, Note_on_c, 14, 49, 90
17, 121079, Note_on_c, 14, 49, 0
17, 121080, Note_on_c, 14, 48, 90
17, 121109, Note_on_c, 14, 48, 0
17, 121110, Note_on_c, 14, 54, 90
17, 121139, Note_on_c, 14, 54, 0
17, 121140, Note_on_c, 14, 51, 90
17, 121169, Note_on_c, 14, 51, 0
17, 121170, Note_on_c, 14, 48, 90
17, 121199, Note_on_c, 14, 48, 0
17, 121200, Note_on_c, 14, 49, 90
17, 121229, Note_on_c, 14, 49, 0
17, 121230, Note_on_c, 14, 57, 90
17, 121259, Note_on_c, 14, 57, 0
17, 121260, Note_on_c, 14, 52, 90
17, 121289, Note_on_c, 14, 52, 0
17, 121290, Note_on_c, 14, 49, 90
17, 121319, Note_on_c, 14, 49, 0
17, 121320, Note_on_c, 14, 51, 90
17, 121349, Note_on_c, 14, 51, 0
17, 121350, Note_on_c, 14, 59, 90
17, 121379, Note_on_c, 14, 59, 0
17, 121380, Note_on_c, 14, 54, 90
17, 121409, Note_on_c, 14, 54, 0
17, 121410, Note_on_c, 14, 51, 90
17, 121439, Note_on_c, 14, 51, 0
17, 121440, Note_on_c, 14, 52, 90
17, 121499, Note_on_c, 14, 52, 0
17, 121500, Note_on_c, 14, 56, 90
17, 121559, Note_on_c, 14, 56, 0
17, 121560, Note_on_c, 14, 61, 90
17, 121619, Note_on_c, 14, 61, 0
17, 121620, Note_on_c, 14, 59, 90
17, 121679, Note_on_c, 14, 59, 0
17, 121680, Note_on_c, 14, 57, 90
17, 121739, Note_on_c, 14, 57, 0
17, 121740, Note_on_c, 14, 54, 90
17, 121799, Note_on_c, 14, 54, 0
17, 121800, Note_on_c, 14, 59, 90
17, 121859, Note_on_c, 14, 59, 0
17, 121860, Note_on_c, 14, 47, 90
17, 121919, Note_on_c, 14, 47, 0
17, 121920, Note_on_c, 14, 52, 90
17, 121979, Note_on_c, 14, 52, 0
17, 121980, Note_on_c, 14, 54, 90
17, 122039, Note_on_c, 14, 54, 0
17, 122040, Note_on_c, 14, 56, 90
17, 122069, Note_on_c, 14, 56, 0
17, 122070, Note_on_c, 14, 54, 90
17, 122099, Note_on_c, 14, 54, 0
17, 122100, Note_on_c, 14, 52, 90
17, 122129, Note_on_c, 14, 52, 0
17, 122130, Note_on_c, 14, 50, 90
17, 122159, Note_on_c, 14, 50, 0
17, 122160, Note_on_c, 14, 49, 90
17, 122219, Note_on_c, 14, 49, 0
17, 122220, Note_on_c, 14, 47, 90
17, 122279, Note_on_c, 14, 47, 0
17, 122280, Note_on_c, 14, 49, 90
17, 122339, Note_on_c, 14, 49, 0
17, 122340, Note_on_c, 14, 50, 90
17, 122399, Note_on_c, 14, 50, 0
17, 122400, Note_on_c, 14, 46, 90
17, 122459, Note_on_c, 14, 46, 0
17, 122460, Note_on_c, 14, 42, 90
17, 122519, Note_on_c, 14, 42, 0
17, 122520, Note_on_c, 14, 47, 90
17, 122579, Note_on_c, 14, 47, 0
17, 122580, Note_on_c, 14, 42, 90
17, 122639, Note_on_c, 14, 42, 0
17, 122640, Note_on_c, 14, 46, 90
17, 122699, Note_on_c, 14, 46, 0
17, 122700, Note_on_c, 14, 42, 90
17, 122759, Note_on_c, 14, 42, 0
17, 122760, Note_on_c, 14, 47, 90
17, 122819, Note_on_c, 14, 47, 0
17, 122820, Note_on_c, 14, 50, 90
17, 122879, Note_on_c, 14, 50, 0
17, 122880, Note_on_c, 14, 54, 90
17, 122969, Note_on_c, 14, 54, 0
17, 122970, Note_on_c, 14, 52, 90
17, 122999, Note_on_c, 14, 52, 0
17, 123000, Note_on_c, 14, 50, 90
17, 123029, Note_on_c, 14, 50, 0
17, 123030, Note_on_c, 14, 49, 90
17, 123059, Note_on_c, 14, 49, 0
17, 123060, Note_on_c, 14, 47, 90
17, 123089, Note_on_c, 14, 47, 0
17, 123090, Note_on_c, 14, 46, 90
17, 123119, Note_on_c, 14, 46, 0
17, 123120, Note_on_c, 14, 47, 90
17, 123179, Note_on_c, 14, 47, 0
17, 123180, Note_on_c, 14, 49, 90
17, 123239, Note_on_c, 14, 49, 0
17, 123240, Note_on_c, 14, 50, 90
17, 123299, Note_on_c, 14, 50, 0
17, 123300, Note_on_c, 14, 47, 90
17, 123359, Note_on_c, 14, 47, 0
17, 123360, Note_on_c, 14, 44, 90
17, 123389, Note_on_c, 14, 44, 0
17, 123390, Note_on_c, 14, 62, 90
17, 123419, Note_on_c, 14, 62, 0
17, 123420, Note_on_c, 14, 59, 90
17, 123449, Note_on_c, 14, 59, 0
17, 123450, Note_on_c, 14, 56, 90
17, 123479, Note_on_c, 14, 56, 0
17, 123480, Note_on_c, 14, 53, 90
17, 123509, Note_on_c, 14, 53, 0
17, 123510, Note_on_c, 14, 59, 90
17, 123539, Note_on_c, 14, 59, 0
17, 123540, Note_on_c, 14, 56, 90
17, 123569, Note_on_c, 14, 56, 0
17, 123570, Note_on_c, 14, 53, 90
17, 123599, Note_on_c, 14, 53, 0
17, 123600, Note_on_c, 14, 54, 90
17, 123629, Note_on_c, 14, 54, 0
17, 123630, Note_on_c, 14, 50, 90
17, 123659, Note_on_c, 14, 50, 0
17, 123660, Note_on_c, 14, 47, 90
17, 123689, Note_on_c, 14, 47, 0
17, 123690, Note_on_c, 14, 41, 90
17, 123719, Note_on_c, 14, 41, 0
17, 123720, Note_on_c, 14, 42, 90
17, 123779, Note_on_c, 14, 42, 0
17, 123780, Note_on_c, 14, 54, 90
17, 123839, Note_on_c, 14, 54, 0
17, 123840, Note_on_c, 14, 47, 90
17, 123869, Note_on_c, 14, 47, 0
17, 123870, Note_on_c, 14, 59, 90
17, 123899, Note_on_c, 14, 59, 0
17, 123900, Note_on_c, 14, 54, 90
17, 123929, Note_on_c, 14, 54, 0
17, 123930, Note_on_c, 14, 50, 90
17, 123959, Note_on_c, 14, 50, 0
17, 123960, Note_on_c, 14, 47, 90
17, 123989, Note_on_c, 14, 47, 0
17, 123990, Note_on_c, 14, 54, 90
17, 124019, Note_on_c, 14, 54, 0
17, 124020, Note_on_c, 14, 50, 90
17, 124049, Note_on_c, 14, 50, 0
17, 124050, Note_on_c, 14, 47, 90
17, 124079, Note_on_c, 14, 47, 0
17, 124080, Note_on_c, 14, 43, 90
17, 124139, Note_on_c, 14, 43, 0
17, 124140, Note_on_c, 14, 52, 90
17, 124199, Note_on_c, 14, 52, 0
17, 124200, Note_on_c, 14, 42, 90
17, 124259, Note_on_c, 14, 42, 0
17, 124260, Note_on_c, 14, 50, 90
17, 124319, Note_on_c, 14, 50, 0
17, 124320, Note_on_c, 14, 40, 90
17, 124379, Note_on_c, 14, 40, 0
17, 124380, Note_on_c, 14, 49, 90
17, 124439, Note_on_c, 14, 49, 0
17, 124440, Note_on_c, 14, 42, 90
17, 124499, Note_on_c, 14, 42, 0
17, 124500, Note_on_c, 14, 50, 90
17, 124559, Note_on_c, 14, 50, 0
17, 124560, Note_on_c, 14, 49, 90
17, 124619, Note_on_c, 14, 49, 0
17, 124620, Note_on_c, 14, 47, 90
17, 124679, Note_on_c, 14, 47, 0
17, 124680, Note_on_c, 14, 46, 90
17, 124739, Note_on_c, 14, 46, 0
17, 124740, Note_on_c, 14, 49, 90
17, 124799, Note_on_c, 14, 49, 0
17, 124800, Note_on_c, 14, 50, 90
17, 124859, Note_on_c, 14, 50, 0
17, 124860, Note_on_c, 14, 54, 90
17, 124919, Note_on_c, 14, 54, 0
17, 124920, Note_on_c, 14, 50, 90
17, 124979, Note_on_c, 14, 50, 0
17, 124980, Note_on_c, 14, 47, 90
17, 125039, Note_on_c, 14, 47, 0
17, 125040, Note_on_c, 14, 46, 90
17, 125099, Note_on_c, 14, 46, 0
17, 125100, Note_on_c, 14, 42, 90
17, 125159, Note_on_c, 14, 42, 0
17, 125160, Note_on_c, 14, 47, 90
17, 125174, Note_on_c, 14, 47, 0
17, 125175, Note_on_c, 14, 49, 90
17, 125189, Note_on_c, 14, 49, 0
17, 125190, Note_on_c, 14, 50, 90
17, 125279, Note_on_c, 14, 50, 0
17, 125280, Note_on_c, 14, 49, 90
17, 125294, Note_on_c, 14, 49, 0
17, 125295, Note_on_c, 14, 50, 90
17, 125309, Note_on_c, 14, 50, 0
17, 125310, Note_on_c, 14, 52, 90
17, 125429, Note_on_c, 14, 52, 0
17, 125430, Note_on_c, 14, 50, 90
17, 125459, Note_on_c, 14, 50, 0
17, 125460, Note_on_c, 14, 49, 90
17, 125489, Note_on_c, 14, 49, 0
17, 125490, Note_on_c, 14, 47, 90
17, 125519, Note_on_c, 14, 47, 0
17, 125520, Note_on_c, 14, 49, 90
17, 125579, Note_on_c, 14, 49, 0
17, 125580, Note_on_c, 14, 47, 90
17, 125639, Note_on_c, 14, 47, 0
17, 125640, Note_on_c, 14, 46, 90
17, 125699, Note_on_c, 14, 46, 0
17, 125700, Note_on_c, 14, 47, 90
17, 125759, Note_on_c, 14, 47, 0
17, 125760, Note_on_c, 14, 42, 90
17, 125819, Note_on_c, 14, 42, 0
17, 125820, Note_on_c, 14, 44, 90
17, 125879, Note_on_c, 14, 44, 0
17, 125880, Note_on_c, 14, 46, 90
17, 125909, Note_on_c, 14, 46, 0
17, 125910, Note_on_c, 14, 54, 90
17, 125939, Note_on_c, 14, 54, 0
17, 125940, Note_on_c, 14, 52, 90
17, 125969, Note_on_c, 14, 52, 0
17, 125970, Note_on_c, 14, 49, 90
17, 125999, Note_on_c, 14, 49, 0
17, 126000, Note_on_c, 14, 50, 90
17, 126029, Note_on_c, 14, 50, 0
17, 126030, Note_on_c, 14, 54, 90
17, 126059, Note_on_c, 14, 54, 0
17, 126060, Note_on_c, 14, 50, 90
17, 126089, Note_on_c, 14, 50, 0
17, 126090, Note_on_c, 14, 47, 90
17, 126119, Note_on_c, 14, 47, 0
17, 126120, Note_on_c, 14, 46, 90
17, 126149, Note_on_c, 14, 46, 0
17, 126150, Note_on_c, 14, 49, 90
17, 126179, Note_on_c, 14, 49, 0
17, 126180, Note_on_c, 14, 46, 90
17, 126209, Note_on_c, 14, 46, 0
17, 126210, Note_on_c, 14, 42, 90
17, 126239, Note_on_c, 14, 42, 0
17, 126240, Note_on_c, 14, 47, 90
17, 126299, Note_on_c, 14, 47, 0
17, 126300, Note_on_c, 14, 47, 90
17, 126359, Note_on_c, 14, 47, 0
17, 126360, Note_on_c, 14, 47, 90
17, 126419, Note_on_c, 14, 47, 0
17, 126420, Note_on_c, 14, 47, 90
17, 126479, Note_on_c, 14, 47, 0
17, 126480, Note_on_c, 14, 52, 90
17, 126539, Note_on_c, 14, 52, 0
17, 126540, Note_on_c, 14, 52, 90
17, 126599, Note_on_c, 14, 52, 0
17, 126600, Note_on_c, 14, 52, 90
17, 126659, Note_on_c, 14, 52, 0
17, 126660, Note_on_c, 14, 52, 90
17, 126719, Note_on_c, 14, 52, 0
17, 126720, Note_on_c, 14, 45, 90
17, 126779, Note_on_c, 14, 45, 0
17, 126780, Note_on_c, 14, 45, 90
17, 126839, Note_on_c, 14, 45, 0
17, 126840, Note_on_c, 14, 45, 90
17, 126899, Note_on_c, 14, 45, 0
17, 126900, Note_on_c, 14, 45, 90
17, 126959, Note_on_c, 14, 45, 0
17, 126960, Note_on_c, 14, 50, 90
17, 127019, Note_on_c, 14, 50, 0
17, 127020, Note_on_c, 14, 50, 90
17, 127079, Note_on_c, 14, 50, 0
17, 127080, Note_on_c, 14, 50, 90
17, 127139, Note_on_c, 14, 50, 0
17, 127140, Note_on_c, 14, 49, 90
17, 127199, Note_on_c, 14, 49, 0
17, 127200, Note_on_c, 14, 47, 90
17, 127259, Note_on_c, 14, 47, 0
17, 127260, Note_on_c, 14, 44, 90
17, 127319, Note_on_c, 14, 44, 0
17, 127320, Note_on_c, 14, 45, 90
17, 127379, Note_on_c, 14, 45, 0
17, 127380, Note_on_c, 14, 47, 90
17, 127439, Note_on_c, 14, 47, 0
17, 127440, Note_on_c, 14, 49, 90
17, 127499, Note_on_c, 14, 49, 0
17, 127500, Note_on_c, 14, 51, 90
17, 127559, Note_on_c, 14, 51, 0
17, 127560, Note_on_c, 14, 53, 90
17, 127619, Note_on_c, 14, 53, 0
17, 127620, Note_on_c, 14, 49, 90
17, 127679, Note_on_c, 14, 49, 0
17, 127680, Note_on_c, 14, 54, 90
17, 127739, Note_on_c, 14, 54, 0
17, 127740, Note_on_c, 14, 45, 90
17, 127799, Note_on_c, 14, 45, 0
17, 127800, Note_on_c, 14, 44, 90
17, 127859, Note_on_c, 14, 44, 0
17, 127860, Note_on_c, 14, 42, 90
17, 127919, Note_on_c, 14, 42, 0
17, 127920, Note_on_c, 14, 47, 90
17, 127979, Note_on_c, 14, 47, 0
17, 127980, Note_on_c, 14, 59, 90
17, 128069, Note_on_c, 14, 59, 0
17, 128070, Note_on_c, 14, 56, 90
17, 128099, Note_on_c, 14, 56, 0
17, 128100, Note_on_c, 14, 53, 90
17, 128129, Note_on_c, 14, 53, 0
17, 128130, Note_on_c, 14, 49, 90
17, 128159, Note_on_c, 14, 49, 0
17, 128160, Note_on_c, 14, 54, 90
17, 128219, Note_on_c, 14, 54, 0
17, 128220, Note_on_c, 14, 50, 90
17, 128279, Note_on_c, 14, 50, 0
17, 128280, Note_on_c, 14, 47, 90
17, 128339, Note_on_c, 14, 47, 0
17, 128340, Note_on_c, 14, 49, 90
17, 128399, Note_on_c, 14, 49, 0
17, 128400, Note_on_c, 14, 42, 90
17, 128459, Note_on_c, 14, 42, 0
17, 128460, Note_on_c, 14, 44, 90
17, 128519, Note_on_c, 14, 44, 0
17, 128520, Note_on_c, 14, 45, 90
17, 128549, Note_on_c, 14, 45, 0
17, 128550, Note_on_c, 14, 54, 90
17, 128579, Note_on_c, 14, 54, 0
17, 128580, Note_on_c, 14, 49, 90
17, 128609, Note_on_c, 14, 49, 0
17, 128610, Note_on_c, 14, 47, 90
17, 128639, Note_on_c, 14, 47, 0
17, 128640, Note_on_c, 14, 46, 90
17, 128669, Note_on_c, 14, 46, 0
17, 128670, Note_on_c, 14, 55, 90
17, 128699, Note_on_c, 14, 55, 0
17, 128700, Note_on_c, 14, 52, 90
17, 128729, Note_on_c, 14, 52, 0
17, 128730, Note_on_c, 14, 50, 90
17, 128759, Note_on_c, 14, 50, 0
17, 128760, Note_on_c, 14, 49, 90
17, 128789, Note_on_c, 14, 49, 0
17, 128790, Note_on_c, 14, 55, 90
17, 128819, Note_on_c, 14, 55, 0
17, 128820, Note_on_c, 14, 52, 90
17, 128849, Note_on_c, 14, 52, 0
17, 128850, Note_on_c, 14, 49, 90
17, 128879, Note_on_c, 14, 49, 0
17, 128880, Note_on_c, 14, 46, 90
17, 128909, Note_on_c, 14, 46, 0
17, 128910, Note_on_c, 14, 52, 90
17, 128939, Note_on_c, 14, 52, 0
17, 128940, Note_on_c, 14, 49, 90
17, 128969, Note_on_c, 14, 49, 0
17, 128970, Note_on_c, 14, 46, 90
17, 128999, Note_on_c, 14, 46, 0
17, 129000, Note_on_c, 14, 42, 90
17, 129059, Note_on_c, 14, 42, 0
17, 129060, Note_on_c, 14, 46, 90
17, 129119, Note_on_c, 14, 46, 0
17, 129120, Note_on_c, 14, 47, 90
17, 129179, Note_on_c, 14, 47, 0
17, 129180, Note_on_c, 14, 49, 90
17, 129239, Note_on_c, 14, 49, 0
17, 129240, Note_on_c, 14, 50, 90
17, 129299, Note_on_c, 14, 50, 0
17, 129300, Note_on_c, 14, 47, 90
17, 129359, Note_on_c, 14, 47, 0
17, 129360, Note_on_c, 14, 42, 90
17, 129389, Note_on_c, 14, 42, 0
17, 129390, Note_on_c, 14, 55, 90
17, 129419, Note_on_c, 14, 55, 0
17, 129420, Note_on_c, 14, 52, 90
17, 129449, Note_on_c, 14, 52, 0
17, 129450, Note_on_c, 14, 49, 90
17, 129479, Note_on_c, 14, 49, 0
17, 129480, Note_on_c, 14, 46, 90
17, 129509, Note_on_c, 14, 46, 0
17, 129510, Note_on_c, 14, 52, 90
17, 129539, Note_on_c, 14, 52, 0
17, 129540, Note_on_c, 14, 49, 90
17, 129569, Note_on_c, 14, 49, 0
17, 129570, Note_on_c, 14, 46, 90
17, 129599, Note_on_c, 14, 46, 0
17, 129600, Note_on_c, 14, 42, 90
17, 129659, Note_on_c, 14, 42, 0
17, 129660, Note_on_c, 14, 43, 90
17, 129719, Note_on_c, 14, 43, 0
17, 129720, Note_on_c, 14, 40, 90
17, 129779, Note_on_c, 14, 40, 0
17, 129780, Note_on_c, 14, 42, 90
17, 129839, Note_on_c, 14, 42, 0
17, 129840, Note_on_c, 14, 47, 90
17, 129899, Note_on_c, 14, 47, 0
17, 129900, Note_on_c, 14, 42, 90
17, 129959, Note_on_c, 14, 42, 0
17, 129960, Note_on_c, 14, 54, 90
17, 130019, Note_on_c, 14, 54, 0
17, 130020, Note_on_c, 14, 42, 90
17, 130079, Note_on_c, 14, 42, 0
17, 130080, Note_on_c, 14, 47, 90
17, 130139, Note_on_c, 14, 47, 0
17, 130140, Note_on_c, 14, 42, 90
17, 130199, Note_on_c, 14, 42, 0
17, 130200, Note_on_c, 14, 46, 90
17, 130259, Note_on_c, 14, 46, 0
17, 130260, Note_on_c, 14, 42, 90
17, 130319, Note_on_c, 14, 42, 0
17, 130320, Note_on_c, 14, 47, 90
17, 130379, Note_on_c, 14, 47, 0
17, 130380, Note_on_c, 14, 50, 90
17, 130439, Note_on_c, 14, 50, 0
17, 130440, Note_on_c, 14, 52, 90
17, 130499, Note_on_c, 14, 52, 0
17, 130500, Note_on_c, 14, 44, 90
17, 130559, Note_on_c, 14, 44, 0
17, 130560, Note_on_c, 14, 45, 90
17, 130619, Note_on_c, 14, 45, 0
17, 130620, Note_on_c, 14, 40, 90
17, 130679, Note_on_c, 14, 40, 0
17, 130680, Note_on_c, 14, 52, 90
17, 130739, Note_on_c, 14, 52, 0
17, 130740, Note_on_c, 14, 40, 90
17, 130799, Note_on_c, 14, 40, 0
17, 130800, Note_on_c, 14, 45, 90
17, 130919, Note_on_c, 14, 45, 0
17, 130980, Note_on_c, 14, 42, 90
17, 131039, Note_on_c, 14, 42, 0
17, 131040, Note_on_c, 14, 47, 90
17, 131159, Note_on_c, 14, 47, 0
17, 131220, Note_on_c, 14, 44, 90
17, 131279, Note_on_c, 14, 44, 0
17, 131280, Note_on_c, 14, 49, 90
17, 131399, Note_on_c, 14, 49, 0
17, 131460, Note_on_c, 14, 50, 90
17, 131519, Note_on_c, 14, 50, 0
17, 131520, Note_on_c, 14, 49, 90
17, 131579, Note_on_c, 14, 49, 0
17, 131580, Note_on_c, 14, 45, 90
17, 131639, Note_on_c, 14, 45, 0
17, 131640, Note_on_c, 14, 47, 90
17, 131699, Note_on_c, 14, 47, 0
17, 131700, Note_on_c, 14, 49, 90
17, 131759, Note_on_c, 14, 49, 0
17, 131760, Note_on_c, 14, 38, 90
17, 131879, Note_on_c, 14, 38, 0
17, 132060, Note_on_c, 14, 51, 90
17, 132119, Note_on_c, 14, 51, 0
17, 132120, Note_on_c, 14, 49, 90
17, 132179, Note_on_c, 14, 49, 0
17, 132180, Note_on_c, 14, 48, 90
17, 132239, Note_on_c, 14, 48, 0
17, 132240, Note_on_c, 14, 49, 90
17, 132359, Note_on_c, 14, 49, 0
17, 132360, Note_on_c, 14, 37, 90
17, 132479, Note_on_c, 14, 37, 0
17, 132480, Note_on_c, 14, 42, 90
17, 132509, Note_on_c, 14, 42, 0
17, 132510, Note_on_c, 14, 54, 90
17, 132539, Note_on_c, 14, 54, 0
17, 132540, Note_on_c, 14, 49, 90
17, 132569, Note_on_c, 14, 49, 0
17, 132570, Note_on_c, 14, 45, 90
17, 132599, Note_on_c, 14, 45, 0
17, 132600, Note_on_c, 14, 42, 90
17, 132629, Note_on_c, 14, 42, 0
17, 132630, Note_on_c, 14, 41, 90
17, 132659, Note_on_c, 14, 41, 0
17, 132660, Note_on_c, 14, 42, 90
17, 132689, Note_on_c, 14, 42, 0
17, 132690, Note_on_c, 14, 44, 90
17, 132719, Note_on_c, 14, 44, 0
17, 132720, Note_on_c, 14, 45, 90
17, 132779, Note_on_c, 14, 45, 0
17, 132780, Note_on_c, 14, 44, 90
17, 132839, Note_on_c, 14, 44, 0
17, 132840, Note_on_c, 14, 45, 90
17, 132899, Note_on_c, 14, 45, 0
17, 132900, Note_on_c, 14, 42, 90
17, 132959, Note_on_c, 14, 42, 0
17, 132960, Note_on_c, 14, 49, 90
17, 133079, Note_on_c, 14, 49, 0
17, 133140, Note_on_c, 14, 45, 90
17, 133199, Note_on_c, 14, 45, 0
17, 133200, Note_on_c, 14, 50, 90
17, 133259, Note_on_c, 14, 50, 0
17, 133260, Note_on_c, 14, 47, 90
17, 133319, Note_on_c, 14, 47, 0
17, 133320, Note_on_c, 14, 45, 90
17, 133379, Note_on_c, 14, 45, 0
17, 133380, Note_on_c, 14, 44, 90
17, 133439, Note_on_c, 14, 44, 0
17, 133440, Note_on_c, 14, 45, 90
17, 133499, Note_on_c, 14, 45, 0
17, 133500, Note_on_c, 14, 49, 90
17, 133559, Note_on_c, 14, 49, 0
17, 133560, Note_on_c, 14, 45, 90
17, 133619, Note_on_c, 14, 45, 0
17, 133620, Note_on_c, 14, 42, 90
17, 133679, Note_on_c, 14, 42, 0
17, 133680, Note_on_c, 14, 47, 90
17, 133709, Note_on_c, 14, 47, 0
17, 133740, Note_on_c, 14, 47, 90
17, 133769, Note_on_c, 14, 47, 0
17, 133800, Note_on_c, 14, 47, 90
17, 133829, Note_on_c, 14, 47, 0
17, 133860, Note_on_c, 14, 47, 90
17, 133889, Note_on_c, 14, 47, 0
17, 133920, Note_on_c, 14, 47, 90
17, 133949, Note_on_c, 14, 47, 0
17, 133950, Note_on_c, 14, 50, 90
17, 133979, Note_on_c, 14, 50, 0
17, 133980, Note_on_c, 14, 49, 90
17, 134009, Note_on_c, 14, 49, 0
17, 134010, Note_on_c, 14, 47, 90
17, 134039, Note_on_c, 14, 47, 0
17, 134040, Note_on_c, 14, 45, 90
17, 134069, Note_on_c, 14, 45, 0
17, 134070, Note_on_c, 14, 49, 90
17, 134099, Note_on_c, 14, 49, 0
17, 134100, Note_on_c, 14, 47, 90
17, 134129, Note_on_c, 14, 47, 0
17, 134130, Note_on_c, 14, 45, 90
17, 134159, Note_on_c, 14, 45, 0
17, 134160, Note_on_c, 14, 44, 90
17, 134219, Note_on_c, 14, 44, 0
17, 134220, Note_on_c, 14, 42, 90
17, 134279, Note_on_c, 14, 42, 0
17, 134280, Note_on_c, 14, 41, 90
17, 134339, Note_on_c, 14, 41, 0
17, 134340, Note_on_c, 14, 42, 90
17, 134399, Note_on_c, 14, 42, 0
17, 134400, Note_on_c, 14, 49, 90
17, 134459, Note_on_c, 14, 49, 0
17, 134460, Note_on_c, 14, 51, 90
17, 134519, Note_on_c, 14, 51, 0
17, 134520, Note_on_c, 14, 53, 90
17, 134579, Note_on_c, 14, 53, 0
17, 134580, Note_on_c, 14, 49, 90
17, 134639, Note_on_c, 14, 49, 0
17, 134640, Note_on_c, 14, 54, 90
17, 134699, Note_on_c, 14, 54, 0
17, 134700, Note_on_c, 14, 42, 90
17, 134759, Note_on_c, 14, 42, 0
17, 134820, Note_on_c, 14, 54, 90
17, 134879, Note_on_c, 14, 54, 0
17, 134880, Note_on_c, 14, 56, 90
17, 134939, Note_on_c, 14, 56, 0
17, 134940, Note_on_c, 14, 59, 90
17, 134999, Note_on_c, 14, 59, 0
17, 135000, Note_on_c, 14, 56, 90
17, 135059, Note_on_c, 14, 56, 0
17, 135060, Note_on_c, 14, 52, 90
17, 135119, Note_on_c, 14, 52, 0
17, 135120, Note_on_c, 14, 57, 90
17, 135179, Note_on_c, 14, 57, 0
17, 135180, Note_on_c, 14, 54, 90
17, 135239, Note_on_c, 14, 54, 0
17, 135240, Note_on_c, 14, 50, 90
17, 135299, Note_on_c, 14, 50, 0
17, 135300, Note_on_c, 14, 52, 90
17, 135359, Note_on_c, 14, 52, 0
17, 135360, Note_on_c, 14, 45, 90
17, 135419, Note_on_c, 14, 45, 0
17, 135420, Note_on_c, 14, 57, 90
17, 135449, Note_on_c, 14, 57, 0
17, 135450, Note_on_c, 14, 59, 90
17, 135479, Note_on_c, 14, 59, 0
17, 135480, Note_on_c, 14, 61, 90
17, 135539, Note_on_c, 14, 61, 0
17, 135540, Note_on_c, 14, 57, 90
17, 135599, Note_on_c, 14, 57, 0
17, 135600, Note_on_c, 14, 56, 90
17, 135629, Note_on_c, 14, 56, 0
17, 135630, Note_on_c, 14, 64, 90
17, 135659, Note_on_c, 14, 64, 0
17, 135660, Note_on_c, 14, 62, 90
17, 135689, Note_on_c, 14, 62, 0
17, 135690, Note_on_c, 14, 59, 90
17, 135719, Note_on_c, 14, 59, 0
17, 135720, Note_on_c, 14, 57, 90
17, 135749, Note_on_c, 14, 57, 0
17, 135750, Note_on_c, 14, 64, 90
17, 135779, Note_on_c, 14, 64, 0
17, 135780, Note_on_c, 14, 61, 90
17, 135809, Note_on_c, 14, 61, 0
17, 135810, Note_on_c, 14, 57, 90
17, 135839, Note_on_c, 14, 57, 0
17, 135840, Note_on_c, 14, 56, 90
17, 135869, Note_on_c, 14, 56, 0
17, 135870, Note_on_c, 14, 64, 90
17, 135899, Note_on_c, 14, 64, 0
17, 135900, Note_on_c, 14, 59, 90
17, 135929, Note_on_c, 14, 59, 0
17, 135930, Note_on_c, 14, 56, 90
17, 135959, Note_on_c, 14, 56, 0
17, 135960, Note_on_c, 14, 52, 90
17, 136109, Note_on_c, 14, 52, 0
17, 136110, Note_on_c, 14, 64, 90
17, 136139, Note_on_c, 14, 64, 0
17, 136140, Note_on_c, 14, 61, 90
17, 136169, Note_on_c, 14, 61, 0
17, 136170, Note_on_c, 14, 59, 90
17, 136199, Note_on_c, 14, 59, 0
17, 136200, Note_on_c, 14, 58, 90
17, 136229, Note_on_c, 14, 58, 0
17, 136230, Note_on_c, 14, 64, 90
17, 136259, Note_on_c, 14, 64, 0
17, 136260, Note_on_c, 14, 61, 90
17, 136289, Note_on_c, 14, 61, 0
17, 136290, Note_on_c, 14, 58, 90
17, 136319, Note_on_c, 14, 58, 0
17, 136320, Note_on_c, 14, 54, 90
17, 136349, Note_on_c, 14, 54, 0
17, 136350, Note_on_c, 14, 64, 90
17, 136379, Note_on_c, 14, 64, 0
17, 136380, Note_on_c, 14, 61, 90
17, 136409, Note_on_c, 14, 61, 0
17, 136410, Note_on_c, 14, 58, 90
17, 136439, Note_on_c, 14, 58, 0
17, 136440, Note_on_c, 14, 52, 90
17, 136469, Note_on_c, 14, 52, 0
17, 136470, Note_on_c, 14, 61, 90
17, 136499, Note_on_c, 14, 61, 0
17, 136500, Note_on_c, 14, 58, 90
17, 136529, Note_on_c, 14, 58, 0
17, 136530, Note_on_c, 14, 54, 90
17, 136559, Note_on_c, 14, 54, 0
17, 136560, Note_on_c, 14, 50, 90
17, 136619, Note_on_c, 14, 50, 0
17, 136620, Note_on_c, 14, 55, 90
17, 136679, Note_on_c, 14, 55, 0
17, 136680, Note_on_c, 14, 52, 90
17, 136739, Note_on_c, 14, 52, 0
17, 136740, Note_on_c, 14, 54, 90
17, 136799, Note_on_c, 14, 54, 0
17, 136800, Note_on_c, 14, 47, 90
17, 136859, Note_on_c, 14, 47, 0
17, 136860, Note_on_c, 14, 50, 90
17, 136919, Note_on_c, 14, 50, 0
17, 136920, Note_on_c, 14, 49, 90
17, 136979, Note_on_c, 14, 49, 0
17, 136980, Note_on_c, 14, 46, 90
17, 137039, Note_on_c, 14, 46, 0
17, 137040, Note_on_c, 14, 47, 90
17, 137099, Note_on_c, 14, 47, 0
17, 137100, Note_on_c, 14, 42, 90
17, 137159, Note_on_c, 14, 42, 0
17, 137160, Note_on_c, 14, 46, 90
17, 137219, Note_on_c, 14, 46, 0
17, 137220, Note_on_c, 14, 42, 90
17, 137279, Note_on_c, 14, 42, 0
17, 137280, Note_on_c, 14, 47, 90
17, 137339, Note_on_c, 14, 47, 0
17, 137340, Note_on_c, 14, 50, 90
17, 137369, Note_on_c, 14, 50, 0
17, 137370, Note_on_c, 14, 49, 90
17, 137399, Note_on_c, 14, 49, 0
17, 137400, Note_on_c, 14, 47, 90
17, 137459, Note_on_c, 14, 47, 0
17, 137460, Note_on_c, 14, 45, 90
17, 137519, Note_on_c, 14, 45, 0
17, 137520, Note_on_c, 14, 44, 90
17, 137579, Note_on_c, 14, 44, 0
17, 137580, Note_on_c, 14, 45, 90
17, 137639, Note_on_c, 14, 45, 0
17, 137640, Note_on_c, 14, 47, 90
17, 137699, Note_on_c, 14, 47, 0
17, 137700, Note_on_c, 14, 44, 90
17, 137759, Note_on_c, 14, 44, 0
17, 137760, Note_on_c, 14, 49, 90
17, 137819, Note_on_c, 14, 49, 0
17, 137820, Note_on_c, 14, 51, 90
17, 137879, Note_on_c, 14, 51, 0
17, 137880, Note_on_c, 14, 53, 90
17, 137939, Note_on_c, 14, 53, 0
17, 137940, Note_on_c, 14, 49, 90
17, 137999, Note_on_c, 14, 49, 0
17, 138000, Note_on_c, 14, 54, 90
17, 138059, Note_on_c, 14, 54, 0
17, 138060, Note_on_c, 14, 45, 90
17, 138119, Note_on_c, 14, 45, 0
17, 138120, Note_on_c, 14, 47, 90
17, 138179, Note_on_c, 14, 47, 0
17, 138180, Note_on_c, 14, 49, 90
17, 138239, Note_on_c, 14, 49, 0
17, 138240, Note_on_c, 14, 54, 90
17, 138240, Note_on_c, 14, 42, 90
17, 138479, Note_on_c, 14, 42, 0
17, 138479, Note_on_c, 14, 54, 0
17, 138720, Note_on_c, 14, 44, 90
17, 139199, Note_on_c, 14, 44, 0
17, 139200, Note_on_c, 14, 45, 90
17, 139439, Note_on_c, 14, 45, 0
17, 139440, Note_on_c, 14, 48, 90
17, 139679, Note_on_c, 14, 48, 0
17, 139680, Note_on_c, 14, 49, 90
17, 139799, Note_on_c, 14, 49, 0
17, 139800, Note_on_c, 14, 54, 90
17, 139919, Note_on_c, 14, 54, 0
17, 139920, Note_on_c, 14, 45, 90
17, 140039, Note_on_c, 14, 45, 0
17, 140040, Note_on_c, 14, 44, 90
17, 140159, Note_on_c, 14, 44, 0
17, 140160, Note_on_c, 14, 49, 100
17, 140640, Note_on_c, 14, 49, 0
17, 140640, Note_on_c, 14, 52, 100
17, 141600, Note_on_c, 14, 52, 0
17, 141600, Note_on_c, 14, 51, 100
17, 142560, Note_on_c, 14, 51, 0
17, 142560, Note_on_c, 14, 52, 100
17, 143040, Note_on_c, 14, 52, 0
17, 143040, Note_on_c, 14, 45, 100
17, 143400, Note_on_c, 14, 45, 0
17, 143400, Note_on_c, 14, 49, 100
17, 143520, Note_on_c, 14, 49, 0
17, 143640, Note_on_c, 14, 47, 100
17, 143760, Note_on_c, 14, 47, 0
17, 143760, Note_on_c, 14, 40, 90
17, 144239, Note_on_c, 14, 40, 0
17, 144240, Note_on_c, 14, 42, 90
17, 144479, Note_on_c, 14, 42, 0
17, 144480, Note_on_c, 14, 44, 90
17, 144959, Note_on_c, 14, 44, 0
17, 144960, Note_on_c, 14, 45, 90
17, 145679, Note_on_c, 14, 45, 0
17, 145680, Note_on_c, 14, 47, 90
17, 145919, Note_on_c, 14, 47, 0
17, 145920, Note_on_c, 14, 49, 90
17, 146159, Note_on_c, 14, 49, 0
17, 146160, Note_on_c, 14, 50, 90
17, 146639, Note_on_c, 14, 50, 0
17, 146640, Note_on_c, 14, 52, 90
17, 147119, Note_on_c, 14, 52, 0
17, 147120, Note_on_c, 14, 54, 90
17, 147599, Note_on_c, 14, 54, 0
17, 147600, Note_on_c, 14, 51, 90
17, 147839, Note_on_c, 14, 51, 0
17, 147840, Note_on_c, 14, 52, 90
17, 147899, Note_on_c, 14, 52, 0
17, 147900, Note_on_c, 14, 51, 90
17, 147959, Note_on_c, 14, 51, 0
17, 147960, Note_on_c, 14, 52, 90
17, 148019, Note_on_c, 14, 52, 0
17, 148020, Note_on_c, 14, 54, 90
17, 148079, Note_on_c, 14, 54, 0
17, 148080, Note_on_c, 14, 55, 90
17, 148139, Note_on_c, 14, 55, 0
17, 148140, Note_on_c, 14, 54, 90
17, 148199, Note_on_c, 14, 54, 0
17, 148200, Note_on_c, 14, 55, 90
17, 148259, Note_on_c, 14, 55, 0
17, 148260, Note_on_c, 14, 57, 90
17, 148319, Note_on_c, 14, 57, 0
17, 148320, Note_on_c, 14, 59, 90
17, 148379, Note_on_c, 14, 59, 0
17, 148380, Note_on_c, 14, 47, 90
17, 148439, Note_on_c, 14, 47, 0
17, 148440, Note_on_c, 14, 48, 90
17, 148499, Note_on_c, 14, 48, 0
17, 148500, Note_on_c, 14, 50, 90
17, 148559, Note_on_c, 14, 50, 0
17, 148560, Note_on_c, 14, 52, 90
17, 148619, Note_on_c, 14, 52, 0
17, 148620, Note_on_c, 14, 50, 90
17, 148679, Note_on_c, 14, 50, 0
17, 148680, Note_on_c, 14, 52, 90
17, 148739, Note_on_c, 14, 52, 0
17, 148740, Note_on_c, 14, 54, 90
17, 148799, Note_on_c, 14, 54, 0
17, 148800, Note_on_c, 14, 55, 90
17, 148859, Note_on_c, 14, 55, 0
17, 148860, Note_on_c, 14, 43, 90
17, 148919, Note_on_c, 14, 43, 0
17, 148920, Note_on_c, 14, 45, 90
17, 148979, Note_on_c, 14, 45, 0
17, 148980, Note_on_c, 14, 47, 90
17, 149039, Note_on_c, 14, 47, 0
17, 149040, Note_on_c, 14, 48, 90
17, 149099, Note_on_c, 14, 48, 0
17, 149100, Note_on_c, 14, 47, 90
17, 149159, Note_on_c, 14, 47, 0
17, 149160, Note_on_c, 14, 48, 90
17, 149219, Note_on_c, 14, 48, 0
17, 149220, Note_on_c, 14, 45, 90
17, 149279, Note_on_c, 14, 45, 0
17, 149280, Note_on_c, 14, 50, 90
17, 149339, Note_on_c, 14, 50, 0
17, 149340, Note_on_c, 14, 52, 90
17, 149399, Note_on_c, 14, 52, 0
17, 149400, Note_on_c, 14, 54, 90
17, 149459, Note_on_c, 14, 54, 0
17, 149460, Note_on_c, 14, 50, 90
17, 149519, Note_on_c, 14, 50, 0
17, 149520, Note_on_c, 14, 55, 90
17, 149579, Note_on_c, 14, 55, 0
17, 149580, Note_on_c, 14, 54, 90
17, 149639, Note_on_c, 14, 54, 0
17, 149640, Note_on_c, 14, 55, 90
17, 149699, Note_on_c, 14, 55, 0
17, 149700, Note_on_c, 14, 52, 90
17, 149759, Note_on_c, 14, 52, 0
17, 149760, Note_on_c, 14, 58, 90
17, 149819, Note_on_c, 14, 58, 0
17, 149820, Note_on_c, 14, 54, 90
17, 149879, Note_on_c, 14, 54, 0
17, 149880, Note_on_c, 14, 59, 90
17, 149939, Note_on_c, 14, 59, 0
17, 149940, Note_on_c, 14, 55, 90
17, 149999, Note_on_c, 14, 55, 0
17, 150000, Note_on_c, 14, 54, 90
17, 150059, Note_on_c, 14, 54, 0
17, 150060, Note_on_c, 14, 55, 90
17, 150119, Note_on_c, 14, 55, 0
17, 150120, Note_on_c, 14, 54, 90
17, 150179, Note_on_c, 14, 54, 0
17, 150180, Note_on_c, 14, 52, 90
17, 150239, Note_on_c, 14, 52, 0
17, 150240, Note_on_c, 14, 50, 90
17, 150299, Note_on_c, 14, 50, 0
17, 150300, Note_on_c, 14, 49, 90
17, 150359, Note_on_c, 14, 49, 0
17, 150360, Note_on_c, 14, 50, 90
17, 150419, Note_on_c, 14, 50, 0
17, 150420, Note_on_c, 14, 47, 90
17, 150479, Note_on_c, 14, 47, 0
17, 150480, Note_on_c, 14, 52, 90
17, 150539, Note_on_c, 14, 52, 0
17, 150540, Note_on_c, 14, 50, 90
17, 150599, Note_on_c, 14, 50, 0
17, 150600, Note_on_c, 14, 52, 90
17, 150659, Note_on_c, 14, 52, 0
17, 150660, Note_on_c, 14, 49, 90
17, 150719, Note_on_c, 14, 49, 0
17, 150720, Note_on_c, 14, 54, 90
17, 150779, Note_on_c, 14, 54, 0
17, 150780, Note_on_c, 14, 52, 90
17, 150839, Note_on_c, 14, 52, 0
17, 150840, Note_on_c, 14, 54, 90
17, 150899, Note_on_c, 14, 54, 0
17, 150900, Note_on_c, 14, 50, 90
17, 150959, Note_on_c, 14, 50, 0
17, 150960, Note_on_c, 14, 55, 90
17, 151019, Note_on_c, 14, 55, 0
17, 151020, Note_on_c, 14, 54, 90
17, 151079, Note_on_c, 14, 54, 0
17, 151080, Note_on_c, 14, 52, 90
17, 151139, Note_on_c, 14, 52, 0
17, 151140, Note_on_c, 14, 50, 90
17, 151199, Note_on_c, 14, 50, 0
17, 151200, Note_on_c, 14, 49, 90
17, 151259, Note_on_c, 14, 49, 0
17, 151260, Note_on_c, 14, 50, 90
17, 151319, Note_on_c, 14, 50, 0
17, 151320, Note_on_c, 14, 49, 90
17, 151379, Note_on_c, 14, 49, 0
17, 151380, Note_on_c, 14, 47, 90
17, 151439, Note_on_c, 14, 47, 0
17, 151440, Note_on_c, 14, 46, 90
17, 151619, Note_on_c, 14, 46, 0
17, 151620, Note_on_c, 14, 47, 90
17, 151649, Note_on_c, 14, 47, 0
17, 151650, Note_on_c, 14, 49, 90
17, 151679, Note_on_c, 14, 49, 0
17, 151680, Note_on_c, 14, 42, 90
17, 151739, Note_on_c, 14, 42, 0
17, 151740, Note_on_c, 14, 52, 90
17, 151799, Note_on_c, 14, 52, 0
17, 151800, Note_on_c, 14, 50, 90
17, 151859, Note_on_c, 14, 50, 0
17, 151860, Note_on_c, 14, 55, 90
17, 151919, Note_on_c, 14, 55, 0
17, 151920, Note_on_c, 14, 54, 90
17, 151979, Note_on_c, 14, 54, 0
17, 151980, Note_on_c, 14, 52, 90
17, 152039, Note_on_c, 14, 52, 0
17, 152040, Note_on_c, 14, 54, 90
17, 152099, Note_on_c, 14, 54, 0
17, 152100, Note_on_c, 14, 42, 90
17, 152159, Note_on_c, 14, 42, 0
17, 152160, Note_on_c, 14, 47, 90
17, 152219, Note_on_c, 14, 47, 0
17, 152220, Note_on_c, 14, 59, 90
17, 152279, Note_on_c, 14, 59, 0
17, 152280, Note_on_c, 14, 57, 90
17, 152339, Note_on_c, 14, 57, 0
17, 152340, Note_on_c, 14, 54, 90
17, 152399, Note_on_c, 14, 54, 0
17, 152400, Note_on_c, 14, 43, 90
17, 152459, Note_on_c, 14, 43, 0
17, 152460, Note_on_c, 14, 55, 90
17, 152519, Note_on_c, 14, 55, 0
17, 152520, Note_on_c, 14, 54, 90
17, 152579, Note_on_c, 14, 54, 0
17, 152580, Note_on_c, 14, 50, 90
17, 152639, Note_on_c, 14, 50, 0
17, 152640, Note_on_c, 14, 52, 90
17, 152699, Note_on_c, 14, 52, 0
17, 152700, Note_on_c, 14, 49, 90
17, 152759, Note_on_c, 14, 49, 0
17, 152760, Note_on_c, 14, 54, 90
17, 152819, Note_on_c, 14, 54, 0
17, 152820, Note_on_c, 14, 42, 90
17, 152879, Note_on_c, 14, 42, 0
17, 152880, Note_on_c, 14, 47, 90
17, 153119, Note_on_c, 14, 47, 0
17, 153240, Note_on_c, 14, 47, 90
17, 153299, Note_on_c, 14, 47, 0
17, 153360, Note_on_c, 14, 49, 90
17, 153419, Note_on_c, 14, 49, 0
17, 153480, Note_on_c, 14, 50, 90
17, 153539, Note_on_c, 14, 50, 0
17, 153600, Note_on_c, 14, 52, 90
17, 153659, Note_on_c, 14, 52, 0
17, 153720, Note_on_c, 14, 54, 90
17, 153779, Note_on_c, 14, 54, 0
17, 153780, Note_on_c, 14, 47, 90
17, 153839, Note_on_c, 14, 47, 0
17, 153840, Note_on_c, 14, 46, 90
17, 153899, Note_on_c, 14, 46, 0
17, 153900, Note_on_c, 14, 47, 90
17, 153959, Note_on_c, 14, 47, 0
17, 153960, Note_on_c, 14, 42, 90
17, 154019, Note_on_c, 14, 42, 0
17, 154020, Note_on_c, 14, 54, 90
17, 154049, Note_on_c, 14, 54, 0
17, 154050, Note_on_c, 14, 56, 90
17, 154079, Note_on_c, 14, 56, 0
17, 154080, Note_on_c, 14, 58, 90
17, 154139, Note_on_c, 14, 58, 0
17, 154140, Note_on_c, 14, 54, 90
17, 154199, Note_on_c, 14, 54, 0
17, 154200, Note_on_c, 14, 59, 90
17, 154259, Note_on_c, 14, 59, 0
17, 154260, Note_on_c, 14, 61, 90
17, 154319, Note_on_c, 14, 61, 0
17, 154320, Note_on_c, 14, 62, 90
17, 154379, Note_on_c, 14, 62, 0
17, 154380, Note_on_c, 14, 61, 90
17, 154439, Note_on_c, 14, 61, 0
17, 154440, Note_on_c, 14, 59, 90
17, 154499, Note_on_c, 14, 59, 0
17, 154500, Note_on_c, 14, 61, 90
17, 154559, Note_on_c, 14, 61, 0
17, 154560, Note_on_c, 14, 59, 90
17, 154619, Note_on_c, 14, 59, 0
17, 154620, Note_on_c, 14, 57, 90
17, 154679, Note_on_c, 14, 57, 0
17, 154680, Note_on_c, 14, 56, 90
17, 154739, Note_on_c, 14, 56, 0
17, 154800, Note_on_c, 14, 59, 90
17, 154859, Note_on_c, 14, 59, 0
17, 154920, Note_on_c, 14, 56, 90
17, 154979, Note_on_c, 14, 56, 0
17, 155040, Note_on_c, 14, 52, 90
17, 155099, Note_on_c, 14, 52, 0
17, 155160, Note_on_c, 14, 57, 90
17, 155219, Note_on_c, 14, 57, 0
17, 155220, Note_on_c, 14, 59, 90
17, 155279, Note_on_c, 14, 59, 0
17, 155280, Note_on_c, 14, 61, 90
17, 155339, Note_on_c, 14, 61, 0
17, 155340, Note_on_c, 14, 59, 90
17, 155399, Note_on_c, 14, 59, 0
17, 155400, Note_on_c, 14, 57, 90
17, 155459, Note_on_c, 14, 57, 0
17, 155460, Note_on_c, 14, 59, 90
17, 155519, Note_on_c, 14, 59, 0
17, 155520, Note_on_c, 14, 57, 90
17, 155579, Note_on_c, 14, 57, 0
17, 155580, Note_on_c, 14, 55, 90
17, 155639, Note_on_c, 14, 55, 0
17, 155640, Note_on_c, 14, 54, 90
17, 155699, Note_on_c, 14, 54, 0
17, 155760, Note_on_c, 14, 57, 90
17, 155819, Note_on_c, 14, 57, 0
17, 155880, Note_on_c, 14, 54, 90
17, 155939, Note_on_c, 14, 54, 0
17, 156000, Note_on_c, 14, 50, 90
17, 156059, Note_on_c, 14, 50, 0
17, 156120, Note_on_c, 14, 55, 90
17, 156179, Note_on_c, 14, 55, 0
17, 156180, Note_on_c, 14, 57, 90
17, 156239, Note_on_c, 14, 57, 0
17, 156240, Note_on_c, 14, 55, 90
17, 156299, Note_on_c, 14, 55, 0
17, 156300, Note_on_c, 14, 54, 90
17, 156359, Note_on_c, 14, 54, 0
17, 156360, Note_on_c, 14, 52, 90
17, 156419, Note_on_c, 14, 52, 0
17, 156420, Note_on_c, 14, 54, 90
17, 156479, Note_on_c, 14, 54, 0
17, 156480, Note_on_c, 14, 55, 90
17, 156539, Note_on_c, 14, 55, 0
17, 156540, Note_on_c, 14, 52, 90
17, 156599, Note_on_c, 14, 52, 0
17, 156600, Note_on_c, 14, 54, 90
17, 156659, Note_on_c, 14, 54, 0
17, 156660, Note_on_c, 14, 55, 90
17, 156719, Note_on_c, 14, 55, 0
17, 156720, Note_on_c, 14, 54, 90
17, 156779, Note_on_c, 14, 54, 0
17, 156780, Note_on_c, 14, 52, 90
17, 156839, Note_on_c, 14, 52, 0
17, 156840, Note_on_c, 14, 50, 90
17, 156899, Note_on_c, 14, 50, 0
17, 156900, Note_on_c, 14, 52, 90
17, 156959, Note_on_c, 14, 52, 0
17, 156960, Note_on_c, 14, 54, 90
17, 157019, Note_on_c, 14, 54, 0
17, 157020, Note_on_c, 14, 50, 90
17, 157079, Note_on_c, 14, 50, 0
17, 157080, Note_on_c, 14, 52, 90
17, 157139, Note_on_c, 14, 52, 0
17, 157140, Note_on_c, 14, 50, 90
17, 157199, Note_on_c, 14, 50, 0
17, 157200, Note_on_c, 14, 49, 90
17, 157259, Note_on_c, 14, 49, 0
17, 157260, Note_on_c, 14, 50, 90
17, 157319, Note_on_c, 14, 50, 0
17, 157320, Note_on_c, 14, 52, 90
17, 157379, Note_on_c, 14, 52, 0
17, 157380, Note_on_c, 14, 49, 90
17, 157439, Note_on_c, 14, 49, 0
17, 157440, Note_on_c, 14, 46, 90
17, 157499, Note_on_c, 14, 46, 0
17, 157500, Note_on_c, 14, 42, 90
17, 157559, Note_on_c, 14, 42, 0
17, 157560, Note_on_c, 14, 47, 90
17, 157619, Note_on_c, 14, 47, 0
17, 157620, Note_on_c, 14, 50, 90
17, 157679, Note_on_c, 14, 50, 0
17, 157680, Note_on_c, 14, 54, 90
17, 157739, Note_on_c, 14, 54, 0
17, 157740, Note_on_c, 14, 42, 90
17, 157799, Note_on_c, 14, 42, 0
17, 157800, Note_on_c, 14, 47, 90
17, 157859, Note_on_c, 14, 47, 0
17, 157860, Note_on_c, 14, 59, 90
17, 157919, Note_on_c, 14, 59, 0
17, 157920, Note_on_c, 14, 58, 90
17, 157979, Note_on_c, 14, 58, 0
17, 157980, Note_on_c, 14, 54, 90
17, 158039, Note_on_c, 14, 54, 0
17, 158040, Note_on_c, 14, 47, 90
17, 158099, Note_on_c, 14, 47, 0
17, 158160, Note_on_c, 14, 49, 90
17, 158219, Note_on_c, 14, 49, 0
17, 158280, Note_on_c, 14, 50, 90
17, 158339, Note_on_c, 14, 50, 0
17, 158400, Note_on_c, 14, 52, 90
17, 158459, Note_on_c, 14, 52, 0
17, 158520, Note_on_c, 14, 54, 90
17, 158579, Note_on_c, 14, 54, 0
17, 158580, Note_on_c, 14, 47, 90
17, 158639, Note_on_c, 14, 47, 0
17, 158640, Note_on_c, 14, 46, 90
17, 158699, Note_on_c, 14, 46, 0
17, 158700, Note_on_c, 14, 47, 90
17, 158759, Note_on_c, 14, 47, 0
17, 158760, Note_on_c, 14, 42, 90
17, 158819, Note_on_c, 14, 42, 0
17, 158820, Note_on_c, 14, 54, 90
17, 158849, Note_on_c, 14, 54, 0
17, 158850, Note_on_c, 14, 56, 90
17, 158879, Note_on_c, 14, 56, 0
17, 158880, Note_on_c, 14, 58, 90
17, 158939, Note_on_c, 14, 58, 0
17, 158940, Note_on_c, 14, 54, 90
17, 158999, Note_on_c, 14, 54, 0
17, 159000, Note_on_c, 14, 59, 90
17, 159059, Note_on_c, 14, 59, 0
17, 159120, Note_on_c, 14, 49, 90
17, 159179, Note_on_c, 14, 49, 0
17, 159240, Note_on_c, 14, 50, 90
17, 159299, Note_on_c, 14, 50, 0
17, 159360, Note_on_c, 14, 52, 90
17, 159419, Note_on_c, 14, 52, 0
17, 159480, Note_on_c, 14, 52, 90
17, 159539, Note_on_c, 14, 52, 0
17, 159540, Note_on_c, 14, 50, 90
17, 159599, Note_on_c, 14, 50, 0
17, 159600, Note_on_c, 14, 46, 90
17, 159659, Note_on_c, 14, 46, 0
17, 159660, Note_on_c, 14, 47, 90
17, 159719, Note_on_c, 14, 47, 0
17, 159720, Note_on_c, 14, 42, 90
17, 159779, Note_on_c, 14, 42, 0
17, 159780, Note_on_c, 14, 54, 90
17, 159839, Note_on_c, 14, 54, 0
17, 159840, Note_on_c, 14, 46, 90
17, 159899, Note_on_c, 14, 46, 0
17, 159900, Note_on_c, 14, 42, 90
17, 159959, Note_on_c, 14, 42, 0
17, 159960, Note_on_c, 14, 47, 90
17, 160019, Note_on_c, 14, 47, 0
17, 160020, Note_on_c, 14, 49, 90
17, 160079, Note_on_c, 14, 49, 0
17, 160080, Note_on_c, 14, 50, 90
17, 160139, Note_on_c, 14, 50, 0
17, 160140, Note_on_c, 14, 49, 90
17, 160199, Note_on_c, 14, 49, 0
17, 160200, Note_on_c, 14, 47, 90
17, 160259, Note_on_c, 14, 47, 0
17, 160260, Note_on_c, 14, 49, 90
17, 160319, Note_on_c, 14, 49, 0
17, 160320, Note_on_c, 14, 47, 90
17, 160379, Note_on_c, 14, 47, 0
17, 160380, Note_on_c, 14, 45, 90
17, 160439, Note_on_c, 14, 45, 0
17, 160440, Note_on_c, 14, 44, 90
17, 160499, Note_on_c, 14, 44, 0
17, 160560, Note_on_c, 14, 47, 90
17, 160619, Note_on_c, 14, 47, 0
17, 160680, Note_on_c, 14, 44, 90
17, 160739, Note_on_c, 14, 44, 0
17, 160800, Note_on_c, 14, 40, 90
17, 160859, Note_on_c, 14, 40, 0
17, 160920, Note_on_c, 14, 45, 90
17, 160979, Note_on_c, 14, 45, 0
17, 160980, Note_on_c, 14, 47, 90
17, 161039, Note_on_c, 14, 47, 0
17, 161040, Note_on_c, 14, 49, 90
17, 161099, Note_on_c, 14, 49, 0
17, 161100, Note_on_c, 14, 47, 90
17, 161159, Note_on_c, 14, 47, 0
17, 161160, Note_on_c, 14, 45, 90
17, 161219, Note_on_c, 14, 45, 0
17, 161220, Note_on_c, 14, 47, 90
17, 161279, Note_on_c, 14, 47, 0
17, 161280, Note_on_c, 14, 45, 90
17, 161339, Note_on_c, 14, 45, 0
17, 161340, Note_on_c, 14, 43, 90
17, 161399, Note_on_c, 14, 43, 0
17, 161400, Note_on_c, 14, 42, 90
17, 161459, Note_on_c, 14, 42, 0
17, 161520, Note_on_c, 14, 45, 90
17, 161579, Note_on_c, 14, 45, 0
17, 161640, Note_on_c, 14, 42, 90
17, 161699, Note_on_c, 14, 42, 0
17, 161760, Note_on_c, 14, 38, 90
17, 161819, Note_on_c, 14, 38, 0
17, 161880, Note_on_c, 14, 55, 90
17, 161939, Note_on_c, 14, 55, 0
17, 161940, Note_on_c, 14, 54, 90
17, 161999, Note_on_c, 14, 54, 0
17, 162000, Note_on_c, 14, 52, 90
17, 162059, Note_on_c, 14, 52, 0
17, 162060, Note_on_c, 14, 50, 90
17, 162119, Note_on_c, 14, 50, 0
17, 162120, Note_on_c, 14, 49, 90
17, 162179, Note_on_c, 14, 49, 0
17, 162180, Note_on_c, 14, 47, 90
17, 162209, Note_on_c, 14, 47, 0
17, 162210, Note_on_c, 14, 45, 90
17, 162239, Note_on_c, 14, 45, 0
17, 162240, Note_on_c, 14, 47, 90
17, 162299, Note_on_c, 14, 47, 0
17, 162300, Note_on_c, 14, 49, 90
17, 162359, Note_on_c, 14, 49, 0
17, 162360, Note_on_c, 14, 50, 90
17, 162419, Note_on_c, 14, 50, 0
17, 162420, Note_on_c, 14, 42, 90
17, 162479, Note_on_c, 14, 42, 0
17, 162480, Note_on_c, 14, 43, 90
17, 162539, Note_on_c, 14, 43, 0
17, 162540, Note_on_c, 14, 45, 90
17, 162599, Note_on_c, 14, 45, 0
17, 162600, Note_on_c, 14, 38, 90
17, 162659, Note_on_c, 14, 38, 0
17, 162660, Note_on_c, 14, 40, 90
17, 162719, Note_on_c, 14, 40, 0
17, 162720, Note_on_c, 14, 42, 90
17, 162779, Note_on_c, 14, 42, 0
17, 162780, Note_on_c, 14, 43, 90
17, 162839, Note_on_c, 14, 43, 0
17, 162840, Note_on_c, 14, 45, 90
17, 162899, Note_on_c, 14, 45, 0
17, 162900, Note_on_c, 14, 47, 90
17, 162959, Note_on_c, 14, 47, 0
17, 162960, Note_on_c, 14, 49, 90
17, 163019, Note_on_c, 14, 49, 0
17, 163020, Note_on_c, 14, 45, 90
17, 163079, Note_on_c, 14, 45, 0
17, 163080, Note_on_c, 14, 50, 90
17, 163139, Note_on_c, 14, 50, 0
17, 163140, Note_on_c, 14, 52, 90
17, 163199, Note_on_c, 14, 52, 0
17, 163200, Note_on_c, 14, 54, 90
17, 163259, Note_on_c, 14, 54, 0
17, 163260, Note_on_c, 14, 55, 90
17, 163319, Note_on_c, 14, 55, 0
17, 163320, Note_on_c, 14, 57, 90
17, 163379, Note_on_c, 14, 57, 0
17, 163380, Note_on_c, 14, 59, 90
17, 163439, Note_on_c, 14, 59, 0
17, 163440, Note_on_c, 14, 61, 90
17, 163499, Note_on_c, 14, 61, 0
17, 163500, Note_on_c, 14, 59, 90
17, 163559, Note_on_c, 14, 59, 0
17, 163560, Note_on_c, 14, 58, 90
17, 163619, Note_on_c, 14, 58, 0
17, 163620, Note_on_c, 14, 56, 90
17, 163679, Note_on_c, 14, 56, 0
17, 163680, Note_on_c, 14, 58, 90
17, 163739, Note_on_c, 14, 58, 0
17, 163740, Note_on_c, 14, 54, 90
17, 163799, Note_on_c, 14, 54, 0
17, 163800, Note_on_c, 14, 47, 90
17, 163859, Note_on_c, 14, 47, 0
17, 163860, Note_on_c, 14, 49, 90
17, 163919, Note_on_c, 14, 49, 0
17, 163920, Note_on_c, 14, 50, 90
17, 163979, Note_on_c, 14, 50, 0
17, 163980, Note_on_c, 14, 52, 90
17, 164039, Note_on_c, 14, 52, 0
17, 164040, Note_on_c, 14, 54, 90
17, 164099, Note_on_c, 14, 54, 0
17, 164100, Note_on_c, 14, 56, 90
17, 164159, Note_on_c, 14, 56, 0
17, 164160, Note_on_c, 14, 57, 90
17, 164219, Note_on_c, 14, 57, 0
17, 164220, Note_on_c, 14, 54, 90
17, 164279, Note_on_c, 14, 54, 0
17, 164280, Note_on_c, 14, 47, 90
17, 164339, Note_on_c, 14, 47, 0
17, 164340, Note_on_c, 14, 49, 90
17, 164399, Note_on_c, 14, 49, 0
17, 164400, Note_on_c, 14, 50, 90
17, 164459, Note_on_c, 14, 50, 0
17, 164460, Note_on_c, 14, 52, 90
17, 164519, Note_on_c, 14, 52, 0
17, 164520, Note_on_c, 14, 54, 90
17, 164579, Note_on_c, 14, 54, 0
17, 164580, Note_on_c, 14, 56, 90
17, 164639, Note_on_c, 14, 56, 0
17, 164640, Note_on_c, 14, 57, 90
17, 164699, Note_on_c, 14, 57, 0
17, 164700, Note_on_c, 14, 54, 90
17, 164759, Note_on_c, 14, 54, 0
17, 164760, Note_on_c, 14, 59, 90
17, 164819, Note_on_c, 14, 59, 0
17, 164820, Note_on_c, 14, 61, 90
17, 164879, Note_on_c, 14, 61, 0
17, 164880, Note_on_c, 14, 62, 90
17, 164939, Note_on_c, 14, 62, 0
17, 164940, Note_on_c, 14, 59, 90
17, 164999, Note_on_c, 14, 59, 0
17, 165000, Note_on_c, 14, 61, 90
17, 165059, Note_on_c, 14, 61, 0
17, 165060, Note_on_c, 14, 59, 90
17, 165119, Note_on_c, 14, 59, 0
17, 165120, Note_on_c, 14, 57, 90
17, 165179, Note_on_c, 14, 57, 0
17, 165180, Note_on_c, 14, 59, 90
17, 165239, Note_on_c, 14, 59, 0
17, 165240, Note_on_c, 14, 61, 90
17, 165299, Note_on_c, 14, 61, 0
17, 165300, Note_on_c, 14, 59, 90
17, 165359, Note_on_c, 14, 59, 0
17, 165360, Note_on_c, 14, 61, 90
17, 165419, Note_on_c, 14, 61, 0
17, 165420, Note_on_c, 14, 49, 90
17, 165479, Note_on_c, 14, 49, 0
17, 165480, Note_on_c, 14, 42, 90
17, 165539, Note_on_c, 14, 42, 0
17, 165540, Note_on_c, 14, 44, 90
17, 165599, Note_on_c, 14, 44, 0
17, 165600, Note_on_c, 14, 45, 90
17, 165659, Note_on_c, 14, 45, 0
17, 165660, Note_on_c, 14, 47, 90
17, 165719, Note_on_c, 14, 47, 0
17, 165720, Note_on_c, 14, 49, 90
17, 165779, Note_on_c, 14, 49, 0
17, 165780, Note_on_c, 14, 47, 90
17, 165839, Note_on_c, 14, 47, 0
17, 165840, Note_on_c, 14, 45, 90
17, 165899, Note_on_c, 14, 45, 0
17, 165900, Note_on_c, 14, 44, 90
17, 165959, Note_on_c, 14, 44, 0
17, 165960, Note_on_c, 14, 42, 90
17, 166019, Note_on_c, 14, 42, 0
17, 166020, Note_on_c, 14, 49, 90
17, 166079, Note_on_c, 14, 49, 0
17, 166080, Note_on_c, 14, 54, 90
17, 166139, Note_on_c, 14, 54, 0
17, 166140, Note_on_c, 14, 42, 90
17, 166199, Note_on_c, 14, 42, 0
17, 166200, Note_on_c, 14, 47, 90
17, 166259, Note_on_c, 14, 47, 0
17, 166320, Note_on_c, 14, 52, 90
17, 166379, Note_on_c, 14, 52, 0
17, 166440, Note_on_c, 14, 45, 90
17, 166499, Note_on_c, 14, 45, 0
17, 166560, Note_on_c, 14, 50, 90
17, 166619, Note_on_c, 14, 50, 0
17, 166680, Note_on_c, 14, 44, 90
17, 166739, Note_on_c, 14, 44, 0
17, 166800, Note_on_c, 14, 49, 90
17, 166859, Note_on_c, 14, 49, 0
17, 166920, Note_on_c, 14, 42, 90
17, 166979, Note_on_c, 14, 42, 0
17, 166980, Note_on_c, 14, 54, 90
17, 167039, Note_on_c, 14, 54, 0
17, 167040, Note_on_c, 14, 52, 90
17, 167099, Note_on_c, 14, 52, 0
17, 167100, Note_on_c, 14, 50, 90
17, 167159, Note_on_c, 14, 50, 0
17, 167160, Note_on_c, 14, 49, 90
17, 167279, Note_on_c, 14, 49, 0
17, 167340, Note_on_c, 14, 61, 90
17, 167399, Note_on_c, 14, 61, 0
17, 167400, Note_on_c, 14, 62, 90
17, 167459, Note_on_c, 14, 62, 0
17, 167460, Note_on_c, 14, 59, 90
17, 167519, Note_on_c, 14, 59, 0
17, 167520, Note_on_c, 14, 61, 90
17, 167579, Note_on_c, 14, 61, 0
17, 167580, Note_on_c, 14, 49, 90
17, 167639, Note_on_c, 14, 49, 0
17, 167640, Note_on_c, 14, 54, 90
17, 167699, Note_on_c, 14, 54, 0
17, 167760, Note_on_c, 14, 56, 90
17, 167819, Note_on_c, 14, 56, 0
17, 167880, Note_on_c, 14, 57, 90
17, 167939, Note_on_c, 14, 57, 0
17, 168000, Note_on_c, 14, 59, 90
17, 168059, Note_on_c, 14, 59, 0
17, 168120, Note_on_c, 14, 61, 90
17, 168179, Note_on_c, 14, 61, 0
17, 168180, Note_on_c, 14, 54, 90
17, 168239, Note_on_c, 14, 54, 0
17, 168240, Note_on_c, 14, 53, 90
17, 168299, Note_on_c, 14, 53, 0
17, 168300, Note_on_c, 14, 54, 90
17, 168359, Note_on_c, 14, 54, 0
17, 168360, Note_on_c, 14, 61, 90
17, 168419, Note_on_c, 14, 61, 0
17, 168420, Note_on_c, 14, 49, 90
17, 168449, Note_on_c, 14, 49, 0
17, 168450, Note_on_c, 14, 51, 90
17, 168479, Note_on_c, 14, 51, 0
17, 168480, Note_on_c, 14, 53, 90
17, 168539, Note_on_c, 14, 53, 0
17, 168540, Note_on_c, 14, 49, 90
17, 168599, Note_on_c, 14, 49, 0
17, 168600, Note_on_c, 14, 54, 90
17, 168659, Note_on_c, 14, 54, 0
17, 168660, Note_on_c, 14, 56, 90
17, 168719, Note_on_c, 14, 56, 0
17, 168720, Note_on_c, 14, 57, 90
17, 168779, Note_on_c, 14, 57, 0
17, 168780, Note_on_c, 14, 56, 90
17, 168839, Note_on_c, 14, 56, 0
17, 168840, Note_on_c, 14, 54, 90
17, 168899, Note_on_c, 14, 54, 0
17, 168900, Note_on_c, 14, 56, 90
17, 168959, Note_on_c, 14, 56, 0
17, 168960, Note_on_c, 14, 54, 90
17, 169019, Note_on_c, 14, 54, 0
17, 169020, Note_on_c, 14, 52, 90
17, 169079, Note_on_c, 14, 52, 0
17, 169080, Note_on_c, 14, 51, 90
17, 169139, Note_on_c, 14, 51, 0
17, 169200, Note_on_c, 14, 54, 90
17, 169259, Note_on_c, 14, 54, 0
17, 169320, Note_on_c, 14, 51, 90
17, 169379, Note_on_c, 14, 51, 0
17, 169440, Note_on_c, 14, 47, 90
17, 169499, Note_on_c, 14, 47, 0
17, 169560, Note_on_c, 14, 52, 90
17, 169619, Note_on_c, 14, 52, 0
17, 169620, Note_on_c, 14, 54, 90
17, 169679, Note_on_c, 14, 54, 0
17, 169680, Note_on_c, 14, 56, 90
17, 169739, Note_on_c, 14, 56, 0
17, 169740, Note_on_c, 14, 54, 90
17, 169799, Note_on_c, 14, 54, 0
17, 169800, Note_on_c, 14, 52, 90
17, 169859, Note_on_c, 14, 52, 0
17, 169860, Note_on_c, 14, 54, 90
17, 169919, Note_on_c, 14, 54, 0
17, 169920, Note_on_c, 14, 52, 90
17, 169979, Note_on_c, 14, 52, 0
17, 169980, Note_on_c, 14, 50, 90
17, 170039, Note_on_c, 14, 50, 0
17, 170040, Note_on_c, 14, 49, 90
17, 170099, Note_on_c, 14, 49, 0
17, 170160, Note_on_c, 14, 52, 90
17, 170219, Note_on_c, 14, 52, 0
17, 170280, Note_on_c, 14, 49, 90
17, 170339, Note_on_c, 14, 49, 0
17, 170400, Note_on_c, 14, 45, 90
17, 170459, Note_on_c, 14, 45, 0
17, 170520, Note_on_c, 14, 50, 90
17, 170579, Note_on_c, 14, 50, 0
17, 170580, Note_on_c, 14, 52, 90
17, 170639, Note_on_c, 14, 52, 0
17, 170640, Note_on_c, 14, 50, 90
17, 170699, Note_on_c, 14, 50, 0
17, 170700, Note_on_c, 14, 49, 90
17, 170759, Note_on_c, 14, 49, 0
17, 170760, Note_on_c, 14, 47, 90
17, 170819, Note_on_c, 14, 47, 0
17, 170820, Note_on_c, 14, 49, 90
17, 170879, Note_on_c, 14, 49, 0
17, 170880, Note_on_c, 14, 50, 90
17, 170939, Note_on_c, 14, 50, 0
17, 170940, Note_on_c, 14, 47, 90
17, 170999, Note_on_c, 14, 47, 0
17, 171000, Note_on_c, 14, 49, 90
17, 171059, Note_on_c, 14, 49, 0
17, 171060, Note_on_c, 14, 50, 90
17, 171119, Note_on_c, 14, 50, 0
17, 171120, Note_on_c, 14, 49, 90
17, 171179, Note_on_c, 14, 49, 0
17, 171180, Note_on_c, 14, 47, 90
17, 171239, Note_on_c, 14, 47, 0
17, 171240, Note_on_c, 14, 45, 90
17, 171299, Note_on_c, 14, 45, 0
17, 171300, Note_on_c, 14, 47, 90
17, 171359, Note_on_c, 14, 47, 0
17, 171360, Note_on_c, 14, 49, 90
17, 171419, Note_on_c, 14, 49, 0
17, 171420, Note_on_c, 14, 45, 90
17, 171479, Note_on_c, 14, 45, 0
17, 171480, Note_on_c, 14, 47, 90
17, 171539, Note_on_c, 14, 47, 0
17, 171540, Note_on_c, 14, 45, 90
17, 171599, Note_on_c, 14, 45, 0
17, 171600, Note_on_c, 14, 44, 90
17, 171659, Note_on_c, 14, 44, 0
17, 171660, Note_on_c, 14, 45, 90
17, 171719, Note_on_c, 14, 45, 0
17, 171720, Note_on_c, 14, 47, 90
17, 171779, Note_on_c, 14, 47, 0
17, 171780, Note_on_c, 14, 56, 90
17, 171839, Note_on_c, 14, 56, 0
17, 171840, Note_on_c, 14, 53, 90
17, 171899, Note_on_c, 14, 53, 0
17, 171900, Note_on_c, 14, 49, 90
17, 171959, Note_on_c, 14, 49, 0
17, 171960, Note_on_c, 14, 54, 90
17, 172019, Note_on_c, 14, 54, 0
17, 172020, Note_on_c, 14, 57, 90
17, 172079, Note_on_c, 14, 57, 0
17, 172080, Note_on_c, 14, 61, 90
17, 172139, Note_on_c, 14, 61, 0
17, 172140, Note_on_c, 14, 49, 90
17, 172199, Note_on_c, 14, 49, 0
17, 172200, Note_on_c, 14, 54, 90
17, 172259, Note_on_c, 14, 54, 0
17, 172260, Note_on_c, 14, 56, 90
17, 172319, Note_on_c, 14, 56, 0
17, 172320, Note_on_c, 14, 57, 90
17, 172379, Note_on_c, 14, 57, 0
17, 172380, Note_on_c, 14, 54, 90
17, 172439, Note_on_c, 14, 54, 0
17, 172440, Note_on_c, 14, 56, 90
17, 172499, Note_on_c, 14, 56, 0
17, 172500, Note_on_c, 14, 54, 90
17, 172559, Note_on_c, 14, 54, 0
17, 172560, Note_on_c, 14, 56, 90
17, 172619, Note_on_c, 14, 56, 0
17, 172620, Note_on_c, 14, 58, 90
17, 172679, Note_on_c, 14, 58, 0
17, 172680, Note_on_c, 14, 59, 90
17, 172739, Note_on_c, 14, 59, 0
17, 172860, Note_on_c, 14, 47, 90
17, 172919, Note_on_c, 14, 47, 0
17, 172920, Note_on_c, 14, 54, 90
17, 172979, Note_on_c, 14, 54, 0
17, 172980, Note_on_c, 14, 52, 90
17, 173039, Note_on_c, 14, 52, 0
17, 173040, Note_on_c, 14, 54, 90
17, 173099, Note_on_c, 14, 54, 0
17, 173100, Note_on_c, 14, 47, 90
17, 173159, Note_on_c, 14, 47, 0
17, 173160, Note_on_c, 14, 52, 90
17, 173219, Note_on_c, 14, 52, 0
17, 173340, Note_on_c, 14, 40, 90
17, 173399, Note_on_c, 14, 40, 0
17, 173400, Note_on_c, 14, 47, 90
17, 173459, Note_on_c, 14, 47, 0
17, 173460, Note_on_c, 14, 45, 90
17, 173519, Note_on_c, 14, 45, 0
17, 173520, Note_on_c, 14, 47, 90
17, 173579, Note_on_c, 14, 47, 0
17, 173580, Note_on_c, 14, 40, 90
17, 173639, Note_on_c, 14, 40, 0
17, 173640, Note_on_c, 14, 45, 90
17, 173699, Note_on_c, 14, 45, 0
17, 173820, Note_on_c, 14, 45, 90
17, 173879, Note_on_c, 14, 45, 0
17, 173880, Note_on_c, 14, 52, 90
17, 173939, Note_on_c, 14, 52, 0
17, 173940, Note_on_c, 14, 50, 90
17, 173999, Note_on_c, 14, 50, 0
17, 174000, Note_on_c, 14, 52, 90
17, 174059, Note_on_c, 14, 52, 0
17, 174060, Note_on_c, 14, 45, 90
17, 174119, Note_on_c, 14, 45, 0
17, 174120, Note_on_c, 14, 38, 90
17, 174179, Note_on_c, 14, 38, 0
17, 174180, Note_on_c, 14, 50, 90
17, 174209, Note_on_c, 14, 50, 0
17, 174210, Note_on_c, 14, 49, 90
17, 174239, Note_on_c, 14, 49, 0
17, 174240, Note_on_c, 14, 50, 90
17, 174299, Note_on_c, 14, 50, 0
17, 174300, Note_on_c, 14, 47, 90
17, 174359, Note_on_c, 14, 47, 0
17, 174360, Note_on_c, 14, 44, 90
17, 174419, Note_on_c, 14, 44, 0
17, 174420, Note_on_c, 14, 40, 90
17, 174479, Note_on_c, 14, 40, 0
17, 174480, Note_on_c, 14, 45, 90
17, 174539, Note_on_c, 14, 45, 0
17, 174660, Note_on_c, 14, 52, 90
17, 174689, Note_on_c, 14, 52, 0
17, 174690, Note_on_c, 14, 51, 90
17, 174719, Note_on_c, 14, 51, 0
17, 174720, Note_on_c, 14, 52, 90
17, 174779, Note_on_c, 14, 52, 0
17, 174780, Note_on_c, 14, 49, 90
17, 174839, Note_on_c, 14, 49, 0
17, 174840, Note_on_c, 14, 46, 90
17, 174899, Note_on_c, 14, 46, 0
17, 174900, Note_on_c, 14, 42, 90
17, 174959, Note_on_c, 14, 42, 0
17, 174960, Note_on_c, 14, 47, 90
17, 175019, Note_on_c, 14, 47, 0
17, 175140, Note_on_c, 14, 54, 90
17, 175169, Note_on_c, 14, 54, 0
17, 175170, Note_on_c, 14, 53, 90
17, 175199, Note_on_c, 14, 53, 0
17, 175200, Note_on_c, 14, 54, 90
17, 175259, Note_on_c, 14, 54, 0
17, 175260, Note_on_c, 14, 42, 90
17, 175319, Note_on_c, 14, 42, 0
17, 175380, Note_on_c, 14, 61, 90
17, 175409, Note_on_c, 14, 61, 0
17, 175410, Note_on_c, 14, 59, 90
17, 175439, Note_on_c, 14, 59, 0
17, 175440, Note_on_c, 14, 61, 90
17, 175499, Note_on_c, 14, 61, 0
17, 175500, Note_on_c, 14, 49, 90
17, 175559, Note_on_c, 14, 49, 0
17, 175620, Note_on_c, 14, 54, 90
17, 175649, Note_on_c, 14, 54, 0
17, 175650, Note_on_c, 14, 56, 90
17, 175679, Note_on_c, 14, 56, 0
17, 175680, Note_on_c, 14, 57, 90
17, 175739, Note_on_c, 14, 57, 0
17, 175740, Note_on_c, 14, 54, 90
17, 175799, Note_on_c, 14, 54, 0
17, 175800, Note_on_c, 14, 59, 90
17, 175859, Note_on_c, 14, 59, 0
17, 175860, Note_on_c, 14, 57, 90
17, 175919, Note_on_c, 14, 57, 0
17, 175920, Note_on_c, 14, 56, 90
17, 175979, Note_on_c, 14, 56, 0
17, 175980, Note_on_c, 14, 59, 90
17, 176039, Note_on_c, 14, 59, 0
17, 176040, Note_on_c, 14, 52, 90
17, 176159, Note_on_c, 14, 52, 0
17, 176220, Note_on_c, 14, 50, 90
17, 176279, Note_on_c, 14, 50, 0
17, 176280, Note_on_c, 14, 49, 90
17, 176339, Note_on_c, 14, 49, 0
17, 176340, Note_on_c, 14, 54, 90
17, 176399, Note_on_c, 14, 54, 0
17, 176400, Note_on_c, 14, 50, 90
17, 176459, Note_on_c, 14, 50, 0
17, 176460, Note_on_c, 14, 52, 90
17, 176519, Note_on_c, 14, 52, 0
17, 176520, Note_on_c, 14, 45, 90
17, 176579, Note_on_c, 14, 45, 0
17, 176640, Note_on_c, 14, 47, 90
17, 176699, Note_on_c, 14, 47, 0
17, 176760, Note_on_c, 14, 49, 90
17, 176819, Note_on_c, 14, 49, 0
17, 176880, Note_on_c, 14, 50, 90
17, 176939, Note_on_c, 14, 50, 0
17, 177000, Note_on_c, 14, 52, 90
17, 177059, Note_on_c, 14, 52, 0
17, 177060, Note_on_c, 14, 45, 90
17, 177119, Note_on_c, 14, 45, 0
17, 177120, Note_on_c, 14, 44, 90
17, 177179, Note_on_c, 14, 44, 0
17, 177180, Note_on_c, 14, 45, 90
17, 177239, Note_on_c, 14, 45, 0
17, 177240, Note_on_c, 14, 40, 90
17, 177299, Note_on_c, 14, 40, 0
17, 177300, Note_on_c, 14, 52, 90
17, 177329, Note_on_c, 14, 52, 0
17, 177330, Note_on_c, 14, 50, 90
17, 177359, Note_on_c, 14, 50, 0
17, 177360, Note_on_c, 14, 49, 90
17, 177419, Note_on_c, 14, 49, 0
17, 177420, Note_on_c, 14, 47, 90
17, 177479, Note_on_c, 14, 47, 0
17, 177480, Note_on_c, 14, 54, 90
17, 177509, Note_on_c, 14, 54, 0
17, 177510, Note_on_c, 14, 52, 90
17, 177539, Note_on_c, 14, 52, 0
17, 177540, Note_on_c, 14, 54, 90
17, 177569, Note_on_c, 14, 54, 0
17, 177570, Note_on_c, 14, 55, 90
17, 177599, Note_on_c, 14, 55, 0
17, 177600, Note_on_c, 14, 54, 90
17, 177629, Note_on_c, 14, 54, 0
17, 177630, Note_on_c, 14, 52, 90
17, 177659, Note_on_c, 14, 52, 0
17, 177660, Note_on_c, 14, 50, 90
17, 177689, Note_on_c, 14, 50, 0
17, 177690, Note_on_c, 14, 49, 90
17, 177719, Note_on_c, 14, 49, 0
17, 177720, Note_on_c, 14, 47, 90
17, 177779, Note_on_c, 14, 47, 0
17, 177780, Note_on_c, 14, 49, 90
17, 177839, Note_on_c, 14, 49, 0
17, 177840, Note_on_c, 14, 50, 90
17, 177899, Note_on_c, 14, 50, 0
17, 177900, Note_on_c, 14, 47, 90
17, 177959, Note_on_c, 14, 47, 0
17, 177960, Note_on_c, 14, 49, 90
17, 178019, Note_on_c, 14, 49, 0
17, 178020, Note_on_c, 14, 47, 90
17, 178079, Note_on_c, 14, 47, 0
17, 178080, Note_on_c, 14, 49, 90
17, 178139, Note_on_c, 14, 49, 0
17, 178140, Note_on_c, 14, 51, 90
17, 178199, Note_on_c, 14, 51, 0
17, 178200, Note_on_c, 14, 52, 90
17, 178259, Note_on_c, 14, 52, 0
17, 178380, Note_on_c, 14, 40, 90
17, 178439, Note_on_c, 14, 40, 0
17, 178440, Note_on_c, 14, 47, 90
17, 178499, Note_on_c, 14, 47, 0
17, 178500, Note_on_c, 14, 45, 90
17, 178559, Note_on_c, 14, 45, 0
17, 178560, Note_on_c, 14, 47, 90
17, 178619, Note_on_c, 14, 47, 0
17, 178620, Note_on_c, 14, 40, 90
17, 178679, Note_on_c, 14, 40, 0
17, 178680, Note_on_c, 14, 45, 90
17, 178739, Note_on_c, 14, 45, 0
17, 178860, Note_on_c, 14, 45, 90
17, 178919, Note_on_c, 14, 45, 0
17, 178920, Note_on_c, 14, 52, 90
17, 178979, Note_on_c, 14, 52, 0
17, 178980, Note_on_c, 14, 50, 90
17, 179039, Note_on_c, 14, 50, 0
17, 179040, Note_on_c, 14, 52, 90
17, 179099, Note_on_c, 14, 52, 0
17, 179100, Note_on_c, 14, 45, 90
17, 179159, Note_on_c, 14, 45, 0
17, 179160, Note_on_c, 14, 50, 90
17, 179219, Note_on_c, 14, 50, 0
17, 179340, Note_on_c, 14, 38, 90
17, 179399, Note_on_c, 14, 38, 0
17, 179400, Note_on_c, 14, 45, 90
17, 179459, Note_on_c, 14, 45, 0
17, 179460, Note_on_c, 14, 43, 90
17, 179519, Note_on_c, 14, 43, 0
17, 179520, Note_on_c, 14, 45, 90
17, 179579, Note_on_c, 14, 45, 0
17, 179580, Note_on_c, 14, 38, 90
17, 179639, Note_on_c, 14, 38, 0
17, 179640, Note_on_c, 14, 43, 90
17, 179699, Note_on_c, 14, 43, 0
17, 179700, Note_on_c, 14, 55, 90
17, 179729, Note_on_c, 14, 55, 0
17, 179730, Note_on_c, 14, 54, 90
17, 179759, Note_on_c, 14, 54, 0
17, 179760, Note_on_c, 14, 55, 90
17, 179819, Note_on_c, 14, 55, 0
17, 179820, Note_on_c, 14, 52, 90
17, 179879, Note_on_c, 14, 52, 0
17, 179880, Note_on_c, 14, 49, 90
17, 179939, Note_on_c, 14, 49, 0
17, 179940, Note_on_c, 14, 45, 90
17, 179999, Note_on_c, 14, 45, 0
17, 180000, Note_on_c, 14, 50, 90
17, 180059, Note_on_c, 14, 50, 0
17, 180180, Note_on_c, 14, 57, 90
17, 180209, Note_on_c, 14, 57, 0
17, 180210, Note_on_c, 14, 56, 90
17, 180239, Note_on_c, 14, 56, 0
17, 180240, Note_on_c, 14, 57, 90
17, 180299, Note_on_c, 14, 57, 0
17, 180300, Note_on_c, 14, 54, 90
17, 180359, Note_on_c, 14, 54, 0
17, 180360, Note_on_c, 14, 51, 90
17, 180419, Note_on_c, 14, 51, 0
17, 180420, Note_on_c, 14, 47, 90
17, 180479, Note_on_c, 14, 47, 0
17, 180480, Note_on_c, 14, 52, 90
17, 180539, Note_on_c, 14, 52, 0
17, 180660, Note_on_c, 14, 59, 90
17, 180689, Note_on_c, 14, 59, 0
17, 180690, Note_on_c, 14, 58, 90
17, 180719, Note_on_c, 14, 58, 0
17, 180720, Note_on_c, 14, 59, 90
17, 180779, Note_on_c, 14, 59, 0
17, 180780, Note_on_c, 14, 47, 90
17, 180839, Note_on_c, 14, 47, 0
17, 180900, Note_on_c, 14, 54, 90
17, 180929, Note_on_c, 14, 54, 0
17, 180930, Note_on_c, 14, 52, 90
17, 180959, Note_on_c, 14, 52, 0
17, 180960, Note_on_c, 14, 54, 90
17, 181019, Note_on_c, 14, 54, 0
17, 181020, Note_on_c, 14, 42, 90
17, 181079, Note_on_c, 14, 42, 0
17, 181140, Note_on_c, 14, 47, 90
17, 181169, Note_on_c, 14, 47, 0
17, 181170, Note_on_c, 14, 49, 90
17, 181199, Note_on_c, 14, 49, 0
17, 181200, Note_on_c, 14, 50, 90
17, 181259, Note_on_c, 14, 50, 0
17, 181260, Note_on_c, 14, 47, 90
17, 181319, Note_on_c, 14, 47, 0
17, 181320, Note_on_c, 14, 52, 90
17, 181379, Note_on_c, 14, 52, 0
17, 181380, Note_on_c, 14, 50, 90
17, 181439, Note_on_c, 14, 50, 0
17, 181440, Note_on_c, 14, 49, 90
17, 181499, Note_on_c, 14, 49, 0
17, 181500, Note_on_c, 14, 52, 90
17, 181559, Note_on_c, 14, 52, 0
17, 181560, Note_on_c, 14, 45, 90
17, 181679, Note_on_c, 14, 45, 0
17, 181740, Note_on_c, 14, 43, 90
17, 181799, Note_on_c, 14, 43, 0
17, 181800, Note_on_c, 14, 42, 90
17, 181859, Note_on_c, 14, 42, 0
17, 181860, Note_on_c, 14, 47, 90
17, 181919, Note_on_c, 14, 47, 0
17, 181920, Note_on_c, 14, 43, 90
17, 181979, Note_on_c, 14, 43, 0
17, 181980, Note_on_c, 14, 45, 90
17, 182039, Note_on_c, 14, 45, 0
17, 182040, Note_on_c, 14, 50, 90
17, 182099, Note_on_c, 14, 50, 0
17, 182160, Note_on_c, 14, 52, 90
17, 182219, Note_on_c, 14, 52, 0
17, 182280, Note_on_c, 14, 54, 90
17, 182339, Note_on_c, 14, 54, 0
17, 182400, Note_on_c, 14, 55, 90
17, 182459, Note_on_c, 14, 55, 0
17, 182520, Note_on_c, 14, 57, 90
17, 182579, Note_on_c, 14, 57, 0
17, 182580, Note_on_c, 14, 50, 90
17, 182639, Note_on_c, 14, 50, 0
17, 182640, Note_on_c, 14, 49, 90
17, 182699, Note_on_c, 14, 49, 0
17, 182700, Note_on_c, 14, 50, 90
17, 182759, Note_on_c, 14, 50, 0
17, 182760, Note_on_c, 14, 45, 90
17, 182819, Note_on_c, 14, 45, 0
17, 182820, Note_on_c, 14, 57, 90
17, 182849, Note_on_c, 14, 57, 0
17, 182850, Note_on_c, 14, 55, 90
17, 182879, Note_on_c, 14, 55, 0
17, 182880, Note_on_c, 14, 54, 90
17, 182939, Note_on_c, 14, 54, 0
17, 182940, Note_on_c, 14, 52, 90
17, 182999, Note_on_c, 14, 52, 0
17, 183000, Note_on_c, 14, 59, 90
17, 183029, Note_on_c, 14, 59, 0
17, 183030, Note_on_c, 14, 60, 90
17, 183059, Note_on_c, 14, 60, 0
17, 183060, Note_on_c, 14, 59, 90
17, 183089, Note_on_c, 14, 59, 0
17, 183090, Note_on_c, 14, 57, 90
17, 183119, Note_on_c, 14, 57, 0
17, 183120, Note_on_c, 14, 55, 90
17, 183149, Note_on_c, 14, 55, 0
17, 183150, Note_on_c, 14, 54, 90
17, 183179, Note_on_c, 14, 54, 0
17, 183180, Note_on_c, 14, 52, 90
17, 183209, Note_on_c, 14, 52, 0
17, 183210, Note_on_c, 14, 51, 90
17, 183239, Note_on_c, 14, 51, 0
17, 183240, Note_on_c, 14, 52, 90
17, 183299, Note_on_c, 14, 52, 0
17, 183360, Note_on_c, 14, 50, 90
17, 183419, Note_on_c, 14, 50, 0
17, 183480, Note_on_c, 14, 48, 90
17, 183539, Note_on_c, 14, 48, 0
17, 183600, Note_on_c, 14, 47, 90
17, 183659, Note_on_c, 14, 47, 0
17, 183720, Note_on_c, 14, 45, 90
17, 183779, Note_on_c, 14, 45, 0
17, 183780, Note_on_c, 14, 54, 90
17, 183839, Note_on_c, 14, 54, 0
17, 183840, Note_on_c, 14, 55, 90
17, 183899, Note_on_c, 14, 55, 0
17, 183900, Note_on_c, 14, 57, 90
17, 183959, Note_on_c, 14, 57, 0
17, 183960, Note_on_c, 14, 59, 90
17, 184019, Note_on_c, 14, 59, 0
17, 184020, Note_on_c, 14, 47, 90
17, 184079, Note_on_c, 14, 47, 0
17, 184080, Note_on_c, 14, 51, 90
17, 184139, Note_on_c, 14, 51, 0
17, 184140, Note_on_c, 14, 47, 90
17, 184199, Note_on_c, 14, 47, 0
17, 184200, Note_on_c, 14, 52, 90
17, 184259, Note_on_c, 14, 52, 0
17, 184320, Note_on_c, 14, 54, 90
17, 184379, Note_on_c, 14, 54, 0
17, 184440, Note_on_c, 14, 55, 90
17, 184499, Note_on_c, 14, 55, 0
17, 184560, Note_on_c, 14, 57, 90
17, 184619, Note_on_c, 14, 57, 0
17, 184680, Note_on_c, 14, 59, 90
17, 184739, Note_on_c, 14, 59, 0
17, 184740, Note_on_c, 14, 52, 90
17, 184799, Note_on_c, 14, 52, 0
17, 184800, Note_on_c, 14, 51, 90
17, 184859, Note_on_c, 14, 51, 0
17, 184860, Note_on_c, 14, 52, 90
17, 184919, Note_on_c, 14, 52, 0
17, 184920, Note_on_c, 14, 59, 90
17, 184979, Note_on_c, 14, 59, 0
17, 184980, Note_on_c, 14, 47, 90
17, 185010, Note_on_c, 14, 47, 0
17, 185010, Note_on_c, 14, 49, 90
17, 185040, Note_on_c, 14, 49, 0
17, 185040, Note_on_c, 14, 51, 90
17, 185100, Note_on_c, 14, 51, 0
17, 185100, Note_on_c, 14, 47, 90
17, 185160, Note_on_c, 14, 47, 0
17, 185160, Note_on_c, 14, 40, 90
17, 185220, Note_on_c, 14, 40, 0
17, 185280, Note_on_c, 14, 42, 90
17, 185340, Note_on_c, 14, 42, 0
17, 185400, Note_on_c, 14, 43, 90
17, 185460, Note_on_c, 14, 43, 0
17, 185520, Note_on_c, 14, 45, 90
17, 185580, Note_on_c, 14, 45, 0
17, 185640, Note_on_c, 14, 45, 90
17, 185700, Note_on_c, 14, 45, 0
17, 185700, Note_on_c, 14, 43, 90
17, 185760, Note_on_c, 14, 43, 0
17, 185760, Note_on_c, 14, 39, 90
17, 185820, Note_on_c, 14, 39, 0
17, 185820, Note_on_c, 14, 40, 90
17, 185880, Note_on_c, 14, 40, 0
17, 185880, Note_on_c, 14, 47, 90
17, 185940, Note_on_c, 14, 47, 0
17, 185940, Note_on_c, 14, 59, 90
17, 186000, Note_on_c, 14, 59, 0
17, 186000, Note_on_c, 14, 51, 90
17, 186060, Note_on_c, 14, 51, 0
17, 186060, Note_on_c, 14, 47, 90
17, 186120, Note_on_c, 14, 47, 0
17, 186120, Note_on_c, 14, 52, 90
17, 186180, Note_on_c, 14, 52, 0
17, 186180, Note_on_c, 14, 54, 90
17, 186240, Note_on_c, 14, 54, 0
17, 186240, Note_on_c, 14, 55, 90
17, 186300, Note_on_c, 14, 55, 0
17, 186300, Note_on_c, 14, 54, 90
17, 186360, Note_on_c, 14, 54, 0
17, 186360, Note_on_c, 14, 52, 90
17, 186420, Note_on_c, 14, 52, 0
17, 186420, Note_on_c, 14, 54, 90
17, 186480, Note_on_c, 14, 54, 0
17, 186480, Note_on_c, 14, 52, 90
17, 186540, Note_on_c, 14, 52, 0
17, 186540, Note_on_c, 14, 50, 90
17, 186600, Note_on_c, 14, 50, 0
17, 186600, Note_on_c, 14, 49, 90
17, 186660, Note_on_c, 14, 49, 0
17, 186720, Note_on_c, 14, 52, 90
17, 186780, Note_on_c, 14, 52, 0
17, 186840, Note_on_c, 14, 49, 90
17, 186900, Note_on_c, 14, 49, 0
17, 186960, Note_on_c, 14, 45, 90
17, 187020, Note_on_c, 14, 45, 0
17, 187080, Note_on_c, 14, 50, 90
17, 187140, Note_on_c, 14, 50, 0
17, 187140, Note_on_c, 14, 52, 90
17, 187200, Note_on_c, 14, 52, 0
17, 187200, Note_on_c, 14, 54, 90
17, 187260, Note_on_c, 14, 54, 0
17, 187260, Note_on_c, 14, 52, 90
17, 187320, Note_on_c, 14, 52, 0
17, 187320, Note_on_c, 14, 50, 90
17, 187380, Note_on_c, 14, 50, 0
17, 187380, Note_on_c, 14, 52, 90
17, 187440, Note_on_c, 14, 52, 0
17, 187440, Note_on_c, 14, 50, 90
17, 187500, Note_on_c, 14, 50, 0
17, 187500, Note_on_c, 14, 48, 90
17, 187560, Note_on_c, 14, 48, 0
17, 187560, Note_on_c, 14, 47, 90
17, 187620, Note_on_c, 14, 47, 0
17, 187680, Note_on_c, 14, 50, 90
17, 187740, Note_on_c, 14, 50, 0
17, 187800, Note_on_c, 14, 47, 90
17, 187860, Note_on_c, 14, 47, 0
17, 187920, Note_on_c, 14, 43, 90
17, 187980, Note_on_c, 14, 43, 0
17, 188040, Note_on_c, 14, 48, 90
17, 188100, Note_on_c, 14, 48, 0
17, 188100, Note_on_c, 14, 47, 90
17, 188160, Note_on_c, 14, 47, 0
17, 188160, Note_on_c, 14, 45, 90
17, 188220, Note_on_c, 14, 45, 0
17, 188220, Note_on_c, 14, 43, 90
17, 188280, Note_on_c, 14, 43, 0
17, 188280, Note_on_c, 14, 42, 90
17, 188340, Note_on_c, 14, 42, 0
17, 188340, Note_on_c, 14, 40, 90
17, 188370, Note_on_c, 14, 40, 0
17, 188370, Note_on_c, 14, 38, 90
17, 188400, Note_on_c, 14, 38, 0
17, 188400, Note_on_c, 14, 40, 90
17, 188460, Note_on_c, 14, 40, 0
17, 188460, Note_on_c, 14, 42, 90
17, 188520, Note_on_c, 14, 42, 0
17, 188520, Note_on_c, 14, 43, 90
17, 188580, Note_on_c, 14, 43, 0
17, 188580, Note_on_c, 14, 47, 90
17, 188640, Note_on_c, 14, 47, 0
17, 188640, Note_on_c, 14, 48, 90
17, 188700, Note_on_c, 14, 48, 0
17, 188700, Note_on_c, 14, 50, 90
17, 188760, Note_on_c, 14, 50, 0
17, 188760, Note_on_c, 14, 43, 90
17, 188820, Note_on_c, 14, 43, 0
17, 188820, Note_on_c, 14, 45, 90
17, 188880, Note_on_c, 14, 45, 0
17, 188880, Note_on_c, 14, 47, 90
17, 188940, Note_on_c, 14, 47, 0
17, 188940, Note_on_c, 14, 48, 90
17, 189000, Note_on_c, 14, 48, 0
17, 189000, Note_on_c, 14, 50, 90
17, 189060, Note_on_c, 14, 50, 0
17, 189060, Note_on_c, 14, 52, 90
17, 189120, Note_on_c, 14, 52, 0
17, 189120, Note_on_c, 14, 54, 90
17, 189180, Note_on_c, 14, 54, 0
17, 189180, Note_on_c, 14, 50, 90
17, 189240, Note_on_c, 14, 50, 0
17, 189240, Note_on_c, 14, 43, 90
17, 189300, Note_on_c, 14, 43, 0
17, 189300, Note_on_c, 14, 45, 90
17, 189360, Note_on_c, 14, 45, 0
17, 189360, Note_on_c, 14, 47, 90
17, 189420, Note_on_c, 14, 47, 0
17, 189420, Note_on_c, 14, 48, 90
17, 189480, Note_on_c, 14, 48, 0
17, 189480, Note_on_c, 14, 50, 90
17, 189540, Note_on_c, 14, 50, 0
17, 189540, Note_on_c, 14, 52, 90
17, 189600, Note_on_c, 14, 52, 0
17, 189600, Note_on_c, 14, 54, 90
17, 189660, Note_on_c, 14, 54, 0
17, 189660, Note_on_c, 14, 52, 90
17, 189720, Note_on_c, 14, 52, 0
17, 189720, Note_on_c, 14, 51, 90
17, 189780, Note_on_c, 14, 51, 0
17, 189780, Note_on_c, 14, 49, 90
17, 189840, Note_on_c, 14, 49, 0
17, 189840, Note_on_c, 14, 51, 90
17, 189900, Note_on_c, 14, 51, 0
17, 189900, Note_on_c, 14, 47, 90
17, 189960, Note_on_c, 14, 47, 0
17, 189960, Note_on_c, 14, 40, 90
17, 190020, Note_on_c, 14, 40, 0
17, 190020, Note_on_c, 14, 42, 90
17, 190080, Note_on_c, 14, 42, 0
17, 190080, Note_on_c, 14, 43, 90
17, 190140, Note_on_c, 14, 43, 0
17, 190140, Note_on_c, 14, 45, 90
17, 190200, Note_on_c, 14, 45, 0
17, 190200, Note_on_c, 14, 47, 90
17, 190260, Note_on_c, 14, 47, 0
17, 190260, Note_on_c, 14, 49, 90
17, 190320, Note_on_c, 14, 49, 0
17, 190320, Note_on_c, 14, 51, 90
17, 190380, Note_on_c, 14, 51, 0
17, 190380, Note_on_c, 14, 47, 90
17, 190440, Note_on_c, 14, 47, 0
17, 190440, Note_on_c, 14, 40, 90
17, 190500, Note_on_c, 14, 40, 0
17, 190500, Note_on_c, 14, 42, 90
17, 190560, Note_on_c, 14, 42, 0
17, 190560, Note_on_c, 14, 43, 90
17, 190620, Note_on_c, 14, 43, 0
17, 190620, Note_on_c, 14, 45, 90
17, 190680, Note_on_c, 14, 45, 0
17, 190680, Note_on_c, 14, 47, 90
17, 190740, Note_on_c, 14, 47, 0
17, 190740, Note_on_c, 14, 49, 90
17, 190800, Note_on_c, 14, 49, 0
17, 190800, Note_on_c, 14, 51, 90
17, 190860, Note_on_c, 14, 51, 0
17, 190860, Note_on_c, 14, 47, 90
17, 190920, Note_on_c, 14, 47, 0
17, 190920, Note_on_c, 14, 52, 90
17, 190980, Note_on_c, 14, 52, 0
17, 190980, Note_on_c, 14, 55, 90
17, 191040, Note_on_c, 14, 55, 0
17, 191040, Note_on_c, 14, 54, 90
17, 191100, Note_on_c, 14, 54, 0
17, 191100, Note_on_c, 14, 52, 90
17, 191160, Note_on_c, 14, 52, 0
17, 191160, Note_on_c, 14, 54, 90
17, 191220, Note_on_c, 14, 54, 0
17, 191220, Note_on_c, 14, 52, 90
17, 191280, Note_on_c, 14, 52, 0
17, 191280, Note_on_c, 14, 50, 90
17, 191340, Note_on_c, 14, 50, 0
17, 191340, Note_on_c, 14, 52, 90
17, 191400, Note_on_c, 14, 52, 0
17, 191400, Note_on_c, 14, 54, 90
17, 191460, Note_on_c, 14, 54, 0
17, 191460, Note_on_c, 14, 52, 90
17, 191520, Note_on_c, 14, 52, 0
17, 191520, Note_on_c, 14, 54, 90
17, 191580, Note_on_c, 14, 54, 0
17, 191580, Note_on_c, 14, 42, 90
17, 191640, Note_on_c, 14, 42, 0
17, 191640, Note_on_c, 14, 47, 90
17, 191700, Note_on_c, 14, 47, 0
17, 191700, Note_on_c, 14, 49, 90
17, 191760, Note_on_c, 14, 49, 0
17, 191760, Note_on_c, 14, 50, 90
17, 191820, Note_on_c, 14, 50, 0
17, 191820, Note_on_c, 14, 52, 90
17, 191880, Note_on_c, 14, 52, 0
17, 191880, Note_on_c, 14, 54, 90
17, 191940, Note_on_c, 14, 54, 0
17, 191940, Note_on_c, 14, 52, 90
17, 192000, Note_on_c, 14, 52, 0
17, 192000, Note_on_c, 14, 50, 90
17, 192060, Note_on_c, 14, 50, 0
17, 192060, Note_on_c, 14, 49, 90
17, 192120, Note_on_c, 14, 49, 0
17, 192120, Note_on_c, 14, 47, 90
17, 192180, Note_on_c, 14, 47, 0
17, 192180, Note_on_c, 14, 54, 90
17, 192240, Note_on_c, 14, 54, 0
17, 192240, Note_on_c, 14, 59, 90
17, 192300, Note_on_c, 14, 59, 0
17, 192300, Note_on_c, 14, 47, 90
17, 192360, Note_on_c, 14, 47, 0
17, 192360, Note_on_c, 14, 52, 90
17, 192420, Note_on_c, 14, 52, 0
17, 192480, Note_on_c, 14, 45, 90
17, 192540, Note_on_c, 14, 45, 0
17, 192600, Note_on_c, 14, 50, 90
17, 192660, Note_on_c, 14, 50, 0
17, 192720, Note_on_c, 14, 43, 90
17, 192780, Note_on_c, 14, 43, 0
17, 192840, Note_on_c, 14, 49, 90
17, 192900, Note_on_c, 14, 49, 0
17, 192960, Note_on_c, 14, 42, 90
17, 193020, Note_on_c, 14, 42, 0
17, 193080, Note_on_c, 14, 47, 90
17, 193140, Note_on_c, 14, 47, 0
17, 193140, Note_on_c, 14, 59, 90
17, 193200, Note_on_c, 14, 59, 0
17, 193200, Note_on_c, 14, 57, 90
17, 193260, Note_on_c, 14, 57, 0
17, 193260, Note_on_c, 14, 55, 90
17, 193320, Note_on_c, 14, 55, 0
17, 193320, Note_on_c, 14, 54, 90
17, 193440, Note_on_c, 14, 54, 0
17, 193500, Note_on_c, 14, 52, 90
17, 193560, Note_on_c, 14, 52, 0
17, 193560, Note_on_c, 14, 50, 90
17, 193620, Note_on_c, 14, 50, 0
17, 193620, Note_on_c, 14, 47, 90
17, 193680, Note_on_c, 14, 47, 0
17, 193680, Note_on_c, 14, 54, 90
17, 193740, Note_on_c, 14, 54, 0
17, 193740, Note_on_c, 14, 42, 90
17, 193800, Note_on_c, 14, 42, 0
17, 193800, Note_on_c, 14, 47, 90
17, 193860, Note_on_c, 14, 47, 0
17, 193920, Note_on_c, 14, 49, 90
17, 193980, Note_on_c, 14, 49, 0
17, 194040, Note_on_c, 14, 50, 90
17, 194100, Note_on_c, 14, 50, 0
17, 194160, Note_on_c, 14, 52, 90
17, 194220, Note_on_c, 14, 52, 0
17, 194280, Note_on_c, 14, 54, 90
17, 194340, Note_on_c, 14, 54, 0
17, 194340, Note_on_c, 14, 47, 90
17, 194400, Note_on_c, 14, 47, 0
17, 194400, Note_on_c, 14, 46, 90
17, 194460, Note_on_c, 14, 46, 0
17, 194460, Note_on_c, 14, 47, 90
17, 194520, Note_on_c, 14, 47, 0
17, 194520, Note_on_c, 14, 42, 90
17, 194580, Note_on_c, 14, 42, 0
17, 194580, Note_on_c, 14, 54, 90
17, 194610, Note_on_c, 14, 54, 0
17, 194610, Note_on_c, 14, 56, 90
17, 194640, Note_on_c, 14, 56, 0
17, 194640, Note_on_c, 14, 58, 90
17, 194700, Note_on_c, 14, 58, 0
17, 194700, Note_on_c, 14, 54, 90
17, 194760, Note_on_c, 14, 54, 0
17, 194760, Note_on_c, 14, 59, 90
17, 194820, Note_on_c, 14, 59, 0
17, 194820, Note_on_c, 14, 61, 90
17, 194880, Note_on_c, 14, 61, 0
17, 194880, Note_on_c, 14, 62, 90
17, 194940, Note_on_c, 14, 62, 0
17, 194940, Note_on_c, 14, 61, 90
17, 195000, Note_on_c, 14, 61, 0
17, 195000, Note_on_c, 14, 59, 90
17, 195060, Note_on_c, 14, 59, 0
17, 195060, Note_on_c, 14, 61, 90
17, 195120, Note_on_c, 14, 61, 0
17, 195120, Note_on_c, 14, 59, 90
17, 195180, Note_on_c, 14, 59, 0
17, 195180, Note_on_c, 14, 57, 90
17, 195240, Note_on_c, 14, 57, 0
17, 195240, Note_on_c, 14, 56, 90
17, 195300, Note_on_c, 14, 56, 0
17, 195360, Note_on_c, 14, 59, 90
17, 195420, Note_on_c, 14, 59, 0
17, 195480, Note_on_c, 14, 56, 90
17, 195540, Note_on_c, 14, 56, 0
17, 195600, Note_on_c, 14, 52, 90
17, 195660, Note_on_c, 14, 52, 0
17, 195720, Note_on_c, 14, 57, 90
17, 195780, Note_on_c, 14, 57, 0
17, 195780, Note_on_c, 14, 59, 90
17, 195840, Note_on_c, 14, 59, 0
17, 195840, Note_on_c, 14, 61, 90
17, 195900, Note_on_c, 14, 61, 0
17, 195900, Note_on_c, 14, 59, 90
17, 195960, Note_on_c, 14, 59, 0
17, 195960, Note_on_c, 14, 57, 90
17, 196020, Note_on_c, 14, 57, 0
17, 196020, Note_on_c, 14, 59, 90
17, 196080, Note_on_c, 14, 59, 0
17, 196080, Note_on_c, 14, 57, 90
17, 196140, Note_on_c, 14, 57, 0
17, 196140, Note_on_c, 14, 55, 90
17, 196200, Note_on_c, 14, 55, 0
17, 196200, Note_on_c, 14, 54, 90
17, 196260, Note_on_c, 14, 54, 0
17, 196320, Note_on_c, 14, 57, 90
17, 196380, Note_on_c, 14, 57, 0
17, 196440, Note_on_c, 14, 54, 90
17, 196500, Note_on_c, 14, 54, 0
17, 196560, Note_on_c, 14, 50, 90
17, 196620, Note_on_c, 14, 50, 0
17, 196680, Note_on_c, 14, 55, 90
17, 196740, Note_on_c, 14, 55, 0
17, 196740, Note_on_c, 14, 57, 90
17, 196800, Note_on_c, 14, 57, 0
17, 196800, Note_on_c, 14, 55, 90
17, 196860, Note_on_c, 14, 55, 0
17, 196860, Note_on_c, 14, 54, 90
17, 196920, Note_on_c, 14, 54, 0
17, 196920, Note_on_c, 14, 52, 90
17, 196980, Note_on_c, 14, 52, 0
17, 196980, Note_on_c, 14, 54, 90
17, 197040, Note_on_c, 14, 54, 0
17, 197040, Note_on_c, 14, 55, 90
17, 197100, Note_on_c, 14, 55, 0
17, 197100, Note_on_c, 14, 52, 90
17, 197160, Note_on_c, 14, 52, 0
17, 197160, Note_on_c, 14, 54, 90
17, 197220, Note_on_c, 14, 54, 0
17, 197220, Note_on_c, 14, 55, 90
17, 197280, Note_on_c, 14, 55, 0
17, 197280, Note_on_c, 14, 54, 90
17, 197340, Note_on_c, 14, 54, 0
17, 197340, Note_on_c, 14, 52, 90
17, 197400, Note_on_c, 14, 52, 0
17, 197400, Note_on_c, 14, 50, 90
17, 197460, Note_on_c, 14, 50, 0
17, 197460, Note_on_c, 14, 52, 90
17, 197520, Note_on_c, 14, 52, 0
17, 197520, Note_on_c, 14, 54, 90
17, 197580, Note_on_c, 14, 54, 0
17, 197580, Note_on_c, 14, 50, 90
17, 197640, Note_on_c, 14, 50, 0
17, 197640, Note_on_c, 14, 52, 90
17, 197700, Note_on_c, 14, 52, 0
17, 197700, Note_on_c, 14, 50, 90
17, 197760, Note_on_c, 14, 50, 0
17, 197760, Note_on_c, 14, 49, 90
17, 197820, Note_on_c, 14, 49, 0
17, 197820, Note_on_c, 14, 50, 90
17, 197880, Note_on_c, 14, 50, 0
17, 197880, Note_on_c, 14, 52, 90
17, 197940, Note_on_c, 14, 52, 0
17, 197940, Note_on_c, 14, 49, 90
17, 198000, Note_on_c, 14, 49, 0
17, 198000, Note_on_c, 14, 46, 90
17, 198060, Note_on_c, 14, 46, 0
17, 198060, Note_on_c, 14, 42, 90
17, 198120, Note_on_c, 14, 42, 0
17, 198120, Note_on_c, 14, 47, 90
17, 198180, Note_on_c, 14, 47, 0
17, 198180, Note_on_c, 14, 50, 90
17, 198240, Note_on_c, 14, 50, 0
17, 198240, Note_on_c, 14, 54, 90
17, 198300, Note_on_c, 14, 54, 0
17, 198300, Note_on_c, 14, 42, 90
17, 198360, Note_on_c, 14, 42, 0
17, 198360, Note_on_c, 14, 47, 90
17, 198600, Note_on_c, 14, 47, 0
17, 198720, Note_on_c, 14, 41, 90
17, 199199, Note_on_c, 14, 41, 0
17, 199200, Note_on_c, 14, 42, 90
17, 199679, Note_on_c, 14, 42, 0
17, 199680, Note_on_c, 14, 44, 90
17, 200159, Note_on_c, 14, 44, 0
17, 200160, Note_on_c, 14, 45, 90
17, 200279, Note_on_c, 14, 45, 0
17, 200280, Note_on_c, 14, 49, 90
17, 200399, Note_on_c, 14, 49, 0
17, 200400, Note_on_c, 14, 50, 90
17, 200519, Note_on_c, 14, 50, 0
17, 200520, Note_on_c, 14, 54, 90
17, 200639, Note_on_c, 14, 54, 0
17, 200760, Note_on_c, 14, 52, 90
17, 200879, Note_on_c, 14, 52, 0
17, 200880, Note_on_c, 14, 45, 90
17, 201119, Note_on_c, 14, 45, 0
17, 201119, End_track
18, 0, Start_track
18, 0, MIDI_port, 0
18, 0, Title_t, "Cello"
18, 0, Program_c, 15, 42
18, 0, Control_c, 15, 7, 127
18, 0, Control_c, 15, 10, 41
18, 0, Note_on_c, 15, 45, 90
18, 47, Note_on_c, 15, 45, 0
18, 60, Note_on_c, 15, 57, 90
18, 107, Note_on_c, 15, 57, 0
18, 120, Note_on_c, 15, 57, 90
18, 167, Note_on_c, 15, 57, 0
18, 180, Note_on_c, 15, 57, 90
18, 227, Note_on_c, 15, 57, 0
18, 240, Note_on_c, 15, 57, 90
18, 287, Note_on_c, 15, 57, 0
18, 300, Note_on_c, 15, 57, 90
18, 347, Note_on_c, 15, 57, 0
18, 360, Note_on_c, 15, 57, 90
18, 407, Note_on_c, 15, 57, 0
18, 420, Note_on_c, 15, 45, 90
18, 467, Note_on_c, 15, 45, 0
18, 480, Note_on_c, 15, 45, 90
18, 527, Note_on_c, 15, 45, 0
18, 540, Note_on_c, 15, 49, 90
18, 587, Note_on_c, 15, 49, 0
18, 600, Note_on_c, 15, 52, 90
18, 647, Note_on_c, 15, 52, 0
18, 660, Note_on_c, 15, 40, 90
18, 707, Note_on_c, 15, 40, 0
18, 720, Note_on_c, 15, 45, 90
18, 767, Note_on_c, 15, 45, 0
18, 780, Note_on_c, 15, 57, 90
18, 827, Note_on_c, 15, 57, 0
18, 840, Note_on_c, 15, 57, 90
18, 887, Note_on_c, 15, 57, 0
18, 900, Note_on_c, 15, 57, 90
18, 947, Note_on_c, 15, 57, 0
18, 960, Note_on_c, 15, 57, 90
18, 1007, Note_on_c, 15, 57, 0
18, 1020, Note_on_c, 15, 57, 90
18, 1067, Note_on_c, 15, 57, 0
18, 1080, Note_on_c, 15, 57, 90
18, 1127, Note_on_c, 15, 57, 0
18, 1140, Note_on_c, 15, 45, 90
18, 1187, Note_on_c, 15, 45, 0
18, 1200, Note_on_c, 15, 45, 90
18, 1247, Note_on_c, 15, 45, 0
18, 1260, Note_on_c, 15, 49, 90
18, 1307, Note_on_c, 15, 49, 0
18, 1320, Note_on_c, 15, 52, 90
18, 1367, Note_on_c, 15, 52, 0
18, 1380, Note_on_c, 15, 40, 90
18, 1427, Note_on_c, 15, 40, 0
18, 1440, Note_on_c, 15, 45, 90
18, 1487, Note_on_c, 15, 45, 0
18, 1500, Note_on_c, 15, 57, 90
18, 1547, Note_on_c, 15, 57, 0
18, 1620, Note_on_c, 15, 49, 90
18, 1667, Note_on_c, 15, 49, 0
18, 1680, Note_on_c, 15, 45, 90
18, 1727, Note_on_c, 15, 45, 0
18, 1740, Note_on_c, 15, 49, 90
18, 1787, Note_on_c, 15, 49, 0
18, 1800, Note_on_c, 15, 50, 90
18, 1847, Note_on_c, 15, 50, 0
18, 1860, Note_on_c, 15, 62, 90
18, 1907, Note_on_c, 15, 62, 0
18, 1920, Note_on_c, 15, 57, 90
18, 1967, Note_on_c, 15, 57, 0
18, 1980, Note_on_c, 15, 54, 90
18, 2027, Note_on_c, 15, 54, 0
18, 2040, Note_on_c, 15, 50, 90
18, 2087, Note_on_c, 15, 50, 0
18, 2100, Note_on_c, 15, 49, 90
18, 2147, Note_on_c, 15, 49, 0
18, 2160, Note_on_c, 15, 51, 90
18, 2207, Note_on_c, 15, 51, 0
18, 2220, Note_on_c, 15, 47, 90
18, 2267, Note_on_c, 15, 47, 0
18, 2340, Note_on_c, 15, 47, 90
18, 2387, Note_on_c, 15, 47, 0
18, 2400, Note_on_c, 15, 51, 90
18, 2447, Note_on_c, 15, 51, 0
18, 2460, Note_on_c, 15, 47, 90
18, 2507, Note_on_c, 15, 47, 0
18, 2520, Note_on_c, 15, 52, 90
18, 2567, Note_on_c, 15, 52, 0
18, 2580, Note_on_c, 15, 64, 90
18, 2627, Note_on_c, 15, 64, 0
18, 2640, Note_on_c, 15, 59, 90
18, 2687, Note_on_c, 15, 59, 0
18, 2700, Note_on_c, 15, 56, 90
18, 2747, Note_on_c, 15, 56, 0
18, 2760, Note_on_c, 15, 52, 90
18, 2807, Note_on_c, 15, 52, 0
18, 2820, Note_on_c, 15, 47, 90
18, 2867, Note_on_c, 15, 47, 0
18, 2880, Note_on_c, 15, 40, 90
18, 2927, Note_on_c, 15, 40, 0
18, 2940, Note_on_c, 15, 52, 90
18, 2987, Note_on_c, 15, 52, 0
18, 3060, Note_on_c, 15, 56, 90
18, 3107, Note_on_c, 15, 56, 0
18, 3120, Note_on_c, 15, 59, 90
18, 3167, Note_on_c, 15, 59, 0
18, 3180, Note_on_c, 15, 62, 90
18, 3227, Note_on_c, 15, 62, 0
18, 3240, Note_on_c, 15, 61, 90
18, 3287, Note_on_c, 15, 61, 0
18, 3300, Note_on_c, 15, 57, 90
18, 3347, Note_on_c, 15, 57, 0
18, 3360, Note_on_c, 15, 61, 90
18, 3407, Note_on_c, 15, 61, 0
18, 3420, Note_on_c, 15, 57, 90
18, 3467, Note_on_c, 15, 57, 0
18, 3480, Note_on_c, 15, 61, 90
18, 3527, Note_on_c, 15, 61, 0
18, 3540, Note_on_c, 15, 57, 90
18, 3587, Note_on_c, 15, 57, 0
18, 3600, Note_on_c, 15, 62, 90
18, 3647, Note_on_c, 15, 62, 0
18, 3660, Note_on_c, 15, 54, 90
18, 3707, Note_on_c, 15, 54, 0
18, 3720, Note_on_c, 15, 54, 90
18, 3767, Note_on_c, 15, 54, 0
18, 3780, Note_on_c, 15, 50, 90
18, 3827, Note_on_c, 15, 50, 0
18, 3840, Note_on_c, 15, 50, 90
18, 3887, Note_on_c, 15, 50, 0
18, 3900, Note_on_c, 15, 57, 90
18, 3947, Note_on_c, 15, 57, 0
18, 3960, Note_on_c, 15, 57, 90
18, 4007, Note_on_c, 15, 57, 0
18, 4020, Note_on_c, 15, 45, 90
18, 4067, Note_on_c, 15, 45, 0
18, 4080, Note_on_c, 15, 45, 90
18, 4127, Note_on_c, 15, 45, 0
18, 4140, Note_on_c, 15, 42, 90
18, 4187, Note_on_c, 15, 42, 0
18, 4200, Note_on_c, 15, 42, 90
18, 4247, Note_on_c, 15, 42, 0
18, 4260, Note_on_c, 15, 47, 90
18, 4307, Note_on_c, 15, 47, 0
18, 4320, Note_on_c, 15, 47, 90
18, 4367, Note_on_c, 15, 47, 0
18, 4380, Note_on_c, 15, 52, 90
18, 4427, Note_on_c, 15, 52, 0
18, 4440, Note_on_c, 15, 52, 90
18, 4487, Note_on_c, 15, 52, 0
18, 4500, Note_on_c, 15, 44, 90
18, 4547, Note_on_c, 15, 44, 0
18, 4560, Note_on_c, 15, 44, 90
18, 4607, Note_on_c, 15, 44, 0
18, 4620, Note_on_c, 15, 40, 90
18, 4667, Note_on_c, 15, 40, 0
18, 4680, Note_on_c, 15, 45, 90
18, 4727, Note_on_c, 15, 45, 0
18, 4740, Note_on_c, 15, 44, 90
18, 4763, Note_on_c, 15, 44, 0
18, 4770, Note_on_c, 15, 45, 90
18, 4793, Note_on_c, 15, 45, 0
18, 4800, Note_on_c, 15, 47, 90
18, 4847, Note_on_c, 15, 47, 0
18, 4860, Note_on_c, 15, 45, 90
18, 4883, Note_on_c, 15, 45, 0
18, 4890, Note_on_c, 15, 47, 90
18, 4913, Note_on_c, 15, 47, 0
18, 4920, Note_on_c, 15, 49, 90
18, 4967, Note_on_c, 15, 49, 0
18, 4980, Note_on_c, 15, 47, 90
18, 5003, Note_on_c, 15, 47, 0
18, 5010, Note_on_c, 15, 49, 90
18, 5033, Note_on_c, 15, 49, 0
18, 5040, Note_on_c, 15, 50, 90
18, 5087, Note_on_c, 15, 50, 0
18, 5100, Note_on_c, 15, 49, 90
18, 5123, Note_on_c, 15, 49, 0
18, 5130, Note_on_c, 15, 50, 90
18, 5153, Note_on_c, 15, 50, 0
18, 5160, Note_on_c, 15, 52, 90
18, 5207, Note_on_c, 15, 52, 0
18, 5220, Note_on_c, 15, 50, 90
18, 5243, Note_on_c, 15, 50, 0
18, 5250, Note_on_c, 15, 52, 90
18, 5273, Note_on_c, 15, 52, 0
18, 5280, Note_on_c, 15, 54, 90
18, 5327, Note_on_c, 15, 54, 0
18, 5340, Note_on_c, 15, 52, 90
18, 5363, Note_on_c, 15, 52, 0
18, 5370, Note_on_c, 15, 54, 90
18, 5393, Note_on_c, 15, 54, 0
18, 5400, Note_on_c, 15, 56, 90
18, 5447, Note_on_c, 15, 56, 0
18, 5460, Note_on_c, 15, 52, 90
18, 5507, Note_on_c, 15, 52, 0
18, 5520, Note_on_c, 15, 57, 90
18, 5567, Note_on_c, 15, 57, 0
18, 5580, Note_on_c, 15, 49, 90
18, 5603, Note_on_c, 15, 49, 0
18, 5610, Note_on_c, 15, 50, 90
18, 5633, Note_on_c, 15, 50, 0
18, 5640, Note_on_c, 15, 52, 90
18, 5687, Note_on_c, 15, 52, 0
18, 5700, Note_on_c, 15, 40, 90
18, 5747, Note_on_c, 15, 40, 0
18, 5760, Note_on_c, 15, 45, 90
18, 5807, Note_on_c, 15, 45, 0
18, 5820, Note_on_c, 15, 57, 90
18, 5867, Note_on_c, 15, 57, 0
18, 5880, Note_on_c, 15, 57, 90
18, 5927, Note_on_c, 15, 57, 0
18, 5940, Note_on_c, 15, 57, 90
18, 5987, Note_on_c, 15, 57, 0
18, 6000, Note_on_c, 15, 57, 90
18, 6047, Note_on_c, 15, 57, 0
18, 6060, Note_on_c, 15, 57, 90
18, 6107, Note_on_c, 15, 57, 0
18, 6120, Note_on_c, 15, 57, 90
18, 6167, Note_on_c, 15, 57, 0
18, 6180, Note_on_c, 15, 45, 90
18, 6227, Note_on_c, 15, 45, 0
18, 6240, Note_on_c, 15, 57, 90
18, 6287, Note_on_c, 15, 57, 0
18, 6300, Note_on_c, 15, 55, 90
18, 6347, Note_on_c, 15, 55, 0
18, 6360, Note_on_c, 15, 54, 90
18, 6407, Note_on_c, 15, 54, 0
18, 6420, Note_on_c, 15, 50, 90
18, 6467, Note_on_c, 15, 50, 0
18, 6480, Note_on_c, 15, 57, 90
18, 6527, Note_on_c, 15, 57, 0
18, 6540, Note_on_c, 15, 45, 90
18, 6587, Note_on_c, 15, 45, 0
18, 6600, Note_on_c, 15, 45, 90
18, 6647, Note_on_c, 15, 45, 0
18, 6660, Note_on_c, 15, 45, 90
18, 6707, Note_on_c, 15, 45, 0
18, 6720, Note_on_c, 15, 45, 90
18, 6767, Note_on_c, 15, 45, 0
18, 6780, Note_on_c, 15, 45, 90
18, 6827, Note_on_c, 15, 45, 0
18, 6840, Note_on_c, 15, 45, 90
18, 6887, Note_on_c, 15, 45, 0
18, 6900, Note_on_c, 15, 57, 90
18, 6947, Note_on_c, 15, 57, 0
18, 6960, Note_on_c, 15, 45, 90
18, 7007, Note_on_c, 15, 45, 0
18, 7020, Note_on_c, 15, 49, 90
18, 7067, Note_on_c, 15, 49, 0
18, 7080, Note_on_c, 15, 52, 90
18, 7127, Note_on_c, 15, 52, 0
18, 7140, Note_on_c, 15, 40, 90
18, 7187, Note_on_c, 15, 40, 0
18, 7200, Note_on_c, 15, 57, 90
18, 7247, Note_on_c, 15, 57, 0
18, 7260, Note_on_c, 15, 45, 90
18, 7307, Note_on_c, 15, 45, 0
18, 7320, Note_on_c, 15, 45, 90
18, 7367, Note_on_c, 15, 45, 0
18, 7380, Note_on_c, 15, 57, 90
18, 7427, Note_on_c, 15, 57, 0
18, 7440, Note_on_c, 15, 56, 90
18, 7487, Note_on_c, 15, 56, 0
18, 7500, Note_on_c, 15, 57, 90
18, 7547, Note_on_c, 15, 57, 0
18, 7560, Note_on_c, 15, 52, 90
18, 7607, Note_on_c, 15, 52, 0
18, 7620, Note_on_c, 15, 40, 90
18, 7667, Note_on_c, 15, 40, 0
18, 7680, Note_on_c, 15, 40, 90
18, 7727, Note_on_c, 15, 40, 0
18, 7740, Note_on_c, 15, 40, 90
18, 7787, Note_on_c, 15, 40, 0
18, 7800, Note_on_c, 15, 40, 90
18, 7847, Note_on_c, 15, 40, 0
18, 7860, Note_on_c, 15, 40, 90
18, 7907, Note_on_c, 15, 40, 0
18, 7920, Note_on_c, 15, 40, 90
18, 7967, Note_on_c, 15, 40, 0
18, 7980, Note_on_c, 15, 52, 90
18, 8003, Note_on_c, 15, 52, 0
18, 8010, Note_on_c, 15, 54, 90
18, 8033, Note_on_c, 15, 54, 0
18, 8040, Note_on_c, 15, 56, 90
18, 8087, Note_on_c, 15, 56, 0
18, 8100, Note_on_c, 15, 52, 90
18, 8147, Note_on_c, 15, 52, 0
18, 8160, Note_on_c, 15, 57, 90
18, 8207, Note_on_c, 15, 57, 0
18, 8220, Note_on_c, 15, 45, 90
18, 8267, Note_on_c, 15, 45, 0
18, 8280, Note_on_c, 15, 52, 90
18, 8327, Note_on_c, 15, 52, 0
18, 8340, Note_on_c, 15, 40, 90
18, 8387, Note_on_c, 15, 40, 0
18, 8400, Note_on_c, 15, 40, 90
18, 8447, Note_on_c, 15, 40, 0
18, 8460, Note_on_c, 15, 40, 90
18, 8507, Note_on_c, 15, 40, 0
18, 8520, Note_on_c, 15, 40, 90
18, 8567, Note_on_c, 15, 40, 0
18, 8580, Note_on_c, 15, 40, 90
18, 8627, Note_on_c, 15, 40, 0
18, 8640, Note_on_c, 15, 40, 90
18, 8687, Note_on_c, 15, 40, 0
18, 8700, Note_on_c, 15, 52, 90
18, 8747, Note_on_c, 15, 52, 0
18, 8760, Note_on_c, 15, 52, 90
18, 8807, Note_on_c, 15, 52, 0
18, 8820, Note_on_c, 15, 56, 90
18, 8867, Note_on_c, 15, 56, 0
18, 8880, Note_on_c, 15, 59, 90
18, 8927, Note_on_c, 15, 59, 0
18, 8940, Note_on_c, 15, 47, 90
18, 8987, Note_on_c, 15, 47, 0
18, 9000, Note_on_c, 15, 52, 90
18, 9047, Note_on_c, 15, 52, 0
18, 9060, Note_on_c, 15, 40, 90
18, 9107, Note_on_c, 15, 40, 0
18, 9120, Note_on_c, 15, 40, 90
18, 9167, Note_on_c, 15, 40, 0
18, 9180, Note_on_c, 15, 50, 90
18, 9227, Note_on_c, 15, 50, 0
18, 9240, Note_on_c, 15, 49, 90
18, 9287, Note_on_c, 15, 49, 0
18, 9300, Note_on_c, 15, 52, 90
18, 9347, Note_on_c, 15, 52, 0
18, 9360, Note_on_c, 15, 54, 90
18, 9407, Note_on_c, 15, 54, 0
18, 9420, Note_on_c, 15, 42, 90
18, 9467, Note_on_c, 15, 42, 0
18, 9480, Note_on_c, 15, 42, 90
18, 9527, Note_on_c, 15, 42, 0
18, 9540, Note_on_c, 15, 54, 90
18, 9587, Note_on_c, 15, 54, 0
18, 9600, Note_on_c, 15, 52, 90
18, 9647, Note_on_c, 15, 52, 0
18, 9660, Note_on_c, 15, 50, 90
18, 9707, Note_on_c, 15, 50, 0
18, 9720, Note_on_c, 15, 49, 90
18, 9767, Note_on_c, 15, 49, 0
18, 9780, Note_on_c, 15, 61, 90
18, 9827, Note_on_c, 15, 61, 0
18, 9840, Note_on_c, 15, 59, 90
18, 9887, Note_on_c, 15, 59, 0
18, 9900, Note_on_c, 15, 57, 90
18, 9947, Note_on_c, 15, 57, 0
18, 9960, Note_on_c, 15, 56, 90
18, 10007, Note_on_c, 15, 56, 0
18, 10020, Note_on_c, 15, 54, 90
18, 10067, Note_on_c, 15, 54, 0
18, 10080, Note_on_c, 15, 52, 90
18, 10127, Note_on_c, 15, 52, 0
18, 10140, Note_on_c, 15, 40, 90
18, 10187, Note_on_c, 15, 40, 0
18, 10200, Note_on_c, 15, 52, 90
18, 10247, Note_on_c, 15, 52, 0
18, 10260, Note_on_c, 15, 54, 90
18, 10307, Note_on_c, 15, 54, 0
18, 10320, Note_on_c, 15, 49, 90
18, 10367, Note_on_c, 15, 49, 0
18, 10380, Note_on_c, 15, 52, 90
18, 10427, Note_on_c, 15, 52, 0
18, 10440, Note_on_c, 15, 57, 90
18, 10487, Note_on_c, 15, 57, 0
18, 10500, Note_on_c, 15, 45, 90
18, 10547, Note_on_c, 15, 45, 0
18, 10560, Note_on_c, 15, 45, 90
18, 10607, Note_on_c, 15, 45, 0
18, 10620, Note_on_c, 15, 49, 90
18, 10667, Note_on_c, 15, 49, 0
18, 10680, Note_on_c, 15, 52, 90
18, 10727, Note_on_c, 15, 52, 0
18, 10740, Note_on_c, 15, 40, 90
18, 10787, Note_on_c, 15, 40, 0
18, 10800, Note_on_c, 15, 45, 90
18, 10847, Note_on_c, 15, 45, 0
18, 10860, Note_on_c, 15, 57, 90
18, 10883, Note_on_c, 15, 57, 0
18, 10890, Note_on_c, 15, 56, 90
18, 10913, Note_on_c, 15, 56, 0
18, 10920, Note_on_c, 15, 57, 90
18, 10967, Note_on_c, 15, 57, 0
18, 10980, Note_on_c, 15, 49, 90
18, 11003, Note_on_c, 15, 49, 0
18, 11010, Note_on_c, 15, 47, 90
18, 11033, Note_on_c, 15, 47, 0
18, 11040, Note_on_c, 15, 49, 90
18, 11087, Note_on_c, 15, 49, 0
18, 11100, Note_on_c, 15, 45, 90
18, 11147, Note_on_c, 15, 45, 0
18, 11160, Note_on_c, 15, 50, 90
18, 11207, Note_on_c, 15, 50, 0
18, 11220, Note_on_c, 15, 49, 90
18, 11267, Note_on_c, 15, 49, 0
18, 11280, Note_on_c, 15, 47, 90
18, 11327, Note_on_c, 15, 47, 0
18, 11340, Note_on_c, 15, 45, 90
18, 11387, Note_on_c, 15, 45, 0
18, 11400, Note_on_c, 15, 44, 90
18, 11447, Note_on_c, 15, 44, 0
18, 11460, Note_on_c, 15, 45, 90
18, 11507, Note_on_c, 15, 45, 0
18, 11520, Note_on_c, 15, 40, 90
18, 11567, Note_on_c, 15, 40, 0
18, 11580, Note_on_c, 15, 52, 90
18, 11603, Note_on_c, 15, 52, 0
18, 11610, Note_on_c, 15, 54, 90
18, 11633, Note_on_c, 15, 54, 0
18, 11640, Note_on_c, 15, 56, 90
18, 11687, Note_on_c, 15, 56, 0
18, 11700, Note_on_c, 15, 59, 90
18, 11747, Note_on_c, 15, 59, 0
18, 11760, Note_on_c, 15, 56, 90
18, 11807, Note_on_c, 15, 56, 0
18, 11820, Note_on_c, 15, 52, 90
18, 11867, Note_on_c, 15, 52, 0
18, 11880, Note_on_c, 15, 57, 90
18, 11927, Note_on_c, 15, 57, 0
18, 11940, Note_on_c, 15, 56, 90
18, 11987, Note_on_c, 15, 56, 0
18, 12000, Note_on_c, 15, 54, 90
18, 12047, Note_on_c, 15, 54, 0
18, 12060, Note_on_c, 15, 52, 90
18, 12107, Note_on_c, 15, 52, 0
18, 12120, Note_on_c, 15, 51, 90
18, 12167, Note_on_c, 15, 51, 0
18, 12180, Note_on_c, 15, 52, 90
18, 12227, Note_on_c, 15, 52, 0
18, 12240, Note_on_c, 15, 59, 90
18, 12287, Note_on_c, 15, 59, 0
18, 12300, Note_on_c, 15, 47, 90
18, 12323, Note_on_c, 15, 47, 0
18, 12330, Note_on_c, 15, 49, 90
18, 12353, Note_on_c, 15, 49, 0
18, 12360, Note_on_c, 15, 51, 90
18, 12407, Note_on_c, 15, 51, 0
18, 12420, Note_on_c, 15, 54, 90
18, 12467, Note_on_c, 15, 54, 0
18, 12480, Note_on_c, 15, 51, 90
18, 12527, Note_on_c, 15, 51, 0
18, 12540, Note_on_c, 15, 47, 90
18, 12587, Note_on_c, 15, 47, 0
18, 12600, Note_on_c, 15, 52, 90
18, 12647, Note_on_c, 15, 52, 0
18, 12660, Note_on_c, 15, 40, 90
18, 12683, Note_on_c, 15, 40, 0
18, 12690, Note_on_c, 15, 42, 90
18, 12713, Note_on_c, 15, 42, 0
18, 12720, Note_on_c, 15, 44, 90
18, 12767, Note_on_c, 15, 44, 0
18, 12780, Note_on_c, 15, 47, 90
18, 12827, Note_on_c, 15, 47, 0
18, 12840, Note_on_c, 15, 44, 90
18, 12887, Note_on_c, 15, 44, 0
18, 12900, Note_on_c, 15, 40, 90
18, 12947, Note_on_c, 15, 40, 0
18, 12960, Note_on_c, 15, 45, 90
18, 13007, Note_on_c, 15, 45, 0
18, 13020, Note_on_c, 15, 57, 90
18, 13043, Note_on_c, 15, 57, 0
18, 13050, Note_on_c, 15, 59, 90
18, 13073, Note_on_c, 15, 59, 0
18, 13080, Note_on_c, 15, 61, 90
18, 13127, Note_on_c, 15, 61, 0
18, 13140, Note_on_c, 15, 64, 90
18, 13187, Note_on_c, 15, 64, 0
18, 13200, Note_on_c, 15, 61, 90
18, 13247, Note_on_c, 15, 61, 0
18, 13260, Note_on_c, 15, 57, 90
18, 13307, Note_on_c, 15, 57, 0
18, 13320, Note_on_c, 15, 62, 90
18, 13367, Note_on_c, 15, 62, 0
18, 13380, Note_on_c, 15, 61, 90
18, 13427, Note_on_c, 15, 61, 0
18, 13440, Note_on_c, 15, 59, 90
18, 13487, Note_on_c, 15, 59, 0
18, 13500, Note_on_c, 15, 57, 90
18, 13547, Note_on_c, 15, 57, 0
18, 13560, Note_on_c, 15, 56, 90
18, 13607, Note_on_c, 15, 56, 0
18, 13620, Note_on_c, 15, 57, 90
18, 13667, Note_on_c, 15, 57, 0
18, 13680, Note_on_c, 15, 64, 90
18, 13727, Note_on_c, 15, 64, 0
18, 13740, Note_on_c, 15, 52, 90
18, 13763, Note_on_c, 15, 52, 0
18, 13770, Note_on_c, 15, 54, 90
18, 13793, Note_on_c, 15, 54, 0
18, 13800, Note_on_c, 15, 56, 90
18, 13847, Note_on_c, 15, 56, 0
18, 13860, Note_on_c, 15, 59, 90
18, 13907, Note_on_c, 15, 59, 0
18, 13920, Note_on_c, 15, 56, 90
18, 13967, Note_on_c, 15, 56, 0
18, 13980, Note_on_c, 15, 52, 90
18, 14027, Note_on_c, 15, 52, 0
18, 14040, Note_on_c, 15, 57, 90
18, 14087, Note_on_c, 15, 57, 0
18, 14100, Note_on_c, 15, 56, 90
18, 14147, Note_on_c, 15, 56, 0
18, 14160, Note_on_c, 15, 54, 90
18, 14207, Note_on_c, 15, 54, 0
18, 14220, Note_on_c, 15, 52, 90
18, 14267, Note_on_c, 15, 52, 0
18, 14280, Note_on_c, 15, 51, 90
18, 14327, Note_on_c, 15, 51, 0
18, 14340, Note_on_c, 15, 52, 90
18, 14387, Note_on_c, 15, 52, 0
18, 14400, Note_on_c, 15, 59, 90
18, 14447, Note_on_c, 15, 59, 0
18, 14460, Note_on_c, 15, 47, 90
18, 14483, Note_on_c, 15, 47, 0
18, 14490, Note_on_c, 15, 49, 90
18, 14513, Note_on_c, 15, 49, 0
18, 14520, Note_on_c, 15, 51, 90
18, 14567, Note_on_c, 15, 51, 0
18, 14580, Note_on_c, 15, 54, 90
18, 14627, Note_on_c, 15, 54, 0
18, 14640, Note_on_c, 15, 51, 90
18, 14687, Note_on_c, 15, 51, 0
18, 14700, Note_on_c, 15, 47, 90
18, 14747, Note_on_c, 15, 47, 0
18, 14760, Note_on_c, 15, 52, 90
18, 14807, Note_on_c, 15, 52, 0
18, 14820, Note_on_c, 15, 40, 90
18, 14867, Note_on_c, 15, 40, 0
18, 14940, Note_on_c, 15, 44, 90
18, 14987, Note_on_c, 15, 44, 0
18, 15000, Note_on_c, 15, 40, 90
18, 15047, Note_on_c, 15, 40, 0
18, 15060, Note_on_c, 15, 44, 90
18, 15107, Note_on_c, 15, 44, 0
18, 15120, Note_on_c, 15, 45, 90
18, 15167, Note_on_c, 15, 45, 0
18, 15180, Note_on_c, 15, 57, 90
18, 15227, Note_on_c, 15, 57, 0
18, 15240, Note_on_c, 15, 52, 90
18, 15287, Note_on_c, 15, 52, 0
18, 15300, Note_on_c, 15, 49, 90
18, 15347, Note_on_c, 15, 49, 0
18, 15360, Note_on_c, 15, 45, 90
18, 15407, Note_on_c, 15, 45, 0
18, 15420, Note_on_c, 15, 44, 90
18, 15467, Note_on_c, 15, 44, 0
18, 15480, Note_on_c, 15, 46, 90
18, 15527, Note_on_c, 15, 46, 0
18, 15540, Note_on_c, 15, 42, 90
18, 15587, Note_on_c, 15, 42, 0
18, 15660, Note_on_c, 15, 42, 90
18, 15707, Note_on_c, 15, 42, 0
18, 15720, Note_on_c, 15, 46, 90
18, 15767, Note_on_c, 15, 46, 0
18, 15780, Note_on_c, 15, 42, 90
18, 15827, Note_on_c, 15, 42, 0
18, 15840, Note_on_c, 15, 47, 90
18, 15887, Note_on_c, 15, 47, 0
18, 15900, Note_on_c, 15, 59, 90
18, 15947, Note_on_c, 15, 59, 0
18, 15960, Note_on_c, 15, 54, 90
18, 16007, Note_on_c, 15, 54, 0
18, 16020, Note_on_c, 15, 51, 90
18, 16067, Note_on_c, 15, 51, 0
18, 16080, Note_on_c, 15, 47, 90
18, 16127, Note_on_c, 15, 47, 0
18, 16140, Note_on_c, 15, 54, 90
18, 16187, Note_on_c, 15, 54, 0
18, 16200, Note_on_c, 15, 59, 90
18, 16247, Note_on_c, 15, 59, 0
18, 16260, Note_on_c, 15, 47, 90
18, 16307, Note_on_c, 15, 47, 0
18, 16380, Note_on_c, 15, 51, 90
18, 16427, Note_on_c, 15, 51, 0
18, 16440, Note_on_c, 15, 54, 90
18, 16487, Note_on_c, 15, 54, 0
18, 16500, Note_on_c, 15, 57, 90
18, 16547, Note_on_c, 15, 57, 0
18, 16560, Note_on_c, 15, 56, 90
18, 16607, Note_on_c, 15, 56, 0
18, 16620, Note_on_c, 15, 52, 90
18, 16667, Note_on_c, 15, 52, 0
18, 16680, Note_on_c, 15, 56, 90
18, 16727, Note_on_c, 15, 56, 0
18, 16740, Note_on_c, 15, 52, 90
18, 16787, Note_on_c, 15, 52, 0
18, 16800, Note_on_c, 15, 56, 90
18, 16847, Note_on_c, 15, 56, 0
18, 16860, Note_on_c, 15, 52, 90
18, 16907, Note_on_c, 15, 52, 0
18, 16920, Note_on_c, 15, 57, 90
18, 16967, Note_on_c, 15, 57, 0
18, 16980, Note_on_c, 15, 61, 90
18, 17027, Note_on_c, 15, 61, 0
18, 17040, Note_on_c, 15, 61, 90
18, 17087, Note_on_c, 15, 61, 0
18, 17100, Note_on_c, 15, 57, 90
18, 17147, Note_on_c, 15, 57, 0
18, 17160, Note_on_c, 15, 57, 90
18, 17207, Note_on_c, 15, 57, 0
18, 17220, Note_on_c, 15, 64, 90
18, 17267, Note_on_c, 15, 64, 0
18, 17280, Note_on_c, 15, 64, 90
18, 17327, Note_on_c, 15, 64, 0
18, 17340, Note_on_c, 15, 52, 90
18, 17387, Note_on_c, 15, 52, 0
18, 17400, Note_on_c, 15, 52, 90
18, 17447, Note_on_c, 15, 52, 0
18, 17460, Note_on_c, 15, 49, 90
18, 17507, Note_on_c, 15, 49, 0
18, 17520, Note_on_c, 15, 49, 90
18, 17567, Note_on_c, 15, 49, 0
18, 17580, Note_on_c, 15, 54, 90
18, 17627, Note_on_c, 15, 54, 0
18, 17640, Note_on_c, 15, 54, 90
18, 17687, Note_on_c, 15, 54, 0
18, 17700, Note_on_c, 15, 59, 90
18, 17747, Note_on_c, 15, 59, 0
18, 17760, Note_on_c, 15, 59, 90
18, 17807, Note_on_c, 15, 59, 0
18, 17820, Note_on_c, 15, 51, 90
18, 17867, Note_on_c, 15, 51, 0
18, 17880, Note_on_c, 15, 51, 90
18, 17927, Note_on_c, 15, 51, 0
18, 17940, Note_on_c, 15, 47, 90
18, 17987, Note_on_c, 15, 47, 0
18, 18000, Note_on_c, 15, 52, 90
18, 18047, Note_on_c, 15, 52, 0
18, 18060, Note_on_c, 15, 51, 90
18, 18083, Note_on_c, 15, 51, 0
18, 18090, Note_on_c, 15, 52, 90
18, 18113, Note_on_c, 15, 52, 0
18, 18120, Note_on_c, 15, 54, 90
18, 18167, Note_on_c, 15, 54, 0
18, 18180, Note_on_c, 15, 52, 90
18, 18203, Note_on_c, 15, 52, 0
18, 18210, Note_on_c, 15, 54, 90
18, 18233, Note_on_c, 15, 54, 0
18, 18240, Note_on_c, 15, 56, 90
18, 18287, Note_on_c, 15, 56, 0
18, 18300, Note_on_c, 15, 54, 90
18, 18323, Note_on_c, 15, 54, 0
18, 18330, Note_on_c, 15, 56, 90
18, 18353, Note_on_c, 15, 56, 0
18, 18360, Note_on_c, 15, 57, 90
18, 18407, Note_on_c, 15, 57, 0
18, 18420, Note_on_c, 15, 56, 90
18, 18443, Note_on_c, 15, 56, 0
18, 18450, Note_on_c, 15, 57, 90
18, 18473, Note_on_c, 15, 57, 0
18, 18480, Note_on_c, 15, 59, 90
18, 18527, Note_on_c, 15, 59, 0
18, 18540, Note_on_c, 15, 57, 90
18, 18563, Note_on_c, 15, 57, 0
18, 18570, Note_on_c, 15, 59, 90
18, 18593, Note_on_c, 15, 59, 0
18, 18600, Note_on_c, 15, 61, 90
18, 18647, Note_on_c, 15, 61, 0
18, 18660, Note_on_c, 15, 59, 90
18, 18683, Note_on_c, 15, 59, 0
18, 18690, Note_on_c, 15, 61, 90
18, 18713, Note_on_c, 15, 61, 0
18, 18720, Note_on_c, 15, 63, 90
18, 18767, Note_on_c, 15, 63, 0
18, 18780, Note_on_c, 15, 59, 90
18, 18827, Note_on_c, 15, 59, 0
18, 18840, Note_on_c, 15, 64, 90
18, 18887, Note_on_c, 15, 64, 0
18, 18900, Note_on_c, 15, 56, 90
18, 18923, Note_on_c, 15, 56, 0
18, 18930, Note_on_c, 15, 57, 90
18, 18953, Note_on_c, 15, 57, 0
18, 18960, Note_on_c, 15, 59, 90
18, 19007, Note_on_c, 15, 59, 0
18, 19020, Note_on_c, 15, 47, 90
18, 19067, Note_on_c, 15, 47, 0
18, 19080, Note_on_c, 15, 52, 90
18, 19127, Note_on_c, 15, 52, 0
18, 19140, Note_on_c, 15, 40, 90
18, 19187, Note_on_c, 15, 40, 0
18, 19200, Note_on_c, 15, 40, 90
18, 19247, Note_on_c, 15, 40, 0
18, 19260, Note_on_c, 15, 40, 90
18, 19307, Note_on_c, 15, 40, 0
18, 19320, Note_on_c, 15, 40, 90
18, 19367, Note_on_c, 15, 40, 0
18, 19380, Note_on_c, 15, 40, 90
18, 19427, Note_on_c, 15, 40, 0
18, 19440, Note_on_c, 15, 40, 90
18, 19487, Note_on_c, 15, 40, 0
18, 19500, Note_on_c, 15, 52, 90
18, 19547, Note_on_c, 15, 52, 0
18, 19560, Note_on_c, 15, 52, 90
18, 19607, Note_on_c, 15, 52, 0
18, 19620, Note_on_c, 15, 56, 90
18, 19667, Note_on_c, 15, 56, 0
18, 19680, Note_on_c, 15, 59, 90
18, 19727, Note_on_c, 15, 59, 0
18, 19740, Note_on_c, 15, 47, 90
18, 19787, Note_on_c, 15, 47, 0
18, 19800, Note_on_c, 15, 52, 90
18, 19847, Note_on_c, 15, 52, 0
18, 19860, Note_on_c, 15, 40, 90
18, 19907, Note_on_c, 15, 40, 0
18, 19920, Note_on_c, 15, 40, 90
18, 19967, Note_on_c, 15, 40, 0
18, 19980, Note_on_c, 15, 40, 90
18, 20027, Note_on_c, 15, 40, 0
18, 20040, Note_on_c, 15, 40, 90
18, 20087, Note_on_c, 15, 40, 0
18, 20100, Note_on_c, 15, 40, 90
18, 20147, Note_on_c, 15, 40, 0
18, 20160, Note_on_c, 15, 40, 90
18, 20207, Note_on_c, 15, 40, 0
18, 20220, Note_on_c, 15, 52, 90
18, 20267, Note_on_c, 15, 52, 0
18, 20280, Note_on_c, 15, 52, 90
18, 20327, Note_on_c, 15, 52, 0
18, 20340, Note_on_c, 15, 56, 90
18, 20387, Note_on_c, 15, 56, 0
18, 20400, Note_on_c, 15, 59, 90
18, 20447, Note_on_c, 15, 59, 0
18, 20460, Note_on_c, 15, 47, 90
18, 20507, Note_on_c, 15, 47, 0
18, 20520, Note_on_c, 15, 52, 90
18, 20567, Note_on_c, 15, 52, 0
18, 20580, Note_on_c, 15, 40, 90
18, 20627, Note_on_c, 15, 40, 0
18, 20640, Note_on_c, 15, 40, 90
18, 20687, Note_on_c, 15, 40, 0
18, 20700, Note_on_c, 15, 52, 90
18, 20723, Note_on_c, 15, 52, 0
18, 20730, Note_on_c, 15, 54, 90
18, 20753, Note_on_c, 15, 54, 0
18, 20760, Note_on_c, 15, 52, 90
18, 20807, Note_on_c, 15, 52, 0
18, 20820, Note_on_c, 15, 50, 90
18, 20867, Note_on_c, 15, 50, 0
18, 20880, Note_on_c, 15, 49, 90
18, 20927, Note_on_c, 15, 49, 0
18, 20940, Note_on_c, 15, 37, 90
18, 20987, Note_on_c, 15, 37, 0
18, 21000, Note_on_c, 15, 37, 90
18, 21047, Note_on_c, 15, 37, 0
18, 21060, Note_on_c, 15, 49, 90
18, 21083, Note_on_c, 15, 49, 0
18, 21090, Note_on_c, 15, 47, 90
18, 21113, Note_on_c, 15, 47, 0
18, 21120, Note_on_c, 15, 49, 90
18, 21167, Note_on_c, 15, 49, 0
18, 21180, Note_on_c, 15, 45, 90
18, 21227, Note_on_c, 15, 45, 0
18, 21240, Note_on_c, 15, 44, 90
18, 21287, Note_on_c, 15, 44, 0
18, 21300, Note_on_c, 15, 40, 90
18, 21347, Note_on_c, 15, 40, 0
18, 21360, Note_on_c, 15, 40, 90
18, 21407, Note_on_c, 15, 40, 0
18, 21420, Note_on_c, 15, 44, 90
18, 21443, Note_on_c, 15, 44, 0
18, 21450, Note_on_c, 15, 42, 90
18, 21473, Note_on_c, 15, 42, 0
18, 21480, Note_on_c, 15, 44, 90
18, 21527, Note_on_c, 15, 44, 0
18, 21540, Note_on_c, 15, 40, 90
18, 21587, Note_on_c, 15, 40, 0
18, 21600, Note_on_c, 15, 45, 90
18, 21647, Note_on_c, 15, 45, 0
18, 21660, Note_on_c, 15, 57, 90
18, 21707, Note_on_c, 15, 57, 0
18, 21720, Note_on_c, 15, 57, 90
18, 21767, Note_on_c, 15, 57, 0
18, 21780, Note_on_c, 15, 57, 90
18, 21827, Note_on_c, 15, 57, 0
18, 21840, Note_on_c, 15, 57, 90
18, 21887, Note_on_c, 15, 57, 0
18, 21900, Note_on_c, 15, 57, 90
18, 21947, Note_on_c, 15, 57, 0
18, 21960, Note_on_c, 15, 57, 90
18, 22007, Note_on_c, 15, 57, 0
18, 22020, Note_on_c, 15, 45, 90
18, 22067, Note_on_c, 15, 45, 0
18, 22080, Note_on_c, 15, 45, 90
18, 22127, Note_on_c, 15, 45, 0
18, 22140, Note_on_c, 15, 49, 90
18, 22187, Note_on_c, 15, 49, 0
18, 22200, Note_on_c, 15, 52, 90
18, 22247, Note_on_c, 15, 52, 0
18, 22260, Note_on_c, 15, 40, 90
18, 22307, Note_on_c, 15, 40, 0
18, 22320, Note_on_c, 15, 45, 90
18, 22367, Note_on_c, 15, 45, 0
18, 22380, Note_on_c, 15, 57, 90
18, 22427, Note_on_c, 15, 57, 0
18, 22440, Note_on_c, 15, 57, 90
18, 22487, Note_on_c, 15, 57, 0
18, 22500, Note_on_c, 15, 57, 90
18, 22547, Note_on_c, 15, 57, 0
18, 22560, Note_on_c, 15, 57, 90
18, 22607, Note_on_c, 15, 57, 0
18, 22620, Note_on_c, 15, 57, 90
18, 22667, Note_on_c, 15, 57, 0
18, 22680, Note_on_c, 15, 57, 90
18, 22727, Note_on_c, 15, 57, 0
18, 22740, Note_on_c, 15, 45, 90
18, 22787, Note_on_c, 15, 45, 0
18, 22800, Note_on_c, 15, 45, 90
18, 22847, Note_on_c, 15, 45, 0
18, 22860, Note_on_c, 15, 49, 90
18, 22907, Note_on_c, 15, 49, 0
18, 22920, Note_on_c, 15, 52, 90
18, 22967, Note_on_c, 15, 52, 0
18, 22980, Note_on_c, 15, 40, 90
18, 23027, Note_on_c, 15, 40, 0
18, 23040, Note_on_c, 15, 45, 90
18, 23087, Note_on_c, 15, 45, 0
18, 23100, Note_on_c, 15, 57, 90
18, 23147, Note_on_c, 15, 57, 0
18, 23160, Note_on_c, 15, 57, 90
18, 23207, Note_on_c, 15, 57, 0
18, 23220, Note_on_c, 15, 45, 90
18, 23243, Note_on_c, 15, 45, 0
18, 23250, Note_on_c, 15, 47, 90
18, 23273, Note_on_c, 15, 47, 0
18, 23280, Note_on_c, 15, 45, 90
18, 23327, Note_on_c, 15, 45, 0
18, 23340, Note_on_c, 15, 43, 90
18, 23387, Note_on_c, 15, 43, 0
18, 23400, Note_on_c, 15, 42, 90
18, 23447, Note_on_c, 15, 42, 0
18, 23460, Note_on_c, 15, 54, 90
18, 23507, Note_on_c, 15, 54, 0
18, 23520, Note_on_c, 15, 54, 90
18, 23567, Note_on_c, 15, 54, 0
18, 23580, Note_on_c, 15, 42, 90
18, 23603, Note_on_c, 15, 42, 0
18, 23610, Note_on_c, 15, 40, 90
18, 23633, Note_on_c, 15, 40, 0
18, 23640, Note_on_c, 15, 42, 90
18, 23687, Note_on_c, 15, 42, 0
18, 23700, Note_on_c, 15, 38, 90
18, 23747, Note_on_c, 15, 38, 0
18, 23760, Note_on_c, 15, 37, 90
18, 23807, Note_on_c, 15, 37, 0
18, 23820, Note_on_c, 15, 57, 90
18, 23867, Note_on_c, 15, 57, 0
18, 23880, Note_on_c, 15, 57, 90
18, 23927, Note_on_c, 15, 57, 0
18, 23940, Note_on_c, 15, 49, 90
18, 23963, Note_on_c, 15, 49, 0
18, 23970, Note_on_c, 15, 47, 90
18, 23993, Note_on_c, 15, 47, 0
18, 24000, Note_on_c, 15, 49, 90
18, 24047, Note_on_c, 15, 49, 0
18, 24060, Note_on_c, 15, 45, 90
18, 24107, Note_on_c, 15, 45, 0
18, 24120, Note_on_c, 15, 50, 90
18, 24167, Note_on_c, 15, 50, 0
18, 24180, Note_on_c, 15, 62, 90
18, 24227, Note_on_c, 15, 62, 0
18, 24240, Note_on_c, 15, 62, 90
18, 24287, Note_on_c, 15, 62, 0
18, 24300, Note_on_c, 15, 62, 90
18, 24347, Note_on_c, 15, 62, 0
18, 24360, Note_on_c, 15, 62, 90
18, 24407, Note_on_c, 15, 62, 0
18, 24420, Note_on_c, 15, 62, 90
18, 24467, Note_on_c, 15, 62, 0
18, 24480, Note_on_c, 15, 50, 90
18, 24527, Note_on_c, 15, 50, 0
18, 24540, Note_on_c, 15, 62, 90
18, 24587, Note_on_c, 15, 62, 0
18, 24600, Note_on_c, 15, 62, 90
18, 24647, Note_on_c, 15, 62, 0
18, 24660, Note_on_c, 15, 50, 90
18, 24707, Note_on_c, 15, 50, 0
18, 24720, Note_on_c, 15, 49, 90
18, 24767, Note_on_c, 15, 49, 0
18, 24780, Note_on_c, 15, 47, 90
18, 24827, Note_on_c, 15, 47, 0
18, 24840, Note_on_c, 15, 49, 90
18, 24887, Note_on_c, 15, 49, 0
18, 24900, Note_on_c, 15, 61, 90
18, 24947, Note_on_c, 15, 61, 0
18, 24960, Note_on_c, 15, 61, 90
18, 25007, Note_on_c, 15, 61, 0
18, 25020, Note_on_c, 15, 61, 90
18, 25067, Note_on_c, 15, 61, 0
18, 25080, Note_on_c, 15, 61, 90
18, 25127, Note_on_c, 15, 61, 0
18, 25140, Note_on_c, 15, 61, 90
18, 25187, Note_on_c, 15, 61, 0
18, 25200, Note_on_c, 15, 49, 90
18, 25247, Note_on_c, 15, 49, 0
18, 25260, Note_on_c, 15, 61, 90
18, 25307, Note_on_c, 15, 61, 0
18, 25320, Note_on_c, 15, 61, 90
18, 25367, Note_on_c, 15, 61, 0
18, 25380, Note_on_c, 15, 49, 90
18, 25427, Note_on_c, 15, 49, 0
18, 25440, Note_on_c, 15, 47, 90
18, 25487, Note_on_c, 15, 47, 0
18, 25500, Note_on_c, 15, 45, 90
18, 25547, Note_on_c, 15, 45, 0
18, 25560, Note_on_c, 15, 47, 90
18, 25607, Note_on_c, 15, 47, 0
18, 25620, Note_on_c, 15, 59, 90
18, 25667, Note_on_c, 15, 59, 0
18, 25680, Note_on_c, 15, 59, 90
18, 25727, Note_on_c, 15, 59, 0
18, 25740, Note_on_c, 15, 45, 90
18, 25787, Note_on_c, 15, 45, 0
18, 25800, Note_on_c, 15, 44, 90
18, 25847, Note_on_c, 15, 44, 0
18, 25860, Note_on_c, 15, 42, 90
18, 25907, Note_on_c, 15, 42, 0
18, 25920, Note_on_c, 15, 44, 90
18, 25967, Note_on_c, 15, 44, 0
18, 25980, Note_on_c, 15, 56, 90
18, 26027, Note_on_c, 15, 56, 0
18, 26040, Note_on_c, 15, 56, 90
18, 26087, Note_on_c, 15, 56, 0
18, 26100, Note_on_c, 15, 44, 90
18, 26147, Note_on_c, 15, 44, 0
18, 26160, Note_on_c, 15, 42, 90
18, 26207, Note_on_c, 15, 42, 0
18, 26220, Note_on_c, 15, 40, 90
18, 26267, Note_on_c, 15, 40, 0
18, 26280, Note_on_c, 15, 45, 90
18, 26327, Note_on_c, 15, 45, 0
18, 26340, Note_on_c, 15, 54, 90
18, 26387, Note_on_c, 15, 54, 0
18, 26400, Note_on_c, 15, 49, 90
18, 26447, Note_on_c, 15, 49, 0
18, 26460, Note_on_c, 15, 47, 90
18, 26507, Note_on_c, 15, 47, 0
18, 26520, Note_on_c, 15, 49, 90
18, 26567, Note_on_c, 15, 49, 0
18, 26580, Note_on_c, 15, 50, 90
18, 26627, Note_on_c, 15, 50, 0
18, 26640, Note_on_c, 15, 52, 90
18, 26687, Note_on_c, 15, 52, 0
18, 26700, Note_on_c, 15, 40, 90
18, 26723, Note_on_c, 15, 40, 0
18, 26730, Note_on_c, 15, 38, 90
18, 26753, Note_on_c, 15, 38, 0
18, 26760, Note_on_c, 15, 40, 90
18, 26807, Note_on_c, 15, 40, 0
18, 26820, Note_on_c, 15, 44, 90
18, 26843, Note_on_c, 15, 44, 0
18, 26850, Note_on_c, 15, 42, 90
18, 26873, Note_on_c, 15, 42, 0
18, 26880, Note_on_c, 15, 44, 90
18, 26927, Note_on_c, 15, 44, 0
18, 26940, Note_on_c, 15, 40, 90
18, 26987, Note_on_c, 15, 40, 0
18, 27000, Note_on_c, 15, 45, 90
18, 27047, Note_on_c, 15, 45, 0
18, 27060, Note_on_c, 15, 44, 90
18, 27107, Note_on_c, 15, 44, 0
18, 27120, Note_on_c, 15, 42, 90
18, 27167, Note_on_c, 15, 42, 0
18, 27180, Note_on_c, 15, 44, 90
18, 27227, Note_on_c, 15, 44, 0
18, 27240, Note_on_c, 15, 45, 90
18, 27287, Note_on_c, 15, 45, 0
18, 27300, Note_on_c, 15, 49, 90
18, 27347, Note_on_c, 15, 49, 0
18, 27360, Note_on_c, 15, 50, 90
18, 27407, Note_on_c, 15, 50, 0
18, 27420, Note_on_c, 15, 49, 90
18, 27467, Note_on_c, 15, 49, 0
18, 27480, Note_on_c, 15, 47, 90
18, 27527, Note_on_c, 15, 47, 0
18, 27540, Note_on_c, 15, 44, 90
18, 27587, Note_on_c, 15, 44, 0
18, 27600, Note_on_c, 15, 49, 90
18, 27647, Note_on_c, 15, 49, 0
18, 27660, Note_on_c, 15, 45, 90
18, 27707, Note_on_c, 15, 45, 0
18, 27720, Note_on_c, 15, 54, 90
18, 27767, Note_on_c, 15, 54, 0
18, 27780, Note_on_c, 15, 50, 90
18, 27827, Note_on_c, 15, 50, 0
18, 27840, Note_on_c, 15, 47, 90
18, 27887, Note_on_c, 15, 47, 0
18, 27900, Note_on_c, 15, 42, 90
18, 27947, Note_on_c, 15, 42, 0
18, 27960, Note_on_c, 15, 44, 90
18, 28007, Note_on_c, 15, 44, 0
18, 28020, Note_on_c, 15, 45, 90
18, 28067, Note_on_c, 15, 45, 0
18, 28080, Note_on_c, 15, 40, 90
18, 28127, Note_on_c, 15, 40, 0
18, 28140, Note_on_c, 15, 52, 90
18, 28163, Note_on_c, 15, 52, 0
18, 28170, Note_on_c, 15, 54, 90
18, 28193, Note_on_c, 15, 54, 0
18, 28200, Note_on_c, 15, 56, 90
18, 28247, Note_on_c, 15, 56, 0
18, 28260, Note_on_c, 15, 59, 90
18, 28307, Note_on_c, 15, 59, 0
18, 28320, Note_on_c, 15, 56, 90
18, 28367, Note_on_c, 15, 56, 0
18, 28380, Note_on_c, 15, 52, 90
18, 28427, Note_on_c, 15, 52, 0
18, 28440, Note_on_c, 15, 57, 90
18, 28487, Note_on_c, 15, 57, 0
18, 28500, Note_on_c, 15, 45, 90
18, 28523, Note_on_c, 15, 45, 0
18, 28530, Note_on_c, 15, 47, 90
18, 28553, Note_on_c, 15, 47, 0
18, 28560, Note_on_c, 15, 49, 90
18, 28607, Note_on_c, 15, 49, 0
18, 28620, Note_on_c, 15, 52, 90
18, 28667, Note_on_c, 15, 52, 0
18, 28680, Note_on_c, 15, 49, 90
18, 28727, Note_on_c, 15, 49, 0
18, 28740, Note_on_c, 15, 45, 90
18, 28787, Note_on_c, 15, 45, 0
18, 28800, Note_on_c, 15, 38, 90
18, 28847, Note_on_c, 15, 38, 0
18, 28860, Note_on_c, 15, 50, 90
18, 28883, Note_on_c, 15, 50, 0
18, 28890, Note_on_c, 15, 52, 90
18, 28913, Note_on_c, 15, 52, 0
18, 28920, Note_on_c, 15, 54, 90
18, 28967, Note_on_c, 15, 54, 0
18, 28980, Note_on_c, 15, 57, 90
18, 29027, Note_on_c, 15, 57, 0
18, 29040, Note_on_c, 15, 54, 90
18, 29087, Note_on_c, 15, 54, 0
18, 29100, Note_on_c, 15, 50, 90
18, 29147, Note_on_c, 15, 50, 0
18, 29160, Note_on_c, 15, 55, 90
18, 29207, Note_on_c, 15, 55, 0
18, 29220, Note_on_c, 15, 54, 90
18, 29267, Note_on_c, 15, 54, 0
18, 29280, Note_on_c, 15, 52, 90
18, 29327, Note_on_c, 15, 52, 0
18, 29340, Note_on_c, 15, 50, 90
18, 29387, Note_on_c, 15, 50, 0
18, 29400, Note_on_c, 15, 49, 90
18, 29447, Note_on_c, 15, 49, 0
18, 29460, Note_on_c, 15, 50, 90
18, 29507, Note_on_c, 15, 50, 0
18, 29520, Note_on_c, 15, 57, 90
18, 29567, Note_on_c, 15, 57, 0
18, 29580, Note_on_c, 15, 45, 90
18, 29603, Note_on_c, 15, 45, 0
18, 29610, Note_on_c, 15, 47, 90
18, 29633, Note_on_c, 15, 47, 0
18, 29640, Note_on_c, 15, 49, 90
18, 29687, Note_on_c, 15, 49, 0
18, 29700, Note_on_c, 15, 52, 90
18, 29747, Note_on_c, 15, 52, 0
18, 29760, Note_on_c, 15, 49, 90
18, 29807, Note_on_c, 15, 49, 0
18, 29820, Note_on_c, 15, 45, 90
18, 29867, Note_on_c, 15, 45, 0
18, 29880, Note_on_c, 15, 50, 90
18, 29927, Note_on_c, 15, 50, 0
18, 29940, Note_on_c, 15, 49, 90
18, 29987, Note_on_c, 15, 49, 0
18, 30000, Note_on_c, 15, 47, 90
18, 30047, Note_on_c, 15, 47, 0
18, 30060, Note_on_c, 15, 45, 90
18, 30107, Note_on_c, 15, 45, 0
18, 30120, Note_on_c, 15, 44, 90
18, 30167, Note_on_c, 15, 44, 0
18, 30180, Note_on_c, 15, 45, 90
18, 30227, Note_on_c, 15, 45, 0
18, 30240, Note_on_c, 15, 52, 90
18, 30287, Note_on_c, 15, 52, 0
18, 30300, Note_on_c, 15, 40, 90
18, 30323, Note_on_c, 15, 40, 0
18, 30330, Note_on_c, 15, 42, 90
18, 30353, Note_on_c, 15, 42, 0
18, 30360, Note_on_c, 15, 44, 90
18, 30407, Note_on_c, 15, 44, 0
18, 30420, Note_on_c, 15, 47, 90
18, 30467, Note_on_c, 15, 47, 0
18, 30480, Note_on_c, 15, 44, 90
18, 30527, Note_on_c, 15, 44, 0
18, 30540, Note_on_c, 15, 40, 90
18, 30587, Note_on_c, 15, 40, 0
18, 30600, Note_on_c, 15, 45, 90
18, 30647, Note_on_c, 15, 45, 0
18, 30660, Note_on_c, 15, 57, 90
18, 30707, Note_on_c, 15, 57, 0
18, 30780, Note_on_c, 15, 49, 90
18, 30827, Note_on_c, 15, 49, 0
18, 30840, Note_on_c, 15, 45, 90
18, 30887, Note_on_c, 15, 45, 0
18, 30900, Note_on_c, 15, 49, 90
18, 30947, Note_on_c, 15, 49, 0
18, 30960, Note_on_c, 15, 50, 90
18, 31007, Note_on_c, 15, 50, 0
18, 31020, Note_on_c, 15, 62, 90
18, 31067, Note_on_c, 15, 62, 0
18, 31080, Note_on_c, 15, 57, 90
18, 31127, Note_on_c, 15, 57, 0
18, 31140, Note_on_c, 15, 54, 90
18, 31187, Note_on_c, 15, 54, 0
18, 31200, Note_on_c, 15, 50, 90
18, 31247, Note_on_c, 15, 50, 0
18, 31260, Note_on_c, 15, 49, 90
18, 31307, Note_on_c, 15, 49, 0
18, 31320, Note_on_c, 15, 51, 90
18, 31367, Note_on_c, 15, 51, 0
18, 31380, Note_on_c, 15, 47, 90
18, 31427, Note_on_c, 15, 47, 0
18, 31500, Note_on_c, 15, 47, 90
18, 31547, Note_on_c, 15, 47, 0
18, 31560, Note_on_c, 15, 51, 90
18, 31607, Note_on_c, 15, 51, 0
18, 31620, Note_on_c, 15, 47, 90
18, 31667, Note_on_c, 15, 47, 0
18, 31680, Note_on_c, 15, 52, 90
18, 31727, Note_on_c, 15, 52, 0
18, 31740, Note_on_c, 15, 64, 90
18, 31787, Note_on_c, 15, 64, 0
18, 31800, Note_on_c, 15, 59, 90
18, 31847, Note_on_c, 15, 59, 0
18, 31860, Note_on_c, 15, 56, 90
18, 31907, Note_on_c, 15, 56, 0
18, 31920, Note_on_c, 15, 52, 90
18, 31967, Note_on_c, 15, 52, 0
18, 31980, Note_on_c, 15, 47, 90
18, 32027, Note_on_c, 15, 47, 0
18, 32040, Note_on_c, 15, 52, 90
18, 32087, Note_on_c, 15, 52, 0
18, 32100, Note_on_c, 15, 40, 90
18, 32147, Note_on_c, 15, 40, 0
18, 32220, Note_on_c, 15, 52, 90
18, 32267, Note_on_c, 15, 52, 0
18, 32280, Note_on_c, 15, 56, 90
18, 32327, Note_on_c, 15, 56, 0
18, 32340, Note_on_c, 15, 59, 90
18, 32387, Note_on_c, 15, 59, 0
18, 32400, Note_on_c, 15, 61, 90
18, 32447, Note_on_c, 15, 61, 0
18, 32460, Note_on_c, 15, 57, 90
18, 32507, Note_on_c, 15, 57, 0
18, 32520, Note_on_c, 15, 61, 90
18, 32567, Note_on_c, 15, 61, 0
18, 32580, Note_on_c, 15, 57, 90
18, 32627, Note_on_c, 15, 57, 0
18, 32640, Note_on_c, 15, 61, 90
18, 32687, Note_on_c, 15, 61, 0
18, 32700, Note_on_c, 15, 57, 90
18, 32747, Note_on_c, 15, 57, 0
18, 32760, Note_on_c, 15, 62, 90
18, 32807, Note_on_c, 15, 62, 0
18, 32820, Note_on_c, 15, 54, 90
18, 32867, Note_on_c, 15, 54, 0
18, 32880, Note_on_c, 15, 54, 90
18, 32927, Note_on_c, 15, 54, 0
18, 32940, Note_on_c, 15, 50, 90
18, 32987, Note_on_c, 15, 50, 0
18, 33000, Note_on_c, 15, 50, 90
18, 33047, Note_on_c, 15, 50, 0
18, 33060, Note_on_c, 15, 57, 90
18, 33107, Note_on_c, 15, 57, 0
18, 33120, Note_on_c, 15, 57, 90
18, 33167, Note_on_c, 15, 57, 0
18, 33180, Note_on_c, 15, 45, 90
18, 33227, Note_on_c, 15, 45, 0
18, 33240, Note_on_c, 15, 45, 90
18, 33287, Note_on_c, 15, 45, 0
18, 33300, Note_on_c, 15, 42, 90
18, 33347, Note_on_c, 15, 42, 0
18, 33360, Note_on_c, 15, 42, 90
18, 33407, Note_on_c, 15, 42, 0
18, 33420, Note_on_c, 15, 47, 90
18, 33467, Note_on_c, 15, 47, 0
18, 33480, Note_on_c, 15, 47, 90
18, 33527, Note_on_c, 15, 47, 0
18, 33540, Note_on_c, 15, 52, 90
18, 33587, Note_on_c, 15, 52, 0
18, 33600, Note_on_c, 15, 52, 90
18, 33647, Note_on_c, 15, 52, 0
18, 33660, Note_on_c, 15, 44, 90
18, 33707, Note_on_c, 15, 44, 0
18, 33720, Note_on_c, 15, 44, 90
18, 33767, Note_on_c, 15, 44, 0
18, 33780, Note_on_c, 15, 40, 90
18, 33827, Note_on_c, 15, 40, 0
18, 33840, Note_on_c, 15, 45, 90
18, 33887, Note_on_c, 15, 45, 0
18, 33900, Note_on_c, 15, 44, 90
18, 33923, Note_on_c, 15, 44, 0
18, 33930, Note_on_c, 15, 45, 90
18, 33953, Note_on_c, 15, 45, 0
18, 33960, Note_on_c, 15, 47, 90
18, 34007, Note_on_c, 15, 47, 0
18, 34020, Note_on_c, 15, 45, 90
18, 34043, Note_on_c, 15, 45, 0
18, 34050, Note_on_c, 15, 47, 90
18, 34073, Note_on_c, 15, 47, 0
18, 34080, Note_on_c, 15, 49, 90
18, 34127, Note_on_c, 15, 49, 0
18, 34140, Note_on_c, 15, 47, 90
18, 34163, Note_on_c, 15, 47, 0
18, 34170, Note_on_c, 15, 49, 90
18, 34193, Note_on_c, 15, 49, 0
18, 34200, Note_on_c, 15, 50, 90
18, 34247, Note_on_c, 15, 50, 0
18, 34260, Note_on_c, 15, 49, 90
18, 34283, Note_on_c, 15, 49, 0
18, 34290, Note_on_c, 15, 50, 90
18, 34313, Note_on_c, 15, 50, 0
18, 34320, Note_on_c, 15, 52, 90
18, 34367, Note_on_c, 15, 52, 0
18, 34380, Note_on_c, 15, 50, 90
18, 34403, Note_on_c, 15, 50, 0
18, 34410, Note_on_c, 15, 52, 90
18, 34433, Note_on_c, 15, 52, 0
18, 34440, Note_on_c, 15, 54, 90
18, 34487, Note_on_c, 15, 54, 0
18, 34500, Note_on_c, 15, 52, 90
18, 34523, Note_on_c, 15, 52, 0
18, 34530, Note_on_c, 15, 54, 90
18, 34553, Note_on_c, 15, 54, 0
18, 34560, Note_on_c, 15, 56, 90
18, 34607, Note_on_c, 15, 56, 0
18, 34620, Note_on_c, 15, 52, 90
18, 34667, Note_on_c, 15, 52, 0
18, 34680, Note_on_c, 15, 57, 90
18, 34727, Note_on_c, 15, 57, 0
18, 34740, Note_on_c, 15, 49, 90
18, 34763, Note_on_c, 15, 49, 0
18, 34770, Note_on_c, 15, 50, 90
18, 34793, Note_on_c, 15, 50, 0
18, 34800, Note_on_c, 15, 52, 90
18, 34847, Note_on_c, 15, 52, 0
18, 34860, Note_on_c, 15, 40, 90
18, 34907, Note_on_c, 15, 40, 0
18, 34920, Note_on_c, 15, 45, 90
18, 34967, Note_on_c, 15, 45, 0
18, 34980, Note_on_c, 15, 49, 90
18, 35027, Note_on_c, 15, 49, 0
18, 35040, Note_on_c, 15, 52, 90
18, 35087, Note_on_c, 15, 52, 0
18, 35100, Note_on_c, 15, 57, 90
18, 35123, Note_on_c, 15, 57, 0
18, 35130, Note_on_c, 15, 59, 90
18, 35153, Note_on_c, 15, 59, 0
18, 35160, Note_on_c, 15, 57, 90
18, 35207, Note_on_c, 15, 57, 0
18, 35220, Note_on_c, 15, 56, 90
18, 35267, Note_on_c, 15, 56, 0
18, 35280, Note_on_c, 15, 54, 90
18, 35327, Note_on_c, 15, 54, 0
18, 35340, Note_on_c, 15, 56, 90
18, 35387, Note_on_c, 15, 56, 0
18, 35400, Note_on_c, 15, 57, 90
18, 35447, Note_on_c, 15, 57, 0
18, 35460, Note_on_c, 15, 59, 90
18, 35507, Note_on_c, 15, 59, 0
18, 35520, Note_on_c, 15, 61, 90
18, 35567, Note_on_c, 15, 61, 0
18, 35580, Note_on_c, 15, 49, 90
18, 35627, Note_on_c, 15, 49, 0
18, 35640, Note_on_c, 15, 54, 90
18, 35687, Note_on_c, 15, 54, 0
18, 35700, Note_on_c, 15, 42, 90
18, 35747, Note_on_c, 15, 42, 0
18, 35760, Note_on_c, 15, 42, 90
18, 35807, Note_on_c, 15, 42, 0
18, 35820, Note_on_c, 15, 42, 90
18, 35867, Note_on_c, 15, 42, 0
18, 35880, Note_on_c, 15, 42, 90
18, 35927, Note_on_c, 15, 42, 0
18, 35940, Note_on_c, 15, 42, 90
18, 35987, Note_on_c, 15, 42, 0
18, 36000, Note_on_c, 15, 42, 90
18, 36047, Note_on_c, 15, 42, 0
18, 36060, Note_on_c, 15, 54, 90
18, 36107, Note_on_c, 15, 54, 0
18, 36120, Note_on_c, 15, 54, 90
18, 36167, Note_on_c, 15, 54, 0
18, 36180, Note_on_c, 15, 57, 90
18, 36227, Note_on_c, 15, 57, 0
18, 36240, Note_on_c, 15, 61, 90
18, 36287, Note_on_c, 15, 61, 0
18, 36300, Note_on_c, 15, 49, 90
18, 36347, Note_on_c, 15, 49, 0
18, 36360, Note_on_c, 15, 54, 90
18, 36407, Note_on_c, 15, 54, 0
18, 36420, Note_on_c, 15, 42, 90
18, 36467, Note_on_c, 15, 42, 0
18, 36480, Note_on_c, 15, 54, 90
18, 36527, Note_on_c, 15, 54, 0
18, 36540, Note_on_c, 15, 52, 90
18, 36587, Note_on_c, 15, 52, 0
18, 36600, Note_on_c, 15, 51, 90
18, 36647, Note_on_c, 15, 51, 0
18, 36660, Note_on_c, 15, 47, 90
18, 36707, Note_on_c, 15, 47, 0
18, 36720, Note_on_c, 15, 52, 90
18, 36767, Note_on_c, 15, 52, 0
18, 36780, Note_on_c, 15, 54, 90
18, 36827, Note_on_c, 15, 54, 0
18, 36840, Note_on_c, 15, 56, 90
18, 36887, Note_on_c, 15, 56, 0
18, 36900, Note_on_c, 15, 54, 90
18, 36947, Note_on_c, 15, 54, 0
18, 36960, Note_on_c, 15, 56, 90
18, 37007, Note_on_c, 15, 56, 0
18, 37020, Note_on_c, 15, 58, 90
18, 37067, Note_on_c, 15, 58, 0
18, 37080, Note_on_c, 15, 59, 90
18, 37127, Note_on_c, 15, 59, 0
18, 37140, Note_on_c, 15, 47, 90
18, 37187, Note_on_c, 15, 47, 0
18, 37200, Note_on_c, 15, 47, 90
18, 37247, Note_on_c, 15, 47, 0
18, 37260, Note_on_c, 15, 47, 90
18, 37307, Note_on_c, 15, 47, 0
18, 37320, Note_on_c, 15, 47, 90
18, 37367, Note_on_c, 15, 47, 0
18, 37380, Note_on_c, 15, 47, 90
18, 37427, Note_on_c, 15, 47, 0
18, 37440, Note_on_c, 15, 48, 90
18, 37487, Note_on_c, 15, 48, 0
18, 37500, Note_on_c, 15, 60, 90
18, 37547, Note_on_c, 15, 60, 0
18, 37560, Note_on_c, 15, 60, 90
18, 37607, Note_on_c, 15, 60, 0
18, 37620, Note_on_c, 15, 60, 90
18, 37667, Note_on_c, 15, 60, 0
18, 37680, Note_on_c, 15, 60, 90
18, 37727, Note_on_c, 15, 60, 0
18, 37740, Note_on_c, 15, 60, 90
18, 37787, Note_on_c, 15, 60, 0
18, 37800, Note_on_c, 15, 61, 90
18, 37847, Note_on_c, 15, 61, 0
18, 37860, Note_on_c, 15, 49, 90
18, 37907, Note_on_c, 15, 49, 0
18, 37920, Note_on_c, 15, 61, 90
18, 37967, Note_on_c, 15, 61, 0
18, 37980, Note_on_c, 15, 59, 90
18, 38027, Note_on_c, 15, 59, 0
18, 38040, Note_on_c, 15, 57, 90
18, 38087, Note_on_c, 15, 57, 0
18, 38100, Note_on_c, 15, 54, 90
18, 38147, Note_on_c, 15, 54, 0
18, 38160, Note_on_c, 15, 59, 90
18, 38207, Note_on_c, 15, 59, 0
18, 38220, Note_on_c, 15, 47, 90
18, 38267, Note_on_c, 15, 47, 0
18, 38280, Note_on_c, 15, 59, 90
18, 38327, Note_on_c, 15, 59, 0
18, 38340, Note_on_c, 15, 57, 90
18, 38387, Note_on_c, 15, 57, 0
18, 38400, Note_on_c, 15, 56, 90
18, 38447, Note_on_c, 15, 56, 0
18, 38460, Note_on_c, 15, 52, 90
18, 38507, Note_on_c, 15, 52, 0
18, 38520, Note_on_c, 15, 57, 90
18, 38567, Note_on_c, 15, 57, 0
18, 38580, Note_on_c, 15, 45, 90
18, 38627, Note_on_c, 15, 45, 0
18, 38640, Note_on_c, 15, 57, 90
18, 38687, Note_on_c, 15, 57, 0
18, 38700, Note_on_c, 15, 56, 90
18, 38747, Note_on_c, 15, 56, 0
18, 38760, Note_on_c, 15, 54, 90
18, 38807, Note_on_c, 15, 54, 0
18, 38820, Note_on_c, 15, 51, 90
18, 38867, Note_on_c, 15, 51, 0
18, 38880, Note_on_c, 15, 56, 90
18, 38927, Note_on_c, 15, 56, 0
18, 38940, Note_on_c, 15, 58, 90
18, 38987, Note_on_c, 15, 58, 0
18, 39000, Note_on_c, 15, 60, 90
18, 39047, Note_on_c, 15, 60, 0
18, 39060, Note_on_c, 15, 56, 90
18, 39107, Note_on_c, 15, 56, 0
18, 39120, Note_on_c, 15, 58, 90
18, 39167, Note_on_c, 15, 58, 0
18, 39180, Note_on_c, 15, 60, 90
18, 39227, Note_on_c, 15, 60, 0
18, 39240, Note_on_c, 15, 61, 90
18, 39287, Note_on_c, 15, 61, 0
18, 39300, Note_on_c, 15, 57, 90
18, 39347, Note_on_c, 15, 57, 0
18, 39360, Note_on_c, 15, 52, 90
18, 39407, Note_on_c, 15, 52, 0
18, 39420, Note_on_c, 15, 57, 90
18, 39467, Note_on_c, 15, 57, 0
18, 39480, Note_on_c, 15, 54, 90
18, 39527, Note_on_c, 15, 54, 0
18, 39540, Note_on_c, 15, 56, 90
18, 39587, Note_on_c, 15, 56, 0
18, 39600, Note_on_c, 15, 49, 90
18, 39647, Note_on_c, 15, 49, 0
18, 39660, Note_on_c, 15, 61, 90
18, 39707, Note_on_c, 15, 61, 0
18, 39720, Note_on_c, 15, 61, 90
18, 39767, Note_on_c, 15, 61, 0
18, 39780, Note_on_c, 15, 61, 90
18, 39827, Note_on_c, 15, 61, 0
18, 39840, Note_on_c, 15, 61, 90
18, 39887, Note_on_c, 15, 61, 0
18, 39900, Note_on_c, 15, 61, 90
18, 39947, Note_on_c, 15, 61, 0
18, 39960, Note_on_c, 15, 61, 90
18, 40007, Note_on_c, 15, 61, 0
18, 40020, Note_on_c, 15, 49, 90
18, 40067, Note_on_c, 15, 49, 0
18, 40080, Note_on_c, 15, 49, 90
18, 40127, Note_on_c, 15, 49, 0
18, 40140, Note_on_c, 15, 52, 90
18, 40187, Note_on_c, 15, 52, 0
18, 40200, Note_on_c, 15, 56, 90
18, 40247, Note_on_c, 15, 56, 0
18, 40260, Note_on_c, 15, 44, 90
18, 40307, Note_on_c, 15, 44, 0
18, 40320, Note_on_c, 15, 49, 90
18, 40367, Note_on_c, 15, 49, 0
18, 40380, Note_on_c, 15, 61, 90
18, 40427, Note_on_c, 15, 61, 0
18, 40440, Note_on_c, 15, 59, 90
18, 40487, Note_on_c, 15, 59, 0
18, 40500, Note_on_c, 15, 57, 90
18, 40547, Note_on_c, 15, 57, 0
18, 40560, Note_on_c, 15, 56, 90
18, 40607, Note_on_c, 15, 56, 0
18, 40620, Note_on_c, 15, 54, 90
18, 40667, Note_on_c, 15, 54, 0
18, 40680, Note_on_c, 15, 52, 90
18, 40727, Note_on_c, 15, 52, 0
18, 40740, Note_on_c, 15, 50, 90
18, 40787, Note_on_c, 15, 50, 0
18, 40800, Note_on_c, 15, 49, 90
18, 40847, Note_on_c, 15, 49, 0
18, 40860, Note_on_c, 15, 47, 90
18, 40907, Note_on_c, 15, 47, 0
18, 40920, Note_on_c, 15, 46, 90
18, 40967, Note_on_c, 15, 46, 0
18, 40980, Note_on_c, 15, 42, 90
18, 41027, Note_on_c, 15, 42, 0
18, 41040, Note_on_c, 15, 47, 90
18, 41087, Note_on_c, 15, 47, 0
18, 41100, Note_on_c, 15, 59, 90
18, 41147, Note_on_c, 15, 59, 0
18, 41160, Note_on_c, 15, 59, 90
18, 41207, Note_on_c, 15, 59, 0
18, 41220, Note_on_c, 15, 59, 90
18, 41267, Note_on_c, 15, 59, 0
18, 41280, Note_on_c, 15, 59, 90
18, 41327, Note_on_c, 15, 59, 0
18, 41340, Note_on_c, 15, 59, 90
18, 41387, Note_on_c, 15, 59, 0
18, 41400, Note_on_c, 15, 59, 90
18, 41447, Note_on_c, 15, 59, 0
18, 41460, Note_on_c, 15, 47, 90
18, 41507, Note_on_c, 15, 47, 0
18, 41520, Note_on_c, 15, 47, 90
18, 41567, Note_on_c, 15, 47, 0
18, 41580, Note_on_c, 15, 50, 90
18, 41627, Note_on_c, 15, 50, 0
18, 41640, Note_on_c, 15, 54, 90
18, 41687, Note_on_c, 15, 54, 0
18, 41700, Note_on_c, 15, 42, 90
18, 41747, Note_on_c, 15, 42, 0
18, 41760, Note_on_c, 15, 47, 90
18, 41807, Note_on_c, 15, 47, 0
18, 41820, Note_on_c, 15, 59, 90
18, 41867, Note_on_c, 15, 59, 0
18, 41880, Note_on_c, 15, 47, 90
18, 41927, Note_on_c, 15, 47, 0
18, 41940, Note_on_c, 15, 49, 90
18, 41963, Note_on_c, 15, 49, 0
18, 41970, Note_on_c, 15, 50, 90
18, 41993, Note_on_c, 15, 50, 0
18, 42000, Note_on_c, 15, 52, 90
18, 42047, Note_on_c, 15, 52, 0
18, 42060, Note_on_c, 15, 50, 90
18, 42107, Note_on_c, 15, 50, 0
18, 42120, Note_on_c, 15, 49, 90
18, 42167, Note_on_c, 15, 49, 0
18, 42180, Note_on_c, 15, 37, 90
18, 42227, Note_on_c, 15, 37, 0
18, 42240, Note_on_c, 15, 37, 90
18, 42287, Note_on_c, 15, 37, 0
18, 42300, Note_on_c, 15, 45, 90
18, 42347, Note_on_c, 15, 45, 0
18, 42360, Note_on_c, 15, 52, 90
18, 42407, Note_on_c, 15, 52, 0
18, 42420, Note_on_c, 15, 40, 90
18, 42467, Note_on_c, 15, 40, 0
18, 42480, Note_on_c, 15, 45, 90
18, 42527, Note_on_c, 15, 45, 0
18, 42540, Note_on_c, 15, 57, 90
18, 42587, Note_on_c, 15, 57, 0
18, 42600, Note_on_c, 15, 57, 90
18, 42647, Note_on_c, 15, 57, 0
18, 42660, Note_on_c, 15, 57, 90
18, 42707, Note_on_c, 15, 57, 0
18, 42720, Note_on_c, 15, 57, 90
18, 42767, Note_on_c, 15, 57, 0
18, 42780, Note_on_c, 15, 57, 90
18, 42827, Note_on_c, 15, 57, 0
18, 42840, Note_on_c, 15, 58, 90
18, 42887, Note_on_c, 15, 58, 0
18, 42900, Note_on_c, 15, 46, 90
18, 42947, Note_on_c, 15, 46, 0
18, 42960, Note_on_c, 15, 46, 90
18, 43007, Note_on_c, 15, 46, 0
18, 43020, Note_on_c, 15, 46, 90
18, 43067, Note_on_c, 15, 46, 0
18, 43080, Note_on_c, 15, 46, 90
18, 43127, Note_on_c, 15, 46, 0
18, 43140, Note_on_c, 15, 46, 90
18, 43187, Note_on_c, 15, 46, 0
18, 43200, Note_on_c, 15, 47, 90
18, 43247, Note_on_c, 15, 47, 0
18, 43260, Note_on_c, 15, 46, 90
18, 43307, Note_on_c, 15, 46, 0
18, 43320, Note_on_c, 15, 47, 90
18, 43367, Note_on_c, 15, 47, 0
18, 43380, Note_on_c, 15, 49, 90
18, 43427, Note_on_c, 15, 49, 0
18, 43440, Note_on_c, 15, 50, 90
18, 43487, Note_on_c, 15, 50, 0
18, 43500, Note_on_c, 15, 47, 90
18, 43547, Note_on_c, 15, 47, 0
18, 43560, Note_on_c, 15, 52, 90
18, 43607, Note_on_c, 15, 52, 0
18, 43620, Note_on_c, 15, 40, 90
18, 43667, Note_on_c, 15, 40, 0
18, 43680, Note_on_c, 15, 52, 90
18, 43727, Note_on_c, 15, 52, 0
18, 43740, Note_on_c, 15, 50, 90
18, 43787, Note_on_c, 15, 50, 0
18, 43800, Note_on_c, 15, 49, 90
18, 43847, Note_on_c, 15, 49, 0
18, 43860, Note_on_c, 15, 45, 90
18, 43907, Note_on_c, 15, 45, 0
18, 43920, Note_on_c, 15, 50, 90
18, 43967, Note_on_c, 15, 50, 0
18, 43980, Note_on_c, 15, 38, 90
18, 44027, Note_on_c, 15, 38, 0
18, 44040, Note_on_c, 15, 50, 90
18, 44087, Note_on_c, 15, 50, 0
18, 44100, Note_on_c, 15, 49, 90
18, 44147, Note_on_c, 15, 49, 0
18, 44160, Note_on_c, 15, 47, 90
18, 44207, Note_on_c, 15, 47, 0
18, 44220, Note_on_c, 15, 44, 90
18, 44267, Note_on_c, 15, 44, 0
18, 44280, Note_on_c, 15, 49, 90
18, 44327, Note_on_c, 15, 49, 0
18, 44340, Note_on_c, 15, 51, 90
18, 44387, Note_on_c, 15, 51, 0
18, 44400, Note_on_c, 15, 53, 90
18, 44447, Note_on_c, 15, 53, 0
18, 44460, Note_on_c, 15, 49, 90
18, 44507, Note_on_c, 15, 49, 0
18, 44520, Note_on_c, 15, 51, 90
18, 44567, Note_on_c, 15, 51, 0
18, 44580, Note_on_c, 15, 53, 90
18, 44627, Note_on_c, 15, 53, 0
18, 44640, Note_on_c, 15, 54, 90
18, 44687, Note_on_c, 15, 54, 0
18, 44700, Note_on_c, 15, 50, 90
18, 44747, Note_on_c, 15, 50, 0
18, 44760, Note_on_c, 15, 45, 90
18, 44807, Note_on_c, 15, 45, 0
18, 44820, Note_on_c, 15, 50, 90
18, 44867, Note_on_c, 15, 50, 0
18, 44880, Note_on_c, 15, 47, 90
18, 44927, Note_on_c, 15, 47, 0
18, 44940, Note_on_c, 15, 49, 90
18, 44987, Note_on_c, 15, 49, 0
18, 45000, Note_on_c, 15, 42, 90
18, 45095, Note_on_c, 15, 42, 0
18, 45360, Note_on_c, 15, 45, 90
18, 45407, Note_on_c, 15, 45, 0
18, 45420, Note_on_c, 15, 57, 90
18, 45467, Note_on_c, 15, 57, 0
18, 45480, Note_on_c, 15, 57, 90
18, 45527, Note_on_c, 15, 57, 0
18, 45540, Note_on_c, 15, 57, 90
18, 45587, Note_on_c, 15, 57, 0
18, 45600, Note_on_c, 15, 57, 90
18, 45647, Note_on_c, 15, 57, 0
18, 45660, Note_on_c, 15, 57, 90
18, 45707, Note_on_c, 15, 57, 0
18, 45720, Note_on_c, 15, 57, 90
18, 45767, Note_on_c, 15, 57, 0
18, 45780, Note_on_c, 15, 45, 90
18, 45827, Note_on_c, 15, 45, 0
18, 45840, Note_on_c, 15, 45, 90
18, 45887, Note_on_c, 15, 45, 0
18, 45900, Note_on_c, 15, 49, 90
18, 45947, Note_on_c, 15, 49, 0
18, 45960, Note_on_c, 15, 52, 90
18, 46007, Note_on_c, 15, 52, 0
18, 46020, Note_on_c, 15, 40, 90
18, 46067, Note_on_c, 15, 40, 0
18, 46080, Note_on_c, 15, 45, 90
18, 46127, Note_on_c, 15, 45, 0
18, 46140, Note_on_c, 15, 57, 90
18, 46187, Note_on_c, 15, 57, 0
18, 46200, Note_on_c, 15, 57, 90
18, 46247, Note_on_c, 15, 57, 0
18, 46260, Note_on_c, 15, 57, 90
18, 46307, Note_on_c, 15, 57, 0
18, 46320, Note_on_c, 15, 57, 90
18, 46367, Note_on_c, 15, 57, 0
18, 46380, Note_on_c, 15, 57, 90
18, 46427, Note_on_c, 15, 57, 0
18, 46440, Note_on_c, 15, 57, 90
18, 46487, Note_on_c, 15, 57, 0
18, 46500, Note_on_c, 15, 45, 90
18, 46547, Note_on_c, 15, 45, 0
18, 46560, Note_on_c, 15, 45, 90
18, 46607, Note_on_c, 15, 45, 0
18, 46620, Note_on_c, 15, 49, 90
18, 46667, Note_on_c, 15, 49, 0
18, 46680, Note_on_c, 15, 52, 90
18, 46727, Note_on_c, 15, 52, 0
18, 46740, Note_on_c, 15, 40, 90
18, 46787, Note_on_c, 15, 40, 0
18, 46800, Note_on_c, 15, 45, 90
18, 46847, Note_on_c, 15, 45, 0
18, 46860, Note_on_c, 15, 57, 90
18, 46907, Note_on_c, 15, 57, 0
18, 46980, Note_on_c, 15, 49, 90
18, 47027, Note_on_c, 15, 49, 0
18, 47040, Note_on_c, 15, 45, 90
18, 47087, Note_on_c, 15, 45, 0
18, 47100, Note_on_c, 15, 49, 90
18, 47147, Note_on_c, 15, 49, 0
18, 47160, Note_on_c, 15, 50, 90
18, 47207, Note_on_c, 15, 50, 0
18, 47220, Note_on_c, 15, 62, 90
18, 47267, Note_on_c, 15, 62, 0
18, 47280, Note_on_c, 15, 57, 90
18, 47327, Note_on_c, 15, 57, 0
18, 47340, Note_on_c, 15, 54, 90
18, 47387, Note_on_c, 15, 54, 0
18, 47400, Note_on_c, 15, 50, 90
18, 47447, Note_on_c, 15, 50, 0
18, 47460, Note_on_c, 15, 49, 90
18, 47507, Note_on_c, 15, 49, 0
18, 47520, Note_on_c, 15, 51, 90
18, 47567, Note_on_c, 15, 51, 0
18, 47580, Note_on_c, 15, 47, 90
18, 47627, Note_on_c, 15, 47, 0
18, 47700, Note_on_c, 15, 47, 90
18, 47747, Note_on_c, 15, 47, 0
18, 47760, Note_on_c, 15, 51, 90
18, 47807, Note_on_c, 15, 51, 0
18, 47820, Note_on_c, 15, 47, 90
18, 47867, Note_on_c, 15, 47, 0
18, 47880, Note_on_c, 15, 52, 90
18, 47927, Note_on_c, 15, 52, 0
18, 47940, Note_on_c, 15, 64, 90
18, 47987, Note_on_c, 15, 64, 0
18, 48000, Note_on_c, 15, 59, 90
18, 48047, Note_on_c, 15, 59, 0
18, 48060, Note_on_c, 15, 56, 90
18, 48107, Note_on_c, 15, 56, 0
18, 48120, Note_on_c, 15, 52, 90
18, 48167, Note_on_c, 15, 52, 0
18, 48180, Note_on_c, 15, 47, 90
18, 48227, Note_on_c, 15, 47, 0
18, 48240, Note_on_c, 15, 40, 90
18, 48287, Note_on_c, 15, 40, 0
18, 48300, Note_on_c, 15, 52, 90
18, 48347, Note_on_c, 15, 52, 0
18, 48420, Note_on_c, 15, 56, 90
18, 48467, Note_on_c, 15, 56, 0
18, 48480, Note_on_c, 15, 59, 90
18, 48527, Note_on_c, 15, 59, 0
18, 48540, Note_on_c, 15, 62, 90
18, 48587, Note_on_c, 15, 62, 0
18, 48600, Note_on_c, 15, 61, 90
18, 48647, Note_on_c, 15, 61, 0
18, 48660, Note_on_c, 15, 57, 90
18, 48707, Note_on_c, 15, 57, 0
18, 48720, Note_on_c, 15, 61, 90
18, 48767, Note_on_c, 15, 61, 0
18, 48780, Note_on_c, 15, 57, 90
18, 48827, Note_on_c, 15, 57, 0
18, 48840, Note_on_c, 15, 61, 90
18, 48887, Note_on_c, 15, 61, 0
18, 48900, Note_on_c, 15, 57, 90
18, 48947, Note_on_c, 15, 57, 0
18, 48960, Note_on_c, 15, 62, 90
18, 49007, Note_on_c, 15, 62, 0
18, 49020, Note_on_c, 15, 54, 90
18, 49067, Note_on_c, 15, 54, 0
18, 49080, Note_on_c, 15, 54, 90
18, 49127, Note_on_c, 15, 54, 0
18, 49140, Note_on_c, 15, 50, 90
18, 49187, Note_on_c, 15, 50, 0
18, 49200, Note_on_c, 15, 50, 90
18, 49247, Note_on_c, 15, 50, 0
18, 49260, Note_on_c, 15, 57, 90
18, 49307, Note_on_c, 15, 57, 0
18, 49320, Note_on_c, 15, 57, 90
18, 49367, Note_on_c, 15, 57, 0
18, 49380, Note_on_c, 15, 45, 90
18, 49427, Note_on_c, 15, 45, 0
18, 49440, Note_on_c, 15, 45, 90
18, 49487, Note_on_c, 15, 45, 0
18, 49500, Note_on_c, 15, 42, 90
18, 49547, Note_on_c, 15, 42, 0
18, 49560, Note_on_c, 15, 42, 90
18, 49607, Note_on_c, 15, 42, 0
18, 49620, Note_on_c, 15, 47, 90
18, 49667, Note_on_c, 15, 47, 0
18, 49680, Note_on_c, 15, 47, 90
18, 49727, Note_on_c, 15, 47, 0
18, 49740, Note_on_c, 15, 52, 90
18, 49787, Note_on_c, 15, 52, 0
18, 49800, Note_on_c, 15, 52, 90
18, 49847, Note_on_c, 15, 52, 0
18, 49860, Note_on_c, 15, 44, 90
18, 49907, Note_on_c, 15, 44, 0
18, 49920, Note_on_c, 15, 44, 90
18, 49967, Note_on_c, 15, 44, 0
18, 49980, Note_on_c, 15, 40, 90
18, 50027, Note_on_c, 15, 40, 0
18, 50040, Note_on_c, 15, 45, 90
18, 50087, Note_on_c, 15, 45, 0
18, 50100, Note_on_c, 15, 44, 90
18, 50123, Note_on_c, 15, 44, 0
18, 50130, Note_on_c, 15, 45, 90
18, 50153, Note_on_c, 15, 45, 0
18, 50160, Note_on_c, 15, 47, 90
18, 50207, Note_on_c, 15, 47, 0
18, 50220, Note_on_c, 15, 45, 90
18, 50243, Note_on_c, 15, 45, 0
18, 50250, Note_on_c, 15, 47, 90
18, 50273, Note_on_c, 15, 47, 0
18, 50280, Note_on_c, 15, 49, 90
18, 50327, Note_on_c, 15, 49, 0
18, 50340, Note_on_c, 15, 47, 90
18, 50363, Note_on_c, 15, 47, 0
18, 50370, Note_on_c, 15, 49, 90
18, 50393, Note_on_c, 15, 49, 0
18, 50400, Note_on_c, 15, 50, 90
18, 50447, Note_on_c, 15, 50, 0
18, 50460, Note_on_c, 15, 49, 90
18, 50483, Note_on_c, 15, 49, 0
18, 50490, Note_on_c, 15, 50, 90
18, 50513, Note_on_c, 15, 50, 0
18, 50520, Note_on_c, 15, 52, 90
18, 50567, Note_on_c, 15, 52, 0
18, 50580, Note_on_c, 15, 50, 90
18, 50603, Note_on_c, 15, 50, 0
18, 50610, Note_on_c, 15, 52, 90
18, 50633, Note_on_c, 15, 52, 0
18, 50640, Note_on_c, 15, 54, 90
18, 50687, Note_on_c, 15, 54, 0
18, 50700, Note_on_c, 15, 52, 90
18, 50723, Note_on_c, 15, 52, 0
18, 50730, Note_on_c, 15, 54, 90
18, 50753, Note_on_c, 15, 54, 0
18, 50760, Note_on_c, 15, 56, 90
18, 50807, Note_on_c, 15, 56, 0
18, 50820, Note_on_c, 15, 52, 90
18, 50867, Note_on_c, 15, 52, 0
18, 50880, Note_on_c, 15, 57, 90
18, 50927, Note_on_c, 15, 57, 0
18, 50940, Note_on_c, 15, 49, 90
18, 50963, Note_on_c, 15, 49, 0
18, 50970, Note_on_c, 15, 50, 90
18, 50993, Note_on_c, 15, 50, 0
18, 51000, Note_on_c, 15, 52, 90
18, 51047, Note_on_c, 15, 52, 0
18, 51060, Note_on_c, 15, 40, 90
18, 51107, Note_on_c, 15, 40, 0
18, 51120, Note_on_c, 15, 45, 90
18, 51167, Note_on_c, 15, 45, 0
18, 51180, Note_on_c, 15, 57, 90
18, 51227, Note_on_c, 15, 57, 0
18, 51240, Note_on_c, 15, 57, 90
18, 51287, Note_on_c, 15, 57, 0
18, 51300, Note_on_c, 15, 57, 90
18, 51347, Note_on_c, 15, 57, 0
18, 51360, Note_on_c, 15, 57, 90
18, 51407, Note_on_c, 15, 57, 0
18, 51420, Note_on_c, 15, 57, 90
18, 51467, Note_on_c, 15, 57, 0
18, 51480, Note_on_c, 15, 57, 90
18, 51527, Note_on_c, 15, 57, 0
18, 51540, Note_on_c, 15, 45, 90
18, 51587, Note_on_c, 15, 45, 0
18, 51600, Note_on_c, 15, 57, 90
18, 51647, Note_on_c, 15, 57, 0
18, 51660, Note_on_c, 15, 55, 90
18, 51707, Note_on_c, 15, 55, 0
18, 51720, Note_on_c, 15, 54, 90
18, 51767, Note_on_c, 15, 54, 0
18, 51780, Note_on_c, 15, 50, 90
18, 51827, Note_on_c, 15, 50, 0
18, 51840, Note_on_c, 15, 57, 90
18, 51887, Note_on_c, 15, 57, 0
18, 51900, Note_on_c, 15, 45, 90
18, 51947, Note_on_c, 15, 45, 0
18, 51960, Note_on_c, 15, 45, 90
18, 52007, Note_on_c, 15, 45, 0
18, 52020, Note_on_c, 15, 45, 90
18, 52067, Note_on_c, 15, 45, 0
18, 52080, Note_on_c, 15, 45, 90
18, 52127, Note_on_c, 15, 45, 0
18, 52140, Note_on_c, 15, 45, 90
18, 52187, Note_on_c, 15, 45, 0
18, 52200, Note_on_c, 15, 45, 90
18, 52247, Note_on_c, 15, 45, 0
18, 52260, Note_on_c, 15, 57, 90
18, 52307, Note_on_c, 15, 57, 0
18, 52320, Note_on_c, 15, 45, 90
18, 52367, Note_on_c, 15, 45, 0
18, 52380, Note_on_c, 15, 49, 90
18, 52427, Note_on_c, 15, 49, 0
18, 52440, Note_on_c, 15, 52, 90
18, 52487, Note_on_c, 15, 52, 0
18, 52500, Note_on_c, 15, 40, 90
18, 52547, Note_on_c, 15, 40, 0
18, 52560, Note_on_c, 15, 57, 90
18, 52607, Note_on_c, 15, 57, 0
18, 52620, Note_on_c, 15, 45, 90
18, 52667, Note_on_c, 15, 45, 0
18, 52680, Note_on_c, 15, 45, 90
18, 52727, Note_on_c, 15, 45, 0
18, 52740, Note_on_c, 15, 57, 90
18, 52787, Note_on_c, 15, 57, 0
18, 52800, Note_on_c, 15, 56, 90
18, 52847, Note_on_c, 15, 56, 0
18, 52860, Note_on_c, 15, 57, 90
18, 52907, Note_on_c, 15, 57, 0
18, 52920, Note_on_c, 15, 52, 90
18, 52967, Note_on_c, 15, 52, 0
18, 52980, Note_on_c, 15, 40, 90
18, 53027, Note_on_c, 15, 40, 0
18, 53040, Note_on_c, 15, 40, 90
18, 53087, Note_on_c, 15, 40, 0
18, 53100, Note_on_c, 15, 40, 90
18, 53147, Note_on_c, 15, 40, 0
18, 53160, Note_on_c, 15, 40, 90
18, 53207, Note_on_c, 15, 40, 0
18, 53220, Note_on_c, 15, 40, 90
18, 53267, Note_on_c, 15, 40, 0
18, 53280, Note_on_c, 15, 40, 90
18, 53327, Note_on_c, 15, 40, 0
18, 53340, Note_on_c, 15, 52, 90
18, 53363, Note_on_c, 15, 52, 0
18, 53370, Note_on_c, 15, 54, 90
18, 53393, Note_on_c, 15, 54, 0
18, 53400, Note_on_c, 15, 56, 90
18, 53447, Note_on_c, 15, 56, 0
18, 53460, Note_on_c, 15, 52, 90
18, 53507, Note_on_c, 15, 52, 0
18, 53520, Note_on_c, 15, 57, 90
18, 53567, Note_on_c, 15, 57, 0
18, 53580, Note_on_c, 15, 45, 90
18, 53627, Note_on_c, 15, 45, 0
18, 53640, Note_on_c, 15, 52, 90
18, 53687, Note_on_c, 15, 52, 0
18, 53700, Note_on_c, 15, 40, 90
18, 53747, Note_on_c, 15, 40, 0
18, 53760, Note_on_c, 15, 40, 90
18, 53807, Note_on_c, 15, 40, 0
18, 53820, Note_on_c, 15, 40, 90
18, 53867, Note_on_c, 15, 40, 0
18, 53880, Note_on_c, 15, 40, 90
18, 53927, Note_on_c, 15, 40, 0
18, 53940, Note_on_c, 15, 40, 90
18, 53987, Note_on_c, 15, 40, 0
18, 54000, Note_on_c, 15, 40, 90
18, 54047, Note_on_c, 15, 40, 0
18, 54060, Note_on_c, 15, 52, 90
18, 54107, Note_on_c, 15, 52, 0
18, 54120, Note_on_c, 15, 52, 90
18, 54167, Note_on_c, 15, 52, 0
18, 54180, Note_on_c, 15, 56, 90
18, 54227, Note_on_c, 15, 56, 0
18, 54240, Note_on_c, 15, 59, 90
18, 54287, Note_on_c, 15, 59, 0
18, 54300, Note_on_c, 15, 47, 90
18, 54347, Note_on_c, 15, 47, 0
18, 54360, Note_on_c, 15, 52, 90
18, 54407, Note_on_c, 15, 52, 0
18, 54420, Note_on_c, 15, 40, 90
18, 54467, Note_on_c, 15, 40, 0
18, 54480, Note_on_c, 15, 40, 90
18, 54527, Note_on_c, 15, 40, 0
18, 54540, Note_on_c, 15, 50, 90
18, 54587, Note_on_c, 15, 50, 0
18, 54600, Note_on_c, 15, 49, 90
18, 54647, Note_on_c, 15, 49, 0
18, 54660, Note_on_c, 15, 52, 90
18, 54707, Note_on_c, 15, 52, 0
18, 54720, Note_on_c, 15, 54, 90
18, 54767, Note_on_c, 15, 54, 0
18, 54780, Note_on_c, 15, 42, 90
18, 54827, Note_on_c, 15, 42, 0
18, 54840, Note_on_c, 15, 42, 90
18, 54887, Note_on_c, 15, 42, 0
18, 54900, Note_on_c, 15, 54, 90
18, 54947, Note_on_c, 15, 54, 0
18, 54960, Note_on_c, 15, 52, 90
18, 55007, Note_on_c, 15, 52, 0
18, 55020, Note_on_c, 15, 50, 90
18, 55067, Note_on_c, 15, 50, 0
18, 55080, Note_on_c, 15, 49, 90
18, 55127, Note_on_c, 15, 49, 0
18, 55140, Note_on_c, 15, 61, 90
18, 55187, Note_on_c, 15, 61, 0
18, 55200, Note_on_c, 15, 59, 90
18, 55247, Note_on_c, 15, 59, 0
18, 55260, Note_on_c, 15, 57, 90
18, 55307, Note_on_c, 15, 57, 0
18, 55320, Note_on_c, 15, 56, 90
18, 55367, Note_on_c, 15, 56, 0
18, 55380, Note_on_c, 15, 54, 90
18, 55427, Note_on_c, 15, 54, 0
18, 55440, Note_on_c, 15, 52, 90
18, 55487, Note_on_c, 15, 52, 0
18, 55500, Note_on_c, 15, 40, 90
18, 55547, Note_on_c, 15, 40, 0
18, 55560, Note_on_c, 15, 52, 90
18, 55607, Note_on_c, 15, 52, 0
18, 55620, Note_on_c, 15, 54, 90
18, 55667, Note_on_c, 15, 54, 0
18, 55680, Note_on_c, 15, 49, 90
18, 55727, Note_on_c, 15, 49, 0
18, 55740, Note_on_c, 15, 52, 90
18, 55787, Note_on_c, 15, 52, 0
18, 55800, Note_on_c, 15, 57, 90
18, 55847, Note_on_c, 15, 57, 0
18, 55860, Note_on_c, 15, 45, 90
18, 55907, Note_on_c, 15, 45, 0
18, 55920, Note_on_c, 15, 45, 90
18, 55967, Note_on_c, 15, 45, 0
18, 55980, Note_on_c, 15, 49, 90
18, 56027, Note_on_c, 15, 49, 0
18, 56040, Note_on_c, 15, 52, 90
18, 56087, Note_on_c, 15, 52, 0
18, 56100, Note_on_c, 15, 40, 90
18, 56147, Note_on_c, 15, 40, 0
18, 56160, Note_on_c, 15, 45, 90
18, 56207, Note_on_c, 15, 45, 0
18, 56220, Note_on_c, 15, 57, 90
18, 56243, Note_on_c, 15, 57, 0
18, 56250, Note_on_c, 15, 56, 90
18, 56273, Note_on_c, 15, 56, 0
18, 56280, Note_on_c, 15, 57, 90
18, 56327, Note_on_c, 15, 57, 0
18, 56340, Note_on_c, 15, 49, 90
18, 56363, Note_on_c, 15, 49, 0
18, 56370, Note_on_c, 15, 47, 90
18, 56393, Note_on_c, 15, 47, 0
18, 56400, Note_on_c, 15, 49, 90
18, 56447, Note_on_c, 15, 49, 0
18, 56460, Note_on_c, 15, 45, 90
18, 56507, Note_on_c, 15, 45, 0
18, 56520, Note_on_c, 15, 50, 90
18, 56567, Note_on_c, 15, 50, 0
18, 56580, Note_on_c, 15, 49, 90
18, 56627, Note_on_c, 15, 49, 0
18, 56640, Note_on_c, 15, 47, 90
18, 56687, Note_on_c, 15, 47, 0
18, 56700, Note_on_c, 15, 45, 90
18, 56747, Note_on_c, 15, 45, 0
18, 56760, Note_on_c, 15, 44, 90
18, 56807, Note_on_c, 15, 44, 0
18, 56820, Note_on_c, 15, 45, 90
18, 56867, Note_on_c, 15, 45, 0
18, 56880, Note_on_c, 15, 40, 90
18, 56927, Note_on_c, 15, 40, 0
18, 56940, Note_on_c, 15, 52, 90
18, 56963, Note_on_c, 15, 52, 0
18, 56970, Note_on_c, 15, 54, 90
18, 56993, Note_on_c, 15, 54, 0
18, 57000, Note_on_c, 15, 56, 90
18, 57047, Note_on_c, 15, 56, 0
18, 57060, Note_on_c, 15, 59, 90
18, 57107, Note_on_c, 15, 59, 0
18, 57120, Note_on_c, 15, 56, 90
18, 57167, Note_on_c, 15, 56, 0
18, 57180, Note_on_c, 15, 52, 90
18, 57227, Note_on_c, 15, 52, 0
18, 57240, Note_on_c, 15, 57, 90
18, 57287, Note_on_c, 15, 57, 0
18, 57300, Note_on_c, 15, 56, 90
18, 57347, Note_on_c, 15, 56, 0
18, 57360, Note_on_c, 15, 54, 90
18, 57407, Note_on_c, 15, 54, 0
18, 57420, Note_on_c, 15, 52, 90
18, 57467, Note_on_c, 15, 52, 0
18, 57480, Note_on_c, 15, 51, 90
18, 57527, Note_on_c, 15, 51, 0
18, 57540, Note_on_c, 15, 52, 90
18, 57587, Note_on_c, 15, 52, 0
18, 57600, Note_on_c, 15, 59, 90
18, 57647, Note_on_c, 15, 59, 0
18, 57660, Note_on_c, 15, 47, 90
18, 57683, Note_on_c, 15, 47, 0
18, 57690, Note_on_c, 15, 49, 90
18, 57713, Note_on_c, 15, 49, 0
18, 57720, Note_on_c, 15, 51, 90
18, 57767, Note_on_c, 15, 51, 0
18, 57780, Note_on_c, 15, 54, 90
18, 57827, Note_on_c, 15, 54, 0
18, 57840, Note_on_c, 15, 51, 90
18, 57887, Note_on_c, 15, 51, 0
18, 57900, Note_on_c, 15, 47, 90
18, 57947, Note_on_c, 15, 47, 0
18, 57960, Note_on_c, 15, 52, 90
18, 58007, Note_on_c, 15, 52, 0
18, 58020, Note_on_c, 15, 40, 90
18, 58043, Note_on_c, 15, 40, 0
18, 58050, Note_on_c, 15, 42, 90
18, 58073, Note_on_c, 15, 42, 0
18, 58080, Note_on_c, 15, 44, 90
18, 58127, Note_on_c, 15, 44, 0
18, 58140, Note_on_c, 15, 47, 90
18, 58187, Note_on_c, 15, 47, 0
18, 58200, Note_on_c, 15, 44, 90
18, 58247, Note_on_c, 15, 44, 0
18, 58260, Note_on_c, 15, 40, 90
18, 58307, Note_on_c, 15, 40, 0
18, 58320, Note_on_c, 15, 45, 90
18, 58367, Note_on_c, 15, 45, 0
18, 58380, Note_on_c, 15, 57, 90
18, 58403, Note_on_c, 15, 57, 0
18, 58410, Note_on_c, 15, 59, 90
18, 58433, Note_on_c, 15, 59, 0
18, 58440, Note_on_c, 15, 61, 90
18, 58487, Note_on_c, 15, 61, 0
18, 58500, Note_on_c, 15, 64, 90
18, 58547, Note_on_c, 15, 64, 0
18, 58560, Note_on_c, 15, 61, 90
18, 58607, Note_on_c, 15, 61, 0
18, 58620, Note_on_c, 15, 57, 90
18, 58667, Note_on_c, 15, 57, 0
18, 58680, Note_on_c, 15, 62, 90
18, 58727, Note_on_c, 15, 62, 0
18, 58740, Note_on_c, 15, 61, 90
18, 58787, Note_on_c, 15, 61, 0
18, 58800, Note_on_c, 15, 59, 90
18, 58847, Note_on_c, 15, 59, 0
18, 58860, Note_on_c, 15, 57, 90
18, 58907, Note_on_c, 15, 57, 0
18, 58920, Note_on_c, 15, 56, 90
18, 58967, Note_on_c, 15, 56, 0
18, 58980, Note_on_c, 15, 57, 90
18, 59027, Note_on_c, 15, 57, 0
18, 59040, Note_on_c, 15, 64, 90
18, 59087, Note_on_c, 15, 64, 0
18, 59100, Note_on_c, 15, 52, 90
18, 59123, Note_on_c, 15, 52, 0
18, 59130, Note_on_c, 15, 54, 90
18, 59153, Note_on_c, 15, 54, 0
18, 59160, Note_on_c, 15, 56, 90
18, 59207, Note_on_c, 15, 56, 0
18, 59220, Note_on_c, 15, 59, 90
18, 59267, Note_on_c, 15, 59, 0
18, 59280, Note_on_c, 15, 56, 90
18, 59327, Note_on_c, 15, 56, 0
18, 59340, Note_on_c, 15, 52, 90
18, 59387, Note_on_c, 15, 52, 0
18, 59400, Note_on_c, 15, 57, 90
18, 59447, Note_on_c, 15, 57, 0
18, 59460, Note_on_c, 15, 56, 90
18, 59507, Note_on_c, 15, 56, 0
18, 59520, Note_on_c, 15, 54, 90
18, 59567, Note_on_c, 15, 54, 0
18, 59580, Note_on_c, 15, 52, 90
18, 59627, Note_on_c, 15, 52, 0
18, 59640, Note_on_c, 15, 51, 90
18, 59687, Note_on_c, 15, 51, 0
18, 59700, Note_on_c, 15, 52, 90
18, 59747, Note_on_c, 15, 52, 0
18, 59760, Note_on_c, 15, 59, 90
18, 59807, Note_on_c, 15, 59, 0
18, 59820, Note_on_c, 15, 47, 90
18, 59843, Note_on_c, 15, 47, 0
18, 59850, Note_on_c, 15, 49, 90
18, 59873, Note_on_c, 15, 49, 0
18, 59880, Note_on_c, 15, 51, 90
18, 59927, Note_on_c, 15, 51, 0
18, 59940, Note_on_c, 15, 54, 90
18, 59987, Note_on_c, 15, 54, 0
18, 60000, Note_on_c, 15, 51, 90
18, 60047, Note_on_c, 15, 51, 0
18, 60060, Note_on_c, 15, 47, 90
18, 60107, Note_on_c, 15, 47, 0
18, 60120, Note_on_c, 15, 52, 90
18, 60167, Note_on_c, 15, 52, 0
18, 60180, Note_on_c, 15, 40, 90
18, 60227, Note_on_c, 15, 40, 0
18, 60300, Note_on_c, 15, 44, 90
18, 60347, Note_on_c, 15, 44, 0
18, 60360, Note_on_c, 15, 40, 90
18, 60407, Note_on_c, 15, 40, 0
18, 60420, Note_on_c, 15, 44, 90
18, 60467, Note_on_c, 15, 44, 0
18, 60480, Note_on_c, 15, 45, 90
18, 60527, Note_on_c, 15, 45, 0
18, 60540, Note_on_c, 15, 57, 90
18, 60587, Note_on_c, 15, 57, 0
18, 60600, Note_on_c, 15, 52, 90
18, 60647, Note_on_c, 15, 52, 0
18, 60660, Note_on_c, 15, 49, 90
18, 60707, Note_on_c, 15, 49, 0
18, 60720, Note_on_c, 15, 45, 90
18, 60767, Note_on_c, 15, 45, 0
18, 60780, Note_on_c, 15, 44, 90
18, 60827, Note_on_c, 15, 44, 0
18, 60840, Note_on_c, 15, 46, 90
18, 60887, Note_on_c, 15, 46, 0
18, 60900, Note_on_c, 15, 42, 90
18, 60947, Note_on_c, 15, 42, 0
18, 61020, Note_on_c, 15, 42, 90
18, 61067, Note_on_c, 15, 42, 0
18, 61080, Note_on_c, 15, 46, 90
18, 61127, Note_on_c, 15, 46, 0
18, 61140, Note_on_c, 15, 42, 90
18, 61187, Note_on_c, 15, 42, 0
18, 61200, Note_on_c, 15, 47, 90
18, 61247, Note_on_c, 15, 47, 0
18, 61260, Note_on_c, 15, 59, 90
18, 61307, Note_on_c, 15, 59, 0
18, 61320, Note_on_c, 15, 54, 90
18, 61367, Note_on_c, 15, 54, 0
18, 61380, Note_on_c, 15, 51, 90
18, 61427, Note_on_c, 15, 51, 0
18, 61440, Note_on_c, 15, 47, 90
18, 61487, Note_on_c, 15, 47, 0
18, 61500, Note_on_c, 15, 54, 90
18, 61547, Note_on_c, 15, 54, 0
18, 61560, Note_on_c, 15, 59, 90
18, 61607, Note_on_c, 15, 59, 0
18, 61620, Note_on_c, 15, 47, 90
18, 61667, Note_on_c, 15, 47, 0
18, 61740, Note_on_c, 15, 51, 90
18, 61787, Note_on_c, 15, 51, 0
18, 61800, Note_on_c, 15, 54, 90
18, 61847, Note_on_c, 15, 54, 0
18, 61860, Note_on_c, 15, 57, 90
18, 61907, Note_on_c, 15, 57, 0
18, 61920, Note_on_c, 15, 56, 90
18, 61967, Note_on_c, 15, 56, 0
18, 61980, Note_on_c, 15, 52, 90
18, 62027, Note_on_c, 15, 52, 0
18, 62040, Note_on_c, 15, 56, 90
18, 62087, Note_on_c, 15, 56, 0
18, 62100, Note_on_c, 15, 52, 90
18, 62147, Note_on_c, 15, 52, 0
18, 62160, Note_on_c, 15, 56, 90
18, 62207, Note_on_c, 15, 56, 0
18, 62220, Note_on_c, 15, 52, 90
18, 62267, Note_on_c, 15, 52, 0
18, 62280, Note_on_c, 15, 57, 90
18, 62327, Note_on_c, 15, 57, 0
18, 62340, Note_on_c, 15, 61, 90
18, 62387, Note_on_c, 15, 61, 0
18, 62400, Note_on_c, 15, 61, 90
18, 62447, Note_on_c, 15, 61, 0
18, 62460, Note_on_c, 15, 57, 90
18, 62507, Note_on_c, 15, 57, 0
18, 62520, Note_on_c, 15, 57, 90
18, 62567, Note_on_c, 15, 57, 0
18, 62580, Note_on_c, 15, 64, 90
18, 62627, Note_on_c, 15, 64, 0
18, 62640, Note_on_c, 15, 64, 90
18, 62687, Note_on_c, 15, 64, 0
18, 62700, Note_on_c, 15, 52, 90
18, 62747, Note_on_c, 15, 52, 0
18, 62760, Note_on_c, 15, 52, 90
18, 62807, Note_on_c, 15, 52, 0
18, 62820, Note_on_c, 15, 49, 90
18, 62867, Note_on_c, 15, 49, 0
18, 62880, Note_on_c, 15, 49, 90
18, 62927, Note_on_c, 15, 49, 0
18, 62940, Note_on_c, 15, 54, 90
18, 62987, Note_on_c, 15, 54, 0
18, 63000, Note_on_c, 15, 54, 90
18, 63047, Note_on_c, 15, 54, 0
18, 63060, Note_on_c, 15, 59, 90
18, 63107, Note_on_c, 15, 59, 0
18, 63120, Note_on_c, 15, 59, 90
18, 63167, Note_on_c, 15, 59, 0
18, 63180, Note_on_c, 15, 51, 90
18, 63227, Note_on_c, 15, 51, 0
18, 63240, Note_on_c, 15, 51, 90
18, 63287, Note_on_c, 15, 51, 0
18, 63300, Note_on_c, 15, 47, 90
18, 63347, Note_on_c, 15, 47, 0
18, 63360, Note_on_c, 15, 52, 90
18, 63407, Note_on_c, 15, 52, 0
18, 63420, Note_on_c, 15, 51, 90
18, 63443, Note_on_c, 15, 51, 0
18, 63450, Note_on_c, 15, 52, 90
18, 63473, Note_on_c, 15, 52, 0
18, 63480, Note_on_c, 15, 54, 90
18, 63527, Note_on_c, 15, 54, 0
18, 63540, Note_on_c, 15, 52, 90
18, 63563, Note_on_c, 15, 52, 0
18, 63570, Note_on_c, 15, 54, 90
18, 63593, Note_on_c, 15, 54, 0
18, 63600, Note_on_c, 15, 56, 90
18, 63647, Note_on_c, 15, 56, 0
18, 63660, Note_on_c, 15, 54, 90
18, 63683, Note_on_c, 15, 54, 0
18, 63690, Note_on_c, 15, 56, 90
18, 63713, Note_on_c, 15, 56, 0
18, 63720, Note_on_c, 15, 57, 90
18, 63767, Note_on_c, 15, 57, 0
18, 63780, Note_on_c, 15, 56, 90
18, 63803, Note_on_c, 15, 56, 0
18, 63810, Note_on_c, 15, 57, 90
18, 63833, Note_on_c, 15, 57, 0
18, 63840, Note_on_c, 15, 59, 90
18, 63887, Note_on_c, 15, 59, 0
18, 63900, Note_on_c, 15, 57, 90
18, 63923, Note_on_c, 15, 57, 0
18, 63930, Note_on_c, 15, 59, 90
18, 63953, Note_on_c, 15, 59, 0
18, 63960, Note_on_c, 15, 61, 90
18, 64007, Note_on_c, 15, 61, 0
18, 64020, Note_on_c, 15, 59, 90
18, 64043, Note_on_c, 15, 59, 0
18, 64050, Note_on_c, 15, 61, 90
18, 64073, Note_on_c, 15, 61, 0
18, 64080, Note_on_c, 15, 63, 90
18, 64127, Note_on_c, 15, 63, 0
18, 64140, Note_on_c, 15, 59, 90
18, 64187, Note_on_c, 15, 59, 0
18, 64200, Note_on_c, 15, 64, 90
18, 64247, Note_on_c, 15, 64, 0
18, 64260, Note_on_c, 15, 56, 90
18, 64283, Note_on_c, 15, 56, 0
18, 64290, Note_on_c, 15, 57, 90
18, 64313, Note_on_c, 15, 57, 0
18, 64320, Note_on_c, 15, 59, 90
18, 64367, Note_on_c, 15, 59, 0
18, 64380, Note_on_c, 15, 47, 90
18, 64427, Note_on_c, 15, 47, 0
18, 64440, Note_on_c, 15, 52, 90
18, 64487, Note_on_c, 15, 52, 0
18, 64500, Note_on_c, 15, 40, 90
18, 64547, Note_on_c, 15, 40, 0
18, 64560, Note_on_c, 15, 40, 90
18, 64607, Note_on_c, 15, 40, 0
18, 64620, Note_on_c, 15, 40, 90
18, 64667, Note_on_c, 15, 40, 0
18, 64680, Note_on_c, 15, 40, 90
18, 64727, Note_on_c, 15, 40, 0
18, 64740, Note_on_c, 15, 40, 90
18, 64787, Note_on_c, 15, 40, 0
18, 64800, Note_on_c, 15, 40, 90
18, 64847, Note_on_c, 15, 40, 0
18, 64860, Note_on_c, 15, 52, 90
18, 64907, Note_on_c, 15, 52, 0
18, 64920, Note_on_c, 15, 52, 90
18, 64967, Note_on_c, 15, 52, 0
18, 64980, Note_on_c, 15, 56, 90
18, 65027, Note_on_c, 15, 56, 0
18, 65040, Note_on_c, 15, 59, 90
18, 65087, Note_on_c, 15, 59, 0
18, 65100, Note_on_c, 15, 47, 90
18, 65147, Note_on_c, 15, 47, 0
18, 65160, Note_on_c, 15, 52, 90
18, 65207, Note_on_c, 15, 52, 0
18, 65220, Note_on_c, 15, 40, 90
18, 65267, Note_on_c, 15, 40, 0
18, 65280, Note_on_c, 15, 40, 90
18, 65327, Note_on_c, 15, 40, 0
18, 65340, Note_on_c, 15, 40, 90
18, 65387, Note_on_c, 15, 40, 0
18, 65400, Note_on_c, 15, 40, 90
18, 65447, Note_on_c, 15, 40, 0
18, 65460, Note_on_c, 15, 40, 90
18, 65507, Note_on_c, 15, 40, 0
18, 65520, Note_on_c, 15, 40, 90
18, 65567, Note_on_c, 15, 40, 0
18, 65580, Note_on_c, 15, 52, 90
18, 65627, Note_on_c, 15, 52, 0
18, 65640, Note_on_c, 15, 52, 90
18, 65687, Note_on_c, 15, 52, 0
18, 65700, Note_on_c, 15, 56, 90
18, 65747, Note_on_c, 15, 56, 0
18, 65760, Note_on_c, 15, 59, 90
18, 65807, Note_on_c, 15, 59, 0
18, 65820, Note_on_c, 15, 47, 90
18, 65867, Note_on_c, 15, 47, 0
18, 65880, Note_on_c, 15, 52, 90
18, 65927, Note_on_c, 15, 52, 0
18, 65940, Note_on_c, 15, 40, 90
18, 65987, Note_on_c, 15, 40, 0
18, 66000, Note_on_c, 15, 40, 90
18, 66047, Note_on_c, 15, 40, 0
18, 66060, Note_on_c, 15, 52, 90
18, 66083, Note_on_c, 15, 52, 0
18, 66090, Note_on_c, 15, 54, 90
18, 66113, Note_on_c, 15, 54, 0
18, 66120, Note_on_c, 15, 52, 90
18, 66167, Note_on_c, 15, 52, 0
18, 66180, Note_on_c, 15, 50, 90
18, 66227, Note_on_c, 15, 50, 0
18, 66240, Note_on_c, 15, 49, 90
18, 66287, Note_on_c, 15, 49, 0
18, 66300, Note_on_c, 15, 37, 90
18, 66347, Note_on_c, 15, 37, 0
18, 66360, Note_on_c, 15, 37, 90
18, 66407, Note_on_c, 15, 37, 0
18, 66420, Note_on_c, 15, 49, 90
18, 66443, Note_on_c, 15, 49, 0
18, 66450, Note_on_c, 15, 47, 90
18, 66473, Note_on_c, 15, 47, 0
18, 66480, Note_on_c, 15, 49, 90
18, 66527, Note_on_c, 15, 49, 0
18, 66540, Note_on_c, 15, 45, 90
18, 66587, Note_on_c, 15, 45, 0
18, 66600, Note_on_c, 15, 44, 90
18, 66647, Note_on_c, 15, 44, 0
18, 66660, Note_on_c, 15, 40, 90
18, 66707, Note_on_c, 15, 40, 0
18, 66720, Note_on_c, 15, 40, 90
18, 66767, Note_on_c, 15, 40, 0
18, 66780, Note_on_c, 15, 44, 90
18, 66803, Note_on_c, 15, 44, 0
18, 66810, Note_on_c, 15, 42, 90
18, 66833, Note_on_c, 15, 42, 0
18, 66840, Note_on_c, 15, 44, 90
18, 66887, Note_on_c, 15, 44, 0
18, 66900, Note_on_c, 15, 40, 90
18, 66947, Note_on_c, 15, 40, 0
18, 66960, Note_on_c, 15, 45, 90
18, 67007, Note_on_c, 15, 45, 0
18, 67020, Note_on_c, 15, 57, 90
18, 67067, Note_on_c, 15, 57, 0
18, 67080, Note_on_c, 15, 57, 90
18, 67127, Note_on_c, 15, 57, 0
18, 67140, Note_on_c, 15, 57, 90
18, 67187, Note_on_c, 15, 57, 0
18, 67200, Note_on_c, 15, 57, 90
18, 67247, Note_on_c, 15, 57, 0
18, 67260, Note_on_c, 15, 57, 90
18, 67307, Note_on_c, 15, 57, 0
18, 67320, Note_on_c, 15, 57, 90
18, 67367, Note_on_c, 15, 57, 0
18, 67380, Note_on_c, 15, 45, 90
18, 67427, Note_on_c, 15, 45, 0
18, 67440, Note_on_c, 15, 45, 90
18, 67487, Note_on_c, 15, 45, 0
18, 67500, Note_on_c, 15, 49, 90
18, 67547, Note_on_c, 15, 49, 0
18, 67560, Note_on_c, 15, 52, 90
18, 67607, Note_on_c, 15, 52, 0
18, 67620, Note_on_c, 15, 40, 90
18, 67667, Note_on_c, 15, 40, 0
18, 67680, Note_on_c, 15, 45, 90
18, 67727, Note_on_c, 15, 45, 0
18, 67740, Note_on_c, 15, 57, 90
18, 67787, Note_on_c, 15, 57, 0
18, 67800, Note_on_c, 15, 57, 90
18, 67847, Note_on_c, 15, 57, 0
18, 67860, Note_on_c, 15, 57, 90
18, 67907, Note_on_c, 15, 57, 0
18, 67920, Note_on_c, 15, 57, 90
18, 67967, Note_on_c, 15, 57, 0
18, 67980, Note_on_c, 15, 57, 90
18, 68027, Note_on_c, 15, 57, 0
18, 68040, Note_on_c, 15, 57, 90
18, 68087, Note_on_c, 15, 57, 0
18, 68100, Note_on_c, 15, 45, 90
18, 68147, Note_on_c, 15, 45, 0
18, 68160, Note_on_c, 15, 45, 90
18, 68207, Note_on_c, 15, 45, 0
18, 68220, Note_on_c, 15, 49, 90
18, 68267, Note_on_c, 15, 49, 0
18, 68280, Note_on_c, 15, 52, 90
18, 68327, Note_on_c, 15, 52, 0
18, 68340, Note_on_c, 15, 40, 90
18, 68387, Note_on_c, 15, 40, 0
18, 68400, Note_on_c, 15, 45, 90
18, 68447, Note_on_c, 15, 45, 0
18, 68460, Note_on_c, 15, 57, 90
18, 68507, Note_on_c, 15, 57, 0
18, 68520, Note_on_c, 15, 57, 90
18, 68567, Note_on_c, 15, 57, 0
18, 68580, Note_on_c, 15, 45, 90
18, 68603, Note_on_c, 15, 45, 0
18, 68610, Note_on_c, 15, 47, 90
18, 68633, Note_on_c, 15, 47, 0
18, 68640, Note_on_c, 15, 45, 90
18, 68687, Note_on_c, 15, 45, 0
18, 68700, Note_on_c, 15, 43, 90
18, 68747, Note_on_c, 15, 43, 0
18, 68760, Note_on_c, 15, 42, 90
18, 68807, Note_on_c, 15, 42, 0
18, 68820, Note_on_c, 15, 54, 90
18, 68867, Note_on_c, 15, 54, 0
18, 68880, Note_on_c, 15, 54, 90
18, 68927, Note_on_c, 15, 54, 0
18, 68940, Note_on_c, 15, 42, 90
18, 68963, Note_on_c, 15, 42, 0
18, 68970, Note_on_c, 15, 40, 90
18, 68993, Note_on_c, 15, 40, 0
18, 69000, Note_on_c, 15, 42, 90
18, 69047, Note_on_c, 15, 42, 0
18, 69060, Note_on_c, 15, 38, 90
18, 69107, Note_on_c, 15, 38, 0
18, 69120, Note_on_c, 15, 37, 90
18, 69167, Note_on_c, 15, 37, 0
18, 69180, Note_on_c, 15, 57, 90
18, 69227, Note_on_c, 15, 57, 0
18, 69240, Note_on_c, 15, 57, 90
18, 69287, Note_on_c, 15, 57, 0
18, 69300, Note_on_c, 15, 49, 90
18, 69323, Note_on_c, 15, 49, 0
18, 69330, Note_on_c, 15, 47, 90
18, 69353, Note_on_c, 15, 47, 0
18, 69360, Note_on_c, 15, 49, 90
18, 69407, Note_on_c, 15, 49, 0
18, 69420, Note_on_c, 15, 45, 90
18, 69467, Note_on_c, 15, 45, 0
18, 69480, Note_on_c, 15, 50, 90
18, 69527, Note_on_c, 15, 50, 0
18, 69540, Note_on_c, 15, 62, 90
18, 69587, Note_on_c, 15, 62, 0
18, 69600, Note_on_c, 15, 62, 90
18, 69647, Note_on_c, 15, 62, 0
18, 69660, Note_on_c, 15, 62, 90
18, 69707, Note_on_c, 15, 62, 0
18, 69720, Note_on_c, 15, 62, 90
18, 69767, Note_on_c, 15, 62, 0
18, 69780, Note_on_c, 15, 62, 90
18, 69827, Note_on_c, 15, 62, 0
18, 69840, Note_on_c, 15, 50, 90
18, 69887, Note_on_c, 15, 50, 0
18, 69900, Note_on_c, 15, 62, 90
18, 69947, Note_on_c, 15, 62, 0
18, 69960, Note_on_c, 15, 62, 90
18, 70007, Note_on_c, 15, 62, 0
18, 70020, Note_on_c, 15, 50, 90
18, 70067, Note_on_c, 15, 50, 0
18, 70080, Note_on_c, 15, 49, 90
18, 70127, Note_on_c, 15, 49, 0
18, 70140, Note_on_c, 15, 47, 90
18, 70187, Note_on_c, 15, 47, 0
18, 70200, Note_on_c, 15, 49, 90
18, 70247, Note_on_c, 15, 49, 0
18, 70260, Note_on_c, 15, 61, 90
18, 70307, Note_on_c, 15, 61, 0
18, 70320, Note_on_c, 15, 61, 90
18, 70367, Note_on_c, 15, 61, 0
18, 70380, Note_on_c, 15, 61, 90
18, 70427, Note_on_c, 15, 61, 0
18, 70440, Note_on_c, 15, 61, 90
18, 70487, Note_on_c, 15, 61, 0
18, 70500, Note_on_c, 15, 61, 90
18, 70547, Note_on_c, 15, 61, 0
18, 70560, Note_on_c, 15, 49, 90
18, 70607, Note_on_c, 15, 49, 0
18, 70620, Note_on_c, 15, 61, 90
18, 70667, Note_on_c, 15, 61, 0
18, 70680, Note_on_c, 15, 61, 90
18, 70727, Note_on_c, 15, 61, 0
18, 70740, Note_on_c, 15, 49, 90
18, 70787, Note_on_c, 15, 49, 0
18, 70800, Note_on_c, 15, 47, 90
18, 70847, Note_on_c, 15, 47, 0
18, 70860, Note_on_c, 15, 45, 90
18, 70907, Note_on_c, 15, 45, 0
18, 70920, Note_on_c, 15, 47, 90
18, 70967, Note_on_c, 15, 47, 0
18, 70980, Note_on_c, 15, 59, 90
18, 71027, Note_on_c, 15, 59, 0
18, 71040, Note_on_c, 15, 59, 90
18, 71087, Note_on_c, 15, 59, 0
18, 71100, Note_on_c, 15, 45, 90
18, 71147, Note_on_c, 15, 45, 0
18, 71160, Note_on_c, 15, 44, 90
18, 71207, Note_on_c, 15, 44, 0
18, 71220, Note_on_c, 15, 42, 90
18, 71267, Note_on_c, 15, 42, 0
18, 71280, Note_on_c, 15, 44, 90
18, 71327, Note_on_c, 15, 44, 0
18, 71340, Note_on_c, 15, 56, 90
18, 71387, Note_on_c, 15, 56, 0
18, 71400, Note_on_c, 15, 56, 90
18, 71447, Note_on_c, 15, 56, 0
18, 71460, Note_on_c, 15, 44, 90
18, 71507, Note_on_c, 15, 44, 0
18, 71520, Note_on_c, 15, 42, 90
18, 71567, Note_on_c, 15, 42, 0
18, 71580, Note_on_c, 15, 40, 90
18, 71627, Note_on_c, 15, 40, 0
18, 71640, Note_on_c, 15, 45, 90
18, 71687, Note_on_c, 15, 45, 0
18, 71700, Note_on_c, 15, 54, 90
18, 71747, Note_on_c, 15, 54, 0
18, 71760, Note_on_c, 15, 49, 90
18, 71807, Note_on_c, 15, 49, 0
18, 71820, Note_on_c, 15, 47, 90
18, 71867, Note_on_c, 15, 47, 0
18, 71880, Note_on_c, 15, 49, 90
18, 71927, Note_on_c, 15, 49, 0
18, 71940, Note_on_c, 15, 50, 90
18, 71987, Note_on_c, 15, 50, 0
18, 72000, Note_on_c, 15, 52, 90
18, 72047, Note_on_c, 15, 52, 0
18, 72060, Note_on_c, 15, 40, 90
18, 72083, Note_on_c, 15, 40, 0
18, 72090, Note_on_c, 15, 38, 90
18, 72113, Note_on_c, 15, 38, 0
18, 72120, Note_on_c, 15, 40, 90
18, 72167, Note_on_c, 15, 40, 0
18, 72180, Note_on_c, 15, 44, 90
18, 72203, Note_on_c, 15, 44, 0
18, 72210, Note_on_c, 15, 42, 90
18, 72233, Note_on_c, 15, 42, 0
18, 72240, Note_on_c, 15, 44, 90
18, 72287, Note_on_c, 15, 44, 0
18, 72300, Note_on_c, 15, 40, 90
18, 72347, Note_on_c, 15, 40, 0
18, 72360, Note_on_c, 15, 45, 90
18, 72407, Note_on_c, 15, 45, 0
18, 72420, Note_on_c, 15, 44, 90
18, 72467, Note_on_c, 15, 44, 0
18, 72480, Note_on_c, 15, 42, 90
18, 72527, Note_on_c, 15, 42, 0
18, 72540, Note_on_c, 15, 44, 90
18, 72587, Note_on_c, 15, 44, 0
18, 72600, Note_on_c, 15, 45, 90
18, 72647, Note_on_c, 15, 45, 0
18, 72660, Note_on_c, 15, 49, 90
18, 72707, Note_on_c, 15, 49, 0
18, 72720, Note_on_c, 15, 50, 90
18, 72767, Note_on_c, 15, 50, 0
18, 72780, Note_on_c, 15, 49, 90
18, 72827, Note_on_c, 15, 49, 0
18, 72840, Note_on_c, 15, 47, 90
18, 72887, Note_on_c, 15, 47, 0
18, 72900, Note_on_c, 15, 44, 90
18, 72947, Note_on_c, 15, 44, 0
18, 72960, Note_on_c, 15, 49, 90
18, 73007, Note_on_c, 15, 49, 0
18, 73020, Note_on_c, 15, 45, 90
18, 73067, Note_on_c, 15, 45, 0
18, 73080, Note_on_c, 15, 54, 90
18, 73127, Note_on_c, 15, 54, 0
18, 73140, Note_on_c, 15, 50, 90
18, 73187, Note_on_c, 15, 50, 0
18, 73200, Note_on_c, 15, 47, 90
18, 73247, Note_on_c, 15, 47, 0
18, 73260, Note_on_c, 15, 42, 90
18, 73307, Note_on_c, 15, 42, 0
18, 73320, Note_on_c, 15, 44, 90
18, 73367, Note_on_c, 15, 44, 0
18, 73380, Note_on_c, 15, 45, 90
18, 73427, Note_on_c, 15, 45, 0
18, 73440, Note_on_c, 15, 40, 90
18, 73487, Note_on_c, 15, 40, 0
18, 73500, Note_on_c, 15, 52, 90
18, 73523, Note_on_c, 15, 52, 0
18, 73530, Note_on_c, 15, 54, 90
18, 73553, Note_on_c, 15, 54, 0
18, 73560, Note_on_c, 15, 56, 90
18, 73607, Note_on_c, 15, 56, 0
18, 73620, Note_on_c, 15, 59, 90
18, 73667, Note_on_c, 15, 59, 0
18, 73680, Note_on_c, 15, 56, 90
18, 73727, Note_on_c, 15, 56, 0
18, 73740, Note_on_c, 15, 52, 90
18, 73787, Note_on_c, 15, 52, 0
18, 73800, Note_on_c, 15, 57, 90
18, 73847, Note_on_c, 15, 57, 0
18, 73860, Note_on_c, 15, 45, 90
18, 73883, Note_on_c, 15, 45, 0
18, 73890, Note_on_c, 15, 47, 90
18, 73913, Note_on_c, 15, 47, 0
18, 73920, Note_on_c, 15, 49, 90
18, 73967, Note_on_c, 15, 49, 0
18, 73980, Note_on_c, 15, 52, 90
18, 74027, Note_on_c, 15, 52, 0
18, 74040, Note_on_c, 15, 49, 90
18, 74087, Note_on_c, 15, 49, 0
18, 74100, Note_on_c, 15, 45, 90
18, 74147, Note_on_c, 15, 45, 0
18, 74160, Note_on_c, 15, 38, 90
18, 74207, Note_on_c, 15, 38, 0
18, 74220, Note_on_c, 15, 50, 90
18, 74243, Note_on_c, 15, 50, 0
18, 74250, Note_on_c, 15, 52, 90
18, 74273, Note_on_c, 15, 52, 0
18, 74280, Note_on_c, 15, 54, 90
18, 74327, Note_on_c, 15, 54, 0
18, 74340, Note_on_c, 15, 57, 90
18, 74387, Note_on_c, 15, 57, 0
18, 74400, Note_on_c, 15, 54, 90
18, 74447, Note_on_c, 15, 54, 0
18, 74460, Note_on_c, 15, 50, 90
18, 74507, Note_on_c, 15, 50, 0
18, 74520, Note_on_c, 15, 55, 90
18, 74567, Note_on_c, 15, 55, 0
18, 74580, Note_on_c, 15, 54, 90
18, 74627, Note_on_c, 15, 54, 0
18, 74640, Note_on_c, 15, 52, 90
18, 74687, Note_on_c, 15, 52, 0
18, 74700, Note_on_c, 15, 50, 90
18, 74747, Note_on_c, 15, 50, 0
18, 74760, Note_on_c, 15, 49, 90
18, 74807, Note_on_c, 15, 49, 0
18, 74820, Note_on_c, 15, 50, 90
18, 74867, Note_on_c, 15, 50, 0
18, 74880, Note_on_c, 15, 57, 90
18, 74927, Note_on_c, 15, 57, 0
18, 74940, Note_on_c, 15, 45, 90
18, 74963, Note_on_c, 15, 45, 0
18, 74970, Note_on_c, 15, 47, 90
18, 74993, Note_on_c, 15, 47, 0
18, 75000, Note_on_c, 15, 49, 90
18, 75047, Note_on_c, 15, 49, 0
18, 75060, Note_on_c, 15, 52, 90
18, 75107, Note_on_c, 15, 52, 0
18, 75120, Note_on_c, 15, 49, 90
18, 75167, Note_on_c, 15, 49, 0
18, 75180, Note_on_c, 15, 45, 90
18, 75227, Note_on_c, 15, 45, 0
18, 75240, Note_on_c, 15, 50, 90
18, 75287, Note_on_c, 15, 50, 0
18, 75300, Note_on_c, 15, 49, 90
18, 75347, Note_on_c, 15, 49, 0
18, 75360, Note_on_c, 15, 47, 90
18, 75407, Note_on_c, 15, 47, 0
18, 75420, Note_on_c, 15, 45, 90
18, 75467, Note_on_c, 15, 45, 0
18, 75480, Note_on_c, 15, 44, 90
18, 75527, Note_on_c, 15, 44, 0
18, 75540, Note_on_c, 15, 45, 90
18, 75587, Note_on_c, 15, 45, 0
18, 75600, Note_on_c, 15, 52, 90
18, 75647, Note_on_c, 15, 52, 0
18, 75660, Note_on_c, 15, 40, 90
18, 75683, Note_on_c, 15, 40, 0
18, 75690, Note_on_c, 15, 42, 90
18, 75713, Note_on_c, 15, 42, 0
18, 75720, Note_on_c, 15, 44, 90
18, 75767, Note_on_c, 15, 44, 0
18, 75780, Note_on_c, 15, 47, 90
18, 75827, Note_on_c, 15, 47, 0
18, 75840, Note_on_c, 15, 44, 90
18, 75887, Note_on_c, 15, 44, 0
18, 75900, Note_on_c, 15, 40, 90
18, 75947, Note_on_c, 15, 40, 0
18, 75960, Note_on_c, 15, 45, 90
18, 76007, Note_on_c, 15, 45, 0
18, 76020, Note_on_c, 15, 57, 90
18, 76067, Note_on_c, 15, 57, 0
18, 76140, Note_on_c, 15, 49, 90
18, 76187, Note_on_c, 15, 49, 0
18, 76200, Note_on_c, 15, 45, 90
18, 76247, Note_on_c, 15, 45, 0
18, 76260, Note_on_c, 15, 49, 90
18, 76307, Note_on_c, 15, 49, 0
18, 76320, Note_on_c, 15, 50, 90
18, 76367, Note_on_c, 15, 50, 0
18, 76380, Note_on_c, 15, 62, 90
18, 76427, Note_on_c, 15, 62, 0
18, 76440, Note_on_c, 15, 57, 90
18, 76487, Note_on_c, 15, 57, 0
18, 76500, Note_on_c, 15, 54, 90
18, 76547, Note_on_c, 15, 54, 0
18, 76560, Note_on_c, 15, 50, 90
18, 76607, Note_on_c, 15, 50, 0
18, 76620, Note_on_c, 15, 49, 90
18, 76667, Note_on_c, 15, 49, 0
18, 76680, Note_on_c, 15, 51, 90
18, 76727, Note_on_c, 15, 51, 0
18, 76740, Note_on_c, 15, 47, 90
18, 76787, Note_on_c, 15, 47, 0
18, 76860, Note_on_c, 15, 47, 90
18, 76907, Note_on_c, 15, 47, 0
18, 76920, Note_on_c, 15, 51, 90
18, 76967, Note_on_c, 15, 51, 0
18, 76980, Note_on_c, 15, 47, 90
18, 77027, Note_on_c, 15, 47, 0
18, 77040, Note_on_c, 15, 52, 90
18, 77087, Note_on_c, 15, 52, 0
18, 77100, Note_on_c, 15, 64, 90
18, 77147, Note_on_c, 15, 64, 0
18, 77160, Note_on_c, 15, 59, 90
18, 77207, Note_on_c, 15, 59, 0
18, 77220, Note_on_c, 15, 56, 90
18, 77267, Note_on_c, 15, 56, 0
18, 77280, Note_on_c, 15, 52, 90
18, 77327, Note_on_c, 15, 52, 0
18, 77340, Note_on_c, 15, 47, 90
18, 77387, Note_on_c, 15, 47, 0
18, 77400, Note_on_c, 15, 52, 90
18, 77447, Note_on_c, 15, 52, 0
18, 77460, Note_on_c, 15, 40, 90
18, 77507, Note_on_c, 15, 40, 0
18, 77580, Note_on_c, 15, 52, 90
18, 77627, Note_on_c, 15, 52, 0
18, 77640, Note_on_c, 15, 56, 90
18, 77687, Note_on_c, 15, 56, 0
18, 77700, Note_on_c, 15, 59, 90
18, 77747, Note_on_c, 15, 59, 0
18, 77760, Note_on_c, 15, 61, 90
18, 77807, Note_on_c, 15, 61, 0
18, 77820, Note_on_c, 15, 57, 90
18, 77867, Note_on_c, 15, 57, 0
18, 77880, Note_on_c, 15, 61, 90
18, 77927, Note_on_c, 15, 61, 0
18, 77940, Note_on_c, 15, 57, 90
18, 77987, Note_on_c, 15, 57, 0
18, 78000, Note_on_c, 15, 61, 90
18, 78047, Note_on_c, 15, 61, 0
18, 78060, Note_on_c, 15, 57, 90
18, 78107, Note_on_c, 15, 57, 0
18, 78120, Note_on_c, 15, 62, 90
18, 78167, Note_on_c, 15, 62, 0
18, 78180, Note_on_c, 15, 54, 90
18, 78227, Note_on_c, 15, 54, 0
18, 78240, Note_on_c, 15, 54, 90
18, 78287, Note_on_c, 15, 54, 0
18, 78300, Note_on_c, 15, 50, 90
18, 78347, Note_on_c, 15, 50, 0
18, 78360, Note_on_c, 15, 50, 90
18, 78407, Note_on_c, 15, 50, 0
18, 78420, Note_on_c, 15, 57, 90
18, 78467, Note_on_c, 15, 57, 0
18, 78480, Note_on_c, 15, 57, 90
18, 78527, Note_on_c, 15, 57, 0
18, 78540, Note_on_c, 15, 45, 90
18, 78587, Note_on_c, 15, 45, 0
18, 78600, Note_on_c, 15, 45, 90
18, 78647, Note_on_c, 15, 45, 0
18, 78660, Note_on_c, 15, 42, 90
18, 78707, Note_on_c, 15, 42, 0
18, 78720, Note_on_c, 15, 42, 90
18, 78767, Note_on_c, 15, 42, 0
18, 78780, Note_on_c, 15, 47, 90
18, 78827, Note_on_c, 15, 47, 0
18, 78840, Note_on_c, 15, 47, 90
18, 78887, Note_on_c, 15, 47, 0
18, 78900, Note_on_c, 15, 52, 90
18, 78947, Note_on_c, 15, 52, 0
18, 78960, Note_on_c, 15, 52, 90
18, 79007, Note_on_c, 15, 52, 0
18, 79020, Note_on_c, 15, 44, 90
18, 79067, Note_on_c, 15, 44, 0
18, 79080, Note_on_c, 15, 44, 90
18, 79127, Note_on_c, 15, 44, 0
18, 79140, Note_on_c, 15, 40, 90
18, 79187, Note_on_c, 15, 40, 0
18, 79200, Note_on_c, 15, 45, 90
18, 79247, Note_on_c, 15, 45, 0
18, 79260, Note_on_c, 15, 44, 90
18, 79283, Note_on_c, 15, 44, 0
18, 79290, Note_on_c, 15, 45, 90
18, 79313, Note_on_c, 15, 45, 0
18, 79320, Note_on_c, 15, 47, 90
18, 79367, Note_on_c, 15, 47, 0
18, 79380, Note_on_c, 15, 45, 90
18, 79403, Note_on_c, 15, 45, 0
18, 79410, Note_on_c, 15, 47, 90
18, 79433, Note_on_c, 15, 47, 0
18, 79440, Note_on_c, 15, 49, 90
18, 79487, Note_on_c, 15, 49, 0
18, 79500, Note_on_c, 15, 47, 90
18, 79523, Note_on_c, 15, 47, 0
18, 79530, Note_on_c, 15, 49, 90
18, 79553, Note_on_c, 15, 49, 0
18, 79560, Note_on_c, 15, 50, 90
18, 79607, Note_on_c, 15, 50, 0
18, 79620, Note_on_c, 15, 49, 90
18, 79643, Note_on_c, 15, 49, 0
18, 79650, Note_on_c, 15, 50, 90
18, 79673, Note_on_c, 15, 50, 0
18, 79680, Note_on_c, 15, 52, 90
18, 79727, Note_on_c, 15, 52, 0
18, 79740, Note_on_c, 15, 50, 90
18, 79763, Note_on_c, 15, 50, 0
18, 79770, Note_on_c, 15, 52, 90
18, 79793, Note_on_c, 15, 52, 0
18, 79800, Note_on_c, 15, 54, 90
18, 79847, Note_on_c, 15, 54, 0
18, 79860, Note_on_c, 15, 52, 90
18, 79883, Note_on_c, 15, 52, 0
18, 79890, Note_on_c, 15, 54, 90
18, 79913, Note_on_c, 15, 54, 0
18, 79920, Note_on_c, 15, 56, 90
18, 79967, Note_on_c, 15, 56, 0
18, 79980, Note_on_c, 15, 52, 90
18, 80027, Note_on_c, 15, 52, 0
18, 80040, Note_on_c, 15, 57, 90
18, 80087, Note_on_c, 15, 57, 0
18, 80100, Note_on_c, 15, 49, 90
18, 80123, Note_on_c, 15, 49, 0
18, 80130, Note_on_c, 15, 50, 90
18, 80153, Note_on_c, 15, 50, 0
18, 80160, Note_on_c, 15, 52, 90
18, 80207, Note_on_c, 15, 52, 0
18, 80220, Note_on_c, 15, 40, 90
18, 80267, Note_on_c, 15, 40, 0
18, 80280, Note_on_c, 15, 45, 90
18, 80400, Note_on_c, 15, 45, 0
18, 80640, Note_on_c, 15, 42, 100
18, 81600, Note_on_c, 15, 42, 0
18, 81600, Note_on_c, 15, 44, 100
18, 82080, Note_on_c, 15, 44, 0
18, 82080, Note_on_c, 15, 46, 100
18, 83280, Note_on_c, 15, 46, 0
18, 83280, Note_on_c, 15, 47, 100
18, 83400, Note_on_c, 15, 47, 0
18, 83400, Note_on_c, 15, 50, 100
18, 83520, Note_on_c, 15, 50, 0
18, 83640, Note_on_c, 15, 54, 90
18, 83759, Note_on_c, 15, 54, 0
18, 83760, Note_on_c, 15, 47, 90
18, 83879, Note_on_c, 15, 47, 0
18, 84000, Note_on_c, 15, 46, 90
18, 84119, Note_on_c, 15, 46, 0
18, 84180, Note_on_c, 15, 42, 90
18, 84239, Note_on_c, 15, 42, 0
18, 84240, Note_on_c, 15, 47, 90
18, 84359, Note_on_c, 15, 47, 0
18, 84420, Note_on_c, 15, 59, 90
18, 84479, Note_on_c, 15, 59, 0
18, 84480, Note_on_c, 15, 55, 90
18, 84539, Note_on_c, 15, 55, 0
18, 84540, Note_on_c, 15, 55, 90
18, 84599, Note_on_c, 15, 55, 0
18, 84600, Note_on_c, 15, 59, 90
18, 84659, Note_on_c, 15, 59, 0
18, 84660, Note_on_c, 15, 55, 90
18, 84719, Note_on_c, 15, 55, 0
18, 84720, Note_on_c, 15, 52, 90
18, 84779, Note_on_c, 15, 52, 0
18, 84780, Note_on_c, 15, 52, 90
18, 84839, Note_on_c, 15, 52, 0
18, 84840, Note_on_c, 15, 52, 90
18, 84899, Note_on_c, 15, 52, 0
18, 84900, Note_on_c, 15, 54, 90
18, 84929, Note_on_c, 15, 54, 0
18, 84930, Note_on_c, 15, 55, 90
18, 84959, Note_on_c, 15, 55, 0
18, 84960, Note_on_c, 15, 57, 90
18, 85019, Note_on_c, 15, 57, 0
18, 85020, Note_on_c, 15, 45, 90
18, 85079, Note_on_c, 15, 45, 0
18, 85140, Note_on_c, 15, 57, 90
18, 85199, Note_on_c, 15, 57, 0
18, 85200, Note_on_c, 15, 54, 90
18, 85259, Note_on_c, 15, 54, 0
18, 85260, Note_on_c, 15, 54, 90
18, 85319, Note_on_c, 15, 54, 0
18, 85320, Note_on_c, 15, 57, 90
18, 85379, Note_on_c, 15, 57, 0
18, 85380, Note_on_c, 15, 54, 90
18, 85439, Note_on_c, 15, 54, 0
18, 85440, Note_on_c, 15, 50, 90
18, 85499, Note_on_c, 15, 50, 0
18, 85500, Note_on_c, 15, 50, 90
18, 85559, Note_on_c, 15, 50, 0
18, 85560, Note_on_c, 15, 50, 90
18, 85619, Note_on_c, 15, 50, 0
18, 85620, Note_on_c, 15, 52, 90
18, 85649, Note_on_c, 15, 52, 0
18, 85650, Note_on_c, 15, 54, 90
18, 85679, Note_on_c, 15, 54, 0
18, 85680, Note_on_c, 15, 55, 90
18, 85739, Note_on_c, 15, 55, 0
18, 85740, Note_on_c, 15, 43, 90
18, 85799, Note_on_c, 15, 43, 0
18, 85860, Note_on_c, 15, 60, 90
18, 85919, Note_on_c, 15, 60, 0
18, 85920, Note_on_c, 15, 51, 80
18, 86279, Note_on_c, 15, 51, 0
18, 86280, Note_on_c, 15, 47, 80
18, 86399, Note_on_c, 15, 47, 0
18, 86400, Note_on_c, 15, 52, 80
18, 86639, Note_on_c, 15, 52, 0
18, 86640, Note_on_c, 15, 45, 80
18, 86879, Note_on_c, 15, 45, 0
18, 86880, Note_on_c, 15, 48, 80
18, 87119, Note_on_c, 15, 48, 0
18, 87240, Note_on_c, 15, 47, 90
18, 87359, Note_on_c, 15, 47, 0
18, 87360, Note_on_c, 15, 40, 90
18, 87419, Note_on_c, 15, 40, 0
18, 87420, Note_on_c, 15, 52, 90
18, 87479, Note_on_c, 15, 52, 0
18, 87480, Note_on_c, 15, 52, 90
18, 87539, Note_on_c, 15, 52, 0
18, 87540, Note_on_c, 15, 54, 90
18, 87599, Note_on_c, 15, 54, 0
18, 87600, Note_on_c, 15, 55, 90
18, 87659, Note_on_c, 15, 55, 0
18, 87660, Note_on_c, 15, 55, 90
18, 87719, Note_on_c, 15, 55, 0
18, 87720, Note_on_c, 15, 55, 90
18, 87779, Note_on_c, 15, 55, 0
18, 87780, Note_on_c, 15, 57, 90
18, 87839, Note_on_c, 15, 57, 0
18, 87840, Note_on_c, 15, 59, 90
18, 87899, Note_on_c, 15, 59, 0
18, 87900, Note_on_c, 15, 47, 90
18, 87959, Note_on_c, 15, 47, 0
18, 87960, Note_on_c, 15, 45, 90
18, 88019, Note_on_c, 15, 45, 0
18, 88020, Note_on_c, 15, 43, 90
18, 88079, Note_on_c, 15, 43, 0
18, 88080, Note_on_c, 15, 42, 90
18, 88139, Note_on_c, 15, 42, 0
18, 88140, Note_on_c, 15, 54, 90
18, 88199, Note_on_c, 15, 54, 0
18, 88200, Note_on_c, 15, 52, 90
18, 88259, Note_on_c, 15, 52, 0
18, 88260, Note_on_c, 15, 50, 90
18, 88319, Note_on_c, 15, 50, 0
18, 88320, Note_on_c, 15, 57, 90
18, 88379, Note_on_c, 15, 57, 0
18, 88380, Note_on_c, 15, 45, 90
18, 88439, Note_on_c, 15, 45, 0
18, 88440, Note_on_c, 15, 43, 90
18, 88499, Note_on_c, 15, 43, 0
18, 88500, Note_on_c, 15, 42, 90
18, 88559, Note_on_c, 15, 42, 0
18, 88560, Note_on_c, 15, 40, 90
18, 88619, Note_on_c, 15, 40, 0
18, 88620, Note_on_c, 15, 47, 90
18, 88679, Note_on_c, 15, 47, 0
18, 88680, Note_on_c, 15, 47, 90
18, 88739, Note_on_c, 15, 47, 0
18, 88740, Note_on_c, 15, 49, 90
18, 88799, Note_on_c, 15, 49, 0
18, 88800, Note_on_c, 15, 50, 90
18, 88859, Note_on_c, 15, 50, 0
18, 88860, Note_on_c, 15, 50, 90
18, 88919, Note_on_c, 15, 50, 0
18, 88920, Note_on_c, 15, 49, 90
18, 88979, Note_on_c, 15, 49, 0
18, 88980, Note_on_c, 15, 47, 90
18, 89039, Note_on_c, 15, 47, 0
18, 89040, Note_on_c, 15, 49, 90
18, 89099, Note_on_c, 15, 49, 0
18, 89100, Note_on_c, 15, 49, 90
18, 89159, Note_on_c, 15, 49, 0
18, 89160, Note_on_c, 15, 49, 90
18, 89219, Note_on_c, 15, 49, 0
18, 89220, Note_on_c, 15, 51, 90
18, 89279, Note_on_c, 15, 51, 0
18, 89280, Note_on_c, 15, 52, 90
18, 89339, Note_on_c, 15, 52, 0
18, 89340, Note_on_c, 15, 50, 90
18, 89399, Note_on_c, 15, 50, 0
18, 89400, Note_on_c, 15, 49, 90
18, 89519, Note_on_c, 15, 49, 0
18, 89520, Note_on_c, 15, 47, 90
18, 89579, Note_on_c, 15, 47, 0
18, 89580, Note_on_c, 15, 59, 90
18, 89639, Note_on_c, 15, 59, 0
18, 89640, Note_on_c, 15, 57, 90
18, 89699, Note_on_c, 15, 57, 0
18, 89700, Note_on_c, 15, 56, 90
18, 89759, Note_on_c, 15, 56, 0
18, 89760, Note_on_c, 15, 54, 90
18, 89819, Note_on_c, 15, 54, 0
18, 89820, Note_on_c, 15, 42, 90
18, 89879, Note_on_c, 15, 42, 0
18, 89880, Note_on_c, 15, 47, 90
18, 89939, Note_on_c, 15, 47, 0
18, 89940, Note_on_c, 15, 45, 90
18, 89999, Note_on_c, 15, 45, 0
18, 90000, Note_on_c, 15, 43, 90
18, 90059, Note_on_c, 15, 43, 0
18, 90060, Note_on_c, 15, 42, 90
18, 90119, Note_on_c, 15, 42, 0
18, 90120, Note_on_c, 15, 40, 90
18, 90179, Note_on_c, 15, 40, 0
18, 90180, Note_on_c, 15, 52, 90
18, 90239, Note_on_c, 15, 52, 0
18, 90240, Note_on_c, 15, 50, 90
18, 90299, Note_on_c, 15, 50, 0
18, 90300, Note_on_c, 15, 49, 90
18, 90359, Note_on_c, 15, 49, 0
18, 90360, Note_on_c, 15, 47, 90
18, 90419, Note_on_c, 15, 47, 0
18, 90420, Note_on_c, 15, 49, 90
18, 90479, Note_on_c, 15, 49, 0
18, 90480, Note_on_c, 15, 42, 90
18, 90599, Note_on_c, 15, 42, 0
18, 90720, Note_on_c, 15, 54, 90
18, 90779, Note_on_c, 15, 54, 0
18, 90780, Note_on_c, 15, 52, 90
18, 90839, Note_on_c, 15, 52, 0
18, 90840, Note_on_c, 15, 50, 90
18, 91019, Note_on_c, 15, 50, 0
18, 91020, Note_on_c, 15, 49, 90
18, 91079, Note_on_c, 15, 49, 0
18, 91080, Note_on_c, 15, 47, 90
18, 91139, Note_on_c, 15, 47, 0
18, 91140, Note_on_c, 15, 52, 90
18, 91199, Note_on_c, 15, 52, 0
18, 91200, Note_on_c, 15, 57, 90
18, 91259, Note_on_c, 15, 57, 0
18, 91260, Note_on_c, 15, 45, 90
18, 91319, Note_on_c, 15, 45, 0
18, 91320, Note_on_c, 15, 57, 90
18, 91379, Note_on_c, 15, 57, 0
18, 91380, Note_on_c, 15, 55, 90
18, 91439, Note_on_c, 15, 55, 0
18, 91440, Note_on_c, 15, 54, 90
18, 91499, Note_on_c, 15, 54, 0
18, 91500, Note_on_c, 15, 52, 90
18, 91559, Note_on_c, 15, 52, 0
18, 91560, Note_on_c, 15, 50, 90
18, 91619, Note_on_c, 15, 50, 0
18, 91620, Note_on_c, 15, 52, 90
18, 91649, Note_on_c, 15, 52, 0
18, 91650, Note_on_c, 15, 54, 90
18, 91679, Note_on_c, 15, 54, 0
18, 91680, Note_on_c, 15, 55, 90
18, 91739, Note_on_c, 15, 55, 0
18, 91740, Note_on_c, 15, 57, 90
18, 91799, Note_on_c, 15, 57, 0
18, 91800, Note_on_c, 15, 55, 90
18, 91859, Note_on_c, 15, 55, 0
18, 91860, Note_on_c, 15, 54, 90
18, 91919, Note_on_c, 15, 54, 0
18, 91920, Note_on_c, 15, 52, 90
18, 92039, Note_on_c, 15, 52, 0
18, 92040, Note_on_c, 15, 50, 90
18, 92099, Note_on_c, 15, 50, 0
18, 92100, Note_on_c, 15, 47, 90
18, 92159, Note_on_c, 15, 47, 0
18, 92160, Note_on_c, 15, 43, 90
18, 92399, Note_on_c, 15, 43, 0
18, 92400, Note_on_c, 15, 42, 80
18, 92519, Note_on_c, 15, 42, 0
18, 92520, Note_on_c, 15, 46, 80
18, 93120, Note_on_c, 15, 46, 0
18, 93120, Note_on_c, 15, 47, 80
18, 93359, Note_on_c, 15, 47, 0
18, 93360, Note_on_c, 15, 52, 80
18, 93479, Note_on_c, 15, 52, 0
18, 93480, Note_on_c, 15, 45, 80
18, 93599, Note_on_c, 15, 45, 0
18, 93600, Note_on_c, 15, 50, 80
18, 94320, Note_on_c, 15, 50, 0
18, 94320, Note_on_c, 15, 51, 80
18, 94679, Note_on_c, 15, 51, 0
18, 94680, Note_on_c, 15, 47, 80
18, 94799, Note_on_c, 15, 47, 0
18, 94800, Note_on_c, 15, 52, 80
18, 95039, Note_on_c, 15, 52, 0
18, 95040, Note_on_c, 15, 50, 80
18, 95279, Note_on_c, 15, 50, 0
18, 95280, Note_on_c, 15, 49, 80
18, 95519, Note_on_c, 15, 49, 0
18, 95520, Note_on_c, 15, 47, 80
18, 96239, Note_on_c, 15, 47, 0
18, 96240, Note_on_c, 15, 45, 80
18, 96479, Note_on_c, 15, 45, 0
18, 96480, Note_on_c, 15, 44, 80
18, 96599, Note_on_c, 15, 44, 0
18, 96600, Note_on_c, 15, 42, 80
18, 96719, Note_on_c, 15, 42, 0
18, 96720, Note_on_c, 15, 41, 80
18, 96839, Note_on_c, 15, 41, 0
18, 96840, Note_on_c, 15, 42, 80
18, 96959, Note_on_c, 15, 42, 0
18, 96960, Note_on_c, 15, 38, 80
18, 97079, Note_on_c, 15, 38, 0
18, 97080, Note_on_c, 15, 50, 80
18, 97199, Note_on_c, 15, 50, 0
18, 97200, Note_on_c, 15, 49, 80
18, 97439, Note_on_c, 15, 49, 0
18, 97800, Note_on_c, 15, 54, 90
18, 97919, Note_on_c, 15, 54, 0
18, 97920, Note_on_c, 15, 61, 90
18, 98039, Note_on_c, 15, 61, 0
18, 98040, Note_on_c, 15, 59, 90
18, 98099, Note_on_c, 15, 59, 0
18, 98100, Note_on_c, 15, 57, 90
18, 98159, Note_on_c, 15, 57, 0
18, 98160, Note_on_c, 15, 56, 90
18, 98279, Note_on_c, 15, 56, 0
18, 98280, Note_on_c, 15, 57, 90
18, 98459, Note_on_c, 15, 57, 0
18, 98460, Note_on_c, 15, 55, 90
18, 98519, Note_on_c, 15, 55, 0
18, 98520, Note_on_c, 15, 54, 90
18, 98579, Note_on_c, 15, 54, 0
18, 98580, Note_on_c, 15, 52, 90
18, 98639, Note_on_c, 15, 52, 0
18, 98640, Note_on_c, 15, 54, 90
18, 98699, Note_on_c, 15, 54, 0
18, 98700, Note_on_c, 15, 50, 90
18, 98759, Note_on_c, 15, 50, 0
18, 98760, Note_on_c, 15, 52, 90
18, 98819, Note_on_c, 15, 52, 0
18, 98820, Note_on_c, 15, 40, 90
18, 98879, Note_on_c, 15, 40, 0
18, 98880, Note_on_c, 15, 45, 90
18, 99119, Note_on_c, 15, 45, 0
18, 99240, Note_on_c, 15, 50, 90
18, 99359, Note_on_c, 15, 50, 0
18, 99360, Note_on_c, 15, 51, 90
18, 99419, Note_on_c, 15, 51, 0
18, 99420, Note_on_c, 15, 52, 90
18, 99539, Note_on_c, 15, 52, 0
18, 99540, Note_on_c, 15, 53, 90
18, 99659, Note_on_c, 15, 53, 0
18, 99660, Note_on_c, 15, 54, 90
18, 99719, Note_on_c, 15, 54, 0
18, 99720, Note_on_c, 15, 56, 90
18, 99779, Note_on_c, 15, 56, 0
18, 99780, Note_on_c, 15, 57, 90
18, 99839, Note_on_c, 15, 57, 0
18, 99840, Note_on_c, 15, 56, 90
18, 99899, Note_on_c, 15, 56, 0
18, 99900, Note_on_c, 15, 52, 90
18, 99959, Note_on_c, 15, 52, 0
18, 99960, Note_on_c, 15, 59, 90
18, 100019, Note_on_c, 15, 59, 0
18, 100020, Note_on_c, 15, 47, 90
18, 100079, Note_on_c, 15, 47, 0
18, 100080, Note_on_c, 15, 52, 90
18, 100175, Note_on_c, 15, 52, 0
18, 100200, Note_on_c, 15, 57, 90
18, 100259, Note_on_c, 15, 57, 0
18, 100260, Note_on_c, 15, 56, 90
18, 100319, Note_on_c, 15, 56, 0
18, 100320, Note_on_c, 15, 54, 90
18, 100379, Note_on_c, 15, 54, 0
18, 100380, Note_on_c, 15, 52, 90
18, 100439, Note_on_c, 15, 52, 0
18, 100440, Note_on_c, 15, 50, 90
18, 100499, Note_on_c, 15, 50, 0
18, 100500, Note_on_c, 15, 49, 90
18, 100559, Note_on_c, 15, 49, 0
18, 100560, Note_on_c, 15, 47, 90
18, 100679, Note_on_c, 15, 47, 0
18, 100680, Note_on_c, 15, 52, 90
18, 100739, Note_on_c, 15, 52, 0
18, 100740, Note_on_c, 15, 50, 90
18, 100799, Note_on_c, 15, 50, 0
18, 100800, Note_on_c, 15, 49, 90
18, 100859, Note_on_c, 15, 49, 0
18, 100860, Note_on_c, 15, 47, 90
18, 100919, Note_on_c, 15, 47, 0
18, 100920, Note_on_c, 15, 45, 90
18, 101039, Note_on_c, 15, 45, 0
18, 101040, Note_on_c, 15, 52, 90
18, 101135, Note_on_c, 15, 52, 0
18, 101160, Note_on_c, 15, 45, 90
18, 101279, Note_on_c, 15, 45, 0
18, 101280, Note_on_c, 15, 50, 90
18, 101339, Note_on_c, 15, 50, 0
18, 101340, Note_on_c, 15, 52, 90
18, 101399, Note_on_c, 15, 52, 0
18, 101400, Note_on_c, 15, 50, 90
18, 101459, Note_on_c, 15, 50, 0
18, 101460, Note_on_c, 15, 49, 90
18, 101519, Note_on_c, 15, 49, 0
18, 101520, Note_on_c, 15, 47, 90
18, 101615, Note_on_c, 15, 47, 0
18, 101640, Note_on_c, 15, 54, 90
18, 101759, Note_on_c, 15, 54, 0
18, 101760, Note_on_c, 15, 55, 90
18, 101819, Note_on_c, 15, 55, 0
18, 101820, Note_on_c, 15, 54, 90
18, 101879, Note_on_c, 15, 54, 0
18, 101880, Note_on_c, 15, 52, 90
18, 101999, Note_on_c, 15, 52, 0
18, 102000, Note_on_c, 15, 50, 90
18, 102095, Note_on_c, 15, 50, 0
18, 102120, Note_on_c, 15, 45, 90
18, 102239, Note_on_c, 15, 45, 0
18, 102240, Note_on_c, 15, 52, 90
18, 102539, Note_on_c, 15, 52, 0
18, 102540, Note_on_c, 15, 54, 90
18, 102599, Note_on_c, 15, 54, 0
18, 102600, Note_on_c, 15, 56, 90
18, 102659, Note_on_c, 15, 56, 0
18, 102660, Note_on_c, 15, 52, 90
18, 102719, Note_on_c, 15, 52, 0
18, 102720, Note_on_c, 15, 57, 90
18, 102779, Note_on_c, 15, 57, 0
18, 102780, Note_on_c, 15, 56, 90
18, 102839, Note_on_c, 15, 56, 0
18, 102840, Note_on_c, 15, 54, 90
18, 102899, Note_on_c, 15, 54, 0
18, 102900, Note_on_c, 15, 52, 90
18, 102959, Note_on_c, 15, 52, 0
18, 102960, Note_on_c, 15, 50, 90
18, 103019, Note_on_c, 15, 50, 0
18, 103020, Note_on_c, 15, 47, 90
18, 103079, Note_on_c, 15, 47, 0
18, 103080, Note_on_c, 15, 52, 90
18, 103199, Note_on_c, 15, 52, 0
18, 103200, Note_on_c, 15, 45, 90
18, 103559, Note_on_c, 15, 45, 0
18, 103830, Control_c, 15, 0, 20
18, 103830, Program_c, 15, 70
18, 103860, Note_on_c, 15, 54, 110
18, 103889, Note_on_c, 15, 54, 0
18, 103890, Note_on_c, 15, 56, 110
18, 103919, Note_on_c, 15, 56, 0
18, 103920, Note_on_c, 15, 57, 110
18, 103979, Note_on_c, 15, 57, 0
18, 103980, Note_on_c, 15, 56, 110
18, 104039, Note_on_c, 15, 56, 0
18, 104040, Note_on_c, 15, 57, 110
18, 104099, Note_on_c, 15, 57, 0
18, 104100, Note_on_c, 15, 54, 110
18, 104159, Note_on_c, 15, 54, 0
18, 104160, Note_on_c, 15, 61, 110
18, 104279, Note_on_c, 15, 61, 0
18, 104340, Note_on_c, 15, 57, 110
18, 104399, Note_on_c, 15, 57, 0
18, 104400, Note_on_c, 15, 62, 110
18, 104459, Note_on_c, 15, 62, 0
18, 104460, Note_on_c, 15, 59, 110
18, 104519, Note_on_c, 15, 59, 0
18, 104520, Note_on_c, 15, 57, 110
18, 104579, Note_on_c, 15, 57, 0
18, 104580, Note_on_c, 15, 56, 110
18, 104639, Note_on_c, 15, 56, 0
18, 104640, Note_on_c, 15, 57, 110
18, 104699, Note_on_c, 15, 57, 0
18, 104700, Note_on_c, 15, 61, 110
18, 104759, Note_on_c, 15, 61, 0
18, 104760, Note_on_c, 15, 57, 110
18, 104819, Note_on_c, 15, 57, 0
18, 104820, Note_on_c, 15, 54, 110
18, 104879, Note_on_c, 15, 54, 0
18, 104880, Note_on_c, 15, 59, 110
18, 104909, Note_on_c, 15, 59, 0
18, 104940, Note_on_c, 15, 59, 110
18, 104969, Note_on_c, 15, 59, 0
18, 105000, Note_on_c, 15, 59, 110
18, 105029, Note_on_c, 15, 59, 0
18, 105060, Note_on_c, 15, 59, 110
18, 105089, Note_on_c, 15, 59, 0
18, 105120, Note_on_c, 15, 59, 110
18, 105149, Note_on_c, 15, 59, 0
18, 105150, Note_on_c, 15, 62, 110
18, 105179, Note_on_c, 15, 62, 0
18, 105180, Note_on_c, 15, 61, 110
18, 105209, Note_on_c, 15, 61, 0
18, 105210, Note_on_c, 15, 59, 110
18, 105239, Note_on_c, 15, 59, 0
18, 105240, Note_on_c, 15, 57, 110
18, 105269, Note_on_c, 15, 57, 0
18, 105270, Note_on_c, 15, 61, 110
18, 105299, Note_on_c, 15, 61, 0
18, 105300, Note_on_c, 15, 59, 110
18, 105329, Note_on_c, 15, 59, 0
18, 105330, Note_on_c, 15, 57, 110
18, 105359, Note_on_c, 15, 57, 0
18, 105360, Note_on_c, 15, 56, 110
18, 105419, Note_on_c, 15, 56, 0
18, 105420, Note_on_c, 15, 54, 110
18, 105479, Note_on_c, 15, 54, 0
18, 105480, Note_on_c, 15, 53, 110
18, 105539, Note_on_c, 15, 53, 0
18, 105540, Note_on_c, 15, 54, 110
18, 105599, Note_on_c, 15, 54, 0
18, 105600, Note_on_c, 15, 49, 110
18, 105659, Note_on_c, 15, 49, 0
18, 105660, Note_on_c, 15, 51, 110
18, 105719, Note_on_c, 15, 51, 0
18, 105720, Note_on_c, 15, 53, 110
18, 105779, Note_on_c, 15, 53, 0
18, 105780, Note_on_c, 15, 49, 110
18, 105839, Note_on_c, 15, 49, 0
18, 105840, Note_on_c, 15, 54, 110
18, 105899, Note_on_c, 15, 54, 0
18, 105900, Note_on_c, 15, 42, 110
18, 105959, Note_on_c, 15, 42, 0
18, 106020, Note_on_c, 15, 54, 110
18, 106079, Note_on_c, 15, 54, 0
18, 106080, Note_on_c, 15, 56, 110
18, 106139, Note_on_c, 15, 56, 0
18, 106140, Note_on_c, 15, 59, 110
18, 106199, Note_on_c, 15, 59, 0
18, 106200, Note_on_c, 15, 56, 110
18, 106259, Note_on_c, 15, 56, 0
18, 106260, Note_on_c, 15, 52, 110
18, 106319, Note_on_c, 15, 52, 0
18, 106320, Note_on_c, 15, 57, 110
18, 106379, Note_on_c, 15, 57, 0
18, 106380, Note_on_c, 15, 54, 110
18, 106439, Note_on_c, 15, 54, 0
18, 106440, Note_on_c, 15, 50, 110
18, 106499, Note_on_c, 15, 50, 0
18, 106500, Note_on_c, 15, 52, 110
18, 106559, Note_on_c, 15, 52, 0
18, 106560, Note_on_c, 15, 45, 110
18, 106619, Note_on_c, 15, 45, 0
18, 106620, Note_on_c, 15, 57, 110
18, 106649, Note_on_c, 15, 57, 0
18, 106650, Note_on_c, 15, 59, 110
18, 106679, Note_on_c, 15, 59, 0
18, 106680, Note_on_c, 15, 61, 110
18, 106739, Note_on_c, 15, 61, 0
18, 106740, Note_on_c, 15, 57, 110
18, 106799, Note_on_c, 15, 57, 0
18, 106800, Note_on_c, 15, 56, 110
18, 106829, Note_on_c, 15, 56, 0
18, 106830, Note_on_c, 15, 64, 110
18, 106859, Note_on_c, 15, 64, 0
18, 106860, Note_on_c, 15, 62, 110
18, 106889, Note_on_c, 15, 62, 0
18, 106890, Note_on_c, 15, 59, 110
18, 106919, Note_on_c, 15, 59, 0
18, 106920, Note_on_c, 15, 57, 110
18, 106949, Note_on_c, 15, 57, 0
18, 106950, Note_on_c, 15, 64, 110
18, 106979, Note_on_c, 15, 64, 0
18, 106980, Note_on_c, 15, 61, 110
18, 107009, Note_on_c, 15, 61, 0
18, 107010, Note_on_c, 15, 57, 110
18, 107039, Note_on_c, 15, 57, 0
18, 107040, Note_on_c, 15, 56, 110
18, 107069, Note_on_c, 15, 56, 0
18, 107070, Note_on_c, 15, 64, 110
18, 107099, Note_on_c, 15, 64, 0
18, 107100, Note_on_c, 15, 59, 110
18, 107129, Note_on_c, 15, 59, 0
18, 107130, Note_on_c, 15, 56, 110
18, 107159, Note_on_c, 15, 56, 0
18, 107160, Note_on_c, 15, 52, 110
18, 107309, Note_on_c, 15, 52, 0
18, 107310, Note_on_c, 15, 64, 110
18, 107339, Note_on_c, 15, 64, 0
18, 107340, Note_on_c, 15, 61, 110
18, 107369, Note_on_c, 15, 61, 0
18, 107370, Note_on_c, 15, 59, 110
18, 107399, Note_on_c, 15, 59, 0
18, 107400, Note_on_c, 15, 58, 110
18, 107429, Note_on_c, 15, 58, 0
18, 107430, Note_on_c, 15, 64, 110
18, 107459, Note_on_c, 15, 64, 0
18, 107460, Note_on_c, 15, 61, 110
18, 107489, Note_on_c, 15, 61, 0
18, 107490, Note_on_c, 15, 58, 110
18, 107519, Note_on_c, 15, 58, 0
18, 107520, Note_on_c, 15, 54, 110
18, 107549, Note_on_c, 15, 54, 0
18, 107550, Note_on_c, 15, 64, 110
18, 107579, Note_on_c, 15, 64, 0
18, 107580, Note_on_c, 15, 61, 110
18, 107609, Note_on_c, 15, 61, 0
18, 107610, Note_on_c, 15, 58, 110
18, 107639, Note_on_c, 15, 58, 0
18, 107640, Note_on_c, 15, 52, 110
18, 107669, Note_on_c, 15, 52, 0
18, 107670, Note_on_c, 15, 61, 110
18, 107699, Note_on_c, 15, 61, 0
18, 107700, Note_on_c, 15, 58, 110
18, 107729, Note_on_c, 15, 58, 0
18, 107730, Note_on_c, 15, 54, 110
18, 107759, Note_on_c, 15, 54, 0
18, 107760, Note_on_c, 15, 50, 110
18, 107819, Note_on_c, 15, 50, 0
18, 107820, Note_on_c, 15, 55, 110
18, 107879, Note_on_c, 15, 55, 0
18, 107880, Note_on_c, 15, 52, 110
18, 107939, Note_on_c, 15, 52, 0
18, 107940, Note_on_c, 15, 54, 110
18, 107999, Note_on_c, 15, 54, 0
18, 108000, Note_on_c, 15, 47, 110
18, 108059, Note_on_c, 15, 47, 0
18, 108060, Note_on_c, 15, 50, 110
18, 108119, Note_on_c, 15, 50, 0
18, 108120, Note_on_c, 15, 49, 110
18, 108179, Note_on_c, 15, 49, 0
18, 108180, Note_on_c, 15, 46, 110
18, 108239, Note_on_c, 15, 46, 0
18, 108240, Note_on_c, 15, 47, 110
18, 108299, Note_on_c, 15, 47, 0
18, 108300, Note_on_c, 15, 42, 110
18, 108359, Note_on_c, 15, 42, 0
18, 108360, Note_on_c, 15, 46, 110
18, 108419, Note_on_c, 15, 46, 0
18, 108420, Note_on_c, 15, 42, 110
18, 108479, Note_on_c, 15, 42, 0
18, 108480, Note_on_c, 15, 47, 110
18, 108539, Note_on_c, 15, 47, 0
18, 108540, Note_on_c, 15, 50, 110
18, 108569, Note_on_c, 15, 50, 0
18, 108570, Note_on_c, 15, 49, 110
18, 108599, Note_on_c, 15, 49, 0
18, 108600, Note_on_c, 15, 47, 110
18, 108659, Note_on_c, 15, 47, 0
18, 108660, Note_on_c, 15, 45, 110
18, 108719, Note_on_c, 15, 45, 0
18, 108720, Note_on_c, 15, 44, 110
18, 108779, Note_on_c, 15, 44, 0
18, 108780, Note_on_c, 15, 45, 110
18, 108839, Note_on_c, 15, 45, 0
18, 108840, Note_on_c, 15, 47, 110
18, 108899, Note_on_c, 15, 47, 0
18, 108900, Note_on_c, 15, 44, 110
18, 108959, Note_on_c, 15, 44, 0
18, 108960, Note_on_c, 15, 49, 110
18, 109019, Note_on_c, 15, 49, 0
18, 109020, Note_on_c, 15, 51, 110
18, 109079, Note_on_c, 15, 51, 0
18, 109080, Note_on_c, 15, 53, 110
18, 109139, Note_on_c, 15, 53, 0
18, 109140, Note_on_c, 15, 49, 110
18, 109199, Note_on_c, 15, 49, 0
18, 109200, Note_on_c, 15, 54, 110
18, 109259, Note_on_c, 15, 54, 0
18, 109260, Note_on_c, 15, 45, 110
18, 109319, Note_on_c, 15, 45, 0
18, 109320, Note_on_c, 15, 47, 110
18, 109379, Note_on_c, 15, 47, 0
18, 109380, Note_on_c, 15, 49, 110
18, 109439, Note_on_c, 15, 49, 0
18, 109440, Note_on_c, 15, 42, 110
18, 109499, Note_on_c, 15, 42, 0
18, 109500, Note_on_c, 15, 44, 110
18, 109559, Note_on_c, 15, 44, 0
18, 109560, Note_on_c, 15, 45, 110
18, 109619, Note_on_c, 15, 45, 0
18, 109620, Note_on_c, 15, 47, 110
18, 109679, Note_on_c, 15, 47, 0
18, 109680, Note_on_c, 15, 45, 110
18, 109739, Note_on_c, 15, 45, 0
18, 109740, Note_on_c, 15, 44, 110
18, 109799, Note_on_c, 15, 44, 0
18, 109800, Note_on_c, 15, 45, 110
18, 109859, Note_on_c, 15, 45, 0
18, 109860, Note_on_c, 15, 42, 110
18, 109919, Note_on_c, 15, 42, 0
18, 109920, Note_on_c, 15, 47, 110
18, 109979, Note_on_c, 15, 47, 0
18, 109980, Note_on_c, 15, 45, 110
18, 110039, Note_on_c, 15, 45, 0
18, 110040, Note_on_c, 15, 44, 110
18, 110099, Note_on_c, 15, 44, 0
18, 110100, Note_on_c, 15, 45, 110
18, 110159, Note_on_c, 15, 45, 0
18, 110160, Note_on_c, 15, 50, 110
18, 110219, Note_on_c, 15, 50, 0
18, 110220, Note_on_c, 15, 42, 110
18, 110279, Note_on_c, 15, 42, 0
18, 110280, Note_on_c, 15, 41, 110
18, 110339, Note_on_c, 15, 41, 0
18, 110340, Note_on_c, 15, 44, 110
18, 110399, Note_on_c, 15, 44, 0
18, 110400, Note_on_c, 15, 42, 110
18, 110459, Note_on_c, 15, 42, 0
18, 110460, Note_on_c, 15, 44, 110
18, 110519, Note_on_c, 15, 44, 0
18, 110520, Note_on_c, 15, 45, 110
18, 110579, Note_on_c, 15, 45, 0
18, 110580, Note_on_c, 15, 42, 110
18, 110639, Note_on_c, 15, 42, 0
18, 110640, Note_on_c, 15, 49, 110
18, 110699, Note_on_c, 15, 49, 0
18, 110700, Note_on_c, 15, 47, 110
18, 110729, Note_on_c, 15, 47, 0
18, 110730, Note_on_c, 15, 49, 110
18, 110759, Note_on_c, 15, 49, 0
18, 110760, Note_on_c, 15, 50, 110
18, 110819, Note_on_c, 15, 50, 0
18, 110820, Note_on_c, 15, 49, 110
18, 110879, Note_on_c, 15, 49, 0
18, 110880, Note_on_c, 15, 47, 110
18, 110939, Note_on_c, 15, 47, 0
18, 110940, Note_on_c, 15, 44, 110
18, 110999, Note_on_c, 15, 44, 0
18, 111000, Note_on_c, 15, 41, 110
18, 111059, Note_on_c, 15, 41, 0
18, 111060, Note_on_c, 15, 47, 110
18, 111119, Note_on_c, 15, 47, 0
18, 111120, Note_on_c, 15, 45, 110
18, 111149, Note_on_c, 15, 45, 0
18, 111150, Note_on_c, 15, 49, 110
18, 111179, Note_on_c, 15, 49, 0
18, 111180, Note_on_c, 15, 45, 110
18, 111209, Note_on_c, 15, 45, 0
18, 111210, Note_on_c, 15, 42, 110
18, 111239, Note_on_c, 15, 42, 0
18, 111240, Note_on_c, 15, 41, 110
18, 111269, Note_on_c, 15, 41, 0
18, 111270, Note_on_c, 15, 47, 110
18, 111299, Note_on_c, 15, 47, 0
18, 111300, Note_on_c, 15, 45, 110
18, 111329, Note_on_c, 15, 45, 0
18, 111330, Note_on_c, 15, 42, 110
18, 111359, Note_on_c, 15, 42, 0
18, 111360, Note_on_c, 15, 49, 110
18, 111389, Note_on_c, 15, 49, 0
18, 111420, Note_on_c, 15, 49, 110
18, 111449, Note_on_c, 15, 49, 0
18, 111480, Note_on_c, 15, 49, 110
18, 111509, Note_on_c, 15, 49, 0
18, 111540, Note_on_c, 15, 49, 110
18, 111659, Note_on_c, 15, 49, 0
18, 111660, Note_on_c, 15, 49, 110
18, 111719, Note_on_c, 15, 49, 0
18, 111720, Note_on_c, 15, 50, 110
18, 111779, Note_on_c, 15, 50, 0
18, 111780, Note_on_c, 15, 50, 110
18, 111839, Note_on_c, 15, 50, 0
18, 111840, Note_on_c, 15, 49, 110
18, 111869, Note_on_c, 15, 49, 0
18, 111870, Note_on_c, 15, 50, 110
18, 111899, Note_on_c, 15, 50, 0
18, 111900, Note_on_c, 15, 49, 110
18, 111929, Note_on_c, 15, 49, 0
18, 111930, Note_on_c, 15, 47, 110
18, 111959, Note_on_c, 15, 47, 0
18, 111960, Note_on_c, 15, 45, 110
18, 111989, Note_on_c, 15, 45, 0
18, 111990, Note_on_c, 15, 44, 110
18, 112019, Note_on_c, 15, 44, 0
18, 112020, Note_on_c, 15, 42, 110
18, 112049, Note_on_c, 15, 42, 0
18, 112050, Note_on_c, 15, 41, 110
18, 112079, Note_on_c, 15, 41, 0
18, 112080, Note_on_c, 15, 42, 110
18, 112139, Note_on_c, 15, 42, 0
18, 112140, Note_on_c, 15, 44, 110
18, 112169, Note_on_c, 15, 44, 0
18, 112170, Note_on_c, 15, 45, 110
18, 112199, Note_on_c, 15, 45, 0
18, 112200, Note_on_c, 15, 47, 110
18, 112259, Note_on_c, 15, 47, 0
18, 112260, Note_on_c, 15, 45, 110
18, 112319, Note_on_c, 15, 45, 0
18, 112320, Note_on_c, 15, 44, 110
18, 112379, Note_on_c, 15, 44, 0
18, 112380, Note_on_c, 15, 47, 110
18, 112439, Note_on_c, 15, 47, 0
18, 112440, Note_on_c, 15, 45, 110
18, 112469, Note_on_c, 15, 45, 0
18, 112470, Note_on_c, 15, 44, 110
18, 112499, Note_on_c, 15, 44, 0
18, 112500, Note_on_c, 15, 42, 110
18, 112529, Note_on_c, 15, 42, 0
18, 112530, Note_on_c, 15, 40, 110
18, 112559, Note_on_c, 15, 40, 0
18, 112560, Note_on_c, 15, 45, 110
18, 112619, Note_on_c, 15, 45, 0
18, 112620, Note_on_c, 15, 54, 110
18, 112679, Note_on_c, 15, 54, 0
18, 112680, Note_on_c, 15, 50, 110
18, 112739, Note_on_c, 15, 50, 0
18, 112740, Note_on_c, 15, 52, 110
18, 112799, Note_on_c, 15, 52, 0
18, 112800, Note_on_c, 15, 45, 110
18, 112859, Note_on_c, 15, 45, 0
18, 112860, Note_on_c, 15, 47, 110
18, 112919, Note_on_c, 15, 47, 0
18, 112920, Note_on_c, 15, 49, 110
18, 112979, Note_on_c, 15, 49, 0
18, 112980, Note_on_c, 15, 50, 110
18, 113039, Note_on_c, 15, 50, 0
18, 113040, Note_on_c, 15, 49, 110
18, 113099, Note_on_c, 15, 49, 0
18, 113100, Note_on_c, 15, 47, 110
18, 113159, Note_on_c, 15, 47, 0
18, 113160, Note_on_c, 15, 49, 110
18, 113219, Note_on_c, 15, 49, 0
18, 113220, Note_on_c, 15, 45, 110
18, 113279, Note_on_c, 15, 45, 0
18, 113280, Note_on_c, 15, 52, 110
18, 113399, Note_on_c, 15, 52, 0
18, 113460, Note_on_c, 15, 54, 110
18, 113519, Note_on_c, 15, 54, 0
18, 113520, Note_on_c, 15, 59, 110
18, 113549, Note_on_c, 15, 59, 0
18, 113550, Note_on_c, 15, 62, 110
18, 113579, Note_on_c, 15, 62, 0
18, 113580, Note_on_c, 15, 59, 110
18, 113609, Note_on_c, 15, 59, 0
18, 113610, Note_on_c, 15, 54, 110
18, 113639, Note_on_c, 15, 54, 0
18, 113640, Note_on_c, 15, 56, 110
18, 113669, Note_on_c, 15, 56, 0
18, 113670, Note_on_c, 15, 59, 110
18, 113699, Note_on_c, 15, 59, 0
18, 113700, Note_on_c, 15, 56, 110
18, 113729, Note_on_c, 15, 56, 0
18, 113730, Note_on_c, 15, 52, 110
18, 113759, Note_on_c, 15, 52, 0
18, 113760, Note_on_c, 15, 49, 110
18, 113819, Note_on_c, 15, 49, 0
18, 113820, Note_on_c, 15, 52, 110
18, 113879, Note_on_c, 15, 52, 0
18, 113880, Note_on_c, 15, 49, 110
18, 113939, Note_on_c, 15, 49, 0
18, 113940, Note_on_c, 15, 45, 110
18, 113999, Note_on_c, 15, 45, 0
18, 114000, Note_on_c, 15, 44, 110
18, 114059, Note_on_c, 15, 44, 0
18, 114060, Note_on_c, 15, 52, 110
18, 114119, Note_on_c, 15, 52, 0
18, 114120, Note_on_c, 15, 45, 110
18, 114179, Note_on_c, 15, 45, 0
18, 114180, Note_on_c, 15, 52, 110
18, 114239, Note_on_c, 15, 52, 0
18, 114240, Note_on_c, 15, 40, 110
18, 114299, Note_on_c, 15, 40, 0
18, 114300, Note_on_c, 15, 47, 110
18, 114359, Note_on_c, 15, 47, 0
18, 114360, Note_on_c, 15, 52, 110
18, 114419, Note_on_c, 15, 52, 0
18, 114420, Note_on_c, 15, 40, 110
18, 114479, Note_on_c, 15, 40, 0
18, 114480, Note_on_c, 15, 45, 110
18, 114539, Note_on_c, 15, 45, 0
18, 114540, Note_on_c, 15, 50, 110
18, 114599, Note_on_c, 15, 50, 0
18, 114600, Note_on_c, 15, 44, 110
18, 114659, Note_on_c, 15, 44, 0
18, 114660, Note_on_c, 15, 49, 110
18, 114719, Note_on_c, 15, 49, 0
18, 114720, Note_on_c, 15, 42, 110
18, 114779, Note_on_c, 15, 42, 0
18, 114780, Note_on_c, 15, 54, 110
18, 114839, Note_on_c, 15, 54, 0
18, 114840, Note_on_c, 15, 48, 110
18, 114899, Note_on_c, 15, 48, 0
18, 114900, Note_on_c, 15, 48, 110
18, 114959, Note_on_c, 15, 48, 0
18, 114960, Note_on_c, 15, 49, 110
18, 115019, Note_on_c, 15, 49, 0
18, 115020, Note_on_c, 15, 47, 110
18, 115079, Note_on_c, 15, 47, 0
18, 115080, Note_on_c, 15, 42, 110
18, 115139, Note_on_c, 15, 42, 0
18, 115140, Note_on_c, 15, 44, 110
18, 115199, Note_on_c, 15, 44, 0
18, 115200, Note_on_c, 15, 49, 110
18, 115259, Note_on_c, 15, 49, 0
18, 115260, Note_on_c, 15, 49, 110
18, 115319, Note_on_c, 15, 49, 0
18, 115320, Note_on_c, 15, 47, 110
18, 115379, Note_on_c, 15, 47, 0
18, 115380, Note_on_c, 15, 47, 110
18, 115439, Note_on_c, 15, 47, 0
18, 115440, Note_on_c, 15, 45, 110
18, 115499, Note_on_c, 15, 45, 0
18, 115500, Note_on_c, 15, 39, 110
18, 115559, Note_on_c, 15, 39, 0
18, 115560, Note_on_c, 15, 48, 110
18, 115619, Note_on_c, 15, 48, 0
18, 115620, Note_on_c, 15, 49, 110
18, 115679, Note_on_c, 15, 49, 0
18, 115680, Note_on_c, 15, 44, 110
18, 115739, Note_on_c, 15, 44, 0
18, 115740, Note_on_c, 15, 44, 110
18, 115799, Note_on_c, 15, 44, 0
18, 115800, Note_on_c, 15, 42, 110
18, 115859, Note_on_c, 15, 42, 0
18, 115860, Note_on_c, 15, 42, 110
18, 115919, Note_on_c, 15, 42, 0
18, 115920, Note_on_c, 15, 40, 110
18, 115949, Note_on_c, 15, 40, 0
18, 115950, Note_on_c, 15, 52, 110
18, 115979, Note_on_c, 15, 52, 0
18, 115980, Note_on_c, 15, 49, 110
18, 116009, Note_on_c, 15, 49, 0
18, 116010, Note_on_c, 15, 44, 110
18, 116039, Note_on_c, 15, 44, 0
18, 116040, Note_on_c, 15, 40, 110
18, 116069, Note_on_c, 15, 40, 0
18, 116070, Note_on_c, 15, 56, 110
18, 116099, Note_on_c, 15, 56, 0
18, 116100, Note_on_c, 15, 52, 110
18, 116129, Note_on_c, 15, 52, 0
18, 116130, Note_on_c, 15, 49, 110
18, 116159, Note_on_c, 15, 49, 0
18, 116160, Note_on_c, 15, 48, 110
18, 116189, Note_on_c, 15, 48, 0
18, 116190, Note_on_c, 15, 49, 110
18, 116219, Note_on_c, 15, 49, 0
18, 116220, Note_on_c, 15, 51, 110
18, 116249, Note_on_c, 15, 51, 0
18, 116250, Note_on_c, 15, 52, 110
18, 116279, Note_on_c, 15, 52, 0
18, 116280, Note_on_c, 15, 54, 110
18, 116309, Note_on_c, 15, 54, 0
18, 116310, Note_on_c, 15, 56, 110
18, 116339, Note_on_c, 15, 56, 0
18, 116340, Note_on_c, 15, 57, 110
18, 116399, Note_on_c, 15, 57, 0
18, 116400, Note_on_c, 15, 44, 110
18, 116429, Note_on_c, 15, 44, 0
18, 116460, Note_on_c, 15, 44, 110
18, 116489, Note_on_c, 15, 44, 0
18, 116520, Note_on_c, 15, 44, 110
18, 116549, Note_on_c, 15, 44, 0
18, 116580, Note_on_c, 15, 44, 110
18, 116609, Note_on_c, 15, 44, 0
18, 116640, Note_on_c, 15, 44, 110
18, 116669, Note_on_c, 15, 44, 0
18, 116670, Note_on_c, 15, 52, 110
18, 116699, Note_on_c, 15, 52, 0
18, 116700, Note_on_c, 15, 49, 110
18, 116729, Note_on_c, 15, 49, 0
18, 116730, Note_on_c, 15, 44, 110
18, 116759, Note_on_c, 15, 44, 0
18, 116760, Note_on_c, 15, 40, 110
18, 116789, Note_on_c, 15, 40, 0
18, 116790, Note_on_c, 15, 44, 110
18, 116819, Note_on_c, 15, 44, 0
18, 116820, Note_on_c, 15, 49, 110
18, 116849, Note_on_c, 15, 49, 0
18, 116850, Note_on_c, 15, 52, 110
18, 116879, Note_on_c, 15, 52, 0
18, 116880, Note_on_c, 15, 44, 110
18, 116909, Note_on_c, 15, 44, 0
18, 116940, Note_on_c, 15, 44, 110
18, 116969, Note_on_c, 15, 44, 0
18, 117000, Note_on_c, 15, 44, 110
18, 117029, Note_on_c, 15, 44, 0
18, 117060, Note_on_c, 15, 44, 110
18, 117089, Note_on_c, 15, 44, 0
18, 117120, Note_on_c, 15, 44, 110
18, 117149, Note_on_c, 15, 44, 0
18, 117150, Note_on_c, 15, 57, 110
18, 117179, Note_on_c, 15, 57, 0
18, 117180, Note_on_c, 15, 54, 110
18, 117209, Note_on_c, 15, 54, 0
18, 117210, Note_on_c, 15, 51, 110
18, 117239, Note_on_c, 15, 51, 0
18, 117240, Note_on_c, 15, 48, 110
18, 117269, Note_on_c, 15, 48, 0
18, 117270, Note_on_c, 15, 51, 110
18, 117299, Note_on_c, 15, 51, 0
18, 117300, Note_on_c, 15, 48, 110
18, 117329, Note_on_c, 15, 48, 0
18, 117330, Note_on_c, 15, 44, 110
18, 117359, Note_on_c, 15, 44, 0
18, 117360, Note_on_c, 15, 40, 110
18, 117419, Note_on_c, 15, 40, 0
18, 117420, Note_on_c, 15, 49, 110
18, 117479, Note_on_c, 15, 49, 0
18, 117480, Note_on_c, 15, 41, 110
18, 117539, Note_on_c, 15, 41, 0
18, 117540, Note_on_c, 15, 49, 110
18, 117599, Note_on_c, 15, 49, 0
18, 117600, Note_on_c, 15, 42, 110
18, 117659, Note_on_c, 15, 42, 0
18, 117660, Note_on_c, 15, 51, 110
18, 117719, Note_on_c, 15, 51, 0
18, 117720, Note_on_c, 15, 52, 110
18, 117779, Note_on_c, 15, 52, 0
18, 117780, Note_on_c, 15, 48, 110
18, 117839, Note_on_c, 15, 48, 0
18, 117840, Note_on_c, 15, 49, 110
18, 117899, Note_on_c, 15, 49, 0
18, 117900, Note_on_c, 15, 40, 110
18, 117959, Note_on_c, 15, 40, 0
18, 117960, Note_on_c, 15, 42, 110
18, 118019, Note_on_c, 15, 42, 0
18, 118020, Note_on_c, 15, 44, 110
18, 118079, Note_on_c, 15, 44, 0
18, 118080, Note_on_c, 15, 49, 110
18, 118139, Note_on_c, 15, 49, 0
18, 118140, Note_on_c, 15, 51, 110
18, 118199, Note_on_c, 15, 51, 0
18, 118200, Note_on_c, 15, 52, 110
18, 118259, Note_on_c, 15, 52, 0
18, 118260, Note_on_c, 15, 49, 110
18, 118319, Note_on_c, 15, 49, 0
18, 118320, Note_on_c, 15, 48, 110
18, 118349, Note_on_c, 15, 48, 0
18, 118350, Note_on_c, 15, 56, 110
18, 118379, Note_on_c, 15, 56, 0
18, 118380, Note_on_c, 15, 54, 110
18, 118409, Note_on_c, 15, 54, 0
18, 118410, Note_on_c, 15, 51, 110
18, 118439, Note_on_c, 15, 51, 0
18, 118440, Note_on_c, 15, 49, 110
18, 118469, Note_on_c, 15, 49, 0
18, 118470, Note_on_c, 15, 56, 110
18, 118499, Note_on_c, 15, 56, 0
18, 118500, Note_on_c, 15, 52, 110
18, 118529, Note_on_c, 15, 52, 0
18, 118530, Note_on_c, 15, 49, 110
18, 118559, Note_on_c, 15, 49, 0
18, 118560, Note_on_c, 15, 48, 110
18, 118589, Note_on_c, 15, 48, 0
18, 118590, Note_on_c, 15, 56, 110
18, 118619, Note_on_c, 15, 56, 0
18, 118620, Note_on_c, 15, 51, 110
18, 118649, Note_on_c, 15, 51, 0
18, 118650, Note_on_c, 15, 47, 110
18, 118679, Note_on_c, 15, 47, 0
18, 118680, Note_on_c, 15, 44, 110
18, 118739, Note_on_c, 15, 44, 0
18, 118740, Note_on_c, 15, 54, 110
18, 118799, Note_on_c, 15, 54, 0
18, 118800, Note_on_c, 15, 53, 110
18, 118829, Note_on_c, 15, 53, 0
18, 118830, Note_on_c, 15, 59, 110
18, 118859, Note_on_c, 15, 59, 0
18, 118860, Note_on_c, 15, 56, 110
18, 118889, Note_on_c, 15, 56, 0
18, 118890, Note_on_c, 15, 54, 110
18, 118919, Note_on_c, 15, 54, 0
18, 118920, Note_on_c, 15, 53, 110
18, 118949, Note_on_c, 15, 53, 0
18, 118950, Note_on_c, 15, 62, 110
18, 118979, Note_on_c, 15, 62, 0
18, 118980, Note_on_c, 15, 59, 110
18, 119009, Note_on_c, 15, 59, 0
18, 119010, Note_on_c, 15, 56, 110
18, 119039, Note_on_c, 15, 56, 0
18, 119040, Note_on_c, 15, 53, 110
18, 119069, Note_on_c, 15, 53, 0
18, 119070, Note_on_c, 15, 59, 110
18, 119099, Note_on_c, 15, 59, 0
18, 119100, Note_on_c, 15, 56, 110
18, 119129, Note_on_c, 15, 56, 0
18, 119130, Note_on_c, 15, 53, 110
18, 119159, Note_on_c, 15, 53, 0
18, 119160, Note_on_c, 15, 49, 110
18, 119189, Note_on_c, 15, 49, 0
18, 119190, Note_on_c, 15, 56, 110
18, 119219, Note_on_c, 15, 56, 0
18, 119220, Note_on_c, 15, 53, 110
18, 119249, Note_on_c, 15, 53, 0
18, 119250, Note_on_c, 15, 49, 110
18, 119279, Note_on_c, 15, 49, 0
18, 119280, Note_on_c, 15, 45, 110
18, 119339, Note_on_c, 15, 45, 0
18, 119340, Note_on_c, 15, 50, 110
18, 119399, Note_on_c, 15, 50, 0
18, 119400, Note_on_c, 15, 47, 110
18, 119459, Note_on_c, 15, 47, 0
18, 119460, Note_on_c, 15, 49, 110
18, 119519, Note_on_c, 15, 49, 0
18, 119520, Note_on_c, 15, 42, 110
18, 119579, Note_on_c, 15, 42, 0
18, 119580, Note_on_c, 15, 45, 110
18, 119639, Note_on_c, 15, 45, 0
18, 119640, Note_on_c, 15, 49, 110
18, 119699, Note_on_c, 15, 49, 0
18, 119700, Note_on_c, 15, 53, 110
18, 119759, Note_on_c, 15, 53, 0
18, 119760, Note_on_c, 15, 54, 110
18, 119819, Note_on_c, 15, 54, 0
18, 119820, Note_on_c, 15, 49, 110
18, 119879, Note_on_c, 15, 49, 0
18, 119880, Note_on_c, 15, 53, 110
18, 119939, Note_on_c, 15, 53, 0
18, 119940, Note_on_c, 15, 49, 110
18, 119999, Note_on_c, 15, 49, 0
18, 120000, Note_on_c, 15, 54, 110
18, 120059, Note_on_c, 15, 54, 0
18, 120060, Note_on_c, 15, 57, 110
18, 120089, Note_on_c, 15, 57, 0
18, 120090, Note_on_c, 15, 56, 110
18, 120119, Note_on_c, 15, 56, 0
18, 120120, Note_on_c, 15, 54, 110
18, 120179, Note_on_c, 15, 54, 0
18, 120180, Note_on_c, 15, 52, 110
18, 120239, Note_on_c, 15, 52, 0
18, 120240, Note_on_c, 15, 51, 110
18, 120299, Note_on_c, 15, 51, 0
18, 120300, Note_on_c, 15, 52, 110
18, 120359, Note_on_c, 15, 52, 0
18, 120360, Note_on_c, 15, 54, 110
18, 120419, Note_on_c, 15, 54, 0
18, 120420, Note_on_c, 15, 51, 110
18, 120479, Note_on_c, 15, 51, 0
18, 120480, Note_on_c, 15, 56, 110
18, 120539, Note_on_c, 15, 56, 0
18, 120540, Note_on_c, 15, 58, 110
18, 120599, Note_on_c, 15, 58, 0
18, 120600, Note_on_c, 15, 60, 110
18, 120659, Note_on_c, 15, 60, 0
18, 120660, Note_on_c, 15, 56, 110
18, 120719, Note_on_c, 15, 56, 0
18, 120720, Note_on_c, 15, 61, 110
18, 120779, Note_on_c, 15, 61, 0
18, 120780, Note_on_c, 15, 52, 110
18, 120839, Note_on_c, 15, 52, 0
18, 120840, Note_on_c, 15, 54, 110
18, 120899, Note_on_c, 15, 54, 0
18, 120900, Note_on_c, 15, 56, 110
18, 120959, Note_on_c, 15, 56, 0
18, 120960, Note_on_c, 15, 49, 110
18, 120989, Note_on_c, 15, 49, 0
18, 120990, Note_on_c, 15, 56, 110
18, 121019, Note_on_c, 15, 56, 0
18, 121020, Note_on_c, 15, 52, 110
18, 121049, Note_on_c, 15, 52, 0
18, 121050, Note_on_c, 15, 49, 110
18, 121079, Note_on_c, 15, 49, 0
18, 121080, Note_on_c, 15, 48, 110
18, 121109, Note_on_c, 15, 48, 0
18, 121110, Note_on_c, 15, 54, 110
18, 121139, Note_on_c, 15, 54, 0
18, 121140, Note_on_c, 15, 51, 110
18, 121169, Note_on_c, 15, 51, 0
18, 121170, Note_on_c, 15, 48, 110
18, 121199, Note_on_c, 15, 48, 0
18, 121200, Note_on_c, 15, 49, 110
18, 121229, Note_on_c, 15, 49, 0
18, 121230, Note_on_c, 15, 57, 110
18, 121259, Note_on_c, 15, 57, 0
18, 121260, Note_on_c, 15, 52, 110
18, 121289, Note_on_c, 15, 52, 0
18, 121290, Note_on_c, 15, 49, 110
18, 121319, Note_on_c, 15, 49, 0
18, 121320, Note_on_c, 15, 51, 110
18, 121349, Note_on_c, 15, 51, 0
18, 121350, Note_on_c, 15, 59, 110
18, 121379, Note_on_c, 15, 59, 0
18, 121380, Note_on_c, 15, 54, 110
18, 121409, Note_on_c, 15, 54, 0
18, 121410, Note_on_c, 15, 51, 110
18, 121439, Note_on_c, 15, 51, 0
18, 121440, Note_on_c, 15, 52, 110
18, 121499, Note_on_c, 15, 52, 0
18, 121500, Note_on_c, 15, 56, 110
18, 121559, Note_on_c, 15, 56, 0
18, 121560, Note_on_c, 15, 61, 110
18, 121619, Note_on_c, 15, 61, 0
18, 121620, Note_on_c, 15, 59, 110
18, 121679, Note_on_c, 15, 59, 0
18, 121680, Note_on_c, 15, 57, 110
18, 121739, Note_on_c, 15, 57, 0
18, 121740, Note_on_c, 15, 54, 110
18, 121799, Note_on_c, 15, 54, 0
18, 121800, Note_on_c, 15, 59, 110
18, 121859, Note_on_c, 15, 59, 0
18, 121860, Note_on_c, 15, 47, 110
18, 121919, Note_on_c, 15, 47, 0
18, 121920, Note_on_c, 15, 52, 110
18, 121979, Note_on_c, 15, 52, 0
18, 121980, Note_on_c, 15, 54, 110
18, 122039, Note_on_c, 15, 54, 0
18, 122040, Note_on_c, 15, 56, 110
18, 122069, Note_on_c, 15, 56, 0
18, 122070, Note_on_c, 15, 54, 110
18, 122099, Note_on_c, 15, 54, 0
18, 122100, Note_on_c, 15, 52, 110
18, 122129, Note_on_c, 15, 52, 0
18, 122130, Note_on_c, 15, 50, 110
18, 122159, Note_on_c, 15, 50, 0
18, 122160, Note_on_c, 15, 49, 110
18, 122219, Note_on_c, 15, 49, 0
18, 122220, Note_on_c, 15, 47, 110
18, 122279, Note_on_c, 15, 47, 0
18, 122280, Note_on_c, 15, 49, 110
18, 122339, Note_on_c, 15, 49, 0
18, 122340, Note_on_c, 15, 50, 110
18, 122399, Note_on_c, 15, 50, 0
18, 122400, Note_on_c, 15, 46, 110
18, 122459, Note_on_c, 15, 46, 0
18, 122460, Note_on_c, 15, 42, 110
18, 122519, Note_on_c, 15, 42, 0
18, 122520, Note_on_c, 15, 47, 110
18, 122579, Note_on_c, 15, 47, 0
18, 122580, Note_on_c, 15, 42, 110
18, 122639, Note_on_c, 15, 42, 0
18, 122640, Note_on_c, 15, 46, 110
18, 122699, Note_on_c, 15, 46, 0
18, 122700, Note_on_c, 15, 42, 110
18, 122759, Note_on_c, 15, 42, 0
18, 122760, Note_on_c, 15, 47, 110
18, 122819, Note_on_c, 15, 47, 0
18, 122820, Note_on_c, 15, 50, 110
18, 122879, Note_on_c, 15, 50, 0
18, 122880, Note_on_c, 15, 54, 110
18, 122969, Note_on_c, 15, 54, 0
18, 122970, Note_on_c, 15, 52, 110
18, 122999, Note_on_c, 15, 52, 0
18, 123000, Note_on_c, 15, 50, 110
18, 123029, Note_on_c, 15, 50, 0
18, 123030, Note_on_c, 15, 49, 110
18, 123059, Note_on_c, 15, 49, 0
18, 123060, Note_on_c, 15, 47, 110
18, 123089, Note_on_c, 15, 47, 0
18, 123090, Note_on_c, 15, 46, 110
18, 123119, Note_on_c, 15, 46, 0
18, 123120, Note_on_c, 15, 47, 110
18, 123179, Note_on_c, 15, 47, 0
18, 123180, Note_on_c, 15, 49, 110
18, 123239, Note_on_c, 15, 49, 0
18, 123240, Note_on_c, 15, 50, 110
18, 123299, Note_on_c, 15, 50, 0
18, 123300, Note_on_c, 15, 47, 110
18, 123359, Note_on_c, 15, 47, 0
18, 123360, Note_on_c, 15, 44, 110
18, 123389, Note_on_c, 15, 44, 0
18, 123390, Note_on_c, 15, 62, 110
18, 123419, Note_on_c, 15, 62, 0
18, 123420, Note_on_c, 15, 59, 110
18, 123449, Note_on_c, 15, 59, 0
18, 123450, Note_on_c, 15, 56, 110
18, 123479, Note_on_c, 15, 56, 0
18, 123480, Note_on_c, 15, 53, 110
18, 123509, Note_on_c, 15, 53, 0
18, 123510, Note_on_c, 15, 59, 110
18, 123539, Note_on_c, 15, 59, 0
18, 123540, Note_on_c, 15, 56, 110
18, 123569, Note_on_c, 15, 56, 0
18, 123570, Note_on_c, 15, 53, 110
18, 123599, Note_on_c, 15, 53, 0
18, 123600, Note_on_c, 15, 54, 110
18, 123629, Note_on_c, 15, 54, 0
18, 123630, Note_on_c, 15, 50, 110
18, 123659, Note_on_c, 15, 50, 0
18, 123660, Note_on_c, 15, 47, 110
18, 123689, Note_on_c, 15, 47, 0
18, 123690, Note_on_c, 15, 41, 110
18, 123719, Note_on_c, 15, 41, 0
18, 123720, Note_on_c, 15, 42, 110
18, 123779, Note_on_c, 15, 42, 0
18, 123780, Note_on_c, 15, 54, 110
18, 123839, Note_on_c, 15, 54, 0
18, 123840, Note_on_c, 15, 47, 110
18, 123869, Note_on_c, 15, 47, 0
18, 123870, Note_on_c, 15, 59, 110
18, 123899, Note_on_c, 15, 59, 0
18, 123900, Note_on_c, 15, 54, 110
18, 123929, Note_on_c, 15, 54, 0
18, 123930, Note_on_c, 15, 50, 110
18, 123959, Note_on_c, 15, 50, 0
18, 123960, Note_on_c, 15, 47, 110
18, 123989, Note_on_c, 15, 47, 0
18, 123990, Note_on_c, 15, 54, 110
18, 124019, Note_on_c, 15, 54, 0
18, 124020, Note_on_c, 15, 50, 110
18, 124049, Note_on_c, 15, 50, 0
18, 124050, Note_on_c, 15, 47, 110
18, 124079, Note_on_c, 15, 47, 0
18, 124080, Note_on_c, 15, 43, 110
18, 124139, Note_on_c, 15, 43, 0
18, 124140, Note_on_c, 15, 52, 110
18, 124199, Note_on_c, 15, 52, 0
18, 124200, Note_on_c, 15, 42, 110
18, 124259, Note_on_c, 15, 42, 0
18, 124260, Note_on_c, 15, 50, 110
18, 124319, Note_on_c, 15, 50, 0
18, 124320, Note_on_c, 15, 40, 110
18, 124379, Note_on_c, 15, 40, 0
18, 124380, Note_on_c, 15, 49, 110
18, 124439, Note_on_c, 15, 49, 0
18, 124440, Note_on_c, 15, 42, 110
18, 124499, Note_on_c, 15, 42, 0
18, 124500, Note_on_c, 15, 50, 110
18, 124559, Note_on_c, 15, 50, 0
18, 124560, Note_on_c, 15, 49, 110
18, 124619, Note_on_c, 15, 49, 0
18, 124620, Note_on_c, 15, 47, 110
18, 124679, Note_on_c, 15, 47, 0
18, 124680, Note_on_c, 15, 46, 110
18, 124739, Note_on_c, 15, 46, 0
18, 124740, Note_on_c, 15, 49, 110
18, 124799, Note_on_c, 15, 49, 0
18, 124800, Note_on_c, 15, 50, 110
18, 124859, Note_on_c, 15, 50, 0
18, 124860, Note_on_c, 15, 54, 110
18, 124919, Note_on_c, 15, 54, 0
18, 124920, Note_on_c, 15, 50, 110
18, 124979, Note_on_c, 15, 50, 0
18, 124980, Note_on_c, 15, 47, 110
18, 125039, Note_on_c, 15, 47, 0
18, 125040, Note_on_c, 15, 46, 110
18, 125099, Note_on_c, 15, 46, 0
18, 125100, Note_on_c, 15, 42, 110
18, 125159, Note_on_c, 15, 42, 0
18, 125160, Note_on_c, 15, 47, 110
18, 125174, Note_on_c, 15, 47, 0
18, 125175, Note_on_c, 15, 49, 110
18, 125189, Note_on_c, 15, 49, 0
18, 125190, Note_on_c, 15, 50, 110
18, 125279, Note_on_c, 15, 50, 0
18, 125280, Note_on_c, 15, 49, 110
18, 125294, Note_on_c, 15, 49, 0
18, 125295, Note_on_c, 15, 50, 110
18, 125309, Note_on_c, 15, 50, 0
18, 125310, Note_on_c, 15, 52, 110
18, 125429, Note_on_c, 15, 52, 0
18, 125430, Note_on_c, 15, 50, 110
18, 125459, Note_on_c, 15, 50, 0
18, 125460, Note_on_c, 15, 49, 110
18, 125489, Note_on_c, 15, 49, 0
18, 125490, Note_on_c, 15, 47, 110
18, 125519, Note_on_c, 15, 47, 0
18, 125520, Note_on_c, 15, 49, 110
18, 125579, Note_on_c, 15, 49, 0
18, 125580, Note_on_c, 15, 47, 110
18, 125639, Note_on_c, 15, 47, 0
18, 125640, Note_on_c, 15, 46, 110
18, 125699, Note_on_c, 15, 46, 0
18, 125700, Note_on_c, 15, 47, 110
18, 125759, Note_on_c, 15, 47, 0
18, 125760, Note_on_c, 15, 42, 110
18, 125819, Note_on_c, 15, 42, 0
18, 125820, Note_on_c, 15, 44, 110
18, 125879, Note_on_c, 15, 44, 0
18, 125880, Note_on_c, 15, 46, 110
18, 125909, Note_on_c, 15, 46, 0
18, 125910, Note_on_c, 15, 54, 110
18, 125939, Note_on_c, 15, 54, 0
18, 125940, Note_on_c, 15, 52, 110
18, 125969, Note_on_c, 15, 52, 0
18, 125970, Note_on_c, 15, 49, 110
18, 125999, Note_on_c, 15, 49, 0
18, 126000, Note_on_c, 15, 50, 110
18, 126029, Note_on_c, 15, 50, 0
18, 126030, Note_on_c, 15, 54, 110
18, 126059, Note_on_c, 15, 54, 0
18, 126060, Note_on_c, 15, 50, 110
18, 126089, Note_on_c, 15, 50, 0
18, 126090, Note_on_c, 15, 47, 110
18, 126119, Note_on_c, 15, 47, 0
18, 126120, Note_on_c, 15, 46, 110
18, 126149, Note_on_c, 15, 46, 0
18, 126150, Note_on_c, 15, 49, 110
18, 126179, Note_on_c, 15, 49, 0
18, 126180, Note_on_c, 15, 46, 110
18, 126209, Note_on_c, 15, 46, 0
18, 126210, Note_on_c, 15, 42, 110
18, 126239, Note_on_c, 15, 42, 0
18, 126240, Note_on_c, 15, 47, 110
18, 126299, Note_on_c, 15, 47, 0
18, 126300, Note_on_c, 15, 47, 110
18, 126359, Note_on_c, 15, 47, 0
18, 126360, Note_on_c, 15, 47, 110
18, 126419, Note_on_c, 15, 47, 0
18, 126420, Note_on_c, 15, 47, 110
18, 126479, Note_on_c, 15, 47, 0
18, 126480, Note_on_c, 15, 52, 110
18, 126539, Note_on_c, 15, 52, 0
18, 126540, Note_on_c, 15, 52, 110
18, 126599, Note_on_c, 15, 52, 0
18, 126600, Note_on_c, 15, 52, 110
18, 126659, Note_on_c, 15, 52, 0
18, 126660, Note_on_c, 15, 52, 110
18, 126719, Note_on_c, 15, 52, 0
18, 126720, Note_on_c, 15, 45, 110
18, 126779, Note_on_c, 15, 45, 0
18, 126780, Note_on_c, 15, 45, 110
18, 126839, Note_on_c, 15, 45, 0
18, 126840, Note_on_c, 15, 45, 110
18, 126899, Note_on_c, 15, 45, 0
18, 126900, Note_on_c, 15, 45, 110
18, 126959, Note_on_c, 15, 45, 0
18, 126960, Note_on_c, 15, 50, 110
18, 127019, Note_on_c, 15, 50, 0
18, 127020, Note_on_c, 15, 50, 110
18, 127079, Note_on_c, 15, 50, 0
18, 127080, Note_on_c, 15, 50, 110
18, 127139, Note_on_c, 15, 50, 0
18, 127140, Note_on_c, 15, 49, 110
18, 127199, Note_on_c, 15, 49, 0
18, 127200, Note_on_c, 15, 47, 110
18, 127259, Note_on_c, 15, 47, 0
18, 127260, Note_on_c, 15, 44, 110
18, 127319, Note_on_c, 15, 44, 0
18, 127320, Note_on_c, 15, 45, 110
18, 127379, Note_on_c, 15, 45, 0
18, 127380, Note_on_c, 15, 47, 110
18, 127439, Note_on_c, 15, 47, 0
18, 127440, Note_on_c, 15, 49, 110
18, 127499, Note_on_c, 15, 49, 0
18, 127500, Note_on_c, 15, 51, 110
18, 127559, Note_on_c, 15, 51, 0
18, 127560, Note_on_c, 15, 53, 110
18, 127619, Note_on_c, 15, 53, 0
18, 127620, Note_on_c, 15, 49, 110
18, 127679, Note_on_c, 15, 49, 0
18, 127680, Note_on_c, 15, 54, 110
18, 127739, Note_on_c, 15, 54, 0
18, 127740, Note_on_c, 15, 45, 110
18, 127799, Note_on_c, 15, 45, 0
18, 127800, Note_on_c, 15, 44, 110
18, 127859, Note_on_c, 15, 44, 0
18, 127860, Note_on_c, 15, 42, 110
18, 127919, Note_on_c, 15, 42, 0
18, 127920, Note_on_c, 15, 47, 110
18, 127979, Note_on_c, 15, 47, 0
18, 127980, Note_on_c, 15, 59, 110
18, 128069, Note_on_c, 15, 59, 0
18, 128070, Note_on_c, 15, 56, 110
18, 128099, Note_on_c, 15, 56, 0
18, 128100, Note_on_c, 15, 53, 110
18, 128129, Note_on_c, 15, 53, 0
18, 128130, Note_on_c, 15, 49, 110
18, 128159, Note_on_c, 15, 49, 0
18, 128160, Note_on_c, 15, 54, 110
18, 128219, Note_on_c, 15, 54, 0
18, 128220, Note_on_c, 15, 50, 110
18, 128279, Note_on_c, 15, 50, 0
18, 128280, Note_on_c, 15, 47, 110
18, 128339, Note_on_c, 15, 47, 0
18, 128340, Note_on_c, 15, 49, 110
18, 128399, Note_on_c, 15, 49, 0
18, 128400, Note_on_c, 15, 42, 110
18, 128459, Note_on_c, 15, 42, 0
18, 128460, Note_on_c, 15, 44, 110
18, 128519, Note_on_c, 15, 44, 0
18, 128520, Note_on_c, 15, 45, 110
18, 128549, Note_on_c, 15, 45, 0
18, 128550, Note_on_c, 15, 54, 110
18, 128579, Note_on_c, 15, 54, 0
18, 128580, Note_on_c, 15, 49, 110
18, 128609, Note_on_c, 15, 49, 0
18, 128610, Note_on_c, 15, 47, 110
18, 128639, Note_on_c, 15, 47, 0
18, 128640, Note_on_c, 15, 46, 110
18, 128669, Note_on_c, 15, 46, 0
18, 128670, Note_on_c, 15, 55, 110
18, 128699, Note_on_c, 15, 55, 0
18, 128700, Note_on_c, 15, 52, 110
18, 128729, Note_on_c, 15, 52, 0
18, 128730, Note_on_c, 15, 50, 110
18, 128759, Note_on_c, 15, 50, 0
18, 128760, Note_on_c, 15, 49, 110
18, 128789, Note_on_c, 15, 49, 0
18, 128790, Note_on_c, 15, 55, 110
18, 128819, Note_on_c, 15, 55, 0
18, 128820, Note_on_c, 15, 52, 110
18, 128849, Note_on_c, 15, 52, 0
18, 128850, Note_on_c, 15, 49, 110
18, 128879, Note_on_c, 15, 49, 0
18, 128880, Note_on_c, 15, 46, 110
18, 128909, Note_on_c, 15, 46, 0
18, 128910, Note_on_c, 15, 52, 110
18, 128939, Note_on_c, 15, 52, 0
18, 128940, Note_on_c, 15, 49, 110
18, 128969, Note_on_c, 15, 49, 0
18, 128970, Note_on_c, 15, 46, 110
18, 128999, Note_on_c, 15, 46, 0
18, 129000, Note_on_c, 15, 42, 110
18, 129059, Note_on_c, 15, 42, 0
18, 129060, Note_on_c, 15, 46, 110
18, 129119, Note_on_c, 15, 46, 0
18, 129120, Note_on_c, 15, 47, 110
18, 129179, Note_on_c, 15, 47, 0
18, 129180, Note_on_c, 15, 49, 110
18, 129239, Note_on_c, 15, 49, 0
18, 129240, Note_on_c, 15, 50, 110
18, 129299, Note_on_c, 15, 50, 0
18, 129300, Note_on_c, 15, 47, 110
18, 129359, Note_on_c, 15, 47, 0
18, 129360, Note_on_c, 15, 42, 110
18, 129389, Note_on_c, 15, 42, 0
18, 129390, Note_on_c, 15, 55, 110
18, 129419, Note_on_c, 15, 55, 0
18, 129420, Note_on_c, 15, 52, 110
18, 129449, Note_on_c, 15, 52, 0
18, 129450, Note_on_c, 15, 49, 110
18, 129479, Note_on_c, 15, 49, 0
18, 129480, Note_on_c, 15, 46, 110
18, 129509, Note_on_c, 15, 46, 0
18, 129510, Note_on_c, 15, 52, 110
18, 129539, Note_on_c, 15, 52, 0
18, 129540, Note_on_c, 15, 49, 110
18, 129569, Note_on_c, 15, 49, 0
18, 129570, Note_on_c, 15, 46, 110
18, 129599, Note_on_c, 15, 46, 0
18, 129600, Note_on_c, 15, 42, 110
18, 129659, Note_on_c, 15, 42, 0
18, 129660, Note_on_c, 15, 43, 110
18, 129719, Note_on_c, 15, 43, 0
18, 129720, Note_on_c, 15, 40, 110
18, 129779, Note_on_c, 15, 40, 0
18, 129780, Note_on_c, 15, 42, 110
18, 129839, Note_on_c, 15, 42, 0
18, 129840, Note_on_c, 15, 47, 110
18, 129899, Note_on_c, 15, 47, 0
18, 129900, Note_on_c, 15, 42, 110
18, 129959, Note_on_c, 15, 42, 0
18, 129960, Note_on_c, 15, 54, 110
18, 130019, Note_on_c, 15, 54, 0
18, 130020, Note_on_c, 15, 42, 110
18, 130079, Note_on_c, 15, 42, 0
18, 130080, Note_on_c, 15, 47, 110
18, 130139, Note_on_c, 15, 47, 0
18, 130140, Note_on_c, 15, 42, 110
18, 130199, Note_on_c, 15, 42, 0
18, 130200, Note_on_c, 15, 46, 110
18, 130259, Note_on_c, 15, 46, 0
18, 130260, Note_on_c, 15, 42, 110
18, 130319, Note_on_c, 15, 42, 0
18, 130320, Note_on_c, 15, 47, 110
18, 130379, Note_on_c, 15, 47, 0
18, 130380, Note_on_c, 15, 50, 110
18, 130439, Note_on_c, 15, 50, 0
18, 130440, Note_on_c, 15, 52, 110
18, 130499, Note_on_c, 15, 52, 0
18, 130500, Note_on_c, 15, 44, 110
18, 130559, Note_on_c, 15, 44, 0
18, 130560, Note_on_c, 15, 45, 110
18, 130619, Note_on_c, 15, 45, 0
18, 130620, Note_on_c, 15, 40, 110
18, 130679, Note_on_c, 15, 40, 0
18, 130680, Note_on_c, 15, 52, 110
18, 130739, Note_on_c, 15, 52, 0
18, 130740, Note_on_c, 15, 40, 110
18, 130799, Note_on_c, 15, 40, 0
18, 130800, Note_on_c, 15, 45, 110
18, 130919, Note_on_c, 15, 45, 0
18, 130980, Note_on_c, 15, 42, 110
18, 131039, Note_on_c, 15, 42, 0
18, 131040, Note_on_c, 15, 47, 110
18, 131159, Note_on_c, 15, 47, 0
18, 131220, Note_on_c, 15, 44, 110
18, 131279, Note_on_c, 15, 44, 0
18, 131280, Note_on_c, 15, 49, 110
18, 131399, Note_on_c, 15, 49, 0
18, 131460, Note_on_c, 15, 50, 110
18, 131519, Note_on_c, 15, 50, 0
18, 131520, Note_on_c, 15, 49, 110
18, 131579, Note_on_c, 15, 49, 0
18, 131580, Note_on_c, 15, 45, 110
18, 131639, Note_on_c, 15, 45, 0
18, 131640, Note_on_c, 15, 47, 110
18, 131699, Note_on_c, 15, 47, 0
18, 131700, Note_on_c, 15, 49, 110
18, 131759, Note_on_c, 15, 49, 0
18, 131760, Note_on_c, 15, 38, 110
18, 131879, Note_on_c, 15, 38, 0
18, 132060, Note_on_c, 15, 51, 110
18, 132119, Note_on_c, 15, 51, 0
18, 132120, Note_on_c, 15, 49, 110
18, 132179, Note_on_c, 15, 49, 0
18, 132180, Note_on_c, 15, 48, 110
18, 132239, Note_on_c, 15, 48, 0
18, 132240, Note_on_c, 15, 49, 110
18, 132359, Note_on_c, 15, 49, 0
18, 132360, Note_on_c, 15, 37, 110
18, 132479, Note_on_c, 15, 37, 0
18, 132480, Note_on_c, 15, 42, 110
18, 132509, Note_on_c, 15, 42, 0
18, 132510, Note_on_c, 15, 54, 110
18, 132539, Note_on_c, 15, 54, 0
18, 132540, Note_on_c, 15, 49, 110
18, 132569, Note_on_c, 15, 49, 0
18, 132570, Note_on_c, 15, 45, 110
18, 132599, Note_on_c, 15, 45, 0
18, 132600, Note_on_c, 15, 42, 110
18, 132629, Note_on_c, 15, 42, 0
18, 132630, Note_on_c, 15, 41, 110
18, 132659, Note_on_c, 15, 41, 0
18, 132660, Note_on_c, 15, 42, 110
18, 132689, Note_on_c, 15, 42, 0
18, 132690, Note_on_c, 15, 44, 110
18, 132719, Note_on_c, 15, 44, 0
18, 132720, Note_on_c, 15, 45, 110
18, 132779, Note_on_c, 15, 45, 0
18, 132780, Note_on_c, 15, 44, 110
18, 132839, Note_on_c, 15, 44, 0
18, 132840, Note_on_c, 15, 45, 110
18, 132899, Note_on_c, 15, 45, 0
18, 132900, Note_on_c, 15, 42, 110
18, 132959, Note_on_c, 15, 42, 0
18, 132960, Note_on_c, 15, 49, 110
18, 133079, Note_on_c, 15, 49, 0
18, 133140, Note_on_c, 15, 45, 110
18, 133199, Note_on_c, 15, 45, 0
18, 133200, Note_on_c, 15, 50, 110
18, 133259, Note_on_c, 15, 50, 0
18, 133260, Note_on_c, 15, 47, 110
18, 133319, Note_on_c, 15, 47, 0
18, 133320, Note_on_c, 15, 45, 110
18, 133379, Note_on_c, 15, 45, 0
18, 133380, Note_on_c, 15, 44, 110
18, 133439, Note_on_c, 15, 44, 0
18, 133440, Note_on_c, 15, 45, 110
18, 133499, Note_on_c, 15, 45, 0
18, 133500, Note_on_c, 15, 49, 110
18, 133559, Note_on_c, 15, 49, 0
18, 133560, Note_on_c, 15, 45, 110
18, 133619, Note_on_c, 15, 45, 0
18, 133620, Note_on_c, 15, 42, 110
18, 133679, Note_on_c, 15, 42, 0
18, 133680, Note_on_c, 15, 47, 110
18, 133709, Note_on_c, 15, 47, 0
18, 133740, Note_on_c, 15, 47, 110
18, 133769, Note_on_c, 15, 47, 0
18, 133800, Note_on_c, 15, 47, 110
18, 133829, Note_on_c, 15, 47, 0
18, 133860, Note_on_c, 15, 47, 110
18, 133889, Note_on_c, 15, 47, 0
18, 133920, Note_on_c, 15, 47, 110
18, 133949, Note_on_c, 15, 47, 0
18, 133950, Note_on_c, 15, 50, 110
18, 133979, Note_on_c, 15, 50, 0
18, 133980, Note_on_c, 15, 49, 110
18, 134009, Note_on_c, 15, 49, 0
18, 134010, Note_on_c, 15, 47, 110
18, 134039, Note_on_c, 15, 47, 0
18, 134040, Note_on_c, 15, 45, 110
18, 134069, Note_on_c, 15, 45, 0
18, 134070, Note_on_c, 15, 49, 110
18, 134099, Note_on_c, 15, 49, 0
18, 134100, Note_on_c, 15, 47, 110
18, 134129, Note_on_c, 15, 47, 0
18, 134130, Note_on_c, 15, 45, 110
18, 134159, Note_on_c, 15, 45, 0
18, 134160, Note_on_c, 15, 44, 110
18, 134219, Note_on_c, 15, 44, 0
18, 134220, Note_on_c, 15, 42, 110
18, 134279, Note_on_c, 15, 42, 0
18, 134280, Note_on_c, 15, 41, 110
18, 134339, Note_on_c, 15, 41, 0
18, 134340, Note_on_c, 15, 42, 110
18, 134399, Note_on_c, 15, 42, 0
18, 134400, Note_on_c, 15, 49, 110
18, 134459, Note_on_c, 15, 49, 0
18, 134460, Note_on_c, 15, 51, 110
18, 134519, Note_on_c, 15, 51, 0
18, 134520, Note_on_c, 15, 53, 110
18, 134579, Note_on_c, 15, 53, 0
18, 134580, Note_on_c, 15, 49, 110
18, 134639, Note_on_c, 15, 49, 0
18, 134640, Note_on_c, 15, 54, 110
18, 134699, Note_on_c, 15, 54, 0
18, 134700, Note_on_c, 15, 42, 110
18, 134759, Note_on_c, 15, 42, 0
18, 134820, Note_on_c, 15, 54, 110
18, 134879, Note_on_c, 15, 54, 0
18, 134880, Note_on_c, 15, 56, 110
18, 134939, Note_on_c, 15, 56, 0
18, 134940, Note_on_c, 15, 59, 110
18, 134999, Note_on_c, 15, 59, 0
18, 135000, Note_on_c, 15, 56, 110
18, 135059, Note_on_c, 15, 56, 0
18, 135060, Note_on_c, 15, 52, 110
18, 135119, Note_on_c, 15, 52, 0
18, 135120, Note_on_c, 15, 57, 110
18, 135179, Note_on_c, 15, 57, 0
18, 135180, Note_on_c, 15, 54, 110
18, 135239, Note_on_c, 15, 54, 0
18, 135240, Note_on_c, 15, 50, 110
18, 135299, Note_on_c, 15, 50, 0
18, 135300, Note_on_c, 15, 52, 110
18, 135359, Note_on_c, 15, 52, 0
18, 135360, Note_on_c, 15, 45, 110
18, 135419, Note_on_c, 15, 45, 0
18, 135420, Note_on_c, 15, 57, 110
18, 135449, Note_on_c, 15, 57, 0
18, 135450, Note_on_c, 15, 59, 110
18, 135479, Note_on_c, 15, 59, 0
18, 135480, Note_on_c, 15, 61, 110
18, 135539, Note_on_c, 15, 61, 0
18, 135540, Note_on_c, 15, 57, 110
18, 135599, Note_on_c, 15, 57, 0
18, 135600, Note_on_c, 15, 56, 110
18, 135629, Note_on_c, 15, 56, 0
18, 135630, Note_on_c, 15, 64, 110
18, 135659, Note_on_c, 15, 64, 0
18, 135660, Note_on_c, 15, 62, 110
18, 135689, Note_on_c, 15, 62, 0
18, 135690, Note_on_c, 15, 59, 110
18, 135719, Note_on_c, 15, 59, 0
18, 135720, Note_on_c, 15, 57, 110
18, 135749, Note_on_c, 15, 57, 0
18, 135750, Note_on_c, 15, 64, 110
18, 135779, Note_on_c, 15, 64, 0
18, 135780, Note_on_c, 15, 61, 110
18, 135809, Note_on_c, 15, 61, 0
18, 135810, Note_on_c, 15, 57, 110
18, 135839, Note_on_c, 15, 57, 0
18, 135840, Note_on_c, 15, 56, 110
18, 135869, Note_on_c, 15, 56, 0
18, 135870, Note_on_c, 15, 64, 110
18, 135899, Note_on_c, 15, 64, 0
18, 135900, Note_on_c, 15, 59, 110
18, 135929, Note_on_c, 15, 59, 0
18, 135930, Note_on_c, 15, 56, 110
18, 135959, Note_on_c, 15, 56, 0
18, 135960, Note_on_c, 15, 52, 110
18, 136109, Note_on_c, 15, 52, 0
18, 136110, Note_on_c, 15, 64, 110
18, 136139, Note_on_c, 15, 64, 0
18, 136140, Note_on_c, 15, 61, 110
18, 136169, Note_on_c, 15, 61, 0
18, 136170, Note_on_c, 15, 59, 110
18, 136199, Note_on_c, 15, 59, 0
18, 136200, Note_on_c, 15, 58, 110
18, 136229, Note_on_c, 15, 58, 0
18, 136230, Note_on_c, 15, 64, 110
18, 136259, Note_on_c, 15, 64, 0
18, 136260, Note_on_c, 15, 61, 110
18, 136289, Note_on_c, 15, 61, 0
18, 136290, Note_on_c, 15, 58, 110
18, 136319, Note_on_c, 15, 58, 0
18, 136320, Note_on_c, 15, 54, 110
18, 136349, Note_on_c, 15, 54, 0
18, 136350, Note_on_c, 15, 64, 110
18, 136379, Note_on_c, 15, 64, 0
18, 136380, Note_on_c, 15, 61, 110
18, 136409, Note_on_c, 15, 61, 0
18, 136410, Note_on_c, 15, 58, 110
18, 136439, Note_on_c, 15, 58, 0
18, 136440, Note_on_c, 15, 52, 110
18, 136469, Note_on_c, 15, 52, 0
18, 136470, Note_on_c, 15, 61, 110
18, 136499, Note_on_c, 15, 61, 0
18, 136500, Note_on_c, 15, 58, 110
18, 136529, Note_on_c, 15, 58, 0
18, 136530, Note_on_c, 15, 54, 110
18, 136559, Note_on_c, 15, 54, 0
18, 136560, Note_on_c, 15, 50, 110
18, 136619, Note_on_c, 15, 50, 0
18, 136620, Note_on_c, 15, 55, 110
18, 136679, Note_on_c, 15, 55, 0
18, 136680, Note_on_c, 15, 52, 110
18, 136739, Note_on_c, 15, 52, 0
18, 136740, Note_on_c, 15, 54, 110
18, 136799, Note_on_c, 15, 54, 0
18, 136800, Note_on_c, 15, 47, 110
18, 136859, Note_on_c, 15, 47, 0
18, 136860, Note_on_c, 15, 50, 110
18, 136919, Note_on_c, 15, 50, 0
18, 136920, Note_on_c, 15, 49, 110
18, 136979, Note_on_c, 15, 49, 0
18, 136980, Note_on_c, 15, 46, 110
18, 137039, Note_on_c, 15, 46, 0
18, 137040, Note_on_c, 15, 47, 110
18, 137099, Note_on_c, 15, 47, 0
18, 137100, Note_on_c, 15, 42, 110
18, 137159, Note_on_c, 15, 42, 0
18, 137160, Note_on_c, 15, 46, 110
18, 137219, Note_on_c, 15, 46, 0
18, 137220, Note_on_c, 15, 42, 110
18, 137279, Note_on_c, 15, 42, 0
18, 137280, Note_on_c, 15, 47, 110
18, 137339, Note_on_c, 15, 47, 0
18, 137340, Note_on_c, 15, 50, 110
18, 137369, Note_on_c, 15, 50, 0
18, 137370, Note_on_c, 15, 49, 110
18, 137399, Note_on_c, 15, 49, 0
18, 137400, Note_on_c, 15, 47, 110
18, 137459, Note_on_c, 15, 47, 0
18, 137460, Note_on_c, 15, 45, 110
18, 137519, Note_on_c, 15, 45, 0
18, 137520, Note_on_c, 15, 44, 110
18, 137579, Note_on_c, 15, 44, 0
18, 137580, Note_on_c, 15, 45, 110
18, 137639, Note_on_c, 15, 45, 0
18, 137640, Note_on_c, 15, 47, 110
18, 137699, Note_on_c, 15, 47, 0
18, 137700, Note_on_c, 15, 44, 110
18, 137759, Note_on_c, 15, 44, 0
18, 137760, Note_on_c, 15, 49, 110
18, 137819, Note_on_c, 15, 49, 0
18, 137820, Note_on_c, 15, 51, 110
18, 137879, Note_on_c, 15, 51, 0
18, 137880, Note_on_c, 15, 53, 110
18, 137939, Note_on_c, 15, 53, 0
18, 137940, Note_on_c, 15, 49, 110
18, 137999, Note_on_c, 15, 49, 0
18, 138000, Note_on_c, 15, 54, 110
18, 138059, Note_on_c, 15, 54, 0
18, 138060, Note_on_c, 15, 45, 110
18, 138119, Note_on_c, 15, 45, 0
18, 138120, Note_on_c, 15, 47, 110
18, 138179, Note_on_c, 15, 47, 0
18, 138180, Note_on_c, 15, 49, 110
18, 138239, Note_on_c, 15, 49, 0
18, 138240, Note_on_c, 15, 42, 110
18, 138479, Note_on_c, 15, 42, 0
18, 138720, Control_c, 15, 0, 101
18, 138720, Control_c, 15, 0, 101
18, 138720, Program_c, 15, 42
18, 138720, Note_on_c, 15, 44, 90
18, 139199, Note_on_c, 15, 44, 0
18, 139200, Note_on_c, 15, 45, 90
18, 139439, Note_on_c, 15, 45, 0
18, 139440, Note_on_c, 15, 48, 90
18, 139679, Note_on_c, 15, 48, 0
18, 139680, Note_on_c, 15, 49, 90
18, 139799, Note_on_c, 15, 49, 0
18, 139800, Note_on_c, 15, 54, 90
18, 139919, Note_on_c, 15, 54, 0
18, 139920, Note_on_c, 15, 45, 90
18, 140039, Note_on_c, 15, 45, 0
18, 140040, Note_on_c, 15, 44, 90
18, 140159, Note_on_c, 15, 44, 0
18, 140160, Note_on_c, 15, 49, 100
18, 140640, Note_on_c, 15, 49, 0
18, 140640, Note_on_c, 15, 52, 100
18, 141600, Note_on_c, 15, 52, 0
18, 141600, Note_on_c, 15, 51, 100
18, 142560, Note_on_c, 15, 51, 0
18, 142560, Note_on_c, 15, 52, 100
18, 143040, Note_on_c, 15, 52, 0
18, 143040, Note_on_c, 15, 45, 100
18, 143400, Note_on_c, 15, 45, 0
18, 143400, Note_on_c, 15, 49, 100
18, 143520, Note_on_c, 15, 49, 0
18, 143640, Note_on_c, 15, 47, 100
18, 143760, Note_on_c, 15, 47, 0
18, 143760, Note_on_c, 15, 40, 90
18, 144239, Note_on_c, 15, 40, 0
18, 144240, Note_on_c, 15, 42, 90
18, 144479, Note_on_c, 15, 42, 0
18, 144480, Note_on_c, 15, 44, 90
18, 144959, Note_on_c, 15, 44, 0
18, 144960, Note_on_c, 15, 45, 90
18, 145679, Note_on_c, 15, 45, 0
18, 145680, Note_on_c, 15, 47, 90
18, 145919, Note_on_c, 15, 47, 0
18, 145920, Note_on_c, 15, 49, 90
18, 146159, Note_on_c, 15, 49, 0
18, 146160, Note_on_c, 15, 50, 90
18, 146639, Note_on_c, 15, 50, 0
18, 146640, Note_on_c, 15, 52, 90
18, 147119, Note_on_c, 15, 52, 0
18, 147120, Note_on_c, 15, 54, 90
18, 147599, Note_on_c, 15, 54, 0
18, 147600, Note_on_c, 15, 51, 90
18, 147839, Note_on_c, 15, 51, 0
18, 147840, Note_on_c, 15, 52, 90
18, 147899, Note_on_c, 15, 52, 0
18, 147900, Note_on_c, 15, 51, 90
18, 147959, Note_on_c, 15, 51, 0
18, 147960, Note_on_c, 15, 52, 90
18, 148019, Note_on_c, 15, 52, 0
18, 148020, Note_on_c, 15, 54, 90
18, 148079, Note_on_c, 15, 54, 0
18, 148080, Note_on_c, 15, 55, 90
18, 148139, Note_on_c, 15, 55, 0
18, 148140, Note_on_c, 15, 54, 90
18, 148199, Note_on_c, 15, 54, 0
18, 148200, Note_on_c, 15, 55, 90
18, 148259, Note_on_c, 15, 55, 0
18, 148260, Note_on_c, 15, 57, 90
18, 148319, Note_on_c, 15, 57, 0
18, 148320, Note_on_c, 15, 59, 90
18, 148379, Note_on_c, 15, 59, 0
18, 148380, Note_on_c, 15, 47, 90
18, 148439, Note_on_c, 15, 47, 0
18, 148440, Note_on_c, 15, 48, 90
18, 148499, Note_on_c, 15, 48, 0
18, 148500, Note_on_c, 15, 50, 90
18, 148559, Note_on_c, 15, 50, 0
18, 148560, Note_on_c, 15, 52, 90
18, 148619, Note_on_c, 15, 52, 0
18, 148620, Note_on_c, 15, 50, 90
18, 148679, Note_on_c, 15, 50, 0
18, 148680, Note_on_c, 15, 52, 90
18, 148739, Note_on_c, 15, 52, 0
18, 148740, Note_on_c, 15, 54, 90
18, 148799, Note_on_c, 15, 54, 0
18, 148800, Note_on_c, 15, 55, 90
18, 148859, Note_on_c, 15, 55, 0
18, 148860, Note_on_c, 15, 43, 90
18, 148919, Note_on_c, 15, 43, 0
18, 148920, Note_on_c, 15, 45, 90
18, 148979, Note_on_c, 15, 45, 0
18, 148980, Note_on_c, 15, 47, 90
18, 149039, Note_on_c, 15, 47, 0
18, 149040, Note_on_c, 15, 48, 90
18, 149099, Note_on_c, 15, 48, 0
18, 149100, Note_on_c, 15, 47, 90
18, 149159, Note_on_c, 15, 47, 0
18, 149160, Note_on_c, 15, 48, 90
18, 149219, Note_on_c, 15, 48, 0
18, 149220, Note_on_c, 15, 45, 90
18, 149279, Note_on_c, 15, 45, 0
18, 149280, Note_on_c, 15, 50, 90
18, 149339, Note_on_c, 15, 50, 0
18, 149340, Note_on_c, 15, 52, 90
18, 149399, Note_on_c, 15, 52, 0
18, 149400, Note_on_c, 15, 54, 90
18, 149459, Note_on_c, 15, 54, 0
18, 149460, Note_on_c, 15, 50, 90
18, 149519, Note_on_c, 15, 50, 0
18, 149520, Note_on_c, 15, 55, 90
18, 149579, Note_on_c, 15, 55, 0
18, 149580, Note_on_c, 15, 54, 90
18, 149639, Note_on_c, 15, 54, 0
18, 149640, Note_on_c, 15, 55, 90
18, 149699, Note_on_c, 15, 55, 0
18, 149700, Note_on_c, 15, 52, 90
18, 149759, Note_on_c, 15, 52, 0
18, 149760, Note_on_c, 15, 58, 90
18, 149819, Note_on_c, 15, 58, 0
18, 149820, Note_on_c, 15, 54, 90
18, 149879, Note_on_c, 15, 54, 0
18, 149880, Note_on_c, 15, 59, 90
18, 149939, Note_on_c, 15, 59, 0
18, 149940, Note_on_c, 15, 55, 90
18, 149999, Note_on_c, 15, 55, 0
18, 150000, Note_on_c, 15, 54, 90
18, 150059, Note_on_c, 15, 54, 0
18, 150060, Note_on_c, 15, 55, 90
18, 150119, Note_on_c, 15, 55, 0
18, 150120, Note_on_c, 15, 54, 90
18, 150179, Note_on_c, 15, 54, 0
18, 150180, Note_on_c, 15, 52, 90
18, 150239, Note_on_c, 15, 52, 0
18, 150240, Note_on_c, 15, 50, 90
18, 150299, Note_on_c, 15, 50, 0
18, 150300, Note_on_c, 15, 49, 90
18, 150359, Note_on_c, 15, 49, 0
18, 150360, Note_on_c, 15, 50, 90
18, 150419, Note_on_c, 15, 50, 0
18, 150420, Note_on_c, 15, 47, 90
18, 150479, Note_on_c, 15, 47, 0
18, 150480, Note_on_c, 15, 52, 90
18, 150539, Note_on_c, 15, 52, 0
18, 150540, Note_on_c, 15, 50, 90
18, 150599, Note_on_c, 15, 50, 0
18, 150600, Note_on_c, 15, 52, 90
18, 150659, Note_on_c, 15, 52, 0
18, 150660, Note_on_c, 15, 49, 90
18, 150719, Note_on_c, 15, 49, 0
18, 150720, Note_on_c, 15, 54, 90
18, 150779, Note_on_c, 15, 54, 0
18, 150780, Note_on_c, 15, 52, 90
18, 150839, Note_on_c, 15, 52, 0
18, 150840, Note_on_c, 15, 54, 90
18, 150899, Note_on_c, 15, 54, 0
18, 150900, Note_on_c, 15, 50, 90
18, 150959, Note_on_c, 15, 50, 0
18, 150960, Note_on_c, 15, 55, 90
18, 151019, Note_on_c, 15, 55, 0
18, 151020, Note_on_c, 15, 54, 90
18, 151079, Note_on_c, 15, 54, 0
18, 151080, Note_on_c, 15, 52, 90
18, 151139, Note_on_c, 15, 52, 0
18, 151140, Note_on_c, 15, 50, 90
18, 151199, Note_on_c, 15, 50, 0
18, 151200, Note_on_c, 15, 49, 90
18, 151259, Note_on_c, 15, 49, 0
18, 151260, Note_on_c, 15, 50, 90
18, 151319, Note_on_c, 15, 50, 0
18, 151320, Note_on_c, 15, 49, 90
18, 151379, Note_on_c, 15, 49, 0
18, 151380, Note_on_c, 15, 47, 90
18, 151439, Note_on_c, 15, 47, 0
18, 151440, Note_on_c, 15, 46, 90
18, 151619, Note_on_c, 15, 46, 0
18, 151620, Note_on_c, 15, 47, 90
18, 151649, Note_on_c, 15, 47, 0
18, 151650, Note_on_c, 15, 49, 90
18, 151679, Note_on_c, 15, 49, 0
18, 151680, Note_on_c, 15, 42, 90
18, 151739, Note_on_c, 15, 42, 0
18, 151740, Note_on_c, 15, 52, 90
18, 151799, Note_on_c, 15, 52, 0
18, 151800, Note_on_c, 15, 50, 90
18, 151859, Note_on_c, 15, 50, 0
18, 151860, Note_on_c, 15, 55, 90
18, 151919, Note_on_c, 15, 55, 0
18, 151920, Note_on_c, 15, 54, 90
18, 151979, Note_on_c, 15, 54, 0
18, 151980, Note_on_c, 15, 52, 90
18, 152039, Note_on_c, 15, 52, 0
18, 152040, Note_on_c, 15, 54, 90
18, 152099, Note_on_c, 15, 54, 0
18, 152100, Note_on_c, 15, 42, 90
18, 152159, Note_on_c, 15, 42, 0
18, 152160, Note_on_c, 15, 47, 90
18, 152219, Note_on_c, 15, 47, 0
18, 152220, Note_on_c, 15, 59, 90
18, 152279, Note_on_c, 15, 59, 0
18, 152280, Note_on_c, 15, 57, 90
18, 152339, Note_on_c, 15, 57, 0
18, 152340, Note_on_c, 15, 54, 90
18, 152399, Note_on_c, 15, 54, 0
18, 152400, Note_on_c, 15, 43, 90
18, 152459, Note_on_c, 15, 43, 0
18, 152460, Note_on_c, 15, 55, 90
18, 152519, Note_on_c, 15, 55, 0
18, 152520, Note_on_c, 15, 54, 90
18, 152579, Note_on_c, 15, 54, 0
18, 152580, Note_on_c, 15, 50, 90
18, 152639, Note_on_c, 15, 50, 0
18, 152640, Note_on_c, 15, 52, 90
18, 152699, Note_on_c, 15, 52, 0
18, 152700, Note_on_c, 15, 49, 90
18, 152759, Note_on_c, 15, 49, 0
18, 152760, Note_on_c, 15, 54, 90
18, 152819, Note_on_c, 15, 54, 0
18, 152820, Note_on_c, 15, 42, 90
18, 152879, Note_on_c, 15, 42, 0
18, 152880, Note_on_c, 15, 47, 90
18, 153119, Note_on_c, 15, 47, 0
18, 153240, Control_c, 15, 0, 40
18, 153240, Control_c, 15, 0, 40
18, 153240, Program_c, 15, 42
18, 153240, Note_on_c, 15, 47, 90
18, 153299, Note_on_c, 15, 47, 0
18, 153360, Note_on_c, 15, 49, 90
18, 153419, Note_on_c, 15, 49, 0
18, 153480, Note_on_c, 15, 50, 90
18, 153539, Note_on_c, 15, 50, 0
18, 153600, Note_on_c, 15, 52, 90
18, 153659, Note_on_c, 15, 52, 0
18, 153720, Note_on_c, 15, 54, 90
18, 153779, Note_on_c, 15, 54, 0
18, 153780, Note_on_c, 15, 47, 90
18, 153839, Note_on_c, 15, 47, 0
18, 153840, Note_on_c, 15, 46, 90
18, 153899, Note_on_c, 15, 46, 0
18, 153900, Note_on_c, 15, 47, 90
18, 153959, Note_on_c, 15, 47, 0
18, 153960, Note_on_c, 15, 42, 90
18, 154019, Note_on_c, 15, 42, 0
18, 154020, Note_on_c, 15, 54, 90
18, 154049, Note_on_c, 15, 54, 0
18, 154050, Note_on_c, 15, 56, 90
18, 154079, Note_on_c, 15, 56, 0
18, 154080, Note_on_c, 15, 58, 90
18, 154139, Note_on_c, 15, 58, 0
18, 154140, Note_on_c, 15, 54, 90
18, 154199, Note_on_c, 15, 54, 0
18, 154200, Note_on_c, 15, 59, 90
18, 154259, Note_on_c, 15, 59, 0
18, 154260, Note_on_c, 15, 61, 90
18, 154319, Note_on_c, 15, 61, 0
18, 154320, Note_on_c, 15, 62, 90
18, 154379, Note_on_c, 15, 62, 0
18, 154380, Note_on_c, 15, 61, 90
18, 154439, Note_on_c, 15, 61, 0
18, 154440, Note_on_c, 15, 59, 90
18, 154499, Note_on_c, 15, 59, 0
18, 154500, Note_on_c, 15, 61, 90
18, 154559, Note_on_c, 15, 61, 0
18, 154560, Note_on_c, 15, 59, 90
18, 154619, Note_on_c, 15, 59, 0
18, 154620, Note_on_c, 15, 57, 90
18, 154679, Note_on_c, 15, 57, 0
18, 154680, Note_on_c, 15, 56, 90
18, 154739, Note_on_c, 15, 56, 0
18, 154800, Note_on_c, 15, 59, 90
18, 154859, Note_on_c, 15, 59, 0
18, 154920, Note_on_c, 15, 56, 90
18, 154979, Note_on_c, 15, 56, 0
18, 155040, Note_on_c, 15, 52, 90
18, 155099, Note_on_c, 15, 52, 0
18, 155160, Note_on_c, 15, 57, 90
18, 155219, Note_on_c, 15, 57, 0
18, 155220, Note_on_c, 15, 59, 90
18, 155279, Note_on_c, 15, 59, 0
18, 155280, Note_on_c, 15, 61, 90
18, 155339, Note_on_c, 15, 61, 0
18, 155340, Note_on_c, 15, 59, 90
18, 155399, Note_on_c, 15, 59, 0
18, 155400, Note_on_c, 15, 57, 90
18, 155459, Note_on_c, 15, 57, 0
18, 155460, Note_on_c, 15, 59, 90
18, 155519, Note_on_c, 15, 59, 0
18, 155520, Note_on_c, 15, 57, 90
18, 155579, Note_on_c, 15, 57, 0
18, 155580, Note_on_c, 15, 55, 90
18, 155639, Note_on_c, 15, 55, 0
18, 155640, Note_on_c, 15, 54, 90
18, 155699, Note_on_c, 15, 54, 0
18, 155760, Note_on_c, 15, 57, 90
18, 155819, Note_on_c, 15, 57, 0
18, 155880, Note_on_c, 15, 54, 90
18, 155939, Note_on_c, 15, 54, 0
18, 156000, Note_on_c, 15, 50, 90
18, 156059, Note_on_c, 15, 50, 0
18, 156120, Note_on_c, 15, 55, 90
18, 156179, Note_on_c, 15, 55, 0
18, 156180, Note_on_c, 15, 57, 90
18, 156239, Note_on_c, 15, 57, 0
18, 156240, Note_on_c, 15, 55, 90
18, 156299, Note_on_c, 15, 55, 0
18, 156300, Note_on_c, 15, 54, 90
18, 156359, Note_on_c, 15, 54, 0
18, 156360, Note_on_c, 15, 52, 90
18, 156419, Note_on_c, 15, 52, 0
18, 156420, Note_on_c, 15, 54, 90
18, 156479, Note_on_c, 15, 54, 0
18, 156480, Note_on_c, 15, 55, 90
18, 156539, Note_on_c, 15, 55, 0
18, 156540, Note_on_c, 15, 52, 90
18, 156599, Note_on_c, 15, 52, 0
18, 156600, Note_on_c, 15, 54, 90
18, 156659, Note_on_c, 15, 54, 0
18, 156660, Note_on_c, 15, 55, 90
18, 156719, Note_on_c, 15, 55, 0
18, 156720, Note_on_c, 15, 54, 90
18, 156779, Note_on_c, 15, 54, 0
18, 156780, Note_on_c, 15, 52, 90
18, 156839, Note_on_c, 15, 52, 0
18, 156840, Note_on_c, 15, 50, 90
18, 156899, Note_on_c, 15, 50, 0
18, 156900, Note_on_c, 15, 52, 90
18, 156959, Note_on_c, 15, 52, 0
18, 156960, Note_on_c, 15, 54, 90
18, 157019, Note_on_c, 15, 54, 0
18, 157020, Note_on_c, 15, 50, 90
18, 157079, Note_on_c, 15, 50, 0
18, 157080, Note_on_c, 15, 52, 90
18, 157139, Note_on_c, 15, 52, 0
18, 157140, Note_on_c, 15, 50, 90
18, 157199, Note_on_c, 15, 50, 0
18, 157200, Note_on_c, 15, 49, 90
18, 157259, Note_on_c, 15, 49, 0
18, 157260, Note_on_c, 15, 50, 90
18, 157319, Note_on_c, 15, 50, 0
18, 157320, Note_on_c, 15, 52, 90
18, 157379, Note_on_c, 15, 52, 0
18, 157380, Note_on_c, 15, 49, 90
18, 157439, Note_on_c, 15, 49, 0
18, 157440, Note_on_c, 15, 46, 90
18, 157499, Note_on_c, 15, 46, 0
18, 157500, Note_on_c, 15, 42, 90
18, 157559, Note_on_c, 15, 42, 0
18, 157560, Note_on_c, 15, 47, 90
18, 157619, Note_on_c, 15, 47, 0
18, 157620, Note_on_c, 15, 50, 90
18, 157679, Note_on_c, 15, 50, 0
18, 157680, Note_on_c, 15, 54, 90
18, 157739, Note_on_c, 15, 54, 0
18, 157740, Note_on_c, 15, 42, 90
18, 157799, Note_on_c, 15, 42, 0
18, 157800, Note_on_c, 15, 47, 90
18, 157859, Note_on_c, 15, 47, 0
18, 157860, Note_on_c, 15, 59, 90
18, 157919, Note_on_c, 15, 59, 0
18, 157920, Note_on_c, 15, 58, 90
18, 157979, Note_on_c, 15, 58, 0
18, 157980, Note_on_c, 15, 54, 90
18, 158039, Note_on_c, 15, 54, 0
18, 158040, Note_on_c, 15, 47, 90
18, 158099, Note_on_c, 15, 47, 0
18, 158160, Note_on_c, 15, 49, 90
18, 158219, Note_on_c, 15, 49, 0
18, 158280, Note_on_c, 15, 50, 90
18, 158339, Note_on_c, 15, 50, 0
18, 158400, Note_on_c, 15, 52, 90
18, 158459, Note_on_c, 15, 52, 0
18, 158520, Note_on_c, 15, 54, 90
18, 158579, Note_on_c, 15, 54, 0
18, 158580, Note_on_c, 15, 47, 90
18, 158639, Note_on_c, 15, 47, 0
18, 158640, Note_on_c, 15, 46, 90
18, 158699, Note_on_c, 15, 46, 0
18, 158700, Note_on_c, 15, 47, 90
18, 158759, Note_on_c, 15, 47, 0
18, 158760, Note_on_c, 15, 42, 90
18, 158819, Note_on_c, 15, 42, 0
18, 158820, Note_on_c, 15, 54, 90
18, 158849, Note_on_c, 15, 54, 0
18, 158850, Note_on_c, 15, 56, 90
18, 158879, Note_on_c, 15, 56, 0
18, 158880, Note_on_c, 15, 58, 90
18, 158939, Note_on_c, 15, 58, 0
18, 158940, Note_on_c, 15, 54, 90
18, 158999, Note_on_c, 15, 54, 0
18, 159000, Note_on_c, 15, 59, 90
18, 159059, Note_on_c, 15, 59, 0
18, 159120, Note_on_c, 15, 49, 90
18, 159179, Note_on_c, 15, 49, 0
18, 159240, Note_on_c, 15, 50, 90
18, 159299, Note_on_c, 15, 50, 0
18, 159360, Note_on_c, 15, 52, 90
18, 159419, Note_on_c, 15, 52, 0
18, 159480, Note_on_c, 15, 52, 90
18, 159539, Note_on_c, 15, 52, 0
18, 159540, Note_on_c, 15, 50, 90
18, 159599, Note_on_c, 15, 50, 0
18, 159600, Note_on_c, 15, 46, 90
18, 159659, Note_on_c, 15, 46, 0
18, 159660, Note_on_c, 15, 47, 90
18, 159719, Note_on_c, 15, 47, 0
18, 159720, Note_on_c, 15, 42, 90
18, 159779, Note_on_c, 15, 42, 0
18, 159780, Note_on_c, 15, 54, 90
18, 159839, Note_on_c, 15, 54, 0
18, 159840, Note_on_c, 15, 46, 90
18, 159899, Note_on_c, 15, 46, 0
18, 159900, Note_on_c, 15, 42, 90
18, 159959, Note_on_c, 15, 42, 0
18, 159960, Note_on_c, 15, 47, 90
18, 160019, Note_on_c, 15, 47, 0
18, 160020, Note_on_c, 15, 49, 90
18, 160079, Note_on_c, 15, 49, 0
18, 160080, Note_on_c, 15, 50, 90
18, 160139, Note_on_c, 15, 50, 0
18, 160140, Note_on_c, 15, 49, 90
18, 160199, Note_on_c, 15, 49, 0
18, 160200, Note_on_c, 15, 47, 90
18, 160259, Note_on_c, 15, 47, 0
18, 160260, Note_on_c, 15, 49, 90
18, 160319, Note_on_c, 15, 49, 0
18, 160320, Note_on_c, 15, 47, 90
18, 160379, Note_on_c, 15, 47, 0
18, 160380, Note_on_c, 15, 45, 90
18, 160439, Note_on_c, 15, 45, 0
18, 160440, Note_on_c, 15, 44, 90
18, 160499, Note_on_c, 15, 44, 0
18, 160560, Note_on_c, 15, 47, 90
18, 160619, Note_on_c, 15, 47, 0
18, 160680, Note_on_c, 15, 44, 90
18, 160739, Note_on_c, 15, 44, 0
18, 160800, Note_on_c, 15, 40, 90
18, 160859, Note_on_c, 15, 40, 0
18, 160920, Note_on_c, 15, 45, 90
18, 160979, Note_on_c, 15, 45, 0
18, 160980, Note_on_c, 15, 47, 90
18, 161039, Note_on_c, 15, 47, 0
18, 161040, Note_on_c, 15, 49, 90
18, 161099, Note_on_c, 15, 49, 0
18, 161100, Note_on_c, 15, 47, 90
18, 161159, Note_on_c, 15, 47, 0
18, 161160, Note_on_c, 15, 45, 90
18, 161219, Note_on_c, 15, 45, 0
18, 161220, Note_on_c, 15, 47, 90
18, 161279, Note_on_c, 15, 47, 0
18, 161280, Note_on_c, 15, 45, 90
18, 161339, Note_on_c, 15, 45, 0
18, 161340, Note_on_c, 15, 43, 90
18, 161399, Note_on_c, 15, 43, 0
18, 161400, Note_on_c, 15, 42, 90
18, 161459, Note_on_c, 15, 42, 0
18, 161520, Note_on_c, 15, 45, 90
18, 161579, Note_on_c, 15, 45, 0
18, 161640, Note_on_c, 15, 42, 90
18, 161699, Note_on_c, 15, 42, 0
18, 161760, Note_on_c, 15, 38, 90
18, 161819, Note_on_c, 15, 38, 0
18, 161880, Note_on_c, 15, 55, 90
18, 161939, Note_on_c, 15, 55, 0
18, 161940, Note_on_c, 15, 54, 90
18, 161999, Note_on_c, 15, 54, 0
18, 162000, Note_on_c, 15, 52, 90
18, 162059, Note_on_c, 15, 52, 0
18, 162060, Note_on_c, 15, 50, 90
18, 162119, Note_on_c, 15, 50, 0
18, 162120, Note_on_c, 15, 49, 90
18, 162179, Note_on_c, 15, 49, 0
18, 162180, Note_on_c, 15, 47, 90
18, 162209, Note_on_c, 15, 47, 0
18, 162210, Note_on_c, 15, 45, 90
18, 162239, Note_on_c, 15, 45, 0
18, 162240, Note_on_c, 15, 47, 90
18, 162299, Note_on_c, 15, 47, 0
18, 162300, Note_on_c, 15, 49, 90
18, 162359, Note_on_c, 15, 49, 0
18, 162360, Note_on_c, 15, 50, 90
18, 162419, Note_on_c, 15, 50, 0
18, 162420, Note_on_c, 15, 42, 90
18, 162479, Note_on_c, 15, 42, 0
18, 162480, Note_on_c, 15, 43, 90
18, 162539, Note_on_c, 15, 43, 0
18, 162540, Note_on_c, 15, 45, 90
18, 162599, Note_on_c, 15, 45, 0
18, 162600, Note_on_c, 15, 38, 90
18, 162659, Note_on_c, 15, 38, 0
18, 162660, Note_on_c, 15, 40, 90
18, 162719, Note_on_c, 15, 40, 0
18, 162720, Note_on_c, 15, 42, 90
18, 162779, Note_on_c, 15, 42, 0
18, 162780, Note_on_c, 15, 43, 90
18, 162839, Note_on_c, 15, 43, 0
18, 162840, Note_on_c, 15, 45, 90
18, 162899, Note_on_c, 15, 45, 0
18, 162900, Note_on_c, 15, 47, 90
18, 162959, Note_on_c, 15, 47, 0
18, 162960, Note_on_c, 15, 49, 90
18, 163019, Note_on_c, 15, 49, 0
18, 163020, Note_on_c, 15, 45, 90
18, 163079, Note_on_c, 15, 45, 0
18, 163080, Note_on_c, 15, 50, 90
18, 163139, Note_on_c, 15, 50, 0
18, 163140, Note_on_c, 15, 52, 90
18, 163199, Note_on_c, 15, 52, 0
18, 163200, Note_on_c, 15, 54, 90
18, 163259, Note_on_c, 15, 54, 0
18, 163260, Note_on_c, 15, 55, 90
18, 163319, Note_on_c, 15, 55, 0
18, 163320, Note_on_c, 15, 57, 90
18, 163379, Note_on_c, 15, 57, 0
18, 163380, Note_on_c, 15, 59, 90
18, 163439, Note_on_c, 15, 59, 0
18, 163440, Note_on_c, 15, 61, 90
18, 163499, Note_on_c, 15, 61, 0
18, 163500, Note_on_c, 15, 59, 90
18, 163559, Note_on_c, 15, 59, 0
18, 163560, Note_on_c, 15, 58, 90
18, 163619, Note_on_c, 15, 58, 0
18, 163620, Note_on_c, 15, 56, 90
18, 163679, Note_on_c, 15, 56, 0
18, 163680, Note_on_c, 15, 58, 90
18, 163739, Note_on_c, 15, 58, 0
18, 163740, Note_on_c, 15, 54, 90
18, 163799, Note_on_c, 15, 54, 0
18, 163800, Note_on_c, 15, 47, 90
18, 163859, Note_on_c, 15, 47, 0
18, 163860, Note_on_c, 15, 49, 90
18, 163919, Note_on_c, 15, 49, 0
18, 163920, Note_on_c, 15, 50, 90
18, 163979, Note_on_c, 15, 50, 0
18, 163980, Note_on_c, 15, 52, 90
18, 164039, Note_on_c, 15, 52, 0
18, 164040, Note_on_c, 15, 54, 90
18, 164099, Note_on_c, 15, 54, 0
18, 164100, Note_on_c, 15, 56, 90
18, 164159, Note_on_c, 15, 56, 0
18, 164160, Note_on_c, 15, 57, 90
18, 164219, Note_on_c, 15, 57, 0
18, 164220, Note_on_c, 15, 54, 90
18, 164279, Note_on_c, 15, 54, 0
18, 164280, Note_on_c, 15, 47, 90
18, 164339, Note_on_c, 15, 47, 0
18, 164340, Note_on_c, 15, 49, 90
18, 164399, Note_on_c, 15, 49, 0
18, 164400, Note_on_c, 15, 50, 90
18, 164459, Note_on_c, 15, 50, 0
18, 164460, Note_on_c, 15, 52, 90
18, 164519, Note_on_c, 15, 52, 0
18, 164520, Note_on_c, 15, 54, 90
18, 164579, Note_on_c, 15, 54, 0
18, 164580, Note_on_c, 15, 56, 90
18, 164639, Note_on_c, 15, 56, 0
18, 164640, Note_on_c, 15, 57, 90
18, 164699, Note_on_c, 15, 57, 0
18, 164700, Note_on_c, 15, 54, 90
18, 164759, Note_on_c, 15, 54, 0
18, 164760, Note_on_c, 15, 59, 90
18, 164819, Note_on_c, 15, 59, 0
18, 164820, Note_on_c, 15, 61, 90
18, 164879, Note_on_c, 15, 61, 0
18, 164880, Note_on_c, 15, 62, 90
18, 164939, Note_on_c, 15, 62, 0
18, 164940, Note_on_c, 15, 59, 90
18, 164999, Note_on_c, 15, 59, 0
18, 165000, Note_on_c, 15, 61, 90
18, 165059, Note_on_c, 15, 61, 0
18, 165060, Note_on_c, 15, 59, 90
18, 165119, Note_on_c, 15, 59, 0
18, 165120, Note_on_c, 15, 57, 90
18, 165179, Note_on_c, 15, 57, 0
18, 165180, Note_on_c, 15, 59, 90
18, 165239, Note_on_c, 15, 59, 0
18, 165240, Note_on_c, 15, 61, 90
18, 165299, Note_on_c, 15, 61, 0
18, 165300, Note_on_c, 15, 59, 90
18, 165359, Note_on_c, 15, 59, 0
18, 165360, Note_on_c, 15, 61, 90
18, 165419, Note_on_c, 15, 61, 0
18, 165420, Note_on_c, 15, 49, 90
18, 165479, Note_on_c, 15, 49, 0
18, 165480, Note_on_c, 15, 42, 90
18, 165539, Note_on_c, 15, 42, 0
18, 165540, Note_on_c, 15, 44, 90
18, 165599, Note_on_c, 15, 44, 0
18, 165600, Note_on_c, 15, 45, 90
18, 165659, Note_on_c, 15, 45, 0
18, 165660, Note_on_c, 15, 47, 90
18, 165719, Note_on_c, 15, 47, 0
18, 165720, Note_on_c, 15, 49, 90
18, 165779, Note_on_c, 15, 49, 0
18, 165780, Note_on_c, 15, 47, 90
18, 165839, Note_on_c, 15, 47, 0
18, 165840, Note_on_c, 15, 45, 90
18, 165899, Note_on_c, 15, 45, 0
18, 165900, Note_on_c, 15, 44, 90
18, 165959, Note_on_c, 15, 44, 0
18, 165960, Note_on_c, 15, 42, 90
18, 166019, Note_on_c, 15, 42, 0
18, 166020, Note_on_c, 15, 49, 90
18, 166079, Note_on_c, 15, 49, 0
18, 166080, Note_on_c, 15, 54, 90
18, 166139, Note_on_c, 15, 54, 0
18, 166140, Note_on_c, 15, 42, 90
18, 166199, Note_on_c, 15, 42, 0
18, 166200, Note_on_c, 15, 47, 90
18, 166259, Note_on_c, 15, 47, 0
18, 166320, Note_on_c, 15, 52, 90
18, 166379, Note_on_c, 15, 52, 0
18, 166440, Note_on_c, 15, 45, 90
18, 166499, Note_on_c, 15, 45, 0
18, 166560, Note_on_c, 15, 50, 90
18, 166619, Note_on_c, 15, 50, 0
18, 166680, Note_on_c, 15, 44, 90
18, 166739, Note_on_c, 15, 44, 0
18, 166800, Note_on_c, 15, 49, 90
18, 166859, Note_on_c, 15, 49, 0
18, 166920, Note_on_c, 15, 42, 90
18, 166979, Note_on_c, 15, 42, 0
18, 166980, Note_on_c, 15, 54, 90
18, 167039, Note_on_c, 15, 54, 0
18, 167040, Note_on_c, 15, 52, 90
18, 167099, Note_on_c, 15, 52, 0
18, 167100, Note_on_c, 15, 50, 90
18, 167159, Note_on_c, 15, 50, 0
18, 167160, Note_on_c, 15, 49, 90
18, 167279, Note_on_c, 15, 49, 0
18, 167340, Note_on_c, 15, 61, 90
18, 167399, Note_on_c, 15, 61, 0
18, 167400, Note_on_c, 15, 62, 90
18, 167459, Note_on_c, 15, 62, 0
18, 167460, Note_on_c, 15, 59, 90
18, 167519, Note_on_c, 15, 59, 0
18, 167520, Note_on_c, 15, 61, 90
18, 167579, Note_on_c, 15, 61, 0
18, 167580, Note_on_c, 15, 49, 90
18, 167639, Note_on_c, 15, 49, 0
18, 167640, Note_on_c, 15, 54, 90
18, 167699, Note_on_c, 15, 54, 0
18, 167760, Note_on_c, 15, 56, 90
18, 167819, Note_on_c, 15, 56, 0
18, 167880, Note_on_c, 15, 57, 90
18, 167939, Note_on_c, 15, 57, 0
18, 168000, Note_on_c, 15, 59, 90
18, 168059, Note_on_c, 15, 59, 0
18, 168120, Note_on_c, 15, 61, 90
18, 168179, Note_on_c, 15, 61, 0
18, 168180, Note_on_c, 15, 54, 90
18, 168239, Note_on_c, 15, 54, 0
18, 168240, Note_on_c, 15, 53, 90
18, 168299, Note_on_c, 15, 53, 0
18, 168300, Note_on_c, 15, 54, 90
18, 168359, Note_on_c, 15, 54, 0
18, 168360, Note_on_c, 15, 61, 90
18, 168419, Note_on_c, 15, 61, 0
18, 168420, Note_on_c, 15, 49, 90
18, 168449, Note_on_c, 15, 49, 0
18, 168450, Note_on_c, 15, 51, 90
18, 168479, Note_on_c, 15, 51, 0
18, 168480, Note_on_c, 15, 53, 90
18, 168539, Note_on_c, 15, 53, 0
18, 168540, Note_on_c, 15, 49, 90
18, 168599, Note_on_c, 15, 49, 0
18, 168600, Note_on_c, 15, 54, 90
18, 168659, Note_on_c, 15, 54, 0
18, 168660, Note_on_c, 15, 56, 90
18, 168719, Note_on_c, 15, 56, 0
18, 168720, Note_on_c, 15, 57, 90
18, 168779, Note_on_c, 15, 57, 0
18, 168780, Note_on_c, 15, 56, 90
18, 168839, Note_on_c, 15, 56, 0
18, 168840, Note_on_c, 15, 54, 90
18, 168899, Note_on_c, 15, 54, 0
18, 168900, Note_on_c, 15, 56, 90
18, 168959, Note_on_c, 15, 56, 0
18, 168960, Note_on_c, 15, 54, 90
18, 169019, Note_on_c, 15, 54, 0
18, 169020, Note_on_c, 15, 52, 90
18, 169079, Note_on_c, 15, 52, 0
18, 169080, Note_on_c, 15, 51, 90
18, 169139, Note_on_c, 15, 51, 0
18, 169200, Note_on_c, 15, 54, 90
18, 169259, Note_on_c, 15, 54, 0
18, 169320, Note_on_c, 15, 51, 90
18, 169379, Note_on_c, 15, 51, 0
18, 169440, Note_on_c, 15, 47, 90
18, 169499, Note_on_c, 15, 47, 0
18, 169560, Note_on_c, 15, 52, 90
18, 169619, Note_on_c, 15, 52, 0
18, 169620, Note_on_c, 15, 54, 90
18, 169679, Note_on_c, 15, 54, 0
18, 169680, Note_on_c, 15, 56, 90
18, 169739, Note_on_c, 15, 56, 0
18, 169740, Note_on_c, 15, 54, 90
18, 169799, Note_on_c, 15, 54, 0
18, 169800, Note_on_c, 15, 52, 90
18, 169859, Note_on_c, 15, 52, 0
18, 169860, Note_on_c, 15, 54, 90
18, 169919, Note_on_c, 15, 54, 0
18, 169920, Note_on_c, 15, 52, 90
18, 169979, Note_on_c, 15, 52, 0
18, 169980, Note_on_c, 15, 50, 90
18, 170039, Note_on_c, 15, 50, 0
18, 170040, Note_on_c, 15, 49, 90
18, 170099, Note_on_c, 15, 49, 0
18, 170160, Note_on_c, 15, 52, 90
18, 170219, Note_on_c, 15, 52, 0
18, 170280, Note_on_c, 15, 49, 90
18, 170339, Note_on_c, 15, 49, 0
18, 170400, Note_on_c, 15, 45, 90
18, 170459, Note_on_c, 15, 45, 0
18, 170520, Note_on_c, 15, 50, 90
18, 170579, Note_on_c, 15, 50, 0
18, 170580, Note_on_c, 15, 52, 90
18, 170639, Note_on_c, 15, 52, 0
18, 170640, Note_on_c, 15, 50, 90
18, 170699, Note_on_c, 15, 50, 0
18, 170700, Note_on_c, 15, 49, 90
18, 170759, Note_on_c, 15, 49, 0
18, 170760, Note_on_c, 15, 47, 90
18, 170819, Note_on_c, 15, 47, 0
18, 170820, Note_on_c, 15, 49, 90
18, 170879, Note_on_c, 15, 49, 0
18, 170880, Note_on_c, 15, 50, 90
18, 170939, Note_on_c, 15, 50, 0
18, 170940, Note_on_c, 15, 47, 90
18, 170999, Note_on_c, 15, 47, 0
18, 171000, Note_on_c, 15, 49, 90
18, 171059, Note_on_c, 15, 49, 0
18, 171060, Note_on_c, 15, 50, 90
18, 171119, Note_on_c, 15, 50, 0
18, 171120, Note_on_c, 15, 49, 90
18, 171179, Note_on_c, 15, 49, 0
18, 171180, Note_on_c, 15, 47, 90
18, 171239, Note_on_c, 15, 47, 0
18, 171240, Note_on_c, 15, 45, 90
18, 171299, Note_on_c, 15, 45, 0
18, 171300, Note_on_c, 15, 47, 90
18, 171359, Note_on_c, 15, 47, 0
18, 171360, Note_on_c, 15, 49, 90
18, 171419, Note_on_c, 15, 49, 0
18, 171420, Note_on_c, 15, 45, 90
18, 171479, Note_on_c, 15, 45, 0
18, 171480, Note_on_c, 15, 47, 90
18, 171539, Note_on_c, 15, 47, 0
18, 171540, Note_on_c, 15, 45, 90
18, 171599, Note_on_c, 15, 45, 0
18, 171600, Note_on_c, 15, 44, 90
18, 171659, Note_on_c, 15, 44, 0
18, 171660, Note_on_c, 15, 45, 90
18, 171719, Note_on_c, 15, 45, 0
18, 171720, Note_on_c, 15, 47, 90
18, 171779, Note_on_c, 15, 47, 0
18, 171780, Note_on_c, 15, 56, 90
18, 171839, Note_on_c, 15, 56, 0
18, 171840, Note_on_c, 15, 53, 90
18, 171899, Note_on_c, 15, 53, 0
18, 171900, Note_on_c, 15, 49, 90
18, 171959, Note_on_c, 15, 49, 0
18, 171960, Note_on_c, 15, 54, 90
18, 172019, Note_on_c, 15, 54, 0
18, 172020, Note_on_c, 15, 57, 90
18, 172079, Note_on_c, 15, 57, 0
18, 172080, Note_on_c, 15, 61, 90
18, 172139, Note_on_c, 15, 61, 0
18, 172140, Note_on_c, 15, 49, 90
18, 172199, Note_on_c, 15, 49, 0
18, 172200, Note_on_c, 15, 54, 90
18, 172259, Note_on_c, 15, 54, 0
18, 172260, Note_on_c, 15, 56, 90
18, 172319, Note_on_c, 15, 56, 0
18, 172320, Note_on_c, 15, 57, 90
18, 172379, Note_on_c, 15, 57, 0
18, 172380, Note_on_c, 15, 54, 90
18, 172439, Note_on_c, 15, 54, 0
18, 172440, Note_on_c, 15, 56, 90
18, 172499, Note_on_c, 15, 56, 0
18, 172500, Note_on_c, 15, 54, 90
18, 172559, Note_on_c, 15, 54, 0
18, 172560, Note_on_c, 15, 56, 90
18, 172619, Note_on_c, 15, 56, 0
18, 172620, Note_on_c, 15, 58, 90
18, 172679, Note_on_c, 15, 58, 0
18, 172680, Note_on_c, 15, 59, 90
18, 172739, Note_on_c, 15, 59, 0
18, 172860, Note_on_c, 15, 47, 90
18, 172919, Note_on_c, 15, 47, 0
18, 172920, Note_on_c, 15, 54, 90
18, 172979, Note_on_c, 15, 54, 0
18, 172980, Note_on_c, 15, 52, 90
18, 173039, Note_on_c, 15, 52, 0
18, 173040, Note_on_c, 15, 54, 90
18, 173099, Note_on_c, 15, 54, 0
18, 173100, Note_on_c, 15, 47, 90
18, 173159, Note_on_c, 15, 47, 0
18, 173160, Note_on_c, 15, 52, 90
18, 173219, Note_on_c, 15, 52, 0
18, 173340, Note_on_c, 15, 40, 90
18, 173399, Note_on_c, 15, 40, 0
18, 173400, Note_on_c, 15, 47, 90
18, 173459, Note_on_c, 15, 47, 0
18, 173460, Note_on_c, 15, 45, 90
18, 173519, Note_on_c, 15, 45, 0
18, 173520, Note_on_c, 15, 47, 90
18, 173579, Note_on_c, 15, 47, 0
18, 173580, Note_on_c, 15, 40, 90
18, 173639, Note_on_c, 15, 40, 0
18, 173640, Note_on_c, 15, 45, 90
18, 173699, Note_on_c, 15, 45, 0
18, 173820, Note_on_c, 15, 45, 90
18, 173879, Note_on_c, 15, 45, 0
18, 173880, Note_on_c, 15, 52, 90
18, 173939, Note_on_c, 15, 52, 0
18, 173940, Note_on_c, 15, 50, 90
18, 173999, Note_on_c, 15, 50, 0
18, 174000, Note_on_c, 15, 52, 90
18, 174059, Note_on_c, 15, 52, 0
18, 174060, Note_on_c, 15, 45, 90
18, 174119, Note_on_c, 15, 45, 0
18, 174120, Note_on_c, 15, 38, 90
18, 174179, Note_on_c, 15, 38, 0
18, 174180, Note_on_c, 15, 50, 90
18, 174209, Note_on_c, 15, 50, 0
18, 174210, Note_on_c, 15, 49, 90
18, 174239, Note_on_c, 15, 49, 0
18, 174240, Note_on_c, 15, 50, 90
18, 174299, Note_on_c, 15, 50, 0
18, 174300, Note_on_c, 15, 47, 90
18, 174359, Note_on_c, 15, 47, 0
18, 174360, Note_on_c, 15, 44, 90
18, 174419, Note_on_c, 15, 44, 0
18, 174420, Note_on_c, 15, 40, 90
18, 174479, Note_on_c, 15, 40, 0
18, 174480, Note_on_c, 15, 45, 90
18, 174539, Note_on_c, 15, 45, 0
18, 174660, Note_on_c, 15, 52, 90
18, 174689, Note_on_c, 15, 52, 0
18, 174690, Note_on_c, 15, 51, 90
18, 174719, Note_on_c, 15, 51, 0
18, 174720, Note_on_c, 15, 52, 90
18, 174779, Note_on_c, 15, 52, 0
18, 174780, Note_on_c, 15, 49, 90
18, 174839, Note_on_c, 15, 49, 0
18, 174840, Note_on_c, 15, 46, 90
18, 174899, Note_on_c, 15, 46, 0
18, 174900, Note_on_c, 15, 42, 90
18, 174959, Note_on_c, 15, 42, 0
18, 174960, Note_on_c, 15, 47, 90
18, 175019, Note_on_c, 15, 47, 0
18, 175140, Note_on_c, 15, 54, 90
18, 175169, Note_on_c, 15, 54, 0
18, 175170, Note_on_c, 15, 53, 90
18, 175199, Note_on_c, 15, 53, 0
18, 175200, Note_on_c, 15, 54, 90
18, 175259, Note_on_c, 15, 54, 0
18, 175260, Note_on_c, 15, 42, 90
18, 175319, Note_on_c, 15, 42, 0
18, 175380, Note_on_c, 15, 61, 90
18, 175409, Note_on_c, 15, 61, 0
18, 175410, Note_on_c, 15, 59, 90
18, 175439, Note_on_c, 15, 59, 0
18, 175440, Note_on_c, 15, 61, 90
18, 175499, Note_on_c, 15, 61, 0
18, 175500, Note_on_c, 15, 49, 90
18, 175559, Note_on_c, 15, 49, 0
18, 175620, Note_on_c, 15, 54, 90
18, 175649, Note_on_c, 15, 54, 0
18, 175650, Note_on_c, 15, 56, 90
18, 175679, Note_on_c, 15, 56, 0
18, 175680, Note_on_c, 15, 57, 90
18, 175739, Note_on_c, 15, 57, 0
18, 175740, Note_on_c, 15, 54, 90
18, 175799, Note_on_c, 15, 54, 0
18, 175800, Note_on_c, 15, 59, 90
18, 175859, Note_on_c, 15, 59, 0
18, 175860, Note_on_c, 15, 57, 90
18, 175919, Note_on_c, 15, 57, 0
18, 175920, Note_on_c, 15, 56, 90
18, 175979, Note_on_c, 15, 56, 0
18, 175980, Note_on_c, 15, 59, 90
18, 176039, Note_on_c, 15, 59, 0
18, 176040, Note_on_c, 15, 52, 90
18, 176159, Note_on_c, 15, 52, 0
18, 176220, Note_on_c, 15, 50, 90
18, 176279, Note_on_c, 15, 50, 0
18, 176280, Note_on_c, 15, 49, 90
18, 176339, Note_on_c, 15, 49, 0
18, 176340, Note_on_c, 15, 54, 90
18, 176399, Note_on_c, 15, 54, 0
18, 176400, Note_on_c, 15, 50, 90
18, 176459, Note_on_c, 15, 50, 0
18, 176460, Note_on_c, 15, 52, 90
18, 176519, Note_on_c, 15, 52, 0
18, 176520, Note_on_c, 15, 45, 90
18, 176579, Note_on_c, 15, 45, 0
18, 176640, Note_on_c, 15, 47, 90
18, 176699, Note_on_c, 15, 47, 0
18, 176760, Note_on_c, 15, 49, 90
18, 176819, Note_on_c, 15, 49, 0
18, 176880, Note_on_c, 15, 50, 90
18, 176939, Note_on_c, 15, 50, 0
18, 177000, Note_on_c, 15, 52, 90
18, 177059, Note_on_c, 15, 52, 0
18, 177060, Note_on_c, 15, 45, 90
18, 177119, Note_on_c, 15, 45, 0
18, 177120, Note_on_c, 15, 44, 90
18, 177179, Note_on_c, 15, 44, 0
18, 177180, Note_on_c, 15, 45, 90
18, 177239, Note_on_c, 15, 45, 0
18, 177240, Note_on_c, 15, 40, 90
18, 177299, Note_on_c, 15, 40, 0
18, 177300, Note_on_c, 15, 52, 90
18, 177329, Note_on_c, 15, 52, 0
18, 177330, Note_on_c, 15, 50, 90
18, 177359, Note_on_c, 15, 50, 0
18, 177360, Note_on_c, 15, 49, 90
18, 177419, Note_on_c, 15, 49, 0
18, 177420, Note_on_c, 15, 47, 90
18, 177479, Note_on_c, 15, 47, 0
18, 177480, Note_on_c, 15, 54, 90
18, 177509, Note_on_c, 15, 54, 0
18, 177510, Note_on_c, 15, 52, 90
18, 177539, Note_on_c, 15, 52, 0
18, 177540, Note_on_c, 15, 54, 90
18, 177569, Note_on_c, 15, 54, 0
18, 177570, Note_on_c, 15, 55, 90
18, 177599, Note_on_c, 15, 55, 0
18, 177600, Note_on_c, 15, 54, 90
18, 177629, Note_on_c, 15, 54, 0
18, 177630, Note_on_c, 15, 52, 90
18, 177659, Note_on_c, 15, 52, 0
18, 177660, Note_on_c, 15, 50, 90
18, 177689, Note_on_c, 15, 50, 0
18, 177690, Note_on_c, 15, 49, 90
18, 177719, Note_on_c, 15, 49, 0
18, 177720, Note_on_c, 15, 47, 90
18, 177779, Note_on_c, 15, 47, 0
18, 177780, Note_on_c, 15, 49, 90
18, 177839, Note_on_c, 15, 49, 0
18, 177840, Note_on_c, 15, 50, 90
18, 177899, Note_on_c, 15, 50, 0
18, 177900, Note_on_c, 15, 47, 90
18, 177959, Note_on_c, 15, 47, 0
18, 177960, Note_on_c, 15, 49, 90
18, 178019, Note_on_c, 15, 49, 0
18, 178020, Note_on_c, 15, 47, 90
18, 178079, Note_on_c, 15, 47, 0
18, 178080, Note_on_c, 15, 49, 90
18, 178139, Note_on_c, 15, 49, 0
18, 178140, Note_on_c, 15, 51, 90
18, 178199, Note_on_c, 15, 51, 0
18, 178200, Note_on_c, 15, 52, 90
18, 178259, Note_on_c, 15, 52, 0
18, 178380, Note_on_c, 15, 40, 90
18, 178439, Note_on_c, 15, 40, 0
18, 178440, Note_on_c, 15, 47, 90
18, 178499, Note_on_c, 15, 47, 0
18, 178500, Note_on_c, 15, 45, 90
18, 178559, Note_on_c, 15, 45, 0
18, 178560, Note_on_c, 15, 47, 90
18, 178619, Note_on_c, 15, 47, 0
18, 178620, Note_on_c, 15, 40, 90
18, 178679, Note_on_c, 15, 40, 0
18, 178680, Note_on_c, 15, 45, 90
18, 178739, Note_on_c, 15, 45, 0
18, 178860, Note_on_c, 15, 45, 90
18, 178919, Note_on_c, 15, 45, 0
18, 178920, Note_on_c, 15, 52, 90
18, 178979, Note_on_c, 15, 52, 0
18, 178980, Note_on_c, 15, 50, 90
18, 179039, Note_on_c, 15, 50, 0
18, 179040, Note_on_c, 15, 52, 90
18, 179099, Note_on_c, 15, 52, 0
18, 179100, Note_on_c, 15, 45, 90
18, 179159, Note_on_c, 15, 45, 0
18, 179160, Note_on_c, 15, 50, 90
18, 179219, Note_on_c, 15, 50, 0
18, 179340, Note_on_c, 15, 38, 90
18, 179399, Note_on_c, 15, 38, 0
18, 179400, Note_on_c, 15, 45, 90
18, 179459, Note_on_c, 15, 45, 0
18, 179460, Note_on_c, 15, 43, 90
18, 179519, Note_on_c, 15, 43, 0
18, 179520, Note_on_c, 15, 45, 90
18, 179579, Note_on_c, 15, 45, 0
18, 179580, Note_on_c, 15, 38, 90
18, 179639, Note_on_c, 15, 38, 0
18, 179640, Note_on_c, 15, 43, 90
18, 179699, Note_on_c, 15, 43, 0
18, 179700, Note_on_c, 15, 55, 90
18, 179729, Note_on_c, 15, 55, 0
18, 179730, Note_on_c, 15, 54, 90
18, 179759, Note_on_c, 15, 54, 0
18, 179760, Note_on_c, 15, 55, 90
18, 179819, Note_on_c, 15, 55, 0
18, 179820, Note_on_c, 15, 52, 90
18, 179879, Note_on_c, 15, 52, 0
18, 179880, Note_on_c, 15, 49, 90
18, 179939, Note_on_c, 15, 49, 0
18, 179940, Note_on_c, 15, 45, 90
18, 179999, Note_on_c, 15, 45, 0
18, 180000, Note_on_c, 15, 50, 90
18, 180059, Note_on_c, 15, 50, 0
18, 180180, Note_on_c, 15, 57, 90
18, 180209, Note_on_c, 15, 57, 0
18, 180210, Note_on_c, 15, 56, 90
18, 180239, Note_on_c, 15, 56, 0
18, 180240, Note_on_c, 15, 57, 90
18, 180299, Note_on_c, 15, 57, 0
18, 180300, Note_on_c, 15, 54, 90
18, 180359, Note_on_c, 15, 54, 0
18, 180360, Note_on_c, 15, 51, 90
18, 180419, Note_on_c, 15, 51, 0
18, 180420, Note_on_c, 15, 47, 90
18, 180479, Note_on_c, 15, 47, 0
18, 180480, Note_on_c, 15, 52, 90
18, 180539, Note_on_c, 15, 52, 0
18, 180660, Note_on_c, 15, 59, 90
18, 180689, Note_on_c, 15, 59, 0
18, 180690, Note_on_c, 15, 58, 90
18, 180719, Note_on_c, 15, 58, 0
18, 180720, Note_on_c, 15, 59, 90
18, 180779, Note_on_c, 15, 59, 0
18, 180780, Note_on_c, 15, 47, 90
18, 180839, Note_on_c, 15, 47, 0
18, 180900, Note_on_c, 15, 54, 90
18, 180929, Note_on_c, 15, 54, 0
18, 180930, Note_on_c, 15, 52, 90
18, 180959, Note_on_c, 15, 52, 0
18, 180960, Note_on_c, 15, 54, 90
18, 181019, Note_on_c, 15, 54, 0
18, 181020, Note_on_c, 15, 42, 90
18, 181079, Note_on_c, 15, 42, 0
18, 181140, Note_on_c, 15, 47, 90
18, 181169, Note_on_c, 15, 47, 0
18, 181170, Note_on_c, 15, 49, 90
18, 181199, Note_on_c, 15, 49, 0
18, 181200, Note_on_c, 15, 50, 90
18, 181259, Note_on_c, 15, 50, 0
18, 181260, Note_on_c, 15, 47, 90
18, 181319, Note_on_c, 15, 47, 0
18, 181320, Note_on_c, 15, 52, 90
18, 181379, Note_on_c, 15, 52, 0
18, 181380, Note_on_c, 15, 50, 90
18, 181439, Note_on_c, 15, 50, 0
18, 181440, Note_on_c, 15, 49, 90
18, 181499, Note_on_c, 15, 49, 0
18, 181500, Note_on_c, 15, 52, 90
18, 181559, Note_on_c, 15, 52, 0
18, 181560, Note_on_c, 15, 45, 90
18, 181679, Note_on_c, 15, 45, 0
18, 181740, Note_on_c, 15, 43, 90
18, 181799, Note_on_c, 15, 43, 0
18, 181800, Note_on_c, 15, 42, 90
18, 181859, Note_on_c, 15, 42, 0
18, 181860, Note_on_c, 15, 47, 90
18, 181919, Note_on_c, 15, 47, 0
18, 181920, Note_on_c, 15, 43, 90
18, 181979, Note_on_c, 15, 43, 0
18, 181980, Note_on_c, 15, 45, 90
18, 182039, Note_on_c, 15, 45, 0
18, 182040, Note_on_c, 15, 50, 90
18, 182099, Note_on_c, 15, 50, 0
18, 182160, Note_on_c, 15, 52, 90
18, 182219, Note_on_c, 15, 52, 0
18, 182280, Note_on_c, 15, 54, 90
18, 182339, Note_on_c, 15, 54, 0
18, 182400, Note_on_c, 15, 55, 90
18, 182459, Note_on_c, 15, 55, 0
18, 182520, Note_on_c, 15, 57, 90
18, 182579, Note_on_c, 15, 57, 0
18, 182580, Note_on_c, 15, 50, 90
18, 182639, Note_on_c, 15, 50, 0
18, 182640, Note_on_c, 15, 49, 90
18, 182699, Note_on_c, 15, 49, 0
18, 182700, Note_on_c, 15, 50, 90
18, 182759, Note_on_c, 15, 50, 0
18, 182760, Note_on_c, 15, 45, 90
18, 182819, Note_on_c, 15, 45, 0
18, 182820, Note_on_c, 15, 57, 90
18, 182849, Note_on_c, 15, 57, 0
18, 182850, Note_on_c, 15, 55, 90
18, 182879, Note_on_c, 15, 55, 0
18, 182880, Note_on_c, 15, 54, 90
18, 182939, Note_on_c, 15, 54, 0
18, 182940, Note_on_c, 15, 52, 90
18, 182999, Note_on_c, 15, 52, 0
18, 183000, Note_on_c, 15, 59, 90
18, 183029, Note_on_c, 15, 59, 0
18, 183030, Note_on_c, 15, 60, 90
18, 183059, Note_on_c, 15, 60, 0
18, 183060, Note_on_c, 15, 59, 90
18, 183089, Note_on_c, 15, 59, 0
18, 183090, Note_on_c, 15, 57, 90
18, 183119, Note_on_c, 15, 57, 0
18, 183120, Note_on_c, 15, 55, 90
18, 183149, Note_on_c, 15, 55, 0
18, 183150, Note_on_c, 15, 54, 90
18, 183179, Note_on_c, 15, 54, 0
18, 183180, Note_on_c, 15, 52, 90
18, 183209, Note_on_c, 15, 52, 0
18, 183210, Note_on_c, 15, 51, 90
18, 183239, Note_on_c, 15, 51, 0
18, 183240, Note_on_c, 15, 52, 90
18, 183299, Note_on_c, 15, 52, 0
18, 183360, Note_on_c, 15, 50, 90
18, 183419, Note_on_c, 15, 50, 0
18, 183480, Note_on_c, 15, 48, 90
18, 183539, Note_on_c, 15, 48, 0
18, 183600, Note_on_c, 15, 47, 90
18, 183659, Note_on_c, 15, 47, 0
18, 183720, Note_on_c, 15, 45, 90
18, 183779, Note_on_c, 15, 45, 0
18, 183780, Note_on_c, 15, 54, 90
18, 183839, Note_on_c, 15, 54, 0
18, 183840, Note_on_c, 15, 55, 90
18, 183899, Note_on_c, 15, 55, 0
18, 183900, Note_on_c, 15, 57, 90
18, 183959, Note_on_c, 15, 57, 0
18, 183960, Note_on_c, 15, 59, 90
18, 184019, Note_on_c, 15, 59, 0
18, 184020, Note_on_c, 15, 47, 90
18, 184079, Note_on_c, 15, 47, 0
18, 184080, Note_on_c, 15, 51, 90
18, 184139, Note_on_c, 15, 51, 0
18, 184140, Note_on_c, 15, 47, 90
18, 184199, Note_on_c, 15, 47, 0
18, 184200, Note_on_c, 15, 52, 90
18, 184259, Note_on_c, 15, 52, 0
18, 184320, Note_on_c, 15, 54, 90
18, 184379, Note_on_c, 15, 54, 0
18, 184440, Note_on_c, 15, 55, 90
18, 184499, Note_on_c, 15, 55, 0
18, 184560, Note_on_c, 15, 57, 90
18, 184619, Note_on_c, 15, 57, 0
18, 184680, Note_on_c, 15, 59, 90
18, 184739, Note_on_c, 15, 59, 0
18, 184740, Note_on_c, 15, 52, 90
18, 184799, Note_on_c, 15, 52, 0
18, 184800, Note_on_c, 15, 51, 90
18, 184859, Note_on_c, 15, 51, 0
18, 184860, Note_on_c, 15, 52, 90
18, 184919, Note_on_c, 15, 52, 0
18, 184920, Note_on_c, 15, 59, 90
18, 184979, Note_on_c, 15, 59, 0
18, 184980, Note_on_c, 15, 47, 90
18, 185010, Note_on_c, 15, 47, 0
18, 185010, Note_on_c, 15, 49, 90
18, 185040, Note_on_c, 15, 49, 0
18, 185040, Note_on_c, 15, 51, 90
18, 185100, Note_on_c, 15, 51, 0
18, 185100, Note_on_c, 15, 47, 90
18, 185160, Note_on_c, 15, 47, 0
18, 185160, Note_on_c, 15, 40, 90
18, 185220, Note_on_c, 15, 40, 0
18, 185280, Note_on_c, 15, 42, 90
18, 185340, Note_on_c, 15, 42, 0
18, 185400, Note_on_c, 15, 43, 90
18, 185460, Note_on_c, 15, 43, 0
18, 185520, Note_on_c, 15, 45, 90
18, 185580, Note_on_c, 15, 45, 0
18, 185640, Note_on_c, 15, 45, 90
18, 185700, Note_on_c, 15, 45, 0
18, 185700, Note_on_c, 15, 43, 90
18, 185760, Note_on_c, 15, 43, 0
18, 185760, Note_on_c, 15, 39, 90
18, 185820, Note_on_c, 15, 39, 0
18, 185820, Note_on_c, 15, 40, 90
18, 185880, Note_on_c, 15, 40, 0
18, 185880, Note_on_c, 15, 47, 90
18, 185940, Note_on_c, 15, 47, 0
18, 185940, Note_on_c, 15, 59, 90
18, 186000, Note_on_c, 15, 59, 0
18, 186000, Note_on_c, 15, 51, 90
18, 186060, Note_on_c, 15, 51, 0
18, 186060, Note_on_c, 15, 47, 90
18, 186120, Note_on_c, 15, 47, 0
18, 186120, Note_on_c, 15, 52, 90
18, 186180, Note_on_c, 15, 52, 0
18, 186180, Note_on_c, 15, 54, 90
18, 186240, Note_on_c, 15, 54, 0
18, 186240, Note_on_c, 15, 55, 90
18, 186300, Note_on_c, 15, 55, 0
18, 186300, Note_on_c, 15, 54, 90
18, 186360, Note_on_c, 15, 54, 0
18, 186360, Note_on_c, 15, 52, 90
18, 186420, Note_on_c, 15, 52, 0
18, 186420, Note_on_c, 15, 54, 90
18, 186480, Note_on_c, 15, 54, 0
18, 186480, Note_on_c, 15, 52, 90
18, 186540, Note_on_c, 15, 52, 0
18, 186540, Note_on_c, 15, 50, 90
18, 186600, Note_on_c, 15, 50, 0
18, 186600, Note_on_c, 15, 49, 90
18, 186660, Note_on_c, 15, 49, 0
18, 186720, Note_on_c, 15, 52, 90
18, 186780, Note_on_c, 15, 52, 0
18, 186840, Note_on_c, 15, 49, 90
18, 186900, Note_on_c, 15, 49, 0
18, 186960, Note_on_c, 15, 45, 90
18, 187020, Note_on_c, 15, 45, 0
18, 187080, Note_on_c, 15, 50, 90
18, 187140, Note_on_c, 15, 50, 0
18, 187140, Note_on_c, 15, 52, 90
18, 187200, Note_on_c, 15, 52, 0
18, 187200, Note_on_c, 15, 54, 90
18, 187260, Note_on_c, 15, 54, 0
18, 187260, Note_on_c, 15, 52, 90
18, 187320, Note_on_c, 15, 52, 0
18, 187320, Note_on_c, 15, 50, 90
18, 187380, Note_on_c, 15, 50, 0
18, 187380, Note_on_c, 15, 52, 90
18, 187440, Note_on_c, 15, 52, 0
18, 187440, Note_on_c, 15, 50, 90
18, 187500, Note_on_c, 15, 50, 0
18, 187500, Note_on_c, 15, 48, 90
18, 187560, Note_on_c, 15, 48, 0
18, 187560, Note_on_c, 15, 47, 90
18, 187620, Note_on_c, 15, 47, 0
18, 187680, Note_on_c, 15, 50, 90
18, 187740, Note_on_c, 15, 50, 0
18, 187800, Note_on_c, 15, 47, 90
18, 187860, Note_on_c, 15, 47, 0
18, 187920, Note_on_c, 15, 43, 90
18, 187980, Note_on_c, 15, 43, 0
18, 188040, Note_on_c, 15, 48, 90
18, 188100, Note_on_c, 15, 48, 0
18, 188100, Note_on_c, 15, 47, 90
18, 188160, Note_on_c, 15, 47, 0
18, 188160, Note_on_c, 15, 45, 90
18, 188220, Note_on_c, 15, 45, 0
18, 188220, Note_on_c, 15, 43, 90
18, 188280, Note_on_c, 15, 43, 0
18, 188280, Note_on_c, 15, 42, 90
18, 188340, Note_on_c, 15, 42, 0
18, 188340, Note_on_c, 15, 40, 90
18, 188370, Note_on_c, 15, 40, 0
18, 188370, Note_on_c, 15, 38, 90
18, 188400, Note_on_c, 15, 38, 0
18, 188400, Note_on_c, 15, 40, 90
18, 188460, Note_on_c, 15, 40, 0
18, 188460, Note_on_c, 15, 42, 90
18, 188520, Note_on_c, 15, 42, 0
18, 188520, Note_on_c, 15, 43, 90
18, 188580, Note_on_c, 15, 43, 0
18, 188580, Note_on_c, 15, 47, 90
18, 188640, Note_on_c, 15, 47, 0
18, 188640, Note_on_c, 15, 48, 90
18, 188700, Note_on_c, 15, 48, 0
18, 188700, Note_on_c, 15, 50, 90
18, 188760, Note_on_c, 15, 50, 0
18, 188760, Note_on_c, 15, 43, 90
18, 188820, Note_on_c, 15, 43, 0
18, 188820, Note_on_c, 15, 45, 90
18, 188880, Note_on_c, 15, 45, 0
18, 188880, Note_on_c, 15, 47, 90
18, 188940, Note_on_c, 15, 47, 0
18, 188940, Note_on_c, 15, 48, 90
18, 189000, Note_on_c, 15, 48, 0
18, 189000, Note_on_c, 15, 50, 90
18, 189060, Note_on_c, 15, 50, 0
18, 189060, Note_on_c, 15, 52, 90
18, 189120, Note_on_c, 15, 52, 0
18, 189120, Note_on_c, 15, 54, 90
18, 189180, Note_on_c, 15, 54, 0
18, 189180, Note_on_c, 15, 50, 90
18, 189240, Note_on_c, 15, 50, 0
18, 189240, Note_on_c, 15, 43, 90
18, 189300, Note_on_c, 15, 43, 0
18, 189300, Note_on_c, 15, 45, 90
18, 189360, Note_on_c, 15, 45, 0
18, 189360, Note_on_c, 15, 47, 90
18, 189420, Note_on_c, 15, 47, 0
18, 189420, Note_on_c, 15, 48, 90
18, 189480, Note_on_c, 15, 48, 0
18, 189480, Note_on_c, 15, 50, 90
18, 189540, Note_on_c, 15, 50, 0
18, 189540, Note_on_c, 15, 52, 90
18, 189600, Note_on_c, 15, 52, 0
18, 189600, Note_on_c, 15, 54, 90
18, 189660, Note_on_c, 15, 54, 0
18, 189660, Note_on_c, 15, 52, 90
18, 189720, Note_on_c, 15, 52, 0
18, 189720, Note_on_c, 15, 51, 90
18, 189780, Note_on_c, 15, 51, 0
18, 189780, Note_on_c, 15, 49, 90
18, 189840, Note_on_c, 15, 49, 0
18, 189840, Note_on_c, 15, 51, 90
18, 189900, Note_on_c, 15, 51, 0
18, 189900, Note_on_c, 15, 47, 90
18, 189960, Note_on_c, 15, 47, 0
18, 189960, Note_on_c, 15, 40, 90
18, 190020, Note_on_c, 15, 40, 0
18, 190020, Note_on_c, 15, 42, 90
18, 190080, Note_on_c, 15, 42, 0
18, 190080, Note_on_c, 15, 43, 90
18, 190140, Note_on_c, 15, 43, 0
18, 190140, Note_on_c, 15, 45, 90
18, 190200, Note_on_c, 15, 45, 0
18, 190200, Note_on_c, 15, 47, 90
18, 190260, Note_on_c, 15, 47, 0
18, 190260, Note_on_c, 15, 49, 90
18, 190320, Note_on_c, 15, 49, 0
18, 190320, Note_on_c, 15, 51, 90
18, 190380, Note_on_c, 15, 51, 0
18, 190380, Note_on_c, 15, 47, 90
18, 190440, Note_on_c, 15, 47, 0
18, 190440, Note_on_c, 15, 40, 90
18, 190500, Note_on_c, 15, 40, 0
18, 190500, Note_on_c, 15, 42, 90
18, 190560, Note_on_c, 15, 42, 0
18, 190560, Note_on_c, 15, 43, 90
18, 190620, Note_on_c, 15, 43, 0
18, 190620, Note_on_c, 15, 45, 90
18, 190680, Note_on_c, 15, 45, 0
18, 190680, Note_on_c, 15, 47, 90
18, 190740, Note_on_c, 15, 47, 0
18, 190740, Note_on_c, 15, 49, 90
18, 190800, Note_on_c, 15, 49, 0
18, 190800, Note_on_c, 15, 51, 90
18, 190860, Note_on_c, 15, 51, 0
18, 190860, Note_on_c, 15, 47, 90
18, 190920, Note_on_c, 15, 47, 0
18, 190920, Note_on_c, 15, 52, 90
18, 190980, Note_on_c, 15, 52, 0
18, 190980, Note_on_c, 15, 55, 90
18, 191040, Note_on_c, 15, 55, 0
18, 191040, Note_on_c, 15, 54, 90
18, 191100, Note_on_c, 15, 54, 0
18, 191100, Note_on_c, 15, 52, 90
18, 191160, Note_on_c, 15, 52, 0
18, 191160, Note_on_c, 15, 54, 90
18, 191220, Note_on_c, 15, 54, 0
18, 191220, Note_on_c, 15, 52, 90
18, 191280, Note_on_c, 15, 52, 0
18, 191280, Note_on_c, 15, 50, 90
18, 191340, Note_on_c, 15, 50, 0
18, 191340, Note_on_c, 15, 52, 90
18, 191400, Note_on_c, 15, 52, 0
18, 191400, Note_on_c, 15, 54, 90
18, 191460, Note_on_c, 15, 54, 0
18, 191460, Note_on_c, 15, 52, 90
18, 191520, Note_on_c, 15, 52, 0
18, 191520, Note_on_c, 15, 54, 90
18, 191580, Note_on_c, 15, 54, 0
18, 191580, Note_on_c, 15, 42, 90
18, 191640, Note_on_c, 15, 42, 0
18, 191640, Note_on_c, 15, 47, 90
18, 191700, Note_on_c, 15, 47, 0
18, 191700, Note_on_c, 15, 49, 90
18, 191760, Note_on_c, 15, 49, 0
18, 191760, Note_on_c, 15, 50, 90
18, 191820, Note_on_c, 15, 50, 0
18, 191820, Note_on_c, 15, 52, 90
18, 191880, Note_on_c, 15, 52, 0
18, 191880, Note_on_c, 15, 54, 90
18, 191940, Note_on_c, 15, 54, 0
18, 191940, Note_on_c, 15, 52, 90
18, 192000, Note_on_c, 15, 52, 0
18, 192000, Note_on_c, 15, 50, 90
18, 192060, Note_on_c, 15, 50, 0
18, 192060, Note_on_c, 15, 49, 90
18, 192120, Note_on_c, 15, 49, 0
18, 192120, Note_on_c, 15, 47, 90
18, 192180, Note_on_c, 15, 47, 0
18, 192180, Note_on_c, 15, 54, 90
18, 192240, Note_on_c, 15, 54, 0
18, 192240, Note_on_c, 15, 59, 90
18, 192300, Note_on_c, 15, 59, 0
18, 192300, Note_on_c, 15, 47, 90
18, 192360, Note_on_c, 15, 47, 0
18, 192360, Note_on_c, 15, 52, 90
18, 192420, Note_on_c, 15, 52, 0
18, 192480, Note_on_c, 15, 45, 90
18, 192540, Note_on_c, 15, 45, 0
18, 192600, Note_on_c, 15, 50, 90
18, 192660, Note_on_c, 15, 50, 0
18, 192720, Note_on_c, 15, 43, 90
18, 192780, Note_on_c, 15, 43, 0
18, 192840, Note_on_c, 15, 49, 90
18, 192900, Note_on_c, 15, 49, 0
18, 192960, Note_on_c, 15, 42, 90
18, 193020, Note_on_c, 15, 42, 0
18, 193080, Note_on_c, 15, 47, 90
18, 193140, Note_on_c, 15, 47, 0
18, 193140, Note_on_c, 15, 59, 90
18, 193200, Note_on_c, 15, 59, 0
18, 193200, Note_on_c, 15, 57, 90
18, 193260, Note_on_c, 15, 57, 0
18, 193260, Note_on_c, 15, 55, 90
18, 193320, Note_on_c, 15, 55, 0
18, 193320, Note_on_c, 15, 54, 90
18, 193440, Note_on_c, 15, 54, 0
18, 193500, Note_on_c, 15, 52, 90
18, 193560, Note_on_c, 15, 52, 0
18, 193560, Note_on_c, 15, 50, 90
18, 193620, Note_on_c, 15, 50, 0
18, 193620, Note_on_c, 15, 47, 90
18, 193680, Note_on_c, 15, 47, 0
18, 193680, Note_on_c, 15, 54, 90
18, 193740, Note_on_c, 15, 54, 0
18, 193740, Note_on_c, 15, 42, 90
18, 193800, Note_on_c, 15, 42, 0
18, 193800, Note_on_c, 15, 47, 90
18, 193860, Note_on_c, 15, 47, 0
18, 193920, Note_on_c, 15, 49, 90
18, 193980, Note_on_c, 15, 49, 0
18, 194040, Note_on_c, 15, 50, 90
18, 194100, Note_on_c, 15, 50, 0
18, 194160, Note_on_c, 15, 52, 90
18, 194220, Note_on_c, 15, 52, 0
18, 194280, Note_on_c, 15, 54, 90
18, 194340, Note_on_c, 15, 54, 0
18, 194340, Note_on_c, 15, 47, 90
18, 194400, Note_on_c, 15, 47, 0
18, 194400, Note_on_c, 15, 46, 90
18, 194460, Note_on_c, 15, 46, 0
18, 194460, Note_on_c, 15, 47, 90
18, 194520, Note_on_c, 15, 47, 0
18, 194520, Note_on_c, 15, 42, 90
18, 194580, Note_on_c, 15, 42, 0
18, 194580, Note_on_c, 15, 54, 90
18, 194610, Note_on_c, 15, 54, 0
18, 194610, Note_on_c, 15, 56, 90
18, 194640, Note_on_c, 15, 56, 0
18, 194640, Note_on_c, 15, 58, 90
18, 194700, Note_on_c, 15, 58, 0
18, 194700, Note_on_c, 15, 54, 90
18, 194760, Note_on_c, 15, 54, 0
18, 194760, Note_on_c, 15, 59, 90
18, 194820, Note_on_c, 15, 59, 0
18, 194820, Note_on_c, 15, 61, 90
18, 194880, Note_on_c, 15, 61, 0
18, 194880, Note_on_c, 15, 62, 90
18, 194940, Note_on_c, 15, 62, 0
18, 194940, Note_on_c, 15, 61, 90
18, 195000, Note_on_c, 15, 61, 0
18, 195000, Note_on_c, 15, 59, 90
18, 195060, Note_on_c, 15, 59, 0
18, 195060, Note_on_c, 15, 61, 90
18, 195120, Note_on_c, 15, 61, 0
18, 195120, Note_on_c, 15, 59, 90
18, 195180, Note_on_c, 15, 59, 0
18, 195180, Note_on_c, 15, 57, 90
18, 195240, Note_on_c, 15, 57, 0
18, 195240, Note_on_c, 15, 56, 90
18, 195300, Note_on_c, 15, 56, 0
18, 195360, Note_on_c, 15, 59, 90
18, 195420, Note_on_c, 15, 59, 0
18, 195480, Note_on_c, 15, 56, 90
18, 195540, Note_on_c, 15, 56, 0
18, 195600, Note_on_c, 15, 52, 90
18, 195660, Note_on_c, 15, 52, 0
18, 195720, Note_on_c, 15, 57, 90
18, 195780, Note_on_c, 15, 57, 0
18, 195780, Note_on_c, 15, 59, 90
18, 195840, Note_on_c, 15, 59, 0
18, 195840, Note_on_c, 15, 61, 90
18, 195900, Note_on_c, 15, 61, 0
18, 195900, Note_on_c, 15, 59, 90
18, 195960, Note_on_c, 15, 59, 0
18, 195960, Note_on_c, 15, 57, 90
18, 196020, Note_on_c, 15, 57, 0
18, 196020, Note_on_c, 15, 59, 90
18, 196080, Note_on_c, 15, 59, 0
18, 196080, Note_on_c, 15, 57, 90
18, 196140, Note_on_c, 15, 57, 0
18, 196140, Note_on_c, 15, 55, 90
18, 196200, Note_on_c, 15, 55, 0
18, 196200, Note_on_c, 15, 54, 90
18, 196260, Note_on_c, 15, 54, 0
18, 196320, Note_on_c, 15, 57, 90
18, 196380, Note_on_c, 15, 57, 0
18, 196440, Note_on_c, 15, 54, 90
18, 196500, Note_on_c, 15, 54, 0
18, 196560, Note_on_c, 15, 50, 90
18, 196620, Note_on_c, 15, 50, 0
18, 196680, Note_on_c, 15, 55, 90
18, 196740, Note_on_c, 15, 55, 0
18, 196740, Note_on_c, 15, 57, 90
18, 196800, Note_on_c, 15, 57, 0
18, 196800, Note_on_c, 15, 55, 90
18, 196860, Note_on_c, 15, 55, 0
18, 196860, Note_on_c, 15, 54, 90
18, 196920, Note_on_c, 15, 54, 0
18, 196920, Note_on_c, 15, 52, 90
18, 196980, Note_on_c, 15, 52, 0
18, 196980, Note_on_c, 15, 54, 90
18, 197040, Note_on_c, 15, 54, 0
18, 197040, Note_on_c, 15, 55, 90
18, 197100, Note_on_c, 15, 55, 0
18, 197100, Note_on_c, 15, 52, 90
18, 197160, Note_on_c, 15, 52, 0
18, 197160, Note_on_c, 15, 54, 90
18, 197220, Note_on_c, 15, 54, 0
18, 197220, Note_on_c, 15, 55, 90
18, 197280, Note_on_c, 15, 55, 0
18, 197280, Note_on_c, 15, 54, 90
18, 197340, Note_on_c, 15, 54, 0
18, 197340, Note_on_c, 15, 52, 90
18, 197400, Note_on_c, 15, 52, 0
18, 197400, Note_on_c, 15, 50, 90
18, 197460, Note_on_c, 15, 50, 0
18, 197460, Note_on_c, 15, 52, 90
18, 197520, Note_on_c, 15, 52, 0
18, 197520, Note_on_c, 15, 54, 90
18, 197580, Note_on_c, 15, 54, 0
18, 197580, Note_on_c, 15, 50, 90
18, 197640, Note_on_c, 15, 50, 0
18, 197640, Note_on_c, 15, 52, 90
18, 197700, Note_on_c, 15, 52, 0
18, 197700, Note_on_c, 15, 50, 90
18, 197760, Note_on_c, 15, 50, 0
18, 197760, Note_on_c, 15, 49, 90
18, 197820, Note_on_c, 15, 49, 0
18, 197820, Note_on_c, 15, 50, 90
18, 197880, Note_on_c, 15, 50, 0
18, 197880, Note_on_c, 15, 52, 90
18, 197940, Note_on_c, 15, 52, 0
18, 197940, Note_on_c, 15, 49, 90
18, 198000, Note_on_c, 15, 49, 0
18, 198000, Note_on_c, 15, 46, 90
18, 198060, Note_on_c, 15, 46, 0
18, 198060, Note_on_c, 15, 42, 90
18, 198120, Note_on_c, 15, 42, 0
18, 198120, Note_on_c, 15, 47, 90
18, 198180, Note_on_c, 15, 47, 0
18, 198180, Note_on_c, 15, 50, 90
18, 198240, Note_on_c, 15, 50, 0
18, 198240, Note_on_c, 15, 54, 90
18, 198300, Note_on_c, 15, 54, 0
18, 198300, Note_on_c, 15, 42, 90
18, 198360, Note_on_c, 15, 42, 0
18, 198360, Note_on_c, 15, 47, 90
18, 198600, Note_on_c, 15, 47, 0
18, 198720, Note_on_c, 15, 41, 90
18, 199199, Note_on_c, 15, 41, 0
18, 199200, Note_on_c, 15, 42, 90
18, 199679, Note_on_c, 15, 42, 0
18, 199680, Note_on_c, 15, 44, 90
18, 200159, Note_on_c, 15, 44, 0
18, 200160, Note_on_c, 15, 45, 90
18, 200279, Note_on_c, 15, 45, 0
18, 200280, Note_on_c, 15, 49, 90
18, 200399, Note_on_c, 15, 49, 0
18, 200400, Note_on_c, 15, 50, 90
18, 200519, Note_on_c, 15, 50, 0
18, 200520, Note_on_c, 15, 54, 90
18, 200639, Note_on_c, 15, 54, 0
18, 200760, Note_on_c, 15, 52, 90
18, 200879, Note_on_c, 15, 52, 0
18, 200880, Note_on_c, 15, 45, 90
18, 201119, Note_on_c, 15, 45, 0
18, 201240, Note_on_c, 15, 57, 90
18, 201359, Note_on_c, 15, 57, 0
18, 201360, Note_on_c, 15, 56, 90
18, 201479, Note_on_c, 15, 56, 0
18, 201480, Note_on_c, 15, 54, 90
18, 201599, Note_on_c, 15, 54, 0
18, 201600, Note_on_c, 15, 49, 90
18, 201659, Note_on_c, 15, 49, 0
18, 201660, Note_on_c, 15, 47, 90
18, 201719, Note_on_c, 15, 47, 0
18, 201720, Note_on_c, 15, 49, 90
18, 201779, Note_on_c, 15, 49, 0
18, 201780, Note_on_c, 15, 51, 90
18, 201839, Note_on_c, 15, 51, 0
18, 201840, Note_on_c, 15, 52, 90
18, 201959, Note_on_c, 15, 52, 0
18, 201960, Note_on_c, 15, 47, 90
18, 202079, Note_on_c, 15, 47, 0
18, 202080, Note_on_c, 15, 52, 90
18, 202175, Note_on_c, 15, 52, 0
18, 202200, Note_on_c, 15, 47, 90
18, 202379, Note_on_c, 15, 47, 0
18, 202380, Note_on_c, 15, 50, 90
18, 202439, Note_on_c, 15, 50, 0
18, 202440, Note_on_c, 15, 49, 90
18, 202499, Note_on_c, 15, 49, 0
18, 202500, Note_on_c, 15, 47, 90
18, 202559, Note_on_c, 15, 47, 0
18, 202560, Note_on_c, 15, 45, 90
18, 202619, Note_on_c, 15, 45, 0
18, 202620, Note_on_c, 15, 44, 90
18, 202679, Note_on_c, 15, 44, 0
18, 202680, Note_on_c, 15, 45, 90
18, 202739, Note_on_c, 15, 45, 0
18, 202740, Note_on_c, 15, 50, 90
18, 202799, Note_on_c, 15, 50, 0
18, 202800, Note_on_c, 15, 52, 90
18, 202859, Note_on_c, 15, 52, 0
18, 202860, Note_on_c, 15, 40, 90
18, 202919, Note_on_c, 15, 40, 0
18, 202920, Note_on_c, 15, 45, 90
18, 203135, Note_on_c, 15, 45, 0
18, 203160, Note_on_c, 15, 57, 90
18, 203279, Note_on_c, 15, 57, 0
18, 203280, Note_on_c, 15, 56, 90
18, 203399, Note_on_c, 15, 56, 0
18, 203400, Note_on_c, 15, 54, 90
18, 203519, Note_on_c, 15, 54, 0
18, 203520, Note_on_c, 15, 49, 90
18, 203579, Note_on_c, 15, 49, 0
18, 203580, Note_on_c, 15, 47, 90
18, 203639, Note_on_c, 15, 47, 0
18, 203640, Note_on_c, 15, 49, 90
18, 203699, Note_on_c, 15, 49, 0
18, 203700, Note_on_c, 15, 51, 90
18, 203759, Note_on_c, 15, 51, 0
18, 203760, Note_on_c, 15, 52, 90
18, 203879, Note_on_c, 15, 52, 0
18, 203880, Note_on_c, 15, 47, 90
18, 203999, Note_on_c, 15, 47, 0
18, 204000, Note_on_c, 15, 52, 90
18, 204095, Note_on_c, 15, 52, 0
18, 204120, Note_on_c, 15, 47, 90
18, 204299, Note_on_c, 15, 47, 0
18, 204300, Note_on_c, 15, 50, 90
18, 204359, Note_on_c, 15, 50, 0
18, 204360, Note_on_c, 15, 49, 90
18, 204419, Note_on_c, 15, 49, 0
18, 204420, Note_on_c, 15, 47, 90
18, 204479, Note_on_c, 15, 47, 0
18, 204480, Note_on_c, 15, 45, 90
18, 204539, Note_on_c, 15, 45, 0
18, 204540, Note_on_c, 15, 44, 90
18, 204599, Note_on_c, 15, 44, 0
18, 204600, Note_on_c, 15, 45, 90
18, 204659, Note_on_c, 15, 45, 0
18, 204660, Note_on_c, 15, 50, 90
18, 204719, Note_on_c, 15, 50, 0
18, 204720, Note_on_c, 15, 52, 90
18, 204779, Note_on_c, 15, 52, 0
18, 204780, Note_on_c, 15, 40, 90
18, 204839, Note_on_c, 15, 40, 0
18, 204840, Note_on_c, 15, 45, 90
18, 205055, Note_on_c, 15, 45, 0
18, 205080, Note_on_c, 15, 57, 90
18, 205139, Note_on_c, 15, 57, 0
18, 205140, Note_on_c, 15, 56, 90
18, 205199, Note_on_c, 15, 56, 0
18, 205200, Note_on_c, 15, 54, 90
18, 205319, Note_on_c, 15, 54, 0
18, 205320, Note_on_c, 15, 56, 90
18, 205379, Note_on_c, 15, 56, 0
18, 205380, Note_on_c, 15, 54, 90
18, 205439, Note_on_c, 15, 54, 0
18, 205440, Note_on_c, 15, 52, 90
18, 205559, Note_on_c, 15, 52, 0
18, 205560, Note_on_c, 15, 54, 90
18, 205619, Note_on_c, 15, 54, 0
18, 205620, Note_on_c, 15, 56, 90
18, 205679, Note_on_c, 15, 56, 0
18, 205680, Note_on_c, 15, 57, 90
18, 205799, Note_on_c, 15, 57, 0
18, 205800, Note_on_c, 15, 52, 90
18, 205919, Note_on_c, 15, 52, 0
18, 205920, Note_on_c, 15, 40, 90
18, 206015, Note_on_c, 15, 40, 0
18, 206040, Note_on_c, 15, 52, 90
18, 206099, Note_on_c, 15, 52, 0
18, 206100, Note_on_c, 15, 50, 90
18, 206159, Note_on_c, 15, 50, 0
18, 206160, Note_on_c, 15, 49, 90
18, 206219, Note_on_c, 15, 49, 0
18, 206220, Note_on_c, 15, 47, 90
18, 206279, Note_on_c, 15, 47, 0
18, 206280, Note_on_c, 15, 49, 90
18, 206339, Note_on_c, 15, 49, 0
18, 206340, Note_on_c, 15, 54, 90
18, 206399, Note_on_c, 15, 54, 0
18, 206400, Note_on_c, 15, 52, 90
18, 206459, Note_on_c, 15, 52, 0
18, 206460, Note_on_c, 15, 50, 90
18, 206519, Note_on_c, 15, 50, 0
18, 206520, Note_on_c, 15, 52, 90
18, 206639, Note_on_c, 15, 52, 0
18, 206640, Note_on_c, 15, 40, 90
18, 206759, Note_on_c, 15, 40, 0
18, 206760, Note_on_c, 15, 45, 90
18, 206879, Note_on_c, 15, 45, 0
18, 206880, Note_on_c, 15, 45, 90
18, 206999, Note_on_c, 15, 45, 0
18, 206999, End_track
19, 0, Start_track
19, 0, MIDI_port, 0
19, 0, Title_t, "J.S.BACH"
19, 0, End_track
20, 0, Start_track
20, 0, MIDI_port, 0
20, 0, Title_t, "CHRISTMAS ORATORIO"
20, 0, End_track
21, 0, Start_track
21, 0, MIDI_port, 0
21, 0, Title_t, "BWV 248"
21, 0, End_track
22, 0, Start_track
22, 0, MIDI_port, 0
22, 0, Title_t, "CANTATA N5"
22, 0, End_track
23, 0, Start_track
23, 0, MIDI_port, 0
23, 0, Title_t, "Ehre sei dir, Gott, Gesungen"
23, 0, End_track
24, 0, Start_track
24, 0, MIDI_port, 0
24, 0, Title_t, "SECUENCED BY"
24, 0, End_track
25, 0, Start_track
25, 0, MIDI_port, 0
25, 0, Title_t, "MARCELO COPIA M."
25, 0, End_track
26, 0, Start_track
26, 0, MIDI_port, 0
26, 0, Title_t, "mcopia@entelchile.net"
26, 0, End_track
0, 0, End_of_file
